<svg width="640" height="360" viewBox="0 0 640 360" fill="none" xmlns="http://www.w3.org/2000/svg">
<g filter="url(#filter0_dd_12852_32633)">
<g clip-path="url(#clip0_12852_32633)">
<rect x="213" y="48" width="215" height="84" rx="24" fill="white"/>
<rect opacity="0.16" x="213" y="48" width="215" height="84" fill="url(#paint0_radial_12852_32633)"/>
<rect x="328.5" y="74.5" width="67" height="31" rx="5.5" fill="#FFEBF7" stroke="#FFADF3"/>
<path d="M250.756 101.047C250.084 101.047 249.476 100.99 248.932 100.876C248.4 100.762 247.95 100.629 247.583 100.477C247.215 100.325 246.93 100.179 246.728 100.04L247.545 98.33C247.722 98.4187 247.956 98.5263 248.248 98.653C248.552 98.7923 248.906 98.9127 249.312 99.014C249.717 99.1153 250.173 99.166 250.68 99.166C251.224 99.166 251.712 99.052 252.143 98.824C252.573 98.6087 252.909 98.273 253.15 97.817C253.39 97.361 253.511 96.7783 253.511 96.069V87.5H255.639V96.012C255.639 97.0887 255.436 98.0007 255.031 98.748C254.625 99.508 254.055 100.078 253.321 100.458C252.586 100.851 251.731 101.047 250.756 101.047ZM250.433 96.81C249.571 96.81 248.818 96.6137 248.172 96.221C247.538 95.8283 247.038 95.2837 246.671 94.587C246.316 93.8777 246.139 93.0607 246.139 92.136C246.139 91.148 246.316 90.293 246.671 89.571C247.038 88.849 247.538 88.2853 248.172 87.88C248.818 87.4747 249.571 87.272 250.433 87.272C251.205 87.272 251.877 87.4747 252.447 87.88C253.029 88.2853 253.479 88.8553 253.796 89.59C254.112 90.312 254.271 91.167 254.271 92.155C254.271 93.0923 254.112 93.9093 253.796 94.606C253.479 95.3027 253.029 95.8473 252.447 96.24C251.877 96.62 251.205 96.81 250.433 96.81ZM251.022 95.005C251.503 95.005 251.921 94.8783 252.276 94.625C252.643 94.3717 252.928 94.0297 253.131 93.599C253.333 93.1557 253.435 92.649 253.435 92.079C253.435 91.4963 253.333 90.9897 253.131 90.559C252.928 90.1157 252.643 89.7737 252.276 89.533C251.908 89.2797 251.484 89.153 251.003 89.153C250.496 89.153 250.046 89.2797 249.654 89.533C249.274 89.7737 248.97 90.1157 248.742 90.559C248.526 90.9897 248.419 91.4963 248.419 92.079C248.419 92.649 248.526 93.1557 248.742 93.599C248.97 94.0297 249.28 94.3717 249.673 94.625C250.065 94.8783 250.515 95.005 251.022 95.005ZM258.122 97V87.5H260.231V97H258.122ZM259.186 85.695C258.844 85.695 258.546 85.5747 258.293 85.334C258.052 85.0807 257.932 84.783 257.932 84.441C257.932 84.099 258.052 83.8077 258.293 83.567C258.546 83.3263 258.844 83.206 259.186 83.206C259.528 83.206 259.819 83.3263 260.06 83.567C260.313 83.8077 260.44 84.099 260.44 84.441C260.44 84.783 260.313 85.0807 260.06 85.334C259.819 85.5747 259.528 85.695 259.186 85.695ZM266.52 97.228C265.519 97.228 264.753 96.981 264.221 96.487C263.702 95.9803 263.442 95.2583 263.442 94.321V84.536H265.551V93.922C265.551 94.3653 265.652 94.701 265.855 94.929C266.07 95.157 266.381 95.271 266.786 95.271C266.913 95.271 267.052 95.2457 267.204 95.195C267.356 95.1443 267.527 95.0493 267.717 94.91L268.496 96.525C268.167 96.753 267.837 96.924 267.508 97.038C267.179 97.1647 266.849 97.228 266.52 97.228ZM261.865 89.324V87.5H268.116V89.324H261.865ZM276.187 91.946C276.187 90.92 276.383 90.0777 276.776 89.419C277.169 88.7603 277.675 88.2727 278.296 87.956C278.929 87.6267 279.588 87.462 280.272 87.462V89.495C279.689 89.495 279.138 89.5773 278.619 89.742C278.112 89.894 277.701 90.1473 277.384 90.502C277.067 90.8567 276.909 91.3253 276.909 91.908L276.187 91.946ZM274.781 97V87.5H276.909V97H274.781ZM285.92 97.228C284.996 97.228 284.172 97.019 283.45 96.601C282.741 96.1703 282.177 95.5813 281.759 94.834C281.354 94.0867 281.151 93.2253 281.151 92.25C281.151 91.2747 281.36 90.4133 281.778 89.666C282.196 88.9187 282.766 88.336 283.488 87.918C284.223 87.4873 285.059 87.272 285.996 87.272C286.845 87.272 287.611 87.4937 288.295 87.937C288.979 88.3677 289.518 88.9947 289.91 89.818C290.316 90.6413 290.518 91.623 290.518 92.763H283.051L283.336 92.497C283.336 93.0797 283.463 93.5863 283.716 94.017C283.97 94.435 284.305 94.758 284.723 94.986C285.141 95.214 285.604 95.328 286.11 95.328C286.693 95.328 287.174 95.2013 287.554 94.948C287.934 94.682 288.232 94.34 288.447 93.922L290.328 94.72C290.062 95.2267 289.72 95.67 289.302 96.05C288.897 96.43 288.409 96.7213 287.839 96.924C287.282 97.1267 286.642 97.228 285.92 97.228ZM283.469 91.395L283.165 91.129H288.523L288.238 91.395C288.238 90.8757 288.124 90.4513 287.896 90.122C287.668 89.78 287.377 89.5267 287.022 89.362C286.68 89.1847 286.319 89.096 285.939 89.096C285.559 89.096 285.179 89.1847 284.799 89.362C284.419 89.5267 284.103 89.78 283.849 90.122C283.596 90.4513 283.469 90.8757 283.469 91.395ZM295.606 97.228C294.973 97.228 294.39 97.133 293.858 96.943C293.326 96.753 292.87 96.487 292.49 96.145C292.11 95.7903 291.819 95.3787 291.616 94.91L293.459 94.093C293.649 94.4477 293.928 94.7453 294.295 94.986C294.675 95.2267 295.093 95.347 295.549 95.347C296.043 95.347 296.436 95.2647 296.727 95.1C297.031 94.9227 297.183 94.682 297.183 94.378C297.183 94.0867 297.069 93.865 296.841 93.713C296.613 93.5483 296.29 93.4153 295.872 93.314L294.979 93.067C294.08 92.839 293.377 92.478 292.87 91.984C292.364 91.4773 292.11 90.901 292.11 90.255C292.11 89.305 292.414 88.5703 293.022 88.051C293.643 87.5317 294.53 87.272 295.682 87.272C296.265 87.272 296.797 87.3607 297.278 87.538C297.772 87.7027 298.197 87.9433 298.551 88.26C298.906 88.564 299.153 88.925 299.292 89.343L297.525 90.141C297.399 89.8243 297.158 89.5837 296.803 89.419C296.449 89.2417 296.056 89.153 295.625 89.153C295.195 89.153 294.859 89.248 294.618 89.438C294.378 89.6153 294.257 89.8687 294.257 90.198C294.257 90.388 294.365 90.5653 294.58 90.73C294.796 90.882 295.106 91.0087 295.511 91.11L296.632 91.376C297.253 91.528 297.76 91.7687 298.152 92.098C298.545 92.4147 298.836 92.7757 299.026 93.181C299.216 93.5737 299.311 93.9727 299.311 94.378C299.311 94.948 299.147 95.4483 298.817 95.879C298.501 96.3097 298.064 96.6453 297.506 96.886C296.949 97.114 296.316 97.228 295.606 97.228ZM305.236 97.228C304.311 97.228 303.488 97.019 302.766 96.601C302.056 96.1703 301.493 95.5813 301.075 94.834C300.669 94.0867 300.467 93.2253 300.467 92.25C300.467 91.2747 300.676 90.4133 301.094 89.666C301.512 88.9187 302.082 88.336 302.804 87.918C303.538 87.4873 304.374 87.272 305.312 87.272C306.16 87.272 306.927 87.4937 307.611 87.937C308.295 88.3677 308.833 88.9947 309.226 89.818C309.631 90.6413 309.834 91.623 309.834 92.763H302.367L302.652 92.497C302.652 93.0797 302.778 93.5863 303.032 94.017C303.285 94.435 303.621 94.758 304.039 94.986C304.457 95.214 304.919 95.328 305.426 95.328C306.008 95.328 306.49 95.2013 306.87 94.948C307.25 94.682 307.547 94.34 307.763 93.922L309.644 94.72C309.378 95.2267 309.036 95.67 308.618 96.05C308.212 96.43 307.725 96.7213 307.155 96.924C306.597 97.1267 305.958 97.228 305.236 97.228ZM302.785 91.395L302.481 91.129H307.839L307.554 91.395C307.554 90.8757 307.44 90.4513 307.212 90.122C306.984 89.78 306.692 89.5267 306.338 89.362C305.996 89.1847 305.635 89.096 305.255 89.096C304.875 89.096 304.495 89.1847 304.115 89.362C303.735 89.5267 303.418 89.78 303.165 90.122C302.911 90.4513 302.785 90.8757 302.785 91.395ZM315.245 97.228C314.244 97.228 313.478 96.981 312.946 96.487C312.426 95.9803 312.167 95.2583 312.167 94.321V84.536H314.276V93.922C314.276 94.3653 314.377 94.701 314.58 94.929C314.795 95.157 315.105 95.271 315.511 95.271C315.637 95.271 315.777 95.2457 315.929 95.195C316.081 95.1443 316.252 95.0493 316.442 94.91L317.221 96.525C316.891 96.753 316.562 96.924 316.233 97.038C315.903 97.1647 315.574 97.228 315.245 97.228ZM310.59 89.324V87.5H316.841V89.324H310.59Z" fill="#006590"/>
<path d="M337.141 92.269V90.426H342.841V92.269H337.141ZM344.952 92.269V90.426H350.652V92.269H344.952ZM356.336 97.228C355.702 97.228 355.12 97.133 354.588 96.943C354.056 96.753 353.6 96.487 353.22 96.145C352.84 95.7903 352.548 95.3787 352.346 94.91L354.189 94.093C354.379 94.4477 354.657 94.7453 355.025 94.986C355.405 95.2267 355.823 95.347 356.279 95.347C356.773 95.347 357.165 95.2647 357.457 95.1C357.761 94.9227 357.913 94.682 357.913 94.378C357.913 94.0867 357.799 93.865 357.571 93.713C357.343 93.5483 357.02 93.4153 356.602 93.314L355.709 93.067C354.809 92.839 354.106 92.478 353.6 91.984C353.093 91.4773 352.84 90.901 352.84 90.255C352.84 89.305 353.144 88.5703 353.752 88.051C354.372 87.5317 355.259 87.272 356.412 87.272C356.994 87.272 357.526 87.3607 358.008 87.538C358.502 87.7027 358.926 87.9433 359.281 88.26C359.635 88.564 359.882 88.925 360.022 89.343L358.255 90.141C358.128 89.8243 357.887 89.5837 357.533 89.419C357.178 89.2417 356.785 89.153 356.355 89.153C355.924 89.153 355.588 89.248 355.348 89.438C355.107 89.6153 354.987 89.8687 354.987 90.198C354.987 90.388 355.094 90.5653 355.31 90.73C355.525 90.882 355.835 91.0087 356.241 91.11L357.362 91.376C357.982 91.528 358.489 91.7687 358.882 92.098C359.274 92.4147 359.566 92.7757 359.756 93.181C359.946 93.5737 360.041 93.9727 360.041 94.378C360.041 94.948 359.876 95.4483 359.547 95.879C359.23 96.3097 358.793 96.6453 358.236 96.886C357.678 97.114 357.045 97.228 356.336 97.228ZM366.098 97.228C365.148 97.228 364.3 97.019 363.552 96.601C362.818 96.1703 362.241 95.5813 361.823 94.834C361.405 94.0867 361.196 93.2253 361.196 92.25C361.196 91.2747 361.399 90.4133 361.804 89.666C362.222 88.9187 362.799 88.336 363.533 87.918C364.268 87.4873 365.11 87.272 366.06 87.272C367.01 87.272 367.853 87.4873 368.587 87.918C369.322 88.336 369.892 88.9187 370.297 89.666C370.715 90.4133 370.924 91.2747 370.924 92.25C370.924 93.2253 370.722 94.0867 370.316 94.834C369.911 95.5813 369.341 96.1703 368.606 96.601C367.872 97.019 367.036 97.228 366.098 97.228ZM366.098 95.271C366.618 95.271 367.08 95.1443 367.485 94.891C367.891 94.625 368.207 94.2703 368.435 93.827C368.663 93.371 368.777 92.8453 368.777 92.25C368.777 91.6547 368.657 91.1353 368.416 90.692C368.188 90.236 367.872 89.8813 367.466 89.628C367.061 89.362 366.592 89.229 366.06 89.229C365.528 89.229 365.06 89.3557 364.654 89.609C364.249 89.8623 363.932 90.217 363.704 90.673C363.476 91.129 363.362 91.6547 363.362 92.25C363.362 92.8453 363.476 93.371 363.704 93.827C363.945 94.2703 364.268 94.625 364.673 94.891C365.091 95.1443 365.566 95.271 366.098 95.271ZM373.718 97V86.493C373.718 85.4923 373.965 84.726 374.459 84.194C374.966 83.6493 375.726 83.377 376.739 83.377C377.069 83.377 377.417 83.434 377.784 83.548C378.164 83.6493 378.525 83.7887 378.867 83.966L378.088 85.543C377.848 85.429 377.632 85.3467 377.442 85.296C377.265 85.2453 377.107 85.22 376.967 85.22C376.587 85.22 376.302 85.3467 376.112 85.6C375.935 85.8407 375.846 86.2397 375.846 86.797V97H373.718ZM372.084 89.248V87.5H378.335V89.248H372.084ZM383.841 97.228C382.841 97.228 382.074 96.981 381.542 96.487C381.023 95.9803 380.763 95.2583 380.763 94.321V84.536H382.872V93.922C382.872 94.3653 382.974 94.701 383.176 94.929C383.392 95.157 383.702 95.271 384.107 95.271C384.234 95.271 384.373 95.2457 384.525 95.195C384.677 95.1443 384.848 95.0493 385.038 94.91L385.817 96.525C385.488 96.753 385.159 96.924 384.829 97.038C384.5 97.1647 384.171 97.228 383.841 97.228ZM379.186 89.324V87.5H385.437V89.324H379.186Z" fill="#531350"/>
</g>
</g>
<path d="M88 276C88 267.163 95.1634 260 104 260H216C224.837 260 232 267.163 232 276V300C232 308.837 224.837 316 216 316H104C95.1634 316 88 308.837 88 300V276Z" fill="#F2F8FF"/>
<path d="M122.612 285V275.9H124.224L127.084 280.112L129.918 275.9H131.543V285H130.035V278.279L127.071 282.66L124.12 278.305V285H122.612ZM136.412 285.156C135.762 285.156 135.182 285.013 134.67 284.727C134.168 284.432 133.773 284.029 133.487 283.518C133.201 283.007 133.058 282.417 133.058 281.75C133.058 281.083 133.197 280.493 133.474 279.982C133.76 279.471 134.155 279.072 134.657 278.786C135.16 278.491 135.736 278.344 136.386 278.344C137.036 278.344 137.613 278.491 138.115 278.786C138.618 279.072 139.008 279.471 139.285 279.982C139.571 280.493 139.714 281.083 139.714 281.75C139.714 282.417 139.576 283.007 139.298 283.518C139.021 284.029 138.631 284.432 138.128 284.727C137.626 285.013 137.054 285.156 136.412 285.156ZM136.412 283.817C136.768 283.817 137.084 283.73 137.361 283.557C137.639 283.375 137.855 283.132 138.011 282.829C138.167 282.517 138.245 282.157 138.245 281.75C138.245 281.343 138.163 280.987 137.998 280.684C137.842 280.372 137.626 280.129 137.348 279.956C137.071 279.774 136.75 279.683 136.386 279.683C136.022 279.683 135.702 279.77 135.424 279.943C135.147 280.116 134.93 280.359 134.774 280.671C134.618 280.983 134.54 281.343 134.54 281.75C134.54 282.157 134.618 282.517 134.774 282.829C134.939 283.132 135.16 283.375 135.437 283.557C135.723 283.73 136.048 283.817 136.412 283.817ZM142.828 285L145.363 278.5H146.871L144.193 285H142.828ZM142.724 285L140.033 278.5H141.528L144.076 285H142.724ZM150.502 285.156C149.869 285.156 149.306 285.013 148.812 284.727C148.327 284.432 147.941 284.029 147.655 283.518C147.378 283.007 147.239 282.417 147.239 281.75C147.239 281.083 147.382 280.493 147.668 279.982C147.954 279.471 148.344 279.072 148.838 278.786C149.341 278.491 149.913 278.344 150.554 278.344C151.135 278.344 151.659 278.496 152.127 278.799C152.595 279.094 152.963 279.523 153.232 280.086C153.509 280.649 153.648 281.321 153.648 282.101H148.539L148.734 281.919C148.734 282.318 148.821 282.664 148.994 282.959C149.167 283.245 149.397 283.466 149.683 283.622C149.969 283.778 150.285 283.856 150.632 283.856C151.031 283.856 151.36 283.769 151.62 283.596C151.88 283.414 152.084 283.18 152.231 282.894L153.518 283.44C153.336 283.787 153.102 284.09 152.816 284.35C152.539 284.61 152.205 284.809 151.815 284.948C151.434 285.087 150.996 285.156 150.502 285.156ZM148.825 281.165L148.617 280.983H152.283L152.088 281.165C152.088 280.81 152.01 280.519 151.854 280.294C151.698 280.06 151.499 279.887 151.256 279.774C151.022 279.653 150.775 279.592 150.515 279.592C150.255 279.592 149.995 279.653 149.735 279.774C149.475 279.887 149.258 280.06 149.085 280.294C148.912 280.519 148.825 280.81 148.825 281.165ZM157.129 285.156C156.696 285.156 156.297 285.091 155.933 284.961C155.569 284.831 155.257 284.649 154.997 284.415C154.737 284.172 154.538 283.891 154.399 283.57L155.66 283.011C155.79 283.254 155.981 283.457 156.232 283.622C156.492 283.787 156.778 283.869 157.09 283.869C157.428 283.869 157.697 283.813 157.896 283.7C158.104 283.579 158.208 283.414 158.208 283.206C158.208 283.007 158.13 282.855 157.974 282.751C157.818 282.638 157.597 282.547 157.311 282.478L156.7 282.309C156.085 282.153 155.604 281.906 155.257 281.568C154.91 281.221 154.737 280.827 154.737 280.385C154.737 279.735 154.945 279.232 155.361 278.877C155.786 278.522 156.392 278.344 157.181 278.344C157.58 278.344 157.944 278.405 158.273 278.526C158.611 278.639 158.901 278.803 159.144 279.02C159.387 279.228 159.556 279.475 159.651 279.761L158.442 280.307C158.355 280.09 158.191 279.926 157.948 279.813C157.705 279.692 157.437 279.631 157.142 279.631C156.847 279.631 156.618 279.696 156.453 279.826C156.288 279.947 156.206 280.121 156.206 280.346C156.206 280.476 156.28 280.597 156.427 280.71C156.574 280.814 156.787 280.901 157.064 280.97L157.831 281.152C158.256 281.256 158.602 281.421 158.871 281.646C159.14 281.863 159.339 282.11 159.469 282.387C159.599 282.656 159.664 282.929 159.664 283.206C159.664 283.596 159.551 283.938 159.326 284.233C159.109 284.528 158.81 284.757 158.429 284.922C158.048 285.078 157.614 285.156 157.129 285.156ZM166.541 285.156C165.857 285.156 165.332 284.987 164.968 284.649C164.613 284.302 164.435 283.808 164.435 283.167V276.472H165.878V282.894C165.878 283.197 165.948 283.427 166.086 283.583C166.234 283.739 166.446 283.817 166.723 283.817C166.81 283.817 166.905 283.8 167.009 283.765C167.113 283.73 167.23 283.665 167.36 283.57L167.893 284.675C167.668 284.831 167.443 284.948 167.217 285.026C166.992 285.113 166.767 285.156 166.541 285.156ZM163.356 279.748V278.5H167.633V279.748H163.356ZM171.959 285.156C171.309 285.156 170.728 285.013 170.217 284.727C169.714 284.432 169.32 284.029 169.034 283.518C168.748 283.007 168.605 282.417 168.605 281.75C168.605 281.083 168.744 280.493 169.021 279.982C169.307 279.471 169.701 279.072 170.204 278.786C170.707 278.491 171.283 278.344 171.933 278.344C172.583 278.344 173.159 278.491 173.662 278.786C174.165 279.072 174.555 279.471 174.832 279.982C175.118 280.493 175.261 281.083 175.261 281.75C175.261 282.417 175.122 283.007 174.845 283.518C174.568 284.029 174.178 284.432 173.675 284.727C173.172 285.013 172.6 285.156 171.959 285.156ZM171.959 283.817C172.314 283.817 172.631 283.73 172.908 283.557C173.185 283.375 173.402 283.132 173.558 282.829C173.714 282.517 173.792 282.157 173.792 281.75C173.792 281.343 173.71 280.987 173.545 280.684C173.389 280.372 173.172 280.129 172.895 279.956C172.618 279.774 172.297 279.683 171.933 279.683C171.569 279.683 171.248 279.77 170.971 279.943C170.694 280.116 170.477 280.359 170.321 280.671C170.165 280.983 170.087 281.343 170.087 281.75C170.087 282.157 170.165 282.517 170.321 282.829C170.486 283.132 170.707 283.375 170.984 283.557C171.27 283.73 171.595 283.817 171.959 283.817ZM182.246 285.156C181.561 285.156 181.037 284.987 180.673 284.649C180.317 284.302 180.14 283.808 180.14 283.167V276.472H181.583V282.894C181.583 283.197 181.652 283.427 181.791 283.583C181.938 283.739 182.15 283.817 182.428 283.817C182.514 283.817 182.61 283.8 182.714 283.765C182.818 283.73 182.935 283.665 183.065 283.57L183.598 284.675C183.372 284.831 183.147 284.948 182.922 285.026C182.696 285.113 182.471 285.156 182.246 285.156ZM179.061 279.748V278.5H183.338V279.748H179.061ZM184.775 285V275.9H186.231V285H184.775ZM189.182 285V281.672H190.638V285H189.182ZM189.182 281.672C189.182 281.152 189.121 280.753 189 280.476C188.879 280.19 188.71 279.991 188.493 279.878C188.285 279.765 188.042 279.709 187.765 279.709C187.271 279.7 186.89 279.861 186.621 280.19C186.361 280.519 186.231 280.992 186.231 281.607H185.672C185.672 280.922 185.772 280.337 185.971 279.852C186.179 279.358 186.469 278.985 186.842 278.734C187.215 278.474 187.657 278.344 188.168 278.344C188.679 278.344 189.121 278.448 189.494 278.656C189.867 278.864 190.148 279.189 190.339 279.631C190.538 280.064 190.638 280.632 190.638 281.334V281.672H189.182ZM195.012 285.156C194.379 285.156 193.816 285.013 193.322 284.727C192.836 284.432 192.451 284.029 192.165 283.518C191.887 283.007 191.749 282.417 191.749 281.75C191.749 281.083 191.892 280.493 192.178 279.982C192.464 279.471 192.854 279.072 193.348 278.786C193.85 278.491 194.422 278.344 195.064 278.344C195.644 278.344 196.169 278.496 196.637 278.799C197.105 279.094 197.473 279.523 197.742 280.086C198.019 280.649 198.158 281.321 198.158 282.101H193.049L193.244 281.919C193.244 282.318 193.33 282.664 193.504 282.959C193.677 283.245 193.907 283.466 194.193 283.622C194.479 283.778 194.795 283.856 195.142 283.856C195.54 283.856 195.87 283.769 196.13 283.596C196.39 283.414 196.593 283.18 196.741 282.894L198.028 283.44C197.846 283.787 197.612 284.09 197.326 284.35C197.048 284.61 196.715 284.809 196.325 284.948C195.943 285.087 195.506 285.156 195.012 285.156ZM193.335 281.165L193.127 280.983H196.793L196.598 281.165C196.598 280.81 196.52 280.519 196.364 280.294C196.208 280.06 196.008 279.887 195.766 279.774C195.532 279.653 195.285 279.592 195.025 279.592C194.765 279.592 194.505 279.653 194.245 279.774C193.985 279.887 193.768 280.06 193.595 280.294C193.421 280.519 193.335 280.81 193.335 281.165ZM111.693 301.156C111.259 301.156 110.861 301.091 110.497 300.961C110.133 300.831 109.821 300.649 109.561 300.415C109.301 300.172 109.101 299.891 108.963 299.57L110.224 299.011C110.354 299.254 110.544 299.457 110.796 299.622C111.056 299.787 111.342 299.869 111.654 299.869C111.992 299.869 112.26 299.813 112.46 299.7C112.668 299.579 112.772 299.414 112.772 299.206C112.772 299.007 112.694 298.855 112.538 298.751C112.382 298.638 112.161 298.547 111.875 298.478L111.264 298.309C110.648 298.153 110.167 297.906 109.821 297.568C109.474 297.221 109.301 296.827 109.301 296.385C109.301 295.735 109.509 295.232 109.925 294.877C110.349 294.522 110.956 294.344 111.745 294.344C112.143 294.344 112.507 294.405 112.837 294.526C113.175 294.639 113.465 294.803 113.708 295.02C113.95 295.228 114.119 295.475 114.215 295.761L113.006 296.307C112.919 296.09 112.754 295.926 112.512 295.813C112.269 295.692 112 295.631 111.706 295.631C111.411 295.631 111.181 295.696 111.017 295.826C110.852 295.947 110.77 296.121 110.77 296.346C110.77 296.476 110.843 296.597 110.991 296.71C111.138 296.814 111.35 296.901 111.628 296.97L112.395 297.152C112.819 297.256 113.166 297.421 113.435 297.646C113.703 297.863 113.903 298.11 114.033 298.387C114.163 298.656 114.228 298.929 114.228 299.206C114.228 299.596 114.115 299.938 113.89 300.233C113.673 300.528 113.374 300.757 112.993 300.922C112.611 301.078 112.178 301.156 111.693 301.156ZM115.447 303.6V294.5H116.812L116.903 295.696V303.6H115.447ZM118.957 301.156C118.411 301.156 117.939 301.017 117.54 300.74C117.15 300.454 116.851 300.055 116.643 299.544C116.435 299.033 116.331 298.435 116.331 297.75C116.331 297.057 116.435 296.459 116.643 295.956C116.851 295.445 117.15 295.05 117.54 294.773C117.939 294.487 118.411 294.344 118.957 294.344C119.547 294.344 120.058 294.487 120.491 294.773C120.933 295.05 121.276 295.445 121.518 295.956C121.77 296.459 121.895 297.057 121.895 297.75C121.895 298.435 121.77 299.033 121.518 299.544C121.276 300.055 120.933 300.454 120.491 300.74C120.058 301.017 119.547 301.156 118.957 301.156ZM118.593 299.83C118.94 299.83 119.248 299.743 119.516 299.57C119.785 299.388 119.997 299.141 120.153 298.829C120.318 298.517 120.4 298.157 120.4 297.75C120.4 297.343 120.322 296.983 120.166 296.671C120.019 296.359 119.811 296.116 119.542 295.943C119.274 295.77 118.962 295.683 118.606 295.683C118.277 295.683 117.982 295.77 117.722 295.943C117.462 296.116 117.259 296.359 117.111 296.671C116.973 296.983 116.903 297.343 116.903 297.75C116.903 298.157 116.973 298.517 117.111 298.829C117.259 299.141 117.458 299.388 117.709 299.57C117.969 299.743 118.264 299.83 118.593 299.83ZM126.038 301.156C125.405 301.156 124.842 301.013 124.348 300.727C123.863 300.432 123.477 300.029 123.191 299.518C122.914 299.007 122.775 298.417 122.775 297.75C122.775 297.083 122.918 296.493 123.204 295.982C123.49 295.471 123.88 295.072 124.374 294.786C124.877 294.491 125.449 294.344 126.09 294.344C126.671 294.344 127.195 294.496 127.663 294.799C128.131 295.094 128.499 295.523 128.768 296.086C129.045 296.649 129.184 297.321 129.184 298.101H124.075L124.27 297.919C124.27 298.318 124.357 298.664 124.53 298.959C124.703 299.245 124.933 299.466 125.219 299.622C125.505 299.778 125.821 299.856 126.168 299.856C126.567 299.856 126.896 299.769 127.156 299.596C127.416 299.414 127.62 299.18 127.767 298.894L129.054 299.44C128.872 299.787 128.638 300.09 128.352 300.35C128.075 300.61 127.741 300.809 127.351 300.948C126.97 301.087 126.532 301.156 126.038 301.156ZM124.361 297.165L124.153 296.983H127.819L127.624 297.165C127.624 296.81 127.546 296.519 127.39 296.294C127.234 296.06 127.035 295.887 126.792 295.774C126.558 295.653 126.311 295.592 126.051 295.592C125.791 295.592 125.531 295.653 125.271 295.774C125.011 295.887 124.794 296.06 124.621 296.294C124.448 296.519 124.361 296.81 124.361 297.165ZM133.341 301.156C132.674 301.156 132.084 301.013 131.573 300.727C131.062 300.432 130.659 300.029 130.364 299.518C130.078 299.007 129.935 298.417 129.935 297.75C129.935 297.083 130.078 296.493 130.364 295.982C130.659 295.471 131.057 295.072 131.56 294.786C132.071 294.491 132.656 294.344 133.315 294.344C133.956 294.344 134.537 294.5 135.057 294.812C135.577 295.115 135.963 295.553 136.214 296.125L134.862 296.645C134.723 296.359 134.511 296.129 134.225 295.956C133.939 295.783 133.614 295.696 133.25 295.696C132.895 295.696 132.578 295.787 132.301 295.969C132.024 296.142 131.807 296.385 131.651 296.697C131.495 297 131.417 297.351 131.417 297.75C131.417 298.149 131.495 298.504 131.651 298.816C131.816 299.119 132.037 299.362 132.314 299.544C132.6 299.717 132.921 299.804 133.276 299.804C133.64 299.804 133.965 299.713 134.251 299.531C134.537 299.34 134.749 299.085 134.888 298.764L136.24 299.284C135.989 299.873 135.603 300.333 135.083 300.662C134.572 300.991 133.991 301.156 133.341 301.156ZM137.461 301V294.5H138.904V301H137.461ZM138.189 293.265C137.955 293.265 137.752 293.183 137.578 293.018C137.414 292.845 137.331 292.641 137.331 292.407C137.331 292.173 137.414 291.974 137.578 291.809C137.752 291.644 137.955 291.562 138.189 291.562C138.423 291.562 138.623 291.644 138.787 291.809C138.961 291.974 139.047 292.173 139.047 292.407C139.047 292.641 138.961 292.845 138.787 293.018C138.623 293.183 138.423 293.265 138.189 293.265ZM141.27 301V293.811C141.27 293.126 141.439 292.602 141.777 292.238C142.124 291.865 142.644 291.679 143.337 291.679C143.563 291.679 143.801 291.718 144.052 291.796C144.312 291.865 144.559 291.961 144.793 292.082L144.26 293.161C144.096 293.083 143.948 293.027 143.818 292.992C143.697 292.957 143.589 292.94 143.493 292.94C143.233 292.94 143.038 293.027 142.908 293.2C142.787 293.365 142.726 293.638 142.726 294.019V301H141.27ZM140.152 295.696V294.5H144.429V295.696H140.152ZM145.701 301V294.5H147.144V301H145.701ZM146.429 293.265C146.195 293.265 145.991 293.183 145.818 293.018C145.653 292.845 145.571 292.641 145.571 292.407C145.571 292.173 145.653 291.974 145.818 291.809C145.991 291.644 146.195 291.562 146.429 291.562C146.663 291.562 146.862 291.644 147.027 291.809C147.2 291.974 147.287 292.173 147.287 292.407C147.287 292.641 147.2 292.845 147.027 293.018C146.862 293.183 146.663 293.265 146.429 293.265ZM151.759 301.156C151.126 301.156 150.563 301.013 150.069 300.727C149.583 300.432 149.198 300.029 148.912 299.518C148.634 299.007 148.496 298.417 148.496 297.75C148.496 297.083 148.639 296.493 148.925 295.982C149.211 295.471 149.601 295.072 150.095 294.786C150.597 294.491 151.169 294.344 151.811 294.344C152.391 294.344 152.916 294.496 153.384 294.799C153.852 295.094 154.22 295.523 154.489 296.086C154.766 296.649 154.905 297.321 154.905 298.101H149.796L149.991 297.919C149.991 298.318 150.077 298.664 150.251 298.959C150.424 299.245 150.654 299.466 150.94 299.622C151.226 299.778 151.542 299.856 151.889 299.856C152.287 299.856 152.617 299.769 152.877 299.596C153.137 299.414 153.34 299.18 153.488 298.894L154.775 299.44C154.593 299.787 154.359 300.09 154.073 300.35C153.795 300.61 153.462 300.809 153.072 300.948C152.69 301.087 152.253 301.156 151.759 301.156ZM150.082 297.165L149.874 296.983H153.54L153.345 297.165C153.345 296.81 153.267 296.519 153.111 296.294C152.955 296.06 152.755 295.887 152.513 295.774C152.279 295.653 152.032 295.592 151.772 295.592C151.512 295.592 151.252 295.653 150.992 295.774C150.732 295.887 150.515 296.06 150.342 296.294C150.168 296.519 150.082 296.81 150.082 297.165ZM160.713 301L160.648 299.791V291.9H162.091V301H160.713ZM158.594 301.156C158.005 301.156 157.489 301.017 157.047 300.74C156.614 300.454 156.271 300.055 156.02 299.544C155.777 299.033 155.656 298.435 155.656 297.75C155.656 297.057 155.777 296.459 156.02 295.956C156.271 295.445 156.614 295.05 157.047 294.773C157.489 294.487 158.005 294.344 158.594 294.344C159.14 294.344 159.608 294.487 159.998 294.773C160.397 295.05 160.7 295.445 160.908 295.956C161.116 296.459 161.22 297.057 161.22 297.75C161.22 298.435 161.116 299.033 160.908 299.544C160.7 300.055 160.397 300.454 159.998 300.74C159.608 301.017 159.14 301.156 158.594 301.156ZM158.958 299.83C159.287 299.83 159.578 299.743 159.829 299.57C160.089 299.388 160.288 299.141 160.427 298.829C160.574 298.517 160.648 298.157 160.648 297.75C160.648 297.343 160.574 296.983 160.427 296.671C160.288 296.359 160.089 296.116 159.829 295.943C159.578 295.77 159.283 295.683 158.945 295.683C158.598 295.683 158.291 295.77 158.022 295.943C157.753 296.116 157.541 296.359 157.385 296.671C157.238 296.983 157.16 297.343 157.151 297.75C157.16 298.157 157.238 298.517 157.385 298.829C157.541 299.141 157.753 299.388 158.022 299.57C158.299 299.743 158.611 299.83 158.958 299.83ZM169.878 301.156C169.211 301.156 168.622 301.013 168.11 300.727C167.599 300.432 167.196 300.029 166.901 299.518C166.615 299.007 166.472 298.417 166.472 297.75C166.472 297.083 166.615 296.493 166.901 295.982C167.196 295.471 167.595 295.072 168.097 294.786C168.609 294.491 169.194 294.344 169.852 294.344C170.494 294.344 171.074 294.5 171.594 294.812C172.114 295.115 172.5 295.553 172.751 296.125L171.399 296.645C171.261 296.359 171.048 296.129 170.762 295.956C170.476 295.783 170.151 295.696 169.787 295.696C169.432 295.696 169.116 295.787 168.838 295.969C168.561 296.142 168.344 296.385 168.188 296.697C168.032 297 167.954 297.351 167.954 297.75C167.954 298.149 168.032 298.504 168.188 298.816C168.353 299.119 168.574 299.362 168.851 299.544C169.137 299.717 169.458 299.804 169.813 299.804C170.177 299.804 170.502 299.713 170.788 299.531C171.074 299.34 171.287 299.085 171.425 298.764L172.777 299.284C172.526 299.873 172.14 300.333 171.62 300.662C171.109 300.991 170.528 301.156 169.878 301.156ZM176.898 301.156C176.248 301.156 175.667 301.013 175.156 300.727C174.653 300.432 174.259 300.029 173.973 299.518C173.687 299.007 173.544 298.417 173.544 297.75C173.544 297.083 173.682 296.493 173.96 295.982C174.246 295.471 174.64 295.072 175.143 294.786C175.645 294.491 176.222 294.344 176.872 294.344C177.522 294.344 178.098 294.491 178.601 294.786C179.103 295.072 179.493 295.471 179.771 295.982C180.057 296.493 180.2 297.083 180.2 297.75C180.2 298.417 180.061 299.007 179.784 299.518C179.506 300.029 179.116 300.432 178.614 300.727C178.111 301.013 177.539 301.156 176.898 301.156ZM176.898 299.817C177.253 299.817 177.569 299.73 177.847 299.557C178.124 299.375 178.341 299.132 178.497 298.829C178.653 298.517 178.731 298.157 178.731 297.75C178.731 297.343 178.648 296.987 178.484 296.684C178.328 296.372 178.111 296.129 177.834 295.956C177.556 295.774 177.236 295.683 176.872 295.683C176.508 295.683 176.187 295.77 175.91 295.943C175.632 296.116 175.416 296.359 175.26 296.671C175.104 296.983 175.026 297.343 175.026 297.75C175.026 298.157 175.104 298.517 175.26 298.829C175.424 299.132 175.645 299.375 175.923 299.557C176.209 299.73 176.534 299.817 176.898 299.817ZM181.461 301V294.5H182.826L182.891 295.371C183.091 295.033 183.346 294.777 183.658 294.604C183.97 294.431 184.326 294.344 184.724 294.344C185.244 294.344 185.686 294.461 186.05 294.695C186.414 294.929 186.679 295.284 186.843 295.761C187.034 295.302 187.303 294.951 187.649 294.708C187.996 294.465 188.403 294.344 188.871 294.344C189.625 294.344 190.206 294.587 190.613 295.072C191.021 295.549 191.22 296.285 191.211 297.282V301H189.768V297.672C189.768 297.152 189.712 296.753 189.599 296.476C189.487 296.19 189.335 295.991 189.144 295.878C188.954 295.765 188.733 295.709 188.481 295.709C188.031 295.7 187.68 295.861 187.428 296.19C187.186 296.519 187.064 296.992 187.064 297.607V301H185.608V297.672C185.608 297.152 185.552 296.753 185.439 296.476C185.335 296.19 185.188 295.991 184.997 295.878C184.807 295.765 184.586 295.709 184.334 295.709C183.884 295.7 183.533 295.861 183.281 296.19C183.039 296.519 182.917 296.992 182.917 297.607V301H181.461ZM192.697 301V294.5H194.062L194.127 295.371C194.326 295.033 194.582 294.777 194.894 294.604C195.206 294.431 195.561 294.344 195.96 294.344C196.48 294.344 196.922 294.461 197.286 294.695C197.65 294.929 197.914 295.284 198.079 295.761C198.269 295.302 198.538 294.951 198.885 294.708C199.231 294.465 199.639 294.344 200.107 294.344C200.861 294.344 201.441 294.587 201.849 295.072C202.256 295.549 202.455 296.285 202.447 297.282V301H201.004V297.672C201.004 297.152 200.947 296.753 200.835 296.476C200.722 296.19 200.57 295.991 200.38 295.878C200.189 295.765 199.968 295.709 199.717 295.709C199.266 295.7 198.915 295.861 198.664 296.19C198.421 296.519 198.3 296.992 198.3 297.607V301H196.844V297.672C196.844 297.152 196.787 296.753 196.675 296.476C196.571 296.19 196.423 295.991 196.233 295.878C196.042 295.765 195.821 295.709 195.57 295.709C195.119 295.7 194.768 295.861 194.517 296.19C194.274 296.519 194.153 296.992 194.153 297.607V301H192.697ZM204.023 301V294.5H205.466V301H204.023ZM204.751 293.265C204.517 293.265 204.313 293.183 204.14 293.018C203.975 292.845 203.893 292.641 203.893 292.407C203.893 292.173 203.975 291.974 204.14 291.809C204.313 291.644 204.517 291.562 204.751 291.562C204.985 291.562 205.184 291.644 205.349 291.809C205.522 291.974 205.609 292.173 205.609 292.407C205.609 292.641 205.522 292.845 205.349 293.018C205.184 293.183 204.985 293.265 204.751 293.265ZM209.769 301.156C209.084 301.156 208.56 300.987 208.196 300.649C207.841 300.302 207.663 299.808 207.663 299.167V292.472H209.106V298.894C209.106 299.197 209.175 299.427 209.314 299.583C209.461 299.739 209.674 299.817 209.951 299.817C210.038 299.817 210.133 299.8 210.237 299.765C210.341 299.73 210.458 299.665 210.588 299.57L211.121 300.675C210.896 300.831 210.67 300.948 210.445 301.026C210.22 301.113 209.994 301.156 209.769 301.156ZM206.584 295.748V294.5H210.861V295.748H206.584Z" fill="#21333F"/>
<path d="M248 276C248 267.163 255.163 260 264 260H376C384.837 260 392 267.163 392 276V300C392 308.837 384.837 316 376 316H264C255.163 316 248 308.837 248 300V276Z" fill="#F2F8FF"/>
<path d="M277.258 285.156C276.383 285.156 275.603 284.957 274.918 284.558C274.242 284.151 273.709 283.596 273.319 282.894C272.938 282.183 272.747 281.369 272.747 280.45C272.747 279.531 272.938 278.721 273.319 278.019C273.709 277.308 274.242 276.754 274.918 276.355C275.594 275.948 276.37 275.744 277.245 275.744C277.835 275.744 278.389 275.852 278.909 276.069C279.429 276.277 279.889 276.567 280.287 276.94C280.695 277.313 281.007 277.746 281.223 278.24L279.845 278.799C279.689 278.47 279.477 278.179 279.208 277.928C278.948 277.668 278.649 277.469 278.311 277.33C277.973 277.191 277.618 277.122 277.245 277.122C276.673 277.122 276.162 277.265 275.711 277.551C275.269 277.837 274.918 278.231 274.658 278.734C274.407 279.228 274.281 279.8 274.281 280.45C274.281 281.1 274.407 281.676 274.658 282.179C274.918 282.682 275.274 283.076 275.724 283.362C276.184 283.648 276.704 283.791 277.284 283.791C277.666 283.791 278.021 283.717 278.35 283.57C278.688 283.414 278.987 283.202 279.247 282.933C279.516 282.664 279.728 282.352 279.884 281.997L281.262 282.556C281.046 283.067 280.738 283.522 280.339 283.921C279.941 284.311 279.477 284.614 278.948 284.831C278.42 285.048 277.856 285.156 277.258 285.156ZM282.454 285V275.9H283.91V285H282.454ZM286.861 285V281.672H288.317V285H286.861ZM286.861 281.672C286.861 281.152 286.8 280.753 286.679 280.476C286.557 280.19 286.388 279.991 286.172 279.878C285.964 279.765 285.721 279.709 285.444 279.709C284.95 279.7 284.568 279.861 284.3 280.19C284.04 280.519 283.91 280.992 283.91 281.607H283.351C283.351 280.922 283.45 280.337 283.65 279.852C283.858 279.358 284.148 278.985 284.521 278.734C284.893 278.474 285.335 278.344 285.847 278.344C286.358 278.344 286.8 278.448 287.173 278.656C287.545 278.864 287.827 279.189 288.018 279.631C288.217 280.064 288.317 280.632 288.317 281.334V281.672H286.861ZM293.756 285L293.691 283.778V281.659C293.691 281.217 293.644 280.849 293.548 280.554C293.462 280.251 293.314 280.021 293.106 279.865C292.907 279.7 292.638 279.618 292.3 279.618C291.988 279.618 291.715 279.683 291.481 279.813C291.247 279.943 291.048 280.147 290.883 280.424L289.609 279.956C289.748 279.67 289.93 279.406 290.155 279.163C290.389 278.912 290.68 278.712 291.026 278.565C291.382 278.418 291.806 278.344 292.3 278.344C292.933 278.344 293.462 278.47 293.886 278.721C294.311 278.964 294.623 279.315 294.822 279.774C295.03 280.233 295.134 280.788 295.134 281.438L295.095 285H293.756ZM291.884 285.156C291.104 285.156 290.498 284.983 290.064 284.636C289.64 284.289 289.427 283.8 289.427 283.167C289.427 282.491 289.653 281.975 290.103 281.62C290.563 281.265 291.2 281.087 292.014 281.087H293.756V282.205H292.482C291.902 282.205 291.494 282.287 291.26 282.452C291.026 282.608 290.909 282.833 290.909 283.128C290.909 283.379 291.009 283.579 291.208 283.726C291.416 283.865 291.702 283.934 292.066 283.934C292.396 283.934 292.682 283.86 292.924 283.713C293.167 283.566 293.353 283.371 293.483 283.128C293.622 282.885 293.691 282.612 293.691 282.309H294.12C294.12 283.193 293.943 283.891 293.587 284.402C293.232 284.905 292.664 285.156 291.884 285.156ZM296.609 285V278.5H297.974L298.065 279.696V285H296.609ZM301.016 285V281.672H302.472V285H301.016ZM301.016 281.672C301.016 281.152 300.955 280.753 300.834 280.476C300.721 280.19 300.556 279.991 300.34 279.878C300.132 279.765 299.885 279.709 299.599 279.709C299.113 279.7 298.736 279.861 298.468 280.19C298.199 280.519 298.065 280.992 298.065 281.607H297.519C297.519 280.922 297.618 280.337 297.818 279.852C298.017 279.358 298.303 278.985 298.676 278.734C299.048 278.474 299.49 278.344 300.002 278.344C300.522 278.344 300.964 278.448 301.328 278.656C301.7 278.864 301.982 279.189 302.173 279.631C302.372 280.064 302.472 280.632 302.472 281.334V281.672H301.016ZM306.742 287.769C306.282 287.769 305.866 287.73 305.494 287.652C305.13 287.574 304.822 287.483 304.571 287.379C304.319 287.275 304.124 287.175 303.986 287.08L304.545 285.91C304.666 285.971 304.826 286.044 305.026 286.131C305.234 286.226 305.476 286.309 305.754 286.378C306.031 286.447 306.343 286.482 306.69 286.482C307.062 286.482 307.396 286.404 307.691 286.248C307.985 286.101 308.215 285.871 308.38 285.559C308.544 285.247 308.627 284.848 308.627 284.363V278.5H310.083V284.324C310.083 285.061 309.944 285.685 309.667 286.196C309.389 286.716 308.999 287.106 308.497 287.366C307.994 287.635 307.409 287.769 306.742 287.769ZM306.521 284.87C305.931 284.87 305.416 284.736 304.974 284.467C304.54 284.198 304.198 283.826 303.947 283.349C303.704 282.864 303.583 282.305 303.583 281.672C303.583 280.996 303.704 280.411 303.947 279.917C304.198 279.423 304.54 279.037 304.974 278.76C305.416 278.483 305.931 278.344 306.521 278.344C307.049 278.344 307.509 278.483 307.899 278.76C308.297 279.037 308.605 279.427 308.822 279.93C309.038 280.424 309.147 281.009 309.147 281.685C309.147 282.326 309.038 282.885 308.822 283.362C308.605 283.839 308.297 284.211 307.899 284.48C307.509 284.74 307.049 284.87 306.521 284.87ZM306.924 283.635C307.253 283.635 307.539 283.548 307.782 283.375C308.033 283.202 308.228 282.968 308.367 282.673C308.505 282.37 308.575 282.023 308.575 281.633C308.575 281.234 308.505 280.888 308.367 280.593C308.228 280.29 308.033 280.056 307.782 279.891C307.53 279.718 307.24 279.631 306.911 279.631C306.564 279.631 306.256 279.718 305.988 279.891C305.728 280.056 305.52 280.29 305.364 280.593C305.216 280.888 305.143 281.234 305.143 281.633C305.143 282.023 305.216 282.37 305.364 282.673C305.52 282.968 305.732 283.202 306.001 283.375C306.269 283.548 306.577 283.635 306.924 283.635ZM314.59 285.156C313.957 285.156 313.394 285.013 312.9 284.727C312.414 284.432 312.029 284.029 311.743 283.518C311.465 283.007 311.327 282.417 311.327 281.75C311.327 281.083 311.47 280.493 311.756 279.982C312.042 279.471 312.432 279.072 312.926 278.786C313.428 278.491 314 278.344 314.642 278.344C315.222 278.344 315.747 278.496 316.215 278.799C316.683 279.094 317.051 279.523 317.32 280.086C317.597 280.649 317.736 281.321 317.736 282.101H312.627L312.822 281.919C312.822 282.318 312.908 282.664 313.082 282.959C313.255 283.245 313.485 283.466 313.771 283.622C314.057 283.778 314.373 283.856 314.72 283.856C315.118 283.856 315.448 283.769 315.708 283.596C315.968 283.414 316.171 283.18 316.319 282.894L317.606 283.44C317.424 283.787 317.19 284.09 316.904 284.35C316.626 284.61 316.293 284.809 315.903 284.948C315.521 285.087 315.084 285.156 314.59 285.156ZM312.913 281.165L312.705 280.983H316.371L316.176 281.165C316.176 280.81 316.098 280.519 315.942 280.294C315.786 280.06 315.586 279.887 315.344 279.774C315.11 279.653 314.863 279.592 314.603 279.592C314.343 279.592 314.083 279.653 313.823 279.774C313.563 279.887 313.346 280.06 313.173 280.294C312.999 280.519 312.913 280.81 312.913 281.165ZM321.217 285.156C320.784 285.156 320.385 285.091 320.021 284.961C319.657 284.831 319.345 284.649 319.085 284.415C318.825 284.172 318.626 283.891 318.487 283.57L319.748 283.011C319.878 283.254 320.069 283.457 320.32 283.622C320.58 283.787 320.866 283.869 321.178 283.869C321.516 283.869 321.785 283.813 321.984 283.7C322.192 283.579 322.296 283.414 322.296 283.206C322.296 283.007 322.218 282.855 322.062 282.751C321.906 282.638 321.685 282.547 321.399 282.478L320.788 282.309C320.173 282.153 319.692 281.906 319.345 281.568C318.998 281.221 318.825 280.827 318.825 280.385C318.825 279.735 319.033 279.232 319.449 278.877C319.874 278.522 320.48 278.344 321.269 278.344C321.668 278.344 322.032 278.405 322.361 278.526C322.699 278.639 322.989 278.803 323.232 279.02C323.475 279.228 323.644 279.475 323.739 279.761L322.53 280.307C322.443 280.09 322.279 279.926 322.036 279.813C321.793 279.692 321.525 279.631 321.23 279.631C320.935 279.631 320.706 279.696 320.541 279.826C320.376 279.947 320.294 280.121 320.294 280.346C320.294 280.476 320.368 280.597 320.515 280.71C320.662 280.814 320.875 280.901 321.152 280.97L321.919 281.152C322.344 281.256 322.69 281.421 322.959 281.646C323.228 281.863 323.427 282.11 323.557 282.387C323.687 282.656 323.752 282.929 323.752 283.206C323.752 283.596 323.639 283.938 323.414 284.233C323.197 284.528 322.898 284.757 322.517 284.922C322.136 285.078 321.702 285.156 321.217 285.156ZM329.004 281.542C329.004 280.84 329.139 280.264 329.407 279.813C329.676 279.362 330.023 279.029 330.447 278.812C330.881 278.587 331.331 278.474 331.799 278.474V279.865C331.401 279.865 331.024 279.921 330.668 280.034C330.322 280.138 330.04 280.311 329.823 280.554C329.607 280.797 329.498 281.117 329.498 281.516L329.004 281.542ZM328.042 285V278.5H329.498V285H328.042ZM335.664 285.156C335.031 285.156 334.468 285.013 333.974 284.727C333.489 284.432 333.103 284.029 332.817 283.518C332.54 283.007 332.401 282.417 332.401 281.75C332.401 281.083 332.544 280.493 332.83 279.982C333.116 279.471 333.506 279.072 334 278.786C334.503 278.491 335.075 278.344 335.716 278.344C336.297 278.344 336.821 278.496 337.289 278.799C337.757 279.094 338.125 279.523 338.394 280.086C338.671 280.649 338.81 281.321 338.81 282.101H333.701L333.896 281.919C333.896 282.318 333.983 282.664 334.156 282.959C334.329 283.245 334.559 283.466 334.845 283.622C335.131 283.778 335.447 283.856 335.794 283.856C336.193 283.856 336.522 283.769 336.782 283.596C337.042 283.414 337.246 283.18 337.393 282.894L338.68 283.44C338.498 283.787 338.264 284.09 337.978 284.35C337.701 284.61 337.367 284.809 336.977 284.948C336.596 285.087 336.158 285.156 335.664 285.156ZM333.987 281.165L333.779 280.983H337.445L337.25 281.165C337.25 280.81 337.172 280.519 337.016 280.294C336.86 280.06 336.661 279.887 336.418 279.774C336.184 279.653 335.937 279.592 335.677 279.592C335.417 279.592 335.157 279.653 334.897 279.774C334.637 279.887 334.42 280.06 334.247 280.294C334.074 280.519 333.987 280.81 333.987 281.165ZM339.925 285V278.5H341.29L341.355 279.371C341.554 279.033 341.81 278.777 342.122 278.604C342.434 278.431 342.789 278.344 343.188 278.344C343.708 278.344 344.15 278.461 344.514 278.695C344.878 278.929 345.142 279.284 345.307 279.761C345.498 279.302 345.766 278.951 346.113 278.708C346.46 278.465 346.867 278.344 347.335 278.344C348.089 278.344 348.67 278.587 349.077 279.072C349.484 279.549 349.684 280.285 349.675 281.282V285H348.232V281.672C348.232 281.152 348.176 280.753 348.063 280.476C347.95 280.19 347.799 279.991 347.608 279.878C347.417 279.765 347.196 279.709 346.945 279.709C346.494 279.7 346.143 279.861 345.892 280.19C345.649 280.519 345.528 280.992 345.528 281.607V285H344.072V281.672C344.072 281.152 344.016 280.753 343.903 280.476C343.799 280.19 343.652 279.991 343.461 279.878C343.27 279.765 343.049 279.709 342.798 279.709C342.347 279.7 341.996 279.861 341.745 280.19C341.502 280.519 341.381 280.992 341.381 281.607V285H339.925ZM355.125 285L355.06 283.778V281.659C355.06 281.217 355.013 280.849 354.917 280.554C354.831 280.251 354.683 280.021 354.475 279.865C354.276 279.7 354.007 279.618 353.669 279.618C353.357 279.618 353.084 279.683 352.85 279.813C352.616 279.943 352.417 280.147 352.252 280.424L350.978 279.956C351.117 279.67 351.299 279.406 351.524 279.163C351.758 278.912 352.049 278.712 352.395 278.565C352.751 278.418 353.175 278.344 353.669 278.344C354.302 278.344 354.831 278.47 355.255 278.721C355.68 278.964 355.992 279.315 356.191 279.774C356.399 280.233 356.503 280.788 356.503 281.438L356.464 285H355.125ZM353.253 285.156C352.473 285.156 351.867 284.983 351.433 284.636C351.009 284.289 350.796 283.8 350.796 283.167C350.796 282.491 351.022 281.975 351.472 281.62C351.932 281.265 352.569 281.087 353.383 281.087H355.125V282.205H353.851C353.271 282.205 352.863 282.287 352.629 282.452C352.395 282.608 352.278 282.833 352.278 283.128C352.278 283.379 352.378 283.579 352.577 283.726C352.785 283.865 353.071 283.934 353.435 283.934C353.765 283.934 354.051 283.86 354.293 283.713C354.536 283.566 354.722 283.371 354.852 283.128C354.991 282.885 355.06 282.612 355.06 282.309H355.489C355.489 283.193 355.312 283.891 354.956 284.402C354.601 284.905 354.033 285.156 353.253 285.156ZM358.069 285V278.5H359.512V285H358.069ZM358.797 277.265C358.563 277.265 358.359 277.183 358.186 277.018C358.021 276.845 357.939 276.641 357.939 276.407C357.939 276.173 358.021 275.974 358.186 275.809C358.359 275.644 358.563 275.562 358.797 275.562C359.031 275.562 359.23 275.644 359.395 275.809C359.568 275.974 359.655 276.173 359.655 276.407C359.655 276.641 359.568 276.845 359.395 277.018C359.23 277.183 359.031 277.265 358.797 277.265ZM361.228 285V278.5H362.593L362.684 279.696V285H361.228ZM365.635 285V281.672H367.091V285H365.635ZM365.635 281.672C365.635 281.152 365.574 280.753 365.453 280.476C365.34 280.19 365.176 279.991 364.959 279.878C364.751 279.765 364.504 279.709 364.218 279.709C363.733 279.7 363.356 279.861 363.087 280.19C362.818 280.519 362.684 280.992 362.684 281.607H362.138C362.138 280.922 362.238 280.337 362.437 279.852C362.636 279.358 362.922 278.985 363.295 278.734C363.668 278.474 364.11 278.344 364.621 278.344C365.141 278.344 365.583 278.448 365.947 278.656C366.32 278.864 366.601 279.189 366.792 279.631C366.991 280.064 367.091 280.632 367.091 281.334V281.672H365.635ZM302.936 301.156C302.502 301.156 302.104 301.091 301.74 300.961C301.376 300.831 301.064 300.649 300.804 300.415C300.544 300.172 300.344 299.891 300.206 299.57L301.467 299.011C301.597 299.254 301.787 299.457 302.039 299.622C302.299 299.787 302.585 299.869 302.897 299.869C303.235 299.869 303.503 299.813 303.703 299.7C303.911 299.579 304.015 299.414 304.015 299.206C304.015 299.007 303.937 298.855 303.781 298.751C303.625 298.638 303.404 298.547 303.118 298.478L302.507 298.309C301.891 298.153 301.41 297.906 301.064 297.568C300.717 297.221 300.544 296.827 300.544 296.385C300.544 295.735 300.752 295.232 301.168 294.877C301.592 294.522 302.199 294.344 302.988 294.344C303.386 294.344 303.75 294.405 304.08 294.526C304.418 294.639 304.708 294.803 304.951 295.02C305.193 295.228 305.362 295.475 305.458 295.761L304.249 296.307C304.162 296.09 303.997 295.926 303.755 295.813C303.512 295.692 303.243 295.631 302.949 295.631C302.654 295.631 302.424 295.696 302.26 295.826C302.095 295.947 302.013 296.121 302.013 296.346C302.013 296.476 302.086 296.597 302.234 296.71C302.381 296.814 302.593 296.901 302.871 296.97L303.638 297.152C304.062 297.256 304.409 297.421 304.678 297.646C304.946 297.863 305.146 298.11 305.276 298.387C305.406 298.656 305.471 298.929 305.471 299.206C305.471 299.596 305.358 299.938 305.133 300.233C304.916 300.528 304.617 300.757 304.236 300.922C303.854 301.078 303.421 301.156 302.936 301.156ZM309.212 301.156C308.528 301.156 308.003 300.987 307.639 300.649C307.284 300.302 307.106 299.808 307.106 299.167V292.472H308.549V298.894C308.549 299.197 308.619 299.427 308.757 299.583C308.905 299.739 309.117 299.817 309.394 299.817C309.481 299.817 309.576 299.8 309.68 299.765C309.784 299.73 309.901 299.665 310.031 299.57L310.564 300.675C310.339 300.831 310.114 300.948 309.888 301.026C309.663 301.113 309.438 301.156 309.212 301.156ZM306.027 295.748V294.5H310.304V295.748H306.027ZM315.605 301L315.54 299.778V297.659C315.54 297.217 315.492 296.849 315.397 296.554C315.31 296.251 315.163 296.021 314.955 295.865C314.756 295.7 314.487 295.618 314.149 295.618C313.837 295.618 313.564 295.683 313.33 295.813C313.096 295.943 312.897 296.147 312.732 296.424L311.458 295.956C311.597 295.67 311.779 295.406 312.004 295.163C312.238 294.912 312.528 294.712 312.875 294.565C313.23 294.418 313.655 294.344 314.149 294.344C314.782 294.344 315.31 294.47 315.735 294.721C316.16 294.964 316.472 295.315 316.671 295.774C316.879 296.233 316.983 296.788 316.983 297.438L316.944 301H315.605ZM313.733 301.156C312.953 301.156 312.346 300.983 311.913 300.636C311.488 300.289 311.276 299.8 311.276 299.167C311.276 298.491 311.501 297.975 311.952 297.62C312.411 297.265 313.048 297.087 313.863 297.087H315.605V298.205H314.331C313.75 298.205 313.343 298.287 313.109 298.452C312.875 298.608 312.758 298.833 312.758 299.128C312.758 299.379 312.858 299.579 313.057 299.726C313.265 299.865 313.551 299.934 313.915 299.934C314.244 299.934 314.53 299.86 314.773 299.713C315.016 299.566 315.202 299.371 315.332 299.128C315.471 298.885 315.54 298.612 315.54 298.309H315.969C315.969 299.193 315.791 299.891 315.436 300.402C315.081 300.905 314.513 301.156 313.733 301.156ZM321.252 303.769C320.793 303.769 320.377 303.73 320.004 303.652C319.64 303.574 319.333 303.483 319.081 303.379C318.83 303.275 318.635 303.175 318.496 303.08L319.055 301.91C319.177 301.971 319.337 302.044 319.536 302.131C319.744 302.226 319.987 302.309 320.264 302.378C320.542 302.447 320.854 302.482 321.2 302.482C321.573 302.482 321.907 302.404 322.201 302.248C322.496 302.101 322.726 301.871 322.89 301.559C323.055 301.247 323.137 300.848 323.137 300.363V294.5H324.593V300.324C324.593 301.061 324.455 301.685 324.177 302.196C323.9 302.716 323.51 303.106 323.007 303.366C322.505 303.635 321.92 303.769 321.252 303.769ZM321.031 300.87C320.442 300.87 319.926 300.736 319.484 300.467C319.051 300.198 318.709 299.826 318.457 299.349C318.215 298.864 318.093 298.305 318.093 297.672C318.093 296.996 318.215 296.411 318.457 295.917C318.709 295.423 319.051 295.037 319.484 294.76C319.926 294.483 320.442 294.344 321.031 294.344C321.56 294.344 322.019 294.483 322.409 294.76C322.808 295.037 323.116 295.427 323.332 295.93C323.549 296.424 323.657 297.009 323.657 297.685C323.657 298.326 323.549 298.885 323.332 299.362C323.116 299.839 322.808 300.211 322.409 300.48C322.019 300.74 321.56 300.87 321.031 300.87ZM321.434 299.635C321.764 299.635 322.05 299.548 322.292 299.375C322.544 299.202 322.739 298.968 322.877 298.673C323.016 298.37 323.085 298.023 323.085 297.633C323.085 297.234 323.016 296.888 322.877 296.593C322.739 296.29 322.544 296.056 322.292 295.891C322.041 295.718 321.751 295.631 321.421 295.631C321.075 295.631 320.767 295.718 320.498 295.891C320.238 296.056 320.03 296.29 319.874 296.593C319.727 296.888 319.653 297.234 319.653 297.633C319.653 298.023 319.727 298.37 319.874 298.673C320.03 298.968 320.243 299.202 320.511 299.375C320.78 299.548 321.088 299.635 321.434 299.635ZM329.101 301.156C328.468 301.156 327.905 301.013 327.411 300.727C326.925 300.432 326.54 300.029 326.254 299.518C325.976 299.007 325.838 298.417 325.838 297.75C325.838 297.083 325.981 296.493 326.267 295.982C326.553 295.471 326.943 295.072 327.437 294.786C327.939 294.491 328.511 294.344 329.153 294.344C329.733 294.344 330.258 294.496 330.726 294.799C331.194 295.094 331.562 295.523 331.831 296.086C332.108 296.649 332.247 297.321 332.247 298.101H327.138L327.333 297.919C327.333 298.318 327.419 298.664 327.593 298.959C327.766 299.245 327.996 299.466 328.282 299.622C328.568 299.778 328.884 299.856 329.231 299.856C329.629 299.856 329.959 299.769 330.219 299.596C330.479 299.414 330.682 299.18 330.83 298.894L332.117 299.44C331.935 299.787 331.701 300.09 331.415 300.35C331.137 300.61 330.804 300.809 330.414 300.948C330.032 301.087 329.595 301.156 329.101 301.156ZM327.424 297.165L327.216 296.983H330.882L330.687 297.165C330.687 296.81 330.609 296.519 330.453 296.294C330.297 296.06 330.097 295.887 329.855 295.774C329.621 295.653 329.374 295.592 329.114 295.592C328.854 295.592 328.594 295.653 328.334 295.774C328.074 295.887 327.857 296.06 327.684 296.294C327.51 296.519 327.424 296.81 327.424 297.165ZM338.055 301L337.99 299.791V291.9H339.433V301H338.055ZM335.936 301.156C335.346 301.156 334.831 301.017 334.389 300.74C333.955 300.454 333.613 300.055 333.362 299.544C333.119 299.033 332.998 298.435 332.998 297.75C332.998 297.057 333.119 296.459 333.362 295.956C333.613 295.445 333.955 295.05 334.389 294.773C334.831 294.487 335.346 294.344 335.936 294.344C336.482 294.344 336.95 294.487 337.34 294.773C337.738 295.05 338.042 295.445 338.25 295.956C338.458 296.459 338.562 297.057 338.562 297.75C338.562 298.435 338.458 299.033 338.25 299.544C338.042 300.055 337.738 300.454 337.34 300.74C336.95 301.017 336.482 301.156 335.936 301.156ZM336.3 299.83C336.629 299.83 336.919 299.743 337.171 299.57C337.431 299.388 337.63 299.141 337.769 298.829C337.916 298.517 337.99 298.157 337.99 297.75C337.99 297.343 337.916 296.983 337.769 296.671C337.63 296.359 337.431 296.116 337.171 295.943C336.919 295.77 336.625 295.683 336.287 295.683C335.94 295.683 335.632 295.77 335.364 295.943C335.095 296.116 334.883 296.359 334.727 296.671C334.579 296.983 334.501 297.343 334.493 297.75C334.501 298.157 334.579 298.517 334.727 298.829C334.883 299.141 335.095 299.388 335.364 299.57C335.641 299.743 335.953 299.83 336.3 299.83Z" fill="#21333F"/>
<path d="M408 276C408 267.163 415.163 260 424 260H536C544.837 260 552 267.163 552 276V300C552 308.837 544.837 316 536 316H424C415.163 316 408 308.837 408 300V276Z" fill="#F2F8FF"/>
<path d="M450.717 293.182C449.998 293.182 449.365 293.039 448.819 292.753C448.282 292.458 447.861 292.047 447.558 291.518C447.263 290.989 447.116 290.374 447.116 289.672V283.9H448.624V289.672C448.624 290.097 448.711 290.469 448.884 290.79C449.066 291.102 449.317 291.349 449.638 291.531C449.959 291.704 450.327 291.791 450.743 291.791C451.168 291.791 451.54 291.704 451.861 291.531C452.19 291.349 452.442 291.102 452.615 290.79C452.788 290.469 452.875 290.097 452.875 289.672V283.9H454.383V289.672C454.383 290.374 454.231 290.989 453.928 291.518C453.633 292.047 453.209 292.458 452.654 292.753C452.108 293.039 451.462 293.182 450.717 293.182ZM456.139 293V286.5H457.504L457.595 287.696V293H456.139ZM460.546 293V289.672H462.002V293H460.546ZM460.546 289.672C460.546 289.152 460.485 288.753 460.364 288.476C460.251 288.19 460.087 287.991 459.87 287.878C459.662 287.765 459.415 287.709 459.129 287.709C458.644 287.7 458.267 287.861 457.998 288.19C457.729 288.519 457.595 288.992 457.595 289.607H457.049C457.049 288.922 457.149 288.337 457.348 287.852C457.547 287.358 457.833 286.985 458.206 286.734C458.579 286.474 459.021 286.344 459.532 286.344C460.052 286.344 460.494 286.448 460.858 286.656C461.231 286.864 461.512 287.189 461.703 287.631C461.902 288.064 462.002 288.632 462.002 289.334V289.672H460.546ZM466.519 293.156C465.852 293.156 465.262 293.013 464.751 292.727C464.24 292.432 463.837 292.029 463.542 291.518C463.256 291.007 463.113 290.417 463.113 289.75C463.113 289.083 463.256 288.493 463.542 287.982C463.837 287.471 464.235 287.072 464.738 286.786C465.249 286.491 465.834 286.344 466.493 286.344C467.134 286.344 467.715 286.5 468.235 286.812C468.755 287.115 469.141 287.553 469.392 288.125L468.04 288.645C467.901 288.359 467.689 288.129 467.403 287.956C467.117 287.783 466.792 287.696 466.428 287.696C466.073 287.696 465.756 287.787 465.479 287.969C465.202 288.142 464.985 288.385 464.829 288.697C464.673 289 464.595 289.351 464.595 289.75C464.595 290.149 464.673 290.504 464.829 290.816C464.994 291.119 465.215 291.362 465.492 291.544C465.778 291.717 466.099 291.804 466.454 291.804C466.818 291.804 467.143 291.713 467.429 291.531C467.715 291.34 467.927 291.085 468.066 290.764L469.418 291.284C469.167 291.873 468.781 292.333 468.261 292.662C467.75 292.991 467.169 293.156 466.519 293.156ZM470.561 293V283.9H472.017V293H470.561ZM474.968 293V289.672H476.424V293H474.968ZM474.968 289.672C474.968 289.152 474.908 288.753 474.786 288.476C474.665 288.19 474.496 287.991 474.279 287.878C474.071 287.765 473.829 287.709 473.551 287.709C473.057 287.7 472.676 287.861 472.407 288.19C472.147 288.519 472.017 288.992 472.017 289.607H471.458C471.458 288.922 471.558 288.337 471.757 287.852C471.965 287.358 472.256 286.985 472.628 286.734C473.001 286.474 473.443 286.344 473.954 286.344C474.466 286.344 474.908 286.448 475.28 286.656C475.653 286.864 475.935 287.189 476.125 287.631C476.325 288.064 476.424 288.632 476.424 289.334V289.672H474.968ZM481.864 293L481.799 291.778V289.659C481.799 289.217 481.751 288.849 481.656 288.554C481.569 288.251 481.422 288.021 481.214 287.865C481.014 287.7 480.746 287.618 480.408 287.618C480.096 287.618 479.823 287.683 479.589 287.813C479.355 287.943 479.155 288.147 478.991 288.424L477.717 287.956C477.855 287.67 478.037 287.406 478.263 287.163C478.497 286.912 478.787 286.712 479.134 286.565C479.489 286.418 479.914 286.344 480.408 286.344C481.04 286.344 481.569 286.47 481.994 286.721C482.418 286.964 482.73 287.315 482.93 287.774C483.138 288.233 483.242 288.788 483.242 289.438L483.203 293H481.864ZM479.992 293.156C479.212 293.156 478.605 292.983 478.172 292.636C477.747 292.289 477.535 291.8 477.535 291.167C477.535 290.491 477.76 289.975 478.211 289.62C478.67 289.265 479.307 289.087 480.122 289.087H481.864V290.205H480.59C480.009 290.205 479.602 290.287 479.368 290.452C479.134 290.608 479.017 290.833 479.017 291.128C479.017 291.379 479.116 291.579 479.316 291.726C479.524 291.865 479.81 291.934 480.174 291.934C480.503 291.934 480.789 291.86 481.032 291.713C481.274 291.566 481.461 291.371 481.591 291.128C481.729 290.885 481.799 290.612 481.799 290.309H482.228C482.228 291.193 482.05 291.891 481.695 292.402C481.339 292.905 480.772 293.156 479.992 293.156ZM484.716 293V286.5H486.081L486.172 287.696V293H484.716ZM489.123 293V289.672H490.579V293H489.123ZM489.123 289.672C489.123 289.152 489.062 288.753 488.941 288.476C488.828 288.19 488.664 287.991 488.447 287.878C488.239 287.765 487.992 287.709 487.706 287.709C487.221 287.7 486.844 287.861 486.575 288.19C486.306 288.519 486.172 288.992 486.172 289.607H485.626C485.626 288.922 485.726 288.337 485.925 287.852C486.124 287.358 486.41 286.985 486.783 286.734C487.156 286.474 487.598 286.344 488.109 286.344C488.629 286.344 489.071 286.448 489.435 286.656C489.808 286.864 490.089 287.189 490.28 287.631C490.479 288.064 490.579 288.632 490.579 289.334V289.672H489.123ZM494.849 295.769C494.39 295.769 493.974 295.73 493.601 295.652C493.237 295.574 492.929 295.483 492.678 295.379C492.427 295.275 492.232 295.175 492.093 295.08L492.652 293.91C492.773 293.971 492.934 294.044 493.133 294.131C493.341 294.226 493.584 294.309 493.861 294.378C494.138 294.447 494.45 294.482 494.797 294.482C495.17 294.482 495.503 294.404 495.798 294.248C496.093 294.101 496.322 293.871 496.487 293.559C496.652 293.247 496.734 292.848 496.734 292.363V286.5H498.19V292.324C498.19 293.061 498.051 293.685 497.774 294.196C497.497 294.716 497.107 295.106 496.604 295.366C496.101 295.635 495.516 295.769 494.849 295.769ZM494.628 292.87C494.039 292.87 493.523 292.736 493.081 292.467C492.648 292.198 492.305 291.826 492.054 291.349C491.811 290.864 491.69 290.305 491.69 289.672C491.69 288.996 491.811 288.411 492.054 287.917C492.305 287.423 492.648 287.037 493.081 286.76C493.523 286.483 494.039 286.344 494.628 286.344C495.157 286.344 495.616 286.483 496.006 286.76C496.405 287.037 496.712 287.427 496.929 287.93C497.146 288.424 497.254 289.009 497.254 289.685C497.254 290.326 497.146 290.885 496.929 291.362C496.712 291.839 496.405 292.211 496.006 292.48C495.616 292.74 495.157 292.87 494.628 292.87ZM495.031 291.635C495.36 291.635 495.646 291.548 495.889 291.375C496.14 291.202 496.335 290.968 496.474 290.673C496.613 290.37 496.682 290.023 496.682 289.633C496.682 289.234 496.613 288.888 496.474 288.593C496.335 288.29 496.14 288.056 495.889 287.891C495.638 287.718 495.347 287.631 495.018 287.631C494.671 287.631 494.364 287.718 494.095 287.891C493.835 288.056 493.627 288.29 493.471 288.593C493.324 288.888 493.25 289.234 493.25 289.633C493.25 290.023 493.324 290.37 493.471 290.673C493.627 290.968 493.839 291.202 494.108 291.375C494.377 291.548 494.684 291.635 495.031 291.635ZM502.697 293.156C502.065 293.156 501.501 293.013 501.007 292.727C500.522 292.432 500.136 292.029 499.85 291.518C499.573 291.007 499.434 290.417 499.434 289.75C499.434 289.083 499.577 288.493 499.863 287.982C500.149 287.471 500.539 287.072 501.033 286.786C501.536 286.491 502.108 286.344 502.749 286.344C503.33 286.344 503.854 286.496 504.322 286.799C504.79 287.094 505.159 287.523 505.427 288.086C505.705 288.649 505.843 289.321 505.843 290.101H500.734L500.929 289.919C500.929 290.318 501.016 290.664 501.189 290.959C501.363 291.245 501.592 291.466 501.878 291.622C502.164 291.778 502.481 291.856 502.827 291.856C503.226 291.856 503.555 291.769 503.815 291.596C504.075 291.414 504.279 291.18 504.426 290.894L505.713 291.44C505.531 291.787 505.297 292.09 505.011 292.35C504.734 292.61 504.4 292.809 504.01 292.948C503.629 293.087 503.191 293.156 502.697 293.156ZM501.02 289.165L500.812 288.983H504.478L504.283 289.165C504.283 288.81 504.205 288.519 504.049 288.294C503.893 288.06 503.694 287.887 503.451 287.774C503.217 287.653 502.97 287.592 502.71 287.592C502.45 287.592 502.19 287.653 501.93 287.774C501.67 287.887 501.454 288.06 501.28 288.294C501.107 288.519 501.02 288.81 501.02 289.165ZM511.651 293L511.586 291.791V283.9H513.029V293H511.651ZM509.532 293.156C508.943 293.156 508.427 293.017 507.985 292.74C507.552 292.454 507.21 292.055 506.958 291.544C506.716 291.033 506.594 290.435 506.594 289.75C506.594 289.057 506.716 288.459 506.958 287.956C507.21 287.445 507.552 287.05 507.985 286.773C508.427 286.487 508.943 286.344 509.532 286.344C510.078 286.344 510.546 286.487 510.936 286.773C511.335 287.05 511.638 287.445 511.846 287.956C512.054 288.459 512.158 289.057 512.158 289.75C512.158 290.435 512.054 291.033 511.846 291.544C511.638 292.055 511.335 292.454 510.936 292.74C510.546 293.017 510.078 293.156 509.532 293.156ZM509.896 291.83C510.226 291.83 510.516 291.743 510.767 291.57C511.027 291.388 511.227 291.141 511.365 290.829C511.513 290.517 511.586 290.157 511.586 289.75C511.586 289.343 511.513 288.983 511.365 288.671C511.227 288.359 511.027 288.116 510.767 287.943C510.516 287.77 510.221 287.683 509.883 287.683C509.537 287.683 509.229 287.77 508.96 287.943C508.692 288.116 508.479 288.359 508.323 288.671C508.176 288.983 508.098 289.343 508.089 289.75C508.098 290.157 508.176 290.517 508.323 290.829C508.479 291.141 508.692 291.388 508.96 291.57C509.238 291.743 509.55 291.83 509.896 291.83Z" fill="#21333F"/>
<path d="M104 172.5H216C224.56 172.5 231.5 179.44 231.5 188V232C231.5 240.56 224.56 247.5 216 247.5H104C95.4396 247.5 88.5 240.56 88.5 232V188C88.5 179.44 95.4396 172.5 104 172.5Z" fill="white"/>
<path d="M104 172.5H216C224.56 172.5 231.5 179.44 231.5 188V232C231.5 240.56 224.56 247.5 216 247.5H104C95.4396 247.5 88.5 240.56 88.5 232V188C88.5 179.44 95.4396 172.5 104 172.5Z" stroke="#B6C9D8"/>
<path fill-rule="evenodd" clip-rule="evenodd" d="M162 194C162 195.105 161.105 196 160 196C158.895 196 158 195.105 158 194C158 192.895 158.895 192 160 192C161.105 192 162 192.895 162 194ZM163.5 194C163.5 195.933 161.933 197.5 160 197.5C158.067 197.5 156.5 195.933 156.5 194C156.5 192.067 158.067 190.5 160 190.5C161.933 190.5 163.5 192.067 163.5 194ZM154.5 203.75C154.5 201.955 155.955 200.5 157.75 200.5H162.25C164.045 200.5 165.5 201.955 165.5 203.75V204.25C165.5 204.664 165.836 205 166.25 205C166.664 205 167 204.664 167 204.25V203.75C167 201.127 164.873 199 162.25 199H157.75C155.127 199 153 201.127 153 203.75V204.25C153 204.664 153.336 205 153.75 205C154.164 205 154.5 204.664 154.5 204.25V203.75Z" fill="#006590"/>
<path d="M148.573 227V217.2H150.197V227H148.573ZM142.021 227V217.2H143.645V227H142.021ZM143.295 222.716V221.232H149.231V222.716H143.295ZM152.521 227V217.2H158.555V218.684H154.145V221.288H158.037V222.744H154.145V225.516H158.597V227H152.521ZM167.569 227L163.747 217.2H165.371L169.291 227H167.569ZM159.743 227L163.649 217.2H165.287L161.465 227H159.743ZM161.577 224.592V223.15H167.443V224.592H161.577ZM170.568 227V217.2H173.648C174.61 217.2 175.459 217.41 176.196 217.83C176.943 218.241 177.526 218.815 177.946 219.552C178.376 220.289 178.59 221.139 178.59 222.1C178.59 223.052 178.376 223.897 177.946 224.634C177.526 225.371 176.943 225.95 176.196 226.37C175.459 226.79 174.61 227 173.648 227H170.568ZM172.192 225.488H173.648C174.106 225.488 174.535 225.404 174.936 225.236C175.338 225.059 175.688 224.816 175.986 224.508C176.285 224.2 176.518 223.841 176.686 223.43C176.854 223.019 176.938 222.576 176.938 222.1C176.938 221.624 176.854 221.181 176.686 220.77C176.518 220.359 176.285 220 175.986 219.692C175.688 219.384 175.338 219.146 174.936 218.978C174.535 218.801 174.106 218.712 173.648 218.712H172.192V225.488Z" fill="#21333F"/>
<path d="M264 172.5H376C384.56 172.5 391.5 179.44 391.5 188V232C391.5 240.56 384.56 247.5 376 247.5H264C255.44 247.5 248.5 240.56 248.5 232V188C248.5 179.44 255.44 172.5 264 172.5Z" fill="white"/>
<path d="M264 172.5H376C384.56 172.5 391.5 179.44 391.5 188V232C391.5 240.56 384.56 247.5 376 247.5H264C255.44 247.5 248.5 240.56 248.5 232V188C248.5 179.44 255.44 172.5 264 172.5Z" stroke="#B6C9D8"/>
<path fill-rule="evenodd" clip-rule="evenodd" d="M314 202V193C314 191.343 315.343 190 317 190H323C324.657 190 326 191.343 326 193V194.75V196V201.602C326 202.602 325.572 203.554 324.825 204.218L322.361 206.408C320.865 207.738 318.5 206.676 318.5 204.674V195.174C318.5 194.317 318.866 193.501 319.507 192.931L320.342 192.189C320.479 192.067 320.656 192 320.84 192C321.529 192 321.854 192.852 321.338 193.311L320.503 194.052C320.183 194.337 320 194.745 320 195.174V204.674C320 205.382 320.836 205.757 321.365 205.287L323.829 203.097C324.256 202.717 324.5 202.173 324.5 201.602V196V194.75V193C324.5 192.172 323.828 191.5 323 191.5H317C316.172 191.5 315.5 192.172 315.5 193V202C315.5 202.828 316.172 203.5 317 203.5H317.25C317.664 203.5 318 203.836 318 204.25C318 204.664 317.664 205 317.25 205H317C315.343 205 314 203.657 314 202ZM322 200C322.552 200 323 199.552 323 199C323 198.448 322.552 198 322 198C321.448 198 321 198.448 321 199C321 199.552 321.448 200 322 200Z" fill="#006590"/>
<path d="M299.697 227.168C299.184 227.168 298.713 227.107 298.283 226.986C297.863 226.865 297.49 226.697 297.163 226.482C296.846 226.267 296.58 226.029 296.365 225.768C296.16 225.497 296.015 225.217 295.931 224.928L297.527 224.438C297.649 224.783 297.887 225.087 298.241 225.348C298.596 225.609 299.035 225.745 299.557 225.754C300.164 225.754 300.645 225.628 300.999 225.376C301.354 225.124 301.531 224.793 301.531 224.382C301.531 224.009 301.382 223.705 301.083 223.472C300.785 223.229 300.383 223.043 299.879 222.912L298.675 222.604C298.218 222.483 297.803 222.305 297.429 222.072C297.065 221.839 296.776 221.545 296.561 221.19C296.356 220.835 296.253 220.415 296.253 219.93C296.253 219.015 296.552 218.306 297.149 217.802C297.747 217.289 298.601 217.032 299.711 217.032C300.337 217.032 300.883 217.13 301.349 217.326C301.825 217.513 302.217 217.774 302.525 218.11C302.833 218.437 303.062 218.81 303.211 219.23L301.643 219.734C301.503 219.361 301.261 219.053 300.915 218.81C300.57 218.567 300.141 218.446 299.627 218.446C299.095 218.446 298.675 218.572 298.367 218.824C298.069 219.076 297.919 219.426 297.919 219.874C297.919 220.238 298.036 220.523 298.269 220.728C298.512 220.924 298.839 221.073 299.249 221.176L300.453 221.47C301.331 221.685 302.012 222.053 302.497 222.576C302.983 223.099 303.225 223.677 303.225 224.312C303.225 224.872 303.09 225.367 302.819 225.796C302.549 226.225 302.147 226.561 301.615 226.804C301.093 227.047 300.453 227.168 299.697 227.168ZM307.514 227.168C306.777 227.168 306.212 226.986 305.82 226.622C305.438 226.249 305.246 225.717 305.246 225.026V217.816H306.8V224.732C306.8 225.059 306.875 225.306 307.024 225.474C307.183 225.642 307.412 225.726 307.71 225.726C307.804 225.726 307.906 225.707 308.018 225.67C308.13 225.633 308.256 225.563 308.396 225.46L308.97 226.65C308.728 226.818 308.485 226.944 308.242 227.028C308 227.121 307.757 227.168 307.514 227.168ZM304.084 221.344V220H308.69V221.344H304.084ZM314.399 227L314.329 225.684V223.402C314.329 222.926 314.277 222.529 314.175 222.212C314.081 221.885 313.923 221.638 313.699 221.47C313.484 221.293 313.195 221.204 312.831 221.204C312.495 221.204 312.201 221.274 311.949 221.414C311.697 221.554 311.482 221.773 311.305 222.072L309.933 221.568C310.082 221.26 310.278 220.975 310.521 220.714C310.773 220.443 311.085 220.229 311.459 220.07C311.841 219.911 312.299 219.832 312.831 219.832C313.512 219.832 314.081 219.967 314.539 220.238C314.996 220.499 315.332 220.877 315.547 221.372C315.771 221.867 315.883 222.464 315.883 223.164L315.841 227H314.399ZM312.383 227.168C311.543 227.168 310.889 226.981 310.423 226.608C309.965 226.235 309.737 225.707 309.737 225.026C309.737 224.298 309.979 223.743 310.465 223.36C310.959 222.977 311.645 222.786 312.523 222.786H314.399V223.99H313.027C312.401 223.99 311.963 224.079 311.711 224.256C311.459 224.424 311.333 224.667 311.333 224.984C311.333 225.255 311.44 225.469 311.655 225.628C311.879 225.777 312.187 225.852 312.579 225.852C312.933 225.852 313.241 225.773 313.503 225.614C313.764 225.455 313.965 225.245 314.105 224.984C314.254 224.723 314.329 224.429 314.329 224.102H314.791C314.791 225.054 314.599 225.805 314.217 226.356C313.834 226.897 313.223 227.168 312.383 227.168ZM320.481 229.982C319.986 229.982 319.538 229.94 319.137 229.856C318.745 229.772 318.413 229.674 318.143 229.562C317.872 229.45 317.662 229.343 317.513 229.24L318.115 227.98C318.245 228.045 318.418 228.125 318.633 228.218C318.857 228.321 319.118 228.409 319.417 228.484C319.715 228.559 320.051 228.596 320.425 228.596C320.826 228.596 321.185 228.512 321.503 228.344C321.82 228.185 322.067 227.938 322.245 227.602C322.422 227.266 322.511 226.837 322.511 226.314V220H324.079V226.272C324.079 227.065 323.929 227.737 323.631 228.288C323.332 228.848 322.912 229.268 322.371 229.548C321.829 229.837 321.199 229.982 320.481 229.982ZM320.243 226.86C319.608 226.86 319.053 226.715 318.577 226.426C318.11 226.137 317.741 225.735 317.471 225.222C317.209 224.699 317.079 224.097 317.079 223.416C317.079 222.688 317.209 222.058 317.471 221.526C317.741 220.994 318.11 220.579 318.577 220.28C319.053 219.981 319.608 219.832 320.243 219.832C320.812 219.832 321.307 219.981 321.727 220.28C322.156 220.579 322.487 220.999 322.721 221.54C322.954 222.072 323.071 222.702 323.071 223.43C323.071 224.121 322.954 224.723 322.721 225.236C322.487 225.749 322.156 226.151 321.727 226.44C321.307 226.72 320.812 226.86 320.243 226.86ZM320.677 225.53C321.031 225.53 321.339 225.437 321.601 225.25C321.871 225.063 322.081 224.811 322.231 224.494C322.38 224.167 322.455 223.794 322.455 223.374C322.455 222.945 322.38 222.571 322.231 222.254C322.081 221.927 321.871 221.675 321.601 221.498C321.33 221.311 321.017 221.218 320.663 221.218C320.289 221.218 319.958 221.311 319.669 221.498C319.389 221.675 319.165 221.927 318.997 222.254C318.838 222.571 318.759 222.945 318.759 223.374C318.759 223.794 318.838 224.167 318.997 224.494C319.165 224.811 319.393 225.063 319.683 225.25C319.972 225.437 320.303 225.53 320.677 225.53ZM325.908 227V220H327.462V227H325.908ZM326.692 218.67C326.44 218.67 326.221 218.581 326.034 218.404C325.857 218.217 325.768 217.998 325.768 217.746C325.768 217.494 325.857 217.279 326.034 217.102C326.221 216.925 326.44 216.836 326.692 216.836C326.944 216.836 327.159 216.925 327.336 217.102C327.523 217.279 327.616 217.494 327.616 217.746C327.616 217.998 327.523 218.217 327.336 218.404C327.159 218.581 326.944 218.67 326.692 218.67ZM329.31 227V220H330.78L330.878 221.288V227H329.31ZM334.056 227V223.416H335.624V227H334.056ZM334.056 223.416C334.056 222.856 333.991 222.427 333.86 222.128C333.739 221.82 333.562 221.605 333.328 221.484C333.104 221.363 332.838 221.302 332.53 221.302C332.008 221.293 331.602 221.465 331.312 221.82C331.023 222.175 330.878 222.683 330.878 223.346H330.29C330.29 222.609 330.398 221.979 330.612 221.456C330.827 220.924 331.135 220.523 331.536 220.252C331.938 219.972 332.414 219.832 332.964 219.832C333.524 219.832 334 219.944 334.392 220.168C334.794 220.392 335.097 220.742 335.302 221.218C335.517 221.685 335.624 222.296 335.624 223.052V223.416H334.056ZM340.223 229.982C339.728 229.982 339.28 229.94 338.879 229.856C338.487 229.772 338.155 229.674 337.885 229.562C337.614 229.45 337.404 229.343 337.255 229.24L337.857 227.98C337.987 228.045 338.16 228.125 338.375 228.218C338.599 228.321 338.86 228.409 339.159 228.484C339.457 228.559 339.793 228.596 340.167 228.596C340.568 228.596 340.927 228.512 341.245 228.344C341.562 228.185 341.809 227.938 341.987 227.602C342.164 227.266 342.253 226.837 342.253 226.314V220H343.821V226.272C343.821 227.065 343.671 227.737 343.373 228.288C343.074 228.848 342.654 229.268 342.113 229.548C341.571 229.837 340.941 229.982 340.223 229.982ZM339.985 226.86C339.35 226.86 338.795 226.715 338.319 226.426C337.852 226.137 337.483 225.735 337.213 225.222C336.951 224.699 336.821 224.097 336.821 223.416C336.821 222.688 336.951 222.058 337.213 221.526C337.483 220.994 337.852 220.579 338.319 220.28C338.795 219.981 339.35 219.832 339.985 219.832C340.554 219.832 341.049 219.981 341.469 220.28C341.898 220.579 342.229 220.999 342.463 221.54C342.696 222.072 342.813 222.702 342.813 223.43C342.813 224.121 342.696 224.723 342.463 225.236C342.229 225.749 341.898 226.151 341.469 226.44C341.049 226.72 340.554 226.86 339.985 226.86ZM340.419 225.53C340.773 225.53 341.081 225.437 341.343 225.25C341.613 225.063 341.823 224.811 341.973 224.494C342.122 224.167 342.197 223.794 342.197 223.374C342.197 222.945 342.122 222.571 341.973 222.254C341.823 221.927 341.613 221.675 341.343 221.498C341.072 221.311 340.759 221.218 340.405 221.218C340.031 221.218 339.7 221.311 339.411 221.498C339.131 221.675 338.907 221.927 338.739 222.254C338.58 222.571 338.501 222.945 338.501 223.374C338.501 223.794 338.58 224.167 338.739 224.494C338.907 224.811 339.135 225.063 339.425 225.25C339.714 225.437 340.045 225.53 340.419 225.53Z" fill="#21333F"/>
<path d="M424 172.5H536C544.56 172.5 551.5 179.44 551.5 188V232C551.5 240.56 544.56 247.5 536 247.5H424C415.44 247.5 408.5 240.56 408.5 232V188C408.5 179.44 415.44 172.5 424 172.5Z" fill="white"/>
<path d="M424 172.5H536C544.56 172.5 551.5 179.44 551.5 188V232C551.5 240.56 544.56 247.5 536 247.5H424C415.44 247.5 408.5 240.56 408.5 232V188C408.5 179.44 415.44 172.5 424 172.5Z" stroke="#B6C9D8"/>
<mask id="mask0_12852_32633" style="mask-type:alpha" maskUnits="userSpaceOnUse" x="470" y="188" width="20" height="20">
<rect x="470" y="188" width="20" height="20" fill="#D9D9D9"/>
</mask>
<g mask="url(#mask0_12852_32633)">
<path d="M472.5 205C472.097 205 471.747 204.851 471.448 204.552C471.149 204.253 471 203.903 471 203.5V193.5H472.5V203.5H486V205H472.5ZM475.5 202C475.097 202 474.747 201.851 474.448 201.552C474.149 201.253 474 200.903 474 200.5V191.5C474 191.087 474.149 190.734 474.448 190.441C474.747 190.147 475.097 190 475.5 190H479.021L481.021 192H486.5C486.913 192 487.266 192.147 487.559 192.441C487.853 192.734 488 193.088 488 193.5V200.5C488 200.903 487.853 201.253 487.559 201.552C487.266 201.851 486.913 202 486.5 202H475.5ZM475.5 200.5H486.5V193.5H480.417L478.417 191.5H475.5V200.5Z" fill="#006590"/>
</g>
<path d="M466.793 227V217.2H472.883V218.684H468.417V221.428H472.239V222.912H468.417V227H466.793ZM474.294 227V220H475.848V227H474.294ZM475.078 218.67C474.826 218.67 474.607 218.581 474.42 218.404C474.243 218.217 474.154 217.998 474.154 217.746C474.154 217.494 474.243 217.279 474.42 217.102C474.607 216.925 474.826 216.836 475.078 216.836C475.33 216.836 475.545 216.925 475.722 217.102C475.909 217.279 476.002 217.494 476.002 217.746C476.002 217.998 475.909 218.217 475.722 218.404C475.545 218.581 475.33 218.67 475.078 218.67ZM477.696 227V217.2H479.264V227H477.696ZM484.127 227.168C483.445 227.168 482.839 227.014 482.307 226.706C481.784 226.389 481.369 225.955 481.061 225.404C480.762 224.853 480.613 224.219 480.613 223.5C480.613 222.781 480.767 222.147 481.075 221.596C481.383 221.045 481.803 220.616 482.335 220.308C482.876 219.991 483.492 219.832 484.183 219.832C484.808 219.832 485.373 219.995 485.877 220.322C486.381 220.639 486.777 221.101 487.067 221.708C487.365 222.315 487.515 223.038 487.515 223.878H482.013L482.223 223.682C482.223 224.111 482.316 224.485 482.503 224.802C482.689 225.11 482.937 225.348 483.245 225.516C483.553 225.684 483.893 225.768 484.267 225.768C484.696 225.768 485.051 225.675 485.331 225.488C485.611 225.292 485.83 225.04 485.989 224.732L487.375 225.32C487.179 225.693 486.927 226.02 486.619 226.3C486.32 226.58 485.961 226.795 485.541 226.944C485.13 227.093 484.659 227.168 484.127 227.168ZM482.321 222.87L482.097 222.674H486.045L485.835 222.87C485.835 222.487 485.751 222.175 485.583 221.932C485.415 221.68 485.2 221.493 484.939 221.372C484.687 221.241 484.421 221.176 484.141 221.176C483.861 221.176 483.581 221.241 483.301 221.372C483.021 221.493 482.787 221.68 482.601 221.932C482.414 222.175 482.321 222.487 482.321 222.87ZM491.264 227.168C490.797 227.168 490.368 227.098 489.976 226.958C489.584 226.818 489.248 226.622 488.968 226.37C488.688 226.109 488.473 225.805 488.324 225.46L489.682 224.858C489.822 225.119 490.027 225.339 490.298 225.516C490.578 225.693 490.886 225.782 491.222 225.782C491.586 225.782 491.875 225.721 492.09 225.6C492.314 225.469 492.426 225.292 492.426 225.068C492.426 224.853 492.342 224.69 492.174 224.578C492.006 224.457 491.768 224.359 491.46 224.284L490.802 224.102C490.139 223.934 489.621 223.668 489.248 223.304C488.874 222.931 488.688 222.506 488.688 222.03C488.688 221.33 488.912 220.789 489.36 220.406C489.817 220.023 490.47 219.832 491.32 219.832C491.749 219.832 492.141 219.897 492.496 220.028C492.86 220.149 493.172 220.327 493.434 220.56C493.695 220.784 493.877 221.05 493.98 221.358L492.678 221.946C492.584 221.713 492.407 221.535 492.146 221.414C491.884 221.283 491.595 221.218 491.278 221.218C490.96 221.218 490.713 221.288 490.536 221.428C490.358 221.559 490.27 221.745 490.27 221.988C490.27 222.128 490.349 222.259 490.508 222.38C490.666 222.492 490.895 222.585 491.194 222.66L492.02 222.856C492.477 222.968 492.85 223.145 493.14 223.388C493.429 223.621 493.644 223.887 493.784 224.186C493.924 224.475 493.994 224.769 493.994 225.068C493.994 225.488 493.872 225.857 493.63 226.174C493.396 226.491 493.074 226.739 492.664 226.916C492.253 227.084 491.786 227.168 491.264 227.168Z" fill="#21333F"/>
<defs>
<filter id="filter0_dd_12852_32633" x="165" y="0" width="407" height="276" filterUnits="userSpaceOnUse" color-interpolation-filters="sRGB">
<feFlood flood-opacity="0" result="BackgroundImageFix"/>
<feColorMatrix in="SourceAlpha" type="matrix" values="0 0 0 0 0 0 0 0 0 0 0 0 0 0 0 0 0 0 127 0" result="hardAlpha"/>
<feOffset dx="48" dy="48"/>
<feGaussianBlur stdDeviation="48"/>
<feColorMatrix type="matrix" values="0 0 0 0 0 0 0 0 0 0.396078 0 0 0 0 0.564706 0 0 0 0.12 0"/>
<feBlend mode="normal" in2="BackgroundImageFix" result="effect1_dropShadow_12852_32633"/>
<feColorMatrix in="SourceAlpha" type="matrix" values="0 0 0 0 0 0 0 0 0 0 0 0 0 0 0 0 0 0 127 0" result="hardAlpha"/>
<feMorphology radius="1" operator="dilate" in="SourceAlpha" result="effect2_dropShadow_12852_32633"/>
<feOffset/>
<feColorMatrix type="matrix" values="0 0 0 0 0 0 0 0 0 0 0 0 0 0 0 0 0 0 0.12 0"/>
<feBlend mode="normal" in2="effect1_dropShadow_12852_32633" result="effect2_dropShadow_12852_32633"/>
<feBlend mode="normal" in="SourceGraphic" in2="effect2_dropShadow_12852_32633" result="shape"/>
</filter>
<radialGradient id="paint0_radial_12852_32633" cx="0" cy="0" r="1" gradientUnits="userSpaceOnUse" gradientTransform="translate(213 48) rotate(21.3405) scale(230.827 346.829)">
<stop stop-color="#87CEFF" stop-opacity="0"/>
<stop offset="1" stop-color="#87CEFF"/>
</radialGradient>
<clipPath id="clip0_12852_32633">
<rect x="213" y="48" width="215" height="84" rx="24" fill="white"/>
</clipPath>
</defs>
</svg>
