<svg width="640" height="360" viewBox="0 0 640 360" fill="none" xmlns="http://www.w3.org/2000/svg">
<g filter="url(#filter0_dd_12853_37714)">
<g clip-path="url(#clip0_12853_37714)">
<rect x="210.5" y="48" width="219" height="84" rx="24" fill="white"/>
<rect opacity="0.16" x="210.5" y="48" width="219" height="84" fill="url(#paint0_radial_12853_37714)"/>
<rect x="326.5" y="74.5" width="72" height="31" rx="5.5" fill="#FFEBF7" stroke="#FFADF3"/>
<path d="M248.159 101.047C247.488 101.047 246.88 100.99 246.335 100.876C245.803 100.762 245.353 100.629 244.986 100.477C244.619 100.325 244.334 100.179 244.131 100.04L244.948 98.33C245.125 98.4187 245.36 98.5263 245.651 98.653C245.955 98.7923 246.31 98.9127 246.715 99.014C247.12 99.1153 247.576 99.166 248.083 99.166C248.628 99.166 249.115 99.052 249.546 98.824C249.977 98.6087 250.312 98.273 250.553 97.817C250.794 97.361 250.914 96.7783 250.914 96.069V87.5H253.042V96.012C253.042 97.0887 252.839 98.0007 252.434 98.748C252.029 99.508 251.459 100.078 250.724 100.458C249.989 100.851 249.134 101.047 248.159 101.047ZM247.836 96.81C246.975 96.81 246.221 96.6137 245.575 96.221C244.942 95.8283 244.441 95.2837 244.074 94.587C243.719 93.8777 243.542 93.0607 243.542 92.136C243.542 91.148 243.719 90.293 244.074 89.571C244.441 88.849 244.942 88.2853 245.575 87.88C246.221 87.4747 246.975 87.272 247.836 87.272C248.609 87.272 249.28 87.4747 249.85 87.88C250.433 88.2853 250.882 88.8553 251.199 89.59C251.516 90.312 251.674 91.167 251.674 92.155C251.674 93.0923 251.516 93.9093 251.199 94.606C250.882 95.3027 250.433 95.8473 249.85 96.24C249.28 96.62 248.609 96.81 247.836 96.81ZM248.425 95.005C248.906 95.005 249.324 94.8783 249.679 94.625C250.046 94.3717 250.331 94.0297 250.534 93.599C250.737 93.1557 250.838 92.649 250.838 92.079C250.838 91.4963 250.737 90.9897 250.534 90.559C250.331 90.1157 250.046 89.7737 249.679 89.533C249.312 89.2797 248.887 89.153 248.406 89.153C247.899 89.153 247.45 89.2797 247.057 89.533C246.677 89.7737 246.373 90.1157 246.145 90.559C245.93 90.9897 245.822 91.4963 245.822 92.079C245.822 92.649 245.93 93.1557 246.145 93.599C246.373 94.0297 246.683 94.3717 247.076 94.625C247.469 94.8783 247.918 95.005 248.425 95.005ZM255.525 97V87.5H257.634V97H255.525ZM256.589 85.695C256.247 85.695 255.95 85.5747 255.696 85.334C255.456 85.0807 255.335 84.783 255.335 84.441C255.335 84.099 255.456 83.8077 255.696 83.567C255.95 83.3263 256.247 83.206 256.589 83.206C256.931 83.206 257.223 83.3263 257.463 83.567C257.717 83.8077 257.843 84.099 257.843 84.441C257.843 84.783 257.717 85.0807 257.463 85.334C257.223 85.5747 256.931 85.695 256.589 85.695ZM263.923 97.228C262.923 97.228 262.156 96.981 261.624 96.487C261.105 95.9803 260.845 95.2583 260.845 94.321V84.536H262.954V93.922C262.954 94.3653 263.056 94.701 263.258 94.929C263.474 95.157 263.784 95.271 264.189 95.271C264.316 95.271 264.455 95.2457 264.607 95.195C264.759 95.1443 264.93 95.0493 265.12 94.91L265.899 96.525C265.57 96.753 265.241 96.924 264.911 97.038C264.582 97.1647 264.253 97.228 263.923 97.228ZM259.268 89.324V87.5H265.519V89.324H259.268ZM273.59 91.946C273.59 90.92 273.787 90.0777 274.179 89.419C274.572 88.7603 275.079 88.2727 275.699 87.956C276.333 87.6267 276.991 87.462 277.675 87.462V89.495C277.093 89.495 276.542 89.5773 276.022 89.742C275.516 89.894 275.104 90.1473 274.787 90.502C274.471 90.8567 274.312 91.3253 274.312 91.908L273.59 91.946ZM272.184 97V87.5H274.312V97H272.184ZM283.324 97.228C282.399 97.228 281.576 97.019 280.854 96.601C280.144 96.1703 279.581 95.5813 279.163 94.834C278.757 94.0867 278.555 93.2253 278.555 92.25C278.555 91.2747 278.764 90.4133 279.182 89.666C279.6 88.9187 280.17 88.336 280.892 87.918C281.626 87.4873 282.462 87.272 283.4 87.272C284.248 87.272 285.015 87.4937 285.699 87.937C286.383 88.3677 286.921 88.9947 287.314 89.818C287.719 90.6413 287.922 91.623 287.922 92.763H280.455L280.74 92.497C280.74 93.0797 280.866 93.5863 281.12 94.017C281.373 94.435 281.709 94.758 282.127 94.986C282.545 95.214 283.007 95.328 283.514 95.328C284.096 95.328 284.578 95.2013 284.958 94.948C285.338 94.682 285.635 94.34 285.851 93.922L287.732 94.72C287.466 95.2267 287.124 95.67 286.706 96.05C286.3 96.43 285.813 96.7213 285.243 96.924C284.685 97.1267 284.046 97.228 283.324 97.228ZM280.873 91.395L280.569 91.129H285.927L285.642 91.395C285.642 90.8757 285.528 90.4513 285.3 90.122C285.072 89.78 284.78 89.5267 284.426 89.362C284.084 89.1847 283.723 89.096 283.343 89.096C282.963 89.096 282.583 89.1847 282.203 89.362C281.823 89.5267 281.506 89.78 281.253 90.122C280.999 90.4513 280.873 90.8757 280.873 91.395ZM293.01 97.228C292.376 97.228 291.794 97.133 291.262 96.943C290.73 96.753 290.274 96.487 289.894 96.145C289.514 95.7903 289.222 95.3787 289.02 94.91L290.863 94.093C291.053 94.4477 291.331 94.7453 291.699 94.986C292.079 95.2267 292.497 95.347 292.953 95.347C293.447 95.347 293.839 95.2647 294.131 95.1C294.435 94.9227 294.587 94.682 294.587 94.378C294.587 94.0867 294.473 93.865 294.245 93.713C294.017 93.5483 293.694 93.4153 293.276 93.314L292.383 93.067C291.483 92.839 290.78 92.478 290.274 91.984C289.767 91.4773 289.514 90.901 289.514 90.255C289.514 89.305 289.818 88.5703 290.426 88.051C291.046 87.5317 291.933 87.272 293.086 87.272C293.668 87.272 294.2 87.3607 294.682 87.538C295.176 87.7027 295.6 87.9433 295.955 88.26C296.309 88.564 296.556 88.925 296.696 89.343L294.929 90.141C294.802 89.8243 294.561 89.5837 294.207 89.419C293.852 89.2417 293.459 89.153 293.029 89.153C292.598 89.153 292.262 89.248 292.022 89.438C291.781 89.6153 291.661 89.8687 291.661 90.198C291.661 90.388 291.768 90.5653 291.984 90.73C292.199 90.882 292.509 91.0087 292.915 91.11L294.036 91.376C294.656 91.528 295.163 91.7687 295.556 92.098C295.948 92.4147 296.24 92.7757 296.43 93.181C296.62 93.5737 296.715 93.9727 296.715 94.378C296.715 94.948 296.55 95.4483 296.221 95.879C295.904 96.3097 295.467 96.6453 294.91 96.886C294.352 97.114 293.719 97.228 293.01 97.228ZM302.639 97.228C301.714 97.228 300.891 97.019 300.169 96.601C299.46 96.1703 298.896 95.5813 298.478 94.834C298.073 94.0867 297.87 93.2253 297.87 92.25C297.87 91.2747 298.079 90.4133 298.497 89.666C298.915 88.9187 299.485 88.336 300.207 87.918C300.942 87.4873 301.778 87.272 302.715 87.272C303.564 87.272 304.33 87.4937 305.014 87.937C305.698 88.3677 306.236 88.9947 306.629 89.818C307.034 90.6413 307.237 91.623 307.237 92.763H299.77L300.055 92.497C300.055 93.0797 300.182 93.5863 300.435 94.017C300.688 94.435 301.024 94.758 301.442 94.986C301.86 95.214 302.322 95.328 302.829 95.328C303.412 95.328 303.893 95.2013 304.273 94.948C304.653 94.682 304.951 94.34 305.166 93.922L307.047 94.72C306.781 95.2267 306.439 95.67 306.021 96.05C305.616 96.43 305.128 96.7213 304.558 96.924C304.001 97.1267 303.361 97.228 302.639 97.228ZM300.188 91.395L299.884 91.129H305.242L304.957 91.395C304.957 90.8757 304.843 90.4513 304.615 90.122C304.387 89.78 304.096 89.5267 303.741 89.362C303.399 89.1847 303.038 89.096 302.658 89.096C302.278 89.096 301.898 89.1847 301.518 89.362C301.138 89.5267 300.821 89.78 300.568 90.122C300.315 90.4513 300.188 90.8757 300.188 91.395ZM312.648 97.228C311.647 97.228 310.881 96.981 310.349 96.487C309.83 95.9803 309.57 95.2583 309.57 94.321V84.536H311.679V93.922C311.679 94.3653 311.78 94.701 311.983 94.929C312.198 95.157 312.509 95.271 312.914 95.271C313.041 95.271 313.18 95.2457 313.332 95.195C313.484 95.1443 313.655 95.0493 313.845 94.91L314.624 96.525C314.295 96.753 313.965 96.924 313.636 97.038C313.307 97.1647 312.977 97.228 312.648 97.228ZM307.993 89.324V87.5H314.244V89.324H307.993Z" fill="#006590"/>
<path d="M334.544 92.269V90.426H340.244V92.269H334.544ZM342.356 92.269V90.426H348.056V92.269H342.356ZM350.3 97V83.7H352.428V97H350.3ZM356.741 97V92.136H358.869V97H356.741ZM356.741 92.136C356.741 91.376 356.652 90.7933 356.475 90.388C356.298 89.97 356.051 89.6787 355.734 89.514C355.43 89.3493 355.075 89.267 354.67 89.267C353.948 89.2543 353.391 89.4887 352.998 89.97C352.618 90.4513 352.428 91.1417 352.428 92.041H351.611C351.611 91.0403 351.757 90.1853 352.048 89.476C352.352 88.754 352.776 88.2093 353.321 87.842C353.866 87.462 354.512 87.272 355.259 87.272C356.006 87.272 356.652 87.424 357.197 87.728C357.742 88.032 358.153 88.507 358.432 89.153C358.723 89.7863 358.869 90.616 358.869 91.642V92.136H356.741ZM366.819 97L366.724 95.214V92.117C366.724 91.471 366.655 90.9327 366.515 90.502C366.389 90.0587 366.173 89.723 365.869 89.495C365.578 89.2543 365.185 89.134 364.691 89.134C364.235 89.134 363.836 89.229 363.494 89.419C363.152 89.609 362.861 89.9067 362.62 90.312L360.758 89.628C360.961 89.21 361.227 88.8237 361.556 88.469C361.898 88.1017 362.323 87.8103 362.829 87.595C363.349 87.3797 363.969 87.272 364.691 87.272C365.616 87.272 366.389 87.4557 367.009 87.823C367.63 88.1777 368.086 88.6907 368.377 89.362C368.681 90.0333 368.833 90.844 368.833 91.794L368.776 97H366.819ZM364.083 97.228C362.943 97.228 362.057 96.9747 361.423 96.468C360.803 95.9613 360.492 95.2457 360.492 94.321C360.492 93.333 360.822 92.5793 361.48 92.06C362.152 91.5407 363.083 91.281 364.273 91.281H366.819V92.915H364.957C364.109 92.915 363.513 93.0353 363.171 93.276C362.829 93.504 362.658 93.8333 362.658 94.264C362.658 94.6313 362.804 94.9227 363.095 95.138C363.399 95.3407 363.817 95.442 364.349 95.442C364.831 95.442 365.249 95.3343 365.603 95.119C365.958 94.9037 366.23 94.6187 366.42 94.264C366.623 93.9093 366.724 93.5103 366.724 93.067H367.351C367.351 94.359 367.092 95.3787 366.572 96.126C366.053 96.8607 365.223 97.228 364.083 97.228ZM372.394 91.946C372.394 90.92 372.59 90.0777 372.983 89.419C373.376 88.7603 373.882 88.2727 374.503 87.956C375.136 87.6267 375.795 87.462 376.479 87.462V89.495C375.896 89.495 375.345 89.5773 374.826 89.742C374.319 89.894 373.908 90.1473 373.591 90.502C373.274 90.8567 373.116 91.3253 373.116 91.908L372.394 91.946ZM370.988 97V87.5H373.116V97H370.988ZM384.749 97L384.654 95.233V83.7H386.763V97H384.749ZM381.652 97.228C380.791 97.228 380.037 97.0253 379.391 96.62C378.758 96.202 378.258 95.6193 377.89 94.872C377.536 94.1247 377.358 93.2507 377.358 92.25C377.358 91.2367 377.536 90.3627 377.89 89.628C378.258 88.8807 378.758 88.3043 379.391 87.899C380.037 87.481 380.791 87.272 381.652 87.272C382.45 87.272 383.134 87.481 383.704 87.899C384.287 88.3043 384.73 88.8807 385.034 89.628C385.338 90.3627 385.49 91.2367 385.49 92.25C385.49 93.2507 385.338 94.1247 385.034 94.872C384.73 95.6193 384.287 96.202 383.704 96.62C383.134 97.0253 382.45 97.228 381.652 97.228ZM382.184 95.29C382.666 95.29 383.09 95.1633 383.457 94.91C383.837 94.644 384.129 94.283 384.331 93.827C384.547 93.371 384.654 92.8453 384.654 92.25C384.654 91.6547 384.547 91.129 384.331 90.673C384.129 90.217 383.837 89.8623 383.457 89.609C383.09 89.3557 382.659 89.229 382.165 89.229C381.659 89.229 381.209 89.3557 380.816 89.609C380.424 89.8623 380.113 90.217 379.885 90.673C379.67 91.129 379.556 91.6547 379.543 92.25C379.556 92.8453 379.67 93.371 379.885 93.827C380.113 94.283 380.424 94.644 380.816 94.91C381.222 95.1633 381.678 95.29 382.184 95.29Z" fill="#531350"/>
</g>
</g>
<path d="M88 276C88 267.163 95.1634 260 104 260H216C224.837 260 232 267.163 232 276V300C232 308.837 224.837 316 216 316H104C95.1634 316 88 308.837 88 300V276Z" fill="#F2F8FF"/>
<path d="M122.612 285V275.9H124.224L127.084 280.112L129.918 275.9H131.543V285H130.035V278.279L127.071 282.66L124.12 278.305V285H122.612ZM136.412 285.156C135.762 285.156 135.182 285.013 134.67 284.727C134.168 284.432 133.773 284.029 133.487 283.518C133.201 283.007 133.058 282.417 133.058 281.75C133.058 281.083 133.197 280.493 133.474 279.982C133.76 279.471 134.155 279.072 134.657 278.786C135.16 278.491 135.736 278.344 136.386 278.344C137.036 278.344 137.613 278.491 138.115 278.786C138.618 279.072 139.008 279.471 139.285 279.982C139.571 280.493 139.714 281.083 139.714 281.75C139.714 282.417 139.576 283.007 139.298 283.518C139.021 284.029 138.631 284.432 138.128 284.727C137.626 285.013 137.054 285.156 136.412 285.156ZM136.412 283.817C136.768 283.817 137.084 283.73 137.361 283.557C137.639 283.375 137.855 283.132 138.011 282.829C138.167 282.517 138.245 282.157 138.245 281.75C138.245 281.343 138.163 280.987 137.998 280.684C137.842 280.372 137.626 280.129 137.348 279.956C137.071 279.774 136.75 279.683 136.386 279.683C136.022 279.683 135.702 279.77 135.424 279.943C135.147 280.116 134.93 280.359 134.774 280.671C134.618 280.983 134.54 281.343 134.54 281.75C134.54 282.157 134.618 282.517 134.774 282.829C134.939 283.132 135.16 283.375 135.437 283.557C135.723 283.73 136.048 283.817 136.412 283.817ZM142.828 285L145.363 278.5H146.871L144.193 285H142.828ZM142.724 285L140.033 278.5H141.528L144.076 285H142.724ZM150.502 285.156C149.869 285.156 149.306 285.013 148.812 284.727C148.327 284.432 147.941 284.029 147.655 283.518C147.378 283.007 147.239 282.417 147.239 281.75C147.239 281.083 147.382 280.493 147.668 279.982C147.954 279.471 148.344 279.072 148.838 278.786C149.341 278.491 149.913 278.344 150.554 278.344C151.135 278.344 151.659 278.496 152.127 278.799C152.595 279.094 152.963 279.523 153.232 280.086C153.509 280.649 153.648 281.321 153.648 282.101H148.539L148.734 281.919C148.734 282.318 148.821 282.664 148.994 282.959C149.167 283.245 149.397 283.466 149.683 283.622C149.969 283.778 150.285 283.856 150.632 283.856C151.031 283.856 151.36 283.769 151.62 283.596C151.88 283.414 152.084 283.18 152.231 282.894L153.518 283.44C153.336 283.787 153.102 284.09 152.816 284.35C152.539 284.61 152.205 284.809 151.815 284.948C151.434 285.087 150.996 285.156 150.502 285.156ZM148.825 281.165L148.617 280.983H152.283L152.088 281.165C152.088 280.81 152.01 280.519 151.854 280.294C151.698 280.06 151.499 279.887 151.256 279.774C151.022 279.653 150.775 279.592 150.515 279.592C150.255 279.592 149.995 279.653 149.735 279.774C149.475 279.887 149.258 280.06 149.085 280.294C148.912 280.519 148.825 280.81 148.825 281.165ZM157.129 285.156C156.696 285.156 156.297 285.091 155.933 284.961C155.569 284.831 155.257 284.649 154.997 284.415C154.737 284.172 154.538 283.891 154.399 283.57L155.66 283.011C155.79 283.254 155.981 283.457 156.232 283.622C156.492 283.787 156.778 283.869 157.09 283.869C157.428 283.869 157.697 283.813 157.896 283.7C158.104 283.579 158.208 283.414 158.208 283.206C158.208 283.007 158.13 282.855 157.974 282.751C157.818 282.638 157.597 282.547 157.311 282.478L156.7 282.309C156.085 282.153 155.604 281.906 155.257 281.568C154.91 281.221 154.737 280.827 154.737 280.385C154.737 279.735 154.945 279.232 155.361 278.877C155.786 278.522 156.392 278.344 157.181 278.344C157.58 278.344 157.944 278.405 158.273 278.526C158.611 278.639 158.901 278.803 159.144 279.02C159.387 279.228 159.556 279.475 159.651 279.761L158.442 280.307C158.355 280.09 158.191 279.926 157.948 279.813C157.705 279.692 157.437 279.631 157.142 279.631C156.847 279.631 156.618 279.696 156.453 279.826C156.288 279.947 156.206 280.121 156.206 280.346C156.206 280.476 156.28 280.597 156.427 280.71C156.574 280.814 156.787 280.901 157.064 280.97L157.831 281.152C158.256 281.256 158.602 281.421 158.871 281.646C159.14 281.863 159.339 282.11 159.469 282.387C159.599 282.656 159.664 282.929 159.664 283.206C159.664 283.596 159.551 283.938 159.326 284.233C159.109 284.528 158.81 284.757 158.429 284.922C158.048 285.078 157.614 285.156 157.129 285.156ZM166.541 285.156C165.857 285.156 165.332 284.987 164.968 284.649C164.613 284.302 164.435 283.808 164.435 283.167V276.472H165.878V282.894C165.878 283.197 165.948 283.427 166.086 283.583C166.234 283.739 166.446 283.817 166.723 283.817C166.81 283.817 166.905 283.8 167.009 283.765C167.113 283.73 167.23 283.665 167.36 283.57L167.893 284.675C167.668 284.831 167.443 284.948 167.217 285.026C166.992 285.113 166.767 285.156 166.541 285.156ZM163.356 279.748V278.5H167.633V279.748H163.356ZM171.959 285.156C171.309 285.156 170.728 285.013 170.217 284.727C169.714 284.432 169.32 284.029 169.034 283.518C168.748 283.007 168.605 282.417 168.605 281.75C168.605 281.083 168.744 280.493 169.021 279.982C169.307 279.471 169.701 279.072 170.204 278.786C170.707 278.491 171.283 278.344 171.933 278.344C172.583 278.344 173.159 278.491 173.662 278.786C174.165 279.072 174.555 279.471 174.832 279.982C175.118 280.493 175.261 281.083 175.261 281.75C175.261 282.417 175.122 283.007 174.845 283.518C174.568 284.029 174.178 284.432 173.675 284.727C173.172 285.013 172.6 285.156 171.959 285.156ZM171.959 283.817C172.314 283.817 172.631 283.73 172.908 283.557C173.185 283.375 173.402 283.132 173.558 282.829C173.714 282.517 173.792 282.157 173.792 281.75C173.792 281.343 173.71 280.987 173.545 280.684C173.389 280.372 173.172 280.129 172.895 279.956C172.618 279.774 172.297 279.683 171.933 279.683C171.569 279.683 171.248 279.77 170.971 279.943C170.694 280.116 170.477 280.359 170.321 280.671C170.165 280.983 170.087 281.343 170.087 281.75C170.087 282.157 170.165 282.517 170.321 282.829C170.486 283.132 170.707 283.375 170.984 283.557C171.27 283.73 171.595 283.817 171.959 283.817ZM182.246 285.156C181.561 285.156 181.037 284.987 180.673 284.649C180.317 284.302 180.14 283.808 180.14 283.167V276.472H181.583V282.894C181.583 283.197 181.652 283.427 181.791 283.583C181.938 283.739 182.15 283.817 182.428 283.817C182.514 283.817 182.61 283.8 182.714 283.765C182.818 283.73 182.935 283.665 183.065 283.57L183.598 284.675C183.372 284.831 183.147 284.948 182.922 285.026C182.696 285.113 182.471 285.156 182.246 285.156ZM179.061 279.748V278.5H183.338V279.748H179.061ZM184.775 285V275.9H186.231V285H184.775ZM189.182 285V281.672H190.638V285H189.182ZM189.182 281.672C189.182 281.152 189.121 280.753 189 280.476C188.879 280.19 188.71 279.991 188.493 279.878C188.285 279.765 188.042 279.709 187.765 279.709C187.271 279.7 186.89 279.861 186.621 280.19C186.361 280.519 186.231 280.992 186.231 281.607H185.672C185.672 280.922 185.772 280.337 185.971 279.852C186.179 279.358 186.469 278.985 186.842 278.734C187.215 278.474 187.657 278.344 188.168 278.344C188.679 278.344 189.121 278.448 189.494 278.656C189.867 278.864 190.148 279.189 190.339 279.631C190.538 280.064 190.638 280.632 190.638 281.334V281.672H189.182ZM195.012 285.156C194.379 285.156 193.816 285.013 193.322 284.727C192.836 284.432 192.451 284.029 192.165 283.518C191.887 283.007 191.749 282.417 191.749 281.75C191.749 281.083 191.892 280.493 192.178 279.982C192.464 279.471 192.854 279.072 193.348 278.786C193.85 278.491 194.422 278.344 195.064 278.344C195.644 278.344 196.169 278.496 196.637 278.799C197.105 279.094 197.473 279.523 197.742 280.086C198.019 280.649 198.158 281.321 198.158 282.101H193.049L193.244 281.919C193.244 282.318 193.33 282.664 193.504 282.959C193.677 283.245 193.907 283.466 194.193 283.622C194.479 283.778 194.795 283.856 195.142 283.856C195.54 283.856 195.87 283.769 196.13 283.596C196.39 283.414 196.593 283.18 196.741 282.894L198.028 283.44C197.846 283.787 197.612 284.09 197.326 284.35C197.048 284.61 196.715 284.809 196.325 284.948C195.943 285.087 195.506 285.156 195.012 285.156ZM193.335 281.165L193.127 280.983H196.793L196.598 281.165C196.598 280.81 196.52 280.519 196.364 280.294C196.208 280.06 196.008 279.887 195.766 279.774C195.532 279.653 195.285 279.592 195.025 279.592C194.765 279.592 194.505 279.653 194.245 279.774C193.985 279.887 193.768 280.06 193.595 280.294C193.421 280.519 193.335 280.81 193.335 281.165ZM111.693 301.156C111.259 301.156 110.861 301.091 110.497 300.961C110.133 300.831 109.821 300.649 109.561 300.415C109.301 300.172 109.101 299.891 108.963 299.57L110.224 299.011C110.354 299.254 110.544 299.457 110.796 299.622C111.056 299.787 111.342 299.869 111.654 299.869C111.992 299.869 112.26 299.813 112.46 299.7C112.668 299.579 112.772 299.414 112.772 299.206C112.772 299.007 112.694 298.855 112.538 298.751C112.382 298.638 112.161 298.547 111.875 298.478L111.264 298.309C110.648 298.153 110.167 297.906 109.821 297.568C109.474 297.221 109.301 296.827 109.301 296.385C109.301 295.735 109.509 295.232 109.925 294.877C110.349 294.522 110.956 294.344 111.745 294.344C112.143 294.344 112.507 294.405 112.837 294.526C113.175 294.639 113.465 294.803 113.708 295.02C113.95 295.228 114.119 295.475 114.215 295.761L113.006 296.307C112.919 296.09 112.754 295.926 112.512 295.813C112.269 295.692 112 295.631 111.706 295.631C111.411 295.631 111.181 295.696 111.017 295.826C110.852 295.947 110.77 296.121 110.77 296.346C110.77 296.476 110.843 296.597 110.991 296.71C111.138 296.814 111.35 296.901 111.628 296.97L112.395 297.152C112.819 297.256 113.166 297.421 113.435 297.646C113.703 297.863 113.903 298.11 114.033 298.387C114.163 298.656 114.228 298.929 114.228 299.206C114.228 299.596 114.115 299.938 113.89 300.233C113.673 300.528 113.374 300.757 112.993 300.922C112.611 301.078 112.178 301.156 111.693 301.156ZM115.447 303.6V294.5H116.812L116.903 295.696V303.6H115.447ZM118.957 301.156C118.411 301.156 117.939 301.017 117.54 300.74C117.15 300.454 116.851 300.055 116.643 299.544C116.435 299.033 116.331 298.435 116.331 297.75C116.331 297.057 116.435 296.459 116.643 295.956C116.851 295.445 117.15 295.05 117.54 294.773C117.939 294.487 118.411 294.344 118.957 294.344C119.547 294.344 120.058 294.487 120.491 294.773C120.933 295.05 121.276 295.445 121.518 295.956C121.77 296.459 121.895 297.057 121.895 297.75C121.895 298.435 121.77 299.033 121.518 299.544C121.276 300.055 120.933 300.454 120.491 300.74C120.058 301.017 119.547 301.156 118.957 301.156ZM118.593 299.83C118.94 299.83 119.248 299.743 119.516 299.57C119.785 299.388 119.997 299.141 120.153 298.829C120.318 298.517 120.4 298.157 120.4 297.75C120.4 297.343 120.322 296.983 120.166 296.671C120.019 296.359 119.811 296.116 119.542 295.943C119.274 295.77 118.962 295.683 118.606 295.683C118.277 295.683 117.982 295.77 117.722 295.943C117.462 296.116 117.259 296.359 117.111 296.671C116.973 296.983 116.903 297.343 116.903 297.75C116.903 298.157 116.973 298.517 117.111 298.829C117.259 299.141 117.458 299.388 117.709 299.57C117.969 299.743 118.264 299.83 118.593 299.83ZM126.038 301.156C125.405 301.156 124.842 301.013 124.348 300.727C123.863 300.432 123.477 300.029 123.191 299.518C122.914 299.007 122.775 298.417 122.775 297.75C122.775 297.083 122.918 296.493 123.204 295.982C123.49 295.471 123.88 295.072 124.374 294.786C124.877 294.491 125.449 294.344 126.09 294.344C126.671 294.344 127.195 294.496 127.663 294.799C128.131 295.094 128.499 295.523 128.768 296.086C129.045 296.649 129.184 297.321 129.184 298.101H124.075L124.27 297.919C124.27 298.318 124.357 298.664 124.53 298.959C124.703 299.245 124.933 299.466 125.219 299.622C125.505 299.778 125.821 299.856 126.168 299.856C126.567 299.856 126.896 299.769 127.156 299.596C127.416 299.414 127.62 299.18 127.767 298.894L129.054 299.44C128.872 299.787 128.638 300.09 128.352 300.35C128.075 300.61 127.741 300.809 127.351 300.948C126.97 301.087 126.532 301.156 126.038 301.156ZM124.361 297.165L124.153 296.983H127.819L127.624 297.165C127.624 296.81 127.546 296.519 127.39 296.294C127.234 296.06 127.035 295.887 126.792 295.774C126.558 295.653 126.311 295.592 126.051 295.592C125.791 295.592 125.531 295.653 125.271 295.774C125.011 295.887 124.794 296.06 124.621 296.294C124.448 296.519 124.361 296.81 124.361 297.165ZM133.341 301.156C132.674 301.156 132.084 301.013 131.573 300.727C131.062 300.432 130.659 300.029 130.364 299.518C130.078 299.007 129.935 298.417 129.935 297.75C129.935 297.083 130.078 296.493 130.364 295.982C130.659 295.471 131.057 295.072 131.56 294.786C132.071 294.491 132.656 294.344 133.315 294.344C133.956 294.344 134.537 294.5 135.057 294.812C135.577 295.115 135.963 295.553 136.214 296.125L134.862 296.645C134.723 296.359 134.511 296.129 134.225 295.956C133.939 295.783 133.614 295.696 133.25 295.696C132.895 295.696 132.578 295.787 132.301 295.969C132.024 296.142 131.807 296.385 131.651 296.697C131.495 297 131.417 297.351 131.417 297.75C131.417 298.149 131.495 298.504 131.651 298.816C131.816 299.119 132.037 299.362 132.314 299.544C132.6 299.717 132.921 299.804 133.276 299.804C133.64 299.804 133.965 299.713 134.251 299.531C134.537 299.34 134.749 299.085 134.888 298.764L136.24 299.284C135.989 299.873 135.603 300.333 135.083 300.662C134.572 300.991 133.991 301.156 133.341 301.156ZM137.461 301V294.5H138.904V301H137.461ZM138.189 293.265C137.955 293.265 137.752 293.183 137.578 293.018C137.414 292.845 137.331 292.641 137.331 292.407C137.331 292.173 137.414 291.974 137.578 291.809C137.752 291.644 137.955 291.562 138.189 291.562C138.423 291.562 138.623 291.644 138.787 291.809C138.961 291.974 139.047 292.173 139.047 292.407C139.047 292.641 138.961 292.845 138.787 293.018C138.623 293.183 138.423 293.265 138.189 293.265ZM141.27 301V293.811C141.27 293.126 141.439 292.602 141.777 292.238C142.124 291.865 142.644 291.679 143.337 291.679C143.563 291.679 143.801 291.718 144.052 291.796C144.312 291.865 144.559 291.961 144.793 292.082L144.26 293.161C144.096 293.083 143.948 293.027 143.818 292.992C143.697 292.957 143.589 292.94 143.493 292.94C143.233 292.94 143.038 293.027 142.908 293.2C142.787 293.365 142.726 293.638 142.726 294.019V301H141.27ZM140.152 295.696V294.5H144.429V295.696H140.152ZM145.701 301V294.5H147.144V301H145.701ZM146.429 293.265C146.195 293.265 145.991 293.183 145.818 293.018C145.653 292.845 145.571 292.641 145.571 292.407C145.571 292.173 145.653 291.974 145.818 291.809C145.991 291.644 146.195 291.562 146.429 291.562C146.663 291.562 146.862 291.644 147.027 291.809C147.2 291.974 147.287 292.173 147.287 292.407C147.287 292.641 147.2 292.845 147.027 293.018C146.862 293.183 146.663 293.265 146.429 293.265ZM151.759 301.156C151.126 301.156 150.563 301.013 150.069 300.727C149.583 300.432 149.198 300.029 148.912 299.518C148.634 299.007 148.496 298.417 148.496 297.75C148.496 297.083 148.639 296.493 148.925 295.982C149.211 295.471 149.601 295.072 150.095 294.786C150.597 294.491 151.169 294.344 151.811 294.344C152.391 294.344 152.916 294.496 153.384 294.799C153.852 295.094 154.22 295.523 154.489 296.086C154.766 296.649 154.905 297.321 154.905 298.101H149.796L149.991 297.919C149.991 298.318 150.077 298.664 150.251 298.959C150.424 299.245 150.654 299.466 150.94 299.622C151.226 299.778 151.542 299.856 151.889 299.856C152.287 299.856 152.617 299.769 152.877 299.596C153.137 299.414 153.34 299.18 153.488 298.894L154.775 299.44C154.593 299.787 154.359 300.09 154.073 300.35C153.795 300.61 153.462 300.809 153.072 300.948C152.69 301.087 152.253 301.156 151.759 301.156ZM150.082 297.165L149.874 296.983H153.54L153.345 297.165C153.345 296.81 153.267 296.519 153.111 296.294C152.955 296.06 152.755 295.887 152.513 295.774C152.279 295.653 152.032 295.592 151.772 295.592C151.512 295.592 151.252 295.653 150.992 295.774C150.732 295.887 150.515 296.06 150.342 296.294C150.168 296.519 150.082 296.81 150.082 297.165ZM160.713 301L160.648 299.791V291.9H162.091V301H160.713ZM158.594 301.156C158.005 301.156 157.489 301.017 157.047 300.74C156.614 300.454 156.271 300.055 156.02 299.544C155.777 299.033 155.656 298.435 155.656 297.75C155.656 297.057 155.777 296.459 156.02 295.956C156.271 295.445 156.614 295.05 157.047 294.773C157.489 294.487 158.005 294.344 158.594 294.344C159.14 294.344 159.608 294.487 159.998 294.773C160.397 295.05 160.7 295.445 160.908 295.956C161.116 296.459 161.22 297.057 161.22 297.75C161.22 298.435 161.116 299.033 160.908 299.544C160.7 300.055 160.397 300.454 159.998 300.74C159.608 301.017 159.14 301.156 158.594 301.156ZM158.958 299.83C159.287 299.83 159.578 299.743 159.829 299.57C160.089 299.388 160.288 299.141 160.427 298.829C160.574 298.517 160.648 298.157 160.648 297.75C160.648 297.343 160.574 296.983 160.427 296.671C160.288 296.359 160.089 296.116 159.829 295.943C159.578 295.77 159.283 295.683 158.945 295.683C158.598 295.683 158.291 295.77 158.022 295.943C157.753 296.116 157.541 296.359 157.385 296.671C157.238 296.983 157.16 297.343 157.151 297.75C157.16 298.157 157.238 298.517 157.385 298.829C157.541 299.141 157.753 299.388 158.022 299.57C158.299 299.743 158.611 299.83 158.958 299.83ZM169.878 301.156C169.211 301.156 168.622 301.013 168.11 300.727C167.599 300.432 167.196 300.029 166.901 299.518C166.615 299.007 166.472 298.417 166.472 297.75C166.472 297.083 166.615 296.493 166.901 295.982C167.196 295.471 167.595 295.072 168.097 294.786C168.609 294.491 169.194 294.344 169.852 294.344C170.494 294.344 171.074 294.5 171.594 294.812C172.114 295.115 172.5 295.553 172.751 296.125L171.399 296.645C171.261 296.359 171.048 296.129 170.762 295.956C170.476 295.783 170.151 295.696 169.787 295.696C169.432 295.696 169.116 295.787 168.838 295.969C168.561 296.142 168.344 296.385 168.188 296.697C168.032 297 167.954 297.351 167.954 297.75C167.954 298.149 168.032 298.504 168.188 298.816C168.353 299.119 168.574 299.362 168.851 299.544C169.137 299.717 169.458 299.804 169.813 299.804C170.177 299.804 170.502 299.713 170.788 299.531C171.074 299.34 171.287 299.085 171.425 298.764L172.777 299.284C172.526 299.873 172.14 300.333 171.62 300.662C171.109 300.991 170.528 301.156 169.878 301.156ZM176.898 301.156C176.248 301.156 175.667 301.013 175.156 300.727C174.653 300.432 174.259 300.029 173.973 299.518C173.687 299.007 173.544 298.417 173.544 297.75C173.544 297.083 173.682 296.493 173.96 295.982C174.246 295.471 174.64 295.072 175.143 294.786C175.645 294.491 176.222 294.344 176.872 294.344C177.522 294.344 178.098 294.491 178.601 294.786C179.103 295.072 179.493 295.471 179.771 295.982C180.057 296.493 180.2 297.083 180.2 297.75C180.2 298.417 180.061 299.007 179.784 299.518C179.506 300.029 179.116 300.432 178.614 300.727C178.111 301.013 177.539 301.156 176.898 301.156ZM176.898 299.817C177.253 299.817 177.569 299.73 177.847 299.557C178.124 299.375 178.341 299.132 178.497 298.829C178.653 298.517 178.731 298.157 178.731 297.75C178.731 297.343 178.648 296.987 178.484 296.684C178.328 296.372 178.111 296.129 177.834 295.956C177.556 295.774 177.236 295.683 176.872 295.683C176.508 295.683 176.187 295.77 175.91 295.943C175.632 296.116 175.416 296.359 175.26 296.671C175.104 296.983 175.026 297.343 175.026 297.75C175.026 298.157 175.104 298.517 175.26 298.829C175.424 299.132 175.645 299.375 175.923 299.557C176.209 299.73 176.534 299.817 176.898 299.817ZM181.461 301V294.5H182.826L182.891 295.371C183.091 295.033 183.346 294.777 183.658 294.604C183.97 294.431 184.326 294.344 184.724 294.344C185.244 294.344 185.686 294.461 186.05 294.695C186.414 294.929 186.679 295.284 186.843 295.761C187.034 295.302 187.303 294.951 187.649 294.708C187.996 294.465 188.403 294.344 188.871 294.344C189.625 294.344 190.206 294.587 190.613 295.072C191.021 295.549 191.22 296.285 191.211 297.282V301H189.768V297.672C189.768 297.152 189.712 296.753 189.599 296.476C189.487 296.19 189.335 295.991 189.144 295.878C188.954 295.765 188.733 295.709 188.481 295.709C188.031 295.7 187.68 295.861 187.428 296.19C187.186 296.519 187.064 296.992 187.064 297.607V301H185.608V297.672C185.608 297.152 185.552 296.753 185.439 296.476C185.335 296.19 185.188 295.991 184.997 295.878C184.807 295.765 184.586 295.709 184.334 295.709C183.884 295.7 183.533 295.861 183.281 296.19C183.039 296.519 182.917 296.992 182.917 297.607V301H181.461ZM192.697 301V294.5H194.062L194.127 295.371C194.326 295.033 194.582 294.777 194.894 294.604C195.206 294.431 195.561 294.344 195.96 294.344C196.48 294.344 196.922 294.461 197.286 294.695C197.65 294.929 197.914 295.284 198.079 295.761C198.269 295.302 198.538 294.951 198.885 294.708C199.231 294.465 199.639 294.344 200.107 294.344C200.861 294.344 201.441 294.587 201.849 295.072C202.256 295.549 202.455 296.285 202.447 297.282V301H201.004V297.672C201.004 297.152 200.947 296.753 200.835 296.476C200.722 296.19 200.57 295.991 200.38 295.878C200.189 295.765 199.968 295.709 199.717 295.709C199.266 295.7 198.915 295.861 198.664 296.19C198.421 296.519 198.3 296.992 198.3 297.607V301H196.844V297.672C196.844 297.152 196.787 296.753 196.675 296.476C196.571 296.19 196.423 295.991 196.233 295.878C196.042 295.765 195.821 295.709 195.57 295.709C195.119 295.7 194.768 295.861 194.517 296.19C194.274 296.519 194.153 296.992 194.153 297.607V301H192.697ZM204.023 301V294.5H205.466V301H204.023ZM204.751 293.265C204.517 293.265 204.313 293.183 204.14 293.018C203.975 292.845 203.893 292.641 203.893 292.407C203.893 292.173 203.975 291.974 204.14 291.809C204.313 291.644 204.517 291.562 204.751 291.562C204.985 291.562 205.184 291.644 205.349 291.809C205.522 291.974 205.609 292.173 205.609 292.407C205.609 292.641 205.522 292.845 205.349 293.018C205.184 293.183 204.985 293.265 204.751 293.265ZM209.769 301.156C209.084 301.156 208.56 300.987 208.196 300.649C207.841 300.302 207.663 299.808 207.663 299.167V292.472H209.106V298.894C209.106 299.197 209.175 299.427 209.314 299.583C209.461 299.739 209.674 299.817 209.951 299.817C210.038 299.817 210.133 299.8 210.237 299.765C210.341 299.73 210.458 299.665 210.588 299.57L211.121 300.675C210.896 300.831 210.67 300.948 210.445 301.026C210.22 301.113 209.994 301.156 209.769 301.156ZM206.584 295.748V294.5H210.861V295.748H206.584Z" fill="#21333F"/>
<path d="M248 276C248 267.163 255.163 260 264 260H376C384.837 260 392 267.163 392 276V300C392 308.837 384.837 316 376 316H264C255.163 316 248 308.837 248 300V276Z" fill="#F2F8FF"/>
<path d="M275.709 293.156C274.834 293.156 274.054 292.957 273.369 292.558C272.693 292.151 272.16 291.596 271.77 290.894C271.389 290.183 271.198 289.369 271.198 288.45C271.198 287.531 271.389 286.721 271.77 286.019C272.16 285.308 272.693 284.754 273.369 284.355C274.045 283.948 274.821 283.744 275.696 283.744C276.286 283.744 276.84 283.852 277.36 284.069C277.88 284.277 278.34 284.567 278.738 284.94C279.146 285.313 279.458 285.746 279.674 286.24L278.296 286.799C278.14 286.47 277.928 286.179 277.659 285.928C277.399 285.668 277.1 285.469 276.762 285.33C276.424 285.191 276.069 285.122 275.696 285.122C275.124 285.122 274.613 285.265 274.162 285.551C273.72 285.837 273.369 286.231 273.109 286.734C272.858 287.228 272.732 287.8 272.732 288.45C272.732 289.1 272.858 289.676 273.109 290.179C273.369 290.682 273.725 291.076 274.175 291.362C274.635 291.648 275.155 291.791 275.735 291.791C276.117 291.791 276.472 291.717 276.801 291.57C277.139 291.414 277.438 291.202 277.698 290.933C277.967 290.664 278.179 290.352 278.335 289.997L279.713 290.556C279.497 291.067 279.189 291.522 278.79 291.921C278.392 292.311 277.928 292.614 277.399 292.831C276.871 293.048 276.307 293.156 275.709 293.156ZM280.905 293V283.9H282.361V293H280.905ZM285.312 293V289.672H286.768V293H285.312ZM285.312 289.672C285.312 289.152 285.251 288.753 285.13 288.476C285.009 288.19 284.84 287.991 284.623 287.878C284.415 287.765 284.172 287.709 283.895 287.709C283.401 287.7 283.02 287.861 282.751 288.19C282.491 288.519 282.361 288.992 282.361 289.607H281.802C281.802 288.922 281.902 288.337 282.101 287.852C282.309 287.358 282.599 286.985 282.972 286.734C283.345 286.474 283.787 286.344 284.298 286.344C284.809 286.344 285.251 286.448 285.624 286.656C285.997 286.864 286.278 287.189 286.469 287.631C286.668 288.064 286.768 288.632 286.768 289.334V289.672H285.312ZM292.208 293L292.143 291.778V289.659C292.143 289.217 292.095 288.849 292 288.554C291.913 288.251 291.766 288.021 291.558 287.865C291.358 287.7 291.09 287.618 290.752 287.618C290.44 287.618 290.167 287.683 289.933 287.813C289.699 287.943 289.499 288.147 289.335 288.424L288.061 287.956C288.199 287.67 288.381 287.406 288.607 287.163C288.841 286.912 289.131 286.712 289.478 286.565C289.833 286.418 290.258 286.344 290.752 286.344C291.384 286.344 291.913 286.47 292.338 286.721C292.762 286.964 293.074 287.315 293.274 287.774C293.482 288.233 293.586 288.788 293.586 289.438L293.547 293H292.208ZM290.336 293.156C289.556 293.156 288.949 292.983 288.516 292.636C288.091 292.289 287.879 291.8 287.879 291.167C287.879 290.491 288.104 289.975 288.555 289.62C289.014 289.265 289.651 289.087 290.466 289.087H292.208V290.205H290.934C290.353 290.205 289.946 290.287 289.712 290.452C289.478 290.608 289.361 290.833 289.361 291.128C289.361 291.379 289.46 291.579 289.66 291.726C289.868 291.865 290.154 291.934 290.518 291.934C290.847 291.934 291.133 291.86 291.376 291.713C291.618 291.566 291.805 291.371 291.935 291.128C292.073 290.885 292.143 290.612 292.143 290.309H292.572C292.572 291.193 292.394 291.891 292.039 292.402C291.683 292.905 291.116 293.156 290.336 293.156ZM295.06 293V286.5H296.425L296.516 287.696V293H295.06ZM299.467 293V289.672H300.923V293H299.467ZM299.467 289.672C299.467 289.152 299.406 288.753 299.285 288.476C299.172 288.19 299.008 287.991 298.791 287.878C298.583 287.765 298.336 287.709 298.05 287.709C297.565 287.7 297.188 287.861 296.919 288.19C296.65 288.519 296.516 288.992 296.516 289.607H295.97C295.97 288.922 296.07 288.337 296.269 287.852C296.468 287.358 296.754 286.985 297.127 286.734C297.5 286.474 297.942 286.344 298.453 286.344C298.973 286.344 299.415 286.448 299.779 286.656C300.152 286.864 300.433 287.189 300.624 287.631C300.823 288.064 300.923 288.632 300.923 289.334V289.672H299.467ZM305.193 295.769C304.733 295.769 304.317 295.73 303.945 295.652C303.581 295.574 303.273 295.483 303.022 295.379C302.77 295.275 302.575 295.175 302.437 295.08L302.996 293.91C303.117 293.971 303.277 294.044 303.477 294.131C303.685 294.226 303.927 294.309 304.205 294.378C304.482 294.447 304.794 294.482 305.141 294.482C305.513 294.482 305.847 294.404 306.142 294.248C306.436 294.101 306.666 293.871 306.831 293.559C306.995 293.247 307.078 292.848 307.078 292.363V286.5H308.534V292.324C308.534 293.061 308.395 293.685 308.118 294.196C307.84 294.716 307.45 295.106 306.948 295.366C306.445 295.635 305.86 295.769 305.193 295.769ZM304.972 292.87C304.382 292.87 303.867 292.736 303.425 292.467C302.991 292.198 302.649 291.826 302.398 291.349C302.155 290.864 302.034 290.305 302.034 289.672C302.034 288.996 302.155 288.411 302.398 287.917C302.649 287.423 302.991 287.037 303.425 286.76C303.867 286.483 304.382 286.344 304.972 286.344C305.5 286.344 305.96 286.483 306.35 286.76C306.748 287.037 307.056 287.427 307.273 287.93C307.489 288.424 307.598 289.009 307.598 289.685C307.598 290.326 307.489 290.885 307.273 291.362C307.056 291.839 306.748 292.211 306.35 292.48C305.96 292.74 305.5 292.87 304.972 292.87ZM305.375 291.635C305.704 291.635 305.99 291.548 306.233 291.375C306.484 291.202 306.679 290.968 306.818 290.673C306.956 290.37 307.026 290.023 307.026 289.633C307.026 289.234 306.956 288.888 306.818 288.593C306.679 288.29 306.484 288.056 306.233 287.891C305.981 287.718 305.691 287.631 305.362 287.631C305.015 287.631 304.707 287.718 304.439 287.891C304.179 288.056 303.971 288.29 303.815 288.593C303.667 288.888 303.594 289.234 303.594 289.633C303.594 290.023 303.667 290.37 303.815 290.673C303.971 290.968 304.183 291.202 304.452 291.375C304.72 291.548 305.028 291.635 305.375 291.635ZM313.041 293.156C312.408 293.156 311.845 293.013 311.351 292.727C310.866 292.432 310.48 292.029 310.194 291.518C309.917 291.007 309.778 290.417 309.778 289.75C309.778 289.083 309.921 288.493 310.207 287.982C310.493 287.471 310.883 287.072 311.377 286.786C311.88 286.491 312.452 286.344 313.093 286.344C313.674 286.344 314.198 286.496 314.666 286.799C315.134 287.094 315.502 287.523 315.771 288.086C316.048 288.649 316.187 289.321 316.187 290.101H311.078L311.273 289.919C311.273 290.318 311.36 290.664 311.533 290.959C311.706 291.245 311.936 291.466 312.222 291.622C312.508 291.778 312.824 291.856 313.171 291.856C313.57 291.856 313.899 291.769 314.159 291.596C314.419 291.414 314.623 291.18 314.77 290.894L316.057 291.44C315.875 291.787 315.641 292.09 315.355 292.35C315.078 292.61 314.744 292.809 314.354 292.948C313.973 293.087 313.535 293.156 313.041 293.156ZM311.364 289.165L311.156 288.983H314.822L314.627 289.165C314.627 288.81 314.549 288.519 314.393 288.294C314.237 288.06 314.038 287.887 313.795 287.774C313.561 287.653 313.314 287.592 313.054 287.592C312.794 287.592 312.534 287.653 312.274 287.774C312.014 287.887 311.797 288.06 311.624 288.294C311.451 288.519 311.364 288.81 311.364 289.165ZM319.668 293.156C319.235 293.156 318.836 293.091 318.472 292.961C318.108 292.831 317.796 292.649 317.536 292.415C317.276 292.172 317.077 291.891 316.938 291.57L318.199 291.011C318.329 291.254 318.52 291.457 318.771 291.622C319.031 291.787 319.317 291.869 319.629 291.869C319.967 291.869 320.236 291.813 320.435 291.7C320.643 291.579 320.747 291.414 320.747 291.206C320.747 291.007 320.669 290.855 320.513 290.751C320.357 290.638 320.136 290.547 319.85 290.478L319.239 290.309C318.624 290.153 318.143 289.906 317.796 289.568C317.449 289.221 317.276 288.827 317.276 288.385C317.276 287.735 317.484 287.232 317.9 286.877C318.325 286.522 318.931 286.344 319.72 286.344C320.119 286.344 320.483 286.405 320.812 286.526C321.15 286.639 321.44 286.803 321.683 287.02C321.926 287.228 322.095 287.475 322.19 287.761L320.981 288.307C320.894 288.09 320.73 287.926 320.487 287.813C320.244 287.692 319.976 287.631 319.681 287.631C319.386 287.631 319.157 287.696 318.992 287.826C318.827 287.947 318.745 288.121 318.745 288.346C318.745 288.476 318.819 288.597 318.966 288.71C319.113 288.814 319.326 288.901 319.603 288.97L320.37 289.152C320.795 289.256 321.141 289.421 321.41 289.646C321.679 289.863 321.878 290.11 322.008 290.387C322.138 290.656 322.203 290.929 322.203 291.206C322.203 291.596 322.09 291.938 321.865 292.233C321.648 292.528 321.349 292.757 320.968 292.922C320.587 293.078 320.153 293.156 319.668 293.156ZM330.459 293L330.394 291.778V289.659C330.394 289.217 330.346 288.849 330.251 288.554C330.164 288.251 330.017 288.021 329.809 287.865C329.609 287.7 329.341 287.618 329.003 287.618C328.691 287.618 328.418 287.683 328.184 287.813C327.95 287.943 327.75 288.147 327.586 288.424L326.312 287.956C326.45 287.67 326.632 287.406 326.858 287.163C327.092 286.912 327.382 286.712 327.729 286.565C328.084 286.418 328.509 286.344 329.003 286.344C329.635 286.344 330.164 286.47 330.589 286.721C331.013 286.964 331.325 287.315 331.525 287.774C331.733 288.233 331.837 288.788 331.837 289.438L331.798 293H330.459ZM328.587 293.156C327.807 293.156 327.2 292.983 326.767 292.636C326.342 292.289 326.13 291.8 326.13 291.167C326.13 290.491 326.355 289.975 326.806 289.62C327.265 289.265 327.902 289.087 328.717 289.087H330.459V290.205H329.185C328.604 290.205 328.197 290.287 327.963 290.452C327.729 290.608 327.612 290.833 327.612 291.128C327.612 291.379 327.711 291.579 327.911 291.726C328.119 291.865 328.405 291.934 328.769 291.934C329.098 291.934 329.384 291.86 329.627 291.713C329.869 291.566 330.056 291.371 330.186 291.128C330.324 290.885 330.394 290.612 330.394 290.309H330.823C330.823 291.193 330.645 291.891 330.29 292.402C329.934 292.905 329.367 293.156 328.587 293.156ZM334.273 289.542C334.273 288.84 334.407 288.264 334.676 287.813C334.945 287.362 335.291 287.029 335.716 286.812C336.149 286.587 336.6 286.474 337.068 286.474V287.865C336.669 287.865 336.292 287.921 335.937 288.034C335.59 288.138 335.309 288.311 335.092 288.554C334.875 288.797 334.767 289.117 334.767 289.516L334.273 289.542ZM333.311 293V286.5H334.767V293H333.311ZM340.933 293.156C340.3 293.156 339.737 293.013 339.243 292.727C338.757 292.432 338.372 292.029 338.086 291.518C337.808 291.007 337.67 290.417 337.67 289.75C337.67 289.083 337.813 288.493 338.099 287.982C338.385 287.471 338.775 287.072 339.269 286.786C339.771 286.491 340.343 286.344 340.985 286.344C341.565 286.344 342.09 286.496 342.558 286.799C343.026 287.094 343.394 287.523 343.663 288.086C343.94 288.649 344.079 289.321 344.079 290.101H338.97L339.165 289.919C339.165 290.318 339.251 290.664 339.425 290.959C339.598 291.245 339.828 291.466 340.114 291.622C340.4 291.778 340.716 291.856 341.063 291.856C341.461 291.856 341.791 291.769 342.051 291.596C342.311 291.414 342.514 291.18 342.662 290.894L343.949 291.44C343.767 291.787 343.533 292.09 343.247 292.35C342.969 292.61 342.636 292.809 342.246 292.948C341.864 293.087 341.427 293.156 340.933 293.156ZM339.256 289.165L339.048 288.983H342.714L342.519 289.165C342.519 288.81 342.441 288.519 342.285 288.294C342.129 288.06 341.929 287.887 341.687 287.774C341.453 287.653 341.206 287.592 340.946 287.592C340.686 287.592 340.426 287.653 340.166 287.774C339.906 287.887 339.689 288.06 339.516 288.294C339.342 288.519 339.256 288.81 339.256 289.165ZM348.329 293V283.9H349.785V293H348.329ZM354.392 293.156C353.742 293.156 353.161 293.013 352.65 292.727C352.147 292.432 351.753 292.029 351.467 291.518C351.181 291.007 351.038 290.417 351.038 289.75C351.038 289.083 351.176 288.493 351.454 287.982C351.74 287.471 352.134 287.072 352.637 286.786C353.139 286.491 353.716 286.344 354.366 286.344C355.016 286.344 355.592 286.491 356.095 286.786C356.597 287.072 356.987 287.471 357.265 287.982C357.551 288.493 357.694 289.083 357.694 289.75C357.694 290.417 357.555 291.007 357.278 291.518C357 292.029 356.61 292.432 356.108 292.727C355.605 293.013 355.033 293.156 354.392 293.156ZM354.392 291.817C354.747 291.817 355.063 291.73 355.341 291.557C355.618 291.375 355.835 291.132 355.991 290.829C356.147 290.517 356.225 290.157 356.225 289.75C356.225 289.343 356.142 288.987 355.978 288.684C355.822 288.372 355.605 288.129 355.328 287.956C355.05 287.774 354.73 287.683 354.366 287.683C354.002 287.683 353.681 287.77 353.404 287.943C353.126 288.116 352.91 288.359 352.754 288.671C352.598 288.983 352.52 289.343 352.52 289.75C352.52 290.157 352.598 290.517 352.754 290.829C352.918 291.132 353.139 291.375 353.417 291.557C353.703 291.73 354.028 291.817 354.392 291.817ZM361.321 293.156C360.888 293.156 360.489 293.091 360.125 292.961C359.761 292.831 359.449 292.649 359.189 292.415C358.929 292.172 358.73 291.891 358.591 291.57L359.852 291.011C359.982 291.254 360.173 291.457 360.424 291.622C360.684 291.787 360.97 291.869 361.282 291.869C361.62 291.869 361.889 291.813 362.088 291.7C362.296 291.579 362.4 291.414 362.4 291.206C362.4 291.007 362.322 290.855 362.166 290.751C362.01 290.638 361.789 290.547 361.503 290.478L360.892 290.309C360.277 290.153 359.796 289.906 359.449 289.568C359.103 289.221 358.929 288.827 358.929 288.385C358.929 287.735 359.137 287.232 359.553 286.877C359.978 286.522 360.585 286.344 361.373 286.344C361.772 286.344 362.136 286.405 362.465 286.526C362.803 286.639 363.094 286.803 363.336 287.02C363.579 287.228 363.748 287.475 363.843 287.761L362.634 288.307C362.548 288.09 362.383 287.926 362.14 287.813C361.898 287.692 361.629 287.631 361.334 287.631C361.04 287.631 360.81 287.696 360.645 287.826C360.481 287.947 360.398 288.121 360.398 288.346C360.398 288.476 360.472 288.597 360.619 288.71C360.767 288.814 360.979 288.901 361.256 288.97L362.023 289.152C362.448 289.256 362.795 289.421 363.063 289.646C363.332 289.863 363.531 290.11 363.661 290.387C363.791 290.656 363.856 290.929 363.856 291.206C363.856 291.596 363.744 291.938 363.518 292.233C363.302 292.528 363.003 292.757 362.621 292.922C362.24 293.078 361.807 293.156 361.321 293.156ZM367.598 293.156C366.913 293.156 366.389 292.987 366.025 292.649C365.67 292.302 365.492 291.808 365.492 291.167V284.472H366.935V290.894C366.935 291.197 367.004 291.427 367.143 291.583C367.29 291.739 367.503 291.817 367.78 291.817C367.867 291.817 367.962 291.8 368.066 291.765C368.17 291.73 368.287 291.665 368.417 291.57L368.95 292.675C368.725 292.831 368.499 292.948 368.274 293.026C368.049 293.113 367.823 293.156 367.598 293.156ZM364.413 287.748V286.5H368.69V287.748H364.413Z" fill="#21333F"/>
<path d="M408 276C408 267.163 415.163 260 424 260H536C544.837 260 552 267.163 552 276V300C552 308.837 544.837 316 536 316H424C415.163 316 408 308.837 408 300V276Z" fill="#F2F8FF"/>
<path d="M435.709 293.156C434.834 293.156 434.054 292.957 433.369 292.558C432.693 292.151 432.16 291.596 431.77 290.894C431.389 290.183 431.198 289.369 431.198 288.45C431.198 287.531 431.389 286.721 431.77 286.019C432.16 285.308 432.693 284.754 433.369 284.355C434.045 283.948 434.821 283.744 435.696 283.744C436.286 283.744 436.84 283.852 437.36 284.069C437.88 284.277 438.34 284.567 438.738 284.94C439.146 285.313 439.458 285.746 439.674 286.24L438.296 286.799C438.14 286.47 437.928 286.179 437.659 285.928C437.399 285.668 437.1 285.469 436.762 285.33C436.424 285.191 436.069 285.122 435.696 285.122C435.124 285.122 434.613 285.265 434.162 285.551C433.72 285.837 433.369 286.231 433.109 286.734C432.858 287.228 432.732 287.8 432.732 288.45C432.732 289.1 432.858 289.676 433.109 290.179C433.369 290.682 433.725 291.076 434.175 291.362C434.635 291.648 435.155 291.791 435.735 291.791C436.117 291.791 436.472 291.717 436.801 291.57C437.139 291.414 437.438 291.202 437.698 290.933C437.967 290.664 438.179 290.352 438.335 289.997L439.713 290.556C439.497 291.067 439.189 291.522 438.79 291.921C438.392 292.311 437.928 292.614 437.399 292.831C436.871 293.048 436.307 293.156 435.709 293.156ZM440.905 293V283.9H442.361V293H440.905ZM445.312 293V289.672H446.768V293H445.312ZM445.312 289.672C445.312 289.152 445.251 288.753 445.13 288.476C445.009 288.19 444.84 287.991 444.623 287.878C444.415 287.765 444.172 287.709 443.895 287.709C443.401 287.7 443.02 287.861 442.751 288.19C442.491 288.519 442.361 288.992 442.361 289.607H441.802C441.802 288.922 441.902 288.337 442.101 287.852C442.309 287.358 442.599 286.985 442.972 286.734C443.345 286.474 443.787 286.344 444.298 286.344C444.809 286.344 445.251 286.448 445.624 286.656C445.997 286.864 446.278 287.189 446.469 287.631C446.668 288.064 446.768 288.632 446.768 289.334V289.672H445.312ZM452.208 293L452.143 291.778V289.659C452.143 289.217 452.095 288.849 452 288.554C451.913 288.251 451.766 288.021 451.558 287.865C451.358 287.7 451.09 287.618 450.752 287.618C450.44 287.618 450.167 287.683 449.933 287.813C449.699 287.943 449.499 288.147 449.335 288.424L448.061 287.956C448.199 287.67 448.381 287.406 448.607 287.163C448.841 286.912 449.131 286.712 449.478 286.565C449.833 286.418 450.258 286.344 450.752 286.344C451.384 286.344 451.913 286.47 452.338 286.721C452.762 286.964 453.074 287.315 453.274 287.774C453.482 288.233 453.586 288.788 453.586 289.438L453.547 293H452.208ZM450.336 293.156C449.556 293.156 448.949 292.983 448.516 292.636C448.091 292.289 447.879 291.8 447.879 291.167C447.879 290.491 448.104 289.975 448.555 289.62C449.014 289.265 449.651 289.087 450.466 289.087H452.208V290.205H450.934C450.353 290.205 449.946 290.287 449.712 290.452C449.478 290.608 449.361 290.833 449.361 291.128C449.361 291.379 449.46 291.579 449.66 291.726C449.868 291.865 450.154 291.934 450.518 291.934C450.847 291.934 451.133 291.86 451.376 291.713C451.618 291.566 451.805 291.371 451.935 291.128C452.073 290.885 452.143 290.612 452.143 290.309H452.572C452.572 291.193 452.394 291.891 452.039 292.402C451.683 292.905 451.116 293.156 450.336 293.156ZM455.06 293V286.5H456.425L456.516 287.696V293H455.06ZM459.467 293V289.672H460.923V293H459.467ZM459.467 289.672C459.467 289.152 459.406 288.753 459.285 288.476C459.172 288.19 459.008 287.991 458.791 287.878C458.583 287.765 458.336 287.709 458.05 287.709C457.565 287.7 457.188 287.861 456.919 288.19C456.65 288.519 456.516 288.992 456.516 289.607H455.97C455.97 288.922 456.07 288.337 456.269 287.852C456.468 287.358 456.754 286.985 457.127 286.734C457.5 286.474 457.942 286.344 458.453 286.344C458.973 286.344 459.415 286.448 459.779 286.656C460.152 286.864 460.433 287.189 460.624 287.631C460.823 288.064 460.923 288.632 460.923 289.334V289.672H459.467ZM465.193 295.769C464.733 295.769 464.317 295.73 463.945 295.652C463.581 295.574 463.273 295.483 463.022 295.379C462.77 295.275 462.575 295.175 462.437 295.08L462.996 293.91C463.117 293.971 463.277 294.044 463.477 294.131C463.685 294.226 463.927 294.309 464.205 294.378C464.482 294.447 464.794 294.482 465.141 294.482C465.513 294.482 465.847 294.404 466.142 294.248C466.436 294.101 466.666 293.871 466.831 293.559C466.995 293.247 467.078 292.848 467.078 292.363V286.5H468.534V292.324C468.534 293.061 468.395 293.685 468.118 294.196C467.84 294.716 467.45 295.106 466.948 295.366C466.445 295.635 465.86 295.769 465.193 295.769ZM464.972 292.87C464.382 292.87 463.867 292.736 463.425 292.467C462.991 292.198 462.649 291.826 462.398 291.349C462.155 290.864 462.034 290.305 462.034 289.672C462.034 288.996 462.155 288.411 462.398 287.917C462.649 287.423 462.991 287.037 463.425 286.76C463.867 286.483 464.382 286.344 464.972 286.344C465.5 286.344 465.96 286.483 466.35 286.76C466.748 287.037 467.056 287.427 467.273 287.93C467.489 288.424 467.598 289.009 467.598 289.685C467.598 290.326 467.489 290.885 467.273 291.362C467.056 291.839 466.748 292.211 466.35 292.48C465.96 292.74 465.5 292.87 464.972 292.87ZM465.375 291.635C465.704 291.635 465.99 291.548 466.233 291.375C466.484 291.202 466.679 290.968 466.818 290.673C466.956 290.37 467.026 290.023 467.026 289.633C467.026 289.234 466.956 288.888 466.818 288.593C466.679 288.29 466.484 288.056 466.233 287.891C465.981 287.718 465.691 287.631 465.362 287.631C465.015 287.631 464.707 287.718 464.439 287.891C464.179 288.056 463.971 288.29 463.815 288.593C463.667 288.888 463.594 289.234 463.594 289.633C463.594 290.023 463.667 290.37 463.815 290.673C463.971 290.968 464.183 291.202 464.452 291.375C464.72 291.548 465.028 291.635 465.375 291.635ZM473.041 293.156C472.408 293.156 471.845 293.013 471.351 292.727C470.866 292.432 470.48 292.029 470.194 291.518C469.917 291.007 469.778 290.417 469.778 289.75C469.778 289.083 469.921 288.493 470.207 287.982C470.493 287.471 470.883 287.072 471.377 286.786C471.88 286.491 472.452 286.344 473.093 286.344C473.674 286.344 474.198 286.496 474.666 286.799C475.134 287.094 475.502 287.523 475.771 288.086C476.048 288.649 476.187 289.321 476.187 290.101H471.078L471.273 289.919C471.273 290.318 471.36 290.664 471.533 290.959C471.706 291.245 471.936 291.466 472.222 291.622C472.508 291.778 472.824 291.856 473.171 291.856C473.57 291.856 473.899 291.769 474.159 291.596C474.419 291.414 474.623 291.18 474.77 290.894L476.057 291.44C475.875 291.787 475.641 292.09 475.355 292.35C475.078 292.61 474.744 292.809 474.354 292.948C473.973 293.087 473.535 293.156 473.041 293.156ZM471.364 289.165L471.156 288.983H474.822L474.627 289.165C474.627 288.81 474.549 288.519 474.393 288.294C474.237 288.06 474.038 287.887 473.795 287.774C473.561 287.653 473.314 287.592 473.054 287.592C472.794 287.592 472.534 287.653 472.274 287.774C472.014 287.887 471.797 288.06 471.624 288.294C471.451 288.519 471.364 288.81 471.364 289.165ZM479.668 293.156C479.235 293.156 478.836 293.091 478.472 292.961C478.108 292.831 477.796 292.649 477.536 292.415C477.276 292.172 477.077 291.891 476.938 291.57L478.199 291.011C478.329 291.254 478.52 291.457 478.771 291.622C479.031 291.787 479.317 291.869 479.629 291.869C479.967 291.869 480.236 291.813 480.435 291.7C480.643 291.579 480.747 291.414 480.747 291.206C480.747 291.007 480.669 290.855 480.513 290.751C480.357 290.638 480.136 290.547 479.85 290.478L479.239 290.309C478.624 290.153 478.143 289.906 477.796 289.568C477.449 289.221 477.276 288.827 477.276 288.385C477.276 287.735 477.484 287.232 477.9 286.877C478.325 286.522 478.931 286.344 479.72 286.344C480.119 286.344 480.483 286.405 480.812 286.526C481.15 286.639 481.44 286.803 481.683 287.02C481.926 287.228 482.095 287.475 482.19 287.761L480.981 288.307C480.894 288.09 480.73 287.926 480.487 287.813C480.244 287.692 479.976 287.631 479.681 287.631C479.386 287.631 479.157 287.696 478.992 287.826C478.827 287.947 478.745 288.121 478.745 288.346C478.745 288.476 478.819 288.597 478.966 288.71C479.113 288.814 479.326 288.901 479.603 288.97L480.37 289.152C480.795 289.256 481.141 289.421 481.41 289.646C481.679 289.863 481.878 290.11 482.008 290.387C482.138 290.656 482.203 290.929 482.203 291.206C482.203 291.596 482.09 291.938 481.865 292.233C481.648 292.528 481.349 292.757 480.968 292.922C480.587 293.078 480.153 293.156 479.668 293.156ZM490.459 293L490.394 291.778V289.659C490.394 289.217 490.346 288.849 490.251 288.554C490.164 288.251 490.017 288.021 489.809 287.865C489.609 287.7 489.341 287.618 489.003 287.618C488.691 287.618 488.418 287.683 488.184 287.813C487.95 287.943 487.75 288.147 487.586 288.424L486.312 287.956C486.45 287.67 486.632 287.406 486.858 287.163C487.092 286.912 487.382 286.712 487.729 286.565C488.084 286.418 488.509 286.344 489.003 286.344C489.635 286.344 490.164 286.47 490.589 286.721C491.013 286.964 491.325 287.315 491.525 287.774C491.733 288.233 491.837 288.788 491.837 289.438L491.798 293H490.459ZM488.587 293.156C487.807 293.156 487.2 292.983 486.767 292.636C486.342 292.289 486.13 291.8 486.13 291.167C486.13 290.491 486.355 289.975 486.806 289.62C487.265 289.265 487.902 289.087 488.717 289.087H490.459V290.205H489.185C488.604 290.205 488.197 290.287 487.963 290.452C487.729 290.608 487.612 290.833 487.612 291.128C487.612 291.379 487.711 291.579 487.911 291.726C488.119 291.865 488.405 291.934 488.769 291.934C489.098 291.934 489.384 291.86 489.627 291.713C489.869 291.566 490.056 291.371 490.186 291.128C490.324 290.885 490.394 290.612 490.394 290.309H490.823C490.823 291.193 490.645 291.891 490.29 292.402C489.934 292.905 489.367 293.156 488.587 293.156ZM494.273 289.542C494.273 288.84 494.407 288.264 494.676 287.813C494.945 287.362 495.291 287.029 495.716 286.812C496.149 286.587 496.6 286.474 497.068 286.474V287.865C496.669 287.865 496.292 287.921 495.937 288.034C495.59 288.138 495.309 288.311 495.092 288.554C494.875 288.797 494.767 289.117 494.767 289.516L494.273 289.542ZM493.311 293V286.5H494.767V293H493.311ZM500.933 293.156C500.3 293.156 499.737 293.013 499.243 292.727C498.757 292.432 498.372 292.029 498.086 291.518C497.808 291.007 497.67 290.417 497.67 289.75C497.67 289.083 497.813 288.493 498.099 287.982C498.385 287.471 498.775 287.072 499.269 286.786C499.771 286.491 500.343 286.344 500.985 286.344C501.565 286.344 502.09 286.496 502.558 286.799C503.026 287.094 503.394 287.523 503.663 288.086C503.94 288.649 504.079 289.321 504.079 290.101H498.97L499.165 289.919C499.165 290.318 499.251 290.664 499.425 290.959C499.598 291.245 499.828 291.466 500.114 291.622C500.4 291.778 500.716 291.856 501.063 291.856C501.461 291.856 501.791 291.769 502.051 291.596C502.311 291.414 502.514 291.18 502.662 290.894L503.949 291.44C503.767 291.787 503.533 292.09 503.247 292.35C502.969 292.61 502.636 292.809 502.246 292.948C501.864 293.087 501.427 293.156 500.933 293.156ZM499.256 289.165L499.048 288.983H502.714L502.519 289.165C502.519 288.81 502.441 288.519 502.285 288.294C502.129 288.06 501.929 287.887 501.687 287.774C501.453 287.653 501.206 287.592 500.946 287.592C500.686 287.592 500.426 287.653 500.166 287.774C499.906 287.887 499.689 288.06 499.516 288.294C499.342 288.519 499.256 288.81 499.256 289.165ZM508.329 293V283.9H509.785V293H508.329ZM514.392 293.156C513.742 293.156 513.161 293.013 512.65 292.727C512.147 292.432 511.753 292.029 511.467 291.518C511.181 291.007 511.038 290.417 511.038 289.75C511.038 289.083 511.176 288.493 511.454 287.982C511.74 287.471 512.134 287.072 512.637 286.786C513.139 286.491 513.716 286.344 514.366 286.344C515.016 286.344 515.592 286.491 516.095 286.786C516.597 287.072 516.987 287.471 517.265 287.982C517.551 288.493 517.694 289.083 517.694 289.75C517.694 290.417 517.555 291.007 517.278 291.518C517 292.029 516.61 292.432 516.108 292.727C515.605 293.013 515.033 293.156 514.392 293.156ZM514.392 291.817C514.747 291.817 515.063 291.73 515.341 291.557C515.618 291.375 515.835 291.132 515.991 290.829C516.147 290.517 516.225 290.157 516.225 289.75C516.225 289.343 516.142 288.987 515.978 288.684C515.822 288.372 515.605 288.129 515.328 287.956C515.05 287.774 514.73 287.683 514.366 287.683C514.002 287.683 513.681 287.77 513.404 287.943C513.126 288.116 512.91 288.359 512.754 288.671C512.598 288.983 512.52 289.343 512.52 289.75C512.52 290.157 512.598 290.517 512.754 290.829C512.918 291.132 513.139 291.375 513.417 291.557C513.703 291.73 514.028 291.817 514.392 291.817ZM521.321 293.156C520.888 293.156 520.489 293.091 520.125 292.961C519.761 292.831 519.449 292.649 519.189 292.415C518.929 292.172 518.73 291.891 518.591 291.57L519.852 291.011C519.982 291.254 520.173 291.457 520.424 291.622C520.684 291.787 520.97 291.869 521.282 291.869C521.62 291.869 521.889 291.813 522.088 291.7C522.296 291.579 522.4 291.414 522.4 291.206C522.4 291.007 522.322 290.855 522.166 290.751C522.01 290.638 521.789 290.547 521.503 290.478L520.892 290.309C520.277 290.153 519.796 289.906 519.449 289.568C519.103 289.221 518.929 288.827 518.929 288.385C518.929 287.735 519.137 287.232 519.553 286.877C519.978 286.522 520.585 286.344 521.373 286.344C521.772 286.344 522.136 286.405 522.465 286.526C522.803 286.639 523.094 286.803 523.336 287.02C523.579 287.228 523.748 287.475 523.843 287.761L522.634 288.307C522.548 288.09 522.383 287.926 522.14 287.813C521.898 287.692 521.629 287.631 521.334 287.631C521.04 287.631 520.81 287.696 520.645 287.826C520.481 287.947 520.398 288.121 520.398 288.346C520.398 288.476 520.472 288.597 520.619 288.71C520.767 288.814 520.979 288.901 521.256 288.97L522.023 289.152C522.448 289.256 522.795 289.421 523.063 289.646C523.332 289.863 523.531 290.11 523.661 290.387C523.791 290.656 523.856 290.929 523.856 291.206C523.856 291.596 523.744 291.938 523.518 292.233C523.302 292.528 523.003 292.757 522.621 292.922C522.24 293.078 521.807 293.156 521.321 293.156ZM527.598 293.156C526.913 293.156 526.389 292.987 526.025 292.649C525.67 292.302 525.492 291.808 525.492 291.167V284.472H526.935V290.894C526.935 291.197 527.004 291.427 527.143 291.583C527.29 291.739 527.503 291.817 527.78 291.817C527.867 291.817 527.962 291.8 528.066 291.765C528.17 291.73 528.287 291.665 528.417 291.57L528.95 292.675C528.725 292.831 528.499 292.948 528.274 293.026C528.049 293.113 527.823 293.156 527.598 293.156ZM524.413 287.748V286.5H528.69V287.748H524.413Z" fill="#21333F"/>
<path d="M104 172.5H216C224.56 172.5 231.5 179.44 231.5 188V232C231.5 240.56 224.56 247.5 216 247.5H104C95.4396 247.5 88.5 240.56 88.5 232V188C88.5 179.44 95.4396 172.5 104 172.5Z" fill="white"/>
<path d="M104 172.5H216C224.56 172.5 231.5 179.44 231.5 188V232C231.5 240.56 224.56 247.5 216 247.5H104C95.4396 247.5 88.5 240.56 88.5 232V188C88.5 179.44 95.4396 172.5 104 172.5Z" stroke="#B6C9D8"/>
<path fill-rule="evenodd" clip-rule="evenodd" d="M162 194C162 195.105 161.105 196 160 196C158.895 196 158 195.105 158 194C158 192.895 158.895 192 160 192C161.105 192 162 192.895 162 194ZM163.5 194C163.5 195.933 161.933 197.5 160 197.5C158.067 197.5 156.5 195.933 156.5 194C156.5 192.067 158.067 190.5 160 190.5C161.933 190.5 163.5 192.067 163.5 194ZM154.5 203.75C154.5 201.955 155.955 200.5 157.75 200.5H162.25C164.045 200.5 165.5 201.955 165.5 203.75V204.25C165.5 204.664 165.836 205 166.25 205C166.664 205 167 204.664 167 204.25V203.75C167 201.127 164.873 199 162.25 199H157.75C155.127 199 153 201.127 153 203.75V204.25C153 204.664 153.336 205 153.75 205C154.164 205 154.5 204.664 154.5 204.25V203.75Z" fill="#006590"/>
<path d="M148.573 227V217.2H150.197V227H148.573ZM142.021 227V217.2H143.645V227H142.021ZM143.295 222.716V221.232H149.231V222.716H143.295ZM152.521 227V217.2H158.555V218.684H154.145V221.288H158.037V222.744H154.145V225.516H158.597V227H152.521ZM167.569 227L163.747 217.2H165.371L169.291 227H167.569ZM159.743 227L163.649 217.2H165.287L161.465 227H159.743ZM161.577 224.592V223.15H167.443V224.592H161.577ZM170.568 227V217.2H173.648C174.61 217.2 175.459 217.41 176.196 217.83C176.943 218.241 177.526 218.815 177.946 219.552C178.376 220.289 178.59 221.139 178.59 222.1C178.59 223.052 178.376 223.897 177.946 224.634C177.526 225.371 176.943 225.95 176.196 226.37C175.459 226.79 174.61 227 173.648 227H170.568ZM172.192 225.488H173.648C174.106 225.488 174.535 225.404 174.936 225.236C175.338 225.059 175.688 224.816 175.986 224.508C176.285 224.2 176.518 223.841 176.686 223.43C176.854 223.019 176.938 222.576 176.938 222.1C176.938 221.624 176.854 221.181 176.686 220.77C176.518 220.359 176.285 220 175.986 219.692C175.688 219.384 175.338 219.146 174.936 218.978C174.535 218.801 174.106 218.712 173.648 218.712H172.192V225.488Z" fill="#21333F"/>
<path d="M264 172.5H376C384.56 172.5 391.5 179.44 391.5 188V232C391.5 240.56 384.56 247.5 376 247.5H264C255.44 247.5 248.5 240.56 248.5 232V188C248.5 179.44 255.44 172.5 264 172.5Z" fill="white"/>
<path d="M264 172.5H376C384.56 172.5 391.5 179.44 391.5 188V232C391.5 240.56 384.56 247.5 376 247.5H264C255.44 247.5 248.5 240.56 248.5 232V188C248.5 179.44 255.44 172.5 264 172.5Z" stroke="#B6C9D8"/>
<path fill-rule="evenodd" clip-rule="evenodd" d="M314 202V193C314 191.343 315.343 190 317 190H323C324.657 190 326 191.343 326 193V194.75V196V201.602C326 202.602 325.572 203.554 324.825 204.218L322.361 206.408C320.865 207.738 318.5 206.676 318.5 204.674V195.174C318.5 194.317 318.866 193.501 319.507 192.931L320.342 192.189C320.479 192.067 320.656 192 320.84 192C321.529 192 321.854 192.852 321.338 193.311L320.503 194.052C320.183 194.337 320 194.745 320 195.174V204.674C320 205.382 320.836 205.757 321.365 205.287L323.829 203.097C324.256 202.717 324.5 202.173 324.5 201.602V196V194.75V193C324.5 192.172 323.828 191.5 323 191.5H317C316.172 191.5 315.5 192.172 315.5 193V202C315.5 202.828 316.172 203.5 317 203.5H317.25C317.664 203.5 318 203.836 318 204.25C318 204.664 317.664 205 317.25 205H317C315.343 205 314 203.657 314 202ZM322 200C322.552 200 323 199.552 323 199C323 198.448 322.552 198 322 198C321.448 198 321 198.448 321 199C321 199.552 321.448 200 322 200Z" fill="#006590"/>
<path d="M299.697 227.168C299.184 227.168 298.713 227.107 298.283 226.986C297.863 226.865 297.49 226.697 297.163 226.482C296.846 226.267 296.58 226.029 296.365 225.768C296.16 225.497 296.015 225.217 295.931 224.928L297.527 224.438C297.649 224.783 297.887 225.087 298.241 225.348C298.596 225.609 299.035 225.745 299.557 225.754C300.164 225.754 300.645 225.628 300.999 225.376C301.354 225.124 301.531 224.793 301.531 224.382C301.531 224.009 301.382 223.705 301.083 223.472C300.785 223.229 300.383 223.043 299.879 222.912L298.675 222.604C298.218 222.483 297.803 222.305 297.429 222.072C297.065 221.839 296.776 221.545 296.561 221.19C296.356 220.835 296.253 220.415 296.253 219.93C296.253 219.015 296.552 218.306 297.149 217.802C297.747 217.289 298.601 217.032 299.711 217.032C300.337 217.032 300.883 217.13 301.349 217.326C301.825 217.513 302.217 217.774 302.525 218.11C302.833 218.437 303.062 218.81 303.211 219.23L301.643 219.734C301.503 219.361 301.261 219.053 300.915 218.81C300.57 218.567 300.141 218.446 299.627 218.446C299.095 218.446 298.675 218.572 298.367 218.824C298.069 219.076 297.919 219.426 297.919 219.874C297.919 220.238 298.036 220.523 298.269 220.728C298.512 220.924 298.839 221.073 299.249 221.176L300.453 221.47C301.331 221.685 302.012 222.053 302.497 222.576C302.983 223.099 303.225 223.677 303.225 224.312C303.225 224.872 303.09 225.367 302.819 225.796C302.549 226.225 302.147 226.561 301.615 226.804C301.093 227.047 300.453 227.168 299.697 227.168ZM307.514 227.168C306.777 227.168 306.212 226.986 305.82 226.622C305.438 226.249 305.246 225.717 305.246 225.026V217.816H306.8V224.732C306.8 225.059 306.875 225.306 307.024 225.474C307.183 225.642 307.412 225.726 307.71 225.726C307.804 225.726 307.906 225.707 308.018 225.67C308.13 225.633 308.256 225.563 308.396 225.46L308.97 226.65C308.728 226.818 308.485 226.944 308.242 227.028C308 227.121 307.757 227.168 307.514 227.168ZM304.084 221.344V220H308.69V221.344H304.084ZM314.399 227L314.329 225.684V223.402C314.329 222.926 314.277 222.529 314.175 222.212C314.081 221.885 313.923 221.638 313.699 221.47C313.484 221.293 313.195 221.204 312.831 221.204C312.495 221.204 312.201 221.274 311.949 221.414C311.697 221.554 311.482 221.773 311.305 222.072L309.933 221.568C310.082 221.26 310.278 220.975 310.521 220.714C310.773 220.443 311.085 220.229 311.459 220.07C311.841 219.911 312.299 219.832 312.831 219.832C313.512 219.832 314.081 219.967 314.539 220.238C314.996 220.499 315.332 220.877 315.547 221.372C315.771 221.867 315.883 222.464 315.883 223.164L315.841 227H314.399ZM312.383 227.168C311.543 227.168 310.889 226.981 310.423 226.608C309.965 226.235 309.737 225.707 309.737 225.026C309.737 224.298 309.979 223.743 310.465 223.36C310.959 222.977 311.645 222.786 312.523 222.786H314.399V223.99H313.027C312.401 223.99 311.963 224.079 311.711 224.256C311.459 224.424 311.333 224.667 311.333 224.984C311.333 225.255 311.44 225.469 311.655 225.628C311.879 225.777 312.187 225.852 312.579 225.852C312.933 225.852 313.241 225.773 313.503 225.614C313.764 225.455 313.965 225.245 314.105 224.984C314.254 224.723 314.329 224.429 314.329 224.102H314.791C314.791 225.054 314.599 225.805 314.217 226.356C313.834 226.897 313.223 227.168 312.383 227.168ZM320.481 229.982C319.986 229.982 319.538 229.94 319.137 229.856C318.745 229.772 318.413 229.674 318.143 229.562C317.872 229.45 317.662 229.343 317.513 229.24L318.115 227.98C318.245 228.045 318.418 228.125 318.633 228.218C318.857 228.321 319.118 228.409 319.417 228.484C319.715 228.559 320.051 228.596 320.425 228.596C320.826 228.596 321.185 228.512 321.503 228.344C321.82 228.185 322.067 227.938 322.245 227.602C322.422 227.266 322.511 226.837 322.511 226.314V220H324.079V226.272C324.079 227.065 323.929 227.737 323.631 228.288C323.332 228.848 322.912 229.268 322.371 229.548C321.829 229.837 321.199 229.982 320.481 229.982ZM320.243 226.86C319.608 226.86 319.053 226.715 318.577 226.426C318.11 226.137 317.741 225.735 317.471 225.222C317.209 224.699 317.079 224.097 317.079 223.416C317.079 222.688 317.209 222.058 317.471 221.526C317.741 220.994 318.11 220.579 318.577 220.28C319.053 219.981 319.608 219.832 320.243 219.832C320.812 219.832 321.307 219.981 321.727 220.28C322.156 220.579 322.487 220.999 322.721 221.54C322.954 222.072 323.071 222.702 323.071 223.43C323.071 224.121 322.954 224.723 322.721 225.236C322.487 225.749 322.156 226.151 321.727 226.44C321.307 226.72 320.812 226.86 320.243 226.86ZM320.677 225.53C321.031 225.53 321.339 225.437 321.601 225.25C321.871 225.063 322.081 224.811 322.231 224.494C322.38 224.167 322.455 223.794 322.455 223.374C322.455 222.945 322.38 222.571 322.231 222.254C322.081 221.927 321.871 221.675 321.601 221.498C321.33 221.311 321.017 221.218 320.663 221.218C320.289 221.218 319.958 221.311 319.669 221.498C319.389 221.675 319.165 221.927 318.997 222.254C318.838 222.571 318.759 222.945 318.759 223.374C318.759 223.794 318.838 224.167 318.997 224.494C319.165 224.811 319.393 225.063 319.683 225.25C319.972 225.437 320.303 225.53 320.677 225.53ZM325.908 227V220H327.462V227H325.908ZM326.692 218.67C326.44 218.67 326.221 218.581 326.034 218.404C325.857 218.217 325.768 217.998 325.768 217.746C325.768 217.494 325.857 217.279 326.034 217.102C326.221 216.925 326.44 216.836 326.692 216.836C326.944 216.836 327.159 216.925 327.336 217.102C327.523 217.279 327.616 217.494 327.616 217.746C327.616 217.998 327.523 218.217 327.336 218.404C327.159 218.581 326.944 218.67 326.692 218.67ZM329.31 227V220H330.78L330.878 221.288V227H329.31ZM334.056 227V223.416H335.624V227H334.056ZM334.056 223.416C334.056 222.856 333.991 222.427 333.86 222.128C333.739 221.82 333.562 221.605 333.328 221.484C333.104 221.363 332.838 221.302 332.53 221.302C332.008 221.293 331.602 221.465 331.312 221.82C331.023 222.175 330.878 222.683 330.878 223.346H330.29C330.29 222.609 330.398 221.979 330.612 221.456C330.827 220.924 331.135 220.523 331.536 220.252C331.938 219.972 332.414 219.832 332.964 219.832C333.524 219.832 334 219.944 334.392 220.168C334.794 220.392 335.097 220.742 335.302 221.218C335.517 221.685 335.624 222.296 335.624 223.052V223.416H334.056ZM340.223 229.982C339.728 229.982 339.28 229.94 338.879 229.856C338.487 229.772 338.155 229.674 337.885 229.562C337.614 229.45 337.404 229.343 337.255 229.24L337.857 227.98C337.987 228.045 338.16 228.125 338.375 228.218C338.599 228.321 338.86 228.409 339.159 228.484C339.457 228.559 339.793 228.596 340.167 228.596C340.568 228.596 340.927 228.512 341.245 228.344C341.562 228.185 341.809 227.938 341.987 227.602C342.164 227.266 342.253 226.837 342.253 226.314V220H343.821V226.272C343.821 227.065 343.671 227.737 343.373 228.288C343.074 228.848 342.654 229.268 342.113 229.548C341.571 229.837 340.941 229.982 340.223 229.982ZM339.985 226.86C339.35 226.86 338.795 226.715 338.319 226.426C337.852 226.137 337.483 225.735 337.213 225.222C336.951 224.699 336.821 224.097 336.821 223.416C336.821 222.688 336.951 222.058 337.213 221.526C337.483 220.994 337.852 220.579 338.319 220.28C338.795 219.981 339.35 219.832 339.985 219.832C340.554 219.832 341.049 219.981 341.469 220.28C341.898 220.579 342.229 220.999 342.463 221.54C342.696 222.072 342.813 222.702 342.813 223.43C342.813 224.121 342.696 224.723 342.463 225.236C342.229 225.749 341.898 226.151 341.469 226.44C341.049 226.72 340.554 226.86 339.985 226.86ZM340.419 225.53C340.773 225.53 341.081 225.437 341.343 225.25C341.613 225.063 341.823 224.811 341.973 224.494C342.122 224.167 342.197 223.794 342.197 223.374C342.197 222.945 342.122 222.571 341.973 222.254C341.823 221.927 341.613 221.675 341.343 221.498C341.072 221.311 340.759 221.218 340.405 221.218C340.031 221.218 339.7 221.311 339.411 221.498C339.131 221.675 338.907 221.927 338.739 222.254C338.58 222.571 338.501 222.945 338.501 223.374C338.501 223.794 338.58 224.167 338.739 224.494C338.907 224.811 339.135 225.063 339.425 225.25C339.714 225.437 340.045 225.53 340.419 225.53Z" fill="#21333F"/>
<path d="M424 172.5H536C544.56 172.5 551.5 179.44 551.5 188V232C551.5 240.56 544.56 247.5 536 247.5H424C415.44 247.5 408.5 240.56 408.5 232V188C408.5 179.44 415.44 172.5 424 172.5Z" fill="white"/>
<path d="M424 172.5H536C544.56 172.5 551.5 179.44 551.5 188V232C551.5 240.56 544.56 247.5 536 247.5H424C415.44 247.5 408.5 240.56 408.5 232V188C408.5 179.44 415.44 172.5 424 172.5Z" stroke="#B6C9D8"/>
<mask id="mask0_12853_37714" style="mask-type:alpha" maskUnits="userSpaceOnUse" x="470" y="188" width="20" height="20">
<rect x="470" y="188" width="20" height="20" fill="#D9D9D9"/>
</mask>
<g mask="url(#mask0_12853_37714)">
<path d="M472.5 205C472.097 205 471.747 204.851 471.448 204.552C471.149 204.253 471 203.903 471 203.5V193.5H472.5V203.5H486V205H472.5ZM475.5 202C475.097 202 474.747 201.851 474.448 201.552C474.149 201.253 474 200.903 474 200.5V191.5C474 191.087 474.149 190.734 474.448 190.441C474.747 190.147 475.097 190 475.5 190H479.021L481.021 192H486.5C486.913 192 487.266 192.147 487.559 192.441C487.853 192.734 488 193.088 488 193.5V200.5C488 200.903 487.853 201.253 487.559 201.552C487.266 201.851 486.913 202 486.5 202H475.5ZM475.5 200.5H486.5V193.5H480.417L478.417 191.5H475.5V200.5Z" fill="#006590"/>
</g>
<path d="M466.793 227V217.2H472.883V218.684H468.417V221.428H472.239V222.912H468.417V227H466.793ZM474.294 227V220H475.848V227H474.294ZM475.078 218.67C474.826 218.67 474.607 218.581 474.42 218.404C474.243 218.217 474.154 217.998 474.154 217.746C474.154 217.494 474.243 217.279 474.42 217.102C474.607 216.925 474.826 216.836 475.078 216.836C475.33 216.836 475.545 216.925 475.722 217.102C475.909 217.279 476.002 217.494 476.002 217.746C476.002 217.998 475.909 218.217 475.722 218.404C475.545 218.581 475.33 218.67 475.078 218.67ZM477.696 227V217.2H479.264V227H477.696ZM484.127 227.168C483.445 227.168 482.839 227.014 482.307 226.706C481.784 226.389 481.369 225.955 481.061 225.404C480.762 224.853 480.613 224.219 480.613 223.5C480.613 222.781 480.767 222.147 481.075 221.596C481.383 221.045 481.803 220.616 482.335 220.308C482.876 219.991 483.492 219.832 484.183 219.832C484.808 219.832 485.373 219.995 485.877 220.322C486.381 220.639 486.777 221.101 487.067 221.708C487.365 222.315 487.515 223.038 487.515 223.878H482.013L482.223 223.682C482.223 224.111 482.316 224.485 482.503 224.802C482.689 225.11 482.937 225.348 483.245 225.516C483.553 225.684 483.893 225.768 484.267 225.768C484.696 225.768 485.051 225.675 485.331 225.488C485.611 225.292 485.83 225.04 485.989 224.732L487.375 225.32C487.179 225.693 486.927 226.02 486.619 226.3C486.32 226.58 485.961 226.795 485.541 226.944C485.13 227.093 484.659 227.168 484.127 227.168ZM482.321 222.87L482.097 222.674H486.045L485.835 222.87C485.835 222.487 485.751 222.175 485.583 221.932C485.415 221.68 485.2 221.493 484.939 221.372C484.687 221.241 484.421 221.176 484.141 221.176C483.861 221.176 483.581 221.241 483.301 221.372C483.021 221.493 482.787 221.68 482.601 221.932C482.414 222.175 482.321 222.487 482.321 222.87ZM491.264 227.168C490.797 227.168 490.368 227.098 489.976 226.958C489.584 226.818 489.248 226.622 488.968 226.37C488.688 226.109 488.473 225.805 488.324 225.46L489.682 224.858C489.822 225.119 490.027 225.339 490.298 225.516C490.578 225.693 490.886 225.782 491.222 225.782C491.586 225.782 491.875 225.721 492.09 225.6C492.314 225.469 492.426 225.292 492.426 225.068C492.426 224.853 492.342 224.69 492.174 224.578C492.006 224.457 491.768 224.359 491.46 224.284L490.802 224.102C490.139 223.934 489.621 223.668 489.248 223.304C488.874 222.931 488.688 222.506 488.688 222.03C488.688 221.33 488.912 220.789 489.36 220.406C489.817 220.023 490.47 219.832 491.32 219.832C491.749 219.832 492.141 219.897 492.496 220.028C492.86 220.149 493.172 220.327 493.434 220.56C493.695 220.784 493.877 221.05 493.98 221.358L492.678 221.946C492.584 221.713 492.407 221.535 492.146 221.414C491.884 221.283 491.595 221.218 491.278 221.218C490.96 221.218 490.713 221.288 490.536 221.428C490.358 221.559 490.27 221.745 490.27 221.988C490.27 222.128 490.349 222.259 490.508 222.38C490.666 222.492 490.895 222.585 491.194 222.66L492.02 222.856C492.477 222.968 492.85 223.145 493.14 223.388C493.429 223.621 493.644 223.887 493.784 224.186C493.924 224.475 493.994 224.769 493.994 225.068C493.994 225.488 493.872 225.857 493.63 226.174C493.396 226.491 493.074 226.739 492.664 226.916C492.253 227.084 491.786 227.168 491.264 227.168Z" fill="#21333F"/>
<defs>
<filter id="filter0_dd_12853_37714" x="162.5" y="0" width="411" height="276" filterUnits="userSpaceOnUse" color-interpolation-filters="sRGB">
<feFlood flood-opacity="0" result="BackgroundImageFix"/>
<feColorMatrix in="SourceAlpha" type="matrix" values="0 0 0 0 0 0 0 0 0 0 0 0 0 0 0 0 0 0 127 0" result="hardAlpha"/>
<feOffset dx="48" dy="48"/>
<feGaussianBlur stdDeviation="48"/>
<feColorMatrix type="matrix" values="0 0 0 0 0 0 0 0 0 0.396078 0 0 0 0 0.564706 0 0 0 0.12 0"/>
<feBlend mode="normal" in2="BackgroundImageFix" result="effect1_dropShadow_12853_37714"/>
<feColorMatrix in="SourceAlpha" type="matrix" values="0 0 0 0 0 0 0 0 0 0 0 0 0 0 0 0 0 0 127 0" result="hardAlpha"/>
<feMorphology radius="1" operator="dilate" in="SourceAlpha" result="effect2_dropShadow_12853_37714"/>
<feOffset/>
<feColorMatrix type="matrix" values="0 0 0 0 0 0 0 0 0 0 0 0 0 0 0 0 0 0 0.12 0"/>
<feBlend mode="normal" in2="effect1_dropShadow_12853_37714" result="effect2_dropShadow_12853_37714"/>
<feBlend mode="normal" in="SourceGraphic" in2="effect2_dropShadow_12853_37714" result="shape"/>
</filter>
<radialGradient id="paint0_radial_12853_37714" cx="0" cy="0" r="1" gradientUnits="userSpaceOnUse" gradientTransform="translate(210.5 48) rotate(20.9849) scale(234.557 347.663)">
<stop stop-color="#87CEFF" stop-opacity="0"/>
<stop offset="1" stop-color="#87CEFF"/>
</radialGradient>
<clipPath id="clip0_12853_37714">
<rect x="210.5" y="48" width="219" height="84" rx="24" fill="white"/>
</clipPath>
</defs>
</svg>
