<svg width="640" height="360" viewBox="0 0 640 360" fill="none" xmlns="http://www.w3.org/2000/svg">
<g filter="url(#filter0_dd_12853_37685)">
<g clip-path="url(#clip0_12853_37685)">
<rect x="204" y="48" width="232" height="84" rx="24" fill="white"/>
<rect opacity="0.16" x="204" y="48" width="232" height="84" fill="url(#paint0_radial_12853_37685)"/>
<rect x="320" y="74.5" width="84" height="31" rx="5.5" fill="#FFEBF7" stroke="#FFADF3"/>
<path d="M241.405 101.047C240.734 101.047 240.126 100.99 239.581 100.876C239.049 100.762 238.599 100.629 238.232 100.477C237.865 100.325 237.58 100.179 237.377 100.04L238.194 98.33C238.371 98.4187 238.606 98.5263 238.897 98.653C239.201 98.7923 239.556 98.9127 239.961 99.014C240.366 99.1153 240.822 99.166 241.329 99.166C241.874 99.166 242.361 99.052 242.792 98.824C243.223 98.6087 243.558 98.273 243.799 97.817C244.04 97.361 244.16 96.7783 244.16 96.069V87.5H246.288V96.012C246.288 97.0887 246.085 98.0007 245.68 98.748C245.275 99.508 244.705 100.078 243.97 100.458C243.235 100.851 242.38 101.047 241.405 101.047ZM241.082 96.81C240.221 96.81 239.467 96.6137 238.821 96.221C238.188 95.8283 237.687 95.2837 237.32 94.587C236.965 93.8777 236.788 93.0607 236.788 92.136C236.788 91.148 236.965 90.293 237.32 89.571C237.687 88.849 238.188 88.2853 238.821 87.88C239.467 87.4747 240.221 87.272 241.082 87.272C241.855 87.272 242.526 87.4747 243.096 87.88C243.679 88.2853 244.128 88.8553 244.445 89.59C244.762 90.312 244.92 91.167 244.92 92.155C244.92 93.0923 244.762 93.9093 244.445 94.606C244.128 95.3027 243.679 95.8473 243.096 96.24C242.526 96.62 241.855 96.81 241.082 96.81ZM241.671 95.005C242.152 95.005 242.57 94.8783 242.925 94.625C243.292 94.3717 243.577 94.0297 243.78 93.599C243.983 93.1557 244.084 92.649 244.084 92.079C244.084 91.4963 243.983 90.9897 243.78 90.559C243.577 90.1157 243.292 89.7737 242.925 89.533C242.558 89.2797 242.133 89.153 241.652 89.153C241.145 89.153 240.696 89.2797 240.303 89.533C239.923 89.7737 239.619 90.1157 239.391 90.559C239.176 90.9897 239.068 91.4963 239.068 92.079C239.068 92.649 239.176 93.1557 239.391 93.599C239.619 94.0297 239.929 94.3717 240.322 94.625C240.715 94.8783 241.164 95.005 241.671 95.005ZM248.771 97V87.5H250.88V97H248.771ZM249.835 85.695C249.493 85.695 249.196 85.5747 248.942 85.334C248.702 85.0807 248.581 84.783 248.581 84.441C248.581 84.099 248.702 83.8077 248.942 83.567C249.196 83.3263 249.493 83.206 249.835 83.206C250.177 83.206 250.469 83.3263 250.709 83.567C250.963 83.8077 251.089 84.099 251.089 84.441C251.089 84.783 250.963 85.0807 250.709 85.334C250.469 85.5747 250.177 85.695 249.835 85.695ZM257.169 97.228C256.169 97.228 255.402 96.981 254.87 96.487C254.351 95.9803 254.091 95.2583 254.091 94.321V84.536H256.2V93.922C256.2 94.3653 256.302 94.701 256.504 94.929C256.72 95.157 257.03 95.271 257.435 95.271C257.562 95.271 257.701 95.2457 257.853 95.195C258.005 95.1443 258.176 95.0493 258.366 94.91L259.145 96.525C258.816 96.753 258.487 96.924 258.157 97.038C257.828 97.1647 257.499 97.228 257.169 97.228ZM252.514 89.324V87.5H258.765V89.324H252.514ZM266.836 91.946C266.836 90.92 267.033 90.0777 267.425 89.419C267.818 88.7603 268.325 88.2727 268.945 87.956C269.579 87.6267 270.237 87.462 270.921 87.462V89.495C270.339 89.495 269.788 89.5773 269.268 89.742C268.762 89.894 268.35 90.1473 268.033 90.502C267.717 90.8567 267.558 91.3253 267.558 91.908L266.836 91.946ZM265.43 97V87.5H267.558V97H265.43ZM276.57 97.228C275.645 97.228 274.822 97.019 274.1 96.601C273.39 96.1703 272.827 95.5813 272.409 94.834C272.003 94.0867 271.801 93.2253 271.801 92.25C271.801 91.2747 272.01 90.4133 272.428 89.666C272.846 88.9187 273.416 88.336 274.138 87.918C274.872 87.4873 275.708 87.272 276.646 87.272C277.494 87.272 278.261 87.4937 278.945 87.937C279.629 88.3677 280.167 88.9947 280.56 89.818C280.965 90.6413 281.168 91.623 281.168 92.763H273.701L273.986 92.497C273.986 93.0797 274.112 93.5863 274.366 94.017C274.619 94.435 274.955 94.758 275.373 94.986C275.791 95.214 276.253 95.328 276.76 95.328C277.342 95.328 277.824 95.2013 278.204 94.948C278.584 94.682 278.881 94.34 279.097 93.922L280.978 94.72C280.712 95.2267 280.37 95.67 279.952 96.05C279.546 96.43 279.059 96.7213 278.489 96.924C277.931 97.1267 277.292 97.228 276.57 97.228ZM274.119 91.395L273.815 91.129H279.173L278.888 91.395C278.888 90.8757 278.774 90.4513 278.546 90.122C278.318 89.78 278.026 89.5267 277.672 89.362C277.33 89.1847 276.969 89.096 276.589 89.096C276.209 89.096 275.829 89.1847 275.449 89.362C275.069 89.5267 274.752 89.78 274.499 90.122C274.245 90.4513 274.119 90.8757 274.119 91.395ZM286.256 97.228C285.622 97.228 285.04 97.133 284.508 96.943C283.976 96.753 283.52 96.487 283.14 96.145C282.76 95.7903 282.468 95.3787 282.266 94.91L284.109 94.093C284.299 94.4477 284.577 94.7453 284.945 94.986C285.325 95.2267 285.743 95.347 286.199 95.347C286.693 95.347 287.085 95.2647 287.377 95.1C287.681 94.9227 287.833 94.682 287.833 94.378C287.833 94.0867 287.719 93.865 287.491 93.713C287.263 93.5483 286.94 93.4153 286.522 93.314L285.629 93.067C284.729 92.839 284.026 92.478 283.52 91.984C283.013 91.4773 282.76 90.901 282.76 90.255C282.76 89.305 283.064 88.5703 283.672 88.051C284.292 87.5317 285.179 87.272 286.332 87.272C286.914 87.272 287.446 87.3607 287.928 87.538C288.422 87.7027 288.846 87.9433 289.201 88.26C289.555 88.564 289.802 88.925 289.942 89.343L288.175 90.141C288.048 89.8243 287.807 89.5837 287.453 89.419C287.098 89.2417 286.705 89.153 286.275 89.153C285.844 89.153 285.508 89.248 285.268 89.438C285.027 89.6153 284.907 89.8687 284.907 90.198C284.907 90.388 285.014 90.5653 285.23 90.73C285.445 90.882 285.755 91.0087 286.161 91.11L287.282 91.376C287.902 91.528 288.409 91.7687 288.802 92.098C289.194 92.4147 289.486 92.7757 289.676 93.181C289.866 93.5737 289.961 93.9727 289.961 94.378C289.961 94.948 289.796 95.4483 289.467 95.879C289.15 96.3097 288.713 96.6453 288.156 96.886C287.598 97.114 286.965 97.228 286.256 97.228ZM295.885 97.228C294.961 97.228 294.137 97.019 293.415 96.601C292.706 96.1703 292.142 95.5813 291.724 94.834C291.319 94.0867 291.116 93.2253 291.116 92.25C291.116 91.2747 291.325 90.4133 291.743 89.666C292.161 88.9187 292.731 88.336 293.453 87.918C294.188 87.4873 295.024 87.272 295.961 87.272C296.81 87.272 297.576 87.4937 298.26 87.937C298.944 88.3677 299.483 88.9947 299.875 89.818C300.281 90.6413 300.483 91.623 300.483 92.763H293.016L293.301 92.497C293.301 93.0797 293.428 93.5863 293.681 94.017C293.935 94.435 294.27 94.758 294.688 94.986C295.106 95.214 295.569 95.328 296.075 95.328C296.658 95.328 297.139 95.2013 297.519 94.948C297.899 94.682 298.197 94.34 298.412 93.922L300.293 94.72C300.027 95.2267 299.685 95.67 299.267 96.05C298.862 96.43 298.374 96.7213 297.804 96.924C297.247 97.1267 296.607 97.228 295.885 97.228ZM293.434 91.395L293.13 91.129H298.488L298.203 91.395C298.203 90.8757 298.089 90.4513 297.861 90.122C297.633 89.78 297.342 89.5267 296.987 89.362C296.645 89.1847 296.284 89.096 295.904 89.096C295.524 89.096 295.144 89.1847 294.764 89.362C294.384 89.5267 294.068 89.78 293.814 90.122C293.561 90.4513 293.434 90.8757 293.434 91.395ZM305.894 97.228C304.893 97.228 304.127 96.981 303.595 96.487C303.076 95.9803 302.816 95.2583 302.816 94.321V84.536H304.925V93.922C304.925 94.3653 305.026 94.701 305.229 94.929C305.444 95.157 305.755 95.271 306.16 95.271C306.287 95.271 306.426 95.2457 306.578 95.195C306.73 95.1443 306.901 95.0493 307.091 94.91L307.87 96.525C307.541 96.753 307.211 96.924 306.882 97.038C306.553 97.1647 306.223 97.228 305.894 97.228ZM301.239 89.324V87.5H307.49V89.324H301.239Z" fill="#006590"/>
<path d="M327.79 92.269V90.426H333.49V92.269H327.79ZM335.602 92.269V90.426H341.302V92.269H335.602ZM343.527 97V87.5H345.522L345.617 88.773C345.908 88.279 346.282 87.9053 346.738 87.652C347.194 87.3987 347.713 87.272 348.296 87.272C349.056 87.272 349.702 87.443 350.234 87.785C350.766 88.127 351.152 88.6463 351.393 89.343C351.672 88.6717 352.064 88.1587 352.571 87.804C353.078 87.4493 353.673 87.272 354.357 87.272C355.459 87.272 356.308 87.6267 356.903 88.336C357.498 89.0327 357.79 90.1093 357.777 91.566V97H355.668V92.136C355.668 91.376 355.586 90.7933 355.421 90.388C355.256 89.97 355.035 89.6787 354.756 89.514C354.477 89.3493 354.154 89.267 353.787 89.267C353.128 89.2543 352.615 89.4887 352.248 89.97C351.893 90.4513 351.716 91.1417 351.716 92.041V97H349.588V92.136C349.588 91.376 349.506 90.7933 349.341 90.388C349.189 89.97 348.974 89.6787 348.695 89.514C348.416 89.3493 348.093 89.267 347.726 89.267C347.067 89.2543 346.554 89.4887 346.187 89.97C345.832 90.4513 345.655 91.1417 345.655 92.041V97H343.527ZM360.081 97V87.5H362.19V97H360.081ZM361.145 85.695C360.803 85.695 360.505 85.5747 360.252 85.334C360.011 85.0807 359.891 84.783 359.891 84.441C359.891 84.099 360.011 83.8077 360.252 83.567C360.505 83.3263 360.803 83.206 361.145 83.206C361.487 83.206 361.778 83.3263 362.019 83.567C362.272 83.8077 362.399 84.099 362.399 84.441C362.399 84.783 362.272 85.0807 362.019 85.334C361.778 85.5747 361.487 85.695 361.145 85.695ZM363.71 97L367.605 91.566L370.322 87.5H372.83L369.125 92.744L366.256 97H363.71ZM370.531 97L367.719 92.744L363.957 87.5H366.465L369.201 91.566L373.058 97H370.531ZM378.416 97.228C377.492 97.228 376.668 97.019 375.946 96.601C375.237 96.1703 374.673 95.5813 374.255 94.834C373.85 94.0867 373.647 93.2253 373.647 92.25C373.647 91.2747 373.856 90.4133 374.274 89.666C374.692 88.9187 375.262 88.336 375.984 87.918C376.719 87.4873 377.555 87.272 378.492 87.272C379.341 87.272 380.107 87.4937 380.791 87.937C381.475 88.3677 382.014 88.9947 382.406 89.818C382.812 90.6413 383.014 91.623 383.014 92.763H375.547L375.832 92.497C375.832 93.0797 375.959 93.5863 376.212 94.017C376.466 94.435 376.801 94.758 377.219 94.986C377.637 95.214 378.1 95.328 378.606 95.328C379.189 95.328 379.67 95.2013 380.05 94.948C380.43 94.682 380.728 94.34 380.943 93.922L382.824 94.72C382.558 95.2267 382.216 95.67 381.798 96.05C381.393 96.43 380.905 96.7213 380.335 96.924C379.778 97.1267 379.138 97.228 378.416 97.228ZM375.965 91.395L375.661 91.129H381.019L380.734 91.395C380.734 90.8757 380.62 90.4513 380.392 90.122C380.164 89.78 379.873 89.5267 379.518 89.362C379.176 89.1847 378.815 89.096 378.435 89.096C378.055 89.096 377.675 89.1847 377.295 89.362C376.915 89.5267 376.599 89.78 376.345 90.122C376.092 90.4513 375.965 90.8757 375.965 91.395ZM391.503 97L391.408 95.233V83.7H393.517V97H391.503ZM388.406 97.228C387.545 97.228 386.791 97.0253 386.145 96.62C385.512 96.202 385.012 95.6193 384.644 94.872C384.29 94.1247 384.112 93.2507 384.112 92.25C384.112 91.2367 384.29 90.3627 384.644 89.628C385.012 88.8807 385.512 88.3043 386.145 87.899C386.791 87.481 387.545 87.272 388.406 87.272C389.204 87.272 389.888 87.481 390.458 87.899C391.041 88.3043 391.484 88.8807 391.788 89.628C392.092 90.3627 392.244 91.2367 392.244 92.25C392.244 93.2507 392.092 94.1247 391.788 94.872C391.484 95.6193 391.041 96.202 390.458 96.62C389.888 97.0253 389.204 97.228 388.406 97.228ZM388.938 95.29C389.42 95.29 389.844 95.1633 390.211 94.91C390.591 94.644 390.883 94.283 391.085 93.827C391.301 93.371 391.408 92.8453 391.408 92.25C391.408 91.6547 391.301 91.129 391.085 90.673C390.883 90.217 390.591 89.8623 390.211 89.609C389.844 89.3557 389.413 89.229 388.919 89.229C388.413 89.229 387.963 89.3557 387.57 89.609C387.178 89.8623 386.867 90.217 386.639 90.673C386.424 91.129 386.31 91.6547 386.297 92.25C386.31 92.8453 386.424 93.371 386.639 93.827C386.867 94.283 387.178 94.644 387.57 94.91C387.976 95.1633 388.432 95.29 388.938 95.29Z" fill="#531350"/>
</g>
</g>
<path d="M88 276C88 267.163 95.1634 260 104 260H216C224.837 260 232 267.163 232 276V300C232 308.837 224.837 316 216 316H104C95.1634 316 88 308.837 88 300V276Z" fill="#F2F8FF"/>
<path d="M122.612 285V275.9H124.224L127.084 280.112L129.918 275.9H131.543V285H130.035V278.279L127.071 282.66L124.12 278.305V285H122.612ZM136.412 285.156C135.762 285.156 135.182 285.013 134.67 284.727C134.168 284.432 133.773 284.029 133.487 283.518C133.201 283.007 133.058 282.417 133.058 281.75C133.058 281.083 133.197 280.493 133.474 279.982C133.76 279.471 134.155 279.072 134.657 278.786C135.16 278.491 135.736 278.344 136.386 278.344C137.036 278.344 137.613 278.491 138.115 278.786C138.618 279.072 139.008 279.471 139.285 279.982C139.571 280.493 139.714 281.083 139.714 281.75C139.714 282.417 139.576 283.007 139.298 283.518C139.021 284.029 138.631 284.432 138.128 284.727C137.626 285.013 137.054 285.156 136.412 285.156ZM136.412 283.817C136.768 283.817 137.084 283.73 137.361 283.557C137.639 283.375 137.855 283.132 138.011 282.829C138.167 282.517 138.245 282.157 138.245 281.75C138.245 281.343 138.163 280.987 137.998 280.684C137.842 280.372 137.626 280.129 137.348 279.956C137.071 279.774 136.75 279.683 136.386 279.683C136.022 279.683 135.702 279.77 135.424 279.943C135.147 280.116 134.93 280.359 134.774 280.671C134.618 280.983 134.54 281.343 134.54 281.75C134.54 282.157 134.618 282.517 134.774 282.829C134.939 283.132 135.16 283.375 135.437 283.557C135.723 283.73 136.048 283.817 136.412 283.817ZM142.828 285L145.363 278.5H146.871L144.193 285H142.828ZM142.724 285L140.033 278.5H141.528L144.076 285H142.724ZM150.502 285.156C149.869 285.156 149.306 285.013 148.812 284.727C148.327 284.432 147.941 284.029 147.655 283.518C147.378 283.007 147.239 282.417 147.239 281.75C147.239 281.083 147.382 280.493 147.668 279.982C147.954 279.471 148.344 279.072 148.838 278.786C149.341 278.491 149.913 278.344 150.554 278.344C151.135 278.344 151.659 278.496 152.127 278.799C152.595 279.094 152.963 279.523 153.232 280.086C153.509 280.649 153.648 281.321 153.648 282.101H148.539L148.734 281.919C148.734 282.318 148.821 282.664 148.994 282.959C149.167 283.245 149.397 283.466 149.683 283.622C149.969 283.778 150.285 283.856 150.632 283.856C151.031 283.856 151.36 283.769 151.62 283.596C151.88 283.414 152.084 283.18 152.231 282.894L153.518 283.44C153.336 283.787 153.102 284.09 152.816 284.35C152.539 284.61 152.205 284.809 151.815 284.948C151.434 285.087 150.996 285.156 150.502 285.156ZM148.825 281.165L148.617 280.983H152.283L152.088 281.165C152.088 280.81 152.01 280.519 151.854 280.294C151.698 280.06 151.499 279.887 151.256 279.774C151.022 279.653 150.775 279.592 150.515 279.592C150.255 279.592 149.995 279.653 149.735 279.774C149.475 279.887 149.258 280.06 149.085 280.294C148.912 280.519 148.825 280.81 148.825 281.165ZM157.129 285.156C156.696 285.156 156.297 285.091 155.933 284.961C155.569 284.831 155.257 284.649 154.997 284.415C154.737 284.172 154.538 283.891 154.399 283.57L155.66 283.011C155.79 283.254 155.981 283.457 156.232 283.622C156.492 283.787 156.778 283.869 157.09 283.869C157.428 283.869 157.697 283.813 157.896 283.7C158.104 283.579 158.208 283.414 158.208 283.206C158.208 283.007 158.13 282.855 157.974 282.751C157.818 282.638 157.597 282.547 157.311 282.478L156.7 282.309C156.085 282.153 155.604 281.906 155.257 281.568C154.91 281.221 154.737 280.827 154.737 280.385C154.737 279.735 154.945 279.232 155.361 278.877C155.786 278.522 156.392 278.344 157.181 278.344C157.58 278.344 157.944 278.405 158.273 278.526C158.611 278.639 158.901 278.803 159.144 279.02C159.387 279.228 159.556 279.475 159.651 279.761L158.442 280.307C158.355 280.09 158.191 279.926 157.948 279.813C157.705 279.692 157.437 279.631 157.142 279.631C156.847 279.631 156.618 279.696 156.453 279.826C156.288 279.947 156.206 280.121 156.206 280.346C156.206 280.476 156.28 280.597 156.427 280.71C156.574 280.814 156.787 280.901 157.064 280.97L157.831 281.152C158.256 281.256 158.602 281.421 158.871 281.646C159.14 281.863 159.339 282.11 159.469 282.387C159.599 282.656 159.664 282.929 159.664 283.206C159.664 283.596 159.551 283.938 159.326 284.233C159.109 284.528 158.81 284.757 158.429 284.922C158.048 285.078 157.614 285.156 157.129 285.156ZM166.541 285.156C165.857 285.156 165.332 284.987 164.968 284.649C164.613 284.302 164.435 283.808 164.435 283.167V276.472H165.878V282.894C165.878 283.197 165.948 283.427 166.086 283.583C166.234 283.739 166.446 283.817 166.723 283.817C166.81 283.817 166.905 283.8 167.009 283.765C167.113 283.73 167.23 283.665 167.36 283.57L167.893 284.675C167.668 284.831 167.443 284.948 167.217 285.026C166.992 285.113 166.767 285.156 166.541 285.156ZM163.356 279.748V278.5H167.633V279.748H163.356ZM171.959 285.156C171.309 285.156 170.728 285.013 170.217 284.727C169.714 284.432 169.32 284.029 169.034 283.518C168.748 283.007 168.605 282.417 168.605 281.75C168.605 281.083 168.744 280.493 169.021 279.982C169.307 279.471 169.701 279.072 170.204 278.786C170.707 278.491 171.283 278.344 171.933 278.344C172.583 278.344 173.159 278.491 173.662 278.786C174.165 279.072 174.555 279.471 174.832 279.982C175.118 280.493 175.261 281.083 175.261 281.75C175.261 282.417 175.122 283.007 174.845 283.518C174.568 284.029 174.178 284.432 173.675 284.727C173.172 285.013 172.6 285.156 171.959 285.156ZM171.959 283.817C172.314 283.817 172.631 283.73 172.908 283.557C173.185 283.375 173.402 283.132 173.558 282.829C173.714 282.517 173.792 282.157 173.792 281.75C173.792 281.343 173.71 280.987 173.545 280.684C173.389 280.372 173.172 280.129 172.895 279.956C172.618 279.774 172.297 279.683 171.933 279.683C171.569 279.683 171.248 279.77 170.971 279.943C170.694 280.116 170.477 280.359 170.321 280.671C170.165 280.983 170.087 281.343 170.087 281.75C170.087 282.157 170.165 282.517 170.321 282.829C170.486 283.132 170.707 283.375 170.984 283.557C171.27 283.73 171.595 283.817 171.959 283.817ZM182.246 285.156C181.561 285.156 181.037 284.987 180.673 284.649C180.317 284.302 180.14 283.808 180.14 283.167V276.472H181.583V282.894C181.583 283.197 181.652 283.427 181.791 283.583C181.938 283.739 182.15 283.817 182.428 283.817C182.514 283.817 182.61 283.8 182.714 283.765C182.818 283.73 182.935 283.665 183.065 283.57L183.598 284.675C183.372 284.831 183.147 284.948 182.922 285.026C182.696 285.113 182.471 285.156 182.246 285.156ZM179.061 279.748V278.5H183.338V279.748H179.061ZM184.775 285V275.9H186.231V285H184.775ZM189.182 285V281.672H190.638V285H189.182ZM189.182 281.672C189.182 281.152 189.121 280.753 189 280.476C188.879 280.19 188.71 279.991 188.493 279.878C188.285 279.765 188.042 279.709 187.765 279.709C187.271 279.7 186.89 279.861 186.621 280.19C186.361 280.519 186.231 280.992 186.231 281.607H185.672C185.672 280.922 185.772 280.337 185.971 279.852C186.179 279.358 186.469 278.985 186.842 278.734C187.215 278.474 187.657 278.344 188.168 278.344C188.679 278.344 189.121 278.448 189.494 278.656C189.867 278.864 190.148 279.189 190.339 279.631C190.538 280.064 190.638 280.632 190.638 281.334V281.672H189.182ZM195.012 285.156C194.379 285.156 193.816 285.013 193.322 284.727C192.836 284.432 192.451 284.029 192.165 283.518C191.887 283.007 191.749 282.417 191.749 281.75C191.749 281.083 191.892 280.493 192.178 279.982C192.464 279.471 192.854 279.072 193.348 278.786C193.85 278.491 194.422 278.344 195.064 278.344C195.644 278.344 196.169 278.496 196.637 278.799C197.105 279.094 197.473 279.523 197.742 280.086C198.019 280.649 198.158 281.321 198.158 282.101H193.049L193.244 281.919C193.244 282.318 193.33 282.664 193.504 282.959C193.677 283.245 193.907 283.466 194.193 283.622C194.479 283.778 194.795 283.856 195.142 283.856C195.54 283.856 195.87 283.769 196.13 283.596C196.39 283.414 196.593 283.18 196.741 282.894L198.028 283.44C197.846 283.787 197.612 284.09 197.326 284.35C197.048 284.61 196.715 284.809 196.325 284.948C195.943 285.087 195.506 285.156 195.012 285.156ZM193.335 281.165L193.127 280.983H196.793L196.598 281.165C196.598 280.81 196.52 280.519 196.364 280.294C196.208 280.06 196.008 279.887 195.766 279.774C195.532 279.653 195.285 279.592 195.025 279.592C194.765 279.592 194.505 279.653 194.245 279.774C193.985 279.887 193.768 280.06 193.595 280.294C193.421 280.519 193.335 280.81 193.335 281.165ZM111.693 301.156C111.259 301.156 110.861 301.091 110.497 300.961C110.133 300.831 109.821 300.649 109.561 300.415C109.301 300.172 109.101 299.891 108.963 299.57L110.224 299.011C110.354 299.254 110.544 299.457 110.796 299.622C111.056 299.787 111.342 299.869 111.654 299.869C111.992 299.869 112.26 299.813 112.46 299.7C112.668 299.579 112.772 299.414 112.772 299.206C112.772 299.007 112.694 298.855 112.538 298.751C112.382 298.638 112.161 298.547 111.875 298.478L111.264 298.309C110.648 298.153 110.167 297.906 109.821 297.568C109.474 297.221 109.301 296.827 109.301 296.385C109.301 295.735 109.509 295.232 109.925 294.877C110.349 294.522 110.956 294.344 111.745 294.344C112.143 294.344 112.507 294.405 112.837 294.526C113.175 294.639 113.465 294.803 113.708 295.02C113.95 295.228 114.119 295.475 114.215 295.761L113.006 296.307C112.919 296.09 112.754 295.926 112.512 295.813C112.269 295.692 112 295.631 111.706 295.631C111.411 295.631 111.181 295.696 111.017 295.826C110.852 295.947 110.77 296.121 110.77 296.346C110.77 296.476 110.843 296.597 110.991 296.71C111.138 296.814 111.35 296.901 111.628 296.97L112.395 297.152C112.819 297.256 113.166 297.421 113.435 297.646C113.703 297.863 113.903 298.11 114.033 298.387C114.163 298.656 114.228 298.929 114.228 299.206C114.228 299.596 114.115 299.938 113.89 300.233C113.673 300.528 113.374 300.757 112.993 300.922C112.611 301.078 112.178 301.156 111.693 301.156ZM115.447 303.6V294.5H116.812L116.903 295.696V303.6H115.447ZM118.957 301.156C118.411 301.156 117.939 301.017 117.54 300.74C117.15 300.454 116.851 300.055 116.643 299.544C116.435 299.033 116.331 298.435 116.331 297.75C116.331 297.057 116.435 296.459 116.643 295.956C116.851 295.445 117.15 295.05 117.54 294.773C117.939 294.487 118.411 294.344 118.957 294.344C119.547 294.344 120.058 294.487 120.491 294.773C120.933 295.05 121.276 295.445 121.518 295.956C121.77 296.459 121.895 297.057 121.895 297.75C121.895 298.435 121.77 299.033 121.518 299.544C121.276 300.055 120.933 300.454 120.491 300.74C120.058 301.017 119.547 301.156 118.957 301.156ZM118.593 299.83C118.94 299.83 119.248 299.743 119.516 299.57C119.785 299.388 119.997 299.141 120.153 298.829C120.318 298.517 120.4 298.157 120.4 297.75C120.4 297.343 120.322 296.983 120.166 296.671C120.019 296.359 119.811 296.116 119.542 295.943C119.274 295.77 118.962 295.683 118.606 295.683C118.277 295.683 117.982 295.77 117.722 295.943C117.462 296.116 117.259 296.359 117.111 296.671C116.973 296.983 116.903 297.343 116.903 297.75C116.903 298.157 116.973 298.517 117.111 298.829C117.259 299.141 117.458 299.388 117.709 299.57C117.969 299.743 118.264 299.83 118.593 299.83ZM126.038 301.156C125.405 301.156 124.842 301.013 124.348 300.727C123.863 300.432 123.477 300.029 123.191 299.518C122.914 299.007 122.775 298.417 122.775 297.75C122.775 297.083 122.918 296.493 123.204 295.982C123.49 295.471 123.88 295.072 124.374 294.786C124.877 294.491 125.449 294.344 126.09 294.344C126.671 294.344 127.195 294.496 127.663 294.799C128.131 295.094 128.499 295.523 128.768 296.086C129.045 296.649 129.184 297.321 129.184 298.101H124.075L124.27 297.919C124.27 298.318 124.357 298.664 124.53 298.959C124.703 299.245 124.933 299.466 125.219 299.622C125.505 299.778 125.821 299.856 126.168 299.856C126.567 299.856 126.896 299.769 127.156 299.596C127.416 299.414 127.62 299.18 127.767 298.894L129.054 299.44C128.872 299.787 128.638 300.09 128.352 300.35C128.075 300.61 127.741 300.809 127.351 300.948C126.97 301.087 126.532 301.156 126.038 301.156ZM124.361 297.165L124.153 296.983H127.819L127.624 297.165C127.624 296.81 127.546 296.519 127.39 296.294C127.234 296.06 127.035 295.887 126.792 295.774C126.558 295.653 126.311 295.592 126.051 295.592C125.791 295.592 125.531 295.653 125.271 295.774C125.011 295.887 124.794 296.06 124.621 296.294C124.448 296.519 124.361 296.81 124.361 297.165ZM133.341 301.156C132.674 301.156 132.084 301.013 131.573 300.727C131.062 300.432 130.659 300.029 130.364 299.518C130.078 299.007 129.935 298.417 129.935 297.75C129.935 297.083 130.078 296.493 130.364 295.982C130.659 295.471 131.057 295.072 131.56 294.786C132.071 294.491 132.656 294.344 133.315 294.344C133.956 294.344 134.537 294.5 135.057 294.812C135.577 295.115 135.963 295.553 136.214 296.125L134.862 296.645C134.723 296.359 134.511 296.129 134.225 295.956C133.939 295.783 133.614 295.696 133.25 295.696C132.895 295.696 132.578 295.787 132.301 295.969C132.024 296.142 131.807 296.385 131.651 296.697C131.495 297 131.417 297.351 131.417 297.75C131.417 298.149 131.495 298.504 131.651 298.816C131.816 299.119 132.037 299.362 132.314 299.544C132.6 299.717 132.921 299.804 133.276 299.804C133.64 299.804 133.965 299.713 134.251 299.531C134.537 299.34 134.749 299.085 134.888 298.764L136.24 299.284C135.989 299.873 135.603 300.333 135.083 300.662C134.572 300.991 133.991 301.156 133.341 301.156ZM137.461 301V294.5H138.904V301H137.461ZM138.189 293.265C137.955 293.265 137.752 293.183 137.578 293.018C137.414 292.845 137.331 292.641 137.331 292.407C137.331 292.173 137.414 291.974 137.578 291.809C137.752 291.644 137.955 291.562 138.189 291.562C138.423 291.562 138.623 291.644 138.787 291.809C138.961 291.974 139.047 292.173 139.047 292.407C139.047 292.641 138.961 292.845 138.787 293.018C138.623 293.183 138.423 293.265 138.189 293.265ZM141.27 301V293.811C141.27 293.126 141.439 292.602 141.777 292.238C142.124 291.865 142.644 291.679 143.337 291.679C143.563 291.679 143.801 291.718 144.052 291.796C144.312 291.865 144.559 291.961 144.793 292.082L144.26 293.161C144.096 293.083 143.948 293.027 143.818 292.992C143.697 292.957 143.589 292.94 143.493 292.94C143.233 292.94 143.038 293.027 142.908 293.2C142.787 293.365 142.726 293.638 142.726 294.019V301H141.27ZM140.152 295.696V294.5H144.429V295.696H140.152ZM145.701 301V294.5H147.144V301H145.701ZM146.429 293.265C146.195 293.265 145.991 293.183 145.818 293.018C145.653 292.845 145.571 292.641 145.571 292.407C145.571 292.173 145.653 291.974 145.818 291.809C145.991 291.644 146.195 291.562 146.429 291.562C146.663 291.562 146.862 291.644 147.027 291.809C147.2 291.974 147.287 292.173 147.287 292.407C147.287 292.641 147.2 292.845 147.027 293.018C146.862 293.183 146.663 293.265 146.429 293.265ZM151.759 301.156C151.126 301.156 150.563 301.013 150.069 300.727C149.583 300.432 149.198 300.029 148.912 299.518C148.634 299.007 148.496 298.417 148.496 297.75C148.496 297.083 148.639 296.493 148.925 295.982C149.211 295.471 149.601 295.072 150.095 294.786C150.597 294.491 151.169 294.344 151.811 294.344C152.391 294.344 152.916 294.496 153.384 294.799C153.852 295.094 154.22 295.523 154.489 296.086C154.766 296.649 154.905 297.321 154.905 298.101H149.796L149.991 297.919C149.991 298.318 150.077 298.664 150.251 298.959C150.424 299.245 150.654 299.466 150.94 299.622C151.226 299.778 151.542 299.856 151.889 299.856C152.287 299.856 152.617 299.769 152.877 299.596C153.137 299.414 153.34 299.18 153.488 298.894L154.775 299.44C154.593 299.787 154.359 300.09 154.073 300.35C153.795 300.61 153.462 300.809 153.072 300.948C152.69 301.087 152.253 301.156 151.759 301.156ZM150.082 297.165L149.874 296.983H153.54L153.345 297.165C153.345 296.81 153.267 296.519 153.111 296.294C152.955 296.06 152.755 295.887 152.513 295.774C152.279 295.653 152.032 295.592 151.772 295.592C151.512 295.592 151.252 295.653 150.992 295.774C150.732 295.887 150.515 296.06 150.342 296.294C150.168 296.519 150.082 296.81 150.082 297.165ZM160.713 301L160.648 299.791V291.9H162.091V301H160.713ZM158.594 301.156C158.005 301.156 157.489 301.017 157.047 300.74C156.614 300.454 156.271 300.055 156.02 299.544C155.777 299.033 155.656 298.435 155.656 297.75C155.656 297.057 155.777 296.459 156.02 295.956C156.271 295.445 156.614 295.05 157.047 294.773C157.489 294.487 158.005 294.344 158.594 294.344C159.14 294.344 159.608 294.487 159.998 294.773C160.397 295.05 160.7 295.445 160.908 295.956C161.116 296.459 161.22 297.057 161.22 297.75C161.22 298.435 161.116 299.033 160.908 299.544C160.7 300.055 160.397 300.454 159.998 300.74C159.608 301.017 159.14 301.156 158.594 301.156ZM158.958 299.83C159.287 299.83 159.578 299.743 159.829 299.57C160.089 299.388 160.288 299.141 160.427 298.829C160.574 298.517 160.648 298.157 160.648 297.75C160.648 297.343 160.574 296.983 160.427 296.671C160.288 296.359 160.089 296.116 159.829 295.943C159.578 295.77 159.283 295.683 158.945 295.683C158.598 295.683 158.291 295.77 158.022 295.943C157.753 296.116 157.541 296.359 157.385 296.671C157.238 296.983 157.16 297.343 157.151 297.75C157.16 298.157 157.238 298.517 157.385 298.829C157.541 299.141 157.753 299.388 158.022 299.57C158.299 299.743 158.611 299.83 158.958 299.83ZM169.878 301.156C169.211 301.156 168.622 301.013 168.11 300.727C167.599 300.432 167.196 300.029 166.901 299.518C166.615 299.007 166.472 298.417 166.472 297.75C166.472 297.083 166.615 296.493 166.901 295.982C167.196 295.471 167.595 295.072 168.097 294.786C168.609 294.491 169.194 294.344 169.852 294.344C170.494 294.344 171.074 294.5 171.594 294.812C172.114 295.115 172.5 295.553 172.751 296.125L171.399 296.645C171.261 296.359 171.048 296.129 170.762 295.956C170.476 295.783 170.151 295.696 169.787 295.696C169.432 295.696 169.116 295.787 168.838 295.969C168.561 296.142 168.344 296.385 168.188 296.697C168.032 297 167.954 297.351 167.954 297.75C167.954 298.149 168.032 298.504 168.188 298.816C168.353 299.119 168.574 299.362 168.851 299.544C169.137 299.717 169.458 299.804 169.813 299.804C170.177 299.804 170.502 299.713 170.788 299.531C171.074 299.34 171.287 299.085 171.425 298.764L172.777 299.284C172.526 299.873 172.14 300.333 171.62 300.662C171.109 300.991 170.528 301.156 169.878 301.156ZM176.898 301.156C176.248 301.156 175.667 301.013 175.156 300.727C174.653 300.432 174.259 300.029 173.973 299.518C173.687 299.007 173.544 298.417 173.544 297.75C173.544 297.083 173.682 296.493 173.96 295.982C174.246 295.471 174.64 295.072 175.143 294.786C175.645 294.491 176.222 294.344 176.872 294.344C177.522 294.344 178.098 294.491 178.601 294.786C179.103 295.072 179.493 295.471 179.771 295.982C180.057 296.493 180.2 297.083 180.2 297.75C180.2 298.417 180.061 299.007 179.784 299.518C179.506 300.029 179.116 300.432 178.614 300.727C178.111 301.013 177.539 301.156 176.898 301.156ZM176.898 299.817C177.253 299.817 177.569 299.73 177.847 299.557C178.124 299.375 178.341 299.132 178.497 298.829C178.653 298.517 178.731 298.157 178.731 297.75C178.731 297.343 178.648 296.987 178.484 296.684C178.328 296.372 178.111 296.129 177.834 295.956C177.556 295.774 177.236 295.683 176.872 295.683C176.508 295.683 176.187 295.77 175.91 295.943C175.632 296.116 175.416 296.359 175.26 296.671C175.104 296.983 175.026 297.343 175.026 297.75C175.026 298.157 175.104 298.517 175.26 298.829C175.424 299.132 175.645 299.375 175.923 299.557C176.209 299.73 176.534 299.817 176.898 299.817ZM181.461 301V294.5H182.826L182.891 295.371C183.091 295.033 183.346 294.777 183.658 294.604C183.97 294.431 184.326 294.344 184.724 294.344C185.244 294.344 185.686 294.461 186.05 294.695C186.414 294.929 186.679 295.284 186.843 295.761C187.034 295.302 187.303 294.951 187.649 294.708C187.996 294.465 188.403 294.344 188.871 294.344C189.625 294.344 190.206 294.587 190.613 295.072C191.021 295.549 191.22 296.285 191.211 297.282V301H189.768V297.672C189.768 297.152 189.712 296.753 189.599 296.476C189.487 296.19 189.335 295.991 189.144 295.878C188.954 295.765 188.733 295.709 188.481 295.709C188.031 295.7 187.68 295.861 187.428 296.19C187.186 296.519 187.064 296.992 187.064 297.607V301H185.608V297.672C185.608 297.152 185.552 296.753 185.439 296.476C185.335 296.19 185.188 295.991 184.997 295.878C184.807 295.765 184.586 295.709 184.334 295.709C183.884 295.7 183.533 295.861 183.281 296.19C183.039 296.519 182.917 296.992 182.917 297.607V301H181.461ZM192.697 301V294.5H194.062L194.127 295.371C194.326 295.033 194.582 294.777 194.894 294.604C195.206 294.431 195.561 294.344 195.96 294.344C196.48 294.344 196.922 294.461 197.286 294.695C197.65 294.929 197.914 295.284 198.079 295.761C198.269 295.302 198.538 294.951 198.885 294.708C199.231 294.465 199.639 294.344 200.107 294.344C200.861 294.344 201.441 294.587 201.849 295.072C202.256 295.549 202.455 296.285 202.447 297.282V301H201.004V297.672C201.004 297.152 200.947 296.753 200.835 296.476C200.722 296.19 200.57 295.991 200.38 295.878C200.189 295.765 199.968 295.709 199.717 295.709C199.266 295.7 198.915 295.861 198.664 296.19C198.421 296.519 198.3 296.992 198.3 297.607V301H196.844V297.672C196.844 297.152 196.787 296.753 196.675 296.476C196.571 296.19 196.423 295.991 196.233 295.878C196.042 295.765 195.821 295.709 195.57 295.709C195.119 295.7 194.768 295.861 194.517 296.19C194.274 296.519 194.153 296.992 194.153 297.607V301H192.697ZM204.023 301V294.5H205.466V301H204.023ZM204.751 293.265C204.517 293.265 204.313 293.183 204.14 293.018C203.975 292.845 203.893 292.641 203.893 292.407C203.893 292.173 203.975 291.974 204.14 291.809C204.313 291.644 204.517 291.562 204.751 291.562C204.985 291.562 205.184 291.644 205.349 291.809C205.522 291.974 205.609 292.173 205.609 292.407C205.609 292.641 205.522 292.845 205.349 293.018C205.184 293.183 204.985 293.265 204.751 293.265ZM209.769 301.156C209.084 301.156 208.56 300.987 208.196 300.649C207.841 300.302 207.663 299.808 207.663 299.167V292.472H209.106V298.894C209.106 299.197 209.175 299.427 209.314 299.583C209.461 299.739 209.674 299.817 209.951 299.817C210.038 299.817 210.133 299.8 210.237 299.765C210.341 299.73 210.458 299.665 210.588 299.57L211.121 300.675C210.896 300.831 210.67 300.948 210.445 301.026C210.22 301.113 209.994 301.156 209.769 301.156ZM206.584 295.748V294.5H210.861V295.748H206.584Z" fill="#21333F"/>
<path d="M248 276C248 267.163 255.163 260 264 260H376C384.837 260 392 267.163 392 276V300C392 308.837 384.837 316 376 316H264C255.163 316 248 308.837 248 300V276Z" fill="#F2F8FF"/>
<path d="M273.583 285.156C272.708 285.156 271.928 284.957 271.243 284.558C270.567 284.151 270.034 283.596 269.644 282.894C269.263 282.183 269.072 281.369 269.072 280.45C269.072 279.531 269.263 278.721 269.644 278.019C270.034 277.308 270.567 276.754 271.243 276.355C271.919 275.948 272.695 275.744 273.57 275.744C274.159 275.744 274.714 275.852 275.234 276.069C275.754 276.277 276.213 276.567 276.612 276.94C277.019 277.313 277.331 277.746 277.548 278.24L276.17 278.799C276.014 278.47 275.802 278.179 275.533 277.928C275.273 277.668 274.974 277.469 274.636 277.33C274.298 277.191 273.943 277.122 273.57 277.122C272.998 277.122 272.487 277.265 272.036 277.551C271.594 277.837 271.243 278.231 270.983 278.734C270.732 279.228 270.606 279.8 270.606 280.45C270.606 281.1 270.732 281.676 270.983 282.179C271.243 282.682 271.598 283.076 272.049 283.362C272.508 283.648 273.028 283.791 273.609 283.791C273.99 283.791 274.346 283.717 274.675 283.57C275.013 283.414 275.312 283.202 275.572 282.933C275.841 282.664 276.053 282.352 276.209 281.997L277.587 282.556C277.37 283.067 277.063 283.522 276.664 283.921C276.265 284.311 275.802 284.614 275.273 284.831C274.744 285.048 274.181 285.156 273.583 285.156ZM278.778 285V275.9H280.234V285H278.778ZM283.185 285V281.672H284.641V285H283.185ZM283.185 281.672C283.185 281.152 283.125 280.753 283.003 280.476C282.882 280.19 282.713 279.991 282.496 279.878C282.288 279.765 282.046 279.709 281.768 279.709C281.274 279.7 280.893 279.861 280.624 280.19C280.364 280.519 280.234 280.992 280.234 281.607H279.675C279.675 280.922 279.775 280.337 279.974 279.852C280.182 279.358 280.473 278.985 280.845 278.734C281.218 278.474 281.66 278.344 282.171 278.344C282.683 278.344 283.125 278.448 283.497 278.656C283.87 278.864 284.152 279.189 284.342 279.631C284.542 280.064 284.641 280.632 284.641 281.334V281.672H283.185ZM290.081 285L290.016 283.778V281.659C290.016 281.217 289.968 280.849 289.873 280.554C289.786 280.251 289.639 280.021 289.431 279.865C289.232 279.7 288.963 279.618 288.625 279.618C288.313 279.618 288.04 279.683 287.806 279.813C287.572 279.943 287.373 280.147 287.208 280.424L285.934 279.956C286.073 279.67 286.255 279.406 286.48 279.163C286.714 278.912 287.004 278.712 287.351 278.565C287.706 278.418 288.131 278.344 288.625 278.344C289.258 278.344 289.786 278.47 290.211 278.721C290.636 278.964 290.948 279.315 291.147 279.774C291.355 280.233 291.459 280.788 291.459 281.438L291.42 285H290.081ZM288.209 285.156C287.429 285.156 286.822 284.983 286.389 284.636C285.964 284.289 285.752 283.8 285.752 283.167C285.752 282.491 285.977 281.975 286.428 281.62C286.887 281.265 287.524 281.087 288.339 281.087H290.081V282.205H288.807C288.226 282.205 287.819 282.287 287.585 282.452C287.351 282.608 287.234 282.833 287.234 283.128C287.234 283.379 287.334 283.579 287.533 283.726C287.741 283.865 288.027 283.934 288.391 283.934C288.72 283.934 289.006 283.86 289.249 283.713C289.492 283.566 289.678 283.371 289.808 283.128C289.947 282.885 290.016 282.612 290.016 282.309H290.445C290.445 283.193 290.267 283.891 289.912 284.402C289.557 284.905 288.989 285.156 288.209 285.156ZM292.933 285V278.5H294.298L294.389 279.696V285H292.933ZM297.34 285V281.672H298.796V285H297.34ZM297.34 281.672C297.34 281.152 297.28 280.753 297.158 280.476C297.046 280.19 296.881 279.991 296.664 279.878C296.456 279.765 296.209 279.709 295.923 279.709C295.438 279.7 295.061 279.861 294.792 280.19C294.524 280.519 294.389 280.992 294.389 281.607H293.843C293.843 280.922 293.943 280.337 294.142 279.852C294.342 279.358 294.628 278.985 295 278.734C295.373 278.474 295.815 278.344 296.326 278.344C296.846 278.344 297.288 278.448 297.652 278.656C298.025 278.864 298.307 279.189 298.497 279.631C298.697 280.064 298.796 280.632 298.796 281.334V281.672H297.34ZM303.066 287.769C302.607 287.769 302.191 287.73 301.818 287.652C301.454 287.574 301.147 287.483 300.895 287.379C300.644 287.275 300.449 287.175 300.31 287.08L300.869 285.91C300.991 285.971 301.151 286.044 301.35 286.131C301.558 286.226 301.801 286.309 302.078 286.378C302.356 286.447 302.668 286.482 303.014 286.482C303.387 286.482 303.721 286.404 304.015 286.248C304.31 286.101 304.54 285.871 304.704 285.559C304.869 285.247 304.951 284.848 304.951 284.363V278.5H306.407V284.324C306.407 285.061 306.269 285.685 305.991 286.196C305.714 286.716 305.324 287.106 304.821 287.366C304.319 287.635 303.734 287.769 303.066 287.769ZM302.845 284.87C302.256 284.87 301.74 284.736 301.298 284.467C300.865 284.198 300.523 283.826 300.271 283.349C300.029 282.864 299.907 282.305 299.907 281.672C299.907 280.996 300.029 280.411 300.271 279.917C300.523 279.423 300.865 279.037 301.298 278.76C301.74 278.483 302.256 278.344 302.845 278.344C303.374 278.344 303.833 278.483 304.223 278.76C304.622 279.037 304.93 279.427 305.146 279.93C305.363 280.424 305.471 281.009 305.471 281.685C305.471 282.326 305.363 282.885 305.146 283.362C304.93 283.839 304.622 284.211 304.223 284.48C303.833 284.74 303.374 284.87 302.845 284.87ZM303.248 283.635C303.578 283.635 303.864 283.548 304.106 283.375C304.358 283.202 304.553 282.968 304.691 282.673C304.83 282.37 304.899 282.023 304.899 281.633C304.899 281.234 304.83 280.888 304.691 280.593C304.553 280.29 304.358 280.056 304.106 279.891C303.855 279.718 303.565 279.631 303.235 279.631C302.889 279.631 302.581 279.718 302.312 279.891C302.052 280.056 301.844 280.29 301.688 280.593C301.541 280.888 301.467 281.234 301.467 281.633C301.467 282.023 301.541 282.37 301.688 282.673C301.844 282.968 302.057 283.202 302.325 283.375C302.594 283.548 302.902 283.635 303.248 283.635ZM310.914 285.156C310.282 285.156 309.718 285.013 309.224 284.727C308.739 284.432 308.353 284.029 308.067 283.518C307.79 283.007 307.651 282.417 307.651 281.75C307.651 281.083 307.794 280.493 308.08 279.982C308.366 279.471 308.756 279.072 309.25 278.786C309.753 278.491 310.325 278.344 310.966 278.344C311.547 278.344 312.071 278.496 312.539 278.799C313.007 279.094 313.376 279.523 313.644 280.086C313.922 280.649 314.06 281.321 314.06 282.101H308.951L309.146 281.919C309.146 282.318 309.233 282.664 309.406 282.959C309.58 283.245 309.809 283.466 310.095 283.622C310.381 283.778 310.698 283.856 311.044 283.856C311.443 283.856 311.772 283.769 312.032 283.596C312.292 283.414 312.496 283.18 312.643 282.894L313.93 283.44C313.748 283.787 313.514 284.09 313.228 284.35C312.951 284.61 312.617 284.809 312.227 284.948C311.846 285.087 311.408 285.156 310.914 285.156ZM309.237 281.165L309.029 280.983H312.695L312.5 281.165C312.5 280.81 312.422 280.519 312.266 280.294C312.11 280.06 311.911 279.887 311.668 279.774C311.434 279.653 311.187 279.592 310.927 279.592C310.667 279.592 310.407 279.653 310.147 279.774C309.887 279.887 309.671 280.06 309.497 280.294C309.324 280.519 309.237 280.81 309.237 281.165ZM317.542 285.156C317.108 285.156 316.71 285.091 316.346 284.961C315.982 284.831 315.67 284.649 315.41 284.415C315.15 284.172 314.95 283.891 314.812 283.57L316.073 283.011C316.203 283.254 316.393 283.457 316.645 283.622C316.905 283.787 317.191 283.869 317.503 283.869C317.841 283.869 318.109 283.813 318.309 283.7C318.517 283.579 318.621 283.414 318.621 283.206C318.621 283.007 318.543 282.855 318.387 282.751C318.231 282.638 318.01 282.547 317.724 282.478L317.113 282.309C316.497 282.153 316.016 281.906 315.67 281.568C315.323 281.221 315.15 280.827 315.15 280.385C315.15 279.735 315.358 279.232 315.774 278.877C316.198 278.522 316.805 278.344 317.594 278.344C317.992 278.344 318.356 278.405 318.686 278.526C319.024 278.639 319.314 278.803 319.557 279.02C319.799 279.228 319.968 279.475 320.064 279.761L318.855 280.307C318.768 280.09 318.603 279.926 318.361 279.813C318.118 279.692 317.849 279.631 317.555 279.631C317.26 279.631 317.03 279.696 316.866 279.826C316.701 279.947 316.619 280.121 316.619 280.346C316.619 280.476 316.692 280.597 316.84 280.71C316.987 280.814 317.199 280.901 317.477 280.97L318.244 281.152C318.668 281.256 319.015 281.421 319.284 281.646C319.552 281.863 319.752 282.11 319.882 282.387C320.012 282.656 320.077 282.929 320.077 283.206C320.077 283.596 319.964 283.938 319.739 284.233C319.522 284.528 319.223 284.757 318.842 284.922C318.46 285.078 318.027 285.156 317.542 285.156ZM324.367 285V275.9H325.823V283.791L325.745 285H324.367ZM327.877 285.156C327.331 285.156 326.859 285.017 326.46 284.74C326.07 284.454 325.771 284.055 325.563 283.544C325.355 283.033 325.251 282.435 325.251 281.75C325.251 281.057 325.355 280.459 325.563 279.956C325.771 279.445 326.07 279.05 326.46 278.773C326.859 278.487 327.331 278.344 327.877 278.344C328.466 278.344 328.978 278.487 329.411 278.773C329.853 279.05 330.195 279.445 330.438 279.956C330.689 280.459 330.815 281.057 330.815 281.75C330.815 282.435 330.689 283.033 330.438 283.544C330.195 284.055 329.853 284.454 329.411 284.74C328.978 285.017 328.466 285.156 327.877 285.156ZM327.513 283.83C327.86 283.83 328.167 283.743 328.436 283.57C328.705 283.388 328.917 283.141 329.073 282.829C329.238 282.517 329.32 282.157 329.32 281.75C329.32 281.343 329.242 280.983 329.086 280.671C328.939 280.359 328.731 280.116 328.462 279.943C328.193 279.77 327.881 279.683 327.526 279.683C327.197 279.683 326.902 279.77 326.642 279.943C326.382 280.116 326.178 280.359 326.031 280.671C325.892 280.983 325.823 281.343 325.823 281.75C325.823 282.157 325.892 282.517 326.031 282.829C326.178 283.141 326.378 283.388 326.629 283.57C326.889 283.743 327.184 283.83 327.513 283.83ZM334.959 285.156C334.327 285.156 333.763 285.013 333.269 284.727C332.784 284.432 332.398 284.029 332.112 283.518C331.835 283.007 331.696 282.417 331.696 281.75C331.696 281.083 331.839 280.493 332.125 279.982C332.411 279.471 332.801 279.072 333.295 278.786C333.798 278.491 334.37 278.344 335.011 278.344C335.592 278.344 336.116 278.496 336.584 278.799C337.052 279.094 337.421 279.523 337.689 280.086C337.967 280.649 338.105 281.321 338.105 282.101H332.996L333.191 281.919C333.191 282.318 333.278 282.664 333.451 282.959C333.625 283.245 333.854 283.466 334.14 283.622C334.426 283.778 334.743 283.856 335.089 283.856C335.488 283.856 335.817 283.769 336.077 283.596C336.337 283.414 336.541 283.18 336.688 282.894L337.975 283.44C337.793 283.787 337.559 284.09 337.273 284.35C336.996 284.61 336.662 284.809 336.272 284.948C335.891 285.087 335.453 285.156 334.959 285.156ZM333.282 281.165L333.074 280.983H336.74L336.545 281.165C336.545 280.81 336.467 280.519 336.311 280.294C336.155 280.06 335.956 279.887 335.713 279.774C335.479 279.653 335.232 279.592 334.972 279.592C334.712 279.592 334.452 279.653 334.192 279.774C333.932 279.887 333.716 280.06 333.542 280.294C333.369 280.519 333.282 280.81 333.282 281.165ZM342.263 285.156C341.595 285.156 341.006 285.013 340.495 284.727C339.983 284.432 339.58 284.029 339.286 283.518C339 283.007 338.857 282.417 338.857 281.75C338.857 281.083 339 280.493 339.286 279.982C339.58 279.471 339.979 279.072 340.482 278.786C340.993 278.491 341.578 278.344 342.237 278.344C342.878 278.344 343.459 278.5 343.979 278.812C344.499 279.115 344.884 279.553 345.136 280.125L343.784 280.645C343.645 280.359 343.433 280.129 343.147 279.956C342.861 279.783 342.536 279.696 342.172 279.696C341.816 279.696 341.5 279.787 341.223 279.969C340.945 280.142 340.729 280.385 340.573 280.697C340.417 281 340.339 281.351 340.339 281.75C340.339 282.149 340.417 282.504 340.573 282.816C340.737 283.119 340.958 283.362 341.236 283.544C341.522 283.717 341.842 283.804 342.198 283.804C342.562 283.804 342.887 283.713 343.173 283.531C343.459 283.34 343.671 283.085 343.81 282.764L345.162 283.284C344.91 283.873 344.525 284.333 344.005 284.662C343.493 284.991 342.913 285.156 342.263 285.156ZM349.282 285.156C348.632 285.156 348.051 285.013 347.54 284.727C347.037 284.432 346.643 284.029 346.357 283.518C346.071 283.007 345.928 282.417 345.928 281.75C345.928 281.083 346.067 280.493 346.344 279.982C346.63 279.471 347.024 279.072 347.527 278.786C348.03 278.491 348.606 278.344 349.256 278.344C349.906 278.344 350.482 278.491 350.985 278.786C351.488 279.072 351.878 279.471 352.155 279.982C352.441 280.493 352.584 281.083 352.584 281.75C352.584 282.417 352.445 283.007 352.168 283.518C351.891 284.029 351.501 284.432 350.998 284.727C350.495 285.013 349.923 285.156 349.282 285.156ZM349.282 283.817C349.637 283.817 349.954 283.73 350.231 283.557C350.508 283.375 350.725 283.132 350.881 282.829C351.037 282.517 351.115 282.157 351.115 281.75C351.115 281.343 351.033 280.987 350.868 280.684C350.712 280.372 350.495 280.129 350.218 279.956C349.941 279.774 349.62 279.683 349.256 279.683C348.892 279.683 348.571 279.77 348.294 279.943C348.017 280.116 347.8 280.359 347.644 280.671C347.488 280.983 347.41 281.343 347.41 281.75C347.41 282.157 347.488 282.517 347.644 282.829C347.809 283.132 348.03 283.375 348.307 283.557C348.593 283.73 348.918 283.817 349.282 283.817ZM353.846 285V278.5H355.211L355.276 279.371C355.475 279.033 355.731 278.777 356.043 278.604C356.355 278.431 356.71 278.344 357.109 278.344C357.629 278.344 358.071 278.461 358.435 278.695C358.799 278.929 359.063 279.284 359.228 279.761C359.418 279.302 359.687 278.951 360.034 278.708C360.38 278.465 360.788 278.344 361.256 278.344C362.01 278.344 362.59 278.587 362.998 279.072C363.405 279.549 363.604 280.285 363.596 281.282V285H362.153V281.672C362.153 281.152 362.096 280.753 361.984 280.476C361.871 280.19 361.719 279.991 361.529 279.878C361.338 279.765 361.117 279.709 360.866 279.709C360.415 279.7 360.064 279.861 359.813 280.19C359.57 280.519 359.449 280.992 359.449 281.607V285H357.993V281.672C357.993 281.152 357.936 280.753 357.824 280.476C357.72 280.19 357.572 279.991 357.382 279.878C357.191 279.765 356.97 279.709 356.719 279.709C356.268 279.7 355.917 279.861 355.666 280.19C355.423 280.519 355.302 280.992 355.302 281.607V285H353.846ZM367.98 285.156C367.347 285.156 366.784 285.013 366.29 284.727C365.805 284.432 365.419 284.029 365.133 283.518C364.856 283.007 364.717 282.417 364.717 281.75C364.717 281.083 364.86 280.493 365.146 279.982C365.432 279.471 365.822 279.072 366.316 278.786C366.819 278.491 367.391 278.344 368.032 278.344C368.613 278.344 369.137 278.496 369.605 278.799C370.073 279.094 370.441 279.523 370.71 280.086C370.987 280.649 371.126 281.321 371.126 282.101H366.017L366.212 281.919C366.212 282.318 366.299 282.664 366.472 282.959C366.645 283.245 366.875 283.466 367.161 283.622C367.447 283.778 367.763 283.856 368.11 283.856C368.509 283.856 368.838 283.769 369.098 283.596C369.358 283.414 369.562 283.18 369.709 282.894L370.996 283.44C370.814 283.787 370.58 284.09 370.294 284.35C370.017 284.61 369.683 284.809 369.293 284.948C368.912 285.087 368.474 285.156 367.98 285.156ZM366.303 281.165L366.095 280.983H369.761L369.566 281.165C369.566 280.81 369.488 280.519 369.332 280.294C369.176 280.06 368.977 279.887 368.734 279.774C368.5 279.653 368.253 279.592 367.993 279.592C367.733 279.592 367.473 279.653 367.213 279.774C366.953 279.887 366.736 280.06 366.563 280.294C366.39 280.519 366.303 280.81 366.303 281.165ZM297.587 301L297.509 299.804V294.5H298.952V301H297.587ZM293.089 297.828V294.5H294.545V297.828H293.089ZM294.545 297.828C294.545 298.339 294.605 298.738 294.727 299.024C294.848 299.31 295.013 299.509 295.221 299.622C295.437 299.735 295.684 299.791 295.962 299.791C296.456 299.8 296.837 299.639 297.106 299.31C297.374 298.981 297.509 298.508 297.509 297.893H298.055C298.055 298.578 297.951 299.167 297.743 299.661C297.543 300.146 297.257 300.519 296.885 300.779C296.521 301.03 296.079 301.156 295.559 301.156C295.047 301.156 294.605 301.052 294.233 300.844C293.869 300.636 293.587 300.311 293.388 299.869C293.188 299.427 293.089 298.859 293.089 298.166V297.828H294.545ZM300.57 301V294.5H301.935L302.026 295.696V301H300.57ZM304.977 301V297.672H306.433V301H304.977ZM304.977 297.672C304.977 297.152 304.916 296.753 304.795 296.476C304.682 296.19 304.517 295.991 304.301 295.878C304.093 295.765 303.846 295.709 303.56 295.709C303.074 295.7 302.697 295.861 302.429 296.19C302.16 296.519 302.026 296.992 302.026 297.607H301.48C301.48 296.922 301.579 296.337 301.779 295.852C301.978 295.358 302.264 294.985 302.637 294.734C303.009 294.474 303.451 294.344 303.963 294.344C304.483 294.344 304.925 294.448 305.289 294.656C305.661 294.864 305.943 295.189 306.134 295.631C306.333 296.064 306.433 296.632 306.433 297.334V297.672H304.977ZM310.274 301.156C309.84 301.156 309.442 301.091 309.078 300.961C308.714 300.831 308.402 300.649 308.142 300.415C307.882 300.172 307.682 299.891 307.544 299.57L308.805 299.011C308.935 299.254 309.125 299.457 309.377 299.622C309.637 299.787 309.923 299.869 310.235 299.869C310.573 299.869 310.841 299.813 311.041 299.7C311.249 299.579 311.353 299.414 311.353 299.206C311.353 299.007 311.275 298.855 311.119 298.751C310.963 298.638 310.742 298.547 310.456 298.478L309.845 298.309C309.229 298.153 308.748 297.906 308.402 297.568C308.055 297.221 307.882 296.827 307.882 296.385C307.882 295.735 308.09 295.232 308.506 294.877C308.93 294.522 309.537 294.344 310.326 294.344C310.724 294.344 311.088 294.405 311.418 294.526C311.756 294.639 312.046 294.803 312.289 295.02C312.531 295.228 312.7 295.475 312.796 295.761L311.587 296.307C311.5 296.09 311.335 295.926 311.093 295.813C310.85 295.692 310.581 295.631 310.287 295.631C309.992 295.631 309.762 295.696 309.598 295.826C309.433 295.947 309.351 296.121 309.351 296.346C309.351 296.476 309.424 296.597 309.572 296.71C309.719 296.814 309.931 296.901 310.209 296.97L310.976 297.152C311.4 297.256 311.747 297.421 312.016 297.646C312.284 297.863 312.484 298.11 312.614 298.387C312.744 298.656 312.809 298.929 312.809 299.206C312.809 299.596 312.696 299.938 312.471 300.233C312.254 300.528 311.955 300.757 311.574 300.922C311.192 301.078 310.759 301.156 310.274 301.156ZM316.55 301.156C315.866 301.156 315.341 300.987 314.977 300.649C314.622 300.302 314.444 299.808 314.444 299.167V292.472H315.887V298.894C315.887 299.197 315.957 299.427 316.095 299.583C316.243 299.739 316.455 299.817 316.732 299.817C316.819 299.817 316.914 299.8 317.018 299.765C317.122 299.73 317.239 299.665 317.369 299.57L317.902 300.675C317.677 300.831 317.452 300.948 317.226 301.026C317.001 301.113 316.776 301.156 316.55 301.156ZM313.365 295.748V294.5H317.642V295.748H313.365ZM322.943 301L322.878 299.778V297.659C322.878 297.217 322.83 296.849 322.735 296.554C322.648 296.251 322.501 296.021 322.293 295.865C322.094 295.7 321.825 295.618 321.487 295.618C321.175 295.618 320.902 295.683 320.668 295.813C320.434 295.943 320.235 296.147 320.07 296.424L318.796 295.956C318.935 295.67 319.117 295.406 319.342 295.163C319.576 294.912 319.866 294.712 320.213 294.565C320.568 294.418 320.993 294.344 321.487 294.344C322.12 294.344 322.648 294.47 323.073 294.721C323.498 294.964 323.81 295.315 324.009 295.774C324.217 296.233 324.321 296.788 324.321 297.438L324.282 301H322.943ZM321.071 301.156C320.291 301.156 319.684 300.983 319.251 300.636C318.826 300.289 318.614 299.8 318.614 299.167C318.614 298.491 318.839 297.975 319.29 297.62C319.749 297.265 320.386 297.087 321.201 297.087H322.943V298.205H321.669C321.088 298.205 320.681 298.287 320.447 298.452C320.213 298.608 320.096 298.833 320.096 299.128C320.096 299.379 320.196 299.579 320.395 299.726C320.603 299.865 320.889 299.934 321.253 299.934C321.582 299.934 321.868 299.86 322.111 299.713C322.354 299.566 322.54 299.371 322.67 299.128C322.809 298.885 322.878 298.612 322.878 298.309H323.307C323.307 299.193 323.129 299.891 322.774 300.402C322.419 300.905 321.851 301.156 321.071 301.156ZM328.59 303.769C328.131 303.769 327.715 303.73 327.342 303.652C326.978 303.574 326.671 303.483 326.419 303.379C326.168 303.275 325.973 303.175 325.834 303.08L326.393 301.91C326.515 301.971 326.675 302.044 326.874 302.131C327.082 302.226 327.325 302.309 327.602 302.378C327.88 302.447 328.192 302.482 328.538 302.482C328.911 302.482 329.245 302.404 329.539 302.248C329.834 302.101 330.064 301.871 330.228 301.559C330.393 301.247 330.475 300.848 330.475 300.363V294.5H331.931V300.324C331.931 301.061 331.793 301.685 331.515 302.196C331.238 302.716 330.848 303.106 330.345 303.366C329.843 303.635 329.258 303.769 328.59 303.769ZM328.369 300.87C327.78 300.87 327.264 300.736 326.822 300.467C326.389 300.198 326.047 299.826 325.795 299.349C325.553 298.864 325.431 298.305 325.431 297.672C325.431 296.996 325.553 296.411 325.795 295.917C326.047 295.423 326.389 295.037 326.822 294.76C327.264 294.483 327.78 294.344 328.369 294.344C328.898 294.344 329.357 294.483 329.747 294.76C330.146 295.037 330.454 295.427 330.67 295.93C330.887 296.424 330.995 297.009 330.995 297.685C330.995 298.326 330.887 298.885 330.67 299.362C330.454 299.839 330.146 300.211 329.747 300.48C329.357 300.74 328.898 300.87 328.369 300.87ZM328.772 299.635C329.102 299.635 329.388 299.548 329.63 299.375C329.882 299.202 330.077 298.968 330.215 298.673C330.354 298.37 330.423 298.023 330.423 297.633C330.423 297.234 330.354 296.888 330.215 296.593C330.077 296.29 329.882 296.056 329.63 295.891C329.379 295.718 329.089 295.631 328.759 295.631C328.413 295.631 328.105 295.718 327.836 295.891C327.576 296.056 327.368 296.29 327.212 296.593C327.065 296.888 326.991 297.234 326.991 297.633C326.991 298.023 327.065 298.37 327.212 298.673C327.368 298.968 327.581 299.202 327.849 299.375C328.118 299.548 328.426 299.635 328.772 299.635ZM336.438 301.156C335.806 301.156 335.242 301.013 334.748 300.727C334.263 300.432 333.877 300.029 333.591 299.518C333.314 299.007 333.175 298.417 333.175 297.75C333.175 297.083 333.318 296.493 333.604 295.982C333.89 295.471 334.28 295.072 334.774 294.786C335.277 294.491 335.849 294.344 336.49 294.344C337.071 294.344 337.595 294.496 338.063 294.799C338.531 295.094 338.9 295.523 339.168 296.086C339.446 296.649 339.584 297.321 339.584 298.101H334.475L334.67 297.919C334.67 298.318 334.757 298.664 334.93 298.959C335.104 299.245 335.333 299.466 335.619 299.622C335.905 299.778 336.222 299.856 336.568 299.856C336.967 299.856 337.296 299.769 337.556 299.596C337.816 299.414 338.02 299.18 338.167 298.894L339.454 299.44C339.272 299.787 339.038 300.09 338.752 300.35C338.475 300.61 338.141 300.809 337.751 300.948C337.37 301.087 336.932 301.156 336.438 301.156ZM334.761 297.165L334.553 296.983H338.219L338.024 297.165C338.024 296.81 337.946 296.519 337.79 296.294C337.634 296.06 337.435 295.887 337.192 295.774C336.958 295.653 336.711 295.592 336.451 295.592C336.191 295.592 335.931 295.653 335.671 295.774C335.411 295.887 335.195 296.06 335.021 296.294C334.848 296.519 334.761 296.81 334.761 297.165ZM345.393 301L345.328 299.791V291.9H346.771V301H345.393ZM343.274 301.156C342.684 301.156 342.169 301.017 341.727 300.74C341.293 300.454 340.951 300.055 340.7 299.544C340.457 299.033 340.336 298.435 340.336 297.75C340.336 297.057 340.457 296.459 340.7 295.956C340.951 295.445 341.293 295.05 341.727 294.773C342.169 294.487 342.684 294.344 343.274 294.344C343.82 294.344 344.288 294.487 344.678 294.773C345.076 295.05 345.38 295.445 345.588 295.956C345.796 296.459 345.9 297.057 345.9 297.75C345.9 298.435 345.796 299.033 345.588 299.544C345.38 300.055 345.076 300.454 344.678 300.74C344.288 301.017 343.82 301.156 343.274 301.156ZM343.638 299.83C343.967 299.83 344.257 299.743 344.509 299.57C344.769 299.388 344.968 299.141 345.107 298.829C345.254 298.517 345.328 298.157 345.328 297.75C345.328 297.343 345.254 296.983 345.107 296.671C344.968 296.359 344.769 296.116 344.509 295.943C344.257 295.77 343.963 295.683 343.625 295.683C343.278 295.683 342.97 295.77 342.702 295.943C342.433 296.116 342.221 296.359 342.065 296.671C341.917 296.983 341.839 297.343 341.831 297.75C341.839 298.157 341.917 298.517 342.065 298.829C342.221 299.141 342.433 299.388 342.702 299.57C342.979 299.743 343.291 299.83 343.638 299.83Z" fill="#21333F"/>
<path d="M408 276C408 267.163 415.163 260 424 260H536C544.837 260 552 267.163 552 276V300C552 308.837 544.837 316 536 316H424C415.163 316 408 308.837 408 300V276Z" fill="#F2F8FF"/>
<path d="M450.717 293.182C449.998 293.182 449.365 293.039 448.819 292.753C448.282 292.458 447.861 292.047 447.558 291.518C447.263 290.989 447.116 290.374 447.116 289.672V283.9H448.624V289.672C448.624 290.097 448.711 290.469 448.884 290.79C449.066 291.102 449.317 291.349 449.638 291.531C449.959 291.704 450.327 291.791 450.743 291.791C451.168 291.791 451.54 291.704 451.861 291.531C452.19 291.349 452.442 291.102 452.615 290.79C452.788 290.469 452.875 290.097 452.875 289.672V283.9H454.383V289.672C454.383 290.374 454.231 290.989 453.928 291.518C453.633 292.047 453.209 292.458 452.654 292.753C452.108 293.039 451.462 293.182 450.717 293.182ZM456.139 293V286.5H457.504L457.595 287.696V293H456.139ZM460.546 293V289.672H462.002V293H460.546ZM460.546 289.672C460.546 289.152 460.485 288.753 460.364 288.476C460.251 288.19 460.087 287.991 459.87 287.878C459.662 287.765 459.415 287.709 459.129 287.709C458.644 287.7 458.267 287.861 457.998 288.19C457.729 288.519 457.595 288.992 457.595 289.607H457.049C457.049 288.922 457.149 288.337 457.348 287.852C457.547 287.358 457.833 286.985 458.206 286.734C458.579 286.474 459.021 286.344 459.532 286.344C460.052 286.344 460.494 286.448 460.858 286.656C461.231 286.864 461.512 287.189 461.703 287.631C461.902 288.064 462.002 288.632 462.002 289.334V289.672H460.546ZM466.519 293.156C465.852 293.156 465.262 293.013 464.751 292.727C464.24 292.432 463.837 292.029 463.542 291.518C463.256 291.007 463.113 290.417 463.113 289.75C463.113 289.083 463.256 288.493 463.542 287.982C463.837 287.471 464.235 287.072 464.738 286.786C465.249 286.491 465.834 286.344 466.493 286.344C467.134 286.344 467.715 286.5 468.235 286.812C468.755 287.115 469.141 287.553 469.392 288.125L468.04 288.645C467.901 288.359 467.689 288.129 467.403 287.956C467.117 287.783 466.792 287.696 466.428 287.696C466.073 287.696 465.756 287.787 465.479 287.969C465.202 288.142 464.985 288.385 464.829 288.697C464.673 289 464.595 289.351 464.595 289.75C464.595 290.149 464.673 290.504 464.829 290.816C464.994 291.119 465.215 291.362 465.492 291.544C465.778 291.717 466.099 291.804 466.454 291.804C466.818 291.804 467.143 291.713 467.429 291.531C467.715 291.34 467.927 291.085 468.066 290.764L469.418 291.284C469.167 291.873 468.781 292.333 468.261 292.662C467.75 292.991 467.169 293.156 466.519 293.156ZM470.561 293V283.9H472.017V293H470.561ZM474.968 293V289.672H476.424V293H474.968ZM474.968 289.672C474.968 289.152 474.908 288.753 474.786 288.476C474.665 288.19 474.496 287.991 474.279 287.878C474.071 287.765 473.829 287.709 473.551 287.709C473.057 287.7 472.676 287.861 472.407 288.19C472.147 288.519 472.017 288.992 472.017 289.607H471.458C471.458 288.922 471.558 288.337 471.757 287.852C471.965 287.358 472.256 286.985 472.628 286.734C473.001 286.474 473.443 286.344 473.954 286.344C474.466 286.344 474.908 286.448 475.28 286.656C475.653 286.864 475.935 287.189 476.125 287.631C476.325 288.064 476.424 288.632 476.424 289.334V289.672H474.968ZM481.864 293L481.799 291.778V289.659C481.799 289.217 481.751 288.849 481.656 288.554C481.569 288.251 481.422 288.021 481.214 287.865C481.014 287.7 480.746 287.618 480.408 287.618C480.096 287.618 479.823 287.683 479.589 287.813C479.355 287.943 479.155 288.147 478.991 288.424L477.717 287.956C477.855 287.67 478.037 287.406 478.263 287.163C478.497 286.912 478.787 286.712 479.134 286.565C479.489 286.418 479.914 286.344 480.408 286.344C481.04 286.344 481.569 286.47 481.994 286.721C482.418 286.964 482.73 287.315 482.93 287.774C483.138 288.233 483.242 288.788 483.242 289.438L483.203 293H481.864ZM479.992 293.156C479.212 293.156 478.605 292.983 478.172 292.636C477.747 292.289 477.535 291.8 477.535 291.167C477.535 290.491 477.76 289.975 478.211 289.62C478.67 289.265 479.307 289.087 480.122 289.087H481.864V290.205H480.59C480.009 290.205 479.602 290.287 479.368 290.452C479.134 290.608 479.017 290.833 479.017 291.128C479.017 291.379 479.116 291.579 479.316 291.726C479.524 291.865 479.81 291.934 480.174 291.934C480.503 291.934 480.789 291.86 481.032 291.713C481.274 291.566 481.461 291.371 481.591 291.128C481.729 290.885 481.799 290.612 481.799 290.309H482.228C482.228 291.193 482.05 291.891 481.695 292.402C481.339 292.905 480.772 293.156 479.992 293.156ZM484.716 293V286.5H486.081L486.172 287.696V293H484.716ZM489.123 293V289.672H490.579V293H489.123ZM489.123 289.672C489.123 289.152 489.062 288.753 488.941 288.476C488.828 288.19 488.664 287.991 488.447 287.878C488.239 287.765 487.992 287.709 487.706 287.709C487.221 287.7 486.844 287.861 486.575 288.19C486.306 288.519 486.172 288.992 486.172 289.607H485.626C485.626 288.922 485.726 288.337 485.925 287.852C486.124 287.358 486.41 286.985 486.783 286.734C487.156 286.474 487.598 286.344 488.109 286.344C488.629 286.344 489.071 286.448 489.435 286.656C489.808 286.864 490.089 287.189 490.28 287.631C490.479 288.064 490.579 288.632 490.579 289.334V289.672H489.123ZM494.849 295.769C494.39 295.769 493.974 295.73 493.601 295.652C493.237 295.574 492.929 295.483 492.678 295.379C492.427 295.275 492.232 295.175 492.093 295.08L492.652 293.91C492.773 293.971 492.934 294.044 493.133 294.131C493.341 294.226 493.584 294.309 493.861 294.378C494.138 294.447 494.45 294.482 494.797 294.482C495.17 294.482 495.503 294.404 495.798 294.248C496.093 294.101 496.322 293.871 496.487 293.559C496.652 293.247 496.734 292.848 496.734 292.363V286.5H498.19V292.324C498.19 293.061 498.051 293.685 497.774 294.196C497.497 294.716 497.107 295.106 496.604 295.366C496.101 295.635 495.516 295.769 494.849 295.769ZM494.628 292.87C494.039 292.87 493.523 292.736 493.081 292.467C492.648 292.198 492.305 291.826 492.054 291.349C491.811 290.864 491.69 290.305 491.69 289.672C491.69 288.996 491.811 288.411 492.054 287.917C492.305 287.423 492.648 287.037 493.081 286.76C493.523 286.483 494.039 286.344 494.628 286.344C495.157 286.344 495.616 286.483 496.006 286.76C496.405 287.037 496.712 287.427 496.929 287.93C497.146 288.424 497.254 289.009 497.254 289.685C497.254 290.326 497.146 290.885 496.929 291.362C496.712 291.839 496.405 292.211 496.006 292.48C495.616 292.74 495.157 292.87 494.628 292.87ZM495.031 291.635C495.36 291.635 495.646 291.548 495.889 291.375C496.14 291.202 496.335 290.968 496.474 290.673C496.613 290.37 496.682 290.023 496.682 289.633C496.682 289.234 496.613 288.888 496.474 288.593C496.335 288.29 496.14 288.056 495.889 287.891C495.638 287.718 495.347 287.631 495.018 287.631C494.671 287.631 494.364 287.718 494.095 287.891C493.835 288.056 493.627 288.29 493.471 288.593C493.324 288.888 493.25 289.234 493.25 289.633C493.25 290.023 493.324 290.37 493.471 290.673C493.627 290.968 493.839 291.202 494.108 291.375C494.377 291.548 494.684 291.635 495.031 291.635ZM502.697 293.156C502.065 293.156 501.501 293.013 501.007 292.727C500.522 292.432 500.136 292.029 499.85 291.518C499.573 291.007 499.434 290.417 499.434 289.75C499.434 289.083 499.577 288.493 499.863 287.982C500.149 287.471 500.539 287.072 501.033 286.786C501.536 286.491 502.108 286.344 502.749 286.344C503.33 286.344 503.854 286.496 504.322 286.799C504.79 287.094 505.159 287.523 505.427 288.086C505.705 288.649 505.843 289.321 505.843 290.101H500.734L500.929 289.919C500.929 290.318 501.016 290.664 501.189 290.959C501.363 291.245 501.592 291.466 501.878 291.622C502.164 291.778 502.481 291.856 502.827 291.856C503.226 291.856 503.555 291.769 503.815 291.596C504.075 291.414 504.279 291.18 504.426 290.894L505.713 291.44C505.531 291.787 505.297 292.09 505.011 292.35C504.734 292.61 504.4 292.809 504.01 292.948C503.629 293.087 503.191 293.156 502.697 293.156ZM501.02 289.165L500.812 288.983H504.478L504.283 289.165C504.283 288.81 504.205 288.519 504.049 288.294C503.893 288.06 503.694 287.887 503.451 287.774C503.217 287.653 502.97 287.592 502.71 287.592C502.45 287.592 502.19 287.653 501.93 287.774C501.67 287.887 501.454 288.06 501.28 288.294C501.107 288.519 501.02 288.81 501.02 289.165ZM511.651 293L511.586 291.791V283.9H513.029V293H511.651ZM509.532 293.156C508.943 293.156 508.427 293.017 507.985 292.74C507.552 292.454 507.21 292.055 506.958 291.544C506.716 291.033 506.594 290.435 506.594 289.75C506.594 289.057 506.716 288.459 506.958 287.956C507.21 287.445 507.552 287.05 507.985 286.773C508.427 286.487 508.943 286.344 509.532 286.344C510.078 286.344 510.546 286.487 510.936 286.773C511.335 287.05 511.638 287.445 511.846 287.956C512.054 288.459 512.158 289.057 512.158 289.75C512.158 290.435 512.054 291.033 511.846 291.544C511.638 292.055 511.335 292.454 510.936 292.74C510.546 293.017 510.078 293.156 509.532 293.156ZM509.896 291.83C510.226 291.83 510.516 291.743 510.767 291.57C511.027 291.388 511.227 291.141 511.365 290.829C511.513 290.517 511.586 290.157 511.586 289.75C511.586 289.343 511.513 288.983 511.365 288.671C511.227 288.359 511.027 288.116 510.767 287.943C510.516 287.77 510.221 287.683 509.883 287.683C509.537 287.683 509.229 287.77 508.96 287.943C508.692 288.116 508.479 288.359 508.323 288.671C508.176 288.983 508.098 289.343 508.089 289.75C508.098 290.157 508.176 290.517 508.323 290.829C508.479 291.141 508.692 291.388 508.96 291.57C509.238 291.743 509.55 291.83 509.896 291.83Z" fill="#21333F"/>
<path d="M104 172.5H216C224.56 172.5 231.5 179.44 231.5 188V232C231.5 240.56 224.56 247.5 216 247.5H104C95.4396 247.5 88.5 240.56 88.5 232V188C88.5 179.44 95.4396 172.5 104 172.5Z" fill="white"/>
<path d="M104 172.5H216C224.56 172.5 231.5 179.44 231.5 188V232C231.5 240.56 224.56 247.5 216 247.5H104C95.4396 247.5 88.5 240.56 88.5 232V188C88.5 179.44 95.4396 172.5 104 172.5Z" stroke="#B6C9D8"/>
<path fill-rule="evenodd" clip-rule="evenodd" d="M162 194C162 195.105 161.105 196 160 196C158.895 196 158 195.105 158 194C158 192.895 158.895 192 160 192C161.105 192 162 192.895 162 194ZM163.5 194C163.5 195.933 161.933 197.5 160 197.5C158.067 197.5 156.5 195.933 156.5 194C156.5 192.067 158.067 190.5 160 190.5C161.933 190.5 163.5 192.067 163.5 194ZM154.5 203.75C154.5 201.955 155.955 200.5 157.75 200.5H162.25C164.045 200.5 165.5 201.955 165.5 203.75V204.25C165.5 204.664 165.836 205 166.25 205C166.664 205 167 204.664 167 204.25V203.75C167 201.127 164.873 199 162.25 199H157.75C155.127 199 153 201.127 153 203.75V204.25C153 204.664 153.336 205 153.75 205C154.164 205 154.5 204.664 154.5 204.25V203.75Z" fill="#006590"/>
<path d="M148.573 227V217.2H150.197V227H148.573ZM142.021 227V217.2H143.645V227H142.021ZM143.295 222.716V221.232H149.231V222.716H143.295ZM152.521 227V217.2H158.555V218.684H154.145V221.288H158.037V222.744H154.145V225.516H158.597V227H152.521ZM167.569 227L163.747 217.2H165.371L169.291 227H167.569ZM159.743 227L163.649 217.2H165.287L161.465 227H159.743ZM161.577 224.592V223.15H167.443V224.592H161.577ZM170.568 227V217.2H173.648C174.61 217.2 175.459 217.41 176.196 217.83C176.943 218.241 177.526 218.815 177.946 219.552C178.376 220.289 178.59 221.139 178.59 222.1C178.59 223.052 178.376 223.897 177.946 224.634C177.526 225.371 176.943 225.95 176.196 226.37C175.459 226.79 174.61 227 173.648 227H170.568ZM172.192 225.488H173.648C174.106 225.488 174.535 225.404 174.936 225.236C175.338 225.059 175.688 224.816 175.986 224.508C176.285 224.2 176.518 223.841 176.686 223.43C176.854 223.019 176.938 222.576 176.938 222.1C176.938 221.624 176.854 221.181 176.686 220.77C176.518 220.359 176.285 220 175.986 219.692C175.688 219.384 175.338 219.146 174.936 218.978C174.535 218.801 174.106 218.712 173.648 218.712H172.192V225.488Z" fill="#21333F"/>
<path d="M264 172.5H376C384.56 172.5 391.5 179.44 391.5 188V232C391.5 240.56 384.56 247.5 376 247.5H264C255.44 247.5 248.5 240.56 248.5 232V188C248.5 179.44 255.44 172.5 264 172.5Z" fill="white"/>
<path d="M264 172.5H376C384.56 172.5 391.5 179.44 391.5 188V232C391.5 240.56 384.56 247.5 376 247.5H264C255.44 247.5 248.5 240.56 248.5 232V188C248.5 179.44 255.44 172.5 264 172.5Z" stroke="#B6C9D8"/>
<path fill-rule="evenodd" clip-rule="evenodd" d="M314 202V193C314 191.343 315.343 190 317 190H323C324.657 190 326 191.343 326 193V194.75V196V201.602C326 202.602 325.572 203.554 324.825 204.218L322.361 206.408C320.865 207.738 318.5 206.676 318.5 204.674V195.174C318.5 194.317 318.866 193.501 319.507 192.931L320.342 192.189C320.479 192.067 320.656 192 320.84 192C321.529 192 321.854 192.852 321.338 193.311L320.503 194.052C320.183 194.337 320 194.745 320 195.174V204.674C320 205.382 320.836 205.757 321.365 205.287L323.829 203.097C324.256 202.717 324.5 202.173 324.5 201.602V196V194.75V193C324.5 192.172 323.828 191.5 323 191.5H317C316.172 191.5 315.5 192.172 315.5 193V202C315.5 202.828 316.172 203.5 317 203.5H317.25C317.664 203.5 318 203.836 318 204.25C318 204.664 317.664 205 317.25 205H317C315.343 205 314 203.657 314 202ZM322 200C322.552 200 323 199.552 323 199C323 198.448 322.552 198 322 198C321.448 198 321 198.448 321 199C321 199.552 321.448 200 322 200Z" fill="#006590"/>
<path d="M299.697 227.168C299.184 227.168 298.713 227.107 298.283 226.986C297.863 226.865 297.49 226.697 297.163 226.482C296.846 226.267 296.58 226.029 296.365 225.768C296.16 225.497 296.015 225.217 295.931 224.928L297.527 224.438C297.649 224.783 297.887 225.087 298.241 225.348C298.596 225.609 299.035 225.745 299.557 225.754C300.164 225.754 300.645 225.628 300.999 225.376C301.354 225.124 301.531 224.793 301.531 224.382C301.531 224.009 301.382 223.705 301.083 223.472C300.785 223.229 300.383 223.043 299.879 222.912L298.675 222.604C298.218 222.483 297.803 222.305 297.429 222.072C297.065 221.839 296.776 221.545 296.561 221.19C296.356 220.835 296.253 220.415 296.253 219.93C296.253 219.015 296.552 218.306 297.149 217.802C297.747 217.289 298.601 217.032 299.711 217.032C300.337 217.032 300.883 217.13 301.349 217.326C301.825 217.513 302.217 217.774 302.525 218.11C302.833 218.437 303.062 218.81 303.211 219.23L301.643 219.734C301.503 219.361 301.261 219.053 300.915 218.81C300.57 218.567 300.141 218.446 299.627 218.446C299.095 218.446 298.675 218.572 298.367 218.824C298.069 219.076 297.919 219.426 297.919 219.874C297.919 220.238 298.036 220.523 298.269 220.728C298.512 220.924 298.839 221.073 299.249 221.176L300.453 221.47C301.331 221.685 302.012 222.053 302.497 222.576C302.983 223.099 303.225 223.677 303.225 224.312C303.225 224.872 303.09 225.367 302.819 225.796C302.549 226.225 302.147 226.561 301.615 226.804C301.093 227.047 300.453 227.168 299.697 227.168ZM307.514 227.168C306.777 227.168 306.212 226.986 305.82 226.622C305.438 226.249 305.246 225.717 305.246 225.026V217.816H306.8V224.732C306.8 225.059 306.875 225.306 307.024 225.474C307.183 225.642 307.412 225.726 307.71 225.726C307.804 225.726 307.906 225.707 308.018 225.67C308.13 225.633 308.256 225.563 308.396 225.46L308.97 226.65C308.728 226.818 308.485 226.944 308.242 227.028C308 227.121 307.757 227.168 307.514 227.168ZM304.084 221.344V220H308.69V221.344H304.084ZM314.399 227L314.329 225.684V223.402C314.329 222.926 314.277 222.529 314.175 222.212C314.081 221.885 313.923 221.638 313.699 221.47C313.484 221.293 313.195 221.204 312.831 221.204C312.495 221.204 312.201 221.274 311.949 221.414C311.697 221.554 311.482 221.773 311.305 222.072L309.933 221.568C310.082 221.26 310.278 220.975 310.521 220.714C310.773 220.443 311.085 220.229 311.459 220.07C311.841 219.911 312.299 219.832 312.831 219.832C313.512 219.832 314.081 219.967 314.539 220.238C314.996 220.499 315.332 220.877 315.547 221.372C315.771 221.867 315.883 222.464 315.883 223.164L315.841 227H314.399ZM312.383 227.168C311.543 227.168 310.889 226.981 310.423 226.608C309.965 226.235 309.737 225.707 309.737 225.026C309.737 224.298 309.979 223.743 310.465 223.36C310.959 222.977 311.645 222.786 312.523 222.786H314.399V223.99H313.027C312.401 223.99 311.963 224.079 311.711 224.256C311.459 224.424 311.333 224.667 311.333 224.984C311.333 225.255 311.44 225.469 311.655 225.628C311.879 225.777 312.187 225.852 312.579 225.852C312.933 225.852 313.241 225.773 313.503 225.614C313.764 225.455 313.965 225.245 314.105 224.984C314.254 224.723 314.329 224.429 314.329 224.102H314.791C314.791 225.054 314.599 225.805 314.217 226.356C313.834 226.897 313.223 227.168 312.383 227.168ZM320.481 229.982C319.986 229.982 319.538 229.94 319.137 229.856C318.745 229.772 318.413 229.674 318.143 229.562C317.872 229.45 317.662 229.343 317.513 229.24L318.115 227.98C318.245 228.045 318.418 228.125 318.633 228.218C318.857 228.321 319.118 228.409 319.417 228.484C319.715 228.559 320.051 228.596 320.425 228.596C320.826 228.596 321.185 228.512 321.503 228.344C321.82 228.185 322.067 227.938 322.245 227.602C322.422 227.266 322.511 226.837 322.511 226.314V220H324.079V226.272C324.079 227.065 323.929 227.737 323.631 228.288C323.332 228.848 322.912 229.268 322.371 229.548C321.829 229.837 321.199 229.982 320.481 229.982ZM320.243 226.86C319.608 226.86 319.053 226.715 318.577 226.426C318.11 226.137 317.741 225.735 317.471 225.222C317.209 224.699 317.079 224.097 317.079 223.416C317.079 222.688 317.209 222.058 317.471 221.526C317.741 220.994 318.11 220.579 318.577 220.28C319.053 219.981 319.608 219.832 320.243 219.832C320.812 219.832 321.307 219.981 321.727 220.28C322.156 220.579 322.487 220.999 322.721 221.54C322.954 222.072 323.071 222.702 323.071 223.43C323.071 224.121 322.954 224.723 322.721 225.236C322.487 225.749 322.156 226.151 321.727 226.44C321.307 226.72 320.812 226.86 320.243 226.86ZM320.677 225.53C321.031 225.53 321.339 225.437 321.601 225.25C321.871 225.063 322.081 224.811 322.231 224.494C322.38 224.167 322.455 223.794 322.455 223.374C322.455 222.945 322.38 222.571 322.231 222.254C322.081 221.927 321.871 221.675 321.601 221.498C321.33 221.311 321.017 221.218 320.663 221.218C320.289 221.218 319.958 221.311 319.669 221.498C319.389 221.675 319.165 221.927 318.997 222.254C318.838 222.571 318.759 222.945 318.759 223.374C318.759 223.794 318.838 224.167 318.997 224.494C319.165 224.811 319.393 225.063 319.683 225.25C319.972 225.437 320.303 225.53 320.677 225.53ZM325.908 227V220H327.462V227H325.908ZM326.692 218.67C326.44 218.67 326.221 218.581 326.034 218.404C325.857 218.217 325.768 217.998 325.768 217.746C325.768 217.494 325.857 217.279 326.034 217.102C326.221 216.925 326.44 216.836 326.692 216.836C326.944 216.836 327.159 216.925 327.336 217.102C327.523 217.279 327.616 217.494 327.616 217.746C327.616 217.998 327.523 218.217 327.336 218.404C327.159 218.581 326.944 218.67 326.692 218.67ZM329.31 227V220H330.78L330.878 221.288V227H329.31ZM334.056 227V223.416H335.624V227H334.056ZM334.056 223.416C334.056 222.856 333.991 222.427 333.86 222.128C333.739 221.82 333.562 221.605 333.328 221.484C333.104 221.363 332.838 221.302 332.53 221.302C332.008 221.293 331.602 221.465 331.312 221.82C331.023 222.175 330.878 222.683 330.878 223.346H330.29C330.29 222.609 330.398 221.979 330.612 221.456C330.827 220.924 331.135 220.523 331.536 220.252C331.938 219.972 332.414 219.832 332.964 219.832C333.524 219.832 334 219.944 334.392 220.168C334.794 220.392 335.097 220.742 335.302 221.218C335.517 221.685 335.624 222.296 335.624 223.052V223.416H334.056ZM340.223 229.982C339.728 229.982 339.28 229.94 338.879 229.856C338.487 229.772 338.155 229.674 337.885 229.562C337.614 229.45 337.404 229.343 337.255 229.24L337.857 227.98C337.987 228.045 338.16 228.125 338.375 228.218C338.599 228.321 338.86 228.409 339.159 228.484C339.457 228.559 339.793 228.596 340.167 228.596C340.568 228.596 340.927 228.512 341.245 228.344C341.562 228.185 341.809 227.938 341.987 227.602C342.164 227.266 342.253 226.837 342.253 226.314V220H343.821V226.272C343.821 227.065 343.671 227.737 343.373 228.288C343.074 228.848 342.654 229.268 342.113 229.548C341.571 229.837 340.941 229.982 340.223 229.982ZM339.985 226.86C339.35 226.86 338.795 226.715 338.319 226.426C337.852 226.137 337.483 225.735 337.213 225.222C336.951 224.699 336.821 224.097 336.821 223.416C336.821 222.688 336.951 222.058 337.213 221.526C337.483 220.994 337.852 220.579 338.319 220.28C338.795 219.981 339.35 219.832 339.985 219.832C340.554 219.832 341.049 219.981 341.469 220.28C341.898 220.579 342.229 220.999 342.463 221.54C342.696 222.072 342.813 222.702 342.813 223.43C342.813 224.121 342.696 224.723 342.463 225.236C342.229 225.749 341.898 226.151 341.469 226.44C341.049 226.72 340.554 226.86 339.985 226.86ZM340.419 225.53C340.773 225.53 341.081 225.437 341.343 225.25C341.613 225.063 341.823 224.811 341.973 224.494C342.122 224.167 342.197 223.794 342.197 223.374C342.197 222.945 342.122 222.571 341.973 222.254C341.823 221.927 341.613 221.675 341.343 221.498C341.072 221.311 340.759 221.218 340.405 221.218C340.031 221.218 339.7 221.311 339.411 221.498C339.131 221.675 338.907 221.927 338.739 222.254C338.58 222.571 338.501 222.945 338.501 223.374C338.501 223.794 338.58 224.167 338.739 224.494C338.907 224.811 339.135 225.063 339.425 225.25C339.714 225.437 340.045 225.53 340.419 225.53Z" fill="#21333F"/>
<path d="M424 172.5H536C544.56 172.5 551.5 179.44 551.5 188V232C551.5 240.56 544.56 247.5 536 247.5H424C415.44 247.5 408.5 240.56 408.5 232V188C408.5 179.44 415.44 172.5 424 172.5Z" fill="white"/>
<path d="M424 172.5H536C544.56 172.5 551.5 179.44 551.5 188V232C551.5 240.56 544.56 247.5 536 247.5H424C415.44 247.5 408.5 240.56 408.5 232V188C408.5 179.44 415.44 172.5 424 172.5Z" stroke="#B6C9D8"/>
<mask id="mask0_12853_37685" style="mask-type:alpha" maskUnits="userSpaceOnUse" x="470" y="188" width="20" height="20">
<rect x="470" y="188" width="20" height="20" fill="#D9D9D9"/>
</mask>
<g mask="url(#mask0_12853_37685)">
<path d="M472.5 205C472.097 205 471.747 204.851 471.448 204.552C471.149 204.253 471 203.903 471 203.5V193.5H472.5V203.5H486V205H472.5ZM475.5 202C475.097 202 474.747 201.851 474.448 201.552C474.149 201.253 474 200.903 474 200.5V191.5C474 191.087 474.149 190.734 474.448 190.441C474.747 190.147 475.097 190 475.5 190H479.021L481.021 192H486.5C486.913 192 487.266 192.147 487.559 192.441C487.853 192.734 488 193.088 488 193.5V200.5C488 200.903 487.853 201.253 487.559 201.552C487.266 201.851 486.913 202 486.5 202H475.5ZM475.5 200.5H486.5V193.5H480.417L478.417 191.5H475.5V200.5Z" fill="#006590"/>
</g>
<path d="M466.793 227V217.2H472.883V218.684H468.417V221.428H472.239V222.912H468.417V227H466.793ZM474.294 227V220H475.848V227H474.294ZM475.078 218.67C474.826 218.67 474.607 218.581 474.42 218.404C474.243 218.217 474.154 217.998 474.154 217.746C474.154 217.494 474.243 217.279 474.42 217.102C474.607 216.925 474.826 216.836 475.078 216.836C475.33 216.836 475.545 216.925 475.722 217.102C475.909 217.279 476.002 217.494 476.002 217.746C476.002 217.998 475.909 218.217 475.722 218.404C475.545 218.581 475.33 218.67 475.078 218.67ZM477.696 227V217.2H479.264V227H477.696ZM484.127 227.168C483.445 227.168 482.839 227.014 482.307 226.706C481.784 226.389 481.369 225.955 481.061 225.404C480.762 224.853 480.613 224.219 480.613 223.5C480.613 222.781 480.767 222.147 481.075 221.596C481.383 221.045 481.803 220.616 482.335 220.308C482.876 219.991 483.492 219.832 484.183 219.832C484.808 219.832 485.373 219.995 485.877 220.322C486.381 220.639 486.777 221.101 487.067 221.708C487.365 222.315 487.515 223.038 487.515 223.878H482.013L482.223 223.682C482.223 224.111 482.316 224.485 482.503 224.802C482.689 225.11 482.937 225.348 483.245 225.516C483.553 225.684 483.893 225.768 484.267 225.768C484.696 225.768 485.051 225.675 485.331 225.488C485.611 225.292 485.83 225.04 485.989 224.732L487.375 225.32C487.179 225.693 486.927 226.02 486.619 226.3C486.32 226.58 485.961 226.795 485.541 226.944C485.13 227.093 484.659 227.168 484.127 227.168ZM482.321 222.87L482.097 222.674H486.045L485.835 222.87C485.835 222.487 485.751 222.175 485.583 221.932C485.415 221.68 485.2 221.493 484.939 221.372C484.687 221.241 484.421 221.176 484.141 221.176C483.861 221.176 483.581 221.241 483.301 221.372C483.021 221.493 482.787 221.68 482.601 221.932C482.414 222.175 482.321 222.487 482.321 222.87ZM491.264 227.168C490.797 227.168 490.368 227.098 489.976 226.958C489.584 226.818 489.248 226.622 488.968 226.37C488.688 226.109 488.473 225.805 488.324 225.46L489.682 224.858C489.822 225.119 490.027 225.339 490.298 225.516C490.578 225.693 490.886 225.782 491.222 225.782C491.586 225.782 491.875 225.721 492.09 225.6C492.314 225.469 492.426 225.292 492.426 225.068C492.426 224.853 492.342 224.69 492.174 224.578C492.006 224.457 491.768 224.359 491.46 224.284L490.802 224.102C490.139 223.934 489.621 223.668 489.248 223.304C488.874 222.931 488.688 222.506 488.688 222.03C488.688 221.33 488.912 220.789 489.36 220.406C489.817 220.023 490.47 219.832 491.32 219.832C491.749 219.832 492.141 219.897 492.496 220.028C492.86 220.149 493.172 220.327 493.434 220.56C493.695 220.784 493.877 221.05 493.98 221.358L492.678 221.946C492.584 221.713 492.407 221.535 492.146 221.414C491.884 221.283 491.595 221.218 491.278 221.218C490.96 221.218 490.713 221.288 490.536 221.428C490.358 221.559 490.27 221.745 490.27 221.988C490.27 222.128 490.349 222.259 490.508 222.38C490.666 222.492 490.895 222.585 491.194 222.66L492.02 222.856C492.477 222.968 492.85 223.145 493.14 223.388C493.429 223.621 493.644 223.887 493.784 224.186C493.924 224.475 493.994 224.769 493.994 225.068C493.994 225.488 493.872 225.857 493.63 226.174C493.396 226.491 493.074 226.739 492.664 226.916C492.253 227.084 491.786 227.168 491.264 227.168Z" fill="#21333F"/>
<defs>
<filter id="filter0_dd_12853_37685" x="156" y="0" width="424" height="276" filterUnits="userSpaceOnUse" color-interpolation-filters="sRGB">
<feFlood flood-opacity="0" result="BackgroundImageFix"/>
<feColorMatrix in="SourceAlpha" type="matrix" values="0 0 0 0 0 0 0 0 0 0 0 0 0 0 0 0 0 0 127 0" result="hardAlpha"/>
<feOffset dx="48" dy="48"/>
<feGaussianBlur stdDeviation="48"/>
<feColorMatrix type="matrix" values="0 0 0 0 0 0 0 0 0 0.396078 0 0 0 0 0.564706 0 0 0 0.12 0"/>
<feBlend mode="normal" in2="BackgroundImageFix" result="effect1_dropShadow_12853_37685"/>
<feColorMatrix in="SourceAlpha" type="matrix" values="0 0 0 0 0 0 0 0 0 0 0 0 0 0 0 0 0 0 127 0" result="hardAlpha"/>
<feMorphology radius="1" operator="dilate" in="SourceAlpha" result="effect2_dropShadow_12853_37685"/>
<feOffset/>
<feColorMatrix type="matrix" values="0 0 0 0 0 0 0 0 0 0 0 0 0 0 0 0 0 0 0.12 0"/>
<feBlend mode="normal" in2="effect1_dropShadow_12853_37685" result="effect2_dropShadow_12853_37685"/>
<feBlend mode="normal" in="SourceGraphic" in2="effect2_dropShadow_12853_37685" result="shape"/>
</filter>
<radialGradient id="paint0_radial_12853_37685" cx="0" cy="0" r="1" gradientUnits="userSpaceOnUse" gradientTransform="translate(204 48) rotate(19.9037) scale(246.739 350.117)">
<stop stop-color="#87CEFF" stop-opacity="0"/>
<stop offset="1" stop-color="#87CEFF"/>
</radialGradient>
<clipPath id="clip0_12853_37685">
<rect x="204" y="48" width="232" height="84" rx="24" fill="white"/>
</clipPath>
</defs>
</svg>
