<svg width="699" height="403" viewBox="0 0 699 403" fill="none" xmlns="http://www.w3.org/2000/svg">
<g filter="url(#filter0_d)">
<mask id="path-1-inside-1" fill="white">
<path fill-rule="evenodd" clip-rule="evenodd" d="M642 25H176V196H642V25ZM208 49C208 53.4183 204.418 57 200 57C195.582 57 192 53.4183 192 49C192 44.5817 195.582 41 200 41C204.418 41 208 44.5817 208 49ZM615 176C615 180.418 611.418 184 607 184C602.582 184 599 180.418 599 176C599 171.582 602.582 168 607 168C611.418 168 615 171.582 615 176ZM443 184C447.418 184 451 180.418 451 176C451 171.582 447.418 168 443 168C438.582 168 435 171.582 435 176C435 180.418 438.582 184 443 184ZM257 176C257 180.418 253.418 184 249 184C244.582 184 241 180.418 241 176C241 171.582 244.582 168 249 168C253.418 168 257 171.582 257 176Z"/>
</mask>
<path fill-rule="evenodd" clip-rule="evenodd" d="M642 25H176V196H642V25ZM208 49C208 53.4183 204.418 57 200 57C195.582 57 192 53.4183 192 49C192 44.5817 195.582 41 200 41C204.418 41 208 44.5817 208 49ZM615 176C615 180.418 611.418 184 607 184C602.582 184 599 180.418 599 176C599 171.582 602.582 168 607 168C611.418 168 615 171.582 615 176ZM443 184C447.418 184 451 180.418 451 176C451 171.582 447.418 168 443 168C438.582 168 435 171.582 435 176C435 180.418 438.582 184 443 184ZM257 176C257 180.418 253.418 184 249 184C244.582 184 241 180.418 241 176C241 171.582 244.582 168 249 168C253.418 168 257 171.582 257 176Z" fill="#99DBFF"/>
<path d="M176 25V23H174V25H176ZM642 25H644V23H642V25ZM176 196H174V198H176V196ZM642 196V198H644V196H642ZM176 27H642V23H176V27ZM178 196V25H174V196H178ZM642 194H176V198H642V194ZM640 25V196H644V25H640ZM200 59C205.523 59 210 54.5228 210 49H206C206 52.3137 203.314 55 200 55V59ZM190 49C190 54.5228 194.477 59 200 59V55C196.686 55 194 52.3137 194 49H190ZM200 39C194.477 39 190 43.4772 190 49H194C194 45.6863 196.686 43 200 43V39ZM210 49C210 43.4772 205.523 39 200 39V43C203.314 43 206 45.6863 206 49H210ZM607 186C612.523 186 617 181.523 617 176H613C613 179.314 610.314 182 607 182V186ZM597 176C597 181.523 601.477 186 607 186V182C603.686 182 601 179.314 601 176H597ZM607 166C601.477 166 597 170.477 597 176H601C601 172.686 603.686 170 607 170V166ZM617 176C617 170.477 612.523 166 607 166V170C610.314 170 613 172.686 613 176H617ZM449 176C449 179.314 446.314 182 443 182V186C448.523 186 453 181.523 453 176H449ZM443 170C446.314 170 449 172.686 449 176H453C453 170.477 448.523 166 443 166V170ZM437 176C437 172.686 439.686 170 443 170V166C437.477 166 433 170.477 433 176H437ZM443 182C439.686 182 437 179.314 437 176H433C433 181.523 437.477 186 443 186V182ZM249 186C254.523 186 259 181.523 259 176H255C255 179.314 252.314 182 249 182V186ZM239 176C239 181.523 243.477 186 249 186V182C245.686 182 243 179.314 243 176H239ZM249 166C243.477 166 239 170.477 239 176H243C243 172.686 245.686 170 249 170V166ZM259 176C259 170.477 254.523 166 249 166V170C252.314 170 255 172.686 255 176H259Z" fill="black" mask="url(#path-1-inside-1)"/>
<path d="M320.584 46.8379L326.346 49.0254V51.3984L318.172 47.7559V45.8711L326.346 42.2383V44.6113L320.584 46.8379ZM337.137 49.6895H331.629L330.477 53H327.908L333.279 38.7812H335.496L340.877 53H338.299L337.137 49.6895ZM332.322 47.6973H336.443L334.383 41.7988L332.322 47.6973ZM351.053 47.8242C351.053 49.4583 350.682 50.7637 349.939 51.7402C349.197 52.7103 348.201 53.1953 346.951 53.1953C345.792 53.1953 344.865 52.8145 344.168 52.0527V57.0625H341.795V42.4336H343.982L344.08 43.5078C344.777 42.6615 345.724 42.2383 346.922 42.2383C348.211 42.2383 349.22 42.7201 349.949 43.6836C350.685 44.6406 351.053 45.972 351.053 47.6777V47.8242ZM348.689 47.6191C348.689 46.5645 348.478 45.7279 348.055 45.1094C347.638 44.4909 347.039 44.1816 346.258 44.1816C345.288 44.1816 344.591 44.582 344.168 45.3828V50.0703C344.598 50.8906 345.301 51.3008 346.277 51.3008C347.033 51.3008 347.622 50.998 348.045 50.3926C348.475 49.7806 348.689 48.8561 348.689 47.6191ZM362.322 47.8242C362.322 49.4583 361.951 50.7637 361.209 51.7402C360.467 52.7103 359.471 53.1953 358.221 53.1953C357.062 53.1953 356.134 52.8145 355.438 52.0527V57.0625H353.064V42.4336H355.252L355.35 43.5078C356.046 42.6615 356.993 42.2383 358.191 42.2383C359.48 42.2383 360.49 42.7201 361.219 43.6836C361.954 44.6406 362.322 45.972 362.322 47.6777V47.8242ZM359.959 47.6191C359.959 46.5645 359.747 45.7279 359.324 45.1094C358.908 44.4909 358.309 44.1816 357.527 44.1816C356.557 44.1816 355.861 44.582 355.438 45.3828V50.0703C355.867 50.8906 356.57 51.3008 357.547 51.3008C358.302 51.3008 358.891 50.998 359.314 50.3926C359.744 49.7806 359.959 48.8561 359.959 47.6191ZM365.008 54.2207H363.143L368.738 38.7812H370.604L365.008 54.2207ZM378.318 46.7891L372.283 44.5723V42.2383L380.721 45.8711V47.7559L372.283 51.3887V49.0547L378.318 46.7891Z" fill="black"/>
</g>
<g filter="url(#filter1_d)">
<path d="M93.7071 268.707L139.293 314.293C139.746 314.746 140 315.36 140 316C140 316.64 139.746 317.254 139.293 317.707L93.7071 363.293C93.2544 363.746 92.6403 364 92 364C91.3597 364 90.7456 363.746 90.2929 363.293L44.7071 317.707C44.2544 317.254 44 316.64 44 316C44 315.36 44.2544 314.746 44.7071 314.293L90.2929 268.707C90.7456 268.254 91.3597 268 92 268C92.6403 268 93.2544 268.254 93.7071 268.707Z" fill="white"/>
<path d="M93 269.414L138.586 315C138.851 315.265 139 315.625 139 316C139 316.375 138.851 316.735 138.586 317L93 362.586C92.7348 362.851 92.3751 363 92 363C91.6249 363 91.2652 362.851 91 362.586L45.4142 317C45.149 316.735 45 316.375 45 316C45 315.625 45.149 315.265 45.4142 315L91 269.414C91.2652 269.149 91.6249 269 92 269C92.3751 269 92.7348 269.149 93 269.414Z" stroke="black" stroke-width="2"/>
</g>
<path d="M85.8682 295.047V301.603C85.8682 302.692 85.5264 303.553 84.8428 304.187C84.1637 304.82 83.234 305.137 82.0537 305.137C80.8916 305.137 79.9687 304.829 79.2852 304.214C78.6016 303.599 78.2529 302.753 78.2393 301.678V295.047H80.29V301.616C80.29 302.268 80.445 302.744 80.7549 303.045C81.0693 303.341 81.5023 303.489 82.0537 303.489C83.2067 303.489 83.7923 302.883 83.8105 301.671V295.047H85.8682ZM91.4258 302.956C91.4258 302.715 91.305 302.525 91.0635 302.389C90.8265 302.247 90.4437 302.122 89.915 302.013C88.1559 301.644 87.2764 300.896 87.2764 299.771C87.2764 299.114 87.5475 298.567 88.0898 298.13C88.6367 297.688 89.3499 297.467 90.2295 297.467C91.1683 297.467 91.918 297.688 92.4785 298.13C93.0436 298.572 93.3262 299.146 93.3262 299.853H91.3506C91.3506 299.57 91.2594 299.338 91.0771 299.155C90.8949 298.968 90.61 298.875 90.2227 298.875C89.89 298.875 89.6325 298.95 89.4502 299.101C89.2679 299.251 89.1768 299.442 89.1768 299.675C89.1768 299.894 89.2793 300.071 89.4844 300.208C89.694 300.34 90.0449 300.456 90.5371 300.557C91.0293 300.652 91.444 300.762 91.7812 300.885C92.8249 301.268 93.3467 301.931 93.3467 302.874C93.3467 303.549 93.0573 304.095 92.4785 304.515C91.8997 304.929 91.1523 305.137 90.2363 305.137C89.6165 305.137 89.0651 305.027 88.582 304.809C88.1035 304.585 87.7275 304.282 87.4541 303.899C87.1807 303.512 87.0439 303.095 87.0439 302.648H88.917C88.9352 302.999 89.0651 303.268 89.3066 303.455C89.5482 303.642 89.8717 303.735 90.2773 303.735C90.6556 303.735 90.9404 303.665 91.1318 303.523C91.3278 303.378 91.4258 303.188 91.4258 302.956ZM98.0293 305.137C96.9447 305.137 96.0605 304.804 95.377 304.139C94.6979 303.473 94.3584 302.587 94.3584 301.479V301.288C94.3584 300.545 94.502 299.882 94.7891 299.299C95.0762 298.711 95.4818 298.26 96.0059 297.945C96.5345 297.626 97.1361 297.467 97.8105 297.467C98.8223 297.467 99.6175 297.786 100.196 298.424C100.78 299.062 101.071 299.966 101.071 301.138V301.944H96.3613C96.4251 302.427 96.6165 302.815 96.9355 303.106C97.2591 303.398 97.667 303.544 98.1592 303.544C98.9202 303.544 99.515 303.268 99.9434 302.717L100.914 303.804C100.618 304.223 100.217 304.551 99.7109 304.788C99.2051 305.021 98.6445 305.137 98.0293 305.137ZM97.8037 299.066C97.4118 299.066 97.0928 299.199 96.8467 299.463C96.6051 299.727 96.4502 300.105 96.3818 300.598H99.1299V300.44C99.1208 300.003 99.0023 299.666 98.7744 299.429C98.5465 299.187 98.223 299.066 97.8037 299.066ZM106.355 299.456C106.087 299.42 105.85 299.401 105.645 299.401C104.897 299.401 104.407 299.654 104.175 300.16V305H102.199V297.604H104.065L104.12 298.485C104.517 297.806 105.066 297.467 105.768 297.467C105.986 297.467 106.191 297.496 106.383 297.556L106.355 299.456ZM71.4102 318.956C71.4102 318.715 71.2894 318.525 71.0479 318.389C70.8109 318.247 70.4281 318.122 69.8994 318.013C68.1403 317.644 67.2607 316.896 67.2607 315.771C67.2607 315.114 67.5319 314.567 68.0742 314.13C68.6211 313.688 69.3343 313.467 70.2139 313.467C71.1527 313.467 71.9023 313.688 72.4629 314.13C73.028 314.572 73.3105 315.146 73.3105 315.853H71.335C71.335 315.57 71.2438 315.338 71.0615 315.155C70.8792 314.968 70.5944 314.875 70.207 314.875C69.8743 314.875 69.6169 314.95 69.4346 315.101C69.2523 315.251 69.1611 315.442 69.1611 315.675C69.1611 315.894 69.2637 316.071 69.4687 316.208C69.6784 316.34 70.0293 316.456 70.5215 316.557C71.0137 316.652 71.4284 316.762 71.7656 316.885C72.8092 317.268 73.3311 317.931 73.3311 318.874C73.3311 319.549 73.0417 320.095 72.4629 320.515C71.8841 320.929 71.1367 321.137 70.2207 321.137C69.6009 321.137 69.0495 321.027 68.5664 320.809C68.0879 320.585 67.7119 320.282 67.4385 319.899C67.165 319.512 67.0283 319.095 67.0283 318.648H68.9014C68.9196 318.999 69.0495 319.268 69.291 319.455C69.5326 319.642 69.8561 319.735 70.2617 319.735C70.64 319.735 70.9248 319.665 71.1162 319.523C71.3122 319.378 71.4102 319.188 71.4102 318.956ZM79.0391 320.248C78.5514 320.84 77.877 321.137 77.0156 321.137C76.2227 321.137 75.6165 320.909 75.1973 320.453C74.7826 319.997 74.5706 319.33 74.5615 318.45V313.604H76.5371V318.382C76.5371 319.152 76.888 319.537 77.5898 319.537C78.2598 319.537 78.7201 319.305 78.9707 318.84V313.604H80.9531V321H79.0937L79.0391 320.248ZM89.1084 317.37C89.1084 318.555 88.8555 319.48 88.3496 320.146C87.8437 320.806 87.1374 321.137 86.2305 321.137C85.4284 321.137 84.7881 320.829 84.3096 320.214L84.2207 321H82.4434V310.5H84.4189V314.267C84.8747 313.733 85.474 313.467 86.2168 313.467C87.1191 313.467 87.8255 313.799 88.3359 314.465C88.8509 315.126 89.1084 316.058 89.1084 317.261V317.37ZM87.1328 317.227C87.1328 316.479 87.0143 315.935 86.7773 315.593C86.5404 315.246 86.1872 315.073 85.7178 315.073C85.0889 315.073 84.6559 315.331 84.4189 315.846V318.765C84.6605 319.284 85.098 319.544 85.7314 319.544C86.3695 319.544 86.7887 319.229 86.9893 318.601C87.085 318.3 87.1328 317.842 87.1328 317.227ZM92.1846 313.604L92.2461 314.431C92.7702 313.788 93.4788 313.467 94.3721 313.467C95.3245 313.467 95.9785 313.843 96.334 314.595C96.8535 313.843 97.5941 313.467 98.5557 313.467C99.3577 313.467 99.9548 313.701 100.347 314.171C100.739 314.636 100.935 315.338 100.935 316.276V321H98.9521V316.283C98.9521 315.864 98.8701 315.559 98.7061 315.367C98.542 315.171 98.2526 315.073 97.8379 315.073C97.2454 315.073 96.8353 315.356 96.6074 315.921L96.6143 321H94.6387V316.29C94.6387 315.862 94.5544 315.552 94.3857 315.36C94.2171 315.169 93.93 315.073 93.5244 315.073C92.9639 315.073 92.5583 315.306 92.3076 315.771V321H90.332V313.604H92.1846ZM104.544 321H102.562V313.604H104.544V321ZM102.445 311.689C102.445 311.393 102.543 311.149 102.739 310.958C102.94 310.767 103.211 310.671 103.553 310.671C103.89 310.671 104.159 310.767 104.359 310.958C104.56 311.149 104.66 311.393 104.66 311.689C104.66 311.99 104.558 312.236 104.353 312.428C104.152 312.619 103.885 312.715 103.553 312.715C103.22 312.715 102.951 312.619 102.746 312.428C102.546 312.236 102.445 311.99 102.445 311.689ZM108.543 311.785V313.604H109.808V315.053H108.543V318.744C108.543 319.018 108.595 319.214 108.7 319.332C108.805 319.451 109.006 319.51 109.302 319.51C109.521 319.51 109.714 319.494 109.883 319.462V320.959C109.495 321.077 109.097 321.137 108.687 321.137C107.301 321.137 106.595 320.437 106.567 319.038V315.053H105.487V313.604H106.567V311.785H108.543ZM114.914 318.956C114.914 318.715 114.793 318.525 114.552 318.389C114.315 318.247 113.932 318.122 113.403 318.013C111.644 317.644 110.765 316.896 110.765 315.771C110.765 315.114 111.036 314.567 111.578 314.13C112.125 313.688 112.838 313.467 113.718 313.467C114.657 313.467 115.406 313.688 115.967 314.13C116.532 314.572 116.814 315.146 116.814 315.853H114.839C114.839 315.57 114.748 315.338 114.565 315.155C114.383 314.968 114.098 314.875 113.711 314.875C113.378 314.875 113.121 314.95 112.938 315.101C112.756 315.251 112.665 315.442 112.665 315.675C112.665 315.894 112.768 316.071 112.973 316.208C113.182 316.34 113.533 316.456 114.025 316.557C114.518 316.652 114.932 316.762 115.27 316.885C116.313 317.268 116.835 317.931 116.835 318.874C116.835 319.549 116.546 320.095 115.967 320.515C115.388 320.929 114.641 321.137 113.725 321.137C113.105 321.137 112.553 321.027 112.07 320.809C111.592 320.585 111.216 320.282 110.942 319.899C110.669 319.512 110.532 319.095 110.532 318.648H112.405C112.423 318.999 112.553 319.268 112.795 319.455C113.036 319.642 113.36 319.735 113.766 319.735C114.144 319.735 114.429 319.665 114.62 319.523C114.816 319.378 114.914 319.188 114.914 318.956ZM78.2119 337V331.053H77.1113V329.604H78.2119V328.975C78.2119 328.145 78.4489 327.503 78.9229 327.047C79.4014 326.587 80.069 326.356 80.9258 326.356C81.1992 326.356 81.5342 326.402 81.9307 326.493L81.9102 328.024C81.7461 327.983 81.5456 327.963 81.3086 327.963C80.5658 327.963 80.1943 328.312 80.1943 329.009V329.604H81.6641V331.053H80.1943V337H78.2119ZM82.3818 333.233C82.3818 332.5 82.5231 331.846 82.8057 331.271C83.0882 330.697 83.4938 330.253 84.0225 329.938C84.5557 329.624 85.1732 329.467 85.875 329.467C86.873 329.467 87.6865 329.772 88.3154 330.383C88.9489 330.993 89.3021 331.823 89.375 332.871L89.3887 333.377C89.3887 334.512 89.0719 335.423 88.4385 336.111C87.805 336.795 86.9551 337.137 85.8887 337.137C84.8223 337.137 83.9701 336.795 83.332 336.111C82.6986 335.428 82.3818 334.498 82.3818 333.322V333.233ZM84.3574 333.377C84.3574 334.079 84.4896 334.617 84.7539 334.99C85.0182 335.359 85.3965 335.544 85.8887 335.544C86.3672 335.544 86.7409 335.362 87.0098 334.997C87.2786 334.628 87.4131 334.04 87.4131 333.233C87.4131 332.545 87.2786 332.012 87.0098 331.634C86.7409 331.256 86.3626 331.066 85.875 331.066C85.3919 331.066 85.0182 331.256 84.7539 331.634C84.4896 332.007 84.3574 332.589 84.3574 333.377ZM94.7617 331.456C94.4928 331.42 94.2559 331.401 94.0508 331.401C93.3034 331.401 92.8135 331.654 92.5811 332.16V337H90.6055V329.604H92.4717L92.5264 330.485C92.9228 329.806 93.472 329.467 94.1738 329.467C94.3926 329.467 94.5977 329.496 94.7891 329.556L94.7617 331.456ZM97.5713 329.604L97.6328 330.431C98.1569 329.788 98.8656 329.467 99.7588 329.467C100.711 329.467 101.365 329.843 101.721 330.595C102.24 329.843 102.981 329.467 103.942 329.467C104.744 329.467 105.341 329.701 105.733 330.171C106.125 330.636 106.321 331.338 106.321 332.276V337H104.339V332.283C104.339 331.864 104.257 331.559 104.093 331.367C103.929 331.171 103.639 331.073 103.225 331.073C102.632 331.073 102.222 331.356 101.994 331.921L102.001 337H100.025V332.29C100.025 331.862 99.9411 331.552 99.7725 331.36C99.6038 331.169 99.3167 331.073 98.9111 331.073C98.3506 331.073 97.945 331.306 97.6943 331.771V337H95.7187V329.604H97.5713Z" fill="black"/>
<path d="M140 316H177" stroke="black" stroke-width="2" stroke-linecap="square"/>
<rect x="176" y="196" width="9" height="96" fill="black"/>
<rect x="178" y="194" width="4" height="100" fill="#99DBFF"/>
<g filter="url(#filter2_d)">
<mask id="path-10-inside-2" fill="white">
<path fill-rule="evenodd" clip-rule="evenodd" d="M642 292H176V340H642V292ZM257 316C257 320.418 253.418 324 249 324C244.582 324 241 320.418 241 316C241 311.582 244.582 308 249 308C253.418 308 257 311.582 257 316ZM615 316C615 320.418 611.418 324 607 324C602.582 324 599 320.418 599 316C599 311.582 602.582 308 607 308C611.418 308 615 311.582 615 316Z"/>
</mask>
<path fill-rule="evenodd" clip-rule="evenodd" d="M642 292H176V340H642V292ZM257 316C257 320.418 253.418 324 249 324C244.582 324 241 320.418 241 316C241 311.582 244.582 308 249 308C253.418 308 257 311.582 257 316ZM615 316C615 320.418 611.418 324 607 324C602.582 324 599 320.418 599 316C599 311.582 602.582 308 607 308C611.418 308 615 311.582 615 316Z" fill="#EFC3FF"/>
<path d="M176 292V290H174V292H176ZM642 292H644V290H642V292ZM176 340H174V342H176V340ZM642 340V342H644V340H642ZM176 294H642V290H176V294ZM178 340V292H174V340H178ZM642 338H176V342H642V338ZM640 292V340H644V292H640ZM249 326C254.523 326 259 321.523 259 316H255C255 319.314 252.314 322 249 322V326ZM239 316C239 321.523 243.477 326 249 326V322C245.686 322 243 319.314 243 316H239ZM249 306C243.477 306 239 310.477 239 316H243C243 312.686 245.686 310 249 310V306ZM259 316C259 310.477 254.523 306 249 306V310C252.314 310 255 312.686 255 316H259ZM607 326C612.523 326 617 321.523 617 316H613C613 319.314 610.314 322 607 322V326ZM597 316C597 321.523 601.477 326 607 326V322C603.686 322 601 319.314 601 316H597ZM607 306C601.477 306 597 310.477 597 316H601C601 312.686 603.686 310 607 310V306ZM617 316C617 310.477 612.523 306 607 306V310C610.314 310 613 312.686 613 316H617Z" fill="black" mask="url(#path-10-inside-2)"/>
<path d="M363.404 316.775L367.301 318.149V320.063L361.415 317.568V315.955L367.301 313.46V315.374L363.404 316.775ZM374.219 318.389C374.219 318.001 374.082 317.705 373.809 317.5C373.535 317.29 373.043 317.072 372.332 316.844C371.621 316.611 371.058 316.383 370.644 316.16C369.513 315.549 368.948 314.727 368.948 313.692C368.948 313.155 369.099 312.676 369.399 312.257C369.705 311.833 370.14 311.503 370.705 311.266C371.275 311.029 371.913 310.91 372.619 310.91C373.33 310.91 373.964 311.04 374.52 311.3C375.076 311.555 375.506 311.917 375.812 312.387C376.121 312.856 376.276 313.389 376.276 313.986H374.226C374.226 313.531 374.082 313.177 373.795 312.927C373.508 312.672 373.104 312.544 372.585 312.544C372.084 312.544 371.694 312.651 371.416 312.865C371.138 313.075 370.999 313.353 370.999 313.699C370.999 314.023 371.161 314.294 371.484 314.513C371.812 314.731 372.293 314.937 372.927 315.128C374.093 315.479 374.943 315.914 375.477 316.434C376.01 316.953 376.276 317.6 376.276 318.375C376.276 319.236 375.951 319.913 375.299 320.405C374.647 320.893 373.77 321.137 372.667 321.137C371.901 321.137 371.204 320.998 370.575 320.72C369.946 320.437 369.465 320.052 369.133 319.564C368.805 319.077 368.641 318.512 368.641 317.869H370.698C370.698 318.967 371.354 319.517 372.667 319.517C373.155 319.517 373.535 319.419 373.809 319.223C374.082 319.022 374.219 318.744 374.219 318.389ZM379.626 321H377.644V313.604H379.626V321ZM377.527 311.689C377.527 311.393 377.625 311.149 377.821 310.958C378.022 310.767 378.293 310.671 378.635 310.671C378.972 310.671 379.241 310.767 379.441 310.958C379.642 311.149 379.742 311.393 379.742 311.689C379.742 311.99 379.64 312.236 379.435 312.428C379.234 312.619 378.967 312.715 378.635 312.715C378.302 312.715 378.033 312.619 377.828 312.428C377.628 312.236 377.527 311.99 377.527 311.689ZM383.112 313.604L383.174 314.431C383.698 313.788 384.407 313.467 385.3 313.467C386.252 313.467 386.906 313.843 387.262 314.595C387.781 313.843 388.522 313.467 389.483 313.467C390.285 313.467 390.882 313.701 391.274 314.171C391.666 314.636 391.862 315.338 391.862 316.276V321H389.88V316.283C389.88 315.864 389.798 315.559 389.634 315.367C389.47 315.171 389.18 315.073 388.766 315.073C388.173 315.073 387.763 315.356 387.535 315.921L387.542 321H385.566V316.29C385.566 315.862 385.482 315.552 385.313 315.36C385.145 315.169 384.858 315.073 384.452 315.073C383.892 315.073 383.486 315.306 383.235 315.771V321H381.26V313.604H383.112ZM400.045 317.37C400.045 318.509 399.785 319.423 399.266 320.111C398.751 320.795 398.053 321.137 397.174 321.137C396.426 321.137 395.823 320.877 395.362 320.357V323.844H393.387V313.604H395.219L395.287 314.328C395.766 313.754 396.39 313.467 397.16 313.467C398.072 313.467 398.78 313.804 399.286 314.479C399.792 315.153 400.045 316.083 400.045 317.268V317.37ZM398.069 317.227C398.069 316.538 397.946 316.007 397.7 315.634C397.459 315.26 397.105 315.073 396.641 315.073C396.021 315.073 395.595 315.31 395.362 315.784V318.812C395.604 319.3 396.035 319.544 396.654 319.544C397.598 319.544 398.069 318.771 398.069 317.227ZM403.36 321H401.378V310.5H403.36V321ZM408.398 321.137C407.314 321.137 406.43 320.804 405.746 320.139C405.067 319.473 404.728 318.587 404.728 317.479V317.288C404.728 316.545 404.871 315.882 405.158 315.299C405.445 314.711 405.851 314.26 406.375 313.945C406.904 313.626 407.505 313.467 408.18 313.467C409.191 313.467 409.987 313.786 410.565 314.424C411.149 315.062 411.44 315.966 411.44 317.138V317.944H406.73C406.794 318.427 406.986 318.815 407.305 319.106C407.628 319.398 408.036 319.544 408.528 319.544C409.289 319.544 409.884 319.268 410.312 318.717L411.283 319.804C410.987 320.223 410.586 320.551 410.08 320.788C409.574 321.021 409.014 321.137 408.398 321.137ZM408.173 315.066C407.781 315.066 407.462 315.199 407.216 315.463C406.974 315.727 406.819 316.105 406.751 316.598H409.499V316.44C409.49 316.003 409.371 315.666 409.144 315.429C408.916 315.187 408.592 315.066 408.173 315.066ZM418.687 316.933H414.749V321H412.698V311.047H419.179V312.708H414.749V315.278H418.687V316.933ZM419.78 317.233C419.78 316.5 419.922 315.846 420.204 315.271C420.487 314.697 420.892 314.253 421.421 313.938C421.954 313.624 422.572 313.467 423.273 313.467C424.271 313.467 425.085 313.772 425.714 314.383C426.347 314.993 426.701 315.823 426.773 316.871L426.787 317.377C426.787 318.512 426.47 319.423 425.837 320.111C425.203 320.795 424.354 321.137 423.287 321.137C422.221 321.137 421.368 320.795 420.73 320.111C420.097 319.428 419.78 318.498 419.78 317.322V317.233ZM421.756 317.377C421.756 318.079 421.888 318.617 422.152 318.99C422.417 319.359 422.795 319.544 423.287 319.544C423.766 319.544 424.139 319.362 424.408 318.997C424.677 318.628 424.812 318.04 424.812 317.233C424.812 316.545 424.677 316.012 424.408 315.634C424.139 315.256 423.761 315.066 423.273 315.066C422.79 315.066 422.417 315.256 422.152 315.634C421.888 316.007 421.756 316.589 421.756 317.377ZM432.16 315.456C431.891 315.42 431.654 315.401 431.449 315.401C430.702 315.401 430.212 315.654 429.979 316.16V321H428.004V313.604H429.87L429.925 314.485C430.321 313.806 430.87 313.467 431.572 313.467C431.791 313.467 431.996 313.496 432.188 313.556L432.16 315.456ZM434.97 313.604L435.031 314.431C435.555 313.788 436.264 313.467 437.157 313.467C438.11 313.467 438.764 313.843 439.119 314.595C439.639 313.843 440.379 313.467 441.341 313.467C442.143 313.467 442.74 313.701 443.132 314.171C443.524 314.636 443.72 315.338 443.72 316.276V321H441.737V316.283C441.737 315.864 441.655 315.559 441.491 315.367C441.327 315.171 441.038 315.073 440.623 315.073C440.031 315.073 439.62 315.356 439.393 315.921L439.399 321H437.424V316.29C437.424 315.862 437.34 315.552 437.171 315.36C437.002 315.169 436.715 315.073 436.31 315.073C435.749 315.073 435.343 315.306 435.093 315.771V321H433.117V313.604H434.97ZM445.866 321.854H444.396L448.061 311.047H449.53L445.866 321.854ZM454.514 316.755L450.542 315.367V313.467L456.496 315.962V317.568L450.542 320.07V318.163L454.514 316.755Z" fill="black"/>
</g>
<path d="M92 268V58.5C92 54.0817 95.5817 50.5 100 50.5H241C245.418 50.5 249 54.0817 249 58.5V360.5C249 364.918 252.582 368.5 257 368.5H598.5C602.918 368.5 606.5 364.918 606.5 360.5V106C606.5 101.582 602.918 98 598.5 98H450.5C446.082 98 442.5 101.582 442.5 106V287" stroke="black" stroke-width="2" stroke-linecap="square"/>
<g filter="url(#filter3_d)">
<mask id="path-14-inside-3" fill="white">
<path d="M200 257C200 265.837 207.163 273 216 273H328C336.837 273 344 265.837 344 257C344 248.163 336.837 241 328 241H216C207.163 241 200 248.163 200 257Z"/>
</mask>
<path d="M200 257C200 265.837 207.163 273 216 273H328C336.837 273 344 265.837 344 257C344 248.163 336.837 241 328 241H216C207.163 241 200 248.163 200 257Z" fill="white"/>
<path d="M216 271H328V275H216V271ZM328 243H216V239H328V243ZM216 243C208.268 243 202 249.268 202 257H198C198 247.059 206.059 239 216 239V243ZM342 257C342 249.268 335.732 243 328 243V239C337.941 239 346 247.059 346 257H342ZM328 271C335.732 271 342 264.732 342 257H346C346 266.941 337.941 275 328 275V271ZM216 275C206.059 275 198 266.941 198 257H202C202 264.732 208.268 271 216 271V275Z" fill="black" mask="url(#path-14-inside-3)"/>
<path d="M221.531 257.249C221.531 258.229 221.358 259.088 221.012 259.826C220.665 260.564 220.169 261.134 219.521 261.535C218.879 261.936 218.141 262.137 217.307 262.137C216.482 262.137 215.746 261.938 215.099 261.542C214.451 261.146 213.95 260.58 213.595 259.847C213.239 259.108 213.059 258.261 213.055 257.304V256.812C213.055 255.832 213.23 254.97 213.581 254.228C213.937 253.48 214.436 252.908 215.078 252.512C215.725 252.111 216.464 251.91 217.293 251.91C218.122 251.91 218.858 252.111 219.501 252.512C220.148 252.908 220.647 253.48 220.998 254.228C221.354 254.97 221.531 255.829 221.531 256.805V257.249ZM219.453 256.798C219.453 255.754 219.266 254.961 218.893 254.419C218.519 253.877 217.986 253.605 217.293 253.605C216.605 253.605 216.074 253.874 215.7 254.412C215.326 254.945 215.137 255.729 215.133 256.764V257.249C215.133 258.265 215.32 259.054 215.693 259.614C216.067 260.175 216.605 260.455 217.307 260.455C217.995 260.455 218.523 260.186 218.893 259.648C219.262 259.106 219.449 258.318 219.453 257.283V256.798ZM224.71 254.604L224.771 255.458C225.3 254.797 226.009 254.467 226.897 254.467C227.681 254.467 228.265 254.697 228.647 255.157C229.03 255.618 229.226 256.306 229.235 257.222V262H227.26V257.27C227.26 256.85 227.169 256.547 226.986 256.36C226.804 256.169 226.501 256.073 226.077 256.073C225.521 256.073 225.104 256.31 224.826 256.784V262H222.851V254.604H224.71ZM230.869 262V252.047H233.932C234.807 252.047 235.588 252.245 236.276 252.642C236.969 253.034 237.509 253.594 237.896 254.323C238.284 255.048 238.478 255.873 238.478 256.798V257.256C238.478 258.181 238.286 259.004 237.903 259.724C237.525 260.444 236.99 261.002 236.297 261.398C235.604 261.795 234.823 261.995 233.952 262H230.869ZM232.92 253.708V260.353H233.911C234.713 260.353 235.326 260.09 235.75 259.566C236.174 259.042 236.39 258.293 236.399 257.317V256.791C236.399 255.779 236.19 255.014 235.771 254.494C235.351 253.97 234.738 253.708 233.932 253.708H232.92ZM239.537 258.233C239.537 257.5 239.678 256.846 239.961 256.271C240.243 255.697 240.649 255.253 241.178 254.938C241.711 254.624 242.328 254.467 243.03 254.467C244.028 254.467 244.842 254.772 245.471 255.383C246.104 255.993 246.457 256.823 246.53 257.871L246.544 258.377C246.544 259.512 246.227 260.423 245.594 261.111C244.96 261.795 244.11 262.137 243.044 262.137C241.978 262.137 241.125 261.795 240.487 261.111C239.854 260.428 239.537 259.498 239.537 258.322V258.233ZM241.513 258.377C241.513 259.079 241.645 259.617 241.909 259.99C242.174 260.359 242.552 260.544 243.044 260.544C243.522 260.544 243.896 260.362 244.165 259.997C244.434 259.628 244.568 259.04 244.568 258.233C244.568 257.545 244.434 257.012 244.165 256.634C243.896 256.256 243.518 256.066 243.03 256.066C242.547 256.066 242.174 256.256 241.909 256.634C241.645 257.007 241.513 257.589 241.513 258.377ZM249.579 254.604L249.641 255.458C250.169 254.797 250.878 254.467 251.767 254.467C252.55 254.467 253.134 254.697 253.517 255.157C253.899 255.618 254.095 256.306 254.104 257.222V262H252.129V257.27C252.129 256.85 252.038 256.547 251.855 256.36C251.673 256.169 251.37 256.073 250.946 256.073C250.39 256.073 249.973 256.31 249.695 256.784V262H247.72V254.604H249.579ZM259.013 262.137C257.928 262.137 257.044 261.804 256.36 261.139C255.681 260.473 255.342 259.587 255.342 258.479V258.288C255.342 257.545 255.485 256.882 255.772 256.299C256.06 255.711 256.465 255.26 256.989 254.945C257.518 254.626 258.119 254.467 258.794 254.467C259.806 254.467 260.601 254.786 261.18 255.424C261.763 256.062 262.055 256.966 262.055 258.138V258.944H257.345C257.409 259.427 257.6 259.815 257.919 260.106C258.243 260.398 258.65 260.544 259.143 260.544C259.904 260.544 260.498 260.268 260.927 259.717L261.897 260.804C261.601 261.223 261.2 261.551 260.694 261.788C260.188 262.021 259.628 262.137 259.013 262.137ZM258.787 256.066C258.395 256.066 258.076 256.199 257.83 256.463C257.589 256.727 257.434 257.105 257.365 257.598H260.113V257.44C260.104 257.003 259.986 256.666 259.758 256.429C259.53 256.187 259.206 256.066 258.787 256.066ZM266.382 258.247C266.382 257.112 266.651 256.199 267.188 255.506C267.731 254.813 268.46 254.467 269.376 254.467C270.187 254.467 270.818 254.745 271.27 255.301L271.352 254.604H273.143V261.754C273.143 262.401 272.994 262.964 272.698 263.442C272.407 263.921 271.994 264.285 271.461 264.536C270.928 264.787 270.303 264.912 269.588 264.912C269.046 264.912 268.517 264.803 268.002 264.584C267.487 264.37 267.097 264.092 266.833 263.75L267.708 262.547C268.2 263.098 268.797 263.374 269.499 263.374C270.023 263.374 270.431 263.233 270.723 262.95C271.014 262.672 271.16 262.276 271.16 261.761V261.364C270.704 261.879 270.105 262.137 269.362 262.137C268.474 262.137 267.754 261.79 267.202 261.098C266.655 260.4 266.382 259.478 266.382 258.329V258.247ZM268.357 258.391C268.357 259.061 268.492 259.587 268.761 259.97C269.03 260.348 269.399 260.537 269.868 260.537C270.47 260.537 270.9 260.312 271.16 259.86V256.75C270.896 256.299 270.47 256.073 269.882 256.073C269.408 256.073 269.034 256.267 268.761 256.654C268.492 257.042 268.357 257.62 268.357 258.391ZM278.823 256.456C278.554 256.42 278.317 256.401 278.112 256.401C277.365 256.401 276.875 256.654 276.643 257.16V262H274.667V254.604H276.533L276.588 255.485C276.984 254.806 277.534 254.467 278.235 254.467C278.454 254.467 278.659 254.496 278.851 254.556L278.823 256.456ZM283.861 262C283.77 261.822 283.704 261.601 283.663 261.337C283.185 261.87 282.562 262.137 281.797 262.137C281.072 262.137 280.471 261.927 279.992 261.508C279.518 261.089 279.281 260.56 279.281 259.922C279.281 259.138 279.571 258.536 280.149 258.117C280.733 257.698 281.574 257.486 282.672 257.481H283.581V257.058C283.581 256.716 283.492 256.442 283.314 256.237C283.141 256.032 282.866 255.93 282.487 255.93C282.155 255.93 281.893 256.009 281.701 256.169C281.514 256.328 281.421 256.547 281.421 256.825H279.445C279.445 256.397 279.577 256 279.842 255.636C280.106 255.271 280.48 254.986 280.963 254.781C281.446 254.572 281.988 254.467 282.59 254.467C283.501 254.467 284.224 254.697 284.757 255.157C285.295 255.613 285.563 256.256 285.563 257.085V260.291C285.568 260.993 285.666 261.524 285.857 261.884V262H283.861ZM282.228 260.626C282.519 260.626 282.788 260.562 283.034 260.435C283.28 260.302 283.463 260.127 283.581 259.908V258.637H282.843C281.854 258.637 281.327 258.979 281.264 259.662L281.257 259.778C281.257 260.024 281.343 260.227 281.517 260.387C281.69 260.546 281.927 260.626 282.228 260.626ZM293.746 258.37C293.746 259.555 293.493 260.48 292.987 261.146C292.481 261.806 291.775 262.137 290.868 262.137C290.066 262.137 289.426 261.829 288.947 261.214L288.858 262H287.081V251.5H289.057V255.267C289.512 254.733 290.112 254.467 290.854 254.467C291.757 254.467 292.463 254.799 292.974 255.465C293.489 256.126 293.746 257.058 293.746 258.261V258.37ZM291.771 258.227C291.771 257.479 291.652 256.935 291.415 256.593C291.178 256.246 290.825 256.073 290.355 256.073C289.727 256.073 289.294 256.331 289.057 256.846V259.765C289.298 260.284 289.736 260.544 290.369 260.544C291.007 260.544 291.426 260.229 291.627 259.601C291.723 259.3 291.771 258.842 291.771 258.227ZM298.976 259.956C298.976 259.715 298.855 259.525 298.613 259.389C298.376 259.247 297.993 259.122 297.465 259.013C295.706 258.644 294.826 257.896 294.826 256.771C294.826 256.114 295.097 255.567 295.64 255.13C296.187 254.688 296.9 254.467 297.779 254.467C298.718 254.467 299.468 254.688 300.028 255.13C300.593 255.572 300.876 256.146 300.876 256.853H298.9C298.9 256.57 298.809 256.338 298.627 256.155C298.445 255.968 298.16 255.875 297.772 255.875C297.44 255.875 297.182 255.95 297 256.101C296.818 256.251 296.727 256.442 296.727 256.675C296.727 256.894 296.829 257.071 297.034 257.208C297.244 257.34 297.595 257.456 298.087 257.557C298.579 257.652 298.994 257.762 299.331 257.885C300.375 258.268 300.896 258.931 300.896 259.874C300.896 260.549 300.607 261.095 300.028 261.515C299.45 261.929 298.702 262.137 297.786 262.137C297.166 262.137 296.615 262.027 296.132 261.809C295.653 261.585 295.277 261.282 295.004 260.899C294.73 260.512 294.594 260.095 294.594 259.648H296.467C296.485 259.999 296.615 260.268 296.856 260.455C297.098 260.642 297.422 260.735 297.827 260.735C298.205 260.735 298.49 260.665 298.682 260.523C298.878 260.378 298.976 260.188 298.976 259.956ZM305.354 258.247C305.354 257.094 305.611 256.176 306.126 255.492C306.646 254.809 307.354 254.467 308.252 254.467C308.972 254.467 309.567 254.736 310.036 255.273V251.5H312.019V262H310.234L310.139 261.214C309.646 261.829 309.013 262.137 308.238 262.137C307.368 262.137 306.668 261.795 306.14 261.111C305.616 260.423 305.354 259.468 305.354 258.247ZM307.329 258.391C307.329 259.083 307.45 259.614 307.691 259.983C307.933 260.353 308.284 260.537 308.744 260.537C309.355 260.537 309.785 260.28 310.036 259.765V256.846C309.79 256.331 309.364 256.073 308.758 256.073C307.805 256.073 307.329 256.846 307.329 258.391ZM317.836 262C317.745 261.822 317.679 261.601 317.638 261.337C317.159 261.87 316.537 262.137 315.771 262.137C315.047 262.137 314.445 261.927 313.967 261.508C313.493 261.089 313.256 260.56 313.256 259.922C313.256 259.138 313.545 258.536 314.124 258.117C314.707 257.698 315.548 257.486 316.646 257.481H317.556V257.058C317.556 256.716 317.467 256.442 317.289 256.237C317.116 256.032 316.84 255.93 316.462 255.93C316.129 255.93 315.867 256.009 315.676 256.169C315.489 256.328 315.396 256.547 315.396 256.825H313.42C313.42 256.397 313.552 256 313.816 255.636C314.081 255.271 314.454 254.986 314.938 254.781C315.421 254.572 315.963 254.467 316.564 254.467C317.476 254.467 318.198 254.697 318.731 255.157C319.269 255.613 319.538 256.256 319.538 257.085V260.291C319.543 260.993 319.641 261.524 319.832 261.884V262H317.836ZM316.202 260.626C316.494 260.626 316.763 260.562 317.009 260.435C317.255 260.302 317.437 260.127 317.556 259.908V258.637H316.817C315.828 258.637 315.302 258.979 315.238 259.662L315.231 259.778C315.231 260.024 315.318 260.227 315.491 260.387C315.664 260.546 315.901 260.626 316.202 260.626ZM323.421 252.785V254.604H324.686V256.053H323.421V259.744C323.421 260.018 323.473 260.214 323.578 260.332C323.683 260.451 323.883 260.51 324.18 260.51C324.398 260.51 324.592 260.494 324.761 260.462V261.959C324.373 262.077 323.975 262.137 323.564 262.137C322.179 262.137 321.473 261.437 321.445 260.038V256.053H320.365V254.604H321.445V252.785H323.421ZM330.072 262C329.981 261.822 329.915 261.601 329.874 261.337C329.396 261.87 328.773 262.137 328.008 262.137C327.283 262.137 326.682 261.927 326.203 261.508C325.729 261.089 325.492 260.56 325.492 259.922C325.492 259.138 325.782 258.536 326.36 258.117C326.944 257.698 327.785 257.486 328.883 257.481H329.792V257.058C329.792 256.716 329.703 256.442 329.525 256.237C329.352 256.032 329.076 255.93 328.698 255.93C328.366 255.93 328.104 256.009 327.912 256.169C327.725 256.328 327.632 256.547 327.632 256.825H325.656C325.656 256.397 325.788 256 326.053 255.636C326.317 255.271 326.691 254.986 327.174 254.781C327.657 254.572 328.199 254.467 328.801 254.467C329.712 254.467 330.435 254.697 330.968 255.157C331.506 255.613 331.774 256.256 331.774 257.085V260.291C331.779 260.993 331.877 261.524 332.068 261.884V262H330.072ZM328.438 260.626C328.73 260.626 328.999 260.562 329.245 260.435C329.491 260.302 329.674 260.127 329.792 259.908V258.637H329.054C328.065 258.637 327.538 258.979 327.475 259.662L327.468 259.778C327.468 260.024 327.554 260.227 327.728 260.387C327.901 260.546 328.138 260.626 328.438 260.626Z" fill="black"/>
</g>
<g filter="url(#filter4_d)">
<path d="M250.707 59.7071L296.293 105.293C296.746 105.746 297 106.36 297 107C297 107.64 296.746 108.254 296.293 108.707L250.707 154.293C250.254 154.746 249.64 155 249 155C248.36 155 247.746 154.746 247.293 154.293L201.707 108.707C201.254 108.254 201 107.64 201 107C201 106.36 201.254 105.746 201.707 105.293L247.293 59.7071C247.746 59.2544 248.36 59 249 59C249.64 59 250.254 59.2544 250.707 59.7071Z" fill="#B4FF99"/>
<path d="M250 60.4142L295.586 106C295.851 106.265 296 106.625 296 107C296 107.375 295.851 107.735 295.586 108L250 153.586C249.735 153.851 249.375 154 249 154C248.625 154 248.265 153.851 248 153.586L202.414 108C202.149 107.735 202 107.375 202 107C202 106.625 202.149 106.265 202.414 106L248 60.4142C248.265 60.149 248.625 60 249 60C249.375 60 249.735 60.149 250 60.4142Z" stroke="black" stroke-width="2"/>
</g>
<path d="M225.348 108.233C225.348 107.5 225.489 106.846 225.771 106.271C226.054 105.697 226.46 105.253 226.988 104.938C227.521 104.624 228.139 104.467 228.841 104.467C229.839 104.467 230.652 104.772 231.281 105.383C231.915 105.993 232.268 106.823 232.341 107.871L232.354 108.377C232.354 109.512 232.038 110.423 231.404 111.111C230.771 111.795 229.921 112.137 228.854 112.137C227.788 112.137 226.936 111.795 226.298 111.111C225.664 110.428 225.348 109.498 225.348 108.322V108.233ZM227.323 108.377C227.323 109.079 227.455 109.617 227.72 109.99C227.984 110.359 228.362 110.544 228.854 110.544C229.333 110.544 229.707 110.362 229.976 109.997C230.244 109.628 230.379 109.04 230.379 108.233C230.379 107.545 230.244 107.012 229.976 106.634C229.707 106.256 229.328 106.066 228.841 106.066C228.358 106.066 227.984 106.256 227.72 106.634C227.455 107.007 227.323 107.589 227.323 108.377ZM235.39 104.604L235.451 105.458C235.98 104.797 236.688 104.467 237.577 104.467C238.361 104.467 238.944 104.697 239.327 105.157C239.71 105.618 239.906 106.306 239.915 107.222V112H237.939V107.27C237.939 106.85 237.848 106.547 237.666 106.36C237.484 106.169 237.181 106.073 236.757 106.073C236.201 106.073 235.784 106.31 235.506 106.784V112H233.53V104.604H235.39ZM241.549 112V102.047H244.611C245.486 102.047 246.268 102.245 246.956 102.642C247.649 103.034 248.189 103.594 248.576 104.323C248.964 105.048 249.157 105.873 249.157 106.798V107.256C249.157 108.181 248.966 109.004 248.583 109.724C248.205 110.444 247.669 111.002 246.977 111.398C246.284 111.795 245.502 111.995 244.632 112H241.549ZM243.6 103.708V110.353H244.591C245.393 110.353 246.006 110.09 246.43 109.566C246.854 109.042 247.07 108.293 247.079 107.317V106.791C247.079 105.779 246.869 105.014 246.45 104.494C246.031 103.97 245.418 103.708 244.611 103.708H243.6ZM250.217 108.233C250.217 107.5 250.358 106.846 250.641 106.271C250.923 105.697 251.329 105.253 251.857 104.938C252.391 104.624 253.008 104.467 253.71 104.467C254.708 104.467 255.521 104.772 256.15 105.383C256.784 105.993 257.137 106.823 257.21 107.871L257.224 108.377C257.224 109.512 256.907 110.423 256.273 111.111C255.64 111.795 254.79 112.137 253.724 112.137C252.657 112.137 251.805 111.795 251.167 111.111C250.534 110.428 250.217 109.498 250.217 108.322V108.233ZM252.192 108.377C252.192 109.079 252.325 109.617 252.589 109.99C252.853 110.359 253.231 110.544 253.724 110.544C254.202 110.544 254.576 110.362 254.845 109.997C255.114 109.628 255.248 109.04 255.248 108.233C255.248 107.545 255.114 107.012 254.845 106.634C254.576 106.256 254.198 106.066 253.71 106.066C253.227 106.066 252.853 106.256 252.589 106.634C252.325 107.007 252.192 107.589 252.192 108.377ZM260.259 104.604L260.32 105.458C260.849 104.797 261.558 104.467 262.446 104.467C263.23 104.467 263.813 104.697 264.196 105.157C264.579 105.618 264.775 106.306 264.784 107.222V112H262.809V107.27C262.809 106.85 262.717 106.547 262.535 106.36C262.353 106.169 262.05 106.073 261.626 106.073C261.07 106.073 260.653 106.31 260.375 106.784V112H258.399V104.604H260.259ZM269.692 112.137C268.608 112.137 267.724 111.804 267.04 111.139C266.361 110.473 266.021 109.587 266.021 108.479V108.288C266.021 107.545 266.165 106.882 266.452 106.299C266.739 105.711 267.145 105.26 267.669 104.945C268.198 104.626 268.799 104.467 269.474 104.467C270.485 104.467 271.281 104.786 271.859 105.424C272.443 106.062 272.734 106.966 272.734 108.138V108.944H268.024C268.088 109.427 268.28 109.815 268.599 110.106C268.922 110.398 269.33 110.544 269.822 110.544C270.583 110.544 271.178 110.268 271.606 109.717L272.577 110.804C272.281 111.223 271.88 111.551 271.374 111.788C270.868 112.021 270.308 112.137 269.692 112.137ZM269.467 106.066C269.075 106.066 268.756 106.199 268.51 106.463C268.268 106.727 268.113 107.105 268.045 107.598H270.793V107.44C270.784 107.003 270.665 106.666 270.437 106.429C270.21 106.187 269.886 106.066 269.467 106.066Z" fill="black"/>
<g filter="url(#filter5_d)">
<mask id="path-20-inside-4" fill="white">
<path d="M375 128C375 136.837 382.163 144 391 144H495C503.837 144 511 136.837 511 128C511 119.163 503.837 112 495 112H391C382.163 112 375 119.163 375 128Z"/>
</mask>
<path d="M375 128C375 136.837 382.163 144 391 144H495C503.837 144 511 136.837 511 128C511 119.163 503.837 112 495 112H391C382.163 112 375 119.163 375 128Z" fill="white"/>
<path d="M391 142H495V146H391V142ZM495 114H391V110H495V114ZM391 114C383.268 114 377 120.268 377 128H373C373 118.059 381.059 110 391 110V114ZM509 128C509 120.268 502.732 114 495 114V110C504.941 110 513 118.059 513 128H509ZM495 142C502.732 142 509 135.732 509 128H513C513 137.941 504.941 146 495 146V142ZM391 146C381.059 146 373 137.941 373 128H377C377 135.732 383.268 142 391 142V146Z" fill="black" mask="url(#path-20-inside-4)"/>
<path d="M394.369 128.249C394.369 129.229 394.196 130.088 393.85 130.826C393.503 131.564 393.007 132.134 392.359 132.535C391.717 132.936 390.979 133.137 390.145 133.137C389.32 133.137 388.584 132.938 387.937 132.542C387.289 132.146 386.788 131.58 386.433 130.847C386.077 130.108 385.897 129.261 385.893 128.304V127.812C385.893 126.832 386.068 125.97 386.419 125.228C386.774 124.48 387.273 123.908 387.916 123.512C388.563 123.111 389.301 122.91 390.131 122.91C390.96 122.91 391.696 123.111 392.339 123.512C392.986 123.908 393.485 124.48 393.836 125.228C394.191 125.97 394.369 126.829 394.369 127.805V128.249ZM392.291 127.798C392.291 126.754 392.104 125.961 391.73 125.419C391.357 124.877 390.824 124.605 390.131 124.605C389.443 124.605 388.912 124.874 388.538 125.412C388.164 125.945 387.975 126.729 387.971 127.764V128.249C387.971 129.265 388.158 130.054 388.531 130.614C388.905 131.175 389.443 131.455 390.145 131.455C390.833 131.455 391.361 131.186 391.73 130.648C392.1 130.106 392.286 129.318 392.291 128.283V127.798ZM397.548 125.604L397.609 126.458C398.138 125.797 398.847 125.467 399.735 125.467C400.519 125.467 401.103 125.697 401.485 126.157C401.868 126.618 402.064 127.306 402.073 128.222V133H400.098V128.27C400.098 127.85 400.007 127.547 399.824 127.36C399.642 127.169 399.339 127.073 398.915 127.073C398.359 127.073 397.942 127.31 397.664 127.784V133H395.688V125.604H397.548ZM403.707 133V123.047H406.77C407.645 123.047 408.426 123.245 409.114 123.642C409.807 124.034 410.347 124.594 410.734 125.323C411.122 126.048 411.315 126.873 411.315 127.798V128.256C411.315 129.181 411.124 130.004 410.741 130.724C410.363 131.444 409.827 132.002 409.135 132.398C408.442 132.795 407.66 132.995 406.79 133H403.707ZM405.758 124.708V131.353H406.749C407.551 131.353 408.164 131.09 408.588 130.566C409.012 130.042 409.228 129.293 409.237 128.317V127.791C409.237 126.779 409.028 126.014 408.608 125.494C408.189 124.97 407.576 124.708 406.77 124.708H405.758ZM412.375 129.233C412.375 128.5 412.516 127.846 412.799 127.271C413.081 126.697 413.487 126.253 414.016 125.938C414.549 125.624 415.166 125.467 415.868 125.467C416.866 125.467 417.68 125.772 418.309 126.383C418.942 126.993 419.295 127.823 419.368 128.871L419.382 129.377C419.382 130.512 419.065 131.423 418.432 132.111C417.798 132.795 416.948 133.137 415.882 133.137C414.815 133.137 413.963 132.795 413.325 132.111C412.692 131.428 412.375 130.498 412.375 129.322V129.233ZM414.351 129.377C414.351 130.079 414.483 130.617 414.747 130.99C415.011 131.359 415.39 131.544 415.882 131.544C416.36 131.544 416.734 131.362 417.003 130.997C417.272 130.628 417.406 130.04 417.406 129.233C417.406 128.545 417.272 128.012 417.003 127.634C416.734 127.256 416.356 127.066 415.868 127.066C415.385 127.066 415.011 127.256 414.747 127.634C414.483 128.007 414.351 128.589 414.351 129.377ZM422.417 125.604L422.479 126.458C423.007 125.797 423.716 125.467 424.604 125.467C425.388 125.467 425.972 125.697 426.354 126.157C426.737 126.618 426.933 127.306 426.942 128.222V133H424.967V128.27C424.967 127.85 424.876 127.547 424.693 127.36C424.511 127.169 424.208 127.073 423.784 127.073C423.228 127.073 422.811 127.31 422.533 127.784V133H420.558V125.604H422.417ZM431.851 133.137C430.766 133.137 429.882 132.804 429.198 132.139C428.519 131.473 428.18 130.587 428.18 129.479V129.288C428.18 128.545 428.323 127.882 428.61 127.299C428.897 126.711 429.303 126.26 429.827 125.945C430.356 125.626 430.957 125.467 431.632 125.467C432.644 125.467 433.439 125.786 434.018 126.424C434.601 127.062 434.893 127.966 434.893 129.138V129.944H430.183C430.246 130.427 430.438 130.815 430.757 131.106C431.08 131.398 431.488 131.544 431.98 131.544C432.742 131.544 433.336 131.268 433.765 130.717L434.735 131.804C434.439 132.223 434.038 132.551 433.532 132.788C433.026 133.021 432.466 133.137 431.851 133.137ZM431.625 127.066C431.233 127.066 430.914 127.199 430.668 127.463C430.426 127.727 430.271 128.105 430.203 128.598H432.951V128.44C432.942 128.003 432.824 127.666 432.596 127.429C432.368 127.187 432.044 127.066 431.625 127.066ZM443.513 130.956C443.513 130.715 443.392 130.525 443.15 130.389C442.913 130.247 442.531 130.122 442.002 130.013C440.243 129.644 439.363 128.896 439.363 127.771C439.363 127.114 439.634 126.567 440.177 126.13C440.724 125.688 441.437 125.467 442.316 125.467C443.255 125.467 444.005 125.688 444.565 126.13C445.131 126.572 445.413 127.146 445.413 127.853H443.438C443.438 127.57 443.346 127.338 443.164 127.155C442.982 126.968 442.697 126.875 442.31 126.875C441.977 126.875 441.719 126.95 441.537 127.101C441.355 127.251 441.264 127.442 441.264 127.675C441.264 127.894 441.366 128.071 441.571 128.208C441.781 128.34 442.132 128.456 442.624 128.557C443.116 128.652 443.531 128.762 443.868 128.885C444.912 129.268 445.434 129.931 445.434 130.874C445.434 131.549 445.144 132.095 444.565 132.515C443.987 132.929 443.239 133.137 442.323 133.137C441.703 133.137 441.152 133.027 440.669 132.809C440.19 132.585 439.814 132.282 439.541 131.899C439.268 131.512 439.131 131.095 439.131 130.648H441.004C441.022 130.999 441.152 131.268 441.394 131.455C441.635 131.642 441.959 131.735 442.364 131.735C442.743 131.735 443.027 131.665 443.219 131.523C443.415 131.378 443.513 131.188 443.513 130.956ZM450.116 133.137C449.032 133.137 448.147 132.804 447.464 132.139C446.785 131.473 446.445 130.587 446.445 129.479V129.288C446.445 128.545 446.589 127.882 446.876 127.299C447.163 126.711 447.569 126.26 448.093 125.945C448.621 125.626 449.223 125.467 449.897 125.467C450.909 125.467 451.704 125.786 452.283 126.424C452.867 127.062 453.158 127.966 453.158 129.138V129.944H448.448C448.512 130.427 448.703 130.815 449.022 131.106C449.346 131.398 449.754 131.544 450.246 131.544C451.007 131.544 451.602 131.268 452.03 130.717L453.001 131.804C452.705 132.223 452.304 132.551 451.798 132.788C451.292 133.021 450.731 133.137 450.116 133.137ZM449.891 127.066C449.499 127.066 449.18 127.199 448.934 127.463C448.692 127.727 448.537 128.105 448.469 128.598H451.217V128.44C451.208 128.003 451.089 127.666 450.861 127.429C450.633 127.187 450.31 127.066 449.891 127.066ZM456.651 123.785V125.604H457.916V127.053H456.651V130.744C456.651 131.018 456.704 131.214 456.809 131.332C456.913 131.451 457.114 131.51 457.41 131.51C457.629 131.51 457.823 131.494 457.991 131.462V132.959C457.604 133.077 457.205 133.137 456.795 133.137C455.41 133.137 454.703 132.437 454.676 131.038V127.053H453.596V125.604H454.676V123.785H456.651ZM463.022 130.956C463.022 130.715 462.902 130.525 462.66 130.389C462.423 130.247 462.04 130.122 461.512 130.013C459.753 129.644 458.873 128.896 458.873 127.771C458.873 127.114 459.144 126.567 459.687 126.13C460.233 125.688 460.947 125.467 461.826 125.467C462.765 125.467 463.515 125.688 464.075 126.13C464.64 126.572 464.923 127.146 464.923 127.853H462.947C462.947 127.57 462.856 127.338 462.674 127.155C462.492 126.968 462.207 126.875 461.819 126.875C461.487 126.875 461.229 126.95 461.047 127.101C460.865 127.251 460.773 127.442 460.773 127.675C460.773 127.894 460.876 128.071 461.081 128.208C461.291 128.34 461.642 128.456 462.134 128.557C462.626 128.652 463.041 128.762 463.378 128.885C464.422 129.268 464.943 129.931 464.943 130.874C464.943 131.549 464.654 132.095 464.075 132.515C463.496 132.929 462.749 133.137 461.833 133.137C461.213 133.137 460.662 133.027 460.179 132.809C459.7 132.585 459.324 132.282 459.051 131.899C458.777 131.512 458.641 131.095 458.641 130.648H460.514C460.532 130.999 460.662 131.268 460.903 131.455C461.145 131.642 461.468 131.735 461.874 131.735C462.252 131.735 462.537 131.665 462.729 131.523C462.924 131.378 463.022 131.188 463.022 130.956ZM473.714 130.956C473.714 130.715 473.593 130.525 473.352 130.389C473.115 130.247 472.732 130.122 472.203 130.013C470.444 129.644 469.564 128.896 469.564 127.771C469.564 127.114 469.836 126.567 470.378 126.13C470.925 125.688 471.638 125.467 472.518 125.467C473.456 125.467 474.206 125.688 474.767 126.13C475.332 126.572 475.614 127.146 475.614 127.853H473.639C473.639 127.57 473.548 127.338 473.365 127.155C473.183 126.968 472.898 126.875 472.511 126.875C472.178 126.875 471.921 126.95 471.738 127.101C471.556 127.251 471.465 127.442 471.465 127.675C471.465 127.894 471.567 128.071 471.772 128.208C471.982 128.34 472.333 128.456 472.825 128.557C473.317 128.652 473.732 128.762 474.069 128.885C475.113 129.268 475.635 129.931 475.635 130.874C475.635 131.549 475.345 132.095 474.767 132.515C474.188 132.929 473.44 133.137 472.524 133.137C471.905 133.137 471.353 133.027 470.87 132.809C470.392 132.585 470.016 132.282 469.742 131.899C469.469 131.512 469.332 131.095 469.332 130.648H471.205C471.223 130.999 471.353 131.268 471.595 131.455C471.836 131.642 472.16 131.735 472.565 131.735C472.944 131.735 473.229 131.665 473.42 131.523C473.616 131.378 473.714 131.188 473.714 130.956ZM479.278 123.785V125.604H480.543V127.053H479.278V130.744C479.278 131.018 479.331 131.214 479.436 131.332C479.54 131.451 479.741 131.51 480.037 131.51C480.256 131.51 480.45 131.494 480.618 131.462V132.959C480.231 133.077 479.832 133.137 479.422 133.137C478.036 133.137 477.33 132.437 477.303 131.038V127.053H476.223V125.604H477.303V123.785H479.278ZM485.93 133C485.839 132.822 485.772 132.601 485.731 132.337C485.253 132.87 484.631 133.137 483.865 133.137C483.141 133.137 482.539 132.927 482.061 132.508C481.587 132.089 481.35 131.56 481.35 130.922C481.35 130.138 481.639 129.536 482.218 129.117C482.801 128.698 483.642 128.486 484.74 128.481H485.649V128.058C485.649 127.716 485.561 127.442 485.383 127.237C485.21 127.032 484.934 126.93 484.556 126.93C484.223 126.93 483.961 127.009 483.77 127.169C483.583 127.328 483.489 127.547 483.489 127.825H481.514C481.514 127.397 481.646 127 481.91 126.636C482.174 126.271 482.548 125.986 483.031 125.781C483.514 125.572 484.057 125.467 484.658 125.467C485.57 125.467 486.292 125.697 486.825 126.157C487.363 126.613 487.632 127.256 487.632 128.085V131.291C487.636 131.993 487.734 132.524 487.926 132.884V133H485.93ZM484.296 131.626C484.588 131.626 484.856 131.562 485.103 131.435C485.349 131.302 485.531 131.127 485.649 130.908V129.637H484.911C483.922 129.637 483.396 129.979 483.332 130.662L483.325 130.778C483.325 131.024 483.412 131.227 483.585 131.387C483.758 131.546 483.995 131.626 484.296 131.626ZM491.515 123.785V125.604H492.779V127.053H491.515V130.744C491.515 131.018 491.567 131.214 491.672 131.332C491.777 131.451 491.977 131.51 492.273 131.51C492.492 131.51 492.686 131.494 492.854 131.462V132.959C492.467 133.077 492.068 133.137 491.658 133.137C490.273 133.137 489.566 132.437 489.539 131.038V127.053H488.459V125.604H489.539V123.785H491.515ZM497.284 133.137C496.2 133.137 495.315 132.804 494.632 132.139C493.953 131.473 493.613 130.587 493.613 129.479V129.288C493.613 128.545 493.757 127.882 494.044 127.299C494.331 126.711 494.737 126.26 495.261 125.945C495.789 125.626 496.391 125.467 497.065 125.467C498.077 125.467 498.872 125.786 499.451 126.424C500.035 127.062 500.326 127.966 500.326 129.138V129.944H495.616C495.68 130.427 495.871 130.815 496.19 131.106C496.514 131.398 496.922 131.544 497.414 131.544C498.175 131.544 498.77 131.268 499.198 130.717L500.169 131.804C499.873 132.223 499.472 132.551 498.966 132.788C498.46 133.021 497.899 133.137 497.284 133.137ZM497.059 127.066C496.667 127.066 496.348 127.199 496.102 127.463C495.86 127.727 495.705 128.105 495.637 128.598H498.385V128.44C498.376 128.003 498.257 127.666 498.029 127.429C497.801 127.187 497.478 127.066 497.059 127.066Z" fill="black"/>
</g>
<path d="M239 316L239 338L259 338L259 316C259 316 259 326 249 326C239 326 239 316 239 316Z" fill="#EFC3FF"/>
<path d="M597 316L597 338L617 338L617 316C617 316 617 326 607 326C597 326 597 316 597 316Z" fill="#EFC3FF"/>
<path d="M100 137L92 129L84 137" stroke="black" stroke-width="3" stroke-linecap="square"/>
<path d="M102 136L92 126L82 136" stroke="white" stroke-width="2" stroke-linecap="square"/>
<path d="M99 139L92 132L85 139" stroke="white" stroke-width="2" stroke-linecap="square"/>
<path d="M241 216L249 224L257 216" stroke="black" stroke-width="3" stroke-linecap="square"/>
<path d="M239 217L249 227L259 217" stroke="white" stroke-width="2" stroke-linecap="square"/>
<path d="M242 214L249 221L256 214" stroke="white" stroke-width="2" stroke-linecap="square"/>
<path d="M370 376L378 368L370 360" stroke="black" stroke-width="3" stroke-linecap="square"/>
<path d="M371 378L381 368L371 358" stroke="white" stroke-width="2" stroke-linecap="square"/>
<path d="M368 375L375 368L368 361" stroke="white" stroke-width="2" stroke-linecap="square"/>
<path d="M615 271L607 263L599 271" stroke="black" stroke-width="3" stroke-linecap="square"/>
<path d="M617 270L607 260L597 270" stroke="white" stroke-width="2" stroke-linecap="square"/>
<path d="M614 273L607 266L600 273" stroke="white" stroke-width="2" stroke-linecap="square"/>
<path d="M435 280L443 288L451 280" stroke="black" stroke-width="2" stroke-linecap="square"/>
<path d="M597.2 178H597V194H617L617 178H616.8C615.873 182.564 611.838 186 607 186C602.162 186 598.127 182.564 597.2 178Z" fill="#99DBFF"/>
<path d="M433.2 178H433V194H453L453 178H452.8C451.873 182.564 447.838 186 443 186C438.162 186 434.127 182.564 433.2 178Z" fill="#99DBFF"/>
<path d="M239.2 178H239V194H259L259 178H258.8C257.873 182.564 253.838 186 249 186C244.162 186 240.127 182.564 239.2 178Z" fill="#99DBFF"/>
<g filter="url(#filter6_d)">
<mask id="path-41-inside-5" fill="white">
<path d="M350 221C350 229.837 357.163 237 366 237H526C534.837 237 542 229.837 542 221C542 212.163 534.837 205 526 205H366C357.163 205 350 212.163 350 221Z"/>
</mask>
<path d="M350 221C350 229.837 357.163 237 366 237H526C534.837 237 542 229.837 542 221C542 212.163 534.837 205 526 205H366C357.163 205 350 212.163 350 221Z" fill="white"/>
<path d="M366 235H526V239H366V235ZM526 207H366V203H526V207ZM366 207C358.268 207 352 213.268 352 221H348C348 211.059 356.059 203 366 203V207ZM540 221C540 213.268 533.732 207 526 207V203C535.941 203 544 211.059 544 221H540ZM526 235C533.732 235 540 228.732 540 221H544C544 230.941 535.941 239 526 239V235ZM366 239C356.059 239 348 230.941 348 221H352C352 228.732 358.268 235 366 235V239Z" fill="black" mask="url(#path-41-inside-5)"/>
<path d="M368.214 226H366.163L362.171 219.451V226H360.12V216.047H362.171L366.17 222.609V216.047H368.214V226ZM373.279 226.137C372.195 226.137 371.311 225.804 370.627 225.139C369.948 224.473 369.608 223.587 369.608 222.479V222.288C369.608 221.545 369.752 220.882 370.039 220.299C370.326 219.711 370.732 219.26 371.256 218.945C371.785 218.626 372.386 218.467 373.061 218.467C374.072 218.467 374.868 218.786 375.446 219.424C376.03 220.062 376.321 220.966 376.321 222.138V222.944H371.611C371.675 223.427 371.867 223.815 372.186 224.106C372.509 224.398 372.917 224.544 373.409 224.544C374.17 224.544 374.765 224.268 375.193 223.717L376.164 224.804C375.868 225.223 375.467 225.551 374.961 225.788C374.455 226.021 373.895 226.137 373.279 226.137ZM373.054 220.066C372.662 220.066 372.343 220.199 372.097 220.463C371.855 220.727 371.7 221.105 371.632 221.598H374.38V221.44C374.371 221.003 374.252 220.666 374.024 220.429C373.797 220.187 373.473 220.066 373.054 220.066ZM383.882 223.313L384.853 218.604H386.76L384.873 226H383.219L381.817 221.345L380.416 226H378.769L376.882 218.604H378.789L379.753 223.307L381.106 218.604H382.535L383.882 223.313ZM395.236 223.956C395.236 223.715 395.116 223.525 394.874 223.389C394.637 223.247 394.254 223.122 393.726 223.013C391.966 222.644 391.087 221.896 391.087 220.771C391.087 220.114 391.358 219.567 391.9 219.13C392.447 218.688 393.16 218.467 394.04 218.467C394.979 218.467 395.729 218.688 396.289 219.13C396.854 219.572 397.137 220.146 397.137 220.853H395.161C395.161 220.57 395.07 220.338 394.888 220.155C394.705 219.968 394.421 219.875 394.033 219.875C393.701 219.875 393.443 219.95 393.261 220.101C393.078 220.251 392.987 220.442 392.987 220.675C392.987 220.894 393.09 221.071 393.295 221.208C393.505 221.34 393.855 221.456 394.348 221.557C394.84 221.652 395.255 221.762 395.592 221.885C396.635 222.268 397.157 222.931 397.157 223.874C397.157 224.549 396.868 225.095 396.289 225.515C395.71 225.929 394.963 226.137 394.047 226.137C393.427 226.137 392.876 226.027 392.393 225.809C391.914 225.585 391.538 225.282 391.265 224.899C390.991 224.512 390.854 224.095 390.854 223.648H392.728C392.746 223.999 392.876 224.268 393.117 224.455C393.359 224.642 393.682 224.735 394.088 224.735C394.466 224.735 394.751 224.665 394.942 224.523C395.138 224.378 395.236 224.188 395.236 223.956ZM400.801 216.785V218.604H402.065V220.053H400.801V223.744C400.801 224.018 400.853 224.214 400.958 224.332C401.063 224.451 401.263 224.51 401.56 224.51C401.778 224.51 401.972 224.494 402.141 224.462V225.959C401.753 226.077 401.354 226.137 400.944 226.137C399.559 226.137 398.853 225.437 398.825 224.038V220.053H397.745V218.604H398.825V216.785H400.801ZM407.452 226C407.361 225.822 407.295 225.601 407.254 225.337C406.775 225.87 406.153 226.137 405.388 226.137C404.663 226.137 404.062 225.927 403.583 225.508C403.109 225.089 402.872 224.56 402.872 223.922C402.872 223.138 403.161 222.536 403.74 222.117C404.324 221.698 405.164 221.486 406.263 221.481H407.172V221.058C407.172 220.716 407.083 220.442 406.905 220.237C406.732 220.032 406.456 219.93 406.078 219.93C405.745 219.93 405.483 220.009 405.292 220.169C405.105 220.328 405.012 220.547 405.012 220.825H403.036C403.036 220.397 403.168 220 403.433 219.636C403.697 219.271 404.071 218.986 404.554 218.781C405.037 218.572 405.579 218.467 406.181 218.467C407.092 218.467 407.814 218.697 408.348 219.157C408.885 219.613 409.154 220.256 409.154 221.085V224.291C409.159 224.993 409.257 225.524 409.448 225.884V226H407.452ZM405.818 224.626C406.11 224.626 406.379 224.562 406.625 224.435C406.871 224.302 407.053 224.127 407.172 223.908V222.637H406.434C405.445 222.637 404.918 222.979 404.854 223.662L404.848 223.778C404.848 224.024 404.934 224.227 405.107 224.387C405.281 224.546 405.518 224.626 405.818 224.626ZM413.037 216.785V218.604H414.302V220.053H413.037V223.744C413.037 224.018 413.09 224.214 413.194 224.332C413.299 224.451 413.5 224.51 413.796 224.51C414.015 224.51 414.208 224.494 414.377 224.462V225.959C413.99 226.077 413.591 226.137 413.181 226.137C411.795 226.137 411.089 225.437 411.062 224.038V220.053H409.981V218.604H411.062V216.785H413.037ZM418.807 226.137C417.722 226.137 416.838 225.804 416.154 225.139C415.475 224.473 415.136 223.587 415.136 222.479V222.288C415.136 221.545 415.279 220.882 415.566 220.299C415.854 219.711 416.259 219.26 416.783 218.945C417.312 218.626 417.913 218.467 418.588 218.467C419.6 218.467 420.395 218.786 420.974 219.424C421.557 220.062 421.849 220.966 421.849 222.138V222.944H417.139C417.202 223.427 417.394 223.815 417.713 224.106C418.036 224.398 418.444 224.544 418.937 224.544C419.698 224.544 420.292 224.268 420.721 223.717L421.691 224.804C421.395 225.223 420.994 225.551 420.488 225.788C419.982 226.021 419.422 226.137 418.807 226.137ZM418.581 220.066C418.189 220.066 417.87 220.199 417.624 220.463C417.382 220.727 417.228 221.105 417.159 221.598H419.907V221.44C419.898 221.003 419.78 220.666 419.552 220.429C419.324 220.187 419 220.066 418.581 220.066ZM429.539 224.544C429.904 224.544 430.2 224.444 430.428 224.243C430.656 224.043 430.774 223.776 430.783 223.443H432.636C432.631 223.945 432.494 224.405 432.226 224.824C431.957 225.239 431.588 225.562 431.118 225.795C430.653 226.023 430.138 226.137 429.573 226.137C428.516 226.137 427.682 225.802 427.071 225.132C426.461 224.457 426.155 223.528 426.155 222.343V222.213C426.155 221.074 426.458 220.164 427.064 219.485C427.671 218.806 428.502 218.467 429.56 218.467C430.485 218.467 431.225 218.731 431.781 219.26C432.342 219.784 432.627 220.483 432.636 221.358H430.783C430.774 220.976 430.656 220.666 430.428 220.429C430.2 220.187 429.899 220.066 429.525 220.066C429.065 220.066 428.716 220.235 428.479 220.572C428.247 220.905 428.131 221.447 428.131 222.199V222.404C428.131 223.165 428.247 223.712 428.479 224.045C428.712 224.378 429.065 224.544 429.539 224.544ZM438.05 226C437.959 225.822 437.893 225.601 437.852 225.337C437.373 225.87 436.751 226.137 435.985 226.137C435.261 226.137 434.659 225.927 434.181 225.508C433.707 225.089 433.47 224.56 433.47 223.922C433.47 223.138 433.759 222.536 434.338 222.117C434.921 221.698 435.762 221.486 436.86 221.481H437.77V221.058C437.77 220.716 437.681 220.442 437.503 220.237C437.33 220.032 437.054 219.93 436.676 219.93C436.343 219.93 436.081 220.009 435.89 220.169C435.703 220.328 435.609 220.547 435.609 220.825H433.634C433.634 220.397 433.766 220 434.03 219.636C434.295 219.271 434.668 218.986 435.151 218.781C435.634 218.572 436.177 218.467 436.778 218.467C437.69 218.467 438.412 218.697 438.945 219.157C439.483 219.613 439.752 220.256 439.752 221.085V224.291C439.757 224.993 439.854 225.524 440.046 225.884V226H438.05ZM436.416 224.626C436.708 224.626 436.977 224.562 437.223 224.435C437.469 224.302 437.651 224.127 437.77 223.908V222.637H437.031C436.042 222.637 435.516 222.979 435.452 223.662L435.445 223.778C435.445 224.024 435.532 224.227 435.705 224.387C435.878 224.546 436.115 224.626 436.416 224.626ZM445.699 225.248C445.212 225.84 444.537 226.137 443.676 226.137C442.883 226.137 442.277 225.909 441.857 225.453C441.443 224.997 441.231 224.33 441.222 223.45V218.604H443.197V223.382C443.197 224.152 443.548 224.537 444.25 224.537C444.92 224.537 445.38 224.305 445.631 223.84V218.604H447.613V226H445.754L445.699 225.248ZM453.109 223.956C453.109 223.715 452.989 223.525 452.747 223.389C452.51 223.247 452.127 223.122 451.599 223.013C449.84 222.644 448.96 221.896 448.96 220.771C448.96 220.114 449.231 219.567 449.773 219.13C450.32 218.688 451.034 218.467 451.913 218.467C452.852 218.467 453.602 218.688 454.162 219.13C454.727 219.572 455.01 220.146 455.01 220.853H453.034C453.034 220.57 452.943 220.338 452.761 220.155C452.578 219.968 452.294 219.875 451.906 219.875C451.574 219.875 451.316 219.95 451.134 220.101C450.951 220.251 450.86 220.442 450.86 220.675C450.86 220.894 450.963 221.071 451.168 221.208C451.378 221.34 451.729 221.456 452.221 221.557C452.713 221.652 453.128 221.762 453.465 221.885C454.508 222.268 455.03 222.931 455.03 223.874C455.03 224.549 454.741 225.095 454.162 225.515C453.583 225.929 452.836 226.137 451.92 226.137C451.3 226.137 450.749 226.027 450.266 225.809C449.787 225.585 449.411 225.282 449.138 224.899C448.864 224.512 448.728 224.095 448.728 223.648H450.601C450.619 223.999 450.749 224.268 450.99 224.455C451.232 224.642 451.555 224.735 451.961 224.735C452.339 224.735 452.624 224.665 452.815 224.523C453.011 224.378 453.109 224.188 453.109 223.956ZM459.713 226.137C458.628 226.137 457.744 225.804 457.061 225.139C456.382 224.473 456.042 223.587 456.042 222.479V222.288C456.042 221.545 456.186 220.882 456.473 220.299C456.76 219.711 457.165 219.26 457.689 218.945C458.218 218.626 458.82 218.467 459.494 218.467C460.506 218.467 461.301 218.786 461.88 219.424C462.463 220.062 462.755 220.966 462.755 222.138V222.944H458.045C458.109 223.427 458.3 223.815 458.619 224.106C458.943 224.398 459.351 224.544 459.843 224.544C460.604 224.544 461.199 224.268 461.627 223.717L462.598 224.804C462.301 225.223 461.9 225.551 461.395 225.788C460.889 226.021 460.328 226.137 459.713 226.137ZM459.487 220.066C459.095 220.066 458.776 220.199 458.53 220.463C458.289 220.727 458.134 221.105 458.065 221.598H460.813V221.44C460.804 221.003 460.686 220.666 460.458 220.429C460.23 220.187 459.907 220.066 459.487 220.066ZM467.889 223.956C467.889 223.715 467.768 223.525 467.526 223.389C467.289 223.247 466.907 223.122 466.378 223.013C464.619 222.644 463.739 221.896 463.739 220.771C463.739 220.114 464.01 219.567 464.553 219.13C465.1 218.688 465.813 218.467 466.692 218.467C467.631 218.467 468.381 218.688 468.941 219.13C469.507 219.572 469.789 220.146 469.789 220.853H467.813C467.813 220.57 467.722 220.338 467.54 220.155C467.358 219.968 467.073 219.875 466.686 219.875C466.353 219.875 466.095 219.95 465.913 220.101C465.731 220.251 465.64 220.442 465.64 220.675C465.64 220.894 465.742 221.071 465.947 221.208C466.157 221.34 466.508 221.456 467 221.557C467.492 221.652 467.907 221.762 468.244 221.885C469.288 222.268 469.81 222.931 469.81 223.874C469.81 224.549 469.52 225.095 468.941 225.515C468.363 225.929 467.615 226.137 466.699 226.137C466.079 226.137 465.528 226.027 465.045 225.809C464.566 225.585 464.19 225.282 463.917 224.899C463.644 224.512 463.507 224.095 463.507 223.648H465.38C465.398 223.999 465.528 224.268 465.77 224.455C466.011 224.642 466.335 224.735 466.74 224.735C467.118 224.735 467.403 224.665 467.595 224.523C467.791 224.378 467.889 224.188 467.889 223.956ZM478.73 220.456C478.462 220.42 478.225 220.401 478.02 220.401C477.272 220.401 476.782 220.654 476.55 221.16V226H474.574V218.604H476.44L476.495 219.485C476.892 218.806 477.441 218.467 478.143 218.467C478.361 218.467 478.566 218.496 478.758 218.556L478.73 220.456ZM482.955 226.137C481.87 226.137 480.986 225.804 480.303 225.139C479.624 224.473 479.284 223.587 479.284 222.479V222.288C479.284 221.545 479.428 220.882 479.715 220.299C480.002 219.711 480.408 219.26 480.932 218.945C481.46 218.626 482.062 218.467 482.736 218.467C483.748 218.467 484.543 218.786 485.122 219.424C485.705 220.062 485.997 220.966 485.997 222.138V222.944H481.287C481.351 223.427 481.542 223.815 481.861 224.106C482.185 224.398 482.593 224.544 483.085 224.544C483.846 224.544 484.441 224.268 484.869 223.717L485.84 224.804C485.544 225.223 485.143 225.551 484.637 225.788C484.131 226.021 483.57 226.137 482.955 226.137ZM482.729 220.066C482.338 220.066 482.019 220.199 481.772 220.463C481.531 220.727 481.376 221.105 481.308 221.598H484.056V221.44C484.047 221.003 483.928 220.666 483.7 220.429C483.472 220.187 483.149 220.066 482.729 220.066ZM490.967 222.534H487.118V220.941H490.967V222.534ZM496.709 220.456C496.44 220.42 496.203 220.401 495.998 220.401C495.251 220.401 494.761 220.654 494.528 221.16V226H492.553V218.604H494.419L494.474 219.485C494.87 218.806 495.419 218.467 496.121 218.467C496.34 218.467 496.545 218.496 496.736 218.556L496.709 220.456ZM500.934 226.137C499.849 226.137 498.965 225.804 498.281 225.139C497.602 224.473 497.263 223.587 497.263 222.479V222.288C497.263 221.545 497.406 220.882 497.693 220.299C497.98 219.711 498.386 219.26 498.91 218.945C499.439 218.626 500.04 218.467 500.715 218.467C501.727 218.467 502.522 218.786 503.101 219.424C503.684 220.062 503.976 220.966 503.976 222.138V222.944H499.266C499.329 223.427 499.521 223.815 499.84 224.106C500.163 224.398 500.571 224.544 501.063 224.544C501.825 224.544 502.419 224.268 502.848 223.717L503.818 224.804C503.522 225.223 503.121 225.551 502.615 225.788C502.109 226.021 501.549 226.137 500.934 226.137ZM500.708 220.066C500.316 220.066 499.997 220.199 499.751 220.463C499.509 220.727 499.354 221.105 499.286 221.598H502.034V221.44C502.025 221.003 501.907 220.666 501.679 220.429C501.451 220.187 501.127 220.066 500.708 220.066ZM506.922 218.604L506.983 219.458C507.512 218.797 508.221 218.467 509.109 218.467C509.893 218.467 510.477 218.697 510.859 219.157C511.242 219.618 511.438 220.306 511.447 221.222V226H509.472V221.27C509.472 220.85 509.381 220.547 509.198 220.36C509.016 220.169 508.713 220.073 508.289 220.073C507.733 220.073 507.316 220.31 507.038 220.784V226H505.062V218.604H506.922ZM512.644 222.247C512.644 221.094 512.901 220.176 513.416 219.492C513.936 218.809 514.644 218.467 515.542 218.467C516.262 218.467 516.857 218.736 517.326 219.273V215.5H519.309V226H517.524L517.429 225.214C516.937 225.829 516.303 226.137 515.528 226.137C514.658 226.137 513.958 225.795 513.43 225.111C512.906 224.423 512.644 223.468 512.644 222.247ZM514.619 222.391C514.619 223.083 514.74 223.614 514.981 223.983C515.223 224.353 515.574 224.537 516.034 224.537C516.645 224.537 517.076 224.28 517.326 223.765V220.846C517.08 220.331 516.654 220.073 516.048 220.073C515.095 220.073 514.619 220.846 514.619 222.391ZM524.244 226.137C523.16 226.137 522.275 225.804 521.592 225.139C520.913 224.473 520.573 223.587 520.573 222.479V222.288C520.573 221.545 520.717 220.882 521.004 220.299C521.291 219.711 521.697 219.26 522.221 218.945C522.749 218.626 523.351 218.467 524.025 218.467C525.037 218.467 525.832 218.786 526.411 219.424C526.994 220.062 527.286 220.966 527.286 222.138V222.944H522.576C522.64 223.427 522.831 223.815 523.15 224.106C523.474 224.398 523.882 224.544 524.374 224.544C525.135 224.544 525.73 224.268 526.158 223.717L527.129 224.804C526.833 225.223 526.432 225.551 525.926 225.788C525.42 226.021 524.859 226.137 524.244 226.137ZM524.019 220.066C523.627 220.066 523.308 220.199 523.062 220.463C522.82 220.727 522.665 221.105 522.597 221.598H525.345V221.44C525.336 221.003 525.217 220.666 524.989 220.429C524.761 220.187 524.438 220.066 524.019 220.066ZM532.57 220.456C532.301 220.42 532.064 220.401 531.859 220.401C531.112 220.401 530.622 220.654 530.39 221.16V226H528.414V218.604H530.28L530.335 219.485C530.731 218.806 531.281 218.467 531.982 218.467C532.201 218.467 532.406 218.496 532.598 218.556L532.57 220.456Z" fill="black"/>
</g>
<path d="M200 39H178V59H200C200 59 190 59 190 49C190 39 200 39 200 39Z" fill="#99DBFF"/>
<defs>
<filter id="filter0_d" x="176" y="25" width="466" height="175" filterUnits="userSpaceOnUse" color-interpolation-filters="sRGB">
<feFlood flood-opacity="0" result="BackgroundImageFix"/>
<feColorMatrix in="SourceAlpha" type="matrix" values="0 0 0 0 0 0 0 0 0 0 0 0 0 0 0 0 0 0 127 0"/>
<feOffset dy="4"/>
<feColorMatrix type="matrix" values="0 0 0 0 0 0 0 0 0 0 0 0 0 0 0 0 0 0 1 0"/>
<feBlend mode="normal" in2="BackgroundImageFix" result="effect1_dropShadow"/>
<feBlend mode="normal" in="SourceGraphic" in2="effect1_dropShadow" result="shape"/>
</filter>
<filter id="filter1_d" x="44" y="268" width="96" height="100" filterUnits="userSpaceOnUse" color-interpolation-filters="sRGB">
<feFlood flood-opacity="0" result="BackgroundImageFix"/>
<feColorMatrix in="SourceAlpha" type="matrix" values="0 0 0 0 0 0 0 0 0 0 0 0 0 0 0 0 0 0 127 0"/>
<feOffset dy="4"/>
<feColorMatrix type="matrix" values="0 0 0 0 0 0 0 0 0 0 0 0 0 0 0 0 0 0 1 0"/>
<feBlend mode="normal" in2="BackgroundImageFix" result="effect1_dropShadow"/>
<feBlend mode="normal" in="SourceGraphic" in2="effect1_dropShadow" result="shape"/>
</filter>
<filter id="filter2_d" x="176" y="292" width="466" height="52" filterUnits="userSpaceOnUse" color-interpolation-filters="sRGB">
<feFlood flood-opacity="0" result="BackgroundImageFix"/>
<feColorMatrix in="SourceAlpha" type="matrix" values="0 0 0 0 0 0 0 0 0 0 0 0 0 0 0 0 0 0 127 0"/>
<feOffset dy="4"/>
<feColorMatrix type="matrix" values="0 0 0 0 0 0 0 0 0 0 0 0 0 0 0 0 0 0 1 0"/>
<feBlend mode="normal" in2="BackgroundImageFix" result="effect1_dropShadow"/>
<feBlend mode="normal" in="SourceGraphic" in2="effect1_dropShadow" result="shape"/>
</filter>
<filter id="filter3_d" x="200" y="241" width="144" height="36" filterUnits="userSpaceOnUse" color-interpolation-filters="sRGB">
<feFlood flood-opacity="0" result="BackgroundImageFix"/>
<feColorMatrix in="SourceAlpha" type="matrix" values="0 0 0 0 0 0 0 0 0 0 0 0 0 0 0 0 0 0 127 0"/>
<feOffset dy="4"/>
<feColorMatrix type="matrix" values="0 0 0 0 0 0 0 0 0 0 0 0 0 0 0 0 0 0 1 0"/>
<feBlend mode="normal" in2="BackgroundImageFix" result="effect1_dropShadow"/>
<feBlend mode="normal" in="SourceGraphic" in2="effect1_dropShadow" result="shape"/>
</filter>
<filter id="filter4_d" x="201" y="59" width="96" height="100" filterUnits="userSpaceOnUse" color-interpolation-filters="sRGB">
<feFlood flood-opacity="0" result="BackgroundImageFix"/>
<feColorMatrix in="SourceAlpha" type="matrix" values="0 0 0 0 0 0 0 0 0 0 0 0 0 0 0 0 0 0 127 0"/>
<feOffset dy="4"/>
<feColorMatrix type="matrix" values="0 0 0 0 0 0 0 0 0 0 0 0 0 0 0 0 0 0 1 0"/>
<feBlend mode="normal" in2="BackgroundImageFix" result="effect1_dropShadow"/>
<feBlend mode="normal" in="SourceGraphic" in2="effect1_dropShadow" result="shape"/>
</filter>
<filter id="filter5_d" x="375" y="112" width="136" height="36" filterUnits="userSpaceOnUse" color-interpolation-filters="sRGB">
<feFlood flood-opacity="0" result="BackgroundImageFix"/>
<feColorMatrix in="SourceAlpha" type="matrix" values="0 0 0 0 0 0 0 0 0 0 0 0 0 0 0 0 0 0 127 0"/>
<feOffset dy="4"/>
<feColorMatrix type="matrix" values="0 0 0 0 0 0 0 0 0 0 0 0 0 0 0 0 0 0 1 0"/>
<feBlend mode="normal" in2="BackgroundImageFix" result="effect1_dropShadow"/>
<feBlend mode="normal" in="SourceGraphic" in2="effect1_dropShadow" result="shape"/>
</filter>
<filter id="filter6_d" x="350" y="205" width="192" height="36" filterUnits="userSpaceOnUse" color-interpolation-filters="sRGB">
<feFlood flood-opacity="0" result="BackgroundImageFix"/>
<feColorMatrix in="SourceAlpha" type="matrix" values="0 0 0 0 0 0 0 0 0 0 0 0 0 0 0 0 0 0 127 0"/>
<feOffset dy="4"/>
<feColorMatrix type="matrix" values="0 0 0 0 0 0 0 0 0 0 0 0 0 0 0 0 0 0 1 0"/>
<feBlend mode="normal" in2="BackgroundImageFix" result="effect1_dropShadow"/>
<feBlend mode="normal" in="SourceGraphic" in2="effect1_dropShadow" result="shape"/>
</filter>
</defs>
</svg>
