<svg width="272" height="153" viewBox="0 0 272 153" fill="none" xmlns="http://www.w3.org/2000/svg">
<g clip-path="url(#clip0_8524_64895)">
<rect width="272" height="153" fill="#87CEFF" fill-opacity="0.32"/>
<mask id="mask0_8524_64895" style="mask-type:alpha" maskUnits="userSpaceOnUse" x="0" y="0" width="272" height="153">
<rect width="272" height="153" fill="url(#paint0_radial_8524_64895)"/>
</mask>
<g mask="url(#mask0_8524_64895)">
<circle cy="4.5" r="4" fill="#87CEFF"/>
<circle cx="16" cy="4.5" r="4" fill="#87CEFF"/>
<circle cx="32" cy="4.5" r="4" fill="#87CEFF"/>
<circle cx="48" cy="4.5" r="4" fill="#87CEFF"/>
<circle cx="64" cy="4.5" r="4" fill="#87CEFF"/>
<circle cx="80" cy="4.5" r="4" fill="#87CEFF"/>
<circle cx="96" cy="4.5" r="4" fill="#87CEFF"/>
<circle cx="112" cy="4.5" r="4" fill="#87CEFF"/>
<circle cx="128" cy="4.5" r="4" fill="#87CEFF"/>
<circle cx="144" cy="4.5" r="4" fill="#87CEFF"/>
<circle cx="160" cy="4.5" r="4" fill="#87CEFF"/>
<circle cx="176" cy="4.5" r="4" fill="#87CEFF"/>
<circle cx="192" cy="4.5" r="4" fill="#87CEFF"/>
<circle cx="208" cy="4.5" r="4" fill="#87CEFF"/>
<circle cx="224" cy="4.5" r="4" fill="#87CEFF"/>
<circle cx="240" cy="4.5" r="4" fill="#87CEFF"/>
<circle cx="256" cy="4.5" r="4" fill="#87CEFF"/>
<circle cx="272" cy="4.5" r="4" fill="#87CEFF"/>
<circle cy="20.5" r="4" fill="#87CEFF"/>
<circle cx="16" cy="20.5" r="4" fill="#87CEFF"/>
<circle cx="32" cy="20.5" r="4" fill="#87CEFF"/>
<circle cx="48" cy="20.5" r="4" fill="#87CEFF"/>
<circle cx="64" cy="20.5" r="4" fill="#87CEFF"/>
<circle cx="80" cy="20.5" r="4" fill="#87CEFF"/>
<circle cx="96" cy="20.5" r="4" fill="#87CEFF"/>
<circle cx="112" cy="20.5" r="4" fill="#87CEFF"/>
<circle cx="128" cy="20.5" r="4" fill="#87CEFF"/>
<circle cx="144" cy="20.5" r="4" fill="#87CEFF"/>
<circle cx="160" cy="20.5" r="4" fill="#87CEFF"/>
<circle cx="176" cy="20.5" r="4" fill="#87CEFF"/>
<circle cx="192" cy="20.5" r="4" fill="#87CEFF"/>
<circle cx="208" cy="20.5" r="4" fill="#87CEFF"/>
<circle cx="224" cy="20.5" r="4" fill="#87CEFF"/>
<circle cx="240" cy="20.5" r="4" fill="#87CEFF"/>
<circle cx="256" cy="20.5" r="4" fill="#87CEFF"/>
<circle cx="272" cy="20.5" r="4" fill="#87CEFF"/>
<circle cy="36.5" r="4" fill="#87CEFF"/>
<circle cx="16" cy="36.5" r="4" fill="#87CEFF"/>
<circle cx="32" cy="36.5" r="4" fill="#87CEFF"/>
<circle cx="48" cy="36.5" r="4" fill="#87CEFF"/>
<circle cx="64" cy="36.5" r="4" fill="#87CEFF"/>
<circle cx="80" cy="36.5" r="4" fill="#87CEFF"/>
<circle cx="96" cy="36.5" r="4" fill="#87CEFF"/>
<circle cx="112" cy="36.5" r="4" fill="#87CEFF"/>
<circle cx="128" cy="36.5" r="4" fill="#87CEFF"/>
<circle cx="144" cy="36.5" r="4" fill="#87CEFF"/>
<circle cx="160" cy="36.5" r="4" fill="#87CEFF"/>
<circle cx="176" cy="36.5" r="4" fill="#87CEFF"/>
<circle cx="192" cy="36.5" r="4" fill="#87CEFF"/>
<circle cx="208" cy="36.5" r="4" fill="#87CEFF"/>
<circle cx="224" cy="36.5" r="4" fill="#87CEFF"/>
<circle cx="240" cy="36.5" r="4" fill="#87CEFF"/>
<circle cx="256" cy="36.5" r="4" fill="#87CEFF"/>
<circle cx="272" cy="36.5" r="4" fill="#87CEFF"/>
<circle cy="52.5" r="4" fill="#87CEFF"/>
<circle cx="16" cy="52.5" r="4" fill="#87CEFF"/>
<circle cx="32" cy="52.5" r="4" fill="#87CEFF"/>
<circle cx="48" cy="52.5" r="4" fill="#87CEFF"/>
<circle cx="64" cy="52.5" r="4" fill="#87CEFF"/>
<circle cx="80" cy="52.5" r="4" fill="#87CEFF"/>
<circle cx="96" cy="52.5" r="4" fill="#87CEFF"/>
<circle cx="112" cy="52.5" r="4" fill="#87CEFF"/>
<circle cx="128" cy="52.5" r="4" fill="#87CEFF"/>
<circle cx="144" cy="52.5" r="4" fill="#87CEFF"/>
<circle cx="160" cy="52.5" r="4" fill="#87CEFF"/>
<circle cx="176" cy="52.5" r="4" fill="#87CEFF"/>
<circle cx="192" cy="52.5" r="4" fill="#87CEFF"/>
<circle cx="208" cy="52.5" r="4" fill="#87CEFF"/>
<circle cx="224" cy="52.5" r="4" fill="#87CEFF"/>
<circle cx="240" cy="52.5" r="4" fill="#87CEFF"/>
<circle cx="256" cy="52.5" r="4" fill="#87CEFF"/>
<circle cx="272" cy="52.5" r="4" fill="#87CEFF"/>
<circle cy="68.5" r="4" fill="#87CEFF"/>
<circle cx="16" cy="68.5" r="4" fill="#87CEFF"/>
<circle cx="32" cy="68.5" r="4" fill="#87CEFF"/>
<circle cx="48" cy="68.5" r="4" fill="#87CEFF"/>
<circle cx="64" cy="68.5" r="4" fill="#87CEFF"/>
<circle cx="80" cy="68.5" r="4" fill="#87CEFF"/>
<circle cx="96" cy="68.5" r="4" fill="#87CEFF"/>
<circle cx="112" cy="68.5" r="4" fill="#87CEFF"/>
<circle cx="128" cy="68.5" r="4" fill="#87CEFF"/>
<circle cx="144" cy="68.5" r="4" fill="#87CEFF"/>
<circle cx="160" cy="68.5" r="4" fill="#87CEFF"/>
<circle cx="176" cy="68.5" r="4" fill="#87CEFF"/>
<circle cx="192" cy="68.5" r="4" fill="#87CEFF"/>
<circle cx="208" cy="68.5" r="4" fill="#87CEFF"/>
<circle cx="224" cy="68.5" r="4" fill="#87CEFF"/>
<circle cx="240" cy="68.5" r="4" fill="#87CEFF"/>
<circle cx="256" cy="68.5" r="4" fill="#87CEFF"/>
<circle cx="272" cy="68.5" r="4" fill="#87CEFF"/>
<circle cy="84.5" r="4" fill="#87CEFF"/>
<circle cx="16" cy="84.5" r="4" fill="#87CEFF"/>
<circle cx="32" cy="84.5" r="4" fill="#87CEFF"/>
<circle cx="48" cy="84.5" r="4" fill="#87CEFF"/>
<circle cx="64" cy="84.5" r="4" fill="#87CEFF"/>
<circle cx="80" cy="84.5" r="4" fill="#87CEFF"/>
<circle cx="96" cy="84.5" r="4" fill="#87CEFF"/>
<circle cx="112" cy="84.5" r="4" fill="#87CEFF"/>
<circle cx="128" cy="84.5" r="4" fill="#87CEFF"/>
<circle cx="144" cy="84.5" r="4" fill="#87CEFF"/>
<circle cx="160" cy="84.5" r="4" fill="#87CEFF"/>
<circle cx="176" cy="84.5" r="4" fill="#87CEFF"/>
<circle cx="192" cy="84.5" r="4" fill="#87CEFF"/>
<circle cx="208" cy="84.5" r="4" fill="#87CEFF"/>
<circle cx="224" cy="84.5" r="4" fill="#87CEFF"/>
<circle cx="240" cy="84.5" r="4" fill="#87CEFF"/>
<circle cx="256" cy="84.5" r="4" fill="#87CEFF"/>
<circle cx="272" cy="84.5" r="4" fill="#87CEFF"/>
<circle cy="100.5" r="4" fill="#87CEFF"/>
<circle cx="16" cy="100.5" r="4" fill="#87CEFF"/>
<circle cx="32" cy="100.5" r="4" fill="#87CEFF"/>
<circle cx="48" cy="100.5" r="4" fill="#87CEFF"/>
<circle cx="64" cy="100.5" r="4" fill="#87CEFF"/>
<circle cx="80" cy="100.5" r="4" fill="#87CEFF"/>
<circle cx="96" cy="100.5" r="4" fill="#87CEFF"/>
<circle cx="112" cy="100.5" r="4" fill="#87CEFF"/>
<circle cx="128" cy="100.5" r="4" fill="#87CEFF"/>
<circle cx="144" cy="100.5" r="4" fill="#87CEFF"/>
<circle cx="160" cy="100.5" r="4" fill="#87CEFF"/>
<circle cx="176" cy="100.5" r="4" fill="#87CEFF"/>
<circle cx="192" cy="100.5" r="4" fill="#87CEFF"/>
<circle cx="208" cy="100.5" r="4" fill="#87CEFF"/>
<circle cx="224" cy="100.5" r="4" fill="#87CEFF"/>
<circle cx="240" cy="100.5" r="4" fill="#87CEFF"/>
<circle cx="256" cy="100.5" r="4" fill="#87CEFF"/>
<circle cx="272" cy="100.5" r="4" fill="#87CEFF"/>
<circle cy="116.5" r="4" fill="#87CEFF"/>
<circle cx="16" cy="116.5" r="4" fill="#87CEFF"/>
<circle cx="32" cy="116.5" r="4" fill="#87CEFF"/>
<circle cx="48" cy="116.5" r="4" fill="#87CEFF"/>
<circle cx="64" cy="116.5" r="4" fill="#87CEFF"/>
<circle cx="80" cy="116.5" r="4" fill="#87CEFF"/>
<circle cx="96" cy="116.5" r="4" fill="#87CEFF"/>
<circle cx="112" cy="116.5" r="4" fill="#87CEFF"/>
<circle cx="128" cy="116.5" r="4" fill="#87CEFF"/>
<circle cx="144" cy="116.5" r="4" fill="#87CEFF"/>
<circle cx="160" cy="116.5" r="4" fill="#87CEFF"/>
<circle cx="176" cy="116.5" r="4" fill="#87CEFF"/>
<circle cx="192" cy="116.5" r="4" fill="#87CEFF"/>
<circle cx="208" cy="116.5" r="4" fill="#87CEFF"/>
<circle cx="224" cy="116.5" r="4" fill="#87CEFF"/>
<circle cx="240" cy="116.5" r="4" fill="#87CEFF"/>
<circle cx="256" cy="116.5" r="4" fill="#87CEFF"/>
<circle cx="272" cy="116.5" r="4" fill="#87CEFF"/>
<circle cy="132.5" r="4" fill="#87CEFF"/>
<circle cx="16" cy="132.5" r="4" fill="#87CEFF"/>
<circle cx="32" cy="132.5" r="4" fill="#87CEFF"/>
<circle cx="48" cy="132.5" r="4" fill="#87CEFF"/>
<circle cx="64" cy="132.5" r="4" fill="#87CEFF"/>
<circle cx="80" cy="132.5" r="4" fill="#87CEFF"/>
<circle cx="96" cy="132.5" r="4" fill="#87CEFF"/>
<circle cx="112" cy="132.5" r="4" fill="#87CEFF"/>
<circle cx="128" cy="132.5" r="4" fill="#87CEFF"/>
<circle cx="144" cy="132.5" r="4" fill="#87CEFF"/>
<circle cx="160" cy="132.5" r="4" fill="#87CEFF"/>
<circle cx="176" cy="132.5" r="4" fill="#87CEFF"/>
<circle cx="192" cy="132.5" r="4" fill="#87CEFF"/>
<circle cx="208" cy="132.5" r="4" fill="#87CEFF"/>
<circle cx="224" cy="132.5" r="4" fill="#87CEFF"/>
<circle cx="240" cy="132.5" r="4" fill="#87CEFF"/>
<circle cx="256" cy="132.5" r="4" fill="#87CEFF"/>
<circle cx="272" cy="132.5" r="4" fill="#87CEFF"/>
<circle cy="148.5" r="4" fill="#87CEFF"/>
<circle cx="16" cy="148.5" r="4" fill="#87CEFF"/>
<circle cx="32" cy="148.5" r="4" fill="#87CEFF"/>
<circle cx="48" cy="148.5" r="4" fill="#87CEFF"/>
<circle cx="64" cy="148.5" r="4" fill="#87CEFF"/>
<circle cx="80" cy="148.5" r="4" fill="#87CEFF"/>
<circle cx="96" cy="148.5" r="4" fill="#87CEFF"/>
<circle cx="112" cy="148.5" r="4" fill="#87CEFF"/>
<circle cx="128" cy="148.5" r="4" fill="#87CEFF"/>
<circle cx="144" cy="148.5" r="4" fill="#87CEFF"/>
<circle cx="160" cy="148.5" r="4" fill="#87CEFF"/>
<circle cx="176" cy="148.5" r="4" fill="#87CEFF"/>
<circle cx="192" cy="148.5" r="4" fill="#87CEFF"/>
<circle cx="208" cy="148.5" r="4" fill="#87CEFF"/>
<circle cx="224" cy="148.5" r="4" fill="#87CEFF"/>
<circle cx="240" cy="148.5" r="4" fill="#87CEFF"/>
<circle cx="256" cy="148.5" r="4" fill="#87CEFF"/>
<circle cx="272" cy="148.5" r="4" fill="#87CEFF"/>
</g>
<path fill-rule="evenodd" clip-rule="evenodd" d="M181 93V105C181 111.627 175.627 117 169 117H127C120.373 117 115 111.627 115 105V69H103V57C103 50.3726 108.373 45 115 45H157C163.627 45 169 50.3726 169 57V93H181Z" fill="#3399D1"/>
<path fill-rule="evenodd" clip-rule="evenodd" d="M177 89V101C177 107.627 171.627 113 165 113H123C116.373 113 111 107.627 111 101V65H99V53C99 46.3726 104.373 41 111 41H153C159.627 41 165 46.3726 165 53V89H177Z" fill="white"/>
<path d="M105 53C105 49.6863 107.686 47 111 47H120V59H105V53Z" fill="#55B4ED"/>
<path d="M111 47.0005H153C156.314 47.0005 159 49.6868 159 53.0005V107H123C119.686 107 117 104.314 117 101V53.008C117 49.8107 114.493 47.1751 111.3 47.0155L111 47.0005Z" fill="#C8E6FF"/>
<path d="M129 95H171V101C171 104.314 168.314 107 165 107H123L123.3 106.985C126.493 106.825 129 104.19 129 100.993V95Z" fill="#55B4ED"/>
<path fill-rule="evenodd" clip-rule="evenodd" d="M129 59H126V62H123V65H126V62H129V65H132V62H135V65H138V62H141V65H144V62H147V65H150V62H153V59H150V62H147V59H144V62H141V59H138V62H135V59H132V62H129V59ZM129 71H126V74H123V77H126V74H129V77H132V74H135V77H138V74H141V77H144V74H147V77H150V74H153V71H150V74H147V71H144V74H141V71H138V74H135V71H132V74H129V71ZM126 83H129V86H126V83ZM126 86V89H123V86H126ZM132 86V89H129V86H132ZM135 86H132V83H135V86ZM138 86V89H135V86H138ZM141 86H138V83H141V86ZM144 86V89H141V86H144ZM147 86H144V83H147V86ZM150 86V89H147V86H150ZM150 86V83H153V86H150Z" fill="#3399D1"/>
<path fill-rule="evenodd" clip-rule="evenodd" d="M70.5706 119.298L73.9001 123.956C75.2195 125.802 77.5454 126.636 79.737 126.049C81.9286 125.461 83.526 123.576 83.7457 121.318L84.3001 115.619L88.9583 112.289C90.8041 110.97 91.638 108.644 91.0507 106.453C90.4635 104.261 88.5784 102.664 86.3202 102.444L80.6213 101.89L77.2917 97.2313C75.9723 95.3855 73.6464 94.5517 71.4548 95.1389C69.2632 95.7261 67.6658 97.6112 67.4461 99.8694L66.8918 105.568L62.2335 108.898C60.3877 110.217 59.5539 112.543 60.1411 114.735C60.7283 116.926 62.6134 118.524 64.8716 118.743L70.5706 119.298Z" fill="#3399D1"/>
<path fill-rule="evenodd" clip-rule="evenodd" d="M68.5706 117.3L71.9001 121.958C73.2195 123.804 75.5454 124.638 77.737 124.051C79.9286 123.464 81.526 121.578 81.7457 119.32L82.3001 113.621L86.9583 110.292C88.8041 108.972 89.638 106.646 89.0507 104.455C88.4635 102.263 86.5784 100.666 84.3202 100.446L78.6213 99.8918L75.2917 95.2336C73.9723 93.3877 71.6464 92.5539 69.4548 93.1411C67.2632 93.7284 65.6658 95.6134 65.4461 97.8717L64.8918 103.571L60.2335 106.9C58.3877 108.22 57.5539 110.545 58.1411 112.737C58.7283 114.929 60.6134 116.526 62.8716 116.746L68.5706 117.3Z" fill="white"/>
<path d="M62.559 110.154L68.6964 105.767L69.4268 98.2586C69.485 97.66 69.9085 97.1602 70.4895 97.0045C71.0706 96.8488 71.6872 97.0699 72.037 97.5593L76.4238 103.697L83.9324 104.427C84.531 104.485 85.0308 104.909 85.1865 105.49C85.3422 106.071 85.1211 106.687 84.6318 107.037L78.4944 111.424L77.7639 118.933C77.7057 119.531 77.2822 120.031 76.7012 120.187C76.1202 120.342 75.5036 120.121 75.1538 119.632L70.7669 113.495L63.2584 112.764C62.6597 112.706 62.1599 112.282 62.0043 111.701C61.8486 111.12 62.0696 110.504 62.559 110.154Z" fill="#FFADF3"/>
<path fill-rule="evenodd" clip-rule="evenodd" d="M203.445 117.311L203.723 120.16C203.832 121.289 204.631 122.232 205.727 122.525C206.823 122.819 207.986 122.402 208.645 121.479L210.31 119.15L213.16 118.873C214.289 118.763 215.231 117.964 215.525 116.869C215.819 115.773 215.402 114.61 214.479 113.95L212.15 112.285L211.872 109.436C211.763 108.307 210.964 107.364 209.868 107.071C208.772 106.777 207.609 107.194 206.95 108.117L205.285 110.446L202.435 110.723C201.306 110.833 200.364 111.632 200.07 112.727C199.776 113.823 200.193 114.986 201.116 115.646L203.445 117.311Z" fill="#3399D1"/>
<path d="M206.763 107.698L207.577 108.28L206.763 107.698L204.834 110.397L201.532 110.719L201.628 111.7L201.532 110.719C200.818 110.788 200.222 111.293 200.036 111.986C199.85 112.68 200.114 113.415 200.698 113.833L201.279 113.019L200.698 113.833L203.397 115.762L203.718 119.063C203.787 119.778 204.292 120.374 204.986 120.56C205.679 120.745 206.414 120.482 206.832 119.898L208.761 117.199L212.063 116.878C212.777 116.808 213.373 116.303 213.559 115.61C213.745 114.917 213.481 114.181 212.897 113.764L210.198 111.835L209.877 108.533L208.882 108.63L209.877 108.533C209.807 107.819 209.302 107.222 208.609 107.037C207.916 106.851 207.18 107.115 206.763 107.698Z" fill="#87CEFF" stroke="white" stroke-width="2" stroke-linejoin="round"/>
<path fill-rule="evenodd" clip-rule="evenodd" d="M70.6706 24.7732C73.0054 26.2478 73.7027 29.3359 72.2281 31.6706L60.2281 50.6706C58.7535 53.0054 55.6654 53.7027 53.3307 52.2281C50.9959 50.7535 50.2986 47.6654 51.7732 45.3307L63.7732 26.3307C65.2478 23.9959 68.3359 23.2986 70.6706 24.7732ZM84.6706 24.7732C87.0054 26.2478 87.7027 29.3359 86.2281 31.6706L74.2281 50.6706C72.7535 53.0054 69.6654 53.7027 67.3307 52.2281C64.9959 50.7535 64.2986 47.6654 65.7732 45.3307L77.7732 26.3307C79.2478 23.9959 82.3359 23.2986 84.6706 24.7732Z" fill="#3399D1"/>
<path fill-rule="evenodd" clip-rule="evenodd" d="M68.6706 22.7732C71.0054 24.2478 71.7027 27.3359 70.2281 29.6706L58.2281 48.6706C56.7535 51.0054 53.6654 51.7027 51.3307 50.2281C48.9959 48.7535 48.2986 45.6654 49.7732 43.3307L61.7732 24.3307C63.2478 21.9959 66.3359 21.2986 68.6706 22.7732ZM82.6706 22.7732C85.0054 24.2478 85.7027 27.3359 84.2281 29.6706L72.2281 48.6706C70.7535 51.0054 67.6654 51.7027 65.3307 50.2281C62.9959 48.7535 62.2986 45.6654 63.7732 43.3307L75.7732 24.3307C77.2478 21.9959 80.3359 21.2986 82.6706 22.7732Z" fill="white"/>
<path fill-rule="evenodd" clip-rule="evenodd" d="M67.6913 28.0683C68.2811 27.1344 68.0022 25.8991 67.0683 25.3093C66.1344 24.7194 64.8991 24.9984 64.3093 25.9323L52.3093 44.9325C51.7194 45.8664 51.9984 47.1016 52.9323 47.6915C53.8662 48.2813 55.1014 48.0024 55.6912 47.0685L67.6913 28.0683ZM81.6913 28.0683C82.2811 27.1344 82.0022 25.8991 81.0683 25.3093C80.1344 24.7194 78.8992 24.9984 78.3093 25.9323L66.3093 44.9325C65.7195 45.8664 65.9984 47.1016 66.9323 47.6915C67.8662 48.2813 69.1014 48.0024 69.6913 47.0685L81.6913 28.0683Z" fill="#9AAEBC"/>
<path fill-rule="evenodd" clip-rule="evenodd" d="M193.719 63.5836C192.776 62.7609 192.235 61.5106 192.366 60.1765L195.356 29.704C195.462 28.6194 196.007 27.6251 196.863 26.9511C197.72 26.2772 198.814 25.9819 199.893 26.1336L208.766 27.3806C209.846 27.5323 210.816 28.1178 211.454 29.0017C212.091 29.8856 212.341 30.9915 212.144 32.0634L206.619 62.1796C206.377 63.4981 205.512 64.5508 204.379 65.0817C204.781 65.4632 205.154 65.8894 205.493 66.3608C206.96 68.3958 207.485 70.7599 207.142 73.2004C206.799 75.6409 205.643 77.7688 203.672 79.3207C201.625 80.9325 199.189 81.4862 196.688 81.1347C194.186 80.7831 191.997 79.5794 190.474 77.4658C189.007 75.4308 188.483 73.0667 188.826 70.6262C189.169 68.1857 190.324 66.0578 192.295 64.5059C192.752 64.1464 193.228 63.8395 193.719 63.5836Z" fill="#3399D1"/>
<path fill-rule="evenodd" clip-rule="evenodd" d="M190.718 60.5859C189.775 59.7632 189.233 58.5129 189.364 57.1787L192.354 26.7063C192.461 25.6217 193.005 24.6274 193.862 23.9534C194.718 23.2795 195.812 22.9842 196.892 23.1359L205.765 24.3829C206.844 24.5345 207.814 25.12 208.452 26.004C209.09 26.8879 209.339 27.9937 209.142 29.0657L203.617 59.1819C203.375 60.5004 202.51 61.5531 201.377 62.084C201.779 62.4655 202.152 62.8917 202.492 63.3631C203.958 65.3981 204.483 67.7622 204.14 70.2027C203.797 72.6431 202.641 74.7711 200.67 76.323C198.623 77.9348 196.187 78.4885 193.686 78.137C191.185 77.7854 188.995 76.5816 187.472 74.4681C186.005 72.4331 185.481 70.069 185.824 67.6285C186.167 65.188 187.323 63.0601 189.293 61.5082C189.75 61.1487 190.226 60.8418 190.718 60.5859Z" fill="white"/>
<path d="M193.345 57.5695L196.335 27.0971L205.208 28.3441L199.682 58.4603L193.345 57.5695ZM194.242 74.1761C192.721 73.9623 191.546 73.2801 190.717 72.1295C189.888 70.9789 189.577 69.6642 189.785 68.1854C189.992 66.7066 190.654 65.5285 191.768 64.651C192.882 63.7735 194.2 63.4417 195.721 63.6555C197.242 63.8692 198.417 64.5514 199.246 65.702C200.076 66.8526 200.386 68.1673 200.178 69.6461C199.971 71.1249 199.31 72.3031 198.195 73.1805C197.081 74.058 195.763 74.3898 194.242 74.1761Z" fill="#FFADF3"/>
</g>
<defs>
<radialGradient id="paint0_radial_8524_64895" cx="0" cy="0" r="1" gradientUnits="userSpaceOnUse" gradientTransform="translate(136 76.5) rotate(90) scale(76.5 136)">
<stop/>
<stop offset="1" stop-opacity="0.2"/>
</radialGradient>
<clipPath id="clip0_8524_64895">
<rect width="272" height="153" fill="white"/>
</clipPath>
</defs>
</svg>
