<svg width="720" height="117" viewBox="0 0 720 117" fill="none" xmlns="http://www.w3.org/2000/svg">
<path d="M0 0H720V117H0V0Z" fill="#D9BCF2"/>
<rect x="120.5" y="48.5" width="79" height="68" fill="white"/>
<path d="M146.859 89H145.547V77.7969H146.859V89ZM153.352 88.9219C153.049 89.0885 152.651 89.1719 152.156 89.1719C150.755 89.1719 150.055 88.3906 150.055 86.8281V82.0938H148.68V81H150.055V79.0469L151.336 78.6328V81H153.352V82.0938H151.336V86.6016C151.336 87.138 151.427 87.5208 151.609 87.75C151.792 87.9792 152.094 88.0938 152.516 88.0938C152.839 88.0938 153.117 88.0052 153.352 87.8281V88.9219ZM161.492 85.3203H155.844C155.865 86.2109 156.104 86.8984 156.562 87.3828C157.021 87.8672 157.651 88.1094 158.453 88.1094C159.354 88.1094 160.182 87.8125 160.938 87.2188V88.4219C160.234 88.9323 159.305 89.1875 158.148 89.1875C157.018 89.1875 156.13 88.8255 155.484 88.1016C154.839 87.3724 154.516 86.349 154.516 85.0312C154.516 83.7865 154.867 82.7734 155.57 81.9922C156.279 81.2057 157.156 80.8125 158.203 80.8125C159.25 80.8125 160.06 81.151 160.633 81.8281C161.206 82.5052 161.492 83.4453 161.492 84.6484V85.3203ZM160.18 84.2344C160.174 83.4948 159.995 82.9193 159.641 82.5078C159.292 82.0964 158.805 81.8906 158.18 81.8906C157.576 81.8906 157.062 82.1068 156.641 82.5391C156.219 82.9714 155.958 83.5365 155.859 84.2344H160.18ZM174.797 89H173.516V84.4062C173.516 83.5208 173.378 82.8802 173.102 82.4844C172.831 82.0885 172.372 81.8906 171.727 81.8906C171.18 81.8906 170.714 82.1406 170.328 82.6406C169.948 83.1406 169.758 83.7396 169.758 84.4375V89H168.477V84.25C168.477 82.6771 167.87 81.8906 166.656 81.8906C166.094 81.8906 165.63 82.1276 165.266 82.6016C164.901 83.0703 164.719 83.6823 164.719 84.4375V89H163.438V81H164.719V82.2656H164.75C165.318 81.2969 166.146 80.8125 167.234 80.8125C167.781 80.8125 168.258 80.9661 168.664 81.2734C169.07 81.5755 169.349 81.974 169.5 82.4688C170.094 81.3646 170.979 80.8125 172.156 80.8125C173.917 80.8125 174.797 81.8984 174.797 84.0703V89Z" fill="black"/>
<rect x="120.5" y="48.5" width="79" height="68" stroke="black" stroke-dasharray="5 5"/>
<rect x="320.5" y="0.5" width="79" height="116" fill="white"/>
<path d="M346.859 65H345.547V53.7969H346.859V65ZM353.352 64.9219C353.049 65.0885 352.651 65.1719 352.156 65.1719C350.755 65.1719 350.055 64.3906 350.055 62.8281V58.0938H348.68V57H350.055V55.0469L351.336 54.6328V57H353.352V58.0938H351.336V62.6016C351.336 63.138 351.427 63.5208 351.609 63.75C351.792 63.9792 352.094 64.0938 352.516 64.0938C352.839 64.0938 353.117 64.0052 353.352 63.8281V64.9219ZM361.492 61.3203H355.844C355.865 62.2109 356.104 62.8984 356.562 63.3828C357.021 63.8672 357.651 64.1094 358.453 64.1094C359.354 64.1094 360.182 63.8125 360.938 63.2188V64.4219C360.234 64.9323 359.305 65.1875 358.148 65.1875C357.018 65.1875 356.13 64.8255 355.484 64.1016C354.839 63.3724 354.516 62.349 354.516 61.0312C354.516 59.7865 354.867 58.7734 355.57 57.9922C356.279 57.2057 357.156 56.8125 358.203 56.8125C359.25 56.8125 360.06 57.151 360.633 57.8281C361.206 58.5052 361.492 59.4453 361.492 60.6484V61.3203ZM360.18 60.2344C360.174 59.4948 359.995 58.9193 359.641 58.5078C359.292 58.0964 358.805 57.8906 358.18 57.8906C357.576 57.8906 357.062 58.1068 356.641 58.5391C356.219 58.9714 355.958 59.5365 355.859 60.2344H360.18ZM374.797 65H373.516V60.4062C373.516 59.5208 373.378 58.8802 373.102 58.4844C372.831 58.0885 372.372 57.8906 371.727 57.8906C371.18 57.8906 370.714 58.1406 370.328 58.6406C369.948 59.1406 369.758 59.7396 369.758 60.4375V65H368.477V60.25C368.477 58.6771 367.87 57.8906 366.656 57.8906C366.094 57.8906 365.63 58.1276 365.266 58.6016C364.901 59.0703 364.719 59.6823 364.719 60.4375V65H363.438V57H364.719V58.2656H364.75C365.318 57.2969 366.146 56.8125 367.234 56.8125C367.781 56.8125 368.258 56.9661 368.664 57.2734C369.07 57.5755 369.349 57.974 369.5 58.4688C370.094 57.3646 370.979 56.8125 372.156 56.8125C373.917 56.8125 374.797 57.8984 374.797 60.0703V65Z" fill="black"/>
<rect x="320.5" y="0.5" width="79" height="116" stroke="black" stroke-dasharray="5 5"/>
<rect x="496.5" y="48.5" width="127" height="68" fill="white"/>
<path d="M546.859 89H545.547V77.7969H546.859V89ZM553.352 88.9219C553.049 89.0885 552.651 89.1719 552.156 89.1719C550.755 89.1719 550.055 88.3906 550.055 86.8281V82.0938H548.68V81H550.055V79.0469L551.336 78.6328V81H553.352V82.0938H551.336V86.6016C551.336 87.138 551.427 87.5208 551.609 87.75C551.792 87.9792 552.094 88.0938 552.516 88.0938C552.839 88.0938 553.117 88.0052 553.352 87.8281V88.9219ZM561.492 85.3203H555.844C555.865 86.2109 556.104 86.8984 556.562 87.3828C557.021 87.8672 557.651 88.1094 558.453 88.1094C559.354 88.1094 560.182 87.8125 560.938 87.2188V88.4219C560.234 88.9323 559.305 89.1875 558.148 89.1875C557.018 89.1875 556.13 88.8255 555.484 88.1016C554.839 87.3724 554.516 86.349 554.516 85.0312C554.516 83.7865 554.867 82.7734 555.57 81.9922C556.279 81.2057 557.156 80.8125 558.203 80.8125C559.25 80.8125 560.06 81.151 560.633 81.8281C561.206 82.5052 561.492 83.4453 561.492 84.6484V85.3203ZM560.18 84.2344C560.174 83.4948 559.995 82.9193 559.641 82.5078C559.292 82.0964 558.805 81.8906 558.18 81.8906C557.576 81.8906 557.062 82.1068 556.641 82.5391C556.219 82.9714 555.958 83.5365 555.859 84.2344H560.18ZM574.797 89H573.516V84.4062C573.516 83.5208 573.378 82.8802 573.102 82.4844C572.831 82.0885 572.372 81.8906 571.727 81.8906C571.18 81.8906 570.714 82.1406 570.328 82.6406C569.948 83.1406 569.758 83.7396 569.758 84.4375V89H568.477V84.25C568.477 82.6771 567.87 81.8906 566.656 81.8906C566.094 81.8906 565.63 82.1276 565.266 82.6016C564.901 83.0703 564.719 83.6823 564.719 84.4375V89H563.438V81H564.719V82.2656H564.75C565.318 81.2969 566.146 80.8125 567.234 80.8125C567.781 80.8125 568.258 80.9661 568.664 81.2734C569.07 81.5755 569.349 81.974 569.5 82.4688C570.094 81.3646 570.979 80.8125 572.156 80.8125C573.917 80.8125 574.797 81.8984 574.797 84.0703V89Z" fill="black"/>
<rect x="496.5" y="48.5" width="127" height="68" stroke="black" stroke-dasharray="5 5"/>
<path d="M0 0V-0.5H-0.5V0H0ZM720 0H720.5V-0.5H720V0ZM720 117V117.5H720.5V117H720ZM0 117H-0.5V117.5H0V117ZM-0.5 0V2.4375H0.5V0H-0.5ZM-0.5 7.3125V12.1875H0.5V7.3125H-0.5ZM-0.5 17.0625V21.9375H0.5V17.0625H-0.5ZM-0.5 26.8125V31.6875H0.5V26.8125H-0.5ZM-0.5 36.5625V41.4375H0.5V36.5625H-0.5ZM-0.5 46.3125V51.1875H0.5V46.3125H-0.5ZM-0.5 56.0625V60.9375H0.5V56.0625H-0.5ZM-0.5 65.8125V70.6875H0.5V65.8125H-0.5ZM-0.5 75.5625V80.4375H0.5V75.5625H-0.5ZM-0.5 85.3125V90.1875H0.5V85.3125H-0.5ZM-0.5 95.0625V99.9375H0.5V95.0625H-0.5ZM-0.5 104.812V109.688H0.5V104.812H-0.5ZM-0.5 114.563V117H0.5V114.563H-0.5ZM0 117.5H2.5V116.5H0V117.5ZM7.5 117.5H12.5V116.5H7.5V117.5ZM17.5 117.5H22.5V116.5H17.5V117.5ZM27.5 117.5H32.5V116.5H27.5V117.5ZM37.5 117.5H42.5V116.5H37.5V117.5ZM47.5 117.5H52.5V116.5H47.5V117.5ZM57.5 117.5H62.5V116.5H57.5V117.5ZM67.5 117.5H72.5V116.5H67.5V117.5ZM77.5 117.5H82.5V116.5H77.5V117.5ZM87.5 117.5H92.5V116.5H87.5V117.5ZM97.5 117.5H102.5V116.5H97.5V117.5ZM107.5 117.5H112.5V116.5H107.5V117.5ZM117.5 117.5H122.5V116.5H117.5V117.5ZM127.5 117.5H132.5V116.5H127.5V117.5ZM137.5 117.5H142.5V116.5H137.5V117.5ZM147.5 117.5H152.5V116.5H147.5V117.5ZM157.5 117.5H162.5V116.5H157.5V117.5ZM167.5 117.5H172.5V116.5H167.5V117.5ZM177.5 117.5H182.5V116.5H177.5V117.5ZM187.5 117.5H192.5V116.5H187.5V117.5ZM197.5 117.5H202.5V116.5H197.5V117.5ZM207.5 117.5H212.5V116.5H207.5V117.5ZM217.5 117.5H222.5V116.5H217.5V117.5ZM227.5 117.5H232.5V116.5H227.5V117.5ZM237.5 117.5H242.5V116.5H237.5V117.5ZM247.5 117.5H252.5V116.5H247.5V117.5ZM257.5 117.5H262.5V116.5H257.5V117.5ZM267.5 117.5H272.5V116.5H267.5V117.5ZM277.5 117.5H282.5V116.5H277.5V117.5ZM287.5 117.5H292.5V116.5H287.5V117.5ZM297.5 117.5H302.5V116.5H297.5V117.5ZM307.5 117.5H312.5V116.5H307.5V117.5ZM317.5 117.5H322.5V116.5H317.5V117.5ZM327.5 117.5H332.5V116.5H327.5V117.5ZM337.5 117.5H342.5V116.5H337.5V117.5ZM347.5 117.5H352.5V116.5H347.5V117.5ZM357.5 117.5H362.5V116.5H357.5V117.5ZM367.5 117.5H372.5V116.5H367.5V117.5ZM377.5 117.5H382.5V116.5H377.5V117.5ZM387.5 117.5H392.5V116.5H387.5V117.5ZM397.5 117.5H402.5V116.5H397.5V117.5ZM407.5 117.5H412.5V116.5H407.5V117.5ZM417.5 117.5H422.5V116.5H417.5V117.5ZM427.5 117.5H432.5V116.5H427.5V117.5ZM437.5 117.5H442.5V116.5H437.5V117.5ZM447.5 117.5H452.5V116.5H447.5V117.5ZM457.5 117.5H462.5V116.5H457.5V117.5ZM467.5 117.5H472.5V116.5H467.5V117.5ZM477.5 117.5H482.5V116.5H477.5V117.5ZM487.5 117.5H492.5V116.5H487.5V117.5ZM497.5 117.5H502.5V116.5H497.5V117.5ZM507.5 117.5H512.5V116.5H507.5V117.5ZM517.5 117.5H522.5V116.5H517.5V117.5ZM527.5 117.5H532.5V116.5H527.5V117.5ZM537.5 117.5H542.5V116.5H537.5V117.5ZM547.5 117.5H552.5V116.5H547.5V117.5ZM557.5 117.5H562.5V116.5H557.5V117.5ZM567.5 117.5H572.5V116.5H567.5V117.5ZM577.5 117.5H582.5V116.5H577.5V117.5ZM587.5 117.5H592.5V116.5H587.5V117.5ZM597.5 117.5H602.5V116.5H597.5V117.5ZM607.5 117.5H612.5V116.5H607.5V117.5ZM617.5 117.5H622.5V116.5H617.5V117.5ZM627.5 117.5H632.5V116.5H627.5V117.5ZM637.5 117.5H642.5V116.5H637.5V117.5ZM647.5 117.5H652.5V116.5H647.5V117.5ZM657.5 117.5H662.5V116.5H657.5V117.5ZM667.5 117.5H672.5V116.5H667.5V117.5ZM677.5 117.5H682.5V116.5H677.5V117.5ZM687.5 117.5H692.5V116.5H687.5V117.5ZM697.5 117.5H702.5V116.5H697.5V117.5ZM707.5 117.5H712.5V116.5H707.5V117.5ZM717.5 117.5H720V116.5H717.5V117.5ZM720.5 117V114.562H719.5V117H720.5ZM720.5 109.688V104.813H719.5V109.688H720.5ZM720.5 99.9375V95.0625H719.5V99.9375H720.5ZM720.5 90.1875V85.3125H719.5V90.1875H720.5ZM720.5 80.4375V75.5625H719.5V80.4375H720.5ZM720.5 70.6875V65.8125H719.5V70.6875H720.5ZM720.5 60.9375V56.0625H719.5V60.9375H720.5ZM720.5 51.1875V46.3125H719.5V51.1875H720.5ZM720.5 41.4375V36.5625H719.5V41.4375H720.5ZM720.5 31.6875V26.8125H719.5V31.6875H720.5ZM720.5 21.9375V17.0625H719.5V21.9375H720.5ZM720.5 12.1875V7.3125H719.5V12.1875H720.5ZM720.5 2.4375V0H719.5V2.4375H720.5ZM720 -0.5H717.5V0.5H720V-0.5ZM712.5 -0.5H707.5V0.5H712.5V-0.5ZM702.5 -0.5H697.5V0.5H702.5V-0.5ZM692.5 -0.5H687.5V0.5H692.5V-0.5ZM682.5 -0.5H677.5V0.5H682.5V-0.5ZM672.5 -0.5H667.5V0.5H672.5V-0.5ZM662.5 -0.5H657.5V0.5H662.5V-0.5ZM652.5 -0.5H647.5V0.5H652.5V-0.5ZM642.5 -0.5H637.5V0.5H642.5V-0.5ZM632.5 -0.5H627.5V0.5H632.5V-0.5ZM622.5 -0.5H617.5V0.5H622.5V-0.5ZM612.5 -0.5H607.5V0.5H612.5V-0.5ZM602.5 -0.5H597.5V0.5H602.5V-0.5ZM592.5 -0.5H587.5V0.5H592.5V-0.5ZM582.5 -0.5H577.5V0.5H582.5V-0.5ZM572.5 -0.5H567.5V0.5H572.5V-0.5ZM562.5 -0.5H557.5V0.5H562.5V-0.5ZM552.5 -0.5H547.5V0.5H552.5V-0.5ZM542.5 -0.5H537.5V0.5H542.5V-0.5ZM532.5 -0.5H527.5V0.5H532.5V-0.5ZM522.5 -0.5H517.5V0.5H522.5V-0.5ZM512.5 -0.5H507.5V0.5H512.5V-0.5ZM502.5 -0.5H497.5V0.5H502.5V-0.5ZM492.5 -0.5H487.5V0.5H492.5V-0.5ZM482.5 -0.5H477.5V0.5H482.5V-0.5ZM472.5 -0.5H467.5V0.5H472.5V-0.5ZM462.5 -0.5H457.5V0.5H462.5V-0.5ZM452.5 -0.5H447.5V0.5H452.5V-0.5ZM442.5 -0.5H437.5V0.5H442.5V-0.5ZM432.5 -0.5H427.5V0.5H432.5V-0.5ZM422.5 -0.5H417.5V0.5H422.5V-0.5ZM412.5 -0.5H407.5V0.5H412.5V-0.5ZM402.5 -0.5H397.5V0.5H402.5V-0.5ZM392.5 -0.5H387.5V0.5H392.5V-0.5ZM382.5 -0.5H377.5V0.5H382.5V-0.5ZM372.5 -0.5H367.5V0.5H372.5V-0.5ZM362.5 -0.5H357.5V0.5H362.5V-0.5ZM352.5 -0.5H347.5V0.5H352.5V-0.5ZM342.5 -0.5H337.5V0.5H342.5V-0.5ZM332.5 -0.5H327.5V0.5H332.5V-0.5ZM322.5 -0.5H317.5V0.5H322.5V-0.5ZM312.5 -0.5H307.5V0.5H312.5V-0.5ZM302.5 -0.5H297.5V0.5H302.5V-0.5ZM292.5 -0.5H287.5V0.5H292.5V-0.5ZM282.5 -0.5H277.5V0.5H282.5V-0.5ZM272.5 -0.5H267.5V0.5H272.5V-0.5ZM262.5 -0.5H257.5V0.5H262.5V-0.5ZM252.5 -0.5H247.5V0.5H252.5V-0.5ZM242.5 -0.5H237.5V0.5H242.5V-0.5ZM232.5 -0.5H227.5V0.5H232.5V-0.5ZM222.5 -0.5H217.5V0.5H222.5V-0.5ZM212.5 -0.5H207.5V0.5H212.5V-0.5ZM202.5 -0.5H197.5V0.5H202.5V-0.5ZM192.5 -0.5H187.5V0.5H192.5V-0.5ZM182.5 -0.5H177.5V0.5H182.5V-0.5ZM172.5 -0.5H167.5V0.5H172.5V-0.5ZM162.5 -0.5H157.5V0.5H162.5V-0.5ZM152.5 -0.5H147.5V0.5H152.5V-0.5ZM142.5 -0.5H137.5V0.5H142.5V-0.5ZM132.5 -0.5H127.5V0.5H132.5V-0.5ZM122.5 -0.5H117.5V0.5H122.5V-0.5ZM112.5 -0.5H107.5V0.5H112.5V-0.5ZM102.5 -0.5H97.5V0.5H102.5V-0.5ZM92.5 -0.5H87.5V0.5H92.5V-0.5ZM82.5 -0.5H77.5V0.5H82.5V-0.5ZM72.5 -0.5H67.5V0.5H72.5V-0.5ZM62.5 -0.5H57.5V0.5H62.5V-0.5ZM52.5 -0.5H47.5V0.5H52.5V-0.5ZM42.5 -0.5H37.5V0.5H42.5V-0.5ZM32.5 -0.5H27.5V0.5H32.5V-0.5ZM22.5 -0.5H17.5V0.5H22.5V-0.5ZM12.5 -0.5H7.50001V0.5H12.5V-0.5ZM2.49999 -0.5H0V0.5H2.49999V-0.5ZM0 0V-1H-1V0H0ZM720 0H721V-1H720V0ZM720 117V118H721V117H720ZM0 117H-1V118H0V117ZM-1 0V2.4375H1V0H-1ZM-1 7.3125V12.1875H1V7.3125H-1ZM-1 17.0625V21.9375H1V17.0625H-1ZM-1 26.8125V31.6875H1V26.8125H-1ZM-1 36.5625V41.4375H1V36.5625H-1ZM-1 46.3125V51.1875H1V46.3125H-1ZM-1 56.0625V60.9375H1V56.0625H-1ZM-1 65.8125V70.6875H1V65.8125H-1ZM-1 75.5625V80.4375H1V75.5625H-1ZM-1 85.3125V90.1875H1V85.3125H-1ZM-1 95.0625V99.9375H1V95.0625H-1ZM-1 104.812V109.688H1V104.812H-1ZM-1 114.563V117H1V114.563H-1ZM0 118H2.5V116H0V118ZM7.5 118H12.5V116H7.5V118ZM17.5 118H22.5V116H17.5V118ZM27.5 118H32.5V116H27.5V118ZM37.5 118H42.5V116H37.5V118ZM47.5 118H52.5V116H47.5V118ZM57.5 118H62.5V116H57.5V118ZM67.5 118H72.5V116H67.5V118ZM77.5 118H82.5V116H77.5V118ZM87.5 118H92.5V116H87.5V118ZM97.5 118H102.5V116H97.5V118ZM107.5 118H112.5V116H107.5V118ZM117.5 118H122.5V116H117.5V118ZM127.5 118H132.5V116H127.5V118ZM137.5 118H142.5V116H137.5V118ZM147.5 118H152.5V116H147.5V118ZM157.5 118H162.5V116H157.5V118ZM167.5 118H172.5V116H167.5V118ZM177.5 118H182.5V116H177.5V118ZM187.5 118H192.5V116H187.5V118ZM197.5 118H202.5V116H197.5V118ZM207.5 118H212.5V116H207.5V118ZM217.5 118H222.5V116H217.5V118ZM227.5 118H232.5V116H227.5V118ZM237.5 118H242.5V116H237.5V118ZM247.5 118H252.5V116H247.5V118ZM257.5 118H262.5V116H257.5V118ZM267.5 118H272.5V116H267.5V118ZM277.5 118H282.5V116H277.5V118ZM287.5 118H292.5V116H287.5V118ZM297.5 118H302.5V116H297.5V118ZM307.5 118H312.5V116H307.5V118ZM317.5 118H322.5V116H317.5V118ZM327.5 118H332.5V116H327.5V118ZM337.5 118H342.5V116H337.5V118ZM347.5 118H352.5V116H347.5V118ZM357.5 118H362.5V116H357.5V118ZM367.5 118H372.5V116H367.5V118ZM377.5 118H382.5V116H377.5V118ZM387.5 118H392.5V116H387.5V118ZM397.5 118H402.5V116H397.5V118ZM407.5 118H412.5V116H407.5V118ZM417.5 118H422.5V116H417.5V118ZM427.5 118H432.5V116H427.5V118ZM437.5 118H442.5V116H437.5V118ZM447.5 118H452.5V116H447.5V118ZM457.5 118H462.5V116H457.5V118ZM467.5 118H472.5V116H467.5V118ZM477.5 118H482.5V116H477.5V118ZM487.5 118H492.5V116H487.5V118ZM497.5 118H502.5V116H497.5V118ZM507.5 118H512.5V116H507.5V118ZM517.5 118H522.5V116H517.5V118ZM527.5 118H532.5V116H527.5V118ZM537.5 118H542.5V116H537.5V118ZM547.5 118H552.5V116H547.5V118ZM557.5 118H562.5V116H557.5V118ZM567.5 118H572.5V116H567.5V118ZM577.5 118H582.5V116H577.5V118ZM587.5 118H592.5V116H587.5V118ZM597.5 118H602.5V116H597.5V118ZM607.5 118H612.5V116H607.5V118ZM617.5 118H622.5V116H617.5V118ZM627.5 118H632.5V116H627.5V118ZM637.5 118H642.5V116H637.5V118ZM647.5 118H652.5V116H647.5V118ZM657.5 118H662.5V116H657.5V118ZM667.5 118H672.5V116H667.5V118ZM677.5 118H682.5V116H677.5V118ZM687.5 118H692.5V116H687.5V118ZM697.5 118H702.5V116H697.5V118ZM707.5 118H712.5V116H707.5V118ZM717.5 118H720V116H717.5V118ZM721 117V114.562H719V117H721ZM721 109.688V104.813H719V109.688H721ZM721 99.9375V95.0625H719V99.9375H721ZM721 90.1875V85.3125H719V90.1875H721ZM721 80.4375V75.5625H719V80.4375H721ZM721 70.6875V65.8125H719V70.6875H721ZM721 60.9375V56.0625H719V60.9375H721ZM721 51.1875V46.3125H719V51.1875H721ZM721 41.4375V36.5625H719V41.4375H721ZM721 31.6875V26.8125H719V31.6875H721ZM721 21.9375V17.0625H719V21.9375H721ZM721 12.1875V7.3125H719V12.1875H721ZM721 2.4375V0H719V2.4375H721ZM720 -1H717.5V1H720V-1ZM712.5 -1H707.5V1H712.5V-1ZM702.5 -1H697.5V1H702.5V-1ZM692.5 -1H687.5V1H692.5V-1ZM682.5 -1H677.5V1H682.5V-1ZM672.5 -1H667.5V1H672.5V-1ZM662.5 -1H657.5V1H662.5V-1ZM652.5 -1H647.5V1H652.5V-1ZM642.5 -1H637.5V1H642.5V-1ZM632.5 -1H627.5V1H632.5V-1ZM622.5 -1H617.5V1H622.5V-1ZM612.5 -1H607.5V1H612.5V-1ZM602.5 -1H597.5V1H602.5V-1ZM592.5 -1H587.5V1H592.5V-1ZM582.5 -1H577.5V1H582.5V-1ZM572.5 -1H567.5V1H572.5V-1ZM562.5 -1H557.5V1H562.5V-1ZM552.5 -1H547.5V1H552.5V-1ZM542.5 -1H537.5V1H542.5V-1ZM532.5 -1H527.5V1H532.5V-1ZM522.5 -1H517.5V1H522.5V-1ZM512.5 -1H507.5V1H512.5V-1ZM502.5 -1H497.5V1H502.5V-1ZM492.5 -1H487.5V1H492.5V-1ZM482.5 -1H477.5V1H482.5V-1ZM472.5 -1H467.5V1H472.5V-1ZM462.5 -1H457.5V1H462.5V-1ZM452.5 -1H447.5V1H452.5V-1ZM442.5 -1H437.5V1H442.5V-1ZM432.5 -1H427.5V1H432.5V-1ZM422.5 -1H417.5V1H422.5V-1ZM412.5 -1H407.5V1H412.5V-1ZM402.5 -1H397.5V1H402.5V-1ZM392.5 -1H387.5V1H392.5V-1ZM382.5 -1H377.5V1H382.5V-1ZM372.5 -1H367.5V1H372.5V-1ZM362.5 -1H357.5V1H362.5V-1ZM352.5 -1H347.5V1H352.5V-1ZM342.5 -1H337.5V1H342.5V-1ZM332.5 -1H327.5V1H332.5V-1ZM322.5 -1H317.5V1H322.5V-1ZM312.5 -1H307.5V1H312.5V-1ZM302.5 -1H297.5V1H302.5V-1ZM292.5 -1H287.5V1H292.5V-1ZM282.5 -1H277.5V1H282.5V-1ZM272.5 -1H267.5V1H272.5V-1ZM262.5 -1H257.5V1H262.5V-1ZM252.5 -1H247.5V1H252.5V-1ZM242.5 -1H237.5V1H242.5V-1ZM232.5 -1H227.5V1H232.5V-1ZM222.5 -1H217.5V1H222.5V-1ZM212.5 -1H207.5V1H212.5V-1ZM202.5 -1H197.5V1H202.5V-1ZM192.5 -1H187.5V1H192.5V-1ZM182.5 -1H177.5V1H182.5V-1ZM172.5 -1H167.5V1H172.5V-1ZM162.5 -1H157.5V1H162.5V-1ZM152.5 -1H147.5V1H152.5V-1ZM142.5 -1H137.5V1H142.5V-1ZM132.5 -1H127.5V1H132.5V-1ZM122.5 -1H117.5V1H122.5V-1ZM112.5 -1H107.5V1H112.5V-1ZM102.5 -1H97.5V1H102.5V-1ZM92.5 -1H87.5V1H92.5V-1ZM82.5 -1H77.5V1H82.5V-1ZM72.5 -1H67.5V1H72.5V-1ZM62.5 -1H57.5V1H62.5V-1ZM52.5 -1H47.5V1H52.5V-1ZM42.5 -1H37.5V1H42.5V-1ZM32.5 -1H27.5V1H32.5V-1ZM22.5 -1H17.5V1H22.5V-1ZM12.5 -1H7.50001V1H12.5V-1ZM2.49999 -1H0V1H2.49999V-1Z" fill="#7F20D2"/>
</svg>
