<svg width="768" height="120" viewBox="0 0 768 120" fill="none" xmlns="http://www.w3.org/2000/svg">
<path d="M0 0H768V120H0V0Z" fill="#D9BCF2"/>
<rect x="129.5" y="0.5" width="83" height="71" fill="white"/>
<path d="M156.217 43H154.74V30.3965H156.217V43ZM163.521 42.9121C163.181 43.0996 162.732 43.1934 162.176 43.1934C160.6 43.1934 159.812 42.3145 159.812 40.5566V35.2305H158.265V34H159.812V31.8027L161.253 31.3369V34H163.521V35.2305H161.253V40.3018C161.253 40.9053 161.355 41.3359 161.561 41.5938C161.766 41.8516 162.105 41.9805 162.58 41.9805C162.943 41.9805 163.257 41.8809 163.521 41.6816V42.9121ZM172.679 38.8604H166.324C166.348 39.8623 166.617 40.6357 167.133 41.1807C167.648 41.7256 168.357 41.998 169.26 41.998C170.273 41.998 171.205 41.6641 172.055 40.9961V42.3496C171.264 42.9238 170.218 43.2109 168.917 43.2109C167.646 43.2109 166.646 42.8037 165.92 41.9893C165.193 41.1689 164.83 40.0176 164.83 38.5352C164.83 37.1348 165.226 35.9951 166.017 35.1162C166.813 34.2314 167.801 33.7891 168.979 33.7891C170.156 33.7891 171.067 34.1699 171.712 34.9316C172.356 35.6934 172.679 36.751 172.679 38.1045V38.8604ZM171.202 37.6387C171.196 36.8066 170.994 36.1592 170.596 35.6963C170.203 35.2334 169.655 35.002 168.952 35.002C168.272 35.002 167.695 35.2451 167.221 35.7314C166.746 36.2178 166.453 36.8535 166.342 37.6387H171.202ZM187.646 43H186.205V37.832C186.205 36.8359 186.05 36.1152 185.739 35.6699C185.435 35.2246 184.919 35.002 184.192 35.002C183.577 35.002 183.053 35.2832 182.619 35.8457C182.191 36.4082 181.978 37.082 181.978 37.8672V43H180.536V37.6562C180.536 35.8867 179.854 35.002 178.488 35.002C177.855 35.002 177.334 35.2686 176.924 35.8018C176.514 36.3291 176.309 37.0176 176.309 37.8672V43H174.867V34H176.309V35.4238H176.344C176.982 34.334 177.914 33.7891 179.139 33.7891C179.754 33.7891 180.29 33.9619 180.747 34.3076C181.204 34.6475 181.518 35.0957 181.688 35.6523C182.355 34.4102 183.352 33.7891 184.676 33.7891C186.656 33.7891 187.646 35.0107 187.646 37.4541V43Z" fill="black"/>
<rect x="129.5" y="0.5" width="83" height="71" stroke="black" stroke-dasharray="5 5"/>
<rect x="342.5" y="0.5" width="83" height="119" fill="white"/>
<path d="M369.217 67H367.74V54.3965H369.217V67ZM376.521 66.9121C376.181 67.0996 375.732 67.1934 375.176 67.1934C373.6 67.1934 372.812 66.3145 372.812 64.5566V59.2305H371.265V58H372.812V55.8027L374.253 55.3369V58H376.521V59.2305H374.253V64.3018C374.253 64.9053 374.355 65.3359 374.561 65.5938C374.766 65.8516 375.105 65.9805 375.58 65.9805C375.943 65.9805 376.257 65.8809 376.521 65.6816V66.9121ZM385.679 62.8604H379.324C379.348 63.8623 379.617 64.6357 380.133 65.1807C380.648 65.7256 381.357 65.998 382.26 65.998C383.273 65.998 384.205 65.6641 385.055 64.9961V66.3496C384.264 66.9238 383.218 67.2109 381.917 67.2109C380.646 67.2109 379.646 66.8037 378.92 65.9893C378.193 65.1689 377.83 64.0176 377.83 62.5352C377.83 61.1348 378.226 59.9951 379.017 59.1162C379.813 58.2314 380.801 57.7891 381.979 57.7891C383.156 57.7891 384.067 58.1699 384.712 58.9316C385.356 59.6934 385.679 60.751 385.679 62.1045V62.8604ZM384.202 61.6387C384.196 60.8066 383.994 60.1592 383.596 59.6963C383.203 59.2334 382.655 59.002 381.952 59.002C381.272 59.002 380.695 59.2451 380.221 59.7314C379.746 60.2178 379.453 60.8535 379.342 61.6387H384.202ZM400.646 67H399.205V61.832C399.205 60.8359 399.05 60.1152 398.739 59.6699C398.435 59.2246 397.919 59.002 397.192 59.002C396.577 59.002 396.053 59.2832 395.619 59.8457C395.191 60.4082 394.978 61.082 394.978 61.8672V67H393.536V61.6562C393.536 59.8867 392.854 59.002 391.488 59.002C390.855 59.002 390.334 59.2686 389.924 59.8018C389.514 60.3291 389.309 61.0176 389.309 61.8672V67H387.867V58H389.309V59.4238H389.344C389.982 58.334 390.914 57.7891 392.139 57.7891C392.754 57.7891 393.29 57.9619 393.747 58.3076C394.204 58.6475 394.518 59.0957 394.688 59.6523C395.355 58.4102 396.352 57.7891 397.676 57.7891C399.656 57.7891 400.646 59.0107 400.646 61.4541V67Z" fill="black"/>
<rect x="342.5" y="0.5" width="83" height="119" stroke="black" stroke-dasharray="5 5"/>
<rect x="531.5" y="0.5" width="131" height="71" fill="white"/>
<path d="M582.217 43H580.74V30.3965H582.217V43ZM589.521 42.9121C589.181 43.0996 588.732 43.1934 588.176 43.1934C586.6 43.1934 585.812 42.3145 585.812 40.5566V35.2305H584.265V34H585.812V31.8027L587.253 31.3369V34H589.521V35.2305H587.253V40.3018C587.253 40.9053 587.355 41.3359 587.561 41.5938C587.766 41.8516 588.105 41.9805 588.58 41.9805C588.943 41.9805 589.257 41.8809 589.521 41.6816V42.9121ZM598.679 38.8604H592.324C592.348 39.8623 592.617 40.6357 593.133 41.1807C593.648 41.7256 594.357 41.998 595.26 41.998C596.273 41.998 597.205 41.6641 598.055 40.9961V42.3496C597.264 42.9238 596.218 43.2109 594.917 43.2109C593.646 43.2109 592.646 42.8037 591.92 41.9893C591.193 41.1689 590.83 40.0176 590.83 38.5352C590.83 37.1348 591.226 35.9951 592.017 35.1162C592.813 34.2314 593.801 33.7891 594.979 33.7891C596.156 33.7891 597.067 34.1699 597.712 34.9316C598.356 35.6934 598.679 36.751 598.679 38.1045V38.8604ZM597.202 37.6387C597.196 36.8066 596.994 36.1592 596.596 35.6963C596.203 35.2334 595.655 35.002 594.952 35.002C594.272 35.002 593.695 35.2451 593.221 35.7314C592.746 36.2178 592.453 36.8535 592.342 37.6387H597.202ZM613.646 43H612.205V37.832C612.205 36.8359 612.05 36.1152 611.739 35.6699C611.435 35.2246 610.919 35.002 610.192 35.002C609.577 35.002 609.053 35.2832 608.619 35.8457C608.191 36.4082 607.978 37.082 607.978 37.8672V43H606.536V37.6562C606.536 35.8867 605.854 35.002 604.488 35.002C603.855 35.002 603.334 35.2686 602.924 35.8018C602.514 36.3291 602.309 37.0176 602.309 37.8672V43H600.867V34H602.309V35.4238H602.344C602.982 34.334 603.914 33.7891 605.139 33.7891C605.754 33.7891 606.29 33.9619 606.747 34.3076C607.204 34.6475 607.518 35.0957 607.688 35.6523C608.355 34.4102 609.352 33.7891 610.676 33.7891C612.656 33.7891 613.646 35.0107 613.646 37.4541V43Z" fill="black"/>
<rect x="531.5" y="0.5" width="131" height="71" stroke="black" stroke-dasharray="5 5"/>
<path d="M0 0V-0.5H-0.5V0H0ZM768 0H768.5V-0.5H768V0ZM768 120V120.5H768.5V120H768ZM0 120H-0.5V120.5H0V120ZM-0.5 0V2.5H0.5V0H-0.5ZM-0.5 7.5V12.5H0.5V7.5H-0.5ZM-0.5 17.5V22.5H0.5V17.5H-0.5ZM-0.5 27.5V32.5H0.5V27.5H-0.5ZM-0.5 37.5V42.5H0.5V37.5H-0.5ZM-0.5 47.5V52.5H0.5V47.5H-0.5ZM-0.5 57.5V62.5H0.5V57.5H-0.5ZM-0.5 67.5V72.5H0.5V67.5H-0.5ZM-0.5 77.5V82.5H0.5V77.5H-0.5ZM-0.5 87.5V92.5H0.5V87.5H-0.5ZM-0.5 97.5V102.5H0.5V97.5H-0.5ZM-0.5 107.5V112.5H0.5V107.5H-0.5ZM-0.5 117.5V120H0.5V117.5H-0.5ZM0 120.5H2.49351V119.5H0V120.5ZM7.48052 120.5H12.4675V119.5H7.48052V120.5ZM17.4545 120.5H22.4416V119.5H17.4545V120.5ZM27.4286 120.5H32.4156V119.5H27.4286V120.5ZM37.4026 120.5H42.3896V119.5H37.4026V120.5ZM47.3766 120.5H52.3636V119.5H47.3766V120.5ZM57.3507 120.5H62.3377V119.5H57.3507V120.5ZM67.3247 120.5H72.3117V119.5H67.3247V120.5ZM77.2987 120.5H82.2857V119.5H77.2987V120.5ZM87.2727 120.5H92.2598V119.5H87.2727V120.5ZM97.2468 120.5H102.234V119.5H97.2468V120.5ZM107.221 120.5H112.208V119.5H107.221V120.5ZM117.195 120.5H122.182V119.5H117.195V120.5ZM127.169 120.5H132.156V119.5H127.169V120.5ZM137.143 120.5H142.13V119.5H137.143V120.5ZM147.117 120.5H152.104V119.5H147.117V120.5ZM157.091 120.5H162.078V119.5H157.091V120.5ZM167.065 120.5H172.052V119.5H167.065V120.5ZM177.039 120.5H182.026V119.5H177.039V120.5ZM187.013 120.5H192V119.5H187.013V120.5ZM196.987 120.5H201.974V119.5H196.987V120.5ZM206.961 120.5H211.948V119.5H206.961V120.5ZM216.935 120.5H221.922V119.5H216.935V120.5ZM226.909 120.5H231.896V119.5H226.909V120.5ZM236.883 120.5H241.87V119.5H236.883V120.5ZM246.857 120.5H251.844V119.5H246.857V120.5ZM256.831 120.5H261.818V119.5H256.831V120.5ZM266.805 120.5H271.792V119.5H266.805V120.5ZM276.779 120.5H281.766V119.5H276.779V120.5ZM286.753 120.5H291.74V119.5H286.753V120.5ZM296.727 120.5H301.714V119.5H296.727V120.5ZM306.701 120.5H311.688V119.5H306.701V120.5ZM316.675 120.5H321.662V119.5H316.675V120.5ZM326.649 120.5H331.636V119.5H326.649V120.5ZM336.623 120.5H341.61V119.5H336.623V120.5ZM346.597 120.5H351.584V119.5H346.597V120.5ZM356.571 120.5H361.558V119.5H356.571V120.5ZM366.545 120.5H371.532V119.5H366.545V120.5ZM376.519 120.5H381.506V119.5H376.519V120.5ZM386.493 120.5H391.48V119.5H386.493V120.5ZM396.467 120.5H401.454V119.5H396.467V120.5ZM406.441 120.5H411.428V119.5H406.441V120.5ZM416.415 120.5H421.402V119.5H416.415V120.5ZM426.389 120.5H431.376V119.5H426.389V120.5ZM436.363 120.5H441.35V119.5H436.363V120.5ZM446.337 120.5H451.324V119.5H446.337V120.5ZM456.311 120.5H461.298V119.5H456.311V120.5ZM466.285 120.5H471.272V119.5H466.285V120.5ZM476.259 120.5H481.246V119.5H476.259V120.5ZM486.233 120.5H491.22V119.5H486.233V120.5ZM496.207 120.5H501.194V119.5H496.207V120.5ZM506.181 120.5H511.168V119.5H506.181V120.5ZM516.155 120.5H521.142V119.5H516.155V120.5ZM526.129 120.5H531.116V119.5H526.129V120.5ZM536.103 120.5H541.09V119.5H536.103V120.5ZM546.077 120.5H551.064V119.5H546.077V120.5ZM556.051 120.5H561.038V119.5H556.051V120.5ZM566.025 120.5H571.012V119.5H566.025V120.5ZM575.999 120.5H580.986V119.5H575.999V120.5ZM585.973 120.5H590.96V119.5H585.973V120.5ZM595.947 120.5H600.934V119.5H595.947V120.5ZM605.921 120.5H610.908V119.5H605.921V120.5ZM615.895 120.5H620.882V119.5H615.895V120.5ZM625.869 120.5H630.856V119.5H625.869V120.5ZM635.843 120.5H640.83V119.5H635.843V120.5ZM645.817 120.5H650.804V119.5H645.817V120.5ZM655.791 120.5H660.778V119.5H655.791V120.5ZM665.765 120.5H670.752V119.5H665.765V120.5ZM675.739 120.5H680.726V119.5H675.739V120.5ZM685.713 120.5H690.7V119.5H685.713V120.5ZM695.687 120.5H700.674V119.5H695.687V120.5ZM705.661 120.5H710.648V119.5H705.661V120.5ZM715.635 120.5H720.622V119.5H715.635V120.5ZM725.609 120.5H730.596V119.5H725.609V120.5ZM735.583 120.5H740.57V119.5H735.583V120.5ZM745.557 120.5H750.544V119.5H745.557V120.5ZM755.531 120.5H760.518V119.5H755.531V120.5ZM765.505 120.5H768V119.5H765.505V120.5ZM768.5 120V117.5H767.5V120H768.5ZM768.5 112.5V107.5H767.5V112.5H768.5ZM768.5 102.5V97.5H767.5V102.5H768.5ZM768.5 92.5V87.5H767.5V92.5H768.5ZM768.5 82.5V77.5H767.5V82.5H768.5ZM768.5 72.5V67.5H767.5V72.5H768.5ZM768.5 62.5V57.5H767.5V62.5H768.5ZM768.5 52.5V47.5H767.5V52.5H768.5ZM768.5 42.5V37.5H767.5V42.5H768.5ZM768.5 32.5V27.5H767.5V32.5H768.5ZM768.5 22.5V17.5H767.5V22.5H768.5ZM768.5 12.5V7.5H767.5V12.5H768.5ZM768.5 2.5V0H767.5V2.5H768.5ZM768 -0.5H765.506V0.5H768V-0.5ZM760.519 -0.5H755.532V0.5H760.519V-0.5ZM750.545 -0.5H745.558V0.5H750.545V-0.5ZM740.571 -0.5H735.584V0.5H740.571V-0.5ZM730.597 -0.5H725.61V0.5H730.597V-0.5ZM720.623 -0.5H715.636V0.5H720.623V-0.5ZM710.649 -0.5H705.662V0.5H710.649V-0.5ZM700.675 -0.5H695.688V0.5H700.675V-0.5ZM690.701 -0.5H685.714V0.5H690.701V-0.5ZM680.727 -0.5H675.74V0.5H680.727V-0.5ZM670.753 -0.5H665.766V0.5H670.753V-0.5ZM660.779 -0.5H655.792V0.5H660.779V-0.5ZM650.805 -0.5H645.818V0.5H650.805V-0.5ZM640.831 -0.5H635.844V0.5H640.831V-0.5ZM630.857 -0.5H625.87V0.5H630.857V-0.5ZM620.883 -0.5H615.896V0.5H620.883V-0.5ZM610.909 -0.5H605.922V0.5H610.909V-0.5ZM600.935 -0.5H595.948V0.5H600.935V-0.5ZM590.961 -0.5H585.974V0.5H590.961V-0.5ZM580.987 -0.5H576V0.5H580.987V-0.5ZM571.013 -0.5H566.026V0.5H571.013V-0.5ZM561.039 -0.5H556.052V0.5H561.039V-0.5ZM551.065 -0.5H546.078V0.5H551.065V-0.5ZM541.091 -0.5H536.104V0.5H541.091V-0.5ZM531.117 -0.5H526.13V0.5H531.117V-0.5ZM521.143 -0.5H516.156V0.5H521.143V-0.5ZM511.169 -0.5H506.182V0.5H511.169V-0.5ZM501.195 -0.5H496.208V0.5H501.195V-0.5ZM491.221 -0.5H486.234V0.5H491.221V-0.5ZM481.247 -0.5H476.26V0.5H481.247V-0.5ZM471.273 -0.5H466.286V0.5H471.273V-0.5ZM461.299 -0.5H456.312V0.5H461.299V-0.5ZM451.325 -0.5H446.338V0.5H451.325V-0.5ZM441.351 -0.5H436.364V0.5H441.351V-0.5ZM431.377 -0.5H426.39V0.5H431.377V-0.5ZM421.403 -0.5H416.416V0.5H421.403V-0.5ZM411.429 -0.5H406.442V0.5H411.429V-0.5ZM401.455 -0.5H396.468V0.5H401.455V-0.5ZM391.481 -0.5H386.494V0.5H391.481V-0.5ZM381.507 -0.5H376.52V0.5H381.507V-0.5ZM371.533 -0.5H366.546V0.5H371.533V-0.5ZM361.559 -0.5H356.572V0.5H361.559V-0.5ZM351.585 -0.5H346.598V0.5H351.585V-0.5ZM341.611 -0.5H336.624V0.5H341.611V-0.5ZM331.637 -0.5H326.65V0.5H331.637V-0.5ZM321.663 -0.5H316.676V0.5H321.663V-0.5ZM311.689 -0.5H306.702V0.5H311.689V-0.5ZM301.715 -0.5H296.728V0.5H301.715V-0.5ZM291.741 -0.5H286.754V0.5H291.741V-0.5ZM281.767 -0.5H276.78V0.5H281.767V-0.5ZM271.793 -0.5H266.806V0.5H271.793V-0.5ZM261.819 -0.5H256.832V0.5H261.819V-0.5ZM251.845 -0.5H246.858V0.5H251.845V-0.5ZM241.871 -0.5H236.884V0.5H241.871V-0.5ZM231.897 -0.5H226.91V0.5H231.897V-0.5ZM221.923 -0.5H216.936V0.5H221.923V-0.5ZM211.949 -0.5H206.962V0.5H211.949V-0.5ZM201.975 -0.5H196.988V0.5H201.975V-0.5ZM192.001 -0.5H187.014V0.5H192.001V-0.5ZM182.027 -0.5H177.04V0.5H182.027V-0.5ZM172.053 -0.5H167.066V0.5H172.053V-0.5ZM162.079 -0.5H157.092V0.5H162.079V-0.5ZM152.105 -0.5H147.118V0.5H152.105V-0.5ZM142.131 -0.5H137.144V0.5H142.131V-0.5ZM132.157 -0.5H127.17V0.5H132.157V-0.5ZM122.183 -0.5H117.196V0.5H122.183V-0.5ZM112.209 -0.5H107.222V0.5H112.209V-0.5ZM102.235 -0.5H97.2478V0.5H102.235V-0.5ZM92.2608 -0.5H87.2738V0.5H92.2608V-0.5ZM82.2868 -0.5H77.2998V0.5H82.2868V-0.5ZM72.3128 -0.5H67.3258V0.5H72.3128V-0.5ZM62.3388 -0.5H57.3518V0.5H62.3388V-0.5ZM52.3648 -0.5H47.3778V0.5H52.3648V-0.5ZM42.3908 -0.5H37.4038V0.5H42.3908V-0.5ZM32.4168 -0.5H27.4298V0.5H32.4168V-0.5ZM22.4428 -0.5H17.4558V0.5H22.4428V-0.5ZM12.4688 -0.5H7.48183V0.5H12.4688V-0.5ZM2.49481 -0.5H0V0.5H2.49481V-0.5ZM0 0V-1H-1V0H0ZM768 0H769V-1H768V0ZM768 120V121H769V120H768ZM0 120H-1V121H0V120ZM-1 0V2.5H1V0H-1ZM-1 7.5V12.5H1V7.5H-1ZM-1 17.5V22.5H1V17.5H-1ZM-1 27.5V32.5H1V27.5H-1ZM-1 37.5V42.5H1V37.5H-1ZM-1 47.5V52.5H1V47.5H-1ZM-1 57.5V62.5H1V57.5H-1ZM-1 67.5V72.5H1V67.5H-1ZM-1 77.5V82.5H1V77.5H-1ZM-1 87.5V92.5H1V87.5H-1ZM-1 97.5V102.5H1V97.5H-1ZM-1 107.5V112.5H1V107.5H-1ZM-1 117.5V120H1V117.5H-1ZM0 121H2.49351V119H0V121ZM7.48052 121H12.4675V119H7.48052V121ZM17.4545 121H22.4416V119H17.4545V121ZM27.4286 121H32.4156V119H27.4286V121ZM37.4026 121H42.3896V119H37.4026V121ZM47.3766 121H52.3636V119H47.3766V121ZM57.3507 121H62.3377V119H57.3507V121ZM67.3247 121H72.3117V119H67.3247V121ZM77.2987 121H82.2857V119H77.2987V121ZM87.2727 121H92.2598V119H87.2727V121ZM97.2468 121H102.234V119H97.2468V121ZM107.221 121H112.208V119H107.221V121ZM117.195 121H122.182V119H117.195V121ZM127.169 121H132.156V119H127.169V121ZM137.143 121H142.13V119H137.143V121ZM147.117 121H152.104V119H147.117V121ZM157.091 121H162.078V119H157.091V121ZM167.065 121H172.052V119H167.065V121ZM177.039 121H182.026V119H177.039V121ZM187.013 121H192V119H187.013V121ZM196.987 121H201.974V119H196.987V121ZM206.961 121H211.948V119H206.961V121ZM216.935 121H221.922V119H216.935V121ZM226.909 121H231.896V119H226.909V121ZM236.883 121H241.87V119H236.883V121ZM246.857 121H251.844V119H246.857V121ZM256.831 121H261.818V119H256.831V121ZM266.805 121H271.792V119H266.805V121ZM276.779 121H281.766V119H276.779V121ZM286.753 121H291.74V119H286.753V121ZM296.727 121H301.714V119H296.727V121ZM306.701 121H311.688V119H306.701V121ZM316.675 121H321.662V119H316.675V121ZM326.649 121H331.636V119H326.649V121ZM336.623 121H341.61V119H336.623V121ZM346.597 121H351.584V119H346.597V121ZM356.571 121H361.558V119H356.571V121ZM366.545 121H371.532V119H366.545V121ZM376.519 121H381.506V119H376.519V121ZM386.493 121H391.48V119H386.493V121ZM396.467 121H401.454V119H396.467V121ZM406.441 121H411.428V119H406.441V121ZM416.415 121H421.402V119H416.415V121ZM426.389 121H431.376V119H426.389V121ZM436.363 121H441.35V119H436.363V121ZM446.337 121H451.324V119H446.337V121ZM456.311 121H461.298V119H456.311V121ZM466.285 121H471.272V119H466.285V121ZM476.259 121H481.246V119H476.259V121ZM486.233 121H491.22V119H486.233V121ZM496.207 121H501.194V119H496.207V121ZM506.181 121H511.168V119H506.181V121ZM516.155 121H521.142V119H516.155V121ZM526.129 121H531.116V119H526.129V121ZM536.103 121H541.09V119H536.103V121ZM546.077 121H551.064V119H546.077V121ZM556.051 121H561.038V119H556.051V121ZM566.025 121H571.012V119H566.025V121ZM575.999 121H580.986V119H575.999V121ZM585.973 121H590.96V119H585.973V121ZM595.947 121H600.934V119H595.947V121ZM605.921 121H610.908V119H605.921V121ZM615.895 121H620.882V119H615.895V121ZM625.869 121H630.856V119H625.869V121ZM635.843 121H640.83V119H635.843V121ZM645.817 121H650.804V119H645.817V121ZM655.791 121H660.778V119H655.791V121ZM665.765 121H670.752V119H665.765V121ZM675.739 121H680.726V119H675.739V121ZM685.713 121H690.7V119H685.713V121ZM695.687 121H700.674V119H695.687V121ZM705.661 121H710.648V119H705.661V121ZM715.635 121H720.622V119H715.635V121ZM725.609 121H730.596V119H725.609V121ZM735.583 121H740.57V119H735.583V121ZM745.557 121H750.544V119H745.557V121ZM755.531 121H760.518V119H755.531V121ZM765.505 121H768V119H765.505V121ZM769 120V117.5H767V120H769ZM769 112.5V107.5H767V112.5H769ZM769 102.5V97.5H767V102.5H769ZM769 92.5V87.5H767V92.5H769ZM769 82.5V77.5H767V82.5H769ZM769 72.5V67.5H767V72.5H769ZM769 62.5V57.5H767V62.5H769ZM769 52.5V47.5H767V52.5H769ZM769 42.5V37.5H767V42.5H769ZM769 32.5V27.5H767V32.5H769ZM769 22.5V17.5H767V22.5H769ZM769 12.5V7.5H767V12.5H769ZM769 2.5V0H767V2.5H769ZM768 -1H765.506V1H768V-1ZM760.519 -1H755.532V1H760.519V-1ZM750.545 -1H745.558V1H750.545V-1ZM740.571 -1H735.584V1H740.571V-1ZM730.597 -1H725.61V1H730.597V-1ZM720.623 -1H715.636V1H720.623V-1ZM710.649 -1H705.662V1H710.649V-1ZM700.675 -1H695.688V1H700.675V-1ZM690.701 -1H685.714V1H690.701V-1ZM680.727 -1H675.74V1H680.727V-1ZM670.753 -1H665.766V1H670.753V-1ZM660.779 -1H655.792V1H660.779V-1ZM650.805 -1H645.818V1H650.805V-1ZM640.831 -1H635.844V1H640.831V-1ZM630.857 -1H625.87V1H630.857V-1ZM620.883 -1H615.896V1H620.883V-1ZM610.909 -1H605.922V1H610.909V-1ZM600.935 -1H595.948V1H600.935V-1ZM590.961 -1H585.974V1H590.961V-1ZM580.987 -1H576V1H580.987V-1ZM571.013 -1H566.026V1H571.013V-1ZM561.039 -1H556.052V1H561.039V-1ZM551.065 -1H546.078V1H551.065V-1ZM541.091 -1H536.104V1H541.091V-1ZM531.117 -1H526.13V1H531.117V-1ZM521.143 -1H516.156V1H521.143V-1ZM511.169 -1H506.182V1H511.169V-1ZM501.195 -1H496.208V1H501.195V-1ZM491.221 -1H486.234V1H491.221V-1ZM481.247 -1H476.26V1H481.247V-1ZM471.273 -1H466.286V1H471.273V-1ZM461.299 -1H456.312V1H461.299V-1ZM451.325 -1H446.338V1H451.325V-1ZM441.351 -1H436.364V1H441.351V-1ZM431.377 -1H426.39V1H431.377V-1ZM421.403 -1H416.416V1H421.403V-1ZM411.429 -1H406.442V1H411.429V-1ZM401.455 -1H396.468V1H401.455V-1ZM391.481 -1H386.494V1H391.481V-1ZM381.507 -1H376.52V1H381.507V-1ZM371.533 -1H366.546V1H371.533V-1ZM361.559 -1H356.572V1H361.559V-1ZM351.585 -1H346.598V1H351.585V-1ZM341.611 -1H336.624V1H341.611V-1ZM331.637 -1H326.65V1H331.637V-1ZM321.663 -1H316.676V1H321.663V-1ZM311.689 -1H306.702V1H311.689V-1ZM301.715 -1H296.728V1H301.715V-1ZM291.741 -1H286.754V1H291.741V-1ZM281.767 -1H276.78V1H281.767V-1ZM271.793 -1H266.806V1H271.793V-1ZM261.819 -1H256.832V1H261.819V-1ZM251.845 -1H246.858V1H251.845V-1ZM241.871 -1H236.884V1H241.871V-1ZM231.897 -1H226.91V1H231.897V-1ZM221.923 -1H216.936V1H221.923V-1ZM211.949 -1H206.962V1H211.949V-1ZM201.975 -1H196.988V1H201.975V-1ZM192.001 -1H187.014V1H192.001V-1ZM182.027 -1H177.04V1H182.027V-1ZM172.053 -1H167.066V1H172.053V-1ZM162.079 -1H157.092V1H162.079V-1ZM152.105 -1H147.118V1H152.105V-1ZM142.131 -1H137.144V1H142.131V-1ZM132.157 -1H127.17V1H132.157V-1ZM122.183 -1H117.196V1H122.183V-1ZM112.209 -1H107.222V1H112.209V-1ZM102.235 -1H97.2478V1H102.235V-1ZM92.2608 -1H87.2738V1H92.2608V-1ZM82.2868 -1H77.2998V1H82.2868V-1ZM72.3128 -1H67.3258V1H72.3128V-1ZM62.3388 -1H57.3518V1H62.3388V-1ZM52.3648 -1H47.3778V1H52.3648V-1ZM42.3908 -1H37.4038V1H42.3908V-1ZM32.4168 -1H27.4298V1H32.4168V-1ZM22.4428 -1H17.4558V1H22.4428V-1ZM12.4688 -1H7.48183V1H12.4688V-1ZM2.49481 -1H0V1H2.49481V-1Z" fill="#7F20D2"/>
</svg>
