<svg width="768" height="256" viewBox="0 0 768 256" fill="none" xmlns="http://www.w3.org/2000/svg">
<path d="M0 0H768V256H0V0Z" fill="#D9BCF2"/>
<rect x="81.1665" y="24.5" width="83" height="71" fill="white"/>
<path d="M107.883 67H106.407V54.3965H107.883V67ZM115.187 66.9121C114.847 67.0996 114.399 67.1934 113.842 67.1934C112.266 67.1934 111.478 66.3145 111.478 64.5566V59.2305H109.931V58H111.478V55.8027L112.919 55.3369V58H115.187V59.2305H112.919V64.3018C112.919 64.9053 113.022 65.3359 113.227 65.5938C113.432 65.8516 113.772 65.9805 114.247 65.9805C114.61 65.9805 114.923 65.8809 115.187 65.6816V66.9121ZM124.345 62.8604H117.991C118.014 63.8623 118.284 64.6357 118.799 65.1807C119.315 65.7256 120.024 65.998 120.926 65.998C121.94 65.998 122.872 65.6641 123.721 64.9961V66.3496C122.93 66.9238 121.884 67.2109 120.583 67.2109C119.312 67.2109 118.313 66.8037 117.586 65.9893C116.86 65.1689 116.497 64.0176 116.497 62.5352C116.497 61.1348 116.892 59.9951 117.683 59.1162C118.48 58.2314 119.467 57.7891 120.645 57.7891C121.823 57.7891 122.734 58.1699 123.378 58.9316C124.023 59.6934 124.345 60.751 124.345 62.1045V62.8604ZM122.869 61.6387C122.863 60.8066 122.661 60.1592 122.262 59.6963C121.87 59.2334 121.322 59.002 120.619 59.002C119.939 59.002 119.362 59.2451 118.887 59.7314C118.413 60.2178 118.12 60.8535 118.008 61.6387H122.869ZM139.313 67H137.872V61.832C137.872 60.8359 137.716 60.1152 137.406 59.6699C137.101 59.2246 136.585 59.002 135.859 59.002C135.244 59.002 134.719 59.2832 134.286 59.8457C133.858 60.4082 133.644 61.082 133.644 61.8672V67H132.203V61.6562C132.203 59.8867 131.52 59.002 130.155 59.002C129.522 59.002 129 59.2686 128.59 59.8018C128.18 60.3291 127.975 61.0176 127.975 61.8672V67H126.534V58H127.975V59.4238H128.01C128.649 58.334 129.581 57.7891 130.805 57.7891C131.42 57.7891 131.957 57.9619 132.414 58.3076C132.871 58.6475 133.184 59.0957 133.354 59.6523C134.022 58.4102 135.018 57.7891 136.342 57.7891C138.323 57.7891 139.313 59.0107 139.313 61.4541V67Z" fill="black"/>
<rect x="81.1665" y="24.5" width="83" height="71" stroke="black" stroke-dasharray="5 5"/>
<rect x="342.5" y="0.5" width="83" height="119" fill="white"/>
<path d="M369.217 67H367.74V54.3965H369.217V67ZM376.521 66.9121C376.181 67.0996 375.732 67.1934 375.176 67.1934C373.6 67.1934 372.812 66.3145 372.812 64.5566V59.2305H371.265V58H372.812V55.8027L374.253 55.3369V58H376.521V59.2305H374.253V64.3018C374.253 64.9053 374.355 65.3359 374.561 65.5938C374.766 65.8516 375.105 65.9805 375.58 65.9805C375.943 65.9805 376.257 65.8809 376.521 65.6816V66.9121ZM385.679 62.8604H379.324C379.348 63.8623 379.617 64.6357 380.133 65.1807C380.648 65.7256 381.357 65.998 382.26 65.998C383.273 65.998 384.205 65.6641 385.055 64.9961V66.3496C384.264 66.9238 383.218 67.2109 381.917 67.2109C380.646 67.2109 379.646 66.8037 378.92 65.9893C378.193 65.1689 377.83 64.0176 377.83 62.5352C377.83 61.1348 378.226 59.9951 379.017 59.1162C379.813 58.2314 380.801 57.7891 381.979 57.7891C383.156 57.7891 384.067 58.1699 384.712 58.9316C385.356 59.6934 385.679 60.751 385.679 62.1045V62.8604ZM384.202 61.6387C384.196 60.8066 383.994 60.1592 383.596 59.6963C383.203 59.2334 382.655 59.002 381.952 59.002C381.272 59.002 380.695 59.2451 380.221 59.7314C379.746 60.2178 379.453 60.8535 379.342 61.6387H384.202ZM400.646 67H399.205V61.832C399.205 60.8359 399.05 60.1152 398.739 59.6699C398.435 59.2246 397.919 59.002 397.192 59.002C396.577 59.002 396.053 59.2832 395.619 59.8457C395.191 60.4082 394.978 61.082 394.978 61.8672V67H393.536V61.6562C393.536 59.8867 392.854 59.002 391.488 59.002C390.855 59.002 390.334 59.2686 389.924 59.8018C389.514 60.3291 389.309 61.0176 389.309 61.8672V67H387.867V58H389.309V59.4238H389.344C389.982 58.334 390.914 57.7891 392.139 57.7891C392.754 57.7891 393.29 57.9619 393.747 58.3076C394.204 58.6475 394.518 59.0957 394.688 59.6523C395.355 58.4102 396.352 57.7891 397.676 57.7891C399.656 57.7891 400.646 59.0107 400.646 61.4541V67Z" fill="black"/>
<rect x="342.5" y="0.5" width="83" height="119" stroke="black" stroke-dasharray="5 5"/>
<rect x="579.833" y="24.5" width="131" height="71" fill="white"/>
<path d="M630.55 67H629.073V54.3965H630.55V67ZM637.854 66.9121C637.514 67.0996 637.065 67.1934 636.509 67.1934C634.933 67.1934 634.145 66.3145 634.145 64.5566V59.2305H632.598V58H634.145V55.8027L635.586 55.3369V58H637.854V59.2305H635.586V64.3018C635.586 64.9053 635.688 65.3359 635.894 65.5938C636.099 65.8516 636.438 65.9805 636.913 65.9805C637.276 65.9805 637.59 65.8809 637.854 65.6816V66.9121ZM647.012 62.8604H640.657C640.681 63.8623 640.95 64.6357 641.466 65.1807C641.981 65.7256 642.69 65.998 643.593 65.998C644.606 65.998 645.538 65.6641 646.388 64.9961V66.3496C645.597 66.9238 644.551 67.2109 643.25 67.2109C641.979 67.2109 640.979 66.8037 640.253 65.9893C639.526 65.1689 639.163 64.0176 639.163 62.5352C639.163 61.1348 639.559 59.9951 640.35 59.1162C641.146 58.2314 642.134 57.7891 643.312 57.7891C644.489 57.7891 645.4 58.1699 646.045 58.9316C646.689 59.6934 647.012 60.751 647.012 62.1045V62.8604ZM645.535 61.6387C645.529 60.8066 645.327 60.1592 644.929 59.6963C644.536 59.2334 643.988 59.002 643.285 59.002C642.605 59.002 642.028 59.2451 641.554 59.7314C641.079 60.2178 640.786 60.8535 640.675 61.6387H645.535ZM661.979 67H660.538V61.832C660.538 60.8359 660.383 60.1152 660.072 59.6699C659.768 59.2246 659.252 59.002 658.525 59.002C657.91 59.002 657.386 59.2832 656.952 59.8457C656.524 60.4082 656.311 61.082 656.311 61.8672V67H654.869V61.6562C654.869 59.8867 654.187 59.002 652.821 59.002C652.188 59.002 651.667 59.2686 651.257 59.8018C650.847 60.3291 650.642 61.0176 650.642 61.8672V67H649.2V58H650.642V59.4238H650.677C651.315 58.334 652.247 57.7891 653.472 57.7891C654.087 57.7891 654.623 57.9619 655.08 58.3076C655.537 58.6475 655.851 59.0957 656.021 59.6523C656.688 58.4102 657.685 57.7891 659.009 57.7891C660.989 57.7891 661.979 59.0107 661.979 61.4541V67Z" fill="black"/>
<rect x="579.833" y="24.5" width="131" height="71" stroke="black" stroke-dasharray="5 5"/>
<rect x="57.1665" y="160.5" width="131" height="71" fill="white"/>
<path d="M107.883 203H106.407V190.396H107.883V203ZM115.187 202.912C114.847 203.1 114.399 203.193 113.842 203.193C112.266 203.193 111.478 202.314 111.478 200.557V195.23H109.931V194H111.478V191.803L112.919 191.337V194H115.187V195.23H112.919V200.302C112.919 200.905 113.022 201.336 113.227 201.594C113.432 201.852 113.772 201.98 114.247 201.98C114.61 201.98 114.923 201.881 115.187 201.682V202.912ZM124.345 198.86H117.991C118.014 199.862 118.284 200.636 118.799 201.181C119.315 201.726 120.024 201.998 120.926 201.998C121.94 201.998 122.872 201.664 123.721 200.996V202.35C122.93 202.924 121.884 203.211 120.583 203.211C119.312 203.211 118.313 202.804 117.586 201.989C116.86 201.169 116.497 200.018 116.497 198.535C116.497 197.135 116.892 195.995 117.683 195.116C118.48 194.231 119.467 193.789 120.645 193.789C121.823 193.789 122.734 194.17 123.378 194.932C124.023 195.693 124.345 196.751 124.345 198.104V198.86ZM122.869 197.639C122.863 196.807 122.661 196.159 122.262 195.696C121.87 195.233 121.322 195.002 120.619 195.002C119.939 195.002 119.362 195.245 118.887 195.731C118.413 196.218 118.12 196.854 118.008 197.639H122.869ZM139.313 203H137.872V197.832C137.872 196.836 137.716 196.115 137.406 195.67C137.101 195.225 136.585 195.002 135.859 195.002C135.244 195.002 134.719 195.283 134.286 195.846C133.858 196.408 133.644 197.082 133.644 197.867V203H132.203V197.656C132.203 195.887 131.52 195.002 130.155 195.002C129.522 195.002 129 195.269 128.59 195.802C128.18 196.329 127.975 197.018 127.975 197.867V203H126.534V194H127.975V195.424H128.01C128.649 194.334 129.581 193.789 130.805 193.789C131.42 193.789 131.957 193.962 132.414 194.308C132.871 194.647 133.184 195.096 133.354 195.652C134.022 194.41 135.018 193.789 136.342 193.789C138.323 193.789 139.313 195.011 139.313 197.454V203Z" fill="black"/>
<rect x="57.1665" y="160.5" width="131" height="71" stroke="black" stroke-dasharray="5 5"/>
<rect x="342.5" y="160.5" width="83" height="71" fill="white"/>
<path d="M369.217 203H367.74V190.396H369.217V203ZM376.521 202.912C376.181 203.1 375.732 203.193 375.176 203.193C373.6 203.193 372.812 202.314 372.812 200.557V195.23H371.265V194H372.812V191.803L374.253 191.337V194H376.521V195.23H374.253V200.302C374.253 200.905 374.355 201.336 374.561 201.594C374.766 201.852 375.105 201.98 375.58 201.98C375.943 201.98 376.257 201.881 376.521 201.682V202.912ZM385.679 198.86H379.324C379.348 199.862 379.617 200.636 380.133 201.181C380.648 201.726 381.357 201.998 382.26 201.998C383.273 201.998 384.205 201.664 385.055 200.996V202.35C384.264 202.924 383.218 203.211 381.917 203.211C380.646 203.211 379.646 202.804 378.92 201.989C378.193 201.169 377.83 200.018 377.83 198.535C377.83 197.135 378.226 195.995 379.017 195.116C379.813 194.231 380.801 193.789 381.979 193.789C383.156 193.789 384.067 194.17 384.712 194.932C385.356 195.693 385.679 196.751 385.679 198.104V198.86ZM384.202 197.639C384.196 196.807 383.994 196.159 383.596 195.696C383.203 195.233 382.655 195.002 381.952 195.002C381.272 195.002 380.695 195.245 380.221 195.731C379.746 196.218 379.453 196.854 379.342 197.639H384.202ZM400.646 203H399.205V197.832C399.205 196.836 399.05 196.115 398.739 195.67C398.435 195.225 397.919 195.002 397.192 195.002C396.577 195.002 396.053 195.283 395.619 195.846C395.191 196.408 394.978 197.082 394.978 197.867V203H393.536V197.656C393.536 195.887 392.854 195.002 391.488 195.002C390.855 195.002 390.334 195.269 389.924 195.802C389.514 196.329 389.309 197.018 389.309 197.867V203H387.867V194H389.309V195.424H389.344C389.982 194.334 390.914 193.789 392.139 193.789C392.754 193.789 393.29 193.962 393.747 194.308C394.204 194.647 394.518 195.096 394.688 195.652C395.355 194.41 396.352 193.789 397.676 193.789C399.656 193.789 400.646 195.011 400.646 197.454V203Z" fill="black"/>
<rect x="342.5" y="160.5" width="83" height="71" stroke="black" stroke-dasharray="5 5"/>
<rect x="603.833" y="136.5" width="83" height="119" fill="white"/>
<path d="M630.55 203H629.073V190.396H630.55V203ZM637.854 202.912C637.514 203.1 637.065 203.193 636.509 203.193C634.933 203.193 634.145 202.314 634.145 200.557V195.23H632.598V194H634.145V191.803L635.586 191.337V194H637.854V195.23H635.586V200.302C635.586 200.905 635.688 201.336 635.894 201.594C636.099 201.852 636.438 201.98 636.913 201.98C637.276 201.98 637.59 201.881 637.854 201.682V202.912ZM647.012 198.86H640.657C640.681 199.862 640.95 200.636 641.466 201.181C641.981 201.726 642.69 201.998 643.593 201.998C644.606 201.998 645.538 201.664 646.388 200.996V202.35C645.597 202.924 644.551 203.211 643.25 203.211C641.979 203.211 640.979 202.804 640.253 201.989C639.526 201.169 639.163 200.018 639.163 198.535C639.163 197.135 639.559 195.995 640.35 195.116C641.146 194.231 642.134 193.789 643.312 193.789C644.489 193.789 645.4 194.17 646.045 194.932C646.689 195.693 647.012 196.751 647.012 198.104V198.86ZM645.535 197.639C645.529 196.807 645.327 196.159 644.929 195.696C644.536 195.233 643.988 195.002 643.285 195.002C642.605 195.002 642.028 195.245 641.554 195.731C641.079 196.218 640.786 196.854 640.675 197.639H645.535ZM661.979 203H660.538V197.832C660.538 196.836 660.383 196.115 660.072 195.67C659.768 195.225 659.252 195.002 658.525 195.002C657.91 195.002 657.386 195.283 656.952 195.846C656.524 196.408 656.311 197.082 656.311 197.867V203H654.869V197.656C654.869 195.887 654.187 195.002 652.821 195.002C652.188 195.002 651.667 195.269 651.257 195.802C650.847 196.329 650.642 197.018 650.642 197.867V203H649.2V194H650.642V195.424H650.677C651.315 194.334 652.247 193.789 653.472 193.789C654.087 193.789 654.623 193.962 655.08 194.308C655.537 194.647 655.851 195.096 656.021 195.652C656.688 194.41 657.685 193.789 659.009 193.789C660.989 193.789 661.979 195.011 661.979 197.454V203Z" fill="black"/>
<rect x="603.833" y="136.5" width="83" height="119" stroke="black" stroke-dasharray="5 5"/>
<path d="M0 0V-0.5H-0.5V0H0ZM768 0H768.5V-0.5H768V0ZM768 256V256.5H768.5V256H768ZM0 256H-0.5V256.5H0V256ZM-0.5 0V2.46154H0.5V0H-0.5ZM-0.5 7.38462V12.3077H0.5V7.38462H-0.5ZM-0.5 17.2308V22.1538H0.5V17.2308H-0.5ZM-0.5 27.0769V32H0.5V27.0769H-0.5ZM-0.5 36.9231V41.8462H0.5V36.9231H-0.5ZM-0.5 46.7692V51.6923H0.5V46.7692H-0.5ZM-0.5 56.6154V61.5385H0.5V56.6154H-0.5ZM-0.5 66.4615V71.3846H0.5V66.4615H-0.5ZM-0.5 76.3077V81.2308H0.5V76.3077H-0.5ZM-0.5 86.1539V91.0769H0.5V86.1539H-0.5ZM-0.5 96V100.923H0.5V96H-0.5ZM-0.5 105.846V110.769H0.5V105.846H-0.5ZM-0.5 115.692V120.615H0.5V115.692H-0.5ZM-0.5 125.539V130.462H0.5V125.539H-0.5ZM-0.5 135.385V140.308H0.5V135.385H-0.5ZM-0.5 145.231V150.154H0.5V145.231H-0.5ZM-0.5 155.077V160H0.5V155.077H-0.5ZM-0.5 164.923V169.846H0.5V164.923H-0.5ZM-0.5 174.769V179.692H0.5V174.769H-0.5ZM-0.5 184.615V189.539H0.5V184.615H-0.5ZM-0.5 194.462V199.385H0.5V194.462H-0.5ZM-0.5 204.308V209.231H0.5V204.308H-0.5ZM-0.5 214.154V219.077H0.5V214.154H-0.5ZM-0.5 224V228.923H0.5V224H-0.5ZM-0.5 233.846V238.769H0.5V233.846H-0.5ZM-0.5 243.692V248.616H0.5V243.692H-0.5ZM-0.5 253.539V256H0.5V253.539H-0.5ZM0 256.5H2.49351V255.5H0V256.5ZM7.48052 256.5H12.4675V255.5H7.48052V256.5ZM17.4545 256.5H22.4416V255.5H17.4545V256.5ZM27.4286 256.5H32.4156V255.5H27.4286V256.5ZM37.4026 256.5H42.3896V255.5H37.4026V256.5ZM47.3766 256.5H52.3636V255.5H47.3766V256.5ZM57.3507 256.5H62.3377V255.5H57.3507V256.5ZM67.3247 256.5H72.3117V255.5H67.3247V256.5ZM77.2987 256.5H82.2857V255.5H77.2987V256.5ZM87.2727 256.5H92.2598V255.5H87.2727V256.5ZM97.2468 256.5H102.234V255.5H97.2468V256.5ZM107.221 256.5H112.208V255.5H107.221V256.5ZM117.195 256.5H122.182V255.5H117.195V256.5ZM127.169 256.5H132.156V255.5H127.169V256.5ZM137.143 256.5H142.13V255.5H137.143V256.5ZM147.117 256.5H152.104V255.5H147.117V256.5ZM157.091 256.5H162.078V255.5H157.091V256.5ZM167.065 256.5H172.052V255.5H167.065V256.5ZM177.039 256.5H182.026V255.5H177.039V256.5ZM187.013 256.5H192V255.5H187.013V256.5ZM196.987 256.5H201.974V255.5H196.987V256.5ZM206.961 256.5H211.948V255.5H206.961V256.5ZM216.935 256.5H221.922V255.5H216.935V256.5ZM226.909 256.5H231.896V255.5H226.909V256.5ZM236.883 256.5H241.87V255.5H236.883V256.5ZM246.857 256.5H251.844V255.5H246.857V256.5ZM256.831 256.5H261.818V255.5H256.831V256.5ZM266.805 256.5H271.792V255.5H266.805V256.5ZM276.779 256.5H281.766V255.5H276.779V256.5ZM286.753 256.5H291.74V255.5H286.753V256.5ZM296.727 256.5H301.714V255.5H296.727V256.5ZM306.701 256.5H311.688V255.5H306.701V256.5ZM316.675 256.5H321.662V255.5H316.675V256.5ZM326.649 256.5H331.636V255.5H326.649V256.5ZM336.623 256.5H341.61V255.5H336.623V256.5ZM346.597 256.5H351.584V255.5H346.597V256.5ZM356.571 256.5H361.558V255.5H356.571V256.5ZM366.545 256.5H371.532V255.5H366.545V256.5ZM376.519 256.5H381.506V255.5H376.519V256.5ZM386.493 256.5H391.48V255.5H386.493V256.5ZM396.467 256.5H401.454V255.5H396.467V256.5ZM406.441 256.5H411.428V255.5H406.441V256.5ZM416.415 256.5H421.402V255.5H416.415V256.5ZM426.389 256.5H431.376V255.5H426.389V256.5ZM436.363 256.5H441.35V255.5H436.363V256.5ZM446.337 256.5H451.324V255.5H446.337V256.5ZM456.311 256.5H461.298V255.5H456.311V256.5ZM466.285 256.5H471.272V255.5H466.285V256.5ZM476.259 256.5H481.246V255.5H476.259V256.5ZM486.233 256.5H491.22V255.5H486.233V256.5ZM496.207 256.5H501.194V255.5H496.207V256.5ZM506.181 256.5H511.168V255.5H506.181V256.5ZM516.155 256.5H521.142V255.5H516.155V256.5ZM526.129 256.5H531.116V255.5H526.129V256.5ZM536.103 256.5H541.09V255.5H536.103V256.5ZM546.077 256.5H551.064V255.5H546.077V256.5ZM556.051 256.5H561.038V255.5H556.051V256.5ZM566.025 256.5H571.012V255.5H566.025V256.5ZM575.999 256.5H580.986V255.5H575.999V256.5ZM585.973 256.5H590.96V255.5H585.973V256.5ZM595.947 256.5H600.934V255.5H595.947V256.5ZM605.921 256.5H610.908V255.5H605.921V256.5ZM615.895 256.5H620.882V255.5H615.895V256.5ZM625.869 256.5H630.856V255.5H625.869V256.5ZM635.843 256.5H640.83V255.5H635.843V256.5ZM645.817 256.5H650.804V255.5H645.817V256.5ZM655.791 256.5H660.778V255.5H655.791V256.5ZM665.765 256.5H670.752V255.5H665.765V256.5ZM675.739 256.5H680.726V255.5H675.739V256.5ZM685.713 256.5H690.7V255.5H685.713V256.5ZM695.687 256.5H700.674V255.5H695.687V256.5ZM705.661 256.5H710.648V255.5H705.661V256.5ZM715.635 256.5H720.622V255.5H715.635V256.5ZM725.609 256.5H730.596V255.5H725.609V256.5ZM735.583 256.5H740.57V255.5H735.583V256.5ZM745.557 256.5H750.544V255.5H745.557V256.5ZM755.531 256.5H760.518V255.5H755.531V256.5ZM765.505 256.5H768V255.5H765.505V256.5ZM768.5 256V253.538H767.5V256H768.5ZM768.5 248.615V243.692H767.5V248.615H768.5ZM768.5 238.769V233.846H767.5V238.769H768.5ZM768.5 228.923V224H767.5V228.923H768.5ZM768.5 219.077V214.154H767.5V219.077H768.5ZM768.5 209.231V204.308H767.5V209.231H768.5ZM768.5 199.385V194.462H767.5V199.385H768.5ZM768.5 189.538V184.615H767.5V189.538H768.5ZM768.5 179.692V174.769H767.5V179.692H768.5ZM768.5 169.846V164.923H767.5V169.846H768.5ZM768.5 160V155.077H767.5V160H768.5ZM768.5 150.154V145.231H767.5V150.154H768.5ZM768.5 140.308V135.385H767.5V140.308H768.5ZM768.5 130.461V125.538H767.5V130.461H768.5ZM768.5 120.615V115.692H767.5V120.615H768.5ZM768.5 110.769V105.846H767.5V110.769H768.5ZM768.5 100.923V95.9999H767.5V100.923H768.5ZM768.5 91.0769V86.1538H767.5V91.0769H768.5ZM768.5 81.2307V76.3076H767.5V81.2307H768.5ZM768.5 71.3845V66.4615H767.5V71.3845H768.5ZM768.5 61.5384V56.6153H767.5V61.5384H768.5ZM768.5 51.6922V46.7691H767.5V51.6922H768.5ZM768.5 41.8461V36.923H767.5V41.8461H768.5ZM768.5 31.9999V27.0768H767.5V31.9999H768.5ZM768.5 22.1537V17.2307H767.5V22.1537H768.5ZM768.5 12.3076V7.38449H767.5V12.3076H768.5ZM768.5 2.46141V0H767.5V2.46141H768.5ZM768 -0.5H765.506V0.5H768V-0.5ZM760.519 -0.5H755.532V0.5H760.519V-0.5ZM750.545 -0.5H745.558V0.5H750.545V-0.5ZM740.571 -0.5H735.584V0.5H740.571V-0.5ZM730.597 -0.5H725.61V0.5H730.597V-0.5ZM720.623 -0.5H715.636V0.5H720.623V-0.5ZM710.649 -0.5H705.662V0.5H710.649V-0.5ZM700.675 -0.5H695.688V0.5H700.675V-0.5ZM690.701 -0.5H685.714V0.5H690.701V-0.5ZM680.727 -0.5H675.74V0.5H680.727V-0.5ZM670.753 -0.5H665.766V0.5H670.753V-0.5ZM660.779 -0.5H655.792V0.5H660.779V-0.5ZM650.805 -0.5H645.818V0.5H650.805V-0.5ZM640.831 -0.5H635.844V0.5H640.831V-0.5ZM630.857 -0.5H625.87V0.5H630.857V-0.5ZM620.883 -0.5H615.896V0.5H620.883V-0.5ZM610.909 -0.5H605.922V0.5H610.909V-0.5ZM600.935 -0.5H595.948V0.5H600.935V-0.5ZM590.961 -0.5H585.974V0.5H590.961V-0.5ZM580.987 -0.5H576V0.5H580.987V-0.5ZM571.013 -0.5H566.026V0.5H571.013V-0.5ZM561.039 -0.5H556.052V0.5H561.039V-0.5ZM551.065 -0.5H546.078V0.5H551.065V-0.5ZM541.091 -0.5H536.104V0.5H541.091V-0.5ZM531.117 -0.5H526.13V0.5H531.117V-0.5ZM521.143 -0.5H516.156V0.5H521.143V-0.5ZM511.169 -0.5H506.182V0.5H511.169V-0.5ZM501.195 -0.5H496.208V0.5H501.195V-0.5ZM491.221 -0.5H486.234V0.5H491.221V-0.5ZM481.247 -0.5H476.26V0.5H481.247V-0.5ZM471.273 -0.5H466.286V0.5H471.273V-0.5ZM461.299 -0.5H456.312V0.5H461.299V-0.5ZM451.325 -0.5H446.338V0.5H451.325V-0.5ZM441.351 -0.5H436.364V0.5H441.351V-0.5ZM431.377 -0.5H426.39V0.5H431.377V-0.5ZM421.403 -0.5H416.416V0.5H421.403V-0.5ZM411.429 -0.5H406.442V0.5H411.429V-0.5ZM401.455 -0.5H396.468V0.5H401.455V-0.5ZM391.481 -0.5H386.494V0.5H391.481V-0.5ZM381.507 -0.5H376.52V0.5H381.507V-0.5ZM371.533 -0.5H366.546V0.5H371.533V-0.5ZM361.559 -0.5H356.572V0.5H361.559V-0.5ZM351.585 -0.5H346.598V0.5H351.585V-0.5ZM341.611 -0.5H336.624V0.5H341.611V-0.5ZM331.637 -0.5H326.65V0.5H331.637V-0.5ZM321.663 -0.5H316.676V0.5H321.663V-0.5ZM311.689 -0.5H306.702V0.5H311.689V-0.5ZM301.715 -0.5H296.728V0.5H301.715V-0.5ZM291.741 -0.5H286.754V0.5H291.741V-0.5ZM281.767 -0.5H276.78V0.5H281.767V-0.5ZM271.793 -0.5H266.806V0.5H271.793V-0.5ZM261.819 -0.5H256.832V0.5H261.819V-0.5ZM251.845 -0.5H246.858V0.5H251.845V-0.5ZM241.871 -0.5H236.884V0.5H241.871V-0.5ZM231.897 -0.5H226.91V0.5H231.897V-0.5ZM221.923 -0.5H216.936V0.5H221.923V-0.5ZM211.949 -0.5H206.962V0.5H211.949V-0.5ZM201.975 -0.5H196.988V0.5H201.975V-0.5ZM192.001 -0.5H187.014V0.5H192.001V-0.5ZM182.027 -0.5H177.04V0.5H182.027V-0.5ZM172.053 -0.5H167.066V0.5H172.053V-0.5ZM162.079 -0.5H157.092V0.5H162.079V-0.5ZM152.105 -0.5H147.118V0.5H152.105V-0.5ZM142.131 -0.5H137.144V0.5H142.131V-0.5ZM132.157 -0.5H127.17V0.5H132.157V-0.5ZM122.183 -0.5H117.196V0.5H122.183V-0.5ZM112.209 -0.5H107.222V0.5H112.209V-0.5ZM102.235 -0.5H97.2478V0.5H102.235V-0.5ZM92.2608 -0.5H87.2738V0.5H92.2608V-0.5ZM82.2868 -0.5H77.2998V0.5H82.2868V-0.5ZM72.3128 -0.5H67.3258V0.5H72.3128V-0.5ZM62.3388 -0.5H57.3518V0.5H62.3388V-0.5ZM52.3648 -0.5H47.3778V0.5H52.3648V-0.5ZM42.3908 -0.5H37.4038V0.5H42.3908V-0.5ZM32.4168 -0.5H27.4298V0.5H32.4168V-0.5ZM22.4428 -0.5H17.4558V0.5H22.4428V-0.5ZM12.4688 -0.5H7.48183V0.5H12.4688V-0.5ZM2.49481 -0.5H0V0.5H2.49481V-0.5ZM0 0V-1H-1V0H0ZM768 0H769V-1H768V0ZM768 256V257H769V256H768ZM0 256H-1V257H0V256ZM-1 0V2.46154H1V0H-1ZM-1 7.38462V12.3077H1V7.38462H-1ZM-1 17.2308V22.1538H1V17.2308H-1ZM-1 27.0769V32H1V27.0769H-1ZM-1 36.9231V41.8462H1V36.9231H-1ZM-1 46.7692V51.6923H1V46.7692H-1ZM-1 56.6154V61.5385H1V56.6154H-1ZM-1 66.4615V71.3846H1V66.4615H-1ZM-1 76.3077V81.2308H1V76.3077H-1ZM-1 86.1539V91.0769H1V86.1539H-1ZM-1 96V100.923H1V96H-1ZM-1 105.846V110.769H1V105.846H-1ZM-1 115.692V120.615H1V115.692H-1ZM-1 125.539V130.462H1V125.539H-1ZM-1 135.385V140.308H1V135.385H-1ZM-1 145.231V150.154H1V145.231H-1ZM-1 155.077V160H1V155.077H-1ZM-1 164.923V169.846H1V164.923H-1ZM-1 174.769V179.692H1V174.769H-1ZM-1 184.615V189.539H1V184.615H-1ZM-1 194.462V199.385H1V194.462H-1ZM-1 204.308V209.231H1V204.308H-1ZM-1 214.154V219.077H1V214.154H-1ZM-1 224V228.923H1V224H-1ZM-1 233.846V238.769H1V233.846H-1ZM-1 243.692V248.616H1V243.692H-1ZM-1 253.539V256H1V253.539H-1ZM0 257H2.49351V255H0V257ZM7.48052 257H12.4675V255H7.48052V257ZM17.4545 257H22.4416V255H17.4545V257ZM27.4286 257H32.4156V255H27.4286V257ZM37.4026 257H42.3896V255H37.4026V257ZM47.3766 257H52.3636V255H47.3766V257ZM57.3507 257H62.3377V255H57.3507V257ZM67.3247 257H72.3117V255H67.3247V257ZM77.2987 257H82.2857V255H77.2987V257ZM87.2727 257H92.2598V255H87.2727V257ZM97.2468 257H102.234V255H97.2468V257ZM107.221 257H112.208V255H107.221V257ZM117.195 257H122.182V255H117.195V257ZM127.169 257H132.156V255H127.169V257ZM137.143 257H142.13V255H137.143V257ZM147.117 257H152.104V255H147.117V257ZM157.091 257H162.078V255H157.091V257ZM167.065 257H172.052V255H167.065V257ZM177.039 257H182.026V255H177.039V257ZM187.013 257H192V255H187.013V257ZM196.987 257H201.974V255H196.987V257ZM206.961 257H211.948V255H206.961V257ZM216.935 257H221.922V255H216.935V257ZM226.909 257H231.896V255H226.909V257ZM236.883 257H241.87V255H236.883V257ZM246.857 257H251.844V255H246.857V257ZM256.831 257H261.818V255H256.831V257ZM266.805 257H271.792V255H266.805V257ZM276.779 257H281.766V255H276.779V257ZM286.753 257H291.74V255H286.753V257ZM296.727 257H301.714V255H296.727V257ZM306.701 257H311.688V255H306.701V257ZM316.675 257H321.662V255H316.675V257ZM326.649 257H331.636V255H326.649V257ZM336.623 257H341.61V255H336.623V257ZM346.597 257H351.584V255H346.597V257ZM356.571 257H361.558V255H356.571V257ZM366.545 257H371.532V255H366.545V257ZM376.519 257H381.506V255H376.519V257ZM386.493 257H391.48V255H386.493V257ZM396.467 257H401.454V255H396.467V257ZM406.441 257H411.428V255H406.441V257ZM416.415 257H421.402V255H416.415V257ZM426.389 257H431.376V255H426.389V257ZM436.363 257H441.35V255H436.363V257ZM446.337 257H451.324V255H446.337V257ZM456.311 257H461.298V255H456.311V257ZM466.285 257H471.272V255H466.285V257ZM476.259 257H481.246V255H476.259V257ZM486.233 257H491.22V255H486.233V257ZM496.207 257H501.194V255H496.207V257ZM506.181 257H511.168V255H506.181V257ZM516.155 257H521.142V255H516.155V257ZM526.129 257H531.116V255H526.129V257ZM536.103 257H541.09V255H536.103V257ZM546.077 257H551.064V255H546.077V257ZM556.051 257H561.038V255H556.051V257ZM566.025 257H571.012V255H566.025V257ZM575.999 257H580.986V255H575.999V257ZM585.973 257H590.96V255H585.973V257ZM595.947 257H600.934V255H595.947V257ZM605.921 257H610.908V255H605.921V257ZM615.895 257H620.882V255H615.895V257ZM625.869 257H630.856V255H625.869V257ZM635.843 257H640.83V255H635.843V257ZM645.817 257H650.804V255H645.817V257ZM655.791 257H660.778V255H655.791V257ZM665.765 257H670.752V255H665.765V257ZM675.739 257H680.726V255H675.739V257ZM685.713 257H690.7V255H685.713V257ZM695.687 257H700.674V255H695.687V257ZM705.661 257H710.648V255H705.661V257ZM715.635 257H720.622V255H715.635V257ZM725.609 257H730.596V255H725.609V257ZM735.583 257H740.57V255H735.583V257ZM745.557 257H750.544V255H745.557V257ZM755.531 257H760.518V255H755.531V257ZM765.505 257H768V255H765.505V257ZM769 256V253.538H767V256H769ZM769 248.615V243.692H767V248.615H769ZM769 238.769V233.846H767V238.769H769ZM769 228.923V224H767V228.923H769ZM769 219.077V214.154H767V219.077H769ZM769 209.231V204.308H767V209.231H769ZM769 199.385V194.462H767V199.385H769ZM769 189.538V184.615H767V189.538H769ZM769 179.692V174.769H767V179.692H769ZM769 169.846V164.923H767V169.846H769ZM769 160V155.077H767V160H769ZM769 150.154V145.231H767V150.154H769ZM769 140.308V135.385H767V140.308H769ZM769 130.461V125.538H767V130.461H769ZM769 120.615V115.692H767V120.615H769ZM769 110.769V105.846H767V110.769H769ZM769 100.923V95.9999H767V100.923H769ZM769 91.0769V86.1538H767V91.0769H769ZM769 81.2307V76.3076H767V81.2307H769ZM769 71.3845V66.4615H767V71.3845H769ZM769 61.5384V56.6153H767V61.5384H769ZM769 51.6922V46.7691H767V51.6922H769ZM769 41.8461V36.923H767V41.8461H769ZM769 31.9999V27.0768H767V31.9999H769ZM769 22.1537V17.2307H767V22.1537H769ZM769 12.3076V7.38449H767V12.3076H769ZM769 2.46141V0H767V2.46141H769ZM768 -1H765.506V1H768V-1ZM760.519 -1H755.532V1H760.519V-1ZM750.545 -1H745.558V1H750.545V-1ZM740.571 -1H735.584V1H740.571V-1ZM730.597 -1H725.61V1H730.597V-1ZM720.623 -1H715.636V1H720.623V-1ZM710.649 -1H705.662V1H710.649V-1ZM700.675 -1H695.688V1H700.675V-1ZM690.701 -1H685.714V1H690.701V-1ZM680.727 -1H675.74V1H680.727V-1ZM670.753 -1H665.766V1H670.753V-1ZM660.779 -1H655.792V1H660.779V-1ZM650.805 -1H645.818V1H650.805V-1ZM640.831 -1H635.844V1H640.831V-1ZM630.857 -1H625.87V1H630.857V-1ZM620.883 -1H615.896V1H620.883V-1ZM610.909 -1H605.922V1H610.909V-1ZM600.935 -1H595.948V1H600.935V-1ZM590.961 -1H585.974V1H590.961V-1ZM580.987 -1H576V1H580.987V-1ZM571.013 -1H566.026V1H571.013V-1ZM561.039 -1H556.052V1H561.039V-1ZM551.065 -1H546.078V1H551.065V-1ZM541.091 -1H536.104V1H541.091V-1ZM531.117 -1H526.13V1H531.117V-1ZM521.143 -1H516.156V1H521.143V-1ZM511.169 -1H506.182V1H511.169V-1ZM501.195 -1H496.208V1H501.195V-1ZM491.221 -1H486.234V1H491.221V-1ZM481.247 -1H476.26V1H481.247V-1ZM471.273 -1H466.286V1H471.273V-1ZM461.299 -1H456.312V1H461.299V-1ZM451.325 -1H446.338V1H451.325V-1ZM441.351 -1H436.364V1H441.351V-1ZM431.377 -1H426.39V1H431.377V-1ZM421.403 -1H416.416V1H421.403V-1ZM411.429 -1H406.442V1H411.429V-1ZM401.455 -1H396.468V1H401.455V-1ZM391.481 -1H386.494V1H391.481V-1ZM381.507 -1H376.52V1H381.507V-1ZM371.533 -1H366.546V1H371.533V-1ZM361.559 -1H356.572V1H361.559V-1ZM351.585 -1H346.598V1H351.585V-1ZM341.611 -1H336.624V1H341.611V-1ZM331.637 -1H326.65V1H331.637V-1ZM321.663 -1H316.676V1H321.663V-1ZM311.689 -1H306.702V1H311.689V-1ZM301.715 -1H296.728V1H301.715V-1ZM291.741 -1H286.754V1H291.741V-1ZM281.767 -1H276.78V1H281.767V-1ZM271.793 -1H266.806V1H271.793V-1ZM261.819 -1H256.832V1H261.819V-1ZM251.845 -1H246.858V1H251.845V-1ZM241.871 -1H236.884V1H241.871V-1ZM231.897 -1H226.91V1H231.897V-1ZM221.923 -1H216.936V1H221.923V-1ZM211.949 -1H206.962V1H211.949V-1ZM201.975 -1H196.988V1H201.975V-1ZM192.001 -1H187.014V1H192.001V-1ZM182.027 -1H177.04V1H182.027V-1ZM172.053 -1H167.066V1H172.053V-1ZM162.079 -1H157.092V1H162.079V-1ZM152.105 -1H147.118V1H152.105V-1ZM142.131 -1H137.144V1H142.131V-1ZM132.157 -1H127.17V1H132.157V-1ZM122.183 -1H117.196V1H122.183V-1ZM112.209 -1H107.222V1H112.209V-1ZM102.235 -1H97.2478V1H102.235V-1ZM92.2608 -1H87.2738V1H92.2608V-1ZM82.2868 -1H77.2998V1H82.2868V-1ZM72.3128 -1H67.3258V1H72.3128V-1ZM62.3388 -1H57.3518V1H62.3388V-1ZM52.3648 -1H47.3778V1H52.3648V-1ZM42.3908 -1H37.4038V1H42.3908V-1ZM32.4168 -1H27.4298V1H32.4168V-1ZM22.4428 -1H17.4558V1H22.4428V-1ZM12.4688 -1H7.48183V1H12.4688V-1ZM2.49481 -1H0V1H2.49481V-1Z" fill="#7F20D2"/>
</svg>
