<svg width="720" height="250" viewBox="0 0 720 250" fill="none" xmlns="http://www.w3.org/2000/svg">
<path d="M0 0H720V250H0V0Z" fill="#D9BCF2"/>
<g clip-path="url(#clip0_54_574)">
<rect x="149.833" y="48.5" width="79" height="68" fill="white"/>
<path d="M176.193 89H174.88V77.7969H176.193V89ZM182.685 88.9219C182.383 89.0885 181.985 89.1719 181.49 89.1719C180.089 89.1719 179.388 88.3906 179.388 86.8281V82.0938H178.013V81H179.388V79.0469L180.669 78.6328V81H182.685V82.0938H180.669V86.6016C180.669 87.138 180.761 87.5208 180.943 87.75C181.125 87.9792 181.427 88.0938 181.849 88.0938C182.172 88.0938 182.451 88.0052 182.685 87.8281V88.9219ZM190.826 85.3203H185.177C185.198 86.2109 185.438 86.8984 185.896 87.3828C186.354 87.8672 186.985 88.1094 187.787 88.1094C188.688 88.1094 189.516 87.8125 190.271 87.2188V88.4219C189.568 88.9323 188.638 89.1875 187.482 89.1875C186.352 89.1875 185.464 88.8255 184.818 88.1016C184.172 87.3724 183.849 86.349 183.849 85.0312C183.849 83.7865 184.201 82.7734 184.904 81.9922C185.612 81.2057 186.49 80.8125 187.537 80.8125C188.583 80.8125 189.393 81.151 189.966 81.8281C190.539 82.5052 190.826 83.4453 190.826 84.6484V85.3203ZM189.513 84.2344C189.508 83.4948 189.328 82.9193 188.974 82.5078C188.625 82.0964 188.138 81.8906 187.513 81.8906C186.909 81.8906 186.396 82.1068 185.974 82.5391C185.552 82.9714 185.292 83.5365 185.193 84.2344H189.513ZM204.13 89H202.849V84.4062C202.849 83.5208 202.711 82.8802 202.435 82.4844C202.164 82.0885 201.706 81.8906 201.06 81.8906C200.513 81.8906 200.047 82.1406 199.662 82.6406C199.281 83.1406 199.091 83.7396 199.091 84.4375V89H197.81V84.25C197.81 82.6771 197.203 81.8906 195.99 81.8906C195.427 81.8906 194.964 82.1276 194.599 82.6016C194.235 83.0703 194.052 83.6823 194.052 84.4375V89H192.771V81H194.052V82.2656H194.083C194.651 81.2969 195.479 80.8125 196.568 80.8125C197.115 80.8125 197.591 80.9661 197.998 81.2734C198.404 81.5755 198.682 81.974 198.833 82.4688C199.427 81.3646 200.313 80.8125 201.49 80.8125C203.25 80.8125 204.13 81.8984 204.13 84.0703V89Z" fill="black"/>
<rect x="149.833" y="48.5" width="79" height="68" stroke="black" stroke-dasharray="5 5"/>
</g>
<g clip-path="url(#clip1_54_574)">
<rect x="395.167" y="0.5" width="79" height="116" fill="white"/>
<path d="M421.526 65H420.214V53.7969H421.526V65ZM428.019 64.9219C427.716 65.0885 427.318 65.1719 426.823 65.1719C425.422 65.1719 424.722 64.3906 424.722 62.8281V58.0938H423.347V57H424.722V55.0469L426.003 54.6328V57H428.019V58.0938H426.003V62.6016C426.003 63.138 426.094 63.5208 426.276 63.75C426.459 63.9792 426.761 64.0938 427.183 64.0938C427.506 64.0938 427.784 64.0052 428.019 63.8281V64.9219ZM436.159 61.3203H430.511C430.532 62.2109 430.771 62.8984 431.229 63.3828C431.688 63.8672 432.318 64.1094 433.12 64.1094C434.021 64.1094 434.849 63.8125 435.604 63.2188V64.4219C434.901 64.9323 433.972 65.1875 432.815 65.1875C431.685 65.1875 430.797 64.8255 430.151 64.1016C429.506 63.3724 429.183 62.349 429.183 61.0312C429.183 59.7865 429.534 58.7734 430.237 57.9922C430.946 57.2057 431.823 56.8125 432.87 56.8125C433.917 56.8125 434.727 57.151 435.3 57.8281C435.873 58.5052 436.159 59.4453 436.159 60.6484V61.3203ZM434.847 60.2344C434.841 59.4948 434.662 58.9193 434.308 58.5078C433.959 58.0964 433.472 57.8906 432.847 57.8906C432.243 57.8906 431.729 58.1068 431.308 58.5391C430.886 58.9714 430.625 59.5365 430.526 60.2344H434.847ZM449.464 65H448.183V60.4062C448.183 59.5208 448.045 58.8802 447.769 58.4844C447.498 58.0885 447.039 57.8906 446.394 57.8906C445.847 57.8906 445.381 58.1406 444.995 58.6406C444.615 59.1406 444.425 59.7396 444.425 60.4375V65H443.144V60.25C443.144 58.6771 442.537 57.8906 441.323 57.8906C440.761 57.8906 440.297 58.1276 439.933 58.6016C439.568 59.0703 439.386 59.6823 439.386 60.4375V65H438.104V57H439.386V58.2656H439.417C439.985 57.2969 440.813 56.8125 441.901 56.8125C442.448 56.8125 442.925 56.9661 443.331 57.2734C443.737 57.5755 444.016 57.974 444.167 58.4688C444.761 57.3646 445.646 56.8125 446.823 56.8125C448.584 56.8125 449.464 57.8984 449.464 60.0703V65Z" fill="black"/>
<rect x="395.167" y="0.5" width="79" height="116" stroke="black" stroke-dasharray="5 5"/>
</g>
<rect x="592.5" y="48.5" width="127" height="68" fill="white"/>
<path d="M642.859 89H641.547V77.7969H642.859V89ZM649.352 88.9219C649.049 89.0885 648.651 89.1719 648.156 89.1719C646.755 89.1719 646.055 88.3906 646.055 86.8281V82.0938H644.68V81H646.055V79.0469L647.336 78.6328V81H649.352V82.0938H647.336V86.6016C647.336 87.138 647.427 87.5208 647.609 87.75C647.792 87.9792 648.094 88.0938 648.516 88.0938C648.839 88.0938 649.117 88.0052 649.352 87.8281V88.9219ZM657.492 85.3203H651.844C651.865 86.2109 652.104 86.8984 652.562 87.3828C653.021 87.8672 653.651 88.1094 654.453 88.1094C655.354 88.1094 656.182 87.8125 656.938 87.2188V88.4219C656.234 88.9323 655.305 89.1875 654.148 89.1875C653.018 89.1875 652.13 88.8255 651.484 88.1016C650.839 87.3724 650.516 86.349 650.516 85.0312C650.516 83.7865 650.867 82.7734 651.57 81.9922C652.279 81.2057 653.156 80.8125 654.203 80.8125C655.25 80.8125 656.06 81.151 656.633 81.8281C657.206 82.5052 657.492 83.4453 657.492 84.6484V85.3203ZM656.18 84.2344C656.174 83.4948 655.995 82.9193 655.641 82.5078C655.292 82.0964 654.805 81.8906 654.18 81.8906C653.576 81.8906 653.062 82.1068 652.641 82.5391C652.219 82.9714 651.958 83.5365 651.859 84.2344H656.18ZM670.797 89H669.516V84.4062C669.516 83.5208 669.378 82.8802 669.102 82.4844C668.831 82.0885 668.372 81.8906 667.727 81.8906C667.18 81.8906 666.714 82.1406 666.328 82.6406C665.948 83.1406 665.758 83.7396 665.758 84.4375V89H664.477V84.25C664.477 82.6771 663.87 81.8906 662.656 81.8906C662.094 81.8906 661.63 82.1276 661.266 82.6016C660.901 83.0703 660.719 83.6823 660.719 84.4375V89H659.438V81H660.719V82.2656H660.75C661.318 81.2969 662.146 80.8125 663.234 80.8125C663.781 80.8125 664.258 80.9661 664.664 81.2734C665.07 81.5755 665.349 81.974 665.5 82.4688C666.094 81.3646 666.979 80.8125 668.156 80.8125C669.917 80.8125 670.797 81.8984 670.797 84.0703V89Z" fill="black"/>
<rect x="592.5" y="48.5" width="127" height="68" stroke="black" stroke-dasharray="5 5"/>
<g clip-path="url(#clip2_54_574)">
<rect x="149.833" y="181.5" width="79" height="68" fill="white"/>
<path d="M176.193 222H174.88V210.797H176.193V222ZM182.685 221.922C182.383 222.089 181.985 222.172 181.49 222.172C180.089 222.172 179.388 221.391 179.388 219.828V215.094H178.013V214H179.388V212.047L180.669 211.633V214H182.685V215.094H180.669V219.602C180.669 220.138 180.761 220.521 180.943 220.75C181.125 220.979 181.427 221.094 181.849 221.094C182.172 221.094 182.451 221.005 182.685 220.828V221.922ZM190.826 218.32H185.177C185.198 219.211 185.438 219.898 185.896 220.383C186.354 220.867 186.985 221.109 187.787 221.109C188.688 221.109 189.516 220.812 190.271 220.219V221.422C189.568 221.932 188.638 222.188 187.482 222.188C186.352 222.188 185.464 221.826 184.818 221.102C184.172 220.372 183.849 219.349 183.849 218.031C183.849 216.786 184.201 215.773 184.904 214.992C185.612 214.206 186.49 213.812 187.537 213.812C188.583 213.812 189.393 214.151 189.966 214.828C190.539 215.505 190.826 216.445 190.826 217.648V218.32ZM189.513 217.234C189.508 216.495 189.328 215.919 188.974 215.508C188.625 215.096 188.138 214.891 187.513 214.891C186.909 214.891 186.396 215.107 185.974 215.539C185.552 215.971 185.292 216.536 185.193 217.234H189.513ZM204.13 222H202.849V217.406C202.849 216.521 202.711 215.88 202.435 215.484C202.164 215.089 201.706 214.891 201.06 214.891C200.513 214.891 200.047 215.141 199.662 215.641C199.281 216.141 199.091 216.74 199.091 217.438V222H197.81V217.25C197.81 215.677 197.203 214.891 195.99 214.891C195.427 214.891 194.964 215.128 194.599 215.602C194.235 216.07 194.052 216.682 194.052 217.438V222H192.771V214H194.052V215.266H194.083C194.651 214.297 195.479 213.812 196.568 213.812C197.115 213.812 197.591 213.966 197.998 214.273C198.404 214.576 198.682 214.974 198.833 215.469C199.427 214.365 200.313 213.812 201.49 213.812C203.25 213.812 204.13 214.898 204.13 217.07V222Z" fill="black"/>
<rect x="149.833" y="181.5" width="79" height="68" stroke="black" stroke-dasharray="5 5"/>
</g>
<g clip-path="url(#clip3_54_574)">
<rect x="395.167" y="133.5" width="79" height="116" fill="white"/>
<path d="M421.526 198H420.214V186.797H421.526V198ZM428.019 197.922C427.716 198.089 427.318 198.172 426.823 198.172C425.422 198.172 424.722 197.391 424.722 195.828V191.094H423.347V190H424.722V188.047L426.003 187.633V190H428.019V191.094H426.003V195.602C426.003 196.138 426.094 196.521 426.276 196.75C426.459 196.979 426.761 197.094 427.183 197.094C427.506 197.094 427.784 197.005 428.019 196.828V197.922ZM436.159 194.32H430.511C430.532 195.211 430.771 195.898 431.229 196.383C431.688 196.867 432.318 197.109 433.12 197.109C434.021 197.109 434.849 196.812 435.604 196.219V197.422C434.901 197.932 433.972 198.188 432.815 198.188C431.685 198.188 430.797 197.826 430.151 197.102C429.506 196.372 429.183 195.349 429.183 194.031C429.183 192.786 429.534 191.773 430.237 190.992C430.946 190.206 431.823 189.812 432.87 189.812C433.917 189.812 434.727 190.151 435.3 190.828C435.873 191.505 436.159 192.445 436.159 193.648V194.32ZM434.847 193.234C434.841 192.495 434.662 191.919 434.308 191.508C433.959 191.096 433.472 190.891 432.847 190.891C432.243 190.891 431.729 191.107 431.308 191.539C430.886 191.971 430.625 192.536 430.526 193.234H434.847ZM449.464 198H448.183V193.406C448.183 192.521 448.045 191.88 447.769 191.484C447.498 191.089 447.039 190.891 446.394 190.891C445.847 190.891 445.381 191.141 444.995 191.641C444.615 192.141 444.425 192.74 444.425 193.438V198H443.144V193.25C443.144 191.677 442.537 190.891 441.323 190.891C440.761 190.891 440.297 191.128 439.933 191.602C439.568 192.07 439.386 192.682 439.386 193.438V198H438.104V190H439.386V191.266H439.417C439.985 190.297 440.813 189.812 441.901 189.812C442.448 189.812 442.925 189.966 443.331 190.273C443.737 190.576 444.016 190.974 444.167 191.469C444.761 190.365 445.646 189.812 446.823 189.812C448.584 189.812 449.464 190.898 449.464 193.07V198Z" fill="black"/>
<rect x="395.167" y="133.5" width="79" height="116" stroke="black" stroke-dasharray="5 5"/>
</g>
<rect x="592.5" y="181.5" width="127" height="68" fill="white"/>
<path d="M642.859 222H641.547V210.797H642.859V222ZM649.352 221.922C649.049 222.089 648.651 222.172 648.156 222.172C646.755 222.172 646.055 221.391 646.055 219.828V215.094H644.68V214H646.055V212.047L647.336 211.633V214H649.352V215.094H647.336V219.602C647.336 220.138 647.427 220.521 647.609 220.75C647.792 220.979 648.094 221.094 648.516 221.094C648.839 221.094 649.117 221.005 649.352 220.828V221.922ZM657.492 218.32H651.844C651.865 219.211 652.104 219.898 652.562 220.383C653.021 220.867 653.651 221.109 654.453 221.109C655.354 221.109 656.182 220.812 656.938 220.219V221.422C656.234 221.932 655.305 222.188 654.148 222.188C653.018 222.188 652.13 221.826 651.484 221.102C650.839 220.372 650.516 219.349 650.516 218.031C650.516 216.786 650.867 215.773 651.57 214.992C652.279 214.206 653.156 213.812 654.203 213.812C655.25 213.812 656.06 214.151 656.633 214.828C657.206 215.505 657.492 216.445 657.492 217.648V218.32ZM656.18 217.234C656.174 216.495 655.995 215.919 655.641 215.508C655.292 215.096 654.805 214.891 654.18 214.891C653.576 214.891 653.062 215.107 652.641 215.539C652.219 215.971 651.958 216.536 651.859 217.234H656.18ZM670.797 222H669.516V217.406C669.516 216.521 669.378 215.88 669.102 215.484C668.831 215.089 668.372 214.891 667.727 214.891C667.18 214.891 666.714 215.141 666.328 215.641C665.948 216.141 665.758 216.74 665.758 217.438V222H664.477V217.25C664.477 215.677 663.87 214.891 662.656 214.891C662.094 214.891 661.63 215.128 661.266 215.602C660.901 216.07 660.719 216.682 660.719 217.438V222H659.438V214H660.719V215.266H660.75C661.318 214.297 662.146 213.812 663.234 213.812C663.781 213.812 664.258 213.966 664.664 214.273C665.07 214.576 665.349 214.974 665.5 215.469C666.094 214.365 666.979 213.812 668.156 213.812C669.917 213.812 670.797 214.898 670.797 217.07V222Z" fill="black"/>
<rect x="592.5" y="181.5" width="127" height="68" stroke="black" stroke-dasharray="5 5"/>
<path d="M0 0V-0.5H-0.5V0H0ZM720 0H720.5V-0.5H720V0ZM720 250V250.5H720.5V250H720ZM0 250H-0.5V250.5H0V250ZM-0.5 0V2.5H0.5V0H-0.5ZM-0.5 7.5V12.5H0.5V7.5H-0.5ZM-0.5 17.5V22.5H0.5V17.5H-0.5ZM-0.5 27.5V32.5H0.5V27.5H-0.5ZM-0.5 37.5V42.5H0.5V37.5H-0.5ZM-0.5 47.5V52.5H0.5V47.5H-0.5ZM-0.5 57.5V62.5H0.5V57.5H-0.5ZM-0.5 67.5V72.5H0.5V67.5H-0.5ZM-0.5 77.5V82.5H0.5V77.5H-0.5ZM-0.5 87.5V92.5H0.5V87.5H-0.5ZM-0.5 97.5V102.5H0.5V97.5H-0.5ZM-0.5 107.5V112.5H0.5V107.5H-0.5ZM-0.5 117.5V122.5H0.5V117.5H-0.5ZM-0.5 127.5V132.5H0.5V127.5H-0.5ZM-0.5 137.5V142.5H0.5V137.5H-0.5ZM-0.5 147.5V152.5H0.5V147.5H-0.5ZM-0.5 157.5V162.5H0.5V157.5H-0.5ZM-0.5 167.5V172.5H0.5V167.5H-0.5ZM-0.5 177.5V182.5H0.5V177.5H-0.5ZM-0.5 187.5V192.5H0.5V187.5H-0.5ZM-0.5 197.5V202.5H0.5V197.5H-0.5ZM-0.5 207.5V212.5H0.5V207.5H-0.5ZM-0.5 217.5V222.5H0.5V217.5H-0.5ZM-0.5 227.5V232.5H0.5V227.5H-0.5ZM-0.5 237.5V242.5H0.5V237.5H-0.5ZM-0.5 247.5V250H0.5V247.5H-0.5ZM0 250.5H2.5V249.5H0V250.5ZM7.5 250.5H12.5V249.5H7.5V250.5ZM17.5 250.5H22.5V249.5H17.5V250.5ZM27.5 250.5H32.5V249.5H27.5V250.5ZM37.5 250.5H42.5V249.5H37.5V250.5ZM47.5 250.5H52.5V249.5H47.5V250.5ZM57.5 250.5H62.5V249.5H57.5V250.5ZM67.5 250.5H72.5V249.5H67.5V250.5ZM77.5 250.5H82.5V249.5H77.5V250.5ZM87.5 250.5H92.5V249.5H87.5V250.5ZM97.5 250.5H102.5V249.5H97.5V250.5ZM107.5 250.5H112.5V249.5H107.5V250.5ZM117.5 250.5H122.5V249.5H117.5V250.5ZM127.5 250.5H132.5V249.5H127.5V250.5ZM137.5 250.5H142.5V249.5H137.5V250.5ZM147.5 250.5H152.5V249.5H147.5V250.5ZM157.5 250.5H162.5V249.5H157.5V250.5ZM167.5 250.5H172.5V249.5H167.5V250.5ZM177.5 250.5H182.5V249.5H177.5V250.5ZM187.5 250.5H192.5V249.5H187.5V250.5ZM197.5 250.5H202.5V249.5H197.5V250.5ZM207.5 250.5H212.5V249.5H207.5V250.5ZM217.5 250.5H222.5V249.5H217.5V250.5ZM227.5 250.5H232.5V249.5H227.5V250.5ZM237.5 250.5H242.5V249.5H237.5V250.5ZM247.5 250.5H252.5V249.5H247.5V250.5ZM257.5 250.5H262.5V249.5H257.5V250.5ZM267.5 250.5H272.5V249.5H267.5V250.5ZM277.5 250.5H282.5V249.5H277.5V250.5ZM287.5 250.5H292.5V249.5H287.5V250.5ZM297.5 250.5H302.5V249.5H297.5V250.5ZM307.5 250.5H312.5V249.5H307.5V250.5ZM317.5 250.5H322.5V249.5H317.5V250.5ZM327.5 250.5H332.5V249.5H327.5V250.5ZM337.5 250.5H342.5V249.5H337.5V250.5ZM347.5 250.5H352.5V249.5H347.5V250.5ZM357.5 250.5H362.5V249.5H357.5V250.5ZM367.5 250.5H372.5V249.5H367.5V250.5ZM377.5 250.5H382.5V249.5H377.5V250.5ZM387.5 250.5H392.5V249.5H387.5V250.5ZM397.5 250.5H402.5V249.5H397.5V250.5ZM407.5 250.5H412.5V249.5H407.5V250.5ZM417.5 250.5H422.5V249.5H417.5V250.5ZM427.5 250.5H432.5V249.5H427.5V250.5ZM437.5 250.5H442.5V249.5H437.5V250.5ZM447.5 250.5H452.5V249.5H447.5V250.5ZM457.5 250.5H462.5V249.5H457.5V250.5ZM467.5 250.5H472.5V249.5H467.5V250.5ZM477.5 250.5H482.5V249.5H477.5V250.5ZM487.5 250.5H492.5V249.5H487.5V250.5ZM497.5 250.5H502.5V249.5H497.5V250.5ZM507.5 250.5H512.5V249.5H507.5V250.5ZM517.5 250.5H522.5V249.5H517.5V250.5ZM527.5 250.5H532.5V249.5H527.5V250.5ZM537.5 250.5H542.5V249.5H537.5V250.5ZM547.5 250.5H552.5V249.5H547.5V250.5ZM557.5 250.5H562.5V249.5H557.5V250.5ZM567.5 250.5H572.5V249.5H567.5V250.5ZM577.5 250.5H582.5V249.5H577.5V250.5ZM587.5 250.5H592.5V249.5H587.5V250.5ZM597.5 250.5H602.5V249.5H597.5V250.5ZM607.5 250.5H612.5V249.5H607.5V250.5ZM617.5 250.5H622.5V249.5H617.5V250.5ZM627.5 250.5H632.5V249.5H627.5V250.5ZM637.5 250.5H642.5V249.5H637.5V250.5ZM647.5 250.5H652.5V249.5H647.5V250.5ZM657.5 250.5H662.5V249.5H657.5V250.5ZM667.5 250.5H672.5V249.5H667.5V250.5ZM677.5 250.5H682.5V249.5H677.5V250.5ZM687.5 250.5H692.5V249.5H687.5V250.5ZM697.5 250.5H702.5V249.5H697.5V250.5ZM707.5 250.5H712.5V249.5H707.5V250.5ZM717.5 250.5H720V249.5H717.5V250.5ZM720.5 250V247.5H719.5V250H720.5ZM720.5 242.5V237.5H719.5V242.5H720.5ZM720.5 232.5V227.5H719.5V232.5H720.5ZM720.5 222.5V217.5H719.5V222.5H720.5ZM720.5 212.5V207.5H719.5V212.5H720.5ZM720.5 202.5V197.5H719.5V202.5H720.5ZM720.5 192.5V187.5H719.5V192.5H720.5ZM720.5 182.5V177.5H719.5V182.5H720.5ZM720.5 172.5V167.5H719.5V172.5H720.5ZM720.5 162.5V157.5H719.5V162.5H720.5ZM720.5 152.5V147.5H719.5V152.5H720.5ZM720.5 142.5V137.5H719.5V142.5H720.5ZM720.5 132.5V127.5H719.5V132.5H720.5ZM720.5 122.5V117.5H719.5V122.5H720.5ZM720.5 112.5V107.5H719.5V112.5H720.5ZM720.5 102.5V97.5H719.5V102.5H720.5ZM720.5 92.5V87.5H719.5V92.5H720.5ZM720.5 82.5V77.5H719.5V82.5H720.5ZM720.5 72.5V67.5H719.5V72.5H720.5ZM720.5 62.5V57.5H719.5V62.5H720.5ZM720.5 52.5V47.5H719.5V52.5H720.5ZM720.5 42.5V37.5H719.5V42.5H720.5ZM720.5 32.5V27.5H719.5V32.5H720.5ZM720.5 22.5V17.5H719.5V22.5H720.5ZM720.5 12.5V7.49999H719.5V12.5H720.5ZM720.5 2.5V0H719.5V2.5H720.5ZM720 -0.5H717.5V0.5H720V-0.5ZM712.5 -0.5H707.5V0.5H712.5V-0.5ZM702.5 -0.5H697.5V0.5H702.5V-0.5ZM692.5 -0.5H687.5V0.5H692.5V-0.5ZM682.5 -0.5H677.5V0.5H682.5V-0.5ZM672.5 -0.5H667.5V0.5H672.5V-0.5ZM662.5 -0.5H657.5V0.5H662.5V-0.5ZM652.5 -0.5H647.5V0.5H652.5V-0.5ZM642.5 -0.5H637.5V0.5H642.5V-0.5ZM632.5 -0.5H627.5V0.5H632.5V-0.5ZM622.5 -0.5H617.5V0.5H622.5V-0.5ZM612.5 -0.5H607.5V0.5H612.5V-0.5ZM602.5 -0.5H597.5V0.5H602.5V-0.5ZM592.5 -0.5H587.5V0.5H592.5V-0.5ZM582.5 -0.5H577.5V0.5H582.5V-0.5ZM572.5 -0.5H567.5V0.5H572.5V-0.5ZM562.5 -0.5H557.5V0.5H562.5V-0.5ZM552.5 -0.5H547.5V0.5H552.5V-0.5ZM542.5 -0.5H537.5V0.5H542.5V-0.5ZM532.5 -0.5H527.5V0.5H532.5V-0.5ZM522.5 -0.5H517.5V0.5H522.5V-0.5ZM512.5 -0.5H507.5V0.5H512.5V-0.5ZM502.5 -0.5H497.5V0.5H502.5V-0.5ZM492.5 -0.5H487.5V0.5H492.5V-0.5ZM482.5 -0.5H477.5V0.5H482.5V-0.5ZM472.5 -0.5H467.5V0.5H472.5V-0.5ZM462.5 -0.5H457.5V0.5H462.5V-0.5ZM452.5 -0.5H447.5V0.5H452.5V-0.5ZM442.5 -0.5H437.5V0.5H442.5V-0.5ZM432.5 -0.5H427.5V0.5H432.5V-0.5ZM422.5 -0.5H417.5V0.5H422.5V-0.5ZM412.5 -0.5H407.5V0.5H412.5V-0.5ZM402.5 -0.5H397.5V0.5H402.5V-0.5ZM392.5 -0.5H387.5V0.5H392.5V-0.5ZM382.5 -0.5H377.5V0.5H382.5V-0.5ZM372.5 -0.5H367.5V0.5H372.5V-0.5ZM362.5 -0.5H357.5V0.5H362.5V-0.5ZM352.5 -0.5H347.5V0.5H352.5V-0.5ZM342.5 -0.5H337.5V0.5H342.5V-0.5ZM332.5 -0.5H327.5V0.5H332.5V-0.5ZM322.5 -0.5H317.5V0.5H322.5V-0.5ZM312.5 -0.5H307.5V0.5H312.5V-0.5ZM302.5 -0.5H297.5V0.5H302.5V-0.5ZM292.5 -0.5H287.5V0.5H292.5V-0.5ZM282.5 -0.5H277.5V0.5H282.5V-0.5ZM272.5 -0.5H267.5V0.5H272.5V-0.5ZM262.5 -0.5H257.5V0.5H262.5V-0.5ZM252.5 -0.5H247.5V0.5H252.5V-0.5ZM242.5 -0.5H237.5V0.5H242.5V-0.5ZM232.5 -0.5H227.5V0.5H232.5V-0.5ZM222.5 -0.5H217.5V0.5H222.5V-0.5ZM212.5 -0.5H207.5V0.5H212.5V-0.5ZM202.5 -0.5H197.5V0.5H202.5V-0.5ZM192.5 -0.5H187.5V0.5H192.5V-0.5ZM182.5 -0.5H177.5V0.5H182.5V-0.5ZM172.5 -0.5H167.5V0.5H172.5V-0.5ZM162.5 -0.5H157.5V0.5H162.5V-0.5ZM152.5 -0.5H147.5V0.5H152.5V-0.5ZM142.5 -0.5H137.5V0.5H142.5V-0.5ZM132.5 -0.5H127.5V0.5H132.5V-0.5ZM122.5 -0.5H117.5V0.5H122.5V-0.5ZM112.5 -0.5H107.5V0.5H112.5V-0.5ZM102.5 -0.5H97.5V0.5H102.5V-0.5ZM92.5 -0.5H87.5V0.5H92.5V-0.5ZM82.5 -0.5H77.5V0.5H82.5V-0.5ZM72.5 -0.5H67.5V0.5H72.5V-0.5ZM62.5 -0.5H57.5V0.5H62.5V-0.5ZM52.5 -0.5H47.5V0.5H52.5V-0.5ZM42.5 -0.5H37.5V0.5H42.5V-0.5ZM32.5 -0.5H27.5V0.5H32.5V-0.5ZM22.5 -0.5H17.5V0.5H22.5V-0.5ZM12.5 -0.5H7.50001V0.5H12.5V-0.5ZM2.49999 -0.5H0V0.5H2.49999V-0.5ZM0 0V-1H-1V0H0ZM720 0H721V-1H720V0ZM720 250V251H721V250H720ZM0 250H-1V251H0V250ZM-1 0V2.5H1V0H-1ZM-1 7.5V12.5H1V7.5H-1ZM-1 17.5V22.5H1V17.5H-1ZM-1 27.5V32.5H1V27.5H-1ZM-1 37.5V42.5H1V37.5H-1ZM-1 47.5V52.5H1V47.5H-1ZM-1 57.5V62.5H1V57.5H-1ZM-1 67.5V72.5H1V67.5H-1ZM-1 77.5V82.5H1V77.5H-1ZM-1 87.5V92.5H1V87.5H-1ZM-1 97.5V102.5H1V97.5H-1ZM-1 107.5V112.5H1V107.5H-1ZM-1 117.5V122.5H1V117.5H-1ZM-1 127.5V132.5H1V127.5H-1ZM-1 137.5V142.5H1V137.5H-1ZM-1 147.5V152.5H1V147.5H-1ZM-1 157.5V162.5H1V157.5H-1ZM-1 167.5V172.5H1V167.5H-1ZM-1 177.5V182.5H1V177.5H-1ZM-1 187.5V192.5H1V187.5H-1ZM-1 197.5V202.5H1V197.5H-1ZM-1 207.5V212.5H1V207.5H-1ZM-1 217.5V222.5H1V217.5H-1ZM-1 227.5V232.5H1V227.5H-1ZM-1 237.5V242.5H1V237.5H-1ZM-1 247.5V250H1V247.5H-1ZM0 251H2.5V249H0V251ZM7.5 251H12.5V249H7.5V251ZM17.5 251H22.5V249H17.5V251ZM27.5 251H32.5V249H27.5V251ZM37.5 251H42.5V249H37.5V251ZM47.5 251H52.5V249H47.5V251ZM57.5 251H62.5V249H57.5V251ZM67.5 251H72.5V249H67.5V251ZM77.5 251H82.5V249H77.5V251ZM87.5 251H92.5V249H87.5V251ZM97.5 251H102.5V249H97.5V251ZM107.5 251H112.5V249H107.5V251ZM117.5 251H122.5V249H117.5V251ZM127.5 251H132.5V249H127.5V251ZM137.5 251H142.5V249H137.5V251ZM147.5 251H152.5V249H147.5V251ZM157.5 251H162.5V249H157.5V251ZM167.5 251H172.5V249H167.5V251ZM177.5 251H182.5V249H177.5V251ZM187.5 251H192.5V249H187.5V251ZM197.5 251H202.5V249H197.5V251ZM207.5 251H212.5V249H207.5V251ZM217.5 251H222.5V249H217.5V251ZM227.5 251H232.5V249H227.5V251ZM237.5 251H242.5V249H237.5V251ZM247.5 251H252.5V249H247.5V251ZM257.5 251H262.5V249H257.5V251ZM267.5 251H272.5V249H267.5V251ZM277.5 251H282.5V249H277.5V251ZM287.5 251H292.5V249H287.5V251ZM297.5 251H302.5V249H297.5V251ZM307.5 251H312.5V249H307.5V251ZM317.5 251H322.5V249H317.5V251ZM327.5 251H332.5V249H327.5V251ZM337.5 251H342.5V249H337.5V251ZM347.5 251H352.5V249H347.5V251ZM357.5 251H362.5V249H357.5V251ZM367.5 251H372.5V249H367.5V251ZM377.5 251H382.5V249H377.5V251ZM387.5 251H392.5V249H387.5V251ZM397.5 251H402.5V249H397.5V251ZM407.5 251H412.5V249H407.5V251ZM417.5 251H422.5V249H417.5V251ZM427.5 251H432.5V249H427.5V251ZM437.5 251H442.5V249H437.5V251ZM447.5 251H452.5V249H447.5V251ZM457.5 251H462.5V249H457.5V251ZM467.5 251H472.5V249H467.5V251ZM477.5 251H482.5V249H477.5V251ZM487.5 251H492.5V249H487.5V251ZM497.5 251H502.5V249H497.5V251ZM507.5 251H512.5V249H507.5V251ZM517.5 251H522.5V249H517.5V251ZM527.5 251H532.5V249H527.5V251ZM537.5 251H542.5V249H537.5V251ZM547.5 251H552.5V249H547.5V251ZM557.5 251H562.5V249H557.5V251ZM567.5 251H572.5V249H567.5V251ZM577.5 251H582.5V249H577.5V251ZM587.5 251H592.5V249H587.5V251ZM597.5 251H602.5V249H597.5V251ZM607.5 251H612.5V249H607.5V251ZM617.5 251H622.5V249H617.5V251ZM627.5 251H632.5V249H627.5V251ZM637.5 251H642.5V249H637.5V251ZM647.5 251H652.5V249H647.5V251ZM657.5 251H662.5V249H657.5V251ZM667.5 251H672.5V249H667.5V251ZM677.5 251H682.5V249H677.5V251ZM687.5 251H692.5V249H687.5V251ZM697.5 251H702.5V249H697.5V251ZM707.5 251H712.5V249H707.5V251ZM717.5 251H720V249H717.5V251ZM721 250V247.5H719V250H721ZM721 242.5V237.5H719V242.5H721ZM721 232.5V227.5H719V232.5H721ZM721 222.5V217.5H719V222.5H721ZM721 212.5V207.5H719V212.5H721ZM721 202.5V197.5H719V202.5H721ZM721 192.5V187.5H719V192.5H721ZM721 182.5V177.5H719V182.5H721ZM721 172.5V167.5H719V172.5H721ZM721 162.5V157.5H719V162.5H721ZM721 152.5V147.5H719V152.5H721ZM721 142.5V137.5H719V142.5H721ZM721 132.5V127.5H719V132.5H721ZM721 122.5V117.5H719V122.5H721ZM721 112.5V107.5H719V112.5H721ZM721 102.5V97.5H719V102.5H721ZM721 92.5V87.5H719V92.5H721ZM721 82.5V77.5H719V82.5H721ZM721 72.5V67.5H719V72.5H721ZM721 62.5V57.5H719V62.5H721ZM721 52.5V47.5H719V52.5H721ZM721 42.5V37.5H719V42.5H721ZM721 32.5V27.5H719V32.5H721ZM721 22.5V17.5H719V22.5H721ZM721 12.5V7.49999H719V12.5H721ZM721 2.5V0H719V2.5H721ZM720 -1H717.5V1H720V-1ZM712.5 -1H707.5V1H712.5V-1ZM702.5 -1H697.5V1H702.5V-1ZM692.5 -1H687.5V1H692.5V-1ZM682.5 -1H677.5V1H682.5V-1ZM672.5 -1H667.5V1H672.5V-1ZM662.5 -1H657.5V1H662.5V-1ZM652.5 -1H647.5V1H652.5V-1ZM642.5 -1H637.5V1H642.5V-1ZM632.5 -1H627.5V1H632.5V-1ZM622.5 -1H617.5V1H622.5V-1ZM612.5 -1H607.5V1H612.5V-1ZM602.5 -1H597.5V1H602.5V-1ZM592.5 -1H587.5V1H592.5V-1ZM582.5 -1H577.5V1H582.5V-1ZM572.5 -1H567.5V1H572.5V-1ZM562.5 -1H557.5V1H562.5V-1ZM552.5 -1H547.5V1H552.5V-1ZM542.5 -1H537.5V1H542.5V-1ZM532.5 -1H527.5V1H532.5V-1ZM522.5 -1H517.5V1H522.5V-1ZM512.5 -1H507.5V1H512.5V-1ZM502.5 -1H497.5V1H502.5V-1ZM492.5 -1H487.5V1H492.5V-1ZM482.5 -1H477.5V1H482.5V-1ZM472.5 -1H467.5V1H472.5V-1ZM462.5 -1H457.5V1H462.5V-1ZM452.5 -1H447.5V1H452.5V-1ZM442.5 -1H437.5V1H442.5V-1ZM432.5 -1H427.5V1H432.5V-1ZM422.5 -1H417.5V1H422.5V-1ZM412.5 -1H407.5V1H412.5V-1ZM402.5 -1H397.5V1H402.5V-1ZM392.5 -1H387.5V1H392.5V-1ZM382.5 -1H377.5V1H382.5V-1ZM372.5 -1H367.5V1H372.5V-1ZM362.5 -1H357.5V1H362.5V-1ZM352.5 -1H347.5V1H352.5V-1ZM342.5 -1H337.5V1H342.5V-1ZM332.5 -1H327.5V1H332.5V-1ZM322.5 -1H317.5V1H322.5V-1ZM312.5 -1H307.5V1H312.5V-1ZM302.5 -1H297.5V1H302.5V-1ZM292.5 -1H287.5V1H292.5V-1ZM282.5 -1H277.5V1H282.5V-1ZM272.5 -1H267.5V1H272.5V-1ZM262.5 -1H257.5V1H262.5V-1ZM252.5 -1H247.5V1H252.5V-1ZM242.5 -1H237.5V1H242.5V-1ZM232.5 -1H227.5V1H232.5V-1ZM222.5 -1H217.5V1H222.5V-1ZM212.5 -1H207.5V1H212.5V-1ZM202.5 -1H197.5V1H202.5V-1ZM192.5 -1H187.5V1H192.5V-1ZM182.5 -1H177.5V1H182.5V-1ZM172.5 -1H167.5V1H172.5V-1ZM162.5 -1H157.5V1H162.5V-1ZM152.5 -1H147.5V1H152.5V-1ZM142.5 -1H137.5V1H142.5V-1ZM132.5 -1H127.5V1H132.5V-1ZM122.5 -1H117.5V1H122.5V-1ZM112.5 -1H107.5V1H112.5V-1ZM102.5 -1H97.5V1H102.5V-1ZM92.5 -1H87.5V1H92.5V-1ZM82.5 -1H77.5V1H82.5V-1ZM72.5 -1H67.5V1H72.5V-1ZM62.5 -1H57.5V1H62.5V-1ZM52.5 -1H47.5V1H52.5V-1ZM42.5 -1H37.5V1H42.5V-1ZM32.5 -1H27.5V1H32.5V-1ZM22.5 -1H17.5V1H22.5V-1ZM12.5 -1H7.50001V1H12.5V-1ZM2.49999 -1H0V1H2.49999V-1Z" fill="#7F20D2"/>
<defs>
<clipPath id="clip0_54_574">
<rect width="229.333" height="69" fill="white" transform="translate(0 48)"/>
</clipPath>
<clipPath id="clip1_54_574">
<rect width="229.333" height="117" fill="white" transform="translate(245.333)"/>
</clipPath>
<clipPath id="clip2_54_574">
<rect width="229.333" height="69" fill="white" transform="translate(0 181)"/>
</clipPath>
<clipPath id="clip3_54_574">
<rect width="229.333" height="117" fill="white" transform="translate(245.333 133)"/>
</clipPath>
</defs>
</svg>
