<svg width="720" height="256" viewBox="0 0 720 256" fill="none" xmlns="http://www.w3.org/2000/svg">
<path d="M0 0H720V256H0V0Z" fill="#D9BCF2"/>
<g clip-path="url(#clip0_5_1146)">
<rect x="145.833" y="48.5" width="83" height="71" fill="white"/>
<path d="M172.55 91H171.074V78.3965H172.55V91ZM179.854 90.9121C179.514 91.0996 179.066 91.1934 178.509 91.1934C176.933 91.1934 176.145 90.3145 176.145 88.5566V83.2305H174.598V82H176.145V79.8027L177.586 79.3369V82H179.854V83.2305H177.586V88.3018C177.586 88.9053 177.689 89.3359 177.894 89.5938C178.099 89.8516 178.439 89.9805 178.914 89.9805C179.277 89.9805 179.59 89.8809 179.854 89.6816V90.9121ZM189.012 86.8604H182.658C182.681 87.8623 182.951 88.6357 183.466 89.1807C183.982 89.7256 184.691 89.998 185.593 89.998C186.607 89.998 187.539 89.6641 188.388 88.9961V90.3496C187.597 90.9238 186.551 91.2109 185.25 91.2109C183.979 91.2109 182.98 90.8037 182.253 89.9893C181.527 89.1689 181.164 88.0176 181.164 86.5352C181.164 85.1348 181.559 83.9951 182.35 83.1162C183.147 82.2314 184.134 81.7891 185.312 81.7891C186.49 81.7891 187.401 82.1699 188.045 82.9316C188.69 83.6934 189.012 84.751 189.012 86.1045V86.8604ZM187.536 85.6387C187.53 84.8066 187.328 84.1592 186.929 83.6963C186.537 83.2334 185.989 83.002 185.286 83.002C184.606 83.002 184.029 83.2451 183.554 83.7314C183.08 84.2178 182.787 84.8535 182.675 85.6387H187.536ZM203.98 91H202.539V85.832C202.539 84.8359 202.383 84.1152 202.073 83.6699C201.768 83.2246 201.252 83.002 200.526 83.002C199.911 83.002 199.386 83.2832 198.953 83.8457C198.525 84.4082 198.311 85.082 198.311 85.8672V91H196.87V85.6562C196.87 83.8867 196.187 83.002 194.822 83.002C194.189 83.002 193.667 83.2686 193.257 83.8018C192.847 84.3291 192.642 85.0176 192.642 85.8672V91H191.201V82H192.642V83.4238H192.677C193.316 82.334 194.248 81.7891 195.472 81.7891C196.087 81.7891 196.624 81.9619 197.081 82.3076C197.538 82.6475 197.851 83.0957 198.021 83.6523C198.689 82.4102 199.685 81.7891 201.009 81.7891C202.99 81.7891 203.98 83.0107 203.98 85.4541V91Z" fill="black"/>
<rect x="145.833" y="48.5" width="83" height="71" stroke="black" stroke-dasharray="5 5"/>
</g>
<g clip-path="url(#clip1_5_1146)">
<rect x="391.167" y="0.5" width="83" height="119" fill="white"/>
<path d="M417.884 67H416.407V54.3965H417.884V67ZM425.188 66.9121C424.848 67.0996 424.399 67.1934 423.843 67.1934C422.267 67.1934 421.479 66.3145 421.479 64.5566V59.2305H419.932V58H421.479V55.8027L422.92 55.3369V58H425.188V59.2305H422.92V64.3018C422.92 64.9053 423.022 65.3359 423.228 65.5938C423.433 65.8516 423.772 65.9805 424.247 65.9805C424.61 65.9805 424.924 65.8809 425.188 65.6816V66.9121ZM434.346 62.8604H427.991C428.015 63.8623 428.284 64.6357 428.8 65.1807C429.315 65.7256 430.024 65.998 430.927 65.998C431.94 65.998 432.872 65.6641 433.722 64.9961V66.3496C432.931 66.9238 431.885 67.2109 430.584 67.2109C429.312 67.2109 428.313 66.8037 427.587 65.9893C426.86 65.1689 426.497 64.0176 426.497 62.5352C426.497 61.1348 426.893 59.9951 427.684 59.1162C428.48 58.2314 429.468 57.7891 430.646 57.7891C431.823 57.7891 432.734 58.1699 433.379 58.9316C434.023 59.6934 434.346 60.751 434.346 62.1045V62.8604ZM432.869 61.6387C432.863 60.8066 432.661 60.1592 432.263 59.6963C431.87 59.2334 431.322 59.002 430.619 59.002C429.939 59.002 429.362 59.2451 428.888 59.7314C428.413 60.2178 428.12 60.8535 428.009 61.6387H432.869ZM449.313 67H447.872V61.832C447.872 60.8359 447.717 60.1152 447.406 59.6699C447.102 59.2246 446.586 59.002 445.859 59.002C445.244 59.002 444.72 59.2832 444.286 59.8457C443.858 60.4082 443.645 61.082 443.645 61.8672V67H442.203V61.6562C442.203 59.8867 441.521 59.002 440.155 59.002C439.522 59.002 439.001 59.2686 438.591 59.8018C438.181 60.3291 437.976 61.0176 437.976 61.8672V67H436.534V58H437.976V59.4238H438.011C438.649 58.334 439.581 57.7891 440.806 57.7891C441.421 57.7891 441.957 57.9619 442.414 58.3076C442.871 58.6475 443.185 59.0957 443.354 59.6523C444.022 58.4102 445.019 57.7891 446.343 57.7891C448.323 57.7891 449.313 59.0107 449.313 61.4541V67Z" fill="black"/>
<rect x="391.167" y="0.5" width="83" height="119" stroke="black" stroke-dasharray="5 5"/>
</g>
<rect x="588.5" y="48.5" width="131" height="71" fill="white"/>
<path d="M639.217 91H637.74V78.3965H639.217V91ZM646.521 90.9121C646.181 91.0996 645.732 91.1934 645.176 91.1934C643.6 91.1934 642.812 90.3145 642.812 88.5566V83.2305H641.265V82H642.812V79.8027L644.253 79.3369V82H646.521V83.2305H644.253V88.3018C644.253 88.9053 644.355 89.3359 644.561 89.5938C644.766 89.8516 645.105 89.9805 645.58 89.9805C645.943 89.9805 646.257 89.8809 646.521 89.6816V90.9121ZM655.679 86.8604H649.324C649.348 87.8623 649.617 88.6357 650.133 89.1807C650.648 89.7256 651.357 89.998 652.26 89.998C653.273 89.998 654.205 89.6641 655.055 88.9961V90.3496C654.264 90.9238 653.218 91.2109 651.917 91.2109C650.646 91.2109 649.646 90.8037 648.92 89.9893C648.193 89.1689 647.83 88.0176 647.83 86.5352C647.83 85.1348 648.226 83.9951 649.017 83.1162C649.813 82.2314 650.801 81.7891 651.979 81.7891C653.156 81.7891 654.067 82.1699 654.712 82.9316C655.356 83.6934 655.679 84.751 655.679 86.1045V86.8604ZM654.202 85.6387C654.196 84.8066 653.994 84.1592 653.596 83.6963C653.203 83.2334 652.655 83.002 651.952 83.002C651.272 83.002 650.695 83.2451 650.221 83.7314C649.746 84.2178 649.453 84.8535 649.342 85.6387H654.202ZM670.646 91H669.205V85.832C669.205 84.8359 669.05 84.1152 668.739 83.6699C668.435 83.2246 667.919 83.002 667.192 83.002C666.577 83.002 666.053 83.2832 665.619 83.8457C665.191 84.4082 664.978 85.082 664.978 85.8672V91H663.536V85.6562C663.536 83.8867 662.854 83.002 661.488 83.002C660.855 83.002 660.334 83.2686 659.924 83.8018C659.514 84.3291 659.309 85.0176 659.309 85.8672V91H657.867V82H659.309V83.4238H659.344C659.982 82.334 660.914 81.7891 662.139 81.7891C662.754 81.7891 663.29 81.9619 663.747 82.3076C664.204 82.6475 664.518 83.0957 664.688 83.6523C665.355 82.4102 666.352 81.7891 667.676 81.7891C669.656 81.7891 670.646 83.0107 670.646 85.4541V91Z" fill="black"/>
<rect x="588.5" y="48.5" width="131" height="71" stroke="black" stroke-dasharray="5 5"/>
<g clip-path="url(#clip2_5_1146)">
<rect x="145.833" y="184.5" width="83" height="71" fill="white"/>
<path d="M172.55 227H171.074V214.396H172.55V227ZM179.854 226.912C179.514 227.1 179.066 227.193 178.509 227.193C176.933 227.193 176.145 226.314 176.145 224.557V219.23H174.598V218H176.145V215.803L177.586 215.337V218H179.854V219.23H177.586V224.302C177.586 224.905 177.689 225.336 177.894 225.594C178.099 225.852 178.439 225.98 178.914 225.98C179.277 225.98 179.59 225.881 179.854 225.682V226.912ZM189.012 222.86H182.658C182.681 223.862 182.951 224.636 183.466 225.181C183.982 225.726 184.691 225.998 185.593 225.998C186.607 225.998 187.539 225.664 188.388 224.996V226.35C187.597 226.924 186.551 227.211 185.25 227.211C183.979 227.211 182.98 226.804 182.253 225.989C181.527 225.169 181.164 224.018 181.164 222.535C181.164 221.135 181.559 219.995 182.35 219.116C183.147 218.231 184.134 217.789 185.312 217.789C186.49 217.789 187.401 218.17 188.045 218.932C188.69 219.693 189.012 220.751 189.012 222.104V222.86ZM187.536 221.639C187.53 220.807 187.328 220.159 186.929 219.696C186.537 219.233 185.989 219.002 185.286 219.002C184.606 219.002 184.029 219.245 183.554 219.731C183.08 220.218 182.787 220.854 182.675 221.639H187.536ZM203.98 227H202.539V221.832C202.539 220.836 202.383 220.115 202.073 219.67C201.768 219.225 201.252 219.002 200.526 219.002C199.911 219.002 199.386 219.283 198.953 219.846C198.525 220.408 198.311 221.082 198.311 221.867V227H196.87V221.656C196.87 219.887 196.187 219.002 194.822 219.002C194.189 219.002 193.667 219.269 193.257 219.802C192.847 220.329 192.642 221.018 192.642 221.867V227H191.201V218H192.642V219.424H192.677C193.316 218.334 194.248 217.789 195.472 217.789C196.087 217.789 196.624 217.962 197.081 218.308C197.538 218.647 197.851 219.096 198.021 219.652C198.689 218.41 199.685 217.789 201.009 217.789C202.99 217.789 203.98 219.011 203.98 221.454V227Z" fill="black"/>
<rect x="145.833" y="184.5" width="83" height="71" stroke="black" stroke-dasharray="5 5"/>
</g>
<g clip-path="url(#clip3_5_1146)">
<rect x="391.167" y="136.5" width="83" height="119" fill="white"/>
<path d="M417.884 203H416.407V190.396H417.884V203ZM425.188 202.912C424.848 203.1 424.399 203.193 423.843 203.193C422.267 203.193 421.479 202.314 421.479 200.557V195.23H419.932V194H421.479V191.803L422.92 191.337V194H425.188V195.23H422.92V200.302C422.92 200.905 423.022 201.336 423.228 201.594C423.433 201.852 423.772 201.98 424.247 201.98C424.61 201.98 424.924 201.881 425.188 201.682V202.912ZM434.346 198.86H427.991C428.015 199.862 428.284 200.636 428.8 201.181C429.315 201.726 430.024 201.998 430.927 201.998C431.94 201.998 432.872 201.664 433.722 200.996V202.35C432.931 202.924 431.885 203.211 430.584 203.211C429.312 203.211 428.313 202.804 427.587 201.989C426.86 201.169 426.497 200.018 426.497 198.535C426.497 197.135 426.893 195.995 427.684 195.116C428.48 194.231 429.468 193.789 430.646 193.789C431.823 193.789 432.734 194.17 433.379 194.932C434.023 195.693 434.346 196.751 434.346 198.104V198.86ZM432.869 197.639C432.863 196.807 432.661 196.159 432.263 195.696C431.87 195.233 431.322 195.002 430.619 195.002C429.939 195.002 429.362 195.245 428.888 195.731C428.413 196.218 428.12 196.854 428.009 197.639H432.869ZM449.313 203H447.872V197.832C447.872 196.836 447.717 196.115 447.406 195.67C447.102 195.225 446.586 195.002 445.859 195.002C445.244 195.002 444.72 195.283 444.286 195.846C443.858 196.408 443.645 197.082 443.645 197.867V203H442.203V197.656C442.203 195.887 441.521 195.002 440.155 195.002C439.522 195.002 439.001 195.269 438.591 195.802C438.181 196.329 437.976 197.018 437.976 197.867V203H436.534V194H437.976V195.424H438.011C438.649 194.334 439.581 193.789 440.806 193.789C441.421 193.789 441.957 193.962 442.414 194.308C442.871 194.647 443.185 195.096 443.354 195.652C444.022 194.41 445.019 193.789 446.343 193.789C448.323 193.789 449.313 195.011 449.313 197.454V203Z" fill="black"/>
<rect x="391.167" y="136.5" width="83" height="119" stroke="black" stroke-dasharray="5 5"/>
</g>
<rect x="588.5" y="184.5" width="131" height="71" fill="white"/>
<path d="M639.217 227H637.74V214.396H639.217V227ZM646.521 226.912C646.181 227.1 645.732 227.193 645.176 227.193C643.6 227.193 642.812 226.314 642.812 224.557V219.23H641.265V218H642.812V215.803L644.253 215.337V218H646.521V219.23H644.253V224.302C644.253 224.905 644.355 225.336 644.561 225.594C644.766 225.852 645.105 225.98 645.58 225.98C645.943 225.98 646.257 225.881 646.521 225.682V226.912ZM655.679 222.86H649.324C649.348 223.862 649.617 224.636 650.133 225.181C650.648 225.726 651.357 225.998 652.26 225.998C653.273 225.998 654.205 225.664 655.055 224.996V226.35C654.264 226.924 653.218 227.211 651.917 227.211C650.646 227.211 649.646 226.804 648.92 225.989C648.193 225.169 647.83 224.018 647.83 222.535C647.83 221.135 648.226 219.995 649.017 219.116C649.813 218.231 650.801 217.789 651.979 217.789C653.156 217.789 654.067 218.17 654.712 218.932C655.356 219.693 655.679 220.751 655.679 222.104V222.86ZM654.202 221.639C654.196 220.807 653.994 220.159 653.596 219.696C653.203 219.233 652.655 219.002 651.952 219.002C651.272 219.002 650.695 219.245 650.221 219.731C649.746 220.218 649.453 220.854 649.342 221.639H654.202ZM670.646 227H669.205V221.832C669.205 220.836 669.05 220.115 668.739 219.67C668.435 219.225 667.919 219.002 667.192 219.002C666.577 219.002 666.053 219.283 665.619 219.846C665.191 220.408 664.978 221.082 664.978 221.867V227H663.536V221.656C663.536 219.887 662.854 219.002 661.488 219.002C660.855 219.002 660.334 219.269 659.924 219.802C659.514 220.329 659.309 221.018 659.309 221.867V227H657.867V218H659.309V219.424H659.344C659.982 218.334 660.914 217.789 662.139 217.789C662.754 217.789 663.29 217.962 663.747 218.308C664.204 218.647 664.518 219.096 664.688 219.652C665.355 218.41 666.352 217.789 667.676 217.789C669.656 217.789 670.646 219.011 670.646 221.454V227Z" fill="black"/>
<rect x="588.5" y="184.5" width="131" height="71" stroke="black" stroke-dasharray="5 5"/>
<path d="M0 0V-0.5H-0.5V0H0ZM720 0H720.5V-0.5H720V0ZM720 256V256.5H720.5V256H720ZM0 256H-0.5V256.5H0V256ZM-0.5 0V2.46154H0.5V0H-0.5ZM-0.5 7.38462V12.3077H0.5V7.38462H-0.5ZM-0.5 17.2308V22.1538H0.5V17.2308H-0.5ZM-0.5 27.0769V32H0.5V27.0769H-0.5ZM-0.5 36.9231V41.8462H0.5V36.9231H-0.5ZM-0.5 46.7692V51.6923H0.5V46.7692H-0.5ZM-0.5 56.6154V61.5385H0.5V56.6154H-0.5ZM-0.5 66.4615V71.3846H0.5V66.4615H-0.5ZM-0.5 76.3077V81.2308H0.5V76.3077H-0.5ZM-0.5 86.1539V91.0769H0.5V86.1539H-0.5ZM-0.5 96V100.923H0.5V96H-0.5ZM-0.5 105.846V110.769H0.5V105.846H-0.5ZM-0.5 115.692V120.615H0.5V115.692H-0.5ZM-0.5 125.539V130.462H0.5V125.539H-0.5ZM-0.5 135.385V140.308H0.5V135.385H-0.5ZM-0.5 145.231V150.154H0.5V145.231H-0.5ZM-0.5 155.077V160H0.5V155.077H-0.5ZM-0.5 164.923V169.846H0.5V164.923H-0.5ZM-0.5 174.769V179.692H0.5V174.769H-0.5ZM-0.5 184.615V189.539H0.5V184.615H-0.5ZM-0.5 194.462V199.385H0.5V194.462H-0.5ZM-0.5 204.308V209.231H0.5V204.308H-0.5ZM-0.5 214.154V219.077H0.5V214.154H-0.5ZM-0.5 224V228.923H0.5V224H-0.5ZM-0.5 233.846V238.769H0.5V233.846H-0.5ZM-0.5 243.692V248.616H0.5V243.692H-0.5ZM-0.5 253.539V256H0.5V253.539H-0.5ZM0 256.5H2.5V255.5H0V256.5ZM7.5 256.5H12.5V255.5H7.5V256.5ZM17.5 256.5H22.5V255.5H17.5V256.5ZM27.5 256.5H32.5V255.5H27.5V256.5ZM37.5 256.5H42.5V255.5H37.5V256.5ZM47.5 256.5H52.5V255.5H47.5V256.5ZM57.5 256.5H62.5V255.5H57.5V256.5ZM67.5 256.5H72.5V255.5H67.5V256.5ZM77.5 256.5H82.5V255.5H77.5V256.5ZM87.5 256.5H92.5V255.5H87.5V256.5ZM97.5 256.5H102.5V255.5H97.5V256.5ZM107.5 256.5H112.5V255.5H107.5V256.5ZM117.5 256.5H122.5V255.5H117.5V256.5ZM127.5 256.5H132.5V255.5H127.5V256.5ZM137.5 256.5H142.5V255.5H137.5V256.5ZM147.5 256.5H152.5V255.5H147.5V256.5ZM157.5 256.5H162.5V255.5H157.5V256.5ZM167.5 256.5H172.5V255.5H167.5V256.5ZM177.5 256.5H182.5V255.5H177.5V256.5ZM187.5 256.5H192.5V255.5H187.5V256.5ZM197.5 256.5H202.5V255.5H197.5V256.5ZM207.5 256.5H212.5V255.5H207.5V256.5ZM217.5 256.5H222.5V255.5H217.5V256.5ZM227.5 256.5H232.5V255.5H227.5V256.5ZM237.5 256.5H242.5V255.5H237.5V256.5ZM247.5 256.5H252.5V255.5H247.5V256.5ZM257.5 256.5H262.5V255.5H257.5V256.5ZM267.5 256.5H272.5V255.5H267.5V256.5ZM277.5 256.5H282.5V255.5H277.5V256.5ZM287.5 256.5H292.5V255.5H287.5V256.5ZM297.5 256.5H302.5V255.5H297.5V256.5ZM307.5 256.5H312.5V255.5H307.5V256.5ZM317.5 256.5H322.5V255.5H317.5V256.5ZM327.5 256.5H332.5V255.5H327.5V256.5ZM337.5 256.5H342.5V255.5H337.5V256.5ZM347.5 256.5H352.5V255.5H347.5V256.5ZM357.5 256.5H362.5V255.5H357.5V256.5ZM367.5 256.5H372.5V255.5H367.5V256.5ZM377.5 256.5H382.5V255.5H377.5V256.5ZM387.5 256.5H392.5V255.5H387.5V256.5ZM397.5 256.5H402.5V255.5H397.5V256.5ZM407.5 256.5H412.5V255.5H407.5V256.5ZM417.5 256.5H422.5V255.5H417.5V256.5ZM427.5 256.5H432.5V255.5H427.5V256.5ZM437.5 256.5H442.5V255.5H437.5V256.5ZM447.5 256.5H452.5V255.5H447.5V256.5ZM457.5 256.5H462.5V255.5H457.5V256.5ZM467.5 256.5H472.5V255.5H467.5V256.5ZM477.5 256.5H482.5V255.5H477.5V256.5ZM487.5 256.5H492.5V255.5H487.5V256.5ZM497.5 256.5H502.5V255.5H497.5V256.5ZM507.5 256.5H512.5V255.5H507.5V256.5ZM517.5 256.5H522.5V255.5H517.5V256.5ZM527.5 256.5H532.5V255.5H527.5V256.5ZM537.5 256.5H542.5V255.5H537.5V256.5ZM547.5 256.5H552.5V255.5H547.5V256.5ZM557.5 256.5H562.5V255.5H557.5V256.5ZM567.5 256.5H572.5V255.5H567.5V256.5ZM577.5 256.5H582.5V255.5H577.5V256.5ZM587.5 256.5H592.5V255.5H587.5V256.5ZM597.5 256.5H602.5V255.5H597.5V256.5ZM607.5 256.5H612.5V255.5H607.5V256.5ZM617.5 256.5H622.5V255.5H617.5V256.5ZM627.5 256.5H632.5V255.5H627.5V256.5ZM637.5 256.5H642.5V255.5H637.5V256.5ZM647.5 256.5H652.5V255.5H647.5V256.5ZM657.5 256.5H662.5V255.5H657.5V256.5ZM667.5 256.5H672.5V255.5H667.5V256.5ZM677.5 256.5H682.5V255.5H677.5V256.5ZM687.5 256.5H692.5V255.5H687.5V256.5ZM697.5 256.5H702.5V255.5H697.5V256.5ZM707.5 256.5H712.5V255.5H707.5V256.5ZM717.5 256.5H720V255.5H717.5V256.5ZM720.5 256V253.538H719.5V256H720.5ZM720.5 248.615V243.692H719.5V248.615H720.5ZM720.5 238.769V233.846H719.5V238.769H720.5ZM720.5 228.923V224H719.5V228.923H720.5ZM720.5 219.077V214.154H719.5V219.077H720.5ZM720.5 209.231V204.308H719.5V209.231H720.5ZM720.5 199.385V194.462H719.5V199.385H720.5ZM720.5 189.538V184.615H719.5V189.538H720.5ZM720.5 179.692V174.769H719.5V179.692H720.5ZM720.5 169.846V164.923H719.5V169.846H720.5ZM720.5 160V155.077H719.5V160H720.5ZM720.5 150.154V145.231H719.5V150.154H720.5ZM720.5 140.308V135.385H719.5V140.308H720.5ZM720.5 130.461V125.538H719.5V130.461H720.5ZM720.5 120.615V115.692H719.5V120.615H720.5ZM720.5 110.769V105.846H719.5V110.769H720.5ZM720.5 100.923V95.9999H719.5V100.923H720.5ZM720.5 91.0769V86.1538H719.5V91.0769H720.5ZM720.5 81.2307V76.3076H719.5V81.2307H720.5ZM720.5 71.3845V66.4615H719.5V71.3845H720.5ZM720.5 61.5384V56.6153H719.5V61.5384H720.5ZM720.5 51.6922V46.7691H719.5V51.6922H720.5ZM720.5 41.8461V36.923H719.5V41.8461H720.5ZM720.5 31.9999V27.0768H719.5V31.9999H720.5ZM720.5 22.1537V17.2307H719.5V22.1537H720.5ZM720.5 12.3076V7.38449H719.5V12.3076H720.5ZM720.5 2.46141V0H719.5V2.46141H720.5ZM720 -0.5H717.5V0.5H720V-0.5ZM712.5 -0.5H707.5V0.5H712.5V-0.5ZM702.5 -0.5H697.5V0.5H702.5V-0.5ZM692.5 -0.5H687.5V0.5H692.5V-0.5ZM682.5 -0.5H677.5V0.5H682.5V-0.5ZM672.5 -0.5H667.5V0.5H672.5V-0.5ZM662.5 -0.5H657.5V0.5H662.5V-0.5ZM652.5 -0.5H647.5V0.5H652.5V-0.5ZM642.5 -0.5H637.5V0.5H642.5V-0.5ZM632.5 -0.5H627.5V0.5H632.5V-0.5ZM622.5 -0.5H617.5V0.5H622.5V-0.5ZM612.5 -0.5H607.5V0.5H612.5V-0.5ZM602.5 -0.5H597.5V0.5H602.5V-0.5ZM592.5 -0.5H587.5V0.5H592.5V-0.5ZM582.5 -0.5H577.5V0.5H582.5V-0.5ZM572.5 -0.5H567.5V0.5H572.5V-0.5ZM562.5 -0.5H557.5V0.5H562.5V-0.5ZM552.5 -0.5H547.5V0.5H552.5V-0.5ZM542.5 -0.5H537.5V0.5H542.5V-0.5ZM532.5 -0.5H527.5V0.5H532.5V-0.5ZM522.5 -0.5H517.5V0.5H522.5V-0.5ZM512.5 -0.5H507.5V0.5H512.5V-0.5ZM502.5 -0.5H497.5V0.5H502.5V-0.5ZM492.5 -0.5H487.5V0.5H492.5V-0.5ZM482.5 -0.5H477.5V0.5H482.5V-0.5ZM472.5 -0.5H467.5V0.5H472.5V-0.5ZM462.5 -0.5H457.5V0.5H462.5V-0.5ZM452.5 -0.5H447.5V0.5H452.5V-0.5ZM442.5 -0.5H437.5V0.5H442.5V-0.5ZM432.5 -0.5H427.5V0.5H432.5V-0.5ZM422.5 -0.5H417.5V0.5H422.5V-0.5ZM412.5 -0.5H407.5V0.5H412.5V-0.5ZM402.5 -0.5H397.5V0.5H402.5V-0.5ZM392.5 -0.5H387.5V0.5H392.5V-0.5ZM382.5 -0.5H377.5V0.5H382.5V-0.5ZM372.5 -0.5H367.5V0.5H372.5V-0.5ZM362.5 -0.5H357.5V0.5H362.5V-0.5ZM352.5 -0.5H347.5V0.5H352.5V-0.5ZM342.5 -0.5H337.5V0.5H342.5V-0.5ZM332.5 -0.5H327.5V0.5H332.5V-0.5ZM322.5 -0.5H317.5V0.5H322.5V-0.5ZM312.5 -0.5H307.5V0.5H312.5V-0.5ZM302.5 -0.5H297.5V0.5H302.5V-0.5ZM292.5 -0.5H287.5V0.5H292.5V-0.5ZM282.5 -0.5H277.5V0.5H282.5V-0.5ZM272.5 -0.5H267.5V0.5H272.5V-0.5ZM262.5 -0.5H257.5V0.5H262.5V-0.5ZM252.5 -0.5H247.5V0.5H252.5V-0.5ZM242.5 -0.5H237.5V0.5H242.5V-0.5ZM232.5 -0.5H227.5V0.5H232.5V-0.5ZM222.5 -0.5H217.5V0.5H222.5V-0.5ZM212.5 -0.5H207.5V0.5H212.5V-0.5ZM202.5 -0.5H197.5V0.5H202.5V-0.5ZM192.5 -0.5H187.5V0.5H192.5V-0.5ZM182.5 -0.5H177.5V0.5H182.5V-0.5ZM172.5 -0.5H167.5V0.5H172.5V-0.5ZM162.5 -0.5H157.5V0.5H162.5V-0.5ZM152.5 -0.5H147.5V0.5H152.5V-0.5ZM142.5 -0.5H137.5V0.5H142.5V-0.5ZM132.5 -0.5H127.5V0.5H132.5V-0.5ZM122.5 -0.5H117.5V0.5H122.5V-0.5ZM112.5 -0.5H107.5V0.5H112.5V-0.5ZM102.5 -0.5H97.5V0.5H102.5V-0.5ZM92.5 -0.5H87.5V0.5H92.5V-0.5ZM82.5 -0.5H77.5V0.5H82.5V-0.5ZM72.5 -0.5H67.5V0.5H72.5V-0.5ZM62.5 -0.5H57.5V0.5H62.5V-0.5ZM52.5 -0.5H47.5V0.5H52.5V-0.5ZM42.5 -0.5H37.5V0.5H42.5V-0.5ZM32.5 -0.5H27.5V0.5H32.5V-0.5ZM22.5 -0.5H17.5V0.5H22.5V-0.5ZM12.5 -0.5H7.50001V0.5H12.5V-0.5ZM2.49999 -0.5H0V0.5H2.49999V-0.5ZM0 0V-1H-1V0H0ZM720 0H721V-1H720V0ZM720 256V257H721V256H720ZM0 256H-1V257H0V256ZM-1 0V2.46154H1V0H-1ZM-1 7.38462V12.3077H1V7.38462H-1ZM-1 17.2308V22.1538H1V17.2308H-1ZM-1 27.0769V32H1V27.0769H-1ZM-1 36.9231V41.8462H1V36.9231H-1ZM-1 46.7692V51.6923H1V46.7692H-1ZM-1 56.6154V61.5385H1V56.6154H-1ZM-1 66.4615V71.3846H1V66.4615H-1ZM-1 76.3077V81.2308H1V76.3077H-1ZM-1 86.1539V91.0769H1V86.1539H-1ZM-1 96V100.923H1V96H-1ZM-1 105.846V110.769H1V105.846H-1ZM-1 115.692V120.615H1V115.692H-1ZM-1 125.539V130.462H1V125.539H-1ZM-1 135.385V140.308H1V135.385H-1ZM-1 145.231V150.154H1V145.231H-1ZM-1 155.077V160H1V155.077H-1ZM-1 164.923V169.846H1V164.923H-1ZM-1 174.769V179.692H1V174.769H-1ZM-1 184.615V189.539H1V184.615H-1ZM-1 194.462V199.385H1V194.462H-1ZM-1 204.308V209.231H1V204.308H-1ZM-1 214.154V219.077H1V214.154H-1ZM-1 224V228.923H1V224H-1ZM-1 233.846V238.769H1V233.846H-1ZM-1 243.692V248.616H1V243.692H-1ZM-1 253.539V256H1V253.539H-1ZM0 257H2.5V255H0V257ZM7.5 257H12.5V255H7.5V257ZM17.5 257H22.5V255H17.5V257ZM27.5 257H32.5V255H27.5V257ZM37.5 257H42.5V255H37.5V257ZM47.5 257H52.5V255H47.5V257ZM57.5 257H62.5V255H57.5V257ZM67.5 257H72.5V255H67.5V257ZM77.5 257H82.5V255H77.5V257ZM87.5 257H92.5V255H87.5V257ZM97.5 257H102.5V255H97.5V257ZM107.5 257H112.5V255H107.5V257ZM117.5 257H122.5V255H117.5V257ZM127.5 257H132.5V255H127.5V257ZM137.5 257H142.5V255H137.5V257ZM147.5 257H152.5V255H147.5V257ZM157.5 257H162.5V255H157.5V257ZM167.5 257H172.5V255H167.5V257ZM177.5 257H182.5V255H177.5V257ZM187.5 257H192.5V255H187.5V257ZM197.5 257H202.5V255H197.5V257ZM207.5 257H212.5V255H207.5V257ZM217.5 257H222.5V255H217.5V257ZM227.5 257H232.5V255H227.5V257ZM237.5 257H242.5V255H237.5V257ZM247.5 257H252.5V255H247.5V257ZM257.5 257H262.5V255H257.5V257ZM267.5 257H272.5V255H267.5V257ZM277.5 257H282.5V255H277.5V257ZM287.5 257H292.5V255H287.5V257ZM297.5 257H302.5V255H297.5V257ZM307.5 257H312.5V255H307.5V257ZM317.5 257H322.5V255H317.5V257ZM327.5 257H332.5V255H327.5V257ZM337.5 257H342.5V255H337.5V257ZM347.5 257H352.5V255H347.5V257ZM357.5 257H362.5V255H357.5V257ZM367.5 257H372.5V255H367.5V257ZM377.5 257H382.5V255H377.5V257ZM387.5 257H392.5V255H387.5V257ZM397.5 257H402.5V255H397.5V257ZM407.5 257H412.5V255H407.5V257ZM417.5 257H422.5V255H417.5V257ZM427.5 257H432.5V255H427.5V257ZM437.5 257H442.5V255H437.5V257ZM447.5 257H452.5V255H447.5V257ZM457.5 257H462.5V255H457.5V257ZM467.5 257H472.5V255H467.5V257ZM477.5 257H482.5V255H477.5V257ZM487.5 257H492.5V255H487.5V257ZM497.5 257H502.5V255H497.5V257ZM507.5 257H512.5V255H507.5V257ZM517.5 257H522.5V255H517.5V257ZM527.5 257H532.5V255H527.5V257ZM537.5 257H542.5V255H537.5V257ZM547.5 257H552.5V255H547.5V257ZM557.5 257H562.5V255H557.5V257ZM567.5 257H572.5V255H567.5V257ZM577.5 257H582.5V255H577.5V257ZM587.5 257H592.5V255H587.5V257ZM597.5 257H602.5V255H597.5V257ZM607.5 257H612.5V255H607.5V257ZM617.5 257H622.5V255H617.5V257ZM627.5 257H632.5V255H627.5V257ZM637.5 257H642.5V255H637.5V257ZM647.5 257H652.5V255H647.5V257ZM657.5 257H662.5V255H657.5V257ZM667.5 257H672.5V255H667.5V257ZM677.5 257H682.5V255H677.5V257ZM687.5 257H692.5V255H687.5V257ZM697.5 257H702.5V255H697.5V257ZM707.5 257H712.5V255H707.5V257ZM717.5 257H720V255H717.5V257ZM721 256V253.538H719V256H721ZM721 248.615V243.692H719V248.615H721ZM721 238.769V233.846H719V238.769H721ZM721 228.923V224H719V228.923H721ZM721 219.077V214.154H719V219.077H721ZM721 209.231V204.308H719V209.231H721ZM721 199.385V194.462H719V199.385H721ZM721 189.538V184.615H719V189.538H721ZM721 179.692V174.769H719V179.692H721ZM721 169.846V164.923H719V169.846H721ZM721 160V155.077H719V160H721ZM721 150.154V145.231H719V150.154H721ZM721 140.308V135.385H719V140.308H721ZM721 130.461V125.538H719V130.461H721ZM721 120.615V115.692H719V120.615H721ZM721 110.769V105.846H719V110.769H721ZM721 100.923V95.9999H719V100.923H721ZM721 91.0769V86.1538H719V91.0769H721ZM721 81.2307V76.3076H719V81.2307H721ZM721 71.3845V66.4615H719V71.3845H721ZM721 61.5384V56.6153H719V61.5384H721ZM721 51.6922V46.7691H719V51.6922H721ZM721 41.8461V36.923H719V41.8461H721ZM721 31.9999V27.0768H719V31.9999H721ZM721 22.1537V17.2307H719V22.1537H721ZM721 12.3076V7.38449H719V12.3076H721ZM721 2.46141V0H719V2.46141H721ZM720 -1H717.5V1H720V-1ZM712.5 -1H707.5V1H712.5V-1ZM702.5 -1H697.5V1H702.5V-1ZM692.5 -1H687.5V1H692.5V-1ZM682.5 -1H677.5V1H682.5V-1ZM672.5 -1H667.5V1H672.5V-1ZM662.5 -1H657.5V1H662.5V-1ZM652.5 -1H647.5V1H652.5V-1ZM642.5 -1H637.5V1H642.5V-1ZM632.5 -1H627.5V1H632.5V-1ZM622.5 -1H617.5V1H622.5V-1ZM612.5 -1H607.5V1H612.5V-1ZM602.5 -1H597.5V1H602.5V-1ZM592.5 -1H587.5V1H592.5V-1ZM582.5 -1H577.5V1H582.5V-1ZM572.5 -1H567.5V1H572.5V-1ZM562.5 -1H557.5V1H562.5V-1ZM552.5 -1H547.5V1H552.5V-1ZM542.5 -1H537.5V1H542.5V-1ZM532.5 -1H527.5V1H532.5V-1ZM522.5 -1H517.5V1H522.5V-1ZM512.5 -1H507.5V1H512.5V-1ZM502.5 -1H497.5V1H502.5V-1ZM492.5 -1H487.5V1H492.5V-1ZM482.5 -1H477.5V1H482.5V-1ZM472.5 -1H467.5V1H472.5V-1ZM462.5 -1H457.5V1H462.5V-1ZM452.5 -1H447.5V1H452.5V-1ZM442.5 -1H437.5V1H442.5V-1ZM432.5 -1H427.5V1H432.5V-1ZM422.5 -1H417.5V1H422.5V-1ZM412.5 -1H407.5V1H412.5V-1ZM402.5 -1H397.5V1H402.5V-1ZM392.5 -1H387.5V1H392.5V-1ZM382.5 -1H377.5V1H382.5V-1ZM372.5 -1H367.5V1H372.5V-1ZM362.5 -1H357.5V1H362.5V-1ZM352.5 -1H347.5V1H352.5V-1ZM342.5 -1H337.5V1H342.5V-1ZM332.5 -1H327.5V1H332.5V-1ZM322.5 -1H317.5V1H322.5V-1ZM312.5 -1H307.5V1H312.5V-1ZM302.5 -1H297.5V1H302.5V-1ZM292.5 -1H287.5V1H292.5V-1ZM282.5 -1H277.5V1H282.5V-1ZM272.5 -1H267.5V1H272.5V-1ZM262.5 -1H257.5V1H262.5V-1ZM252.5 -1H247.5V1H252.5V-1ZM242.5 -1H237.5V1H242.5V-1ZM232.5 -1H227.5V1H232.5V-1ZM222.5 -1H217.5V1H222.5V-1ZM212.5 -1H207.5V1H212.5V-1ZM202.5 -1H197.5V1H202.5V-1ZM192.5 -1H187.5V1H192.5V-1ZM182.5 -1H177.5V1H182.5V-1ZM172.5 -1H167.5V1H172.5V-1ZM162.5 -1H157.5V1H162.5V-1ZM152.5 -1H147.5V1H152.5V-1ZM142.5 -1H137.5V1H142.5V-1ZM132.5 -1H127.5V1H132.5V-1ZM122.5 -1H117.5V1H122.5V-1ZM112.5 -1H107.5V1H112.5V-1ZM102.5 -1H97.5V1H102.5V-1ZM92.5 -1H87.5V1H92.5V-1ZM82.5 -1H77.5V1H82.5V-1ZM72.5 -1H67.5V1H72.5V-1ZM62.5 -1H57.5V1H62.5V-1ZM52.5 -1H47.5V1H52.5V-1ZM42.5 -1H37.5V1H42.5V-1ZM32.5 -1H27.5V1H32.5V-1ZM22.5 -1H17.5V1H22.5V-1ZM12.5 -1H7.50001V1H12.5V-1ZM2.49999 -1H0V1H2.49999V-1Z" fill="#7F20D2"/>
<defs>
<clipPath id="clip0_5_1146">
<rect width="229.333" height="72" fill="white" transform="translate(0 48)"/>
</clipPath>
<clipPath id="clip1_5_1146">
<rect width="229.333" height="120" fill="white" transform="translate(245.333)"/>
</clipPath>
<clipPath id="clip2_5_1146">
<rect width="229.333" height="72" fill="white" transform="translate(0 184)"/>
</clipPath>
<clipPath id="clip3_5_1146">
<rect width="229.333" height="120" fill="white" transform="translate(245.333 136)"/>
</clipPath>
</defs>
</svg>
