<svg width="768" height="256" viewBox="0 0 768 256" fill="none" xmlns="http://www.w3.org/2000/svg">
<path d="M0 0H768V256H0V0Z" fill="#D9BCF2"/>
<rect x="0.5" y="48.5" width="83" height="71" fill="white"/>
<path d="M27.2168 91H25.7402V78.3965H27.2168V91ZM34.5205 90.9121C34.1807 91.0996 33.7324 91.1934 33.1758 91.1934C31.5996 91.1934 30.8115 90.3145 30.8115 88.5566V83.2305H29.2646V82H30.8115V79.8027L32.2529 79.3369V82H34.5205V83.2305H32.2529V88.3018C32.2529 88.9053 32.3555 89.3359 32.5605 89.5938C32.7656 89.8516 33.1055 89.9805 33.5801 89.9805C33.9434 89.9805 34.2568 89.8809 34.5205 89.6816V90.9121ZM43.6787 86.8604H37.3242C37.3477 87.8623 37.6172 88.6357 38.1328 89.1807C38.6484 89.7256 39.3574 89.998 40.2598 89.998C41.2734 89.998 42.2051 89.6641 43.0547 88.9961V90.3496C42.2637 90.9238 41.2178 91.2109 39.917 91.2109C38.6455 91.2109 37.6465 90.8037 36.9199 89.9893C36.1934 89.1689 35.8301 88.0176 35.8301 86.5352C35.8301 85.1348 36.2256 83.9951 37.0166 83.1162C37.8135 82.2314 38.8008 81.7891 39.9785 81.7891C41.1562 81.7891 42.0674 82.1699 42.7119 82.9316C43.3564 83.6934 43.6787 84.751 43.6787 86.1045V86.8604ZM42.2021 85.6387C42.1963 84.8066 41.9941 84.1592 41.5957 83.6963C41.2031 83.2334 40.6553 83.002 39.9521 83.002C39.2725 83.002 38.6953 83.2451 38.2207 83.7314C37.7461 84.2178 37.4531 84.8535 37.3418 85.6387H42.2021ZM58.6465 91H57.2051V85.832C57.2051 84.8359 57.0498 84.1152 56.7393 83.6699C56.4346 83.2246 55.9189 83.002 55.1924 83.002C54.5771 83.002 54.0527 83.2832 53.6191 83.8457C53.1914 84.4082 52.9775 85.082 52.9775 85.8672V91H51.5361V85.6562C51.5361 83.8867 50.8535 83.002 49.4883 83.002C48.8555 83.002 48.334 83.2686 47.9238 83.8018C47.5137 84.3291 47.3086 85.0176 47.3086 85.8672V91H45.8672V82H47.3086V83.4238H47.3438C47.9824 82.334 48.9141 81.7891 50.1387 81.7891C50.7539 81.7891 51.29 81.9619 51.7471 82.3076C52.2041 82.6475 52.5176 83.0957 52.6875 83.6523C53.3555 82.4102 54.3516 81.7891 55.6758 81.7891C57.6562 81.7891 58.6465 83.0107 58.6465 85.4541V91Z" fill="black"/>
<rect x="0.5" y="48.5" width="83" height="71" stroke="black" stroke-dasharray="5 5"/>
<g clip-path="url(#clip0_5_1219)">
<rect x="261.833" y="0.5" width="83" height="119" fill="white"/>
<path d="M288.55 67H287.074V54.3965H288.55V67ZM295.854 66.9121C295.514 67.0996 295.066 67.1934 294.509 67.1934C292.933 67.1934 292.145 66.3145 292.145 64.5566V59.2305H290.598V58H292.145V55.8027L293.586 55.3369V58H295.854V59.2305H293.586V64.3018C293.586 64.9053 293.689 65.3359 293.894 65.5938C294.099 65.8516 294.439 65.9805 294.914 65.9805C295.277 65.9805 295.59 65.8809 295.854 65.6816V66.9121ZM305.012 62.8604H298.658C298.681 63.8623 298.951 64.6357 299.466 65.1807C299.982 65.7256 300.691 65.998 301.593 65.998C302.607 65.998 303.539 65.6641 304.388 64.9961V66.3496C303.597 66.9238 302.551 67.2109 301.25 67.2109C299.979 67.2109 298.98 66.8037 298.253 65.9893C297.527 65.1689 297.164 64.0176 297.164 62.5352C297.164 61.1348 297.559 59.9951 298.35 59.1162C299.147 58.2314 300.134 57.7891 301.312 57.7891C302.49 57.7891 303.401 58.1699 304.045 58.9316C304.69 59.6934 305.012 60.751 305.012 62.1045V62.8604ZM303.536 61.6387C303.53 60.8066 303.328 60.1592 302.929 59.6963C302.537 59.2334 301.989 59.002 301.286 59.002C300.606 59.002 300.029 59.2451 299.554 59.7314C299.08 60.2178 298.787 60.8535 298.675 61.6387H303.536ZM319.98 67H318.539V61.832C318.539 60.8359 318.383 60.1152 318.073 59.6699C317.768 59.2246 317.252 59.002 316.526 59.002C315.911 59.002 315.386 59.2832 314.953 59.8457C314.525 60.4082 314.311 61.082 314.311 61.8672V67H312.87V61.6562C312.87 59.8867 312.187 59.002 310.822 59.002C310.189 59.002 309.667 59.2686 309.257 59.8018C308.847 60.3291 308.642 61.0176 308.642 61.8672V67H307.201V58H308.642V59.4238H308.677C309.316 58.334 310.248 57.7891 311.472 57.7891C312.087 57.7891 312.624 57.9619 313.081 58.3076C313.538 58.6475 313.851 59.0957 314.021 59.6523C314.689 58.4102 315.685 57.7891 317.009 57.7891C318.99 57.7891 319.98 59.0107 319.98 61.4541V67Z" fill="black"/>
<rect x="261.833" y="0.5" width="83" height="119" stroke="black" stroke-dasharray="5 5"/>
</g>
<g clip-path="url(#clip1_5_1219)">
<rect x="523.167" y="48.5" width="131" height="71" fill="white"/>
<path d="M573.883 91H572.407V78.3965H573.883V91ZM581.187 90.9121C580.847 91.0996 580.399 91.1934 579.842 91.1934C578.266 91.1934 577.478 90.3145 577.478 88.5566V83.2305H575.931V82H577.478V79.8027L578.919 79.3369V82H581.187V83.2305H578.919V88.3018C578.919 88.9053 579.022 89.3359 579.227 89.5938C579.432 89.8516 579.772 89.9805 580.247 89.9805C580.61 89.9805 580.923 89.8809 581.187 89.6816V90.9121ZM590.345 86.8604H583.991C584.014 87.8623 584.284 88.6357 584.799 89.1807C585.315 89.7256 586.024 89.998 586.926 89.998C587.94 89.998 588.872 89.6641 589.721 88.9961V90.3496C588.93 90.9238 587.884 91.2109 586.583 91.2109C585.312 91.2109 584.313 90.8037 583.586 89.9893C582.86 89.1689 582.497 88.0176 582.497 86.5352C582.497 85.1348 582.892 83.9951 583.683 83.1162C584.48 82.2314 585.467 81.7891 586.645 81.7891C587.823 81.7891 588.734 82.1699 589.378 82.9316C590.023 83.6934 590.345 84.751 590.345 86.1045V86.8604ZM588.869 85.6387C588.863 84.8066 588.661 84.1592 588.262 83.6963C587.87 83.2334 587.322 83.002 586.619 83.002C585.939 83.002 585.362 83.2451 584.887 83.7314C584.413 84.2178 584.12 84.8535 584.008 85.6387H588.869ZM605.313 91H603.872V85.832C603.872 84.8359 603.716 84.1152 603.406 83.6699C603.101 83.2246 602.585 83.002 601.859 83.002C601.244 83.002 600.719 83.2832 600.286 83.8457C599.858 84.4082 599.644 85.082 599.644 85.8672V91H598.203V85.6562C598.203 83.8867 597.52 83.002 596.155 83.002C595.522 83.002 595 83.2686 594.59 83.8018C594.18 84.3291 593.975 85.0176 593.975 85.8672V91H592.534V82H593.975V83.4238H594.01C594.649 82.334 595.581 81.7891 596.805 81.7891C597.42 81.7891 597.957 81.9619 598.414 82.3076C598.871 82.6475 599.184 83.0957 599.354 83.6523C600.022 82.4102 601.018 81.7891 602.342 81.7891C604.323 81.7891 605.313 83.0107 605.313 85.4541V91Z" fill="black"/>
<rect x="523.167" y="48.5" width="131" height="71" stroke="black" stroke-dasharray="5 5"/>
</g>
<rect x="0.5" y="184.5" width="83" height="71" fill="white"/>
<path d="M27.2168 227H25.7402V214.396H27.2168V227ZM34.5205 226.912C34.1807 227.1 33.7324 227.193 33.1758 227.193C31.5996 227.193 30.8115 226.314 30.8115 224.557V219.23H29.2646V218H30.8115V215.803L32.2529 215.337V218H34.5205V219.23H32.2529V224.302C32.2529 224.905 32.3555 225.336 32.5605 225.594C32.7656 225.852 33.1055 225.98 33.5801 225.98C33.9434 225.98 34.2568 225.881 34.5205 225.682V226.912ZM43.6787 222.86H37.3242C37.3477 223.862 37.6172 224.636 38.1328 225.181C38.6484 225.726 39.3574 225.998 40.2598 225.998C41.2734 225.998 42.2051 225.664 43.0547 224.996V226.35C42.2637 226.924 41.2178 227.211 39.917 227.211C38.6455 227.211 37.6465 226.804 36.9199 225.989C36.1934 225.169 35.8301 224.018 35.8301 222.535C35.8301 221.135 36.2256 219.995 37.0166 219.116C37.8135 218.231 38.8008 217.789 39.9785 217.789C41.1562 217.789 42.0674 218.17 42.7119 218.932C43.3564 219.693 43.6787 220.751 43.6787 222.104V222.86ZM42.2021 221.639C42.1963 220.807 41.9941 220.159 41.5957 219.696C41.2031 219.233 40.6553 219.002 39.9521 219.002C39.2725 219.002 38.6953 219.245 38.2207 219.731C37.7461 220.218 37.4531 220.854 37.3418 221.639H42.2021ZM58.6465 227H57.2051V221.832C57.2051 220.836 57.0498 220.115 56.7393 219.67C56.4346 219.225 55.9189 219.002 55.1924 219.002C54.5771 219.002 54.0527 219.283 53.6191 219.846C53.1914 220.408 52.9775 221.082 52.9775 221.867V227H51.5361V221.656C51.5361 219.887 50.8535 219.002 49.4883 219.002C48.8555 219.002 48.334 219.269 47.9238 219.802C47.5137 220.329 47.3086 221.018 47.3086 221.867V227H45.8672V218H47.3086V219.424H47.3438C47.9824 218.334 48.9141 217.789 50.1387 217.789C50.7539 217.789 51.29 217.962 51.7471 218.308C52.2041 218.647 52.5176 219.096 52.6875 219.652C53.3555 218.41 54.3516 217.789 55.6758 217.789C57.6562 217.789 58.6465 219.011 58.6465 221.454V227Z" fill="black"/>
<rect x="0.5" y="184.5" width="83" height="71" stroke="black" stroke-dasharray="5 5"/>
<g clip-path="url(#clip2_5_1219)">
<rect x="261.833" y="136.5" width="83" height="119" fill="white"/>
<path d="M288.55 203H287.074V190.396H288.55V203ZM295.854 202.912C295.514 203.1 295.066 203.193 294.509 203.193C292.933 203.193 292.145 202.314 292.145 200.557V195.23H290.598V194H292.145V191.803L293.586 191.337V194H295.854V195.23H293.586V200.302C293.586 200.905 293.689 201.336 293.894 201.594C294.099 201.852 294.439 201.98 294.914 201.98C295.277 201.98 295.59 201.881 295.854 201.682V202.912ZM305.012 198.86H298.658C298.681 199.862 298.951 200.636 299.466 201.181C299.982 201.726 300.691 201.998 301.593 201.998C302.607 201.998 303.539 201.664 304.388 200.996V202.35C303.597 202.924 302.551 203.211 301.25 203.211C299.979 203.211 298.98 202.804 298.253 201.989C297.527 201.169 297.164 200.018 297.164 198.535C297.164 197.135 297.559 195.995 298.35 195.116C299.147 194.231 300.134 193.789 301.312 193.789C302.49 193.789 303.401 194.17 304.045 194.932C304.69 195.693 305.012 196.751 305.012 198.104V198.86ZM303.536 197.639C303.53 196.807 303.328 196.159 302.929 195.696C302.537 195.233 301.989 195.002 301.286 195.002C300.606 195.002 300.029 195.245 299.554 195.731C299.08 196.218 298.787 196.854 298.675 197.639H303.536ZM319.98 203H318.539V197.832C318.539 196.836 318.383 196.115 318.073 195.67C317.768 195.225 317.252 195.002 316.526 195.002C315.911 195.002 315.386 195.283 314.953 195.846C314.525 196.408 314.311 197.082 314.311 197.867V203H312.87V197.656C312.87 195.887 312.187 195.002 310.822 195.002C310.189 195.002 309.667 195.269 309.257 195.802C308.847 196.329 308.642 197.018 308.642 197.867V203H307.201V194H308.642V195.424H308.677C309.316 194.334 310.248 193.789 311.472 193.789C312.087 193.789 312.624 193.962 313.081 194.308C313.538 194.647 313.851 195.096 314.021 195.652C314.689 194.41 315.685 193.789 317.009 193.789C318.99 193.789 319.98 195.011 319.98 197.454V203Z" fill="black"/>
<rect x="261.833" y="136.5" width="83" height="119" stroke="black" stroke-dasharray="5 5"/>
</g>
<g clip-path="url(#clip3_5_1219)">
<rect x="523.167" y="184.5" width="131" height="71" fill="white"/>
<path d="M573.883 227H572.407V214.396H573.883V227ZM581.187 226.912C580.847 227.1 580.399 227.193 579.842 227.193C578.266 227.193 577.478 226.314 577.478 224.557V219.23H575.931V218H577.478V215.803L578.919 215.337V218H581.187V219.23H578.919V224.302C578.919 224.905 579.022 225.336 579.227 225.594C579.432 225.852 579.772 225.98 580.247 225.98C580.61 225.98 580.923 225.881 581.187 225.682V226.912ZM590.345 222.86H583.991C584.014 223.862 584.284 224.636 584.799 225.181C585.315 225.726 586.024 225.998 586.926 225.998C587.94 225.998 588.872 225.664 589.721 224.996V226.35C588.93 226.924 587.884 227.211 586.583 227.211C585.312 227.211 584.313 226.804 583.586 225.989C582.86 225.169 582.497 224.018 582.497 222.535C582.497 221.135 582.892 219.995 583.683 219.116C584.48 218.231 585.467 217.789 586.645 217.789C587.823 217.789 588.734 218.17 589.378 218.932C590.023 219.693 590.345 220.751 590.345 222.104V222.86ZM588.869 221.639C588.863 220.807 588.661 220.159 588.262 219.696C587.87 219.233 587.322 219.002 586.619 219.002C585.939 219.002 585.362 219.245 584.887 219.731C584.413 220.218 584.12 220.854 584.008 221.639H588.869ZM605.313 227H603.872V221.832C603.872 220.836 603.716 220.115 603.406 219.67C603.101 219.225 602.585 219.002 601.859 219.002C601.244 219.002 600.719 219.283 600.286 219.846C599.858 220.408 599.644 221.082 599.644 221.867V227H598.203V221.656C598.203 219.887 597.52 219.002 596.155 219.002C595.522 219.002 595 219.269 594.59 219.802C594.18 220.329 593.975 221.018 593.975 221.867V227H592.534V218H593.975V219.424H594.01C594.649 218.334 595.581 217.789 596.805 217.789C597.42 217.789 597.957 217.962 598.414 218.308C598.871 218.647 599.184 219.096 599.354 219.652C600.022 218.41 601.018 217.789 602.342 217.789C604.323 217.789 605.313 219.011 605.313 221.454V227Z" fill="black"/>
<rect x="523.167" y="184.5" width="131" height="71" stroke="black" stroke-dasharray="5 5"/>
</g>
<path d="M0 0V-0.5H-0.5V0H0ZM768 0H768.5V-0.5H768V0ZM768 256V256.5H768.5V256H768ZM0 256H-0.5V256.5H0V256ZM-0.5 0V2.46154H0.5V0H-0.5ZM-0.5 7.38462V12.3077H0.5V7.38462H-0.5ZM-0.5 17.2308V22.1538H0.5V17.2308H-0.5ZM-0.5 27.0769V32H0.5V27.0769H-0.5ZM-0.5 36.9231V41.8462H0.5V36.9231H-0.5ZM-0.5 46.7692V51.6923H0.5V46.7692H-0.5ZM-0.5 56.6154V61.5385H0.5V56.6154H-0.5ZM-0.5 66.4615V71.3846H0.5V66.4615H-0.5ZM-0.5 76.3077V81.2308H0.5V76.3077H-0.5ZM-0.5 86.1539V91.0769H0.5V86.1539H-0.5ZM-0.5 96V100.923H0.5V96H-0.5ZM-0.5 105.846V110.769H0.5V105.846H-0.5ZM-0.5 115.692V120.615H0.5V115.692H-0.5ZM-0.5 125.539V130.462H0.5V125.539H-0.5ZM-0.5 135.385V140.308H0.5V135.385H-0.5ZM-0.5 145.231V150.154H0.5V145.231H-0.5ZM-0.5 155.077V160H0.5V155.077H-0.5ZM-0.5 164.923V169.846H0.5V164.923H-0.5ZM-0.5 174.769V179.692H0.5V174.769H-0.5ZM-0.5 184.615V189.539H0.5V184.615H-0.5ZM-0.5 194.462V199.385H0.5V194.462H-0.5ZM-0.5 204.308V209.231H0.5V204.308H-0.5ZM-0.5 214.154V219.077H0.5V214.154H-0.5ZM-0.5 224V228.923H0.5V224H-0.5ZM-0.5 233.846V238.769H0.5V233.846H-0.5ZM-0.5 243.692V248.616H0.5V243.692H-0.5ZM-0.5 253.539V256H0.5V253.539H-0.5ZM0 256.5H2.49351V255.5H0V256.5ZM7.48052 256.5H12.4675V255.5H7.48052V256.5ZM17.4545 256.5H22.4416V255.5H17.4545V256.5ZM27.4286 256.5H32.4156V255.5H27.4286V256.5ZM37.4026 256.5H42.3896V255.5H37.4026V256.5ZM47.3766 256.5H52.3636V255.5H47.3766V256.5ZM57.3507 256.5H62.3377V255.5H57.3507V256.5ZM67.3247 256.5H72.3117V255.5H67.3247V256.5ZM77.2987 256.5H82.2857V255.5H77.2987V256.5ZM87.2727 256.5H92.2598V255.5H87.2727V256.5ZM97.2468 256.5H102.234V255.5H97.2468V256.5ZM107.221 256.5H112.208V255.5H107.221V256.5ZM117.195 256.5H122.182V255.5H117.195V256.5ZM127.169 256.5H132.156V255.5H127.169V256.5ZM137.143 256.5H142.13V255.5H137.143V256.5ZM147.117 256.5H152.104V255.5H147.117V256.5ZM157.091 256.5H162.078V255.5H157.091V256.5ZM167.065 256.5H172.052V255.5H167.065V256.5ZM177.039 256.5H182.026V255.5H177.039V256.5ZM187.013 256.5H192V255.5H187.013V256.5ZM196.987 256.5H201.974V255.5H196.987V256.5ZM206.961 256.5H211.948V255.5H206.961V256.5ZM216.935 256.5H221.922V255.5H216.935V256.5ZM226.909 256.5H231.896V255.5H226.909V256.5ZM236.883 256.5H241.87V255.5H236.883V256.5ZM246.857 256.5H251.844V255.5H246.857V256.5ZM256.831 256.5H261.818V255.5H256.831V256.5ZM266.805 256.5H271.792V255.5H266.805V256.5ZM276.779 256.5H281.766V255.5H276.779V256.5ZM286.753 256.5H291.74V255.5H286.753V256.5ZM296.727 256.5H301.714V255.5H296.727V256.5ZM306.701 256.5H311.688V255.5H306.701V256.5ZM316.675 256.5H321.662V255.5H316.675V256.5ZM326.649 256.5H331.636V255.5H326.649V256.5ZM336.623 256.5H341.61V255.5H336.623V256.5ZM346.597 256.5H351.584V255.5H346.597V256.5ZM356.571 256.5H361.558V255.5H356.571V256.5ZM366.545 256.5H371.532V255.5H366.545V256.5ZM376.519 256.5H381.506V255.5H376.519V256.5ZM386.493 256.5H391.48V255.5H386.493V256.5ZM396.467 256.5H401.454V255.5H396.467V256.5ZM406.441 256.5H411.428V255.5H406.441V256.5ZM416.415 256.5H421.402V255.5H416.415V256.5ZM426.389 256.5H431.376V255.5H426.389V256.5ZM436.363 256.5H441.35V255.5H436.363V256.5ZM446.337 256.5H451.324V255.5H446.337V256.5ZM456.311 256.5H461.298V255.5H456.311V256.5ZM466.285 256.5H471.272V255.5H466.285V256.5ZM476.259 256.5H481.246V255.5H476.259V256.5ZM486.233 256.5H491.22V255.5H486.233V256.5ZM496.207 256.5H501.194V255.5H496.207V256.5ZM506.181 256.5H511.168V255.5H506.181V256.5ZM516.155 256.5H521.142V255.5H516.155V256.5ZM526.129 256.5H531.116V255.5H526.129V256.5ZM536.103 256.5H541.09V255.5H536.103V256.5ZM546.077 256.5H551.064V255.5H546.077V256.5ZM556.051 256.5H561.038V255.5H556.051V256.5ZM566.025 256.5H571.012V255.5H566.025V256.5ZM575.999 256.5H580.986V255.5H575.999V256.5ZM585.973 256.5H590.96V255.5H585.973V256.5ZM595.947 256.5H600.934V255.5H595.947V256.5ZM605.921 256.5H610.908V255.5H605.921V256.5ZM615.895 256.5H620.882V255.5H615.895V256.5ZM625.869 256.5H630.856V255.5H625.869V256.5ZM635.843 256.5H640.83V255.5H635.843V256.5ZM645.817 256.5H650.804V255.5H645.817V256.5ZM655.791 256.5H660.778V255.5H655.791V256.5ZM665.765 256.5H670.752V255.5H665.765V256.5ZM675.739 256.5H680.726V255.5H675.739V256.5ZM685.713 256.5H690.7V255.5H685.713V256.5ZM695.687 256.5H700.674V255.5H695.687V256.5ZM705.661 256.5H710.648V255.5H705.661V256.5ZM715.635 256.5H720.622V255.5H715.635V256.5ZM725.609 256.5H730.596V255.5H725.609V256.5ZM735.583 256.5H740.57V255.5H735.583V256.5ZM745.557 256.5H750.544V255.5H745.557V256.5ZM755.531 256.5H760.518V255.5H755.531V256.5ZM765.505 256.5H768V255.5H765.505V256.5ZM768.5 256V253.538H767.5V256H768.5ZM768.5 248.615V243.692H767.5V248.615H768.5ZM768.5 238.769V233.846H767.5V238.769H768.5ZM768.5 228.923V224H767.5V228.923H768.5ZM768.5 219.077V214.154H767.5V219.077H768.5ZM768.5 209.231V204.308H767.5V209.231H768.5ZM768.5 199.385V194.462H767.5V199.385H768.5ZM768.5 189.538V184.615H767.5V189.538H768.5ZM768.5 179.692V174.769H767.5V179.692H768.5ZM768.5 169.846V164.923H767.5V169.846H768.5ZM768.5 160V155.077H767.5V160H768.5ZM768.5 150.154V145.231H767.5V150.154H768.5ZM768.5 140.308V135.385H767.5V140.308H768.5ZM768.5 130.461V125.538H767.5V130.461H768.5ZM768.5 120.615V115.692H767.5V120.615H768.5ZM768.5 110.769V105.846H767.5V110.769H768.5ZM768.5 100.923V95.9999H767.5V100.923H768.5ZM768.5 91.0769V86.1538H767.5V91.0769H768.5ZM768.5 81.2307V76.3076H767.5V81.2307H768.5ZM768.5 71.3845V66.4615H767.5V71.3845H768.5ZM768.5 61.5384V56.6153H767.5V61.5384H768.5ZM768.5 51.6922V46.7691H767.5V51.6922H768.5ZM768.5 41.8461V36.923H767.5V41.8461H768.5ZM768.5 31.9999V27.0768H767.5V31.9999H768.5ZM768.5 22.1537V17.2307H767.5V22.1537H768.5ZM768.5 12.3076V7.38449H767.5V12.3076H768.5ZM768.5 2.46141V0H767.5V2.46141H768.5ZM768 -0.5H765.506V0.5H768V-0.5ZM760.519 -0.5H755.532V0.5H760.519V-0.5ZM750.545 -0.5H745.558V0.5H750.545V-0.5ZM740.571 -0.5H735.584V0.5H740.571V-0.5ZM730.597 -0.5H725.61V0.5H730.597V-0.5ZM720.623 -0.5H715.636V0.5H720.623V-0.5ZM710.649 -0.5H705.662V0.5H710.649V-0.5ZM700.675 -0.5H695.688V0.5H700.675V-0.5ZM690.701 -0.5H685.714V0.5H690.701V-0.5ZM680.727 -0.5H675.74V0.5H680.727V-0.5ZM670.753 -0.5H665.766V0.5H670.753V-0.5ZM660.779 -0.5H655.792V0.5H660.779V-0.5ZM650.805 -0.5H645.818V0.5H650.805V-0.5ZM640.831 -0.5H635.844V0.5H640.831V-0.5ZM630.857 -0.5H625.87V0.5H630.857V-0.5ZM620.883 -0.5H615.896V0.5H620.883V-0.5ZM610.909 -0.5H605.922V0.5H610.909V-0.5ZM600.935 -0.5H595.948V0.5H600.935V-0.5ZM590.961 -0.5H585.974V0.5H590.961V-0.5ZM580.987 -0.5H576V0.5H580.987V-0.5ZM571.013 -0.5H566.026V0.5H571.013V-0.5ZM561.039 -0.5H556.052V0.5H561.039V-0.5ZM551.065 -0.5H546.078V0.5H551.065V-0.5ZM541.091 -0.5H536.104V0.5H541.091V-0.5ZM531.117 -0.5H526.13V0.5H531.117V-0.5ZM521.143 -0.5H516.156V0.5H521.143V-0.5ZM511.169 -0.5H506.182V0.5H511.169V-0.5ZM501.195 -0.5H496.208V0.5H501.195V-0.5ZM491.221 -0.5H486.234V0.5H491.221V-0.5ZM481.247 -0.5H476.26V0.5H481.247V-0.5ZM471.273 -0.5H466.286V0.5H471.273V-0.5ZM461.299 -0.5H456.312V0.5H461.299V-0.5ZM451.325 -0.5H446.338V0.5H451.325V-0.5ZM441.351 -0.5H436.364V0.5H441.351V-0.5ZM431.377 -0.5H426.39V0.5H431.377V-0.5ZM421.403 -0.5H416.416V0.5H421.403V-0.5ZM411.429 -0.5H406.442V0.5H411.429V-0.5ZM401.455 -0.5H396.468V0.5H401.455V-0.5ZM391.481 -0.5H386.494V0.5H391.481V-0.5ZM381.507 -0.5H376.52V0.5H381.507V-0.5ZM371.533 -0.5H366.546V0.5H371.533V-0.5ZM361.559 -0.5H356.572V0.5H361.559V-0.5ZM351.585 -0.5H346.598V0.5H351.585V-0.5ZM341.611 -0.5H336.624V0.5H341.611V-0.5ZM331.637 -0.5H326.65V0.5H331.637V-0.5ZM321.663 -0.5H316.676V0.5H321.663V-0.5ZM311.689 -0.5H306.702V0.5H311.689V-0.5ZM301.715 -0.5H296.728V0.5H301.715V-0.5ZM291.741 -0.5H286.754V0.5H291.741V-0.5ZM281.767 -0.5H276.78V0.5H281.767V-0.5ZM271.793 -0.5H266.806V0.5H271.793V-0.5ZM261.819 -0.5H256.832V0.5H261.819V-0.5ZM251.845 -0.5H246.858V0.5H251.845V-0.5ZM241.871 -0.5H236.884V0.5H241.871V-0.5ZM231.897 -0.5H226.91V0.5H231.897V-0.5ZM221.923 -0.5H216.936V0.5H221.923V-0.5ZM211.949 -0.5H206.962V0.5H211.949V-0.5ZM201.975 -0.5H196.988V0.5H201.975V-0.5ZM192.001 -0.5H187.014V0.5H192.001V-0.5ZM182.027 -0.5H177.04V0.5H182.027V-0.5ZM172.053 -0.5H167.066V0.5H172.053V-0.5ZM162.079 -0.5H157.092V0.5H162.079V-0.5ZM152.105 -0.5H147.118V0.5H152.105V-0.5ZM142.131 -0.5H137.144V0.5H142.131V-0.5ZM132.157 -0.5H127.17V0.5H132.157V-0.5ZM122.183 -0.5H117.196V0.5H122.183V-0.5ZM112.209 -0.5H107.222V0.5H112.209V-0.5ZM102.235 -0.5H97.2478V0.5H102.235V-0.5ZM92.2608 -0.5H87.2738V0.5H92.2608V-0.5ZM82.2868 -0.5H77.2998V0.5H82.2868V-0.5ZM72.3128 -0.5H67.3258V0.5H72.3128V-0.5ZM62.3388 -0.5H57.3518V0.5H62.3388V-0.5ZM52.3648 -0.5H47.3778V0.5H52.3648V-0.5ZM42.3908 -0.5H37.4038V0.5H42.3908V-0.5ZM32.4168 -0.5H27.4298V0.5H32.4168V-0.5ZM22.4428 -0.5H17.4558V0.5H22.4428V-0.5ZM12.4688 -0.5H7.48183V0.5H12.4688V-0.5ZM2.49481 -0.5H0V0.5H2.49481V-0.5ZM0 0V-1H-1V0H0ZM768 0H769V-1H768V0ZM768 256V257H769V256H768ZM0 256H-1V257H0V256ZM-1 0V2.46154H1V0H-1ZM-1 7.38462V12.3077H1V7.38462H-1ZM-1 17.2308V22.1538H1V17.2308H-1ZM-1 27.0769V32H1V27.0769H-1ZM-1 36.9231V41.8462H1V36.9231H-1ZM-1 46.7692V51.6923H1V46.7692H-1ZM-1 56.6154V61.5385H1V56.6154H-1ZM-1 66.4615V71.3846H1V66.4615H-1ZM-1 76.3077V81.2308H1V76.3077H-1ZM-1 86.1539V91.0769H1V86.1539H-1ZM-1 96V100.923H1V96H-1ZM-1 105.846V110.769H1V105.846H-1ZM-1 115.692V120.615H1V115.692H-1ZM-1 125.539V130.462H1V125.539H-1ZM-1 135.385V140.308H1V135.385H-1ZM-1 145.231V150.154H1V145.231H-1ZM-1 155.077V160H1V155.077H-1ZM-1 164.923V169.846H1V164.923H-1ZM-1 174.769V179.692H1V174.769H-1ZM-1 184.615V189.539H1V184.615H-1ZM-1 194.462V199.385H1V194.462H-1ZM-1 204.308V209.231H1V204.308H-1ZM-1 214.154V219.077H1V214.154H-1ZM-1 224V228.923H1V224H-1ZM-1 233.846V238.769H1V233.846H-1ZM-1 243.692V248.616H1V243.692H-1ZM-1 253.539V256H1V253.539H-1ZM0 257H2.49351V255H0V257ZM7.48052 257H12.4675V255H7.48052V257ZM17.4545 257H22.4416V255H17.4545V257ZM27.4286 257H32.4156V255H27.4286V257ZM37.4026 257H42.3896V255H37.4026V257ZM47.3766 257H52.3636V255H47.3766V257ZM57.3507 257H62.3377V255H57.3507V257ZM67.3247 257H72.3117V255H67.3247V257ZM77.2987 257H82.2857V255H77.2987V257ZM87.2727 257H92.2598V255H87.2727V257ZM97.2468 257H102.234V255H97.2468V257ZM107.221 257H112.208V255H107.221V257ZM117.195 257H122.182V255H117.195V257ZM127.169 257H132.156V255H127.169V257ZM137.143 257H142.13V255H137.143V257ZM147.117 257H152.104V255H147.117V257ZM157.091 257H162.078V255H157.091V257ZM167.065 257H172.052V255H167.065V257ZM177.039 257H182.026V255H177.039V257ZM187.013 257H192V255H187.013V257ZM196.987 257H201.974V255H196.987V257ZM206.961 257H211.948V255H206.961V257ZM216.935 257H221.922V255H216.935V257ZM226.909 257H231.896V255H226.909V257ZM236.883 257H241.87V255H236.883V257ZM246.857 257H251.844V255H246.857V257ZM256.831 257H261.818V255H256.831V257ZM266.805 257H271.792V255H266.805V257ZM276.779 257H281.766V255H276.779V257ZM286.753 257H291.74V255H286.753V257ZM296.727 257H301.714V255H296.727V257ZM306.701 257H311.688V255H306.701V257ZM316.675 257H321.662V255H316.675V257ZM326.649 257H331.636V255H326.649V257ZM336.623 257H341.61V255H336.623V257ZM346.597 257H351.584V255H346.597V257ZM356.571 257H361.558V255H356.571V257ZM366.545 257H371.532V255H366.545V257ZM376.519 257H381.506V255H376.519V257ZM386.493 257H391.48V255H386.493V257ZM396.467 257H401.454V255H396.467V257ZM406.441 257H411.428V255H406.441V257ZM416.415 257H421.402V255H416.415V257ZM426.389 257H431.376V255H426.389V257ZM436.363 257H441.35V255H436.363V257ZM446.337 257H451.324V255H446.337V257ZM456.311 257H461.298V255H456.311V257ZM466.285 257H471.272V255H466.285V257ZM476.259 257H481.246V255H476.259V257ZM486.233 257H491.22V255H486.233V257ZM496.207 257H501.194V255H496.207V257ZM506.181 257H511.168V255H506.181V257ZM516.155 257H521.142V255H516.155V257ZM526.129 257H531.116V255H526.129V257ZM536.103 257H541.09V255H536.103V257ZM546.077 257H551.064V255H546.077V257ZM556.051 257H561.038V255H556.051V257ZM566.025 257H571.012V255H566.025V257ZM575.999 257H580.986V255H575.999V257ZM585.973 257H590.96V255H585.973V257ZM595.947 257H600.934V255H595.947V257ZM605.921 257H610.908V255H605.921V257ZM615.895 257H620.882V255H615.895V257ZM625.869 257H630.856V255H625.869V257ZM635.843 257H640.83V255H635.843V257ZM645.817 257H650.804V255H645.817V257ZM655.791 257H660.778V255H655.791V257ZM665.765 257H670.752V255H665.765V257ZM675.739 257H680.726V255H675.739V257ZM685.713 257H690.7V255H685.713V257ZM695.687 257H700.674V255H695.687V257ZM705.661 257H710.648V255H705.661V257ZM715.635 257H720.622V255H715.635V257ZM725.609 257H730.596V255H725.609V257ZM735.583 257H740.57V255H735.583V257ZM745.557 257H750.544V255H745.557V257ZM755.531 257H760.518V255H755.531V257ZM765.505 257H768V255H765.505V257ZM769 256V253.538H767V256H769ZM769 248.615V243.692H767V248.615H769ZM769 238.769V233.846H767V238.769H769ZM769 228.923V224H767V228.923H769ZM769 219.077V214.154H767V219.077H769ZM769 209.231V204.308H767V209.231H769ZM769 199.385V194.462H767V199.385H769ZM769 189.538V184.615H767V189.538H769ZM769 179.692V174.769H767V179.692H769ZM769 169.846V164.923H767V169.846H769ZM769 160V155.077H767V160H769ZM769 150.154V145.231H767V150.154H769ZM769 140.308V135.385H767V140.308H769ZM769 130.461V125.538H767V130.461H769ZM769 120.615V115.692H767V120.615H769ZM769 110.769V105.846H767V110.769H769ZM769 100.923V95.9999H767V100.923H769ZM769 91.0769V86.1538H767V91.0769H769ZM769 81.2307V76.3076H767V81.2307H769ZM769 71.3845V66.4615H767V71.3845H769ZM769 61.5384V56.6153H767V61.5384H769ZM769 51.6922V46.7691H767V51.6922H769ZM769 41.8461V36.923H767V41.8461H769ZM769 31.9999V27.0768H767V31.9999H769ZM769 22.1537V17.2307H767V22.1537H769ZM769 12.3076V7.38449H767V12.3076H769ZM769 2.46141V0H767V2.46141H769ZM768 -1H765.506V1H768V-1ZM760.519 -1H755.532V1H760.519V-1ZM750.545 -1H745.558V1H750.545V-1ZM740.571 -1H735.584V1H740.571V-1ZM730.597 -1H725.61V1H730.597V-1ZM720.623 -1H715.636V1H720.623V-1ZM710.649 -1H705.662V1H710.649V-1ZM700.675 -1H695.688V1H700.675V-1ZM690.701 -1H685.714V1H690.701V-1ZM680.727 -1H675.74V1H680.727V-1ZM670.753 -1H665.766V1H670.753V-1ZM660.779 -1H655.792V1H660.779V-1ZM650.805 -1H645.818V1H650.805V-1ZM640.831 -1H635.844V1H640.831V-1ZM630.857 -1H625.87V1H630.857V-1ZM620.883 -1H615.896V1H620.883V-1ZM610.909 -1H605.922V1H610.909V-1ZM600.935 -1H595.948V1H600.935V-1ZM590.961 -1H585.974V1H590.961V-1ZM580.987 -1H576V1H580.987V-1ZM571.013 -1H566.026V1H571.013V-1ZM561.039 -1H556.052V1H561.039V-1ZM551.065 -1H546.078V1H551.065V-1ZM541.091 -1H536.104V1H541.091V-1ZM531.117 -1H526.13V1H531.117V-1ZM521.143 -1H516.156V1H521.143V-1ZM511.169 -1H506.182V1H511.169V-1ZM501.195 -1H496.208V1H501.195V-1ZM491.221 -1H486.234V1H491.221V-1ZM481.247 -1H476.26V1H481.247V-1ZM471.273 -1H466.286V1H471.273V-1ZM461.299 -1H456.312V1H461.299V-1ZM451.325 -1H446.338V1H451.325V-1ZM441.351 -1H436.364V1H441.351V-1ZM431.377 -1H426.39V1H431.377V-1ZM421.403 -1H416.416V1H421.403V-1ZM411.429 -1H406.442V1H411.429V-1ZM401.455 -1H396.468V1H401.455V-1ZM391.481 -1H386.494V1H391.481V-1ZM381.507 -1H376.52V1H381.507V-1ZM371.533 -1H366.546V1H371.533V-1ZM361.559 -1H356.572V1H361.559V-1ZM351.585 -1H346.598V1H351.585V-1ZM341.611 -1H336.624V1H341.611V-1ZM331.637 -1H326.65V1H331.637V-1ZM321.663 -1H316.676V1H321.663V-1ZM311.689 -1H306.702V1H311.689V-1ZM301.715 -1H296.728V1H301.715V-1ZM291.741 -1H286.754V1H291.741V-1ZM281.767 -1H276.78V1H281.767V-1ZM271.793 -1H266.806V1H271.793V-1ZM261.819 -1H256.832V1H261.819V-1ZM251.845 -1H246.858V1H251.845V-1ZM241.871 -1H236.884V1H241.871V-1ZM231.897 -1H226.91V1H231.897V-1ZM221.923 -1H216.936V1H221.923V-1ZM211.949 -1H206.962V1H211.949V-1ZM201.975 -1H196.988V1H201.975V-1ZM192.001 -1H187.014V1H192.001V-1ZM182.027 -1H177.04V1H182.027V-1ZM172.053 -1H167.066V1H172.053V-1ZM162.079 -1H157.092V1H162.079V-1ZM152.105 -1H147.118V1H152.105V-1ZM142.131 -1H137.144V1H142.131V-1ZM132.157 -1H127.17V1H132.157V-1ZM122.183 -1H117.196V1H122.183V-1ZM112.209 -1H107.222V1H112.209V-1ZM102.235 -1H97.2478V1H102.235V-1ZM92.2608 -1H87.2738V1H92.2608V-1ZM82.2868 -1H77.2998V1H82.2868V-1ZM72.3128 -1H67.3258V1H72.3128V-1ZM62.3388 -1H57.3518V1H62.3388V-1ZM52.3648 -1H47.3778V1H52.3648V-1ZM42.3908 -1H37.4038V1H42.3908V-1ZM32.4168 -1H27.4298V1H32.4168V-1ZM22.4428 -1H17.4558V1H22.4428V-1ZM12.4688 -1H7.48183V1H12.4688V-1ZM2.49481 -1H0V1H2.49481V-1Z" fill="#7F20D2"/>
<defs>
<clipPath id="clip0_5_1219">
<rect width="245.333" height="120" fill="white" transform="translate(261.333)"/>
</clipPath>
<clipPath id="clip1_5_1219">
<rect width="245.333" height="72" fill="white" transform="translate(522.667 48)"/>
</clipPath>
<clipPath id="clip2_5_1219">
<rect width="245.333" height="120" fill="white" transform="translate(261.333 136)"/>
</clipPath>
<clipPath id="clip3_5_1219">
<rect width="245.333" height="72" fill="white" transform="translate(522.667 184)"/>
</clipPath>
</defs>
</svg>
