<svg width="720" height="250" viewBox="0 0 720 250" fill="none" xmlns="http://www.w3.org/2000/svg">
<path d="M0 0H720V250H0V0Z" fill="#D9BCF2"/>
<rect x="0.5" y="48.5" width="79" height="68" fill="white"/>
<path d="M26.8594 89H25.5469V77.7969H26.8594V89ZM33.3516 88.9219C33.0495 89.0885 32.651 89.1719 32.1562 89.1719C30.7552 89.1719 30.0547 88.3906 30.0547 86.8281V82.0938H28.6797V81H30.0547V79.0469L31.3359 78.6328V81H33.3516V82.0938H31.3359V86.6016C31.3359 87.138 31.4271 87.5208 31.6094 87.75C31.7917 87.9792 32.0938 88.0938 32.5156 88.0938C32.8385 88.0938 33.1172 88.0052 33.3516 87.8281V88.9219ZM41.4922 85.3203H35.8438C35.8646 86.2109 36.1042 86.8984 36.5625 87.3828C37.0208 87.8672 37.651 88.1094 38.4531 88.1094C39.3542 88.1094 40.1823 87.8125 40.9375 87.2188V88.4219C40.2344 88.9323 39.3047 89.1875 38.1484 89.1875C37.0182 89.1875 36.1302 88.8255 35.4844 88.1016C34.8385 87.3724 34.5156 86.349 34.5156 85.0312C34.5156 83.7865 34.8672 82.7734 35.5703 81.9922C36.2786 81.2057 37.1562 80.8125 38.2031 80.8125C39.25 80.8125 40.0599 81.151 40.6328 81.8281C41.2057 82.5052 41.4922 83.4453 41.4922 84.6484V85.3203ZM40.1797 84.2344C40.1745 83.4948 39.9948 82.9193 39.6406 82.5078C39.2917 82.0964 38.8047 81.8906 38.1797 81.8906C37.5755 81.8906 37.0625 82.1068 36.6406 82.5391C36.2188 82.9714 35.9583 83.5365 35.8594 84.2344H40.1797ZM54.7969 89H53.5156V84.4062C53.5156 83.5208 53.3776 82.8802 53.1016 82.4844C52.8307 82.0885 52.3724 81.8906 51.7266 81.8906C51.1797 81.8906 50.7135 82.1406 50.3281 82.6406C49.9479 83.1406 49.7578 83.7396 49.7578 84.4375V89H48.4766V84.25C48.4766 82.6771 47.8698 81.8906 46.6562 81.8906C46.0938 81.8906 45.6302 82.1276 45.2656 82.6016C44.901 83.0703 44.7188 83.6823 44.7188 84.4375V89H43.4375V81H44.7188V82.2656H44.75C45.3177 81.2969 46.1458 80.8125 47.2344 80.8125C47.7812 80.8125 48.2578 80.9661 48.6641 81.2734C49.0703 81.5755 49.349 81.974 49.5 82.4688C50.0938 81.3646 50.9792 80.8125 52.1562 80.8125C53.9167 80.8125 54.7969 81.8984 54.7969 84.0703V89Z" fill="black"/>
<rect x="0.5" y="48.5" width="79" height="68" stroke="black" stroke-dasharray="5 5"/>
<g clip-path="url(#clip0_54_577)">
<rect x="245.833" y="0.5" width="79" height="116" fill="white"/>
<path d="M272.193 65H270.88V53.7969H272.193V65ZM278.685 64.9219C278.383 65.0885 277.985 65.1719 277.49 65.1719C276.089 65.1719 275.388 64.3906 275.388 62.8281V58.0938H274.013V57H275.388V55.0469L276.669 54.6328V57H278.685V58.0938H276.669V62.6016C276.669 63.138 276.761 63.5208 276.943 63.75C277.125 63.9792 277.427 64.0938 277.849 64.0938C278.172 64.0938 278.451 64.0052 278.685 63.8281V64.9219ZM286.826 61.3203H281.177C281.198 62.2109 281.438 62.8984 281.896 63.3828C282.354 63.8672 282.985 64.1094 283.787 64.1094C284.688 64.1094 285.516 63.8125 286.271 63.2188V64.4219C285.568 64.9323 284.638 65.1875 283.482 65.1875C282.352 65.1875 281.464 64.8255 280.818 64.1016C280.172 63.3724 279.849 62.349 279.849 61.0312C279.849 59.7865 280.201 58.7734 280.904 57.9922C281.612 57.2057 282.49 56.8125 283.537 56.8125C284.583 56.8125 285.393 57.151 285.966 57.8281C286.539 58.5052 286.826 59.4453 286.826 60.6484V61.3203ZM285.513 60.2344C285.508 59.4948 285.328 58.9193 284.974 58.5078C284.625 58.0964 284.138 57.8906 283.513 57.8906C282.909 57.8906 282.396 58.1068 281.974 58.5391C281.552 58.9714 281.292 59.5365 281.193 60.2344H285.513ZM300.13 65H298.849V60.4062C298.849 59.5208 298.711 58.8802 298.435 58.4844C298.164 58.0885 297.706 57.8906 297.06 57.8906C296.513 57.8906 296.047 58.1406 295.662 58.6406C295.281 59.1406 295.091 59.7396 295.091 60.4375V65H293.81V60.25C293.81 58.6771 293.203 57.8906 291.99 57.8906C291.427 57.8906 290.964 58.1276 290.599 58.6016C290.235 59.0703 290.052 59.6823 290.052 60.4375V65H288.771V57H290.052V58.2656H290.083C290.651 57.2969 291.479 56.8125 292.568 56.8125C293.115 56.8125 293.591 56.9661 293.998 57.2734C294.404 57.5755 294.682 57.974 294.833 58.4688C295.427 57.3646 296.313 56.8125 297.49 56.8125C299.25 56.8125 300.13 57.8984 300.13 60.0703V65Z" fill="black"/>
<rect x="245.833" y="0.5" width="79" height="116" stroke="black" stroke-dasharray="5 5"/>
</g>
<g clip-path="url(#clip1_54_577)">
<rect x="491.167" y="48.5" width="127" height="68" fill="white"/>
<path d="M541.526 89H540.213V77.7969H541.526V89ZM548.018 88.9219C547.716 89.0885 547.318 89.1719 546.823 89.1719C545.422 89.1719 544.721 88.3906 544.721 86.8281V82.0938H543.346V81H544.721V79.0469L546.002 78.6328V81H548.018V82.0938H546.002V86.6016C546.002 87.138 546.094 87.5208 546.276 87.75C546.458 87.9792 546.76 88.0938 547.182 88.0938C547.505 88.0938 547.784 88.0052 548.018 87.8281V88.9219ZM556.159 85.3203H550.51C550.531 86.2109 550.771 86.8984 551.229 87.3828C551.687 87.8672 552.318 88.1094 553.12 88.1094C554.021 88.1094 554.849 87.8125 555.604 87.2188V88.4219C554.901 88.9323 553.971 89.1875 552.815 89.1875C551.685 89.1875 550.797 88.8255 550.151 88.1016C549.505 87.3724 549.182 86.349 549.182 85.0312C549.182 83.7865 549.534 82.7734 550.237 81.9922C550.945 81.2057 551.823 80.8125 552.87 80.8125C553.917 80.8125 554.726 81.151 555.299 81.8281C555.872 82.5052 556.159 83.4453 556.159 84.6484V85.3203ZM554.846 84.2344C554.841 83.4948 554.661 82.9193 554.307 82.5078C553.958 82.0964 553.471 81.8906 552.846 81.8906C552.242 81.8906 551.729 82.1068 551.307 82.5391C550.885 82.9714 550.625 83.5365 550.526 84.2344H554.846ZM569.463 89H568.182V84.4062C568.182 83.5208 568.044 82.8802 567.768 82.4844C567.497 82.0885 567.039 81.8906 566.393 81.8906C565.846 81.8906 565.38 82.1406 564.995 82.6406C564.614 83.1406 564.424 83.7396 564.424 84.4375V89H563.143V84.25C563.143 82.6771 562.536 81.8906 561.323 81.8906C560.76 81.8906 560.297 82.1276 559.932 82.6016C559.568 83.0703 559.385 83.6823 559.385 84.4375V89H558.104V81H559.385V82.2656H559.417C559.984 81.2969 560.812 80.8125 561.901 80.8125C562.448 80.8125 562.924 80.9661 563.331 81.2734C563.737 81.5755 564.015 81.974 564.167 82.4688C564.76 81.3646 565.646 80.8125 566.823 80.8125C568.583 80.8125 569.463 81.8984 569.463 84.0703V89Z" fill="black"/>
<rect x="491.167" y="48.5" width="127" height="68" stroke="black" stroke-dasharray="5 5"/>
</g>
<rect x="0.5" y="181.5" width="79" height="68" fill="white"/>
<path d="M26.8594 222H25.5469V210.797H26.8594V222ZM33.3516 221.922C33.0495 222.089 32.651 222.172 32.1562 222.172C30.7552 222.172 30.0547 221.391 30.0547 219.828V215.094H28.6797V214H30.0547V212.047L31.3359 211.633V214H33.3516V215.094H31.3359V219.602C31.3359 220.138 31.4271 220.521 31.6094 220.75C31.7917 220.979 32.0938 221.094 32.5156 221.094C32.8385 221.094 33.1172 221.005 33.3516 220.828V221.922ZM41.4922 218.32H35.8438C35.8646 219.211 36.1042 219.898 36.5625 220.383C37.0208 220.867 37.651 221.109 38.4531 221.109C39.3542 221.109 40.1823 220.812 40.9375 220.219V221.422C40.2344 221.932 39.3047 222.188 38.1484 222.188C37.0182 222.188 36.1302 221.826 35.4844 221.102C34.8385 220.372 34.5156 219.349 34.5156 218.031C34.5156 216.786 34.8672 215.773 35.5703 214.992C36.2786 214.206 37.1562 213.812 38.2031 213.812C39.25 213.812 40.0599 214.151 40.6328 214.828C41.2057 215.505 41.4922 216.445 41.4922 217.648V218.32ZM40.1797 217.234C40.1745 216.495 39.9948 215.919 39.6406 215.508C39.2917 215.096 38.8047 214.891 38.1797 214.891C37.5755 214.891 37.0625 215.107 36.6406 215.539C36.2188 215.971 35.9583 216.536 35.8594 217.234H40.1797ZM54.7969 222H53.5156V217.406C53.5156 216.521 53.3776 215.88 53.1016 215.484C52.8307 215.089 52.3724 214.891 51.7266 214.891C51.1797 214.891 50.7135 215.141 50.3281 215.641C49.9479 216.141 49.7578 216.74 49.7578 217.438V222H48.4766V217.25C48.4766 215.677 47.8698 214.891 46.6562 214.891C46.0938 214.891 45.6302 215.128 45.2656 215.602C44.901 216.07 44.7188 216.682 44.7188 217.438V222H43.4375V214H44.7188V215.266H44.75C45.3177 214.297 46.1458 213.812 47.2344 213.812C47.7812 213.812 48.2578 213.966 48.6641 214.273C49.0703 214.576 49.349 214.974 49.5 215.469C50.0938 214.365 50.9792 213.812 52.1562 213.812C53.9167 213.812 54.7969 214.898 54.7969 217.07V222Z" fill="black"/>
<rect x="0.5" y="181.5" width="79" height="68" stroke="black" stroke-dasharray="5 5"/>
<g clip-path="url(#clip2_54_577)">
<rect x="245.833" y="133.5" width="79" height="116" fill="white"/>
<path d="M272.193 198H270.88V186.797H272.193V198ZM278.685 197.922C278.383 198.089 277.985 198.172 277.49 198.172C276.089 198.172 275.388 197.391 275.388 195.828V191.094H274.013V190H275.388V188.047L276.669 187.633V190H278.685V191.094H276.669V195.602C276.669 196.138 276.761 196.521 276.943 196.75C277.125 196.979 277.427 197.094 277.849 197.094C278.172 197.094 278.451 197.005 278.685 196.828V197.922ZM286.826 194.32H281.177C281.198 195.211 281.438 195.898 281.896 196.383C282.354 196.867 282.985 197.109 283.787 197.109C284.688 197.109 285.516 196.812 286.271 196.219V197.422C285.568 197.932 284.638 198.188 283.482 198.188C282.352 198.188 281.464 197.826 280.818 197.102C280.172 196.372 279.849 195.349 279.849 194.031C279.849 192.786 280.201 191.773 280.904 190.992C281.612 190.206 282.49 189.812 283.537 189.812C284.583 189.812 285.393 190.151 285.966 190.828C286.539 191.505 286.826 192.445 286.826 193.648V194.32ZM285.513 193.234C285.508 192.495 285.328 191.919 284.974 191.508C284.625 191.096 284.138 190.891 283.513 190.891C282.909 190.891 282.396 191.107 281.974 191.539C281.552 191.971 281.292 192.536 281.193 193.234H285.513ZM300.13 198H298.849V193.406C298.849 192.521 298.711 191.88 298.435 191.484C298.164 191.089 297.706 190.891 297.06 190.891C296.513 190.891 296.047 191.141 295.662 191.641C295.281 192.141 295.091 192.74 295.091 193.438V198H293.81V193.25C293.81 191.677 293.203 190.891 291.99 190.891C291.427 190.891 290.964 191.128 290.599 191.602C290.235 192.07 290.052 192.682 290.052 193.438V198H288.771V190H290.052V191.266H290.083C290.651 190.297 291.479 189.812 292.568 189.812C293.115 189.812 293.591 189.966 293.998 190.273C294.404 190.576 294.682 190.974 294.833 191.469C295.427 190.365 296.313 189.812 297.49 189.812C299.25 189.812 300.13 190.898 300.13 193.07V198Z" fill="black"/>
<rect x="245.833" y="133.5" width="79" height="116" stroke="black" stroke-dasharray="5 5"/>
</g>
<g clip-path="url(#clip3_54_577)">
<rect x="491.167" y="181.5" width="127" height="68" fill="white"/>
<path d="M541.526 222H540.213V210.797H541.526V222ZM548.018 221.922C547.716 222.089 547.318 222.172 546.823 222.172C545.422 222.172 544.721 221.391 544.721 219.828V215.094H543.346V214H544.721V212.047L546.002 211.633V214H548.018V215.094H546.002V219.602C546.002 220.138 546.094 220.521 546.276 220.75C546.458 220.979 546.76 221.094 547.182 221.094C547.505 221.094 547.784 221.005 548.018 220.828V221.922ZM556.159 218.32H550.51C550.531 219.211 550.771 219.898 551.229 220.383C551.687 220.867 552.318 221.109 553.12 221.109C554.021 221.109 554.849 220.812 555.604 220.219V221.422C554.901 221.932 553.971 222.188 552.815 222.188C551.685 222.188 550.797 221.826 550.151 221.102C549.505 220.372 549.182 219.349 549.182 218.031C549.182 216.786 549.534 215.773 550.237 214.992C550.945 214.206 551.823 213.812 552.87 213.812C553.917 213.812 554.726 214.151 555.299 214.828C555.872 215.505 556.159 216.445 556.159 217.648V218.32ZM554.846 217.234C554.841 216.495 554.661 215.919 554.307 215.508C553.958 215.096 553.471 214.891 552.846 214.891C552.242 214.891 551.729 215.107 551.307 215.539C550.885 215.971 550.625 216.536 550.526 217.234H554.846ZM569.463 222H568.182V217.406C568.182 216.521 568.044 215.88 567.768 215.484C567.497 215.089 567.039 214.891 566.393 214.891C565.846 214.891 565.38 215.141 564.995 215.641C564.614 216.141 564.424 216.74 564.424 217.438V222H563.143V217.25C563.143 215.677 562.536 214.891 561.323 214.891C560.76 214.891 560.297 215.128 559.932 215.602C559.568 216.07 559.385 216.682 559.385 217.438V222H558.104V214H559.385V215.266H559.417C559.984 214.297 560.812 213.812 561.901 213.812C562.448 213.812 562.924 213.966 563.331 214.273C563.737 214.576 564.015 214.974 564.167 215.469C564.76 214.365 565.646 213.812 566.823 213.812C568.583 213.812 569.463 214.898 569.463 217.07V222Z" fill="black"/>
<rect x="491.167" y="181.5" width="127" height="68" stroke="black" stroke-dasharray="5 5"/>
</g>
<path d="M0 0V-0.5H-0.5V0H0ZM720 0H720.5V-0.5H720V0ZM720 250V250.5H720.5V250H720ZM0 250H-0.5V250.5H0V250ZM-0.5 0V2.5H0.5V0H-0.5ZM-0.5 7.5V12.5H0.5V7.5H-0.5ZM-0.5 17.5V22.5H0.5V17.5H-0.5ZM-0.5 27.5V32.5H0.5V27.5H-0.5ZM-0.5 37.5V42.5H0.5V37.5H-0.5ZM-0.5 47.5V52.5H0.5V47.5H-0.5ZM-0.5 57.5V62.5H0.5V57.5H-0.5ZM-0.5 67.5V72.5H0.5V67.5H-0.5ZM-0.5 77.5V82.5H0.5V77.5H-0.5ZM-0.5 87.5V92.5H0.5V87.5H-0.5ZM-0.5 97.5V102.5H0.5V97.5H-0.5ZM-0.5 107.5V112.5H0.5V107.5H-0.5ZM-0.5 117.5V122.5H0.5V117.5H-0.5ZM-0.5 127.5V132.5H0.5V127.5H-0.5ZM-0.5 137.5V142.5H0.5V137.5H-0.5ZM-0.5 147.5V152.5H0.5V147.5H-0.5ZM-0.5 157.5V162.5H0.5V157.5H-0.5ZM-0.5 167.5V172.5H0.5V167.5H-0.5ZM-0.5 177.5V182.5H0.5V177.5H-0.5ZM-0.5 187.5V192.5H0.5V187.5H-0.5ZM-0.5 197.5V202.5H0.5V197.5H-0.5ZM-0.5 207.5V212.5H0.5V207.5H-0.5ZM-0.5 217.5V222.5H0.5V217.5H-0.5ZM-0.5 227.5V232.5H0.5V227.5H-0.5ZM-0.5 237.5V242.5H0.5V237.5H-0.5ZM-0.5 247.5V250H0.5V247.5H-0.5ZM0 250.5H2.5V249.5H0V250.5ZM7.5 250.5H12.5V249.5H7.5V250.5ZM17.5 250.5H22.5V249.5H17.5V250.5ZM27.5 250.5H32.5V249.5H27.5V250.5ZM37.5 250.5H42.5V249.5H37.5V250.5ZM47.5 250.5H52.5V249.5H47.5V250.5ZM57.5 250.5H62.5V249.5H57.5V250.5ZM67.5 250.5H72.5V249.5H67.5V250.5ZM77.5 250.5H82.5V249.5H77.5V250.5ZM87.5 250.5H92.5V249.5H87.5V250.5ZM97.5 250.5H102.5V249.5H97.5V250.5ZM107.5 250.5H112.5V249.5H107.5V250.5ZM117.5 250.5H122.5V249.5H117.5V250.5ZM127.5 250.5H132.5V249.5H127.5V250.5ZM137.5 250.5H142.5V249.5H137.5V250.5ZM147.5 250.5H152.5V249.5H147.5V250.5ZM157.5 250.5H162.5V249.5H157.5V250.5ZM167.5 250.5H172.5V249.5H167.5V250.5ZM177.5 250.5H182.5V249.5H177.5V250.5ZM187.5 250.5H192.5V249.5H187.5V250.5ZM197.5 250.5H202.5V249.5H197.5V250.5ZM207.5 250.5H212.5V249.5H207.5V250.5ZM217.5 250.5H222.5V249.5H217.5V250.5ZM227.5 250.5H232.5V249.5H227.5V250.5ZM237.5 250.5H242.5V249.5H237.5V250.5ZM247.5 250.5H252.5V249.5H247.5V250.5ZM257.5 250.5H262.5V249.5H257.5V250.5ZM267.5 250.5H272.5V249.5H267.5V250.5ZM277.5 250.5H282.5V249.5H277.5V250.5ZM287.5 250.5H292.5V249.5H287.5V250.5ZM297.5 250.5H302.5V249.5H297.5V250.5ZM307.5 250.5H312.5V249.5H307.5V250.5ZM317.5 250.5H322.5V249.5H317.5V250.5ZM327.5 250.5H332.5V249.5H327.5V250.5ZM337.5 250.5H342.5V249.5H337.5V250.5ZM347.5 250.5H352.5V249.5H347.5V250.5ZM357.5 250.5H362.5V249.5H357.5V250.5ZM367.5 250.5H372.5V249.5H367.5V250.5ZM377.5 250.5H382.5V249.5H377.5V250.5ZM387.5 250.5H392.5V249.5H387.5V250.5ZM397.5 250.5H402.5V249.5H397.5V250.5ZM407.5 250.5H412.5V249.5H407.5V250.5ZM417.5 250.5H422.5V249.5H417.5V250.5ZM427.5 250.5H432.5V249.5H427.5V250.5ZM437.5 250.5H442.5V249.5H437.5V250.5ZM447.5 250.5H452.5V249.5H447.5V250.5ZM457.5 250.5H462.5V249.5H457.5V250.5ZM467.5 250.5H472.5V249.5H467.5V250.5ZM477.5 250.5H482.5V249.5H477.5V250.5ZM487.5 250.5H492.5V249.5H487.5V250.5ZM497.5 250.5H502.5V249.5H497.5V250.5ZM507.5 250.5H512.5V249.5H507.5V250.5ZM517.5 250.5H522.5V249.5H517.5V250.5ZM527.5 250.5H532.5V249.5H527.5V250.5ZM537.5 250.5H542.5V249.5H537.5V250.5ZM547.5 250.5H552.5V249.5H547.5V250.5ZM557.5 250.5H562.5V249.5H557.5V250.5ZM567.5 250.5H572.5V249.5H567.5V250.5ZM577.5 250.5H582.5V249.5H577.5V250.5ZM587.5 250.5H592.5V249.5H587.5V250.5ZM597.5 250.5H602.5V249.5H597.5V250.5ZM607.5 250.5H612.5V249.5H607.5V250.5ZM617.5 250.5H622.5V249.5H617.5V250.5ZM627.5 250.5H632.5V249.5H627.5V250.5ZM637.5 250.5H642.5V249.5H637.5V250.5ZM647.5 250.5H652.5V249.5H647.5V250.5ZM657.5 250.5H662.5V249.5H657.5V250.5ZM667.5 250.5H672.5V249.5H667.5V250.5ZM677.5 250.5H682.5V249.5H677.5V250.5ZM687.5 250.5H692.5V249.5H687.5V250.5ZM697.5 250.5H702.5V249.5H697.5V250.5ZM707.5 250.5H712.5V249.5H707.5V250.5ZM717.5 250.5H720V249.5H717.5V250.5ZM720.5 250V247.5H719.5V250H720.5ZM720.5 242.5V237.5H719.5V242.5H720.5ZM720.5 232.5V227.5H719.5V232.5H720.5ZM720.5 222.5V217.5H719.5V222.5H720.5ZM720.5 212.5V207.5H719.5V212.5H720.5ZM720.5 202.5V197.5H719.5V202.5H720.5ZM720.5 192.5V187.5H719.5V192.5H720.5ZM720.5 182.5V177.5H719.5V182.5H720.5ZM720.5 172.5V167.5H719.5V172.5H720.5ZM720.5 162.5V157.5H719.5V162.5H720.5ZM720.5 152.5V147.5H719.5V152.5H720.5ZM720.5 142.5V137.5H719.5V142.5H720.5ZM720.5 132.5V127.5H719.5V132.5H720.5ZM720.5 122.5V117.5H719.5V122.5H720.5ZM720.5 112.5V107.5H719.5V112.5H720.5ZM720.5 102.5V97.5H719.5V102.5H720.5ZM720.5 92.5V87.5H719.5V92.5H720.5ZM720.5 82.5V77.5H719.5V82.5H720.5ZM720.5 72.5V67.5H719.5V72.5H720.5ZM720.5 62.5V57.5H719.5V62.5H720.5ZM720.5 52.5V47.5H719.5V52.5H720.5ZM720.5 42.5V37.5H719.5V42.5H720.5ZM720.5 32.5V27.5H719.5V32.5H720.5ZM720.5 22.5V17.5H719.5V22.5H720.5ZM720.5 12.5V7.49999H719.5V12.5H720.5ZM720.5 2.5V0H719.5V2.5H720.5ZM720 -0.5H717.5V0.5H720V-0.5ZM712.5 -0.5H707.5V0.5H712.5V-0.5ZM702.5 -0.5H697.5V0.5H702.5V-0.5ZM692.5 -0.5H687.5V0.5H692.5V-0.5ZM682.5 -0.5H677.5V0.5H682.5V-0.5ZM672.5 -0.5H667.5V0.5H672.5V-0.5ZM662.5 -0.5H657.5V0.5H662.5V-0.5ZM652.5 -0.5H647.5V0.5H652.5V-0.5ZM642.5 -0.5H637.5V0.5H642.5V-0.5ZM632.5 -0.5H627.5V0.5H632.5V-0.5ZM622.5 -0.5H617.5V0.5H622.5V-0.5ZM612.5 -0.5H607.5V0.5H612.5V-0.5ZM602.5 -0.5H597.5V0.5H602.5V-0.5ZM592.5 -0.5H587.5V0.5H592.5V-0.5ZM582.5 -0.5H577.5V0.5H582.5V-0.5ZM572.5 -0.5H567.5V0.5H572.5V-0.5ZM562.5 -0.5H557.5V0.5H562.5V-0.5ZM552.5 -0.5H547.5V0.5H552.5V-0.5ZM542.5 -0.5H537.5V0.5H542.5V-0.5ZM532.5 -0.5H527.5V0.5H532.5V-0.5ZM522.5 -0.5H517.5V0.5H522.5V-0.5ZM512.5 -0.5H507.5V0.5H512.5V-0.5ZM502.5 -0.5H497.5V0.5H502.5V-0.5ZM492.5 -0.5H487.5V0.5H492.5V-0.5ZM482.5 -0.5H477.5V0.5H482.5V-0.5ZM472.5 -0.5H467.5V0.5H472.5V-0.5ZM462.5 -0.5H457.5V0.5H462.5V-0.5ZM452.5 -0.5H447.5V0.5H452.5V-0.5ZM442.5 -0.5H437.5V0.5H442.5V-0.5ZM432.5 -0.5H427.5V0.5H432.5V-0.5ZM422.5 -0.5H417.5V0.5H422.5V-0.5ZM412.5 -0.5H407.5V0.5H412.5V-0.5ZM402.5 -0.5H397.5V0.5H402.5V-0.5ZM392.5 -0.5H387.5V0.5H392.5V-0.5ZM382.5 -0.5H377.5V0.5H382.5V-0.5ZM372.5 -0.5H367.5V0.5H372.5V-0.5ZM362.5 -0.5H357.5V0.5H362.5V-0.5ZM352.5 -0.5H347.5V0.5H352.5V-0.5ZM342.5 -0.5H337.5V0.5H342.5V-0.5ZM332.5 -0.5H327.5V0.5H332.5V-0.5ZM322.5 -0.5H317.5V0.5H322.5V-0.5ZM312.5 -0.5H307.5V0.5H312.5V-0.5ZM302.5 -0.5H297.5V0.5H302.5V-0.5ZM292.5 -0.5H287.5V0.5H292.5V-0.5ZM282.5 -0.5H277.5V0.5H282.5V-0.5ZM272.5 -0.5H267.5V0.5H272.5V-0.5ZM262.5 -0.5H257.5V0.5H262.5V-0.5ZM252.5 -0.5H247.5V0.5H252.5V-0.5ZM242.5 -0.5H237.5V0.5H242.5V-0.5ZM232.5 -0.5H227.5V0.5H232.5V-0.5ZM222.5 -0.5H217.5V0.5H222.5V-0.5ZM212.5 -0.5H207.5V0.5H212.5V-0.5ZM202.5 -0.5H197.5V0.5H202.5V-0.5ZM192.5 -0.5H187.5V0.5H192.5V-0.5ZM182.5 -0.5H177.5V0.5H182.5V-0.5ZM172.5 -0.5H167.5V0.5H172.5V-0.5ZM162.5 -0.5H157.5V0.5H162.5V-0.5ZM152.5 -0.5H147.5V0.5H152.5V-0.5ZM142.5 -0.5H137.5V0.5H142.5V-0.5ZM132.5 -0.5H127.5V0.5H132.5V-0.5ZM122.5 -0.5H117.5V0.5H122.5V-0.5ZM112.5 -0.5H107.5V0.5H112.5V-0.5ZM102.5 -0.5H97.5V0.5H102.5V-0.5ZM92.5 -0.5H87.5V0.5H92.5V-0.5ZM82.5 -0.5H77.5V0.5H82.5V-0.5ZM72.5 -0.5H67.5V0.5H72.5V-0.5ZM62.5 -0.5H57.5V0.5H62.5V-0.5ZM52.5 -0.5H47.5V0.5H52.5V-0.5ZM42.5 -0.5H37.5V0.5H42.5V-0.5ZM32.5 -0.5H27.5V0.5H32.5V-0.5ZM22.5 -0.5H17.5V0.5H22.5V-0.5ZM12.5 -0.5H7.50001V0.5H12.5V-0.5ZM2.49999 -0.5H0V0.5H2.49999V-0.5ZM0 0V-1H-1V0H0ZM720 0H721V-1H720V0ZM720 250V251H721V250H720ZM0 250H-1V251H0V250ZM-1 0V2.5H1V0H-1ZM-1 7.5V12.5H1V7.5H-1ZM-1 17.5V22.5H1V17.5H-1ZM-1 27.5V32.5H1V27.5H-1ZM-1 37.5V42.5H1V37.5H-1ZM-1 47.5V52.5H1V47.5H-1ZM-1 57.5V62.5H1V57.5H-1ZM-1 67.5V72.5H1V67.5H-1ZM-1 77.5V82.5H1V77.5H-1ZM-1 87.5V92.5H1V87.5H-1ZM-1 97.5V102.5H1V97.5H-1ZM-1 107.5V112.5H1V107.5H-1ZM-1 117.5V122.5H1V117.5H-1ZM-1 127.5V132.5H1V127.5H-1ZM-1 137.5V142.5H1V137.5H-1ZM-1 147.5V152.5H1V147.5H-1ZM-1 157.5V162.5H1V157.5H-1ZM-1 167.5V172.5H1V167.5H-1ZM-1 177.5V182.5H1V177.5H-1ZM-1 187.5V192.5H1V187.5H-1ZM-1 197.5V202.5H1V197.5H-1ZM-1 207.5V212.5H1V207.5H-1ZM-1 217.5V222.5H1V217.5H-1ZM-1 227.5V232.5H1V227.5H-1ZM-1 237.5V242.5H1V237.5H-1ZM-1 247.5V250H1V247.5H-1ZM0 251H2.5V249H0V251ZM7.5 251H12.5V249H7.5V251ZM17.5 251H22.5V249H17.5V251ZM27.5 251H32.5V249H27.5V251ZM37.5 251H42.5V249H37.5V251ZM47.5 251H52.5V249H47.5V251ZM57.5 251H62.5V249H57.5V251ZM67.5 251H72.5V249H67.5V251ZM77.5 251H82.5V249H77.5V251ZM87.5 251H92.5V249H87.5V251ZM97.5 251H102.5V249H97.5V251ZM107.5 251H112.5V249H107.5V251ZM117.5 251H122.5V249H117.5V251ZM127.5 251H132.5V249H127.5V251ZM137.5 251H142.5V249H137.5V251ZM147.5 251H152.5V249H147.5V251ZM157.5 251H162.5V249H157.5V251ZM167.5 251H172.5V249H167.5V251ZM177.5 251H182.5V249H177.5V251ZM187.5 251H192.5V249H187.5V251ZM197.5 251H202.5V249H197.5V251ZM207.5 251H212.5V249H207.5V251ZM217.5 251H222.5V249H217.5V251ZM227.5 251H232.5V249H227.5V251ZM237.5 251H242.5V249H237.5V251ZM247.5 251H252.5V249H247.5V251ZM257.5 251H262.5V249H257.5V251ZM267.5 251H272.5V249H267.5V251ZM277.5 251H282.5V249H277.5V251ZM287.5 251H292.5V249H287.5V251ZM297.5 251H302.5V249H297.5V251ZM307.5 251H312.5V249H307.5V251ZM317.5 251H322.5V249H317.5V251ZM327.5 251H332.5V249H327.5V251ZM337.5 251H342.5V249H337.5V251ZM347.5 251H352.5V249H347.5V251ZM357.5 251H362.5V249H357.5V251ZM367.5 251H372.5V249H367.5V251ZM377.5 251H382.5V249H377.5V251ZM387.5 251H392.5V249H387.5V251ZM397.5 251H402.5V249H397.5V251ZM407.5 251H412.5V249H407.5V251ZM417.5 251H422.5V249H417.5V251ZM427.5 251H432.5V249H427.5V251ZM437.5 251H442.5V249H437.5V251ZM447.5 251H452.5V249H447.5V251ZM457.5 251H462.5V249H457.5V251ZM467.5 251H472.5V249H467.5V251ZM477.5 251H482.5V249H477.5V251ZM487.5 251H492.5V249H487.5V251ZM497.5 251H502.5V249H497.5V251ZM507.5 251H512.5V249H507.5V251ZM517.5 251H522.5V249H517.5V251ZM527.5 251H532.5V249H527.5V251ZM537.5 251H542.5V249H537.5V251ZM547.5 251H552.5V249H547.5V251ZM557.5 251H562.5V249H557.5V251ZM567.5 251H572.5V249H567.5V251ZM577.5 251H582.5V249H577.5V251ZM587.5 251H592.5V249H587.5V251ZM597.5 251H602.5V249H597.5V251ZM607.5 251H612.5V249H607.5V251ZM617.5 251H622.5V249H617.5V251ZM627.5 251H632.5V249H627.5V251ZM637.5 251H642.5V249H637.5V251ZM647.5 251H652.5V249H647.5V251ZM657.5 251H662.5V249H657.5V251ZM667.5 251H672.5V249H667.5V251ZM677.5 251H682.5V249H677.5V251ZM687.5 251H692.5V249H687.5V251ZM697.5 251H702.5V249H697.5V251ZM707.5 251H712.5V249H707.5V251ZM717.5 251H720V249H717.5V251ZM721 250V247.5H719V250H721ZM721 242.5V237.5H719V242.5H721ZM721 232.5V227.5H719V232.5H721ZM721 222.5V217.5H719V222.5H721ZM721 212.5V207.5H719V212.5H721ZM721 202.5V197.5H719V202.5H721ZM721 192.5V187.5H719V192.5H721ZM721 182.5V177.5H719V182.5H721ZM721 172.5V167.5H719V172.5H721ZM721 162.5V157.5H719V162.5H721ZM721 152.5V147.5H719V152.5H721ZM721 142.5V137.5H719V142.5H721ZM721 132.5V127.5H719V132.5H721ZM721 122.5V117.5H719V122.5H721ZM721 112.5V107.5H719V112.5H721ZM721 102.5V97.5H719V102.5H721ZM721 92.5V87.5H719V92.5H721ZM721 82.5V77.5H719V82.5H721ZM721 72.5V67.5H719V72.5H721ZM721 62.5V57.5H719V62.5H721ZM721 52.5V47.5H719V52.5H721ZM721 42.5V37.5H719V42.5H721ZM721 32.5V27.5H719V32.5H721ZM721 22.5V17.5H719V22.5H721ZM721 12.5V7.49999H719V12.5H721ZM721 2.5V0H719V2.5H721ZM720 -1H717.5V1H720V-1ZM712.5 -1H707.5V1H712.5V-1ZM702.5 -1H697.5V1H702.5V-1ZM692.5 -1H687.5V1H692.5V-1ZM682.5 -1H677.5V1H682.5V-1ZM672.5 -1H667.5V1H672.5V-1ZM662.5 -1H657.5V1H662.5V-1ZM652.5 -1H647.5V1H652.5V-1ZM642.5 -1H637.5V1H642.5V-1ZM632.5 -1H627.5V1H632.5V-1ZM622.5 -1H617.5V1H622.5V-1ZM612.5 -1H607.5V1H612.5V-1ZM602.5 -1H597.5V1H602.5V-1ZM592.5 -1H587.5V1H592.5V-1ZM582.5 -1H577.5V1H582.5V-1ZM572.5 -1H567.5V1H572.5V-1ZM562.5 -1H557.5V1H562.5V-1ZM552.5 -1H547.5V1H552.5V-1ZM542.5 -1H537.5V1H542.5V-1ZM532.5 -1H527.5V1H532.5V-1ZM522.5 -1H517.5V1H522.5V-1ZM512.5 -1H507.5V1H512.5V-1ZM502.5 -1H497.5V1H502.5V-1ZM492.5 -1H487.5V1H492.5V-1ZM482.5 -1H477.5V1H482.5V-1ZM472.5 -1H467.5V1H472.5V-1ZM462.5 -1H457.5V1H462.5V-1ZM452.5 -1H447.5V1H452.5V-1ZM442.5 -1H437.5V1H442.5V-1ZM432.5 -1H427.5V1H432.5V-1ZM422.5 -1H417.5V1H422.5V-1ZM412.5 -1H407.5V1H412.5V-1ZM402.5 -1H397.5V1H402.5V-1ZM392.5 -1H387.5V1H392.5V-1ZM382.5 -1H377.5V1H382.5V-1ZM372.5 -1H367.5V1H372.5V-1ZM362.5 -1H357.5V1H362.5V-1ZM352.5 -1H347.5V1H352.5V-1ZM342.5 -1H337.5V1H342.5V-1ZM332.5 -1H327.5V1H332.5V-1ZM322.5 -1H317.5V1H322.5V-1ZM312.5 -1H307.5V1H312.5V-1ZM302.5 -1H297.5V1H302.5V-1ZM292.5 -1H287.5V1H292.5V-1ZM282.5 -1H277.5V1H282.5V-1ZM272.5 -1H267.5V1H272.5V-1ZM262.5 -1H257.5V1H262.5V-1ZM252.5 -1H247.5V1H252.5V-1ZM242.5 -1H237.5V1H242.5V-1ZM232.5 -1H227.5V1H232.5V-1ZM222.5 -1H217.5V1H222.5V-1ZM212.5 -1H207.5V1H212.5V-1ZM202.5 -1H197.5V1H202.5V-1ZM192.5 -1H187.5V1H192.5V-1ZM182.5 -1H177.5V1H182.5V-1ZM172.5 -1H167.5V1H172.5V-1ZM162.5 -1H157.5V1H162.5V-1ZM152.5 -1H147.5V1H152.5V-1ZM142.5 -1H137.5V1H142.5V-1ZM132.5 -1H127.5V1H132.5V-1ZM122.5 -1H117.5V1H122.5V-1ZM112.5 -1H107.5V1H112.5V-1ZM102.5 -1H97.5V1H102.5V-1ZM92.5 -1H87.5V1H92.5V-1ZM82.5 -1H77.5V1H82.5V-1ZM72.5 -1H67.5V1H72.5V-1ZM62.5 -1H57.5V1H62.5V-1ZM52.5 -1H47.5V1H52.5V-1ZM42.5 -1H37.5V1H42.5V-1ZM32.5 -1H27.5V1H32.5V-1ZM22.5 -1H17.5V1H22.5V-1ZM12.5 -1H7.50001V1H12.5V-1ZM2.49999 -1H0V1H2.49999V-1Z" fill="#7F20D2"/>
<defs>
<clipPath id="clip0_54_577">
<rect width="229.333" height="117" fill="white" transform="translate(245.333)"/>
</clipPath>
<clipPath id="clip1_54_577">
<rect width="229.333" height="69" fill="white" transform="translate(490.667 48)"/>
</clipPath>
<clipPath id="clip2_54_577">
<rect width="229.333" height="117" fill="white" transform="translate(245.333 133)"/>
</clipPath>
<clipPath id="clip3_54_577">
<rect width="229.333" height="69" fill="white" transform="translate(490.667 181)"/>
</clipPath>
</defs>
</svg>
