<svg width="768" height="72" viewBox="0 0 768 72" fill="none" xmlns="http://www.w3.org/2000/svg">
<path d="M0 0H768V72H0V0Z" fill="#D9BCF2"/>
<rect x="258.5" y="0.5" width="83" height="71" fill="white"/>
<path d="M285.217 43H283.74V30.3965H285.217V43ZM292.521 42.9121C292.181 43.0996 291.732 43.1934 291.176 43.1934C289.6 43.1934 288.812 42.3145 288.812 40.5566V35.2305H287.265V34H288.812V31.8027L290.253 31.3369V34H292.521V35.2305H290.253V40.3018C290.253 40.9053 290.355 41.3359 290.561 41.5938C290.766 41.8516 291.105 41.9805 291.58 41.9805C291.943 41.9805 292.257 41.8809 292.521 41.6816V42.9121ZM301.679 38.8604H295.324C295.348 39.8623 295.617 40.6357 296.133 41.1807C296.648 41.7256 297.357 41.998 298.26 41.998C299.273 41.998 300.205 41.6641 301.055 40.9961V42.3496C300.264 42.9238 299.218 43.2109 297.917 43.2109C296.646 43.2109 295.646 42.8037 294.92 41.9893C294.193 41.1689 293.83 40.0176 293.83 38.5352C293.83 37.1348 294.226 35.9951 295.017 35.1162C295.813 34.2314 296.801 33.7891 297.979 33.7891C299.156 33.7891 300.067 34.1699 300.712 34.9316C301.356 35.6934 301.679 36.751 301.679 38.1045V38.8604ZM300.202 37.6387C300.196 36.8066 299.994 36.1592 299.596 35.6963C299.203 35.2334 298.655 35.002 297.952 35.002C297.272 35.002 296.695 35.2451 296.221 35.7314C295.746 36.2178 295.453 36.8535 295.342 37.6387H300.202ZM316.646 43H315.205V37.832C315.205 36.8359 315.05 36.1152 314.739 35.6699C314.435 35.2246 313.919 35.002 313.192 35.002C312.577 35.002 312.053 35.2832 311.619 35.8457C311.191 36.4082 310.978 37.082 310.978 37.8672V43H309.536V37.6562C309.536 35.8867 308.854 35.002 307.488 35.002C306.855 35.002 306.334 35.2686 305.924 35.8018C305.514 36.3291 305.309 37.0176 305.309 37.8672V43H303.867V34H305.309V35.4238H305.344C305.982 34.334 306.914 33.7891 308.139 33.7891C308.754 33.7891 309.29 33.9619 309.747 34.3076C310.204 34.6475 310.518 35.0957 310.688 35.6523C311.355 34.4102 312.352 33.7891 313.676 33.7891C315.656 33.7891 316.646 35.0107 316.646 37.4541V43Z" fill="black"/>
<rect x="258.5" y="0.5" width="83" height="71" stroke="black" stroke-dasharray="5 5"/>
<rect x="342.5" y="0.5" width="83" height="71" fill="white"/>
<path d="M369.217 43H367.74V30.3965H369.217V43ZM376.521 42.9121C376.181 43.0996 375.732 43.1934 375.176 43.1934C373.6 43.1934 372.812 42.3145 372.812 40.5566V35.2305H371.265V34H372.812V31.8027L374.253 31.3369V34H376.521V35.2305H374.253V40.3018C374.253 40.9053 374.355 41.3359 374.561 41.5938C374.766 41.8516 375.105 41.9805 375.58 41.9805C375.943 41.9805 376.257 41.8809 376.521 41.6816V42.9121ZM385.679 38.8604H379.324C379.348 39.8623 379.617 40.6357 380.133 41.1807C380.648 41.7256 381.357 41.998 382.26 41.998C383.273 41.998 384.205 41.6641 385.055 40.9961V42.3496C384.264 42.9238 383.218 43.2109 381.917 43.2109C380.646 43.2109 379.646 42.8037 378.92 41.9893C378.193 41.1689 377.83 40.0176 377.83 38.5352C377.83 37.1348 378.226 35.9951 379.017 35.1162C379.813 34.2314 380.801 33.7891 381.979 33.7891C383.156 33.7891 384.067 34.1699 384.712 34.9316C385.356 35.6934 385.679 36.751 385.679 38.1045V38.8604ZM384.202 37.6387C384.196 36.8066 383.994 36.1592 383.596 35.6963C383.203 35.2334 382.655 35.002 381.952 35.002C381.272 35.002 380.695 35.2451 380.221 35.7314C379.746 36.2178 379.453 36.8535 379.342 37.6387H384.202ZM400.646 43H399.205V37.832C399.205 36.8359 399.05 36.1152 398.739 35.6699C398.435 35.2246 397.919 35.002 397.192 35.002C396.577 35.002 396.053 35.2832 395.619 35.8457C395.191 36.4082 394.978 37.082 394.978 37.8672V43H393.536V37.6562C393.536 35.8867 392.854 35.002 391.488 35.002C390.855 35.002 390.334 35.2686 389.924 35.8018C389.514 36.3291 389.309 37.0176 389.309 37.8672V43H387.867V34H389.309V35.4238H389.344C389.982 34.334 390.914 33.7891 392.139 33.7891C392.754 33.7891 393.29 33.9619 393.747 34.3076C394.204 34.6475 394.518 35.0957 394.688 35.6523C395.355 34.4102 396.352 33.7891 397.676 33.7891C399.656 33.7891 400.646 35.0107 400.646 37.4541V43Z" fill="black"/>
<rect x="342.5" y="0.5" width="83" height="71" stroke="black" stroke-dasharray="5 5"/>
<rect x="426.5" y="0.5" width="83" height="71" fill="white"/>
<path d="M453.217 43H451.74V30.3965H453.217V43ZM460.521 42.9121C460.181 43.0996 459.732 43.1934 459.176 43.1934C457.6 43.1934 456.812 42.3145 456.812 40.5566V35.2305H455.265V34H456.812V31.8027L458.253 31.3369V34H460.521V35.2305H458.253V40.3018C458.253 40.9053 458.355 41.3359 458.561 41.5938C458.766 41.8516 459.105 41.9805 459.58 41.9805C459.943 41.9805 460.257 41.8809 460.521 41.6816V42.9121ZM469.679 38.8604H463.324C463.348 39.8623 463.617 40.6357 464.133 41.1807C464.648 41.7256 465.357 41.998 466.26 41.998C467.273 41.998 468.205 41.6641 469.055 40.9961V42.3496C468.264 42.9238 467.218 43.2109 465.917 43.2109C464.646 43.2109 463.646 42.8037 462.92 41.9893C462.193 41.1689 461.83 40.0176 461.83 38.5352C461.83 37.1348 462.226 35.9951 463.017 35.1162C463.813 34.2314 464.801 33.7891 465.979 33.7891C467.156 33.7891 468.067 34.1699 468.712 34.9316C469.356 35.6934 469.679 36.751 469.679 38.1045V38.8604ZM468.202 37.6387C468.196 36.8066 467.994 36.1592 467.596 35.6963C467.203 35.2334 466.655 35.002 465.952 35.002C465.272 35.002 464.695 35.2451 464.221 35.7314C463.746 36.2178 463.453 36.8535 463.342 37.6387H468.202ZM484.646 43H483.205V37.832C483.205 36.8359 483.05 36.1152 482.739 35.6699C482.435 35.2246 481.919 35.002 481.192 35.002C480.577 35.002 480.053 35.2832 479.619 35.8457C479.191 36.4082 478.978 37.082 478.978 37.8672V43H477.536V37.6562C477.536 35.8867 476.854 35.002 475.488 35.002C474.855 35.002 474.334 35.2686 473.924 35.8018C473.514 36.3291 473.309 37.0176 473.309 37.8672V43H471.867V34H473.309V35.4238H473.344C473.982 34.334 474.914 33.7891 476.139 33.7891C476.754 33.7891 477.29 33.9619 477.747 34.3076C478.204 34.6475 478.518 35.0957 478.688 35.6523C479.355 34.4102 480.352 33.7891 481.676 33.7891C483.656 33.7891 484.646 35.0107 484.646 37.4541V43Z" fill="black"/>
<rect x="426.5" y="0.5" width="83" height="71" stroke="black" stroke-dasharray="5 5"/>
<path d="M0 0V-0.5H-0.5V0H0ZM768 0H768.5V-0.5H768V0ZM768 72V72.5H768.5V72H768ZM0 72H-0.5V72.5H0V72ZM-0.5 0V2.57143H0.5V0H-0.5ZM-0.5 7.71429V12.8571H0.5V7.71429H-0.5ZM-0.5 18V23.1429H0.5V18H-0.5ZM-0.5 28.2857V33.4286H0.5V28.2857H-0.5ZM-0.5 38.5714V43.7143H0.5V38.5714H-0.5ZM-0.5 48.8571V54H0.5V48.8571H-0.5ZM-0.5 59.1429V64.2857H0.5V59.1429H-0.5ZM-0.5 69.4286V72H0.5V69.4286H-0.5ZM0 72.5H2.49351V71.5H0V72.5ZM7.48052 72.5H12.4675V71.5H7.48052V72.5ZM17.4545 72.5H22.4416V71.5H17.4545V72.5ZM27.4286 72.5H32.4156V71.5H27.4286V72.5ZM37.4026 72.5H42.3896V71.5H37.4026V72.5ZM47.3766 72.5H52.3636V71.5H47.3766V72.5ZM57.3507 72.5H62.3377V71.5H57.3507V72.5ZM67.3247 72.5H72.3117V71.5H67.3247V72.5ZM77.2987 72.5H82.2857V71.5H77.2987V72.5ZM87.2727 72.5H92.2598V71.5H87.2727V72.5ZM97.2468 72.5H102.234V71.5H97.2468V72.5ZM107.221 72.5H112.208V71.5H107.221V72.5ZM117.195 72.5H122.182V71.5H117.195V72.5ZM127.169 72.5H132.156V71.5H127.169V72.5ZM137.143 72.5H142.13V71.5H137.143V72.5ZM147.117 72.5H152.104V71.5H147.117V72.5ZM157.091 72.5H162.078V71.5H157.091V72.5ZM167.065 72.5H172.052V71.5H167.065V72.5ZM177.039 72.5H182.026V71.5H177.039V72.5ZM187.013 72.5H192V71.5H187.013V72.5ZM196.987 72.5H201.974V71.5H196.987V72.5ZM206.961 72.5H211.948V71.5H206.961V72.5ZM216.935 72.5H221.922V71.5H216.935V72.5ZM226.909 72.5H231.896V71.5H226.909V72.5ZM236.883 72.5H241.87V71.5H236.883V72.5ZM246.857 72.5H251.844V71.5H246.857V72.5ZM256.831 72.5H261.818V71.5H256.831V72.5ZM266.805 72.5H271.792V71.5H266.805V72.5ZM276.779 72.5H281.766V71.5H276.779V72.5ZM286.753 72.5H291.74V71.5H286.753V72.5ZM296.727 72.5H301.714V71.5H296.727V72.5ZM306.701 72.5H311.688V71.5H306.701V72.5ZM316.675 72.5H321.662V71.5H316.675V72.5ZM326.649 72.5H331.636V71.5H326.649V72.5ZM336.623 72.5H341.61V71.5H336.623V72.5ZM346.597 72.5H351.584V71.5H346.597V72.5ZM356.571 72.5H361.558V71.5H356.571V72.5ZM366.545 72.5H371.532V71.5H366.545V72.5ZM376.519 72.5H381.506V71.5H376.519V72.5ZM386.493 72.5H391.48V71.5H386.493V72.5ZM396.467 72.5H401.454V71.5H396.467V72.5ZM406.441 72.5H411.428V71.5H406.441V72.5ZM416.415 72.5H421.402V71.5H416.415V72.5ZM426.389 72.5H431.376V71.5H426.389V72.5ZM436.363 72.5H441.35V71.5H436.363V72.5ZM446.337 72.5H451.324V71.5H446.337V72.5ZM456.311 72.5H461.298V71.5H456.311V72.5ZM466.285 72.5H471.272V71.5H466.285V72.5ZM476.259 72.5H481.246V71.5H476.259V72.5ZM486.233 72.5H491.22V71.5H486.233V72.5ZM496.207 72.5H501.194V71.5H496.207V72.5ZM506.181 72.5H511.168V71.5H506.181V72.5ZM516.155 72.5H521.142V71.5H516.155V72.5ZM526.129 72.5H531.116V71.5H526.129V72.5ZM536.103 72.5H541.09V71.5H536.103V72.5ZM546.077 72.5H551.064V71.5H546.077V72.5ZM556.051 72.5H561.038V71.5H556.051V72.5ZM566.025 72.5H571.012V71.5H566.025V72.5ZM575.999 72.5H580.986V71.5H575.999V72.5ZM585.973 72.5H590.96V71.5H585.973V72.5ZM595.947 72.5H600.934V71.5H595.947V72.5ZM605.921 72.5H610.908V71.5H605.921V72.5ZM615.895 72.5H620.882V71.5H615.895V72.5ZM625.869 72.5H630.856V71.5H625.869V72.5ZM635.843 72.5H640.83V71.5H635.843V72.5ZM645.817 72.5H650.804V71.5H645.817V72.5ZM655.791 72.5H660.778V71.5H655.791V72.5ZM665.765 72.5H670.752V71.5H665.765V72.5ZM675.739 72.5H680.726V71.5H675.739V72.5ZM685.713 72.5H690.7V71.5H685.713V72.5ZM695.687 72.5H700.674V71.5H695.687V72.5ZM705.661 72.5H710.648V71.5H705.661V72.5ZM715.635 72.5H720.622V71.5H715.635V72.5ZM725.609 72.5H730.596V71.5H725.609V72.5ZM735.583 72.5H740.57V71.5H735.583V72.5ZM745.557 72.5H750.544V71.5H745.557V72.5ZM755.531 72.5H760.518V71.5H755.531V72.5ZM765.505 72.5H768V71.5H765.505V72.5ZM768.5 72V69.4286H767.5V72H768.5ZM768.5 64.2857V59.1429H767.5V64.2857H768.5ZM768.5 54V48.8571H767.5V54H768.5ZM768.5 43.7143V38.5714H767.5V43.7143H768.5ZM768.5 33.4286V28.2857H767.5V33.4286H768.5ZM768.5 23.1429V18H767.5V23.1429H768.5ZM768.5 12.8571V7.71429H767.5V12.8571H768.5ZM768.5 2.57143V0H767.5V2.57143H768.5ZM768 -0.5H765.506V0.5H768V-0.5ZM760.519 -0.5H755.532V0.5H760.519V-0.5ZM750.545 -0.5H745.558V0.5H750.545V-0.5ZM740.571 -0.5H735.584V0.5H740.571V-0.5ZM730.597 -0.5H725.61V0.5H730.597V-0.5ZM720.623 -0.5H715.636V0.5H720.623V-0.5ZM710.649 -0.5H705.662V0.5H710.649V-0.5ZM700.675 -0.5H695.688V0.5H700.675V-0.5ZM690.701 -0.5H685.714V0.5H690.701V-0.5ZM680.727 -0.5H675.74V0.5H680.727V-0.5ZM670.753 -0.5H665.766V0.5H670.753V-0.5ZM660.779 -0.5H655.792V0.5H660.779V-0.5ZM650.805 -0.5H645.818V0.5H650.805V-0.5ZM640.831 -0.5H635.844V0.5H640.831V-0.5ZM630.857 -0.5H625.87V0.5H630.857V-0.5ZM620.883 -0.5H615.896V0.5H620.883V-0.5ZM610.909 -0.5H605.922V0.5H610.909V-0.5ZM600.935 -0.5H595.948V0.5H600.935V-0.5ZM590.961 -0.5H585.974V0.5H590.961V-0.5ZM580.987 -0.5H576V0.5H580.987V-0.5ZM571.013 -0.5H566.026V0.5H571.013V-0.5ZM561.039 -0.5H556.052V0.5H561.039V-0.5ZM551.065 -0.5H546.078V0.5H551.065V-0.5ZM541.091 -0.5H536.104V0.5H541.091V-0.5ZM531.117 -0.5H526.13V0.5H531.117V-0.5ZM521.143 -0.5H516.156V0.5H521.143V-0.5ZM511.169 -0.5H506.182V0.5H511.169V-0.5ZM501.195 -0.5H496.208V0.5H501.195V-0.5ZM491.221 -0.5H486.234V0.5H491.221V-0.5ZM481.247 -0.5H476.26V0.5H481.247V-0.5ZM471.273 -0.5H466.286V0.5H471.273V-0.5ZM461.299 -0.5H456.312V0.5H461.299V-0.5ZM451.325 -0.5H446.338V0.5H451.325V-0.5ZM441.351 -0.5H436.364V0.5H441.351V-0.5ZM431.377 -0.5H426.39V0.5H431.377V-0.5ZM421.403 -0.5H416.416V0.5H421.403V-0.5ZM411.429 -0.5H406.442V0.5H411.429V-0.5ZM401.455 -0.5H396.468V0.5H401.455V-0.5ZM391.481 -0.5H386.494V0.5H391.481V-0.5ZM381.507 -0.5H376.52V0.5H381.507V-0.5ZM371.533 -0.5H366.546V0.5H371.533V-0.5ZM361.559 -0.5H356.572V0.5H361.559V-0.5ZM351.585 -0.5H346.598V0.5H351.585V-0.5ZM341.611 -0.5H336.624V0.5H341.611V-0.5ZM331.637 -0.5H326.65V0.5H331.637V-0.5ZM321.663 -0.5H316.676V0.5H321.663V-0.5ZM311.689 -0.5H306.702V0.5H311.689V-0.5ZM301.715 -0.5H296.728V0.5H301.715V-0.5ZM291.741 -0.5H286.754V0.5H291.741V-0.5ZM281.767 -0.5H276.78V0.5H281.767V-0.5ZM271.793 -0.5H266.806V0.5H271.793V-0.5ZM261.819 -0.5H256.832V0.5H261.819V-0.5ZM251.845 -0.5H246.858V0.5H251.845V-0.5ZM241.871 -0.5H236.884V0.5H241.871V-0.5ZM231.897 -0.5H226.91V0.5H231.897V-0.5ZM221.923 -0.5H216.936V0.5H221.923V-0.5ZM211.949 -0.5H206.962V0.5H211.949V-0.5ZM201.975 -0.5H196.988V0.5H201.975V-0.5ZM192.001 -0.5H187.014V0.5H192.001V-0.5ZM182.027 -0.5H177.04V0.5H182.027V-0.5ZM172.053 -0.5H167.066V0.5H172.053V-0.5ZM162.079 -0.5H157.092V0.5H162.079V-0.5ZM152.105 -0.5H147.118V0.5H152.105V-0.5ZM142.131 -0.5H137.144V0.5H142.131V-0.5ZM132.157 -0.5H127.17V0.5H132.157V-0.5ZM122.183 -0.5H117.196V0.5H122.183V-0.5ZM112.209 -0.5H107.222V0.5H112.209V-0.5ZM102.235 -0.5H97.2478V0.5H102.235V-0.5ZM92.2608 -0.5H87.2738V0.5H92.2608V-0.5ZM82.2868 -0.5H77.2998V0.5H82.2868V-0.5ZM72.3128 -0.5H67.3258V0.5H72.3128V-0.5ZM62.3388 -0.5H57.3518V0.5H62.3388V-0.5ZM52.3648 -0.5H47.3778V0.5H52.3648V-0.5ZM42.3908 -0.5H37.4038V0.5H42.3908V-0.5ZM32.4168 -0.5H27.4298V0.5H32.4168V-0.5ZM22.4428 -0.5H17.4558V0.5H22.4428V-0.5ZM12.4688 -0.5H7.48183V0.5H12.4688V-0.5ZM2.49481 -0.5H0V0.5H2.49481V-0.5ZM0 0V-1H-1V0H0ZM768 0H769V-1H768V0ZM768 72V73H769V72H768ZM0 72H-1V73H0V72ZM-1 0V2.57143H1V0H-1ZM-1 7.71429V12.8571H1V7.71429H-1ZM-1 18V23.1429H1V18H-1ZM-1 28.2857V33.4286H1V28.2857H-1ZM-1 38.5714V43.7143H1V38.5714H-1ZM-1 48.8571V54H1V48.8571H-1ZM-1 59.1429V64.2857H1V59.1429H-1ZM-1 69.4286V72H1V69.4286H-1ZM0 73H2.49351V71H0V73ZM7.48052 73H12.4675V71H7.48052V73ZM17.4545 73H22.4416V71H17.4545V73ZM27.4286 73H32.4156V71H27.4286V73ZM37.4026 73H42.3896V71H37.4026V73ZM47.3766 73H52.3636V71H47.3766V73ZM57.3507 73H62.3377V71H57.3507V73ZM67.3247 73H72.3117V71H67.3247V73ZM77.2987 73H82.2857V71H77.2987V73ZM87.2727 73H92.2598V71H87.2727V73ZM97.2468 73H102.234V71H97.2468V73ZM107.221 73H112.208V71H107.221V73ZM117.195 73H122.182V71H117.195V73ZM127.169 73H132.156V71H127.169V73ZM137.143 73H142.13V71H137.143V73ZM147.117 73H152.104V71H147.117V73ZM157.091 73H162.078V71H157.091V73ZM167.065 73H172.052V71H167.065V73ZM177.039 73H182.026V71H177.039V73ZM187.013 73H192V71H187.013V73ZM196.987 73H201.974V71H196.987V73ZM206.961 73H211.948V71H206.961V73ZM216.935 73H221.922V71H216.935V73ZM226.909 73H231.896V71H226.909V73ZM236.883 73H241.87V71H236.883V73ZM246.857 73H251.844V71H246.857V73ZM256.831 73H261.818V71H256.831V73ZM266.805 73H271.792V71H266.805V73ZM276.779 73H281.766V71H276.779V73ZM286.753 73H291.74V71H286.753V73ZM296.727 73H301.714V71H296.727V73ZM306.701 73H311.688V71H306.701V73ZM316.675 73H321.662V71H316.675V73ZM326.649 73H331.636V71H326.649V73ZM336.623 73H341.61V71H336.623V73ZM346.597 73H351.584V71H346.597V73ZM356.571 73H361.558V71H356.571V73ZM366.545 73H371.532V71H366.545V73ZM376.519 73H381.506V71H376.519V73ZM386.493 73H391.48V71H386.493V73ZM396.467 73H401.454V71H396.467V73ZM406.441 73H411.428V71H406.441V73ZM416.415 73H421.402V71H416.415V73ZM426.389 73H431.376V71H426.389V73ZM436.363 73H441.35V71H436.363V73ZM446.337 73H451.324V71H446.337V73ZM456.311 73H461.298V71H456.311V73ZM466.285 73H471.272V71H466.285V73ZM476.259 73H481.246V71H476.259V73ZM486.233 73H491.22V71H486.233V73ZM496.207 73H501.194V71H496.207V73ZM506.181 73H511.168V71H506.181V73ZM516.155 73H521.142V71H516.155V73ZM526.129 73H531.116V71H526.129V73ZM536.103 73H541.09V71H536.103V73ZM546.077 73H551.064V71H546.077V73ZM556.051 73H561.038V71H556.051V73ZM566.025 73H571.012V71H566.025V73ZM575.999 73H580.986V71H575.999V73ZM585.973 73H590.96V71H585.973V73ZM595.947 73H600.934V71H595.947V73ZM605.921 73H610.908V71H605.921V73ZM615.895 73H620.882V71H615.895V73ZM625.869 73H630.856V71H625.869V73ZM635.843 73H640.83V71H635.843V73ZM645.817 73H650.804V71H645.817V73ZM655.791 73H660.778V71H655.791V73ZM665.765 73H670.752V71H665.765V73ZM675.739 73H680.726V71H675.739V73ZM685.713 73H690.7V71H685.713V73ZM695.687 73H700.674V71H695.687V73ZM705.661 73H710.648V71H705.661V73ZM715.635 73H720.622V71H715.635V73ZM725.609 73H730.596V71H725.609V73ZM735.583 73H740.57V71H735.583V73ZM745.557 73H750.544V71H745.557V73ZM755.531 73H760.518V71H755.531V73ZM765.505 73H768V71H765.505V73ZM769 72V69.4286H767V72H769ZM769 64.2857V59.1429H767V64.2857H769ZM769 54V48.8571H767V54H769ZM769 43.7143V38.5714H767V43.7143H769ZM769 33.4286V28.2857H767V33.4286H769ZM769 23.1429V18H767V23.1429H769ZM769 12.8571V7.71429H767V12.8571H769ZM769 2.57143V0H767V2.57143H769ZM768 -1H765.506V1H768V-1ZM760.519 -1H755.532V1H760.519V-1ZM750.545 -1H745.558V1H750.545V-1ZM740.571 -1H735.584V1H740.571V-1ZM730.597 -1H725.61V1H730.597V-1ZM720.623 -1H715.636V1H720.623V-1ZM710.649 -1H705.662V1H710.649V-1ZM700.675 -1H695.688V1H700.675V-1ZM690.701 -1H685.714V1H690.701V-1ZM680.727 -1H675.74V1H680.727V-1ZM670.753 -1H665.766V1H670.753V-1ZM660.779 -1H655.792V1H660.779V-1ZM650.805 -1H645.818V1H650.805V-1ZM640.831 -1H635.844V1H640.831V-1ZM630.857 -1H625.87V1H630.857V-1ZM620.883 -1H615.896V1H620.883V-1ZM610.909 -1H605.922V1H610.909V-1ZM600.935 -1H595.948V1H600.935V-1ZM590.961 -1H585.974V1H590.961V-1ZM580.987 -1H576V1H580.987V-1ZM571.013 -1H566.026V1H571.013V-1ZM561.039 -1H556.052V1H561.039V-1ZM551.065 -1H546.078V1H551.065V-1ZM541.091 -1H536.104V1H541.091V-1ZM531.117 -1H526.13V1H531.117V-1ZM521.143 -1H516.156V1H521.143V-1ZM511.169 -1H506.182V1H511.169V-1ZM501.195 -1H496.208V1H501.195V-1ZM491.221 -1H486.234V1H491.221V-1ZM481.247 -1H476.26V1H481.247V-1ZM471.273 -1H466.286V1H471.273V-1ZM461.299 -1H456.312V1H461.299V-1ZM451.325 -1H446.338V1H451.325V-1ZM441.351 -1H436.364V1H441.351V-1ZM431.377 -1H426.39V1H431.377V-1ZM421.403 -1H416.416V1H421.403V-1ZM411.429 -1H406.442V1H411.429V-1ZM401.455 -1H396.468V1H401.455V-1ZM391.481 -1H386.494V1H391.481V-1ZM381.507 -1H376.52V1H381.507V-1ZM371.533 -1H366.546V1H371.533V-1ZM361.559 -1H356.572V1H361.559V-1ZM351.585 -1H346.598V1H351.585V-1ZM341.611 -1H336.624V1H341.611V-1ZM331.637 -1H326.65V1H331.637V-1ZM321.663 -1H316.676V1H321.663V-1ZM311.689 -1H306.702V1H311.689V-1ZM301.715 -1H296.728V1H301.715V-1ZM291.741 -1H286.754V1H291.741V-1ZM281.767 -1H276.78V1H281.767V-1ZM271.793 -1H266.806V1H271.793V-1ZM261.819 -1H256.832V1H261.819V-1ZM251.845 -1H246.858V1H251.845V-1ZM241.871 -1H236.884V1H241.871V-1ZM231.897 -1H226.91V1H231.897V-1ZM221.923 -1H216.936V1H221.923V-1ZM211.949 -1H206.962V1H211.949V-1ZM201.975 -1H196.988V1H201.975V-1ZM192.001 -1H187.014V1H192.001V-1ZM182.027 -1H177.04V1H182.027V-1ZM172.053 -1H167.066V1H172.053V-1ZM162.079 -1H157.092V1H162.079V-1ZM152.105 -1H147.118V1H152.105V-1ZM142.131 -1H137.144V1H142.131V-1ZM132.157 -1H127.17V1H132.157V-1ZM122.183 -1H117.196V1H122.183V-1ZM112.209 -1H107.222V1H112.209V-1ZM102.235 -1H97.2478V1H102.235V-1ZM92.2608 -1H87.2738V1H92.2608V-1ZM82.2868 -1H77.2998V1H82.2868V-1ZM72.3128 -1H67.3258V1H72.3128V-1ZM62.3388 -1H57.3518V1H62.3388V-1ZM52.3648 -1H47.3778V1H52.3648V-1ZM42.3908 -1H37.4038V1H42.3908V-1ZM32.4168 -1H27.4298V1H32.4168V-1ZM22.4428 -1H17.4558V1H22.4428V-1ZM12.4688 -1H7.48183V1H12.4688V-1ZM2.49481 -1H0V1H2.49481V-1Z" fill="#7F20D2"/>
</svg>
