<svg width="768" height="216" viewBox="0 0 768 216" fill="none" xmlns="http://www.w3.org/2000/svg">
<path d="M0 0H768V216H0V0Z" fill="#D9BCF2"/>
<rect x="342.5" y="0.5" width="83" height="71" fill="white"/>
<path d="M369.217 43H367.74V30.3965H369.217V43ZM376.521 42.9121C376.181 43.0996 375.732 43.1934 375.176 43.1934C373.6 43.1934 372.812 42.3145 372.812 40.5566V35.2305H371.265V34H372.812V31.8027L374.253 31.3369V34H376.521V35.2305H374.253V40.3018C374.253 40.9053 374.355 41.3359 374.561 41.5938C374.766 41.8516 375.105 41.9805 375.58 41.9805C375.943 41.9805 376.257 41.8809 376.521 41.6816V42.9121ZM385.679 38.8604H379.324C379.348 39.8623 379.617 40.6357 380.133 41.1807C380.648 41.7256 381.357 41.998 382.26 41.998C383.273 41.998 384.205 41.6641 385.055 40.9961V42.3496C384.264 42.9238 383.218 43.2109 381.917 43.2109C380.646 43.2109 379.646 42.8037 378.92 41.9893C378.193 41.1689 377.83 40.0176 377.83 38.5352C377.83 37.1348 378.226 35.9951 379.017 35.1162C379.813 34.2314 380.801 33.7891 381.979 33.7891C383.156 33.7891 384.067 34.1699 384.712 34.9316C385.356 35.6934 385.679 36.751 385.679 38.1045V38.8604ZM384.202 37.6387C384.196 36.8066 383.994 36.1592 383.596 35.6963C383.203 35.2334 382.655 35.002 381.952 35.002C381.272 35.002 380.695 35.2451 380.221 35.7314C379.746 36.2178 379.453 36.8535 379.342 37.6387H384.202ZM400.646 43H399.205V37.832C399.205 36.8359 399.05 36.1152 398.739 35.6699C398.435 35.2246 397.919 35.002 397.192 35.002C396.577 35.002 396.053 35.2832 395.619 35.8457C395.191 36.4082 394.978 37.082 394.978 37.8672V43H393.536V37.6562C393.536 35.8867 392.854 35.002 391.488 35.002C390.855 35.002 390.334 35.2686 389.924 35.8018C389.514 36.3291 389.309 37.0176 389.309 37.8672V43H387.867V34H389.309V35.4238H389.344C389.982 34.334 390.914 33.7891 392.139 33.7891C392.754 33.7891 393.29 33.9619 393.747 34.3076C394.204 34.6475 394.518 35.0957 394.688 35.6523C395.355 34.4102 396.352 33.7891 397.676 33.7891C399.656 33.7891 400.646 35.0107 400.646 37.4541V43Z" fill="black"/>
<rect x="342.5" y="0.5" width="83" height="71" stroke="black" stroke-dasharray="5 5"/>
<rect x="342.5" y="72.5" width="83" height="71" fill="white"/>
<path d="M369.217 115H367.74V102.396H369.217V115ZM376.521 114.912C376.181 115.1 375.732 115.193 375.176 115.193C373.6 115.193 372.812 114.314 372.812 112.557V107.23H371.265V106H372.812V103.803L374.253 103.337V106H376.521V107.23H374.253V112.302C374.253 112.905 374.355 113.336 374.561 113.594C374.766 113.852 375.105 113.98 375.58 113.98C375.943 113.98 376.257 113.881 376.521 113.682V114.912ZM385.679 110.86H379.324C379.348 111.862 379.617 112.636 380.133 113.181C380.648 113.726 381.357 113.998 382.26 113.998C383.273 113.998 384.205 113.664 385.055 112.996V114.35C384.264 114.924 383.218 115.211 381.917 115.211C380.646 115.211 379.646 114.804 378.92 113.989C378.193 113.169 377.83 112.018 377.83 110.535C377.83 109.135 378.226 107.995 379.017 107.116C379.813 106.231 380.801 105.789 381.979 105.789C383.156 105.789 384.067 106.17 384.712 106.932C385.356 107.693 385.679 108.751 385.679 110.104V110.86ZM384.202 109.639C384.196 108.807 383.994 108.159 383.596 107.696C383.203 107.233 382.655 107.002 381.952 107.002C381.272 107.002 380.695 107.245 380.221 107.731C379.746 108.218 379.453 108.854 379.342 109.639H384.202ZM400.646 115H399.205V109.832C399.205 108.836 399.05 108.115 398.739 107.67C398.435 107.225 397.919 107.002 397.192 107.002C396.577 107.002 396.053 107.283 395.619 107.846C395.191 108.408 394.978 109.082 394.978 109.867V115H393.536V109.656C393.536 107.887 392.854 107.002 391.488 107.002C390.855 107.002 390.334 107.269 389.924 107.802C389.514 108.329 389.309 109.018 389.309 109.867V115H387.867V106H389.309V107.424H389.344C389.982 106.334 390.914 105.789 392.139 105.789C392.754 105.789 393.29 105.962 393.747 106.308C394.204 106.647 394.518 107.096 394.688 107.652C395.355 106.41 396.352 105.789 397.676 105.789C399.656 105.789 400.646 107.011 400.646 109.454V115Z" fill="black"/>
<rect x="342.5" y="72.5" width="83" height="71" stroke="black" stroke-dasharray="5 5"/>
<rect x="342.5" y="144.5" width="83" height="71" fill="white"/>
<path d="M369.217 187H367.74V174.396H369.217V187ZM376.521 186.912C376.181 187.1 375.732 187.193 375.176 187.193C373.6 187.193 372.812 186.314 372.812 184.557V179.23H371.265V178H372.812V175.803L374.253 175.337V178H376.521V179.23H374.253V184.302C374.253 184.905 374.355 185.336 374.561 185.594C374.766 185.852 375.105 185.98 375.58 185.98C375.943 185.98 376.257 185.881 376.521 185.682V186.912ZM385.679 182.86H379.324C379.348 183.862 379.617 184.636 380.133 185.181C380.648 185.726 381.357 185.998 382.26 185.998C383.273 185.998 384.205 185.664 385.055 184.996V186.35C384.264 186.924 383.218 187.211 381.917 187.211C380.646 187.211 379.646 186.804 378.92 185.989C378.193 185.169 377.83 184.018 377.83 182.535C377.83 181.135 378.226 179.995 379.017 179.116C379.813 178.231 380.801 177.789 381.979 177.789C383.156 177.789 384.067 178.17 384.712 178.932C385.356 179.693 385.679 180.751 385.679 182.104V182.86ZM384.202 181.639C384.196 180.807 383.994 180.159 383.596 179.696C383.203 179.233 382.655 179.002 381.952 179.002C381.272 179.002 380.695 179.245 380.221 179.731C379.746 180.218 379.453 180.854 379.342 181.639H384.202ZM400.646 187H399.205V181.832C399.205 180.836 399.05 180.115 398.739 179.67C398.435 179.225 397.919 179.002 397.192 179.002C396.577 179.002 396.053 179.283 395.619 179.846C395.191 180.408 394.978 181.082 394.978 181.867V187H393.536V181.656C393.536 179.887 392.854 179.002 391.488 179.002C390.855 179.002 390.334 179.269 389.924 179.802C389.514 180.329 389.309 181.018 389.309 181.867V187H387.867V178H389.309V179.424H389.344C389.982 178.334 390.914 177.789 392.139 177.789C392.754 177.789 393.29 177.962 393.747 178.308C394.204 178.647 394.518 179.096 394.688 179.652C395.355 178.41 396.352 177.789 397.676 177.789C399.656 177.789 400.646 179.011 400.646 181.454V187Z" fill="black"/>
<rect x="342.5" y="144.5" width="83" height="71" stroke="black" stroke-dasharray="5 5"/>
<path d="M0 0V-0.5H-0.5V0H0ZM768 0H768.5V-0.5H768V0ZM768 216V216.5H768.5V216H768ZM0 216H-0.5V216.5H0V216ZM-0.5 0V2.45455H0.5V0H-0.5ZM-0.5 7.36364V12.2727H0.5V7.36364H-0.5ZM-0.5 17.1818V22.0909H0.5V17.1818H-0.5ZM-0.5 27V31.9091H0.5V27H-0.5ZM-0.5 36.8182V41.7273H0.5V36.8182H-0.5ZM-0.5 46.6364V51.5455H0.5V46.6364H-0.5ZM-0.5 56.4546V61.3636H0.5V56.4546H-0.5ZM-0.5 66.2727V71.1818H0.5V66.2727H-0.5ZM-0.5 76.0909V81H0.5V76.0909H-0.5ZM-0.5 85.9091V90.8182H0.5V85.9091H-0.5ZM-0.5 95.7273V100.636H0.5V95.7273H-0.5ZM-0.5 105.545V110.455H0.5V105.545H-0.5ZM-0.5 115.364V120.273H0.5V115.364H-0.5ZM-0.5 125.182V130.091H0.5V125.182H-0.5ZM-0.5 135V139.909H0.5V135H-0.5ZM-0.5 144.818V149.727H0.5V144.818H-0.5ZM-0.5 154.636V159.545H0.5V154.636H-0.5ZM-0.5 164.455V169.364H0.5V164.455H-0.5ZM-0.5 174.273V179.182H0.5V174.273H-0.5ZM-0.5 184.091V189H0.5V184.091H-0.5ZM-0.5 193.909V198.818H0.5V193.909H-0.5ZM-0.5 203.727V208.636H0.5V203.727H-0.5ZM-0.5 213.545V216H0.5V213.545H-0.5ZM0 216.5H2.49351V215.5H0V216.5ZM7.48052 216.5H12.4675V215.5H7.48052V216.5ZM17.4545 216.5H22.4416V215.5H17.4545V216.5ZM27.4286 216.5H32.4156V215.5H27.4286V216.5ZM37.4026 216.5H42.3896V215.5H37.4026V216.5ZM47.3766 216.5H52.3636V215.5H47.3766V216.5ZM57.3507 216.5H62.3377V215.5H57.3507V216.5ZM67.3247 216.5H72.3117V215.5H67.3247V216.5ZM77.2987 216.5H82.2857V215.5H77.2987V216.5ZM87.2727 216.5H92.2598V215.5H87.2727V216.5ZM97.2468 216.5H102.234V215.5H97.2468V216.5ZM107.221 216.5H112.208V215.5H107.221V216.5ZM117.195 216.5H122.182V215.5H117.195V216.5ZM127.169 216.5H132.156V215.5H127.169V216.5ZM137.143 216.5H142.13V215.5H137.143V216.5ZM147.117 216.5H152.104V215.5H147.117V216.5ZM157.091 216.5H162.078V215.5H157.091V216.5ZM167.065 216.5H172.052V215.5H167.065V216.5ZM177.039 216.5H182.026V215.5H177.039V216.5ZM187.013 216.5H192V215.5H187.013V216.5ZM196.987 216.5H201.974V215.5H196.987V216.5ZM206.961 216.5H211.948V215.5H206.961V216.5ZM216.935 216.5H221.922V215.5H216.935V216.5ZM226.909 216.5H231.896V215.5H226.909V216.5ZM236.883 216.5H241.87V215.5H236.883V216.5ZM246.857 216.5H251.844V215.5H246.857V216.5ZM256.831 216.5H261.818V215.5H256.831V216.5ZM266.805 216.5H271.792V215.5H266.805V216.5ZM276.779 216.5H281.766V215.5H276.779V216.5ZM286.753 216.5H291.74V215.5H286.753V216.5ZM296.727 216.5H301.714V215.5H296.727V216.5ZM306.701 216.5H311.688V215.5H306.701V216.5ZM316.675 216.5H321.662V215.5H316.675V216.5ZM326.649 216.5H331.636V215.5H326.649V216.5ZM336.623 216.5H341.61V215.5H336.623V216.5ZM346.597 216.5H351.584V215.5H346.597V216.5ZM356.571 216.5H361.558V215.5H356.571V216.5ZM366.545 216.5H371.532V215.5H366.545V216.5ZM376.519 216.5H381.506V215.5H376.519V216.5ZM386.493 216.5H391.48V215.5H386.493V216.5ZM396.467 216.5H401.454V215.5H396.467V216.5ZM406.441 216.5H411.428V215.5H406.441V216.5ZM416.415 216.5H421.402V215.5H416.415V216.5ZM426.389 216.5H431.376V215.5H426.389V216.5ZM436.363 216.5H441.35V215.5H436.363V216.5ZM446.337 216.5H451.324V215.5H446.337V216.5ZM456.311 216.5H461.298V215.5H456.311V216.5ZM466.285 216.5H471.272V215.5H466.285V216.5ZM476.259 216.5H481.246V215.5H476.259V216.5ZM486.233 216.5H491.22V215.5H486.233V216.5ZM496.207 216.5H501.194V215.5H496.207V216.5ZM506.181 216.5H511.168V215.5H506.181V216.5ZM516.155 216.5H521.142V215.5H516.155V216.5ZM526.129 216.5H531.116V215.5H526.129V216.5ZM536.103 216.5H541.09V215.5H536.103V216.5ZM546.077 216.5H551.064V215.5H546.077V216.5ZM556.051 216.5H561.038V215.5H556.051V216.5ZM566.025 216.5H571.012V215.5H566.025V216.5ZM575.999 216.5H580.986V215.5H575.999V216.5ZM585.973 216.5H590.96V215.5H585.973V216.5ZM595.947 216.5H600.934V215.5H595.947V216.5ZM605.921 216.5H610.908V215.5H605.921V216.5ZM615.895 216.5H620.882V215.5H615.895V216.5ZM625.869 216.5H630.856V215.5H625.869V216.5ZM635.843 216.5H640.83V215.5H635.843V216.5ZM645.817 216.5H650.804V215.5H645.817V216.5ZM655.791 216.5H660.778V215.5H655.791V216.5ZM665.765 216.5H670.752V215.5H665.765V216.5ZM675.739 216.5H680.726V215.5H675.739V216.5ZM685.713 216.5H690.7V215.5H685.713V216.5ZM695.687 216.5H700.674V215.5H695.687V216.5ZM705.661 216.5H710.648V215.5H705.661V216.5ZM715.635 216.5H720.622V215.5H715.635V216.5ZM725.609 216.5H730.596V215.5H725.609V216.5ZM735.583 216.5H740.57V215.5H735.583V216.5ZM745.557 216.5H750.544V215.5H745.557V216.5ZM755.531 216.5H760.518V215.5H755.531V216.5ZM765.505 216.5H768V215.5H765.505V216.5ZM768.5 216V213.545H767.5V216H768.5ZM768.5 208.636V203.727H767.5V208.636H768.5ZM768.5 198.818V193.909H767.5V198.818H768.5ZM768.5 189V184.091H767.5V189H768.5ZM768.5 179.182V174.273H767.5V179.182H768.5ZM768.5 169.364V164.455H767.5V169.364H768.5ZM768.5 159.545V154.636H767.5V159.545H768.5ZM768.5 149.727V144.818H767.5V149.727H768.5ZM768.5 139.909V135H767.5V139.909H768.5ZM768.5 130.091V125.182H767.5V130.091H768.5ZM768.5 120.273V115.364H767.5V120.273H768.5ZM768.5 110.455V105.545H767.5V110.455H768.5ZM768.5 100.636V95.7273H767.5V100.636H768.5ZM768.5 90.8182V85.9091H767.5V90.8182H768.5ZM768.5 81V76.0909H767.5V81H768.5ZM768.5 71.1819V66.2728H767.5V71.1819H768.5ZM768.5 61.3637V56.4546H767.5V61.3637H768.5ZM768.5 51.5455V46.6364H767.5V51.5455H768.5ZM768.5 41.7273V36.8182H767.5V41.7273H768.5ZM768.5 31.9092V27.0001H767.5V31.9092H768.5ZM768.5 22.091V17.1819H767.5V22.091H768.5ZM768.5 12.2728V7.36371H767.5V12.2728H768.5ZM768.5 2.45462V0H767.5V2.45462H768.5ZM768 -0.5H765.506V0.5H768V-0.5ZM760.519 -0.5H755.532V0.5H760.519V-0.5ZM750.545 -0.5H745.558V0.5H750.545V-0.5ZM740.571 -0.5H735.584V0.5H740.571V-0.5ZM730.597 -0.5H725.61V0.5H730.597V-0.5ZM720.623 -0.5H715.636V0.5H720.623V-0.5ZM710.649 -0.5H705.662V0.5H710.649V-0.5ZM700.675 -0.5H695.688V0.5H700.675V-0.5ZM690.701 -0.5H685.714V0.5H690.701V-0.5ZM680.727 -0.5H675.74V0.5H680.727V-0.5ZM670.753 -0.5H665.766V0.5H670.753V-0.5ZM660.779 -0.5H655.792V0.5H660.779V-0.5ZM650.805 -0.5H645.818V0.5H650.805V-0.5ZM640.831 -0.5H635.844V0.5H640.831V-0.5ZM630.857 -0.5H625.87V0.5H630.857V-0.5ZM620.883 -0.5H615.896V0.5H620.883V-0.5ZM610.909 -0.5H605.922V0.5H610.909V-0.5ZM600.935 -0.5H595.948V0.5H600.935V-0.5ZM590.961 -0.5H585.974V0.5H590.961V-0.5ZM580.987 -0.5H576V0.5H580.987V-0.5ZM571.013 -0.5H566.026V0.5H571.013V-0.5ZM561.039 -0.5H556.052V0.5H561.039V-0.5ZM551.065 -0.5H546.078V0.5H551.065V-0.5ZM541.091 -0.5H536.104V0.5H541.091V-0.5ZM531.117 -0.5H526.13V0.5H531.117V-0.5ZM521.143 -0.5H516.156V0.5H521.143V-0.5ZM511.169 -0.5H506.182V0.5H511.169V-0.5ZM501.195 -0.5H496.208V0.5H501.195V-0.5ZM491.221 -0.5H486.234V0.5H491.221V-0.5ZM481.247 -0.5H476.26V0.5H481.247V-0.5ZM471.273 -0.5H466.286V0.5H471.273V-0.5ZM461.299 -0.5H456.312V0.5H461.299V-0.5ZM451.325 -0.5H446.338V0.5H451.325V-0.5ZM441.351 -0.5H436.364V0.5H441.351V-0.5ZM431.377 -0.5H426.39V0.5H431.377V-0.5ZM421.403 -0.5H416.416V0.5H421.403V-0.5ZM411.429 -0.5H406.442V0.5H411.429V-0.5ZM401.455 -0.5H396.468V0.5H401.455V-0.5ZM391.481 -0.5H386.494V0.5H391.481V-0.5ZM381.507 -0.5H376.52V0.5H381.507V-0.5ZM371.533 -0.5H366.546V0.5H371.533V-0.5ZM361.559 -0.5H356.572V0.5H361.559V-0.5ZM351.585 -0.5H346.598V0.5H351.585V-0.5ZM341.611 -0.5H336.624V0.5H341.611V-0.5ZM331.637 -0.5H326.65V0.5H331.637V-0.5ZM321.663 -0.5H316.676V0.5H321.663V-0.5ZM311.689 -0.5H306.702V0.5H311.689V-0.5ZM301.715 -0.5H296.728V0.5H301.715V-0.5ZM291.741 -0.5H286.754V0.5H291.741V-0.5ZM281.767 -0.5H276.78V0.5H281.767V-0.5ZM271.793 -0.5H266.806V0.5H271.793V-0.5ZM261.819 -0.5H256.832V0.5H261.819V-0.5ZM251.845 -0.5H246.858V0.5H251.845V-0.5ZM241.871 -0.5H236.884V0.5H241.871V-0.5ZM231.897 -0.5H226.91V0.5H231.897V-0.5ZM221.923 -0.5H216.936V0.5H221.923V-0.5ZM211.949 -0.5H206.962V0.5H211.949V-0.5ZM201.975 -0.5H196.988V0.5H201.975V-0.5ZM192.001 -0.5H187.014V0.5H192.001V-0.5ZM182.027 -0.5H177.04V0.5H182.027V-0.5ZM172.053 -0.5H167.066V0.5H172.053V-0.5ZM162.079 -0.5H157.092V0.5H162.079V-0.5ZM152.105 -0.5H147.118V0.5H152.105V-0.5ZM142.131 -0.5H137.144V0.5H142.131V-0.5ZM132.157 -0.5H127.17V0.5H132.157V-0.5ZM122.183 -0.5H117.196V0.5H122.183V-0.5ZM112.209 -0.5H107.222V0.5H112.209V-0.5ZM102.235 -0.5H97.2478V0.5H102.235V-0.5ZM92.2608 -0.5H87.2738V0.5H92.2608V-0.5ZM82.2868 -0.5H77.2998V0.5H82.2868V-0.5ZM72.3128 -0.5H67.3258V0.5H72.3128V-0.5ZM62.3388 -0.5H57.3518V0.5H62.3388V-0.5ZM52.3648 -0.5H47.3778V0.5H52.3648V-0.5ZM42.3908 -0.5H37.4038V0.5H42.3908V-0.5ZM32.4168 -0.5H27.4298V0.5H32.4168V-0.5ZM22.4428 -0.5H17.4558V0.5H22.4428V-0.5ZM12.4688 -0.5H7.48183V0.5H12.4688V-0.5ZM2.49481 -0.5H0V0.5H2.49481V-0.5ZM0 0V-1H-1V0H0ZM768 0H769V-1H768V0ZM768 216V217H769V216H768ZM0 216H-1V217H0V216ZM-1 0V2.45455H1V0H-1ZM-1 7.36364V12.2727H1V7.36364H-1ZM-1 17.1818V22.0909H1V17.1818H-1ZM-1 27V31.9091H1V27H-1ZM-1 36.8182V41.7273H1V36.8182H-1ZM-1 46.6364V51.5455H1V46.6364H-1ZM-1 56.4546V61.3636H1V56.4546H-1ZM-1 66.2727V71.1818H1V66.2727H-1ZM-1 76.0909V81H1V76.0909H-1ZM-1 85.9091V90.8182H1V85.9091H-1ZM-1 95.7273V100.636H1V95.7273H-1ZM-1 105.545V110.455H1V105.545H-1ZM-1 115.364V120.273H1V115.364H-1ZM-1 125.182V130.091H1V125.182H-1ZM-1 135V139.909H1V135H-1ZM-1 144.818V149.727H1V144.818H-1ZM-1 154.636V159.545H1V154.636H-1ZM-1 164.455V169.364H1V164.455H-1ZM-1 174.273V179.182H1V174.273H-1ZM-1 184.091V189H1V184.091H-1ZM-1 193.909V198.818H1V193.909H-1ZM-1 203.727V208.636H1V203.727H-1ZM-1 213.545V216H1V213.545H-1ZM0 217H2.49351V215H0V217ZM7.48052 217H12.4675V215H7.48052V217ZM17.4545 217H22.4416V215H17.4545V217ZM27.4286 217H32.4156V215H27.4286V217ZM37.4026 217H42.3896V215H37.4026V217ZM47.3766 217H52.3636V215H47.3766V217ZM57.3507 217H62.3377V215H57.3507V217ZM67.3247 217H72.3117V215H67.3247V217ZM77.2987 217H82.2857V215H77.2987V217ZM87.2727 217H92.2598V215H87.2727V217ZM97.2468 217H102.234V215H97.2468V217ZM107.221 217H112.208V215H107.221V217ZM117.195 217H122.182V215H117.195V217ZM127.169 217H132.156V215H127.169V217ZM137.143 217H142.13V215H137.143V217ZM147.117 217H152.104V215H147.117V217ZM157.091 217H162.078V215H157.091V217ZM167.065 217H172.052V215H167.065V217ZM177.039 217H182.026V215H177.039V217ZM187.013 217H192V215H187.013V217ZM196.987 217H201.974V215H196.987V217ZM206.961 217H211.948V215H206.961V217ZM216.935 217H221.922V215H216.935V217ZM226.909 217H231.896V215H226.909V217ZM236.883 217H241.87V215H236.883V217ZM246.857 217H251.844V215H246.857V217ZM256.831 217H261.818V215H256.831V217ZM266.805 217H271.792V215H266.805V217ZM276.779 217H281.766V215H276.779V217ZM286.753 217H291.74V215H286.753V217ZM296.727 217H301.714V215H296.727V217ZM306.701 217H311.688V215H306.701V217ZM316.675 217H321.662V215H316.675V217ZM326.649 217H331.636V215H326.649V217ZM336.623 217H341.61V215H336.623V217ZM346.597 217H351.584V215H346.597V217ZM356.571 217H361.558V215H356.571V217ZM366.545 217H371.532V215H366.545V217ZM376.519 217H381.506V215H376.519V217ZM386.493 217H391.48V215H386.493V217ZM396.467 217H401.454V215H396.467V217ZM406.441 217H411.428V215H406.441V217ZM416.415 217H421.402V215H416.415V217ZM426.389 217H431.376V215H426.389V217ZM436.363 217H441.35V215H436.363V217ZM446.337 217H451.324V215H446.337V217ZM456.311 217H461.298V215H456.311V217ZM466.285 217H471.272V215H466.285V217ZM476.259 217H481.246V215H476.259V217ZM486.233 217H491.22V215H486.233V217ZM496.207 217H501.194V215H496.207V217ZM506.181 217H511.168V215H506.181V217ZM516.155 217H521.142V215H516.155V217ZM526.129 217H531.116V215H526.129V217ZM536.103 217H541.09V215H536.103V217ZM546.077 217H551.064V215H546.077V217ZM556.051 217H561.038V215H556.051V217ZM566.025 217H571.012V215H566.025V217ZM575.999 217H580.986V215H575.999V217ZM585.973 217H590.96V215H585.973V217ZM595.947 217H600.934V215H595.947V217ZM605.921 217H610.908V215H605.921V217ZM615.895 217H620.882V215H615.895V217ZM625.869 217H630.856V215H625.869V217ZM635.843 217H640.83V215H635.843V217ZM645.817 217H650.804V215H645.817V217ZM655.791 217H660.778V215H655.791V217ZM665.765 217H670.752V215H665.765V217ZM675.739 217H680.726V215H675.739V217ZM685.713 217H690.7V215H685.713V217ZM695.687 217H700.674V215H695.687V217ZM705.661 217H710.648V215H705.661V217ZM715.635 217H720.622V215H715.635V217ZM725.609 217H730.596V215H725.609V217ZM735.583 217H740.57V215H735.583V217ZM745.557 217H750.544V215H745.557V217ZM755.531 217H760.518V215H755.531V217ZM765.505 217H768V215H765.505V217ZM769 216V213.545H767V216H769ZM769 208.636V203.727H767V208.636H769ZM769 198.818V193.909H767V198.818H769ZM769 189V184.091H767V189H769ZM769 179.182V174.273H767V179.182H769ZM769 169.364V164.455H767V169.364H769ZM769 159.545V154.636H767V159.545H769ZM769 149.727V144.818H767V149.727H769ZM769 139.909V135H767V139.909H769ZM769 130.091V125.182H767V130.091H769ZM769 120.273V115.364H767V120.273H769ZM769 110.455V105.545H767V110.455H769ZM769 100.636V95.7273H767V100.636H769ZM769 90.8182V85.9091H767V90.8182H769ZM769 81V76.0909H767V81H769ZM769 71.1819V66.2728H767V71.1819H769ZM769 61.3637V56.4546H767V61.3637H769ZM769 51.5455V46.6364H767V51.5455H769ZM769 41.7273V36.8182H767V41.7273H769ZM769 31.9092V27.0001H767V31.9092H769ZM769 22.091V17.1819H767V22.091H769ZM769 12.2728V7.36371H767V12.2728H769ZM769 2.45462V0H767V2.45462H769ZM768 -1H765.506V1H768V-1ZM760.519 -1H755.532V1H760.519V-1ZM750.545 -1H745.558V1H750.545V-1ZM740.571 -1H735.584V1H740.571V-1ZM730.597 -1H725.61V1H730.597V-1ZM720.623 -1H715.636V1H720.623V-1ZM710.649 -1H705.662V1H710.649V-1ZM700.675 -1H695.688V1H700.675V-1ZM690.701 -1H685.714V1H690.701V-1ZM680.727 -1H675.74V1H680.727V-1ZM670.753 -1H665.766V1H670.753V-1ZM660.779 -1H655.792V1H660.779V-1ZM650.805 -1H645.818V1H650.805V-1ZM640.831 -1H635.844V1H640.831V-1ZM630.857 -1H625.87V1H630.857V-1ZM620.883 -1H615.896V1H620.883V-1ZM610.909 -1H605.922V1H610.909V-1ZM600.935 -1H595.948V1H600.935V-1ZM590.961 -1H585.974V1H590.961V-1ZM580.987 -1H576V1H580.987V-1ZM571.013 -1H566.026V1H571.013V-1ZM561.039 -1H556.052V1H561.039V-1ZM551.065 -1H546.078V1H551.065V-1ZM541.091 -1H536.104V1H541.091V-1ZM531.117 -1H526.13V1H531.117V-1ZM521.143 -1H516.156V1H521.143V-1ZM511.169 -1H506.182V1H511.169V-1ZM501.195 -1H496.208V1H501.195V-1ZM491.221 -1H486.234V1H491.221V-1ZM481.247 -1H476.26V1H481.247V-1ZM471.273 -1H466.286V1H471.273V-1ZM461.299 -1H456.312V1H461.299V-1ZM451.325 -1H446.338V1H451.325V-1ZM441.351 -1H436.364V1H441.351V-1ZM431.377 -1H426.39V1H431.377V-1ZM421.403 -1H416.416V1H421.403V-1ZM411.429 -1H406.442V1H411.429V-1ZM401.455 -1H396.468V1H401.455V-1ZM391.481 -1H386.494V1H391.481V-1ZM381.507 -1H376.52V1H381.507V-1ZM371.533 -1H366.546V1H371.533V-1ZM361.559 -1H356.572V1H361.559V-1ZM351.585 -1H346.598V1H351.585V-1ZM341.611 -1H336.624V1H341.611V-1ZM331.637 -1H326.65V1H331.637V-1ZM321.663 -1H316.676V1H321.663V-1ZM311.689 -1H306.702V1H311.689V-1ZM301.715 -1H296.728V1H301.715V-1ZM291.741 -1H286.754V1H291.741V-1ZM281.767 -1H276.78V1H281.767V-1ZM271.793 -1H266.806V1H271.793V-1ZM261.819 -1H256.832V1H261.819V-1ZM251.845 -1H246.858V1H251.845V-1ZM241.871 -1H236.884V1H241.871V-1ZM231.897 -1H226.91V1H231.897V-1ZM221.923 -1H216.936V1H221.923V-1ZM211.949 -1H206.962V1H211.949V-1ZM201.975 -1H196.988V1H201.975V-1ZM192.001 -1H187.014V1H192.001V-1ZM182.027 -1H177.04V1H182.027V-1ZM172.053 -1H167.066V1H172.053V-1ZM162.079 -1H157.092V1H162.079V-1ZM152.105 -1H147.118V1H152.105V-1ZM142.131 -1H137.144V1H142.131V-1ZM132.157 -1H127.17V1H132.157V-1ZM122.183 -1H117.196V1H122.183V-1ZM112.209 -1H107.222V1H112.209V-1ZM102.235 -1H97.2478V1H102.235V-1ZM92.2608 -1H87.2738V1H92.2608V-1ZM82.2868 -1H77.2998V1H82.2868V-1ZM72.3128 -1H67.3258V1H72.3128V-1ZM62.3388 -1H57.3518V1H62.3388V-1ZM52.3648 -1H47.3778V1H52.3648V-1ZM42.3908 -1H37.4038V1H42.3908V-1ZM32.4168 -1H27.4298V1H32.4168V-1ZM22.4428 -1H17.4558V1H22.4428V-1ZM12.4688 -1H7.48183V1H12.4688V-1ZM2.49481 -1H0V1H2.49481V-1Z" fill="#7F20D2"/>
</svg>
