<svg width="720" height="216" viewBox="0 0 720 216" fill="none" xmlns="http://www.w3.org/2000/svg">
<path d="M0 0H720V216H0V0Z" fill="#D9BCF2"/>
<rect x="318.5" y="0.5" width="83" height="71" fill="white"/>
<path d="M345.217 43H343.74V30.3965H345.217V43ZM352.521 42.9121C352.181 43.0996 351.732 43.1934 351.176 43.1934C349.6 43.1934 348.812 42.3145 348.812 40.5566V35.2305H347.265V34H348.812V31.8027L350.253 31.3369V34H352.521V35.2305H350.253V40.3018C350.253 40.9053 350.355 41.3359 350.561 41.5938C350.766 41.8516 351.105 41.9805 351.58 41.9805C351.943 41.9805 352.257 41.8809 352.521 41.6816V42.9121ZM361.679 38.8604H355.324C355.348 39.8623 355.617 40.6357 356.133 41.1807C356.648 41.7256 357.357 41.998 358.26 41.998C359.273 41.998 360.205 41.6641 361.055 40.9961V42.3496C360.264 42.9238 359.218 43.2109 357.917 43.2109C356.646 43.2109 355.646 42.8037 354.92 41.9893C354.193 41.1689 353.83 40.0176 353.83 38.5352C353.83 37.1348 354.226 35.9951 355.017 35.1162C355.813 34.2314 356.801 33.7891 357.979 33.7891C359.156 33.7891 360.067 34.1699 360.712 34.9316C361.356 35.6934 361.679 36.751 361.679 38.1045V38.8604ZM360.202 37.6387C360.196 36.8066 359.994 36.1592 359.596 35.6963C359.203 35.2334 358.655 35.002 357.952 35.002C357.272 35.002 356.695 35.2451 356.221 35.7314C355.746 36.2178 355.453 36.8535 355.342 37.6387H360.202ZM376.646 43H375.205V37.832C375.205 36.8359 375.05 36.1152 374.739 35.6699C374.435 35.2246 373.919 35.002 373.192 35.002C372.577 35.002 372.053 35.2832 371.619 35.8457C371.191 36.4082 370.978 37.082 370.978 37.8672V43H369.536V37.6562C369.536 35.8867 368.854 35.002 367.488 35.002C366.855 35.002 366.334 35.2686 365.924 35.8018C365.514 36.3291 365.309 37.0176 365.309 37.8672V43H363.867V34H365.309V35.4238H365.344C365.982 34.334 366.914 33.7891 368.139 33.7891C368.754 33.7891 369.29 33.9619 369.747 34.3076C370.204 34.6475 370.518 35.0957 370.688 35.6523C371.355 34.4102 372.352 33.7891 373.676 33.7891C375.656 33.7891 376.646 35.0107 376.646 37.4541V43Z" fill="black"/>
<rect x="318.5" y="0.5" width="83" height="71" stroke="black" stroke-dasharray="5 5"/>
<rect x="318.5" y="72.5" width="83" height="71" fill="white"/>
<path d="M345.217 115H343.74V102.396H345.217V115ZM352.521 114.912C352.181 115.1 351.732 115.193 351.176 115.193C349.6 115.193 348.812 114.314 348.812 112.557V107.23H347.265V106H348.812V103.803L350.253 103.337V106H352.521V107.23H350.253V112.302C350.253 112.905 350.355 113.336 350.561 113.594C350.766 113.852 351.105 113.98 351.58 113.98C351.943 113.98 352.257 113.881 352.521 113.682V114.912ZM361.679 110.86H355.324C355.348 111.862 355.617 112.636 356.133 113.181C356.648 113.726 357.357 113.998 358.26 113.998C359.273 113.998 360.205 113.664 361.055 112.996V114.35C360.264 114.924 359.218 115.211 357.917 115.211C356.646 115.211 355.646 114.804 354.92 113.989C354.193 113.169 353.83 112.018 353.83 110.535C353.83 109.135 354.226 107.995 355.017 107.116C355.813 106.231 356.801 105.789 357.979 105.789C359.156 105.789 360.067 106.17 360.712 106.932C361.356 107.693 361.679 108.751 361.679 110.104V110.86ZM360.202 109.639C360.196 108.807 359.994 108.159 359.596 107.696C359.203 107.233 358.655 107.002 357.952 107.002C357.272 107.002 356.695 107.245 356.221 107.731C355.746 108.218 355.453 108.854 355.342 109.639H360.202ZM376.646 115H375.205V109.832C375.205 108.836 375.05 108.115 374.739 107.67C374.435 107.225 373.919 107.002 373.192 107.002C372.577 107.002 372.053 107.283 371.619 107.846C371.191 108.408 370.978 109.082 370.978 109.867V115H369.536V109.656C369.536 107.887 368.854 107.002 367.488 107.002C366.855 107.002 366.334 107.269 365.924 107.802C365.514 108.329 365.309 109.018 365.309 109.867V115H363.867V106H365.309V107.424H365.344C365.982 106.334 366.914 105.789 368.139 105.789C368.754 105.789 369.29 105.962 369.747 106.308C370.204 106.647 370.518 107.096 370.688 107.652C371.355 106.41 372.352 105.789 373.676 105.789C375.656 105.789 376.646 107.011 376.646 109.454V115Z" fill="black"/>
<rect x="318.5" y="72.5" width="83" height="71" stroke="black" stroke-dasharray="5 5"/>
<rect x="318.5" y="144.5" width="83" height="71" fill="white"/>
<path d="M345.217 187H343.74V174.396H345.217V187ZM352.521 186.912C352.181 187.1 351.732 187.193 351.176 187.193C349.6 187.193 348.812 186.314 348.812 184.557V179.23H347.265V178H348.812V175.803L350.253 175.337V178H352.521V179.23H350.253V184.302C350.253 184.905 350.355 185.336 350.561 185.594C350.766 185.852 351.105 185.98 351.58 185.98C351.943 185.98 352.257 185.881 352.521 185.682V186.912ZM361.679 182.86H355.324C355.348 183.862 355.617 184.636 356.133 185.181C356.648 185.726 357.357 185.998 358.26 185.998C359.273 185.998 360.205 185.664 361.055 184.996V186.35C360.264 186.924 359.218 187.211 357.917 187.211C356.646 187.211 355.646 186.804 354.92 185.989C354.193 185.169 353.83 184.018 353.83 182.535C353.83 181.135 354.226 179.995 355.017 179.116C355.813 178.231 356.801 177.789 357.979 177.789C359.156 177.789 360.067 178.17 360.712 178.932C361.356 179.693 361.679 180.751 361.679 182.104V182.86ZM360.202 181.639C360.196 180.807 359.994 180.159 359.596 179.696C359.203 179.233 358.655 179.002 357.952 179.002C357.272 179.002 356.695 179.245 356.221 179.731C355.746 180.218 355.453 180.854 355.342 181.639H360.202ZM376.646 187H375.205V181.832C375.205 180.836 375.05 180.115 374.739 179.67C374.435 179.225 373.919 179.002 373.192 179.002C372.577 179.002 372.053 179.283 371.619 179.846C371.191 180.408 370.978 181.082 370.978 181.867V187H369.536V181.656C369.536 179.887 368.854 179.002 367.488 179.002C366.855 179.002 366.334 179.269 365.924 179.802C365.514 180.329 365.309 181.018 365.309 181.867V187H363.867V178H365.309V179.424H365.344C365.982 178.334 366.914 177.789 368.139 177.789C368.754 177.789 369.29 177.962 369.747 178.308C370.204 178.647 370.518 179.096 370.688 179.652C371.355 178.41 372.352 177.789 373.676 177.789C375.656 177.789 376.646 179.011 376.646 181.454V187Z" fill="black"/>
<rect x="318.5" y="144.5" width="83" height="71" stroke="black" stroke-dasharray="5 5"/>
<path d="M0 0V-0.5H-0.5V0H0ZM720 0H720.5V-0.5H720V0ZM720 216V216.5H720.5V216H720ZM0 216H-0.5V216.5H0V216ZM-0.5 0V2.45455H0.5V0H-0.5ZM-0.5 7.36364V12.2727H0.5V7.36364H-0.5ZM-0.5 17.1818V22.0909H0.5V17.1818H-0.5ZM-0.5 27V31.9091H0.5V27H-0.5ZM-0.5 36.8182V41.7273H0.5V36.8182H-0.5ZM-0.5 46.6364V51.5455H0.5V46.6364H-0.5ZM-0.5 56.4546V61.3636H0.5V56.4546H-0.5ZM-0.5 66.2727V71.1818H0.5V66.2727H-0.5ZM-0.5 76.0909V81H0.5V76.0909H-0.5ZM-0.5 85.9091V90.8182H0.5V85.9091H-0.5ZM-0.5 95.7273V100.636H0.5V95.7273H-0.5ZM-0.5 105.545V110.455H0.5V105.545H-0.5ZM-0.5 115.364V120.273H0.5V115.364H-0.5ZM-0.5 125.182V130.091H0.5V125.182H-0.5ZM-0.5 135V139.909H0.5V135H-0.5ZM-0.5 144.818V149.727H0.5V144.818H-0.5ZM-0.5 154.636V159.545H0.5V154.636H-0.5ZM-0.5 164.455V169.364H0.5V164.455H-0.5ZM-0.5 174.273V179.182H0.5V174.273H-0.5ZM-0.5 184.091V189H0.5V184.091H-0.5ZM-0.5 193.909V198.818H0.5V193.909H-0.5ZM-0.5 203.727V208.636H0.5V203.727H-0.5ZM-0.5 213.545V216H0.5V213.545H-0.5ZM0 216.5H2.5V215.5H0V216.5ZM7.5 216.5H12.5V215.5H7.5V216.5ZM17.5 216.5H22.5V215.5H17.5V216.5ZM27.5 216.5H32.5V215.5H27.5V216.5ZM37.5 216.5H42.5V215.5H37.5V216.5ZM47.5 216.5H52.5V215.5H47.5V216.5ZM57.5 216.5H62.5V215.5H57.5V216.5ZM67.5 216.5H72.5V215.5H67.5V216.5ZM77.5 216.5H82.5V215.5H77.5V216.5ZM87.5 216.5H92.5V215.5H87.5V216.5ZM97.5 216.5H102.5V215.5H97.5V216.5ZM107.5 216.5H112.5V215.5H107.5V216.5ZM117.5 216.5H122.5V215.5H117.5V216.5ZM127.5 216.5H132.5V215.5H127.5V216.5ZM137.5 216.5H142.5V215.5H137.5V216.5ZM147.5 216.5H152.5V215.5H147.5V216.5ZM157.5 216.5H162.5V215.5H157.5V216.5ZM167.5 216.5H172.5V215.5H167.5V216.5ZM177.5 216.5H182.5V215.5H177.5V216.5ZM187.5 216.5H192.5V215.5H187.5V216.5ZM197.5 216.5H202.5V215.5H197.5V216.5ZM207.5 216.5H212.5V215.5H207.5V216.5ZM217.5 216.5H222.5V215.5H217.5V216.5ZM227.5 216.5H232.5V215.5H227.5V216.5ZM237.5 216.5H242.5V215.5H237.5V216.5ZM247.5 216.5H252.5V215.5H247.5V216.5ZM257.5 216.5H262.5V215.5H257.5V216.5ZM267.5 216.5H272.5V215.5H267.5V216.5ZM277.5 216.5H282.5V215.5H277.5V216.5ZM287.5 216.5H292.5V215.5H287.5V216.5ZM297.5 216.5H302.5V215.5H297.5V216.5ZM307.5 216.5H312.5V215.5H307.5V216.5ZM317.5 216.5H322.5V215.5H317.5V216.5ZM327.5 216.5H332.5V215.5H327.5V216.5ZM337.5 216.5H342.5V215.5H337.5V216.5ZM347.5 216.5H352.5V215.5H347.5V216.5ZM357.5 216.5H362.5V215.5H357.5V216.5ZM367.5 216.5H372.5V215.5H367.5V216.5ZM377.5 216.5H382.5V215.5H377.5V216.5ZM387.5 216.5H392.5V215.5H387.5V216.5ZM397.5 216.5H402.5V215.5H397.5V216.5ZM407.5 216.5H412.5V215.5H407.5V216.5ZM417.5 216.5H422.5V215.5H417.5V216.5ZM427.5 216.5H432.5V215.5H427.5V216.5ZM437.5 216.5H442.5V215.5H437.5V216.5ZM447.5 216.5H452.5V215.5H447.5V216.5ZM457.5 216.5H462.5V215.5H457.5V216.5ZM467.5 216.5H472.5V215.5H467.5V216.5ZM477.5 216.5H482.5V215.5H477.5V216.5ZM487.5 216.5H492.5V215.5H487.5V216.5ZM497.5 216.5H502.5V215.5H497.5V216.5ZM507.5 216.5H512.5V215.5H507.5V216.5ZM517.5 216.5H522.5V215.5H517.5V216.5ZM527.5 216.5H532.5V215.5H527.5V216.5ZM537.5 216.5H542.5V215.5H537.5V216.5ZM547.5 216.5H552.5V215.5H547.5V216.5ZM557.5 216.5H562.5V215.5H557.5V216.5ZM567.5 216.5H572.5V215.5H567.5V216.5ZM577.5 216.5H582.5V215.5H577.5V216.5ZM587.5 216.5H592.5V215.5H587.5V216.5ZM597.5 216.5H602.5V215.5H597.5V216.5ZM607.5 216.5H612.5V215.5H607.5V216.5ZM617.5 216.5H622.5V215.5H617.5V216.5ZM627.5 216.5H632.5V215.5H627.5V216.5ZM637.5 216.5H642.5V215.5H637.5V216.5ZM647.5 216.5H652.5V215.5H647.5V216.5ZM657.5 216.5H662.5V215.5H657.5V216.5ZM667.5 216.5H672.5V215.5H667.5V216.5ZM677.5 216.5H682.5V215.5H677.5V216.5ZM687.5 216.5H692.5V215.5H687.5V216.5ZM697.5 216.5H702.5V215.5H697.5V216.5ZM707.5 216.5H712.5V215.5H707.5V216.5ZM717.5 216.5H720V215.5H717.5V216.5ZM720.5 216V213.545H719.5V216H720.5ZM720.5 208.636V203.727H719.5V208.636H720.5ZM720.5 198.818V193.909H719.5V198.818H720.5ZM720.5 189V184.091H719.5V189H720.5ZM720.5 179.182V174.273H719.5V179.182H720.5ZM720.5 169.364V164.455H719.5V169.364H720.5ZM720.5 159.545V154.636H719.5V159.545H720.5ZM720.5 149.727V144.818H719.5V149.727H720.5ZM720.5 139.909V135H719.5V139.909H720.5ZM720.5 130.091V125.182H719.5V130.091H720.5ZM720.5 120.273V115.364H719.5V120.273H720.5ZM720.5 110.455V105.545H719.5V110.455H720.5ZM720.5 100.636V95.7273H719.5V100.636H720.5ZM720.5 90.8182V85.9091H719.5V90.8182H720.5ZM720.5 81V76.0909H719.5V81H720.5ZM720.5 71.1819V66.2728H719.5V71.1819H720.5ZM720.5 61.3637V56.4546H719.5V61.3637H720.5ZM720.5 51.5455V46.6364H719.5V51.5455H720.5ZM720.5 41.7273V36.8182H719.5V41.7273H720.5ZM720.5 31.9092V27.0001H719.5V31.9092H720.5ZM720.5 22.091V17.1819H719.5V22.091H720.5ZM720.5 12.2728V7.36371H719.5V12.2728H720.5ZM720.5 2.45462V0H719.5V2.45462H720.5ZM720 -0.5H717.5V0.5H720V-0.5ZM712.5 -0.5H707.5V0.5H712.5V-0.5ZM702.5 -0.5H697.5V0.5H702.5V-0.5ZM692.5 -0.5H687.5V0.5H692.5V-0.5ZM682.5 -0.5H677.5V0.5H682.5V-0.5ZM672.5 -0.5H667.5V0.5H672.5V-0.5ZM662.5 -0.5H657.5V0.5H662.5V-0.5ZM652.5 -0.5H647.5V0.5H652.5V-0.5ZM642.5 -0.5H637.5V0.5H642.5V-0.5ZM632.5 -0.5H627.5V0.5H632.5V-0.5ZM622.5 -0.5H617.5V0.5H622.5V-0.5ZM612.5 -0.5H607.5V0.5H612.5V-0.5ZM602.5 -0.5H597.5V0.5H602.5V-0.5ZM592.5 -0.5H587.5V0.5H592.5V-0.5ZM582.5 -0.5H577.5V0.5H582.5V-0.5ZM572.5 -0.5H567.5V0.5H572.5V-0.5ZM562.5 -0.5H557.5V0.5H562.5V-0.5ZM552.5 -0.5H547.5V0.5H552.5V-0.5ZM542.5 -0.5H537.5V0.5H542.5V-0.5ZM532.5 -0.5H527.5V0.5H532.5V-0.5ZM522.5 -0.5H517.5V0.5H522.5V-0.5ZM512.5 -0.5H507.5V0.5H512.5V-0.5ZM502.5 -0.5H497.5V0.5H502.5V-0.5ZM492.5 -0.5H487.5V0.5H492.5V-0.5ZM482.5 -0.5H477.5V0.5H482.5V-0.5ZM472.5 -0.5H467.5V0.5H472.5V-0.5ZM462.5 -0.5H457.5V0.5H462.5V-0.5ZM452.5 -0.5H447.5V0.5H452.5V-0.5ZM442.5 -0.5H437.5V0.5H442.5V-0.5ZM432.5 -0.5H427.5V0.5H432.5V-0.5ZM422.5 -0.5H417.5V0.5H422.5V-0.5ZM412.5 -0.5H407.5V0.5H412.5V-0.5ZM402.5 -0.5H397.5V0.5H402.5V-0.5ZM392.5 -0.5H387.5V0.5H392.5V-0.5ZM382.5 -0.5H377.5V0.5H382.5V-0.5ZM372.5 -0.5H367.5V0.5H372.5V-0.5ZM362.5 -0.5H357.5V0.5H362.5V-0.5ZM352.5 -0.5H347.5V0.5H352.5V-0.5ZM342.5 -0.5H337.5V0.5H342.5V-0.5ZM332.5 -0.5H327.5V0.5H332.5V-0.5ZM322.5 -0.5H317.5V0.5H322.5V-0.5ZM312.5 -0.5H307.5V0.5H312.5V-0.5ZM302.5 -0.5H297.5V0.5H302.5V-0.5ZM292.5 -0.5H287.5V0.5H292.5V-0.5ZM282.5 -0.5H277.5V0.5H282.5V-0.5ZM272.5 -0.5H267.5V0.5H272.5V-0.5ZM262.5 -0.5H257.5V0.5H262.5V-0.5ZM252.5 -0.5H247.5V0.5H252.5V-0.5ZM242.5 -0.5H237.5V0.5H242.5V-0.5ZM232.5 -0.5H227.5V0.5H232.5V-0.5ZM222.5 -0.5H217.5V0.5H222.5V-0.5ZM212.5 -0.5H207.5V0.5H212.5V-0.5ZM202.5 -0.5H197.5V0.5H202.5V-0.5ZM192.5 -0.5H187.5V0.5H192.5V-0.5ZM182.5 -0.5H177.5V0.5H182.5V-0.5ZM172.5 -0.5H167.5V0.5H172.5V-0.5ZM162.5 -0.5H157.5V0.5H162.5V-0.5ZM152.5 -0.5H147.5V0.5H152.5V-0.5ZM142.5 -0.5H137.5V0.5H142.5V-0.5ZM132.5 -0.5H127.5V0.5H132.5V-0.5ZM122.5 -0.5H117.5V0.5H122.5V-0.5ZM112.5 -0.5H107.5V0.5H112.5V-0.5ZM102.5 -0.5H97.5V0.5H102.5V-0.5ZM92.5 -0.5H87.5V0.5H92.5V-0.5ZM82.5 -0.5H77.5V0.5H82.5V-0.5ZM72.5 -0.5H67.5V0.5H72.5V-0.5ZM62.5 -0.5H57.5V0.5H62.5V-0.5ZM52.5 -0.5H47.5V0.5H52.5V-0.5ZM42.5 -0.5H37.5V0.5H42.5V-0.5ZM32.5 -0.5H27.5V0.5H32.5V-0.5ZM22.5 -0.5H17.5V0.5H22.5V-0.5ZM12.5 -0.5H7.50001V0.5H12.5V-0.5ZM2.49999 -0.5H0V0.5H2.49999V-0.5ZM0 0V-1H-1V0H0ZM720 0H721V-1H720V0ZM720 216V217H721V216H720ZM0 216H-1V217H0V216ZM-1 0V2.45455H1V0H-1ZM-1 7.36364V12.2727H1V7.36364H-1ZM-1 17.1818V22.0909H1V17.1818H-1ZM-1 27V31.9091H1V27H-1ZM-1 36.8182V41.7273H1V36.8182H-1ZM-1 46.6364V51.5455H1V46.6364H-1ZM-1 56.4546V61.3636H1V56.4546H-1ZM-1 66.2727V71.1818H1V66.2727H-1ZM-1 76.0909V81H1V76.0909H-1ZM-1 85.9091V90.8182H1V85.9091H-1ZM-1 95.7273V100.636H1V95.7273H-1ZM-1 105.545V110.455H1V105.545H-1ZM-1 115.364V120.273H1V115.364H-1ZM-1 125.182V130.091H1V125.182H-1ZM-1 135V139.909H1V135H-1ZM-1 144.818V149.727H1V144.818H-1ZM-1 154.636V159.545H1V154.636H-1ZM-1 164.455V169.364H1V164.455H-1ZM-1 174.273V179.182H1V174.273H-1ZM-1 184.091V189H1V184.091H-1ZM-1 193.909V198.818H1V193.909H-1ZM-1 203.727V208.636H1V203.727H-1ZM-1 213.545V216H1V213.545H-1ZM0 217H2.5V215H0V217ZM7.5 217H12.5V215H7.5V217ZM17.5 217H22.5V215H17.5V217ZM27.5 217H32.5V215H27.5V217ZM37.5 217H42.5V215H37.5V217ZM47.5 217H52.5V215H47.5V217ZM57.5 217H62.5V215H57.5V217ZM67.5 217H72.5V215H67.5V217ZM77.5 217H82.5V215H77.5V217ZM87.5 217H92.5V215H87.5V217ZM97.5 217H102.5V215H97.5V217ZM107.5 217H112.5V215H107.5V217ZM117.5 217H122.5V215H117.5V217ZM127.5 217H132.5V215H127.5V217ZM137.5 217H142.5V215H137.5V217ZM147.5 217H152.5V215H147.5V217ZM157.5 217H162.5V215H157.5V217ZM167.5 217H172.5V215H167.5V217ZM177.5 217H182.5V215H177.5V217ZM187.5 217H192.5V215H187.5V217ZM197.5 217H202.5V215H197.5V217ZM207.5 217H212.5V215H207.5V217ZM217.5 217H222.5V215H217.5V217ZM227.5 217H232.5V215H227.5V217ZM237.5 217H242.5V215H237.5V217ZM247.5 217H252.5V215H247.5V217ZM257.5 217H262.5V215H257.5V217ZM267.5 217H272.5V215H267.5V217ZM277.5 217H282.5V215H277.5V217ZM287.5 217H292.5V215H287.5V217ZM297.5 217H302.5V215H297.5V217ZM307.5 217H312.5V215H307.5V217ZM317.5 217H322.5V215H317.5V217ZM327.5 217H332.5V215H327.5V217ZM337.5 217H342.5V215H337.5V217ZM347.5 217H352.5V215H347.5V217ZM357.5 217H362.5V215H357.5V217ZM367.5 217H372.5V215H367.5V217ZM377.5 217H382.5V215H377.5V217ZM387.5 217H392.5V215H387.5V217ZM397.5 217H402.5V215H397.5V217ZM407.5 217H412.5V215H407.5V217ZM417.5 217H422.5V215H417.5V217ZM427.5 217H432.5V215H427.5V217ZM437.5 217H442.5V215H437.5V217ZM447.5 217H452.5V215H447.5V217ZM457.5 217H462.5V215H457.5V217ZM467.5 217H472.5V215H467.5V217ZM477.5 217H482.5V215H477.5V217ZM487.5 217H492.5V215H487.5V217ZM497.5 217H502.5V215H497.5V217ZM507.5 217H512.5V215H507.5V217ZM517.5 217H522.5V215H517.5V217ZM527.5 217H532.5V215H527.5V217ZM537.5 217H542.5V215H537.5V217ZM547.5 217H552.5V215H547.5V217ZM557.5 217H562.5V215H557.5V217ZM567.5 217H572.5V215H567.5V217ZM577.5 217H582.5V215H577.5V217ZM587.5 217H592.5V215H587.5V217ZM597.5 217H602.5V215H597.5V217ZM607.5 217H612.5V215H607.5V217ZM617.5 217H622.5V215H617.5V217ZM627.5 217H632.5V215H627.5V217ZM637.5 217H642.5V215H637.5V217ZM647.5 217H652.5V215H647.5V217ZM657.5 217H662.5V215H657.5V217ZM667.5 217H672.5V215H667.5V217ZM677.5 217H682.5V215H677.5V217ZM687.5 217H692.5V215H687.5V217ZM697.5 217H702.5V215H697.5V217ZM707.5 217H712.5V215H707.5V217ZM717.5 217H720V215H717.5V217ZM721 216V213.545H719V216H721ZM721 208.636V203.727H719V208.636H721ZM721 198.818V193.909H719V198.818H721ZM721 189V184.091H719V189H721ZM721 179.182V174.273H719V179.182H721ZM721 169.364V164.455H719V169.364H721ZM721 159.545V154.636H719V159.545H721ZM721 149.727V144.818H719V149.727H721ZM721 139.909V135H719V139.909H721ZM721 130.091V125.182H719V130.091H721ZM721 120.273V115.364H719V120.273H721ZM721 110.455V105.545H719V110.455H721ZM721 100.636V95.7273H719V100.636H721ZM721 90.8182V85.9091H719V90.8182H721ZM721 81V76.0909H719V81H721ZM721 71.1819V66.2728H719V71.1819H721ZM721 61.3637V56.4546H719V61.3637H721ZM721 51.5455V46.6364H719V51.5455H721ZM721 41.7273V36.8182H719V41.7273H721ZM721 31.9092V27.0001H719V31.9092H721ZM721 22.091V17.1819H719V22.091H721ZM721 12.2728V7.36371H719V12.2728H721ZM721 2.45462V0H719V2.45462H721ZM720 -1H717.5V1H720V-1ZM712.5 -1H707.5V1H712.5V-1ZM702.5 -1H697.5V1H702.5V-1ZM692.5 -1H687.5V1H692.5V-1ZM682.5 -1H677.5V1H682.5V-1ZM672.5 -1H667.5V1H672.5V-1ZM662.5 -1H657.5V1H662.5V-1ZM652.5 -1H647.5V1H652.5V-1ZM642.5 -1H637.5V1H642.5V-1ZM632.5 -1H627.5V1H632.5V-1ZM622.5 -1H617.5V1H622.5V-1ZM612.5 -1H607.5V1H612.5V-1ZM602.5 -1H597.5V1H602.5V-1ZM592.5 -1H587.5V1H592.5V-1ZM582.5 -1H577.5V1H582.5V-1ZM572.5 -1H567.5V1H572.5V-1ZM562.5 -1H557.5V1H562.5V-1ZM552.5 -1H547.5V1H552.5V-1ZM542.5 -1H537.5V1H542.5V-1ZM532.5 -1H527.5V1H532.5V-1ZM522.5 -1H517.5V1H522.5V-1ZM512.5 -1H507.5V1H512.5V-1ZM502.5 -1H497.5V1H502.5V-1ZM492.5 -1H487.5V1H492.5V-1ZM482.5 -1H477.5V1H482.5V-1ZM472.5 -1H467.5V1H472.5V-1ZM462.5 -1H457.5V1H462.5V-1ZM452.5 -1H447.5V1H452.5V-1ZM442.5 -1H437.5V1H442.5V-1ZM432.5 -1H427.5V1H432.5V-1ZM422.5 -1H417.5V1H422.5V-1ZM412.5 -1H407.5V1H412.5V-1ZM402.5 -1H397.5V1H402.5V-1ZM392.5 -1H387.5V1H392.5V-1ZM382.5 -1H377.5V1H382.5V-1ZM372.5 -1H367.5V1H372.5V-1ZM362.5 -1H357.5V1H362.5V-1ZM352.5 -1H347.5V1H352.5V-1ZM342.5 -1H337.5V1H342.5V-1ZM332.5 -1H327.5V1H332.5V-1ZM322.5 -1H317.5V1H322.5V-1ZM312.5 -1H307.5V1H312.5V-1ZM302.5 -1H297.5V1H302.5V-1ZM292.5 -1H287.5V1H292.5V-1ZM282.5 -1H277.5V1H282.5V-1ZM272.5 -1H267.5V1H272.5V-1ZM262.5 -1H257.5V1H262.5V-1ZM252.5 -1H247.5V1H252.5V-1ZM242.5 -1H237.5V1H242.5V-1ZM232.5 -1H227.5V1H232.5V-1ZM222.5 -1H217.5V1H222.5V-1ZM212.5 -1H207.5V1H212.5V-1ZM202.5 -1H197.5V1H202.5V-1ZM192.5 -1H187.5V1H192.5V-1ZM182.5 -1H177.5V1H182.5V-1ZM172.5 -1H167.5V1H172.5V-1ZM162.5 -1H157.5V1H162.5V-1ZM152.5 -1H147.5V1H152.5V-1ZM142.5 -1H137.5V1H142.5V-1ZM132.5 -1H127.5V1H132.5V-1ZM122.5 -1H117.5V1H122.5V-1ZM112.5 -1H107.5V1H112.5V-1ZM102.5 -1H97.5V1H102.5V-1ZM92.5 -1H87.5V1H92.5V-1ZM82.5 -1H77.5V1H82.5V-1ZM72.5 -1H67.5V1H72.5V-1ZM62.5 -1H57.5V1H62.5V-1ZM52.5 -1H47.5V1H52.5V-1ZM42.5 -1H37.5V1H42.5V-1ZM32.5 -1H27.5V1H32.5V-1ZM22.5 -1H17.5V1H22.5V-1ZM12.5 -1H7.50001V1H12.5V-1ZM2.49999 -1H0V1H2.49999V-1Z" fill="#7F20D2"/>
</svg>
