<svg width="720" height="207" viewBox="0 0 720 207" fill="none" xmlns="http://www.w3.org/2000/svg">
<path d="M0 0H720V207H0V0Z" fill="#D9BCF2"/>
<rect x="320.5" y="0.5" width="79" height="68" fill="white"/>
<path d="M346.859 41H345.547V29.7969H346.859V41ZM353.352 40.9219C353.049 41.0885 352.651 41.1719 352.156 41.1719C350.755 41.1719 350.055 40.3906 350.055 38.8281V34.0938H348.68V33H350.055V31.0469L351.336 30.6328V33H353.352V34.0938H351.336V38.6016C351.336 39.138 351.427 39.5208 351.609 39.75C351.792 39.9792 352.094 40.0938 352.516 40.0938C352.839 40.0938 353.117 40.0052 353.352 39.8281V40.9219ZM361.492 37.3203H355.844C355.865 38.2109 356.104 38.8984 356.562 39.3828C357.021 39.8672 357.651 40.1094 358.453 40.1094C359.354 40.1094 360.182 39.8125 360.938 39.2188V40.4219C360.234 40.9323 359.305 41.1875 358.148 41.1875C357.018 41.1875 356.13 40.8255 355.484 40.1016C354.839 39.3724 354.516 38.349 354.516 37.0312C354.516 35.7865 354.867 34.7734 355.57 33.9922C356.279 33.2057 357.156 32.8125 358.203 32.8125C359.25 32.8125 360.06 33.151 360.633 33.8281C361.206 34.5052 361.492 35.4453 361.492 36.6484V37.3203ZM360.18 36.2344C360.174 35.4948 359.995 34.9193 359.641 34.5078C359.292 34.0964 358.805 33.8906 358.18 33.8906C357.576 33.8906 357.062 34.1068 356.641 34.5391C356.219 34.9714 355.958 35.5365 355.859 36.2344H360.18ZM374.797 41H373.516V36.4062C373.516 35.5208 373.378 34.8802 373.102 34.4844C372.831 34.0885 372.372 33.8906 371.727 33.8906C371.18 33.8906 370.714 34.1406 370.328 34.6406C369.948 35.1406 369.758 35.7396 369.758 36.4375V41H368.477V36.25C368.477 34.6771 367.87 33.8906 366.656 33.8906C366.094 33.8906 365.63 34.1276 365.266 34.6016C364.901 35.0703 364.719 35.6823 364.719 36.4375V41H363.438V33H364.719V34.2656H364.75C365.318 33.2969 366.146 32.8125 367.234 32.8125C367.781 32.8125 368.258 32.9661 368.664 33.2734C369.07 33.5755 369.349 33.974 369.5 34.4688C370.094 33.3646 370.979 32.8125 372.156 32.8125C373.917 32.8125 374.797 33.8984 374.797 36.0703V41Z" fill="black"/>
<rect x="320.5" y="0.5" width="79" height="68" stroke="black" stroke-dasharray="5 5"/>
<rect x="320.5" y="69.5" width="79" height="68" fill="white"/>
<path d="M346.859 110H345.547V98.7969H346.859V110ZM353.352 109.922C353.049 110.089 352.651 110.172 352.156 110.172C350.755 110.172 350.055 109.391 350.055 107.828V103.094H348.68V102H350.055V100.047L351.336 99.6328V102H353.352V103.094H351.336V107.602C351.336 108.138 351.427 108.521 351.609 108.75C351.792 108.979 352.094 109.094 352.516 109.094C352.839 109.094 353.117 109.005 353.352 108.828V109.922ZM361.492 106.32H355.844C355.865 107.211 356.104 107.898 356.562 108.383C357.021 108.867 357.651 109.109 358.453 109.109C359.354 109.109 360.182 108.812 360.938 108.219V109.422C360.234 109.932 359.305 110.188 358.148 110.188C357.018 110.188 356.13 109.826 355.484 109.102C354.839 108.372 354.516 107.349 354.516 106.031C354.516 104.786 354.867 103.773 355.57 102.992C356.279 102.206 357.156 101.812 358.203 101.812C359.25 101.812 360.06 102.151 360.633 102.828C361.206 103.505 361.492 104.445 361.492 105.648V106.32ZM360.18 105.234C360.174 104.495 359.995 103.919 359.641 103.508C359.292 103.096 358.805 102.891 358.18 102.891C357.576 102.891 357.062 103.107 356.641 103.539C356.219 103.971 355.958 104.536 355.859 105.234H360.18ZM374.797 110H373.516V105.406C373.516 104.521 373.378 103.88 373.102 103.484C372.831 103.089 372.372 102.891 371.727 102.891C371.18 102.891 370.714 103.141 370.328 103.641C369.948 104.141 369.758 104.74 369.758 105.438V110H368.477V105.25C368.477 103.677 367.87 102.891 366.656 102.891C366.094 102.891 365.63 103.128 365.266 103.602C364.901 104.07 364.719 104.682 364.719 105.438V110H363.438V102H364.719V103.266H364.75C365.318 102.297 366.146 101.812 367.234 101.812C367.781 101.812 368.258 101.966 368.664 102.273C369.07 102.576 369.349 102.974 369.5 103.469C370.094 102.365 370.979 101.812 372.156 101.812C373.917 101.812 374.797 102.898 374.797 105.07V110Z" fill="black"/>
<rect x="320.5" y="69.5" width="79" height="68" stroke="black" stroke-dasharray="5 5"/>
<rect x="320.5" y="138.5" width="79" height="68" fill="white"/>
<path d="M346.859 179H345.547V167.797H346.859V179ZM353.352 178.922C353.049 179.089 352.651 179.172 352.156 179.172C350.755 179.172 350.055 178.391 350.055 176.828V172.094H348.68V171H350.055V169.047L351.336 168.633V171H353.352V172.094H351.336V176.602C351.336 177.138 351.427 177.521 351.609 177.75C351.792 177.979 352.094 178.094 352.516 178.094C352.839 178.094 353.117 178.005 353.352 177.828V178.922ZM361.492 175.32H355.844C355.865 176.211 356.104 176.898 356.562 177.383C357.021 177.867 357.651 178.109 358.453 178.109C359.354 178.109 360.182 177.812 360.938 177.219V178.422C360.234 178.932 359.305 179.188 358.148 179.188C357.018 179.188 356.13 178.826 355.484 178.102C354.839 177.372 354.516 176.349 354.516 175.031C354.516 173.786 354.867 172.773 355.57 171.992C356.279 171.206 357.156 170.812 358.203 170.812C359.25 170.812 360.06 171.151 360.633 171.828C361.206 172.505 361.492 173.445 361.492 174.648V175.32ZM360.18 174.234C360.174 173.495 359.995 172.919 359.641 172.508C359.292 172.096 358.805 171.891 358.18 171.891C357.576 171.891 357.062 172.107 356.641 172.539C356.219 172.971 355.958 173.536 355.859 174.234H360.18ZM374.797 179H373.516V174.406C373.516 173.521 373.378 172.88 373.102 172.484C372.831 172.089 372.372 171.891 371.727 171.891C371.18 171.891 370.714 172.141 370.328 172.641C369.948 173.141 369.758 173.74 369.758 174.438V179H368.477V174.25C368.477 172.677 367.87 171.891 366.656 171.891C366.094 171.891 365.63 172.128 365.266 172.602C364.901 173.07 364.719 173.682 364.719 174.438V179H363.438V171H364.719V172.266H364.75C365.318 171.297 366.146 170.812 367.234 170.812C367.781 170.812 368.258 170.966 368.664 171.273C369.07 171.576 369.349 171.974 369.5 172.469C370.094 171.365 370.979 170.812 372.156 170.812C373.917 170.812 374.797 171.898 374.797 174.07V179Z" fill="black"/>
<rect x="320.5" y="138.5" width="79" height="68" stroke="black" stroke-dasharray="5 5"/>
<path d="M0 0V-0.5H-0.5V0H0ZM720 0H720.5V-0.5H720V0ZM720 207V207.5H720.5V207H720ZM0 207H-0.5V207.5H0V207ZM-0.5 0V2.46429H0.5V0H-0.5ZM-0.5 7.39286V12.3214H0.5V7.39286H-0.5ZM-0.5 17.25V22.1786H0.5V17.25H-0.5ZM-0.5 27.1071V32.0357H0.5V27.1071H-0.5ZM-0.5 36.9643V41.8929H0.5V36.9643H-0.5ZM-0.5 46.8214V51.75H0.5V46.8214H-0.5ZM-0.5 56.6786V61.6071H0.5V56.6786H-0.5ZM-0.5 66.5357V71.4643H0.5V66.5357H-0.5ZM-0.5 76.3929V81.3214H0.5V76.3929H-0.5ZM-0.5 86.25V91.1786H0.5V86.25H-0.5ZM-0.5 96.1071V101.036H0.5V96.1071H-0.5ZM-0.5 105.964V110.893H0.5V105.964H-0.5ZM-0.5 115.821V120.75H0.5V115.821H-0.5ZM-0.5 125.679V130.607H0.5V125.679H-0.5ZM-0.5 135.536V140.464H0.5V135.536H-0.5ZM-0.5 145.393V150.321H0.5V145.393H-0.5ZM-0.5 155.25V160.179H0.5V155.25H-0.5ZM-0.5 165.107V170.036H0.5V165.107H-0.5ZM-0.5 174.964V179.893H0.5V174.964H-0.5ZM-0.5 184.821V189.75H0.5V184.821H-0.5ZM-0.5 194.679V199.607H0.5V194.679H-0.5ZM-0.5 204.536V207H0.5V204.536H-0.5ZM0 207.5H2.5V206.5H0V207.5ZM7.5 207.5H12.5V206.5H7.5V207.5ZM17.5 207.5H22.5V206.5H17.5V207.5ZM27.5 207.5H32.5V206.5H27.5V207.5ZM37.5 207.5H42.5V206.5H37.5V207.5ZM47.5 207.5H52.5V206.5H47.5V207.5ZM57.5 207.5H62.5V206.5H57.5V207.5ZM67.5 207.5H72.5V206.5H67.5V207.5ZM77.5 207.5H82.5V206.5H77.5V207.5ZM87.5 207.5H92.5V206.5H87.5V207.5ZM97.5 207.5H102.5V206.5H97.5V207.5ZM107.5 207.5H112.5V206.5H107.5V207.5ZM117.5 207.5H122.5V206.5H117.5V207.5ZM127.5 207.5H132.5V206.5H127.5V207.5ZM137.5 207.5H142.5V206.5H137.5V207.5ZM147.5 207.5H152.5V206.5H147.5V207.5ZM157.5 207.5H162.5V206.5H157.5V207.5ZM167.5 207.5H172.5V206.5H167.5V207.5ZM177.5 207.5H182.5V206.5H177.5V207.5ZM187.5 207.5H192.5V206.5H187.5V207.5ZM197.5 207.5H202.5V206.5H197.5V207.5ZM207.5 207.5H212.5V206.5H207.5V207.5ZM217.5 207.5H222.5V206.5H217.5V207.5ZM227.5 207.5H232.5V206.5H227.5V207.5ZM237.5 207.5H242.5V206.5H237.5V207.5ZM247.5 207.5H252.5V206.5H247.5V207.5ZM257.5 207.5H262.5V206.5H257.5V207.5ZM267.5 207.5H272.5V206.5H267.5V207.5ZM277.5 207.5H282.5V206.5H277.5V207.5ZM287.5 207.5H292.5V206.5H287.5V207.5ZM297.5 207.5H302.5V206.5H297.5V207.5ZM307.5 207.5H312.5V206.5H307.5V207.5ZM317.5 207.5H322.5V206.5H317.5V207.5ZM327.5 207.5H332.5V206.5H327.5V207.5ZM337.5 207.5H342.5V206.5H337.5V207.5ZM347.5 207.5H352.5V206.5H347.5V207.5ZM357.5 207.5H362.5V206.5H357.5V207.5ZM367.5 207.5H372.5V206.5H367.5V207.5ZM377.5 207.5H382.5V206.5H377.5V207.5ZM387.5 207.5H392.5V206.5H387.5V207.5ZM397.5 207.5H402.5V206.5H397.5V207.5ZM407.5 207.5H412.5V206.5H407.5V207.5ZM417.5 207.5H422.5V206.5H417.5V207.5ZM427.5 207.5H432.5V206.5H427.5V207.5ZM437.5 207.5H442.5V206.5H437.5V207.5ZM447.5 207.5H452.5V206.5H447.5V207.5ZM457.5 207.5H462.5V206.5H457.5V207.5ZM467.5 207.5H472.5V206.5H467.5V207.5ZM477.5 207.5H482.5V206.5H477.5V207.5ZM487.5 207.5H492.5V206.5H487.5V207.5ZM497.5 207.5H502.5V206.5H497.5V207.5ZM507.5 207.5H512.5V206.5H507.5V207.5ZM517.5 207.5H522.5V206.5H517.5V207.5ZM527.5 207.5H532.5V206.5H527.5V207.5ZM537.5 207.5H542.5V206.5H537.5V207.5ZM547.5 207.5H552.5V206.5H547.5V207.5ZM557.5 207.5H562.5V206.5H557.5V207.5ZM567.5 207.5H572.5V206.5H567.5V207.5ZM577.5 207.5H582.5V206.5H577.5V207.5ZM587.5 207.5H592.5V206.5H587.5V207.5ZM597.5 207.5H602.5V206.5H597.5V207.5ZM607.5 207.5H612.5V206.5H607.5V207.5ZM617.5 207.5H622.5V206.5H617.5V207.5ZM627.5 207.5H632.5V206.5H627.5V207.5ZM637.5 207.5H642.5V206.5H637.5V207.5ZM647.5 207.5H652.5V206.5H647.5V207.5ZM657.5 207.5H662.5V206.5H657.5V207.5ZM667.5 207.5H672.5V206.5H667.5V207.5ZM677.5 207.5H682.5V206.5H677.5V207.5ZM687.5 207.5H692.5V206.5H687.5V207.5ZM697.5 207.5H702.5V206.5H697.5V207.5ZM707.5 207.5H712.5V206.5H707.5V207.5ZM717.5 207.5H720V206.5H717.5V207.5ZM720.5 207V204.536H719.5V207H720.5ZM720.5 199.607V194.679H719.5V199.607H720.5ZM720.5 189.75V184.821H719.5V189.75H720.5ZM720.5 179.893V174.964H719.5V179.893H720.5ZM720.5 170.036V165.107H719.5V170.036H720.5ZM720.5 160.179V155.25H719.5V160.179H720.5ZM720.5 150.321V145.393H719.5V150.321H720.5ZM720.5 140.464V135.536H719.5V140.464H720.5ZM720.5 130.607V125.679H719.5V130.607H720.5ZM720.5 120.75V115.821H719.5V120.75H720.5ZM720.5 110.893V105.964H719.5V110.893H720.5ZM720.5 101.036V96.1071H719.5V101.036H720.5ZM720.5 91.1786V86.25H719.5V91.1786H720.5ZM720.5 81.3214V76.3928H719.5V81.3214H720.5ZM720.5 71.4643V66.5357H719.5V71.4643H720.5ZM720.5 61.6071V56.6785H719.5V61.6071H720.5ZM720.5 51.75V46.8214H719.5V51.75H720.5ZM720.5 41.8928V36.9642H719.5V41.8928H720.5ZM720.5 32.0357V27.1071H719.5V32.0357H720.5ZM720.5 22.1785V17.25H719.5V22.1785H720.5ZM720.5 12.3214V7.3928H719.5V12.3214H720.5ZM720.5 2.46424V0H719.5V2.46424H720.5ZM720 -0.5H717.5V0.5H720V-0.5ZM712.5 -0.5H707.5V0.5H712.5V-0.5ZM702.5 -0.5H697.5V0.5H702.5V-0.5ZM692.5 -0.5H687.5V0.5H692.5V-0.5ZM682.5 -0.5H677.5V0.5H682.5V-0.5ZM672.5 -0.5H667.5V0.5H672.5V-0.5ZM662.5 -0.5H657.5V0.5H662.5V-0.5ZM652.5 -0.5H647.5V0.5H652.5V-0.5ZM642.5 -0.5H637.5V0.5H642.5V-0.5ZM632.5 -0.5H627.5V0.5H632.5V-0.5ZM622.5 -0.5H617.5V0.5H622.5V-0.5ZM612.5 -0.5H607.5V0.5H612.5V-0.5ZM602.5 -0.5H597.5V0.5H602.5V-0.5ZM592.5 -0.5H587.5V0.5H592.5V-0.5ZM582.5 -0.5H577.5V0.5H582.5V-0.5ZM572.5 -0.5H567.5V0.5H572.5V-0.5ZM562.5 -0.5H557.5V0.5H562.5V-0.5ZM552.5 -0.5H547.5V0.5H552.5V-0.5ZM542.5 -0.5H537.5V0.5H542.5V-0.5ZM532.5 -0.5H527.5V0.5H532.5V-0.5ZM522.5 -0.5H517.5V0.5H522.5V-0.5ZM512.5 -0.5H507.5V0.5H512.5V-0.5ZM502.5 -0.5H497.5V0.5H502.5V-0.5ZM492.5 -0.5H487.5V0.5H492.5V-0.5ZM482.5 -0.5H477.5V0.5H482.5V-0.5ZM472.5 -0.5H467.5V0.5H472.5V-0.5ZM462.5 -0.5H457.5V0.5H462.5V-0.5ZM452.5 -0.5H447.5V0.5H452.5V-0.5ZM442.5 -0.5H437.5V0.5H442.5V-0.5ZM432.5 -0.5H427.5V0.5H432.5V-0.5ZM422.5 -0.5H417.5V0.5H422.5V-0.5ZM412.5 -0.5H407.5V0.5H412.5V-0.5ZM402.5 -0.5H397.5V0.5H402.5V-0.5ZM392.5 -0.5H387.5V0.5H392.5V-0.5ZM382.5 -0.5H377.5V0.5H382.5V-0.5ZM372.5 -0.5H367.5V0.5H372.5V-0.5ZM362.5 -0.5H357.5V0.5H362.5V-0.5ZM352.5 -0.5H347.5V0.5H352.5V-0.5ZM342.5 -0.5H337.5V0.5H342.5V-0.5ZM332.5 -0.5H327.5V0.5H332.5V-0.5ZM322.5 -0.5H317.5V0.5H322.5V-0.5ZM312.5 -0.5H307.5V0.5H312.5V-0.5ZM302.5 -0.5H297.5V0.5H302.5V-0.5ZM292.5 -0.5H287.5V0.5H292.5V-0.5ZM282.5 -0.5H277.5V0.5H282.5V-0.5ZM272.5 -0.5H267.5V0.5H272.5V-0.5ZM262.5 -0.5H257.5V0.5H262.5V-0.5ZM252.5 -0.5H247.5V0.5H252.5V-0.5ZM242.5 -0.5H237.5V0.5H242.5V-0.5ZM232.5 -0.5H227.5V0.5H232.5V-0.5ZM222.5 -0.5H217.5V0.5H222.5V-0.5ZM212.5 -0.5H207.5V0.5H212.5V-0.5ZM202.5 -0.5H197.5V0.5H202.5V-0.5ZM192.5 -0.5H187.5V0.5H192.5V-0.5ZM182.5 -0.5H177.5V0.5H182.5V-0.5ZM172.5 -0.5H167.5V0.5H172.5V-0.5ZM162.5 -0.5H157.5V0.5H162.5V-0.5ZM152.5 -0.5H147.5V0.5H152.5V-0.5ZM142.5 -0.5H137.5V0.5H142.5V-0.5ZM132.5 -0.5H127.5V0.5H132.5V-0.5ZM122.5 -0.5H117.5V0.5H122.5V-0.5ZM112.5 -0.5H107.5V0.5H112.5V-0.5ZM102.5 -0.5H97.5V0.5H102.5V-0.5ZM92.5 -0.5H87.5V0.5H92.5V-0.5ZM82.5 -0.5H77.5V0.5H82.5V-0.5ZM72.5 -0.5H67.5V0.5H72.5V-0.5ZM62.5 -0.5H57.5V0.5H62.5V-0.5ZM52.5 -0.5H47.5V0.5H52.5V-0.5ZM42.5 -0.5H37.5V0.5H42.5V-0.5ZM32.5 -0.5H27.5V0.5H32.5V-0.5ZM22.5 -0.5H17.5V0.5H22.5V-0.5ZM12.5 -0.5H7.50001V0.5H12.5V-0.5ZM2.49999 -0.5H0V0.5H2.49999V-0.5ZM0 0V-1H-1V0H0ZM720 0H721V-1H720V0ZM720 207V208H721V207H720ZM0 207H-1V208H0V207ZM-1 0V2.46429H1V0H-1ZM-1 7.39286V12.3214H1V7.39286H-1ZM-1 17.25V22.1786H1V17.25H-1ZM-1 27.1071V32.0357H1V27.1071H-1ZM-1 36.9643V41.8929H1V36.9643H-1ZM-1 46.8214V51.75H1V46.8214H-1ZM-1 56.6786V61.6071H1V56.6786H-1ZM-1 66.5357V71.4643H1V66.5357H-1ZM-1 76.3929V81.3214H1V76.3929H-1ZM-1 86.25V91.1786H1V86.25H-1ZM-1 96.1071V101.036H1V96.1071H-1ZM-1 105.964V110.893H1V105.964H-1ZM-1 115.821V120.75H1V115.821H-1ZM-1 125.679V130.607H1V125.679H-1ZM-1 135.536V140.464H1V135.536H-1ZM-1 145.393V150.321H1V145.393H-1ZM-1 155.25V160.179H1V155.25H-1ZM-1 165.107V170.036H1V165.107H-1ZM-1 174.964V179.893H1V174.964H-1ZM-1 184.821V189.75H1V184.821H-1ZM-1 194.679V199.607H1V194.679H-1ZM-1 204.536V207H1V204.536H-1ZM0 208H2.5V206H0V208ZM7.5 208H12.5V206H7.5V208ZM17.5 208H22.5V206H17.5V208ZM27.5 208H32.5V206H27.5V208ZM37.5 208H42.5V206H37.5V208ZM47.5 208H52.5V206H47.5V208ZM57.5 208H62.5V206H57.5V208ZM67.5 208H72.5V206H67.5V208ZM77.5 208H82.5V206H77.5V208ZM87.5 208H92.5V206H87.5V208ZM97.5 208H102.5V206H97.5V208ZM107.5 208H112.5V206H107.5V208ZM117.5 208H122.5V206H117.5V208ZM127.5 208H132.5V206H127.5V208ZM137.5 208H142.5V206H137.5V208ZM147.5 208H152.5V206H147.5V208ZM157.5 208H162.5V206H157.5V208ZM167.5 208H172.5V206H167.5V208ZM177.5 208H182.5V206H177.5V208ZM187.5 208H192.5V206H187.5V208ZM197.5 208H202.5V206H197.5V208ZM207.5 208H212.5V206H207.5V208ZM217.5 208H222.5V206H217.5V208ZM227.5 208H232.5V206H227.5V208ZM237.5 208H242.5V206H237.5V208ZM247.5 208H252.5V206H247.5V208ZM257.5 208H262.5V206H257.5V208ZM267.5 208H272.5V206H267.5V208ZM277.5 208H282.5V206H277.5V208ZM287.5 208H292.5V206H287.5V208ZM297.5 208H302.5V206H297.5V208ZM307.5 208H312.5V206H307.5V208ZM317.5 208H322.5V206H317.5V208ZM327.5 208H332.5V206H327.5V208ZM337.5 208H342.5V206H337.5V208ZM347.5 208H352.5V206H347.5V208ZM357.5 208H362.5V206H357.5V208ZM367.5 208H372.5V206H367.5V208ZM377.5 208H382.5V206H377.5V208ZM387.5 208H392.5V206H387.5V208ZM397.5 208H402.5V206H397.5V208ZM407.5 208H412.5V206H407.5V208ZM417.5 208H422.5V206H417.5V208ZM427.5 208H432.5V206H427.5V208ZM437.5 208H442.5V206H437.5V208ZM447.5 208H452.5V206H447.5V208ZM457.5 208H462.5V206H457.5V208ZM467.5 208H472.5V206H467.5V208ZM477.5 208H482.5V206H477.5V208ZM487.5 208H492.5V206H487.5V208ZM497.5 208H502.5V206H497.5V208ZM507.5 208H512.5V206H507.5V208ZM517.5 208H522.5V206H517.5V208ZM527.5 208H532.5V206H527.5V208ZM537.5 208H542.5V206H537.5V208ZM547.5 208H552.5V206H547.5V208ZM557.5 208H562.5V206H557.5V208ZM567.5 208H572.5V206H567.5V208ZM577.5 208H582.5V206H577.5V208ZM587.5 208H592.5V206H587.5V208ZM597.5 208H602.5V206H597.5V208ZM607.5 208H612.5V206H607.5V208ZM617.5 208H622.5V206H617.5V208ZM627.5 208H632.5V206H627.5V208ZM637.5 208H642.5V206H637.5V208ZM647.5 208H652.5V206H647.5V208ZM657.5 208H662.5V206H657.5V208ZM667.5 208H672.5V206H667.5V208ZM677.5 208H682.5V206H677.5V208ZM687.5 208H692.5V206H687.5V208ZM697.5 208H702.5V206H697.5V208ZM707.5 208H712.5V206H707.5V208ZM717.5 208H720V206H717.5V208ZM721 207V204.536H719V207H721ZM721 199.607V194.679H719V199.607H721ZM721 189.75V184.821H719V189.75H721ZM721 179.893V174.964H719V179.893H721ZM721 170.036V165.107H719V170.036H721ZM721 160.179V155.25H719V160.179H721ZM721 150.321V145.393H719V150.321H721ZM721 140.464V135.536H719V140.464H721ZM721 130.607V125.679H719V130.607H721ZM721 120.75V115.821H719V120.75H721ZM721 110.893V105.964H719V110.893H721ZM721 101.036V96.1071H719V101.036H721ZM721 91.1786V86.25H719V91.1786H721ZM721 81.3214V76.3928H719V81.3214H721ZM721 71.4643V66.5357H719V71.4643H721ZM721 61.6071V56.6785H719V61.6071H721ZM721 51.75V46.8214H719V51.75H721ZM721 41.8928V36.9642H719V41.8928H721ZM721 32.0357V27.1071H719V32.0357H721ZM721 22.1785V17.25H719V22.1785H721ZM721 12.3214V7.3928H719V12.3214H721ZM721 2.46424V0H719V2.46424H721ZM720 -1H717.5V1H720V-1ZM712.5 -1H707.5V1H712.5V-1ZM702.5 -1H697.5V1H702.5V-1ZM692.5 -1H687.5V1H692.5V-1ZM682.5 -1H677.5V1H682.5V-1ZM672.5 -1H667.5V1H672.5V-1ZM662.5 -1H657.5V1H662.5V-1ZM652.5 -1H647.5V1H652.5V-1ZM642.5 -1H637.5V1H642.5V-1ZM632.5 -1H627.5V1H632.5V-1ZM622.5 -1H617.5V1H622.5V-1ZM612.5 -1H607.5V1H612.5V-1ZM602.5 -1H597.5V1H602.5V-1ZM592.5 -1H587.5V1H592.5V-1ZM582.5 -1H577.5V1H582.5V-1ZM572.5 -1H567.5V1H572.5V-1ZM562.5 -1H557.5V1H562.5V-1ZM552.5 -1H547.5V1H552.5V-1ZM542.5 -1H537.5V1H542.5V-1ZM532.5 -1H527.5V1H532.5V-1ZM522.5 -1H517.5V1H522.5V-1ZM512.5 -1H507.5V1H512.5V-1ZM502.5 -1H497.5V1H502.5V-1ZM492.5 -1H487.5V1H492.5V-1ZM482.5 -1H477.5V1H482.5V-1ZM472.5 -1H467.5V1H472.5V-1ZM462.5 -1H457.5V1H462.5V-1ZM452.5 -1H447.5V1H452.5V-1ZM442.5 -1H437.5V1H442.5V-1ZM432.5 -1H427.5V1H432.5V-1ZM422.5 -1H417.5V1H422.5V-1ZM412.5 -1H407.5V1H412.5V-1ZM402.5 -1H397.5V1H402.5V-1ZM392.5 -1H387.5V1H392.5V-1ZM382.5 -1H377.5V1H382.5V-1ZM372.5 -1H367.5V1H372.5V-1ZM362.5 -1H357.5V1H362.5V-1ZM352.5 -1H347.5V1H352.5V-1ZM342.5 -1H337.5V1H342.5V-1ZM332.5 -1H327.5V1H332.5V-1ZM322.5 -1H317.5V1H322.5V-1ZM312.5 -1H307.5V1H312.5V-1ZM302.5 -1H297.5V1H302.5V-1ZM292.5 -1H287.5V1H292.5V-1ZM282.5 -1H277.5V1H282.5V-1ZM272.5 -1H267.5V1H272.5V-1ZM262.5 -1H257.5V1H262.5V-1ZM252.5 -1H247.5V1H252.5V-1ZM242.5 -1H237.5V1H242.5V-1ZM232.5 -1H227.5V1H232.5V-1ZM222.5 -1H217.5V1H222.5V-1ZM212.5 -1H207.5V1H212.5V-1ZM202.5 -1H197.5V1H202.5V-1ZM192.5 -1H187.5V1H192.5V-1ZM182.5 -1H177.5V1H182.5V-1ZM172.5 -1H167.5V1H172.5V-1ZM162.5 -1H157.5V1H162.5V-1ZM152.5 -1H147.5V1H152.5V-1ZM142.5 -1H137.5V1H142.5V-1ZM132.5 -1H127.5V1H132.5V-1ZM122.5 -1H117.5V1H122.5V-1ZM112.5 -1H107.5V1H112.5V-1ZM102.5 -1H97.5V1H102.5V-1ZM92.5 -1H87.5V1H92.5V-1ZM82.5 -1H77.5V1H82.5V-1ZM72.5 -1H67.5V1H72.5V-1ZM62.5 -1H57.5V1H62.5V-1ZM52.5 -1H47.5V1H52.5V-1ZM42.5 -1H37.5V1H42.5V-1ZM32.5 -1H27.5V1H32.5V-1ZM22.5 -1H17.5V1H22.5V-1ZM12.5 -1H7.50001V1H12.5V-1ZM2.49999 -1H0V1H2.49999V-1Z" fill="#7F20D2"/>
</svg>
