<svg width="720" height="287" viewBox="0 0 720 287" fill="none" xmlns="http://www.w3.org/2000/svg">
<path d="M0 0H720V287H0V0Z" fill="#D9BCF2"/>
<rect x="0.5" y="0.5" width="719" height="68" fill="white"/>
<path d="M346.859 41H345.547V29.7969H346.859V41ZM353.352 40.9219C353.049 41.0885 352.651 41.1719 352.156 41.1719C350.755 41.1719 350.055 40.3906 350.055 38.8281V34.0938H348.68V33H350.055V31.0469L351.336 30.6328V33H353.352V34.0938H351.336V38.6016C351.336 39.138 351.427 39.5208 351.609 39.75C351.792 39.9792 352.094 40.0938 352.516 40.0938C352.839 40.0938 353.117 40.0052 353.352 39.8281V40.9219ZM361.492 37.3203H355.844C355.865 38.2109 356.104 38.8984 356.562 39.3828C357.021 39.8672 357.651 40.1094 358.453 40.1094C359.354 40.1094 360.182 39.8125 360.938 39.2188V40.4219C360.234 40.9323 359.305 41.1875 358.148 41.1875C357.018 41.1875 356.13 40.8255 355.484 40.1016C354.839 39.3724 354.516 38.349 354.516 37.0312C354.516 35.7865 354.867 34.7734 355.57 33.9922C356.279 33.2057 357.156 32.8125 358.203 32.8125C359.25 32.8125 360.06 33.151 360.633 33.8281C361.206 34.5052 361.492 35.4453 361.492 36.6484V37.3203ZM360.18 36.2344C360.174 35.4948 359.995 34.9193 359.641 34.5078C359.292 34.0964 358.805 33.8906 358.18 33.8906C357.576 33.8906 357.062 34.1068 356.641 34.5391C356.219 34.9714 355.958 35.5365 355.859 36.2344H360.18ZM374.797 41H373.516V36.4062C373.516 35.5208 373.378 34.8802 373.102 34.4844C372.831 34.0885 372.372 33.8906 371.727 33.8906C371.18 33.8906 370.714 34.1406 370.328 34.6406C369.948 35.1406 369.758 35.7396 369.758 36.4375V41H368.477V36.25C368.477 34.6771 367.87 33.8906 366.656 33.8906C366.094 33.8906 365.63 34.1276 365.266 34.6016C364.901 35.0703 364.719 35.6823 364.719 36.4375V41H363.438V33H364.719V34.2656H364.75C365.318 33.2969 366.146 32.8125 367.234 32.8125C367.781 32.8125 368.258 32.9661 368.664 33.2734C369.07 33.5755 369.349 33.974 369.5 34.4688C370.094 33.3646 370.979 32.8125 372.156 32.8125C373.917 32.8125 374.797 33.8984 374.797 36.0703V41Z" fill="black"/>
<rect x="0.5" y="0.5" width="719" height="68" stroke="black" stroke-dasharray="5 5"/>
<rect x="0.5" y="85.5" width="719" height="116" fill="white"/>
<path d="M346.859 150H345.547V138.797H346.859V150ZM353.352 149.922C353.049 150.089 352.651 150.172 352.156 150.172C350.755 150.172 350.055 149.391 350.055 147.828V143.094H348.68V142H350.055V140.047L351.336 139.633V142H353.352V143.094H351.336V147.602C351.336 148.138 351.427 148.521 351.609 148.75C351.792 148.979 352.094 149.094 352.516 149.094C352.839 149.094 353.117 149.005 353.352 148.828V149.922ZM361.492 146.32H355.844C355.865 147.211 356.104 147.898 356.562 148.383C357.021 148.867 357.651 149.109 358.453 149.109C359.354 149.109 360.182 148.812 360.938 148.219V149.422C360.234 149.932 359.305 150.188 358.148 150.188C357.018 150.188 356.13 149.826 355.484 149.102C354.839 148.372 354.516 147.349 354.516 146.031C354.516 144.786 354.867 143.773 355.57 142.992C356.279 142.206 357.156 141.812 358.203 141.812C359.25 141.812 360.06 142.151 360.633 142.828C361.206 143.505 361.492 144.445 361.492 145.648V146.32ZM360.18 145.234C360.174 144.495 359.995 143.919 359.641 143.508C359.292 143.096 358.805 142.891 358.18 142.891C357.576 142.891 357.062 143.107 356.641 143.539C356.219 143.971 355.958 144.536 355.859 145.234H360.18ZM374.797 150H373.516V145.406C373.516 144.521 373.378 143.88 373.102 143.484C372.831 143.089 372.372 142.891 371.727 142.891C371.18 142.891 370.714 143.141 370.328 143.641C369.948 144.141 369.758 144.74 369.758 145.438V150H368.477V145.25C368.477 143.677 367.87 142.891 366.656 142.891C366.094 142.891 365.63 143.128 365.266 143.602C364.901 144.07 364.719 144.682 364.719 145.438V150H363.438V142H364.719V143.266H364.75C365.318 142.297 366.146 141.812 367.234 141.812C367.781 141.812 368.258 141.966 368.664 142.273C369.07 142.576 369.349 142.974 369.5 143.469C370.094 142.365 370.979 141.812 372.156 141.812C373.917 141.812 374.797 142.898 374.797 145.07V150Z" fill="black"/>
<rect x="0.5" y="85.5" width="719" height="116" stroke="black" stroke-dasharray="5 5"/>
<rect x="0.5" y="218.5" width="719" height="68" fill="white"/>
<path d="M346.859 259H345.547V247.797H346.859V259ZM353.352 258.922C353.049 259.089 352.651 259.172 352.156 259.172C350.755 259.172 350.055 258.391 350.055 256.828V252.094H348.68V251H350.055V249.047L351.336 248.633V251H353.352V252.094H351.336V256.602C351.336 257.138 351.427 257.521 351.609 257.75C351.792 257.979 352.094 258.094 352.516 258.094C352.839 258.094 353.117 258.005 353.352 257.828V258.922ZM361.492 255.32H355.844C355.865 256.211 356.104 256.898 356.562 257.383C357.021 257.867 357.651 258.109 358.453 258.109C359.354 258.109 360.182 257.812 360.938 257.219V258.422C360.234 258.932 359.305 259.188 358.148 259.188C357.018 259.188 356.13 258.826 355.484 258.102C354.839 257.372 354.516 256.349 354.516 255.031C354.516 253.786 354.867 252.773 355.57 251.992C356.279 251.206 357.156 250.812 358.203 250.812C359.25 250.812 360.06 251.151 360.633 251.828C361.206 252.505 361.492 253.445 361.492 254.648V255.32ZM360.18 254.234C360.174 253.495 359.995 252.919 359.641 252.508C359.292 252.096 358.805 251.891 358.18 251.891C357.576 251.891 357.062 252.107 356.641 252.539C356.219 252.971 355.958 253.536 355.859 254.234H360.18ZM374.797 259H373.516V254.406C373.516 253.521 373.378 252.88 373.102 252.484C372.831 252.089 372.372 251.891 371.727 251.891C371.18 251.891 370.714 252.141 370.328 252.641C369.948 253.141 369.758 253.74 369.758 254.438V259H368.477V254.25C368.477 252.677 367.87 251.891 366.656 251.891C366.094 251.891 365.63 252.128 365.266 252.602C364.901 253.07 364.719 253.682 364.719 254.438V259H363.438V251H364.719V252.266H364.75C365.318 251.297 366.146 250.812 367.234 250.812C367.781 250.812 368.258 250.966 368.664 251.273C369.07 251.576 369.349 251.974 369.5 252.469C370.094 251.365 370.979 250.812 372.156 250.812C373.917 250.812 374.797 251.898 374.797 254.07V259Z" fill="black"/>
<rect x="0.5" y="218.5" width="719" height="68" stroke="black" stroke-dasharray="5 5"/>
<path d="M0 0V-0.5H-0.5V0H0ZM720 0H720.5V-0.5H720V0ZM720 287V287.5H720.5V287H720ZM0 287H-0.5V287.5H0V287ZM-0.5 0V2.47414H0.5V0H-0.5ZM-0.5 7.42241V12.3707H0.5V7.42241H-0.5ZM-0.5 17.319V22.2672H0.5V17.319H-0.5ZM-0.5 27.2155V32.1638H0.5V27.2155H-0.5ZM-0.5 37.1121V42.0604H0.5V37.1121H-0.5ZM-0.5 47.0086V51.9569H0.5V47.0086H-0.5ZM-0.5 56.9052V61.8535H0.5V56.9052H-0.5ZM-0.5 66.8017V71.75H0.5V66.8017H-0.5ZM-0.5 76.6983V81.6465H0.5V76.6983H-0.5ZM-0.5 86.5948V91.5431H0.5V86.5948H-0.5ZM-0.5 96.4914V101.44H0.5V96.4914H-0.5ZM-0.5 106.388V111.336H0.5V106.388H-0.5ZM-0.5 116.284V121.233H0.5V116.284H-0.5ZM-0.5 126.181V131.129H0.5V126.181H-0.5ZM-0.5 136.078V141.026H0.5V136.078H-0.5ZM-0.5 145.974V150.922H0.5V145.974H-0.5ZM-0.5 155.871V160.819H0.5V155.871H-0.5ZM-0.5 165.767V170.715H0.5V165.767H-0.5ZM-0.5 175.664V180.612H0.5V175.664H-0.5ZM-0.5 185.56V190.509H0.5V185.56H-0.5ZM-0.5 195.457V200.405H0.5V195.457H-0.5ZM-0.5 205.353V210.302H0.5V205.353H-0.5ZM-0.5 215.25V220.198H0.5V215.25H-0.5ZM-0.5 225.146V230.095H0.5V225.146H-0.5ZM-0.5 235.043V239.991H0.5V235.043H-0.5ZM-0.5 244.94V249.888H0.5V244.94H-0.5ZM-0.5 254.836V259.784H0.5V254.836H-0.5ZM-0.5 264.733V269.681H0.5V264.733H-0.5ZM-0.5 274.629V279.577H0.5V274.629H-0.5ZM-0.5 284.526V287H0.5V284.526H-0.5ZM0 287.5H2.5V286.5H0V287.5ZM7.5 287.5H12.5V286.5H7.5V287.5ZM17.5 287.5H22.5V286.5H17.5V287.5ZM27.5 287.5H32.5V286.5H27.5V287.5ZM37.5 287.5H42.5V286.5H37.5V287.5ZM47.5 287.5H52.5V286.5H47.5V287.5ZM57.5 287.5H62.5V286.5H57.5V287.5ZM67.5 287.5H72.5V286.5H67.5V287.5ZM77.5 287.5H82.5V286.5H77.5V287.5ZM87.5 287.5H92.5V286.5H87.5V287.5ZM97.5 287.5H102.5V286.5H97.5V287.5ZM107.5 287.5H112.5V286.5H107.5V287.5ZM117.5 287.5H122.5V286.5H117.5V287.5ZM127.5 287.5H132.5V286.5H127.5V287.5ZM137.5 287.5H142.5V286.5H137.5V287.5ZM147.5 287.5H152.5V286.5H147.5V287.5ZM157.5 287.5H162.5V286.5H157.5V287.5ZM167.5 287.5H172.5V286.5H167.5V287.5ZM177.5 287.5H182.5V286.5H177.5V287.5ZM187.5 287.5H192.5V286.5H187.5V287.5ZM197.5 287.5H202.5V286.5H197.5V287.5ZM207.5 287.5H212.5V286.5H207.5V287.5ZM217.5 287.5H222.5V286.5H217.5V287.5ZM227.5 287.5H232.5V286.5H227.5V287.5ZM237.5 287.5H242.5V286.5H237.5V287.5ZM247.5 287.5H252.5V286.5H247.5V287.5ZM257.5 287.5H262.5V286.5H257.5V287.5ZM267.5 287.5H272.5V286.5H267.5V287.5ZM277.5 287.5H282.5V286.5H277.5V287.5ZM287.5 287.5H292.5V286.5H287.5V287.5ZM297.5 287.5H302.5V286.5H297.5V287.5ZM307.5 287.5H312.5V286.5H307.5V287.5ZM317.5 287.5H322.5V286.5H317.5V287.5ZM327.5 287.5H332.5V286.5H327.5V287.5ZM337.5 287.5H342.5V286.5H337.5V287.5ZM347.5 287.5H352.5V286.5H347.5V287.5ZM357.5 287.5H362.5V286.5H357.5V287.5ZM367.5 287.5H372.5V286.5H367.5V287.5ZM377.5 287.5H382.5V286.5H377.5V287.5ZM387.5 287.5H392.5V286.5H387.5V287.5ZM397.5 287.5H402.5V286.5H397.5V287.5ZM407.5 287.5H412.5V286.5H407.5V287.5ZM417.5 287.5H422.5V286.5H417.5V287.5ZM427.5 287.5H432.5V286.5H427.5V287.5ZM437.5 287.5H442.5V286.5H437.5V287.5ZM447.5 287.5H452.5V286.5H447.5V287.5ZM457.5 287.5H462.5V286.5H457.5V287.5ZM467.5 287.5H472.5V286.5H467.5V287.5ZM477.5 287.5H482.5V286.5H477.5V287.5ZM487.5 287.5H492.5V286.5H487.5V287.5ZM497.5 287.5H502.5V286.5H497.5V287.5ZM507.5 287.5H512.5V286.5H507.5V287.5ZM517.5 287.5H522.5V286.5H517.5V287.5ZM527.5 287.5H532.5V286.5H527.5V287.5ZM537.5 287.5H542.5V286.5H537.5V287.5ZM547.5 287.5H552.5V286.5H547.5V287.5ZM557.5 287.5H562.5V286.5H557.5V287.5ZM567.5 287.5H572.5V286.5H567.5V287.5ZM577.5 287.5H582.5V286.5H577.5V287.5ZM587.5 287.5H592.5V286.5H587.5V287.5ZM597.5 287.5H602.5V286.5H597.5V287.5ZM607.5 287.5H612.5V286.5H607.5V287.5ZM617.5 287.5H622.5V286.5H617.5V287.5ZM627.5 287.5H632.5V286.5H627.5V287.5ZM637.5 287.5H642.5V286.5H637.5V287.5ZM647.5 287.5H652.5V286.5H647.5V287.5ZM657.5 287.5H662.5V286.5H657.5V287.5ZM667.5 287.5H672.5V286.5H667.5V287.5ZM677.5 287.5H682.5V286.5H677.5V287.5ZM687.5 287.5H692.5V286.5H687.5V287.5ZM697.5 287.5H702.5V286.5H697.5V287.5ZM707.5 287.5H712.5V286.5H707.5V287.5ZM717.5 287.5H720V286.5H717.5V287.5ZM720.5 287V284.526H719.5V287H720.5ZM720.5 279.578V274.629H719.5V279.578H720.5ZM720.5 269.681V264.733H719.5V269.681H720.5ZM720.5 259.784V254.836H719.5V259.784H720.5ZM720.5 249.888V244.94H719.5V249.888H720.5ZM720.5 239.991V235.043H719.5V239.991H720.5ZM720.5 230.095V225.147H719.5V230.095H720.5ZM720.5 220.198V215.25H719.5V220.198H720.5ZM720.5 210.302V205.353H719.5V210.302H720.5ZM720.5 200.405V195.457H719.5V200.405H720.5ZM720.5 190.509V185.56H719.5V190.509H720.5ZM720.5 180.612V175.664H719.5V180.612H720.5ZM720.5 170.716V165.767H719.5V170.716H720.5ZM720.5 160.819V155.871H719.5V160.819H720.5ZM720.5 150.922V145.974H719.5V150.922H720.5ZM720.5 141.026V136.078H719.5V141.026H720.5ZM720.5 131.129V126.181H719.5V131.129H720.5ZM720.5 121.233V116.285H719.5V121.233H720.5ZM720.5 111.336V106.388H719.5V111.336H720.5ZM720.5 101.44V96.4915H719.5V101.44H720.5ZM720.5 91.5432V86.5949H719.5V91.5432H720.5ZM720.5 81.6466V76.6984H719.5V81.6466H720.5ZM720.5 71.7501V66.8018H719.5V71.7501H720.5ZM720.5 61.8535V56.9053H719.5V61.8535H720.5ZM720.5 51.957V47.0087H719.5V51.957H720.5ZM720.5 42.0604V37.1122H719.5V42.0604H720.5ZM720.5 32.1639V27.2156H719.5V32.1639H720.5ZM720.5 22.2674V17.3191H719.5V22.2674H720.5ZM720.5 12.3708V7.42254H719.5V12.3708H720.5ZM720.5 2.47427V0H719.5V2.47427H720.5ZM720 -0.5H717.5V0.5H720V-0.5ZM712.5 -0.5H707.5V0.5H712.5V-0.5ZM702.5 -0.5H697.5V0.5H702.5V-0.5ZM692.5 -0.5H687.5V0.5H692.5V-0.5ZM682.5 -0.5H677.5V0.5H682.5V-0.5ZM672.5 -0.5H667.5V0.5H672.5V-0.5ZM662.5 -0.5H657.5V0.5H662.5V-0.5ZM652.5 -0.5H647.5V0.5H652.5V-0.5ZM642.5 -0.5H637.5V0.5H642.5V-0.5ZM632.5 -0.5H627.5V0.5H632.5V-0.5ZM622.5 -0.5H617.5V0.5H622.5V-0.5ZM612.5 -0.5H607.5V0.5H612.5V-0.5ZM602.5 -0.5H597.5V0.5H602.5V-0.5ZM592.5 -0.5H587.5V0.5H592.5V-0.5ZM582.5 -0.5H577.5V0.5H582.5V-0.5ZM572.5 -0.5H567.5V0.5H572.5V-0.5ZM562.5 -0.5H557.5V0.5H562.5V-0.5ZM552.5 -0.5H547.5V0.5H552.5V-0.5ZM542.5 -0.5H537.5V0.5H542.5V-0.5ZM532.5 -0.5H527.5V0.5H532.5V-0.5ZM522.5 -0.5H517.5V0.5H522.5V-0.5ZM512.5 -0.5H507.5V0.5H512.5V-0.5ZM502.5 -0.5H497.5V0.5H502.5V-0.5ZM492.5 -0.5H487.5V0.5H492.5V-0.5ZM482.5 -0.5H477.5V0.5H482.5V-0.5ZM472.5 -0.5H467.5V0.5H472.5V-0.5ZM462.5 -0.5H457.5V0.5H462.5V-0.5ZM452.5 -0.5H447.5V0.5H452.5V-0.5ZM442.5 -0.5H437.5V0.5H442.5V-0.5ZM432.5 -0.5H427.5V0.5H432.5V-0.5ZM422.5 -0.5H417.5V0.5H422.5V-0.5ZM412.5 -0.5H407.5V0.5H412.5V-0.5ZM402.5 -0.5H397.5V0.5H402.5V-0.5ZM392.5 -0.5H387.5V0.5H392.5V-0.5ZM382.5 -0.5H377.5V0.5H382.5V-0.5ZM372.5 -0.5H367.5V0.5H372.5V-0.5ZM362.5 -0.5H357.5V0.5H362.5V-0.5ZM352.5 -0.5H347.5V0.5H352.5V-0.5ZM342.5 -0.5H337.5V0.5H342.5V-0.5ZM332.5 -0.5H327.5V0.5H332.5V-0.5ZM322.5 -0.5H317.5V0.5H322.5V-0.5ZM312.5 -0.5H307.5V0.5H312.5V-0.5ZM302.5 -0.5H297.5V0.5H302.5V-0.5ZM292.5 -0.5H287.5V0.5H292.5V-0.5ZM282.5 -0.5H277.5V0.5H282.5V-0.5ZM272.5 -0.5H267.5V0.5H272.5V-0.5ZM262.5 -0.5H257.5V0.5H262.5V-0.5ZM252.5 -0.5H247.5V0.5H252.5V-0.5ZM242.5 -0.5H237.5V0.5H242.5V-0.5ZM232.5 -0.5H227.5V0.5H232.5V-0.5ZM222.5 -0.5H217.5V0.5H222.5V-0.5ZM212.5 -0.5H207.5V0.5H212.5V-0.5ZM202.5 -0.5H197.5V0.5H202.5V-0.5ZM192.5 -0.5H187.5V0.5H192.5V-0.5ZM182.5 -0.5H177.5V0.5H182.5V-0.5ZM172.5 -0.5H167.5V0.5H172.5V-0.5ZM162.5 -0.5H157.5V0.5H162.5V-0.5ZM152.5 -0.5H147.5V0.5H152.5V-0.5ZM142.5 -0.5H137.5V0.5H142.5V-0.5ZM132.5 -0.5H127.5V0.5H132.5V-0.5ZM122.5 -0.5H117.5V0.5H122.5V-0.5ZM112.5 -0.5H107.5V0.5H112.5V-0.5ZM102.5 -0.5H97.5V0.5H102.5V-0.5ZM92.5 -0.5H87.5V0.5H92.5V-0.5ZM82.5 -0.5H77.5V0.5H82.5V-0.5ZM72.5 -0.5H67.5V0.5H72.5V-0.5ZM62.5 -0.5H57.5V0.5H62.5V-0.5ZM52.5 -0.5H47.5V0.5H52.5V-0.5ZM42.5 -0.5H37.5V0.5H42.5V-0.5ZM32.5 -0.5H27.5V0.5H32.5V-0.5ZM22.5 -0.5H17.5V0.5H22.5V-0.5ZM12.5 -0.5H7.50001V0.5H12.5V-0.5ZM2.49999 -0.5H0V0.5H2.49999V-0.5ZM0 0V-1H-1V0H0ZM720 0H721V-1H720V0ZM720 287V288H721V287H720ZM0 287H-1V288H0V287ZM-1 0V2.47414H1V0H-1ZM-1 7.42241V12.3707H1V7.42241H-1ZM-1 17.319V22.2672H1V17.319H-1ZM-1 27.2155V32.1638H1V27.2155H-1ZM-1 37.1121V42.0604H1V37.1121H-1ZM-1 47.0086V51.9569H1V47.0086H-1ZM-1 56.9052V61.8535H1V56.9052H-1ZM-1 66.8017V71.75H1V66.8017H-1ZM-1 76.6983V81.6465H1V76.6983H-1ZM-1 86.5948V91.5431H1V86.5948H-1ZM-1 96.4914V101.44H1V96.4914H-1ZM-1 106.388V111.336H1V106.388H-1ZM-1 116.284V121.233H1V116.284H-1ZM-1 126.181V131.129H1V126.181H-1ZM-1 136.078V141.026H1V136.078H-1ZM-1 145.974V150.922H1V145.974H-1ZM-1 155.871V160.819H1V155.871H-1ZM-1 165.767V170.715H1V165.767H-1ZM-1 175.664V180.612H1V175.664H-1ZM-1 185.56V190.509H1V185.56H-1ZM-1 195.457V200.405H1V195.457H-1ZM-1 205.353V210.302H1V205.353H-1ZM-1 215.25V220.198H1V215.25H-1ZM-1 225.146V230.095H1V225.146H-1ZM-1 235.043V239.991H1V235.043H-1ZM-1 244.94V249.888H1V244.94H-1ZM-1 254.836V259.784H1V254.836H-1ZM-1 264.733V269.681H1V264.733H-1ZM-1 274.629V279.577H1V274.629H-1ZM-1 284.526V287H1V284.526H-1ZM0 288H2.5V286H0V288ZM7.5 288H12.5V286H7.5V288ZM17.5 288H22.5V286H17.5V288ZM27.5 288H32.5V286H27.5V288ZM37.5 288H42.5V286H37.5V288ZM47.5 288H52.5V286H47.5V288ZM57.5 288H62.5V286H57.5V288ZM67.5 288H72.5V286H67.5V288ZM77.5 288H82.5V286H77.5V288ZM87.5 288H92.5V286H87.5V288ZM97.5 288H102.5V286H97.5V288ZM107.5 288H112.5V286H107.5V288ZM117.5 288H122.5V286H117.5V288ZM127.5 288H132.5V286H127.5V288ZM137.5 288H142.5V286H137.5V288ZM147.5 288H152.5V286H147.5V288ZM157.5 288H162.5V286H157.5V288ZM167.5 288H172.5V286H167.5V288ZM177.5 288H182.5V286H177.5V288ZM187.5 288H192.5V286H187.5V288ZM197.5 288H202.5V286H197.5V288ZM207.5 288H212.5V286H207.5V288ZM217.5 288H222.5V286H217.5V288ZM227.5 288H232.5V286H227.5V288ZM237.5 288H242.5V286H237.5V288ZM247.5 288H252.5V286H247.5V288ZM257.5 288H262.5V286H257.5V288ZM267.5 288H272.5V286H267.5V288ZM277.5 288H282.5V286H277.5V288ZM287.5 288H292.5V286H287.5V288ZM297.5 288H302.5V286H297.5V288ZM307.5 288H312.5V286H307.5V288ZM317.5 288H322.5V286H317.5V288ZM327.5 288H332.5V286H327.5V288ZM337.5 288H342.5V286H337.5V288ZM347.5 288H352.5V286H347.5V288ZM357.5 288H362.5V286H357.5V288ZM367.5 288H372.5V286H367.5V288ZM377.5 288H382.5V286H377.5V288ZM387.5 288H392.5V286H387.5V288ZM397.5 288H402.5V286H397.5V288ZM407.5 288H412.5V286H407.5V288ZM417.5 288H422.5V286H417.5V288ZM427.5 288H432.5V286H427.5V288ZM437.5 288H442.5V286H437.5V288ZM447.5 288H452.5V286H447.5V288ZM457.5 288H462.5V286H457.5V288ZM467.5 288H472.5V286H467.5V288ZM477.5 288H482.5V286H477.5V288ZM487.5 288H492.5V286H487.5V288ZM497.5 288H502.5V286H497.5V288ZM507.5 288H512.5V286H507.5V288ZM517.5 288H522.5V286H517.5V288ZM527.5 288H532.5V286H527.5V288ZM537.5 288H542.5V286H537.5V288ZM547.5 288H552.5V286H547.5V288ZM557.5 288H562.5V286H557.5V288ZM567.5 288H572.5V286H567.5V288ZM577.5 288H582.5V286H577.5V288ZM587.5 288H592.5V286H587.5V288ZM597.5 288H602.5V286H597.5V288ZM607.5 288H612.5V286H607.5V288ZM617.5 288H622.5V286H617.5V288ZM627.5 288H632.5V286H627.5V288ZM637.5 288H642.5V286H637.5V288ZM647.5 288H652.5V286H647.5V288ZM657.5 288H662.5V286H657.5V288ZM667.5 288H672.5V286H667.5V288ZM677.5 288H682.5V286H677.5V288ZM687.5 288H692.5V286H687.5V288ZM697.5 288H702.5V286H697.5V288ZM707.5 288H712.5V286H707.5V288ZM717.5 288H720V286H717.5V288ZM721 287V284.526H719V287H721ZM721 279.578V274.629H719V279.578H721ZM721 269.681V264.733H719V269.681H721ZM721 259.784V254.836H719V259.784H721ZM721 249.888V244.94H719V249.888H721ZM721 239.991V235.043H719V239.991H721ZM721 230.095V225.147H719V230.095H721ZM721 220.198V215.25H719V220.198H721ZM721 210.302V205.353H719V210.302H721ZM721 200.405V195.457H719V200.405H721ZM721 190.509V185.56H719V190.509H721ZM721 180.612V175.664H719V180.612H721ZM721 170.716V165.767H719V170.716H721ZM721 160.819V155.871H719V160.819H721ZM721 150.922V145.974H719V150.922H721ZM721 141.026V136.078H719V141.026H721ZM721 131.129V126.181H719V131.129H721ZM721 121.233V116.285H719V121.233H721ZM721 111.336V106.388H719V111.336H721ZM721 101.44V96.4915H719V101.44H721ZM721 91.5432V86.5949H719V91.5432H721ZM721 81.6466V76.6984H719V81.6466H721ZM721 71.7501V66.8018H719V71.7501H721ZM721 61.8535V56.9053H719V61.8535H721ZM721 51.957V47.0087H719V51.957H721ZM721 42.0604V37.1122H719V42.0604H721ZM721 32.1639V27.2156H719V32.1639H721ZM721 22.2674V17.3191H719V22.2674H721ZM721 12.3708V7.42254H719V12.3708H721ZM721 2.47427V0H719V2.47427H721ZM720 -1H717.5V1H720V-1ZM712.5 -1H707.5V1H712.5V-1ZM702.5 -1H697.5V1H702.5V-1ZM692.5 -1H687.5V1H692.5V-1ZM682.5 -1H677.5V1H682.5V-1ZM672.5 -1H667.5V1H672.5V-1ZM662.5 -1H657.5V1H662.5V-1ZM652.5 -1H647.5V1H652.5V-1ZM642.5 -1H637.5V1H642.5V-1ZM632.5 -1H627.5V1H632.5V-1ZM622.5 -1H617.5V1H622.5V-1ZM612.5 -1H607.5V1H612.5V-1ZM602.5 -1H597.5V1H602.5V-1ZM592.5 -1H587.5V1H592.5V-1ZM582.5 -1H577.5V1H582.5V-1ZM572.5 -1H567.5V1H572.5V-1ZM562.5 -1H557.5V1H562.5V-1ZM552.5 -1H547.5V1H552.5V-1ZM542.5 -1H537.5V1H542.5V-1ZM532.5 -1H527.5V1H532.5V-1ZM522.5 -1H517.5V1H522.5V-1ZM512.5 -1H507.5V1H512.5V-1ZM502.5 -1H497.5V1H502.5V-1ZM492.5 -1H487.5V1H492.5V-1ZM482.5 -1H477.5V1H482.5V-1ZM472.5 -1H467.5V1H472.5V-1ZM462.5 -1H457.5V1H462.5V-1ZM452.5 -1H447.5V1H452.5V-1ZM442.5 -1H437.5V1H442.5V-1ZM432.5 -1H427.5V1H432.5V-1ZM422.5 -1H417.5V1H422.5V-1ZM412.5 -1H407.5V1H412.5V-1ZM402.5 -1H397.5V1H402.5V-1ZM392.5 -1H387.5V1H392.5V-1ZM382.5 -1H377.5V1H382.5V-1ZM372.5 -1H367.5V1H372.5V-1ZM362.5 -1H357.5V1H362.5V-1ZM352.5 -1H347.5V1H352.5V-1ZM342.5 -1H337.5V1H342.5V-1ZM332.5 -1H327.5V1H332.5V-1ZM322.5 -1H317.5V1H322.5V-1ZM312.5 -1H307.5V1H312.5V-1ZM302.5 -1H297.5V1H302.5V-1ZM292.5 -1H287.5V1H292.5V-1ZM282.5 -1H277.5V1H282.5V-1ZM272.5 -1H267.5V1H272.5V-1ZM262.5 -1H257.5V1H262.5V-1ZM252.5 -1H247.5V1H252.5V-1ZM242.5 -1H237.5V1H242.5V-1ZM232.5 -1H227.5V1H232.5V-1ZM222.5 -1H217.5V1H222.5V-1ZM212.5 -1H207.5V1H212.5V-1ZM202.5 -1H197.5V1H202.5V-1ZM192.5 -1H187.5V1H192.5V-1ZM182.5 -1H177.5V1H182.5V-1ZM172.5 -1H167.5V1H172.5V-1ZM162.5 -1H157.5V1H162.5V-1ZM152.5 -1H147.5V1H152.5V-1ZM142.5 -1H137.5V1H142.5V-1ZM132.5 -1H127.5V1H132.5V-1ZM122.5 -1H117.5V1H122.5V-1ZM112.5 -1H107.5V1H112.5V-1ZM102.5 -1H97.5V1H102.5V-1ZM92.5 -1H87.5V1H92.5V-1ZM82.5 -1H77.5V1H82.5V-1ZM72.5 -1H67.5V1H72.5V-1ZM62.5 -1H57.5V1H62.5V-1ZM52.5 -1H47.5V1H52.5V-1ZM42.5 -1H37.5V1H42.5V-1ZM32.5 -1H27.5V1H32.5V-1ZM22.5 -1H17.5V1H22.5V-1ZM12.5 -1H7.50001V1H12.5V-1ZM2.49999 -1H0V1H2.49999V-1Z" fill="#7F20D2"/>
</svg>
