<svg width="720" height="154" viewBox="0 0 720 154" fill="none" xmlns="http://www.w3.org/2000/svg">
<path d="M0 0H720V154H0V0Z" fill="#D9BCF2"/>
<rect x="0.5" y="0.5" width="719" height="68" fill="white"/>
<path d="M346.859 41H345.547V29.7969H346.859V41ZM353.352 40.9219C353.049 41.0885 352.651 41.1719 352.156 41.1719C350.755 41.1719 350.055 40.3906 350.055 38.8281V34.0938H348.68V33H350.055V31.0469L351.336 30.6328V33H353.352V34.0938H351.336V38.6016C351.336 39.138 351.427 39.5208 351.609 39.75C351.792 39.9792 352.094 40.0938 352.516 40.0938C352.839 40.0938 353.117 40.0052 353.352 39.8281V40.9219ZM361.492 37.3203H355.844C355.865 38.2109 356.104 38.8984 356.562 39.3828C357.021 39.8672 357.651 40.1094 358.453 40.1094C359.354 40.1094 360.182 39.8125 360.938 39.2188V40.4219C360.234 40.9323 359.305 41.1875 358.148 41.1875C357.018 41.1875 356.13 40.8255 355.484 40.1016C354.839 39.3724 354.516 38.349 354.516 37.0312C354.516 35.7865 354.867 34.7734 355.57 33.9922C356.279 33.2057 357.156 32.8125 358.203 32.8125C359.25 32.8125 360.06 33.151 360.633 33.8281C361.206 34.5052 361.492 35.4453 361.492 36.6484V37.3203ZM360.18 36.2344C360.174 35.4948 359.995 34.9193 359.641 34.5078C359.292 34.0964 358.805 33.8906 358.18 33.8906C357.576 33.8906 357.062 34.1068 356.641 34.5391C356.219 34.9714 355.958 35.5365 355.859 36.2344H360.18ZM374.797 41H373.516V36.4062C373.516 35.5208 373.378 34.8802 373.102 34.4844C372.831 34.0885 372.372 33.8906 371.727 33.8906C371.18 33.8906 370.714 34.1406 370.328 34.6406C369.948 35.1406 369.758 35.7396 369.758 36.4375V41H368.477V36.25C368.477 34.6771 367.87 33.8906 366.656 33.8906C366.094 33.8906 365.63 34.1276 365.266 34.6016C364.901 35.0703 364.719 35.6823 364.719 36.4375V41H363.438V33H364.719V34.2656H364.75C365.318 33.2969 366.146 32.8125 367.234 32.8125C367.781 32.8125 368.258 32.9661 368.664 33.2734C369.07 33.5755 369.349 33.974 369.5 34.4688C370.094 33.3646 370.979 32.8125 372.156 32.8125C373.917 32.8125 374.797 33.8984 374.797 36.0703V41Z" fill="black"/>
<rect x="0.5" y="0.5" width="719" height="68" stroke="black" stroke-dasharray="5 5"/>
<rect x="0.5" y="85.5" width="351" height="68" fill="white"/>
<path d="M162.859 126H161.547V114.797H162.859V126ZM169.352 125.922C169.049 126.089 168.651 126.172 168.156 126.172C166.755 126.172 166.055 125.391 166.055 123.828V119.094H164.68V118H166.055V116.047L167.336 115.633V118H169.352V119.094H167.336V123.602C167.336 124.138 167.427 124.521 167.609 124.75C167.792 124.979 168.094 125.094 168.516 125.094C168.839 125.094 169.117 125.005 169.352 124.828V125.922ZM177.492 122.32H171.844C171.865 123.211 172.104 123.898 172.562 124.383C173.021 124.867 173.651 125.109 174.453 125.109C175.354 125.109 176.182 124.812 176.938 124.219V125.422C176.234 125.932 175.305 126.188 174.148 126.188C173.018 126.188 172.13 125.826 171.484 125.102C170.839 124.372 170.516 123.349 170.516 122.031C170.516 120.786 170.867 119.773 171.57 118.992C172.279 118.206 173.156 117.812 174.203 117.812C175.25 117.812 176.06 118.151 176.633 118.828C177.206 119.505 177.492 120.445 177.492 121.648V122.32ZM176.18 121.234C176.174 120.495 175.995 119.919 175.641 119.508C175.292 119.096 174.805 118.891 174.18 118.891C173.576 118.891 173.062 119.107 172.641 119.539C172.219 119.971 171.958 120.536 171.859 121.234H176.18ZM190.797 126H189.516V121.406C189.516 120.521 189.378 119.88 189.102 119.484C188.831 119.089 188.372 118.891 187.727 118.891C187.18 118.891 186.714 119.141 186.328 119.641C185.948 120.141 185.758 120.74 185.758 121.438V126H184.477V121.25C184.477 119.677 183.87 118.891 182.656 118.891C182.094 118.891 181.63 119.128 181.266 119.602C180.901 120.07 180.719 120.682 180.719 121.438V126H179.438V118H180.719V119.266H180.75C181.318 118.297 182.146 117.812 183.234 117.812C183.781 117.812 184.258 117.966 184.664 118.273C185.07 118.576 185.349 118.974 185.5 119.469C186.094 118.365 186.979 117.812 188.156 117.812C189.917 117.812 190.797 118.898 190.797 121.07V126Z" fill="black"/>
<rect x="0.5" y="85.5" width="351" height="68" stroke="black" stroke-dasharray="5 5"/>
<rect x="368.5" y="85.5" width="351" height="68" fill="white"/>
<path d="M530.859 126H529.547V114.797H530.859V126ZM537.352 125.922C537.049 126.089 536.651 126.172 536.156 126.172C534.755 126.172 534.055 125.391 534.055 123.828V119.094H532.68V118H534.055V116.047L535.336 115.633V118H537.352V119.094H535.336V123.602C535.336 124.138 535.427 124.521 535.609 124.75C535.792 124.979 536.094 125.094 536.516 125.094C536.839 125.094 537.117 125.005 537.352 124.828V125.922ZM545.492 122.32H539.844C539.865 123.211 540.104 123.898 540.562 124.383C541.021 124.867 541.651 125.109 542.453 125.109C543.354 125.109 544.182 124.812 544.938 124.219V125.422C544.234 125.932 543.305 126.188 542.148 126.188C541.018 126.188 540.13 125.826 539.484 125.102C538.839 124.372 538.516 123.349 538.516 122.031C538.516 120.786 538.867 119.773 539.57 118.992C540.279 118.206 541.156 117.812 542.203 117.812C543.25 117.812 544.06 118.151 544.633 118.828C545.206 119.505 545.492 120.445 545.492 121.648V122.32ZM544.18 121.234C544.174 120.495 543.995 119.919 543.641 119.508C543.292 119.096 542.805 118.891 542.18 118.891C541.576 118.891 541.062 119.107 540.641 119.539C540.219 119.971 539.958 120.536 539.859 121.234H544.18ZM558.797 126H557.516V121.406C557.516 120.521 557.378 119.88 557.102 119.484C556.831 119.089 556.372 118.891 555.727 118.891C555.18 118.891 554.714 119.141 554.328 119.641C553.948 120.141 553.758 120.74 553.758 121.438V126H552.477V121.25C552.477 119.677 551.87 118.891 550.656 118.891C550.094 118.891 549.63 119.128 549.266 119.602C548.901 120.07 548.719 120.682 548.719 121.438V126H547.438V118H548.719V119.266H548.75C549.318 118.297 550.146 117.812 551.234 117.812C551.781 117.812 552.258 117.966 552.664 118.273C553.07 118.576 553.349 118.974 553.5 119.469C554.094 118.365 554.979 117.812 556.156 117.812C557.917 117.812 558.797 118.898 558.797 121.07V126Z" fill="black"/>
<rect x="368.5" y="85.5" width="351" height="68" stroke="black" stroke-dasharray="5 5"/>
<path d="M0 0V-0.5H-0.5V0H0ZM720 0H720.5V-0.5H720V0ZM720 154V154.5H720.5V154H720ZM0 154H-0.5V154.5H0V154ZM-0.5 0V2.56667H0.5V0H-0.5ZM-0.5 7.7V12.8333H0.5V7.7H-0.5ZM-0.5 17.9667V23.1H0.5V17.9667H-0.5ZM-0.5 28.2333V33.3667H0.5V28.2333H-0.5ZM-0.5 38.5V43.6333H0.5V38.5H-0.5ZM-0.5 48.7667V53.9H0.5V48.7667H-0.5ZM-0.5 59.0333V64.1667H0.5V59.0333H-0.5ZM-0.5 69.3V74.4333H0.5V69.3H-0.5ZM-0.5 79.5666V84.7H0.5V79.5666H-0.5ZM-0.5 89.8333V94.9666H0.5V89.8333H-0.5ZM-0.5 100.1V105.233H0.5V100.1H-0.5ZM-0.5 110.367V115.5H0.5V110.367H-0.5ZM-0.5 120.633V125.767H0.5V120.633H-0.5ZM-0.5 130.9V136.033H0.5V130.9H-0.5ZM-0.5 141.167V146.3H0.5V141.167H-0.5ZM-0.5 151.433V154H0.5V151.433H-0.5ZM0 154.5H2.5V153.5H0V154.5ZM7.5 154.5H12.5V153.5H7.5V154.5ZM17.5 154.5H22.5V153.5H17.5V154.5ZM27.5 154.5H32.5V153.5H27.5V154.5ZM37.5 154.5H42.5V153.5H37.5V154.5ZM47.5 154.5H52.5V153.5H47.5V154.5ZM57.5 154.5H62.5V153.5H57.5V154.5ZM67.5 154.5H72.5V153.5H67.5V154.5ZM77.5 154.5H82.5V153.5H77.5V154.5ZM87.5 154.5H92.5V153.5H87.5V154.5ZM97.5 154.5H102.5V153.5H97.5V154.5ZM107.5 154.5H112.5V153.5H107.5V154.5ZM117.5 154.5H122.5V153.5H117.5V154.5ZM127.5 154.5H132.5V153.5H127.5V154.5ZM137.5 154.5H142.5V153.5H137.5V154.5ZM147.5 154.5H152.5V153.5H147.5V154.5ZM157.5 154.5H162.5V153.5H157.5V154.5ZM167.5 154.5H172.5V153.5H167.5V154.5ZM177.5 154.5H182.5V153.5H177.5V154.5ZM187.5 154.5H192.5V153.5H187.5V154.5ZM197.5 154.5H202.5V153.5H197.5V154.5ZM207.5 154.5H212.5V153.5H207.5V154.5ZM217.5 154.5H222.5V153.5H217.5V154.5ZM227.5 154.5H232.5V153.5H227.5V154.5ZM237.5 154.5H242.5V153.5H237.5V154.5ZM247.5 154.5H252.5V153.5H247.5V154.5ZM257.5 154.5H262.5V153.5H257.5V154.5ZM267.5 154.5H272.5V153.5H267.5V154.5ZM277.5 154.5H282.5V153.5H277.5V154.5ZM287.5 154.5H292.5V153.5H287.5V154.5ZM297.5 154.5H302.5V153.5H297.5V154.5ZM307.5 154.5H312.5V153.5H307.5V154.5ZM317.5 154.5H322.5V153.5H317.5V154.5ZM327.5 154.5H332.5V153.5H327.5V154.5ZM337.5 154.5H342.5V153.5H337.5V154.5ZM347.5 154.5H352.5V153.5H347.5V154.5ZM357.5 154.5H362.5V153.5H357.5V154.5ZM367.5 154.5H372.5V153.5H367.5V154.5ZM377.5 154.5H382.5V153.5H377.5V154.5ZM387.5 154.5H392.5V153.5H387.5V154.5ZM397.5 154.5H402.5V153.5H397.5V154.5ZM407.5 154.5H412.5V153.5H407.5V154.5ZM417.5 154.5H422.5V153.5H417.5V154.5ZM427.5 154.5H432.5V153.5H427.5V154.5ZM437.5 154.5H442.5V153.5H437.5V154.5ZM447.5 154.5H452.5V153.5H447.5V154.5ZM457.5 154.5H462.5V153.5H457.5V154.5ZM467.5 154.5H472.5V153.5H467.5V154.5ZM477.5 154.5H482.5V153.5H477.5V154.5ZM487.5 154.5H492.5V153.5H487.5V154.5ZM497.5 154.5H502.5V153.5H497.5V154.5ZM507.5 154.5H512.5V153.5H507.5V154.5ZM517.5 154.5H522.5V153.5H517.5V154.5ZM527.5 154.5H532.5V153.5H527.5V154.5ZM537.5 154.5H542.5V153.5H537.5V154.5ZM547.5 154.5H552.5V153.5H547.5V154.5ZM557.5 154.5H562.5V153.5H557.5V154.5ZM567.5 154.5H572.5V153.5H567.5V154.5ZM577.5 154.5H582.5V153.5H577.5V154.5ZM587.5 154.5H592.5V153.5H587.5V154.5ZM597.5 154.5H602.5V153.5H597.5V154.5ZM607.5 154.5H612.5V153.5H607.5V154.5ZM617.5 154.5H622.5V153.5H617.5V154.5ZM627.5 154.5H632.5V153.5H627.5V154.5ZM637.5 154.5H642.5V153.5H637.5V154.5ZM647.5 154.5H652.5V153.5H647.5V154.5ZM657.5 154.5H662.5V153.5H657.5V154.5ZM667.5 154.5H672.5V153.5H667.5V154.5ZM677.5 154.5H682.5V153.5H677.5V154.5ZM687.5 154.5H692.5V153.5H687.5V154.5ZM697.5 154.5H702.5V153.5H697.5V154.5ZM707.5 154.5H712.5V153.5H707.5V154.5ZM717.5 154.5H720V153.5H717.5V154.5ZM720.5 154V151.433H719.5V154H720.5ZM720.5 146.3V141.167H719.5V146.3H720.5ZM720.5 136.033V130.9H719.5V136.033H720.5ZM720.5 125.767V120.633H719.5V125.767H720.5ZM720.5 115.5V110.367H719.5V115.5H720.5ZM720.5 105.233V100.1H719.5V105.233H720.5ZM720.5 94.9667V89.8333H719.5V94.9667H720.5ZM720.5 84.7V79.5667H719.5V84.7H720.5ZM720.5 74.4334V69.3H719.5V74.4334H720.5ZM720.5 64.1667V59.0334H719.5V64.1667H720.5ZM720.5 53.9V48.7667H719.5V53.9H720.5ZM720.5 43.6334V38.5H719.5V43.6334H720.5ZM720.5 33.3667V28.2334H719.5V33.3667H720.5ZM720.5 23.1V17.9667H719.5V23.1H720.5ZM720.5 12.8334V7.70004H719.5V12.8334H720.5ZM720.5 2.56671V0H719.5V2.56671H720.5ZM720 -0.5H717.5V0.5H720V-0.5ZM712.5 -0.5H707.5V0.5H712.5V-0.5ZM702.5 -0.5H697.5V0.5H702.5V-0.5ZM692.5 -0.5H687.5V0.5H692.5V-0.5ZM682.5 -0.5H677.5V0.5H682.5V-0.5ZM672.5 -0.5H667.5V0.5H672.5V-0.5ZM662.5 -0.5H657.5V0.5H662.5V-0.5ZM652.5 -0.5H647.5V0.5H652.5V-0.5ZM642.5 -0.5H637.5V0.5H642.5V-0.5ZM632.5 -0.5H627.5V0.5H632.5V-0.5ZM622.5 -0.5H617.5V0.5H622.5V-0.5ZM612.5 -0.5H607.5V0.5H612.5V-0.5ZM602.5 -0.5H597.5V0.5H602.5V-0.5ZM592.5 -0.5H587.5V0.5H592.5V-0.5ZM582.5 -0.5H577.5V0.5H582.5V-0.5ZM572.5 -0.5H567.5V0.5H572.5V-0.5ZM562.5 -0.5H557.5V0.5H562.5V-0.5ZM552.5 -0.5H547.5V0.5H552.5V-0.5ZM542.5 -0.5H537.5V0.5H542.5V-0.5ZM532.5 -0.5H527.5V0.5H532.5V-0.5ZM522.5 -0.5H517.5V0.5H522.5V-0.5ZM512.5 -0.5H507.5V0.5H512.5V-0.5ZM502.5 -0.5H497.5V0.5H502.5V-0.5ZM492.5 -0.5H487.5V0.5H492.5V-0.5ZM482.5 -0.5H477.5V0.5H482.5V-0.5ZM472.5 -0.5H467.5V0.5H472.5V-0.5ZM462.5 -0.5H457.5V0.5H462.5V-0.5ZM452.5 -0.5H447.5V0.5H452.5V-0.5ZM442.5 -0.5H437.5V0.5H442.5V-0.5ZM432.5 -0.5H427.5V0.5H432.5V-0.5ZM422.5 -0.5H417.5V0.5H422.5V-0.5ZM412.5 -0.5H407.5V0.5H412.5V-0.5ZM402.5 -0.5H397.5V0.5H402.5V-0.5ZM392.5 -0.5H387.5V0.5H392.5V-0.5ZM382.5 -0.5H377.5V0.5H382.5V-0.5ZM372.5 -0.5H367.5V0.5H372.5V-0.5ZM362.5 -0.5H357.5V0.5H362.5V-0.5ZM352.5 -0.5H347.5V0.5H352.5V-0.5ZM342.5 -0.5H337.5V0.5H342.5V-0.5ZM332.5 -0.5H327.5V0.5H332.5V-0.5ZM322.5 -0.5H317.5V0.5H322.5V-0.5ZM312.5 -0.5H307.5V0.5H312.5V-0.5ZM302.5 -0.5H297.5V0.5H302.5V-0.5ZM292.5 -0.5H287.5V0.5H292.5V-0.5ZM282.5 -0.5H277.5V0.5H282.5V-0.5ZM272.5 -0.5H267.5V0.5H272.5V-0.5ZM262.5 -0.5H257.5V0.5H262.5V-0.5ZM252.5 -0.5H247.5V0.5H252.5V-0.5ZM242.5 -0.5H237.5V0.5H242.5V-0.5ZM232.5 -0.5H227.5V0.5H232.5V-0.5ZM222.5 -0.5H217.5V0.5H222.5V-0.5ZM212.5 -0.5H207.5V0.5H212.5V-0.5ZM202.5 -0.5H197.5V0.5H202.5V-0.5ZM192.5 -0.5H187.5V0.5H192.5V-0.5ZM182.5 -0.5H177.5V0.5H182.5V-0.5ZM172.5 -0.5H167.5V0.5H172.5V-0.5ZM162.5 -0.5H157.5V0.5H162.5V-0.5ZM152.5 -0.5H147.5V0.5H152.5V-0.5ZM142.5 -0.5H137.5V0.5H142.5V-0.5ZM132.5 -0.5H127.5V0.5H132.5V-0.5ZM122.5 -0.5H117.5V0.5H122.5V-0.5ZM112.5 -0.5H107.5V0.5H112.5V-0.5ZM102.5 -0.5H97.5V0.5H102.5V-0.5ZM92.5 -0.5H87.5V0.5H92.5V-0.5ZM82.5 -0.5H77.5V0.5H82.5V-0.5ZM72.5 -0.5H67.5V0.5H72.5V-0.5ZM62.5 -0.5H57.5V0.5H62.5V-0.5ZM52.5 -0.5H47.5V0.5H52.5V-0.5ZM42.5 -0.5H37.5V0.5H42.5V-0.5ZM32.5 -0.5H27.5V0.5H32.5V-0.5ZM22.5 -0.5H17.5V0.5H22.5V-0.5ZM12.5 -0.5H7.50001V0.5H12.5V-0.5ZM2.49999 -0.5H0V0.5H2.49999V-0.5ZM0 0V-1H-1V0H0ZM720 0H721V-1H720V0ZM720 154V155H721V154H720ZM0 154H-1V155H0V154ZM-1 0V2.56667H1V0H-1ZM-1 7.7V12.8333H1V7.7H-1ZM-1 17.9667V23.1H1V17.9667H-1ZM-1 28.2333V33.3667H1V28.2333H-1ZM-1 38.5V43.6333H1V38.5H-1ZM-1 48.7667V53.9H1V48.7667H-1ZM-1 59.0333V64.1667H1V59.0333H-1ZM-1 69.3V74.4333H1V69.3H-1ZM-1 79.5666V84.7H1V79.5666H-1ZM-1 89.8333V94.9666H1V89.8333H-1ZM-1 100.1V105.233H1V100.1H-1ZM-1 110.367V115.5H1V110.367H-1ZM-1 120.633V125.767H1V120.633H-1ZM-1 130.9V136.033H1V130.9H-1ZM-1 141.167V146.3H1V141.167H-1ZM-1 151.433V154H1V151.433H-1ZM0 155H2.5V153H0V155ZM7.5 155H12.5V153H7.5V155ZM17.5 155H22.5V153H17.5V155ZM27.5 155H32.5V153H27.5V155ZM37.5 155H42.5V153H37.5V155ZM47.5 155H52.5V153H47.5V155ZM57.5 155H62.5V153H57.5V155ZM67.5 155H72.5V153H67.5V155ZM77.5 155H82.5V153H77.5V155ZM87.5 155H92.5V153H87.5V155ZM97.5 155H102.5V153H97.5V155ZM107.5 155H112.5V153H107.5V155ZM117.5 155H122.5V153H117.5V155ZM127.5 155H132.5V153H127.5V155ZM137.5 155H142.5V153H137.5V155ZM147.5 155H152.5V153H147.5V155ZM157.5 155H162.5V153H157.5V155ZM167.5 155H172.5V153H167.5V155ZM177.5 155H182.5V153H177.5V155ZM187.5 155H192.5V153H187.5V155ZM197.5 155H202.5V153H197.5V155ZM207.5 155H212.5V153H207.5V155ZM217.5 155H222.5V153H217.5V155ZM227.5 155H232.5V153H227.5V155ZM237.5 155H242.5V153H237.5V155ZM247.5 155H252.5V153H247.5V155ZM257.5 155H262.5V153H257.5V155ZM267.5 155H272.5V153H267.5V155ZM277.5 155H282.5V153H277.5V155ZM287.5 155H292.5V153H287.5V155ZM297.5 155H302.5V153H297.5V155ZM307.5 155H312.5V153H307.5V155ZM317.5 155H322.5V153H317.5V155ZM327.5 155H332.5V153H327.5V155ZM337.5 155H342.5V153H337.5V155ZM347.5 155H352.5V153H347.5V155ZM357.5 155H362.5V153H357.5V155ZM367.5 155H372.5V153H367.5V155ZM377.5 155H382.5V153H377.5V155ZM387.5 155H392.5V153H387.5V155ZM397.5 155H402.5V153H397.5V155ZM407.5 155H412.5V153H407.5V155ZM417.5 155H422.5V153H417.5V155ZM427.5 155H432.5V153H427.5V155ZM437.5 155H442.5V153H437.5V155ZM447.5 155H452.5V153H447.5V155ZM457.5 155H462.5V153H457.5V155ZM467.5 155H472.5V153H467.5V155ZM477.5 155H482.5V153H477.5V155ZM487.5 155H492.5V153H487.5V155ZM497.5 155H502.5V153H497.5V155ZM507.5 155H512.5V153H507.5V155ZM517.5 155H522.5V153H517.5V155ZM527.5 155H532.5V153H527.5V155ZM537.5 155H542.5V153H537.5V155ZM547.5 155H552.5V153H547.5V155ZM557.5 155H562.5V153H557.5V155ZM567.5 155H572.5V153H567.5V155ZM577.5 155H582.5V153H577.5V155ZM587.5 155H592.5V153H587.5V155ZM597.5 155H602.5V153H597.5V155ZM607.5 155H612.5V153H607.5V155ZM617.5 155H622.5V153H617.5V155ZM627.5 155H632.5V153H627.5V155ZM637.5 155H642.5V153H637.5V155ZM647.5 155H652.5V153H647.5V155ZM657.5 155H662.5V153H657.5V155ZM667.5 155H672.5V153H667.5V155ZM677.5 155H682.5V153H677.5V155ZM687.5 155H692.5V153H687.5V155ZM697.5 155H702.5V153H697.5V155ZM707.5 155H712.5V153H707.5V155ZM717.5 155H720V153H717.5V155ZM721 154V151.433H719V154H721ZM721 146.3V141.167H719V146.3H721ZM721 136.033V130.9H719V136.033H721ZM721 125.767V120.633H719V125.767H721ZM721 115.5V110.367H719V115.5H721ZM721 105.233V100.1H719V105.233H721ZM721 94.9667V89.8333H719V94.9667H721ZM721 84.7V79.5667H719V84.7H721ZM721 74.4334V69.3H719V74.4334H721ZM721 64.1667V59.0334H719V64.1667H721ZM721 53.9V48.7667H719V53.9H721ZM721 43.6334V38.5H719V43.6334H721ZM721 33.3667V28.2334H719V33.3667H721ZM721 23.1V17.9667H719V23.1H721ZM721 12.8334V7.70004H719V12.8334H721ZM721 2.56671V0H719V2.56671H721ZM720 -1H717.5V1H720V-1ZM712.5 -1H707.5V1H712.5V-1ZM702.5 -1H697.5V1H702.5V-1ZM692.5 -1H687.5V1H692.5V-1ZM682.5 -1H677.5V1H682.5V-1ZM672.5 -1H667.5V1H672.5V-1ZM662.5 -1H657.5V1H662.5V-1ZM652.5 -1H647.5V1H652.5V-1ZM642.5 -1H637.5V1H642.5V-1ZM632.5 -1H627.5V1H632.5V-1ZM622.5 -1H617.5V1H622.5V-1ZM612.5 -1H607.5V1H612.5V-1ZM602.5 -1H597.5V1H602.5V-1ZM592.5 -1H587.5V1H592.5V-1ZM582.5 -1H577.5V1H582.5V-1ZM572.5 -1H567.5V1H572.5V-1ZM562.5 -1H557.5V1H562.5V-1ZM552.5 -1H547.5V1H552.5V-1ZM542.5 -1H537.5V1H542.5V-1ZM532.5 -1H527.5V1H532.5V-1ZM522.5 -1H517.5V1H522.5V-1ZM512.5 -1H507.5V1H512.5V-1ZM502.5 -1H497.5V1H502.5V-1ZM492.5 -1H487.5V1H492.5V-1ZM482.5 -1H477.5V1H482.5V-1ZM472.5 -1H467.5V1H472.5V-1ZM462.5 -1H457.5V1H462.5V-1ZM452.5 -1H447.5V1H452.5V-1ZM442.5 -1H437.5V1H442.5V-1ZM432.5 -1H427.5V1H432.5V-1ZM422.5 -1H417.5V1H422.5V-1ZM412.5 -1H407.5V1H412.5V-1ZM402.5 -1H397.5V1H402.5V-1ZM392.5 -1H387.5V1H392.5V-1ZM382.5 -1H377.5V1H382.5V-1ZM372.5 -1H367.5V1H372.5V-1ZM362.5 -1H357.5V1H362.5V-1ZM352.5 -1H347.5V1H352.5V-1ZM342.5 -1H337.5V1H342.5V-1ZM332.5 -1H327.5V1H332.5V-1ZM322.5 -1H317.5V1H322.5V-1ZM312.5 -1H307.5V1H312.5V-1ZM302.5 -1H297.5V1H302.5V-1ZM292.5 -1H287.5V1H292.5V-1ZM282.5 -1H277.5V1H282.5V-1ZM272.5 -1H267.5V1H272.5V-1ZM262.5 -1H257.5V1H262.5V-1ZM252.5 -1H247.5V1H252.5V-1ZM242.5 -1H237.5V1H242.5V-1ZM232.5 -1H227.5V1H232.5V-1ZM222.5 -1H217.5V1H222.5V-1ZM212.5 -1H207.5V1H212.5V-1ZM202.5 -1H197.5V1H202.5V-1ZM192.5 -1H187.5V1H192.5V-1ZM182.5 -1H177.5V1H182.5V-1ZM172.5 -1H167.5V1H172.5V-1ZM162.5 -1H157.5V1H162.5V-1ZM152.5 -1H147.5V1H152.5V-1ZM142.5 -1H137.5V1H142.5V-1ZM132.5 -1H127.5V1H132.5V-1ZM122.5 -1H117.5V1H122.5V-1ZM112.5 -1H107.5V1H112.5V-1ZM102.5 -1H97.5V1H102.5V-1ZM92.5 -1H87.5V1H92.5V-1ZM82.5 -1H77.5V1H82.5V-1ZM72.5 -1H67.5V1H72.5V-1ZM62.5 -1H57.5V1H62.5V-1ZM52.5 -1H47.5V1H52.5V-1ZM42.5 -1H37.5V1H42.5V-1ZM32.5 -1H27.5V1H32.5V-1ZM22.5 -1H17.5V1H22.5V-1ZM12.5 -1H7.50001V1H12.5V-1ZM2.49999 -1H0V1H2.49999V-1Z" fill="#7F20D2"/>
</svg>
