<svg width="720" height="296" viewBox="0 0 720 296" fill="none" xmlns="http://www.w3.org/2000/svg">
<path d="M0 0H720V296H0V0Z" fill="#D9BCF2"/>
<rect x="0.5" y="0.5" width="719" height="71" fill="white"/>
<path d="M345.217 43H343.74V30.3965H345.217V43ZM352.521 42.9121C352.181 43.0996 351.732 43.1934 351.176 43.1934C349.6 43.1934 348.812 42.3145 348.812 40.5566V35.2305H347.265V34H348.812V31.8027L350.253 31.3369V34H352.521V35.2305H350.253V40.3018C350.253 40.9053 350.355 41.3359 350.561 41.5938C350.766 41.8516 351.105 41.9805 351.58 41.9805C351.943 41.9805 352.257 41.8809 352.521 41.6816V42.9121ZM361.679 38.8604H355.324C355.348 39.8623 355.617 40.6357 356.133 41.1807C356.648 41.7256 357.357 41.998 358.26 41.998C359.273 41.998 360.205 41.6641 361.055 40.9961V42.3496C360.264 42.9238 359.218 43.2109 357.917 43.2109C356.646 43.2109 355.646 42.8037 354.92 41.9893C354.193 41.1689 353.83 40.0176 353.83 38.5352C353.83 37.1348 354.226 35.9951 355.017 35.1162C355.813 34.2314 356.801 33.7891 357.979 33.7891C359.156 33.7891 360.067 34.1699 360.712 34.9316C361.356 35.6934 361.679 36.751 361.679 38.1045V38.8604ZM360.202 37.6387C360.196 36.8066 359.994 36.1592 359.596 35.6963C359.203 35.2334 358.655 35.002 357.952 35.002C357.272 35.002 356.695 35.2451 356.221 35.7314C355.746 36.2178 355.453 36.8535 355.342 37.6387H360.202ZM376.646 43H375.205V37.832C375.205 36.8359 375.05 36.1152 374.739 35.6699C374.435 35.2246 373.919 35.002 373.192 35.002C372.577 35.002 372.053 35.2832 371.619 35.8457C371.191 36.4082 370.978 37.082 370.978 37.8672V43H369.536V37.6562C369.536 35.8867 368.854 35.002 367.488 35.002C366.855 35.002 366.334 35.2686 365.924 35.8018C365.514 36.3291 365.309 37.0176 365.309 37.8672V43H363.867V34H365.309V35.4238H365.344C365.982 34.334 366.914 33.7891 368.139 33.7891C368.754 33.7891 369.29 33.9619 369.747 34.3076C370.204 34.6475 370.518 35.0957 370.688 35.6523C371.355 34.4102 372.352 33.7891 373.676 33.7891C375.656 33.7891 376.646 35.0107 376.646 37.4541V43Z" fill="black"/>
<rect x="0.5" y="0.5" width="719" height="71" stroke="black" stroke-dasharray="5 5"/>
<rect x="0.5" y="88.5" width="719" height="119" fill="white"/>
<path d="M345.217 155H343.74V142.396H345.217V155ZM352.521 154.912C352.181 155.1 351.732 155.193 351.176 155.193C349.6 155.193 348.812 154.314 348.812 152.557V147.23H347.265V146H348.812V143.803L350.253 143.337V146H352.521V147.23H350.253V152.302C350.253 152.905 350.355 153.336 350.561 153.594C350.766 153.852 351.105 153.98 351.58 153.98C351.943 153.98 352.257 153.881 352.521 153.682V154.912ZM361.679 150.86H355.324C355.348 151.862 355.617 152.636 356.133 153.181C356.648 153.726 357.357 153.998 358.26 153.998C359.273 153.998 360.205 153.664 361.055 152.996V154.35C360.264 154.924 359.218 155.211 357.917 155.211C356.646 155.211 355.646 154.804 354.92 153.989C354.193 153.169 353.83 152.018 353.83 150.535C353.83 149.135 354.226 147.995 355.017 147.116C355.813 146.231 356.801 145.789 357.979 145.789C359.156 145.789 360.067 146.17 360.712 146.932C361.356 147.693 361.679 148.751 361.679 150.104V150.86ZM360.202 149.639C360.196 148.807 359.994 148.159 359.596 147.696C359.203 147.233 358.655 147.002 357.952 147.002C357.272 147.002 356.695 147.245 356.221 147.731C355.746 148.218 355.453 148.854 355.342 149.639H360.202ZM376.646 155H375.205V149.832C375.205 148.836 375.05 148.115 374.739 147.67C374.435 147.225 373.919 147.002 373.192 147.002C372.577 147.002 372.053 147.283 371.619 147.846C371.191 148.408 370.978 149.082 370.978 149.867V155H369.536V149.656C369.536 147.887 368.854 147.002 367.488 147.002C366.855 147.002 366.334 147.269 365.924 147.802C365.514 148.329 365.309 149.018 365.309 149.867V155H363.867V146H365.309V147.424H365.344C365.982 146.334 366.914 145.789 368.139 145.789C368.754 145.789 369.29 145.962 369.747 146.308C370.204 146.647 370.518 147.096 370.688 147.652C371.355 146.41 372.352 145.789 373.676 145.789C375.656 145.789 376.646 147.011 376.646 149.454V155Z" fill="black"/>
<rect x="0.5" y="88.5" width="719" height="119" stroke="black" stroke-dasharray="5 5"/>
<rect x="0.5" y="224.5" width="719" height="71" fill="white"/>
<path d="M345.217 267H343.74V254.396H345.217V267ZM352.521 266.912C352.181 267.1 351.732 267.193 351.176 267.193C349.6 267.193 348.812 266.314 348.812 264.557V259.23H347.265V258H348.812V255.803L350.253 255.337V258H352.521V259.23H350.253V264.302C350.253 264.905 350.355 265.336 350.561 265.594C350.766 265.852 351.105 265.98 351.58 265.98C351.943 265.98 352.257 265.881 352.521 265.682V266.912ZM361.679 262.86H355.324C355.348 263.862 355.617 264.636 356.133 265.181C356.648 265.726 357.357 265.998 358.26 265.998C359.273 265.998 360.205 265.664 361.055 264.996V266.35C360.264 266.924 359.218 267.211 357.917 267.211C356.646 267.211 355.646 266.804 354.92 265.989C354.193 265.169 353.83 264.018 353.83 262.535C353.83 261.135 354.226 259.995 355.017 259.116C355.813 258.231 356.801 257.789 357.979 257.789C359.156 257.789 360.067 258.17 360.712 258.932C361.356 259.693 361.679 260.751 361.679 262.104V262.86ZM360.202 261.639C360.196 260.807 359.994 260.159 359.596 259.696C359.203 259.233 358.655 259.002 357.952 259.002C357.272 259.002 356.695 259.245 356.221 259.731C355.746 260.218 355.453 260.854 355.342 261.639H360.202ZM376.646 267H375.205V261.832C375.205 260.836 375.05 260.115 374.739 259.67C374.435 259.225 373.919 259.002 373.192 259.002C372.577 259.002 372.053 259.283 371.619 259.846C371.191 260.408 370.978 261.082 370.978 261.867V267H369.536V261.656C369.536 259.887 368.854 259.002 367.488 259.002C366.855 259.002 366.334 259.269 365.924 259.802C365.514 260.329 365.309 261.018 365.309 261.867V267H363.867V258H365.309V259.424H365.344C365.982 258.334 366.914 257.789 368.139 257.789C368.754 257.789 369.29 257.962 369.747 258.308C370.204 258.647 370.518 259.096 370.688 259.652C371.355 258.41 372.352 257.789 373.676 257.789C375.656 257.789 376.646 259.011 376.646 261.454V267Z" fill="black"/>
<rect x="0.5" y="224.5" width="719" height="71" stroke="black" stroke-dasharray="5 5"/>
<path d="M0 0V-0.5H-0.5V0H0ZM720 0H720.5V-0.5H720V0ZM720 296V296.5H720.5V296H720ZM0 296H-0.5V296.5H0V296ZM-0.5 0V2.46667H0.5V0H-0.5ZM-0.5 7.4V12.3333H0.5V7.4H-0.5ZM-0.5 17.2667V22.2H0.5V17.2667H-0.5ZM-0.5 27.1333V32.0667H0.5V27.1333H-0.5ZM-0.5 37V41.9333H0.5V37H-0.5ZM-0.5 46.8667V51.8H0.5V46.8667H-0.5ZM-0.5 56.7333V61.6667H0.5V56.7333H-0.5ZM-0.5 66.6V71.5333H0.5V66.6H-0.5ZM-0.5 76.4667V81.4H0.5V76.4667H-0.5ZM-0.5 86.3333V91.2667H0.5V86.3333H-0.5ZM-0.5 96.2V101.133H0.5V96.2H-0.5ZM-0.5 106.067V111H0.5V106.067H-0.5ZM-0.5 115.933V120.867H0.5V115.933H-0.5ZM-0.5 125.8V130.733H0.5V125.8H-0.5ZM-0.5 135.667V140.6H0.5V135.667H-0.5ZM-0.5 145.533V150.467H0.5V145.533H-0.5ZM-0.5 155.4V160.333H0.5V155.4H-0.5ZM-0.5 165.267V170.2H0.5V165.267H-0.5ZM-0.5 175.133V180.067H0.5V175.133H-0.5ZM-0.5 185V189.933H0.5V185H-0.5ZM-0.5 194.867V199.8H0.5V194.867H-0.5ZM-0.5 204.733V209.667H0.5V204.733H-0.5ZM-0.5 214.6V219.533H0.5V214.6H-0.5ZM-0.5 224.467V229.4H0.5V224.467H-0.5ZM-0.5 234.333V239.267H0.5V234.333H-0.5ZM-0.5 244.2V249.133H0.5V244.2H-0.5ZM-0.5 254.067V259H0.5V254.067H-0.5ZM-0.5 263.933V268.867H0.5V263.933H-0.5ZM-0.5 273.8V278.733H0.5V273.8H-0.5ZM-0.5 283.667V288.6H0.5V283.667H-0.5ZM-0.5 293.533V296H0.5V293.533H-0.5ZM0 296.5H2.5V295.5H0V296.5ZM7.5 296.5H12.5V295.5H7.5V296.5ZM17.5 296.5H22.5V295.5H17.5V296.5ZM27.5 296.5H32.5V295.5H27.5V296.5ZM37.5 296.5H42.5V295.5H37.5V296.5ZM47.5 296.5H52.5V295.5H47.5V296.5ZM57.5 296.5H62.5V295.5H57.5V296.5ZM67.5 296.5H72.5V295.5H67.5V296.5ZM77.5 296.5H82.5V295.5H77.5V296.5ZM87.5 296.5H92.5V295.5H87.5V296.5ZM97.5 296.5H102.5V295.5H97.5V296.5ZM107.5 296.5H112.5V295.5H107.5V296.5ZM117.5 296.5H122.5V295.5H117.5V296.5ZM127.5 296.5H132.5V295.5H127.5V296.5ZM137.5 296.5H142.5V295.5H137.5V296.5ZM147.5 296.5H152.5V295.5H147.5V296.5ZM157.5 296.5H162.5V295.5H157.5V296.5ZM167.5 296.5H172.5V295.5H167.5V296.5ZM177.5 296.5H182.5V295.5H177.5V296.5ZM187.5 296.5H192.5V295.5H187.5V296.5ZM197.5 296.5H202.5V295.5H197.5V296.5ZM207.5 296.5H212.5V295.5H207.5V296.5ZM217.5 296.5H222.5V295.5H217.5V296.5ZM227.5 296.5H232.5V295.5H227.5V296.5ZM237.5 296.5H242.5V295.5H237.5V296.5ZM247.5 296.5H252.5V295.5H247.5V296.5ZM257.5 296.5H262.5V295.5H257.5V296.5ZM267.5 296.5H272.5V295.5H267.5V296.5ZM277.5 296.5H282.5V295.5H277.5V296.5ZM287.5 296.5H292.5V295.5H287.5V296.5ZM297.5 296.5H302.5V295.5H297.5V296.5ZM307.5 296.5H312.5V295.5H307.5V296.5ZM317.5 296.5H322.5V295.5H317.5V296.5ZM327.5 296.5H332.5V295.5H327.5V296.5ZM337.5 296.5H342.5V295.5H337.5V296.5ZM347.5 296.5H352.5V295.5H347.5V296.5ZM357.5 296.5H362.5V295.5H357.5V296.5ZM367.5 296.5H372.5V295.5H367.5V296.5ZM377.5 296.5H382.5V295.5H377.5V296.5ZM387.5 296.5H392.5V295.5H387.5V296.5ZM397.5 296.5H402.5V295.5H397.5V296.5ZM407.5 296.5H412.5V295.5H407.5V296.5ZM417.5 296.5H422.5V295.5H417.5V296.5ZM427.5 296.5H432.5V295.5H427.5V296.5ZM437.5 296.5H442.5V295.5H437.5V296.5ZM447.5 296.5H452.5V295.5H447.5V296.5ZM457.5 296.5H462.5V295.5H457.5V296.5ZM467.5 296.5H472.5V295.5H467.5V296.5ZM477.5 296.5H482.5V295.5H477.5V296.5ZM487.5 296.5H492.5V295.5H487.5V296.5ZM497.5 296.5H502.5V295.5H497.5V296.5ZM507.5 296.5H512.5V295.5H507.5V296.5ZM517.5 296.5H522.5V295.5H517.5V296.5ZM527.5 296.5H532.5V295.5H527.5V296.5ZM537.5 296.5H542.5V295.5H537.5V296.5ZM547.5 296.5H552.5V295.5H547.5V296.5ZM557.5 296.5H562.5V295.5H557.5V296.5ZM567.5 296.5H572.5V295.5H567.5V296.5ZM577.5 296.5H582.5V295.5H577.5V296.5ZM587.5 296.5H592.5V295.5H587.5V296.5ZM597.5 296.5H602.5V295.5H597.5V296.5ZM607.5 296.5H612.5V295.5H607.5V296.5ZM617.5 296.5H622.5V295.5H617.5V296.5ZM627.5 296.5H632.5V295.5H627.5V296.5ZM637.5 296.5H642.5V295.5H637.5V296.5ZM647.5 296.5H652.5V295.5H647.5V296.5ZM657.5 296.5H662.5V295.5H657.5V296.5ZM667.5 296.5H672.5V295.5H667.5V296.5ZM677.5 296.5H682.5V295.5H677.5V296.5ZM687.5 296.5H692.5V295.5H687.5V296.5ZM697.5 296.5H702.5V295.5H697.5V296.5ZM707.5 296.5H712.5V295.5H707.5V296.5ZM717.5 296.5H720V295.5H717.5V296.5ZM720.5 296V293.533H719.5V296H720.5ZM720.5 288.6V283.667H719.5V288.6H720.5ZM720.5 278.733V273.8H719.5V278.733H720.5ZM720.5 268.867V263.933H719.5V268.867H720.5ZM720.5 259V254.067H719.5V259H720.5ZM720.5 249.133V244.2H719.5V249.133H720.5ZM720.5 239.267V234.333H719.5V239.267H720.5ZM720.5 229.4V224.467H719.5V229.4H720.5ZM720.5 219.533V214.6H719.5V219.533H720.5ZM720.5 209.667V204.733H719.5V209.667H720.5ZM720.5 199.8V194.867H719.5V199.8H720.5ZM720.5 189.933V185H719.5V189.933H720.5ZM720.5 180.067V175.133H719.5V180.067H720.5ZM720.5 170.2V165.267H719.5V170.2H720.5ZM720.5 160.333V155.4H719.5V160.333H720.5ZM720.5 150.467V145.533H719.5V150.467H720.5ZM720.5 140.6V135.667H719.5V140.6H720.5ZM720.5 130.733V125.8H719.5V130.733H720.5ZM720.5 120.867V115.933H719.5V120.867H720.5ZM720.5 111V106.067H719.5V111H720.5ZM720.5 101.133V96.2H719.5V101.133H720.5ZM720.5 91.2666V86.3333H719.5V91.2666H720.5ZM720.5 81.4V76.4666H719.5V81.4H720.5ZM720.5 71.5333V66.6H719.5V71.5333H720.5ZM720.5 61.6666V56.7333H719.5V61.6666H720.5ZM720.5 51.8V46.8666H719.5V51.8H720.5ZM720.5 41.9333V37H719.5V41.9333H720.5ZM720.5 32.0667V27.1333H719.5V32.0667H720.5ZM720.5 22.2V17.2667H719.5V22.2H720.5ZM720.5 12.3334V7.40006H719.5V12.3334H720.5ZM720.5 2.46673V0H719.5V2.46673H720.5ZM720 -0.5H717.5V0.5H720V-0.5ZM712.5 -0.5H707.5V0.5H712.5V-0.5ZM702.5 -0.5H697.5V0.5H702.5V-0.5ZM692.5 -0.5H687.5V0.5H692.5V-0.5ZM682.5 -0.5H677.5V0.5H682.5V-0.5ZM672.5 -0.5H667.5V0.5H672.5V-0.5ZM662.5 -0.5H657.5V0.5H662.5V-0.5ZM652.5 -0.5H647.5V0.5H652.5V-0.5ZM642.5 -0.5H637.5V0.5H642.5V-0.5ZM632.5 -0.5H627.5V0.5H632.5V-0.5ZM622.5 -0.5H617.5V0.5H622.5V-0.5ZM612.5 -0.5H607.5V0.5H612.5V-0.5ZM602.5 -0.5H597.5V0.5H602.5V-0.5ZM592.5 -0.5H587.5V0.5H592.5V-0.5ZM582.5 -0.5H577.5V0.5H582.5V-0.5ZM572.5 -0.5H567.5V0.5H572.5V-0.5ZM562.5 -0.5H557.5V0.5H562.5V-0.5ZM552.5 -0.5H547.5V0.5H552.5V-0.5ZM542.5 -0.5H537.5V0.5H542.5V-0.5ZM532.5 -0.5H527.5V0.5H532.5V-0.5ZM522.5 -0.5H517.5V0.5H522.5V-0.5ZM512.5 -0.5H507.5V0.5H512.5V-0.5ZM502.5 -0.5H497.5V0.5H502.5V-0.5ZM492.5 -0.5H487.5V0.5H492.5V-0.5ZM482.5 -0.5H477.5V0.5H482.5V-0.5ZM472.5 -0.5H467.5V0.5H472.5V-0.5ZM462.5 -0.5H457.5V0.5H462.5V-0.5ZM452.5 -0.5H447.5V0.5H452.5V-0.5ZM442.5 -0.5H437.5V0.5H442.5V-0.5ZM432.5 -0.5H427.5V0.5H432.5V-0.5ZM422.5 -0.5H417.5V0.5H422.5V-0.5ZM412.5 -0.5H407.5V0.5H412.5V-0.5ZM402.5 -0.5H397.5V0.5H402.5V-0.5ZM392.5 -0.5H387.5V0.5H392.5V-0.5ZM382.5 -0.5H377.5V0.5H382.5V-0.5ZM372.5 -0.5H367.5V0.5H372.5V-0.5ZM362.5 -0.5H357.5V0.5H362.5V-0.5ZM352.5 -0.5H347.5V0.5H352.5V-0.5ZM342.5 -0.5H337.5V0.5H342.5V-0.5ZM332.5 -0.5H327.5V0.5H332.5V-0.5ZM322.5 -0.5H317.5V0.5H322.5V-0.5ZM312.5 -0.5H307.5V0.5H312.5V-0.5ZM302.5 -0.5H297.5V0.5H302.5V-0.5ZM292.5 -0.5H287.5V0.5H292.5V-0.5ZM282.5 -0.5H277.5V0.5H282.5V-0.5ZM272.5 -0.5H267.5V0.5H272.5V-0.5ZM262.5 -0.5H257.5V0.5H262.5V-0.5ZM252.5 -0.5H247.5V0.5H252.5V-0.5ZM242.5 -0.5H237.5V0.5H242.5V-0.5ZM232.5 -0.5H227.5V0.5H232.5V-0.5ZM222.5 -0.5H217.5V0.5H222.5V-0.5ZM212.5 -0.5H207.5V0.5H212.5V-0.5ZM202.5 -0.5H197.5V0.5H202.5V-0.5ZM192.5 -0.5H187.5V0.5H192.5V-0.5ZM182.5 -0.5H177.5V0.5H182.5V-0.5ZM172.5 -0.5H167.5V0.5H172.5V-0.5ZM162.5 -0.5H157.5V0.5H162.5V-0.5ZM152.5 -0.5H147.5V0.5H152.5V-0.5ZM142.5 -0.5H137.5V0.5H142.5V-0.5ZM132.5 -0.5H127.5V0.5H132.5V-0.5ZM122.5 -0.5H117.5V0.5H122.5V-0.5ZM112.5 -0.5H107.5V0.5H112.5V-0.5ZM102.5 -0.5H97.5V0.5H102.5V-0.5ZM92.5 -0.5H87.5V0.5H92.5V-0.5ZM82.5 -0.5H77.5V0.5H82.5V-0.5ZM72.5 -0.5H67.5V0.5H72.5V-0.5ZM62.5 -0.5H57.5V0.5H62.5V-0.5ZM52.5 -0.5H47.5V0.5H52.5V-0.5ZM42.5 -0.5H37.5V0.5H42.5V-0.5ZM32.5 -0.5H27.5V0.5H32.5V-0.5ZM22.5 -0.5H17.5V0.5H22.5V-0.5ZM12.5 -0.5H7.50001V0.5H12.5V-0.5ZM2.49999 -0.5H0V0.5H2.49999V-0.5ZM0 0V-1H-1V0H0ZM720 0H721V-1H720V0ZM720 296V297H721V296H720ZM0 296H-1V297H0V296ZM-1 0V2.46667H1V0H-1ZM-1 7.4V12.3333H1V7.4H-1ZM-1 17.2667V22.2H1V17.2667H-1ZM-1 27.1333V32.0667H1V27.1333H-1ZM-1 37V41.9333H1V37H-1ZM-1 46.8667V51.8H1V46.8667H-1ZM-1 56.7333V61.6667H1V56.7333H-1ZM-1 66.6V71.5333H1V66.6H-1ZM-1 76.4667V81.4H1V76.4667H-1ZM-1 86.3333V91.2667H1V86.3333H-1ZM-1 96.2V101.133H1V96.2H-1ZM-1 106.067V111H1V106.067H-1ZM-1 115.933V120.867H1V115.933H-1ZM-1 125.8V130.733H1V125.8H-1ZM-1 135.667V140.6H1V135.667H-1ZM-1 145.533V150.467H1V145.533H-1ZM-1 155.4V160.333H1V155.4H-1ZM-1 165.267V170.2H1V165.267H-1ZM-1 175.133V180.067H1V175.133H-1ZM-1 185V189.933H1V185H-1ZM-1 194.867V199.8H1V194.867H-1ZM-1 204.733V209.667H1V204.733H-1ZM-1 214.6V219.533H1V214.6H-1ZM-1 224.467V229.4H1V224.467H-1ZM-1 234.333V239.267H1V234.333H-1ZM-1 244.2V249.133H1V244.2H-1ZM-1 254.067V259H1V254.067H-1ZM-1 263.933V268.867H1V263.933H-1ZM-1 273.8V278.733H1V273.8H-1ZM-1 283.667V288.6H1V283.667H-1ZM-1 293.533V296H1V293.533H-1ZM0 297H2.5V295H0V297ZM7.5 297H12.5V295H7.5V297ZM17.5 297H22.5V295H17.5V297ZM27.5 297H32.5V295H27.5V297ZM37.5 297H42.5V295H37.5V297ZM47.5 297H52.5V295H47.5V297ZM57.5 297H62.5V295H57.5V297ZM67.5 297H72.5V295H67.5V297ZM77.5 297H82.5V295H77.5V297ZM87.5 297H92.5V295H87.5V297ZM97.5 297H102.5V295H97.5V297ZM107.5 297H112.5V295H107.5V297ZM117.5 297H122.5V295H117.5V297ZM127.5 297H132.5V295H127.5V297ZM137.5 297H142.5V295H137.5V297ZM147.5 297H152.5V295H147.5V297ZM157.5 297H162.5V295H157.5V297ZM167.5 297H172.5V295H167.5V297ZM177.5 297H182.5V295H177.5V297ZM187.5 297H192.5V295H187.5V297ZM197.5 297H202.5V295H197.5V297ZM207.5 297H212.5V295H207.5V297ZM217.5 297H222.5V295H217.5V297ZM227.5 297H232.5V295H227.5V297ZM237.5 297H242.5V295H237.5V297ZM247.5 297H252.5V295H247.5V297ZM257.5 297H262.5V295H257.5V297ZM267.5 297H272.5V295H267.5V297ZM277.5 297H282.5V295H277.5V297ZM287.5 297H292.5V295H287.5V297ZM297.5 297H302.5V295H297.5V297ZM307.5 297H312.5V295H307.5V297ZM317.5 297H322.5V295H317.5V297ZM327.5 297H332.5V295H327.5V297ZM337.5 297H342.5V295H337.5V297ZM347.5 297H352.5V295H347.5V297ZM357.5 297H362.5V295H357.5V297ZM367.5 297H372.5V295H367.5V297ZM377.5 297H382.5V295H377.5V297ZM387.5 297H392.5V295H387.5V297ZM397.5 297H402.5V295H397.5V297ZM407.5 297H412.5V295H407.5V297ZM417.5 297H422.5V295H417.5V297ZM427.5 297H432.5V295H427.5V297ZM437.5 297H442.5V295H437.5V297ZM447.5 297H452.5V295H447.5V297ZM457.5 297H462.5V295H457.5V297ZM467.5 297H472.5V295H467.5V297ZM477.5 297H482.5V295H477.5V297ZM487.5 297H492.5V295H487.5V297ZM497.5 297H502.5V295H497.5V297ZM507.5 297H512.5V295H507.5V297ZM517.5 297H522.5V295H517.5V297ZM527.5 297H532.5V295H527.5V297ZM537.5 297H542.5V295H537.5V297ZM547.5 297H552.5V295H547.5V297ZM557.5 297H562.5V295H557.5V297ZM567.5 297H572.5V295H567.5V297ZM577.5 297H582.5V295H577.5V297ZM587.5 297H592.5V295H587.5V297ZM597.5 297H602.5V295H597.5V297ZM607.5 297H612.5V295H607.5V297ZM617.5 297H622.5V295H617.5V297ZM627.5 297H632.5V295H627.5V297ZM637.5 297H642.5V295H637.5V297ZM647.5 297H652.5V295H647.5V297ZM657.5 297H662.5V295H657.5V297ZM667.5 297H672.5V295H667.5V297ZM677.5 297H682.5V295H677.5V297ZM687.5 297H692.5V295H687.5V297ZM697.5 297H702.5V295H697.5V297ZM707.5 297H712.5V295H707.5V297ZM717.5 297H720V295H717.5V297ZM721 296V293.533H719V296H721ZM721 288.6V283.667H719V288.6H721ZM721 278.733V273.8H719V278.733H721ZM721 268.867V263.933H719V268.867H721ZM721 259V254.067H719V259H721ZM721 249.133V244.2H719V249.133H721ZM721 239.267V234.333H719V239.267H721ZM721 229.4V224.467H719V229.4H721ZM721 219.533V214.6H719V219.533H721ZM721 209.667V204.733H719V209.667H721ZM721 199.8V194.867H719V199.8H721ZM721 189.933V185H719V189.933H721ZM721 180.067V175.133H719V180.067H721ZM721 170.2V165.267H719V170.2H721ZM721 160.333V155.4H719V160.333H721ZM721 150.467V145.533H719V150.467H721ZM721 140.6V135.667H719V140.6H721ZM721 130.733V125.8H719V130.733H721ZM721 120.867V115.933H719V120.867H721ZM721 111V106.067H719V111H721ZM721 101.133V96.2H719V101.133H721ZM721 91.2666V86.3333H719V91.2666H721ZM721 81.4V76.4666H719V81.4H721ZM721 71.5333V66.6H719V71.5333H721ZM721 61.6666V56.7333H719V61.6666H721ZM721 51.8V46.8666H719V51.8H721ZM721 41.9333V37H719V41.9333H721ZM721 32.0667V27.1333H719V32.0667H721ZM721 22.2V17.2667H719V22.2H721ZM721 12.3334V7.40006H719V12.3334H721ZM721 2.46673V0H719V2.46673H721ZM720 -1H717.5V1H720V-1ZM712.5 -1H707.5V1H712.5V-1ZM702.5 -1H697.5V1H702.5V-1ZM692.5 -1H687.5V1H692.5V-1ZM682.5 -1H677.5V1H682.5V-1ZM672.5 -1H667.5V1H672.5V-1ZM662.5 -1H657.5V1H662.5V-1ZM652.5 -1H647.5V1H652.5V-1ZM642.5 -1H637.5V1H642.5V-1ZM632.5 -1H627.5V1H632.5V-1ZM622.5 -1H617.5V1H622.5V-1ZM612.5 -1H607.5V1H612.5V-1ZM602.5 -1H597.5V1H602.5V-1ZM592.5 -1H587.5V1H592.5V-1ZM582.5 -1H577.5V1H582.5V-1ZM572.5 -1H567.5V1H572.5V-1ZM562.5 -1H557.5V1H562.5V-1ZM552.5 -1H547.5V1H552.5V-1ZM542.5 -1H537.5V1H542.5V-1ZM532.5 -1H527.5V1H532.5V-1ZM522.5 -1H517.5V1H522.5V-1ZM512.5 -1H507.5V1H512.5V-1ZM502.5 -1H497.5V1H502.5V-1ZM492.5 -1H487.5V1H492.5V-1ZM482.5 -1H477.5V1H482.5V-1ZM472.5 -1H467.5V1H472.5V-1ZM462.5 -1H457.5V1H462.5V-1ZM452.5 -1H447.5V1H452.5V-1ZM442.5 -1H437.5V1H442.5V-1ZM432.5 -1H427.5V1H432.5V-1ZM422.5 -1H417.5V1H422.5V-1ZM412.5 -1H407.5V1H412.5V-1ZM402.5 -1H397.5V1H402.5V-1ZM392.5 -1H387.5V1H392.5V-1ZM382.5 -1H377.5V1H382.5V-1ZM372.5 -1H367.5V1H372.5V-1ZM362.5 -1H357.5V1H362.5V-1ZM352.5 -1H347.5V1H352.5V-1ZM342.5 -1H337.5V1H342.5V-1ZM332.5 -1H327.5V1H332.5V-1ZM322.5 -1H317.5V1H322.5V-1ZM312.5 -1H307.5V1H312.5V-1ZM302.5 -1H297.5V1H302.5V-1ZM292.5 -1H287.5V1H292.5V-1ZM282.5 -1H277.5V1H282.5V-1ZM272.5 -1H267.5V1H272.5V-1ZM262.5 -1H257.5V1H262.5V-1ZM252.5 -1H247.5V1H252.5V-1ZM242.5 -1H237.5V1H242.5V-1ZM232.5 -1H227.5V1H232.5V-1ZM222.5 -1H217.5V1H222.5V-1ZM212.5 -1H207.5V1H212.5V-1ZM202.5 -1H197.5V1H202.5V-1ZM192.5 -1H187.5V1H192.5V-1ZM182.5 -1H177.5V1H182.5V-1ZM172.5 -1H167.5V1H172.5V-1ZM162.5 -1H157.5V1H162.5V-1ZM152.5 -1H147.5V1H152.5V-1ZM142.5 -1H137.5V1H142.5V-1ZM132.5 -1H127.5V1H132.5V-1ZM122.5 -1H117.5V1H122.5V-1ZM112.5 -1H107.5V1H112.5V-1ZM102.5 -1H97.5V1H102.5V-1ZM92.5 -1H87.5V1H92.5V-1ZM82.5 -1H77.5V1H82.5V-1ZM72.5 -1H67.5V1H72.5V-1ZM62.5 -1H57.5V1H62.5V-1ZM52.5 -1H47.5V1H52.5V-1ZM42.5 -1H37.5V1H42.5V-1ZM32.5 -1H27.5V1H32.5V-1ZM22.5 -1H17.5V1H22.5V-1ZM12.5 -1H7.50001V1H12.5V-1ZM2.49999 -1H0V1H2.49999V-1Z" fill="#7F20D2"/>
</svg>
