<svg width="768" height="296" viewBox="0 0 768 296" fill="none" xmlns="http://www.w3.org/2000/svg">
<path d="M0 0H768V296H0V0Z" fill="#D9BCF2"/>
<rect x="0.5" y="0.5" width="767" height="71" fill="white"/>
<path d="M369.217 43H367.74V30.3965H369.217V43ZM376.521 42.9121C376.181 43.0996 375.732 43.1934 375.176 43.1934C373.6 43.1934 372.812 42.3145 372.812 40.5566V35.2305H371.265V34H372.812V31.8027L374.253 31.3369V34H376.521V35.2305H374.253V40.3018C374.253 40.9053 374.355 41.3359 374.561 41.5938C374.766 41.8516 375.105 41.9805 375.58 41.9805C375.943 41.9805 376.257 41.8809 376.521 41.6816V42.9121ZM385.679 38.8604H379.324C379.348 39.8623 379.617 40.6357 380.133 41.1807C380.648 41.7256 381.357 41.998 382.26 41.998C383.273 41.998 384.205 41.6641 385.055 40.9961V42.3496C384.264 42.9238 383.218 43.2109 381.917 43.2109C380.646 43.2109 379.646 42.8037 378.92 41.9893C378.193 41.1689 377.83 40.0176 377.83 38.5352C377.83 37.1348 378.226 35.9951 379.017 35.1162C379.813 34.2314 380.801 33.7891 381.979 33.7891C383.156 33.7891 384.067 34.1699 384.712 34.9316C385.356 35.6934 385.679 36.751 385.679 38.1045V38.8604ZM384.202 37.6387C384.196 36.8066 383.994 36.1592 383.596 35.6963C383.203 35.2334 382.655 35.002 381.952 35.002C381.272 35.002 380.695 35.2451 380.221 35.7314C379.746 36.2178 379.453 36.8535 379.342 37.6387H384.202ZM400.646 43H399.205V37.832C399.205 36.8359 399.05 36.1152 398.739 35.6699C398.435 35.2246 397.919 35.002 397.192 35.002C396.577 35.002 396.053 35.2832 395.619 35.8457C395.191 36.4082 394.978 37.082 394.978 37.8672V43H393.536V37.6562C393.536 35.8867 392.854 35.002 391.488 35.002C390.855 35.002 390.334 35.2686 389.924 35.8018C389.514 36.3291 389.309 37.0176 389.309 37.8672V43H387.867V34H389.309V35.4238H389.344C389.982 34.334 390.914 33.7891 392.139 33.7891C392.754 33.7891 393.29 33.9619 393.747 34.3076C394.204 34.6475 394.518 35.0957 394.688 35.6523C395.355 34.4102 396.352 33.7891 397.676 33.7891C399.656 33.7891 400.646 35.0107 400.646 37.4541V43Z" fill="black"/>
<rect x="0.5" y="0.5" width="767" height="71" stroke="black" stroke-dasharray="5 5"/>
<rect x="0.5" y="88.5" width="767" height="119" fill="white"/>
<path d="M369.217 155H367.74V142.396H369.217V155ZM376.521 154.912C376.181 155.1 375.732 155.193 375.176 155.193C373.6 155.193 372.812 154.314 372.812 152.557V147.23H371.265V146H372.812V143.803L374.253 143.337V146H376.521V147.23H374.253V152.302C374.253 152.905 374.355 153.336 374.561 153.594C374.766 153.852 375.105 153.98 375.58 153.98C375.943 153.98 376.257 153.881 376.521 153.682V154.912ZM385.679 150.86H379.324C379.348 151.862 379.617 152.636 380.133 153.181C380.648 153.726 381.357 153.998 382.26 153.998C383.273 153.998 384.205 153.664 385.055 152.996V154.35C384.264 154.924 383.218 155.211 381.917 155.211C380.646 155.211 379.646 154.804 378.92 153.989C378.193 153.169 377.83 152.018 377.83 150.535C377.83 149.135 378.226 147.995 379.017 147.116C379.813 146.231 380.801 145.789 381.979 145.789C383.156 145.789 384.067 146.17 384.712 146.932C385.356 147.693 385.679 148.751 385.679 150.104V150.86ZM384.202 149.639C384.196 148.807 383.994 148.159 383.596 147.696C383.203 147.233 382.655 147.002 381.952 147.002C381.272 147.002 380.695 147.245 380.221 147.731C379.746 148.218 379.453 148.854 379.342 149.639H384.202ZM400.646 155H399.205V149.832C399.205 148.836 399.05 148.115 398.739 147.67C398.435 147.225 397.919 147.002 397.192 147.002C396.577 147.002 396.053 147.283 395.619 147.846C395.191 148.408 394.978 149.082 394.978 149.867V155H393.536V149.656C393.536 147.887 392.854 147.002 391.488 147.002C390.855 147.002 390.334 147.269 389.924 147.802C389.514 148.329 389.309 149.018 389.309 149.867V155H387.867V146H389.309V147.424H389.344C389.982 146.334 390.914 145.789 392.139 145.789C392.754 145.789 393.29 145.962 393.747 146.308C394.204 146.647 394.518 147.096 394.688 147.652C395.355 146.41 396.352 145.789 397.676 145.789C399.656 145.789 400.646 147.011 400.646 149.454V155Z" fill="black"/>
<rect x="0.5" y="88.5" width="767" height="119" stroke="black" stroke-dasharray="5 5"/>
<rect x="0.5" y="224.5" width="767" height="71" fill="white"/>
<path d="M369.217 267H367.74V254.396H369.217V267ZM376.521 266.912C376.181 267.1 375.732 267.193 375.176 267.193C373.6 267.193 372.812 266.314 372.812 264.557V259.23H371.265V258H372.812V255.803L374.253 255.337V258H376.521V259.23H374.253V264.302C374.253 264.905 374.355 265.336 374.561 265.594C374.766 265.852 375.105 265.98 375.58 265.98C375.943 265.98 376.257 265.881 376.521 265.682V266.912ZM385.679 262.86H379.324C379.348 263.862 379.617 264.636 380.133 265.181C380.648 265.726 381.357 265.998 382.26 265.998C383.273 265.998 384.205 265.664 385.055 264.996V266.35C384.264 266.924 383.218 267.211 381.917 267.211C380.646 267.211 379.646 266.804 378.92 265.989C378.193 265.169 377.83 264.018 377.83 262.535C377.83 261.135 378.226 259.995 379.017 259.116C379.813 258.231 380.801 257.789 381.979 257.789C383.156 257.789 384.067 258.17 384.712 258.932C385.356 259.693 385.679 260.751 385.679 262.104V262.86ZM384.202 261.639C384.196 260.807 383.994 260.159 383.596 259.696C383.203 259.233 382.655 259.002 381.952 259.002C381.272 259.002 380.695 259.245 380.221 259.731C379.746 260.218 379.453 260.854 379.342 261.639H384.202ZM400.646 267H399.205V261.832C399.205 260.836 399.05 260.115 398.739 259.67C398.435 259.225 397.919 259.002 397.192 259.002C396.577 259.002 396.053 259.283 395.619 259.846C395.191 260.408 394.978 261.082 394.978 261.867V267H393.536V261.656C393.536 259.887 392.854 259.002 391.488 259.002C390.855 259.002 390.334 259.269 389.924 259.802C389.514 260.329 389.309 261.018 389.309 261.867V267H387.867V258H389.309V259.424H389.344C389.982 258.334 390.914 257.789 392.139 257.789C392.754 257.789 393.29 257.962 393.747 258.308C394.204 258.647 394.518 259.096 394.688 259.652C395.355 258.41 396.352 257.789 397.676 257.789C399.656 257.789 400.646 259.011 400.646 261.454V267Z" fill="black"/>
<rect x="0.5" y="224.5" width="767" height="71" stroke="black" stroke-dasharray="5 5"/>
<path d="M0 0V-0.5H-0.5V0H0ZM768 0H768.5V-0.5H768V0ZM768 296V296.5H768.5V296H768ZM0 296H-0.5V296.5H0V296ZM-0.5 0V2.46667H0.5V0H-0.5ZM-0.5 7.4V12.3333H0.5V7.4H-0.5ZM-0.5 17.2667V22.2H0.5V17.2667H-0.5ZM-0.5 27.1333V32.0667H0.5V27.1333H-0.5ZM-0.5 37V41.9333H0.5V37H-0.5ZM-0.5 46.8667V51.8H0.5V46.8667H-0.5ZM-0.5 56.7333V61.6667H0.5V56.7333H-0.5ZM-0.5 66.6V71.5333H0.5V66.6H-0.5ZM-0.5 76.4667V81.4H0.5V76.4667H-0.5ZM-0.5 86.3333V91.2667H0.5V86.3333H-0.5ZM-0.5 96.2V101.133H0.5V96.2H-0.5ZM-0.5 106.067V111H0.5V106.067H-0.5ZM-0.5 115.933V120.867H0.5V115.933H-0.5ZM-0.5 125.8V130.733H0.5V125.8H-0.5ZM-0.5 135.667V140.6H0.5V135.667H-0.5ZM-0.5 145.533V150.467H0.5V145.533H-0.5ZM-0.5 155.4V160.333H0.5V155.4H-0.5ZM-0.5 165.267V170.2H0.5V165.267H-0.5ZM-0.5 175.133V180.067H0.5V175.133H-0.5ZM-0.5 185V189.933H0.5V185H-0.5ZM-0.5 194.867V199.8H0.5V194.867H-0.5ZM-0.5 204.733V209.667H0.5V204.733H-0.5ZM-0.5 214.6V219.533H0.5V214.6H-0.5ZM-0.5 224.467V229.4H0.5V224.467H-0.5ZM-0.5 234.333V239.267H0.5V234.333H-0.5ZM-0.5 244.2V249.133H0.5V244.2H-0.5ZM-0.5 254.067V259H0.5V254.067H-0.5ZM-0.5 263.933V268.867H0.5V263.933H-0.5ZM-0.5 273.8V278.733H0.5V273.8H-0.5ZM-0.5 283.667V288.6H0.5V283.667H-0.5ZM-0.5 293.533V296H0.5V293.533H-0.5ZM0 296.5H2.49351V295.5H0V296.5ZM7.48052 296.5H12.4675V295.5H7.48052V296.5ZM17.4545 296.5H22.4416V295.5H17.4545V296.5ZM27.4286 296.5H32.4156V295.5H27.4286V296.5ZM37.4026 296.5H42.3896V295.5H37.4026V296.5ZM47.3766 296.5H52.3636V295.5H47.3766V296.5ZM57.3507 296.5H62.3377V295.5H57.3507V296.5ZM67.3247 296.5H72.3117V295.5H67.3247V296.5ZM77.2987 296.5H82.2857V295.5H77.2987V296.5ZM87.2727 296.5H92.2598V295.5H87.2727V296.5ZM97.2468 296.5H102.234V295.5H97.2468V296.5ZM107.221 296.5H112.208V295.5H107.221V296.5ZM117.195 296.5H122.182V295.5H117.195V296.5ZM127.169 296.5H132.156V295.5H127.169V296.5ZM137.143 296.5H142.13V295.5H137.143V296.5ZM147.117 296.5H152.104V295.5H147.117V296.5ZM157.091 296.5H162.078V295.5H157.091V296.5ZM167.065 296.5H172.052V295.5H167.065V296.5ZM177.039 296.5H182.026V295.5H177.039V296.5ZM187.013 296.5H192V295.5H187.013V296.5ZM196.987 296.5H201.974V295.5H196.987V296.5ZM206.961 296.5H211.948V295.5H206.961V296.5ZM216.935 296.5H221.922V295.5H216.935V296.5ZM226.909 296.5H231.896V295.5H226.909V296.5ZM236.883 296.5H241.87V295.5H236.883V296.5ZM246.857 296.5H251.844V295.5H246.857V296.5ZM256.831 296.5H261.818V295.5H256.831V296.5ZM266.805 296.5H271.792V295.5H266.805V296.5ZM276.779 296.5H281.766V295.5H276.779V296.5ZM286.753 296.5H291.74V295.5H286.753V296.5ZM296.727 296.5H301.714V295.5H296.727V296.5ZM306.701 296.5H311.688V295.5H306.701V296.5ZM316.675 296.5H321.662V295.5H316.675V296.5ZM326.649 296.5H331.636V295.5H326.649V296.5ZM336.623 296.5H341.61V295.5H336.623V296.5ZM346.597 296.5H351.584V295.5H346.597V296.5ZM356.571 296.5H361.558V295.5H356.571V296.5ZM366.545 296.5H371.532V295.5H366.545V296.5ZM376.519 296.5H381.506V295.5H376.519V296.5ZM386.493 296.5H391.48V295.5H386.493V296.5ZM396.467 296.5H401.454V295.5H396.467V296.5ZM406.441 296.5H411.428V295.5H406.441V296.5ZM416.415 296.5H421.402V295.5H416.415V296.5ZM426.389 296.5H431.376V295.5H426.389V296.5ZM436.363 296.5H441.35V295.5H436.363V296.5ZM446.337 296.5H451.324V295.5H446.337V296.5ZM456.311 296.5H461.298V295.5H456.311V296.5ZM466.285 296.5H471.272V295.5H466.285V296.5ZM476.259 296.5H481.246V295.5H476.259V296.5ZM486.233 296.5H491.22V295.5H486.233V296.5ZM496.207 296.5H501.194V295.5H496.207V296.5ZM506.181 296.5H511.168V295.5H506.181V296.5ZM516.155 296.5H521.142V295.5H516.155V296.5ZM526.129 296.5H531.116V295.5H526.129V296.5ZM536.103 296.5H541.09V295.5H536.103V296.5ZM546.077 296.5H551.064V295.5H546.077V296.5ZM556.051 296.5H561.038V295.5H556.051V296.5ZM566.025 296.5H571.012V295.5H566.025V296.5ZM575.999 296.5H580.986V295.5H575.999V296.5ZM585.973 296.5H590.96V295.5H585.973V296.5ZM595.947 296.5H600.934V295.5H595.947V296.5ZM605.921 296.5H610.908V295.5H605.921V296.5ZM615.895 296.5H620.882V295.5H615.895V296.5ZM625.869 296.5H630.856V295.5H625.869V296.5ZM635.843 296.5H640.83V295.5H635.843V296.5ZM645.817 296.5H650.804V295.5H645.817V296.5ZM655.791 296.5H660.778V295.5H655.791V296.5ZM665.765 296.5H670.752V295.5H665.765V296.5ZM675.739 296.5H680.726V295.5H675.739V296.5ZM685.713 296.5H690.7V295.5H685.713V296.5ZM695.687 296.5H700.674V295.5H695.687V296.5ZM705.661 296.5H710.648V295.5H705.661V296.5ZM715.635 296.5H720.622V295.5H715.635V296.5ZM725.609 296.5H730.596V295.5H725.609V296.5ZM735.583 296.5H740.57V295.5H735.583V296.5ZM745.557 296.5H750.544V295.5H745.557V296.5ZM755.531 296.5H760.518V295.5H755.531V296.5ZM765.505 296.5H768V295.5H765.505V296.5ZM768.5 296V293.533H767.5V296H768.5ZM768.5 288.6V283.667H767.5V288.6H768.5ZM768.5 278.733V273.8H767.5V278.733H768.5ZM768.5 268.867V263.933H767.5V268.867H768.5ZM768.5 259V254.067H767.5V259H768.5ZM768.5 249.133V244.2H767.5V249.133H768.5ZM768.5 239.267V234.333H767.5V239.267H768.5ZM768.5 229.4V224.467H767.5V229.4H768.5ZM768.5 219.533V214.6H767.5V219.533H768.5ZM768.5 209.667V204.733H767.5V209.667H768.5ZM768.5 199.8V194.867H767.5V199.8H768.5ZM768.5 189.933V185H767.5V189.933H768.5ZM768.5 180.067V175.133H767.5V180.067H768.5ZM768.5 170.2V165.267H767.5V170.2H768.5ZM768.5 160.333V155.4H767.5V160.333H768.5ZM768.5 150.467V145.533H767.5V150.467H768.5ZM768.5 140.6V135.667H767.5V140.6H768.5ZM768.5 130.733V125.8H767.5V130.733H768.5ZM768.5 120.867V115.933H767.5V120.867H768.5ZM768.5 111V106.067H767.5V111H768.5ZM768.5 101.133V96.2H767.5V101.133H768.5ZM768.5 91.2666V86.3333H767.5V91.2666H768.5ZM768.5 81.4V76.4666H767.5V81.4H768.5ZM768.5 71.5333V66.6H767.5V71.5333H768.5ZM768.5 61.6666V56.7333H767.5V61.6666H768.5ZM768.5 51.8V46.8666H767.5V51.8H768.5ZM768.5 41.9333V37H767.5V41.9333H768.5ZM768.5 32.0667V27.1333H767.5V32.0667H768.5ZM768.5 22.2V17.2667H767.5V22.2H768.5ZM768.5 12.3334V7.40006H767.5V12.3334H768.5ZM768.5 2.46673V0H767.5V2.46673H768.5ZM768 -0.5H765.506V0.5H768V-0.5ZM760.519 -0.5H755.532V0.5H760.519V-0.5ZM750.545 -0.5H745.558V0.5H750.545V-0.5ZM740.571 -0.5H735.584V0.5H740.571V-0.5ZM730.597 -0.5H725.61V0.5H730.597V-0.5ZM720.623 -0.5H715.636V0.5H720.623V-0.5ZM710.649 -0.5H705.662V0.5H710.649V-0.5ZM700.675 -0.5H695.688V0.5H700.675V-0.5ZM690.701 -0.5H685.714V0.5H690.701V-0.5ZM680.727 -0.5H675.74V0.5H680.727V-0.5ZM670.753 -0.5H665.766V0.5H670.753V-0.5ZM660.779 -0.5H655.792V0.5H660.779V-0.5ZM650.805 -0.5H645.818V0.5H650.805V-0.5ZM640.831 -0.5H635.844V0.5H640.831V-0.5ZM630.857 -0.5H625.87V0.5H630.857V-0.5ZM620.883 -0.5H615.896V0.5H620.883V-0.5ZM610.909 -0.5H605.922V0.5H610.909V-0.5ZM600.935 -0.5H595.948V0.5H600.935V-0.5ZM590.961 -0.5H585.974V0.5H590.961V-0.5ZM580.987 -0.5H576V0.5H580.987V-0.5ZM571.013 -0.5H566.026V0.5H571.013V-0.5ZM561.039 -0.5H556.052V0.5H561.039V-0.5ZM551.065 -0.5H546.078V0.5H551.065V-0.5ZM541.091 -0.5H536.104V0.5H541.091V-0.5ZM531.117 -0.5H526.13V0.5H531.117V-0.5ZM521.143 -0.5H516.156V0.5H521.143V-0.5ZM511.169 -0.5H506.182V0.5H511.169V-0.5ZM501.195 -0.5H496.208V0.5H501.195V-0.5ZM491.221 -0.5H486.234V0.5H491.221V-0.5ZM481.247 -0.5H476.26V0.5H481.247V-0.5ZM471.273 -0.5H466.286V0.5H471.273V-0.5ZM461.299 -0.5H456.312V0.5H461.299V-0.5ZM451.325 -0.5H446.338V0.5H451.325V-0.5ZM441.351 -0.5H436.364V0.5H441.351V-0.5ZM431.377 -0.5H426.39V0.5H431.377V-0.5ZM421.403 -0.5H416.416V0.5H421.403V-0.5ZM411.429 -0.5H406.442V0.5H411.429V-0.5ZM401.455 -0.5H396.468V0.5H401.455V-0.5ZM391.481 -0.5H386.494V0.5H391.481V-0.5ZM381.507 -0.5H376.52V0.5H381.507V-0.5ZM371.533 -0.5H366.546V0.5H371.533V-0.5ZM361.559 -0.5H356.572V0.5H361.559V-0.5ZM351.585 -0.5H346.598V0.5H351.585V-0.5ZM341.611 -0.5H336.624V0.5H341.611V-0.5ZM331.637 -0.5H326.65V0.5H331.637V-0.5ZM321.663 -0.5H316.676V0.5H321.663V-0.5ZM311.689 -0.5H306.702V0.5H311.689V-0.5ZM301.715 -0.5H296.728V0.5H301.715V-0.5ZM291.741 -0.5H286.754V0.5H291.741V-0.5ZM281.767 -0.5H276.78V0.5H281.767V-0.5ZM271.793 -0.5H266.806V0.5H271.793V-0.5ZM261.819 -0.5H256.832V0.5H261.819V-0.5ZM251.845 -0.5H246.858V0.5H251.845V-0.5ZM241.871 -0.5H236.884V0.5H241.871V-0.5ZM231.897 -0.5H226.91V0.5H231.897V-0.5ZM221.923 -0.5H216.936V0.5H221.923V-0.5ZM211.949 -0.5H206.962V0.5H211.949V-0.5ZM201.975 -0.5H196.988V0.5H201.975V-0.5ZM192.001 -0.5H187.014V0.5H192.001V-0.5ZM182.027 -0.5H177.04V0.5H182.027V-0.5ZM172.053 -0.5H167.066V0.5H172.053V-0.5ZM162.079 -0.5H157.092V0.5H162.079V-0.5ZM152.105 -0.5H147.118V0.5H152.105V-0.5ZM142.131 -0.5H137.144V0.5H142.131V-0.5ZM132.157 -0.5H127.17V0.5H132.157V-0.5ZM122.183 -0.5H117.196V0.5H122.183V-0.5ZM112.209 -0.5H107.222V0.5H112.209V-0.5ZM102.235 -0.5H97.2478V0.5H102.235V-0.5ZM92.2608 -0.5H87.2738V0.5H92.2608V-0.5ZM82.2868 -0.5H77.2998V0.5H82.2868V-0.5ZM72.3128 -0.5H67.3258V0.5H72.3128V-0.5ZM62.3388 -0.5H57.3518V0.5H62.3388V-0.5ZM52.3648 -0.5H47.3778V0.5H52.3648V-0.5ZM42.3908 -0.5H37.4038V0.5H42.3908V-0.5ZM32.4168 -0.5H27.4298V0.5H32.4168V-0.5ZM22.4428 -0.5H17.4558V0.5H22.4428V-0.5ZM12.4688 -0.5H7.48183V0.5H12.4688V-0.5ZM2.49481 -0.5H0V0.5H2.49481V-0.5ZM0 0V-1H-1V0H0ZM768 0H769V-1H768V0ZM768 296V297H769V296H768ZM0 296H-1V297H0V296ZM-1 0V2.46667H1V0H-1ZM-1 7.4V12.3333H1V7.4H-1ZM-1 17.2667V22.2H1V17.2667H-1ZM-1 27.1333V32.0667H1V27.1333H-1ZM-1 37V41.9333H1V37H-1ZM-1 46.8667V51.8H1V46.8667H-1ZM-1 56.7333V61.6667H1V56.7333H-1ZM-1 66.6V71.5333H1V66.6H-1ZM-1 76.4667V81.4H1V76.4667H-1ZM-1 86.3333V91.2667H1V86.3333H-1ZM-1 96.2V101.133H1V96.2H-1ZM-1 106.067V111H1V106.067H-1ZM-1 115.933V120.867H1V115.933H-1ZM-1 125.8V130.733H1V125.8H-1ZM-1 135.667V140.6H1V135.667H-1ZM-1 145.533V150.467H1V145.533H-1ZM-1 155.4V160.333H1V155.4H-1ZM-1 165.267V170.2H1V165.267H-1ZM-1 175.133V180.067H1V175.133H-1ZM-1 185V189.933H1V185H-1ZM-1 194.867V199.8H1V194.867H-1ZM-1 204.733V209.667H1V204.733H-1ZM-1 214.6V219.533H1V214.6H-1ZM-1 224.467V229.4H1V224.467H-1ZM-1 234.333V239.267H1V234.333H-1ZM-1 244.2V249.133H1V244.2H-1ZM-1 254.067V259H1V254.067H-1ZM-1 263.933V268.867H1V263.933H-1ZM-1 273.8V278.733H1V273.8H-1ZM-1 283.667V288.6H1V283.667H-1ZM-1 293.533V296H1V293.533H-1ZM0 297H2.49351V295H0V297ZM7.48052 297H12.4675V295H7.48052V297ZM17.4545 297H22.4416V295H17.4545V297ZM27.4286 297H32.4156V295H27.4286V297ZM37.4026 297H42.3896V295H37.4026V297ZM47.3766 297H52.3636V295H47.3766V297ZM57.3507 297H62.3377V295H57.3507V297ZM67.3247 297H72.3117V295H67.3247V297ZM77.2987 297H82.2857V295H77.2987V297ZM87.2727 297H92.2598V295H87.2727V297ZM97.2468 297H102.234V295H97.2468V297ZM107.221 297H112.208V295H107.221V297ZM117.195 297H122.182V295H117.195V297ZM127.169 297H132.156V295H127.169V297ZM137.143 297H142.13V295H137.143V297ZM147.117 297H152.104V295H147.117V297ZM157.091 297H162.078V295H157.091V297ZM167.065 297H172.052V295H167.065V297ZM177.039 297H182.026V295H177.039V297ZM187.013 297H192V295H187.013V297ZM196.987 297H201.974V295H196.987V297ZM206.961 297H211.948V295H206.961V297ZM216.935 297H221.922V295H216.935V297ZM226.909 297H231.896V295H226.909V297ZM236.883 297H241.87V295H236.883V297ZM246.857 297H251.844V295H246.857V297ZM256.831 297H261.818V295H256.831V297ZM266.805 297H271.792V295H266.805V297ZM276.779 297H281.766V295H276.779V297ZM286.753 297H291.74V295H286.753V297ZM296.727 297H301.714V295H296.727V297ZM306.701 297H311.688V295H306.701V297ZM316.675 297H321.662V295H316.675V297ZM326.649 297H331.636V295H326.649V297ZM336.623 297H341.61V295H336.623V297ZM346.597 297H351.584V295H346.597V297ZM356.571 297H361.558V295H356.571V297ZM366.545 297H371.532V295H366.545V297ZM376.519 297H381.506V295H376.519V297ZM386.493 297H391.48V295H386.493V297ZM396.467 297H401.454V295H396.467V297ZM406.441 297H411.428V295H406.441V297ZM416.415 297H421.402V295H416.415V297ZM426.389 297H431.376V295H426.389V297ZM436.363 297H441.35V295H436.363V297ZM446.337 297H451.324V295H446.337V297ZM456.311 297H461.298V295H456.311V297ZM466.285 297H471.272V295H466.285V297ZM476.259 297H481.246V295H476.259V297ZM486.233 297H491.22V295H486.233V297ZM496.207 297H501.194V295H496.207V297ZM506.181 297H511.168V295H506.181V297ZM516.155 297H521.142V295H516.155V297ZM526.129 297H531.116V295H526.129V297ZM536.103 297H541.09V295H536.103V297ZM546.077 297H551.064V295H546.077V297ZM556.051 297H561.038V295H556.051V297ZM566.025 297H571.012V295H566.025V297ZM575.999 297H580.986V295H575.999V297ZM585.973 297H590.96V295H585.973V297ZM595.947 297H600.934V295H595.947V297ZM605.921 297H610.908V295H605.921V297ZM615.895 297H620.882V295H615.895V297ZM625.869 297H630.856V295H625.869V297ZM635.843 297H640.83V295H635.843V297ZM645.817 297H650.804V295H645.817V297ZM655.791 297H660.778V295H655.791V297ZM665.765 297H670.752V295H665.765V297ZM675.739 297H680.726V295H675.739V297ZM685.713 297H690.7V295H685.713V297ZM695.687 297H700.674V295H695.687V297ZM705.661 297H710.648V295H705.661V297ZM715.635 297H720.622V295H715.635V297ZM725.609 297H730.596V295H725.609V297ZM735.583 297H740.57V295H735.583V297ZM745.557 297H750.544V295H745.557V297ZM755.531 297H760.518V295H755.531V297ZM765.505 297H768V295H765.505V297ZM769 296V293.533H767V296H769ZM769 288.6V283.667H767V288.6H769ZM769 278.733V273.8H767V278.733H769ZM769 268.867V263.933H767V268.867H769ZM769 259V254.067H767V259H769ZM769 249.133V244.2H767V249.133H769ZM769 239.267V234.333H767V239.267H769ZM769 229.4V224.467H767V229.4H769ZM769 219.533V214.6H767V219.533H769ZM769 209.667V204.733H767V209.667H769ZM769 199.8V194.867H767V199.8H769ZM769 189.933V185H767V189.933H769ZM769 180.067V175.133H767V180.067H769ZM769 170.2V165.267H767V170.2H769ZM769 160.333V155.4H767V160.333H769ZM769 150.467V145.533H767V150.467H769ZM769 140.6V135.667H767V140.6H769ZM769 130.733V125.8H767V130.733H769ZM769 120.867V115.933H767V120.867H769ZM769 111V106.067H767V111H769ZM769 101.133V96.2H767V101.133H769ZM769 91.2666V86.3333H767V91.2666H769ZM769 81.4V76.4666H767V81.4H769ZM769 71.5333V66.6H767V71.5333H769ZM769 61.6666V56.7333H767V61.6666H769ZM769 51.8V46.8666H767V51.8H769ZM769 41.9333V37H767V41.9333H769ZM769 32.0667V27.1333H767V32.0667H769ZM769 22.2V17.2667H767V22.2H769ZM769 12.3334V7.40006H767V12.3334H769ZM769 2.46673V0H767V2.46673H769ZM768 -1H765.506V1H768V-1ZM760.519 -1H755.532V1H760.519V-1ZM750.545 -1H745.558V1H750.545V-1ZM740.571 -1H735.584V1H740.571V-1ZM730.597 -1H725.61V1H730.597V-1ZM720.623 -1H715.636V1H720.623V-1ZM710.649 -1H705.662V1H710.649V-1ZM700.675 -1H695.688V1H700.675V-1ZM690.701 -1H685.714V1H690.701V-1ZM680.727 -1H675.74V1H680.727V-1ZM670.753 -1H665.766V1H670.753V-1ZM660.779 -1H655.792V1H660.779V-1ZM650.805 -1H645.818V1H650.805V-1ZM640.831 -1H635.844V1H640.831V-1ZM630.857 -1H625.87V1H630.857V-1ZM620.883 -1H615.896V1H620.883V-1ZM610.909 -1H605.922V1H610.909V-1ZM600.935 -1H595.948V1H600.935V-1ZM590.961 -1H585.974V1H590.961V-1ZM580.987 -1H576V1H580.987V-1ZM571.013 -1H566.026V1H571.013V-1ZM561.039 -1H556.052V1H561.039V-1ZM551.065 -1H546.078V1H551.065V-1ZM541.091 -1H536.104V1H541.091V-1ZM531.117 -1H526.13V1H531.117V-1ZM521.143 -1H516.156V1H521.143V-1ZM511.169 -1H506.182V1H511.169V-1ZM501.195 -1H496.208V1H501.195V-1ZM491.221 -1H486.234V1H491.221V-1ZM481.247 -1H476.26V1H481.247V-1ZM471.273 -1H466.286V1H471.273V-1ZM461.299 -1H456.312V1H461.299V-1ZM451.325 -1H446.338V1H451.325V-1ZM441.351 -1H436.364V1H441.351V-1ZM431.377 -1H426.39V1H431.377V-1ZM421.403 -1H416.416V1H421.403V-1ZM411.429 -1H406.442V1H411.429V-1ZM401.455 -1H396.468V1H401.455V-1ZM391.481 -1H386.494V1H391.481V-1ZM381.507 -1H376.52V1H381.507V-1ZM371.533 -1H366.546V1H371.533V-1ZM361.559 -1H356.572V1H361.559V-1ZM351.585 -1H346.598V1H351.585V-1ZM341.611 -1H336.624V1H341.611V-1ZM331.637 -1H326.65V1H331.637V-1ZM321.663 -1H316.676V1H321.663V-1ZM311.689 -1H306.702V1H311.689V-1ZM301.715 -1H296.728V1H301.715V-1ZM291.741 -1H286.754V1H291.741V-1ZM281.767 -1H276.78V1H281.767V-1ZM271.793 -1H266.806V1H271.793V-1ZM261.819 -1H256.832V1H261.819V-1ZM251.845 -1H246.858V1H251.845V-1ZM241.871 -1H236.884V1H241.871V-1ZM231.897 -1H226.91V1H231.897V-1ZM221.923 -1H216.936V1H221.923V-1ZM211.949 -1H206.962V1H211.949V-1ZM201.975 -1H196.988V1H201.975V-1ZM192.001 -1H187.014V1H192.001V-1ZM182.027 -1H177.04V1H182.027V-1ZM172.053 -1H167.066V1H172.053V-1ZM162.079 -1H157.092V1H162.079V-1ZM152.105 -1H147.118V1H152.105V-1ZM142.131 -1H137.144V1H142.131V-1ZM132.157 -1H127.17V1H132.157V-1ZM122.183 -1H117.196V1H122.183V-1ZM112.209 -1H107.222V1H112.209V-1ZM102.235 -1H97.2478V1H102.235V-1ZM92.2608 -1H87.2738V1H92.2608V-1ZM82.2868 -1H77.2998V1H82.2868V-1ZM72.3128 -1H67.3258V1H72.3128V-1ZM62.3388 -1H57.3518V1H62.3388V-1ZM52.3648 -1H47.3778V1H52.3648V-1ZM42.3908 -1H37.4038V1H42.3908V-1ZM32.4168 -1H27.4298V1H32.4168V-1ZM22.4428 -1H17.4558V1H22.4428V-1ZM12.4688 -1H7.48183V1H12.4688V-1ZM2.49481 -1H0V1H2.49481V-1Z" fill="#7F20D2"/>
</svg>
