<svg width="768" height="160" viewBox="0 0 768 160" fill="none" xmlns="http://www.w3.org/2000/svg">
<path d="M0 0H768V160H0V0Z" fill="#D9BCF2"/>
<rect x="0.5" y="0.5" width="767" height="71" fill="white"/>
<path d="M347.455 42.1387C346.189 42.8535 344.783 43.2109 343.236 43.2109C341.438 43.2109 339.981 42.6309 338.868 41.4707C337.761 40.3105 337.207 38.7754 337.207 36.8652C337.207 34.9141 337.822 33.3145 339.053 32.0664C340.289 30.8125 341.854 30.1855 343.746 30.1855C345.117 30.1855 346.269 30.4082 347.2 30.8535V32.4883C346.181 31.8438 344.974 31.5215 343.579 31.5215C342.167 31.5215 341.01 32.0078 340.107 32.9805C339.205 33.9531 338.754 35.2129 338.754 36.7598C338.754 38.3535 339.173 39.6074 340.011 40.5215C340.849 41.4297 341.985 41.8838 343.421 41.8838C344.405 41.8838 345.258 41.6875 345.979 41.2949V37.7617H343.219V36.4258H347.455V42.1387ZM354.891 35.459C354.639 35.2656 354.275 35.1689 353.801 35.1689C353.186 35.1689 352.67 35.459 352.254 36.0391C351.844 36.6191 351.639 37.4102 351.639 38.4121V43H350.197V34H351.639V35.8545H351.674C351.879 35.2217 352.192 34.7295 352.614 34.3779C353.036 34.0205 353.508 33.8418 354.029 33.8418C354.404 33.8418 354.691 33.8828 354.891 33.9648V35.459ZM357.193 31.7148C356.936 31.7148 356.716 31.627 356.534 31.4512C356.353 31.2754 356.262 31.0527 356.262 30.7832C356.262 30.5137 356.353 30.291 356.534 30.1152C356.716 29.9336 356.936 29.8428 357.193 29.8428C357.457 29.8428 357.68 29.9336 357.861 30.1152C358.049 30.291 358.143 30.5137 358.143 30.7832C358.143 31.041 358.049 31.2607 357.861 31.4424C357.68 31.624 357.457 31.7148 357.193 31.7148ZM357.896 43H356.455V34H357.896V43ZM368.496 43H367.055V41.4707H367.02C366.352 42.6309 365.32 43.2109 363.926 43.2109C362.795 43.2109 361.89 42.8096 361.21 42.0068C360.536 41.1982 360.199 40.0996 360.199 38.7109C360.199 37.2227 360.574 36.0303 361.324 35.1338C362.074 34.2373 363.073 33.7891 364.321 33.7891C365.558 33.7891 366.457 34.2754 367.02 35.248H367.055V29.6758H368.496V43ZM367.055 38.9307V37.6035C367.055 36.877 366.814 36.2617 366.334 35.7578C365.854 35.2539 365.244 35.002 364.506 35.002C363.627 35.002 362.936 35.3242 362.432 35.9688C361.928 36.6133 361.676 37.5039 361.676 38.6406C361.676 39.6777 361.916 40.498 362.396 41.1016C362.883 41.6992 363.533 41.998 364.348 41.998C365.15 41.998 365.801 41.708 366.299 41.1279C366.803 40.5479 367.055 39.8154 367.055 38.9307ZM376.02 38.5527H371.221V37.4189H376.02V38.5527ZM388.57 43H386.936L385.6 39.4668H380.256L378.999 43H377.355L382.189 30.3965H383.719L388.57 43ZM385.116 38.1396L383.139 32.7695C383.074 32.5938 383.01 32.3125 382.945 31.9258H382.91C382.852 32.2832 382.784 32.5645 382.708 32.7695L380.748 38.1396H385.116ZM394.934 35.459C394.682 35.2656 394.318 35.1689 393.844 35.1689C393.229 35.1689 392.713 35.459 392.297 36.0391C391.887 36.6191 391.682 37.4102 391.682 38.4121V43H390.24V34H391.682V35.8545H391.717C391.922 35.2217 392.235 34.7295 392.657 34.3779C393.079 34.0205 393.551 33.8418 394.072 33.8418C394.447 33.8418 394.734 33.8828 394.934 33.9648V35.459ZM403.731 38.8604H397.377C397.4 39.8623 397.67 40.6357 398.186 41.1807C398.701 41.7256 399.41 41.998 400.312 41.998C401.326 41.998 402.258 41.6641 403.107 40.9961V42.3496C402.316 42.9238 401.271 43.2109 399.97 43.2109C398.698 43.2109 397.699 42.8037 396.973 41.9893C396.246 41.1689 395.883 40.0176 395.883 38.5352C395.883 37.1348 396.278 35.9951 397.069 35.1162C397.866 34.2314 398.854 33.7891 400.031 33.7891C401.209 33.7891 402.12 34.1699 402.765 34.9316C403.409 35.6934 403.731 36.751 403.731 38.1045V38.8604ZM402.255 37.6387C402.249 36.8066 402.047 36.1592 401.648 35.6963C401.256 35.2334 400.708 35.002 400.005 35.002C399.325 35.002 398.748 35.2451 398.273 35.7314C397.799 36.2178 397.506 36.8535 397.395 37.6387H402.255ZM412.362 43H410.921V41.5938H410.886C410.259 42.6719 409.336 43.2109 408.117 43.2109C407.221 43.2109 406.518 42.9736 406.008 42.499C405.504 42.0244 405.252 41.3945 405.252 40.6094C405.252 38.9277 406.242 37.9492 408.223 37.6738L410.921 37.2959C410.921 35.7666 410.303 35.002 409.066 35.002C407.982 35.002 407.004 35.3711 406.131 36.1094V34.6328C407.016 34.0703 408.035 33.7891 409.189 33.7891C411.305 33.7891 412.362 34.9082 412.362 37.1465V43ZM410.921 38.4473L408.75 38.7461C408.082 38.8398 407.578 39.0068 407.238 39.2471C406.898 39.4814 406.729 39.9004 406.729 40.5039C406.729 40.9434 406.884 41.3037 407.194 41.585C407.511 41.8604 407.93 41.998 408.451 41.998C409.166 41.998 409.755 41.749 410.218 41.251C410.687 40.7471 410.921 40.1113 410.921 39.3438V38.4473ZM415.579 35.7578C415.31 35.7578 415.078 35.6611 414.885 35.4678C414.697 35.2744 414.604 35.043 414.604 34.7734C414.604 34.5039 414.697 34.2754 414.885 34.0879C415.078 33.9004 415.31 33.8066 415.579 33.8066C415.854 33.8066 416.089 33.9004 416.282 34.0879C416.476 34.2754 416.572 34.5039 416.572 34.7734C416.572 35.043 416.476 35.2744 416.282 35.4678C416.089 35.6611 415.854 35.7578 415.579 35.7578ZM415.579 43.1934C415.31 43.1934 415.078 43.0967 414.885 42.9033C414.697 42.71 414.604 42.4785 414.604 42.209C414.604 41.9395 414.697 41.708 414.885 41.5146C415.078 41.3154 415.31 41.2158 415.579 41.2158C415.854 41.2158 416.089 41.3154 416.282 41.5146C416.476 41.708 416.572 41.9395 416.572 42.209C416.572 42.4785 416.476 42.71 416.282 42.9033C416.089 43.0967 415.854 43.1934 415.579 43.1934ZM430.362 43H428.921V41.5938H428.886C428.259 42.6719 427.336 43.2109 426.117 43.2109C425.221 43.2109 424.518 42.9736 424.008 42.499C423.504 42.0244 423.252 41.3945 423.252 40.6094C423.252 38.9277 424.242 37.9492 426.223 37.6738L428.921 37.2959C428.921 35.7666 428.303 35.002 427.066 35.002C425.982 35.002 425.004 35.3711 424.131 36.1094V34.6328C425.016 34.0703 426.035 33.7891 427.189 33.7891C429.305 33.7891 430.362 34.9082 430.362 37.1465V43ZM428.921 38.4473L426.75 38.7461C426.082 38.8398 425.578 39.0068 425.238 39.2471C424.898 39.4814 424.729 39.9004 424.729 40.5039C424.729 40.9434 424.884 41.3037 425.194 41.585C425.511 41.8604 425.93 41.998 426.451 41.998C427.166 41.998 427.755 41.749 428.218 41.251C428.687 40.7471 428.921 40.1113 428.921 39.3438V38.4473Z" fill="black"/>
<rect x="0.5" y="0.5" width="767" height="71" stroke="black" stroke-dasharray="5 5"/>
<rect x="0.5" y="88.5" width="375" height="71" fill="white"/>
<path d="M150.743 130.139C149.478 130.854 148.071 131.211 146.524 131.211C144.726 131.211 143.27 130.631 142.156 129.471C141.049 128.311 140.495 126.775 140.495 124.865C140.495 122.914 141.11 121.314 142.341 120.066C143.577 118.812 145.142 118.186 147.034 118.186C148.405 118.186 149.557 118.408 150.488 118.854V120.488C149.469 119.844 148.262 119.521 146.867 119.521C145.455 119.521 144.298 120.008 143.396 120.98C142.493 121.953 142.042 123.213 142.042 124.76C142.042 126.354 142.461 127.607 143.299 128.521C144.137 129.43 145.273 129.884 146.709 129.884C147.693 129.884 148.546 129.688 149.267 129.295V125.762H146.507V124.426H150.743V130.139ZM158.179 123.459C157.927 123.266 157.563 123.169 157.089 123.169C156.474 123.169 155.958 123.459 155.542 124.039C155.132 124.619 154.927 125.41 154.927 126.412V131H153.485V122H154.927V123.854H154.962C155.167 123.222 155.48 122.729 155.902 122.378C156.324 122.021 156.796 121.842 157.317 121.842C157.692 121.842 157.979 121.883 158.179 121.965V123.459ZM160.481 119.715C160.224 119.715 160.004 119.627 159.822 119.451C159.641 119.275 159.55 119.053 159.55 118.783C159.55 118.514 159.641 118.291 159.822 118.115C160.004 117.934 160.224 117.843 160.481 117.843C160.745 117.843 160.968 117.934 161.149 118.115C161.337 118.291 161.431 118.514 161.431 118.783C161.431 119.041 161.337 119.261 161.149 119.442C160.968 119.624 160.745 119.715 160.481 119.715ZM161.185 131H159.743V122H161.185V131ZM171.784 131H170.343V129.471H170.308C169.64 130.631 168.608 131.211 167.214 131.211C166.083 131.211 165.178 130.81 164.498 130.007C163.824 129.198 163.487 128.1 163.487 126.711C163.487 125.223 163.862 124.03 164.612 123.134C165.362 122.237 166.361 121.789 167.609 121.789C168.846 121.789 169.745 122.275 170.308 123.248H170.343V117.676H171.784V131ZM170.343 126.931V125.604C170.343 124.877 170.103 124.262 169.622 123.758C169.142 123.254 168.532 123.002 167.794 123.002C166.915 123.002 166.224 123.324 165.72 123.969C165.216 124.613 164.964 125.504 164.964 126.641C164.964 127.678 165.204 128.498 165.685 129.102C166.171 129.699 166.821 129.998 167.636 129.998C168.438 129.998 169.089 129.708 169.587 129.128C170.091 128.548 170.343 127.815 170.343 126.931ZM179.308 126.553H174.509V125.419H179.308V126.553ZM191.858 131H190.224L188.888 127.467H183.544L182.287 131H180.644L185.478 118.396H187.007L191.858 131ZM188.404 126.14L186.427 120.77C186.362 120.594 186.298 120.312 186.233 119.926H186.198C186.14 120.283 186.072 120.564 185.996 120.77L184.036 126.14H188.404ZM198.222 123.459C197.97 123.266 197.606 123.169 197.132 123.169C196.517 123.169 196.001 123.459 195.585 124.039C195.175 124.619 194.97 125.41 194.97 126.412V131H193.528V122H194.97V123.854H195.005C195.21 123.222 195.523 122.729 195.945 122.378C196.367 122.021 196.839 121.842 197.36 121.842C197.735 121.842 198.022 121.883 198.222 121.965V123.459ZM207.02 126.86H200.665C200.688 127.862 200.958 128.636 201.474 129.181C201.989 129.726 202.698 129.998 203.601 129.998C204.614 129.998 205.546 129.664 206.396 128.996V130.35C205.604 130.924 204.559 131.211 203.258 131.211C201.986 131.211 200.987 130.804 200.261 129.989C199.534 129.169 199.171 128.018 199.171 126.535C199.171 125.135 199.566 123.995 200.357 123.116C201.154 122.231 202.142 121.789 203.319 121.789C204.497 121.789 205.408 122.17 206.053 122.932C206.697 123.693 207.02 124.751 207.02 126.104V126.86ZM205.543 125.639C205.537 124.807 205.335 124.159 204.937 123.696C204.544 123.233 203.996 123.002 203.293 123.002C202.613 123.002 202.036 123.245 201.562 123.731C201.087 124.218 200.794 124.854 200.683 125.639H205.543ZM215.65 131H214.209V129.594H214.174C213.547 130.672 212.624 131.211 211.405 131.211C210.509 131.211 209.806 130.974 209.296 130.499C208.792 130.024 208.54 129.395 208.54 128.609C208.54 126.928 209.53 125.949 211.511 125.674L214.209 125.296C214.209 123.767 213.591 123.002 212.354 123.002C211.271 123.002 210.292 123.371 209.419 124.109V122.633C210.304 122.07 211.323 121.789 212.478 121.789C214.593 121.789 215.65 122.908 215.65 125.146V131ZM214.209 126.447L212.038 126.746C211.37 126.84 210.866 127.007 210.526 127.247C210.187 127.481 210.017 127.9 210.017 128.504C210.017 128.943 210.172 129.304 210.482 129.585C210.799 129.86 211.218 129.998 211.739 129.998C212.454 129.998 213.043 129.749 213.506 129.251C213.975 128.747 214.209 128.111 214.209 127.344V126.447ZM218.867 123.758C218.598 123.758 218.366 123.661 218.173 123.468C217.985 123.274 217.892 123.043 217.892 122.773C217.892 122.504 217.985 122.275 218.173 122.088C218.366 121.9 218.598 121.807 218.867 121.807C219.143 121.807 219.377 121.9 219.57 122.088C219.764 122.275 219.86 122.504 219.86 122.773C219.86 123.043 219.764 123.274 219.57 123.468C219.377 123.661 219.143 123.758 218.867 123.758ZM218.867 131.193C218.598 131.193 218.366 131.097 218.173 130.903C217.985 130.71 217.892 130.479 217.892 130.209C217.892 129.939 217.985 129.708 218.173 129.515C218.366 129.315 218.598 129.216 218.867 129.216C219.143 129.216 219.377 129.315 219.57 129.515C219.764 129.708 219.86 129.939 219.86 130.209C219.86 130.479 219.764 130.71 219.57 130.903C219.377 131.097 219.143 131.193 218.867 131.193ZM228.685 129.699H228.649V131H227.208V117.676H228.649V123.582H228.685C229.394 122.387 230.431 121.789 231.796 121.789C232.95 121.789 233.853 122.193 234.503 123.002C235.159 123.805 235.487 124.883 235.487 126.236C235.487 127.742 235.121 128.949 234.389 129.857C233.656 130.76 232.654 131.211 231.383 131.211C230.193 131.211 229.294 130.707 228.685 129.699ZM228.649 126.069V127.326C228.649 128.07 228.89 128.703 229.37 129.225C229.856 129.74 230.472 129.998 231.216 129.998C232.089 129.998 232.771 129.664 233.264 128.996C233.762 128.328 234.011 127.399 234.011 126.21C234.011 125.208 233.779 124.423 233.316 123.854C232.854 123.286 232.227 123.002 231.436 123.002C230.598 123.002 229.924 123.295 229.414 123.881C228.904 124.461 228.649 125.19 228.649 126.069Z" fill="black"/>
<rect x="0.5" y="88.5" width="375" height="71" stroke="black" stroke-dasharray="5 5"/>
<rect x="392.5" y="88.5" width="375" height="71" fill="white"/>
<path d="M543.877 130.139C542.611 130.854 541.205 131.211 539.658 131.211C537.859 131.211 536.403 130.631 535.29 129.471C534.183 128.311 533.629 126.775 533.629 124.865C533.629 122.914 534.244 121.314 535.475 120.066C536.711 118.812 538.275 118.186 540.168 118.186C541.539 118.186 542.69 118.408 543.622 118.854V120.488C542.603 119.844 541.396 119.521 540.001 119.521C538.589 119.521 537.432 120.008 536.529 120.98C535.627 121.953 535.176 123.213 535.176 124.76C535.176 126.354 535.595 127.607 536.433 128.521C537.271 129.43 538.407 129.884 539.843 129.884C540.827 129.884 541.68 129.688 542.4 129.295V125.762H539.641V124.426H543.877V130.139ZM551.312 123.459C551.061 123.266 550.697 123.169 550.223 123.169C549.607 123.169 549.092 123.459 548.676 124.039C548.266 124.619 548.061 125.41 548.061 126.412V131H546.619V122H548.061V123.854H548.096C548.301 123.222 548.614 122.729 549.036 122.378C549.458 122.021 549.93 121.842 550.451 121.842C550.826 121.842 551.113 121.883 551.312 121.965V123.459ZM553.615 119.715C553.357 119.715 553.138 119.627 552.956 119.451C552.774 119.275 552.684 119.053 552.684 118.783C552.684 118.514 552.774 118.291 552.956 118.115C553.138 117.934 553.357 117.843 553.615 117.843C553.879 117.843 554.102 117.934 554.283 118.115C554.471 118.291 554.564 118.514 554.564 118.783C554.564 119.041 554.471 119.261 554.283 119.442C554.102 119.624 553.879 119.715 553.615 119.715ZM554.318 131H552.877V122H554.318V131ZM564.918 131H563.477V129.471H563.441C562.773 130.631 561.742 131.211 560.348 131.211C559.217 131.211 558.312 130.81 557.632 130.007C556.958 129.198 556.621 128.1 556.621 126.711C556.621 125.223 556.996 124.03 557.746 123.134C558.496 122.237 559.495 121.789 560.743 121.789C561.979 121.789 562.879 122.275 563.441 123.248H563.477V117.676H564.918V131ZM563.477 126.931V125.604C563.477 124.877 563.236 124.262 562.756 123.758C562.275 123.254 561.666 123.002 560.928 123.002C560.049 123.002 559.357 123.324 558.854 123.969C558.35 124.613 558.098 125.504 558.098 126.641C558.098 127.678 558.338 128.498 558.818 129.102C559.305 129.699 559.955 129.998 560.77 129.998C561.572 129.998 562.223 129.708 562.721 129.128C563.225 128.548 563.477 127.815 563.477 126.931ZM572.441 126.553H567.643V125.419H572.441V126.553ZM584.992 131H583.357L582.021 127.467H576.678L575.421 131H573.777L578.611 118.396H580.141L584.992 131ZM581.538 126.14L579.561 120.77C579.496 120.594 579.432 120.312 579.367 119.926H579.332C579.273 120.283 579.206 120.564 579.13 120.77L577.17 126.14H581.538ZM591.355 123.459C591.104 123.266 590.74 123.169 590.266 123.169C589.65 123.169 589.135 123.459 588.719 124.039C588.309 124.619 588.104 125.41 588.104 126.412V131H586.662V122H588.104V123.854H588.139C588.344 123.222 588.657 122.729 589.079 122.378C589.501 122.021 589.973 121.842 590.494 121.842C590.869 121.842 591.156 121.883 591.355 121.965V123.459ZM600.153 126.86H593.799C593.822 127.862 594.092 128.636 594.607 129.181C595.123 129.726 595.832 129.998 596.734 129.998C597.748 129.998 598.68 129.664 599.529 128.996V130.35C598.738 130.924 597.692 131.211 596.392 131.211C595.12 131.211 594.121 130.804 593.395 129.989C592.668 129.169 592.305 128.018 592.305 126.535C592.305 125.135 592.7 123.995 593.491 123.116C594.288 122.231 595.275 121.789 596.453 121.789C597.631 121.789 598.542 122.17 599.187 122.932C599.831 123.693 600.153 124.751 600.153 126.104V126.86ZM598.677 125.639C598.671 124.807 598.469 124.159 598.07 123.696C597.678 123.233 597.13 123.002 596.427 123.002C595.747 123.002 595.17 123.245 594.695 123.731C594.221 124.218 593.928 124.854 593.816 125.639H598.677ZM608.784 131H607.343V129.594H607.308C606.681 130.672 605.758 131.211 604.539 131.211C603.643 131.211 602.939 130.974 602.43 130.499C601.926 130.024 601.674 129.395 601.674 128.609C601.674 126.928 602.664 125.949 604.645 125.674L607.343 125.296C607.343 123.767 606.725 123.002 605.488 123.002C604.404 123.002 603.426 123.371 602.553 124.109V122.633C603.438 122.07 604.457 121.789 605.611 121.789C607.727 121.789 608.784 122.908 608.784 125.146V131ZM607.343 126.447L605.172 126.746C604.504 126.84 604 127.007 603.66 127.247C603.32 127.481 603.15 127.9 603.15 128.504C603.15 128.943 603.306 129.304 603.616 129.585C603.933 129.86 604.352 129.998 604.873 129.998C605.588 129.998 606.177 129.749 606.64 129.251C607.108 128.747 607.343 128.111 607.343 127.344V126.447ZM612.001 123.758C611.731 123.758 611.5 123.661 611.307 123.468C611.119 123.274 611.025 123.043 611.025 122.773C611.025 122.504 611.119 122.275 611.307 122.088C611.5 121.9 611.731 121.807 612.001 121.807C612.276 121.807 612.511 121.9 612.704 122.088C612.897 122.275 612.994 122.504 612.994 122.773C612.994 123.043 612.897 123.274 612.704 123.468C612.511 123.661 612.276 123.758 612.001 123.758ZM612.001 131.193C611.731 131.193 611.5 131.097 611.307 130.903C611.119 130.71 611.025 130.479 611.025 130.209C611.025 129.939 611.119 129.708 611.307 129.515C611.5 129.315 611.731 129.216 612.001 129.216C612.276 129.216 612.511 129.315 612.704 129.515C612.897 129.708 612.994 129.939 612.994 130.209C612.994 130.479 612.897 130.71 612.704 130.903C612.511 131.097 612.276 131.193 612.001 131.193ZM626.477 130.587C625.785 131.003 624.965 131.211 624.016 131.211C622.732 131.211 621.695 130.795 620.904 129.963C620.119 129.125 619.727 128.041 619.727 126.711C619.727 125.229 620.151 124.039 621.001 123.143C621.851 122.24 622.984 121.789 624.402 121.789C625.193 121.789 625.891 121.936 626.494 122.229V123.705C625.826 123.236 625.111 123.002 624.35 123.002C623.43 123.002 622.674 123.333 622.082 123.995C621.496 124.651 621.203 125.516 621.203 126.588C621.203 127.643 621.479 128.475 622.029 129.084C622.586 129.693 623.33 129.998 624.262 129.998C625.047 129.998 625.785 129.737 626.477 129.216V130.587Z" fill="black"/>
<rect x="392.5" y="88.5" width="375" height="71" stroke="black" stroke-dasharray="5 5"/>
<path d="M0 0V-0.5H-0.5V0H0ZM768 0H768.5V-0.5H768V0ZM768 160V160.5H768.5V160H768ZM0 160H-0.5V160.5H0V160ZM-0.5 0V2.5H0.5V0H-0.5ZM-0.5 7.5V12.5H0.5V7.5H-0.5ZM-0.5 17.5V22.5H0.5V17.5H-0.5ZM-0.5 27.5V32.5H0.5V27.5H-0.5ZM-0.5 37.5V42.5H0.5V37.5H-0.5ZM-0.5 47.5V52.5H0.5V47.5H-0.5ZM-0.5 57.5V62.5H0.5V57.5H-0.5ZM-0.5 67.5V72.5H0.5V67.5H-0.5ZM-0.5 77.5V82.5H0.5V77.5H-0.5ZM-0.5 87.5V92.5H0.5V87.5H-0.5ZM-0.5 97.5V102.5H0.5V97.5H-0.5ZM-0.5 107.5V112.5H0.5V107.5H-0.5ZM-0.5 117.5V122.5H0.5V117.5H-0.5ZM-0.5 127.5V132.5H0.5V127.5H-0.5ZM-0.5 137.5V142.5H0.5V137.5H-0.5ZM-0.5 147.5V152.5H0.5V147.5H-0.5ZM-0.5 157.5V160H0.5V157.5H-0.5ZM0 160.5H2.49351V159.5H0V160.5ZM7.48052 160.5H12.4675V159.5H7.48052V160.5ZM17.4545 160.5H22.4416V159.5H17.4545V160.5ZM27.4286 160.5H32.4156V159.5H27.4286V160.5ZM37.4026 160.5H42.3896V159.5H37.4026V160.5ZM47.3766 160.5H52.3636V159.5H47.3766V160.5ZM57.3507 160.5H62.3377V159.5H57.3507V160.5ZM67.3247 160.5H72.3117V159.5H67.3247V160.5ZM77.2987 160.5H82.2857V159.5H77.2987V160.5ZM87.2727 160.5H92.2598V159.5H87.2727V160.5ZM97.2468 160.5H102.234V159.5H97.2468V160.5ZM107.221 160.5H112.208V159.5H107.221V160.5ZM117.195 160.5H122.182V159.5H117.195V160.5ZM127.169 160.5H132.156V159.5H127.169V160.5ZM137.143 160.5H142.13V159.5H137.143V160.5ZM147.117 160.5H152.104V159.5H147.117V160.5ZM157.091 160.5H162.078V159.5H157.091V160.5ZM167.065 160.5H172.052V159.5H167.065V160.5ZM177.039 160.5H182.026V159.5H177.039V160.5ZM187.013 160.5H192V159.5H187.013V160.5ZM196.987 160.5H201.974V159.5H196.987V160.5ZM206.961 160.5H211.948V159.5H206.961V160.5ZM216.935 160.5H221.922V159.5H216.935V160.5ZM226.909 160.5H231.896V159.5H226.909V160.5ZM236.883 160.5H241.87V159.5H236.883V160.5ZM246.857 160.5H251.844V159.5H246.857V160.5ZM256.831 160.5H261.818V159.5H256.831V160.5ZM266.805 160.5H271.792V159.5H266.805V160.5ZM276.779 160.5H281.766V159.5H276.779V160.5ZM286.753 160.5H291.74V159.5H286.753V160.5ZM296.727 160.5H301.714V159.5H296.727V160.5ZM306.701 160.5H311.688V159.5H306.701V160.5ZM316.675 160.5H321.662V159.5H316.675V160.5ZM326.649 160.5H331.636V159.5H326.649V160.5ZM336.623 160.5H341.61V159.5H336.623V160.5ZM346.597 160.5H351.584V159.5H346.597V160.5ZM356.571 160.5H361.558V159.5H356.571V160.5ZM366.545 160.5H371.532V159.5H366.545V160.5ZM376.519 160.5H381.506V159.5H376.519V160.5ZM386.493 160.5H391.48V159.5H386.493V160.5ZM396.467 160.5H401.454V159.5H396.467V160.5ZM406.441 160.5H411.428V159.5H406.441V160.5ZM416.415 160.5H421.402V159.5H416.415V160.5ZM426.389 160.5H431.376V159.5H426.389V160.5ZM436.363 160.5H441.35V159.5H436.363V160.5ZM446.337 160.5H451.324V159.5H446.337V160.5ZM456.311 160.5H461.298V159.5H456.311V160.5ZM466.285 160.5H471.272V159.5H466.285V160.5ZM476.259 160.5H481.246V159.5H476.259V160.5ZM486.233 160.5H491.22V159.5H486.233V160.5ZM496.207 160.5H501.194V159.5H496.207V160.5ZM506.181 160.5H511.168V159.5H506.181V160.5ZM516.155 160.5H521.142V159.5H516.155V160.5ZM526.129 160.5H531.116V159.5H526.129V160.5ZM536.103 160.5H541.09V159.5H536.103V160.5ZM546.077 160.5H551.064V159.5H546.077V160.5ZM556.051 160.5H561.038V159.5H556.051V160.5ZM566.025 160.5H571.012V159.5H566.025V160.5ZM575.999 160.5H580.986V159.5H575.999V160.5ZM585.973 160.5H590.96V159.5H585.973V160.5ZM595.947 160.5H600.934V159.5H595.947V160.5ZM605.921 160.5H610.908V159.5H605.921V160.5ZM615.895 160.5H620.882V159.5H615.895V160.5ZM625.869 160.5H630.856V159.5H625.869V160.5ZM635.843 160.5H640.83V159.5H635.843V160.5ZM645.817 160.5H650.804V159.5H645.817V160.5ZM655.791 160.5H660.778V159.5H655.791V160.5ZM665.765 160.5H670.752V159.5H665.765V160.5ZM675.739 160.5H680.726V159.5H675.739V160.5ZM685.713 160.5H690.7V159.5H685.713V160.5ZM695.687 160.5H700.674V159.5H695.687V160.5ZM705.661 160.5H710.648V159.5H705.661V160.5ZM715.635 160.5H720.622V159.5H715.635V160.5ZM725.609 160.5H730.596V159.5H725.609V160.5ZM735.583 160.5H740.57V159.5H735.583V160.5ZM745.557 160.5H750.544V159.5H745.557V160.5ZM755.531 160.5H760.518V159.5H755.531V160.5ZM765.505 160.5H768V159.5H765.505V160.5ZM768.5 160V157.5H767.5V160H768.5ZM768.5 152.5V147.5H767.5V152.5H768.5ZM768.5 142.5V137.5H767.5V142.5H768.5ZM768.5 132.5V127.5H767.5V132.5H768.5ZM768.5 122.5V117.5H767.5V122.5H768.5ZM768.5 112.5V107.5H767.5V112.5H768.5ZM768.5 102.5V97.5H767.5V102.5H768.5ZM768.5 92.5V87.5H767.5V92.5H768.5ZM768.5 82.5V77.5H767.5V82.5H768.5ZM768.5 72.5V67.5H767.5V72.5H768.5ZM768.5 62.5V57.5H767.5V62.5H768.5ZM768.5 52.5V47.5H767.5V52.5H768.5ZM768.5 42.5V37.5H767.5V42.5H768.5ZM768.5 32.5V27.5H767.5V32.5H768.5ZM768.5 22.5V17.5H767.5V22.5H768.5ZM768.5 12.5V7.5H767.5V12.5H768.5ZM768.5 2.5V0H767.5V2.5H768.5ZM768 -0.5H765.506V0.5H768V-0.5ZM760.519 -0.5H755.532V0.5H760.519V-0.5ZM750.545 -0.5H745.558V0.5H750.545V-0.5ZM740.571 -0.5H735.584V0.5H740.571V-0.5ZM730.597 -0.5H725.61V0.5H730.597V-0.5ZM720.623 -0.5H715.636V0.5H720.623V-0.5ZM710.649 -0.5H705.662V0.5H710.649V-0.5ZM700.675 -0.5H695.688V0.5H700.675V-0.5ZM690.701 -0.5H685.714V0.5H690.701V-0.5ZM680.727 -0.5H675.74V0.5H680.727V-0.5ZM670.753 -0.5H665.766V0.5H670.753V-0.5ZM660.779 -0.5H655.792V0.5H660.779V-0.5ZM650.805 -0.5H645.818V0.5H650.805V-0.5ZM640.831 -0.5H635.844V0.5H640.831V-0.5ZM630.857 -0.5H625.87V0.5H630.857V-0.5ZM620.883 -0.5H615.896V0.5H620.883V-0.5ZM610.909 -0.5H605.922V0.5H610.909V-0.5ZM600.935 -0.5H595.948V0.5H600.935V-0.5ZM590.961 -0.5H585.974V0.5H590.961V-0.5ZM580.987 -0.5H576V0.5H580.987V-0.5ZM571.013 -0.5H566.026V0.5H571.013V-0.5ZM561.039 -0.5H556.052V0.5H561.039V-0.5ZM551.065 -0.5H546.078V0.5H551.065V-0.5ZM541.091 -0.5H536.104V0.5H541.091V-0.5ZM531.117 -0.5H526.13V0.5H531.117V-0.5ZM521.143 -0.5H516.156V0.5H521.143V-0.5ZM511.169 -0.5H506.182V0.5H511.169V-0.5ZM501.195 -0.5H496.208V0.5H501.195V-0.5ZM491.221 -0.5H486.234V0.5H491.221V-0.5ZM481.247 -0.5H476.26V0.5H481.247V-0.5ZM471.273 -0.5H466.286V0.5H471.273V-0.5ZM461.299 -0.5H456.312V0.5H461.299V-0.5ZM451.325 -0.5H446.338V0.5H451.325V-0.5ZM441.351 -0.5H436.364V0.5H441.351V-0.5ZM431.377 -0.5H426.39V0.5H431.377V-0.5ZM421.403 -0.5H416.416V0.5H421.403V-0.5ZM411.429 -0.5H406.442V0.5H411.429V-0.5ZM401.455 -0.5H396.468V0.5H401.455V-0.5ZM391.481 -0.5H386.494V0.5H391.481V-0.5ZM381.507 -0.5H376.52V0.5H381.507V-0.5ZM371.533 -0.5H366.546V0.5H371.533V-0.5ZM361.559 -0.5H356.572V0.5H361.559V-0.5ZM351.585 -0.5H346.598V0.5H351.585V-0.5ZM341.611 -0.5H336.624V0.5H341.611V-0.5ZM331.637 -0.5H326.65V0.5H331.637V-0.5ZM321.663 -0.5H316.676V0.5H321.663V-0.5ZM311.689 -0.5H306.702V0.5H311.689V-0.5ZM301.715 -0.5H296.728V0.5H301.715V-0.5ZM291.741 -0.5H286.754V0.5H291.741V-0.5ZM281.767 -0.5H276.78V0.5H281.767V-0.5ZM271.793 -0.5H266.806V0.5H271.793V-0.5ZM261.819 -0.5H256.832V0.5H261.819V-0.5ZM251.845 -0.5H246.858V0.5H251.845V-0.5ZM241.871 -0.5H236.884V0.5H241.871V-0.5ZM231.897 -0.5H226.91V0.5H231.897V-0.5ZM221.923 -0.5H216.936V0.5H221.923V-0.5ZM211.949 -0.5H206.962V0.5H211.949V-0.5ZM201.975 -0.5H196.988V0.5H201.975V-0.5ZM192.001 -0.5H187.014V0.5H192.001V-0.5ZM182.027 -0.5H177.04V0.5H182.027V-0.5ZM172.053 -0.5H167.066V0.5H172.053V-0.5ZM162.079 -0.5H157.092V0.5H162.079V-0.5ZM152.105 -0.5H147.118V0.5H152.105V-0.5ZM142.131 -0.5H137.144V0.5H142.131V-0.5ZM132.157 -0.5H127.17V0.5H132.157V-0.5ZM122.183 -0.5H117.196V0.5H122.183V-0.5ZM112.209 -0.5H107.222V0.5H112.209V-0.5ZM102.235 -0.5H97.2478V0.5H102.235V-0.5ZM92.2608 -0.5H87.2738V0.5H92.2608V-0.5ZM82.2868 -0.5H77.2998V0.5H82.2868V-0.5ZM72.3128 -0.5H67.3258V0.5H72.3128V-0.5ZM62.3388 -0.5H57.3518V0.5H62.3388V-0.5ZM52.3648 -0.5H47.3778V0.5H52.3648V-0.5ZM42.3908 -0.5H37.4038V0.5H42.3908V-0.5ZM32.4168 -0.5H27.4298V0.5H32.4168V-0.5ZM22.4428 -0.5H17.4558V0.5H22.4428V-0.5ZM12.4688 -0.5H7.48183V0.5H12.4688V-0.5ZM2.49481 -0.5H0V0.5H2.49481V-0.5ZM0 0V-1H-1V0H0ZM768 0H769V-1H768V0ZM768 160V161H769V160H768ZM0 160H-1V161H0V160ZM-1 0V2.5H1V0H-1ZM-1 7.5V12.5H1V7.5H-1ZM-1 17.5V22.5H1V17.5H-1ZM-1 27.5V32.5H1V27.5H-1ZM-1 37.5V42.5H1V37.5H-1ZM-1 47.5V52.5H1V47.5H-1ZM-1 57.5V62.5H1V57.5H-1ZM-1 67.5V72.5H1V67.5H-1ZM-1 77.5V82.5H1V77.5H-1ZM-1 87.5V92.5H1V87.5H-1ZM-1 97.5V102.5H1V97.5H-1ZM-1 107.5V112.5H1V107.5H-1ZM-1 117.5V122.5H1V117.5H-1ZM-1 127.5V132.5H1V127.5H-1ZM-1 137.5V142.5H1V137.5H-1ZM-1 147.5V152.5H1V147.5H-1ZM-1 157.5V160H1V157.5H-1ZM0 161H2.49351V159H0V161ZM7.48052 161H12.4675V159H7.48052V161ZM17.4545 161H22.4416V159H17.4545V161ZM27.4286 161H32.4156V159H27.4286V161ZM37.4026 161H42.3896V159H37.4026V161ZM47.3766 161H52.3636V159H47.3766V161ZM57.3507 161H62.3377V159H57.3507V161ZM67.3247 161H72.3117V159H67.3247V161ZM77.2987 161H82.2857V159H77.2987V161ZM87.2727 161H92.2598V159H87.2727V161ZM97.2468 161H102.234V159H97.2468V161ZM107.221 161H112.208V159H107.221V161ZM117.195 161H122.182V159H117.195V161ZM127.169 161H132.156V159H127.169V161ZM137.143 161H142.13V159H137.143V161ZM147.117 161H152.104V159H147.117V161ZM157.091 161H162.078V159H157.091V161ZM167.065 161H172.052V159H167.065V161ZM177.039 161H182.026V159H177.039V161ZM187.013 161H192V159H187.013V161ZM196.987 161H201.974V159H196.987V161ZM206.961 161H211.948V159H206.961V161ZM216.935 161H221.922V159H216.935V161ZM226.909 161H231.896V159H226.909V161ZM236.883 161H241.87V159H236.883V161ZM246.857 161H251.844V159H246.857V161ZM256.831 161H261.818V159H256.831V161ZM266.805 161H271.792V159H266.805V161ZM276.779 161H281.766V159H276.779V161ZM286.753 161H291.74V159H286.753V161ZM296.727 161H301.714V159H296.727V161ZM306.701 161H311.688V159H306.701V161ZM316.675 161H321.662V159H316.675V161ZM326.649 161H331.636V159H326.649V161ZM336.623 161H341.61V159H336.623V161ZM346.597 161H351.584V159H346.597V161ZM356.571 161H361.558V159H356.571V161ZM366.545 161H371.532V159H366.545V161ZM376.519 161H381.506V159H376.519V161ZM386.493 161H391.48V159H386.493V161ZM396.467 161H401.454V159H396.467V161ZM406.441 161H411.428V159H406.441V161ZM416.415 161H421.402V159H416.415V161ZM426.389 161H431.376V159H426.389V161ZM436.363 161H441.35V159H436.363V161ZM446.337 161H451.324V159H446.337V161ZM456.311 161H461.298V159H456.311V161ZM466.285 161H471.272V159H466.285V161ZM476.259 161H481.246V159H476.259V161ZM486.233 161H491.22V159H486.233V161ZM496.207 161H501.194V159H496.207V161ZM506.181 161H511.168V159H506.181V161ZM516.155 161H521.142V159H516.155V161ZM526.129 161H531.116V159H526.129V161ZM536.103 161H541.09V159H536.103V161ZM546.077 161H551.064V159H546.077V161ZM556.051 161H561.038V159H556.051V161ZM566.025 161H571.012V159H566.025V161ZM575.999 161H580.986V159H575.999V161ZM585.973 161H590.96V159H585.973V161ZM595.947 161H600.934V159H595.947V161ZM605.921 161H610.908V159H605.921V161ZM615.895 161H620.882V159H615.895V161ZM625.869 161H630.856V159H625.869V161ZM635.843 161H640.83V159H635.843V161ZM645.817 161H650.804V159H645.817V161ZM655.791 161H660.778V159H655.791V161ZM665.765 161H670.752V159H665.765V161ZM675.739 161H680.726V159H675.739V161ZM685.713 161H690.7V159H685.713V161ZM695.687 161H700.674V159H695.687V161ZM705.661 161H710.648V159H705.661V161ZM715.635 161H720.622V159H715.635V161ZM725.609 161H730.596V159H725.609V161ZM735.583 161H740.57V159H735.583V161ZM745.557 161H750.544V159H745.557V161ZM755.531 161H760.518V159H755.531V161ZM765.505 161H768V159H765.505V161ZM769 160V157.5H767V160H769ZM769 152.5V147.5H767V152.5H769ZM769 142.5V137.5H767V142.5H769ZM769 132.5V127.5H767V132.5H769ZM769 122.5V117.5H767V122.5H769ZM769 112.5V107.5H767V112.5H769ZM769 102.5V97.5H767V102.5H769ZM769 92.5V87.5H767V92.5H769ZM769 82.5V77.5H767V82.5H769ZM769 72.5V67.5H767V72.5H769ZM769 62.5V57.5H767V62.5H769ZM769 52.5V47.5H767V52.5H769ZM769 42.5V37.5H767V42.5H769ZM769 32.5V27.5H767V32.5H769ZM769 22.5V17.5H767V22.5H769ZM769 12.5V7.5H767V12.5H769ZM769 2.5V0H767V2.5H769ZM768 -1H765.506V1H768V-1ZM760.519 -1H755.532V1H760.519V-1ZM750.545 -1H745.558V1H750.545V-1ZM740.571 -1H735.584V1H740.571V-1ZM730.597 -1H725.61V1H730.597V-1ZM720.623 -1H715.636V1H720.623V-1ZM710.649 -1H705.662V1H710.649V-1ZM700.675 -1H695.688V1H700.675V-1ZM690.701 -1H685.714V1H690.701V-1ZM680.727 -1H675.74V1H680.727V-1ZM670.753 -1H665.766V1H670.753V-1ZM660.779 -1H655.792V1H660.779V-1ZM650.805 -1H645.818V1H650.805V-1ZM640.831 -1H635.844V1H640.831V-1ZM630.857 -1H625.87V1H630.857V-1ZM620.883 -1H615.896V1H620.883V-1ZM610.909 -1H605.922V1H610.909V-1ZM600.935 -1H595.948V1H600.935V-1ZM590.961 -1H585.974V1H590.961V-1ZM580.987 -1H576V1H580.987V-1ZM571.013 -1H566.026V1H571.013V-1ZM561.039 -1H556.052V1H561.039V-1ZM551.065 -1H546.078V1H551.065V-1ZM541.091 -1H536.104V1H541.091V-1ZM531.117 -1H526.13V1H531.117V-1ZM521.143 -1H516.156V1H521.143V-1ZM511.169 -1H506.182V1H511.169V-1ZM501.195 -1H496.208V1H501.195V-1ZM491.221 -1H486.234V1H491.221V-1ZM481.247 -1H476.26V1H481.247V-1ZM471.273 -1H466.286V1H471.273V-1ZM461.299 -1H456.312V1H461.299V-1ZM451.325 -1H446.338V1H451.325V-1ZM441.351 -1H436.364V1H441.351V-1ZM431.377 -1H426.39V1H431.377V-1ZM421.403 -1H416.416V1H421.403V-1ZM411.429 -1H406.442V1H411.429V-1ZM401.455 -1H396.468V1H401.455V-1ZM391.481 -1H386.494V1H391.481V-1ZM381.507 -1H376.52V1H381.507V-1ZM371.533 -1H366.546V1H371.533V-1ZM361.559 -1H356.572V1H361.559V-1ZM351.585 -1H346.598V1H351.585V-1ZM341.611 -1H336.624V1H341.611V-1ZM331.637 -1H326.65V1H331.637V-1ZM321.663 -1H316.676V1H321.663V-1ZM311.689 -1H306.702V1H311.689V-1ZM301.715 -1H296.728V1H301.715V-1ZM291.741 -1H286.754V1H291.741V-1ZM281.767 -1H276.78V1H281.767V-1ZM271.793 -1H266.806V1H271.793V-1ZM261.819 -1H256.832V1H261.819V-1ZM251.845 -1H246.858V1H251.845V-1ZM241.871 -1H236.884V1H241.871V-1ZM231.897 -1H226.91V1H231.897V-1ZM221.923 -1H216.936V1H221.923V-1ZM211.949 -1H206.962V1H211.949V-1ZM201.975 -1H196.988V1H201.975V-1ZM192.001 -1H187.014V1H192.001V-1ZM182.027 -1H177.04V1H182.027V-1ZM172.053 -1H167.066V1H172.053V-1ZM162.079 -1H157.092V1H162.079V-1ZM152.105 -1H147.118V1H152.105V-1ZM142.131 -1H137.144V1H142.131V-1ZM132.157 -1H127.17V1H132.157V-1ZM122.183 -1H117.196V1H122.183V-1ZM112.209 -1H107.222V1H112.209V-1ZM102.235 -1H97.2478V1H102.235V-1ZM92.2608 -1H87.2738V1H92.2608V-1ZM82.2868 -1H77.2998V1H82.2868V-1ZM72.3128 -1H67.3258V1H72.3128V-1ZM62.3388 -1H57.3518V1H62.3388V-1ZM52.3648 -1H47.3778V1H52.3648V-1ZM42.3908 -1H37.4038V1H42.3908V-1ZM32.4168 -1H27.4298V1H32.4168V-1ZM22.4428 -1H17.4558V1H22.4428V-1ZM12.4688 -1H7.48183V1H12.4688V-1ZM2.49481 -1H0V1H2.49481V-1Z" fill="#7F20D2"/>
</svg>
