<svg width="720" height="233" viewBox="0 0 720 233" fill="none" xmlns="http://www.w3.org/2000/svg">
<path d="M291.953 35H286.891V25.875H277.609V35H272.562V12.5938H277.609V21.5312H286.891V12.5938H291.953V35ZM310.984 28.4062H300.547C300.714 30.7292 302.177 31.8906 304.938 31.8906C306.698 31.8906 308.245 31.474 309.578 30.6406V34.2031C308.099 34.9948 306.177 35.3906 303.812 35.3906C301.229 35.3906 299.224 34.6771 297.797 33.25C296.37 31.8125 295.656 29.8125 295.656 27.25C295.656 24.5938 296.427 22.4896 297.969 20.9375C299.51 19.3854 301.406 18.6094 303.656 18.6094C305.99 18.6094 307.792 19.3021 309.062 20.6875C310.344 22.0729 310.984 23.9531 310.984 26.3281V28.4062ZM306.406 25.375C306.406 23.0833 305.479 21.9375 303.625 21.9375C302.833 21.9375 302.146 22.2656 301.562 22.9219C300.99 23.5781 300.641 24.3958 300.516 25.375H306.406ZM327.234 35H322.562V32.7031H322.5C321.427 34.4948 319.839 35.3906 317.734 35.3906C316.182 35.3906 314.958 34.9531 314.062 34.0781C313.177 33.1927 312.734 32.0156 312.734 30.5469C312.734 27.4427 314.573 25.651 318.25 25.1719L322.594 24.5938C322.594 22.8438 321.646 21.9688 319.75 21.9688C317.844 21.9688 316.031 22.5365 314.312 23.6719V19.9531C315 19.599 315.938 19.2865 317.125 19.0156C318.323 18.7448 319.411 18.6094 320.391 18.6094C324.953 18.6094 327.234 20.8854 327.234 25.4375V35ZM322.594 28.5V27.4219L319.688 27.7969C318.083 28.0052 317.281 28.7292 317.281 29.9688C317.281 30.5312 317.474 30.9948 317.859 31.3594C318.255 31.7135 318.786 31.8906 319.453 31.8906C320.38 31.8906 321.135 31.5729 321.719 30.9375C322.302 30.2917 322.594 29.4792 322.594 28.5ZM346.797 35H341.859V32.7969H341.797C340.672 34.526 339.021 35.3906 336.844 35.3906C334.844 35.3906 333.234 34.6875 332.016 33.2812C330.797 31.8646 330.188 29.8906 330.188 27.3594C330.188 24.7135 330.859 22.5938 332.203 21C333.547 19.4062 335.307 18.6094 337.484 18.6094C339.547 18.6094 340.984 19.349 341.797 20.8281H341.859V11.3125H346.797V35ZM341.953 27.2188V26.0156C341.953 24.974 341.651 24.1094 341.047 23.4219C340.443 22.7344 339.656 22.3906 338.688 22.3906C337.594 22.3906 336.74 22.8229 336.125 23.6875C335.51 24.5417 335.203 25.7188 335.203 27.2188C335.203 28.625 335.5 29.7083 336.094 30.4688C336.688 31.2292 337.51 31.6094 338.562 31.6094C339.562 31.6094 340.375 31.2083 341 30.4062C341.635 29.6042 341.953 28.5417 341.953 27.2188ZM353.453 16.4688C352.62 16.4688 351.938 16.224 351.406 15.7344C350.875 15.2344 350.609 14.625 350.609 13.9062C350.609 13.1667 350.875 12.5625 351.406 12.0938C351.938 11.625 352.62 11.3906 353.453 11.3906C354.297 11.3906 354.979 11.625 355.5 12.0938C356.031 12.5625 356.297 13.1667 356.297 13.9062C356.297 14.6562 356.031 15.2708 355.5 15.75C354.979 16.2292 354.297 16.4688 353.453 16.4688ZM355.891 35H350.953V19H355.891V35ZM375.5 35H370.578V26.1094C370.578 23.6302 369.693 22.3906 367.922 22.3906C367.068 22.3906 366.365 22.7188 365.812 23.375C365.26 24.0312 364.984 24.8646 364.984 25.875V35H360.047V19H364.984V21.5312H365.047C366.224 19.5833 367.938 18.6094 370.188 18.6094C373.729 18.6094 375.5 20.8073 375.5 25.2031V35ZM395.109 33.1719C395.109 36.1406 394.25 38.4375 392.531 40.0625C390.812 41.6979 388.323 42.5156 385.062 42.5156C382.906 42.5156 381.198 42.2083 379.938 41.5938V37.4375C381.583 38.3958 383.245 38.875 384.922 38.875C386.589 38.875 387.88 38.4323 388.797 37.5469C389.714 36.6719 390.172 35.4792 390.172 33.9688V32.7031H390.109C388.984 34.4948 387.323 35.3906 385.125 35.3906C383.083 35.3906 381.464 34.6719 380.266 33.2344C379.068 31.7969 378.469 29.8698 378.469 27.4531C378.469 24.7448 379.135 22.5938 380.469 21C381.802 19.4062 383.557 18.6094 385.734 18.6094C387.682 18.6094 389.141 19.3594 390.109 20.8594H390.172V19H395.109V33.1719ZM390.234 27.3125V26.0469C390.234 25.0365 389.932 24.1771 389.328 23.4688C388.734 22.75 387.958 22.3906 387 22.3906C385.906 22.3906 385.047 22.8177 384.422 23.6719C383.797 24.526 383.484 25.7292 383.484 27.2812C383.484 28.6146 383.781 29.6719 384.375 30.4531C384.969 31.224 385.781 31.6094 386.812 31.6094C387.833 31.6094 388.656 31.2188 389.281 30.4375C389.917 29.6458 390.234 28.6042 390.234 27.3125ZM419 12.0938V35H414.078V17.6562C413.807 17.8958 413.484 18.125 413.109 18.3438C412.745 18.5521 412.354 18.7448 411.938 18.9219C411.521 19.0885 411.089 19.2344 410.641 19.3594C410.193 19.474 409.75 19.5573 409.312 19.6094V15.4531C410.594 15.0781 411.802 14.599 412.938 14.0156C414.073 13.4323 415.099 12.7917 416.016 12.0938H419Z" fill="black"/>
<path d="M286.465 85H282.668V78.1562H275.707V85H271.922V68.1953H275.707V74.8984H282.668V68.1953H286.465V85ZM300.738 80.0547H292.91C293.035 81.7969 294.133 82.668 296.203 82.668C297.523 82.668 298.684 82.3555 299.684 81.7305V84.4023C298.574 84.9961 297.133 85.293 295.359 85.293C293.422 85.293 291.918 84.7578 290.848 83.6875C289.777 82.6094 289.242 81.1094 289.242 79.1875C289.242 77.1953 289.82 75.6172 290.977 74.4531C292.133 73.2891 293.555 72.707 295.242 72.707C296.992 72.707 298.344 73.2266 299.297 74.2656C300.258 75.3047 300.738 76.7148 300.738 78.4961V80.0547ZM297.305 77.7812C297.305 76.0625 296.609 75.2031 295.219 75.2031C294.625 75.2031 294.109 75.4492 293.672 75.9414C293.242 76.4336 292.98 77.0469 292.887 77.7812H297.305ZM312.926 85H309.422V83.2773H309.375C308.57 84.6211 307.379 85.293 305.801 85.293C304.637 85.293 303.719 84.9648 303.047 84.3086C302.383 83.6445 302.051 82.7617 302.051 81.6602C302.051 79.332 303.43 77.9883 306.188 77.6289L309.445 77.1953C309.445 75.8828 308.734 75.2266 307.312 75.2266C305.883 75.2266 304.523 75.6523 303.234 76.5039V73.7148C303.75 73.4492 304.453 73.2148 305.344 73.0117C306.242 72.8086 307.059 72.707 307.793 72.707C311.215 72.707 312.926 74.4141 312.926 77.8281V85ZM309.445 80.125V79.3164L307.266 79.5977C306.062 79.7539 305.461 80.2969 305.461 81.2266C305.461 81.6484 305.605 81.9961 305.895 82.2695C306.191 82.5352 306.59 82.668 307.09 82.668C307.785 82.668 308.352 82.4297 308.789 81.9531C309.227 81.4688 309.445 80.8594 309.445 80.125ZM327.598 85H323.895V83.3477H323.848C323.004 84.6445 321.766 85.293 320.133 85.293C318.633 85.293 317.426 84.7656 316.512 83.7109C315.598 82.6484 315.141 81.168 315.141 79.2695C315.141 77.2852 315.645 75.6953 316.652 74.5C317.66 73.3047 318.98 72.707 320.613 72.707C322.16 72.707 323.238 73.2617 323.848 74.3711H323.895V67.2344H327.598V85ZM323.965 79.1641V78.2617C323.965 77.4805 323.738 76.832 323.285 76.3164C322.832 75.8008 322.242 75.543 321.516 75.543C320.695 75.543 320.055 75.8672 319.594 76.5156C319.133 77.1562 318.902 78.0391 318.902 79.1641C318.902 80.2188 319.125 81.0312 319.57 81.6016C320.016 82.1719 320.633 82.457 321.422 82.457C322.172 82.457 322.781 82.1562 323.25 81.5547C323.727 80.9531 323.965 80.1562 323.965 79.1641ZM332.59 71.1016C331.965 71.1016 331.453 70.918 331.055 70.5508C330.656 70.1758 330.457 69.7188 330.457 69.1797C330.457 68.625 330.656 68.1719 331.055 67.8203C331.453 67.4688 331.965 67.293 332.59 67.293C333.223 67.293 333.734 67.4688 334.125 67.8203C334.523 68.1719 334.723 68.625 334.723 69.1797C334.723 69.7422 334.523 70.2031 334.125 70.5625C333.734 70.9219 333.223 71.1016 332.59 71.1016ZM334.418 85H330.715V73H334.418V85ZM349.125 85H345.434V78.332C345.434 76.4727 344.77 75.543 343.441 75.543C342.801 75.543 342.273 75.7891 341.859 76.2812C341.445 76.7734 341.238 77.3984 341.238 78.1562V85H337.535V73H341.238V74.8984H341.285C342.168 73.4375 343.453 72.707 345.141 72.707C347.797 72.707 349.125 74.3555 349.125 77.6523V85ZM363.832 83.6289C363.832 85.8555 363.188 87.5781 361.898 88.7969C360.609 90.0234 358.742 90.6367 356.297 90.6367C354.68 90.6367 353.398 90.4062 352.453 89.9453V86.8281C353.688 87.5469 354.934 87.9062 356.191 87.9062C357.441 87.9062 358.41 87.5742 359.098 86.9102C359.785 86.2539 360.129 85.3594 360.129 84.2266V83.2773H360.082C359.238 84.6211 357.992 85.293 356.344 85.293C354.812 85.293 353.598 84.7539 352.699 83.6758C351.801 82.5977 351.352 81.1523 351.352 79.3398C351.352 77.3086 351.852 75.6953 352.852 74.5C353.852 73.3047 355.168 72.707 356.801 72.707C358.262 72.707 359.355 73.2695 360.082 74.3945H360.129V73H363.832V83.6289ZM360.176 79.2344V78.2852C360.176 77.5273 359.949 76.8828 359.496 76.3516C359.051 75.8125 358.469 75.543 357.75 75.543C356.93 75.543 356.285 75.8633 355.816 76.5039C355.348 77.1445 355.113 78.0469 355.113 79.2109C355.113 80.2109 355.336 81.0039 355.781 81.5898C356.227 82.168 356.836 82.457 357.609 82.457C358.375 82.457 358.992 82.1641 359.461 81.5781C359.938 80.9844 360.176 80.2031 360.176 79.2344ZM377.027 81.9297H384.152V85H372.973V83.7344C372.973 82.875 373.117 82.1055 373.406 81.4258C373.695 80.7383 374.059 80.125 374.496 79.5859C374.934 79.0391 375.41 78.5586 375.926 78.1445C376.449 77.7227 376.945 77.3438 377.414 77.0078C377.906 76.6562 378.336 76.3203 378.703 76C379.078 75.6797 379.391 75.3633 379.641 75.0508C379.898 74.7305 380.09 74.4102 380.215 74.0898C380.34 73.7617 380.402 73.4141 380.402 73.0469C380.402 72.3281 380.199 71.7852 379.793 71.418C379.387 71.0508 378.766 70.8672 377.93 70.8672C376.484 70.8672 375.102 71.4414 373.781 72.5898V69.332C375.242 68.3867 376.891 67.9141 378.727 67.9141C379.578 67.9141 380.34 68.0273 381.012 68.2539C381.691 68.4727 382.266 68.7891 382.734 69.2031C383.203 69.6172 383.559 70.1211 383.801 70.7148C384.051 71.3008 384.176 71.957 384.176 72.6836C384.176 73.457 384.055 74.1445 383.812 74.7461C383.578 75.3477 383.262 75.8945 382.863 76.3867C382.473 76.8789 382.02 77.332 381.504 77.7461C380.988 78.1523 380.453 78.5469 379.898 78.9297C379.523 79.1953 379.16 79.4609 378.809 79.7266C378.465 79.9844 378.16 80.2422 377.895 80.5C377.629 80.75 377.418 80.9961 377.262 81.2383C377.105 81.4805 377.027 81.7109 377.027 81.9297Z" fill="black"/>
<path d="M282.843 127H279.881V121.662H274.451V127H271.499V113.892H274.451V119.121H279.881V113.892H282.843V127ZM293.976 123.143H287.87C287.967 124.502 288.824 125.181 290.438 125.181C291.468 125.181 292.373 124.937 293.153 124.45V126.534C292.288 126.997 291.164 127.229 289.78 127.229C288.269 127.229 287.096 126.811 286.261 125.976C285.426 125.135 285.009 123.965 285.009 122.466C285.009 120.912 285.46 119.681 286.362 118.773C287.264 117.865 288.373 117.411 289.689 117.411C291.054 117.411 292.108 117.817 292.852 118.627C293.601 119.438 293.976 120.538 293.976 121.927V123.143ZM291.298 121.369C291.298 120.029 290.755 119.358 289.671 119.358C289.207 119.358 288.805 119.55 288.464 119.934C288.129 120.318 287.925 120.797 287.852 121.369H291.298ZM303.482 127H300.749V125.656H300.712C300.085 126.704 299.156 127.229 297.925 127.229C297.017 127.229 296.301 126.973 295.777 126.461C295.259 125.943 295 125.254 295 124.395C295 122.579 296.075 121.531 298.226 121.251L300.767 120.912C300.767 119.889 300.213 119.377 299.104 119.377C297.989 119.377 296.928 119.709 295.923 120.373V118.198C296.325 117.99 296.873 117.808 297.568 117.649C298.269 117.491 298.906 117.411 299.479 117.411C302.148 117.411 303.482 118.743 303.482 121.406V127ZM300.767 123.198V122.567L299.067 122.786C298.129 122.908 297.66 123.332 297.66 124.057C297.66 124.386 297.772 124.657 297.998 124.87C298.229 125.077 298.54 125.181 298.93 125.181C299.472 125.181 299.914 124.995 300.255 124.623C300.597 124.246 300.767 123.77 300.767 123.198ZM314.926 127H312.038V125.711H312.001C311.343 126.723 310.377 127.229 309.104 127.229C307.934 127.229 306.992 126.817 306.279 125.995C305.566 125.166 305.21 124.011 305.21 122.53C305.21 120.982 305.603 119.742 306.389 118.81C307.175 117.878 308.205 117.411 309.478 117.411C310.685 117.411 311.526 117.844 312.001 118.709H312.038V113.143H314.926V127ZM312.093 122.448V121.744C312.093 121.135 311.916 120.629 311.562 120.227C311.209 119.825 310.749 119.624 310.182 119.624C309.542 119.624 309.043 119.876 308.683 120.382C308.324 120.882 308.144 121.57 308.144 122.448C308.144 123.271 308.317 123.904 308.665 124.349C309.012 124.794 309.494 125.016 310.109 125.016C310.694 125.016 311.169 124.782 311.535 124.313C311.907 123.843 312.093 123.222 312.093 122.448ZM318.82 116.159C318.333 116.159 317.933 116.016 317.623 115.73C317.312 115.437 317.156 115.081 317.156 114.66C317.156 114.228 317.312 113.874 317.623 113.6C317.933 113.326 318.333 113.189 318.82 113.189C319.314 113.189 319.713 113.326 320.017 113.6C320.328 113.874 320.484 114.228 320.484 114.66C320.484 115.099 320.328 115.458 320.017 115.739C319.713 116.019 319.314 116.159 318.82 116.159ZM320.246 127H317.358V117.64H320.246V127ZM331.717 127H328.838V121.799C328.838 120.349 328.32 119.624 327.284 119.624C326.785 119.624 326.373 119.815 326.05 120.199C325.727 120.583 325.566 121.071 325.566 121.662V127H322.677V117.64H325.566V119.121H325.602C326.291 117.981 327.293 117.411 328.61 117.411C330.682 117.411 331.717 118.697 331.717 121.269V127ZM343.189 125.931C343.189 127.667 342.686 129.011 341.681 129.962C340.675 130.918 339.219 131.397 337.312 131.397C336.05 131.397 335.051 131.217 334.313 130.857V128.426C335.276 128.987 336.248 129.267 337.229 129.267C338.204 129.267 338.96 129.008 339.496 128.49C340.032 127.978 340.301 127.28 340.301 126.397V125.656H340.264C339.606 126.704 338.634 127.229 337.348 127.229C336.154 127.229 335.206 126.808 334.505 125.967C333.805 125.126 333.454 123.999 333.454 122.585C333.454 121.001 333.844 119.742 334.624 118.81C335.404 117.878 336.431 117.411 337.705 117.411C338.844 117.411 339.697 117.85 340.264 118.728H340.301V117.64H343.189V125.931ZM340.337 122.503V121.762C340.337 121.171 340.16 120.669 339.807 120.254C339.46 119.834 339.006 119.624 338.445 119.624C337.805 119.624 337.302 119.873 336.937 120.373C336.571 120.873 336.388 121.577 336.388 122.485C336.388 123.265 336.562 123.883 336.909 124.34C337.257 124.791 337.732 125.016 338.335 125.016C338.932 125.016 339.414 124.788 339.78 124.331C340.151 123.868 340.337 123.258 340.337 122.503ZM350.629 126.57V124.057C351.507 124.697 352.531 125.016 353.701 125.016C354.438 125.016 355.011 124.858 355.419 124.541C355.834 124.224 356.041 123.783 356.041 123.216C356.041 122.631 355.785 122.18 355.273 121.863C354.767 121.546 354.069 121.388 353.18 121.388H351.964V119.176H353.088C354.795 119.176 355.648 118.609 355.648 117.475C355.648 116.409 354.993 115.876 353.682 115.876C352.805 115.876 351.952 116.159 351.123 116.726V114.368C352.043 113.905 353.116 113.673 354.341 113.673C355.681 113.673 356.723 113.975 357.467 114.578C358.216 115.181 358.591 115.964 358.591 116.927C358.591 118.639 357.723 119.712 355.986 120.145V120.19C356.912 120.306 357.643 120.644 358.18 121.205C358.716 121.759 358.984 122.442 358.984 123.252C358.984 124.477 358.536 125.446 357.64 126.159C356.745 126.872 355.507 127.229 353.929 127.229C352.576 127.229 351.476 127.009 350.629 126.57Z" fill="black"/>
<path d="M280.977 165H278.445V160.438H273.805V165H271.281V153.797H273.805V158.266H278.445V153.797H280.977V165ZM290.492 161.703H285.273C285.357 162.865 286.089 163.445 287.469 163.445C288.349 163.445 289.122 163.237 289.789 162.82V164.602C289.049 164.997 288.089 165.195 286.906 165.195C285.615 165.195 284.612 164.839 283.898 164.125C283.185 163.406 282.828 162.406 282.828 161.125C282.828 159.797 283.214 158.745 283.984 157.969C284.755 157.193 285.703 156.805 286.828 156.805C287.995 156.805 288.896 157.151 289.531 157.844C290.172 158.536 290.492 159.477 290.492 160.664V161.703ZM288.203 160.188C288.203 159.042 287.74 158.469 286.812 158.469C286.417 158.469 286.073 158.633 285.781 158.961C285.495 159.289 285.32 159.698 285.258 160.188H288.203ZM298.617 165H296.281V163.852H296.25C295.714 164.747 294.919 165.195 293.867 165.195C293.091 165.195 292.479 164.977 292.031 164.539C291.589 164.096 291.367 163.508 291.367 162.773C291.367 161.221 292.286 160.326 294.125 160.086L296.297 159.797C296.297 158.922 295.823 158.484 294.875 158.484C293.922 158.484 293.016 158.768 292.156 159.336V157.477C292.5 157.299 292.969 157.143 293.562 157.008C294.161 156.872 294.706 156.805 295.195 156.805C297.477 156.805 298.617 157.943 298.617 160.219V165ZM296.297 161.75V161.211L294.844 161.398C294.042 161.503 293.641 161.865 293.641 162.484C293.641 162.766 293.737 162.997 293.93 163.18C294.128 163.357 294.393 163.445 294.727 163.445C295.19 163.445 295.568 163.286 295.859 162.969C296.151 162.646 296.297 162.24 296.297 161.75ZM308.398 165H305.93V163.898H305.898C305.336 164.763 304.51 165.195 303.422 165.195C302.422 165.195 301.617 164.844 301.008 164.141C300.398 163.432 300.094 162.445 300.094 161.18C300.094 159.857 300.43 158.797 301.102 158C301.773 157.203 302.654 156.805 303.742 156.805C304.773 156.805 305.492 157.174 305.898 157.914H305.93V153.156H308.398V165ZM305.977 161.109V160.508C305.977 159.987 305.826 159.555 305.523 159.211C305.221 158.867 304.828 158.695 304.344 158.695C303.797 158.695 303.37 158.911 303.062 159.344C302.755 159.771 302.602 160.359 302.602 161.109C302.602 161.812 302.75 162.354 303.047 162.734C303.344 163.115 303.755 163.305 304.281 163.305C304.781 163.305 305.188 163.104 305.5 162.703C305.818 162.302 305.977 161.771 305.977 161.109ZM311.727 155.734C311.31 155.734 310.969 155.612 310.703 155.367C310.438 155.117 310.305 154.812 310.305 154.453C310.305 154.083 310.438 153.781 310.703 153.547C310.969 153.312 311.31 153.195 311.727 153.195C312.148 153.195 312.49 153.312 312.75 153.547C313.016 153.781 313.148 154.083 313.148 154.453C313.148 154.828 313.016 155.135 312.75 155.375C312.49 155.615 312.148 155.734 311.727 155.734ZM312.945 165H310.477V157H312.945V165ZM322.75 165H320.289V160.555C320.289 159.315 319.846 158.695 318.961 158.695C318.534 158.695 318.182 158.859 317.906 159.188C317.63 159.516 317.492 159.932 317.492 160.438V165H315.023V157H317.492V158.266H317.523C318.112 157.292 318.969 156.805 320.094 156.805C321.865 156.805 322.75 157.904 322.75 160.102V165ZM332.555 164.086C332.555 165.57 332.125 166.719 331.266 167.531C330.406 168.349 329.161 168.758 327.531 168.758C326.453 168.758 325.599 168.604 324.969 168.297V166.219C325.792 166.698 326.622 166.938 327.461 166.938C328.294 166.938 328.94 166.716 329.398 166.273C329.857 165.836 330.086 165.24 330.086 164.484V163.852H330.055C329.492 164.747 328.661 165.195 327.562 165.195C326.542 165.195 325.732 164.836 325.133 164.117C324.534 163.398 324.234 162.435 324.234 161.227C324.234 159.872 324.568 158.797 325.234 158C325.901 157.203 326.779 156.805 327.867 156.805C328.841 156.805 329.57 157.18 330.055 157.93H330.086V157H332.555V164.086ZM330.117 161.156V160.523C330.117 160.018 329.966 159.589 329.664 159.234C329.367 158.875 328.979 158.695 328.5 158.695C327.953 158.695 327.523 158.909 327.211 159.336C326.898 159.763 326.742 160.365 326.742 161.141C326.742 161.807 326.891 162.336 327.188 162.727C327.484 163.112 327.891 163.305 328.406 163.305C328.917 163.305 329.328 163.109 329.641 162.719C329.958 162.323 330.117 161.802 330.117 161.156ZM345.438 153.797V160.859H346.781V162.703H345.438V165H343.188V162.703H338.305V160.773C338.737 160.289 339.185 159.76 339.648 159.188C340.112 158.609 340.56 158.016 340.992 157.406C341.424 156.797 341.826 156.185 342.195 155.57C342.57 154.951 342.888 154.359 343.148 153.797H345.438ZM340.516 160.859H343.188V156.945C343.005 157.284 342.807 157.628 342.594 157.977C342.38 158.32 342.156 158.661 341.922 159C341.688 159.333 341.451 159.659 341.211 159.977C340.971 160.289 340.74 160.583 340.516 160.859Z" fill="black"/>
<path d="M279.111 199H277.01V195.213H273.158V199H271.063V189.701H273.158V193.41H277.01V189.701H279.111V199ZM287.009 196.264H282.677C282.746 197.228 283.353 197.71 284.499 197.71C285.23 197.71 285.872 197.537 286.425 197.191V198.669C285.811 198.998 285.013 199.162 284.032 199.162C282.96 199.162 282.128 198.866 281.536 198.274C280.943 197.677 280.647 196.847 280.647 195.784C280.647 194.681 280.967 193.808 281.607 193.164C282.247 192.52 283.034 192.198 283.967 192.198C284.936 192.198 285.684 192.485 286.211 193.06C286.743 193.635 287.009 194.416 287.009 195.401V196.264ZM285.109 195.006C285.109 194.055 284.724 193.579 283.954 193.579C283.626 193.579 283.341 193.715 283.098 193.988C282.861 194.26 282.716 194.599 282.664 195.006H285.109ZM293.752 199H291.813V198.047H291.787C291.342 198.79 290.683 199.162 289.81 199.162C289.166 199.162 288.658 198.981 288.286 198.617C287.918 198.25 287.735 197.761 287.735 197.152C287.735 195.864 288.498 195.12 290.024 194.921L291.826 194.681C291.826 193.955 291.433 193.592 290.646 193.592C289.855 193.592 289.103 193.828 288.39 194.299V192.756C288.675 192.609 289.064 192.479 289.557 192.366C290.054 192.254 290.506 192.198 290.912 192.198C292.806 192.198 293.752 193.142 293.752 195.032V199ZM291.826 196.303V195.855L290.62 196.011C289.955 196.097 289.622 196.398 289.622 196.912C289.622 197.145 289.702 197.338 289.862 197.489C290.026 197.636 290.246 197.71 290.523 197.71C290.908 197.71 291.221 197.578 291.463 197.314C291.705 197.046 291.826 196.709 291.826 196.303ZM301.871 199H299.822V198.086H299.796C299.329 198.803 298.644 199.162 297.74 199.162C296.91 199.162 296.242 198.87 295.736 198.287C295.231 197.699 294.978 196.88 294.978 195.829C294.978 194.731 295.257 193.851 295.814 193.19C296.372 192.529 297.103 192.198 298.006 192.198C298.862 192.198 299.459 192.505 299.796 193.119H299.822V189.17H301.871V199ZM299.861 195.771V195.271C299.861 194.839 299.735 194.48 299.484 194.195C299.234 193.91 298.907 193.767 298.505 193.767C298.051 193.767 297.697 193.947 297.442 194.305C297.187 194.66 297.059 195.148 297.059 195.771C297.059 196.354 297.182 196.804 297.429 197.12C297.675 197.435 298.017 197.593 298.453 197.593C298.868 197.593 299.206 197.426 299.465 197.094C299.729 196.761 299.861 196.32 299.861 195.771ZM304.633 191.31C304.287 191.31 304.004 191.208 303.784 191.005C303.563 190.797 303.453 190.544 303.453 190.246C303.453 189.939 303.563 189.688 303.784 189.494C304.004 189.299 304.287 189.202 304.633 189.202C304.983 189.202 305.266 189.299 305.482 189.494C305.703 189.688 305.813 189.939 305.813 190.246C305.813 190.557 305.703 190.812 305.482 191.011C305.266 191.21 304.983 191.31 304.633 191.31ZM305.645 199H303.596V192.36H305.645V199ZM313.782 199H311.74V195.31C311.74 194.282 311.372 193.767 310.638 193.767C310.283 193.767 309.991 193.903 309.762 194.176C309.533 194.448 309.419 194.794 309.419 195.213V199H307.369V192.36H309.419V193.41H309.444C309.933 192.602 310.644 192.198 311.578 192.198C313.048 192.198 313.782 193.11 313.782 194.934V199ZM321.92 198.241C321.92 199.473 321.564 200.427 320.85 201.101C320.137 201.78 319.104 202.119 317.751 202.119C316.856 202.119 316.147 201.991 315.624 201.736V200.012C316.307 200.409 316.997 200.608 317.693 200.608C318.384 200.608 318.92 200.424 319.301 200.057C319.681 199.694 319.871 199.199 319.871 198.572V198.047H319.845C319.379 198.79 318.689 199.162 317.777 199.162C316.93 199.162 316.257 198.864 315.76 198.267C315.263 197.671 315.015 196.871 315.015 195.868C315.015 194.744 315.291 193.851 315.845 193.19C316.398 192.529 317.126 192.198 318.03 192.198C318.838 192.198 319.443 192.509 319.845 193.132H319.871V192.36H321.92V198.241ZM319.897 195.81V195.284C319.897 194.865 319.772 194.508 319.521 194.215C319.275 193.916 318.953 193.767 318.555 193.767C318.101 193.767 317.744 193.944 317.485 194.299C317.226 194.653 317.096 195.153 317.096 195.797C317.096 196.35 317.219 196.789 317.466 197.113C317.712 197.433 318.049 197.593 318.477 197.593C318.901 197.593 319.242 197.431 319.502 197.107C319.765 196.778 319.897 196.346 319.897 195.81ZM327.361 198.76V197.009C327.996 197.398 328.673 197.593 329.39 197.593C329.931 197.593 330.352 197.465 330.655 197.21C330.962 196.951 331.115 196.601 331.115 196.16C331.115 195.239 330.465 194.779 329.163 194.779C328.684 194.779 328.13 194.815 327.503 194.889L327.854 189.701H332.775V191.374H329.416L329.287 193.235C329.62 193.209 329.907 193.196 330.149 193.196C331.104 193.196 331.852 193.447 332.393 193.949C332.933 194.45 333.203 195.125 333.203 195.972C333.203 196.91 332.881 197.677 332.237 198.274C331.593 198.866 330.72 199.162 329.617 199.162C328.722 199.162 327.97 199.028 327.361 198.76Z" fill="black"/>
<path d="M277.354 230H275.658V226.943H272.549V230H270.858V222.494H272.549V225.488H275.658V222.494H277.354V230ZM283.73 227.791H280.233C280.289 228.569 280.779 228.958 281.704 228.958C282.294 228.958 282.812 228.819 283.259 228.54V229.733C282.763 229.998 282.119 230.131 281.327 230.131C280.462 230.131 279.79 229.892 279.312 229.414C278.834 228.932 278.595 228.262 278.595 227.404C278.595 226.514 278.853 225.809 279.37 225.289C279.886 224.769 280.521 224.509 281.275 224.509C282.057 224.509 282.66 224.741 283.086 225.205C283.515 225.669 283.73 226.299 283.73 227.095V227.791ZM282.196 226.776C282.196 226.008 281.886 225.624 281.264 225.624C280.999 225.624 280.769 225.734 280.573 225.954C280.382 226.174 280.265 226.448 280.223 226.776H282.196ZM289.174 230H287.608V229.231H287.588C287.228 229.831 286.696 230.131 285.991 230.131C285.471 230.131 285.061 229.984 284.761 229.691C284.464 229.395 284.316 229 284.316 228.508C284.316 227.468 284.932 226.868 286.164 226.708L287.619 226.514C287.619 225.928 287.301 225.635 286.666 225.635C286.028 225.635 285.42 225.825 284.845 226.205V224.959C285.075 224.841 285.389 224.736 285.787 224.645C286.188 224.555 286.553 224.509 286.881 224.509C288.409 224.509 289.174 225.272 289.174 226.797V230ZM287.619 227.822V227.461L286.645 227.587C286.108 227.657 285.839 227.899 285.839 228.315C285.839 228.503 285.904 228.658 286.033 228.78C286.165 228.899 286.343 228.958 286.567 228.958C286.877 228.958 287.13 228.852 287.326 228.639C287.521 228.423 287.619 228.151 287.619 227.822ZM295.727 230H294.073V229.262H294.052C293.675 229.841 293.122 230.131 292.393 230.131C291.723 230.131 291.184 229.895 290.775 229.424C290.367 228.95 290.163 228.288 290.163 227.44C290.163 226.554 290.388 225.844 290.838 225.31C291.288 224.776 291.878 224.509 292.607 224.509C293.298 224.509 293.78 224.757 294.052 225.252H294.073V222.065H295.727V230ZM294.104 227.393V226.99C294.104 226.641 294.003 226.352 293.801 226.121C293.598 225.891 293.335 225.776 293.01 225.776C292.644 225.776 292.358 225.921 292.152 226.21C291.946 226.496 291.843 226.891 291.843 227.393C291.843 227.864 291.943 228.227 292.141 228.482C292.34 228.737 292.616 228.864 292.968 228.864C293.303 228.864 293.576 228.73 293.785 228.461C293.998 228.192 294.104 227.836 294.104 227.393ZM297.957 223.792C297.678 223.792 297.449 223.71 297.271 223.546C297.093 223.379 297.004 223.174 297.004 222.934C297.004 222.686 297.093 222.483 297.271 222.326C297.449 222.169 297.678 222.091 297.957 222.091C298.239 222.091 298.468 222.169 298.643 222.326C298.82 222.483 298.909 222.686 298.909 222.934C298.909 223.185 298.82 223.391 298.643 223.551C298.468 223.712 298.239 223.792 297.957 223.792ZM298.773 230H297.119V224.64H298.773V230ZM305.343 230H303.694V227.022C303.694 226.191 303.397 225.776 302.804 225.776C302.518 225.776 302.282 225.886 302.097 226.106C301.912 226.325 301.82 226.605 301.82 226.943V230H300.166V224.64H301.82V225.488H301.841C302.235 224.835 302.809 224.509 303.563 224.509C304.749 224.509 305.343 225.245 305.343 226.718V230ZM311.912 229.388C311.912 230.382 311.624 231.152 311.048 231.696C310.472 232.244 309.638 232.518 308.546 232.518C307.824 232.518 307.251 232.415 306.829 232.209V230.817C307.38 231.138 307.937 231.298 308.499 231.298C309.057 231.298 309.49 231.15 309.797 230.853C310.104 230.56 310.258 230.161 310.258 229.655V229.231H310.237C309.86 229.831 309.303 230.131 308.567 230.131C307.883 230.131 307.34 229.89 306.939 229.409C306.538 228.927 306.337 228.281 306.337 227.472C306.337 226.565 306.56 225.844 307.007 225.31C307.454 224.776 308.042 224.509 308.771 224.509C309.424 224.509 309.912 224.76 310.237 225.263H310.258V224.64H311.912V229.388ZM310.279 227.425V227.001C310.279 226.662 310.177 226.374 309.975 226.137C309.776 225.896 309.516 225.776 309.195 225.776C308.829 225.776 308.541 225.919 308.331 226.205C308.122 226.491 308.017 226.894 308.017 227.414C308.017 227.861 308.117 228.215 308.316 228.477C308.515 228.735 308.787 228.864 309.132 228.864C309.474 228.864 309.75 228.733 309.959 228.472C310.172 228.206 310.279 227.857 310.279 227.425ZM321.37 227.503C321.37 227.873 321.306 228.219 321.176 228.54C321.047 228.861 320.868 229.14 320.637 229.377C320.407 229.611 320.133 229.796 319.816 229.932C319.498 230.065 319.151 230.131 318.774 230.131C318.352 230.131 317.973 230.052 317.638 229.895C317.307 229.738 317.026 229.511 316.795 229.215C316.565 228.915 316.389 228.548 316.267 228.116C316.145 227.683 316.083 227.193 316.083 226.645C316.083 225.999 316.162 225.415 316.319 224.891C316.48 224.364 316.706 223.914 316.999 223.541C317.296 223.167 317.654 222.88 318.073 222.677C318.491 222.471 318.962 222.368 319.486 222.368C320.065 222.368 320.515 222.436 320.836 222.572V223.954C320.456 223.738 320.041 223.63 319.59 223.63C319.311 223.63 319.058 223.684 318.831 223.792C318.605 223.9 318.409 224.054 318.245 224.253C318.085 224.452 317.957 224.692 317.863 224.975C317.772 225.254 317.724 225.566 317.717 225.912H317.748C318.104 225.42 318.629 225.174 319.324 225.174C319.634 225.174 319.915 225.23 320.166 225.341C320.418 225.453 320.632 225.612 320.81 225.818C320.988 226.02 321.126 226.264 321.224 226.551C321.321 226.837 321.37 227.154 321.37 227.503ZM319.753 227.608C319.753 226.802 319.423 226.399 318.763 226.399C318.613 226.399 318.477 226.427 318.355 226.482C318.233 226.538 318.128 226.617 318.041 226.718C317.954 226.819 317.886 226.94 317.837 227.079C317.792 227.215 317.769 227.367 317.769 227.535C317.769 227.72 317.793 227.892 317.842 228.053C317.891 228.213 317.959 228.355 318.046 228.477C318.137 228.595 318.243 228.69 318.366 228.759C318.488 228.829 318.624 228.864 318.774 228.864C318.924 228.864 319.058 228.834 319.177 228.775C319.299 228.712 319.402 228.627 319.486 228.519C319.573 228.407 319.639 228.274 319.685 228.121C319.73 227.964 319.753 227.793 319.753 227.608Z" fill="black"/>
</svg>
