<svg width="720" height="69" viewBox="0 0 720 69" fill="none" xmlns="http://www.w3.org/2000/svg">
<path d="M0 0H720V69H0V0Z" fill="#D9BCF2"/>
<rect x="80.5" y="0.5" width="79" height="68" fill="white"/>
<path d="M106.859 41H105.547V29.7969H106.859V41ZM113.352 40.9219C113.049 41.0885 112.651 41.1719 112.156 41.1719C110.755 41.1719 110.055 40.3906 110.055 38.8281V34.0938H108.68V33H110.055V31.0469L111.336 30.6328V33H113.352V34.0938H111.336V38.6016C111.336 39.138 111.427 39.5208 111.609 39.75C111.792 39.9792 112.094 40.0938 112.516 40.0938C112.839 40.0938 113.117 40.0052 113.352 39.8281V40.9219ZM121.492 37.3203H115.844C115.865 38.2109 116.104 38.8984 116.562 39.3828C117.021 39.8672 117.651 40.1094 118.453 40.1094C119.354 40.1094 120.182 39.8125 120.938 39.2188V40.4219C120.234 40.9323 119.305 41.1875 118.148 41.1875C117.018 41.1875 116.13 40.8255 115.484 40.1016C114.839 39.3724 114.516 38.349 114.516 37.0312C114.516 35.7865 114.867 34.7734 115.57 33.9922C116.279 33.2057 117.156 32.8125 118.203 32.8125C119.25 32.8125 120.06 33.151 120.633 33.8281C121.206 34.5052 121.492 35.4453 121.492 36.6484V37.3203ZM120.18 36.2344C120.174 35.4948 119.995 34.9193 119.641 34.5078C119.292 34.0964 118.805 33.8906 118.18 33.8906C117.576 33.8906 117.062 34.1068 116.641 34.5391C116.219 34.9714 115.958 35.5365 115.859 36.2344H120.18ZM134.797 41H133.516V36.4062C133.516 35.5208 133.378 34.8802 133.102 34.4844C132.831 34.0885 132.372 33.8906 131.727 33.8906C131.18 33.8906 130.714 34.1406 130.328 34.6406C129.948 35.1406 129.758 35.7396 129.758 36.4375V41H128.477V36.25C128.477 34.6771 127.87 33.8906 126.656 33.8906C126.094 33.8906 125.63 34.1276 125.266 34.6016C124.901 35.0703 124.719 35.6823 124.719 36.4375V41H123.438V33H124.719V34.2656H124.75C125.318 33.2969 126.146 32.8125 127.234 32.8125C127.781 32.8125 128.258 32.9661 128.664 33.2734C129.07 33.5755 129.349 33.974 129.5 34.4688C130.094 33.3646 130.979 32.8125 132.156 32.8125C133.917 32.8125 134.797 33.8984 134.797 36.0703V41Z" fill="black"/>
<rect x="80.5" y="0.5" width="79" height="68" stroke="black" stroke-dasharray="5 5"/>
<rect x="320.5" y="0.5" width="79" height="68" fill="white"/>
<path d="M346.859 41H345.547V29.7969H346.859V41ZM353.352 40.9219C353.049 41.0885 352.651 41.1719 352.156 41.1719C350.755 41.1719 350.055 40.3906 350.055 38.8281V34.0938H348.68V33H350.055V31.0469L351.336 30.6328V33H353.352V34.0938H351.336V38.6016C351.336 39.138 351.427 39.5208 351.609 39.75C351.792 39.9792 352.094 40.0938 352.516 40.0938C352.839 40.0938 353.117 40.0052 353.352 39.8281V40.9219ZM361.492 37.3203H355.844C355.865 38.2109 356.104 38.8984 356.562 39.3828C357.021 39.8672 357.651 40.1094 358.453 40.1094C359.354 40.1094 360.182 39.8125 360.938 39.2188V40.4219C360.234 40.9323 359.305 41.1875 358.148 41.1875C357.018 41.1875 356.13 40.8255 355.484 40.1016C354.839 39.3724 354.516 38.349 354.516 37.0312C354.516 35.7865 354.867 34.7734 355.57 33.9922C356.279 33.2057 357.156 32.8125 358.203 32.8125C359.25 32.8125 360.06 33.151 360.633 33.8281C361.206 34.5052 361.492 35.4453 361.492 36.6484V37.3203ZM360.18 36.2344C360.174 35.4948 359.995 34.9193 359.641 34.5078C359.292 34.0964 358.805 33.8906 358.18 33.8906C357.576 33.8906 357.062 34.1068 356.641 34.5391C356.219 34.9714 355.958 35.5365 355.859 36.2344H360.18ZM374.797 41H373.516V36.4062C373.516 35.5208 373.378 34.8802 373.102 34.4844C372.831 34.0885 372.372 33.8906 371.727 33.8906C371.18 33.8906 370.714 34.1406 370.328 34.6406C369.948 35.1406 369.758 35.7396 369.758 36.4375V41H368.477V36.25C368.477 34.6771 367.87 33.8906 366.656 33.8906C366.094 33.8906 365.63 34.1276 365.266 34.6016C364.901 35.0703 364.719 35.6823 364.719 36.4375V41H363.438V33H364.719V34.2656H364.75C365.318 33.2969 366.146 32.8125 367.234 32.8125C367.781 32.8125 368.258 32.9661 368.664 33.2734C369.07 33.5755 369.349 33.974 369.5 34.4688C370.094 33.3646 370.979 32.8125 372.156 32.8125C373.917 32.8125 374.797 33.8984 374.797 36.0703V41Z" fill="black"/>
<rect x="320.5" y="0.5" width="79" height="68" stroke="black" stroke-dasharray="5 5"/>
<rect x="560.5" y="0.5" width="79" height="68" fill="white"/>
<path d="M586.859 41H585.547V29.7969H586.859V41ZM593.352 40.9219C593.049 41.0885 592.651 41.1719 592.156 41.1719C590.755 41.1719 590.055 40.3906 590.055 38.8281V34.0938H588.68V33H590.055V31.0469L591.336 30.6328V33H593.352V34.0938H591.336V38.6016C591.336 39.138 591.427 39.5208 591.609 39.75C591.792 39.9792 592.094 40.0938 592.516 40.0938C592.839 40.0938 593.117 40.0052 593.352 39.8281V40.9219ZM601.492 37.3203H595.844C595.865 38.2109 596.104 38.8984 596.562 39.3828C597.021 39.8672 597.651 40.1094 598.453 40.1094C599.354 40.1094 600.182 39.8125 600.938 39.2188V40.4219C600.234 40.9323 599.305 41.1875 598.148 41.1875C597.018 41.1875 596.13 40.8255 595.484 40.1016C594.839 39.3724 594.516 38.349 594.516 37.0312C594.516 35.7865 594.867 34.7734 595.57 33.9922C596.279 33.2057 597.156 32.8125 598.203 32.8125C599.25 32.8125 600.06 33.151 600.633 33.8281C601.206 34.5052 601.492 35.4453 601.492 36.6484V37.3203ZM600.18 36.2344C600.174 35.4948 599.995 34.9193 599.641 34.5078C599.292 34.0964 598.805 33.8906 598.18 33.8906C597.576 33.8906 597.062 34.1068 596.641 34.5391C596.219 34.9714 595.958 35.5365 595.859 36.2344H600.18ZM614.797 41H613.516V36.4062C613.516 35.5208 613.378 34.8802 613.102 34.4844C612.831 34.0885 612.372 33.8906 611.727 33.8906C611.18 33.8906 610.714 34.1406 610.328 34.6406C609.948 35.1406 609.758 35.7396 609.758 36.4375V41H608.477V36.25C608.477 34.6771 607.87 33.8906 606.656 33.8906C606.094 33.8906 605.63 34.1276 605.266 34.6016C604.901 35.0703 604.719 35.6823 604.719 36.4375V41H603.438V33H604.719V34.2656H604.75C605.318 33.2969 606.146 32.8125 607.234 32.8125C607.781 32.8125 608.258 32.9661 608.664 33.2734C609.07 33.5755 609.349 33.974 609.5 34.4688C610.094 33.3646 610.979 32.8125 612.156 32.8125C613.917 32.8125 614.797 33.8984 614.797 36.0703V41Z" fill="black"/>
<rect x="560.5" y="0.5" width="79" height="68" stroke="black" stroke-dasharray="5 5"/>
<path d="M0 0V-0.5H-0.5V0H0ZM720 0H720.5V-0.5H720V0ZM720 69V69.5H720.5V69H720ZM0 69H-0.5V69.5H0V69ZM-0.5 0V2.46429H0.5V0H-0.5ZM-0.5 7.39286V12.3214H0.5V7.39286H-0.5ZM-0.5 17.25V22.1786H0.5V17.25H-0.5ZM-0.5 27.1071V32.0357H0.5V27.1071H-0.5ZM-0.5 36.9643V41.8929H0.5V36.9643H-0.5ZM-0.5 46.8214V51.75H0.5V46.8214H-0.5ZM-0.5 56.6786V61.6071H0.5V56.6786H-0.5ZM-0.5 66.5357V69H0.5V66.5357H-0.5ZM0 69.5H2.5V68.5H0V69.5ZM7.5 69.5H12.5V68.5H7.5V69.5ZM17.5 69.5H22.5V68.5H17.5V69.5ZM27.5 69.5H32.5V68.5H27.5V69.5ZM37.5 69.5H42.5V68.5H37.5V69.5ZM47.5 69.5H52.5V68.5H47.5V69.5ZM57.5 69.5H62.5V68.5H57.5V69.5ZM67.5 69.5H72.5V68.5H67.5V69.5ZM77.5 69.5H82.5V68.5H77.5V69.5ZM87.5 69.5H92.5V68.5H87.5V69.5ZM97.5 69.5H102.5V68.5H97.5V69.5ZM107.5 69.5H112.5V68.5H107.5V69.5ZM117.5 69.5H122.5V68.5H117.5V69.5ZM127.5 69.5H132.5V68.5H127.5V69.5ZM137.5 69.5H142.5V68.5H137.5V69.5ZM147.5 69.5H152.5V68.5H147.5V69.5ZM157.5 69.5H162.5V68.5H157.5V69.5ZM167.5 69.5H172.5V68.5H167.5V69.5ZM177.5 69.5H182.5V68.5H177.5V69.5ZM187.5 69.5H192.5V68.5H187.5V69.5ZM197.5 69.5H202.5V68.5H197.5V69.5ZM207.5 69.5H212.5V68.5H207.5V69.5ZM217.5 69.5H222.5V68.5H217.5V69.5ZM227.5 69.5H232.5V68.5H227.5V69.5ZM237.5 69.5H242.5V68.5H237.5V69.5ZM247.5 69.5H252.5V68.5H247.5V69.5ZM257.5 69.5H262.5V68.5H257.5V69.5ZM267.5 69.5H272.5V68.5H267.5V69.5ZM277.5 69.5H282.5V68.5H277.5V69.5ZM287.5 69.5H292.5V68.5H287.5V69.5ZM297.5 69.5H302.5V68.5H297.5V69.5ZM307.5 69.5H312.5V68.5H307.5V69.5ZM317.5 69.5H322.5V68.5H317.5V69.5ZM327.5 69.5H332.5V68.5H327.5V69.5ZM337.5 69.5H342.5V68.5H337.5V69.5ZM347.5 69.5H352.5V68.5H347.5V69.5ZM357.5 69.5H362.5V68.5H357.5V69.5ZM367.5 69.5H372.5V68.5H367.5V69.5ZM377.5 69.5H382.5V68.5H377.5V69.5ZM387.5 69.5H392.5V68.5H387.5V69.5ZM397.5 69.5H402.5V68.5H397.5V69.5ZM407.5 69.5H412.5V68.5H407.5V69.5ZM417.5 69.5H422.5V68.5H417.5V69.5ZM427.5 69.5H432.5V68.5H427.5V69.5ZM437.5 69.5H442.5V68.5H437.5V69.5ZM447.5 69.5H452.5V68.5H447.5V69.5ZM457.5 69.5H462.5V68.5H457.5V69.5ZM467.5 69.5H472.5V68.5H467.5V69.5ZM477.5 69.5H482.5V68.5H477.5V69.5ZM487.5 69.5H492.5V68.5H487.5V69.5ZM497.5 69.5H502.5V68.5H497.5V69.5ZM507.5 69.5H512.5V68.5H507.5V69.5ZM517.5 69.5H522.5V68.5H517.5V69.5ZM527.5 69.5H532.5V68.5H527.5V69.5ZM537.5 69.5H542.5V68.5H537.5V69.5ZM547.5 69.5H552.5V68.5H547.5V69.5ZM557.5 69.5H562.5V68.5H557.5V69.5ZM567.5 69.5H572.5V68.5H567.5V69.5ZM577.5 69.5H582.5V68.5H577.5V69.5ZM587.5 69.5H592.5V68.5H587.5V69.5ZM597.5 69.5H602.5V68.5H597.5V69.5ZM607.5 69.5H612.5V68.5H607.5V69.5ZM617.5 69.5H622.5V68.5H617.5V69.5ZM627.5 69.5H632.5V68.5H627.5V69.5ZM637.5 69.5H642.5V68.5H637.5V69.5ZM647.5 69.5H652.5V68.5H647.5V69.5ZM657.5 69.5H662.5V68.5H657.5V69.5ZM667.5 69.5H672.5V68.5H667.5V69.5ZM677.5 69.5H682.5V68.5H677.5V69.5ZM687.5 69.5H692.5V68.5H687.5V69.5ZM697.5 69.5H702.5V68.5H697.5V69.5ZM707.5 69.5H712.5V68.5H707.5V69.5ZM717.5 69.5H720V68.5H717.5V69.5ZM720.5 69V66.5357H719.5V69H720.5ZM720.5 61.6071V56.6786H719.5V61.6071H720.5ZM720.5 51.75V46.8214H719.5V51.75H720.5ZM720.5 41.8929V36.9643H719.5V41.8929H720.5ZM720.5 32.0357V27.1071H719.5V32.0357H720.5ZM720.5 22.1786V17.25H719.5V22.1786H720.5ZM720.5 12.3214V7.39287H719.5V12.3214H720.5ZM720.5 2.46429V0H719.5V2.46429H720.5ZM720 -0.5H717.5V0.5H720V-0.5ZM712.5 -0.5H707.5V0.5H712.5V-0.5ZM702.5 -0.5H697.5V0.5H702.5V-0.5ZM692.5 -0.5H687.5V0.5H692.5V-0.5ZM682.5 -0.5H677.5V0.5H682.5V-0.5ZM672.5 -0.5H667.5V0.5H672.5V-0.5ZM662.5 -0.5H657.5V0.5H662.5V-0.5ZM652.5 -0.5H647.5V0.5H652.5V-0.5ZM642.5 -0.5H637.5V0.5H642.5V-0.5ZM632.5 -0.5H627.5V0.5H632.5V-0.5ZM622.5 -0.5H617.5V0.5H622.5V-0.5ZM612.5 -0.5H607.5V0.5H612.5V-0.5ZM602.5 -0.5H597.5V0.5H602.5V-0.5ZM592.5 -0.5H587.5V0.5H592.5V-0.5ZM582.5 -0.5H577.5V0.5H582.5V-0.5ZM572.5 -0.5H567.5V0.5H572.5V-0.5ZM562.5 -0.5H557.5V0.5H562.5V-0.5ZM552.5 -0.5H547.5V0.5H552.5V-0.5ZM542.5 -0.5H537.5V0.5H542.5V-0.5ZM532.5 -0.5H527.5V0.5H532.5V-0.5ZM522.5 -0.5H517.5V0.5H522.5V-0.5ZM512.5 -0.5H507.5V0.5H512.5V-0.5ZM502.5 -0.5H497.5V0.5H502.5V-0.5ZM492.5 -0.5H487.5V0.5H492.5V-0.5ZM482.5 -0.5H477.5V0.5H482.5V-0.5ZM472.5 -0.5H467.5V0.5H472.5V-0.5ZM462.5 -0.5H457.5V0.5H462.5V-0.5ZM452.5 -0.5H447.5V0.5H452.5V-0.5ZM442.5 -0.5H437.5V0.5H442.5V-0.5ZM432.5 -0.5H427.5V0.5H432.5V-0.5ZM422.5 -0.5H417.5V0.5H422.5V-0.5ZM412.5 -0.5H407.5V0.5H412.5V-0.5ZM402.5 -0.5H397.5V0.5H402.5V-0.5ZM392.5 -0.5H387.5V0.5H392.5V-0.5ZM382.5 -0.5H377.5V0.5H382.5V-0.5ZM372.5 -0.5H367.5V0.5H372.5V-0.5ZM362.5 -0.5H357.5V0.5H362.5V-0.5ZM352.5 -0.5H347.5V0.5H352.5V-0.5ZM342.5 -0.5H337.5V0.5H342.5V-0.5ZM332.5 -0.5H327.5V0.5H332.5V-0.5ZM322.5 -0.5H317.5V0.5H322.5V-0.5ZM312.5 -0.5H307.5V0.5H312.5V-0.5ZM302.5 -0.5H297.5V0.5H302.5V-0.5ZM292.5 -0.5H287.5V0.5H292.5V-0.5ZM282.5 -0.5H277.5V0.5H282.5V-0.5ZM272.5 -0.5H267.5V0.5H272.5V-0.5ZM262.5 -0.5H257.5V0.5H262.5V-0.5ZM252.5 -0.5H247.5V0.5H252.5V-0.5ZM242.5 -0.5H237.5V0.5H242.5V-0.5ZM232.5 -0.5H227.5V0.5H232.5V-0.5ZM222.5 -0.5H217.5V0.5H222.5V-0.5ZM212.5 -0.5H207.5V0.5H212.5V-0.5ZM202.5 -0.5H197.5V0.5H202.5V-0.5ZM192.5 -0.5H187.5V0.5H192.5V-0.5ZM182.5 -0.5H177.5V0.5H182.5V-0.5ZM172.5 -0.5H167.5V0.5H172.5V-0.5ZM162.5 -0.5H157.5V0.5H162.5V-0.5ZM152.5 -0.5H147.5V0.5H152.5V-0.5ZM142.5 -0.5H137.5V0.5H142.5V-0.5ZM132.5 -0.5H127.5V0.5H132.5V-0.5ZM122.5 -0.5H117.5V0.5H122.5V-0.5ZM112.5 -0.5H107.5V0.5H112.5V-0.5ZM102.5 -0.5H97.5V0.5H102.5V-0.5ZM92.5 -0.5H87.5V0.5H92.5V-0.5ZM82.5 -0.5H77.5V0.5H82.5V-0.5ZM72.5 -0.5H67.5V0.5H72.5V-0.5ZM62.5 -0.5H57.5V0.5H62.5V-0.5ZM52.5 -0.5H47.5V0.5H52.5V-0.5ZM42.5 -0.5H37.5V0.5H42.5V-0.5ZM32.5 -0.5H27.5V0.5H32.5V-0.5ZM22.5 -0.5H17.5V0.5H22.5V-0.5ZM12.5 -0.5H7.50001V0.5H12.5V-0.5ZM2.49999 -0.5H0V0.5H2.49999V-0.5ZM0 0V-1H-1V0H0ZM720 0H721V-1H720V0ZM720 69V70H721V69H720ZM0 69H-1V70H0V69ZM-1 0V2.46429H1V0H-1ZM-1 7.39286V12.3214H1V7.39286H-1ZM-1 17.25V22.1786H1V17.25H-1ZM-1 27.1071V32.0357H1V27.1071H-1ZM-1 36.9643V41.8929H1V36.9643H-1ZM-1 46.8214V51.75H1V46.8214H-1ZM-1 56.6786V61.6071H1V56.6786H-1ZM-1 66.5357V69H1V66.5357H-1ZM0 70H2.5V68H0V70ZM7.5 70H12.5V68H7.5V70ZM17.5 70H22.5V68H17.5V70ZM27.5 70H32.5V68H27.5V70ZM37.5 70H42.5V68H37.5V70ZM47.5 70H52.5V68H47.5V70ZM57.5 70H62.5V68H57.5V70ZM67.5 70H72.5V68H67.5V70ZM77.5 70H82.5V68H77.5V70ZM87.5 70H92.5V68H87.5V70ZM97.5 70H102.5V68H97.5V70ZM107.5 70H112.5V68H107.5V70ZM117.5 70H122.5V68H117.5V70ZM127.5 70H132.5V68H127.5V70ZM137.5 70H142.5V68H137.5V70ZM147.5 70H152.5V68H147.5V70ZM157.5 70H162.5V68H157.5V70ZM167.5 70H172.5V68H167.5V70ZM177.5 70H182.5V68H177.5V70ZM187.5 70H192.5V68H187.5V70ZM197.5 70H202.5V68H197.5V70ZM207.5 70H212.5V68H207.5V70ZM217.5 70H222.5V68H217.5V70ZM227.5 70H232.5V68H227.5V70ZM237.5 70H242.5V68H237.5V70ZM247.5 70H252.5V68H247.5V70ZM257.5 70H262.5V68H257.5V70ZM267.5 70H272.5V68H267.5V70ZM277.5 70H282.5V68H277.5V70ZM287.5 70H292.5V68H287.5V70ZM297.5 70H302.5V68H297.5V70ZM307.5 70H312.5V68H307.5V70ZM317.5 70H322.5V68H317.5V70ZM327.5 70H332.5V68H327.5V70ZM337.5 70H342.5V68H337.5V70ZM347.5 70H352.5V68H347.5V70ZM357.5 70H362.5V68H357.5V70ZM367.5 70H372.5V68H367.5V70ZM377.5 70H382.5V68H377.5V70ZM387.5 70H392.5V68H387.5V70ZM397.5 70H402.5V68H397.5V70ZM407.5 70H412.5V68H407.5V70ZM417.5 70H422.5V68H417.5V70ZM427.5 70H432.5V68H427.5V70ZM437.5 70H442.5V68H437.5V70ZM447.5 70H452.5V68H447.5V70ZM457.5 70H462.5V68H457.5V70ZM467.5 70H472.5V68H467.5V70ZM477.5 70H482.5V68H477.5V70ZM487.5 70H492.5V68H487.5V70ZM497.5 70H502.5V68H497.5V70ZM507.5 70H512.5V68H507.5V70ZM517.5 70H522.5V68H517.5V70ZM527.5 70H532.5V68H527.5V70ZM537.5 70H542.5V68H537.5V70ZM547.5 70H552.5V68H547.5V70ZM557.5 70H562.5V68H557.5V70ZM567.5 70H572.5V68H567.5V70ZM577.5 70H582.5V68H577.5V70ZM587.5 70H592.5V68H587.5V70ZM597.5 70H602.5V68H597.5V70ZM607.5 70H612.5V68H607.5V70ZM617.5 70H622.5V68H617.5V70ZM627.5 70H632.5V68H627.5V70ZM637.5 70H642.5V68H637.5V70ZM647.5 70H652.5V68H647.5V70ZM657.5 70H662.5V68H657.5V70ZM667.5 70H672.5V68H667.5V70ZM677.5 70H682.5V68H677.5V70ZM687.5 70H692.5V68H687.5V70ZM697.5 70H702.5V68H697.5V70ZM707.5 70H712.5V68H707.5V70ZM717.5 70H720V68H717.5V70ZM721 69V66.5357H719V69H721ZM721 61.6071V56.6786H719V61.6071H721ZM721 51.75V46.8214H719V51.75H721ZM721 41.8929V36.9643H719V41.8929H721ZM721 32.0357V27.1071H719V32.0357H721ZM721 22.1786V17.25H719V22.1786H721ZM721 12.3214V7.39287H719V12.3214H721ZM721 2.46429V0H719V2.46429H721ZM720 -1H717.5V1H720V-1ZM712.5 -1H707.5V1H712.5V-1ZM702.5 -1H697.5V1H702.5V-1ZM692.5 -1H687.5V1H692.5V-1ZM682.5 -1H677.5V1H682.5V-1ZM672.5 -1H667.5V1H672.5V-1ZM662.5 -1H657.5V1H662.5V-1ZM652.5 -1H647.5V1H652.5V-1ZM642.5 -1H637.5V1H642.5V-1ZM632.5 -1H627.5V1H632.5V-1ZM622.5 -1H617.5V1H622.5V-1ZM612.5 -1H607.5V1H612.5V-1ZM602.5 -1H597.5V1H602.5V-1ZM592.5 -1H587.5V1H592.5V-1ZM582.5 -1H577.5V1H582.5V-1ZM572.5 -1H567.5V1H572.5V-1ZM562.5 -1H557.5V1H562.5V-1ZM552.5 -1H547.5V1H552.5V-1ZM542.5 -1H537.5V1H542.5V-1ZM532.5 -1H527.5V1H532.5V-1ZM522.5 -1H517.5V1H522.5V-1ZM512.5 -1H507.5V1H512.5V-1ZM502.5 -1H497.5V1H502.5V-1ZM492.5 -1H487.5V1H492.5V-1ZM482.5 -1H477.5V1H482.5V-1ZM472.5 -1H467.5V1H472.5V-1ZM462.5 -1H457.5V1H462.5V-1ZM452.5 -1H447.5V1H452.5V-1ZM442.5 -1H437.5V1H442.5V-1ZM432.5 -1H427.5V1H432.5V-1ZM422.5 -1H417.5V1H422.5V-1ZM412.5 -1H407.5V1H412.5V-1ZM402.5 -1H397.5V1H402.5V-1ZM392.5 -1H387.5V1H392.5V-1ZM382.5 -1H377.5V1H382.5V-1ZM372.5 -1H367.5V1H372.5V-1ZM362.5 -1H357.5V1H362.5V-1ZM352.5 -1H347.5V1H352.5V-1ZM342.5 -1H337.5V1H342.5V-1ZM332.5 -1H327.5V1H332.5V-1ZM322.5 -1H317.5V1H322.5V-1ZM312.5 -1H307.5V1H312.5V-1ZM302.5 -1H297.5V1H302.5V-1ZM292.5 -1H287.5V1H292.5V-1ZM282.5 -1H277.5V1H282.5V-1ZM272.5 -1H267.5V1H272.5V-1ZM262.5 -1H257.5V1H262.5V-1ZM252.5 -1H247.5V1H252.5V-1ZM242.5 -1H237.5V1H242.5V-1ZM232.5 -1H227.5V1H232.5V-1ZM222.5 -1H217.5V1H222.5V-1ZM212.5 -1H207.5V1H212.5V-1ZM202.5 -1H197.5V1H202.5V-1ZM192.5 -1H187.5V1H192.5V-1ZM182.5 -1H177.5V1H182.5V-1ZM172.5 -1H167.5V1H172.5V-1ZM162.5 -1H157.5V1H162.5V-1ZM152.5 -1H147.5V1H152.5V-1ZM142.5 -1H137.5V1H142.5V-1ZM132.5 -1H127.5V1H132.5V-1ZM122.5 -1H117.5V1H122.5V-1ZM112.5 -1H107.5V1H112.5V-1ZM102.5 -1H97.5V1H102.5V-1ZM92.5 -1H87.5V1H92.5V-1ZM82.5 -1H77.5V1H82.5V-1ZM72.5 -1H67.5V1H72.5V-1ZM62.5 -1H57.5V1H62.5V-1ZM52.5 -1H47.5V1H52.5V-1ZM42.5 -1H37.5V1H42.5V-1ZM32.5 -1H27.5V1H32.5V-1ZM22.5 -1H17.5V1H22.5V-1ZM12.5 -1H7.50001V1H12.5V-1ZM2.49999 -1H0V1H2.49999V-1Z" fill="#7F20D2"/>
</svg>
