<svg width="720" height="272" viewBox="0 0 720 272" fill="none" xmlns="http://www.w3.org/2000/svg">
<path d="M0 0H720V272H0V0Z" fill="#F8F8F8"/>
<path d="M384.008 56.9219C383.706 57.0885 383.307 57.1719 382.812 57.1719C381.411 57.1719 380.711 56.3906 380.711 54.8281V50.0938H379.336V49H380.711V47.0469L381.992 46.6328V49H384.008V50.0938H381.992V54.6016C381.992 55.138 382.083 55.5208 382.266 55.75C382.448 55.9792 382.75 56.0938 383.172 56.0938C383.495 56.0938 383.773 56.0052 384.008 55.8281V56.9219ZM389.062 57.1875C387.88 57.1875 386.935 56.8151 386.227 56.0703C385.523 55.3203 385.172 54.3281 385.172 53.0938C385.172 51.75 385.539 50.7005 386.273 49.9453C387.008 49.1901 388 48.8125 389.25 48.8125C390.443 48.8125 391.372 49.1797 392.039 49.9141C392.711 50.6484 393.047 51.6667 393.047 52.9688C393.047 54.2448 392.685 55.2682 391.961 56.0391C391.242 56.8047 390.276 57.1875 389.062 57.1875ZM389.156 49.8906C388.333 49.8906 387.682 50.1719 387.203 50.7344C386.724 51.2917 386.484 52.0625 386.484 53.0469C386.484 53.9948 386.727 54.7422 387.211 55.2891C387.695 55.8359 388.344 56.1094 389.156 56.1094C389.984 56.1094 390.62 55.8411 391.062 55.3047C391.51 54.7682 391.734 54.0052 391.734 53.0156C391.734 52.0156 391.51 51.2448 391.062 50.7031C390.62 50.1615 389.984 49.8906 389.156 49.8906ZM396.406 55.8438H396.375V60.6797H395.094V49H396.375V50.4062H396.406C397.036 49.3438 397.958 48.8125 399.172 48.8125C400.203 48.8125 401.008 49.1719 401.586 49.8906C402.164 50.6042 402.453 51.5625 402.453 52.7656C402.453 54.1042 402.128 55.1771 401.477 55.9844C400.826 56.7865 399.935 57.1875 398.805 57.1875C397.768 57.1875 396.969 56.7396 396.406 55.8438ZM396.375 52.6172V53.7344C396.375 54.3958 396.589 54.9583 397.016 55.4219C397.448 55.8802 397.995 56.1094 398.656 56.1094C399.432 56.1094 400.039 55.8125 400.477 55.2188C400.919 54.625 401.141 53.7995 401.141 52.7422C401.141 51.8516 400.935 51.1536 400.523 50.6484C400.112 50.1432 399.555 49.8906 398.852 49.8906C398.107 49.8906 397.508 50.151 397.055 50.6719C396.602 51.1875 396.375 51.8359 396.375 52.6172ZM404.945 50.5625C404.706 50.5625 404.5 50.4766 404.328 50.3047C404.161 50.1328 404.078 49.9271 404.078 49.6875C404.078 49.4479 404.161 49.2448 404.328 49.0781C404.5 48.9115 404.706 48.8281 404.945 48.8281C405.19 48.8281 405.398 48.9115 405.57 49.0781C405.742 49.2448 405.828 49.4479 405.828 49.6875C405.828 49.9271 405.742 50.1328 405.57 50.3047C405.398 50.4766 405.19 50.5625 404.945 50.5625ZM404.945 57.1719C404.706 57.1719 404.5 57.0859 404.328 56.9141C404.161 56.7422 404.078 56.5365 404.078 56.2969C404.078 56.0573 404.161 55.8516 404.328 55.6797C404.5 55.5026 404.706 55.4141 404.945 55.4141C405.19 55.4141 405.398 55.5026 405.57 55.6797C405.742 55.8516 405.828 56.0573 405.828 56.2969C405.828 56.5365 405.742 56.7422 405.57 56.9141C405.398 57.0859 405.19 57.1719 404.945 57.1719Z" fill="black"/>
<path d="M416.719 57H415.438V47.3203C415.339 47.4193 415.193 47.5339 415 47.6641C414.812 47.7891 414.599 47.9141 414.359 48.0391C414.125 48.1641 413.875 48.2813 413.609 48.3906C413.349 48.5 413.094 48.5859 412.844 48.6484V47.3516C413.125 47.2734 413.422 47.1693 413.734 47.0391C414.052 46.9036 414.362 46.7552 414.664 46.5938C414.971 46.4271 415.26 46.2552 415.531 46.0781C415.802 45.8958 416.036 45.7188 416.234 45.5469H416.719V57ZM427.656 51.3516C427.656 52.2891 427.57 53.1198 427.398 53.8438C427.232 54.5677 426.987 55.1797 426.664 55.6797C426.346 56.1745 425.953 56.5521 425.484 56.8125C425.021 57.0677 424.492 57.1953 423.898 57.1953C423.336 57.1953 422.833 57.0729 422.391 56.8281C421.953 56.5781 421.583 56.2161 421.281 55.7422C420.979 55.2682 420.75 54.6875 420.594 54C420.438 53.3073 420.359 52.5156 420.359 51.625C420.359 50.6458 420.44 49.7813 420.602 49.0313C420.768 48.2813 421.01 47.6536 421.328 47.1484C421.646 46.638 422.039 46.2552 422.508 46C422.982 45.7396 423.523 45.6094 424.133 45.6094C426.482 45.6094 427.656 47.5234 427.656 51.3516ZM426.344 51.4766C426.344 48.2891 425.586 46.6953 424.07 46.6953C422.471 46.6953 421.672 48.3177 421.672 51.5625C421.672 54.5885 422.456 56.1016 424.023 56.1016C425.57 56.1016 426.344 54.5599 426.344 51.4766ZM436.281 51.3516C436.281 52.2891 436.195 53.1198 436.023 53.8438C435.857 54.5677 435.612 55.1797 435.289 55.6797C434.971 56.1745 434.578 56.5521 434.109 56.8125C433.646 57.0677 433.117 57.1953 432.523 57.1953C431.961 57.1953 431.458 57.0729 431.016 56.8281C430.578 56.5781 430.208 56.2161 429.906 55.7422C429.604 55.2682 429.375 54.6875 429.219 54C429.062 53.3073 428.984 52.5156 428.984 51.625C428.984 50.6458 429.065 49.7813 429.227 49.0313C429.393 48.2813 429.635 47.6536 429.953 47.1484C430.271 46.638 430.664 46.2552 431.133 46C431.607 45.7396 432.148 45.6094 432.758 45.6094C435.107 45.6094 436.281 47.5234 436.281 51.3516ZM434.969 51.4766C434.969 48.2891 434.211 46.6953 432.695 46.6953C431.096 46.6953 430.297 48.3177 430.297 51.5625C430.297 54.5885 431.081 56.1016 432.648 56.1016C434.195 56.1016 434.969 54.5599 434.969 51.4766ZM439.547 55.8438H439.516V60.6797H438.234V49H439.516V50.4063H439.547C440.177 49.3438 441.099 48.8125 442.312 48.8125C443.344 48.8125 444.148 49.1719 444.727 49.8906C445.305 50.6042 445.594 51.5625 445.594 52.7656C445.594 54.1042 445.268 55.1771 444.617 55.9844C443.966 56.7865 443.076 57.1875 441.945 57.1875C440.909 57.1875 440.109 56.7396 439.547 55.8438ZM439.516 52.6172V53.7344C439.516 54.3958 439.729 54.9583 440.156 55.4219C440.589 55.8802 441.135 56.1094 441.797 56.1094C442.573 56.1094 443.18 55.8125 443.617 55.2188C444.06 54.625 444.281 53.7995 444.281 52.7422C444.281 51.8516 444.076 51.1536 443.664 50.6484C443.253 50.1432 442.695 49.8906 441.992 49.8906C441.247 49.8906 440.648 50.151 440.195 50.6719C439.742 51.1875 439.516 51.8359 439.516 52.6172ZM453.484 49L450.797 53.0469L453.438 57H451.945L450.375 54.4063C450.276 54.2448 450.159 54.0417 450.023 53.7969H449.992C449.966 53.8438 449.844 54.0469 449.625 54.4063L448.023 57H446.547L449.273 53.0781L446.664 49H448.156L449.703 51.7344C449.818 51.9375 449.93 52.1458 450.039 52.3594H450.07L452.07 49H453.484Z" fill="#7B61FF"/>
<path d="M374 1L371.113 6L376.887 6L374 1ZM374 100L376.887 95L371.113 95L374 100ZM373.5 5.5L373.5 95.5L374.5 95.5L374.5 5.5L373.5 5.5Z" fill="black"/>
<path d="M81.3152 176H80.034V164.156H81.3152V176ZM90.3387 172.32H84.6902C84.711 173.211 84.9506 173.898 85.409 174.383C85.8673 174.867 86.4975 175.109 87.2996 175.109C88.2006 175.109 89.0288 174.812 89.784 174.219L89.784 175.422C89.0808 175.932 88.1512 176.188 86.9949 176.188C85.8647 176.188 84.9767 175.826 84.3308 175.102C83.685 174.372 83.3621 173.349 83.3621 172.031C83.3621 170.786 83.7137 169.773 84.4168 168.992C85.1251 168.206 86.0027 167.812 87.0496 167.812C88.0965 167.812 88.9064 168.151 89.4793 168.828C90.0522 169.505 90.3387 170.445 90.3387 171.648V172.32ZM89.0262 171.234C89.0209 170.495 88.8413 169.919 88.4871 169.508C88.1381 169.096 87.6512 168.891 87.0262 168.891C86.422 168.891 85.909 169.107 85.4871 169.539C85.0652 169.971 84.8048 170.536 84.7058 171.234H89.0262ZM96.2371 165.281C95.9871 165.141 95.7032 165.07 95.3855 165.07C94.4897 165.07 94.0418 165.635 94.0418 166.766V168H95.9168V169.094H94.0418L94.0418 176H92.7683L92.7683 169.094H91.4012V168H92.7683V166.703C92.7683 165.865 93.0105 165.203 93.4949 164.719C93.9793 164.229 94.5834 163.984 95.3074 163.984C95.698 163.984 96.0079 164.031 96.2371 164.125V165.281ZM101.011 175.922C100.708 176.089 100.31 176.172 99.8152 176.172C98.4142 176.172 97.7137 175.391 97.7137 173.828V169.094H96.3387V168H97.7137V166.047L98.9949 165.633V168H101.011V169.094H98.9949V173.602C98.9949 174.138 99.086 174.521 99.2683 174.75C99.4506 174.979 99.7527 175.094 100.175 175.094C100.498 175.094 100.776 175.005 101.011 174.828V175.922ZM103.167 169.562C102.927 169.562 102.721 169.477 102.55 169.305C102.383 169.133 102.3 168.927 102.3 168.688C102.3 168.448 102.383 168.245 102.55 168.078C102.721 167.911 102.927 167.828 103.167 167.828C103.412 167.828 103.62 167.911 103.792 168.078C103.964 168.245 104.05 168.448 104.05 168.688C104.05 168.927 103.964 169.133 103.792 169.305C103.62 169.477 103.412 169.562 103.167 169.562ZM103.167 176.172C102.927 176.172 102.721 176.086 102.55 175.914C102.383 175.742 102.3 175.536 102.3 175.297C102.3 175.057 102.383 174.852 102.55 174.68C102.721 174.503 102.927 174.414 103.167 174.414C103.412 174.414 103.62 174.503 103.792 174.68C103.964 174.852 104.05 175.057 104.05 175.297C104.05 175.536 103.964 175.742 103.792 175.914C103.62 176.086 103.412 176.172 103.167 176.172Z" fill="black"/>
<path d="M115.315 167.734C115.315 167.391 115.261 167.091 115.151 166.836C115.047 166.581 114.901 166.37 114.714 166.203C114.531 166.031 114.315 165.904 114.065 165.82C113.815 165.737 113.544 165.695 113.253 165.695C113.003 165.695 112.758 165.729 112.518 165.797C112.279 165.865 112.044 165.958 111.815 166.078C111.591 166.198 111.373 166.341 111.159 166.508C110.951 166.674 110.755 166.859 110.573 167.062V165.688C110.932 165.339 111.333 165.073 111.776 164.891C112.224 164.703 112.768 164.609 113.409 164.609C113.867 164.609 114.292 164.677 114.682 164.812C115.073 164.943 115.412 165.135 115.698 165.391C115.984 165.646 116.208 165.961 116.37 166.336C116.537 166.711 116.62 167.141 116.62 167.625C116.62 168.068 116.568 168.469 116.464 168.828C116.365 169.188 116.211 169.526 116.003 169.844C115.8 170.161 115.542 170.466 115.229 170.758C114.917 171.049 114.55 171.346 114.128 171.648C113.602 172.023 113.167 172.344 112.823 172.609C112.484 172.875 112.214 173.125 112.011 173.359C111.813 173.589 111.672 173.82 111.589 174.055C111.511 174.284 111.471 174.549 111.471 174.852H117.05V176H110.136V175.445C110.136 174.966 110.188 174.544 110.292 174.18C110.396 173.815 110.568 173.469 110.807 173.141C111.047 172.812 111.359 172.484 111.745 172.156C112.136 171.828 112.612 171.458 113.175 171.047C113.581 170.755 113.919 170.477 114.19 170.211C114.466 169.945 114.688 169.68 114.854 169.414C115.021 169.148 115.138 168.88 115.206 168.609C115.279 168.333 115.315 168.042 115.315 167.734ZM123.94 167.734C123.94 167.391 123.886 167.091 123.776 166.836C123.672 166.581 123.526 166.37 123.339 166.203C123.156 166.031 122.94 165.904 122.69 165.82C122.44 165.737 122.169 165.695 121.878 165.695C121.628 165.695 121.383 165.729 121.143 165.797C120.904 165.865 120.669 165.958 120.44 166.078C120.216 166.198 119.998 166.341 119.784 166.508C119.576 166.674 119.38 166.859 119.198 167.062V165.688C119.557 165.339 119.958 165.073 120.401 164.891C120.849 164.703 121.393 164.609 122.034 164.609C122.492 164.609 122.917 164.677 123.307 164.812C123.698 164.943 124.037 165.135 124.323 165.391C124.609 165.646 124.833 165.961 124.995 166.336C125.162 166.711 125.245 167.141 125.245 167.625C125.245 168.068 125.193 168.469 125.089 168.828C124.99 169.188 124.836 169.526 124.628 169.844C124.425 170.161 124.167 170.466 123.854 170.758C123.542 171.049 123.175 171.346 122.753 171.648C122.227 172.023 121.792 172.344 121.448 172.609C121.109 172.875 120.839 173.125 120.636 173.359C120.438 173.589 120.297 173.82 120.214 174.055C120.136 174.284 120.096 174.549 120.096 174.852H125.675V176H118.761V175.445C118.761 174.966 118.813 174.544 118.917 174.18C119.021 173.815 119.193 173.469 119.432 173.141C119.672 172.812 119.984 172.484 120.37 172.156C120.761 171.828 121.237 171.458 121.8 171.047C122.206 170.755 122.544 170.477 122.815 170.211C123.091 169.945 123.313 169.68 123.479 169.414C123.646 169.148 123.763 168.88 123.831 168.609C123.904 168.333 123.94 168.042 123.94 167.734ZM133.175 164.797V172.195H134.612V173.367H133.175V176H131.909V173.367H126.643V172.258C127.133 171.706 127.628 171.117 128.128 170.492C128.628 169.862 129.104 169.224 129.557 168.578C130.016 167.932 130.438 167.289 130.823 166.648C131.214 166.003 131.542 165.385 131.807 164.797H133.175ZM128.089 172.195H131.909V166.711C131.518 167.393 131.149 168.003 130.8 168.539C130.451 169.076 130.117 169.562 129.8 170C129.487 170.438 129.188 170.833 128.901 171.188C128.615 171.542 128.344 171.878 128.089 172.195ZM137.768 174.844H137.737V179.68H136.456V168H137.737V169.406H137.768C138.399 168.344 139.32 167.812 140.534 167.812C141.565 167.812 142.37 168.172 142.948 168.891C143.526 169.604 143.815 170.562 143.815 171.766C143.815 173.104 143.49 174.177 142.839 174.984C142.188 175.786 141.297 176.188 140.167 176.188C139.13 176.188 138.331 175.74 137.768 174.844ZM137.737 171.617V172.734C137.737 173.396 137.951 173.958 138.378 174.422C138.81 174.88 139.357 175.109 140.018 175.109C140.794 175.109 141.401 174.812 141.839 174.219C142.281 173.625 142.503 172.799 142.503 171.742C142.503 170.852 142.297 170.154 141.886 169.648C141.474 169.143 140.917 168.891 140.214 168.891C139.469 168.891 138.87 169.151 138.417 169.672C137.964 170.188 137.737 170.836 137.737 171.617ZM151.706 168L149.018 172.047L151.659 176H150.167L148.596 173.406C148.498 173.245 148.38 173.042 148.245 172.797H148.214C148.188 172.844 148.065 173.047 147.846 173.406L146.245 176H144.768L147.495 172.078L144.886 168H146.378L147.925 170.734C148.039 170.938 148.151 171.146 148.261 171.359H148.292L150.292 168H151.706Z" fill="#7B61FF"/>
<path d="M1 185L6 187.887L6 182.113L1 185ZM224 185L219 182.113V187.887L224 185ZM5.5 185.5L219.5 185.5V184.5L5.5 184.5V185.5Z" fill="black"/>
<rect x="224.5" y="100.5" width="319" height="144" fill="white"/>
<rect x="241.5" y="130.5" width="212" height="64" fill="#F8F8F8"/>
<path d="M255.031 146.734C255.031 146.391 254.977 146.091 254.867 145.836C254.763 145.581 254.617 145.37 254.43 145.203C254.247 145.031 254.031 144.904 253.781 144.82C253.531 144.737 253.26 144.695 252.969 144.695C252.719 144.695 252.474 144.729 252.234 144.797C251.995 144.865 251.76 144.958 251.531 145.078C251.307 145.198 251.089 145.341 250.875 145.508C250.667 145.674 250.471 145.859 250.289 146.062V144.688C250.648 144.339 251.049 144.073 251.492 143.891C251.94 143.703 252.484 143.609 253.125 143.609C253.583 143.609 254.008 143.677 254.398 143.812C254.789 143.943 255.128 144.135 255.414 144.391C255.701 144.646 255.924 144.961 256.086 145.336C256.253 145.711 256.336 146.141 256.336 146.625C256.336 147.068 256.284 147.469 256.18 147.828C256.081 148.188 255.927 148.526 255.719 148.844C255.516 149.161 255.258 149.466 254.945 149.758C254.633 150.049 254.266 150.346 253.844 150.648C253.318 151.023 252.883 151.344 252.539 151.609C252.201 151.875 251.93 152.125 251.727 152.359C251.529 152.589 251.388 152.82 251.305 153.055C251.227 153.284 251.188 153.549 251.188 153.852H256.766V155H249.852V154.445C249.852 153.966 249.904 153.544 250.008 153.18C250.112 152.815 250.284 152.469 250.523 152.141C250.763 151.812 251.076 151.484 251.461 151.156C251.852 150.828 252.328 150.458 252.891 150.047C253.297 149.755 253.635 149.477 253.906 149.211C254.182 148.945 254.404 148.68 254.57 148.414C254.737 148.148 254.854 147.88 254.922 147.609C254.995 147.333 255.031 147.042 255.031 146.734ZM263.281 155H262V145.32C261.901 145.419 261.755 145.534 261.562 145.664C261.375 145.789 261.161 145.914 260.922 146.039C260.688 146.164 260.438 146.281 260.172 146.391C259.911 146.5 259.656 146.586 259.406 146.648V145.352C259.688 145.273 259.984 145.169 260.297 145.039C260.615 144.904 260.924 144.755 261.227 144.594C261.534 144.427 261.823 144.255 262.094 144.078C262.365 143.896 262.599 143.719 262.797 143.547H263.281V155ZM273.695 151.828C273.695 152.333 273.599 152.794 273.406 153.211C273.219 153.622 272.951 153.977 272.602 154.273C272.258 154.565 271.844 154.792 271.359 154.953C270.875 155.115 270.341 155.195 269.758 155.195C268.69 155.195 267.841 154.992 267.211 154.586V153.211C267.966 153.805 268.831 154.102 269.805 154.102C270.195 154.102 270.547 154.052 270.859 153.953C271.177 153.854 271.448 153.711 271.672 153.523C271.901 153.336 272.076 153.109 272.195 152.844C272.32 152.578 272.383 152.279 272.383 151.945C272.383 150.482 271.341 149.75 269.258 149.75H268.328V148.664H269.211C271.055 148.664 271.977 147.977 271.977 146.602C271.977 145.331 271.273 144.695 269.867 144.695C269.076 144.695 268.333 144.961 267.641 145.492V144.25C268.354 143.823 269.203 143.609 270.188 143.609C270.656 143.609 271.081 143.674 271.461 143.805C271.841 143.935 272.167 144.117 272.438 144.352C272.708 144.586 272.917 144.867 273.062 145.195C273.214 145.523 273.289 145.885 273.289 146.281C273.289 147.755 272.544 148.703 271.055 149.125V149.156C271.435 149.198 271.786 149.292 272.109 149.438C272.432 149.578 272.711 149.763 272.945 149.992C273.18 150.221 273.362 150.492 273.492 150.805C273.628 151.112 273.695 151.453 273.695 151.828ZM277.484 153.844H277.453V158.68H276.172V147H277.453V148.406H277.484C278.115 147.344 279.036 146.812 280.25 146.812C281.281 146.812 282.086 147.172 282.664 147.891C283.242 148.604 283.531 149.562 283.531 150.766C283.531 152.104 283.206 153.177 282.555 153.984C281.904 154.786 281.013 155.188 279.883 155.188C278.846 155.188 278.047 154.74 277.484 153.844ZM277.453 150.617V151.734C277.453 152.396 277.667 152.958 278.094 153.422C278.526 153.88 279.073 154.109 279.734 154.109C280.51 154.109 281.117 153.812 281.555 153.219C281.997 152.625 282.219 151.799 282.219 150.742C282.219 149.852 282.013 149.154 281.602 148.648C281.19 148.143 280.633 147.891 279.93 147.891C279.185 147.891 278.586 148.151 278.133 148.672C277.68 149.188 277.453 149.836 277.453 150.617ZM291.422 147L288.734 151.047L291.375 155H289.883L288.312 152.406C288.214 152.245 288.096 152.042 287.961 151.797H287.93C287.904 151.844 287.781 152.047 287.562 152.406L285.961 155H284.484L287.211 151.078L284.602 147H286.094L287.641 149.734C287.755 149.938 287.867 150.146 287.977 150.359H288.008L290.008 147H291.422ZM302.109 146.375L299.969 146.812L301.453 148.711L300.594 149.305L299.375 147.234L298.141 149.305L297.281 148.711L298.766 146.812L296.609 146.375L296.961 145.398L299.008 146.172L298.828 143.797H299.906L299.727 146.172L301.781 145.398L302.109 146.375ZM315.062 151.445C315.062 151.992 314.974 152.495 314.797 152.953C314.62 153.411 314.375 153.807 314.062 154.141C313.75 154.474 313.378 154.734 312.945 154.922C312.513 155.104 312.044 155.195 311.539 155.195C310.977 155.195 310.471 155.078 310.023 154.844C309.581 154.609 309.203 154.273 308.891 153.836C308.583 153.393 308.349 152.854 308.188 152.219C308.026 151.583 307.945 150.867 307.945 150.07C307.945 149.096 308.052 148.214 308.266 147.422C308.484 146.625 308.792 145.945 309.188 145.383C309.589 144.815 310.07 144.378 310.633 144.07C311.195 143.763 311.823 143.609 312.516 143.609C313.286 143.609 313.906 143.716 314.375 143.93V145.141C313.797 144.844 313.188 144.695 312.547 144.695C312.047 144.695 311.596 144.807 311.195 145.031C310.794 145.255 310.451 145.573 310.164 145.984C309.878 146.391 309.656 146.883 309.5 147.461C309.349 148.039 309.273 148.682 309.273 149.391H309.305C309.82 148.458 310.672 147.992 311.859 147.992C312.349 147.992 312.789 148.076 313.18 148.242C313.576 148.409 313.911 148.646 314.188 148.953C314.469 149.255 314.685 149.617 314.836 150.039C314.987 150.461 315.062 150.93 315.062 151.445ZM313.75 151.609C313.75 151.219 313.701 150.867 313.602 150.555C313.503 150.242 313.359 149.977 313.172 149.758C312.99 149.539 312.763 149.372 312.492 149.258C312.221 149.138 311.914 149.078 311.57 149.078C311.253 149.078 310.958 149.138 310.688 149.258C310.417 149.378 310.182 149.542 309.984 149.75C309.786 149.953 309.63 150.193 309.516 150.469C309.406 150.74 309.352 151.029 309.352 151.336C309.352 151.721 309.406 152.083 309.516 152.422C309.625 152.755 309.779 153.047 309.977 153.297C310.174 153.547 310.409 153.745 310.68 153.891C310.956 154.031 311.26 154.102 311.594 154.102C311.917 154.102 312.211 154.042 312.477 153.922C312.742 153.797 312.969 153.625 313.156 153.406C313.344 153.188 313.49 152.927 313.594 152.625C313.698 152.318 313.75 151.979 313.75 151.609ZM323.273 151.578C323.273 152.125 323.18 152.62 322.992 153.062C322.805 153.505 322.536 153.885 322.188 154.203C321.844 154.521 321.427 154.766 320.938 154.938C320.448 155.109 319.904 155.195 319.305 155.195C318.263 155.195 317.49 155.039 316.984 154.727V153.367C317.745 153.857 318.523 154.102 319.32 154.102C319.727 154.102 320.091 154.042 320.414 153.922C320.742 153.802 321.021 153.635 321.25 153.422C321.479 153.208 321.654 152.951 321.773 152.648C321.898 152.346 321.961 152.016 321.961 151.656C321.961 150.927 321.716 150.357 321.227 149.945C320.737 149.529 320.026 149.32 319.094 149.32C318.943 149.32 318.784 149.323 318.617 149.328C318.451 149.333 318.284 149.341 318.117 149.352C317.951 149.357 317.786 149.365 317.625 149.375C317.469 149.385 317.326 149.398 317.195 149.414L317.578 143.797H322.758V144.953H318.688L318.461 148.242C318.628 148.232 318.805 148.224 318.992 148.219C319.18 148.208 319.346 148.203 319.492 148.203C320.086 148.203 320.617 148.281 321.086 148.438C321.555 148.594 321.951 148.818 322.273 149.109C322.602 149.396 322.849 149.75 323.016 150.172C323.188 150.589 323.273 151.057 323.273 151.578ZM326.938 153.844H326.906V158.68H325.625V147H326.906V148.406H326.938C327.568 147.344 328.49 146.812 329.703 146.812C330.734 146.812 331.539 147.172 332.117 147.891C332.695 148.604 332.984 149.562 332.984 150.766C332.984 152.104 332.659 153.177 332.008 153.984C331.357 154.786 330.466 155.188 329.336 155.188C328.299 155.188 327.5 154.74 326.938 153.844ZM326.906 150.617V151.734C326.906 152.396 327.12 152.958 327.547 153.422C327.979 153.88 328.526 154.109 329.188 154.109C329.964 154.109 330.57 153.812 331.008 153.219C331.451 152.625 331.672 151.799 331.672 150.742C331.672 149.852 331.466 149.154 331.055 148.648C330.643 148.143 330.086 147.891 329.383 147.891C328.638 147.891 328.039 148.151 327.586 148.672C327.133 149.188 326.906 149.836 326.906 150.617ZM340.875 147L338.188 151.047L340.828 155H339.336L337.766 152.406C337.667 152.245 337.549 152.042 337.414 151.797H337.383C337.357 151.844 337.234 152.047 337.016 152.406L335.414 155H333.938L336.664 151.078L334.055 147H335.547L337.094 149.734C337.208 149.938 337.32 150.146 337.43 150.359H337.461L339.461 147H340.875Z" fill="#7B61FF"/>
<rect x="241.5" y="130.5" width="212" height="64" stroke="black" stroke-dasharray="5 5"/>
<path d="M465.867 151.297C465.643 151.125 465.32 151.039 464.898 151.039C464.352 151.039 463.893 151.297 463.523 151.812C463.159 152.328 462.977 153.031 462.977 153.922V158H461.695V150H462.977V151.648H463.008C463.19 151.086 463.469 150.648 463.844 150.336C464.219 150.018 464.638 149.859 465.102 149.859C465.435 149.859 465.69 149.896 465.867 149.969V151.297ZM467.914 147.969C467.685 147.969 467.49 147.891 467.328 147.734C467.167 147.578 467.086 147.38 467.086 147.141C467.086 146.901 467.167 146.703 467.328 146.547C467.49 146.385 467.685 146.305 467.914 146.305C468.148 146.305 468.346 146.385 468.508 146.547C468.674 146.703 468.758 146.901 468.758 147.141C468.758 147.37 468.674 147.565 468.508 147.727C468.346 147.888 468.148 147.969 467.914 147.969ZM468.539 158H467.258V150H468.539V158ZM477.961 157.359C477.961 160.297 476.555 161.766 473.742 161.766C472.753 161.766 471.888 161.578 471.148 161.203V159.922C472.049 160.422 472.909 160.672 473.727 160.672C475.695 160.672 476.68 159.625 476.68 157.531V156.656H476.648C476.039 157.677 475.122 158.188 473.898 158.188C472.904 158.188 472.102 157.833 471.492 157.125C470.888 156.411 470.586 155.456 470.586 154.258C470.586 152.898 470.911 151.818 471.562 151.016C472.219 150.214 473.115 149.812 474.25 149.812C475.328 149.812 476.128 150.245 476.648 151.109H476.68V150H477.961V157.359ZM476.68 154.383V153.203C476.68 152.568 476.464 152.023 476.031 151.57C475.604 151.117 475.07 150.891 474.43 150.891C473.638 150.891 473.018 151.18 472.57 151.758C472.122 152.331 471.898 153.135 471.898 154.172C471.898 155.062 472.112 155.776 472.539 156.312C472.971 156.844 473.542 157.109 474.25 157.109C474.969 157.109 475.552 156.854 476 156.344C476.453 155.833 476.68 155.18 476.68 154.383ZM487.195 158H485.914V153.391C485.914 151.724 485.294 150.891 484.055 150.891C483.43 150.891 482.904 151.133 482.477 151.617C482.049 152.096 481.836 152.714 481.836 153.469V158H480.555V146.156H481.836V151.328H481.867C482.482 150.318 483.357 149.812 484.492 149.812C486.294 149.812 487.195 150.898 487.195 153.07V158ZM493.328 157.922C493.026 158.089 492.628 158.172 492.133 158.172C490.732 158.172 490.031 157.391 490.031 155.828V151.094H488.656V150H490.031V148.047L491.312 147.633V150H493.328V151.094H491.312V155.602C491.312 156.138 491.404 156.521 491.586 156.75C491.768 156.979 492.07 157.094 492.492 157.094C492.815 157.094 493.094 157.005 493.328 156.828V157.922ZM495.484 151.562C495.245 151.562 495.039 151.477 494.867 151.305C494.701 151.133 494.617 150.927 494.617 150.688C494.617 150.448 494.701 150.245 494.867 150.078C495.039 149.911 495.245 149.828 495.484 149.828C495.729 149.828 495.938 149.911 496.109 150.078C496.281 150.245 496.367 150.448 496.367 150.688C496.367 150.927 496.281 151.133 496.109 151.305C495.938 151.477 495.729 151.562 495.484 151.562ZM495.484 158.172C495.245 158.172 495.039 158.086 494.867 157.914C494.701 157.742 494.617 157.536 494.617 157.297C494.617 157.057 494.701 156.852 494.867 156.68C495.039 156.503 495.245 156.414 495.484 156.414C495.729 156.414 495.938 156.503 496.109 156.68C496.281 156.852 496.367 157.057 496.367 157.297C496.367 157.536 496.281 157.742 496.109 157.914C495.938 158.086 495.729 158.172 495.484 158.172Z" fill="black"/>
<path d="M509.445 151.727C509.445 152.753 509.344 153.667 509.141 154.469C508.938 155.266 508.641 155.943 508.25 156.5C507.859 157.052 507.383 157.474 506.82 157.766C506.258 158.052 505.617 158.195 504.898 158.195C504.159 158.195 503.508 158.065 502.945 157.805V156.578C503.565 156.927 504.227 157.102 504.93 157.102C505.435 157.102 505.885 156.997 506.281 156.789C506.682 156.581 507.021 156.279 507.297 155.883C507.573 155.482 507.784 154.99 507.93 154.406C508.076 153.823 508.148 153.154 508.148 152.398H508.117C507.638 153.362 506.805 153.844 505.617 153.844C505.138 153.844 504.698 153.76 504.297 153.594C503.896 153.422 503.549 153.182 503.258 152.875C502.966 152.562 502.74 152.193 502.578 151.766C502.417 151.339 502.336 150.867 502.336 150.352C502.336 149.799 502.424 149.294 502.602 148.836C502.784 148.378 503.034 147.984 503.352 147.656C503.674 147.323 504.055 147.065 504.492 146.883C504.935 146.701 505.417 146.609 505.938 146.609C506.5 146.609 506.997 146.724 507.43 146.953C507.867 147.177 508.234 147.508 508.531 147.945C508.828 148.378 509.055 148.911 509.211 149.547C509.367 150.182 509.445 150.909 509.445 151.727ZM508.062 150.578C508.062 150.146 508.005 149.753 507.891 149.398C507.781 149.044 507.628 148.742 507.43 148.492C507.232 148.237 506.995 148.042 506.719 147.906C506.448 147.766 506.151 147.695 505.828 147.695C505.521 147.695 505.234 147.758 504.969 147.883C504.703 148.003 504.471 148.174 504.273 148.398C504.081 148.617 503.927 148.88 503.812 149.188C503.703 149.49 503.648 149.82 503.648 150.18C503.648 150.576 503.701 150.93 503.805 151.242C503.914 151.555 504.068 151.82 504.266 152.039C504.464 152.253 504.701 152.417 504.977 152.531C505.258 152.646 505.568 152.703 505.906 152.703C506.203 152.703 506.482 152.648 506.742 152.539C507.008 152.424 507.237 152.273 507.43 152.086C507.628 151.893 507.781 151.669 507.891 151.414C508.005 151.154 508.062 150.875 508.062 150.578ZM518.195 152.352C518.195 153.289 518.109 154.12 517.938 154.844C517.771 155.568 517.526 156.18 517.203 156.68C516.885 157.174 516.492 157.552 516.023 157.812C515.56 158.068 515.031 158.195 514.438 158.195C513.875 158.195 513.372 158.073 512.93 157.828C512.492 157.578 512.122 157.216 511.82 156.742C511.518 156.268 511.289 155.688 511.133 155C510.977 154.307 510.898 153.516 510.898 152.625C510.898 151.646 510.979 150.781 511.141 150.031C511.307 149.281 511.549 148.654 511.867 148.148C512.185 147.638 512.578 147.255 513.047 147C513.521 146.74 514.062 146.609 514.672 146.609C517.021 146.609 518.195 148.523 518.195 152.352ZM516.883 152.477C516.883 149.289 516.125 147.695 514.609 147.695C513.01 147.695 512.211 149.318 512.211 152.562C512.211 155.589 512.995 157.102 514.562 157.102C516.109 157.102 516.883 155.56 516.883 152.477ZM521.461 156.844H521.43V161.68H520.148V150H521.43V151.406H521.461C522.091 150.344 523.013 149.812 524.227 149.812C525.258 149.812 526.062 150.172 526.641 150.891C527.219 151.604 527.508 152.562 527.508 153.766C527.508 155.104 527.182 156.177 526.531 156.984C525.88 157.786 524.99 158.188 523.859 158.188C522.823 158.188 522.023 157.74 521.461 156.844ZM521.43 153.617V154.734C521.43 155.396 521.643 155.958 522.07 156.422C522.503 156.88 523.049 157.109 523.711 157.109C524.487 157.109 525.094 156.812 525.531 156.219C525.974 155.625 526.195 154.799 526.195 153.742C526.195 152.852 525.99 152.154 525.578 151.648C525.167 151.143 524.609 150.891 523.906 150.891C523.161 150.891 522.562 151.151 522.109 151.672C521.656 152.188 521.43 152.836 521.43 153.617ZM535.398 150L532.711 154.047L535.352 158H533.859L532.289 155.406C532.19 155.245 532.073 155.042 531.938 154.797H531.906C531.88 154.844 531.758 155.047 531.539 155.406L529.938 158H528.461L531.188 154.078L528.578 150H530.07L531.617 152.734C531.732 152.938 531.844 153.146 531.953 153.359H531.984L533.984 150H535.398Z" fill="#7B61FF"/>
<path d="M454 169L459 171.887L459 166.113L454 169ZM543 169L538 166.113L538 171.887L543 169ZM458.5 169.5L538.5 169.5L538.5 168.5L458.5 168.5L458.5 169.5Z" fill="black"/>
<path d="M355.609 224.844H355.578V226H354.297V214.156H355.578V219.406H355.609C356.24 218.344 357.161 217.812 358.375 217.812C359.401 217.812 360.203 218.172 360.781 218.891C361.365 219.604 361.656 220.562 361.656 221.766C361.656 223.104 361.331 224.177 360.68 224.984C360.029 225.786 359.138 226.188 358.008 226.188C356.951 226.188 356.151 225.74 355.609 224.844ZM355.578 221.617V222.734C355.578 223.396 355.792 223.958 356.219 224.422C356.651 224.88 357.198 225.109 357.859 225.109C358.635 225.109 359.242 224.812 359.68 224.219C360.122 223.625 360.344 222.799 360.344 221.742C360.344 220.852 360.138 220.154 359.727 219.648C359.315 219.143 358.758 218.891 358.055 218.891C357.31 218.891 356.711 219.151 356.258 219.672C355.805 220.188 355.578 220.836 355.578 221.617ZM367.047 226.188C365.865 226.188 364.919 225.815 364.211 225.07C363.508 224.32 363.156 223.328 363.156 222.094C363.156 220.75 363.523 219.701 364.258 218.945C364.992 218.19 365.984 217.812 367.234 217.812C368.427 217.812 369.357 218.18 370.023 218.914C370.695 219.648 371.031 220.667 371.031 221.969C371.031 223.245 370.669 224.268 369.945 225.039C369.227 225.805 368.26 226.188 367.047 226.188ZM367.141 218.891C366.318 218.891 365.667 219.172 365.188 219.734C364.708 220.292 364.469 221.062 364.469 222.047C364.469 222.995 364.711 223.742 365.195 224.289C365.68 224.836 366.328 225.109 367.141 225.109C367.969 225.109 368.604 224.841 369.047 224.305C369.495 223.768 369.719 223.005 369.719 222.016C369.719 221.016 369.495 220.245 369.047 219.703C368.604 219.161 367.969 218.891 367.141 218.891ZM376.789 225.922C376.487 226.089 376.089 226.172 375.594 226.172C374.193 226.172 373.492 225.391 373.492 223.828V219.094H372.117V218H373.492V216.047L374.773 215.633V218H376.789V219.094H374.773V223.602C374.773 224.138 374.865 224.521 375.047 224.75C375.229 224.979 375.531 225.094 375.953 225.094C376.276 225.094 376.555 225.005 376.789 224.828V225.922ZM382.211 225.922C381.909 226.089 381.51 226.172 381.016 226.172C379.615 226.172 378.914 225.391 378.914 223.828V219.094H377.539V218H378.914V216.047L380.195 215.633V218H382.211V219.094H380.195V223.602C380.195 224.138 380.286 224.521 380.469 224.75C380.651 224.979 380.953 225.094 381.375 225.094C381.698 225.094 381.977 225.005 382.211 224.828V225.922ZM387.266 226.188C386.083 226.188 385.138 225.815 384.43 225.07C383.727 224.32 383.375 223.328 383.375 222.094C383.375 220.75 383.742 219.701 384.477 218.945C385.211 218.19 386.203 217.812 387.453 217.812C388.646 217.812 389.576 218.18 390.242 218.914C390.914 219.648 391.25 220.667 391.25 221.969C391.25 223.245 390.888 224.268 390.164 225.039C389.445 225.805 388.479 226.188 387.266 226.188ZM387.359 218.891C386.536 218.891 385.885 219.172 385.406 219.734C384.927 220.292 384.688 221.062 384.688 222.047C384.688 222.995 384.93 223.742 385.414 224.289C385.898 224.836 386.547 225.109 387.359 225.109C388.188 225.109 388.823 224.841 389.266 224.305C389.714 223.768 389.938 223.005 389.938 222.016C389.938 221.016 389.714 220.245 389.266 219.703C388.823 219.161 388.188 218.891 387.359 218.891ZM404.656 226H403.375V221.406C403.375 220.521 403.237 219.88 402.961 219.484C402.69 219.089 402.232 218.891 401.586 218.891C401.039 218.891 400.573 219.141 400.188 219.641C399.807 220.141 399.617 220.74 399.617 221.438V226H398.336V221.25C398.336 219.677 397.729 218.891 396.516 218.891C395.953 218.891 395.49 219.128 395.125 219.602C394.76 220.07 394.578 220.682 394.578 221.438V226H393.297V218H394.578V219.266H394.609C395.177 218.297 396.005 217.812 397.094 217.812C397.641 217.812 398.117 217.966 398.523 218.273C398.93 218.576 399.208 218.974 399.359 219.469C399.953 218.365 400.839 217.812 402.016 217.812C403.776 217.812 404.656 218.898 404.656 221.07V226ZM407.523 219.562C407.284 219.562 407.078 219.477 406.906 219.305C406.74 219.133 406.656 218.927 406.656 218.688C406.656 218.448 406.74 218.245 406.906 218.078C407.078 217.911 407.284 217.828 407.523 217.828C407.768 217.828 407.977 217.911 408.148 218.078C408.32 218.245 408.406 218.448 408.406 218.688C408.406 218.927 408.32 219.133 408.148 219.305C407.977 219.477 407.768 219.562 407.523 219.562ZM407.523 226.172C407.284 226.172 407.078 226.086 406.906 225.914C406.74 225.742 406.656 225.536 406.656 225.297C406.656 225.057 406.74 224.852 406.906 224.68C407.078 224.503 407.284 224.414 407.523 224.414C407.768 224.414 407.977 224.503 408.148 224.68C408.32 224.852 408.406 225.057 408.406 225.297C408.406 225.536 408.32 225.742 408.148 225.914C407.977 226.086 407.768 226.172 407.523 226.172Z" fill="black"/>
<path d="M421.211 222.578C421.211 223.125 421.117 223.62 420.93 224.062C420.742 224.505 420.474 224.885 420.125 225.203C419.781 225.521 419.365 225.766 418.875 225.938C418.385 226.109 417.841 226.195 417.242 226.195C416.201 226.195 415.427 226.039 414.922 225.727V224.367C415.682 224.857 416.461 225.102 417.258 225.102C417.664 225.102 418.029 225.042 418.352 224.922C418.68 224.802 418.958 224.635 419.188 224.422C419.417 224.208 419.591 223.951 419.711 223.648C419.836 223.346 419.898 223.016 419.898 222.656C419.898 221.927 419.654 221.357 419.164 220.945C418.674 220.529 417.964 220.32 417.031 220.32C416.88 220.32 416.721 220.323 416.555 220.328C416.388 220.333 416.221 220.341 416.055 220.352C415.888 220.357 415.724 220.365 415.562 220.375C415.406 220.385 415.263 220.398 415.133 220.414L415.516 214.797H420.695V215.953H416.625L416.398 219.242C416.565 219.232 416.742 219.224 416.93 219.219C417.117 219.208 417.284 219.203 417.43 219.203C418.023 219.203 418.555 219.281 419.023 219.438C419.492 219.594 419.888 219.818 420.211 220.109C420.539 220.396 420.786 220.75 420.953 221.172C421.125 221.589 421.211 222.057 421.211 222.578ZM430.234 220.352C430.234 221.289 430.148 222.12 429.977 222.844C429.81 223.568 429.565 224.18 429.242 224.68C428.924 225.174 428.531 225.552 428.062 225.812C427.599 226.068 427.07 226.195 426.477 226.195C425.914 226.195 425.411 226.073 424.969 225.828C424.531 225.578 424.161 225.216 423.859 224.742C423.557 224.268 423.328 223.688 423.172 223C423.016 222.307 422.938 221.516 422.938 220.625C422.938 219.646 423.018 218.781 423.18 218.031C423.346 217.281 423.589 216.654 423.906 216.148C424.224 215.638 424.617 215.255 425.086 215C425.56 214.74 426.102 214.609 426.711 214.609C429.06 214.609 430.234 216.523 430.234 220.352ZM428.922 220.477C428.922 217.289 428.164 215.695 426.648 215.695C425.049 215.695 424.25 217.318 424.25 220.562C424.25 223.589 425.034 225.102 426.602 225.102C428.148 225.102 428.922 223.56 428.922 220.477ZM433.5 224.844H433.469V229.68H432.188V218H433.469V219.406H433.5C434.13 218.344 435.052 217.812 436.266 217.812C437.297 217.812 438.102 218.172 438.68 218.891C439.258 219.604 439.547 220.562 439.547 221.766C439.547 223.104 439.221 224.177 438.57 224.984C437.919 225.786 437.029 226.188 435.898 226.188C434.862 226.188 434.062 225.74 433.5 224.844ZM433.469 221.617V222.734C433.469 223.396 433.682 223.958 434.109 224.422C434.542 224.88 435.089 225.109 435.75 225.109C436.526 225.109 437.133 224.812 437.57 224.219C438.013 223.625 438.234 222.799 438.234 221.742C438.234 220.852 438.029 220.154 437.617 219.648C437.206 219.143 436.648 218.891 435.945 218.891C435.201 218.891 434.602 219.151 434.148 219.672C433.695 220.188 433.469 220.836 433.469 221.617ZM447.438 218L444.75 222.047L447.391 226H445.898L444.328 223.406C444.229 223.245 444.112 223.042 443.977 222.797H443.945C443.919 222.844 443.797 223.047 443.578 223.406L441.977 226H440.5L443.227 222.078L440.617 218H442.109L443.656 220.734C443.771 220.938 443.883 221.146 443.992 221.359H444.023L446.023 218L447.438 218Z" fill="#7B61FF"/>
<path d="M348 195L345.113 200L350.887 200L348 195ZM348 244L350.887 239L345.113 239L348 244ZM347.5 199.5L347.5 239.5L348.5 239.5L348.5 199.5L347.5 199.5Z" fill="black"/>
<path d="M239.445 121.828C239.445 122.333 239.349 122.794 239.156 123.211C238.969 123.622 238.701 123.977 238.352 124.273C238.008 124.565 237.594 124.792 237.109 124.953C236.625 125.115 236.091 125.195 235.508 125.195C234.44 125.195 233.591 124.992 232.961 124.586V123.211C233.716 123.805 234.581 124.102 235.555 124.102C235.945 124.102 236.297 124.052 236.609 123.953C236.927 123.854 237.198 123.711 237.422 123.523C237.651 123.336 237.826 123.109 237.945 122.844C238.07 122.578 238.133 122.279 238.133 121.945C238.133 120.482 237.091 119.75 235.008 119.75H234.078V118.664H234.961C236.805 118.664 237.727 117.977 237.727 116.602C237.727 115.331 237.023 114.695 235.617 114.695C234.826 114.695 234.083 114.961 233.391 115.492V114.25C234.104 113.823 234.953 113.609 235.938 113.609C236.406 113.609 236.831 113.674 237.211 113.805C237.591 113.935 237.917 114.117 238.188 114.352C238.458 114.586 238.667 114.867 238.812 115.195C238.964 115.523 239.039 115.885 239.039 116.281C239.039 117.755 238.294 118.703 236.805 119.125V119.156C237.185 119.198 237.536 119.292 237.859 119.438C238.182 119.578 238.461 119.763 238.695 119.992C238.93 120.221 239.112 120.492 239.242 120.805C239.378 121.112 239.445 121.453 239.445 121.828ZM246.656 116.734C246.656 116.391 246.602 116.091 246.492 115.836C246.388 115.581 246.242 115.37 246.055 115.203C245.872 115.031 245.656 114.904 245.406 114.82C245.156 114.737 244.885 114.695 244.594 114.695C244.344 114.695 244.099 114.729 243.859 114.797C243.62 114.865 243.385 114.958 243.156 115.078C242.932 115.198 242.714 115.341 242.5 115.508C242.292 115.674 242.096 115.859 241.914 116.062V114.688C242.273 114.339 242.674 114.073 243.117 113.891C243.565 113.703 244.109 113.609 244.75 113.609C245.208 113.609 245.633 113.677 246.023 113.812C246.414 113.943 246.753 114.135 247.039 114.391C247.326 114.646 247.549 114.961 247.711 115.336C247.878 115.711 247.961 116.141 247.961 116.625C247.961 117.068 247.909 117.469 247.805 117.828C247.706 118.188 247.552 118.526 247.344 118.844C247.141 119.161 246.883 119.466 246.57 119.758C246.258 120.049 245.891 120.346 245.469 120.648C244.943 121.023 244.508 121.344 244.164 121.609C243.826 121.875 243.555 122.125 243.352 122.359C243.154 122.589 243.013 122.82 242.93 123.055C242.852 123.284 242.812 123.549 242.812 123.852H248.391V125H241.477V124.445C241.477 123.966 241.529 123.544 241.633 123.18C241.737 122.815 241.909 122.469 242.148 122.141C242.388 121.812 242.701 121.484 243.086 121.156C243.477 120.828 243.953 120.458 244.516 120.047C244.922 119.755 245.26 119.477 245.531 119.211C245.807 118.945 246.029 118.68 246.195 118.414C246.362 118.148 246.479 117.88 246.547 117.609C246.62 117.333 246.656 117.042 246.656 116.734ZM257.219 119.352C257.219 120.289 257.133 121.12 256.961 121.844C256.794 122.568 256.549 123.18 256.227 123.68C255.909 124.174 255.516 124.552 255.047 124.812C254.583 125.068 254.055 125.195 253.461 125.195C252.898 125.195 252.396 125.073 251.953 124.828C251.516 124.578 251.146 124.216 250.844 123.742C250.542 123.268 250.312 122.688 250.156 122C250 121.307 249.922 120.516 249.922 119.625C249.922 118.646 250.003 117.781 250.164 117.031C250.331 116.281 250.573 115.654 250.891 115.148C251.208 114.638 251.602 114.255 252.07 114C252.544 113.74 253.086 113.609 253.695 113.609C256.044 113.609 257.219 115.523 257.219 119.352ZM255.906 119.477C255.906 116.289 255.148 114.695 253.633 114.695C252.034 114.695 251.234 116.318 251.234 119.562C251.234 122.589 252.018 124.102 253.586 124.102C255.133 124.102 255.906 122.56 255.906 119.477ZM260.484 123.844H260.453V128.68H259.172V117H260.453V118.406H260.484C261.115 117.344 262.036 116.812 263.25 116.812C264.281 116.812 265.086 117.172 265.664 117.891C266.242 118.604 266.531 119.562 266.531 120.766C266.531 122.104 266.206 123.177 265.555 123.984C264.904 124.786 264.013 125.188 262.883 125.188C261.846 125.188 261.047 124.74 260.484 123.844ZM260.453 120.617V121.734C260.453 122.396 260.667 122.958 261.094 123.422C261.526 123.88 262.073 124.109 262.734 124.109C263.51 124.109 264.117 123.812 264.555 123.219C264.997 122.625 265.219 121.799 265.219 120.742C265.219 119.852 265.013 119.154 264.602 118.648C264.19 118.143 263.633 117.891 262.93 117.891C262.185 117.891 261.586 118.151 261.133 118.672C260.68 119.188 260.453 119.836 260.453 120.617ZM274.422 117L271.734 121.047L274.375 125H272.883L271.312 122.406C271.214 122.245 271.096 122.042 270.961 121.797H270.93C270.904 121.844 270.781 122.047 270.562 122.406L268.961 125H267.484L270.211 121.078L267.602 117H269.094L270.641 119.734C270.755 119.938 270.867 120.146 270.977 120.359H271.008L273.008 117H274.422ZM285.109 116.375L282.969 116.812L284.453 118.711L283.594 119.305L282.375 117.234L281.141 119.305L280.281 118.711L281.766 116.812L279.609 116.375L279.961 115.398L282.008 116.172L281.828 113.797H282.906L282.727 116.172L284.781 115.398L285.109 116.375ZM295.734 125H294.453V115.32C294.354 115.419 294.208 115.534 294.016 115.664C293.828 115.789 293.615 115.914 293.375 116.039C293.141 116.164 292.891 116.281 292.625 116.391C292.365 116.5 292.109 116.586 291.859 116.648V115.352C292.141 115.273 292.438 115.169 292.75 115.039C293.068 114.904 293.378 114.755 293.68 114.594C293.987 114.427 294.276 114.255 294.547 114.078C294.818 113.896 295.052 113.719 295.25 113.547H295.734V125ZM305.344 113.797V121.195H306.781V122.367H305.344V125H304.078V122.367H298.812V121.258C299.302 120.706 299.797 120.117 300.297 119.492C300.797 118.862 301.273 118.224 301.727 117.578C302.185 116.932 302.607 116.289 302.992 115.648C303.383 115.003 303.711 114.385 303.977 113.797H305.344ZM300.258 121.195H304.078V115.711C303.688 116.393 303.318 117.003 302.969 117.539C302.62 118.076 302.286 118.562 301.969 119C301.656 119.438 301.357 119.833 301.07 120.188C300.784 120.542 300.513 120.878 300.258 121.195ZM314.898 121.578C314.898 122.125 314.805 122.62 314.617 123.062C314.43 123.505 314.161 123.885 313.812 124.203C313.469 124.521 313.052 124.766 312.562 124.938C312.073 125.109 311.529 125.195 310.93 125.195C309.888 125.195 309.115 125.039 308.609 124.727V123.367C309.37 123.857 310.148 124.102 310.945 124.102C311.352 124.102 311.716 124.042 312.039 123.922C312.367 123.802 312.646 123.635 312.875 123.422C313.104 123.208 313.279 122.951 313.398 122.648C313.523 122.346 313.586 122.016 313.586 121.656C313.586 120.927 313.341 120.357 312.852 119.945C312.362 119.529 311.651 119.32 310.719 119.32C310.568 119.32 310.409 119.323 310.242 119.328C310.076 119.333 309.909 119.341 309.742 119.352C309.576 119.357 309.411 119.365 309.25 119.375C309.094 119.385 308.951 119.398 308.82 119.414L309.203 113.797H314.383V114.953H310.312L310.086 118.242C310.253 118.232 310.43 118.224 310.617 118.219C310.805 118.208 310.971 118.203 311.117 118.203C311.711 118.203 312.242 118.281 312.711 118.438C313.18 118.594 313.576 118.818 313.898 119.109C314.227 119.396 314.474 119.75 314.641 120.172C314.812 120.589 314.898 121.057 314.898 121.578ZM318.562 123.844H318.531V128.68H317.25V117H318.531V118.406H318.562C319.193 117.344 320.115 116.812 321.328 116.812C322.359 116.812 323.164 117.172 323.742 117.891C324.32 118.604 324.609 119.562 324.609 120.766C324.609 122.104 324.284 123.177 323.633 123.984C322.982 124.786 322.091 125.188 320.961 125.188C319.924 125.188 319.125 124.74 318.562 123.844ZM318.531 120.617V121.734C318.531 122.396 318.745 122.958 319.172 123.422C319.604 123.88 320.151 124.109 320.812 124.109C321.589 124.109 322.195 123.812 322.633 123.219C323.076 122.625 323.297 121.799 323.297 120.742C323.297 119.852 323.091 119.154 322.68 118.648C322.268 118.143 321.711 117.891 321.008 117.891C320.263 117.891 319.664 118.151 319.211 118.672C318.758 119.188 318.531 119.836 318.531 120.617ZM332.5 117L329.812 121.047L332.453 125H330.961L329.391 122.406C329.292 122.245 329.174 122.042 329.039 121.797H329.008C328.982 121.844 328.859 122.047 328.641 122.406L327.039 125H325.562L328.289 121.078L325.68 117H327.172L328.719 119.734C328.833 119.938 328.945 120.146 329.055 120.359H329.086L331.086 117H332.5Z" fill="#7B61FF"/>
<rect x="224.5" y="100.5" width="319" height="144" stroke="black"/>
<path d="M15.8906 14.5391C15.7188 14.8359 15.5104 15.2057 15.2656 15.6484C15.026 16.0911 14.7708 16.5885 14.5 17.1406C14.2292 17.6927 13.9531 18.2865 13.6719 18.9219C13.3906 19.5573 13.1276 20.2135 12.8828 20.8906C12.638 21.5677 12.4219 22.2552 12.2344 22.9531C12.0521 23.6458 11.9193 24.3281 11.8359 25H10.4609C10.5547 24.3333 10.6979 23.6536 10.8906 22.9609C11.0885 22.263 11.3099 21.5807 11.5547 20.9141C11.8047 20.2422 12.0677 19.5964 12.3438 18.9766C12.6198 18.3568 12.888 17.7865 13.1484 17.2656C13.4089 16.7448 13.6458 16.2865 13.8594 15.8906C14.0781 15.4896 14.2526 15.1771 14.3828 14.9531H8.76562V13.7969H15.8906V14.5391ZM24.6094 21.4453C24.6094 21.9922 24.5208 22.4948 24.3438 22.9531C24.1667 23.4115 23.9219 23.8073 23.6094 24.1406C23.2969 24.474 22.9245 24.7344 22.4922 24.9219C22.0599 25.1042 21.5911 25.1953 21.0859 25.1953C20.5234 25.1953 20.0182 25.0781 19.5703 24.8438C19.1276 24.6094 18.75 24.2734 18.4375 23.8359C18.1302 23.3932 17.8958 22.8542 17.7344 22.2188C17.5729 21.5833 17.4922 20.8672 17.4922 20.0703C17.4922 19.0964 17.599 18.2135 17.8125 17.4219C18.0312 16.625 18.3385 15.9453 18.7344 15.3828C19.1354 14.8151 19.6172 14.3776 20.1797 14.0703C20.7422 13.763 21.3698 13.6094 22.0625 13.6094C22.8333 13.6094 23.4531 13.7161 23.9219 13.9297V15.1406C23.3438 14.8438 22.7344 14.6953 22.0938 14.6953C21.5938 14.6953 21.1432 14.8073 20.7422 15.0312C20.3411 15.2552 19.9974 15.5729 19.7109 15.9844C19.4245 16.3906 19.2031 16.8828 19.0469 17.4609C18.8958 18.0391 18.8203 18.6823 18.8203 19.3906H18.8516C19.3672 18.4583 20.2188 17.9922 21.4062 17.9922C21.8958 17.9922 22.3359 18.0755 22.7266 18.2422C23.1224 18.4089 23.4583 18.6458 23.7344 18.9531C24.0156 19.2552 24.2318 19.6172 24.3828 20.0391C24.5339 20.4609 24.6094 20.9297 24.6094 21.4453ZM23.2969 21.6094C23.2969 21.2188 23.2474 20.8672 23.1484 20.5547C23.0495 20.2422 22.9062 19.9766 22.7188 19.7578C22.5365 19.5391 22.3099 19.3724 22.0391 19.2578C21.7682 19.138 21.4609 19.0781 21.1172 19.0781C20.7995 19.0781 20.5052 19.138 20.2344 19.2578C19.9635 19.3776 19.7292 19.5417 19.5312 19.75C19.3333 19.9531 19.1771 20.1927 19.0625 20.4688C18.9531 20.7396 18.8984 21.0286 18.8984 21.3359C18.8984 21.7214 18.9531 22.0833 19.0625 22.4219C19.1719 22.7552 19.3255 23.0469 19.5234 23.2969C19.7214 23.5469 19.9557 23.7448 20.2266 23.8906C20.5026 24.0312 20.8073 24.1016 21.1406 24.1016C21.4635 24.1016 21.7578 24.0417 22.0234 23.9219C22.2891 23.7969 22.5156 23.625 22.7031 23.4062C22.8906 23.1875 23.0365 22.9271 23.1406 22.625C23.2448 22.3177 23.2969 21.9792 23.2969 21.6094ZM25.9531 21.875C25.9531 21.5781 26 21.2812 26.0938 20.9844C26.1875 20.6823 26.3203 20.401 26.4922 20.1406C26.6693 19.8802 26.8854 19.6432 27.1406 19.4297C27.401 19.2161 27.6953 19.0469 28.0234 18.9219C27.5391 18.651 27.1536 18.3047 26.8672 17.8828C26.5807 17.4557 26.4375 16.9844 26.4375 16.4688C26.4375 16.0573 26.5156 15.6771 26.6719 15.3281C26.8333 14.9792 27.0547 14.6771 27.3359 14.4219C27.6172 14.1667 27.9505 13.9688 28.3359 13.8281C28.7214 13.6823 29.138 13.6094 29.5859 13.6094C30.0391 13.6094 30.4583 13.6823 30.8438 13.8281C31.2292 13.974 31.5625 14.1745 31.8438 14.4297C32.125 14.6849 32.3438 14.987 32.5 15.3359C32.6562 15.6849 32.7344 16.0625 32.7344 16.4688C32.7344 16.9844 32.5911 17.4557 32.3047 17.8828C32.0182 18.3047 31.638 18.651 31.1641 18.9219C31.487 19.0469 31.776 19.2161 32.0312 19.4297C32.2865 19.6432 32.5 19.8802 32.6719 20.1406C32.849 20.401 32.9844 20.6823 33.0781 20.9844C33.1719 21.2812 33.2188 21.5781 33.2188 21.875C33.2188 22.3646 33.1302 22.8125 32.9531 23.2188C32.776 23.625 32.526 23.974 32.2031 24.2656C31.8854 24.5521 31.5026 24.776 31.0547 24.9375C30.612 25.099 30.1224 25.1797 29.5859 25.1797C29.0547 25.1797 28.5677 25.099 28.125 24.9375C27.6823 24.776 27.2995 24.5521 26.9766 24.2656C26.6536 23.974 26.401 23.625 26.2188 23.2188C26.0417 22.8125 25.9531 22.3646 25.9531 21.875ZM27.3438 21.7656C27.3438 22.1146 27.3958 22.4297 27.5 22.7109C27.6094 22.9922 27.7604 23.2318 27.9531 23.4297C28.151 23.6276 28.388 23.7812 28.6641 23.8906C28.9453 23.9948 29.2552 24.0469 29.5938 24.0469C29.9219 24.0469 30.224 23.9922 30.5 23.8828C30.776 23.7734 31.013 23.6198 31.2109 23.4219C31.4141 23.224 31.5703 22.9844 31.6797 22.7031C31.7943 22.4219 31.8516 22.1094 31.8516 21.7656C31.8516 21.4531 31.7969 21.1615 31.6875 20.8906C31.5833 20.6146 31.4323 20.3724 31.2344 20.1641C31.0365 19.9557 30.7995 19.7917 30.5234 19.6719C30.2474 19.5521 29.9375 19.4922 29.5938 19.4922C29.2708 19.4922 28.9714 19.5495 28.6953 19.6641C28.4245 19.7734 28.1875 19.9297 27.9844 20.1328C27.7865 20.3307 27.6302 20.5703 27.5156 20.8516C27.401 21.1276 27.3438 21.4323 27.3438 21.7656ZM27.7422 16.5703C27.7422 16.8359 27.7891 17.0833 27.8828 17.3125C27.9818 17.5365 28.1146 17.7344 28.2812 17.9062C28.4531 18.0729 28.651 18.2057 28.875 18.3047C29.099 18.3984 29.3385 18.4453 29.5938 18.4453C29.849 18.4453 30.0885 18.3958 30.3125 18.2969C30.5417 18.1979 30.7396 18.0651 30.9062 17.8984C31.0729 17.7266 31.2057 17.5286 31.3047 17.3047C31.4036 17.0755 31.4531 16.8307 31.4531 16.5703C31.4531 16.2995 31.4036 16.0495 31.3047 15.8203C31.2109 15.5911 31.0807 15.3932 30.9141 15.2266C30.7474 15.0599 30.5495 14.9297 30.3203 14.8359C30.0964 14.737 29.8542 14.6875 29.5938 14.6875C29.3177 14.6875 29.0651 14.737 28.8359 14.8359C28.612 14.9349 28.4167 15.0703 28.25 15.2422C28.0885 15.4089 27.9635 15.6068 27.875 15.8359C27.7865 16.0651 27.7422 16.3099 27.7422 16.5703ZM36.4844 23.8438H36.4531V28.6797H35.1719V17H36.4531V18.4062H36.4844C37.1146 17.3438 38.0365 16.8125 39.25 16.8125C40.2812 16.8125 41.0859 17.1719 41.6641 17.8906C42.2422 18.6042 42.5312 19.5625 42.5312 20.7656C42.5312 22.1042 42.2057 23.1771 41.5547 23.9844C40.9036 24.7865 40.013 25.1875 38.8828 25.1875C37.8464 25.1875 37.0469 24.7396 36.4844 23.8438ZM36.4531 20.6172V21.7344C36.4531 22.3958 36.6667 22.9583 37.0938 23.4219C37.526 23.8802 38.0729 24.1094 38.7344 24.1094C39.5104 24.1094 40.1172 23.8125 40.5547 23.2188C40.9974 22.625 41.2188 21.7995 41.2188 20.7422C41.2188 19.8516 41.013 19.1536 40.6016 18.6484C40.1901 18.1432 39.6328 17.8906 38.9297 17.8906C38.1849 17.8906 37.5859 18.151 37.1328 18.6719C36.6797 19.1875 36.4531 19.8359 36.4531 20.6172ZM50.4219 17L47.7344 21.0469L50.375 25H48.8828L47.3125 22.4062C47.2135 22.2448 47.0964 22.0417 46.9609 21.7969H46.9297C46.9036 21.8438 46.7812 22.0469 46.5625 22.4062L44.9609 25H43.4844L46.2109 21.0781L43.6016 17H45.0938L46.6406 19.7344C46.7552 19.9375 46.8672 20.1458 46.9766 20.3594H47.0078L49.0078 17H50.4219ZM61.1094 16.375L58.9688 16.8125L60.4531 18.7109L59.5938 19.3047L58.375 17.2344L57.1406 19.3047L56.2812 18.7109L57.7656 16.8125L55.6094 16.375L55.9609 15.3984L58.0078 16.1719L57.8281 13.7969H58.9062L58.7266 16.1719L60.7812 15.3984L61.1094 16.375ZM72.1094 16.7344C72.1094 16.3906 72.0547 16.0911 71.9453 15.8359C71.8411 15.5807 71.6953 15.3698 71.5078 15.2031C71.3255 15.0312 71.1094 14.9036 70.8594 14.8203C70.6094 14.737 70.3385 14.6953 70.0469 14.6953C69.7969 14.6953 69.5521 14.7292 69.3125 14.7969C69.0729 14.8646 68.8385 14.9583 68.6094 15.0781C68.3854 15.1979 68.1667 15.3411 67.9531 15.5078C67.7448 15.6745 67.5495 15.8594 67.3672 16.0625V14.6875C67.7266 14.3385 68.1276 14.0729 68.5703 13.8906C69.0182 13.7031 69.5625 13.6094 70.2031 13.6094C70.6615 13.6094 71.0859 13.6771 71.4766 13.8125C71.8672 13.9427 72.2057 14.1354 72.4922 14.3906C72.7786 14.6458 73.0026 14.9609 73.1641 15.3359C73.3307 15.7109 73.4141 16.1406 73.4141 16.625C73.4141 17.0677 73.362 17.4688 73.2578 17.8281C73.1589 18.1875 73.0052 18.526 72.7969 18.8438C72.5938 19.1615 72.3359 19.4661 72.0234 19.7578C71.7109 20.0495 71.3438 20.3464 70.9219 20.6484C70.3958 21.0234 69.9609 21.3438 69.6172 21.6094C69.2786 21.875 69.0078 22.125 68.8047 22.3594C68.6068 22.5885 68.4661 22.8203 68.3828 23.0547C68.3047 23.2839 68.2656 23.5495 68.2656 23.8516H73.8438V25H66.9297V24.4453C66.9297 23.9661 66.9818 23.5443 67.0859 23.1797C67.1901 22.8151 67.362 22.4688 67.6016 22.1406C67.8411 21.8125 68.1536 21.4844 68.5391 21.1562C68.9297 20.8281 69.4062 20.4583 69.9688 20.0469C70.375 19.7552 70.7135 19.4766 70.9844 19.2109C71.2604 18.9453 71.4818 18.6797 71.6484 18.4141C71.8151 18.1484 71.9323 17.8802 72 17.6094C72.0729 17.3333 72.1094 17.0417 72.1094 16.7344ZM82.5938 14.5391C82.4219 14.8359 82.2135 15.2057 81.9688 15.6484C81.7292 16.0911 81.474 16.5885 81.2031 17.1406C80.9323 17.6927 80.6562 18.2865 80.375 18.9219C80.0938 19.5573 79.8307 20.2135 79.5859 20.8906C79.3411 21.5677 79.125 22.2552 78.9375 22.9531C78.7552 23.6458 78.6224 24.3281 78.5391 25H77.1641C77.2578 24.3333 77.401 23.6536 77.5938 22.9609C77.7917 22.263 78.013 21.5807 78.2578 20.9141C78.5078 20.2422 78.7708 19.5964 79.0469 18.9766C79.3229 18.3568 79.5911 17.7865 79.8516 17.2656C80.112 16.7448 80.349 16.2865 80.5625 15.8906C80.7812 15.4896 80.9557 15.1771 81.0859 14.9531H75.4688V13.7969H82.5938V14.5391ZM89.3594 16.7344C89.3594 16.3906 89.3047 16.0911 89.1953 15.8359C89.0911 15.5807 88.9453 15.3698 88.7578 15.2031C88.5755 15.0312 88.3594 14.9036 88.1094 14.8203C87.8594 14.737 87.5885 14.6953 87.2969 14.6953C87.0469 14.6953 86.8021 14.7292 86.5625 14.7969C86.3229 14.8646 86.0885 14.9583 85.8594 15.0781C85.6354 15.1979 85.4167 15.3411 85.2031 15.5078C84.9948 15.6745 84.7995 15.8594 84.6172 16.0625V14.6875C84.9766 14.3385 85.3776 14.0729 85.8203 13.8906C86.2682 13.7031 86.8125 13.6094 87.4531 13.6094C87.9115 13.6094 88.3359 13.6771 88.7266 13.8125C89.1172 13.9427 89.4557 14.1354 89.7422 14.3906C90.0286 14.6458 90.2526 14.9609 90.4141 15.3359C90.5807 15.7109 90.6641 16.1406 90.6641 16.625C90.6641 17.0677 90.612 17.4688 90.5078 17.8281C90.4089 18.1875 90.2552 18.526 90.0469 18.8438C89.8438 19.1615 89.5859 19.4661 89.2734 19.7578C88.9609 20.0495 88.5938 20.3464 88.1719 20.6484C87.6458 21.0234 87.2109 21.3438 86.8672 21.6094C86.5286 21.875 86.2578 22.125 86.0547 22.3594C85.8568 22.5885 85.7161 22.8203 85.6328 23.0547C85.5547 23.2839 85.5156 23.5495 85.5156 23.8516H91.0938V25H84.1797V24.4453C84.1797 23.9661 84.2318 23.5443 84.3359 23.1797C84.4401 22.8151 84.612 22.4688 84.8516 22.1406C85.0911 21.8125 85.4036 21.4844 85.7891 21.1562C86.1797 20.8281 86.6562 20.4583 87.2188 20.0469C87.625 19.7552 87.9635 19.4766 88.2344 19.2109C88.5104 18.9453 88.7318 18.6797 88.8984 18.4141C89.0651 18.1484 89.1823 17.8802 89.25 17.6094C89.3229 17.3333 89.3594 17.0417 89.3594 16.7344ZM94.5625 23.8438H94.5312V28.6797H93.25V17H94.5312V18.4062H94.5625C95.1927 17.3438 96.1146 16.8125 97.3281 16.8125C98.3594 16.8125 99.1641 17.1719 99.7422 17.8906C100.32 18.6042 100.609 19.5625 100.609 20.7656C100.609 22.1042 100.284 23.1771 99.6328 23.9844C98.9818 24.7865 98.0911 25.1875 96.9609 25.1875C95.9245 25.1875 95.125 24.7396 94.5625 23.8438ZM94.5312 20.6172V21.7344C94.5312 22.3958 94.7448 22.9583 95.1719 23.4219C95.6042 23.8802 96.151 24.1094 96.8125 24.1094C97.5885 24.1094 98.1953 23.8125 98.6328 23.2188C99.0755 22.625 99.2969 21.7995 99.2969 20.7422C99.2969 19.8516 99.0911 19.1536 98.6797 18.6484C98.2682 18.1432 97.7109 17.8906 97.0078 17.8906C96.263 17.8906 95.6641 18.151 95.2109 18.6719C94.7578 19.1875 94.5312 19.8359 94.5312 20.6172ZM108.5 17L105.812 21.0469L108.453 25H106.961L105.391 22.4062C105.292 22.2448 105.174 22.0417 105.039 21.7969H105.008C104.982 21.8438 104.859 22.0469 104.641 22.4062L103.039 25H101.562L104.289 21.0781L101.68 17H103.172L104.719 19.7344C104.833 19.9375 104.945 20.1458 105.055 20.3594H105.086L107.086 17H108.5Z" fill="#7B61FF"/>
<path d="M0 0V-0.5H-0.5V0H0ZM720 0H720.5V-0.5H720V0ZM720 272V272.5H720.5V272H720ZM0 272H-0.5V272.5H0V272ZM-0.5 0V2.51852H0.5V0H-0.5ZM-0.5 7.55556V12.5926H0.5V7.55556H-0.5ZM-0.5 17.6296V22.6667H0.5V17.6296H-0.5ZM-0.5 27.7037V32.7407H0.5V27.7037H-0.5ZM-0.5 37.7778V42.8148H0.5V37.7778H-0.5ZM-0.5 47.8518V52.8889H0.5V47.8518H-0.5ZM-0.5 57.9259V62.963H0.5V57.9259H-0.5ZM-0.5 68V73.037H0.5V68H-0.5ZM-0.5 78.0741V83.1111H0.5V78.0741H-0.5ZM-0.5 88.1481V93.1852H0.5V88.1481H-0.5ZM-0.5 98.2222V103.259H0.5V98.2222H-0.5ZM-0.5 108.296V113.333H0.5V108.296H-0.5ZM-0.5 118.37V123.407H0.5V118.37H-0.5ZM-0.5 128.444V133.481H0.5V128.444H-0.5ZM-0.5 138.518V143.555H0.5V138.518H-0.5ZM-0.5 148.593V153.63H0.5V148.593H-0.5ZM-0.5 158.667V163.704H0.5V158.667H-0.5ZM-0.5 168.741V173.778H0.5V168.741H-0.5ZM-0.5 178.815V183.852H0.5V178.815H-0.5ZM-0.5 188.889V193.926H0.5V188.889H-0.5ZM-0.5 198.963V204H0.5V198.963H-0.5ZM-0.5 209.037V214.074H0.5V209.037H-0.5ZM-0.5 219.111V224.148H0.5V219.111H-0.5ZM-0.5 229.185V234.222H0.5V229.185H-0.5ZM-0.5 239.259V244.296H0.5V239.259H-0.5ZM-0.5 249.333V254.37H0.5V249.333H-0.5ZM-0.5 259.407V264.444H0.5V259.407H-0.5ZM-0.5 269.481V272H0.5V269.481H-0.5ZM0 272.5H2.5V271.5H0V272.5ZM7.5 272.5H12.5V271.5H7.5V272.5ZM17.5 272.5H22.5V271.5H17.5V272.5ZM27.5 272.5H32.5V271.5H27.5V272.5ZM37.5 272.5H42.5V271.5H37.5V272.5ZM47.5 272.5H52.5V271.5H47.5V272.5ZM57.5 272.5H62.5V271.5H57.5V272.5ZM67.5 272.5H72.5V271.5H67.5V272.5ZM77.5 272.5H82.5V271.5H77.5V272.5ZM87.5 272.5H92.5V271.5H87.5V272.5ZM97.5 272.5H102.5V271.5H97.5V272.5ZM107.5 272.5H112.5V271.5H107.5V272.5ZM117.5 272.5H122.5V271.5H117.5V272.5ZM127.5 272.5H132.5V271.5H127.5V272.5ZM137.5 272.5H142.5V271.5H137.5V272.5ZM147.5 272.5H152.5V271.5H147.5V272.5ZM157.5 272.5H162.5V271.5H157.5V272.5ZM167.5 272.5H172.5V271.5H167.5V272.5ZM177.5 272.5H182.5V271.5H177.5V272.5ZM187.5 272.5H192.5V271.5H187.5V272.5ZM197.5 272.5H202.5V271.5H197.5V272.5ZM207.5 272.5H212.5V271.5H207.5V272.5ZM217.5 272.5H222.5V271.5H217.5V272.5ZM227.5 272.5H232.5V271.5H227.5V272.5ZM237.5 272.5H242.5V271.5H237.5V272.5ZM247.5 272.5H252.5V271.5H247.5V272.5ZM257.5 272.5H262.5V271.5H257.5V272.5ZM267.5 272.5H272.5V271.5H267.5V272.5ZM277.5 272.5H282.5V271.5H277.5V272.5ZM287.5 272.5H292.5V271.5H287.5V272.5ZM297.5 272.5H302.5V271.5H297.5V272.5ZM307.5 272.5H312.5V271.5H307.5V272.5ZM317.5 272.5H322.5V271.5H317.5V272.5ZM327.5 272.5H332.5V271.5H327.5V272.5ZM337.5 272.5H342.5V271.5H337.5V272.5ZM347.5 272.5H352.5V271.5H347.5V272.5ZM357.5 272.5H362.5V271.5H357.5V272.5ZM367.5 272.5H372.5V271.5H367.5V272.5ZM377.5 272.5H382.5V271.5H377.5V272.5ZM387.5 272.5H392.5V271.5H387.5V272.5ZM397.5 272.5H402.5V271.5H397.5V272.5ZM407.5 272.5H412.5V271.5H407.5V272.5ZM417.5 272.5H422.5V271.5H417.5V272.5ZM427.5 272.5H432.5V271.5H427.5V272.5ZM437.5 272.5H442.5V271.5H437.5V272.5ZM447.5 272.5H452.5V271.5H447.5V272.5ZM457.5 272.5H462.5V271.5H457.5V272.5ZM467.5 272.5H472.5V271.5H467.5V272.5ZM477.5 272.5H482.5V271.5H477.5V272.5ZM487.5 272.5H492.5V271.5H487.5V272.5ZM497.5 272.5H502.5V271.5H497.5V272.5ZM507.5 272.5H512.5V271.5H507.5V272.5ZM517.5 272.5H522.5V271.5H517.5V272.5ZM527.5 272.5H532.5V271.5H527.5V272.5ZM537.5 272.5H542.5V271.5H537.5V272.5ZM547.5 272.5H552.5V271.5H547.5V272.5ZM557.5 272.5H562.5V271.5H557.5V272.5ZM567.5 272.5H572.5V271.5H567.5V272.5ZM577.5 272.5H582.5V271.5H577.5V272.5ZM587.5 272.5H592.5V271.5H587.5V272.5ZM597.5 272.5H602.5V271.5H597.5V272.5ZM607.5 272.5H612.5V271.5H607.5V272.5ZM617.5 272.5H622.5V271.5H617.5V272.5ZM627.5 272.5H632.5V271.5H627.5V272.5ZM637.5 272.5H642.5V271.5H637.5V272.5ZM647.5 272.5H652.5V271.5H647.5V272.5ZM657.5 272.5H662.5V271.5H657.5V272.5ZM667.5 272.5H672.5V271.5H667.5V272.5ZM677.5 272.5H682.5V271.5H677.5V272.5ZM687.5 272.5H692.5V271.5H687.5V272.5ZM697.5 272.5H702.5V271.5H697.5V272.5ZM707.5 272.5H712.5V271.5H707.5V272.5ZM717.5 272.5H720V271.5H717.5V272.5ZM720.5 272V269.481H719.5V272H720.5ZM720.5 264.444V259.407H719.5V264.444H720.5ZM720.5 254.37V249.333H719.5V254.37H720.5ZM720.5 244.296V239.259H719.5V244.296H720.5ZM720.5 234.222V229.185H719.5V234.222H720.5ZM720.5 224.148V219.111H719.5V224.148H720.5ZM720.5 214.074V209.037H719.5V214.074H720.5ZM720.5 204V198.963H719.5V204H720.5ZM720.5 193.926V188.889H719.5V193.926H720.5ZM720.5 183.852V178.815H719.5V183.852H720.5ZM720.5 173.778V168.741H719.5V173.778H720.5ZM720.5 163.704V158.667H719.5V163.704H720.5ZM720.5 153.63V148.593H719.5V153.63H720.5ZM720.5 143.556V138.519H719.5V143.556H720.5ZM720.5 133.482V128.445H719.5V133.482H720.5ZM720.5 123.407V118.37H719.5V123.407H720.5ZM720.5 113.333V108.296H719.5V113.333H720.5ZM720.5 103.259V98.2223H719.5V103.259H720.5ZM720.5 93.1853V88.1482H719.5V93.1853H720.5ZM720.5 83.1112V78.0742H719.5V83.1112H720.5ZM720.5 73.0371V68.0001H719.5V73.0371H720.5ZM720.5 62.9631V57.926H719.5V62.9631H720.5ZM720.5 52.889V47.852H719.5V52.889H720.5ZM720.5 42.8149V37.7779H719.5V42.8149H720.5ZM720.5 32.7409V27.7038H719.5V32.7409H720.5ZM720.5 22.6668V17.6298H719.5V22.6668H720.5ZM720.5 12.5927V7.55569H719.5V12.5927H720.5ZM720.5 2.51864V0H719.5V2.51864H720.5ZM720 -0.5H717.5V0.5H720V-0.5ZM712.5 -0.5H707.5V0.5H712.5V-0.5ZM702.5 -0.5H697.5V0.5H702.5V-0.5ZM692.5 -0.5H687.5V0.5H692.5V-0.5ZM682.5 -0.5H677.5V0.5H682.5V-0.5ZM672.5 -0.5H667.5V0.5H672.5V-0.5ZM662.5 -0.5H657.5V0.5H662.5V-0.5ZM652.5 -0.5H647.5V0.5H652.5V-0.5ZM642.5 -0.5H637.5V0.5H642.5V-0.5ZM632.5 -0.5H627.5V0.5H632.5V-0.5ZM622.5 -0.5H617.5V0.5H622.5V-0.5ZM612.5 -0.5H607.5V0.5H612.5V-0.5ZM602.5 -0.5H597.5V0.5H602.5V-0.5ZM592.5 -0.5H587.5V0.5H592.5V-0.5ZM582.5 -0.5H577.5V0.5H582.5V-0.5ZM572.5 -0.5H567.5V0.5H572.5V-0.5ZM562.5 -0.5H557.5V0.5H562.5V-0.5ZM552.5 -0.5H547.5V0.5H552.5V-0.5ZM542.5 -0.5H537.5V0.5H542.5V-0.5ZM532.5 -0.5H527.5V0.5H532.5V-0.5ZM522.5 -0.5H517.5V0.5H522.5V-0.5ZM512.5 -0.5H507.5V0.5H512.5V-0.5ZM502.5 -0.5H497.5V0.5H502.5V-0.5ZM492.5 -0.5H487.5V0.5H492.5V-0.5ZM482.5 -0.5H477.5V0.5H482.5V-0.5ZM472.5 -0.5H467.5V0.5H472.5V-0.5ZM462.5 -0.5H457.5V0.5H462.5V-0.5ZM452.5 -0.5H447.5V0.5H452.5V-0.5ZM442.5 -0.5H437.5V0.5H442.5V-0.5ZM432.5 -0.5H427.5V0.5H432.5V-0.5ZM422.5 -0.5H417.5V0.5H422.5V-0.5ZM412.5 -0.5H407.5V0.5H412.5V-0.5ZM402.5 -0.5H397.5V0.5H402.5V-0.5ZM392.5 -0.5H387.5V0.5H392.5V-0.5ZM382.5 -0.5H377.5V0.5H382.5V-0.5ZM372.5 -0.5H367.5V0.5H372.5V-0.5ZM362.5 -0.5H357.5V0.5H362.5V-0.5ZM352.5 -0.5H347.5V0.5H352.5V-0.5ZM342.5 -0.5H337.5V0.5H342.5V-0.5ZM332.5 -0.5H327.5V0.5H332.5V-0.5ZM322.5 -0.5H317.5V0.5H322.5V-0.5ZM312.5 -0.5H307.5V0.5H312.5V-0.5ZM302.5 -0.5H297.5V0.5H302.5V-0.5ZM292.5 -0.5H287.5V0.5H292.5V-0.5ZM282.5 -0.5H277.5V0.5H282.5V-0.5ZM272.5 -0.5H267.5V0.5H272.5V-0.5ZM262.5 -0.5H257.5V0.5H262.5V-0.5ZM252.5 -0.5H247.5V0.5H252.5V-0.5ZM242.5 -0.5H237.5V0.5H242.5V-0.5ZM232.5 -0.5H227.5V0.5H232.5V-0.5ZM222.5 -0.5H217.5V0.5H222.5V-0.5ZM212.5 -0.5H207.5V0.5H212.5V-0.5ZM202.5 -0.5H197.5V0.5H202.5V-0.5ZM192.5 -0.5H187.5V0.5H192.5V-0.5ZM182.5 -0.5H177.5V0.5H182.5V-0.5ZM172.5 -0.5H167.5V0.5H172.5V-0.5ZM162.5 -0.5H157.5V0.5H162.5V-0.5ZM152.5 -0.5H147.5V0.5H152.5V-0.5ZM142.5 -0.5H137.5V0.5H142.5V-0.5ZM132.5 -0.5H127.5V0.5H132.5V-0.5ZM122.5 -0.5H117.5V0.5H122.5V-0.5ZM112.5 -0.5H107.5V0.5H112.5V-0.5ZM102.5 -0.5H97.5V0.5H102.5V-0.5ZM92.5 -0.5H87.5V0.5H92.5V-0.5ZM82.5 -0.5H77.5V0.5H82.5V-0.5ZM72.5 -0.5H67.5V0.5H72.5V-0.5ZM62.5 -0.5H57.5V0.5H62.5V-0.5ZM52.5 -0.5H47.5V0.5H52.5V-0.5ZM42.5 -0.5H37.5V0.5H42.5V-0.5ZM32.5 -0.5H27.5V0.5H32.5V-0.5ZM22.5 -0.5H17.5V0.5H22.5V-0.5ZM12.5 -0.5H7.50001V0.5H12.5V-0.5ZM2.49999 -0.5H0V0.5H2.49999V-0.5ZM0 0V-1H-1V0H0ZM720 0H721V-1H720V0ZM720 272V273H721V272H720ZM0 272H-1V273H0V272ZM-1 0V2.51852H1V0H-1ZM-1 7.55556V12.5926H1V7.55556H-1ZM-1 17.6296V22.6667H1V17.6296H-1ZM-1 27.7037V32.7407H1V27.7037H-1ZM-1 37.7778V42.8148H1V37.7778H-1ZM-1 47.8518V52.8889H1V47.8518H-1ZM-1 57.9259V62.963H1V57.9259H-1ZM-1 68V73.037H1V68H-1ZM-1 78.0741V83.1111H1V78.0741H-1ZM-1 88.1481V93.1852H1V88.1481H-1ZM-1 98.2222V103.259H1V98.2222H-1ZM-1 108.296V113.333H1V108.296H-1ZM-1 118.37V123.407H1V118.37H-1ZM-1 128.444V133.481H1V128.444H-1ZM-1 138.518V143.555H1V138.518H-1ZM-1 148.593V153.63H1V148.593H-1ZM-1 158.667V163.704H1V158.667H-1ZM-1 168.741V173.778H1V168.741H-1ZM-1 178.815V183.852H1V178.815H-1ZM-1 188.889V193.926H1V188.889H-1ZM-1 198.963V204H1V198.963H-1ZM-1 209.037V214.074H1V209.037H-1ZM-1 219.111V224.148H1V219.111H-1ZM-1 229.185V234.222H1V229.185H-1ZM-1 239.259V244.296H1V239.259H-1ZM-1 249.333V254.37H1V249.333H-1ZM-1 259.407V264.444H1V259.407H-1ZM-1 269.481V272H1V269.481H-1ZM0 273H2.5V271H0V273ZM7.5 273H12.5V271H7.5V273ZM17.5 273H22.5V271H17.5V273ZM27.5 273H32.5V271H27.5V273ZM37.5 273H42.5V271H37.5V273ZM47.5 273H52.5V271H47.5V273ZM57.5 273H62.5V271H57.5V273ZM67.5 273H72.5V271H67.5V273ZM77.5 273H82.5V271H77.5V273ZM87.5 273H92.5V271H87.5V273ZM97.5 273H102.5V271H97.5V273ZM107.5 273H112.5V271H107.5V273ZM117.5 273H122.5V271H117.5V273ZM127.5 273H132.5V271H127.5V273ZM137.5 273H142.5V271H137.5V273ZM147.5 273H152.5V271H147.5V273ZM157.5 273H162.5V271H157.5V273ZM167.5 273H172.5V271H167.5V273ZM177.5 273H182.5V271H177.5V273ZM187.5 273H192.5V271H187.5V273ZM197.5 273H202.5V271H197.5V273ZM207.5 273H212.5V271H207.5V273ZM217.5 273H222.5V271H217.5V273ZM227.5 273H232.5V271H227.5V273ZM237.5 273H242.5V271H237.5V273ZM247.5 273H252.5V271H247.5V273ZM257.5 273H262.5V271H257.5V273ZM267.5 273H272.5V271H267.5V273ZM277.5 273H282.5V271H277.5V273ZM287.5 273H292.5V271H287.5V273ZM297.5 273H302.5V271H297.5V273ZM307.5 273H312.5V271H307.5V273ZM317.5 273H322.5V271H317.5V273ZM327.5 273H332.5V271H327.5V273ZM337.5 273H342.5V271H337.5V273ZM347.5 273H352.5V271H347.5V273ZM357.5 273H362.5V271H357.5V273ZM367.5 273H372.5V271H367.5V273ZM377.5 273H382.5V271H377.5V273ZM387.5 273H392.5V271H387.5V273ZM397.5 273H402.5V271H397.5V273ZM407.5 273H412.5V271H407.5V273ZM417.5 273H422.5V271H417.5V273ZM427.5 273H432.5V271H427.5V273ZM437.5 273H442.5V271H437.5V273ZM447.5 273H452.5V271H447.5V273ZM457.5 273H462.5V271H457.5V273ZM467.5 273H472.5V271H467.5V273ZM477.5 273H482.5V271H477.5V273ZM487.5 273H492.5V271H487.5V273ZM497.5 273H502.5V271H497.5V273ZM507.5 273H512.5V271H507.5V273ZM517.5 273H522.5V271H517.5V273ZM527.5 273H532.5V271H527.5V273ZM537.5 273H542.5V271H537.5V273ZM547.5 273H552.5V271H547.5V273ZM557.5 273H562.5V271H557.5V273ZM567.5 273H572.5V271H567.5V273ZM577.5 273H582.5V271H577.5V273ZM587.5 273H592.5V271H587.5V273ZM597.5 273H602.5V271H597.5V273ZM607.5 273H612.5V271H607.5V273ZM617.5 273H622.5V271H617.5V273ZM627.5 273H632.5V271H627.5V273ZM637.5 273H642.5V271H637.5V273ZM647.5 273H652.5V271H647.5V273ZM657.5 273H662.5V271H657.5V273ZM667.5 273H672.5V271H667.5V273ZM677.5 273H682.5V271H677.5V273ZM687.5 273H692.5V271H687.5V273ZM697.5 273H702.5V271H697.5V273ZM707.5 273H712.5V271H707.5V273ZM717.5 273H720V271H717.5V273ZM721 272V269.481H719V272H721ZM721 264.444V259.407H719V264.444H721ZM721 254.37V249.333H719V254.37H721ZM721 244.296V239.259H719V244.296H721ZM721 234.222V229.185H719V234.222H721ZM721 224.148V219.111H719V224.148H721ZM721 214.074V209.037H719V214.074H721ZM721 204V198.963H719V204H721ZM721 193.926V188.889H719V193.926H721ZM721 183.852V178.815H719V183.852H721ZM721 173.778V168.741H719V173.778H721ZM721 163.704V158.667H719V163.704H721ZM721 153.63V148.593H719V153.63H721ZM721 143.556V138.519H719V143.556H721ZM721 133.482V128.445H719V133.482H721ZM721 123.407V118.37H719V123.407H721ZM721 113.333V108.296H719V113.333H721ZM721 103.259V98.2223H719V103.259H721ZM721 93.1853V88.1482H719V93.1853H721ZM721 83.1112V78.0742H719V83.1112H721ZM721 73.0371V68.0001H719V73.0371H721ZM721 62.9631V57.926H719V62.9631H721ZM721 52.889V47.852H719V52.889H721ZM721 42.8149V37.7779H719V42.8149H721ZM721 32.7409V27.7038H719V32.7409H721ZM721 22.6668V17.6298H719V22.6668H721ZM721 12.5927V7.55569H719V12.5927H721ZM721 2.51864V0H719V2.51864H721ZM720 -1H717.5V1H720V-1ZM712.5 -1H707.5V1H712.5V-1ZM702.5 -1H697.5V1H702.5V-1ZM692.5 -1H687.5V1H692.5V-1ZM682.5 -1H677.5V1H682.5V-1ZM672.5 -1H667.5V1H672.5V-1ZM662.5 -1H657.5V1H662.5V-1ZM652.5 -1H647.5V1H652.5V-1ZM642.5 -1H637.5V1H642.5V-1ZM632.5 -1H627.5V1H632.5V-1ZM622.5 -1H617.5V1H622.5V-1ZM612.5 -1H607.5V1H612.5V-1ZM602.5 -1H597.5V1H602.5V-1ZM592.5 -1H587.5V1H592.5V-1ZM582.5 -1H577.5V1H582.5V-1ZM572.5 -1H567.5V1H572.5V-1ZM562.5 -1H557.5V1H562.5V-1ZM552.5 -1H547.5V1H552.5V-1ZM542.5 -1H537.5V1H542.5V-1ZM532.5 -1H527.5V1H532.5V-1ZM522.5 -1H517.5V1H522.5V-1ZM512.5 -1H507.5V1H512.5V-1ZM502.5 -1H497.5V1H502.5V-1ZM492.5 -1H487.5V1H492.5V-1ZM482.5 -1H477.5V1H482.5V-1ZM472.5 -1H467.5V1H472.5V-1ZM462.5 -1H457.5V1H462.5V-1ZM452.5 -1H447.5V1H452.5V-1ZM442.5 -1H437.5V1H442.5V-1ZM432.5 -1H427.5V1H432.5V-1ZM422.5 -1H417.5V1H422.5V-1ZM412.5 -1H407.5V1H412.5V-1ZM402.5 -1H397.5V1H402.5V-1ZM392.5 -1H387.5V1H392.5V-1ZM382.5 -1H377.5V1H382.5V-1ZM372.5 -1H367.5V1H372.5V-1ZM362.5 -1H357.5V1H362.5V-1ZM352.5 -1H347.5V1H352.5V-1ZM342.5 -1H337.5V1H342.5V-1ZM332.5 -1H327.5V1H332.5V-1ZM322.5 -1H317.5V1H322.5V-1ZM312.5 -1H307.5V1H312.5V-1ZM302.5 -1H297.5V1H302.5V-1ZM292.5 -1H287.5V1H292.5V-1ZM282.5 -1H277.5V1H282.5V-1ZM272.5 -1H267.5V1H272.5V-1ZM262.5 -1H257.5V1H262.5V-1ZM252.5 -1H247.5V1H252.5V-1ZM242.5 -1H237.5V1H242.5V-1ZM232.5 -1H227.5V1H232.5V-1ZM222.5 -1H217.5V1H222.5V-1ZM212.5 -1H207.5V1H212.5V-1ZM202.5 -1H197.5V1H202.5V-1ZM192.5 -1H187.5V1H192.5V-1ZM182.5 -1H177.5V1H182.5V-1ZM172.5 -1H167.5V1H172.5V-1ZM162.5 -1H157.5V1H162.5V-1ZM152.5 -1H147.5V1H152.5V-1ZM142.5 -1H137.5V1H142.5V-1ZM132.5 -1H127.5V1H132.5V-1ZM122.5 -1H117.5V1H122.5V-1ZM112.5 -1H107.5V1H112.5V-1ZM102.5 -1H97.5V1H102.5V-1ZM92.5 -1H87.5V1H92.5V-1ZM82.5 -1H77.5V1H82.5V-1ZM72.5 -1H67.5V1H72.5V-1ZM62.5 -1H57.5V1H62.5V-1ZM52.5 -1H47.5V1H52.5V-1ZM42.5 -1H37.5V1H42.5V-1ZM32.5 -1H27.5V1H32.5V-1ZM22.5 -1H17.5V1H22.5V-1ZM12.5 -1H7.50001V1H12.5V-1ZM2.49999 -1H0V1H2.49999V-1Z" fill="black"/>
</svg>
