<svg width="720" height="256" viewBox="0 0 720 256" fill="none" xmlns="http://www.w3.org/2000/svg">
<path d="M0 0H720V256H0V0Z" fill="#D9BCF2"/>
<rect x="0.5" y="0.5" width="83" height="71" fill="white"/>
<path d="M27.2168 43H25.7402V30.3965H27.2168V43ZM34.5205 42.9121C34.1807 43.0996 33.7324 43.1934 33.1758 43.1934C31.5996 43.1934 30.8115 42.3145 30.8115 40.5566V35.2305H29.2646V34H30.8115V31.8027L32.2529 31.3369V34H34.5205V35.2305H32.2529V40.3018C32.2529 40.9053 32.3555 41.3359 32.5605 41.5938C32.7656 41.8516 33.1055 41.9805 33.5801 41.9805C33.9434 41.9805 34.2568 41.8809 34.5205 41.6816V42.9121ZM43.6787 38.8604H37.3242C37.3477 39.8623 37.6172 40.6357 38.1328 41.1807C38.6484 41.7256 39.3574 41.998 40.2598 41.998C41.2734 41.998 42.2051 41.6641 43.0547 40.9961V42.3496C42.2637 42.9238 41.2178 43.2109 39.917 43.2109C38.6455 43.2109 37.6465 42.8037 36.9199 41.9893C36.1934 41.1689 35.8301 40.0176 35.8301 38.5352C35.8301 37.1348 36.2256 35.9951 37.0166 35.1162C37.8135 34.2314 38.8008 33.7891 39.9785 33.7891C41.1562 33.7891 42.0674 34.1699 42.7119 34.9316C43.3564 35.6934 43.6787 36.751 43.6787 38.1045V38.8604ZM42.2021 37.6387C42.1963 36.8066 41.9941 36.1592 41.5957 35.6963C41.2031 35.2334 40.6553 35.002 39.9521 35.002C39.2725 35.002 38.6953 35.2451 38.2207 35.7314C37.7461 36.2178 37.4531 36.8535 37.3418 37.6387H42.2021ZM58.6465 43H57.2051V37.832C57.2051 36.8359 57.0498 36.1152 56.7393 35.6699C56.4346 35.2246 55.9189 35.002 55.1924 35.002C54.5771 35.002 54.0527 35.2832 53.6191 35.8457C53.1914 36.4082 52.9775 37.082 52.9775 37.8672V43H51.5361V37.6562C51.5361 35.8867 50.8535 35.002 49.4883 35.002C48.8555 35.002 48.334 35.2686 47.9238 35.8018C47.5137 36.3291 47.3086 37.0176 47.3086 37.8672V43H45.8672V34H47.3086V35.4238H47.3438C47.9824 34.334 48.9141 33.7891 50.1387 33.7891C50.7539 33.7891 51.29 33.9619 51.7471 34.3076C52.2041 34.6475 52.5176 35.0957 52.6875 35.6523C53.3555 34.4102 54.3516 33.7891 55.6758 33.7891C57.6562 33.7891 58.6465 35.0107 58.6465 37.4541V43Z" fill="black"/>
<rect x="0.5" y="0.5" width="83" height="71" stroke="black" stroke-dasharray="5 5"/>
<g clip-path="url(#clip0_5_1177)">
<rect x="245.833" y="0.5" width="83" height="119" fill="white"/>
<path d="M272.55 67H271.074V54.3965H272.55V67ZM279.854 66.9121C279.514 67.0996 279.066 67.1934 278.509 67.1934C276.933 67.1934 276.145 66.3145 276.145 64.5566V59.2305H274.598V58H276.145V55.8027L277.586 55.3369V58H279.854V59.2305H277.586V64.3018C277.586 64.9053 277.689 65.3359 277.894 65.5938C278.099 65.8516 278.439 65.9805 278.914 65.9805C279.277 65.9805 279.59 65.8809 279.854 65.6816V66.9121ZM289.012 62.8604H282.658C282.681 63.8623 282.951 64.6357 283.466 65.1807C283.982 65.7256 284.691 65.998 285.593 65.998C286.607 65.998 287.539 65.6641 288.388 64.9961V66.3496C287.597 66.9238 286.551 67.2109 285.25 67.2109C283.979 67.2109 282.98 66.8037 282.253 65.9893C281.527 65.1689 281.164 64.0176 281.164 62.5352C281.164 61.1348 281.559 59.9951 282.35 59.1162C283.147 58.2314 284.134 57.7891 285.312 57.7891C286.49 57.7891 287.401 58.1699 288.045 58.9316C288.69 59.6934 289.012 60.751 289.012 62.1045V62.8604ZM287.536 61.6387C287.53 60.8066 287.328 60.1592 286.929 59.6963C286.537 59.2334 285.989 59.002 285.286 59.002C284.606 59.002 284.029 59.2451 283.554 59.7314C283.08 60.2178 282.787 60.8535 282.675 61.6387H287.536ZM303.98 67H302.539V61.832C302.539 60.8359 302.383 60.1152 302.073 59.6699C301.768 59.2246 301.252 59.002 300.526 59.002C299.911 59.002 299.386 59.2832 298.953 59.8457C298.525 60.4082 298.311 61.082 298.311 61.8672V67H296.87V61.6562C296.87 59.8867 296.187 59.002 294.822 59.002C294.189 59.002 293.667 59.2686 293.257 59.8018C292.847 60.3291 292.642 61.0176 292.642 61.8672V67H291.201V58H292.642V59.4238H292.677C293.316 58.334 294.248 57.7891 295.472 57.7891C296.087 57.7891 296.624 57.9619 297.081 58.3076C297.538 58.6475 297.851 59.0957 298.021 59.6523C298.689 58.4102 299.685 57.7891 301.009 57.7891C302.99 57.7891 303.98 59.0107 303.98 61.4541V67Z" fill="black"/>
<rect x="245.833" y="0.5" width="83" height="119" stroke="black" stroke-dasharray="5 5"/>
</g>
<g clip-path="url(#clip1_5_1177)">
<rect x="491.167" y="0.5" width="131" height="71" fill="white"/>
<path d="M541.883 43H540.407V30.3965H541.883V43ZM549.187 42.9121C548.847 43.0996 548.399 43.1934 547.842 43.1934C546.266 43.1934 545.478 42.3145 545.478 40.5566V35.2305H543.931V34H545.478V31.8027L546.919 31.3369V34H549.187V35.2305H546.919V40.3018C546.919 40.9053 547.022 41.3359 547.227 41.5938C547.432 41.8516 547.772 41.9805 548.247 41.9805C548.61 41.9805 548.923 41.8809 549.187 41.6816V42.9121ZM558.345 38.8604H551.991C552.014 39.8623 552.284 40.6357 552.799 41.1807C553.315 41.7256 554.024 41.998 554.926 41.998C555.94 41.998 556.872 41.6641 557.721 40.9961V42.3496C556.93 42.9238 555.884 43.2109 554.583 43.2109C553.312 43.2109 552.313 42.8037 551.586 41.9893C550.86 41.1689 550.497 40.0176 550.497 38.5352C550.497 37.1348 550.892 35.9951 551.683 35.1162C552.48 34.2314 553.467 33.7891 554.645 33.7891C555.823 33.7891 556.734 34.1699 557.378 34.9316C558.023 35.6934 558.345 36.751 558.345 38.1045V38.8604ZM556.869 37.6387C556.863 36.8066 556.661 36.1592 556.262 35.6963C555.87 35.2334 555.322 35.002 554.619 35.002C553.939 35.002 553.362 35.2451 552.887 35.7314C552.413 36.2178 552.12 36.8535 552.008 37.6387H556.869ZM573.313 43H571.872V37.832C571.872 36.8359 571.716 36.1152 571.406 35.6699C571.101 35.2246 570.585 35.002 569.859 35.002C569.244 35.002 568.719 35.2832 568.286 35.8457C567.858 36.4082 567.644 37.082 567.644 37.8672V43H566.203V37.6562C566.203 35.8867 565.52 35.002 564.155 35.002C563.522 35.002 563 35.2686 562.59 35.8018C562.18 36.3291 561.975 37.0176 561.975 37.8672V43H560.534V34H561.975V35.4238H562.01C562.649 34.334 563.581 33.7891 564.805 33.7891C565.42 33.7891 565.957 33.9619 566.414 34.3076C566.871 34.6475 567.184 35.0957 567.354 35.6523C568.022 34.4102 569.018 33.7891 570.342 33.7891C572.323 33.7891 573.313 35.0107 573.313 37.4541V43Z" fill="black"/>
<rect x="491.167" y="0.5" width="131" height="71" stroke="black" stroke-dasharray="5 5"/>
</g>
<rect x="0.5" y="136.5" width="83" height="71" fill="white"/>
<path d="M27.2168 179H25.7402V166.396H27.2168V179ZM34.5205 178.912C34.1807 179.1 33.7324 179.193 33.1758 179.193C31.5996 179.193 30.8115 178.314 30.8115 176.557V171.23H29.2646V170H30.8115V167.803L32.2529 167.337V170H34.5205V171.23H32.2529V176.302C32.2529 176.905 32.3555 177.336 32.5605 177.594C32.7656 177.852 33.1055 177.98 33.5801 177.98C33.9434 177.98 34.2568 177.881 34.5205 177.682V178.912ZM43.6787 174.86H37.3242C37.3477 175.862 37.6172 176.636 38.1328 177.181C38.6484 177.726 39.3574 177.998 40.2598 177.998C41.2734 177.998 42.2051 177.664 43.0547 176.996V178.35C42.2637 178.924 41.2178 179.211 39.917 179.211C38.6455 179.211 37.6465 178.804 36.9199 177.989C36.1934 177.169 35.8301 176.018 35.8301 174.535C35.8301 173.135 36.2256 171.995 37.0166 171.116C37.8135 170.231 38.8008 169.789 39.9785 169.789C41.1562 169.789 42.0674 170.17 42.7119 170.932C43.3564 171.693 43.6787 172.751 43.6787 174.104V174.86ZM42.2021 173.639C42.1963 172.807 41.9941 172.159 41.5957 171.696C41.2031 171.233 40.6553 171.002 39.9521 171.002C39.2725 171.002 38.6953 171.245 38.2207 171.731C37.7461 172.218 37.4531 172.854 37.3418 173.639H42.2021ZM58.6465 179H57.2051V173.832C57.2051 172.836 57.0498 172.115 56.7393 171.67C56.4346 171.225 55.9189 171.002 55.1924 171.002C54.5771 171.002 54.0527 171.283 53.6191 171.846C53.1914 172.408 52.9775 173.082 52.9775 173.867V179H51.5361V173.656C51.5361 171.887 50.8535 171.002 49.4883 171.002C48.8555 171.002 48.334 171.269 47.9238 171.802C47.5137 172.329 47.3086 173.018 47.3086 173.867V179H45.8672V170H47.3086V171.424H47.3438C47.9824 170.334 48.9141 169.789 50.1387 169.789C50.7539 169.789 51.29 169.962 51.7471 170.308C52.2041 170.647 52.5176 171.096 52.6875 171.652C53.3555 170.41 54.3516 169.789 55.6758 169.789C57.6562 169.789 58.6465 171.011 58.6465 173.454V179Z" fill="black"/>
<rect x="0.5" y="136.5" width="83" height="71" stroke="black" stroke-dasharray="5 5"/>
<g clip-path="url(#clip2_5_1177)">
<rect x="245.833" y="136.5" width="83" height="119" fill="white"/>
<path d="M272.55 203H271.074V190.396H272.55V203ZM279.854 202.912C279.514 203.1 279.066 203.193 278.509 203.193C276.933 203.193 276.145 202.314 276.145 200.557V195.23H274.598V194H276.145V191.803L277.586 191.337V194H279.854V195.23H277.586V200.302C277.586 200.905 277.689 201.336 277.894 201.594C278.099 201.852 278.439 201.98 278.914 201.98C279.277 201.98 279.59 201.881 279.854 201.682V202.912ZM289.012 198.86H282.658C282.681 199.862 282.951 200.636 283.466 201.181C283.982 201.726 284.691 201.998 285.593 201.998C286.607 201.998 287.539 201.664 288.388 200.996V202.35C287.597 202.924 286.551 203.211 285.25 203.211C283.979 203.211 282.98 202.804 282.253 201.989C281.527 201.169 281.164 200.018 281.164 198.535C281.164 197.135 281.559 195.995 282.35 195.116C283.147 194.231 284.134 193.789 285.312 193.789C286.49 193.789 287.401 194.17 288.045 194.932C288.69 195.693 289.012 196.751 289.012 198.104V198.86ZM287.536 197.639C287.53 196.807 287.328 196.159 286.929 195.696C286.537 195.233 285.989 195.002 285.286 195.002C284.606 195.002 284.029 195.245 283.554 195.731C283.08 196.218 282.787 196.854 282.675 197.639H287.536ZM303.98 203H302.539V197.832C302.539 196.836 302.383 196.115 302.073 195.67C301.768 195.225 301.252 195.002 300.526 195.002C299.911 195.002 299.386 195.283 298.953 195.846C298.525 196.408 298.311 197.082 298.311 197.867V203H296.87V197.656C296.87 195.887 296.187 195.002 294.822 195.002C294.189 195.002 293.667 195.269 293.257 195.802C292.847 196.329 292.642 197.018 292.642 197.867V203H291.201V194H292.642V195.424H292.677C293.316 194.334 294.248 193.789 295.472 193.789C296.087 193.789 296.624 193.962 297.081 194.308C297.538 194.647 297.851 195.096 298.021 195.652C298.689 194.41 299.685 193.789 301.009 193.789C302.99 193.789 303.98 195.011 303.98 197.454V203Z" fill="black"/>
<rect x="245.833" y="136.5" width="83" height="119" stroke="black" stroke-dasharray="5 5"/>
</g>
<g clip-path="url(#clip3_5_1177)">
<rect x="491.167" y="136.5" width="131" height="71" fill="white"/>
<path d="M541.883 179H540.407V166.396H541.883V179ZM549.187 178.912C548.847 179.1 548.399 179.193 547.842 179.193C546.266 179.193 545.478 178.314 545.478 176.557V171.23H543.931V170H545.478V167.803L546.919 167.337V170H549.187V171.23H546.919V176.302C546.919 176.905 547.022 177.336 547.227 177.594C547.432 177.852 547.772 177.98 548.247 177.98C548.61 177.98 548.923 177.881 549.187 177.682V178.912ZM558.345 174.86H551.991C552.014 175.862 552.284 176.636 552.799 177.181C553.315 177.726 554.024 177.998 554.926 177.998C555.94 177.998 556.872 177.664 557.721 176.996V178.35C556.93 178.924 555.884 179.211 554.583 179.211C553.312 179.211 552.313 178.804 551.586 177.989C550.86 177.169 550.497 176.018 550.497 174.535C550.497 173.135 550.892 171.995 551.683 171.116C552.48 170.231 553.467 169.789 554.645 169.789C555.823 169.789 556.734 170.17 557.378 170.932C558.023 171.693 558.345 172.751 558.345 174.104V174.86ZM556.869 173.639C556.863 172.807 556.661 172.159 556.262 171.696C555.87 171.233 555.322 171.002 554.619 171.002C553.939 171.002 553.362 171.245 552.887 171.731C552.413 172.218 552.12 172.854 552.008 173.639H556.869ZM573.313 179H571.872V173.832C571.872 172.836 571.716 172.115 571.406 171.67C571.101 171.225 570.585 171.002 569.859 171.002C569.244 171.002 568.719 171.283 568.286 171.846C567.858 172.408 567.644 173.082 567.644 173.867V179H566.203V173.656C566.203 171.887 565.52 171.002 564.155 171.002C563.522 171.002 563 171.269 562.59 171.802C562.18 172.329 561.975 173.018 561.975 173.867V179H560.534V170H561.975V171.424H562.01C562.649 170.334 563.581 169.789 564.805 169.789C565.42 169.789 565.957 169.962 566.414 170.308C566.871 170.647 567.184 171.096 567.354 171.652C568.022 170.41 569.018 169.789 570.342 169.789C572.323 169.789 573.313 171.011 573.313 173.454V179Z" fill="black"/>
<rect x="491.167" y="136.5" width="131" height="71" stroke="black" stroke-dasharray="5 5"/>
</g>
<path d="M0 0V-0.5H-0.5V0H0ZM720 0H720.5V-0.5H720V0ZM720 256V256.5H720.5V256H720ZM0 256H-0.5V256.5H0V256ZM-0.5 0V2.46154H0.5V0H-0.5ZM-0.5 7.38462V12.3077H0.5V7.38462H-0.5ZM-0.5 17.2308V22.1538H0.5V17.2308H-0.5ZM-0.5 27.0769V32H0.5V27.0769H-0.5ZM-0.5 36.9231V41.8462H0.5V36.9231H-0.5ZM-0.5 46.7692V51.6923H0.5V46.7692H-0.5ZM-0.5 56.6154V61.5385H0.5V56.6154H-0.5ZM-0.5 66.4615V71.3846H0.5V66.4615H-0.5ZM-0.5 76.3077V81.2308H0.5V76.3077H-0.5ZM-0.5 86.1539V91.0769H0.5V86.1539H-0.5ZM-0.5 96V100.923H0.5V96H-0.5ZM-0.5 105.846V110.769H0.5V105.846H-0.5ZM-0.5 115.692V120.615H0.5V115.692H-0.5ZM-0.5 125.539V130.462H0.5V125.539H-0.5ZM-0.5 135.385V140.308H0.5V135.385H-0.5ZM-0.5 145.231V150.154H0.5V145.231H-0.5ZM-0.5 155.077V160H0.5V155.077H-0.5ZM-0.5 164.923V169.846H0.5V164.923H-0.5ZM-0.5 174.769V179.692H0.5V174.769H-0.5ZM-0.5 184.615V189.539H0.5V184.615H-0.5ZM-0.5 194.462V199.385H0.5V194.462H-0.5ZM-0.5 204.308V209.231H0.5V204.308H-0.5ZM-0.5 214.154V219.077H0.5V214.154H-0.5ZM-0.5 224V228.923H0.5V224H-0.5ZM-0.5 233.846V238.769H0.5V233.846H-0.5ZM-0.5 243.692V248.616H0.5V243.692H-0.5ZM-0.5 253.539V256H0.5V253.539H-0.5ZM0 256.5H2.5V255.5H0V256.5ZM7.5 256.5H12.5V255.5H7.5V256.5ZM17.5 256.5H22.5V255.5H17.5V256.5ZM27.5 256.5H32.5V255.5H27.5V256.5ZM37.5 256.5H42.5V255.5H37.5V256.5ZM47.5 256.5H52.5V255.5H47.5V256.5ZM57.5 256.5H62.5V255.5H57.5V256.5ZM67.5 256.5H72.5V255.5H67.5V256.5ZM77.5 256.5H82.5V255.5H77.5V256.5ZM87.5 256.5H92.5V255.5H87.5V256.5ZM97.5 256.5H102.5V255.5H97.5V256.5ZM107.5 256.5H112.5V255.5H107.5V256.5ZM117.5 256.5H122.5V255.5H117.5V256.5ZM127.5 256.5H132.5V255.5H127.5V256.5ZM137.5 256.5H142.5V255.5H137.5V256.5ZM147.5 256.5H152.5V255.5H147.5V256.5ZM157.5 256.5H162.5V255.5H157.5V256.5ZM167.5 256.5H172.5V255.5H167.5V256.5ZM177.5 256.5H182.5V255.5H177.5V256.5ZM187.5 256.5H192.5V255.5H187.5V256.5ZM197.5 256.5H202.5V255.5H197.5V256.5ZM207.5 256.5H212.5V255.5H207.5V256.5ZM217.5 256.5H222.5V255.5H217.5V256.5ZM227.5 256.5H232.5V255.5H227.5V256.5ZM237.5 256.5H242.5V255.5H237.5V256.5ZM247.5 256.5H252.5V255.5H247.5V256.5ZM257.5 256.5H262.5V255.5H257.5V256.5ZM267.5 256.5H272.5V255.5H267.5V256.5ZM277.5 256.5H282.5V255.5H277.5V256.5ZM287.5 256.5H292.5V255.5H287.5V256.5ZM297.5 256.5H302.5V255.5H297.5V256.5ZM307.5 256.5H312.5V255.5H307.5V256.5ZM317.5 256.5H322.5V255.5H317.5V256.5ZM327.5 256.5H332.5V255.5H327.5V256.5ZM337.5 256.5H342.5V255.5H337.5V256.5ZM347.5 256.5H352.5V255.5H347.5V256.5ZM357.5 256.5H362.5V255.5H357.5V256.5ZM367.5 256.5H372.5V255.5H367.5V256.5ZM377.5 256.5H382.5V255.5H377.5V256.5ZM387.5 256.5H392.5V255.5H387.5V256.5ZM397.5 256.5H402.5V255.5H397.5V256.5ZM407.5 256.5H412.5V255.5H407.5V256.5ZM417.5 256.5H422.5V255.5H417.5V256.5ZM427.5 256.5H432.5V255.5H427.5V256.5ZM437.5 256.5H442.5V255.5H437.5V256.5ZM447.5 256.5H452.5V255.5H447.5V256.5ZM457.5 256.5H462.5V255.5H457.5V256.5ZM467.5 256.5H472.5V255.5H467.5V256.5ZM477.5 256.5H482.5V255.5H477.5V256.5ZM487.5 256.5H492.5V255.5H487.5V256.5ZM497.5 256.5H502.5V255.5H497.5V256.5ZM507.5 256.5H512.5V255.5H507.5V256.5ZM517.5 256.5H522.5V255.5H517.5V256.5ZM527.5 256.5H532.5V255.5H527.5V256.5ZM537.5 256.5H542.5V255.5H537.5V256.5ZM547.5 256.5H552.5V255.5H547.5V256.5ZM557.5 256.5H562.5V255.5H557.5V256.5ZM567.5 256.5H572.5V255.5H567.5V256.5ZM577.5 256.5H582.5V255.5H577.5V256.5ZM587.5 256.5H592.5V255.5H587.5V256.5ZM597.5 256.5H602.5V255.5H597.5V256.5ZM607.5 256.5H612.5V255.5H607.5V256.5ZM617.5 256.5H622.5V255.5H617.5V256.5ZM627.5 256.5H632.5V255.5H627.5V256.5ZM637.5 256.5H642.5V255.5H637.5V256.5ZM647.5 256.5H652.5V255.5H647.5V256.5ZM657.5 256.5H662.5V255.5H657.5V256.5ZM667.5 256.5H672.5V255.5H667.5V256.5ZM677.5 256.5H682.5V255.5H677.5V256.5ZM687.5 256.5H692.5V255.5H687.5V256.5ZM697.5 256.5H702.5V255.5H697.5V256.5ZM707.5 256.5H712.5V255.5H707.5V256.5ZM717.5 256.5H720V255.5H717.5V256.5ZM720.5 256V253.538H719.5V256H720.5ZM720.5 248.615V243.692H719.5V248.615H720.5ZM720.5 238.769V233.846H719.5V238.769H720.5ZM720.5 228.923V224H719.5V228.923H720.5ZM720.5 219.077V214.154H719.5V219.077H720.5ZM720.5 209.231V204.308H719.5V209.231H720.5ZM720.5 199.385V194.462H719.5V199.385H720.5ZM720.5 189.538V184.615H719.5V189.538H720.5ZM720.5 179.692V174.769H719.5V179.692H720.5ZM720.5 169.846V164.923H719.5V169.846H720.5ZM720.5 160V155.077H719.5V160H720.5ZM720.5 150.154V145.231H719.5V150.154H720.5ZM720.5 140.308V135.385H719.5V140.308H720.5ZM720.5 130.461V125.538H719.5V130.461H720.5ZM720.5 120.615V115.692H719.5V120.615H720.5ZM720.5 110.769V105.846H719.5V110.769H720.5ZM720.5 100.923V95.9999H719.5V100.923H720.5ZM720.5 91.0769V86.1538H719.5V91.0769H720.5ZM720.5 81.2307V76.3076H719.5V81.2307H720.5ZM720.5 71.3845V66.4615H719.5V71.3845H720.5ZM720.5 61.5384V56.6153H719.5V61.5384H720.5ZM720.5 51.6922V46.7691H719.5V51.6922H720.5ZM720.5 41.8461V36.923H719.5V41.8461H720.5ZM720.5 31.9999V27.0768H719.5V31.9999H720.5ZM720.5 22.1537V17.2307H719.5V22.1537H720.5ZM720.5 12.3076V7.38449H719.5V12.3076H720.5ZM720.5 2.46141V0H719.5V2.46141H720.5ZM720 -0.5H717.5V0.5H720V-0.5ZM712.5 -0.5H707.5V0.5H712.5V-0.5ZM702.5 -0.5H697.5V0.5H702.5V-0.5ZM692.5 -0.5H687.5V0.5H692.5V-0.5ZM682.5 -0.5H677.5V0.5H682.5V-0.5ZM672.5 -0.5H667.5V0.5H672.5V-0.5ZM662.5 -0.5H657.5V0.5H662.5V-0.5ZM652.5 -0.5H647.5V0.5H652.5V-0.5ZM642.5 -0.5H637.5V0.5H642.5V-0.5ZM632.5 -0.5H627.5V0.5H632.5V-0.5ZM622.5 -0.5H617.5V0.5H622.5V-0.5ZM612.5 -0.5H607.5V0.5H612.5V-0.5ZM602.5 -0.5H597.5V0.5H602.5V-0.5ZM592.5 -0.5H587.5V0.5H592.5V-0.5ZM582.5 -0.5H577.5V0.5H582.5V-0.5ZM572.5 -0.5H567.5V0.5H572.5V-0.5ZM562.5 -0.5H557.5V0.5H562.5V-0.5ZM552.5 -0.5H547.5V0.5H552.5V-0.5ZM542.5 -0.5H537.5V0.5H542.5V-0.5ZM532.5 -0.5H527.5V0.5H532.5V-0.5ZM522.5 -0.5H517.5V0.5H522.5V-0.5ZM512.5 -0.5H507.5V0.5H512.5V-0.5ZM502.5 -0.5H497.5V0.5H502.5V-0.5ZM492.5 -0.5H487.5V0.5H492.5V-0.5ZM482.5 -0.5H477.5V0.5H482.5V-0.5ZM472.5 -0.5H467.5V0.5H472.5V-0.5ZM462.5 -0.5H457.5V0.5H462.5V-0.5ZM452.5 -0.5H447.5V0.5H452.5V-0.5ZM442.5 -0.5H437.5V0.5H442.5V-0.5ZM432.5 -0.5H427.5V0.5H432.5V-0.5ZM422.5 -0.5H417.5V0.5H422.5V-0.5ZM412.5 -0.5H407.5V0.5H412.5V-0.5ZM402.5 -0.5H397.5V0.5H402.5V-0.5ZM392.5 -0.5H387.5V0.5H392.5V-0.5ZM382.5 -0.5H377.5V0.5H382.5V-0.5ZM372.5 -0.5H367.5V0.5H372.5V-0.5ZM362.5 -0.5H357.5V0.5H362.5V-0.5ZM352.5 -0.5H347.5V0.5H352.5V-0.5ZM342.5 -0.5H337.5V0.5H342.5V-0.5ZM332.5 -0.5H327.5V0.5H332.5V-0.5ZM322.5 -0.5H317.5V0.5H322.5V-0.5ZM312.5 -0.5H307.5V0.5H312.5V-0.5ZM302.5 -0.5H297.5V0.5H302.5V-0.5ZM292.5 -0.5H287.5V0.5H292.5V-0.5ZM282.5 -0.5H277.5V0.5H282.5V-0.5ZM272.5 -0.5H267.5V0.5H272.5V-0.5ZM262.5 -0.5H257.5V0.5H262.5V-0.5ZM252.5 -0.5H247.5V0.5H252.5V-0.5ZM242.5 -0.5H237.5V0.5H242.5V-0.5ZM232.5 -0.5H227.5V0.5H232.5V-0.5ZM222.5 -0.5H217.5V0.5H222.5V-0.5ZM212.5 -0.5H207.5V0.5H212.5V-0.5ZM202.5 -0.5H197.5V0.5H202.5V-0.5ZM192.5 -0.5H187.5V0.5H192.5V-0.5ZM182.5 -0.5H177.5V0.5H182.5V-0.5ZM172.5 -0.5H167.5V0.5H172.5V-0.5ZM162.5 -0.5H157.5V0.5H162.5V-0.5ZM152.5 -0.5H147.5V0.5H152.5V-0.5ZM142.5 -0.5H137.5V0.5H142.5V-0.5ZM132.5 -0.5H127.5V0.5H132.5V-0.5ZM122.5 -0.5H117.5V0.5H122.5V-0.5ZM112.5 -0.5H107.5V0.5H112.5V-0.5ZM102.5 -0.5H97.5V0.5H102.5V-0.5ZM92.5 -0.5H87.5V0.5H92.5V-0.5ZM82.5 -0.5H77.5V0.5H82.5V-0.5ZM72.5 -0.5H67.5V0.5H72.5V-0.5ZM62.5 -0.5H57.5V0.5H62.5V-0.5ZM52.5 -0.5H47.5V0.5H52.5V-0.5ZM42.5 -0.5H37.5V0.5H42.5V-0.5ZM32.5 -0.5H27.5V0.5H32.5V-0.5ZM22.5 -0.5H17.5V0.5H22.5V-0.5ZM12.5 -0.5H7.50001V0.5H12.5V-0.5ZM2.49999 -0.5H0V0.5H2.49999V-0.5ZM0 0V-1H-1V0H0ZM720 0H721V-1H720V0ZM720 256V257H721V256H720ZM0 256H-1V257H0V256ZM-1 0V2.46154H1V0H-1ZM-1 7.38462V12.3077H1V7.38462H-1ZM-1 17.2308V22.1538H1V17.2308H-1ZM-1 27.0769V32H1V27.0769H-1ZM-1 36.9231V41.8462H1V36.9231H-1ZM-1 46.7692V51.6923H1V46.7692H-1ZM-1 56.6154V61.5385H1V56.6154H-1ZM-1 66.4615V71.3846H1V66.4615H-1ZM-1 76.3077V81.2308H1V76.3077H-1ZM-1 86.1539V91.0769H1V86.1539H-1ZM-1 96V100.923H1V96H-1ZM-1 105.846V110.769H1V105.846H-1ZM-1 115.692V120.615H1V115.692H-1ZM-1 125.539V130.462H1V125.539H-1ZM-1 135.385V140.308H1V135.385H-1ZM-1 145.231V150.154H1V145.231H-1ZM-1 155.077V160H1V155.077H-1ZM-1 164.923V169.846H1V164.923H-1ZM-1 174.769V179.692H1V174.769H-1ZM-1 184.615V189.539H1V184.615H-1ZM-1 194.462V199.385H1V194.462H-1ZM-1 204.308V209.231H1V204.308H-1ZM-1 214.154V219.077H1V214.154H-1ZM-1 224V228.923H1V224H-1ZM-1 233.846V238.769H1V233.846H-1ZM-1 243.692V248.616H1V243.692H-1ZM-1 253.539V256H1V253.539H-1ZM0 257H2.5V255H0V257ZM7.5 257H12.5V255H7.5V257ZM17.5 257H22.5V255H17.5V257ZM27.5 257H32.5V255H27.5V257ZM37.5 257H42.5V255H37.5V257ZM47.5 257H52.5V255H47.5V257ZM57.5 257H62.5V255H57.5V257ZM67.5 257H72.5V255H67.5V257ZM77.5 257H82.5V255H77.5V257ZM87.5 257H92.5V255H87.5V257ZM97.5 257H102.5V255H97.5V257ZM107.5 257H112.5V255H107.5V257ZM117.5 257H122.5V255H117.5V257ZM127.5 257H132.5V255H127.5V257ZM137.5 257H142.5V255H137.5V257ZM147.5 257H152.5V255H147.5V257ZM157.5 257H162.5V255H157.5V257ZM167.5 257H172.5V255H167.5V257ZM177.5 257H182.5V255H177.5V257ZM187.5 257H192.5V255H187.5V257ZM197.5 257H202.5V255H197.5V257ZM207.5 257H212.5V255H207.5V257ZM217.5 257H222.5V255H217.5V257ZM227.5 257H232.5V255H227.5V257ZM237.5 257H242.5V255H237.5V257ZM247.5 257H252.5V255H247.5V257ZM257.5 257H262.5V255H257.5V257ZM267.5 257H272.5V255H267.5V257ZM277.5 257H282.5V255H277.5V257ZM287.5 257H292.5V255H287.5V257ZM297.5 257H302.5V255H297.5V257ZM307.5 257H312.5V255H307.5V257ZM317.5 257H322.5V255H317.5V257ZM327.5 257H332.5V255H327.5V257ZM337.5 257H342.5V255H337.5V257ZM347.5 257H352.5V255H347.5V257ZM357.5 257H362.5V255H357.5V257ZM367.5 257H372.5V255H367.5V257ZM377.5 257H382.5V255H377.5V257ZM387.5 257H392.5V255H387.5V257ZM397.5 257H402.5V255H397.5V257ZM407.5 257H412.5V255H407.5V257ZM417.5 257H422.5V255H417.5V257ZM427.5 257H432.5V255H427.5V257ZM437.5 257H442.5V255H437.5V257ZM447.5 257H452.5V255H447.5V257ZM457.5 257H462.5V255H457.5V257ZM467.5 257H472.5V255H467.5V257ZM477.5 257H482.5V255H477.5V257ZM487.5 257H492.5V255H487.5V257ZM497.5 257H502.5V255H497.5V257ZM507.5 257H512.5V255H507.5V257ZM517.5 257H522.5V255H517.5V257ZM527.5 257H532.5V255H527.5V257ZM537.5 257H542.5V255H537.5V257ZM547.5 257H552.5V255H547.5V257ZM557.5 257H562.5V255H557.5V257ZM567.5 257H572.5V255H567.5V257ZM577.5 257H582.5V255H577.5V257ZM587.5 257H592.5V255H587.5V257ZM597.5 257H602.5V255H597.5V257ZM607.5 257H612.5V255H607.5V257ZM617.5 257H622.5V255H617.5V257ZM627.5 257H632.5V255H627.5V257ZM637.5 257H642.5V255H637.5V257ZM647.5 257H652.5V255H647.5V257ZM657.5 257H662.5V255H657.5V257ZM667.5 257H672.5V255H667.5V257ZM677.5 257H682.5V255H677.5V257ZM687.5 257H692.5V255H687.5V257ZM697.5 257H702.5V255H697.5V257ZM707.5 257H712.5V255H707.5V257ZM717.5 257H720V255H717.5V257ZM721 256V253.538H719V256H721ZM721 248.615V243.692H719V248.615H721ZM721 238.769V233.846H719V238.769H721ZM721 228.923V224H719V228.923H721ZM721 219.077V214.154H719V219.077H721ZM721 209.231V204.308H719V209.231H721ZM721 199.385V194.462H719V199.385H721ZM721 189.538V184.615H719V189.538H721ZM721 179.692V174.769H719V179.692H721ZM721 169.846V164.923H719V169.846H721ZM721 160V155.077H719V160H721ZM721 150.154V145.231H719V150.154H721ZM721 140.308V135.385H719V140.308H721ZM721 130.461V125.538H719V130.461H721ZM721 120.615V115.692H719V120.615H721ZM721 110.769V105.846H719V110.769H721ZM721 100.923V95.9999H719V100.923H721ZM721 91.0769V86.1538H719V91.0769H721ZM721 81.2307V76.3076H719V81.2307H721ZM721 71.3845V66.4615H719V71.3845H721ZM721 61.5384V56.6153H719V61.5384H721ZM721 51.6922V46.7691H719V51.6922H721ZM721 41.8461V36.923H719V41.8461H721ZM721 31.9999V27.0768H719V31.9999H721ZM721 22.1537V17.2307H719V22.1537H721ZM721 12.3076V7.38449H719V12.3076H721ZM721 2.46141V0H719V2.46141H721ZM720 -1H717.5V1H720V-1ZM712.5 -1H707.5V1H712.5V-1ZM702.5 -1H697.5V1H702.5V-1ZM692.5 -1H687.5V1H692.5V-1ZM682.5 -1H677.5V1H682.5V-1ZM672.5 -1H667.5V1H672.5V-1ZM662.5 -1H657.5V1H662.5V-1ZM652.5 -1H647.5V1H652.5V-1ZM642.5 -1H637.5V1H642.5V-1ZM632.5 -1H627.5V1H632.5V-1ZM622.5 -1H617.5V1H622.5V-1ZM612.5 -1H607.5V1H612.5V-1ZM602.5 -1H597.5V1H602.5V-1ZM592.5 -1H587.5V1H592.5V-1ZM582.5 -1H577.5V1H582.5V-1ZM572.5 -1H567.5V1H572.5V-1ZM562.5 -1H557.5V1H562.5V-1ZM552.5 -1H547.5V1H552.5V-1ZM542.5 -1H537.5V1H542.5V-1ZM532.5 -1H527.5V1H532.5V-1ZM522.5 -1H517.5V1H522.5V-1ZM512.5 -1H507.5V1H512.5V-1ZM502.5 -1H497.5V1H502.5V-1ZM492.5 -1H487.5V1H492.5V-1ZM482.5 -1H477.5V1H482.5V-1ZM472.5 -1H467.5V1H472.5V-1ZM462.5 -1H457.5V1H462.5V-1ZM452.5 -1H447.5V1H452.5V-1ZM442.5 -1H437.5V1H442.5V-1ZM432.5 -1H427.5V1H432.5V-1ZM422.5 -1H417.5V1H422.5V-1ZM412.5 -1H407.5V1H412.5V-1ZM402.5 -1H397.5V1H402.5V-1ZM392.5 -1H387.5V1H392.5V-1ZM382.5 -1H377.5V1H382.5V-1ZM372.5 -1H367.5V1H372.5V-1ZM362.5 -1H357.5V1H362.5V-1ZM352.5 -1H347.5V1H352.5V-1ZM342.5 -1H337.5V1H342.5V-1ZM332.5 -1H327.5V1H332.5V-1ZM322.5 -1H317.5V1H322.5V-1ZM312.5 -1H307.5V1H312.5V-1ZM302.5 -1H297.5V1H302.5V-1ZM292.5 -1H287.5V1H292.5V-1ZM282.5 -1H277.5V1H282.5V-1ZM272.5 -1H267.5V1H272.5V-1ZM262.5 -1H257.5V1H262.5V-1ZM252.5 -1H247.5V1H252.5V-1ZM242.5 -1H237.5V1H242.5V-1ZM232.5 -1H227.5V1H232.5V-1ZM222.5 -1H217.5V1H222.5V-1ZM212.5 -1H207.5V1H212.5V-1ZM202.5 -1H197.5V1H202.5V-1ZM192.5 -1H187.5V1H192.5V-1ZM182.5 -1H177.5V1H182.5V-1ZM172.5 -1H167.5V1H172.5V-1ZM162.5 -1H157.5V1H162.5V-1ZM152.5 -1H147.5V1H152.5V-1ZM142.5 -1H137.5V1H142.5V-1ZM132.5 -1H127.5V1H132.5V-1ZM122.5 -1H117.5V1H122.5V-1ZM112.5 -1H107.5V1H112.5V-1ZM102.5 -1H97.5V1H102.5V-1ZM92.5 -1H87.5V1H92.5V-1ZM82.5 -1H77.5V1H82.5V-1ZM72.5 -1H67.5V1H72.5V-1ZM62.5 -1H57.5V1H62.5V-1ZM52.5 -1H47.5V1H52.5V-1ZM42.5 -1H37.5V1H42.5V-1ZM32.5 -1H27.5V1H32.5V-1ZM22.5 -1H17.5V1H22.5V-1ZM12.5 -1H7.50001V1H12.5V-1ZM2.49999 -1H0V1H2.49999V-1Z" fill="#7F20D2"/>
<defs>
<clipPath id="clip0_5_1177">
<rect width="229.333" height="120" fill="white" transform="translate(245.333)"/>
</clipPath>
<clipPath id="clip1_5_1177">
<rect width="229.333" height="72" fill="white" transform="translate(490.667)"/>
</clipPath>
<clipPath id="clip2_5_1177">
<rect width="229.333" height="120" fill="white" transform="translate(245.333 136)"/>
</clipPath>
<clipPath id="clip3_5_1177">
<rect width="229.333" height="72" fill="white" transform="translate(490.667 136)"/>
</clipPath>
</defs>
</svg>
