<svg width="768" height="256" viewBox="0 0 768 256" fill="none" xmlns="http://www.w3.org/2000/svg">
<path d="M0 0H768V256H0V0Z" fill="#D9BCF2"/>
<rect x="0.5" y="0.5" width="83" height="71" fill="white"/>
<path d="M27.2168 43H25.7402V30.3965H27.2168V43ZM34.5205 42.9121C34.1807 43.0996 33.7324 43.1934 33.1758 43.1934C31.5996 43.1934 30.8115 42.3145 30.8115 40.5566V35.2305H29.2646V34H30.8115V31.8027L32.2529 31.3369V34H34.5205V35.2305H32.2529V40.3018C32.2529 40.9053 32.3555 41.3359 32.5605 41.5938C32.7656 41.8516 33.1055 41.9805 33.5801 41.9805C33.9434 41.9805 34.2568 41.8809 34.5205 41.6816V42.9121ZM43.6787 38.8604H37.3242C37.3477 39.8623 37.6172 40.6357 38.1328 41.1807C38.6484 41.7256 39.3574 41.998 40.2598 41.998C41.2734 41.998 42.2051 41.6641 43.0547 40.9961V42.3496C42.2637 42.9238 41.2178 43.2109 39.917 43.2109C38.6455 43.2109 37.6465 42.8037 36.9199 41.9893C36.1934 41.1689 35.8301 40.0176 35.8301 38.5352C35.8301 37.1348 36.2256 35.9951 37.0166 35.1162C37.8135 34.2314 38.8008 33.7891 39.9785 33.7891C41.1562 33.7891 42.0674 34.1699 42.7119 34.9316C43.3564 35.6934 43.6787 36.751 43.6787 38.1045V38.8604ZM42.2021 37.6387C42.1963 36.8066 41.9941 36.1592 41.5957 35.6963C41.2031 35.2334 40.6553 35.002 39.9521 35.002C39.2725 35.002 38.6953 35.2451 38.2207 35.7314C37.7461 36.2178 37.4531 36.8535 37.3418 37.6387H42.2021ZM58.6465 43H57.2051V37.832C57.2051 36.8359 57.0498 36.1152 56.7393 35.6699C56.4346 35.2246 55.9189 35.002 55.1924 35.002C54.5771 35.002 54.0527 35.2832 53.6191 35.8457C53.1914 36.4082 52.9775 37.082 52.9775 37.8672V43H51.5361V37.6562C51.5361 35.8867 50.8535 35.002 49.4883 35.002C48.8555 35.002 48.334 35.2686 47.9238 35.8018C47.5137 36.3291 47.3086 37.0176 47.3086 37.8672V43H45.8672V34H47.3086V35.4238H47.3438C47.9824 34.334 48.9141 33.7891 50.1387 33.7891C50.7539 33.7891 51.29 33.9619 51.7471 34.3076C52.2041 34.6475 52.5176 35.0957 52.6875 35.6523C53.3555 34.4102 54.3516 33.7891 55.6758 33.7891C57.6562 33.7891 58.6465 35.0107 58.6465 37.4541V43Z" fill="black"/>
<rect x="0.5" y="0.5" width="83" height="71" stroke="black" stroke-dasharray="5 5"/>
<g clip-path="url(#clip0_5_1177)">
<rect x="261.833" y="0.5" width="83" height="119" fill="white"/>
<path d="M288.55 67H287.074V54.3965H288.55V67ZM295.854 66.9121C295.514 67.0996 295.066 67.1934 294.509 67.1934C292.933 67.1934 292.145 66.3145 292.145 64.5566V59.2305H290.598V58H292.145V55.8027L293.586 55.3369V58H295.854V59.2305H293.586V64.3018C293.586 64.9053 293.689 65.3359 293.894 65.5938C294.099 65.8516 294.439 65.9805 294.914 65.9805C295.277 65.9805 295.59 65.8809 295.854 65.6816V66.9121ZM305.012 62.8604H298.658C298.681 63.8623 298.951 64.6357 299.466 65.1807C299.982 65.7256 300.691 65.998 301.593 65.998C302.607 65.998 303.539 65.6641 304.388 64.9961V66.3496C303.597 66.9238 302.551 67.2109 301.25 67.2109C299.979 67.2109 298.98 66.8037 298.253 65.9893C297.527 65.1689 297.164 64.0176 297.164 62.5352C297.164 61.1348 297.559 59.9951 298.35 59.1162C299.147 58.2314 300.134 57.7891 301.312 57.7891C302.49 57.7891 303.401 58.1699 304.045 58.9316C304.69 59.6934 305.012 60.751 305.012 62.1045V62.8604ZM303.536 61.6387C303.53 60.8066 303.328 60.1592 302.929 59.6963C302.537 59.2334 301.989 59.002 301.286 59.002C300.606 59.002 300.029 59.2451 299.554 59.7314C299.08 60.2178 298.787 60.8535 298.675 61.6387H303.536ZM319.98 67H318.539V61.832C318.539 60.8359 318.383 60.1152 318.073 59.6699C317.768 59.2246 317.252 59.002 316.526 59.002C315.911 59.002 315.386 59.2832 314.953 59.8457C314.525 60.4082 314.311 61.082 314.311 61.8672V67H312.87V61.6562C312.87 59.8867 312.187 59.002 310.822 59.002C310.189 59.002 309.667 59.2686 309.257 59.8018C308.847 60.3291 308.642 61.0176 308.642 61.8672V67H307.201V58H308.642V59.4238H308.677C309.316 58.334 310.248 57.7891 311.472 57.7891C312.087 57.7891 312.624 57.9619 313.081 58.3076C313.538 58.6475 313.851 59.0957 314.021 59.6523C314.689 58.4102 315.685 57.7891 317.009 57.7891C318.99 57.7891 319.98 59.0107 319.98 61.4541V67Z" fill="black"/>
<rect x="261.833" y="0.5" width="83" height="119" stroke="black" stroke-dasharray="5 5"/>
</g>
<g clip-path="url(#clip1_5_1177)">
<rect x="523.167" y="0.5" width="131" height="71" fill="white"/>
<path d="M573.883 43H572.407V30.3965H573.883V43ZM581.187 42.9121C580.847 43.0996 580.399 43.1934 579.842 43.1934C578.266 43.1934 577.478 42.3145 577.478 40.5566V35.2305H575.931V34H577.478V31.8027L578.919 31.3369V34H581.187V35.2305H578.919V40.3018C578.919 40.9053 579.022 41.3359 579.227 41.5938C579.432 41.8516 579.772 41.9805 580.247 41.9805C580.61 41.9805 580.923 41.8809 581.187 41.6816V42.9121ZM590.345 38.8604H583.991C584.014 39.8623 584.284 40.6357 584.799 41.1807C585.315 41.7256 586.024 41.998 586.926 41.998C587.94 41.998 588.872 41.6641 589.721 40.9961V42.3496C588.93 42.9238 587.884 43.2109 586.583 43.2109C585.312 43.2109 584.313 42.8037 583.586 41.9893C582.86 41.1689 582.497 40.0176 582.497 38.5352C582.497 37.1348 582.892 35.9951 583.683 35.1162C584.48 34.2314 585.467 33.7891 586.645 33.7891C587.823 33.7891 588.734 34.1699 589.378 34.9316C590.023 35.6934 590.345 36.751 590.345 38.1045V38.8604ZM588.869 37.6387C588.863 36.8066 588.661 36.1592 588.262 35.6963C587.87 35.2334 587.322 35.002 586.619 35.002C585.939 35.002 585.362 35.2451 584.887 35.7314C584.413 36.2178 584.12 36.8535 584.008 37.6387H588.869ZM605.313 43H603.872V37.832C603.872 36.8359 603.716 36.1152 603.406 35.6699C603.101 35.2246 602.585 35.002 601.859 35.002C601.244 35.002 600.719 35.2832 600.286 35.8457C599.858 36.4082 599.644 37.082 599.644 37.8672V43H598.203V37.6562C598.203 35.8867 597.52 35.002 596.155 35.002C595.522 35.002 595 35.2686 594.59 35.8018C594.18 36.3291 593.975 37.0176 593.975 37.8672V43H592.534V34H593.975V35.4238H594.01C594.649 34.334 595.581 33.7891 596.805 33.7891C597.42 33.7891 597.957 33.9619 598.414 34.3076C598.871 34.6475 599.184 35.0957 599.354 35.6523C600.022 34.4102 601.018 33.7891 602.342 33.7891C604.323 33.7891 605.313 35.0107 605.313 37.4541V43Z" fill="black"/>
<rect x="523.167" y="0.5" width="131" height="71" stroke="black" stroke-dasharray="5 5"/>
</g>
<rect x="0.5" y="136.5" width="83" height="71" fill="white"/>
<path d="M27.2168 179H25.7402V166.396H27.2168V179ZM34.5205 178.912C34.1807 179.1 33.7324 179.193 33.1758 179.193C31.5996 179.193 30.8115 178.314 30.8115 176.557V171.23H29.2646V170H30.8115V167.803L32.2529 167.337V170H34.5205V171.23H32.2529V176.302C32.2529 176.905 32.3555 177.336 32.5605 177.594C32.7656 177.852 33.1055 177.98 33.5801 177.98C33.9434 177.98 34.2568 177.881 34.5205 177.682V178.912ZM43.6787 174.86H37.3242C37.3477 175.862 37.6172 176.636 38.1328 177.181C38.6484 177.726 39.3574 177.998 40.2598 177.998C41.2734 177.998 42.2051 177.664 43.0547 176.996V178.35C42.2637 178.924 41.2178 179.211 39.917 179.211C38.6455 179.211 37.6465 178.804 36.9199 177.989C36.1934 177.169 35.8301 176.018 35.8301 174.535C35.8301 173.135 36.2256 171.995 37.0166 171.116C37.8135 170.231 38.8008 169.789 39.9785 169.789C41.1562 169.789 42.0674 170.17 42.7119 170.932C43.3564 171.693 43.6787 172.751 43.6787 174.104V174.86ZM42.2021 173.639C42.1963 172.807 41.9941 172.159 41.5957 171.696C41.2031 171.233 40.6553 171.002 39.9521 171.002C39.2725 171.002 38.6953 171.245 38.2207 171.731C37.7461 172.218 37.4531 172.854 37.3418 173.639H42.2021ZM58.6465 179H57.2051V173.832C57.2051 172.836 57.0498 172.115 56.7393 171.67C56.4346 171.225 55.9189 171.002 55.1924 171.002C54.5771 171.002 54.0527 171.283 53.6191 171.846C53.1914 172.408 52.9775 173.082 52.9775 173.867V179H51.5361V173.656C51.5361 171.887 50.8535 171.002 49.4883 171.002C48.8555 171.002 48.334 171.269 47.9238 171.802C47.5137 172.329 47.3086 173.018 47.3086 173.867V179H45.8672V170H47.3086V171.424H47.3438C47.9824 170.334 48.9141 169.789 50.1387 169.789C50.7539 169.789 51.29 169.962 51.7471 170.308C52.2041 170.647 52.5176 171.096 52.6875 171.652C53.3555 170.41 54.3516 169.789 55.6758 169.789C57.6562 169.789 58.6465 171.011 58.6465 173.454V179Z" fill="black"/>
<rect x="0.5" y="136.5" width="83" height="71" stroke="black" stroke-dasharray="5 5"/>
<g clip-path="url(#clip2_5_1177)">
<rect x="261.833" y="136.5" width="83" height="119" fill="white"/>
<path d="M288.55 203H287.074V190.396H288.55V203ZM295.854 202.912C295.514 203.1 295.066 203.193 294.509 203.193C292.933 203.193 292.145 202.314 292.145 200.557V195.23H290.598V194H292.145V191.803L293.586 191.337V194H295.854V195.23H293.586V200.302C293.586 200.905 293.689 201.336 293.894 201.594C294.099 201.852 294.439 201.98 294.914 201.98C295.277 201.98 295.59 201.881 295.854 201.682V202.912ZM305.012 198.86H298.658C298.681 199.862 298.951 200.636 299.466 201.181C299.982 201.726 300.691 201.998 301.593 201.998C302.607 201.998 303.539 201.664 304.388 200.996V202.35C303.597 202.924 302.551 203.211 301.25 203.211C299.979 203.211 298.98 202.804 298.253 201.989C297.527 201.169 297.164 200.018 297.164 198.535C297.164 197.135 297.559 195.995 298.35 195.116C299.147 194.231 300.134 193.789 301.312 193.789C302.49 193.789 303.401 194.17 304.045 194.932C304.69 195.693 305.012 196.751 305.012 198.104V198.86ZM303.536 197.639C303.53 196.807 303.328 196.159 302.929 195.696C302.537 195.233 301.989 195.002 301.286 195.002C300.606 195.002 300.029 195.245 299.554 195.731C299.08 196.218 298.787 196.854 298.675 197.639H303.536ZM319.98 203H318.539V197.832C318.539 196.836 318.383 196.115 318.073 195.67C317.768 195.225 317.252 195.002 316.526 195.002C315.911 195.002 315.386 195.283 314.953 195.846C314.525 196.408 314.311 197.082 314.311 197.867V203H312.87V197.656C312.87 195.887 312.187 195.002 310.822 195.002C310.189 195.002 309.667 195.269 309.257 195.802C308.847 196.329 308.642 197.018 308.642 197.867V203H307.201V194H308.642V195.424H308.677C309.316 194.334 310.248 193.789 311.472 193.789C312.087 193.789 312.624 193.962 313.081 194.308C313.538 194.647 313.851 195.096 314.021 195.652C314.689 194.41 315.685 193.789 317.009 193.789C318.99 193.789 319.98 195.011 319.98 197.454V203Z" fill="black"/>
<rect x="261.833" y="136.5" width="83" height="119" stroke="black" stroke-dasharray="5 5"/>
</g>
<g clip-path="url(#clip3_5_1177)">
<rect x="523.167" y="136.5" width="131" height="71" fill="white"/>
<path d="M573.883 179H572.407V166.396H573.883V179ZM581.187 178.912C580.847 179.1 580.399 179.193 579.842 179.193C578.266 179.193 577.478 178.314 577.478 176.557V171.23H575.931V170H577.478V167.803L578.919 167.337V170H581.187V171.23H578.919V176.302C578.919 176.905 579.022 177.336 579.227 177.594C579.432 177.852 579.772 177.98 580.247 177.98C580.61 177.98 580.923 177.881 581.187 177.682V178.912ZM590.345 174.86H583.991C584.014 175.862 584.284 176.636 584.799 177.181C585.315 177.726 586.024 177.998 586.926 177.998C587.94 177.998 588.872 177.664 589.721 176.996V178.35C588.93 178.924 587.884 179.211 586.583 179.211C585.312 179.211 584.313 178.804 583.586 177.989C582.86 177.169 582.497 176.018 582.497 174.535C582.497 173.135 582.892 171.995 583.683 171.116C584.48 170.231 585.467 169.789 586.645 169.789C587.823 169.789 588.734 170.17 589.378 170.932C590.023 171.693 590.345 172.751 590.345 174.104V174.86ZM588.869 173.639C588.863 172.807 588.661 172.159 588.262 171.696C587.87 171.233 587.322 171.002 586.619 171.002C585.939 171.002 585.362 171.245 584.887 171.731C584.413 172.218 584.12 172.854 584.008 173.639H588.869ZM605.313 179H603.872V173.832C603.872 172.836 603.716 172.115 603.406 171.67C603.101 171.225 602.585 171.002 601.859 171.002C601.244 171.002 600.719 171.283 600.286 171.846C599.858 172.408 599.644 173.082 599.644 173.867V179H598.203V173.656C598.203 171.887 597.52 171.002 596.155 171.002C595.522 171.002 595 171.269 594.59 171.802C594.18 172.329 593.975 173.018 593.975 173.867V179H592.534V170H593.975V171.424H594.01C594.649 170.334 595.581 169.789 596.805 169.789C597.42 169.789 597.957 169.962 598.414 170.308C598.871 170.647 599.184 171.096 599.354 171.652C600.022 170.41 601.018 169.789 602.342 169.789C604.323 169.789 605.313 171.011 605.313 173.454V179Z" fill="black"/>
<rect x="523.167" y="136.5" width="131" height="71" stroke="black" stroke-dasharray="5 5"/>
</g>
<path d="M0 0V-0.5H-0.5V0H0ZM768 0H768.5V-0.5H768V0ZM768 256V256.5H768.5V256H768ZM0 256H-0.5V256.5H0V256ZM-0.5 0V2.46154H0.5V0H-0.5ZM-0.5 7.38462V12.3077H0.5V7.38462H-0.5ZM-0.5 17.2308V22.1538H0.5V17.2308H-0.5ZM-0.5 27.0769V32H0.5V27.0769H-0.5ZM-0.5 36.9231V41.8462H0.5V36.9231H-0.5ZM-0.5 46.7692V51.6923H0.5V46.7692H-0.5ZM-0.5 56.6154V61.5385H0.5V56.6154H-0.5ZM-0.5 66.4615V71.3846H0.5V66.4615H-0.5ZM-0.5 76.3077V81.2308H0.5V76.3077H-0.5ZM-0.5 86.1539V91.0769H0.5V86.1539H-0.5ZM-0.5 96V100.923H0.5V96H-0.5ZM-0.5 105.846V110.769H0.5V105.846H-0.5ZM-0.5 115.692V120.615H0.5V115.692H-0.5ZM-0.5 125.539V130.462H0.5V125.539H-0.5ZM-0.5 135.385V140.308H0.5V135.385H-0.5ZM-0.5 145.231V150.154H0.5V145.231H-0.5ZM-0.5 155.077V160H0.5V155.077H-0.5ZM-0.5 164.923V169.846H0.5V164.923H-0.5ZM-0.5 174.769V179.692H0.5V174.769H-0.5ZM-0.5 184.615V189.539H0.5V184.615H-0.5ZM-0.5 194.462V199.385H0.5V194.462H-0.5ZM-0.5 204.308V209.231H0.5V204.308H-0.5ZM-0.5 214.154V219.077H0.5V214.154H-0.5ZM-0.5 224V228.923H0.5V224H-0.5ZM-0.5 233.846V238.769H0.5V233.846H-0.5ZM-0.5 243.692V248.616H0.5V243.692H-0.5ZM-0.5 253.539V256H0.5V253.539H-0.5ZM0 256.5H2.49351V255.5H0V256.5ZM7.48052 256.5H12.4675V255.5H7.48052V256.5ZM17.4545 256.5H22.4416V255.5H17.4545V256.5ZM27.4286 256.5H32.4156V255.5H27.4286V256.5ZM37.4026 256.5H42.3896V255.5H37.4026V256.5ZM47.3766 256.5H52.3636V255.5H47.3766V256.5ZM57.3507 256.5H62.3377V255.5H57.3507V256.5ZM67.3247 256.5H72.3117V255.5H67.3247V256.5ZM77.2987 256.5H82.2857V255.5H77.2987V256.5ZM87.2727 256.5H92.2598V255.5H87.2727V256.5ZM97.2468 256.5H102.234V255.5H97.2468V256.5ZM107.221 256.5H112.208V255.5H107.221V256.5ZM117.195 256.5H122.182V255.5H117.195V256.5ZM127.169 256.5H132.156V255.5H127.169V256.5ZM137.143 256.5H142.13V255.5H137.143V256.5ZM147.117 256.5H152.104V255.5H147.117V256.5ZM157.091 256.5H162.078V255.5H157.091V256.5ZM167.065 256.5H172.052V255.5H167.065V256.5ZM177.039 256.5H182.026V255.5H177.039V256.5ZM187.013 256.5H192V255.5H187.013V256.5ZM196.987 256.5H201.974V255.5H196.987V256.5ZM206.961 256.5H211.948V255.5H206.961V256.5ZM216.935 256.5H221.922V255.5H216.935V256.5ZM226.909 256.5H231.896V255.5H226.909V256.5ZM236.883 256.5H241.87V255.5H236.883V256.5ZM246.857 256.5H251.844V255.5H246.857V256.5ZM256.831 256.5H261.818V255.5H256.831V256.5ZM266.805 256.5H271.792V255.5H266.805V256.5ZM276.779 256.5H281.766V255.5H276.779V256.5ZM286.753 256.5H291.74V255.5H286.753V256.5ZM296.727 256.5H301.714V255.5H296.727V256.5ZM306.701 256.5H311.688V255.5H306.701V256.5ZM316.675 256.5H321.662V255.5H316.675V256.5ZM326.649 256.5H331.636V255.5H326.649V256.5ZM336.623 256.5H341.61V255.5H336.623V256.5ZM346.597 256.5H351.584V255.5H346.597V256.5ZM356.571 256.5H361.558V255.5H356.571V256.5ZM366.545 256.5H371.532V255.5H366.545V256.5ZM376.519 256.5H381.506V255.5H376.519V256.5ZM386.493 256.5H391.48V255.5H386.493V256.5ZM396.467 256.5H401.454V255.5H396.467V256.5ZM406.441 256.5H411.428V255.5H406.441V256.5ZM416.415 256.5H421.402V255.5H416.415V256.5ZM426.389 256.5H431.376V255.5H426.389V256.5ZM436.363 256.5H441.35V255.5H436.363V256.5ZM446.337 256.5H451.324V255.5H446.337V256.5ZM456.311 256.5H461.298V255.5H456.311V256.5ZM466.285 256.5H471.272V255.5H466.285V256.5ZM476.259 256.5H481.246V255.5H476.259V256.5ZM486.233 256.5H491.22V255.5H486.233V256.5ZM496.207 256.5H501.194V255.5H496.207V256.5ZM506.181 256.5H511.168V255.5H506.181V256.5ZM516.155 256.5H521.142V255.5H516.155V256.5ZM526.129 256.5H531.116V255.5H526.129V256.5ZM536.103 256.5H541.09V255.5H536.103V256.5ZM546.077 256.5H551.064V255.5H546.077V256.5ZM556.051 256.5H561.038V255.5H556.051V256.5ZM566.025 256.5H571.012V255.5H566.025V256.5ZM575.999 256.5H580.986V255.5H575.999V256.5ZM585.973 256.5H590.96V255.5H585.973V256.5ZM595.947 256.5H600.934V255.5H595.947V256.5ZM605.921 256.5H610.908V255.5H605.921V256.5ZM615.895 256.5H620.882V255.5H615.895V256.5ZM625.869 256.5H630.856V255.5H625.869V256.5ZM635.843 256.5H640.83V255.5H635.843V256.5ZM645.817 256.5H650.804V255.5H645.817V256.5ZM655.791 256.5H660.778V255.5H655.791V256.5ZM665.765 256.5H670.752V255.5H665.765V256.5ZM675.739 256.5H680.726V255.5H675.739V256.5ZM685.713 256.5H690.7V255.5H685.713V256.5ZM695.687 256.5H700.674V255.5H695.687V256.5ZM705.661 256.5H710.648V255.5H705.661V256.5ZM715.635 256.5H720.622V255.5H715.635V256.5ZM725.609 256.5H730.596V255.5H725.609V256.5ZM735.583 256.5H740.57V255.5H735.583V256.5ZM745.557 256.5H750.544V255.5H745.557V256.5ZM755.531 256.5H760.518V255.5H755.531V256.5ZM765.505 256.5H768V255.5H765.505V256.5ZM768.5 256V253.538H767.5V256H768.5ZM768.5 248.615V243.692H767.5V248.615H768.5ZM768.5 238.769V233.846H767.5V238.769H768.5ZM768.5 228.923V224H767.5V228.923H768.5ZM768.5 219.077V214.154H767.5V219.077H768.5ZM768.5 209.231V204.308H767.5V209.231H768.5ZM768.5 199.385V194.462H767.5V199.385H768.5ZM768.5 189.538V184.615H767.5V189.538H768.5ZM768.5 179.692V174.769H767.5V179.692H768.5ZM768.5 169.846V164.923H767.5V169.846H768.5ZM768.5 160V155.077H767.5V160H768.5ZM768.5 150.154V145.231H767.5V150.154H768.5ZM768.5 140.308V135.385H767.5V140.308H768.5ZM768.5 130.461V125.538H767.5V130.461H768.5ZM768.5 120.615V115.692H767.5V120.615H768.5ZM768.5 110.769V105.846H767.5V110.769H768.5ZM768.5 100.923V95.9999H767.5V100.923H768.5ZM768.5 91.0769V86.1538H767.5V91.0769H768.5ZM768.5 81.2307V76.3076H767.5V81.2307H768.5ZM768.5 71.3845V66.4615H767.5V71.3845H768.5ZM768.5 61.5384V56.6153H767.5V61.5384H768.5ZM768.5 51.6922V46.7691H767.5V51.6922H768.5ZM768.5 41.8461V36.923H767.5V41.8461H768.5ZM768.5 31.9999V27.0768H767.5V31.9999H768.5ZM768.5 22.1537V17.2307H767.5V22.1537H768.5ZM768.5 12.3076V7.38449H767.5V12.3076H768.5ZM768.5 2.46141V0H767.5V2.46141H768.5ZM768 -0.5H765.506V0.5H768V-0.5ZM760.519 -0.5H755.532V0.5H760.519V-0.5ZM750.545 -0.5H745.558V0.5H750.545V-0.5ZM740.571 -0.5H735.584V0.5H740.571V-0.5ZM730.597 -0.5H725.61V0.5H730.597V-0.5ZM720.623 -0.5H715.636V0.5H720.623V-0.5ZM710.649 -0.5H705.662V0.5H710.649V-0.5ZM700.675 -0.5H695.688V0.5H700.675V-0.5ZM690.701 -0.5H685.714V0.5H690.701V-0.5ZM680.727 -0.5H675.74V0.5H680.727V-0.5ZM670.753 -0.5H665.766V0.5H670.753V-0.5ZM660.779 -0.5H655.792V0.5H660.779V-0.5ZM650.805 -0.5H645.818V0.5H650.805V-0.5ZM640.831 -0.5H635.844V0.5H640.831V-0.5ZM630.857 -0.5H625.87V0.5H630.857V-0.5ZM620.883 -0.5H615.896V0.5H620.883V-0.5ZM610.909 -0.5H605.922V0.5H610.909V-0.5ZM600.935 -0.5H595.948V0.5H600.935V-0.5ZM590.961 -0.5H585.974V0.5H590.961V-0.5ZM580.987 -0.5H576V0.5H580.987V-0.5ZM571.013 -0.5H566.026V0.5H571.013V-0.5ZM561.039 -0.5H556.052V0.5H561.039V-0.5ZM551.065 -0.5H546.078V0.5H551.065V-0.5ZM541.091 -0.5H536.104V0.5H541.091V-0.5ZM531.117 -0.5H526.13V0.5H531.117V-0.5ZM521.143 -0.5H516.156V0.5H521.143V-0.5ZM511.169 -0.5H506.182V0.5H511.169V-0.5ZM501.195 -0.5H496.208V0.5H501.195V-0.5ZM491.221 -0.5H486.234V0.5H491.221V-0.5ZM481.247 -0.5H476.26V0.5H481.247V-0.5ZM471.273 -0.5H466.286V0.5H471.273V-0.5ZM461.299 -0.5H456.312V0.5H461.299V-0.5ZM451.325 -0.5H446.338V0.5H451.325V-0.5ZM441.351 -0.5H436.364V0.5H441.351V-0.5ZM431.377 -0.5H426.39V0.5H431.377V-0.5ZM421.403 -0.5H416.416V0.5H421.403V-0.5ZM411.429 -0.5H406.442V0.5H411.429V-0.5ZM401.455 -0.5H396.468V0.5H401.455V-0.5ZM391.481 -0.5H386.494V0.5H391.481V-0.5ZM381.507 -0.5H376.52V0.5H381.507V-0.5ZM371.533 -0.5H366.546V0.5H371.533V-0.5ZM361.559 -0.5H356.572V0.5H361.559V-0.5ZM351.585 -0.5H346.598V0.5H351.585V-0.5ZM341.611 -0.5H336.624V0.5H341.611V-0.5ZM331.637 -0.5H326.65V0.5H331.637V-0.5ZM321.663 -0.5H316.676V0.5H321.663V-0.5ZM311.689 -0.5H306.702V0.5H311.689V-0.5ZM301.715 -0.5H296.728V0.5H301.715V-0.5ZM291.741 -0.5H286.754V0.5H291.741V-0.5ZM281.767 -0.5H276.78V0.5H281.767V-0.5ZM271.793 -0.5H266.806V0.5H271.793V-0.5ZM261.819 -0.5H256.832V0.5H261.819V-0.5ZM251.845 -0.5H246.858V0.5H251.845V-0.5ZM241.871 -0.5H236.884V0.5H241.871V-0.5ZM231.897 -0.5H226.91V0.5H231.897V-0.5ZM221.923 -0.5H216.936V0.5H221.923V-0.5ZM211.949 -0.5H206.962V0.5H211.949V-0.5ZM201.975 -0.5H196.988V0.5H201.975V-0.5ZM192.001 -0.5H187.014V0.5H192.001V-0.5ZM182.027 -0.5H177.04V0.5H182.027V-0.5ZM172.053 -0.5H167.066V0.5H172.053V-0.5ZM162.079 -0.5H157.092V0.5H162.079V-0.5ZM152.105 -0.5H147.118V0.5H152.105V-0.5ZM142.131 -0.5H137.144V0.5H142.131V-0.5ZM132.157 -0.5H127.17V0.5H132.157V-0.5ZM122.183 -0.5H117.196V0.5H122.183V-0.5ZM112.209 -0.5H107.222V0.5H112.209V-0.5ZM102.235 -0.5H97.2478V0.5H102.235V-0.5ZM92.2608 -0.5H87.2738V0.5H92.2608V-0.5ZM82.2868 -0.5H77.2998V0.5H82.2868V-0.5ZM72.3128 -0.5H67.3258V0.5H72.3128V-0.5ZM62.3388 -0.5H57.3518V0.5H62.3388V-0.5ZM52.3648 -0.5H47.3778V0.5H52.3648V-0.5ZM42.3908 -0.5H37.4038V0.5H42.3908V-0.5ZM32.4168 -0.5H27.4298V0.5H32.4168V-0.5ZM22.4428 -0.5H17.4558V0.5H22.4428V-0.5ZM12.4688 -0.5H7.48183V0.5H12.4688V-0.5ZM2.49481 -0.5H0V0.5H2.49481V-0.5ZM0 0V-1H-1V0H0ZM768 0H769V-1H768V0ZM768 256V257H769V256H768ZM0 256H-1V257H0V256ZM-1 0V2.46154H1V0H-1ZM-1 7.38462V12.3077H1V7.38462H-1ZM-1 17.2308V22.1538H1V17.2308H-1ZM-1 27.0769V32H1V27.0769H-1ZM-1 36.9231V41.8462H1V36.9231H-1ZM-1 46.7692V51.6923H1V46.7692H-1ZM-1 56.6154V61.5385H1V56.6154H-1ZM-1 66.4615V71.3846H1V66.4615H-1ZM-1 76.3077V81.2308H1V76.3077H-1ZM-1 86.1539V91.0769H1V86.1539H-1ZM-1 96V100.923H1V96H-1ZM-1 105.846V110.769H1V105.846H-1ZM-1 115.692V120.615H1V115.692H-1ZM-1 125.539V130.462H1V125.539H-1ZM-1 135.385V140.308H1V135.385H-1ZM-1 145.231V150.154H1V145.231H-1ZM-1 155.077V160H1V155.077H-1ZM-1 164.923V169.846H1V164.923H-1ZM-1 174.769V179.692H1V174.769H-1ZM-1 184.615V189.539H1V184.615H-1ZM-1 194.462V199.385H1V194.462H-1ZM-1 204.308V209.231H1V204.308H-1ZM-1 214.154V219.077H1V214.154H-1ZM-1 224V228.923H1V224H-1ZM-1 233.846V238.769H1V233.846H-1ZM-1 243.692V248.616H1V243.692H-1ZM-1 253.539V256H1V253.539H-1ZM0 257H2.49351V255H0V257ZM7.48052 257H12.4675V255H7.48052V257ZM17.4545 257H22.4416V255H17.4545V257ZM27.4286 257H32.4156V255H27.4286V257ZM37.4026 257H42.3896V255H37.4026V257ZM47.3766 257H52.3636V255H47.3766V257ZM57.3507 257H62.3377V255H57.3507V257ZM67.3247 257H72.3117V255H67.3247V257ZM77.2987 257H82.2857V255H77.2987V257ZM87.2727 257H92.2598V255H87.2727V257ZM97.2468 257H102.234V255H97.2468V257ZM107.221 257H112.208V255H107.221V257ZM117.195 257H122.182V255H117.195V257ZM127.169 257H132.156V255H127.169V257ZM137.143 257H142.13V255H137.143V257ZM147.117 257H152.104V255H147.117V257ZM157.091 257H162.078V255H157.091V257ZM167.065 257H172.052V255H167.065V257ZM177.039 257H182.026V255H177.039V257ZM187.013 257H192V255H187.013V257ZM196.987 257H201.974V255H196.987V257ZM206.961 257H211.948V255H206.961V257ZM216.935 257H221.922V255H216.935V257ZM226.909 257H231.896V255H226.909V257ZM236.883 257H241.87V255H236.883V257ZM246.857 257H251.844V255H246.857V257ZM256.831 257H261.818V255H256.831V257ZM266.805 257H271.792V255H266.805V257ZM276.779 257H281.766V255H276.779V257ZM286.753 257H291.74V255H286.753V257ZM296.727 257H301.714V255H296.727V257ZM306.701 257H311.688V255H306.701V257ZM316.675 257H321.662V255H316.675V257ZM326.649 257H331.636V255H326.649V257ZM336.623 257H341.61V255H336.623V257ZM346.597 257H351.584V255H346.597V257ZM356.571 257H361.558V255H356.571V257ZM366.545 257H371.532V255H366.545V257ZM376.519 257H381.506V255H376.519V257ZM386.493 257H391.48V255H386.493V257ZM396.467 257H401.454V255H396.467V257ZM406.441 257H411.428V255H406.441V257ZM416.415 257H421.402V255H416.415V257ZM426.389 257H431.376V255H426.389V257ZM436.363 257H441.35V255H436.363V257ZM446.337 257H451.324V255H446.337V257ZM456.311 257H461.298V255H456.311V257ZM466.285 257H471.272V255H466.285V257ZM476.259 257H481.246V255H476.259V257ZM486.233 257H491.22V255H486.233V257ZM496.207 257H501.194V255H496.207V257ZM506.181 257H511.168V255H506.181V257ZM516.155 257H521.142V255H516.155V257ZM526.129 257H531.116V255H526.129V257ZM536.103 257H541.09V255H536.103V257ZM546.077 257H551.064V255H546.077V257ZM556.051 257H561.038V255H556.051V257ZM566.025 257H571.012V255H566.025V257ZM575.999 257H580.986V255H575.999V257ZM585.973 257H590.96V255H585.973V257ZM595.947 257H600.934V255H595.947V257ZM605.921 257H610.908V255H605.921V257ZM615.895 257H620.882V255H615.895V257ZM625.869 257H630.856V255H625.869V257ZM635.843 257H640.83V255H635.843V257ZM645.817 257H650.804V255H645.817V257ZM655.791 257H660.778V255H655.791V257ZM665.765 257H670.752V255H665.765V257ZM675.739 257H680.726V255H675.739V257ZM685.713 257H690.7V255H685.713V257ZM695.687 257H700.674V255H695.687V257ZM705.661 257H710.648V255H705.661V257ZM715.635 257H720.622V255H715.635V257ZM725.609 257H730.596V255H725.609V257ZM735.583 257H740.57V255H735.583V257ZM745.557 257H750.544V255H745.557V257ZM755.531 257H760.518V255H755.531V257ZM765.505 257H768V255H765.505V257ZM769 256V253.538H767V256H769ZM769 248.615V243.692H767V248.615H769ZM769 238.769V233.846H767V238.769H769ZM769 228.923V224H767V228.923H769ZM769 219.077V214.154H767V219.077H769ZM769 209.231V204.308H767V209.231H769ZM769 199.385V194.462H767V199.385H769ZM769 189.538V184.615H767V189.538H769ZM769 179.692V174.769H767V179.692H769ZM769 169.846V164.923H767V169.846H769ZM769 160V155.077H767V160H769ZM769 150.154V145.231H767V150.154H769ZM769 140.308V135.385H767V140.308H769ZM769 130.461V125.538H767V130.461H769ZM769 120.615V115.692H767V120.615H769ZM769 110.769V105.846H767V110.769H769ZM769 100.923V95.9999H767V100.923H769ZM769 91.0769V86.1538H767V91.0769H769ZM769 81.2307V76.3076H767V81.2307H769ZM769 71.3845V66.4615H767V71.3845H769ZM769 61.5384V56.6153H767V61.5384H769ZM769 51.6922V46.7691H767V51.6922H769ZM769 41.8461V36.923H767V41.8461H769ZM769 31.9999V27.0768H767V31.9999H769ZM769 22.1537V17.2307H767V22.1537H769ZM769 12.3076V7.38449H767V12.3076H769ZM769 2.46141V0H767V2.46141H769ZM768 -1H765.506V1H768V-1ZM760.519 -1H755.532V1H760.519V-1ZM750.545 -1H745.558V1H750.545V-1ZM740.571 -1H735.584V1H740.571V-1ZM730.597 -1H725.61V1H730.597V-1ZM720.623 -1H715.636V1H720.623V-1ZM710.649 -1H705.662V1H710.649V-1ZM700.675 -1H695.688V1H700.675V-1ZM690.701 -1H685.714V1H690.701V-1ZM680.727 -1H675.74V1H680.727V-1ZM670.753 -1H665.766V1H670.753V-1ZM660.779 -1H655.792V1H660.779V-1ZM650.805 -1H645.818V1H650.805V-1ZM640.831 -1H635.844V1H640.831V-1ZM630.857 -1H625.87V1H630.857V-1ZM620.883 -1H615.896V1H620.883V-1ZM610.909 -1H605.922V1H610.909V-1ZM600.935 -1H595.948V1H600.935V-1ZM590.961 -1H585.974V1H590.961V-1ZM580.987 -1H576V1H580.987V-1ZM571.013 -1H566.026V1H571.013V-1ZM561.039 -1H556.052V1H561.039V-1ZM551.065 -1H546.078V1H551.065V-1ZM541.091 -1H536.104V1H541.091V-1ZM531.117 -1H526.13V1H531.117V-1ZM521.143 -1H516.156V1H521.143V-1ZM511.169 -1H506.182V1H511.169V-1ZM501.195 -1H496.208V1H501.195V-1ZM491.221 -1H486.234V1H491.221V-1ZM481.247 -1H476.26V1H481.247V-1ZM471.273 -1H466.286V1H471.273V-1ZM461.299 -1H456.312V1H461.299V-1ZM451.325 -1H446.338V1H451.325V-1ZM441.351 -1H436.364V1H441.351V-1ZM431.377 -1H426.39V1H431.377V-1ZM421.403 -1H416.416V1H421.403V-1ZM411.429 -1H406.442V1H411.429V-1ZM401.455 -1H396.468V1H401.455V-1ZM391.481 -1H386.494V1H391.481V-1ZM381.507 -1H376.52V1H381.507V-1ZM371.533 -1H366.546V1H371.533V-1ZM361.559 -1H356.572V1H361.559V-1ZM351.585 -1H346.598V1H351.585V-1ZM341.611 -1H336.624V1H341.611V-1ZM331.637 -1H326.65V1H331.637V-1ZM321.663 -1H316.676V1H321.663V-1ZM311.689 -1H306.702V1H311.689V-1ZM301.715 -1H296.728V1H301.715V-1ZM291.741 -1H286.754V1H291.741V-1ZM281.767 -1H276.78V1H281.767V-1ZM271.793 -1H266.806V1H271.793V-1ZM261.819 -1H256.832V1H261.819V-1ZM251.845 -1H246.858V1H251.845V-1ZM241.871 -1H236.884V1H241.871V-1ZM231.897 -1H226.91V1H231.897V-1ZM221.923 -1H216.936V1H221.923V-1ZM211.949 -1H206.962V1H211.949V-1ZM201.975 -1H196.988V1H201.975V-1ZM192.001 -1H187.014V1H192.001V-1ZM182.027 -1H177.04V1H182.027V-1ZM172.053 -1H167.066V1H172.053V-1ZM162.079 -1H157.092V1H162.079V-1ZM152.105 -1H147.118V1H152.105V-1ZM142.131 -1H137.144V1H142.131V-1ZM132.157 -1H127.17V1H132.157V-1ZM122.183 -1H117.196V1H122.183V-1ZM112.209 -1H107.222V1H112.209V-1ZM102.235 -1H97.2478V1H102.235V-1ZM92.2608 -1H87.2738V1H92.2608V-1ZM82.2868 -1H77.2998V1H82.2868V-1ZM72.3128 -1H67.3258V1H72.3128V-1ZM62.3388 -1H57.3518V1H62.3388V-1ZM52.3648 -1H47.3778V1H52.3648V-1ZM42.3908 -1H37.4038V1H42.3908V-1ZM32.4168 -1H27.4298V1H32.4168V-1ZM22.4428 -1H17.4558V1H22.4428V-1ZM12.4688 -1H7.48183V1H12.4688V-1ZM2.49481 -1H0V1H2.49481V-1Z" fill="#7F20D2"/>
<defs>
<clipPath id="clip0_5_1177">
<rect width="245.333" height="120" fill="white" transform="translate(261.333)"/>
</clipPath>
<clipPath id="clip1_5_1177">
<rect width="245.333" height="72" fill="white" transform="translate(522.667)"/>
</clipPath>
<clipPath id="clip2_5_1177">
<rect width="245.333" height="120" fill="white" transform="translate(261.333 136)"/>
</clipPath>
<clipPath id="clip3_5_1177">
<rect width="245.333" height="72" fill="white" transform="translate(522.667 136)"/>
</clipPath>
</defs>
</svg>
