<svg width="720" height="256" viewBox="0 0 720 256" fill="none" xmlns="http://www.w3.org/2000/svg">
<path d="M0 0H720V256H0V0Z" fill="#D9BCF2"/>
<rect x="73.1665" y="0.5" width="83" height="71" fill="white"/>
<path d="M99.8833 43H98.4067V30.3965H99.8833V43ZM107.187 42.9121C106.847 43.0996 106.399 43.1934 105.842 43.1934C104.266 43.1934 103.478 42.3145 103.478 40.5566V35.2305H101.931V34H103.478V31.8027L104.919 31.3369V34H107.187V35.2305H104.919V40.3018C104.919 40.9053 105.022 41.3359 105.227 41.5938C105.432 41.8516 105.772 41.9805 106.247 41.9805C106.61 41.9805 106.923 41.8809 107.187 41.6816V42.9121ZM116.345 38.8604H109.991C110.014 39.8623 110.284 40.6357 110.799 41.1807C111.315 41.7256 112.024 41.998 112.926 41.998C113.94 41.998 114.872 41.6641 115.721 40.9961V42.3496C114.93 42.9238 113.884 43.2109 112.583 43.2109C111.312 43.2109 110.313 42.8037 109.586 41.9893C108.86 41.1689 108.497 40.0176 108.497 38.5352C108.497 37.1348 108.892 35.9951 109.683 35.1162C110.48 34.2314 111.467 33.7891 112.645 33.7891C113.823 33.7891 114.734 34.1699 115.378 34.9316C116.023 35.6934 116.345 36.751 116.345 38.1045V38.8604ZM114.869 37.6387C114.863 36.8066 114.661 36.1592 114.262 35.6963C113.87 35.2334 113.322 35.002 112.619 35.002C111.939 35.002 111.362 35.2451 110.887 35.7314C110.413 36.2178 110.12 36.8535 110.008 37.6387H114.869ZM131.313 43H129.872V37.832C129.872 36.8359 129.716 36.1152 129.406 35.6699C129.101 35.2246 128.585 35.002 127.859 35.002C127.244 35.002 126.719 35.2832 126.286 35.8457C125.858 36.4082 125.644 37.082 125.644 37.8672V43H124.203V37.6562C124.203 35.8867 123.52 35.002 122.155 35.002C121.522 35.002 121 35.2686 120.59 35.8018C120.18 36.3291 119.975 37.0176 119.975 37.8672V43H118.534V34H119.975V35.4238H120.01C120.649 34.334 121.581 33.7891 122.805 33.7891C123.42 33.7891 123.957 33.9619 124.414 34.3076C124.871 34.6475 125.184 35.0957 125.354 35.6523C126.022 34.4102 127.018 33.7891 128.342 33.7891C130.323 33.7891 131.313 35.0107 131.313 37.4541V43Z" fill="black"/>
<rect x="73.1665" y="0.5" width="83" height="71" stroke="black" stroke-dasharray="5 5"/>
<rect x="318.5" y="0.5" width="83" height="119" fill="white"/>
<path d="M345.217 67H343.74V54.3965H345.217V67ZM352.521 66.9121C352.181 67.0996 351.732 67.1934 351.176 67.1934C349.6 67.1934 348.812 66.3145 348.812 64.5566V59.2305H347.265V58H348.812V55.8027L350.253 55.3369V58H352.521V59.2305H350.253V64.3018C350.253 64.9053 350.355 65.3359 350.561 65.5938C350.766 65.8516 351.105 65.9805 351.58 65.9805C351.943 65.9805 352.257 65.8809 352.521 65.6816V66.9121ZM361.679 62.8604H355.324C355.348 63.8623 355.617 64.6357 356.133 65.1807C356.648 65.7256 357.357 65.998 358.26 65.998C359.273 65.998 360.205 65.6641 361.055 64.9961V66.3496C360.264 66.9238 359.218 67.2109 357.917 67.2109C356.646 67.2109 355.646 66.8037 354.92 65.9893C354.193 65.1689 353.83 64.0176 353.83 62.5352C353.83 61.1348 354.226 59.9951 355.017 59.1162C355.813 58.2314 356.801 57.7891 357.979 57.7891C359.156 57.7891 360.067 58.1699 360.712 58.9316C361.356 59.6934 361.679 60.751 361.679 62.1045V62.8604ZM360.202 61.6387C360.196 60.8066 359.994 60.1592 359.596 59.6963C359.203 59.2334 358.655 59.002 357.952 59.002C357.272 59.002 356.695 59.2451 356.221 59.7314C355.746 60.2178 355.453 60.8535 355.342 61.6387H360.202ZM376.646 67H375.205V61.832C375.205 60.8359 375.05 60.1152 374.739 59.6699C374.435 59.2246 373.919 59.002 373.192 59.002C372.577 59.002 372.053 59.2832 371.619 59.8457C371.191 60.4082 370.978 61.082 370.978 61.8672V67H369.536V61.6562C369.536 59.8867 368.854 59.002 367.488 59.002C366.855 59.002 366.334 59.2686 365.924 59.8018C365.514 60.3291 365.309 61.0176 365.309 61.8672V67H363.867V58H365.309V59.4238H365.344C365.982 58.334 366.914 57.7891 368.139 57.7891C368.754 57.7891 369.29 57.9619 369.747 58.3076C370.204 58.6475 370.518 59.0957 370.688 59.6523C371.355 58.4102 372.352 57.7891 373.676 57.7891C375.656 57.7891 376.646 59.0107 376.646 61.4541V67Z" fill="black"/>
<rect x="318.5" y="0.5" width="83" height="119" stroke="black" stroke-dasharray="5 5"/>
<rect x="539.833" y="0.5" width="131" height="71" fill="white"/>
<path d="M590.55 43H589.073V30.3965H590.55V43ZM597.854 42.9121C597.514 43.0996 597.065 43.1934 596.509 43.1934C594.933 43.1934 594.145 42.3145 594.145 40.5566V35.2305H592.598V34H594.145V31.8027L595.586 31.3369V34H597.854V35.2305H595.586V40.3018C595.586 40.9053 595.688 41.3359 595.894 41.5938C596.099 41.8516 596.438 41.9805 596.913 41.9805C597.276 41.9805 597.59 41.8809 597.854 41.6816V42.9121ZM607.012 38.8604H600.657C600.681 39.8623 600.95 40.6357 601.466 41.1807C601.981 41.7256 602.69 41.998 603.593 41.998C604.606 41.998 605.538 41.6641 606.388 40.9961V42.3496C605.597 42.9238 604.551 43.2109 603.25 43.2109C601.979 43.2109 600.979 42.8037 600.253 41.9893C599.526 41.1689 599.163 40.0176 599.163 38.5352C599.163 37.1348 599.559 35.9951 600.35 35.1162C601.146 34.2314 602.134 33.7891 603.312 33.7891C604.489 33.7891 605.4 34.1699 606.045 34.9316C606.689 35.6934 607.012 36.751 607.012 38.1045V38.8604ZM605.535 37.6387C605.529 36.8066 605.327 36.1592 604.929 35.6963C604.536 35.2334 603.988 35.002 603.285 35.002C602.605 35.002 602.028 35.2451 601.554 35.7314C601.079 36.2178 600.786 36.8535 600.675 37.6387H605.535ZM621.979 43H620.538V37.832C620.538 36.8359 620.383 36.1152 620.072 35.6699C619.768 35.2246 619.252 35.002 618.525 35.002C617.91 35.002 617.386 35.2832 616.952 35.8457C616.524 36.4082 616.311 37.082 616.311 37.8672V43H614.869V37.6562C614.869 35.8867 614.187 35.002 612.821 35.002C612.188 35.002 611.667 35.2686 611.257 35.8018C610.847 36.3291 610.642 37.0176 610.642 37.8672V43H609.2V34H610.642V35.4238H610.677C611.315 34.334 612.247 33.7891 613.472 33.7891C614.087 33.7891 614.623 33.9619 615.08 34.3076C615.537 34.6475 615.851 35.0957 616.021 35.6523C616.688 34.4102 617.685 33.7891 619.009 33.7891C620.989 33.7891 621.979 35.0107 621.979 37.4541V43Z" fill="black"/>
<rect x="539.833" y="0.5" width="131" height="71" stroke="black" stroke-dasharray="5 5"/>
<rect x="73.1665" y="136.5" width="83" height="71" fill="white"/>
<path d="M99.8833 179H98.4067V166.396H99.8833V179ZM107.187 178.912C106.847 179.1 106.399 179.193 105.842 179.193C104.266 179.193 103.478 178.314 103.478 176.557V171.23H101.931V170H103.478V167.803L104.919 167.337V170H107.187V171.23H104.919V176.302C104.919 176.905 105.022 177.336 105.227 177.594C105.432 177.852 105.772 177.98 106.247 177.98C106.61 177.98 106.923 177.881 107.187 177.682V178.912ZM116.345 174.86H109.991C110.014 175.862 110.284 176.636 110.799 177.181C111.315 177.726 112.024 177.998 112.926 177.998C113.94 177.998 114.872 177.664 115.721 176.996V178.35C114.93 178.924 113.884 179.211 112.583 179.211C111.312 179.211 110.313 178.804 109.586 177.989C108.86 177.169 108.497 176.018 108.497 174.535C108.497 173.135 108.892 171.995 109.683 171.116C110.48 170.231 111.467 169.789 112.645 169.789C113.823 169.789 114.734 170.17 115.378 170.932C116.023 171.693 116.345 172.751 116.345 174.104V174.86ZM114.869 173.639C114.863 172.807 114.661 172.159 114.262 171.696C113.87 171.233 113.322 171.002 112.619 171.002C111.939 171.002 111.362 171.245 110.887 171.731C110.413 172.218 110.12 172.854 110.008 173.639H114.869ZM131.313 179H129.872V173.832C129.872 172.836 129.716 172.115 129.406 171.67C129.101 171.225 128.585 171.002 127.859 171.002C127.244 171.002 126.719 171.283 126.286 171.846C125.858 172.408 125.644 173.082 125.644 173.867V179H124.203V173.656C124.203 171.887 123.52 171.002 122.155 171.002C121.522 171.002 121 171.269 120.59 171.802C120.18 172.329 119.975 173.018 119.975 173.867V179H118.534V170H119.975V171.424H120.01C120.649 170.334 121.581 169.789 122.805 169.789C123.42 169.789 123.957 169.962 124.414 170.308C124.871 170.647 125.184 171.096 125.354 171.652C126.022 170.41 127.018 169.789 128.342 169.789C130.323 169.789 131.313 171.011 131.313 173.454V179Z" fill="black"/>
<rect x="73.1665" y="136.5" width="83" height="71" stroke="black" stroke-dasharray="5 5"/>
<rect x="318.5" y="136.5" width="83" height="119" fill="white"/>
<path d="M345.217 203H343.74V190.396H345.217V203ZM352.521 202.912C352.181 203.1 351.732 203.193 351.176 203.193C349.6 203.193 348.812 202.314 348.812 200.557V195.23H347.265V194H348.812V191.803L350.253 191.337V194H352.521V195.23H350.253V200.302C350.253 200.905 350.355 201.336 350.561 201.594C350.766 201.852 351.105 201.98 351.58 201.98C351.943 201.98 352.257 201.881 352.521 201.682V202.912ZM361.679 198.86H355.324C355.348 199.862 355.617 200.636 356.133 201.181C356.648 201.726 357.357 201.998 358.26 201.998C359.273 201.998 360.205 201.664 361.055 200.996V202.35C360.264 202.924 359.218 203.211 357.917 203.211C356.646 203.211 355.646 202.804 354.92 201.989C354.193 201.169 353.83 200.018 353.83 198.535C353.83 197.135 354.226 195.995 355.017 195.116C355.813 194.231 356.801 193.789 357.979 193.789C359.156 193.789 360.067 194.17 360.712 194.932C361.356 195.693 361.679 196.751 361.679 198.104V198.86ZM360.202 197.639C360.196 196.807 359.994 196.159 359.596 195.696C359.203 195.233 358.655 195.002 357.952 195.002C357.272 195.002 356.695 195.245 356.221 195.731C355.746 196.218 355.453 196.854 355.342 197.639H360.202ZM376.646 203H375.205V197.832C375.205 196.836 375.05 196.115 374.739 195.67C374.435 195.225 373.919 195.002 373.192 195.002C372.577 195.002 372.053 195.283 371.619 195.846C371.191 196.408 370.978 197.082 370.978 197.867V203H369.536V197.656C369.536 195.887 368.854 195.002 367.488 195.002C366.855 195.002 366.334 195.269 365.924 195.802C365.514 196.329 365.309 197.018 365.309 197.867V203H363.867V194H365.309V195.424H365.344C365.982 194.334 366.914 193.789 368.139 193.789C368.754 193.789 369.29 193.962 369.747 194.308C370.204 194.647 370.518 195.096 370.688 195.652C371.355 194.41 372.352 193.789 373.676 193.789C375.656 193.789 376.646 195.011 376.646 197.454V203Z" fill="black"/>
<rect x="318.5" y="136.5" width="83" height="119" stroke="black" stroke-dasharray="5 5"/>
<rect x="539.833" y="136.5" width="131" height="71" fill="white"/>
<path d="M590.55 179H589.073V166.396H590.55V179ZM597.854 178.912C597.514 179.1 597.065 179.193 596.509 179.193C594.933 179.193 594.145 178.314 594.145 176.557V171.23H592.598V170H594.145V167.803L595.586 167.337V170H597.854V171.23H595.586V176.302C595.586 176.905 595.688 177.336 595.894 177.594C596.099 177.852 596.438 177.98 596.913 177.98C597.276 177.98 597.59 177.881 597.854 177.682V178.912ZM607.012 174.86H600.657C600.681 175.862 600.95 176.636 601.466 177.181C601.981 177.726 602.69 177.998 603.593 177.998C604.606 177.998 605.538 177.664 606.388 176.996V178.35C605.597 178.924 604.551 179.211 603.25 179.211C601.979 179.211 600.979 178.804 600.253 177.989C599.526 177.169 599.163 176.018 599.163 174.535C599.163 173.135 599.559 171.995 600.35 171.116C601.146 170.231 602.134 169.789 603.312 169.789C604.489 169.789 605.4 170.17 606.045 170.932C606.689 171.693 607.012 172.751 607.012 174.104V174.86ZM605.535 173.639C605.529 172.807 605.327 172.159 604.929 171.696C604.536 171.233 603.988 171.002 603.285 171.002C602.605 171.002 602.028 171.245 601.554 171.731C601.079 172.218 600.786 172.854 600.675 173.639H605.535ZM621.979 179H620.538V173.832C620.538 172.836 620.383 172.115 620.072 171.67C619.768 171.225 619.252 171.002 618.525 171.002C617.91 171.002 617.386 171.283 616.952 171.846C616.524 172.408 616.311 173.082 616.311 173.867V179H614.869V173.656C614.869 171.887 614.187 171.002 612.821 171.002C612.188 171.002 611.667 171.269 611.257 171.802C610.847 172.329 610.642 173.018 610.642 173.867V179H609.2V170H610.642V171.424H610.677C611.315 170.334 612.247 169.789 613.472 169.789C614.087 169.789 614.623 169.962 615.08 170.308C615.537 170.647 615.851 171.096 616.021 171.652C616.688 170.41 617.685 169.789 619.009 169.789C620.989 169.789 621.979 171.011 621.979 173.454V179Z" fill="black"/>
<rect x="539.833" y="136.5" width="131" height="71" stroke="black" stroke-dasharray="5 5"/>
<path d="M0 0V-0.5H-0.5V0H0ZM720 0H720.5V-0.5H720V0ZM720 256V256.5H720.5V256H720ZM0 256H-0.5V256.5H0V256ZM-0.5 0V2.46154H0.5V0H-0.5ZM-0.5 7.38462V12.3077H0.5V7.38462H-0.5ZM-0.5 17.2308V22.1538H0.5V17.2308H-0.5ZM-0.5 27.0769V32H0.5V27.0769H-0.5ZM-0.5 36.9231V41.8462H0.5V36.9231H-0.5ZM-0.5 46.7692V51.6923H0.5V46.7692H-0.5ZM-0.5 56.6154V61.5385H0.5V56.6154H-0.5ZM-0.5 66.4615V71.3846H0.5V66.4615H-0.5ZM-0.5 76.3077V81.2308H0.5V76.3077H-0.5ZM-0.5 86.1539V91.0769H0.5V86.1539H-0.5ZM-0.5 96V100.923H0.5V96H-0.5ZM-0.5 105.846V110.769H0.5V105.846H-0.5ZM-0.5 115.692V120.615H0.5V115.692H-0.5ZM-0.5 125.539V130.462H0.5V125.539H-0.5ZM-0.5 135.385V140.308H0.5V135.385H-0.5ZM-0.5 145.231V150.154H0.5V145.231H-0.5ZM-0.5 155.077V160H0.5V155.077H-0.5ZM-0.5 164.923V169.846H0.5V164.923H-0.5ZM-0.5 174.769V179.692H0.5V174.769H-0.5ZM-0.5 184.615V189.539H0.5V184.615H-0.5ZM-0.5 194.462V199.385H0.5V194.462H-0.5ZM-0.5 204.308V209.231H0.5V204.308H-0.5ZM-0.5 214.154V219.077H0.5V214.154H-0.5ZM-0.5 224V228.923H0.5V224H-0.5ZM-0.5 233.846V238.769H0.5V233.846H-0.5ZM-0.5 243.692V248.616H0.5V243.692H-0.5ZM-0.5 253.539V256H0.5V253.539H-0.5ZM0 256.5H2.5V255.5H0V256.5ZM7.5 256.5H12.5V255.5H7.5V256.5ZM17.5 256.5H22.5V255.5H17.5V256.5ZM27.5 256.5H32.5V255.5H27.5V256.5ZM37.5 256.5H42.5V255.5H37.5V256.5ZM47.5 256.5H52.5V255.5H47.5V256.5ZM57.5 256.5H62.5V255.5H57.5V256.5ZM67.5 256.5H72.5V255.5H67.5V256.5ZM77.5 256.5H82.5V255.5H77.5V256.5ZM87.5 256.5H92.5V255.5H87.5V256.5ZM97.5 256.5H102.5V255.5H97.5V256.5ZM107.5 256.5H112.5V255.5H107.5V256.5ZM117.5 256.5H122.5V255.5H117.5V256.5ZM127.5 256.5H132.5V255.5H127.5V256.5ZM137.5 256.5H142.5V255.5H137.5V256.5ZM147.5 256.5H152.5V255.5H147.5V256.5ZM157.5 256.5H162.5V255.5H157.5V256.5ZM167.5 256.5H172.5V255.5H167.5V256.5ZM177.5 256.5H182.5V255.5H177.5V256.5ZM187.5 256.5H192.5V255.5H187.5V256.5ZM197.5 256.5H202.5V255.5H197.5V256.5ZM207.5 256.5H212.5V255.5H207.5V256.5ZM217.5 256.5H222.5V255.5H217.5V256.5ZM227.5 256.5H232.5V255.5H227.5V256.5ZM237.5 256.5H242.5V255.5H237.5V256.5ZM247.5 256.5H252.5V255.5H247.5V256.5ZM257.5 256.5H262.5V255.5H257.5V256.5ZM267.5 256.5H272.5V255.5H267.5V256.5ZM277.5 256.5H282.5V255.5H277.5V256.5ZM287.5 256.5H292.5V255.5H287.5V256.5ZM297.5 256.5H302.5V255.5H297.5V256.5ZM307.5 256.5H312.5V255.5H307.5V256.5ZM317.5 256.5H322.5V255.5H317.5V256.5ZM327.5 256.5H332.5V255.5H327.5V256.5ZM337.5 256.5H342.5V255.5H337.5V256.5ZM347.5 256.5H352.5V255.5H347.5V256.5ZM357.5 256.5H362.5V255.5H357.5V256.5ZM367.5 256.5H372.5V255.5H367.5V256.5ZM377.5 256.5H382.5V255.5H377.5V256.5ZM387.5 256.5H392.5V255.5H387.5V256.5ZM397.5 256.5H402.5V255.5H397.5V256.5ZM407.5 256.5H412.5V255.5H407.5V256.5ZM417.5 256.5H422.5V255.5H417.5V256.5ZM427.5 256.5H432.5V255.5H427.5V256.5ZM437.5 256.5H442.5V255.5H437.5V256.5ZM447.5 256.5H452.5V255.5H447.5V256.5ZM457.5 256.5H462.5V255.5H457.5V256.5ZM467.5 256.5H472.5V255.5H467.5V256.5ZM477.5 256.5H482.5V255.5H477.5V256.5ZM487.5 256.5H492.5V255.5H487.5V256.5ZM497.5 256.5H502.5V255.5H497.5V256.5ZM507.5 256.5H512.5V255.5H507.5V256.5ZM517.5 256.5H522.5V255.5H517.5V256.5ZM527.5 256.5H532.5V255.5H527.5V256.5ZM537.5 256.5H542.5V255.5H537.5V256.5ZM547.5 256.5H552.5V255.5H547.5V256.5ZM557.5 256.5H562.5V255.5H557.5V256.5ZM567.5 256.5H572.5V255.5H567.5V256.5ZM577.5 256.5H582.5V255.5H577.5V256.5ZM587.5 256.5H592.5V255.5H587.5V256.5ZM597.5 256.5H602.5V255.5H597.5V256.5ZM607.5 256.5H612.5V255.5H607.5V256.5ZM617.5 256.5H622.5V255.5H617.5V256.5ZM627.5 256.5H632.5V255.5H627.5V256.5ZM637.5 256.5H642.5V255.5H637.5V256.5ZM647.5 256.5H652.5V255.5H647.5V256.5ZM657.5 256.5H662.5V255.5H657.5V256.5ZM667.5 256.5H672.5V255.5H667.5V256.5ZM677.5 256.5H682.5V255.5H677.5V256.5ZM687.5 256.5H692.5V255.5H687.5V256.5ZM697.5 256.5H702.5V255.5H697.5V256.5ZM707.5 256.5H712.5V255.5H707.5V256.5ZM717.5 256.5H720V255.5H717.5V256.5ZM720.5 256V253.538H719.5V256H720.5ZM720.5 248.615V243.692H719.5V248.615H720.5ZM720.5 238.769V233.846H719.5V238.769H720.5ZM720.5 228.923V224H719.5V228.923H720.5ZM720.5 219.077V214.154H719.5V219.077H720.5ZM720.5 209.231V204.308H719.5V209.231H720.5ZM720.5 199.385V194.462H719.5V199.385H720.5ZM720.5 189.538V184.615H719.5V189.538H720.5ZM720.5 179.692V174.769H719.5V179.692H720.5ZM720.5 169.846V164.923H719.5V169.846H720.5ZM720.5 160V155.077H719.5V160H720.5ZM720.5 150.154V145.231H719.5V150.154H720.5ZM720.5 140.308V135.385H719.5V140.308H720.5ZM720.5 130.461V125.538H719.5V130.461H720.5ZM720.5 120.615V115.692H719.5V120.615H720.5ZM720.5 110.769V105.846H719.5V110.769H720.5ZM720.5 100.923V95.9999H719.5V100.923H720.5ZM720.5 91.0769V86.1538H719.5V91.0769H720.5ZM720.5 81.2307V76.3076H719.5V81.2307H720.5ZM720.5 71.3845V66.4615H719.5V71.3845H720.5ZM720.5 61.5384V56.6153H719.5V61.5384H720.5ZM720.5 51.6922V46.7691H719.5V51.6922H720.5ZM720.5 41.8461V36.923H719.5V41.8461H720.5ZM720.5 31.9999V27.0768H719.5V31.9999H720.5ZM720.5 22.1537V17.2307H719.5V22.1537H720.5ZM720.5 12.3076V7.38449H719.5V12.3076H720.5ZM720.5 2.46141V0H719.5V2.46141H720.5ZM720 -0.5H717.5V0.5H720V-0.5ZM712.5 -0.5H707.5V0.5H712.5V-0.5ZM702.5 -0.5H697.5V0.5H702.5V-0.5ZM692.5 -0.5H687.5V0.5H692.5V-0.5ZM682.5 -0.5H677.5V0.5H682.5V-0.5ZM672.5 -0.5H667.5V0.5H672.5V-0.5ZM662.5 -0.5H657.5V0.5H662.5V-0.5ZM652.5 -0.5H647.5V0.5H652.5V-0.5ZM642.5 -0.5H637.5V0.5H642.5V-0.5ZM632.5 -0.5H627.5V0.5H632.5V-0.5ZM622.5 -0.5H617.5V0.5H622.5V-0.5ZM612.5 -0.5H607.5V0.5H612.5V-0.5ZM602.5 -0.5H597.5V0.5H602.5V-0.5ZM592.5 -0.5H587.5V0.5H592.5V-0.5ZM582.5 -0.5H577.5V0.5H582.5V-0.5ZM572.5 -0.5H567.5V0.5H572.5V-0.5ZM562.5 -0.5H557.5V0.5H562.5V-0.5ZM552.5 -0.5H547.5V0.5H552.5V-0.5ZM542.5 -0.5H537.5V0.5H542.5V-0.5ZM532.5 -0.5H527.5V0.5H532.5V-0.5ZM522.5 -0.5H517.5V0.5H522.5V-0.5ZM512.5 -0.5H507.5V0.5H512.5V-0.5ZM502.5 -0.5H497.5V0.5H502.5V-0.5ZM492.5 -0.5H487.5V0.5H492.5V-0.5ZM482.5 -0.5H477.5V0.5H482.5V-0.5ZM472.5 -0.5H467.5V0.5H472.5V-0.5ZM462.5 -0.5H457.5V0.5H462.5V-0.5ZM452.5 -0.5H447.5V0.5H452.5V-0.5ZM442.5 -0.5H437.5V0.5H442.5V-0.5ZM432.5 -0.5H427.5V0.5H432.5V-0.5ZM422.5 -0.5H417.5V0.5H422.5V-0.5ZM412.5 -0.5H407.5V0.5H412.5V-0.5ZM402.5 -0.5H397.5V0.5H402.5V-0.5ZM392.5 -0.5H387.5V0.5H392.5V-0.5ZM382.5 -0.5H377.5V0.5H382.5V-0.5ZM372.5 -0.5H367.5V0.5H372.5V-0.5ZM362.5 -0.5H357.5V0.5H362.5V-0.5ZM352.5 -0.5H347.5V0.5H352.5V-0.5ZM342.5 -0.5H337.5V0.5H342.5V-0.5ZM332.5 -0.5H327.5V0.5H332.5V-0.5ZM322.5 -0.5H317.5V0.5H322.5V-0.5ZM312.5 -0.5H307.5V0.5H312.5V-0.5ZM302.5 -0.5H297.5V0.5H302.5V-0.5ZM292.5 -0.5H287.5V0.5H292.5V-0.5ZM282.5 -0.5H277.5V0.5H282.5V-0.5ZM272.5 -0.5H267.5V0.5H272.5V-0.5ZM262.5 -0.5H257.5V0.5H262.5V-0.5ZM252.5 -0.5H247.5V0.5H252.5V-0.5ZM242.5 -0.5H237.5V0.5H242.5V-0.5ZM232.5 -0.5H227.5V0.5H232.5V-0.5ZM222.5 -0.5H217.5V0.5H222.5V-0.5ZM212.5 -0.5H207.5V0.5H212.5V-0.5ZM202.5 -0.5H197.5V0.5H202.5V-0.5ZM192.5 -0.5H187.5V0.5H192.5V-0.5ZM182.5 -0.5H177.5V0.5H182.5V-0.5ZM172.5 -0.5H167.5V0.5H172.5V-0.5ZM162.5 -0.5H157.5V0.5H162.5V-0.5ZM152.5 -0.5H147.5V0.5H152.5V-0.5ZM142.5 -0.5H137.5V0.5H142.5V-0.5ZM132.5 -0.5H127.5V0.5H132.5V-0.5ZM122.5 -0.5H117.5V0.5H122.5V-0.5ZM112.5 -0.5H107.5V0.5H112.5V-0.5ZM102.5 -0.5H97.5V0.5H102.5V-0.5ZM92.5 -0.5H87.5V0.5H92.5V-0.5ZM82.5 -0.5H77.5V0.5H82.5V-0.5ZM72.5 -0.5H67.5V0.5H72.5V-0.5ZM62.5 -0.5H57.5V0.5H62.5V-0.5ZM52.5 -0.5H47.5V0.5H52.5V-0.5ZM42.5 -0.5H37.5V0.5H42.5V-0.5ZM32.5 -0.5H27.5V0.5H32.5V-0.5ZM22.5 -0.5H17.5V0.5H22.5V-0.5ZM12.5 -0.5H7.50001V0.5H12.5V-0.5ZM2.49999 -0.5H0V0.5H2.49999V-0.5ZM0 0V-1H-1V0H0ZM720 0H721V-1H720V0ZM720 256V257H721V256H720ZM0 256H-1V257H0V256ZM-1 0V2.46154H1V0H-1ZM-1 7.38462V12.3077H1V7.38462H-1ZM-1 17.2308V22.1538H1V17.2308H-1ZM-1 27.0769V32H1V27.0769H-1ZM-1 36.9231V41.8462H1V36.9231H-1ZM-1 46.7692V51.6923H1V46.7692H-1ZM-1 56.6154V61.5385H1V56.6154H-1ZM-1 66.4615V71.3846H1V66.4615H-1ZM-1 76.3077V81.2308H1V76.3077H-1ZM-1 86.1539V91.0769H1V86.1539H-1ZM-1 96V100.923H1V96H-1ZM-1 105.846V110.769H1V105.846H-1ZM-1 115.692V120.615H1V115.692H-1ZM-1 125.539V130.462H1V125.539H-1ZM-1 135.385V140.308H1V135.385H-1ZM-1 145.231V150.154H1V145.231H-1ZM-1 155.077V160H1V155.077H-1ZM-1 164.923V169.846H1V164.923H-1ZM-1 174.769V179.692H1V174.769H-1ZM-1 184.615V189.539H1V184.615H-1ZM-1 194.462V199.385H1V194.462H-1ZM-1 204.308V209.231H1V204.308H-1ZM-1 214.154V219.077H1V214.154H-1ZM-1 224V228.923H1V224H-1ZM-1 233.846V238.769H1V233.846H-1ZM-1 243.692V248.616H1V243.692H-1ZM-1 253.539V256H1V253.539H-1ZM0 257H2.5V255H0V257ZM7.5 257H12.5V255H7.5V257ZM17.5 257H22.5V255H17.5V257ZM27.5 257H32.5V255H27.5V257ZM37.5 257H42.5V255H37.5V257ZM47.5 257H52.5V255H47.5V257ZM57.5 257H62.5V255H57.5V257ZM67.5 257H72.5V255H67.5V257ZM77.5 257H82.5V255H77.5V257ZM87.5 257H92.5V255H87.5V257ZM97.5 257H102.5V255H97.5V257ZM107.5 257H112.5V255H107.5V257ZM117.5 257H122.5V255H117.5V257ZM127.5 257H132.5V255H127.5V257ZM137.5 257H142.5V255H137.5V257ZM147.5 257H152.5V255H147.5V257ZM157.5 257H162.5V255H157.5V257ZM167.5 257H172.5V255H167.5V257ZM177.5 257H182.5V255H177.5V257ZM187.5 257H192.5V255H187.5V257ZM197.5 257H202.5V255H197.5V257ZM207.5 257H212.5V255H207.5V257ZM217.5 257H222.5V255H217.5V257ZM227.5 257H232.5V255H227.5V257ZM237.5 257H242.5V255H237.5V257ZM247.5 257H252.5V255H247.5V257ZM257.5 257H262.5V255H257.5V257ZM267.5 257H272.5V255H267.5V257ZM277.5 257H282.5V255H277.5V257ZM287.5 257H292.5V255H287.5V257ZM297.5 257H302.5V255H297.5V257ZM307.5 257H312.5V255H307.5V257ZM317.5 257H322.5V255H317.5V257ZM327.5 257H332.5V255H327.5V257ZM337.5 257H342.5V255H337.5V257ZM347.5 257H352.5V255H347.5V257ZM357.5 257H362.5V255H357.5V257ZM367.5 257H372.5V255H367.5V257ZM377.5 257H382.5V255H377.5V257ZM387.5 257H392.5V255H387.5V257ZM397.5 257H402.5V255H397.5V257ZM407.5 257H412.5V255H407.5V257ZM417.5 257H422.5V255H417.5V257ZM427.5 257H432.5V255H427.5V257ZM437.5 257H442.5V255H437.5V257ZM447.5 257H452.5V255H447.5V257ZM457.5 257H462.5V255H457.5V257ZM467.5 257H472.5V255H467.5V257ZM477.5 257H482.5V255H477.5V257ZM487.5 257H492.5V255H487.5V257ZM497.5 257H502.5V255H497.5V257ZM507.5 257H512.5V255H507.5V257ZM517.5 257H522.5V255H517.5V257ZM527.5 257H532.5V255H527.5V257ZM537.5 257H542.5V255H537.5V257ZM547.5 257H552.5V255H547.5V257ZM557.5 257H562.5V255H557.5V257ZM567.5 257H572.5V255H567.5V257ZM577.5 257H582.5V255H577.5V257ZM587.5 257H592.5V255H587.5V257ZM597.5 257H602.5V255H597.5V257ZM607.5 257H612.5V255H607.5V257ZM617.5 257H622.5V255H617.5V257ZM627.5 257H632.5V255H627.5V257ZM637.5 257H642.5V255H637.5V257ZM647.5 257H652.5V255H647.5V257ZM657.5 257H662.5V255H657.5V257ZM667.5 257H672.5V255H667.5V257ZM677.5 257H682.5V255H677.5V257ZM687.5 257H692.5V255H687.5V257ZM697.5 257H702.5V255H697.5V257ZM707.5 257H712.5V255H707.5V257ZM717.5 257H720V255H717.5V257ZM721 256V253.538H719V256H721ZM721 248.615V243.692H719V248.615H721ZM721 238.769V233.846H719V238.769H721ZM721 228.923V224H719V228.923H721ZM721 219.077V214.154H719V219.077H721ZM721 209.231V204.308H719V209.231H721ZM721 199.385V194.462H719V199.385H721ZM721 189.538V184.615H719V189.538H721ZM721 179.692V174.769H719V179.692H721ZM721 169.846V164.923H719V169.846H721ZM721 160V155.077H719V160H721ZM721 150.154V145.231H719V150.154H721ZM721 140.308V135.385H719V140.308H721ZM721 130.461V125.538H719V130.461H721ZM721 120.615V115.692H719V120.615H721ZM721 110.769V105.846H719V110.769H721ZM721 100.923V95.9999H719V100.923H721ZM721 91.0769V86.1538H719V91.0769H721ZM721 81.2307V76.3076H719V81.2307H721ZM721 71.3845V66.4615H719V71.3845H721ZM721 61.5384V56.6153H719V61.5384H721ZM721 51.6922V46.7691H719V51.6922H721ZM721 41.8461V36.923H719V41.8461H721ZM721 31.9999V27.0768H719V31.9999H721ZM721 22.1537V17.2307H719V22.1537H721ZM721 12.3076V7.38449H719V12.3076H721ZM721 2.46141V0H719V2.46141H721ZM720 -1H717.5V1H720V-1ZM712.5 -1H707.5V1H712.5V-1ZM702.5 -1H697.5V1H702.5V-1ZM692.5 -1H687.5V1H692.5V-1ZM682.5 -1H677.5V1H682.5V-1ZM672.5 -1H667.5V1H672.5V-1ZM662.5 -1H657.5V1H662.5V-1ZM652.5 -1H647.5V1H652.5V-1ZM642.5 -1H637.5V1H642.5V-1ZM632.5 -1H627.5V1H632.5V-1ZM622.5 -1H617.5V1H622.5V-1ZM612.5 -1H607.5V1H612.5V-1ZM602.5 -1H597.5V1H602.5V-1ZM592.5 -1H587.5V1H592.5V-1ZM582.5 -1H577.5V1H582.5V-1ZM572.5 -1H567.5V1H572.5V-1ZM562.5 -1H557.5V1H562.5V-1ZM552.5 -1H547.5V1H552.5V-1ZM542.5 -1H537.5V1H542.5V-1ZM532.5 -1H527.5V1H532.5V-1ZM522.5 -1H517.5V1H522.5V-1ZM512.5 -1H507.5V1H512.5V-1ZM502.5 -1H497.5V1H502.5V-1ZM492.5 -1H487.5V1H492.5V-1ZM482.5 -1H477.5V1H482.5V-1ZM472.5 -1H467.5V1H472.5V-1ZM462.5 -1H457.5V1H462.5V-1ZM452.5 -1H447.5V1H452.5V-1ZM442.5 -1H437.5V1H442.5V-1ZM432.5 -1H427.5V1H432.5V-1ZM422.5 -1H417.5V1H422.5V-1ZM412.5 -1H407.5V1H412.5V-1ZM402.5 -1H397.5V1H402.5V-1ZM392.5 -1H387.5V1H392.5V-1ZM382.5 -1H377.5V1H382.5V-1ZM372.5 -1H367.5V1H372.5V-1ZM362.5 -1H357.5V1H362.5V-1ZM352.5 -1H347.5V1H352.5V-1ZM342.5 -1H337.5V1H342.5V-1ZM332.5 -1H327.5V1H332.5V-1ZM322.5 -1H317.5V1H322.5V-1ZM312.5 -1H307.5V1H312.5V-1ZM302.5 -1H297.5V1H302.5V-1ZM292.5 -1H287.5V1H292.5V-1ZM282.5 -1H277.5V1H282.5V-1ZM272.5 -1H267.5V1H272.5V-1ZM262.5 -1H257.5V1H262.5V-1ZM252.5 -1H247.5V1H252.5V-1ZM242.5 -1H237.5V1H242.5V-1ZM232.5 -1H227.5V1H232.5V-1ZM222.5 -1H217.5V1H222.5V-1ZM212.5 -1H207.5V1H212.5V-1ZM202.5 -1H197.5V1H202.5V-1ZM192.5 -1H187.5V1H192.5V-1ZM182.5 -1H177.5V1H182.5V-1ZM172.5 -1H167.5V1H172.5V-1ZM162.5 -1H157.5V1H162.5V-1ZM152.5 -1H147.5V1H152.5V-1ZM142.5 -1H137.5V1H142.5V-1ZM132.5 -1H127.5V1H132.5V-1ZM122.5 -1H117.5V1H122.5V-1ZM112.5 -1H107.5V1H112.5V-1ZM102.5 -1H97.5V1H102.5V-1ZM92.5 -1H87.5V1H92.5V-1ZM82.5 -1H77.5V1H82.5V-1ZM72.5 -1H67.5V1H72.5V-1ZM62.5 -1H57.5V1H62.5V-1ZM52.5 -1H47.5V1H52.5V-1ZM42.5 -1H37.5V1H42.5V-1ZM32.5 -1H27.5V1H32.5V-1ZM22.5 -1H17.5V1H22.5V-1ZM12.5 -1H7.50001V1H12.5V-1ZM2.49999 -1H0V1H2.49999V-1Z" fill="#7F20D2"/>
</svg>
