<svg width="720" height="250" viewBox="0 0 720 250" fill="none" xmlns="http://www.w3.org/2000/svg">
<path d="M0 0H720V250H0V0Z" fill="#D9BCF2"/>
<rect x="75.1665" y="0.5" width="79" height="68" fill="white"/>
<path d="M101.526 41H100.213V29.7969H101.526V41ZM108.018 40.9219C107.716 41.0885 107.318 41.1719 106.823 41.1719C105.422 41.1719 104.721 40.3906 104.721 38.8281V34.0938H103.346V33H104.721V31.0469L106.002 30.6328V33H108.018V34.0938H106.002V38.6016C106.002 39.138 106.094 39.5208 106.276 39.75C106.458 39.9792 106.76 40.0938 107.182 40.0938C107.505 40.0938 107.784 40.0052 108.018 39.8281V40.9219ZM116.159 37.3203H110.51C110.531 38.2109 110.771 38.8984 111.229 39.3828C111.687 39.8672 112.318 40.1094 113.12 40.1094C114.021 40.1094 114.849 39.8125 115.604 39.2188V40.4219C114.901 40.9323 113.971 41.1875 112.815 41.1875C111.685 41.1875 110.797 40.8255 110.151 40.1016C109.505 39.3724 109.182 38.349 109.182 37.0312C109.182 35.7865 109.534 34.7734 110.237 33.9922C110.945 33.2057 111.823 32.8125 112.87 32.8125C113.917 32.8125 114.726 33.151 115.299 33.8281C115.872 34.5052 116.159 35.4453 116.159 36.6484V37.3203ZM114.846 36.2344C114.841 35.4948 114.661 34.9193 114.307 34.5078C113.958 34.0964 113.471 33.8906 112.846 33.8906C112.242 33.8906 111.729 34.1068 111.307 34.5391C110.885 34.9714 110.625 35.5365 110.526 36.2344H114.846ZM129.463 41H128.182V36.4062C128.182 35.5208 128.044 34.8802 127.768 34.4844C127.497 34.0885 127.039 33.8906 126.393 33.8906C125.846 33.8906 125.38 34.1406 124.995 34.6406C124.614 35.1406 124.424 35.7396 124.424 36.4375V41H123.143V36.25C123.143 34.6771 122.536 33.8906 121.323 33.8906C120.76 33.8906 120.297 34.1276 119.932 34.6016C119.568 35.0703 119.385 35.6823 119.385 36.4375V41H118.104V33H119.385V34.2656H119.417C119.984 33.2969 120.812 32.8125 121.901 32.8125C122.448 32.8125 122.924 32.9661 123.331 33.2734C123.737 33.5755 124.015 33.974 124.167 34.4688C124.76 33.3646 125.646 32.8125 126.823 32.8125C128.583 32.8125 129.463 33.8984 129.463 36.0703V41Z" fill="black"/>
<rect x="75.1665" y="0.5" width="79" height="68" stroke="black" stroke-dasharray="5 5"/>
<rect x="320.5" y="0.5" width="79" height="116" fill="white"/>
<path d="M346.859 65H345.547V53.7969H346.859V65ZM353.352 64.9219C353.049 65.0885 352.651 65.1719 352.156 65.1719C350.755 65.1719 350.055 64.3906 350.055 62.8281V58.0938H348.68V57H350.055V55.0469L351.336 54.6328V57H353.352V58.0938H351.336V62.6016C351.336 63.138 351.427 63.5208 351.609 63.75C351.792 63.9792 352.094 64.0938 352.516 64.0938C352.839 64.0938 353.117 64.0052 353.352 63.8281V64.9219ZM361.492 61.3203H355.844C355.865 62.2109 356.104 62.8984 356.562 63.3828C357.021 63.8672 357.651 64.1094 358.453 64.1094C359.354 64.1094 360.182 63.8125 360.938 63.2188V64.4219C360.234 64.9323 359.305 65.1875 358.148 65.1875C357.018 65.1875 356.13 64.8255 355.484 64.1016C354.839 63.3724 354.516 62.349 354.516 61.0312C354.516 59.7865 354.867 58.7734 355.57 57.9922C356.279 57.2057 357.156 56.8125 358.203 56.8125C359.25 56.8125 360.06 57.151 360.633 57.8281C361.206 58.5052 361.492 59.4453 361.492 60.6484V61.3203ZM360.18 60.2344C360.174 59.4948 359.995 58.9193 359.641 58.5078C359.292 58.0964 358.805 57.8906 358.18 57.8906C357.576 57.8906 357.062 58.1068 356.641 58.5391C356.219 58.9714 355.958 59.5365 355.859 60.2344H360.18ZM374.797 65H373.516V60.4062C373.516 59.5208 373.378 58.8802 373.102 58.4844C372.831 58.0885 372.372 57.8906 371.727 57.8906C371.18 57.8906 370.714 58.1406 370.328 58.6406C369.948 59.1406 369.758 59.7396 369.758 60.4375V65H368.477V60.25C368.477 58.6771 367.87 57.8906 366.656 57.8906C366.094 57.8906 365.63 58.1276 365.266 58.6016C364.901 59.0703 364.719 59.6823 364.719 60.4375V65H363.438V57H364.719V58.2656H364.75C365.318 57.2969 366.146 56.8125 367.234 56.8125C367.781 56.8125 368.258 56.9661 368.664 57.2734C369.07 57.5755 369.349 57.974 369.5 58.4688C370.094 57.3646 370.979 56.8125 372.156 56.8125C373.917 56.8125 374.797 57.8984 374.797 60.0703V65Z" fill="black"/>
<rect x="320.5" y="0.5" width="79" height="116" stroke="black" stroke-dasharray="5 5"/>
<rect x="541.833" y="0.5" width="127" height="68" fill="white"/>
<path d="M592.192 41H590.88V29.7969H592.192V41ZM598.685 40.9219C598.382 41.0885 597.984 41.1719 597.489 41.1719C596.088 41.1719 595.388 40.3906 595.388 38.8281V34.0938H594.013V33H595.388V31.0469L596.669 30.6328V33H598.685V34.0938H596.669V38.6016C596.669 39.138 596.76 39.5208 596.942 39.75C597.125 39.9792 597.427 40.0938 597.849 40.0938C598.172 40.0938 598.45 40.0052 598.685 39.8281V40.9219ZM606.825 37.3203H601.177C601.198 38.2109 601.437 38.8984 601.896 39.3828C602.354 39.8672 602.984 40.1094 603.786 40.1094C604.687 40.1094 605.515 39.8125 606.271 39.2188V40.4219C605.567 40.9323 604.638 41.1875 603.481 41.1875C602.351 41.1875 601.463 40.8255 600.817 40.1016C600.172 39.3724 599.849 38.349 599.849 37.0312C599.849 35.7865 600.2 34.7734 600.903 33.9922C601.612 33.2057 602.489 32.8125 603.536 32.8125C604.583 32.8125 605.393 33.151 605.966 33.8281C606.539 34.5052 606.825 35.4453 606.825 36.6484V37.3203ZM605.513 36.2344C605.507 35.4948 605.328 34.9193 604.974 34.5078C604.625 34.0964 604.138 33.8906 603.513 33.8906C602.909 33.8906 602.396 34.1068 601.974 34.5391C601.552 34.9714 601.291 35.5365 601.192 36.2344H605.513ZM620.13 41H618.849V36.4062C618.849 35.5208 618.711 34.8802 618.435 34.4844C618.164 34.0885 617.705 33.8906 617.06 33.8906C616.513 33.8906 616.047 34.1406 615.661 34.6406C615.281 35.1406 615.091 35.7396 615.091 36.4375V41H613.81V36.25C613.81 34.6771 613.203 33.8906 611.989 33.8906C611.427 33.8906 610.963 34.1276 610.599 34.6016C610.234 35.0703 610.052 35.6823 610.052 36.4375V41H608.771V33H610.052V34.2656H610.083C610.651 33.2969 611.479 32.8125 612.567 32.8125C613.114 32.8125 613.591 32.9661 613.997 33.2734C614.403 33.5755 614.682 33.974 614.833 34.4688C615.427 33.3646 616.312 32.8125 617.489 32.8125C619.25 32.8125 620.13 33.8984 620.13 36.0703V41Z" fill="black"/>
<rect x="541.833" y="0.5" width="127" height="68" stroke="black" stroke-dasharray="5 5"/>
<rect x="75.1665" y="133.5" width="79" height="68" fill="white"/>
<path d="M101.526 174H100.213V162.797H101.526V174ZM108.018 173.922C107.716 174.089 107.318 174.172 106.823 174.172C105.422 174.172 104.721 173.391 104.721 171.828V167.094H103.346V166H104.721V164.047L106.002 163.633V166H108.018V167.094H106.002V171.602C106.002 172.138 106.094 172.521 106.276 172.75C106.458 172.979 106.76 173.094 107.182 173.094C107.505 173.094 107.784 173.005 108.018 172.828V173.922ZM116.159 170.32H110.51C110.531 171.211 110.771 171.898 111.229 172.383C111.687 172.867 112.318 173.109 113.12 173.109C114.021 173.109 114.849 172.812 115.604 172.219V173.422C114.901 173.932 113.971 174.188 112.815 174.188C111.685 174.188 110.797 173.826 110.151 173.102C109.505 172.372 109.182 171.349 109.182 170.031C109.182 168.786 109.534 167.773 110.237 166.992C110.945 166.206 111.823 165.812 112.87 165.812C113.917 165.812 114.726 166.151 115.299 166.828C115.872 167.505 116.159 168.445 116.159 169.648V170.32ZM114.846 169.234C114.841 168.495 114.661 167.919 114.307 167.508C113.958 167.096 113.471 166.891 112.846 166.891C112.242 166.891 111.729 167.107 111.307 167.539C110.885 167.971 110.625 168.536 110.526 169.234H114.846ZM129.463 174H128.182V169.406C128.182 168.521 128.044 167.88 127.768 167.484C127.497 167.089 127.039 166.891 126.393 166.891C125.846 166.891 125.38 167.141 124.995 167.641C124.614 168.141 124.424 168.74 124.424 169.438V174H123.143V169.25C123.143 167.677 122.536 166.891 121.323 166.891C120.76 166.891 120.297 167.128 119.932 167.602C119.568 168.07 119.385 168.682 119.385 169.438V174H118.104V166H119.385V167.266H119.417C119.984 166.297 120.812 165.812 121.901 165.812C122.448 165.812 122.924 165.966 123.331 166.273C123.737 166.576 124.015 166.974 124.167 167.469C124.76 166.365 125.646 165.812 126.823 165.812C128.583 165.812 129.463 166.898 129.463 169.07V174Z" fill="black"/>
<rect x="75.1665" y="133.5" width="79" height="68" stroke="black" stroke-dasharray="5 5"/>
<rect x="320.5" y="133.5" width="79" height="116" fill="white"/>
<path d="M346.859 198H345.547V186.797H346.859V198ZM353.352 197.922C353.049 198.089 352.651 198.172 352.156 198.172C350.755 198.172 350.055 197.391 350.055 195.828V191.094H348.68V190H350.055V188.047L351.336 187.633V190H353.352V191.094H351.336V195.602C351.336 196.138 351.427 196.521 351.609 196.75C351.792 196.979 352.094 197.094 352.516 197.094C352.839 197.094 353.117 197.005 353.352 196.828V197.922ZM361.492 194.32H355.844C355.865 195.211 356.104 195.898 356.562 196.383C357.021 196.867 357.651 197.109 358.453 197.109C359.354 197.109 360.182 196.812 360.938 196.219V197.422C360.234 197.932 359.305 198.188 358.148 198.188C357.018 198.188 356.13 197.826 355.484 197.102C354.839 196.372 354.516 195.349 354.516 194.031C354.516 192.786 354.867 191.773 355.57 190.992C356.279 190.206 357.156 189.812 358.203 189.812C359.25 189.812 360.06 190.151 360.633 190.828C361.206 191.505 361.492 192.445 361.492 193.648V194.32ZM360.18 193.234C360.174 192.495 359.995 191.919 359.641 191.508C359.292 191.096 358.805 190.891 358.18 190.891C357.576 190.891 357.062 191.107 356.641 191.539C356.219 191.971 355.958 192.536 355.859 193.234H360.18ZM374.797 198H373.516V193.406C373.516 192.521 373.378 191.88 373.102 191.484C372.831 191.089 372.372 190.891 371.727 190.891C371.18 190.891 370.714 191.141 370.328 191.641C369.948 192.141 369.758 192.74 369.758 193.438V198H368.477V193.25C368.477 191.677 367.87 190.891 366.656 190.891C366.094 190.891 365.63 191.128 365.266 191.602C364.901 192.07 364.719 192.682 364.719 193.438V198H363.438V190H364.719V191.266H364.75C365.318 190.297 366.146 189.812 367.234 189.812C367.781 189.812 368.258 189.966 368.664 190.273C369.07 190.576 369.349 190.974 369.5 191.469C370.094 190.365 370.979 189.812 372.156 189.812C373.917 189.812 374.797 190.898 374.797 193.07V198Z" fill="black"/>
<rect x="320.5" y="133.5" width="79" height="116" stroke="black" stroke-dasharray="5 5"/>
<rect x="541.833" y="133.5" width="127" height="68" fill="white"/>
<path d="M592.192 174H590.88V162.797H592.192V174ZM598.685 173.922C598.382 174.089 597.984 174.172 597.489 174.172C596.088 174.172 595.388 173.391 595.388 171.828V167.094H594.013V166H595.388V164.047L596.669 163.633V166H598.685V167.094H596.669V171.602C596.669 172.138 596.76 172.521 596.942 172.75C597.125 172.979 597.427 173.094 597.849 173.094C598.172 173.094 598.45 173.005 598.685 172.828V173.922ZM606.825 170.32H601.177C601.198 171.211 601.437 171.898 601.896 172.383C602.354 172.867 602.984 173.109 603.786 173.109C604.687 173.109 605.515 172.812 606.271 172.219V173.422C605.567 173.932 604.638 174.188 603.481 174.188C602.351 174.188 601.463 173.826 600.817 173.102C600.172 172.372 599.849 171.349 599.849 170.031C599.849 168.786 600.2 167.773 600.903 166.992C601.612 166.206 602.489 165.812 603.536 165.812C604.583 165.812 605.393 166.151 605.966 166.828C606.539 167.505 606.825 168.445 606.825 169.648V170.32ZM605.513 169.234C605.507 168.495 605.328 167.919 604.974 167.508C604.625 167.096 604.138 166.891 603.513 166.891C602.909 166.891 602.396 167.107 601.974 167.539C601.552 167.971 601.291 168.536 601.192 169.234H605.513ZM620.13 174H618.849V169.406C618.849 168.521 618.711 167.88 618.435 167.484C618.164 167.089 617.705 166.891 617.06 166.891C616.513 166.891 616.047 167.141 615.661 167.641C615.281 168.141 615.091 168.74 615.091 169.438V174H613.81V169.25C613.81 167.677 613.203 166.891 611.989 166.891C611.427 166.891 610.963 167.128 610.599 167.602C610.234 168.07 610.052 168.682 610.052 169.438V174H608.771V166H610.052V167.266H610.083C610.651 166.297 611.479 165.812 612.567 165.812C613.114 165.812 613.591 165.966 613.997 166.273C614.403 166.576 614.682 166.974 614.833 167.469C615.427 166.365 616.312 165.812 617.489 165.812C619.25 165.812 620.13 166.898 620.13 169.07V174Z" fill="black"/>
<rect x="541.833" y="133.5" width="127" height="68" stroke="black" stroke-dasharray="5 5"/>
<path d="M0 0V-0.5H-0.5V0H0ZM720 0H720.5V-0.5H720V0ZM720 250V250.5H720.5V250H720ZM0 250H-0.5V250.5H0V250ZM-0.5 0V2.5H0.5V0H-0.5ZM-0.5 7.5V12.5H0.5V7.5H-0.5ZM-0.5 17.5V22.5H0.5V17.5H-0.5ZM-0.5 27.5V32.5H0.5V27.5H-0.5ZM-0.5 37.5V42.5H0.5V37.5H-0.5ZM-0.5 47.5V52.5H0.5V47.5H-0.5ZM-0.5 57.5V62.5H0.5V57.5H-0.5ZM-0.5 67.5V72.5H0.5V67.5H-0.5ZM-0.5 77.5V82.5H0.5V77.5H-0.5ZM-0.5 87.5V92.5H0.5V87.5H-0.5ZM-0.5 97.5V102.5H0.5V97.5H-0.5ZM-0.5 107.5V112.5H0.5V107.5H-0.5ZM-0.5 117.5V122.5H0.5V117.5H-0.5ZM-0.5 127.5V132.5H0.5V127.5H-0.5ZM-0.5 137.5V142.5H0.5V137.5H-0.5ZM-0.5 147.5V152.5H0.5V147.5H-0.5ZM-0.5 157.5V162.5H0.5V157.5H-0.5ZM-0.5 167.5V172.5H0.5V167.5H-0.5ZM-0.5 177.5V182.5H0.5V177.5H-0.5ZM-0.5 187.5V192.5H0.5V187.5H-0.5ZM-0.5 197.5V202.5H0.5V197.5H-0.5ZM-0.5 207.5V212.5H0.5V207.5H-0.5ZM-0.5 217.5V222.5H0.5V217.5H-0.5ZM-0.5 227.5V232.5H0.5V227.5H-0.5ZM-0.5 237.5V242.5H0.5V237.5H-0.5ZM-0.5 247.5V250H0.5V247.5H-0.5ZM0 250.5H2.5V249.5H0V250.5ZM7.5 250.5H12.5V249.5H7.5V250.5ZM17.5 250.5H22.5V249.5H17.5V250.5ZM27.5 250.5H32.5V249.5H27.5V250.5ZM37.5 250.5H42.5V249.5H37.5V250.5ZM47.5 250.5H52.5V249.5H47.5V250.5ZM57.5 250.5H62.5V249.5H57.5V250.5ZM67.5 250.5H72.5V249.5H67.5V250.5ZM77.5 250.5H82.5V249.5H77.5V250.5ZM87.5 250.5H92.5V249.5H87.5V250.5ZM97.5 250.5H102.5V249.5H97.5V250.5ZM107.5 250.5H112.5V249.5H107.5V250.5ZM117.5 250.5H122.5V249.5H117.5V250.5ZM127.5 250.5H132.5V249.5H127.5V250.5ZM137.5 250.5H142.5V249.5H137.5V250.5ZM147.5 250.5H152.5V249.5H147.5V250.5ZM157.5 250.5H162.5V249.5H157.5V250.5ZM167.5 250.5H172.5V249.5H167.5V250.5ZM177.5 250.5H182.5V249.5H177.5V250.5ZM187.5 250.5H192.5V249.5H187.5V250.5ZM197.5 250.5H202.5V249.5H197.5V250.5ZM207.5 250.5H212.5V249.5H207.5V250.5ZM217.5 250.5H222.5V249.5H217.5V250.5ZM227.5 250.5H232.5V249.5H227.5V250.5ZM237.5 250.5H242.5V249.5H237.5V250.5ZM247.5 250.5H252.5V249.5H247.5V250.5ZM257.5 250.5H262.5V249.5H257.5V250.5ZM267.5 250.5H272.5V249.5H267.5V250.5ZM277.5 250.5H282.5V249.5H277.5V250.5ZM287.5 250.5H292.5V249.5H287.5V250.5ZM297.5 250.5H302.5V249.5H297.5V250.5ZM307.5 250.5H312.5V249.5H307.5V250.5ZM317.5 250.5H322.5V249.5H317.5V250.5ZM327.5 250.5H332.5V249.5H327.5V250.5ZM337.5 250.5H342.5V249.5H337.5V250.5ZM347.5 250.5H352.5V249.5H347.5V250.5ZM357.5 250.5H362.5V249.5H357.5V250.5ZM367.5 250.5H372.5V249.5H367.5V250.5ZM377.5 250.5H382.5V249.5H377.5V250.5ZM387.5 250.5H392.5V249.5H387.5V250.5ZM397.5 250.5H402.5V249.5H397.5V250.5ZM407.5 250.5H412.5V249.5H407.5V250.5ZM417.5 250.5H422.5V249.5H417.5V250.5ZM427.5 250.5H432.5V249.5H427.5V250.5ZM437.5 250.5H442.5V249.5H437.5V250.5ZM447.5 250.5H452.5V249.5H447.5V250.5ZM457.5 250.5H462.5V249.5H457.5V250.5ZM467.5 250.5H472.5V249.5H467.5V250.5ZM477.5 250.5H482.5V249.5H477.5V250.5ZM487.5 250.5H492.5V249.5H487.5V250.5ZM497.5 250.5H502.5V249.5H497.5V250.5ZM507.5 250.5H512.5V249.5H507.5V250.5ZM517.5 250.5H522.5V249.5H517.5V250.5ZM527.5 250.5H532.5V249.5H527.5V250.5ZM537.5 250.5H542.5V249.5H537.5V250.5ZM547.5 250.5H552.5V249.5H547.5V250.5ZM557.5 250.5H562.5V249.5H557.5V250.5ZM567.5 250.5H572.5V249.5H567.5V250.5ZM577.5 250.5H582.5V249.5H577.5V250.5ZM587.5 250.5H592.5V249.5H587.5V250.5ZM597.5 250.5H602.5V249.5H597.5V250.5ZM607.5 250.5H612.5V249.5H607.5V250.5ZM617.5 250.5H622.5V249.5H617.5V250.5ZM627.5 250.5H632.5V249.5H627.5V250.5ZM637.5 250.5H642.5V249.5H637.5V250.5ZM647.5 250.5H652.5V249.5H647.5V250.5ZM657.5 250.5H662.5V249.5H657.5V250.5ZM667.5 250.5H672.5V249.5H667.5V250.5ZM677.5 250.5H682.5V249.5H677.5V250.5ZM687.5 250.5H692.5V249.5H687.5V250.5ZM697.5 250.5H702.5V249.5H697.5V250.5ZM707.5 250.5H712.5V249.5H707.5V250.5ZM717.5 250.5H720V249.5H717.5V250.5ZM720.5 250V247.5H719.5V250H720.5ZM720.5 242.5V237.5H719.5V242.5H720.5ZM720.5 232.5V227.5H719.5V232.5H720.5ZM720.5 222.5V217.5H719.5V222.5H720.5ZM720.5 212.5V207.5H719.5V212.5H720.5ZM720.5 202.5V197.5H719.5V202.5H720.5ZM720.5 192.5V187.5H719.5V192.5H720.5ZM720.5 182.5V177.5H719.5V182.5H720.5ZM720.5 172.5V167.5H719.5V172.5H720.5ZM720.5 162.5V157.5H719.5V162.5H720.5ZM720.5 152.5V147.5H719.5V152.5H720.5ZM720.5 142.5V137.5H719.5V142.5H720.5ZM720.5 132.5V127.5H719.5V132.5H720.5ZM720.5 122.5V117.5H719.5V122.5H720.5ZM720.5 112.5V107.5H719.5V112.5H720.5ZM720.5 102.5V97.5H719.5V102.5H720.5ZM720.5 92.5V87.5H719.5V92.5H720.5ZM720.5 82.5V77.5H719.5V82.5H720.5ZM720.5 72.5V67.5H719.5V72.5H720.5ZM720.5 62.5V57.5H719.5V62.5H720.5ZM720.5 52.5V47.5H719.5V52.5H720.5ZM720.5 42.5V37.5H719.5V42.5H720.5ZM720.5 32.5V27.5H719.5V32.5H720.5ZM720.5 22.5V17.5H719.5V22.5H720.5ZM720.5 12.5V7.49999H719.5V12.5H720.5ZM720.5 2.5V0H719.5V2.5H720.5ZM720 -0.5H717.5V0.5H720V-0.5ZM712.5 -0.5H707.5V0.5H712.5V-0.5ZM702.5 -0.5H697.5V0.5H702.5V-0.5ZM692.5 -0.5H687.5V0.5H692.5V-0.5ZM682.5 -0.5H677.5V0.5H682.5V-0.5ZM672.5 -0.5H667.5V0.5H672.5V-0.5ZM662.5 -0.5H657.5V0.5H662.5V-0.5ZM652.5 -0.5H647.5V0.5H652.5V-0.5ZM642.5 -0.5H637.5V0.5H642.5V-0.5ZM632.5 -0.5H627.5V0.5H632.5V-0.5ZM622.5 -0.5H617.5V0.5H622.5V-0.5ZM612.5 -0.5H607.5V0.5H612.5V-0.5ZM602.5 -0.5H597.5V0.5H602.5V-0.5ZM592.5 -0.5H587.5V0.5H592.5V-0.5ZM582.5 -0.5H577.5V0.5H582.5V-0.5ZM572.5 -0.5H567.5V0.5H572.5V-0.5ZM562.5 -0.5H557.5V0.5H562.5V-0.5ZM552.5 -0.5H547.5V0.5H552.5V-0.5ZM542.5 -0.5H537.5V0.5H542.5V-0.5ZM532.5 -0.5H527.5V0.5H532.5V-0.5ZM522.5 -0.5H517.5V0.5H522.5V-0.5ZM512.5 -0.5H507.5V0.5H512.5V-0.5ZM502.5 -0.5H497.5V0.5H502.5V-0.5ZM492.5 -0.5H487.5V0.5H492.5V-0.5ZM482.5 -0.5H477.5V0.5H482.5V-0.5ZM472.5 -0.5H467.5V0.5H472.5V-0.5ZM462.5 -0.5H457.5V0.5H462.5V-0.5ZM452.5 -0.5H447.5V0.5H452.5V-0.5ZM442.5 -0.5H437.5V0.5H442.5V-0.5ZM432.5 -0.5H427.5V0.5H432.5V-0.5ZM422.5 -0.5H417.5V0.5H422.5V-0.5ZM412.5 -0.5H407.5V0.5H412.5V-0.5ZM402.5 -0.5H397.5V0.5H402.5V-0.5ZM392.5 -0.5H387.5V0.5H392.5V-0.5ZM382.5 -0.5H377.5V0.5H382.5V-0.5ZM372.5 -0.5H367.5V0.5H372.5V-0.5ZM362.5 -0.5H357.5V0.5H362.5V-0.5ZM352.5 -0.5H347.5V0.5H352.5V-0.5ZM342.5 -0.5H337.5V0.5H342.5V-0.5ZM332.5 -0.5H327.5V0.5H332.5V-0.5ZM322.5 -0.5H317.5V0.5H322.5V-0.5ZM312.5 -0.5H307.5V0.5H312.5V-0.5ZM302.5 -0.5H297.5V0.5H302.5V-0.5ZM292.5 -0.5H287.5V0.5H292.5V-0.5ZM282.5 -0.5H277.5V0.5H282.5V-0.5ZM272.5 -0.5H267.5V0.5H272.5V-0.5ZM262.5 -0.5H257.5V0.5H262.5V-0.5ZM252.5 -0.5H247.5V0.5H252.5V-0.5ZM242.5 -0.5H237.5V0.5H242.5V-0.5ZM232.5 -0.5H227.5V0.5H232.5V-0.5ZM222.5 -0.5H217.5V0.5H222.5V-0.5ZM212.5 -0.5H207.5V0.5H212.5V-0.5ZM202.5 -0.5H197.5V0.5H202.5V-0.5ZM192.5 -0.5H187.5V0.5H192.5V-0.5ZM182.5 -0.5H177.5V0.5H182.5V-0.5ZM172.5 -0.5H167.5V0.5H172.5V-0.5ZM162.5 -0.5H157.5V0.5H162.5V-0.5ZM152.5 -0.5H147.5V0.5H152.5V-0.5ZM142.5 -0.5H137.5V0.5H142.5V-0.5ZM132.5 -0.5H127.5V0.5H132.5V-0.5ZM122.5 -0.5H117.5V0.5H122.5V-0.5ZM112.5 -0.5H107.5V0.5H112.5V-0.5ZM102.5 -0.5H97.5V0.5H102.5V-0.5ZM92.5 -0.5H87.5V0.5H92.5V-0.5ZM82.5 -0.5H77.5V0.5H82.5V-0.5ZM72.5 -0.5H67.5V0.5H72.5V-0.5ZM62.5 -0.5H57.5V0.5H62.5V-0.5ZM52.5 -0.5H47.5V0.5H52.5V-0.5ZM42.5 -0.5H37.5V0.5H42.5V-0.5ZM32.5 -0.5H27.5V0.5H32.5V-0.5ZM22.5 -0.5H17.5V0.5H22.5V-0.5ZM12.5 -0.5H7.50001V0.5H12.5V-0.5ZM2.49999 -0.5H0V0.5H2.49999V-0.5ZM0 0V-1H-1V0H0ZM720 0H721V-1H720V0ZM720 250V251H721V250H720ZM0 250H-1V251H0V250ZM-1 0V2.5H1V0H-1ZM-1 7.5V12.5H1V7.5H-1ZM-1 17.5V22.5H1V17.5H-1ZM-1 27.5V32.5H1V27.5H-1ZM-1 37.5V42.5H1V37.5H-1ZM-1 47.5V52.5H1V47.5H-1ZM-1 57.5V62.5H1V57.5H-1ZM-1 67.5V72.5H1V67.5H-1ZM-1 77.5V82.5H1V77.5H-1ZM-1 87.5V92.5H1V87.5H-1ZM-1 97.5V102.5H1V97.5H-1ZM-1 107.5V112.5H1V107.5H-1ZM-1 117.5V122.5H1V117.5H-1ZM-1 127.5V132.5H1V127.5H-1ZM-1 137.5V142.5H1V137.5H-1ZM-1 147.5V152.5H1V147.5H-1ZM-1 157.5V162.5H1V157.5H-1ZM-1 167.5V172.5H1V167.5H-1ZM-1 177.5V182.5H1V177.5H-1ZM-1 187.5V192.5H1V187.5H-1ZM-1 197.5V202.5H1V197.5H-1ZM-1 207.5V212.5H1V207.5H-1ZM-1 217.5V222.5H1V217.5H-1ZM-1 227.5V232.5H1V227.5H-1ZM-1 237.5V242.5H1V237.5H-1ZM-1 247.5V250H1V247.5H-1ZM0 251H2.5V249H0V251ZM7.5 251H12.5V249H7.5V251ZM17.5 251H22.5V249H17.5V251ZM27.5 251H32.5V249H27.5V251ZM37.5 251H42.5V249H37.5V251ZM47.5 251H52.5V249H47.5V251ZM57.5 251H62.5V249H57.5V251ZM67.5 251H72.5V249H67.5V251ZM77.5 251H82.5V249H77.5V251ZM87.5 251H92.5V249H87.5V251ZM97.5 251H102.5V249H97.5V251ZM107.5 251H112.5V249H107.5V251ZM117.5 251H122.5V249H117.5V251ZM127.5 251H132.5V249H127.5V251ZM137.5 251H142.5V249H137.5V251ZM147.5 251H152.5V249H147.5V251ZM157.5 251H162.5V249H157.5V251ZM167.5 251H172.5V249H167.5V251ZM177.5 251H182.5V249H177.5V251ZM187.5 251H192.5V249H187.5V251ZM197.5 251H202.5V249H197.5V251ZM207.5 251H212.5V249H207.5V251ZM217.5 251H222.5V249H217.5V251ZM227.5 251H232.5V249H227.5V251ZM237.5 251H242.5V249H237.5V251ZM247.5 251H252.5V249H247.5V251ZM257.5 251H262.5V249H257.5V251ZM267.5 251H272.5V249H267.5V251ZM277.5 251H282.5V249H277.5V251ZM287.5 251H292.5V249H287.5V251ZM297.5 251H302.5V249H297.5V251ZM307.5 251H312.5V249H307.5V251ZM317.5 251H322.5V249H317.5V251ZM327.5 251H332.5V249H327.5V251ZM337.5 251H342.5V249H337.5V251ZM347.5 251H352.5V249H347.5V251ZM357.5 251H362.5V249H357.5V251ZM367.5 251H372.5V249H367.5V251ZM377.5 251H382.5V249H377.5V251ZM387.5 251H392.5V249H387.5V251ZM397.5 251H402.5V249H397.5V251ZM407.5 251H412.5V249H407.5V251ZM417.5 251H422.5V249H417.5V251ZM427.5 251H432.5V249H427.5V251ZM437.5 251H442.5V249H437.5V251ZM447.5 251H452.5V249H447.5V251ZM457.5 251H462.5V249H457.5V251ZM467.5 251H472.5V249H467.5V251ZM477.5 251H482.5V249H477.5V251ZM487.5 251H492.5V249H487.5V251ZM497.5 251H502.5V249H497.5V251ZM507.5 251H512.5V249H507.5V251ZM517.5 251H522.5V249H517.5V251ZM527.5 251H532.5V249H527.5V251ZM537.5 251H542.5V249H537.5V251ZM547.5 251H552.5V249H547.5V251ZM557.5 251H562.5V249H557.5V251ZM567.5 251H572.5V249H567.5V251ZM577.5 251H582.5V249H577.5V251ZM587.5 251H592.5V249H587.5V251ZM597.5 251H602.5V249H597.5V251ZM607.5 251H612.5V249H607.5V251ZM617.5 251H622.5V249H617.5V251ZM627.5 251H632.5V249H627.5V251ZM637.5 251H642.5V249H637.5V251ZM647.5 251H652.5V249H647.5V251ZM657.5 251H662.5V249H657.5V251ZM667.5 251H672.5V249H667.5V251ZM677.5 251H682.5V249H677.5V251ZM687.5 251H692.5V249H687.5V251ZM697.5 251H702.5V249H697.5V251ZM707.5 251H712.5V249H707.5V251ZM717.5 251H720V249H717.5V251ZM721 250V247.5H719V250H721ZM721 242.5V237.5H719V242.5H721ZM721 232.5V227.5H719V232.5H721ZM721 222.5V217.5H719V222.5H721ZM721 212.5V207.5H719V212.5H721ZM721 202.5V197.5H719V202.5H721ZM721 192.5V187.5H719V192.5H721ZM721 182.5V177.5H719V182.5H721ZM721 172.5V167.5H719V172.5H721ZM721 162.5V157.5H719V162.5H721ZM721 152.5V147.5H719V152.5H721ZM721 142.5V137.5H719V142.5H721ZM721 132.5V127.5H719V132.5H721ZM721 122.5V117.5H719V122.5H721ZM721 112.5V107.5H719V112.5H721ZM721 102.5V97.5H719V102.5H721ZM721 92.5V87.5H719V92.5H721ZM721 82.5V77.5H719V82.5H721ZM721 72.5V67.5H719V72.5H721ZM721 62.5V57.5H719V62.5H721ZM721 52.5V47.5H719V52.5H721ZM721 42.5V37.5H719V42.5H721ZM721 32.5V27.5H719V32.5H721ZM721 22.5V17.5H719V22.5H721ZM721 12.5V7.49999H719V12.5H721ZM721 2.5V0H719V2.5H721ZM720 -1H717.5V1H720V-1ZM712.5 -1H707.5V1H712.5V-1ZM702.5 -1H697.5V1H702.5V-1ZM692.5 -1H687.5V1H692.5V-1ZM682.5 -1H677.5V1H682.5V-1ZM672.5 -1H667.5V1H672.5V-1ZM662.5 -1H657.5V1H662.5V-1ZM652.5 -1H647.5V1H652.5V-1ZM642.5 -1H637.5V1H642.5V-1ZM632.5 -1H627.5V1H632.5V-1ZM622.5 -1H617.5V1H622.5V-1ZM612.5 -1H607.5V1H612.5V-1ZM602.5 -1H597.5V1H602.5V-1ZM592.5 -1H587.5V1H592.5V-1ZM582.5 -1H577.5V1H582.5V-1ZM572.5 -1H567.5V1H572.5V-1ZM562.5 -1H557.5V1H562.5V-1ZM552.5 -1H547.5V1H552.5V-1ZM542.5 -1H537.5V1H542.5V-1ZM532.5 -1H527.5V1H532.5V-1ZM522.5 -1H517.5V1H522.5V-1ZM512.5 -1H507.5V1H512.5V-1ZM502.5 -1H497.5V1H502.5V-1ZM492.5 -1H487.5V1H492.5V-1ZM482.5 -1H477.5V1H482.5V-1ZM472.5 -1H467.5V1H472.5V-1ZM462.5 -1H457.5V1H462.5V-1ZM452.5 -1H447.5V1H452.5V-1ZM442.5 -1H437.5V1H442.5V-1ZM432.5 -1H427.5V1H432.5V-1ZM422.5 -1H417.5V1H422.5V-1ZM412.5 -1H407.5V1H412.5V-1ZM402.5 -1H397.5V1H402.5V-1ZM392.5 -1H387.5V1H392.5V-1ZM382.5 -1H377.5V1H382.5V-1ZM372.5 -1H367.5V1H372.5V-1ZM362.5 -1H357.5V1H362.5V-1ZM352.5 -1H347.5V1H352.5V-1ZM342.5 -1H337.5V1H342.5V-1ZM332.5 -1H327.5V1H332.5V-1ZM322.5 -1H317.5V1H322.5V-1ZM312.5 -1H307.5V1H312.5V-1ZM302.5 -1H297.5V1H302.5V-1ZM292.5 -1H287.5V1H292.5V-1ZM282.5 -1H277.5V1H282.5V-1ZM272.5 -1H267.5V1H272.5V-1ZM262.5 -1H257.5V1H262.5V-1ZM252.5 -1H247.5V1H252.5V-1ZM242.5 -1H237.5V1H242.5V-1ZM232.5 -1H227.5V1H232.5V-1ZM222.5 -1H217.5V1H222.5V-1ZM212.5 -1H207.5V1H212.5V-1ZM202.5 -1H197.5V1H202.5V-1ZM192.5 -1H187.5V1H192.5V-1ZM182.5 -1H177.5V1H182.5V-1ZM172.5 -1H167.5V1H172.5V-1ZM162.5 -1H157.5V1H162.5V-1ZM152.5 -1H147.5V1H152.5V-1ZM142.5 -1H137.5V1H142.5V-1ZM132.5 -1H127.5V1H132.5V-1ZM122.5 -1H117.5V1H122.5V-1ZM112.5 -1H107.5V1H112.5V-1ZM102.5 -1H97.5V1H102.5V-1ZM92.5 -1H87.5V1H92.5V-1ZM82.5 -1H77.5V1H82.5V-1ZM72.5 -1H67.5V1H72.5V-1ZM62.5 -1H57.5V1H62.5V-1ZM52.5 -1H47.5V1H52.5V-1ZM42.5 -1H37.5V1H42.5V-1ZM32.5 -1H27.5V1H32.5V-1ZM22.5 -1H17.5V1H22.5V-1ZM12.5 -1H7.50001V1H12.5V-1ZM2.49999 -1H0V1H2.49999V-1Z" fill="#7F20D2"/>
</svg>
