<svg width="320" height="160" viewBox="0 0 320 160" fill="none" xmlns="http://www.w3.org/2000/svg">
<g filter="url(#filter0_d_14188_9476)">
<mask id="path-1-outside-1_14188_9476" maskUnits="userSpaceOnUse" x="3.28789" y="8.03804" width="306.54" height="136.55" fill="black">
<rect fill="white" x="3.28789" y="8.03804" width="306.54" height="136.55"/>
<path d="M34.9529 107.081L17.3849 100.137L50.9517 40.2801L65.6171 52.2314L34.9529 107.081ZM19.0471 119.137L17.3849 100.137L29.7919 98.0241L94.441 92.368L96.1924 112.388L19.0471 119.137ZM62.0762 129.249L55.3269 52.1038L51.0792 40.269L76.4543 38.0489L84.2634 127.308L62.0762 129.249ZM142.993 123.712C135.513 124.366 128.668 122.995 122.461 119.598C116.331 116.108 111.307 111.065 107.389 104.47C103.549 97.7815 101.234 89.932 100.446 80.9211C99.6578 71.9101 100.578 63.8205 103.205 56.6522C105.911 49.3915 109.94 43.5567 115.294 39.148C120.725 34.6469 127.181 32.0691 134.662 31.4146C142.312 30.7452 149.203 32.1554 155.333 35.6451C161.541 39.0423 166.607 44.0812 170.532 50.7619C174.45 57.3575 176.803 65.1608 177.591 74.1717C178.38 83.1826 177.421 91.3185 174.716 98.5792C172.003 105.755 167.931 111.593 162.5 116.095C157.061 120.511 150.559 123.05 142.993 123.712ZM141.119 102.289C144.18 102.022 146.764 100.725 148.874 98.3988C151.068 96.0654 152.685 93.0115 153.726 89.2371C154.759 85.3777 155.063 81.0253 154.639 76.1798C154.208 71.2493 153.148 66.9733 151.461 63.352C149.774 59.7306 147.647 56.9614 145.081 55.0444C142.515 53.1275 139.659 52.3066 136.513 52.5817C133.538 52.842 130.996 54.1352 128.887 56.4612C126.777 58.7873 125.206 61.88 124.173 65.7393C123.225 69.5913 122.967 73.9825 123.398 78.913C123.822 83.7585 124.836 87.9956 126.438 91.6245C128.118 95.1608 130.241 97.8875 132.807 99.8045C135.373 101.721 138.144 102.55 141.119 102.289ZM200.695 92.5802L183.127 85.6369L216.694 25.7796L231.359 37.7309L200.695 92.5802ZM184.789 104.636L183.127 85.6369L195.534 83.5235L260.183 77.8675L261.934 97.887L184.789 104.636ZM227.818 114.749L221.069 37.6033L216.821 25.7684L242.196 23.5484L250.005 112.807L227.818 114.749ZM274.051 78.453L267.129 21.3671L292.632 19.1359L295.728 76.5565L274.051 78.453ZM287.868 111.551C284.298 111.863 281.083 110.859 278.225 108.54C275.444 106.128 273.897 103.136 273.585 99.566C273.273 95.9956 274.28 92.8237 276.607 90.0504C279.012 87.1845 281.999 85.5954 285.57 85.2831C289.14 84.9707 292.316 86.0206 295.097 88.4327C297.955 90.7524 299.54 93.6975 299.853 97.2678C300.165 100.838 299.119 104.056 296.714 106.922C294.387 109.695 291.438 111.238 287.868 111.551Z"/>
</mask>
<path d="M34.9529 107.081L17.3849 100.137L50.9517 40.2801L65.6171 52.2314L34.9529 107.081ZM19.0471 119.137L17.3849 100.137L29.7919 98.0241L94.441 92.368L96.1924 112.388L19.0471 119.137ZM62.0762 129.249L55.3269 52.1038L51.0792 40.269L76.4543 38.0489L84.2634 127.308L62.0762 129.249ZM142.993 123.712C135.513 124.366 128.668 122.995 122.461 119.598C116.331 116.108 111.307 111.065 107.389 104.47C103.549 97.7815 101.234 89.932 100.446 80.9211C99.6578 71.9101 100.578 63.8205 103.205 56.6522C105.911 49.3915 109.94 43.5567 115.294 39.148C120.725 34.6469 127.181 32.0691 134.662 31.4146C142.312 30.7452 149.203 32.1554 155.333 35.6451C161.541 39.0423 166.607 44.0812 170.532 50.7619C174.45 57.3575 176.803 65.1608 177.591 74.1717C178.38 83.1826 177.421 91.3185 174.716 98.5792C172.003 105.755 167.931 111.593 162.5 116.095C157.061 120.511 150.559 123.05 142.993 123.712ZM141.119 102.289C144.18 102.022 146.764 100.725 148.874 98.3988C151.068 96.0654 152.685 93.0115 153.726 89.2371C154.759 85.3777 155.063 81.0253 154.639 76.1798C154.208 71.2493 153.148 66.9733 151.461 63.352C149.774 59.7306 147.647 56.9614 145.081 55.0444C142.515 53.1275 139.659 52.3066 136.513 52.5817C133.538 52.842 130.996 54.1352 128.887 56.4612C126.777 58.7873 125.206 61.88 124.173 65.7393C123.225 69.5913 122.967 73.9825 123.398 78.913C123.822 83.7585 124.836 87.9956 126.438 91.6245C128.118 95.1608 130.241 97.8875 132.807 99.8045C135.373 101.721 138.144 102.55 141.119 102.289ZM200.695 92.5802L183.127 85.6369L216.694 25.7796L231.359 37.7309L200.695 92.5802ZM184.789 104.636L183.127 85.6369L195.534 83.5235L260.183 77.8675L261.934 97.887L184.789 104.636ZM227.818 114.749L221.069 37.6033L216.821 25.7684L242.196 23.5484L250.005 112.807L227.818 114.749ZM274.051 78.453L267.129 21.3671L292.632 19.1359L295.728 76.5565L274.051 78.453ZM287.868 111.551C284.298 111.863 281.083 110.859 278.225 108.54C275.444 106.128 273.897 103.136 273.585 99.566C273.273 95.9956 274.28 92.8237 276.607 90.0504C279.012 87.1845 281.999 85.5954 285.57 85.2831C289.14 84.9707 292.316 86.0206 295.097 88.4327C297.955 90.7524 299.54 93.6975 299.853 97.2678C300.165 100.838 299.119 104.056 296.714 106.922C294.387 109.695 291.438 111.238 287.868 111.551Z" fill="#FFADF3"/>
<path d="M34.9529 107.081L32.0124 114.521C35.739 115.994 39.9803 114.482 41.9357 110.985L34.9529 107.081ZM17.3849 100.137L10.4072 96.2245C9.27773 98.2385 9.07363 100.642 9.8473 102.818C10.621 104.994 12.297 106.729 14.4444 107.577L17.3849 100.137ZM50.9517 40.2801L56.0055 34.0786C54.1744 32.5863 51.7774 31.9796 49.4568 32.421C47.1362 32.8624 45.1294 34.3068 43.974 36.3672L50.9517 40.2801ZM65.6171 52.2314L72.6 56.1353C74.4953 52.7452 73.6818 48.4835 70.671 46.0299L65.6171 52.2314ZM19.0471 119.137L11.0776 119.834C11.4626 124.236 15.3429 127.492 19.7444 127.106L19.0471 119.137ZM17.3849 100.137L16.0415 92.251C11.9348 92.9506 9.05224 96.6846 9.41533 100.835L17.3849 100.137ZM29.7919 98.0241L29.0947 90.0545C28.8782 90.0734 28.6627 90.1012 28.4485 90.1377L29.7919 98.0241ZM94.441 92.368L102.411 91.6708C102.025 87.2693 98.1452 84.0134 93.7437 84.3984L94.441 92.368ZM96.1924 112.388L96.8897 120.357C101.291 119.972 104.547 116.092 104.162 111.69L96.1924 112.388ZM62.0762 129.249L54.1066 129.946C54.4917 134.348 58.372 137.604 62.7734 137.219L62.0762 129.249ZM55.3269 52.1038L63.2964 51.4066C63.2365 50.722 63.0887 50.0481 62.8566 49.4013L55.3269 52.1038ZM51.0792 40.269L50.382 32.2994C47.9106 32.5156 45.6794 33.8662 44.3417 35.9555C43.0041 38.0448 42.7115 40.6365 43.5495 42.9715L51.0792 40.269ZM76.4543 38.0489L84.4239 37.3517C84.0388 32.9502 80.1585 29.6943 75.757 30.0794L76.4543 38.0489ZM84.2634 127.308L84.9607 135.278C89.3622 134.892 92.6181 131.012 92.233 126.611L84.2634 127.308ZM34.9529 107.081L37.8933 99.6407L20.3253 92.6974L17.3849 100.137L14.4444 107.577L32.0124 114.521L34.9529 107.081ZM17.3849 100.137L24.3626 104.05L57.9294 44.1931L50.9517 40.2801L43.974 36.3672L10.4072 96.2245L17.3849 100.137ZM50.9517 40.2801L45.8979 46.4817L60.5633 58.433L65.6171 52.2314L70.671 46.0299L56.0055 34.0786L50.9517 40.2801ZM65.6171 52.2314L58.6343 48.3276L27.97 103.177L34.9529 107.081L41.9357 110.985L72.6 56.1353L65.6171 52.2314ZM19.0471 119.137L27.0167 118.44L25.3544 99.4402L17.3849 100.137L9.41533 100.835L11.0776 119.834L19.0471 119.137ZM17.3849 100.137L18.7282 108.024L31.1353 105.91L29.7919 98.0241L28.4485 90.1377L16.0415 92.251L17.3849 100.137ZM29.7919 98.0241L30.4891 105.994L95.1382 100.338L94.441 92.368L93.7437 84.3984L29.0947 90.0545L29.7919 98.0241ZM94.441 92.368L86.4714 93.0652L88.2229 113.085L96.1924 112.388L104.162 111.69L102.411 91.6708L94.441 92.368ZM96.1924 112.388L95.4952 104.418L18.3499 111.167L19.0471 119.137L19.7444 127.106L96.8897 120.357L96.1924 112.388ZM62.0762 129.249L70.0458 128.552L63.2964 51.4066L55.3269 52.1038L47.3573 52.801L54.1066 129.946L62.0762 129.249ZM55.3269 52.1038L62.8566 49.4013L58.6089 37.5665L51.0792 40.269L43.5495 42.9715L47.7971 54.8063L55.3269 52.1038ZM51.0792 40.269L51.7765 48.2385L77.1515 46.0185L76.4543 38.0489L75.757 30.0794L50.382 32.2994L51.0792 40.269ZM76.4543 38.0489L68.4847 38.7462L76.2939 128.005L84.2634 127.308L92.233 126.611L84.4239 37.3517L76.4543 38.0489ZM84.2634 127.308L83.5662 119.338L61.379 121.28L62.0762 129.249L62.7734 137.219L84.9607 135.278L84.2634 127.308ZM122.461 119.598L118.503 126.55C118.542 126.572 118.581 126.594 118.62 126.615L122.461 119.598ZM107.389 104.47L100.451 108.453C100.471 108.487 100.491 108.521 100.511 108.555L107.389 104.47ZM103.205 56.6522L95.709 53.8589C95.7041 53.8721 95.6992 53.8854 95.6943 53.8986L103.205 56.6522ZM115.294 39.148L120.38 45.3235C120.386 45.3182 120.392 45.3129 120.399 45.3076L115.294 39.148ZM155.333 35.6451L151.375 42.5975C151.414 42.6196 151.453 42.6414 151.492 42.6629L155.333 35.6451ZM170.532 50.7619L163.635 54.8145C163.641 54.8255 163.648 54.8365 163.654 54.8474L170.532 50.7619ZM174.716 98.5792L182.199 101.408C182.203 101.396 182.208 101.384 182.212 101.373L174.716 98.5792ZM162.5 116.095L167.543 122.305C167.564 122.288 167.584 122.271 167.605 122.254L162.5 116.095ZM148.874 98.3988L143.046 92.9184C143.013 92.9536 142.98 92.989 142.948 93.0248L148.874 98.3988ZM153.726 89.2371L161.438 91.3629C161.443 91.3437 161.449 91.3245 161.454 91.3054L153.726 89.2371ZM145.081 55.0444L149.868 48.6353L149.868 48.6353L145.081 55.0444ZM128.887 56.4612L122.96 51.0872L122.96 51.0872L128.887 56.4612ZM124.173 65.7393L116.445 63.6711C116.431 63.7231 116.418 63.7754 116.405 63.8277L124.173 65.7393ZM126.438 91.6245L119.12 94.856C119.149 94.9235 119.18 94.9905 119.212 95.0572L126.438 91.6245ZM132.807 99.8045L128.019 106.214V106.214L132.807 99.8045ZM142.993 123.712L142.296 115.742C136.288 116.268 131.037 115.171 126.301 112.58L122.461 119.598L118.62 126.615C126.3 130.818 134.738 132.464 143.691 131.681L142.993 123.712ZM122.461 119.598L126.419 112.645C121.598 109.901 117.54 105.894 114.267 100.384L107.389 104.47L100.511 108.555C105.073 116.236 111.063 122.315 118.503 126.55L122.461 119.598ZM107.389 104.47L114.327 100.486C111.157 94.965 109.12 88.2758 108.416 80.2238L100.446 80.9211L92.4766 81.6183C93.3488 91.5882 95.941 100.598 100.451 108.453L107.389 104.47ZM100.446 80.9211L108.416 80.2238C107.711 72.169 108.561 65.2862 110.717 59.4058L103.205 56.6522L95.6943 53.8986C92.5943 62.3548 91.6046 71.6513 92.4766 81.6183L100.446 80.9211ZM103.205 56.6522L110.702 59.4455C112.975 53.3464 116.237 48.7351 120.38 45.3235L115.294 39.148L110.208 32.9726C103.644 38.3784 98.8473 45.4365 95.709 53.8589L103.205 56.6522ZM115.294 39.148L120.399 45.3076C124.496 41.9119 129.387 39.9066 135.359 39.3842L134.662 31.4146L133.964 23.445C124.975 24.2315 116.954 27.3818 110.189 32.9885L115.294 39.148ZM134.662 31.4146L135.359 39.3842C141.541 38.8433 146.783 39.9835 151.375 42.5975L155.333 35.6451L159.291 28.6926C151.622 24.3273 143.083 22.6472 133.964 23.445L134.662 31.4146ZM155.333 35.6451L151.492 42.6629C156.313 45.3011 160.37 49.2582 163.635 54.8145L170.532 50.7619L177.43 46.7093C172.844 38.9042 166.768 32.7835 159.174 28.6272L155.333 35.6451ZM170.532 50.7619L163.654 54.8474C166.858 60.2408 168.92 66.8423 169.622 74.869L177.591 74.1717L185.561 73.4745C184.687 63.4793 182.042 54.4743 177.41 46.6763L170.532 50.7619ZM177.591 74.1717L169.622 74.869C170.324 82.8928 169.446 89.8107 167.219 95.7859L174.716 98.5792L182.212 101.373C185.397 92.8262 186.436 83.4724 185.561 73.4745L177.591 74.1717ZM174.716 98.5792L167.233 95.7501C164.966 101.745 161.666 106.396 157.395 109.935L162.5 116.095L167.605 122.254C174.196 116.791 179.04 109.765 182.199 101.408L174.716 98.5792ZM162.5 116.095L157.457 109.884C153.364 113.208 148.41 115.207 142.296 115.742L142.993 123.712L143.691 131.681C152.708 130.892 160.759 127.813 167.543 122.305L162.5 116.095ZM141.119 102.289L141.817 110.259C146.933 109.811 151.37 107.555 154.8 103.773L148.874 98.3988L142.948 93.0248C142.159 93.8945 141.426 94.2321 140.422 94.3199L141.119 102.289ZM148.874 98.3988L154.702 103.879C157.965 100.409 160.128 96.1165 161.438 91.3629L153.726 89.2371L146.013 87.1113C145.243 89.9064 144.171 91.7216 143.046 92.9184L148.874 98.3988ZM153.726 89.2371L161.454 91.3054C162.774 86.3734 163.097 81.0614 162.609 75.4825L154.639 76.1798L146.67 76.877C147.029 80.9892 146.743 84.382 145.998 87.1688L153.726 89.2371ZM154.639 76.1798L162.609 75.4825C162.115 69.8367 160.875 64.6143 158.712 59.9732L151.461 63.352L144.21 66.7308C145.422 69.3323 146.301 72.6619 146.67 76.877L154.639 76.1798ZM151.461 63.352L158.712 59.9732C156.603 55.4448 153.724 51.5155 149.868 48.6353L145.081 55.0444L140.293 61.4536C141.57 62.4073 142.945 64.0163 144.21 66.7308L151.461 63.352ZM145.081 55.0444L149.868 48.6353C145.753 45.5609 140.951 44.163 135.816 44.6122L136.513 52.5817L137.211 60.5513C138.367 60.4501 139.276 60.694 140.293 61.4536L145.081 55.0444ZM136.513 52.5817L135.816 44.6122C130.723 45.0578 126.347 47.3525 122.96 51.0872L128.887 56.4612L134.813 61.8353C135.645 60.9179 136.354 60.6263 137.211 60.5513L136.513 52.5817ZM128.887 56.4612L122.96 51.0872C119.795 54.5778 117.72 58.9081 116.445 63.6711L124.173 65.7393L131.901 67.8076C132.692 64.8519 133.76 62.9967 134.813 61.8353L128.887 56.4612ZM124.173 65.7393L116.405 63.8277C115.203 68.7135 114.939 74.0125 115.429 79.6102L123.398 78.913L131.368 78.2157C130.995 73.9525 131.248 70.469 131.942 67.6509L124.173 65.7393ZM123.398 78.913L115.429 79.6102C115.913 85.1399 117.093 90.2658 119.12 94.856L126.438 91.6245L133.756 88.3929C132.578 85.7255 131.732 82.377 131.368 78.2157L123.398 78.913ZM126.438 91.6245L119.212 95.0572C121.328 99.5111 124.203 103.363 128.019 106.214L132.807 99.8045L137.595 93.3953C136.279 92.4121 134.908 90.8106 133.664 88.1917L126.438 91.6245ZM132.807 99.8045L128.019 106.214C132.036 109.214 136.734 110.704 141.817 110.259L141.119 102.289L140.422 94.3199C139.554 94.3959 138.711 94.2288 137.595 93.3953L132.807 99.8045ZM200.695 92.5802L197.754 100.02C201.481 101.493 205.722 99.9816 207.678 96.484L200.695 92.5802ZM183.127 85.6369L176.149 81.7239C175.02 83.738 174.816 86.1418 175.589 88.3174C176.363 90.493 178.039 92.2282 180.186 93.0769L183.127 85.6369ZM216.694 25.7796L221.747 19.5781C219.916 18.0858 217.519 17.4791 215.199 17.9205C212.878 18.3619 210.871 19.8063 209.716 21.8666L216.694 25.7796ZM231.359 37.7309L238.342 41.6347C240.237 38.2446 239.424 33.983 236.413 31.5294L231.359 37.7309ZM184.789 104.636L176.819 105.334C177.205 109.735 181.085 112.991 185.486 112.606L184.789 104.636ZM183.127 85.6369L181.783 77.7505C177.677 78.45 174.794 82.1841 175.157 86.3342L183.127 85.6369ZM195.534 83.5235L194.837 75.554C194.62 75.5729 194.405 75.6006 194.19 75.6371L195.534 83.5235ZM260.183 77.8675L268.152 77.1702C267.767 72.7688 263.887 69.5128 259.486 69.8979L260.183 77.8675ZM261.934 97.887L262.632 105.857C267.033 105.471 270.289 101.591 269.904 97.1898L261.934 97.887ZM227.818 114.749L219.849 115.446C220.234 119.847 224.114 123.103 228.515 122.718L227.818 114.749ZM221.069 37.6033L229.038 36.906C228.978 36.2215 228.831 35.5475 228.598 34.9008L221.069 37.6033ZM216.821 25.7684L216.124 17.7989C213.652 18.0151 211.421 19.3656 210.084 21.4549C208.746 23.5443 208.453 26.1359 209.291 28.4709L216.821 25.7684ZM242.196 23.5484L250.166 22.8512C249.781 18.4497 245.9 15.1938 241.499 15.5788L242.196 23.5484ZM250.005 112.807L250.703 120.777C255.104 120.392 258.36 116.512 257.975 112.11L250.005 112.807ZM200.695 92.5802L203.635 85.1402L186.067 78.1969L183.127 85.6369L180.186 93.0769L197.754 100.02L200.695 92.5802ZM183.127 85.6369L190.105 89.5499L223.671 29.6926L216.694 25.7796L209.716 21.8666L176.149 81.7239L183.127 85.6369ZM216.694 25.7796L211.64 31.9811L226.305 43.9324L231.359 37.7309L236.413 31.5294L221.747 19.5781L216.694 25.7796ZM231.359 37.7309L224.376 33.827L193.712 88.6763L200.695 92.5802L207.678 96.484L238.342 41.6347L231.359 37.7309ZM184.789 104.636L192.759 103.939L191.096 84.9397L183.127 85.6369L175.157 86.3342L176.819 105.334L184.789 104.636ZM183.127 85.6369L184.47 93.5233L196.877 91.4099L195.534 83.5235L194.19 75.6371L181.783 77.7505L183.127 85.6369ZM195.534 83.5235L196.231 91.4931L260.88 85.837L260.183 77.8675L259.486 69.8979L194.837 75.554L195.534 83.5235ZM260.183 77.8675L252.213 78.5647L253.965 98.5842L261.934 97.887L269.904 97.1898L268.152 77.1702L260.183 77.8675ZM261.934 97.887L261.237 89.9174L184.092 96.6668L184.789 104.636L185.486 112.606L262.632 105.857L261.934 97.887ZM227.818 114.749L235.788 114.051L229.038 36.906L221.069 37.6033L213.099 38.3005L219.849 115.446L227.818 114.749ZM221.069 37.6033L228.598 34.9008L224.351 23.0659L216.821 25.7684L209.291 28.4709L213.539 40.3058L221.069 37.6033ZM216.821 25.7684L217.518 33.738L242.893 31.518L242.196 23.5484L241.499 15.5788L216.124 17.7989L216.821 25.7684ZM242.196 23.5484L234.227 24.2456L242.036 113.505L250.005 112.807L257.975 112.11L250.166 22.8512L242.196 23.5484ZM250.005 112.807L249.308 104.838L227.121 106.779L227.818 114.749L228.515 122.718L250.703 120.777L250.005 112.807ZM274.051 78.453L266.109 79.416C266.628 83.6989 270.45 86.7986 274.748 86.4226L274.051 78.453ZM267.129 21.3671L266.432 13.3975C264.272 13.5865 262.281 14.6439 260.916 16.3278C259.55 18.0117 258.926 20.1777 259.187 22.33L267.129 21.3671ZM292.632 19.1359L300.62 18.7051C300.503 16.5402 299.513 14.5154 297.875 13.0942C296.238 11.6731 294.094 10.9774 291.934 11.1663L292.632 19.1359ZM295.728 76.5565L296.425 84.5261C300.723 84.1501 303.949 80.4338 303.716 76.1258L295.728 76.5565ZM278.225 108.54L272.983 114.583C273.049 114.64 273.116 114.696 273.184 114.752L278.225 108.54ZM276.607 90.0504L270.479 84.9081L276.607 90.0504ZM295.097 88.4327L289.854 94.476C289.921 94.5333 289.987 94.5895 290.055 94.6446L295.097 88.4327ZM296.714 106.922L302.842 112.064V112.064L296.714 106.922ZM274.051 78.453L281.993 77.4901L275.071 20.4041L267.129 21.3671L259.187 22.33L266.109 79.416L274.051 78.453ZM267.129 21.3671L267.826 29.3366L293.329 27.1054L292.632 19.1359L291.934 11.1663L266.432 13.3975L267.129 21.3671ZM292.632 19.1359L284.643 19.5666L287.739 76.9873L295.728 76.5565L303.716 76.1258L300.62 18.7051L292.632 19.1359ZM295.728 76.5565L295.031 68.587L273.353 70.4835L274.051 78.453L274.748 86.4226L296.425 84.5261L295.728 76.5565ZM287.868 111.551L287.171 103.581C285.73 103.707 284.561 103.379 283.266 102.328L278.225 108.54L273.184 114.752C277.606 118.34 282.865 120.019 288.565 119.52L287.868 111.551ZM278.225 108.54L283.467 102.496C282.207 101.404 281.681 100.309 281.555 98.8687L273.585 99.566L265.615 100.263C266.114 105.964 268.681 110.851 272.983 114.583L278.225 108.54ZM273.585 99.566L281.555 98.8687C281.429 97.436 281.757 96.3592 282.736 95.1927L276.607 90.0504L270.479 84.9081C266.803 89.2882 265.116 94.5552 265.615 100.263L273.585 99.566ZM276.607 90.0504L282.736 95.1927C283.843 93.8728 284.911 93.3712 286.267 93.2526L285.57 85.2831L284.873 77.3135C279.087 77.8196 274.181 80.4963 270.479 84.9081L276.607 90.0504ZM285.57 85.2831L286.267 93.2526C287.613 93.1348 288.661 93.4406 289.854 94.476L295.097 88.4327L300.339 82.3895C295.971 78.6006 290.667 76.8066 284.873 77.3135L285.57 85.2831ZM295.097 88.4327L290.055 94.6446C291.282 95.6403 291.765 96.6187 291.883 97.9651L299.853 97.2678L307.822 96.5706C307.315 90.7763 304.627 85.8646 300.138 82.2209L295.097 88.4327ZM299.853 97.2678L291.883 97.9651C292.002 99.3207 291.693 100.46 290.586 101.78L296.714 106.922L302.842 112.064C306.544 107.653 308.328 102.356 307.822 96.5706L299.853 97.2678ZM296.714 106.922L290.586 101.78C289.607 102.946 288.603 103.456 287.171 103.581L287.868 111.551L288.565 119.52C294.273 119.021 299.167 116.445 302.842 112.064L296.714 106.922Z" fill="white" mask="url(#path-1-outside-1_14188_9476)"/>
</g>
<defs>
<filter id="filter0_d_14188_9476" x="9.38477" y="11.1359" width="306.521" height="142.114" filterUnits="userSpaceOnUse" color-interpolation-filters="sRGB">
<feFlood flood-opacity="0" result="BackgroundImageFix"/>
<feColorMatrix in="SourceAlpha" type="matrix" values="0 0 0 0 0 0 0 0 0 0 0 0 0 0 0 0 0 0 127 0" result="hardAlpha"/>
<feOffset dx="8" dy="16"/>
<feComposite in2="hardAlpha" operator="out"/>
<feColorMatrix type="matrix" values="0 0 0 0 0.772 0 0 0 0 0.468 0 0 0 0 0.731467 0 0 0 1 0"/>
<feBlend mode="normal" in2="BackgroundImageFix" result="effect1_dropShadow_14188_9476"/>
<feBlend mode="normal" in="SourceGraphic" in2="effect1_dropShadow_14188_9476" result="shape"/>
</filter>
</defs>
</svg>
