<svg width="272" height="144" viewBox="0 0 272 144" fill="none" xmlns="http://www.w3.org/2000/svg">
<path fill-rule="evenodd" clip-rule="evenodd" d="M169.544 46.339L169.249 42.9738C168.672 36.3716 162.851 31.4877 156.249 32.0654L108.432 36.2488C101.83 36.8264 96.9457 42.6468 97.5233 49.249L97.8178 52.6142C92.7779 54.3924 89.3776 59.4061 89.8649 64.9764L93.5255 106.817C94.1031 113.419 99.9235 118.303 106.526 117.725L172.275 111.973C178.877 111.395 183.761 105.575 183.183 98.9725L179.522 57.1323C179.035 51.5621 174.816 47.215 169.544 46.339ZM104.285 57.6919L101.296 57.9533C97.9952 58.2421 95.5533 61.1523 95.8421 64.4534L99.5026 106.294C99.7914 109.595 102.702 112.037 106.003 111.748L171.752 105.996C175.053 105.707 177.495 102.797 177.206 99.4955L173.545 57.6553C173.256 54.3542 170.346 51.9122 167.045 52.201L164.057 52.4625L163.272 43.4968C162.983 40.1957 160.073 37.7537 156.772 38.0425L108.955 42.226C105.654 42.5148 103.212 45.425 103.501 48.7261L104.285 57.6919Z" fill="#3399D1"/>
<path fill-rule="evenodd" clip-rule="evenodd" d="M165.544 42.342L165.249 38.9768C164.672 32.3746 158.851 27.4907 152.249 28.0683L104.432 32.2518C97.8296 32.8294 92.9457 38.6498 93.5233 45.252L93.8178 48.6172C88.7779 50.3953 85.3776 55.409 85.8649 60.9793L89.5255 102.819C90.1031 109.422 95.9235 114.306 102.526 113.728L168.275 107.976C174.877 107.398 179.761 101.578 179.183 94.9754L175.522 53.1353C175.035 47.565 170.816 43.2179 165.544 42.342ZM100.285 53.6948L97.2963 53.9563C93.9952 54.2451 91.5533 57.1553 91.8421 60.4564L95.5026 102.297C95.7914 105.598 98.7016 108.04 102.003 107.751L167.752 101.998C171.053 101.71 173.495 98.7995 173.206 95.4984L169.545 53.6582C169.256 50.3571 166.346 47.9152 163.045 48.204L160.057 48.4654L159.272 39.4997C158.983 36.1986 156.073 33.7566 152.772 34.0455L104.955 38.2289C101.654 38.5177 99.2117 41.4279 99.5005 44.729L100.285 53.6948Z" fill="white"/>
<path fill-rule="evenodd" clip-rule="evenodd" d="M160.056 48.4653L163.045 48.2038C166.346 47.915 169.256 50.357 169.545 53.6581L173.206 95.4983C173.495 98.7993 171.053 101.71 167.751 101.998L102.003 107.751C98.7015 108.039 95.7913 105.597 95.5025 102.296L91.842 60.4562C91.5532 57.1551 93.9951 54.2449 97.2962 53.9561L100.285 53.6947L99.5004 44.7289C99.2116 41.4278 101.654 38.5176 104.955 38.2288L152.772 34.0453C156.073 33.7565 158.983 36.1985 159.272 39.4996L160.056 48.4653Z" fill="white"/>
<path d="M91.8432 60.4567C91.5544 57.1556 93.9964 54.2454 97.2975 53.9566L163.046 48.2043C166.347 47.9155 169.258 50.3574 169.546 53.6585L173.207 95.4987C173.496 98.7998 171.054 101.71 167.753 101.999L102.004 107.751C98.7028 108.04 95.7926 105.598 95.5038 102.297L91.8432 60.4567Z" fill="#87CEFF"/>
<path fill-rule="evenodd" clip-rule="evenodd" d="M94.7271 65.0748L157.591 102.887L167.752 101.998C171.053 101.71 173.495 98.7993 173.206 95.4982L169.546 53.6581C169.257 50.357 166.347 47.915 163.046 48.2038L103.56 53.4082L94.7271 65.0748Z" fill="#55B4ED"/>
<path d="M167.508 58.7072C170.008 56.532 170.271 52.7422 168.096 50.2423C166.787 48.7377 164.893 48.0433 163.047 48.2033L163.037 48.2041L97.3077 53.9547L97.2979 53.9555C95.4523 54.1185 93.7074 55.1313 92.6793 56.8404C90.9713 59.68 91.8886 63.3666 94.7282 65.0747L129.694 86.1072C131.924 87.4481 134.763 87.1997 136.726 85.492L167.508 58.7072Z" fill="#C8E6FF"/>
<path fill-rule="evenodd" clip-rule="evenodd" d="M101.644 69.2363L99.4995 44.7291C99.2107 41.428 101.653 38.5178 104.954 38.229L152.771 34.0455C156.072 33.7567 158.982 36.1987 159.271 39.4998L161.415 64.007L136.723 85.4924C134.76 87.2001 131.921 87.4485 129.692 86.1076L101.644 69.2363Z" fill="#FFF3E6"/>
<path d="M128.55 47.935C129 46.7765 130.584 46.6379 131.229 47.7006L134.822 53.6169L141.732 54.0114C142.974 54.0823 143.595 55.5457 142.784 56.4878L138.267 61.7328L140.027 68.4269C140.343 69.6292 139.144 70.6722 137.997 70.1918L131.613 67.5171L125.79 71.2597C124.745 71.932 123.382 71.1132 123.484 69.8742L124.056 62.9761L118.697 58.5951C117.734 57.8082 118.092 56.2592 119.302 55.9738L126.039 54.3853L128.55 47.935Z" fill="#FFD966"/>
<path d="M128.55 47.935C129 46.7765 130.584 46.6379 131.229 47.7006L134.822 53.6169L141.732 54.0114C142.974 54.0823 143.595 55.5457 142.784 56.4878L138.267 61.7328L140.027 68.4269C140.343 69.6292 139.144 70.6722 137.997 70.1918L131.613 67.5171L125.79 71.2597C124.745 71.932 123.382 71.1132 123.484 69.8742L124.056 62.9761L118.697 58.5951C117.734 57.8082 118.092 56.2592 119.302 55.9738L126.039 54.3853L128.55 47.935Z" fill="url(#paint0_linear_7231_37473)" fill-opacity="0.32"/>
<path fill-rule="evenodd" clip-rule="evenodd" d="M66.5684 84.6406C69.9164 86.5736 71.0635 90.8548 69.1305 94.2028L55.6955 117.473C53.7625 120.821 49.4814 121.968 46.1333 120.035L35.1106 113.671C31.7626 111.738 30.6154 107.457 32.5484 104.109C34.4814 100.761 38.7626 99.6138 42.1106 101.547L47.0711 104.411L57.0062 87.2028C58.9392 83.8548 63.2203 82.7076 66.5684 84.6406Z" fill="#3399D1"/>
<path fill-rule="evenodd" clip-rule="evenodd" d="M64.5645 82.6377C67.9125 84.5707 69.0596 88.8518 67.1266 92.1999L53.6916 115.47C51.7586 118.818 47.4775 119.965 44.1294 118.032L33.1067 111.668C29.7587 109.735 28.6115 105.454 30.5445 102.106C32.4775 98.758 36.7587 97.6109 40.1067 99.5439L45.0672 102.408L55.0023 85.1999C56.9353 81.8518 61.2164 80.7047 64.5645 82.6377Z" fill="white"/>
<path fill-rule="evenodd" clip-rule="evenodd" d="M62.5639 86.1025C63.9988 86.9309 64.4904 88.7657 63.662 90.2006L50.227 113.471C49.3985 114.906 47.5638 115.397 46.1289 114.569L35.1062 108.205C33.6713 107.376 33.1797 105.542 34.0081 104.107C34.8365 102.672 36.6713 102.18 38.1062 103.009L46.5308 107.873L58.4658 87.2006C59.2943 85.7657 61.129 85.2741 62.5639 86.1025Z" fill="#19B86B"/>
<path fill-rule="evenodd" clip-rule="evenodd" d="M220.789 32.7864C222.17 35.1779 221.351 38.2358 218.959 39.6165L205.969 47.1165C203.577 48.4972 200.519 47.6779 199.139 45.2864C197.758 42.8949 198.577 39.837 200.969 38.4563L213.959 30.9563C216.351 29.5756 219.408 30.3949 220.789 32.7864ZM202.839 16.5576C205.072 18.1822 205.565 21.3093 203.941 23.5423L198.146 31.5064C196.522 33.7394 193.395 34.2326 191.162 32.608C188.929 30.9834 188.435 27.8562 190.06 25.6233L195.854 17.6592C197.479 15.4262 200.606 14.933 202.839 16.5576ZM220.374 52.0067C223.121 51.7163 225.582 53.707 225.873 56.4531C226.163 59.1992 224.172 61.6608 221.426 61.9513L211.632 62.9872C208.886 63.2776 206.424 61.2869 206.134 58.5408C205.843 55.7947 207.834 53.3331 210.58 53.0426L220.374 52.0067Z" fill="#3399D1"/>
<path fill-rule="evenodd" clip-rule="evenodd" d="M218.785 30.7845C220.166 33.1759 219.347 36.2339 216.955 37.6146L203.965 45.1146C201.573 46.4953 198.515 45.6759 197.135 43.2845C195.754 40.893 196.573 37.835 198.965 36.4543L211.955 28.9543C214.347 27.5736 217.405 28.393 218.785 30.7845ZM200.835 14.5556C203.068 16.1802 203.561 19.3074 201.937 21.5404L196.142 29.5045C194.518 31.7374 191.391 32.2306 189.158 30.606C186.925 28.9815 186.432 25.8543 188.056 23.6213L193.85 15.6572C195.475 13.4242 198.602 12.931 200.835 14.5556ZM218.371 50.0048C221.117 49.7143 223.578 51.705 223.869 54.4512C224.159 57.1973 222.168 59.6589 219.422 59.9493L209.628 60.9852C206.882 61.2757 204.42 59.2849 204.13 56.5388C203.84 53.7927 205.83 51.3311 208.576 51.0407L218.371 50.0048Z" fill="white"/>
<path fill-rule="evenodd" clip-rule="evenodd" d="M217.055 31.7844C217.883 33.2193 217.391 35.054 215.956 35.8825L202.966 43.3825C201.531 44.2109 199.696 43.7193 198.868 42.2844C198.04 40.8495 198.531 39.0147 199.966 38.1863L212.956 30.6863C214.391 29.8579 216.226 30.3495 217.055 31.7844ZM199.66 16.1728C201 17.1476 201.295 19.0239 200.321 20.3637L194.526 28.3278C193.552 29.6676 191.675 29.9635 190.336 28.9887C188.996 28.014 188.7 26.1377 189.675 24.7979L195.469 16.8338C196.444 15.494 198.32 15.1981 199.66 16.1728ZM218.582 51.9936C220.23 51.8194 221.707 53.0138 221.881 54.6614C222.055 56.3091 220.861 57.7861 219.213 57.9603L209.419 58.9962C207.771 59.1705 206.294 57.9761 206.12 56.3284C205.946 54.6808 207.14 53.2038 208.788 53.0295L218.582 51.9936Z" fill="#FFADF3"/>
<path fill-rule="evenodd" clip-rule="evenodd" d="M208.09 115.823L208.644 121.522C208.864 123.781 210.461 125.666 212.653 126.253C214.845 126.84 217.171 126.006 218.49 124.16L221.82 119.502L227.518 118.948C229.777 118.728 231.662 117.131 232.249 114.939C232.836 112.748 232.002 110.422 230.157 109.102L225.498 105.773L224.944 100.074C224.724 97.8156 223.127 95.9305 220.935 95.3433C218.744 94.756 216.418 95.5898 215.098 97.4357L211.769 102.094L206.07 102.648C203.812 102.868 201.927 104.465 201.339 106.657C200.752 108.849 201.586 111.174 203.432 112.494L208.09 115.823Z" fill="#3399D1"/>
<path fill-rule="evenodd" clip-rule="evenodd" d="M206.094 113.823L206.648 119.522C206.868 121.781 208.465 123.666 210.657 124.253C212.849 124.84 215.175 124.006 216.494 122.16L219.823 117.502L225.522 116.948C227.781 116.728 229.666 115.131 230.253 112.939C230.84 110.748 230.006 108.422 228.16 107.102L223.502 103.773L222.948 98.0738C222.728 95.8156 221.131 93.9305 218.939 93.3433C216.748 92.756 214.422 93.5898 213.102 95.4357L209.773 100.094L204.074 100.648C201.816 100.868 199.931 102.465 199.343 104.657C198.756 106.849 199.59 109.174 201.436 110.494L206.094 113.823Z" fill="white"/>
<path d="M204.461 104.63L211.969 103.9L216.356 97.7621C216.706 97.2728 217.323 97.0517 217.904 97.2074C218.485 97.3631 218.908 97.8628 218.966 98.4615L219.697 105.97L225.834 110.357C226.324 110.707 226.545 111.323 226.389 111.904C226.233 112.485 225.733 112.909 225.135 112.967L217.626 113.697L213.239 119.835C212.89 120.324 212.273 120.545 211.692 120.39C211.111 120.234 210.687 119.734 210.629 119.135L209.899 111.627L203.761 107.24C203.272 106.89 203.051 106.274 203.207 105.693C203.362 105.112 203.862 104.688 204.461 104.63Z" fill="#87CEFF"/>
<defs>
<linearGradient id="paint0_linear_7231_37473" x1="130.274" y1="45.0483" x2="132.627" y2="71.9456" gradientUnits="userSpaceOnUse">
<stop stop-color="#FF6A00" stop-opacity="0"/>
<stop offset="1" stop-color="#FF6A00"/>
</linearGradient>
</defs>
</svg>
