<svg width="272" height="144" viewBox="0 0 272 144" fill="none" xmlns="http://www.w3.org/2000/svg">
<path fill-rule="evenodd" clip-rule="evenodd" d="M181 88V100C181 106.627 175.627 112 169 112H127C120.373 112 115 106.627 115 100V64H103V52C103 45.3726 108.373 40 115 40H157C163.627 40 169 45.3726 169 52V88H181Z" fill="#3399D1"/>
<path fill-rule="evenodd" clip-rule="evenodd" d="M177 84V96C177 102.627 171.627 108 165 108H123C116.373 108 111 102.627 111 96V60H99V48C99 41.3726 104.373 36 111 36H153C159.627 36 165 41.3726 165 48V84H177Z" fill="white"/>
<path d="M105 48C105 44.6863 107.686 42 111 42H120V54H105V48Z" fill="#55B4ED"/>
<path d="M111 42H153C156.314 42 159 44.6863 159 48V102H123C119.686 102 117 99.3137 117 96V48.0075C117 44.8103 114.493 42.1746 111.3 42.015L111 42Z" fill="#C8E6FF"/>
<path d="M129 90H171V96C171 99.3137 168.314 102 165 102H123L123.3 101.985C126.493 101.825 129 99.1897 129 95.9925V90Z" fill="#55B4ED"/>
<path fill-rule="evenodd" clip-rule="evenodd" d="M129 54H126V57H123V60H126V57H129V60H132V57H135V60H138V57H141V60H144V57H147V60H150V57H153V54H150V57H147V54H144V57H141V54H138V57H135V54H132V57H129V54ZM129 66H126V69H123V72H126V69H129V72H132V69H135V72H138V69H141V72H144V69H147V72H150V69H153V66H150V69H147V66H144V69H141V66H138V69H135V66H132V69H129V66ZM126 78H129V81H126V78ZM126 81V84H123V81H126ZM132 81V84H129V81H132ZM135 81H132V78H135V81ZM138 81V84H135V81H138ZM141 81H138V78H141V81ZM144 81V84H141V81H144ZM147 81H144V78H147V81ZM150 81V84H147V81H150ZM150 81V78H153V81H150Z" fill="#3399D1"/>
<path fill-rule="evenodd" clip-rule="evenodd" d="M70.5706 114.298L73.9001 118.956C75.2195 120.802 77.5454 121.636 79.737 121.049C81.9286 120.462 83.526 118.576 83.7457 116.318L84.3001 110.619L88.9583 107.29C90.8041 105.97 91.638 103.644 91.0507 101.453C90.4635 99.2613 88.5784 97.6639 86.3202 97.4442L80.6213 96.8898L77.2917 92.2316C75.9723 90.3858 73.6464 89.5519 71.4548 90.1392C69.2632 90.7264 67.6658 92.6115 67.4461 94.8697L66.8918 100.569L62.2335 103.898C60.3877 105.218 59.5539 107.544 60.1411 109.735C60.7283 111.927 62.6134 113.524 64.8716 113.744L70.5706 114.298Z" fill="#3399D1"/>
<path fill-rule="evenodd" clip-rule="evenodd" d="M68.5706 112.3L71.9001 116.958C73.2195 118.804 75.5454 119.638 77.737 119.051C79.9286 118.464 81.526 116.578 81.7457 114.32L82.3001 108.621L86.9583 105.292C88.8041 103.972 89.638 101.646 89.0507 99.4548C88.4635 97.2633 86.5784 95.6658 84.3202 95.4462L78.6213 94.8918L75.2917 90.2336C73.9723 88.3877 71.6464 87.5539 69.4548 88.1411C67.2632 88.7284 65.6658 90.6134 65.4461 92.8717L64.8918 98.5706L60.2335 101.9C58.3877 103.22 57.5539 105.545 58.1411 107.737C58.7283 109.929 60.6134 111.526 62.8716 111.746L68.5706 112.3Z" fill="white"/>
<path d="M62.559 105.154L68.6964 100.767L69.4268 93.2586C69.485 92.66 69.9085 92.1602 70.4895 92.0045C71.0706 91.8488 71.6872 92.0699 72.037 92.5593L76.4238 98.6967L83.9324 99.4271C84.531 99.4853 85.0308 99.9088 85.1865 100.49C85.3422 101.071 85.1211 101.687 84.6318 102.037L78.4944 106.424L77.7639 113.933C77.7057 114.531 77.2822 115.031 76.7012 115.187C76.1202 115.342 75.5036 115.121 75.1538 114.632L70.7669 108.495L63.2584 107.764C62.6597 107.706 62.1599 107.282 62.0043 106.701C61.8486 106.12 62.0696 105.504 62.559 105.154Z" fill="#FFADF3"/>
<path fill-rule="evenodd" clip-rule="evenodd" d="M203.445 112.311L203.723 115.16C203.832 116.289 204.631 117.232 205.727 117.525C206.823 117.819 207.986 117.402 208.645 116.479L210.31 114.15L213.16 113.873C214.289 113.763 215.231 112.964 215.525 111.869C215.819 110.773 215.402 109.61 214.479 108.95L212.15 107.285L211.872 104.436C211.763 103.307 210.964 102.364 209.868 102.071C208.772 101.777 207.609 102.194 206.95 103.117L205.285 105.446L202.435 105.723C201.306 105.833 200.364 106.632 200.07 107.727C199.776 108.823 200.193 109.986 201.116 110.646L203.445 112.311Z" fill="#3399D1"/>
<path d="M206.763 102.698L207.577 103.279L206.763 102.698L204.834 105.397L201.532 105.718L201.628 106.7L201.532 105.718C200.818 105.788 200.222 106.293 200.036 106.986C199.85 107.679 200.114 108.415 200.698 108.832L201.279 108.018L200.698 108.832L203.397 110.761L203.718 114.063C203.787 114.777 204.292 115.373 204.986 115.559C205.679 115.745 206.414 115.481 206.832 114.897L208.761 112.198L212.063 111.877C212.777 111.808 213.373 111.303 213.559 110.609C213.745 109.916 213.481 109.181 212.897 108.763L210.198 106.834L209.877 103.532L208.882 103.629L209.877 103.532C209.807 102.818 209.302 102.222 208.609 102.036C207.916 101.85 207.18 102.114 206.763 102.698Z" fill="#87CEFF" stroke="white" stroke-width="2" stroke-linejoin="round"/>
<path fill-rule="evenodd" clip-rule="evenodd" d="M70.6706 19.7732C73.0054 21.2478 73.7027 24.3359 72.2281 26.6706L60.2281 45.6706C58.7535 48.0054 55.6654 48.7027 53.3307 47.2281C50.9959 45.7535 50.2986 42.6654 51.7732 40.3307L63.7732 21.3307C65.2478 18.9959 68.3359 18.2986 70.6706 19.7732ZM84.6706 19.7732C87.0054 21.2478 87.7027 24.3359 86.2281 26.6706L74.2281 45.6706C72.7535 48.0054 69.6654 48.7027 67.3307 47.2281C64.9959 45.7535 64.2986 42.6654 65.7732 40.3307L77.7732 21.3307C79.2478 18.9959 82.3359 18.2986 84.6706 19.7732Z" fill="#3399D1"/>
<path fill-rule="evenodd" clip-rule="evenodd" d="M68.6706 17.7732C71.0054 19.2478 71.7027 22.3359 70.2281 24.6706L58.2281 43.6706C56.7535 46.0054 53.6654 46.7027 51.3307 45.2281C48.9959 43.7535 48.2986 40.6654 49.7732 38.3307L61.7732 19.3307C63.2478 16.9959 66.3359 16.2986 68.6706 17.7732ZM82.6706 17.7732C85.0054 19.2478 85.7027 22.3359 84.2281 24.6706L72.2281 43.6706C70.7535 46.0054 67.6654 46.7027 65.3307 45.2281C62.9959 43.7535 62.2986 40.6654 63.7732 38.3307L75.7732 19.3307C77.2478 16.9959 80.3359 16.2986 82.6706 17.7732Z" fill="white"/>
<path fill-rule="evenodd" clip-rule="evenodd" d="M67.6913 23.0683C68.2811 22.1344 68.0022 20.8991 67.0683 20.3093C66.1344 19.7194 64.8991 19.9984 64.3093 20.9323L52.3093 39.9325C51.7194 40.8664 51.9984 42.1016 52.9323 42.6915C53.8662 43.2813 55.1014 43.0024 55.6912 42.0685L67.6913 23.0683ZM81.6913 23.0683C82.2811 22.1344 82.0022 20.8991 81.0683 20.3093C80.1344 19.7194 78.8992 19.9984 78.3093 20.9323L66.3093 39.9325C65.7195 40.8664 65.9984 42.1016 66.9323 42.6915C67.8662 43.2813 69.1014 43.0024 69.6913 42.0685L81.6913 23.0683Z" fill="#9AAEBC"/>
<path fill-rule="evenodd" clip-rule="evenodd" d="M193.719 58.5833C192.776 57.7606 192.235 56.5103 192.366 55.1762L195.356 24.7038C195.462 23.6191 196.007 22.6248 196.863 21.9509C197.72 21.2769 198.814 20.9816 199.893 21.1333L208.766 22.3803C209.846 22.532 210.816 23.1175 211.454 24.0014C212.091 24.8854 212.341 25.9912 212.144 27.0632L206.619 57.1793C206.377 58.4978 205.512 59.5505 204.379 60.0814C204.781 60.4629 205.154 60.8891 205.493 61.3605C206.96 63.3955 207.485 65.7596 207.142 68.2001C206.799 70.6406 205.643 72.7685 203.672 74.3204C201.625 75.9322 199.189 76.4859 196.688 76.1344C194.186 75.7829 191.997 74.5791 190.474 72.4655C189.007 70.4305 188.483 68.0664 188.826 65.626C189.169 63.1855 190.324 61.0575 192.295 59.5056C192.752 59.1461 193.228 58.8393 193.719 58.5833Z" fill="#3399D1"/>
<path fill-rule="evenodd" clip-rule="evenodd" d="M190.719 55.5863C189.776 54.7635 189.235 53.5132 189.366 52.1791L192.356 21.7067C192.462 20.622 193.007 19.6277 193.863 18.9538C194.72 18.2798 195.814 17.9846 196.893 18.1362L205.766 19.3832C206.846 19.5349 207.816 20.1204 208.454 21.0044C209.091 21.8883 209.341 22.9941 209.144 24.0661L203.619 54.1822C203.377 55.5008 202.512 56.5534 201.379 57.0843C201.781 57.4659 202.154 57.892 202.493 58.3635C203.96 60.3985 204.485 62.7625 204.142 65.203C203.799 67.6435 202.643 69.7714 200.672 71.3233C198.625 72.9351 196.189 73.4889 193.688 73.1373C191.186 72.7858 188.997 71.582 187.474 69.4685C186.007 67.4334 185.483 65.0694 185.826 62.6289C186.169 60.1884 187.324 58.0605 189.295 56.5086C189.752 56.1491 190.228 55.8422 190.719 55.5863Z" fill="white"/>
<path d="M193.345 52.5695L196.335 22.0971L205.208 23.3441L199.682 53.4603L193.345 52.5695ZM194.242 69.1761C192.721 68.9623 191.546 68.2801 190.717 67.1295C189.888 65.9789 189.577 64.6642 189.785 63.1854C189.992 61.7066 190.654 60.5285 191.768 59.651C192.882 58.7735 194.2 58.4417 195.721 58.6555C197.242 58.8692 198.417 59.5514 199.246 60.702C200.076 61.8526 200.386 63.1673 200.178 64.6461C199.971 66.1249 199.31 67.3031 198.195 68.1805C197.081 69.058 195.763 69.3898 194.242 69.1761Z" fill="#FFADF3"/>
</svg>
