<svg width="272" height="144" viewBox="0 0 272 144" fill="none" xmlns="http://www.w3.org/2000/svg">
<path d="M36.75 124.5C39.5114 124.5 41.75 122.261 41.75 119.5V114.5H36.75V99.5C36.75 96.7386 34.5114 94.5 31.75 94.5H14.25C11.4886 94.5 9.25 96.7386 9.25 99.5V104.5H14.25V119.5C14.25 122.261 16.4886 124.5 19.25 124.5H36.75Z" fill="#3399D1"/>
<path fill-rule="evenodd" clip-rule="evenodd" d="M40.25 113V118C40.25 120.761 38.0114 123 35.25 123H17.75C14.9886 123 12.75 120.761 12.75 118V103H7.75V98C7.75 95.2386 9.98858 93 12.75 93H30.25C33.0114 93 35.25 95.2386 35.25 98V113H40.25ZM10.25 100.5V98C10.25 96.6193 11.3693 95.5 12.75 95.5H30.25C31.6307 95.5 32.75 96.6193 32.75 98V115.5H37.75V118C37.75 119.381 36.6307 120.5 35.25 120.5H17.75C16.3693 120.5 15.25 119.381 15.25 118V100.5H10.25Z" fill="white"/>
<path d="M10.25 98C10.25 96.6193 11.3693 95.5 12.75 95.5H16.5V100.5H10.25V98Z" fill="#FFAA00"/>
<path d="M10.25 98C10.25 96.6193 11.3693 95.5 12.75 95.5H16.5V100.5H10.25V98Z" fill="url(#paint0_linear_7231_37965)" fill-opacity="0.64"/>
<path d="M12.75 95.5H30.25C31.6307 95.5 32.75 96.6193 32.75 98V120.5H17.75C16.3693 120.5 15.25 119.381 15.25 118V98.0031C15.25 96.6709 14.2054 95.5728 12.8748 95.5062L12.75 95.5Z" fill="#FFD966"/>
<path d="M12.75 95.5H30.25C31.6307 95.5 32.75 96.6193 32.75 98V120.5H17.75C16.3693 120.5 15.25 119.381 15.25 118V98.0031C15.25 96.6709 14.2054 95.5728 12.8748 95.5062L12.75 95.5Z" fill="url(#paint1_linear_7231_37965)" fill-opacity="0.16"/>
<path d="M20.25 115.5H37.75V118C37.75 119.381 36.6307 120.5 35.25 120.5H17.75L17.8748 120.494C19.2054 120.427 20.25 119.329 20.25 117.997V115.5Z" fill="#FFAA00"/>
<path d="M20.25 115.5H37.75V118C37.75 119.381 36.6307 120.5 35.25 120.5H17.75L17.8748 120.494C19.2054 120.427 20.25 119.329 20.25 117.997V115.5Z" fill="url(#paint2_linear_7231_37965)"/>
<path fill-rule="evenodd" clip-rule="evenodd" d="M20.25 100.5H19V101.75H17.75V103H19V101.75H20.25V103H21.5V101.75H22.75V103H24V101.75H25.25V103H26.5V101.75H27.75V103H29V101.75H30.25V100.5H29V101.75H27.75V100.5H26.5V101.75H25.25V100.5H24V101.75H22.75V100.5H21.5V101.75H20.25V100.5ZM20.25 105.5H19V106.75H17.75V108H19V106.75H20.25V108H21.5V106.75H22.75V108H24V106.75H25.25V108H26.5V106.75H27.75V108H29V106.75H30.25V105.5H29V106.75H27.75V105.5H26.5V106.75H25.25V105.5H24V106.75H22.75V105.5H21.5V106.75H20.25V105.5ZM19 110.5H20.25V111.75H19V110.5ZM19 111.75V113H17.75V111.75H19ZM21.5 111.75V113H20.25V111.75H21.5ZM22.75 111.75H21.5V110.5H22.75V111.75ZM24 111.75V113H22.75V111.75H24ZM25.25 111.75H24V110.5H25.25V111.75ZM26.5 111.75V113H25.25V111.75H26.5ZM27.75 111.75H26.5V110.5H27.75V111.75ZM29 111.75V113H27.75V111.75H29ZM29 111.75V110.5H30.25V111.75H29Z" fill="#CC6600"/>
<path d="M62.6213 94.1213L66.2426 90.5H68V99.5C68 101.985 70.0147 104 72.5 104H81.7574L85.3787 107.621C86.2367 108.479 87.527 108.736 88.648 108.272C89.7691 107.807 90.5 106.713 90.5 105.5V104H92C94.4853 104 96.5 101.985 96.5 99.5V83C96.5 80.5147 94.4853 78.5 92 78.5H80V69.5C80 67.0147 77.9853 65 75.5 65H56C53.5147 65 51.5 67.0147 51.5 69.5V86C51.5 88.4853 53.5147 90.5 56 90.5H57.5V92C57.5 93.2134 58.2309 94.3073 59.3519 94.7716C60.473 95.236 61.7633 94.9793 62.6213 94.1213Z" fill="#3399D1"/>
<path fill-rule="evenodd" clip-rule="evenodd" d="M58.5 90V85.5H54C53.1716 85.5 52.5 84.8284 52.5 84V67.5C52.5 66.6716 53.1716 66 54 66H73.5C74.3284 66 75 66.6716 75 67.5V79.5H90C90.8284 79.5 91.5 80.1716 91.5 81V97.5C91.5 98.3284 90.8284 99 90 99H85.5V103.5L81 99H70.5C69.6716 99 69 98.3284 69 97.5V85.5H63L58.5 90ZM64.2426 88.5L60.6213 92.1213C59.7633 92.9793 58.473 93.236 57.3519 92.7716C56.2309 92.3073 55.5 91.2134 55.5 90V88.5H54C51.5147 88.5 49.5 86.4853 49.5 84V67.5C49.5 65.0147 51.5147 63 54 63H73.5C75.9853 63 78 65.0147 78 67.5V76.5H90C92.4853 76.5 94.5 78.5147 94.5 81V97.5C94.5 99.9853 92.4853 102 90 102H88.5V103.5C88.5 104.713 87.7691 105.807 86.648 106.272C85.527 106.736 84.2367 106.479 83.3787 105.621L79.7574 102H70.5C68.0147 102 66 99.9853 66 97.5V88.5H64.2426Z" fill="white"/>
<path d="M52.5 84V67.5C52.5 66.6716 53.1716 66 54 66H73.5C74.3284 66 75 66.6716 75 67.5V84C75 84.8284 74.3284 85.5 73.5 85.5H63L58.5 90V85.5H54C53.1716 85.5 52.5 84.8284 52.5 84Z" fill="#FFA400"/>
<path d="M91.5 97.5V81C91.5 80.1716 90.8284 79.5 90 79.5H70.5C69.6716 79.5 69 80.1716 69 81V97.5C69 98.3284 69.6716 99 70.5 99H81L85.5 103.5V99H90C90.8284 99 91.5 98.3284 91.5 97.5Z" fill="#34B4B7"/>
<path fill-rule="evenodd" clip-rule="evenodd" d="M79.2803 82.7197C78.9874 82.4268 78.5126 82.4268 78.2197 82.7197C77.9268 83.0126 77.9268 83.4874 78.2197 83.7803L79.7197 85.2803C80.0126 85.5732 80.4874 85.5732 80.7803 85.2803C81.0732 84.9874 81.0732 84.5126 80.7803 84.2197L79.2803 82.7197ZM75 87.75C75 87.3358 75.3358 87 75.75 87H78H82.5H84.75C85.1642 87 85.5 87.3358 85.5 87.75C85.5 88.1642 85.1642 88.5 84.75 88.5H83.2118C83.0467 90.0867 82.363 91.2693 81.5033 92.1394C82.139 92.4791 82.771 92.6948 83.2586 92.8269C83.5182 92.8972 83.7331 92.9427 83.8804 92.9704C83.954 92.9842 84.0104 92.9934 84.0469 92.9991C84.0651 93.0019 84.0783 93.0038 84.0861 93.0048L84.093 93.0058L84.0936 93.0059C84.5043 93.0575 84.7956 93.4322 84.7442 93.843C84.6928 94.254 84.318 94.5456 83.907 94.4942L84 93.75C83.907 94.4942 83.9066 94.4942 83.9063 94.4941L83.9054 94.494L83.9034 94.4937L83.8975 94.493L83.8794 94.4905C83.8646 94.4885 83.8441 94.4855 83.8183 94.4815C83.7669 94.4736 83.6945 94.4616 83.604 94.4447C83.4232 94.4108 83.1693 94.3567 82.8664 94.2747C82.2637 94.1114 81.4516 93.8333 80.6323 93.3724C80.5051 93.3009 80.3774 93.2246 80.25 93.1435C80.1226 93.2246 79.9949 93.3009 79.8677 93.3724C79.0484 93.8333 78.2363 94.1114 77.6336 94.2747C77.3307 94.3567 77.0768 94.4108 76.896 94.4447C76.8055 94.4616 76.7331 94.4736 76.6817 94.4815C76.6559 94.4855 76.6354 94.4885 76.6206 94.4905L76.6025 94.493L76.5966 94.4937L76.5946 94.494L76.5937 94.4941C76.5934 94.4942 76.593 94.4942 76.5 93.75L76.593 94.4942C76.182 94.5456 75.8072 94.254 75.7558 93.843C75.7044 93.4322 75.9957 93.0575 76.4064 93.0059L76.407 93.0058L76.4139 93.0048C76.4217 93.0038 76.4349 93.0019 76.4531 92.9991C76.4896 92.9934 76.546 92.9842 76.6196 92.9704C76.7669 92.9427 76.9818 92.8972 77.2414 92.8269C77.729 92.6948 78.361 92.4791 78.9967 92.1394C78.137 91.2692 77.4533 90.0867 77.2882 88.5H75.75C75.3358 88.5 75 88.1642 75 87.75ZM80.25 91.2666C79.5326 90.6105 78.965 89.7203 78.7993 88.5H81.7007C81.535 89.7203 80.9674 90.6105 80.25 91.2666Z" fill="white"/>
<path fill-rule="evenodd" clip-rule="evenodd" d="M64.4425 70.9615C64.3261 70.6821 64.053 70.5 63.7502 70.5C63.4474 70.5 63.1743 70.6821 63.0579 70.9615L60.7502 76.5L59.3079 79.9615C59.1486 80.3439 59.3294 80.783 59.7117 80.9423C60.0941 81.1016 60.5332 80.9208 60.6925 80.5385L61.7502 78H65.7502L66.8079 80.5385C66.9672 80.9208 67.4063 81.1016 67.7887 80.9423C68.171 80.783 68.3518 80.3439 68.1925 79.9615L66.7502 76.5L64.4425 70.9615ZM65.1252 76.5L63.7502 73.2L62.3752 76.5H65.1252Z" fill="white"/>
<path fill-rule="evenodd" clip-rule="evenodd" d="M138 49.7402L112 59.1948L112 62.4543C111.999 71.1021 111.998 80.249 115.027 87.9591C118.298 96.2846 124.893 102.568 136.948 105.856L138 106.143L139.053 105.856C151.107 102.568 157.702 96.2846 160.973 87.9591C164.002 80.249 164.001 71.1021 164 62.4543L164 59.1948L138 49.7402Z" fill="#3399D1"/>
<path fill-rule="evenodd" clip-rule="evenodd" d="M136 47.7432L110 57.1977L110 60.4572C109.999 69.105 109.998 78.2519 113.027 85.962C116.298 94.2875 122.893 100.571 134.948 103.858L136 104.146L137.053 103.858C149.107 100.571 155.702 94.2875 158.973 85.962C162.002 78.2519 162.001 69.105 162 60.4572L162 57.1977L136 47.7432Z" fill="white"/>
<path fill-rule="evenodd" clip-rule="evenodd" d="M110 57.1977L136 47.7432L162 57.1977V59.9994C162 60.1518 162 60.3044 162 60.4572C162.001 69.105 162.002 78.2519 158.973 85.962C155.702 94.2875 149.107 100.571 137.053 103.858L136 104.146L134.948 103.858C122.893 100.571 116.298 94.2875 113.027 85.962C109.998 78.2519 109.999 69.105 110 60.4572C110 60.3044 110 60.1518 110 59.9994V57.1977ZM136 99.9994C114 93.9994 114 77.9994 114 59.9994L136 51.9994L158 59.9994C158 77.9994 158 93.9994 136 99.9994Z" fill="white"/>
<path d="M136 52L114 60C114 78 114 94 136 100C158 94 158 78 158 60L136 52Z" fill="#E44D26"/>
<mask id="mask0_7231_37965" style="mask-type:alpha" maskUnits="userSpaceOnUse" x="114" y="52" width="44" height="48">
<path d="M136 52L114 60C114 78 114 94 136 100C158 94 158 78 158 60L136 52Z" fill="#E44D26"/>
</mask>
<g mask="url(#mask0_7231_37965)">
<path opacity="0.6" fill-rule="evenodd" clip-rule="evenodd" d="M154 76C154 78.2091 152.209 80 150 80C147.791 80 146 78.2091 146 76C146 73.7909 147.791 72 150 72C152.209 72 154 73.7909 154 76ZM122 82C114 82 112 87 112 87V92H132V87C132 87 130 82 122 82ZM150 82C142 82 140 87 140 87V92H160V87C160 87 158 82 150 82ZM122 80C124.209 80 126 78.2091 126 76C126 73.7909 124.209 72 122 72C119.791 72 118 73.7909 118 76C118 78.2091 119.791 80 122 80Z" fill="white"/>
<path fill-rule="evenodd" clip-rule="evenodd" d="M136 80C140.418 80 144 76.4183 144 72C144 67.5817 140.418 64 136 64C131.582 64 128 67.5817 128 72C128 76.4183 131.582 80 136 80ZM136 86C120 86 116 96 116 96V106H156V96C156 96 152 86 136 86Z" fill="white"/>
</g>
<path d="M226 93.5H221.5V75.5C221.5 72.1863 218.814 69.5 215.5 69.5H188.5C185.186 69.5 182.5 72.1863 182.5 75.5V93.5H178V96.5C178 99.8137 180.686 102.5 184 102.5H220C223.314 102.5 226 99.8137 226 96.5V93.5Z" fill="#3399D1"/>
<path d="M224 91.5H219.5V73.5C219.5 70.1863 216.814 67.5 213.5 67.5H186.5C183.186 67.5 180.5 70.1863 180.5 73.5V91.5H176V94.5C176 97.8137 178.686 100.5 182 100.5H218C221.314 100.5 224 97.8137 224 94.5V91.5Z" fill="white"/>
<path fill-rule="evenodd" clip-rule="evenodd" d="M186.5 70.5C184.843 70.5 183.5 71.8431 183.5 73.5V94.5H186.5V73.5H213.5V94.5H216.5V73.5C216.5 71.8431 215.157 70.5 213.5 70.5H186.5Z" fill="#00B277"/>
<path d="M179 94.5H221C221 96.1569 219.657 97.5 218 97.5H182C180.343 97.5 179 96.1569 179 94.5Z" fill="#00B277"/>
<path fill-rule="evenodd" clip-rule="evenodd" d="M196.561 82.0607C197.146 81.4749 197.146 80.5251 196.561 79.9393C195.975 79.3536 195.025 79.3536 194.439 79.9393L191.439 82.9393C190.854 83.5251 190.854 84.4749 191.439 85.0607L194.439 88.0607C195.025 88.6464 195.975 88.6464 196.561 88.0607C197.146 87.4749 197.146 86.5251 196.561 85.9393L194.621 84L196.561 82.0607ZM203.439 82.0607C202.854 81.4749 202.854 80.5251 203.439 79.9393C204.025 79.3536 204.975 79.3536 205.561 79.9393L208.561 82.9393C209.146 83.5251 209.146 84.4749 208.561 85.0607L205.561 88.0607C204.975 88.6464 204.025 88.6464 203.439 88.0607C202.854 87.4749 202.854 86.5251 203.439 85.9393L205.379 84L203.439 82.0607Z" fill="#00B277"/>
<path fill-rule="evenodd" clip-rule="evenodd" d="M260.75 109.5H260.106L260.56 109.045C262.025 107.581 262.025 105.206 260.56 103.742L255.257 98.4385C253.793 96.974 251.418 96.974 249.954 98.4385L249.5 98.8923V98.25C249.5 96.1789 247.821 94.5 245.75 94.5H238.25C236.179 94.5 234.5 96.1789 234.5 98.25V117C234.5 120.885 237.452 124.077 241.236 124.461C241.488 124.487 241.743 124.5 242 124.5H260.75C262.821 124.5 264.5 122.821 264.5 120.75V113.25C264.5 111.179 262.821 109.5 260.75 109.5Z" fill="#3399D1"/>
<path fill-rule="evenodd" clip-rule="evenodd" d="M239.989 120.474C237.467 120.218 235.5 118.089 235.5 115.5V96.75C235.5 96.0596 236.06 95.5 236.75 95.5H244.25C244.94 95.5 245.5 96.0596 245.5 96.75V103.428L250.222 98.7063C250.71 98.2181 251.501 98.2181 251.989 98.7063L257.293 104.01C257.781 104.498 257.781 105.289 257.293 105.777L252.57 110.5H259.25C259.94 110.5 260.5 111.06 260.5 111.75V119.25C260.5 119.94 259.94 120.5 259.25 120.5H240.5C240.327 120.5 240.157 120.491 239.989 120.474ZM258.606 108H259.25C261.321 108 263 109.679 263 111.75V119.25C263 121.321 261.321 123 259.25 123H240.5C240.243 123 239.988 122.987 239.736 122.961C235.952 122.577 233 119.385 233 115.5V96.75C233 94.6789 234.679 93 236.75 93H244.25C246.321 93 248 94.6789 248 96.75V97.3923L248.454 96.9385C249.918 95.474 252.293 95.474 253.757 96.9385L259.06 102.242C260.525 103.706 260.525 106.081 259.06 107.545L258.606 108Z" fill="white"/>
<path d="M259.25 110.5C259.94 110.5 260.5 111.06 260.5 111.75L260.5 119.25C260.5 119.94 259.94 120.5 259.25 120.5L240.5 120.5L240.5 110.5L259.25 110.5Z" fill="#E44D26"/>
<path d="M259.25 110.5C259.94 110.5 260.5 111.06 260.5 111.75L260.5 119.25C260.5 119.94 259.94 120.5 259.25 120.5L240.5 120.5L240.5 110.5L259.25 110.5Z" fill="url(#paint3_linear_7231_37965)" fill-opacity="0.2"/>
<path d="M250.222 98.7061C250.71 98.218 251.501 98.218 251.989 98.7061L257.293 104.009C257.781 104.498 257.781 105.289 257.293 105.777L244.034 119.035C242.082 120.988 238.916 120.988 236.963 119.035C235.011 117.083 235.011 113.917 236.963 111.964L250.222 98.7061Z" fill="#FFAA00"/>
<path d="M250.222 98.7061C250.71 98.218 251.501 98.218 251.989 98.7061L257.293 104.009C257.781 104.498 257.781 105.289 257.293 105.777L244.034 119.035C242.082 120.988 238.916 120.988 236.963 119.035C235.011 117.083 235.011 113.917 236.963 111.964L250.222 98.7061Z" fill="url(#paint4_linear_7231_37965)"/>
<path d="M235.5 96.75C235.5 96.0596 236.06 95.5 236.75 95.5H244.25C244.94 95.5 245.5 96.0596 245.5 96.75V115.5C245.5 118.261 243.261 120.5 240.5 120.5C237.739 120.5 235.5 118.261 235.5 115.5V96.75Z" fill="#FFD640"/>
<circle cx="240.5" cy="115.5" r="1.25" fill="#E44D26"/>
<path fill-rule="evenodd" clip-rule="evenodd" d="M138.005 20C140.766 20 143.005 22.2386 143.005 25V34C143.005 36.7614 140.766 39 138.005 39C135.243 39 133.005 36.7614 133.005 34V25C133.005 22.2386 135.243 20 138.005 20ZM166.485 26.6588C168.883 28.0288 169.716 31.0831 168.346 33.4807L164.346 40.4807C162.976 42.8783 159.922 43.7113 157.524 42.3412C155.126 40.9712 154.293 37.9169 155.664 35.5193L159.664 28.5193C161.034 26.1217 164.088 25.2887 166.485 26.6588ZM109.52 26.6588C111.918 25.2887 114.972 26.1217 116.342 28.5193L120.342 35.5193C121.712 37.9169 120.879 40.9712 118.482 42.3412C116.084 43.7113 113.03 42.8783 111.66 40.4807L107.66 33.4807C106.29 31.0831 107.123 28.0288 109.52 26.6588Z" fill="#3399D1"/>
<path fill-rule="evenodd" clip-rule="evenodd" d="M136.001 18C138.762 18 141.001 20.2386 141.001 23V32C141.001 34.7614 138.762 37 136.001 37C133.239 37 131.001 34.7614 131.001 32V23C131.001 20.2386 133.239 18 136.001 18ZM164.482 24.6588C166.879 26.0288 167.712 29.0831 166.342 31.4807L162.342 38.4807C160.972 40.8783 157.918 41.7113 155.52 40.3412C153.123 38.9712 152.29 35.9169 153.66 33.5193L157.66 26.5193C159.03 24.1217 162.084 23.2887 164.482 24.6588ZM107.516 24.6588C109.914 23.2887 112.968 24.1217 114.338 26.5193L118.338 33.5193C119.708 35.9169 118.875 38.9712 116.478 40.3412C114.08 41.7113 111.026 40.8783 109.656 38.4807L105.656 31.4807C104.286 29.0831 105.119 26.0288 107.516 24.6588Z" fill="white"/>
<path fill-rule="evenodd" clip-rule="evenodd" d="M136.001 20C137.657 20 139.001 21.3431 139.001 23V32C139.001 33.6569 137.657 35 136.001 35C134.344 35 133.001 33.6569 133.001 32V23C133.001 21.3431 134.344 20 136.001 20ZM108.508 26.3953C109.947 25.5732 111.779 26.073 112.601 27.5116L116.601 34.5116C117.423 35.9501 116.924 37.7827 115.485 38.6047C114.046 39.4268 112.214 38.927 111.392 37.4884L107.392 30.4884C106.57 29.0499 107.07 27.2173 108.508 26.3953ZM164.605 30.4884C165.427 29.0499 164.927 27.2173 163.489 26.3953C162.05 25.5732 160.218 26.073 159.396 27.5116L155.396 34.5116C154.574 35.9501 155.074 37.7827 156.512 38.6047C157.951 39.4268 159.783 38.927 160.605 37.4884L164.605 30.4884Z" fill="#87CEFF"/>
<defs>
<linearGradient id="paint0_linear_7231_37965" x1="10.25" y1="96.3333" x2="14.4068" y2="100.787" gradientUnits="userSpaceOnUse">
<stop stop-color="#FF6A00" stop-opacity="0"/>
<stop offset="1" stop-color="#FF6A00"/>
</linearGradient>
<linearGradient id="paint1_linear_7231_37965" x1="23.1662" y1="93.8335" x2="23.1662" y2="122.167" gradientUnits="userSpaceOnUse">
<stop stop-color="#FF6A00" stop-opacity="0"/>
<stop offset="1" stop-color="#FF6A00"/>
</linearGradient>
<linearGradient id="paint2_linear_7231_37965" x1="27.3329" y1="115.083" x2="27.3329" y2="120.083" gradientUnits="userSpaceOnUse">
<stop stop-color="#FF6A00" stop-opacity="0"/>
<stop offset="1" stop-color="#FF6A00"/>
</linearGradient>
<linearGradient id="paint3_linear_7231_37965" x1="260.5" y1="115.5" x2="235.5" y2="115.5" gradientUnits="userSpaceOnUse">
<stop stop-opacity="0"/>
<stop offset="1"/>
</linearGradient>
<linearGradient id="paint4_linear_7231_37965" x1="252.999" y1="104.25" x2="241.682" y2="114.078" gradientUnits="userSpaceOnUse">
<stop stop-color="#FF6A00" stop-opacity="0"/>
<stop offset="1" stop-color="#FF6A00"/>
</linearGradient>
</defs>
</svg>
