<svg width="272" height="153" viewBox="0 0 272 153" fill="none" xmlns="http://www.w3.org/2000/svg">
<g clip-path="url(#clip0_13938_7296)">
<rect width="272" height="153" fill="#87CEFF" fill-opacity="0.32"/>
<mask id="mask0_13938_7296" style="mask-type:alpha" maskUnits="userSpaceOnUse" x="0" y="0" width="272" height="153">
<rect width="272" height="153" fill="url(#paint0_radial_13938_7296)"/>
</mask>
<g mask="url(#mask0_13938_7296)">
<circle cy="4.5" r="4" fill="#87CEFF"/>
<circle cx="16" cy="4.5" r="4" fill="#87CEFF"/>
<circle cx="32" cy="4.5" r="4" fill="#87CEFF"/>
<circle cx="48" cy="4.5" r="4" fill="#87CEFF"/>
<circle cx="64" cy="4.5" r="4" fill="#87CEFF"/>
<circle cx="80" cy="4.5" r="4" fill="#87CEFF"/>
<circle cx="96" cy="4.5" r="4" fill="#87CEFF"/>
<circle cx="112" cy="4.5" r="4" fill="#87CEFF"/>
<circle cx="128" cy="4.5" r="4" fill="#87CEFF"/>
<circle cx="144" cy="4.5" r="4" fill="#87CEFF"/>
<circle cx="160" cy="4.5" r="4" fill="#87CEFF"/>
<circle cx="176" cy="4.5" r="4" fill="#87CEFF"/>
<circle cx="192" cy="4.5" r="4" fill="#87CEFF"/>
<circle cx="208" cy="4.5" r="4" fill="#87CEFF"/>
<circle cx="224" cy="4.5" r="4" fill="#87CEFF"/>
<circle cx="240" cy="4.5" r="4" fill="#87CEFF"/>
<circle cx="256" cy="4.5" r="4" fill="#87CEFF"/>
<circle cx="272" cy="4.5" r="4" fill="#87CEFF"/>
<circle cy="20.5" r="4" fill="#87CEFF"/>
<circle cx="16" cy="20.5" r="4" fill="#87CEFF"/>
<circle cx="32" cy="20.5" r="4" fill="#87CEFF"/>
<circle cx="48" cy="20.5" r="4" fill="#87CEFF"/>
<circle cx="64" cy="20.5" r="4" fill="#87CEFF"/>
<circle cx="80" cy="20.5" r="4" fill="#87CEFF"/>
<circle cx="96" cy="20.5" r="4" fill="#87CEFF"/>
<circle cx="112" cy="20.5" r="4" fill="#87CEFF"/>
<circle cx="128" cy="20.5" r="4" fill="#87CEFF"/>
<circle cx="144" cy="20.5" r="4" fill="#87CEFF"/>
<circle cx="160" cy="20.5" r="4" fill="#87CEFF"/>
<circle cx="176" cy="20.5" r="4" fill="#87CEFF"/>
<circle cx="192" cy="20.5" r="4" fill="#87CEFF"/>
<circle cx="208" cy="20.5" r="4" fill="#87CEFF"/>
<circle cx="224" cy="20.5" r="4" fill="#87CEFF"/>
<circle cx="240" cy="20.5" r="4" fill="#87CEFF"/>
<circle cx="256" cy="20.5" r="4" fill="#87CEFF"/>
<circle cx="272" cy="20.5" r="4" fill="#87CEFF"/>
<circle cy="36.5" r="4" fill="#87CEFF"/>
<circle cx="16" cy="36.5" r="4" fill="#87CEFF"/>
<circle cx="32" cy="36.5" r="4" fill="#87CEFF"/>
<circle cx="48" cy="36.5" r="4" fill="#87CEFF"/>
<circle cx="64" cy="36.5" r="4" fill="#87CEFF"/>
<circle cx="80" cy="36.5" r="4" fill="#87CEFF"/>
<circle cx="96" cy="36.5" r="4" fill="#87CEFF"/>
<circle cx="112" cy="36.5" r="4" fill="#87CEFF"/>
<circle cx="128" cy="36.5" r="4" fill="#87CEFF"/>
<circle cx="144" cy="36.5" r="4" fill="#87CEFF"/>
<circle cx="160" cy="36.5" r="4" fill="#87CEFF"/>
<circle cx="176" cy="36.5" r="4" fill="#87CEFF"/>
<circle cx="192" cy="36.5" r="4" fill="#87CEFF"/>
<circle cx="208" cy="36.5" r="4" fill="#87CEFF"/>
<circle cx="224" cy="36.5" r="4" fill="#87CEFF"/>
<circle cx="240" cy="36.5" r="4" fill="#87CEFF"/>
<circle cx="256" cy="36.5" r="4" fill="#87CEFF"/>
<circle cx="272" cy="36.5" r="4" fill="#87CEFF"/>
<circle cy="52.5" r="4" fill="#87CEFF"/>
<circle cx="16" cy="52.5" r="4" fill="#87CEFF"/>
<circle cx="32" cy="52.5" r="4" fill="#87CEFF"/>
<circle cx="48" cy="52.5" r="4" fill="#87CEFF"/>
<circle cx="64" cy="52.5" r="4" fill="#87CEFF"/>
<circle cx="80" cy="52.5" r="4" fill="#87CEFF"/>
<circle cx="96" cy="52.5" r="4" fill="#87CEFF"/>
<circle cx="112" cy="52.5" r="4" fill="#87CEFF"/>
<circle cx="128" cy="52.5" r="4" fill="#87CEFF"/>
<circle cx="144" cy="52.5" r="4" fill="#87CEFF"/>
<circle cx="160" cy="52.5" r="4" fill="#87CEFF"/>
<circle cx="176" cy="52.5" r="4" fill="#87CEFF"/>
<circle cx="192" cy="52.5" r="4" fill="#87CEFF"/>
<circle cx="208" cy="52.5" r="4" fill="#87CEFF"/>
<circle cx="224" cy="52.5" r="4" fill="#87CEFF"/>
<circle cx="240" cy="52.5" r="4" fill="#87CEFF"/>
<circle cx="256" cy="52.5" r="4" fill="#87CEFF"/>
<circle cx="272" cy="52.5" r="4" fill="#87CEFF"/>
<circle cy="68.5" r="4" fill="#87CEFF"/>
<circle cx="16" cy="68.5" r="4" fill="#87CEFF"/>
<circle cx="32" cy="68.5" r="4" fill="#87CEFF"/>
<circle cx="48" cy="68.5" r="4" fill="#87CEFF"/>
<circle cx="64" cy="68.5" r="4" fill="#87CEFF"/>
<circle cx="80" cy="68.5" r="4" fill="#87CEFF"/>
<circle cx="96" cy="68.5" r="4" fill="#87CEFF"/>
<circle cx="112" cy="68.5" r="4" fill="#87CEFF"/>
<circle cx="128" cy="68.5" r="4" fill="#87CEFF"/>
<circle cx="144" cy="68.5" r="4" fill="#87CEFF"/>
<circle cx="160" cy="68.5" r="4" fill="#87CEFF"/>
<circle cx="176" cy="68.5" r="4" fill="#87CEFF"/>
<circle cx="192" cy="68.5" r="4" fill="#87CEFF"/>
<circle cx="208" cy="68.5" r="4" fill="#87CEFF"/>
<circle cx="224" cy="68.5" r="4" fill="#87CEFF"/>
<circle cx="240" cy="68.5" r="4" fill="#87CEFF"/>
<circle cx="256" cy="68.5" r="4" fill="#87CEFF"/>
<circle cx="272" cy="68.5" r="4" fill="#87CEFF"/>
<circle cy="84.5" r="4" fill="#87CEFF"/>
<circle cx="16" cy="84.5" r="4" fill="#87CEFF"/>
<circle cx="32" cy="84.5" r="4" fill="#87CEFF"/>
<circle cx="48" cy="84.5" r="4" fill="#87CEFF"/>
<circle cx="64" cy="84.5" r="4" fill="#87CEFF"/>
<circle cx="80" cy="84.5" r="4" fill="#87CEFF"/>
<circle cx="96" cy="84.5" r="4" fill="#87CEFF"/>
<circle cx="112" cy="84.5" r="4" fill="#87CEFF"/>
<circle cx="128" cy="84.5" r="4" fill="#87CEFF"/>
<circle cx="144" cy="84.5" r="4" fill="#87CEFF"/>
<circle cx="160" cy="84.5" r="4" fill="#87CEFF"/>
<circle cx="176" cy="84.5" r="4" fill="#87CEFF"/>
<circle cx="192" cy="84.5" r="4" fill="#87CEFF"/>
<circle cx="208" cy="84.5" r="4" fill="#87CEFF"/>
<circle cx="224" cy="84.5" r="4" fill="#87CEFF"/>
<circle cx="240" cy="84.5" r="4" fill="#87CEFF"/>
<circle cx="256" cy="84.5" r="4" fill="#87CEFF"/>
<circle cx="272" cy="84.5" r="4" fill="#87CEFF"/>
<circle cy="100.5" r="4" fill="#87CEFF"/>
<circle cx="16" cy="100.5" r="4" fill="#87CEFF"/>
<circle cx="32" cy="100.5" r="4" fill="#87CEFF"/>
<circle cx="48" cy="100.5" r="4" fill="#87CEFF"/>
<circle cx="64" cy="100.5" r="4" fill="#87CEFF"/>
<circle cx="80" cy="100.5" r="4" fill="#87CEFF"/>
<circle cx="96" cy="100.5" r="4" fill="#87CEFF"/>
<circle cx="112" cy="100.5" r="4" fill="#87CEFF"/>
<circle cx="128" cy="100.5" r="4" fill="#87CEFF"/>
<circle cx="144" cy="100.5" r="4" fill="#87CEFF"/>
<circle cx="160" cy="100.5" r="4" fill="#87CEFF"/>
<circle cx="176" cy="100.5" r="4" fill="#87CEFF"/>
<circle cx="192" cy="100.5" r="4" fill="#87CEFF"/>
<circle cx="208" cy="100.5" r="4" fill="#87CEFF"/>
<circle cx="224" cy="100.5" r="4" fill="#87CEFF"/>
<circle cx="240" cy="100.5" r="4" fill="#87CEFF"/>
<circle cx="256" cy="100.5" r="4" fill="#87CEFF"/>
<circle cx="272" cy="100.5" r="4" fill="#87CEFF"/>
<circle cy="116.5" r="4" fill="#87CEFF"/>
<circle cx="16" cy="116.5" r="4" fill="#87CEFF"/>
<circle cx="32" cy="116.5" r="4" fill="#87CEFF"/>
<circle cx="48" cy="116.5" r="4" fill="#87CEFF"/>
<circle cx="64" cy="116.5" r="4" fill="#87CEFF"/>
<circle cx="80" cy="116.5" r="4" fill="#87CEFF"/>
<circle cx="96" cy="116.5" r="4" fill="#87CEFF"/>
<circle cx="112" cy="116.5" r="4" fill="#87CEFF"/>
<circle cx="128" cy="116.5" r="4" fill="#87CEFF"/>
<circle cx="144" cy="116.5" r="4" fill="#87CEFF"/>
<circle cx="160" cy="116.5" r="4" fill="#87CEFF"/>
<circle cx="176" cy="116.5" r="4" fill="#87CEFF"/>
<circle cx="192" cy="116.5" r="4" fill="#87CEFF"/>
<circle cx="208" cy="116.5" r="4" fill="#87CEFF"/>
<circle cx="224" cy="116.5" r="4" fill="#87CEFF"/>
<circle cx="240" cy="116.5" r="4" fill="#87CEFF"/>
<circle cx="256" cy="116.5" r="4" fill="#87CEFF"/>
<circle cx="272" cy="116.5" r="4" fill="#87CEFF"/>
<circle cy="132.5" r="4" fill="#87CEFF"/>
<circle cx="16" cy="132.5" r="4" fill="#87CEFF"/>
<circle cx="32" cy="132.5" r="4" fill="#87CEFF"/>
<circle cx="48" cy="132.5" r="4" fill="#87CEFF"/>
<circle cx="64" cy="132.5" r="4" fill="#87CEFF"/>
<circle cx="80" cy="132.5" r="4" fill="#87CEFF"/>
<circle cx="96" cy="132.5" r="4" fill="#87CEFF"/>
<circle cx="112" cy="132.5" r="4" fill="#87CEFF"/>
<circle cx="128" cy="132.5" r="4" fill="#87CEFF"/>
<circle cx="144" cy="132.5" r="4" fill="#87CEFF"/>
<circle cx="160" cy="132.5" r="4" fill="#87CEFF"/>
<circle cx="176" cy="132.5" r="4" fill="#87CEFF"/>
<circle cx="192" cy="132.5" r="4" fill="#87CEFF"/>
<circle cx="208" cy="132.5" r="4" fill="#87CEFF"/>
<circle cx="224" cy="132.5" r="4" fill="#87CEFF"/>
<circle cx="240" cy="132.5" r="4" fill="#87CEFF"/>
<circle cx="256" cy="132.5" r="4" fill="#87CEFF"/>
<circle cx="272" cy="132.5" r="4" fill="#87CEFF"/>
<circle cy="148.5" r="4" fill="#87CEFF"/>
<circle cx="16" cy="148.5" r="4" fill="#87CEFF"/>
<circle cx="32" cy="148.5" r="4" fill="#87CEFF"/>
<circle cx="48" cy="148.5" r="4" fill="#87CEFF"/>
<circle cx="64" cy="148.5" r="4" fill="#87CEFF"/>
<circle cx="80" cy="148.5" r="4" fill="#87CEFF"/>
<circle cx="96" cy="148.5" r="4" fill="#87CEFF"/>
<circle cx="112" cy="148.5" r="4" fill="#87CEFF"/>
<circle cx="128" cy="148.5" r="4" fill="#87CEFF"/>
<circle cx="144" cy="148.5" r="4" fill="#87CEFF"/>
<circle cx="160" cy="148.5" r="4" fill="#87CEFF"/>
<circle cx="176" cy="148.5" r="4" fill="#87CEFF"/>
<circle cx="192" cy="148.5" r="4" fill="#87CEFF"/>
<circle cx="208" cy="148.5" r="4" fill="#87CEFF"/>
<circle cx="224" cy="148.5" r="4" fill="#87CEFF"/>
<circle cx="240" cy="148.5" r="4" fill="#87CEFF"/>
<circle cx="256" cy="148.5" r="4" fill="#87CEFF"/>
<circle cx="272" cy="148.5" r="4" fill="#87CEFF"/>
</g>
<circle cx="132" cy="77" r="46" fill="#3399D1"/>
<circle cx="128" cy="73" r="46" fill="white"/>
<path d="M134.946 112.392C129.562 113.342 124.292 113.205 119.134 111.982C113.977 110.759 109.294 108.674 105.085 105.726C100.876 102.779 97.3146 99.0915 94.4014 94.6634C91.4882 90.2354 89.557 85.3295 88.6077 79.9459C87.6468 74.4966 87.7808 69.2097 89.0096 64.0851C90.2384 58.9606 92.3264 54.2938 95.2736 50.0847C98.2208 45.8757 101.908 42.3145 106.337 39.4014C110.765 36.4882 115.67 34.5569 121.054 33.6077C126.503 32.6468 131.79 32.7808 136.915 34.0096C142.039 35.2384 146.706 37.3264 150.915 40.2736C155.124 43.2208 158.683 46.892 161.59 51.2873C164.497 55.6825 166.431 60.6048 167.392 66.054C168.342 71.4377 168.205 76.7082 166.982 81.8656C165.759 87.0229 163.674 91.7062 160.726 95.9152C157.779 100.124 154.108 103.683 149.713 106.59C145.317 109.497 140.395 111.431 134.946 112.392ZM133.522 104.317C134.812 101.652 135.855 98.9298 136.651 96.1494C137.447 93.3689 137.984 90.4649 138.263 87.4372L123.294 90.0766C124.591 92.8265 126.089 95.3717 127.788 97.7122C129.487 100.053 131.398 102.254 133.522 104.317ZM123.002 104.547C121.438 102.589 120.008 100.523 118.711 98.3482C117.413 96.1737 116.249 93.8912 115.218 91.5005L103.598 93.5496C106.08 96.4966 108.964 98.9329 112.248 100.858C115.533 102.784 119.117 104.014 123.002 104.547ZM143.486 100.935C146.954 99.1052 149.902 96.7238 152.33 93.791C154.758 90.8582 156.634 87.5826 157.959 83.9642L146.338 86.0133C146.187 88.6123 145.874 91.1553 145.399 93.6423C144.923 96.1293 144.286 98.5603 143.486 100.935ZM98.8602 86.2615L112.254 83.8999C111.825 82.6216 111.449 81.3509 111.124 80.0881C110.8 78.8252 110.517 77.5044 110.273 76.1256C110.03 74.7469 109.845 73.4087 109.718 72.1111C109.591 70.8135 109.51 69.4908 109.475 68.143L96.0818 70.5046C95.985 71.8756 95.9675 73.2156 96.0291 74.5248C96.0907 75.834 96.2431 77.178 96.4862 78.5567C96.7293 79.9354 97.0458 81.2505 97.4356 82.5018C97.8255 83.7531 98.3004 85.0063 98.8602 86.2615ZM120.132 82.5107L138.646 79.2461C138.612 77.8983 138.531 76.5756 138.404 75.278C138.276 73.9804 138.091 72.6422 137.848 71.2635C137.605 69.8848 137.321 68.564 136.997 67.3011C136.673 66.0382 136.297 64.7676 135.868 63.4892L117.354 66.7538C117.388 68.1016 117.469 69.4243 117.596 70.7219C117.724 72.0195 117.909 73.3577 118.152 74.7365C118.395 76.1152 118.679 77.436 119.003 78.6989C119.327 79.9618 119.704 81.2324 120.132 82.5107ZM146.525 77.857L159.918 75.4953C160.015 74.1244 160.033 72.7843 159.971 71.4751C159.909 70.1659 159.757 68.822 159.514 67.4432C159.271 66.0645 158.954 64.7495 158.564 63.4982C158.175 62.2469 157.7 60.9936 157.14 59.7384L143.746 62.1C144.175 63.3784 144.551 64.649 144.876 65.9119C145.2 67.1748 145.483 68.4956 145.727 69.8743C145.97 71.253 146.155 72.5912 146.282 73.8888C146.409 75.1864 146.49 76.5091 146.525 77.857ZM140.782 54.4994L152.402 52.4504C149.92 49.5034 147.036 47.0671 143.752 45.1415C140.467 43.2159 136.883 41.9863 132.998 41.4528C134.562 43.411 135.992 45.4773 137.289 47.6518C138.587 49.8262 139.751 52.1087 140.782 54.4994ZM117.737 58.5628L132.706 55.9233C131.409 53.1735 129.911 50.6283 128.212 48.2877C126.513 45.9472 124.602 43.7456 122.478 41.6831C121.188 44.3476 120.145 47.0701 119.349 49.8506C118.553 52.631 118.016 55.5351 117.737 58.5628ZM98.0409 62.0357L109.662 59.9867C109.813 57.3877 110.126 54.8446 110.601 52.3576C111.077 49.8706 111.714 47.4397 112.514 45.0647C109.046 46.8948 106.098 49.2762 103.67 52.209C101.242 55.1417 99.3661 58.4173 98.0409 62.0357Z" fill="#FFADF3"/>
<path d="M227.263 112.311C231.523 113.003 234.984 115.713 236.794 119.318L236.925 119.611C237.498 121.08 236.924 122.636 235.841 123.513C234.778 124.374 233.488 124.448 232.46 124.153C231.452 123.862 230.53 123.183 229.96 122.242C229.159 120.92 227.828 119.946 226.219 119.641L225.894 119.589C224.248 119.375 222.678 119.897 221.511 120.906L221.283 121.114C220.492 121.877 219.427 122.298 218.378 122.322C217.31 122.345 216.081 121.944 215.273 120.84C214.396 119.641 214.275 117.841 215.424 116.541C218.182 113.42 222.398 111.672 226.848 112.251L227.263 112.311ZM228.628 103.415C234.996 104.425 240.321 108.096 243.605 113.131C244.657 114.744 244.179 116.766 242.821 117.865C240.961 119.37 238.418 118.665 237.259 116.955C235.064 113.717 231.593 111.376 227.457 110.722L227.054 110.664C222.74 110.103 218.623 111.485 215.578 114.137C214.02 115.494 211.382 115.523 209.97 113.592C208.939 112.183 208.996 110.109 210.423 108.82L210.86 108.436C215.426 104.526 221.573 102.489 228.009 103.326L228.628 103.415ZM229.372 126.925C228.969 129.141 226.947 130.698 224.701 130.521L224.476 130.497C222.065 130.184 220.367 127.975 220.68 125.566C220.994 123.157 223.201 121.458 225.61 121.771C228.019 122.084 229.72 124.29 229.407 126.701L229.372 126.925Z" fill="#55B4ED"/>
<path d="M225.265 110.308C229.525 111 232.986 113.71 234.797 117.315L234.927 117.608C235.501 119.077 234.926 120.633 233.843 121.51C232.78 122.371 231.49 122.445 230.462 122.149C229.454 121.859 228.532 121.18 227.962 120.239C227.161 118.917 225.83 117.943 224.221 117.638L223.896 117.586C222.251 117.372 220.68 117.894 219.513 118.903L219.285 119.111C218.494 119.874 217.429 120.295 216.381 120.319C215.312 120.342 214.084 119.941 213.275 118.837C212.398 117.638 212.277 115.838 213.426 114.538C216.185 111.417 220.4 109.669 224.85 110.247L225.265 110.308ZM226.63 101.412C232.998 102.422 238.323 106.093 241.607 111.128C242.659 112.741 242.181 114.763 240.823 115.862C238.963 117.367 236.42 116.662 235.261 114.952C233.067 111.714 229.595 109.373 225.459 108.719L225.057 108.661C220.742 108.1 216.625 109.482 213.58 112.134C212.023 113.491 209.384 113.52 207.972 111.589C206.942 110.18 206.998 108.105 208.425 106.817L208.862 106.433C213.428 102.523 219.576 100.486 226.011 101.323L226.63 101.412ZM227.374 124.922C226.971 127.138 224.949 128.695 222.703 128.518L222.478 128.494C220.067 128.181 218.369 125.972 218.683 123.563C218.996 121.154 221.203 119.455 223.613 119.768C226.021 120.081 227.722 122.287 227.409 124.698L227.374 124.922Z" fill="white"/>
<path fill-rule="evenodd" clip-rule="evenodd" d="M223.355 121.751C224.669 121.922 225.596 123.126 225.425 124.44C225.254 125.754 224.051 126.682 222.736 126.511C221.422 126.34 220.495 125.136 220.666 123.821C220.836 122.507 222.041 121.58 223.355 121.751ZM224.593 112.231C228.356 112.72 231.426 115.058 233.009 118.213C233.311 118.815 233.109 119.532 232.586 119.956C231.68 120.689 230.277 120.199 229.673 119.203C228.517 117.296 226.538 115.913 224.155 115.603C221.771 115.293 219.502 116.124 217.897 117.672C217.059 118.48 215.577 118.596 214.89 117.656C214.492 117.112 214.48 116.367 214.926 115.862C217.263 113.217 220.829 111.741 224.593 112.231ZM225.753 103.306C231.791 104.091 236.847 107.493 239.931 112.222C240.374 112.902 240.196 113.796 239.566 114.307C238.741 114.974 237.513 114.708 236.917 113.83C234.345 110.034 230.22 107.316 225.315 106.678C220.409 106.04 215.726 107.613 212.267 110.625C211.468 111.322 210.213 111.265 209.587 110.409C209.108 109.754 209.164 108.844 209.766 108.3C213.957 104.517 219.715 102.521 225.753 103.306Z" fill="#7DD99F"/>
<path fill-rule="evenodd" clip-rule="evenodd" d="M46.6706 27.7732C49.0054 29.2478 49.7027 32.3359 48.2281 34.6706L36.2281 53.6706C34.7535 56.0054 31.6654 56.7027 29.3307 55.2281C26.9959 53.7535 26.2986 50.6654 27.7732 48.3307L39.7732 29.3307C41.2478 26.9959 44.3359 26.2986 46.6706 27.7732ZM60.6706 27.7732C63.0054 29.2478 63.7027 32.3359 62.2281 34.6706L50.2281 53.6706C48.7535 56.0054 45.6654 56.7027 43.3307 55.2281C40.9959 53.7535 40.2986 50.6654 41.7732 48.3307L53.7732 29.3307C55.2478 26.9959 58.3359 26.2986 60.6706 27.7732Z" fill="#55B4ED"/>
<path fill-rule="evenodd" clip-rule="evenodd" d="M44.6706 25.7732C47.0054 27.2478 47.7027 30.3359 46.2281 32.6706L34.2281 51.6706C32.7535 54.0054 29.6654 54.7027 27.3307 53.2281C24.9959 51.7535 24.2986 48.6654 25.7732 46.3307L37.7732 27.3307C39.2478 24.9959 42.3359 24.2986 44.6706 25.7732ZM58.6706 25.7732C61.0054 27.2478 61.7027 30.3359 60.2281 32.6706L48.2281 51.6706C46.7535 54.0054 43.6654 54.7027 41.3307 53.2281C38.9959 51.7535 38.2986 48.6654 39.7732 46.3307L51.7732 27.3307C53.2478 24.9959 56.3359 24.2986 58.6706 25.7732Z" fill="white"/>
<path fill-rule="evenodd" clip-rule="evenodd" d="M43.6913 31.0683C44.2811 30.1344 44.0022 28.8991 43.0683 28.3093C42.1344 27.7194 40.8991 27.9984 40.3093 28.9323L28.3093 47.9325C27.7194 48.8664 27.9984 50.1016 28.9323 50.6915C29.8662 51.2813 31.1014 51.0024 31.6912 50.0685L43.6913 31.0683ZM57.6913 31.0683C58.2811 30.1344 58.0022 28.8991 57.0683 28.3093C56.1344 27.7194 54.8992 27.9984 54.3093 28.9323L42.3093 47.9325C41.7195 48.8664 41.9984 50.1016 42.9323 50.6915C43.8662 51.2813 45.1014 51.0024 45.6913 50.0685L57.6913 31.0683Z" fill="#B6C9D8"/>
<path d="M241.5 32C245.09 32 248 34.9101 248 38.5C248 42.0899 245.09 45 241.5 45C237.91 45 235 42.0899 235 38.5C235 34.9101 237.91 32 241.5 32ZM224.5 33C227.538 33 230 35.4624 230 38.5C230 41.5376 227.538 44 224.5 44C221.462 44 219 41.5376 219 38.5C219 35.4624 221.462 33 224.5 33ZM209.5 34C211.985 34 214 36.0147 214 38.5C214 40.9853 211.985 43 209.5 43C207.015 43 205 40.9853 205 38.5C205 36.0147 207.015 34 209.5 34Z" fill="#55B4ED"/>
<path d="M239.5 30C243.09 30 246 32.9101 246 36.5C246 40.0899 243.09 43 239.5 43C235.91 43 233 40.0899 233 36.5C233 32.9101 235.91 30 239.5 30ZM222.5 31C225.538 31 228 33.4624 228 36.5C228 39.5376 225.538 42 222.5 42C219.462 42 217 39.5376 217 36.5C217 33.4624 219.462 31 222.5 31ZM207.5 32C209.985 32 212 34.0147 212 36.5C212 38.9853 209.985 41 207.5 41C205.015 41 203 38.9853 203 36.5C203 34.0147 205.015 32 207.5 32Z" fill="white"/>
<path d="M239.5 32C241.985 32 244 34.0147 244 36.5C244 38.9853 241.985 41 239.5 41C237.015 41 235 38.9853 235 36.5C235 34.0147 237.015 32 239.5 32ZM222.5 33C224.433 33 226 34.567 226 36.5C226 38.433 224.433 40 222.5 40C220.567 40 219 38.433 219 36.5C219 34.567 220.567 33 222.5 33ZM207.5 34C208.881 34 210 35.1193 210 36.5C210 37.8807 208.881 39 207.5 39C206.119 39 205 37.8807 205 36.5C205 35.1193 206.119 34 207.5 34Z" fill="#87CEFF"/>
<path fill-rule="evenodd" clip-rule="evenodd" d="M31.4459 121.311L31.7231 124.16C31.8329 125.289 32.6316 126.232 33.7274 126.525C34.8232 126.819 35.9862 126.402 36.6459 125.479L38.3106 123.15L41.1601 122.873C42.2892 122.763 43.2318 121.964 43.5254 120.869C43.819 119.773 43.4021 118.61 42.4792 117.95L40.15 116.285L39.8729 113.436C39.763 112.307 38.9643 111.364 37.8685 111.071C36.7727 110.777 35.6097 111.194 34.9501 112.117L33.2853 114.446L30.4358 114.723C29.3067 114.833 28.3642 115.632 28.0706 116.727C27.7769 117.823 28.1938 118.986 29.1168 119.646L31.4459 121.311Z" fill="#3399D1"/>
<path d="M36.6095 111.037C37.2595 111.211 37.7445 111.746 37.8596 112.401L37.8778 112.533L38.1984 115.834L40.8975 117.763C41.4813 118.181 41.745 118.917 41.5593 119.61C41.3736 120.303 40.7771 120.809 40.0629 120.878L36.761 121.199L34.8326 123.898C34.4153 124.482 33.6792 124.745 32.9861 124.56C32.2929 124.374 31.7873 123.777 31.7179 123.063L31.3965 119.761L28.6982 117.833C28.1144 117.416 27.8506 116.68 28.0363 115.986C28.2221 115.293 28.8185 114.788 29.5327 114.718L32.8339 114.397L34.763 111.699L34.8449 111.593C35.272 111.083 35.9596 110.863 36.6095 111.037Z" fill="#E08FD5" stroke="white" stroke-width="2" stroke-linejoin="round"/>
</g>
<defs>
<radialGradient id="paint0_radial_13938_7296" cx="0" cy="0" r="1" gradientUnits="userSpaceOnUse" gradientTransform="translate(136 76.5) rotate(90) scale(76.5 136)">
<stop/>
<stop offset="1" stop-opacity="0.2"/>
</radialGradient>
<clipPath id="clip0_13938_7296">
<rect width="272" height="153" fill="white"/>
</clipPath>
</defs>
</svg>
