<svg width="223" height="341" viewBox="0 0 223 341" fill="none" xmlns="http://www.w3.org/2000/svg">
<rect width="223" height="341" rx="12" fill="white"/>
<path d="M28.3633 54.2324C28.75 54.2324 29.0879 54.1152 29.377 53.8809C29.666 53.6465 29.8262 53.3535 29.8574 53.002H30.8828C30.8633 53.3652 30.7383 53.7109 30.5078 54.0391C30.2773 54.3672 29.9688 54.6289 29.582 54.8242C29.1992 55.0195 28.793 55.1172 28.3633 55.1172C27.5 55.1172 26.8125 54.8301 26.3008 54.2559C25.793 53.6777 25.5391 52.8887 25.5391 51.8887V51.707C25.5391 51.0898 25.6523 50.541 25.8789 50.0605C26.1055 49.5801 26.4297 49.207 26.8516 48.9414C27.2773 48.6758 27.7793 48.543 28.3574 48.543C29.0684 48.543 29.6582 48.7559 30.127 49.1816C30.5996 49.6074 30.8516 50.1602 30.8828 50.8398H29.8574C29.8262 50.4297 29.6699 50.0938 29.3887 49.832C29.1113 49.5664 28.7676 49.4336 28.3574 49.4336C27.8066 49.4336 27.3789 49.6328 27.0742 50.0312C26.7734 50.4258 26.623 50.998 26.623 51.748V51.9531C26.623 52.6836 26.7734 53.2461 27.0742 53.6406C27.375 54.0352 27.8047 54.2324 28.3633 54.2324ZM31.8145 51.7715C31.8145 51.1504 31.9355 50.5918 32.1777 50.0957C32.4238 49.5996 32.7637 49.2168 33.1973 48.9473C33.6348 48.6777 34.1328 48.543 34.6914 48.543C35.5547 48.543 36.252 48.8418 36.7832 49.4395C37.3184 50.0371 37.5859 50.832 37.5859 51.8242V51.9004C37.5859 52.5176 37.4668 53.0723 37.2285 53.5645C36.9941 54.0527 36.6562 54.4336 36.2148 54.707C35.7773 54.9805 35.2734 55.1172 34.7031 55.1172C33.8438 55.1172 33.1465 54.8184 32.6113 54.2207C32.0801 53.623 31.8145 52.832 31.8145 51.8477V51.7715ZM32.9043 51.9004C32.9043 52.6035 33.0664 53.168 33.3906 53.5938C33.7188 54.0195 34.1562 54.2324 34.7031 54.2324C35.2539 54.2324 35.6914 54.0176 36.0156 53.5879C36.3398 53.1543 36.502 52.5488 36.502 51.7715C36.502 51.0762 36.3359 50.5137 36.0039 50.084C35.6758 49.6504 35.2383 49.4336 34.6914 49.4336C34.1562 49.4336 33.7246 49.6465 33.3965 50.0723C33.0684 50.498 32.9043 51.1074 32.9043 51.9004ZM39.9707 48.6602L40.0059 49.457C40.4902 48.8477 41.123 48.543 41.9043 48.543C43.2441 48.543 43.9199 49.2988 43.9316 50.8105V55H42.8477V50.8047C42.8438 50.3477 42.7383 50.0098 42.5312 49.791C42.3281 49.5723 42.0098 49.4629 41.5762 49.4629C41.2246 49.4629 40.916 49.5566 40.6504 49.7441C40.3848 49.9316 40.1777 50.1777 40.0293 50.4824V55H38.9453V48.6602H39.9707ZM49.2578 53.3184C49.2578 53.0254 49.1465 52.7988 48.9238 52.6387C48.7051 52.4746 48.3203 52.334 47.7695 52.2168C47.2227 52.0996 46.7871 51.959 46.4629 51.7949C46.1426 51.6309 45.9043 51.4355 45.748 51.209C45.5957 50.9824 45.5195 50.7129 45.5195 50.4004C45.5195 49.8809 45.7383 49.4414 46.1758 49.082C46.6172 48.7227 47.1797 48.543 47.8633 48.543C48.582 48.543 49.1641 48.7285 49.6094 49.0996C50.0586 49.4707 50.2832 49.9453 50.2832 50.5234H49.1934C49.1934 50.2266 49.0664 49.9707 48.8125 49.7559C48.5625 49.541 48.2461 49.4336 47.8633 49.4336C47.4688 49.4336 47.1602 49.5195 46.9375 49.6914C46.7148 49.8633 46.6035 50.0879 46.6035 50.3652C46.6035 50.627 46.707 50.8242 46.9141 50.957C47.1211 51.0898 47.4941 51.2168 48.0332 51.3379C48.5762 51.459 49.0156 51.6035 49.3516 51.7715C49.6875 51.9395 49.9355 52.1426 50.0957 52.3809C50.2598 52.6152 50.3418 52.9023 50.3418 53.2422C50.3418 53.8086 50.1152 54.2637 49.6621 54.6074C49.209 54.9473 48.6211 55.1172 47.8984 55.1172C47.3906 55.1172 46.9414 55.0273 46.5508 54.8477C46.1602 54.668 45.8535 54.418 45.6309 54.0977C45.4121 53.7734 45.3027 53.4238 45.3027 53.0488H46.3867C46.4062 53.4121 46.5508 53.7012 46.8203 53.916C47.0938 54.127 47.4531 54.2324 47.8984 54.2324C48.3086 54.2324 48.6367 54.1504 48.8828 53.9863C49.1328 53.8184 49.2578 53.5957 49.2578 53.3184ZM53.2246 47.125V48.6602H54.4082V49.498H53.2246V53.4297C53.2246 53.6836 53.2773 53.875 53.3828 54.0039C53.4883 54.1289 53.668 54.1914 53.9219 54.1914C54.0469 54.1914 54.2188 54.168 54.4375 54.1211V55C54.1523 55.0781 53.875 55.1172 53.6055 55.1172C53.1211 55.1172 52.7559 54.9707 52.5098 54.6777C52.2637 54.3848 52.1406 53.9688 52.1406 53.4297V49.498H50.9863V48.6602H52.1406V47.125H53.2246Z" fill="black"/>
<path d="M71.8398 48.6602L71.8691 49.3633C72.334 48.8164 72.9609 48.543 73.75 48.543C74.6367 48.543 75.2402 48.8828 75.5605 49.5625C75.7715 49.2578 76.0449 49.0117 76.3809 48.8242C76.7207 48.6367 77.1211 48.543 77.582 48.543C78.9727 48.543 79.6797 49.2793 79.7031 50.752V55H78.6191V50.8164C78.6191 50.3633 78.5156 50.0254 78.3086 49.8027C78.1016 49.5762 77.7539 49.4629 77.2656 49.4629C76.8633 49.4629 76.5293 49.584 76.2637 49.8262C75.998 50.0645 75.8438 50.3867 75.8008 50.793V55H74.7109V50.8457C74.7109 49.9238 74.2598 49.4629 73.3574 49.4629C72.6465 49.4629 72.1602 49.7656 71.8984 50.3711V55H70.8145V48.6602H71.8398ZM85.2578 55C85.1953 54.875 85.1445 54.6523 85.1055 54.332C84.6016 54.8555 84 55.1172 83.3008 55.1172C82.6758 55.1172 82.1621 54.9414 81.7598 54.5898C81.3613 54.2344 81.1621 53.7852 81.1621 53.2422C81.1621 52.582 81.4121 52.0703 81.9121 51.707C82.416 51.3398 83.123 51.1562 84.0332 51.1562H85.0879V50.6582C85.0879 50.2793 84.9746 49.9785 84.748 49.7559C84.5215 49.5293 84.1875 49.416 83.7461 49.416C83.3594 49.416 83.0352 49.5137 82.7734 49.709C82.5117 49.9043 82.3809 50.1406 82.3809 50.418H81.291C81.291 50.1016 81.4023 49.7969 81.625 49.5039C81.8516 49.207 82.1562 48.9727 82.5391 48.8008C82.9258 48.6289 83.3496 48.543 83.8105 48.543C84.541 48.543 85.1133 48.7266 85.5273 49.0938C85.9414 49.457 86.1562 49.959 86.1719 50.5996V53.5176C86.1719 54.0996 86.2461 54.5625 86.3945 54.9062V55H85.2578ZM83.459 54.1738C83.7988 54.1738 84.1211 54.0859 84.4258 53.9102C84.7305 53.7344 84.9512 53.5059 85.0879 53.2246V51.9238H84.2383C82.9102 51.9238 82.2461 52.3125 82.2461 53.0898C82.2461 53.4297 82.3594 53.6953 82.5859 53.8867C82.8125 54.0781 83.1035 54.1738 83.459 54.1738ZM87.6133 51.7773C87.6133 50.7891 87.8418 50.0039 88.2988 49.4219C88.7559 48.8359 89.3613 48.543 90.1152 48.543C90.8887 48.543 91.4922 48.8164 91.9258 49.3633L91.9785 48.6602H92.9688V54.8477C92.9688 55.668 92.7246 56.3145 92.2363 56.7871C91.752 57.2598 91.0996 57.4961 90.2793 57.4961C89.8223 57.4961 89.375 57.3984 88.9375 57.2031C88.5 57.0078 88.166 56.7402 87.9355 56.4004L88.498 55.75C88.9629 56.3242 89.5312 56.6113 90.2031 56.6113C90.7305 56.6113 91.1406 56.4629 91.4336 56.166C91.7305 55.8691 91.8789 55.4512 91.8789 54.9121V54.3672C91.4453 54.8672 90.8535 55.1172 90.1035 55.1172C89.3613 55.1172 88.7598 54.8184 88.2988 54.2207C87.8418 53.623 87.6133 52.8086 87.6133 51.7773ZM88.7031 51.9004C88.7031 52.6152 88.8496 53.1777 89.1426 53.5879C89.4355 53.9941 89.8457 54.1973 90.373 54.1973C91.0566 54.1973 91.5586 53.8867 91.8789 53.2656V50.3711C91.5469 49.7656 91.0488 49.4629 90.3848 49.4629C89.8574 49.4629 89.4453 49.668 89.1484 50.0781C88.8516 50.4883 88.7031 51.0957 88.7031 51.9004ZM95.7871 55H94.7031V48.6602H95.7871V55ZM94.6152 46.9785C94.6152 46.8027 94.668 46.6543 94.7734 46.5332C94.8828 46.4121 95.043 46.3516 95.2539 46.3516C95.4648 46.3516 95.625 46.4121 95.7344 46.5332C95.8438 46.6543 95.8984 46.8027 95.8984 46.9785C95.8984 47.1543 95.8438 47.3008 95.7344 47.418C95.625 47.5352 95.4648 47.5938 95.2539 47.5938C95.043 47.5938 94.8828 47.5352 94.7734 47.418C94.668 47.3008 94.6152 47.1543 94.6152 46.9785ZM100.07 54.2324C100.457 54.2324 100.795 54.1152 101.084 53.8809C101.373 53.6465 101.533 53.3535 101.564 53.002H102.59C102.57 53.3652 102.445 53.7109 102.215 54.0391C101.984 54.3672 101.676 54.6289 101.289 54.8242C100.906 55.0195 100.5 55.1172 100.07 55.1172C99.207 55.1172 98.5195 54.8301 98.0078 54.2559C97.5 53.6777 97.2461 52.8887 97.2461 51.8887V51.707C97.2461 51.0898 97.3594 50.541 97.5859 50.0605C97.8125 49.5801 98.1367 49.207 98.5586 48.9414C98.9844 48.6758 99.4863 48.543 100.064 48.543C100.775 48.543 101.365 48.7559 101.834 49.1816C102.307 49.6074 102.559 50.1602 102.59 50.8398H101.564C101.533 50.4297 101.377 50.0938 101.096 49.832C100.818 49.5664 100.475 49.4336 100.064 49.4336C99.5137 49.4336 99.0859 49.6328 98.7812 50.0312C98.4805 50.4258 98.3301 50.998 98.3301 51.748V51.9531C98.3301 52.6836 98.4805 53.2461 98.7812 53.6406C99.082 54.0352 99.5117 54.2324 100.07 54.2324ZM110.535 55H109.404L105.109 48.4258V55H103.979V46.4688H105.109L109.416 53.0723V46.4688H110.535V55ZM116.277 54.373C115.855 54.8691 115.236 55.1172 114.42 55.1172C113.744 55.1172 113.229 54.9219 112.873 54.5312C112.521 54.1367 112.344 53.5547 112.34 52.7852V48.6602H113.424V52.7559C113.424 53.7168 113.814 54.1973 114.596 54.1973C115.424 54.1973 115.975 53.8887 116.248 53.2715V48.6602H117.332V55H116.301L116.277 54.373ZM120.004 48.6602L120.033 49.3633C120.498 48.8164 121.125 48.543 121.914 48.543C122.801 48.543 123.404 48.8828 123.725 49.5625C123.936 49.2578 124.209 49.0117 124.545 48.8242C124.885 48.6367 125.285 48.543 125.746 48.543C127.137 48.543 127.844 49.2793 127.867 50.752V55H126.783V50.8164C126.783 50.3633 126.68 50.0254 126.473 49.8027C126.266 49.5762 125.918 49.4629 125.43 49.4629C125.027 49.4629 124.693 49.584 124.428 49.8262C124.162 50.0645 124.008 50.3867 123.965 50.793V55H122.875V50.8457C122.875 49.9238 122.424 49.4629 121.521 49.4629C120.811 49.4629 120.324 49.7656 120.062 50.3711V55H118.979V48.6602H120.004ZM134.875 51.9004C134.875 52.8691 134.652 53.6484 134.207 54.2383C133.762 54.8242 133.164 55.1172 132.414 55.1172C131.613 55.1172 130.994 54.834 130.557 54.2676L130.504 55H129.508V46H130.592V49.3574C131.029 48.8145 131.633 48.543 132.402 48.543C133.172 48.543 133.775 48.834 134.213 49.416C134.654 49.998 134.875 50.7949 134.875 51.8066V51.9004ZM133.791 51.7773C133.791 51.0391 133.648 50.4688 133.363 50.0664C133.078 49.6641 132.668 49.4629 132.133 49.4629C131.418 49.4629 130.904 49.7949 130.592 50.459V53.2012C130.924 53.8652 131.441 54.1973 132.145 54.1973C132.664 54.1973 133.068 53.9961 133.357 53.5938C133.646 53.1914 133.791 52.5859 133.791 51.7773ZM138.877 55.1172C138.018 55.1172 137.318 54.8359 136.779 54.2734C136.24 53.707 135.971 52.9512 135.971 52.0059V51.8066C135.971 51.1777 136.09 50.6172 136.328 50.125C136.57 49.6289 136.906 49.2422 137.336 48.9648C137.77 48.6836 138.238 48.543 138.742 48.543C139.566 48.543 140.207 48.8145 140.664 49.3574C141.121 49.9004 141.35 50.6777 141.35 51.6895V52.1406H137.055C137.07 52.7656 137.252 53.2715 137.6 53.6582C137.951 54.041 138.396 54.2324 138.936 54.2324C139.318 54.2324 139.643 54.1543 139.908 53.998C140.174 53.8418 140.406 53.6348 140.605 53.377L141.268 53.8926C140.736 54.709 139.939 55.1172 138.877 55.1172ZM138.742 49.4336C138.305 49.4336 137.938 49.5938 137.641 49.9141C137.344 50.2305 137.16 50.6758 137.09 51.25H140.266V51.168C140.234 50.6172 140.086 50.1914 139.82 49.8906C139.555 49.5859 139.195 49.4336 138.742 49.4336ZM145.674 49.6328C145.51 49.6055 145.332 49.5918 145.141 49.5918C144.43 49.5918 143.947 49.8945 143.693 50.5V55H142.609V48.6602H143.664L143.682 49.3926C144.037 48.8262 144.541 48.543 145.193 48.543C145.404 48.543 145.564 48.5703 145.674 48.625V49.6328Z" fill="black"/>
<path d="M157.777 50.7305H152.891V49.7871H157.777V50.7305ZM157.777 53.1621H152.891V52.2246H157.777V53.1621Z" fill="black"/>
<path d="M169.271 55.5H168.182V48.2754L165.996 49.0781V48.0938L169.102 46.9277H169.271V55.5ZM177.621 49.1953C177.621 49.6211 177.508 50 177.281 50.332C177.059 50.6641 176.756 50.9238 176.373 51.1113C176.818 51.3027 177.17 51.582 177.428 51.9492C177.689 52.3164 177.82 52.7324 177.82 53.1973C177.82 53.9355 177.57 54.5234 177.07 54.9609C176.574 55.3984 175.92 55.6172 175.107 55.6172C174.287 55.6172 173.629 55.3984 173.133 54.9609C172.641 54.5195 172.395 53.9316 172.395 53.1973C172.395 52.7363 172.52 52.3203 172.77 51.9492C173.023 51.5781 173.373 51.2969 173.818 51.1055C173.439 50.918 173.141 50.6582 172.922 50.3262C172.703 49.9941 172.594 49.6172 172.594 49.1953C172.594 48.4766 172.824 47.9062 173.285 47.4844C173.746 47.0625 174.354 46.8516 175.107 46.8516C175.857 46.8516 176.463 47.0625 176.924 47.4844C177.389 47.9062 177.621 48.4766 177.621 49.1953ZM176.736 53.1738C176.736 52.6973 176.584 52.3086 176.279 52.0078C175.979 51.707 175.584 51.5566 175.096 51.5566C174.607 51.5566 174.215 51.7051 173.918 52.002C173.625 52.2988 173.479 52.6895 173.479 53.1738C173.479 53.6582 173.621 54.0391 173.906 54.3164C174.195 54.5938 174.596 54.7324 175.107 54.7324C175.615 54.7324 176.014 54.5938 176.303 54.3164C176.592 54.0352 176.736 53.6543 176.736 53.1738ZM175.107 47.7422C174.682 47.7422 174.336 47.875 174.07 48.1406C173.809 48.4023 173.678 48.7598 173.678 49.2129C173.678 49.6465 173.807 49.998 174.064 50.2676C174.326 50.5332 174.674 50.666 175.107 50.666C175.541 50.666 175.887 50.5332 176.145 50.2676C176.406 49.998 176.537 49.6465 176.537 49.2129C176.537 48.7793 176.402 48.4258 176.133 48.1523C175.863 47.8789 175.521 47.7422 175.107 47.7422ZM179.684 51.2227L180.117 46.9688H184.488V47.9707H181.037L180.779 50.2969C181.197 50.0508 181.672 49.9277 182.203 49.9277C182.98 49.9277 183.598 50.1855 184.055 50.7012C184.512 51.2129 184.74 51.9062 184.74 52.7812C184.74 53.6602 184.502 54.3535 184.025 54.8613C183.553 55.3652 182.891 55.6172 182.039 55.6172C181.285 55.6172 180.67 55.4082 180.193 54.9902C179.717 54.5723 179.445 53.9941 179.379 53.2559H180.404C180.471 53.7441 180.645 54.1133 180.926 54.3633C181.207 54.6094 181.578 54.7324 182.039 54.7324C182.543 54.7324 182.938 54.5605 183.223 54.2168C183.512 53.873 183.656 53.3984 183.656 52.793C183.656 52.2227 183.5 51.7656 183.188 51.4219C182.879 51.0742 182.467 50.9004 181.951 50.9004C181.479 50.9004 181.107 51.0039 180.838 51.2109L180.551 51.4453L179.684 51.2227Z" fill="black"/>
<path d="M202.65 49.7578C202.65 49.5703 202.705 49.4141 202.814 49.2891C202.928 49.1641 203.096 49.1016 203.318 49.1016C203.541 49.1016 203.709 49.1641 203.822 49.2891C203.939 49.4141 203.998 49.5703 203.998 49.7578C203.998 49.9375 203.939 50.0879 203.822 50.209C203.709 50.3301 203.541 50.3906 203.318 50.3906C203.096 50.3906 202.928 50.3301 202.814 50.209C202.705 50.0879 202.65 49.9375 202.65 49.7578ZM202.855 57.1992L202.24 56.7773C202.607 56.2656 202.799 55.7383 202.814 55.1953V54.2168H203.875V55.0664C203.875 55.4609 203.777 55.8555 203.582 56.25C203.391 56.6445 203.148 56.9609 202.855 57.1992Z" fill="black"/>
<path d="M202.65 134.258C202.65 134.07 202.705 133.914 202.814 133.789C202.928 133.664 203.096 133.602 203.318 133.602C203.541 133.602 203.709 133.664 203.822 133.789C203.939 133.914 203.998 134.07 203.998 134.258C203.998 134.438 203.939 134.588 203.822 134.709C203.709 134.83 203.541 134.891 203.318 134.891C203.096 134.891 202.928 134.83 202.814 134.709C202.705 134.588 202.65 134.438 202.65 134.258ZM202.855 141.699L202.24 141.277C202.607 140.766 202.799 140.238 202.814 139.695V138.717H203.875V139.566C203.875 139.961 203.777 140.355 203.582 140.75C203.391 141.145 203.148 141.461 202.855 141.699Z" fill="black"/>
<path d="M71.8398 246.66L71.8691 247.363C72.334 246.816 72.9609 246.543 73.75 246.543C74.6367 246.543 75.2402 246.883 75.5605 247.562C75.7715 247.258 76.0449 247.012 76.3809 246.824C76.7207 246.637 77.1211 246.543 77.582 246.543C78.9727 246.543 79.6797 247.279 79.7031 248.752V253H78.6191V248.816C78.6191 248.363 78.5156 248.025 78.3086 247.803C78.1016 247.576 77.7539 247.463 77.2656 247.463C76.8633 247.463 76.5293 247.584 76.2637 247.826C75.998 248.064 75.8438 248.387 75.8008 248.793V253H74.7109V248.846C74.7109 247.924 74.2598 247.463 73.3574 247.463C72.6465 247.463 72.1602 247.766 71.8984 248.371V253H70.8145V246.66H71.8398ZM85.2578 253C85.1953 252.875 85.1445 252.652 85.1055 252.332C84.6016 252.855 84 253.117 83.3008 253.117C82.6758 253.117 82.1621 252.941 81.7598 252.59C81.3613 252.234 81.1621 251.785 81.1621 251.242C81.1621 250.582 81.4121 250.07 81.9121 249.707C82.416 249.34 83.123 249.156 84.0332 249.156H85.0879V248.658C85.0879 248.279 84.9746 247.979 84.748 247.756C84.5215 247.529 84.1875 247.416 83.7461 247.416C83.3594 247.416 83.0352 247.514 82.7734 247.709C82.5117 247.904 82.3809 248.141 82.3809 248.418H81.291C81.291 248.102 81.4023 247.797 81.625 247.504C81.8516 247.207 82.1562 246.973 82.5391 246.801C82.9258 246.629 83.3496 246.543 83.8105 246.543C84.541 246.543 85.1133 246.727 85.5273 247.094C85.9414 247.457 86.1562 247.959 86.1719 248.6V251.518C86.1719 252.1 86.2461 252.562 86.3945 252.906V253H85.2578ZM83.459 252.174C83.7988 252.174 84.1211 252.086 84.4258 251.91C84.7305 251.734 84.9512 251.506 85.0879 251.225V249.924H84.2383C82.9102 249.924 82.2461 250.312 82.2461 251.09C82.2461 251.43 82.3594 251.695 82.5859 251.887C82.8125 252.078 83.1035 252.174 83.459 252.174ZM87.6133 249.777C87.6133 248.789 87.8418 248.004 88.2988 247.422C88.7559 246.836 89.3613 246.543 90.1152 246.543C90.8887 246.543 91.4922 246.816 91.9258 247.363L91.9785 246.66H92.9688V252.848C92.9688 253.668 92.7246 254.314 92.2363 254.787C91.752 255.26 91.0996 255.496 90.2793 255.496C89.8223 255.496 89.375 255.398 88.9375 255.203C88.5 255.008 88.166 254.74 87.9355 254.4L88.498 253.75C88.9629 254.324 89.5312 254.611 90.2031 254.611C90.7305 254.611 91.1406 254.463 91.4336 254.166C91.7305 253.869 91.8789 253.451 91.8789 252.912V252.367C91.4453 252.867 90.8535 253.117 90.1035 253.117C89.3613 253.117 88.7598 252.818 88.2988 252.221C87.8418 251.623 87.6133 250.809 87.6133 249.777ZM88.7031 249.9C88.7031 250.615 88.8496 251.178 89.1426 251.588C89.4355 251.994 89.8457 252.197 90.373 252.197C91.0566 252.197 91.5586 251.887 91.8789 251.266V248.371C91.5469 247.766 91.0488 247.463 90.3848 247.463C89.8574 247.463 89.4453 247.668 89.1484 248.078C88.8516 248.488 88.7031 249.096 88.7031 249.9ZM95.7871 253H94.7031V246.66H95.7871V253ZM94.6152 244.979C94.6152 244.803 94.668 244.654 94.7734 244.533C94.8828 244.412 95.043 244.352 95.2539 244.352C95.4648 244.352 95.625 244.412 95.7344 244.533C95.8438 244.654 95.8984 244.803 95.8984 244.979C95.8984 245.154 95.8438 245.301 95.7344 245.418C95.625 245.535 95.4648 245.594 95.2539 245.594C95.043 245.594 94.8828 245.535 94.7734 245.418C94.668 245.301 94.6152 245.154 94.6152 244.979ZM100.07 252.232C100.457 252.232 100.795 252.115 101.084 251.881C101.373 251.646 101.533 251.354 101.564 251.002H102.59C102.57 251.365 102.445 251.711 102.215 252.039C101.984 252.367 101.676 252.629 101.289 252.824C100.906 253.02 100.5 253.117 100.07 253.117C99.207 253.117 98.5195 252.83 98.0078 252.256C97.5 251.678 97.2461 250.889 97.2461 249.889V249.707C97.2461 249.09 97.3594 248.541 97.5859 248.061C97.8125 247.58 98.1367 247.207 98.5586 246.941C98.9844 246.676 99.4863 246.543 100.064 246.543C100.775 246.543 101.365 246.756 101.834 247.182C102.307 247.607 102.559 248.16 102.59 248.84H101.564C101.533 248.43 101.377 248.094 101.096 247.832C100.818 247.566 100.475 247.434 100.064 247.434C99.5137 247.434 99.0859 247.633 98.7812 248.031C98.4805 248.426 98.3301 248.998 98.3301 249.748V249.953C98.3301 250.684 98.4805 251.246 98.7812 251.641C99.082 252.035 99.5117 252.232 100.07 252.232ZM110.535 253H109.404L105.109 246.426V253H103.979V244.469H105.109L109.416 251.072V244.469H110.535V253ZM116.277 252.373C115.855 252.869 115.236 253.117 114.42 253.117C113.744 253.117 113.229 252.922 112.873 252.531C112.521 252.137 112.344 251.555 112.34 250.785V246.66H113.424V250.756C113.424 251.717 113.814 252.197 114.596 252.197C115.424 252.197 115.975 251.889 116.248 251.271V246.66H117.332V253H116.301L116.277 252.373ZM120.004 246.66L120.033 247.363C120.498 246.816 121.125 246.543 121.914 246.543C122.801 246.543 123.404 246.883 123.725 247.562C123.936 247.258 124.209 247.012 124.545 246.824C124.885 246.637 125.285 246.543 125.746 246.543C127.137 246.543 127.844 247.279 127.867 248.752V253H126.783V248.816C126.783 248.363 126.68 248.025 126.473 247.803C126.266 247.576 125.918 247.463 125.43 247.463C125.027 247.463 124.693 247.584 124.428 247.826C124.162 248.064 124.008 248.387 123.965 248.793V253H122.875V248.846C122.875 247.924 122.424 247.463 121.521 247.463C120.811 247.463 120.324 247.766 120.062 248.371V253H118.979V246.66H120.004ZM134.875 249.9C134.875 250.869 134.652 251.648 134.207 252.238C133.762 252.824 133.164 253.117 132.414 253.117C131.613 253.117 130.994 252.834 130.557 252.268L130.504 253H129.508V244H130.592V247.357C131.029 246.814 131.633 246.543 132.402 246.543C133.172 246.543 133.775 246.834 134.213 247.416C134.654 247.998 134.875 248.795 134.875 249.807V249.9ZM133.791 249.777C133.791 249.039 133.648 248.469 133.363 248.066C133.078 247.664 132.668 247.463 132.133 247.463C131.418 247.463 130.904 247.795 130.592 248.459V251.201C130.924 251.865 131.441 252.197 132.145 252.197C132.664 252.197 133.068 251.996 133.357 251.594C133.646 251.191 133.791 250.586 133.791 249.777ZM138.877 253.117C138.018 253.117 137.318 252.836 136.779 252.273C136.24 251.707 135.971 250.951 135.971 250.006V249.807C135.971 249.178 136.09 248.617 136.328 248.125C136.57 247.629 136.906 247.242 137.336 246.965C137.77 246.684 138.238 246.543 138.742 246.543C139.566 246.543 140.207 246.814 140.664 247.357C141.121 247.9 141.35 248.678 141.35 249.689V250.141H137.055C137.07 250.766 137.252 251.271 137.6 251.658C137.951 252.041 138.396 252.232 138.936 252.232C139.318 252.232 139.643 252.154 139.908 251.998C140.174 251.842 140.406 251.635 140.605 251.377L141.268 251.893C140.736 252.709 139.939 253.117 138.877 253.117ZM138.742 247.434C138.305 247.434 137.938 247.594 137.641 247.914C137.344 248.23 137.16 248.676 137.09 249.25H140.266V249.168C140.234 248.617 140.086 248.191 139.82 247.891C139.555 247.586 139.195 247.434 138.742 247.434ZM145.674 247.633C145.51 247.605 145.332 247.592 145.141 247.592C144.43 247.592 143.947 247.895 143.693 248.5V253H142.609V246.66H143.664L143.682 247.393C144.037 246.826 144.541 246.543 145.193 246.543C145.404 246.543 145.564 246.57 145.674 246.625V247.633Z" fill="black"/>
<rect x="67.5" y="237.5" width="81" height="24" rx="3.5" stroke="#188A53"/>
<path d="M157.777 196.23H152.891V195.287H157.777V196.23ZM157.777 198.662H152.891V197.725H157.777V198.662Z" fill="black"/>
<rect x="62.5" y="180.5" width="132" height="33" rx="3.5" stroke="#DFAB46"/>
<path d="M168.998 201H167.914V194.66H168.998V201ZM167.826 192.979C167.826 192.803 167.879 192.654 167.984 192.533C168.094 192.412 168.254 192.352 168.465 192.352C168.676 192.352 168.836 192.412 168.945 192.533C169.055 192.654 169.109 192.803 169.109 192.979C169.109 193.154 169.055 193.301 168.945 193.418C168.836 193.535 168.676 193.594 168.465 193.594C168.254 193.594 168.094 193.535 167.984 193.418C167.879 193.301 167.826 193.154 167.826 192.979ZM171.764 194.66L171.799 195.457C172.283 194.848 172.916 194.543 173.697 194.543C175.037 194.543 175.713 195.299 175.725 196.811V201H174.641V196.805C174.637 196.348 174.531 196.01 174.324 195.791C174.121 195.572 173.803 195.463 173.369 195.463C173.018 195.463 172.709 195.557 172.443 195.744C172.178 195.932 171.971 196.178 171.822 196.482V201H170.738V194.66H171.764ZM178.537 201H177.453V194.66H178.537V201ZM177.365 192.979C177.365 192.803 177.418 192.654 177.523 192.533C177.633 192.412 177.793 192.352 178.004 192.352C178.215 192.352 178.375 192.412 178.484 192.533C178.594 192.654 178.648 192.803 178.648 192.979C178.648 193.154 178.594 193.301 178.484 193.418C178.375 193.535 178.215 193.594 178.004 193.594C177.793 193.594 177.633 193.535 177.523 193.418C177.418 193.301 177.365 193.154 177.365 192.979ZM181.748 193.125V194.66H182.932V195.498H181.748V199.43C181.748 199.684 181.801 199.875 181.906 200.004C182.012 200.129 182.191 200.191 182.445 200.191C182.57 200.191 182.742 200.168 182.961 200.121V201C182.676 201.078 182.398 201.117 182.129 201.117C181.645 201.117 181.279 200.971 181.033 200.678C180.787 200.385 180.664 199.969 180.664 199.43V195.498H179.51V194.66H180.664V193.125H181.748Z" fill="black" fill-opacity="0.4"/>
<path d="M71.998 201H70.9141V194.66H71.998V201ZM70.8262 192.979C70.8262 192.803 70.8789 192.654 70.9844 192.533C71.0938 192.412 71.2539 192.352 71.4648 192.352C71.6758 192.352 71.8359 192.412 71.9453 192.533C72.0547 192.654 72.1094 192.803 72.1094 192.979C72.1094 193.154 72.0547 193.301 71.9453 193.418C71.8359 193.535 71.6758 193.594 71.4648 193.594C71.2539 193.594 71.0938 193.535 70.9844 193.418C70.8789 193.301 70.8262 193.154 70.8262 192.979ZM73.4746 197.777C73.4746 196.805 73.7051 196.023 74.166 195.434C74.627 194.84 75.2305 194.543 75.9766 194.543C76.7188 194.543 77.3066 194.797 77.7402 195.305V192H78.8242V201H77.8281L77.7754 200.32C77.3418 200.852 76.7383 201.117 75.9648 201.117C75.2305 201.117 74.6309 200.816 74.166 200.215C73.7051 199.613 73.4746 198.828 73.4746 197.859V197.777ZM74.5586 197.9C74.5586 198.619 74.707 199.182 75.0039 199.588C75.3008 199.994 75.7109 200.197 76.2344 200.197C76.9219 200.197 77.4238 199.889 77.7402 199.271V196.359C77.416 195.762 76.918 195.463 76.2461 195.463C75.7148 195.463 75.3008 195.668 75.0039 196.078C74.707 196.488 74.5586 197.096 74.5586 197.9Z" fill="black" fill-opacity="0.4"/>
<path d="M169.271 253H168.182V245.775L165.996 246.578V245.594L169.102 244.428H169.271V253ZM177.621 246.695C177.621 247.121 177.508 247.5 177.281 247.832C177.059 248.164 176.756 248.424 176.373 248.611C176.818 248.803 177.17 249.082 177.428 249.449C177.689 249.816 177.82 250.232 177.82 250.697C177.82 251.436 177.57 252.023 177.07 252.461C176.574 252.898 175.92 253.117 175.107 253.117C174.287 253.117 173.629 252.898 173.133 252.461C172.641 252.02 172.395 251.432 172.395 250.697C172.395 250.236 172.52 249.82 172.77 249.449C173.023 249.078 173.373 248.797 173.818 248.605C173.439 248.418 173.141 248.158 172.922 247.826C172.703 247.494 172.594 247.117 172.594 246.695C172.594 245.977 172.824 245.406 173.285 244.984C173.746 244.562 174.354 244.352 175.107 244.352C175.857 244.352 176.463 244.562 176.924 244.984C177.389 245.406 177.621 245.977 177.621 246.695ZM176.736 250.674C176.736 250.197 176.584 249.809 176.279 249.508C175.979 249.207 175.584 249.057 175.096 249.057C174.607 249.057 174.215 249.205 173.918 249.502C173.625 249.799 173.479 250.189 173.479 250.674C173.479 251.158 173.621 251.539 173.906 251.816C174.195 252.094 174.596 252.232 175.107 252.232C175.615 252.232 176.014 252.094 176.303 251.816C176.592 251.535 176.736 251.154 176.736 250.674ZM175.107 245.242C174.682 245.242 174.336 245.375 174.07 245.641C173.809 245.902 173.678 246.26 173.678 246.713C173.678 247.146 173.807 247.498 174.064 247.768C174.326 248.033 174.674 248.166 175.107 248.166C175.541 248.166 175.887 248.033 176.145 247.768C176.406 247.498 176.537 247.146 176.537 246.713C176.537 246.279 176.402 245.926 176.133 245.652C175.863 245.379 175.521 245.242 175.107 245.242ZM179.684 248.723L180.117 244.469H184.488V245.471H181.037L180.779 247.797C181.197 247.551 181.672 247.428 182.203 247.428C182.98 247.428 183.598 247.686 184.055 248.201C184.512 248.713 184.74 249.406 184.74 250.281C184.74 251.16 184.502 251.854 184.025 252.361C183.553 252.865 182.891 253.117 182.039 253.117C181.285 253.117 180.67 252.908 180.193 252.49C179.717 252.072 179.445 251.494 179.379 250.756H180.404C180.471 251.244 180.645 251.613 180.926 251.863C181.207 252.109 181.578 252.232 182.039 252.232C182.543 252.232 182.938 252.061 183.223 251.717C183.512 251.373 183.656 250.898 183.656 250.293C183.656 249.723 183.5 249.266 183.188 248.922C182.879 248.574 182.467 248.4 181.951 248.4C181.479 248.4 181.107 248.504 180.838 248.711L180.551 248.945L179.684 248.723Z" fill="black"/>
<rect x="161.5" y="237.5" width="28" height="24" rx="3.5" stroke="#1B68DD"/>
<path d="M70.5566 136.777C70.5566 135.805 70.7871 135.023 71.248 134.434C71.709 133.84 72.3125 133.543 73.0586 133.543C73.8008 133.543 74.3887 133.797 74.8223 134.305V131H75.9062V140H74.9102L74.8574 139.32C74.4238 139.852 73.8203 140.117 73.0469 140.117C72.3125 140.117 71.7129 139.816 71.248 139.215C70.7871 138.613 70.5566 137.828 70.5566 136.859V136.777ZM71.6406 136.9C71.6406 137.619 71.7891 138.182 72.0859 138.588C72.3828 138.994 72.793 139.197 73.3164 139.197C74.0039 139.197 74.5059 138.889 74.8223 138.271V135.359C74.498 134.762 74 134.463 73.3281 134.463C72.7969 134.463 72.3828 134.668 72.0859 135.078C71.7891 135.488 71.6406 136.096 71.6406 136.9ZM80.2246 140.117C79.3652 140.117 78.666 139.836 78.127 139.273C77.5879 138.707 77.3184 137.951 77.3184 137.006V136.807C77.3184 136.178 77.4375 135.617 77.6758 135.125C77.918 134.629 78.2539 134.242 78.6836 133.965C79.1172 133.684 79.5859 133.543 80.0898 133.543C80.9141 133.543 81.5547 133.814 82.0117 134.357C82.4688 134.9 82.6973 135.678 82.6973 136.689V137.141H78.4023C78.418 137.766 78.5996 138.271 78.9473 138.658C79.2988 139.041 79.7441 139.232 80.2832 139.232C80.666 139.232 80.9902 139.154 81.2559 138.998C81.5215 138.842 81.7539 138.635 81.9531 138.377L82.6152 138.893C82.084 139.709 81.2871 140.117 80.2246 140.117ZM80.0898 134.434C79.6523 134.434 79.2852 134.594 78.9883 134.914C78.6914 135.23 78.5078 135.676 78.4375 136.25H81.6133V136.168C81.582 135.617 81.4336 135.191 81.168 134.891C80.9023 134.586 80.543 134.434 80.0898 134.434ZM86.5 139.232C86.8867 139.232 87.2246 139.115 87.5137 138.881C87.8027 138.646 87.9629 138.354 87.9941 138.002H89.0195C89 138.365 88.875 138.711 88.6445 139.039C88.4141 139.367 88.1055 139.629 87.7188 139.824C87.3359 140.02 86.9297 140.117 86.5 140.117C85.6367 140.117 84.9492 139.83 84.4375 139.256C83.9297 138.678 83.6758 137.889 83.6758 136.889V136.707C83.6758 136.09 83.7891 135.541 84.0156 135.061C84.2422 134.58 84.5664 134.207 84.9883 133.941C85.4141 133.676 85.916 133.543 86.4941 133.543C87.2051 133.543 87.7949 133.756 88.2637 134.182C88.7363 134.607 88.9883 135.16 89.0195 135.84H87.9941C87.9629 135.43 87.8066 135.094 87.5254 134.832C87.248 134.566 86.9043 134.434 86.4941 134.434C85.9434 134.434 85.5156 134.633 85.2109 135.031C84.9102 135.426 84.7598 135.998 84.7598 136.748V136.953C84.7598 137.684 84.9102 138.246 85.2109 138.641C85.5117 139.035 85.9414 139.232 86.5 139.232ZM91.416 140H90.332V131H91.416V140ZM97.0703 140C97.0078 139.875 96.957 139.652 96.918 139.332C96.4141 139.855 95.8125 140.117 95.1133 140.117C94.4883 140.117 93.9746 139.941 93.5723 139.59C93.1738 139.234 92.9746 138.785 92.9746 138.242C92.9746 137.582 93.2246 137.07 93.7246 136.707C94.2285 136.34 94.9355 136.156 95.8457 136.156H96.9004V135.658C96.9004 135.279 96.7871 134.979 96.5605 134.756C96.334 134.529 96 134.416 95.5586 134.416C95.1719 134.416 94.8477 134.514 94.5859 134.709C94.3242 134.904 94.1934 135.141 94.1934 135.418H93.1035C93.1035 135.102 93.2148 134.797 93.4375 134.504C93.6641 134.207 93.9688 133.973 94.3516 133.801C94.7383 133.629 95.1621 133.543 95.623 133.543C96.3535 133.543 96.9258 133.727 97.3398 134.094C97.7539 134.457 97.9688 134.959 97.9844 135.6V138.518C97.9844 139.1 98.0586 139.562 98.207 139.906V140H97.0703ZM95.2715 139.174C95.6113 139.174 95.9336 139.086 96.2383 138.91C96.543 138.734 96.7637 138.506 96.9004 138.225V136.924H96.0508C94.7227 136.924 94.0586 137.312 94.0586 138.09C94.0586 138.43 94.1719 138.695 94.3984 138.887C94.625 139.078 94.916 139.174 95.2715 139.174ZM102.748 134.633C102.584 134.605 102.406 134.592 102.215 134.592C101.504 134.592 101.021 134.895 100.768 135.5V140H99.6836V133.66H100.738L100.756 134.393C101.111 133.826 101.615 133.543 102.268 133.543C102.479 133.543 102.639 133.57 102.748 133.625V134.633ZM107.43 140C107.367 139.875 107.316 139.652 107.277 139.332C106.773 139.855 106.172 140.117 105.473 140.117C104.848 140.117 104.334 139.941 103.932 139.59C103.533 139.234 103.334 138.785 103.334 138.242C103.334 137.582 103.584 137.07 104.084 136.707C104.588 136.34 105.295 136.156 106.205 136.156H107.26V135.658C107.26 135.279 107.146 134.979 106.92 134.756C106.693 134.529 106.359 134.416 105.918 134.416C105.531 134.416 105.207 134.514 104.945 134.709C104.684 134.904 104.553 135.141 104.553 135.418H103.463C103.463 135.102 103.574 134.797 103.797 134.504C104.023 134.207 104.328 133.973 104.711 133.801C105.098 133.629 105.521 133.543 105.982 133.543C106.713 133.543 107.285 133.727 107.699 134.094C108.113 134.457 108.328 134.959 108.344 135.6V138.518C108.344 139.1 108.418 139.562 108.566 139.906V140H107.43ZM105.631 139.174C105.971 139.174 106.293 139.086 106.598 138.91C106.902 138.734 107.123 138.506 107.26 138.225V136.924H106.41C105.082 136.924 104.418 137.312 104.418 138.09C104.418 138.43 104.531 138.695 104.758 138.887C104.984 139.078 105.275 139.174 105.631 139.174ZM111.514 132.125V133.66H112.697V134.498H111.514V138.43C111.514 138.684 111.566 138.875 111.672 139.004C111.777 139.129 111.957 139.191 112.211 139.191C112.336 139.191 112.508 139.168 112.727 139.121V140C112.441 140.078 112.164 140.117 111.895 140.117C111.41 140.117 111.045 139.971 110.799 139.678C110.553 139.385 110.43 138.969 110.43 138.43V134.498H109.275V133.66H110.43V132.125H111.514ZM115.146 140H114.062V133.66H115.146V140ZM113.975 131.979C113.975 131.803 114.027 131.654 114.133 131.533C114.242 131.412 114.402 131.352 114.613 131.352C114.824 131.352 114.984 131.412 115.094 131.533C115.203 131.654 115.258 131.803 115.258 131.979C115.258 132.154 115.203 132.301 115.094 132.418C114.984 132.535 114.824 132.594 114.613 132.594C114.402 132.594 114.242 132.535 114.133 132.418C114.027 132.301 113.975 132.154 113.975 131.979ZM116.6 136.771C116.6 136.15 116.721 135.592 116.963 135.096C117.209 134.6 117.549 134.217 117.982 133.947C118.42 133.678 118.918 133.543 119.477 133.543C120.34 133.543 121.037 133.842 121.568 134.439C122.104 135.037 122.371 135.832 122.371 136.824V136.9C122.371 137.518 122.252 138.072 122.014 138.564C121.779 139.053 121.441 139.434 121 139.707C120.562 139.98 120.059 140.117 119.488 140.117C118.629 140.117 117.932 139.818 117.396 139.221C116.865 138.623 116.6 137.832 116.6 136.848V136.771ZM117.689 136.9C117.689 137.604 117.852 138.168 118.176 138.594C118.504 139.02 118.941 139.232 119.488 139.232C120.039 139.232 120.477 139.018 120.801 138.588C121.125 138.154 121.287 137.549 121.287 136.771C121.287 136.076 121.121 135.514 120.789 135.084C120.461 134.65 120.023 134.434 119.477 134.434C118.941 134.434 118.51 134.646 118.182 135.072C117.854 135.498 117.689 136.107 117.689 136.9ZM124.756 133.66L124.791 134.457C125.275 133.848 125.908 133.543 126.689 133.543C128.029 133.543 128.705 134.299 128.717 135.811V140H127.633V135.805C127.629 135.348 127.523 135.01 127.316 134.791C127.113 134.572 126.795 134.463 126.361 134.463C126.01 134.463 125.701 134.557 125.436 134.744C125.17 134.932 124.963 135.178 124.814 135.482V140H123.73V133.66H124.756ZM134.043 138.318C134.043 138.025 133.932 137.799 133.709 137.639C133.49 137.475 133.105 137.334 132.555 137.217C132.008 137.1 131.572 136.959 131.248 136.795C130.928 136.631 130.689 136.436 130.533 136.209C130.381 135.982 130.305 135.713 130.305 135.4C130.305 134.881 130.523 134.441 130.961 134.082C131.402 133.723 131.965 133.543 132.648 133.543C133.367 133.543 133.949 133.729 134.395 134.1C134.844 134.471 135.068 134.945 135.068 135.523H133.979C133.979 135.227 133.852 134.971 133.598 134.756C133.348 134.541 133.031 134.434 132.648 134.434C132.254 134.434 131.945 134.52 131.723 134.691C131.5 134.863 131.389 135.088 131.389 135.365C131.389 135.627 131.492 135.824 131.699 135.957C131.906 136.09 132.279 136.217 132.818 136.338C133.361 136.459 133.801 136.604 134.137 136.771C134.473 136.939 134.721 137.143 134.881 137.381C135.045 137.615 135.127 137.902 135.127 138.242C135.127 138.809 134.9 139.264 134.447 139.607C133.994 139.947 133.406 140.117 132.684 140.117C132.176 140.117 131.727 140.027 131.336 139.848C130.945 139.668 130.639 139.418 130.416 139.098C130.197 138.773 130.088 138.424 130.088 138.049H131.172C131.191 138.412 131.336 138.701 131.605 138.916C131.879 139.127 132.238 139.232 132.684 139.232C133.094 139.232 133.422 139.15 133.668 138.986C133.918 138.818 134.043 138.596 134.043 138.318Z" fill="black" fill-opacity="0.4"/>
<path d="M28.3633 139.232C28.75 139.232 29.0879 139.115 29.377 138.881C29.666 138.646 29.8262 138.354 29.8574 138.002H30.8828C30.8633 138.365 30.7383 138.711 30.5078 139.039C30.2773 139.367 29.9688 139.629 29.582 139.824C29.1992 140.02 28.793 140.117 28.3633 140.117C27.5 140.117 26.8125 139.83 26.3008 139.256C25.793 138.678 25.5391 137.889 25.5391 136.889V136.707C25.5391 136.09 25.6523 135.541 25.8789 135.061C26.1055 134.58 26.4297 134.207 26.8516 133.941C27.2773 133.676 27.7793 133.543 28.3574 133.543C29.0684 133.543 29.6582 133.756 30.127 134.182C30.5996 134.607 30.8516 135.16 30.8828 135.84H29.8574C29.8262 135.43 29.6699 135.094 29.3887 134.832C29.1113 134.566 28.7676 134.434 28.3574 134.434C27.8066 134.434 27.3789 134.633 27.0742 135.031C26.7734 135.426 26.623 135.998 26.623 136.748V136.953C26.623 137.684 26.7734 138.246 27.0742 138.641C27.375 139.035 27.8047 139.232 28.3633 139.232ZM31.8145 136.771C31.8145 136.15 31.9355 135.592 32.1777 135.096C32.4238 134.6 32.7637 134.217 33.1973 133.947C33.6348 133.678 34.1328 133.543 34.6914 133.543C35.5547 133.543 36.252 133.842 36.7832 134.439C37.3184 135.037 37.5859 135.832 37.5859 136.824V136.9C37.5859 137.518 37.4668 138.072 37.2285 138.564C36.9941 139.053 36.6562 139.434 36.2148 139.707C35.7773 139.98 35.2734 140.117 34.7031 140.117C33.8438 140.117 33.1465 139.818 32.6113 139.221C32.0801 138.623 31.8145 137.832 31.8145 136.848V136.771ZM32.9043 136.9C32.9043 137.604 33.0664 138.168 33.3906 138.594C33.7188 139.02 34.1562 139.232 34.7031 139.232C35.2539 139.232 35.6914 139.018 36.0156 138.588C36.3398 138.154 36.502 137.549 36.502 136.771C36.502 136.076 36.3359 135.514 36.0039 135.084C35.6758 134.65 35.2383 134.434 34.6914 134.434C34.1562 134.434 33.7246 134.646 33.3965 135.072C33.0684 135.498 32.9043 136.107 32.9043 136.9ZM39.9707 133.66L40.0059 134.457C40.4902 133.848 41.123 133.543 41.9043 133.543C43.2441 133.543 43.9199 134.299 43.9316 135.811V140H42.8477V135.805C42.8438 135.348 42.7383 135.01 42.5312 134.791C42.3281 134.572 42.0098 134.463 41.5762 134.463C41.2246 134.463 40.916 134.557 40.6504 134.744C40.3848 134.932 40.1777 135.178 40.0293 135.482V140H38.9453V133.66H39.9707ZM49.2578 138.318C49.2578 138.025 49.1465 137.799 48.9238 137.639C48.7051 137.475 48.3203 137.334 47.7695 137.217C47.2227 137.1 46.7871 136.959 46.4629 136.795C46.1426 136.631 45.9043 136.436 45.748 136.209C45.5957 135.982 45.5195 135.713 45.5195 135.4C45.5195 134.881 45.7383 134.441 46.1758 134.082C46.6172 133.723 47.1797 133.543 47.8633 133.543C48.582 133.543 49.1641 133.729 49.6094 134.1C50.0586 134.471 50.2832 134.945 50.2832 135.523H49.1934C49.1934 135.227 49.0664 134.971 48.8125 134.756C48.5625 134.541 48.2461 134.434 47.8633 134.434C47.4688 134.434 47.1602 134.52 46.9375 134.691C46.7148 134.863 46.6035 135.088 46.6035 135.365C46.6035 135.627 46.707 135.824 46.9141 135.957C47.1211 136.09 47.4941 136.217 48.0332 136.338C48.5762 136.459 49.0156 136.604 49.3516 136.771C49.6875 136.939 49.9355 137.143 50.0957 137.381C50.2598 137.615 50.3418 137.902 50.3418 138.242C50.3418 138.809 50.1152 139.264 49.6621 139.607C49.209 139.947 48.6211 140.117 47.8984 140.117C47.3906 140.117 46.9414 140.027 46.5508 139.848C46.1602 139.668 45.8535 139.418 45.6309 139.098C45.4121 138.773 45.3027 138.424 45.3027 138.049H46.3867C46.4062 138.412 46.5508 138.701 46.8203 138.916C47.0938 139.127 47.4531 139.232 47.8984 139.232C48.3086 139.232 48.6367 139.15 48.8828 138.986C49.1328 138.818 49.2578 138.596 49.2578 138.318ZM53.2246 132.125V133.66H54.4082V134.498H53.2246V138.43C53.2246 138.684 53.2773 138.875 53.3828 139.004C53.4883 139.129 53.668 139.191 53.9219 139.191C54.0469 139.191 54.2188 139.168 54.4375 139.121V140C54.1523 140.078 53.875 140.117 53.6055 140.117C53.1211 140.117 52.7559 139.971 52.5098 139.678C52.2637 139.385 52.1406 138.969 52.1406 138.43V134.498H50.9863V133.66H52.1406V132.125H53.2246Z" fill="black"/>
<rect x="20.5" y="115.5" width="178" height="42" rx="3.5" stroke="#FF1818"/>
<path d="M94.75 144.5C94.75 144.086 94.4142 143.75 94 143.75C93.5858 143.75 93.25 144.086 93.25 144.5H94.75ZM93.4697 175.53C93.7626 175.823 94.2374 175.823 94.5303 175.53L99.3033 170.757C99.5962 170.464 99.5962 169.99 99.3033 169.697C99.0104 169.404 98.5355 169.404 98.2426 169.697L94 173.939L89.7574 169.697C89.4645 169.404 88.9896 169.404 88.6967 169.697C88.4038 169.99 88.4038 170.464 88.6967 170.757L93.4697 175.53ZM93.25 144.5V175H94.75V144.5H93.25Z" fill="black" fill-opacity="0.4"/>
<path d="M176.75 206.5C176.75 206.086 176.414 205.75 176 205.75C175.586 205.75 175.25 206.086 175.25 206.5L176.75 206.5ZM175.47 235.53C175.763 235.823 176.237 235.823 176.53 235.53L181.303 230.757C181.596 230.464 181.596 229.99 181.303 229.697C181.01 229.404 180.536 229.404 180.243 229.697L176 233.939L171.757 229.697C171.464 229.404 170.99 229.404 170.697 229.697C170.404 229.99 170.404 230.464 170.697 230.757L175.47 235.53ZM175.25 206.5L175.25 235L176.75 235L176.75 206.5L175.25 206.5Z" fill="black" fill-opacity="0.4"/>
<path d="M84.5 196.25C84.0858 196.25 83.75 196.586 83.75 197C83.75 197.414 84.0858 197.75 84.5 197.75V196.25ZM108 215H108.75H108ZM107.47 233.53C107.763 233.823 108.237 233.823 108.53 233.53L113.303 228.757C113.596 228.464 113.596 227.99 113.303 227.697C113.01 227.404 112.535 227.404 112.243 227.697L108 231.939L103.757 227.697C103.464 227.404 102.99 227.404 102.697 227.697C102.404 227.99 102.404 228.464 102.697 228.757L107.47 233.53ZM84.5 197.75C90.3891 197.75 94.7571 197.751 98.0223 198.029C101.306 198.308 103.32 198.86 104.606 199.845C105.85 200.798 106.536 202.256 106.891 204.701C107.248 207.166 107.25 210.476 107.25 215H108.75C108.75 210.524 108.752 207.084 108.375 204.486C107.995 201.869 107.212 199.952 105.519 198.655C103.868 197.39 101.475 196.817 98.1495 196.534C94.8054 196.249 90.3609 196.25 84.5 196.25V197.75ZM107.25 215V233H108.75V215H107.25Z" fill="black" fill-opacity="0.4"/>
<path d="M82.9336 98V89.4688H85.7227C86.6484 89.4688 87.3438 89.6602 87.8086 90.043C88.2773 90.4258 88.5117 90.9922 88.5117 91.7422C88.5117 92.1406 88.3984 92.4941 88.1719 92.8027C87.9453 93.1074 87.6367 93.3438 87.2461 93.5117C87.707 93.6406 88.0703 93.8867 88.3359 94.25C88.6055 94.6094 88.7402 95.0391 88.7402 95.5391C88.7402 96.3047 88.4922 96.9062 87.9961 97.3438C87.5 97.7812 86.7988 98 85.8926 98H82.9336ZM84.0586 94.0098V97.0801H85.916C86.4395 97.0801 86.8516 96.9453 87.1523 96.6758C87.457 96.4023 87.6094 96.0273 87.6094 95.5508C87.6094 94.5234 87.0508 94.0098 85.9336 94.0098H84.0586ZM84.0586 93.1074H85.7578C86.25 93.1074 86.6426 92.9844 86.9355 92.7383C87.2324 92.4922 87.3809 92.1582 87.3809 91.7363C87.3809 91.2676 87.2441 90.9277 86.9707 90.7168C86.6973 90.502 86.2812 90.3945 85.7227 90.3945H84.0586V93.1074ZM94.1543 98C94.0918 97.875 94.041 97.6523 94.002 97.332C93.498 97.8555 92.8965 98.1172 92.1973 98.1172C91.5723 98.1172 91.0586 97.9414 90.6562 97.5898C90.2578 97.2344 90.0586 96.7852 90.0586 96.2422C90.0586 95.582 90.3086 95.0703 90.8086 94.707C91.3125 94.3398 92.0195 94.1562 92.9297 94.1562H93.9844V93.6582C93.9844 93.2793 93.8711 92.9785 93.6445 92.7559C93.418 92.5293 93.084 92.416 92.6426 92.416C92.2559 92.416 91.9316 92.5137 91.6699 92.709C91.4082 92.9043 91.2773 93.1406 91.2773 93.418H90.1875C90.1875 93.1016 90.2988 92.7969 90.5215 92.5039C90.748 92.207 91.0527 91.9727 91.4355 91.8008C91.8223 91.6289 92.2461 91.543 92.707 91.543C93.4375 91.543 94.0098 91.7266 94.4238 92.0938C94.8379 92.457 95.0527 92.959 95.0684 93.5996V96.5176C95.0684 97.0996 95.1426 97.5625 95.291 97.9062V98H94.1543ZM92.3555 97.1738C92.6953 97.1738 93.0176 97.0859 93.3223 96.9102C93.627 96.7344 93.8477 96.5059 93.9844 96.2246V94.9238H93.1348C91.8066 94.9238 91.1426 95.3125 91.1426 96.0898C91.1426 96.4297 91.2559 96.6953 91.4824 96.8867C91.709 97.0781 92 97.1738 92.3555 97.1738ZM102.135 94.9004C102.135 95.8691 101.912 96.6484 101.467 97.2383C101.021 97.8242 100.424 98.1172 99.6738 98.1172C98.873 98.1172 98.2539 97.834 97.8164 97.2676L97.7637 98H96.7676V89H97.8516V92.3574C98.2891 91.8145 98.8926 91.543 99.6621 91.543C100.432 91.543 101.035 91.834 101.473 92.416C101.914 92.998 102.135 93.7949 102.135 94.8066V94.9004ZM101.051 94.7773C101.051 94.0391 100.908 93.4688 100.623 93.0664C100.338 92.6641 99.9277 92.4629 99.3926 92.4629C98.6777 92.4629 98.1641 92.7949 97.8516 93.459V96.2012C98.1836 96.8652 98.7012 97.1973 99.4043 97.1973C99.9238 97.1973 100.328 96.9961 100.617 96.5938C100.906 96.1914 101.051 95.5859 101.051 94.7773ZM106.137 98.1172C105.277 98.1172 104.578 97.8359 104.039 97.2734C103.5 96.707 103.23 95.9512 103.23 95.0059V94.8066C103.23 94.1777 103.35 93.6172 103.588 93.125C103.83 92.6289 104.166 92.2422 104.596 91.9648C105.029 91.6836 105.498 91.543 106.002 91.543C106.826 91.543 107.467 91.8145 107.924 92.3574C108.381 92.9004 108.609 93.6777 108.609 94.6895V95.1406H104.314C104.33 95.7656 104.512 96.2715 104.859 96.6582C105.211 97.041 105.656 97.2324 106.195 97.2324C106.578 97.2324 106.902 97.1543 107.168 96.998C107.434 96.8418 107.666 96.6348 107.865 96.377L108.527 96.8926C107.996 97.709 107.199 98.1172 106.137 98.1172ZM106.002 92.4336C105.564 92.4336 105.197 92.5938 104.9 92.9141C104.604 93.2305 104.42 93.6758 104.35 94.25H107.525V94.168C107.494 93.6172 107.346 93.1914 107.08 92.8906C106.814 92.5859 106.455 92.4336 106.002 92.4336ZM111.047 98H109.963V89H111.047V98ZM120.645 95.7734H117.07L116.268 98H115.107L118.365 89.4688H119.35L122.613 98H121.459L120.645 95.7734ZM117.41 94.8477H120.311L118.857 90.8574L117.41 94.8477ZM126.275 94.1973C125.311 93.9199 124.607 93.5801 124.166 93.1777C123.729 92.7715 123.51 92.2715 123.51 91.6777C123.51 91.0059 123.777 90.4512 124.312 90.0137C124.852 89.5723 125.551 89.3516 126.41 89.3516C126.996 89.3516 127.518 89.4648 127.975 89.6914C128.436 89.918 128.791 90.2305 129.041 90.6289C129.295 91.0273 129.422 91.4629 129.422 91.9355H128.291C128.291 91.4199 128.127 91.0156 127.799 90.7227C127.471 90.4258 127.008 90.2773 126.41 90.2773C125.855 90.2773 125.422 90.4004 125.109 90.6465C124.801 90.8887 124.646 91.2266 124.646 91.6602C124.646 92.0078 124.793 92.3027 125.086 92.5449C125.383 92.7832 125.885 93.002 126.592 93.2012C127.303 93.4004 127.857 93.6211 128.256 93.8633C128.658 94.1016 128.955 94.3809 129.146 94.7012C129.342 95.0215 129.439 95.3984 129.439 95.832C129.439 96.5234 129.17 97.0781 128.631 97.4961C128.092 97.9102 127.371 98.1172 126.469 98.1172C125.883 98.1172 125.336 98.0059 124.828 97.7832C124.32 97.5566 123.928 97.248 123.65 96.8574C123.377 96.4668 123.24 96.0234 123.24 95.5273H124.371C124.371 96.043 124.561 96.4512 124.939 96.752C125.322 97.0488 125.832 97.1973 126.469 97.1973C127.062 97.1973 127.518 97.0762 127.834 96.834C128.15 96.5918 128.309 96.2617 128.309 95.8438C128.309 95.4258 128.162 95.1035 127.869 94.877C127.576 94.6465 127.045 94.4199 126.275 94.1973ZM136.781 90.3945H134.039V98H132.92V90.3945H130.184V89.4688H136.781V90.3945Z" fill="black"/>
<path d="M96.5742 26.0098C96.5742 26.8457 96.4336 27.5762 96.1523 28.2012C95.8711 28.8223 95.4727 29.2969 94.957 29.625C94.4414 29.9531 93.8398 30.1172 93.1523 30.1172C92.4805 30.1172 91.8848 29.9531 91.3652 29.625C90.8457 29.293 90.4414 28.8223 90.1523 28.2129C89.8672 27.5996 89.7207 26.8906 89.7129 26.0859V25.4707C89.7129 24.6504 89.8555 23.9258 90.1406 23.2969C90.4258 22.668 90.8281 22.1875 91.3477 21.8555C91.8711 21.5195 92.4688 21.3516 93.1406 21.3516C93.8242 21.3516 94.4258 21.5176 94.9453 21.8496C95.4688 22.1777 95.8711 22.6562 96.1523 23.2852C96.4336 23.9102 96.5742 24.6387 96.5742 25.4707V26.0098ZM95.4551 25.459C95.4551 24.4473 95.252 23.6719 94.8457 23.1328C94.4395 22.5898 93.8711 22.3184 93.1406 22.3184C92.4297 22.3184 91.8691 22.5898 91.459 23.1328C91.0527 23.6719 90.8438 24.4219 90.832 25.3828V26.0098C90.832 26.9902 91.0371 27.7617 91.4473 28.3242C91.8613 28.8828 92.4297 29.1621 93.1523 29.1621C93.8789 29.1621 94.4414 28.8984 94.8398 28.3711C95.2383 27.8398 95.4434 27.0801 95.4551 26.0918V25.459ZM101.156 24.6328C100.992 24.6055 100.814 24.5918 100.623 24.5918C99.9121 24.5918 99.4297 24.8945 99.1758 25.5V30H98.0918V23.6602H99.1465L99.1641 24.3926C99.5195 23.8262 100.023 23.543 100.676 23.543C100.887 23.543 101.047 23.5703 101.156 23.625V24.6328ZM103.336 30H102.252V23.6602H103.336V30ZM102.164 21.9785C102.164 21.8027 102.217 21.6543 102.322 21.5332C102.432 21.4121 102.592 21.3516 102.803 21.3516C103.014 21.3516 103.174 21.4121 103.283 21.5332C103.393 21.6543 103.447 21.8027 103.447 21.9785C103.447 22.1543 103.393 22.3008 103.283 22.418C103.174 22.5352 103.014 22.5938 102.803 22.5938C102.592 22.5938 102.432 22.5352 102.322 22.418C102.217 22.3008 102.164 22.1543 102.164 21.9785ZM104.818 26.7773C104.818 25.7891 105.047 25.0039 105.504 24.4219C105.961 23.8359 106.566 23.543 107.32 23.543C108.094 23.543 108.697 23.8164 109.131 24.3633L109.184 23.6602H110.174V29.8477C110.174 30.668 109.93 31.3145 109.441 31.7871C108.957 32.2598 108.305 32.4961 107.484 32.4961C107.027 32.4961 106.58 32.3984 106.143 32.2031C105.705 32.0078 105.371 31.7402 105.141 31.4004L105.703 30.75C106.168 31.3242 106.736 31.6113 107.408 31.6113C107.936 31.6113 108.346 31.4629 108.639 31.166C108.936 30.8691 109.084 30.4512 109.084 29.9121V29.3672C108.65 29.8672 108.059 30.1172 107.309 30.1172C106.566 30.1172 105.965 29.8184 105.504 29.2207C105.047 28.623 104.818 27.8086 104.818 26.7773ZM105.908 26.9004C105.908 27.6152 106.055 28.1777 106.348 28.5879C106.641 28.9941 107.051 29.1973 107.578 29.1973C108.262 29.1973 108.764 28.8867 109.084 28.2656V25.3711C108.752 24.7656 108.254 24.4629 107.59 24.4629C107.062 24.4629 106.65 24.668 106.354 25.0781C106.057 25.4883 105.908 26.0957 105.908 26.9004ZM112.992 30H111.908V23.6602H112.992V30ZM111.82 21.9785C111.82 21.8027 111.873 21.6543 111.979 21.5332C112.088 21.4121 112.248 21.3516 112.459 21.3516C112.67 21.3516 112.83 21.4121 112.939 21.5332C113.049 21.6543 113.104 21.8027 113.104 21.9785C113.104 22.1543 113.049 22.3008 112.939 22.418C112.83 22.5352 112.67 22.5938 112.459 22.5938C112.248 22.5938 112.088 22.5352 111.979 22.418C111.873 22.3008 111.82 22.1543 111.82 21.9785ZM115.758 23.6602L115.793 24.457C116.277 23.8477 116.91 23.543 117.691 23.543C119.031 23.543 119.707 24.2988 119.719 25.8105V30H118.635V25.8047C118.631 25.3477 118.525 25.0098 118.318 24.791C118.115 24.5723 117.797 24.4629 117.363 24.4629C117.012 24.4629 116.703 24.5566 116.438 24.7441C116.172 24.9316 115.965 25.1777 115.816 25.4824V30H114.732V23.6602H115.758ZM125.268 30C125.205 29.875 125.154 29.6523 125.115 29.332C124.611 29.8555 124.01 30.1172 123.311 30.1172C122.686 30.1172 122.172 29.9414 121.77 29.5898C121.371 29.2344 121.172 28.7852 121.172 28.2422C121.172 27.582 121.422 27.0703 121.922 26.707C122.426 26.3398 123.133 26.1562 124.043 26.1562H125.098V25.6582C125.098 25.2793 124.984 24.9785 124.758 24.7559C124.531 24.5293 124.197 24.416 123.756 24.416C123.369 24.416 123.045 24.5137 122.783 24.709C122.521 24.9043 122.391 25.1406 122.391 25.418H121.301C121.301 25.1016 121.412 24.7969 121.635 24.5039C121.861 24.207 122.166 23.9727 122.549 23.8008C122.936 23.6289 123.359 23.543 123.82 23.543C124.551 23.543 125.123 23.7266 125.537 24.0938C125.951 24.457 126.166 24.959 126.182 25.5996V28.5176C126.182 29.0996 126.256 29.5625 126.404 29.9062V30H125.268ZM123.469 29.1738C123.809 29.1738 124.131 29.0859 124.436 28.9102C124.74 28.7344 124.961 28.5059 125.098 28.2246V26.9238H124.248C122.92 26.9238 122.256 27.3125 122.256 28.0898C122.256 28.4297 122.369 28.6953 122.596 28.8867C122.822 29.0781 123.113 29.1738 123.469 29.1738ZM129.059 30H127.975V21H129.059V30Z" fill="black"/>
<line x1="20.5" y1="73.5" x2="204.5" y2="73.5" stroke="black" stroke-opacity="0.4" stroke-linecap="round"/>
<rect x="59.25" y="297.25" width="9.5" height="9.5" rx="1.75" fill="#FF1818" stroke="black" stroke-width="0.5"/>
<path d="M74.543 304.004L76.168 299.312H76.9883L74.8789 305H74.2148L72.1094 299.312H72.9258L74.543 304.004ZM80.0703 305C80.0286 304.917 79.9948 304.768 79.9688 304.555C79.6328 304.904 79.2318 305.078 78.7656 305.078C78.349 305.078 78.0065 304.961 77.7383 304.727C77.4727 304.49 77.3398 304.19 77.3398 303.828C77.3398 303.388 77.5065 303.047 77.8398 302.805C78.1758 302.56 78.6471 302.438 79.2539 302.438H79.957V302.105C79.957 301.853 79.8815 301.652 79.7305 301.504C79.5794 301.353 79.3568 301.277 79.0625 301.277C78.8047 301.277 78.5885 301.342 78.4141 301.473C78.2396 301.603 78.1523 301.76 78.1523 301.945H77.4258C77.4258 301.734 77.5 301.531 77.6484 301.336C77.7995 301.138 78.0026 300.982 78.2578 300.867C78.5156 300.753 78.7982 300.695 79.1055 300.695C79.5924 300.695 79.974 300.818 80.25 301.062C80.526 301.305 80.6693 301.639 80.6797 302.066V304.012C80.6797 304.4 80.7292 304.708 80.8281 304.938V305H80.0703ZM78.8711 304.449C79.0977 304.449 79.3125 304.391 79.5156 304.273C79.7188 304.156 79.8659 304.004 79.957 303.816V302.949H79.3906C78.5052 302.949 78.0625 303.208 78.0625 303.727C78.0625 303.953 78.138 304.13 78.2891 304.258C78.4401 304.385 78.6341 304.449 78.8711 304.449ZM83.8555 301.422C83.7461 301.404 83.6276 301.395 83.5 301.395C83.026 301.395 82.7044 301.596 82.5352 302V305H81.8125V300.773H82.5156L82.5273 301.262C82.7643 300.884 83.1003 300.695 83.5352 300.695C83.6758 300.695 83.7826 300.714 83.8555 300.75V301.422ZM85.3086 305H84.5859V300.773H85.3086V305ZM84.5273 299.652C84.5273 299.535 84.5625 299.436 84.6328 299.355C84.7057 299.275 84.8125 299.234 84.9531 299.234C85.0938 299.234 85.2005 299.275 85.2734 299.355C85.3464 299.436 85.3828 299.535 85.3828 299.652C85.3828 299.77 85.3464 299.867 85.2734 299.945C85.2005 300.023 85.0938 300.062 84.9531 300.062C84.8125 300.062 84.7057 300.023 84.6328 299.945C84.5625 299.867 84.5273 299.77 84.5273 299.652ZM89.0781 305C89.0365 304.917 89.0026 304.768 88.9766 304.555C88.6406 304.904 88.2396 305.078 87.7734 305.078C87.3568 305.078 87.0143 304.961 86.7461 304.727C86.4805 304.49 86.3477 304.19 86.3477 303.828C86.3477 303.388 86.5143 303.047 86.8477 302.805C87.1836 302.56 87.6549 302.438 88.2617 302.438H88.9648V302.105C88.9648 301.853 88.8893 301.652 88.7383 301.504C88.5872 301.353 88.3646 301.277 88.0703 301.277C87.8125 301.277 87.5964 301.342 87.4219 301.473C87.2474 301.603 87.1602 301.76 87.1602 301.945H86.4336C86.4336 301.734 86.5078 301.531 86.6562 301.336C86.8073 301.138 87.0104 300.982 87.2656 300.867C87.5234 300.753 87.806 300.695 88.1133 300.695C88.6003 300.695 88.9818 300.818 89.2578 301.062C89.5339 301.305 89.6771 301.639 89.6875 302.066V304.012C89.6875 304.4 89.737 304.708 89.8359 304.938V305H89.0781ZM87.8789 304.449C88.1055 304.449 88.3203 304.391 88.5234 304.273C88.7266 304.156 88.8737 304.004 88.9648 303.816V302.949H88.3984C87.513 302.949 87.0703 303.208 87.0703 303.727C87.0703 303.953 87.1458 304.13 87.2969 304.258C87.4479 304.385 87.6419 304.449 87.8789 304.449ZM94.3984 302.934C94.3984 303.579 94.25 304.099 93.9531 304.492C93.6562 304.883 93.2578 305.078 92.7578 305.078C92.224 305.078 91.8112 304.889 91.5195 304.512L91.4844 305H90.8203V299H91.543V301.238C91.8346 300.876 92.237 300.695 92.75 300.695C93.263 300.695 93.6654 300.889 93.957 301.277C94.2513 301.665 94.3984 302.197 94.3984 302.871V302.934ZM93.6758 302.852C93.6758 302.359 93.5807 301.979 93.3906 301.711C93.2005 301.443 92.9271 301.309 92.5703 301.309C92.0938 301.309 91.7513 301.53 91.543 301.973V303.801C91.7643 304.243 92.1094 304.465 92.5781 304.465C92.9245 304.465 93.194 304.331 93.3867 304.062C93.5794 303.794 93.6758 303.391 93.6758 302.852ZM96.0977 305H95.375V299H96.0977V305ZM99.0117 305.078C98.4388 305.078 97.9727 304.891 97.6133 304.516C97.2539 304.138 97.0742 303.634 97.0742 303.004V302.871C97.0742 302.452 97.1536 302.078 97.3125 301.75C97.474 301.419 97.6979 301.161 97.9844 300.977C98.2734 300.789 98.5859 300.695 98.9219 300.695C99.4714 300.695 99.8984 300.876 100.203 301.238C100.508 301.6 100.66 302.118 100.66 302.793V303.094H97.7969C97.8073 303.51 97.9284 303.848 98.1602 304.105C98.3945 304.361 98.6914 304.488 99.0508 304.488C99.306 304.488 99.5221 304.436 99.6992 304.332C99.8763 304.228 100.031 304.09 100.164 303.918L100.605 304.262C100.251 304.806 99.7201 305.078 99.0117 305.078ZM98.9219 301.289C98.6302 301.289 98.3854 301.396 98.1875 301.609C97.9896 301.82 97.8672 302.117 97.8203 302.5H99.9375V302.445C99.9167 302.078 99.8177 301.794 99.6406 301.594C99.4635 301.391 99.224 301.289 98.9219 301.289ZM101.613 305V299.312H103.219C103.714 299.312 104.151 299.422 104.531 299.641C104.911 299.859 105.204 300.171 105.41 300.574C105.618 300.978 105.724 301.441 105.727 301.965V302.328C105.727 302.865 105.622 303.335 105.414 303.738C105.208 304.142 104.913 304.452 104.527 304.668C104.145 304.884 103.698 304.995 103.188 305H101.613ZM102.363 299.93V304.387H103.152C103.73 304.387 104.18 304.207 104.5 303.848C104.823 303.488 104.984 302.977 104.984 302.312V301.98C104.984 301.335 104.832 300.833 104.527 300.477C104.225 300.117 103.796 299.935 103.238 299.93H102.363ZM108.504 305.078C107.931 305.078 107.465 304.891 107.105 304.516C106.746 304.138 106.566 303.634 106.566 303.004V302.871C106.566 302.452 106.646 302.078 106.805 301.75C106.966 301.419 107.19 301.161 107.477 300.977C107.766 300.789 108.078 300.695 108.414 300.695C108.964 300.695 109.391 300.876 109.695 301.238C110 301.6 110.152 302.118 110.152 302.793V303.094H107.289C107.299 303.51 107.421 303.848 107.652 304.105C107.887 304.361 108.184 304.488 108.543 304.488C108.798 304.488 109.014 304.436 109.191 304.332C109.368 304.228 109.523 304.09 109.656 303.918L110.098 304.262C109.743 304.806 109.212 305.078 108.504 305.078ZM108.414 301.289C108.122 301.289 107.878 301.396 107.68 301.609C107.482 301.82 107.359 302.117 107.312 302.5H109.43V302.445C109.409 302.078 109.31 301.794 109.133 301.594C108.956 301.391 108.716 301.289 108.414 301.289ZM112.688 304.488C112.945 304.488 113.171 304.41 113.363 304.254C113.556 304.098 113.663 303.902 113.684 303.668H114.367C114.354 303.91 114.271 304.141 114.117 304.359C113.964 304.578 113.758 304.753 113.5 304.883C113.245 305.013 112.974 305.078 112.688 305.078C112.112 305.078 111.654 304.887 111.312 304.504C110.974 304.118 110.805 303.592 110.805 302.926V302.805C110.805 302.393 110.88 302.027 111.031 301.707C111.182 301.387 111.398 301.138 111.68 300.961C111.964 300.784 112.298 300.695 112.684 300.695C113.158 300.695 113.551 300.837 113.863 301.121C114.178 301.405 114.346 301.773 114.367 302.227H113.684C113.663 301.953 113.559 301.729 113.371 301.555C113.186 301.378 112.957 301.289 112.684 301.289C112.316 301.289 112.031 301.422 111.828 301.688C111.628 301.951 111.527 302.332 111.527 302.832V302.969C111.527 303.456 111.628 303.831 111.828 304.094C112.029 304.357 112.315 304.488 112.688 304.488ZM115.965 305H115.242V299H115.965V305ZM119.734 305C119.693 304.917 119.659 304.768 119.633 304.555C119.297 304.904 118.896 305.078 118.43 305.078C118.013 305.078 117.671 304.961 117.402 304.727C117.137 304.49 117.004 304.19 117.004 303.828C117.004 303.388 117.171 303.047 117.504 302.805C117.84 302.56 118.311 302.438 118.918 302.438H119.621V302.105C119.621 301.853 119.546 301.652 119.395 301.504C119.243 301.353 119.021 301.277 118.727 301.277C118.469 301.277 118.253 301.342 118.078 301.473C117.904 301.603 117.816 301.76 117.816 301.945H117.09C117.09 301.734 117.164 301.531 117.312 301.336C117.464 301.138 117.667 300.982 117.922 300.867C118.18 300.753 118.462 300.695 118.77 300.695C119.257 300.695 119.638 300.818 119.914 301.062C120.19 301.305 120.333 301.639 120.344 302.066V304.012C120.344 304.4 120.393 304.708 120.492 304.938V305H119.734ZM118.535 304.449C118.762 304.449 118.977 304.391 119.18 304.273C119.383 304.156 119.53 304.004 119.621 303.816V302.949H119.055C118.169 302.949 117.727 303.208 117.727 303.727C117.727 303.953 117.802 304.13 117.953 304.258C118.104 304.385 118.298 304.449 118.535 304.449ZM123.52 301.422C123.41 301.404 123.292 301.395 123.164 301.395C122.69 301.395 122.368 301.596 122.199 302V305H121.477V300.773H122.18L122.191 301.262C122.428 300.884 122.764 300.695 123.199 300.695C123.34 300.695 123.447 300.714 123.52 300.75V301.422ZM126.641 305C126.599 304.917 126.565 304.768 126.539 304.555C126.203 304.904 125.802 305.078 125.336 305.078C124.919 305.078 124.577 304.961 124.309 304.727C124.043 304.49 123.91 304.19 123.91 303.828C123.91 303.388 124.077 303.047 124.41 302.805C124.746 302.56 125.217 302.438 125.824 302.438H126.527V302.105C126.527 301.853 126.452 301.652 126.301 301.504C126.15 301.353 125.927 301.277 125.633 301.277C125.375 301.277 125.159 301.342 124.984 301.473C124.81 301.603 124.723 301.76 124.723 301.945H123.996C123.996 301.734 124.07 301.531 124.219 301.336C124.37 301.138 124.573 300.982 124.828 300.867C125.086 300.753 125.368 300.695 125.676 300.695C126.163 300.695 126.544 300.818 126.82 301.062C127.096 301.305 127.24 301.639 127.25 302.066V304.012C127.25 304.4 127.299 304.708 127.398 304.938V305H126.641ZM125.441 304.449C125.668 304.449 125.883 304.391 126.086 304.273C126.289 304.156 126.436 304.004 126.527 303.816V302.949H125.961C125.076 302.949 124.633 303.208 124.633 303.727C124.633 303.953 124.708 304.13 124.859 304.258C125.01 304.385 125.204 304.449 125.441 304.449ZM129.363 299.75V300.773H130.152V301.332H129.363V303.953C129.363 304.122 129.398 304.25 129.469 304.336C129.539 304.419 129.659 304.461 129.828 304.461C129.911 304.461 130.026 304.445 130.172 304.414V305C129.982 305.052 129.797 305.078 129.617 305.078C129.294 305.078 129.051 304.98 128.887 304.785C128.723 304.59 128.641 304.312 128.641 303.953V301.332H127.871V300.773H128.641V299.75H129.363ZM131.785 305H131.062V300.773H131.785V305ZM131.004 299.652C131.004 299.535 131.039 299.436 131.109 299.355C131.182 299.275 131.289 299.234 131.43 299.234C131.57 299.234 131.677 299.275 131.75 299.355C131.823 299.436 131.859 299.535 131.859 299.652C131.859 299.77 131.823 299.867 131.75 299.945C131.677 300.023 131.57 300.062 131.43 300.062C131.289 300.062 131.182 300.023 131.109 299.945C131.039 299.867 131.004 299.77 131.004 299.652ZM132.754 302.848C132.754 302.434 132.835 302.061 132.996 301.73C133.16 301.4 133.387 301.145 133.676 300.965C133.967 300.785 134.299 300.695 134.672 300.695C135.247 300.695 135.712 300.895 136.066 301.293C136.423 301.691 136.602 302.221 136.602 302.883V302.934C136.602 303.345 136.522 303.715 136.363 304.043C136.207 304.368 135.982 304.622 135.688 304.805C135.396 304.987 135.06 305.078 134.68 305.078C134.107 305.078 133.642 304.879 133.285 304.48C132.931 304.082 132.754 303.555 132.754 302.898V302.848ZM133.48 302.934C133.48 303.402 133.589 303.779 133.805 304.062C134.023 304.346 134.315 304.488 134.68 304.488C135.047 304.488 135.339 304.345 135.555 304.059C135.771 303.77 135.879 303.366 135.879 302.848C135.879 302.384 135.768 302.009 135.547 301.723C135.328 301.434 135.036 301.289 134.672 301.289C134.315 301.289 134.027 301.431 133.809 301.715C133.59 301.999 133.48 302.405 133.48 302.934ZM138.191 300.773L138.215 301.305C138.538 300.898 138.96 300.695 139.48 300.695C140.374 300.695 140.824 301.199 140.832 302.207V305H140.109V302.203C140.107 301.898 140.036 301.673 139.898 301.527C139.763 301.382 139.551 301.309 139.262 301.309C139.027 301.309 138.822 301.371 138.645 301.496C138.467 301.621 138.329 301.785 138.23 301.988V305H137.508V300.773H138.191ZM143.879 302.691C143.879 302.103 143.957 301.538 144.113 300.996C144.272 300.454 144.508 299.962 144.82 299.52C145.133 299.077 145.457 298.764 145.793 298.582L145.941 299.059C145.561 299.35 145.249 299.796 145.004 300.395C144.762 300.993 144.629 301.664 144.605 302.406L144.602 302.738C144.602 303.743 144.785 304.616 145.152 305.355C145.374 305.798 145.637 306.145 145.941 306.395L145.793 306.836C145.447 306.643 145.116 306.32 144.801 305.867C144.186 304.982 143.879 303.923 143.879 302.691ZM148.336 304.488C148.594 304.488 148.819 304.41 149.012 304.254C149.204 304.098 149.311 303.902 149.332 303.668H150.016C150.003 303.91 149.919 304.141 149.766 304.359C149.612 304.578 149.406 304.753 149.148 304.883C148.893 305.013 148.622 305.078 148.336 305.078C147.76 305.078 147.302 304.887 146.961 304.504C146.622 304.118 146.453 303.592 146.453 302.926V302.805C146.453 302.393 146.529 302.027 146.68 301.707C146.831 301.387 147.047 301.138 147.328 300.961C147.612 300.784 147.947 300.695 148.332 300.695C148.806 300.695 149.199 300.837 149.512 301.121C149.827 301.405 149.995 301.773 150.016 302.227H149.332C149.311 301.953 149.207 301.729 149.02 301.555C148.835 301.378 148.605 301.289 148.332 301.289C147.965 301.289 147.68 301.422 147.477 301.688C147.276 301.951 147.176 302.332 147.176 302.832V302.969C147.176 303.456 147.276 303.831 147.477 304.094C147.677 304.357 147.964 304.488 148.336 304.488ZM150.637 302.848C150.637 302.434 150.717 302.061 150.879 301.73C151.043 301.4 151.27 301.145 151.559 300.965C151.85 300.785 152.182 300.695 152.555 300.695C153.13 300.695 153.595 300.895 153.949 301.293C154.306 301.691 154.484 302.221 154.484 302.883V302.934C154.484 303.345 154.405 303.715 154.246 304.043C154.09 304.368 153.865 304.622 153.57 304.805C153.279 304.987 152.943 305.078 152.562 305.078C151.99 305.078 151.525 304.879 151.168 304.48C150.814 304.082 150.637 303.555 150.637 302.898V302.848ZM151.363 302.934C151.363 303.402 151.471 303.779 151.688 304.062C151.906 304.346 152.198 304.488 152.562 304.488C152.93 304.488 153.221 304.345 153.438 304.059C153.654 303.77 153.762 303.366 153.762 302.848C153.762 302.384 153.651 302.009 153.43 301.723C153.211 301.434 152.919 301.289 152.555 301.289C152.198 301.289 151.91 301.431 151.691 301.715C151.473 301.999 151.363 302.405 151.363 302.934ZM156.074 300.773L156.098 301.305C156.421 300.898 156.842 300.695 157.363 300.695C158.257 300.695 158.707 301.199 158.715 302.207V305H157.992V302.203C157.99 301.898 157.919 301.673 157.781 301.527C157.646 301.382 157.434 301.309 157.145 301.309C156.91 301.309 156.704 301.371 156.527 301.496C156.35 301.621 156.212 301.785 156.113 301.988V305H155.391V300.773H156.074ZM162.266 303.879C162.266 303.684 162.191 303.533 162.043 303.426C161.897 303.316 161.641 303.223 161.273 303.145C160.909 303.066 160.618 302.973 160.402 302.863C160.189 302.754 160.03 302.624 159.926 302.473C159.824 302.322 159.773 302.142 159.773 301.934C159.773 301.587 159.919 301.294 160.211 301.055C160.505 300.815 160.88 300.695 161.336 300.695C161.815 300.695 162.203 300.819 162.5 301.066C162.799 301.314 162.949 301.63 162.949 302.016H162.223C162.223 301.818 162.138 301.647 161.969 301.504C161.802 301.361 161.591 301.289 161.336 301.289C161.073 301.289 160.867 301.346 160.719 301.461C160.57 301.576 160.496 301.725 160.496 301.91C160.496 302.085 160.565 302.216 160.703 302.305C160.841 302.393 161.09 302.478 161.449 302.559C161.811 302.639 162.104 302.736 162.328 302.848C162.552 302.96 162.717 303.095 162.824 303.254C162.934 303.41 162.988 303.602 162.988 303.828C162.988 304.206 162.837 304.509 162.535 304.738C162.233 304.965 161.841 305.078 161.359 305.078C161.021 305.078 160.721 305.018 160.461 304.898C160.201 304.779 159.996 304.612 159.848 304.398C159.702 304.182 159.629 303.949 159.629 303.699H160.352C160.365 303.941 160.461 304.134 160.641 304.277C160.823 304.418 161.062 304.488 161.359 304.488C161.633 304.488 161.852 304.434 162.016 304.324C162.182 304.212 162.266 304.064 162.266 303.879ZM164.91 299.75V300.773H165.699V301.332H164.91V303.953C164.91 304.122 164.945 304.25 165.016 304.336C165.086 304.419 165.206 304.461 165.375 304.461C165.458 304.461 165.573 304.445 165.719 304.414V305C165.529 305.052 165.344 305.078 165.164 305.078C164.841 305.078 164.598 304.98 164.434 304.785C164.27 304.59 164.188 304.312 164.188 303.953V301.332H163.418V300.773H164.188V299.75H164.91ZM168.215 302.73C168.215 303.311 168.138 303.868 167.984 304.402C167.833 304.934 167.6 305.424 167.285 305.875C166.973 306.326 166.645 306.646 166.301 306.836L166.148 306.395C166.549 306.087 166.871 305.611 167.113 304.965C167.358 304.316 167.483 303.598 167.488 302.809V302.684C167.488 302.137 167.431 301.629 167.316 301.16C167.202 300.689 167.042 300.267 166.836 299.895C166.633 299.522 166.404 299.232 166.148 299.023L166.301 298.582C166.645 298.772 166.971 299.09 167.281 299.535C167.594 299.98 167.827 300.471 167.98 301.008C168.137 301.544 168.215 302.118 168.215 302.73Z" fill="black"/>
<rect x="59.25" y="315.25" width="9.5" height="9.5" rx="1.75" fill="#DFAB46" stroke="black" stroke-width="0.5"/>
<path d="M74.543 322.004L76.168 317.312H76.9883L74.8789 323H74.2148L72.1094 317.312H72.9258L74.543 322.004ZM80.0703 323C80.0286 322.917 79.9948 322.768 79.9688 322.555C79.6328 322.904 79.2318 323.078 78.7656 323.078C78.349 323.078 78.0065 322.961 77.7383 322.727C77.4727 322.49 77.3398 322.19 77.3398 321.828C77.3398 321.388 77.5065 321.047 77.8398 320.805C78.1758 320.56 78.6471 320.438 79.2539 320.438H79.957V320.105C79.957 319.853 79.8815 319.652 79.7305 319.504C79.5794 319.353 79.3568 319.277 79.0625 319.277C78.8047 319.277 78.5885 319.342 78.4141 319.473C78.2396 319.603 78.1523 319.76 78.1523 319.945H77.4258C77.4258 319.734 77.5 319.531 77.6484 319.336C77.7995 319.138 78.0026 318.982 78.2578 318.867C78.5156 318.753 78.7982 318.695 79.1055 318.695C79.5924 318.695 79.974 318.818 80.25 319.062C80.526 319.305 80.6693 319.639 80.6797 320.066V322.012C80.6797 322.4 80.7292 322.708 80.8281 322.938V323H80.0703ZM78.8711 322.449C79.0977 322.449 79.3125 322.391 79.5156 322.273C79.7188 322.156 79.8659 322.004 79.957 321.816V320.949H79.3906C78.5052 320.949 78.0625 321.208 78.0625 321.727C78.0625 321.953 78.138 322.13 78.2891 322.258C78.4401 322.385 78.6341 322.449 78.8711 322.449ZM83.8555 319.422C83.7461 319.404 83.6276 319.395 83.5 319.395C83.026 319.395 82.7044 319.596 82.5352 320V323H81.8125V318.773H82.5156L82.5273 319.262C82.7643 318.884 83.1003 318.695 83.5352 318.695C83.6758 318.695 83.7826 318.714 83.8555 318.75V319.422ZM85.3086 323H84.5859V318.773H85.3086V323ZM84.5273 317.652C84.5273 317.535 84.5625 317.436 84.6328 317.355C84.7057 317.275 84.8125 317.234 84.9531 317.234C85.0938 317.234 85.2005 317.275 85.2734 317.355C85.3464 317.436 85.3828 317.535 85.3828 317.652C85.3828 317.77 85.3464 317.867 85.2734 317.945C85.2005 318.023 85.0938 318.062 84.9531 318.062C84.8125 318.062 84.7057 318.023 84.6328 317.945C84.5625 317.867 84.5273 317.77 84.5273 317.652ZM89.0781 323C89.0365 322.917 89.0026 322.768 88.9766 322.555C88.6406 322.904 88.2396 323.078 87.7734 323.078C87.3568 323.078 87.0143 322.961 86.7461 322.727C86.4805 322.49 86.3477 322.19 86.3477 321.828C86.3477 321.388 86.5143 321.047 86.8477 320.805C87.1836 320.56 87.6549 320.438 88.2617 320.438H88.9648V320.105C88.9648 319.853 88.8893 319.652 88.7383 319.504C88.5872 319.353 88.3646 319.277 88.0703 319.277C87.8125 319.277 87.5964 319.342 87.4219 319.473C87.2474 319.603 87.1602 319.76 87.1602 319.945H86.4336C86.4336 319.734 86.5078 319.531 86.6562 319.336C86.8073 319.138 87.0104 318.982 87.2656 318.867C87.5234 318.753 87.806 318.695 88.1133 318.695C88.6003 318.695 88.9818 318.818 89.2578 319.062C89.5339 319.305 89.6771 319.639 89.6875 320.066V322.012C89.6875 322.4 89.737 322.708 89.8359 322.938V323H89.0781ZM87.8789 322.449C88.1055 322.449 88.3203 322.391 88.5234 322.273C88.7266 322.156 88.8737 322.004 88.9648 321.816V320.949H88.3984C87.513 320.949 87.0703 321.208 87.0703 321.727C87.0703 321.953 87.1458 322.13 87.2969 322.258C87.4479 322.385 87.6419 322.449 87.8789 322.449ZM94.3984 320.934C94.3984 321.579 94.25 322.099 93.9531 322.492C93.6562 322.883 93.2578 323.078 92.7578 323.078C92.224 323.078 91.8112 322.889 91.5195 322.512L91.4844 323H90.8203V317H91.543V319.238C91.8346 318.876 92.237 318.695 92.75 318.695C93.263 318.695 93.6654 318.889 93.957 319.277C94.2513 319.665 94.3984 320.197 94.3984 320.871V320.934ZM93.6758 320.852C93.6758 320.359 93.5807 319.979 93.3906 319.711C93.2005 319.443 92.9271 319.309 92.5703 319.309C92.0938 319.309 91.7513 319.53 91.543 319.973V321.801C91.7643 322.243 92.1094 322.465 92.5781 322.465C92.9245 322.465 93.194 322.331 93.3867 322.062C93.5794 321.794 93.6758 321.391 93.6758 320.852ZM96.0977 323H95.375V317H96.0977V323ZM99.0117 323.078C98.4388 323.078 97.9727 322.891 97.6133 322.516C97.2539 322.138 97.0742 321.634 97.0742 321.004V320.871C97.0742 320.452 97.1536 320.078 97.3125 319.75C97.474 319.419 97.6979 319.161 97.9844 318.977C98.2734 318.789 98.5859 318.695 98.9219 318.695C99.4714 318.695 99.8984 318.876 100.203 319.238C100.508 319.6 100.66 320.118 100.66 320.793V321.094H97.7969C97.8073 321.51 97.9284 321.848 98.1602 322.105C98.3945 322.361 98.6914 322.488 99.0508 322.488C99.306 322.488 99.5221 322.436 99.6992 322.332C99.8763 322.228 100.031 322.09 100.164 321.918L100.605 322.262C100.251 322.806 99.7201 323.078 99.0117 323.078ZM98.9219 319.289C98.6302 319.289 98.3854 319.396 98.1875 319.609C97.9896 319.82 97.8672 320.117 97.8203 320.5H99.9375V320.445C99.9167 320.078 99.8177 319.794 99.6406 319.594C99.4635 319.391 99.224 319.289 98.9219 319.289ZM101.613 323V317.312H103.219C103.714 317.312 104.151 317.422 104.531 317.641C104.911 317.859 105.204 318.171 105.41 318.574C105.618 318.978 105.724 319.441 105.727 319.965V320.328C105.727 320.865 105.622 321.335 105.414 321.738C105.208 322.142 104.913 322.452 104.527 322.668C104.145 322.884 103.698 322.995 103.188 323H101.613ZM102.363 317.93V322.387H103.152C103.73 322.387 104.18 322.207 104.5 321.848C104.823 321.488 104.984 320.977 104.984 320.312V319.98C104.984 319.335 104.832 318.833 104.527 318.477C104.225 318.117 103.796 317.935 103.238 317.93H102.363ZM108.504 323.078C107.931 323.078 107.465 322.891 107.105 322.516C106.746 322.138 106.566 321.634 106.566 321.004V320.871C106.566 320.452 106.646 320.078 106.805 319.75C106.966 319.419 107.19 319.161 107.477 318.977C107.766 318.789 108.078 318.695 108.414 318.695C108.964 318.695 109.391 318.876 109.695 319.238C110 319.6 110.152 320.118 110.152 320.793V321.094H107.289C107.299 321.51 107.421 321.848 107.652 322.105C107.887 322.361 108.184 322.488 108.543 322.488C108.798 322.488 109.014 322.436 109.191 322.332C109.368 322.228 109.523 322.09 109.656 321.918L110.098 322.262C109.743 322.806 109.212 323.078 108.504 323.078ZM108.414 319.289C108.122 319.289 107.878 319.396 107.68 319.609C107.482 319.82 107.359 320.117 107.312 320.5H109.43V320.445C109.409 320.078 109.31 319.794 109.133 319.594C108.956 319.391 108.716 319.289 108.414 319.289ZM112.688 322.488C112.945 322.488 113.171 322.41 113.363 322.254C113.556 322.098 113.663 321.902 113.684 321.668H114.367C114.354 321.91 114.271 322.141 114.117 322.359C113.964 322.578 113.758 322.753 113.5 322.883C113.245 323.013 112.974 323.078 112.688 323.078C112.112 323.078 111.654 322.887 111.312 322.504C110.974 322.118 110.805 321.592 110.805 320.926V320.805C110.805 320.393 110.88 320.027 111.031 319.707C111.182 319.387 111.398 319.138 111.68 318.961C111.964 318.784 112.298 318.695 112.684 318.695C113.158 318.695 113.551 318.837 113.863 319.121C114.178 319.405 114.346 319.773 114.367 320.227H113.684C113.663 319.953 113.559 319.729 113.371 319.555C113.186 319.378 112.957 319.289 112.684 319.289C112.316 319.289 112.031 319.422 111.828 319.688C111.628 319.951 111.527 320.332 111.527 320.832V320.969C111.527 321.456 111.628 321.831 111.828 322.094C112.029 322.357 112.315 322.488 112.688 322.488ZM115.965 323H115.242V317H115.965V323ZM119.734 323C119.693 322.917 119.659 322.768 119.633 322.555C119.297 322.904 118.896 323.078 118.43 323.078C118.013 323.078 117.671 322.961 117.402 322.727C117.137 322.49 117.004 322.19 117.004 321.828C117.004 321.388 117.171 321.047 117.504 320.805C117.84 320.56 118.311 320.438 118.918 320.438H119.621V320.105C119.621 319.853 119.546 319.652 119.395 319.504C119.243 319.353 119.021 319.277 118.727 319.277C118.469 319.277 118.253 319.342 118.078 319.473C117.904 319.603 117.816 319.76 117.816 319.945H117.09C117.09 319.734 117.164 319.531 117.312 319.336C117.464 319.138 117.667 318.982 117.922 318.867C118.18 318.753 118.462 318.695 118.77 318.695C119.257 318.695 119.638 318.818 119.914 319.062C120.19 319.305 120.333 319.639 120.344 320.066V322.012C120.344 322.4 120.393 322.708 120.492 322.938V323H119.734ZM118.535 322.449C118.762 322.449 118.977 322.391 119.18 322.273C119.383 322.156 119.53 322.004 119.621 321.816V320.949H119.055C118.169 320.949 117.727 321.208 117.727 321.727C117.727 321.953 117.802 322.13 117.953 322.258C118.104 322.385 118.298 322.449 118.535 322.449ZM123.52 319.422C123.41 319.404 123.292 319.395 123.164 319.395C122.69 319.395 122.368 319.596 122.199 320V323H121.477V318.773H122.18L122.191 319.262C122.428 318.884 122.764 318.695 123.199 318.695C123.34 318.695 123.447 318.714 123.52 318.75V319.422ZM126.641 323C126.599 322.917 126.565 322.768 126.539 322.555C126.203 322.904 125.802 323.078 125.336 323.078C124.919 323.078 124.577 322.961 124.309 322.727C124.043 322.49 123.91 322.19 123.91 321.828C123.91 321.388 124.077 321.047 124.41 320.805C124.746 320.56 125.217 320.438 125.824 320.438H126.527V320.105C126.527 319.853 126.452 319.652 126.301 319.504C126.15 319.353 125.927 319.277 125.633 319.277C125.375 319.277 125.159 319.342 124.984 319.473C124.81 319.603 124.723 319.76 124.723 319.945H123.996C123.996 319.734 124.07 319.531 124.219 319.336C124.37 319.138 124.573 318.982 124.828 318.867C125.086 318.753 125.368 318.695 125.676 318.695C126.163 318.695 126.544 318.818 126.82 319.062C127.096 319.305 127.24 319.639 127.25 320.066V322.012C127.25 322.4 127.299 322.708 127.398 322.938V323H126.641ZM125.441 322.449C125.668 322.449 125.883 322.391 126.086 322.273C126.289 322.156 126.436 322.004 126.527 321.816V320.949H125.961C125.076 320.949 124.633 321.208 124.633 321.727C124.633 321.953 124.708 322.13 124.859 322.258C125.01 322.385 125.204 322.449 125.441 322.449ZM129.363 317.75V318.773H130.152V319.332H129.363V321.953C129.363 322.122 129.398 322.25 129.469 322.336C129.539 322.419 129.659 322.461 129.828 322.461C129.911 322.461 130.026 322.445 130.172 322.414V323C129.982 323.052 129.797 323.078 129.617 323.078C129.294 323.078 129.051 322.98 128.887 322.785C128.723 322.59 128.641 322.312 128.641 321.953V319.332H127.871V318.773H128.641V317.75H129.363ZM130.73 320.848C130.73 320.434 130.811 320.061 130.973 319.73C131.137 319.4 131.363 319.145 131.652 318.965C131.944 318.785 132.276 318.695 132.648 318.695C133.224 318.695 133.689 318.895 134.043 319.293C134.4 319.691 134.578 320.221 134.578 320.883V320.934C134.578 321.345 134.499 321.715 134.34 322.043C134.184 322.368 133.958 322.622 133.664 322.805C133.372 322.987 133.036 323.078 132.656 323.078C132.083 323.078 131.618 322.879 131.262 322.48C130.908 322.082 130.73 321.555 130.73 320.898V320.848ZM131.457 320.934C131.457 321.402 131.565 321.779 131.781 322.062C132 322.346 132.292 322.488 132.656 322.488C133.023 322.488 133.315 322.345 133.531 322.059C133.747 321.77 133.855 321.366 133.855 320.848C133.855 320.384 133.745 320.009 133.523 319.723C133.305 319.434 133.013 319.289 132.648 319.289C132.292 319.289 132.004 319.431 131.785 319.715C131.566 319.999 131.457 320.405 131.457 320.934ZM137.527 319.422C137.418 319.404 137.299 319.395 137.172 319.395C136.698 319.395 136.376 319.596 136.207 320V323H135.484V318.773H136.188L136.199 319.262C136.436 318.884 136.772 318.695 137.207 318.695C137.348 318.695 137.454 318.714 137.527 318.75V319.422Z" fill="black"/>
<rect x="59.25" y="279.25" width="9.5" height="9.5" rx="1.75" fill="#188A53" stroke="black" stroke-width="0.5"/>
<path d="M73.4648 287H72.7148V281.312H73.4648V287ZM74.5508 284.852C74.5508 284.203 74.7044 283.682 75.0117 283.289C75.319 282.893 75.7214 282.695 76.2188 282.695C76.7135 282.695 77.1055 282.865 77.3945 283.203V281H78.1172V287H77.4531L77.418 286.547C77.1289 286.901 76.7266 287.078 76.2109 287.078C75.7214 287.078 75.3216 286.878 75.0117 286.477C74.7044 286.076 74.5508 285.552 74.5508 284.906V284.852ZM75.2734 284.934C75.2734 285.413 75.3724 285.788 75.5703 286.059C75.7682 286.329 76.0417 286.465 76.3906 286.465C76.849 286.465 77.1836 286.259 77.3945 285.848V283.906C77.1784 283.508 76.8464 283.309 76.3984 283.309C76.0443 283.309 75.7682 283.445 75.5703 283.719C75.3724 283.992 75.2734 284.397 75.2734 284.934ZM80.9961 287.078C80.4232 287.078 79.957 286.891 79.5977 286.516C79.2383 286.138 79.0586 285.634 79.0586 285.004V284.871C79.0586 284.452 79.138 284.078 79.2969 283.75C79.4583 283.419 79.6823 283.161 79.9688 282.977C80.2578 282.789 80.5703 282.695 80.9062 282.695C81.4557 282.695 81.8828 282.876 82.1875 283.238C82.4922 283.6 82.6445 284.118 82.6445 284.793V285.094H79.7812C79.7917 285.51 79.9128 285.848 80.1445 286.105C80.3789 286.361 80.6758 286.488 81.0352 286.488C81.2904 286.488 81.5065 286.436 81.6836 286.332C81.8607 286.228 82.0156 286.09 82.1484 285.918L82.5898 286.262C82.2357 286.806 81.7044 287.078 80.9961 287.078ZM80.9062 283.289C80.6146 283.289 80.3698 283.396 80.1719 283.609C79.974 283.82 79.8516 284.117 79.8047 284.5H81.9219V284.445C81.901 284.078 81.8021 283.794 81.625 283.594C81.4479 283.391 81.2083 283.289 80.9062 283.289ZM84.168 282.773L84.1914 283.305C84.5143 282.898 84.9362 282.695 85.457 282.695C86.3503 282.695 86.8008 283.199 86.8086 284.207V287H86.0859V284.203C86.0833 283.898 86.013 283.673 85.875 283.527C85.7396 283.382 85.5273 283.309 85.2383 283.309C85.0039 283.309 84.7982 283.371 84.6211 283.496C84.444 283.621 84.306 283.785 84.207 283.988V287H83.4844V282.773H84.168ZM88.8789 281.75V282.773H89.668V283.332H88.8789V285.953C88.8789 286.122 88.9141 286.25 88.9844 286.336C89.0547 286.419 89.1745 286.461 89.3438 286.461C89.4271 286.461 89.5417 286.445 89.6875 286.414V287C89.4974 287.052 89.3125 287.078 89.1328 287.078C88.8099 287.078 88.5664 286.98 88.4023 286.785C88.2383 286.59 88.1562 286.312 88.1562 285.953V283.332H87.3867V282.773H88.1562V281.75H88.8789ZM91.3008 287H90.5781V282.773H91.3008V287ZM90.5195 281.652C90.5195 281.535 90.5547 281.436 90.625 281.355C90.6979 281.275 90.8047 281.234 90.9453 281.234C91.0859 281.234 91.1927 281.275 91.2656 281.355C91.3385 281.436 91.375 281.535 91.375 281.652C91.375 281.77 91.3385 281.867 91.2656 281.945C91.1927 282.023 91.0859 282.062 90.9453 282.062C90.8047 282.062 90.6979 282.023 90.625 281.945C90.5547 281.867 90.5195 281.77 90.5195 281.652ZM92.7031 287V283.332H92.0352V282.773H92.7031V282.414C92.7031 281.943 92.8372 281.576 93.1055 281.312C93.3763 281.049 93.7578 280.918 94.25 280.918C94.5417 280.918 94.9102 280.997 95.3555 281.156L95.2344 281.766C94.9089 281.635 94.599 281.57 94.3047 281.57C93.9948 281.57 93.7708 281.641 93.6328 281.781C93.4974 281.919 93.4297 282.128 93.4297 282.406V282.773H94.293V283.332H93.4297V287H92.7031ZM95.7148 287H94.9883V282.773H95.7148V287ZM98.6445 287.078C98.0716 287.078 97.6055 286.891 97.2461 286.516C96.8867 286.138 96.707 285.634 96.707 285.004V284.871C96.707 284.452 96.7865 284.078 96.9453 283.75C97.1068 283.419 97.3307 283.161 97.6172 282.977C97.9062 282.789 98.2188 282.695 98.5547 282.695C99.1042 282.695 99.5312 282.876 99.8359 283.238C100.141 283.6 100.293 284.118 100.293 284.793V285.094H97.4297C97.4401 285.51 97.5612 285.848 97.793 286.105C98.0273 286.361 98.3242 286.488 98.6836 286.488C98.9388 286.488 99.1549 286.436 99.332 286.332C99.5091 286.228 99.6641 286.09 99.7969 285.918L100.238 286.262C99.8841 286.806 99.3529 287.078 98.6445 287.078ZM98.5547 283.289C98.263 283.289 98.0182 283.396 97.8203 283.609C97.6224 283.82 97.5 284.117 97.4531 284.5H99.5703V284.445C99.5495 284.078 99.4505 283.794 99.2734 283.594C99.0964 283.391 98.8568 283.289 98.5547 283.289ZM103.176 283.422C103.066 283.404 102.948 283.395 102.82 283.395C102.346 283.395 102.025 283.596 101.855 284V287H101.133V282.773H101.836L101.848 283.262C102.085 282.884 102.421 282.695 102.855 282.695C102.996 282.695 103.103 282.714 103.176 282.75V283.422Z" fill="black"/>
<rect x="112.25" y="279.25" width="9.5" height="9.5" rx="1.75" fill="#1B68DD" stroke="black" stroke-width="0.5"/>
<path d="M130.031 287H129.277L126.414 282.617V287H125.66V281.312H126.414L129.285 285.715V281.312H130.031V287ZM133.859 286.582C133.578 286.913 133.165 287.078 132.621 287.078C132.171 287.078 131.827 286.948 131.59 286.688C131.355 286.424 131.237 286.036 131.234 285.523V282.773H131.957V285.504C131.957 286.145 132.217 286.465 132.738 286.465C133.29 286.465 133.658 286.259 133.84 285.848V282.773H134.562V287H133.875L133.859 286.582ZM136.344 282.773L136.363 283.242C136.673 282.878 137.091 282.695 137.617 282.695C138.208 282.695 138.611 282.922 138.824 283.375C138.965 283.172 139.147 283.008 139.371 282.883C139.598 282.758 139.865 282.695 140.172 282.695C141.099 282.695 141.57 283.186 141.586 284.168V287H140.863V284.211C140.863 283.909 140.794 283.684 140.656 283.535C140.518 283.384 140.286 283.309 139.961 283.309C139.693 283.309 139.47 283.389 139.293 283.551C139.116 283.71 139.013 283.924 138.984 284.195V287H138.258V284.23C138.258 283.616 137.957 283.309 137.355 283.309C136.882 283.309 136.557 283.51 136.383 283.914V287H135.66V282.773H136.344ZM144.434 287.078C143.861 287.078 143.395 286.891 143.035 286.516C142.676 286.138 142.496 285.634 142.496 285.004V284.871C142.496 284.452 142.576 284.078 142.734 283.75C142.896 283.419 143.12 283.161 143.406 282.977C143.695 282.789 144.008 282.695 144.344 282.695C144.893 282.695 145.32 282.876 145.625 283.238C145.93 283.6 146.082 284.118 146.082 284.793V285.094H143.219C143.229 285.51 143.35 285.848 143.582 286.105C143.816 286.361 144.113 286.488 144.473 286.488C144.728 286.488 144.944 286.436 145.121 286.332C145.298 286.228 145.453 286.09 145.586 285.918L146.027 286.262C145.673 286.806 145.142 287.078 144.434 287.078ZM144.344 283.289C144.052 283.289 143.807 283.396 143.609 283.609C143.411 283.82 143.289 284.117 143.242 284.5H145.359V284.445C145.339 284.078 145.24 283.794 145.062 283.594C144.885 283.391 144.646 283.289 144.344 283.289ZM148.965 283.422C148.855 283.404 148.737 283.395 148.609 283.395C148.135 283.395 147.814 283.596 147.645 284V287H146.922V282.773H147.625L147.637 283.262C147.874 282.884 148.21 282.695 148.645 282.695C148.785 282.695 148.892 282.714 148.965 282.75V283.422ZM150.418 287H149.695V282.773H150.418V287ZM149.637 281.652C149.637 281.535 149.672 281.436 149.742 281.355C149.815 281.275 149.922 281.234 150.062 281.234C150.203 281.234 150.31 281.275 150.383 281.355C150.456 281.436 150.492 281.535 150.492 281.652C150.492 281.77 150.456 281.867 150.383 281.945C150.31 282.023 150.203 282.062 150.062 282.062C149.922 282.062 149.815 282.023 149.742 281.945C149.672 281.867 149.637 281.77 149.637 281.652ZM153.273 286.488C153.531 286.488 153.757 286.41 153.949 286.254C154.142 286.098 154.249 285.902 154.27 285.668H154.953C154.94 285.91 154.857 286.141 154.703 286.359C154.549 286.578 154.344 286.753 154.086 286.883C153.831 287.013 153.56 287.078 153.273 287.078C152.698 287.078 152.24 286.887 151.898 286.504C151.56 286.118 151.391 285.592 151.391 284.926V284.805C151.391 284.393 151.466 284.027 151.617 283.707C151.768 283.387 151.984 283.138 152.266 282.961C152.549 282.784 152.884 282.695 153.27 282.695C153.743 282.695 154.137 282.837 154.449 283.121C154.764 283.405 154.932 283.773 154.953 284.227H154.27C154.249 283.953 154.145 283.729 153.957 283.555C153.772 283.378 153.543 283.289 153.27 283.289C152.902 283.289 152.617 283.422 152.414 283.688C152.214 283.951 152.113 284.332 152.113 284.832V284.969C152.113 285.456 152.214 285.831 152.414 286.094C152.615 286.357 152.901 286.488 153.273 286.488ZM156.633 286.387H159.328V287H155.879V281.312H156.633V286.387ZM160.855 287H160.133V282.773H160.855V287ZM160.074 281.652C160.074 281.535 160.109 281.436 160.18 281.355C160.253 281.275 160.359 281.234 160.5 281.234C160.641 281.234 160.747 281.275 160.82 281.355C160.893 281.436 160.93 281.535 160.93 281.652C160.93 281.77 160.893 281.867 160.82 281.945C160.747 282.023 160.641 282.062 160.5 282.062C160.359 282.062 160.253 282.023 160.18 281.945C160.109 281.867 160.074 281.77 160.074 281.652ZM162.996 281.75V282.773H163.785V283.332H162.996V285.953C162.996 286.122 163.031 286.25 163.102 286.336C163.172 286.419 163.292 286.461 163.461 286.461C163.544 286.461 163.659 286.445 163.805 286.414V287C163.615 287.052 163.43 287.078 163.25 287.078C162.927 287.078 162.684 286.98 162.52 286.785C162.355 286.59 162.273 286.312 162.273 285.953V283.332H161.504V282.773H162.273V281.75H162.996ZM166.387 287.078C165.814 287.078 165.348 286.891 164.988 286.516C164.629 286.138 164.449 285.634 164.449 285.004V284.871C164.449 284.452 164.529 284.078 164.688 283.75C164.849 283.419 165.073 283.161 165.359 282.977C165.648 282.789 165.961 282.695 166.297 282.695C166.846 282.695 167.273 282.876 167.578 283.238C167.883 283.6 168.035 284.118 168.035 284.793V285.094H165.172C165.182 285.51 165.303 285.848 165.535 286.105C165.77 286.361 166.066 286.488 166.426 286.488C166.681 286.488 166.897 286.436 167.074 286.332C167.251 286.228 167.406 286.09 167.539 285.918L167.98 286.262C167.626 286.806 167.095 287.078 166.387 287.078ZM166.297 283.289C166.005 283.289 165.76 283.396 165.562 283.609C165.365 283.82 165.242 284.117 165.195 284.5H167.312V284.445C167.292 284.078 167.193 283.794 167.016 283.594C166.839 283.391 166.599 283.289 166.297 283.289ZM170.918 283.422C170.809 283.404 170.69 283.395 170.562 283.395C170.089 283.395 169.767 283.596 169.598 284V287H168.875V282.773H169.578L169.59 283.262C169.827 282.884 170.163 282.695 170.598 282.695C170.738 282.695 170.845 282.714 170.918 282.75V283.422ZM174.039 287C173.997 286.917 173.964 286.768 173.938 286.555C173.602 286.904 173.201 287.078 172.734 287.078C172.318 287.078 171.975 286.961 171.707 286.727C171.441 286.49 171.309 286.19 171.309 285.828C171.309 285.388 171.475 285.047 171.809 284.805C172.145 284.56 172.616 284.438 173.223 284.438H173.926V284.105C173.926 283.853 173.85 283.652 173.699 283.504C173.548 283.353 173.326 283.277 173.031 283.277C172.773 283.277 172.557 283.342 172.383 283.473C172.208 283.603 172.121 283.76 172.121 283.945H171.395C171.395 283.734 171.469 283.531 171.617 283.336C171.768 283.138 171.971 282.982 172.227 282.867C172.484 282.753 172.767 282.695 173.074 282.695C173.561 282.695 173.943 282.818 174.219 283.062C174.495 283.305 174.638 283.639 174.648 284.066V286.012C174.648 286.4 174.698 286.708 174.797 286.938V287H174.039ZM172.84 286.449C173.066 286.449 173.281 286.391 173.484 286.273C173.688 286.156 173.835 286.004 173.926 285.816V284.949H173.359C172.474 284.949 172.031 285.208 172.031 285.727C172.031 285.953 172.107 286.13 172.258 286.258C172.409 286.385 172.603 286.449 172.84 286.449ZM176.566 287H175.844V281H176.566V287Z" fill="black"/>
</svg>
