<svg width="230" height="205" viewBox="0 0 230 205" fill="none" xmlns="http://www.w3.org/2000/svg">
<rect width="230" height="205" rx="12" fill="white"/>
<path d="M109.293 74.7071C109.683 75.0976 110.317 75.0976 110.707 74.7071L117.071 68.3431C117.462 67.9526 117.462 67.3195 117.071 66.9289C116.681 66.5384 116.047 66.5384 115.657 66.9289L110 72.5858L104.343 66.9289C103.953 66.5384 103.319 66.5384 102.929 66.9289C102.538 67.3195 102.538 67.9526 102.929 68.3431L109.293 74.7071ZM109 43V74H111V43H109Z" fill="black"/>
<rect x="44.25" y="135.25" width="9.5" height="9.5" rx="1.75" fill="#FF1818" stroke="black" stroke-width="0.5"/>
<path d="M61.8438 141.195C61.7734 141.797 61.5508 142.262 61.1758 142.59C60.8034 142.915 60.3073 143.078 59.6875 143.078C59.0156 143.078 58.4766 142.837 58.0703 142.355C57.6667 141.874 57.4648 141.229 57.4648 140.422V139.875C57.4648 139.346 57.5586 138.882 57.7461 138.48C57.9362 138.079 58.2044 137.772 58.5508 137.559C58.8971 137.342 59.2982 137.234 59.7539 137.234C60.3581 137.234 60.8424 137.404 61.207 137.742C61.5716 138.078 61.7839 138.544 61.8438 139.141H61.0898C61.0247 138.688 60.8828 138.359 60.6641 138.156C60.4479 137.953 60.1445 137.852 59.7539 137.852C59.2747 137.852 58.8984 138.029 58.625 138.383C58.3542 138.737 58.2188 139.241 58.2188 139.895V140.445C58.2188 141.062 58.3477 141.553 58.6055 141.918C58.8633 142.283 59.224 142.465 59.6875 142.465C60.1042 142.465 60.4232 142.371 60.6445 142.184C60.8685 141.993 61.0169 141.664 61.0898 141.195H61.8438ZM67.2461 140.34C67.2461 140.897 67.1523 141.384 66.9648 141.801C66.7773 142.215 66.5117 142.531 66.168 142.75C65.8242 142.969 65.4232 143.078 64.9648 143.078C64.5169 143.078 64.1198 142.969 63.7734 142.75C63.4271 142.529 63.1576 142.215 62.9648 141.809C62.7747 141.4 62.6771 140.927 62.6719 140.391V139.98C62.6719 139.434 62.7669 138.951 62.957 138.531C63.1471 138.112 63.4154 137.792 63.7617 137.57C64.1107 137.346 64.5091 137.234 64.957 137.234C65.4128 137.234 65.8138 137.345 66.1602 137.566C66.5091 137.785 66.7773 138.104 66.9648 138.523C67.1523 138.94 67.2461 139.426 67.2461 139.98V140.34ZM66.5 139.973C66.5 139.298 66.3646 138.781 66.0938 138.422C65.8229 138.06 65.444 137.879 64.957 137.879C64.4831 137.879 64.1094 138.06 63.8359 138.422C63.5651 138.781 63.4258 139.281 63.418 139.922V140.34C63.418 140.993 63.5547 141.508 63.8281 141.883C64.1042 142.255 64.4831 142.441 64.9648 142.441C65.4492 142.441 65.8242 142.266 66.0898 141.914C66.3555 141.56 66.4922 141.053 66.5 140.395V139.973ZM72.7422 143H71.9883L69.125 138.617V143H68.3711V137.312H69.125L71.9961 141.715V137.312H72.7422V143ZM75.75 140.465C75.1068 140.28 74.638 140.053 74.3438 139.785C74.0521 139.514 73.9062 139.181 73.9062 138.785C73.9062 138.337 74.0846 137.967 74.4414 137.676C74.8008 137.382 75.2669 137.234 75.8398 137.234C76.2305 137.234 76.5781 137.31 76.8828 137.461C77.1901 137.612 77.4271 137.82 77.5938 138.086C77.763 138.352 77.8477 138.642 77.8477 138.957H77.0938C77.0938 138.613 76.9844 138.344 76.7656 138.148C76.5469 137.951 76.2383 137.852 75.8398 137.852C75.4701 137.852 75.181 137.934 74.9727 138.098C74.7669 138.259 74.6641 138.484 74.6641 138.773C74.6641 139.005 74.7617 139.202 74.957 139.363C75.1549 139.522 75.4896 139.668 75.9609 139.801C76.4349 139.934 76.8047 140.081 77.0703 140.242C77.3385 140.401 77.5365 140.587 77.6641 140.801C77.7943 141.014 77.8594 141.266 77.8594 141.555C77.8594 142.016 77.6797 142.385 77.3203 142.664C76.9609 142.94 76.4805 143.078 75.8789 143.078C75.4883 143.078 75.1237 143.004 74.7852 142.855C74.4466 142.704 74.1849 142.499 74 142.238C73.8177 141.978 73.7266 141.682 73.7266 141.352H74.4805C74.4805 141.695 74.6068 141.967 74.8594 142.168C75.1146 142.366 75.4544 142.465 75.8789 142.465C76.2747 142.465 76.5781 142.384 76.7891 142.223C77 142.061 77.1055 141.841 77.1055 141.562C77.1055 141.284 77.0078 141.069 76.8125 140.918C76.6172 140.764 76.263 140.613 75.75 140.465ZM82.7539 137.93H80.9258V143H80.1797V137.93H78.3555V137.312H82.7539V137.93ZM86.5312 143.59H82.9531V143H86.5312V143.59ZM88.6523 140.355L87.957 141.078V143H87.207V137.312H87.957V140.125L90.4844 137.312H91.3906L89.1523 139.824L91.5664 143H90.668L88.6523 140.355ZM95.4375 140.371H92.9727V142.387H95.8359V143H92.2227V137.312H95.7969V137.93H92.9727V139.758H95.4375V140.371ZM98.5039 140.168L99.9883 137.312H100.84L98.8789 140.879V143H98.1289V140.879L96.168 137.312H97.0273L98.5039 140.168ZM102.871 141.207L102.98 141.957L103.141 141.281L104.266 137.312H104.898L105.996 141.281L106.152 141.969L106.273 141.203L107.156 137.312H107.91L106.531 143H105.848L104.676 138.855L104.586 138.422L104.496 138.855L103.281 143H102.598L101.223 137.312H101.973L102.871 141.207ZM113.121 140.34C113.121 140.897 113.027 141.384 112.84 141.801C112.652 142.215 112.387 142.531 112.043 142.75C111.699 142.969 111.298 143.078 110.84 143.078C110.392 143.078 109.995 142.969 109.648 142.75C109.302 142.529 109.033 142.215 108.84 141.809C108.65 141.4 108.552 140.927 108.547 140.391V139.98C108.547 139.434 108.642 138.951 108.832 138.531C109.022 138.112 109.29 137.792 109.637 137.57C109.986 137.346 110.384 137.234 110.832 137.234C111.288 137.234 111.689 137.345 112.035 137.566C112.384 137.785 112.652 138.104 112.84 138.523C113.027 138.94 113.121 139.426 113.121 139.98V140.34ZM112.375 139.973C112.375 139.298 112.24 138.781 111.969 138.422C111.698 138.06 111.319 137.879 110.832 137.879C110.358 137.879 109.984 138.06 109.711 138.422C109.44 138.781 109.301 139.281 109.293 139.922V140.34C109.293 140.993 109.43 141.508 109.703 141.883C109.979 142.255 110.358 142.441 110.84 142.441C111.324 142.441 111.699 142.266 111.965 141.914C112.23 141.56 112.367 141.053 112.375 140.395V139.973ZM116.332 140.699H114.996V143H114.242V137.312H116.125C116.766 137.312 117.258 137.458 117.602 137.75C117.948 138.042 118.121 138.466 118.121 139.023C118.121 139.378 118.025 139.686 117.832 139.949C117.642 140.212 117.376 140.409 117.035 140.539L118.371 142.953V143H117.566L116.332 140.699ZM114.996 140.086H116.148C116.521 140.086 116.816 139.99 117.035 139.797C117.257 139.604 117.367 139.346 117.367 139.023C117.367 138.672 117.262 138.402 117.051 138.215C116.842 138.027 116.54 137.932 116.145 137.93H114.996V140.086ZM119.176 143V137.312H120.781C121.276 137.312 121.714 137.422 122.094 137.641C122.474 137.859 122.767 138.171 122.973 138.574C123.181 138.978 123.286 139.441 123.289 139.965V140.328C123.289 140.865 123.185 141.335 122.977 141.738C122.771 142.142 122.475 142.452 122.09 142.668C121.707 142.884 121.26 142.995 120.75 143H119.176ZM119.926 137.93V142.387H120.715C121.293 142.387 121.742 142.207 122.062 141.848C122.385 141.488 122.547 140.977 122.547 140.312V139.98C122.547 139.335 122.395 138.833 122.09 138.477C121.788 138.117 121.358 137.935 120.801 137.93H119.926Z" fill="black"/>
<rect x="44.25" y="153.25" width="9.5" height="9.5" rx="1.75" fill="#7D1DF6" stroke="black" stroke-width="0.5"/>
<path d="M60.8008 159.516H58.418L57.8828 161H57.1094L59.2812 155.312H59.9375L62.1133 161H61.3438L60.8008 159.516ZM58.6445 158.898H60.5781L59.6094 156.238L58.6445 158.898ZM64.5547 158.465C63.9115 158.28 63.4427 158.053 63.1484 157.785C62.8568 157.514 62.7109 157.181 62.7109 156.785C62.7109 156.337 62.8893 155.967 63.2461 155.676C63.6055 155.382 64.0716 155.234 64.6445 155.234C65.0352 155.234 65.3828 155.31 65.6875 155.461C65.9948 155.612 66.2318 155.82 66.3984 156.086C66.5677 156.352 66.6523 156.642 66.6523 156.957H65.8984C65.8984 156.613 65.7891 156.344 65.5703 156.148C65.3516 155.951 65.043 155.852 64.6445 155.852C64.2747 155.852 63.9857 155.934 63.7773 156.098C63.5716 156.259 63.4688 156.484 63.4688 156.773C63.4688 157.005 63.5664 157.202 63.7617 157.363C63.9596 157.522 64.2943 157.668 64.7656 157.801C65.2396 157.934 65.6094 158.081 65.875 158.242C66.1432 158.401 66.3411 158.587 66.4688 158.801C66.599 159.014 66.6641 159.266 66.6641 159.555C66.6641 160.016 66.4844 160.385 66.125 160.664C65.7656 160.94 65.2852 161.078 64.6836 161.078C64.293 161.078 63.9284 161.004 63.5898 160.855C63.2513 160.704 62.9896 160.499 62.8047 160.238C62.6224 159.978 62.5312 159.682 62.5312 159.352H63.2852C63.2852 159.695 63.4115 159.967 63.6641 160.168C63.9193 160.366 64.2591 160.465 64.6836 160.465C65.0794 160.465 65.3828 160.384 65.5938 160.223C65.8047 160.061 65.9102 159.841 65.9102 159.562C65.9102 159.284 65.8125 159.069 65.6172 158.918C65.4219 158.764 65.0677 158.613 64.5547 158.465ZM69.3047 158.465C68.6615 158.28 68.1927 158.053 67.8984 157.785C67.6068 157.514 67.4609 157.181 67.4609 156.785C67.4609 156.337 67.6393 155.967 67.9961 155.676C68.3555 155.382 68.8216 155.234 69.3945 155.234C69.7852 155.234 70.1328 155.31 70.4375 155.461C70.7448 155.612 70.9818 155.82 71.1484 156.086C71.3177 156.352 71.4023 156.642 71.4023 156.957H70.6484C70.6484 156.613 70.5391 156.344 70.3203 156.148C70.1016 155.951 69.793 155.852 69.3945 155.852C69.0247 155.852 68.7357 155.934 68.5273 156.098C68.3216 156.259 68.2188 156.484 68.2188 156.773C68.2188 157.005 68.3164 157.202 68.5117 157.363C68.7096 157.522 69.0443 157.668 69.5156 157.801C69.9896 157.934 70.3594 158.081 70.625 158.242C70.8932 158.401 71.0911 158.587 71.2188 158.801C71.349 159.014 71.4141 159.266 71.4141 159.555C71.4141 160.016 71.2344 160.385 70.875 160.664C70.5156 160.94 70.0352 161.078 69.4336 161.078C69.043 161.078 68.6784 161.004 68.3398 160.855C68.0013 160.704 67.7396 160.499 67.5547 160.238C67.3724 159.978 67.2812 159.682 67.2812 159.352H68.0352C68.0352 159.695 68.1615 159.967 68.4141 160.168C68.6693 160.366 69.0091 160.465 69.4336 160.465C69.8294 160.465 70.1328 160.384 70.3438 160.223C70.5547 160.061 70.6602 159.841 70.6602 159.562C70.6602 159.284 70.5625 159.069 70.3672 158.918C70.1719 158.764 69.8177 158.613 69.3047 158.465ZM73.1836 161H72.4336V155.312H73.1836V161ZM78.7578 160.254C78.5651 160.53 78.2956 160.737 77.9492 160.875C77.6055 161.01 77.2044 161.078 76.7461 161.078C76.2826 161.078 75.8711 160.97 75.5117 160.754C75.1523 160.535 74.8737 160.225 74.6758 159.824C74.4805 159.423 74.3802 158.958 74.375 158.43V157.934C74.375 157.077 74.5742 156.413 74.9727 155.941C75.3737 155.47 75.9362 155.234 76.6602 155.234C77.2539 155.234 77.7318 155.387 78.0938 155.691C78.4557 155.993 78.6771 156.423 78.7578 156.98H78.0078C77.8672 156.228 77.4193 155.852 76.6641 155.852C76.1615 155.852 75.7799 156.029 75.5195 156.383C75.2617 156.734 75.1315 157.245 75.1289 157.914V158.379C75.1289 159.017 75.2747 159.525 75.5664 159.902C75.8581 160.277 76.2526 160.465 76.75 160.465C77.0312 160.465 77.2773 160.434 77.4883 160.371C77.6992 160.309 77.8737 160.203 78.0117 160.055V158.777H76.6953V158.168H78.7578V160.254ZM84.3828 161H83.6289L80.7656 156.617V161H80.0117V155.312H80.7656L83.6367 159.715V155.312H84.3828V161Z" fill="black"/>
<rect x="44.25" y="171.25" width="9.5" height="9.5" rx="1.75" fill="#DFAB46" stroke="black" stroke-width="0.5"/>
<path d="M59.3359 176.465C58.6927 176.28 58.224 176.053 57.9297 175.785C57.638 175.514 57.4922 175.181 57.4922 174.785C57.4922 174.337 57.6706 173.967 58.0273 173.676C58.3867 173.382 58.8529 173.234 59.4258 173.234C59.8164 173.234 60.1641 173.31 60.4688 173.461C60.776 173.612 61.013 173.82 61.1797 174.086C61.349 174.352 61.4336 174.642 61.4336 174.957H60.6797C60.6797 174.613 60.5703 174.344 60.3516 174.148C60.1328 173.951 59.8242 173.852 59.4258 173.852C59.056 173.852 58.7669 173.934 58.5586 174.098C58.3529 174.259 58.25 174.484 58.25 174.773C58.25 175.005 58.3477 175.202 58.543 175.363C58.7409 175.522 59.0755 175.668 59.5469 175.801C60.0208 175.934 60.3906 176.081 60.6562 176.242C60.9245 176.401 61.1224 176.587 61.25 176.801C61.3802 177.014 61.4453 177.266 61.4453 177.555C61.4453 178.016 61.2656 178.385 60.9062 178.664C60.5469 178.94 60.0664 179.078 59.4648 179.078C59.0742 179.078 58.7096 179.004 58.3711 178.855C58.0326 178.704 57.7708 178.499 57.5859 178.238C57.4036 177.978 57.3125 177.682 57.3125 177.352H58.0664C58.0664 177.695 58.1927 177.967 58.4453 178.168C58.7005 178.366 59.0404 178.465 59.4648 178.465C59.8607 178.465 60.1641 178.384 60.375 178.223C60.5859 178.061 60.6914 177.841 60.6914 177.562C60.6914 177.284 60.5938 177.069 60.3984 176.918C60.2031 176.764 59.849 176.613 59.3359 176.465ZM65.625 176.371H63.1602V178.387H66.0234V179H62.4102V173.312H65.9844V173.93H63.1602V175.758H65.625V176.371ZM67.9258 173.312L69.7852 177.953L71.6445 173.312H72.6172V179H71.8672V176.785L71.9375 174.395L70.0703 179H69.4961L67.6328 174.406L67.707 176.785V179H66.957V173.312H67.9258ZM74.7461 179H73.9961V173.312H74.7461V179ZM80.3047 177.195C80.2344 177.797 80.0117 178.262 79.6367 178.59C79.2643 178.915 78.7682 179.078 78.1484 179.078C77.4766 179.078 76.9375 178.837 76.5312 178.355C76.1276 177.874 75.9258 177.229 75.9258 176.422V175.875C75.9258 175.346 76.0195 174.882 76.207 174.48C76.3971 174.079 76.6654 173.772 77.0117 173.559C77.3581 173.342 77.7591 173.234 78.2148 173.234C78.819 173.234 79.3034 173.404 79.668 173.742C80.0326 174.078 80.2448 174.544 80.3047 175.141H79.5508C79.4857 174.688 79.3438 174.359 79.125 174.156C78.9089 173.953 78.6055 173.852 78.2148 173.852C77.7357 173.852 77.3594 174.029 77.0859 174.383C76.8151 174.737 76.6797 175.241 76.6797 175.895V176.445C76.6797 177.062 76.8086 177.553 77.0664 177.918C77.3242 178.283 77.6849 178.465 78.1484 178.465C78.5651 178.465 78.8841 178.371 79.1055 178.184C79.3294 177.993 79.4779 177.664 79.5508 177.195H80.3047ZM85.707 176.34C85.707 176.897 85.6133 177.384 85.4258 177.801C85.2383 178.215 84.9727 178.531 84.6289 178.75C84.2852 178.969 83.8841 179.078 83.4258 179.078C82.9779 179.078 82.5807 178.969 82.2344 178.75C81.888 178.529 81.6185 178.215 81.4258 177.809C81.2357 177.4 81.138 176.927 81.1328 176.391V175.98C81.1328 175.434 81.2279 174.951 81.418 174.531C81.6081 174.112 81.8763 173.792 82.2227 173.57C82.5716 173.346 82.9701 173.234 83.418 173.234C83.8737 173.234 84.2747 173.345 84.6211 173.566C84.9701 173.785 85.2383 174.104 85.4258 174.523C85.6133 174.94 85.707 175.426 85.707 175.98V176.34ZM84.9609 175.973C84.9609 175.298 84.8255 174.781 84.5547 174.422C84.2839 174.06 83.9049 173.879 83.418 173.879C82.944 173.879 82.5703 174.06 82.2969 174.422C82.026 174.781 81.8867 175.281 81.8789 175.922V176.34C81.8789 176.993 82.0156 177.508 82.2891 177.883C82.5651 178.255 82.944 178.441 83.4258 178.441C83.9102 178.441 84.2852 178.266 84.5508 177.914C84.8164 177.56 84.9531 177.053 84.9609 176.395V175.973ZM87.5859 178.387H90.2812V179H86.832V173.312H87.5859V178.387Z" fill="black"/>
<rect x="132.25" y="135.25" width="9.5" height="9.5" rx="1.75" fill="#188A53" stroke="black" stroke-width="0.5"/>
<path d="M146.465 143H145.715V137.312H146.465V143ZM147.84 143V137.312H149.445C149.94 137.312 150.378 137.422 150.758 137.641C151.138 137.859 151.431 138.171 151.637 138.574C151.845 138.978 151.951 139.441 151.953 139.965V140.328C151.953 140.865 151.849 141.335 151.641 141.738C151.435 142.142 151.139 142.452 150.754 142.668C150.371 142.884 149.924 142.995 149.414 143H147.84ZM148.59 137.93V142.387H149.379C149.957 142.387 150.406 142.207 150.727 141.848C151.049 141.488 151.211 140.977 151.211 140.312V139.98C151.211 139.335 151.059 138.833 150.754 138.477C150.452 138.117 150.022 137.935 149.465 137.93H148.59ZM156.305 140.371H153.84V142.387H156.703V143H153.09V137.312H156.664V137.93H153.84V139.758H156.305V140.371ZM162.008 143H161.254L158.391 138.617V143H157.637V137.312H158.391L161.262 141.715V137.312H162.008V143ZM167.152 137.93H165.324V143H164.578V137.93H162.754V137.312H167.152V137.93ZM168.801 143H168.051V137.312H168.801V143ZM173.312 140.488H170.926V143H170.176V137.312H173.699V137.93H170.926V139.875H173.312V140.488ZM175.402 143H174.652V137.312H175.402V143ZM179.992 140.371H177.527V142.387H180.391V143H176.777V137.312H180.352V137.93H177.527V139.758H179.992V140.371ZM183.41 140.699H182.074V143H181.32V137.312H183.203C183.844 137.312 184.336 137.458 184.68 137.75C185.026 138.042 185.199 138.466 185.199 139.023C185.199 139.378 185.103 139.686 184.91 139.949C184.72 140.212 184.454 140.409 184.113 140.539L185.449 142.953V143H184.645L183.41 140.699ZM182.074 140.086H183.227C183.599 140.086 183.895 139.99 184.113 139.797C184.335 139.604 184.445 139.346 184.445 139.023C184.445 138.672 184.34 138.402 184.129 138.215C183.921 138.027 183.618 137.932 183.223 137.93H182.074V140.086Z" fill="black"/>
<rect x="94.25" y="153.25" width="9.5" height="9.5" rx="1.75" fill="#1B68DD" stroke="black" stroke-width="0.5"/>
<path d="M108.465 161H107.715V155.312H108.465V161ZM114.211 161H113.457L110.594 156.617V161H109.84V155.312H110.594L113.465 159.715V155.312H114.211V161ZM119.355 155.93H117.527V161H116.781V155.93H114.957V155.312H119.355V155.93ZM123.414 158.371H120.949V160.387H123.812V161H120.199V155.312H123.773V155.93H120.949V157.758H123.414V158.371ZM128.945 160.254C128.753 160.53 128.483 160.737 128.137 160.875C127.793 161.01 127.392 161.078 126.934 161.078C126.47 161.078 126.059 160.97 125.699 160.754C125.34 160.535 125.061 160.225 124.863 159.824C124.668 159.423 124.568 158.958 124.562 158.43V157.934C124.562 157.077 124.762 156.413 125.16 155.941C125.561 155.47 126.124 155.234 126.848 155.234C127.441 155.234 127.919 155.387 128.281 155.691C128.643 155.993 128.865 156.423 128.945 156.98H128.195C128.055 156.228 127.607 155.852 126.852 155.852C126.349 155.852 125.967 156.029 125.707 156.383C125.449 156.734 125.319 157.245 125.316 157.914V158.379C125.316 159.017 125.462 159.525 125.754 159.902C126.046 160.277 126.44 160.465 126.938 160.465C127.219 160.465 127.465 160.434 127.676 160.371C127.887 160.309 128.061 160.203 128.199 160.055V158.777H126.883V158.168H128.945V160.254ZM133.414 158.371H130.949V160.387H133.812V161H130.199V155.312H133.773V155.93H130.949V157.758H133.414V158.371ZM136.832 158.699H135.496V161H134.742V155.312H136.625C137.266 155.312 137.758 155.458 138.102 155.75C138.448 156.042 138.621 156.466 138.621 157.023C138.621 157.378 138.525 157.686 138.332 157.949C138.142 158.212 137.876 158.409 137.535 158.539L138.871 160.953V161H138.066L136.832 158.699ZM135.496 158.086H136.648C137.021 158.086 137.316 157.99 137.535 157.797C137.757 157.604 137.867 157.346 137.867 157.023C137.867 156.672 137.762 156.402 137.551 156.215C137.342 156.027 137.04 155.932 136.645 155.93H135.496V158.086Z" fill="black"/>
<path d="M65.8398 99.6602L65.8691 100.363C66.334 99.8164 66.9609 99.543 67.75 99.543C68.6367 99.543 69.2402 99.8828 69.5605 100.562C69.7715 100.258 70.0449 100.012 70.3809 99.8242C70.7207 99.6367 71.1211 99.543 71.582 99.543C72.9727 99.543 73.6797 100.279 73.7031 101.752V106H72.6191V101.816C72.6191 101.363 72.5156 101.025 72.3086 100.803C72.1016 100.576 71.7539 100.463 71.2656 100.463C70.8633 100.463 70.5293 100.584 70.2637 100.826C69.998 101.064 69.8438 101.387 69.8008 101.793V106H68.7109V101.846C68.7109 100.924 68.2598 100.463 67.3574 100.463C66.6465 100.463 66.1602 100.766 65.8984 101.371V106H64.8145V99.6602H65.8398ZM79.2578 106C79.1953 105.875 79.1445 105.652 79.1055 105.332C78.6016 105.855 78 106.117 77.3008 106.117C76.6758 106.117 76.1621 105.941 75.7598 105.59C75.3613 105.234 75.1621 104.785 75.1621 104.242C75.1621 103.582 75.4121 103.07 75.9121 102.707C76.416 102.34 77.123 102.156 78.0332 102.156H79.0879V101.658C79.0879 101.279 78.9746 100.979 78.748 100.756C78.5215 100.529 78.1875 100.416 77.7461 100.416C77.3594 100.416 77.0352 100.514 76.7734 100.709C76.5117 100.904 76.3809 101.141 76.3809 101.418H75.291C75.291 101.102 75.4023 100.797 75.625 100.504C75.8516 100.207 76.1562 99.9727 76.5391 99.8008C76.9258 99.6289 77.3496 99.543 77.8105 99.543C78.541 99.543 79.1133 99.7266 79.5273 100.094C79.9414 100.457 80.1562 100.959 80.1719 101.6V104.518C80.1719 105.1 80.2461 105.562 80.3945 105.906V106H79.2578ZM77.459 105.174C77.7988 105.174 78.1211 105.086 78.4258 104.91C78.7305 104.734 78.9512 104.506 79.0879 104.225V102.924H78.2383C76.9102 102.924 76.2461 103.312 76.2461 104.09C76.2461 104.43 76.3594 104.695 76.5859 104.887C76.8125 105.078 77.1035 105.174 77.459 105.174ZM81.6133 102.777C81.6133 101.789 81.8418 101.004 82.2988 100.422C82.7559 99.8359 83.3613 99.543 84.1152 99.543C84.8887 99.543 85.4922 99.8164 85.9258 100.363L85.9785 99.6602H86.9688V105.848C86.9688 106.668 86.7246 107.314 86.2363 107.787C85.752 108.26 85.0996 108.496 84.2793 108.496C83.8223 108.496 83.375 108.398 82.9375 108.203C82.5 108.008 82.166 107.74 81.9355 107.4L82.498 106.75C82.9629 107.324 83.5312 107.611 84.2031 107.611C84.7305 107.611 85.1406 107.463 85.4336 107.166C85.7305 106.869 85.8789 106.451 85.8789 105.912V105.367C85.4453 105.867 84.8535 106.117 84.1035 106.117C83.3613 106.117 82.7598 105.818 82.2988 105.221C81.8418 104.623 81.6133 103.809 81.6133 102.777ZM82.7031 102.9C82.7031 103.615 82.8496 104.178 83.1426 104.588C83.4355 104.994 83.8457 105.197 84.373 105.197C85.0566 105.197 85.5586 104.887 85.8789 104.266V101.371C85.5469 100.766 85.0488 100.463 84.3848 100.463C83.8574 100.463 83.4453 100.668 83.1484 101.078C82.8516 101.488 82.7031 102.096 82.7031 102.9ZM89.7871 106H88.7031V99.6602H89.7871V106ZM88.6152 97.9785C88.6152 97.8027 88.668 97.6543 88.7734 97.5332C88.8828 97.4121 89.043 97.3516 89.2539 97.3516C89.4648 97.3516 89.625 97.4121 89.7344 97.5332C89.8438 97.6543 89.8984 97.8027 89.8984 97.9785C89.8984 98.1543 89.8438 98.3008 89.7344 98.418C89.625 98.5352 89.4648 98.5938 89.2539 98.5938C89.043 98.5938 88.8828 98.5352 88.7734 98.418C88.668 98.3008 88.6152 98.1543 88.6152 97.9785ZM94.0703 105.232C94.457 105.232 94.7949 105.115 95.084 104.881C95.373 104.646 95.5332 104.354 95.5645 104.002H96.5898C96.5703 104.365 96.4453 104.711 96.2148 105.039C95.9844 105.367 95.6758 105.629 95.2891 105.824C94.9062 106.02 94.5 106.117 94.0703 106.117C93.207 106.117 92.5195 105.83 92.0078 105.256C91.5 104.678 91.2461 103.889 91.2461 102.889V102.707C91.2461 102.09 91.3594 101.541 91.5859 101.061C91.8125 100.58 92.1367 100.207 92.5586 99.9414C92.9844 99.6758 93.4863 99.543 94.0645 99.543C94.7754 99.543 95.3652 99.7559 95.834 100.182C96.3066 100.607 96.5586 101.16 96.5898 101.84H95.5645C95.5332 101.43 95.377 101.094 95.0957 100.832C94.8184 100.566 94.4746 100.434 94.0645 100.434C93.5137 100.434 93.0859 100.633 92.7812 101.031C92.4805 101.426 92.3301 101.998 92.3301 102.748V102.953C92.3301 103.684 92.4805 104.246 92.7812 104.641C93.082 105.035 93.5117 105.232 94.0703 105.232ZM104.535 106H103.404L99.1094 99.4258V106H97.9785V97.4688H99.1094L103.416 104.072V97.4688H104.535V106ZM110.277 105.373C109.855 105.869 109.236 106.117 108.42 106.117C107.744 106.117 107.229 105.922 106.873 105.531C106.521 105.137 106.344 104.555 106.34 103.785V99.6602H107.424V103.756C107.424 104.717 107.814 105.197 108.596 105.197C109.424 105.197 109.975 104.889 110.248 104.271V99.6602H111.332V106H110.301L110.277 105.373ZM114.004 99.6602L114.033 100.363C114.498 99.8164 115.125 99.543 115.914 99.543C116.801 99.543 117.404 99.8828 117.725 100.562C117.936 100.258 118.209 100.012 118.545 99.8242C118.885 99.6367 119.285 99.543 119.746 99.543C121.137 99.543 121.844 100.279 121.867 101.752V106H120.783V101.816C120.783 101.363 120.68 101.025 120.473 100.803C120.266 100.576 119.918 100.463 119.43 100.463C119.027 100.463 118.693 100.584 118.428 100.826C118.162 101.064 118.008 101.387 117.965 101.793V106H116.875V101.846C116.875 100.924 116.424 100.463 115.521 100.463C114.811 100.463 114.324 100.766 114.062 101.371V106H112.979V99.6602H114.004ZM128.875 102.9C128.875 103.869 128.652 104.648 128.207 105.238C127.762 105.824 127.164 106.117 126.414 106.117C125.613 106.117 124.994 105.834 124.557 105.268L124.504 106H123.508V97H124.592V100.357C125.029 99.8145 125.633 99.543 126.402 99.543C127.172 99.543 127.775 99.834 128.213 100.416C128.654 100.998 128.875 101.795 128.875 102.807V102.9ZM127.791 102.777C127.791 102.039 127.648 101.469 127.363 101.066C127.078 100.664 126.668 100.463 126.133 100.463C125.418 100.463 124.904 100.795 124.592 101.459V104.201C124.924 104.865 125.441 105.197 126.145 105.197C126.664 105.197 127.068 104.996 127.357 104.594C127.646 104.191 127.791 103.586 127.791 102.777ZM132.877 106.117C132.018 106.117 131.318 105.836 130.779 105.273C130.24 104.707 129.971 103.951 129.971 103.006V102.807C129.971 102.178 130.09 101.617 130.328 101.125C130.57 100.629 130.906 100.242 131.336 99.9648C131.77 99.6836 132.238 99.543 132.742 99.543C133.566 99.543 134.207 99.8145 134.664 100.357C135.121 100.9 135.35 101.678 135.35 102.689V103.141H131.055C131.07 103.766 131.252 104.271 131.6 104.658C131.951 105.041 132.396 105.232 132.936 105.232C133.318 105.232 133.643 105.154 133.908 104.998C134.174 104.842 134.406 104.635 134.605 104.377L135.268 104.893C134.736 105.709 133.939 106.117 132.877 106.117ZM132.742 100.434C132.305 100.434 131.938 100.594 131.641 100.914C131.344 101.23 131.16 101.676 131.09 102.25H134.266V102.168C134.234 101.617 134.086 101.191 133.82 100.891C133.555 100.586 133.195 100.434 132.742 100.434ZM139.674 100.633C139.51 100.605 139.332 100.592 139.141 100.592C138.43 100.592 137.947 100.895 137.693 101.5V106H136.609V99.6602H137.664L137.682 100.393C138.037 99.8262 138.541 99.543 139.193 99.543C139.404 99.543 139.564 99.5703 139.674 99.625V100.633Z" fill="black"/>
<rect x="61.5" y="90.5" width="81" height="24" rx="3.5" stroke="#188A53"/>
<path d="M173.271 106H172.182V98.7754L169.996 99.5781V98.5938L173.102 97.4277H173.271V106ZM181.621 99.6953C181.621 100.121 181.508 100.5 181.281 100.832C181.059 101.164 180.756 101.424 180.373 101.611C180.818 101.803 181.17 102.082 181.428 102.449C181.689 102.816 181.82 103.232 181.82 103.697C181.82 104.436 181.57 105.023 181.07 105.461C180.574 105.898 179.92 106.117 179.107 106.117C178.287 106.117 177.629 105.898 177.133 105.461C176.641 105.02 176.395 104.432 176.395 103.697C176.395 103.236 176.52 102.82 176.77 102.449C177.023 102.078 177.373 101.797 177.818 101.605C177.439 101.418 177.141 101.158 176.922 100.826C176.703 100.494 176.594 100.117 176.594 99.6953C176.594 98.9766 176.824 98.4062 177.285 97.9844C177.746 97.5625 178.354 97.3516 179.107 97.3516C179.857 97.3516 180.463 97.5625 180.924 97.9844C181.389 98.4062 181.621 98.9766 181.621 99.6953ZM180.736 103.674C180.736 103.197 180.584 102.809 180.279 102.508C179.979 102.207 179.584 102.057 179.096 102.057C178.607 102.057 178.215 102.205 177.918 102.502C177.625 102.799 177.479 103.189 177.479 103.674C177.479 104.158 177.621 104.539 177.906 104.816C178.195 105.094 178.596 105.232 179.107 105.232C179.615 105.232 180.014 105.094 180.303 104.816C180.592 104.535 180.736 104.154 180.736 103.674ZM179.107 98.2422C178.682 98.2422 178.336 98.375 178.07 98.6406C177.809 98.9023 177.678 99.2598 177.678 99.7129C177.678 100.146 177.807 100.498 178.064 100.768C178.326 101.033 178.674 101.166 179.107 101.166C179.541 101.166 179.887 101.033 180.145 100.768C180.406 100.498 180.537 100.146 180.537 99.7129C180.537 99.2793 180.402 98.9258 180.133 98.6523C179.863 98.3789 179.521 98.2422 179.107 98.2422ZM183.684 101.723L184.117 97.4688H188.488V98.4707H185.037L184.779 100.797C185.197 100.551 185.672 100.428 186.203 100.428C186.98 100.428 187.598 100.686 188.055 101.201C188.512 101.713 188.74 102.406 188.74 103.281C188.74 104.16 188.502 104.854 188.025 105.361C187.553 105.865 186.891 106.117 186.039 106.117C185.285 106.117 184.67 105.908 184.193 105.49C183.717 105.072 183.445 104.494 183.379 103.756H184.404C184.471 104.244 184.645 104.613 184.926 104.863C185.207 105.109 185.578 105.232 186.039 105.232C186.543 105.232 186.938 105.061 187.223 104.717C187.512 104.373 187.656 103.898 187.656 103.293C187.656 102.723 187.5 102.266 187.188 101.922C186.879 101.574 186.467 101.4 185.951 101.4C185.479 101.4 185.107 101.504 184.838 101.711L184.551 101.945L183.684 101.723Z" fill="black"/>
<rect x="165.5" y="90.5" width="28" height="24" rx="3.5" stroke="#1B68DD"/>
<path d="M204.65 100.258C204.65 100.07 204.705 99.9141 204.814 99.7891C204.928 99.6641 205.096 99.6016 205.318 99.6016C205.541 99.6016 205.709 99.6641 205.822 99.7891C205.939 99.9141 205.998 100.07 205.998 100.258C205.998 100.438 205.939 100.588 205.822 100.709C205.709 100.83 205.541 100.891 205.318 100.891C205.096 100.891 204.928 100.83 204.814 100.709C204.705 100.588 204.65 100.438 204.65 100.258ZM204.855 107.699L204.24 107.277C204.607 106.766 204.799 106.238 204.814 105.695V104.717H205.875V105.566C205.875 105.961 205.777 106.355 205.582 106.75C205.391 107.145 205.148 107.461 204.855 107.699Z" fill="black"/>
<rect x="198.5" y="90.5" width="13" height="24" rx="3.5" stroke="#DDA71B"/>
<path d="M25.3633 105.232C25.75 105.232 26.0879 105.115 26.377 104.881C26.666 104.646 26.8262 104.354 26.8574 104.002H27.8828C27.8633 104.365 27.7383 104.711 27.5078 105.039C27.2773 105.367 26.9688 105.629 26.582 105.824C26.1992 106.02 25.793 106.117 25.3633 106.117C24.5 106.117 23.8125 105.83 23.3008 105.256C22.793 104.678 22.5391 103.889 22.5391 102.889V102.707C22.5391 102.09 22.6523 101.541 22.8789 101.061C23.1055 100.58 23.4297 100.207 23.8516 99.9414C24.2773 99.6758 24.7793 99.543 25.3574 99.543C26.0684 99.543 26.6582 99.7559 27.127 100.182C27.5996 100.607 27.8516 101.16 27.8828 101.84H26.8574C26.8262 101.43 26.6699 101.094 26.3887 100.832C26.1113 100.566 25.7676 100.434 25.3574 100.434C24.8066 100.434 24.3789 100.633 24.0742 101.031C23.7734 101.426 23.623 101.998 23.623 102.748V102.953C23.623 103.684 23.7734 104.246 24.0742 104.641C24.375 105.035 24.8047 105.232 25.3633 105.232ZM28.8145 102.771C28.8145 102.15 28.9355 101.592 29.1777 101.096C29.4238 100.6 29.7637 100.217 30.1973 99.9473C30.6348 99.6777 31.1328 99.543 31.6914 99.543C32.5547 99.543 33.252 99.8418 33.7832 100.439C34.3184 101.037 34.5859 101.832 34.5859 102.824V102.9C34.5859 103.518 34.4668 104.072 34.2285 104.564C33.9941 105.053 33.6562 105.434 33.2148 105.707C32.7773 105.98 32.2734 106.117 31.7031 106.117C30.8438 106.117 30.1465 105.818 29.6113 105.221C29.0801 104.623 28.8145 103.832 28.8145 102.848V102.771ZM29.9043 102.9C29.9043 103.604 30.0664 104.168 30.3906 104.594C30.7188 105.02 31.1562 105.232 31.7031 105.232C32.2539 105.232 32.6914 105.018 33.0156 104.588C33.3398 104.154 33.502 103.549 33.502 102.771C33.502 102.076 33.3359 101.514 33.0039 101.084C32.6758 100.65 32.2383 100.434 31.6914 100.434C31.1562 100.434 30.7246 100.646 30.3965 101.072C30.0684 101.498 29.9043 102.107 29.9043 102.9ZM36.9707 99.6602L37.0059 100.457C37.4902 99.8477 38.123 99.543 38.9043 99.543C40.2441 99.543 40.9199 100.299 40.9316 101.811V106H39.8477V101.805C39.8438 101.348 39.7383 101.01 39.5312 100.791C39.3281 100.572 39.0098 100.463 38.5762 100.463C38.2246 100.463 37.916 100.557 37.6504 100.744C37.3848 100.932 37.1777 101.178 37.0293 101.482V106H35.9453V99.6602H36.9707ZM46.2578 104.318C46.2578 104.025 46.1465 103.799 45.9238 103.639C45.7051 103.475 45.3203 103.334 44.7695 103.217C44.2227 103.1 43.7871 102.959 43.4629 102.795C43.1426 102.631 42.9043 102.436 42.748 102.209C42.5957 101.982 42.5195 101.713 42.5195 101.4C42.5195 100.881 42.7383 100.441 43.1758 100.082C43.6172 99.7227 44.1797 99.543 44.8633 99.543C45.582 99.543 46.1641 99.7285 46.6094 100.1C47.0586 100.471 47.2832 100.945 47.2832 101.523H46.1934C46.1934 101.227 46.0664 100.971 45.8125 100.756C45.5625 100.541 45.2461 100.434 44.8633 100.434C44.4688 100.434 44.1602 100.52 43.9375 100.691C43.7148 100.863 43.6035 101.088 43.6035 101.365C43.6035 101.627 43.707 101.824 43.9141 101.957C44.1211 102.09 44.4941 102.217 45.0332 102.338C45.5762 102.459 46.0156 102.604 46.3516 102.771C46.6875 102.939 46.9355 103.143 47.0957 103.381C47.2598 103.615 47.3418 103.902 47.3418 104.242C47.3418 104.809 47.1152 105.264 46.6621 105.607C46.209 105.947 45.6211 106.117 44.8984 106.117C44.3906 106.117 43.9414 106.027 43.5508 105.848C43.1602 105.668 42.8535 105.418 42.6309 105.098C42.4121 104.773 42.3027 104.424 42.3027 104.049H43.3867C43.4062 104.412 43.5508 104.701 43.8203 104.916C44.0938 105.127 44.4531 105.232 44.8984 105.232C45.3086 105.232 45.6367 105.15 45.8828 104.986C46.1328 104.818 46.2578 104.596 46.2578 104.318ZM50.2246 98.125V99.6602H51.4082V100.498H50.2246V104.43C50.2246 104.684 50.2773 104.875 50.3828 105.004C50.4883 105.129 50.668 105.191 50.9219 105.191C51.0469 105.191 51.2188 105.168 51.4375 105.121V106C51.1523 106.078 50.875 106.117 50.6055 106.117C50.1211 106.117 49.7559 105.971 49.5098 105.678C49.2637 105.385 49.1406 104.969 49.1406 104.43V100.498H47.9863V99.6602H49.1406V98.125H50.2246Z" fill="black"/>
<rect x="17.5" y="90.5" width="39" height="24" rx="3.5" stroke="#FF1818"/>
<path d="M156.777 101.23H151.891V100.287H156.777V101.23ZM156.777 103.662H151.891V102.725H156.777V103.662Z" fill="black"/>
<rect x="147.5" y="90.5" width="13" height="24" rx="3.5" stroke="#7D1DF7"/>
<path d="M65.8398 20.6602L65.8691 21.3633C66.334 20.8164 66.9609 20.543 67.75 20.543C68.6367 20.543 69.2402 20.8828 69.5605 21.5625C69.7715 21.2578 70.0449 21.0117 70.3809 20.8242C70.7207 20.6367 71.1211 20.543 71.582 20.543C72.9727 20.543 73.6797 21.2793 73.7031 22.752V27H72.6191V22.8164C72.6191 22.3633 72.5156 22.0254 72.3086 21.8027C72.1016 21.5762 71.7539 21.4629 71.2656 21.4629C70.8633 21.4629 70.5293 21.584 70.2637 21.8262C69.998 22.0645 69.8438 22.3867 69.8008 22.793V27H68.7109V22.8457C68.7109 21.9238 68.2598 21.4629 67.3574 21.4629C66.6465 21.4629 66.1602 21.7656 65.8984 22.3711V27H64.8145V20.6602H65.8398ZM79.2578 27C79.1953 26.875 79.1445 26.6523 79.1055 26.332C78.6016 26.8555 78 27.1172 77.3008 27.1172C76.6758 27.1172 76.1621 26.9414 75.7598 26.5898C75.3613 26.2344 75.1621 25.7852 75.1621 25.2422C75.1621 24.582 75.4121 24.0703 75.9121 23.707C76.416 23.3398 77.123 23.1562 78.0332 23.1562H79.0879V22.6582C79.0879 22.2793 78.9746 21.9785 78.748 21.7559C78.5215 21.5293 78.1875 21.416 77.7461 21.416C77.3594 21.416 77.0352 21.5137 76.7734 21.709C76.5117 21.9043 76.3809 22.1406 76.3809 22.418H75.291C75.291 22.1016 75.4023 21.7969 75.625 21.5039C75.8516 21.207 76.1562 20.9727 76.5391 20.8008C76.9258 20.6289 77.3496 20.543 77.8105 20.543C78.541 20.543 79.1133 20.7266 79.5273 21.0938C79.9414 21.457 80.1562 21.959 80.1719 22.5996V25.5176C80.1719 26.0996 80.2461 26.5625 80.3945 26.9062V27H79.2578ZM77.459 26.1738C77.7988 26.1738 78.1211 26.0859 78.4258 25.9102C78.7305 25.7344 78.9512 25.5059 79.0879 25.2246V23.9238H78.2383C76.9102 23.9238 76.2461 24.3125 76.2461 25.0898C76.2461 25.4297 76.3594 25.6953 76.5859 25.8867C76.8125 26.0781 77.1035 26.1738 77.459 26.1738ZM81.6133 23.7773C81.6133 22.7891 81.8418 22.0039 82.2988 21.4219C82.7559 20.8359 83.3613 20.543 84.1152 20.543C84.8887 20.543 85.4922 20.8164 85.9258 21.3633L85.9785 20.6602H86.9688V26.8477C86.9688 27.668 86.7246 28.3145 86.2363 28.7871C85.752 29.2598 85.0996 29.4961 84.2793 29.4961C83.8223 29.4961 83.375 29.3984 82.9375 29.2031C82.5 29.0078 82.166 28.7402 81.9355 28.4004L82.498 27.75C82.9629 28.3242 83.5312 28.6113 84.2031 28.6113C84.7305 28.6113 85.1406 28.4629 85.4336 28.166C85.7305 27.8691 85.8789 27.4512 85.8789 26.9121V26.3672C85.4453 26.8672 84.8535 27.1172 84.1035 27.1172C83.3613 27.1172 82.7598 26.8184 82.2988 26.2207C81.8418 25.623 81.6133 24.8086 81.6133 23.7773ZM82.7031 23.9004C82.7031 24.6152 82.8496 25.1777 83.1426 25.5879C83.4355 25.9941 83.8457 26.1973 84.373 26.1973C85.0566 26.1973 85.5586 25.8867 85.8789 25.2656V22.3711C85.5469 21.7656 85.0488 21.4629 84.3848 21.4629C83.8574 21.4629 83.4453 21.668 83.1484 22.0781C82.8516 22.4883 82.7031 23.0957 82.7031 23.9004ZM89.7871 27H88.7031V20.6602H89.7871V27ZM88.6152 18.9785C88.6152 18.8027 88.668 18.6543 88.7734 18.5332C88.8828 18.4121 89.043 18.3516 89.2539 18.3516C89.4648 18.3516 89.625 18.4121 89.7344 18.5332C89.8438 18.6543 89.8984 18.8027 89.8984 18.9785C89.8984 19.1543 89.8438 19.3008 89.7344 19.418C89.625 19.5352 89.4648 19.5938 89.2539 19.5938C89.043 19.5938 88.8828 19.5352 88.7734 19.418C88.668 19.3008 88.6152 19.1543 88.6152 18.9785ZM94.0703 26.2324C94.457 26.2324 94.7949 26.1152 95.084 25.8809C95.373 25.6465 95.5332 25.3535 95.5645 25.002H96.5898C96.5703 25.3652 96.4453 25.7109 96.2148 26.0391C95.9844 26.3672 95.6758 26.6289 95.2891 26.8242C94.9062 27.0195 94.5 27.1172 94.0703 27.1172C93.207 27.1172 92.5195 26.8301 92.0078 26.2559C91.5 25.6777 91.2461 24.8887 91.2461 23.8887V23.707C91.2461 23.0898 91.3594 22.541 91.5859 22.0605C91.8125 21.5801 92.1367 21.207 92.5586 20.9414C92.9844 20.6758 93.4863 20.543 94.0645 20.543C94.7754 20.543 95.3652 20.7559 95.834 21.1816C96.3066 21.6074 96.5586 22.1602 96.5898 22.8398H95.5645C95.5332 22.4297 95.377 22.0938 95.0957 21.832C94.8184 21.5664 94.4746 21.4336 94.0645 21.4336C93.5137 21.4336 93.0859 21.6328 92.7812 22.0312C92.4805 22.4258 92.3301 22.998 92.3301 23.748V23.9531C92.3301 24.6836 92.4805 25.2461 92.7812 25.6406C93.082 26.0352 93.5117 26.2324 94.0703 26.2324ZM104.535 27H103.404L99.1094 20.4258V27H97.9785V18.4688H99.1094L103.416 25.0723V18.4688H104.535V27ZM110.277 26.373C109.855 26.8691 109.236 27.1172 108.42 27.1172C107.744 27.1172 107.229 26.9219 106.873 26.5312C106.521 26.1367 106.344 25.5547 106.34 24.7852V20.6602H107.424V24.7559C107.424 25.7168 107.814 26.1973 108.596 26.1973C109.424 26.1973 109.975 25.8887 110.248 25.2715V20.6602H111.332V27H110.301L110.277 26.373ZM114.004 20.6602L114.033 21.3633C114.498 20.8164 115.125 20.543 115.914 20.543C116.801 20.543 117.404 20.8828 117.725 21.5625C117.936 21.2578 118.209 21.0117 118.545 20.8242C118.885 20.6367 119.285 20.543 119.746 20.543C121.137 20.543 121.844 21.2793 121.867 22.752V27H120.783V22.8164C120.783 22.3633 120.68 22.0254 120.473 21.8027C120.266 21.5762 119.918 21.4629 119.43 21.4629C119.027 21.4629 118.693 21.584 118.428 21.8262C118.162 22.0645 118.008 22.3867 117.965 22.793V27H116.875V22.8457C116.875 21.9238 116.424 21.4629 115.521 21.4629C114.811 21.4629 114.324 21.7656 114.062 22.3711V27H112.979V20.6602H114.004ZM128.875 23.9004C128.875 24.8691 128.652 25.6484 128.207 26.2383C127.762 26.8242 127.164 27.1172 126.414 27.1172C125.613 27.1172 124.994 26.834 124.557 26.2676L124.504 27H123.508V18H124.592V21.3574C125.029 20.8145 125.633 20.543 126.402 20.543C127.172 20.543 127.775 20.834 128.213 21.416C128.654 21.998 128.875 22.7949 128.875 23.8066V23.9004ZM127.791 23.7773C127.791 23.0391 127.648 22.4688 127.363 22.0664C127.078 21.6641 126.668 21.4629 126.133 21.4629C125.418 21.4629 124.904 21.7949 124.592 22.459V25.2012C124.924 25.8652 125.441 26.1973 126.145 26.1973C126.664 26.1973 127.068 25.9961 127.357 25.5938C127.646 25.1914 127.791 24.5859 127.791 23.7773ZM132.877 27.1172C132.018 27.1172 131.318 26.8359 130.779 26.2734C130.24 25.707 129.971 24.9512 129.971 24.0059V23.8066C129.971 23.1777 130.09 22.6172 130.328 22.125C130.57 21.6289 130.906 21.2422 131.336 20.9648C131.77 20.6836 132.238 20.543 132.742 20.543C133.566 20.543 134.207 20.8145 134.664 21.3574C135.121 21.9004 135.35 22.6777 135.35 23.6895V24.1406H131.055C131.07 24.7656 131.252 25.2715 131.6 25.6582C131.951 26.041 132.396 26.2324 132.936 26.2324C133.318 26.2324 133.643 26.1543 133.908 25.998C134.174 25.8418 134.406 25.6348 134.605 25.377L135.268 25.8926C134.736 26.709 133.939 27.1172 132.877 27.1172ZM132.742 21.4336C132.305 21.4336 131.938 21.5938 131.641 21.9141C131.344 22.2305 131.16 22.6758 131.09 23.25H134.266V23.168C134.234 22.6172 134.086 22.1914 133.82 21.8906C133.555 21.5859 133.195 21.4336 132.742 21.4336ZM139.674 21.6328C139.51 21.6055 139.332 21.5918 139.141 21.5918C138.43 21.5918 137.947 21.8945 137.693 22.5V27H136.609V20.6602H137.664L137.682 21.3926C138.037 20.8262 138.541 20.543 139.193 20.543C139.404 20.543 139.564 20.5703 139.674 20.625V21.6328Z" fill="black"/>
<path d="M173.271 27H172.182V19.7754L169.996 20.5781V19.5938L173.102 18.4277H173.271V27ZM181.621 20.6953C181.621 21.1211 181.508 21.5 181.281 21.832C181.059 22.1641 180.756 22.4238 180.373 22.6113C180.818 22.8027 181.17 23.082 181.428 23.4492C181.689 23.8164 181.82 24.2324 181.82 24.6973C181.82 25.4355 181.57 26.0234 181.07 26.4609C180.574 26.8984 179.92 27.1172 179.107 27.1172C178.287 27.1172 177.629 26.8984 177.133 26.4609C176.641 26.0195 176.395 25.4316 176.395 24.6973C176.395 24.2363 176.52 23.8203 176.77 23.4492C177.023 23.0781 177.373 22.7969 177.818 22.6055C177.439 22.418 177.141 22.1582 176.922 21.8262C176.703 21.4941 176.594 21.1172 176.594 20.6953C176.594 19.9766 176.824 19.4062 177.285 18.9844C177.746 18.5625 178.354 18.3516 179.107 18.3516C179.857 18.3516 180.463 18.5625 180.924 18.9844C181.389 19.4062 181.621 19.9766 181.621 20.6953ZM180.736 24.6738C180.736 24.1973 180.584 23.8086 180.279 23.5078C179.979 23.207 179.584 23.0566 179.096 23.0566C178.607 23.0566 178.215 23.2051 177.918 23.502C177.625 23.7988 177.479 24.1895 177.479 24.6738C177.479 25.1582 177.621 25.5391 177.906 25.8164C178.195 26.0938 178.596 26.2324 179.107 26.2324C179.615 26.2324 180.014 26.0938 180.303 25.8164C180.592 25.5352 180.736 25.1543 180.736 24.6738ZM179.107 19.2422C178.682 19.2422 178.336 19.375 178.07 19.6406C177.809 19.9023 177.678 20.2598 177.678 20.7129C177.678 21.1465 177.807 21.498 178.064 21.7676C178.326 22.0332 178.674 22.166 179.107 22.166C179.541 22.166 179.887 22.0332 180.145 21.7676C180.406 21.498 180.537 21.1465 180.537 20.7129C180.537 20.2793 180.402 19.9258 180.133 19.6523C179.863 19.3789 179.521 19.2422 179.107 19.2422ZM183.684 22.7227L184.117 18.4688H188.488V19.4707H185.037L184.779 21.7969C185.197 21.5508 185.672 21.4277 186.203 21.4277C186.98 21.4277 187.598 21.6855 188.055 22.2012C188.512 22.7129 188.74 23.4062 188.74 24.2812C188.74 25.1602 188.502 25.8535 188.025 26.3613C187.553 26.8652 186.891 27.1172 186.039 27.1172C185.285 27.1172 184.67 26.9082 184.193 26.4902C183.717 26.0723 183.445 25.4941 183.379 24.7559H184.404C184.471 25.2441 184.645 25.6133 184.926 25.8633C185.207 26.1094 185.578 26.2324 186.039 26.2324C186.543 26.2324 186.938 26.0605 187.223 25.7168C187.512 25.373 187.656 24.8984 187.656 24.293C187.656 23.7227 187.5 23.2656 187.188 22.9219C186.879 22.5742 186.467 22.4004 185.951 22.4004C185.479 22.4004 185.107 22.5039 184.838 22.7109L184.551 22.9453L183.684 22.7227Z" fill="black"/>
<path d="M204.65 21.2578C204.65 21.0703 204.705 20.9141 204.814 20.7891C204.928 20.6641 205.096 20.6016 205.318 20.6016C205.541 20.6016 205.709 20.6641 205.822 20.7891C205.939 20.9141 205.998 21.0703 205.998 21.2578C205.998 21.4375 205.939 21.5879 205.822 21.709C205.709 21.8301 205.541 21.8906 205.318 21.8906C205.096 21.8906 204.928 21.8301 204.814 21.709C204.705 21.5879 204.65 21.4375 204.65 21.2578ZM204.855 28.6992L204.24 28.2773C204.607 27.7656 204.799 27.2383 204.814 26.6953V25.7168H205.875V26.5664C205.875 26.9609 205.777 27.3555 205.582 27.75C205.391 28.1445 205.148 28.4609 204.855 28.6992Z" fill="black"/>
<path d="M25.3633 26.2324C25.75 26.2324 26.0879 26.1152 26.377 25.8809C26.666 25.6465 26.8262 25.3535 26.8574 25.002H27.8828C27.8633 25.3652 27.7383 25.7109 27.5078 26.0391C27.2773 26.3672 26.9688 26.6289 26.582 26.8242C26.1992 27.0195 25.793 27.1172 25.3633 27.1172C24.5 27.1172 23.8125 26.8301 23.3008 26.2559C22.793 25.6777 22.5391 24.8887 22.5391 23.8887V23.707C22.5391 23.0898 22.6523 22.541 22.8789 22.0605C23.1055 21.5801 23.4297 21.207 23.8516 20.9414C24.2773 20.6758 24.7793 20.543 25.3574 20.543C26.0684 20.543 26.6582 20.7559 27.127 21.1816C27.5996 21.6074 27.8516 22.1602 27.8828 22.8398H26.8574C26.8262 22.4297 26.6699 22.0938 26.3887 21.832C26.1113 21.5664 25.7676 21.4336 25.3574 21.4336C24.8066 21.4336 24.3789 21.6328 24.0742 22.0312C23.7734 22.4258 23.623 22.998 23.623 23.748V23.9531C23.623 24.6836 23.7734 25.2461 24.0742 25.6406C24.375 26.0352 24.8047 26.2324 25.3633 26.2324ZM28.8145 23.7715C28.8145 23.1504 28.9355 22.5918 29.1777 22.0957C29.4238 21.5996 29.7637 21.2168 30.1973 20.9473C30.6348 20.6777 31.1328 20.543 31.6914 20.543C32.5547 20.543 33.252 20.8418 33.7832 21.4395C34.3184 22.0371 34.5859 22.832 34.5859 23.8242V23.9004C34.5859 24.5176 34.4668 25.0723 34.2285 25.5645C33.9941 26.0527 33.6562 26.4336 33.2148 26.707C32.7773 26.9805 32.2734 27.1172 31.7031 27.1172C30.8438 27.1172 30.1465 26.8184 29.6113 26.2207C29.0801 25.623 28.8145 24.832 28.8145 23.8477V23.7715ZM29.9043 23.9004C29.9043 24.6035 30.0664 25.168 30.3906 25.5938C30.7188 26.0195 31.1562 26.2324 31.7031 26.2324C32.2539 26.2324 32.6914 26.0176 33.0156 25.5879C33.3398 25.1543 33.502 24.5488 33.502 23.7715C33.502 23.0762 33.3359 22.5137 33.0039 22.084C32.6758 21.6504 32.2383 21.4336 31.6914 21.4336C31.1562 21.4336 30.7246 21.6465 30.3965 22.0723C30.0684 22.498 29.9043 23.1074 29.9043 23.9004ZM36.9707 20.6602L37.0059 21.457C37.4902 20.8477 38.123 20.543 38.9043 20.543C40.2441 20.543 40.9199 21.2988 40.9316 22.8105V27H39.8477V22.8047C39.8438 22.3477 39.7383 22.0098 39.5312 21.791C39.3281 21.5723 39.0098 21.4629 38.5762 21.4629C38.2246 21.4629 37.916 21.5566 37.6504 21.7441C37.3848 21.9316 37.1777 22.1777 37.0293 22.4824V27H35.9453V20.6602H36.9707ZM46.2578 25.3184C46.2578 25.0254 46.1465 24.7988 45.9238 24.6387C45.7051 24.4746 45.3203 24.334 44.7695 24.2168C44.2227 24.0996 43.7871 23.959 43.4629 23.7949C43.1426 23.6309 42.9043 23.4355 42.748 23.209C42.5957 22.9824 42.5195 22.7129 42.5195 22.4004C42.5195 21.8809 42.7383 21.4414 43.1758 21.082C43.6172 20.7227 44.1797 20.543 44.8633 20.543C45.582 20.543 46.1641 20.7285 46.6094 21.0996C47.0586 21.4707 47.2832 21.9453 47.2832 22.5234H46.1934C46.1934 22.2266 46.0664 21.9707 45.8125 21.7559C45.5625 21.541 45.2461 21.4336 44.8633 21.4336C44.4688 21.4336 44.1602 21.5195 43.9375 21.6914C43.7148 21.8633 43.6035 22.0879 43.6035 22.3652C43.6035 22.627 43.707 22.8242 43.9141 22.957C44.1211 23.0898 44.4941 23.2168 45.0332 23.3379C45.5762 23.459 46.0156 23.6035 46.3516 23.7715C46.6875 23.9395 46.9355 24.1426 47.0957 24.3809C47.2598 24.6152 47.3418 24.9023 47.3418 25.2422C47.3418 25.8086 47.1152 26.2637 46.6621 26.6074C46.209 26.9473 45.6211 27.1172 44.8984 27.1172C44.3906 27.1172 43.9414 27.0273 43.5508 26.8477C43.1602 26.668 42.8535 26.418 42.6309 26.0977C42.4121 25.7734 42.3027 25.4238 42.3027 25.0488H43.3867C43.4062 25.4121 43.5508 25.7012 43.8203 25.916C44.0938 26.127 44.4531 26.2324 44.8984 26.2324C45.3086 26.2324 45.6367 26.1504 45.8828 25.9863C46.1328 25.8184 46.2578 25.5957 46.2578 25.3184ZM50.2246 19.125V20.6602H51.4082V21.498H50.2246V25.4297C50.2246 25.6836 50.2773 25.875 50.3828 26.0039C50.4883 26.1289 50.668 26.1914 50.9219 26.1914C51.0469 26.1914 51.2188 26.168 51.4375 26.1211V27C51.1523 27.0781 50.875 27.1172 50.6055 27.1172C50.1211 27.1172 49.7559 26.9707 49.5098 26.6777C49.2637 26.3848 49.1406 25.9688 49.1406 25.4297V21.498H47.9863V20.6602H49.1406V19.125H50.2246Z" fill="black"/>
<path d="M156.777 22.2305H151.891V21.2871H156.777V22.2305ZM156.777 24.6621H151.891V23.7246H156.777V24.6621Z" fill="black"/>
<path d="M127.578 57.0801H131.621V58H126.447V49.4688H127.578V57.0801ZM135.365 58.1172C134.506 58.1172 133.807 57.8359 133.268 57.2734C132.729 56.707 132.459 55.9512 132.459 55.0059V54.8066C132.459 54.1777 132.578 53.6172 132.816 53.125C133.059 52.6289 133.395 52.2422 133.824 51.9648C134.258 51.6836 134.727 51.543 135.23 51.543C136.055 51.543 136.695 51.8145 137.152 52.3574C137.609 52.9004 137.838 53.6777 137.838 54.6895V55.1406H133.543C133.559 55.7656 133.74 56.2715 134.088 56.6582C134.439 57.041 134.885 57.2324 135.424 57.2324C135.807 57.2324 136.131 57.1543 136.396 56.998C136.662 56.8418 136.895 56.6348 137.094 56.377L137.756 56.8926C137.225 57.709 136.428 58.1172 135.365 58.1172ZM135.23 52.4336C134.793 52.4336 134.426 52.5938 134.129 52.9141C133.832 53.2305 133.648 53.6758 133.578 54.25H136.754V54.168C136.723 53.6172 136.574 53.1914 136.309 52.8906C136.043 52.5859 135.684 52.4336 135.23 52.4336ZM141.225 53.9746L142.631 51.6602H143.896L141.822 54.7949L143.961 58H142.707L141.242 55.627L139.777 58H138.518L140.656 54.7949L138.582 51.6602H139.836L141.225 53.9746ZM147.564 58.1172C146.705 58.1172 146.006 57.8359 145.467 57.2734C144.928 56.707 144.658 55.9512 144.658 55.0059V54.8066C144.658 54.1777 144.777 53.6172 145.016 53.125C145.258 52.6289 145.594 52.2422 146.023 51.9648C146.457 51.6836 146.926 51.543 147.43 51.543C148.254 51.543 148.895 51.8145 149.352 52.3574C149.809 52.9004 150.037 53.6777 150.037 54.6895V55.1406H145.742C145.758 55.7656 145.939 56.2715 146.287 56.6582C146.639 57.041 147.084 57.2324 147.623 57.2324C148.006 57.2324 148.33 57.1543 148.596 56.998C148.861 56.8418 149.094 56.6348 149.293 56.377L149.955 56.8926C149.424 57.709 148.627 58.1172 147.564 58.1172ZM147.43 52.4336C146.992 52.4336 146.625 52.5938 146.328 52.9141C146.031 53.2305 145.848 53.6758 145.777 54.25H148.953V54.168C148.922 53.6172 148.773 53.1914 148.508 52.8906C148.242 52.5859 147.883 52.4336 147.43 52.4336ZM154.361 52.6328C154.197 52.6055 154.02 52.5918 153.828 52.5918C153.117 52.5918 152.635 52.8945 152.381 53.5V58H151.297V51.6602H152.352L152.369 52.3926C152.725 51.8262 153.229 51.543 153.881 51.543C154.092 51.543 154.252 51.5703 154.361 51.625V52.6328Z" fill="black"/>
</svg>
