<svg width="230" height="205" viewBox="0 0 230 205" fill="none" xmlns="http://www.w3.org/2000/svg">
<rect width="230" height="205" rx="12" fill="white"/>
<path d="M109.293 74.7071C109.683 75.0976 110.317 75.0976 110.707 74.7071L117.071 68.3431C117.462 67.9526 117.462 67.3195 117.071 66.9289C116.681 66.5384 116.047 66.5384 115.657 66.9289L110 72.5858L104.343 66.9289C103.953 66.5384 103.319 66.5384 102.929 66.9289C102.538 67.3195 102.538 67.9526 102.929 68.3431L109.293 74.7071ZM109 43V74H111V43H109Z" fill="black"/>
<rect x="44.25" y="135.25" width="9.5" height="9.5" rx="1.75" fill="#FF1818" stroke="black" stroke-width="0.5"/>
<path d="M61.8438 141.195C61.7734 141.797 61.5508 142.262 61.1758 142.59C60.8034 142.915 60.3073 143.078 59.6875 143.078C59.0156 143.078 58.4766 142.837 58.0703 142.355C57.6667 141.874 57.4648 141.229 57.4648 140.422V139.875C57.4648 139.346 57.5586 138.882 57.7461 138.48C57.9362 138.079 58.2044 137.772 58.5508 137.559C58.8971 137.342 59.2982 137.234 59.7539 137.234C60.3581 137.234 60.8424 137.404 61.207 137.742C61.5716 138.078 61.7839 138.544 61.8438 139.141H61.0898C61.0247 138.688 60.8828 138.359 60.6641 138.156C60.4479 137.953 60.1445 137.852 59.7539 137.852C59.2747 137.852 58.8984 138.029 58.625 138.383C58.3542 138.737 58.2188 139.241 58.2188 139.895V140.445C58.2188 141.062 58.3477 141.553 58.6055 141.918C58.8633 142.283 59.224 142.465 59.6875 142.465C60.1042 142.465 60.4232 142.371 60.6445 142.184C60.8685 141.993 61.0169 141.664 61.0898 141.195H61.8438ZM67.2461 140.34C67.2461 140.897 67.1523 141.384 66.9648 141.801C66.7773 142.215 66.5117 142.531 66.168 142.75C65.8242 142.969 65.4232 143.078 64.9648 143.078C64.5169 143.078 64.1198 142.969 63.7734 142.75C63.4271 142.529 63.1576 142.215 62.9648 141.809C62.7747 141.4 62.6771 140.927 62.6719 140.391V139.98C62.6719 139.434 62.7669 138.951 62.957 138.531C63.1471 138.112 63.4154 137.792 63.7617 137.57C64.1107 137.346 64.5091 137.234 64.957 137.234C65.4128 137.234 65.8138 137.345 66.1602 137.566C66.5091 137.785 66.7773 138.104 66.9648 138.523C67.1523 138.94 67.2461 139.426 67.2461 139.98V140.34ZM66.5 139.973C66.5 139.298 66.3646 138.781 66.0938 138.422C65.8229 138.06 65.444 137.879 64.957 137.879C64.4831 137.879 64.1094 138.06 63.8359 138.422C63.5651 138.781 63.4258 139.281 63.418 139.922V140.34C63.418 140.993 63.5547 141.508 63.8281 141.883C64.1042 142.255 64.4831 142.441 64.9648 142.441C65.4492 142.441 65.8242 142.266 66.0898 141.914C66.3555 141.56 66.4922 141.053 66.5 140.395V139.973ZM72.7422 143H71.9883L69.125 138.617V143H68.3711V137.312H69.125L71.9961 141.715V137.312H72.7422V143ZM75.75 140.465C75.1068 140.28 74.638 140.053 74.3438 139.785C74.0521 139.514 73.9062 139.181 73.9062 138.785C73.9062 138.337 74.0846 137.967 74.4414 137.676C74.8008 137.382 75.2669 137.234 75.8398 137.234C76.2305 137.234 76.5781 137.31 76.8828 137.461C77.1901 137.612 77.4271 137.82 77.5938 138.086C77.763 138.352 77.8477 138.642 77.8477 138.957H77.0938C77.0938 138.613 76.9844 138.344 76.7656 138.148C76.5469 137.951 76.2383 137.852 75.8398 137.852C75.4701 137.852 75.181 137.934 74.9727 138.098C74.7669 138.259 74.6641 138.484 74.6641 138.773C74.6641 139.005 74.7617 139.202 74.957 139.363C75.1549 139.522 75.4896 139.668 75.9609 139.801C76.4349 139.934 76.8047 140.081 77.0703 140.242C77.3385 140.401 77.5365 140.587 77.6641 140.801C77.7943 141.014 77.8594 141.266 77.8594 141.555C77.8594 142.016 77.6797 142.385 77.3203 142.664C76.9609 142.94 76.4805 143.078 75.8789 143.078C75.4883 143.078 75.1237 143.004 74.7852 142.855C74.4466 142.704 74.1849 142.499 74 142.238C73.8177 141.978 73.7266 141.682 73.7266 141.352H74.4805C74.4805 141.695 74.6068 141.967 74.8594 142.168C75.1146 142.366 75.4544 142.465 75.8789 142.465C76.2747 142.465 76.5781 142.384 76.7891 142.223C77 142.061 77.1055 141.841 77.1055 141.562C77.1055 141.284 77.0078 141.069 76.8125 140.918C76.6172 140.764 76.263 140.613 75.75 140.465ZM82.7539 137.93H80.9258V143H80.1797V137.93H78.3555V137.312H82.7539V137.93ZM86.5312 143.59H82.9531V143H86.5312V143.59ZM88.6523 140.355L87.957 141.078V143H87.207V137.312H87.957V140.125L90.4844 137.312H91.3906L89.1523 139.824L91.5664 143H90.668L88.6523 140.355ZM95.4375 140.371H92.9727V142.387H95.8359V143H92.2227V137.312H95.7969V137.93H92.9727V139.758H95.4375V140.371ZM98.5039 140.168L99.9883 137.312H100.84L98.8789 140.879V143H98.1289V140.879L96.168 137.312H97.0273L98.5039 140.168ZM102.871 141.207L102.98 141.957L103.141 141.281L104.266 137.312H104.898L105.996 141.281L106.152 141.969L106.273 141.203L107.156 137.312H107.91L106.531 143H105.848L104.676 138.855L104.586 138.422L104.496 138.855L103.281 143H102.598L101.223 137.312H101.973L102.871 141.207ZM113.121 140.34C113.121 140.897 113.027 141.384 112.84 141.801C112.652 142.215 112.387 142.531 112.043 142.75C111.699 142.969 111.298 143.078 110.84 143.078C110.392 143.078 109.995 142.969 109.648 142.75C109.302 142.529 109.033 142.215 108.84 141.809C108.65 141.4 108.552 140.927 108.547 140.391V139.98C108.547 139.434 108.642 138.951 108.832 138.531C109.022 138.112 109.29 137.792 109.637 137.57C109.986 137.346 110.384 137.234 110.832 137.234C111.288 137.234 111.689 137.345 112.035 137.566C112.384 137.785 112.652 138.104 112.84 138.523C113.027 138.94 113.121 139.426 113.121 139.98V140.34ZM112.375 139.973C112.375 139.298 112.24 138.781 111.969 138.422C111.698 138.06 111.319 137.879 110.832 137.879C110.358 137.879 109.984 138.06 109.711 138.422C109.44 138.781 109.301 139.281 109.293 139.922V140.34C109.293 140.993 109.43 141.508 109.703 141.883C109.979 142.255 110.358 142.441 110.84 142.441C111.324 142.441 111.699 142.266 111.965 141.914C112.23 141.56 112.367 141.053 112.375 140.395V139.973ZM116.332 140.699H114.996V143H114.242V137.312H116.125C116.766 137.312 117.258 137.458 117.602 137.75C117.948 138.042 118.121 138.466 118.121 139.023C118.121 139.378 118.025 139.686 117.832 139.949C117.642 140.212 117.376 140.409 117.035 140.539L118.371 142.953V143H117.566L116.332 140.699ZM114.996 140.086H116.148C116.521 140.086 116.816 139.99 117.035 139.797C117.257 139.604 117.367 139.346 117.367 139.023C117.367 138.672 117.262 138.402 117.051 138.215C116.842 138.027 116.54 137.932 116.145 137.93H114.996V140.086ZM119.176 143V137.312H120.781C121.276 137.312 121.714 137.422 122.094 137.641C122.474 137.859 122.767 138.171 122.973 138.574C123.181 138.978 123.286 139.441 123.289 139.965V140.328C123.289 140.865 123.185 141.335 122.977 141.738C122.771 142.142 122.475 142.452 122.09 142.668C121.707 142.884 121.26 142.995 120.75 143H119.176ZM119.926 137.93V142.387H120.715C121.293 142.387 121.742 142.207 122.062 141.848C122.385 141.488 122.547 140.977 122.547 140.312V139.98C122.547 139.335 122.395 138.833 122.09 138.477C121.788 138.117 121.358 137.935 120.801 137.93H119.926Z" fill="black"/>
<rect x="44.25" y="153.25" width="9.5" height="9.5" rx="1.75" fill="#7D1DF6" stroke="black" stroke-width="0.5"/>
<path d="M60.8008 159.516H58.418L57.8828 161H57.1094L59.2812 155.312H59.9375L62.1133 161H61.3438L60.8008 159.516ZM58.6445 158.898H60.5781L59.6094 156.238L58.6445 158.898ZM64.5547 158.465C63.9115 158.28 63.4427 158.053 63.1484 157.785C62.8568 157.514 62.7109 157.181 62.7109 156.785C62.7109 156.337 62.8893 155.967 63.2461 155.676C63.6055 155.382 64.0716 155.234 64.6445 155.234C65.0352 155.234 65.3828 155.31 65.6875 155.461C65.9948 155.612 66.2318 155.82 66.3984 156.086C66.5677 156.352 66.6523 156.642 66.6523 156.957H65.8984C65.8984 156.613 65.7891 156.344 65.5703 156.148C65.3516 155.951 65.043 155.852 64.6445 155.852C64.2747 155.852 63.9857 155.934 63.7773 156.098C63.5716 156.259 63.4688 156.484 63.4688 156.773C63.4688 157.005 63.5664 157.202 63.7617 157.363C63.9596 157.522 64.2943 157.668 64.7656 157.801C65.2396 157.934 65.6094 158.081 65.875 158.242C66.1432 158.401 66.3411 158.587 66.4688 158.801C66.599 159.014 66.6641 159.266 66.6641 159.555C66.6641 160.016 66.4844 160.385 66.125 160.664C65.7656 160.94 65.2852 161.078 64.6836 161.078C64.293 161.078 63.9284 161.004 63.5898 160.855C63.2513 160.704 62.9896 160.499 62.8047 160.238C62.6224 159.978 62.5312 159.682 62.5312 159.352H63.2852C63.2852 159.695 63.4115 159.967 63.6641 160.168C63.9193 160.366 64.2591 160.465 64.6836 160.465C65.0794 160.465 65.3828 160.384 65.5938 160.223C65.8047 160.061 65.9102 159.841 65.9102 159.562C65.9102 159.284 65.8125 159.069 65.6172 158.918C65.4219 158.764 65.0677 158.613 64.5547 158.465ZM69.3047 158.465C68.6615 158.28 68.1927 158.053 67.8984 157.785C67.6068 157.514 67.4609 157.181 67.4609 156.785C67.4609 156.337 67.6393 155.967 67.9961 155.676C68.3555 155.382 68.8216 155.234 69.3945 155.234C69.7852 155.234 70.1328 155.31 70.4375 155.461C70.7448 155.612 70.9818 155.82 71.1484 156.086C71.3177 156.352 71.4023 156.642 71.4023 156.957H70.6484C70.6484 156.613 70.5391 156.344 70.3203 156.148C70.1016 155.951 69.793 155.852 69.3945 155.852C69.0247 155.852 68.7357 155.934 68.5273 156.098C68.3216 156.259 68.2188 156.484 68.2188 156.773C68.2188 157.005 68.3164 157.202 68.5117 157.363C68.7096 157.522 69.0443 157.668 69.5156 157.801C69.9896 157.934 70.3594 158.081 70.625 158.242C70.8932 158.401 71.0911 158.587 71.2188 158.801C71.349 159.014 71.4141 159.266 71.4141 159.555C71.4141 160.016 71.2344 160.385 70.875 160.664C70.5156 160.94 70.0352 161.078 69.4336 161.078C69.043 161.078 68.6784 161.004 68.3398 160.855C68.0013 160.704 67.7396 160.499 67.5547 160.238C67.3724 159.978 67.2812 159.682 67.2812 159.352H68.0352C68.0352 159.695 68.1615 159.967 68.4141 160.168C68.6693 160.366 69.0091 160.465 69.4336 160.465C69.8294 160.465 70.1328 160.384 70.3438 160.223C70.5547 160.061 70.6602 159.841 70.6602 159.562C70.6602 159.284 70.5625 159.069 70.3672 158.918C70.1719 158.764 69.8177 158.613 69.3047 158.465ZM73.1836 161H72.4336V155.312H73.1836V161ZM78.7578 160.254C78.5651 160.53 78.2956 160.737 77.9492 160.875C77.6055 161.01 77.2044 161.078 76.7461 161.078C76.2826 161.078 75.8711 160.97 75.5117 160.754C75.1523 160.535 74.8737 160.225 74.6758 159.824C74.4805 159.423 74.3802 158.958 74.375 158.43V157.934C74.375 157.077 74.5742 156.413 74.9727 155.941C75.3737 155.47 75.9362 155.234 76.6602 155.234C77.2539 155.234 77.7318 155.387 78.0938 155.691C78.4557 155.993 78.6771 156.423 78.7578 156.98H78.0078C77.8672 156.228 77.4193 155.852 76.6641 155.852C76.1615 155.852 75.7799 156.029 75.5195 156.383C75.2617 156.734 75.1315 157.245 75.1289 157.914V158.379C75.1289 159.017 75.2747 159.525 75.5664 159.902C75.8581 160.277 76.2526 160.465 76.75 160.465C77.0312 160.465 77.2773 160.434 77.4883 160.371C77.6992 160.309 77.8737 160.203 78.0117 160.055V158.777H76.6953V158.168H78.7578V160.254ZM84.3828 161H83.6289L80.7656 156.617V161H80.0117V155.312H80.7656L83.6367 159.715V155.312H84.3828V161Z" fill="black"/>
<rect x="44.25" y="171.25" width="9.5" height="9.5" rx="1.75" fill="#DFAB46" stroke="black" stroke-width="0.5"/>
<path d="M59.3359 176.465C58.6927 176.28 58.224 176.053 57.9297 175.785C57.638 175.514 57.4922 175.181 57.4922 174.785C57.4922 174.337 57.6706 173.967 58.0273 173.676C58.3867 173.382 58.8529 173.234 59.4258 173.234C59.8164 173.234 60.1641 173.31 60.4688 173.461C60.776 173.612 61.013 173.82 61.1797 174.086C61.349 174.352 61.4336 174.642 61.4336 174.957H60.6797C60.6797 174.613 60.5703 174.344 60.3516 174.148C60.1328 173.951 59.8242 173.852 59.4258 173.852C59.056 173.852 58.7669 173.934 58.5586 174.098C58.3529 174.259 58.25 174.484 58.25 174.773C58.25 175.005 58.3477 175.202 58.543 175.363C58.7409 175.522 59.0755 175.668 59.5469 175.801C60.0208 175.934 60.3906 176.081 60.6562 176.242C60.9245 176.401 61.1224 176.587 61.25 176.801C61.3802 177.014 61.4453 177.266 61.4453 177.555C61.4453 178.016 61.2656 178.385 60.9062 178.664C60.5469 178.94 60.0664 179.078 59.4648 179.078C59.0742 179.078 58.7096 179.004 58.3711 178.855C58.0326 178.704 57.7708 178.499 57.5859 178.238C57.4036 177.978 57.3125 177.682 57.3125 177.352H58.0664C58.0664 177.695 58.1927 177.967 58.4453 178.168C58.7005 178.366 59.0404 178.465 59.4648 178.465C59.8607 178.465 60.1641 178.384 60.375 178.223C60.5859 178.061 60.6914 177.841 60.6914 177.562C60.6914 177.284 60.5938 177.069 60.3984 176.918C60.2031 176.764 59.849 176.613 59.3359 176.465ZM65.625 176.371H63.1602V178.387H66.0234V179H62.4102V173.312H65.9844V173.93H63.1602V175.758H65.625V176.371ZM67.9258 173.312L69.7852 177.953L71.6445 173.312H72.6172V179H71.8672V176.785L71.9375 174.395L70.0703 179H69.4961L67.6328 174.406L67.707 176.785V179H66.957V173.312H67.9258ZM74.7461 179H73.9961V173.312H74.7461V179ZM80.3047 177.195C80.2344 177.797 80.0117 178.262 79.6367 178.59C79.2643 178.915 78.7682 179.078 78.1484 179.078C77.4766 179.078 76.9375 178.837 76.5312 178.355C76.1276 177.874 75.9258 177.229 75.9258 176.422V175.875C75.9258 175.346 76.0195 174.882 76.207 174.48C76.3971 174.079 76.6654 173.772 77.0117 173.559C77.3581 173.342 77.7591 173.234 78.2148 173.234C78.819 173.234 79.3034 173.404 79.668 173.742C80.0326 174.078 80.2448 174.544 80.3047 175.141H79.5508C79.4857 174.688 79.3438 174.359 79.125 174.156C78.9089 173.953 78.6055 173.852 78.2148 173.852C77.7357 173.852 77.3594 174.029 77.0859 174.383C76.8151 174.737 76.6797 175.241 76.6797 175.895V176.445C76.6797 177.062 76.8086 177.553 77.0664 177.918C77.3242 178.283 77.6849 178.465 78.1484 178.465C78.5651 178.465 78.8841 178.371 79.1055 178.184C79.3294 177.993 79.4779 177.664 79.5508 177.195H80.3047ZM85.707 176.34C85.707 176.897 85.6133 177.384 85.4258 177.801C85.2383 178.215 84.9727 178.531 84.6289 178.75C84.2852 178.969 83.8841 179.078 83.4258 179.078C82.9779 179.078 82.5807 178.969 82.2344 178.75C81.888 178.529 81.6185 178.215 81.4258 177.809C81.2357 177.4 81.138 176.927 81.1328 176.391V175.98C81.1328 175.434 81.2279 174.951 81.418 174.531C81.6081 174.112 81.8763 173.792 82.2227 173.57C82.5716 173.346 82.9701 173.234 83.418 173.234C83.8737 173.234 84.2747 173.345 84.6211 173.566C84.9701 173.785 85.2383 174.104 85.4258 174.523C85.6133 174.94 85.707 175.426 85.707 175.98V176.34ZM84.9609 175.973C84.9609 175.298 84.8255 174.781 84.5547 174.422C84.2839 174.06 83.9049 173.879 83.418 173.879C82.944 173.879 82.5703 174.06 82.2969 174.422C82.026 174.781 81.8867 175.281 81.8789 175.922V176.34C81.8789 176.993 82.0156 177.508 82.2891 177.883C82.5651 178.255 82.944 178.441 83.4258 178.441C83.9102 178.441 84.2852 178.266 84.5508 177.914C84.8164 177.56 84.9531 177.053 84.9609 176.395V175.973ZM87.5859 178.387H90.2812V179H86.832V173.312H87.5859V178.387Z" fill="black"/>
<rect x="132.25" y="135.25" width="9.5" height="9.5" rx="1.75" fill="#188A53" stroke="black" stroke-width="0.5"/>
<path d="M146.465 143H145.715V137.312H146.465V143ZM147.84 143V137.312H149.445C149.94 137.312 150.378 137.422 150.758 137.641C151.138 137.859 151.431 138.171 151.637 138.574C151.845 138.978 151.951 139.441 151.953 139.965V140.328C151.953 140.865 151.849 141.335 151.641 141.738C151.435 142.142 151.139 142.452 150.754 142.668C150.371 142.884 149.924 142.995 149.414 143H147.84ZM148.59 137.93V142.387H149.379C149.957 142.387 150.406 142.207 150.727 141.848C151.049 141.488 151.211 140.977 151.211 140.312V139.98C151.211 139.335 151.059 138.833 150.754 138.477C150.452 138.117 150.022 137.935 149.465 137.93H148.59ZM156.305 140.371H153.84V142.387H156.703V143H153.09V137.312H156.664V137.93H153.84V139.758H156.305V140.371ZM162.008 143H161.254L158.391 138.617V143H157.637V137.312H158.391L161.262 141.715V137.312H162.008V143ZM167.152 137.93H165.324V143H164.578V137.93H162.754V137.312H167.152V137.93ZM168.801 143H168.051V137.312H168.801V143ZM173.312 140.488H170.926V143H170.176V137.312H173.699V137.93H170.926V139.875H173.312V140.488ZM175.402 143H174.652V137.312H175.402V143ZM179.992 140.371H177.527V142.387H180.391V143H176.777V137.312H180.352V137.93H177.527V139.758H179.992V140.371ZM183.41 140.699H182.074V143H181.32V137.312H183.203C183.844 137.312 184.336 137.458 184.68 137.75C185.026 138.042 185.199 138.466 185.199 139.023C185.199 139.378 185.103 139.686 184.91 139.949C184.72 140.212 184.454 140.409 184.113 140.539L185.449 142.953V143H184.645L183.41 140.699ZM182.074 140.086H183.227C183.599 140.086 183.895 139.99 184.113 139.797C184.335 139.604 184.445 139.346 184.445 139.023C184.445 138.672 184.34 138.402 184.129 138.215C183.921 138.027 183.618 137.932 183.223 137.93H182.074V140.086Z" fill="black"/>
<rect x="94.25" y="153.25" width="9.5" height="9.5" rx="1.75" fill="#1B68DD" stroke="black" stroke-width="0.5"/>
<path d="M108.465 161H107.715V155.312H108.465V161ZM114.211 161H113.457L110.594 156.617V161H109.84V155.312H110.594L113.465 159.715V155.312H114.211V161ZM119.355 155.93H117.527V161H116.781V155.93H114.957V155.312H119.355V155.93ZM123.414 158.371H120.949V160.387H123.812V161H120.199V155.312H123.773V155.93H120.949V157.758H123.414V158.371ZM128.945 160.254C128.753 160.53 128.483 160.737 128.137 160.875C127.793 161.01 127.392 161.078 126.934 161.078C126.47 161.078 126.059 160.97 125.699 160.754C125.34 160.535 125.061 160.225 124.863 159.824C124.668 159.423 124.568 158.958 124.562 158.43V157.934C124.562 157.077 124.762 156.413 125.16 155.941C125.561 155.47 126.124 155.234 126.848 155.234C127.441 155.234 127.919 155.387 128.281 155.691C128.643 155.993 128.865 156.423 128.945 156.98H128.195C128.055 156.228 127.607 155.852 126.852 155.852C126.349 155.852 125.967 156.029 125.707 156.383C125.449 156.734 125.319 157.245 125.316 157.914V158.379C125.316 159.017 125.462 159.525 125.754 159.902C126.046 160.277 126.44 160.465 126.938 160.465C127.219 160.465 127.465 160.434 127.676 160.371C127.887 160.309 128.061 160.203 128.199 160.055V158.777H126.883V158.168H128.945V160.254ZM133.414 158.371H130.949V160.387H133.812V161H130.199V155.312H133.773V155.93H130.949V157.758H133.414V158.371ZM136.832 158.699H135.496V161H134.742V155.312H136.625C137.266 155.312 137.758 155.458 138.102 155.75C138.448 156.042 138.621 156.466 138.621 157.023C138.621 157.378 138.525 157.686 138.332 157.949C138.142 158.212 137.876 158.409 137.535 158.539L138.871 160.953V161H138.066L136.832 158.699ZM135.496 158.086H136.648C137.021 158.086 137.316 157.99 137.535 157.797C137.757 157.604 137.867 157.346 137.867 157.023C137.867 156.672 137.762 156.402 137.551 156.215C137.342 156.027 137.04 155.932 136.645 155.93H135.496V158.086Z" fill="black"/>
<path d="M56.8398 99.6602L56.8691 100.363C57.334 99.8164 57.9609 99.543 58.75 99.543C59.6367 99.543 60.2402 99.8828 60.5605 100.562C60.7715 100.258 61.0449 100.012 61.3809 99.8242C61.7207 99.6367 62.1211 99.543 62.582 99.543C63.9727 99.543 64.6797 100.279 64.7031 101.752V106H63.6191V101.816C63.6191 101.363 63.5156 101.025 63.3086 100.803C63.1016 100.576 62.7539 100.463 62.2656 100.463C61.8633 100.463 61.5293 100.584 61.2637 100.826C60.998 101.064 60.8438 101.387 60.8008 101.793V106H59.7109V101.846C59.7109 100.924 59.2598 100.463 58.3574 100.463C57.6465 100.463 57.1602 100.766 56.8984 101.371V106H55.8145V99.6602H56.8398ZM70.2578 106C70.1953 105.875 70.1445 105.652 70.1055 105.332C69.6016 105.855 69 106.117 68.3008 106.117C67.6758 106.117 67.1621 105.941 66.7598 105.59C66.3613 105.234 66.1621 104.785 66.1621 104.242C66.1621 103.582 66.4121 103.07 66.9121 102.707C67.416 102.34 68.123 102.156 69.0332 102.156H70.0879V101.658C70.0879 101.279 69.9746 100.979 69.748 100.756C69.5215 100.529 69.1875 100.416 68.7461 100.416C68.3594 100.416 68.0352 100.514 67.7734 100.709C67.5117 100.904 67.3809 101.141 67.3809 101.418H66.291C66.291 101.102 66.4023 100.797 66.625 100.504C66.8516 100.207 67.1562 99.9727 67.5391 99.8008C67.9258 99.6289 68.3496 99.543 68.8105 99.543C69.541 99.543 70.1133 99.7266 70.5273 100.094C70.9414 100.457 71.1562 100.959 71.1719 101.6V104.518C71.1719 105.1 71.2461 105.562 71.3945 105.906V106H70.2578ZM68.459 105.174C68.7988 105.174 69.1211 105.086 69.4258 104.91C69.7305 104.734 69.9512 104.506 70.0879 104.225V102.924H69.2383C67.9102 102.924 67.2461 103.312 67.2461 104.09C67.2461 104.43 67.3594 104.695 67.5859 104.887C67.8125 105.078 68.1035 105.174 68.459 105.174ZM72.6133 102.777C72.6133 101.789 72.8418 101.004 73.2988 100.422C73.7559 99.8359 74.3613 99.543 75.1152 99.543C75.8887 99.543 76.4922 99.8164 76.9258 100.363L76.9785 99.6602H77.9688V105.848C77.9688 106.668 77.7246 107.314 77.2363 107.787C76.752 108.26 76.0996 108.496 75.2793 108.496C74.8223 108.496 74.375 108.398 73.9375 108.203C73.5 108.008 73.166 107.74 72.9355 107.4L73.498 106.75C73.9629 107.324 74.5312 107.611 75.2031 107.611C75.7305 107.611 76.1406 107.463 76.4336 107.166C76.7305 106.869 76.8789 106.451 76.8789 105.912V105.367C76.4453 105.867 75.8535 106.117 75.1035 106.117C74.3613 106.117 73.7598 105.818 73.2988 105.221C72.8418 104.623 72.6133 103.809 72.6133 102.777ZM73.7031 102.9C73.7031 103.615 73.8496 104.178 74.1426 104.588C74.4355 104.994 74.8457 105.197 75.373 105.197C76.0566 105.197 76.5586 104.887 76.8789 104.266V101.371C76.5469 100.766 76.0488 100.463 75.3848 100.463C74.8574 100.463 74.4453 100.668 74.1484 101.078C73.8516 101.488 73.7031 102.096 73.7031 102.9ZM80.7871 106H79.7031V99.6602H80.7871V106ZM79.6152 97.9785C79.6152 97.8027 79.668 97.6543 79.7734 97.5332C79.8828 97.4121 80.043 97.3516 80.2539 97.3516C80.4648 97.3516 80.625 97.4121 80.7344 97.5332C80.8438 97.6543 80.8984 97.8027 80.8984 97.9785C80.8984 98.1543 80.8438 98.3008 80.7344 98.418C80.625 98.5352 80.4648 98.5938 80.2539 98.5938C80.043 98.5938 79.8828 98.5352 79.7734 98.418C79.668 98.3008 79.6152 98.1543 79.6152 97.9785ZM85.0703 105.232C85.457 105.232 85.7949 105.115 86.084 104.881C86.373 104.646 86.5332 104.354 86.5645 104.002H87.5898C87.5703 104.365 87.4453 104.711 87.2148 105.039C86.9844 105.367 86.6758 105.629 86.2891 105.824C85.9062 106.02 85.5 106.117 85.0703 106.117C84.207 106.117 83.5195 105.83 83.0078 105.256C82.5 104.678 82.2461 103.889 82.2461 102.889V102.707C82.2461 102.09 82.3594 101.541 82.5859 101.061C82.8125 100.58 83.1367 100.207 83.5586 99.9414C83.9844 99.6758 84.4863 99.543 85.0645 99.543C85.7754 99.543 86.3652 99.7559 86.834 100.182C87.3066 100.607 87.5586 101.16 87.5898 101.84H86.5645C86.5332 101.43 86.377 101.094 86.0957 100.832C85.8184 100.566 85.4746 100.434 85.0645 100.434C84.5137 100.434 84.0859 100.633 83.7812 101.031C83.4805 101.426 83.3301 101.998 83.3301 102.748V102.953C83.3301 103.684 83.4805 104.246 83.7812 104.641C84.082 105.035 84.5117 105.232 85.0703 105.232ZM95.5352 106H94.4043L90.1094 99.4258V106H88.9785V97.4688H90.1094L94.416 104.072V97.4688H95.5352V106ZM101.277 105.373C100.855 105.869 100.236 106.117 99.4199 106.117C98.7441 106.117 98.2285 105.922 97.873 105.531C97.5215 105.137 97.3438 104.555 97.3398 103.785V99.6602H98.4238V103.756C98.4238 104.717 98.8145 105.197 99.5957 105.197C100.424 105.197 100.975 104.889 101.248 104.271V99.6602H102.332V106H101.301L101.277 105.373ZM105.004 99.6602L105.033 100.363C105.498 99.8164 106.125 99.543 106.914 99.543C107.801 99.543 108.404 99.8828 108.725 100.562C108.936 100.258 109.209 100.012 109.545 99.8242C109.885 99.6367 110.285 99.543 110.746 99.543C112.137 99.543 112.844 100.279 112.867 101.752V106H111.783V101.816C111.783 101.363 111.68 101.025 111.473 100.803C111.266 100.576 110.918 100.463 110.43 100.463C110.027 100.463 109.693 100.584 109.428 100.826C109.162 101.064 109.008 101.387 108.965 101.793V106H107.875V101.846C107.875 100.924 107.424 100.463 106.521 100.463C105.811 100.463 105.324 100.766 105.062 101.371V106H103.979V99.6602H105.004ZM119.875 102.9C119.875 103.869 119.652 104.648 119.207 105.238C118.762 105.824 118.164 106.117 117.414 106.117C116.613 106.117 115.994 105.834 115.557 105.268L115.504 106H114.508V97H115.592V100.357C116.029 99.8145 116.633 99.543 117.402 99.543C118.172 99.543 118.775 99.834 119.213 100.416C119.654 100.998 119.875 101.795 119.875 102.807V102.9ZM118.791 102.777C118.791 102.039 118.648 101.469 118.363 101.066C118.078 100.664 117.668 100.463 117.133 100.463C116.418 100.463 115.904 100.795 115.592 101.459V104.201C115.924 104.865 116.441 105.197 117.145 105.197C117.664 105.197 118.068 104.996 118.357 104.594C118.646 104.191 118.791 103.586 118.791 102.777ZM123.877 106.117C123.018 106.117 122.318 105.836 121.779 105.273C121.24 104.707 120.971 103.951 120.971 103.006V102.807C120.971 102.178 121.09 101.617 121.328 101.125C121.57 100.629 121.906 100.242 122.336 99.9648C122.77 99.6836 123.238 99.543 123.742 99.543C124.566 99.543 125.207 99.8145 125.664 100.357C126.121 100.9 126.35 101.678 126.35 102.689V103.141H122.055C122.07 103.766 122.252 104.271 122.6 104.658C122.951 105.041 123.396 105.232 123.936 105.232C124.318 105.232 124.643 105.154 124.908 104.998C125.174 104.842 125.406 104.635 125.605 104.377L126.268 104.893C125.736 105.709 124.939 106.117 123.877 106.117ZM123.742 100.434C123.305 100.434 122.938 100.594 122.641 100.914C122.344 101.23 122.16 101.676 122.09 102.25H125.266V102.168C125.234 101.617 125.086 101.191 124.82 100.891C124.555 100.586 124.195 100.434 123.742 100.434ZM130.674 100.633C130.51 100.605 130.332 100.592 130.141 100.592C129.43 100.592 128.947 100.895 128.693 101.5V106H127.609V99.6602H128.664L128.682 100.393C129.037 99.8262 129.541 99.543 130.193 99.543C130.404 99.543 130.564 99.5703 130.674 99.625V100.633Z" fill="black"/>
<rect x="52.5" y="90.5" width="81" height="24" rx="3.5" stroke="#188A53"/>
<path d="M182.271 106H181.182V98.7754L178.996 99.5781V98.5938L182.102 97.4277H182.271V106ZM190.621 99.6953C190.621 100.121 190.508 100.5 190.281 100.832C190.059 101.164 189.756 101.424 189.373 101.611C189.818 101.803 190.17 102.082 190.428 102.449C190.689 102.816 190.82 103.232 190.82 103.697C190.82 104.436 190.57 105.023 190.07 105.461C189.574 105.898 188.92 106.117 188.107 106.117C187.287 106.117 186.629 105.898 186.133 105.461C185.641 105.02 185.395 104.432 185.395 103.697C185.395 103.236 185.52 102.82 185.77 102.449C186.023 102.078 186.373 101.797 186.818 101.605C186.439 101.418 186.141 101.158 185.922 100.826C185.703 100.494 185.594 100.117 185.594 99.6953C185.594 98.9766 185.824 98.4062 186.285 97.9844C186.746 97.5625 187.354 97.3516 188.107 97.3516C188.857 97.3516 189.463 97.5625 189.924 97.9844C190.389 98.4062 190.621 98.9766 190.621 99.6953ZM189.736 103.674C189.736 103.197 189.584 102.809 189.279 102.508C188.979 102.207 188.584 102.057 188.096 102.057C187.607 102.057 187.215 102.205 186.918 102.502C186.625 102.799 186.479 103.189 186.479 103.674C186.479 104.158 186.621 104.539 186.906 104.816C187.195 105.094 187.596 105.232 188.107 105.232C188.615 105.232 189.014 105.094 189.303 104.816C189.592 104.535 189.736 104.154 189.736 103.674ZM188.107 98.2422C187.682 98.2422 187.336 98.375 187.07 98.6406C186.809 98.9023 186.678 99.2598 186.678 99.7129C186.678 100.146 186.807 100.498 187.064 100.768C187.326 101.033 187.674 101.166 188.107 101.166C188.541 101.166 188.887 101.033 189.145 100.768C189.406 100.498 189.537 100.146 189.537 99.7129C189.537 99.2793 189.402 98.9258 189.133 98.6523C188.863 98.3789 188.521 98.2422 188.107 98.2422ZM192.684 101.723L193.117 97.4688H197.488V98.4707H194.037L193.779 100.797C194.197 100.551 194.672 100.428 195.203 100.428C195.98 100.428 196.598 100.686 197.055 101.201C197.512 101.713 197.74 102.406 197.74 103.281C197.74 104.16 197.502 104.854 197.025 105.361C196.553 105.865 195.891 106.117 195.039 106.117C194.285 106.117 193.67 105.908 193.193 105.49C192.717 105.072 192.445 104.494 192.379 103.756H193.404C193.471 104.244 193.645 104.613 193.926 104.863C194.207 105.109 194.578 105.232 195.039 105.232C195.543 105.232 195.938 105.061 196.223 104.717C196.512 104.373 196.656 103.898 196.656 103.293C196.656 102.723 196.5 102.266 196.188 101.922C195.879 101.574 195.467 101.4 194.951 101.4C194.479 101.4 194.107 101.504 193.838 101.711L193.551 101.945L192.684 101.723Z" fill="black"/>
<rect x="174.5" y="90.5" width="28" height="24" rx="3.5" stroke="#1B68DD"/>
<path d="M213.65 100.258C213.65 100.07 213.705 99.9141 213.814 99.7891C213.928 99.6641 214.096 99.6016 214.318 99.6016C214.541 99.6016 214.709 99.6641 214.822 99.7891C214.939 99.9141 214.998 100.07 214.998 100.258C214.998 100.438 214.939 100.588 214.822 100.709C214.709 100.83 214.541 100.891 214.318 100.891C214.096 100.891 213.928 100.83 213.814 100.709C213.705 100.588 213.65 100.438 213.65 100.258ZM213.855 107.699L213.24 107.277C213.607 106.766 213.799 106.238 213.814 105.695V104.717H214.875V105.566C214.875 105.961 214.777 106.355 214.582 106.75C214.391 107.145 214.148 107.461 213.855 107.699Z" fill="black"/>
<rect x="207.5" y="90.5" width="13" height="24" rx="3.5" stroke="#DDA71B"/>
<path d="M16.3633 105.232C16.75 105.232 17.0879 105.115 17.377 104.881C17.666 104.646 17.8262 104.354 17.8574 104.002H18.8828C18.8633 104.365 18.7383 104.711 18.5078 105.039C18.2773 105.367 17.9688 105.629 17.582 105.824C17.1992 106.02 16.793 106.117 16.3633 106.117C15.5 106.117 14.8125 105.83 14.3008 105.256C13.793 104.678 13.5391 103.889 13.5391 102.889V102.707C13.5391 102.09 13.6523 101.541 13.8789 101.061C14.1055 100.58 14.4297 100.207 14.8516 99.9414C15.2773 99.6758 15.7793 99.543 16.3574 99.543C17.0684 99.543 17.6582 99.7559 18.127 100.182C18.5996 100.607 18.8516 101.16 18.8828 101.84H17.8574C17.8262 101.43 17.6699 101.094 17.3887 100.832C17.1113 100.566 16.7676 100.434 16.3574 100.434C15.8066 100.434 15.3789 100.633 15.0742 101.031C14.7734 101.426 14.623 101.998 14.623 102.748V102.953C14.623 103.684 14.7734 104.246 15.0742 104.641C15.375 105.035 15.8047 105.232 16.3633 105.232ZM19.8145 102.771C19.8145 102.15 19.9355 101.592 20.1777 101.096C20.4238 100.6 20.7637 100.217 21.1973 99.9473C21.6348 99.6777 22.1328 99.543 22.6914 99.543C23.5547 99.543 24.252 99.8418 24.7832 100.439C25.3184 101.037 25.5859 101.832 25.5859 102.824V102.9C25.5859 103.518 25.4668 104.072 25.2285 104.564C24.9941 105.053 24.6562 105.434 24.2148 105.707C23.7773 105.98 23.2734 106.117 22.7031 106.117C21.8438 106.117 21.1465 105.818 20.6113 105.221C20.0801 104.623 19.8145 103.832 19.8145 102.848V102.771ZM20.9043 102.9C20.9043 103.604 21.0664 104.168 21.3906 104.594C21.7188 105.02 22.1562 105.232 22.7031 105.232C23.2539 105.232 23.6914 105.018 24.0156 104.588C24.3398 104.154 24.502 103.549 24.502 102.771C24.502 102.076 24.3359 101.514 24.0039 101.084C23.6758 100.65 23.2383 100.434 22.6914 100.434C22.1562 100.434 21.7246 100.646 21.3965 101.072C21.0684 101.498 20.9043 102.107 20.9043 102.9ZM27.9707 99.6602L28.0059 100.457C28.4902 99.8477 29.123 99.543 29.9043 99.543C31.2441 99.543 31.9199 100.299 31.9316 101.811V106H30.8477V101.805C30.8438 101.348 30.7383 101.01 30.5312 100.791C30.3281 100.572 30.0098 100.463 29.5762 100.463C29.2246 100.463 28.916 100.557 28.6504 100.744C28.3848 100.932 28.1777 101.178 28.0293 101.482V106H26.9453V99.6602H27.9707ZM37.2578 104.318C37.2578 104.025 37.1465 103.799 36.9238 103.639C36.7051 103.475 36.3203 103.334 35.7695 103.217C35.2227 103.1 34.7871 102.959 34.4629 102.795C34.1426 102.631 33.9043 102.436 33.748 102.209C33.5957 101.982 33.5195 101.713 33.5195 101.4C33.5195 100.881 33.7383 100.441 34.1758 100.082C34.6172 99.7227 35.1797 99.543 35.8633 99.543C36.582 99.543 37.1641 99.7285 37.6094 100.1C38.0586 100.471 38.2832 100.945 38.2832 101.523H37.1934C37.1934 101.227 37.0664 100.971 36.8125 100.756C36.5625 100.541 36.2461 100.434 35.8633 100.434C35.4688 100.434 35.1602 100.52 34.9375 100.691C34.7148 100.863 34.6035 101.088 34.6035 101.365C34.6035 101.627 34.707 101.824 34.9141 101.957C35.1211 102.09 35.4941 102.217 36.0332 102.338C36.5762 102.459 37.0156 102.604 37.3516 102.771C37.6875 102.939 37.9355 103.143 38.0957 103.381C38.2598 103.615 38.3418 103.902 38.3418 104.242C38.3418 104.809 38.1152 105.264 37.6621 105.607C37.209 105.947 36.6211 106.117 35.8984 106.117C35.3906 106.117 34.9414 106.027 34.5508 105.848C34.1602 105.668 33.8535 105.418 33.6309 105.098C33.4121 104.773 33.3027 104.424 33.3027 104.049H34.3867C34.4062 104.412 34.5508 104.701 34.8203 104.916C35.0938 105.127 35.4531 105.232 35.8984 105.232C36.3086 105.232 36.6367 105.15 36.8828 104.986C37.1328 104.818 37.2578 104.596 37.2578 104.318ZM41.2246 98.125V99.6602H42.4082V100.498H41.2246V104.43C41.2246 104.684 41.2773 104.875 41.3828 105.004C41.4883 105.129 41.668 105.191 41.9219 105.191C42.0469 105.191 42.2188 105.168 42.4375 105.121V106C42.1523 106.078 41.875 106.117 41.6055 106.117C41.1211 106.117 40.7559 105.971 40.5098 105.678C40.2637 105.385 40.1406 104.969 40.1406 104.43V100.498H38.9863V99.6602H40.1406V98.125H41.2246Z" fill="black"/>
<rect x="8.5" y="90.5" width="39" height="24" rx="3.5" stroke="#FF1818"/>
<path d="M147.777 101.23H142.891V100.287H147.777V101.23ZM147.777 103.662H142.891V102.725H147.777V103.662Z" fill="black"/>
<rect x="138.5" y="90.5" width="13" height="24" rx="3.5" stroke="#7D1DF7"/>
<path d="M165.777 101.23H160.891V100.287H165.777V101.23ZM165.777 103.662H160.891V102.725H165.777V103.662Z" fill="black"/>
<rect x="156.5" y="90.5" width="13" height="24" rx="3.5" stroke="#7D1DF7"/>
<path d="M56.8398 19.6602L56.8691 20.3633C57.334 19.8164 57.9609 19.543 58.75 19.543C59.6367 19.543 60.2402 19.8828 60.5605 20.5625C60.7715 20.2578 61.0449 20.0117 61.3809 19.8242C61.7207 19.6367 62.1211 19.543 62.582 19.543C63.9727 19.543 64.6797 20.2793 64.7031 21.752V26H63.6191V21.8164C63.6191 21.3633 63.5156 21.0254 63.3086 20.8027C63.1016 20.5762 62.7539 20.4629 62.2656 20.4629C61.8633 20.4629 61.5293 20.584 61.2637 20.8262C60.998 21.0645 60.8438 21.3867 60.8008 21.793V26H59.7109V21.8457C59.7109 20.9238 59.2598 20.4629 58.3574 20.4629C57.6465 20.4629 57.1602 20.7656 56.8984 21.3711V26H55.8145V19.6602H56.8398ZM70.2578 26C70.1953 25.875 70.1445 25.6523 70.1055 25.332C69.6016 25.8555 69 26.1172 68.3008 26.1172C67.6758 26.1172 67.1621 25.9414 66.7598 25.5898C66.3613 25.2344 66.1621 24.7852 66.1621 24.2422C66.1621 23.582 66.4121 23.0703 66.9121 22.707C67.416 22.3398 68.123 22.1562 69.0332 22.1562H70.0879V21.6582C70.0879 21.2793 69.9746 20.9785 69.748 20.7559C69.5215 20.5293 69.1875 20.416 68.7461 20.416C68.3594 20.416 68.0352 20.5137 67.7734 20.709C67.5117 20.9043 67.3809 21.1406 67.3809 21.418H66.291C66.291 21.1016 66.4023 20.7969 66.625 20.5039C66.8516 20.207 67.1562 19.9727 67.5391 19.8008C67.9258 19.6289 68.3496 19.543 68.8105 19.543C69.541 19.543 70.1133 19.7266 70.5273 20.0938C70.9414 20.457 71.1562 20.959 71.1719 21.5996V24.5176C71.1719 25.0996 71.2461 25.5625 71.3945 25.9062V26H70.2578ZM68.459 25.1738C68.7988 25.1738 69.1211 25.0859 69.4258 24.9102C69.7305 24.7344 69.9512 24.5059 70.0879 24.2246V22.9238H69.2383C67.9102 22.9238 67.2461 23.3125 67.2461 24.0898C67.2461 24.4297 67.3594 24.6953 67.5859 24.8867C67.8125 25.0781 68.1035 25.1738 68.459 25.1738ZM72.6133 22.7773C72.6133 21.7891 72.8418 21.0039 73.2988 20.4219C73.7559 19.8359 74.3613 19.543 75.1152 19.543C75.8887 19.543 76.4922 19.8164 76.9258 20.3633L76.9785 19.6602H77.9688V25.8477C77.9688 26.668 77.7246 27.3145 77.2363 27.7871C76.752 28.2598 76.0996 28.4961 75.2793 28.4961C74.8223 28.4961 74.375 28.3984 73.9375 28.2031C73.5 28.0078 73.166 27.7402 72.9355 27.4004L73.498 26.75C73.9629 27.3242 74.5312 27.6113 75.2031 27.6113C75.7305 27.6113 76.1406 27.4629 76.4336 27.166C76.7305 26.8691 76.8789 26.4512 76.8789 25.9121V25.3672C76.4453 25.8672 75.8535 26.1172 75.1035 26.1172C74.3613 26.1172 73.7598 25.8184 73.2988 25.2207C72.8418 24.623 72.6133 23.8086 72.6133 22.7773ZM73.7031 22.9004C73.7031 23.6152 73.8496 24.1777 74.1426 24.5879C74.4355 24.9941 74.8457 25.1973 75.373 25.1973C76.0566 25.1973 76.5586 24.8867 76.8789 24.2656V21.3711C76.5469 20.7656 76.0488 20.4629 75.3848 20.4629C74.8574 20.4629 74.4453 20.668 74.1484 21.0781C73.8516 21.4883 73.7031 22.0957 73.7031 22.9004ZM80.7871 26H79.7031V19.6602H80.7871V26ZM79.6152 17.9785C79.6152 17.8027 79.668 17.6543 79.7734 17.5332C79.8828 17.4121 80.043 17.3516 80.2539 17.3516C80.4648 17.3516 80.625 17.4121 80.7344 17.5332C80.8438 17.6543 80.8984 17.8027 80.8984 17.9785C80.8984 18.1543 80.8438 18.3008 80.7344 18.418C80.625 18.5352 80.4648 18.5938 80.2539 18.5938C80.043 18.5938 79.8828 18.5352 79.7734 18.418C79.668 18.3008 79.6152 18.1543 79.6152 17.9785ZM85.0703 25.2324C85.457 25.2324 85.7949 25.1152 86.084 24.8809C86.373 24.6465 86.5332 24.3535 86.5645 24.002H87.5898C87.5703 24.3652 87.4453 24.7109 87.2148 25.0391C86.9844 25.3672 86.6758 25.6289 86.2891 25.8242C85.9062 26.0195 85.5 26.1172 85.0703 26.1172C84.207 26.1172 83.5195 25.8301 83.0078 25.2559C82.5 24.6777 82.2461 23.8887 82.2461 22.8887V22.707C82.2461 22.0898 82.3594 21.541 82.5859 21.0605C82.8125 20.5801 83.1367 20.207 83.5586 19.9414C83.9844 19.6758 84.4863 19.543 85.0645 19.543C85.7754 19.543 86.3652 19.7559 86.834 20.1816C87.3066 20.6074 87.5586 21.1602 87.5898 21.8398H86.5645C86.5332 21.4297 86.377 21.0938 86.0957 20.832C85.8184 20.5664 85.4746 20.4336 85.0645 20.4336C84.5137 20.4336 84.0859 20.6328 83.7812 21.0312C83.4805 21.4258 83.3301 21.998 83.3301 22.748V22.9531C83.3301 23.6836 83.4805 24.2461 83.7812 24.6406C84.082 25.0352 84.5117 25.2324 85.0703 25.2324ZM95.5352 26H94.4043L90.1094 19.4258V26H88.9785V17.4688H90.1094L94.416 24.0723V17.4688H95.5352V26ZM101.277 25.373C100.855 25.8691 100.236 26.1172 99.4199 26.1172C98.7441 26.1172 98.2285 25.9219 97.873 25.5312C97.5215 25.1367 97.3438 24.5547 97.3398 23.7852V19.6602H98.4238V23.7559C98.4238 24.7168 98.8145 25.1973 99.5957 25.1973C100.424 25.1973 100.975 24.8887 101.248 24.2715V19.6602H102.332V26H101.301L101.277 25.373ZM105.004 19.6602L105.033 20.3633C105.498 19.8164 106.125 19.543 106.914 19.543C107.801 19.543 108.404 19.8828 108.725 20.5625C108.936 20.2578 109.209 20.0117 109.545 19.8242C109.885 19.6367 110.285 19.543 110.746 19.543C112.137 19.543 112.844 20.2793 112.867 21.752V26H111.783V21.8164C111.783 21.3633 111.68 21.0254 111.473 20.8027C111.266 20.5762 110.918 20.4629 110.43 20.4629C110.027 20.4629 109.693 20.584 109.428 20.8262C109.162 21.0645 109.008 21.3867 108.965 21.793V26H107.875V21.8457C107.875 20.9238 107.424 20.4629 106.521 20.4629C105.811 20.4629 105.324 20.7656 105.062 21.3711V26H103.979V19.6602H105.004ZM119.875 22.9004C119.875 23.8691 119.652 24.6484 119.207 25.2383C118.762 25.8242 118.164 26.1172 117.414 26.1172C116.613 26.1172 115.994 25.834 115.557 25.2676L115.504 26H114.508V17H115.592V20.3574C116.029 19.8145 116.633 19.543 117.402 19.543C118.172 19.543 118.775 19.834 119.213 20.416C119.654 20.998 119.875 21.7949 119.875 22.8066V22.9004ZM118.791 22.7773C118.791 22.0391 118.648 21.4688 118.363 21.0664C118.078 20.6641 117.668 20.4629 117.133 20.4629C116.418 20.4629 115.904 20.7949 115.592 21.459V24.2012C115.924 24.8652 116.441 25.1973 117.145 25.1973C117.664 25.1973 118.068 24.9961 118.357 24.5938C118.646 24.1914 118.791 23.5859 118.791 22.7773ZM123.877 26.1172C123.018 26.1172 122.318 25.8359 121.779 25.2734C121.24 24.707 120.971 23.9512 120.971 23.0059V22.8066C120.971 22.1777 121.09 21.6172 121.328 21.125C121.57 20.6289 121.906 20.2422 122.336 19.9648C122.77 19.6836 123.238 19.543 123.742 19.543C124.566 19.543 125.207 19.8145 125.664 20.3574C126.121 20.9004 126.35 21.6777 126.35 22.6895V23.1406H122.055C122.07 23.7656 122.252 24.2715 122.6 24.6582C122.951 25.041 123.396 25.2324 123.936 25.2324C124.318 25.2324 124.643 25.1543 124.908 24.998C125.174 24.8418 125.406 24.6348 125.605 24.377L126.268 24.8926C125.736 25.709 124.939 26.1172 123.877 26.1172ZM123.742 20.4336C123.305 20.4336 122.938 20.5938 122.641 20.9141C122.344 21.2305 122.16 21.6758 122.09 22.25H125.266V22.168C125.234 21.6172 125.086 21.1914 124.82 20.8906C124.555 20.5859 124.195 20.4336 123.742 20.4336ZM130.674 20.6328C130.51 20.6055 130.332 20.5918 130.141 20.5918C129.43 20.5918 128.947 20.8945 128.693 21.5V26H127.609V19.6602H128.664L128.682 20.3926C129.037 19.8262 129.541 19.543 130.193 19.543C130.404 19.543 130.564 19.5703 130.674 19.625V20.6328Z" fill="black"/>
<path d="M182.271 26H181.182V18.7754L178.996 19.5781V18.5938L182.102 17.4277H182.271V26ZM190.621 19.6953C190.621 20.1211 190.508 20.5 190.281 20.832C190.059 21.1641 189.756 21.4238 189.373 21.6113C189.818 21.8027 190.17 22.082 190.428 22.4492C190.689 22.8164 190.82 23.2324 190.82 23.6973C190.82 24.4355 190.57 25.0234 190.07 25.4609C189.574 25.8984 188.92 26.1172 188.107 26.1172C187.287 26.1172 186.629 25.8984 186.133 25.4609C185.641 25.0195 185.395 24.4316 185.395 23.6973C185.395 23.2363 185.52 22.8203 185.77 22.4492C186.023 22.0781 186.373 21.7969 186.818 21.6055C186.439 21.418 186.141 21.1582 185.922 20.8262C185.703 20.4941 185.594 20.1172 185.594 19.6953C185.594 18.9766 185.824 18.4062 186.285 17.9844C186.746 17.5625 187.354 17.3516 188.107 17.3516C188.857 17.3516 189.463 17.5625 189.924 17.9844C190.389 18.4062 190.621 18.9766 190.621 19.6953ZM189.736 23.6738C189.736 23.1973 189.584 22.8086 189.279 22.5078C188.979 22.207 188.584 22.0566 188.096 22.0566C187.607 22.0566 187.215 22.2051 186.918 22.502C186.625 22.7988 186.479 23.1895 186.479 23.6738C186.479 24.1582 186.621 24.5391 186.906 24.8164C187.195 25.0938 187.596 25.2324 188.107 25.2324C188.615 25.2324 189.014 25.0938 189.303 24.8164C189.592 24.5352 189.736 24.1543 189.736 23.6738ZM188.107 18.2422C187.682 18.2422 187.336 18.375 187.07 18.6406C186.809 18.9023 186.678 19.2598 186.678 19.7129C186.678 20.1465 186.807 20.498 187.064 20.7676C187.326 21.0332 187.674 21.166 188.107 21.166C188.541 21.166 188.887 21.0332 189.145 20.7676C189.406 20.498 189.537 20.1465 189.537 19.7129C189.537 19.2793 189.402 18.9258 189.133 18.6523C188.863 18.3789 188.521 18.2422 188.107 18.2422ZM192.684 21.7227L193.117 17.4688H197.488V18.4707H194.037L193.779 20.7969C194.197 20.5508 194.672 20.4277 195.203 20.4277C195.98 20.4277 196.598 20.6855 197.055 21.2012C197.512 21.7129 197.74 22.4062 197.74 23.2812C197.74 24.1602 197.502 24.8535 197.025 25.3613C196.553 25.8652 195.891 26.1172 195.039 26.1172C194.285 26.1172 193.67 25.9082 193.193 25.4902C192.717 25.0723 192.445 24.4941 192.379 23.7559H193.404C193.471 24.2441 193.645 24.6133 193.926 24.8633C194.207 25.1094 194.578 25.2324 195.039 25.2324C195.543 25.2324 195.938 25.0605 196.223 24.7168C196.512 24.373 196.656 23.8984 196.656 23.293C196.656 22.7227 196.5 22.2656 196.188 21.9219C195.879 21.5742 195.467 21.4004 194.951 21.4004C194.479 21.4004 194.107 21.5039 193.838 21.7109L193.551 21.9453L192.684 21.7227Z" fill="black"/>
<path d="M213.65 20.2578C213.65 20.0703 213.705 19.9141 213.814 19.7891C213.928 19.6641 214.096 19.6016 214.318 19.6016C214.541 19.6016 214.709 19.6641 214.822 19.7891C214.939 19.9141 214.998 20.0703 214.998 20.2578C214.998 20.4375 214.939 20.5879 214.822 20.709C214.709 20.8301 214.541 20.8906 214.318 20.8906C214.096 20.8906 213.928 20.8301 213.814 20.709C213.705 20.5879 213.65 20.4375 213.65 20.2578ZM213.855 27.6992L213.24 27.2773C213.607 26.7656 213.799 26.2383 213.814 25.6953V24.7168H214.875V25.5664C214.875 25.9609 214.777 26.3555 214.582 26.75C214.391 27.1445 214.148 27.4609 213.855 27.6992Z" fill="black"/>
<path d="M16.3633 25.2324C16.75 25.2324 17.0879 25.1152 17.377 24.8809C17.666 24.6465 17.8262 24.3535 17.8574 24.002H18.8828C18.8633 24.3652 18.7383 24.7109 18.5078 25.0391C18.2773 25.3672 17.9688 25.6289 17.582 25.8242C17.1992 26.0195 16.793 26.1172 16.3633 26.1172C15.5 26.1172 14.8125 25.8301 14.3008 25.2559C13.793 24.6777 13.5391 23.8887 13.5391 22.8887V22.707C13.5391 22.0898 13.6523 21.541 13.8789 21.0605C14.1055 20.5801 14.4297 20.207 14.8516 19.9414C15.2773 19.6758 15.7793 19.543 16.3574 19.543C17.0684 19.543 17.6582 19.7559 18.127 20.1816C18.5996 20.6074 18.8516 21.1602 18.8828 21.8398H17.8574C17.8262 21.4297 17.6699 21.0938 17.3887 20.832C17.1113 20.5664 16.7676 20.4336 16.3574 20.4336C15.8066 20.4336 15.3789 20.6328 15.0742 21.0312C14.7734 21.4258 14.623 21.998 14.623 22.748V22.9531C14.623 23.6836 14.7734 24.2461 15.0742 24.6406C15.375 25.0352 15.8047 25.2324 16.3633 25.2324ZM19.8145 22.7715C19.8145 22.1504 19.9355 21.5918 20.1777 21.0957C20.4238 20.5996 20.7637 20.2168 21.1973 19.9473C21.6348 19.6777 22.1328 19.543 22.6914 19.543C23.5547 19.543 24.252 19.8418 24.7832 20.4395C25.3184 21.0371 25.5859 21.832 25.5859 22.8242V22.9004C25.5859 23.5176 25.4668 24.0723 25.2285 24.5645C24.9941 25.0527 24.6562 25.4336 24.2148 25.707C23.7773 25.9805 23.2734 26.1172 22.7031 26.1172C21.8438 26.1172 21.1465 25.8184 20.6113 25.2207C20.0801 24.623 19.8145 23.832 19.8145 22.8477V22.7715ZM20.9043 22.9004C20.9043 23.6035 21.0664 24.168 21.3906 24.5938C21.7188 25.0195 22.1562 25.2324 22.7031 25.2324C23.2539 25.2324 23.6914 25.0176 24.0156 24.5879C24.3398 24.1543 24.502 23.5488 24.502 22.7715C24.502 22.0762 24.3359 21.5137 24.0039 21.084C23.6758 20.6504 23.2383 20.4336 22.6914 20.4336C22.1562 20.4336 21.7246 20.6465 21.3965 21.0723C21.0684 21.498 20.9043 22.1074 20.9043 22.9004ZM27.9707 19.6602L28.0059 20.457C28.4902 19.8477 29.123 19.543 29.9043 19.543C31.2441 19.543 31.9199 20.2988 31.9316 21.8105V26H30.8477V21.8047C30.8438 21.3477 30.7383 21.0098 30.5312 20.791C30.3281 20.5723 30.0098 20.4629 29.5762 20.4629C29.2246 20.4629 28.916 20.5566 28.6504 20.7441C28.3848 20.9316 28.1777 21.1777 28.0293 21.4824V26H26.9453V19.6602H27.9707ZM37.2578 24.3184C37.2578 24.0254 37.1465 23.7988 36.9238 23.6387C36.7051 23.4746 36.3203 23.334 35.7695 23.2168C35.2227 23.0996 34.7871 22.959 34.4629 22.7949C34.1426 22.6309 33.9043 22.4355 33.748 22.209C33.5957 21.9824 33.5195 21.7129 33.5195 21.4004C33.5195 20.8809 33.7383 20.4414 34.1758 20.082C34.6172 19.7227 35.1797 19.543 35.8633 19.543C36.582 19.543 37.1641 19.7285 37.6094 20.0996C38.0586 20.4707 38.2832 20.9453 38.2832 21.5234H37.1934C37.1934 21.2266 37.0664 20.9707 36.8125 20.7559C36.5625 20.541 36.2461 20.4336 35.8633 20.4336C35.4688 20.4336 35.1602 20.5195 34.9375 20.6914C34.7148 20.8633 34.6035 21.0879 34.6035 21.3652C34.6035 21.627 34.707 21.8242 34.9141 21.957C35.1211 22.0898 35.4941 22.2168 36.0332 22.3379C36.5762 22.459 37.0156 22.6035 37.3516 22.7715C37.6875 22.9395 37.9355 23.1426 38.0957 23.3809C38.2598 23.6152 38.3418 23.9023 38.3418 24.2422C38.3418 24.8086 38.1152 25.2637 37.6621 25.6074C37.209 25.9473 36.6211 26.1172 35.8984 26.1172C35.3906 26.1172 34.9414 26.0273 34.5508 25.8477C34.1602 25.668 33.8535 25.418 33.6309 25.0977C33.4121 24.7734 33.3027 24.4238 33.3027 24.0488H34.3867C34.4062 24.4121 34.5508 24.7012 34.8203 24.916C35.0938 25.127 35.4531 25.2324 35.8984 25.2324C36.3086 25.2324 36.6367 25.1504 36.8828 24.9863C37.1328 24.8184 37.2578 24.5957 37.2578 24.3184ZM41.2246 18.125V19.6602H42.4082V20.498H41.2246V24.4297C41.2246 24.6836 41.2773 24.875 41.3828 25.0039C41.4883 25.1289 41.668 25.1914 41.9219 25.1914C42.0469 25.1914 42.2188 25.168 42.4375 25.1211V26C42.1523 26.0781 41.875 26.1172 41.6055 26.1172C41.1211 26.1172 40.7559 25.9707 40.5098 25.6777C40.2637 25.3848 40.1406 24.9688 40.1406 24.4297V20.498H38.9863V19.6602H40.1406V18.125H41.2246Z" fill="black"/>
<path d="M147.777 21.2305H142.891V20.2871H147.777V21.2305ZM147.777 23.6621H142.891V22.7246H147.777V23.6621Z" fill="black"/>
<path d="M165.777 21.2305H160.891V20.2871H165.777V21.2305ZM165.777 23.6621H160.891V22.7246H165.777V23.6621Z" fill="black"/>
<path d="M127.578 57.0801H131.621V58H126.447V49.4688H127.578V57.0801ZM135.365 58.1172C134.506 58.1172 133.807 57.8359 133.268 57.2734C132.729 56.707 132.459 55.9512 132.459 55.0059V54.8066C132.459 54.1777 132.578 53.6172 132.816 53.125C133.059 52.6289 133.395 52.2422 133.824 51.9648C134.258 51.6836 134.727 51.543 135.23 51.543C136.055 51.543 136.695 51.8145 137.152 52.3574C137.609 52.9004 137.838 53.6777 137.838 54.6895V55.1406H133.543C133.559 55.7656 133.74 56.2715 134.088 56.6582C134.439 57.041 134.885 57.2324 135.424 57.2324C135.807 57.2324 136.131 57.1543 136.396 56.998C136.662 56.8418 136.895 56.6348 137.094 56.377L137.756 56.8926C137.225 57.709 136.428 58.1172 135.365 58.1172ZM135.23 52.4336C134.793 52.4336 134.426 52.5938 134.129 52.9141C133.832 53.2305 133.648 53.6758 133.578 54.25H136.754V54.168C136.723 53.6172 136.574 53.1914 136.309 52.8906C136.043 52.5859 135.684 52.4336 135.23 52.4336ZM141.225 53.9746L142.631 51.6602H143.896L141.822 54.7949L143.961 58H142.707L141.242 55.627L139.777 58H138.518L140.656 54.7949L138.582 51.6602H139.836L141.225 53.9746ZM147.564 58.1172C146.705 58.1172 146.006 57.8359 145.467 57.2734C144.928 56.707 144.658 55.9512 144.658 55.0059V54.8066C144.658 54.1777 144.777 53.6172 145.016 53.125C145.258 52.6289 145.594 52.2422 146.023 51.9648C146.457 51.6836 146.926 51.543 147.43 51.543C148.254 51.543 148.895 51.8145 149.352 52.3574C149.809 52.9004 150.037 53.6777 150.037 54.6895V55.1406H145.742C145.758 55.7656 145.939 56.2715 146.287 56.6582C146.639 57.041 147.084 57.2324 147.623 57.2324C148.006 57.2324 148.33 57.1543 148.596 56.998C148.861 56.8418 149.094 56.6348 149.293 56.377L149.955 56.8926C149.424 57.709 148.627 58.1172 147.564 58.1172ZM147.43 52.4336C146.992 52.4336 146.625 52.5938 146.328 52.9141C146.031 53.2305 145.848 53.6758 145.777 54.25H148.953V54.168C148.922 53.6172 148.773 53.1914 148.508 52.8906C148.242 52.5859 147.883 52.4336 147.43 52.4336ZM154.361 52.6328C154.197 52.6055 154.02 52.5918 153.828 52.5918C153.117 52.5918 152.635 52.8945 152.381 53.5V58H151.297V51.6602H152.352L152.369 52.3926C152.725 51.8262 153.229 51.543 153.881 51.543C154.092 51.543 154.252 51.5703 154.361 51.625V52.6328Z" fill="black"/>
</svg>
