<svg width="230" height="205" viewBox="0 0 230 205" fill="none" xmlns="http://www.w3.org/2000/svg">
<rect width="230" height="205" rx="12" fill="white"/>
<path d="M30.3633 24.2324C30.75 24.2324 31.0879 24.1152 31.377 23.8809C31.666 23.6465 31.8262 23.3535 31.8574 23.002H32.8828C32.8633 23.3652 32.7383 23.7109 32.5078 24.0391C32.2773 24.3672 31.9688 24.6289 31.582 24.8242C31.1992 25.0195 30.793 25.1172 30.3633 25.1172C29.5 25.1172 28.8125 24.8301 28.3008 24.2559C27.793 23.6777 27.5391 22.8887 27.5391 21.8887V21.707C27.5391 21.0898 27.6523 20.541 27.8789 20.0605C28.1055 19.5801 28.4297 19.207 28.8516 18.9414C29.2773 18.6758 29.7793 18.543 30.3574 18.543C31.0684 18.543 31.6582 18.7559 32.127 19.1816C32.5996 19.6074 32.8516 20.1602 32.8828 20.8398H31.8574C31.8262 20.4297 31.6699 20.0938 31.3887 19.832C31.1113 19.5664 30.7676 19.4336 30.3574 19.4336C29.8066 19.4336 29.3789 19.6328 29.0742 20.0312C28.7734 20.4258 28.623 20.998 28.623 21.748V21.9531C28.623 22.6836 28.7734 23.2461 29.0742 23.6406C29.375 24.0352 29.8047 24.2324 30.3633 24.2324ZM33.8145 21.7715C33.8145 21.1504 33.9355 20.5918 34.1777 20.0957C34.4238 19.5996 34.7637 19.2168 35.1973 18.9473C35.6348 18.6777 36.1328 18.543 36.6914 18.543C37.5547 18.543 38.252 18.8418 38.7832 19.4395C39.3184 20.0371 39.5859 20.832 39.5859 21.8242V21.9004C39.5859 22.5176 39.4668 23.0723 39.2285 23.5645C38.9941 24.0527 38.6562 24.4336 38.2148 24.707C37.7773 24.9805 37.2734 25.1172 36.7031 25.1172C35.8438 25.1172 35.1465 24.8184 34.6113 24.2207C34.0801 23.623 33.8145 22.832 33.8145 21.8477V21.7715ZM34.9043 21.9004C34.9043 22.6035 35.0664 23.168 35.3906 23.5938C35.7188 24.0195 36.1562 24.2324 36.7031 24.2324C37.2539 24.2324 37.6914 24.0176 38.0156 23.5879C38.3398 23.1543 38.502 22.5488 38.502 21.7715C38.502 21.0762 38.3359 20.5137 38.0039 20.084C37.6758 19.6504 37.2383 19.4336 36.6914 19.4336C36.1562 19.4336 35.7246 19.6465 35.3965 20.0723C35.0684 20.498 34.9043 21.1074 34.9043 21.9004ZM41.9707 18.6602L42.0059 19.457C42.4902 18.8477 43.123 18.543 43.9043 18.543C45.2441 18.543 45.9199 19.2988 45.9316 20.8105V25H44.8477V20.8047C44.8438 20.3477 44.7383 20.0098 44.5312 19.791C44.3281 19.5723 44.0098 19.4629 43.5762 19.4629C43.2246 19.4629 42.916 19.5566 42.6504 19.7441C42.3848 19.9316 42.1777 20.1777 42.0293 20.4824V25H40.9453V18.6602H41.9707ZM51.2578 23.3184C51.2578 23.0254 51.1465 22.7988 50.9238 22.6387C50.7051 22.4746 50.3203 22.334 49.7695 22.2168C49.2227 22.0996 48.7871 21.959 48.4629 21.7949C48.1426 21.6309 47.9043 21.4355 47.748 21.209C47.5957 20.9824 47.5195 20.7129 47.5195 20.4004C47.5195 19.8809 47.7383 19.4414 48.1758 19.082C48.6172 18.7227 49.1797 18.543 49.8633 18.543C50.582 18.543 51.1641 18.7285 51.6094 19.0996C52.0586 19.4707 52.2832 19.9453 52.2832 20.5234H51.1934C51.1934 20.2266 51.0664 19.9707 50.8125 19.7559C50.5625 19.541 50.2461 19.4336 49.8633 19.4336C49.4688 19.4336 49.1602 19.5195 48.9375 19.6914C48.7148 19.8633 48.6035 20.0879 48.6035 20.3652C48.6035 20.627 48.707 20.8242 48.9141 20.957C49.1211 21.0898 49.4941 21.2168 50.0332 21.3379C50.5762 21.459 51.0156 21.6035 51.3516 21.7715C51.6875 21.9395 51.9355 22.1426 52.0957 22.3809C52.2598 22.6152 52.3418 22.9023 52.3418 23.2422C52.3418 23.8086 52.1152 24.2637 51.6621 24.6074C51.209 24.9473 50.6211 25.1172 49.8984 25.1172C49.3906 25.1172 48.9414 25.0273 48.5508 24.8477C48.1602 24.668 47.8535 24.418 47.6309 24.0977C47.4121 23.7734 47.3027 23.4238 47.3027 23.0488H48.3867C48.4062 23.4121 48.5508 23.7012 48.8203 23.916C49.0938 24.127 49.4531 24.2324 49.8984 24.2324C50.3086 24.2324 50.6367 24.1504 50.8828 23.9863C51.1328 23.8184 51.2578 23.5957 51.2578 23.3184ZM55.2246 17.125V18.6602H56.4082V19.498H55.2246V23.4297C55.2246 23.6836 55.2773 23.875 55.3828 24.0039C55.4883 24.1289 55.668 24.1914 55.9219 24.1914C56.0469 24.1914 56.2188 24.168 56.4375 24.1211V25C56.1523 25.0781 55.875 25.1172 55.6055 25.1172C55.1211 25.1172 54.7559 24.9707 54.5098 24.6777C54.2637 24.3848 54.1406 23.9688 54.1406 23.4297V19.498H52.9863V18.6602H54.1406V17.125H55.2246Z" fill="black"/>
<path d="M73.8398 18.6602L73.8691 19.3633C74.334 18.8164 74.9609 18.543 75.75 18.543C76.6367 18.543 77.2402 18.8828 77.5605 19.5625C77.7715 19.2578 78.0449 19.0117 78.3809 18.8242C78.7207 18.6367 79.1211 18.543 79.582 18.543C80.9727 18.543 81.6797 19.2793 81.7031 20.752V25H80.6191V20.8164C80.6191 20.3633 80.5156 20.0254 80.3086 19.8027C80.1016 19.5762 79.7539 19.4629 79.2656 19.4629C78.8633 19.4629 78.5293 19.584 78.2637 19.8262C77.998 20.0645 77.8438 20.3867 77.8008 20.793V25H76.7109V20.8457C76.7109 19.9238 76.2598 19.4629 75.3574 19.4629C74.6465 19.4629 74.1602 19.7656 73.8984 20.3711V25H72.8145V18.6602H73.8398ZM87.2578 25C87.1953 24.875 87.1445 24.6523 87.1055 24.332C86.6016 24.8555 86 25.1172 85.3008 25.1172C84.6758 25.1172 84.1621 24.9414 83.7598 24.5898C83.3613 24.2344 83.1621 23.7852 83.1621 23.2422C83.1621 22.582 83.4121 22.0703 83.9121 21.707C84.416 21.3398 85.123 21.1562 86.0332 21.1562H87.0879V20.6582C87.0879 20.2793 86.9746 19.9785 86.748 19.7559C86.5215 19.5293 86.1875 19.416 85.7461 19.416C85.3594 19.416 85.0352 19.5137 84.7734 19.709C84.5117 19.9043 84.3809 20.1406 84.3809 20.418H83.291C83.291 20.1016 83.4023 19.7969 83.625 19.5039C83.8516 19.207 84.1562 18.9727 84.5391 18.8008C84.9258 18.6289 85.3496 18.543 85.8105 18.543C86.541 18.543 87.1133 18.7266 87.5273 19.0938C87.9414 19.457 88.1562 19.959 88.1719 20.5996V23.5176C88.1719 24.0996 88.2461 24.5625 88.3945 24.9062V25H87.2578ZM85.459 24.1738C85.7988 24.1738 86.1211 24.0859 86.4258 23.9102C86.7305 23.7344 86.9512 23.5059 87.0879 23.2246V21.9238H86.2383C84.9102 21.9238 84.2461 22.3125 84.2461 23.0898C84.2461 23.4297 84.3594 23.6953 84.5859 23.8867C84.8125 24.0781 85.1035 24.1738 85.459 24.1738ZM89.6133 21.7773C89.6133 20.7891 89.8418 20.0039 90.2988 19.4219C90.7559 18.8359 91.3613 18.543 92.1152 18.543C92.8887 18.543 93.4922 18.8164 93.9258 19.3633L93.9785 18.6602H94.9688V24.8477C94.9688 25.668 94.7246 26.3145 94.2363 26.7871C93.752 27.2598 93.0996 27.4961 92.2793 27.4961C91.8223 27.4961 91.375 27.3984 90.9375 27.2031C90.5 27.0078 90.166 26.7402 89.9355 26.4004L90.498 25.75C90.9629 26.3242 91.5312 26.6113 92.2031 26.6113C92.7305 26.6113 93.1406 26.4629 93.4336 26.166C93.7305 25.8691 93.8789 25.4512 93.8789 24.9121V24.3672C93.4453 24.8672 92.8535 25.1172 92.1035 25.1172C91.3613 25.1172 90.7598 24.8184 90.2988 24.2207C89.8418 23.623 89.6133 22.8086 89.6133 21.7773ZM90.7031 21.9004C90.7031 22.6152 90.8496 23.1777 91.1426 23.5879C91.4355 23.9941 91.8457 24.1973 92.373 24.1973C93.0566 24.1973 93.5586 23.8867 93.8789 23.2656V20.3711C93.5469 19.7656 93.0488 19.4629 92.3848 19.4629C91.8574 19.4629 91.4453 19.668 91.1484 20.0781C90.8516 20.4883 90.7031 21.0957 90.7031 21.9004ZM97.7871 25H96.7031V18.6602H97.7871V25ZM96.6152 16.9785C96.6152 16.8027 96.668 16.6543 96.7734 16.5332C96.8828 16.4121 97.043 16.3516 97.2539 16.3516C97.4648 16.3516 97.625 16.4121 97.7344 16.5332C97.8438 16.6543 97.8984 16.8027 97.8984 16.9785C97.8984 17.1543 97.8438 17.3008 97.7344 17.418C97.625 17.5352 97.4648 17.5938 97.2539 17.5938C97.043 17.5938 96.8828 17.5352 96.7734 17.418C96.668 17.3008 96.6152 17.1543 96.6152 16.9785ZM102.07 24.2324C102.457 24.2324 102.795 24.1152 103.084 23.8809C103.373 23.6465 103.533 23.3535 103.564 23.002H104.59C104.57 23.3652 104.445 23.7109 104.215 24.0391C103.984 24.3672 103.676 24.6289 103.289 24.8242C102.906 25.0195 102.5 25.1172 102.07 25.1172C101.207 25.1172 100.52 24.8301 100.008 24.2559C99.5 23.6777 99.2461 22.8887 99.2461 21.8887V21.707C99.2461 21.0898 99.3594 20.541 99.5859 20.0605C99.8125 19.5801 100.137 19.207 100.559 18.9414C100.984 18.6758 101.486 18.543 102.064 18.543C102.775 18.543 103.365 18.7559 103.834 19.1816C104.307 19.6074 104.559 20.1602 104.59 20.8398H103.564C103.533 20.4297 103.377 20.0938 103.096 19.832C102.818 19.5664 102.475 19.4336 102.064 19.4336C101.514 19.4336 101.086 19.6328 100.781 20.0312C100.48 20.4258 100.33 20.998 100.33 21.748V21.9531C100.33 22.6836 100.48 23.2461 100.781 23.6406C101.082 24.0352 101.512 24.2324 102.07 24.2324ZM112.535 25H111.404L107.109 18.4258V25H105.979V16.4688H107.109L111.416 23.0723V16.4688H112.535V25ZM118.277 24.373C117.855 24.8691 117.236 25.1172 116.42 25.1172C115.744 25.1172 115.229 24.9219 114.873 24.5312C114.521 24.1367 114.344 23.5547 114.34 22.7852V18.6602H115.424V22.7559C115.424 23.7168 115.814 24.1973 116.596 24.1973C117.424 24.1973 117.975 23.8887 118.248 23.2715V18.6602H119.332V25H118.301L118.277 24.373ZM122.004 18.6602L122.033 19.3633C122.498 18.8164 123.125 18.543 123.914 18.543C124.801 18.543 125.404 18.8828 125.725 19.5625C125.936 19.2578 126.209 19.0117 126.545 18.8242C126.885 18.6367 127.285 18.543 127.746 18.543C129.137 18.543 129.844 19.2793 129.867 20.752V25H128.783V20.8164C128.783 20.3633 128.68 20.0254 128.473 19.8027C128.266 19.5762 127.918 19.4629 127.43 19.4629C127.027 19.4629 126.693 19.584 126.428 19.8262C126.162 20.0645 126.008 20.3867 125.965 20.793V25H124.875V20.8457C124.875 19.9238 124.424 19.4629 123.521 19.4629C122.811 19.4629 122.324 19.7656 122.062 20.3711V25H120.979V18.6602H122.004ZM136.875 21.9004C136.875 22.8691 136.652 23.6484 136.207 24.2383C135.762 24.8242 135.164 25.1172 134.414 25.1172C133.613 25.1172 132.994 24.834 132.557 24.2676L132.504 25H131.508V16H132.592V19.3574C133.029 18.8145 133.633 18.543 134.402 18.543C135.172 18.543 135.775 18.834 136.213 19.416C136.654 19.998 136.875 20.7949 136.875 21.8066V21.9004ZM135.791 21.7773C135.791 21.0391 135.648 20.4688 135.363 20.0664C135.078 19.6641 134.668 19.4629 134.133 19.4629C133.418 19.4629 132.904 19.7949 132.592 20.459V23.2012C132.924 23.8652 133.441 24.1973 134.145 24.1973C134.664 24.1973 135.068 23.9961 135.357 23.5938C135.646 23.1914 135.791 22.5859 135.791 21.7773ZM140.877 25.1172C140.018 25.1172 139.318 24.8359 138.779 24.2734C138.24 23.707 137.971 22.9512 137.971 22.0059V21.8066C137.971 21.1777 138.09 20.6172 138.328 20.125C138.57 19.6289 138.906 19.2422 139.336 18.9648C139.77 18.6836 140.238 18.543 140.742 18.543C141.566 18.543 142.207 18.8145 142.664 19.3574C143.121 19.9004 143.35 20.6777 143.35 21.6895V22.1406H139.055C139.07 22.7656 139.252 23.2715 139.6 23.6582C139.951 24.041 140.396 24.2324 140.936 24.2324C141.318 24.2324 141.643 24.1543 141.908 23.998C142.174 23.8418 142.406 23.6348 142.605 23.377L143.268 23.8926C142.736 24.709 141.939 25.1172 140.877 25.1172ZM140.742 19.4336C140.305 19.4336 139.938 19.5938 139.641 19.9141C139.344 20.2305 139.16 20.6758 139.09 21.25H142.266V21.168C142.234 20.6172 142.086 20.1914 141.82 19.8906C141.555 19.5859 141.195 19.4336 140.742 19.4336ZM147.674 19.6328C147.51 19.6055 147.332 19.5918 147.141 19.5918C146.43 19.5918 145.947 19.8945 145.693 20.5V25H144.609V18.6602H145.664L145.682 19.3926C146.037 18.8262 146.541 18.543 147.193 18.543C147.404 18.543 147.564 18.5703 147.674 18.625V19.6328Z" fill="black"/>
<path d="M159.777 20.7305H154.891V19.7871H159.777V20.7305ZM159.777 23.1621H154.891V22.2246H159.777V23.1621Z" fill="black"/>
<path d="M171.271 25.5H170.182V18.2754L167.996 19.0781V18.0938L171.102 16.9277H171.271V25.5ZM179.621 19.1953C179.621 19.6211 179.508 20 179.281 20.332C179.059 20.6641 178.756 20.9238 178.373 21.1113C178.818 21.3027 179.17 21.582 179.428 21.9492C179.689 22.3164 179.82 22.7324 179.82 23.1973C179.82 23.9355 179.57 24.5234 179.07 24.9609C178.574 25.3984 177.92 25.6172 177.107 25.6172C176.287 25.6172 175.629 25.3984 175.133 24.9609C174.641 24.5195 174.395 23.9316 174.395 23.1973C174.395 22.7363 174.52 22.3203 174.77 21.9492C175.023 21.5781 175.373 21.2969 175.818 21.1055C175.439 20.918 175.141 20.6582 174.922 20.3262C174.703 19.9941 174.594 19.6172 174.594 19.1953C174.594 18.4766 174.824 17.9062 175.285 17.4844C175.746 17.0625 176.354 16.8516 177.107 16.8516C177.857 16.8516 178.463 17.0625 178.924 17.4844C179.389 17.9062 179.621 18.4766 179.621 19.1953ZM178.736 23.1738C178.736 22.6973 178.584 22.3086 178.279 22.0078C177.979 21.707 177.584 21.5566 177.096 21.5566C176.607 21.5566 176.215 21.7051 175.918 22.002C175.625 22.2988 175.479 22.6895 175.479 23.1738C175.479 23.6582 175.621 24.0391 175.906 24.3164C176.195 24.5938 176.596 24.7324 177.107 24.7324C177.615 24.7324 178.014 24.5938 178.303 24.3164C178.592 24.0352 178.736 23.6543 178.736 23.1738ZM177.107 17.7422C176.682 17.7422 176.336 17.875 176.07 18.1406C175.809 18.4023 175.678 18.7598 175.678 19.2129C175.678 19.6465 175.807 19.998 176.064 20.2676C176.326 20.5332 176.674 20.666 177.107 20.666C177.541 20.666 177.887 20.5332 178.145 20.2676C178.406 19.998 178.537 19.6465 178.537 19.2129C178.537 18.7793 178.402 18.4258 178.133 18.1523C177.863 17.8789 177.521 17.7422 177.107 17.7422ZM181.684 21.2227L182.117 16.9688H186.488V17.9707H183.037L182.779 20.2969C183.197 20.0508 183.672 19.9277 184.203 19.9277C184.98 19.9277 185.598 20.1855 186.055 20.7012C186.512 21.2129 186.74 21.9062 186.74 22.7812C186.74 23.6602 186.502 24.3535 186.025 24.8613C185.553 25.3652 184.891 25.6172 184.039 25.6172C183.285 25.6172 182.67 25.4082 182.193 24.9902C181.717 24.5723 181.445 23.9941 181.379 23.2559H182.404C182.471 23.7441 182.645 24.1133 182.926 24.3633C183.207 24.6094 183.578 24.7324 184.039 24.7324C184.543 24.7324 184.938 24.5605 185.223 24.2168C185.512 23.873 185.656 23.3984 185.656 22.793C185.656 22.2227 185.5 21.7656 185.188 21.4219C184.879 21.0742 184.467 20.9004 183.951 20.9004C183.479 20.9004 183.107 21.0039 182.838 21.2109L182.551 21.4453L181.684 21.2227Z" fill="black"/>
<path d="M204.65 19.7578C204.65 19.5703 204.705 19.4141 204.814 19.2891C204.928 19.1641 205.096 19.1016 205.318 19.1016C205.541 19.1016 205.709 19.1641 205.822 19.2891C205.939 19.4141 205.998 19.5703 205.998 19.7578C205.998 19.9375 205.939 20.0879 205.822 20.209C205.709 20.3301 205.541 20.3906 205.318 20.3906C205.096 20.3906 204.928 20.3301 204.814 20.209C204.705 20.0879 204.65 19.9375 204.65 19.7578ZM204.855 27.1992L204.24 26.7773C204.607 26.2656 204.799 25.7383 204.814 25.1953V24.2168H205.875V25.0664C205.875 25.4609 205.777 25.8555 205.582 26.25C205.391 26.6445 205.148 26.9609 204.855 27.1992Z" fill="black"/>
<path d="M30.3633 105.232C30.75 105.232 31.0879 105.115 31.377 104.881C31.666 104.646 31.8262 104.354 31.8574 104.002H32.8828C32.8633 104.365 32.7383 104.711 32.5078 105.039C32.2773 105.367 31.9688 105.629 31.582 105.824C31.1992 106.02 30.793 106.117 30.3633 106.117C29.5 106.117 28.8125 105.83 28.3008 105.256C27.793 104.678 27.5391 103.889 27.5391 102.889V102.707C27.5391 102.09 27.6523 101.541 27.8789 101.061C28.1055 100.58 28.4297 100.207 28.8516 99.9414C29.2773 99.6758 29.7793 99.543 30.3574 99.543C31.0684 99.543 31.6582 99.7559 32.127 100.182C32.5996 100.607 32.8516 101.16 32.8828 101.84H31.8574C31.8262 101.43 31.6699 101.094 31.3887 100.832C31.1113 100.566 30.7676 100.434 30.3574 100.434C29.8066 100.434 29.3789 100.633 29.0742 101.031C28.7734 101.426 28.623 101.998 28.623 102.748V102.953C28.623 103.684 28.7734 104.246 29.0742 104.641C29.375 105.035 29.8047 105.232 30.3633 105.232ZM33.8145 102.771C33.8145 102.15 33.9355 101.592 34.1777 101.096C34.4238 100.6 34.7637 100.217 35.1973 99.9473C35.6348 99.6777 36.1328 99.543 36.6914 99.543C37.5547 99.543 38.252 99.8418 38.7832 100.439C39.3184 101.037 39.5859 101.832 39.5859 102.824V102.9C39.5859 103.518 39.4668 104.072 39.2285 104.564C38.9941 105.053 38.6562 105.434 38.2148 105.707C37.7773 105.98 37.2734 106.117 36.7031 106.117C35.8438 106.117 35.1465 105.818 34.6113 105.221C34.0801 104.623 33.8145 103.832 33.8145 102.848V102.771ZM34.9043 102.9C34.9043 103.604 35.0664 104.168 35.3906 104.594C35.7188 105.02 36.1562 105.232 36.7031 105.232C37.2539 105.232 37.6914 105.018 38.0156 104.588C38.3398 104.154 38.502 103.549 38.502 102.771C38.502 102.076 38.3359 101.514 38.0039 101.084C37.6758 100.65 37.2383 100.434 36.6914 100.434C36.1562 100.434 35.7246 100.646 35.3965 101.072C35.0684 101.498 34.9043 102.107 34.9043 102.9ZM41.9707 99.6602L42.0059 100.457C42.4902 99.8477 43.123 99.543 43.9043 99.543C45.2441 99.543 45.9199 100.299 45.9316 101.811V106H44.8477V101.805C44.8438 101.348 44.7383 101.01 44.5312 100.791C44.3281 100.572 44.0098 100.463 43.5762 100.463C43.2246 100.463 42.916 100.557 42.6504 100.744C42.3848 100.932 42.1777 101.178 42.0293 101.482V106H40.9453V99.6602H41.9707ZM51.2578 104.318C51.2578 104.025 51.1465 103.799 50.9238 103.639C50.7051 103.475 50.3203 103.334 49.7695 103.217C49.2227 103.1 48.7871 102.959 48.4629 102.795C48.1426 102.631 47.9043 102.436 47.748 102.209C47.5957 101.982 47.5195 101.713 47.5195 101.4C47.5195 100.881 47.7383 100.441 48.1758 100.082C48.6172 99.7227 49.1797 99.543 49.8633 99.543C50.582 99.543 51.1641 99.7285 51.6094 100.1C52.0586 100.471 52.2832 100.945 52.2832 101.523H51.1934C51.1934 101.227 51.0664 100.971 50.8125 100.756C50.5625 100.541 50.2461 100.434 49.8633 100.434C49.4688 100.434 49.1602 100.52 48.9375 100.691C48.7148 100.863 48.6035 101.088 48.6035 101.365C48.6035 101.627 48.707 101.824 48.9141 101.957C49.1211 102.09 49.4941 102.217 50.0332 102.338C50.5762 102.459 51.0156 102.604 51.3516 102.771C51.6875 102.939 51.9355 103.143 52.0957 103.381C52.2598 103.615 52.3418 103.902 52.3418 104.242C52.3418 104.809 52.1152 105.264 51.6621 105.607C51.209 105.947 50.6211 106.117 49.8984 106.117C49.3906 106.117 48.9414 106.027 48.5508 105.848C48.1602 105.668 47.8535 105.418 47.6309 105.098C47.4121 104.773 47.3027 104.424 47.3027 104.049H48.3867C48.4062 104.412 48.5508 104.701 48.8203 104.916C49.0938 105.127 49.4531 105.232 49.8984 105.232C50.3086 105.232 50.6367 105.15 50.8828 104.986C51.1328 104.818 51.2578 104.596 51.2578 104.318ZM55.2246 98.125V99.6602H56.4082V100.498H55.2246V104.43C55.2246 104.684 55.2773 104.875 55.3828 105.004C55.4883 105.129 55.668 105.191 55.9219 105.191C56.0469 105.191 56.2188 105.168 56.4375 105.121V106C56.1523 106.078 55.875 106.117 55.6055 106.117C55.1211 106.117 54.7559 105.971 54.5098 105.678C54.2637 105.385 54.1406 104.969 54.1406 104.43V100.498H52.9863V99.6602H54.1406V98.125H55.2246Z" fill="black"/>
<path d="M73.8398 99.6602L73.8691 100.363C74.334 99.8164 74.9609 99.543 75.75 99.543C76.6367 99.543 77.2402 99.8828 77.5605 100.562C77.7715 100.258 78.0449 100.012 78.3809 99.8242C78.7207 99.6367 79.1211 99.543 79.582 99.543C80.9727 99.543 81.6797 100.279 81.7031 101.752V106H80.6191V101.816C80.6191 101.363 80.5156 101.025 80.3086 100.803C80.1016 100.576 79.7539 100.463 79.2656 100.463C78.8633 100.463 78.5293 100.584 78.2637 100.826C77.998 101.064 77.8438 101.387 77.8008 101.793V106H76.7109V101.846C76.7109 100.924 76.2598 100.463 75.3574 100.463C74.6465 100.463 74.1602 100.766 73.8984 101.371V106H72.8145V99.6602H73.8398ZM87.2578 106C87.1953 105.875 87.1445 105.652 87.1055 105.332C86.6016 105.855 86 106.117 85.3008 106.117C84.6758 106.117 84.1621 105.941 83.7598 105.59C83.3613 105.234 83.1621 104.785 83.1621 104.242C83.1621 103.582 83.4121 103.07 83.9121 102.707C84.416 102.34 85.123 102.156 86.0332 102.156H87.0879V101.658C87.0879 101.279 86.9746 100.979 86.748 100.756C86.5215 100.529 86.1875 100.416 85.7461 100.416C85.3594 100.416 85.0352 100.514 84.7734 100.709C84.5117 100.904 84.3809 101.141 84.3809 101.418H83.291C83.291 101.102 83.4023 100.797 83.625 100.504C83.8516 100.207 84.1562 99.9727 84.5391 99.8008C84.9258 99.6289 85.3496 99.543 85.8105 99.543C86.541 99.543 87.1133 99.7266 87.5273 100.094C87.9414 100.457 88.1562 100.959 88.1719 101.6V104.518C88.1719 105.1 88.2461 105.562 88.3945 105.906V106H87.2578ZM85.459 105.174C85.7988 105.174 86.1211 105.086 86.4258 104.91C86.7305 104.734 86.9512 104.506 87.0879 104.225V102.924H86.2383C84.9102 102.924 84.2461 103.312 84.2461 104.09C84.2461 104.43 84.3594 104.695 84.5859 104.887C84.8125 105.078 85.1035 105.174 85.459 105.174ZM89.6133 102.777C89.6133 101.789 89.8418 101.004 90.2988 100.422C90.7559 99.8359 91.3613 99.543 92.1152 99.543C92.8887 99.543 93.4922 99.8164 93.9258 100.363L93.9785 99.6602H94.9688V105.848C94.9688 106.668 94.7246 107.314 94.2363 107.787C93.752 108.26 93.0996 108.496 92.2793 108.496C91.8223 108.496 91.375 108.398 90.9375 108.203C90.5 108.008 90.166 107.74 89.9355 107.4L90.498 106.75C90.9629 107.324 91.5312 107.611 92.2031 107.611C92.7305 107.611 93.1406 107.463 93.4336 107.166C93.7305 106.869 93.8789 106.451 93.8789 105.912V105.367C93.4453 105.867 92.8535 106.117 92.1035 106.117C91.3613 106.117 90.7598 105.818 90.2988 105.221C89.8418 104.623 89.6133 103.809 89.6133 102.777ZM90.7031 102.9C90.7031 103.615 90.8496 104.178 91.1426 104.588C91.4355 104.994 91.8457 105.197 92.373 105.197C93.0566 105.197 93.5586 104.887 93.8789 104.266V101.371C93.5469 100.766 93.0488 100.463 92.3848 100.463C91.8574 100.463 91.4453 100.668 91.1484 101.078C90.8516 101.488 90.7031 102.096 90.7031 102.9ZM97.7871 106H96.7031V99.6602H97.7871V106ZM96.6152 97.9785C96.6152 97.8027 96.668 97.6543 96.7734 97.5332C96.8828 97.4121 97.043 97.3516 97.2539 97.3516C97.4648 97.3516 97.625 97.4121 97.7344 97.5332C97.8438 97.6543 97.8984 97.8027 97.8984 97.9785C97.8984 98.1543 97.8438 98.3008 97.7344 98.418C97.625 98.5352 97.4648 98.5938 97.2539 98.5938C97.043 98.5938 96.8828 98.5352 96.7734 98.418C96.668 98.3008 96.6152 98.1543 96.6152 97.9785ZM102.07 105.232C102.457 105.232 102.795 105.115 103.084 104.881C103.373 104.646 103.533 104.354 103.564 104.002H104.59C104.57 104.365 104.445 104.711 104.215 105.039C103.984 105.367 103.676 105.629 103.289 105.824C102.906 106.02 102.5 106.117 102.07 106.117C101.207 106.117 100.52 105.83 100.008 105.256C99.5 104.678 99.2461 103.889 99.2461 102.889V102.707C99.2461 102.09 99.3594 101.541 99.5859 101.061C99.8125 100.58 100.137 100.207 100.559 99.9414C100.984 99.6758 101.486 99.543 102.064 99.543C102.775 99.543 103.365 99.7559 103.834 100.182C104.307 100.607 104.559 101.16 104.59 101.84H103.564C103.533 101.43 103.377 101.094 103.096 100.832C102.818 100.566 102.475 100.434 102.064 100.434C101.514 100.434 101.086 100.633 100.781 101.031C100.48 101.426 100.33 101.998 100.33 102.748V102.953C100.33 103.684 100.48 104.246 100.781 104.641C101.082 105.035 101.512 105.232 102.07 105.232ZM112.535 106H111.404L107.109 99.4258V106H105.979V97.4688H107.109L111.416 104.072V97.4688H112.535V106ZM118.277 105.373C117.855 105.869 117.236 106.117 116.42 106.117C115.744 106.117 115.229 105.922 114.873 105.531C114.521 105.137 114.344 104.555 114.34 103.785V99.6602H115.424V103.756C115.424 104.717 115.814 105.197 116.596 105.197C117.424 105.197 117.975 104.889 118.248 104.271V99.6602H119.332V106H118.301L118.277 105.373ZM122.004 99.6602L122.033 100.363C122.498 99.8164 123.125 99.543 123.914 99.543C124.801 99.543 125.404 99.8828 125.725 100.562C125.936 100.258 126.209 100.012 126.545 99.8242C126.885 99.6367 127.285 99.543 127.746 99.543C129.137 99.543 129.844 100.279 129.867 101.752V106H128.783V101.816C128.783 101.363 128.68 101.025 128.473 100.803C128.266 100.576 127.918 100.463 127.43 100.463C127.027 100.463 126.693 100.584 126.428 100.826C126.162 101.064 126.008 101.387 125.965 101.793V106H124.875V101.846C124.875 100.924 124.424 100.463 123.521 100.463C122.811 100.463 122.324 100.766 122.062 101.371V106H120.979V99.6602H122.004ZM136.875 102.9C136.875 103.869 136.652 104.648 136.207 105.238C135.762 105.824 135.164 106.117 134.414 106.117C133.613 106.117 132.994 105.834 132.557 105.268L132.504 106H131.508V97H132.592V100.357C133.029 99.8145 133.633 99.543 134.402 99.543C135.172 99.543 135.775 99.834 136.213 100.416C136.654 100.998 136.875 101.795 136.875 102.807V102.9ZM135.791 102.777C135.791 102.039 135.648 101.469 135.363 101.066C135.078 100.664 134.668 100.463 134.133 100.463C133.418 100.463 132.904 100.795 132.592 101.459V104.201C132.924 104.865 133.441 105.197 134.145 105.197C134.664 105.197 135.068 104.996 135.357 104.594C135.646 104.191 135.791 103.586 135.791 102.777ZM140.877 106.117C140.018 106.117 139.318 105.836 138.779 105.273C138.24 104.707 137.971 103.951 137.971 103.006V102.807C137.971 102.178 138.09 101.617 138.328 101.125C138.57 100.629 138.906 100.242 139.336 99.9648C139.77 99.6836 140.238 99.543 140.742 99.543C141.566 99.543 142.207 99.8145 142.664 100.357C143.121 100.9 143.35 101.678 143.35 102.689V103.141H139.055C139.07 103.766 139.252 104.271 139.6 104.658C139.951 105.041 140.396 105.232 140.936 105.232C141.318 105.232 141.643 105.154 141.908 104.998C142.174 104.842 142.406 104.635 142.605 104.377L143.268 104.893C142.736 105.709 141.939 106.117 140.877 106.117ZM140.742 100.434C140.305 100.434 139.938 100.594 139.641 100.914C139.344 101.23 139.16 101.676 139.09 102.25H142.266V102.168C142.234 101.617 142.086 101.191 141.82 100.891C141.555 100.586 141.195 100.434 140.742 100.434ZM147.674 100.633C147.51 100.605 147.332 100.592 147.141 100.592C146.43 100.592 145.947 100.895 145.693 101.5V106H144.609V99.6602H145.664L145.682 100.393C146.037 99.8262 146.541 99.543 147.193 99.543C147.404 99.543 147.564 99.5703 147.674 99.625V100.633Z" fill="black"/>
<path d="M159.777 101.23H154.891V100.287H159.777V101.23ZM159.777 103.662H154.891V102.725H159.777V103.662Z" fill="black"/>
<path d="M171.271 106H170.182V98.7754L167.996 99.5781V98.5938L171.102 97.4277H171.271V106ZM179.621 99.6953C179.621 100.121 179.508 100.5 179.281 100.832C179.059 101.164 178.756 101.424 178.373 101.611C178.818 101.803 179.17 102.082 179.428 102.449C179.689 102.816 179.82 103.232 179.82 103.697C179.82 104.436 179.57 105.023 179.07 105.461C178.574 105.898 177.92 106.117 177.107 106.117C176.287 106.117 175.629 105.898 175.133 105.461C174.641 105.02 174.395 104.432 174.395 103.697C174.395 103.236 174.52 102.82 174.77 102.449C175.023 102.078 175.373 101.797 175.818 101.605C175.439 101.418 175.141 101.158 174.922 100.826C174.703 100.494 174.594 100.117 174.594 99.6953C174.594 98.9766 174.824 98.4062 175.285 97.9844C175.746 97.5625 176.354 97.3516 177.107 97.3516C177.857 97.3516 178.463 97.5625 178.924 97.9844C179.389 98.4062 179.621 98.9766 179.621 99.6953ZM178.736 103.674C178.736 103.197 178.584 102.809 178.279 102.508C177.979 102.207 177.584 102.057 177.096 102.057C176.607 102.057 176.215 102.205 175.918 102.502C175.625 102.799 175.479 103.189 175.479 103.674C175.479 104.158 175.621 104.539 175.906 104.816C176.195 105.094 176.596 105.232 177.107 105.232C177.615 105.232 178.014 105.094 178.303 104.816C178.592 104.535 178.736 104.154 178.736 103.674ZM177.107 98.2422C176.682 98.2422 176.336 98.375 176.07 98.6406C175.809 98.9023 175.678 99.2598 175.678 99.7129C175.678 100.146 175.807 100.498 176.064 100.768C176.326 101.033 176.674 101.166 177.107 101.166C177.541 101.166 177.887 101.033 178.145 100.768C178.406 100.498 178.537 100.146 178.537 99.7129C178.537 99.2793 178.402 98.9258 178.133 98.6523C177.863 98.3789 177.521 98.2422 177.107 98.2422ZM181.684 101.723L182.117 97.4688H186.488V98.4707H183.037L182.779 100.797C183.197 100.551 183.672 100.428 184.203 100.428C184.98 100.428 185.598 100.686 186.055 101.201C186.512 101.713 186.74 102.406 186.74 103.281C186.74 104.16 186.502 104.854 186.025 105.361C185.553 105.865 184.891 106.117 184.039 106.117C183.285 106.117 182.67 105.908 182.193 105.49C181.717 105.072 181.445 104.494 181.379 103.756H182.404C182.471 104.244 182.645 104.613 182.926 104.863C183.207 105.109 183.578 105.232 184.039 105.232C184.543 105.232 184.938 105.061 185.223 104.717C185.512 104.373 185.656 103.898 185.656 103.293C185.656 102.723 185.5 102.266 185.188 101.922C184.879 101.574 184.467 101.4 183.951 101.4C183.479 101.4 183.107 101.504 182.838 101.711L182.551 101.945L181.684 101.723Z" fill="black"/>
<path d="M204.65 100.258C204.65 100.07 204.705 99.9141 204.814 99.7891C204.928 99.6641 205.096 99.6016 205.318 99.6016C205.541 99.6016 205.709 99.6641 205.822 99.7891C205.939 99.9141 205.998 100.07 205.998 100.258C205.998 100.438 205.939 100.588 205.822 100.709C205.709 100.83 205.541 100.891 205.318 100.891C205.096 100.891 204.928 100.83 204.814 100.709C204.705 100.588 204.65 100.438 204.65 100.258ZM204.855 107.699L204.24 107.277C204.607 106.766 204.799 106.238 204.814 105.695V104.717H205.875V105.566C205.875 105.961 205.777 106.355 205.582 106.75C205.391 107.145 205.148 107.461 204.855 107.699Z" fill="black"/>
<rect x="69.5" y="90.5" width="81" height="24" rx="3.5" stroke="#188A53"/>
<rect x="64.5" y="85.5" width="132" height="33" rx="3.5" stroke="#DFAB46"/>
<rect x="163.5" y="90.5" width="28" height="24" rx="3.5" stroke="#1B68DD"/>
<rect x="22.5" y="81.5" width="178" height="42" rx="3.5" stroke="#FF1818"/>
<path d="M109.293 70.7071C109.683 71.0976 110.317 71.0976 110.707 70.7071L117.071 64.3431C117.462 63.9526 117.462 63.3195 117.071 62.9289C116.681 62.5384 116.047 62.5384 115.657 62.9289L110 68.5858L104.343 62.9289C103.953 62.5384 103.319 62.5384 102.929 62.9289C102.538 63.3195 102.538 63.9526 102.929 64.3431L109.293 70.7071ZM109 39V70H111V39H109Z" fill="black"/>
<rect x="58.25" y="153.25" width="9.5" height="9.5" rx="1.75" fill="#FF1818" stroke="black" stroke-width="0.5"/>
<path d="M73.543 160.004L75.168 155.312H75.9883L73.8789 161H73.2148L71.1094 155.312H71.9258L73.543 160.004ZM79.0703 161C79.0286 160.917 78.9948 160.768 78.9688 160.555C78.6328 160.904 78.2318 161.078 77.7656 161.078C77.349 161.078 77.0065 160.961 76.7383 160.727C76.4727 160.49 76.3398 160.19 76.3398 159.828C76.3398 159.388 76.5065 159.047 76.8398 158.805C77.1758 158.56 77.6471 158.438 78.2539 158.438H78.957V158.105C78.957 157.853 78.8815 157.652 78.7305 157.504C78.5794 157.353 78.3568 157.277 78.0625 157.277C77.8047 157.277 77.5885 157.342 77.4141 157.473C77.2396 157.603 77.1523 157.76 77.1523 157.945H76.4258C76.4258 157.734 76.5 157.531 76.6484 157.336C76.7995 157.138 77.0026 156.982 77.2578 156.867C77.5156 156.753 77.7982 156.695 78.1055 156.695C78.5924 156.695 78.974 156.818 79.25 157.062C79.526 157.305 79.6693 157.639 79.6797 158.066V160.012C79.6797 160.4 79.7292 160.708 79.8281 160.938V161H79.0703ZM77.8711 160.449C78.0977 160.449 78.3125 160.391 78.5156 160.273C78.7188 160.156 78.8659 160.004 78.957 159.816V158.949H78.3906C77.5052 158.949 77.0625 159.208 77.0625 159.727C77.0625 159.953 77.138 160.13 77.2891 160.258C77.4401 160.385 77.6341 160.449 77.8711 160.449ZM82.8555 157.422C82.7461 157.404 82.6276 157.395 82.5 157.395C82.026 157.395 81.7044 157.596 81.5352 158V161H80.8125V156.773H81.5156L81.5273 157.262C81.7643 156.884 82.1003 156.695 82.5352 156.695C82.6758 156.695 82.7826 156.714 82.8555 156.75V157.422ZM84.3086 161H83.5859V156.773H84.3086V161ZM83.5273 155.652C83.5273 155.535 83.5625 155.436 83.6328 155.355C83.7057 155.275 83.8125 155.234 83.9531 155.234C84.0938 155.234 84.2005 155.275 84.2734 155.355C84.3464 155.436 84.3828 155.535 84.3828 155.652C84.3828 155.77 84.3464 155.867 84.2734 155.945C84.2005 156.023 84.0938 156.062 83.9531 156.062C83.8125 156.062 83.7057 156.023 83.6328 155.945C83.5625 155.867 83.5273 155.77 83.5273 155.652ZM88.0781 161C88.0365 160.917 88.0026 160.768 87.9766 160.555C87.6406 160.904 87.2396 161.078 86.7734 161.078C86.3568 161.078 86.0143 160.961 85.7461 160.727C85.4805 160.49 85.3477 160.19 85.3477 159.828C85.3477 159.388 85.5143 159.047 85.8477 158.805C86.1836 158.56 86.6549 158.438 87.2617 158.438H87.9648V158.105C87.9648 157.853 87.8893 157.652 87.7383 157.504C87.5872 157.353 87.3646 157.277 87.0703 157.277C86.8125 157.277 86.5964 157.342 86.4219 157.473C86.2474 157.603 86.1602 157.76 86.1602 157.945H85.4336C85.4336 157.734 85.5078 157.531 85.6562 157.336C85.8073 157.138 86.0104 156.982 86.2656 156.867C86.5234 156.753 86.806 156.695 87.1133 156.695C87.6003 156.695 87.9818 156.818 88.2578 157.062C88.5339 157.305 88.6771 157.639 88.6875 158.066V160.012C88.6875 160.4 88.737 160.708 88.8359 160.938V161H88.0781ZM86.8789 160.449C87.1055 160.449 87.3203 160.391 87.5234 160.273C87.7266 160.156 87.8737 160.004 87.9648 159.816V158.949H87.3984C86.513 158.949 86.0703 159.208 86.0703 159.727C86.0703 159.953 86.1458 160.13 86.2969 160.258C86.4479 160.385 86.6419 160.449 86.8789 160.449ZM93.3984 158.934C93.3984 159.579 93.25 160.099 92.9531 160.492C92.6562 160.883 92.2578 161.078 91.7578 161.078C91.224 161.078 90.8112 160.889 90.5195 160.512L90.4844 161H89.8203V155H90.543V157.238C90.8346 156.876 91.237 156.695 91.75 156.695C92.263 156.695 92.6654 156.889 92.957 157.277C93.2513 157.665 93.3984 158.197 93.3984 158.871V158.934ZM92.6758 158.852C92.6758 158.359 92.5807 157.979 92.3906 157.711C92.2005 157.443 91.9271 157.309 91.5703 157.309C91.0938 157.309 90.7513 157.53 90.543 157.973V159.801C90.7643 160.243 91.1094 160.465 91.5781 160.465C91.9245 160.465 92.194 160.331 92.3867 160.062C92.5794 159.794 92.6758 159.391 92.6758 158.852ZM95.0977 161H94.375V155H95.0977V161ZM98.0117 161.078C97.4388 161.078 96.9727 160.891 96.6133 160.516C96.2539 160.138 96.0742 159.634 96.0742 159.004V158.871C96.0742 158.452 96.1536 158.078 96.3125 157.75C96.474 157.419 96.6979 157.161 96.9844 156.977C97.2734 156.789 97.5859 156.695 97.9219 156.695C98.4714 156.695 98.8984 156.876 99.2031 157.238C99.5078 157.6 99.6602 158.118 99.6602 158.793V159.094H96.7969C96.8073 159.51 96.9284 159.848 97.1602 160.105C97.3945 160.361 97.6914 160.488 98.0508 160.488C98.306 160.488 98.5221 160.436 98.6992 160.332C98.8763 160.228 99.0312 160.09 99.1641 159.918L99.6055 160.262C99.2513 160.806 98.7201 161.078 98.0117 161.078ZM97.9219 157.289C97.6302 157.289 97.3854 157.396 97.1875 157.609C96.9896 157.82 96.8672 158.117 96.8203 158.5H98.9375V158.445C98.9167 158.078 98.8177 157.794 98.6406 157.594C98.4635 157.391 98.224 157.289 97.9219 157.289ZM100.613 161V155.312H102.219C102.714 155.312 103.151 155.422 103.531 155.641C103.911 155.859 104.204 156.171 104.41 156.574C104.618 156.978 104.724 157.441 104.727 157.965V158.328C104.727 158.865 104.622 159.335 104.414 159.738C104.208 160.142 103.913 160.452 103.527 160.668C103.145 160.884 102.698 160.995 102.188 161H100.613ZM101.363 155.93V160.387H102.152C102.73 160.387 103.18 160.207 103.5 159.848C103.823 159.488 103.984 158.977 103.984 158.312V157.98C103.984 157.335 103.832 156.833 103.527 156.477C103.225 156.117 102.796 155.935 102.238 155.93H101.363ZM107.504 161.078C106.931 161.078 106.465 160.891 106.105 160.516C105.746 160.138 105.566 159.634 105.566 159.004V158.871C105.566 158.452 105.646 158.078 105.805 157.75C105.966 157.419 106.19 157.161 106.477 156.977C106.766 156.789 107.078 156.695 107.414 156.695C107.964 156.695 108.391 156.876 108.695 157.238C109 157.6 109.152 158.118 109.152 158.793V159.094H106.289C106.299 159.51 106.421 159.848 106.652 160.105C106.887 160.361 107.184 160.488 107.543 160.488C107.798 160.488 108.014 160.436 108.191 160.332C108.368 160.228 108.523 160.09 108.656 159.918L109.098 160.262C108.743 160.806 108.212 161.078 107.504 161.078ZM107.414 157.289C107.122 157.289 106.878 157.396 106.68 157.609C106.482 157.82 106.359 158.117 106.312 158.5H108.43V158.445C108.409 158.078 108.31 157.794 108.133 157.594C107.956 157.391 107.716 157.289 107.414 157.289ZM111.688 160.488C111.945 160.488 112.171 160.41 112.363 160.254C112.556 160.098 112.663 159.902 112.684 159.668H113.367C113.354 159.91 113.271 160.141 113.117 160.359C112.964 160.578 112.758 160.753 112.5 160.883C112.245 161.013 111.974 161.078 111.688 161.078C111.112 161.078 110.654 160.887 110.312 160.504C109.974 160.118 109.805 159.592 109.805 158.926V158.805C109.805 158.393 109.88 158.027 110.031 157.707C110.182 157.387 110.398 157.138 110.68 156.961C110.964 156.784 111.298 156.695 111.684 156.695C112.158 156.695 112.551 156.837 112.863 157.121C113.178 157.405 113.346 157.773 113.367 158.227H112.684C112.663 157.953 112.559 157.729 112.371 157.555C112.186 157.378 111.957 157.289 111.684 157.289C111.316 157.289 111.031 157.422 110.828 157.688C110.628 157.951 110.527 158.332 110.527 158.832V158.969C110.527 159.456 110.628 159.831 110.828 160.094C111.029 160.357 111.315 160.488 111.688 160.488ZM114.965 161H114.242V155H114.965V161ZM118.734 161C118.693 160.917 118.659 160.768 118.633 160.555C118.297 160.904 117.896 161.078 117.43 161.078C117.013 161.078 116.671 160.961 116.402 160.727C116.137 160.49 116.004 160.19 116.004 159.828C116.004 159.388 116.171 159.047 116.504 158.805C116.84 158.56 117.311 158.438 117.918 158.438H118.621V158.105C118.621 157.853 118.546 157.652 118.395 157.504C118.243 157.353 118.021 157.277 117.727 157.277C117.469 157.277 117.253 157.342 117.078 157.473C116.904 157.603 116.816 157.76 116.816 157.945H116.09C116.09 157.734 116.164 157.531 116.312 157.336C116.464 157.138 116.667 156.982 116.922 156.867C117.18 156.753 117.462 156.695 117.77 156.695C118.257 156.695 118.638 156.818 118.914 157.062C119.19 157.305 119.333 157.639 119.344 158.066V160.012C119.344 160.4 119.393 160.708 119.492 160.938V161H118.734ZM117.535 160.449C117.762 160.449 117.977 160.391 118.18 160.273C118.383 160.156 118.53 160.004 118.621 159.816V158.949H118.055C117.169 158.949 116.727 159.208 116.727 159.727C116.727 159.953 116.802 160.13 116.953 160.258C117.104 160.385 117.298 160.449 117.535 160.449ZM122.52 157.422C122.41 157.404 122.292 157.395 122.164 157.395C121.69 157.395 121.368 157.596 121.199 158V161H120.477V156.773H121.18L121.191 157.262C121.428 156.884 121.764 156.695 122.199 156.695C122.34 156.695 122.447 156.714 122.52 156.75V157.422ZM125.641 161C125.599 160.917 125.565 160.768 125.539 160.555C125.203 160.904 124.802 161.078 124.336 161.078C123.919 161.078 123.577 160.961 123.309 160.727C123.043 160.49 122.91 160.19 122.91 159.828C122.91 159.388 123.077 159.047 123.41 158.805C123.746 158.56 124.217 158.438 124.824 158.438H125.527V158.105C125.527 157.853 125.452 157.652 125.301 157.504C125.15 157.353 124.927 157.277 124.633 157.277C124.375 157.277 124.159 157.342 123.984 157.473C123.81 157.603 123.723 157.76 123.723 157.945H122.996C122.996 157.734 123.07 157.531 123.219 157.336C123.37 157.138 123.573 156.982 123.828 156.867C124.086 156.753 124.368 156.695 124.676 156.695C125.163 156.695 125.544 156.818 125.82 157.062C126.096 157.305 126.24 157.639 126.25 158.066V160.012C126.25 160.4 126.299 160.708 126.398 160.938V161H125.641ZM124.441 160.449C124.668 160.449 124.883 160.391 125.086 160.273C125.289 160.156 125.436 160.004 125.527 159.816V158.949H124.961C124.076 158.949 123.633 159.208 123.633 159.727C123.633 159.953 123.708 160.13 123.859 160.258C124.01 160.385 124.204 160.449 124.441 160.449ZM128.363 155.75V156.773H129.152V157.332H128.363V159.953C128.363 160.122 128.398 160.25 128.469 160.336C128.539 160.419 128.659 160.461 128.828 160.461C128.911 160.461 129.026 160.445 129.172 160.414V161C128.982 161.052 128.797 161.078 128.617 161.078C128.294 161.078 128.051 160.98 127.887 160.785C127.723 160.59 127.641 160.312 127.641 159.953V157.332H126.871V156.773H127.641V155.75H128.363ZM130.785 161H130.062V156.773H130.785V161ZM130.004 155.652C130.004 155.535 130.039 155.436 130.109 155.355C130.182 155.275 130.289 155.234 130.43 155.234C130.57 155.234 130.677 155.275 130.75 155.355C130.823 155.436 130.859 155.535 130.859 155.652C130.859 155.77 130.823 155.867 130.75 155.945C130.677 156.023 130.57 156.062 130.43 156.062C130.289 156.062 130.182 156.023 130.109 155.945C130.039 155.867 130.004 155.77 130.004 155.652ZM131.754 158.848C131.754 158.434 131.835 158.061 131.996 157.73C132.16 157.4 132.387 157.145 132.676 156.965C132.967 156.785 133.299 156.695 133.672 156.695C134.247 156.695 134.712 156.895 135.066 157.293C135.423 157.691 135.602 158.221 135.602 158.883V158.934C135.602 159.345 135.522 159.715 135.363 160.043C135.207 160.368 134.982 160.622 134.688 160.805C134.396 160.987 134.06 161.078 133.68 161.078C133.107 161.078 132.642 160.879 132.285 160.48C131.931 160.082 131.754 159.555 131.754 158.898V158.848ZM132.48 158.934C132.48 159.402 132.589 159.779 132.805 160.062C133.023 160.346 133.315 160.488 133.68 160.488C134.047 160.488 134.339 160.345 134.555 160.059C134.771 159.77 134.879 159.366 134.879 158.848C134.879 158.384 134.768 158.009 134.547 157.723C134.328 157.434 134.036 157.289 133.672 157.289C133.315 157.289 133.027 157.431 132.809 157.715C132.59 157.999 132.48 158.405 132.48 158.934ZM137.191 156.773L137.215 157.305C137.538 156.898 137.96 156.695 138.48 156.695C139.374 156.695 139.824 157.199 139.832 158.207V161H139.109V158.203C139.107 157.898 139.036 157.673 138.898 157.527C138.763 157.382 138.551 157.309 138.262 157.309C138.027 157.309 137.822 157.371 137.645 157.496C137.467 157.621 137.329 157.785 137.23 157.988V161H136.508V156.773H137.191ZM142.879 158.691C142.879 158.103 142.957 157.538 143.113 156.996C143.272 156.454 143.508 155.962 143.82 155.52C144.133 155.077 144.457 154.764 144.793 154.582L144.941 155.059C144.561 155.35 144.249 155.796 144.004 156.395C143.762 156.993 143.629 157.664 143.605 158.406L143.602 158.738C143.602 159.743 143.785 160.616 144.152 161.355C144.374 161.798 144.637 162.145 144.941 162.395L144.793 162.836C144.447 162.643 144.116 162.32 143.801 161.867C143.186 160.982 142.879 159.923 142.879 158.691ZM147.336 160.488C147.594 160.488 147.819 160.41 148.012 160.254C148.204 160.098 148.311 159.902 148.332 159.668H149.016C149.003 159.91 148.919 160.141 148.766 160.359C148.612 160.578 148.406 160.753 148.148 160.883C147.893 161.013 147.622 161.078 147.336 161.078C146.76 161.078 146.302 160.887 145.961 160.504C145.622 160.118 145.453 159.592 145.453 158.926V158.805C145.453 158.393 145.529 158.027 145.68 157.707C145.831 157.387 146.047 157.138 146.328 156.961C146.612 156.784 146.947 156.695 147.332 156.695C147.806 156.695 148.199 156.837 148.512 157.121C148.827 157.405 148.995 157.773 149.016 158.227H148.332C148.311 157.953 148.207 157.729 148.02 157.555C147.835 157.378 147.605 157.289 147.332 157.289C146.965 157.289 146.68 157.422 146.477 157.688C146.276 157.951 146.176 158.332 146.176 158.832V158.969C146.176 159.456 146.276 159.831 146.477 160.094C146.677 160.357 146.964 160.488 147.336 160.488ZM149.637 158.848C149.637 158.434 149.717 158.061 149.879 157.73C150.043 157.4 150.27 157.145 150.559 156.965C150.85 156.785 151.182 156.695 151.555 156.695C152.13 156.695 152.595 156.895 152.949 157.293C153.306 157.691 153.484 158.221 153.484 158.883V158.934C153.484 159.345 153.405 159.715 153.246 160.043C153.09 160.368 152.865 160.622 152.57 160.805C152.279 160.987 151.943 161.078 151.562 161.078C150.99 161.078 150.525 160.879 150.168 160.48C149.814 160.082 149.637 159.555 149.637 158.898V158.848ZM150.363 158.934C150.363 159.402 150.471 159.779 150.688 160.062C150.906 160.346 151.198 160.488 151.562 160.488C151.93 160.488 152.221 160.345 152.438 160.059C152.654 159.77 152.762 159.366 152.762 158.848C152.762 158.384 152.651 158.009 152.43 157.723C152.211 157.434 151.919 157.289 151.555 157.289C151.198 157.289 150.91 157.431 150.691 157.715C150.473 157.999 150.363 158.405 150.363 158.934ZM155.074 156.773L155.098 157.305C155.421 156.898 155.842 156.695 156.363 156.695C157.257 156.695 157.707 157.199 157.715 158.207V161H156.992V158.203C156.99 157.898 156.919 157.673 156.781 157.527C156.646 157.382 156.434 157.309 156.145 157.309C155.91 157.309 155.704 157.371 155.527 157.496C155.35 157.621 155.212 157.785 155.113 157.988V161H154.391V156.773H155.074ZM161.266 159.879C161.266 159.684 161.191 159.533 161.043 159.426C160.897 159.316 160.641 159.223 160.273 159.145C159.909 159.066 159.618 158.973 159.402 158.863C159.189 158.754 159.03 158.624 158.926 158.473C158.824 158.322 158.773 158.142 158.773 157.934C158.773 157.587 158.919 157.294 159.211 157.055C159.505 156.815 159.88 156.695 160.336 156.695C160.815 156.695 161.203 156.819 161.5 157.066C161.799 157.314 161.949 157.63 161.949 158.016H161.223C161.223 157.818 161.138 157.647 160.969 157.504C160.802 157.361 160.591 157.289 160.336 157.289C160.073 157.289 159.867 157.346 159.719 157.461C159.57 157.576 159.496 157.725 159.496 157.91C159.496 158.085 159.565 158.216 159.703 158.305C159.841 158.393 160.09 158.478 160.449 158.559C160.811 158.639 161.104 158.736 161.328 158.848C161.552 158.96 161.717 159.095 161.824 159.254C161.934 159.41 161.988 159.602 161.988 159.828C161.988 160.206 161.837 160.509 161.535 160.738C161.233 160.965 160.841 161.078 160.359 161.078C160.021 161.078 159.721 161.018 159.461 160.898C159.201 160.779 158.996 160.612 158.848 160.398C158.702 160.182 158.629 159.949 158.629 159.699H159.352C159.365 159.941 159.461 160.134 159.641 160.277C159.823 160.418 160.062 160.488 160.359 160.488C160.633 160.488 160.852 160.434 161.016 160.324C161.182 160.212 161.266 160.064 161.266 159.879ZM163.91 155.75V156.773H164.699V157.332H163.91V159.953C163.91 160.122 163.945 160.25 164.016 160.336C164.086 160.419 164.206 160.461 164.375 160.461C164.458 160.461 164.573 160.445 164.719 160.414V161C164.529 161.052 164.344 161.078 164.164 161.078C163.841 161.078 163.598 160.98 163.434 160.785C163.27 160.59 163.188 160.312 163.188 159.953V157.332H162.418V156.773H163.188V155.75H163.91ZM167.215 158.73C167.215 159.311 167.138 159.868 166.984 160.402C166.833 160.934 166.6 161.424 166.285 161.875C165.973 162.326 165.645 162.646 165.301 162.836L165.148 162.395C165.549 162.087 165.871 161.611 166.113 160.965C166.358 160.316 166.483 159.598 166.488 158.809V158.684C166.488 158.137 166.431 157.629 166.316 157.16C166.202 156.689 166.042 156.267 165.836 155.895C165.633 155.522 165.404 155.232 165.148 155.023L165.301 154.582C165.645 154.772 165.971 155.09 166.281 155.535C166.594 155.98 166.827 156.471 166.98 157.008C167.137 157.544 167.215 158.118 167.215 158.73Z" fill="black"/>
<rect x="58.25" y="171.25" width="9.5" height="9.5" rx="1.75" fill="#DFAB46" stroke="black" stroke-width="0.5"/>
<path d="M73.543 178.004L75.168 173.312H75.9883L73.8789 179H73.2148L71.1094 173.312H71.9258L73.543 178.004ZM79.0703 179C79.0286 178.917 78.9948 178.768 78.9688 178.555C78.6328 178.904 78.2318 179.078 77.7656 179.078C77.349 179.078 77.0065 178.961 76.7383 178.727C76.4727 178.49 76.3398 178.19 76.3398 177.828C76.3398 177.388 76.5065 177.047 76.8398 176.805C77.1758 176.56 77.6471 176.438 78.2539 176.438H78.957V176.105C78.957 175.853 78.8815 175.652 78.7305 175.504C78.5794 175.353 78.3568 175.277 78.0625 175.277C77.8047 175.277 77.5885 175.342 77.4141 175.473C77.2396 175.603 77.1523 175.76 77.1523 175.945H76.4258C76.4258 175.734 76.5 175.531 76.6484 175.336C76.7995 175.138 77.0026 174.982 77.2578 174.867C77.5156 174.753 77.7982 174.695 78.1055 174.695C78.5924 174.695 78.974 174.818 79.25 175.062C79.526 175.305 79.6693 175.639 79.6797 176.066V178.012C79.6797 178.4 79.7292 178.708 79.8281 178.938V179H79.0703ZM77.8711 178.449C78.0977 178.449 78.3125 178.391 78.5156 178.273C78.7188 178.156 78.8659 178.004 78.957 177.816V176.949H78.3906C77.5052 176.949 77.0625 177.208 77.0625 177.727C77.0625 177.953 77.138 178.13 77.2891 178.258C77.4401 178.385 77.6341 178.449 77.8711 178.449ZM82.8555 175.422C82.7461 175.404 82.6276 175.395 82.5 175.395C82.026 175.395 81.7044 175.596 81.5352 176V179H80.8125V174.773H81.5156L81.5273 175.262C81.7643 174.884 82.1003 174.695 82.5352 174.695C82.6758 174.695 82.7826 174.714 82.8555 174.75V175.422ZM84.3086 179H83.5859V174.773H84.3086V179ZM83.5273 173.652C83.5273 173.535 83.5625 173.436 83.6328 173.355C83.7057 173.275 83.8125 173.234 83.9531 173.234C84.0938 173.234 84.2005 173.275 84.2734 173.355C84.3464 173.436 84.3828 173.535 84.3828 173.652C84.3828 173.77 84.3464 173.867 84.2734 173.945C84.2005 174.023 84.0938 174.062 83.9531 174.062C83.8125 174.062 83.7057 174.023 83.6328 173.945C83.5625 173.867 83.5273 173.77 83.5273 173.652ZM88.0781 179C88.0365 178.917 88.0026 178.768 87.9766 178.555C87.6406 178.904 87.2396 179.078 86.7734 179.078C86.3568 179.078 86.0143 178.961 85.7461 178.727C85.4805 178.49 85.3477 178.19 85.3477 177.828C85.3477 177.388 85.5143 177.047 85.8477 176.805C86.1836 176.56 86.6549 176.438 87.2617 176.438H87.9648V176.105C87.9648 175.853 87.8893 175.652 87.7383 175.504C87.5872 175.353 87.3646 175.277 87.0703 175.277C86.8125 175.277 86.5964 175.342 86.4219 175.473C86.2474 175.603 86.1602 175.76 86.1602 175.945H85.4336C85.4336 175.734 85.5078 175.531 85.6562 175.336C85.8073 175.138 86.0104 174.982 86.2656 174.867C86.5234 174.753 86.806 174.695 87.1133 174.695C87.6003 174.695 87.9818 174.818 88.2578 175.062C88.5339 175.305 88.6771 175.639 88.6875 176.066V178.012C88.6875 178.4 88.737 178.708 88.8359 178.938V179H88.0781ZM86.8789 178.449C87.1055 178.449 87.3203 178.391 87.5234 178.273C87.7266 178.156 87.8737 178.004 87.9648 177.816V176.949H87.3984C86.513 176.949 86.0703 177.208 86.0703 177.727C86.0703 177.953 86.1458 178.13 86.2969 178.258C86.4479 178.385 86.6419 178.449 86.8789 178.449ZM93.3984 176.934C93.3984 177.579 93.25 178.099 92.9531 178.492C92.6562 178.883 92.2578 179.078 91.7578 179.078C91.224 179.078 90.8112 178.889 90.5195 178.512L90.4844 179H89.8203V173H90.543V175.238C90.8346 174.876 91.237 174.695 91.75 174.695C92.263 174.695 92.6654 174.889 92.957 175.277C93.2513 175.665 93.3984 176.197 93.3984 176.871V176.934ZM92.6758 176.852C92.6758 176.359 92.5807 175.979 92.3906 175.711C92.2005 175.443 91.9271 175.309 91.5703 175.309C91.0938 175.309 90.7513 175.53 90.543 175.973V177.801C90.7643 178.243 91.1094 178.465 91.5781 178.465C91.9245 178.465 92.194 178.331 92.3867 178.062C92.5794 177.794 92.6758 177.391 92.6758 176.852ZM95.0977 179H94.375V173H95.0977V179ZM98.0117 179.078C97.4388 179.078 96.9727 178.891 96.6133 178.516C96.2539 178.138 96.0742 177.634 96.0742 177.004V176.871C96.0742 176.452 96.1536 176.078 96.3125 175.75C96.474 175.419 96.6979 175.161 96.9844 174.977C97.2734 174.789 97.5859 174.695 97.9219 174.695C98.4714 174.695 98.8984 174.876 99.2031 175.238C99.5078 175.6 99.6602 176.118 99.6602 176.793V177.094H96.7969C96.8073 177.51 96.9284 177.848 97.1602 178.105C97.3945 178.361 97.6914 178.488 98.0508 178.488C98.306 178.488 98.5221 178.436 98.6992 178.332C98.8763 178.228 99.0312 178.09 99.1641 177.918L99.6055 178.262C99.2513 178.806 98.7201 179.078 98.0117 179.078ZM97.9219 175.289C97.6302 175.289 97.3854 175.396 97.1875 175.609C96.9896 175.82 96.8672 176.117 96.8203 176.5H98.9375V176.445C98.9167 176.078 98.8177 175.794 98.6406 175.594C98.4635 175.391 98.224 175.289 97.9219 175.289ZM100.613 179V173.312H102.219C102.714 173.312 103.151 173.422 103.531 173.641C103.911 173.859 104.204 174.171 104.41 174.574C104.618 174.978 104.724 175.441 104.727 175.965V176.328C104.727 176.865 104.622 177.335 104.414 177.738C104.208 178.142 103.913 178.452 103.527 178.668C103.145 178.884 102.698 178.995 102.188 179H100.613ZM101.363 173.93V178.387H102.152C102.73 178.387 103.18 178.207 103.5 177.848C103.823 177.488 103.984 176.977 103.984 176.312V175.98C103.984 175.335 103.832 174.833 103.527 174.477C103.225 174.117 102.796 173.935 102.238 173.93H101.363ZM107.504 179.078C106.931 179.078 106.465 178.891 106.105 178.516C105.746 178.138 105.566 177.634 105.566 177.004V176.871C105.566 176.452 105.646 176.078 105.805 175.75C105.966 175.419 106.19 175.161 106.477 174.977C106.766 174.789 107.078 174.695 107.414 174.695C107.964 174.695 108.391 174.876 108.695 175.238C109 175.6 109.152 176.118 109.152 176.793V177.094H106.289C106.299 177.51 106.421 177.848 106.652 178.105C106.887 178.361 107.184 178.488 107.543 178.488C107.798 178.488 108.014 178.436 108.191 178.332C108.368 178.228 108.523 178.09 108.656 177.918L109.098 178.262C108.743 178.806 108.212 179.078 107.504 179.078ZM107.414 175.289C107.122 175.289 106.878 175.396 106.68 175.609C106.482 175.82 106.359 176.117 106.312 176.5H108.43V176.445C108.409 176.078 108.31 175.794 108.133 175.594C107.956 175.391 107.716 175.289 107.414 175.289ZM111.688 178.488C111.945 178.488 112.171 178.41 112.363 178.254C112.556 178.098 112.663 177.902 112.684 177.668H113.367C113.354 177.91 113.271 178.141 113.117 178.359C112.964 178.578 112.758 178.753 112.5 178.883C112.245 179.013 111.974 179.078 111.688 179.078C111.112 179.078 110.654 178.887 110.312 178.504C109.974 178.118 109.805 177.592 109.805 176.926V176.805C109.805 176.393 109.88 176.027 110.031 175.707C110.182 175.387 110.398 175.138 110.68 174.961C110.964 174.784 111.298 174.695 111.684 174.695C112.158 174.695 112.551 174.837 112.863 175.121C113.178 175.405 113.346 175.773 113.367 176.227H112.684C112.663 175.953 112.559 175.729 112.371 175.555C112.186 175.378 111.957 175.289 111.684 175.289C111.316 175.289 111.031 175.422 110.828 175.688C110.628 175.951 110.527 176.332 110.527 176.832V176.969C110.527 177.456 110.628 177.831 110.828 178.094C111.029 178.357 111.315 178.488 111.688 178.488ZM114.965 179H114.242V173H114.965V179ZM118.734 179C118.693 178.917 118.659 178.768 118.633 178.555C118.297 178.904 117.896 179.078 117.43 179.078C117.013 179.078 116.671 178.961 116.402 178.727C116.137 178.49 116.004 178.19 116.004 177.828C116.004 177.388 116.171 177.047 116.504 176.805C116.84 176.56 117.311 176.438 117.918 176.438H118.621V176.105C118.621 175.853 118.546 175.652 118.395 175.504C118.243 175.353 118.021 175.277 117.727 175.277C117.469 175.277 117.253 175.342 117.078 175.473C116.904 175.603 116.816 175.76 116.816 175.945H116.09C116.09 175.734 116.164 175.531 116.312 175.336C116.464 175.138 116.667 174.982 116.922 174.867C117.18 174.753 117.462 174.695 117.77 174.695C118.257 174.695 118.638 174.818 118.914 175.062C119.19 175.305 119.333 175.639 119.344 176.066V178.012C119.344 178.4 119.393 178.708 119.492 178.938V179H118.734ZM117.535 178.449C117.762 178.449 117.977 178.391 118.18 178.273C118.383 178.156 118.53 178.004 118.621 177.816V176.949H118.055C117.169 176.949 116.727 177.208 116.727 177.727C116.727 177.953 116.802 178.13 116.953 178.258C117.104 178.385 117.298 178.449 117.535 178.449ZM122.52 175.422C122.41 175.404 122.292 175.395 122.164 175.395C121.69 175.395 121.368 175.596 121.199 176V179H120.477V174.773H121.18L121.191 175.262C121.428 174.884 121.764 174.695 122.199 174.695C122.34 174.695 122.447 174.714 122.52 174.75V175.422ZM125.641 179C125.599 178.917 125.565 178.768 125.539 178.555C125.203 178.904 124.802 179.078 124.336 179.078C123.919 179.078 123.577 178.961 123.309 178.727C123.043 178.49 122.91 178.19 122.91 177.828C122.91 177.388 123.077 177.047 123.41 176.805C123.746 176.56 124.217 176.438 124.824 176.438H125.527V176.105C125.527 175.853 125.452 175.652 125.301 175.504C125.15 175.353 124.927 175.277 124.633 175.277C124.375 175.277 124.159 175.342 123.984 175.473C123.81 175.603 123.723 175.76 123.723 175.945H122.996C122.996 175.734 123.07 175.531 123.219 175.336C123.37 175.138 123.573 174.982 123.828 174.867C124.086 174.753 124.368 174.695 124.676 174.695C125.163 174.695 125.544 174.818 125.82 175.062C126.096 175.305 126.24 175.639 126.25 176.066V178.012C126.25 178.4 126.299 178.708 126.398 178.938V179H125.641ZM124.441 178.449C124.668 178.449 124.883 178.391 125.086 178.273C125.289 178.156 125.436 178.004 125.527 177.816V176.949H124.961C124.076 176.949 123.633 177.208 123.633 177.727C123.633 177.953 123.708 178.13 123.859 178.258C124.01 178.385 124.204 178.449 124.441 178.449ZM128.363 173.75V174.773H129.152V175.332H128.363V177.953C128.363 178.122 128.398 178.25 128.469 178.336C128.539 178.419 128.659 178.461 128.828 178.461C128.911 178.461 129.026 178.445 129.172 178.414V179C128.982 179.052 128.797 179.078 128.617 179.078C128.294 179.078 128.051 178.98 127.887 178.785C127.723 178.59 127.641 178.312 127.641 177.953V175.332H126.871V174.773H127.641V173.75H128.363ZM129.73 176.848C129.73 176.434 129.811 176.061 129.973 175.73C130.137 175.4 130.363 175.145 130.652 174.965C130.944 174.785 131.276 174.695 131.648 174.695C132.224 174.695 132.689 174.895 133.043 175.293C133.4 175.691 133.578 176.221 133.578 176.883V176.934C133.578 177.345 133.499 177.715 133.34 178.043C133.184 178.368 132.958 178.622 132.664 178.805C132.372 178.987 132.036 179.078 131.656 179.078C131.083 179.078 130.618 178.879 130.262 178.48C129.908 178.082 129.73 177.555 129.73 176.898V176.848ZM130.457 176.934C130.457 177.402 130.565 177.779 130.781 178.062C131 178.346 131.292 178.488 131.656 178.488C132.023 178.488 132.315 178.345 132.531 178.059C132.747 177.77 132.855 177.366 132.855 176.848C132.855 176.384 132.745 176.009 132.523 175.723C132.305 175.434 132.013 175.289 131.648 175.289C131.292 175.289 131.004 175.431 130.785 175.715C130.566 175.999 130.457 176.405 130.457 176.934ZM136.527 175.422C136.418 175.404 136.299 175.395 136.172 175.395C135.698 175.395 135.376 175.596 135.207 176V179H134.484V174.773H135.188L135.199 175.262C135.436 174.884 135.772 174.695 136.207 174.695C136.348 174.695 136.454 174.714 136.527 174.75V175.422Z" fill="black"/>
<rect x="58.25" y="135.25" width="9.5" height="9.5" rx="1.75" fill="#188A53" stroke="black" stroke-width="0.5"/>
<path d="M72.4648 143H71.7148V137.312H72.4648V143ZM73.5508 140.852C73.5508 140.203 73.7044 139.682 74.0117 139.289C74.319 138.893 74.7214 138.695 75.2188 138.695C75.7135 138.695 76.1055 138.865 76.3945 139.203V137H77.1172V143H76.4531L76.418 142.547C76.1289 142.901 75.7266 143.078 75.2109 143.078C74.7214 143.078 74.3216 142.878 74.0117 142.477C73.7044 142.076 73.5508 141.552 73.5508 140.906V140.852ZM74.2734 140.934C74.2734 141.413 74.3724 141.788 74.5703 142.059C74.7682 142.329 75.0417 142.465 75.3906 142.465C75.849 142.465 76.1836 142.259 76.3945 141.848V139.906C76.1784 139.508 75.8464 139.309 75.3984 139.309C75.0443 139.309 74.7682 139.445 74.5703 139.719C74.3724 139.992 74.2734 140.397 74.2734 140.934ZM79.9961 143.078C79.4232 143.078 78.957 142.891 78.5977 142.516C78.2383 142.138 78.0586 141.634 78.0586 141.004V140.871C78.0586 140.452 78.138 140.078 78.2969 139.75C78.4583 139.419 78.6823 139.161 78.9688 138.977C79.2578 138.789 79.5703 138.695 79.9062 138.695C80.4557 138.695 80.8828 138.876 81.1875 139.238C81.4922 139.6 81.6445 140.118 81.6445 140.793V141.094H78.7812C78.7917 141.51 78.9128 141.848 79.1445 142.105C79.3789 142.361 79.6758 142.488 80.0352 142.488C80.2904 142.488 80.5065 142.436 80.6836 142.332C80.8607 142.228 81.0156 142.09 81.1484 141.918L81.5898 142.262C81.2357 142.806 80.7044 143.078 79.9961 143.078ZM79.9062 139.289C79.6146 139.289 79.3698 139.396 79.1719 139.609C78.974 139.82 78.8516 140.117 78.8047 140.5H80.9219V140.445C80.901 140.078 80.8021 139.794 80.625 139.594C80.4479 139.391 80.2083 139.289 79.9062 139.289ZM83.168 138.773L83.1914 139.305C83.5143 138.898 83.9362 138.695 84.457 138.695C85.3503 138.695 85.8008 139.199 85.8086 140.207V143H85.0859V140.203C85.0833 139.898 85.013 139.673 84.875 139.527C84.7396 139.382 84.5273 139.309 84.2383 139.309C84.0039 139.309 83.7982 139.371 83.6211 139.496C83.444 139.621 83.306 139.785 83.207 139.988V143H82.4844V138.773H83.168ZM87.8789 137.75V138.773H88.668V139.332H87.8789V141.953C87.8789 142.122 87.9141 142.25 87.9844 142.336C88.0547 142.419 88.1745 142.461 88.3438 142.461C88.4271 142.461 88.5417 142.445 88.6875 142.414V143C88.4974 143.052 88.3125 143.078 88.1328 143.078C87.8099 143.078 87.5664 142.98 87.4023 142.785C87.2383 142.59 87.1562 142.312 87.1562 141.953V139.332H86.3867V138.773H87.1562V137.75H87.8789ZM90.3008 143H89.5781V138.773H90.3008V143ZM89.5195 137.652C89.5195 137.535 89.5547 137.436 89.625 137.355C89.6979 137.275 89.8047 137.234 89.9453 137.234C90.0859 137.234 90.1927 137.275 90.2656 137.355C90.3385 137.436 90.375 137.535 90.375 137.652C90.375 137.77 90.3385 137.867 90.2656 137.945C90.1927 138.023 90.0859 138.062 89.9453 138.062C89.8047 138.062 89.6979 138.023 89.625 137.945C89.5547 137.867 89.5195 137.77 89.5195 137.652ZM91.7031 143V139.332H91.0352V138.773H91.7031V138.414C91.7031 137.943 91.8372 137.576 92.1055 137.312C92.3763 137.049 92.7578 136.918 93.25 136.918C93.5417 136.918 93.9102 136.997 94.3555 137.156L94.2344 137.766C93.9089 137.635 93.599 137.57 93.3047 137.57C92.9948 137.57 92.7708 137.641 92.6328 137.781C92.4974 137.919 92.4297 138.128 92.4297 138.406V138.773H93.293V139.332H92.4297V143H91.7031ZM94.7148 143H93.9883V138.773H94.7148V143ZM97.6445 143.078C97.0716 143.078 96.6055 142.891 96.2461 142.516C95.8867 142.138 95.707 141.634 95.707 141.004V140.871C95.707 140.452 95.7865 140.078 95.9453 139.75C96.1068 139.419 96.3307 139.161 96.6172 138.977C96.9062 138.789 97.2188 138.695 97.5547 138.695C98.1042 138.695 98.5312 138.876 98.8359 139.238C99.1406 139.6 99.293 140.118 99.293 140.793V141.094H96.4297C96.4401 141.51 96.5612 141.848 96.793 142.105C97.0273 142.361 97.3242 142.488 97.6836 142.488C97.9388 142.488 98.1549 142.436 98.332 142.332C98.5091 142.228 98.6641 142.09 98.7969 141.918L99.2383 142.262C98.8841 142.806 98.3529 143.078 97.6445 143.078ZM97.5547 139.289C97.263 139.289 97.0182 139.396 96.8203 139.609C96.6224 139.82 96.5 140.117 96.4531 140.5H98.5703V140.445C98.5495 140.078 98.4505 139.794 98.2734 139.594C98.0964 139.391 97.8568 139.289 97.5547 139.289ZM102.176 139.422C102.066 139.404 101.948 139.395 101.82 139.395C101.346 139.395 101.025 139.596 100.855 140V143H100.133V138.773H100.836L100.848 139.262C101.085 138.884 101.421 138.695 101.855 138.695C101.996 138.695 102.103 138.714 102.176 138.75V139.422Z" fill="black"/>
<rect x="111.25" y="135.25" width="9.5" height="9.5" rx="1.75" fill="#1B68DD" stroke="black" stroke-width="0.5"/>
<path d="M129.031 143H128.277L125.414 138.617V143H124.66V137.312H125.414L128.285 141.715V137.312H129.031V143ZM132.859 142.582C132.578 142.913 132.165 143.078 131.621 143.078C131.171 143.078 130.827 142.948 130.59 142.688C130.355 142.424 130.237 142.036 130.234 141.523V138.773H130.957V141.504C130.957 142.145 131.217 142.465 131.738 142.465C132.29 142.465 132.658 142.259 132.84 141.848V138.773H133.562V143H132.875L132.859 142.582ZM135.344 138.773L135.363 139.242C135.673 138.878 136.091 138.695 136.617 138.695C137.208 138.695 137.611 138.922 137.824 139.375C137.965 139.172 138.147 139.008 138.371 138.883C138.598 138.758 138.865 138.695 139.172 138.695C140.099 138.695 140.57 139.186 140.586 140.168V143H139.863V140.211C139.863 139.909 139.794 139.684 139.656 139.535C139.518 139.384 139.286 139.309 138.961 139.309C138.693 139.309 138.47 139.389 138.293 139.551C138.116 139.71 138.013 139.924 137.984 140.195V143H137.258V140.23C137.258 139.616 136.957 139.309 136.355 139.309C135.882 139.309 135.557 139.51 135.383 139.914V143H134.66V138.773H135.344ZM143.434 143.078C142.861 143.078 142.395 142.891 142.035 142.516C141.676 142.138 141.496 141.634 141.496 141.004V140.871C141.496 140.452 141.576 140.078 141.734 139.75C141.896 139.419 142.12 139.161 142.406 138.977C142.695 138.789 143.008 138.695 143.344 138.695C143.893 138.695 144.32 138.876 144.625 139.238C144.93 139.6 145.082 140.118 145.082 140.793V141.094H142.219C142.229 141.51 142.35 141.848 142.582 142.105C142.816 142.361 143.113 142.488 143.473 142.488C143.728 142.488 143.944 142.436 144.121 142.332C144.298 142.228 144.453 142.09 144.586 141.918L145.027 142.262C144.673 142.806 144.142 143.078 143.434 143.078ZM143.344 139.289C143.052 139.289 142.807 139.396 142.609 139.609C142.411 139.82 142.289 140.117 142.242 140.5H144.359V140.445C144.339 140.078 144.24 139.794 144.062 139.594C143.885 139.391 143.646 139.289 143.344 139.289ZM147.965 139.422C147.855 139.404 147.737 139.395 147.609 139.395C147.135 139.395 146.814 139.596 146.645 140V143H145.922V138.773H146.625L146.637 139.262C146.874 138.884 147.21 138.695 147.645 138.695C147.785 138.695 147.892 138.714 147.965 138.75V139.422ZM149.418 143H148.695V138.773H149.418V143ZM148.637 137.652C148.637 137.535 148.672 137.436 148.742 137.355C148.815 137.275 148.922 137.234 149.062 137.234C149.203 137.234 149.31 137.275 149.383 137.355C149.456 137.436 149.492 137.535 149.492 137.652C149.492 137.77 149.456 137.867 149.383 137.945C149.31 138.023 149.203 138.062 149.062 138.062C148.922 138.062 148.815 138.023 148.742 137.945C148.672 137.867 148.637 137.77 148.637 137.652ZM152.273 142.488C152.531 142.488 152.757 142.41 152.949 142.254C153.142 142.098 153.249 141.902 153.27 141.668H153.953C153.94 141.91 153.857 142.141 153.703 142.359C153.549 142.578 153.344 142.753 153.086 142.883C152.831 143.013 152.56 143.078 152.273 143.078C151.698 143.078 151.24 142.887 150.898 142.504C150.56 142.118 150.391 141.592 150.391 140.926V140.805C150.391 140.393 150.466 140.027 150.617 139.707C150.768 139.387 150.984 139.138 151.266 138.961C151.549 138.784 151.884 138.695 152.27 138.695C152.743 138.695 153.137 138.837 153.449 139.121C153.764 139.405 153.932 139.773 153.953 140.227H153.27C153.249 139.953 153.145 139.729 152.957 139.555C152.772 139.378 152.543 139.289 152.27 139.289C151.902 139.289 151.617 139.422 151.414 139.688C151.214 139.951 151.113 140.332 151.113 140.832V140.969C151.113 141.456 151.214 141.831 151.414 142.094C151.615 142.357 151.901 142.488 152.273 142.488ZM155.633 142.387H158.328V143H154.879V137.312H155.633V142.387ZM159.855 143H159.133V138.773H159.855V143ZM159.074 137.652C159.074 137.535 159.109 137.436 159.18 137.355C159.253 137.275 159.359 137.234 159.5 137.234C159.641 137.234 159.747 137.275 159.82 137.355C159.893 137.436 159.93 137.535 159.93 137.652C159.93 137.77 159.893 137.867 159.82 137.945C159.747 138.023 159.641 138.062 159.5 138.062C159.359 138.062 159.253 138.023 159.18 137.945C159.109 137.867 159.074 137.77 159.074 137.652ZM161.996 137.75V138.773H162.785V139.332H161.996V141.953C161.996 142.122 162.031 142.25 162.102 142.336C162.172 142.419 162.292 142.461 162.461 142.461C162.544 142.461 162.659 142.445 162.805 142.414V143C162.615 143.052 162.43 143.078 162.25 143.078C161.927 143.078 161.684 142.98 161.52 142.785C161.355 142.59 161.273 142.312 161.273 141.953V139.332H160.504V138.773H161.273V137.75H161.996ZM165.387 143.078C164.814 143.078 164.348 142.891 163.988 142.516C163.629 142.138 163.449 141.634 163.449 141.004V140.871C163.449 140.452 163.529 140.078 163.688 139.75C163.849 139.419 164.073 139.161 164.359 138.977C164.648 138.789 164.961 138.695 165.297 138.695C165.846 138.695 166.273 138.876 166.578 139.238C166.883 139.6 167.035 140.118 167.035 140.793V141.094H164.172C164.182 141.51 164.303 141.848 164.535 142.105C164.77 142.361 165.066 142.488 165.426 142.488C165.681 142.488 165.897 142.436 166.074 142.332C166.251 142.228 166.406 142.09 166.539 141.918L166.98 142.262C166.626 142.806 166.095 143.078 165.387 143.078ZM165.297 139.289C165.005 139.289 164.76 139.396 164.562 139.609C164.365 139.82 164.242 140.117 164.195 140.5H166.312V140.445C166.292 140.078 166.193 139.794 166.016 139.594C165.839 139.391 165.599 139.289 165.297 139.289ZM169.918 139.422C169.809 139.404 169.69 139.395 169.562 139.395C169.089 139.395 168.767 139.596 168.598 140V143H167.875V138.773H168.578L168.59 139.262C168.827 138.884 169.163 138.695 169.598 138.695C169.738 138.695 169.845 138.714 169.918 138.75V139.422ZM173.039 143C172.997 142.917 172.964 142.768 172.938 142.555C172.602 142.904 172.201 143.078 171.734 143.078C171.318 143.078 170.975 142.961 170.707 142.727C170.441 142.49 170.309 142.19 170.309 141.828C170.309 141.388 170.475 141.047 170.809 140.805C171.145 140.56 171.616 140.438 172.223 140.438H172.926V140.105C172.926 139.853 172.85 139.652 172.699 139.504C172.548 139.353 172.326 139.277 172.031 139.277C171.773 139.277 171.557 139.342 171.383 139.473C171.208 139.603 171.121 139.76 171.121 139.945H170.395C170.395 139.734 170.469 139.531 170.617 139.336C170.768 139.138 170.971 138.982 171.227 138.867C171.484 138.753 171.767 138.695 172.074 138.695C172.561 138.695 172.943 138.818 173.219 139.062C173.495 139.305 173.638 139.639 173.648 140.066V142.012C173.648 142.4 173.698 142.708 173.797 142.938V143H173.039ZM171.84 142.449C172.066 142.449 172.281 142.391 172.484 142.273C172.688 142.156 172.835 142.004 172.926 141.816V140.949H172.359C171.474 140.949 171.031 141.208 171.031 141.727C171.031 141.953 171.107 142.13 171.258 142.258C171.409 142.385 171.603 142.449 171.84 142.449ZM175.566 143H174.844V137H175.566V143Z" fill="black"/>
<path d="M126.743 55V48.6016H128.834C129.529 48.6016 130.05 48.7451 130.399 49.0322C130.75 49.3193 130.926 49.7441 130.926 50.3066C130.926 50.6055 130.841 50.8706 130.671 51.1021C130.501 51.3306 130.27 51.5078 129.977 51.6338C130.323 51.7305 130.595 51.915 130.794 52.1875C130.997 52.457 131.098 52.7793 131.098 53.1543C131.098 53.7285 130.912 54.1797 130.54 54.5078C130.167 54.8359 129.642 55 128.962 55H126.743ZM127.586 52.0073V54.3101H128.979C129.372 54.3101 129.681 54.209 129.907 54.0068C130.135 53.8018 130.25 53.5205 130.25 53.1631C130.25 52.3926 129.831 52.0073 128.993 52.0073H127.586ZM127.586 51.3306H128.861C129.23 51.3306 129.524 51.2383 129.744 51.0537C129.967 50.8691 130.078 50.6187 130.078 50.3022C130.078 49.9507 129.976 49.6958 129.771 49.5376C129.565 49.3765 129.253 49.2959 128.834 49.2959H127.586V51.3306ZM135.158 55C135.111 54.9062 135.073 54.7393 135.044 54.499C134.666 54.8916 134.215 55.0879 133.69 55.0879C133.222 55.0879 132.836 54.9561 132.535 54.6924C132.236 54.4258 132.086 54.0889 132.086 53.6816C132.086 53.1865 132.274 52.8027 132.649 52.5303C133.027 52.2549 133.557 52.1172 134.24 52.1172H135.031V51.7437C135.031 51.4595 134.946 51.2339 134.776 51.0669C134.606 50.897 134.355 50.812 134.024 50.812C133.734 50.812 133.491 50.8853 133.295 51.0317C133.099 51.1782 133 51.3555 133 51.5635H132.183C132.183 51.3262 132.267 51.0977 132.434 50.8779C132.604 50.6553 132.832 50.4795 133.119 50.3506C133.409 50.2217 133.727 50.1572 134.073 50.1572C134.621 50.1572 135.05 50.2949 135.36 50.5703C135.671 50.8428 135.832 51.2192 135.844 51.6997V53.8882C135.844 54.3247 135.899 54.6719 136.011 54.9297V55H135.158ZM133.809 54.3804C134.064 54.3804 134.306 54.3145 134.534 54.1826C134.763 54.0508 134.928 53.8794 135.031 53.6685V52.6929H134.394C133.397 52.6929 132.899 52.9844 132.899 53.5674C132.899 53.8223 132.984 54.0215 133.154 54.165C133.324 54.3086 133.542 54.3804 133.809 54.3804ZM141.144 52.6753C141.144 53.4019 140.977 53.9863 140.643 54.4287C140.309 54.8682 139.86 55.0879 139.298 55.0879C138.697 55.0879 138.233 54.8755 137.905 54.4507L137.865 55H137.118V48.25H137.931V50.7681C138.259 50.3608 138.712 50.1572 139.289 50.1572C139.866 50.1572 140.319 50.3755 140.647 50.812C140.978 51.2485 141.144 51.8462 141.144 52.605V52.6753ZM140.331 52.583C140.331 52.0293 140.224 51.6016 140.01 51.2998C139.796 50.998 139.488 50.8472 139.087 50.8472C138.551 50.8472 138.166 51.0962 137.931 51.5942V53.6509C138.18 54.1489 138.568 54.3979 139.096 54.3979C139.485 54.3979 139.789 54.2471 140.005 53.9453C140.222 53.6436 140.331 53.1895 140.331 52.583ZM144.145 55.0879C143.5 55.0879 142.976 54.877 142.572 54.4551C142.167 54.0303 141.965 53.4634 141.965 52.7544V52.605C141.965 52.1333 142.055 51.7129 142.233 51.3438C142.415 50.9717 142.667 50.6816 142.989 50.4736C143.314 50.2627 143.666 50.1572 144.044 50.1572C144.662 50.1572 145.143 50.3608 145.485 50.7681C145.828 51.1753 146 51.7583 146 52.5171V52.8555H142.778C142.79 53.3242 142.926 53.7036 143.187 53.9937C143.451 54.2808 143.785 54.4243 144.189 54.4243C144.476 54.4243 144.719 54.3657 144.918 54.2485C145.118 54.1313 145.292 53.9761 145.441 53.7827L145.938 54.1694C145.54 54.7817 144.942 55.0879 144.145 55.0879ZM144.044 50.8252C143.716 50.8252 143.44 50.9453 143.218 51.1855C142.995 51.4229 142.857 51.7568 142.805 52.1875H145.187V52.126C145.163 51.7129 145.052 51.3936 144.853 51.168C144.653 50.9395 144.384 50.8252 144.044 50.8252ZM147.828 55H147.015V48.25H147.828V55ZM152.336 52.4951V55H151.493V48.6016H153.853C154.553 48.6016 155.101 48.7803 155.496 49.1377C155.895 49.4951 156.094 49.9683 156.094 50.5571C156.094 51.1782 155.899 51.6572 155.509 51.9941C155.123 52.3281 154.567 52.4951 153.844 52.4951H152.336ZM152.336 51.8052H153.853C154.304 51.8052 154.649 51.6997 154.89 51.4888C155.13 51.2749 155.25 50.9673 155.25 50.5659C155.25 50.1851 155.13 49.8804 154.89 49.6519C154.649 49.4233 154.32 49.3047 153.901 49.2959H152.336V51.8052ZM159.926 55C159.879 54.9062 159.841 54.7393 159.812 54.499C159.434 54.8916 158.982 55.0879 158.458 55.0879C157.989 55.0879 157.604 54.9561 157.302 54.6924C157.003 54.4258 156.854 54.0889 156.854 53.6816C156.854 53.1865 157.042 52.8027 157.417 52.5303C157.794 52.2549 158.325 52.1172 159.007 52.1172H159.798V51.7437C159.798 51.4595 159.713 51.2339 159.543 51.0669C159.374 50.897 159.123 50.812 158.792 50.812C158.502 50.812 158.259 50.8853 158.062 51.0317C157.866 51.1782 157.768 51.3555 157.768 51.5635H156.951C156.951 51.3262 157.034 51.0977 157.201 50.8779C157.371 50.6553 157.6 50.4795 157.887 50.3506C158.177 50.2217 158.495 50.1572 158.84 50.1572C159.388 50.1572 159.817 50.2949 160.128 50.5703C160.438 50.8428 160.6 51.2192 160.611 51.6997V53.8882C160.611 54.3247 160.667 54.6719 160.778 54.9297V55H159.926ZM158.577 54.3804C158.832 54.3804 159.073 54.3145 159.302 54.1826C159.53 54.0508 159.696 53.8794 159.798 53.6685V52.6929H159.161C158.165 52.6929 157.667 52.9844 157.667 53.5674C157.667 53.8223 157.752 54.0215 157.922 54.165C158.092 54.3086 158.31 54.3804 158.577 54.3804ZM164.184 50.9746C164.061 50.9541 163.928 50.9438 163.784 50.9438C163.251 50.9438 162.889 51.1709 162.699 51.625V55H161.886V50.2451H162.677L162.69 50.7944C162.957 50.3696 163.334 50.1572 163.824 50.1572C163.982 50.1572 164.102 50.1777 164.184 50.2188V50.9746ZM167.704 53.7388C167.704 53.519 167.621 53.3491 167.454 53.229C167.29 53.106 167.001 53.0005 166.588 52.9126C166.178 52.8247 165.851 52.7192 165.608 52.5962C165.368 52.4731 165.189 52.3267 165.072 52.1567C164.958 51.9868 164.9 51.7847 164.9 51.5503C164.9 51.1606 165.064 50.8311 165.393 50.5615C165.724 50.292 166.146 50.1572 166.658 50.1572C167.197 50.1572 167.634 50.2964 167.968 50.5747C168.305 50.853 168.473 51.209 168.473 51.6426H167.656C167.656 51.4199 167.561 51.228 167.37 51.0669C167.183 50.9058 166.945 50.8252 166.658 50.8252C166.362 50.8252 166.131 50.8896 165.964 51.0186C165.797 51.1475 165.713 51.3159 165.713 51.5239C165.713 51.7202 165.791 51.8682 165.946 51.9678C166.102 52.0674 166.381 52.1626 166.786 52.2534C167.193 52.3442 167.522 52.4526 167.774 52.5786C168.026 52.7046 168.212 52.8569 168.333 53.0356C168.456 53.2114 168.517 53.4268 168.517 53.6816C168.517 54.1064 168.347 54.4478 168.007 54.7056C167.667 54.9604 167.227 55.0879 166.685 55.0879C166.304 55.0879 165.967 55.0205 165.674 54.8857C165.381 54.751 165.151 54.5635 164.984 54.3232C164.82 54.0801 164.738 53.8179 164.738 53.5366H165.551C165.565 53.8091 165.674 54.0259 165.876 54.187C166.081 54.3452 166.351 54.4243 166.685 54.4243C166.992 54.4243 167.238 54.3628 167.423 54.2397C167.61 54.1138 167.704 53.9468 167.704 53.7388ZM171.549 55.0879C170.905 55.0879 170.38 54.877 169.976 54.4551C169.572 54.0303 169.37 53.4634 169.37 52.7544V52.605C169.37 52.1333 169.459 51.7129 169.638 51.3438C169.819 50.9717 170.071 50.6816 170.394 50.4736C170.719 50.2627 171.07 50.1572 171.448 50.1572C172.066 50.1572 172.547 50.3608 172.89 50.7681C173.232 51.1753 173.404 51.7583 173.404 52.5171V52.8555H170.183C170.194 53.3242 170.331 53.7036 170.591 53.9937C170.855 54.2808 171.189 54.4243 171.593 54.4243C171.88 54.4243 172.124 54.3657 172.323 54.2485C172.522 54.1313 172.696 53.9761 172.846 53.7827L173.342 54.1694C172.944 54.7817 172.346 55.0879 171.549 55.0879ZM171.448 50.8252C171.12 50.8252 170.845 50.9453 170.622 51.1855C170.399 51.4229 170.262 51.7568 170.209 52.1875H172.591V52.126C172.567 51.7129 172.456 51.3936 172.257 51.168C172.058 50.9395 171.788 50.8252 171.448 50.8252ZM176.647 50.9746C176.524 50.9541 176.391 50.9438 176.247 50.9438C175.714 50.9438 175.352 51.1709 175.162 51.625V55H174.349V50.2451H175.14L175.153 50.7944C175.419 50.3696 175.797 50.1572 176.287 50.1572C176.445 50.1572 176.565 50.1777 176.647 50.2188V50.9746Z" fill="black"/>
</svg>
