<svg width="817" height="579" viewBox="0 0 817 579" fill="none" xmlns="http://www.w3.org/2000/svg">
<rect width="817" height="579" rx="32" fill="white"/>
<rect x="63" y="251" width="167" height="96" rx="48" fill="#C9FBE2"/>
<rect x="63" y="251" width="167" height="96" rx="48" stroke="#007A70" stroke-width="6"/>
<path d="M130.497 309.12L117.377 301.18V297.58L130.497 289.62V294.04L119.477 299.96V298.8L130.497 304.68V309.12ZM144.234 278.74V310H139.054V278.74H144.234ZM149.113 310V288.76H154.313V310H149.113ZM151.733 284.84C150.88 284.84 150.133 284.613 149.493 284.16C148.867 283.693 148.553 283.047 148.553 282.22C148.553 281.407 148.867 280.773 149.493 280.32C150.133 279.867 150.88 279.64 151.733 279.64C152.573 279.64 153.307 279.867 153.933 280.32C154.56 280.773 154.873 281.407 154.873 282.22C154.873 283.047 154.56 283.693 153.933 284.16C153.307 284.613 152.573 284.84 151.733 284.84ZM162.486 289.62L175.586 297.58V301.18L162.486 309.12V304.68L173.506 298.8V299.96L162.486 294.04V289.62Z" fill="#00B395"/>
<rect x="317" y="61" width="181" height="96" rx="48" fill="#FFF5CB"/>
<rect x="317" y="61" width="181" height="96" rx="48" stroke="#D17805" stroke-width="6"/>
<path d="M384.212 119.12L371.092 111.18V107.58L384.212 99.62V104.04L373.192 109.96V108.8L384.212 114.68V119.12ZM400.109 120.4C398.602 120.4 397.349 120.147 396.349 119.64C395.362 119.133 394.582 118.467 394.009 117.64C393.449 116.813 393.049 115.9 392.809 114.9C392.582 113.9 392.469 112.9 392.469 111.9C392.469 111.407 392.469 110.893 392.469 110.36C392.469 109.827 392.469 109.287 392.469 108.74V98.76H397.749V107.92C397.749 108.4 397.749 108.86 397.749 109.3C397.749 109.74 397.749 110.153 397.749 110.54C397.749 111.487 397.862 112.367 398.089 113.18C398.316 113.98 398.729 114.627 399.329 115.12C399.942 115.613 400.802 115.86 401.909 115.86C402.962 115.86 403.869 115.553 404.629 114.94C405.389 114.313 405.976 113.527 406.389 112.58C406.816 111.633 407.029 110.673 407.029 109.7L408.829 110.9C408.829 112.193 408.629 113.413 408.229 114.56C407.829 115.693 407.249 116.7 406.489 117.58C405.729 118.46 404.809 119.153 403.729 119.66C402.662 120.153 401.456 120.4 400.109 120.4ZM407.029 120V98.76H412.289V120H407.029ZM422.432 88.74V120H417.252V88.74H422.432ZM430.771 99.62L443.871 107.58V111.18L430.771 119.12V114.68L441.791 108.8V109.96L430.771 104.04V99.62Z" fill="#D17805"/>
<path d="M408 181V231" stroke="#2A3751" stroke-width="6" stroke-linecap="round" stroke-linejoin="round"/>
<path d="M408 359V409" stroke="#2A3751" stroke-width="6" stroke-linecap="round" stroke-linejoin="round"/>
<rect x="586" y="251" width="167" height="96" rx="48" fill="#C9FBE2"/>
<rect x="586" y="251" width="167" height="96" rx="48" stroke="#007A70" stroke-width="6"/>
<path d="M653.497 309.12L640.377 301.18V297.58L653.497 289.62V294.04L642.477 299.96V298.8L653.497 304.68V309.12ZM667.234 278.74V310H662.054V278.74H667.234ZM672.113 310V288.76H677.313V310H672.113ZM674.733 284.84C673.88 284.84 673.133 284.613 672.493 284.16C671.867 283.693 671.553 283.047 671.553 282.22C671.553 281.407 671.867 280.773 672.493 280.32C673.133 279.867 673.88 279.64 674.733 279.64C675.573 279.64 676.307 279.867 676.933 280.32C677.56 280.773 677.873 281.407 677.873 282.22C677.873 283.047 677.56 283.693 676.933 284.16C676.307 284.613 675.573 284.84 674.733 284.84ZM685.486 289.62L698.586 297.58V301.18L685.486 309.12V304.68L696.506 298.8V299.96L685.486 294.04V289.62Z" fill="#00B395"/>
<rect x="324" y="251" width="167" height="96" rx="48" fill="#C9FBE2"/>
<rect x="324" y="251" width="167" height="96" rx="48" stroke="#007A70" stroke-width="6"/>
<path d="M391.497 309.12L378.377 301.18V297.58L391.497 289.62V294.04L380.477 299.96V298.8L391.497 304.68V309.12ZM405.234 278.74V310H400.054V278.74H405.234ZM410.113 310V288.76H415.313V310H410.113ZM412.733 284.84C411.88 284.84 411.133 284.613 410.493 284.16C409.867 283.693 409.553 283.047 409.553 282.22C409.553 281.407 409.867 280.773 410.493 280.32C411.133 279.867 411.88 279.64 412.733 279.64C413.573 279.64 414.307 279.867 414.933 280.32C415.56 280.773 415.873 281.407 415.873 282.22C415.873 283.047 415.56 283.693 414.933 284.16C414.307 284.613 413.573 284.84 412.733 284.84ZM423.486 289.62L436.586 297.58V301.18L423.486 309.12V304.68L434.506 298.8V299.96L423.486 294.04V289.62Z" fill="#00B395"/>
<path d="M145 359V409" stroke="#2A3751" stroke-width="6" stroke-linecap="round" stroke-linejoin="round"/>
<path d="M670 359V409" stroke="#2A3751" stroke-width="6" stroke-linecap="round" stroke-linejoin="round"/>
<rect x="583" y="421" width="172" height="96" rx="48" fill="#E9D6FF"/>
<rect x="583" y="421" width="172" height="96" rx="48" stroke="#5F00B2" stroke-width="6"/>
<path d="M650.336 479.12L637.216 471.18V467.58L650.336 459.62V464.04L639.316 469.96V468.8L650.336 474.68V479.12ZM658.593 488.74V458.76H663.853V488.74H658.593ZM670.553 480.44C668.9 480.44 667.366 480.013 665.953 479.16C664.553 478.293 663.42 477.113 662.553 475.62C661.7 474.127 661.273 472.447 661.273 470.58C661.273 470.527 661.273 470.48 661.273 470.44C661.273 470.387 661.273 470.34 661.273 470.3L663.873 470.24C663.873 470.267 663.873 470.3 663.873 470.34C663.873 470.38 663.873 470.413 663.873 470.44C663.873 471.48 664.133 472.407 664.653 473.22C665.173 474.02 665.846 474.653 666.673 475.12C667.513 475.573 668.406 475.8 669.353 475.8C670.886 475.8 672.193 475.273 673.273 474.22C674.353 473.167 674.893 471.533 674.893 469.32C674.893 467.093 674.353 465.467 673.273 464.44C672.206 463.4 670.9 462.88 669.353 462.88C668.42 462.88 667.533 463.107 666.693 463.56C665.866 464 665.186 464.613 664.653 465.4C664.133 466.187 663.873 467.107 663.873 468.16L661.273 468.04C661.273 466.16 661.7 464.493 662.553 463.04C663.42 461.587 664.553 460.453 665.953 459.64C667.366 458.813 668.9 458.4 670.553 458.4C672.273 458.4 673.873 458.82 675.353 459.66C676.846 460.5 678.046 461.733 678.953 463.36C679.873 464.987 680.333 466.973 680.333 469.32C680.333 471.733 679.886 473.767 678.993 475.42C678.1 477.073 676.913 478.327 675.433 479.18C673.953 480.02 672.326 480.44 670.553 480.44ZM687.647 459.62L700.747 467.58V471.18L687.647 479.12V474.68L698.667 468.8V469.96L687.647 464.04V459.62Z" fill="#9A2EFF"/>
<rect x="322" y="421" width="172" height="96" rx="48" fill="#E9D6FF"/>
<rect x="322" y="421" width="172" height="96" rx="48" stroke="#5F00B2" stroke-width="6"/>
<path d="M389.336 479.12L376.216 471.18V467.58L389.336 459.62V464.04L378.316 469.96V468.8L389.336 474.68V479.12ZM397.593 488.74V458.76H402.853V488.74H397.593ZM409.553 480.44C407.9 480.44 406.366 480.013 404.953 479.16C403.553 478.293 402.42 477.113 401.553 475.62C400.7 474.127 400.273 472.447 400.273 470.58C400.273 470.527 400.273 470.48 400.273 470.44C400.273 470.387 400.273 470.34 400.273 470.3L402.873 470.24C402.873 470.267 402.873 470.3 402.873 470.34C402.873 470.38 402.873 470.413 402.873 470.44C402.873 471.48 403.133 472.407 403.653 473.22C404.173 474.02 404.846 474.653 405.673 475.12C406.513 475.573 407.406 475.8 408.353 475.8C409.886 475.8 411.193 475.273 412.273 474.22C413.353 473.167 413.893 471.533 413.893 469.32C413.893 467.093 413.353 465.467 412.273 464.44C411.206 463.4 409.9 462.88 408.353 462.88C407.42 462.88 406.533 463.107 405.693 463.56C404.866 464 404.186 464.613 403.653 465.4C403.133 466.187 402.873 467.107 402.873 468.16L400.273 468.04C400.273 466.16 400.7 464.493 401.553 463.04C402.42 461.587 403.553 460.453 404.953 459.64C406.366 458.813 407.9 458.4 409.553 458.4C411.273 458.4 412.873 458.82 414.353 459.66C415.846 460.5 417.046 461.733 417.953 463.36C418.873 464.987 419.333 466.973 419.333 469.32C419.333 471.733 418.886 473.767 417.993 475.42C417.1 477.073 415.913 478.327 414.433 479.18C412.953 480.02 411.326 480.44 409.553 480.44ZM426.647 459.62L439.747 467.58V471.18L426.647 479.12V474.68L437.667 468.8V469.96L426.647 464.04V459.62Z" fill="#9A2EFF"/>
<rect x="61" y="421" width="172" height="96" rx="48" fill="#E9D6FF"/>
<rect x="61" y="421" width="172" height="96" rx="48" stroke="#5F00B2" stroke-width="6"/>
<path d="M128.336 479.12L115.216 471.18V467.58L128.336 459.62V464.04L117.316 469.96V468.8L128.336 474.68V479.12ZM136.593 488.74V458.76H141.853V488.74H136.593ZM148.553 480.44C146.9 480.44 145.366 480.013 143.953 479.16C142.553 478.293 141.42 477.113 140.553 475.62C139.7 474.127 139.273 472.447 139.273 470.58C139.273 470.527 139.273 470.48 139.273 470.44C139.273 470.387 139.273 470.34 139.273 470.3L141.873 470.24C141.873 470.267 141.873 470.3 141.873 470.34C141.873 470.38 141.873 470.413 141.873 470.44C141.873 471.48 142.133 472.407 142.653 473.22C143.173 474.02 143.846 474.653 144.673 475.12C145.513 475.573 146.406 475.8 147.353 475.8C148.886 475.8 150.193 475.273 151.273 474.22C152.353 473.167 152.893 471.533 152.893 469.32C152.893 467.093 152.353 465.467 151.273 464.44C150.206 463.4 148.9 462.88 147.353 462.88C146.42 462.88 145.533 463.107 144.693 463.56C143.866 464 143.186 464.613 142.653 465.4C142.133 466.187 141.873 467.107 141.873 468.16L139.273 468.04C139.273 466.16 139.7 464.493 140.553 463.04C141.42 461.587 142.553 460.453 143.953 459.64C145.366 458.813 146.9 458.4 148.553 458.4C150.273 458.4 151.873 458.82 153.353 459.66C154.846 460.5 156.046 461.733 156.953 463.36C157.873 464.987 158.333 466.973 158.333 469.32C158.333 471.733 157.886 473.767 156.993 475.42C156.1 477.073 154.913 478.327 153.433 479.18C151.953 480.02 150.326 480.44 148.553 480.44ZM165.647 459.62L178.747 467.58V471.18L165.647 479.12V474.68L176.667 468.8V469.96L165.647 464.04V459.62Z" fill="#9A2EFF"/>
<path d="M435 193H426C412.4 193 408.333 185 408 181C407.667 185 403.6 193 390 193H381" stroke="#2A3751" stroke-width="6" stroke-linecap="round" stroke-linejoin="round"/>
<path d="M669 233V233C669 210.909 651.091 193 629 193H433" stroke="#2A3751" stroke-width="6" stroke-linecap="round" stroke-linejoin="round"/>
<path d="M145 233V233C145 210.909 162.909 193 185 193H381" stroke="#2A3751" stroke-width="6" stroke-linecap="round" stroke-linejoin="round"/>
</svg>
