<svg width="2118" height="865" viewBox="0 0 2118 865" fill="none" xmlns="http://www.w3.org/2000/svg">
<rect width="2118" height="865" rx="32" fill="white"/>
<rect x="176" y="492" width="167" height="96" rx="48" fill="#C9FBE2"/>
<rect x="176" y="492" width="167" height="96" rx="48" stroke="#007A70" stroke-width="6"/>
<path d="M243.497 550.12L230.377 542.18V538.58L243.497 530.62V535.04L232.477 540.96V539.8L243.497 545.68V550.12ZM257.234 519.74V551H252.054V519.74H257.234ZM262.113 551V529.76H267.313V551H262.113ZM264.733 525.84C263.88 525.84 263.133 525.613 262.493 525.16C261.867 524.693 261.553 524.047 261.553 523.22C261.553 522.407 261.867 521.773 262.493 521.32C263.133 520.867 263.88 520.64 264.733 520.64C265.573 520.64 266.307 520.867 266.933 521.32C267.56 521.773 267.873 522.407 267.873 523.22C267.873 524.047 267.56 524.693 266.933 525.16C266.307 525.613 265.573 525.84 264.733 525.84ZM275.486 530.62L288.586 538.58V542.18L275.486 550.12V545.68L286.506 539.8V540.96L275.486 535.04V530.62Z" fill="#00B395"/>
<rect x="430" y="302" width="181" height="96" rx="48" fill="#FFF5CB"/>
<rect x="430" y="302" width="181" height="96" rx="48" stroke="#D17805" stroke-width="6"/>
<path d="M497.212 360.12L484.092 352.18V348.58L497.212 340.62V345.04L486.192 350.96V349.8L497.212 355.68V360.12ZM513.109 361.4C511.602 361.4 510.349 361.147 509.349 360.64C508.362 360.133 507.582 359.467 507.009 358.64C506.449 357.813 506.049 356.9 505.809 355.9C505.582 354.9 505.469 353.9 505.469 352.9C505.469 352.407 505.469 351.893 505.469 351.36C505.469 350.827 505.469 350.287 505.469 349.74V339.76H510.749V348.92C510.749 349.4 510.749 349.86 510.749 350.3C510.749 350.74 510.749 351.153 510.749 351.54C510.749 352.487 510.862 353.367 511.089 354.18C511.316 354.98 511.729 355.627 512.329 356.12C512.942 356.613 513.802 356.86 514.909 356.86C515.962 356.86 516.869 356.553 517.629 355.94C518.389 355.313 518.976 354.527 519.389 353.58C519.816 352.633 520.029 351.673 520.029 350.7L521.829 351.9C521.829 353.193 521.629 354.413 521.229 355.56C520.829 356.693 520.249 357.7 519.489 358.58C518.729 359.46 517.809 360.153 516.729 360.66C515.662 361.153 514.456 361.4 513.109 361.4ZM520.029 361V339.76H525.289V361H520.029ZM535.432 329.74V361H530.252V329.74H535.432ZM543.771 340.62L556.871 348.58V352.18L543.771 360.12V355.68L554.791 349.8V350.96L543.771 345.04V340.62Z" fill="#D17805"/>
<path d="M521 422V472" stroke="#2A3751" stroke-width="6" stroke-linecap="round" stroke-linejoin="round"/>
<path d="M521 600V650" stroke="#2A3751" stroke-width="6" stroke-linecap="round" stroke-linejoin="round"/>
<rect x="699" y="492" width="167" height="96" rx="48" fill="#C9FBE2"/>
<rect x="699" y="492" width="167" height="96" rx="48" stroke="#007A70" stroke-width="6"/>
<path d="M766.497 550.12L753.377 542.18V538.58L766.497 530.62V535.04L755.477 540.96V539.8L766.497 545.68V550.12ZM780.234 519.74V551H775.054V519.74H780.234ZM785.113 551V529.76H790.313V551H785.113ZM787.733 525.84C786.88 525.84 786.133 525.613 785.493 525.16C784.867 524.693 784.553 524.047 784.553 523.22C784.553 522.407 784.867 521.773 785.493 521.32C786.133 520.867 786.88 520.64 787.733 520.64C788.573 520.64 789.307 520.867 789.933 521.32C790.56 521.773 790.873 522.407 790.873 523.22C790.873 524.047 790.56 524.693 789.933 525.16C789.307 525.613 788.573 525.84 787.733 525.84ZM798.486 530.62L811.586 538.58V542.18L798.486 550.12V545.68L809.506 539.8V540.96L798.486 535.04V530.62Z" fill="#00B395"/>
<rect x="437" y="492" width="167" height="96" rx="48" fill="#C9FBE2"/>
<rect x="437" y="492" width="167" height="96" rx="48" stroke="#007A70" stroke-width="6"/>
<path d="M504.497 550.12L491.377 542.18V538.58L504.497 530.62V535.04L493.477 540.96V539.8L504.497 545.68V550.12ZM518.234 519.74V551H513.054V519.74H518.234ZM523.113 551V529.76H528.313V551H523.113ZM525.733 525.84C524.88 525.84 524.133 525.613 523.493 525.16C522.867 524.693 522.553 524.047 522.553 523.22C522.553 522.407 522.867 521.773 523.493 521.32C524.133 520.867 524.88 520.64 525.733 520.64C526.573 520.64 527.307 520.867 527.933 521.32C528.56 521.773 528.873 522.407 528.873 523.22C528.873 524.047 528.56 524.693 527.933 525.16C527.307 525.613 526.573 525.84 525.733 525.84ZM536.486 530.62L549.586 538.58V542.18L536.486 550.12V545.68L547.506 539.8V540.96L536.486 535.04V530.62Z" fill="#00B395"/>
<path d="M258 600V650" stroke="#2A3751" stroke-width="6" stroke-linecap="round" stroke-linejoin="round"/>
<path d="M783 600V650" stroke="#2A3751" stroke-width="6" stroke-linecap="round" stroke-linejoin="round"/>
<rect x="696" y="662" width="172" height="96" rx="48" fill="#E9D6FF"/>
<rect x="696" y="662" width="172" height="96" rx="48" stroke="#5F00B2" stroke-width="6"/>
<path d="M763.336 720.12L750.216 712.18V708.58L763.336 700.62V705.04L752.316 710.96V709.8L763.336 715.68V720.12ZM771.593 729.74V699.76H776.853V729.74H771.593ZM783.553 721.44C781.9 721.44 780.366 721.013 778.953 720.16C777.553 719.293 776.42 718.113 775.553 716.62C774.7 715.127 774.273 713.447 774.273 711.58C774.273 711.527 774.273 711.48 774.273 711.44C774.273 711.387 774.273 711.34 774.273 711.3L776.873 711.24C776.873 711.267 776.873 711.3 776.873 711.34C776.873 711.38 776.873 711.413 776.873 711.44C776.873 712.48 777.133 713.407 777.653 714.22C778.173 715.02 778.846 715.653 779.673 716.12C780.513 716.573 781.406 716.8 782.353 716.8C783.886 716.8 785.193 716.273 786.273 715.22C787.353 714.167 787.893 712.533 787.893 710.32C787.893 708.093 787.353 706.467 786.273 705.44C785.206 704.4 783.9 703.88 782.353 703.88C781.42 703.88 780.533 704.107 779.693 704.56C778.866 705 778.186 705.613 777.653 706.4C777.133 707.187 776.873 708.107 776.873 709.16L774.273 709.04C774.273 707.16 774.7 705.493 775.553 704.04C776.42 702.587 777.553 701.453 778.953 700.64C780.366 699.813 781.9 699.4 783.553 699.4C785.273 699.4 786.873 699.82 788.353 700.66C789.846 701.5 791.046 702.733 791.953 704.36C792.873 705.987 793.333 707.973 793.333 710.32C793.333 712.733 792.886 714.767 791.993 716.42C791.1 718.073 789.913 719.327 788.433 720.18C786.953 721.02 785.326 721.44 783.553 721.44ZM800.647 700.62L813.747 708.58V712.18L800.647 720.12V715.68L811.667 709.8V710.96L800.647 705.04V700.62Z" fill="#9A2EFF"/>
<rect x="435" y="662" width="172" height="96" rx="48" fill="#E9D6FF"/>
<rect x="435" y="662" width="172" height="96" rx="48" stroke="#5F00B2" stroke-width="6"/>
<path d="M502.336 720.12L489.216 712.18V708.58L502.336 700.62V705.04L491.316 710.96V709.8L502.336 715.68V720.12ZM510.593 729.74V699.76H515.853V729.74H510.593ZM522.553 721.44C520.9 721.44 519.366 721.013 517.953 720.16C516.553 719.293 515.42 718.113 514.553 716.62C513.7 715.127 513.273 713.447 513.273 711.58C513.273 711.527 513.273 711.48 513.273 711.44C513.273 711.387 513.273 711.34 513.273 711.3L515.873 711.24C515.873 711.267 515.873 711.3 515.873 711.34C515.873 711.38 515.873 711.413 515.873 711.44C515.873 712.48 516.133 713.407 516.653 714.22C517.173 715.02 517.846 715.653 518.673 716.12C519.513 716.573 520.406 716.8 521.353 716.8C522.886 716.8 524.193 716.273 525.273 715.22C526.353 714.167 526.893 712.533 526.893 710.32C526.893 708.093 526.353 706.467 525.273 705.44C524.206 704.4 522.9 703.88 521.353 703.88C520.42 703.88 519.533 704.107 518.693 704.56C517.866 705 517.186 705.613 516.653 706.4C516.133 707.187 515.873 708.107 515.873 709.16L513.273 709.04C513.273 707.16 513.7 705.493 514.553 704.04C515.42 702.587 516.553 701.453 517.953 700.64C519.366 699.813 520.9 699.4 522.553 699.4C524.273 699.4 525.873 699.82 527.353 700.66C528.846 701.5 530.046 702.733 530.953 704.36C531.873 705.987 532.333 707.973 532.333 710.32C532.333 712.733 531.886 714.767 530.993 716.42C530.1 718.073 528.913 719.327 527.433 720.18C525.953 721.02 524.326 721.44 522.553 721.44ZM539.647 700.62L552.747 708.58V712.18L539.647 720.12V715.68L550.667 709.8V710.96L539.647 705.04V700.62Z" fill="#9A2EFF"/>
<rect x="174" y="662" width="172" height="96" rx="48" fill="#E9D6FF"/>
<rect x="174" y="662" width="172" height="96" rx="48" stroke="#5F00B2" stroke-width="6"/>
<path d="M241.336 720.12L228.216 712.18V708.58L241.336 700.62V705.04L230.316 710.96V709.8L241.336 715.68V720.12ZM249.593 729.74V699.76H254.853V729.74H249.593ZM261.553 721.44C259.9 721.44 258.366 721.013 256.953 720.16C255.553 719.293 254.42 718.113 253.553 716.62C252.7 715.127 252.273 713.447 252.273 711.58C252.273 711.527 252.273 711.48 252.273 711.44C252.273 711.387 252.273 711.34 252.273 711.3L254.873 711.24C254.873 711.267 254.873 711.3 254.873 711.34C254.873 711.38 254.873 711.413 254.873 711.44C254.873 712.48 255.133 713.407 255.653 714.22C256.173 715.02 256.846 715.653 257.673 716.12C258.513 716.573 259.406 716.8 260.353 716.8C261.886 716.8 263.193 716.273 264.273 715.22C265.353 714.167 265.893 712.533 265.893 710.32C265.893 708.093 265.353 706.467 264.273 705.44C263.206 704.4 261.9 703.88 260.353 703.88C259.42 703.88 258.533 704.107 257.693 704.56C256.866 705 256.186 705.613 255.653 706.4C255.133 707.187 254.873 708.107 254.873 709.16L252.273 709.04C252.273 707.16 252.7 705.493 253.553 704.04C254.42 702.587 255.553 701.453 256.953 700.64C258.366 699.813 259.9 699.4 261.553 699.4C263.273 699.4 264.873 699.82 266.353 700.66C267.846 701.5 269.046 702.733 269.953 704.36C270.873 705.987 271.333 707.973 271.333 710.32C271.333 712.733 270.886 714.767 269.993 716.42C269.1 718.073 267.913 719.327 266.433 720.18C264.953 721.02 263.326 721.44 261.553 721.44ZM278.647 700.62L291.747 708.58V712.18L278.647 720.12V715.68L289.667 709.8V710.96L278.647 705.04V700.62Z" fill="#9A2EFF"/>
<path d="M548 434H539C525.4 434 521.333 426 521 422C520.667 426 516.6 434 503 434H494" stroke="#2A3751" stroke-width="6" stroke-linecap="round" stroke-linejoin="round"/>
<path d="M782 474V474C782 451.909 764.091 434 742 434H546" stroke="#2A3751" stroke-width="6" stroke-linecap="round" stroke-linejoin="round"/>
<path d="M258 474V474C258 451.909 275.909 434 298 434H494" stroke="#2A3751" stroke-width="6" stroke-linecap="round" stroke-linejoin="round"/>
<rect x="1252" y="492" width="167" height="96" rx="48" fill="#C9FBE2"/>
<rect x="1252" y="492" width="167" height="96" rx="48" stroke="#007A70" stroke-width="6"/>
<path d="M1319.5 550.12L1306.38 542.18V538.58L1319.5 530.62V535.04L1308.48 540.96V539.8L1319.5 545.68V550.12ZM1333.23 519.74V551H1328.05V519.74H1333.23ZM1338.11 551V529.76H1343.31V551H1338.11ZM1340.73 525.84C1339.88 525.84 1339.13 525.613 1338.49 525.16C1337.87 524.693 1337.55 524.047 1337.55 523.22C1337.55 522.407 1337.87 521.773 1338.49 521.32C1339.13 520.867 1339.88 520.64 1340.73 520.64C1341.57 520.64 1342.31 520.867 1342.93 521.32C1343.56 521.773 1343.87 522.407 1343.87 523.22C1343.87 524.047 1343.56 524.693 1342.93 525.16C1342.31 525.613 1341.57 525.84 1340.73 525.84ZM1351.49 530.62L1364.59 538.58V542.18L1351.49 550.12V545.68L1362.51 539.8V540.96L1351.49 535.04V530.62Z" fill="#00B395"/>
<rect x="1506" y="302" width="181" height="96" rx="48" fill="#FFF5CB"/>
<rect x="1506" y="302" width="181" height="96" rx="48" stroke="#D17805" stroke-width="6"/>
<path d="M1573.21 360.12L1560.09 352.18V348.58L1573.21 340.62V345.04L1562.19 350.96V349.8L1573.21 355.68V360.12ZM1589.11 361.4C1587.6 361.4 1586.35 361.147 1585.35 360.64C1584.36 360.133 1583.58 359.467 1583.01 358.64C1582.45 357.813 1582.05 356.9 1581.81 355.9C1581.58 354.9 1581.47 353.9 1581.47 352.9C1581.47 352.407 1581.47 351.893 1581.47 351.36C1581.47 350.827 1581.47 350.287 1581.47 349.74V339.76H1586.75V348.92C1586.75 349.4 1586.75 349.86 1586.75 350.3C1586.75 350.74 1586.75 351.153 1586.75 351.54C1586.75 352.487 1586.86 353.367 1587.09 354.18C1587.32 354.98 1587.73 355.627 1588.33 356.12C1588.94 356.613 1589.8 356.86 1590.91 356.86C1591.96 356.86 1592.87 356.553 1593.63 355.94C1594.39 355.313 1594.98 354.527 1595.39 353.58C1595.82 352.633 1596.03 351.673 1596.03 350.7L1597.83 351.9C1597.83 353.193 1597.63 354.413 1597.23 355.56C1596.83 356.693 1596.25 357.7 1595.49 358.58C1594.73 359.46 1593.81 360.153 1592.73 360.66C1591.66 361.153 1590.46 361.4 1589.11 361.4ZM1596.03 361V339.76H1601.29V361H1596.03ZM1611.43 329.74V361H1606.25V329.74H1611.43ZM1619.77 340.62L1632.87 348.58V352.18L1619.77 360.12V355.68L1630.79 349.8V350.96L1619.77 345.04V340.62Z" fill="#D17805"/>
<path d="M1597 422V472" stroke="#2A3751" stroke-width="6" stroke-linecap="round" stroke-linejoin="round"/>
<path d="M1597 600V650" stroke="#2A3751" stroke-width="6" stroke-linecap="round" stroke-linejoin="round"/>
<rect x="1775" y="492" width="167" height="96" rx="48" fill="#C9FBE2"/>
<rect x="1775" y="492" width="167" height="96" rx="48" stroke="#007A70" stroke-width="6"/>
<path d="M1842.5 550.12L1829.38 542.18V538.58L1842.5 530.62V535.04L1831.48 540.96V539.8L1842.5 545.68V550.12ZM1856.23 519.74V551H1851.05V519.74H1856.23ZM1861.11 551V529.76H1866.31V551H1861.11ZM1863.73 525.84C1862.88 525.84 1862.13 525.613 1861.49 525.16C1860.87 524.693 1860.55 524.047 1860.55 523.22C1860.55 522.407 1860.87 521.773 1861.49 521.32C1862.13 520.867 1862.88 520.64 1863.73 520.64C1864.57 520.64 1865.31 520.867 1865.93 521.32C1866.56 521.773 1866.87 522.407 1866.87 523.22C1866.87 524.047 1866.56 524.693 1865.93 525.16C1865.31 525.613 1864.57 525.84 1863.73 525.84ZM1874.49 530.62L1887.59 538.58V542.18L1874.49 550.12V545.68L1885.51 539.8V540.96L1874.49 535.04V530.62Z" fill="#00B395"/>
<rect x="1513" y="492" width="167" height="96" rx="48" fill="#C9FBE2"/>
<rect x="1513" y="492" width="167" height="96" rx="48" stroke="#007A70" stroke-width="6"/>
<path d="M1580.5 550.12L1567.38 542.18V538.58L1580.5 530.62V535.04L1569.48 540.96V539.8L1580.5 545.68V550.12ZM1594.23 519.74V551H1589.05V519.74H1594.23ZM1599.11 551V529.76H1604.31V551H1599.11ZM1601.73 525.84C1600.88 525.84 1600.13 525.613 1599.49 525.16C1598.87 524.693 1598.55 524.047 1598.55 523.22C1598.55 522.407 1598.87 521.773 1599.49 521.32C1600.13 520.867 1600.88 520.64 1601.73 520.64C1602.57 520.64 1603.31 520.867 1603.93 521.32C1604.56 521.773 1604.87 522.407 1604.87 523.22C1604.87 524.047 1604.56 524.693 1603.93 525.16C1603.31 525.613 1602.57 525.84 1601.73 525.84ZM1612.49 530.62L1625.59 538.58V542.18L1612.49 550.12V545.68L1623.51 539.8V540.96L1612.49 535.04V530.62Z" fill="#00B395"/>
<path d="M1334 600V650" stroke="#2A3751" stroke-width="6" stroke-linecap="round" stroke-linejoin="round"/>
<path d="M1859 600V650" stroke="#2A3751" stroke-width="6" stroke-linecap="round" stroke-linejoin="round"/>
<rect x="1772" y="662" width="172" height="96" rx="48" fill="#E9D6FF"/>
<rect x="1772" y="662" width="172" height="96" rx="48" stroke="#5F00B2" stroke-width="6"/>
<path d="M1839.34 720.12L1826.22 712.18V708.58L1839.34 700.62V705.04L1828.32 710.96V709.8L1839.34 715.68V720.12ZM1847.59 729.74V699.76H1852.85V729.74H1847.59ZM1859.55 721.44C1857.9 721.44 1856.37 721.013 1854.95 720.16C1853.55 719.293 1852.42 718.113 1851.55 716.62C1850.7 715.127 1850.27 713.447 1850.27 711.58C1850.27 711.527 1850.27 711.48 1850.27 711.44C1850.27 711.387 1850.27 711.34 1850.27 711.3L1852.87 711.24C1852.87 711.267 1852.87 711.3 1852.87 711.34C1852.87 711.38 1852.87 711.413 1852.87 711.44C1852.87 712.48 1853.13 713.407 1853.65 714.22C1854.17 715.02 1854.85 715.653 1855.67 716.12C1856.51 716.573 1857.41 716.8 1858.35 716.8C1859.89 716.8 1861.19 716.273 1862.27 715.22C1863.35 714.167 1863.89 712.533 1863.89 710.32C1863.89 708.093 1863.35 706.467 1862.27 705.44C1861.21 704.4 1859.9 703.88 1858.35 703.88C1857.42 703.88 1856.53 704.107 1855.69 704.56C1854.87 705 1854.19 705.613 1853.65 706.4C1853.13 707.187 1852.87 708.107 1852.87 709.16L1850.27 709.04C1850.27 707.16 1850.7 705.493 1851.55 704.04C1852.42 702.587 1853.55 701.453 1854.95 700.64C1856.37 699.813 1857.9 699.4 1859.55 699.4C1861.27 699.4 1862.87 699.82 1864.35 700.66C1865.85 701.5 1867.05 702.733 1867.95 704.36C1868.87 705.987 1869.33 707.973 1869.33 710.32C1869.33 712.733 1868.89 714.767 1867.99 716.42C1867.1 718.073 1865.91 719.327 1864.43 720.18C1862.95 721.02 1861.33 721.44 1859.55 721.44ZM1876.65 700.62L1889.75 708.58V712.18L1876.65 720.12V715.68L1887.67 709.8V710.96L1876.65 705.04V700.62Z" fill="#9A2EFF"/>
<rect x="1511" y="662" width="172" height="96" rx="48" fill="#E9D6FF"/>
<rect x="1511" y="662" width="172" height="96" rx="48" stroke="#5F00B2" stroke-width="6"/>
<path d="M1578.34 720.12L1565.22 712.18V708.58L1578.34 700.62V705.04L1567.32 710.96V709.8L1578.34 715.68V720.12ZM1586.59 729.74V699.76H1591.85V729.74H1586.59ZM1598.55 721.44C1596.9 721.44 1595.37 721.013 1593.95 720.16C1592.55 719.293 1591.42 718.113 1590.55 716.62C1589.7 715.127 1589.27 713.447 1589.27 711.58C1589.27 711.527 1589.27 711.48 1589.27 711.44C1589.27 711.387 1589.27 711.34 1589.27 711.3L1591.87 711.24C1591.87 711.267 1591.87 711.3 1591.87 711.34C1591.87 711.38 1591.87 711.413 1591.87 711.44C1591.87 712.48 1592.13 713.407 1592.65 714.22C1593.17 715.02 1593.85 715.653 1594.67 716.12C1595.51 716.573 1596.41 716.8 1597.35 716.8C1598.89 716.8 1600.19 716.273 1601.27 715.22C1602.35 714.167 1602.89 712.533 1602.89 710.32C1602.89 708.093 1602.35 706.467 1601.27 705.44C1600.21 704.4 1598.9 703.88 1597.35 703.88C1596.42 703.88 1595.53 704.107 1594.69 704.56C1593.87 705 1593.19 705.613 1592.65 706.4C1592.13 707.187 1591.87 708.107 1591.87 709.16L1589.27 709.04C1589.27 707.16 1589.7 705.493 1590.55 704.04C1591.42 702.587 1592.55 701.453 1593.95 700.64C1595.37 699.813 1596.9 699.4 1598.55 699.4C1600.27 699.4 1601.87 699.82 1603.35 700.66C1604.85 701.5 1606.05 702.733 1606.95 704.36C1607.87 705.987 1608.33 707.973 1608.33 710.32C1608.33 712.733 1607.89 714.767 1606.99 716.42C1606.1 718.073 1604.91 719.327 1603.43 720.18C1601.95 721.02 1600.33 721.44 1598.55 721.44ZM1615.65 700.62L1628.75 708.58V712.18L1615.65 720.12V715.68L1626.67 709.8V710.96L1615.65 705.04V700.62Z" fill="#9A2EFF"/>
<rect x="1250" y="662" width="172" height="96" rx="48" fill="#E9D6FF"/>
<rect x="1250" y="662" width="172" height="96" rx="48" stroke="#5F00B2" stroke-width="6"/>
<path d="M1317.34 720.12L1304.22 712.18V708.58L1317.34 700.62V705.04L1306.32 710.96V709.8L1317.34 715.68V720.12ZM1325.59 729.74V699.76H1330.85V729.74H1325.59ZM1337.55 721.44C1335.9 721.44 1334.37 721.013 1332.95 720.16C1331.55 719.293 1330.42 718.113 1329.55 716.62C1328.7 715.127 1328.27 713.447 1328.27 711.58C1328.27 711.527 1328.27 711.48 1328.27 711.44C1328.27 711.387 1328.27 711.34 1328.27 711.3L1330.87 711.24C1330.87 711.267 1330.87 711.3 1330.87 711.34C1330.87 711.38 1330.87 711.413 1330.87 711.44C1330.87 712.48 1331.13 713.407 1331.65 714.22C1332.17 715.02 1332.85 715.653 1333.67 716.12C1334.51 716.573 1335.41 716.8 1336.35 716.8C1337.89 716.8 1339.19 716.273 1340.27 715.22C1341.35 714.167 1341.89 712.533 1341.89 710.32C1341.89 708.093 1341.35 706.467 1340.27 705.44C1339.21 704.4 1337.9 703.88 1336.35 703.88C1335.42 703.88 1334.53 704.107 1333.69 704.56C1332.87 705 1332.19 705.613 1331.65 706.4C1331.13 707.187 1330.87 708.107 1330.87 709.16L1328.27 709.04C1328.27 707.16 1328.7 705.493 1329.55 704.04C1330.42 702.587 1331.55 701.453 1332.95 700.64C1334.37 699.813 1335.9 699.4 1337.55 699.4C1339.27 699.4 1340.87 699.82 1342.35 700.66C1343.85 701.5 1345.05 702.733 1345.95 704.36C1346.87 705.987 1347.33 707.973 1347.33 710.32C1347.33 712.733 1346.89 714.767 1345.99 716.42C1345.1 718.073 1343.91 719.327 1342.43 720.18C1340.95 721.02 1339.33 721.44 1337.55 721.44ZM1354.65 700.62L1367.75 708.58V712.18L1354.65 720.12V715.68L1365.67 709.8V710.96L1354.65 705.04V700.62Z" fill="#9A2EFF"/>
<path d="M1624 434H1615C1601.4 434 1597.33 426 1597 422C1596.67 426 1592.6 434 1579 434H1570" stroke="#2A3751" stroke-width="6" stroke-linecap="round" stroke-linejoin="round"/>
<path d="M1858 474V474C1858 451.909 1840.09 434 1818 434H1622" stroke="#2A3751" stroke-width="6" stroke-linecap="round" stroke-linejoin="round"/>
<path d="M1334 474V474C1334 451.909 1351.91 434 1374 434H1570" stroke="#2A3751" stroke-width="6" stroke-linecap="round" stroke-linejoin="round"/>
<path d="M1143.88 586.143C1150.89 577.347 1157.97 570.336 1168.22 565.435C1174.14 562.604 1172.22 554.208 1166.72 552.354C1152.87 547.683 1142.69 539.477 1130.48 531.965C1126.72 529.648 1121.61 534.184 1124.07 538.116C1126.21 541.527 1128.8 544.631 1131.73 547.451L951.139 546.847C946.74 546.769 945.242 550.41 945.043 552.24C945.174 554.243 946.536 558.267 950.936 558.345L1145.32 563.24C1140.06 567.737 1135.55 573.073 1132.47 579.282C1128.57 587.138 1138.63 592.734 1143.88 586.143Z" fill="#44506A" stroke="white" stroke-width="6"/>
<path d="M206.192 198V127.2H233.456C240.592 127.2 245.952 128.832 249.536 132.096C253.12 135.36 254.912 140.16 254.912 146.496C254.912 150.208 254.208 153.36 252.8 155.952C251.392 158.544 249.68 160.544 247.664 161.952C245.648 163.36 243.728 164.16 241.904 164.352C243.76 164.48 245.552 164.96 247.28 165.792C249.008 166.624 250.416 167.936 251.504 169.728C252.624 171.488 253.184 173.872 253.184 176.88C253.184 179.28 253.184 181.68 253.184 184.08C253.184 186.448 253.184 188.832 253.184 191.232C253.184 192.736 253.312 194.128 253.568 195.408C253.824 196.656 254.144 197.52 254.528 198H241.808C241.488 197.424 241.2 196.544 240.944 195.36C240.72 194.144 240.608 192.768 240.608 191.232C240.608 189.056 240.608 186.928 240.608 184.848C240.608 182.736 240.608 180.576 240.608 178.368C240.608 175.456 239.792 173.248 238.16 171.744C236.528 170.24 234.064 169.488 230.768 169.488H215.168L218.528 165.216V198H206.192ZM218.528 164.16L215.168 159.408H230.864C232.944 159.408 234.816 158.928 236.48 157.968C238.144 156.976 239.456 155.6 240.416 153.84C241.408 152.08 241.904 150.016 241.904 147.648C241.904 144.192 240.912 141.6 238.928 139.872C236.944 138.144 234.128 137.28 230.48 137.28H214.832L218.528 132.816V164.16ZM268.29 176.592V167.616H303.954L302.514 170.016C302.514 169.824 302.514 169.616 302.514 169.392C302.514 169.136 302.514 168.928 302.514 168.768C302.514 166.56 302.018 164.496 301.026 162.576C300.034 160.624 298.53 159.056 296.514 157.872C294.498 156.656 291.938 156.048 288.834 156.048C285.762 156.048 283.09 156.704 280.818 158.016C278.578 159.296 276.834 161.152 275.586 163.584C274.37 166.016 273.762 168.928 273.762 172.32C273.762 175.808 274.354 178.816 275.538 181.344C276.722 183.84 278.45 185.76 280.722 187.104C283.026 188.416 285.826 189.072 289.122 189.072C291.362 189.072 293.298 188.864 294.93 188.448C296.562 188.032 297.89 187.472 298.914 186.768C299.97 186.032 300.754 185.248 301.266 184.416C301.81 183.584 302.13 182.752 302.226 181.92H314.802C314.61 184.064 313.89 186.16 312.642 188.208C311.426 190.224 309.714 192.064 307.506 193.728C305.298 195.36 302.61 196.672 299.442 197.664C296.306 198.624 292.722 199.104 288.69 199.104C283.218 199.104 278.434 197.984 274.338 195.744C270.242 193.504 267.042 190.384 264.738 186.384C262.466 182.384 261.33 177.808 261.33 172.656C261.33 167.376 262.482 162.752 264.786 158.784C267.122 154.816 270.354 151.728 274.482 149.52C278.61 147.28 283.346 146.16 288.69 146.16C294.194 146.16 298.946 147.28 302.946 149.52C306.978 151.76 310.082 154.88 312.258 158.88C314.434 162.848 315.522 167.472 315.522 172.752C315.522 173.424 315.506 174.144 315.474 174.912C315.442 175.68 315.394 176.24 315.33 176.592H268.29ZM341.402 199.056C337.594 199.056 334.25 198.464 331.37 197.28C328.49 196.064 326.234 194.32 324.602 192.048C322.97 189.776 322.154 187.04 322.154 183.84C322.154 180.352 323.098 177.488 324.986 175.248C326.906 172.976 329.482 171.232 332.714 170.016C335.946 168.768 339.53 167.968 343.466 167.616C349.29 167.04 353.354 166.496 355.658 165.984C357.994 165.44 359.162 164.576 359.162 163.392C359.162 163.36 359.162 163.344 359.162 163.344C359.162 163.312 359.162 163.296 359.162 163.296C359.162 161.056 358.154 159.328 356.138 158.112C354.122 156.896 351.274 156.288 347.594 156.288C343.722 156.288 340.746 156.976 338.666 158.352C336.618 159.696 335.594 161.84 335.594 164.784H323.114C323.114 160.784 324.17 157.408 326.282 154.656C328.426 151.872 331.354 149.76 335.066 148.32C338.778 146.88 342.986 146.16 347.69 146.16C352.074 146.16 356.09 146.816 359.738 148.128C363.386 149.44 366.314 151.424 368.522 154.08C370.73 156.736 371.834 160.048 371.834 164.016C371.834 164.688 371.834 165.36 371.834 166.032C371.834 166.704 371.834 167.376 371.834 168.048V187.248C371.834 188.464 371.866 189.664 371.93 190.848C372.026 192 372.202 193.04 372.458 193.968C372.778 194.992 373.162 195.856 373.61 196.56C374.058 197.264 374.41 197.744 374.666 198H362.186C361.962 197.776 361.642 197.344 361.226 196.704C360.842 196.032 360.49 195.264 360.17 194.4C359.85 193.44 359.61 192.416 359.45 191.328C359.29 190.208 359.21 188.976 359.21 187.632L361.706 189.36C360.746 191.312 359.274 193.024 357.29 194.496C355.338 195.936 353.002 197.056 350.282 197.856C347.562 198.656 344.602 199.056 341.402 199.056ZM344.474 189.12C347.098 189.12 349.53 188.672 351.77 187.776C354.01 186.88 355.818 185.504 357.194 183.648C358.57 181.76 359.258 179.344 359.258 176.4V169.584L362.33 173.04C360.282 173.808 357.818 174.448 354.938 174.96C352.058 175.44 349.146 175.824 346.202 176.112C342.426 176.464 339.578 177.12 337.658 178.08C335.77 179.04 334.826 180.608 334.826 182.784C334.826 184.896 335.626 186.48 337.226 187.536C338.826 188.592 341.242 189.12 344.474 189.12ZM406.755 199.056C401.379 199.056 396.627 197.952 392.499 195.744C388.371 193.536 385.139 190.432 382.803 186.432C380.467 182.432 379.299 177.744 379.299 172.368C379.299 167.024 380.467 162.384 382.803 158.448C385.139 154.512 388.371 151.488 392.499 149.376C396.627 147.232 401.379 146.16 406.755 146.16C410.787 146.16 414.355 146.752 417.459 147.936C420.563 149.12 423.171 150.704 425.283 152.688C427.427 154.64 429.059 156.8 430.179 159.168C431.299 161.504 431.859 163.84 431.859 166.176C431.859 166.24 431.859 166.304 431.859 166.368C431.859 166.432 431.859 166.496 431.859 166.56H419.331C419.331 166.4 419.315 166.224 419.283 166.032C419.251 165.84 419.219 165.648 419.187 165.456C418.931 163.824 418.275 162.352 417.219 161.04C416.163 159.696 414.755 158.624 412.995 157.824C411.235 157.024 409.107 156.624 406.611 156.624C403.955 156.624 401.523 157.216 399.315 158.4C397.139 159.552 395.395 161.296 394.083 163.632C392.803 165.968 392.163 168.88 392.163 172.368C392.163 175.824 392.803 178.768 394.083 181.2C395.363 183.6 397.091 185.44 399.267 186.72C401.475 187.968 403.923 188.592 406.611 188.592C409.459 188.592 411.779 188.16 413.571 187.296C415.395 186.4 416.771 185.216 417.699 183.744C418.627 182.24 419.155 180.608 419.283 178.848H431.859C431.859 181.216 431.315 183.6 430.227 186C429.139 188.368 427.539 190.544 425.427 192.528C423.315 194.512 420.691 196.096 417.555 197.28C414.451 198.464 410.851 199.056 406.755 199.056ZM463.166 198.96C461.342 198.96 459.486 198.784 457.598 198.432C455.71 198.08 453.982 197.424 452.414 196.464C450.846 195.504 449.582 194.096 448.622 192.24C447.662 190.384 447.182 187.936 447.182 184.896C447.182 184.192 447.182 183.488 447.182 182.784C447.182 182.048 447.182 181.296 447.182 180.528V157.104H435.134V147.024H440.03C441.694 147.024 443.006 146.96 443.966 146.832C444.926 146.672 445.63 146.32 446.078 145.776C446.526 145.232 446.814 144.384 446.942 143.232C447.102 142.048 447.182 140.416 447.182 138.336V130.224H459.854V147.024H475.022V157.104H459.854V177.552C459.854 178.16 459.854 178.768 459.854 179.376C459.854 179.952 459.854 180.512 459.854 181.056C459.854 183.424 460.142 185.328 460.718 186.768C461.294 188.208 462.654 188.928 464.798 188.928C465.822 188.928 466.782 188.832 467.678 188.64C468.606 188.448 469.294 188.256 469.742 188.064V197.952C469.134 198.176 468.254 198.4 467.102 198.624C465.95 198.848 464.638 198.96 463.166 198.96ZM487.115 138.96C485.035 138.96 483.355 138.352 482.075 137.136C480.827 135.92 480.203 134.288 480.203 132.24C480.203 130.16 480.891 128.448 482.267 127.104C483.643 125.76 485.627 125.088 488.219 125.088C490.843 125.088 492.843 125.968 494.219 127.728C495.627 129.456 496.331 131.68 496.331 134.4C496.331 136.992 495.691 139.296 494.411 141.312C493.131 143.296 491.531 144.992 489.611 146.4C487.691 147.776 485.771 148.848 483.851 149.616L482.267 146.496C483.611 145.952 484.923 145.216 486.203 144.288C487.515 143.36 488.603 142.336 489.467 141.216C490.331 140.064 490.763 138.896 490.763 137.712C490.635 137.904 490.251 138.16 489.611 138.48C488.971 138.8 488.139 138.96 487.115 138.96ZM522.053 199.056C519.013 199.056 516.117 198.72 513.365 198.048C510.645 197.376 508.213 196.368 506.069 195.024C503.957 193.68 502.277 192.016 501.029 190.032C499.813 188.016 499.205 185.696 499.205 183.072C499.205 182.88 499.205 182.688 499.205 182.496C499.205 182.304 499.205 182.128 499.205 181.968H511.781C511.781 182.128 511.781 182.272 511.781 182.4C511.781 182.496 511.781 182.64 511.781 182.832C511.781 184.912 512.725 186.48 514.613 187.536C516.533 188.56 519.141 189.072 522.437 189.072C524.229 189.072 525.909 188.88 527.477 188.496C529.077 188.112 530.357 187.52 531.317 186.72C532.309 185.92 532.805 184.896 532.805 183.648C532.805 181.632 531.765 180.192 529.685 179.328C527.637 178.464 524.405 177.68 519.989 176.976C517.557 176.56 515.157 176 512.789 175.296C510.421 174.592 508.261 173.648 506.309 172.464C504.389 171.28 502.837 169.808 501.653 168.048C500.501 166.288 499.925 164.144 499.925 161.616C499.925 158.256 500.917 155.44 502.901 153.168C504.917 150.864 507.605 149.12 510.965 147.936C514.357 146.752 518.085 146.16 522.149 146.16C526.053 146.16 529.685 146.8 533.045 148.08C536.405 149.36 539.109 151.2 541.157 153.6C543.237 156 544.277 158.896 544.277 162.288C544.277 162.416 544.277 162.56 544.277 162.72C544.277 162.848 544.277 162.96 544.277 163.056H531.797C531.797 162.96 531.797 162.864 531.797 162.768C531.797 162.672 531.797 162.56 531.797 162.432C531.797 160.96 531.333 159.76 530.405 158.832C529.477 157.904 528.277 157.216 526.805 156.768C525.333 156.32 523.781 156.096 522.149 156.096C520.709 156.096 519.221 156.256 517.685 156.576C516.149 156.864 514.869 157.392 513.845 158.16C512.821 158.896 512.309 159.936 512.309 161.28C512.309 162.56 512.837 163.6 513.893 164.4C514.949 165.2 516.421 165.872 518.309 166.416C520.197 166.928 522.373 167.392 524.837 167.808C527.173 168.192 529.525 168.72 531.893 169.392C534.293 170.064 536.485 170.96 538.469 172.08C540.453 173.2 542.053 174.672 543.269 176.496C544.517 178.288 545.141 180.512 545.141 183.168C545.141 185.984 544.501 188.384 543.221 190.368C541.941 192.352 540.197 194 537.989 195.312C535.813 196.592 533.349 197.536 530.597 198.144C527.845 198.752 524.997 199.056 522.053 199.056ZM590.291 198.24L572.243 127.2H586.211L600.035 189.936H599.411L613.091 127.2H627.059L609.155 198.24H590.291ZM633.692 198V127.2H654.86C659.564 127.2 663.836 128.048 667.676 129.744C671.516 131.408 674.812 133.792 677.564 136.896C680.316 140 682.444 143.728 683.948 148.08C685.452 152.4 686.204 157.216 686.204 162.528C686.204 167.84 685.452 172.672 683.948 177.024C682.444 181.344 680.316 185.072 677.564 188.208C674.812 191.344 671.516 193.76 667.676 195.456C663.836 197.152 659.564 198 654.86 198H633.692ZM646.364 194.208L640.652 187.92H653.228C657.068 187.92 660.492 186.896 663.5 184.848C666.54 182.768 668.94 179.84 670.7 176.064C672.46 172.256 673.34 167.744 673.34 162.528C673.34 157.28 672.46 152.768 670.7 148.992C668.94 145.216 666.54 142.32 663.5 140.304C660.492 138.288 657.068 137.28 653.228 137.28H640.652L646.364 130.992V194.208ZM723.302 199.056C719.014 199.056 715.014 198.256 711.302 196.656C707.59 195.056 704.326 192.704 701.51 189.6C698.726 186.464 696.55 182.64 694.982 178.128C693.446 173.584 692.678 168.384 692.678 162.528C692.678 156.672 693.446 151.488 694.982 146.976C696.55 142.464 698.726 138.672 701.51 135.6C704.294 132.496 707.542 130.16 711.254 128.592C714.998 126.992 719.014 126.192 723.302 126.192C727.654 126.192 731.686 126.992 735.398 128.592C739.142 130.16 742.406 132.496 745.19 135.6C747.974 138.672 750.134 142.464 751.67 146.976C753.238 151.488 754.022 156.672 754.022 162.528C754.022 168.384 753.238 173.584 751.67 178.128C750.102 182.64 747.91 186.464 745.094 189.6C742.31 192.704 739.062 195.056 735.35 196.656C731.638 198.256 727.622 199.056 723.302 199.056ZM723.302 188.64C726.63 188.64 729.638 187.744 732.326 185.952C735.014 184.128 737.142 181.296 738.71 177.456C740.31 173.616 741.11 168.64 741.11 162.528C741.11 156.384 740.31 151.424 738.71 147.648C737.11 143.84 734.966 141.056 732.278 139.296C729.59 137.536 726.598 136.656 723.302 136.656C720.07 136.656 717.094 137.536 714.374 139.296C711.686 141.056 709.526 143.84 707.894 147.648C706.294 151.424 705.494 156.384 705.494 162.528C705.494 168.672 706.294 173.664 707.894 177.504C709.526 181.344 711.686 184.16 714.374 185.952C717.094 187.744 720.07 188.64 723.302 188.64ZM812.65 127.2H834.154V198H822.106V135.264L822.394 135.36L807.178 198H790.282L774.874 135.312L775.162 135.168V198H763.114V127.2H784.618L798.97 191.088H798.154L812.65 127.2Z" fill="#44506A"/>
<path d="M1283.08 127.2C1287.81 127.2 1291.75 127.872 1294.89 129.216C1298.02 130.528 1300.37 132.448 1301.94 134.976C1303.54 137.504 1304.34 140.592 1304.34 144.24C1304.34 147.76 1303.62 150.752 1302.18 153.216C1300.77 155.648 1298.98 157.52 1296.81 158.832C1294.63 160.144 1292.39 160.88 1290.09 161.04C1292.52 161.104 1294.95 161.696 1297.38 162.816C1299.85 163.936 1301.89 165.728 1303.53 168.192C1305.16 170.656 1305.97 173.968 1305.97 178.128C1305.97 182.064 1305.19 185.536 1303.62 188.544C1302.05 191.52 1299.56 193.84 1296.13 195.504C1292.74 197.168 1288.31 198 1282.84 198H1256.58V127.2H1283.08ZM1268.68 160.08L1264.5 156.384H1278.76C1282.98 156.384 1286.18 155.504 1288.36 153.744C1290.57 151.952 1291.67 149.472 1291.67 146.304C1291.67 144.16 1291.21 142.432 1290.28 141.12C1289.38 139.808 1288.04 138.848 1286.25 138.24C1284.49 137.6 1282.36 137.28 1279.86 137.28H1262.97L1268.68 130.992V160.08ZM1280.34 187.92C1284.44 187.92 1287.59 186.992 1289.8 185.136C1292.01 183.28 1293.11 180.688 1293.11 177.36C1293.11 175.44 1292.76 173.792 1292.05 172.416C1291.38 171.008 1290.42 169.872 1289.17 169.008C1287.96 168.112 1286.52 167.456 1284.85 167.04C1283.22 166.624 1281.43 166.416 1279.48 166.416H1264.5L1268.68 162.672V194.208L1262.97 187.92H1280.34ZM1315.2 198V147.024H1327.82V163.968L1324.89 162.336C1325.21 160.128 1325.8 158.048 1326.67 156.096C1327.53 154.112 1328.68 152.384 1330.12 150.912C1331.56 149.408 1333.31 148.24 1335.36 147.408C1337.4 146.576 1339.74 146.16 1342.36 146.16C1344.44 146.16 1346.08 146.32 1347.26 146.64C1348.48 146.928 1349.23 147.168 1349.52 147.36L1347.21 158.928C1346.89 158.704 1346.24 158.432 1345.24 158.112C1344.28 157.76 1342.99 157.584 1341.36 157.584C1338.76 157.584 1336.59 158.032 1334.83 158.928C1333.1 159.792 1331.72 160.976 1330.7 162.48C1329.68 163.952 1328.94 165.584 1328.49 167.376C1328.04 169.136 1327.82 170.896 1327.82 172.656V198H1315.2ZM1379.6 199.008C1374.22 199.008 1369.48 197.888 1365.39 195.648C1361.29 193.376 1358.08 190.24 1355.74 186.24C1353.44 182.24 1352.28 177.664 1352.28 172.512C1352.28 167.328 1353.44 162.768 1355.74 158.832C1358.08 154.864 1361.29 151.76 1365.39 149.52C1369.48 147.28 1374.22 146.16 1379.6 146.16C1384.97 146.16 1389.71 147.28 1393.8 149.52C1397.9 151.76 1401.1 154.864 1403.4 158.832C1405.74 162.768 1406.91 167.328 1406.91 172.512C1406.91 177.664 1405.74 182.24 1403.4 186.24C1401.1 190.24 1397.9 193.376 1393.8 195.648C1389.71 197.888 1384.97 199.008 1379.6 199.008ZM1379.6 188.688C1382.51 188.688 1385.05 188.016 1387.23 186.672C1389.4 185.328 1391.1 183.456 1392.32 181.056C1393.53 178.624 1394.14 175.776 1394.14 172.512C1394.14 169.248 1393.53 166.432 1392.32 164.064C1391.1 161.664 1389.4 159.808 1387.23 158.496C1385.05 157.184 1382.51 156.528 1379.6 156.528C1376.72 156.528 1374.17 157.184 1371.96 158.496C1369.79 159.808 1368.09 161.664 1366.88 164.064C1365.66 166.432 1365.05 169.248 1365.05 172.512C1365.05 175.776 1365.66 178.624 1366.88 181.056C1368.09 183.456 1369.79 185.328 1371.96 186.672C1374.17 188.016 1376.72 188.688 1379.6 188.688ZM1455.31 198L1443.46 147.024H1453.11L1464.67 194.016H1462.61L1470 147.024H1483.11L1472.64 198H1455.31ZM1420.18 198L1409.67 147.024H1422.77L1430.21 194.016H1428.15L1439.62 147.024H1449.27L1437.6 198H1420.18ZM1509.32 199.056C1506.28 199.056 1503.38 198.72 1500.63 198.048C1497.91 197.376 1495.48 196.368 1493.33 195.024C1491.22 193.68 1489.54 192.016 1488.29 190.032C1487.08 188.016 1486.47 185.696 1486.47 183.072C1486.47 182.88 1486.47 182.688 1486.47 182.496C1486.47 182.304 1486.47 182.128 1486.47 181.968H1499.05C1499.05 182.128 1499.05 182.272 1499.05 182.4C1499.05 182.496 1499.05 182.64 1499.05 182.832C1499.05 184.912 1499.99 186.48 1501.88 187.536C1503.8 188.56 1506.41 189.072 1509.7 189.072C1511.49 189.072 1513.17 188.88 1514.74 188.496C1516.34 188.112 1517.62 187.52 1518.58 186.72C1519.57 185.92 1520.07 184.896 1520.07 183.648C1520.07 181.632 1519.03 180.192 1516.95 179.328C1514.9 178.464 1511.67 177.68 1507.25 176.976C1504.82 176.56 1502.42 176 1500.05 175.296C1497.69 174.592 1495.53 173.648 1493.57 172.464C1491.65 171.28 1490.1 169.808 1488.92 168.048C1487.77 166.288 1487.19 164.144 1487.19 161.616C1487.19 158.256 1488.18 155.44 1490.17 153.168C1492.18 150.864 1494.87 149.12 1498.23 147.936C1501.62 146.752 1505.35 146.16 1509.41 146.16C1513.32 146.16 1516.95 146.8 1520.31 148.08C1523.67 149.36 1526.37 151.2 1528.42 153.6C1530.5 156 1531.54 158.896 1531.54 162.288C1531.54 162.416 1531.54 162.56 1531.54 162.72C1531.54 162.848 1531.54 162.96 1531.54 163.056H1519.06C1519.06 162.96 1519.06 162.864 1519.06 162.768C1519.06 162.672 1519.06 162.56 1519.06 162.432C1519.06 160.96 1518.6 159.76 1517.67 158.832C1516.74 157.904 1515.54 157.216 1514.07 156.768C1512.6 156.32 1511.05 156.096 1509.41 156.096C1507.97 156.096 1506.49 156.256 1504.95 156.576C1503.41 156.864 1502.13 157.392 1501.11 158.16C1500.09 158.896 1499.57 159.936 1499.57 161.28C1499.57 162.56 1500.1 163.6 1501.16 164.4C1502.21 165.2 1503.69 165.872 1505.57 166.416C1507.46 166.928 1509.64 167.392 1512.1 167.808C1514.44 168.192 1516.79 168.72 1519.16 169.392C1521.56 170.064 1523.75 170.96 1525.73 172.08C1527.72 173.2 1529.32 174.672 1530.53 176.496C1531.78 178.288 1532.41 180.512 1532.41 183.168C1532.41 185.984 1531.77 188.384 1530.49 190.368C1529.21 192.352 1527.46 194 1525.25 195.312C1523.08 196.592 1520.61 197.536 1517.86 198.144C1515.11 198.752 1512.26 199.056 1509.32 199.056ZM1545.52 176.592V167.616H1581.19L1579.75 170.016C1579.75 169.824 1579.75 169.616 1579.75 169.392C1579.75 169.136 1579.75 168.928 1579.75 168.768C1579.75 166.56 1579.25 164.496 1578.26 162.576C1577.27 160.624 1575.76 159.056 1573.75 157.872C1571.73 156.656 1569.17 156.048 1566.07 156.048C1563 156.048 1560.32 156.704 1558.05 158.016C1555.81 159.296 1554.07 161.152 1552.82 163.584C1551.6 166.016 1551 168.928 1551 172.32C1551 175.808 1551.59 178.816 1552.77 181.344C1553.96 183.84 1555.68 185.76 1557.96 187.104C1560.26 188.416 1563.06 189.072 1566.36 189.072C1568.6 189.072 1570.53 188.864 1572.16 188.448C1573.8 188.032 1575.12 187.472 1576.15 186.768C1577.2 186.032 1577.99 185.248 1578.5 184.416C1579.04 183.584 1579.36 182.752 1579.46 181.92H1592.04C1591.84 184.064 1591.12 186.16 1589.88 188.208C1588.66 190.224 1586.95 192.064 1584.74 193.728C1582.53 195.36 1579.84 196.672 1576.68 197.664C1573.54 198.624 1569.96 199.104 1565.92 199.104C1560.45 199.104 1555.67 197.984 1551.57 195.744C1547.48 193.504 1544.28 190.384 1541.97 186.384C1539.7 182.384 1538.56 177.808 1538.56 172.656C1538.56 167.376 1539.72 162.752 1542.02 158.784C1544.36 154.816 1547.59 151.728 1551.72 149.52C1555.84 147.28 1560.58 146.16 1565.92 146.16C1571.43 146.16 1576.18 147.28 1580.18 149.52C1584.21 151.76 1587.32 154.88 1589.49 158.88C1591.67 162.848 1592.76 167.472 1592.76 172.752C1592.76 173.424 1592.74 174.144 1592.71 174.912C1592.68 175.68 1592.63 176.24 1592.56 176.592H1545.52ZM1601.16 198V147.024H1613.79V163.968L1610.86 162.336C1611.18 160.128 1611.77 158.048 1612.64 156.096C1613.5 154.112 1614.65 152.384 1616.09 150.912C1617.53 149.408 1619.28 148.24 1621.32 147.408C1623.37 146.576 1625.71 146.16 1628.33 146.16C1630.41 146.16 1632.04 146.32 1633.23 146.64C1634.44 146.928 1635.2 147.168 1635.48 147.36L1633.18 158.928C1632.86 158.704 1632.2 158.432 1631.21 158.112C1630.25 157.76 1628.96 157.584 1627.32 157.584C1624.73 157.584 1622.56 158.032 1620.8 158.928C1619.07 159.792 1617.69 160.976 1616.67 162.48C1615.64 163.952 1614.91 165.584 1614.46 167.376C1614.01 169.136 1613.79 170.896 1613.79 172.656V198H1601.16ZM1646.01 138.96C1643.93 138.96 1642.25 138.352 1640.97 137.136C1639.72 135.92 1639.09 134.288 1639.09 132.24C1639.09 130.16 1639.78 128.448 1641.16 127.104C1642.53 125.76 1644.52 125.088 1647.11 125.088C1649.73 125.088 1651.73 125.968 1653.11 127.728C1654.52 129.456 1655.22 131.68 1655.22 134.4C1655.22 136.992 1654.58 139.296 1653.3 141.312C1652.02 143.296 1650.42 144.992 1648.5 146.4C1646.58 147.776 1644.66 148.848 1642.74 149.616L1641.16 146.496C1642.5 145.952 1643.81 145.216 1645.09 144.288C1646.41 143.36 1647.49 142.336 1648.36 141.216C1649.22 140.064 1649.65 138.896 1649.65 137.712C1649.53 137.904 1649.14 138.16 1648.5 138.48C1647.86 138.8 1647.03 138.96 1646.01 138.96ZM1680.94 199.056C1677.9 199.056 1675.01 198.72 1672.26 198.048C1669.54 197.376 1667.1 196.368 1664.96 195.024C1662.85 193.68 1661.17 192.016 1659.92 190.032C1658.7 188.016 1658.1 185.696 1658.1 183.072C1658.1 182.88 1658.1 182.688 1658.1 182.496C1658.1 182.304 1658.1 182.128 1658.1 181.968H1670.67C1670.67 182.128 1670.67 182.272 1670.67 182.4C1670.67 182.496 1670.67 182.64 1670.67 182.832C1670.67 184.912 1671.62 186.48 1673.5 187.536C1675.42 188.56 1678.03 189.072 1681.33 189.072C1683.12 189.072 1684.8 188.88 1686.37 188.496C1687.97 188.112 1689.25 187.52 1690.21 186.72C1691.2 185.92 1691.7 184.896 1691.7 183.648C1691.7 181.632 1690.66 180.192 1688.58 179.328C1686.53 178.464 1683.3 177.68 1678.88 176.976C1676.45 176.56 1674.05 176 1671.68 175.296C1669.31 174.592 1667.15 173.648 1665.2 172.464C1663.28 171.28 1661.73 169.808 1660.54 168.048C1659.39 166.288 1658.82 164.144 1658.82 161.616C1658.82 158.256 1659.81 155.44 1661.79 153.168C1663.81 150.864 1666.5 149.12 1669.86 147.936C1673.25 146.752 1676.98 146.16 1681.04 146.16C1684.94 146.16 1688.58 146.8 1691.94 148.08C1695.3 149.36 1698 151.2 1700.05 153.6C1702.13 156 1703.17 158.896 1703.17 162.288C1703.17 162.416 1703.17 162.56 1703.17 162.72C1703.17 162.848 1703.17 162.96 1703.17 163.056H1690.69C1690.69 162.96 1690.69 162.864 1690.69 162.768C1690.69 162.672 1690.69 162.56 1690.69 162.432C1690.69 160.96 1690.22 159.76 1689.3 158.832C1688.37 157.904 1687.17 157.216 1685.7 156.768C1684.22 156.32 1682.67 156.096 1681.04 156.096C1679.6 156.096 1678.11 156.256 1676.58 156.576C1675.04 156.864 1673.76 157.392 1672.74 158.16C1671.71 158.896 1671.2 159.936 1671.2 161.28C1671.2 162.56 1671.73 163.6 1672.78 164.4C1673.84 165.2 1675.31 165.872 1677.2 166.416C1679.09 166.928 1681.26 167.392 1683.73 167.808C1686.06 168.192 1688.42 168.72 1690.78 169.392C1693.18 170.064 1695.38 170.96 1697.36 172.08C1699.34 173.2 1700.94 174.672 1702.16 176.496C1703.41 178.288 1704.03 180.512 1704.03 183.168C1704.03 185.984 1703.39 188.384 1702.11 190.368C1700.83 192.352 1699.09 194 1696.88 195.312C1694.7 196.592 1692.24 197.536 1689.49 198.144C1686.74 198.752 1683.89 199.056 1680.94 199.056ZM1734.3 198V127.2H1755.47C1760.17 127.2 1764.45 128.048 1768.29 129.744C1772.13 131.408 1775.42 133.792 1778.17 136.896C1780.93 140 1783.05 143.728 1784.56 148.08C1786.06 152.4 1786.81 157.216 1786.81 162.528C1786.81 167.84 1786.06 172.672 1784.56 177.024C1783.05 181.344 1780.93 185.072 1778.17 188.208C1775.42 191.344 1772.13 193.76 1768.29 195.456C1764.45 197.152 1760.17 198 1755.47 198H1734.3ZM1746.97 194.208L1741.26 187.92H1753.84C1757.68 187.92 1761.1 186.896 1764.11 184.848C1767.15 182.768 1769.55 179.84 1771.31 176.064C1773.07 172.256 1773.95 167.744 1773.95 162.528C1773.95 157.28 1773.07 152.768 1771.31 148.992C1769.55 145.216 1767.15 142.32 1764.11 140.304C1761.1 138.288 1757.68 137.28 1753.84 137.28H1741.26L1746.97 130.992V194.208ZM1823.91 199.056C1819.62 199.056 1815.62 198.256 1811.91 196.656C1808.2 195.056 1804.94 192.704 1802.12 189.6C1799.34 186.464 1797.16 182.64 1795.59 178.128C1794.06 173.584 1793.29 168.384 1793.29 162.528C1793.29 156.672 1794.06 151.488 1795.59 146.976C1797.16 142.464 1799.34 138.672 1802.12 135.6C1804.9 132.496 1808.15 130.16 1811.86 128.592C1815.61 126.992 1819.62 126.192 1823.91 126.192C1828.26 126.192 1832.3 126.992 1836.01 128.592C1839.75 130.16 1843.02 132.496 1845.8 135.6C1848.58 138.672 1850.74 142.464 1852.28 146.976C1853.85 151.488 1854.63 156.672 1854.63 162.528C1854.63 168.384 1853.85 173.584 1852.28 178.128C1850.71 182.64 1848.52 186.464 1845.7 189.6C1842.92 192.704 1839.67 195.056 1835.96 196.656C1832.25 198.256 1828.23 199.056 1823.91 199.056ZM1823.91 188.64C1827.24 188.64 1830.25 187.744 1832.94 185.952C1835.62 184.128 1837.75 181.296 1839.32 177.456C1840.92 173.616 1841.72 168.64 1841.72 162.528C1841.72 156.384 1840.92 151.424 1839.32 147.648C1837.72 143.84 1835.58 141.056 1832.89 139.296C1830.2 137.536 1827.21 136.656 1823.91 136.656C1820.68 136.656 1817.7 137.536 1814.98 139.296C1812.3 141.056 1810.14 143.84 1808.5 147.648C1806.9 151.424 1806.1 156.384 1806.1 162.528C1806.1 168.672 1806.9 173.664 1808.5 177.504C1810.14 181.344 1812.3 184.16 1814.98 185.952C1817.7 187.744 1820.68 188.64 1823.91 188.64ZM1913.26 127.2H1934.76V198H1922.72V135.264L1923 135.36L1907.79 198H1890.89L1875.48 135.312L1875.77 135.168V198H1863.72V127.2H1885.23L1899.58 191.088H1898.76L1913.26 127.2Z" fill="#44506A"/>
<path d="M959.907 633.38C959.907 634.633 959.674 635.907 959.207 637.2C958.741 638.493 958.027 639.693 957.067 640.8C956.121 641.893 954.921 642.773 953.467 643.44C952.014 644.107 950.307 644.44 948.347 644.44C945.694 644.44 943.427 643.793 941.547 642.5C939.681 641.193 938.254 639.4 937.267 637.12C936.294 634.84 935.807 632.22 935.807 629.26C935.807 626.287 936.294 623.66 937.267 621.38C938.254 619.1 939.681 617.313 941.547 616.02C943.427 614.727 945.694 614.08 948.347 614.08C950.547 614.08 952.427 614.5 953.987 615.34C955.547 616.18 956.794 617.26 957.727 618.58C958.661 619.9 959.287 621.28 959.607 622.72C959.807 623.56 959.907 624.36 959.907 625.12H954.607C954.607 624.733 954.581 624.333 954.527 623.92C954.381 622.907 954.041 621.987 953.507 621.16C952.987 620.32 952.294 619.66 951.427 619.18C950.561 618.687 949.534 618.44 948.347 618.44C946.934 618.44 945.687 618.833 944.607 619.62C943.541 620.407 942.701 621.6 942.087 623.2C941.474 624.8 941.167 626.82 941.167 629.26C941.167 631.673 941.474 633.687 942.087 635.3C942.701 636.913 943.541 638.12 944.607 638.92C945.687 639.72 946.934 640.12 948.347 640.12C949.361 640.12 950.254 639.933 951.027 639.56C951.801 639.187 952.454 638.687 952.987 638.06C953.521 637.42 953.921 636.7 954.187 635.9C954.467 635.1 954.607 634.26 954.607 633.38H959.907ZM978.964 644V636.34C978.964 636.02 978.964 635.62 978.964 635.14C978.964 634.66 978.964 634.173 978.964 633.68C978.964 633.187 978.964 632.78 978.964 632.46C978.964 630.7 978.617 629.353 977.924 628.42C977.244 627.473 976.077 627 974.424 627C973.317 627 972.37 627.22 971.584 627.66C970.81 628.087 970.217 628.687 969.804 629.46C969.39 630.233 969.184 631.127 969.184 632.14L967.264 631.12C967.264 629.427 967.644 627.927 968.404 626.62C969.177 625.3 970.244 624.267 971.604 623.52C972.964 622.773 974.524 622.4 976.284 622.4C978.857 622.4 980.824 623.167 982.184 624.7C983.544 626.22 984.224 628.34 984.224 631.06C984.224 631.753 984.224 632.58 984.224 633.54C984.224 634.487 984.224 635.553 984.224 636.74V644H978.964ZM963.924 644V612.74H969.184V644H963.924ZM996.194 644.44C994.608 644.44 993.214 644.193 992.014 643.7C990.814 643.193 989.874 642.467 989.194 641.52C988.514 640.573 988.174 639.433 988.174 638.1C988.174 636.647 988.568 635.453 989.354 634.52C990.154 633.573 991.228 632.847 992.574 632.34C993.921 631.82 995.414 631.487 997.054 631.34C999.481 631.1 1001.17 630.873 1002.13 630.66C1003.11 630.433 1003.59 630.073 1003.59 629.58C1003.59 629.567 1003.59 629.56 1003.59 629.56C1003.59 629.547 1003.59 629.54 1003.59 629.54C1003.59 628.607 1003.17 627.887 1002.33 627.38C1001.49 626.873 1000.31 626.62 998.774 626.62C997.161 626.62 995.921 626.907 995.054 627.48C994.201 628.04 993.774 628.933 993.774 630.16H988.574C988.574 628.493 989.014 627.087 989.894 625.94C990.788 624.78 992.008 623.9 993.554 623.3C995.101 622.7 996.854 622.4 998.814 622.4C1000.64 622.4 1002.31 622.673 1003.83 623.22C1005.35 623.767 1006.57 624.593 1007.49 625.7C1008.41 626.807 1008.87 628.187 1008.87 629.84C1008.87 630.12 1008.87 630.4 1008.87 630.68C1008.87 630.96 1008.87 631.24 1008.87 631.52V639.52C1008.87 640.027 1008.89 640.527 1008.91 641.02C1008.95 641.5 1009.03 641.933 1009.13 642.32C1009.27 642.747 1009.43 643.107 1009.61 643.4C1009.8 643.693 1009.95 643.893 1010.05 644H1004.85C1004.76 643.907 1004.63 643.727 1004.45 643.46C1004.29 643.18 1004.15 642.86 1004.01 642.5C1003.88 642.1 1003.78 641.673 1003.71 641.22C1003.65 640.753 1003.61 640.24 1003.61 639.68L1004.65 640.4C1004.25 641.213 1003.64 641.927 1002.81 642.54C1002 643.14 1001.03 643.607 999.894 643.94C998.761 644.273 997.528 644.44 996.194 644.44ZM997.474 640.3C998.568 640.3 999.581 640.113 1000.51 639.74C1001.45 639.367 1002.2 638.793 1002.77 638.02C1003.35 637.233 1003.63 636.227 1003.63 635V632.16L1004.91 633.6C1004.06 633.92 1003.03 634.187 1001.83 634.4C1000.63 634.6 999.421 634.76 998.194 634.88C996.621 635.027 995.434 635.3 994.634 635.7C993.848 636.1 993.454 636.753 993.454 637.66C993.454 638.54 993.788 639.2 994.454 639.64C995.121 640.08 996.128 640.3 997.474 640.3ZM1028.38 644V634.58C1028.38 634.047 1028.38 633.58 1028.38 633.18C1028.38 632.767 1028.38 632.393 1028.38 632.06C1028.38 631.1 1028.24 630.24 1027.96 629.48C1027.69 628.707 1027.22 628.1 1026.56 627.66C1025.9 627.22 1025 627 1023.84 627C1022.82 627 1021.92 627.247 1021.14 627.74C1020.35 628.22 1019.73 628.887 1019.28 629.74C1018.84 630.58 1018.62 631.553 1018.62 632.66L1016.84 631.56C1016.84 629.787 1017.24 628.213 1018.04 626.84C1018.85 625.453 1019.94 624.367 1021.3 623.58C1022.66 622.793 1024.16 622.4 1025.82 622.4C1027.52 622.4 1028.96 622.733 1030.12 623.4C1031.29 624.067 1032.17 625.013 1032.76 626.24C1033.36 627.467 1033.66 628.907 1033.66 630.56C1033.66 631.2 1033.66 631.92 1033.66 632.72C1033.66 633.52 1033.66 634.307 1033.66 635.08V644H1028.38ZM1013.36 644V622.76H1018.62V644H1013.36ZM1052.59 641.9C1053.84 642.02 1054.94 642.253 1055.89 642.6C1056.84 642.947 1057.58 643.46 1058.11 644.14C1058.64 644.833 1058.91 645.753 1058.91 646.9C1058.91 648.18 1058.48 649.287 1057.61 650.22C1056.74 651.153 1055.47 651.873 1053.79 652.38C1052.12 652.887 1050.07 653.14 1047.63 653.14C1044.08 653.14 1041.36 652.627 1039.45 651.6C1037.54 650.587 1036.59 649.207 1036.59 647.46C1036.59 646.967 1036.65 646.52 1036.77 646.12C1036.89 645.72 1037.04 645.387 1037.21 645.12L1042.03 645.82C1041.95 645.927 1041.87 646.093 1041.79 646.32C1041.71 646.56 1041.67 646.847 1041.67 647.18C1041.67 648.007 1042.22 648.6 1043.33 648.96C1044.45 649.333 1045.94 649.52 1047.79 649.52C1049.15 649.52 1050.28 649.427 1051.19 649.24C1052.11 649.053 1052.8 648.787 1053.27 648.44C1053.75 648.093 1053.99 647.687 1053.99 647.22C1053.99 646.527 1053.68 646.08 1053.05 645.88C1052.42 645.68 1051.68 645.547 1050.81 645.48L1042.75 644.74C1041.31 644.593 1040.12 644.167 1039.19 643.46C1038.27 642.753 1037.81 641.82 1037.81 640.66C1037.81 639.953 1038 639.3 1038.37 638.7C1038.76 638.1 1039.2 637.6 1039.69 637.2C1040.18 636.787 1040.6 636.533 1040.95 636.44L1043.95 637.92C1043.67 637.96 1043.34 638.14 1042.95 638.46C1042.58 638.78 1042.39 639.16 1042.39 639.6C1042.39 640.013 1042.58 640.36 1042.95 640.64C1043.32 640.907 1044.04 641.093 1045.11 641.2L1052.59 641.9ZM1054.97 622.76H1059.69L1057.77 631C1057.41 632.547 1056.83 633.933 1056.03 635.16C1055.23 636.387 1054.16 637.353 1052.83 638.06C1051.5 638.767 1049.82 639.12 1047.79 639.12C1045.68 639.12 1043.86 638.78 1042.33 638.1C1040.81 637.407 1039.64 636.44 1038.81 635.2C1037.98 633.947 1037.57 632.507 1037.57 630.88C1037.57 629.213 1037.99 627.747 1038.83 626.48C1039.68 625.2 1040.85 624.2 1042.33 623.48C1043.82 622.76 1045.51 622.4 1047.39 622.4C1048.91 622.4 1050.28 622.653 1051.49 623.16C1052.7 623.653 1053.67 624.3 1054.39 625.1C1055.12 625.9 1055.52 626.753 1055.57 627.66L1054.39 627.88L1054.97 622.76ZM1047.77 635.06C1048.8 635.06 1049.68 634.893 1050.43 634.56C1051.18 634.227 1051.76 633.747 1052.17 633.12C1052.58 632.48 1052.79 631.707 1052.79 630.8C1052.79 629.907 1052.58 629.14 1052.17 628.5C1051.76 627.86 1051.18 627.373 1050.43 627.04C1049.68 626.693 1048.8 626.52 1047.79 626.52C1046.8 626.52 1045.93 626.693 1045.17 627.04C1044.41 627.387 1043.81 627.887 1043.37 628.54C1042.94 629.18 1042.73 629.947 1042.73 630.84C1042.73 631.733 1042.94 632.5 1043.35 633.14C1043.78 633.767 1044.36 634.247 1045.11 634.58C1045.87 634.9 1046.76 635.06 1047.77 635.06ZM1063.93 635.08V631.34H1078.79L1078.19 632.34C1078.19 632.26 1078.19 632.173 1078.19 632.08C1078.19 631.973 1078.19 631.887 1078.19 631.82C1078.19 630.9 1077.99 630.04 1077.57 629.24C1077.16 628.427 1076.53 627.773 1075.69 627.28C1074.85 626.773 1073.79 626.52 1072.49 626.52C1071.21 626.52 1070.1 626.793 1069.15 627.34C1068.22 627.873 1067.49 628.647 1066.97 629.66C1066.47 630.673 1066.21 631.887 1066.21 633.3C1066.21 634.753 1066.46 636.007 1066.95 637.06C1067.45 638.1 1068.17 638.9 1069.11 639.46C1070.07 640.007 1071.24 640.28 1072.61 640.28C1073.55 640.28 1074.35 640.193 1075.03 640.02C1075.71 639.847 1076.27 639.613 1076.69 639.32C1077.13 639.013 1077.46 638.687 1077.67 638.34C1077.9 637.993 1078.03 637.647 1078.07 637.3H1083.31C1083.23 638.193 1082.93 639.067 1082.41 639.92C1081.91 640.76 1081.19 641.527 1080.27 642.22C1079.35 642.9 1078.23 643.447 1076.91 643.86C1075.61 644.26 1074.11 644.46 1072.43 644.46C1070.15 644.46 1068.16 643.993 1066.45 643.06C1064.75 642.127 1063.41 640.827 1062.45 639.16C1061.51 637.493 1061.03 635.587 1061.03 633.44C1061.03 631.24 1061.51 629.313 1062.47 627.66C1063.45 626.007 1064.79 624.72 1066.51 623.8C1068.23 622.867 1070.21 622.4 1072.43 622.4C1074.73 622.4 1076.71 622.867 1078.37 623.8C1080.05 624.733 1081.35 626.033 1082.25 627.7C1083.16 629.353 1083.61 631.28 1083.61 633.48C1083.61 633.76 1083.61 634.06 1083.59 634.38C1083.58 634.7 1083.56 634.933 1083.53 635.08H1063.93ZM1096.13 644.44C1094.86 644.44 1093.66 644.3 1092.51 644.02C1091.38 643.74 1090.36 643.32 1089.47 642.76C1088.59 642.2 1087.89 641.507 1087.37 640.68C1086.86 639.84 1086.61 638.873 1086.61 637.78C1086.61 637.7 1086.61 637.62 1086.61 637.54C1086.61 637.46 1086.61 637.387 1086.61 637.32H1091.85C1091.85 637.387 1091.85 637.447 1091.85 637.5C1091.85 637.54 1091.85 637.6 1091.85 637.68C1091.85 638.547 1092.24 639.2 1093.03 639.64C1093.83 640.067 1094.92 640.28 1096.29 640.28C1097.04 640.28 1097.74 640.2 1098.39 640.04C1099.06 639.88 1099.59 639.633 1099.99 639.3C1100.4 638.967 1100.61 638.54 1100.61 638.02C1100.61 637.18 1100.18 636.58 1099.31 636.22C1098.46 635.86 1097.11 635.533 1095.27 635.24C1094.26 635.067 1093.26 634.833 1092.27 634.54C1091.28 634.247 1090.38 633.853 1089.57 633.36C1088.77 632.867 1088.12 632.253 1087.63 631.52C1087.15 630.787 1086.91 629.893 1086.91 628.84C1086.91 627.44 1087.32 626.267 1088.15 625.32C1088.99 624.36 1090.11 623.633 1091.51 623.14C1092.92 622.647 1094.48 622.4 1096.17 622.4C1097.8 622.4 1099.31 622.667 1100.71 623.2C1102.11 623.733 1103.24 624.5 1104.09 625.5C1104.96 626.5 1105.39 627.707 1105.39 629.12C1105.39 629.173 1105.39 629.233 1105.39 629.3C1105.39 629.353 1105.39 629.4 1105.39 629.44H1100.19C1100.19 629.4 1100.19 629.36 1100.19 629.32C1100.19 629.28 1100.19 629.233 1100.19 629.18C1100.19 628.567 1100 628.067 1099.61 627.68C1099.22 627.293 1098.72 627.007 1098.11 626.82C1097.5 626.633 1096.85 626.54 1096.17 626.54C1095.57 626.54 1094.95 626.607 1094.31 626.74C1093.67 626.86 1093.14 627.08 1092.71 627.4C1092.28 627.707 1092.07 628.14 1092.07 628.7C1092.07 629.233 1092.29 629.667 1092.73 630C1093.17 630.333 1093.78 630.613 1094.57 630.84C1095.36 631.053 1096.26 631.247 1097.29 631.42C1098.26 631.58 1099.24 631.8 1100.23 632.08C1101.23 632.36 1102.14 632.733 1102.97 633.2C1103.8 633.667 1104.46 634.28 1104.97 635.04C1105.49 635.787 1105.75 636.713 1105.75 637.82C1105.75 638.993 1105.48 639.993 1104.95 640.82C1104.42 641.647 1103.69 642.333 1102.77 642.88C1101.86 643.413 1100.84 643.807 1099.69 644.06C1098.54 644.313 1097.36 644.44 1096.13 644.44ZM1126.65 644.44C1125.06 644.44 1123.67 644.193 1122.47 643.7C1121.27 643.193 1120.33 642.467 1119.65 641.52C1118.97 640.573 1118.63 639.433 1118.63 638.1C1118.63 636.647 1119.02 635.453 1119.81 634.52C1120.61 633.573 1121.68 632.847 1123.03 632.34C1124.37 631.82 1125.87 631.487 1127.51 631.34C1129.93 631.1 1131.63 630.873 1132.59 630.66C1133.56 630.433 1134.05 630.073 1134.05 629.58C1134.05 629.567 1134.05 629.56 1134.05 629.56C1134.05 629.547 1134.05 629.54 1134.05 629.54C1134.05 628.607 1133.63 627.887 1132.79 627.38C1131.95 626.873 1130.76 626.62 1129.23 626.62C1127.61 626.62 1126.37 626.907 1125.51 627.48C1124.65 628.04 1124.23 628.933 1124.23 630.16H1119.03C1119.03 628.493 1119.47 627.087 1120.35 625.94C1121.24 624.78 1122.46 623.9 1124.01 623.3C1125.55 622.7 1127.31 622.4 1129.27 622.4C1131.09 622.4 1132.77 622.673 1134.29 623.22C1135.81 623.767 1137.03 624.593 1137.95 625.7C1138.87 626.807 1139.33 628.187 1139.33 629.84C1139.33 630.12 1139.33 630.4 1139.33 630.68C1139.33 630.96 1139.33 631.24 1139.33 631.52V639.52C1139.33 640.027 1139.34 640.527 1139.37 641.02C1139.41 641.5 1139.48 641.933 1139.59 642.32C1139.72 642.747 1139.88 643.107 1140.07 643.4C1140.25 643.693 1140.4 643.893 1140.51 644H1135.31C1135.21 643.907 1135.08 643.727 1134.91 643.46C1134.75 643.18 1134.6 642.86 1134.47 642.5C1134.33 642.1 1134.23 641.673 1134.17 641.22C1134.1 640.753 1134.07 640.24 1134.07 639.68L1135.11 640.4C1134.71 641.213 1134.09 641.927 1133.27 642.54C1132.45 643.14 1131.48 643.607 1130.35 643.94C1129.21 644.273 1127.98 644.44 1126.65 644.44ZM1127.93 640.3C1129.02 640.3 1130.03 640.113 1130.97 639.74C1131.9 639.367 1132.65 638.793 1133.23 638.02C1133.8 637.233 1134.09 636.227 1134.09 635V632.16L1135.37 633.6C1134.51 633.92 1133.49 634.187 1132.29 634.4C1131.09 634.6 1129.87 634.76 1128.65 634.88C1127.07 635.027 1125.89 635.3 1125.09 635.7C1124.3 636.1 1123.91 636.753 1123.91 637.66C1123.91 638.54 1124.24 639.2 1124.91 639.64C1125.57 640.08 1126.58 640.3 1127.93 640.3ZM1143.81 644V622.76H1149.07V629.82L1147.85 629.14C1147.98 628.22 1148.23 627.353 1148.59 626.54C1148.95 625.713 1149.43 624.993 1150.03 624.38C1150.63 623.753 1151.36 623.267 1152.21 622.92C1153.06 622.573 1154.04 622.4 1155.13 622.4C1156 622.4 1156.68 622.467 1157.17 622.6C1157.68 622.72 1157.99 622.82 1158.11 622.9L1157.15 627.72C1157.02 627.627 1156.74 627.513 1156.33 627.38C1155.93 627.233 1155.39 627.16 1154.71 627.16C1153.63 627.16 1152.72 627.347 1151.99 627.72C1151.27 628.08 1150.7 628.573 1150.27 629.2C1149.84 629.813 1149.54 630.493 1149.35 631.24C1149.16 631.973 1149.07 632.707 1149.07 633.44V644H1143.81ZM1162.6 635.08V631.34H1177.46L1176.86 632.34C1176.86 632.26 1176.86 632.173 1176.86 632.08C1176.86 631.973 1176.86 631.887 1176.86 631.82C1176.86 630.9 1176.65 630.04 1176.24 629.24C1175.82 628.427 1175.2 627.773 1174.36 627.28C1173.52 626.773 1172.45 626.52 1171.16 626.52C1169.88 626.52 1168.76 626.793 1167.82 627.34C1166.88 627.873 1166.16 628.647 1165.64 629.66C1165.13 630.673 1164.88 631.887 1164.88 633.3C1164.88 634.753 1165.12 636.007 1165.62 637.06C1166.11 638.1 1166.83 638.9 1167.78 639.46C1168.74 640.007 1169.9 640.28 1171.28 640.28C1172.21 640.28 1173.02 640.193 1173.7 640.02C1174.38 639.847 1174.93 639.613 1175.36 639.32C1175.8 639.013 1176.12 638.687 1176.34 638.34C1176.56 637.993 1176.7 637.647 1176.74 637.3H1181.98C1181.9 638.193 1181.6 639.067 1181.08 639.92C1180.57 640.76 1179.86 641.527 1178.94 642.22C1178.02 642.9 1176.9 643.447 1175.58 643.86C1174.27 644.26 1172.78 644.46 1171.1 644.46C1168.82 644.46 1166.82 643.993 1165.12 643.06C1163.41 642.127 1162.08 640.827 1161.12 639.16C1160.17 637.493 1159.7 635.587 1159.7 633.44C1159.7 631.24 1160.18 629.313 1161.14 627.66C1162.11 626.007 1163.46 624.72 1165.18 623.8C1166.9 622.867 1168.87 622.4 1171.1 622.4C1173.39 622.4 1175.37 622.867 1177.04 623.8C1178.72 624.733 1180.01 626.033 1180.92 627.7C1181.82 629.353 1182.28 631.28 1182.28 633.48C1182.28 633.76 1182.27 634.06 1182.26 634.38C1182.24 634.7 1182.22 634.933 1182.2 635.08H1162.6ZM987.666 692V683.38C987.666 682.593 987.666 681.907 987.666 681.32C987.666 680.72 987.666 680.22 987.666 679.82C987.666 679.3 987.632 678.76 987.566 678.2C987.499 677.627 987.352 677.1 987.126 676.62C986.899 676.14 986.546 675.753 986.066 675.46C985.599 675.153 984.952 675 984.126 675C983.326 675 982.646 675.167 982.086 675.5C981.539 675.82 981.086 676.253 980.726 676.8C980.379 677.333 980.126 677.947 979.966 678.64C979.806 679.32 979.726 680.02 979.726 680.74L977.966 679.56C977.966 677.813 978.292 676.253 978.946 674.88C979.599 673.507 980.526 672.42 981.726 671.62C982.939 670.807 984.372 670.4 986.026 670.4C987.732 670.4 989.086 670.76 990.086 671.48C991.086 672.187 991.799 673.147 992.226 674.36C992.666 675.573 992.886 676.933 992.886 678.44C992.886 679 992.886 679.747 992.886 680.68C992.886 681.6 992.886 682.687 992.886 683.94V692H987.666ZM974.466 692V670.76H979.726V692H974.466ZM1000.79 692V683.4C1000.79 682.56 1000.79 681.847 1000.79 681.26C1000.79 680.673 1000.79 680.18 1000.79 679.78C1000.79 679.22 1000.75 678.66 1000.69 678.1C1000.62 677.527 1000.47 677.013 1000.25 676.56C1000.02 676.093 999.666 675.72 999.186 675.44C998.706 675.147 998.052 675 997.226 675C996.412 675 995.726 675.16 995.166 675.48C994.619 675.8 994.179 676.227 993.846 676.76C993.512 677.293 993.266 677.893 993.106 678.56C992.959 679.227 992.886 679.893 992.886 680.56L991.126 679.4C991.126 677.707 991.446 676.18 992.086 674.82C992.726 673.46 993.646 672.387 994.846 671.6C996.046 670.8 997.472 670.4 999.126 670.4C1000.79 670.4 1002.13 670.74 1003.15 671.42C1004.16 672.1 1004.89 673.033 1005.35 674.22C1005.81 675.393 1006.05 676.733 1006.05 678.24C1006.05 678.827 1006.05 679.573 1006.05 680.48C1006.05 681.387 1006.05 682.46 1006.05 683.7V692H1000.79ZM1010.61 692V670.76H1015.81V692H1010.61ZM1013.23 666.84C1012.37 666.84 1011.63 666.613 1010.99 666.16C1010.36 665.693 1010.05 665.047 1010.05 664.22C1010.05 663.407 1010.36 662.773 1010.99 662.32C1011.63 661.867 1012.37 661.64 1013.23 661.64C1014.07 661.64 1014.8 661.867 1015.43 662.32C1016.05 662.773 1016.37 663.407 1016.37 664.22C1016.37 665.047 1016.05 665.693 1015.43 666.16C1014.8 666.613 1014.07 666.84 1013.23 666.84ZM1020.62 692V670.76H1025.88V677.82L1024.66 677.14C1024.79 676.22 1025.04 675.353 1025.4 674.54C1025.76 673.713 1026.24 672.993 1026.84 672.38C1027.44 671.753 1028.17 671.267 1029.02 670.92C1029.87 670.573 1030.85 670.4 1031.94 670.4C1032.81 670.4 1033.49 670.467 1033.98 670.6C1034.49 670.72 1034.8 670.82 1034.92 670.9L1033.96 675.72C1033.83 675.627 1033.55 675.513 1033.14 675.38C1032.74 675.233 1032.2 675.16 1031.52 675.16C1030.44 675.16 1029.53 675.347 1028.8 675.72C1028.08 676.08 1027.51 676.573 1027.08 677.2C1026.65 677.813 1026.35 678.493 1026.16 679.24C1025.97 679.973 1025.88 680.707 1025.88 681.44V692H1020.62ZM1037.84 692V670.76H1043.1V677.82L1041.88 677.14C1042.01 676.22 1042.26 675.353 1042.62 674.54C1042.98 673.713 1043.46 672.993 1044.06 672.38C1044.66 671.753 1045.38 671.267 1046.24 670.92C1047.09 670.573 1048.06 670.4 1049.16 670.4C1050.02 670.4 1050.7 670.467 1051.2 670.6C1051.7 670.72 1052.02 670.82 1052.14 670.9L1051.18 675.72C1051.04 675.627 1050.77 675.513 1050.36 675.38C1049.96 675.233 1049.42 675.16 1048.74 675.16C1047.66 675.16 1046.75 675.347 1046.02 675.72C1045.3 676.08 1044.72 676.573 1044.3 677.2C1043.87 677.813 1043.56 678.493 1043.38 679.24C1043.19 679.973 1043.1 680.707 1043.1 681.44V692H1037.84ZM1065.1 692.42C1062.86 692.42 1060.89 691.953 1059.18 691.02C1057.48 690.073 1056.14 688.767 1055.16 687.1C1054.2 685.433 1053.72 683.527 1053.72 681.38C1053.72 679.22 1054.2 677.32 1055.16 675.68C1056.14 674.027 1057.48 672.733 1059.18 671.8C1060.89 670.867 1062.86 670.4 1065.1 670.4C1067.34 670.4 1069.32 670.867 1071.02 671.8C1072.73 672.733 1074.06 674.027 1075.02 675.68C1076 677.32 1076.48 679.22 1076.48 681.38C1076.48 683.527 1076 685.433 1075.02 687.1C1074.06 688.767 1072.73 690.073 1071.02 691.02C1069.32 691.953 1067.34 692.42 1065.1 692.42ZM1065.1 688.12C1066.32 688.12 1067.38 687.84 1068.28 687.28C1069.19 686.72 1069.9 685.94 1070.4 684.94C1070.91 683.927 1071.16 682.74 1071.16 681.38C1071.16 680.02 1070.91 678.847 1070.4 677.86C1069.9 676.86 1069.19 676.087 1068.28 675.54C1067.38 674.993 1066.32 674.72 1065.1 674.72C1063.9 674.72 1062.84 674.993 1061.92 675.54C1061.02 676.087 1060.31 676.86 1059.8 677.86C1059.3 678.847 1059.04 680.02 1059.04 681.38C1059.04 682.74 1059.3 683.927 1059.8 684.94C1060.31 685.94 1061.02 686.72 1061.92 687.28C1062.84 687.84 1063.9 688.12 1065.1 688.12ZM1080.43 692V670.76H1085.69V677.82L1084.47 677.14C1084.61 676.22 1084.85 675.353 1085.21 674.54C1085.57 673.713 1086.05 672.993 1086.65 672.38C1087.25 671.753 1087.98 671.267 1088.83 670.92C1089.69 670.573 1090.66 670.4 1091.75 670.4C1092.62 670.4 1093.3 670.467 1093.79 670.6C1094.3 670.72 1094.61 670.82 1094.73 670.9L1093.77 675.72C1093.64 675.627 1093.37 675.513 1092.95 675.38C1092.55 675.233 1092.01 675.16 1091.33 675.16C1090.25 675.16 1089.35 675.347 1088.61 675.72C1087.89 676.08 1087.32 676.573 1086.89 677.2C1086.47 677.813 1086.16 678.493 1085.97 679.24C1085.79 679.973 1085.69 680.707 1085.69 681.44V692H1080.43ZM1099.22 683.08V679.34H1114.08L1113.48 680.34C1113.48 680.26 1113.48 680.173 1113.48 680.08C1113.48 679.973 1113.48 679.887 1113.48 679.82C1113.48 678.9 1113.27 678.04 1112.86 677.24C1112.45 676.427 1111.82 675.773 1110.98 675.28C1110.14 674.773 1109.07 674.52 1107.78 674.52C1106.5 674.52 1105.39 674.793 1104.44 675.34C1103.51 675.873 1102.78 676.647 1102.26 677.66C1101.75 678.673 1101.5 679.887 1101.5 681.3C1101.5 682.753 1101.75 684.007 1102.24 685.06C1102.73 686.1 1103.45 686.9 1104.4 687.46C1105.36 688.007 1106.53 688.28 1107.9 688.28C1108.83 688.28 1109.64 688.193 1110.32 688.02C1111 687.847 1111.55 687.613 1111.98 687.32C1112.42 687.013 1112.75 686.687 1112.96 686.34C1113.19 685.993 1113.32 685.647 1113.36 685.3H1118.6C1118.52 686.193 1118.22 687.067 1117.7 687.92C1117.19 688.76 1116.48 689.527 1115.56 690.22C1114.64 690.9 1113.52 691.447 1112.2 691.86C1110.89 692.26 1109.4 692.46 1107.72 692.46C1105.44 692.46 1103.45 691.993 1101.74 691.06C1100.03 690.127 1098.7 688.827 1097.74 687.16C1096.79 685.493 1096.32 683.587 1096.32 681.44C1096.32 679.24 1096.8 677.313 1097.76 675.66C1098.73 674.007 1100.08 672.72 1101.8 671.8C1103.52 670.867 1105.49 670.4 1107.72 670.4C1110.01 670.4 1111.99 670.867 1113.66 671.8C1115.34 672.733 1116.63 674.033 1117.54 675.7C1118.45 677.353 1118.9 679.28 1118.9 681.48C1118.9 681.76 1118.89 682.06 1118.88 682.38C1118.87 682.7 1118.85 682.933 1118.82 683.08H1099.22ZM1131.66 692.44C1129.91 692.44 1128.29 692.02 1126.8 691.18C1125.32 690.327 1124.13 689.073 1123.24 687.42C1122.34 685.767 1121.9 683.733 1121.9 681.32C1121.9 678.973 1122.35 676.987 1123.26 675.36C1124.18 673.733 1125.38 672.5 1126.86 671.66C1128.35 670.82 1129.95 670.4 1131.66 670.4C1133.32 670.4 1134.86 670.813 1136.28 671.64C1137.69 672.453 1138.82 673.587 1139.68 675.04C1140.53 676.493 1140.96 678.16 1140.96 680.04C1140.96 680.093 1140.96 680.147 1140.96 680.2C1140.96 680.253 1140.96 680.307 1140.96 680.36L1138.36 680.42C1138.36 680.38 1138.36 680.34 1138.36 680.3C1138.36 680.247 1138.36 680.2 1138.36 680.16C1138.36 679.107 1138.09 678.187 1137.56 677.4C1137.04 676.613 1136.36 676 1135.52 675.56C1134.69 675.107 1133.81 674.88 1132.88 674.88C1131.34 674.88 1130.04 675.4 1128.96 676.44C1127.88 677.467 1127.34 679.093 1127.34 681.32C1127.34 683.533 1127.88 685.167 1128.96 686.22C1130.04 687.273 1131.34 687.8 1132.88 687.8C1133.85 687.8 1134.75 687.567 1135.58 687.1C1136.4 686.633 1137.07 685.993 1137.58 685.18C1138.1 684.353 1138.36 683.407 1138.36 682.34L1140.96 682.46C1140.96 684.327 1140.54 686.02 1139.7 687.54C1138.87 689.047 1137.76 690.24 1136.36 691.12C1134.96 692 1133.39 692.44 1131.66 692.44ZM1138.36 692V660.74H1143.64V692H1138.36Z" fill="#44506A"/>
</svg>
