<svg width="20" height="20" viewBox="0 0 20 20" fill="none" xmlns="http://www.w3.org/2000/svg">
<path fill-rule="evenodd" clip-rule="evenodd" d="M3.5 6.25C3.5 5.00736 4.50736 4 5.75 4H5.9999H6.5H13C14.1046 4 15 4.89543 15 6V11.25C15 11.6642 15.3358 12 15.75 12C16.1642 12 16.5 11.6642 16.5 11.25V6C16.5 4.067 14.933 2.5 13 2.5H6.5H5.9999H5.75C3.67893 2.5 2 4.17893 2 6.25V8.25C2 8.66421 2.33579 9 2.75 9H5V15C5 16.3807 6.11929 17.5 7.5 17.5C8.88071 17.5 10 16.3807 10 15V14H17C17 15.1046 16.1046 16 15 16H10.75C10.3358 16 10 16.3358 10 16.75C10 17.1642 10.3358 17.5 10.75 17.5H15C16.933 17.5 18.5 15.933 18.5 14V13.25C18.5 12.8358 18.1642 12.5 17.75 12.5H9.25C8.83579 12.5 8.5 12.8358 8.5 13.25V15C8.5 15.5523 8.05228 16 7.5 16C6.94772 16 6.5 15.5523 6.5 15V5.25C6.5 4.83579 6.16421 4.5 5.75 4.5C5.33579 4.5 5 4.83579 5 5.25V7.5H3.5V6.25ZM9 6.75C9 6.33579 9.33579 6 9.75 6H12.25C12.6642 6 13 6.33579 13 6.75C13 7.16421 12.6642 7.5 12.25 7.5H9.75C9.33579 7.5 9 7.16421 9 6.75ZM9.75 9C9.33579 9 9 9.33579 9 9.75C9 10.1642 9.33579 10.5 9.75 10.5H12.25C12.6642 10.5 13 10.1642 13 9.75C13 9.33579 12.6642 9 12.25 9H9.75Z" fill="currentColor"/>
</svg>
