<svg width="20" height="20" viewBox="0 0 20 20" fill="none" xmlns="http://www.w3.org/2000/svg">
<path fill-rule="evenodd" clip-rule="evenodd" d="M12 6C12 7.10457 11.1046 8 10 8C8.89543 8 8 7.10457 8 6C8 4.89543 8.89543 4 10 4C11.1046 4 12 4.89543 12 6ZM13.5 6C13.5 7.933 11.933 9.5 10 9.5C8.067 9.5 6.5 7.933 6.5 6C6.5 4.067 8.067 2.5 10 2.5C11.933 2.5 13.5 4.067 13.5 6ZM4.5 15.75C4.5 13.9551 5.95507 12.5 7.75 12.5H12.25C14.0449 12.5 15.5 13.9551 15.5 15.75V16.25C15.5 16.6642 15.8358 17 16.25 17C16.6642 17 17 16.6642 17 16.25V15.75C17 13.1266 14.8734 11 12.25 11H7.75C5.12665 11 3 13.1266 3 15.75V16.25C3 16.6642 3.33579 17 3.75 17C4.16421 17 4.5 16.6642 4.5 16.25V15.75Z" fill="currentColor"/>
</svg>
