<svg width="24" height="24" viewBox="0 0 24 24" fill="none" xmlns="http://www.w3.org/2000/svg">
<path fill-rule="evenodd" clip-rule="evenodd" d="M10 7C10 5.89543 10.8954 5 12 5C13.1046 5 14 5.89543 14 7C14 8.10457 13.1046 9 12 9C10.8954 9 10 8.10457 10 7ZM12 3C9.79086 3 8 4.79086 8 7C8 9.20914 9.79086 11 12 11C14.2091 11 16 9.20914 16 7C16 4.79086 14.2091 3 12 3Z" fill="currentColor"/>
<path fill-rule="evenodd" clip-rule="evenodd" d="M7 15C5.34315 15 4 16.3431 4 18V20C4 20.5523 3.55228 21 3 21C2.44772 21 2 20.5523 2 20V18C2 15.2386 4.23858 13 7 13H17C19.7614 13 22 15.2386 22 18V20C22 20.5523 21.5523 21 21 21C20.4477 21 20 20.5523 20 20V18C20 16.3431 18.6569 15 17 15H7Z" fill="currentColor"/>
</svg>
