<svg width="20" height="20" viewBox="0 0 20 20" fill="none" xmlns="http://www.w3.org/2000/svg">
<path fill-rule="evenodd" clip-rule="evenodd" d="M4.88128 4.88128C5.22299 4.53957 5.77701 4.53957 6.11872 4.88128L10 8.76256L13.8813 4.88128C14.223 4.53957 14.777 4.53957 15.1187 4.88128C15.4604 5.22299 15.4604 5.77701 15.1187 6.11872L11.2374 10L15.1187 13.8813C15.4604 14.223 15.4604 14.777 15.1187 15.1187C14.777 15.4604 14.223 15.4604 13.8813 15.1187L10 11.2374L6.11872 15.1187C5.77701 15.4604 5.22299 15.4604 4.88128 15.1187C4.53957 14.777 4.53957 14.223 4.88128 13.8813L8.76256 10L4.88128 6.11872C4.53957 5.77701 4.53957 5.22299 4.88128 4.88128Z" fill="currentColor"/>
</svg>
