<svg width="20" height="20" viewBox="0 0 20 20" fill="none" xmlns="http://www.w3.org/2000/svg">
<path d="M3.25 8C3.66421 8 4 8.33579 4 8.75V14.5C4 15.3284 4.67157 16 5.5 16H11.25C11.6642 16 12 16.3358 12 16.75C12 17.1642 11.6642 17.5 11.25 17.5H5.5C3.89489 17.5 2.58421 16.2394 2.50391 14.6543L2.5 14.5V8.75C2.5 8.33579 2.83579 8 3.25 8ZM15 2C16.6569 2 18 3.34315 18 5V11C18 12.6569 16.6569 14 15 14H9C7.34315 14 6 12.6569 6 11V5C6 3.34315 7.34315 2 9 2H15ZM9 3.5C8.17157 3.5 7.5 4.17157 7.5 5V11C7.5 11.8284 8.17157 12.5 9 12.5H15C15.8284 12.5 16.5 11.8284 16.5 11V5C16.5 4.17157 15.8284 3.5 15 3.5H9Z" fill="currentColor"/>
</svg>
