<svg width="20" height="20" viewBox="0 0 20 20" fill="none" xmlns="http://www.w3.org/2000/svg">
<path fill-rule="evenodd" clip-rule="evenodd" d="M10.25 18C14.5302 18 18 14.5302 18 10.25C18 5.96979 14.5302 2.5 10.25 2.5C5.96979 2.5 2.5 5.96979 2.5 10.25C2.5 14.5302 5.96979 18 10.25 18ZM10.25 16.5C13.7018 16.5 16.5 13.7018 16.5 10.25C16.5 6.79822 13.7018 4 10.25 4C6.79822 4 4 6.79822 4 10.25C4 13.7018 6.79822 16.5 10.25 16.5ZM13.5303 9.03033C13.8232 8.73744 13.8232 8.26256 13.5303 7.96967C13.2374 7.67678 12.7626 7.67678 12.4697 7.96967L9 11.4393L7.53033 9.96967C7.23744 9.67678 6.76256 9.67678 6.46967 9.96967C6.17678 10.2626 6.17678 10.7374 6.46967 11.0303L8.46967 13.0303C8.76256 13.3232 9.23744 13.3232 9.53033 13.0303L13.5303 9.03033Z" fill="currentColor"/>
</svg>
