<svg width="24" height="24" viewBox="0 0 24 24" fill="none" xmlns="http://www.w3.org/2000/svg">
<path d="M12 21C9.5 21 7.375 20.125 5.625 18.375C3.875 16.625 3 14.5 3 12C3 9.5 3.875 7.375 5.625 5.625C7.375 3.875 9.5 3 12 3L-nan -nanL12 3C12.4925 3 12.6728 3.6385 12.3578 4.01715C12.1142 4.31007 11.8993 4.63336 11.713 4.987C11.3043 5.76233 11.1 6.6 11.1 7.5C11.1 9 11.625 10.275 12.675 11.325C13.725 12.375 15 12.9 16.5 12.9C17.4167 12.9 18.2583 12.6957 19.025 12.287C19.3742 12.1012 19.694 11.8867 19.9845 11.6438C20.3622 11.3278 21 11.5075 21 12L-nan -nanL21 12C21 14.5 20.125 16.625 18.375 18.375C16.625 20.125 14.5 21 12 21ZM12 19C13.4667 19 14.7833 18.596 15.95 17.788C17.1167 16.9793 17.9667 15.925 18.5 14.625C18.1667 14.7083 17.8333 14.775 17.5 14.825C17.1667 14.875 16.8333 14.9 16.5 14.9C14.45 14.9 12.704 14.1793 11.262 12.738C9.82067 11.296 9.1 9.55 9.1 7.5C9.1 7.16667 9.125 6.83333 9.175 6.5C9.225 6.16667 9.29167 5.83333 9.375 5.5C8.075 6.03333 7.021 6.88333 6.213 8.05C5.40433 9.21667 5 10.5333 5 12C5 13.9333 5.68333 15.5833 7.05 16.95C8.41667 18.3167 10.0667 19 12 19Z" fill="currentColor"/>
</svg>
