<svg width="20" height="20" viewBox="0 0 20 20" fill="none" xmlns="http://www.w3.org/2000/svg">
<path fill-rule="evenodd" clip-rule="evenodd" d="M17.5192 12.1455C17.7271 11.5943 17.593 10.9723 17.1764 10.5557C16.7599 10.1391 16.138 10.0049 15.5867 10.2127C15.0952 10.3979 14.5613 10.4999 14 10.4999C11.5147 10.4999 9.50002 8.48522 9.50002 5.99993C9.50002 5.43855 9.60211 4.90447 9.78742 4.41291C9.99524 3.86163 9.8611 3.23973 9.4445 2.82313C9.02791 2.40653 8.40601 2.27239 7.85472 2.48021C5.02021 3.54876 2.99987 6.2865 2.99969 9.49988C2.99948 13.642 6.35721 17 10.4994 17C13.7127 17 16.4505 14.9799 17.5192 12.1455ZM8.00497 5.75397C8.00168 5.83555 8.00002 5.91755 8.00002 5.99993C8.00002 9.31364 10.6863 11.9999 14 11.9999C14.0822 11.9999 14.1641 11.9983 14.2455 11.995C14.9015 11.9686 15.5304 11.8369 16.1157 11.6163C15.8633 12.2858 15.4945 12.8982 15.0342 13.429C13.934 14.6976 12.3104 15.5 10.4994 15.5C7.18567 15.5 4.49952 12.8137 4.49969 9.49996C4.49979 7.68891 5.30227 6.06527 6.571 4.96514C7.10186 4.50483 7.71435 4.13617 8.38384 3.88379C8.16319 4.46909 8.03142 5.09797 8.00497 5.75397Z" fill="currentColor"/>
</svg>
