<svg width="24" height="24" viewBox="0 0 24 24" fill="none" xmlns="http://www.w3.org/2000/svg">
<path fill-rule="evenodd" clip-rule="evenodd" d="M8 1C7.44772 1 7 1.44772 7 2V3H6C4.34315 3 3 4.34315 3 6V18C3 19.6569 4.34315 21 6 21H18C19.6569 21 21 19.6569 21 18V6C21 4.34315 19.6569 3 18 3H17V2C17 1.44772 16.5523 1 16 1C15.4477 1 15 1.44772 15 2V3H9V2C9 1.44772 8.55228 1 8 1ZM8 5H16H18C18.5523 5 19 5.44772 19 6V8H5V6C5 5.44772 5.44772 5 6 5H8ZM5 10V18C5 18.5523 5.44772 19 6 19H18C18.5523 19 19 18.5523 19 18V10H5Z" fill="currentColor"/>
</svg>
