<svg width="20" height="20" viewBox="0 0 20 20" fill="none" xmlns="http://www.w3.org/2000/svg">
<path fill-rule="evenodd" clip-rule="evenodd" d="M6 2.25C6 1.83579 6.33579 1.5 6.75 1.5C7.16421 1.5 7.5 1.83579 7.5 2.25V3H12.5V2.25C12.5 1.83579 12.8358 1.5 13.25 1.5C13.6642 1.5 14 1.83579 14 2.25V3H14.5C15.8807 3 17 4.11929 17 5.5V11V11.7574V12H16.9902C16.9329 12.7068 16.6265 13.3735 16.1213 13.8787L13.8787 16.1213C13.3735 16.6265 12.7068 16.9329 12 16.9902V17H11.7574H11H6C4.34315 17 3 15.6569 3 14V5.5C3 4.11929 4.11929 3 5.5 3H6V2.25ZM11 15.5V13C11 11.8954 11.8954 11 13 11H15.5V9H4.5V14C4.5 14.8284 5.17157 15.5 6 15.5H11ZM15.5 5.5V7.5H4.5V5.5C4.5 4.94772 4.94772 4.5 5.5 4.5H6H7.5H12.5H14H14.5C15.0523 4.5 15.5 4.94772 15.5 5.5ZM15.3787 12.5L12.5 15.3787V13C12.5 12.7239 12.7239 12.5 13 12.5H15.3787Z" fill="currentColor"/>
</svg>
