<svg width="20" height="20" viewBox="0 0 20 20" fill="none" xmlns="http://www.w3.org/2000/svg">
<path fill-rule="evenodd" clip-rule="evenodd" d="M11.7281 14H12.5H13.1C14.9778 14 16.5 12.4778 16.5 10.6V7.9C16.5 6.02223 14.9778 4.5 13.1 4.5H6.9C5.02223 4.5 3.5 6.02223 3.5 7.9V10.6C3.5 12.4778 5.02223 14 6.9 14H7.5H8.27193L8.7206 14.6281L10 16.4193L11.2794 14.6281L11.7281 14ZM12.5 15.5H13.1C15.8062 15.5 18 13.3062 18 10.6V7.9C18 5.1938 15.8062 3 13.1 3H6.9C4.1938 3 2 5.1938 2 7.9V10.6C2 13.3062 4.1938 15.5 6.9 15.5H7.5L9.18627 17.8608C9.58509 18.4191 10.4149 18.4191 10.8137 17.8608L12.5 15.5Z" fill="currentColor"/>
</svg>
