<svg width="20" height="20" viewBox="0 0 20 20" fill="none" xmlns="http://www.w3.org/2000/svg">
<path fill-rule="evenodd" clip-rule="evenodd" d="M18.9517 14.5221C18.9357 14.7332 18.8272 14.9267 18.6551 15.0501C17.4114 15.9415 16.1969 16.5471 15.0006 16.9765C14.6418 17.1053 14.2499 16.9255 14.096 16.5766L13.3825 14.9596C11.1692 15.6831 8.84634 15.6809 6.61888 14.9556L5.90155 16.5761C5.74733 16.9245 5.3557 17.1039 4.99714 16.9751C3.8022 16.5458 2.58887 15.9405 1.34554 15.0504C1.17302 14.9268 1.06434 14.733 1.0485 14.5215C0.805237 11.2717 1.44842 7.97637 3.62945 4.60184C3.70423 4.48614 3.81092 4.39358 3.93647 4.33687C4.88889 3.9067 5.89444 3.57536 6.93951 3.35522C7.2511 3.28958 7.56694 3.44053 7.70711 3.72644C7.79383 3.90332 7.8766 4.08356 7.94287 4.24275C9.30201 4.03453 10.6739 4.03453 12.0585 4.24275C12.1243 4.08457 12.2054 3.9056 12.2902 3.7298C12.4291 3.44204 12.7457 3.28981 13.0584 3.35572C14.1019 3.57569 15.106 3.90594 16.0579 4.33491C16.1825 4.39104 16.2883 4.482 16.363 4.59637C18.2671 7.50972 19.2341 10.7787 18.9517 14.5221ZM5.22981 14.4029C5.11626 14.7103 4.99938 15.0163 4.87541 15.3195C4.10268 14.997 3.32018 14.5837 2.52093 14.0414C2.3771 11.2774 2.95496 8.49324 4.76522 5.61068C5.3629 5.3533 5.98295 5.13896 6.62139 4.97133L7.00937 5.90327L8.17003 5.72545C9.37723 5.5405 10.5973 5.53988 11.8354 5.72607L12.9932 5.90019L13.3794 4.97262C14.0164 5.13996 14.6351 5.35358 15.2317 5.61006C16.8235 8.1192 17.6434 10.8855 17.4793 14.0416C16.6791 14.5851 15.8952 14.999 15.1208 15.3218C14.9967 15.0186 14.8798 14.7125 14.7662 14.4051C15.0117 14.2871 15.2569 14.1683 15.5018 14.0492L14.8483 12.6991L14.1732 13.0258C13.8202 13.1967 13.4634 13.3449 13.1038 13.4705C11.0759 14.179 8.94176 14.1782 6.89247 13.4651C6.53375 13.3402 6.17709 13.1934 5.8236 13.0243L5.147 12.7007L4.49981 14.0539C4.74295 14.1706 4.9862 14.2871 5.22981 14.4029ZM8.5 10.6262C8.5 11.2475 7.99632 11.7512 7.375 11.7512C6.75368 11.7512 6.25 11.2475 6.25 10.6262C6.25 10.0049 6.75368 9.50122 7.375 9.50122C7.99632 9.50122 8.5 10.0049 8.5 10.6262ZM12.625 11.7512C13.2463 11.7512 13.75 11.2475 13.75 10.6262C13.75 10.0049 13.2463 9.50122 12.625 9.50122C12.0037 9.50122 11.5 10.0049 11.5 10.6262C11.5 11.2475 12.0037 11.7512 12.625 11.7512Z" fill="currentColor"/>
</svg>
