<svg width="24" height="24" viewBox="0 0 24 24" fill="none" xmlns="http://www.w3.org/2000/svg">
<g clip-path="url(#clip0_707_13414)">
<path fill-rule="evenodd" clip-rule="evenodd" d="M23.9355 16.6995C23.9143 16.981 23.7696 17.239 23.5402 17.4035C21.8819 18.5921 20.2625 19.3995 18.6675 19.972C18.189 20.1438 17.6666 19.904 17.4614 19.4389L16.51 17.2828C13.5589 18.2475 10.4618 18.2446 7.49184 17.2775L6.5354 19.4382C6.32977 19.9027 5.8076 20.1419 5.32952 19.9702C3.73627 19.3977 2.1185 18.5907 0.460724 17.4039C0.230691 17.2392 0.0857881 16.9808 0.0646694 16.6986C-0.259684 12.3657 0.597887 7.97187 3.50594 3.47249C3.60564 3.31823 3.7479 3.19481 3.91529 3.1192C5.18519 2.54563 6.52592 2.10386 7.91934 1.81033C8.33479 1.72281 8.75592 1.92407 8.94282 2.30529C9.05845 2.54113 9.16879 2.78146 9.25716 2.99371C11.0693 2.71607 12.8985 2.71607 14.7446 2.99371C14.8325 2.7828 14.9405 2.54417 15.0536 2.30977C15.2388 1.9261 15.661 1.72312 16.0778 1.811C17.4692 2.10429 18.808 2.54462 20.0773 3.11659C20.2433 3.19143 20.3844 3.31271 20.484 3.46519C23.0228 7.34966 24.3121 11.7083 23.9355 16.6995ZM5.63974 16.5406C5.48835 16.9504 5.33251 17.3585 5.16721 17.7627C4.13691 17.3327 3.09357 16.7816 2.0279 16.0586C1.83614 12.3733 2.60661 8.66102 5.0203 4.81762C5.8172 4.47443 6.64394 4.18865 7.49519 3.96515L8.01249 5.20773L9.56003 4.97064C11.1696 4.72404 12.7964 4.72321 14.4472 4.97147L15.9909 5.20362L16.5059 3.96686C17.3552 4.18998 18.1801 4.47481 18.9757 4.81678C21.0981 8.16231 22.1912 11.8506 21.9725 16.0589C20.9055 16.7835 19.8602 17.3354 18.8277 17.7658C18.6622 17.3615 18.5063 16.9534 18.3549 16.5435C18.6823 16.3862 19.0091 16.2278 19.3358 16.069L18.4644 14.2688L17.5643 14.7045C17.0937 14.9323 16.6179 15.1298 16.1384 15.2974C13.4345 16.2421 10.589 16.241 7.85663 15.2901C7.37833 15.1237 6.90279 14.9279 6.43146 14.7025L5.52933 14.271L4.66641 16.0753C4.9906 16.2309 5.31493 16.3862 5.63974 16.5406ZM10 11.505C10 12.3334 9.32843 13.005 8.5 13.005C7.67157 13.005 7 12.3334 7 11.505C7 10.6766 7.67157 10.005 8.5 10.005C9.32843 10.005 10 10.6766 10 11.505ZM15.5 13.005C16.3284 13.005 17 12.3334 17 11.505C17 10.6766 16.3284 10.005 15.5 10.005C14.6716 10.005 14 10.6766 14 11.505C14 12.3334 14.6716 13.005 15.5 13.005Z" fill="currentColor"/>
</g>
<defs>
<clipPath id="clip0_707_13414">
<rect width="24" height="24" fill="white"/>
</clipPath>
</defs>
</svg>
