<svg width="24" height="24" viewBox="0 0 24 24" fill="none" xmlns="http://www.w3.org/2000/svg">
<path d="M4 6C3.44772 6 3 6.44771 3 7C3 7.55229 3.44772 8 4 8H20C20.5523 8 21 7.55229 21 7C21 6.44771 20.5523 6 20 6H4Z" fill="currentColor"/>
<path d="M4 11C3.44772 11 3 11.4477 3 12C3 12.5523 3.44772 13 4 13H20C20.5523 13 21 12.5523 21 12C21 11.4477 20.5523 11 20 11H4Z" fill="currentColor"/>
<path d="M3 17C3 16.4477 3.44772 16 4 16H20C20.5523 16 21 16.4477 21 17C21 17.5523 20.5523 18 20 18H4C3.44772 18 3 17.5523 3 17Z" fill="currentColor"/>
</svg>
