<svg width="24" height="24" viewBox="0 0 24 24" fill="none" xmlns="http://www.w3.org/2000/svg">
<path fill-rule="evenodd" clip-rule="evenodd" d="M2 12C2 6.4857 6.4857 2 12 2C17.5143 2 22 6.4857 22 12C22 17.5143 17.5143 22 12 22C6.4857 22 2 17.5143 2 12ZM18.4133 6.77319C18.3841 6.81279 18.3207 6.89575 18.2211 7.01231C17.7444 7.56989 16.438 8.89637 14.0639 9.92357C13.9731 9.96284 13.8808 10.0017 13.7869 10.04C13.8322 10.1328 13.8756 10.2228 13.9175 10.3107C14.1442 10.7875 14.3251 11.204 14.5151 11.6677C16.8398 11.3753 19.152 11.7246 19.9835 11.8759C20.1381 11.904 20.2415 11.9253 20.2843 11.9343C20.2833 11.8312 20.2805 11.7285 20.2758 11.6263C20.1962 9.90026 19.5862 8.31049 18.6051 7.01659C18.5427 6.93425 18.4787 6.8531 18.4133 6.77319ZM18.4085 7.25429C17.8796 7.86144 16.5486 9.17308 14.1942 10.1941C14.3861 10.5982 14.5458 10.9601 14.7056 11.3433C16.9351 11.1013 19.1041 11.4147 19.9725 11.5691C19.8839 9.95812 19.316 8.4732 18.4085 7.25429ZM17.4923 5.81508C15.5375 4.08076 12.9097 3.38165 10.3793 3.88695C10.2722 3.90835 10.1652 3.93191 10.0584 3.95764C10.0939 4.00514 10.16 4.09445 10.2514 4.22074C10.7501 4.90979 12.0025 6.69987 13.1499 8.80796C16.0961 7.70368 17.3433 6.02734 17.4923 5.81508ZM13.2866 8.43353C12.2242 6.51496 11.1005 4.88905 10.574 4.15523C12.8797 3.73602 15.2566 4.34896 17.0803 5.85711C16.6672 6.35329 15.5029 7.55062 13.2866 8.43353ZM8.47753 4.51457C6.25016 5.56517 4.56327 7.5793 3.95813 10.0163C3.93352 10.1154 3.9107 10.2153 3.8897 10.3157C3.93937 10.3164 4.04368 10.3172 4.19645 10.3157C5.15397 10.3061 8.01478 10.2039 11.2489 9.38421C11.3487 9.35891 11.4489 9.33294 11.5493 9.30626C11.4984 9.21574 11.4474 9.12577 11.3962 9.0364C10.0684 6.7161 8.68787 4.80303 8.47753 4.51457ZM11.0947 9.11368C9.96805 7.15358 8.8117 5.49614 8.38234 4.89547C6.368 5.92365 4.84542 7.78168 4.268 10.0148C5.26965 10.0009 8.00412 9.88705 11.0947 9.11368ZM3.71485 12.0594C3.71476 12.0438 3.71471 12.0282 3.71471 12.0126C3.71471 11.9924 3.71481 11.9722 3.71499 11.952C3.71557 11.8877 3.717 11.8235 3.71894 11.7595C4.08144 11.7669 8.09645 11.8186 12.2341 10.5804C12.4248 10.9536 12.6086 11.3314 12.7815 11.7099C12.8236 11.802 12.865 11.8942 12.9058 11.9864C12.8089 12.0137 12.7123 12.0426 12.6161 12.0732C9.85085 12.9502 7.35277 15.1421 6.00737 17.284C5.95111 17.3736 5.89686 17.4631 5.84469 17.5524C5.77413 17.4741 5.70503 17.3944 5.63746 17.3135C4.44694 15.887 3.72595 14.0558 3.71485 12.0594ZM5.80428 17.0442C4.6953 15.6814 4.02628 13.9483 4.01486 12.0617C5.06977 12.06 8.50152 11.9683 12.0791 10.9385C12.2219 11.2237 12.3601 11.5107 12.4919 11.7979C9.69812 12.695 7.18828 14.8847 5.80428 17.0442ZM7.2973 18.4622C9.56669 20.1224 12.4486 20.4107 14.8989 19.4532C14.7336 18.5488 14.271 16.3461 13.2926 13.737C10.3012 14.8323 8.17934 16.8525 7.2973 18.4622ZM13.4689 13.3564C10.1286 14.496 7.77987 16.7797 6.91442 18.5489C9.36888 20.4629 12.5723 20.7742 15.2364 19.6395C15.1132 18.9125 14.6321 16.3792 13.4689 13.3564ZM16.5713 18.5567C16.5982 18.7005 16.6173 18.8098 16.6293 18.8809C16.721 18.8189 16.8115 18.7551 16.9005 18.6895C18.6163 17.4268 19.8295 15.5193 20.1805 13.3278C19.9082 13.2418 17.7915 12.6103 15.3229 12.9297C15.2224 12.9428 15.1213 12.9573 15.0197 12.9736C15.0548 13.07 15.0892 13.1658 15.123 13.2611C15.9845 15.6916 16.4133 17.7145 16.5713 18.5567ZM16.8393 18.3605C18.3644 17.1948 19.4582 15.4933 19.8381 13.5409C19.1776 13.3627 17.4233 12.9738 15.4263 13.2191C16.2363 15.5163 16.662 17.4452 16.8393 18.3605ZM2.3 12C2.3 6.65139 6.65139 2.3 12 2.3C17.3486 2.3 21.7 6.65139 21.7 12C21.7 17.3486 17.3486 21.7 12 21.7C6.65139 21.7 2.3 17.3486 2.3 12Z" fill="currentColor"/>
<path fill-rule="evenodd" clip-rule="evenodd" d="M12 2.3C6.65139 2.3 2.3 6.65139 2.3 12C2.3 17.3486 6.65139 21.7 12 21.7C17.3486 21.7 21.7 17.3486 21.7 12C21.7 6.65139 17.3486 2.3 12 2.3ZM18.4133 6.77319C18.3841 6.81279 18.3207 6.89575 18.2211 7.01231C17.7444 7.56989 16.438 8.89637 14.0639 9.92357C13.9731 9.96284 13.8808 10.0017 13.7869 10.04C13.8322 10.1328 13.8756 10.2228 13.9175 10.3107C14.1442 10.7875 14.3251 11.204 14.5151 11.6677C16.8398 11.3753 19.152 11.7246 19.9835 11.8759C20.1381 11.904 20.2415 11.9253 20.2843 11.9343C20.2833 11.8312 20.2805 11.7285 20.2758 11.6263C20.1962 9.90026 19.5862 8.31049 18.6051 7.01659C18.5427 6.93425 18.4787 6.8531 18.4133 6.77319ZM17.4923 5.81508C15.5375 4.08076 12.9097 3.38165 10.3793 3.88695C10.2722 3.90835 10.1652 3.93191 10.0584 3.95764C10.0939 4.00514 10.16 4.09445 10.2514 4.22074C10.7501 4.90979 12.0025 6.69987 13.1499 8.80796C16.0961 7.70368 17.3433 6.02734 17.4923 5.81508ZM8.47753 4.51457C6.25016 5.56517 4.56327 7.5793 3.95813 10.0163C3.93352 10.1154 3.9107 10.2153 3.8897 10.3157C3.93937 10.3164 4.04368 10.3172 4.19645 10.3157C5.15397 10.3061 8.01478 10.2039 11.2489 9.38421C11.3487 9.35891 11.4489 9.33294 11.5493 9.30626C11.4984 9.21574 11.4474 9.12577 11.3962 9.0364C10.0684 6.7161 8.68787 4.80303 8.47753 4.51457ZM3.71471 12.0126L3.71485 12.0594C3.72595 14.0558 4.44694 15.887 5.63746 17.3135C5.70503 17.3944 5.77413 17.4741 5.84469 17.5524C5.89686 17.4631 5.95111 17.3736 6.00737 17.284C7.35277 15.1421 9.85085 12.9502 12.6161 12.0732C12.7123 12.0426 12.8089 12.0137 12.9058 11.9864C12.865 11.8942 12.8236 11.802 12.7815 11.7099C12.6086 11.3314 12.4248 10.9536 12.2341 10.5804C8.09645 11.8186 4.08144 11.7669 3.71894 11.7595C3.717 11.8235 3.71557 11.8877 3.71499 11.952L3.71471 12.0126ZM13.4689 13.3564C10.1286 14.496 7.77987 16.7797 6.91442 18.5489C9.36888 20.4629 12.5723 20.7742 15.2364 19.6395C15.1132 18.9125 14.6321 16.3792 13.4689 13.3564ZM16.5713 18.5567C16.5982 18.7005 16.6173 18.8098 16.6293 18.8809C16.721 18.8189 16.8115 18.7551 16.9005 18.6895C18.6163 17.4268 19.8295 15.5193 20.1805 13.3278C19.9082 13.2418 17.7915 12.6103 15.3229 12.9297C15.2224 12.9428 15.1213 12.9573 15.0197 12.9736C15.0548 13.07 15.0892 13.1658 15.123 13.2611C15.9845 15.6916 16.4133 17.7145 16.5713 18.5567Z" fill="currentColor"/>
</svg>
