<svg width="20" height="20" viewBox="0 0 20 20" fill="none" xmlns="http://www.w3.org/2000/svg">
<path d="M13 2C13.8284 2 14.5 2.67157 14.5 3.5V5C14.5 5.82843 13.8284 6.5 13 6.5H11.75C11.6119 6.5 11.5 6.61193 11.5 6.75V8H13.6123C14.2949 8 14.7774 8.66888 14.5615 9.31641L13.9561 11.1328C13.6838 11.9493 12.9193 12.5 12.0586 12.5H11.5V16.5C11.5 17.3284 10.8284 18 10 18H8.5C7.67157 18 7 17.3284 7 16.5V12.5H6C5.17157 12.5 4.5 11.8284 4.5 11V9.5C4.5 8.67157 5.17157 8 6 8H7V6.5C7 4.0086 9.13525 2 11.75 2H13ZM11.75 3.5C9.88306 3.5 8.5 4.91542 8.5 6.5V9.5H6V11H8.5V16.5H10V11H12.0586C12.2738 11 12.4652 10.8623 12.5332 10.6582L12.9189 9.5H10V6.75C10 5.7835 10.7835 5 11.75 5H13V3.5H11.75Z" fill="currentColor"/>
</svg>
