<svg width="20" height="20" viewBox="0 0 20 20" fill="none" xmlns="http://www.w3.org/2000/svg">
<path fill-rule="evenodd" clip-rule="evenodd" d="M2 6.25C2 5.83579 2.33579 5.5 2.75 5.5H17.25C17.6642 5.5 18 5.83579 18 6.25C18 6.66421 17.6642 7 17.25 7H2.75C2.33579 7 2 6.66421 2 6.25ZM5 10.25C5 9.83579 5.33579 9.5 5.75 9.5H14.25C14.6642 9.5 15 9.83579 15 10.25C15 10.6642 14.6642 11 14.25 11H5.75C5.33579 11 5 10.6642 5 10.25ZM8.75 13.5C8.33579 13.5 8 13.8358 8 14.25C8 14.6642 8.33579 15 8.75 15H11.25C11.6642 15 12 14.6642 12 14.25C12 13.8358 11.6642 13.5 11.25 13.5H8.75Z" fill="currentColor"/>
</svg>
