<svg width="24" height="24" viewBox="0 0 24 24" fill="none" xmlns="http://www.w3.org/2000/svg">
<path d="M6 3C4.34315 3 3 4.34315 3 6V10H5V6C5 5.44772 5.44772 5 6 5H10V3H6Z" fill="currentColor"/>
<path d="M18 3C19.6569 3 21 4.34315 21 6V10H19V6C19 5.44772 18.5523 5 18 5H14V3H18Z" fill="currentColor"/>
<path d="M3 18C3 19.6569 4.34315 21 6 21H10V19H6C5.44772 19 5 18.5523 5 18V14H3V18Z" fill="currentColor"/>
<path d="M18 21C19.6569 21 21 19.6569 21 18V14H19V18C19 18.5523 18.5523 19 18 19H14V21H18Z" fill="currentColor"/>
</svg>
