<svg width="20" height="20" viewBox="0 0 20 20" fill="none" xmlns="http://www.w3.org/2000/svg">
<path fill-rule="evenodd" clip-rule="evenodd" d="M7.53827 3.05552C9.1505 2.67279 10.8301 2.67279 12.4423 3.05552C13.3702 2.46832 14.0857 2.19414 14.6133 2.07701C14.9037 2.01255 15.1362 1.99591 15.3136 2.0008C15.4021 2.00323 15.476 2.011 15.5358 2.02053C15.5656 2.02529 15.5918 2.03046 15.6143 2.03558C15.6255 2.03814 15.6359 2.04069 15.6453 2.04316L15.6587 2.04679L15.6649 2.04855L15.6679 2.04941L15.6694 2.04984C15.6701 2.05005 15.6708 2.05026 15.4609 2.75805L15.6708 2.05026C15.8812 2.11267 16.053 2.26548 16.1394 2.46721C16.5351 3.39034 16.6076 4.4154 16.3529 5.37826C16.6505 5.77705 16.8776 6.23132 17.0394 6.66541C17.2495 7.22949 17.373 7.82369 17.373 8.30984C17.373 10.485 16.7076 11.9438 15.6019 12.8736C14.859 13.4983 13.9715 13.836 13.0964 14.0289C13.1078 14.0579 13.1187 14.087 13.1293 14.1163C13.281 14.5374 13.3433 14.9854 13.3125 15.4317V18.2617C13.3125 18.6695 12.982 19 12.5742 19C12.1665 19 11.836 18.6695 11.836 18.2617V15.4046C11.836 15.3853 11.8367 15.366 11.8382 15.3467C11.8577 15.0991 11.8243 14.8503 11.7401 14.6166C11.656 14.383 11.523 14.1699 11.3502 13.9916C11.1541 13.7894 11.0902 13.4932 11.1855 13.2281C11.2807 12.963 11.5185 12.7752 11.7985 12.744C12.9161 12.6194 13.9238 12.3555 14.6517 11.7434C15.3437 11.1615 15.8964 10.1657 15.8964 8.30984C15.8964 8.04292 15.8216 7.62613 15.6557 7.18086C15.4905 6.73747 15.2588 6.33002 14.9926 6.05038C14.7978 5.84576 14.7369 5.5479 14.8356 5.2832C15.0478 4.71474 15.0816 4.09925 14.9389 3.51723C14.9371 3.51764 14.9352 3.51804 14.9334 3.51846C14.5733 3.5984 13.9359 3.82674 12.9853 4.46393C12.8078 4.58293 12.5874 4.61916 12.3811 4.56326C10.8155 4.13893 9.1651 4.13893 7.59946 4.56326C7.39318 4.61916 7.17279 4.58293 6.99527 4.46393C6.04471 3.82674 5.40729 3.5984 5.04721 3.51846C5.04536 3.51804 5.04351 3.51764 5.04167 3.51723C4.899 4.09925 4.93278 4.71474 5.14493 5.2832C5.24372 5.5479 5.18277 5.84577 4.98795 6.0504C4.71899 6.3329 4.48759 6.74015 4.32351 7.18399C4.15894 7.6291 4.08412 8.05107 4.08412 8.33199C4.08412 10.1707 4.63541 11.1603 5.3289 11.7434C6.05942 12.3577 7.07002 12.628 8.19131 12.7672C8.46907 12.8017 8.70343 12.9903 8.79654 13.2543C8.88964 13.5183 8.82548 13.8122 8.63084 14.0133C8.46002 14.1898 8.32828 14.4003 8.24419 14.6311C8.16011 14.8619 8.12556 15.1078 8.14279 15.3528C8.144 15.3701 8.14461 15.3873 8.14461 15.4046V18.2617C8.14461 18.6695 7.81407 19 7.40634 19C6.9986 19 6.66807 18.6695 6.66807 18.2617V16.9729C6.0729 17.064 5.54915 17.0483 5.08097 16.9388C4.36871 16.7721 3.86001 16.4054 3.46981 16.0152C3.27886 15.8243 3.11435 15.6258 2.9722 15.4477C2.9239 15.3872 2.87976 15.3311 2.83805 15.2782C2.74915 15.1653 2.67129 15.0664 2.58775 14.9684C2.34556 14.6841 2.19533 14.5823 2.05939 14.5483C1.66383 14.4494 1.42333 14.0486 1.52222 13.6531C1.62111 13.2575 2.02194 13.017 2.4175 13.1159C3.01983 13.2665 3.4233 13.6723 3.71175 14.0109C3.81447 14.1315 3.92056 14.2661 4.01774 14.3895C4.05545 14.4373 4.09182 14.4835 4.12612 14.5265C4.25794 14.6916 4.38182 14.8391 4.51387 14.9712C4.76965 15.2269 5.04537 15.414 5.41744 15.5011C5.71289 15.5702 6.11306 15.5864 6.66807 15.4734V15.4289C6.64074 14.9862 6.70497 14.5425 6.85686 14.1256C6.86723 14.0972 6.87799 14.0689 6.88914 14.0408C6.01276 13.8409 5.12287 13.4994 4.37863 12.8736C3.27443 11.9451 2.60758 10.4947 2.60758 8.33199C2.60758 7.83769 2.72845 7.24036 2.93858 6.67197C3.10036 6.23438 3.32805 5.77862 3.62757 5.37797C3.37301 4.41519 3.44551 3.39025 3.84113 2.46721C3.9276 2.26548 4.09934 2.11267 4.30976 2.05026L4.5197 2.75805C4.30976 2.05026 4.31048 2.05005 4.31119 2.04984L4.31265 2.04941L4.31562 2.04855L4.32182 2.04679L4.33527 2.04316C4.34469 2.04069 4.35503 2.03814 4.36629 2.03558C4.38881 2.03046 4.41497 2.02529 4.4448 2.02053C4.50453 2.011 4.57849 2.00323 4.667 2.0008C4.84441 1.99591 5.07687 2.01255 5.36722 2.07701C5.89484 2.19414 6.61035 2.46832 7.53827 3.05552Z" fill="currentColor"/>
</svg>
