<svg width="24" height="24" viewBox="0 0 24 24" fill="none" xmlns="http://www.w3.org/2000/svg">
<path fill-rule="evenodd" clip-rule="evenodd" d="M9.1787 2.39972C11.3625 1.88131 13.6375 1.88131 15.8213 2.39972C17.0782 1.60435 18.0473 1.23297 18.762 1.07431C19.1553 0.987004 19.4702 0.964465 19.7105 0.971079C19.8304 0.974379 19.9305 0.984906 20.0115 0.997809C20.0519 1.00425 20.0873 1.01126 20.1178 1.0182C20.1331 1.02167 20.1471 1.02511 20.1598 1.02846L20.178 1.03338L20.1864 1.03576L20.1905 1.03693L20.1924 1.03751C20.1934 1.03779 20.1944 1.03808 19.91 1.99679L20.1944 1.03808C20.4794 1.12262 20.712 1.32959 20.8291 1.60285C21.3651 2.85324 21.4632 4.2417 21.1183 5.54591C21.5214 6.08608 21.8291 6.7014 22.0481 7.28937C22.3327 8.05344 22.5 8.85828 22.5 9.5168C22.5 12.4631 21.5987 14.4391 20.1011 15.6984C19.0948 16.5446 17.8926 17.0021 16.7073 17.2634C16.7227 17.3026 16.7376 17.342 16.7519 17.3817C16.9573 17.9522 17.0417 18.559 17 19.1635V22.9968C17 23.5491 16.5523 23.9968 16 23.9968C15.4477 23.9968 15 23.5491 15 22.9968V19.1268C15 19.1006 15.001 19.0745 15.0031 19.0484C15.0295 18.713 14.9842 18.3759 14.8702 18.0594C14.7562 17.743 14.5761 17.4544 14.342 17.2129C14.0764 16.9389 13.9899 16.5377 14.1189 16.1786C14.2479 15.8196 14.57 15.5652 14.9492 15.523C16.463 15.3542 17.828 14.9967 18.8139 14.1677C19.7513 13.3795 20.5 12.0305 20.5 9.5168C20.5 9.15525 20.3986 8.59069 20.1739 7.98757C19.9502 7.38699 19.6363 6.83509 19.2757 6.45632C19.0119 6.17915 18.9293 5.77569 19.0631 5.41715C19.3505 4.64716 19.3962 3.81347 19.203 3.02512C19.2005 3.02567 19.198 3.02622 19.1955 3.02678C18.7077 3.13506 17.8444 3.44436 16.5568 4.30744C16.3163 4.46863 16.0178 4.5177 15.7384 4.44198C13.6177 3.86722 11.3823 3.86722 9.26158 4.44198C8.98217 4.5177 8.68366 4.46863 8.4432 4.30744C7.15565 3.44436 6.29226 3.13506 5.80452 3.02678C5.80201 3.02622 5.79951 3.02567 5.79702 3.02512C5.60377 3.81347 5.64952 4.64716 5.93688 5.41715C6.07069 5.7757 5.98813 6.17916 5.72425 6.45633C5.35994 6.83898 5.04651 7.39062 4.82425 7.9918C4.60135 8.59472 4.5 9.16628 4.5 9.54679C4.5 12.0373 5.24674 13.3778 6.18608 14.1677C7.17558 14.9997 8.54445 15.3658 10.0633 15.5544C10.4395 15.6011 10.7569 15.8566 10.883 16.2141C11.0092 16.5717 10.9223 16.9698 10.6586 17.2422C10.4272 17.4813 10.2488 17.7664 10.1349 18.079C10.021 18.3917 9.97419 18.7247 9.99754 19.0566C9.99918 19.08 10 19.1034 10 19.1268V22.9968C10 23.5491 9.55228 23.9968 9 23.9968C8.44772 23.9968 8 23.5491 8 22.9968V21.251C7.19383 21.3744 6.4844 21.3532 5.85025 21.2048C4.88548 20.979 4.19643 20.4824 3.6679 19.9539C3.40926 19.6952 3.18643 19.4263 2.99389 19.1851C2.92846 19.1032 2.86867 19.0273 2.81218 18.9555C2.69175 18.8026 2.58629 18.6687 2.47314 18.5359C2.14509 18.1508 1.9416 18.013 1.75746 17.9669C1.22167 17.833 0.895909 17.2901 1.02986 16.7543C1.16381 16.2185 1.70674 15.8927 2.24254 16.0267C3.0584 16.2306 3.60491 16.7803 3.99561 17.2389C4.13475 17.4023 4.27845 17.5847 4.41008 17.7518C4.46116 17.8166 4.51042 17.8791 4.5569 17.9373C4.73544 18.161 4.90324 18.3608 5.0821 18.5397C5.42857 18.8861 5.80202 19.1395 6.306 19.2574C6.70619 19.3511 7.24824 19.3731 8 19.22V19.1596C7.96298 18.56 8.04998 17.9591 8.25573 17.3944C8.26977 17.3558 8.28435 17.3175 8.29944 17.2795C7.11237 17.0088 5.90701 16.5461 4.89892 15.6984C3.40326 14.4408 2.5 12.4763 2.5 9.54679C2.5 8.87725 2.66371 8.06816 2.94835 7.29827C3.16748 6.70554 3.47589 6.0882 3.88159 5.54551C3.53679 4.24142 3.63499 2.85312 4.17087 1.60285C4.28799 1.32959 4.52061 1.12262 4.80564 1.03808L5.09 1.99679C4.80564 1.03808 4.8066 1.03779 4.80757 1.03751L4.80954 1.03693L4.81357 1.03576L4.82197 1.03338L4.84018 1.02846C4.85294 1.02511 4.86695 1.02167 4.8822 1.0182C4.91271 1.01126 4.94814 1.00425 4.98854 0.997809C5.06945 0.984906 5.16963 0.974379 5.28952 0.971079C5.52983 0.964465 5.8447 0.987004 6.23798 1.07431C6.95265 1.23297 7.92182 1.60435 9.1787 2.39972Z" fill="currentColor"/>
</svg>
