<svg width="20" height="20" viewBox="0 0 20 20" fill="none" xmlns="http://www.w3.org/2000/svg">
    <path d="M11.2188 5.58594C11.8021 4.77359 12.745 4.25002 13.8105 4.25V2.75L13.5186 2.75879C12.0674 2.84819 10.7981 3.59958 10 4.71094C9.14929 3.52562 7.76113 2.75 6.18945 2.75V4.25C7.25456 4.25 8.19848 4.77321 8.78125 5.58496L10 7.2832L11.2188 5.58594ZM17 7.43652C16.9999 9.02184 16.1073 10.9682 14.5898 12.7754C13.239 14.384 11.5502 15.6898 10 16.3809C8.44962 15.6898 6.76093 14.3841 5.41016 12.7754C3.89275 10.9682 3.00012 9.0219 3 7.43652C3 5.67805 4.4268 4.25021 6.18945 4.25V2.75L5.94824 2.75586C3.47036 2.8815 1.5 4.92935 1.5 7.43652C1.50024 11.6044 6.02985 16.558 10 18C13.9697 16.5579 18.4998 11.6044 18.5 7.43652C18.5 4.84839 16.4002 2.75 13.8105 2.75V4.25C15.5728 4.25 17 5.67782 17 7.43652Z" fill="currentColor"/>
</svg>
