<svg width="24" height="24" viewBox="0 0 24 24" fill="none" xmlns="http://www.w3.org/2000/svg">
<path fill-rule="evenodd" clip-rule="evenodd" d="M8.99516 21.9994L9 21.9994L9.00484 21.9994H14.9952L15 21.9994L15.0048 21.9994H19C20.6569 21.9994 22 20.6563 22 18.9994V9.02668C22 8.05949 21.5337 7.15163 20.7476 6.58822L13.7476 1.57156C12.7028 0.822827 11.2972 0.822827 10.2524 1.57156L3.25244 6.58822C2.4663 7.15163 2 8.05949 2 9.02668V18.9994C2 20.6563 3.34315 21.9994 5 21.9994H8.99516ZM11.4175 3.19719C11.7657 2.94762 12.2343 2.94762 12.5825 3.19719L19.5825 8.21386C19.8446 8.40166 20 8.70428 20 9.02668V18.9994C20 19.5517 19.5523 19.9994 19 19.9994H16V13.9994C16 11.7903 14.2091 9.99944 12 9.99944C9.79086 9.99944 8 11.7903 8 13.9994V19.9994H5C4.44772 19.9994 4 19.5517 4 18.9994V9.02668C4 8.70428 4.15543 8.40166 4.41748 8.21386L11.4175 3.19719ZM14 19.9994H10V13.9994C10 12.8949 10.8954 11.9994 12 11.9994C13.1046 11.9994 14 12.8949 14 13.9994V19.9994Z" fill="currentColor"/>
</svg>
