<svg width="20" height="20" viewBox="0 0 20 20" fill="none" xmlns="http://www.w3.org/2000/svg">
<path fill-rule="evenodd" clip-rule="evenodd" d="M10.25 18C14.5302 18 18 14.5302 18 10.25C18 5.96979 14.5302 2.5 10.25 2.5C5.96979 2.5 2.5 5.96979 2.5 10.25C2.5 14.5302 5.96979 18 10.25 18ZM10.25 16.5C13.7018 16.5 16.5 13.7018 16.5 10.25C16.5 6.79822 13.7018 4 10.25 4C6.79822 4 4 6.79822 4 10.25C4 13.7018 6.79822 16.5 10.25 16.5ZM8.53033 7.46967C8.23744 7.17678 7.76256 7.17678 7.46967 7.46967C7.17678 7.76256 7.17678 8.23744 7.46967 8.53033L9.18934 10.25L7.46967 11.9697C7.17678 12.2626 7.17678 12.7374 7.46967 13.0303C7.76256 13.3232 8.23744 13.3232 8.53033 13.0303L10.25 11.3107L11.9697 13.0303C12.2626 13.3232 12.7374 13.3232 13.0303 13.0303C13.3232 12.7374 13.3232 12.2626 13.0303 11.9697L11.3107 10.25L13.0303 8.53033C13.3232 8.23744 13.3232 7.76256 13.0303 7.46967C12.7374 7.17678 12.2626 7.17678 11.9697 7.46967L10.25 9.18934L8.53033 7.46967Z" fill="currentColor"/>
</svg>
