<svg width="20" height="20" viewBox="0 0 20 20" fill="none" xmlns="http://www.w3.org/2000/svg">
<path fill-rule="evenodd" clip-rule="evenodd" d="M10.25 16.5C13.7018 16.5 16.5 13.7018 16.5 10.25C16.5 6.79822 13.7018 4 10.25 4C6.79822 4 4 6.79822 4 10.25C4 13.7018 6.79822 16.5 10.25 16.5ZM10.25 18C14.5302 18 18 14.5302 18 10.25C18 5.96979 14.5302 2.5 10.25 2.5C5.96979 2.5 2.5 5.96979 2.5 10.25C2.5 14.5302 5.96979 18 10.25 18ZM9.5 10.25C9.5 9.83579 9.83579 9.5 10.25 9.5C10.6642 9.5 11 9.83579 11 10.25V13.25C11 13.6642 10.6642 14 10.25 14C9.83579 14 9.5 13.6642 9.5 13.25V10.25ZM10.25 8C10.6642 8 11 7.66421 11 7.25C11 6.83579 10.6642 6.5 10.25 6.5C9.83579 6.5 9.5 6.83579 9.5 7.25C9.5 7.66421 9.83579 8 10.25 8Z" fill="currentColor"/>
</svg>
