<svg width="20" height="20" viewBox="0 0 20 20" fill="none" xmlns="http://www.w3.org/2000/svg">
<path fill-rule="evenodd" clip-rule="evenodd" d="M2.5 5.5V9.75736C2.5 10.9508 2.97411 12.0954 3.81802 12.9393L7.74228 16.8636C9.26533 18.3866 11.7347 18.3866 13.2577 16.8636L16.8636 13.2577C18.3867 11.7347 18.3866 9.26533 16.8636 7.74228L12.9393 3.81802C12.0954 2.97411 10.9508 2.5 9.75736 2.5H5.5C3.84315 2.5 2.5 3.84315 2.5 5.5ZM4 9.75736V5.5C4 4.67157 4.67157 4 5.5 4H9.75736C10.553 4 11.3161 4.31607 11.8787 4.87868L15.8029 8.80294C16.7402 9.7402 16.7402 11.2598 15.8029 12.1971L12.1971 15.8029C11.2598 16.7402 9.7402 16.7402 8.80294 15.8029L4.87868 11.8787C4.31607 11.3161 4 10.553 4 9.75736ZM8 7C8 7.55228 7.55228 8 7 8C6.44772 8 6 7.55228 6 7C6 6.44772 6.44772 6 7 6C7.55228 6 8 6.44772 8 7Z" fill="currentColor"/>
</svg>
