<svg width="24" height="24" viewBox="0 0 24 24" fill="none" xmlns="http://www.w3.org/2000/svg">
<path fill-rule="evenodd" clip-rule="evenodd" d="M11.3431 2C12.404 2 13.4214 2.42143 14.1716 3.17157L21.0251 10.0251C22.392 11.392 22.392 13.608 21.0251 14.9749L14.9749 21.0251C13.608 22.392 11.392 22.392 10.0251 21.0251L3.17157 14.1716L4.58579 12.7574L11.4393 19.6109C12.0251 20.1967 12.9749 20.1967 13.5607 19.6109L19.6109 13.5607C20.1967 12.9749 20.1967 12.0251 19.6109 11.4393L12.7574 4.58579C12.3823 4.21071 11.8736 4 11.3431 4H5C4.44772 4 4 4.44772 4 5V11.3431C4 11.8736 4.21071 12.3823 4.58579 12.7574L3.17157 14.1716C2.42143 13.4214 2 12.404 2 11.3431V5C2 3.34315 3.34315 2 5 2H11.3431ZM7.5 9C8.32843 9 9 8.32843 9 7.5C9 6.67157 8.32843 6 7.5 6C6.67157 6 6 6.67157 6 7.5C6 8.32843 6.67157 9 7.5 9Z" fill="currentColor"/>
</svg>
