<svg width="20" height="20" viewBox="0 0 20 20" fill="none" xmlns="http://www.w3.org/2000/svg">
<path fill-rule="evenodd" clip-rule="evenodd" d="M7.75 4C8.16421 4 8.5 4.33579 8.5 4.75C8.5 5.16421 8.16421 5.5 7.75 5.5H5.5C4.94772 5.5 4.5 5.94772 4.5 6.5V14.5C4.5 15.0523 4.94772 15.5 5.5 15.5H13.5C14.0523 15.5 14.5 15.0523 14.5 14.5V12.25C14.5 11.8358 14.8358 11.5 15.25 11.5C15.6642 11.5 16 11.8358 16 12.25V14.5C16 15.8807 14.8807 17 13.5 17H5.5C4.11929 17 3 15.8807 3 14.5V6.5C3 5.11929 4.11929 4 5.5 4H7.75ZM11 3.75C11 4.16421 11.3358 4.5 11.75 4.5H14.4393L11.2197 7.71967C10.9268 8.01256 10.9268 8.48744 11.2197 8.78033C11.5126 9.07322 11.9874 9.07322 12.2803 8.78033L15.5 5.56066V8.25C15.5 8.66421 15.8358 9 16.25 9C16.6642 9 17 8.66421 17 8.25V3.75C17 3.33579 16.6642 3 16.25 3H11.75C11.3358 3 11 3.33579 11 3.75Z" fill="currentColor"/>
</svg>
