<svg width="20" height="20" viewBox="0 0 20 20" fill="none" xmlns="http://www.w3.org/2000/svg">
<path d="M12.625 3.25C12.2108 3.25 11.875 3.58579 11.875 4C11.875 4.41421 12.2108 4.75 12.625 4.75H14.1893L10.9697 7.96967C10.6768 8.26256 10.6768 8.73744 10.9697 9.03033C11.2626 9.32322 11.7374 9.32322 12.0303 9.03033L15.25 5.81066V7.375C15.25 7.78921 15.5858 8.125 16 8.125C16.4142 8.125 16.75 7.78921 16.75 7.375V4C16.75 3.58579 16.4142 3.25 16 3.25H12.625Z" fill="currentColor"/>
<path d="M4.75 6.25C4.75 5.83579 5.08579 5.5 5.5 5.5H8.5C8.91421 5.5 9.25 5.16421 9.25 4.75C9.25 4.33579 8.91421 4 8.5 4H5.5C4.25736 4 3.25 5.00736 3.25 6.25V14.5C3.25 15.7426 4.25736 16.75 5.5 16.75H13.75C14.9926 16.75 16 15.7426 16 14.5V11.5C16 11.0858 15.6642 10.75 15.25 10.75C14.8358 10.75 14.5 11.0858 14.5 11.5V14.5C14.5 14.9142 14.1642 15.25 13.75 15.25H5.5C5.08579 15.25 4.75 14.9142 4.75 14.5V6.25Z" fill="currentColor"/>
</svg>
