<svg width="24" height="24" viewBox="0 0 24 24" fill="none" xmlns="http://www.w3.org/2000/svg">
<g clip-path="url(#clip0_529_15014)">
<path fill-rule="evenodd" clip-rule="evenodd" d="M13 1C13 0.447715 12.5523 0 12 0C11.4477 0 11 0.447715 11 1V4C11 4.55228 11.4477 5 12 5C12.5523 5 13 4.55228 13 4V1ZM5.70711 4.29289C5.31658 3.90237 4.68342 3.90237 4.29289 4.29289C3.90237 4.68342 3.90237 5.31658 4.29289 5.70711L5.29289 6.70711C5.68342 7.09763 6.31658 7.09763 6.70711 6.70711C7.09763 6.31658 7.09763 5.68342 6.70711 5.29289L5.70711 4.29289ZM19.7071 4.29289C19.3166 3.90237 18.6834 3.90237 18.2929 4.29289L17.2929 5.29289C16.9024 5.68342 16.9024 6.31658 17.2929 6.70711C17.6834 7.09763 18.3166 7.09763 18.7071 6.70711L19.7071 5.70711C20.0976 5.31658 20.0976 4.68342 19.7071 4.29289ZM1 11C0.447715 11 0 11.4477 0 12C0 12.5523 0.447715 13 1 13H4C4.55228 13 5 12.5523 5 12C5 11.4477 4.55228 11 4 11H1ZM20 11C19.4477 11 19 11.4477 19 12C19 12.5523 19.4477 13 20 13H23C23.5523 13 24 12.5523 24 12C24 11.4477 23.5523 11 23 11H20ZM6.70711 18.7071C7.09763 18.3166 7.09763 17.6834 6.70711 17.2929C6.31658 16.9024 5.68342 16.9024 5.29289 17.2929L4.29289 18.2929C3.90237 18.6834 3.90237 19.3166 4.29289 19.7071C4.68342 20.0976 5.31658 20.0976 5.70711 19.7071L6.70711 18.7071ZM18.7071 17.2929C18.3166 16.9024 17.6834 16.9024 17.2929 17.2929C16.9024 17.6834 16.9024 18.3166 17.2929 18.7071L18.2929 19.7071C18.6834 20.0976 19.3166 20.0976 19.7071 19.7071C20.0976 19.3166 20.0976 18.6834 19.7071 18.2929L18.7071 17.2929ZM13 20C13 19.4477 12.5523 19 12 19C11.4477 19 11 19.4477 11 20V23C11 23.5523 11.4477 24 12 24C12.5523 24 13 23.5523 13 23V20ZM15 12C15 13.6569 13.6569 15 12 15C10.3431 15 9 13.6569 9 12C9 10.3431 10.3431 9 12 9C13.6569 9 15 10.3431 15 12ZM17 12C17 14.7614 14.7614 17 12 17C9.23858 17 7 14.7614 7 12C7 9.23858 9.23858 7 12 7C14.7614 7 17 9.23858 17 12Z" fill="currentColor"/>
</g>
<defs>
<clipPath id="clip0_529_15014">
<rect width="24" height="24" fill="white"/>
</clipPath>
</defs>
</svg>
