<svg width="24" height="24" viewBox="0 0 24 24" fill="none" xmlns="http://www.w3.org/2000/svg">
<path d="M11 16C11 16.5523 10.5523 17 10 17H7C5.61667 17 4.43767 16.5123 3.463 15.537C2.48767 14.5623 2 13.3833 2 12C2 10.6167 2.48767 9.43733 3.463 8.462C4.43767 7.48733 5.61667 7 7 7H10C10.5523 7 11 7.44772 11 8C11 8.55228 10.5523 9 10 9H7C6.16667 9 5.45833 9.29167 4.875 9.875C4.29167 10.4583 4 11.1667 4 12C4 12.8333 4.29167 13.5417 4.875 14.125C5.45833 14.7083 6.16667 15 7 15H10C10.5523 15 11 15.4477 11 16ZM9 13C8.44772 13 8 12.5523 8 12C8 11.4477 8.44772 11 9 11H15C15.5523 11 16 11.4477 16 12C16 12.5523 15.5523 13 15 13H9ZM14 17C13.4477 17 13 16.5523 13 16C13 15.4477 13.4477 15 14 15H17C17.8333 15 18.5417 14.7083 19.125 14.125C19.7083 13.5417 20 12.8333 20 12C20 11.1667 19.7083 10.4583 19.125 9.875C18.5417 9.29167 17.8333 9 17 9H14C13.4477 9 13 8.55228 13 8C13 7.44772 13.4477 7 14 7H17C18.3833 7 19.5627 7.48733 20.538 8.462C21.5127 9.43733 22 10.6167 22 12C22 13.3833 21.5127 14.5623 20.538 15.537C19.5627 16.5123 18.3833 17 17 17H14Z" fill="currentColor"/>
</svg>
