<svg width="20" height="20" viewBox="0 0 20 20" fill="none" xmlns="http://www.w3.org/2000/svg">
<path fill-rule="evenodd" clip-rule="evenodd" d="M7.75 5C8.16421 5 8.5 5.33579 8.5 5.75C8.5 6.16421 8.16421 6.5 7.75 6.5H6.25C4.17893 6.5 2.5 8.17893 2.5 10.25C2.5 12.3211 4.17893 14 6.25 14H7.75C8.16421 14 8.5 14.3358 8.5 14.75C8.5 15.1642 8.16421 15.5 7.75 15.5H6.25C3.35051 15.5 1 13.1495 1 10.25C1 7.35051 3.3505 5 6.25 5H7.75ZM12.25 14C11.8358 14 11.5 14.3358 11.5 14.75C11.5 15.1642 11.8358 15.5 12.25 15.5H13.75C16.6495 15.5 19 13.1495 19 10.25C19 7.35051 16.6495 5 13.75 5H12.25C11.8358 5 11.5 5.33579 11.5 5.75C11.5 6.16421 11.8358 6.5 12.25 6.5H13.75C15.8211 6.5 17.5 8.17893 17.5 10.25C17.5 12.3211 15.8211 14 13.75 14H12.25ZM7.75 9.5C7.33579 9.5 7 9.83579 7 10.25C7 10.6642 7.33579 11 7.75 11H12.25C12.6642 11 13 10.6642 13 10.25C13 9.83579 12.6642 9.5 12.25 9.5H7.75Z" fill="currentColor"/>
</svg>
