<svg width="24" height="24" viewBox="0 0 24 24" fill="none" xmlns="http://www.w3.org/2000/svg">
<path d="M21 20V12.8325C21 11.6632 20.5355 10.5418 19.7087 9.71502C18.8819 8.88823 17.7605 8.42374 16.5913 8.42374C15.4418 8.42374 14.1029 9.12697 13.4538 10.1818V8.68069H9.68069V20H13.4538V13.3328C13.4538 12.2915 14.2923 11.4395 15.3336 11.4395C15.8357 11.4395 16.3173 11.639 16.6724 11.9941C17.0274 12.3491 17.2269 12.8307 17.2269 13.3328V20H21ZM5.2855 6.55748C5.88807 6.55748 6.46595 6.31811 6.89203 5.89203C7.31811 5.46595 7.55748 4.88807 7.55748 4.2855C7.55748 3.0278 6.5432 2 5.2855 2C4.67935 2 4.09802 2.24079 3.66941 2.66941C3.24079 3.09802 3 3.67935 3 4.2855C3 5.5432 4.0278 6.55748 5.2855 6.55748ZM7.16529 20V8.68069H3.41923V20H7.16529Z" fill="currentColor"/>
</svg>
