<svg width="20" height="20" viewBox="0 0 20 20" fill="none" xmlns="http://www.w3.org/2000/svg">
<path d="M9.92749 2C12.7946 2 14.0338 2.17378 14.3611 2.22168C16.2978 2.50485 17.9311 3.96605 18.1834 5.81933C18.3521 7.51224 18.2823 9.30022 18.1785 11.0049L18.1472 11.3154C17.7129 14.4531 13.8975 15.125 11.4998 15.125C8.49999 15.125 6.99976 14.75 6.99976 14.75V16.25C6.99976 16.25 7.00011 17.7499 9.99976 17.75C12.2301 17.75 12.8763 17.0014 12.8875 16.9883V18.2881C12.8809 18.49 12.0501 18.8116 11.8953 18.8603C11.7088 18.9183 11.5196 18.9698 11.3289 19.0137C9.70219 19.3798 8.00851 19.3197 6.41577 18.8418L6.09936 18.7402C4.52663 18.1945 2.92072 16.8571 2.52417 15.25C1.82401 12.373 1.43305 8.63897 2.07495 5.68457C2.46612 3.92672 4.00224 2.66311 5.74389 2.28516L6.09546 2.22168C6.42231 2.17378 7.03874 2.00002 9.90601 2H9.92749ZM9.90601 3.5C8.49941 3.50001 7.67571 3.54272 7.1814 3.58691C6.93154 3.60927 6.77768 3.62993 6.65503 3.64941L6.31225 3.70605C4.90914 3.91125 3.79422 4.86708 3.53979 6.01074L3.53881 6.00976C2.96681 8.65087 3.30905 12.1296 3.98217 14.8955C4.15328 15.5805 4.77404 16.3114 5.58764 16.832C5.55591 16.7177 5.53289 16.6147 5.52026 16.5264C5.51171 16.4664 5.50674 16.4124 5.50366 16.3662C5.50214 16.3433 5.50135 16.322 5.50073 16.3027C5.50042 16.293 5.49989 16.2832 5.49975 16.2744V16.2529C5.49975 16.2529 5.5072 16.2501 6.84253 16.25H5.49975V12.8291L7.35815 13.293L7.36011 13.2939C7.36479 13.295 7.37511 13.2974 7.39038 13.3008C7.42262 13.3078 7.4787 13.3192 7.55737 13.334C7.71513 13.3636 7.96701 13.4062 8.31128 13.4492C9 13.5353 10.063 13.625 11.4998 13.625C12.6337 13.625 14.0078 13.4554 15.0662 12.9756C16.0676 12.5215 16.6171 11.8918 16.6814 10.9131C16.7839 9.22993 16.8457 7.55759 16.6941 6.00293C16.5371 4.92214 15.52 3.90723 14.1433 3.70605C13.8933 3.66946 12.7273 3.5 9.92749 3.5H9.90601ZM12.2351 5.50977C12.9275 5.50984 13.4857 5.75106 13.9128 6.2207C14.3255 6.69107 14.5319 7.3261 14.5319 8.12598L14.4988 11.0049H12.9997L13.0319 8.24121C13.0318 7.44189 12.6568 7.00977 11.9069 7.00977C11.1571 7.0099 10.7819 7.51698 10.7819 8.46973L10.7497 10.0098H9.24972L9.28192 8.46973C9.28192 7.51685 8.90692 7.00977 8.15692 7.00977C7.40712 7.00988 7.0326 7.44071 7.03192 8.24023L6.99973 11.0029L5.49972 11.0049L5.53192 8.12598C5.53199 7.32667 5.73847 6.6915 6.15106 6.2207C6.57682 5.75099 7.13562 5.50982 7.8288 5.50977C8.96206 5.50977 9.68575 6.15355 10.0319 7.07227C10.3781 6.15351 11.1023 5.50977 12.2351 5.50977Z" fill="currentColor"/>
</svg>
