<svg width="24" height="24" viewBox="0 0 24 24" fill="none" xmlns="http://www.w3.org/2000/svg">
<g>
<path fill-rule="evenodd" clip-rule="evenodd" d="M1.43413 5.91321C1.9904 3.41271 4.28317 1.66276 6.7938 1.29584C6.84539 1.28829 6.90239 1.27838 6.96913 1.26677C7.466 1.18036 8.50313 1 11.8753 1H11.9039C15.728 1 17.3788 1.23207 17.8145 1.29584C20.397 1.67322 22.5756 3.62073 22.9119 6.09199C23.1369 8.34932 23.044 10.733 22.9056 13.006C22.6146 17.5457 17.3 18.5 14 18.5C12.3094 18.5 10.9761 18.4107 10 18.3076C8.66667 18.1667 8 18 8 18L8 20C8 20 8.00001 20.0153 8.00268 20.0432C8.02913 20.3194 8.31756 21.8323 11.4628 21.9872C11.6333 21.9956 11.8123 22 12 22C12.5173 22 12.9706 21.9698 13.3667 21.9198L13.375 21.9188C13.5436 21.8973 13.7017 21.8723 13.85 21.8445C13.9024 21.8347 13.9535 21.8246 14.0034 21.8141L14.0093 21.8128C14.0365 21.8071 14.0633 21.8013 14.0898 21.7954C15.4195 21.4987 15.85 20.9843 15.85 20.9843V22.7175C15.8412 22.9867 14.734 23.4157 14.5276 23.4806C14.2788 23.558 14.0271 23.6259 13.7726 23.6845C13.1867 23.8164 12.5944 23.9068 12 23.956C11.8214 23.9708 11.6426 23.9818 11.4637 23.9891C9.88701 24.0538 8.30496 23.8296 6.79908 23.3207C4.70196 22.5931 2.56148 20.8097 2.0327 18.6667C1.09914 14.8306 0.578233 9.85248 1.43413 5.91321ZM17.5253 3.27482C19.358 3.54263 20.7131 4.89168 20.9257 6.33016C21.1286 8.4041 21.0462 10.6354 20.9095 12.8811C20.8247 14.1879 20.0915 15.028 18.7552 15.6339C17.344 16.2738 15.5121 16.5 14 16.5C12.0836 16.5 10.6664 16.3802 9.74807 16.2654C9.28881 16.208 8.95399 16.1518 8.74358 16.1124C8.63836 16.0927 8.56422 16.0771 8.52115 16.0677C8.49961 16.063 8.48583 16.0598 8.47982 16.0584L8.47852 16.0581L6 15.4384L6 18L6 20H7.78291L7.78295 20C6 20.0001 6 20.002 6 20.0039L6.00002 20.0079L6.00006 20.0161L6.00027 20.0332C6.00045 20.0449 6.00074 20.0572 6.00116 20.0702C6.002 20.0962 6.00335 20.1246 6.00541 20.1555C6.00952 20.2171 6.01648 20.2887 6.02791 20.3688C6.04475 20.4866 6.0715 20.6244 6.1138 20.7768C5.02828 20.0817 4.20174 19.1041 3.97512 18.1902C3.07787 14.5016 2.62386 9.8639 3.38739 6.34309C3.72854 4.82005 5.21379 3.548 7.08302 3.27482L7.08343 3.27476C7.18228 3.26029 7.26513 3.24588 7.34919 3.23127L7.34921 3.23126C7.55509 3.19546 7.76824 3.1584 8.24169 3.11605C8.90081 3.0571 9.99889 3 11.8753 3H11.9039C15.6391 3 17.1928 3.22615 17.5249 3.27476L17.5253 3.27482ZM16 14H17.9982L18 8.98902C18 7.92225 17.7248 7.07524 17.1744 6.44798C16.6049 5.82161 15.8602 5.5 14.9367 5.5C13.4264 5.5 12.4615 6.35845 12 7.58347C11.5385 6.35845 10.5735 5.5 9.06245 5.5C8.13805 5.5 7.39332 5.82161 6.82558 6.44798C6.2752 7.07585 6 7.92285 6 8.98902L6 14L8 13.9976L8 9.14032C8.0009 8.07415 8.32254 7.5 9.23077 7.5C10.3947 7.5 11 8.17607 11 9.44657L11 12H13L13 9.44657C13 8.17607 13.6089 7.5 14.7692 7.5C15.5 7.5 16 8.07655 16 9.14272V14Z" fill="currentColor"/>
</g>
</svg>
