<svg width="36" height="36" viewBox="0 0 36 36" fill="none" xmlns="http://www.w3.org/2000/svg" class="strokeicon">
    <path d="M18 19.5C18.8284 19.5 19.5 18.8284 19.5 18C19.5 17.1716 18.8284 16.5 18 16.5C17.1716 16.5 16.5 17.1716 16.5 18C16.5 18.8284 17.1716 19.5 18 19.5Z"
          stroke="#153E67" stroke-width="3" stroke-linecap="round" stroke-linejoin="round"/>
    <path d="M18 9C18.8284 9 19.5 8.32843 19.5 7.5C19.5 6.67157 18.8284 6 18 6C17.1716 6 16.5 6.67157 16.5 7.5C16.5 8.32843 17.1716 9 18 9Z"
          stroke="#153E67" stroke-width="3" stroke-linecap="round" stroke-linejoin="round"/>
    <path d="M18 30C18.8284 30 19.5 29.3284 19.5 28.5C19.5 27.6716 18.8284 27 18 27C17.1716 27 16.5 27.6716 16.5 28.5C16.5 29.3284 17.1716 30 18 30Z"
          stroke="#153E67" stroke-width="3" stroke-linecap="round" stroke-linejoin="round"/>
</svg>
