<svg width="20" height="20" viewBox="0 0 20 20" fill="none" xmlns="http://www.w3.org/2000/svg">
<path d="M7.00018 3.5H13.5002C14.3286 3.5 15.0002 4.17157 15.0002 5V15C15.0002 15.8284 14.3286 16.5 13.5002 16.5H7.00018C6.43236 16.5 5.93823 16.1845 5.68354 15.7192C5.48464 15.3559 5.1644 15 4.75018 15C4.33597 15 3.99056 15.341 4.09275 15.7424C4.42314 17.0402 5.59957 18 7.00018 18H13.5002C15.157 18 16.5002 16.6569 16.5002 15V5C16.5002 3.34315 15.157 2 13.5002 2H7.00018C5.59957 2 4.42314 2.95982 4.09275 4.25759C3.99056 4.659 4.33597 5 4.75018 5C5.1644 5 5.48464 4.64411 5.68354 4.28077C5.93823 3.81551 6.43236 3.5 7.00018 3.5Z" fill="currentColor"/>
<path d="M6.69636 13.7785C6.85019 13.394 6.66313 12.9575 6.27854 12.8036L3.77854 11.8036C3.39396 11.6498 2.95748 11.8369 2.80364 12.2215C2.64981 12.606 2.83687 13.0425 3.22146 13.1964L5.72146 14.1964C6.10605 14.3502 6.54252 14.1631 6.69636 13.7785Z" fill="currentColor"/>
<path d="M6.27854 9.80364C6.66313 9.95748 6.85019 10.394 6.69636 10.7785C6.54252 11.1631 6.10605 11.3502 5.72146 11.1964L3.22146 10.1964C2.83687 10.0425 2.64981 9.60604 2.80364 9.22146C2.95748 8.83687 3.39396 8.64981 3.77854 8.80364L6.27854 9.80364Z" fill="currentColor"/>
<path d="M6.69636 7.77854C6.85019 7.39396 6.66313 6.95748 6.27854 6.80364L3.77854 5.80364C3.39396 5.64981 2.95748 5.83687 2.80364 6.22146C2.64981 6.60604 2.83687 7.04252 3.22146 7.19636L5.72146 8.19636C6.10605 8.35019 6.54252 8.16313 6.69636 7.77854Z" fill="currentColor"/>
<path d="M12.75 4.5C12.3358 4.5 12 4.83579 12 5.25V14.75C12 15.1642 12.3358 15.5 12.75 15.5C13.1642 15.5 13.5 15.1642 13.5 14.75V5.25C13.5 4.83579 13.1642 4.5 12.75 4.5Z" fill="currentColor"/>
</svg>
