<svg width="24" height="24" viewBox="0 0 24 24" fill="none" xmlns="http://www.w3.org/2000/svg">
<path d="M15.5 3C14.9477 3 14.5 3.44772 14.5 4C14.5 4.55228 14.9477 5 15.5 5H17.5858L13.2929 9.29289C12.9024 9.68342 12.9024 10.3166 13.2929 10.7071C13.6834 11.0976 14.3166 11.0976 14.7071 10.7071L19 6.41421V8.5C19 9.05228 19.4477 9.5 20 9.5C20.5523 9.5 21 9.05228 21 8.5V4C21 3.44772 20.5523 3 20 3H15.5Z" fill="currentColor"/>
<path d="M5 7C5 6.44772 5.44772 6 6 6H10C10.5523 6 11 5.55228 11 5C11 4.44772 10.5523 4 10 4H6C4.34315 4 3 5.34315 3 7V18C3 19.6569 4.34315 21 6 21H17C18.6569 21 20 19.6569 20 18V14C20 13.4477 19.5523 13 19 13C18.4477 13 18 13.4477 18 14V18C18 18.5523 17.5523 19 17 19H6C5.44772 19 5 18.5523 5 18V7Z" fill="currentColor"/>
</svg>
