<svg width="20" height="20" viewBox="0 0 20 20" fill="none" xmlns="http://www.w3.org/2000/svg">
<path fill-rule="evenodd" clip-rule="evenodd" d="M3.5 6.25C3.5 5.00736 4.50736 4 5.75 4H5.99991H6.5H13C14.1046 4 15 4.89543 15 6V9.75C15 10.1642 15.3358 10.5 15.75 10.5C16.1642 10.5 16.5 10.1642 16.5 9.75V6C16.5 4.067 14.933 2.5 13 2.5H6.5H5.99991H5.75C3.67893 2.5 2 4.17893 2 6.25V8.25C2 8.66421 2.33579 9 2.75 9H5V14C5 15.933 6.567 17.5 8.5 17.5H9.75C10.1642 17.5 10.5 17.1642 10.5 16.75C10.5 16.3358 10.1642 16 9.75 16H8.5C7.39543 16 6.5 15.1046 6.5 14V5.25C6.5 4.83579 6.16421 4.5 5.75 4.5C5.33579 4.5 5 4.83579 5 5.25V7.5H3.5V6.25ZM16.0214 13.7324L13 16.7539V18.0039H14.25L17.2714 14.9824L16.0214 13.7324ZM17.9786 14.2753L19.125 13.1289C19.4702 12.7837 19.4702 12.2241 19.125 11.8789C18.7798 11.5337 18.2202 11.5337 17.875 11.8789L16.7286 13.0253L17.9786 14.2753ZM9.25 6C8.83579 6 8.5 6.33579 8.5 6.75C8.5 7.16421 8.83579 7.5 9.25 7.5H12.25C12.6642 7.5 13 7.16421 13 6.75C13 6.33579 12.6642 6 12.25 6H9.25ZM8.5 9.75C8.5 9.33579 8.83579 9 9.25 9H12.25C12.6642 9 13 9.33579 13 9.75C13 10.1642 12.6642 10.5 12.25 10.5H9.25C8.83579 10.5 8.5 10.1642 8.5 9.75ZM9.25 12C8.83579 12 8.5 12.3358 8.5 12.75C8.5 13.1642 8.83579 13.5 9.25 13.5H12.25C12.6642 13.5 13 13.1642 13 12.75C13 12.3358 12.6642 12 12.25 12H9.25Z" fill="currentColor"/>
</svg>
