<svg width="20" height="20" viewBox="0 0 20 20" fill="none" xmlns="http://www.w3.org/2000/svg">
<path fill-rule="evenodd" clip-rule="evenodd" d="M10 17.75C14.2802 17.75 17.75 14.2802 17.75 10C17.75 5.71979 14.2802 2.25 10 2.25C5.71979 2.25 2.25 5.71979 2.25 10C2.25 14.2802 5.71979 17.75 10 17.75ZM8.10104 6.89896C7.76909 6.56701 7.23091 6.56701 6.89896 6.89896C6.56701 7.23091 6.56701 7.76909 6.89896 8.10104L8.79792 10L6.89896 11.899C6.56701 12.2309 6.56701 12.7691 6.89896 13.101C7.23091 13.433 7.76909 13.433 8.10104 13.101L10 11.2021L11.899 13.101C12.2309 13.433 12.7691 13.433 13.101 13.101C13.433 12.7691 13.433 12.2309 13.101 11.899L11.2021 10L13.101 8.10104C13.433 7.76909 13.433 7.23091 13.101 6.89896C12.7691 6.56701 12.2309 6.56701 11.899 6.89896L10 8.79792L8.10104 6.89896Z" fill="currentColor"/>
</svg>
