<svg width="20" height="20" viewBox="0 0 20 20" fill="none" xmlns="http://www.w3.org/2000/svg">
<path fill-rule="evenodd" clip-rule="evenodd" d="M10 17.75C14.2802 17.75 17.75 14.2802 17.75 10C17.75 5.71979 14.2802 2.25 10 2.25C5.71979 2.25 2.25 5.71979 2.25 10C2.25 14.2802 5.71979 17.75 10 17.75ZM13.6187 8.61872C13.9604 8.27701 13.9604 7.72299 13.6187 7.38128C13.277 7.03957 12.723 7.03957 12.3813 7.38128L9 10.7626L7.61872 9.38128C7.27701 9.03957 6.72299 9.03957 6.38128 9.38128C6.03957 9.72299 6.03957 10.277 6.38128 10.6187L8.38128 12.6187C8.72299 12.9604 9.27701 12.9604 9.61872 12.6187L13.6187 8.61872Z" fill="currentColor"/>
</svg>
