<svg width="20" height="20" viewBox="0 0 20 20" fill="none" xmlns="http://www.w3.org/2000/svg">
<path d="M16.25 2.5C16.6642 2.5 17 2.83579 17 3.25V7.5C17 8.05228 16.5523 8.5 16 8.5H11.75C11.3358 8.5 11 8.16421 11 7.75C11 7.33579 11.3358 7 11.75 7H14.6045C13.6233 5.49612 11.9297 4.5 10 4.5C6.96243 4.5 4.5 6.96243 4.5 10C4.5 13.0376 6.96243 15.5 10 15.5C11.7671 15.5 13.338 14.6656 14.3438 13.3701C14.5976 13.0433 15.0518 12.9172 15.4102 13.124C15.769 13.3312 15.8948 13.7924 15.6504 14.127C14.3774 15.8678 12.3219 17 10 17C6.13401 17 3 13.866 3 10C3 6.13401 6.13401 3 10 3C12.2318 3 14.2185 4.04504 15.5 5.67188V3.25C15.5 2.83579 15.8358 2.5 16.25 2.5Z" fill="#21333F"/>
</svg>
