<svg width="20" height="20" viewBox="0 0 20 20" fill="none" xmlns="http://www.w3.org/2000/svg">
    <path d="M15.2501 10.5001C15.6642 10.5001 16.0001 10.8359 16.0001 11.2501V13.0001C16 14.6569 14.6569 16 13.0001 16.0001H5.95123L6.60064 16.6495C6.93253 16.9814 6.93257 17.5187 6.60064 17.8507C6.26872 18.1826 5.73142 18.1825 5.39947 17.8507L3.39947 15.8507C3.06753 15.5187 3.06753 14.9814 3.39947 14.6495L5.39947 12.6495C5.73142 12.3175 6.2687 12.3175 6.60064 12.6495C6.93253 12.9814 6.93257 13.5187 6.60064 13.8507L5.95123 14.5001H13.0001C13.8284 14.5 14.5 13.8284 14.5001 13.0001V11.2501C14.5001 10.8359 14.8358 10.5001 15.2501 10.5001Z" fill="currentColor"/>
    <path d="M13.3995 2.14948C13.7314 1.81753 14.2687 1.81753 14.6006 2.14948L16.6006 4.14948C16.9325 4.48143 16.9326 5.01873 16.6006 5.35065L14.6006 7.35065C14.2687 7.68257 13.7314 7.68253 13.3995 7.35065C13.0675 7.0187 13.0675 6.48142 13.3995 6.14948L14.0489 5.50006H7.00006C6.17163 5.50006 5.50006 6.17164 5.50006 7.00006V8.75006C5.50002 9.16423 5.16422 9.50003 4.75006 9.50006C4.33587 9.50006 4.00009 9.16425 4.00006 8.75006V7.00006C4.00006 5.34321 5.3432 4.00006 7.00006 4.00006H14.0489L13.3995 3.35065C13.0675 3.0187 13.0675 2.48142 13.3995 2.14948Z" fill="currentColor"/>
</svg>
