<svg width="20" height="20" viewBox="0 0 20 20" fill="none" xmlns="http://www.w3.org/2000/svg">
<path fill-rule="evenodd" clip-rule="evenodd" d="M10.3088 10.6306C9.69256 11.1718 8.88461 11.5 8 11.5C6.067 11.5 4.5 9.933 4.5 8C4.5 6.067 6.067 4.5 8 4.5C9.933 4.5 11.5 6.067 11.5 8C11.5 8.88461 11.1718 9.69256 10.6306 10.3088L10.3088 10.6306ZM10.9654 12.0261C10.1358 12.6382 9.11014 13 8 13C5.23858 13 3 10.7614 3 8C3 5.23858 5.23858 3 8 3C10.7614 3 13 5.23858 13 8C13 9.11014 12.6382 10.1358 12.0261 10.9654L16.0303 14.9697C16.3232 15.2626 16.3232 15.7374 16.0303 16.0303C15.7374 16.3232 15.2626 16.3232 14.9697 16.0303L10.9654 12.0261Z" fill="currentColor"/>
</svg>
