<svg width="24" height="24" viewBox="0 0 24 24" fill="none" xmlns="http://www.w3.org/2000/svg">
<path fill-rule="evenodd" clip-rule="evenodd" d="M14 9.5C14 11.9853 11.9853 14 9.5 14C7.01472 14 5 11.9853 5 9.5C5 7.01472 7.01472 5 9.5 5C11.9853 5 14 7.01472 14 9.5ZM13.3347 14.7489C12.2597 15.5356 10.9341 16 9.5 16C5.91015 16 3 13.0899 3 9.5C3 5.91015 5.91015 3 9.5 3C13.0899 3 16 5.91015 16 9.5C16 10.9341 15.5356 12.2597 14.7489 13.3347L20 18.5858C20.3905 18.9763 20.3905 19.6095 20 20C19.6095 20.3905 18.9763 20.3905 18.5858 20L13.3347 14.7489Z" fill="currentColor"/>
</svg>
