<svg width="20" height="20" viewBox="0 0 20 20" fill="none" xmlns="http://www.w3.org/2000/svg">
<path d="M13.9211 9.39743C13.8501 9.36337 13.7779 9.33058 13.7048 9.29919C13.5774 6.9525 12.2951 5.60902 10.142 5.59527C10.1323 5.59521 10.1226 5.59521 10.1128 5.59521C8.825 5.59521 7.75394 6.14492 7.0947 7.14522L8.27884 7.95751C8.77131 7.21032 9.5442 7.05104 10.1134 7.05104C10.12 7.05104 10.1266 7.05104 10.1331 7.0511C10.842 7.05562 11.377 7.26174 11.7232 7.6637C11.9752 7.95635 12.1437 8.36074 12.2271 8.87111C11.5986 8.76428 10.9188 8.73143 10.1921 8.7731C8.14509 8.89101 6.82908 10.0849 6.91747 11.7438C6.96232 12.5853 7.38154 13.3093 8.09785 13.7822C8.70349 14.182 9.48351 14.3775 10.2942 14.3332C11.3648 14.2745 12.2046 13.8661 12.7906 13.1192C13.2355 12.552 13.517 11.817 13.6413 10.8908C14.1515 11.1987 14.5296 11.6039 14.7384 12.091C15.0935 12.919 15.1142 14.2797 14.004 15.389C13.0313 16.3607 11.862 16.7812 10.0949 16.7941C8.13474 16.7796 6.65228 16.151 5.68843 14.9257C4.78586 13.7783 4.31941 12.1211 4.30201 10C4.31941 7.87887 4.78586 6.22164 5.68843 5.07429C6.65228 3.84901 8.13471 3.22039 10.0949 3.20582C12.0693 3.2205 13.5776 3.85215 14.5783 5.08334C15.069 5.68711 15.439 6.44638 15.6829 7.33167L17.0705 6.96144C16.7749 5.87175 16.3097 4.93276 15.6767 4.15402C14.3937 2.57557 12.5174 1.76677 10.0997 1.75H10.09C7.67733 1.76671 5.82198 2.57859 4.57556 4.16306C3.46641 5.57305 2.89428 7.53494 2.87506 9.9942L2.875 10L2.87506 10.0058C2.89428 12.465 3.46641 14.427 4.57556 15.837C5.82198 17.4214 7.67733 18.2333 10.09 18.25H10.0997C12.2448 18.2351 13.7568 17.6735 15.0023 16.4291C16.632 14.801 16.5829 12.7602 16.0458 11.5074C15.6604 10.609 14.9258 9.87936 13.9211 9.39743ZM10.2175 12.8795C9.32036 12.93 8.38827 12.5273 8.34231 11.6648C8.30824 11.0252 8.79745 10.3116 10.2726 10.2266C10.4415 10.2169 10.6073 10.2121 10.7702 10.2121C11.306 10.2121 11.8073 10.2641 12.263 10.3638C12.093 12.4866 11.096 12.8313 10.2175 12.8795Z" fill="currentColor"/>
</svg>
