<svg width="24" height="24" viewBox="0 0 24 24" fill="none" xmlns="http://www.w3.org/2000/svg">
<path d="M17.2282 11.1966C17.1334 11.1512 17.0372 11.1074 16.9397 11.0656C16.7699 7.93667 15.0602 6.14536 12.1894 6.12703C12.1764 6.12695 12.1634 6.12695 12.1504 6.12695C10.4333 6.12695 9.00525 6.85989 8.12627 8.19362L9.70511 9.27668C10.3617 8.28043 11.3923 8.06805 12.1512 8.06805C12.16 8.06805 12.1688 8.06805 12.1774 8.06813C13.1227 8.07416 13.836 8.34899 14.2976 8.88494C14.6336 9.27513 14.8583 9.81432 14.9695 10.4948C14.1315 10.3524 13.2251 10.3086 12.2562 10.3641C9.52679 10.5213 7.77211 12.1132 7.88995 14.3251C7.94976 15.4471 8.50872 16.4124 9.4638 17.0429C10.2713 17.576 11.3113 17.8366 12.3922 17.7776C13.8197 17.6994 14.9395 17.1548 15.7207 16.1589C16.3141 15.4027 16.6893 14.4226 16.855 13.1878C17.5353 13.5983 18.0394 14.1386 18.3179 14.788C18.7913 15.8921 18.819 17.7062 17.3387 19.1853C16.0417 20.481 14.4827 21.0415 12.1265 21.0588C9.51298 21.0395 7.53637 20.2013 6.25124 18.5676C5.04782 17.0378 4.42588 14.8281 4.40268 12C4.42588 9.17183 5.04782 6.96218 6.25124 5.43239C7.53637 3.79869 9.51295 2.96052 12.1265 2.9411C14.759 2.96067 16.7701 3.80287 18.1044 5.44446C18.7587 6.24948 19.252 7.26184 19.5772 8.44222L21.4273 7.94859C21.0332 6.49567 20.4129 5.24367 19.5689 4.20535C17.8583 2.10077 15.3565 1.02236 12.133 1H12.1201C8.9031 1.02228 6.4293 2.10479 4.76741 4.21742C3.28855 6.0974 2.52571 8.71326 2.50008 11.9923L2.5 12L2.50008 12.0077C2.52571 15.2867 3.28855 17.9026 4.76741 19.7826C6.4293 21.8952 8.9031 22.9778 12.1201 23H12.133C14.993 22.9802 17.009 22.2314 18.6698 20.5721C20.8426 18.4013 20.7772 15.6803 20.061 14.0099C19.5473 12.8121 18.5677 11.8391 17.2282 11.1966ZM12.2901 15.8393C11.0938 15.9067 9.85103 15.3698 9.78975 14.2197C9.74433 13.367 10.3966 12.4155 12.3635 12.3021C12.5887 12.2891 12.8098 12.2828 13.0269 12.2828C13.7413 12.2828 14.4097 12.3522 15.0173 12.485C14.7907 15.3155 13.4613 15.7751 12.2901 15.8393Z" fill="currentColor"/>
</svg>
