<svg width="24" height="24" viewBox="0 0 24 24" fill="none" xmlns="http://www.w3.org/2000/svg">
<path d="M13.3143 22C12.6311 22 12.1592 21.3164 12.4014 20.6776L16.0777 10.9818C16.3018 10.3908 16.868 10 17.5 10C18.132 10 18.6982 10.3908 18.9223 10.9818L22.6011 20.6843C22.8421 21.3198 22.3726 22 21.6929 22C21.2783 22 20.9094 21.7369 20.7745 21.3448L19.95 18.95H15.1L14.2326 21.3549C14.093 21.742 13.7257 22 13.3143 22ZM15.7 17.2H19.3L17.55 12.25H17.45L15.7 17.2ZM4.7 18.3C4.3134 18.6866 3.6866 18.6866 3.3 18.3C2.9134 17.9134 2.9134 17.2866 3.3 16.9L7.65 12.55C7.01667 11.85 6.4625 11.125 5.9875 10.375C5.5125 9.625 5.1 8.83333 4.75 8H6.85C7.15 8.6 7.47083 9.14167 7.8125 9.625C8.15417 10.1083 8.56667 10.6167 9.05 11.15C9.78333 10.35 10.3917 9.52917 10.875 8.6875C11.3583 7.84583 11.7667 6.95 12.1 6H2C1.44771 6 1 5.55228 1 5C1 4.44772 1.44772 4 2 4H8V3C8 2.44772 8.44772 2 9 2C9.55229 2 10 2.44772 10 3V4H16C16.5523 4 17 4.44772 17 5C17 5.55228 16.5523 6 16 6H14.1C13.75 7.18333 13.275 8.33333 12.675 9.45C12.075 10.5667 11.3333 11.6167 10.45 12.6L12.85 15.05L12.1 17.1L9 14L4.7 18.3Z" fill="currentColor"/>
</svg>
