<svg width="20" height="20" viewBox="0 0 20 20" fill="none" xmlns="http://www.w3.org/2000/svg">
<path d="M12.6667 15.5625L11.9769 17.5085C11.9228 17.6556 11.8308 17.7743 11.7006 17.8646C11.5703 17.9549 11.4271 18 11.2708 18C10.9931 18 10.7813 17.8889 10.6354 17.6667C10.4896 17.4444 10.4653 17.2083 10.5625 16.9583L13.5417 9.02083C13.6085 8.86806 13.7086 8.74306 13.8421 8.64583C13.9757 8.54861 14.1226 8.5 14.2829 8.5H14.8837C15.044 8.5 15.191 8.54861 15.3246 8.64583C15.4581 8.74306 15.5582 8.86806 15.625 9.02083L18.625 16.9792C18.7222 17.2292 18.6919 17.4618 18.534 17.6771C18.376 17.8924 18.1656 18 17.9025 18C17.7314 18 17.5799 17.9514 17.4479 17.8542C17.316 17.7569 17.2222 17.6319 17.1667 17.4792L16.4956 15.5625H12.6667ZM7.5 11.5625L4.04167 14.9792C3.88889 15.1319 3.71528 15.2049 3.52083 15.1979C3.32639 15.191 3.15278 15.1111 3 14.9583C2.84722 14.8056 2.77083 14.6319 2.77083 14.4375C2.77083 14.2431 2.84722 14.0694 3 13.9167L6.47917 10.4792C5.97917 9.95139 5.51389 9.40278 5.08333 8.83333C4.65278 8.26389 4.27778 7.64583 3.95833 6.97917H5.66667C5.91667 7.42361 6.16667 7.80208 6.41667 8.11458C6.66667 8.42708 7.02778 8.84722 7.5 9.375C8.02778 8.79167 8.51389 8.18403 8.95833 7.55208C9.40278 6.92014 9.76389 6.23611 10.0417 5.5H1.75C1.5375 5.5 1.35937 5.42854 1.21562 5.28563C1.07187 5.14271 1 4.96563 1 4.75438C1 4.54313 1.07187 4.36458 1.21562 4.21875C1.35937 4.07292 1.5375 4 1.75 4H6.75V2.75C6.75 2.5375 6.82146 2.35937 6.96438 2.21562C7.10729 2.07187 7.28438 2 7.49563 2C7.70688 2 7.88542 2.07187 8.03125 2.21562C8.17708 2.35937 8.25 2.5375 8.25 2.75V4H13.25C13.4625 4 13.6406 4.07146 13.7844 4.21437C13.9281 4.35729 14 4.53437 14 4.74562C14 4.95687 13.9281 5.13542 13.7844 5.28125C13.6406 5.42708 13.4625 5.5 13.25 5.5H11.634C11.3363 6.45833 10.9097 7.34375 10.3542 8.15625C9.79861 8.96875 9.1875 9.74306 8.52083 10.4792L10.4167 12.3542L9.83333 13.8958L7.5 11.5625ZM13.1667 14.1875H16L14.625 10.25L13.1667 14.1875Z" fill="currentColor"/>
</svg>
