<svg width="20" height="20" viewBox="0 0 20 20" fill="none" xmlns="http://www.w3.org/2000/svg">
<path d="M3.89648 3.5H6.43848C6.74707 3.50014 7.03662 3.6444 7.22168 3.8877L10.1797 7.77637L10.5498 8.2627L10.9531 7.80371L14.667 3.58203C14.7124 3.53039 14.7791 3.5 14.8496 3.5H15.7949L11.3086 8.59961L11.0381 8.90723L11.2861 9.2334L16.4355 16.0029C16.588 16.2034 16.4484 16.4999 16.1836 16.5H13.748C13.4411 16.5 13.1521 16.3582 12.9668 16.1172L9.64844 11.8008L9.27734 11.3193L8.87598 11.7754L4.79102 16.418C4.74559 16.4696 4.67886 16.5 4.6084 16.5H3.66113L8.51074 10.9873L8.78223 10.6787L8.53125 10.3525L3.64551 3.99805C3.4916 3.79781 3.6309 3.50011 3.89648 3.5ZM4.63965 4.65137L13.2783 15.8828L13.4287 16.0781H16.0068L15.3965 15.2754L6.85449 4.04395L6.7041 3.84668H4.02051L4.63965 4.65137Z" stroke="currentColor"/>
</svg>
