<svg width="24" height="24" viewBox="0 0 24 24" fill="none" xmlns="http://www.w3.org/2000/svg">
<path d="M17.8246 2.84156C18.0155 2.6245 18.2914 2.5 18.5814 2.5H20.2581C20.6901 2.5 20.9209 3.00593 20.6365 3.32923L14.2853 10.5483L21.274 19.7364C21.8252 20.461 21.3054 21.5 20.3919 21.5H17.0866C16.4602 21.5 15.8696 21.2098 15.4891 20.715L10.9844 14.8577L5.43949 21.1586C5.24854 21.3755 4.97271 21.5 4.68278 21.5H3.00376C2.5718 21.5 2.34093 20.9941 2.62536 20.6708L9.46942 12.8916L2.8382 4.26821C2.2816 3.5444 2.80058 2.5 3.71685 2.5H7.16587C7.796 2.5 8.38971 2.7937 8.76984 3.29348L12.7841 8.57115L17.8246 2.84156ZM16.9875 19.5707H18.7835L7.19055 4.32804H5.26345L16.9875 19.5707Z" fill="currentColor"/>
</svg>
