<svg width="24" height="24" viewBox="0 0 24 24" fill="none" xmlns="http://www.w3.org/2000/svg">
<g clip-path="url(#clip0_543_10296)">
<path fill-rule="evenodd" clip-rule="evenodd" d="M14.5255 2.35024C15.5743 1.94993 16.7207 1.88139 17.8098 2.15388C18.6758 2.37057 19.4723 2.7946 20.1326 3.38515C20.9448 3.08663 21.7151 2.68262 22.4236 2.18288C22.7642 1.94262 23.2181 1.93884 23.5627 2.1734C23.9073 2.40797 24.0702 2.83167 23.9716 3.23666C23.6291 4.64319 22.9425 5.93961 21.9769 7.01102C21.9917 7.17242 21.9995 7.33448 22 7.49674L22 7.50005C22 13.6 19.0631 18.0751 14.8448 20.3203C10.6509 22.5525 5.29087 22.5278 0.514357 19.8742C0.109546 19.6493 -0.0878996 19.1759 0.0371489 18.73C0.162198 18.2841 0.577024 17.9824 1.03974 18.0008C2.72656 18.0679 4.39637 17.7325 5.91473 17.033C4.41158 16.1055 3.32942 15.0043 2.57706 13.8163C1.57342 12.2317 1.19455 10.5529 1.12603 9.04545C1.05771 7.54233 1.29648 6.18894 1.54748 5.21841C1.67358 4.73082 1.80442 4.33355 1.90528 4.05458C1.95577 3.91493 1.99891 3.80446 2.03044 3.72663C2.04621 3.6877 2.05909 3.65689 2.06856 3.63464L2.08013 3.60771L2.08387 3.59915L2.08521 3.59611L2.08575 3.5949C2.08597 3.59439 2.08619 3.59391 3 4.00005L2.08619 3.59391C2.2325 3.2647 2.54458 3.03964 2.90314 3.00475C3.2617 2.96985 3.61131 3.13052 3.81836 3.42534C4.7339 4.72901 5.95764 5.78604 7.3806 6.50226C8.51246 7.07196 9.7424 7.41197 10.9997 7.50646C10.9923 6.3968 11.322 5.3107 11.9456 4.3921C12.5761 3.4633 13.4767 2.75054 14.5255 2.35024ZM3.40465 6.04365C3.22096 6.84502 3.07427 7.86128 3.12397 8.95464C3.18045 10.1971 3.48908 11.5184 4.26669 12.7462C5.04029 13.9677 6.31604 15.1573 8.40614 16.0862C8.73794 16.2337 8.96374 16.5494 8.99604 16.9111C9.02833 17.2728 8.86205 17.6235 8.56163 17.8274C7.45069 18.5815 6.2342 19.1489 4.9601 19.5157C8.13027 20.3234 11.307 19.9377 13.9052 18.5548C17.4365 16.6752 19.9995 12.9009 20 7.50171C19.9992 7.28562 19.9784 7.07006 19.9378 6.8578C19.8751 6.52994 19.9802 6.19242 20.2178 5.95804C20.4406 5.73835 20.6469 5.50421 20.8357 5.25755C20.6092 5.3411 20.38 5.41783 20.1483 5.48758C19.7717 5.60099 19.3636 5.48308 19.1054 5.18628C18.6376 4.64837 18.0159 4.26711 17.3243 4.09407C16.6327 3.92102 15.9047 3.96455 15.2387 4.21876C14.5726 4.47297 14.0008 4.9256 13.6004 5.51542C13.2 6.10525 12.9904 6.80381 12.9999 7.51664L13.0001 7.53005H13V8.53005C13 9.07223 12.5679 9.51566 12.0259 9.52971C10.1037 9.57955 8.19898 9.15324 6.48141 8.28872C5.33585 7.71212 4.29725 6.95253 3.40465 6.04365Z" fill="currentColor"/>
</g>
<defs>
<clipPath id="clip0_543_10296">
<rect width="24" height="24" fill="white"/>
</clipPath>
</defs>
</svg>
