<svg width="36" height="36" viewBox="0 0 36 36" fill="none" xmlns="http://www.w3.org/2000/svg">
    <path d="M34.5 4.55732L35.9574 4.91225C36.1054 4.30475 35.861 3.6692 35.3441 3.31735C34.8272 2.96551 34.1463 2.97117 33.6354 3.33157L34.5 4.55732ZM29.79 6.85232L28.6582 7.83668C29.0454 8.28187 29.6576 8.45873 30.2225 8.28862L29.79 6.85232ZM18.7641 7.4444L19.9282 8.39035C19.9553 8.35698 19.981 8.32246 20.0051 8.28689L18.7641 7.4444ZM17.5 13L17.5389 14.4995C18.3519 14.4784 19 13.8133 19 13H17.5ZM4 6.5L2.77247 7.36207V7.36207L4 6.5ZM11.5 25.5573L12.3424 26.7984C12.7931 26.4925 13.0425 25.9664 12.9941 25.4239C12.9456 24.8814 12.6069 24.4078 12.1092 24.1866L11.5 25.5573ZM1.5 28.5573L1.55962 27.0585C0.865535 27.0309 0.243296 27.4834 0.0557232 28.1523C-0.13185 28.8211 0.164319 29.5312 0.771536 29.8686L1.5 28.5573ZM31.5 11.3073H33L33 11.3024L31.5 11.3073ZM31.38 10.0623L30.3267 8.99431C29.9702 9.34588 29.8127 9.85215 29.9067 10.3439L31.38 10.0623ZM33.6354 3.33157C32.3307 4.25184 30.8862 4.95569 29.3575 5.41602L30.2225 8.28862C32.0601 7.73528 33.7964 6.88924 35.3646 5.78306L33.6354 3.33157ZM30.9218 5.86796C29.8168 4.59737 28.3482 3.6968 26.7146 3.28807L25.9865 6.19835C27.0238 6.45791 27.9564 7.0298 28.6582 7.83668L30.9218 5.86796ZM26.7146 3.28807C25.0811 2.87933 23.3614 2.98215 21.7882 3.58261L22.858 6.38539C23.857 6.00408 24.9491 5.93879 25.9865 6.19835L26.7146 3.28807ZM21.7882 3.58261C20.4232 4.1036 18.5618 5.07172 17.523 6.60191L20.0051 8.28689C20.5127 7.53914 21.6508 6.84617 22.858 6.38539L21.7882 3.58261ZM18.7641 7.4444C17.5999 6.49845 17.5996 6.49887 17.5992 6.4993C17.5991 6.49945 17.5988 6.49988 17.5985 6.50018C17.598 6.50078 17.5975 6.50141 17.597 6.50206C17.596 6.50336 17.5948 6.50476 17.5936 6.50626C17.5912 6.50927 17.5885 6.51268 17.5855 6.51649C17.5794 6.5241 17.5722 6.53331 17.5638 6.54409C17.5471 6.56566 17.526 6.59356 17.5009 6.6276C17.451 6.69561 17.3855 6.7885 17.3098 6.90469C17.1588 7.13642 16.9648 7.46463 16.7727 7.8764C16.3904 8.69587 16 9.87978 16 11.3073H19C19 10.4275 19.2417 9.67999 19.4914 9.14483C19.6152 8.87928 19.7373 8.67439 19.8233 8.54234C19.8661 8.47664 19.8994 8.42997 19.9185 8.4039C19.9281 8.3909 19.9341 8.38312 19.9359 8.38077C19.9368 8.3796 19.9366 8.3798 19.9354 8.38138C19.9348 8.38217 19.9339 8.38332 19.9327 8.38481C19.9321 8.38556 19.9314 8.38639 19.9306 8.38731C19.9303 8.38777 19.9299 8.38826 19.9295 8.38876C19.9293 8.38902 19.9289 8.38941 19.9288 8.38954C19.9285 8.38994 19.9282 8.39035 18.7641 7.4444ZM17.5 11.3073C16 11.3073 16 11.3073 16 11.3073C16 11.3073 16 11.3074 16 11.3074C16 11.3074 16 11.3074 16 11.3074C16 11.3075 16 11.3075 16 11.3075C16 11.3076 16 11.3076 16 11.3077C16 11.3077 16 11.3078 16 11.3078C16 11.3079 16 11.3079 16 11.308C16 11.308 16 11.3081 16 11.3082C16 11.3083 16 11.3083 16 11.3084C16 11.3085 16 11.3086 16 11.3087C16 11.3088 16 11.3089 16 11.309C16 11.3091 16 11.3092 16 11.3093C16 11.3094 16 11.3095 16 11.3096C16 11.3097 16 11.3098 16 11.31C16 11.3101 16 11.3102 16 11.3103C16 11.3105 16 11.3106 16 11.3108C16 11.3109 16 11.311 16 11.3112C16 11.3113 16 11.3115 16 11.3117C16 11.3118 16 11.312 16 11.3122C16 11.3123 16 11.3125 16 11.3127C16 11.3128 16 11.313 16 11.3132C16 11.3134 16 11.3136 16 11.3138C16 11.314 16 11.3142 16 11.3144C16 11.3146 16 11.3148 16 11.315C16 11.3152 16 11.3154 16 11.3156C16 11.3158 16 11.3161 16 11.3163C16 11.3165 16 11.3168 16 11.317C16 11.3172 16 11.3175 16 11.3177C16 11.318 16 11.3182 16 11.3185C16 11.3187 16 11.319 16 11.3192C16 11.3195 16 11.3197 16 11.32C16 11.3203 16 11.3206 16 11.3208C16 11.3211 16 11.3214 16 11.3217C16 11.322 16 11.3223 16 11.3225C16 11.3228 16 11.3231 16 11.3234C16 11.3237 16 11.324 16 11.3244C16 11.3247 16 11.325 16 11.3253C16 11.3256 16 11.3259 16 11.3263C16 11.3266 16 11.3269 16 11.3272C16 11.3276 16 11.3279 16 11.3283C16 11.3286 16 11.3289 16 11.3293C16 11.3296 16 11.33 16 11.3304C16 11.3307 16 11.3311 16 11.3314C16 11.3318 16 11.3322 16 11.3325C16 11.3329 16 11.3333 16 11.3337C16 11.3341 16 11.3344 16 11.3348C16 11.3352 16 11.3356 16 11.336C16 11.3364 16 11.3368 16 11.3372C16 11.3376 16 11.338 16 11.3384C16 11.3389 16 11.3393 16 11.3397C16 11.3401 16 11.3405 16 11.341C16 11.3414 16 11.3418 16 11.3423C16 11.3427 16 11.3431 16 11.3436C16 11.344 16 11.3445 16 11.3449C16 11.3454 16 11.3458 16 11.3463C16 11.3467 16 11.3472 16 11.3477C16 11.3481 16 11.3486 16 11.3491C16 11.3495 16 11.35 16 11.3505C16 11.351 16 11.3515 16 11.3519C16 11.3524 16 11.3529 16 11.3534C16 11.3539 16 11.3544 16 11.3549C16 11.3554 16 11.3559 16 11.3564C16 11.3569 16 11.3575 16 11.358C16 11.3585 16 11.359 16 11.3595C16 11.3601 16 11.3606 16 11.3611C16 11.3617 16 11.3622 16 11.3627C16 11.3633 16 11.3638 16 11.3644C16 11.3649 16 11.3655 16 11.366C16 11.3666 16 11.3671 16 11.3677C16 11.3682 16 11.3688 16 11.3694C16 11.37 16 11.3705 16 11.3711C16 11.3717 16 11.3723 16 11.3728C16 11.3734 16 11.374 16 11.3746C16 11.3752 16 11.3758 16 11.3764C16 11.377 16 11.3776 16 11.3782C16 11.3788 16 11.3794 16 11.38C16 11.3806 16 11.3812 16 11.3818C16 11.3824 16 11.3831 16 11.3837C16 11.3843 16 11.3849 16 11.3856C16 11.3862 16 11.3868 16 11.3875C16 11.3881 16 11.3888 16 11.3894C16 11.3901 16 11.3907 16 11.3914C16 11.392 16 11.3927 16 11.3933C16 11.394 16 11.3946 16 11.3953C16 11.396 16 11.3966 16 11.3973C16 11.398 16 11.3987 16 11.3993C16 11.4 16 11.4007 16 11.4014C16 11.4021 16 11.4028 16 11.4034C16 11.4041 16 11.4048 16 11.4055C16 11.4062 16 11.4069 16 11.4076C16 11.4083 16 11.4091 16 11.4098C16 11.4105 16 11.4112 16 11.4119C16 11.4126 16 11.4133 16 11.4141C16 11.4148 16 11.4155 16 11.4163C16 11.417 16 11.4177 16 11.4185C16 11.4192 16 11.4199 16 11.4207C16 11.4214 16 11.4222 16 11.4229C16 11.4237 16 11.4244 16 11.4252C16 11.4259 16 11.4267 16 11.4275C16 11.4282 16 11.429 16 11.4298C16 11.4305 16 11.4313 16 11.4321C16 11.4329 16 11.4336 16 11.4344C16 11.4352 16 11.436 16 11.4368C16 11.4376 16 11.4384 16 11.4391C16 11.4399 16 11.4407 16 11.4415C16 11.4423 16 11.4431 16 11.444C16 11.4448 16 11.4456 16 11.4464C16 11.4472 16 11.448 16 11.4488C16 11.4496 16 11.4505 16 11.4513C16 11.4521 16 11.4529 16 11.4538C16 11.4546 16 11.4554 16 11.4563C16 11.4571 16 11.458 16 11.4588C16 11.4596 16 11.4605 16 11.4613C16 11.4622 16 11.463 16 11.4639C16 11.4647 16 11.4656 16 11.4665C16 11.4673 16 11.4682 16 11.4691C16 11.4699 16 11.4708 16 11.4717C16 11.4725 16 11.4734 16 11.4743C16 11.4752 16 11.476 16 11.4769C16 11.4778 16 11.4787 16 11.4796C16 11.4805 16 11.4814 16 11.4823C16 11.4832 16 11.4841 16 11.485C16 11.4859 16 11.4868 16 11.4877C16 11.4886 16 11.4895 16 11.4904C16 11.4913 16 11.4922 16 11.4932C16 11.4941 16 11.495 16 11.4959C16 11.4968 16 11.4978 16 11.4987C16 11.4996 16 11.5006 16 11.5015C16 11.5024 16 11.5034 16 11.5043C16 11.5052 16 11.5062 16 11.5071C16 11.5081 16 11.509 16 11.51C16 11.5109 16 11.5119 16 11.5128C16 11.5138 16 11.5148 16 11.5157C16 11.5167 16 11.5176 16 11.5186C16 11.5196 16 11.5205 16 11.5215C16 11.5225 16 11.5235 16 11.5244C16 11.5254 16 11.5264 16 11.5274C16 11.5284 16 11.5293 16 11.5303C16 11.5313 16 11.5323 16 11.5333C16 11.5343 16 11.5353 16 11.5363C16 11.5373 16 11.5383 16 11.5393C16 11.5403 16 11.5413 16 11.5423C16 11.5433 16 11.5443 16 11.5454C16 11.5464 16 11.5474 16 11.5484C16 11.5494 16 11.5504 16 11.5515C16 11.5525 16 11.5535 16 11.5545C16 11.5556 16 11.5566 16 11.5576C16 11.5587 16 11.5597 16 11.5608C16 11.5618 16 11.5628 16 11.5639C16 11.5649 16 11.566 16 11.567C16 11.5681 16 11.5691 16 11.5702C16 11.5712 16 11.5723 16 11.5733C16 11.5744 16 11.5755 16 11.5765C16 11.5776 16 11.5787 16 11.5797C16 11.5808 16 11.5819 16 11.5829C16 11.584 16 11.5851 16 11.5862C16 11.5872 16 11.5883 16 11.5894C16 11.5905 16 11.5916 16 11.5927C16 11.5937 16 11.5948 16 11.5959C16 11.597 16 11.5981 16 11.5992C16 11.6003 16 11.6014 16 11.6025C16 11.6036 16 11.6047 16 11.6058C16 11.6069 16 11.608 16 11.6091C16 11.6102 16 11.6114 16 11.6125C16 11.6136 16 11.6147 16 11.6158C16 11.6169 16 11.6181 16 11.6192C16 11.6203 16 11.6214 16 11.6226C16 11.6237 16 11.6248 16 11.6259C16 11.6271 16 11.6282 16 11.6294C16 11.6305 16 11.6316 16 11.6328C16 11.6339 16 11.6351 16 11.6362C16 11.6373 16 11.6385 16 11.6396C16 11.6408 16 11.6419 16 11.6431C16 11.6442 16 11.6454 16 11.6466C16 11.6477 16 11.6489 16 11.65C16 11.6512 16 11.6524 16 11.6535C16 11.6547 16 11.6559 16 11.657C16 11.6582 16 11.6594 16 11.6606C16 11.6617 16 11.6629 16 11.6641C16 11.6653 16 11.6664 16 11.6676C16 11.6688 16 11.67 16 11.6712C16 11.6724 16 11.6736 16 11.6748C16 11.6759 16 11.6771 16 11.6783C16 11.6795 16 11.6807 16 11.6819C16 11.6831 16 11.6843 16 11.6855C16 11.6867 16 11.6879 16 11.6891C16 11.6903 16 11.6915 16 11.6928C16 11.694 16 11.6952 16 11.6964C16 11.6976 16 11.6988 16 11.7C16 11.7013 16 11.7025 16 11.7037C16 11.7049 16 11.7062 16 11.7074C16 11.7086 16 11.7098 16 11.7111C16 11.7123 16 11.7135 16 11.7148C16 11.716 16 11.7172 16 11.7185C16 11.7197 16 11.7209 16 11.7222C16 11.7234 16 11.7247 16 11.7259C16 11.7271 16 11.7284 16 11.7296C16 11.7309 16 11.7321 16 11.7334C16 11.7346 16 11.7359 16 11.7371C16 11.7384 16 11.7397 16 11.7409C16 11.7422 16 11.7434 16 11.7447C16 11.7459 16 11.7472 16 11.7485C16 11.7497 16 11.751 16 11.7523C16 11.7535 16 11.7548 16 11.7561C16 11.7574 16 11.7586 16 11.7599C16 11.7612 16 11.7625 16 11.7637C16 11.765 16 11.7663 16 11.7676C16 11.7689 16 11.7701 16 11.7714C16 11.7727 16 11.774 16 11.7753C16 11.7766 16 11.7779 16 11.7792C16 11.7804 16 11.7817 16 11.783C16 11.7843 16 11.7856 16 11.7869C16 11.7882 16 11.7895 16 11.7908C16 11.7921 16 11.7934 16 11.7947C16 11.796 16 11.7973 16 11.7986C16 11.8 16 11.8013 16 11.8026C16 11.8039 16 11.8052 16 11.8065C16 11.8078 16 11.8091 16 11.8105C16 11.8118 16 11.8131 16 11.8144C16 11.8157 16 11.817 16 11.8184C16 11.8197 16 11.821 16 11.8223C16 11.8237 16 11.825 16 11.8263C16 11.8276 16 11.829 16 11.8303C16 11.8316 16 11.833 16 11.8343C16 11.8356 16 11.837 16 11.8383C16 11.8396 16 11.841 16 11.8423C16 11.8437 16 11.845 16 11.8463C16 11.8477 16 11.849 16 11.8504C16 11.8517 16 11.8531 16 11.8544C16 11.8558 16 11.8571 16 11.8584C16 11.8598 16 11.8611 16 11.8625C16 11.8639 16 11.8652 16 11.8666C16 11.8679 16 11.8693 16 11.8706C16 11.872 16 11.8733 16 11.8747C16 11.8761 16 11.8774 16 11.8788C16 11.8802 16 11.8815 16 11.8829C16 11.8842 16 11.8856 16 11.887C16 11.8884 16 11.8897 16 11.8911C16 11.8925 16 11.8938 16 11.8952C16 11.8966 16 11.8979 16 11.8993C16 11.9007 16 11.9021 16 11.9035C16 11.9048 16 11.9062 16 11.9076C16 11.909 16 11.9103 16 11.9117C16 11.9131 16 11.9145 16 11.9159C16 11.9173 16 11.9186 16 11.92C16 11.9214 16 11.9228 16 11.9242C16 11.9256 16 11.927 16 11.9284C16 11.9298 16 11.9311 16 11.9325C16 11.9339 16 11.9353 16 11.9367C16 11.9381 16 11.9395 16 11.9409C16 11.9423 16 11.9437 16 11.9451C16 11.9465 16 11.9479 16 11.9493C16 11.9507 16 11.9521 16 11.9535C16 11.9549 16 11.9563 16 11.9577C16 11.9591 16 11.9605 16 11.9619C16 11.9633 16 11.9648 16 11.9662C16 11.9676 16 11.969 16 11.9704C16 11.9718 16 11.9732 16 11.9746C16 11.976 16 11.9775 16 11.9789C16 11.9803 16 11.9817 16 11.9831C16 11.9845 16 11.9859 16 11.9874C16 11.9888 16 11.9902 16 11.9916C16 11.993 16 11.9945 16 11.9959C16 11.9973 16 11.9987 16 12.0001C16 12.0016 16 12.003 16 12.0044C16 12.0058 16 12.0073 16 12.0087C16 12.0101 16 12.0116 16 12.013C16 12.0144 16 12.0158 16 12.0173C16 12.0187 16 12.0201 16 12.0216C16 12.023 16 12.0244 16 12.0259C16 12.0273 16 12.0287 16 12.0302C16 12.0316 16 12.033 16 12.0345C16 12.0359 16 12.0373 16 12.0388C16 12.0402 16 12.0416 16 12.0431C16 12.0445 16 12.046 16 12.0474C16 12.0488 16 12.0503 16 12.0517C16 12.0532 16 12.0546 16 12.0561C16 12.0575 16 12.0589 16 12.0604C16 12.0618 16 12.0633 16 12.0647C16 12.0662 16 12.0676 16 12.0691C16 12.0705 16 12.0719 16 12.0734C16 12.0748 16 12.0763 16 12.0777C16 12.0792 16 12.0806 16 12.0821C16 12.0835 16 12.085 16 12.0864C16 12.0879 16 12.0893 16 12.0908C16 12.0922 16 12.0937 16 12.0952C16 12.0966 16 12.0981 16 12.0995C16 12.101 16 12.1024 16 12.1039C16 12.1053 16 12.1068 16 12.1082C16 12.1097 16 12.1112 16 12.1126C16 12.1141 16 12.1155 16 12.117C16 12.1185 16 12.1199 16 12.1214C16 12.1228 16 12.1243 16 12.1257C16 12.1272 16 12.1287 16 12.1301C16 12.1316 16 12.1331 16 12.1345C16 12.136 16 12.1374 16 12.1389C16 12.1404 16 12.1418 16 12.1433C16 12.1448 16 12.1462 16 12.1477C16 12.1491 16 12.1506 16 12.1521C16 12.1535 16 12.155 16 12.1565C16 12.1579 16 12.1594 16 12.1609C16 12.1623 16 12.1638 16 12.1653C16 12.1667 16 12.1682 16 12.1697C16 12.1711 16 12.1726 16 12.1741C16 12.1755 16 12.177 16 12.1785C16 12.1799 16 12.1814 16 12.1829C16 12.1844 16 12.1858 16 12.1873C16 12.1888 16 12.1902 16 12.1917C16 12.1932 16 12.1946 16 12.1961C16 12.1976 16 12.1991 16 12.2005C16 12.202 16 12.2035 16 12.2049C16 12.2064 16 12.2079 16 12.2094C16 12.2108 16 12.2123 16 12.2138C16 12.2152 16 12.2167 16 12.2182C16 12.2197 16 12.2211 16 12.2226C16 12.2241 16 12.2255 16 12.227C16 12.2285 16 12.23 16 12.2314C16 12.2329 16 12.2344 16 12.2359C16 12.2373 16 12.2388 16 12.2403C16 12.2418 16 12.2432 16 12.2447C16 12.2462 16 12.2476 16 12.2491C16 12.2506 16 12.2521 16 12.2535C16 12.255 16 12.2565 16 12.258C16 12.2594 16 12.2609 16 12.2624C16 12.2639 16 12.2653 16 12.2668C16 12.2683 16 12.2697 16 12.2712C16 12.2727 16 12.2742 16 12.2756C16 12.2771 16 12.2786 16 12.2801C16 12.2815 16 12.283 16 12.2845C16 12.286 16 12.2874 16 12.2889C16 12.2904 16 12.2918 16 12.2933C16 12.2948 16 12.2963 16 12.2977C16 12.2992 16 12.3007 16 12.3022C16 12.3036 16 12.3051 16 12.3066C16 12.308 16 12.3095 16 12.311C16 12.3125 16 12.3139 16 12.3154C16 12.3169 16 12.3183 16 12.3198C16 12.3213 16 12.3228 16 12.3242C16 12.3257 16 12.3272 16 12.3286C16 12.3301 16 12.3316 16 12.3331C16 12.3345 16 12.336 16 12.3375C16 12.3389 16 12.3404 16 12.3419C16 12.3433 16 12.3448 16 12.3463C16 12.3477 16 12.3492 16 12.3507C16 12.3522 16 12.3536 16 12.3551C16 12.3566 16 12.358 16 12.3595C16 12.361 16 12.3624 16 12.3639C16 12.3654 16 12.3668 16 12.3683C16 12.3698 16 12.3712 16 12.3727C16 12.3741 16 12.3756 16 12.3771C16 12.3785 16 12.38 16 12.3815C16 12.3829 16 12.3844 16 12.3859C16 12.3873 16 12.3888 16 12.3902C16 12.3917 16 12.3932 16 12.3946C16 12.3961 16 12.3975 16 12.399C16 12.4005 16 12.4019 16 12.4034C16 12.4048 16 12.4063 16 12.4078C16 12.4092 16 12.4107 16 12.4121C16 12.4136 16 12.415 16 12.4165C16 12.418 16 12.4194 16 12.4209C16 12.4223 16 12.4238 16 12.4252C16 12.4267 16 12.4281 16 12.4296C16 12.431 16 12.4325 16 12.434C16 12.4354 16 12.4369 16 12.4383C16 12.4398 16 12.4412 16 12.4427C16 12.4441 16 12.4456 16 12.447C16 12.4485 16 12.4499 16 12.4514C16 12.4528 16 12.4542 16 12.4557C16 12.4571 16 12.4586 16 12.46C16 12.4615 16 12.4629 16 12.4644C16 12.4658 16 12.4672 16 12.4687C16 12.4701 16 12.4716 16 12.473C16 12.4745 16 12.4759 16 12.4773C16 12.4788 16 12.4802 16 12.4817C16 12.4831 16 12.4845 16 12.486C16 12.4874 16 12.4888 16 12.4903C16 12.4917 16 12.4931 16 12.4946C16 12.496 16 12.4974 16 12.4989C16 12.5003 16 12.5017 16 12.5032C16 12.5046 16 12.506 16 12.5075C16 12.5089 16 12.5103 16 12.5118C16 12.5132 16 12.5146 16 12.516C16 12.5175 16 12.5189 16 12.5203C16 12.5217 16 12.5232 16 12.5246C16 12.526 16 12.5274 16 12.5288C16 12.5303 16 12.5317 16 12.5331C16 12.5345 16 12.5359 16 12.5374C16 12.5388 16 12.5402 16 12.5416C16 12.543 16 12.5444 16 12.5459C16 12.5473 16 12.5487 16 12.5501C16 12.5515 16 12.5529 16 12.5543C16 12.5557 16 12.5572 16 12.5586C16 12.56 16 12.5614 16 12.5628C16 12.5642 16 12.5656 16 12.567C16 12.5684 16 12.5698 16 12.5712C16 12.5726 16 12.574 16 12.5754C16 12.5768 16 12.5782 16 12.5796C16 12.581 16 12.5824 16 12.5838C16 12.5852 16 12.5866 16 12.588C16 12.5894 16 12.5908 16 12.5922C16 12.5936 16 12.595 16 12.5963C16 12.5977 16 12.5991 16 12.6005C16 12.6019 16 12.6033 16 12.6047C16 12.6061 16 12.6074 16 12.6088C16 12.6102 16 12.6116 16 12.613C16 12.6144 16 12.6157 16 12.6171C16 12.6185 16 12.6199 16 12.6212C16 12.6226 16 12.624 16 12.6254C16 12.6267 16 12.6281 16 12.6295C16 12.6309 16 12.6322 16 12.6336C16 12.635 16 12.6363 16 12.6377C16 12.6391 16 12.6404 16 12.6418C16 12.6432 16 12.6445 16 12.6459C16 12.6473 16 12.6486 16 12.65C16 12.6513 16 12.6527 16 12.6541C16 12.6554 16 12.6568 16 12.6581C16 12.6595 16 12.6608 16 12.6622C16 12.6635 16 12.6649 16 12.6662C16 12.6676 16 12.6689 16 12.6703C16 12.6716 16 12.673 16 12.6743C16 12.6757 16 12.677 16 12.6783C16 12.6797 16 12.681 16 12.6824C16 12.6837 16 12.685 16 12.6864C16 12.6877 16 12.689 16 12.6904C16 12.6917 16 12.693 16 12.6944C16 12.6957 16 12.697 16 12.6984C16 12.6997 16 12.701 16 12.7023C16 12.7037 16 12.705 16 12.7063C16 12.7076 16 12.7089 16 12.7103C16 12.7116 16 12.7129 16 12.7142C16 12.7155 16 12.7168 16 12.7182C16 12.7195 16 12.7208 16 12.7221C16 12.7234 16 12.7247 16 12.726C16 12.7273 16 12.7286 16 12.7299C16 12.7312 16 12.7325 16 12.7338C16 12.7351 16 12.7364 16 12.7377C16 12.739 16 12.7403 16 12.7416C16 12.7429 16 12.7442 16 12.7455C16 12.7468 16 12.7481 16 12.7494C16 12.7506 16 12.7519 16 12.7532C16 12.7545 16 12.7558 16 12.7571C16 12.7583 16 12.7596 16 12.7609C16 12.7622 16 12.7635 16 12.7647C16 12.766 16 12.7673 16 12.7685C16 12.7698 16 12.7711 16 12.7724C16 12.7736 16 12.7749 16 12.7761C16 12.7774 16 12.7787 16 12.7799C16 12.7812 16 12.7825 16 12.7837C16 12.785 16 12.7862 16 12.7875C16 12.7887 16 12.79 16 12.7912C16 12.7925 16 12.7937 16 12.795C16 12.7962 16 12.7975 16 12.7987C16 12.8 16 12.8012 16 12.8024C16 12.8037 16 12.8049 16 12.8062C16 12.8074 16 12.8086 16 12.8099C16 12.8111 16 12.8123 16 12.8135C16 12.8148 16 12.816 16 12.8172C16 12.8184 16 12.8197 16 12.8209C16 12.8221 16 12.8233 16 12.8246C16 12.8258 16 12.827 16 12.8282C16 12.8294 16 12.8306 16 12.8318C16 12.833 16 12.8342 16 12.8355C16 12.8367 16 12.8379 16 12.8391C16 12.8403 16 12.8415 16 12.8427C16 12.8439 16 12.8451 16 12.8463C16 12.8474 16 12.8486 16 12.8498C16 12.851 16 12.8522 16 12.8534C16 12.8546 16 12.8558 16 12.8569C16 12.8581 16 12.8593 16 12.8605C16 12.8617 16 12.8628 16 12.864C16 12.8652 16 12.8664 16 12.8675C16 12.8687 16 12.8699 16 12.871C16 12.8722 16 12.8734 16 12.8745C16 12.8757 16 12.8768 16 12.878C16 12.8792 16 12.8803 16 12.8815C16 12.8826 16 12.8838 16 12.8849C16 12.8861 16 12.8872 16 12.8884C16 12.8895 16 12.8906 16 12.8918C16 12.8929 16 12.8941 16 12.8952C16 12.8963 16 12.8975 16 12.8986C16 12.8997 16 12.9009 16 12.902C16 12.9031 16 12.9042 16 12.9054C16 12.9065 16 12.9076 16 12.9087C16 12.9098 16 12.9109 16 12.9121C16 12.9132 16 12.9143 16 12.9154C16 12.9165 16 12.9176 16 12.9187C16 12.9198 16 12.9209 16 12.922C16 12.9231 16 12.9242 16 12.9253C16 12.9264 16 12.9275 16 12.9286C16 12.9297 16 12.9308 16 12.9319C16 12.9329 16 12.934 16 12.9351C16 12.9362 16 12.9373 16 12.9383C16 12.9394 16 12.9405 16 12.9416C16 12.9426 16 12.9437 16 12.9448C16 12.9458 16 12.9469 16 12.948C16 12.949 16 12.9501 16 12.9512C16 12.9522 16 12.9533 16 12.9543C16 12.9554 16 12.9564 16 12.9575C16 12.9585 16 12.9596 16 12.9606C16 12.9616 16 12.9627 16 12.9637C16 12.9648 16 12.9658 16 12.9668C16 12.9679 16 12.9689 16 12.9699C16 12.971 16 12.972 16 12.973C16 12.974 16 12.975 16 12.9761C16 12.9771 16 12.9781 16 12.9791C16 12.9801 16 12.9811 16 12.9821C16 12.9831 16 12.9842 16 12.9852C16 12.9862 16 12.9872 16 12.9882C16 12.9892 16 12.9901 16 12.9911C16 12.9921 16 12.9931 16 12.9941C16 12.9951 16 12.9961 16 12.9971C16 12.998 16 12.999 16 13H19C19 12.999 19 12.998 19 12.9971C19 12.9961 19 12.9951 19 12.9941C19 12.9931 19 12.9921 19 12.9911C19 12.9901 19 12.9892 19 12.9882C19 12.9872 19 12.9862 19 12.9852C19 12.9842 19 12.9831 19 12.9821C19 12.9811 19 12.9801 19 12.9791C19 12.9781 19 12.9771 19 12.9761C19 12.975 19 12.974 19 12.973C19 12.972 19 12.971 19 12.9699C19 12.9689 19 12.9679 19 12.9668C19 12.9658 19 12.9648 19 12.9637C19 12.9627 19 12.9616 19 12.9606C19 12.9596 19 12.9585 19 12.9575C19 12.9564 19 12.9554 19 12.9543C19 12.9533 19 12.9522 19 12.9512C19 12.9501 19 12.949 19 12.948C19 12.9469 19 12.9458 19 12.9448C19 12.9437 19 12.9426 19 12.9416C19 12.9405 19 12.9394 19 12.9383C19 12.9373 19 12.9362 19 12.9351C19 12.934 19 12.9329 19 12.9319C19 12.9308 19 12.9297 19 12.9286C19 12.9275 19 12.9264 19 12.9253C19 12.9242 19 12.9231 19 12.922C19 12.9209 19 12.9198 19 12.9187C19 12.9176 19 12.9165 19 12.9154C19 12.9143 19 12.9132 19 12.9121C19 12.9109 19 12.9098 19 12.9087C19 12.9076 19 12.9065 19 12.9054C19 12.9042 19 12.9031 19 12.902C19 12.9009 19 12.8997 19 12.8986C19 12.8975 19 12.8963 19 12.8952C19 12.8941 19 12.8929 19 12.8918C19 12.8906 19 12.8895 19 12.8884C19 12.8872 19 12.8861 19 12.8849C19 12.8838 19 12.8826 19 12.8815C19 12.8803 19 12.8792 19 12.878C19 12.8768 19 12.8757 19 12.8745C19 12.8734 19 12.8722 19 12.871C19 12.8699 19 12.8687 19 12.8675C19 12.8664 19 12.8652 19 12.864C19 12.8628 19 12.8617 19 12.8605C19 12.8593 19 12.8581 19 12.8569C19 12.8558 19 12.8546 19 12.8534C19 12.8522 19 12.851 19 12.8498C19 12.8486 19 12.8474 19 12.8463C19 12.8451 19 12.8439 19 12.8427C19 12.8415 19 12.8403 19 12.8391C19 12.8379 19 12.8367 19 12.8355C19 12.8342 19 12.833 19 12.8318C19 12.8306 19 12.8294 19 12.8282C19 12.827 19 12.8258 19 12.8246C19 12.8233 19 12.8221 19 12.8209C19 12.8197 19 12.8184 19 12.8172C19 12.816 19 12.8148 19 12.8135C19 12.8123 19 12.8111 19 12.8099C19 12.8086 19 12.8074 19 12.8062C19 12.8049 19 12.8037 19 12.8024C19 12.8012 19 12.8 19 12.7987C19 12.7975 19 12.7962 19 12.795C19 12.7937 19 12.7925 19 12.7912C19 12.79 19 12.7887 19 12.7875C19 12.7862 19 12.785 19 12.7837C19 12.7825 19 12.7812 19 12.7799C19 12.7787 19 12.7774 19 12.7761C19 12.7749 19 12.7736 19 12.7724C19 12.7711 19 12.7698 19 12.7685C19 12.7673 19 12.766 19 12.7647C19 12.7635 19 12.7622 19 12.7609C19 12.7596 19 12.7583 19 12.7571C19 12.7558 19 12.7545 19 12.7532C19 12.7519 19 12.7506 19 12.7494C19 12.7481 19 12.7468 19 12.7455C19 12.7442 19 12.7429 19 12.7416C19 12.7403 19 12.739 19 12.7377C19 12.7364 19 12.7351 19 12.7338C19 12.7325 19 12.7312 19 12.7299C19 12.7286 19 12.7273 19 12.726C19 12.7247 19 12.7234 19 12.7221C19 12.7208 19 12.7195 19 12.7182C19 12.7168 19 12.7155 19 12.7142C19 12.7129 19 12.7116 19 12.7103C19 12.7089 19 12.7076 19 12.7063C19 12.705 19 12.7037 19 12.7023C19 12.701 19 12.6997 19 12.6984C19 12.697 19 12.6957 19 12.6944C19 12.693 19 12.6917 19 12.6904C19 12.689 19 12.6877 19 12.6864C19 12.685 19 12.6837 19 12.6824C19 12.681 19 12.6797 19 12.6783C19 12.677 19 12.6757 19 12.6743C19 12.673 19 12.6716 19 12.6703C19 12.6689 19 12.6676 19 12.6662C19 12.6649 19 12.6635 19 12.6622C19 12.6608 19 12.6595 19 12.6581C19 12.6568 19 12.6554 19 12.6541C19 12.6527 19 12.6513 19 12.65C19 12.6486 19 12.6473 19 12.6459C19 12.6445 19 12.6432 19 12.6418C19 12.6404 19 12.6391 19 12.6377C19 12.6363 19 12.635 19 12.6336C19 12.6322 19 12.6309 19 12.6295C19 12.6281 19 12.6267 19 12.6254C19 12.624 19 12.6226 19 12.6212C19 12.6199 19 12.6185 19 12.6171C19 12.6157 19 12.6144 19 12.613C19 12.6116 19 12.6102 19 12.6088C19 12.6074 19 12.6061 19 12.6047C19 12.6033 19 12.6019 19 12.6005C19 12.5991 19 12.5977 19 12.5963C19 12.595 19 12.5936 19 12.5922C19 12.5908 19 12.5894 19 12.588C19 12.5866 19 12.5852 19 12.5838C19 12.5824 19 12.581 19 12.5796C19 12.5782 19 12.5768 19 12.5754C19 12.574 19 12.5726 19 12.5712C19 12.5698 19 12.5684 19 12.567C19 12.5656 19 12.5642 19 12.5628C19 12.5614 19 12.56 19 12.5586C19 12.5572 19 12.5557 19 12.5543C19 12.5529 19 12.5515 19 12.5501C19 12.5487 19 12.5473 19 12.5459C19 12.5444 19 12.543 19 12.5416C19 12.5402 19 12.5388 19 12.5374C19 12.5359 19 12.5345 19 12.5331C19 12.5317 19 12.5303 19 12.5288C19 12.5274 19 12.526 19 12.5246C19 12.5232 19 12.5217 19 12.5203C19 12.5189 19 12.5175 19 12.516C19 12.5146 19 12.5132 19 12.5118C19 12.5103 19 12.5089 19 12.5075C19 12.506 19 12.5046 19 12.5032C19 12.5017 19 12.5003 19 12.4989C19 12.4974 19 12.496 19 12.4946C19 12.4931 19 12.4917 19 12.4903C19 12.4888 19 12.4874 19 12.486C19 12.4845 19 12.4831 19 12.4817C19 12.4802 19 12.4788 19 12.4773C19 12.4759 19 12.4745 19 12.473C19 12.4716 19 12.4701 19 12.4687C19 12.4672 19 12.4658 19 12.4644C19 12.4629 19 12.4615 19 12.46C19 12.4586 19 12.4571 19 12.4557C19 12.4542 19 12.4528 19 12.4514C19 12.4499 19 12.4485 19 12.447C19 12.4456 19 12.4441 19 12.4427C19 12.4412 19 12.4398 19 12.4383C19 12.4369 19 12.4354 19 12.434C19 12.4325 19 12.431 19 12.4296C19 12.4281 19 12.4267 19 12.4252C19 12.4238 19 12.4223 19 12.4209C19 12.4194 19 12.418 19 12.4165C19 12.415 19 12.4136 19 12.4121C19 12.4107 19 12.4092 19 12.4078C19 12.4063 19 12.4048 19 12.4034C19 12.4019 19 12.4005 19 12.399C19 12.3975 19 12.3961 19 12.3946C19 12.3932 19 12.3917 19 12.3902C19 12.3888 19 12.3873 19 12.3859C19 12.3844 19 12.3829 19 12.3815C19 12.38 19 12.3785 19 12.3771C19 12.3756 19 12.3741 19 12.3727C19 12.3712 19 12.3698 19 12.3683C19 12.3668 19 12.3654 19 12.3639C19 12.3624 19 12.361 19 12.3595C19 12.358 19 12.3566 19 12.3551C19 12.3536 19 12.3522 19 12.3507C19 12.3492 19 12.3477 19 12.3463C19 12.3448 19 12.3433 19 12.3419C19 12.3404 19 12.3389 19 12.3375C19 12.336 19 12.3345 19 12.3331C19 12.3316 19 12.3301 19 12.3286C19 12.3272 19 12.3257 19 12.3242C19 12.3228 19 12.3213 19 12.3198C19 12.3183 19 12.3169 19 12.3154C19 12.3139 19 12.3125 19 12.311C19 12.3095 19 12.308 19 12.3066C19 12.3051 19 12.3036 19 12.3022C19 12.3007 19 12.2992 19 12.2977C19 12.2963 19 12.2948 19 12.2933C19 12.2918 19 12.2904 19 12.2889C19 12.2874 19 12.286 19 12.2845C19 12.283 19 12.2815 19 12.2801C19 12.2786 19 12.2771 19 12.2756C19 12.2742 19 12.2727 19 12.2712C19 12.2697 19 12.2683 19 12.2668C19 12.2653 19 12.2639 19 12.2624C19 12.2609 19 12.2594 19 12.258C19 12.2565 19 12.255 19 12.2535C19 12.2521 19 12.2506 19 12.2491C19 12.2476 19 12.2462 19 12.2447C19 12.2432 19 12.2418 19 12.2403C19 12.2388 19 12.2373 19 12.2359C19 12.2344 19 12.2329 19 12.2314C19 12.23 19 12.2285 19 12.227C19 12.2255 19 12.2241 19 12.2226C19 12.2211 19 12.2197 19 12.2182C19 12.2167 19 12.2152 19 12.2138C19 12.2123 19 12.2108 19 12.2094C19 12.2079 19 12.2064 19 12.2049C19 12.2035 19 12.202 19 12.2005C19 12.1991 19 12.1976 19 12.1961C19 12.1946 19 12.1932 19 12.1917C19 12.1902 19 12.1888 19 12.1873C19 12.1858 19 12.1844 19 12.1829C19 12.1814 19 12.1799 19 12.1785C19 12.177 19 12.1755 19 12.1741C19 12.1726 19 12.1711 19 12.1697C19 12.1682 19 12.1667 19 12.1653C19 12.1638 19 12.1623 19 12.1609C19 12.1594 19 12.1579 19 12.1565C19 12.155 19 12.1535 19 12.1521C19 12.1506 19 12.1491 19 12.1477C19 12.1462 19 12.1448 19 12.1433C19 12.1418 19 12.1404 19 12.1389C19 12.1374 19 12.136 19 12.1345C19 12.1331 19 12.1316 19 12.1301C19 12.1287 19 12.1272 19 12.1257C19 12.1243 19 12.1228 19 12.1214C19 12.1199 19 12.1185 19 12.117C19 12.1155 19 12.1141 19 12.1126C19 12.1112 19 12.1097 19 12.1082C19 12.1068 19 12.1053 19 12.1039C19 12.1024 19 12.101 19 12.0995C19 12.0981 19 12.0966 19 12.0952C19 12.0937 19 12.0922 19 12.0908C19 12.0893 19 12.0879 19 12.0864C19 12.085 19 12.0835 19 12.0821C19 12.0806 19 12.0792 19 12.0777C19 12.0763 19 12.0748 19 12.0734C19 12.0719 19 12.0705 19 12.0691C19 12.0676 19 12.0662 19 12.0647C19 12.0633 19 12.0618 19 12.0604C19 12.0589 19 12.0575 19 12.0561C19 12.0546 19 12.0532 19 12.0517C19 12.0503 19 12.0488 19 12.0474C19 12.046 19 12.0445 19 12.0431C19 12.0416 19 12.0402 19 12.0388C19 12.0373 19 12.0359 19 12.0345C19 12.033 19 12.0316 19 12.0302C19 12.0287 19 12.0273 19 12.0259C19 12.0244 19 12.023 19 12.0216C19 12.0201 19 12.0187 19 12.0173C19 12.0158 19 12.0144 19 12.013C19 12.0116 19 12.0101 19 12.0087C19 12.0073 19 12.0058 19 12.0044C19 12.003 19 12.0016 19 12.0001C19 11.9987 19 11.9973 19 11.9959C19 11.9945 19 11.993 19 11.9916C19 11.9902 19 11.9888 19 11.9874C19 11.9859 19 11.9845 19 11.9831C19 11.9817 19 11.9803 19 11.9789C19 11.9775 19 11.976 19 11.9746C19 11.9732 19 11.9718 19 11.9704C19 11.969 19 11.9676 19 11.9662C19 11.9648 19 11.9633 19 11.9619C19 11.9605 19 11.9591 19 11.9577C19 11.9563 19 11.9549 19 11.9535C19 11.9521 19 11.9507 19 11.9493C19 11.9479 19 11.9465 19 11.9451C19 11.9437 19 11.9423 19 11.9409C19 11.9395 19 11.9381 19 11.9367C19 11.9353 19 11.9339 19 11.9325C19 11.9311 19 11.9298 19 11.9284C19 11.927 19 11.9256 19 11.9242C19 11.9228 19 11.9214 19 11.92C19 11.9186 19 11.9173 19 11.9159C19 11.9145 19 11.9131 19 11.9117C19 11.9103 19 11.909 19 11.9076C19 11.9062 19 11.9048 19 11.9035C19 11.9021 19 11.9007 19 11.8993C19 11.8979 19 11.8966 19 11.8952C19 11.8938 19 11.8925 19 11.8911C19 11.8897 19 11.8884 19 11.887C19 11.8856 19 11.8842 19 11.8829C19 11.8815 19 11.8802 19 11.8788C19 11.8774 19 11.8761 19 11.8747C19 11.8733 19 11.872 19 11.8706C19 11.8693 19 11.8679 19 11.8666C19 11.8652 19 11.8639 19 11.8625C19 11.8611 19 11.8598 19 11.8584C19 11.8571 19 11.8558 19 11.8544C19 11.8531 19 11.8517 19 11.8504C19 11.849 19 11.8477 19 11.8463C19 11.845 19 11.8437 19 11.8423C19 11.841 19 11.8396 19 11.8383C19 11.837 19 11.8356 19 11.8343C19 11.833 19 11.8316 19 11.8303C19 11.829 19 11.8276 19 11.8263C19 11.825 19 11.8237 19 11.8223C19 11.821 19 11.8197 19 11.8184C19 11.817 19 11.8157 19 11.8144C19 11.8131 19 11.8118 19 11.8105C19 11.8091 19 11.8078 19 11.8065C19 11.8052 19 11.8039 19 11.8026C19 11.8013 19 11.8 19 11.7986C19 11.7973 19 11.796 19 11.7947C19 11.7934 19 11.7921 19 11.7908C19 11.7895 19 11.7882 19 11.7869C19 11.7856 19 11.7843 19 11.783C19 11.7817 19 11.7804 19 11.7792C19 11.7779 19 11.7766 19 11.7753C19 11.774 19 11.7727 19 11.7714C19 11.7701 19 11.7689 19 11.7676C19 11.7663 19 11.765 19 11.7637C19 11.7625 19 11.7612 19 11.7599C19 11.7586 19 11.7574 19 11.7561C19 11.7548 19 11.7535 19 11.7523C19 11.751 19 11.7497 19 11.7485C19 11.7472 19 11.7459 19 11.7447C19 11.7434 19 11.7422 19 11.7409C19 11.7397 19 11.7384 19 11.7371C19 11.7359 19 11.7346 19 11.7334C19 11.7321 19 11.7309 19 11.7296C19 11.7284 19 11.7271 19 11.7259C19 11.7247 19 11.7234 19 11.7222C19 11.7209 19 11.7197 19 11.7185C19 11.7172 19 11.716 19 11.7148C19 11.7135 19 11.7123 19 11.7111C19 11.7098 19 11.7086 19 11.7074C19 11.7062 19 11.7049 19 11.7037C19 11.7025 19 11.7013 19 11.7C19 11.6988 19 11.6976 19 11.6964C19 11.6952 19 11.694 19 11.6928C19 11.6915 19 11.6903 19 11.6891C19 11.6879 19 11.6867 19 11.6855C19 11.6843 19 11.6831 19 11.6819C19 11.6807 19 11.6795 19 11.6783C19 11.6771 19 11.6759 19 11.6748C19 11.6736 19 11.6724 19 11.6712C19 11.67 19 11.6688 19 11.6676C19 11.6664 19 11.6653 19 11.6641C19 11.6629 19 11.6617 19 11.6606C19 11.6594 19 11.6582 19 11.657C19 11.6559 19 11.6547 19 11.6535C19 11.6524 19 11.6512 19 11.65C19 11.6489 19 11.6477 19 11.6466C19 11.6454 19 11.6442 19 11.6431C19 11.6419 19 11.6408 19 11.6396C19 11.6385 19 11.6373 19 11.6362C19 11.6351 19 11.6339 19 11.6328C19 11.6316 19 11.6305 19 11.6294C19 11.6282 19 11.6271 19 11.6259C19 11.6248 19 11.6237 19 11.6226C19 11.6214 19 11.6203 19 11.6192C19 11.6181 19 11.6169 19 11.6158C19 11.6147 19 11.6136 19 11.6125C19 11.6114 19 11.6102 19 11.6091C19 11.608 19 11.6069 19 11.6058C19 11.6047 19 11.6036 19 11.6025C19 11.6014 19 11.6003 19 11.5992C19 11.5981 19 11.597 19 11.5959C19 11.5948 19 11.5937 19 11.5927C19 11.5916 19 11.5905 19 11.5894C19 11.5883 19 11.5872 19 11.5862C19 11.5851 19 11.584 19 11.5829C19 11.5819 19 11.5808 19 11.5797C19 11.5787 19 11.5776 19 11.5765C19 11.5755 19 11.5744 19 11.5733C19 11.5723 19 11.5712 19 11.5702C19 11.5691 19 11.5681 19 11.567C19 11.566 19 11.5649 19 11.5639C19 11.5628 19 11.5618 19 11.5608C19 11.5597 19 11.5587 19 11.5576C19 11.5566 19 11.5556 19 11.5545C19 11.5535 19 11.5525 19 11.5515C19 11.5504 19 11.5494 19 11.5484C19 11.5474 19 11.5464 19 11.5454C19 11.5443 19 11.5433 19 11.5423C19 11.5413 19 11.5403 19 11.5393C19 11.5383 19 11.5373 19 11.5363C19 11.5353 19 11.5343 19 11.5333C19 11.5323 19 11.5313 19 11.5303C19 11.5293 19 11.5284 19 11.5274C19 11.5264 19 11.5254 19 11.5244C19 11.5235 19 11.5225 19 11.5215C19 11.5205 19 11.5196 19 11.5186C19 11.5176 19 11.5167 19 11.5157C19 11.5148 19 11.5138 19 11.5128C19 11.5119 19 11.5109 19 11.51C19 11.509 19 11.5081 19 11.5071C19 11.5062 19 11.5052 19 11.5043C19 11.5034 19 11.5024 19 11.5015C19 11.5006 19 11.4996 19 11.4987C19 11.4978 19 11.4968 19 11.4959C19 11.495 19 11.4941 19 11.4932C19 11.4922 19 11.4913 19 11.4904C19 11.4895 19 11.4886 19 11.4877C19 11.4868 19 11.4859 19 11.485C19 11.4841 19 11.4832 19 11.4823C19 11.4814 19 11.4805 19 11.4796C19 11.4787 19 11.4778 19 11.4769C19 11.476 19 11.4752 19 11.4743C19 11.4734 19 11.4725 19 11.4717C19 11.4708 19 11.4699 19 11.4691C19 11.4682 19 11.4673 19 11.4665C19 11.4656 19 11.4647 19 11.4639C19 11.463 19 11.4622 19 11.4613C19 11.4605 19 11.4596 19 11.4588C19 11.458 19 11.4571 19 11.4563C19 11.4554 19 11.4546 19 11.4538C19 11.4529 19 11.4521 19 11.4513C19 11.4505 19 11.4496 19 11.4488C19 11.448 19 11.4472 19 11.4464C19 11.4456 19 11.4448 19 11.444C19 11.4431 19 11.4423 19 11.4415C19 11.4407 19 11.4399 19 11.4391C19 11.4384 19 11.4376 19 11.4368C19 11.436 19 11.4352 19 11.4344C19 11.4336 19 11.4329 19 11.4321C19 11.4313 19 11.4305 19 11.4298C19 11.429 19 11.4282 19 11.4275C19 11.4267 19 11.4259 19 11.4252C19 11.4244 19 11.4237 19 11.4229C19 11.4222 19 11.4214 19 11.4207C19 11.4199 19 11.4192 19 11.4185C19 11.4177 19 11.417 19 11.4163C19 11.4155 19 11.4148 19 11.4141C19 11.4133 19 11.4126 19 11.4119C19 11.4112 19 11.4105 19 11.4098C19 11.4091 19 11.4083 19 11.4076C19 11.4069 19 11.4062 19 11.4055C19 11.4048 19 11.4041 19 11.4034C19 11.4028 19 11.4021 19 11.4014C19 11.4007 19 11.4 19 11.3993C19 11.3987 19 11.398 19 11.3973C19 11.3966 19 11.396 19 11.3953C19 11.3946 19 11.394 19 11.3933C19 11.3927 19 11.392 19 11.3914C19 11.3907 19 11.3901 19 11.3894C19 11.3888 19 11.3881 19 11.3875C19 11.3868 19 11.3862 19 11.3856C19 11.3849 19 11.3843 19 11.3837C19 11.3831 19 11.3824 19 11.3818C19 11.3812 19 11.3806 19 11.38C19 11.3794 19 11.3788 19 11.3782C19 11.3776 19 11.377 19 11.3764C19 11.3758 19 11.3752 19 11.3746C19 11.374 19 11.3734 19 11.3728C19 11.3723 19 11.3717 19 11.3711C19 11.3705 19 11.37 19 11.3694C19 11.3688 19 11.3682 19 11.3677C19 11.3671 19 11.3666 19 11.366C19 11.3655 19 11.3649 19 11.3644C19 11.3638 19 11.3633 19 11.3627C19 11.3622 19 11.3617 19 11.3611C19 11.3606 19 11.3601 19 11.3595C19 11.359 19 11.3585 19 11.358C19 11.3575 19 11.3569 19 11.3564C19 11.3559 19 11.3554 19 11.3549C19 11.3544 19 11.3539 19 11.3534C19 11.3529 19 11.3524 19 11.3519C19 11.3515 19 11.351 19 11.3505C19 11.35 19 11.3495 19 11.3491C19 11.3486 19 11.3481 19 11.3477C19 11.3472 19 11.3467 19 11.3463C19 11.3458 19 11.3454 19 11.3449C19 11.3445 19 11.344 19 11.3436C19 11.3431 19 11.3427 19 11.3423C19 11.3418 19 11.3414 19 11.341C19 11.3405 19 11.3401 19 11.3397C19 11.3393 19 11.3389 19 11.3384C19 11.338 19 11.3376 19 11.3372C19 11.3368 19 11.3364 19 11.336C19 11.3356 19 11.3352 19 11.3348C19 11.3344 19 11.3341 19 11.3337C19 11.3333 19 11.3329 19 11.3325C19 11.3322 19 11.3318 19 11.3314C19 11.3311 19 11.3307 19 11.3304C19 11.33 19 11.3296 19 11.3293C19 11.3289 19 11.3286 19 11.3283C19 11.3279 19 11.3276 19 11.3272C19 11.3269 19 11.3266 19 11.3263C19 11.3259 19 11.3256 19 11.3253C19 11.325 19 11.3247 19 11.3244C19 11.324 19 11.3237 19 11.3234C19 11.3231 19 11.3228 19 11.3225C19 11.3223 19 11.322 19 11.3217C19 11.3214 19 11.3211 19 11.3208C19 11.3206 19 11.3203 19 11.32C19 11.3197 19 11.3195 19 11.3192C19 11.319 19 11.3187 19 11.3185C19 11.3182 19 11.318 19 11.3177C19 11.3175 19 11.3172 19 11.317C19 11.3168 19 11.3165 19 11.3163C19 11.3161 19 11.3158 19 11.3156C19 11.3154 19 11.3152 19 11.315C19 11.3148 19 11.3146 19 11.3144C19 11.3142 19 11.314 19 11.3138C19 11.3136 19 11.3134 19 11.3132C19 11.313 19 11.3128 19 11.3127C19 11.3125 19 11.3123 19 11.3122C19 11.312 19 11.3118 19 11.3117C19 11.3115 19 11.3113 19 11.3112C19 11.311 19 11.3109 19 11.3108C19 11.3106 19 11.3105 19 11.3103C19 11.3102 19 11.3101 19 11.31C19 11.3098 19 11.3097 19 11.3096C19 11.3095 19 11.3094 19 11.3093C19 11.3092 19 11.3091 19 11.309C19 11.3089 19 11.3088 19 11.3087C19 11.3086 19 11.3085 19 11.3084C19 11.3083 19 11.3083 19 11.3082C19 11.3081 19 11.308 19 11.308C19 11.3079 19 11.3079 19 11.3078C19 11.3078 19 11.3077 19 11.3077C19 11.3076 19 11.3076 19 11.3075C19 11.3075 19 11.3075 19 11.3074C19 11.3074 19 11.3074 19 11.3074C19 11.3074 19 11.3073 19 11.3073C19 11.3073 19 11.3073 17.5 11.3073ZM17.4611 11.5005C15.0423 11.5632 13.2835 11.2217 11.1744 10.1602L9.82561 12.8398C12.4273 14.1494 14.6856 14.5735 17.5389 14.4995L17.4611 11.5005ZM11.1744 10.1602C8.86345 8.99698 6.5193 7.47734 5.22753 5.63793L2.77247 7.36207C4.51165 9.83857 7.42575 11.6319 9.82561 12.8398L11.1744 10.1602ZM5.22753 5.63793C4.94645 5.23769 4.46575 4.97502 3.92618 5.00123C3.51949 5.02097 3.24281 5.19911 3.15255 5.26063C2.95171 5.39752 2.83319 5.55284 2.81478 5.57619C2.74135 5.6693 2.6924 5.75433 2.67814 5.77902C2.636 5.85201 2.59845 5.92788 2.5697 5.98839C2.50747 6.1194 2.43325 6.2915 2.35292 6.49578C2.19097 6.90759 1.98876 7.48951 1.7964 8.20155C1.41323 9.61997 1.05588 11.6039 1.16355 13.815C1.27159 16.0337 1.85008 18.5072 3.36335 20.8488C4.88145 23.1979 7.28263 25.3244 10.8908 26.928L12.1092 24.1866C8.96737 22.7902 7.04747 21.0224 5.88298 19.2205C4.71365 17.4111 4.24803 15.4768 4.16 13.6691C4.07159 11.8536 4.36621 10.1921 4.69259 8.98394C4.85501 8.38268 5.02197 7.90602 5.1448 7.59368C5.20685 7.43588 5.25391 7.32951 5.27951 7.27562C5.29468 7.24368 5.29268 7.2505 5.27619 7.27907C5.27475 7.28156 5.23614 7.35053 5.17039 7.43391C5.15582 7.45239 5.04048 7.60443 4.84211 7.73962C4.75309 7.8003 4.47748 7.97799 4.07168 7.9977C3.533 8.02385 3.05301 7.76155 2.77247 7.36207L5.22753 5.63793ZM10.6576 24.3162C7.79798 26.2573 4.92919 27.1925 1.55962 27.0585L1.44038 30.0561C5.53228 30.2189 9.0236 29.0512 12.3424 26.7984L10.6576 24.3162ZM0.771536 29.8686C7.93631 33.849 15.9764 33.8861 22.2673 30.5377C28.5947 27.1699 33 20.4572 33 11.3073H30C30 19.4074 26.1553 25.0698 20.8577 27.8895C15.5236 30.7286 8.56369 30.7657 2.22846 27.2461L0.771536 29.8686ZM33 11.3024C32.9983 10.7917 32.9492 10.2823 32.8533 9.78069L29.9067 10.3439C29.9677 10.6631 29.9989 10.9873 30 11.3123L33 11.3024ZM32.4333 11.1303C34.1625 9.425 35.3827 7.27192 35.9574 4.91225L33.0426 4.20239C32.5997 6.02086 31.6593 7.68011 30.3267 8.99431L32.4333 11.1303Z"
          fill="#153E67"/>
</svg>
