<svg width="24" height="24" viewBox="0 0 24 24" fill="none" xmlns="http://www.w3.org/2000/svg">
<path fill-rule="evenodd" clip-rule="evenodd" d="M3.28876 17.0201L10.892 4.62966C11.3993 3.80289 12.6007 3.80289 13.108 4.62966L20.7112 17.0201C21.2428 17.8863 20.6195 19 19.6032 19L4.39678 19C3.3805 19 2.75723 17.8863 3.28876 17.0201ZM1.58411 15.9741L9.18734 3.58363C10.4752 1.4849 13.5248 1.4849 14.8127 3.58363L22.4159 15.974C23.7652 18.1728 22.183 21 19.6032 21L4.39678 21C1.817 21 0.234845 18.1729 1.58411 15.9741ZM11 9.00002C11 8.44774 11.4477 8.00002 12 8.00002C12.5523 8.00002 13 8.44774 13 9.00002V12C13 12.5523 12.5523 13 12 13C11.4477 13 11 12.5523 11 12V9.00002ZM11 16C11 15.4477 11.4477 15 12 15C12.5523 15 13 15.4477 13 16C13 16.5523 12.5523 17 12 17C11.4477 17 11 16.5523 11 16Z" fill="currentColor"/>
</svg>
