<svg width="20" height="20" viewBox="0 0 20 20" fill="none" xmlns="http://www.w3.org/2000/svg">
<path fill-rule="evenodd" clip-rule="evenodd" d="M7.67316 3.89381L2.56371 12.4645C1.37158 14.4642 2.81246 17.0007 5.14055 17.0007H15.3594C17.6875 17.0007 19.1284 14.4642 17.9363 12.4645L12.8268 3.89381L11.5384 4.6619L12.8268 3.89381C11.6633 1.94207 8.8367 1.94206 7.67316 3.89381L8.96158 4.6619L7.67316 3.89381ZM8.96158 4.6619C9.54335 3.68603 10.9567 3.68603 11.5384 4.6619L16.6479 13.2326C17.2439 14.2324 16.5235 15.5007 15.3594 15.5007H5.14055C3.97651 15.5007 3.25607 14.2324 3.85213 13.2326L8.96158 4.6619ZM9.5 10.2507C9.5 10.6649 9.83579 11.0007 10.25 11.0007C10.6642 11.0007 11 10.6649 11 10.2507V7.25068C11 6.83647 10.6642 6.50068 10.25 6.50068C9.83579 6.50068 9.5 6.83647 9.5 7.25068V10.2507ZM10.25 12.5007C10.6642 12.5007 11 12.8365 11 13.2507C11 13.6649 10.6642 14.0007 10.25 14.0007C9.83579 14.0007 9.5 13.6649 9.5 13.2507C9.5 12.8365 9.83579 12.5007 10.25 12.5007Z" fill="currentColor"/>
</svg>
