<svg width="24" height="24" viewBox="0 0 24 24" fill="none" xmlns="http://www.w3.org/2000/svg">
<path fill-rule="evenodd" clip-rule="evenodd" d="M22 12C22 17.5228 17.5228 22 12 22C6.47715 22 2 17.5228 2 12C2 6.47715 6.47715 2 12 2C17.5228 2 22 6.47715 22 12ZM12 20C11.9999 20 12.0001 20 12 20C7.58172 20 4 16.4183 4 12C4 11.6802 4.01876 11.3648 4.05525 11.0548L10.0002 16.9998V17.9998C10.0002 18.5521 10.4479 18.9998 11.0002 18.9998H12.0002L12 20ZM14.0003 19.7479V17.9998C14.0003 17.4475 13.5526 16.9998 13.0003 16.9998H12.0002V16.1714L10.8285 14.9997L15.0002 14.9998V15.9998C15.0002 16.5521 15.4479 16.9998 16.0002 16.9998H18.2456C17.1802 18.3288 15.6995 19.3105 14.0003 19.7479ZM19.4186 14.9998H17.0002V13.9998C17.0002 13.4475 16.5525 12.9998 16.0002 12.9998L8.00003 12.9996V10.9998H11.0003C11.5526 10.9998 12.0003 10.5521 12.0003 9.99978V7.99978H13C14.1046 7.99978 15 7.10435 15 5.99978V4.58152C17.9318 5.7683 20 8.64263 20 12C20 13.0608 19.7935 14.0734 19.4186 14.9998ZM13 4.0619V5.99978H11.0003C10.448 5.99978 10.0003 6.44749 10.0003 6.99978V8.99978H7.17145C6.52449 8.99978 6.00003 9.52424 6.00003 10.1712L4.6545 8.82568C5.8831 5.98652 8.70956 4 12 4C12.3387 4 12.6724 4.02104 13 4.0619Z" fill="currentColor"/>
</svg>
