<svg width="20" height="20" viewBox="0 0 20 20" fill="none" xmlns="http://www.w3.org/2000/svg">
<path d="M10.25 2.5C10.6756 2.5 11.0931 2.5346 11.5 2.60059C11.5232 2.60435 11.5462 2.60931 11.5693 2.61328C11.6706 2.63065 11.7712 2.64964 11.8711 2.6709C11.895 2.67601 11.9186 2.68217 11.9424 2.6875C12.045 2.71035 12.147 2.73387 12.248 2.76074C12.2716 2.76706 12.2949 2.77472 12.3184 2.78125C12.4217 2.80981 12.5244 2.83939 12.626 2.87207C12.6404 2.87672 12.6546 2.88199 12.6689 2.88672C15.7643 3.90298 18 6.81468 18 10.25C18 12.8286 16.7389 15.1107 14.8018 16.5195C14.7865 16.5306 14.7712 16.5417 14.7559 16.5527C14.6452 16.632 14.5328 16.7088 14.418 16.7822C14.4066 16.7895 14.3952 16.7965 14.3838 16.8037C13.8688 17.1292 13.3131 17.3948 12.7256 17.5928C12.6972 17.6023 12.6691 17.6128 12.6406 17.6221C12.5573 17.6491 12.4732 17.674 12.3887 17.6982C12.3598 17.7065 12.3308 17.7147 12.3018 17.7227C12.2212 17.7447 12.1402 17.7656 12.0586 17.7852C12.0193 17.7946 11.9799 17.8037 11.9404 17.8125C11.8646 17.8294 11.7886 17.8457 11.7119 17.8604C11.6681 17.8688 11.6241 17.8761 11.5801 17.8838C11.5042 17.8969 11.4282 17.91 11.3516 17.9209C11.3039 17.9277 11.2559 17.9325 11.208 17.9385C11.135 17.9475 11.0619 17.9569 10.9883 17.9639C10.926 17.9698 10.8635 17.9741 10.8008 17.9785C10.7439 17.9825 10.6871 17.9875 10.6299 17.9902C10.504 17.9964 10.3774 18 10.25 18C5.96979 18 2.5 14.5302 2.5 10.25C2.5 9.14163 2.73416 8.08827 3.15332 7.13477C3.16078 7.11782 3.16821 7.10087 3.17578 7.08398C3.22549 6.97308 3.27831 6.86393 3.33301 6.75586C3.33676 6.74846 3.33998 6.74079 3.34375 6.7334C4.62554 4.22111 7.23614 2.5 10.25 2.5ZM4.10547 9.10547C4.03678 9.47657 4 9.85901 4 10.25C4 13.4479 6.40196 16.0825 9.5 16.4531V15C8.39543 15 7.5 14.1046 7.5 13V12.5L4.10547 9.10547ZM9 11.8789V13C9 13.2761 9.22386 13.5 9.5 13.5H11V16.4531C12.1172 16.3195 13.1439 15.8931 14 15.25V14.5C14 14.2239 13.7761 14 13.5 14H12V12C12 11.7239 11.7761 11.5 11.5 11.5H8.62109L9 11.8789ZM12.9961 4.63477C12.9256 6.22906 11.6117 7.5 10 7.5H8V10H11.5C12.6046 10 13.5 10.8954 13.5 12V12.5C14.3652 12.5 15.0992 13.0504 15.3779 13.8193C16.0838 12.8071 16.5 11.5777 16.5 10.25C16.5 7.78357 15.071 5.65141 12.9961 4.63477ZM10.25 4C7.78108 4 5.64628 5.43143 4.63086 7.50977L6.5 9.37891V6H10C10.8284 6 11.5 5.32843 11.5 4.5V4.125C11.0961 4.04302 10.6781 4 10.25 4Z" fill="currentColor"/>
</svg>
