<svg width="20" height="20" viewBox="0 0 20 20" fill="none" xmlns="http://www.w3.org/2000/svg">
<path d="M10.0004 13.2998C10.6629 13.3 11.1996 13.8374 11.1996 14.5C11.1996 15.1626 10.6629 15.7 10.0004 15.7002C9.33762 15.7002 8.80017 15.1627 8.80017 14.5C8.8002 13.8373 9.33764 13.2998 10.0004 13.2998ZM9.99939 8.5C11.8967 8.5 13.5694 9.46126 14.558 10.9229C14.7468 11.2021 14.6929 11.5714 14.4603 11.8154C14.0584 12.2368 13.3317 12.0839 12.9681 11.6289C12.2723 10.758 11.201 10.2002 9.99939 10.2002C8.79784 10.2004 7.72667 10.7581 7.03064 11.6289C6.66707 12.0838 5.94036 12.2367 5.53845 11.8154C5.30595 11.5715 5.25113 11.2021 5.43982 10.9229C6.42832 9.46107 8.10197 8.50022 9.99939 8.5ZM9.99939 4C13.0434 4 15.7698 5.36107 17.6039 7.50684C17.8673 7.81533 17.8368 8.27069 17.557 8.56445C17.1912 8.94844 16.5651 8.89583 16.2133 8.49902C14.6929 6.7828 12.4726 5.7002 9.99939 5.7002C7.52594 5.70038 5.30579 6.78334 3.78552 8.5C3.43384 8.89676 2.80833 8.94846 2.44275 8.56445C2.16323 8.27075 2.1325 7.81607 2.39587 7.50781C4.22973 5.36157 6.95511 4.00019 9.99939 4Z" fill="currentColor"/>
</svg>
