<svg width="24" height="24" viewBox="0 0 24 24" fill="none" xmlns="http://www.w3.org/2000/svg">
<g clip-path="url(#clip0_1284_20244)">
<path fill-rule="evenodd" clip-rule="evenodd" d="M21.3113 6.90739C21.9789 8.20187 22 9.65149 22 12C22 14.3485 21.9789 15.7981 21.3113 17.0926C20.8859 17.9172 20.0796 18.4281 18.5121 18.7096C16.9156 18.9963 14.7861 19 12 19C9.21393 19 7.08438 18.9963 5.48794 18.7096C3.92044 18.4281 3.11407 17.9172 2.68874 17.0926C2.02107 15.7981 2 14.3485 2 12C2 9.65149 2.02107 8.20187 2.68874 6.90739C3.11407 6.08278 3.92044 5.57188 5.48794 5.29038C7.08438 5.00368 9.21393 5 12 5C14.7861 5 16.9156 5.00368 18.5121 5.29038C20.0796 5.57188 20.8859 6.08278 21.3113 6.90739ZM-1.84762e-05 11.8558L5.9728e-07 12L-1.84762e-05 12.1442C-0.000464796 14.3086 -0.000862479 16.241 0.911256 18.0094C1.74909 19.6338 3.29272 20.3474 5.13443 20.6781C6.92713 21.0001 9.23433 21 11.91 21H12H12.09C14.7657 21 17.0729 21.0001 18.8656 20.6781C20.7073 20.3474 22.2509 19.6338 23.0887 18.0094C24.0009 16.241 24.0005 14.3086 24 12.1442L24 12L24 11.8558C24.0005 9.6914 24.0009 7.75897 23.0887 5.99058C22.2509 4.3662 20.7073 3.65261 18.8656 3.32187C17.0729 2.99993 14.7657 2.99996 12.09 3H12.09H12H11.91H11.91C9.23432 2.99996 6.92712 2.99993 5.13443 3.32187C3.29272 3.65261 1.74909 4.3662 0.911256 5.99058C-0.000862479 7.75897 -0.000464796 9.6914 -1.84762e-05 11.8558ZM10 15L15.19 12L10 9V15Z" fill="currentColor"/>
</g>
<defs>
<clipPath id="clip0_1284_20244">
<rect width="24" height="24" fill="white"/>
</clipPath>
</defs>
</svg>
