<svg xmlns="http://www.w3.org/2000/svg" width="888" height="24"><defs><clipPath id="a"><path d="M24 0H0v24h24V0zM11.206 16.505c-.133.304-.206.641-.206.995s.073.69.206.995l-1.026.718c-.497.348-1.18-.007-1.18-.614v-2.198c0-.607.683-.963 1.18-.615l1.026.719zM15 17.5c0 .828-.672 1.5-1.5 1.5s-1.5-.672-1.5-1.5.672-1.5 1.5-1.5 1.5.672 1.5 1.5zm1 0c0-.354-.073-.691-.206-.995l1.026-.719c.497-.348 1.18.008 1.18.615v2.198c0 .607-.683.962-1.18.614l-.614-.429-.412-.289c.068-.157.121-.323.156-.495.033-.162.05-.329.05-.5z"/></clipPath></defs><path fill="none" stroke="#A9DBFF" stroke-dasharray="0,109.94107536519488" stroke-dashoffset="109.941075" stroke-linecap="round" stroke-linejoin="round" d="M5.5 9.5h-4s1 4 4 3l-3.5 4s1.5 2 3.5 1v4s2 2 5.5 2 5.5-2 5.5-2l-1.069-3.476c-.231.851-1.008 1.476-1.931 1.476-1.105 0-2-.895-2-2s.895-2 2-2c.497 0 .952.181 1.302.482L14.5 15c1.228-.921 1.702-1.277 2.233-1.414.333-.086.688-.086 1.267-.086h2.5c.768 0 2.444 0 2.89-2.569l-6.142-.384c-.42-.026-.748-.375-.748-.797 0-.422.328-.77.748-.797l6.211-.388C23.209 5.908 21.855 5.5 20.5 5.5h-11c-2.209 0-4 1.791-4 4V1.8l2.495 3.993" clip-path="url(#a)"/><g transform="translate(24)"><defs><clipPath id="b"><path d="M24 0H0v24h24V0zM11.206 16.505c-.133.304-.206.641-.206.995s.073.69.206.995l-1.026.718c-.497.348-1.18-.007-1.18-.614v-2.198c0-.607.683-.963 1.18-.615l1.026.719zM15 17.5c0 .828-.672 1.5-1.5 1.5s-1.5-.672-1.5-1.5.672-1.5 1.5-1.5 1.5.672 1.5 1.5zm1 0c0-.354-.073-.691-.206-.995l1.026-.719c.497-.348 1.18.008 1.18.615v2.198c0 .607-.683.962-1.18.614l-.614-.429-.412-.289c.068-.157.121-.323.156-.495.033-.162.05-.329.05-.5z"/></clipPath></defs><path fill="none" stroke="#A9DBFF" stroke-dasharray="0.18683417333217303,109.7542411918627" stroke-dashoffset="109.941075" stroke-linecap="round" stroke-linejoin="round" d="M5.5 9.5h-4s1 4 4 3l-3.5 4s1.5 2 3.5 1v4s2 2 5.5 2 5.5-2 5.5-2l-1.069-3.476c-.231.851-1.008 1.476-1.931 1.476-1.105 0-2-.895-2-2s.895-2 2-2c.497 0 .952.181 1.302.482L14.5 15c1.228-.921 1.702-1.277 2.233-1.414.333-.086.688-.086 1.267-.086h2.5c.768 0 2.444 0 2.89-2.569l-6.142-.384c-.42-.026-.748-.375-.748-.797 0-.422.328-.77.748-.797l6.211-.388C23.209 5.908 21.855 5.5 20.5 5.5h-11c-2.209 0-4 1.791-4 4V1.8l2.495 3.993" clip-path="url(#b)"/></g><g transform="translate(48)"><defs><clipPath id="c"><path d="M24 0H0v24h24V0zM11.206 16.505c-.133.304-.206.641-.206.995s.073.69.206.995l-1.026.718c-.497.348-1.18-.007-1.18-.614v-2.198c0-.607.683-.963 1.18-.615l1.026.719zM15 17.5c0 .828-.672 1.5-1.5 1.5s-1.5-.672-1.5-1.5.672-1.5 1.5-1.5 1.5.672 1.5 1.5zm1 0c0-.354-.073-.691-.206-.995l1.026-.719c.497-.348 1.18.008 1.18.615v2.198c0 .607-.683.962-1.18.614l-.614-.429-.412-.289c.068-.157.121-.323.156-.495.033-.162.05-.329.05-.5z"/></clipPath></defs><path fill="none" stroke="#A9DBFF" stroke-dasharray="0.7926939679977006,109.14838139719718" stroke-dashoffset="109.941075" stroke-linecap="round" stroke-linejoin="round" d="M5.5 9.5h-4s1 4 4 3l-3.5 4s1.5 2 3.5 1v4s2 2 5.5 2 5.5-2 5.5-2l-1.069-3.476c-.231.851-1.008 1.476-1.931 1.476-1.105 0-2-.895-2-2s.895-2 2-2c.497 0 .952.181 1.302.482L14.5 15c1.228-.921 1.702-1.277 2.233-1.414.333-.086.688-.086 1.267-.086h2.5c.768 0 2.444 0 2.89-2.569l-6.142-.384c-.42-.026-.748-.375-.748-.797 0-.422.328-.77.748-.797l6.211-.388C23.209 5.908 21.855 5.5 20.5 5.5h-11c-2.209 0-4 1.791-4 4V1.8l2.495 3.993" clip-path="url(#c)"/></g><g transform="translate(72)"><defs><clipPath id="d"><path d="M24 0H0v24h24V0zM11.206 16.505c-.133.304-.206.641-.206.995s.073.69.206.995l-1.026.718c-.497.348-1.18-.007-1.18-.614v-2.198c0-.607.683-.963 1.18-.615l1.026.719zM15 17.5c0 .828-.672 1.5-1.5 1.5s-1.5-.672-1.5-1.5.672-1.5 1.5-1.5 1.5.672 1.5 1.5zm1 0c0-.354-.073-.691-.206-.995l1.026-.719c.497-.348 1.18.008 1.18.615v2.198c0 .607-.683.962-1.18.614l-.614-.429-.412-.289c.068-.157.121-.323.156-.495.033-.162.05-.329.05-.5z"/></clipPath></defs><path fill="none" stroke="#A9DBFF" stroke-dasharray="1.8985621762104885,108.04251318898439" stroke-dashoffset="109.941075" stroke-linecap="round" stroke-linejoin="round" d="M5.5 9.5h-4s1 4 4 3l-3.5 4s1.5 2 3.5 1v4s2 2 5.5 2 5.5-2 5.5-2l-1.069-3.476c-.231.851-1.008 1.476-1.931 1.476-1.105 0-2-.895-2-2s.895-2 2-2c.497 0 .952.181 1.302.482L14.5 15c1.228-.921 1.702-1.277 2.233-1.414.333-.086.688-.086 1.267-.086h2.5c.768 0 2.444 0 2.89-2.569l-6.142-.384c-.42-.026-.748-.375-.748-.797 0-.422.328-.77.748-.797l6.211-.388C23.209 5.908 21.855 5.5 20.5 5.5h-11c-2.209 0-4 1.791-4 4V1.8l2.495 3.993" clip-path="url(#d)"/></g><g transform="translate(96)"><defs><clipPath id="e"><path d="M24 0H0v24h24V0zM11.206 16.505c-.133.304-.206.641-.206.995s.073.69.206.995l-1.026.718c-.497.348-1.18-.007-1.18-.614v-2.198c0-.607.683-.963 1.18-.615l1.026.719zM15 17.5c0 .828-.672 1.5-1.5 1.5s-1.5-.672-1.5-1.5.672-1.5 1.5-1.5 1.5.672 1.5 1.5zm1 0c0-.354-.073-.691-.206-.995l1.026-.719c.497-.348 1.18.008 1.18.615v2.198c0 .607-.683.962-1.18.614l-.614-.429-.412-.289c.068-.157.121-.323.156-.495.033-.162.05-.329.05-.5z"/></clipPath></defs><path fill="none" stroke="#A9DBFF" stroke-dasharray="3.6061468436627546,106.33492852153212" stroke-dashoffset="109.941075" stroke-linecap="round" stroke-linejoin="round" d="M5.5 9.5h-4s1 4 4 3l-3.5 4s1.5 2 3.5 1v4s2 2 5.5 2 5.5-2 5.5-2l-1.069-3.476c-.231.851-1.008 1.476-1.931 1.476-1.105 0-2-.895-2-2s.895-2 2-2c.497 0 .952.181 1.302.482L14.5 15c1.228-.921 1.702-1.277 2.233-1.414.333-.086.688-.086 1.267-.086h2.5c.768 0 2.444 0 2.89-2.569l-6.142-.384c-.42-.026-.748-.375-.748-.797 0-.422.328-.77.748-.797l6.211-.388C23.209 5.908 21.855 5.5 20.5 5.5h-11c-2.209 0-4 1.791-4 4V1.8l2.495 3.993" clip-path="url(#e)"/></g><g transform="translate(120)"><defs><clipPath id="f"><path d="M24 0H0v24h24V0zM11.206 16.505c-.133.304-.206.641-.206.995s.073.69.206.995l-1.026.718c-.497.348-1.18-.007-1.18-.614v-2.198c0-.607.683-.963 1.18-.615l1.026.719zM15 17.5c0 .828-.672 1.5-1.5 1.5s-1.5-.672-1.5-1.5.672-1.5 1.5-1.5 1.5.672 1.5 1.5zm1 0c0-.354-.073-.691-.206-.995l1.026-.719c.497-.348 1.18.008 1.18.615v2.198c0 .607-.683.962-1.18.614l-.614-.429-.412-.289c.068-.157.121-.323.156-.495.033-.162.05-.329.05-.5z"/></clipPath></defs><path fill="none" stroke="#A9DBFF" stroke-dasharray="6.041743104730401,103.89933226046448" stroke-dashoffset="109.941075" stroke-linecap="round" stroke-linejoin="round" d="M5.5 9.5h-4s1 4 4 3l-3.5 4s1.5 2 3.5 1v4s2 2 5.5 2 5.5-2 5.5-2l-1.069-3.476c-.231.851-1.008 1.476-1.931 1.476-1.105 0-2-.895-2-2s.895-2 2-2c.497 0 .952.181 1.302.482L14.5 15c1.228-.921 1.702-1.277 2.233-1.414.333-.086.688-.086 1.267-.086h2.5c.768 0 2.444 0 2.89-2.569l-6.142-.384c-.42-.026-.748-.375-.748-.797 0-.422.328-.77.748-.797l6.211-.388C23.209 5.908 21.855 5.5 20.5 5.5h-11c-2.209 0-4 1.791-4 4V1.8l2.495 3.993" clip-path="url(#f)"/></g><g transform="translate(144)"><defs><clipPath id="g"><path d="M24 0H0v24h24V0zM11.206 16.505c-.133.304-.206.641-.206.995s.073.69.206.995l-1.026.718c-.497.348-1.18-.007-1.18-.614v-2.198c0-.607.683-.963 1.18-.615l1.026.719zM15 17.5c0 .828-.672 1.5-1.5 1.5s-1.5-.672-1.5-1.5.672-1.5 1.5-1.5 1.5.672 1.5 1.5zm1 0c0-.354-.073-.691-.206-.995l1.026-.719c.497-.348 1.18.008 1.18.615v2.198c0 .607-.683.962-1.18.614l-.614-.429-.412-.289c.068-.157.121-.323.156-.495.033-.162.05-.329.05-.5z"/></clipPath></defs><path fill="none" stroke="#A9DBFF" stroke-dasharray="9.356588167187144,100.58448719800774" stroke-dashoffset="109.941075" stroke-linecap="round" stroke-linejoin="round" d="M5.5 9.5h-4s1 4 4 3l-3.5 4s1.5 2 3.5 1v4s2 2 5.5 2 5.5-2 5.5-2l-1.069-3.476c-.231.851-1.008 1.476-1.931 1.476-1.105 0-2-.895-2-2s.895-2 2-2c.497 0 .952.181 1.302.482L14.5 15c1.228-.921 1.702-1.277 2.233-1.414.333-.086.688-.086 1.267-.086h2.5c.768 0 2.444 0 2.89-2.569l-6.142-.384c-.42-.026-.748-.375-.748-.797 0-.422.328-.77.748-.797l6.211-.388C23.209 5.908 21.855 5.5 20.5 5.5h-11c-2.209 0-4 1.791-4 4V1.8l2.495 3.993" clip-path="url(#g)"/></g><g transform="translate(168)"><defs><clipPath id="h"><path d="M24 0H0v24h24V0zM11.206 16.505c-.133.304-.206.641-.206.995s.073.69.206.995l-1.026.718c-.497.348-1.18-.007-1.18-.614v-2.198c0-.607.683-.963 1.18-.615l1.026.719zM15 17.5c0 .828-.672 1.5-1.5 1.5s-1.5-.672-1.5-1.5.672-1.5 1.5-1.5 1.5.672 1.5 1.5zm1 0c0-.354-.073-.691-.206-.995l1.026-.719c.497-.348 1.18.008 1.18.615v2.198c0 .607-.683.962-1.18.614l-.614-.429-.412-.289c.068-.157.121-.323.156-.495.033-.162.05-.329.05-.5z"/></clipPath></defs><path fill="none" stroke="#A9DBFF" stroke-dasharray="13.715630480969875,96.225444884225" stroke-dashoffset="109.941075" stroke-linecap="round" stroke-linejoin="round" d="M5.5 9.5h-4s1 4 4 3l-3.5 4s1.5 2 3.5 1v4s2 2 5.5 2 5.5-2 5.5-2l-1.069-3.476c-.231.851-1.008 1.476-1.931 1.476-1.105 0-2-.895-2-2s.895-2 2-2c.497 0 .952.181 1.302.482L14.5 15c1.228-.921 1.702-1.277 2.233-1.414.333-.086.688-.086 1.267-.086h2.5c.768 0 2.444 0 2.89-2.569l-6.142-.384c-.42-.026-.748-.375-.748-.797 0-.422.328-.77.748-.797l6.211-.388C23.209 5.908 21.855 5.5 20.5 5.5h-11c-2.209 0-4 1.791-4 4V1.8l2.495 3.993" clip-path="url(#h)"/></g><g transform="translate(192)"><defs><clipPath id="i"><path d="M24 0H0v24h24V0zM11.206 16.505c-.133.304-.206.641-.206.995s.073.69.206.995l-1.026.718c-.497.348-1.18-.007-1.18-.614v-2.198c0-.607.683-.963 1.18-.615l1.026.719zM15 17.5c0 .828-.672 1.5-1.5 1.5s-1.5-.672-1.5-1.5.672-1.5 1.5-1.5 1.5.672 1.5 1.5zm1 0c0-.354-.073-.691-.206-.995l1.026-.719c.497-.348 1.18.008 1.18.615v2.198c0 .607-.683.962-1.18.614l-.614-.429-.412-.289c.068-.157.121-.323.156-.495.033-.162.05-.329.05-.5z"/></clipPath></defs><path fill="none" stroke="#A9DBFF" stroke-dasharray="19.258191001396707,90.68288436379817" stroke-dashoffset="109.941075" stroke-linecap="round" stroke-linejoin="round" d="M5.5 9.5h-4s1 4 4 3l-3.5 4s1.5 2 3.5 1v4s2 2 5.5 2 5.5-2 5.5-2l-1.069-3.476c-.231.851-1.008 1.476-1.931 1.476-1.105 0-2-.895-2-2s.895-2 2-2c.497 0 .952.181 1.302.482L14.5 15c1.228-.921 1.702-1.277 2.233-1.414.333-.086.688-.086 1.267-.086h2.5c.768 0 2.444 0 2.89-2.569l-6.142-.384c-.42-.026-.748-.375-.748-.797 0-.422.328-.77.748-.797l6.211-.388C23.209 5.908 21.855 5.5 20.5 5.5h-11c-2.209 0-4 1.791-4 4V1.8l2.495 3.993" clip-path="url(#i)"/></g><g transform="translate(216)"><defs><clipPath id="j"><path d="M24 0H0v24h24V0zM11.206 16.505c-.133.304-.206.641-.206.995s.073.69.206.995l-1.026.718c-.497.348-1.18-.007-1.18-.614v-2.198c0-.607.683-.963 1.18-.615l1.026.719zM15 17.5c0 .828-.672 1.5-1.5 1.5s-1.5-.672-1.5-1.5.672-1.5 1.5-1.5 1.5.672 1.5 1.5zm1 0c0-.354-.073-.691-.206-.995l1.026-.719c.497-.348 1.18.008 1.18.615v2.198c0 .607-.683.962-1.18.614l-.614-.429-.412-.289c.068-.157.121-.323.156-.495.033-.162.05-.329.05-.5z"/></clipPath></defs><path fill="none" stroke="#A9DBFF" stroke-dasharray="26.010668827640885,83.93040653755399" stroke-dashoffset="109.941075" stroke-linecap="round" stroke-linejoin="round" d="M5.5 9.5h-4s1 4 4 3l-3.5 4s1.5 2 3.5 1v4s2 2 5.5 2 5.5-2 5.5-2l-1.069-3.476c-.231.851-1.008 1.476-1.931 1.476-1.105 0-2-.895-2-2s.895-2 2-2c.497 0 .952.181 1.302.482L14.5 15c1.228-.921 1.702-1.277 2.233-1.414.333-.086.688-.086 1.267-.086h2.5c.768 0 2.444 0 2.89-2.569l-6.142-.384c-.42-.026-.748-.375-.748-.797 0-.422.328-.77.748-.797l6.211-.388C23.209 5.908 21.855 5.5 20.5 5.5h-11c-2.209 0-4 1.791-4 4V1.8l2.495 3.993" clip-path="url(#j)"/></g><g transform="translate(240)"><defs><clipPath id="k"><path d="M24 0H0v24h24V0zM11.206 16.505c-.133.304-.206.641-.206.995s.073.69.206.995l-1.026.718c-.497.348-1.18-.007-1.18-.614v-2.198c0-.607.683-.963 1.18-.615l1.026.719zM15 17.5c0 .828-.672 1.5-1.5 1.5s-1.5-.672-1.5-1.5.672-1.5 1.5-1.5 1.5.672 1.5 1.5zm1 0c0-.354-.073-.691-.206-.995l1.026-.719c.497-.348 1.18.008 1.18.615v2.198c0 .607-.683.962-1.18.614l-.614-.429-.412-.289c.068-.157.121-.323.156-.495.033-.162.05-.329.05-.5z"/></clipPath><clipPath id="l"><path d="M24 0H0v24h24V0zM11.206 16.505c-.133.304-.206.641-.206.995s.073.69.206.995l-1.026.718c-.497.348-1.18-.007-1.18-.614v-2.198c0-.607.683-.963 1.18-.615l1.026.719zM15 17.5c0 .828-.672 1.5-1.5 1.5s-1.5-.672-1.5-1.5.672-1.5 1.5-1.5 1.5.672 1.5 1.5zm1 0c0-.354-.073-.691-.206-.995l1.026-.719c.497-.348 1.18.008 1.18.615v2.198c0 .607-.683.962-1.18.614l-.614-.429-.412-.289c.068-.157.121-.323.156-.495.033-.162.05-.329.05-.5z"/></clipPath></defs><path fill="none" stroke="#A9DBFF" stroke-dasharray="33.767331579015895,76.17374378617897" stroke-dashoffset="109.941075" stroke-linecap="round" stroke-linejoin="round" d="M5.5 9.5h-4s1 4 4 3l-3.5 4s1.5 2 3.5 1v4s2 2 5.5 2 5.5-2 5.5-2l-1.069-3.476c-.231.851-1.008 1.476-1.931 1.476-1.105 0-2-.895-2-2s.895-2 2-2c.497 0 .952.181 1.302.482L14.5 15c1.228-.921 1.702-1.277 2.233-1.414.333-.086.688-.086 1.267-.086h2.5c.768 0 2.444 0 2.89-2.569l-6.142-.384c-.42-.026-.748-.375-.748-.797 0-.422.328-.77.748-.797l6.211-.388C23.209 5.908 21.855 5.5 20.5 5.5h-11c-2.209 0-4 1.791-4 4V1.8l2.495 3.993" clip-path="url(#k)"/><path stroke="#A9DBFF" stroke-dasharray="1.2175905710873534,3.782409428912646" stroke-dashoffset="5" d="M5.5 17.5v-5" clip-path="url(#l)"/></g><g transform="translate(264)"><defs><clipPath id="m"><path d="M24 0H0v24h24V0zM11.206 16.505c-.133.304-.206.641-.206.995s.073.69.206.995l-1.026.718c-.497.348-1.18-.007-1.18-.614v-2.198c0-.607.683-.963 1.18-.615l1.026.719zM15 17.5c0 .828-.672 1.5-1.5 1.5s-1.5-.672-1.5-1.5.672-1.5 1.5-1.5 1.5.672 1.5 1.5zm1 0c0-.354-.073-.691-.206-.995l1.026-.719c.497-.348 1.18.008 1.18.615v2.198c0 .607-.683.962-1.18.614l-.614-.429-.412-.289c.068-.157.121-.323.156-.495.033-.162.05-.329.05-.5z"/></clipPath><clipPath id="n"><path d="M24 0H0v24h24V0zM11.206 16.505c-.133.304-.206.641-.206.995s.073.69.206.995l-1.026.718c-.497.348-1.18-.007-1.18-.614v-2.198c0-.607.683-.963 1.18-.615l1.026.719zM15 17.5c0 .828-.672 1.5-1.5 1.5s-1.5-.672-1.5-1.5.672-1.5 1.5-1.5 1.5.672 1.5 1.5zm1 0c0-.354-.073-.691-.206-.995l1.026-.719c.497-.348 1.18.008 1.18.615v2.198c0 .607-.683.962-1.18.614l-.614-.429-.412-.289c.068-.157.121-.323.156-.495.033-.162.05-.329.05-.5z"/></clipPath><clipPath id="o"><path d="M24 0H0v24h24V0zM11.206 16.505c-.133.304-.206.641-.206.995s.073.69.206.995l-1.026.718c-.497.348-1.18-.007-1.18-.614v-2.198c0-.607.683-.963 1.18-.615l1.026.719zM15 17.5c0 .828-.672 1.5-1.5 1.5s-1.5-.672-1.5-1.5.672-1.5 1.5-1.5 1.5.672 1.5 1.5zm1 0c0-.354-.073-.691-.206-.995l1.026-.719c.497-.348 1.18.008 1.18.615v2.198c0 .607-.683.962-1.18.614l-.614-.429-.412-.289c.068-.157.121-.323.156-.495.033-.162.05-.329.05-.5z"/></clipPath><clipPath id="p"><path d="M24 0H0v24h24V0zM11.206 16.505c-.133.304-.206.641-.206.995s.073.69.206.995l-1.026.718c-.497.348-1.18-.007-1.18-.614v-2.198c0-.607.683-.963 1.18-.615l1.026.719zM15 17.5c0 .828-.672 1.5-1.5 1.5s-1.5-.672-1.5-1.5.672-1.5 1.5-1.5 1.5.672 1.5 1.5zm1 0c0-.354-.073-.691-.206-.995l1.026-.719c.497-.348 1.18.008 1.18.615v2.198c0 .607-.683.962-1.18.614l-.614-.429-.412-.289c.068-.157.121-.323.156-.495.033-.162.05-.329.05-.5z"/></clipPath></defs><path stroke="#A9DBFF" stroke-dasharray="0.5231298038458827,2.092763924882408" stroke-dashoffset=".52313" stroke-linecap="square" stroke-linejoin="round" d="m14.961 16.5.77 2.5"/><path fill="none" stroke="#A9DBFF" stroke-dasharray="0,26.441161175933534" stroke-dashoffset="26.441161" d="m12 16.45-1.533-1.073c-.829-.58-1.967.013-1.967 1.024v2.198c0 1.011 1.138 1.604 1.967 1.024l6.066-4.246c.829-.58 1.967.013 1.967 1.024v2.198c0 1.011-1.138 1.604-1.967 1.024l-1.516-1.061" clip-path="url(#m)"/><path fill="none" stroke="#A9DBFF" stroke-dasharray="42.050876029934,67.89019933526087" stroke-dashoffset="109.941075" stroke-linecap="round" stroke-linejoin="round" d="M5.5 9.5h-4s1 4 4 3l-3.5 4s1.5 2 3.5 1v4s2 2 5.5 2 5.5-2 5.5-2l-1.069-3.476c-.231.851-1.008 1.476-1.931 1.476-1.105 0-2-.895-2-2s.895-2 2-2c.497 0 .952.181 1.302.482L14.5 15c1.228-.921 1.702-1.277 2.233-1.414.333-.086.688-.086 1.267-.086h2.5c.768 0 2.444 0 2.89-2.569l-6.142-.384c-.42-.026-.748-.375-.748-.797 0-.422.328-.77.748-.797l6.211-.388C23.209 5.908 21.855 5.5 20.5 5.5h-11c-2.209 0-4 1.791-4 4V1.8l2.495 3.993" clip-path="url(#n)"/><path stroke="#A9DBFF" stroke-dasharray="2.7157635487357523,2.2842364512642477" stroke-dashoffset="5" d="M5.5 17.5v-5" clip-path="url(#o)"/><path fill="none" stroke="#A9DBFF" stroke-dasharray="0,2.581182548931822" stroke-dashoffset="2.581183" stroke-linecap="round" stroke-linejoin="round" d="M15.137 16.351c.229.325.363.721.363 1.149 0 .475-.166.912-.443 1.255" clip-path="url(#p)"/></g><g transform="translate(288)"><defs><clipPath id="q"><path d="M24 0H0v24h24V0zM11.206 16.505c-.133.304-.206.641-.206.995s.073.69.206.995l-1.026.718c-.497.348-1.18-.007-1.18-.614v-2.198c0-.607.683-.963 1.18-.615l1.026.719zM15 17.5c0 .828-.672 1.5-1.5 1.5s-1.5-.672-1.5-1.5.672-1.5 1.5-1.5 1.5.672 1.5 1.5zm1 0c0-.354-.073-.691-.206-.995l1.026-.719c.497-.348 1.18.008 1.18.615v2.198c0 .607-.683.962-1.18.614l-.614-.429-.412-.289c.068-.157.121-.323.156-.495.033-.162.05-.329.05-.5z"/></clipPath><clipPath id="r"><path d="M24 0H0v24h24V0zM11.206 16.505c-.133.304-.206.641-.206.995s.073.69.206.995l-1.026.718c-.497.348-1.18-.007-1.18-.614v-2.198c0-.607.683-.963 1.18-.615l1.026.719zM15 17.5c0 .828-.672 1.5-1.5 1.5s-1.5-.672-1.5-1.5.672-1.5 1.5-1.5 1.5.672 1.5 1.5zm1 0c0-.354-.073-.691-.206-.995l1.026-.719c.497-.348 1.18.008 1.18.615v2.198c0 .607-.683.962-1.18.614l-.614-.429-.412-.289c.068-.157.121-.323.156-.495.033-.162.05-.329.05-.5z"/></clipPath><clipPath id="s"><path d="M24 0H0v24h24V0zM11.206 16.505c-.133.304-.206.641-.206.995s.073.69.206.995l-1.026.718c-.497.348-1.18-.007-1.18-.614v-2.198c0-.607.683-.963 1.18-.615l1.026.719zM15 17.5c0 .828-.672 1.5-1.5 1.5s-1.5-.672-1.5-1.5.672-1.5 1.5-1.5 1.5.672 1.5 1.5zm1 0c0-.354-.073-.691-.206-.995l1.026-.719c.497-.348 1.18.008 1.18.615v2.198c0 .607-.683.962-1.18.614l-.614-.429-.412-.289c.068-.157.121-.323.156-.495.033-.162.05-.329.05-.5z"/></clipPath><clipPath id="t"><path d="M24 0H0v24h24V0zM11.206 16.505c-.133.304-.206.641-.206.995s.073.69.206.995l-1.026.718c-.497.348-1.18-.007-1.18-.614v-2.198c0-.607.683-.963 1.18-.615l1.026.719zM15 17.5c0 .828-.672 1.5-1.5 1.5s-1.5-.672-1.5-1.5.672-1.5 1.5-1.5 1.5.672 1.5 1.5zm1 0c0-.354-.073-.691-.206-.995l1.026-.719c.497-.348 1.18.008 1.18.615v2.198c0 .607-.683.962-1.18.614l-.614-.429-.412-.289c.068-.157.121-.323.156-.495.033-.162.05-.329.05-.5z"/></clipPath></defs><path stroke="#A9DBFF" stroke-dasharray="0.523178745745658,2.0927149829826326" stroke-dashoffset=".523179" stroke-linecap="square" stroke-linejoin="round" d="m14.961 16.5.77 2.5"/><path fill="none" stroke="#A9DBFF" stroke-dasharray="0.18391582881410465,26.25724534711943" stroke-dashoffset="26.441161" d="m12 16.45-1.533-1.073c-.829-.58-1.967.013-1.967 1.024v2.198c0 1.011 1.138 1.604 1.967 1.024l6.066-4.246c.829-.58 1.967.013 1.967 1.024v2.198c0 1.011-1.138 1.604-1.967 1.024l-1.516-1.061" clip-path="url(#q)"/><path fill="none" stroke="#A9DBFF" stroke-dasharray="50.27074798807315,59.67032737712173" stroke-dashoffset="109.941075" stroke-linecap="round" stroke-linejoin="round" d="M5.5 9.5h-4s1 4 4 3l-3.5 4s1.5 2 3.5 1v4s2 2 5.5 2 5.5-2 5.5-2l-1.069-3.476c-.231.851-1.008 1.476-1.931 1.476-1.105 0-2-.895-2-2s.895-2 2-2c.497 0 .952.181 1.302.482L14.5 15c1.228-.921 1.702-1.277 2.233-1.414.333-.086.688-.086 1.267-.086h2.5c.768 0 2.444 0 2.89-2.569l-6.142-.384c-.42-.026-.748-.375-.748-.797 0-.422.328-.77.748-.797l6.211-.388C23.209 5.908 21.855 5.5 20.5 5.5h-11c-2.209 0-4 1.791-4 4V1.8l2.495 3.993" clip-path="url(#r)"/><path stroke="#A9DBFF" stroke-dasharray="3.764456298047368,1.2355437019526316" stroke-dashoffset="5" d="M5.5 17.5v-5" clip-path="url(#s)"/><path fill="none" stroke="#A9DBFF" stroke-linecap="round" stroke-linejoin="round" d="M15.137 16.351c.229.325.363.721.363 1.149 0 .475-.166.912-.443 1.255" clip-path="url(#t)"/></g><g transform="translate(312)"><defs><clipPath id="u"><path d="M24 0H0v24h24V0zM11.206 16.505c-.133.304-.206.641-.206.995s.073.69.206.995l-1.026.718c-.497.348-1.18-.007-1.18-.614v-2.198c0-.607.683-.963 1.18-.615l1.026.719zM15 17.5c0 .828-.672 1.5-1.5 1.5s-1.5-.672-1.5-1.5.672-1.5 1.5-1.5 1.5.672 1.5 1.5zm1 0c0-.354-.073-.691-.206-.995l1.026-.719c.497-.348 1.18.008 1.18.615v2.198c0 .607-.683.962-1.18.614l-.614-.429-.412-.289c.068-.157.121-.323.156-.495.033-.162.05-.329.05-.5z"/></clipPath><clipPath id="v"><path d="M24 0H0v24h24V0zM11.206 16.505c-.133.304-.206.641-.206.995s.073.69.206.995l-1.026.718c-.497.348-1.18-.007-1.18-.614v-2.198c0-.607.683-.963 1.18-.615l1.026.719zM15 17.5c0 .828-.672 1.5-1.5 1.5s-1.5-.672-1.5-1.5.672-1.5 1.5-1.5 1.5.672 1.5 1.5zm1 0c0-.354-.073-.691-.206-.995l1.026-.719c.497-.348 1.18.008 1.18.615v2.198c0 .607-.683.962-1.18.614l-.614-.429-.412-.289c.068-.157.121-.323.156-.495.033-.162.05-.329.05-.5z"/></clipPath><clipPath id="w"><path d="M24 0H0v24h24V0zM11.206 16.505c-.133.304-.206.641-.206.995s.073.69.206.995l-1.026.718c-.497.348-1.18-.007-1.18-.614v-2.198c0-.607.683-.963 1.18-.615l1.026.719zM15 17.5c0 .828-.672 1.5-1.5 1.5s-1.5-.672-1.5-1.5.672-1.5 1.5-1.5 1.5.672 1.5 1.5zm1 0c0-.354-.073-.691-.206-.995l1.026-.719c.497-.348 1.18.008 1.18.615v2.198c0 .607-.683.962-1.18.614l-.614-.429-.412-.289c.068-.157.121-.323.156-.495.033-.162.05-.329.05-.5z"/></clipPath><clipPath id="x"><path d="M24 0H0v24h24V0zM11.206 16.505c-.133.304-.206.641-.206.995s.073.69.206.995l-1.026.718c-.497.348-1.18-.007-1.18-.614v-2.198c0-.607.683-.963 1.18-.615l1.026.719zM15 17.5c0 .828-.672 1.5-1.5 1.5s-1.5-.672-1.5-1.5.672-1.5 1.5-1.5 1.5.672 1.5 1.5zm1 0c0-.354-.073-.691-.206-.995l1.026-.719c.497-.348 1.18.008 1.18.615v2.198c0 .607-.683.962-1.18.614l-.614-.429-.412-.289c.068-.157.121-.323.156-.495.033-.162.05-.329.05-.5z"/></clipPath></defs><path stroke="#A9DBFF" stroke-dasharray="0.523178745745658,2.0927149829826326" stroke-dashoffset=".523179" stroke-linecap="square" stroke-linejoin="round" d="m14.961 16.5.77 2.5"/><path fill="none" stroke="#A9DBFF" stroke-dasharray="1.1287944890422716,25.312366686891263" stroke-dashoffset="26.441161" d="m12 16.45-1.533-1.073c-.829-.58-1.967.013-1.967 1.024v2.198c0 1.011 1.138 1.604 1.967 1.024l6.066-4.246c.829-.58 1.967.013 1.967 1.024v2.198c0 1.011-1.138 1.604-1.967 1.024l-1.516-1.061" clip-path="url(#u)"/><path fill="none" stroke="#A9DBFF" stroke-dasharray="57.9660387847842,51.97503658041067" stroke-dashoffset="109.941075" stroke-linecap="round" stroke-linejoin="round" d="M5.5 9.5h-4s1 4 4 3l-3.5 4s1.5 2 3.5 1v4s2 2 5.5 2 5.5-2 5.5-2l-1.069-3.476c-.231.851-1.008 1.476-1.931 1.476-1.105 0-2-.895-2-2s.895-2 2-2c.497 0 .952.181 1.302.482L14.5 15c1.228-.921 1.702-1.277 2.233-1.414.333-.086.688-.086 1.267-.086h2.5c.768 0 2.444 0 2.89-2.569l-6.142-.384c-.42-.026-.748-.375-.748-.797 0-.422.328-.77.748-.797l6.211-.388C23.209 5.908 21.855 5.5 20.5 5.5h-11c-2.209 0-4 1.791-4 4V1.8l2.495 3.993" clip-path="url(#v)"/><path stroke="#A9DBFF" stroke-dasharray="4.370765195052584,0.6292348049474161" stroke-dashoffset="5" d="M5.5 17.5v-5" clip-path="url(#w)"/><path fill="none" stroke="#A9DBFF" stroke-linecap="round" stroke-linejoin="round" d="M15.137 16.351c.229.325.363.721.363 1.149 0 .475-.166.912-.443 1.255" clip-path="url(#x)"/></g><g transform="translate(336)"><defs><clipPath id="y"><path d="M24 0H0v24h24V0zM11.206 16.505c-.133.304-.206.641-.206.995s.073.69.206.995l-1.026.718c-.497.348-1.18-.007-1.18-.614v-2.198c0-.607.683-.963 1.18-.615l1.026.719zM15 17.5c0 .828-.672 1.5-1.5 1.5s-1.5-.672-1.5-1.5.672-1.5 1.5-1.5 1.5.672 1.5 1.5zm1 0c0-.354-.073-.691-.206-.995l1.026-.719c.497-.348 1.18.008 1.18.615v2.198c0 .607-.683.962-1.18.614l-.614-.429-.412-.289c.068-.157.121-.323.156-.495.033-.162.05-.329.05-.5z"/></clipPath><clipPath id="z"><path d="M24 0H0v24h24V0zM11.206 16.505c-.133.304-.206.641-.206.995s.073.69.206.995l-1.026.718c-.497.348-1.18-.007-1.18-.614v-2.198c0-.607.683-.963 1.18-.615l1.026.719zM15 17.5c0 .828-.672 1.5-1.5 1.5s-1.5-.672-1.5-1.5.672-1.5 1.5-1.5 1.5.672 1.5 1.5zm1 0c0-.354-.073-.691-.206-.995l1.026-.719c.497-.348 1.18.008 1.18.615v2.198c0 .607-.683.962-1.18.614l-.614-.429-.412-.289c.068-.157.121-.323.156-.495.033-.162.05-.329.05-.5z"/></clipPath><clipPath id="A"><path d="M24 0H0v24h24V0zM11.206 16.505c-.133.304-.206.641-.206.995s.073.69.206.995l-1.026.718c-.497.348-1.18-.007-1.18-.614v-2.198c0-.607.683-.963 1.18-.615l1.026.719zM15 17.5c0 .828-.672 1.5-1.5 1.5s-1.5-.672-1.5-1.5.672-1.5 1.5-1.5 1.5.672 1.5 1.5zm1 0c0-.354-.073-.691-.206-.995l1.026-.719c.497-.348 1.18.008 1.18.615v2.198c0 .607-.683.962-1.18.614l-.614-.429-.412-.289c.068-.157.121-.323.156-.495.033-.162.05-.329.05-.5z"/></clipPath><clipPath id="B"><path d="M24 0H0v24h24V0zM11.206 16.505c-.133.304-.206.641-.206.995s.073.69.206.995l-1.026.718c-.497.348-1.18-.007-1.18-.614v-2.198c0-.607.683-.963 1.18-.615l1.026.719zM15 17.5c0 .828-.672 1.5-1.5 1.5s-1.5-.672-1.5-1.5.672-1.5 1.5-1.5 1.5.672 1.5 1.5zm1 0c0-.354-.073-.691-.206-.995l1.026-.719c.497-.348 1.18.008 1.18.615v2.198c0 .607-.683.962-1.18.614l-.614-.429-.412-.289c.068-.157.121-.323.156-.495.033-.162.05-.329.05-.5z"/></clipPath></defs><path stroke="#A9DBFF" stroke-dasharray="0.523178745745658,2.0927149829826326" stroke-dashoffset=".523179" stroke-linecap="square" stroke-linejoin="round" d="m14.961 16.5.77 2.5"/><path fill="none" stroke="#A9DBFF" stroke-dasharray="3.308630839758317,23.13253033617522" stroke-dashoffset="26.441161" d="m12 16.45-1.533-1.073c-.829-.58-1.967.013-1.967 1.024v2.198c0 1.011 1.138 1.604 1.967 1.024l6.066-4.246c.829-.58 1.967.013 1.967 1.024v2.198c0 1.011-1.138 1.604-1.967 1.024l-1.516-1.061" clip-path="url(#y)"/><path fill="none" stroke="#A9DBFF" stroke-dasharray="64.90804505400669,45.03303031118819" stroke-dashoffset="109.941075" stroke-linecap="round" stroke-linejoin="round" d="M5.5 9.5h-4s1 4 4 3l-3.5 4s1.5 2 3.5 1v4s2 2 5.5 2 5.5-2 5.5-2l-1.069-3.476c-.231.851-1.008 1.476-1.931 1.476-1.105 0-2-.895-2-2s.895-2 2-2c.497 0 .952.181 1.302.482L14.5 15c1.228-.921 1.702-1.277 2.233-1.414.333-.086.688-.086 1.267-.086h2.5c.768 0 2.444 0 2.89-2.569l-6.142-.384c-.42-.026-.748-.375-.748-.797 0-.422.328-.77.748-.797l6.211-.388C23.209 5.908 21.855 5.5 20.5 5.5h-11c-2.209 0-4 1.791-4 4V1.8l2.495 3.993" clip-path="url(#z)"/><path stroke="#A9DBFF" stroke-dasharray="4.720654666823489,0.27934533317651056" stroke-dashoffset="5" d="M5.5 17.5v-5" clip-path="url(#A)"/><path fill="none" stroke="#A9DBFF" stroke-linecap="round" stroke-linejoin="round" d="M15.137 16.351c.229.325.363.721.363 1.149 0 .475-.166.912-.443 1.255" clip-path="url(#B)"/></g><g transform="translate(360)"><defs><clipPath id="C"><path d="M24 0H0v24h24V0zM11.206 16.505c-.133.304-.206.641-.206.995s.073.69.206.995l-1.026.718c-.497.348-1.18-.007-1.18-.614v-2.198c0-.607.683-.963 1.18-.615l1.026.719zM15 17.5c0 .828-.672 1.5-1.5 1.5s-1.5-.672-1.5-1.5.672-1.5 1.5-1.5 1.5.672 1.5 1.5zm1 0c0-.354-.073-.691-.206-.995l1.026-.719c.497-.348 1.18.008 1.18.615v2.198c0 .607-.683.962-1.18.614l-.614-.429-.412-.289c.068-.157.121-.323.156-.495.033-.162.05-.329.05-.5z"/></clipPath><clipPath id="D"><path d="M24 0H0v24h24V0zM11.206 16.505c-.133.304-.206.641-.206.995s.073.69.206.995l-1.026.718c-.497.348-1.18-.007-1.18-.614v-2.198c0-.607.683-.963 1.18-.615l1.026.719zM15 17.5c0 .828-.672 1.5-1.5 1.5s-1.5-.672-1.5-1.5.672-1.5 1.5-1.5 1.5.672 1.5 1.5zm1 0c0-.354-.073-.691-.206-.995l1.026-.719c.497-.348 1.18.008 1.18.615v2.198c0 .607-.683.962-1.18.614l-.614-.429-.412-.289c.068-.157.121-.323.156-.495.033-.162.05-.329.05-.5z"/></clipPath><clipPath id="E"><path d="M24 0H0v24h24V0zM11.206 16.505c-.133.304-.206.641-.206.995s.073.69.206.995l-1.026.718c-.497.348-1.18-.007-1.18-.614v-2.198c0-.607.683-.963 1.18-.615l1.026.719zM15 17.5c0 .828-.672 1.5-1.5 1.5s-1.5-.672-1.5-1.5.672-1.5 1.5-1.5 1.5.672 1.5 1.5zm1 0c0-.354-.073-.691-.206-.995l1.026-.719c.497-.348 1.18.008 1.18.615v2.198c0 .607-.683.962-1.18.614l-.614-.429-.412-.289c.068-.157.121-.323.156-.495.033-.162.05-.329.05-.5z"/></clipPath><clipPath id="F"><path d="M24 0H0v24h24V0zM11.206 16.505c-.133.304-.206.641-.206.995s.073.69.206.995l-1.026.718c-.497.348-1.18-.007-1.18-.614v-2.198c0-.607.683-.963 1.18-.615l1.026.719zM15 17.5c0 .828-.672 1.5-1.5 1.5s-1.5-.672-1.5-1.5.672-1.5 1.5-1.5 1.5.672 1.5 1.5zm1 0c0-.354-.073-.691-.206-.995l1.026-.719c.497-.348 1.18.008 1.18.615v2.198c0 .607-.683.962-1.18.614l-.614-.429-.412-.289c.068-.157.121-.323.156-.495.033-.162.05-.329.05-.5z"/></clipPath></defs><path stroke="#A9DBFF" stroke-dasharray="0.523178745745658,2.0927149829826326" stroke-dashoffset=".523179" stroke-linecap="square" stroke-linejoin="round" d="m14.961 16.5.77 2.5"/><path fill="none" stroke="#A9DBFF" stroke-dasharray="7.21914848827951,19.222012687654022" stroke-dashoffset="26.441161" d="m12 16.45-1.533-1.073c-.829-.58-1.967.013-1.967 1.024v2.198c0 1.011 1.138 1.604 1.967 1.024l6.066-4.246c.829-.58 1.967.013 1.967 1.024v2.198c0 1.011-1.138 1.604-1.967 1.024l-1.516-1.061" clip-path="url(#C)"/><path fill="none" stroke="#A9DBFF" stroke-dasharray="71.04899325958031,38.89208210561456" stroke-dashoffset="109.941075" stroke-linecap="round" stroke-linejoin="round" d="M5.5 9.5h-4s1 4 4 3l-3.5 4s1.5 2 3.5 1v4s2 2 5.5 2 5.5-2 5.5-2l-1.069-3.476c-.231.851-1.008 1.476-1.931 1.476-1.105 0-2-.895-2-2s.895-2 2-2c.497 0 .952.181 1.302.482L14.5 15c1.228-.921 1.702-1.277 2.233-1.414.333-.086.688-.086 1.267-.086h2.5c.768 0 2.444 0 2.89-2.569l-6.142-.384c-.42-.026-.748-.375-.748-.797 0-.422.328-.77.748-.797l6.211-.388C23.209 5.908 21.855 5.5 20.5 5.5h-11c-2.209 0-4 1.791-4 4V1.8l2.495 3.993" clip-path="url(#D)"/><path stroke="#A9DBFF" stroke-dasharray="4.9104784530111925,0.08952154698880721" stroke-dashoffset="5" d="M5.5 17.5v-5" clip-path="url(#E)"/><path fill="none" stroke="#A9DBFF" stroke-linecap="round" stroke-linejoin="round" d="M15.137 16.351c.229.325.363.721.363 1.149 0 .475-.166.912-.443 1.255" clip-path="url(#F)"/></g><g transform="translate(384)"><defs><clipPath id="G"><path d="M24 0H0v24h24V0zM11.206 16.505c-.133.304-.206.641-.206.995s.073.69.206.995l-1.026.718c-.497.348-1.18-.007-1.18-.614v-2.198c0-.607.683-.963 1.18-.615l1.026.719zM15 17.5c0 .828-.672 1.5-1.5 1.5s-1.5-.672-1.5-1.5.672-1.5 1.5-1.5 1.5.672 1.5 1.5zm1 0c0-.354-.073-.691-.206-.995l1.026-.719c.497-.348 1.18.008 1.18.615v2.198c0 .607-.683.962-1.18.614l-.614-.429-.412-.289c.068-.157.121-.323.156-.495.033-.162.05-.329.05-.5z"/></clipPath><clipPath id="H"><path d="M24 0H0v24h24V0zM11.206 16.505c-.133.304-.206.641-.206.995s.073.69.206.995l-1.026.718c-.497.348-1.18-.007-1.18-.614v-2.198c0-.607.683-.963 1.18-.615l1.026.719zM15 17.5c0 .828-.672 1.5-1.5 1.5s-1.5-.672-1.5-1.5.672-1.5 1.5-1.5 1.5.672 1.5 1.5zm1 0c0-.354-.073-.691-.206-.995l1.026-.719c.497-.348 1.18.008 1.18.615v2.198c0 .607-.683.962-1.18.614l-.614-.429-.412-.289c.068-.157.121-.323.156-.495.033-.162.05-.329.05-.5z"/></clipPath><clipPath id="I"><path d="M24 0H0v24h24V0zM11.206 16.505c-.133.304-.206.641-.206.995s.073.69.206.995l-1.026.718c-.497.348-1.18-.007-1.18-.614v-2.198c0-.607.683-.963 1.18-.615l1.026.719zM15 17.5c0 .828-.672 1.5-1.5 1.5s-1.5-.672-1.5-1.5.672-1.5 1.5-1.5 1.5.672 1.5 1.5zm1 0c0-.354-.073-.691-.206-.995l1.026-.719c.497-.348 1.18.008 1.18.615v2.198c0 .607-.683.962-1.18.614l-.614-.429-.412-.289c.068-.157.121-.323.156-.495.033-.162.05-.329.05-.5z"/></clipPath><clipPath id="J"><path d="M24 0H0v24h24V0zM11.206 16.505c-.133.304-.206.641-.206.995s.073.69.206.995l-1.026.718c-.497.348-1.18-.007-1.18-.614v-2.198c0-.607.683-.963 1.18-.615l1.026.719zM15 17.5c0 .828-.672 1.5-1.5 1.5s-1.5-.672-1.5-1.5.672-1.5 1.5-1.5 1.5.672 1.5 1.5zm1 0c0-.354-.073-.691-.206-.995l1.026-.719c.497-.348 1.18.008 1.18.615v2.198c0 .607-.683.962-1.18.614l-.614-.429-.412-.289c.068-.157.121-.323.156-.495.033-.162.05-.329.05-.5z"/></clipPath></defs><path stroke="#A9DBFF" stroke-dasharray="0.523178745745658,2.0927149829826326" stroke-dashoffset=".523179" stroke-linecap="square" stroke-linejoin="round" d="m14.961 16.5.77 2.5"/><path fill="none" stroke="#A9DBFF" stroke-dasharray="12.18729088616398,14.253870289769552" stroke-dashoffset="26.441161" d="m12 16.45-1.533-1.073c-.829-.58-1.967.013-1.967 1.024v2.198c0 1.011 1.138 1.604 1.967 1.024l6.066-4.246c.829-.58 1.967.013 1.967 1.024v2.198c0 1.011-1.138 1.604-1.967 1.024l-1.516-1.061" clip-path="url(#G)"/><path fill="none" stroke="#A9DBFF" stroke-dasharray="76.43486590195003,33.50620946324484" stroke-dashoffset="109.941075" stroke-linecap="round" stroke-linejoin="round" d="M5.5 9.5h-4s1 4 4 3l-3.5 4s1.5 2 3.5 1v4s2 2 5.5 2 5.5-2 5.5-2l-1.069-3.476c-.231.851-1.008 1.476-1.931 1.476-1.105 0-2-.895-2-2s.895-2 2-2c.497 0 .952.181 1.302.482L14.5 15c1.228-.921 1.702-1.277 2.233-1.414.333-.086.688-.086 1.267-.086h2.5c.768 0 2.444 0 2.89-2.569l-6.142-.384c-.42-.026-.748-.375-.748-.797 0-.422.328-.77.748-.797l6.211-.388C23.209 5.908 21.855 5.5 20.5 5.5h-11c-2.209 0-4 1.791-4 4V1.8l2.495 3.993" clip-path="url(#H)"/><path stroke="#A9DBFF" stroke-dasharray="4.991000168007792,0.008999831992207441" stroke-dashoffset="5" d="M5.5 17.5v-5" clip-path="url(#I)"/><path fill="none" stroke="#A9DBFF" stroke-linecap="round" stroke-linejoin="round" d="M15.137 16.351c.229.325.363.721.363 1.149 0 .475-.166.912-.443 1.255" clip-path="url(#J)"/></g><g transform="translate(408)"><defs><clipPath id="K"><path d="M24 0H0v24h24V0zM11.206 16.505c-.133.304-.206.641-.206.995s.073.69.206.995l-1.026.718c-.497.348-1.18-.007-1.18-.614v-2.198c0-.607.683-.963 1.18-.615l1.026.719zM15 17.5c0 .828-.672 1.5-1.5 1.5s-1.5-.672-1.5-1.5.672-1.5 1.5-1.5 1.5.672 1.5 1.5zm1 0c0-.354-.073-.691-.206-.995l1.026-.719c.497-.348 1.18.008 1.18.615v2.198c0 .607-.683.962-1.18.614l-.614-.429-.412-.289c.068-.157.121-.323.156-.495.033-.162.05-.329.05-.5z"/></clipPath><clipPath id="L"><path d="M24 0H0v24h24V0zM11.206 16.505c-.133.304-.206.641-.206.995s.073.69.206.995l-1.026.718c-.497.348-1.18-.007-1.18-.614v-2.198c0-.607.683-.963 1.18-.615l1.026.719zM15 17.5c0 .828-.672 1.5-1.5 1.5s-1.5-.672-1.5-1.5.672-1.5 1.5-1.5 1.5.672 1.5 1.5zm1 0c0-.354-.073-.691-.206-.995l1.026-.719c.497-.348 1.18.008 1.18.615v2.198c0 .607-.683.962-1.18.614l-.614-.429-.412-.289c.068-.157.121-.323.156-.495.033-.162.05-.329.05-.5z"/></clipPath><clipPath id="M"><path d="M24 0H0v24h24V0zM11.206 16.505c-.133.304-.206.641-.206.995s.073.69.206.995l-1.026.718c-.497.348-1.18-.007-1.18-.614v-2.198c0-.607.683-.963 1.18-.615l1.026.719zM15 17.5c0 .828-.672 1.5-1.5 1.5s-1.5-.672-1.5-1.5.672-1.5 1.5-1.5 1.5.672 1.5 1.5zm1 0c0-.354-.073-.691-.206-.995l1.026-.719c.497-.348 1.18.008 1.18.615v2.198c0 .607-.683.962-1.18.614l-.614-.429-.412-.289c.068-.157.121-.323.156-.495.033-.162.05-.329.05-.5z"/></clipPath><clipPath id="N"><path d="M24 0H0v24h24V0zM11.206 16.505c-.133.304-.206.641-.206.995s.073.69.206.995l-1.026.718c-.497.348-1.18-.007-1.18-.614v-2.198c0-.607.683-.963 1.18-.615l1.026.719zM15 17.5c0 .828-.672 1.5-1.5 1.5s-1.5-.672-1.5-1.5.672-1.5 1.5-1.5 1.5.672 1.5 1.5zm1 0c0-.354-.073-.691-.206-.995l1.026-.719c.497-.348 1.18.008 1.18.615v2.198c0 .607-.683.962-1.18.614l-.614-.429-.412-.289c.068-.157.121-.323.156-.495.033-.162.05-.329.05-.5z"/></clipPath></defs><path fill="none" stroke="#A9DBFF" stroke-dasharray="0.06295137928242248,4.649727823584553" stroke-dashoffset="2.387815" d="M13.5 10c0-.828-.672-1.5-1.5-1.5s-1.5.672-1.5 1.5"/><path stroke="#A9DBFF" stroke-dasharray="0.523178745745658,2.0927149829826326" stroke-dashoffset=".523179" stroke-linecap="square" stroke-linejoin="round" d="m14.961 16.5.77 2.5"/><path fill="none" stroke="#A9DBFF" stroke-dasharray="16.47772097523699,9.963440200696544" stroke-dashoffset="26.441161" d="m12 16.45-1.533-1.073c-.829-.58-1.967.013-1.967 1.024v2.198c0 1.011 1.138 1.604 1.967 1.024l6.066-4.246c.829-.58 1.967.013 1.967 1.024v2.198c0 1.011-1.138 1.604-1.967 1.024l-1.516-1.061" clip-path="url(#K)"/><path fill="none" stroke="#A9DBFF" stroke-dasharray="81.14568170779874,28.795393657396133" stroke-dashoffset="109.941075" stroke-linecap="round" stroke-linejoin="round" d="M5.5 9.5h-4s1 4 4 3l-3.5 4s1.5 2 3.5 1v4s2 2 5.5 2 5.5-2 5.5-2l-1.069-3.476c-.231.851-1.008 1.476-1.931 1.476-1.105 0-2-.895-2-2s.895-2 2-2c.497 0 .952.181 1.302.482L14.5 15c1.228-.921 1.702-1.277 2.233-1.414.333-.086.688-.086 1.267-.086h2.5c.768 0 2.444 0 2.89-2.569l-6.142-.384c-.42-.026-.748-.375-.748-.797 0-.422.328-.77.748-.797l6.211-.388C23.209 5.908 21.855 5.5 20.5 5.5h-11c-2.209 0-4 1.791-4 4V1.8l2.495 3.993" clip-path="url(#L)"/><path stroke="#A9DBFF" d="M5.5 17.5v-5" clip-path="url(#M)"/><path fill="none" stroke="#A9DBFF" stroke-linecap="round" stroke-linejoin="round" d="M15.137 16.351c.229.325.363.721.363 1.149 0 .475-.166.912-.443 1.255" clip-path="url(#N)"/></g><g transform="translate(432)"><defs><clipPath id="O"><path d="M24 0H0v24h24V0zM11.206 16.505c-.133.304-.206.641-.206.995s.073.69.206.995l-1.026.718c-.497.348-1.18-.007-1.18-.614v-2.198c0-.607.683-.963 1.18-.615l1.026.719zM15 17.5c0 .828-.672 1.5-1.5 1.5s-1.5-.672-1.5-1.5.672-1.5 1.5-1.5 1.5.672 1.5 1.5zm1 0c0-.354-.073-.691-.206-.995l1.026-.719c.497-.348 1.18.008 1.18.615v2.198c0 .607-.683.962-1.18.614l-.614-.429-.412-.289c.068-.157.121-.323.156-.495.033-.162.05-.329.05-.5z"/></clipPath><clipPath id="P"><path d="M24 0H0v24h24V0zM11.206 16.505c-.133.304-.206.641-.206.995s.073.69.206.995l-1.026.718c-.497.348-1.18-.007-1.18-.614v-2.198c0-.607.683-.963 1.18-.615l1.026.719zM15 17.5c0 .828-.672 1.5-1.5 1.5s-1.5-.672-1.5-1.5.672-1.5 1.5-1.5 1.5.672 1.5 1.5zm1 0c0-.354-.073-.691-.206-.995l1.026-.719c.497-.348 1.18.008 1.18.615v2.198c0 .607-.683.962-1.18.614l-.614-.429-.412-.289c.068-.157.121-.323.156-.495.033-.162.05-.329.05-.5z"/></clipPath><clipPath id="Q"><path d="M24 0H0v24h24V0zM11.206 16.505c-.133.304-.206.641-.206.995s.073.69.206.995l-1.026.718c-.497.348-1.18-.007-1.18-.614v-2.198c0-.607.683-.963 1.18-.615l1.026.719zM15 17.5c0 .828-.672 1.5-1.5 1.5s-1.5-.672-1.5-1.5.672-1.5 1.5-1.5 1.5.672 1.5 1.5zm1 0c0-.354-.073-.691-.206-.995l1.026-.719c.497-.348 1.18.008 1.18.615v2.198c0 .607-.683.962-1.18.614l-.614-.429-.412-.289c.068-.157.121-.323.156-.495.033-.162.05-.329.05-.5z"/></clipPath><clipPath id="R"><path d="M24 0H0v24h24V0zM11.206 16.505c-.133.304-.206.641-.206.995s.073.69.206.995l-1.026.718c-.497.348-1.18-.007-1.18-.614v-2.198c0-.607.683-.963 1.18-.615l1.026.719zM15 17.5c0 .828-.672 1.5-1.5 1.5s-1.5-.672-1.5-1.5.672-1.5 1.5-1.5 1.5.672 1.5 1.5zm1 0c0-.354-.073-.691-.206-.995l1.026-.719c.497-.348 1.18.008 1.18.615v2.198c0 .607-.683.962-1.18.614l-.614-.429-.412-.289c.068-.157.121-.323.156-.495.033-.162.05-.329.05-.5z"/></clipPath></defs><path fill="none" stroke="#A9DBFF" stroke-dasharray="0.8255119928166014,3.887167210050374" stroke-dashoffset="2.769096" d="M13.5 10c0-.828-.672-1.5-1.5-1.5s-1.5.672-1.5 1.5"/><path stroke="#A9DBFF" stroke-dasharray="0.523178745745658,2.0927149829826326" stroke-dashoffset=".523179" stroke-linecap="square" stroke-linejoin="round" d="m14.961 16.5.77 2.5"/><path fill="none" stroke="#A9DBFF" stroke-dasharray="19.613038268162768,6.828122907770765" stroke-dashoffset="26.441161" d="m12 16.45-1.533-1.073c-.829-.58-1.967.013-1.967 1.024v2.198c0 1.011 1.138 1.604 1.967 1.024l6.066-4.246c.829-.58 1.967.013 1.967 1.024v2.198c0 1.011-1.138 1.604-1.967 1.024l-1.516-1.061" clip-path="url(#O)"/><path fill="none" stroke="#A9DBFF" stroke-dasharray="85.26604455575524,24.67503080943963" stroke-dashoffset="109.941075" stroke-linecap="round" stroke-linejoin="round" d="M5.5 9.5h-4s1 4 4 3l-3.5 4s1.5 2 3.5 1v4s2 2 5.5 2 5.5-2 5.5-2l-1.069-3.476c-.231.851-1.008 1.476-1.931 1.476-1.105 0-2-.895-2-2s.895-2 2-2c.497 0 .952.181 1.302.482L14.5 15c1.228-.921 1.702-1.277 2.233-1.414.333-.086.688-.086 1.267-.086h2.5c.768 0 2.444 0 2.89-2.569l-6.142-.384c-.42-.026-.748-.375-.748-.797 0-.422.328-.77.748-.797l6.211-.388C23.209 5.908 21.855 5.5 20.5 5.5h-11c-2.209 0-4 1.791-4 4V1.8l2.495 3.993" clip-path="url(#P)"/><path stroke="#A9DBFF" d="M5.5 17.5v-5" clip-path="url(#Q)"/><path fill="none" stroke="#A9DBFF" stroke-linecap="round" stroke-linejoin="round" d="M15.137 16.351c.229.325.363.721.363 1.149 0 .475-.166.912-.443 1.255" clip-path="url(#R)"/></g><g transform="translate(456)"><defs><clipPath id="S"><path d="M24 0H0v24h24V0zM11.206 16.505c-.133.304-.206.641-.206.995s.073.69.206.995l-1.026.718c-.497.348-1.18-.007-1.18-.614v-2.198c0-.607.683-.963 1.18-.615l1.026.719zM15 17.5c0 .828-.672 1.5-1.5 1.5s-1.5-.672-1.5-1.5.672-1.5 1.5-1.5 1.5.672 1.5 1.5zm1 0c0-.354-.073-.691-.206-.995l1.026-.719c.497-.348 1.18.008 1.18.615v2.198c0 .607-.683.962-1.18.614l-.614-.429-.412-.289c.068-.157.121-.323.156-.495.033-.162.05-.329.05-.5z"/></clipPath><clipPath id="T"><path d="M24 0H0v24h24V0zM11.206 16.505c-.133.304-.206.641-.206.995s.073.69.206.995l-1.026.718c-.497.348-1.18-.007-1.18-.614v-2.198c0-.607.683-.963 1.18-.615l1.026.719zM15 17.5c0 .828-.672 1.5-1.5 1.5s-1.5-.672-1.5-1.5.672-1.5 1.5-1.5 1.5.672 1.5 1.5zm1 0c0-.354-.073-.691-.206-.995l1.026-.719c.497-.348 1.18.008 1.18.615v2.198c0 .607-.683.962-1.18.614l-.614-.429-.412-.289c.068-.157.121-.323.156-.495.033-.162.05-.329.05-.5z"/></clipPath><clipPath id="U"><path d="M24 0H0v24h24V0zM11.206 16.505c-.133.304-.206.641-.206.995s.073.69.206.995l-1.026.718c-.497.348-1.18-.007-1.18-.614v-2.198c0-.607.683-.963 1.18-.615l1.026.719zM15 17.5c0 .828-.672 1.5-1.5 1.5s-1.5-.672-1.5-1.5.672-1.5 1.5-1.5 1.5.672 1.5 1.5zm1 0c0-.354-.073-.691-.206-.995l1.026-.719c.497-.348 1.18.008 1.18.615v2.198c0 .607-.683.962-1.18.614l-.614-.429-.412-.289c.068-.157.121-.323.156-.495.033-.162.05-.329.05-.5z"/></clipPath><clipPath id="V"><path d="M24 0H0v24h24V0zM11.206 16.505c-.133.304-.206.641-.206.995s.073.69.206.995l-1.026.718c-.497.348-1.18-.007-1.18-.614v-2.198c0-.607.683-.963 1.18-.615l1.026.719zM15 17.5c0 .828-.672 1.5-1.5 1.5s-1.5-.672-1.5-1.5.672-1.5 1.5-1.5 1.5.672 1.5 1.5zm1 0c0-.354-.073-.691-.206-.995l1.026-.719c.497-.348 1.18.008 1.18.615v2.198c0 .607-.683.962-1.18.614l-.614-.429-.412-.289c.068-.157.121-.323.156-.495.033-.162.05-.329.05-.5z"/></clipPath></defs><path fill="none" stroke="#A9DBFF" stroke-dasharray="2.5877442069486336,2.1249349959183417" stroke-dashoffset="3.650212" d="M13.5 10c0-.828-.672-1.5-1.5-1.5s-1.5.672-1.5 1.5"/><path stroke="#A9DBFF" stroke-dasharray="0.4612059244435147,2.154687804284776" stroke-dashoffset=".461206" stroke-linecap="square" stroke-linejoin="round" d="m14.961 16.5.77 2.5"/><path fill="none" stroke="#A9DBFF" stroke-dasharray="21.85258917553244,4.5885720004010935" stroke-dashoffset="26.441161" d="m12 16.45-1.533-1.073c-.829-.58-1.967.013-1.967 1.024v2.198c0 1.011 1.138 1.604 1.967 1.024l6.066-4.246c.829-.58 1.967.013 1.967 1.024v2.198c0 1.011-1.138 1.604-1.967 1.024l-1.516-1.061" clip-path="url(#S)"/><path fill="none" stroke="#A9DBFF" stroke-dasharray="88.87348996160497,21.067585403589906" stroke-dashoffset="109.941075" stroke-linecap="round" stroke-linejoin="round" d="M5.5 9.5h-4s1 4 4 3l-3.5 4s1.5 2 3.5 1v4s2 2 5.5 2 5.5-2 5.5-2l-1.069-3.476c-.231.851-1.008 1.476-1.931 1.476-1.105 0-2-.895-2-2s.895-2 2-2c.497 0 .952.181 1.302.482L14.5 15c1.228-.921 1.702-1.277 2.233-1.414.333-.086.688-.086 1.267-.086h2.5c.768 0 2.444 0 2.89-2.569l-6.142-.384c-.42-.026-.748-.375-.748-.797 0-.422.328-.77.748-.797l6.211-.388C23.209 5.908 21.855 5.5 20.5 5.5h-11c-2.209 0-4 1.791-4 4V1.8l2.495 3.993" clip-path="url(#T)"/><path stroke="#A9DBFF" d="M5.5 17.5v-5" clip-path="url(#U)"/><path fill="none" stroke="#A9DBFF" stroke-linecap="round" stroke-linejoin="round" d="M15.137 16.351c.229.325.363.721.363 1.149 0 .475-.166.912-.443 1.255" clip-path="url(#V)"/></g><g transform="translate(480)"><defs><clipPath id="W"><path d="M24 0H0v24h24V0zM11.206 16.505c-.133.304-.206.641-.206.995s.073.69.206.995l-1.026.718c-.497.348-1.18-.007-1.18-.614v-2.198c0-.607.683-.963 1.18-.615l1.026.719zM15 17.5c0 .828-.672 1.5-1.5 1.5s-1.5-.672-1.5-1.5.672-1.5 1.5-1.5 1.5.672 1.5 1.5zm1 0c0-.354-.073-.691-.206-.995l1.026-.719c.497-.348 1.18.008 1.18.615v2.198c0 .607-.683.962-1.18.614l-.614-.429-.412-.289c.068-.157.121-.323.156-.495.033-.162.05-.329.05-.5z"/></clipPath><clipPath id="X"><path d="M24 0H0v24h24V0zM11.206 16.505c-.133.304-.206.641-.206.995s.073.69.206.995l-1.026.718c-.497.348-1.18-.007-1.18-.614v-2.198c0-.607.683-.963 1.18-.615l1.026.719zM15 17.5c0 .828-.672 1.5-1.5 1.5s-1.5-.672-1.5-1.5.672-1.5 1.5-1.5 1.5.672 1.5 1.5zm1 0c0-.354-.073-.691-.206-.995l1.026-.719c.497-.348 1.18.008 1.18.615v2.198c0 .607-.683.962-1.18.614l-.614-.429-.412-.289c.068-.157.121-.323.156-.495.033-.162.05-.329.05-.5z"/></clipPath><clipPath id="Y"><path d="M24 0H0v24h24V0zM11.206 16.505c-.133.304-.206.641-.206.995s.073.69.206.995l-1.026.718c-.497.348-1.18-.007-1.18-.614v-2.198c0-.607.683-.963 1.18-.615l1.026.719zM15 17.5c0 .828-.672 1.5-1.5 1.5s-1.5-.672-1.5-1.5.672-1.5 1.5-1.5 1.5.672 1.5 1.5zm1 0c0-.354-.073-.691-.206-.995l1.026-.719c.497-.348 1.18.008 1.18.615v2.198c0 .607-.683.962-1.18.614l-.614-.429-.412-.289c.068-.157.121-.323.156-.495.033-.162.05-.329.05-.5z"/></clipPath><clipPath id="Z"><path d="M24 0H0v24h24V0zM11.206 16.505c-.133.304-.206.641-.206.995s.073.69.206.995l-1.026.718c-.497.348-1.18-.007-1.18-.614v-2.198c0-.607.683-.963 1.18-.615l1.026.719zM15 17.5c0 .828-.672 1.5-1.5 1.5s-1.5-.672-1.5-1.5.672-1.5 1.5-1.5 1.5.672 1.5 1.5zm1 0c0-.354-.073-.691-.206-.995l1.026-.719c.497-.348 1.18.008 1.18.615v2.198c0 .607-.683.962-1.18.614l-.614-.429-.412-.289c.068-.157.121-.323.156-.495.033-.162.05-.329.05-.5z"/></clipPath></defs><path fill="none" stroke="#A9DBFF" stroke-dasharray="3.7603174448854277,0.9523617579815477" stroke-dashoffset="4.236498" d="M13.5 10c0-.828-.672-1.5-1.5-1.5s-1.5.672-1.5 1.5"/><path stroke="#A9DBFF" stroke-dasharray="0.22334750379692178,2.392546224931369" stroke-dashoffset=".223348" stroke-linecap="square" stroke-linejoin="round" d="m14.961 16.5.77 2.5"/><path fill="none" stroke="#A9DBFF" stroke-dasharray="23.459203054732342,2.9819581212011936" stroke-dashoffset="26.441161" d="m12 16.45-1.533-1.073c-.829-.58-1.967.013-1.967 1.024v2.198c0 1.011 1.138 1.604 1.967 1.024l6.066-4.246c.829-.58 1.967.013 1.967 1.024v2.198c0 1.011-1.138 1.604-1.967 1.024l-1.516-1.061" clip-path="url(#W)"/><path fill="none" stroke="#A9DBFF" stroke-dasharray="92.03515344039339,17.905921924801486" stroke-dashoffset="109.941075" stroke-linecap="round" stroke-linejoin="round" d="M5.5 9.5h-4s1 4 4 3l-3.5 4s1.5 2 3.5 1v4s2 2 5.5 2 5.5-2 5.5-2l-1.069-3.476c-.231.851-1.008 1.476-1.931 1.476-1.105 0-2-.895-2-2s.895-2 2-2c.497 0 .952.181 1.302.482L14.5 15c1.228-.921 1.702-1.277 2.233-1.414.333-.086.688-.086 1.267-.086h2.5c.768 0 2.444 0 2.89-2.569l-6.142-.384c-.42-.026-.748-.375-.748-.797 0-.422.328-.77.748-.797l6.211-.388C23.209 5.908 21.855 5.5 20.5 5.5h-11c-2.209 0-4 1.791-4 4V1.8l2.495 3.993" clip-path="url(#X)"/><path stroke="#A9DBFF" d="M5.5 17.5v-5" clip-path="url(#Y)"/><path fill="none" stroke="#A9DBFF" stroke-linecap="round" stroke-linejoin="round" d="M15.137 16.351c.229.325.363.721.363 1.149 0 .475-.166.912-.443 1.255" clip-path="url(#Z)"/></g><g transform="translate(504)"><defs><clipPath id="aa"><path d="M24 0H0v24h24V0zM11.206 16.505c-.133.304-.206.641-.206.995s.073.69.206.995l-1.026.718c-.497.348-1.18-.007-1.18-.614v-2.198c0-.607.683-.963 1.18-.615l1.026.719zM15 17.5c0 .828-.672 1.5-1.5 1.5s-1.5-.672-1.5-1.5.672-1.5 1.5-1.5 1.5.672 1.5 1.5zm1 0c0-.354-.073-.691-.206-.995l1.026-.719c.497-.348 1.18.008 1.18.615v2.198c0 .607-.683.962-1.18.614l-.614-.429-.412-.289c.068-.157.121-.323.156-.495.033-.162.05-.329.05-.5z"/></clipPath><clipPath id="ab"><path d="M24 0H0v24h24V0zM11.206 16.505c-.133.304-.206.641-.206.995s.073.69.206.995l-1.026.718c-.497.348-1.18-.007-1.18-.614v-2.198c0-.607.683-.963 1.18-.615l1.026.719zM15 17.5c0 .828-.672 1.5-1.5 1.5s-1.5-.672-1.5-1.5.672-1.5 1.5-1.5 1.5.672 1.5 1.5zm1 0c0-.354-.073-.691-.206-.995l1.026-.719c.497-.348 1.18.008 1.18.615v2.198c0 .607-.683.962-1.18.614l-.614-.429-.412-.289c.068-.157.121-.323.156-.495.033-.162.05-.329.05-.5z"/></clipPath><clipPath id="ac"><path d="M24 0H0v24h24V0zM11.206 16.505c-.133.304-.206.641-.206.995s.073.69.206.995l-1.026.718c-.497.348-1.18-.007-1.18-.614v-2.198c0-.607.683-.963 1.18-.615l1.026.719zM15 17.5c0 .828-.672 1.5-1.5 1.5s-1.5-.672-1.5-1.5.672-1.5 1.5-1.5 1.5.672 1.5 1.5zm1 0c0-.354-.073-.691-.206-.995l1.026-.719c.497-.348 1.18.008 1.18.615v2.198c0 .607-.683.962-1.18.614l-.614-.429-.412-.289c.068-.157.121-.323.156-.495.033-.162.05-.329.05-.5z"/></clipPath><clipPath id="ad"><path d="M24 0H0v24h24V0zM11.206 16.505c-.133.304-.206.641-.206.995s.073.69.206.995l-1.026.718c-.497.348-1.18-.007-1.18-.614v-2.198c0-.607.683-.963 1.18-.615l1.026.719zM15 17.5c0 .828-.672 1.5-1.5 1.5s-1.5-.672-1.5-1.5.672-1.5 1.5-1.5 1.5.672 1.5 1.5zm1 0c0-.354-.073-.691-.206-.995l1.026-.719c.497-.348 1.18.008 1.18.615v2.198c0 .607-.683.962-1.18.614l-.614-.429-.412-.289c.068-.157.121-.323.156-.495.033-.162.05-.329.05-.5z"/></clipPath></defs><path fill="none" stroke="#A9DBFF" stroke-dasharray="4.339320885071051,0.3733583177959243" stroke-dashoffset="4.526" d="M13.5 10c0-.828-.672-1.5-1.5-1.5s-1.5.672-1.5 1.5"/><path fill="none" stroke="#A9DBFF" stroke-dasharray="24.608296650292456,1.8328645256410785" stroke-dashoffset="26.441161" d="m12 16.45-1.533-1.073c-.829-.58-1.967.013-1.967 1.024v2.198c0 1.011 1.138 1.604 1.967 1.024l6.066-4.246c.829-.58 1.967.013 1.967 1.024v2.198c0 1.011-1.138 1.604-1.967 1.024l-1.516-1.061" clip-path="url(#aa)"/><path fill="none" stroke="#A9DBFF" stroke-dasharray="94.80781911117353,15.13325625402135" stroke-dashoffset="109.941075" stroke-linecap="round" stroke-linejoin="round" d="M5.5 9.5h-4s1 4 4 3l-3.5 4s1.5 2 3.5 1v4s2 2 5.5 2 5.5-2 5.5-2l-1.069-3.476c-.231.851-1.008 1.476-1.931 1.476-1.105 0-2-.895-2-2s.895-2 2-2c.497 0 .952.181 1.302.482L14.5 15c1.228-.921 1.702-1.277 2.233-1.414.333-.086.688-.086 1.267-.086h2.5c.768 0 2.444 0 2.89-2.569l-6.142-.384c-.42-.026-.748-.375-.748-.797 0-.422.328-.77.748-.797l6.211-.388C23.209 5.908 21.855 5.5 20.5 5.5h-11c-2.209 0-4 1.791-4 4V1.8l2.495 3.993" clip-path="url(#ab)"/><path stroke="#A9DBFF" d="M5.5 17.5v-5" clip-path="url(#ac)"/><path fill="none" stroke="#A9DBFF" stroke-linecap="round" stroke-linejoin="round" d="M15.137 16.351c.229.325.363.721.363 1.149 0 .475-.166.912-.443 1.255" clip-path="url(#ad)"/></g><g transform="translate(528)"><defs><clipPath id="ae"><path d="M24 0H0v24h24V0zM11.206 16.505c-.133.304-.206.641-.206.995s.073.69.206.995l-1.026.718c-.497.348-1.18-.007-1.18-.614v-2.198c0-.607.683-.963 1.18-.615l1.026.719zM15 17.5c0 .828-.672 1.5-1.5 1.5s-1.5-.672-1.5-1.5.672-1.5 1.5-1.5 1.5.672 1.5 1.5zm1 0c0-.354-.073-.691-.206-.995l1.026-.719c.497-.348 1.18.008 1.18.615v2.198c0 .607-.683.962-1.18.614l-.614-.429-.412-.289c.068-.157.121-.323.156-.495.033-.162.05-.329.05-.5z"/></clipPath><clipPath id="af"><path d="M24 0H0v24h24V0zM11.206 16.505c-.133.304-.206.641-.206.995s.073.69.206.995l-1.026.718c-.497.348-1.18-.007-1.18-.614v-2.198c0-.607.683-.963 1.18-.615l1.026.719zM15 17.5c0 .828-.672 1.5-1.5 1.5s-1.5-.672-1.5-1.5.672-1.5 1.5-1.5 1.5.672 1.5 1.5zm1 0c0-.354-.073-.691-.206-.995l1.026-.719c.497-.348 1.18.008 1.18.615v2.198c0 .607-.683.962-1.18.614l-.614-.429-.412-.289c.068-.157.121-.323.156-.495.033-.162.05-.329.05-.5z"/></clipPath><clipPath id="ag"><path d="M24 0H0v24h24V0zM11.206 16.505c-.133.304-.206.641-.206.995s.073.69.206.995l-1.026.718c-.497.348-1.18-.007-1.18-.614v-2.198c0-.607.683-.963 1.18-.615l1.026.719zM15 17.5c0 .828-.672 1.5-1.5 1.5s-1.5-.672-1.5-1.5.672-1.5 1.5-1.5 1.5.672 1.5 1.5zm1 0c0-.354-.073-.691-.206-.995l1.026-.719c.497-.348 1.18.008 1.18.615v2.198c0 .607-.683.962-1.18.614l-.614-.429-.412-.289c.068-.157.121-.323.156-.495.033-.162.05-.329.05-.5z"/></clipPath><clipPath id="ah"><path d="M24 0H0v24h24V0zM11.206 16.505c-.133.304-.206.641-.206.995s.073.69.206.995l-1.026.718c-.497.348-1.18-.007-1.18-.614v-2.198c0-.607.683-.963 1.18-.615l1.026.719zM15 17.5c0 .828-.672 1.5-1.5 1.5s-1.5-.672-1.5-1.5.672-1.5 1.5-1.5 1.5.672 1.5 1.5zm1 0c0-.354-.073-.691-.206-.995l1.026-.719c.497-.348 1.18.008 1.18.615v2.198c0 .607-.683.962-1.18.614l-.614-.429-.412-.289c.068-.157.121-.323.156-.495.033-.162.05-.329.05-.5z"/></clipPath></defs><path fill="none" stroke="#A9DBFF" stroke-dasharray="4.614160856763788,0.09851834610318708" stroke-dashoffset="4.66342" d="M13.5 10c0-.828-.672-1.5-1.5-1.5s-1.5.672-1.5 1.5"/><path fill="none" stroke="#A9DBFF" stroke-dasharray="25.413744745756972,1.0274164301765618" stroke-dashoffset="26.441161" d="m12 16.45-1.533-1.073c-.829-.58-1.967.013-1.967 1.024v2.198c0 1.011 1.138 1.604 1.967 1.024l6.066-4.246c.829-.58 1.967.013 1.967 1.024v2.198c0 1.011-1.138 1.604-1.967 1.024l-1.516-1.061" clip-path="url(#ae)"/><path fill="none" stroke="#A9DBFF" stroke-dasharray="97.23912545122758,12.701949913967296" stroke-dashoffset="109.941075" stroke-linecap="round" stroke-linejoin="round" d="M5.5 9.5h-4s1 4 4 3l-3.5 4s1.5 2 3.5 1v4s2 2 5.5 2 5.5-2 5.5-2l-1.069-3.476c-.231.851-1.008 1.476-1.931 1.476-1.105 0-2-.895-2-2s.895-2 2-2c.497 0 .952.181 1.302.482L14.5 15c1.228-.921 1.702-1.277 2.233-1.414.333-.086.688-.086 1.267-.086h2.5c.768 0 2.444 0 2.89-2.569l-6.142-.384c-.42-.026-.748-.375-.748-.797 0-.422.328-.77.748-.797l6.211-.388C23.209 5.908 21.855 5.5 20.5 5.5h-11c-2.209 0-4 1.791-4 4V1.8l2.495 3.993" clip-path="url(#af)"/><path stroke="#A9DBFF" d="M5.5 17.5v-5" clip-path="url(#ag)"/><path fill="none" stroke="#A9DBFF" stroke-linecap="round" stroke-linejoin="round" d="M15.137 16.351c.229.325.363.721.363 1.149 0 .475-.166.912-.443 1.255" clip-path="url(#ah)"/></g><g transform="translate(552)"><defs><clipPath id="ai"><path d="M24 0H0v24h24V0zM11.206 16.505c-.133.304-.206.641-.206.995s.073.69.206.995l-1.026.718c-.497.348-1.18-.007-1.18-.614v-2.198c0-.607.683-.963 1.18-.615l1.026.719zM15 17.5c0 .828-.672 1.5-1.5 1.5s-1.5-.672-1.5-1.5.672-1.5 1.5-1.5 1.5.672 1.5 1.5zm1 0c0-.354-.073-.691-.206-.995l1.026-.719c.497-.348 1.18.008 1.18.615v2.198c0 .607-.683.962-1.18.614l-.614-.429-.412-.289c.068-.157.121-.323.156-.495.033-.162.05-.329.05-.5z"/></clipPath><clipPath id="aj"><path d="M24 0H0v24h24V0zM11.206 16.505c-.133.304-.206.641-.206.995s.073.69.206.995l-1.026.718c-.497.348-1.18-.007-1.18-.614v-2.198c0-.607.683-.963 1.18-.615l1.026.719zM15 17.5c0 .828-.672 1.5-1.5 1.5s-1.5-.672-1.5-1.5.672-1.5 1.5-1.5 1.5.672 1.5 1.5zm1 0c0-.354-.073-.691-.206-.995l1.026-.719c.497-.348 1.18.008 1.18.615v2.198c0 .607-.683.962-1.18.614l-.614-.429-.412-.289c.068-.157.121-.323.156-.495.033-.162.05-.329.05-.5z"/></clipPath><clipPath id="ak"><path d="M24 0H0v24h24V0zM11.206 16.505c-.133.304-.206.641-.206.995s.073.69.206.995l-1.026.718c-.497.348-1.18-.007-1.18-.614v-2.198c0-.607.683-.963 1.18-.615l1.026.719zM15 17.5c0 .828-.672 1.5-1.5 1.5s-1.5-.672-1.5-1.5.672-1.5 1.5-1.5 1.5.672 1.5 1.5zm1 0c0-.354-.073-.691-.206-.995l1.026-.719c.497-.348 1.18.008 1.18.615v2.198c0 .607-.683.962-1.18.614l-.614-.429-.412-.289c.068-.157.121-.323.156-.495.033-.162.05-.329.05-.5z"/></clipPath><clipPath id="al"><path d="M24 0H0v24h24V0zM11.206 16.505c-.133.304-.206.641-.206.995s.073.69.206.995l-1.026.718c-.497.348-1.18-.007-1.18-.614v-2.198c0-.607.683-.963 1.18-.615l1.026.719zM15 17.5c0 .828-.672 1.5-1.5 1.5s-1.5-.672-1.5-1.5.672-1.5 1.5-1.5 1.5.672 1.5 1.5zm1 0c0-.354-.073-.691-.206-.995l1.026-.719c.497-.348 1.18.008 1.18.615v2.198c0 .607-.683.962-1.18.614l-.614-.429-.412-.289c.068-.157.121-.323.156-.495.033-.162.05-.329.05-.5z"/></clipPath></defs><path fill="none" stroke="#A9DBFF" stroke-dasharray="4.7092136647051905,0.003465538161784599" stroke-dashoffset="4.710946" d="M13.5 10c0-.828-.672-1.5-1.5-1.5s-1.5.672-1.5 1.5"/><path fill="none" stroke="#A9DBFF" stroke-dasharray="25.95183683107151,0.4893243448620222" stroke-dashoffset="26.441161" d="m12 16.45-1.533-1.073c-.829-.58-1.967.013-1.967 1.024v2.198c0 1.011 1.138 1.604 1.967 1.024l6.066-4.246c.829-.58 1.967.013 1.967 1.024v2.198c0 1.011-1.138 1.604-1.967 1.024l-1.516-1.061" clip-path="url(#ai)"/><path fill="none" stroke="#A9DBFF" stroke-dasharray="99.36901378088392,10.572061584310964" stroke-dashoffset="109.941075" stroke-linecap="round" stroke-linejoin="round" d="M5.5 9.5h-4s1 4 4 3l-3.5 4s1.5 2 3.5 1v4s2 2 5.5 2 5.5-2 5.5-2l-1.069-3.476c-.231.851-1.008 1.476-1.931 1.476-1.105 0-2-.895-2-2s.895-2 2-2c.497 0 .952.181 1.302.482L14.5 15c1.228-.921 1.702-1.277 2.233-1.414.333-.086.688-.086 1.267-.086h2.5c.768 0 2.444 0 2.89-2.569l-6.142-.384c-.42-.026-.748-.375-.748-.797 0-.422.328-.77.748-.797l6.211-.388C23.209 5.908 21.855 5.5 20.5 5.5h-11c-2.209 0-4 1.791-4 4V1.8l2.495 3.993" clip-path="url(#aj)"/><path stroke="#A9DBFF" d="M5.5 17.5v-5" clip-path="url(#ak)"/><path fill="none" stroke="#A9DBFF" stroke-linecap="round" stroke-linejoin="round" d="M15.137 16.351c.229.325.363.721.363 1.149 0 .475-.166.912-.443 1.255" clip-path="url(#al)"/></g><g transform="translate(576)"><defs><clipPath id="am"><path d="M24 0H0v24h24V0zM11.206 16.505c-.133.304-.206.641-.206.995s.073.69.206.995l-1.026.718c-.497.348-1.18-.007-1.18-.614v-2.198c0-.607.683-.963 1.18-.615l1.026.719zM15 17.5c0 .828-.672 1.5-1.5 1.5s-1.5-.672-1.5-1.5.672-1.5 1.5-1.5 1.5.672 1.5 1.5zm1 0c0-.354-.073-.691-.206-.995l1.026-.719c.497-.348 1.18.008 1.18.615v2.198c0 .607-.683.962-1.18.614l-.614-.429-.412-.289c.068-.157.121-.323.156-.495.033-.162.05-.329.05-.5z"/></clipPath><clipPath id="an"><path d="M24 0H0v24h24V0zM11.206 16.505c-.133.304-.206.641-.206.995s.073.69.206.995l-1.026.718c-.497.348-1.18-.007-1.18-.614v-2.198c0-.607.683-.963 1.18-.615l1.026.719zM15 17.5c0 .828-.672 1.5-1.5 1.5s-1.5-.672-1.5-1.5.672-1.5 1.5-1.5 1.5.672 1.5 1.5zm1 0c0-.354-.073-.691-.206-.995l1.026-.719c.497-.348 1.18.008 1.18.615v2.198c0 .607-.683.962-1.18.614l-.614-.429-.412-.289c.068-.157.121-.323.156-.495.033-.162.05-.329.05-.5z"/></clipPath><clipPath id="ao"><path d="M24 0H0v24h24V0zM11.206 16.505c-.133.304-.206.641-.206.995s.073.69.206.995l-1.026.718c-.497.348-1.18-.007-1.18-.614v-2.198c0-.607.683-.963 1.18-.615l1.026.719zM15 17.5c0 .828-.672 1.5-1.5 1.5s-1.5-.672-1.5-1.5.672-1.5 1.5-1.5 1.5.672 1.5 1.5zm1 0c0-.354-.073-.691-.206-.995l1.026-.719c.497-.348 1.18.008 1.18.615v2.198c0 .607-.683.962-1.18.614l-.614-.429-.412-.289c.068-.157.121-.323.156-.495.033-.162.05-.329.05-.5z"/></clipPath><clipPath id="ap"><path d="M24 0H0v24h24V0zM11.206 16.505c-.133.304-.206.641-.206.995s.073.69.206.995l-1.026.718c-.497.348-1.18-.007-1.18-.614v-2.198c0-.607.683-.963 1.18-.615l1.026.719zM15 17.5c0 .828-.672 1.5-1.5 1.5s-1.5-.672-1.5-1.5.672-1.5 1.5-1.5 1.5.672 1.5 1.5zm1 0c0-.354-.073-.691-.206-.995l1.026-.719c.497-.348 1.18.008 1.18.615v2.198c0 .607-.683.962-1.18.614l-.614-.429-.412-.289c.068-.157.121-.323.156-.495.033-.162.05-.329.05-.5z"/></clipPath></defs><path fill="none" stroke="#A9DBFF" d="M13.5 10c0-.828-.672-1.5-1.5-1.5s-1.5.672-1.5 1.5"/><path fill="none" stroke="#A9DBFF" stroke-dasharray="26.275726044813517,0.16543513112001493" stroke-dashoffset="26.441161" d="m12 16.45-1.533-1.073c-.829-.58-1.967.013-1.967 1.024v2.198c0 1.011 1.138 1.604 1.967 1.024l6.066-4.246c.829-.58 1.967.013 1.967 1.024v2.198c0 1.011-1.138 1.604-1.967 1.024l-1.516-1.061" clip-path="url(#am)"/><path fill="none" stroke="#A9DBFF" stroke-dasharray="101.23107980045269,8.709995564742187" stroke-dashoffset="109.941075" stroke-linecap="round" stroke-linejoin="round" d="M5.5 9.5h-4s1 4 4 3l-3.5 4s1.5 2 3.5 1v4s2 2 5.5 2 5.5-2 5.5-2l-1.069-3.476c-.231.851-1.008 1.476-1.931 1.476-1.105 0-2-.895-2-2s.895-2 2-2c.497 0 .952.181 1.302.482L14.5 15c1.228-.921 1.702-1.277 2.233-1.414.333-.086.688-.086 1.267-.086h2.5c.768 0 2.444 0 2.89-2.569l-6.142-.384c-.42-.026-.748-.375-.748-.797 0-.422.328-.77.748-.797l6.211-.388C23.209 5.908 21.855 5.5 20.5 5.5h-11c-2.209 0-4 1.791-4 4V1.8l2.495 3.993" clip-path="url(#an)"/><path stroke="#A9DBFF" d="M5.5 17.5v-5" clip-path="url(#ao)"/><path fill="none" stroke="#A9DBFF" stroke-linecap="round" stroke-linejoin="round" d="M15.137 16.351c.229.325.363.721.363 1.149 0 .475-.166.912-.443 1.255" clip-path="url(#ap)"/></g><g transform="translate(600)"><defs><clipPath id="aq"><path d="M24 0H0v24h24V0zM11.206 16.505c-.133.304-.206.641-.206.995s.073.69.206.995l-1.026.718c-.497.348-1.18-.007-1.18-.614v-2.198c0-.607.683-.963 1.18-.615l1.026.719zM15 17.5c0 .828-.672 1.5-1.5 1.5s-1.5-.672-1.5-1.5.672-1.5 1.5-1.5 1.5.672 1.5 1.5zm1 0c0-.354-.073-.691-.206-.995l1.026-.719c.497-.348 1.18.008 1.18.615v2.198c0 .607-.683.962-1.18.614l-.614-.429-.412-.289c.068-.157.121-.323.156-.495.033-.162.05-.329.05-.5z"/></clipPath><clipPath id="ar"><path d="M24 0H0v24h24V0zM11.206 16.505c-.133.304-.206.641-.206.995s.073.69.206.995l-1.026.718c-.497.348-1.18-.007-1.18-.614v-2.198c0-.607.683-.963 1.18-.615l1.026.719zM15 17.5c0 .828-.672 1.5-1.5 1.5s-1.5-.672-1.5-1.5.672-1.5 1.5-1.5 1.5.672 1.5 1.5zm1 0c0-.354-.073-.691-.206-.995l1.026-.719c.497-.348 1.18.008 1.18.615v2.198c0 .607-.683.962-1.18.614l-.614-.429-.412-.289c.068-.157.121-.323.156-.495.033-.162.05-.329.05-.5z"/></clipPath><clipPath id="as"><path d="M24 0H0v24h24V0zM11.206 16.505c-.133.304-.206.641-.206.995s.073.69.206.995l-1.026.718c-.497.348-1.18-.007-1.18-.614v-2.198c0-.607.683-.963 1.18-.615l1.026.719zM15 17.5c0 .828-.672 1.5-1.5 1.5s-1.5-.672-1.5-1.5.672-1.5 1.5-1.5 1.5.672 1.5 1.5zm1 0c0-.354-.073-.691-.206-.995l1.026-.719c.497-.348 1.18.008 1.18.615v2.198c0 .607-.683.962-1.18.614l-.614-.429-.412-.289c.068-.157.121-.323.156-.495.033-.162.05-.329.05-.5z"/></clipPath><clipPath id="at"><path d="M24 0H0v24h24V0zM11.206 16.505c-.133.304-.206.641-.206.995s.073.69.206.995l-1.026.718c-.497.348-1.18-.007-1.18-.614v-2.198c0-.607.683-.963 1.18-.615l1.026.719zM15 17.5c0 .828-.672 1.5-1.5 1.5s-1.5-.672-1.5-1.5.672-1.5 1.5-1.5 1.5.672 1.5 1.5zm1 0c0-.354-.073-.691-.206-.995l1.026-.719c.497-.348 1.18.008 1.18.615v2.198c0 .607-.683.962-1.18.614l-.614-.429-.412-.289c.068-.157.121-.323.156-.495.033-.162.05-.329.05-.5z"/></clipPath></defs><path fill="none" stroke="#A9DBFF" d="M13.5 10c0-.828-.672-1.5-1.5-1.5s-1.5.672-1.5 1.5"/><path fill="none" stroke="#A9DBFF" stroke-dasharray="26.423811275055183,0.017349900878349443" stroke-dashoffset="26.441161" d="m12 16.45-1.533-1.073c-.829-.58-1.967.013-1.967 1.024v2.198c0 1.011 1.138 1.604 1.967 1.024l6.066-4.246c.829-.58 1.967.013 1.967 1.024v2.198c0 1.011-1.138 1.604-1.967 1.024l-1.516-1.061" clip-path="url(#aq)"/><path fill="none" stroke="#A9DBFF" stroke-dasharray="102.85372709067983,7.087348274515058" stroke-dashoffset="109.941075" stroke-linecap="round" stroke-linejoin="round" d="M5.5 9.5h-4s1 4 4 3l-3.5 4s1.5 2 3.5 1v4s2 2 5.5 2 5.5-2 5.5-2l-1.069-3.476c-.231.851-1.008 1.476-1.931 1.476-1.105 0-2-.895-2-2s.895-2 2-2c.497 0 .952.181 1.302.482L14.5 15c1.228-.921 1.702-1.277 2.233-1.414.333-.086.688-.086 1.267-.086h2.5c.768 0 2.444 0 2.89-2.569l-6.142-.384c-.42-.026-.748-.375-.748-.797 0-.422.328-.77.748-.797l6.211-.388C23.209 5.908 21.855 5.5 20.5 5.5h-11c-2.209 0-4 1.791-4 4V1.8l2.495 3.993" clip-path="url(#ar)"/><path stroke="#A9DBFF" d="M5.5 17.5v-5" clip-path="url(#as)"/><path fill="none" stroke="#A9DBFF" stroke-linecap="round" stroke-linejoin="round" d="M15.137 16.351c.229.325.363.721.363 1.149 0 .475-.166.912-.443 1.255" clip-path="url(#at)"/></g><g transform="translate(624)"><defs><clipPath id="au"><path d="M24 0H0v24h24V0zM11.206 16.505c-.133.304-.206.641-.206.995s.073.69.206.995l-1.026.718c-.497.348-1.18-.007-1.18-.614v-2.198c0-.607.683-.963 1.18-.615l1.026.719zM15 17.5c0 .828-.672 1.5-1.5 1.5s-1.5-.672-1.5-1.5.672-1.5 1.5-1.5 1.5.672 1.5 1.5zm1 0c0-.354-.073-.691-.206-.995l1.026-.719c.497-.348 1.18.008 1.18.615v2.198c0 .607-.683.962-1.18.614l-.614-.429-.412-.289c.068-.157.121-.323.156-.495.033-.162.05-.329.05-.5z"/></clipPath><clipPath id="av"><path d="M24 0H0v24h24V0zM11.206 16.505c-.133.304-.206.641-.206.995s.073.69.206.995l-1.026.718c-.497.348-1.18-.007-1.18-.614v-2.198c0-.607.683-.963 1.18-.615l1.026.719zM15 17.5c0 .828-.672 1.5-1.5 1.5s-1.5-.672-1.5-1.5.672-1.5 1.5-1.5 1.5.672 1.5 1.5zm1 0c0-.354-.073-.691-.206-.995l1.026-.719c.497-.348 1.18.008 1.18.615v2.198c0 .607-.683.962-1.18.614l-.614-.429-.412-.289c.068-.157.121-.323.156-.495.033-.162.05-.329.05-.5z"/></clipPath><clipPath id="aw"><path d="M24 0H0v24h24V0zM11.206 16.505c-.133.304-.206.641-.206.995s.073.69.206.995l-1.026.718c-.497.348-1.18-.007-1.18-.614v-2.198c0-.607.683-.963 1.18-.615l1.026.719zM15 17.5c0 .828-.672 1.5-1.5 1.5s-1.5-.672-1.5-1.5.672-1.5 1.5-1.5 1.5.672 1.5 1.5zm1 0c0-.354-.073-.691-.206-.995l1.026-.719c.497-.348 1.18.008 1.18.615v2.198c0 .607-.683.962-1.18.614l-.614-.429-.412-.289c.068-.157.121-.323.156-.495.033-.162.05-.329.05-.5z"/></clipPath><clipPath id="ax"><path d="M24 0H0v24h24V0zM11.206 16.505c-.133.304-.206.641-.206.995s.073.69.206.995l-1.026.718c-.497.348-1.18-.007-1.18-.614v-2.198c0-.607.683-.963 1.18-.615l1.026.719zM15 17.5c0 .828-.672 1.5-1.5 1.5s-1.5-.672-1.5-1.5.672-1.5 1.5-1.5 1.5.672 1.5 1.5zm1 0c0-.354-.073-.691-.206-.995l1.026-.719c.497-.348 1.18.008 1.18.615v2.198c0 .607-.683.962-1.18.614l-.614-.429-.412-.289c.068-.157.121-.323.156-.495.033-.162.05-.329.05-.5z"/></clipPath></defs><path fill="none" stroke="#A9DBFF" d="M13.5 10c0-.828-.672-1.5-1.5-1.5s-1.5.672-1.5 1.5"/><path fill="none" stroke="#A9DBFF" d="m12 16.45-1.533-1.073c-.829-.58-1.967.013-1.967 1.024v2.198c0 1.011 1.138 1.604 1.967 1.024l6.066-4.246c.829-.58 1.967.013 1.967 1.024v2.198c0 1.011-1.138 1.604-1.967 1.024l-1.516-1.061" clip-path="url(#au)"/><path fill="none" stroke="#A9DBFF" stroke-dasharray="104.2611144184633,5.679960946731583" stroke-dashoffset="109.941075" stroke-linecap="round" stroke-linejoin="round" d="M5.5 9.5h-4s1 4 4 3l-3.5 4s1.5 2 3.5 1v4s2 2 5.5 2 5.5-2 5.5-2l-1.069-3.476c-.231.851-1.008 1.476-1.931 1.476-1.105 0-2-.895-2-2s.895-2 2-2c.497 0 .952.181 1.302.482L14.5 15c1.228-.921 1.702-1.277 2.233-1.414.333-.086.688-.086 1.267-.086h2.5c.768 0 2.444 0 2.89-2.569l-6.142-.384c-.42-.026-.748-.375-.748-.797 0-.422.328-.77.748-.797l6.211-.388C23.209 5.908 21.855 5.5 20.5 5.5h-11c-2.209 0-4 1.791-4 4V1.8l2.495 3.993" clip-path="url(#av)"/><path stroke="#A9DBFF" d="M5.5 17.5v-5" clip-path="url(#aw)"/><path fill="none" stroke="#A9DBFF" stroke-linecap="round" stroke-linejoin="round" d="M15.137 16.351c.229.325.363.721.363 1.149 0 .475-.166.912-.443 1.255" clip-path="url(#ax)"/></g><g transform="translate(648)"><defs><clipPath id="ay"><path d="M24 0H0v24h24V0zM11.206 16.505c-.133.304-.206.641-.206.995s.073.69.206.995l-1.026.718c-.497.348-1.18-.007-1.18-.614v-2.198c0-.607.683-.963 1.18-.615l1.026.719zM15 17.5c0 .828-.672 1.5-1.5 1.5s-1.5-.672-1.5-1.5.672-1.5 1.5-1.5 1.5.672 1.5 1.5zm1 0c0-.354-.073-.691-.206-.995l1.026-.719c.497-.348 1.18.008 1.18.615v2.198c0 .607-.683.962-1.18.614l-.614-.429-.412-.289c.068-.157.121-.323.156-.495.033-.162.05-.329.05-.5z"/></clipPath><clipPath id="az"><path d="M24 0H0v24h24V0zM11.206 16.505c-.133.304-.206.641-.206.995s.073.69.206.995l-1.026.718c-.497.348-1.18-.007-1.18-.614v-2.198c0-.607.683-.963 1.18-.615l1.026.719zM15 17.5c0 .828-.672 1.5-1.5 1.5s-1.5-.672-1.5-1.5.672-1.5 1.5-1.5 1.5.672 1.5 1.5zm1 0c0-.354-.073-.691-.206-.995l1.026-.719c.497-.348 1.18.008 1.18.615v2.198c0 .607-.683.962-1.18.614l-.614-.429-.412-.289c.068-.157.121-.323.156-.495.033-.162.05-.329.05-.5z"/></clipPath><clipPath id="aA"><path d="M24 0H0v24h24V0zM11.206 16.505c-.133.304-.206.641-.206.995s.073.69.206.995l-1.026.718c-.497.348-1.18-.007-1.18-.614v-2.198c0-.607.683-.963 1.18-.615l1.026.719zM15 17.5c0 .828-.672 1.5-1.5 1.5s-1.5-.672-1.5-1.5.672-1.5 1.5-1.5 1.5.672 1.5 1.5zm1 0c0-.354-.073-.691-.206-.995l1.026-.719c.497-.348 1.18.008 1.18.615v2.198c0 .607-.683.962-1.18.614l-.614-.429-.412-.289c.068-.157.121-.323.156-.495.033-.162.05-.329.05-.5z"/></clipPath><clipPath id="aB"><path d="M24 0H0v24h24V0zM11.206 16.505c-.133.304-.206.641-.206.995s.073.69.206.995l-1.026.718c-.497.348-1.18-.007-1.18-.614v-2.198c0-.607.683-.963 1.18-.615l1.026.719zM15 17.5c0 .828-.672 1.5-1.5 1.5s-1.5-.672-1.5-1.5.672-1.5 1.5-1.5 1.5.672 1.5 1.5zm1 0c0-.354-.073-.691-.206-.995l1.026-.719c.497-.348 1.18.008 1.18.615v2.198c0 .607-.683.962-1.18.614l-.614-.429-.412-.289c.068-.157.121-.323.156-.495.033-.162.05-.329.05-.5z"/></clipPath></defs><path fill="none" stroke="#A9DBFF" d="M13.5 10c0-.828-.672-1.5-1.5-1.5s-1.5.672-1.5 1.5"/><path fill="none" stroke="#A9DBFF" d="m12 16.45-1.533-1.073c-.829-.58-1.967.013-1.967 1.024v2.198c0 1.011 1.138 1.604 1.967 1.024l6.066-4.246c.829-.58 1.967.013 1.967 1.024v2.198c0 1.011-1.138 1.604-1.967 1.024l-1.516-1.061" clip-path="url(#ay)"/><path fill="none" stroke="#A9DBFF" stroke-dasharray="105.47392064780018,4.467154717394699" stroke-dashoffset="109.941075" stroke-linecap="round" stroke-linejoin="round" d="M5.5 9.5h-4s1 4 4 3l-3.5 4s1.5 2 3.5 1v4s2 2 5.5 2 5.5-2 5.5-2l-1.069-3.476c-.231.851-1.008 1.476-1.931 1.476-1.105 0-2-.895-2-2s.895-2 2-2c.497 0 .952.181 1.302.482L14.5 15c1.228-.921 1.702-1.277 2.233-1.414.333-.086.688-.086 1.267-.086h2.5c.768 0 2.444 0 2.89-2.569l-6.142-.384c-.42-.026-.748-.375-.748-.797 0-.422.328-.77.748-.797l6.211-.388C23.209 5.908 21.855 5.5 20.5 5.5h-11c-2.209 0-4 1.791-4 4V1.8l2.495 3.993" clip-path="url(#az)"/><path stroke="#A9DBFF" d="M5.5 17.5v-5" clip-path="url(#aA)"/><path fill="none" stroke="#A9DBFF" stroke-linecap="round" stroke-linejoin="round" d="M15.137 16.351c.229.325.363.721.363 1.149 0 .475-.166.912-.443 1.255" clip-path="url(#aB)"/></g><g transform="translate(672)"><defs><clipPath id="aC"><path d="M24 0H0v24h24V0zM11.206 16.505c-.133.304-.206.641-.206.995s.073.69.206.995l-1.026.718c-.497.348-1.18-.007-1.18-.614v-2.198c0-.607.683-.963 1.18-.615l1.026.719zM15 17.5c0 .828-.672 1.5-1.5 1.5s-1.5-.672-1.5-1.5.672-1.5 1.5-1.5 1.5.672 1.5 1.5zm1 0c0-.354-.073-.691-.206-.995l1.026-.719c.497-.348 1.18.008 1.18.615v2.198c0 .607-.683.962-1.18.614l-.614-.429-.412-.289c.068-.157.121-.323.156-.495.033-.162.05-.329.05-.5z"/></clipPath><clipPath id="aD"><path d="M24 0H0v24h24V0zM11.206 16.505c-.133.304-.206.641-.206.995s.073.69.206.995l-1.026.718c-.497.348-1.18-.007-1.18-.614v-2.198c0-.607.683-.963 1.18-.615l1.026.719zM15 17.5c0 .828-.672 1.5-1.5 1.5s-1.5-.672-1.5-1.5.672-1.5 1.5-1.5 1.5.672 1.5 1.5zm1 0c0-.354-.073-.691-.206-.995l1.026-.719c.497-.348 1.18.008 1.18.615v2.198c0 .607-.683.962-1.18.614l-.614-.429-.412-.289c.068-.157.121-.323.156-.495.033-.162.05-.329.05-.5z"/></clipPath><clipPath id="aE"><path d="M24 0H0v24h24V0zM11.206 16.505c-.133.304-.206.641-.206.995s.073.69.206.995l-1.026.718c-.497.348-1.18-.007-1.18-.614v-2.198c0-.607.683-.963 1.18-.615l1.026.719zM15 17.5c0 .828-.672 1.5-1.5 1.5s-1.5-.672-1.5-1.5.672-1.5 1.5-1.5 1.5.672 1.5 1.5zm1 0c0-.354-.073-.691-.206-.995l1.026-.719c.497-.348 1.18.008 1.18.615v2.198c0 .607-.683.962-1.18.614l-.614-.429-.412-.289c.068-.157.121-.323.156-.495.033-.162.05-.329.05-.5z"/></clipPath><clipPath id="aF"><path d="M24 0H0v24h24V0zM11.206 16.505c-.133.304-.206.641-.206.995s.073.69.206.995l-1.026.718c-.497.348-1.18-.007-1.18-.614v-2.198c0-.607.683-.963 1.18-.615l1.026.719zM15 17.5c0 .828-.672 1.5-1.5 1.5s-1.5-.672-1.5-1.5.672-1.5 1.5-1.5 1.5.672 1.5 1.5zm1 0c0-.354-.073-.691-.206-.995l1.026-.719c.497-.348 1.18.008 1.18.615v2.198c0 .607-.683.962-1.18.614l-.614-.429-.412-.289c.068-.157.121-.323.156-.495.033-.162.05-.329.05-.5z"/></clipPath></defs><path fill="none" stroke="#A9DBFF" d="M13.5 10c0-.828-.672-1.5-1.5-1.5s-1.5.672-1.5 1.5"/><path fill="none" stroke="#A9DBFF" d="m12 16.45-1.533-1.073c-.829-.58-1.967.013-1.967 1.024v2.198c0 1.011 1.138 1.604 1.967 1.024l6.066-4.246c.829-.58 1.967.013 1.967 1.024v2.198c0 1.011-1.138 1.604-1.967 1.024l-1.516-1.061" clip-path="url(#aC)"/><path fill="none" stroke="#A9DBFF" stroke-dasharray="106.50995850258755,3.4311168626073276" stroke-dashoffset="109.941075" stroke-linecap="round" stroke-linejoin="round" d="M5.5 9.5h-4s1 4 4 3l-3.5 4s1.5 2 3.5 1v4s2 2 5.5 2 5.5-2 5.5-2l-1.069-3.476c-.231.851-1.008 1.476-1.931 1.476-1.105 0-2-.895-2-2s.895-2 2-2c.497 0 .952.181 1.302.482L14.5 15c1.228-.921 1.702-1.277 2.233-1.414.333-.086.688-.086 1.267-.086h2.5c.768 0 2.444 0 2.89-2.569l-6.142-.384c-.42-.026-.748-.375-.748-.797 0-.422.328-.77.748-.797l6.211-.388C23.209 5.908 21.855 5.5 20.5 5.5h-11c-2.209 0-4 1.791-4 4V1.8l2.495 3.993" clip-path="url(#aD)"/><path stroke="#A9DBFF" d="M5.5 17.5v-5" clip-path="url(#aE)"/><path fill="none" stroke="#A9DBFF" stroke-linecap="round" stroke-linejoin="round" d="M15.137 16.351c.229.325.363.721.363 1.149 0 .475-.166.912-.443 1.255" clip-path="url(#aF)"/></g><g transform="translate(696)"><defs><clipPath id="aG"><path d="M24 0H0v24h24V0zM11.206 16.505c-.133.304-.206.641-.206.995s.073.69.206.995l-1.026.718c-.497.348-1.18-.007-1.18-.614v-2.198c0-.607.683-.963 1.18-.615l1.026.719zM15 17.5c0 .828-.672 1.5-1.5 1.5s-1.5-.672-1.5-1.5.672-1.5 1.5-1.5 1.5.672 1.5 1.5zm1 0c0-.354-.073-.691-.206-.995l1.026-.719c.497-.348 1.18.008 1.18.615v2.198c0 .607-.683.962-1.18.614l-.614-.429-.412-.289c.068-.157.121-.323.156-.495.033-.162.05-.329.05-.5z"/></clipPath><clipPath id="aH"><path d="M24 0H0v24h24V0zM11.206 16.505c-.133.304-.206.641-.206.995s.073.69.206.995l-1.026.718c-.497.348-1.18-.007-1.18-.614v-2.198c0-.607.683-.963 1.18-.615l1.026.719zM15 17.5c0 .828-.672 1.5-1.5 1.5s-1.5-.672-1.5-1.5.672-1.5 1.5-1.5 1.5.672 1.5 1.5zm1 0c0-.354-.073-.691-.206-.995l1.026-.719c.497-.348 1.18.008 1.18.615v2.198c0 .607-.683.962-1.18.614l-.614-.429-.412-.289c.068-.157.121-.323.156-.495.033-.162.05-.329.05-.5z"/></clipPath><clipPath id="aI"><path d="M24 0H0v24h24V0zM11.206 16.505c-.133.304-.206.641-.206.995s.073.69.206.995l-1.026.718c-.497.348-1.18-.007-1.18-.614v-2.198c0-.607.683-.963 1.18-.615l1.026.719zM15 17.5c0 .828-.672 1.5-1.5 1.5s-1.5-.672-1.5-1.5.672-1.5 1.5-1.5 1.5.672 1.5 1.5zm1 0c0-.354-.073-.691-.206-.995l1.026-.719c.497-.348 1.18.008 1.18.615v2.198c0 .607-.683.962-1.18.614l-.614-.429-.412-.289c.068-.157.121-.323.156-.495.033-.162.05-.329.05-.5z"/></clipPath><clipPath id="aJ"><path d="M24 0H0v24h24V0zM11.206 16.505c-.133.304-.206.641-.206.995s.073.69.206.995l-1.026.718c-.497.348-1.18-.007-1.18-.614v-2.198c0-.607.683-.963 1.18-.615l1.026.719zM15 17.5c0 .828-.672 1.5-1.5 1.5s-1.5-.672-1.5-1.5.672-1.5 1.5-1.5 1.5.672 1.5 1.5zm1 0c0-.354-.073-.691-.206-.995l1.026-.719c.497-.348 1.18.008 1.18.615v2.198c0 .607-.683.962-1.18.614l-.614-.429-.412-.289c.068-.157.121-.323.156-.495.033-.162.05-.329.05-.5z"/></clipPath></defs><path fill="none" stroke="#A9DBFF" d="M13.5 10c0-.828-.672-1.5-1.5-1.5s-1.5.672-1.5 1.5"/><path fill="none" stroke="#A9DBFF" d="m12 16.45-1.533-1.073c-.829-.58-1.967.013-1.967 1.024v2.198c0 1.011 1.138 1.604 1.967 1.024l6.066-4.246c.829-.58 1.967.013 1.967 1.024v2.198c0 1.011-1.138 1.604-1.967 1.024l-1.516-1.061" clip-path="url(#aG)"/><path fill="none" stroke="#A9DBFF" stroke-dasharray="107.38466674742767,2.556408617767208" stroke-dashoffset="109.941075" stroke-linecap="round" stroke-linejoin="round" d="M5.5 9.5h-4s1 4 4 3l-3.5 4s1.5 2 3.5 1v4s2 2 5.5 2 5.5-2 5.5-2l-1.069-3.476c-.231.851-1.008 1.476-1.931 1.476-1.105 0-2-.895-2-2s.895-2 2-2c.497 0 .952.181 1.302.482L14.5 15c1.228-.921 1.702-1.277 2.233-1.414.333-.086.688-.086 1.267-.086h2.5c.768 0 2.444 0 2.89-2.569l-6.142-.384c-.42-.026-.748-.375-.748-.797 0-.422.328-.77.748-.797l6.211-.388C23.209 5.908 21.855 5.5 20.5 5.5h-11c-2.209 0-4 1.791-4 4V1.8l2.495 3.993" clip-path="url(#aH)"/><path stroke="#A9DBFF" d="M5.5 17.5v-5" clip-path="url(#aI)"/><path fill="none" stroke="#A9DBFF" stroke-linecap="round" stroke-linejoin="round" d="M15.137 16.351c.229.325.363.721.363 1.149 0 .475-.166.912-.443 1.255" clip-path="url(#aJ)"/></g><g transform="translate(720)"><defs><clipPath id="aK"><path d="M24 0H0v24h24V0zM11.206 16.505c-.133.304-.206.641-.206.995s.073.69.206.995l-1.026.718c-.497.348-1.18-.007-1.18-.614v-2.198c0-.607.683-.963 1.18-.615l1.026.719zM15 17.5c0 .828-.672 1.5-1.5 1.5s-1.5-.672-1.5-1.5.672-1.5 1.5-1.5 1.5.672 1.5 1.5zm1 0c0-.354-.073-.691-.206-.995l1.026-.719c.497-.348 1.18.008 1.18.615v2.198c0 .607-.683.962-1.18.614l-.614-.429-.412-.289c.068-.157.121-.323.156-.495.033-.162.05-.329.05-.5z"/></clipPath><clipPath id="aL"><path d="M24 0H0v24h24V0zM11.206 16.505c-.133.304-.206.641-.206.995s.073.69.206.995l-1.026.718c-.497.348-1.18-.007-1.18-.614v-2.198c0-.607.683-.963 1.18-.615l1.026.719zM15 17.5c0 .828-.672 1.5-1.5 1.5s-1.5-.672-1.5-1.5.672-1.5 1.5-1.5 1.5.672 1.5 1.5zm1 0c0-.354-.073-.691-.206-.995l1.026-.719c.497-.348 1.18.008 1.18.615v2.198c0 .607-.683.962-1.18.614l-.614-.429-.412-.289c.068-.157.121-.323.156-.495.033-.162.05-.329.05-.5z"/></clipPath><clipPath id="aM"><path d="M24 0H0v24h24V0zM11.206 16.505c-.133.304-.206.641-.206.995s.073.69.206.995l-1.026.718c-.497.348-1.18-.007-1.18-.614v-2.198c0-.607.683-.963 1.18-.615l1.026.719zM15 17.5c0 .828-.672 1.5-1.5 1.5s-1.5-.672-1.5-1.5.672-1.5 1.5-1.5 1.5.672 1.5 1.5zm1 0c0-.354-.073-.691-.206-.995l1.026-.719c.497-.348 1.18.008 1.18.615v2.198c0 .607-.683.962-1.18.614l-.614-.429-.412-.289c.068-.157.121-.323.156-.495.033-.162.05-.329.05-.5z"/></clipPath><clipPath id="aN"><path d="M24 0H0v24h24V0zM11.206 16.505c-.133.304-.206.641-.206.995s.073.69.206.995l-1.026.718c-.497.348-1.18-.007-1.18-.614v-2.198c0-.607.683-.963 1.18-.615l1.026.719zM15 17.5c0 .828-.672 1.5-1.5 1.5s-1.5-.672-1.5-1.5.672-1.5 1.5-1.5 1.5.672 1.5 1.5zm1 0c0-.354-.073-.691-.206-.995l1.026-.719c.497-.348 1.18.008 1.18.615v2.198c0 .607-.683.962-1.18.614l-.614-.429-.412-.289c.068-.157.121-.323.156-.495.033-.162.05-.329.05-.5z"/></clipPath></defs><path fill="none" stroke="#A9DBFF" d="M13.5 10c0-.828-.672-1.5-1.5-1.5s-1.5.672-1.5 1.5"/><path fill="none" stroke="#A9DBFF" d="m12 16.45-1.533-1.073c-.829-.58-1.967.013-1.967 1.024v2.198c0 1.011 1.138 1.604 1.967 1.024l6.066-4.246c.829-.58 1.967.013 1.967 1.024v2.198c0 1.011-1.138 1.604-1.967 1.024l-1.516-1.061" clip-path="url(#aK)"/><path fill="none" stroke="#A9DBFF" stroke-dasharray="108.11150587399273,1.8295694912021463" stroke-dashoffset="109.941075" stroke-linecap="round" stroke-linejoin="round" d="M5.5 9.5h-4s1 4 4 3l-3.5 4s1.5 2 3.5 1v4s2 2 5.5 2 5.5-2 5.5-2l-1.069-3.476c-.231.851-1.008 1.476-1.931 1.476-1.105 0-2-.895-2-2s.895-2 2-2c.497 0 .952.181 1.302.482L14.5 15c1.228-.921 1.702-1.277 2.233-1.414.333-.086.688-.086 1.267-.086h2.5c.768 0 2.444 0 2.89-2.569l-6.142-.384c-.42-.026-.748-.375-.748-.797 0-.422.328-.77.748-.797l6.211-.388C23.209 5.908 21.855 5.5 20.5 5.5h-11c-2.209 0-4 1.791-4 4V1.8l2.495 3.993" clip-path="url(#aL)"/><path stroke="#A9DBFF" d="M5.5 17.5v-5" clip-path="url(#aM)"/><path fill="none" stroke="#A9DBFF" stroke-linecap="round" stroke-linejoin="round" d="M15.137 16.351c.229.325.363.721.363 1.149 0 .475-.166.912-.443 1.255" clip-path="url(#aN)"/></g><g transform="translate(744)"><defs><clipPath id="aO"><path d="M24 0H0v24h24V0zM11.206 16.505c-.133.304-.206.641-.206.995s.073.69.206.995l-1.026.718c-.497.348-1.18-.007-1.18-.614v-2.198c0-.607.683-.963 1.18-.615l1.026.719zM15 17.5c0 .828-.672 1.5-1.5 1.5s-1.5-.672-1.5-1.5.672-1.5 1.5-1.5 1.5.672 1.5 1.5zm1 0c0-.354-.073-.691-.206-.995l1.026-.719c.497-.348 1.18.008 1.18.615v2.198c0 .607-.683.962-1.18.614l-.614-.429-.412-.289c.068-.157.121-.323.156-.495.033-.162.05-.329.05-.5z"/></clipPath><clipPath id="aP"><path d="M24 0H0v24h24V0zM11.206 16.505c-.133.304-.206.641-.206.995s.073.69.206.995l-1.026.718c-.497.348-1.18-.007-1.18-.614v-2.198c0-.607.683-.963 1.18-.615l1.026.719zM15 17.5c0 .828-.672 1.5-1.5 1.5s-1.5-.672-1.5-1.5.672-1.5 1.5-1.5 1.5.672 1.5 1.5zm1 0c0-.354-.073-.691-.206-.995l1.026-.719c.497-.348 1.18.008 1.18.615v2.198c0 .607-.683.962-1.18.614l-.614-.429-.412-.289c.068-.157.121-.323.156-.495.033-.162.05-.329.05-.5z"/></clipPath><clipPath id="aQ"><path d="M24 0H0v24h24V0zM11.206 16.505c-.133.304-.206.641-.206.995s.073.69.206.995l-1.026.718c-.497.348-1.18-.007-1.18-.614v-2.198c0-.607.683-.963 1.18-.615l1.026.719zM15 17.5c0 .828-.672 1.5-1.5 1.5s-1.5-.672-1.5-1.5.672-1.5 1.5-1.5 1.5.672 1.5 1.5zm1 0c0-.354-.073-.691-.206-.995l1.026-.719c.497-.348 1.18.008 1.18.615v2.198c0 .607-.683.962-1.18.614l-.614-.429-.412-.289c.068-.157.121-.323.156-.495.033-.162.05-.329.05-.5z"/></clipPath><clipPath id="aR"><path d="M24 0H0v24h24V0zM11.206 16.505c-.133.304-.206.641-.206.995s.073.69.206.995l-1.026.718c-.497.348-1.18-.007-1.18-.614v-2.198c0-.607.683-.963 1.18-.615l1.026.719zM15 17.5c0 .828-.672 1.5-1.5 1.5s-1.5-.672-1.5-1.5.672-1.5 1.5-1.5 1.5.672 1.5 1.5zm1 0c0-.354-.073-.691-.206-.995l1.026-.719c.497-.348 1.18.008 1.18.615v2.198c0 .607-.683.962-1.18.614l-.614-.429-.412-.289c.068-.157.121-.323.156-.495.033-.162.05-.329.05-.5z"/></clipPath></defs><path fill="none" stroke="#A9DBFF" d="M13.5 10c0-.828-.672-1.5-1.5-1.5s-1.5.672-1.5 1.5"/><path fill="none" stroke="#A9DBFF" d="m12 16.45-1.533-1.073c-.829-.58-1.967.013-1.967 1.024v2.198c0 1.011 1.138 1.604 1.967 1.024l6.066-4.246c.829-.58 1.967.013 1.967 1.024v2.198c0 1.011-1.138 1.604-1.967 1.024l-1.516-1.061" clip-path="url(#aO)"/><path fill="none" stroke="#A9DBFF" stroke-dasharray="108.7022775824171,1.2387977827777736" stroke-dashoffset="109.941075" stroke-linecap="round" stroke-linejoin="round" d="M5.5 9.5h-4s1 4 4 3l-3.5 4s1.5 2 3.5 1v4s2 2 5.5 2 5.5-2 5.5-2l-1.069-3.476c-.231.851-1.008 1.476-1.931 1.476-1.105 0-2-.895-2-2s.895-2 2-2c.497 0 .952.181 1.302.482L14.5 15c1.228-.921 1.702-1.277 2.233-1.414.333-.086.688-.086 1.267-.086h2.5c.768 0 2.444 0 2.89-2.569l-6.142-.384c-.42-.026-.748-.375-.748-.797 0-.422.328-.77.748-.797l6.211-.388C23.209 5.908 21.855 5.5 20.5 5.5h-11c-2.209 0-4 1.791-4 4V1.8l2.495 3.993" clip-path="url(#aP)"/><path stroke="#A9DBFF" d="M5.5 17.5v-5" clip-path="url(#aQ)"/><path fill="none" stroke="#A9DBFF" stroke-linecap="round" stroke-linejoin="round" d="M15.137 16.351c.229.325.363.721.363 1.149 0 .475-.166.912-.443 1.255" clip-path="url(#aR)"/></g><g transform="translate(768)"><defs><clipPath id="aS"><path d="M24 0H0v24h24V0zM11.206 16.505c-.133.304-.206.641-.206.995s.073.69.206.995l-1.026.718c-.497.348-1.18-.007-1.18-.614v-2.198c0-.607.683-.963 1.18-.615l1.026.719zM15 17.5c0 .828-.672 1.5-1.5 1.5s-1.5-.672-1.5-1.5.672-1.5 1.5-1.5 1.5.672 1.5 1.5zm1 0c0-.354-.073-.691-.206-.995l1.026-.719c.497-.348 1.18.008 1.18.615v2.198c0 .607-.683.962-1.18.614l-.614-.429-.412-.289c.068-.157.121-.323.156-.495.033-.162.05-.329.05-.5z"/></clipPath><clipPath id="aT"><path d="M24 0H0v24h24V0zM11.206 16.505c-.133.304-.206.641-.206.995s.073.69.206.995l-1.026.718c-.497.348-1.18-.007-1.18-.614v-2.198c0-.607.683-.963 1.18-.615l1.026.719zM15 17.5c0 .828-.672 1.5-1.5 1.5s-1.5-.672-1.5-1.5.672-1.5 1.5-1.5 1.5.672 1.5 1.5zm1 0c0-.354-.073-.691-.206-.995l1.026-.719c.497-.348 1.18.008 1.18.615v2.198c0 .607-.683.962-1.18.614l-.614-.429-.412-.289c.068-.157.121-.323.156-.495.033-.162.05-.329.05-.5z"/></clipPath><clipPath id="aU"><path d="M24 0H0v24h24V0zM11.206 16.505c-.133.304-.206.641-.206.995s.073.69.206.995l-1.026.718c-.497.348-1.18-.007-1.18-.614v-2.198c0-.607.683-.963 1.18-.615l1.026.719zM15 17.5c0 .828-.672 1.5-1.5 1.5s-1.5-.672-1.5-1.5.672-1.5 1.5-1.5 1.5.672 1.5 1.5zm1 0c0-.354-.073-.691-.206-.995l1.026-.719c.497-.348 1.18.008 1.18.615v2.198c0 .607-.683.962-1.18.614l-.614-.429-.412-.289c.068-.157.121-.323.156-.495.033-.162.05-.329.05-.5z"/></clipPath><clipPath id="aV"><path d="M24 0H0v24h24V0zM11.206 16.505c-.133.304-.206.641-.206.995s.073.69.206.995l-1.026.718c-.497.348-1.18-.007-1.18-.614v-2.198c0-.607.683-.963 1.18-.615l1.026.719zM15 17.5c0 .828-.672 1.5-1.5 1.5s-1.5-.672-1.5-1.5.672-1.5 1.5-1.5 1.5.672 1.5 1.5zm1 0c0-.354-.073-.691-.206-.995l1.026-.719c.497-.348 1.18.008 1.18.615v2.198c0 .607-.683.962-1.18.614l-.614-.429-.412-.289c.068-.157.121-.323.156-.495.033-.162.05-.329.05-.5z"/></clipPath></defs><path fill="none" stroke="#A9DBFF" d="M13.5 10c0-.828-.672-1.5-1.5-1.5s-1.5.672-1.5 1.5"/><path fill="none" stroke="#A9DBFF" d="m12 16.45-1.533-1.073c-.829-.58-1.967.013-1.967 1.024v2.198c0 1.011 1.138 1.604 1.967 1.024l6.066-4.246c.829-.58 1.967.013 1.967 1.024v2.198c0 1.011-1.138 1.604-1.967 1.024l-1.516-1.061" clip-path="url(#aS)"/><path fill="none" stroke="#A9DBFF" stroke-dasharray="109.16738409568634,0.7736912695085284" stroke-dashoffset="109.941075" stroke-linecap="round" stroke-linejoin="round" d="M5.5 9.5h-4s1 4 4 3l-3.5 4s1.5 2 3.5 1v4s2 2 5.5 2 5.5-2 5.5-2l-1.069-3.476c-.231.851-1.008 1.476-1.931 1.476-1.105 0-2-.895-2-2s.895-2 2-2c.497 0 .952.181 1.302.482L14.5 15c1.228-.921 1.702-1.277 2.233-1.414.333-.086.688-.086 1.267-.086h2.5c.768 0 2.444 0 2.89-2.569l-6.142-.384c-.42-.026-.748-.375-.748-.797 0-.422.328-.77.748-.797l6.211-.388C23.209 5.908 21.855 5.5 20.5 5.5h-11c-2.209 0-4 1.791-4 4V1.8l2.495 3.993" clip-path="url(#aT)"/><path stroke="#A9DBFF" d="M5.5 17.5v-5" clip-path="url(#aU)"/><path fill="none" stroke="#A9DBFF" stroke-linecap="round" stroke-linejoin="round" d="M15.137 16.351c.229.325.363.721.363 1.149 0 .475-.166.912-.443 1.255" clip-path="url(#aV)"/></g><g transform="translate(792)"><defs><clipPath id="aW"><path d="M24 0H0v24h24V0zM11.206 16.505c-.133.304-.206.641-.206.995s.073.69.206.995l-1.026.718c-.497.348-1.18-.007-1.18-.614v-2.198c0-.607.683-.963 1.18-.615l1.026.719zM15 17.5c0 .828-.672 1.5-1.5 1.5s-1.5-.672-1.5-1.5.672-1.5 1.5-1.5 1.5.672 1.5 1.5zm1 0c0-.354-.073-.691-.206-.995l1.026-.719c.497-.348 1.18.008 1.18.615v2.198c0 .607-.683.962-1.18.614l-.614-.429-.412-.289c.068-.157.121-.323.156-.495.033-.162.05-.329.05-.5z"/></clipPath><clipPath id="aX"><path d="M24 0H0v24h24V0zM11.206 16.505c-.133.304-.206.641-.206.995s.073.69.206.995l-1.026.718c-.497.348-1.18-.007-1.18-.614v-2.198c0-.607.683-.963 1.18-.615l1.026.719zM15 17.5c0 .828-.672 1.5-1.5 1.5s-1.5-.672-1.5-1.5.672-1.5 1.5-1.5 1.5.672 1.5 1.5zm1 0c0-.354-.073-.691-.206-.995l1.026-.719c.497-.348 1.18.008 1.18.615v2.198c0 .607-.683.962-1.18.614l-.614-.429-.412-.289c.068-.157.121-.323.156-.495.033-.162.05-.329.05-.5z"/></clipPath><clipPath id="aY"><path d="M24 0H0v24h24V0zM11.206 16.505c-.133.304-.206.641-.206.995s.073.69.206.995l-1.026.718c-.497.348-1.18-.007-1.18-.614v-2.198c0-.607.683-.963 1.18-.615l1.026.719zM15 17.5c0 .828-.672 1.5-1.5 1.5s-1.5-.672-1.5-1.5.672-1.5 1.5-1.5 1.5.672 1.5 1.5zm1 0c0-.354-.073-.691-.206-.995l1.026-.719c.497-.348 1.18.008 1.18.615v2.198c0 .607-.683.962-1.18.614l-.614-.429-.412-.289c.068-.157.121-.323.156-.495.033-.162.05-.329.05-.5z"/></clipPath><clipPath id="aZ"><path d="M24 0H0v24h24V0zM11.206 16.505c-.133.304-.206.641-.206.995s.073.69.206.995l-1.026.718c-.497.348-1.18-.007-1.18-.614v-2.198c0-.607.683-.963 1.18-.615l1.026.719zM15 17.5c0 .828-.672 1.5-1.5 1.5s-1.5-.672-1.5-1.5.672-1.5 1.5-1.5 1.5.672 1.5 1.5zm1 0c0-.354-.073-.691-.206-.995l1.026-.719c.497-.348 1.18.008 1.18.615v2.198c0 .607-.683.962-1.18.614l-.614-.429-.412-.289c.068-.157.121-.323.156-.495.033-.162.05-.329.05-.5z"/></clipPath></defs><path fill="none" stroke="#A9DBFF" d="M13.5 10c0-.828-.672-1.5-1.5-1.5s-1.5.672-1.5 1.5"/><path fill="none" stroke="#A9DBFF" d="m12 16.45-1.533-1.073c-.829-.58-1.967.013-1.967 1.024v2.198c0 1.011 1.138 1.604 1.967 1.024l6.066-4.246c.829-.58 1.967.013 1.967 1.024v2.198c0 1.011-1.138 1.604-1.967 1.024l-1.516-1.061" clip-path="url(#aW)"/><path fill="none" stroke="#A9DBFF" stroke-dasharray="109.51603985220122,0.4250355129936637" stroke-dashoffset="109.941075" stroke-linecap="round" stroke-linejoin="round" d="M5.5 9.5h-4s1 4 4 3l-3.5 4s1.5 2 3.5 1v4s2 2 5.5 2 5.5-2 5.5-2l-1.069-3.476c-.231.851-1.008 1.476-1.931 1.476-1.105 0-2-.895-2-2s.895-2 2-2c.497 0 .952.181 1.302.482L14.5 15c1.228-.921 1.702-1.277 2.233-1.414.333-.086.688-.086 1.267-.086h2.5c.768 0 2.444 0 2.89-2.569l-6.142-.384c-.42-.026-.748-.375-.748-.797 0-.422.328-.77.748-.797l6.211-.388C23.209 5.908 21.855 5.5 20.5 5.5h-11c-2.209 0-4 1.791-4 4V1.8l2.495 3.993" clip-path="url(#aX)"/><path stroke="#A9DBFF" d="M5.5 17.5v-5" clip-path="url(#aY)"/><path fill="none" stroke="#A9DBFF" stroke-linecap="round" stroke-linejoin="round" d="M15.137 16.351c.229.325.363.721.363 1.149 0 .475-.166.912-.443 1.255" clip-path="url(#aZ)"/></g><g transform="translate(816)"><defs><clipPath id="ba"><path d="M24 0H0v24h24V0zM11.206 16.505c-.133.304-.206.641-.206.995s.073.69.206.995l-1.026.718c-.497.348-1.18-.007-1.18-.614v-2.198c0-.607.683-.963 1.18-.615l1.026.719zM15 17.5c0 .828-.672 1.5-1.5 1.5s-1.5-.672-1.5-1.5.672-1.5 1.5-1.5 1.5.672 1.5 1.5zm1 0c0-.354-.073-.691-.206-.995l1.026-.719c.497-.348 1.18.008 1.18.615v2.198c0 .607-.683.962-1.18.614l-.614-.429-.412-.289c.068-.157.121-.323.156-.495.033-.162.05-.329.05-.5z"/></clipPath><clipPath id="bb"><path d="M24 0H0v24h24V0zM11.206 16.505c-.133.304-.206.641-.206.995s.073.69.206.995l-1.026.718c-.497.348-1.18-.007-1.18-.614v-2.198c0-.607.683-.963 1.18-.615l1.026.719zM15 17.5c0 .828-.672 1.5-1.5 1.5s-1.5-.672-1.5-1.5.672-1.5 1.5-1.5 1.5.672 1.5 1.5zm1 0c0-.354-.073-.691-.206-.995l1.026-.719c.497-.348 1.18.008 1.18.615v2.198c0 .607-.683.962-1.18.614l-.614-.429-.412-.289c.068-.157.121-.323.156-.495.033-.162.05-.329.05-.5z"/></clipPath><clipPath id="bc"><path d="M24 0H0v24h24V0zM11.206 16.505c-.133.304-.206.641-.206.995s.073.69.206.995l-1.026.718c-.497.348-1.18-.007-1.18-.614v-2.198c0-.607.683-.963 1.18-.615l1.026.719zM15 17.5c0 .828-.672 1.5-1.5 1.5s-1.5-.672-1.5-1.5.672-1.5 1.5-1.5 1.5.672 1.5 1.5zm1 0c0-.354-.073-.691-.206-.995l1.026-.719c.497-.348 1.18.008 1.18.615v2.198c0 .607-.683.962-1.18.614l-.614-.429-.412-.289c.068-.157.121-.323.156-.495.033-.162.05-.329.05-.5z"/></clipPath><clipPath id="bd"><path d="M24 0H0v24h24V0zM11.206 16.505c-.133.304-.206.641-.206.995s.073.69.206.995l-1.026.718c-.497.348-1.18-.007-1.18-.614v-2.198c0-.607.683-.963 1.18-.615l1.026.719zM15 17.5c0 .828-.672 1.5-1.5 1.5s-1.5-.672-1.5-1.5.672-1.5 1.5-1.5 1.5.672 1.5 1.5zm1 0c0-.354-.073-.691-.206-.995l1.026-.719c.497-.348 1.18.008 1.18.615v2.198c0 .607-.683.962-1.18.614l-.614-.429-.412-.289c.068-.157.121-.323.156-.495.033-.162.05-.329.05-.5z"/></clipPath></defs><path fill="none" stroke="#A9DBFF" d="M13.5 10c0-.828-.672-1.5-1.5-1.5s-1.5.672-1.5 1.5"/><path fill="none" stroke="#A9DBFF" d="m12 16.45-1.533-1.073c-.829-.58-1.967.013-1.967 1.024v2.198c0 1.011 1.138 1.604 1.967 1.024l6.066-4.246c.829-.58 1.967.013 1.967 1.024v2.198c0 1.011-1.138 1.604-1.967 1.024l-1.516-1.061" clip-path="url(#ba)"/><path fill="none" stroke="#A9DBFF" stroke-dasharray="109.7564453530041,0.1846300121907788" stroke-dashoffset="109.941075" stroke-linecap="round" stroke-linejoin="round" d="M5.5 9.5h-4s1 4 4 3l-3.5 4s1.5 2 3.5 1v4s2 2 5.5 2 5.5-2 5.5-2l-1.069-3.476c-.231.851-1.008 1.476-1.931 1.476-1.105 0-2-.895-2-2s.895-2 2-2c.497 0 .952.181 1.302.482L14.5 15c1.228-.921 1.702-1.277 2.233-1.414.333-.086.688-.086 1.267-.086h2.5c.768 0 2.444 0 2.89-2.569l-6.142-.384c-.42-.026-.748-.375-.748-.797 0-.422.328-.77.748-.797l6.211-.388C23.209 5.908 21.855 5.5 20.5 5.5h-11c-2.209 0-4 1.791-4 4V1.8l2.495 3.993" clip-path="url(#bb)"/><path stroke="#A9DBFF" d="M5.5 17.5v-5" clip-path="url(#bc)"/><path fill="none" stroke="#A9DBFF" stroke-linecap="round" stroke-linejoin="round" d="M15.137 16.351c.229.325.363.721.363 1.149 0 .475-.166.912-.443 1.255" clip-path="url(#bd)"/></g><g transform="translate(840)"><defs><clipPath id="be"><path d="M24 0H0v24h24V0zM11.206 16.505c-.133.304-.206.641-.206.995s.073.69.206.995l-1.026.718c-.497.348-1.18-.007-1.18-.614v-2.198c0-.607.683-.963 1.18-.615l1.026.719zM15 17.5c0 .828-.672 1.5-1.5 1.5s-1.5-.672-1.5-1.5.672-1.5 1.5-1.5 1.5.672 1.5 1.5zm1 0c0-.354-.073-.691-.206-.995l1.026-.719c.497-.348 1.18.008 1.18.615v2.198c0 .607-.683.962-1.18.614l-.614-.429-.412-.289c.068-.157.121-.323.156-.495.033-.162.05-.329.05-.5z"/></clipPath><clipPath id="bf"><path d="M24 0H0v24h24V0zM11.206 16.505c-.133.304-.206.641-.206.995s.073.69.206.995l-1.026.718c-.497.348-1.18-.007-1.18-.614v-2.198c0-.607.683-.963 1.18-.615l1.026.719zM15 17.5c0 .828-.672 1.5-1.5 1.5s-1.5-.672-1.5-1.5.672-1.5 1.5-1.5 1.5.672 1.5 1.5zm1 0c0-.354-.073-.691-.206-.995l1.026-.719c.497-.348 1.18.008 1.18.615v2.198c0 .607-.683.962-1.18.614l-.614-.429-.412-.289c.068-.157.121-.323.156-.495.033-.162.05-.329.05-.5z"/></clipPath><clipPath id="bg"><path d="M24 0H0v24h24V0zM11.206 16.505c-.133.304-.206.641-.206.995s.073.69.206.995l-1.026.718c-.497.348-1.18-.007-1.18-.614v-2.198c0-.607.683-.963 1.18-.615l1.026.719zM15 17.5c0 .828-.672 1.5-1.5 1.5s-1.5-.672-1.5-1.5.672-1.5 1.5-1.5 1.5.672 1.5 1.5zm1 0c0-.354-.073-.691-.206-.995l1.026-.719c.497-.348 1.18.008 1.18.615v2.198c0 .607-.683.962-1.18.614l-.614-.429-.412-.289c.068-.157.121-.323.156-.495.033-.162.05-.329.05-.5z"/></clipPath><clipPath id="bh"><path d="M24 0H0v24h24V0zM11.206 16.505c-.133.304-.206.641-.206.995s.073.69.206.995l-1.026.718c-.497.348-1.18-.007-1.18-.614v-2.198c0-.607.683-.963 1.18-.615l1.026.719zM15 17.5c0 .828-.672 1.5-1.5 1.5s-1.5-.672-1.5-1.5.672-1.5 1.5-1.5 1.5.672 1.5 1.5zm1 0c0-.354-.073-.691-.206-.995l1.026-.719c.497-.348 1.18.008 1.18.615v2.198c0 .607-.683.962-1.18.614l-.614-.429-.412-.289c.068-.157.121-.323.156-.495.033-.162.05-.329.05-.5z"/></clipPath></defs><path fill="none" stroke="#A9DBFF" d="M13.5 10c0-.828-.672-1.5-1.5-1.5s-1.5.672-1.5 1.5"/><path fill="none" stroke="#A9DBFF" d="m12 16.45-1.533-1.073c-.829-.58-1.967.013-1.967 1.024v2.198c0 1.011 1.138 1.604 1.967 1.024l6.066-4.246c.829-.58 1.967.013 1.967 1.024v2.198c0 1.011-1.138 1.604-1.967 1.024l-1.516-1.061" clip-path="url(#be)"/><path fill="none" stroke="#A9DBFF" stroke-dasharray="109.89593078371944,0.045144581475434264" stroke-dashoffset="109.941075" stroke-linecap="round" stroke-linejoin="round" d="M5.5 9.5h-4s1 4 4 3l-3.5 4s1.5 2 3.5 1v4s2 2 5.5 2 5.5-2 5.5-2l-1.069-3.476c-.231.851-1.008 1.476-1.931 1.476-1.105 0-2-.895-2-2s.895-2 2-2c.497 0 .952.181 1.302.482L14.5 15c1.228-.921 1.702-1.277 2.233-1.414.333-.086.688-.086 1.267-.086h2.5c.768 0 2.444 0 2.89-2.569l-6.142-.384c-.42-.026-.748-.375-.748-.797 0-.422.328-.77.748-.797l6.211-.388C23.209 5.908 21.855 5.5 20.5 5.5h-11c-2.209 0-4 1.791-4 4V1.8l2.495 3.993" clip-path="url(#bf)"/><path stroke="#A9DBFF" d="M5.5 17.5v-5" clip-path="url(#bg)"/><path fill="none" stroke="#A9DBFF" stroke-linecap="round" stroke-linejoin="round" d="M15.137 16.351c.229.325.363.721.363 1.149 0 .475-.166.912-.443 1.255" clip-path="url(#bh)"/></g><g transform="translate(864)"><defs><clipPath id="bi"><path d="M24 0H0v24h24V0zM11.206 16.505c-.133.304-.206.641-.206.995s.073.69.206.995l-1.026.718c-.497.348-1.18-.007-1.18-.614v-2.198c0-.607.683-.963 1.18-.615l1.026.719zM15 17.5c0 .828-.672 1.5-1.5 1.5s-1.5-.672-1.5-1.5.672-1.5 1.5-1.5 1.5.672 1.5 1.5zm1 0c0-.354-.073-.691-.206-.995l1.026-.719c.497-.348 1.18.008 1.18.615v2.198c0 .607-.683.962-1.18.614l-.614-.429-.412-.289c.068-.157.121-.323.156-.495.033-.162.05-.329.05-.5z"/></clipPath><clipPath id="bj"><path d="M24 0H0v24h24V0zM11.206 16.505c-.133.304-.206.641-.206.995s.073.69.206.995l-1.026.718c-.497.348-1.18-.007-1.18-.614v-2.198c0-.607.683-.963 1.18-.615l1.026.719zM15 17.5c0 .828-.672 1.5-1.5 1.5s-1.5-.672-1.5-1.5.672-1.5 1.5-1.5 1.5.672 1.5 1.5zm1 0c0-.354-.073-.691-.206-.995l1.026-.719c.497-.348 1.18.008 1.18.615v2.198c0 .607-.683.962-1.18.614l-.614-.429-.412-.289c.068-.157.121-.323.156-.495.033-.162.05-.329.05-.5z"/></clipPath><clipPath id="bk"><path d="M24 0H0v24h24V0zM11.206 16.505c-.133.304-.206.641-.206.995s.073.69.206.995l-1.026.718c-.497.348-1.18-.007-1.18-.614v-2.198c0-.607.683-.963 1.18-.615l1.026.719zM15 17.5c0 .828-.672 1.5-1.5 1.5s-1.5-.672-1.5-1.5.672-1.5 1.5-1.5 1.5.672 1.5 1.5zm1 0c0-.354-.073-.691-.206-.995l1.026-.719c.497-.348 1.18.008 1.18.615v2.198c0 .607-.683.962-1.18.614l-.614-.429-.412-.289c.068-.157.121-.323.156-.495.033-.162.05-.329.05-.5z"/></clipPath><clipPath id="bl"><path d="M24 0H0v24h24V0zM11.206 16.505c-.133.304-.206.641-.206.995s.073.69.206.995l-1.026.718c-.497.348-1.18-.007-1.18-.614v-2.198c0-.607.683-.963 1.18-.615l1.026.719zM15 17.5c0 .828-.672 1.5-1.5 1.5s-1.5-.672-1.5-1.5.672-1.5 1.5-1.5 1.5.672 1.5 1.5zm1 0c0-.354-.073-.691-.206-.995l1.026-.719c.497-.348 1.18.008 1.18.615v2.198c0 .607-.683.962-1.18.614l-.614-.429-.412-.289c.068-.157.121-.323.156-.495.033-.162.05-.329.05-.5z"/></clipPath></defs><path fill="none" stroke="#A9DBFF" d="M13.5 10c0-.828-.672-1.5-1.5-1.5s-1.5.672-1.5 1.5"/><path fill="none" stroke="#A9DBFF" d="m12 16.45-1.533-1.073c-.829-.58-1.967.013-1.967 1.024v2.198c0 1.011 1.138 1.604 1.967 1.024l6.066-4.246c.829-.58 1.967.013 1.967 1.024v2.198c0 1.011-1.138 1.604-1.967 1.024l-1.516-1.061" clip-path="url(#bi)"/><path fill="none" stroke="#A9DBFF" stroke-linecap="round" stroke-linejoin="round" d="M5.5 9.5h-4s1 4 4 3l-3.5 4s1.5 2 3.5 1v4s2 2 5.5 2 5.5-2 5.5-2l-1.069-3.476c-.231.851-1.008 1.476-1.931 1.476-1.105 0-2-.895-2-2s.895-2 2-2c.497 0 .952.181 1.302.482L14.5 15c1.228-.921 1.702-1.277 2.233-1.414.333-.086.688-.086 1.267-.086h2.5c.768 0 2.444 0 2.89-2.569l-6.142-.384c-.42-.026-.748-.375-.748-.797 0-.422.328-.77.748-.797l6.211-.388C23.209 5.908 21.855 5.5 20.5 5.5h-11c-2.209 0-4 1.791-4 4V1.8l2.495 3.993" clip-path="url(#bj)"/><path stroke="#A9DBFF" d="M5.5 17.5v-5" clip-path="url(#bk)"/><path fill="none" stroke="#A9DBFF" stroke-linecap="round" stroke-linejoin="round" d="M15.137 16.351c.229.325.363.721.363 1.149 0 .475-.166.912-.443 1.255" clip-path="url(#bl)"/></g></svg>
