<svg width="768" height="480" viewBox="0 0 768 480" fill="none" xmlns="http://www.w3.org/2000/svg">
<g filter="url(#filter0_d)">
<mask id="path-1-inside-1" fill="white">
<path fill-rule="evenodd" clip-rule="evenodd" d="M542 52H206V428H542V52ZM518 84C522.418 84 526 80.4183 526 76C526 71.5817 522.418 68 518 68C513.582 68 510 71.5817 510 76C510 80.4183 513.582 84 518 84Z"/>
</mask>
<path fill-rule="evenodd" clip-rule="evenodd" d="M542 52H206V428H542V52ZM518 84C522.418 84 526 80.4183 526 76C526 71.5817 522.418 68 518 68C513.582 68 510 71.5817 510 76C510 80.4183 513.582 84 518 84Z" fill="#99DBFF"/>
<path d="M206 52V50H204V52H206ZM542 52H544V50H542V52ZM206 428H204V430H206V428ZM542 428V430H544V428H542ZM206 54H542V50H206V54ZM208 428V52H204V428H208ZM542 426H206V430H542V426ZM540 52V428H544V52H540ZM524 76C524 79.3137 521.314 82 518 82V86C523.523 86 528 81.5228 528 76H524ZM518 70C521.314 70 524 72.6863 524 76H528C528 70.4772 523.523 66 518 66V70ZM512 76C512 72.6863 514.686 70 518 70V66C512.477 66 508 70.4772 508 76H512ZM518 82C514.686 82 512 79.3137 512 76H508C508 81.5228 512.477 86 518 86V82Z" fill="black" mask="url(#path-1-inside-1)"/>
<path d="M345.084 82.8379L350.846 85.0254V87.3984L342.672 83.7559V81.8711L350.846 78.2383V80.6113L345.084 82.8379ZM361.637 85.6895H356.129L354.977 89H352.408L357.779 74.7812H359.996L365.377 89H362.799L361.637 85.6895ZM356.822 83.6973H360.943L358.883 77.7988L356.822 83.6973ZM375.553 83.8242C375.553 85.4583 375.182 86.7637 374.439 87.7402C373.697 88.7103 372.701 89.1953 371.451 89.1953C370.292 89.1953 369.365 88.8145 368.668 88.0527V93.0625H366.295V78.4336H368.482L368.58 79.5078C369.277 78.6615 370.224 78.2383 371.422 78.2383C372.711 78.2383 373.72 78.7201 374.449 79.6836C375.185 80.6406 375.553 81.972 375.553 83.6777V83.8242ZM373.189 83.6191C373.189 82.5645 372.978 81.7279 372.555 81.1094C372.138 80.4909 371.539 80.1816 370.758 80.1816C369.788 80.1816 369.091 80.582 368.668 81.3828V86.0703C369.098 86.8906 369.801 87.3008 370.777 87.3008C371.533 87.3008 372.122 86.998 372.545 86.3926C372.975 85.7806 373.189 84.8561 373.189 83.6191ZM386.822 83.8242C386.822 85.4583 386.451 86.7637 385.709 87.7402C384.967 88.7103 383.971 89.1953 382.721 89.1953C381.562 89.1953 380.634 88.8145 379.938 88.0527V93.0625H377.564V78.4336H379.752L379.85 79.5078C380.546 78.6615 381.493 78.2383 382.691 78.2383C383.98 78.2383 384.99 78.7201 385.719 79.6836C386.454 80.6406 386.822 81.972 386.822 83.6777V83.8242ZM384.459 83.6191C384.459 82.5645 384.247 81.7279 383.824 81.1094C383.408 80.4909 382.809 80.1816 382.027 80.1816C381.057 80.1816 380.361 80.582 379.938 81.3828V86.0703C380.367 86.8906 381.07 87.3008 382.047 87.3008C382.802 87.3008 383.391 86.998 383.814 86.3926C384.244 85.7806 384.459 84.8561 384.459 83.6191ZM389.508 90.2207H387.643L393.238 74.7812H395.104L389.508 90.2207ZM402.818 82.7891L396.783 80.5723V78.2383L405.221 81.8711V83.7559L396.783 87.3887V85.0547L402.818 82.7891Z" fill="black"/>
</g>
<g filter="url(#filter1_d)">
<path d="M123.707 172.707L169.293 218.293C169.746 218.746 170 219.36 170 220C170 220.64 169.746 221.254 169.293 221.707L123.707 267.293C123.254 267.746 122.64 268 122 268C121.36 268 120.746 267.746 120.293 267.293L74.7071 221.707C74.2544 221.254 74 220.64 74 220C74 219.36 74.2544 218.746 74.7071 218.293L120.293 172.707C120.746 172.254 121.36 172 122 172C122.64 172 123.254 172.254 123.707 172.707Z" fill="white"/>
<path d="M123 173.414L168.586 219C168.851 219.265 169 219.625 169 220C169 220.375 168.851 220.735 168.586 221L123 266.586C122.735 266.851 122.375 267 122 267C121.625 267 121.265 266.851 121 266.586L75.4142 221C75.149 220.735 75 220.375 75 220C75 219.625 75.149 219.265 75.4142 219L121 173.414C121.265 173.149 121.625 173 122 173C122.375 173 122.735 173.149 123 173.414Z" stroke="black" stroke-width="2"/>
</g>
<path d="M115.868 199.047V205.603C115.868 206.692 115.526 207.553 114.843 208.187C114.164 208.82 113.234 209.137 112.054 209.137C110.892 209.137 109.969 208.829 109.285 208.214C108.602 207.599 108.253 206.753 108.239 205.678V199.047H110.29V205.616C110.29 206.268 110.445 206.744 110.755 207.045C111.069 207.341 111.502 207.489 112.054 207.489C113.207 207.489 113.792 206.883 113.811 205.671V199.047H115.868ZM121.426 206.956C121.426 206.715 121.305 206.525 121.063 206.389C120.826 206.247 120.444 206.122 119.915 206.013C118.156 205.644 117.276 204.896 117.276 203.771C117.276 203.114 117.548 202.567 118.09 202.13C118.637 201.688 119.35 201.467 120.229 201.467C121.168 201.467 121.918 201.688 122.479 202.13C123.044 202.572 123.326 203.146 123.326 203.853H121.351C121.351 203.57 121.259 203.338 121.077 203.155C120.895 202.968 120.61 202.875 120.223 202.875C119.89 202.875 119.632 202.95 119.45 203.101C119.268 203.251 119.177 203.442 119.177 203.675C119.177 203.894 119.279 204.071 119.484 204.208C119.694 204.34 120.045 204.456 120.537 204.557C121.029 204.652 121.444 204.762 121.781 204.885C122.825 205.268 123.347 205.931 123.347 206.874C123.347 207.549 123.057 208.095 122.479 208.515C121.9 208.929 121.152 209.137 120.236 209.137C119.617 209.137 119.065 209.027 118.582 208.809C118.104 208.585 117.728 208.282 117.454 207.899C117.181 207.512 117.044 207.095 117.044 206.648H118.917C118.935 206.999 119.065 207.268 119.307 207.455C119.548 207.642 119.872 207.735 120.277 207.735C120.656 207.735 120.94 207.665 121.132 207.523C121.328 207.378 121.426 207.188 121.426 206.956ZM128.029 209.137C126.945 209.137 126.061 208.804 125.377 208.139C124.698 207.473 124.358 206.587 124.358 205.479V205.288C124.358 204.545 124.502 203.882 124.789 203.299C125.076 202.711 125.482 202.26 126.006 201.945C126.535 201.626 127.136 201.467 127.811 201.467C128.822 201.467 129.618 201.786 130.196 202.424C130.78 203.062 131.071 203.966 131.071 205.138V205.944H126.361C126.425 206.427 126.617 206.815 126.936 207.106C127.259 207.398 127.667 207.544 128.159 207.544C128.92 207.544 129.515 207.268 129.943 206.717L130.914 207.804C130.618 208.223 130.217 208.551 129.711 208.788C129.205 209.021 128.645 209.137 128.029 209.137ZM127.804 203.066C127.412 203.066 127.093 203.199 126.847 203.463C126.605 203.727 126.45 204.105 126.382 204.598H129.13V204.44C129.121 204.003 129.002 203.666 128.774 203.429C128.547 203.187 128.223 203.066 127.804 203.066ZM136.355 203.456C136.087 203.42 135.85 203.401 135.645 203.401C134.897 203.401 134.407 203.654 134.175 204.16V209H132.199V201.604H134.065L134.12 202.485C134.517 201.806 135.066 201.467 135.768 201.467C135.986 201.467 136.191 201.496 136.383 201.556L136.355 203.456ZM99.2021 223.544C99.5667 223.544 99.863 223.444 100.091 223.243C100.319 223.043 100.437 222.776 100.446 222.443H102.299C102.294 222.945 102.158 223.405 101.889 223.824C101.62 224.239 101.251 224.562 100.781 224.795C100.316 225.023 99.8014 225.137 99.2363 225.137C98.179 225.137 97.3451 224.802 96.7344 224.132C96.1237 223.457 95.8184 222.528 95.8184 221.343V221.213C95.8184 220.074 96.1214 219.164 96.7275 218.485C97.3337 217.806 98.1654 217.467 99.2227 217.467C100.148 217.467 100.888 217.731 101.444 218.26C102.005 218.784 102.29 219.483 102.299 220.358H100.446C100.437 219.976 100.319 219.666 100.091 219.429C99.863 219.187 99.5622 219.066 99.1885 219.066C98.7282 219.066 98.3796 219.235 98.1426 219.572C97.9102 219.905 97.7939 220.447 97.7939 221.199V221.404C97.7939 222.165 97.9102 222.712 98.1426 223.045C98.375 223.378 98.7282 223.544 99.2021 223.544ZM105.354 218.41C105.879 217.781 106.537 217.467 107.33 217.467C108.934 217.467 109.748 218.399 109.771 220.263V225H107.795V220.317C107.795 219.894 107.704 219.581 107.521 219.381C107.339 219.176 107.036 219.073 106.612 219.073C106.034 219.073 105.614 219.297 105.354 219.743V225H103.379V214.5H105.354V218.41ZM115.547 225C115.456 224.822 115.39 224.601 115.349 224.337C114.87 224.87 114.248 225.137 113.482 225.137C112.758 225.137 112.156 224.927 111.678 224.508C111.204 224.089 110.967 223.56 110.967 222.922C110.967 222.138 111.256 221.536 111.835 221.117C112.418 220.698 113.259 220.486 114.357 220.481H115.267V220.058C115.267 219.716 115.178 219.442 115 219.237C114.827 219.032 114.551 218.93 114.173 218.93C113.84 218.93 113.578 219.009 113.387 219.169C113.2 219.328 113.106 219.547 113.106 219.825H111.131C111.131 219.397 111.263 219 111.527 218.636C111.792 218.271 112.165 217.986 112.648 217.781C113.132 217.572 113.674 217.467 114.275 217.467C115.187 217.467 115.909 217.697 116.442 218.157C116.98 218.613 117.249 219.256 117.249 220.085V223.291C117.254 223.993 117.352 224.524 117.543 224.884V225H115.547ZM113.913 223.626C114.205 223.626 114.474 223.562 114.72 223.435C114.966 223.302 115.148 223.127 115.267 222.908V221.637H114.528C113.539 221.637 113.013 221.979 112.949 222.662L112.942 222.778C112.942 223.024 113.029 223.227 113.202 223.387C113.375 223.546 113.612 223.626 113.913 223.626ZM120.585 217.604L120.646 218.458C121.175 217.797 121.884 217.467 122.772 217.467C123.556 217.467 124.14 217.697 124.522 218.157C124.905 218.618 125.101 219.306 125.11 220.222V225H123.135V220.27C123.135 219.85 123.044 219.547 122.861 219.36C122.679 219.169 122.376 219.073 121.952 219.073C121.396 219.073 120.979 219.31 120.701 219.784V225H118.726V217.604H120.585ZM126.327 221.247C126.327 220.112 126.596 219.199 127.134 218.506C127.676 217.813 128.405 217.467 129.321 217.467C130.132 217.467 130.764 217.745 131.215 218.301L131.297 217.604H133.088V224.754C133.088 225.401 132.94 225.964 132.644 226.442C132.352 226.921 131.939 227.285 131.406 227.536C130.873 227.787 130.249 227.912 129.533 227.912C128.991 227.912 128.462 227.803 127.947 227.584C127.432 227.37 127.043 227.092 126.778 226.75L127.653 225.547C128.146 226.098 128.743 226.374 129.444 226.374C129.968 226.374 130.376 226.233 130.668 225.95C130.96 225.672 131.105 225.276 131.105 224.761V224.364C130.65 224.879 130.05 225.137 129.308 225.137C128.419 225.137 127.699 224.79 127.147 224.098C126.601 223.4 126.327 222.478 126.327 221.329V221.247ZM128.303 221.391C128.303 222.061 128.437 222.587 128.706 222.97C128.975 223.348 129.344 223.537 129.813 223.537C130.415 223.537 130.846 223.312 131.105 222.86V219.75C130.841 219.299 130.415 219.073 129.827 219.073C129.353 219.073 128.979 219.267 128.706 219.654C128.437 220.042 128.303 220.62 128.303 221.391ZM138.017 225.137C136.932 225.137 136.048 224.804 135.364 224.139C134.685 223.473 134.346 222.587 134.346 221.479V221.288C134.346 220.545 134.489 219.882 134.776 219.299C135.063 218.711 135.469 218.26 135.993 217.945C136.522 217.626 137.123 217.467 137.798 217.467C138.81 217.467 139.605 217.786 140.184 218.424C140.767 219.062 141.059 219.966 141.059 221.138V221.944H136.349C136.412 222.427 136.604 222.815 136.923 223.106C137.246 223.398 137.654 223.544 138.146 223.544C138.908 223.544 139.502 223.268 139.931 222.717L140.901 223.804C140.605 224.223 140.204 224.551 139.698 224.788C139.192 225.021 138.632 225.137 138.017 225.137ZM137.791 219.066C137.399 219.066 137.08 219.199 136.834 219.463C136.592 219.727 136.437 220.105 136.369 220.598H139.117V220.44C139.108 220.003 138.99 219.666 138.762 219.429C138.534 219.187 138.21 219.066 137.791 219.066ZM146.192 222.956C146.192 222.715 146.072 222.525 145.83 222.389C145.593 222.247 145.21 222.122 144.682 222.013C142.923 221.644 142.043 220.896 142.043 219.771C142.043 219.114 142.314 218.567 142.856 218.13C143.403 217.688 144.117 217.467 144.996 217.467C145.935 217.467 146.685 217.688 147.245 218.13C147.81 218.572 148.093 219.146 148.093 219.853H146.117C146.117 219.57 146.026 219.338 145.844 219.155C145.661 218.968 145.377 218.875 144.989 218.875C144.657 218.875 144.399 218.95 144.217 219.101C144.035 219.251 143.943 219.442 143.943 219.675C143.943 219.894 144.046 220.071 144.251 220.208C144.461 220.34 144.812 220.456 145.304 220.557C145.796 220.652 146.211 220.762 146.548 220.885C147.591 221.268 148.113 221.931 148.113 222.874C148.113 223.549 147.824 224.095 147.245 224.515C146.666 224.929 145.919 225.137 145.003 225.137C144.383 225.137 143.832 225.027 143.349 224.809C142.87 224.585 142.494 224.282 142.221 223.899C141.947 223.512 141.811 223.095 141.811 222.648H143.684C143.702 222.999 143.832 223.268 144.073 223.455C144.315 223.642 144.638 223.735 145.044 223.735C145.422 223.735 145.707 223.665 145.898 223.523C146.094 223.378 146.192 223.188 146.192 222.956ZM108.212 241V235.053H107.111V233.604H108.212V232.975C108.212 232.145 108.449 231.503 108.923 231.047C109.401 230.587 110.069 230.356 110.926 230.356C111.199 230.356 111.534 230.402 111.931 230.493L111.91 232.024C111.746 231.983 111.546 231.963 111.309 231.963C110.566 231.963 110.194 232.312 110.194 233.009V233.604H111.664V235.053H110.194V241H108.212ZM112.382 237.233C112.382 236.5 112.523 235.846 112.806 235.271C113.088 234.697 113.494 234.253 114.022 233.938C114.556 233.624 115.173 233.467 115.875 233.467C116.873 233.467 117.687 233.772 118.315 234.383C118.949 234.993 119.302 235.823 119.375 236.871L119.389 237.377C119.389 238.512 119.072 239.423 118.438 240.111C117.805 240.795 116.955 241.137 115.889 241.137C114.822 241.137 113.97 240.795 113.332 240.111C112.699 239.428 112.382 238.498 112.382 237.322V237.233ZM114.357 237.377C114.357 238.079 114.49 238.617 114.754 238.99C115.018 239.359 115.396 239.544 115.889 239.544C116.367 239.544 116.741 239.362 117.01 238.997C117.279 238.628 117.413 238.04 117.413 237.233C117.413 236.545 117.279 236.012 117.01 235.634C116.741 235.256 116.363 235.066 115.875 235.066C115.392 235.066 115.018 235.256 114.754 235.634C114.49 236.007 114.357 236.589 114.357 237.377ZM124.762 235.456C124.493 235.42 124.256 235.401 124.051 235.401C123.303 235.401 122.813 235.654 122.581 236.16V241H120.605V233.604H122.472L122.526 234.485C122.923 233.806 123.472 233.467 124.174 233.467C124.393 233.467 124.598 233.496 124.789 233.556L124.762 235.456ZM127.571 233.604L127.633 234.431C128.157 233.788 128.866 233.467 129.759 233.467C130.711 233.467 131.365 233.843 131.721 234.595C132.24 233.843 132.981 233.467 133.942 233.467C134.744 233.467 135.341 233.701 135.733 234.171C136.125 234.636 136.321 235.338 136.321 236.276V241H134.339V236.283C134.339 235.864 134.257 235.559 134.093 235.367C133.929 235.171 133.639 235.073 133.225 235.073C132.632 235.073 132.222 235.356 131.994 235.921L132.001 241H130.025V236.29C130.025 235.862 129.941 235.552 129.772 235.36C129.604 235.169 129.317 235.073 128.911 235.073C128.351 235.073 127.945 235.306 127.694 235.771V241H125.719V233.604H127.571Z" fill="black"/>
<g filter="url(#filter2_d)">
<path d="M375.707 300.707L421.293 346.293C421.746 346.746 422 347.36 422 348C422 348.64 421.746 349.254 421.293 349.707L375.707 395.293C375.254 395.746 374.64 396 374 396C373.36 396 372.746 395.746 372.293 395.293L326.707 349.707C326.254 349.254 326 348.64 326 348C326 347.36 326.254 346.746 326.707 346.293L372.293 300.707C372.746 300.254 373.36 300 374 300C374.64 300 375.254 300.254 375.707 300.707Z" fill="#B4FF99"/>
<path d="M375 301.414L420.586 347C420.851 347.265 421 347.625 421 348C421 348.375 420.851 348.735 420.586 349L375 394.586C374.735 394.851 374.375 395 374 395C373.625 395 373.265 394.851 373 394.586L327.414 349C327.149 348.735 327 348.375 327 348C327 347.625 327.149 347.265 327.414 347L373 301.414C373.265 301.149 373.625 301 374 301C374.375 301 374.735 301.149 375 301.414Z" stroke="black" stroke-width="2"/>
</g>
<path d="M350.348 349.233C350.348 348.5 350.489 347.846 350.771 347.271C351.054 346.697 351.46 346.253 351.988 345.938C352.521 345.624 353.139 345.467 353.841 345.467C354.839 345.467 355.652 345.772 356.281 346.383C356.915 346.993 357.268 347.823 357.341 348.871L357.354 349.377C357.354 350.512 357.038 351.423 356.404 352.111C355.771 352.795 354.921 353.137 353.854 353.137C352.788 353.137 351.936 352.795 351.298 352.111C350.664 351.428 350.348 350.498 350.348 349.322V349.233ZM352.323 349.377C352.323 350.079 352.455 350.617 352.72 350.99C352.984 351.359 353.362 351.544 353.854 351.544C354.333 351.544 354.707 351.362 354.976 350.997C355.244 350.628 355.379 350.04 355.379 349.233C355.379 348.545 355.244 348.012 354.976 347.634C354.707 347.256 354.328 347.066 353.841 347.066C353.358 347.066 352.984 347.256 352.72 347.634C352.455 348.007 352.323 348.589 352.323 349.377ZM360.39 345.604L360.451 346.458C360.98 345.797 361.688 345.467 362.577 345.467C363.361 345.467 363.944 345.697 364.327 346.157C364.71 346.618 364.906 347.306 364.915 348.222V353H362.939V348.27C362.939 347.85 362.848 347.547 362.666 347.36C362.484 347.169 362.181 347.073 361.757 347.073C361.201 347.073 360.784 347.31 360.506 347.784V353H358.53V345.604H360.39ZM366.549 353V343.047H369.611C370.486 343.047 371.268 343.245 371.956 343.642C372.649 344.034 373.189 344.594 373.576 345.323C373.964 346.048 374.157 346.873 374.157 347.798V348.256C374.157 349.181 373.966 350.004 373.583 350.724C373.205 351.444 372.669 352.002 371.977 352.398C371.284 352.795 370.502 352.995 369.632 353H366.549ZM368.6 344.708V351.353H369.591C370.393 351.353 371.006 351.09 371.43 350.566C371.854 350.042 372.07 349.293 372.079 348.317V347.791C372.079 346.779 371.869 346.014 371.45 345.494C371.031 344.97 370.418 344.708 369.611 344.708H368.6ZM375.217 349.233C375.217 348.5 375.358 347.846 375.641 347.271C375.923 346.697 376.329 346.253 376.857 345.938C377.391 345.624 378.008 345.467 378.71 345.467C379.708 345.467 380.521 345.772 381.15 346.383C381.784 346.993 382.137 347.823 382.21 348.871L382.224 349.377C382.224 350.512 381.907 351.423 381.273 352.111C380.64 352.795 379.79 353.137 378.724 353.137C377.657 353.137 376.805 352.795 376.167 352.111C375.534 351.428 375.217 350.498 375.217 349.322V349.233ZM377.192 349.377C377.192 350.079 377.325 350.617 377.589 350.99C377.853 351.359 378.231 351.544 378.724 351.544C379.202 351.544 379.576 351.362 379.845 350.997C380.114 350.628 380.248 350.04 380.248 349.233C380.248 348.545 380.114 348.012 379.845 347.634C379.576 347.256 379.198 347.066 378.71 347.066C378.227 347.066 377.853 347.256 377.589 347.634C377.325 348.007 377.192 348.589 377.192 349.377ZM385.259 345.604L385.32 346.458C385.849 345.797 386.558 345.467 387.446 345.467C388.23 345.467 388.813 345.697 389.196 346.157C389.579 346.618 389.775 347.306 389.784 348.222V353H387.809V348.27C387.809 347.85 387.717 347.547 387.535 347.36C387.353 347.169 387.05 347.073 386.626 347.073C386.07 347.073 385.653 347.31 385.375 347.784V353H383.399V345.604H385.259ZM394.692 353.137C393.608 353.137 392.724 352.804 392.04 352.139C391.361 351.473 391.021 350.587 391.021 349.479V349.288C391.021 348.545 391.165 347.882 391.452 347.299C391.739 346.711 392.145 346.26 392.669 345.945C393.198 345.626 393.799 345.467 394.474 345.467C395.485 345.467 396.281 345.786 396.859 346.424C397.443 347.062 397.734 347.966 397.734 349.138V349.944H393.024C393.088 350.427 393.28 350.815 393.599 351.106C393.922 351.398 394.33 351.544 394.822 351.544C395.583 351.544 396.178 351.268 396.606 350.717L397.577 351.804C397.281 352.223 396.88 352.551 396.374 352.788C395.868 353.021 395.308 353.137 394.692 353.137ZM394.467 347.066C394.075 347.066 393.756 347.199 393.51 347.463C393.268 347.727 393.113 348.105 393.045 348.598H395.793V348.44C395.784 348.003 395.665 347.666 395.437 347.429C395.21 347.187 394.886 347.066 394.467 347.066Z" fill="black"/>
<path d="M626 76H498C495.791 76 494 77.7909 494 80V188M494 188L486 180M494 188L502 180" stroke="black" stroke-width="2" stroke-linecap="square"/>
<g filter="url(#filter3_d)">
<mask id="path-11-inside-2" fill="white">
<path fill-rule="evenodd" clip-rule="evenodd" d="M518 196H230V244H518V196ZM494 228C498.418 228 502 224.418 502 220C502 215.582 498.418 212 494 212C489.582 212 486 215.582 486 220C486 224.418 489.582 228 494 228Z"/>
</mask>
<path fill-rule="evenodd" clip-rule="evenodd" d="M518 196H230V244H518V196ZM494 228C498.418 228 502 224.418 502 220C502 215.582 498.418 212 494 212C489.582 212 486 215.582 486 220C486 224.418 489.582 228 494 228Z" fill="#FFC2C2"/>
<path d="M230 196V194H228V196H230ZM518 196H520V194H518V196ZM230 244H228V246H230V244ZM518 244V246H520V244H518ZM230 198H518V194H230V198ZM232 244V196H228V244H232ZM518 242H230V246H518V242ZM516 196V244H520V196H516ZM500 220C500 223.314 497.314 226 494 226V230C499.523 230 504 225.523 504 220H500ZM494 214C497.314 214 500 216.686 500 220H504C504 214.477 499.523 210 494 210V214ZM488 220C488 216.686 490.686 214 494 214V210C488.477 210 484 214.477 484 220H488ZM494 226C490.686 226 488 223.314 488 220H484C484 225.523 488.477 230 494 230V226Z" fill="black" mask="url(#path-11-inside-2)"/>
<path d="M328.404 220.775L332.301 222.149V224.063L326.415 221.568V219.955L332.301 217.46V219.374L328.404 220.775ZM339.219 222.389C339.219 222.001 339.082 221.705 338.809 221.5C338.535 221.29 338.043 221.072 337.332 220.844C336.621 220.611 336.058 220.383 335.644 220.16C334.513 219.549 333.948 218.727 333.948 217.692C333.948 217.155 334.099 216.676 334.399 216.257C334.705 215.833 335.14 215.503 335.705 215.266C336.275 215.029 336.913 214.91 337.619 214.91C338.33 214.91 338.964 215.04 339.52 215.3C340.076 215.555 340.506 215.917 340.812 216.387C341.121 216.856 341.276 217.389 341.276 217.986H339.226C339.226 217.531 339.082 217.177 338.795 216.927C338.508 216.672 338.104 216.544 337.585 216.544C337.084 216.544 336.694 216.651 336.416 216.865C336.138 217.075 335.999 217.353 335.999 217.699C335.999 218.023 336.161 218.294 336.484 218.513C336.812 218.731 337.293 218.937 337.927 219.128C339.093 219.479 339.943 219.914 340.477 220.434C341.01 220.953 341.276 221.6 341.276 222.375C341.276 223.236 340.951 223.913 340.299 224.405C339.647 224.893 338.77 225.137 337.667 225.137C336.901 225.137 336.204 224.998 335.575 224.72C334.946 224.437 334.465 224.052 334.133 223.564C333.805 223.077 333.641 222.512 333.641 221.869H335.698C335.698 222.967 336.354 223.517 337.667 223.517C338.155 223.517 338.535 223.419 338.809 223.223C339.082 223.022 339.219 222.744 339.219 222.389ZM344.626 225H342.644V217.604H344.626V225ZM342.527 215.689C342.527 215.393 342.625 215.149 342.821 214.958C343.022 214.767 343.293 214.671 343.635 214.671C343.972 214.671 344.241 214.767 344.441 214.958C344.642 215.149 344.742 215.393 344.742 215.689C344.742 215.99 344.64 216.236 344.435 216.428C344.234 216.619 343.967 216.715 343.635 216.715C343.302 216.715 343.033 216.619 342.828 216.428C342.628 216.236 342.527 215.99 342.527 215.689ZM348.112 217.604L348.174 218.431C348.698 217.788 349.407 217.467 350.3 217.467C351.252 217.467 351.906 217.843 352.262 218.595C352.781 217.843 353.522 217.467 354.483 217.467C355.285 217.467 355.882 217.701 356.274 218.171C356.666 218.636 356.862 219.338 356.862 220.276V225H354.88V220.283C354.88 219.864 354.798 219.559 354.634 219.367C354.47 219.171 354.18 219.073 353.766 219.073C353.173 219.073 352.763 219.356 352.535 219.921L352.542 225H350.566V220.29C350.566 219.862 350.482 219.552 350.313 219.36C350.145 219.169 349.858 219.073 349.452 219.073C348.892 219.073 348.486 219.306 348.235 219.771V225H346.26V217.604H348.112ZM365.045 221.37C365.045 222.509 364.785 223.423 364.266 224.111C363.751 224.795 363.053 225.137 362.174 225.137C361.426 225.137 360.823 224.877 360.362 224.357V227.844H358.387V217.604H360.219L360.287 218.328C360.766 217.754 361.39 217.467 362.16 217.467C363.072 217.467 363.78 217.804 364.286 218.479C364.792 219.153 365.045 220.083 365.045 221.268V221.37ZM363.069 221.227C363.069 220.538 362.946 220.007 362.7 219.634C362.459 219.26 362.105 219.073 361.641 219.073C361.021 219.073 360.595 219.31 360.362 219.784V222.812C360.604 223.3 361.035 223.544 361.654 223.544C362.598 223.544 363.069 222.771 363.069 221.227ZM368.36 225H366.378V214.5H368.36V225ZM373.398 225.137C372.314 225.137 371.43 224.804 370.746 224.139C370.067 223.473 369.728 222.587 369.728 221.479V221.288C369.728 220.545 369.871 219.882 370.158 219.299C370.445 218.711 370.851 218.26 371.375 217.945C371.904 217.626 372.505 217.467 373.18 217.467C374.191 217.467 374.987 217.786 375.565 218.424C376.149 219.062 376.44 219.966 376.44 221.138V221.944H371.73C371.794 222.427 371.986 222.815 372.305 223.106C372.628 223.398 373.036 223.544 373.528 223.544C374.289 223.544 374.884 223.268 375.312 222.717L376.283 223.804C375.987 224.223 375.586 224.551 375.08 224.788C374.574 225.021 374.014 225.137 373.398 225.137ZM373.173 219.066C372.781 219.066 372.462 219.199 372.216 219.463C371.974 219.727 371.819 220.105 371.751 220.598H374.499V220.44C374.49 220.003 374.371 219.666 374.144 219.429C373.916 219.187 373.592 219.066 373.173 219.066ZM383.687 220.933H379.749V225H377.698V215.047H384.179V216.708H379.749V219.278H383.687V220.933ZM384.78 221.233C384.78 220.5 384.922 219.846 385.204 219.271C385.487 218.697 385.892 218.253 386.421 217.938C386.954 217.624 387.572 217.467 388.273 217.467C389.271 217.467 390.085 217.772 390.714 218.383C391.347 218.993 391.701 219.823 391.773 220.871L391.787 221.377C391.787 222.512 391.47 223.423 390.837 224.111C390.203 224.795 389.354 225.137 388.287 225.137C387.221 225.137 386.368 224.795 385.73 224.111C385.097 223.428 384.78 222.498 384.78 221.322V221.233ZM386.756 221.377C386.756 222.079 386.888 222.617 387.152 222.99C387.417 223.359 387.795 223.544 388.287 223.544C388.766 223.544 389.139 223.362 389.408 222.997C389.677 222.628 389.812 222.04 389.812 221.233C389.812 220.545 389.677 220.012 389.408 219.634C389.139 219.256 388.761 219.066 388.273 219.066C387.79 219.066 387.417 219.256 387.152 219.634C386.888 220.007 386.756 220.589 386.756 221.377ZM397.16 219.456C396.891 219.42 396.654 219.401 396.449 219.401C395.702 219.401 395.212 219.654 394.979 220.16V225H393.004V217.604H394.87L394.925 218.485C395.321 217.806 395.87 217.467 396.572 217.467C396.791 217.467 396.996 217.496 397.188 217.556L397.16 219.456ZM399.97 217.604L400.031 218.431C400.555 217.788 401.264 217.467 402.157 217.467C403.11 217.467 403.764 217.843 404.119 218.595C404.639 217.843 405.379 217.467 406.341 217.467C407.143 217.467 407.74 217.701 408.132 218.171C408.524 218.636 408.72 219.338 408.72 220.276V225H406.737V220.283C406.737 219.864 406.655 219.559 406.491 219.367C406.327 219.171 406.038 219.073 405.623 219.073C405.031 219.073 404.62 219.356 404.393 219.921L404.399 225H402.424V220.29C402.424 219.862 402.34 219.552 402.171 219.36C402.002 219.169 401.715 219.073 401.31 219.073C400.749 219.073 400.343 219.306 400.093 219.771V225H398.117V217.604H399.97ZM410.866 225.854H409.396L413.061 215.047H414.53L410.866 225.854ZM419.514 220.755L415.542 219.367V217.467L421.496 219.962V221.568L415.542 224.07V222.163L419.514 220.755Z" fill="black"/>
</g>
<path d="M170 220L230 220" stroke="black" stroke-width="2" stroke-linecap="square"/>
<path d="M626 92L626 216C626 218.209 624.209 220 622 220L518 220" stroke="black" stroke-width="2"/>
<path d="M518 86H540V66H518C518 66 528 66 528 76C528 86 518 86 518 86Z" fill="#99DBFF"/>
<g filter="url(#filter4_d)">
<mask id="path-17-inside-3" fill="white">
<path d="M558 76C558 84.8366 565.163 92 574 92H678C686.837 92 694 84.8366 694 76C694 67.1634 686.837 60 678 60H574C565.163 60 558 67.1634 558 76Z"/>
</mask>
<path d="M558 76C558 84.8366 565.163 92 574 92H678C686.837 92 694 84.8366 694 76C694 67.1634 686.837 60 678 60H574C565.163 60 558 67.1634 558 76Z" fill="white"/>
<path d="M574 90H678V94H574V90ZM678 62H574V58H678V62ZM574 62C566.268 62 560 68.268 560 76H556C556 66.0589 564.059 58 574 58V62ZM692 76C692 68.268 685.732 62 678 62V58C687.941 58 696 66.0589 696 76H692ZM678 90C685.732 90 692 83.732 692 76H696C696 85.9411 687.941 94 678 94V90ZM574 94C564.059 94 556 85.9411 556 76H560C560 83.732 566.268 90 574 90V94Z" fill="black" mask="url(#path-17-inside-3)"/>
<path d="M577.369 76.249C577.369 77.2288 577.196 78.0879 576.85 78.8262C576.503 79.5645 576.007 80.1341 575.359 80.5352C574.717 80.9362 573.979 81.1367 573.145 81.1367C572.32 81.1367 571.584 80.9385 570.937 80.542C570.289 80.1455 569.788 79.5804 569.433 78.8467C569.077 78.1084 568.897 77.2607 568.893 76.3037V75.8115C568.893 74.8317 569.068 73.9704 569.419 73.2275C569.774 72.4801 570.273 71.9082 570.916 71.5117C571.563 71.1107 572.301 70.9102 573.131 70.9102C573.96 70.9102 574.696 71.1107 575.339 71.5117C575.986 71.9082 576.485 72.4801 576.836 73.2275C577.191 73.9704 577.369 74.8294 577.369 75.8047V76.249ZM575.291 75.7979C575.291 74.7542 575.104 73.9613 574.73 73.4189C574.357 72.8766 573.824 72.6055 573.131 72.6055C572.443 72.6055 571.912 72.8743 571.538 73.4121C571.164 73.9453 570.975 74.7292 570.971 75.7637V76.249C570.971 77.2653 571.158 78.0537 571.531 78.6143C571.905 79.1748 572.443 79.4551 573.145 79.4551C573.833 79.4551 574.361 79.1862 574.73 78.6484C575.1 78.1061 575.286 77.3177 575.291 76.2832V75.7979ZM580.548 73.6035L580.609 74.458C581.138 73.7972 581.847 73.4668 582.735 73.4668C583.519 73.4668 584.103 73.6969 584.485 74.1572C584.868 74.6175 585.064 75.3057 585.073 76.2217V81H583.098V76.2695C583.098 75.8503 583.007 75.5472 582.824 75.3604C582.642 75.1689 582.339 75.0732 581.915 75.0732C581.359 75.0732 580.942 75.3102 580.664 75.7842V81H578.688V73.6035H580.548ZM586.707 81V71.0469H589.77C590.645 71.0469 591.426 71.2451 592.114 71.6416C592.807 72.0335 593.347 72.5941 593.734 73.3232C594.122 74.0479 594.315 74.8727 594.315 75.7979V76.2559C594.315 77.181 594.124 78.0036 593.741 78.7236C593.363 79.4437 592.827 80.002 592.135 80.3984C591.442 80.7949 590.66 80.9954 589.79 81H586.707ZM588.758 72.708V79.3525H589.749C590.551 79.3525 591.164 79.0905 591.588 78.5664C592.012 78.0423 592.228 77.2926 592.237 76.3174V75.791C592.237 74.7793 592.028 74.0137 591.608 73.4941C591.189 72.9701 590.576 72.708 589.77 72.708H588.758ZM595.375 77.2334C595.375 76.4997 595.516 75.8457 595.799 75.2715C596.081 74.6973 596.487 74.2529 597.016 73.9385C597.549 73.624 598.166 73.4668 598.868 73.4668C599.866 73.4668 600.68 73.7721 601.309 74.3828C601.942 74.9935 602.295 75.8229 602.368 76.8711L602.382 77.377C602.382 78.5117 602.065 79.4232 601.432 80.1113C600.798 80.7949 599.948 81.1367 598.882 81.1367C597.815 81.1367 596.963 80.7949 596.325 80.1113C595.692 79.4277 595.375 78.498 595.375 77.3223V77.2334ZM597.351 77.377C597.351 78.0788 597.483 78.6165 597.747 78.9902C598.011 79.3594 598.39 79.5439 598.882 79.5439C599.36 79.5439 599.734 79.3617 600.003 78.9971C600.272 78.6279 600.406 78.04 600.406 77.2334C600.406 76.5452 600.272 76.012 600.003 75.6338C599.734 75.2555 599.356 75.0664 598.868 75.0664C598.385 75.0664 598.011 75.2555 597.747 75.6338C597.483 76.0075 597.351 76.5885 597.351 77.377ZM605.417 73.6035L605.479 74.458C606.007 73.7972 606.716 73.4668 607.604 73.4668C608.388 73.4668 608.972 73.6969 609.354 74.1572C609.737 74.6175 609.933 75.3057 609.942 76.2217V81H607.967V76.2695C607.967 75.8503 607.876 75.5472 607.693 75.3604C607.511 75.1689 607.208 75.0732 606.784 75.0732C606.228 75.0732 605.811 75.3102 605.533 75.7842V81H603.558V73.6035H605.417ZM614.851 81.1367C613.766 81.1367 612.882 80.804 612.198 80.1387C611.519 79.4733 611.18 78.5869 611.18 77.4795V77.2881C611.18 76.5452 611.323 75.8822 611.61 75.2988C611.897 74.7109 612.303 74.2598 612.827 73.9453C613.356 73.6263 613.957 73.4668 614.632 73.4668C615.644 73.4668 616.439 73.7858 617.018 74.4238C617.601 75.0618 617.893 75.9665 617.893 77.1377V77.9443H613.183C613.246 78.4274 613.438 78.8148 613.757 79.1064C614.08 79.3981 614.488 79.5439 614.98 79.5439C615.742 79.5439 616.336 79.2682 616.765 78.7168L617.735 79.8037C617.439 80.223 617.038 80.5511 616.532 80.7881C616.026 81.0205 615.466 81.1367 614.851 81.1367ZM614.625 75.0664C614.233 75.0664 613.914 75.1986 613.668 75.4629C613.426 75.7272 613.271 76.1055 613.203 76.5977H615.951V76.4404C615.942 76.0029 615.824 75.6657 615.596 75.4287C615.368 75.1872 615.044 75.0664 614.625 75.0664ZM626.513 78.9561C626.513 78.7145 626.392 78.5254 626.15 78.3887C625.913 78.2474 625.531 78.1221 625.002 78.0127C623.243 77.6436 622.363 76.8962 622.363 75.7705C622.363 75.1143 622.634 74.5674 623.177 74.1299C623.724 73.6878 624.437 73.4668 625.316 73.4668C626.255 73.4668 627.005 73.6878 627.565 74.1299C628.131 74.5719 628.413 75.1462 628.413 75.8525H626.438C626.438 75.57 626.346 75.3376 626.164 75.1553C625.982 74.9684 625.697 74.875 625.31 74.875C624.977 74.875 624.719 74.9502 624.537 75.1006C624.355 75.251 624.264 75.4424 624.264 75.6748C624.264 75.8936 624.366 76.0713 624.571 76.208C624.781 76.3402 625.132 76.4564 625.624 76.5566C626.116 76.6523 626.531 76.7617 626.868 76.8848C627.912 77.2676 628.434 77.9307 628.434 78.874C628.434 79.5485 628.144 80.0954 627.565 80.5146C626.987 80.9294 626.239 81.1367 625.323 81.1367C624.703 81.1367 624.152 81.0273 623.669 80.8086C623.19 80.5853 622.814 80.2822 622.541 79.8994C622.268 79.512 622.131 79.0951 622.131 78.6484H624.004C624.022 78.9993 624.152 79.2682 624.394 79.4551C624.635 79.6419 624.959 79.7354 625.364 79.7354C625.743 79.7354 626.027 79.6647 626.219 79.5234C626.415 79.3776 626.513 79.1885 626.513 78.9561ZM633.116 81.1367C632.032 81.1367 631.147 80.804 630.464 80.1387C629.785 79.4733 629.445 78.5869 629.445 77.4795V77.2881C629.445 76.5452 629.589 75.8822 629.876 75.2988C630.163 74.7109 630.569 74.2598 631.093 73.9453C631.621 73.6263 632.223 73.4668 632.897 73.4668C633.909 73.4668 634.704 73.7858 635.283 74.4238C635.867 75.0618 636.158 75.9665 636.158 77.1377V77.9443H631.448C631.512 78.4274 631.703 78.8148 632.022 79.1064C632.346 79.3981 632.754 79.5439 633.246 79.5439C634.007 79.5439 634.602 79.2682 635.03 78.7168L636.001 79.8037C635.705 80.223 635.304 80.5511 634.798 80.7881C634.292 81.0205 633.731 81.1367 633.116 81.1367ZM632.891 75.0664C632.499 75.0664 632.18 75.1986 631.934 75.4629C631.692 75.7272 631.537 76.1055 631.469 76.5977H634.217V76.4404C634.208 76.0029 634.089 75.6657 633.861 75.4287C633.633 75.1872 633.31 75.0664 632.891 75.0664ZM639.651 71.7852V73.6035H640.916V75.0527H639.651V78.7441C639.651 79.0176 639.704 79.2135 639.809 79.332C639.913 79.4505 640.114 79.5098 640.41 79.5098C640.629 79.5098 640.823 79.4938 640.991 79.4619V80.959C640.604 81.0775 640.205 81.1367 639.795 81.1367C638.41 81.1367 637.703 80.4372 637.676 79.0381V75.0527H636.596V73.6035H637.676V71.7852H639.651ZM646.022 78.9561C646.022 78.7145 645.902 78.5254 645.66 78.3887C645.423 78.2474 645.04 78.1221 644.512 78.0127C642.753 77.6436 641.873 76.8962 641.873 75.7705C641.873 75.1143 642.144 74.5674 642.687 74.1299C643.233 73.6878 643.947 73.4668 644.826 73.4668C645.765 73.4668 646.515 73.6878 647.075 74.1299C647.64 74.5719 647.923 75.1462 647.923 75.8525H645.947C645.947 75.57 645.856 75.3376 645.674 75.1553C645.492 74.9684 645.207 74.875 644.819 74.875C644.487 74.875 644.229 74.9502 644.047 75.1006C643.865 75.251 643.773 75.4424 643.773 75.6748C643.773 75.8936 643.876 76.0713 644.081 76.208C644.291 76.3402 644.642 76.4564 645.134 76.5566C645.626 76.6523 646.041 76.7617 646.378 76.8848C647.422 77.2676 647.943 77.9307 647.943 78.874C647.943 79.5485 647.654 80.0954 647.075 80.5146C646.496 80.9294 645.749 81.1367 644.833 81.1367C644.213 81.1367 643.662 81.0273 643.179 80.8086C642.7 80.5853 642.324 80.2822 642.051 79.8994C641.777 79.512 641.641 79.0951 641.641 78.6484H643.514C643.532 78.9993 643.662 79.2682 643.903 79.4551C644.145 79.6419 644.468 79.7354 644.874 79.7354C645.252 79.7354 645.537 79.6647 645.729 79.5234C645.924 79.3776 646.022 79.1885 646.022 78.9561ZM656.714 78.9561C656.714 78.7145 656.593 78.5254 656.352 78.3887C656.115 78.2474 655.732 78.1221 655.203 78.0127C653.444 77.6436 652.564 76.8962 652.564 75.7705C652.564 75.1143 652.836 74.5674 653.378 74.1299C653.925 73.6878 654.638 73.4668 655.518 73.4668C656.456 73.4668 657.206 73.6878 657.767 74.1299C658.332 74.5719 658.614 75.1462 658.614 75.8525H656.639C656.639 75.57 656.548 75.3376 656.365 75.1553C656.183 74.9684 655.898 74.875 655.511 74.875C655.178 74.875 654.921 74.9502 654.738 75.1006C654.556 75.251 654.465 75.4424 654.465 75.6748C654.465 75.8936 654.567 76.0713 654.772 76.208C654.982 76.3402 655.333 76.4564 655.825 76.5566C656.317 76.6523 656.732 76.7617 657.069 76.8848C658.113 77.2676 658.635 77.9307 658.635 78.874C658.635 79.5485 658.345 80.0954 657.767 80.5146C657.188 80.9294 656.44 81.1367 655.524 81.1367C654.905 81.1367 654.353 81.0273 653.87 80.8086C653.392 80.5853 653.016 80.2822 652.742 79.8994C652.469 79.512 652.332 79.0951 652.332 78.6484H654.205C654.223 78.9993 654.353 79.2682 654.595 79.4551C654.836 79.6419 655.16 79.7354 655.565 79.7354C655.944 79.7354 656.229 79.6647 656.42 79.5234C656.616 79.3776 656.714 79.1885 656.714 78.9561ZM662.278 71.7852V73.6035H663.543V75.0527H662.278V78.7441C662.278 79.0176 662.331 79.2135 662.436 79.332C662.54 79.4505 662.741 79.5098 663.037 79.5098C663.256 79.5098 663.45 79.4938 663.618 79.4619V80.959C663.231 81.0775 662.832 81.1367 662.422 81.1367C661.036 81.1367 660.33 80.4372 660.303 79.0381V75.0527H659.223V73.6035H660.303V71.7852H662.278ZM668.93 81C668.839 80.8223 668.772 80.6012 668.731 80.3369C668.253 80.8701 667.631 81.1367 666.865 81.1367C666.141 81.1367 665.539 80.9271 665.061 80.5078C664.587 80.0885 664.35 79.5599 664.35 78.9219C664.35 78.138 664.639 77.5365 665.218 77.1172C665.801 76.6979 666.642 76.486 667.74 76.4814H668.649V76.0576C668.649 75.7158 668.561 75.4424 668.383 75.2373C668.21 75.0322 667.934 74.9297 667.556 74.9297C667.223 74.9297 666.961 75.0094 666.77 75.1689C666.583 75.3285 666.489 75.5472 666.489 75.8252H664.514C664.514 75.3968 664.646 75.0003 664.91 74.6357C665.174 74.2712 665.548 73.9863 666.031 73.7812C666.514 73.5716 667.057 73.4668 667.658 73.4668C668.57 73.4668 669.292 73.6969 669.825 74.1572C670.363 74.613 670.632 75.2555 670.632 76.085V79.291C670.636 79.9928 670.734 80.5238 670.926 80.8838V81H668.93ZM667.296 79.626C667.588 79.626 667.856 79.5622 668.103 79.4346C668.349 79.3024 668.531 79.127 668.649 78.9082V77.6367H667.911C666.922 77.6367 666.396 77.9785 666.332 78.6621L666.325 78.7783C666.325 79.0244 666.412 79.2272 666.585 79.3867C666.758 79.5462 666.995 79.626 667.296 79.626ZM674.515 71.7852V73.6035H675.779V75.0527H674.515V78.7441C674.515 79.0176 674.567 79.2135 674.672 79.332C674.777 79.4505 674.977 79.5098 675.273 79.5098C675.492 79.5098 675.686 79.4938 675.854 79.4619V80.959C675.467 81.0775 675.068 81.1367 674.658 81.1367C673.273 81.1367 672.566 80.4372 672.539 79.0381V75.0527H671.459V73.6035H672.539V71.7852H674.515ZM680.284 81.1367C679.2 81.1367 678.315 80.804 677.632 80.1387C676.953 79.4733 676.613 78.5869 676.613 77.4795V77.2881C676.613 76.5452 676.757 75.8822 677.044 75.2988C677.331 74.7109 677.737 74.2598 678.261 73.9453C678.789 73.6263 679.391 73.4668 680.065 73.4668C681.077 73.4668 681.872 73.7858 682.451 74.4238C683.035 75.0618 683.326 75.9665 683.326 77.1377V77.9443H678.616C678.68 78.4274 678.871 78.8148 679.19 79.1064C679.514 79.3981 679.922 79.5439 680.414 79.5439C681.175 79.5439 681.77 79.2682 682.198 78.7168L683.169 79.8037C682.873 80.223 682.472 80.5511 681.966 80.7881C681.46 81.0205 680.899 81.1367 680.284 81.1367ZM680.059 75.0664C679.667 75.0664 679.348 75.1986 679.102 75.4629C678.86 75.7272 678.705 76.1055 678.637 76.5977H681.385V76.4404C681.376 76.0029 681.257 75.6657 681.029 75.4287C680.801 75.1872 680.478 75.0664 680.059 75.0664Z" fill="black"/>
</g>
<g filter="url(#filter5_d)">
<mask id="path-20-inside-4" fill="white">
<path d="M390 148C390 156.837 397.163 164 406 164H566C574.837 164 582 156.837 582 148C582 139.163 574.837 132 566 132H406C397.163 132 390 139.163 390 148Z"/>
</mask>
<path d="M390 148C390 156.837 397.163 164 406 164H566C574.837 164 582 156.837 582 148C582 139.163 574.837 132 566 132H406C397.163 132 390 139.163 390 148Z" fill="white"/>
<path d="M406 162H566V166H406V162ZM566 134H406V130H566V134ZM406 134C398.268 134 392 140.268 392 148H388C388 138.059 396.059 130 406 130V134ZM580 148C580 140.268 573.732 134 566 134V130C575.941 130 584 138.059 584 148H580ZM566 162C573.732 162 580 155.732 580 148H584C584 157.941 575.941 166 566 166V162ZM406 166C396.059 166 388 157.941 388 148H392C392 155.732 398.268 162 406 162V166Z" fill="black" mask="url(#path-20-inside-4)"/>
<path d="M408.214 153H406.163L402.171 146.451V153H400.12V143.047H402.171L406.17 149.609V143.047H408.214V153ZM413.279 153.137C412.195 153.137 411.311 152.804 410.627 152.139C409.948 151.473 409.608 150.587 409.608 149.479V149.288C409.608 148.545 409.752 147.882 410.039 147.299C410.326 146.711 410.732 146.26 411.256 145.945C411.785 145.626 412.386 145.467 413.061 145.467C414.072 145.467 414.868 145.786 415.446 146.424C416.03 147.062 416.321 147.966 416.321 149.138V149.944H411.611C411.675 150.427 411.867 150.815 412.186 151.106C412.509 151.398 412.917 151.544 413.409 151.544C414.17 151.544 414.765 151.268 415.193 150.717L416.164 151.804C415.868 152.223 415.467 152.551 414.961 152.788C414.455 153.021 413.895 153.137 413.279 153.137ZM413.054 147.066C412.662 147.066 412.343 147.199 412.097 147.463C411.855 147.727 411.7 148.105 411.632 148.598H414.38V148.44C414.371 148.003 414.252 147.666 414.024 147.429C413.797 147.187 413.473 147.066 413.054 147.066ZM423.882 150.313L424.853 145.604H426.76L424.873 153H423.219L421.817 148.345L420.416 153H418.769L416.882 145.604H418.789L419.753 150.307L421.106 145.604H422.535L423.882 150.313ZM435.236 150.956C435.236 150.715 435.116 150.525 434.874 150.389C434.637 150.247 434.254 150.122 433.726 150.013C431.966 149.644 431.087 148.896 431.087 147.771C431.087 147.114 431.358 146.567 431.9 146.13C432.447 145.688 433.16 145.467 434.04 145.467C434.979 145.467 435.729 145.688 436.289 146.13C436.854 146.572 437.137 147.146 437.137 147.853H435.161C435.161 147.57 435.07 147.338 434.888 147.155C434.705 146.968 434.421 146.875 434.033 146.875C433.701 146.875 433.443 146.95 433.261 147.101C433.078 147.251 432.987 147.442 432.987 147.675C432.987 147.894 433.09 148.071 433.295 148.208C433.505 148.34 433.855 148.456 434.348 148.557C434.84 148.652 435.255 148.762 435.592 148.885C436.635 149.268 437.157 149.931 437.157 150.874C437.157 151.549 436.868 152.095 436.289 152.515C435.71 152.929 434.963 153.137 434.047 153.137C433.427 153.137 432.876 153.027 432.393 152.809C431.914 152.585 431.538 152.282 431.265 151.899C430.991 151.512 430.854 151.095 430.854 150.648H432.728C432.746 150.999 432.876 151.268 433.117 151.455C433.359 151.642 433.682 151.735 434.088 151.735C434.466 151.735 434.751 151.665 434.942 151.523C435.138 151.378 435.236 151.188 435.236 150.956ZM440.801 143.785V145.604H442.065V147.053H440.801V150.744C440.801 151.018 440.853 151.214 440.958 151.332C441.063 151.451 441.263 151.51 441.56 151.51C441.778 151.51 441.972 151.494 442.141 151.462V152.959C441.753 153.077 441.354 153.137 440.944 153.137C439.559 153.137 438.853 152.437 438.825 151.038V147.053H437.745V145.604H438.825V143.785H440.801ZM447.452 153C447.361 152.822 447.295 152.601 447.254 152.337C446.775 152.87 446.153 153.137 445.388 153.137C444.663 153.137 444.062 152.927 443.583 152.508C443.109 152.089 442.872 151.56 442.872 150.922C442.872 150.138 443.161 149.536 443.74 149.117C444.324 148.698 445.164 148.486 446.263 148.481H447.172V148.058C447.172 147.716 447.083 147.442 446.905 147.237C446.732 147.032 446.456 146.93 446.078 146.93C445.745 146.93 445.483 147.009 445.292 147.169C445.105 147.328 445.012 147.547 445.012 147.825H443.036C443.036 147.397 443.168 147 443.433 146.636C443.697 146.271 444.071 145.986 444.554 145.781C445.037 145.572 445.579 145.467 446.181 145.467C447.092 145.467 447.814 145.697 448.348 146.157C448.885 146.613 449.154 147.256 449.154 148.085V151.291C449.159 151.993 449.257 152.524 449.448 152.884V153H447.452ZM445.818 151.626C446.11 151.626 446.379 151.562 446.625 151.435C446.871 151.302 447.053 151.127 447.172 150.908V149.637H446.434C445.445 149.637 444.918 149.979 444.854 150.662L444.848 150.778C444.848 151.024 444.934 151.227 445.107 151.387C445.281 151.546 445.518 151.626 445.818 151.626ZM453.037 143.785V145.604H454.302V147.053H453.037V150.744C453.037 151.018 453.09 151.214 453.194 151.332C453.299 151.451 453.5 151.51 453.796 151.51C454.015 151.51 454.208 151.494 454.377 151.462V152.959C453.99 153.077 453.591 153.137 453.181 153.137C451.795 153.137 451.089 152.437 451.062 151.038V147.053H449.981V145.604H451.062V143.785H453.037ZM458.807 153.137C457.722 153.137 456.838 152.804 456.154 152.139C455.475 151.473 455.136 150.587 455.136 149.479V149.288C455.136 148.545 455.279 147.882 455.566 147.299C455.854 146.711 456.259 146.26 456.783 145.945C457.312 145.626 457.913 145.467 458.588 145.467C459.6 145.467 460.395 145.786 460.974 146.424C461.557 147.062 461.849 147.966 461.849 149.138V149.944H457.139C457.202 150.427 457.394 150.815 457.713 151.106C458.036 151.398 458.444 151.544 458.937 151.544C459.698 151.544 460.292 151.268 460.721 150.717L461.691 151.804C461.395 152.223 460.994 152.551 460.488 152.788C459.982 153.021 459.422 153.137 458.807 153.137ZM458.581 147.066C458.189 147.066 457.87 147.199 457.624 147.463C457.382 147.727 457.228 148.105 457.159 148.598H459.907V148.44C459.898 148.003 459.78 147.666 459.552 147.429C459.324 147.187 459 147.066 458.581 147.066ZM469.539 151.544C469.904 151.544 470.2 151.444 470.428 151.243C470.656 151.043 470.774 150.776 470.783 150.443H472.636C472.631 150.945 472.494 151.405 472.226 151.824C471.957 152.239 471.588 152.562 471.118 152.795C470.653 153.023 470.138 153.137 469.573 153.137C468.516 153.137 467.682 152.802 467.071 152.132C466.461 151.457 466.155 150.528 466.155 149.343V149.213C466.155 148.074 466.458 147.164 467.064 146.485C467.671 145.806 468.502 145.467 469.56 145.467C470.485 145.467 471.225 145.731 471.781 146.26C472.342 146.784 472.627 147.483 472.636 148.358H470.783C470.774 147.976 470.656 147.666 470.428 147.429C470.2 147.187 469.899 147.066 469.525 147.066C469.065 147.066 468.716 147.235 468.479 147.572C468.247 147.905 468.131 148.447 468.131 149.199V149.404C468.131 150.165 468.247 150.712 468.479 151.045C468.712 151.378 469.065 151.544 469.539 151.544ZM478.05 153C477.959 152.822 477.893 152.601 477.852 152.337C477.373 152.87 476.751 153.137 475.985 153.137C475.261 153.137 474.659 152.927 474.181 152.508C473.707 152.089 473.47 151.56 473.47 150.922C473.47 150.138 473.759 149.536 474.338 149.117C474.921 148.698 475.762 148.486 476.86 148.481H477.77V148.058C477.77 147.716 477.681 147.442 477.503 147.237C477.33 147.032 477.054 146.93 476.676 146.93C476.343 146.93 476.081 147.009 475.89 147.169C475.703 147.328 475.609 147.547 475.609 147.825H473.634C473.634 147.397 473.766 147 474.03 146.636C474.295 146.271 474.668 145.986 475.151 145.781C475.634 145.572 476.177 145.467 476.778 145.467C477.69 145.467 478.412 145.697 478.945 146.157C479.483 146.613 479.752 147.256 479.752 148.085V151.291C479.757 151.993 479.854 152.524 480.046 152.884V153H478.05ZM476.416 151.626C476.708 151.626 476.977 151.562 477.223 151.435C477.469 151.302 477.651 151.127 477.77 150.908V149.637H477.031C476.042 149.637 475.516 149.979 475.452 150.662L475.445 150.778C475.445 151.024 475.532 151.227 475.705 151.387C475.878 151.546 476.115 151.626 476.416 151.626ZM485.699 152.248C485.212 152.84 484.537 153.137 483.676 153.137C482.883 153.137 482.277 152.909 481.857 152.453C481.443 151.997 481.231 151.33 481.222 150.45V145.604H483.197V150.382C483.197 151.152 483.548 151.537 484.25 151.537C484.92 151.537 485.38 151.305 485.631 150.84V145.604H487.613V153H485.754L485.699 152.248ZM493.109 150.956C493.109 150.715 492.989 150.525 492.747 150.389C492.51 150.247 492.127 150.122 491.599 150.013C489.84 149.644 488.96 148.896 488.96 147.771C488.96 147.114 489.231 146.567 489.773 146.13C490.32 145.688 491.034 145.467 491.913 145.467C492.852 145.467 493.602 145.688 494.162 146.13C494.727 146.572 495.01 147.146 495.01 147.853H493.034C493.034 147.57 492.943 147.338 492.761 147.155C492.578 146.968 492.294 146.875 491.906 146.875C491.574 146.875 491.316 146.95 491.134 147.101C490.951 147.251 490.86 147.442 490.86 147.675C490.86 147.894 490.963 148.071 491.168 148.208C491.378 148.34 491.729 148.456 492.221 148.557C492.713 148.652 493.128 148.762 493.465 148.885C494.508 149.268 495.03 149.931 495.03 150.874C495.03 151.549 494.741 152.095 494.162 152.515C493.583 152.929 492.836 153.137 491.92 153.137C491.3 153.137 490.749 153.027 490.266 152.809C489.787 152.585 489.411 152.282 489.138 151.899C488.864 151.512 488.728 151.095 488.728 150.648H490.601C490.619 150.999 490.749 151.268 490.99 151.455C491.232 151.642 491.555 151.735 491.961 151.735C492.339 151.735 492.624 151.665 492.815 151.523C493.011 151.378 493.109 151.188 493.109 150.956ZM499.713 153.137C498.628 153.137 497.744 152.804 497.061 152.139C496.382 151.473 496.042 150.587 496.042 149.479V149.288C496.042 148.545 496.186 147.882 496.473 147.299C496.76 146.711 497.165 146.26 497.689 145.945C498.218 145.626 498.82 145.467 499.494 145.467C500.506 145.467 501.301 145.786 501.88 146.424C502.463 147.062 502.755 147.966 502.755 149.138V149.944H498.045C498.109 150.427 498.3 150.815 498.619 151.106C498.943 151.398 499.351 151.544 499.843 151.544C500.604 151.544 501.199 151.268 501.627 150.717L502.598 151.804C502.301 152.223 501.9 152.551 501.395 152.788C500.889 153.021 500.328 153.137 499.713 153.137ZM499.487 147.066C499.095 147.066 498.776 147.199 498.53 147.463C498.289 147.727 498.134 148.105 498.065 148.598H500.813V148.44C500.804 148.003 500.686 147.666 500.458 147.429C500.23 147.187 499.907 147.066 499.487 147.066ZM507.889 150.956C507.889 150.715 507.768 150.525 507.526 150.389C507.289 150.247 506.907 150.122 506.378 150.013C504.619 149.644 503.739 148.896 503.739 147.771C503.739 147.114 504.01 146.567 504.553 146.13C505.1 145.688 505.813 145.467 506.692 145.467C507.631 145.467 508.381 145.688 508.941 146.13C509.507 146.572 509.789 147.146 509.789 147.853H507.813C507.813 147.57 507.722 147.338 507.54 147.155C507.358 146.968 507.073 146.875 506.686 146.875C506.353 146.875 506.095 146.95 505.913 147.101C505.731 147.251 505.64 147.442 505.64 147.675C505.64 147.894 505.742 148.071 505.947 148.208C506.157 148.34 506.508 148.456 507 148.557C507.492 148.652 507.907 148.762 508.244 148.885C509.288 149.268 509.81 149.931 509.81 150.874C509.81 151.549 509.52 152.095 508.941 152.515C508.363 152.929 507.615 153.137 506.699 153.137C506.079 153.137 505.528 153.027 505.045 152.809C504.566 152.585 504.19 152.282 503.917 151.899C503.644 151.512 503.507 151.095 503.507 150.648H505.38C505.398 150.999 505.528 151.268 505.77 151.455C506.011 151.642 506.335 151.735 506.74 151.735C507.118 151.735 507.403 151.665 507.595 151.523C507.791 151.378 507.889 151.188 507.889 150.956ZM518.73 147.456C518.462 147.42 518.225 147.401 518.02 147.401C517.272 147.401 516.782 147.654 516.55 148.16V153H514.574V145.604H516.44L516.495 146.485C516.892 145.806 517.441 145.467 518.143 145.467C518.361 145.467 518.566 145.496 518.758 145.556L518.73 147.456ZM522.955 153.137C521.87 153.137 520.986 152.804 520.303 152.139C519.624 151.473 519.284 150.587 519.284 149.479V149.288C519.284 148.545 519.428 147.882 519.715 147.299C520.002 146.711 520.408 146.26 520.932 145.945C521.46 145.626 522.062 145.467 522.736 145.467C523.748 145.467 524.543 145.786 525.122 146.424C525.705 147.062 525.997 147.966 525.997 149.138V149.944H521.287C521.351 150.427 521.542 150.815 521.861 151.106C522.185 151.398 522.593 151.544 523.085 151.544C523.846 151.544 524.441 151.268 524.869 150.717L525.84 151.804C525.544 152.223 525.143 152.551 524.637 152.788C524.131 153.021 523.57 153.137 522.955 153.137ZM522.729 147.066C522.338 147.066 522.019 147.199 521.772 147.463C521.531 147.727 521.376 148.105 521.308 148.598H524.056V148.44C524.047 148.003 523.928 147.666 523.7 147.429C523.472 147.187 523.149 147.066 522.729 147.066ZM530.967 149.534H527.118V147.941H530.967V149.534ZM536.709 147.456C536.44 147.42 536.203 147.401 535.998 147.401C535.251 147.401 534.761 147.654 534.528 148.16V153H532.553V145.604H534.419L534.474 146.485C534.87 145.806 535.419 145.467 536.121 145.467C536.34 145.467 536.545 145.496 536.736 145.556L536.709 147.456ZM540.934 153.137C539.849 153.137 538.965 152.804 538.281 152.139C537.602 151.473 537.263 150.587 537.263 149.479V149.288C537.263 148.545 537.406 147.882 537.693 147.299C537.98 146.711 538.386 146.26 538.91 145.945C539.439 145.626 540.04 145.467 540.715 145.467C541.727 145.467 542.522 145.786 543.101 146.424C543.684 147.062 543.976 147.966 543.976 149.138V149.944H539.266C539.329 150.427 539.521 150.815 539.84 151.106C540.163 151.398 540.571 151.544 541.063 151.544C541.825 151.544 542.419 151.268 542.848 150.717L543.818 151.804C543.522 152.223 543.121 152.551 542.615 152.788C542.109 153.021 541.549 153.137 540.934 153.137ZM540.708 147.066C540.316 147.066 539.997 147.199 539.751 147.463C539.509 147.727 539.354 148.105 539.286 148.598H542.034V148.44C542.025 148.003 541.907 147.666 541.679 147.429C541.451 147.187 541.127 147.066 540.708 147.066ZM546.922 145.604L546.983 146.458C547.512 145.797 548.221 145.467 549.109 145.467C549.893 145.467 550.477 145.697 550.859 146.157C551.242 146.618 551.438 147.306 551.447 148.222V153H549.472V148.27C549.472 147.85 549.381 147.547 549.198 147.36C549.016 147.169 548.713 147.073 548.289 147.073C547.733 147.073 547.316 147.31 547.038 147.784V153H545.062V145.604H546.922ZM552.644 149.247C552.644 148.094 552.901 147.176 553.416 146.492C553.936 145.809 554.644 145.467 555.542 145.467C556.262 145.467 556.857 145.736 557.326 146.273V142.5H559.309V153H557.524L557.429 152.214C556.937 152.829 556.303 153.137 555.528 153.137C554.658 153.137 553.958 152.795 553.43 152.111C552.906 151.423 552.644 150.468 552.644 149.247ZM554.619 149.391C554.619 150.083 554.74 150.614 554.981 150.983C555.223 151.353 555.574 151.537 556.034 151.537C556.645 151.537 557.076 151.28 557.326 150.765V147.846C557.08 147.331 556.654 147.073 556.048 147.073C555.095 147.073 554.619 147.846 554.619 149.391ZM564.244 153.137C563.16 153.137 562.275 152.804 561.592 152.139C560.913 151.473 560.573 150.587 560.573 149.479V149.288C560.573 148.545 560.717 147.882 561.004 147.299C561.291 146.711 561.697 146.26 562.221 145.945C562.749 145.626 563.351 145.467 564.025 145.467C565.037 145.467 565.832 145.786 566.411 146.424C566.994 147.062 567.286 147.966 567.286 149.138V149.944H562.576C562.64 150.427 562.831 150.815 563.15 151.106C563.474 151.398 563.882 151.544 564.374 151.544C565.135 151.544 565.73 151.268 566.158 150.717L567.129 151.804C566.833 152.223 566.432 152.551 565.926 152.788C565.42 153.021 564.859 153.137 564.244 153.137ZM564.019 147.066C563.627 147.066 563.308 147.199 563.062 147.463C562.82 147.727 562.665 148.105 562.597 148.598H565.345V148.44C565.336 148.003 565.217 147.666 564.989 147.429C564.761 147.187 564.438 147.066 564.019 147.066ZM572.57 147.456C572.301 147.42 572.064 147.401 571.859 147.401C571.112 147.401 570.622 147.654 570.39 148.16V153H568.414V145.604H570.28L570.335 146.485C570.731 145.806 571.281 145.467 571.982 145.467C572.201 145.467 572.406 145.496 572.598 145.556L572.57 147.456Z" fill="black"/>
</g>
<path d="M326 348L258 348C255.791 348 254 346.209 254 344L254 244" stroke="black" stroke-width="2" stroke-linecap="square"/>
<path d="M422 348L490 348C492.209 348 494 346.209 494 344L494 224C494 221.791 495.791 220 498 220L502 220" stroke="black" stroke-width="2" stroke-linecap="square"/>
<g filter="url(#filter6_d)">
<mask id="path-25-inside-5" fill="white">
<path d="M414 300C414 308.837 421.163 316 430 316H542C550.837 316 558 308.837 558 300C558 291.163 550.837 284 542 284H430C421.163 284 414 291.163 414 300Z"/>
</mask>
<path d="M414 300C414 308.837 421.163 316 430 316H542C550.837 316 558 308.837 558 300C558 291.163 550.837 284 542 284H430C421.163 284 414 291.163 414 300Z" fill="white"/>
<path d="M430 314H542V318H430V314ZM542 286H430V282H542V286ZM430 286C422.268 286 416 292.268 416 300H412C412 290.059 420.059 282 430 282V286ZM556 300C556 292.268 549.732 286 542 286V282C551.941 282 560 290.059 560 300H556ZM542 314C549.732 314 556 307.732 556 300H560C560 309.941 551.941 318 542 318V314ZM430 318C420.059 318 412 309.941 412 300H416C416 307.732 422.268 314 430 314V318Z" fill="black" mask="url(#path-25-inside-5)"/>
<path d="M435.531 300.249C435.531 301.229 435.358 302.088 435.012 302.826C434.665 303.564 434.169 304.134 433.521 304.535C432.879 304.936 432.141 305.137 431.307 305.137C430.482 305.137 429.746 304.938 429.099 304.542C428.451 304.146 427.95 303.58 427.595 302.847C427.239 302.108 427.059 301.261 427.055 300.304V299.812C427.055 298.832 427.23 297.97 427.581 297.228C427.937 296.48 428.436 295.908 429.078 295.512C429.725 295.111 430.464 294.91 431.293 294.91C432.122 294.91 432.858 295.111 433.501 295.512C434.148 295.908 434.647 296.48 434.998 297.228C435.354 297.97 435.531 298.829 435.531 299.805V300.249ZM433.453 299.798C433.453 298.754 433.266 297.961 432.893 297.419C432.519 296.877 431.986 296.605 431.293 296.605C430.605 296.605 430.074 296.874 429.7 297.412C429.326 297.945 429.137 298.729 429.133 299.764V300.249C429.133 301.265 429.32 302.054 429.693 302.614C430.067 303.175 430.605 303.455 431.307 303.455C431.995 303.455 432.523 303.186 432.893 302.648C433.262 302.106 433.449 301.318 433.453 300.283V299.798ZM438.71 297.604L438.771 298.458C439.3 297.797 440.009 297.467 440.897 297.467C441.681 297.467 442.265 297.697 442.647 298.157C443.03 298.618 443.226 299.306 443.235 300.222V305H441.26V300.27C441.26 299.85 441.169 299.547 440.986 299.36C440.804 299.169 440.501 299.073 440.077 299.073C439.521 299.073 439.104 299.31 438.826 299.784V305H436.851V297.604H438.71ZM444.869 305V295.047H447.932C448.807 295.047 449.588 295.245 450.276 295.642C450.969 296.034 451.509 296.594 451.896 297.323C452.284 298.048 452.478 298.873 452.478 299.798V300.256C452.478 301.181 452.286 302.004 451.903 302.724C451.525 303.444 450.99 304.002 450.297 304.398C449.604 304.795 448.823 304.995 447.952 305H444.869ZM446.92 296.708V303.353H447.911C448.713 303.353 449.326 303.09 449.75 302.566C450.174 302.042 450.39 301.293 450.399 300.317V299.791C450.399 298.779 450.19 298.014 449.771 297.494C449.351 296.97 448.738 296.708 447.932 296.708H446.92ZM453.537 301.233C453.537 300.5 453.678 299.846 453.961 299.271C454.243 298.697 454.649 298.253 455.178 297.938C455.711 297.624 456.328 297.467 457.03 297.467C458.028 297.467 458.842 297.772 459.471 298.383C460.104 298.993 460.457 299.823 460.53 300.871L460.544 301.377C460.544 302.512 460.227 303.423 459.594 304.111C458.96 304.795 458.11 305.137 457.044 305.137C455.978 305.137 455.125 304.795 454.487 304.111C453.854 303.428 453.537 302.498 453.537 301.322V301.233ZM455.513 301.377C455.513 302.079 455.645 302.617 455.909 302.99C456.174 303.359 456.552 303.544 457.044 303.544C457.522 303.544 457.896 303.362 458.165 302.997C458.434 302.628 458.568 302.04 458.568 301.233C458.568 300.545 458.434 300.012 458.165 299.634C457.896 299.256 457.518 299.066 457.03 299.066C456.547 299.066 456.174 299.256 455.909 299.634C455.645 300.007 455.513 300.589 455.513 301.377ZM463.579 297.604L463.641 298.458C464.169 297.797 464.878 297.467 465.767 297.467C466.55 297.467 467.134 297.697 467.517 298.157C467.899 298.618 468.095 299.306 468.104 300.222V305H466.129V300.27C466.129 299.85 466.038 299.547 465.855 299.36C465.673 299.169 465.37 299.073 464.946 299.073C464.39 299.073 463.973 299.31 463.695 299.784V305H461.72V297.604H463.579ZM473.013 305.137C471.928 305.137 471.044 304.804 470.36 304.139C469.681 303.473 469.342 302.587 469.342 301.479V301.288C469.342 300.545 469.485 299.882 469.772 299.299C470.06 298.711 470.465 298.26 470.989 297.945C471.518 297.626 472.119 297.467 472.794 297.467C473.806 297.467 474.601 297.786 475.18 298.424C475.763 299.062 476.055 299.966 476.055 301.138V301.944H471.345C471.409 302.427 471.6 302.815 471.919 303.106C472.243 303.398 472.65 303.544 473.143 303.544C473.904 303.544 474.498 303.268 474.927 302.717L475.897 303.804C475.601 304.223 475.2 304.551 474.694 304.788C474.188 305.021 473.628 305.137 473.013 305.137ZM472.787 299.066C472.395 299.066 472.076 299.199 471.83 299.463C471.589 299.727 471.434 300.105 471.365 300.598H474.113V300.44C474.104 300.003 473.986 299.666 473.758 299.429C473.53 299.187 473.206 299.066 472.787 299.066ZM480.382 301.247C480.382 300.112 480.651 299.199 481.188 298.506C481.731 297.813 482.46 297.467 483.376 297.467C484.187 297.467 484.818 297.745 485.27 298.301L485.352 297.604H487.143V304.754C487.143 305.401 486.994 305.964 486.698 306.442C486.407 306.921 485.994 307.285 485.461 307.536C484.928 307.787 484.303 307.912 483.588 307.912C483.046 307.912 482.517 307.803 482.002 307.584C481.487 307.37 481.097 307.092 480.833 306.75L481.708 305.547C482.2 306.098 482.797 306.374 483.499 306.374C484.023 306.374 484.431 306.233 484.723 305.95C485.014 305.672 485.16 305.276 485.16 304.761V304.364C484.704 304.879 484.105 305.137 483.362 305.137C482.474 305.137 481.754 304.79 481.202 304.098C480.655 303.4 480.382 302.478 480.382 301.329V301.247ZM482.357 301.391C482.357 302.061 482.492 302.587 482.761 302.97C483.03 303.348 483.399 303.537 483.868 303.537C484.47 303.537 484.9 303.312 485.16 302.86V299.75C484.896 299.299 484.47 299.073 483.882 299.073C483.408 299.073 483.034 299.267 482.761 299.654C482.492 300.042 482.357 300.62 482.357 301.391ZM492.823 299.456C492.554 299.42 492.317 299.401 492.112 299.401C491.365 299.401 490.875 299.654 490.643 300.16V305H488.667V297.604H490.533L490.588 298.485C490.984 297.806 491.534 297.467 492.235 297.467C492.454 297.467 492.659 297.496 492.851 297.556L492.823 299.456ZM497.861 305C497.77 304.822 497.704 304.601 497.663 304.337C497.185 304.87 496.562 305.137 495.797 305.137C495.072 305.137 494.471 304.927 493.992 304.508C493.518 304.089 493.281 303.56 493.281 302.922C493.281 302.138 493.571 301.536 494.149 301.117C494.733 300.698 495.574 300.486 496.672 300.481H497.581V300.058C497.581 299.716 497.492 299.442 497.314 299.237C497.141 299.032 496.866 298.93 496.487 298.93C496.155 298.93 495.893 299.009 495.701 299.169C495.514 299.328 495.421 299.547 495.421 299.825H493.445C493.445 299.397 493.577 299 493.842 298.636C494.106 298.271 494.48 297.986 494.963 297.781C495.446 297.572 495.988 297.467 496.59 297.467C497.501 297.467 498.224 297.697 498.757 298.157C499.295 298.613 499.563 299.256 499.563 300.085V303.291C499.568 303.993 499.666 304.524 499.857 304.884V305H497.861ZM496.228 303.626C496.519 303.626 496.788 303.562 497.034 303.435C497.28 303.302 497.463 303.127 497.581 302.908V301.637H496.843C495.854 301.637 495.327 301.979 495.264 302.662L495.257 302.778C495.257 303.024 495.343 303.227 495.517 303.387C495.69 303.546 495.927 303.626 496.228 303.626ZM507.746 301.37C507.746 302.555 507.493 303.48 506.987 304.146C506.481 304.806 505.775 305.137 504.868 305.137C504.066 305.137 503.426 304.829 502.947 304.214L502.858 305H501.081V294.5H503.057V298.267C503.512 297.733 504.112 297.467 504.854 297.467C505.757 297.467 506.463 297.799 506.974 298.465C507.489 299.126 507.746 300.058 507.746 301.261V301.37ZM505.771 301.227C505.771 300.479 505.652 299.935 505.415 299.593C505.178 299.246 504.825 299.073 504.355 299.073C503.727 299.073 503.294 299.331 503.057 299.846V302.765C503.298 303.284 503.736 303.544 504.369 303.544C505.007 303.544 505.426 303.229 505.627 302.601C505.723 302.3 505.771 301.842 505.771 301.227ZM512.976 302.956C512.976 302.715 512.855 302.525 512.613 302.389C512.376 302.247 511.993 302.122 511.465 302.013C509.706 301.644 508.826 300.896 508.826 299.771C508.826 299.114 509.097 298.567 509.64 298.13C510.187 297.688 510.9 297.467 511.779 297.467C512.718 297.467 513.468 297.688 514.028 298.13C514.593 298.572 514.876 299.146 514.876 299.853H512.9C512.9 299.57 512.809 299.338 512.627 299.155C512.445 298.968 512.16 298.875 511.772 298.875C511.44 298.875 511.182 298.95 511 299.101C510.818 299.251 510.727 299.442 510.727 299.675C510.727 299.894 510.829 300.071 511.034 300.208C511.244 300.34 511.595 300.456 512.087 300.557C512.579 300.652 512.994 300.762 513.331 300.885C514.375 301.268 514.896 301.931 514.896 302.874C514.896 303.549 514.607 304.095 514.028 304.515C513.45 304.929 512.702 305.137 511.786 305.137C511.166 305.137 510.615 305.027 510.132 304.809C509.653 304.585 509.277 304.282 509.004 303.899C508.73 303.512 508.594 303.095 508.594 302.648H510.467C510.485 302.999 510.615 303.268 510.856 303.455C511.098 303.642 511.422 303.735 511.827 303.735C512.205 303.735 512.49 303.665 512.682 303.523C512.878 303.378 512.976 303.188 512.976 302.956ZM519.354 301.247C519.354 300.094 519.611 299.176 520.126 298.492C520.646 297.809 521.354 297.467 522.252 297.467C522.972 297.467 523.567 297.736 524.036 298.273V294.5H526.019V305H524.234L524.139 304.214C523.646 304.829 523.013 305.137 522.238 305.137C521.368 305.137 520.668 304.795 520.14 304.111C519.616 303.423 519.354 302.468 519.354 301.247ZM521.329 301.391C521.329 302.083 521.45 302.614 521.691 302.983C521.933 303.353 522.284 303.537 522.744 303.537C523.355 303.537 523.785 303.28 524.036 302.765V299.846C523.79 299.331 523.364 299.073 522.758 299.073C521.805 299.073 521.329 299.846 521.329 301.391ZM531.836 305C531.745 304.822 531.679 304.601 531.638 304.337C531.159 304.87 530.537 305.137 529.771 305.137C529.047 305.137 528.445 304.927 527.967 304.508C527.493 304.089 527.256 303.56 527.256 302.922C527.256 302.138 527.545 301.536 528.124 301.117C528.707 300.698 529.548 300.486 530.646 300.481H531.556V300.058C531.556 299.716 531.467 299.442 531.289 299.237C531.116 299.032 530.84 298.93 530.462 298.93C530.129 298.93 529.867 299.009 529.676 299.169C529.489 299.328 529.396 299.547 529.396 299.825H527.42C527.42 299.397 527.552 299 527.816 298.636C528.081 298.271 528.454 297.986 528.938 297.781C529.421 297.572 529.963 297.467 530.564 297.467C531.476 297.467 532.198 297.697 532.731 298.157C533.269 298.613 533.538 299.256 533.538 300.085V303.291C533.543 303.993 533.641 304.524 533.832 304.884V305H531.836ZM530.202 303.626C530.494 303.626 530.763 303.562 531.009 303.435C531.255 303.302 531.437 303.127 531.556 302.908V301.637H530.817C529.828 301.637 529.302 301.979 529.238 302.662L529.231 302.778C529.231 303.024 529.318 303.227 529.491 303.387C529.664 303.546 529.901 303.626 530.202 303.626ZM537.421 295.785V297.604H538.686V299.053H537.421V302.744C537.421 303.018 537.473 303.214 537.578 303.332C537.683 303.451 537.883 303.51 538.18 303.51C538.398 303.51 538.592 303.494 538.761 303.462V304.959C538.373 305.077 537.975 305.137 537.564 305.137C536.179 305.137 535.473 304.437 535.445 303.038V299.053H534.365V297.604H535.445V295.785H537.421ZM544.072 305C543.981 304.822 543.915 304.601 543.874 304.337C543.396 304.87 542.773 305.137 542.008 305.137C541.283 305.137 540.682 304.927 540.203 304.508C539.729 304.089 539.492 303.56 539.492 302.922C539.492 302.138 539.782 301.536 540.36 301.117C540.944 300.698 541.785 300.486 542.883 300.481H543.792V300.058C543.792 299.716 543.703 299.442 543.525 299.237C543.352 299.032 543.076 298.93 542.698 298.93C542.366 298.93 542.104 299.009 541.912 299.169C541.725 299.328 541.632 299.547 541.632 299.825H539.656C539.656 299.397 539.788 299 540.053 298.636C540.317 298.271 540.691 297.986 541.174 297.781C541.657 297.572 542.199 297.467 542.801 297.467C543.712 297.467 544.435 297.697 544.968 298.157C545.506 298.613 545.774 299.256 545.774 300.085V303.291C545.779 303.993 545.877 304.524 546.068 304.884V305H544.072ZM542.438 303.626C542.73 303.626 542.999 303.562 543.245 303.435C543.491 303.302 543.674 303.127 543.792 302.908V301.637H543.054C542.065 301.637 541.538 301.979 541.475 302.662L541.468 302.778C541.468 303.024 541.554 303.227 541.728 303.387C541.901 303.546 542.138 303.626 542.438 303.626Z" fill="black"/>
</g>
<defs>
<filter id="filter0_d" x="206" y="52" width="336" height="380" filterUnits="userSpaceOnUse" color-interpolation-filters="sRGB">
<feFlood flood-opacity="0" result="BackgroundImageFix"/>
<feColorMatrix in="SourceAlpha" type="matrix" values="0 0 0 0 0 0 0 0 0 0 0 0 0 0 0 0 0 0 127 0"/>
<feOffset dy="4"/>
<feColorMatrix type="matrix" values="0 0 0 0 0 0 0 0 0 0 0 0 0 0 0 0 0 0 1 0"/>
<feBlend mode="normal" in2="BackgroundImageFix" result="effect1_dropShadow"/>
<feBlend mode="normal" in="SourceGraphic" in2="effect1_dropShadow" result="shape"/>
</filter>
<filter id="filter1_d" x="74" y="172" width="96" height="100" filterUnits="userSpaceOnUse" color-interpolation-filters="sRGB">
<feFlood flood-opacity="0" result="BackgroundImageFix"/>
<feColorMatrix in="SourceAlpha" type="matrix" values="0 0 0 0 0 0 0 0 0 0 0 0 0 0 0 0 0 0 127 0"/>
<feOffset dy="4"/>
<feColorMatrix type="matrix" values="0 0 0 0 0 0 0 0 0 0 0 0 0 0 0 0 0 0 1 0"/>
<feBlend mode="normal" in2="BackgroundImageFix" result="effect1_dropShadow"/>
<feBlend mode="normal" in="SourceGraphic" in2="effect1_dropShadow" result="shape"/>
</filter>
<filter id="filter2_d" x="326" y="300" width="96" height="100" filterUnits="userSpaceOnUse" color-interpolation-filters="sRGB">
<feFlood flood-opacity="0" result="BackgroundImageFix"/>
<feColorMatrix in="SourceAlpha" type="matrix" values="0 0 0 0 0 0 0 0 0 0 0 0 0 0 0 0 0 0 127 0"/>
<feOffset dy="4"/>
<feColorMatrix type="matrix" values="0 0 0 0 0 0 0 0 0 0 0 0 0 0 0 0 0 0 1 0"/>
<feBlend mode="normal" in2="BackgroundImageFix" result="effect1_dropShadow"/>
<feBlend mode="normal" in="SourceGraphic" in2="effect1_dropShadow" result="shape"/>
</filter>
<filter id="filter3_d" x="230" y="196" width="288" height="52" filterUnits="userSpaceOnUse" color-interpolation-filters="sRGB">
<feFlood flood-opacity="0" result="BackgroundImageFix"/>
<feColorMatrix in="SourceAlpha" type="matrix" values="0 0 0 0 0 0 0 0 0 0 0 0 0 0 0 0 0 0 127 0"/>
<feOffset dy="4"/>
<feColorMatrix type="matrix" values="0 0 0 0 0 0 0 0 0 0 0 0 0 0 0 0 0 0 1 0"/>
<feBlend mode="normal" in2="BackgroundImageFix" result="effect1_dropShadow"/>
<feBlend mode="normal" in="SourceGraphic" in2="effect1_dropShadow" result="shape"/>
</filter>
<filter id="filter4_d" x="558" y="60" width="136" height="36" filterUnits="userSpaceOnUse" color-interpolation-filters="sRGB">
<feFlood flood-opacity="0" result="BackgroundImageFix"/>
<feColorMatrix in="SourceAlpha" type="matrix" values="0 0 0 0 0 0 0 0 0 0 0 0 0 0 0 0 0 0 127 0"/>
<feOffset dy="4"/>
<feColorMatrix type="matrix" values="0 0 0 0 0 0 0 0 0 0 0 0 0 0 0 0 0 0 1 0"/>
<feBlend mode="normal" in2="BackgroundImageFix" result="effect1_dropShadow"/>
<feBlend mode="normal" in="SourceGraphic" in2="effect1_dropShadow" result="shape"/>
</filter>
<filter id="filter5_d" x="390" y="132" width="192" height="36" filterUnits="userSpaceOnUse" color-interpolation-filters="sRGB">
<feFlood flood-opacity="0" result="BackgroundImageFix"/>
<feColorMatrix in="SourceAlpha" type="matrix" values="0 0 0 0 0 0 0 0 0 0 0 0 0 0 0 0 0 0 127 0"/>
<feOffset dy="4"/>
<feColorMatrix type="matrix" values="0 0 0 0 0 0 0 0 0 0 0 0 0 0 0 0 0 0 1 0"/>
<feBlend mode="normal" in2="BackgroundImageFix" result="effect1_dropShadow"/>
<feBlend mode="normal" in="SourceGraphic" in2="effect1_dropShadow" result="shape"/>
</filter>
<filter id="filter6_d" x="414" y="284" width="144" height="36" filterUnits="userSpaceOnUse" color-interpolation-filters="sRGB">
<feFlood flood-opacity="0" result="BackgroundImageFix"/>
<feColorMatrix in="SourceAlpha" type="matrix" values="0 0 0 0 0 0 0 0 0 0 0 0 0 0 0 0 0 0 127 0"/>
<feOffset dy="4"/>
<feColorMatrix type="matrix" values="0 0 0 0 0 0 0 0 0 0 0 0 0 0 0 0 0 0 1 0"/>
<feBlend mode="normal" in2="BackgroundImageFix" result="effect1_dropShadow"/>
<feBlend mode="normal" in="SourceGraphic" in2="effect1_dropShadow" result="shape"/>
</filter>
</defs>
</svg>
