<svg width="216" height="192" viewBox="0 0 216 192" fill="none" xmlns="http://www.w3.org/2000/svg">
<mask id="path-1-outside-1" maskUnits="userSpaceOnUse" x="29.9014" y="30" width="145" height="148" fill="black">
<rect fill="white" x="29.9014" y="30" width="145" height="148"/>
<path fill-rule="evenodd" clip-rule="evenodd" d="M48.5005 64.2668C60.2511 46.0542 80.7182 34 104 34C130.681 34 153.667 49.8325 164.07 72.6187L155.689 69.5682C155.17 69.3793 154.596 69.6469 154.407 70.1659C154.218 70.6848 154.486 71.2587 155.005 71.4476L165.636 75.3171C166.155 75.506 166.729 75.2384 166.918 74.7194L170.788 64.088C170.976 63.569 170.709 62.9952 170.19 62.8063C169.671 62.6174 169.097 62.885 168.908 63.404L165.871 71.7479C155.145 48.2966 131.477 32 104 32C80.0105 32 58.9233 44.4233 46.8199 63.1825L48.5005 64.2668ZM42.5886 70.7637L34.2437 73.801C33.7247 73.9899 33.1508 73.7223 32.9619 73.2034C32.7731 72.6844 33.0406 72.1105 33.5596 71.9217L44.191 68.0521C44.71 67.8632 45.2838 68.1308 45.4727 68.6498L49.3423 79.2812C49.5311 79.8002 49.2636 80.374 48.7446 80.5629C48.2256 80.7518 47.6518 80.4842 47.4629 79.9653L44.4127 71.5851C40.3019 80.1898 38 89.8249 38 100C38.0001 133.444 62.8756 161.079 95.1331 165.41L94.867 167.392C61.63 162.93 36.0001 134.459 36 100C36 89.5358 38.3644 79.6212 42.5886 70.7637ZM167.193 80.8939C169.018 86.9407 170 93.3548 170 100C170 136.451 140.451 166 104 166C103.815 166 103.63 165.999 103.445 165.998L109.736 159.707C110.127 159.317 110.127 158.683 109.736 158.293C109.345 157.902 108.712 157.902 108.322 158.293L100.322 166.293C99.9313 166.683 99.9313 167.317 100.322 167.707L108.322 175.707C108.712 176.098 109.345 176.098 109.736 175.707C110.127 175.317 110.127 174.683 109.736 174.293L103.441 167.998C103.627 167.999 103.813 168 104 168C141.555 168 172 137.555 172 100C172 93.1568 170.989 86.548 169.107 80.3158L167.193 80.8939Z"/>
</mask>
<path fill-rule="evenodd" clip-rule="evenodd" d="M48.5005 64.2668C60.2511 46.0542 80.7182 34 104 34C130.681 34 153.667 49.8325 164.07 72.6187L155.689 69.5682C155.17 69.3793 154.596 69.6469 154.407 70.1659C154.218 70.6848 154.486 71.2587 155.005 71.4476L165.636 75.3171C166.155 75.506 166.729 75.2384 166.918 74.7194L170.788 64.088C170.976 63.569 170.709 62.9952 170.19 62.8063C169.671 62.6174 169.097 62.885 168.908 63.404L165.871 71.7479C155.145 48.2966 131.477 32 104 32C80.0105 32 58.9233 44.4233 46.8199 63.1825L48.5005 64.2668ZM42.5886 70.7637L34.2437 73.801C33.7247 73.9899 33.1508 73.7223 32.9619 73.2034C32.7731 72.6844 33.0406 72.1105 33.5596 71.9217L44.191 68.0521C44.71 67.8632 45.2838 68.1308 45.4727 68.6498L49.3423 79.2812C49.5311 79.8002 49.2636 80.374 48.7446 80.5629C48.2256 80.7518 47.6518 80.4842 47.4629 79.9653L44.4127 71.5851C40.3019 80.1898 38 89.8249 38 100C38.0001 133.444 62.8756 161.079 95.1331 165.41L94.867 167.392C61.63 162.93 36.0001 134.459 36 100C36 89.5358 38.3644 79.6212 42.5886 70.7637ZM167.193 80.8939C169.018 86.9407 170 93.3548 170 100C170 136.451 140.451 166 104 166C103.815 166 103.63 165.999 103.445 165.998L109.736 159.707C110.127 159.317 110.127 158.683 109.736 158.293C109.345 157.902 108.712 157.902 108.322 158.293L100.322 166.293C99.9313 166.683 99.9313 167.317 100.322 167.707L108.322 175.707C108.712 176.098 109.345 176.098 109.736 175.707C110.127 175.317 110.127 174.683 109.736 174.293L103.441 167.998C103.627 167.999 103.813 168 104 168C141.555 168 172 137.555 172 100C172 93.1568 170.989 86.548 169.107 80.3158L167.193 80.8939Z" fill="black"/>
<path d="M104 34L104 32L104 34ZM48.5005 64.2668L47.4162 65.9473C47.8619 66.2349 48.4036 66.3336 48.9221 66.2218C49.4406 66.11 49.8935 65.7968 50.181 65.3511L48.5005 64.2668ZM164.07 72.6187L163.386 74.4981C164.144 74.7738 164.992 74.5679 165.539 73.9758C166.086 73.3838 166.224 72.5213 165.89 71.7881L164.07 72.6187ZM155.689 69.5682L155.005 71.4476L155.005 71.4476L155.689 69.5682ZM154.407 70.1659L156.287 70.8499L156.287 70.8499L154.407 70.1659ZM155.005 71.4476L155.689 69.5682L155.689 69.5682L155.005 71.4476ZM165.636 75.3171L166.32 73.4377L166.32 73.4377L165.636 75.3171ZM166.918 74.7194L165.039 74.0354L165.039 74.0354L166.918 74.7194ZM170.788 64.088L172.667 64.7721L172.667 64.772L170.788 64.088ZM170.19 62.8063L170.874 60.9269L170.874 60.9269L170.19 62.8063ZM168.908 63.404L167.029 62.7199L167.029 62.7199L168.908 63.404ZM165.871 71.7479L164.052 72.5798C164.39 73.3179 165.14 73.7788 165.951 73.7463C166.762 73.7139 167.473 73.1946 167.751 72.432L165.871 71.7479ZM104 32L104 34L104 32ZM46.8199 63.1825L45.1393 62.0982C44.5405 63.0263 44.8075 64.2642 45.7356 64.863L46.8199 63.1825ZM42.5886 70.7637L44.3938 71.6247C44.7434 70.8917 44.6151 70.0201 44.069 69.419C43.523 68.8178 42.6677 68.6066 41.9046 68.8843L42.5886 70.7637ZM34.2437 73.801L34.9277 75.6804L34.9277 75.6804L34.2437 73.801ZM32.9619 73.2034L31.0826 73.8874L31.0826 73.8874L32.9619 73.2034ZM33.5596 71.9217L34.2437 73.801L34.2437 73.801L33.5596 71.9217ZM44.191 68.0521L43.507 66.1728L43.507 66.1728L44.191 68.0521ZM45.4727 68.6498L43.5934 69.3338L43.5934 69.3339L45.4727 68.6498ZM49.3423 79.2812L51.2216 78.5972L51.2216 78.5972L49.3423 79.2812ZM48.7446 80.5629L49.4286 82.4423L49.4286 82.4423L48.7446 80.5629ZM47.4629 79.9653L49.3423 79.2812L49.3423 79.2812L47.4629 79.9653ZM44.4127 71.5851L46.2921 70.901C46.0166 70.1441 45.3139 69.6263 44.5093 69.5874C43.7047 69.5485 42.9553 69.9961 42.6081 70.7229L44.4127 71.5851ZM38 100L40 100L40 100L38 100ZM95.1331 165.41L97.1153 165.676C97.1859 165.15 97.0447 164.618 96.7229 164.196C96.4011 163.775 95.9249 163.498 95.3992 163.427L95.1331 165.41ZM94.867 167.392L94.6008 169.374C95.6956 169.521 96.7022 168.753 96.8492 167.658L94.867 167.392ZM36 100L34 100L36 100ZM167.193 80.8939L166.614 78.9792C166.107 79.1326 165.681 79.4813 165.43 79.9488C165.179 80.4163 165.125 80.9642 165.278 81.472L167.193 80.8939ZM104 166L104 168L104 168L104 166ZM103.445 165.998L102.031 164.584C101.461 165.153 101.289 166.01 101.594 166.755C101.9 167.501 102.623 167.991 103.429 167.998L103.445 165.998ZM109.736 159.707L108.322 158.293L108.322 158.293L109.736 159.707ZM100.322 166.293L101.736 167.707L101.736 167.707L100.322 166.293ZM100.322 167.707L101.736 166.293L101.736 166.293L100.322 167.707ZM108.322 175.707L106.908 177.121L106.908 177.121L108.322 175.707ZM109.736 174.293L108.322 175.707L108.322 175.707L109.736 174.293ZM103.441 167.998L103.457 165.998C102.645 165.991 101.91 166.476 101.596 167.225C101.283 167.974 101.453 168.838 102.027 169.412L103.441 167.998ZM104 168L104 170L104 170L104 168ZM169.107 80.3158L171.022 79.7377C170.868 79.2299 170.52 78.8038 170.052 78.5532C169.585 78.3025 169.037 78.2478 168.529 78.4011L169.107 80.3158ZM104 32C80.0106 32 58.9233 44.4232 46.8199 63.1825L50.181 65.3511C61.579 47.6852 81.4257 36 104 36L104 32ZM165.89 71.7881C155.173 48.3158 131.493 32 104 32L104 36C129.87 36 152.161 51.3492 162.251 73.4494L165.89 71.7881ZM155.005 71.4476L163.386 74.4981L164.754 70.7393L156.373 67.6888L155.005 71.4476ZM156.287 70.8499C156.098 71.3689 155.524 71.6365 155.005 71.4476L156.373 67.6888C154.816 67.1221 153.094 67.9249 152.528 69.4818L156.287 70.8499ZM155.689 69.5682C156.208 69.7571 156.475 70.3309 156.287 70.8499L152.528 69.4818C151.961 71.0387 152.764 72.7603 154.321 73.327L155.689 69.5682ZM166.32 73.4377L155.689 69.5682L154.321 73.327L164.952 77.1965L166.32 73.4377ZM165.039 74.0354C165.227 73.5164 165.801 73.2488 166.32 73.4377L164.952 77.1965C166.509 77.7632 168.231 76.9604 168.797 75.4034L165.039 74.0354ZM168.908 63.404L165.039 74.0354L168.797 75.4035L172.667 64.7721L168.908 63.404ZM169.506 64.6857C168.987 64.4968 168.719 63.923 168.908 63.404L172.667 64.772C173.234 63.2151 172.431 61.4936 170.874 60.9269L169.506 64.6857ZM170.787 64.088C170.599 64.607 170.025 64.8746 169.506 64.6857L170.874 60.9269C169.317 60.3602 167.595 61.163 167.029 62.7199L170.787 64.088ZM167.751 72.432L170.787 64.088L167.029 62.7199L163.992 71.0639L167.751 72.432ZM104 34C130.666 34 153.64 49.8138 164.052 72.5798L167.69 70.9161C156.651 46.7795 132.288 30 104 30L104 34ZM48.5005 64.2668C60.2512 46.0542 80.7182 34 104 34L104 30C79.3029 30 57.5954 42.7923 45.1393 62.0982L48.5005 64.2668ZM49.5848 62.5862L47.9042 61.5019L45.7356 64.863L47.4162 65.9473L49.5848 62.5862ZM41.9046 68.8843L33.5596 71.9217L34.9277 75.6804L43.2727 72.6431L41.9046 68.8843ZM33.5596 71.9217C34.0786 71.7328 34.6524 72.0004 34.8413 72.5193L31.0826 73.8874C31.6492 75.4443 33.3708 76.2471 34.9277 75.6804L33.5596 71.9217ZM34.8413 72.5193C35.0302 73.0383 34.7626 73.6121 34.2437 73.801L32.8756 70.0423C31.3186 70.6089 30.5159 72.3305 31.0826 73.8874L34.8413 72.5193ZM34.2437 73.801L44.8751 69.9315L43.507 66.1728L32.8756 70.0423L34.2437 73.801ZM44.8751 69.9315C44.3561 70.1204 43.7822 69.8528 43.5934 69.3338L47.3521 67.9658C46.7854 66.4088 45.0639 65.6061 43.507 66.1728L44.8751 69.9315ZM43.5934 69.3339L47.4629 79.9653L51.2216 78.5972L47.3521 67.9658L43.5934 69.3339ZM47.4629 79.9653C47.274 79.4463 47.5416 78.8724 48.0605 78.6835L49.4286 82.4423C50.9856 81.8756 51.7883 80.1541 51.2216 78.5972L47.4629 79.9653ZM48.0605 78.6835C48.5795 78.4947 49.1534 78.7622 49.3423 79.2812L45.5835 80.6493C46.1502 82.2062 47.8717 83.009 49.4286 82.4423L48.0605 78.6835ZM49.3423 79.2812L46.2921 70.901L42.5333 72.2691L45.5835 80.6493L49.3423 79.2812ZM42.6081 70.7229C38.3714 79.5912 36 89.5202 36 100L40 100C40 90.1295 42.2325 80.7885 46.2174 72.4472L42.6081 70.7229ZM36 100C36.0001 134.459 61.63 162.93 94.867 167.392L95.3992 163.427C64.1213 159.228 40.0001 132.429 40 100L36 100ZM93.1509 165.144L92.8847 167.126L96.8492 167.658L97.1153 165.676L93.1509 165.144ZM95.1331 165.41C62.8756 161.079 38.0001 133.444 38 100L34 100C34.0001 135.474 60.3844 164.78 94.6008 169.374L95.1331 165.41ZM38 100C38 89.84 40.2951 80.219 44.3938 71.6247L40.7834 69.9028C36.4336 79.0235 34 89.2316 34 100L38 100ZM172 100C172 93.1568 170.989 86.548 169.107 80.3158L165.278 81.472C167.048 87.3333 168 93.5527 168 100H172ZM104 168C141.555 168 172 137.555 172 100H168C168 135.346 139.346 164 104 164L104 168ZM103.429 167.998C103.619 167.999 103.81 168 104 168V164C103.82 164 103.641 163.999 103.462 163.998L103.429 167.998ZM108.322 158.293L102.031 164.584L104.86 167.412L111.15 161.121L108.322 158.293ZM108.322 159.707C107.931 159.317 107.931 158.683 108.322 158.293L111.15 161.121C112.322 159.95 112.322 158.05 111.15 156.879L108.322 159.707ZM109.736 159.707C109.345 160.098 108.712 160.098 108.322 159.707L111.15 156.879C109.979 155.707 108.079 155.707 106.908 156.879L109.736 159.707ZM101.736 167.707L109.736 159.707L106.908 156.879L98.9076 164.879L101.736 167.707ZM101.736 166.293C102.127 166.683 102.127 167.317 101.736 167.707L98.9076 164.879C97.736 166.05 97.736 167.95 98.9076 169.121L101.736 166.293ZM109.736 174.293L101.736 166.293L98.9076 169.121L106.908 177.121L109.736 174.293ZM108.322 174.293C108.712 173.902 109.345 173.902 109.736 174.293L106.908 177.121C108.079 178.293 109.979 178.293 111.15 177.121L108.322 174.293ZM108.322 175.707C107.931 175.317 107.931 174.683 108.322 174.293L111.15 177.121C112.322 175.95 112.322 174.05 111.15 172.879L108.322 175.707ZM102.027 169.412L108.322 175.707L111.15 172.879L104.855 166.584L102.027 169.412ZM104 166C103.819 166 103.638 165.999 103.457 165.998L103.425 169.998C103.616 169.999 103.808 170 104 170V166ZM170 100C170 136.451 140.451 166 104 166L104 170C142.66 170 174 138.66 174 100H170ZM167.193 80.8939C169.018 86.9407 170 93.3548 170 100H174C174 92.9589 172.959 86.1554 171.022 79.7377L167.193 80.8939ZM167.771 82.8085L169.685 82.2304L168.529 78.4011L166.614 78.9792L167.771 82.8085Z" fill="white" mask="url(#path-1-outside-1)"/>
<g filter="url(#filter0_d)">
<mask id="path-3-inside-2" fill="white">
<path d="M68 36C68 44.8366 75.1634 52 84 52H124C132.837 52 140 44.8366 140 36C140 27.1634 132.837 20 124 20H84C75.1634 20 68 27.1634 68 36Z"/>
</mask>
<path d="M68 36C68 44.8366 75.1634 52 84 52H124C132.837 52 140 44.8366 140 36C140 27.1634 132.837 20 124 20H84C75.1634 20 68 27.1634 68 36Z" fill="white"/>
<path d="M84 50H124V54H84V50ZM124 22H84V18H124V22ZM84 22C76.268 22 70 28.268 70 36H66C66 26.0589 74.0589 18 84 18V22ZM138 36C138 28.268 131.732 22 124 22V18C133.941 18 142 26.0589 142 36H138ZM124 50C131.732 50 138 43.732 138 36H142C142 45.9411 133.941 54 124 54V50ZM84 54C74.0589 54 66 45.9411 66 36H70C70 43.732 76.268 50 84 50V54Z" fill="black" mask="url(#path-3-inside-2)"/>
<path d="M93.4727 38.3887C93.4727 38.0013 93.3359 37.7051 93.0625 37.5C92.7891 37.2904 92.2969 37.0716 91.5859 36.8438C90.875 36.6113 90.3122 36.3835 89.8975 36.1602C88.7673 35.5495 88.2021 34.7269 88.2021 33.6924C88.2021 33.1546 88.3525 32.6761 88.6533 32.2568C88.9587 31.833 89.3939 31.5026 89.959 31.2656C90.5286 31.0286 91.1667 30.9102 91.873 30.9102C92.584 30.9102 93.2174 31.04 93.7734 31.2998C94.3294 31.555 94.7601 31.9173 95.0654 32.3867C95.3753 32.8561 95.5303 33.3893 95.5303 33.9863H93.4795C93.4795 33.5306 93.3359 33.1774 93.0488 32.9268C92.7617 32.6715 92.3584 32.5439 91.8389 32.5439C91.3376 32.5439 90.9479 32.651 90.6699 32.8652C90.3919 33.0749 90.2529 33.3529 90.2529 33.6992C90.2529 34.0228 90.4147 34.2939 90.7383 34.5127C91.0664 34.7314 91.5472 34.9365 92.1807 35.1279C93.3473 35.4788 94.1973 35.9141 94.7305 36.4336C95.2637 36.9531 95.5303 37.6003 95.5303 38.375C95.5303 39.2363 95.2044 39.9131 94.5527 40.4053C93.901 40.8929 93.0238 41.1367 91.9209 41.1367C91.1553 41.1367 90.458 40.9977 89.8291 40.7197C89.2002 40.4372 88.7194 40.0521 88.3867 39.5645C88.0586 39.0768 87.8945 38.5117 87.8945 37.8691H89.9521C89.9521 38.9674 90.6084 39.5166 91.9209 39.5166C92.4085 39.5166 92.7891 39.4186 93.0625 39.2227C93.3359 39.0221 93.4727 38.7441 93.4727 38.3887ZM99.1602 31.7852V33.6035H100.425V35.0527H99.1602V38.7441C99.1602 39.0176 99.2126 39.2135 99.3174 39.332C99.4222 39.4505 99.6227 39.5098 99.9189 39.5098C100.138 39.5098 100.331 39.4938 100.5 39.4619V40.959C100.113 41.0775 99.7139 41.1367 99.3037 41.1367C97.9183 41.1367 97.2119 40.4372 97.1846 39.0381V35.0527H96.1045V33.6035H97.1846V31.7852H99.1602ZM105.812 41C105.72 40.8223 105.654 40.6012 105.613 40.3369C105.135 40.8701 104.513 41.1367 103.747 41.1367C103.022 41.1367 102.421 40.9271 101.942 40.5078C101.468 40.0885 101.231 39.5599 101.231 38.9219C101.231 38.138 101.521 37.5365 102.1 37.1172C102.683 36.6979 103.524 36.486 104.622 36.4814H105.531V36.0576C105.531 35.7158 105.442 35.4424 105.265 35.2373C105.091 35.0322 104.816 34.9297 104.438 34.9297C104.105 34.9297 103.843 35.0094 103.651 35.1689C103.465 35.3285 103.371 35.5472 103.371 35.8252H101.396C101.396 35.3968 101.528 35.0003 101.792 34.6357C102.056 34.2712 102.43 33.9863 102.913 33.7812C103.396 33.5716 103.938 33.4668 104.54 33.4668C105.451 33.4668 106.174 33.6969 106.707 34.1572C107.245 34.613 107.514 35.2555 107.514 36.085V39.291C107.518 39.9928 107.616 40.5238 107.808 40.8838V41H105.812ZM104.178 39.626C104.469 39.626 104.738 39.5622 104.984 39.4346C105.23 39.3024 105.413 39.127 105.531 38.9082V37.6367H104.793C103.804 37.6367 103.278 37.9785 103.214 38.6621L103.207 38.7783C103.207 39.0244 103.294 39.2272 103.467 39.3867C103.64 39.5462 103.877 39.626 104.178 39.626ZM111.396 31.7852V33.6035H112.661V35.0527H111.396V38.7441C111.396 39.0176 111.449 39.2135 111.554 39.332C111.659 39.4505 111.859 39.5098 112.155 39.5098C112.374 39.5098 112.568 39.4938 112.736 39.4619V40.959C112.349 41.0775 111.95 41.1367 111.54 41.1367C110.155 41.1367 109.448 40.4372 109.421 39.0381V35.0527H108.341V33.6035H109.421V31.7852H111.396ZM117.166 41.1367C116.081 41.1367 115.197 40.804 114.514 40.1387C113.835 39.4733 113.495 38.5869 113.495 37.4795V37.2881C113.495 36.5452 113.639 35.8822 113.926 35.2988C114.213 34.7109 114.618 34.2598 115.143 33.9453C115.671 33.6263 116.273 33.4668 116.947 33.4668C117.959 33.4668 118.754 33.7858 119.333 34.4238C119.916 35.0618 120.208 35.9665 120.208 37.1377V37.9443H115.498C115.562 38.4274 115.753 38.8148 116.072 39.1064C116.396 39.3981 116.804 39.5439 117.296 39.5439C118.057 39.5439 118.652 39.2682 119.08 38.7168L120.051 39.8037C119.755 40.223 119.354 40.5511 118.848 40.7881C118.342 41.0205 117.781 41.1367 117.166 41.1367ZM116.94 35.0664C116.549 35.0664 116.229 35.1986 115.983 35.4629C115.742 35.7272 115.587 36.1055 115.519 36.5977H118.267V36.4404C118.257 36.0029 118.139 35.6657 117.911 35.4287C117.683 35.1872 117.36 35.0664 116.94 35.0664Z" fill="black"/>
</g>
<g filter="url(#filter1_d)">
<mask id="path-6-inside-3" fill="white">
<path d="M12 124C12 132.837 19.1634 140 28 140H68C76.8366 140 84 132.837 84 124C84 115.163 76.8366 108 68 108H28C19.1634 108 12 115.163 12 124Z"/>
</mask>
<path d="M12 124C12 132.837 19.1634 140 28 140H68C76.8366 140 84 132.837 84 124C84 115.163 76.8366 108 68 108H28C19.1634 108 12 115.163 12 124Z" fill="white"/>
<path d="M28 138H68V142H28V138ZM68 110H28V106H68V110ZM28 110C20.268 110 14 116.268 14 124H10C10 114.059 18.0589 106 28 106V110ZM82 124C82 116.268 75.732 110 68 110V106C77.9411 106 86 114.059 86 124H82ZM68 138C75.732 138 82 131.732 82 124H86C86 133.941 77.9411 142 68 142V138ZM28 142C18.0589 142 10 133.941 10 124H14C14 131.732 20.268 138 28 138V142Z" fill="black" mask="url(#path-6-inside-3)"/>
<path d="M34.541 126.949H30.9453L30.2617 129H28.0811L31.7861 119.047H33.6865L37.4121 129H35.2314L34.541 126.949ZM31.499 125.288H33.9873L32.7363 121.562L31.499 125.288ZM41.2881 127.544C41.6527 127.544 41.9489 127.444 42.1768 127.243C42.4046 127.043 42.5231 126.776 42.5322 126.443H44.3848C44.3802 126.945 44.2435 127.405 43.9746 127.824C43.7057 128.239 43.3366 128.562 42.8672 128.795C42.4023 129.023 41.8874 129.137 41.3223 129.137C40.265 129.137 39.431 128.802 38.8203 128.132C38.2096 127.457 37.9043 126.528 37.9043 125.343V125.213C37.9043 124.074 38.2074 123.164 38.8135 122.485C39.4196 121.806 40.2513 121.467 41.3086 121.467C42.2337 121.467 42.9743 121.731 43.5303 122.26C44.0908 122.784 44.3757 123.483 44.3848 124.358H42.5322C42.5231 123.976 42.4046 123.666 42.1768 123.429C41.9489 123.187 41.6481 123.066 41.2744 123.066C40.8141 123.066 40.4655 123.235 40.2285 123.572C39.9961 123.905 39.8799 124.447 39.8799 125.199V125.404C39.8799 126.165 39.9961 126.712 40.2285 127.045C40.4609 127.378 40.8141 127.544 41.2881 127.544ZM47.8779 119.785V121.604H49.1426V123.053H47.8779V126.744C47.8779 127.018 47.9303 127.214 48.0352 127.332C48.14 127.451 48.3405 127.51 48.6367 127.51C48.8555 127.51 49.0492 127.494 49.2178 127.462V128.959C48.8304 129.077 48.4316 129.137 48.0215 129.137C46.6361 129.137 45.9297 128.437 45.9023 127.038V123.053H44.8223V121.604H45.9023V119.785H47.8779ZM52.3281 129H50.3457V121.604H52.3281V129ZM50.2295 119.689C50.2295 119.393 50.3275 119.149 50.5234 118.958C50.724 118.767 50.9951 118.671 51.3369 118.671C51.6742 118.671 51.943 118.767 52.1436 118.958C52.3441 119.149 52.4443 119.393 52.4443 119.689C52.4443 119.99 52.3418 120.236 52.1367 120.428C51.9362 120.619 51.6696 120.715 51.3369 120.715C51.0042 120.715 50.7354 120.619 50.5303 120.428C50.3298 120.236 50.2295 119.99 50.2295 119.689ZM53.6543 125.233C53.6543 124.5 53.7956 123.846 54.0781 123.271C54.3607 122.697 54.7663 122.253 55.2949 121.938C55.8281 121.624 56.4456 121.467 57.1475 121.467C58.1455 121.467 58.959 121.772 59.5879 122.383C60.2214 122.993 60.5745 123.823 60.6475 124.871L60.6611 125.377C60.6611 126.512 60.3444 127.423 59.7109 128.111C59.0775 128.795 58.2275 129.137 57.1611 129.137C56.0947 129.137 55.2425 128.795 54.6045 128.111C53.971 127.428 53.6543 126.498 53.6543 125.322V125.233ZM55.6299 125.377C55.6299 126.079 55.762 126.617 56.0264 126.99C56.2907 127.359 56.6689 127.544 57.1611 127.544C57.6396 127.544 58.0133 127.362 58.2822 126.997C58.5511 126.628 58.6855 126.04 58.6855 125.233C58.6855 124.545 58.5511 124.012 58.2822 123.634C58.0133 123.256 57.6351 123.066 57.1475 123.066C56.6644 123.066 56.2907 123.256 56.0264 123.634C55.762 124.007 55.6299 124.589 55.6299 125.377ZM63.6963 121.604L63.7578 122.458C64.2865 121.797 64.9951 121.467 65.8838 121.467C66.6676 121.467 67.251 121.697 67.6338 122.157C68.0166 122.618 68.2126 123.306 68.2217 124.222V129H66.2461V124.27C66.2461 123.85 66.1549 123.547 65.9727 123.36C65.7904 123.169 65.4873 123.073 65.0635 123.073C64.5075 123.073 64.0905 123.31 63.8125 123.784V129H61.8369V121.604H63.6963Z" fill="black"/>
</g>
<g filter="url(#filter2_d)">
<mask id="path-9-inside-4" fill="white">
<path d="M132 124C132 132.837 139.163 140 148 140H188C196.837 140 204 132.837 204 124C204 115.163 196.837 108 188 108H148C139.163 108 132 115.163 132 124Z"/>
</mask>
<path d="M132 124C132 132.837 139.163 140 148 140H188C196.837 140 204 132.837 204 124C204 115.163 196.837 108 188 108H148C139.163 108 132 115.163 132 124Z" fill="white"/>
<path d="M148 138H188V142H148V138ZM188 110H148V106H188V110ZM148 110C140.268 110 134 116.268 134 124H130C130 114.059 138.059 106 148 106V110ZM202 124C202 116.268 195.732 110 188 110V106C197.941 106 206 114.059 206 124H202ZM188 138C195.732 138 202 131.732 202 124H206C206 133.941 197.941 142 188 142V138ZM148 142C138.059 142 130 133.941 130 124H134C134 131.732 140.268 138 148 138V142Z" fill="black" mask="url(#path-9-inside-4)"/>
<path d="M157.692 126.532L159.948 119.047H162.231L158.766 129H156.626L153.174 119.047H155.45L157.692 126.532ZM165.13 129H163.147V121.604H165.13V129ZM163.031 119.689C163.031 119.393 163.129 119.149 163.325 118.958C163.526 118.767 163.797 118.671 164.139 118.671C164.476 118.671 164.745 118.767 164.945 118.958C165.146 119.149 165.246 119.393 165.246 119.689C165.246 119.99 165.144 120.236 164.938 120.428C164.738 120.619 164.471 120.715 164.139 120.715C163.806 120.715 163.537 120.619 163.332 120.428C163.132 120.236 163.031 119.99 163.031 119.689ZM170.168 129.137C169.083 129.137 168.199 128.804 167.516 128.139C166.837 127.473 166.497 126.587 166.497 125.479V125.288C166.497 124.545 166.641 123.882 166.928 123.299C167.215 122.711 167.62 122.26 168.145 121.945C168.673 121.626 169.275 121.467 169.949 121.467C170.961 121.467 171.756 121.786 172.335 122.424C172.918 123.062 173.21 123.966 173.21 125.138V125.944H168.5C168.564 126.427 168.755 126.815 169.074 127.106C169.398 127.398 169.806 127.544 170.298 127.544C171.059 127.544 171.654 127.268 172.082 126.717L173.053 127.804C172.757 128.223 172.355 128.551 171.85 128.788C171.344 129.021 170.783 129.137 170.168 129.137ZM169.942 123.066C169.55 123.066 169.231 123.199 168.985 123.463C168.744 123.727 168.589 124.105 168.521 124.598H171.269V124.44C171.259 124.003 171.141 123.666 170.913 123.429C170.685 123.187 170.362 123.066 169.942 123.066ZM180.771 126.313L181.741 121.604H183.648L181.762 129H180.107L178.706 124.345L177.305 129H175.657L173.771 121.604H175.678L176.642 126.307L177.995 121.604H179.424L180.771 126.313Z" fill="black"/>
</g>
<defs>
<filter id="filter0_d" x="68" y="20" width="72" height="36" filterUnits="userSpaceOnUse" color-interpolation-filters="sRGB">
<feFlood flood-opacity="0" result="BackgroundImageFix"/>
<feColorMatrix in="SourceAlpha" type="matrix" values="0 0 0 0 0 0 0 0 0 0 0 0 0 0 0 0 0 0 127 0"/>
<feOffset dy="4"/>
<feColorMatrix type="matrix" values="0 0 0 0 0 0 0 0 0 0 0 0 0 0 0 0 0 0 1 0"/>
<feBlend mode="normal" in2="BackgroundImageFix" result="effect1_dropShadow"/>
<feBlend mode="normal" in="SourceGraphic" in2="effect1_dropShadow" result="shape"/>
</filter>
<filter id="filter1_d" x="12" y="108" width="72" height="36" filterUnits="userSpaceOnUse" color-interpolation-filters="sRGB">
<feFlood flood-opacity="0" result="BackgroundImageFix"/>
<feColorMatrix in="SourceAlpha" type="matrix" values="0 0 0 0 0 0 0 0 0 0 0 0 0 0 0 0 0 0 127 0"/>
<feOffset dy="4"/>
<feColorMatrix type="matrix" values="0 0 0 0 0 0 0 0 0 0 0 0 0 0 0 0 0 0 1 0"/>
<feBlend mode="normal" in2="BackgroundImageFix" result="effect1_dropShadow"/>
<feBlend mode="normal" in="SourceGraphic" in2="effect1_dropShadow" result="shape"/>
</filter>
<filter id="filter2_d" x="132" y="108" width="72" height="36" filterUnits="userSpaceOnUse" color-interpolation-filters="sRGB">
<feFlood flood-opacity="0" result="BackgroundImageFix"/>
<feColorMatrix in="SourceAlpha" type="matrix" values="0 0 0 0 0 0 0 0 0 0 0 0 0 0 0 0 0 0 127 0"/>
<feOffset dy="4"/>
<feColorMatrix type="matrix" values="0 0 0 0 0 0 0 0 0 0 0 0 0 0 0 0 0 0 1 0"/>
<feBlend mode="normal" in2="BackgroundImageFix" result="effect1_dropShadow"/>
<feBlend mode="normal" in="SourceGraphic" in2="effect1_dropShadow" result="shape"/>
</filter>
</defs>
</svg>
