<svg width="2240" height="2625" viewBox="0 0 2240 2625" fill="none" xmlns="http://www.w3.org/2000/svg">
<rect x="64" y="64" width="2112" height="2497" rx="128" fill="#D6E4FF"/>
<rect x="32" y="32" width="2176" height="2561" rx="160" stroke="#2A3751" stroke-opacity="0.64" stroke-width="64"/>
<mask id="path-3-outside-1_534_2190" maskUnits="userSpaceOnUse" x="821.853" y="2165.85" width="410" height="291" fill="black">
<rect fill="white" x="821.853" y="2165.85" width="410" height="291"/>
<path fill-rule="evenodd" clip-rule="evenodd" d="M861.435 2178.92C877.139 2177.86 890.729 2189.73 891.789 2205.44C892.321 2213.32 889.596 2220.67 884.764 2226.17C896.141 2242.07 907.371 2270.51 914.359 2303.95C917.08 2316.97 918.908 2329.55 919.887 2341.2C930.976 2335.7 944.257 2331.05 959.138 2327.52C963.802 2286.64 992.977 2255.22 1028.06 2255.45C1062.85 2255.68 1091.42 2286.94 1095.93 2327.39C1110.64 2330.84 1123.8 2335.38 1134.85 2340.76C1135.83 2329.24 1137.65 2316.8 1140.34 2303.95C1147.32 2270.51 1158.55 2242.07 1169.93 2226.17C1165.1 2220.67 1162.37 2213.32 1162.91 2205.44C1163.97 2189.73 1177.56 2177.86 1193.26 2178.92C1208.96 2179.98 1220.84 2193.57 1219.78 2209.27C1219.04 2220.19 1212.25 2229.25 1202.9 2233.41C1206.87 2252.56 1205.74 2282.94 1198.79 2316.16C1191.51 2351.04 1179.6 2380.48 1167.73 2395.93C1153.33 2423.71 1096.16 2444.47 1027.81 2444.47C962.689 2444.47 907.702 2425.62 890.212 2399.8C877.306 2385.81 863.855 2354.22 855.901 2316.16C848.958 2282.94 847.829 2252.56 851.792 2233.41C842.446 2229.25 835.655 2220.19 834.918 2209.27C833.859 2193.57 845.731 2179.98 861.435 2178.92Z"/>
</mask>
<path fill-rule="evenodd" clip-rule="evenodd" d="M861.435 2178.92C877.139 2177.86 890.729 2189.73 891.789 2205.44C892.321 2213.32 889.596 2220.67 884.764 2226.17C896.141 2242.07 907.371 2270.51 914.359 2303.95C917.08 2316.97 918.908 2329.55 919.887 2341.2C930.976 2335.7 944.257 2331.05 959.138 2327.52C963.802 2286.64 992.977 2255.22 1028.06 2255.45C1062.85 2255.68 1091.42 2286.94 1095.93 2327.39C1110.64 2330.84 1123.8 2335.38 1134.85 2340.76C1135.83 2329.24 1137.65 2316.8 1140.34 2303.95C1147.32 2270.51 1158.55 2242.07 1169.93 2226.17C1165.1 2220.67 1162.37 2213.32 1162.91 2205.44C1163.97 2189.73 1177.56 2177.86 1193.26 2178.92C1208.96 2179.98 1220.84 2193.57 1219.78 2209.27C1219.04 2220.19 1212.25 2229.25 1202.9 2233.41C1206.87 2252.56 1205.74 2282.94 1198.79 2316.16C1191.51 2351.04 1179.6 2380.48 1167.73 2395.93C1153.33 2423.71 1096.16 2444.47 1027.81 2444.47C962.689 2444.47 907.702 2425.62 890.212 2399.8C877.306 2385.81 863.855 2354.22 855.901 2316.16C848.958 2282.94 847.829 2252.56 851.792 2233.41C842.446 2229.25 835.655 2220.19 834.918 2209.27C833.859 2193.57 845.731 2179.98 861.435 2178.92Z" fill="#FFE89E"/>
<path d="M891.789 2205.44L879.816 2206.24L879.816 2206.24L891.789 2205.44ZM861.435 2178.92L860.627 2166.95L861.435 2178.92ZM884.764 2226.17L875.749 2218.24L869.462 2225.4L875.004 2233.15L884.764 2226.17ZM914.359 2303.95L902.613 2306.4L902.613 2306.4L914.359 2303.95ZM919.887 2341.2L907.929 2342.2L909.407 2359.79L925.217 2351.95L919.887 2341.2ZM959.138 2327.52L961.909 2339.2L970.106 2337.25L971.061 2328.88L959.138 2327.52ZM1028.06 2255.45L1027.98 2267.45L1027.98 2267.45L1028.06 2255.45ZM1095.93 2327.39L1084 2328.72L1084.94 2337.14L1093.18 2339.07L1095.93 2327.39ZM1134.85 2340.76L1129.6 2351.55L1145.31 2359.19L1146.8 2341.78L1134.85 2340.76ZM1140.34 2303.95L1152.08 2306.4L1152.08 2306.4L1140.34 2303.95ZM1169.93 2226.17L1179.69 2233.15L1185.23 2225.4L1178.95 2218.24L1169.93 2226.17ZM1162.91 2205.44L1150.93 2204.63L1150.93 2204.63L1162.91 2205.44ZM1193.26 2178.92L1194.07 2166.95L1193.26 2178.92ZM1219.78 2209.27L1207.8 2208.46L1207.8 2208.46L1219.78 2209.27ZM1202.9 2233.41L1198.03 2222.45L1189.19 2226.37L1191.15 2235.84L1202.9 2233.41ZM1198.79 2316.16L1187.05 2313.71L1187.05 2313.71L1198.79 2316.16ZM1167.73 2395.93L1158.21 2388.62L1157.57 2389.46L1157.08 2390.41L1167.73 2395.93ZM890.212 2399.8L900.147 2393.07L899.643 2392.33L899.033 2391.67L890.212 2399.8ZM855.901 2316.16L867.647 2313.71L867.647 2313.71L855.901 2316.16ZM851.792 2233.41L863.543 2235.84L865.503 2226.37L856.669 2222.45L851.792 2233.41ZM834.918 2209.27L846.891 2208.46L834.918 2209.27ZM903.762 2204.63C902.256 2182.31 882.944 2165.44 860.627 2166.95L862.243 2190.89C871.335 2190.28 879.203 2197.15 879.816 2206.24L903.762 2204.63ZM893.779 2234.09C900.633 2226.28 904.517 2215.82 903.762 2204.63L879.816 2206.24C880.124 2210.81 878.559 2215.05 875.749 2218.24L893.779 2234.09ZM875.004 2233.15C885.018 2247.15 895.793 2273.77 902.613 2306.4L926.105 2301.49C918.95 2267.25 907.263 2236.99 894.524 2219.18L875.004 2233.15ZM902.613 2306.4C905.239 2318.97 906.994 2331.07 907.929 2342.2L931.845 2340.19C930.823 2328.04 928.921 2314.97 926.105 2301.49L902.613 2306.4ZM925.217 2351.95C935.337 2346.93 947.73 2342.56 961.909 2339.2L956.367 2315.85C940.784 2319.55 926.614 2324.47 914.556 2330.44L925.217 2351.95ZM971.061 2328.88C975.251 2292.15 1000.8 2267.27 1027.98 2267.45L1028.14 2243.45C985.15 2243.17 952.353 2281.13 947.215 2326.16L971.061 2328.88ZM1027.98 2267.45C1054.94 2267.62 1079.96 2292.4 1084 2328.72L1107.85 2326.06C1102.89 2281.48 1070.76 2243.73 1028.14 2243.45L1027.98 2267.45ZM1093.18 2339.07C1107.2 2342.36 1119.49 2346.63 1129.6 2351.55L1140.09 2329.96C1128.1 2324.13 1114.07 2319.32 1098.67 2315.71L1093.18 2339.07ZM1146.8 2341.78C1147.75 2330.77 1149.49 2318.81 1152.08 2306.4L1128.59 2301.49C1125.81 2314.8 1123.92 2327.71 1122.89 2339.73L1146.8 2341.78ZM1152.08 2306.4C1158.9 2273.77 1169.68 2247.15 1179.69 2233.15L1160.17 2219.18C1147.43 2236.99 1135.74 2267.25 1128.59 2301.49L1152.08 2306.4ZM1178.95 2218.24C1176.14 2215.05 1174.57 2210.81 1174.88 2206.24L1150.93 2204.63C1150.18 2215.82 1154.06 2226.28 1160.92 2234.09L1178.95 2218.24ZM1174.88 2206.24C1175.49 2197.15 1183.36 2190.28 1192.45 2190.89L1194.07 2166.95C1171.75 2165.44 1152.44 2182.31 1150.93 2204.63L1174.88 2206.24ZM1192.45 2190.89C1201.54 2191.51 1208.42 2199.37 1207.8 2208.46L1231.75 2210.08C1233.25 2187.76 1216.38 2168.45 1194.07 2166.95L1192.45 2190.89ZM1207.8 2208.46C1207.38 2214.77 1203.47 2220.02 1198.03 2222.45L1207.78 2244.37C1221.03 2238.48 1230.7 2225.61 1231.75 2210.08L1207.8 2208.46ZM1191.15 2235.84C1194.65 2252.74 1193.82 2281.29 1187.05 2313.71L1210.54 2318.62C1217.65 2284.59 1219.08 2252.39 1214.65 2230.98L1191.15 2235.84ZM1187.05 2313.71C1179.92 2347.82 1168.5 2375.23 1158.21 2388.62L1177.25 2403.24C1190.7 2385.72 1203.09 2354.26 1210.54 2318.62L1187.05 2313.71ZM1157.08 2390.41C1152.03 2400.15 1137.8 2410.94 1114.02 2419.3C1090.86 2427.44 1060.86 2432.47 1027.81 2432.47V2456.47C1063.11 2456.47 1095.87 2451.12 1121.98 2441.94C1147.48 2432.98 1169.03 2419.5 1178.38 2401.45L1157.08 2390.41ZM1027.81 2432.47C996.334 2432.47 967.597 2427.91 944.908 2420.42C921.756 2412.79 906.679 2402.72 900.147 2393.07L880.277 2406.53C891.236 2422.71 912.396 2434.97 937.391 2443.22C962.849 2451.61 994.169 2456.47 1027.81 2456.47V2432.47ZM899.033 2391.67C893.961 2386.17 888.021 2376.25 882.285 2362.41C876.635 2348.78 871.49 2332.1 867.647 2313.71L844.155 2318.62C848.265 2338.29 853.823 2356.43 860.114 2371.6C866.318 2386.57 873.557 2399.45 881.391 2407.94L899.033 2391.67ZM867.647 2313.71C860.873 2281.29 860.047 2252.74 863.543 2235.84L840.041 2230.98C835.611 2252.39 837.043 2284.59 844.155 2318.62L867.647 2313.71ZM822.946 2210.08C823.994 2225.61 833.665 2238.48 846.916 2244.37L856.669 2222.45C851.226 2220.02 847.317 2214.77 846.891 2208.46L822.946 2210.08ZM860.627 2166.95C838.31 2168.45 821.44 2187.76 822.946 2210.08L846.891 2208.46C846.278 2199.37 853.151 2191.51 862.243 2190.89L860.627 2166.95Z" fill="#2A3751" fill-opacity="0.32" mask="url(#path-3-outside-1_534_2190)"/>
<ellipse cx="1027.81" cy="2382.2" rx="143.411" ry="62.2689" transform="rotate(180 1027.81 2382.2)" fill="#7E0707"/>
<ellipse cx="1027.52" cy="2338.8" rx="69.028" ry="83.3545" transform="rotate(-179.627 1027.52 2338.8)" fill="#FFE89E"/>
<ellipse cx="1027.63" cy="2352" rx="71.1735" ry="70.8855" transform="rotate(-179.627 1027.63 2352)" fill="#604220"/>
<ellipse cx="1169.56" cy="2310.06" rx="99.4105" ry="29.8606" transform="rotate(-78.1962 1169.56 2310.06)" fill="#7E0707"/>
<circle cx="1191.34" cy="2207.35" r="28.5" transform="rotate(-176.14 1191.34 2207.35)" fill="#FFE89E"/>
<ellipse rx="99.4105" ry="29.8606" transform="matrix(-0.204561 -0.978854 -0.978854 0.204561 885.13 2310.06)" fill="#7E0707"/>
<circle r="28.5" transform="matrix(0.997731 -0.0673265 -0.0673265 -0.997731 863.354 2207.35)" fill="#FFE89E"/>
<circle cx="809.5" cy="641.5" r="344.5" fill="#DAE2F1" stroke="#44506A" stroke-width="48"/>
<circle cx="724.5" cy="531.5" r="76.5" fill="#604220" stroke="white" stroke-width="24"/>
<path fill-rule="evenodd" clip-rule="evenodd" d="M692.045 535.085C692.494 541.641 696.102 548.486 701.624 553.26C702.549 554.059 702.744 554.283 702.946 554.775C705.163 560.158 707.803 564.187 711.687 568.116C714.992 571.459 718.358 573.935 722.552 576.108C724.307 577.018 724.335 577.028 724.959 576.988C725.493 576.954 725.807 576.838 727.007 576.231C734.974 572.205 741.555 565.69 745.33 558.09C746.305 556.126 747.028 554.37 747.612 552.542C747.979 551.393 747.997 551.364 749.052 550.1C751.361 547.338 752.742 545.221 754.281 542.088C757.076 536.398 757.731 530.641 756.176 525.435C755.788 524.139 755.174 523.615 754.196 523.747C753.199 523.881 750.49 525.36 748.525 526.841C747.935 527.287 747.418 527.611 747.377 527.562C747.336 527.512 747.126 527.009 746.909 526.444C746.275 524.788 744.637 521.625 743.578 520.014C741.968 517.566 740.468 515.673 736.849 511.526C734.483 508.815 732.689 506.299 732.456 505.366C732.141 504.106 732.88 502.403 734.761 500.056C736.625 497.73 737.628 496.014 738.201 494.169C738.396 493.538 738.432 493.195 738.431 491.98C738.429 490.705 738.398 490.449 738.163 489.748C738.018 489.313 737.698 488.667 737.452 488.313C736.897 487.512 736.145 486.761 735.968 486.829C735.895 486.857 735.845 486.827 735.859 486.762C735.893 486.593 735.015 486.016 734.325 485.754C733.456 485.423 732.881 485.361 728.687 485.145C724.933 484.952 724.789 484.952 721.235 485.141C716.067 485.416 716.029 485.421 714.723 486.113C712.968 487.042 711.722 488.753 711.37 490.716C710.868 493.519 712.092 496.469 715.494 500.66C717.172 502.727 717.767 504.7 717.096 505.971C716.31 507.462 714.866 509.324 711.434 513.276C709.842 515.108 708.399 516.87 707.964 517.512C707.881 517.635 707.434 518.266 706.973 518.913C706.084 520.159 704.979 521.937 704.484 522.92C704.188 523.508 704.133 523.55 703.716 523.517C703.337 523.487 701.152 524.025 699.917 524.452C698.757 524.853 696.896 525.764 696.312 526.218C694.786 527.401 694.083 528.153 693.369 529.363C692.839 530.262 692.487 531.151 692.251 532.185C691.987 533.348 691.956 533.781 692.045 535.085Z" fill="#FFA3C5"/>
<circle cx="937.463" cy="655.463" r="76.5" transform="rotate(51.0415 937.463 655.463)" fill="#604220" stroke="white" stroke-width="24"/>
<path fill-rule="evenodd" clip-rule="evenodd" d="M914.269 632.48C909.453 636.951 906.399 644.06 906.158 651.356C906.118 652.578 906.067 652.87 905.812 653.336C903.02 658.446 901.547 663.031 900.934 668.522C900.412 673.194 900.603 677.368 901.55 681.996C901.947 683.933 901.956 683.961 902.379 684.42C902.742 684.814 903.029 684.985 904.256 685.537C912.396 689.201 921.599 690.222 929.883 688.379C932.023 687.902 933.843 687.36 935.632 686.665C936.756 686.228 936.79 686.223 938.436 686.25C942.036 686.308 944.55 686.051 947.955 685.278C954.137 683.874 959.025 680.763 962.095 676.281C962.86 675.164 962.881 674.357 962.163 673.679C961.432 672.989 958.578 671.812 956.191 671.216C955.474 671.037 954.897 670.839 954.909 670.776C954.922 670.713 955.18 670.233 955.484 669.709C956.373 668.175 957.802 664.912 958.389 663.075C959.281 660.285 959.809 657.928 960.759 652.507C961.379 648.962 962.207 645.985 962.786 645.218C963.569 644.18 965.357 643.684 968.365 643.671C971.345 643.658 973.31 643.359 975.106 642.644C975.719 642.4 976.009 642.212 976.952 641.447C977.942 640.644 978.122 640.459 978.52 639.836C978.767 639.449 979.068 638.793 979.189 638.38C979.462 637.445 979.574 636.388 979.409 636.293C979.341 636.254 979.333 636.197 979.393 636.166C979.546 636.087 979.443 635.041 979.213 634.339C978.923 633.456 978.609 632.969 976.14 629.573C973.93 626.532 973.84 626.42 971.459 623.775C967.995 619.929 967.967 619.903 966.608 619.322C964.782 618.542 962.668 618.649 960.921 619.61C958.426 620.982 956.901 623.788 955.781 629.068C955.229 631.673 954.069 633.376 952.658 633.654C951.005 633.98 948.65 634.028 943.418 633.843C940.993 633.758 938.715 633.744 937.943 633.809C937.794 633.822 937.023 633.871 936.23 633.919C934.702 634.011 932.625 634.271 931.549 634.503C930.906 634.643 930.839 634.627 930.602 634.282C930.387 633.969 928.594 632.607 927.486 631.916C926.445 631.266 924.567 630.392 923.847 630.222C921.967 629.779 920.94 629.705 919.55 629.912C918.518 630.065 917.605 630.35 916.653 630.817C915.582 631.342 915.226 631.59 914.269 632.48Z" fill="#FFA3C5"/>
<circle cx="725.463" cy="766.463" r="76.5" transform="rotate(-156.865 725.463 766.463)" fill="#604220" stroke="white" stroke-width="24"/>
<path fill-rule="evenodd" clip-rule="evenodd" d="M756.716 775.918C758.879 769.713 758.251 762.001 755.048 755.44C754.512 754.342 754.421 754.06 754.428 753.529C754.504 747.706 753.66 742.965 751.631 737.825C749.906 733.453 747.783 729.853 744.781 726.207C743.524 724.681 743.502 724.661 742.913 724.453C742.409 724.274 742.074 724.258 740.732 724.344C731.824 724.916 723.213 728.321 716.755 733.827C715.087 735.25 713.732 736.581 712.477 738.032C711.688 738.944 711.66 738.964 710.193 739.712C706.985 741.345 704.883 742.749 702.236 745.025C697.43 749.159 694.566 754.196 693.951 759.594C693.798 760.939 694.157 761.662 695.109 761.925C696.078 762.193 699.151 761.897 701.539 761.307C702.257 761.13 702.859 761.035 702.878 761.096C702.896 761.157 702.892 761.703 702.869 762.308C702.801 764.079 703.065 767.632 703.406 769.53C703.924 772.413 704.56 774.743 706.259 779.978C707.369 783.401 708.031 786.419 707.879 787.369C707.673 788.652 706.325 789.927 703.672 791.346C701.045 792.753 699.448 793.937 698.196 795.409C697.769 795.912 697.6 796.213 697.125 797.331C696.626 798.504 696.553 798.751 696.494 799.488C696.456 799.946 696.497 800.666 696.584 801.088C696.78 802.042 697.176 803.029 697.366 803.035C697.444 803.038 697.478 803.085 697.44 803.14C697.342 803.282 697.922 804.158 698.454 804.67C699.123 805.315 699.628 805.598 703.4 807.445C706.776 809.097 706.908 809.154 710.25 810.376C715.111 812.155 715.148 812.164 716.621 812.041C718.6 811.876 720.418 810.793 721.512 809.126C723.075 806.745 723.109 803.552 721.628 798.361C720.897 795.801 721.125 793.753 722.241 792.847C723.55 791.786 725.608 790.641 730.318 788.355C732.501 787.296 734.52 786.243 735.173 785.823C735.298 785.742 735.956 785.338 736.635 784.924C737.942 784.127 739.656 782.926 740.498 782.217C741.001 781.793 741.068 781.776 741.439 781.97C741.775 782.146 743.996 782.51 745.3 782.603C746.524 782.69 748.593 782.583 749.309 782.396C751.177 781.907 752.119 781.492 753.251 780.659C754.091 780.041 754.764 779.361 755.387 778.503C756.087 777.538 756.286 777.152 756.716 775.918Z" fill="#FFA3C5"/>
<circle cx="1668.5" cy="1244.5" r="344.5" fill="#DAE2F1" stroke="#44506A" stroke-width="48"/>
<circle cx="1583.5" cy="1134.5" r="76.5" fill="#604220" stroke="white" stroke-width="24"/>
<path fill-rule="evenodd" clip-rule="evenodd" d="M1551.05 1138.08C1551.49 1144.64 1555.1 1151.49 1560.62 1156.26C1561.55 1157.06 1561.74 1157.28 1561.95 1157.77C1564.16 1163.16 1566.8 1167.19 1570.69 1171.12C1573.99 1174.46 1577.36 1176.93 1581.55 1179.11C1583.31 1180.02 1583.34 1180.03 1583.96 1179.99C1584.49 1179.95 1584.81 1179.84 1586.01 1179.23C1593.97 1175.21 1600.55 1168.69 1604.33 1161.09C1605.31 1159.13 1606.03 1157.37 1606.61 1155.54C1606.98 1154.39 1607 1154.36 1608.05 1153.1C1610.36 1150.34 1611.74 1148.22 1613.28 1145.09C1616.08 1139.4 1616.73 1133.64 1615.18 1128.44C1614.79 1127.14 1614.17 1126.61 1613.2 1126.75C1612.2 1126.88 1609.49 1128.36 1607.53 1129.84C1606.93 1130.29 1606.42 1130.61 1606.38 1130.56C1606.34 1130.51 1606.13 1130.01 1605.91 1129.44C1605.28 1127.79 1603.64 1124.63 1602.58 1123.01C1600.97 1120.57 1599.47 1118.67 1595.85 1114.53C1593.48 1111.81 1591.69 1109.3 1591.46 1108.37C1591.14 1107.11 1591.88 1105.4 1593.76 1103.06C1595.63 1100.73 1596.63 1099.01 1597.2 1097.17C1597.4 1096.54 1597.43 1096.19 1597.43 1094.98C1597.43 1093.71 1597.4 1093.45 1597.16 1092.75C1597.02 1092.31 1596.7 1091.67 1596.45 1091.31C1595.9 1090.51 1595.15 1089.76 1594.97 1089.83C1594.89 1089.86 1594.85 1089.83 1594.86 1089.76C1594.89 1089.59 1594.02 1089.02 1593.33 1088.75C1592.46 1088.42 1591.88 1088.36 1587.69 1088.15C1583.93 1087.95 1583.79 1087.95 1580.24 1088.14C1575.07 1088.42 1575.03 1088.42 1573.72 1089.11C1571.97 1090.04 1570.72 1091.75 1570.37 1093.72C1569.87 1096.52 1571.09 1099.47 1574.49 1103.66C1576.17 1105.73 1576.77 1107.7 1576.1 1108.97C1575.31 1110.46 1573.87 1112.32 1570.43 1116.28C1568.84 1118.11 1567.4 1119.87 1566.96 1120.51C1566.88 1120.64 1566.43 1121.27 1565.97 1121.91C1565.08 1123.16 1563.98 1124.94 1563.48 1125.92C1563.19 1126.51 1563.13 1126.55 1562.72 1126.52C1562.34 1126.49 1560.15 1127.03 1558.92 1127.45C1557.76 1127.85 1555.9 1128.76 1555.31 1129.22C1553.79 1130.4 1553.08 1131.15 1552.37 1132.36C1551.84 1133.26 1551.49 1134.15 1551.25 1135.19C1550.99 1136.35 1550.96 1136.78 1551.05 1138.08Z" fill="#FFA3C5"/>
<circle cx="1796.46" cy="1258.46" r="76.5" transform="rotate(51.0415 1796.46 1258.46)" fill="#604220" stroke="white" stroke-width="24"/>
<path fill-rule="evenodd" clip-rule="evenodd" d="M1773.27 1235.48C1768.45 1239.95 1765.4 1247.06 1765.16 1254.36C1765.12 1255.58 1765.07 1255.87 1764.81 1256.34C1762.02 1261.45 1760.55 1266.03 1759.93 1271.52C1759.41 1276.19 1759.6 1280.37 1760.55 1285C1760.95 1286.93 1760.96 1286.96 1761.38 1287.42C1761.74 1287.81 1762.03 1287.99 1763.26 1288.54C1771.4 1292.2 1780.6 1293.22 1788.88 1291.38C1791.02 1290.9 1792.84 1290.36 1794.63 1289.67C1795.76 1289.23 1795.79 1289.22 1797.44 1289.25C1801.04 1289.31 1803.55 1289.05 1806.95 1288.28C1813.14 1286.87 1818.02 1283.76 1821.09 1279.28C1821.86 1278.16 1821.88 1277.36 1821.16 1276.68C1820.43 1275.99 1817.58 1274.81 1815.19 1274.22C1814.47 1274.04 1813.9 1273.84 1813.91 1273.78C1813.92 1273.71 1814.18 1273.23 1814.48 1272.71C1815.37 1271.18 1816.8 1267.91 1817.39 1266.08C1818.28 1263.28 1818.81 1260.93 1819.76 1255.51C1820.38 1251.96 1821.21 1248.99 1821.79 1248.22C1822.57 1247.18 1824.36 1246.68 1827.37 1246.67C1830.35 1246.66 1832.31 1246.36 1834.11 1245.64C1834.72 1245.4 1835.01 1245.21 1835.95 1244.45C1836.94 1243.64 1837.12 1243.46 1837.52 1242.84C1837.77 1242.45 1838.07 1241.79 1838.19 1241.38C1838.46 1240.44 1838.57 1239.39 1838.41 1239.29C1838.34 1239.25 1838.33 1239.2 1838.39 1239.17C1838.55 1239.09 1838.44 1238.04 1838.21 1237.34C1837.92 1236.46 1837.61 1235.97 1835.14 1232.57C1832.93 1229.53 1832.84 1229.42 1830.46 1226.78C1827 1222.93 1826.97 1222.9 1825.61 1222.32C1823.78 1221.54 1821.67 1221.65 1819.92 1222.61C1817.43 1223.98 1815.9 1226.79 1814.78 1232.07C1814.23 1234.67 1813.07 1236.38 1811.66 1236.65C1810 1236.98 1807.65 1237.03 1802.42 1236.84C1799.99 1236.76 1797.72 1236.74 1796.94 1236.81C1796.79 1236.82 1796.02 1236.87 1795.23 1236.92C1793.7 1237.01 1791.63 1237.27 1790.55 1237.5C1789.91 1237.64 1789.84 1237.63 1789.6 1237.28C1789.39 1236.97 1787.59 1235.61 1786.49 1234.92C1785.45 1234.27 1783.57 1233.39 1782.85 1233.22C1780.97 1232.78 1779.94 1232.71 1778.55 1232.91C1777.52 1233.06 1776.6 1233.35 1775.65 1233.82C1774.58 1234.34 1774.23 1234.59 1773.27 1235.48Z" fill="#FFA3C5"/>
<circle cx="1584.46" cy="1369.46" r="76.5" transform="rotate(-156.865 1584.46 1369.46)" fill="#604220" stroke="white" stroke-width="24"/>
<path fill-rule="evenodd" clip-rule="evenodd" d="M1615.72 1378.92C1617.88 1372.71 1617.25 1365 1614.05 1358.44C1613.51 1357.34 1613.42 1357.06 1613.43 1356.53C1613.5 1350.71 1612.66 1345.96 1610.63 1340.83C1608.91 1336.45 1606.78 1332.85 1603.78 1329.21C1602.52 1327.68 1602.5 1327.66 1601.91 1327.45C1601.41 1327.27 1601.07 1327.26 1599.73 1327.34C1590.82 1327.92 1582.21 1331.32 1575.76 1336.83C1574.09 1338.25 1572.73 1339.58 1571.48 1341.03C1570.69 1341.94 1570.66 1341.96 1569.19 1342.71C1565.98 1344.35 1563.88 1345.75 1561.24 1348.03C1556.43 1352.16 1553.57 1357.2 1552.95 1362.59C1552.8 1363.94 1553.16 1364.66 1554.11 1364.92C1555.08 1365.19 1558.15 1364.9 1560.54 1364.31C1561.26 1364.13 1561.86 1364.03 1561.88 1364.1C1561.9 1364.16 1561.89 1364.7 1561.87 1365.31C1561.8 1367.08 1562.07 1370.63 1562.41 1372.53C1562.92 1375.41 1563.56 1377.74 1565.26 1382.98C1566.37 1386.4 1567.03 1389.42 1566.88 1390.37C1566.67 1391.65 1565.32 1392.93 1562.67 1394.35C1560.04 1395.75 1558.45 1396.94 1557.2 1398.41C1556.77 1398.91 1556.6 1399.21 1556.13 1400.33C1555.63 1401.5 1555.55 1401.75 1555.49 1402.49C1555.46 1402.95 1555.5 1403.67 1555.58 1404.09C1555.78 1405.04 1556.18 1406.03 1556.37 1406.04C1556.44 1406.04 1556.48 1406.09 1556.44 1406.14C1556.34 1406.28 1556.92 1407.16 1557.45 1407.67C1558.12 1408.31 1558.63 1408.6 1562.4 1410.44C1565.78 1412.1 1565.91 1412.15 1569.25 1413.38C1574.11 1415.15 1574.15 1415.16 1575.62 1415.04C1577.6 1414.88 1579.42 1413.79 1580.51 1412.13C1582.08 1409.75 1582.11 1406.55 1580.63 1401.36C1579.9 1398.8 1580.12 1396.75 1581.24 1395.85C1582.55 1394.79 1584.61 1393.64 1589.32 1391.36C1591.5 1390.3 1593.52 1389.24 1594.17 1388.82C1594.3 1388.74 1594.96 1388.34 1595.63 1387.92C1596.94 1387.13 1598.66 1385.93 1599.5 1385.22C1600 1384.79 1600.07 1384.78 1600.44 1384.97C1600.78 1385.15 1603 1385.51 1604.3 1385.6C1605.52 1385.69 1607.59 1385.58 1608.31 1385.4C1610.18 1384.91 1611.12 1384.49 1612.25 1383.66C1613.09 1383.04 1613.76 1382.36 1614.39 1381.5C1615.09 1380.54 1615.29 1380.15 1615.72 1378.92Z" fill="#FFA3C5"/>
<circle cx="525.5" cy="1683.5" r="344.5" fill="#DAE2F1" stroke="#44506A" stroke-width="48"/>
<circle cx="440.5" cy="1573.5" r="76.5" fill="#604220" stroke="white" stroke-width="24"/>
<path fill-rule="evenodd" clip-rule="evenodd" d="M408.045 1577.08C408.494 1583.64 412.102 1590.49 417.624 1595.26C418.549 1596.06 418.744 1596.28 418.946 1596.77C421.163 1602.16 423.803 1606.19 427.687 1610.12C430.992 1613.46 434.358 1615.93 438.552 1618.11C440.307 1619.02 440.335 1619.03 440.959 1618.99C441.493 1618.95 441.807 1618.84 443.007 1618.23C450.974 1614.21 457.555 1607.69 461.33 1600.09C462.305 1598.13 463.028 1596.37 463.612 1594.54C463.979 1593.39 463.997 1593.36 465.052 1592.1C467.361 1589.34 468.742 1587.22 470.281 1584.09C473.076 1578.4 473.731 1572.64 472.176 1567.44C471.788 1566.14 471.174 1565.61 470.196 1565.75C469.199 1565.88 466.49 1567.36 464.525 1568.84C463.935 1569.29 463.418 1569.61 463.377 1569.56C463.336 1569.51 463.126 1569.01 462.909 1568.44C462.275 1566.79 460.637 1563.63 459.578 1562.01C457.968 1559.57 456.468 1557.67 452.849 1553.53C450.483 1550.81 448.689 1548.3 448.456 1547.37C448.141 1546.11 448.88 1544.4 450.761 1542.06C452.625 1539.73 453.628 1538.01 454.201 1536.17C454.396 1535.54 454.432 1535.19 454.431 1533.98C454.429 1532.71 454.398 1532.45 454.163 1531.75C454.018 1531.31 453.698 1530.67 453.452 1530.31C452.897 1529.51 452.145 1528.76 451.968 1528.83C451.895 1528.86 451.845 1528.83 451.859 1528.76C451.893 1528.59 451.015 1528.02 450.325 1527.75C449.456 1527.42 448.881 1527.36 444.687 1527.15C440.933 1526.95 440.789 1526.95 437.235 1527.14C432.067 1527.42 432.029 1527.42 430.723 1528.11C428.968 1529.04 427.722 1530.75 427.37 1532.72C426.868 1535.52 428.092 1538.47 431.494 1542.66C433.172 1544.73 433.767 1546.7 433.096 1547.97C432.31 1549.46 430.866 1551.32 427.434 1555.28C425.842 1557.11 424.399 1558.87 423.964 1559.51C423.881 1559.64 423.434 1560.27 422.973 1560.91C422.084 1562.16 420.979 1563.94 420.484 1564.92C420.188 1565.51 420.133 1565.55 419.716 1565.52C419.337 1565.49 417.152 1566.03 415.917 1566.45C414.757 1566.85 412.896 1567.76 412.312 1568.22C410.786 1569.4 410.083 1570.15 409.369 1571.36C408.839 1572.26 408.487 1573.15 408.251 1574.19C407.987 1575.35 407.956 1575.78 408.045 1577.08Z" fill="#FFA3C5"/>
<circle cx="653.463" cy="1697.46" r="76.5" transform="rotate(51.0415 653.463 1697.46)" fill="#604220" stroke="white" stroke-width="24"/>
<path fill-rule="evenodd" clip-rule="evenodd" d="M630.269 1674.48C625.453 1678.95 622.399 1686.06 622.158 1693.36C622.118 1694.58 622.067 1694.87 621.812 1695.34C619.02 1700.45 617.547 1705.03 616.934 1710.52C616.412 1715.19 616.603 1719.37 617.55 1724C617.947 1725.93 617.956 1725.96 618.379 1726.42C618.742 1726.81 619.029 1726.99 620.256 1727.54C628.396 1731.2 637.599 1732.22 645.883 1730.38C648.023 1729.9 649.843 1729.36 651.632 1728.67C652.756 1728.23 652.79 1728.22 654.436 1728.25C658.036 1728.31 660.55 1728.05 663.955 1727.28C670.137 1725.87 675.025 1722.76 678.095 1718.28C678.86 1717.16 678.881 1716.36 678.163 1715.68C677.432 1714.99 674.578 1713.81 672.191 1713.22C671.474 1713.04 670.897 1712.84 670.909 1712.78C670.922 1712.71 671.18 1712.23 671.484 1711.71C672.373 1710.18 673.802 1706.91 674.389 1705.08C675.281 1702.28 675.809 1699.93 676.759 1694.51C677.379 1690.96 678.207 1687.99 678.786 1687.22C679.569 1686.18 681.357 1685.68 684.365 1685.67C687.345 1685.66 689.31 1685.36 691.106 1684.64C691.719 1684.4 692.009 1684.21 692.952 1683.45C693.942 1682.64 694.122 1682.46 694.52 1681.84C694.767 1681.45 695.068 1680.79 695.189 1680.38C695.462 1679.44 695.574 1678.39 695.409 1678.29C695.341 1678.25 695.333 1678.2 695.393 1678.17C695.546 1678.09 695.443 1677.04 695.213 1676.34C694.923 1675.46 694.609 1674.97 692.14 1671.57C689.93 1668.53 689.84 1668.42 687.459 1665.78C683.995 1661.93 683.967 1661.9 682.608 1661.32C680.782 1660.54 678.668 1660.65 676.921 1661.61C674.426 1662.98 672.901 1665.79 671.781 1671.07C671.229 1673.67 670.069 1675.38 668.658 1675.65C667.005 1675.98 664.65 1676.03 659.418 1675.84C656.993 1675.76 654.715 1675.74 653.943 1675.81C653.794 1675.82 653.023 1675.87 652.23 1675.92C650.702 1676.01 648.625 1676.27 647.549 1676.5C646.906 1676.64 646.839 1676.63 646.602 1676.28C646.387 1675.97 644.594 1674.61 643.486 1673.92C642.445 1673.27 640.567 1672.39 639.847 1672.22C637.967 1671.78 636.94 1671.71 635.55 1671.91C634.518 1672.06 633.605 1672.35 632.653 1672.82C631.582 1673.34 631.226 1673.59 630.269 1674.48Z" fill="#FFA3C5"/>
<circle cx="441.463" cy="1808.46" r="76.5" transform="rotate(-156.865 441.463 1808.46)" fill="#604220" stroke="white" stroke-width="24"/>
<path fill-rule="evenodd" clip-rule="evenodd" d="M472.716 1817.92C474.879 1811.71 474.251 1804 471.048 1797.44C470.512 1796.34 470.421 1796.06 470.428 1795.53C470.504 1789.71 469.66 1784.96 467.631 1779.83C465.906 1775.45 463.783 1771.85 460.781 1768.21C459.524 1766.68 459.502 1766.66 458.913 1766.45C458.409 1766.27 458.074 1766.26 456.732 1766.34C447.824 1766.92 439.213 1770.32 432.755 1775.83C431.087 1777.25 429.732 1778.58 428.477 1780.03C427.688 1780.94 427.66 1780.96 426.193 1781.71C422.985 1783.35 420.883 1784.75 418.236 1787.03C413.43 1791.16 410.566 1796.2 409.951 1801.59C409.798 1802.94 410.157 1803.66 411.109 1803.92C412.078 1804.19 415.151 1803.9 417.539 1803.31C418.257 1803.13 418.859 1803.03 418.878 1803.1C418.896 1803.16 418.892 1803.7 418.869 1804.31C418.801 1806.08 419.065 1809.63 419.406 1811.53C419.924 1814.41 420.56 1816.74 422.259 1821.98C423.369 1825.4 424.031 1828.42 423.879 1829.37C423.673 1830.65 422.325 1831.93 419.672 1833.35C417.045 1834.75 415.448 1835.94 414.196 1837.41C413.769 1837.91 413.6 1838.21 413.125 1839.33C412.626 1840.5 412.553 1840.75 412.494 1841.49C412.456 1841.95 412.497 1842.67 412.584 1843.09C412.78 1844.04 413.176 1845.03 413.366 1845.04C413.444 1845.04 413.478 1845.09 413.44 1845.14C413.342 1845.28 413.922 1846.16 414.454 1846.67C415.123 1847.31 415.628 1847.6 419.4 1849.44C422.776 1851.1 422.908 1851.15 426.25 1852.38C431.111 1854.15 431.148 1854.16 432.621 1854.04C434.6 1853.88 436.418 1852.79 437.512 1851.13C439.075 1848.75 439.109 1845.55 437.628 1840.36C436.897 1837.8 437.125 1835.75 438.241 1834.85C439.55 1833.79 441.608 1832.64 446.318 1830.36C448.501 1829.3 450.52 1828.24 451.173 1827.82C451.298 1827.74 451.956 1827.34 452.635 1826.92C453.942 1826.13 455.656 1824.93 456.498 1824.22C457.001 1823.79 457.068 1823.78 457.439 1823.97C457.775 1824.15 459.996 1824.51 461.3 1824.6C462.524 1824.69 464.593 1824.58 465.309 1824.4C467.177 1823.91 468.119 1823.49 469.251 1822.66C470.091 1822.04 470.764 1821.36 471.387 1820.5C472.087 1819.54 472.286 1819.15 472.716 1817.92Z" fill="#FFA3C5"/>
<path d="M1030 2196.5L1030 2051.71C1030 2015.78 1010.53 1982.67 979.133 1965.2L892.5 1917" stroke="#2A3751" stroke-width="24" stroke-linecap="round"/>
<path d="M958.001 1894L886 1912.5L906 1982.5" stroke="#2A3751" stroke-width="24" stroke-linecap="round"/>
</svg>
