<svg width="2240" height="2625" viewBox="0 0 2240 2625" fill="none" xmlns="http://www.w3.org/2000/svg">
<rect x="64" y="64" width="2112" height="2497" rx="128" fill="#D6E4FF"/>
<rect x="32" y="32" width="2176" height="2561" rx="160" stroke="#2A3751" stroke-opacity="0.64" stroke-width="64"/>
<mask id="path-3-outside-1_534_2190" maskUnits="userSpaceOnUse" x="821.853" y="2165.85" width="410" height="291" fill="black">
<rect fill="white" x="821.853" y="2165.85" width="410" height="291"/>
<path fill-rule="evenodd" clip-rule="evenodd" d="M861.435 2178.92C877.139 2177.86 890.729 2189.73 891.789 2205.44C892.321 2213.32 889.596 2220.67 884.764 2226.17C896.141 2242.07 907.371 2270.51 914.359 2303.95C917.08 2316.97 918.908 2329.55 919.887 2341.2C930.976 2335.7 944.257 2331.05 959.138 2327.52C963.802 2286.64 992.977 2255.22 1028.06 2255.45C1062.85 2255.68 1091.42 2286.94 1095.93 2327.39C1110.64 2330.84 1123.8 2335.38 1134.85 2340.76C1135.83 2329.24 1137.65 2316.8 1140.34 2303.95C1147.32 2270.51 1158.55 2242.07 1169.93 2226.17C1165.1 2220.67 1162.37 2213.32 1162.91 2205.44C1163.97 2189.73 1177.56 2177.86 1193.26 2178.92C1208.96 2179.98 1220.84 2193.57 1219.78 2209.27C1219.04 2220.19 1212.25 2229.25 1202.9 2233.41C1206.87 2252.56 1205.74 2282.94 1198.79 2316.16C1191.51 2351.04 1179.6 2380.48 1167.73 2395.93C1153.33 2423.71 1096.16 2444.47 1027.81 2444.47C962.689 2444.47 907.702 2425.62 890.212 2399.8C877.306 2385.81 863.855 2354.22 855.901 2316.16C848.958 2282.94 847.829 2252.56 851.792 2233.41C842.446 2229.25 835.655 2220.19 834.918 2209.27C833.859 2193.57 845.731 2179.98 861.435 2178.92Z"/>
</mask>
<path fill-rule="evenodd" clip-rule="evenodd" d="M861.435 2178.92C877.139 2177.86 890.729 2189.73 891.789 2205.44C892.321 2213.32 889.596 2220.67 884.764 2226.17C896.141 2242.07 907.371 2270.51 914.359 2303.95C917.08 2316.97 918.908 2329.55 919.887 2341.2C930.976 2335.7 944.257 2331.05 959.138 2327.52C963.802 2286.64 992.977 2255.22 1028.06 2255.45C1062.85 2255.68 1091.42 2286.94 1095.93 2327.39C1110.64 2330.84 1123.8 2335.38 1134.85 2340.76C1135.83 2329.24 1137.65 2316.8 1140.34 2303.95C1147.32 2270.51 1158.55 2242.07 1169.93 2226.17C1165.1 2220.67 1162.37 2213.32 1162.91 2205.44C1163.97 2189.73 1177.56 2177.86 1193.26 2178.92C1208.96 2179.98 1220.84 2193.57 1219.78 2209.27C1219.04 2220.19 1212.25 2229.25 1202.9 2233.41C1206.87 2252.56 1205.74 2282.94 1198.79 2316.16C1191.51 2351.04 1179.6 2380.48 1167.73 2395.93C1153.33 2423.71 1096.16 2444.47 1027.81 2444.47C962.689 2444.47 907.702 2425.62 890.212 2399.8C877.306 2385.81 863.855 2354.22 855.901 2316.16C848.958 2282.94 847.829 2252.56 851.792 2233.41C842.446 2229.25 835.655 2220.19 834.918 2209.27C833.859 2193.57 845.731 2179.98 861.435 2178.92Z" fill="#FFE89E"/>
<path d="M891.789 2205.44L879.816 2206.24L891.789 2205.44ZM861.435 2178.92L860.627 2166.95L861.435 2178.92ZM884.764 2226.17L875.749 2218.24L869.462 2225.4L875.004 2233.15L884.764 2226.17ZM914.359 2303.95L902.613 2306.4L914.359 2303.95ZM919.887 2341.2L907.929 2342.2L909.407 2359.79L925.217 2351.95L919.887 2341.2ZM959.138 2327.52L961.909 2339.2L970.106 2337.25L971.061 2328.88L959.138 2327.52ZM1028.06 2255.45L1027.98 2267.45H1027.98L1028.06 2255.45ZM1095.93 2327.39L1084 2328.72L1084.94 2337.14L1093.18 2339.07L1095.93 2327.39ZM1134.85 2340.76L1129.6 2351.55L1145.31 2359.19L1146.8 2341.78L1134.85 2340.76ZM1140.34 2303.95L1152.08 2306.4L1140.34 2303.95ZM1169.93 2226.17L1179.69 2233.15L1185.23 2225.4L1178.95 2218.24L1169.93 2226.17ZM1162.91 2205.44L1150.93 2204.63V2204.63L1162.91 2205.44ZM1193.26 2178.92L1194.07 2166.95L1193.26 2178.92ZM1219.78 2209.27L1207.8 2208.46V2208.46L1219.78 2209.27ZM1202.9 2233.41L1198.03 2222.45L1189.19 2226.37L1191.15 2235.84L1202.9 2233.41ZM1198.79 2316.16L1187.05 2313.71V2313.71L1198.79 2316.16ZM1167.73 2395.93L1158.21 2388.62L1157.57 2389.46L1157.08 2390.41L1167.73 2395.93ZM890.212 2399.8L900.147 2393.07L899.643 2392.33L899.033 2391.67L890.212 2399.8ZM855.901 2316.16L867.647 2313.71L855.901 2316.16ZM851.792 2233.41L863.543 2235.84L865.503 2226.37L856.669 2222.45L851.792 2233.41ZM834.918 2209.27L846.891 2208.46L834.918 2209.27ZM903.762 2204.63C902.256 2182.31 882.944 2165.44 860.627 2166.95L862.243 2190.89C871.335 2190.28 879.203 2197.15 879.816 2206.24L903.762 2204.63ZM893.779 2234.09C900.633 2226.28 904.517 2215.82 903.762 2204.63L879.816 2206.24C880.124 2210.81 878.559 2215.05 875.749 2218.24L893.779 2234.09ZM875.004 2233.15C885.018 2247.15 895.793 2273.77 902.613 2306.4L926.105 2301.49C918.95 2267.25 907.263 2236.99 894.524 2219.18L875.004 2233.15ZM902.613 2306.4C905.239 2318.97 906.994 2331.07 907.929 2342.2L931.845 2340.19C930.823 2328.04 928.921 2314.97 926.105 2301.49L902.613 2306.4ZM925.217 2351.95C935.337 2346.93 947.73 2342.56 961.909 2339.2L956.367 2315.85C940.784 2319.55 926.614 2324.47 914.556 2330.44L925.217 2351.95ZM971.061 2328.88C975.251 2292.15 1000.8 2267.27 1027.98 2267.45L1028.14 2243.45C985.15 2243.17 952.353 2281.13 947.215 2326.16L971.061 2328.88ZM1027.98 2267.45C1054.94 2267.62 1079.96 2292.4 1084 2328.72L1107.85 2326.06C1102.89 2281.48 1070.76 2243.73 1028.14 2243.45L1027.98 2267.45ZM1093.18 2339.07C1107.2 2342.36 1119.49 2346.63 1129.6 2351.55L1140.09 2329.96C1128.1 2324.13 1114.07 2319.32 1098.67 2315.71L1093.18 2339.07ZM1146.8 2341.78C1147.75 2330.77 1149.49 2318.81 1152.08 2306.4L1128.59 2301.49C1125.81 2314.8 1123.92 2327.71 1122.89 2339.73L1146.8 2341.78ZM1152.08 2306.4C1158.9 2273.77 1169.68 2247.15 1179.69 2233.15L1160.17 2219.18C1147.43 2236.99 1135.74 2267.25 1128.59 2301.49L1152.08 2306.4ZM1178.95 2218.24C1176.14 2215.05 1174.57 2210.81 1174.88 2206.24L1150.93 2204.63C1150.18 2215.82 1154.06 2226.28 1160.92 2234.09L1178.95 2218.24ZM1174.88 2206.24C1175.49 2197.15 1183.36 2190.28 1192.45 2190.89L1194.07 2166.95C1171.75 2165.44 1152.44 2182.31 1150.93 2204.63L1174.88 2206.24ZM1192.45 2190.89C1201.54 2191.51 1208.42 2199.37 1207.8 2208.46L1231.75 2210.08C1233.25 2187.76 1216.38 2168.45 1194.07 2166.95L1192.45 2190.89ZM1207.8 2208.46C1207.38 2214.77 1203.47 2220.02 1198.03 2222.45L1207.78 2244.37C1221.03 2238.48 1230.7 2225.61 1231.75 2210.08L1207.8 2208.46ZM1191.15 2235.84C1194.65 2252.74 1193.82 2281.29 1187.05 2313.71L1210.54 2318.62C1217.65 2284.59 1219.08 2252.39 1214.65 2230.98L1191.15 2235.84ZM1187.05 2313.71C1179.92 2347.82 1168.5 2375.23 1158.21 2388.62L1177.25 2403.24C1190.7 2385.72 1203.09 2354.26 1210.54 2318.62L1187.05 2313.71ZM1157.08 2390.41C1152.03 2400.15 1137.8 2410.94 1114.02 2419.3C1090.86 2427.44 1060.86 2432.47 1027.81 2432.47V2456.47C1063.11 2456.47 1095.87 2451.12 1121.98 2441.94C1147.48 2432.98 1169.03 2419.5 1178.38 2401.45L1157.08 2390.41ZM1027.81 2432.47C996.334 2432.47 967.597 2427.91 944.908 2420.42C921.756 2412.79 906.679 2402.72 900.147 2393.07L880.277 2406.53C891.236 2422.71 912.396 2434.97 937.391 2443.22C962.849 2451.61 994.169 2456.47 1027.81 2456.47V2432.47ZM899.033 2391.67C893.961 2386.17 888.021 2376.25 882.285 2362.41C876.635 2348.78 871.49 2332.1 867.647 2313.71L844.155 2318.62C848.265 2338.29 853.823 2356.43 860.114 2371.6C866.318 2386.57 873.557 2399.45 881.391 2407.94L899.033 2391.67ZM867.647 2313.71C860.873 2281.29 860.047 2252.74 863.543 2235.84L840.041 2230.98C835.611 2252.39 837.043 2284.59 844.155 2318.62L867.647 2313.71ZM822.946 2210.08C823.994 2225.61 833.665 2238.48 846.916 2244.37L856.669 2222.45C851.226 2220.02 847.317 2214.77 846.891 2208.46L822.946 2210.08ZM860.627 2166.95C838.31 2168.45 821.44 2187.76 822.946 2210.08L846.891 2208.46C846.278 2199.37 853.151 2191.51 862.243 2190.89L860.627 2166.95Z" fill="#2A3751" fill-opacity="0.32" mask="url(#path-3-outside-1_534_2190)"/>
<ellipse cx="1027.81" cy="2382.2" rx="143.411" ry="62.2689" transform="rotate(180 1027.81 2382.2)" fill="#7E0707"/>
<ellipse cx="1027.52" cy="2338.8" rx="69.028" ry="83.3545" transform="rotate(-179.627 1027.52 2338.8)" fill="#FFE89E"/>
<ellipse cx="1027.63" cy="2352" rx="71.1735" ry="70.8855" transform="rotate(-179.627 1027.63 2352)" fill="#604220"/>
<ellipse cx="1169.56" cy="2310.06" rx="99.4105" ry="29.8606" transform="rotate(-78.1962 1169.56 2310.06)" fill="#7E0707"/>
<circle cx="1191.34" cy="2207.35" r="28.5" transform="rotate(-176.14 1191.34 2207.35)" fill="#FFE89E"/>
<ellipse rx="99.4105" ry="29.8606" transform="matrix(-0.204561 -0.978854 -0.978854 0.204561 885.13 2310.06)" fill="#7E0707"/>
<circle r="28.5" transform="matrix(0.997731 -0.0673265 -0.0673265 -0.997731 863.354 2207.35)" fill="#FFE89E"/>
<circle cx="525.5" cy="1683.5" r="344.5" fill="#DAE2F1" stroke="#44506A" stroke-width="48"/>
<circle cx="421.315" cy="1550.83" r="91.7805" fill="#604220" stroke="white" stroke-width="24"/>
<path d="M424.005 1604.2C422.583 1604.92 422.211 1605.05 421.578 1605.1L421.159 1605.1C420.526 1605.05 420.154 1604.92 418.733 1604.2C409.294 1599.43 401.5 1591.71 397.027 1582.71C395.872 1580.38 395.016 1578.3 394.324 1576.14C393.889 1574.78 393.868 1574.74 392.618 1573.24C389.883 1569.97 388.247 1567.46 386.424 1563.75C383.112 1557.01 382.337 1550.19 384.179 1544.03C384.638 1542.49 385.366 1541.87 386.525 1542.03C387.705 1542.19 390.915 1543.94 393.242 1545.69C393.941 1546.22 394.553 1546.6 394.602 1546.55C394.651 1546.49 394.9 1545.89 395.157 1545.22C395.907 1543.26 397.849 1539.51 399.103 1537.6C401.009 1534.7 402.787 1532.46 407.074 1527.55C409.876 1524.34 412.002 1521.36 412.278 1520.25C412.651 1518.76 411.776 1516.74 409.547 1513.96C407.339 1511.21 406.151 1509.17 405.473 1506.99C405.241 1506.24 405.198 1505.83 405.2 1504.4C405.202 1502.89 405.239 1502.58 405.517 1501.75C405.689 1501.24 406.068 1500.47 406.359 1500.05C407.017 1499.1 407.908 1498.21 408.117 1498.29C408.204 1498.33 408.263 1498.29 408.247 1498.21C408.206 1498.01 409.246 1497.33 410.063 1497.02C411.093 1496.63 411.775 1496.55 416.743 1496.3L425.995 1496.3C430.963 1496.55 431.645 1496.63 432.674 1497.02C433.491 1497.33 434.532 1498.01 434.491 1498.21C434.475 1498.29 434.533 1498.33 434.62 1498.29C434.83 1498.21 435.721 1499.1 436.378 1500.05C436.669 1500.47 437.048 1501.24 437.221 1501.75C437.499 1502.58 437.535 1502.89 437.537 1504.4C437.539 1505.83 437.497 1506.24 437.265 1506.99C436.586 1509.17 435.398 1511.21 433.19 1513.96C430.962 1516.74 430.087 1518.76 430.46 1520.25C430.736 1521.36 432.861 1524.34 435.664 1527.55C439.951 1532.46 441.728 1534.7 443.634 1537.6C444.889 1539.51 446.83 1543.26 447.581 1545.22C447.837 1545.89 448.087 1546.49 448.136 1546.55C448.184 1546.6 448.796 1546.22 449.495 1545.69C451.822 1543.94 455.032 1542.19 456.213 1542.03C457.371 1541.87 458.099 1542.49 458.558 1544.03C460.401 1550.19 459.625 1557.01 456.314 1563.75C454.49 1567.46 452.854 1569.97 450.12 1573.24C448.869 1574.74 448.849 1574.78 448.414 1576.14C447.721 1578.3 446.866 1580.38 445.71 1582.71C441.238 1591.71 433.443 1599.43 424.005 1604.2Z" fill="#FFA3C5"/>
<circle cx="671.047" cy="1696.19" r="91.7805" transform="rotate(51.0415 671.047 1696.19)" fill="#604220" stroke="white" stroke-width="24"/>
<path d="M634.67 1736.07C633.171 1735.53 632.816 1735.35 632.352 1734.92L632.064 1734.61C631.66 1734.13 631.504 1733.76 631.05 1732.23C628.039 1722.1 628.301 1711.13 631.778 1701.7C632.676 1699.26 633.601 1697.21 634.7 1695.22C635.391 1693.97 635.403 1693.93 635.632 1691.99C636.135 1687.76 636.835 1684.85 638.282 1680.97C640.911 1673.94 645.337 1668.69 651.086 1665.8C652.518 1665.08 653.469 1665.18 654.151 1666.13C654.845 1667.1 655.775 1670.64 656.096 1673.53C656.193 1674.41 656.334 1675.11 656.409 1675.11C656.485 1675.1 657.09 1674.88 657.753 1674.6C659.694 1673.8 663.752 1672.64 666.001 1672.24C669.418 1671.64 672.268 1671.39 678.784 1671.14C683.043 1670.97 686.669 1670.47 687.662 1669.91C689.004 1669.16 689.869 1667.14 690.362 1663.61C690.849 1660.11 691.512 1657.85 692.636 1655.86C693.02 1655.18 693.286 1654.87 694.334 1653.88C695.434 1652.85 695.679 1652.66 696.474 1652.3C696.968 1652.07 697.784 1651.82 698.289 1651.74C699.43 1651.57 700.689 1651.61 700.774 1651.81C700.809 1651.9 700.875 1651.92 700.92 1651.85C701.038 1651.69 702.249 1651.97 703.036 1652.35C704.027 1652.83 704.549 1653.28 708.145 1656.72L714.496 1663.44C717.721 1667.23 718.136 1667.78 718.558 1668.8C718.893 1669.6 719.109 1670.83 718.936 1670.94C718.869 1670.98 718.883 1671.05 718.967 1671.09C719.17 1671.18 719.134 1672.44 718.896 1673.57C718.791 1674.07 718.495 1674.87 718.238 1675.35C717.825 1676.12 717.629 1676.36 716.532 1677.4C715.488 1678.38 715.163 1678.63 714.46 1678.98C712.405 1679.98 710.111 1680.52 706.592 1680.8C703.04 1681.09 700.973 1681.84 700.143 1683.13C699.529 1684.09 698.821 1687.68 698.41 1691.93C697.78 1698.42 697.37 1701.25 696.57 1704.63C696.043 1706.85 694.651 1710.83 693.741 1712.72C693.429 1713.37 693.167 1713.96 693.158 1714.04C693.149 1714.11 693.849 1714.29 694.712 1714.44C697.585 1714.93 701.063 1716.06 701.989 1716.81C702.898 1717.54 702.947 1718.5 702.145 1719.89C698.926 1725.46 693.434 1729.58 686.26 1731.8C682.309 1733.02 679.363 1733.55 675.106 1733.81C673.159 1733.93 673.119 1733.93 671.831 1734.55C669.781 1735.54 667.681 1736.34 665.197 1737.1C655.58 1740.03 644.617 1739.66 634.67 1736.07Z" fill="#FFA3C5"/>
<circle cx="422.444" cy="1826.36" r="91.7805" transform="rotate(-156.865 422.444 1826.36)" fill="#604220" stroke="white" stroke-width="24"/>
<path d="M439.688 1775.73C441.276 1775.61 441.673 1775.62 442.273 1775.83L442.66 1775.99C443.229 1776.27 443.52 1776.54 444.56 1777.75C451.458 1785.76 455.711 1795.87 456.402 1805.9C456.581 1808.49 456.577 1810.74 456.389 1813.01C456.27 1814.43 456.276 1814.47 456.86 1816.33C458.136 1820.4 458.689 1823.34 458.955 1827.47C459.439 1834.96 457.549 1841.56 453.489 1846.56C452.478 1847.8 451.568 1848.1 450.557 1847.51C449.527 1846.91 447.231 1844.06 445.751 1841.55C445.307 1840.8 444.888 1840.21 444.821 1840.24C444.754 1840.28 444.295 1840.74 443.802 1841.26C442.359 1842.78 439.133 1845.5 437.244 1846.79C434.374 1848.74 431.874 1850.13 426.035 1853.03C422.218 1854.93 419.115 1856.87 418.437 1857.78C417.522 1859.02 417.56 1861.22 418.556 1864.64C419.544 1868.03 419.864 1870.36 419.655 1872.64C419.584 1873.42 419.468 1873.81 418.916 1875.14C418.337 1876.54 418.188 1876.8 417.613 1877.46C417.257 1877.88 416.614 1878.44 416.185 1878.71C415.214 1879.34 414.051 1879.82 413.888 1879.67C413.821 1879.6 413.753 1879.61 413.738 1879.69C413.7 1879.89 412.477 1880.12 411.603 1880.1C410.502 1880.07 409.844 1879.87 405.155 1878.21L396.606 1874.68C392.113 1872.54 391.511 1872.21 390.709 1871.46C390.073 1870.86 389.373 1869.83 389.487 1869.66C389.531 1869.59 389.491 1869.54 389.398 1869.54C389.173 1869.53 388.69 1868.37 388.445 1867.24C388.337 1866.74 388.279 1865.89 388.316 1865.35C388.377 1864.47 388.459 1864.18 389.035 1862.78C389.583 1861.45 389.777 1861.09 390.277 1860.49C391.74 1858.73 393.615 1857.31 396.708 1855.6C399.83 1853.89 401.41 1852.36 401.636 1850.83C401.803 1849.71 400.978 1846.14 399.616 1842.1C397.532 1835.92 396.747 1833.17 396.094 1829.76C395.664 1827.52 395.302 1823.32 395.358 1821.22C395.378 1820.5 395.375 1819.85 395.352 1819.78C395.329 1819.71 394.617 1819.83 393.769 1820.05C390.948 1820.78 387.313 1821.17 386.161 1820.87C385.03 1820.57 384.595 1819.72 384.758 1818.13C385.412 1811.72 388.736 1805.72 394.372 1800.76C397.476 1798.02 399.946 1796.33 403.724 1794.35C405.452 1793.45 405.484 1793.42 406.406 1792.33C407.874 1790.59 409.459 1789 411.416 1787.29C418.99 1780.68 429.143 1776.53 439.688 1775.73Z" fill="#FFA3C5"/>
<circle cx="1668.5" cy="1244.5" r="344.5" fill="#DAE2F1" stroke="#44506A" stroke-width="48"/>
<circle cx="1564.31" cy="1111.83" r="91.7805" fill="#604220" stroke="white" stroke-width="24"/>
<path d="M1567 1165.2C1565.58 1165.92 1565.21 1166.05 1564.58 1166.1L1564.16 1166.1C1563.53 1166.05 1563.15 1165.92 1561.73 1165.2C1552.29 1160.43 1544.5 1152.71 1540.03 1143.71C1538.87 1141.38 1538.02 1139.3 1537.32 1137.14C1536.89 1135.78 1536.87 1135.74 1535.62 1134.24C1532.88 1130.97 1531.25 1128.46 1529.42 1124.75C1526.11 1118.01 1525.34 1111.19 1527.18 1105.03C1527.64 1103.49 1528.37 1102.87 1529.52 1103.03C1530.71 1103.19 1533.92 1104.94 1536.24 1106.69C1536.94 1107.22 1537.55 1107.6 1537.6 1107.55C1537.65 1107.49 1537.9 1106.89 1538.16 1106.22C1538.91 1104.26 1540.85 1100.51 1542.1 1098.6C1544.01 1095.7 1545.79 1093.46 1550.07 1088.55C1552.88 1085.34 1555 1082.36 1555.28 1081.25C1555.65 1079.76 1554.78 1077.74 1552.55 1074.96C1550.34 1072.21 1549.15 1070.17 1548.47 1067.99C1548.24 1067.24 1548.2 1066.83 1548.2 1065.4C1548.2 1063.89 1548.24 1063.58 1548.52 1062.75C1548.69 1062.24 1549.07 1061.47 1549.36 1061.05C1550.02 1060.1 1550.91 1059.21 1551.12 1059.29C1551.2 1059.33 1551.26 1059.29 1551.25 1059.21C1551.21 1059.01 1552.25 1058.33 1553.06 1058.02C1554.09 1057.63 1554.77 1057.55 1559.74 1057.3L1568.99 1057.3C1573.96 1057.55 1574.64 1057.63 1575.67 1058.02C1576.49 1058.33 1577.53 1059.01 1577.49 1059.21C1577.47 1059.29 1577.53 1059.33 1577.62 1059.29C1577.83 1059.21 1578.72 1060.1 1579.38 1061.05C1579.67 1061.47 1580.05 1062.24 1580.22 1062.75C1580.5 1063.58 1580.54 1063.89 1580.54 1065.4C1580.54 1066.83 1580.5 1067.24 1580.26 1067.99C1579.59 1070.17 1578.4 1072.21 1576.19 1074.96C1573.96 1077.74 1573.09 1079.76 1573.46 1081.25C1573.74 1082.36 1575.86 1085.34 1578.66 1088.55C1582.95 1093.46 1584.73 1095.7 1586.63 1098.6C1587.89 1100.51 1589.83 1104.26 1590.58 1106.22C1590.84 1106.89 1591.09 1107.49 1591.14 1107.55C1591.18 1107.6 1591.8 1107.22 1592.5 1106.69C1594.82 1104.94 1598.03 1103.19 1599.21 1103.03C1600.37 1102.87 1601.1 1103.49 1601.56 1105.03C1603.4 1111.19 1602.63 1118.01 1599.31 1124.75C1597.49 1128.46 1595.85 1130.97 1593.12 1134.24C1591.87 1135.74 1591.85 1135.78 1591.41 1137.14C1590.72 1139.3 1589.87 1141.38 1588.71 1143.71C1584.24 1152.71 1576.44 1160.43 1567 1165.2Z" fill="#FFA3C5"/>
<circle cx="1814.05" cy="1257.19" r="91.7805" transform="rotate(51.0415 1814.05 1257.19)" fill="#604220" stroke="white" stroke-width="24"/>
<path d="M1777.67 1297.07C1776.17 1296.53 1775.82 1296.35 1775.35 1295.92L1775.06 1295.61C1774.66 1295.13 1774.5 1294.76 1774.05 1293.23C1771.04 1283.1 1771.3 1272.13 1774.78 1262.7C1775.68 1260.26 1776.6 1258.21 1777.7 1256.22C1778.39 1254.97 1778.4 1254.93 1778.63 1252.99C1779.14 1248.76 1779.83 1245.85 1781.28 1241.97C1783.91 1234.94 1788.34 1229.69 1794.09 1226.8C1795.52 1226.08 1796.47 1226.18 1797.15 1227.13C1797.84 1228.1 1798.77 1231.64 1799.1 1234.53C1799.19 1235.41 1799.33 1236.11 1799.41 1236.11C1799.48 1236.1 1800.09 1235.88 1800.75 1235.6C1802.69 1234.8 1806.75 1233.64 1809 1233.24C1812.42 1232.64 1815.27 1232.39 1821.78 1232.14C1826.04 1231.97 1829.67 1231.47 1830.66 1230.91C1832 1230.16 1832.87 1228.14 1833.36 1224.61C1833.85 1221.11 1834.51 1218.85 1835.64 1216.86C1836.02 1216.18 1836.29 1215.87 1837.33 1214.88C1838.43 1213.85 1838.68 1213.66 1839.47 1213.3C1839.97 1213.07 1840.78 1212.82 1841.29 1212.74C1842.43 1212.57 1843.69 1212.61 1843.77 1212.81C1843.81 1212.9 1843.88 1212.92 1843.92 1212.85C1844.04 1212.69 1845.25 1212.97 1846.04 1213.35C1847.03 1213.83 1847.55 1214.28 1851.15 1217.72L1857.5 1224.44C1860.72 1228.23 1861.14 1228.78 1861.56 1229.8C1861.89 1230.6 1862.11 1231.83 1861.94 1231.94C1861.87 1231.98 1861.88 1232.05 1861.97 1232.09C1862.17 1232.18 1862.13 1233.44 1861.9 1234.57C1861.79 1235.07 1861.49 1235.87 1861.24 1236.35C1860.82 1237.12 1860.63 1237.36 1859.53 1238.4C1858.49 1239.38 1858.16 1239.63 1857.46 1239.98C1855.4 1240.98 1853.11 1241.52 1849.59 1241.8C1846.04 1242.09 1843.97 1242.84 1843.14 1244.13C1842.53 1245.09 1841.82 1248.68 1841.41 1252.93C1840.78 1259.42 1840.37 1262.25 1839.57 1265.63C1839.04 1267.85 1837.65 1271.83 1836.74 1273.72C1836.43 1274.37 1836.17 1274.96 1836.16 1275.04C1836.15 1275.11 1836.85 1275.29 1837.71 1275.44C1840.59 1275.93 1844.06 1277.06 1844.99 1277.81C1845.9 1278.54 1845.95 1279.5 1845.14 1280.89C1841.93 1286.46 1836.43 1290.58 1829.26 1292.8C1825.31 1294.02 1822.36 1294.55 1818.11 1294.81C1816.16 1294.93 1816.12 1294.93 1814.83 1295.55C1812.78 1296.54 1810.68 1297.34 1808.2 1298.1C1798.58 1301.03 1787.62 1300.66 1777.67 1297.07Z" fill="#FFA3C5"/>
<circle cx="1565.44" cy="1387.36" r="91.7805" transform="rotate(-156.865 1565.44 1387.36)" fill="#604220" stroke="white" stroke-width="24"/>
<path d="M1582.69 1336.73C1584.28 1336.61 1584.67 1336.62 1585.27 1336.83L1585.66 1336.99C1586.23 1337.27 1586.52 1337.54 1587.56 1338.75C1594.46 1346.76 1598.71 1356.87 1599.4 1366.9C1599.58 1369.49 1599.58 1371.74 1599.39 1374.01C1599.27 1375.43 1599.28 1375.47 1599.86 1377.33C1601.14 1381.4 1601.69 1384.34 1601.96 1388.47C1602.44 1395.96 1600.55 1402.56 1596.49 1407.56C1595.48 1408.8 1594.57 1409.1 1593.56 1408.51C1592.53 1407.91 1590.23 1405.06 1588.75 1402.55C1588.31 1401.8 1587.89 1401.21 1587.82 1401.24C1587.75 1401.28 1587.3 1401.74 1586.8 1402.26C1585.36 1403.78 1582.13 1406.5 1580.24 1407.79C1577.37 1409.74 1574.87 1411.13 1569.04 1414.03C1565.22 1415.93 1562.11 1417.87 1561.44 1418.78C1560.52 1420.02 1560.56 1422.22 1561.56 1425.64C1562.54 1429.03 1562.86 1431.36 1562.66 1433.64C1562.58 1434.42 1562.47 1434.81 1561.92 1436.14C1561.34 1437.54 1561.19 1437.8 1560.61 1438.46C1560.26 1438.88 1559.61 1439.44 1559.18 1439.71C1558.21 1440.34 1557.05 1440.82 1556.89 1440.67C1556.82 1440.6 1556.75 1440.61 1556.74 1440.69C1556.7 1440.89 1555.48 1441.12 1554.6 1441.1C1553.5 1441.07 1552.84 1440.87 1548.16 1439.21L1539.61 1435.68C1535.11 1433.54 1534.51 1433.21 1533.71 1432.46C1533.07 1431.86 1532.37 1430.83 1532.49 1430.66C1532.53 1430.59 1532.49 1430.54 1532.4 1430.54C1532.17 1430.53 1531.69 1429.37 1531.44 1428.24C1531.34 1427.74 1531.28 1426.89 1531.32 1426.35C1531.38 1425.47 1531.46 1425.18 1532.03 1423.78C1532.58 1422.45 1532.78 1422.09 1533.28 1421.49C1534.74 1419.73 1536.61 1418.31 1539.71 1416.6C1542.83 1414.89 1544.41 1413.36 1544.64 1411.83C1544.8 1410.71 1543.98 1407.14 1542.62 1403.1C1540.53 1396.92 1539.75 1394.17 1539.09 1390.76C1538.66 1388.52 1538.3 1384.32 1538.36 1382.22C1538.38 1381.5 1538.37 1380.85 1538.35 1380.78C1538.33 1380.71 1537.62 1380.83 1536.77 1381.05C1533.95 1381.78 1530.31 1382.17 1529.16 1381.87C1528.03 1381.57 1527.59 1380.72 1527.76 1379.13C1528.41 1372.72 1531.74 1366.72 1537.37 1361.76C1540.48 1359.02 1542.95 1357.33 1546.72 1355.35C1548.45 1354.45 1548.48 1354.42 1549.41 1353.33C1550.87 1351.59 1552.46 1350 1554.42 1348.29C1561.99 1341.68 1572.14 1337.53 1582.69 1336.73Z" fill="#FFA3C5"/>
<circle cx="809.5" cy="641.5" r="344.5" fill="#DAE2F1" stroke="#44506A" stroke-width="48"/>
<circle cx="705.315" cy="508.828" r="91.7805" fill="#604220" stroke="white" stroke-width="24"/>
<path d="M708.005 562.199C706.583 562.917 706.211 563.055 705.578 563.096L705.159 563.096C704.526 563.055 704.154 562.917 702.733 562.199C693.294 557.43 685.5 549.712 681.027 540.709C679.872 538.382 679.016 536.302 678.324 534.137C677.889 532.776 677.868 532.741 676.618 531.244C673.883 527.972 672.247 525.465 670.424 521.753C667.112 515.013 666.337 508.193 668.179 502.026C668.638 500.49 669.366 499.87 670.525 500.026C671.705 500.186 674.915 501.938 677.242 503.692C677.941 504.22 678.553 504.603 678.602 504.545C678.651 504.487 678.9 503.891 679.157 503.221C679.907 501.26 681.849 497.513 683.103 495.604C685.009 492.704 686.787 490.462 691.074 485.55C693.876 482.338 696.002 479.358 696.278 478.253C696.651 476.759 695.776 474.743 693.547 471.963C691.339 469.208 690.151 467.175 689.473 464.989C689.241 464.241 689.198 463.835 689.2 462.396C689.202 460.886 689.239 460.583 689.517 459.752C689.689 459.236 690.068 458.471 690.359 458.051C691.017 457.103 691.908 456.213 692.117 456.294C692.204 456.327 692.263 456.292 692.247 456.215C692.206 456.015 693.246 455.33 694.063 455.02C695.093 454.629 695.775 454.555 700.743 454.299L709.995 454.299C714.963 454.555 715.645 454.628 716.674 455.02C717.491 455.33 718.532 456.014 718.491 456.215C718.475 456.292 718.533 456.327 718.62 456.294C718.83 456.213 719.721 457.103 720.378 458.051C720.669 458.471 721.048 459.236 721.221 459.752C721.499 460.582 721.535 460.885 721.537 462.396C721.539 463.835 721.497 464.241 721.265 464.988C720.586 467.174 719.398 469.207 717.19 471.962C714.962 474.743 714.087 476.759 714.46 478.253C714.736 479.358 716.861 482.338 719.664 485.55C723.951 490.462 725.728 492.704 727.634 495.604C728.889 497.513 730.83 501.26 731.581 503.221C731.837 503.891 732.087 504.487 732.136 504.545C732.184 504.603 732.796 504.22 733.495 503.692C735.822 501.938 739.032 500.186 740.213 500.026C741.371 499.87 742.099 500.49 742.558 502.026C744.401 508.193 743.625 515.013 740.314 521.753C738.49 525.465 736.854 527.972 734.12 531.244C732.869 532.741 732.849 532.776 732.414 534.137C731.721 536.303 730.866 538.382 729.71 540.709C725.238 549.712 717.443 557.43 708.005 562.199Z" fill="#FFA3C5"/>
<circle cx="955.047" cy="654.194" r="91.7805" transform="rotate(51.0415 955.047 654.194)" fill="#604220" stroke="white" stroke-width="24"/>
<path d="M918.67 694.067C917.171 693.526 916.816 693.35 916.352 692.918L916.064 692.613C915.66 692.125 915.504 691.76 915.05 690.233C912.039 680.096 912.301 669.13 915.778 659.698C916.676 657.261 917.601 655.21 918.7 653.221C919.391 651.97 919.403 651.931 919.632 649.994C920.135 645.759 920.835 642.849 922.282 638.974C924.911 631.94 929.337 626.694 935.086 623.801C936.518 623.08 937.469 623.183 938.151 624.134C938.845 625.101 939.775 628.638 940.096 631.535C940.193 632.405 940.334 633.114 940.409 633.109C940.485 633.104 941.09 632.877 941.753 632.603C943.694 631.803 947.752 630.642 950.001 630.244C953.418 629.64 956.268 629.393 962.784 629.138C967.043 628.972 970.669 628.471 971.662 627.913C973.004 627.159 973.869 625.139 974.362 621.61C974.849 618.113 975.512 615.854 976.636 613.859C977.02 613.178 977.286 612.868 978.334 611.882C979.434 610.846 979.679 610.665 980.474 610.297C980.968 610.068 981.784 609.818 982.289 609.742C983.43 609.569 984.689 609.606 984.774 609.814C984.809 609.9 984.875 609.918 984.92 609.854C985.038 609.687 986.249 609.973 987.036 610.354C988.027 610.834 988.549 611.28 992.145 614.717L998.496 621.445C1001.72 625.232 1002.14 625.779 1002.56 626.796C1002.89 627.604 1003.11 628.83 1002.94 628.937C1002.87 628.979 1002.88 629.045 1002.97 629.086C1003.17 629.183 1003.13 630.441 1002.9 631.571C1002.79 632.07 1002.49 632.871 1002.24 633.351C1001.82 634.123 1001.63 634.357 1000.53 635.396C999.488 636.385 999.163 636.633 998.46 636.977C996.405 637.985 994.111 638.516 990.592 638.802C987.04 639.09 984.973 639.838 984.143 641.135C983.529 642.094 982.821 645.685 982.41 649.928C981.78 656.417 981.37 659.249 980.57 662.626C980.043 664.848 978.651 668.832 977.741 670.724C977.429 671.371 977.167 671.961 977.158 672.036C977.149 672.112 977.849 672.293 978.712 672.44C981.585 672.927 985.063 674.059 985.989 674.808C986.898 675.543 986.947 676.498 986.145 677.887C982.926 683.46 977.434 687.577 970.26 689.796C966.309 691.018 963.363 691.549 959.106 691.808C957.159 691.926 957.119 691.935 955.831 692.553C953.781 693.536 951.681 694.341 949.197 695.098C939.58 698.026 928.617 697.656 918.67 694.067Z" fill="#FFA3C5"/>
<circle cx="706.444" cy="784.36" r="91.7805" transform="rotate(-156.865 706.444 784.36)" fill="#604220" stroke="white" stroke-width="24"/>
<path d="M723.688 733.73C725.276 733.61 725.673 733.625 726.273 733.829L726.66 733.989C727.229 734.269 727.52 734.538 728.56 735.745C735.458 743.76 739.711 753.871 740.402 763.9C740.581 766.491 740.577 768.74 740.389 771.006C740.27 772.43 740.276 772.47 740.86 774.331C742.136 778.401 742.689 781.342 742.955 785.47C743.439 792.964 741.549 799.562 737.489 804.556C736.478 805.8 735.568 806.095 734.557 805.508C733.527 804.909 731.231 802.063 729.751 799.553C729.307 798.798 728.888 798.209 728.821 798.245C728.754 798.28 728.295 798.735 727.802 799.256C726.359 800.782 723.133 803.502 721.244 804.786C718.374 806.737 715.874 808.13 710.035 811.031C706.218 812.927 703.115 814.868 702.437 815.784C701.522 817.022 701.56 819.22 702.556 822.641C703.544 826.03 703.864 828.363 703.655 830.642C703.584 831.422 703.468 831.814 702.916 833.142C702.337 834.537 702.188 834.803 701.613 835.465C701.257 835.875 700.614 836.438 700.185 836.714C699.214 837.339 698.051 837.821 697.888 837.666C697.821 837.602 697.753 837.612 697.738 837.69C697.7 837.89 696.477 838.125 695.603 838.099C694.502 838.068 693.844 837.875 689.155 836.212L680.606 832.676C676.113 830.541 675.511 830.212 674.709 829.457C674.073 828.857 673.373 827.828 673.487 827.659C673.531 827.593 673.491 827.538 673.398 827.536C673.173 827.531 672.69 826.368 672.445 825.24C672.337 824.741 672.279 823.889 672.316 823.346C672.377 822.472 672.459 822.179 673.035 820.782C673.583 819.452 673.777 819.093 674.277 818.491C675.74 816.73 677.615 815.305 680.708 813.603C683.83 811.886 685.41 810.357 685.636 808.834C685.803 807.708 684.978 804.142 683.616 800.103C681.532 793.924 680.747 791.173 680.094 787.765C679.664 785.522 679.302 781.317 679.358 779.218C679.378 778.501 679.375 777.855 679.352 777.782C679.329 777.71 678.617 777.831 677.769 778.051C674.948 778.783 671.313 779.175 670.161 778.871C669.03 778.573 668.595 777.721 668.758 776.126C669.412 769.723 672.736 763.718 678.372 758.755C681.476 756.022 683.946 754.331 687.724 752.352C689.452 751.447 689.484 751.423 690.406 750.331C691.874 748.595 693.459 747 695.416 745.292C702.99 738.682 713.143 734.529 723.688 733.73Z" fill="#FFA3C5"/>
<path d="M1030 2196.5L1030 2051.71C1030 2015.78 1010.53 1982.67 979.133 1965.2L892.5 1917" stroke="#2A3751" stroke-width="24" stroke-linecap="round"/>
<path d="M958.001 1894L886 1912.5L906 1982.5" stroke="#2A3751" stroke-width="24" stroke-linecap="round"/>
</svg>
