<svg width="762" height="772" viewBox="0 0 762 772" fill="none" xmlns="http://www.w3.org/2000/svg">
<path d="M124.328 72.4275C135.565 61.1908 153.783 61.1908 165.02 72.4275L210.246 117.654C221.483 128.891 221.483 147.109 210.246 158.346L165.02 203.573C153.783 214.809 135.565 214.809 124.328 203.573L79.1013 158.346C67.8647 147.109 67.8647 128.891 79.1013 117.654L124.328 72.4275Z" fill="#DA2F85" fill-opacity="0.16"/>
<path fill-rule="evenodd" clip-rule="evenodd" d="M193.276 134.625L148.049 89.398C146.185 87.534 143.163 87.534 141.299 89.398L96.0718 134.625C94.2078 136.489 94.2078 139.511 96.0718 141.375L141.299 186.602C143.163 188.466 146.185 188.466 148.049 186.602L193.276 141.375C195.14 139.511 195.14 136.489 193.276 134.625ZM165.02 72.4275C153.783 61.1908 135.565 61.1908 124.328 72.4275L79.1013 117.654C67.8647 128.891 67.8647 147.109 79.1013 158.346L124.328 203.573C135.565 214.809 153.783 214.809 165.02 203.573L210.246 158.346C221.483 147.109 221.483 128.891 210.246 117.654L165.02 72.4275Z" fill="#DA2F84" fill-opacity="0.64"/>
<path d="M117.691 327.579C129.683 306.807 159.665 306.807 171.658 327.579L221.128 413.263C233.12 434.035 218.129 460 194.144 460H95.2044C71.219 460 56.2282 434.035 68.2209 413.263L117.691 327.579Z" fill="#DA2F85" fill-opacity="0.16"/>
<path fill-rule="evenodd" clip-rule="evenodd" d="M200.343 425.263L150.873 339.579C148.118 334.807 141.23 334.807 138.475 339.579L89.0055 425.263C86.2504 430.035 89.6942 436 95.2044 436H194.144C199.654 436 203.098 430.035 200.343 425.263ZM171.658 327.579C159.665 306.807 129.683 306.807 117.691 327.579L68.2209 413.263C56.2282 434.035 71.219 460 95.2044 460H194.144C218.129 460 233.12 434.035 221.128 413.263L171.658 327.579Z" fill="#DA2F84" fill-opacity="0.64"/>
<path d="M96.0571 581.038C124.107 552.987 169.586 552.987 197.636 581.038C225.686 609.088 225.686 654.566 197.636 682.617L193.291 686.962C165.24 715.013 119.762 715.013 91.7115 686.962C63.6613 658.912 63.6613 613.434 91.7115 585.383L96.0571 581.038Z" fill="#DA2F85" fill-opacity="0.16"/>
<path fill-rule="evenodd" clip-rule="evenodd" d="M96.0571 581.038L91.7115 585.383C63.6613 613.434 63.6613 658.912 91.7115 686.962C119.762 715.013 165.24 715.013 193.291 686.962L197.636 682.617C225.686 654.566 225.686 609.088 197.636 581.038C169.586 552.987 124.107 552.987 96.0571 581.038ZM180.666 665.646C180.666 665.646 180.666 665.646 180.666 665.646C199.343 646.968 199.343 616.686 180.666 598.008C161.988 579.331 131.705 579.331 113.028 598.008L113.028 598.008L108.682 602.354C108.682 602.354 108.682 602.354 108.682 602.354C90.0044 621.032 90.0044 651.314 108.682 669.992C127.36 688.669 157.642 688.669 176.32 669.992L176.32 669.992L180.666 665.646Z" fill="#DA2F84" fill-opacity="0.64"/>
<path d="M596.329 72.4275C607.565 61.1908 625.783 61.1908 637.02 72.4275L682.247 117.654C693.483 128.891 693.483 147.109 682.247 158.346L637.02 203.573C625.783 214.809 607.565 214.809 596.329 203.573L551.102 158.346C539.865 147.109 539.865 128.891 551.102 117.654L596.329 72.4275Z" fill="#D6E4FF"/>
<path fill-rule="evenodd" clip-rule="evenodd" d="M665.276 134.625L620.049 89.398C618.185 87.534 615.163 87.534 613.299 89.398L568.072 134.625C566.208 136.489 566.208 139.511 568.072 141.375L613.299 186.602C615.163 188.466 618.185 188.466 620.049 186.602L665.276 141.375C667.14 139.511 667.14 136.489 665.276 134.625ZM637.02 72.4275C625.783 61.1908 607.565 61.1908 596.329 72.4275L551.102 117.654C539.865 128.891 539.865 147.109 551.102 158.346L596.329 203.573C607.565 214.809 625.783 214.809 637.02 203.573L682.247 158.346C693.483 147.109 693.483 128.891 682.247 117.654L637.02 72.4275Z" fill="#1A42E5" fill-opacity="0.64"/>
<path d="M589.691 327.579C601.683 306.807 631.665 306.807 643.658 327.579L693.128 413.263C705.12 434.035 690.129 460 666.144 460H567.204C543.219 460 528.228 434.035 540.221 413.263L589.691 327.579Z" fill="#D6E4FF"/>
<path fill-rule="evenodd" clip-rule="evenodd" d="M672.343 425.263L622.873 339.579C620.118 334.807 613.23 334.807 610.475 339.579L561.005 425.263C558.25 430.035 561.694 436 567.204 436H666.144C671.654 436 675.098 430.035 672.343 425.263ZM643.658 327.579C631.665 306.807 601.683 306.807 589.691 327.579L540.221 413.263C528.228 434.035 543.219 460 567.204 460H666.144C690.129 460 705.12 434.035 693.128 413.263L643.658 327.579Z" fill="#1A42E5" fill-opacity="0.64"/>
<path d="M568.058 581.038C596.108 552.987 641.586 552.987 669.637 581.038C697.687 609.088 697.687 654.566 669.637 682.617L665.291 686.962C637.241 715.013 591.762 715.013 563.712 686.962C535.662 658.912 535.662 613.434 563.712 585.383L568.058 581.038Z" fill="#D6E4FF"/>
<path fill-rule="evenodd" clip-rule="evenodd" d="M568.058 581.038L563.712 585.383C535.662 613.434 535.662 658.912 563.712 686.962C591.762 715.013 637.241 715.013 665.291 686.962L669.637 682.617C697.687 654.566 697.687 609.088 669.637 581.038C641.586 552.987 596.108 552.987 568.058 581.038ZM652.666 665.646C652.666 665.646 652.666 665.646 652.666 665.646C671.344 646.968 671.344 616.686 652.666 598.008C633.988 579.331 603.706 579.331 585.028 598.008L585.028 598.008L580.683 602.354C580.683 602.354 580.683 602.354 580.683 602.354C562.005 621.032 562.005 651.314 580.683 669.992C599.36 688.669 629.643 688.669 648.32 669.992L648.321 669.992L652.666 665.646Z" fill="#1A42E5" fill-opacity="0.64"/>
<path d="M367.828 83C371.066 83 373.867 83.6564 376.23 84.9692C378.637 86.2821 380.781 87.8137 382.663 89.5641C384.588 91.3145 386.426 92.8462 388.177 94.159C389.971 95.4718 391.853 96.1282 393.822 96.1282C396.316 96.1282 398.439 95.253 400.189 93.5026C400.887 92.8046 401.582 91.9908 402.273 91.0611C404.338 88.2837 407.967 86.9348 411.121 88.3603V88.3603C414.43 89.8558 415.924 93.7846 414.107 96.9282C412.076 100.439 409.866 103.477 407.475 106.04C403.887 109.891 399.161 111.816 393.297 111.816C390.146 111.816 387.367 111.16 384.96 109.847C382.597 108.534 380.453 107.003 378.527 105.252C376.602 103.502 374.742 101.97 372.948 100.657C371.154 99.3446 369.272 98.6882 367.303 98.6882C364.765 98.6882 362.599 99.6072 360.804 101.445C360.135 102.148 359.47 102.946 358.807 103.84C356.788 106.564 353.228 107.861 350.132 106.479V106.479C346.78 104.983 345.31 100.989 347.187 97.835C348.078 96.3396 349.006 94.8954 349.974 93.5026C352.162 90.3518 354.7 87.8137 357.588 85.8882C360.476 83.9627 363.89 83 367.828 83Z" fill="#DAE2F1"/>
<path fill-rule="evenodd" clip-rule="evenodd" d="M362.66 99.9514C362.096 100.296 361.561 100.712 361.054 101.197C360.97 101.278 360.887 101.361 360.804 101.445C360.642 101.615 360.48 101.791 360.318 101.973C359.813 102.54 359.309 103.163 358.807 103.84C358.649 104.054 358.481 104.258 358.305 104.454C356.233 106.751 352.985 107.753 350.131 106.479C346.78 104.983 345.31 100.989 347.187 97.835C347.547 97.23 347.914 96.6333 348.287 96.0451C348.797 95.2393 349.32 94.4492 349.854 93.6749C349.894 93.6174 349.934 93.5599 349.974 93.5026C350.307 93.0227 350.648 92.557 350.998 92.1055C351.032 92.0611 351.066 92.0169 351.101 91.9728C351.84 91.0282 352.615 90.1465 353.427 89.3278C354.722 88.0207 356.109 86.8741 357.588 85.8882C360.476 83.9627 363.889 83 367.828 83C371.066 83 373.867 83.6564 376.23 84.9692C378.637 86.2821 380.781 87.8137 382.663 89.5641C384.588 91.3145 386.426 92.8462 388.177 94.159C389.971 95.4718 391.853 96.1282 393.822 96.1282C395.697 96.1282 397.362 95.6335 398.817 94.6442C399.297 94.3176 399.754 93.937 400.189 93.5026C400.447 93.2449 400.704 92.9714 400.961 92.6821C401.399 92.1879 401.837 91.6476 402.273 91.0611C402.444 90.8308 402.626 90.6102 402.818 90.4003C404.937 88.0791 408.228 87.053 411.12 88.3603C414.429 89.8558 415.924 93.7846 414.106 96.9282C413.706 97.621 413.298 98.2953 412.884 98.9512C412.413 99.6961 411.933 100.417 411.444 101.114C410.937 101.838 410.42 102.535 409.893 103.207C409.482 103.732 409.064 104.242 408.64 104.736C408.257 105.184 407.868 105.618 407.475 106.04C403.887 109.891 399.161 111.816 393.297 111.816C390.146 111.816 387.367 111.16 384.96 109.847C382.597 108.534 380.453 107.003 378.527 105.252C376.602 103.502 374.742 101.97 372.948 100.657C371.154 99.3446 369.272 98.6882 367.303 98.6882C365.585 98.6882 364.037 99.1093 362.66 99.9514ZM393.606 86.9197L399.891 93.2046ZM393.212 80.2144C398.748 74.7536 407.783 71.4884 416.887 75.6028C426.888 80.1231 432.647 92.8331 426.226 103.936C423.748 108.221 420.93 112.139 417.718 115.584C417.716 115.586 417.715 115.587 417.714 115.588C411.161 122.618 402.553 125.816 393.297 125.816C388.156 125.816 383.009 124.73 378.256 122.138L378.209 122.112L378.161 122.085C374.892 120.269 371.863 118.115 369.11 115.611C368.72 115.257 368.338 114.917 367.964 114.592C362.432 120.108 353.421 123.278 344.425 119.264C334.175 114.688 328.581 101.72 335.158 90.6735C336.211 88.9046 337.316 87.1852 338.474 85.517C341.56 81.0734 345.324 77.2382 349.822 74.2395C355.31 70.5808 361.51 69 367.828 69C372.957 69 378.173 70.0466 382.977 72.7024C386.298 74.518 389.369 76.6927 392.132 79.2516C392.5 79.5856 392.86 79.9064 393.212 80.2144ZM367.303 108.372L367.552 108.032Z" fill="#44506A"/>
<path d="M367.828 153.816C371.066 153.816 373.867 154.473 376.23 155.786C378.637 157.098 380.781 158.63 382.663 160.381C384.588 162.131 386.426 163.663 388.177 164.975C389.971 166.288 391.853 166.945 393.822 166.945C396.316 166.945 398.439 166.069 400.189 164.319C400.887 163.621 401.582 162.807 402.273 161.878C404.338 159.1 407.967 157.751 411.121 159.177V159.177C414.43 160.672 415.924 164.601 414.107 167.745C412.076 171.256 409.866 174.293 407.475 176.856C403.887 180.707 399.161 182.633 393.297 182.633C390.146 182.633 387.367 181.976 384.96 180.664C382.597 179.351 380.453 177.819 378.527 176.069C376.602 174.318 374.742 172.787 372.948 171.474C371.154 170.161 369.272 169.505 367.303 169.505C364.765 169.505 362.599 170.424 360.804 172.262C360.135 172.964 359.47 173.762 358.807 174.657C356.788 177.381 353.228 178.677 350.132 177.296V177.296C346.78 175.8 345.31 171.805 347.187 168.651C348.078 167.156 349.006 165.712 349.974 164.319C352.162 161.168 354.7 158.63 357.588 156.705C360.476 154.779 363.89 153.816 367.828 153.816Z" fill="#DAE2F1"/>
<path fill-rule="evenodd" clip-rule="evenodd" d="M362.66 170.768C362.096 171.113 361.561 171.528 361.054 172.014C360.97 172.094 360.887 172.177 360.804 172.262C360.642 172.432 360.48 172.608 360.318 172.789C359.813 173.357 359.309 173.979 358.807 174.657C358.649 174.87 358.481 175.075 358.305 175.27C356.233 177.568 352.985 178.569 350.131 177.296C346.78 175.8 345.31 171.805 347.187 168.651C347.547 168.046 347.914 167.45 348.287 166.861C348.797 166.056 349.32 165.266 349.854 164.491C349.894 164.434 349.934 164.376 349.974 164.319C350.307 163.839 350.648 163.373 350.998 162.922C351.032 162.878 351.066 162.833 351.101 162.789C351.84 161.845 352.615 160.963 353.427 160.144C354.722 158.837 356.109 157.691 357.588 156.705C360.476 154.779 363.889 153.816 367.828 153.816C371.066 153.816 373.867 154.473 376.23 155.786C378.637 157.098 380.781 158.63 382.663 160.381C384.588 162.131 386.426 163.663 388.177 164.975C389.971 166.288 391.853 166.945 393.822 166.945C395.697 166.945 397.362 166.45 398.817 165.461C399.297 165.134 399.754 164.753 400.189 164.319C400.447 164.061 400.704 163.788 400.961 163.499C401.399 163.004 401.837 162.464 402.273 161.878C402.444 161.647 402.626 161.427 402.818 161.217C404.937 158.895 408.228 157.869 411.12 159.177C414.429 160.672 415.924 164.601 414.106 167.745C413.706 168.437 413.298 169.112 412.884 169.768C412.413 170.512 411.933 171.234 411.444 171.931C410.937 172.654 410.42 173.351 409.893 174.023C409.482 174.549 409.064 175.059 408.64 175.553C408.257 176 407.868 176.435 407.475 176.856C403.887 180.707 399.161 182.633 393.297 182.633C390.146 182.633 387.367 181.976 384.96 180.664C382.597 179.351 380.453 177.819 378.527 176.069C376.602 174.318 374.742 172.787 372.948 171.474C371.154 170.161 369.272 169.505 367.303 169.505C365.585 169.505 364.037 169.926 362.66 170.768ZM393.606 157.736L399.891 164.021ZM393.212 151.031C398.748 145.57 407.783 142.305 416.887 146.419C426.888 150.94 432.647 163.649 426.226 174.753C423.748 179.038 420.93 182.956 417.718 186.401C417.716 186.402 417.715 186.403 417.714 186.405C411.161 193.435 402.553 196.633 393.297 196.633C388.156 196.633 383.009 195.546 378.256 192.954L378.209 192.928L378.161 192.902C374.892 191.086 371.863 188.931 369.11 186.428C368.72 186.073 368.338 185.733 367.964 185.409C362.432 190.925 353.421 194.095 344.425 190.08C334.175 185.505 328.581 172.536 335.158 161.49C336.211 159.721 337.316 158.002 338.474 156.333C341.56 151.89 345.324 148.055 349.822 145.056C355.31 141.397 361.51 139.816 367.828 139.816C372.957 139.816 378.173 140.863 382.977 143.519C386.298 145.334 389.369 147.509 392.132 150.068C392.5 150.402 392.86 150.723 393.212 151.031ZM367.303 179.189L367.552 178.848Z" fill="#44506A"/>
<path d="M367.828 334C371.066 334 373.867 334.656 376.23 335.969C378.637 337.282 380.781 338.814 382.663 340.564C384.588 342.315 386.426 343.846 388.177 345.159C389.971 346.472 391.853 347.128 393.822 347.128C396.316 347.128 398.439 346.253 400.189 344.503C400.887 343.805 401.582 342.991 402.273 342.061C404.338 339.284 407.967 337.935 411.121 339.36V339.36C414.43 340.856 415.924 344.785 414.107 347.928C412.076 351.439 409.866 354.477 407.475 357.04C403.887 360.891 399.161 362.816 393.297 362.816C390.146 362.816 387.367 362.16 384.96 360.847C382.597 359.534 380.453 358.003 378.527 356.252C376.602 354.502 374.742 352.97 372.948 351.657C371.154 350.345 369.272 349.688 367.303 349.688C364.765 349.688 362.599 350.607 360.804 352.445C360.135 353.148 359.47 353.946 358.807 354.84C356.788 357.564 353.228 358.861 350.132 357.479V357.479C346.78 355.983 345.31 351.989 347.187 348.835C348.078 347.34 349.006 345.895 349.974 344.503C352.162 341.352 354.7 338.814 357.588 336.888C360.476 334.963 363.89 334 367.828 334Z" fill="#DAE2F1"/>
<path fill-rule="evenodd" clip-rule="evenodd" d="M362.66 350.951C362.096 351.296 361.561 351.712 361.054 352.197C360.97 352.278 360.887 352.361 360.804 352.445C360.642 352.615 360.48 352.791 360.318 352.973C359.813 353.54 359.309 354.163 358.807 354.84C358.649 355.054 358.481 355.258 358.305 355.454C356.233 357.751 352.985 358.753 350.131 357.479C346.78 355.983 345.31 351.989 347.187 348.835C347.547 348.23 347.914 347.633 348.287 347.045C348.797 346.239 349.32 345.449 349.854 344.675C349.894 344.617 349.934 344.56 349.974 344.503C350.307 344.023 350.648 343.557 350.998 343.106C351.032 343.061 351.066 343.017 351.101 342.973C351.84 342.028 352.615 341.146 353.427 340.328C354.722 339.021 356.109 337.874 357.588 336.888C360.476 334.963 363.889 334 367.828 334C371.066 334 373.867 334.656 376.23 335.969C378.637 337.282 380.781 338.814 382.663 340.564C384.588 342.315 386.426 343.846 388.177 345.159C389.971 346.472 391.853 347.128 393.822 347.128C395.697 347.128 397.362 346.634 398.817 345.644C399.297 345.318 399.754 344.937 400.189 344.503C400.447 344.245 400.704 343.971 400.961 343.682C401.399 343.188 401.837 342.648 402.273 342.061C402.444 341.831 402.626 341.61 402.818 341.4C404.937 339.079 408.228 338.053 411.12 339.36C414.429 340.856 415.924 344.785 414.106 347.928C413.706 348.621 413.298 349.295 412.884 349.951C412.413 350.696 411.933 351.417 411.444 352.114C410.937 352.838 410.42 353.535 409.893 354.207C409.482 354.732 409.064 355.242 408.64 355.736C408.257 356.184 407.868 356.618 407.475 357.04C403.887 360.891 399.161 362.816 393.297 362.816C390.146 362.816 387.367 362.16 384.96 360.847C382.597 359.534 380.453 358.003 378.527 356.252C376.602 354.502 374.742 352.97 372.948 351.657C371.154 350.345 369.272 349.688 367.303 349.688C365.585 349.688 364.037 350.109 362.66 350.951ZM393.606 337.92L399.891 344.205ZM393.212 331.214C398.748 325.754 407.783 322.488 416.887 326.603C426.888 331.123 432.647 343.833 426.226 354.936C423.748 359.221 420.93 363.139 417.718 366.584C417.716 366.586 417.715 366.587 417.714 366.588C411.161 373.618 402.553 376.816 393.297 376.816C388.156 376.816 383.009 375.73 378.256 373.138L378.209 373.112L378.161 373.085C374.892 371.269 371.863 369.115 369.11 366.611C368.72 366.257 368.338 365.917 367.964 365.592C362.432 371.108 353.421 374.278 344.425 370.264C334.175 365.688 328.581 352.72 335.158 341.673C336.211 339.905 337.316 338.185 338.474 336.517C341.56 332.073 345.324 328.238 349.822 325.239C355.31 321.581 361.51 320 367.828 320C372.957 320 378.173 321.047 382.977 323.702C386.298 325.518 389.369 327.693 392.132 330.252C392.5 330.586 392.86 330.906 393.212 331.214ZM367.303 359.372L367.552 359.032Z" fill="#44506A"/>
<path d="M367.828 404.816C371.066 404.816 373.867 405.473 376.23 406.786C378.637 408.098 380.781 409.63 382.663 411.381C384.588 413.131 386.426 414.663 388.177 415.975C389.971 417.288 391.853 417.945 393.822 417.945C396.316 417.945 398.439 417.069 400.189 415.319C400.887 414.621 401.582 413.807 402.273 412.878C404.338 410.1 407.967 408.751 411.121 410.177V410.177C414.43 411.672 415.924 415.601 414.107 418.745C412.076 422.256 409.866 425.293 407.475 427.856C403.887 431.707 399.161 433.633 393.297 433.633C390.146 433.633 387.367 432.976 384.96 431.664C382.597 430.351 380.453 428.819 378.527 427.069C376.602 425.318 374.742 423.787 372.948 422.474C371.154 421.161 369.272 420.505 367.303 420.505C364.765 420.505 362.599 421.424 360.804 423.262C360.135 423.964 359.47 424.762 358.807 425.657C356.788 428.381 353.228 429.677 350.132 428.296V428.296C346.78 426.8 345.31 422.805 347.187 419.651C348.078 418.156 349.006 416.712 349.974 415.319C352.162 412.168 354.7 409.63 357.588 407.705C360.476 405.779 363.89 404.816 367.828 404.816Z" fill="#DAE2F1"/>
<path fill-rule="evenodd" clip-rule="evenodd" d="M362.66 421.768C362.096 422.113 361.561 422.528 361.054 423.014C360.97 423.094 360.887 423.177 360.804 423.262C360.642 423.432 360.48 423.608 360.318 423.789C359.813 424.357 359.309 424.979 358.807 425.657C358.649 425.87 358.481 426.075 358.305 426.27C356.233 428.568 352.985 429.569 350.131 428.296C346.78 426.8 345.31 422.805 347.187 419.651C347.547 419.046 347.914 418.45 348.287 417.861C348.797 417.056 349.32 416.266 349.854 415.491C349.894 415.434 349.934 415.376 349.974 415.319C350.307 414.839 350.648 414.373 350.998 413.922C351.032 413.878 351.066 413.833 351.101 413.789C351.84 412.845 352.615 411.963 353.427 411.144C354.722 409.837 356.109 408.691 357.588 407.705C360.476 405.779 363.889 404.816 367.828 404.816C371.066 404.816 373.867 405.473 376.23 406.786C378.637 408.098 380.781 409.63 382.663 411.381C384.588 413.131 386.426 414.663 388.177 415.975C389.971 417.288 391.853 417.945 393.822 417.945C395.697 417.945 397.362 417.45 398.817 416.461C399.297 416.134 399.754 415.753 400.189 415.319C400.447 415.061 400.704 414.788 400.961 414.499C401.399 414.004 401.837 413.464 402.273 412.878C402.444 412.647 402.626 412.427 402.818 412.217C404.937 409.895 408.228 408.869 411.12 410.177C414.429 411.672 415.924 415.601 414.106 418.745C413.706 419.437 413.298 420.112 412.884 420.768C412.413 421.512 411.933 422.234 411.444 422.931C410.937 423.654 410.42 424.351 409.893 425.023C409.482 425.549 409.064 426.059 408.64 426.553C408.257 427 407.868 427.435 407.475 427.856C403.887 431.707 399.161 433.633 393.297 433.633C390.146 433.633 387.367 432.976 384.96 431.664C382.597 430.351 380.453 428.819 378.527 427.069C376.602 425.318 374.742 423.787 372.948 422.474C371.154 421.161 369.272 420.505 367.303 420.505C365.585 420.505 364.037 420.926 362.66 421.768ZM393.606 408.736L399.891 415.021ZM393.212 402.031C398.748 396.57 407.783 393.305 416.887 397.419C426.888 401.94 432.647 414.649 426.226 425.753C423.748 430.038 420.93 433.956 417.718 437.401C417.716 437.402 417.715 437.403 417.714 437.405C411.161 444.435 402.553 447.633 393.297 447.633C388.156 447.633 383.009 446.546 378.256 443.954L378.209 443.928L378.161 443.902C374.892 442.086 371.863 439.931 369.11 437.428C368.72 437.073 368.338 436.733 367.964 436.409C362.432 441.925 353.421 445.095 344.425 441.08C334.175 436.505 328.581 423.536 335.158 412.49C336.211 410.721 337.316 409.002 338.474 407.333C341.56 402.89 345.324 399.055 349.822 396.056C355.31 392.397 361.51 390.816 367.828 390.816C372.957 390.816 378.173 391.863 382.977 394.519C386.298 396.334 389.369 398.509 392.132 401.068C392.5 401.402 392.86 401.723 393.212 402.031ZM367.303 430.189L367.552 429.848Z" fill="#44506A"/>
<path d="M367.828 586C371.066 586 373.867 586.656 376.23 587.969C378.637 589.282 380.781 590.814 382.663 592.564C384.588 594.315 386.426 595.846 388.177 597.159C389.971 598.472 391.853 599.128 393.822 599.128C396.316 599.128 398.439 598.253 400.189 596.503C400.887 595.805 401.582 594.991 402.273 594.061C404.338 591.284 407.967 589.935 411.121 591.36V591.36C414.43 592.856 415.924 596.785 414.107 599.928C412.076 603.439 409.866 606.477 407.475 609.04C403.887 612.891 399.161 614.816 393.297 614.816C390.146 614.816 387.367 614.16 384.96 612.847C382.597 611.534 380.453 610.003 378.527 608.252C376.602 606.502 374.742 604.97 372.948 603.657C371.154 602.345 369.272 601.688 367.303 601.688C364.765 601.688 362.599 602.607 360.804 604.445C360.135 605.148 359.47 605.946 358.807 606.84C356.788 609.564 353.228 610.861 350.132 609.479V609.479C346.78 607.983 345.31 603.989 347.187 600.835C348.078 599.34 349.006 597.895 349.974 596.503C352.162 593.352 354.7 590.814 357.588 588.888C360.476 586.963 363.89 586 367.828 586Z" fill="#DAE2F1"/>
<path fill-rule="evenodd" clip-rule="evenodd" d="M362.66 602.951C362.096 603.296 361.561 603.712 361.054 604.197C360.97 604.278 360.887 604.361 360.804 604.445C360.642 604.615 360.48 604.791 360.318 604.973C359.813 605.54 359.309 606.163 358.807 606.84C358.649 607.054 358.481 607.258 358.305 607.454C356.233 609.751 352.985 610.753 350.131 609.479C346.78 607.983 345.31 603.989 347.187 600.835C347.547 600.23 347.914 599.633 348.287 599.045C348.797 598.239 349.32 597.449 349.854 596.675C349.894 596.617 349.934 596.56 349.974 596.503C350.307 596.023 350.648 595.557 350.998 595.106C351.032 595.061 351.066 595.017 351.101 594.973C351.84 594.028 352.615 593.146 353.427 592.328C354.722 591.021 356.109 589.874 357.588 588.888C360.476 586.963 363.889 586 367.828 586C371.066 586 373.867 586.656 376.23 587.969C378.637 589.282 380.781 590.814 382.663 592.564C384.588 594.315 386.426 595.846 388.177 597.159C389.971 598.472 391.853 599.128 393.822 599.128C395.697 599.128 397.362 598.634 398.817 597.644C399.297 597.318 399.754 596.937 400.189 596.503C400.447 596.245 400.704 595.971 400.961 595.682C401.399 595.188 401.837 594.648 402.273 594.061C402.444 593.831 402.626 593.61 402.818 593.4C404.937 591.079 408.228 590.053 411.12 591.36C414.429 592.856 415.924 596.785 414.106 599.928C413.706 600.621 413.298 601.295 412.884 601.951C412.413 602.696 411.933 603.417 411.444 604.114C410.937 604.838 410.42 605.535 409.893 606.207C409.482 606.732 409.064 607.242 408.64 607.736C408.257 608.184 407.868 608.618 407.475 609.04C403.887 612.891 399.161 614.816 393.297 614.816C390.146 614.816 387.367 614.16 384.96 612.847C382.597 611.534 380.453 610.003 378.527 608.252C376.602 606.502 374.742 604.97 372.948 603.657C371.154 602.345 369.272 601.688 367.303 601.688C365.585 601.688 364.037 602.109 362.66 602.951ZM393.606 589.92L399.891 596.205ZM393.212 583.214C398.748 577.754 407.783 574.488 416.887 578.603C426.888 583.123 432.647 595.833 426.226 606.936C423.748 611.221 420.93 615.139 417.718 618.584C417.716 618.586 417.715 618.587 417.714 618.588C411.161 625.618 402.553 628.816 393.297 628.816C388.156 628.816 383.009 627.73 378.256 625.138L378.209 625.112L378.161 625.085C374.892 623.269 371.863 621.115 369.11 618.611C368.72 618.257 368.338 617.917 367.964 617.592C362.432 623.108 353.421 626.278 344.425 622.264C334.175 617.688 328.581 604.72 335.158 593.673C336.211 591.905 337.316 590.185 338.474 588.517C341.56 584.073 345.324 580.238 349.822 577.239C355.31 573.581 361.51 572 367.828 572C372.957 572 378.173 573.047 382.977 575.702C386.298 577.518 389.369 579.693 392.132 582.252C392.5 582.586 392.86 582.906 393.212 583.214ZM367.303 611.372L367.552 611.032Z" fill="#44506A"/>
<path d="M367.828 656.816C371.066 656.816 373.867 657.473 376.23 658.786C378.637 660.098 380.781 661.63 382.663 663.381C384.588 665.131 386.426 666.663 388.177 667.975C389.971 669.288 391.853 669.945 393.822 669.945C396.316 669.945 398.439 669.069 400.189 667.319C400.887 666.621 401.582 665.807 402.273 664.878C404.338 662.1 407.967 660.751 411.121 662.177V662.177C414.43 663.672 415.924 667.601 414.107 670.745C412.076 674.256 409.866 677.293 407.475 679.856C403.887 683.707 399.161 685.633 393.297 685.633C390.146 685.633 387.367 684.976 384.96 683.664C382.597 682.351 380.453 680.819 378.527 679.069C376.602 677.318 374.742 675.787 372.948 674.474C371.154 673.161 369.272 672.505 367.303 672.505C364.765 672.505 362.599 673.424 360.804 675.262C360.135 675.964 359.47 676.762 358.807 677.657C356.788 680.381 353.228 681.677 350.132 680.296V680.296C346.78 678.8 345.31 674.805 347.187 671.651C348.078 670.156 349.006 668.712 349.974 667.319C352.162 664.168 354.7 661.63 357.588 659.705C360.476 657.779 363.89 656.816 367.828 656.816Z" fill="#DAE2F1"/>
<path fill-rule="evenodd" clip-rule="evenodd" d="M362.66 673.768C362.096 674.113 361.561 674.528 361.054 675.014C360.97 675.094 360.887 675.177 360.804 675.262C360.642 675.432 360.48 675.608 360.318 675.789C359.813 676.357 359.309 676.979 358.807 677.657C358.649 677.87 358.481 678.075 358.305 678.27C356.233 680.568 352.985 681.569 350.131 680.296C346.78 678.8 345.31 674.805 347.187 671.651C347.547 671.046 347.914 670.45 348.287 669.861C348.797 669.056 349.32 668.266 349.854 667.491C349.894 667.434 349.934 667.376 349.974 667.319C350.307 666.839 350.648 666.373 350.998 665.922C351.032 665.878 351.066 665.833 351.101 665.789C351.84 664.845 352.615 663.963 353.427 663.144C354.722 661.837 356.109 660.691 357.588 659.705C360.476 657.779 363.889 656.816 367.828 656.816C371.066 656.816 373.867 657.473 376.23 658.786C378.637 660.098 380.781 661.63 382.663 663.381C384.588 665.131 386.426 666.663 388.177 667.975C389.971 669.288 391.853 669.945 393.822 669.945C395.697 669.945 397.362 669.45 398.817 668.461C399.297 668.134 399.754 667.753 400.189 667.319C400.447 667.061 400.704 666.788 400.961 666.499C401.399 666.004 401.837 665.464 402.273 664.878C402.444 664.647 402.626 664.427 402.818 664.217C404.937 661.895 408.228 660.869 411.12 662.177C414.429 663.672 415.924 667.601 414.106 670.745C413.706 671.437 413.298 672.112 412.884 672.768C412.413 673.512 411.933 674.234 411.444 674.931C410.937 675.654 410.42 676.351 409.893 677.023C409.482 677.549 409.064 678.059 408.64 678.553C408.257 679 407.868 679.435 407.475 679.856C403.887 683.707 399.161 685.633 393.297 685.633C390.146 685.633 387.367 684.976 384.96 683.664C382.597 682.351 380.453 680.819 378.527 679.069C376.602 677.318 374.742 675.787 372.948 674.474C371.154 673.161 369.272 672.505 367.303 672.505C365.585 672.505 364.037 672.926 362.66 673.768ZM393.606 660.736L399.891 667.021ZM393.212 654.031C398.748 648.57 407.783 645.305 416.887 649.419C426.888 653.94 432.647 666.649 426.226 677.753C423.748 682.038 420.93 685.956 417.718 689.401C417.716 689.402 417.715 689.403 417.714 689.405C411.161 696.435 402.553 699.633 393.297 699.633C388.156 699.633 383.009 698.546 378.256 695.954L378.209 695.928L378.161 695.902C374.892 694.086 371.863 691.931 369.11 689.428C368.72 689.073 368.338 688.733 367.964 688.409C362.432 693.925 353.421 697.095 344.425 693.08C334.175 688.505 328.581 675.536 335.158 664.49C336.211 662.721 337.316 661.002 338.474 659.333C341.56 654.89 345.324 651.055 349.822 648.056C355.31 644.397 361.51 642.816 367.828 642.816C372.957 642.816 378.173 643.863 382.977 646.519C386.298 648.334 389.369 650.509 392.132 653.068C392.5 653.402 392.86 653.723 393.212 654.031ZM367.303 682.189L367.552 681.848Z" fill="#44506A"/>
</svg>
