<svg width="762" height="772" viewBox="0 0 762 772" fill="none" xmlns="http://www.w3.org/2000/svg">
<path d="M156.534 80.9127L201.761 126.14C208.311 132.69 208.311 143.31 201.761 149.86L156.534 195.087C149.984 201.638 139.364 201.638 132.813 195.087L87.5866 149.86C81.0362 143.31 81.0362 132.69 87.5866 126.14L132.813 80.9127C139.364 74.3624 149.984 74.3624 156.534 80.9127Z" fill="#E3C8D5" stroke="#DD66A1" stroke-width="24"/>
<path d="M161.265 333.579L210.735 419.263C218.109 432.035 208.892 448 194.144 448H95.2044C80.4566 448 71.2393 432.035 78.6132 419.263L128.083 333.579C135.457 320.807 153.892 320.807 161.265 333.579Z" fill="#E3C8D5" stroke="#DD66A1" stroke-width="24"/>
<path d="M628.535 80.9127L673.762 126.14C680.312 132.69 680.312 143.31 673.762 149.86L628.535 195.087C621.984 201.638 611.364 201.638 604.814 195.087L559.587 149.86C553.037 143.31 553.037 132.69 559.587 126.14L604.814 80.9127C611.364 74.3624 621.984 74.3624 628.535 80.9127Z" fill="#D6E4FF" stroke="#5E7CEE" stroke-width="24"/>
<path d="M633.265 333.579L682.735 419.263C690.109 432.035 680.892 448 666.144 448H567.204C552.457 448 543.239 432.035 550.613 419.263L600.083 333.579C607.457 320.807 625.892 320.807 633.265 333.579Z" fill="#D6E4FF" stroke="#5E7CEE" stroke-width="24"/>
<circle cx="617" cy="634" r="62" fill="#D6E4FF" stroke="#5E7CEE" stroke-width="24"/>
<circle cx="145" cy="634" r="62" fill="#E3C8D5" stroke="#DD66A1" stroke-width="24"/>
<path d="M414.106 96.9282L420.166 100.432C417.911 104.331 415.396 107.81 412.594 110.814C407.524 116.255 400.856 118.816 393.296 118.816C389.151 118.816 385.188 117.945 381.608 115.992L381.584 115.979L381.561 115.966C378.745 114.402 376.158 112.559 373.818 110.432C372.046 108.821 370.378 107.451 368.814 106.307C368.058 105.753 367.597 105.688 367.303 105.688C366.687 105.688 366.321 105.823 365.839 106.308C365.405 106.768 364.934 107.329 364.431 108.008M414.106 96.9282L364.431 108.008M414.106 96.9282L420.166 100.432C424.285 93.3088 420.658 84.9895 414.003 81.9815L411.138 88.3215L414.003 81.9815C407.216 78.9139 400.236 82.0685 396.655 86.8842C396.133 87.5861 395.659 88.133 395.239 88.5528L400.029 93.3429M414.106 96.9282L400.029 93.3429M364.431 108.008C360.859 112.828 353.948 115.848 347.278 112.871C340.477 109.836 336.945 101.354 341.172 94.2542M364.431 108.008L341.172 94.2542M344.224 89.5098C343.161 91.0403 342.144 92.6221 341.172 94.2542M344.224 89.5098L341.172 94.2542M344.224 89.5098C346.861 85.7126 350.012 82.5259 353.705 80.0638M344.224 89.5098L353.705 80.0638M400.029 93.3429L395.239 88.5528C394.813 88.9793 394.475 89.1282 393.822 89.1282C393.531 89.1282 393.078 89.0647 392.338 88.5302C390.812 87.3831 389.166 86.0144 387.399 84.4095C385.076 82.254 382.468 80.4006 379.604 78.8364C376.02 76.8513 372.011 76 367.828 76C362.699 76 357.893 77.2718 353.705 80.0638L357.588 85.8882M400.029 93.3429L357.588 85.8882M357.588 85.8882L353.705 80.0638M357.588 85.8882L353.705 80.0638" fill="#DAE2F1" stroke="#44506A" stroke-width="14"/>
<path d="M414.106 167.745L420.166 171.249C417.911 175.148 415.396 178.626 412.594 181.631C407.524 187.071 400.856 189.633 393.296 189.633C389.151 189.633 385.188 188.761 381.608 186.809L381.584 186.796L381.561 186.783C378.745 185.218 376.158 183.375 373.818 181.248C372.046 179.637 370.378 178.267 368.814 177.123C368.058 176.57 367.597 176.505 367.303 176.505C366.687 176.505 366.321 176.64 365.839 177.125C365.405 177.584 364.934 178.146 364.431 178.824M414.106 167.745L364.431 178.824M414.106 167.745L420.166 171.249C424.285 164.125 420.658 155.806 414.003 152.798L411.138 159.138L414.003 152.798C407.216 149.73 400.236 152.885 396.655 157.701C396.133 158.402 395.659 158.949 395.239 159.369L400.029 164.159M414.106 167.745L400.029 164.159M364.431 178.824C360.859 183.644 353.948 186.665 347.278 183.688C340.477 180.652 336.945 172.171 341.172 165.071M364.431 178.824L341.172 165.071M344.224 160.326C343.161 161.857 342.144 163.438 341.172 165.071M344.224 160.326L341.172 165.071M344.224 160.326C346.861 156.529 350.012 153.342 353.705 150.88M344.224 160.326L353.705 150.88M400.029 164.159L395.239 159.369C394.813 159.796 394.475 159.945 393.822 159.945C393.531 159.945 393.078 159.881 392.338 159.347C390.812 158.2 389.166 156.831 387.399 155.226C385.076 153.07 382.468 151.217 379.604 149.653C376.02 147.668 372.011 146.816 367.828 146.816C362.699 146.816 357.893 148.088 353.705 150.88L357.588 156.705M400.029 164.159L357.588 156.705M357.588 156.705L353.705 150.88M357.588 156.705L353.705 150.88" fill="#DAE2F1" stroke="#44506A" stroke-width="14"/>
<path d="M414.106 347.928L420.166 351.432C417.911 355.331 415.396 358.81 412.594 361.814C407.524 367.255 400.856 369.816 393.296 369.816C389.151 369.816 385.188 368.945 381.608 366.992L381.584 366.979L381.561 366.966C378.745 365.402 376.158 363.559 373.818 361.432C372.046 359.821 370.378 358.451 368.814 357.307C368.058 356.753 367.597 356.688 367.303 356.688C366.687 356.688 366.321 356.823 365.839 357.308C365.405 357.768 364.934 358.329 364.431 359.008M414.106 347.928L364.431 359.008M414.106 347.928L420.166 351.432C424.285 344.309 420.658 335.989 414.003 332.982L411.138 339.322L414.003 332.982C407.216 329.914 400.236 333.068 396.655 337.884C396.133 338.586 395.659 339.133 395.239 339.553L400.029 344.343M414.106 347.928L400.029 344.343M364.431 359.008C360.859 363.828 353.948 366.848 347.278 363.871C340.477 360.836 336.945 352.354 341.172 345.254M364.431 359.008L341.172 345.254M344.224 340.51C343.161 342.04 342.144 343.622 341.172 345.254M344.224 340.51L341.172 345.254M344.224 340.51C346.861 336.713 350.012 333.526 353.705 331.064M344.224 340.51L353.705 331.064M400.029 344.343L395.239 339.553C394.813 339.979 394.475 340.128 393.822 340.128C393.531 340.128 393.078 340.065 392.338 339.53C390.812 338.383 389.166 337.014 387.399 335.41C385.076 333.254 382.468 331.401 379.604 329.836C376.02 327.851 372.011 327 367.828 327C362.699 327 357.893 328.272 353.705 331.064L357.588 336.888M400.029 344.343L357.588 336.888M357.588 336.888L353.705 331.064M357.588 336.888L353.705 331.064" fill="#DAE2F1" stroke="#44506A" stroke-width="14"/>
<path d="M414.106 418.745L420.166 422.249C417.911 426.148 415.396 429.626 412.594 432.631C407.524 438.071 400.856 440.633 393.296 440.633C389.151 440.633 385.188 439.761 381.608 437.809L381.584 437.796L381.561 437.783C378.745 436.218 376.158 434.375 373.818 432.248C372.046 430.637 370.378 429.267 368.814 428.123C368.058 427.57 367.597 427.505 367.303 427.505C366.687 427.505 366.321 427.64 365.839 428.125C365.405 428.584 364.934 429.146 364.431 429.824M414.106 418.745L364.431 429.824M414.106 418.745L420.166 422.249C424.285 415.125 420.658 406.806 414.003 403.798L411.138 410.138L414.003 403.798C407.216 400.73 400.236 403.885 396.655 408.701C396.133 409.402 395.659 409.949 395.239 410.369L400.029 415.159M414.106 418.745L400.029 415.159M364.431 429.824C360.859 434.644 353.948 437.665 347.278 434.688C340.477 431.652 336.945 423.171 341.172 416.071M364.431 429.824L341.172 416.071M344.224 411.326C343.161 412.857 342.144 414.438 341.172 416.071M344.224 411.326L341.172 416.071M344.224 411.326C346.861 407.529 350.012 404.342 353.705 401.88M344.224 411.326L353.705 401.88M400.029 415.159L395.239 410.369C394.813 410.796 394.475 410.945 393.822 410.945C393.531 410.945 393.078 410.881 392.338 410.347C390.812 409.2 389.166 407.831 387.399 406.226C385.076 404.07 382.468 402.217 379.604 400.653C376.02 398.668 372.011 397.816 367.828 397.816C362.699 397.816 357.893 399.088 353.705 401.88L357.588 407.705M400.029 415.159L357.588 407.705M357.588 407.705L353.705 401.88M357.588 407.705L353.705 401.88" fill="#DAE2F1" stroke="#44506A" stroke-width="14"/>
<path d="M414.106 599.928L420.166 603.432C417.911 607.331 415.396 610.81 412.594 613.814C407.524 619.255 400.856 621.816 393.296 621.816C389.151 621.816 385.188 620.945 381.608 618.992L381.584 618.979L381.561 618.966C378.745 617.402 376.158 615.559 373.818 613.432C372.046 611.821 370.378 610.451 368.814 609.307C368.058 608.753 367.597 608.688 367.303 608.688C366.687 608.688 366.321 608.823 365.839 609.308C365.405 609.768 364.934 610.329 364.431 611.008M414.106 599.928L364.431 611.008M414.106 599.928L420.166 603.432C424.285 596.309 420.658 587.989 414.003 584.982L411.138 591.322L414.003 584.982C407.216 581.914 400.236 585.068 396.655 589.884C396.133 590.586 395.659 591.133 395.239 591.553L400.029 596.343M414.106 599.928L400.029 596.343M364.431 611.008C360.859 615.828 353.948 618.848 347.278 615.871C340.477 612.836 336.945 604.354 341.172 597.254M364.431 611.008L341.172 597.254M344.224 592.51C343.161 594.04 342.144 595.622 341.172 597.254M344.224 592.51L341.172 597.254M344.224 592.51C346.861 588.713 350.012 585.526 353.705 583.064M344.224 592.51L353.705 583.064M400.029 596.343L395.239 591.553C394.813 591.979 394.475 592.128 393.822 592.128C393.531 592.128 393.078 592.065 392.338 591.53C390.812 590.383 389.166 589.014 387.399 587.41C385.076 585.254 382.468 583.401 379.604 581.836C376.02 579.851 372.011 579 367.828 579C362.699 579 357.893 580.272 353.705 583.064L357.588 588.888M400.029 596.343L357.588 588.888M357.588 588.888L353.705 583.064M357.588 588.888L353.705 583.064" fill="#DAE2F1" stroke="#44506A" stroke-width="14"/>
<path d="M414.106 670.745L420.166 674.249C417.911 678.148 415.396 681.626 412.594 684.631C407.524 690.071 400.856 692.633 393.296 692.633C389.151 692.633 385.188 691.761 381.608 689.809L381.584 689.796L381.561 689.783C378.745 688.218 376.158 686.375 373.818 684.248C372.046 682.637 370.378 681.267 368.814 680.123C368.058 679.57 367.597 679.505 367.303 679.505C366.687 679.505 366.321 679.64 365.839 680.125C365.405 680.584 364.934 681.146 364.431 681.824M414.106 670.745L364.431 681.824M414.106 670.745L420.166 674.249C424.285 667.125 420.658 658.806 414.003 655.798L411.138 662.138L414.003 655.798C407.216 652.73 400.236 655.885 396.655 660.701C396.133 661.402 395.659 661.949 395.239 662.369L400.029 667.159M414.106 670.745L400.029 667.159M364.431 681.824C360.859 686.644 353.948 689.665 347.278 686.688C340.477 683.652 336.945 675.171 341.172 668.071M364.431 681.824L341.172 668.071M344.224 663.326C343.161 664.857 342.144 666.438 341.172 668.071M344.224 663.326L341.172 668.071M344.224 663.326C346.861 659.529 350.012 656.342 353.705 653.88M344.224 663.326L353.705 653.88M400.029 667.159L395.239 662.369C394.813 662.796 394.475 662.945 393.822 662.945C393.531 662.945 393.078 662.881 392.338 662.347C390.812 661.2 389.166 659.831 387.399 658.226C385.076 656.07 382.468 654.217 379.604 652.653C376.02 650.668 372.011 649.816 367.828 649.816C362.699 649.816 357.893 651.088 353.705 653.88L357.588 659.705M400.029 667.159L357.588 659.705M357.588 659.705L353.705 653.88M357.588 659.705L353.705 653.88" fill="#DAE2F1" stroke="#44506A" stroke-width="14"/>
</svg>
