<svg width="762" height="772" viewBox="0 0 762 772" fill="none" xmlns="http://www.w3.org/2000/svg">
<path d="M156.534 80.9127L201.761 126.14C208.311 132.69 208.311 143.31 201.761 149.86L156.534 195.087C149.984 201.638 139.364 201.638 132.813 195.087L87.5866 149.86C81.0362 143.31 81.0362 132.69 87.5866 126.14L132.813 80.9127C139.364 74.3624 149.984 74.3624 156.534 80.9127Z" fill="#E3C8D5" stroke="#DD66A1" stroke-width="24"/>
<path d="M161.265 333.579L210.735 419.263C218.109 432.035 208.892 448 194.144 448H95.2044C80.4566 448 71.2393 432.035 78.6132 419.263L128.083 333.579C135.457 320.807 153.892 320.807 161.265 333.579Z" fill="#E3C8D5" stroke="#DD66A1" stroke-width="24"/>
<path d="M628.535 80.9127L673.762 126.14C680.312 132.69 680.312 143.31 673.762 149.86L628.535 195.087C621.984 201.638 611.364 201.638 604.814 195.087L559.587 149.86C553.037 143.31 553.037 132.69 559.587 126.14L604.814 80.9127C611.364 74.3624 621.984 74.3624 628.535 80.9127Z" fill="#E3C8D5" stroke="#DD66A1" stroke-width="24"/>
<path d="M633.265 333.579L682.735 419.263C690.109 432.035 680.892 448 666.144 448H567.204C552.457 448 543.239 432.035 550.613 419.263L600.083 333.579C607.457 320.807 625.892 320.807 633.265 333.579Z" fill="#E3C8D5" stroke="#DD66A1" stroke-width="24"/>
<circle cx="617" cy="634" r="62" fill="#E3C8D5" stroke="#DD66A1" stroke-width="24"/>
<circle cx="145" cy="634" r="62" fill="#E3C8D5" stroke="#DD66A1" stroke-width="24"/>
<path d="M415.106 349.928L421.166 353.432C418.911 357.331 416.396 360.81 413.594 363.814C408.524 369.255 401.856 371.816 394.296 371.816C390.151 371.816 386.188 370.945 382.608 368.992L382.584 368.979L382.561 368.966C379.745 367.402 377.158 365.559 374.818 363.432C373.046 361.821 371.378 360.451 369.814 359.307C369.058 358.753 368.597 358.688 368.303 358.688C367.687 358.688 367.321 358.823 366.839 359.308C366.405 359.768 365.934 360.329 365.431 361.008M415.106 349.928L365.431 361.008M415.106 349.928L421.166 353.432C425.285 346.309 421.658 337.989 415.003 334.982L412.138 341.322L415.003 334.982C408.216 331.914 401.236 335.068 397.655 339.884C397.133 340.586 396.659 341.133 396.239 341.553L401.029 346.343M415.106 349.928L401.029 346.343M365.431 361.008C361.859 365.828 354.948 368.848 348.278 365.871C341.477 362.836 337.945 354.354 342.172 347.254M365.431 361.008L342.172 347.254M345.224 342.51C344.161 344.04 343.144 345.622 342.172 347.254M345.224 342.51L342.172 347.254M345.224 342.51C347.861 338.713 351.012 335.526 354.705 333.064M345.224 342.51L354.705 333.064M401.029 346.343L396.239 341.553C395.813 341.979 395.475 342.128 394.822 342.128C394.531 342.128 394.078 342.065 393.338 341.53C391.812 340.383 390.166 339.014 388.399 337.41C386.076 335.254 383.468 333.401 380.604 331.836C377.02 329.851 373.011 329 368.828 329C363.699 329 358.893 330.272 354.705 333.064L358.588 338.888M401.029 346.343L358.588 338.888M358.588 338.888L354.705 333.064M358.588 338.888L354.705 333.064" fill="#DAE2F1" stroke="#44506A" stroke-width="14"/>
<path d="M415.106 420.745L421.166 424.249C418.911 428.148 416.396 431.626 413.594 434.631C408.524 440.071 401.856 442.633 394.296 442.633C390.151 442.633 386.188 441.761 382.608 439.809L382.584 439.796L382.561 439.783C379.745 438.218 377.158 436.375 374.818 434.248C373.046 432.637 371.378 431.267 369.814 430.123C369.058 429.57 368.597 429.505 368.303 429.505C367.687 429.505 367.321 429.64 366.839 430.125C366.405 430.584 365.934 431.146 365.431 431.824M415.106 420.745L365.431 431.824M415.106 420.745L421.166 424.249C425.285 417.125 421.658 408.806 415.003 405.798L412.138 412.138L415.003 405.798C408.216 402.73 401.236 405.885 397.655 410.701C397.133 411.402 396.659 411.949 396.239 412.369L401.029 417.159M415.106 420.745L401.029 417.159M365.431 431.824C361.859 436.644 354.948 439.665 348.278 436.688C341.477 433.652 337.945 425.171 342.172 418.071M365.431 431.824L342.172 418.071M345.224 413.326C344.161 414.857 343.144 416.438 342.172 418.071M345.224 413.326L342.172 418.071M345.224 413.326C347.861 409.529 351.012 406.342 354.705 403.88M345.224 413.326L354.705 403.88M401.029 417.159L396.239 412.369C395.813 412.796 395.475 412.945 394.822 412.945C394.531 412.945 394.078 412.881 393.338 412.347C391.812 411.2 390.166 409.831 388.399 408.226C386.076 406.07 383.468 404.217 380.604 402.653C377.02 400.668 373.011 399.816 368.828 399.816C363.699 399.816 358.893 401.088 354.705 403.88L358.588 409.705M401.029 417.159L358.588 409.705M358.588 409.705L354.705 403.88M358.588 409.705L354.705 403.88" fill="#DAE2F1" stroke="#44506A" stroke-width="14"/>
<path d="M415.106 89.9282L421.166 93.4323C418.911 97.3312 416.396 100.81 413.594 103.814C408.524 109.255 401.856 111.816 394.296 111.816C390.151 111.816 386.188 110.945 382.608 108.992L382.584 108.979L382.561 108.966C379.745 107.402 377.158 105.559 374.818 103.432C373.046 101.821 371.378 100.451 369.814 99.3066C369.058 98.7533 368.597 98.6882 368.303 98.6882C367.687 98.6882 367.321 98.8232 366.839 99.3082C366.405 99.7681 365.934 100.329 365.431 101.008M415.106 89.9282L365.431 101.008M415.106 89.9282L421.166 93.4323C425.285 86.3088 421.658 77.9895 415.003 74.9815L412.138 81.3215L415.003 74.9815C408.216 71.9139 401.236 75.0685 397.655 79.8842C397.133 80.5861 396.659 81.133 396.239 81.5528L401.029 86.3429M415.106 89.9282L401.029 86.3429M365.431 101.008C361.859 105.828 354.948 108.848 348.278 105.871C341.477 102.836 337.945 94.3543 342.172 87.2542M365.431 101.008L342.172 87.2542M345.224 82.5098C344.161 84.0403 343.144 85.6221 342.172 87.2542M345.224 82.5098L342.172 87.2542M345.224 82.5098C347.861 78.7126 351.012 75.5259 354.705 73.0638M345.224 82.5098L354.705 73.0638M401.029 86.3429L396.239 81.5528C395.813 81.9793 395.475 82.1282 394.822 82.1282C394.531 82.1282 394.078 82.0647 393.338 81.5302C391.812 80.3831 390.166 79.0144 388.399 77.4095C386.076 75.254 383.468 73.4006 380.604 71.8364C377.02 69.8513 373.011 69 368.828 69C363.699 69 358.893 70.2718 354.705 73.0638L358.588 78.8882M401.029 86.3429L358.588 78.8882M358.588 78.8882L354.705 73.0638M358.588 78.8882L354.705 73.0638" fill="#DAE2F1" stroke="#44506A" stroke-width="14"/>
<path d="M415.106 160.745L421.166 164.249C418.911 168.148 416.396 171.626 413.594 174.631C408.524 180.071 401.856 182.633 394.296 182.633C390.151 182.633 386.188 181.761 382.608 179.809L382.584 179.796L382.561 179.783C379.745 178.218 377.158 176.375 374.818 174.248C373.046 172.637 371.378 171.267 369.814 170.123C369.058 169.57 368.597 169.505 368.303 169.505C367.687 169.505 367.321 169.64 366.839 170.125C366.405 170.584 365.934 171.146 365.431 171.824M415.106 160.745L365.431 171.824M415.106 160.745L421.166 164.249C425.285 157.125 421.658 148.806 415.003 145.798L412.138 152.138L415.003 145.798C408.216 142.73 401.236 145.885 397.655 150.701C397.133 151.402 396.659 151.949 396.239 152.369L401.029 157.159M415.106 160.745L401.029 157.159M365.431 171.824C361.859 176.644 354.948 179.665 348.278 176.688C341.477 173.652 337.945 165.171 342.172 158.071M365.431 171.824L342.172 158.071M345.224 153.326C344.161 154.857 343.144 156.438 342.172 158.071M345.224 153.326L342.172 158.071M345.224 153.326C347.861 149.529 351.012 146.342 354.705 143.88M345.224 153.326L354.705 143.88M401.029 157.159L396.239 152.369C395.813 152.796 395.475 152.945 394.822 152.945C394.531 152.945 394.078 152.881 393.338 152.347C391.812 151.2 390.166 149.831 388.399 148.226C386.076 146.07 383.468 144.217 380.604 142.653C377.02 140.668 373.011 139.816 368.828 139.816C363.699 139.816 358.893 141.088 354.705 143.88L358.588 149.705M401.029 157.159L358.588 149.705M358.588 149.705L354.705 143.88M358.588 149.705L354.705 143.88" fill="#DAE2F1" stroke="#44506A" stroke-width="14"/>
<path d="M415.106 597.928L421.166 601.432C418.911 605.331 416.396 608.81 413.594 611.814C408.524 617.255 401.856 619.816 394.296 619.816C390.151 619.816 386.188 618.945 382.608 616.992L382.584 616.979L382.561 616.966C379.745 615.402 377.158 613.559 374.818 611.432C373.046 609.821 371.378 608.451 369.814 607.307C369.058 606.753 368.597 606.688 368.303 606.688C367.687 606.688 367.321 606.823 366.839 607.308C366.405 607.768 365.934 608.329 365.431 609.008M415.106 597.928L365.431 609.008M415.106 597.928L421.166 601.432C425.285 594.309 421.658 585.989 415.003 582.982L412.138 589.322L415.003 582.982C408.216 579.914 401.236 583.068 397.655 587.884C397.133 588.586 396.659 589.133 396.239 589.553L401.029 594.343M415.106 597.928L401.029 594.343M365.431 609.008C361.859 613.828 354.948 616.848 348.278 613.871C341.477 610.836 337.945 602.354 342.172 595.254M365.431 609.008L342.172 595.254M345.224 590.51C344.161 592.04 343.144 593.622 342.172 595.254M345.224 590.51L342.172 595.254M345.224 590.51C347.861 586.713 351.012 583.526 354.705 581.064M345.224 590.51L354.705 581.064M401.029 594.343L396.239 589.553C395.813 589.979 395.475 590.128 394.822 590.128C394.531 590.128 394.078 590.065 393.338 589.53C391.812 588.383 390.166 587.014 388.399 585.41C386.076 583.254 383.468 581.401 380.604 579.836C377.02 577.851 373.011 577 368.828 577C363.699 577 358.893 578.272 354.705 581.064L358.588 586.888M401.029 594.343L358.588 586.888M358.588 586.888L354.705 581.064M358.588 586.888L354.705 581.064" fill="#DAE2F1" stroke="#44506A" stroke-width="14"/>
<path d="M415.106 668.928L421.166 672.432C418.911 676.331 416.396 679.81 413.594 682.814C408.524 688.255 401.856 690.816 394.296 690.816C390.151 690.816 386.188 689.945 382.608 687.992L382.584 687.979L382.561 687.966C379.745 686.402 377.158 684.559 374.818 682.432C373.046 680.821 371.378 679.451 369.814 678.307C369.058 677.753 368.597 677.688 368.303 677.688C367.687 677.688 367.321 677.823 366.839 678.308C366.405 678.768 365.934 679.329 365.431 680.008M415.106 668.928L365.431 680.008M415.106 668.928L421.166 672.432C425.285 665.309 421.658 656.989 415.003 653.982L412.138 660.322L415.003 653.982C408.216 650.914 401.236 654.068 397.655 658.884C397.133 659.586 396.659 660.133 396.239 660.553L401.029 665.343M415.106 668.928L401.029 665.343M365.431 680.008C361.859 684.828 354.948 687.848 348.278 684.871C341.477 681.836 337.945 673.354 342.172 666.254M365.431 680.008L342.172 666.254M345.224 661.51C344.161 663.04 343.144 664.622 342.172 666.254M345.224 661.51L342.172 666.254M345.224 661.51C347.861 657.713 351.012 654.526 354.705 652.064M345.224 661.51L354.705 652.064M401.029 665.343L396.239 660.553C395.813 660.979 395.475 661.128 394.822 661.128C394.531 661.128 394.078 661.065 393.338 660.53C391.812 659.383 390.166 658.014 388.399 656.41C386.076 654.254 383.468 652.401 380.604 650.836C377.02 648.851 373.011 648 368.828 648C363.699 648 358.893 649.272 354.705 652.064L358.588 657.888M401.029 665.343L358.588 657.888M358.588 657.888L354.705 652.064M358.588 657.888L354.705 652.064" fill="#DAE2F1" stroke="#44506A" stroke-width="14"/>
</svg>
