<svg width="762" height="772" viewBox="0 0 762 772" fill="none" xmlns="http://www.w3.org/2000/svg">
<g clip-path="url(#clip0_533_2264)">
<path d="M124.328 74.4275C135.565 63.1908 153.783 63.1908 165.02 74.4275L210.246 119.654C221.483 130.891 221.483 149.109 210.246 160.346L165.02 205.573C153.783 216.809 135.565 216.809 124.328 205.573L79.1013 160.346C67.8647 149.109 67.8647 130.891 79.1013 119.654L124.328 74.4275Z" fill="#DA2F85" fill-opacity="0.16"/>
<path fill-rule="evenodd" clip-rule="evenodd" d="M193.276 136.625L148.049 91.398C146.185 89.534 143.163 89.534 141.299 91.398L96.0718 136.625C94.2078 138.489 94.2078 141.511 96.0718 143.375L141.299 188.602C143.163 190.466 146.185 190.466 148.049 188.602L193.276 143.375C195.14 141.511 195.14 138.489 193.276 136.625ZM165.02 74.4275C153.783 63.1908 135.565 63.1908 124.328 74.4275L79.1013 119.654C67.8647 130.891 67.8647 149.109 79.1013 160.346L124.328 205.573C135.565 216.809 153.783 216.809 165.02 205.573L210.246 160.346C221.483 149.109 221.483 130.891 210.246 119.654L165.02 74.4275Z" fill="#DA2F84" fill-opacity="0.64"/>
<path d="M117.691 329.579C129.683 308.807 159.665 308.807 171.658 329.579L221.128 415.263C233.12 436.035 218.129 462 194.144 462H95.2044C71.219 462 56.2282 436.035 68.2209 415.263L117.691 329.579Z" fill="#DA2F85" fill-opacity="0.16"/>
<path fill-rule="evenodd" clip-rule="evenodd" d="M200.343 427.263L150.873 341.579C148.118 336.807 141.23 336.807 138.475 341.579L89.0055 427.263C86.2504 432.035 89.6942 438 95.2044 438H194.144C199.654 438 203.098 432.035 200.343 427.263ZM171.658 329.579C159.665 308.807 129.683 308.807 117.691 329.579L68.2209 415.263C56.2282 436.035 71.219 462 95.2044 462H194.144C218.129 462 233.12 436.035 221.128 415.263L171.658 329.579Z" fill="#DA2F84" fill-opacity="0.64"/>
<path d="M96.0571 583.038C124.107 554.987 169.586 554.987 197.636 583.038C225.686 611.088 225.686 656.566 197.636 684.617L193.291 688.962C165.24 717.013 119.762 717.013 91.7115 688.962C63.6613 660.912 63.6613 615.434 91.7115 587.383L96.0571 583.038Z" fill="#DA2F85" fill-opacity="0.16"/>
<path fill-rule="evenodd" clip-rule="evenodd" d="M96.0571 583.038L91.7115 587.383C63.6613 615.434 63.6613 660.912 91.7115 688.962C119.762 717.013 165.24 717.013 193.291 688.962L197.636 684.617C225.686 656.566 225.686 611.088 197.636 583.038C169.586 554.987 124.107 554.987 96.0571 583.038ZM180.666 667.646C180.666 667.646 180.666 667.646 180.666 667.646C199.343 648.968 199.343 618.686 180.666 600.008C161.988 581.331 131.705 581.331 113.028 600.008L113.028 600.008L108.682 604.354C108.682 604.354 108.682 604.354 108.682 604.354C90.0044 623.032 90.0044 653.314 108.682 671.992C127.36 690.669 157.642 690.669 176.32 671.992L176.32 671.992L180.666 667.646Z" fill="#DA2F84" fill-opacity="0.64"/>
<path d="M596.329 74.4275C607.565 63.1908 625.783 63.1908 637.02 74.4275L682.247 119.654C693.483 130.891 693.483 149.109 682.247 160.346L637.02 205.573C625.783 216.809 607.565 216.809 596.329 205.573L551.102 160.346C539.865 149.109 539.865 130.891 551.102 119.654L596.329 74.4275Z" fill="#DA2F85" fill-opacity="0.16"/>
<path fill-rule="evenodd" clip-rule="evenodd" d="M665.276 136.625L620.049 91.398C618.185 89.534 615.163 89.534 613.299 91.398L568.072 136.625C566.208 138.489 566.208 141.511 568.072 143.375L613.299 188.602C615.163 190.466 618.185 190.466 620.049 188.602L665.276 143.375C667.14 141.511 667.14 138.489 665.276 136.625ZM637.02 74.4275C625.783 63.1908 607.565 63.1908 596.329 74.4275L551.102 119.654C539.865 130.891 539.865 149.109 551.102 160.346L596.329 205.573C607.565 216.809 625.783 216.809 637.02 205.573L682.247 160.346C693.483 149.109 693.483 130.891 682.247 119.654L637.02 74.4275Z" fill="#DA2F84" fill-opacity="0.64"/>
<path d="M589.691 329.579C601.683 308.807 631.665 308.807 643.658 329.579L693.128 415.263C705.12 436.035 690.129 462 666.144 462H567.204C543.219 462 528.228 436.035 540.221 415.263L589.691 329.579Z" fill="#DA2F85" fill-opacity="0.16"/>
<path fill-rule="evenodd" clip-rule="evenodd" d="M672.343 427.263L622.873 341.579C620.118 336.807 613.23 336.807 610.475 341.579L561.005 427.263C558.25 432.035 561.694 438 567.204 438H666.144C671.654 438 675.098 432.035 672.343 427.263ZM643.658 329.579C631.665 308.807 601.683 308.807 589.691 329.579L540.221 415.263C528.228 436.035 543.219 462 567.204 462H666.144C690.129 462 705.12 436.035 693.128 415.263L643.658 329.579Z" fill="#DA2F84" fill-opacity="0.64"/>
<path d="M568.058 583.038C596.108 554.987 641.586 554.987 669.637 583.038C697.687 611.088 697.687 656.566 669.637 684.617L665.291 688.962C637.241 717.013 591.762 717.013 563.712 688.962C535.662 660.912 535.662 615.434 563.712 587.383L568.058 583.038Z" fill="#DA2F85" fill-opacity="0.16"/>
<path fill-rule="evenodd" clip-rule="evenodd" d="M568.058 583.038L563.712 587.383C535.662 615.434 535.662 660.912 563.712 688.962C591.762 717.013 637.241 717.013 665.291 688.962L669.637 684.617C697.687 656.566 697.687 611.088 669.637 583.038C641.586 554.987 596.108 554.987 568.058 583.038ZM652.666 667.646C652.666 667.646 652.666 667.646 652.666 667.646C671.344 648.968 671.344 618.686 652.666 600.008C633.988 581.331 603.706 581.331 585.028 600.008L585.028 600.008L580.683 604.354C580.683 604.354 580.683 604.354 580.683 604.354C562.005 623.032 562.005 653.314 580.683 671.992C599.36 690.669 629.643 690.669 648.32 671.992L648.321 671.992L652.666 667.646Z" fill="#DA2F84" fill-opacity="0.64"/>
<path d="M368.828 338C372.066 338 374.867 338.656 377.23 339.969C379.637 341.282 381.781 342.814 383.663 344.564C385.588 346.315 387.426 347.846 389.177 349.159C390.971 350.472 392.853 351.128 394.822 351.128C397.316 351.128 399.439 350.253 401.189 348.503C401.887 347.805 402.582 346.991 403.273 346.061C405.338 343.284 408.967 341.935 412.121 343.36V343.36C415.43 344.856 416.924 348.785 415.107 351.928C413.076 355.439 410.866 358.477 408.475 361.04C404.887 364.891 400.161 366.816 394.297 366.816C391.146 366.816 388.367 366.16 385.96 364.847C383.597 363.534 381.453 362.003 379.527 360.252C377.602 358.502 375.742 356.97 373.948 355.657C372.154 354.345 370.272 353.688 368.303 353.688C365.765 353.688 363.599 354.607 361.804 356.445C361.135 357.148 360.47 357.946 359.807 358.84C357.788 361.564 354.228 362.861 351.132 361.479V361.479C347.78 359.983 346.31 355.989 348.187 352.835C349.078 351.34 350.006 349.895 350.974 348.503C353.162 345.352 355.7 342.814 358.588 340.888C361.476 338.963 364.89 338 368.828 338Z" fill="#DAE2F1"/>
<path fill-rule="evenodd" clip-rule="evenodd" d="M363.66 354.951C363.096 355.296 362.561 355.712 362.054 356.197C361.97 356.278 361.887 356.361 361.804 356.445C361.642 356.615 361.48 356.791 361.318 356.973C360.813 357.54 360.309 358.163 359.807 358.84C359.649 359.054 359.481 359.258 359.305 359.454C357.233 361.751 353.985 362.753 351.131 361.479C347.78 359.983 346.31 355.989 348.187 352.835C348.547 352.23 348.914 351.633 349.287 351.045C349.797 350.239 350.32 349.449 350.854 348.675C350.894 348.617 350.934 348.56 350.974 348.503C351.307 348.023 351.648 347.557 351.998 347.106C352.032 347.061 352.066 347.017 352.101 346.973C352.84 346.028 353.615 345.146 354.427 344.328C355.722 343.021 357.109 341.874 358.588 340.888C361.476 338.963 364.889 338 368.828 338C372.066 338 374.867 338.656 377.23 339.969C379.637 341.282 381.781 342.814 383.663 344.564C385.588 346.315 387.426 347.846 389.177 349.159C390.971 350.472 392.853 351.128 394.822 351.128C396.697 351.128 398.362 350.634 399.817 349.644C400.297 349.318 400.754 348.937 401.189 348.503C401.447 348.245 401.704 347.971 401.961 347.682C402.399 347.188 402.837 346.648 403.273 346.061C403.444 345.831 403.626 345.61 403.818 345.4C405.937 343.079 409.228 342.053 412.12 343.36C415.429 344.856 416.924 348.785 415.106 351.928C414.706 352.621 414.298 353.295 413.884 353.951C413.413 354.696 412.933 355.417 412.444 356.114C411.937 356.838 411.42 357.535 410.893 358.207C410.482 358.732 410.064 359.242 409.64 359.736C409.257 360.184 408.868 360.618 408.475 361.04C404.887 364.891 400.161 366.816 394.297 366.816C391.146 366.816 388.367 366.16 385.96 364.847C383.597 363.534 381.453 362.003 379.527 360.252C377.602 358.502 375.742 356.97 373.948 355.657C372.154 354.345 370.272 353.688 368.303 353.688C366.585 353.688 365.037 354.109 363.66 354.951ZM394.606 341.92L400.891 348.205ZM394.212 335.214C399.748 329.754 408.783 326.488 417.887 330.603C427.888 335.123 433.647 347.833 427.226 358.936C424.748 363.221 421.93 367.139 418.718 370.584C418.716 370.586 418.715 370.587 418.714 370.588C412.161 377.618 403.553 380.816 394.297 380.816C389.156 380.816 384.009 379.73 379.256 377.138L379.209 377.112L379.161 377.085C375.892 375.269 372.863 373.115 370.11 370.611C369.72 370.257 369.338 369.917 368.964 369.592C363.432 375.108 354.421 378.278 345.425 374.264C335.175 369.688 329.581 356.72 336.158 345.673C337.211 343.905 338.316 342.185 339.474 340.517C342.56 336.073 346.324 332.238 350.822 329.239C356.31 325.581 362.51 324 368.828 324C373.957 324 379.173 325.047 383.977 327.702C387.298 329.518 390.369 331.693 393.132 334.252C393.5 334.586 393.86 334.906 394.212 335.214ZM368.303 363.372L368.552 363.032Z" fill="#44506A"/>
<path d="M368.828 408.816C372.066 408.816 374.867 409.473 377.23 410.786C379.637 412.098 381.781 413.63 383.663 415.381C385.588 417.131 387.426 418.663 389.177 419.975C390.971 421.288 392.853 421.945 394.822 421.945C397.316 421.945 399.439 421.069 401.189 419.319C401.887 418.621 402.582 417.807 403.273 416.878C405.338 414.1 408.967 412.751 412.121 414.177V414.177C415.43 415.672 416.924 419.601 415.107 422.745C413.076 426.256 410.866 429.293 408.475 431.856C404.887 435.707 400.161 437.633 394.297 437.633C391.146 437.633 388.367 436.976 385.96 435.664C383.597 434.351 381.453 432.819 379.527 431.069C377.602 429.318 375.742 427.787 373.948 426.474C372.154 425.161 370.272 424.505 368.303 424.505C365.765 424.505 363.599 425.424 361.804 427.262C361.135 427.964 360.47 428.762 359.807 429.657C357.788 432.381 354.228 433.677 351.132 432.296V432.296C347.78 430.8 346.31 426.805 348.187 423.651C349.078 422.156 350.006 420.712 350.974 419.319C353.162 416.168 355.7 413.63 358.588 411.705C361.476 409.779 364.89 408.816 368.828 408.816Z" fill="#DAE2F1"/>
<path fill-rule="evenodd" clip-rule="evenodd" d="M363.66 425.768C363.096 426.113 362.561 426.528 362.054 427.014C361.97 427.094 361.887 427.177 361.804 427.262C361.642 427.432 361.48 427.608 361.318 427.789C360.813 428.357 360.309 428.979 359.807 429.657C359.649 429.87 359.481 430.075 359.305 430.27C357.233 432.568 353.985 433.569 351.131 432.296C347.78 430.8 346.31 426.805 348.187 423.651C348.547 423.046 348.914 422.45 349.287 421.861C349.797 421.056 350.32 420.266 350.854 419.491C350.894 419.434 350.934 419.376 350.974 419.319C351.307 418.839 351.648 418.373 351.998 417.922C352.032 417.878 352.066 417.833 352.101 417.789C352.84 416.845 353.615 415.963 354.427 415.144C355.722 413.837 357.109 412.691 358.588 411.705C361.476 409.779 364.889 408.816 368.828 408.816C372.066 408.816 374.867 409.473 377.23 410.786C379.637 412.098 381.781 413.63 383.663 415.381C385.588 417.131 387.426 418.663 389.177 419.975C390.971 421.288 392.853 421.945 394.822 421.945C396.697 421.945 398.362 421.45 399.817 420.461C400.297 420.134 400.754 419.753 401.189 419.319C401.447 419.061 401.704 418.788 401.961 418.499C402.399 418.004 402.837 417.464 403.273 416.878C403.444 416.647 403.626 416.427 403.818 416.217C405.937 413.895 409.228 412.869 412.12 414.177C415.429 415.672 416.924 419.601 415.106 422.745C414.706 423.437 414.298 424.112 413.884 424.768C413.413 425.512 412.933 426.234 412.444 426.931C411.937 427.654 411.42 428.351 410.893 429.023C410.482 429.549 410.064 430.059 409.64 430.553C409.257 431 408.868 431.435 408.475 431.856C404.887 435.707 400.161 437.633 394.297 437.633C391.146 437.633 388.367 436.976 385.96 435.664C383.597 434.351 381.453 432.819 379.527 431.069C377.602 429.318 375.742 427.787 373.948 426.474C372.154 425.161 370.272 424.505 368.303 424.505C366.585 424.505 365.037 424.926 363.66 425.768ZM394.606 412.736L400.891 419.021ZM394.212 406.031C399.748 400.57 408.783 397.305 417.887 401.419C427.888 405.94 433.647 418.649 427.226 429.753C424.748 434.038 421.93 437.956 418.718 441.401C418.716 441.402 418.715 441.403 418.714 441.405C412.161 448.435 403.553 451.633 394.297 451.633C389.156 451.633 384.009 450.546 379.256 447.954L379.209 447.928L379.161 447.902C375.892 446.086 372.863 443.931 370.11 441.428C369.72 441.073 369.338 440.733 368.964 440.409C363.432 445.925 354.421 449.095 345.425 445.08C335.175 440.505 329.581 427.536 336.158 416.49C337.211 414.721 338.316 413.002 339.474 411.333C342.56 406.89 346.324 403.055 350.822 400.056C356.31 396.397 362.51 394.816 368.828 394.816C373.957 394.816 379.173 395.863 383.977 398.519C387.298 400.334 390.369 402.509 393.132 405.068C393.5 405.402 393.86 405.723 394.212 406.031ZM368.303 434.189L368.552 433.848Z" fill="#44506A"/>
<path d="M368.828 78C372.066 78 374.867 78.6564 377.23 79.9692C379.637 81.2821 381.781 82.8137 383.663 84.5641C385.588 86.3145 387.426 87.8462 389.177 89.159C390.971 90.4718 392.853 91.1282 394.822 91.1282C397.316 91.1282 399.439 90.253 401.189 88.5026C401.887 87.8046 402.582 86.9908 403.273 86.0611C405.338 83.2837 408.967 81.9348 412.121 83.3603V83.3603C415.43 84.8558 416.924 88.7846 415.107 91.9282C413.076 95.4393 410.866 98.4766 408.475 101.04C404.887 104.891 400.161 106.816 394.297 106.816C391.146 106.816 388.367 106.16 385.96 104.847C383.597 103.534 381.453 102.003 379.527 100.252C377.602 98.5019 375.742 96.9703 373.948 95.6574C372.154 94.3446 370.272 93.6882 368.303 93.6882C365.765 93.6882 363.599 94.6072 361.804 96.4451C361.135 97.1476 360.47 97.946 359.807 98.8403C357.788 101.564 354.228 102.861 351.132 101.479V101.479C347.78 99.9832 346.31 95.9888 348.187 92.835C349.078 91.3396 350.006 89.8954 350.974 88.5026C353.162 85.3518 355.7 82.8137 358.588 80.8882C361.476 78.9627 364.89 78 368.828 78Z" fill="#DAE2F1"/>
<path fill-rule="evenodd" clip-rule="evenodd" d="M363.66 94.9514C363.096 95.2962 362.561 95.7115 362.054 96.1974C361.97 96.2781 361.887 96.3606 361.804 96.4451C361.642 96.6154 361.48 96.7912 361.318 96.9728C360.813 97.5402 360.309 98.1627 359.807 98.8403C359.649 99.0537 359.481 99.2584 359.305 99.4537C357.233 101.751 353.985 102.753 351.131 101.479C347.78 99.9832 346.31 95.9888 348.187 92.835C348.547 92.23 348.914 91.6333 349.287 91.0451C349.797 90.2393 350.32 89.4492 350.854 88.6749C350.894 88.6174 350.934 88.5599 350.974 88.5026C351.307 88.0227 351.648 87.557 351.998 87.1055C352.032 87.0611 352.066 87.0169 352.101 86.9728C352.84 86.0282 353.615 85.1465 354.427 84.3278C355.722 83.0207 357.109 81.8741 358.588 80.8882C361.476 78.9627 364.889 78 368.828 78C372.066 78 374.867 78.6564 377.23 79.9692C379.637 81.2821 381.781 82.8137 383.663 84.5641C385.588 86.3145 387.426 87.8462 389.177 89.159C390.971 90.4718 392.853 91.1282 394.822 91.1282C396.697 91.1282 398.362 90.6335 399.817 89.6442C400.297 89.3176 400.754 88.937 401.189 88.5026C401.447 88.2449 401.704 87.9714 401.961 87.6821C402.399 87.1879 402.837 86.6476 403.273 86.0611C403.444 85.8308 403.626 85.6102 403.818 85.4003C405.937 83.0791 409.228 82.053 412.12 83.3603C415.429 84.8558 416.924 88.7846 415.106 91.9282C414.706 92.621 414.298 93.2953 413.884 93.9512C413.413 94.6961 412.933 95.4172 412.444 96.1144C411.937 96.8376 411.42 97.5351 410.893 98.207C410.482 98.7325 410.064 99.2422 409.64 99.7364C409.257 100.184 408.868 100.618 408.475 101.04C404.887 104.891 400.161 106.816 394.297 106.816C391.146 106.816 388.367 106.16 385.96 104.847C383.597 103.534 381.453 102.003 379.527 100.252C377.602 98.5019 375.742 96.9703 373.948 95.6574C372.154 94.3446 370.272 93.6882 368.303 93.6882C366.585 93.6882 365.037 94.1093 363.66 94.9514ZM394.606 81.9197L400.891 88.2046ZM394.212 75.2144C399.748 69.7536 408.783 66.4884 417.887 70.6028C427.888 75.1231 433.647 87.8331 427.226 98.9364C424.748 103.221 421.93 107.139 418.718 110.584C418.716 110.586 418.715 110.587 418.714 110.588C412.161 117.618 403.553 120.816 394.297 120.816C389.156 120.816 384.009 119.73 379.256 117.138L379.209 117.112L379.161 117.085C375.892 115.269 372.863 113.115 370.11 110.611C369.72 110.257 369.338 109.917 368.964 109.592C363.432 115.108 354.421 118.278 345.425 114.264C335.175 109.688 329.581 96.7198 336.158 85.6735C337.211 83.9046 338.316 82.1852 339.474 80.517C342.56 76.0734 346.324 72.2382 350.822 69.2395C356.31 65.5808 362.51 64 368.828 64C373.957 64 379.173 65.0466 383.977 67.7024C387.298 69.518 390.369 71.6927 393.132 74.2516C393.5 74.5856 393.86 74.9064 394.212 75.2144ZM368.303 103.372L368.552 103.032Z" fill="#44506A"/>
<path d="M368.828 148.816C372.066 148.816 374.867 149.473 377.23 150.786C379.637 152.098 381.781 153.63 383.663 155.381C385.588 157.131 387.426 158.663 389.177 159.975C390.971 161.288 392.853 161.945 394.822 161.945C397.316 161.945 399.439 161.069 401.189 159.319C401.887 158.621 402.582 157.807 403.273 156.878C405.338 154.1 408.967 152.751 412.121 154.177V154.177C415.43 155.672 416.924 159.601 415.107 162.745C413.076 166.256 410.866 169.293 408.475 171.856C404.887 175.707 400.161 177.633 394.297 177.633C391.146 177.633 388.367 176.976 385.96 175.664C383.597 174.351 381.453 172.819 379.527 171.069C377.602 169.318 375.742 167.787 373.948 166.474C372.154 165.161 370.272 164.505 368.303 164.505C365.765 164.505 363.599 165.424 361.804 167.262C361.135 167.964 360.47 168.762 359.807 169.657C357.788 172.381 354.228 173.677 351.132 172.296V172.296C347.78 170.8 346.31 166.805 348.187 163.651C349.078 162.156 350.006 160.712 350.974 159.319C353.162 156.168 355.7 153.63 358.588 151.705C361.476 149.779 364.89 148.816 368.828 148.816Z" fill="#DAE2F1"/>
<path fill-rule="evenodd" clip-rule="evenodd" d="M363.66 165.768C363.096 166.113 362.561 166.528 362.054 167.014C361.97 167.094 361.887 167.177 361.804 167.262C361.642 167.432 361.48 167.608 361.318 167.789C360.813 168.357 360.309 168.979 359.807 169.657C359.649 169.87 359.481 170.075 359.305 170.27C357.233 172.568 353.985 173.569 351.131 172.296C347.78 170.8 346.31 166.805 348.187 163.651C348.547 163.046 348.914 162.45 349.287 161.861C349.797 161.056 350.32 160.266 350.854 159.491C350.894 159.434 350.934 159.376 350.974 159.319C351.307 158.839 351.648 158.373 351.998 157.922C352.032 157.878 352.066 157.833 352.101 157.789C352.84 156.845 353.615 155.963 354.427 155.144C355.722 153.837 357.109 152.691 358.588 151.705C361.476 149.779 364.889 148.816 368.828 148.816C372.066 148.816 374.867 149.473 377.23 150.786C379.637 152.098 381.781 153.63 383.663 155.381C385.588 157.131 387.426 158.663 389.177 159.975C390.971 161.288 392.853 161.945 394.822 161.945C396.697 161.945 398.362 161.45 399.817 160.461C400.297 160.134 400.754 159.753 401.189 159.319C401.447 159.061 401.704 158.788 401.961 158.499C402.399 158.004 402.837 157.464 403.273 156.878C403.444 156.647 403.626 156.427 403.818 156.217C405.937 153.895 409.228 152.869 412.12 154.177C415.429 155.672 416.924 159.601 415.106 162.745C414.706 163.437 414.298 164.112 413.884 164.768C413.413 165.512 412.933 166.234 412.444 166.931C411.937 167.654 411.42 168.351 410.893 169.023C410.482 169.549 410.064 170.059 409.64 170.553C409.257 171 408.868 171.435 408.475 171.856C404.887 175.707 400.161 177.633 394.297 177.633C391.146 177.633 388.367 176.976 385.96 175.664C383.597 174.351 381.453 172.819 379.527 171.069C377.602 169.318 375.742 167.787 373.948 166.474C372.154 165.161 370.272 164.505 368.303 164.505C366.585 164.505 365.037 164.926 363.66 165.768ZM394.606 152.736L400.891 159.021ZM394.212 146.031C399.748 140.57 408.783 137.305 417.887 141.419C427.888 145.94 433.647 158.649 427.226 169.753C424.748 174.038 421.93 177.956 418.718 181.401C418.716 181.402 418.715 181.403 418.714 181.405C412.161 188.435 403.553 191.633 394.297 191.633C389.156 191.633 384.009 190.546 379.256 187.954L379.209 187.928L379.161 187.902C375.892 186.086 372.863 183.931 370.11 181.428C369.72 181.073 369.338 180.733 368.964 180.409C363.432 185.925 354.421 189.095 345.425 185.08C335.175 180.505 329.581 167.536 336.158 156.49C337.211 154.721 338.316 153.002 339.474 151.333C342.56 146.89 346.324 143.055 350.822 140.056C356.31 136.397 362.51 134.816 368.828 134.816C373.957 134.816 379.173 135.863 383.977 138.519C387.298 140.334 390.369 142.509 393.132 145.068C393.5 145.402 393.86 145.723 394.212 146.031ZM368.303 174.189L368.552 173.848Z" fill="#44506A"/>
<path d="M368.828 586C372.066 586 374.867 586.656 377.23 587.969C379.637 589.282 381.781 590.814 383.663 592.564C385.588 594.315 387.426 595.846 389.177 597.159C390.971 598.472 392.853 599.128 394.822 599.128C397.316 599.128 399.439 598.253 401.189 596.503C401.887 595.805 402.582 594.991 403.273 594.061C405.338 591.284 408.967 589.935 412.121 591.36V591.36C415.43 592.856 416.924 596.785 415.107 599.928C413.076 603.439 410.866 606.477 408.475 609.04C404.887 612.891 400.161 614.816 394.297 614.816C391.146 614.816 388.367 614.16 385.96 612.847C383.597 611.534 381.453 610.003 379.527 608.252C377.602 606.502 375.742 604.97 373.948 603.657C372.154 602.345 370.272 601.688 368.303 601.688C365.765 601.688 363.599 602.607 361.804 604.445C361.135 605.148 360.47 605.946 359.807 606.84C357.788 609.564 354.228 610.861 351.132 609.479V609.479C347.78 607.983 346.31 603.989 348.187 600.835C349.078 599.34 350.006 597.895 350.974 596.503C353.162 593.352 355.7 590.814 358.588 588.888C361.476 586.963 364.89 586 368.828 586Z" fill="#DAE2F1"/>
<path fill-rule="evenodd" clip-rule="evenodd" d="M363.66 602.951C363.096 603.296 362.561 603.712 362.054 604.197C361.97 604.278 361.887 604.361 361.804 604.445C361.642 604.615 361.48 604.791 361.318 604.973C360.813 605.54 360.309 606.163 359.807 606.84C359.649 607.054 359.481 607.258 359.305 607.454C357.233 609.751 353.985 610.753 351.131 609.479C347.78 607.983 346.31 603.989 348.187 600.835C348.547 600.23 348.914 599.633 349.287 599.045C349.797 598.239 350.32 597.449 350.854 596.675C350.894 596.617 350.934 596.56 350.974 596.503C351.307 596.023 351.648 595.557 351.998 595.106C352.032 595.061 352.066 595.017 352.101 594.973C352.84 594.028 353.615 593.146 354.427 592.328C355.722 591.021 357.109 589.874 358.588 588.888C361.476 586.963 364.889 586 368.828 586C372.066 586 374.867 586.656 377.23 587.969C379.637 589.282 381.781 590.814 383.663 592.564C385.588 594.315 387.426 595.846 389.177 597.159C390.971 598.472 392.853 599.128 394.822 599.128C396.697 599.128 398.362 598.634 399.817 597.644C400.297 597.318 400.754 596.937 401.189 596.503C401.447 596.245 401.704 595.971 401.961 595.682C402.399 595.188 402.837 594.648 403.273 594.061C403.444 593.831 403.626 593.61 403.818 593.4C405.937 591.079 409.228 590.053 412.12 591.36C415.429 592.856 416.924 596.785 415.106 599.928C414.706 600.621 414.298 601.295 413.884 601.951C413.413 602.696 412.933 603.417 412.444 604.114C411.937 604.838 411.42 605.535 410.893 606.207C410.482 606.732 410.064 607.242 409.64 607.736C409.257 608.184 408.868 608.618 408.475 609.04C404.887 612.891 400.161 614.816 394.297 614.816C391.146 614.816 388.367 614.16 385.96 612.847C383.597 611.534 381.453 610.003 379.527 608.252C377.602 606.502 375.742 604.97 373.948 603.657C372.154 602.345 370.272 601.688 368.303 601.688C366.585 601.688 365.037 602.109 363.66 602.951ZM394.606 589.92L400.891 596.205ZM394.212 583.214C399.748 577.754 408.783 574.488 417.887 578.603C427.888 583.123 433.647 595.833 427.226 606.936C424.748 611.221 421.93 615.139 418.718 618.584C418.716 618.586 418.715 618.587 418.714 618.588C412.161 625.618 403.553 628.816 394.297 628.816C389.156 628.816 384.009 627.73 379.256 625.138L379.209 625.112L379.161 625.085C375.892 623.269 372.863 621.115 370.11 618.611C369.72 618.257 369.338 617.917 368.964 617.592C363.432 623.108 354.421 626.278 345.425 622.264C335.175 617.688 329.581 604.72 336.158 593.673C337.211 591.905 338.316 590.185 339.474 588.517C342.56 584.073 346.324 580.238 350.822 577.239C356.31 573.581 362.51 572 368.828 572C373.957 572 379.173 573.047 383.977 575.702C387.298 577.518 390.369 579.693 393.132 582.252C393.5 582.586 393.86 582.906 394.212 583.214ZM368.303 611.372L368.552 611.032Z" fill="#44506A"/>
<path d="M368.828 657C372.066 657 374.867 657.656 377.23 658.969C379.637 660.282 381.781 661.814 383.663 663.564C385.588 665.315 387.426 666.846 389.177 668.159C390.971 669.472 392.853 670.128 394.822 670.128C397.316 670.128 399.439 669.253 401.189 667.503C401.887 666.805 402.582 665.991 403.273 665.061C405.338 662.284 408.967 660.935 412.121 662.36V662.36C415.43 663.856 416.924 667.785 415.107 670.928C413.076 674.439 410.866 677.477 408.475 680.04C404.887 683.891 400.161 685.816 394.297 685.816C391.146 685.816 388.367 685.16 385.96 683.847C383.597 682.534 381.453 681.003 379.527 679.252C377.602 677.502 375.742 675.97 373.948 674.657C372.154 673.345 370.272 672.688 368.303 672.688C365.765 672.688 363.599 673.607 361.804 675.445C361.135 676.148 360.47 676.946 359.807 677.84C357.788 680.564 354.228 681.861 351.132 680.479V680.479C347.78 678.983 346.31 674.989 348.187 671.835C349.078 670.34 350.006 668.895 350.974 667.503C353.162 664.352 355.7 661.814 358.588 659.888C361.476 657.963 364.89 657 368.828 657Z" fill="#DAE2F1"/>
<path fill-rule="evenodd" clip-rule="evenodd" d="M363.66 673.951C363.096 674.296 362.561 674.712 362.054 675.197C361.97 675.278 361.887 675.361 361.804 675.445C361.642 675.615 361.48 675.791 361.318 675.973C360.813 676.54 360.309 677.163 359.807 677.84C359.649 678.054 359.481 678.258 359.305 678.454C357.233 680.751 353.985 681.753 351.131 680.479C347.78 678.983 346.31 674.989 348.187 671.835C348.547 671.23 348.914 670.633 349.287 670.045C349.797 669.239 350.32 668.449 350.854 667.675C350.894 667.617 350.934 667.56 350.974 667.503C351.307 667.023 351.648 666.557 351.998 666.106C352.032 666.061 352.066 666.017 352.101 665.973C352.84 665.028 353.615 664.146 354.427 663.328C355.722 662.021 357.109 660.874 358.588 659.888C361.476 657.963 364.889 657 368.828 657C372.066 657 374.867 657.656 377.23 658.969C379.637 660.282 381.781 661.814 383.663 663.564C385.588 665.315 387.426 666.846 389.177 668.159C390.971 669.472 392.853 670.128 394.822 670.128C396.697 670.128 398.362 669.634 399.817 668.644C400.297 668.318 400.754 667.937 401.189 667.503C401.447 667.245 401.704 666.971 401.961 666.682C402.399 666.188 402.837 665.648 403.273 665.061C403.444 664.831 403.626 664.61 403.818 664.4C405.937 662.079 409.228 661.053 412.12 662.36C415.429 663.856 416.924 667.785 415.106 670.928C414.706 671.621 414.298 672.295 413.884 672.951C413.413 673.696 412.933 674.417 412.444 675.114C411.937 675.838 411.42 676.535 410.893 677.207C410.482 677.732 410.064 678.242 409.64 678.736C409.257 679.184 408.868 679.618 408.475 680.04C404.887 683.891 400.161 685.816 394.297 685.816C391.146 685.816 388.367 685.16 385.96 683.847C383.597 682.534 381.453 681.003 379.527 679.252C377.602 677.502 375.742 675.97 373.948 674.657C372.154 673.345 370.272 672.688 368.303 672.688C366.585 672.688 365.037 673.109 363.66 673.951ZM394.606 660.92L400.891 667.205ZM394.212 654.214C399.748 648.754 408.783 645.488 417.887 649.603C427.888 654.123 433.647 666.833 427.226 677.936C424.748 682.221 421.93 686.139 418.718 689.584C418.716 689.586 418.715 689.587 418.714 689.588C412.161 696.618 403.553 699.816 394.297 699.816C389.156 699.816 384.009 698.73 379.256 696.138L379.209 696.112L379.161 696.085C375.892 694.269 372.863 692.115 370.11 689.611C369.72 689.257 369.338 688.917 368.964 688.592C363.432 694.108 354.421 697.278 345.425 693.264C335.175 688.688 329.581 675.72 336.158 664.673C337.211 662.905 338.316 661.185 339.474 659.517C342.56 655.073 346.324 651.238 350.822 648.239C356.31 644.581 362.51 643 368.828 643C373.957 643 379.173 644.047 383.977 646.702C387.298 648.518 390.369 650.693 393.132 653.252C393.5 653.586 393.86 653.906 394.212 654.214ZM368.303 682.372L368.552 682.032Z" fill="#44506A"/>
</g>
<defs>
<clipPath id="clip0_533_2264">
<rect width="762" height="772" rx="16" fill="white"/>
</clipPath>
</defs>
</svg>
