<svg width="480" height="240" viewBox="0 0 480 240" fill="none" xmlns="http://www.w3.org/2000/svg">
<mask id="path-1-outside-1_1873_303" maskUnits="userSpaceOnUse" x="24" y="32" width="192" height="176" fill="black">
<rect fill="white" x="24" y="32" width="192" height="176"/>
<path fill-rule="evenodd" clip-rule="evenodd" d="M32 56C32 47.1634 39.1634 40 48 40H72H160C168.837 40 176 47.1634 176 56V168H208V184C208 192.837 200.837 200 192 200H176H80C71.1634 200 64 192.837 64 184V72H32V56Z"/>
</mask>
<path fill-rule="evenodd" clip-rule="evenodd" d="M32 56C32 47.1634 39.1634 40 48 40H72H160C168.837 40 176 47.1634 176 56V168H208V184C208 192.837 200.837 200 192 200H176H80C71.1634 200 64 192.837 64 184V72H32V56Z" fill="white"/>
<path d="M176 168H168C168 172.418 171.582 176 176 176V168ZM208 168H216C216 163.582 212.418 160 208 160V168ZM64 72H72C72 67.5817 68.4183 64 64 64V72ZM32 72H24C24 76.4183 27.5817 80 32 80V72ZM48 32C34.7452 32 24 42.7452 24 56H40C40 51.5817 43.5817 48 48 48V32ZM72 32H48V48H72V32ZM160 32H72V48H160V32ZM184 56C184 42.7452 173.255 32 160 32V48C164.418 48 168 51.5817 168 56H184ZM184 168V56H168V168H184ZM176 176H208V160H176V176ZM200 168V184H216V168H200ZM200 184C200 188.418 196.418 192 192 192V208C205.255 208 216 197.255 216 184H200ZM192 192H176V208H192V192ZM176 192H80V208H176V192ZM56 184C56 197.255 66.7452 208 80 208V192C75.5817 192 72 188.418 72 184H56ZM56 72V184H72V72H56ZM32 80H64V64H32V80ZM24 56V72H40V56H24Z" fill="#007FB4" mask="url(#path-1-outside-1_1873_303)"/>
<path d="M32 56C32 47.1634 39.1634 40 48 40H72V72H32V56Z" fill="#D2E5F4"/>
<path d="M48 40H160C168.837 40 176 47.1634 176 56V200H80C71.1634 200 64 192.837 64 184V56.02C64 47.494 57.3144 40.4657 48.799 40.04L48 40Z" fill="white"/>
<path d="M48 40H160C168.837 40 176 47.1634 176 56V200H80C71.1634 200 64 192.837 64 184V56.02C64 47.494 57.3144 40.4657 48.799 40.04L48 40Z" fill="url(#paint0_linear_1873_303)" fill-opacity="0.16"/>
<path d="M96 168H208V184C208 192.837 200.837 200 192 200H80L80.799 199.96C89.3144 199.534 96 192.506 96 183.98V168Z" fill="#D2E5F4"/>
<rect x="84" y="92" width="72" height="64" rx="8" fill="#E5F2FF"/>
<path d="M0 120.5C0 119.672 0.671573 119 1.5 119H280V122H1.5C0.671574 122 0 121.328 0 120.5V120.5Z" fill="#FFADF3"/>
<rect x="89.5" y="89.5" width="69" height="61" rx="6.5" fill="#FFEBF7" stroke="#FFADF3" stroke-width="3"/>
<rect x="88" y="60" width="32" height="8" rx="4" fill="#D2E5F4"/>
<rect x="88" y="72" width="48" height="8" rx="4" fill="#D2E5F4"/>
<rect x="96" y="100" width="32" height="8" rx="4" fill="#8C4585" fill-opacity="0.16"/>
<rect x="108" y="112" width="40" height="8" rx="4" fill="#8C4585" fill-opacity="0.16"/>
<rect x="108" y="124" width="40" height="8" rx="4" fill="#8C4585" fill-opacity="0.16"/>
<rect x="96" y="136" width="24" height="8" rx="4" fill="#8C4585" fill-opacity="0.16"/>
<rect x="99" y="99" width="30" height="6" rx="2" fill="#E08FD5" stroke="#6D2C69" stroke-width="2"/>
<rect x="111" y="111" width="38" height="6" rx="2" fill="#E08FD5" stroke="#6D2C69" stroke-width="2"/>
<rect x="111" y="123" width="38" height="6" rx="2" fill="#E08FD5" stroke="#6D2C69" stroke-width="2"/>
<rect x="99" y="135" width="22" height="6" rx="2" fill="#E08FD5" stroke="#6D2C69" stroke-width="2"/>
<rect x="220.5" y="99.5" width="258" height="41" rx="20.5" fill="#FFEBF7"/>
<rect x="220.5" y="99.5" width="258" height="41" rx="20.5" stroke="#FFADF3" stroke-width="3"/>
<path d="M244.008 126.192C243.421 126.192 242.883 126.123 242.392 125.984C241.912 125.845 241.485 125.653 241.112 125.408C240.749 125.163 240.445 124.891 240.2 124.592C239.965 124.283 239.8 123.963 239.704 123.632L241.528 123.072C241.667 123.467 241.939 123.813 242.344 124.112C242.749 124.411 243.251 124.565 243.848 124.576C244.541 124.576 245.091 124.432 245.496 124.144C245.901 123.856 246.104 123.477 246.104 123.008C246.104 122.581 245.933 122.235 245.592 121.968C245.251 121.691 244.792 121.477 244.216 121.328L242.84 120.976C242.317 120.837 241.843 120.635 241.416 120.368C241 120.101 240.669 119.765 240.424 119.36C240.189 118.955 240.072 118.475 240.072 117.92C240.072 116.875 240.413 116.064 241.096 115.488C241.779 114.901 242.755 114.608 244.024 114.608C244.739 114.608 245.363 114.72 245.896 114.944C246.44 115.157 246.888 115.456 247.24 115.84C247.592 116.213 247.853 116.64 248.024 117.12L246.232 117.696C246.072 117.269 245.795 116.917 245.4 116.64C245.005 116.363 244.515 116.224 243.928 116.224C243.32 116.224 242.84 116.368 242.488 116.656C242.147 116.944 241.976 117.344 241.976 117.856C241.976 118.272 242.109 118.597 242.376 118.832C242.653 119.056 243.027 119.227 243.496 119.344L244.872 119.68C245.875 119.925 246.653 120.347 247.208 120.944C247.763 121.541 248.04 122.203 248.04 122.928C248.04 123.568 247.885 124.133 247.576 124.624C247.267 125.115 246.808 125.499 246.2 125.776C245.603 126.053 244.872 126.192 244.008 126.192ZM253.502 126.192C252.68 126.192 251.955 126.016 251.326 125.664C250.696 125.301 250.2 124.805 249.838 124.176C249.486 123.547 249.31 122.821 249.31 122C249.31 121.179 249.486 120.453 249.838 119.824C250.2 119.195 250.691 118.704 251.31 118.352C251.939 117.989 252.659 117.808 253.47 117.808C254.259 117.808 254.974 118 255.614 118.384C256.254 118.757 256.728 119.296 257.038 120L255.374 120.64C255.203 120.288 254.942 120.005 254.59 119.792C254.238 119.579 253.838 119.472 253.39 119.472C252.952 119.472 252.563 119.584 252.222 119.808C251.88 120.021 251.614 120.32 251.422 120.704C251.23 121.077 251.134 121.509 251.134 122C251.134 122.491 251.23 122.928 251.422 123.312C251.624 123.685 251.896 123.984 252.238 124.208C252.59 124.421 252.984 124.528 253.422 124.528C253.87 124.528 254.27 124.416 254.622 124.192C254.974 123.957 255.235 123.643 255.406 123.248L257.07 123.888C256.76 124.613 256.286 125.179 255.646 125.584C255.016 125.989 254.302 126.192 253.502 126.192ZM263.309 126L263.229 124.496V121.888C263.229 121.344 263.17 120.891 263.053 120.528C262.935 120.165 262.749 119.888 262.493 119.696C262.247 119.504 261.922 119.408 261.517 119.408C261.143 119.408 260.813 119.488 260.525 119.648C260.237 119.808 259.997 120.053 259.805 120.384L258.173 119.808C258.354 119.456 258.589 119.125 258.877 118.816C259.165 118.507 259.527 118.261 259.965 118.08C260.413 117.899 260.941 117.808 261.549 117.808C262.327 117.808 262.973 117.952 263.485 118.24C264.007 118.528 264.397 118.955 264.653 119.52C264.909 120.085 265.037 120.784 265.037 121.616L264.989 126H263.309ZM261.037 126.192C260.077 126.192 259.33 125.979 258.797 125.552C258.274 125.125 258.013 124.523 258.013 123.744C258.013 122.912 258.29 122.277 258.845 121.84C259.41 121.403 260.194 121.184 261.197 121.184H263.341V122.56H261.773C261.058 122.56 260.557 122.661 260.269 122.864C259.981 123.056 259.837 123.333 259.837 123.696C259.837 124.005 259.959 124.251 260.205 124.432C260.461 124.603 260.813 124.688 261.261 124.688C261.655 124.688 261.997 124.597 262.285 124.416C262.583 124.224 262.813 123.979 262.973 123.68C263.143 123.371 263.229 123.04 263.229 122.688H263.885C263.885 123.776 263.65 124.635 263.181 125.264C262.722 125.883 262.007 126.192 261.037 126.192ZM266.851 126V118H268.531L268.643 119.472V126H266.851ZM272.275 126V121.904L274.067 121.424V126H272.275ZM272.275 121.904C272.275 121.264 272.201 120.773 272.051 120.432C271.913 120.08 271.71 119.835 271.443 119.696C271.187 119.557 270.883 119.488 270.531 119.488C269.934 119.477 269.47 119.675 269.139 120.08C268.809 120.485 268.643 121.067 268.643 121.824H267.971C267.971 120.981 268.094 120.261 268.339 119.664C268.585 119.056 268.937 118.597 269.395 118.288C269.854 117.968 270.398 117.808 271.027 117.808C271.998 117.808 272.745 118.107 273.267 118.704C273.801 119.291 274.067 120.197 274.067 121.424L272.275 121.904ZM278.795 126.192C278.261 126.192 277.771 126.112 277.323 125.952C276.875 125.792 276.491 125.568 276.171 125.28C275.851 124.981 275.605 124.635 275.435 124.24L276.987 123.552C277.147 123.851 277.381 124.101 277.691 124.304C278.011 124.507 278.363 124.608 278.747 124.608C279.163 124.608 279.493 124.539 279.739 124.4C279.995 124.251 280.123 124.048 280.123 123.792C280.123 123.547 280.027 123.36 279.835 123.232C279.643 123.093 279.371 122.981 279.019 122.896L278.267 122.688C277.509 122.496 276.917 122.192 276.491 121.776C276.064 121.349 275.851 120.864 275.851 120.32C275.851 119.52 276.107 118.901 276.619 118.464C277.141 118.027 277.888 117.808 278.859 117.808C279.349 117.808 279.797 117.883 280.203 118.032C280.619 118.171 280.976 118.373 281.275 118.64C281.573 118.896 281.781 119.2 281.899 119.552L280.411 120.224C280.304 119.957 280.101 119.755 279.803 119.616C279.504 119.467 279.173 119.392 278.811 119.392C278.448 119.392 278.165 119.472 277.963 119.632C277.76 119.781 277.659 119.995 277.659 120.272C277.659 120.432 277.749 120.581 277.931 120.72C278.112 120.848 278.373 120.955 278.715 121.04L279.659 121.264C280.181 121.392 280.608 121.595 280.939 121.872C281.269 122.139 281.515 122.443 281.675 122.784C281.835 123.115 281.915 123.451 281.915 123.792C281.915 124.272 281.776 124.693 281.499 125.056C281.232 125.419 280.864 125.701 280.395 125.904C279.925 126.096 279.392 126.192 278.795 126.192ZM287.995 126V117.152C287.995 116.309 288.203 115.664 288.619 115.216C289.046 114.757 289.686 114.528 290.539 114.528C290.816 114.528 291.11 114.576 291.419 114.672C291.739 114.757 292.043 114.875 292.331 115.024L291.675 116.352C291.472 116.256 291.291 116.187 291.131 116.144C290.982 116.101 290.848 116.08 290.731 116.08C290.411 116.08 290.171 116.187 290.011 116.4C289.862 116.603 289.787 116.939 289.787 117.408V126H287.995ZM286.619 119.472V118H291.883V119.472H286.619ZM296.875 126.192C296.075 126.192 295.36 126.016 294.731 125.664C294.112 125.301 293.627 124.805 293.275 124.176C292.923 123.547 292.747 122.821 292.747 122C292.747 121.179 292.918 120.453 293.259 119.824C293.611 119.195 294.096 118.704 294.715 118.352C295.334 117.989 296.043 117.808 296.843 117.808C297.643 117.808 298.352 117.989 298.971 118.352C299.59 118.704 300.07 119.195 300.411 119.824C300.763 120.453 300.939 121.179 300.939 122C300.939 122.821 300.768 123.547 300.427 124.176C300.086 124.805 299.606 125.301 298.987 125.664C298.368 126.016 297.664 126.192 296.875 126.192ZM296.875 124.544C297.312 124.544 297.702 124.437 298.043 124.224C298.384 124 298.651 123.701 298.843 123.328C299.035 122.944 299.131 122.501 299.131 122C299.131 121.499 299.03 121.061 298.827 120.688C298.635 120.304 298.368 120.005 298.027 119.792C297.686 119.568 297.291 119.456 296.843 119.456C296.395 119.456 296 119.563 295.659 119.776C295.318 119.989 295.051 120.288 294.859 120.672C294.667 121.056 294.571 121.499 294.571 122C294.571 122.501 294.667 122.944 294.859 123.328C295.062 123.701 295.334 124 295.675 124.224C296.027 124.437 296.427 124.544 296.875 124.544ZM303.676 121.744C303.676 120.88 303.841 120.171 304.172 119.616C304.503 119.061 304.929 118.651 305.452 118.384C305.985 118.107 306.54 117.968 307.116 117.968V119.68C306.625 119.68 306.161 119.749 305.724 119.888C305.297 120.016 304.951 120.229 304.684 120.528C304.417 120.827 304.284 121.221 304.284 121.712L303.676 121.744ZM302.492 126V118H304.284V126H302.492ZM313.876 123.76L312.788 122.528L316.948 118H319.108L313.876 123.76ZM312.164 126V114.8H313.956V126H312.164ZM317.252 126L314.436 121.856L315.604 120.608L319.38 126H317.252ZM323.685 126.192C322.906 126.192 322.213 126.016 321.605 125.664C321.008 125.301 320.533 124.805 320.181 124.176C319.84 123.547 319.669 122.821 319.669 122C319.669 121.179 319.845 120.453 320.197 119.824C320.549 119.195 321.029 118.704 321.637 118.352C322.256 117.989 322.96 117.808 323.749 117.808C324.464 117.808 325.104 117.995 325.669 118.368C326.245 118.731 326.704 119.259 327.045 119.952C327.386 120.645 327.557 121.472 327.557 122.432H325.749C325.749 121.739 325.664 121.168 325.493 120.72C325.333 120.272 325.098 119.941 324.789 119.728C324.49 119.504 324.122 119.392 323.685 119.392C323.226 119.392 322.832 119.493 322.501 119.696C322.17 119.899 321.92 120.197 321.749 120.592C321.578 120.976 321.493 121.461 321.493 122.048C321.493 122.571 321.594 123.019 321.797 123.392C322.01 123.765 322.293 124.053 322.645 124.256C323.008 124.448 323.408 124.544 323.845 124.544C324.325 124.544 324.72 124.437 325.029 124.224C325.338 124 325.578 123.717 325.749 123.376L327.397 124.08C327.173 124.507 326.885 124.88 326.533 125.2C326.192 125.52 325.781 125.765 325.301 125.936C324.832 126.107 324.293 126.192 323.685 126.192ZM320.853 122.432V121.008H326.613V122.432H320.853ZM329.897 129.392C329.641 129.392 329.353 129.344 329.033 129.248C328.723 129.152 328.425 129.029 328.137 128.88L328.809 127.424C329.011 127.52 329.198 127.595 329.369 127.648C329.539 127.712 329.678 127.744 329.785 127.744C330.041 127.744 330.254 127.675 330.425 127.536C330.606 127.408 330.75 127.216 330.857 126.96L331.801 124.752L334.505 118H336.457L332.745 126.848C332.521 127.36 332.291 127.808 332.057 128.192C331.833 128.576 331.55 128.869 331.209 129.072C330.867 129.285 330.43 129.392 329.897 129.392ZM331.321 126L327.737 118H329.689L332.473 124.736L333.049 126H331.321ZM344.931 126L347.603 118H349.411L346.691 126H344.931ZM339.571 126L342.179 118H343.763L341.187 126H339.571ZM339.411 126L336.691 118H338.499L341.107 126H339.411ZM344.915 126L342.355 118H343.939L346.547 126H344.915ZM354.031 126.192C353.231 126.192 352.517 126.016 351.887 125.664C351.269 125.301 350.783 124.805 350.431 124.176C350.079 123.547 349.903 122.821 349.903 122C349.903 121.179 350.074 120.453 350.415 119.824C350.767 119.195 351.253 118.704 351.871 118.352C352.49 117.989 353.199 117.808 353.999 117.808C354.799 117.808 355.509 117.989 356.127 118.352C356.746 118.704 357.226 119.195 357.567 119.824C357.919 120.453 358.095 121.179 358.095 122C358.095 122.821 357.925 123.547 357.583 124.176C357.242 124.805 356.762 125.301 356.143 125.664C355.525 126.016 354.821 126.192 354.031 126.192ZM354.031 124.544C354.469 124.544 354.858 124.437 355.199 124.224C355.541 124 355.807 123.701 355.999 123.328C356.191 122.944 356.287 122.501 356.287 122C356.287 121.499 356.186 121.061 355.983 120.688C355.791 120.304 355.525 120.005 355.183 119.792C354.842 119.568 354.447 119.456 353.999 119.456C353.551 119.456 353.157 119.563 352.815 119.776C352.474 119.989 352.207 120.288 352.015 120.672C351.823 121.056 351.727 121.499 351.727 122C351.727 122.501 351.823 122.944 352.015 123.328C352.218 123.701 352.49 124 352.831 124.224C353.183 124.437 353.583 124.544 354.031 124.544ZM360.832 121.744C360.832 120.88 360.998 120.171 361.328 119.616C361.659 119.061 362.086 118.651 362.608 118.384C363.142 118.107 363.696 117.968 364.272 117.968V119.68C363.782 119.68 363.318 119.749 362.88 119.888C362.454 120.016 362.107 120.229 361.84 120.528C361.574 120.827 361.44 121.221 361.44 121.712L360.832 121.744ZM359.648 126V118H361.44V126H359.648ZM371.237 126L371.157 124.512V114.8H372.933V126H371.237ZM368.629 126.192C367.903 126.192 367.269 126.021 366.725 125.68C366.191 125.328 365.77 124.837 365.461 124.208C365.162 123.579 365.013 122.843 365.013 122C365.013 121.147 365.162 120.411 365.461 119.792C365.77 119.163 366.191 118.677 366.725 118.336C367.269 117.984 367.903 117.808 368.629 117.808C369.301 117.808 369.877 117.984 370.357 118.336C370.847 118.677 371.221 119.163 371.477 119.792C371.733 120.411 371.861 121.147 371.861 122C371.861 122.843 371.733 123.579 371.477 124.208C371.221 124.837 370.847 125.328 370.357 125.68C369.877 126.021 369.301 126.192 368.629 126.192ZM369.077 124.56C369.482 124.56 369.839 124.453 370.149 124.24C370.469 124.016 370.714 123.712 370.885 123.328C371.066 122.944 371.157 122.501 371.157 122C371.157 121.499 371.066 121.056 370.885 120.672C370.714 120.288 370.469 119.989 370.149 119.776C369.839 119.563 369.477 119.456 369.061 119.456C368.634 119.456 368.255 119.563 367.925 119.776C367.594 119.989 367.333 120.288 367.141 120.672C366.959 121.056 366.863 121.499 366.853 122C366.863 122.501 366.959 122.944 367.141 123.328C367.333 123.712 367.594 124.016 367.925 124.24C368.266 124.453 368.65 124.56 369.077 124.56ZM377.826 126.192C377.293 126.192 376.802 126.112 376.354 125.952C375.906 125.792 375.522 125.568 375.202 125.28C374.882 124.981 374.637 124.635 374.466 124.24L376.018 123.552C376.178 123.851 376.413 124.101 376.722 124.304C377.042 124.507 377.394 124.608 377.778 124.608C378.194 124.608 378.525 124.539 378.77 124.4C379.026 124.251 379.154 124.048 379.154 123.792C379.154 123.547 379.058 123.36 378.866 123.232C378.674 123.093 378.402 122.981 378.05 122.896L377.298 122.688C376.541 122.496 375.949 122.192 375.522 121.776C375.095 121.349 374.882 120.864 374.882 120.32C374.882 119.52 375.138 118.901 375.65 118.464C376.173 118.027 376.919 117.808 377.89 117.808C378.381 117.808 378.829 117.883 379.234 118.032C379.65 118.171 380.007 118.373 380.306 118.64C380.605 118.896 380.813 119.2 380.93 119.552L379.442 120.224C379.335 119.957 379.133 119.755 378.834 119.616C378.535 119.467 378.205 119.392 377.842 119.392C377.479 119.392 377.197 119.472 376.994 119.632C376.791 119.781 376.69 119.995 376.69 120.272C376.69 120.432 376.781 120.581 376.962 120.72C377.143 120.848 377.405 120.955 377.746 121.04L378.69 121.264C379.213 121.392 379.639 121.595 379.97 121.872C380.301 122.139 380.546 122.443 380.706 122.784C380.866 123.115 380.946 123.451 380.946 123.792C380.946 124.272 380.807 124.693 380.53 125.056C380.263 125.419 379.895 125.701 379.426 125.904C378.957 126.096 378.423 126.192 377.826 126.192ZM389.33 126.224C388.68 126.224 388.104 126.096 387.602 125.84C387.101 125.584 386.706 125.232 386.418 124.784C386.13 124.336 385.986 123.824 385.986 123.248C385.986 122.821 386.066 122.432 386.226 122.08C386.397 121.717 386.621 121.387 386.898 121.088C387.176 120.789 387.49 120.523 387.842 120.288L389.682 119.024C389.896 118.875 390.114 118.715 390.338 118.544C390.562 118.373 390.754 118.176 390.914 117.952C391.085 117.728 391.17 117.472 391.17 117.184C391.17 116.832 391.042 116.555 390.786 116.352C390.541 116.149 390.226 116.048 389.842 116.048C389.501 116.048 389.208 116.155 388.962 116.368C388.728 116.581 388.61 116.848 388.61 117.168C388.61 117.456 388.701 117.712 388.882 117.936C389.064 118.16 389.277 118.427 389.522 118.736L391.586 121.216L395.538 126H393.41L390.242 122.208L388.13 119.648C387.853 119.296 387.618 118.987 387.426 118.72C387.234 118.443 387.09 118.181 386.994 117.936C386.909 117.68 386.866 117.419 386.866 117.152C386.866 116.661 386.994 116.224 387.25 115.84C387.517 115.445 387.869 115.136 388.306 114.912C388.744 114.688 389.234 114.576 389.778 114.576C390.376 114.576 390.904 114.688 391.362 114.912C391.832 115.136 392.2 115.445 392.466 115.84C392.733 116.235 392.866 116.693 392.866 117.216C392.866 117.643 392.754 118.043 392.53 118.416C392.306 118.789 391.986 119.152 391.57 119.504C391.165 119.856 390.685 120.229 390.13 120.624L388.978 121.408C388.776 121.547 388.589 121.701 388.418 121.872C388.248 122.043 388.109 122.235 388.002 122.448C387.896 122.661 387.842 122.917 387.842 123.216C387.842 123.643 387.986 123.995 388.274 124.272C388.573 124.539 388.957 124.672 389.426 124.672C389.917 124.672 390.386 124.592 390.834 124.432C391.293 124.272 391.698 124.043 392.05 123.744C392.413 123.435 392.696 123.061 392.898 122.624C393.101 122.187 393.202 121.691 393.202 121.136H394.914C394.914 122.117 394.674 122.992 394.194 123.76C393.714 124.528 393.053 125.131 392.21 125.568C391.378 126.005 390.418 126.224 389.33 126.224ZM403.998 126.192C403.219 126.192 402.526 126.016 401.918 125.664C401.32 125.301 400.846 124.805 400.493 124.176C400.152 123.547 399.982 122.821 399.982 122C399.982 121.179 400.158 120.453 400.51 119.824C400.862 119.195 401.342 118.704 401.95 118.352C402.568 117.989 403.272 117.808 404.062 117.808C404.776 117.808 405.416 117.995 405.982 118.368C406.558 118.731 407.016 119.259 407.358 119.952C407.699 120.645 407.87 121.472 407.87 122.432H406.062C406.062 121.739 405.976 121.168 405.806 120.72C405.646 120.272 405.411 119.941 405.102 119.728C404.803 119.504 404.435 119.392 403.998 119.392C403.539 119.392 403.144 119.493 402.814 119.696C402.483 119.899 402.232 120.197 402.062 120.592C401.891 120.976 401.806 121.461 401.806 122.048C401.806 122.571 401.907 123.019 402.11 123.392C402.323 123.765 402.606 124.053 402.958 124.256C403.32 124.448 403.72 124.544 404.158 124.544C404.638 124.544 405.032 124.437 405.342 124.224C405.651 124 405.891 123.717 406.062 123.376L407.71 124.08C407.486 124.507 407.198 124.88 406.846 125.2C406.504 125.52 406.094 125.765 405.614 125.936C405.144 126.107 404.606 126.192 403.998 126.192ZM401.166 122.432V121.008H406.926V122.432H401.166ZM408.207 126L411.487 121.424L413.775 118H415.887L412.767 122.416L410.351 126H408.207ZM413.951 126L411.583 122.416L408.415 118H410.527L412.831 121.424L416.079 126H413.951ZM420.41 126.192C419.568 126.192 418.922 125.984 418.474 125.568C418.037 125.141 417.818 124.533 417.818 123.744V115.504H419.594V123.408C419.594 123.781 419.68 124.064 419.85 124.256C420.032 124.448 420.293 124.544 420.634 124.544C420.741 124.544 420.858 124.523 420.986 124.48C421.114 124.437 421.258 124.357 421.418 124.24L422.074 125.6C421.797 125.792 421.52 125.936 421.242 126.032C420.965 126.139 420.688 126.192 420.41 126.192ZM416.49 119.536V118H421.754V119.536H416.49ZM424.692 121.744C424.692 120.88 424.857 120.171 425.188 119.616C425.518 119.061 425.945 118.651 426.468 118.384C427.001 118.107 427.556 117.968 428.132 117.968V119.68C427.641 119.68 427.177 119.749 426.74 119.888C426.313 120.016 425.966 120.229 425.7 120.528C425.433 120.827 425.3 121.221 425.3 121.712L424.692 121.744ZM423.508 126V118H425.3V126H423.508ZM434.168 126L434.088 124.496V121.888C434.088 121.344 434.029 120.891 433.912 120.528C433.795 120.165 433.608 119.888 433.352 119.696C433.107 119.504 432.781 119.408 432.376 119.408C432.003 119.408 431.672 119.488 431.384 119.648C431.096 119.808 430.856 120.053 430.664 120.384L429.032 119.808C429.213 119.456 429.448 119.125 429.736 118.816C430.024 118.507 430.387 118.261 430.824 118.08C431.272 117.899 431.8 117.808 432.408 117.808C433.187 117.808 433.832 117.952 434.344 118.24C434.867 118.528 435.256 118.955 435.512 119.52C435.768 120.085 435.896 120.784 435.896 121.616L435.848 126H434.168ZM431.896 126.192C430.936 126.192 430.189 125.979 429.656 125.552C429.133 125.125 428.872 124.523 428.872 123.744C428.872 122.912 429.149 122.277 429.704 121.84C430.269 121.403 431.053 121.184 432.056 121.184H434.2V122.56H432.632C431.917 122.56 431.416 122.661 431.128 122.864C430.84 123.056 430.696 123.333 430.696 123.696C430.696 124.005 430.819 124.251 431.064 124.432C431.32 124.603 431.672 124.688 432.12 124.688C432.515 124.688 432.856 124.597 433.144 124.416C433.443 124.224 433.672 123.979 433.832 123.68C434.003 123.371 434.088 123.04 434.088 122.688H434.744C434.744 123.776 434.509 124.635 434.04 125.264C433.581 125.883 432.867 126.192 431.896 126.192ZM441.455 126.192C440.633 126.192 439.908 126.016 439.279 125.664C438.649 125.301 438.153 124.805 437.791 124.176C437.439 123.547 437.263 122.821 437.263 122C437.263 121.179 437.439 120.453 437.791 119.824C438.153 119.195 438.644 118.704 439.263 118.352C439.892 117.989 440.612 117.808 441.423 117.808C442.212 117.808 442.927 118 443.567 118.384C444.207 118.757 444.681 119.296 444.991 120L443.327 120.64C443.156 120.288 442.895 120.005 442.543 119.792C442.191 119.579 441.791 119.472 441.343 119.472C440.905 119.472 440.516 119.584 440.175 119.808C439.833 120.021 439.567 120.32 439.375 120.704C439.183 121.077 439.087 121.509 439.087 122C439.087 122.491 439.183 122.928 439.375 123.312C439.577 123.685 439.849 123.984 440.191 124.208C440.543 124.421 440.937 124.528 441.375 124.528C441.823 124.528 442.223 124.416 442.575 124.192C442.927 123.957 443.188 123.643 443.359 123.248L445.023 123.888C444.713 124.613 444.239 125.179 443.599 125.584C442.969 125.989 442.255 126.192 441.455 126.192ZM449.598 126.192C448.755 126.192 448.11 125.984 447.662 125.568C447.225 125.141 447.006 124.533 447.006 123.744V115.504H448.782V123.408C448.782 123.781 448.867 124.064 449.038 124.256C449.219 124.448 449.481 124.544 449.822 124.544C449.929 124.544 450.046 124.523 450.174 124.48C450.302 124.437 450.446 124.357 450.606 124.24L451.262 125.6C450.985 125.792 450.707 125.936 450.43 126.032C450.153 126.139 449.875 126.192 449.598 126.192ZM445.678 119.536V118H450.942V119.536H445.678ZM455.607 126.192C455.074 126.192 454.583 126.112 454.135 125.952C453.687 125.792 453.303 125.568 452.983 125.28C452.663 124.981 452.418 124.635 452.247 124.24L453.799 123.552C453.959 123.851 454.194 124.101 454.503 124.304C454.823 124.507 455.175 124.608 455.559 124.608C455.975 124.608 456.306 124.539 456.551 124.4C456.807 124.251 456.935 124.048 456.935 123.792C456.935 123.547 456.839 123.36 456.647 123.232C456.455 123.093 456.183 122.981 455.831 122.896L455.079 122.688C454.322 122.496 453.73 122.192 453.303 121.776C452.876 121.349 452.663 120.864 452.663 120.32C452.663 119.52 452.919 118.901 453.431 118.464C453.954 118.027 454.7 117.808 455.671 117.808C456.162 117.808 456.61 117.883 457.015 118.032C457.431 118.171 457.788 118.373 458.087 118.64C458.386 118.896 458.594 119.2 458.711 119.552L457.223 120.224C457.116 119.957 456.914 119.755 456.615 119.616C456.316 119.467 455.986 119.392 455.623 119.392C455.26 119.392 454.978 119.472 454.775 119.632C454.572 119.781 454.471 119.995 454.471 120.272C454.471 120.432 454.562 120.581 454.743 120.72C454.924 120.848 455.186 120.955 455.527 121.04L456.471 121.264C456.994 121.392 457.42 121.595 457.751 121.872C458.082 122.139 458.327 122.443 458.487 122.784C458.647 123.115 458.727 123.451 458.727 123.792C458.727 124.272 458.588 124.693 458.311 125.056C458.044 125.419 457.676 125.701 457.207 125.904C456.738 126.096 456.204 126.192 455.607 126.192Z" fill="#380037"/>
<defs>
<linearGradient id="paint0_linear_1873_303" x1="114.664" y1="29.3346" x2="114.664" y2="210.668" gradientUnits="userSpaceOnUse">
<stop stop-color="#CCCCCC" stop-opacity="0"/>
<stop offset="1" stop-color="#CCCCCC"/>
</linearGradient>
</defs>
</svg>
