<svg width="480" height="240" viewBox="0 0 480 240" fill="none" xmlns="http://www.w3.org/2000/svg">
<g clip-path="url(#clip0_1873_329)">
<mask id="path-1-outside-1_1873_329" maskUnits="userSpaceOnUse" x="0" y="56" width="192" height="176" fill="black">
<rect fill="white" y="56" width="192" height="176"/>
<path fill-rule="evenodd" clip-rule="evenodd" d="M8 80C8 71.1634 15.1634 64 24 64H48H136C144.837 64 152 71.1634 152 80V192H184V208C184 216.837 176.837 224 168 224H152H56C47.1634 224 40 216.837 40 208V96H8V80Z"/>
</mask>
<path fill-rule="evenodd" clip-rule="evenodd" d="M8 80C8 71.1634 15.1634 64 24 64H48H136C144.837 64 152 71.1634 152 80V192H184V208C184 216.837 176.837 224 168 224H152H56C47.1634 224 40 216.837 40 208V96H8V80Z" fill="white"/>
<path d="M152 192H144C144 196.418 147.582 200 152 200V192ZM184 192H192C192 187.582 188.418 184 184 184V192ZM40 96H48C48 91.5817 44.4183 88 40 88V96ZM8 96H0C0 100.418 3.58172 104 8 104L8 96ZM24 56C10.7452 56 0 66.7452 0 80H16C16 75.5817 19.5817 72 24 72V56ZM48 56H24V72H48V56ZM136 56H48V72H136V56ZM160 80C160 66.7452 149.255 56 136 56V72C140.418 72 144 75.5817 144 80H160ZM160 192V80H144V192H160ZM152 200H184V184H152V200ZM176 192V208H192V192H176ZM176 208C176 212.418 172.418 216 168 216V232C181.255 232 192 221.255 192 208H176ZM168 216H152V232H168V216ZM152 216H56V232H152V216ZM32 208C32 221.255 42.7452 232 56 232V216C51.5817 216 48 212.418 48 208H32ZM32 96V208H48V96H32ZM8 104H40V88H8V104ZM0 80V96H16V80H0Z" fill="#007FB4" mask="url(#path-1-outside-1_1873_329)"/>
<path d="M8 80C8 71.1634 15.1634 64 24 64H48V96H8V80Z" fill="#D2E5F4"/>
<path d="M24 64H136C144.837 64 152 71.1634 152 80V224H56C47.1634 224 40 216.837 40 208V80.02C40 71.494 33.3144 64.4657 24.799 64.04L24 64Z" fill="white"/>
<path d="M24 64H136C144.837 64 152 71.1634 152 80V224H56C47.1634 224 40 216.837 40 208V80.02C40 71.494 33.3144 64.4657 24.799 64.04L24 64Z" fill="url(#paint0_linear_1873_329)" fill-opacity="0.16"/>
<path d="M72 192H184V208C184 216.837 176.837 224 168 224H56L56.799 223.96C65.3144 223.534 72 216.506 72 207.98V192Z" fill="#D2E5F4"/>
<rect x="64" y="88" width="32" height="8" rx="4" fill="#D2E5F4"/>
<rect x="64" y="104" width="48" height="8" rx="4" fill="#D2E5F4"/>
<rect x="64" y="156" width="64" height="8" rx="4" fill="#D2E5F4"/>
<rect x="64" y="172" width="48" height="8" rx="4" fill="#D2E5F4"/>
<rect x="60" y="124" width="72" height="24" rx="8" fill="#E5F2FF"/>
<rect x="65.5" y="121.5" width="69" height="21" rx="6.5" fill="#FFEBF7" stroke="#FFADF3" stroke-width="3"/>
<rect x="73" y="129" width="46" height="6" rx="2" fill="#E08FD5" stroke="#6D2C69" stroke-width="2"/>
<mask id="path-13-outside-2_1873_329" maskUnits="userSpaceOnUse" x="288" y="56" width="192" height="176" fill="black">
<rect fill="white" x="288" y="56" width="192" height="176"/>
<path fill-rule="evenodd" clip-rule="evenodd" d="M296 80C296 71.1634 303.163 64 312 64H336H424C432.837 64 440 71.1634 440 80V192H472V208C472 216.837 464.837 224 456 224H440H344C335.163 224 328 216.837 328 208V96H296V80Z"/>
</mask>
<path fill-rule="evenodd" clip-rule="evenodd" d="M296 80C296 71.1634 303.163 64 312 64H336H424C432.837 64 440 71.1634 440 80V192H472V208C472 216.837 464.837 224 456 224H440H344C335.163 224 328 216.837 328 208V96H296V80Z" fill="white"/>
<path d="M440 192H432C432 196.418 435.582 200 440 200V192ZM472 192H480C480 187.582 476.418 184 472 184V192ZM328 96H336C336 91.5817 332.418 88 328 88V96ZM296 96H288C288 100.418 291.582 104 296 104V96ZM312 56C298.745 56 288 66.7452 288 80H304C304 75.5817 307.582 72 312 72V56ZM336 56H312V72H336V56ZM424 56H336V72H424V56ZM448 80C448 66.7452 437.255 56 424 56V72C428.418 72 432 75.5817 432 80H448ZM448 192V80H432V192H448ZM440 200H472V184H440V200ZM464 192V208H480V192H464ZM464 208C464 212.418 460.418 216 456 216V232C469.255 232 480 221.255 480 208H464ZM456 216H440V232H456V216ZM440 216H344V232H440V216ZM320 208C320 221.255 330.745 232 344 232V216C339.582 216 336 212.418 336 208H320ZM320 96V208H336V96H320ZM296 104H328V88H296V104ZM288 80V96H304V80H288Z" fill="#8C4585" mask="url(#path-13-outside-2_1873_329)"/>
<path d="M296 80C296 71.1634 303.163 64 312 64H336V96H296V80Z" fill="#FFD6F5"/>
<path d="M312 64H424C432.837 64 440 71.1634 440 80V224H344C335.163 224 328 216.837 328 208V80.02C328 71.494 321.314 64.4657 312.799 64.04L312 64Z" fill="white"/>
<path d="M312 64H424C432.837 64 440 71.1634 440 80V224H344C335.163 224 328 216.837 328 208V80.02C328 71.494 321.314 64.4657 312.799 64.04L312 64Z" fill="url(#paint1_linear_1873_329)" fill-opacity="0.16"/>
<path d="M360 192H472V208C472 216.837 464.837 224 456 224H344L344.799 223.96C353.314 223.534 360 216.506 360 207.98V192Z" fill="#FFD6F5"/>
<rect x="350" y="86" width="32" height="8" rx="3" fill="#8C4585" fill-opacity="0.16"/>
<rect x="362" y="98" width="40" height="8" rx="3" fill="#8C4585" fill-opacity="0.16"/>
<rect x="362" y="110" width="40" height="8" rx="3" fill="#8C4585" fill-opacity="0.16"/>
<rect x="350" y="122" width="24" height="8" rx="3" fill="#8C4585" fill-opacity="0.16"/>
<rect x="350" y="134" width="32" height="8" rx="3" fill="#8C4585" fill-opacity="0.16"/>
<rect x="362" y="146" width="32" height="8" rx="3" fill="#8C4585" fill-opacity="0.16"/>
<rect x="362" y="158" width="40" height="8" rx="3" fill="#8C4585" fill-opacity="0.16"/>
<rect x="350" y="170" width="24" height="8" rx="3" fill="#8C4585" fill-opacity="0.16"/>
<rect x="353" y="85" width="30" height="6" rx="2" fill="#E08FD5" stroke="#6D2C69" stroke-width="2"/>
<rect x="365" y="97" width="38" height="6" rx="2" fill="#E08FD5" stroke="#6D2C69" stroke-width="2"/>
<rect x="365" y="109" width="38" height="6" rx="2" fill="#E08FD5" stroke="#6D2C69" stroke-width="2"/>
<rect x="353" y="121" width="22" height="6" rx="2" fill="#E08FD5" stroke="#6D2C69" stroke-width="2"/>
<rect x="353" y="133" width="30" height="6" rx="2" fill="#E08FD5" stroke="#6D2C69" stroke-width="2"/>
<rect x="365" y="145" width="30" height="6" rx="2" fill="#E08FD5" stroke="#6D2C69" stroke-width="2"/>
<rect x="365" y="157" width="38" height="6" rx="2" fill="#E08FD5" stroke="#6D2C69" stroke-width="2"/>
<rect x="353" y="169" width="22" height="6" rx="2" fill="#E08FD5" stroke="#6D2C69" stroke-width="2"/>
<rect x="47.5" y="1.5" width="81" height="41" rx="20.5" fill="#E5F2FF"/>
<rect x="47.5" y="1.5" width="81" height="41" rx="20.5" stroke="#87CEFF" stroke-width="3"/>
<path d="M71.84 28L71.76 26.496V23.888C71.76 23.344 71.7013 22.8907 71.584 22.528C71.4667 22.1653 71.28 21.888 71.024 21.696C70.7787 21.504 70.4533 21.408 70.048 21.408C69.6747 21.408 69.344 21.488 69.056 21.648C68.768 21.808 68.528 22.0533 68.336 22.384L66.704 21.808C66.8853 21.456 67.12 21.1253 67.408 20.816C67.696 20.5067 68.0587 20.2613 68.496 20.08C68.944 19.8987 69.472 19.808 70.08 19.808C70.8587 19.808 71.504 19.952 72.016 20.24C72.5387 20.528 72.928 20.9547 73.184 21.52C73.44 22.0853 73.568 22.784 73.568 23.616L73.52 28H71.84ZM69.568 28.192C68.608 28.192 67.8613 27.9787 67.328 27.552C66.8053 27.1253 66.544 26.5227 66.544 25.744C66.544 24.912 66.8213 24.2773 67.376 23.84C67.9413 23.4027 68.7253 23.184 69.728 23.184H71.872V24.56H70.304C69.5893 24.56 69.088 24.6613 68.8 24.864C68.512 25.056 68.368 25.3333 68.368 25.696C68.368 26.0053 68.4907 26.2507 68.736 26.432C68.992 26.6027 69.344 26.688 69.792 26.688C70.1867 26.688 70.528 26.5973 70.816 26.416C71.1147 26.224 71.344 25.9787 71.504 25.68C71.6747 25.3707 71.76 25.04 71.76 24.688H72.416C72.416 25.776 72.1813 26.6347 71.712 27.264C71.2533 27.8827 70.5387 28.192 69.568 28.192ZM75.4626 31.2V20H77.1426L77.2546 21.472V31.2H75.4626ZM79.7826 28.192C79.1106 28.192 78.5293 28.0213 78.0386 27.68C77.5586 27.328 77.1906 26.8373 76.9346 26.208C76.6786 25.5787 76.5506 24.8427 76.5506 24C76.5506 23.1467 76.6786 22.4107 76.9346 21.792C77.1906 21.1627 77.5586 20.6773 78.0386 20.336C78.5293 19.984 79.1106 19.808 79.7826 19.808C80.508 19.808 81.1373 19.984 81.6706 20.336C82.2146 20.6773 82.636 21.1627 82.9346 21.792C83.244 22.4107 83.3986 23.1467 83.3986 24C83.3986 24.8427 83.244 25.5787 82.9346 26.208C82.636 26.8373 82.2146 27.328 81.6706 27.68C81.1373 28.0213 80.508 28.192 79.7826 28.192ZM79.3346 26.56C79.7613 26.56 80.14 26.4533 80.4706 26.24C80.8013 26.016 81.0626 25.712 81.2546 25.328C81.4573 24.944 81.5586 24.5013 81.5586 24C81.5586 23.4987 81.4626 23.056 81.2706 22.672C81.0893 22.288 80.8333 21.9893 80.5026 21.776C80.172 21.5627 79.788 21.456 79.3506 21.456C78.9453 21.456 78.5826 21.5627 78.2626 21.776C77.9426 21.9893 77.692 22.288 77.5106 22.672C77.34 23.056 77.2546 23.4987 77.2546 24C77.2546 24.5013 77.34 24.944 77.5106 25.328C77.692 25.712 77.9373 26.016 78.2466 26.24C78.5666 26.4533 78.9293 26.56 79.3346 26.56ZM85.0095 31.2V20H86.6895L86.8015 21.472V31.2H85.0095ZM89.3295 28.192C88.6575 28.192 88.0762 28.0213 87.5855 27.68C87.1055 27.328 86.7375 26.8373 86.4815 26.208C86.2255 25.5787 86.0975 24.8427 86.0975 24C86.0975 23.1467 86.2255 22.4107 86.4815 21.792C86.7375 21.1627 87.1055 20.6773 87.5855 20.336C88.0762 19.984 88.6575 19.808 89.3295 19.808C90.0548 19.808 90.6842 19.984 91.2175 20.336C91.7615 20.6773 92.1828 21.1627 92.4815 21.792C92.7908 22.4107 92.9455 23.1467 92.9455 24C92.9455 24.8427 92.7908 25.5787 92.4815 26.208C92.1828 26.8373 91.7615 27.328 91.2175 27.68C90.6842 28.0213 90.0548 28.192 89.3295 28.192ZM88.8815 26.56C89.3082 26.56 89.6868 26.4533 90.0175 26.24C90.3482 26.016 90.6095 25.712 90.8015 25.328C91.0042 24.944 91.1055 24.5013 91.1055 24C91.1055 23.4987 91.0095 23.056 90.8175 22.672C90.6362 22.288 90.3802 21.9893 90.0495 21.776C89.7188 21.5627 89.3348 21.456 88.8975 21.456C88.4922 21.456 88.1295 21.5627 87.8095 21.776C87.4895 21.9893 87.2388 22.288 87.0575 22.672C86.8868 23.056 86.8015 23.4987 86.8015 24C86.8015 24.5013 86.8868 24.944 87.0575 25.328C87.2388 25.712 87.4842 26.016 87.7935 26.24C88.1135 26.4533 88.4762 26.56 88.8815 26.56ZM95.3404 28.224C95.031 28.224 94.7644 28.1173 94.5404 27.904C94.327 27.68 94.2204 27.4133 94.2204 27.104C94.2204 26.7947 94.327 26.528 94.5404 26.304C94.7644 26.08 95.031 25.968 95.3404 25.968C95.6497 25.968 95.9164 26.08 96.1404 26.304C96.3644 26.528 96.4764 26.7947 96.4764 27.104C96.4764 27.4133 96.3644 27.68 96.1404 27.904C95.9164 28.1173 95.6497 28.224 95.3404 28.224ZM99.6991 18.512C99.4005 18.512 99.1445 18.4053 98.9311 18.192C98.7285 17.9787 98.6271 17.728 98.6271 17.44C98.6271 17.1413 98.7285 16.8907 98.9311 16.688C99.1445 16.4747 99.4005 16.368 99.6991 16.368C99.9871 16.368 100.238 16.4747 100.451 16.688C100.664 16.8907 100.771 17.1413 100.771 17.44C100.771 17.728 100.664 17.9787 100.451 18.192C100.238 18.4053 99.9871 18.512 99.6991 18.512ZM97.9231 31.44C97.4005 31.44 96.8458 31.2853 96.2591 30.976L96.9791 29.488C97.1711 29.584 97.3471 29.6533 97.5071 29.696C97.6671 29.7493 97.8005 29.776 97.9071 29.776C98.5045 29.776 98.8031 29.392 98.8031 28.624V20H100.579V28.72C100.579 29.5947 100.35 30.2667 99.8911 30.736C99.4431 31.2053 98.7871 31.44 97.9231 31.44ZM105.623 28.192C105.089 28.192 104.599 28.112 104.151 27.952C103.703 27.792 103.319 27.568 102.999 27.28C102.679 26.9813 102.433 26.6347 102.263 26.24L103.815 25.552C103.975 25.8507 104.209 26.1013 104.519 26.304C104.839 26.5067 105.191 26.608 105.575 26.608C105.991 26.608 106.321 26.5387 106.567 26.4C106.823 26.2507 106.951 26.048 106.951 25.792C106.951 25.5467 106.855 25.36 106.663 25.232C106.471 25.0933 106.199 24.9813 105.847 24.896L105.095 24.688C104.337 24.496 103.745 24.192 103.319 23.776C102.892 23.3493 102.679 22.864 102.679 22.32C102.679 21.52 102.935 20.9013 103.447 20.464C103.969 20.0267 104.716 19.808 105.687 19.808C106.177 19.808 106.625 19.8827 107.031 20.032C107.447 20.1707 107.804 20.3733 108.103 20.64C108.401 20.896 108.609 21.2 108.727 21.552L107.239 22.224C107.132 21.9573 106.929 21.7547 106.631 21.616C106.332 21.4667 106.001 21.392 105.639 21.392C105.276 21.392 104.993 21.472 104.791 21.632C104.588 21.7813 104.487 21.9947 104.487 22.272C104.487 22.432 104.577 22.5813 104.759 22.72C104.94 22.848 105.201 22.9547 105.543 23.04L106.487 23.264C107.009 23.392 107.436 23.5947 107.767 23.872C108.097 24.1387 108.343 24.4427 108.503 24.784C108.663 25.1147 108.743 25.4507 108.743 25.792C108.743 26.272 108.604 26.6933 108.327 27.056C108.06 27.4187 107.692 27.7013 107.223 27.904C106.753 28.096 106.22 28.192 105.623 28.192Z" fill="#001E2E"/>
<rect x="306.5" y="1.5" width="140" height="41" rx="20.5" fill="#FFEBF7"/>
<rect x="306.5" y="1.5" width="140" height="41" rx="20.5" stroke="#FFADF3" stroke-width="3"/>
<path d="M328.904 28.192C328.371 28.192 327.88 28.112 327.432 27.952C326.984 27.792 326.6 27.568 326.28 27.28C325.96 26.9813 325.715 26.6347 325.544 26.24L327.096 25.552C327.256 25.8507 327.491 26.1013 327.8 26.304C328.12 26.5067 328.472 26.608 328.856 26.608C329.272 26.608 329.603 26.5387 329.848 26.4C330.104 26.2507 330.232 26.048 330.232 25.792C330.232 25.5467 330.136 25.36 329.944 25.232C329.752 25.0933 329.48 24.9813 329.128 24.896L328.376 24.688C327.619 24.496 327.027 24.192 326.6 23.776C326.173 23.3493 325.96 22.864 325.96 22.32C325.96 21.52 326.216 20.9013 326.728 20.464C327.251 20.0267 327.997 19.808 328.968 19.808C329.459 19.808 329.907 19.8827 330.312 20.032C330.728 20.1707 331.085 20.3733 331.384 20.64C331.683 20.896 331.891 21.2 332.008 21.552L330.52 22.224C330.413 21.9573 330.211 21.7547 329.912 21.616C329.613 21.4667 329.283 21.392 328.92 21.392C328.557 21.392 328.275 21.472 328.072 21.632C327.869 21.7813 327.768 21.9947 327.768 22.272C327.768 22.432 327.859 22.5813 328.04 22.72C328.221 22.848 328.483 22.9547 328.824 23.04L329.768 23.264C330.291 23.392 330.717 23.5947 331.048 23.872C331.379 24.1387 331.624 24.4427 331.784 24.784C331.944 25.1147 332.024 25.4507 332.024 25.792C332.024 26.272 331.885 26.6933 331.608 27.056C331.341 27.4187 330.973 27.7013 330.504 27.904C330.035 28.096 329.501 28.192 328.904 28.192ZM336.629 28.192C335.786 28.192 335.141 27.984 334.693 27.568C334.256 27.1413 334.037 26.5333 334.037 25.744V17.504H335.813V25.408C335.813 25.7813 335.898 26.064 336.069 26.256C336.25 26.448 336.512 26.544 336.853 26.544C336.96 26.544 337.077 26.5227 337.205 26.48C337.333 26.4373 337.477 26.3573 337.637 26.24L338.293 27.6C338.016 27.792 337.738 27.936 337.461 28.032C337.184 28.1387 336.906 28.192 336.629 28.192ZM332.709 21.536V20H337.973V21.536H332.709ZM340.99 31.392C340.734 31.392 340.446 31.344 340.126 31.248C339.817 31.152 339.518 31.0293 339.23 30.88L339.902 29.424C340.105 29.52 340.292 29.5947 340.462 29.648C340.633 29.712 340.772 29.744 340.878 29.744C341.134 29.744 341.348 29.6747 341.518 29.536C341.7 29.408 341.844 29.216 341.95 28.96L342.894 26.752L345.598 20H347.55L343.838 28.848C343.614 29.36 343.385 29.808 343.15 30.192C342.926 30.576 342.644 30.8693 342.302 31.072C341.961 31.2853 341.524 31.392 340.99 31.392ZM342.414 28L338.83 20H340.782L343.566 26.736L344.142 28H342.414ZM348.617 28V16.8H350.409V28H348.617ZM355.966 28.192C355.188 28.192 354.494 28.016 353.886 27.664C353.289 27.3013 352.814 26.8053 352.462 26.176C352.121 25.5467 351.95 24.8213 351.95 24C351.95 23.1787 352.126 22.4533 352.478 21.824C352.83 21.1947 353.31 20.704 353.918 20.352C354.537 19.9893 355.241 19.808 356.03 19.808C356.745 19.808 357.385 19.9947 357.95 20.368C358.526 20.7307 358.985 21.2587 359.326 21.952C359.668 22.6453 359.838 23.472 359.838 24.432H358.03C358.03 23.7387 357.945 23.168 357.774 22.72C357.614 22.272 357.38 21.9413 357.07 21.728C356.772 21.504 356.404 21.392 355.966 21.392C355.508 21.392 355.113 21.4933 354.782 21.696C354.452 21.8987 354.201 22.1973 354.03 22.592C353.86 22.976 353.774 23.4613 353.774 24.048C353.774 24.5707 353.876 25.0187 354.078 25.392C354.292 25.7653 354.574 26.0533 354.926 26.256C355.289 26.448 355.689 26.544 356.126 26.544C356.606 26.544 357.001 26.4373 357.31 26.224C357.62 26 357.86 25.7173 358.03 25.376L359.678 26.08C359.454 26.5067 359.166 26.88 358.814 27.2C358.473 27.52 358.062 27.7653 357.582 27.936C357.113 28.1067 356.574 28.192 355.966 28.192ZM353.134 24.432V23.008H358.894V24.432H353.134ZM364.123 28.192C363.589 28.192 363.099 28.112 362.651 27.952C362.203 27.792 361.819 27.568 361.499 27.28C361.179 26.9813 360.933 26.6347 360.763 26.24L362.315 25.552C362.475 25.8507 362.709 26.1013 363.019 26.304C363.339 26.5067 363.691 26.608 364.075 26.608C364.491 26.608 364.821 26.5387 365.067 26.4C365.323 26.2507 365.451 26.048 365.451 25.792C365.451 25.5467 365.355 25.36 365.163 25.232C364.971 25.0933 364.699 24.9813 364.347 24.896L363.595 24.688C362.837 24.496 362.245 24.192 361.819 23.776C361.392 23.3493 361.179 22.864 361.179 22.32C361.179 21.52 361.435 20.9013 361.947 20.464C362.469 20.0267 363.216 19.808 364.187 19.808C364.677 19.808 365.125 19.8827 365.531 20.032C365.947 20.1707 366.304 20.3733 366.603 20.64C366.901 20.896 367.109 21.2 367.227 21.552L365.739 22.224C365.632 21.9573 365.429 21.7547 365.131 21.616C364.832 21.4667 364.501 21.392 364.139 21.392C363.776 21.392 363.493 21.472 363.291 21.632C363.088 21.7813 362.987 21.9947 362.987 22.272C362.987 22.432 363.077 22.5813 363.259 22.72C363.44 22.848 363.701 22.9547 364.043 23.04L364.987 23.264C365.509 23.392 365.936 23.5947 366.267 23.872C366.597 24.1387 366.843 24.4427 367.003 24.784C367.163 25.1147 367.243 25.4507 367.243 25.792C367.243 26.272 367.104 26.6933 366.827 27.056C366.56 27.4187 366.192 27.7013 365.723 27.904C365.253 28.096 364.72 28.192 364.123 28.192ZM368.68 28L368.664 16.656H370.456L370.472 28H368.68ZM374.104 28V23.904L375.896 23.424V28H374.104ZM374.104 23.904C374.104 23.264 374.029 22.7733 373.88 22.432C373.731 22.08 373.523 21.8347 373.256 21.696C373 21.5573 372.701 21.488 372.36 21.488C371.752 21.4773 371.283 21.6747 370.952 22.08C370.632 22.4853 370.472 23.0667 370.472 23.824H369.784C369.784 22.9813 369.907 22.2613 370.152 21.664C370.408 21.056 370.765 20.5973 371.224 20.288C371.683 19.968 372.227 19.808 372.856 19.808C373.816 19.808 374.563 20.1067 375.096 20.704C375.629 21.2907 375.896 22.1973 375.896 23.424L374.104 23.904ZM381.279 28.192C380.5 28.192 379.807 28.016 379.199 27.664C378.601 27.3013 378.127 26.8053 377.775 26.176C377.433 25.5467 377.263 24.8213 377.263 24C377.263 23.1787 377.439 22.4533 377.791 21.824C378.143 21.1947 378.623 20.704 379.231 20.352C379.849 19.9893 380.553 19.808 381.343 19.808C382.057 19.808 382.697 19.9947 383.263 20.368C383.839 20.7307 384.297 21.2587 384.639 21.952C384.98 22.6453 385.151 23.472 385.151 24.432H383.343C383.343 23.7387 383.257 23.168 383.087 22.72C382.927 22.272 382.692 21.9413 382.383 21.728C382.084 21.504 381.716 21.392 381.279 21.392C380.82 21.392 380.425 21.4933 380.095 21.696C379.764 21.8987 379.513 22.1973 379.343 22.592C379.172 22.976 379.087 23.4613 379.087 24.048C379.087 24.5707 379.188 25.0187 379.391 25.392C379.604 25.7653 379.887 26.0533 380.239 26.256C380.601 26.448 381.001 26.544 381.439 26.544C381.919 26.544 382.313 26.4373 382.623 26.224C382.932 26 383.172 25.7173 383.343 25.376L384.991 26.08C384.767 26.5067 384.479 26.88 384.127 27.2C383.785 27.52 383.375 27.7653 382.895 27.936C382.425 28.1067 381.887 28.192 381.279 28.192ZM378.447 24.432V23.008H384.207V24.432H378.447ZM390.091 28.192C389.313 28.192 388.619 28.016 388.011 27.664C387.414 27.3013 386.939 26.8053 386.587 26.176C386.246 25.5467 386.075 24.8213 386.075 24C386.075 23.1787 386.251 22.4533 386.603 21.824C386.955 21.1947 387.435 20.704 388.043 20.352C388.662 19.9893 389.366 19.808 390.155 19.808C390.87 19.808 391.51 19.9947 392.075 20.368C392.651 20.7307 393.11 21.2587 393.451 21.952C393.793 22.6453 393.963 23.472 393.963 24.432H392.155C392.155 23.7387 392.07 23.168 391.899 22.72C391.739 22.272 391.505 21.9413 391.195 21.728C390.897 21.504 390.529 21.392 390.091 21.392C389.633 21.392 389.238 21.4933 388.907 21.696C388.577 21.8987 388.326 22.1973 388.155 22.592C387.985 22.976 387.899 23.4613 387.899 24.048C387.899 24.5707 388.001 25.0187 388.203 25.392C388.417 25.7653 388.699 26.0533 389.051 26.256C389.414 26.448 389.814 26.544 390.251 26.544C390.731 26.544 391.126 26.4373 391.435 26.224C391.745 26 391.985 25.7173 392.155 25.376L393.803 26.08C393.579 26.5067 393.291 26.88 392.939 27.2C392.598 27.52 392.187 27.7653 391.707 27.936C391.238 28.1067 390.699 28.192 390.091 28.192ZM387.259 24.432V23.008H393.019V24.432H387.259ZM398.52 28.192C397.677 28.192 397.032 27.984 396.584 27.568C396.146 27.1413 395.928 26.5333 395.928 25.744V17.504H397.704V25.408C397.704 25.7813 397.789 26.064 397.96 26.256C398.141 26.448 398.402 26.544 398.744 26.544C398.85 26.544 398.968 26.5227 399.096 26.48C399.224 26.4373 399.368 26.3573 399.528 26.24L400.184 27.6C399.906 27.792 399.629 27.936 399.352 28.032C399.074 28.1387 398.797 28.192 398.52 28.192ZM394.6 21.536V20H399.864V21.536H394.6ZM402.481 28.224C402.172 28.224 401.905 28.1173 401.681 27.904C401.468 27.68 401.361 27.4133 401.361 27.104C401.361 26.7947 401.468 26.528 401.681 26.304C401.905 26.08 402.172 25.968 402.481 25.968C402.79 25.968 403.057 26.08 403.281 26.304C403.505 26.528 403.617 26.7947 403.617 27.104C403.617 27.4133 403.505 27.68 403.281 27.904C403.057 28.1173 402.79 28.224 402.481 28.224ZM409.08 28.192C408.258 28.192 407.533 28.016 406.904 27.664C406.274 27.3013 405.778 26.8053 405.416 26.176C405.064 25.5467 404.888 24.8213 404.888 24C404.888 23.1787 405.064 22.4533 405.416 21.824C405.778 21.1947 406.269 20.704 406.888 20.352C407.517 19.9893 408.237 19.808 409.048 19.808C409.837 19.808 410.552 20 411.192 20.384C411.832 20.7573 412.306 21.296 412.616 22L410.952 22.64C410.781 22.288 410.52 22.0053 410.168 21.792C409.816 21.5787 409.416 21.472 408.968 21.472C408.53 21.472 408.141 21.584 407.8 21.808C407.458 22.0213 407.192 22.32 407 22.704C406.808 23.0773 406.712 23.5093 406.712 24C406.712 24.4907 406.808 24.928 407 25.312C407.202 25.6853 407.474 25.984 407.816 26.208C408.168 26.4213 408.562 26.528 409 26.528C409.448 26.528 409.848 26.416 410.2 26.192C410.552 25.9573 410.813 25.6427 410.984 25.248L412.648 25.888C412.338 26.6133 411.864 27.1787 411.224 27.584C410.594 27.9893 409.88 28.192 409.08 28.192ZM416.951 28.192C416.418 28.192 415.927 28.112 415.479 27.952C415.031 27.792 414.647 27.568 414.327 27.28C414.007 26.9813 413.762 26.6347 413.591 26.24L415.143 25.552C415.303 25.8507 415.538 26.1013 415.847 26.304C416.167 26.5067 416.519 26.608 416.903 26.608C417.319 26.608 417.65 26.5387 417.895 26.4C418.151 26.2507 418.279 26.048 418.279 25.792C418.279 25.5467 418.183 25.36 417.991 25.232C417.799 25.0933 417.527 24.9813 417.175 24.896L416.423 24.688C415.666 24.496 415.074 24.192 414.647 23.776C414.22 23.3493 414.007 22.864 414.007 22.32C414.007 21.52 414.263 20.9013 414.775 20.464C415.298 20.0267 416.044 19.808 417.015 19.808C417.506 19.808 417.954 19.8827 418.359 20.032C418.775 20.1707 419.132 20.3733 419.431 20.64C419.73 20.896 419.938 21.2 420.055 21.552L418.567 22.224C418.46 21.9573 418.258 21.7547 417.959 21.616C417.66 21.4667 417.33 21.392 416.967 21.392C416.604 21.392 416.322 21.472 416.119 21.632C415.916 21.7813 415.815 21.9947 415.815 22.272C415.815 22.432 415.906 22.5813 416.087 22.72C416.268 22.848 416.53 22.9547 416.871 23.04L417.815 23.264C418.338 23.392 418.764 23.5947 419.095 23.872C419.426 24.1387 419.671 24.4427 419.831 24.784C419.991 25.1147 420.071 25.4507 420.071 25.792C420.071 26.272 419.932 26.6933 419.655 27.056C419.388 27.4187 419.02 27.7013 418.551 27.904C418.082 28.096 417.548 28.192 416.951 28.192ZM424.388 28.192C423.855 28.192 423.364 28.112 422.916 27.952C422.468 27.792 422.084 27.568 421.764 27.28C421.444 26.9813 421.199 26.6347 421.028 26.24L422.58 25.552C422.74 25.8507 422.975 26.1013 423.284 26.304C423.604 26.5067 423.956 26.608 424.34 26.608C424.756 26.608 425.087 26.5387 425.332 26.4C425.588 26.2507 425.716 26.048 425.716 25.792C425.716 25.5467 425.62 25.36 425.428 25.232C425.236 25.0933 424.964 24.9813 424.612 24.896L423.86 24.688C423.103 24.496 422.511 24.192 422.084 23.776C421.658 23.3493 421.444 22.864 421.444 22.32C421.444 21.52 421.7 20.9013 422.212 20.464C422.735 20.0267 423.482 19.808 424.452 19.808C424.943 19.808 425.391 19.8827 425.796 20.032C426.212 20.1707 426.57 20.3733 426.868 20.64C427.167 20.896 427.375 21.2 427.492 21.552L426.004 22.224C425.898 21.9573 425.695 21.7547 425.396 21.616C425.098 21.4667 424.767 21.392 424.404 21.392C424.042 21.392 423.759 21.472 423.556 21.632C423.354 21.7813 423.252 21.9947 423.252 22.272C423.252 22.432 423.343 22.5813 423.524 22.72C423.706 22.848 423.967 22.9547 424.308 23.04L425.252 23.264C425.775 23.392 426.202 23.5947 426.532 23.872C426.863 24.1387 427.108 24.4427 427.268 24.784C427.428 25.1147 427.508 25.4507 427.508 25.792C427.508 26.272 427.37 26.6933 427.092 27.056C426.826 27.4187 426.458 27.7013 425.988 27.904C425.519 28.096 424.986 28.192 424.388 28.192Z" fill="#380037"/>
<path d="M136 132.5H197C210.255 132.5 221 121.755 221 108.5V46.5C221 33.2452 231.745 22.5 245 22.5H306" stroke="#FFADF3" stroke-width="3"/>
</g>
<defs>
<linearGradient id="paint0_linear_1873_329" x1="90.6636" y1="53.3346" x2="90.6636" y2="234.668" gradientUnits="userSpaceOnUse">
<stop stop-color="#CCCCCC" stop-opacity="0"/>
<stop offset="1" stop-color="#CCCCCC"/>
</linearGradient>
<linearGradient id="paint1_linear_1873_329" x1="378.664" y1="53.3346" x2="378.664" y2="234.668" gradientUnits="userSpaceOnUse">
<stop stop-color="#E08FD5" stop-opacity="0"/>
<stop offset="1" stop-color="#E08FD5"/>
</linearGradient>
<clipPath id="clip0_1873_329">
<rect width="480" height="240" fill="white"/>
</clipPath>
</defs>
</svg>
