<svg width="196" height="153" viewBox="0 0 196 153" fill="none" xmlns="http://www.w3.org/2000/svg">
<path d="M1.92 142.72C10.88 133.333 17.92 124.587 23.04 116.48C28.16 108.373 30.72 101.76 30.72 96.64C30.72 93.6533 29.6533 90.88 27.52 88.32C25.8133 85.76 23.04 82.9867 19.2 80C13.2267 75.3067 8.53333 70.4 5.12 65.28C1.70667 60.16 0 53.3333 0 44.8C0 31.5733 4.05333 20.9067 12.16 12.8C20.2667 4.26666 30.5067 0 42.88 0C56.1067 0 66.7733 4.26666 74.88 12.8C83.4133 20.9067 87.68 31.5733 87.68 44.8C87.68 61.44 80.64 79.7867 66.56 99.84C52.9067 119.467 34.56 136.96 11.52 152.32L1.92 142.72Z" fill="#607090"/>
<path d="M110.08 142.72C119.04 133.333 126.08 124.587 131.2 116.48C136.32 108.373 138.88 101.76 138.88 96.64C138.88 93.6533 137.813 90.88 135.68 88.32C133.973 85.76 131.2 82.9867 127.36 80C121.387 75.3067 116.693 70.4 113.28 65.28C109.867 60.16 108.16 53.3333 108.16 44.8C108.16 31.5733 112.213 20.9067 120.32 12.8C128.427 4.26666 138.667 0 151.04 0C164.267 0 174.933 4.26666 183.04 12.8C191.573 20.9067 195.84 31.5733 195.84 44.8C195.84 61.44 188.8 79.7867 174.72 99.84C161.067 119.467 142.72 136.96 119.68 152.32L110.08 142.72Z" fill="#607090"/>
</svg>
