<svg width="20" height="10" viewBox="0 0 20 10" fill="none" xmlns="http://www.w3.org/2000/svg">
<path fill-rule="evenodd" clip-rule="evenodd" d="M9 1C9 0.447715 8.55229 0 8 0H5C2.23858 0 0 2.23858 0 5C0 7.76142 2.23858 10 5 10H8C8.55229 10 9 9.55229 9 9C9 8.44771 8.55228 8 8 8H5C3.34315 8 2 6.65685 2 5C2 3.34315 3.34315 2 5 2H8C8.55229 2 9 1.55228 9 1ZM11 1C11 0.447715 11.4477 0 12 0H15C17.7614 0 20 2.23858 20 5C20 7.76142 17.7614 10 15 10H12C11.4477 10 11 9.55229 11 9C11 8.44771 11.4477 8 12 8H15C16.6569 8 18 6.65685 18 5C18 3.34315 16.6569 2 15 2H12C11.4477 2 11 1.55228 11 1ZM6 4C5.44772 4 5 4.44772 5 5C5 5.55228 5.44772 6 6 6H14C14.5523 6 15 5.55228 15 5C15 4.44772 14.5523 4 14 4H6Z" fill="#94CEDB"/>
</svg>
