<svg width="699" height="496" viewBox="0 0 699 496" fill="none" xmlns="http://www.w3.org/2000/svg">
<g filter="url(#filter0_d)">
<mask id="path-1-inside-1" fill="white">
<path fill-rule="evenodd" clip-rule="evenodd" d="M571 45H176V285H571V45ZM200 77C204.418 77 208 73.4183 208 69C208 64.5817 204.418 61 200 61C195.582 61 192 64.5817 192 69C192 73.4183 195.582 77 200 77ZM547 77C551.418 77 555 73.4183 555 69C555 64.5817 551.418 61 547 61C542.582 61 539 64.5817 539 69C539 73.4183 542.582 77 547 77ZM397 269C392.582 269 389 265.418 389 261C389 256.582 392.582 253 397 253C401.418 253 405 256.582 405 261C405 265.418 401.418 269 397 269Z"/>
</mask>
<path fill-rule="evenodd" clip-rule="evenodd" d="M571 45H176V285H571V45ZM200 77C204.418 77 208 73.4183 208 69C208 64.5817 204.418 61 200 61C195.582 61 192 64.5817 192 69C192 73.4183 195.582 77 200 77ZM547 77C551.418 77 555 73.4183 555 69C555 64.5817 551.418 61 547 61C542.582 61 539 64.5817 539 69C539 73.4183 542.582 77 547 77ZM397 269C392.582 269 389 265.418 389 261C389 256.582 392.582 253 397 253C401.418 253 405 256.582 405 261C405 265.418 401.418 269 397 269Z" fill="#99DBFF"/>
<path d="M176 45V43H174V45H176ZM571 45H573V43H571V45ZM176 285H174V287H176V285ZM571 285V287H573V285H571ZM176 47H571V43H176V47ZM178 285V45H174V285H178ZM571 283H176V287H571V283ZM569 45V285H573V45H569ZM206 69C206 72.3137 203.314 75 200 75V79C205.523 79 210 74.5228 210 69H206ZM200 63C203.314 63 206 65.6863 206 69H210C210 63.4772 205.523 59 200 59V63ZM194 69C194 65.6863 196.686 63 200 63V59C194.477 59 190 63.4772 190 69H194ZM200 75C196.686 75 194 72.3137 194 69H190C190 74.5228 194.477 79 200 79V75ZM553 69C553 72.3137 550.314 75 547 75V79C552.523 79 557 74.5228 557 69H553ZM547 63C550.314 63 553 65.6863 553 69H557C557 63.4772 552.523 59 547 59V63ZM541 69C541 65.6863 543.686 63 547 63V59C541.477 59 537 63.4772 537 69H541ZM547 75C543.686 75 541 72.3137 541 69H537C537 74.5228 541.477 79 547 79V75ZM387 261C387 266.523 391.477 271 397 271V267C393.686 267 391 264.314 391 261H387ZM397 251C391.477 251 387 255.477 387 261H391C391 257.686 393.686 255 397 255V251ZM407 261C407 255.477 402.523 251 397 251V255C400.314 255 403 257.686 403 261H407ZM397 271C402.523 271 407 266.523 407 261H403C403 264.314 400.314 267 397 267V271Z" fill="black" mask="url(#path-1-inside-1)"/>
<path d="M274.857 75.8379L280.619 78.0254V80.3984L272.445 76.7559V74.8711L280.619 71.2383V73.6113L274.857 75.8379ZM291.41 78.6895H285.902L284.75 82H282.182L287.553 67.7812H289.77L295.15 82H292.572L291.41 78.6895ZM286.596 76.6973H290.717L288.656 70.7988L286.596 76.6973ZM305.326 76.8242C305.326 78.4583 304.955 79.7637 304.213 80.7402C303.471 81.7103 302.475 82.1953 301.225 82.1953C300.066 82.1953 299.138 81.8145 298.441 81.0527V86.0625H296.068V71.4336H298.256L298.354 72.5078C299.05 71.6615 299.997 71.2383 301.195 71.2383C302.484 71.2383 303.493 71.7201 304.223 72.6836C304.958 73.6406 305.326 74.972 305.326 76.6777V76.8242ZM302.963 76.6191C302.963 75.5645 302.751 74.7279 302.328 74.1094C301.911 73.4909 301.312 73.1816 300.531 73.1816C299.561 73.1816 298.865 73.582 298.441 74.3828V79.0703C298.871 79.8906 299.574 80.3008 300.551 80.3008C301.306 80.3008 301.895 79.998 302.318 79.3926C302.748 78.7806 302.963 77.8561 302.963 76.6191ZM316.596 76.8242C316.596 78.4583 316.225 79.7637 315.482 80.7402C314.74 81.7103 313.744 82.1953 312.494 82.1953C311.335 82.1953 310.408 81.8145 309.711 81.0527V86.0625H307.338V71.4336H309.525L309.623 72.5078C310.32 71.6615 311.267 71.2383 312.465 71.2383C313.754 71.2383 314.763 71.7201 315.492 72.6836C316.228 73.6406 316.596 74.972 316.596 76.6777V76.8242ZM314.232 76.6191C314.232 75.5645 314.021 74.7279 313.598 74.1094C313.181 73.4909 312.582 73.1816 311.801 73.1816C310.831 73.1816 310.134 73.582 309.711 74.3828V79.0703C310.141 79.8906 310.844 80.3008 311.82 80.3008C312.576 80.3008 313.165 79.998 313.588 79.3926C314.018 78.7806 314.232 77.8561 314.232 76.6191ZM319.281 83.2207H317.416L323.012 67.7812H324.877L319.281 83.2207ZM332.592 75.7891L326.557 73.5723V71.2383L334.994 74.8711V76.7559L326.557 80.3887V78.0547L332.592 75.7891Z" fill="black"/>
</g>
<g filter="url(#filter1_d)">
<path d="M93.7071 357.707L139.293 403.293C139.746 403.746 140 404.36 140 405C140 405.64 139.746 406.254 139.293 406.707L93.7071 452.293C93.2544 452.746 92.6403 453 92 453C91.3597 453 90.7456 452.746 90.2929 452.293L44.7071 406.707C44.2544 406.254 44 405.64 44 405C44 404.36 44.2544 403.746 44.7071 403.293L90.2929 357.707C90.7456 357.254 91.3597 357 92 357C92.6403 357 93.2544 357.254 93.7071 357.707Z" fill="white"/>
<path d="M93 358.414L138.586 404C138.851 404.265 139 404.625 139 405C139 405.375 138.851 405.735 138.586 406L93 451.586C92.7348 451.851 92.3751 452 92 452C91.6249 452 91.2652 451.851 91 451.586L45.4142 406C45.149 405.735 45 405.375 45 405C45 404.625 45.149 404.265 45.4142 404L91 358.414C91.2652 358.149 91.6249 358 92 358C92.3751 358 92.7348 358.149 93 358.414Z" stroke="black" stroke-width="2"/>
</g>
<path d="M85.8682 384.047V390.603C85.8682 391.692 85.5264 392.553 84.8428 393.187C84.1637 393.82 83.234 394.137 82.0537 394.137C80.8916 394.137 79.9687 393.829 79.2852 393.214C78.6016 392.599 78.2529 391.753 78.2393 390.678V384.047H80.29V390.616C80.29 391.268 80.445 391.744 80.7549 392.045C81.0693 392.341 81.5023 392.489 82.0537 392.489C83.2067 392.489 83.7923 391.883 83.8105 390.671V384.047H85.8682ZM91.4258 391.956C91.4258 391.715 91.305 391.525 91.0635 391.389C90.8265 391.247 90.4437 391.122 89.915 391.013C88.1559 390.644 87.2764 389.896 87.2764 388.771C87.2764 388.114 87.5475 387.567 88.0898 387.13C88.6367 386.688 89.3499 386.467 90.2295 386.467C91.1683 386.467 91.918 386.688 92.4785 387.13C93.0436 387.572 93.3262 388.146 93.3262 388.853H91.3506C91.3506 388.57 91.2594 388.338 91.0771 388.155C90.8949 387.968 90.61 387.875 90.2227 387.875C89.89 387.875 89.6325 387.95 89.4502 388.101C89.2679 388.251 89.1768 388.442 89.1768 388.675C89.1768 388.894 89.2793 389.071 89.4844 389.208C89.694 389.34 90.0449 389.456 90.5371 389.557C91.0293 389.652 91.444 389.762 91.7812 389.885C92.8249 390.268 93.3467 390.931 93.3467 391.874C93.3467 392.549 93.0573 393.095 92.4785 393.515C91.8997 393.929 91.1523 394.137 90.2363 394.137C89.6165 394.137 89.0651 394.027 88.582 393.809C88.1035 393.585 87.7275 393.282 87.4541 392.899C87.1807 392.512 87.0439 392.095 87.0439 391.648H88.917C88.9352 391.999 89.0651 392.268 89.3066 392.455C89.5482 392.642 89.8717 392.735 90.2773 392.735C90.6556 392.735 90.9404 392.665 91.1318 392.523C91.3278 392.378 91.4258 392.188 91.4258 391.956ZM98.0293 394.137C96.9447 394.137 96.0605 393.804 95.377 393.139C94.6979 392.473 94.3584 391.587 94.3584 390.479V390.288C94.3584 389.545 94.502 388.882 94.7891 388.299C95.0762 387.711 95.4818 387.26 96.0059 386.945C96.5345 386.626 97.1361 386.467 97.8105 386.467C98.8223 386.467 99.6175 386.786 100.196 387.424C100.78 388.062 101.071 388.966 101.071 390.138V390.944H96.3613C96.4251 391.427 96.6165 391.815 96.9355 392.106C97.2591 392.398 97.667 392.544 98.1592 392.544C98.9202 392.544 99.515 392.268 99.9434 391.717L100.914 392.804C100.618 393.223 100.217 393.551 99.7109 393.788C99.2051 394.021 98.6445 394.137 98.0293 394.137ZM97.8037 388.066C97.4118 388.066 97.0928 388.199 96.8467 388.463C96.6051 388.727 96.4502 389.105 96.3818 389.598H99.1299V389.44C99.1208 389.003 99.0023 388.666 98.7744 388.429C98.5465 388.187 98.223 388.066 97.8037 388.066ZM106.355 388.456C106.087 388.42 105.85 388.401 105.645 388.401C104.897 388.401 104.407 388.654 104.175 389.16V394H102.199V386.604H104.065L104.12 387.485C104.517 386.806 105.066 386.467 105.768 386.467C105.986 386.467 106.191 386.496 106.383 386.556L106.355 388.456ZM69.2021 408.544C69.5667 408.544 69.863 408.444 70.0908 408.243C70.3187 408.043 70.4372 407.776 70.4463 407.443H72.2988C72.2943 407.945 72.1576 408.405 71.8887 408.824C71.6198 409.239 71.2507 409.562 70.7812 409.795C70.3164 410.023 69.8014 410.137 69.2363 410.137C68.179 410.137 67.3451 409.802 66.7344 409.132C66.1237 408.457 65.8184 407.528 65.8184 406.343V406.213C65.8184 405.074 66.1214 404.164 66.7275 403.485C67.3337 402.806 68.1654 402.467 69.2227 402.467C70.1478 402.467 70.8883 402.731 71.4443 403.26C72.0049 403.784 72.2897 404.483 72.2988 405.358H70.4463C70.4372 404.976 70.3187 404.666 70.0908 404.429C69.863 404.187 69.5622 404.066 69.1885 404.066C68.7282 404.066 68.3796 404.235 68.1426 404.572C67.9102 404.905 67.7939 405.447 67.7939 406.199V406.404C67.7939 407.165 67.9102 407.712 68.1426 408.045C68.375 408.378 68.7282 408.544 69.2021 408.544ZM75.3545 403.41C75.8786 402.781 76.5371 402.467 77.3301 402.467C78.9342 402.467 79.7477 403.399 79.7705 405.263V410H77.7949V405.317C77.7949 404.894 77.7038 404.581 77.5215 404.381C77.3392 404.176 77.0361 404.073 76.6123 404.073C76.0335 404.073 75.6143 404.297 75.3545 404.743V410H73.3789V399.5H75.3545V403.41ZM85.5469 410C85.4557 409.822 85.3896 409.601 85.3486 409.337C84.8701 409.87 84.248 410.137 83.4824 410.137C82.7578 410.137 82.1562 409.927 81.6777 409.508C81.2038 409.089 80.9668 408.56 80.9668 407.922C80.9668 407.138 81.2562 406.536 81.835 406.117C82.4183 405.698 83.2591 405.486 84.3574 405.481H85.2666V405.058C85.2666 404.716 85.1777 404.442 85 404.237C84.8268 404.032 84.5511 403.93 84.1729 403.93C83.8402 403.93 83.5781 404.009 83.3867 404.169C83.1999 404.328 83.1064 404.547 83.1064 404.825H81.1309C81.1309 404.397 81.263 404 81.5273 403.636C81.7917 403.271 82.1654 402.986 82.6484 402.781C83.1315 402.572 83.6738 402.467 84.2754 402.467C85.1868 402.467 85.9092 402.697 86.4424 403.157C86.9801 403.613 87.249 404.256 87.249 405.085V408.291C87.2536 408.993 87.3516 409.524 87.543 409.884V410H85.5469ZM83.9131 408.626C84.2048 408.626 84.4736 408.562 84.7197 408.435C84.9658 408.302 85.1481 408.127 85.2666 407.908V406.637H84.5283C83.5394 406.637 83.013 406.979 82.9492 407.662L82.9424 407.778C82.9424 408.024 83.029 408.227 83.2021 408.387C83.3753 408.546 83.6123 408.626 83.9131 408.626ZM90.585 402.604L90.6465 403.458C91.1751 402.797 91.8838 402.467 92.7725 402.467C93.5563 402.467 94.1396 402.697 94.5225 403.157C94.9053 403.618 95.1012 404.306 95.1103 405.222V410H93.1348V405.27C93.1348 404.85 93.0436 404.547 92.8613 404.36C92.679 404.169 92.376 404.073 91.9521 404.073C91.3962 404.073 90.9792 404.31 90.7012 404.784V410H88.7256V402.604H90.585ZM96.3271 406.247C96.3271 405.112 96.596 404.199 97.1338 403.506C97.6761 402.813 98.4053 402.467 99.3213 402.467C100.132 402.467 100.764 402.745 101.215 403.301L101.297 402.604H103.088V409.754C103.088 410.401 102.94 410.964 102.644 411.442C102.352 411.921 101.939 412.285 101.406 412.536C100.873 412.787 100.249 412.912 99.5332 412.912C98.9909 412.912 98.4622 412.803 97.9473 412.584C97.4323 412.37 97.0426 412.092 96.7783 411.75L97.6533 410.547C98.1455 411.098 98.7425 411.374 99.4443 411.374C99.9684 411.374 100.376 411.233 100.668 410.95C100.96 410.672 101.105 410.276 101.105 409.761V409.364C100.65 409.879 100.05 410.137 99.3076 410.137C98.4189 410.137 97.6989 409.79 97.1475 409.098C96.6006 408.4 96.3271 407.478 96.3271 406.329V406.247ZM98.3027 406.391C98.3027 407.061 98.4372 407.587 98.7061 407.97C98.9749 408.348 99.3441 408.537 99.8135 408.537C100.415 408.537 100.846 408.312 101.105 407.86V404.75C100.841 404.299 100.415 404.073 99.8271 404.073C99.3532 404.073 98.9795 404.267 98.7061 404.654C98.4372 405.042 98.3027 405.62 98.3027 406.391ZM108.017 410.137C106.932 410.137 106.048 409.804 105.364 409.139C104.685 408.473 104.346 407.587 104.346 406.479V406.288C104.346 405.545 104.489 404.882 104.776 404.299C105.063 403.711 105.469 403.26 105.993 402.945C106.522 402.626 107.123 402.467 107.798 402.467C108.81 402.467 109.605 402.786 110.184 403.424C110.767 404.062 111.059 404.966 111.059 406.138V406.944H106.349C106.412 407.427 106.604 407.815 106.923 408.106C107.246 408.398 107.654 408.544 108.146 408.544C108.908 408.544 109.502 408.268 109.931 407.717L110.901 408.804C110.605 409.223 110.204 409.551 109.698 409.788C109.192 410.021 108.632 410.137 108.017 410.137ZM107.791 404.066C107.399 404.066 107.08 404.199 106.834 404.463C106.592 404.727 106.437 405.105 106.369 405.598H109.117V405.44C109.108 405.003 108.99 404.666 108.762 404.429C108.534 404.187 108.21 404.066 107.791 404.066ZM116.192 407.956C116.192 407.715 116.072 407.525 115.83 407.389C115.593 407.247 115.21 407.122 114.682 407.013C112.923 406.644 112.043 405.896 112.043 404.771C112.043 404.114 112.314 403.567 112.856 403.13C113.403 402.688 114.117 402.467 114.996 402.467C115.935 402.467 116.685 402.688 117.245 403.13C117.81 403.572 118.093 404.146 118.093 404.853H116.117C116.117 404.57 116.026 404.338 115.844 404.155C115.661 403.968 115.377 403.875 114.989 403.875C114.657 403.875 114.399 403.95 114.217 404.101C114.035 404.251 113.943 404.442 113.943 404.675C113.943 404.894 114.046 405.071 114.251 405.208C114.461 405.34 114.812 405.456 115.304 405.557C115.796 405.652 116.211 405.762 116.548 405.885C117.591 406.268 118.113 406.931 118.113 407.874C118.113 408.549 117.824 409.095 117.245 409.515C116.666 409.929 115.919 410.137 115.003 410.137C114.383 410.137 113.832 410.027 113.349 409.809C112.87 409.585 112.494 409.282 112.221 408.899C111.947 408.512 111.811 408.095 111.811 407.648H113.684C113.702 407.999 113.832 408.268 114.073 408.455C114.315 408.642 114.638 408.735 115.044 408.735C115.422 408.735 115.707 408.665 115.898 408.523C116.094 408.378 116.192 408.188 116.192 407.956ZM78.2119 426V420.053H77.1113V418.604H78.2119V417.975C78.2119 417.145 78.4489 416.503 78.9229 416.047C79.4014 415.587 80.069 415.356 80.9258 415.356C81.1992 415.356 81.5342 415.402 81.9307 415.493L81.9102 417.024C81.7461 416.983 81.5456 416.963 81.3086 416.963C80.5658 416.963 80.1943 417.312 80.1943 418.009V418.604H81.6641V420.053H80.1943V426H78.2119ZM82.3818 422.233C82.3818 421.5 82.5231 420.846 82.8057 420.271C83.0882 419.697 83.4938 419.253 84.0225 418.938C84.5557 418.624 85.1732 418.467 85.875 418.467C86.873 418.467 87.6865 418.772 88.3154 419.383C88.9489 419.993 89.3021 420.823 89.375 421.871L89.3887 422.377C89.3887 423.512 89.0719 424.423 88.4385 425.111C87.805 425.795 86.9551 426.137 85.8887 426.137C84.8223 426.137 83.9701 425.795 83.332 425.111C82.6986 424.428 82.3818 423.498 82.3818 422.322V422.233ZM84.3574 422.377C84.3574 423.079 84.4896 423.617 84.7539 423.99C85.0182 424.359 85.3965 424.544 85.8887 424.544C86.3672 424.544 86.7409 424.362 87.0098 423.997C87.2786 423.628 87.4131 423.04 87.4131 422.233C87.4131 421.545 87.2786 421.012 87.0098 420.634C86.7409 420.256 86.3626 420.066 85.875 420.066C85.3919 420.066 85.0182 420.256 84.7539 420.634C84.4896 421.007 84.3574 421.589 84.3574 422.377ZM94.7617 420.456C94.4928 420.42 94.2559 420.401 94.0508 420.401C93.3034 420.401 92.8135 420.654 92.5811 421.16V426H90.6055V418.604H92.4717L92.5264 419.485C92.9228 418.806 93.472 418.467 94.1738 418.467C94.3926 418.467 94.5977 418.496 94.7891 418.556L94.7617 420.456ZM97.5713 418.604L97.6328 419.431C98.1569 418.788 98.8656 418.467 99.7588 418.467C100.711 418.467 101.365 418.843 101.721 419.595C102.24 418.843 102.981 418.467 103.942 418.467C104.744 418.467 105.341 418.701 105.733 419.171C106.125 419.636 106.321 420.338 106.321 421.276V426H104.339V421.283C104.339 420.864 104.257 420.559 104.093 420.367C103.929 420.171 103.639 420.073 103.225 420.073C102.632 420.073 102.222 420.356 101.994 420.921L102.001 426H100.025V421.29C100.025 420.862 99.9411 420.552 99.7725 420.36C99.6038 420.169 99.3167 420.073 98.9111 420.073C98.3506 420.073 97.945 420.306 97.6943 420.771V426H95.7187V418.604H97.5713Z" fill="black"/>
<path d="M92 357V77C92 72.5817 95.5817 69 100 69H240M240 69L232 61M240 69L232 77" stroke="black" stroke-width="2" stroke-linecap="square"/>
<g filter="url(#filter2_d)">
<mask id="path-8-inside-2" fill="white">
<path d="M176 381H488V429H176V381Z"/>
</mask>
<path d="M176 381H488V429H176V381Z" fill="#EFC3FF"/>
<path d="M176 381V379H174V381H176ZM488 381H490V379H488V381ZM488 429V431H490V429H488ZM176 429H174V431H176V429ZM176 383H488V379H176V383ZM486 381V429H490V381H486ZM488 427H176V431H488V427ZM178 429V381H174V429H178Z" fill="black" mask="url(#path-8-inside-2)"/>
<path d="M286.404 405.775L290.301 407.149V409.063L284.415 406.568V404.955L290.301 402.46V404.374L286.404 405.775ZM297.219 407.389C297.219 407.001 297.082 406.705 296.809 406.5C296.535 406.29 296.043 406.072 295.332 405.844C294.621 405.611 294.058 405.383 293.644 405.16C292.513 404.549 291.948 403.727 291.948 402.692C291.948 402.155 292.099 401.676 292.399 401.257C292.705 400.833 293.14 400.503 293.705 400.266C294.275 400.029 294.913 399.91 295.619 399.91C296.33 399.91 296.964 400.04 297.52 400.3C298.076 400.555 298.506 400.917 298.812 401.387C299.121 401.856 299.276 402.389 299.276 402.986H297.226C297.226 402.531 297.082 402.177 296.795 401.927C296.508 401.672 296.104 401.544 295.585 401.544C295.084 401.544 294.694 401.651 294.416 401.865C294.138 402.075 293.999 402.353 293.999 402.699C293.999 403.023 294.161 403.294 294.484 403.513C294.812 403.731 295.293 403.937 295.927 404.128C297.093 404.479 297.943 404.914 298.477 405.434C299.01 405.953 299.276 406.6 299.276 407.375C299.276 408.236 298.951 408.913 298.299 409.405C297.647 409.893 296.77 410.137 295.667 410.137C294.901 410.137 294.204 409.998 293.575 409.72C292.946 409.437 292.465 409.052 292.133 408.564C291.805 408.077 291.641 407.512 291.641 406.869H293.698C293.698 407.967 294.354 408.517 295.667 408.517C296.155 408.517 296.535 408.419 296.809 408.223C297.082 408.022 297.219 407.744 297.219 407.389ZM302.626 410H300.644V402.604H302.626V410ZM300.527 400.689C300.527 400.393 300.625 400.149 300.821 399.958C301.022 399.767 301.293 399.671 301.635 399.671C301.972 399.671 302.241 399.767 302.441 399.958C302.642 400.149 302.742 400.393 302.742 400.689C302.742 400.99 302.64 401.236 302.435 401.428C302.234 401.619 301.967 401.715 301.635 401.715C301.302 401.715 301.033 401.619 300.828 401.428C300.628 401.236 300.527 400.99 300.527 400.689ZM306.112 402.604L306.174 403.431C306.698 402.788 307.407 402.467 308.3 402.467C309.252 402.467 309.906 402.843 310.262 403.595C310.781 402.843 311.522 402.467 312.483 402.467C313.285 402.467 313.882 402.701 314.274 403.171C314.666 403.636 314.862 404.338 314.862 405.276V410H312.88V405.283C312.88 404.864 312.798 404.559 312.634 404.367C312.47 404.171 312.18 404.073 311.766 404.073C311.173 404.073 310.763 404.356 310.535 404.921L310.542 410H308.566V405.29C308.566 404.862 308.482 404.552 308.313 404.36C308.145 404.169 307.858 404.073 307.452 404.073C306.892 404.073 306.486 404.306 306.235 404.771V410H304.26V402.604H306.112ZM323.045 406.37C323.045 407.509 322.785 408.423 322.266 409.111C321.751 409.795 321.053 410.137 320.174 410.137C319.426 410.137 318.823 409.877 318.362 409.357V412.844H316.387V402.604H318.219L318.287 403.328C318.766 402.754 319.39 402.467 320.16 402.467C321.072 402.467 321.78 402.804 322.286 403.479C322.792 404.153 323.045 405.083 323.045 406.268V406.37ZM321.069 406.227C321.069 405.538 320.946 405.007 320.7 404.634C320.459 404.26 320.105 404.073 319.641 404.073C319.021 404.073 318.595 404.31 318.362 404.784V407.812C318.604 408.3 319.035 408.544 319.654 408.544C320.598 408.544 321.069 407.771 321.069 406.227ZM326.36 410H324.378V399.5H326.36V410ZM331.398 410.137C330.314 410.137 329.43 409.804 328.746 409.139C328.067 408.473 327.728 407.587 327.728 406.479V406.288C327.728 405.545 327.871 404.882 328.158 404.299C328.445 403.711 328.851 403.26 329.375 402.945C329.904 402.626 330.505 402.467 331.18 402.467C332.191 402.467 332.987 402.786 333.565 403.424C334.149 404.062 334.44 404.966 334.44 406.138V406.944H329.73C329.794 407.427 329.986 407.815 330.305 408.106C330.628 408.398 331.036 408.544 331.528 408.544C332.289 408.544 332.884 408.268 333.312 407.717L334.283 408.804C333.987 409.223 333.586 409.551 333.08 409.788C332.574 410.021 332.014 410.137 331.398 410.137ZM331.173 404.066C330.781 404.066 330.462 404.199 330.216 404.463C329.974 404.727 329.819 405.105 329.751 405.598H332.499V405.44C332.49 405.003 332.371 404.666 332.144 404.429C331.916 404.187 331.592 404.066 331.173 404.066ZM341.687 405.933H337.749V410H335.698V400.047H342.179V401.708H337.749V404.278H341.687V405.933ZM342.78 406.233C342.78 405.5 342.922 404.846 343.204 404.271C343.487 403.697 343.892 403.253 344.421 402.938C344.954 402.624 345.572 402.467 346.273 402.467C347.271 402.467 348.085 402.772 348.714 403.383C349.347 403.993 349.701 404.823 349.773 405.871L349.787 406.377C349.787 407.512 349.47 408.423 348.837 409.111C348.203 409.795 347.354 410.137 346.287 410.137C345.221 410.137 344.368 409.795 343.73 409.111C343.097 408.428 342.78 407.498 342.78 406.322V406.233ZM344.756 406.377C344.756 407.079 344.888 407.617 345.152 407.99C345.417 408.359 345.795 408.544 346.287 408.544C346.766 408.544 347.139 408.362 347.408 407.997C347.677 407.628 347.812 407.04 347.812 406.233C347.812 405.545 347.677 405.012 347.408 404.634C347.139 404.256 346.761 404.066 346.273 404.066C345.79 404.066 345.417 404.256 345.152 404.634C344.888 405.007 344.756 405.589 344.756 406.377ZM355.16 404.456C354.891 404.42 354.654 404.401 354.449 404.401C353.702 404.401 353.212 404.654 352.979 405.16V410H351.004V402.604H352.87L352.925 403.485C353.321 402.806 353.87 402.467 354.572 402.467C354.791 402.467 354.996 402.496 355.188 402.556L355.16 404.456ZM357.97 402.604L358.031 403.431C358.555 402.788 359.264 402.467 360.157 402.467C361.11 402.467 361.764 402.843 362.119 403.595C362.639 402.843 363.379 402.467 364.341 402.467C365.143 402.467 365.74 402.701 366.132 403.171C366.524 403.636 366.72 404.338 366.72 405.276V410H364.737V405.283C364.737 404.864 364.655 404.559 364.491 404.367C364.327 404.171 364.038 404.073 363.623 404.073C363.031 404.073 362.62 404.356 362.393 404.921L362.399 410H360.424V405.29C360.424 404.862 360.34 404.552 360.171 404.36C360.002 404.169 359.715 404.073 359.31 404.073C358.749 404.073 358.343 404.306 358.093 404.771V410H356.117V402.604H357.97ZM368.866 410.854H367.396L371.061 400.047H372.53L368.866 410.854ZM377.514 405.755L373.542 404.367V402.467L379.496 404.962V406.568L373.542 409.07V407.163L377.514 405.755Z" fill="black"/>
</g>
<path d="M140 405H177" stroke="black" stroke-width="2" stroke-linecap="square"/>
<path d="M200 59H178V79H200C200 79 190 79 190 69C190 59 200 59 200 59Z" fill="#99DBFF"/>
<g filter="url(#filter3_d)">
<mask id="path-13-inside-3" fill="white">
<path d="M24 69C24 77.8366 31.1634 85 40 85H144C152.837 85 160 77.8366 160 69C160 60.1634 152.837 53 144 53H40C31.1634 53 24 60.1634 24 69Z"/>
</mask>
<path d="M24 69C24 77.8366 31.1634 85 40 85H144C152.837 85 160 77.8366 160 69C160 60.1634 152.837 53 144 53H40C31.1634 53 24 60.1634 24 69Z" fill="white"/>
<path d="M40 83H144V87H40V83ZM144 55H40V51H144V55ZM40 55C32.268 55 26 61.268 26 69H22C22 59.0589 30.0589 51 40 51V55ZM158 69C158 61.268 151.732 55 144 55V51C153.941 51 162 59.0589 162 69H158ZM144 83C151.732 83 158 76.732 158 69H162C162 78.9411 153.941 87 144 87V83ZM40 87C30.0589 87 22 78.9411 22 69H26C26 76.732 32.268 83 40 83V87Z" fill="black" mask="url(#path-13-inside-3)"/>
<path d="M34.1963 74V64.0469H37.2588C38.1338 64.0469 38.9154 64.2451 39.6035 64.6416C40.2962 65.0335 40.8363 65.5941 41.2236 66.3232C41.611 67.0479 41.8047 67.8727 41.8047 68.7979V69.2559C41.8047 70.181 41.6133 71.0036 41.2305 71.7236C40.8522 72.4437 40.3167 73.002 39.624 73.3984C38.9313 73.7949 38.1497 73.9954 37.2793 74H34.1963ZM36.2471 65.708V72.3525H37.2383C38.0404 72.3525 38.6533 72.0905 39.0771 71.5664C39.501 71.0423 39.7174 70.2926 39.7266 69.3174V68.791C39.7266 67.7793 39.5169 67.0137 39.0977 66.4941C38.6784 65.9701 38.0654 65.708 37.2588 65.708H36.2471ZM47.458 74C47.3669 73.8223 47.3008 73.6012 47.2598 73.3369C46.7812 73.8701 46.1592 74.1367 45.3936 74.1367C44.6689 74.1367 44.0674 73.9271 43.5889 73.5078C43.1149 73.0885 42.8779 72.5599 42.8779 71.9219C42.8779 71.138 43.1673 70.5365 43.7461 70.1172C44.3294 69.6979 45.1702 69.486 46.2686 69.4814H47.1777V69.0576C47.1777 68.7158 47.0889 68.4424 46.9111 68.2373C46.738 68.0322 46.4622 67.9297 46.084 67.9297C45.7513 67.9297 45.4893 68.0094 45.2979 68.1689C45.111 68.3285 45.0176 68.5472 45.0176 68.8252H43.042C43.042 68.3968 43.1742 68.0003 43.4385 67.6357C43.7028 67.2712 44.0765 66.9863 44.5596 66.7812C45.0426 66.5716 45.585 66.4668 46.1865 66.4668C47.098 66.4668 47.8203 66.6969 48.3535 67.1572C48.8913 67.613 49.1602 68.2555 49.1602 69.085V72.291C49.1647 72.9928 49.2627 73.5238 49.4541 73.8838V74H47.458ZM45.8242 72.626C46.1159 72.626 46.3848 72.5622 46.6309 72.4346C46.877 72.3024 47.0592 72.127 47.1777 71.9082V70.6367H46.4395C45.4505 70.6367 44.9242 70.9785 44.8604 71.6621L44.8535 71.7783C44.8535 72.0244 44.9401 72.2272 45.1133 72.3867C45.2865 72.5462 45.5234 72.626 45.8242 72.626ZM53.043 64.7852V66.6035H54.3076V68.0527H53.043V71.7441C53.043 72.0176 53.0954 72.2135 53.2002 72.332C53.305 72.4505 53.5055 72.5098 53.8018 72.5098C54.0205 72.5098 54.2142 72.4938 54.3828 72.4619V73.959C53.9954 74.0775 53.5967 74.1367 53.1865 74.1367C51.8011 74.1367 51.0947 73.4372 51.0674 72.0381V68.0527H49.9873V66.6035H51.0674V64.7852H53.043ZM59.6943 74C59.6032 73.8223 59.5371 73.6012 59.4961 73.3369C59.0176 73.8701 58.3955 74.1367 57.6299 74.1367C56.9053 74.1367 56.3037 73.9271 55.8252 73.5078C55.3512 73.0885 55.1143 72.5599 55.1143 71.9219C55.1143 71.138 55.4036 70.5365 55.9824 70.1172C56.5658 69.6979 57.4066 69.486 58.5049 69.4814H59.4141V69.0576C59.4141 68.7158 59.3252 68.4424 59.1475 68.2373C58.9743 68.0322 58.6986 67.9297 58.3203 67.9297C57.9876 67.9297 57.7256 68.0094 57.5342 68.1689C57.3473 68.3285 57.2539 68.5472 57.2539 68.8252H55.2783C55.2783 68.3968 55.4105 68.0003 55.6748 67.6357C55.9391 67.2712 56.3128 66.9863 56.7959 66.7812C57.279 66.5716 57.8213 66.4668 58.4229 66.4668C59.3343 66.4668 60.0566 66.6969 60.5898 67.1572C61.1276 67.613 61.3965 68.2555 61.3965 69.085V72.291C61.401 72.9928 61.499 73.5238 61.6904 73.8838V74H59.6943ZM58.0605 72.626C58.3522 72.626 58.6211 72.5622 58.8672 72.4346C59.1133 72.3024 59.2956 72.127 59.4141 71.9082V70.6367H58.6758C57.6868 70.6367 57.1605 70.9785 57.0967 71.6621L57.0898 71.7783C57.0898 72.0244 57.1764 72.2272 57.3496 72.3867C57.5228 72.5462 57.7598 72.626 58.0605 72.626ZM68.4854 74H66.5029V66.6035H68.4854V74ZM66.3867 64.6895C66.3867 64.3932 66.4847 64.1494 66.6807 63.958C66.8812 63.7666 67.1523 63.6709 67.4941 63.6709C67.8314 63.6709 68.1003 63.7666 68.3008 63.958C68.5013 64.1494 68.6016 64.3932 68.6016 64.6895C68.6016 64.9902 68.499 65.2363 68.2939 65.4277C68.0934 65.6191 67.8268 65.7148 67.4941 65.7148C67.1615 65.7148 66.8926 65.6191 66.6875 65.4277C66.487 65.2363 66.3867 64.9902 66.3867 64.6895ZM74.125 71.9561C74.125 71.7145 74.0042 71.5254 73.7627 71.3887C73.5257 71.2474 73.1429 71.1221 72.6143 71.0127C70.8551 70.6436 69.9756 69.8962 69.9756 68.7705C69.9756 68.1143 70.2467 67.5674 70.7891 67.1299C71.3359 66.6878 72.0492 66.4668 72.9287 66.4668C73.8675 66.4668 74.6172 66.6878 75.1777 67.1299C75.7428 67.5719 76.0254 68.1462 76.0254 68.8525H74.0498C74.0498 68.57 73.9587 68.3376 73.7764 68.1553C73.5941 67.9684 73.3092 67.875 72.9219 67.875C72.5892 67.875 72.3317 67.9502 72.1494 68.1006C71.9671 68.251 71.876 68.4424 71.876 68.6748C71.876 68.8936 71.9785 69.0713 72.1836 69.208C72.3932 69.3402 72.7441 69.4564 73.2363 69.5566C73.7285 69.6523 74.1432 69.7617 74.4805 69.8848C75.5241 70.2676 76.0459 70.9307 76.0459 71.874C76.0459 72.5485 75.7565 73.0954 75.1777 73.5146C74.599 73.9294 73.8516 74.1367 72.9355 74.1367C72.3158 74.1367 71.7643 74.0273 71.2812 73.8086C70.8027 73.5853 70.4268 73.2822 70.1533 72.8994C69.8799 72.512 69.7432 72.0951 69.7432 71.6484H71.6162C71.6344 71.9993 71.7643 72.2682 72.0059 72.4551C72.2474 72.6419 72.571 72.7354 72.9766 72.7354C73.3548 72.7354 73.6396 72.6647 73.8311 72.5234C74.027 72.3776 74.125 72.1885 74.125 71.9561ZM84.8164 71.9561C84.8164 71.7145 84.6956 71.5254 84.4541 71.3887C84.2171 71.2474 83.8343 71.1221 83.3057 71.0127C81.5465 70.6436 80.667 69.8962 80.667 68.7705C80.667 68.1143 80.9382 67.5674 81.4805 67.1299C82.0273 66.6878 82.7406 66.4668 83.6201 66.4668C84.5589 66.4668 85.3086 66.6878 85.8691 67.1299C86.4342 67.5719 86.7168 68.1462 86.7168 68.8525H84.7412C84.7412 68.57 84.6501 68.3376 84.4678 68.1553C84.2855 67.9684 84.0007 67.875 83.6133 67.875C83.2806 67.875 83.0231 67.9502 82.8408 68.1006C82.6585 68.251 82.5674 68.4424 82.5674 68.6748C82.5674 68.8936 82.6699 69.0713 82.875 69.208C83.0846 69.3402 83.4355 69.4564 83.9277 69.5566C84.4199 69.6523 84.8346 69.7617 85.1719 69.8848C86.2155 70.2676 86.7373 70.9307 86.7373 71.874C86.7373 72.5485 86.4479 73.0954 85.8691 73.5146C85.2904 73.9294 84.543 74.1367 83.627 74.1367C83.0072 74.1367 82.4557 74.0273 81.9727 73.8086C81.4941 73.5853 81.1182 73.2822 80.8447 72.8994C80.5713 72.512 80.4346 72.0951 80.4346 71.6484H82.3076C82.3258 71.9993 82.4557 72.2682 82.6973 72.4551C82.9388 72.6419 83.2624 72.7354 83.668 72.7354C84.0462 72.7354 84.3311 72.6647 84.5225 72.5234C84.7184 72.3776 84.8164 72.1885 84.8164 71.9561ZM91.4199 74.1367C90.3353 74.1367 89.4512 73.804 88.7676 73.1387C88.0885 72.4733 87.749 71.5869 87.749 70.4795V70.2881C87.749 69.5452 87.8926 68.8822 88.1797 68.2988C88.4668 67.7109 88.8724 67.2598 89.3965 66.9453C89.9251 66.6263 90.5267 66.4668 91.2012 66.4668C92.2129 66.4668 93.0081 66.7858 93.5869 67.4238C94.1702 68.0618 94.4619 68.9665 94.4619 70.1377V70.9443H89.752C89.8158 71.4274 90.0072 71.8148 90.3262 72.1064C90.6497 72.3981 91.0576 72.5439 91.5498 72.5439C92.3109 72.5439 92.9056 72.2682 93.334 71.7168L94.3047 72.8037C94.0085 73.223 93.6074 73.5511 93.1016 73.7881C92.5957 74.0205 92.0352 74.1367 91.4199 74.1367ZM91.1943 68.0664C90.8024 68.0664 90.4834 68.1986 90.2373 68.4629C89.9958 68.7272 89.8408 69.1055 89.7725 69.5977H92.5205V69.4404C92.5114 69.0029 92.3929 68.6657 92.165 68.4287C91.9372 68.1872 91.6136 68.0664 91.1943 68.0664ZM97.4082 66.6035L97.4697 67.458C97.9984 66.7972 98.707 66.4668 99.5957 66.4668C100.38 66.4668 100.963 66.6969 101.346 67.1572C101.729 67.6175 101.924 68.3057 101.934 69.2217V74H99.958V69.2695C99.958 68.8503 99.8669 68.5472 99.6846 68.3604C99.5023 68.1689 99.1992 68.0732 98.7754 68.0732C98.2194 68.0732 97.8024 68.3102 97.5244 68.7842V74H95.5488V66.6035H97.4082ZM105.803 64.7852V66.6035H107.067V68.0527H105.803V71.7441C105.803 72.0176 105.855 72.2135 105.96 72.332C106.065 72.4505 106.265 72.5098 106.562 72.5098C106.78 72.5098 106.974 72.4938 107.143 72.4619V73.959C106.755 74.0775 106.356 74.1367 105.946 74.1367C104.561 74.1367 103.854 73.4372 103.827 72.0381V68.0527H102.747V66.6035H103.827V64.7852H105.803ZM114.02 64.7852V66.6035H115.284V68.0527H114.02V71.7441C114.02 72.0176 114.072 72.2135 114.177 72.332C114.282 72.4505 114.482 72.5098 114.778 72.5098C114.997 72.5098 115.191 72.4938 115.359 72.4619V73.959C114.972 74.0775 114.573 74.1367 114.163 74.1367C112.778 74.1367 112.071 73.4372 112.044 72.0381V68.0527H110.964V66.6035H112.044V64.7852H114.02ZM115.872 70.2334C115.872 69.4997 116.013 68.8457 116.296 68.2715C116.578 67.6973 116.984 67.2529 117.513 66.9385C118.046 66.624 118.663 66.4668 119.365 66.4668C120.363 66.4668 121.177 66.7721 121.806 67.3828C122.439 67.9935 122.792 68.8229 122.865 69.8711L122.879 70.377C122.879 71.5117 122.562 72.4232 121.929 73.1113C121.295 73.7949 120.445 74.1367 119.379 74.1367C118.312 74.1367 117.46 73.7949 116.822 73.1113C116.189 72.4277 115.872 71.498 115.872 70.3223V70.2334ZM117.848 70.377C117.848 71.0788 117.98 71.6165 118.244 71.9902C118.508 72.3594 118.887 72.5439 119.379 72.5439C119.857 72.5439 120.231 72.3617 120.5 71.9971C120.769 71.6279 120.903 71.04 120.903 70.2334C120.903 69.5452 120.769 69.012 120.5 68.6338C120.231 68.2555 119.853 68.0664 119.365 68.0664C118.882 68.0664 118.508 68.2555 118.244 68.6338C117.98 69.0075 117.848 69.5885 117.848 70.377ZM133.331 71.9492H129.735L129.052 74H126.871L130.576 64.0469H132.477L136.202 74H134.021L133.331 71.9492ZM130.289 70.2881H132.777L131.526 66.5625L130.289 70.2881ZM143.332 70.3701C143.332 71.5094 143.072 72.4232 142.553 73.1113C142.038 73.7949 141.34 74.1367 140.461 74.1367C139.714 74.1367 139.11 73.877 138.649 73.3574V76.8438H136.674V66.6035H138.506L138.574 67.3281C139.053 66.7539 139.677 66.4668 140.447 66.4668C141.359 66.4668 142.067 66.804 142.573 67.4785C143.079 68.153 143.332 69.0827 143.332 70.2676V70.3701ZM141.356 70.2266C141.356 69.5384 141.233 69.0075 140.987 68.6338C140.746 68.2601 140.393 68.0732 139.928 68.0732C139.308 68.0732 138.882 68.3102 138.649 68.7842V71.8125C138.891 72.3001 139.322 72.5439 139.941 72.5439C140.885 72.5439 141.356 71.7715 141.356 70.2266ZM151.221 70.3701C151.221 71.5094 150.961 72.4232 150.441 73.1113C149.926 73.7949 149.229 74.1367 148.35 74.1367C147.602 74.1367 146.998 73.877 146.538 73.3574V76.8438H144.562V66.6035H146.395L146.463 67.3281C146.941 66.7539 147.566 66.4668 148.336 66.4668C149.247 66.4668 149.956 66.804 150.462 67.4785C150.968 68.153 151.221 69.0827 151.221 70.2676V70.3701ZM149.245 70.2266C149.245 69.5384 149.122 69.0075 148.876 68.6338C148.634 68.2601 148.281 68.0732 147.816 68.0732C147.197 68.0732 146.771 68.3102 146.538 68.7842V71.8125C146.78 72.3001 147.21 72.5439 147.83 72.5439C148.773 72.5439 149.245 71.7715 149.245 70.2266Z" fill="black"/>
</g>
<path d="M397 376V77C397 72.5817 400.582 69 405 69H619C623.418 69 627 72.5817 627 77V400C627 404.418 623.418 408 619 408H487.5" stroke="black" stroke-width="2" stroke-linecap="square"/>
<path d="M389 369L397 377L405 369" stroke="black" stroke-width="2" stroke-linecap="square"/>
<path d="M547 79H569V59H547C547 59 557 59 557 69C557 79 547 79 547 79Z" fill="#99DBFF"/>
<path d="M387 261L387 283L407 283L407 261C407 261 407 271 397 271C387 271 387 261 387 261Z" fill="#99DBFF"/>
<g filter="url(#filter4_d)">
<path d="M398.707 82.7071L444.293 128.293C444.746 128.746 445 129.36 445 130C445 130.64 444.746 131.254 444.293 131.707L398.707 177.293C398.254 177.746 397.64 178 397 178C396.36 178 395.746 177.746 395.293 177.293L349.707 131.707C349.254 131.254 349 130.64 349 130C349 129.36 349.254 128.746 349.707 128.293L395.293 82.7071C395.746 82.2544 396.36 82 397 82C397.64 82 398.254 82.2544 398.707 82.7071Z" fill="#B4FF99"/>
<path d="M398 83.4142L443.586 129C443.851 129.265 444 129.625 444 130C444 130.375 443.851 130.735 443.586 131L398 176.586C397.735 176.851 397.375 177 397 177C396.625 177 396.265 176.851 396 176.586L350.414 131C350.149 130.735 350 130.375 350 130C350 129.625 350.149 129.265 350.414 129L396 83.4142C396.265 83.149 396.625 83 397 83C397.375 83 397.735 83.149 398 83.4142Z" stroke="black" stroke-width="2"/>
</g>
<path d="M373.348 131.233C373.348 130.5 373.489 129.846 373.771 129.271C374.054 128.697 374.46 128.253 374.988 127.938C375.521 127.624 376.139 127.467 376.841 127.467C377.839 127.467 378.652 127.772 379.281 128.383C379.915 128.993 380.268 129.823 380.341 130.871L380.354 131.377C380.354 132.512 380.038 133.423 379.404 134.111C378.771 134.795 377.921 135.137 376.854 135.137C375.788 135.137 374.936 134.795 374.298 134.111C373.664 133.428 373.348 132.498 373.348 131.322V131.233ZM375.323 131.377C375.323 132.079 375.455 132.617 375.72 132.99C375.984 133.359 376.362 133.544 376.854 133.544C377.333 133.544 377.707 133.362 377.976 132.997C378.244 132.628 378.379 132.04 378.379 131.233C378.379 130.545 378.244 130.012 377.976 129.634C377.707 129.256 377.328 129.066 376.841 129.066C376.358 129.066 375.984 129.256 375.72 129.634C375.455 130.007 375.323 130.589 375.323 131.377ZM383.39 127.604L383.451 128.458C383.98 127.797 384.688 127.467 385.577 127.467C386.361 127.467 386.944 127.697 387.327 128.157C387.71 128.618 387.906 129.306 387.915 130.222V135H385.939V130.27C385.939 129.85 385.848 129.547 385.666 129.36C385.484 129.169 385.181 129.073 384.757 129.073C384.201 129.073 383.784 129.31 383.506 129.784V135H381.53V127.604H383.39ZM389.549 135V125.047H392.611C393.486 125.047 394.268 125.245 394.956 125.642C395.649 126.034 396.189 126.594 396.576 127.323C396.964 128.048 397.157 128.873 397.157 129.798V130.256C397.157 131.181 396.966 132.004 396.583 132.724C396.205 133.444 395.669 134.002 394.977 134.398C394.284 134.795 393.502 134.995 392.632 135H389.549ZM391.6 126.708V133.353H392.591C393.393 133.353 394.006 133.09 394.43 132.566C394.854 132.042 395.07 131.293 395.079 130.317V129.791C395.079 128.779 394.869 128.014 394.45 127.494C394.031 126.97 393.418 126.708 392.611 126.708H391.6ZM398.217 131.233C398.217 130.5 398.358 129.846 398.641 129.271C398.923 128.697 399.329 128.253 399.857 127.938C400.391 127.624 401.008 127.467 401.71 127.467C402.708 127.467 403.521 127.772 404.15 128.383C404.784 128.993 405.137 129.823 405.21 130.871L405.224 131.377C405.224 132.512 404.907 133.423 404.273 134.111C403.64 134.795 402.79 135.137 401.724 135.137C400.657 135.137 399.805 134.795 399.167 134.111C398.534 133.428 398.217 132.498 398.217 131.322V131.233ZM400.192 131.377C400.192 132.079 400.325 132.617 400.589 132.99C400.853 133.359 401.231 133.544 401.724 133.544C402.202 133.544 402.576 133.362 402.845 132.997C403.114 132.628 403.248 132.04 403.248 131.233C403.248 130.545 403.114 130.012 402.845 129.634C402.576 129.256 402.198 129.066 401.71 129.066C401.227 129.066 400.853 129.256 400.589 129.634C400.325 130.007 400.192 130.589 400.192 131.377ZM408.259 127.604L408.32 128.458C408.849 127.797 409.558 127.467 410.446 127.467C411.23 127.467 411.813 127.697 412.196 128.157C412.579 128.618 412.775 129.306 412.784 130.222V135H410.809V130.27C410.809 129.85 410.717 129.547 410.535 129.36C410.353 129.169 410.05 129.073 409.626 129.073C409.07 129.073 408.653 129.31 408.375 129.784V135H406.399V127.604H408.259ZM417.692 135.137C416.608 135.137 415.724 134.804 415.04 134.139C414.361 133.473 414.021 132.587 414.021 131.479V131.288C414.021 130.545 414.165 129.882 414.452 129.299C414.739 128.711 415.145 128.26 415.669 127.945C416.198 127.626 416.799 127.467 417.474 127.467C418.485 127.467 419.281 127.786 419.859 128.424C420.443 129.062 420.734 129.966 420.734 131.138V131.944H416.024C416.088 132.427 416.28 132.815 416.599 133.106C416.922 133.398 417.33 133.544 417.822 133.544C418.583 133.544 419.178 133.268 419.606 132.717L420.577 133.804C420.281 134.223 419.88 134.551 419.374 134.788C418.868 135.021 418.308 135.137 417.692 135.137ZM417.467 129.066C417.075 129.066 416.756 129.199 416.51 129.463C416.268 129.727 416.113 130.105 416.045 130.598H418.793V130.44C418.784 130.003 418.665 129.666 418.437 129.429C418.21 129.187 417.886 129.066 417.467 129.066Z" fill="black"/>
<g filter="url(#filter5_d)">
<mask id="path-23-inside-4" fill="white">
<path d="M329 221C329 229.837 336.163 237 345 237H449C457.837 237 465 229.837 465 221C465 212.163 457.837 205 449 205H345C336.163 205 329 212.163 329 221Z"/>
</mask>
<path d="M329 221C329 229.837 336.163 237 345 237H449C457.837 237 465 229.837 465 221C465 212.163 457.837 205 449 205H345C336.163 205 329 212.163 329 221Z" fill="white"/>
<path d="M345 235H449V239H345V235ZM449 207H345V203H449V207ZM345 207C337.268 207 331 213.268 331 221H327C327 211.059 335.059 203 345 203V207ZM463 221C463 213.268 456.732 207 449 207V203C458.941 203 467 211.059 467 221H463ZM449 235C456.732 235 463 228.732 463 221H467C467 230.941 458.941 239 449 239V235ZM345 239C335.059 239 327 230.941 327 221H331C331 228.732 337.268 235 345 235V239Z" fill="black" mask="url(#path-23-inside-4)"/>
<path d="M348.369 221.249C348.369 222.229 348.196 223.088 347.85 223.826C347.503 224.564 347.007 225.134 346.359 225.535C345.717 225.936 344.979 226.137 344.145 226.137C343.32 226.137 342.584 225.938 341.937 225.542C341.289 225.146 340.788 224.58 340.433 223.847C340.077 223.108 339.897 222.261 339.893 221.304V220.812C339.893 219.832 340.068 218.97 340.419 218.228C340.774 217.48 341.273 216.908 341.916 216.512C342.563 216.111 343.301 215.91 344.131 215.91C344.96 215.91 345.696 216.111 346.339 216.512C346.986 216.908 347.485 217.48 347.836 218.228C348.191 218.97 348.369 219.829 348.369 220.805V221.249ZM346.291 220.798C346.291 219.754 346.104 218.961 345.73 218.419C345.357 217.877 344.824 217.605 344.131 217.605C343.443 217.605 342.912 217.874 342.538 218.412C342.164 218.945 341.975 219.729 341.971 220.764V221.249C341.971 222.265 342.158 223.054 342.531 223.614C342.905 224.175 343.443 224.455 344.145 224.455C344.833 224.455 345.361 224.186 345.73 223.648C346.1 223.106 346.286 222.318 346.291 221.283V220.798ZM351.548 218.604L351.609 219.458C352.138 218.797 352.847 218.467 353.735 218.467C354.519 218.467 355.103 218.697 355.485 219.157C355.868 219.618 356.064 220.306 356.073 221.222V226H354.098V221.27C354.098 220.85 354.007 220.547 353.824 220.36C353.642 220.169 353.339 220.073 352.915 220.073C352.359 220.073 351.942 220.31 351.664 220.784V226H349.688V218.604H351.548ZM357.707 226V216.047H360.77C361.645 216.047 362.426 216.245 363.114 216.642C363.807 217.034 364.347 217.594 364.734 218.323C365.122 219.048 365.315 219.873 365.315 220.798V221.256C365.315 222.181 365.124 223.004 364.741 223.724C364.363 224.444 363.827 225.002 363.135 225.398C362.442 225.795 361.66 225.995 360.79 226H357.707ZM359.758 217.708V224.353H360.749C361.551 224.353 362.164 224.09 362.588 223.566C363.012 223.042 363.228 222.293 363.237 221.317V220.791C363.237 219.779 363.028 219.014 362.608 218.494C362.189 217.97 361.576 217.708 360.77 217.708H359.758ZM366.375 222.233C366.375 221.5 366.516 220.846 366.799 220.271C367.081 219.697 367.487 219.253 368.016 218.938C368.549 218.624 369.166 218.467 369.868 218.467C370.866 218.467 371.68 218.772 372.309 219.383C372.942 219.993 373.295 220.823 373.368 221.871L373.382 222.377C373.382 223.512 373.065 224.423 372.432 225.111C371.798 225.795 370.948 226.137 369.882 226.137C368.815 226.137 367.963 225.795 367.325 225.111C366.692 224.428 366.375 223.498 366.375 222.322V222.233ZM368.351 222.377C368.351 223.079 368.483 223.617 368.747 223.99C369.011 224.359 369.39 224.544 369.882 224.544C370.36 224.544 370.734 224.362 371.003 223.997C371.272 223.628 371.406 223.04 371.406 222.233C371.406 221.545 371.272 221.012 371.003 220.634C370.734 220.256 370.356 220.066 369.868 220.066C369.385 220.066 369.011 220.256 368.747 220.634C368.483 221.007 368.351 221.589 368.351 222.377ZM376.417 218.604L376.479 219.458C377.007 218.797 377.716 218.467 378.604 218.467C379.388 218.467 379.972 218.697 380.354 219.157C380.737 219.618 380.933 220.306 380.942 221.222V226H378.967V221.27C378.967 220.85 378.876 220.547 378.693 220.36C378.511 220.169 378.208 220.073 377.784 220.073C377.228 220.073 376.811 220.31 376.533 220.784V226H374.558V218.604H376.417ZM385.851 226.137C384.766 226.137 383.882 225.804 383.198 225.139C382.519 224.473 382.18 223.587 382.18 222.479V222.288C382.18 221.545 382.323 220.882 382.61 220.299C382.897 219.711 383.303 219.26 383.827 218.945C384.356 218.626 384.957 218.467 385.632 218.467C386.644 218.467 387.439 218.786 388.018 219.424C388.601 220.062 388.893 220.966 388.893 222.138V222.944H384.183C384.246 223.427 384.438 223.815 384.757 224.106C385.08 224.398 385.488 224.544 385.98 224.544C386.742 224.544 387.336 224.268 387.765 223.717L388.735 224.804C388.439 225.223 388.038 225.551 387.532 225.788C387.026 226.021 386.466 226.137 385.851 226.137ZM385.625 220.066C385.233 220.066 384.914 220.199 384.668 220.463C384.426 220.727 384.271 221.105 384.203 221.598H386.951V221.44C386.942 221.003 386.824 220.666 386.596 220.429C386.368 220.187 386.044 220.066 385.625 220.066ZM397.513 223.956C397.513 223.715 397.392 223.525 397.15 223.389C396.913 223.247 396.531 223.122 396.002 223.013C394.243 222.644 393.363 221.896 393.363 220.771C393.363 220.114 393.634 219.567 394.177 219.13C394.724 218.688 395.437 218.467 396.316 218.467C397.255 218.467 398.005 218.688 398.565 219.13C399.131 219.572 399.413 220.146 399.413 220.853H397.438C397.438 220.57 397.346 220.338 397.164 220.155C396.982 219.968 396.697 219.875 396.31 219.875C395.977 219.875 395.719 219.95 395.537 220.101C395.355 220.251 395.264 220.442 395.264 220.675C395.264 220.894 395.366 221.071 395.571 221.208C395.781 221.34 396.132 221.456 396.624 221.557C397.116 221.652 397.531 221.762 397.868 221.885C398.912 222.268 399.434 222.931 399.434 223.874C399.434 224.549 399.144 225.095 398.565 225.515C397.987 225.929 397.239 226.137 396.323 226.137C395.703 226.137 395.152 226.027 394.669 225.809C394.19 225.585 393.814 225.282 393.541 224.899C393.268 224.512 393.131 224.095 393.131 223.648H395.004C395.022 223.999 395.152 224.268 395.394 224.455C395.635 224.642 395.959 224.735 396.364 224.735C396.743 224.735 397.027 224.665 397.219 224.523C397.415 224.378 397.513 224.188 397.513 223.956ZM404.116 226.137C403.032 226.137 402.147 225.804 401.464 225.139C400.785 224.473 400.445 223.587 400.445 222.479V222.288C400.445 221.545 400.589 220.882 400.876 220.299C401.163 219.711 401.569 219.26 402.093 218.945C402.621 218.626 403.223 218.467 403.897 218.467C404.909 218.467 405.704 218.786 406.283 219.424C406.867 220.062 407.158 220.966 407.158 222.138V222.944H402.448C402.512 223.427 402.703 223.815 403.022 224.106C403.346 224.398 403.754 224.544 404.246 224.544C405.007 224.544 405.602 224.268 406.03 223.717L407.001 224.804C406.705 225.223 406.304 225.551 405.798 225.788C405.292 226.021 404.731 226.137 404.116 226.137ZM403.891 220.066C403.499 220.066 403.18 220.199 402.934 220.463C402.692 220.727 402.537 221.105 402.469 221.598H405.217V221.44C405.208 221.003 405.089 220.666 404.861 220.429C404.633 220.187 404.31 220.066 403.891 220.066ZM410.651 216.785V218.604H411.916V220.053H410.651V223.744C410.651 224.018 410.704 224.214 410.809 224.332C410.913 224.451 411.114 224.51 411.41 224.51C411.629 224.51 411.823 224.494 411.991 224.462V225.959C411.604 226.077 411.205 226.137 410.795 226.137C409.41 226.137 408.703 225.437 408.676 224.038V220.053H407.596V218.604H408.676V216.785H410.651ZM417.022 223.956C417.022 223.715 416.902 223.525 416.66 223.389C416.423 223.247 416.04 223.122 415.512 223.013C413.753 222.644 412.873 221.896 412.873 220.771C412.873 220.114 413.144 219.567 413.687 219.13C414.233 218.688 414.947 218.467 415.826 218.467C416.765 218.467 417.515 218.688 418.075 219.13C418.64 219.572 418.923 220.146 418.923 220.853H416.947C416.947 220.57 416.856 220.338 416.674 220.155C416.492 219.968 416.207 219.875 415.819 219.875C415.487 219.875 415.229 219.95 415.047 220.101C414.865 220.251 414.773 220.442 414.773 220.675C414.773 220.894 414.876 221.071 415.081 221.208C415.291 221.34 415.642 221.456 416.134 221.557C416.626 221.652 417.041 221.762 417.378 221.885C418.422 222.268 418.943 222.931 418.943 223.874C418.943 224.549 418.654 225.095 418.075 225.515C417.496 225.929 416.749 226.137 415.833 226.137C415.213 226.137 414.662 226.027 414.179 225.809C413.7 225.585 413.324 225.282 413.051 224.899C412.777 224.512 412.641 224.095 412.641 223.648H414.514C414.532 223.999 414.662 224.268 414.903 224.455C415.145 224.642 415.468 224.735 415.874 224.735C416.252 224.735 416.537 224.665 416.729 224.523C416.924 224.378 417.022 224.188 417.022 223.956ZM427.714 223.956C427.714 223.715 427.593 223.525 427.352 223.389C427.115 223.247 426.732 223.122 426.203 223.013C424.444 222.644 423.564 221.896 423.564 220.771C423.564 220.114 423.836 219.567 424.378 219.13C424.925 218.688 425.638 218.467 426.518 218.467C427.456 218.467 428.206 218.688 428.767 219.13C429.332 219.572 429.614 220.146 429.614 220.853H427.639C427.639 220.57 427.548 220.338 427.365 220.155C427.183 219.968 426.898 219.875 426.511 219.875C426.178 219.875 425.921 219.95 425.738 220.101C425.556 220.251 425.465 220.442 425.465 220.675C425.465 220.894 425.567 221.071 425.772 221.208C425.982 221.34 426.333 221.456 426.825 221.557C427.317 221.652 427.732 221.762 428.069 221.885C429.113 222.268 429.635 222.931 429.635 223.874C429.635 224.549 429.345 225.095 428.767 225.515C428.188 225.929 427.44 226.137 426.524 226.137C425.905 226.137 425.353 226.027 424.87 225.809C424.392 225.585 424.016 225.282 423.742 224.899C423.469 224.512 423.332 224.095 423.332 223.648H425.205C425.223 223.999 425.353 224.268 425.595 224.455C425.836 224.642 426.16 224.735 426.565 224.735C426.944 224.735 427.229 224.665 427.42 224.523C427.616 224.378 427.714 224.188 427.714 223.956ZM433.278 216.785V218.604H434.543V220.053H433.278V223.744C433.278 224.018 433.331 224.214 433.436 224.332C433.54 224.451 433.741 224.51 434.037 224.51C434.256 224.51 434.45 224.494 434.618 224.462V225.959C434.231 226.077 433.832 226.137 433.422 226.137C432.036 226.137 431.33 225.437 431.303 224.038V220.053H430.223V218.604H431.303V216.785H433.278ZM439.93 226C439.839 225.822 439.772 225.601 439.731 225.337C439.253 225.87 438.631 226.137 437.865 226.137C437.141 226.137 436.539 225.927 436.061 225.508C435.587 225.089 435.35 224.56 435.35 223.922C435.35 223.138 435.639 222.536 436.218 222.117C436.801 221.698 437.642 221.486 438.74 221.481H439.649V221.058C439.649 220.716 439.561 220.442 439.383 220.237C439.21 220.032 438.934 219.93 438.556 219.93C438.223 219.93 437.961 220.009 437.77 220.169C437.583 220.328 437.489 220.547 437.489 220.825H435.514C435.514 220.397 435.646 220 435.91 219.636C436.174 219.271 436.548 218.986 437.031 218.781C437.514 218.572 438.057 218.467 438.658 218.467C439.57 218.467 440.292 218.697 440.825 219.157C441.363 219.613 441.632 220.256 441.632 221.085V224.291C441.636 224.993 441.734 225.524 441.926 225.884V226H439.93ZM438.296 224.626C438.588 224.626 438.856 224.562 439.103 224.435C439.349 224.302 439.531 224.127 439.649 223.908V222.637H438.911C437.922 222.637 437.396 222.979 437.332 223.662L437.325 223.778C437.325 224.024 437.412 224.227 437.585 224.387C437.758 224.546 437.995 224.626 438.296 224.626ZM445.515 216.785V218.604H446.779V220.053H445.515V223.744C445.515 224.018 445.567 224.214 445.672 224.332C445.777 224.451 445.977 224.51 446.273 224.51C446.492 224.51 446.686 224.494 446.854 224.462V225.959C446.467 226.077 446.068 226.137 445.658 226.137C444.273 226.137 443.566 225.437 443.539 224.038V220.053H442.459V218.604H443.539V216.785H445.515ZM451.284 226.137C450.2 226.137 449.315 225.804 448.632 225.139C447.953 224.473 447.613 223.587 447.613 222.479V222.288C447.613 221.545 447.757 220.882 448.044 220.299C448.331 219.711 448.737 219.26 449.261 218.945C449.789 218.626 450.391 218.467 451.065 218.467C452.077 218.467 452.872 218.786 453.451 219.424C454.035 220.062 454.326 220.966 454.326 222.138V222.944H449.616C449.68 223.427 449.871 223.815 450.19 224.106C450.514 224.398 450.922 224.544 451.414 224.544C452.175 224.544 452.77 224.268 453.198 223.717L454.169 224.804C453.873 225.223 453.472 225.551 452.966 225.788C452.46 226.021 451.899 226.137 451.284 226.137ZM451.059 220.066C450.667 220.066 450.348 220.199 450.102 220.463C449.86 220.727 449.705 221.105 449.637 221.598H452.385V221.44C452.376 221.003 452.257 220.666 452.029 220.429C451.801 220.187 451.478 220.066 451.059 220.066Z" fill="black"/>
</g>
<g filter="url(#filter6_d)">
<mask id="path-26-inside-5" fill="white">
<path d="M301 333C301 341.837 308.163 349 317 349H477C485.837 349 493 341.837 493 333C493 324.163 485.837 317 477 317H317C308.163 317 301 324.163 301 333Z"/>
</mask>
<path d="M301 333C301 341.837 308.163 349 317 349H477C485.837 349 493 341.837 493 333C493 324.163 485.837 317 477 317H317C308.163 317 301 324.163 301 333Z" fill="white"/>
<path d="M317 347H477V351H317V347ZM477 319H317V315H477V319ZM317 319C309.268 319 303 325.268 303 333H299C299 323.059 307.059 315 317 315V319ZM491 333C491 325.268 484.732 319 477 319V315C486.941 315 495 323.059 495 333H491ZM477 347C484.732 347 491 340.732 491 333H495C495 342.941 486.941 351 477 351V347ZM317 351C307.059 351 299 342.941 299 333H303C303 340.732 309.268 347 317 347V351Z" fill="black" mask="url(#path-26-inside-5)"/>
<path d="M319.214 338H317.163L313.171 331.451V338H311.12V328.047H313.171L317.17 334.609V328.047H319.214V338ZM324.279 338.137C323.195 338.137 322.311 337.804 321.627 337.139C320.948 336.473 320.608 335.587 320.608 334.479V334.288C320.608 333.545 320.752 332.882 321.039 332.299C321.326 331.711 321.732 331.26 322.256 330.945C322.785 330.626 323.386 330.467 324.061 330.467C325.072 330.467 325.868 330.786 326.446 331.424C327.03 332.062 327.321 332.966 327.321 334.138V334.944H322.611C322.675 335.427 322.867 335.815 323.186 336.106C323.509 336.398 323.917 336.544 324.409 336.544C325.17 336.544 325.765 336.268 326.193 335.717L327.164 336.804C326.868 337.223 326.467 337.551 325.961 337.788C325.455 338.021 324.895 338.137 324.279 338.137ZM324.054 332.066C323.662 332.066 323.343 332.199 323.097 332.463C322.855 332.727 322.7 333.105 322.632 333.598H325.38V333.44C325.371 333.003 325.252 332.666 325.024 332.429C324.797 332.187 324.473 332.066 324.054 332.066ZM334.882 335.313L335.853 330.604H337.76L335.873 338H334.219L332.817 333.345L331.416 338H329.769L327.882 330.604H329.789L330.753 335.307L332.106 330.604H333.535L334.882 335.313ZM346.236 335.956C346.236 335.715 346.116 335.525 345.874 335.389C345.637 335.247 345.254 335.122 344.726 335.013C342.966 334.644 342.087 333.896 342.087 332.771C342.087 332.114 342.358 331.567 342.9 331.13C343.447 330.688 344.16 330.467 345.04 330.467C345.979 330.467 346.729 330.688 347.289 331.13C347.854 331.572 348.137 332.146 348.137 332.853H346.161C346.161 332.57 346.07 332.338 345.888 332.155C345.705 331.968 345.421 331.875 345.033 331.875C344.701 331.875 344.443 331.95 344.261 332.101C344.078 332.251 343.987 332.442 343.987 332.675C343.987 332.894 344.09 333.071 344.295 333.208C344.505 333.34 344.855 333.456 345.348 333.557C345.84 333.652 346.255 333.762 346.592 333.885C347.635 334.268 348.157 334.931 348.157 335.874C348.157 336.549 347.868 337.095 347.289 337.515C346.71 337.929 345.963 338.137 345.047 338.137C344.427 338.137 343.876 338.027 343.393 337.809C342.914 337.585 342.538 337.282 342.265 336.899C341.991 336.512 341.854 336.095 341.854 335.648H343.728C343.746 335.999 343.876 336.268 344.117 336.455C344.359 336.642 344.682 336.735 345.088 336.735C345.466 336.735 345.751 336.665 345.942 336.523C346.138 336.378 346.236 336.188 346.236 335.956ZM351.801 328.785V330.604H353.065V332.053H351.801V335.744C351.801 336.018 351.853 336.214 351.958 336.332C352.063 336.451 352.263 336.51 352.56 336.51C352.778 336.51 352.972 336.494 353.141 336.462V337.959C352.753 338.077 352.354 338.137 351.944 338.137C350.559 338.137 349.853 337.437 349.825 336.038V332.053H348.745V330.604H349.825V328.785H351.801ZM358.452 338C358.361 337.822 358.295 337.601 358.254 337.337C357.775 337.87 357.153 338.137 356.388 338.137C355.663 338.137 355.062 337.927 354.583 337.508C354.109 337.089 353.872 336.56 353.872 335.922C353.872 335.138 354.161 334.536 354.74 334.117C355.324 333.698 356.164 333.486 357.263 333.481H358.172V333.058C358.172 332.716 358.083 332.442 357.905 332.237C357.732 332.032 357.456 331.93 357.078 331.93C356.745 331.93 356.483 332.009 356.292 332.169C356.105 332.328 356.012 332.547 356.012 332.825H354.036C354.036 332.397 354.168 332 354.433 331.636C354.697 331.271 355.071 330.986 355.554 330.781C356.037 330.572 356.579 330.467 357.181 330.467C358.092 330.467 358.814 330.697 359.348 331.157C359.885 331.613 360.154 332.256 360.154 333.085V336.291C360.159 336.993 360.257 337.524 360.448 337.884V338H358.452ZM356.818 336.626C357.11 336.626 357.379 336.562 357.625 336.435C357.871 336.302 358.053 336.127 358.172 335.908V334.637H357.434C356.445 334.637 355.918 334.979 355.854 335.662L355.848 335.778C355.848 336.024 355.934 336.227 356.107 336.387C356.281 336.546 356.518 336.626 356.818 336.626ZM364.037 328.785V330.604H365.302V332.053H364.037V335.744C364.037 336.018 364.09 336.214 364.194 336.332C364.299 336.451 364.5 336.51 364.796 336.51C365.015 336.51 365.208 336.494 365.377 336.462V337.959C364.99 338.077 364.591 338.137 364.181 338.137C362.795 338.137 362.089 337.437 362.062 336.038V332.053H360.981V330.604H362.062V328.785H364.037ZM369.807 338.137C368.722 338.137 367.838 337.804 367.154 337.139C366.475 336.473 366.136 335.587 366.136 334.479V334.288C366.136 333.545 366.279 332.882 366.566 332.299C366.854 331.711 367.259 331.26 367.783 330.945C368.312 330.626 368.913 330.467 369.588 330.467C370.6 330.467 371.395 330.786 371.974 331.424C372.557 332.062 372.849 332.966 372.849 334.138V334.944H368.139C368.202 335.427 368.394 335.815 368.713 336.106C369.036 336.398 369.444 336.544 369.937 336.544C370.698 336.544 371.292 336.268 371.721 335.717L372.691 336.804C372.395 337.223 371.994 337.551 371.488 337.788C370.982 338.021 370.422 338.137 369.807 338.137ZM369.581 332.066C369.189 332.066 368.87 332.199 368.624 332.463C368.382 332.727 368.228 333.105 368.159 333.598H370.907V333.44C370.898 333.003 370.78 332.666 370.552 332.429C370.324 332.187 370 332.066 369.581 332.066ZM380.539 336.544C380.904 336.544 381.2 336.444 381.428 336.243C381.656 336.043 381.774 335.776 381.783 335.443H383.636C383.631 335.945 383.494 336.405 383.226 336.824C382.957 337.239 382.588 337.562 382.118 337.795C381.653 338.023 381.138 338.137 380.573 338.137C379.516 338.137 378.682 337.802 378.071 337.132C377.461 336.457 377.155 335.528 377.155 334.343V334.213C377.155 333.074 377.458 332.164 378.064 331.485C378.671 330.806 379.502 330.467 380.56 330.467C381.485 330.467 382.225 330.731 382.781 331.26C383.342 331.784 383.627 332.483 383.636 333.358H381.783C381.774 332.976 381.656 332.666 381.428 332.429C381.2 332.187 380.899 332.066 380.525 332.066C380.065 332.066 379.716 332.235 379.479 332.572C379.247 332.905 379.131 333.447 379.131 334.199V334.404C379.131 335.165 379.247 335.712 379.479 336.045C379.712 336.378 380.065 336.544 380.539 336.544ZM389.05 338C388.959 337.822 388.893 337.601 388.852 337.337C388.373 337.87 387.751 338.137 386.985 338.137C386.261 338.137 385.659 337.927 385.181 337.508C384.707 337.089 384.47 336.56 384.47 335.922C384.47 335.138 384.759 334.536 385.338 334.117C385.921 333.698 386.762 333.486 387.86 333.481H388.77V333.058C388.77 332.716 388.681 332.442 388.503 332.237C388.33 332.032 388.054 331.93 387.676 331.93C387.343 331.93 387.081 332.009 386.89 332.169C386.703 332.328 386.609 332.547 386.609 332.825H384.634C384.634 332.397 384.766 332 385.03 331.636C385.295 331.271 385.668 330.986 386.151 330.781C386.634 330.572 387.177 330.467 387.778 330.467C388.69 330.467 389.412 330.697 389.945 331.157C390.483 331.613 390.752 332.256 390.752 333.085V336.291C390.757 336.993 390.854 337.524 391.046 337.884V338H389.05ZM387.416 336.626C387.708 336.626 387.977 336.562 388.223 336.435C388.469 336.302 388.651 336.127 388.77 335.908V334.637H388.031C387.042 334.637 386.516 334.979 386.452 335.662L386.445 335.778C386.445 336.024 386.532 336.227 386.705 336.387C386.878 336.546 387.115 336.626 387.416 336.626ZM396.699 337.248C396.212 337.84 395.537 338.137 394.676 338.137C393.883 338.137 393.277 337.909 392.857 337.453C392.443 336.997 392.231 336.33 392.222 335.45V330.604H394.197V335.382C394.197 336.152 394.548 336.537 395.25 336.537C395.92 336.537 396.38 336.305 396.631 335.84V330.604H398.613V338H396.754L396.699 337.248ZM404.109 335.956C404.109 335.715 403.989 335.525 403.747 335.389C403.51 335.247 403.127 335.122 402.599 335.013C400.84 334.644 399.96 333.896 399.96 332.771C399.96 332.114 400.231 331.567 400.773 331.13C401.32 330.688 402.034 330.467 402.913 330.467C403.852 330.467 404.602 330.688 405.162 331.13C405.727 331.572 406.01 332.146 406.01 332.853H404.034C404.034 332.57 403.943 332.338 403.761 332.155C403.578 331.968 403.294 331.875 402.906 331.875C402.574 331.875 402.316 331.95 402.134 332.101C401.951 332.251 401.86 332.442 401.86 332.675C401.86 332.894 401.963 333.071 402.168 333.208C402.378 333.34 402.729 333.456 403.221 333.557C403.713 333.652 404.128 333.762 404.465 333.885C405.508 334.268 406.03 334.931 406.03 335.874C406.03 336.549 405.741 337.095 405.162 337.515C404.583 337.929 403.836 338.137 402.92 338.137C402.3 338.137 401.749 338.027 401.266 337.809C400.787 337.585 400.411 337.282 400.138 336.899C399.864 336.512 399.728 336.095 399.728 335.648H401.601C401.619 335.999 401.749 336.268 401.99 336.455C402.232 336.642 402.555 336.735 402.961 336.735C403.339 336.735 403.624 336.665 403.815 336.523C404.011 336.378 404.109 336.188 404.109 335.956ZM410.713 338.137C409.628 338.137 408.744 337.804 408.061 337.139C407.382 336.473 407.042 335.587 407.042 334.479V334.288C407.042 333.545 407.186 332.882 407.473 332.299C407.76 331.711 408.165 331.26 408.689 330.945C409.218 330.626 409.82 330.467 410.494 330.467C411.506 330.467 412.301 330.786 412.88 331.424C413.463 332.062 413.755 332.966 413.755 334.138V334.944H409.045C409.109 335.427 409.3 335.815 409.619 336.106C409.943 336.398 410.351 336.544 410.843 336.544C411.604 336.544 412.199 336.268 412.627 335.717L413.598 336.804C413.301 337.223 412.9 337.551 412.395 337.788C411.889 338.021 411.328 338.137 410.713 338.137ZM410.487 332.066C410.095 332.066 409.776 332.199 409.53 332.463C409.289 332.727 409.134 333.105 409.065 333.598H411.813V333.44C411.804 333.003 411.686 332.666 411.458 332.429C411.23 332.187 410.907 332.066 410.487 332.066ZM418.889 335.956C418.889 335.715 418.768 335.525 418.526 335.389C418.289 335.247 417.907 335.122 417.378 335.013C415.619 334.644 414.739 333.896 414.739 332.771C414.739 332.114 415.01 331.567 415.553 331.13C416.1 330.688 416.813 330.467 417.692 330.467C418.631 330.467 419.381 330.688 419.941 331.13C420.507 331.572 420.789 332.146 420.789 332.853H418.813C418.813 332.57 418.722 332.338 418.54 332.155C418.358 331.968 418.073 331.875 417.686 331.875C417.353 331.875 417.095 331.95 416.913 332.101C416.731 332.251 416.64 332.442 416.64 332.675C416.64 332.894 416.742 333.071 416.947 333.208C417.157 333.34 417.508 333.456 418 333.557C418.492 333.652 418.907 333.762 419.244 333.885C420.288 334.268 420.81 334.931 420.81 335.874C420.81 336.549 420.52 337.095 419.941 337.515C419.363 337.929 418.615 338.137 417.699 338.137C417.079 338.137 416.528 338.027 416.045 337.809C415.566 337.585 415.19 337.282 414.917 336.899C414.644 336.512 414.507 336.095 414.507 335.648H416.38C416.398 335.999 416.528 336.268 416.77 336.455C417.011 336.642 417.335 336.735 417.74 336.735C418.118 336.735 418.403 336.665 418.595 336.523C418.791 336.378 418.889 336.188 418.889 335.956ZM429.73 332.456C429.462 332.42 429.225 332.401 429.02 332.401C428.272 332.401 427.782 332.654 427.55 333.16V338H425.574V330.604H427.44L427.495 331.485C427.892 330.806 428.441 330.467 429.143 330.467C429.361 330.467 429.566 330.496 429.758 330.556L429.73 332.456ZM433.955 338.137C432.87 338.137 431.986 337.804 431.303 337.139C430.624 336.473 430.284 335.587 430.284 334.479V334.288C430.284 333.545 430.428 332.882 430.715 332.299C431.002 331.711 431.408 331.26 431.932 330.945C432.46 330.626 433.062 330.467 433.736 330.467C434.748 330.467 435.543 330.786 436.122 331.424C436.705 332.062 436.997 332.966 436.997 334.138V334.944H432.287C432.351 335.427 432.542 335.815 432.861 336.106C433.185 336.398 433.593 336.544 434.085 336.544C434.846 336.544 435.441 336.268 435.869 335.717L436.84 336.804C436.544 337.223 436.143 337.551 435.637 337.788C435.131 338.021 434.57 338.137 433.955 338.137ZM433.729 332.066C433.338 332.066 433.019 332.199 432.772 332.463C432.531 332.727 432.376 333.105 432.308 333.598H435.056V333.44C435.047 333.003 434.928 332.666 434.7 332.429C434.472 332.187 434.149 332.066 433.729 332.066ZM441.967 334.534H438.118V332.941H441.967V334.534ZM447.709 332.456C447.44 332.42 447.203 332.401 446.998 332.401C446.251 332.401 445.761 332.654 445.528 333.16V338H443.553V330.604H445.419L445.474 331.485C445.87 330.806 446.419 330.467 447.121 330.467C447.34 330.467 447.545 330.496 447.736 330.556L447.709 332.456ZM451.934 338.137C450.849 338.137 449.965 337.804 449.281 337.139C448.602 336.473 448.263 335.587 448.263 334.479V334.288C448.263 333.545 448.406 332.882 448.693 332.299C448.98 331.711 449.386 331.26 449.91 330.945C450.439 330.626 451.04 330.467 451.715 330.467C452.727 330.467 453.522 330.786 454.101 331.424C454.684 332.062 454.976 332.966 454.976 334.138V334.944H450.266C450.329 335.427 450.521 335.815 450.84 336.106C451.163 336.398 451.571 336.544 452.063 336.544C452.825 336.544 453.419 336.268 453.848 335.717L454.818 336.804C454.522 337.223 454.121 337.551 453.615 337.788C453.109 338.021 452.549 338.137 451.934 338.137ZM451.708 332.066C451.316 332.066 450.997 332.199 450.751 332.463C450.509 332.727 450.354 333.105 450.286 333.598H453.034V333.44C453.025 333.003 452.907 332.666 452.679 332.429C452.451 332.187 452.127 332.066 451.708 332.066ZM457.922 330.604L457.983 331.458C458.512 330.797 459.221 330.467 460.109 330.467C460.893 330.467 461.477 330.697 461.859 331.157C462.242 331.618 462.438 332.306 462.447 333.222V338H460.472V333.27C460.472 332.85 460.381 332.547 460.198 332.36C460.016 332.169 459.713 332.073 459.289 332.073C458.733 332.073 458.316 332.31 458.038 332.784V338H456.062V330.604H457.922ZM463.644 334.247C463.644 333.094 463.901 332.176 464.416 331.492C464.936 330.809 465.644 330.467 466.542 330.467C467.262 330.467 467.857 330.736 468.326 331.273V327.5H470.309V338H468.524L468.429 337.214C467.937 337.829 467.303 338.137 466.528 338.137C465.658 338.137 464.958 337.795 464.43 337.111C463.906 336.423 463.644 335.468 463.644 334.247ZM465.619 334.391C465.619 335.083 465.74 335.614 465.981 335.983C466.223 336.353 466.574 336.537 467.034 336.537C467.645 336.537 468.076 336.28 468.326 335.765V332.846C468.08 332.331 467.654 332.073 467.048 332.073C466.095 332.073 465.619 332.846 465.619 334.391ZM475.244 338.137C474.16 338.137 473.275 337.804 472.592 337.139C471.913 336.473 471.573 335.587 471.573 334.479V334.288C471.573 333.545 471.717 332.882 472.004 332.299C472.291 331.711 472.697 331.26 473.221 330.945C473.749 330.626 474.351 330.467 475.025 330.467C476.037 330.467 476.832 330.786 477.411 331.424C477.994 332.062 478.286 332.966 478.286 334.138V334.944H473.576C473.64 335.427 473.831 335.815 474.15 336.106C474.474 336.398 474.882 336.544 475.374 336.544C476.135 336.544 476.73 336.268 477.158 335.717L478.129 336.804C477.833 337.223 477.432 337.551 476.926 337.788C476.42 338.021 475.859 338.137 475.244 338.137ZM475.019 332.066C474.627 332.066 474.308 332.199 474.062 332.463C473.82 332.727 473.665 333.105 473.597 333.598H476.345V333.44C476.336 333.003 476.217 332.666 475.989 332.429C475.761 332.187 475.438 332.066 475.019 332.066ZM483.57 332.456C483.301 332.42 483.064 332.401 482.859 332.401C482.112 332.401 481.622 332.654 481.39 333.16V338H479.414V330.604H481.28L481.335 331.485C481.731 330.806 482.281 330.467 482.982 330.467C483.201 330.467 483.406 330.496 483.598 330.556L483.57 332.456Z" fill="black"/>
</g>
<rect x="176" y="285" width="9" height="96" fill="black"/>
<rect x="178" y="283" width="4" height="100" fill="#99DBFF"/>
<g filter="url(#filter7_d)">
<path d="M628.707 357.707L674.293 403.293C674.746 403.746 675 404.36 675 405C675 405.64 674.746 406.254 674.293 406.707L628.707 452.293C628.254 452.746 627.64 453 627 453C626.36 453 625.746 452.746 625.293 452.293L579.707 406.707C579.254 406.254 579 405.64 579 405C579 404.36 579.254 403.746 579.707 403.293L625.293 357.707C625.746 357.254 626.36 357 627 357C627.64 357 628.254 357.254 628.707 357.707Z" fill="white"/>
<path d="M628 358.414L673.586 404C673.851 404.265 674 404.625 674 405C674 405.375 673.851 405.735 673.586 406L628 451.586C627.735 451.851 627.375 452 627 452C626.625 452 626.265 451.851 626 451.586L580.414 406C580.149 405.735 580 405.375 580 405C580 404.625 580.149 404.265 580.414 404L626 358.414C626.265 358.149 626.625 358 627 358C627.375 358 627.735 358.149 628 358.414Z" stroke="black" stroke-width="2"/>
</g>
<path d="M620.868 384.047V390.603C620.868 391.692 620.526 392.553 619.843 393.187C619.164 393.82 618.234 394.137 617.054 394.137C615.892 394.137 614.969 393.829 614.285 393.214C613.602 392.599 613.253 391.753 613.239 390.678V384.047H615.29V390.616C615.29 391.268 615.445 391.744 615.755 392.045C616.069 392.341 616.502 392.489 617.054 392.489C618.207 392.489 618.792 391.883 618.811 390.671V384.047H620.868ZM626.426 391.956C626.426 391.715 626.305 391.525 626.063 391.389C625.826 391.247 625.444 391.122 624.915 391.013C623.156 390.644 622.276 389.896 622.276 388.771C622.276 388.114 622.548 387.567 623.09 387.13C623.637 386.688 624.35 386.467 625.229 386.467C626.168 386.467 626.918 386.688 627.479 387.13C628.044 387.572 628.326 388.146 628.326 388.853H626.351C626.351 388.57 626.259 388.338 626.077 388.155C625.895 387.968 625.61 387.875 625.223 387.875C624.89 387.875 624.632 387.95 624.45 388.101C624.268 388.251 624.177 388.442 624.177 388.675C624.177 388.894 624.279 389.071 624.484 389.208C624.694 389.34 625.045 389.456 625.537 389.557C626.029 389.652 626.444 389.762 626.781 389.885C627.825 390.268 628.347 390.931 628.347 391.874C628.347 392.549 628.057 393.095 627.479 393.515C626.9 393.929 626.152 394.137 625.236 394.137C624.617 394.137 624.065 394.027 623.582 393.809C623.104 393.585 622.728 393.282 622.454 392.899C622.181 392.512 622.044 392.095 622.044 391.648H623.917C623.935 391.999 624.065 392.268 624.307 392.455C624.548 392.642 624.872 392.735 625.277 392.735C625.656 392.735 625.94 392.665 626.132 392.523C626.328 392.378 626.426 392.188 626.426 391.956ZM633.029 394.137C631.945 394.137 631.061 393.804 630.377 393.139C629.698 392.473 629.358 391.587 629.358 390.479V390.288C629.358 389.545 629.502 388.882 629.789 388.299C630.076 387.711 630.482 387.26 631.006 386.945C631.535 386.626 632.136 386.467 632.811 386.467C633.822 386.467 634.618 386.786 635.196 387.424C635.78 388.062 636.071 388.966 636.071 390.138V390.944H631.361C631.425 391.427 631.617 391.815 631.936 392.106C632.259 392.398 632.667 392.544 633.159 392.544C633.92 392.544 634.515 392.268 634.943 391.717L635.914 392.804C635.618 393.223 635.217 393.551 634.711 393.788C634.205 394.021 633.645 394.137 633.029 394.137ZM632.804 388.066C632.412 388.066 632.093 388.199 631.847 388.463C631.605 388.727 631.45 389.105 631.382 389.598H634.13V389.44C634.121 389.003 634.002 388.666 633.774 388.429C633.547 388.187 633.223 388.066 632.804 388.066ZM641.355 388.456C641.087 388.42 640.85 388.401 640.645 388.401C639.897 388.401 639.407 388.654 639.175 389.16V394H637.199V386.604H639.065L639.12 387.485C639.517 386.806 640.066 386.467 640.768 386.467C640.986 386.467 641.191 386.496 641.383 386.556L641.355 388.456ZM606.41 407.956C606.41 407.715 606.289 407.525 606.048 407.389C605.811 407.247 605.428 407.122 604.899 407.013C603.14 406.644 602.261 405.896 602.261 404.771C602.261 404.114 602.532 403.567 603.074 403.13C603.621 402.688 604.334 402.467 605.214 402.467C606.153 402.467 606.902 402.688 607.463 403.13C608.028 403.572 608.311 404.146 608.311 404.853H606.335C606.335 404.57 606.244 404.338 606.062 404.155C605.879 403.968 605.594 403.875 605.207 403.875C604.874 403.875 604.617 403.95 604.435 404.101C604.252 404.251 604.161 404.442 604.161 404.675C604.161 404.894 604.264 405.071 604.469 405.208C604.678 405.34 605.029 405.456 605.521 405.557C606.014 405.652 606.428 405.762 606.766 405.885C607.809 406.268 608.331 406.931 608.331 407.874C608.331 408.549 608.042 409.095 607.463 409.515C606.884 409.929 606.137 410.137 605.221 410.137C604.601 410.137 604.049 410.027 603.566 409.809C603.088 409.585 602.712 409.282 602.438 408.899C602.165 408.512 602.028 408.095 602.028 407.648H603.901C603.92 407.999 604.049 408.268 604.291 408.455C604.533 408.642 604.856 408.735 605.262 408.735C605.64 408.735 605.925 408.665 606.116 408.523C606.312 408.378 606.41 408.188 606.41 407.956ZM614.039 409.248C613.551 409.84 612.877 410.137 612.016 410.137C611.223 410.137 610.617 409.909 610.197 409.453C609.783 408.997 609.571 408.33 609.562 407.45V402.604H611.537V407.382C611.537 408.152 611.888 408.537 612.59 408.537C613.26 408.537 613.72 408.305 613.971 407.84V402.604H615.953V410H614.094L614.039 409.248ZM624.108 406.37C624.108 407.555 623.855 408.48 623.35 409.146C622.844 409.806 622.137 410.137 621.23 410.137C620.428 410.137 619.788 409.829 619.31 409.214L619.221 410H617.443V399.5H619.419V403.267C619.875 402.733 620.474 402.467 621.217 402.467C622.119 402.467 622.826 402.799 623.336 403.465C623.851 404.126 624.108 405.058 624.108 406.261V406.37ZM622.133 406.227C622.133 405.479 622.014 404.935 621.777 404.593C621.54 404.246 621.187 404.073 620.718 404.073C620.089 404.073 619.656 404.331 619.419 404.846V407.765C619.66 408.284 620.098 408.544 620.731 408.544C621.369 408.544 621.789 408.229 621.989 407.601C622.085 407.3 622.133 406.842 622.133 406.227ZM627.185 402.604L627.246 403.431C627.77 402.788 628.479 402.467 629.372 402.467C630.325 402.467 630.979 402.843 631.334 403.595C631.854 402.843 632.594 402.467 633.556 402.467C634.358 402.467 634.955 402.701 635.347 403.171C635.739 403.636 635.935 404.338 635.935 405.276V410H633.952V405.283C633.952 404.864 633.87 404.559 633.706 404.367C633.542 404.171 633.253 404.073 632.838 404.073C632.245 404.073 631.835 404.356 631.607 404.921L631.614 410H629.639V405.29C629.639 404.862 629.554 404.552 629.386 404.36C629.217 404.169 628.93 404.073 628.524 404.073C627.964 404.073 627.558 404.306 627.308 404.771V410H625.332V402.604H627.185ZM639.544 410H637.562V402.604H639.544V410ZM637.445 400.689C637.445 400.393 637.543 400.149 637.739 399.958C637.94 399.767 638.211 399.671 638.553 399.671C638.89 399.671 639.159 399.767 639.359 399.958C639.56 400.149 639.66 400.393 639.66 400.689C639.66 400.99 639.558 401.236 639.353 401.428C639.152 401.619 638.885 401.715 638.553 401.715C638.22 401.715 637.951 401.619 637.746 401.428C637.546 401.236 637.445 400.99 637.445 400.689ZM643.543 400.785V402.604H644.808V404.053H643.543V407.744C643.543 408.018 643.595 408.214 643.7 408.332C643.805 408.451 644.006 408.51 644.302 408.51C644.521 408.51 644.714 408.494 644.883 408.462V409.959C644.495 410.077 644.097 410.137 643.687 410.137C642.301 410.137 641.595 409.437 641.567 408.038V404.053H640.487V402.604H641.567V400.785H643.543ZM649.914 407.956C649.914 407.715 649.793 407.525 649.552 407.389C649.315 407.247 648.932 407.122 648.403 407.013C646.644 406.644 645.765 405.896 645.765 404.771C645.765 404.114 646.036 403.567 646.578 403.13C647.125 402.688 647.838 402.467 648.718 402.467C649.657 402.467 650.406 402.688 650.967 403.13C651.532 403.572 651.814 404.146 651.814 404.853H649.839C649.839 404.57 649.748 404.338 649.565 404.155C649.383 403.968 649.098 403.875 648.711 403.875C648.378 403.875 648.121 403.95 647.938 404.101C647.756 404.251 647.665 404.442 647.665 404.675C647.665 404.894 647.768 405.071 647.973 405.208C648.182 405.34 648.533 405.456 649.025 405.557C649.518 405.652 649.932 405.762 650.27 405.885C651.313 406.268 651.835 406.931 651.835 407.874C651.835 408.549 651.546 409.095 650.967 409.515C650.388 409.929 649.641 410.137 648.725 410.137C648.105 410.137 647.553 410.027 647.07 409.809C646.592 409.585 646.216 409.282 645.942 408.899C645.669 408.512 645.532 408.095 645.532 407.648H647.405C647.423 407.999 647.553 408.268 647.795 408.455C648.036 408.642 648.36 408.735 648.766 408.735C649.144 408.735 649.429 408.665 649.62 408.523C649.816 408.378 649.914 408.188 649.914 407.956ZM613.212 426V420.053H612.111V418.604H613.212V417.975C613.212 417.145 613.449 416.503 613.923 416.047C614.401 415.587 615.069 415.356 615.926 415.356C616.199 415.356 616.534 415.402 616.931 415.493L616.91 417.024C616.746 416.983 616.546 416.963 616.309 416.963C615.566 416.963 615.194 417.312 615.194 418.009V418.604H616.664V420.053H615.194V426H613.212ZM617.382 422.233C617.382 421.5 617.523 420.846 617.806 420.271C618.088 419.697 618.494 419.253 619.022 418.938C619.556 418.624 620.173 418.467 620.875 418.467C621.873 418.467 622.687 418.772 623.315 419.383C623.949 419.993 624.302 420.823 624.375 421.871L624.389 422.377C624.389 423.512 624.072 424.423 623.438 425.111C622.805 425.795 621.955 426.137 620.889 426.137C619.822 426.137 618.97 425.795 618.332 425.111C617.699 424.428 617.382 423.498 617.382 422.322V422.233ZM619.357 422.377C619.357 423.079 619.49 423.617 619.754 423.99C620.018 424.359 620.396 424.544 620.889 424.544C621.367 424.544 621.741 424.362 622.01 423.997C622.279 423.628 622.413 423.04 622.413 422.233C622.413 421.545 622.279 421.012 622.01 420.634C621.741 420.256 621.363 420.066 620.875 420.066C620.392 420.066 620.018 420.256 619.754 420.634C619.49 421.007 619.357 421.589 619.357 422.377ZM629.762 420.456C629.493 420.42 629.256 420.401 629.051 420.401C628.303 420.401 627.813 420.654 627.581 421.16V426H625.605V418.604H627.472L627.526 419.485C627.923 418.806 628.472 418.467 629.174 418.467C629.393 418.467 629.598 418.496 629.789 418.556L629.762 420.456ZM632.571 418.604L632.633 419.431C633.157 418.788 633.866 418.467 634.759 418.467C635.711 418.467 636.365 418.843 636.721 419.595C637.24 418.843 637.981 418.467 638.942 418.467C639.744 418.467 640.341 418.701 640.733 419.171C641.125 419.636 641.321 420.338 641.321 421.276V426H639.339V421.283C639.339 420.864 639.257 420.559 639.093 420.367C638.929 420.171 638.639 420.073 638.225 420.073C637.632 420.073 637.222 420.356 636.994 420.921L637.001 426H635.025V421.29C635.025 420.862 634.941 420.552 634.772 420.36C634.604 420.169 634.317 420.073 633.911 420.073C633.351 420.073 632.945 420.306 632.694 420.771V426H630.719V418.604H632.571Z" fill="black"/>
<defs>
<filter id="filter0_d" x="176" y="45" width="395" height="244" filterUnits="userSpaceOnUse" color-interpolation-filters="sRGB">
<feFlood flood-opacity="0" result="BackgroundImageFix"/>
<feColorMatrix in="SourceAlpha" type="matrix" values="0 0 0 0 0 0 0 0 0 0 0 0 0 0 0 0 0 0 127 0"/>
<feOffset dy="4"/>
<feColorMatrix type="matrix" values="0 0 0 0 0 0 0 0 0 0 0 0 0 0 0 0 0 0 1 0"/>
<feBlend mode="normal" in2="BackgroundImageFix" result="effect1_dropShadow"/>
<feBlend mode="normal" in="SourceGraphic" in2="effect1_dropShadow" result="shape"/>
</filter>
<filter id="filter1_d" x="44" y="357" width="96" height="100" filterUnits="userSpaceOnUse" color-interpolation-filters="sRGB">
<feFlood flood-opacity="0" result="BackgroundImageFix"/>
<feColorMatrix in="SourceAlpha" type="matrix" values="0 0 0 0 0 0 0 0 0 0 0 0 0 0 0 0 0 0 127 0"/>
<feOffset dy="4"/>
<feColorMatrix type="matrix" values="0 0 0 0 0 0 0 0 0 0 0 0 0 0 0 0 0 0 1 0"/>
<feBlend mode="normal" in2="BackgroundImageFix" result="effect1_dropShadow"/>
<feBlend mode="normal" in="SourceGraphic" in2="effect1_dropShadow" result="shape"/>
</filter>
<filter id="filter2_d" x="176" y="381" width="312" height="52" filterUnits="userSpaceOnUse" color-interpolation-filters="sRGB">
<feFlood flood-opacity="0" result="BackgroundImageFix"/>
<feColorMatrix in="SourceAlpha" type="matrix" values="0 0 0 0 0 0 0 0 0 0 0 0 0 0 0 0 0 0 127 0"/>
<feOffset dy="4"/>
<feColorMatrix type="matrix" values="0 0 0 0 0 0 0 0 0 0 0 0 0 0 0 0 0 0 1 0"/>
<feBlend mode="normal" in2="BackgroundImageFix" result="effect1_dropShadow"/>
<feBlend mode="normal" in="SourceGraphic" in2="effect1_dropShadow" result="shape"/>
</filter>
<filter id="filter3_d" x="24" y="53" width="136" height="36" filterUnits="userSpaceOnUse" color-interpolation-filters="sRGB">
<feFlood flood-opacity="0" result="BackgroundImageFix"/>
<feColorMatrix in="SourceAlpha" type="matrix" values="0 0 0 0 0 0 0 0 0 0 0 0 0 0 0 0 0 0 127 0"/>
<feOffset dy="4"/>
<feColorMatrix type="matrix" values="0 0 0 0 0 0 0 0 0 0 0 0 0 0 0 0 0 0 1 0"/>
<feBlend mode="normal" in2="BackgroundImageFix" result="effect1_dropShadow"/>
<feBlend mode="normal" in="SourceGraphic" in2="effect1_dropShadow" result="shape"/>
</filter>
<filter id="filter4_d" x="349" y="82" width="96" height="100" filterUnits="userSpaceOnUse" color-interpolation-filters="sRGB">
<feFlood flood-opacity="0" result="BackgroundImageFix"/>
<feColorMatrix in="SourceAlpha" type="matrix" values="0 0 0 0 0 0 0 0 0 0 0 0 0 0 0 0 0 0 127 0"/>
<feOffset dy="4"/>
<feColorMatrix type="matrix" values="0 0 0 0 0 0 0 0 0 0 0 0 0 0 0 0 0 0 1 0"/>
<feBlend mode="normal" in2="BackgroundImageFix" result="effect1_dropShadow"/>
<feBlend mode="normal" in="SourceGraphic" in2="effect1_dropShadow" result="shape"/>
</filter>
<filter id="filter5_d" x="329" y="205" width="136" height="36" filterUnits="userSpaceOnUse" color-interpolation-filters="sRGB">
<feFlood flood-opacity="0" result="BackgroundImageFix"/>
<feColorMatrix in="SourceAlpha" type="matrix" values="0 0 0 0 0 0 0 0 0 0 0 0 0 0 0 0 0 0 127 0"/>
<feOffset dy="4"/>
<feColorMatrix type="matrix" values="0 0 0 0 0 0 0 0 0 0 0 0 0 0 0 0 0 0 1 0"/>
<feBlend mode="normal" in2="BackgroundImageFix" result="effect1_dropShadow"/>
<feBlend mode="normal" in="SourceGraphic" in2="effect1_dropShadow" result="shape"/>
</filter>
<filter id="filter6_d" x="301" y="317" width="192" height="36" filterUnits="userSpaceOnUse" color-interpolation-filters="sRGB">
<feFlood flood-opacity="0" result="BackgroundImageFix"/>
<feColorMatrix in="SourceAlpha" type="matrix" values="0 0 0 0 0 0 0 0 0 0 0 0 0 0 0 0 0 0 127 0"/>
<feOffset dy="4"/>
<feColorMatrix type="matrix" values="0 0 0 0 0 0 0 0 0 0 0 0 0 0 0 0 0 0 1 0"/>
<feBlend mode="normal" in2="BackgroundImageFix" result="effect1_dropShadow"/>
<feBlend mode="normal" in="SourceGraphic" in2="effect1_dropShadow" result="shape"/>
</filter>
<filter id="filter7_d" x="579" y="357" width="96" height="100" filterUnits="userSpaceOnUse" color-interpolation-filters="sRGB">
<feFlood flood-opacity="0" result="BackgroundImageFix"/>
<feColorMatrix in="SourceAlpha" type="matrix" values="0 0 0 0 0 0 0 0 0 0 0 0 0 0 0 0 0 0 127 0"/>
<feOffset dy="4"/>
<feColorMatrix type="matrix" values="0 0 0 0 0 0 0 0 0 0 0 0 0 0 0 0 0 0 1 0"/>
<feBlend mode="normal" in2="BackgroundImageFix" result="effect1_dropShadow"/>
<feBlend mode="normal" in="SourceGraphic" in2="effect1_dropShadow" result="shape"/>
</filter>
</defs>
</svg>
