<svg width="36" height="36" viewBox="0 0 36 36" fill="none" xmlns="http://www.w3.org/2000/svg">
    <path fill-rule="evenodd" clip-rule="evenodd"
          d="M23.2335 7.38826C22.305 7.38826 21.4145 7.76597 20.758 8.4383L10.0412 19.4124C8.94698 20.5328 8.33227 22.0525 8.33227 23.6371C8.33227 25.2217 8.94698 26.7413 10.0412 27.8618C11.1354 28.9823 12.6194 29.6117 14.1668 29.6117C15.7143 29.6117 17.1983 28.9823 18.2925 27.8618L29.0093 16.8877C29.4647 16.4214 30.203 16.4214 30.6584 16.8877C31.1139 17.3541 31.1139 18.1101 30.6584 18.5765L19.9417 29.5506C18.4101 31.1189 16.3328 32 14.1668 32C12.0009 32 9.92359 31.1189 8.39201 29.5506C6.86043 27.9822 6 25.8551 6 23.6371C6 21.4191 6.86043 19.292 8.39201 17.7236L19.1088 6.74954C20.2027 5.62933 21.6865 5 23.2335 5C24.7806 5 26.2643 5.62933 27.3583 6.74954C28.4522 7.86976 29.0668 9.38909 29.0668 10.9733C29.0668 12.5575 28.4522 14.0769 27.3583 15.1971L16.6298 26.1712C15.9735 26.8432 15.0834 27.2208 14.1552 27.2208C13.227 27.2208 12.3368 26.8432 11.6805 26.1712C11.0242 25.4991 10.6555 24.5876 10.6555 23.6371C10.6555 22.6866 11.0242 21.7751 11.6805 21.103L21.5815 10.9763C22.0372 10.5102 22.7755 10.5107 23.2306 10.9773C23.6858 11.4439 23.6854 12.2 23.2297 12.666L13.3297 22.7918C13.111 23.0159 12.9877 23.3203 12.9877 23.6371C12.9877 23.9541 13.1107 24.2582 13.3297 24.4824C13.5486 24.7066 13.8456 24.8326 14.1552 24.8326C14.4648 24.8326 14.7617 24.7066 14.9807 24.4824L25.7091 13.5083C26.3654 12.836 26.7345 11.9239 26.7345 10.9733C26.7345 10.0225 26.3657 9.11063 25.7091 8.4383C25.0526 7.76597 24.1621 7.38826 23.2335 7.38826Z"
          fill="#153E67"/>
</svg>
