<svg width="36" height="36" viewBox="0 0 36 36" fill="none" xmlns="http://www.w3.org/2000/svg">
<path fill-rule="evenodd" clip-rule="evenodd" d="M15.386 4.13604C17.0739 2.44821 19.3631 1.5 21.75 1.5H26.25C27.0784 1.5 27.75 2.17157 27.75 3V9C27.75 9.82843 27.0784 10.5 26.25 10.5H21.75V13.5H26.25C26.7119 13.5 27.148 13.7128 27.4323 14.0769C27.7166 14.441 27.8172 14.9157 27.7052 15.3638L26.2052 21.3638C26.0383 22.0316 25.4383 22.5 24.75 22.5H21.75V33C21.75 33.8284 21.0784 34.5 20.25 34.5H14.25C13.4216 34.5 12.75 33.8284 12.75 33V22.5H9.75C8.92157 22.5 8.25 21.8284 8.25 21V15C8.25 14.1716 8.92157 13.5 9.75 13.5H12.75V10.5C12.75 8.11305 13.6982 5.82387 15.386 4.13604ZM21.75 4.5C20.1587 4.5 18.6326 5.13214 17.5074 6.25736C16.3821 7.38258 15.75 8.9087 15.75 10.5V15C15.75 15.8284 15.0784 16.5 14.25 16.5H11.25V19.5H14.25C15.0784 19.5 15.75 20.1716 15.75 21V31.5H18.75V21C18.75 20.1716 19.4216 19.5 20.25 19.5H23.5788L24.3288 16.5H20.25C19.4216 16.5 18.75 15.8284 18.75 15V10.5C18.75 9.70435 19.0661 8.94129 19.6287 8.37868C20.1913 7.81607 20.9543 7.5 21.75 7.5H24.75V4.5H21.75Z" fill="#153E67"/>
</svg>
