<svg width="36" height="36" viewBox="0 0 36 36" fill="none" xmlns="http://www.w3.org/2000/svg">
<path fill-rule="evenodd" clip-rule="evenodd" d="M16.5212 4.16966C18.5511 2.14016 21.3041 1 24.1747 1C27.0453 1 29.7983 2.14016 31.8282 4.16966C33.858 6.19916 34.9983 8.95175 34.9983 11.8219C34.9983 14.6915 33.8584 17.4436 31.8294 19.4729L31.8282 19.4741L21.4131 29.9184C21.1232 30.2092 20.7294 30.3726 20.3187 30.3726H7.82214L3.63833 34.5557C3.03477 35.1592 2.05622 35.1592 1.45267 34.5557C0.849112 33.9523 0.849112 32.9739 1.45267 32.3704L5.63649 28.1873V15.6927C5.63649 15.2829 5.79932 14.8899 6.08915 14.6001L16.5212 4.16966ZM19.6772 27.2821H10.9131L14.0041 24.1916H22.759L19.6772 27.2821ZM25.8371 21.1049L29.6409 17.2904L29.6425 17.2888C31.0927 15.8389 31.9073 13.8724 31.9073 11.8219C31.9073 9.7714 31.0927 7.80489 29.6425 6.35497C28.1924 4.90505 26.2255 4.0905 24.1747 4.0905C22.1239 4.0905 20.1571 4.90505 18.7069 6.35497L8.72748 16.3328V25.0968L23.0896 10.737C23.6932 10.1335 24.6717 10.1335 25.2753 10.737C25.8788 11.3404 25.8788 12.3188 25.2753 12.9223L17.0951 21.1011H25.7279C25.7646 21.1011 25.801 21.1024 25.8371 21.1049Z" fill="#153E67"/>
</svg>
