<svg width="36" height="36" viewBox="0 0 36 36" fill="none" xmlns="http://www.w3.org/2000/svg">
<path fill-rule="evenodd" clip-rule="evenodd" d="M4.5 12C4.5 11.1716 5.17157 10.5 6 10.5H30C30.8284 10.5 31.5 11.1716 31.5 12C31.5 12.8284 30.8284 13.5 30 13.5H6C5.17157 13.5 4.5 12.8284 4.5 12ZM4.5 18C4.5 17.1716 5.17157 16.5 6 16.5H24C24.8284 16.5 25.5 17.1716 25.5 18C25.5 18.8284 24.8284 19.5 24 19.5H6C5.17157 19.5 4.5 18.8284 4.5 18ZM6 22.5C5.17157 22.5 4.5 23.1716 4.5 24C4.5 24.8284 5.17157 25.5 6 25.5L17 25.5C17.8284 25.5 18.5 24.8284 18.5 24C18.5 23.1716 17.8284 22.5 17 22.5L6 22.5Z" fill="#153E67"/>
<path d="M27.5446 22.9881L31.0209 26.4645C31.41 26.8536 31.5528 27.3451 31.5027 27.8096C31.4178 28.5985 30.7769 29.3096 29.8424 29.3096H22.8897C21.4049 29.3096 20.6613 27.5144 21.7112 26.4645L25.1875 22.9881C25.513 22.6627 25.9395 22.5 26.366 22.5C26.7926 22.5 27.2191 22.6627 27.5446 22.9881Z" fill="#153E67"/>
</svg>
