<svg width="36" height="36" viewBox="0 0 36 36" fill="none" xmlns="http://www.w3.org/2000/svg">
    <path fill-rule="evenodd" clip-rule="evenodd"
          d="M4.5 11.5C4.5 10.6716 5.17157 10 6 10H30C30.8284 10 31.5 10.6716 31.5 11.5C31.5 12.3284 30.8284 13 30 13H6C5.17157 13 4.5 12.3284 4.5 11.5ZM4.5 17.5C4.5 16.6716 5.17157 16 6 16H24C24.8284 16 25.5 16.6716 25.5 17.5C25.5 18.3284 24.8284 19 24 19H6C5.17157 19 4.5 18.3284 4.5 17.5ZM6 22C5.17157 22 4.5 22.6716 4.5 23.5C4.5 24.3284 5.17157 25 6 25L17 25C17.8284 25 18.5 24.3284 18.5 23.5C18.5 22.6716 17.8284 22 17 22L6 22Z"
          fill="#153E67"/>
    <path class="filterDropdown" d="M27.5446 28.3215L31.0209 24.8452C31.41 24.456 31.5528 23.9645 31.5027 23.5C31.4178 22.7111 30.7769 22 29.8424 22H22.8897C21.4049 22 20.6613 23.7952 21.7112 24.8452L25.1875 28.3215C25.8384 28.9724 26.8937 28.9724 27.5446 28.3215Z"
          fill="#153E67"/>
</svg>
