<svg width="36" height="36" viewBox="0 0 36 36" fill="none" xmlns="http://www.w3.org/2000/svg">
    <path fill-rule="evenodd" clip-rule="evenodd"
          d="M4.5 12C4.5 11.1716 5.17157 10.5 6 10.5H30C30.8284 10.5 31.5 11.1716 31.5 12C31.5 12.8284 30.8284 13.5 30 13.5H6C5.17157 13.5 4.5 12.8284 4.5 12ZM4.5 18C4.5 17.1716 5.17157 16.5 6 16.5H24C24.8284 16.5 25.5 17.1716 25.5 18C25.5 18.8284 24.8284 19.5 24 19.5H6C5.17157 19.5 4.5 18.8284 4.5 18ZM6 22.5C5.17157 22.5 4.5 23.1716 4.5 24C4.5 24.8284 5.17157 25.5 6 25.5L17 25.5C17.8284 25.5 18.5 24.8284 18.5 24C18.5 23.1716 17.8284 22.5 17 22.5L6 22.5Z"
          fill="#153E67"/>
    <path class="filterDropdown"
          d="M27.5446 28.8215L31.0209 25.3452C31.41 24.956 31.5528 24.4645 31.5027 24C31.4178 23.2111 30.7769 22.5 29.8424 22.5H22.8897C21.4049 22.5 20.6613 24.2952 21.7112 25.3452L25.1875 28.8215C25.8384 29.4724 26.8937 29.4724 27.5446 28.8215Z"
          fill="#153E67"/>
</svg>
