<svg width="36" height="36" viewBox="0 0 36 36" fill="none" xmlns="http://www.w3.org/2000/svg" class="strokeicon">
    <path d="M13.5001 29.15C6.07223 31.0723 7.00784 25.5 3.5 25.5M13.5001 33.5V28C13.5001 28 13.4538 27.0811 13.793 26.1501C14.036 25.4833 14.5044 25.0107 14.9979 24.5008C10.2879 23.9158 5.50006 22.1279 5.50006 13.9979C5.48885 11.8881 6.04525 9.72326 7.50006 8.19521C6.81628 6.36297 6.86463 4.33773 7.63506 2.54021C7.63506 2.54021 9.25766 2.0536 13.5001 4.50002C15.1379 4.05612 16.818 4.02097 18.5001 4.00002C20.1821 4.02097 21.862 4.05612 23.4998 4.50002C27.7422 2.0536 29.3648 2.54021 29.3648 2.54021C30.1353 4.33773 30.1836 6.36297 29.4998 8.19521C30.9546 9.72326 31.5111 11.8881 31.4998 13.9979C31.4998 22.1279 26.712 23.9158 22.002 24.5008C22.4955 25.0107 22.9639 25.4833 23.2069 26.1501C23.5461 27.0811 23.4998 28 23.4998 28V33.5"
          stroke="#153E67" stroke-width="3" stroke-linecap="round" stroke-linejoin="round"/>
</svg>
