<svg width="36" height="36" viewBox="0 0 36 36" fill="none" xmlns="http://www.w3.org/2000/svg">
<path d="M13.5 28.5402C6 30.7902 6 24.7902 3 24.0402M24 33.0402V27.2352C24.0563 26.5199 23.9596 25.8009 23.7165 25.1259C23.4734 24.4509 23.0894 23.8353 22.59 23.3202C27.3 22.7952 32.25 21.0102 32.25 12.8202C32.2496 10.7259 31.444 8.71199 30 7.19519C30.6838 5.36295 30.6354 3.33771 29.865 1.54019C29.865 1.54019 28.095 1.01519 24 3.76019C20.562 2.82842 16.938 2.82842 13.5 3.76019C9.405 1.01519 7.635 1.54019 7.635 1.54019C6.86456 3.33771 6.81622 5.36295 7.5 7.19519C6.04519 8.72324 5.23878 10.7554 5.25 12.8652C5.25 20.9952 10.2 22.7802 14.91 23.3652C14.4165 23.8751 14.0359 24.4833 13.793 25.1501C13.55 25.8168 13.4502 26.5273 13.5 27.2352V33.0402" stroke="#153E67" stroke-width="3" stroke-linecap="round" stroke-linejoin="round"/>
</svg>
