<svg width="36" height="36" viewBox="0 0 36 36" fill="none" xmlns="http://www.w3.org/2000/svg">
    <path fill-rule="evenodd" clip-rule="evenodd"
          d="M3.75 10.5C3.75 7.18629 6.43629 4.5 9.75 4.5H24.75C28.0637 4.5 30.75 7.18629 30.75 10.5V25.5C30.75 28.8137 28.0637 31.5 24.75 31.5H9.75C6.43629 31.5 3.75 28.8137 3.75 25.5V10.5ZM9.75 1.5C4.77944 1.5 0.75 5.52944 0.75 10.5V25.5C0.75 30.4706 4.77944 34.5 9.75 34.5H24.75C29.7206 34.5 33.75 30.4706 33.75 25.5V10.5C33.75 5.52944 29.7206 1.5 24.75 1.5H9.75ZM15.2419 13.9408C16.082 13.5049 17.0383 13.3449 17.9745 13.4838C18.9296 13.6254 19.8137 14.0704 20.4964 14.7531C21.1791 15.4358 21.6242 16.32 21.7658 17.275C21.9046 18.2113 21.7447 19.1675 21.3088 20.0077C20.8728 20.8478 20.1831 21.5291 19.3376 21.9547C18.4922 22.3802 17.534 22.5283 16.5995 22.3779C15.6651 22.2276 14.8018 21.7864 14.1325 21.1171C13.4632 20.4478 13.022 19.5845 12.8716 18.65C12.7212 17.7155 12.8694 16.7574 13.2949 15.9119C13.7204 15.0665 14.4017 14.3767 15.2419 13.9408ZM18.4146 10.5162C16.8541 10.2848 15.2604 10.5514 13.8602 11.2779C12.4599 12.0045 11.3244 13.1541 10.6152 14.5632C9.90596 15.9723 9.65909 17.5691 9.90971 19.1266C10.1603 20.6841 10.8957 22.1229 12.0112 23.2384C13.1266 24.3539 14.5654 25.0892 16.1229 25.3398C17.6804 25.5905 19.2773 25.3436 20.6864 24.6344C22.0955 23.9251 23.2451 22.7896 23.9716 21.3894C24.6982 19.9891 24.9647 18.3954 24.7333 16.835C24.4973 15.2432 23.7556 13.7696 22.6178 12.6318C21.4799 11.494 20.0063 10.7523 18.4146 10.5162Z"
          fill="#153E67"/>
</svg>
