<svg width="36" height="36" viewBox="0 0 36 36" fill="none" xmlns="http://www.w3.org/2000/svg">
    <path fill-rule="evenodd" clip-rule="evenodd"
          d="M10.5 6H25.5C27.9853 6 30 8.01472 30 10.5V25.5C30 27.9853 27.9853 30 25.5 30H10.5C8.01472 30 6 27.9853 6 25.5V10.5C6 8.01472 8.01472 6 10.5 6ZM25.5 3H10.5C6.35786 3 3 6.35786 3 10.5V25.5C3 29.6421 6.35786 33 10.5 33H25.5C29.6421 33 33 29.6421 33 25.5V10.5C33 6.35786 29.6421 3 25.5 3ZM21.9567 17.4133C22.0801 18.2455 21.938 19.0955 21.5505 19.8423C21.163 20.5891 20.5499 21.1947 19.7984 21.5729C19.0468 21.9512 18.1952 22.0829 17.3645 21.9492C16.5339 21.8155 15.7665 21.4233 15.1716 20.8284C14.5767 20.2335 14.1845 19.4661 14.0508 18.6355C13.9171 17.8048 14.0488 16.9532 14.4271 16.2016C14.8053 15.4501 15.4109 14.837 16.1577 14.4495C16.9045 14.062 17.7545 13.9199 18.5867 14.0433C19.4357 14.1692 20.2216 14.5647 20.8284 15.1716C21.4353 15.7784 21.8308 16.5643 21.9567 17.4133ZM24.9243 16.9732C25.1402 18.4296 24.8915 19.9171 24.2134 21.224C23.5352 22.5309 22.4623 23.5907 21.1471 24.2526C19.832 24.9146 18.3416 25.145 16.8879 24.9111C15.4343 24.6772 14.0914 23.9909 13.0503 22.9497C12.0091 21.9086 11.3228 20.5657 11.0889 19.1121C10.855 17.6584 11.0854 16.168 11.7474 14.8529C12.4093 13.5377 13.4691 12.4648 14.776 11.7866C16.0829 11.1085 17.5704 10.8598 19.0268 11.0757C20.5124 11.296 21.8878 11.9883 22.9497 13.0503C24.0117 14.1122 24.704 15.4876 24.9243 16.9732Z"
          fill="#153E67"/>
</svg>
