<svg width="36" height="36" viewBox="0 0 36 36" fill="none" xmlns="http://www.w3.org/2000/svg">
    <path fill-rule="evenodd" clip-rule="evenodd"
          d="M18 0C18.8284 0 19.5 0.671573 19.5 1.5V4.5C19.5 5.32843 18.8284 6 18 6C17.1716 6 16.5 5.32843 16.5 4.5V1.5C16.5 0.671573 17.1716 0 18 0ZM18 12C14.6863 12 12 14.6863 12 18C12 21.3137 14.6863 24 18 24C21.3137 24 24 21.3137 24 18C24 14.6863 21.3137 12 18 12ZM9 18C9 13.0294 13.0294 9 18 9C22.9706 9 27 13.0294 27 18C27 22.9706 22.9706 27 18 27C13.0294 27 9 22.9706 9 18ZM19.5 31.5C19.5 30.6716 18.8284 30 18 30C17.1716 30 16.5 30.6716 16.5 31.5V34.5C16.5 35.3284 17.1716 36 18 36C18.8284 36 19.5 35.3284 19.5 34.5V31.5ZM5.26893 5.2693C5.85472 4.68351 6.80446 4.68351 7.39025 5.2693L9.52025 7.3993C10.106 7.98508 10.106 8.93483 9.52025 9.52062C8.93446 10.1064 7.98472 10.1064 7.39893 9.52062L5.26893 7.39062C4.68314 6.80483 4.68314 5.85508 5.26893 5.2693ZM28.6012 26.4793C28.0154 25.8935 27.0657 25.8935 26.4799 26.4793C25.8941 27.0651 25.8941 28.0149 26.4799 28.6006L28.6099 30.7306C29.1957 31.3164 30.1454 31.3164 30.7312 30.7306C31.317 30.1449 31.317 29.1951 30.7312 28.6093L28.6012 26.4793ZM0 18C0 17.1716 0.671573 16.5 1.5 16.5H4.5C5.32843 16.5 6 17.1716 6 18C6 18.8284 5.32843 19.5 4.5 19.5H1.5C0.671573 19.5 0 18.8284 0 18ZM31.5 16.5C30.6716 16.5 30 17.1716 30 18C30 18.8284 30.6716 19.5 31.5 19.5H34.5C35.3284 19.5 36 18.8284 36 18C36 17.1716 35.3284 16.5 34.5 16.5H31.5ZM9.52025 26.4793C10.106 27.0651 10.106 28.0149 9.52025 28.6006L7.39025 30.7306C6.80446 31.3164 5.85472 31.3164 5.26893 30.7306C4.68314 30.1449 4.68314 29.1951 5.26893 28.6093L7.39893 26.4793C7.98472 25.8935 8.93446 25.8935 9.52025 26.4793ZM30.7312 7.39062C31.317 6.80483 31.317 5.85508 30.7312 5.2693C30.1454 4.68351 29.1957 4.68351 28.6099 5.2693L26.4799 7.3993C25.8941 7.98508 25.8941 8.93483 26.4799 9.52062C27.0657 10.1064 28.0154 10.1064 28.6012 9.52062L30.7312 7.39062Z"
          fill="#153E67"/>
</svg>
