<svg width="36" height="36" viewBox="0 0 36 36" fill="none" xmlns="http://www.w3.org/2000/svg">
    <path fill-rule="evenodd" clip-rule="evenodd"
          d="M3.75 7.5C3.75 6.67157 4.42157 6 5.25 6C6.07843 6 6.75 6.67157 6.75 7.5C6.75 8.32843 6.07843 9 5.25 9C4.42157 9 3.75 8.32843 3.75 7.5ZM5.25 3C2.76472 3 0.75 5.01472 0.75 7.5C0.75 9.98528 2.76472 12 5.25 12C7.73528 12 9.75 9.98528 9.75 7.5C9.75 5.01472 7.73528 3 5.25 3ZM23.25 15C21.2609 15 19.3532 15.7902 17.9467 17.1967C16.5402 18.6032 15.75 20.5109 15.75 22.5V31.5H18.75V22.5C18.75 21.3065 19.2241 20.1619 20.068 19.318C20.9119 18.4741 22.0565 18 23.25 18C24.4435 18 25.5881 18.4741 26.432 19.318C27.2759 20.1619 27.75 21.3065 27.75 22.5V31.5H30.75V22.5C30.75 20.5109 29.9598 18.6032 28.5533 17.1967C27.1468 15.7902 25.2391 15 23.25 15ZM23.25 12C20.4652 12 17.7945 13.1062 15.8254 15.0754C13.8562 17.0445 12.75 19.7152 12.75 22.5V33C12.75 33.8284 13.4216 34.5 14.25 34.5H20.25C21.0784 34.5 21.75 33.8284 21.75 33V22.5C21.75 22.1022 21.908 21.7206 22.1893 21.4393C22.4706 21.158 22.8522 21 23.25 21C23.6478 21 24.0294 21.158 24.3107 21.4393C24.592 21.7206 24.75 22.1022 24.75 22.5V33C24.75 33.8284 25.4216 34.5 26.25 34.5H32.25C33.0784 34.5 33.75 33.8284 33.75 33V22.5C33.75 19.7152 32.6438 17.0445 30.6746 15.0754C28.7055 13.1062 26.0348 12 23.25 12ZM0.75 15C0.75 14.1716 1.42157 13.5 2.25 13.5H8.25C9.07843 13.5 9.75 14.1716 9.75 15V33C9.75 33.8284 9.07843 34.5 8.25 34.5H2.25C1.42157 34.5 0.75 33.8284 0.75 33V15ZM3.75 16.5V31.5H6.75V16.5H3.75Z"
          fill="#153E67"/>
</svg>
