<svg width="36" height="36" viewBox="0 0 36 36" fill="none" xmlns="http://www.w3.org/2000/svg">
    <path fill-rule="evenodd" clip-rule="evenodd"
          d="M5 6.5C5 5.67157 5.67157 5 6.5 5C7.32843 5 8 5.67157 8 6.5C8 7.32843 7.32843 8 6.5 8C5.67157 8 5 7.32843 5 6.5ZM6.5 2C4.01472 2 2 4.01472 2 6.5C2 8.98528 4.01472 11 6.5 11C8.98528 11 11 8.98528 11 6.5C11 4.01472 8.98528 2 6.5 2ZM23.5 14.5C21.5109 14.5 19.6032 15.2902 18.1967 16.6967C16.7902 18.1032 16 20.0109 16 22V31H19V22C19 20.8065 19.4741 19.6619 20.318 18.818C21.1619 17.9741 22.3065 17.5 23.5 17.5C24.6935 17.5 25.8381 17.9741 26.682 18.818C27.5259 19.6619 28 20.8065 28 22V31H31V22C31 20.0109 30.2098 18.1032 28.8033 16.6967C27.3968 15.2902 25.4891 14.5 23.5 14.5ZM23.5 11.5C20.7152 11.5 18.0445 12.6062 16.0754 14.5754C14.1062 16.5445 13 19.2152 13 22V32.5C13 33.3284 13.6716 34 14.5 34H20.5C21.3284 34 22 33.3284 22 32.5V22C22 21.6022 22.158 21.2206 22.4393 20.9393C22.7206 20.658 23.1022 20.5 23.5 20.5C23.8978 20.5 24.2794 20.658 24.5607 20.9393C24.842 21.2206 25 21.6022 25 22V32.5C25 33.3284 25.6716 34 26.5 34H32.5C33.3284 34 34 33.3284 34 32.5V22C34 19.2152 32.8938 16.5445 30.9246 14.5754C28.9555 12.6062 26.2848 11.5 23.5 11.5ZM2 14.5C2 13.6716 2.67157 13 3.5 13H9.5C10.3284 13 11 13.6716 11 14.5V32.5C11 33.3284 10.3284 34 9.5 34H3.5C2.67157 34 2 33.3284 2 32.5V14.5ZM5 16V31H8V16H5Z"
          fill="#153E67"/>
</svg>
