<svg width="36" height="36" viewBox="0 0 36 36" fill="none" xmlns="http://www.w3.org/2000/svg">
    <path fill-rule="evenodd" clip-rule="evenodd"
          d="M4.65987 8.33092L18 17.669L31.3401 8.33092C31.0921 7.84038 30.5819 7.5 30 7.5H6C5.41806 7.5 4.90794 7.84038 4.65987 8.33092ZM31.5 11.881L18.8602 20.7288C18.3437 21.0904 17.6563 21.0904 17.1398 20.7288L4.5 11.881V27C4.5 27.8216 5.17843 28.5 6 28.5H30C30.8216 28.5 31.5 27.8216 31.5 27V11.881ZM1.5 9C1.5 6.52157 3.52157 4.5 6 4.5H30C32.4784 4.5 34.5 6.52157 34.5 9V27C34.5 29.4784 32.4784 31.5 30 31.5H6C3.52157 31.5 1.5 29.4784 1.5 27V9Z"
          fill="#153E67"/>
</svg>
