<svg width="36" height="36" viewBox="0 0 36 36" fill="none" xmlns="http://www.w3.org/2000/svg">
    <path fill-rule="evenodd" clip-rule="evenodd"
          d="M5.5 7H30.5C30.64 7 30.7755 7.01918 30.9041 7.05506L18.2881 15.9604C18.1153 16.0825 17.8843 16.0825 17.7115 15.9604L5.09562 7.05514C5.22427 7.01921 5.35989 7 5.5 7ZM1.04412 7.86737C1.01504 8.07407 1 8.28528 1 8.5V27.5C1 29.9853 3.01472 32 5.5 32H30.5C32.9853 32 35 29.9853 35 27.5V8.5C35 6.01472 32.9853 4 30.5 4H5.5C4.32427 4 3.25385 4.4509 2.45223 5.18921L2.45214 5.18915C1.70566 5.87663 1.19226 6.81333 1.04395 7.86725L1.04412 7.86737ZM4 9.95387L15.9814 18.4113C17.1915 19.2655 18.8081 19.2655 20.0182 18.4113L32 9.95359V27.5C32 28.3284 31.3284 29 30.5 29H5.5C4.67157 29 4 28.3284 4 27.5V9.95387Z"
          fill="#153E67"/>
</svg>
