<svg width="36" height="36" viewBox="0 0 36 36" fill="none" xmlns="http://www.w3.org/2000/svg">
    <path fill-rule="evenodd" clip-rule="evenodd"
          d="M18.75 6C12.5368 6 7.50004 11.0368 7.50004 17.25C7.50004 18.8293 7.82459 20.3289 8.4092 21.6888C8.68985 22.3416 8.76629 23.1132 8.52637 23.861L6.82855 29.1525L12.0209 27.44C12.7832 27.1886 13.5727 27.2674 14.2376 27.5589C15.617 28.1636 17.1423 28.5 18.75 28.5C24.9632 28.5 30 23.4632 30 17.25C30 11.0368 24.9632 6 18.75 6ZM4.50004 17.25C4.50004 9.37994 10.88 3 18.75 3C26.6201 3 33 9.37994 33 17.25C33 25.1201 26.6201 31.5 18.75 31.5C16.7198 31.5 14.785 31.0745 13.033 30.3064C13.0055 30.2943 12.9835 30.2903 12.9703 30.2895C12.9642 30.2891 12.9606 30.2894 12.9591 30.2896L4.96987 32.9245C4.43401 33.1013 3.84429 32.9623 3.44369 32.5649C3.04308 32.1676 2.89937 31.579 3.07176 31.0417L5.66933 22.9459C5.66951 22.9445 5.66978 22.9409 5.66939 22.9349C5.66855 22.9221 5.66471 22.9007 5.65309 22.8736C4.91055 21.1464 4.50004 19.2442 4.50004 17.25Z"
          fill="#153E67"/>
</svg>
