<svg width="36" height="36" viewBox="0 0 36 36" fill="none" xmlns="http://www.w3.org/2000/svg">
    <path fill-rule="evenodd" clip-rule="evenodd"
          d="M27 4.5C25.3431 4.5 24 5.84315 24 7.5C24 8.02096 24.1328 8.5109 24.3664 8.93783C24.3816 8.961 24.3964 8.98471 24.4105 9.00897C24.4246 9.03305 24.4379 9.05736 24.4505 9.08188C24.9798 9.93323 25.9237 10.5 27 10.5C28.6569 10.5 30 9.15685 30 7.5C30 5.84315 28.6569 4.5 27 4.5ZM22.7371 11.7223C23.8245 12.82 25.3328 13.5 27 13.5C30.3137 13.5 33 10.8137 33 7.5C33 4.18629 30.3137 1.5 27 1.5C23.6863 1.5 21 4.18629 21 7.5C21 8.06553 21.0782 8.61279 21.2245 9.13154L13.2629 13.7777C12.1756 12.68 10.6672 12 9 12C5.68629 12 3 14.6863 3 18C3 21.3137 5.68629 24 9 24C10.6675 24 12.1761 23.3198 13.2635 22.2217L21.2264 26.8618C21.0789 27.3825 21 27.9321 21 28.5C21 31.8137 23.6863 34.5 27 34.5C30.3137 34.5 33 31.8137 33 28.5C33 25.1863 30.3137 22.5 27 22.5C25.3353 22.5 23.829 23.1779 22.742 24.2728L14.7757 19.6307C14.9218 19.1122 15 18.5652 15 18C15 17.4345 14.9218 16.8872 14.7755 16.3685L22.7371 11.7223ZM11.5496 16.4182C11.5621 16.4427 11.5754 16.467 11.5895 16.4911C11.6036 16.5153 11.6184 16.539 11.6336 16.5622C11.8672 16.9891 12 17.479 12 18C12 18.521 11.8672 19.011 11.6335 19.438C11.6181 19.4614 11.6033 19.4853 11.589 19.5098C11.5752 19.5335 11.562 19.5575 11.5497 19.5817C11.0203 20.4332 10.0764 21 9 21C7.34315 21 6 19.6569 6 18C6 16.3431 7.34315 15 9 15C10.0763 15 11.0202 15.5668 11.5496 16.4182ZM24 28.5C24 28.0123 24.1164 27.5518 24.3228 27.1447C24.3599 27.096 24.3944 27.0445 24.426 26.9902C24.4563 26.9382 24.4832 26.8851 24.5066 26.8313C25.0449 26.0284 25.9608 25.5 27 25.5C28.6569 25.5 30 26.8431 30 28.5C30 30.1569 28.6569 31.5 27 31.5C25.3431 31.5 24 30.1569 24 28.5Z"
          fill="#153E67"/>
</svg>
