<svg width="36" height="36" viewBox="0 0 36 36" fill="none" xmlns="http://www.w3.org/2000/svg">
    <path fill-rule="evenodd" clip-rule="evenodd"
          d="M27 12C28.6569 12 30 10.6569 30 9C30 7.34315 28.6569 6 27 6C25.3431 6 24 7.34315 24 9C24 10.6569 25.3431 12 27 12ZM27 15C30.3137 15 33 12.3137 33 9C33 5.68629 30.3137 3 27 3C23.6863 3 21 5.68629 21 9C21 12.3137 23.6863 15 27 15ZM13.5254 14.0602L21.1319 10.257C21.3477 11.2693 21.8188 12.1871 22.4746 12.9398L14.8681 16.743C14.9545 17.1484 15 17.5689 15 18C15 18.4311 14.9545 18.8517 14.8681 19.257L22.4746 23.0603C23.5745 21.7978 25.1941 21 27 21C30.3137 21 33 23.6863 33 27C33 30.3137 30.3137 33 27 33C23.6863 33 21 30.3137 21 27C21 26.0331 21.2287 25.1196 21.635 24.3106C21.4099 24.7589 21.2393 25.2392 21.1319 25.743L13.5254 21.9398C12.4254 23.2022 10.8059 24 9 24C5.68629 24 3 21.3137 3 18C3 14.6863 5.68629 12 9 12C10.8059 12 12.4254 12.7978 13.5254 14.0602ZM12 18C12 19.6569 10.6569 21 9 21C7.34315 21 6 19.6569 6 18C6 16.3431 7.34315 15 9 15C10.6569 15 12 16.3431 12 18ZM30 27C30 28.6569 28.6569 30 27 30C25.3431 30 24 28.6569 24 27C24 25.3431 25.3431 24 27 24C28.6569 24 30 25.3431 30 27Z"
          fill="#153E67"/>
</svg>
