<svg width="36" height="36" viewBox="0 0 36 36" fill="none" xmlns="http://www.w3.org/2000/svg">
    <path fill-rule="evenodd" clip-rule="evenodd"
          d="M19.4445 2.06432C18.9687 2.02175 18.4869 2 18 2C17.5131 2 17.0313 2.02175 16.5555 2.06432C8.39581 2.79446 2 9.65032 2 18C2 26.3432 8.38589 33.1949 16.5365 33.934C17.0185 33.9777 17.5066 34 18 34C18.4934 34 18.9815 33.9777 19.4635 33.934C27.6141 33.1949 34 26.3432 34 18C34 9.65032 27.6042 2.79446 19.4445 2.06432ZM5.0856 16.5C5.66871 11.4247 9.17471 7.23843 13.8778 5.66715C11.8381 8.93408 10.4384 12.6855 10.0842 16.5H5.0856ZM5.0856 19.5H10.0841C10.4376 23.3081 11.832 27.0607 13.8651 30.3286C9.16839 28.754 5.66818 24.5708 5.0856 19.5ZM13.0993 19.5C13.5426 23.5878 15.3808 27.6876 17.9964 31L18 31L18.0036 31C20.6192 27.6876 22.4574 23.5878 22.9007 19.5H13.0993ZM30.9144 19.5C30.3318 24.5708 26.8316 28.754 22.1349 30.3286C24.168 27.0607 25.5624 23.3081 25.9159 19.5H30.9144ZM30.9144 16.5H25.9158C25.5616 12.6855 24.1619 8.93408 22.1222 5.66715C26.8253 7.23843 30.3313 11.4247 30.9144 16.5ZM18 5.01472C20.618 8.32549 22.4571 12.4141 22.9006 16.5H13.0994C13.5429 12.4141 15.382 8.32549 18 5.01472Z"
          fill="#153E67"/>
</svg>
