<svg width="36" height="36" viewBox="0 0 36 36" fill="none" xmlns="http://www.w3.org/2000/svg">
<path fill-rule="evenodd" clip-rule="evenodd" d="M13.8386 4.93474C8.50321 6.32396 4.45201 10.8949 3.83239 16.5H9.82514C10.1614 12.3552 11.5487 8.37663 13.8386 4.93474ZM20.6614 4.93474C22.9513 8.37663 24.3386 12.3552 24.6749 16.5H30.6676C30.048 10.8949 25.9968 6.32396 20.6614 4.93474ZM21.6636 16.5C21.2868 12.4302 19.7545 8.5529 17.25 5.3262C14.7455 8.5529 13.2132 12.4302 12.8364 16.5H21.6636ZM12.8364 19.5H21.6636C21.2868 23.5698 19.7545 27.4471 17.25 30.6738C14.7455 27.4471 13.2132 23.5698 12.8364 19.5ZM9.82514 19.5H3.83239C4.45201 25.1051 8.50321 29.676 13.8386 31.0653C11.5487 27.6234 10.1614 23.6448 9.82514 19.5ZM20.6614 31.0653C22.9513 27.6234 24.3386 23.6448 24.6749 19.5H30.6676C30.048 25.1051 25.9968 29.676 20.6614 31.0653ZM17.25 34.5C26.3627 34.5 33.75 27.1127 33.75 18C33.75 8.8873 26.3627 1.5 17.25 1.5C8.1373 1.5 0.75 8.8873 0.75 18C0.75 27.1127 8.1373 34.5 17.25 34.5Z" fill="#153E67"/>
</svg>
