<svg width="36" height="36" viewBox="0 0 36 36" fill="none" xmlns="http://www.w3.org/2000/svg">
    <path fill-rule="evenodd" clip-rule="evenodd"
          d="M5.81802 2.81802C6.66193 1.97411 7.80653 1.5 9 1.5H21C21.3978 1.5 21.7794 1.65804 22.0607 1.93934L31.0607 10.9393C31.342 11.2206 31.5 11.6022 31.5 12V30C31.5 31.1935 31.0259 32.3381 30.182 33.182C29.3381 34.0259 28.1935 34.5 27 34.5H9C7.80653 34.5 6.66193 34.0259 5.81802 33.182C4.97411 32.3381 4.5 31.1935 4.5 30V6C4.5 4.80653 4.97411 3.66193 5.81802 2.81802ZM9 4.5C8.60217 4.5 8.22064 4.65804 7.93934 4.93934C7.65804 5.22064 7.5 5.60217 7.5 6V30C7.5 30.3978 7.65804 30.7794 7.93934 31.0607C8.22064 31.342 8.60218 31.5 9 31.5H27C27.3978 31.5 27.7794 31.342 28.0607 31.0607C28.342 30.7794 28.5 30.3978 28.5 30V13.5H21C20.1716 13.5 19.5 12.8284 19.5 12V4.5H9ZM22.5 6.62132L26.3787 10.5H22.5V6.62132Z"
          fill="#153E67"/>
    <path fill-rule="evenodd" clip-rule="evenodd"
          d="M19.5 15C19.5 14.1716 18.8284 13.5 18 13.5C17.1716 13.5 16.5 14.1716 16.5 15V19.5H12C11.1716 19.5 10.5 20.1716 10.5 21C10.5 21.8284 11.1716 22.5 12 22.5H16.5V27C16.5 27.8284 17.1716 28.5 18 28.5C18.8284 28.5 19.5 27.8284 19.5 27V22.5H24C24.8284 22.5 25.5 21.8284 25.5 21C25.5 20.1716 24.8284 19.5 24 19.5H19.5V15Z"
          fill="#153E67"/>
</svg>
