<svg width="36" height="36" viewBox="0 0 36 36" fill="none" xmlns="http://www.w3.org/2000/svg">
    <path fill-rule="evenodd" clip-rule="evenodd"
          d="M19.5 15.5C19.5 14.6716 18.8284 14 18 14C17.1716 14 16.5 14.6716 16.5 15.5V20H12C11.1716 20 10.5 20.6716 10.5 21.5C10.5 22.3284 11.1716 23 12 23H16.5V27.5C16.5 28.3284 17.1716 29 18 29C18.8284 29 19.5 28.3284 19.5 27.5V23H24C24.8284 23 25.5 22.3284 25.5 21.5C25.5 20.6716 24.8284 20 24 20H19.5V15.5Z"
          fill="#153E67"/>
    <path fill-rule="evenodd" clip-rule="evenodd"
          d="M27.5 32H8.5C7.67157 32 7 31.3284 7 30.5V5.5C7 4.67157 7.67157 4 8.5 4H19V9C19 11.7614 21.2386 14 24 14H29V30.5C29 31.3284 28.3284 32 27.5 32ZM31.8204 11C31.9376 11.2577 32 11.5399 32 11.8284V14V30.5C32 32.9853 29.9853 35 27.5 35H8.5C6.01472 35 4 32.9853 4 30.5V5.5C4 3.01472 6.01472 1 8.5 1H19H21.1716C21.4368 1 21.6966 1.05268 21.9369 1.15224C21.9581 1.16101 21.9791 1.17015 22 1.17964C22.216 1.27792 22.4148 1.41477 22.5858 1.58579L31.4142 10.4142C31.5852 10.5852 31.7221 10.784 31.8204 11ZM22 5.24264L27.7574 11H24C22.8954 11 22 10.1046 22 9V5.24264Z"
          fill="#153E67"/>
</svg>
