<svg width="36" height="36" viewBox="0 0 36 36" fill="none" xmlns="http://www.w3.org/2000/svg">
    <path fill-rule="evenodd" clip-rule="evenodd"
          d="M21.0388 3.54037C22.612 2.93991 24.3317 2.8371 25.9652 3.24583C27.2643 3.57087 28.459 4.20692 29.4495 5.09274C30.6678 4.64496 31.8233 4.03895 32.886 3.28934C33.3969 2.92894 34.0778 2.92327 34.5947 3.27512C35.1115 3.62696 35.356 4.26251 35.208 4.87001C34.6942 6.9798 33.6643 8.92443 32.2159 10.5315C32.2382 10.7736 32.2498 11.0167 32.2506 11.2601L32.2506 11.2651C32.2506 19.2452 28.339 25.3251 22.7435 28.9726C17.1847 32.5962 9.9778 33.8193 3.26886 32.2363C2.52723 32.0613 1.90878 31.6347 1.5272 31.0061C1.15924 30.3999 1.07845 29.718 1.17598 29.1143C1.36836 27.9234 2.29906 26.7781 3.75553 26.5174C5.26371 26.2475 6.70784 25.8839 7.93771 25.4488C4.391 23.2031 2.47657 20.3209 1.58164 17.3887C0.5038 13.8572 0.950023 10.4093 1.4878 8.17894C1.77783 6.97605 2.71561 6.24764 3.74001 6.07359C4.71973 5.90713 5.76665 6.23611 6.51378 6.9945C7.61948 8.11686 8.90466 9.05526 10.3215 9.7684C12.0193 10.623 13.8642 11.133 15.7502 11.2747C15.7391 9.61021 16.2336 7.98107 17.169 6.60317C18.1148 5.20996 19.4656 4.14083 21.0388 3.54037ZM25.2371 6.15611C24.1997 5.89655 23.1076 5.96184 22.1086 6.34316C21.1096 6.72447 20.2517 7.40341 19.6511 8.28815C19.0505 9.17288 18.7361 10.2207 18.7505 11.29L18.7507 11.3101L18.7506 12.8101C18.7506 13.6234 18.1025 14.2885 17.2895 14.3096C14.4061 14.3843 11.5491 13.7449 8.97272 12.4481C7.20464 11.5582 5.85023 10.3413 4.35725 9.0819C3.90895 11.0383 3.62062 13.7923 4.45098 16.513C5.28777 19.2547 7.30544 22.1202 11.8598 24.1444C12.3575 24.3656 12.6962 24.8392 12.7447 25.3817C12.7931 25.9242 12.5437 26.4503 12.093 26.7562C10.1787 28.0556 7.24952 28.9235 4.48467 29.434C10.2695 30.6508 16.4001 29.5266 21.1052 26.4595C25.9162 23.3233 29.2498 18.1566 29.2506 11.2676C29.2494 10.9434 29.2181 10.6201 29.1573 10.3017C29.0633 9.80992 29.2208 9.30365 29.5773 8.95207C29.9115 8.62254 30.221 8.27133 30.5041 7.90134C30.1644 8.02667 29.8205 8.14176 29.4731 8.24638C28.9082 8.4165 28.296 8.23963 27.9088 7.79444C27.207 6.98757 26.2744 6.41568 25.2371 6.15611Z"
          fill="#153E67"/>
</svg>
