<svg width="1013" height="390" viewBox="0 0 1013 390" fill="none" xmlns="http://www.w3.org/2000/svg">
<path d="M462 342.079V143.1L256.677 36L49 140.8V342.079C49 349.215 54.7783 355 61.9062 355H449.094C456.222 355 462 349.215 462 342.079Z" fill="white" stroke="black" stroke-width="4"/>
<rect x="87.1375" y="53.5049" width="334.144" height="246.662" rx="3" fill="white" stroke="black" stroke-width="4"/>
<path d="M462 149.135V342.079C462 349.215 456.222 355 449.094 355H61.9062C54.7783 355 49 349.215 49 342.079V146.025L255.465 254.873L462 149.135Z" fill="white" stroke="black" stroke-width="4"/>
<path d="M192.277 176V133.344H206.896C211.721 133.344 215.393 134.311 217.912 136.244C220.432 138.178 221.691 141.059 221.691 144.887C221.691 146.84 221.164 148.598 220.109 150.16C219.055 151.723 217.512 152.934 215.48 153.793C217.785 154.418 219.562 155.6 220.812 157.338C222.082 159.057 222.717 161.127 222.717 163.549C222.717 167.553 221.428 170.629 218.85 172.777C216.291 174.926 212.619 176 207.834 176H192.277ZM199.689 156.752V170.082H207.922C210.246 170.082 212.062 169.506 213.371 168.354C214.68 167.201 215.334 165.6 215.334 163.549C215.334 159.115 213.068 156.85 208.537 156.752H199.689ZM199.689 151.303H206.955C209.26 151.303 211.057 150.785 212.346 149.75C213.654 148.695 214.309 147.211 214.309 145.297C214.309 143.188 213.703 141.664 212.492 140.727C211.301 139.789 209.436 139.32 206.896 139.32H199.689V151.303ZM228.107 159.857C228.107 156.752 228.723 153.959 229.953 151.479C231.184 148.979 232.912 147.064 235.139 145.736C237.365 144.389 239.924 143.715 242.814 143.715C247.092 143.715 250.559 145.092 253.215 147.846C255.891 150.6 257.336 154.252 257.551 158.803L257.58 160.473C257.58 163.598 256.975 166.391 255.764 168.852C254.572 171.312 252.854 173.217 250.607 174.564C248.381 175.912 245.803 176.586 242.873 176.586C238.4 176.586 234.816 175.102 232.121 172.133C229.445 169.145 228.107 165.17 228.107 160.209V159.857ZM235.227 160.473C235.227 163.734 235.9 166.293 237.248 168.148C238.596 169.984 240.471 170.902 242.873 170.902C245.275 170.902 247.141 169.965 248.469 168.09C249.816 166.215 250.49 163.471 250.49 159.857C250.49 156.654 249.797 154.115 248.41 152.24C247.043 150.365 245.178 149.428 242.814 149.428C240.49 149.428 238.645 150.355 237.277 152.211C235.91 154.047 235.227 156.801 235.227 160.473ZM262.268 159.916C262.268 155.033 263.4 151.117 265.666 148.168C267.932 145.199 270.969 143.715 274.777 143.715C278.137 143.715 280.852 144.887 282.922 147.23V131H290.041V176H283.596L283.244 172.719C281.115 175.297 278.273 176.586 274.719 176.586C271.008 176.586 268 175.092 265.695 172.104C263.41 169.115 262.268 165.053 262.268 159.916ZM269.387 160.531C269.387 163.754 270.002 166.273 271.232 168.09C272.482 169.887 274.25 170.785 276.535 170.785C279.445 170.785 281.574 169.486 282.922 166.889V153.354C281.613 150.814 279.504 149.545 276.594 149.545C274.289 149.545 272.512 150.463 271.262 152.299C270.012 154.115 269.387 156.859 269.387 160.531ZM308.557 165.805L315.002 144.301H322.59L309.992 180.805C308.059 186.137 304.777 188.803 300.148 188.803C299.113 188.803 297.971 188.627 296.721 188.275V182.768L298.068 182.855C299.865 182.855 301.213 182.523 302.111 181.859C303.029 181.215 303.752 180.121 304.279 178.578L305.305 175.854L294.172 144.301H301.848L308.557 165.805Z" fill="black"/>
<path d="M180.939 327H173.557V308.045H154.484V327H147.072V284.344H154.484V302.098H173.557V284.344H180.939V327ZM203 327.586C198.488 327.586 194.826 326.17 192.014 323.338C189.221 320.486 187.824 316.697 187.824 311.971V311.092C187.824 307.928 188.43 305.105 189.641 302.625C190.871 300.125 192.59 298.182 194.797 296.795C197.004 295.408 199.465 294.715 202.18 294.715C206.496 294.715 209.826 296.092 212.17 298.846C214.533 301.6 215.715 305.496 215.715 310.535V313.406H195.002C195.217 316.023 196.086 318.094 197.609 319.617C199.152 321.141 201.086 321.902 203.41 321.902C206.672 321.902 209.328 320.584 211.379 317.947L215.217 321.609C213.947 323.504 212.248 324.979 210.119 326.033C208.01 327.068 205.637 327.586 203 327.586ZM202.15 300.428C200.197 300.428 198.615 301.111 197.404 302.479C196.213 303.846 195.451 305.75 195.119 308.191H208.684V307.664C208.527 305.281 207.893 303.484 206.779 302.273C205.666 301.043 204.123 300.428 202.15 300.428ZM240.207 327C239.895 326.395 239.621 325.408 239.387 324.041C237.121 326.404 234.348 327.586 231.066 327.586C227.883 327.586 225.285 326.678 223.273 324.861C221.262 323.045 220.256 320.799 220.256 318.123C220.256 314.744 221.506 312.156 224.006 310.359C226.525 308.543 230.119 307.635 234.787 307.635H239.152V305.555C239.152 303.914 238.693 302.605 237.775 301.629C236.857 300.633 235.461 300.135 233.586 300.135C231.965 300.135 230.637 300.545 229.602 301.365C228.566 302.166 228.049 303.191 228.049 304.441H220.93C220.93 302.703 221.506 301.082 222.658 299.578C223.811 298.055 225.373 296.863 227.346 296.004C229.338 295.145 231.555 294.715 233.996 294.715C237.707 294.715 240.666 295.652 242.873 297.527C245.08 299.383 246.213 302 246.271 305.379V319.676C246.271 322.527 246.672 324.803 247.473 326.502V327H240.207ZM232.385 321.873C233.791 321.873 235.109 321.531 236.34 320.848C237.59 320.164 238.527 319.246 239.152 318.094V312.117H235.314C232.678 312.117 230.695 312.576 229.367 313.494C228.039 314.412 227.375 315.711 227.375 317.391C227.375 318.758 227.824 319.852 228.723 320.672C229.641 321.473 230.861 321.873 232.385 321.873ZM252.395 310.916C252.395 306.033 253.527 302.117 255.793 299.168C258.059 296.199 261.096 294.715 264.904 294.715C268.264 294.715 270.979 295.887 273.049 298.23V282H280.168V327H273.723L273.371 323.719C271.242 326.297 268.4 327.586 264.846 327.586C261.135 327.586 258.127 326.092 255.822 323.104C253.537 320.115 252.395 316.053 252.395 310.916ZM259.514 311.531C259.514 314.754 260.129 317.273 261.359 319.09C262.609 320.887 264.377 321.785 266.662 321.785C269.572 321.785 271.701 320.486 273.049 317.889V304.354C271.74 301.814 269.631 300.545 266.721 300.545C264.416 300.545 262.639 301.463 261.389 303.299C260.139 305.115 259.514 307.859 259.514 311.531ZM301.555 327.586C297.043 327.586 293.381 326.17 290.568 323.338C287.775 320.486 286.379 316.697 286.379 311.971V311.092C286.379 307.928 286.984 305.105 288.195 302.625C289.426 300.125 291.145 298.182 293.352 296.795C295.559 295.408 298.02 294.715 300.734 294.715C305.051 294.715 308.381 296.092 310.725 298.846C313.088 301.6 314.27 305.496 314.27 310.535V313.406H293.557C293.771 316.023 294.641 318.094 296.164 319.617C297.707 321.141 299.641 321.902 301.965 321.902C305.227 321.902 307.883 320.584 309.934 317.947L313.771 321.609C312.502 323.504 310.803 324.979 308.674 326.033C306.564 327.068 304.191 327.586 301.555 327.586ZM300.705 300.428C298.752 300.428 297.17 301.111 295.959 302.479C294.768 303.846 294.006 305.75 293.674 308.191H307.238V307.664C307.082 305.281 306.447 303.484 305.334 302.273C304.221 301.043 302.678 300.428 300.705 300.428ZM336.418 301.805C335.48 301.648 334.514 301.57 333.518 301.57C330.256 301.57 328.059 302.82 326.926 305.32V327H319.807V295.301H326.604L326.779 298.846C328.498 296.092 330.881 294.715 333.928 294.715C334.943 294.715 335.783 294.852 336.447 295.125L336.418 301.805ZM358.684 318.387C358.684 317.117 358.156 316.15 357.102 315.486C356.066 314.822 354.338 314.236 351.916 313.729C349.494 313.221 347.473 312.576 345.852 311.795C342.297 310.076 340.52 307.586 340.52 304.324C340.52 301.59 341.672 299.305 343.977 297.469C346.281 295.633 349.211 294.715 352.766 294.715C356.555 294.715 359.611 295.652 361.936 297.527C364.279 299.402 365.451 301.834 365.451 304.822H358.332C358.332 303.455 357.824 302.322 356.809 301.424C355.793 300.506 354.445 300.047 352.766 300.047C351.203 300.047 349.924 300.408 348.928 301.131C347.951 301.854 347.463 302.82 347.463 304.031C347.463 305.125 347.922 305.975 348.84 306.58C349.758 307.186 351.613 307.801 354.406 308.426C357.199 309.031 359.387 309.764 360.969 310.623C362.57 311.463 363.752 312.479 364.514 313.67C365.295 314.861 365.686 316.307 365.686 318.006C365.686 320.857 364.504 323.172 362.141 324.949C359.777 326.707 356.682 327.586 352.854 327.586C350.256 327.586 347.941 327.117 345.91 326.18C343.879 325.242 342.297 323.953 341.164 322.312C340.031 320.672 339.465 318.904 339.465 317.01H346.379C346.477 318.689 347.111 319.988 348.283 320.906C349.455 321.805 351.008 322.254 352.941 322.254C354.816 322.254 356.242 321.902 357.219 321.199C358.195 320.477 358.684 319.539 358.684 318.387Z" fill="black"/>
<path d="M965 342.079V143.1L759.677 36L552 140.8V342.079C552 349.215 557.778 355 564.906 355H952.094C959.222 355 965 349.215 965 342.079Z" fill="white" stroke="black" stroke-width="4"/>
<rect x="590.137" y="53.5049" width="334.144" height="246.662" rx="3" fill="white" stroke="black" stroke-width="4"/>
<path d="M965 149.135V342.079C965 349.215 959.222 355 952.094 355H564.906C557.778 355 552 349.215 552 342.079V146.025L758.465 254.873L965 149.135Z" fill="white" stroke="black" stroke-width="4"/>
<path d="M696.801 186.547C689.906 184.613 686.391 180.209 686.254 173.334V167.094C686.254 162.699 684.369 160.502 680.6 160.502V155.287C684.369 155.287 686.254 153.08 686.254 148.666V142.455C686.312 138.939 687.221 136.098 688.979 133.93C690.756 131.762 693.363 130.189 696.801 129.213L698.207 133.314C694.828 134.408 693.08 137.396 692.963 142.279V148.607C692.963 153.002 691.273 156.088 687.895 157.865C691.273 159.662 692.963 162.777 692.963 167.211V173.451C693.08 178.334 694.828 181.322 698.207 182.416L696.801 186.547ZM701.43 159.916C701.43 155.033 702.562 151.117 704.828 148.168C707.094 145.199 710.131 143.715 713.939 143.715C717.299 143.715 720.014 144.887 722.084 147.23V131H729.203V176H722.758L722.406 172.719C720.277 175.297 717.436 176.586 713.881 176.586C710.17 176.586 707.162 175.092 704.857 172.104C702.572 169.115 701.43 165.053 701.43 159.916ZM708.549 160.531C708.549 163.754 709.164 166.273 710.395 168.09C711.645 169.887 713.412 170.785 715.697 170.785C718.607 170.785 720.736 169.486 722.084 166.889V153.354C720.775 150.814 718.666 149.545 715.756 149.545C713.451 149.545 711.674 150.463 710.424 152.299C709.174 154.115 708.549 156.859 708.549 160.531ZM755.57 176C755.258 175.395 754.984 174.408 754.75 173.041C752.484 175.404 749.711 176.586 746.43 176.586C743.246 176.586 740.648 175.678 738.637 173.861C736.625 172.045 735.619 169.799 735.619 167.123C735.619 163.744 736.869 161.156 739.369 159.359C741.889 157.543 745.482 156.635 750.15 156.635H754.516V154.555C754.516 152.914 754.057 151.605 753.139 150.629C752.221 149.633 750.824 149.135 748.949 149.135C747.328 149.135 746 149.545 744.965 150.365C743.93 151.166 743.412 152.191 743.412 153.441H736.293C736.293 151.703 736.869 150.082 738.021 148.578C739.174 147.055 740.736 145.863 742.709 145.004C744.701 144.145 746.918 143.715 749.359 143.715C753.07 143.715 756.029 144.652 758.236 146.527C760.443 148.383 761.576 151 761.635 154.379V168.676C761.635 171.527 762.035 173.803 762.836 175.502V176H755.57ZM747.748 170.873C749.154 170.873 750.473 170.531 751.703 169.848C752.953 169.164 753.891 168.246 754.516 167.094V161.117H750.678C748.041 161.117 746.059 161.576 744.73 162.494C743.402 163.412 742.738 164.711 742.738 166.391C742.738 167.758 743.188 168.852 744.086 169.672C745.004 170.473 746.225 170.873 747.748 170.873ZM778.012 136.596V144.301H783.607V149.574H778.012V167.27C778.012 168.48 778.246 169.359 778.715 169.906C779.203 170.434 780.062 170.697 781.293 170.697C782.113 170.697 782.943 170.6 783.783 170.404V175.912C782.162 176.361 780.6 176.586 779.096 176.586C773.627 176.586 770.893 173.568 770.893 167.533V149.574H765.678V144.301H770.893V136.596H778.012ZM808.012 176C807.699 175.395 807.426 174.408 807.191 173.041C804.926 175.404 802.152 176.586 798.871 176.586C795.688 176.586 793.09 175.678 791.078 173.861C789.066 172.045 788.061 169.799 788.061 167.123C788.061 163.744 789.311 161.156 791.811 159.359C794.33 157.543 797.924 156.635 802.592 156.635H806.957V154.555C806.957 152.914 806.498 151.605 805.58 150.629C804.662 149.633 803.266 149.135 801.391 149.135C799.77 149.135 798.441 149.545 797.406 150.365C796.371 151.166 795.854 152.191 795.854 153.441H788.734C788.734 151.703 789.311 150.082 790.463 148.578C791.615 147.055 793.178 145.863 795.15 145.004C797.143 144.145 799.359 143.715 801.801 143.715C805.512 143.715 808.471 144.652 810.678 146.527C812.885 148.383 814.018 151 814.076 154.379V168.676C814.076 171.527 814.477 173.803 815.277 175.502V176H808.012ZM800.189 170.873C801.596 170.873 802.914 170.531 804.145 169.848C805.395 169.164 806.332 168.246 806.957 167.094V161.117H803.119C800.482 161.117 798.5 161.576 797.172 162.494C795.844 163.412 795.18 164.711 795.18 166.391C795.18 167.758 795.629 168.852 796.527 169.672C797.445 170.473 798.666 170.873 800.189 170.873ZM818.676 182.416C822.113 181.303 823.871 178.256 823.949 173.275V167.182C823.949 162.67 825.727 159.574 829.281 157.895C825.727 156.215 823.949 153.09 823.949 148.52V142.455C823.871 137.475 822.113 134.428 818.676 133.314L820.082 129.213C823.637 130.209 826.283 131.83 828.021 134.076C829.76 136.303 830.629 139.223 830.629 142.836V148.695C830.629 153.09 832.523 155.287 836.312 155.287V160.502C832.523 160.502 830.629 162.699 830.629 167.094V172.865C830.629 176.518 829.75 179.457 827.992 181.684C826.254 183.93 823.617 185.551 820.082 186.547L818.676 182.416Z" fill="black"/>
<path d="M600.253 292.057C600.038 294.332 599.198 296.109 597.733 297.389C596.269 298.658 594.32 299.293 591.889 299.293C590.189 299.293 588.69 298.893 587.392 298.092C586.103 297.281 585.106 296.134 584.403 294.649C583.7 293.165 583.334 291.441 583.305 289.479V287.486C583.305 285.475 583.661 283.702 584.374 282.169C585.087 280.636 586.107 279.454 587.436 278.624C588.773 277.794 590.316 277.379 592.064 277.379C594.418 277.379 596.312 278.019 597.748 279.298C599.184 280.577 600.019 282.384 600.253 284.718H596.562C596.386 283.185 595.937 282.081 595.214 281.407C594.501 280.724 593.451 280.382 592.064 280.382C590.453 280.382 589.213 280.973 588.344 282.154C587.484 283.326 587.045 285.05 587.025 287.325V289.215C587.025 291.52 587.436 293.277 588.256 294.488C589.086 295.699 590.297 296.305 591.889 296.305C593.344 296.305 594.438 295.978 595.17 295.323C595.902 294.669 596.366 293.58 596.562 292.057H600.253ZM602.567 290.929C602.567 289.376 602.875 287.979 603.49 286.739C604.105 285.489 604.97 284.532 606.083 283.868C607.196 283.194 608.476 282.857 609.921 282.857C612.06 282.857 613.793 283.546 615.121 284.923C616.459 286.3 617.182 288.126 617.289 290.401L617.304 291.236C617.304 292.799 617.001 294.195 616.396 295.426C615.8 296.656 614.94 297.608 613.817 298.282C612.704 298.956 611.415 299.293 609.95 299.293C607.714 299.293 605.922 298.551 604.574 297.066C603.236 295.572 602.567 293.585 602.567 291.104V290.929ZM606.127 291.236C606.127 292.867 606.464 294.146 607.138 295.074C607.812 295.992 608.749 296.451 609.95 296.451C611.151 296.451 612.084 295.982 612.748 295.045C613.422 294.107 613.759 292.735 613.759 290.929C613.759 289.327 613.412 288.058 612.719 287.12C612.035 286.183 611.103 285.714 609.921 285.714C608.759 285.714 607.836 286.178 607.152 287.105C606.469 288.023 606.127 289.4 606.127 291.236ZM623.617 283.15L623.72 284.981C624.892 283.565 626.43 282.857 628.334 282.857C631.635 282.857 633.314 284.747 633.373 288.526V299H629.813V288.731C629.813 287.726 629.594 286.983 629.154 286.505C628.725 286.017 628.017 285.772 627.03 285.772C625.595 285.772 624.525 286.422 623.822 287.721V299H620.263V283.15H623.617ZM641.474 279.298V283.15H644.271V285.787H641.474V294.635C641.474 295.24 641.591 295.68 641.825 295.953C642.069 296.217 642.499 296.349 643.114 296.349C643.524 296.349 643.939 296.3 644.359 296.202V298.956C643.549 299.181 642.768 299.293 642.016 299.293C639.281 299.293 637.914 297.784 637.914 294.767V285.787H635.307V283.15H637.914V279.298H641.474ZM653.983 299.293C651.728 299.293 649.896 298.585 648.49 297.169C647.094 295.743 646.396 293.849 646.396 291.485V291.046C646.396 289.464 646.698 288.053 647.304 286.812C647.919 285.562 648.778 284.591 649.882 283.897C650.985 283.204 652.216 282.857 653.573 282.857C655.731 282.857 657.396 283.546 658.568 284.923C659.75 286.3 660.341 288.248 660.341 290.768V292.203H649.984C650.092 293.512 650.526 294.547 651.288 295.309C652.06 296.07 653.026 296.451 654.188 296.451C655.819 296.451 657.147 295.792 658.173 294.474L660.092 296.305C659.457 297.252 658.607 297.989 657.543 298.517C656.488 299.034 655.302 299.293 653.983 299.293ZM653.559 285.714C652.582 285.714 651.791 286.056 651.186 286.739C650.59 287.423 650.209 288.375 650.043 289.596H656.825V289.332C656.747 288.141 656.43 287.242 655.873 286.637C655.316 286.021 654.545 285.714 653.559 285.714ZM666.42 283.15L666.522 284.981C667.694 283.565 669.232 282.857 671.137 282.857C674.438 282.857 676.117 284.747 676.176 288.526V299H672.616V288.731C672.616 287.726 672.396 286.983 671.957 286.505C671.527 286.017 670.819 285.772 669.833 285.772C668.397 285.772 667.328 286.422 666.625 287.721V299H663.065V283.15H666.42ZM684.276 279.298V283.15H687.074V285.787H684.276V294.635C684.276 295.24 684.394 295.68 684.628 295.953C684.872 296.217 685.302 296.349 685.917 296.349C686.327 296.349 686.742 296.3 687.162 296.202V298.956C686.352 299.181 685.57 299.293 684.818 299.293C682.084 299.293 680.717 297.784 680.717 294.767V285.787H678.109V283.15H680.717V279.298H684.276ZM701.327 296.041H711.01V299H697.621V277.672H701.327V296.041ZM720.487 299.293C718.231 299.293 716.4 298.585 714.994 297.169C713.598 295.743 712.899 293.849 712.899 291.485V291.046C712.899 289.464 713.202 288.053 713.808 286.812C714.423 285.562 715.282 284.591 716.386 283.897C717.489 283.204 718.72 282.857 720.077 282.857C722.235 282.857 723.9 283.546 725.072 284.923C726.254 286.3 726.845 288.248 726.845 290.768V292.203H716.488C716.596 293.512 717.03 294.547 717.792 295.309C718.563 296.07 719.53 296.451 720.692 296.451C722.323 296.451 723.651 295.792 724.677 294.474L726.596 296.305C725.961 297.252 725.111 297.989 724.047 298.517C722.992 299.034 721.806 299.293 720.487 299.293ZM720.062 285.714C719.086 285.714 718.295 286.056 717.689 286.739C717.094 287.423 716.713 288.375 716.547 289.596H723.329V289.332C723.251 288.141 722.934 287.242 722.377 286.637C721.82 286.021 721.049 285.714 720.062 285.714ZM732.924 283.15L733.026 284.981C734.198 283.565 735.736 282.857 737.641 282.857C740.941 282.857 742.621 284.747 742.68 288.526V299H739.12V288.731C739.12 287.726 738.9 286.983 738.461 286.505C738.031 286.017 737.323 285.772 736.337 285.772C734.901 285.772 733.832 286.422 733.129 287.721V299H729.569V283.15H732.924ZM745.697 290.958C745.697 288.497 746.273 286.534 747.426 285.069C748.588 283.595 750.126 282.857 752.04 282.857C753.847 282.857 755.268 283.487 756.303 284.747L756.464 283.15H759.672V298.517C759.672 300.597 759.022 302.237 757.724 303.438C756.435 304.64 754.691 305.24 752.494 305.24C751.332 305.24 750.194 304.996 749.081 304.508C747.978 304.029 747.138 303.399 746.562 302.618L748.246 300.479C749.34 301.778 750.688 302.428 752.289 302.428C753.471 302.428 754.403 302.105 755.087 301.461C755.771 300.826 756.112 299.889 756.112 298.648V297.579C755.087 298.722 753.72 299.293 752.011 299.293C750.155 299.293 748.637 298.556 747.455 297.081C746.283 295.606 745.697 293.565 745.697 290.958ZM749.242 291.266C749.242 292.857 749.564 294.112 750.209 295.03C750.863 295.938 751.767 296.393 752.919 296.393C754.354 296.393 755.419 295.777 756.112 294.547V287.574C755.438 286.373 754.384 285.772 752.948 285.772C751.776 285.772 750.863 286.236 750.209 287.164C749.564 288.092 749.242 289.459 749.242 291.266ZM767.802 279.298V283.15H770.6V285.787H767.802V294.635C767.802 295.24 767.919 295.68 768.153 295.953C768.397 296.217 768.827 296.349 769.442 296.349C769.853 296.349 770.268 296.3 770.688 296.202V298.956C769.877 299.181 769.096 299.293 768.344 299.293C765.609 299.293 764.242 297.784 764.242 294.767V285.787H761.635V283.15H764.242V279.298H767.802ZM776.84 284.879C778.002 283.531 779.472 282.857 781.249 282.857C784.628 282.857 786.342 284.786 786.391 288.644V299H782.831V288.775C782.831 287.682 782.592 286.91 782.113 286.461C781.645 286.002 780.951 285.772 780.033 285.772C778.607 285.772 777.543 286.407 776.84 287.677V299H773.28V276.5H776.84V284.879ZM792.147 295.25C792.812 295.25 793.324 295.44 793.686 295.821C794.047 296.192 794.228 296.661 794.228 297.228C794.228 297.784 794.047 298.248 793.686 298.619C793.324 298.98 792.812 299.161 792.147 299.161C791.513 299.161 791.01 298.98 790.639 298.619C790.268 298.258 790.082 297.794 790.082 297.228C790.082 296.661 790.263 296.192 790.624 295.821C790.985 295.44 791.493 295.25 792.147 295.25ZM792.147 282.813C792.812 282.813 793.324 283.004 793.686 283.385C794.047 283.756 794.228 284.225 794.228 284.791C794.228 285.348 794.047 285.812 793.686 286.183C793.324 286.544 792.812 286.725 792.147 286.725C791.513 286.725 791.01 286.544 790.639 286.183C790.268 285.821 790.082 285.357 790.082 284.791C790.082 284.225 790.263 283.756 790.624 283.385C790.985 283.004 791.493 282.813 792.147 282.813ZM818.646 283.297C818.646 284.342 818.378 285.274 817.841 286.095C817.304 286.905 816.571 287.545 815.644 288.014C816.757 288.531 817.611 289.239 818.207 290.138C818.812 291.036 819.115 292.052 819.115 293.185C819.115 295.06 818.48 296.549 817.211 297.652C815.941 298.746 814.252 299.293 812.143 299.293C810.023 299.293 808.324 298.741 807.045 297.638C805.775 296.534 805.141 295.05 805.141 293.185C805.141 292.042 805.443 291.017 806.049 290.108C806.654 289.2 807.504 288.502 808.598 288.014C807.68 287.545 806.952 286.905 806.415 286.095C805.888 285.274 805.624 284.342 805.624 283.297C805.624 281.48 806.21 280.04 807.382 278.976C808.554 277.911 810.136 277.379 812.128 277.379C814.13 277.379 815.717 277.911 816.889 278.976C818.061 280.04 818.646 281.48 818.646 283.297ZM815.556 293.009C815.556 291.954 815.238 291.104 814.604 290.46C813.979 289.806 813.148 289.479 812.113 289.479C811.078 289.479 810.248 289.801 809.623 290.445C809.008 291.09 808.7 291.944 808.7 293.009C808.7 294.054 809.003 294.889 809.608 295.514C810.224 296.139 811.068 296.451 812.143 296.451C813.217 296.451 814.052 296.148 814.647 295.543C815.253 294.938 815.556 294.093 815.556 293.009ZM815.102 283.429C815.102 282.501 814.833 281.739 814.296 281.144C813.759 280.538 813.036 280.235 812.128 280.235C811.22 280.235 810.502 280.523 809.975 281.1C809.447 281.666 809.184 282.442 809.184 283.429C809.184 284.405 809.447 285.182 809.975 285.758C810.512 286.334 811.234 286.622 812.143 286.622C813.051 286.622 813.769 286.334 814.296 285.758C814.833 285.182 815.102 284.405 815.102 283.429ZM836.166 290.021C836.166 293.087 835.59 295.401 834.438 296.964C833.295 298.517 831.552 299.293 829.208 299.293C826.903 299.293 825.165 298.536 823.993 297.022C822.831 295.499 822.235 293.248 822.206 290.27V286.578C822.206 283.512 822.777 281.212 823.92 279.679C825.072 278.146 826.825 277.379 829.179 277.379C831.513 277.379 833.251 278.126 834.394 279.62C835.546 281.114 836.137 283.351 836.166 286.329V290.021ZM832.606 286.036C832.606 284.034 832.333 282.569 831.786 281.642C831.239 280.704 830.37 280.235 829.179 280.235C828.017 280.235 827.162 280.68 826.615 281.568C826.068 282.447 825.78 283.824 825.751 285.699V290.533C825.751 292.525 826.029 294.01 826.586 294.986C827.143 295.963 828.017 296.451 829.208 296.451C830.351 296.451 831.195 296.002 831.742 295.104C832.289 294.195 832.577 292.779 832.606 290.855V286.036ZM853.217 290.021C853.217 293.087 852.641 295.401 851.488 296.964C850.346 298.517 848.603 299.293 846.259 299.293C843.954 299.293 842.216 298.536 841.044 297.022C839.882 295.499 839.286 293.248 839.257 290.27V286.578C839.257 283.512 839.828 281.212 840.971 279.679C842.123 278.146 843.876 277.379 846.229 277.379C848.563 277.379 850.302 278.126 851.444 279.62C852.597 281.114 853.188 283.351 853.217 286.329V290.021ZM849.657 286.036C849.657 284.034 849.384 282.569 848.837 281.642C848.29 280.704 847.421 280.235 846.229 280.235C845.067 280.235 844.213 280.68 843.666 281.568C843.119 282.447 842.831 283.824 842.802 285.699V290.533C842.802 292.525 843.08 294.01 843.637 294.986C844.193 295.963 845.067 296.451 846.259 296.451C847.401 296.451 848.246 296.002 848.793 295.104C849.34 294.195 849.628 292.779 849.657 290.855V286.036ZM877.973 291.236C877.973 293.697 877.421 295.655 876.317 297.11C875.224 298.565 873.715 299.293 871.791 299.293C869.936 299.293 868.49 298.624 867.455 297.286L867.279 299H864.057V276.5H867.616V284.674C868.642 283.463 870.023 282.857 871.762 282.857C873.695 282.857 875.214 283.575 876.317 285.011C877.421 286.446 877.973 288.453 877.973 291.031V291.236ZM874.413 290.929C874.413 289.21 874.11 287.921 873.505 287.062C872.899 286.202 872.021 285.772 870.868 285.772C869.325 285.772 868.241 286.446 867.616 287.794V294.327C868.251 295.704 869.345 296.393 870.897 296.393C872.011 296.393 872.87 295.978 873.476 295.147C874.081 294.317 874.394 293.062 874.413 291.383V290.929ZM886.337 293.902L889.56 283.15H893.354L887.055 301.402C886.088 304.068 884.447 305.401 882.133 305.401C881.615 305.401 881.044 305.313 880.419 305.138V302.384L881.093 302.428C881.991 302.428 882.665 302.262 883.114 301.93C883.573 301.607 883.935 301.061 884.198 300.289L884.711 298.927L879.145 283.15H882.982L886.337 293.902ZM899.872 279.298V283.15H902.67V285.787H899.872V294.635C899.872 295.24 899.989 295.68 900.224 295.953C900.468 296.217 900.897 296.349 901.513 296.349C901.923 296.349 902.338 296.3 902.758 296.202V298.956C901.947 299.181 901.166 299.293 900.414 299.293C897.68 299.293 896.312 297.784 896.312 294.767V285.787H893.705V283.15H896.312V279.298H899.872ZM912.382 299.293C910.126 299.293 908.295 298.585 906.889 297.169C905.492 295.743 904.794 293.849 904.794 291.485V291.046C904.794 289.464 905.097 288.053 905.702 286.812C906.317 285.562 907.177 284.591 908.28 283.897C909.384 283.204 910.614 282.857 911.972 282.857C914.13 282.857 915.795 283.546 916.967 284.923C918.148 286.3 918.739 288.248 918.739 290.768V292.203H908.383C908.49 293.512 908.925 294.547 909.687 295.309C910.458 296.07 911.425 296.451 912.587 296.451C914.218 296.451 915.546 295.792 916.571 294.474L918.49 296.305C917.855 297.252 917.006 297.989 915.941 298.517C914.887 299.034 913.7 299.293 912.382 299.293ZM911.957 285.714C910.98 285.714 910.189 286.056 909.584 286.739C908.988 287.423 908.607 288.375 908.441 289.596H915.224V289.332C915.146 288.141 914.828 287.242 914.271 286.637C913.715 286.021 912.943 285.714 911.957 285.714ZM930.399 294.693C930.399 294.059 930.136 293.575 929.608 293.243C929.091 292.911 928.227 292.618 927.016 292.364C925.805 292.11 924.794 291.788 923.983 291.397C922.206 290.538 921.317 289.293 921.317 287.662C921.317 286.295 921.894 285.152 923.046 284.234C924.198 283.316 925.663 282.857 927.44 282.857C929.335 282.857 930.863 283.326 932.025 284.264C933.197 285.201 933.783 286.417 933.783 287.911H930.224C930.224 287.228 929.97 286.661 929.462 286.212C928.954 285.753 928.28 285.523 927.44 285.523C926.659 285.523 926.02 285.704 925.521 286.065C925.033 286.427 924.789 286.91 924.789 287.516C924.789 288.062 925.019 288.487 925.478 288.79C925.937 289.093 926.864 289.4 928.261 289.713C929.657 290.016 930.751 290.382 931.542 290.812C932.343 291.231 932.934 291.739 933.314 292.335C933.705 292.931 933.9 293.653 933.9 294.503C933.9 295.929 933.31 297.086 932.128 297.975C930.946 298.854 929.398 299.293 927.484 299.293C926.186 299.293 925.028 299.059 924.013 298.59C922.997 298.121 922.206 297.477 921.64 296.656C921.073 295.836 920.79 294.952 920.79 294.005H924.247C924.296 294.845 924.613 295.494 925.199 295.953C925.785 296.402 926.562 296.627 927.528 296.627C928.466 296.627 929.179 296.451 929.667 296.1C930.155 295.738 930.399 295.27 930.399 294.693ZM607.05 325.782H602.919V334H599.213V312.672H606.713C609.174 312.672 611.073 313.224 612.411 314.327C613.749 315.431 614.418 317.027 614.418 319.117C614.418 320.543 614.071 321.739 613.378 322.706C612.694 323.663 611.737 324.4 610.507 324.918L615.297 333.81V334H611.327L607.05 325.782ZM602.919 322.809H606.728C607.978 322.809 608.954 322.496 609.657 321.871C610.36 321.236 610.712 320.372 610.712 319.278C610.712 318.136 610.385 317.252 609.73 316.627C609.086 316.002 608.119 315.68 606.83 315.66H602.919V322.809ZM624.569 334.293C622.313 334.293 620.482 333.585 619.076 332.169C617.68 330.743 616.981 328.849 616.981 326.485V326.046C616.981 324.464 617.284 323.053 617.89 321.812C618.505 320.562 619.364 319.591 620.468 318.897C621.571 318.204 622.802 317.857 624.159 317.857C626.317 317.857 627.982 318.546 629.154 319.923C630.336 321.3 630.927 323.248 630.927 325.768V327.203H620.57C620.678 328.512 621.112 329.547 621.874 330.309C622.646 331.07 623.612 331.451 624.774 331.451C626.405 331.451 627.733 330.792 628.759 329.474L630.678 331.305C630.043 332.252 629.193 332.989 628.129 333.517C627.074 334.034 625.888 334.293 624.569 334.293ZM624.145 320.714C623.168 320.714 622.377 321.056 621.771 321.739C621.176 322.423 620.795 323.375 620.629 324.596H627.411V324.332C627.333 323.141 627.016 322.242 626.459 321.637C625.902 321.021 625.131 320.714 624.145 320.714ZM642.587 329.693C642.587 329.059 642.323 328.575 641.796 328.243C641.278 327.911 640.414 327.618 639.203 327.364C637.992 327.11 636.981 326.788 636.171 326.397C634.394 325.538 633.505 324.293 633.505 322.662C633.505 321.295 634.081 320.152 635.233 319.234C636.386 318.316 637.851 317.857 639.628 317.857C641.522 317.857 643.051 318.326 644.213 319.264C645.385 320.201 645.971 321.417 645.971 322.911H642.411C642.411 322.228 642.157 321.661 641.649 321.212C641.142 320.753 640.468 320.523 639.628 320.523C638.847 320.523 638.207 320.704 637.709 321.065C637.221 321.427 636.977 321.91 636.977 322.516C636.977 323.062 637.206 323.487 637.665 323.79C638.124 324.093 639.052 324.4 640.448 324.713C641.845 325.016 642.938 325.382 643.729 325.812C644.53 326.231 645.121 326.739 645.502 327.335C645.893 327.931 646.088 328.653 646.088 329.503C646.088 330.929 645.497 332.086 644.315 332.975C643.134 333.854 641.586 334.293 639.672 334.293C638.373 334.293 637.216 334.059 636.2 333.59C635.185 333.121 634.394 332.477 633.827 331.656C633.261 330.836 632.978 329.952 632.978 329.005H636.435C636.483 329.845 636.801 330.494 637.387 330.953C637.973 331.402 638.749 331.627 639.716 331.627C640.653 331.627 641.366 331.451 641.854 331.1C642.343 330.738 642.587 330.27 642.587 329.693ZM663.08 326.236C663.08 328.688 662.523 330.646 661.41 332.11C660.297 333.565 658.803 334.293 656.928 334.293C655.189 334.293 653.798 333.722 652.753 332.579V340.094H649.193V318.15H652.475L652.621 319.762C653.666 318.492 655.087 317.857 656.884 317.857C658.817 317.857 660.331 318.58 661.425 320.025C662.528 321.461 663.08 323.458 663.08 326.017V326.236ZM659.535 325.929C659.535 324.347 659.218 323.092 658.583 322.164C657.958 321.236 657.06 320.772 655.888 320.772C654.433 320.772 653.388 321.373 652.753 322.574V329.605C653.397 330.836 654.452 331.451 655.917 331.451C657.05 331.451 657.934 330.997 658.568 330.089C659.213 329.171 659.535 327.784 659.535 325.929ZM665.438 325.929C665.438 324.376 665.746 322.979 666.361 321.739C666.977 320.489 667.841 319.532 668.954 318.868C670.067 318.194 671.347 317.857 672.792 317.857C674.931 317.857 676.664 318.546 677.992 319.923C679.33 321.3 680.053 323.126 680.16 325.401L680.175 326.236C680.175 327.799 679.872 329.195 679.267 330.426C678.671 331.656 677.812 332.608 676.688 333.282C675.575 333.956 674.286 334.293 672.821 334.293C670.585 334.293 668.793 333.551 667.445 332.066C666.107 330.572 665.438 328.585 665.438 326.104V325.929ZM668.998 326.236C668.998 327.867 669.335 329.146 670.009 330.074C670.683 330.992 671.62 331.451 672.821 331.451C674.022 331.451 674.955 330.982 675.619 330.045C676.293 329.107 676.63 327.735 676.63 325.929C676.63 324.327 676.283 323.058 675.59 322.12C674.906 321.183 673.974 320.714 672.792 320.714C671.63 320.714 670.707 321.178 670.023 322.105C669.34 323.023 668.998 324.4 668.998 326.236ZM686.488 318.15L686.591 319.981C687.763 318.565 689.301 317.857 691.205 317.857C694.506 317.857 696.186 319.747 696.244 323.526V334H692.685V323.731C692.685 322.726 692.465 321.983 692.025 321.505C691.596 321.017 690.888 320.772 689.901 320.772C688.466 320.772 687.396 321.422 686.693 322.721V334H683.134V318.15H686.488ZM708.769 329.693C708.769 329.059 708.505 328.575 707.978 328.243C707.46 327.911 706.596 327.618 705.385 327.364C704.174 327.11 703.163 326.788 702.353 326.397C700.575 325.538 699.687 324.293 699.687 322.662C699.687 321.295 700.263 320.152 701.415 319.234C702.567 318.316 704.032 317.857 705.81 317.857C707.704 317.857 709.232 318.326 710.395 319.264C711.566 320.201 712.152 321.417 712.152 322.911H708.593C708.593 322.228 708.339 321.661 707.831 321.212C707.323 320.753 706.649 320.523 705.81 320.523C705.028 320.523 704.389 320.704 703.891 321.065C703.402 321.427 703.158 321.91 703.158 322.516C703.158 323.062 703.388 323.487 703.847 323.79C704.306 324.093 705.233 324.4 706.63 324.713C708.026 325.016 709.12 325.382 709.911 325.812C710.712 326.231 711.303 326.739 711.684 327.335C712.074 327.931 712.27 328.653 712.27 329.503C712.27 330.929 711.679 332.086 710.497 332.975C709.315 333.854 707.768 334.293 705.854 334.293C704.555 334.293 703.397 334.059 702.382 333.59C701.366 333.121 700.575 332.477 700.009 331.656C699.442 330.836 699.159 329.952 699.159 329.005H702.616C702.665 329.845 702.982 330.494 703.568 330.953C704.154 331.402 704.931 331.627 705.897 331.627C706.835 331.627 707.548 331.451 708.036 331.1C708.524 330.738 708.769 330.27 708.769 329.693ZM722.362 334.293C720.106 334.293 718.275 333.585 716.869 332.169C715.473 330.743 714.774 328.849 714.774 326.485V326.046C714.774 324.464 715.077 323.053 715.683 321.812C716.298 320.562 717.157 319.591 718.261 318.897C719.364 318.204 720.595 317.857 721.952 317.857C724.11 317.857 725.775 318.546 726.947 319.923C728.129 321.3 728.72 323.248 728.72 325.768V327.203H718.363C718.471 328.512 718.905 329.547 719.667 330.309C720.438 331.07 721.405 331.451 722.567 331.451C724.198 331.451 725.526 330.792 726.552 329.474L728.471 331.305C727.836 332.252 726.986 332.989 725.922 333.517C724.867 334.034 723.681 334.293 722.362 334.293ZM721.938 320.714C720.961 320.714 720.17 321.056 719.564 321.739C718.969 322.423 718.588 323.375 718.422 324.596H725.204V324.332C725.126 323.141 724.809 322.242 724.252 321.637C723.695 321.021 722.924 320.714 721.938 320.714ZM740.219 334V320.787H737.802V318.15H740.219V316.7C740.219 314.942 740.707 313.585 741.684 312.628C742.66 311.671 744.027 311.192 745.785 311.192C746.41 311.192 747.074 311.28 747.777 311.456L747.689 314.239C747.299 314.161 746.845 314.122 746.327 314.122C744.628 314.122 743.778 314.996 743.778 316.744V318.15H747.001V320.787H743.778V334H740.219ZM748.935 325.929C748.935 324.376 749.242 322.979 749.857 321.739C750.473 320.489 751.337 319.532 752.45 318.868C753.563 318.194 754.843 317.857 756.288 317.857C758.427 317.857 760.16 318.546 761.488 319.923C762.826 321.3 763.549 323.126 763.656 325.401L763.671 326.236C763.671 327.799 763.368 329.195 762.763 330.426C762.167 331.656 761.308 332.608 760.185 333.282C759.071 333.956 757.782 334.293 756.317 334.293C754.081 334.293 752.289 333.551 750.941 332.066C749.604 330.572 748.935 328.585 748.935 326.104V325.929ZM752.494 326.236C752.494 327.867 752.831 329.146 753.505 330.074C754.179 330.992 755.116 331.451 756.317 331.451C757.519 331.451 758.451 330.982 759.115 330.045C759.789 329.107 760.126 327.735 760.126 325.929C760.126 324.327 759.779 323.058 759.086 322.12C758.402 321.183 757.47 320.714 756.288 320.714C755.126 320.714 754.203 321.178 753.52 322.105C752.836 323.023 752.494 324.4 752.494 326.236ZM774.979 321.402C774.511 321.324 774.027 321.285 773.529 321.285C771.898 321.285 770.8 321.91 770.233 323.16V334H766.674V318.15H770.072L770.16 319.923C771.02 318.546 772.211 317.857 773.734 317.857C774.242 317.857 774.662 317.926 774.994 318.062L774.979 321.402ZM780.575 318.15L780.678 319.806C781.791 318.507 783.314 317.857 785.248 317.857C787.367 317.857 788.817 318.668 789.599 320.289C790.751 318.668 792.372 317.857 794.462 317.857C796.21 317.857 797.509 318.341 798.358 319.308C799.218 320.274 799.657 321.7 799.677 323.585V334H796.117V323.688C796.117 322.682 795.897 321.944 795.458 321.476C795.019 321.007 794.291 320.772 793.275 320.772C792.465 320.772 791.801 320.992 791.283 321.432C790.775 321.861 790.419 322.428 790.214 323.131L790.229 334H786.669V323.57C786.62 321.705 785.668 320.772 783.812 320.772C782.387 320.772 781.376 321.354 780.78 322.516V334H777.221V318.15H780.575ZM812.802 334C812.646 333.697 812.509 333.204 812.392 332.521C811.259 333.702 809.872 334.293 808.231 334.293C806.64 334.293 805.341 333.839 804.335 332.931C803.329 332.022 802.826 330.899 802.826 329.562C802.826 327.872 803.451 326.578 804.701 325.68C805.961 324.771 807.758 324.317 810.092 324.317H812.274V323.277C812.274 322.457 812.045 321.803 811.586 321.314C811.127 320.816 810.429 320.567 809.491 320.567C808.681 320.567 808.017 320.772 807.499 321.183C806.981 321.583 806.723 322.096 806.723 322.721H803.163C803.163 321.852 803.451 321.041 804.027 320.289C804.604 319.527 805.385 318.932 806.371 318.502C807.367 318.072 808.476 317.857 809.696 317.857C811.552 317.857 813.031 318.326 814.135 319.264C815.238 320.191 815.805 321.5 815.834 323.189V330.338C815.834 331.764 816.034 332.901 816.435 333.751V334H812.802ZM808.891 331.437C809.594 331.437 810.253 331.266 810.868 330.924C811.493 330.582 811.962 330.123 812.274 329.547V326.559H810.355C809.037 326.559 808.046 326.788 807.382 327.247C806.718 327.706 806.386 328.355 806.386 329.195C806.386 329.879 806.61 330.426 807.06 330.836C807.519 331.236 808.129 331.437 808.891 331.437ZM824.022 314.298V318.15H826.82V320.787H824.022V329.635C824.022 330.24 824.14 330.68 824.374 330.953C824.618 331.217 825.048 331.349 825.663 331.349C826.073 331.349 826.488 331.3 826.908 331.202V333.956C826.098 334.181 825.316 334.293 824.564 334.293C821.83 334.293 820.463 332.784 820.463 329.767V320.787H817.855V318.15H820.463V314.298H824.022ZM831.698 330.25C832.362 330.25 832.875 330.44 833.236 330.821C833.598 331.192 833.778 331.661 833.778 332.228C833.778 332.784 833.598 333.248 833.236 333.619C832.875 333.98 832.362 334.161 831.698 334.161C831.063 334.161 830.561 333.98 830.189 333.619C829.818 333.258 829.633 332.794 829.633 332.228C829.633 331.661 829.813 331.192 830.175 330.821C830.536 330.44 831.044 330.25 831.698 330.25ZM831.698 317.813C832.362 317.813 832.875 318.004 833.236 318.385C833.598 318.756 833.778 319.225 833.778 319.791C833.778 320.348 833.598 320.812 833.236 321.183C832.875 321.544 832.362 321.725 831.698 321.725C831.063 321.725 830.561 321.544 830.189 321.183C829.818 320.821 829.633 320.357 829.633 319.791C829.633 319.225 829.813 318.756 830.175 318.385C830.536 318.004 831.044 317.813 831.698 317.813ZM854.066 312.672H857.758V327.628C857.758 329.669 857.118 331.29 855.839 332.491C854.569 333.692 852.89 334.293 850.8 334.293C848.573 334.293 846.854 333.731 845.644 332.608C844.433 331.485 843.827 329.923 843.827 327.921H847.519C847.519 329.054 847.797 329.908 848.354 330.484C848.92 331.051 849.735 331.334 850.8 331.334C851.796 331.334 852.587 331.007 853.173 330.353C853.769 329.688 854.066 328.775 854.066 327.613V312.672ZM873.153 328.507C873.153 327.569 872.821 326.847 872.157 326.339C871.503 325.831 870.316 325.318 868.598 324.801C866.879 324.283 865.512 323.707 864.496 323.072C862.553 321.852 861.581 320.26 861.581 318.297C861.581 316.578 862.279 315.162 863.676 314.049C865.082 312.936 866.903 312.379 869.14 312.379C870.624 312.379 871.947 312.652 873.109 313.199C874.271 313.746 875.185 314.527 875.849 315.543C876.513 316.549 876.845 317.667 876.845 318.897H873.153C873.153 317.784 872.802 316.915 872.099 316.29C871.405 315.655 870.409 315.338 869.11 315.338C867.899 315.338 866.957 315.597 866.283 316.114C865.619 316.632 865.287 317.354 865.287 318.282C865.287 319.063 865.648 319.718 866.371 320.245C867.094 320.763 868.285 321.271 869.945 321.769C871.605 322.257 872.938 322.818 873.944 323.453C874.95 324.078 875.688 324.801 876.156 325.621C876.625 326.432 876.859 327.384 876.859 328.478C876.859 330.255 876.176 331.671 874.809 332.726C873.451 333.771 871.605 334.293 869.271 334.293C867.729 334.293 866.308 334.01 865.009 333.443C863.72 332.867 862.714 332.076 861.991 331.07C861.278 330.064 860.922 328.893 860.922 327.555H864.628C864.628 328.766 865.028 329.703 865.829 330.367C866.63 331.031 867.777 331.363 869.271 331.363C870.561 331.363 871.527 331.104 872.172 330.587C872.826 330.06 873.153 329.366 873.153 328.507ZM897.133 323.893C897.133 325.982 896.771 327.818 896.049 329.4C895.326 330.973 894.291 332.184 892.943 333.033C891.605 333.873 890.062 334.293 888.314 334.293C886.586 334.293 885.043 333.873 883.686 333.033C882.338 332.184 881.293 330.978 880.551 329.415C879.818 327.853 879.447 326.051 879.438 324.01V322.809C879.438 320.729 879.804 318.893 880.536 317.301C881.278 315.709 882.318 314.493 883.656 313.653C885.004 312.804 886.547 312.379 888.285 312.379C890.023 312.379 891.562 312.799 892.899 313.639C894.247 314.469 895.287 315.67 896.02 317.242C896.752 318.805 897.123 320.626 897.133 322.706V323.893ZM893.427 322.779C893.427 320.416 892.978 318.604 892.079 317.345C891.19 316.085 889.926 315.455 888.285 315.455C886.684 315.455 885.429 316.085 884.521 317.345C883.622 318.595 883.163 320.367 883.144 322.662V323.893C883.144 326.236 883.598 328.048 884.506 329.327C885.424 330.606 886.693 331.246 888.314 331.246C889.955 331.246 891.215 330.621 892.094 329.371C892.982 328.121 893.427 326.295 893.427 323.893V322.779ZM917.743 334H914.037L904.53 318.868V334H900.824V312.672H904.53L914.066 327.862V312.672H917.743V334Z" fill="black"/>
</svg>
