<svg width="623" height="832" viewBox="0 0 623 832" fill="none" xmlns="http://www.w3.org/2000/svg">
<rect x="419.5" y="165.5" width="163" height="85" rx="6.5" fill="white" stroke="black" stroke-width="3"/>
<path d="M421.228 166.555L501 208L581.228 167.445" stroke="black" stroke-width="4"/>
<path d="M228.879 205.879C227.707 207.05 227.707 208.95 228.879 210.121L247.971 229.213C249.142 230.385 251.042 230.385 252.213 229.213C253.385 228.042 253.385 226.142 252.213 224.971L235.243 208L252.213 191.029C253.385 189.858 253.385 187.958 252.213 186.787C251.042 185.615 249.142 185.615 247.971 186.787L228.879 205.879ZM391 205L231 205L231 211L391 211L391 205Z" fill="black"/>
<rect x="419.5" y="509.945" width="163" height="85" rx="6.5" fill="white" stroke="black" stroke-width="3"/>
<path d="M421.228 511L501 552.445L581.228 511.89" stroke="black" stroke-width="4"/>
<path d="M228.879 550.324C227.707 551.495 227.707 553.395 228.879 554.566L247.971 573.658C249.142 574.83 251.042 574.83 252.213 573.658C253.385 572.487 253.385 570.587 252.213 569.415L235.243 552.445L252.213 535.474C253.385 534.303 253.385 532.403 252.213 531.232C251.042 530.06 249.142 530.06 247.971 531.232L228.879 550.324ZM391 549.445L231 549.445L231 555.445L391 555.445L391 549.445Z" fill="black"/>
<rect x="419.5" y="681.945" width="163" height="85" rx="6.5" fill="white" stroke="black" stroke-width="3"/>
<path d="M421.228 683L501 724.445L581.228 683.89" stroke="black" stroke-width="4"/>
<rect x="419.5" y="165.5" width="163" height="85" rx="6.5" fill="white" stroke="black" stroke-width="3"/>
<path d="M421.228 166.555L501 208L581.228 167.445" stroke="black" stroke-width="4"/>
<rect x="39.5" y="337.945" width="163" height="85" rx="6.5" fill="white" stroke="black" stroke-width="3"/>
<path d="M41.228 339L121 380.445L201.228 339.89" stroke="black" stroke-width="4"/>
<rect x="419.5" y="509.945" width="163" height="85" rx="6.5" fill="white" stroke="black" stroke-width="3"/>
<path d="M421.228 511L501 552.445L581.228 511.89" stroke="black" stroke-width="4"/>
<rect x="419.5" y="681.945" width="163" height="85" rx="6.5" fill="white" stroke="black" stroke-width="3"/>
<path d="M421.228 683L501 724.445L581.228 683.89" stroke="black" stroke-width="4"/>
<path d="M228.879 722.324C227.707 723.495 227.707 725.395 228.879 726.566L247.971 745.658C249.142 746.83 251.042 746.83 252.213 745.658C253.385 744.487 253.385 742.587 252.213 741.415L235.243 724.445L252.213 707.474C253.385 706.303 253.385 704.403 252.213 703.232C251.042 702.06 249.142 702.06 247.971 703.232L228.879 722.324ZM391 721.445L231 721.445L231 727.445L391 727.445L391 721.445Z" fill="black"/>
<path d="M393.121 382.121C394.293 380.95 394.293 379.05 393.121 377.879L374.029 358.787C372.858 357.615 370.958 357.615 369.787 358.787C368.615 359.958 368.615 361.858 369.787 363.029L386.757 380L369.787 396.971C368.615 398.142 368.615 400.042 369.787 401.213C370.958 402.385 372.858 402.385 374.029 401.213L393.121 382.121ZM391 377L231 377L231 383L391 383L391 377Z" fill="black"/>
<mask id="path-27-outside-1" maskUnits="userSpaceOnUse" x="57" y="144" width="508" height="644" fill="black">
<rect fill="white" x="57" y="144" width="508" height="644"/>
<path fill-rule="evenodd" clip-rule="evenodd" d="M152 177C152 194.127 138.128 208 121 208C103.873 208 90 194.127 90 177C90 159.872 103.873 146 121 146C138.128 146 152 159.872 152 177ZM59 254.5C59 233.885 100.307 223.5 121 223.5C141.692 223.5 183 233.885 183 254.5V270H59V254.5ZM532 349C532 366.128 518.128 380 501 380C483.872 380 470 366.128 470 349C470 331.872 483.872 318 501 318C518.128 318 532 331.872 532 349ZM439 426.5C439 405.885 480.307 395.5 501 395.5C521.693 395.5 563 405.885 563 426.5V442H439V426.5ZM152 521C152 538.128 138.128 552 121 552C103.873 552 90 538.128 90 521C90 503.872 103.873 490 121 490C138.128 490 152 503.872 152 521ZM59 598.5C59 577.885 100.307 567.5 121 567.5C141.692 567.5 183 577.885 183 598.5V614H59V598.5ZM121 724C138.128 724 152 710.128 152 693C152 675.872 138.128 662 121 662C103.873 662 90 675.872 90 693C90 710.128 103.873 724 121 724ZM121 739.5C100.307 739.5 59 749.885 59 770.5V786H183V770.5C183 749.885 141.692 739.5 121 739.5Z"/>
</mask>
<path fill-rule="evenodd" clip-rule="evenodd" d="M152 177C152 194.127 138.128 208 121 208C103.873 208 90 194.127 90 177C90 159.872 103.873 146 121 146C138.128 146 152 159.872 152 177ZM59 254.5C59 233.885 100.307 223.5 121 223.5C141.692 223.5 183 233.885 183 254.5V270H59V254.5ZM532 349C532 366.128 518.128 380 501 380C483.872 380 470 366.128 470 349C470 331.872 483.872 318 501 318C518.128 318 532 331.872 532 349ZM439 426.5C439 405.885 480.307 395.5 501 395.5C521.693 395.5 563 405.885 563 426.5V442H439V426.5ZM152 521C152 538.128 138.128 552 121 552C103.873 552 90 538.128 90 521C90 503.872 103.873 490 121 490C138.128 490 152 503.872 152 521ZM59 598.5C59 577.885 100.307 567.5 121 567.5C141.692 567.5 183 577.885 183 598.5V614H59V598.5ZM121 724C138.128 724 152 710.128 152 693C152 675.872 138.128 662 121 662C103.873 662 90 675.872 90 693C90 710.128 103.873 724 121 724ZM121 739.5C100.307 739.5 59 749.885 59 770.5V786H183V770.5C183 749.885 141.692 739.5 121 739.5Z" fill="black"/>
<path d="M183 270V272H185V270H183ZM59 270H57V272H59V270ZM563 442V444H565V442H563ZM439 442H437V444H439V442ZM183 614V616H185V614H183ZM59 614H57V616H59V614ZM59 786H57V788H59V786ZM183 786V788H185V786H183ZM121 210C139.232 210 154 195.232 154 177H150C150 193.023 137.023 206 121 206V210ZM88 177C88 195.232 102.768 210 121 210V206C104.977 206 92 193.023 92 177H88ZM121 144C102.768 144 88 158.768 88 177H92C92 160.977 104.977 148 121 148V144ZM154 177C154 158.768 139.232 144 121 144V148C137.023 148 150 160.977 150 177H154ZM121 221.5C110.404 221.5 94.6509 224.143 81.4966 229.413C74.9178 232.048 68.8632 235.39 64.4212 239.49C59.9656 243.602 57 248.612 57 254.5H61C61 250.081 63.1979 246.062 67.1341 242.429C71.0839 238.784 76.6494 235.664 82.9841 233.126C95.6566 228.049 110.904 225.5 121 225.5V221.5ZM185 254.5C185 248.612 182.034 243.602 177.579 239.49C173.137 235.39 167.082 232.048 160.503 229.413C147.349 224.143 131.596 221.5 121 221.5V225.5C131.096 225.5 146.343 228.049 159.016 233.126C165.351 235.664 170.916 238.784 174.866 242.429C178.802 246.062 181 250.081 181 254.5H185ZM185 270V254.5H181V270H185ZM59 272H183V268H59V272ZM57 254.5V270H61V254.5H57ZM501 382C519.232 382 534 367.232 534 349H530C530 365.023 517.023 378 501 378V382ZM468 349C468 367.232 482.768 382 501 382V378C484.977 378 472 365.023 472 349H468ZM501 316C482.768 316 468 330.768 468 349H472C472 332.977 484.977 320 501 320V316ZM534 349C534 330.768 519.232 316 501 316V320C517.023 320 530 332.977 530 349H534ZM501 393.5C490.404 393.5 474.651 396.143 461.497 401.413C454.918 404.048 448.863 407.39 444.421 411.49C439.966 415.602 437 420.612 437 426.5H441C441 422.081 443.198 418.062 447.134 414.429C451.084 410.784 456.649 407.664 462.984 405.126C475.657 400.049 490.904 397.5 501 397.5V393.5ZM565 426.5C565 420.612 562.034 415.602 557.579 411.49C553.137 407.39 547.082 404.048 540.503 401.413C527.349 396.143 511.596 393.5 501 393.5V397.5C511.096 397.5 526.343 400.049 539.016 405.126C545.351 407.664 550.916 410.784 554.866 414.429C558.802 418.062 561 422.081 561 426.5H565ZM565 442V426.5H561V442H565ZM439 444H563V440H439V444ZM437 426.5V442H441V426.5H437ZM121 554C139.232 554 154 539.232 154 521H150C150 537.023 137.023 550 121 550V554ZM88 521C88 539.232 102.768 554 121 554V550C104.977 550 92 537.023 92 521H88ZM121 488C102.768 488 88 502.768 88 521H92C92 504.977 104.977 492 121 492V488ZM154 521C154 502.768 139.232 488 121 488V492C137.023 492 150 504.977 150 521H154ZM121 565.5C110.404 565.5 94.6509 568.143 81.4966 573.413C74.9178 576.048 68.8632 579.39 64.4212 583.49C59.9656 587.602 57 592.612 57 598.5H61C61 594.081 63.1979 590.062 67.1341 586.429C71.0839 582.784 76.6494 579.664 82.9841 577.126C95.6566 572.049 110.904 569.5 121 569.5V565.5ZM185 598.5C185 592.612 182.034 587.602 177.579 583.49C173.137 579.39 167.082 576.048 160.503 573.413C147.349 568.143 131.596 565.5 121 565.5V569.5C131.096 569.5 146.343 572.049 159.016 577.126C165.351 579.664 170.916 582.784 174.866 586.429C178.802 590.062 181 594.081 181 598.5H185ZM185 614V598.5H181V614H185ZM59 616H183V612H59V616ZM57 598.5V614H61V598.5H57ZM150 693C150 709.023 137.023 722 121 722V726C139.232 726 154 711.232 154 693H150ZM121 664C137.023 664 150 676.977 150 693H154C154 674.768 139.232 660 121 660V664ZM92 693C92 676.977 104.977 664 121 664V660C102.768 660 88 674.768 88 693H92ZM121 722C104.977 722 92 709.023 92 693H88C88 711.232 102.768 726 121 726V722ZM61 770.5C61 766.081 63.1979 762.062 67.1341 758.429C71.0839 754.784 76.6494 751.664 82.9841 749.126C95.6566 744.049 110.904 741.5 121 741.5V737.5C110.404 737.5 94.6509 740.143 81.4966 745.413C74.9178 748.048 68.8632 751.39 64.4212 755.49C59.9656 759.602 57 764.612 57 770.5H61ZM61 786V770.5H57V786H61ZM183 784H59V788H183V784ZM181 770.5V786H185V770.5H181ZM121 741.5C131.096 741.5 146.343 744.049 159.016 749.126C165.351 751.664 170.916 754.784 174.866 758.429C178.802 762.062 181 766.081 181 770.5H185C185 764.612 182.034 759.602 177.579 755.49C173.137 751.39 167.082 748.048 160.503 745.413C147.349 740.143 131.596 737.5 121 737.5V741.5Z" fill="white" mask="url(#path-27-outside-1)"/>
<mask id="path-29-outside-2" maskUnits="userSpaceOnUse" x="44.1709" y="49.082" width="534" height="44" fill="black">
<rect fill="white" x="44.1709" y="49.082" width="534" height="44"/>
<path fill-rule="evenodd" clip-rule="evenodd" d="M454.858 77.2646V51.6094H448.214V77.0801C448.214 82.4941 445.647 85.2012 440.515 85.2012C437.983 85.2012 436.067 84.5244 434.767 83.1709C433.466 81.8174 432.815 79.8574 432.815 77.291V51.6094H426.171V77.2383C426.171 81.4043 427.463 84.665 430.047 87.0205C432.631 89.3584 436.12 90.5273 440.515 90.5273C444.856 90.5273 448.328 89.3408 450.93 86.9678C453.549 84.5771 454.858 81.3428 454.858 77.2646ZM475.952 79.6377C476.901 80.2354 477.376 81.1055 477.376 82.248C477.376 83.2852 476.937 84.1289 476.058 84.7793C475.179 85.4121 473.896 85.7285 472.208 85.7285C470.468 85.7285 469.07 85.3242 468.016 84.5156C466.961 83.6895 466.39 82.5205 466.302 81.0088H460.079C460.079 82.7139 460.589 84.3047 461.608 85.7812C462.628 87.2578 464.052 88.418 465.88 89.2617C467.708 90.1055 469.791 90.5273 472.129 90.5273C475.574 90.5273 478.36 89.7363 480.487 88.1543C482.614 86.5547 483.678 84.4717 483.678 81.9053C483.678 80.376 483.326 79.0752 482.623 78.0029C481.938 76.9307 480.874 76.0166 479.433 75.2607C478.009 74.4873 476.04 73.8281 473.526 73.2832C471.013 72.7207 469.343 72.167 468.517 71.6221C467.69 71.0771 467.277 70.3125 467.277 69.3281C467.277 68.2383 467.717 67.3682 468.596 66.7178C469.492 66.0674 470.644 65.7422 472.05 65.7422C473.562 65.7422 474.774 66.1553 475.688 66.9814C476.603 67.79 477.06 68.8096 477.06 70.04H483.467C483.467 67.3506 482.412 65.1621 480.303 63.4746C478.211 61.7871 475.46 60.9434 472.05 60.9434C468.851 60.9434 466.214 61.7695 464.14 63.4219C462.065 65.0742 461.028 67.1309 461.028 69.5918C461.028 72.5273 462.628 74.7686 465.827 76.3154C467.286 77.0186 469.105 77.5986 471.285 78.0557C473.465 78.5127 475.021 79.04 475.952 79.6377ZM491.957 86.7041C494.488 89.2529 497.784 90.5273 501.845 90.5273C504.218 90.5273 506.354 90.0615 508.252 89.1299C510.168 88.1807 511.697 86.8535 512.84 85.1484L509.386 81.8525C507.54 84.2256 505.149 85.4121 502.214 85.4121C500.122 85.4121 498.382 84.7266 496.993 83.3555C495.622 81.9844 494.84 80.1211 494.646 77.7656H513.288V75.1816C513.288 70.6465 512.225 67.1396 510.098 64.6611C507.988 62.1826 504.991 60.9434 501.106 60.9434C498.663 60.9434 496.448 61.5674 494.462 62.8154C492.476 64.0635 490.929 65.8125 489.821 68.0625C488.731 70.2949 488.187 72.835 488.187 75.6826V76.4736C488.187 80.7275 489.443 84.1377 491.957 86.7041ZM496.809 67.9307C497.898 66.7002 499.322 66.085 501.08 66.085C502.855 66.085 504.244 66.6387 505.246 67.7461C506.248 68.8359 506.819 70.4531 506.96 72.5977V73.0723H494.752C495.051 70.875 495.736 69.1611 496.809 67.9307ZM530.611 67.1133C531.508 67.1133 532.378 67.1836 533.222 67.3242L533.248 61.3125C532.65 61.0664 531.895 60.9434 530.98 60.9434C528.238 60.9434 526.094 62.1826 524.547 64.6611L524.389 61.4707H518.271V90H524.679V70.4883C525.698 68.2383 527.676 67.1133 530.611 67.1133ZM550.308 90H576.121V84.8848H558.297L567.684 74.8389C570.145 72.167 571.911 69.7852 572.983 67.6934C574.073 65.584 574.618 63.5713 574.618 61.6553C574.618 58.3506 573.537 55.7666 571.375 53.9033C569.23 52.0225 566.295 51.082 562.568 51.082C559.984 51.082 557.699 51.6006 555.713 52.6377C553.744 53.6748 552.224 55.1338 551.151 57.0146C550.097 58.8779 549.569 60.9785 549.569 63.3164H555.977C555.977 61.1191 556.548 59.3877 557.69 58.1221C558.833 56.8564 560.441 56.2236 562.516 56.2236C564.256 56.2236 565.636 56.7861 566.655 57.9111C567.692 59.0361 568.211 60.5127 568.211 62.3408C568.211 63.7295 567.815 65.1182 567.024 66.5068C566.251 67.8779 564.941 69.5918 563.096 71.6484L550.308 85.5967V90ZM74.8584 77.2646V51.6094H68.2139V77.0801C68.2139 82.4941 65.6475 85.2012 60.5146 85.2012C57.9834 85.2012 56.0674 84.5244 54.7666 83.1709C53.4658 81.8174 52.8154 79.8574 52.8154 77.291V51.6094H46.1709V77.2383C46.1709 81.4043 47.4629 84.665 50.0469 87.0205C52.6309 89.3584 56.1201 90.5273 60.5146 90.5273C64.8564 90.5273 68.3281 89.3408 70.9297 86.9678C73.5488 84.5771 74.8584 81.3428 74.8584 77.2646ZM95.9521 79.6377C96.9014 80.2354 97.376 81.1055 97.376 82.248C97.376 83.2852 96.9365 84.1289 96.0576 84.7793C95.1787 85.4121 93.8955 85.7285 92.208 85.7285C90.4678 85.7285 89.0703 85.3242 88.0156 84.5156C86.9609 83.6895 86.3896 82.5205 86.3018 81.0088H80.0791C80.0791 82.7139 80.5889 84.3047 81.6084 85.7812C82.6279 87.2578 84.0518 88.418 85.8799 89.2617C87.708 90.1055 89.791 90.5273 92.1289 90.5273C95.5742 90.5273 98.3604 89.7363 100.487 88.1543C102.614 86.5547 103.678 84.4717 103.678 81.9053C103.678 80.376 103.326 79.0752 102.623 78.0029C101.938 76.9307 100.874 76.0166 99.4326 75.2607C98.0088 74.4873 96.04 73.8281 93.5264 73.2832C91.0127 72.7207 89.3428 72.167 88.5166 71.6221C87.6904 71.0771 87.2773 70.3125 87.2773 69.3281C87.2773 68.2383 87.7168 67.3682 88.5957 66.7178C89.4922 66.0674 90.6436 65.7422 92.0498 65.7422C93.5615 65.7422 94.7744 66.1553 95.6885 66.9814C96.6025 67.79 97.0596 68.8096 97.0596 70.04H103.467C103.467 67.3506 102.412 65.1621 100.303 63.4746C98.2109 61.7871 95.46 60.9434 92.0498 60.9434C88.8506 60.9434 86.2139 61.7695 84.1396 63.4219C82.0654 65.0742 81.0283 67.1309 81.0283 69.5918C81.0283 72.5273 82.6279 74.7686 85.8271 76.3154C87.2861 77.0186 89.1055 77.5986 91.2852 78.0557C93.4648 78.5127 95.0205 79.04 95.9521 79.6377ZM111.957 86.7041C114.488 89.2529 117.784 90.5273 121.845 90.5273C124.218 90.5273 126.354 90.0615 128.252 89.1299C130.168 88.1807 131.697 86.8535 132.84 85.1484L129.386 81.8525C127.54 84.2256 125.149 85.4121 122.214 85.4121C120.122 85.4121 118.382 84.7266 116.993 83.3555C115.622 81.9844 114.84 80.1211 114.646 77.7656H133.288V75.1816C133.288 70.6465 132.225 67.1396 130.098 64.6611C127.988 62.1826 124.991 60.9434 121.106 60.9434C118.663 60.9434 116.448 61.5674 114.462 62.8154C112.476 64.0635 110.929 65.8125 109.821 68.0625C108.731 70.2949 108.187 72.835 108.187 75.6826V76.4736C108.187 80.7275 109.443 84.1377 111.957 86.7041ZM116.809 67.9307C117.898 66.7002 119.322 66.085 121.08 66.085C122.855 66.085 124.244 66.6387 125.246 67.7461C126.248 68.8359 126.819 70.4531 126.96 72.5977V73.0723H114.752C115.051 70.875 115.736 69.1611 116.809 67.9307ZM150.611 67.1133C151.508 67.1133 152.378 67.1836 153.222 67.3242L153.248 61.3125C152.65 61.0664 151.895 60.9434 150.98 60.9434C148.238 60.9434 146.094 62.1826 144.547 64.6611L144.389 61.4707H138.271V90H144.679V70.4883C145.698 68.2383 147.676 67.1133 150.611 67.1133ZM181.276 90H187.657V51.4775H186.84L171.863 56.9883V62.3936L181.276 59.1768V90Z"/>
</mask>
<path fill-rule="evenodd" clip-rule="evenodd" d="M454.858 77.2646V51.6094H448.214V77.0801C448.214 82.4941 445.647 85.2012 440.515 85.2012C437.983 85.2012 436.067 84.5244 434.767 83.1709C433.466 81.8174 432.815 79.8574 432.815 77.291V51.6094H426.171V77.2383C426.171 81.4043 427.463 84.665 430.047 87.0205C432.631 89.3584 436.12 90.5273 440.515 90.5273C444.856 90.5273 448.328 89.3408 450.93 86.9678C453.549 84.5771 454.858 81.3428 454.858 77.2646ZM475.952 79.6377C476.901 80.2354 477.376 81.1055 477.376 82.248C477.376 83.2852 476.937 84.1289 476.058 84.7793C475.179 85.4121 473.896 85.7285 472.208 85.7285C470.468 85.7285 469.07 85.3242 468.016 84.5156C466.961 83.6895 466.39 82.5205 466.302 81.0088H460.079C460.079 82.7139 460.589 84.3047 461.608 85.7812C462.628 87.2578 464.052 88.418 465.88 89.2617C467.708 90.1055 469.791 90.5273 472.129 90.5273C475.574 90.5273 478.36 89.7363 480.487 88.1543C482.614 86.5547 483.678 84.4717 483.678 81.9053C483.678 80.376 483.326 79.0752 482.623 78.0029C481.938 76.9307 480.874 76.0166 479.433 75.2607C478.009 74.4873 476.04 73.8281 473.526 73.2832C471.013 72.7207 469.343 72.167 468.517 71.6221C467.69 71.0771 467.277 70.3125 467.277 69.3281C467.277 68.2383 467.717 67.3682 468.596 66.7178C469.492 66.0674 470.644 65.7422 472.05 65.7422C473.562 65.7422 474.774 66.1553 475.688 66.9814C476.603 67.79 477.06 68.8096 477.06 70.04H483.467C483.467 67.3506 482.412 65.1621 480.303 63.4746C478.211 61.7871 475.46 60.9434 472.05 60.9434C468.851 60.9434 466.214 61.7695 464.14 63.4219C462.065 65.0742 461.028 67.1309 461.028 69.5918C461.028 72.5273 462.628 74.7686 465.827 76.3154C467.286 77.0186 469.105 77.5986 471.285 78.0557C473.465 78.5127 475.021 79.04 475.952 79.6377ZM491.957 86.7041C494.488 89.2529 497.784 90.5273 501.845 90.5273C504.218 90.5273 506.354 90.0615 508.252 89.1299C510.168 88.1807 511.697 86.8535 512.84 85.1484L509.386 81.8525C507.54 84.2256 505.149 85.4121 502.214 85.4121C500.122 85.4121 498.382 84.7266 496.993 83.3555C495.622 81.9844 494.84 80.1211 494.646 77.7656H513.288V75.1816C513.288 70.6465 512.225 67.1396 510.098 64.6611C507.988 62.1826 504.991 60.9434 501.106 60.9434C498.663 60.9434 496.448 61.5674 494.462 62.8154C492.476 64.0635 490.929 65.8125 489.821 68.0625C488.731 70.2949 488.187 72.835 488.187 75.6826V76.4736C488.187 80.7275 489.443 84.1377 491.957 86.7041ZM496.809 67.9307C497.898 66.7002 499.322 66.085 501.08 66.085C502.855 66.085 504.244 66.6387 505.246 67.7461C506.248 68.8359 506.819 70.4531 506.96 72.5977V73.0723H494.752C495.051 70.875 495.736 69.1611 496.809 67.9307ZM530.611 67.1133C531.508 67.1133 532.378 67.1836 533.222 67.3242L533.248 61.3125C532.65 61.0664 531.895 60.9434 530.98 60.9434C528.238 60.9434 526.094 62.1826 524.547 64.6611L524.389 61.4707H518.271V90H524.679V70.4883C525.698 68.2383 527.676 67.1133 530.611 67.1133ZM550.308 90H576.121V84.8848H558.297L567.684 74.8389C570.145 72.167 571.911 69.7852 572.983 67.6934C574.073 65.584 574.618 63.5713 574.618 61.6553C574.618 58.3506 573.537 55.7666 571.375 53.9033C569.23 52.0225 566.295 51.082 562.568 51.082C559.984 51.082 557.699 51.6006 555.713 52.6377C553.744 53.6748 552.224 55.1338 551.151 57.0146C550.097 58.8779 549.569 60.9785 549.569 63.3164H555.977C555.977 61.1191 556.548 59.3877 557.69 58.1221C558.833 56.8564 560.441 56.2236 562.516 56.2236C564.256 56.2236 565.636 56.7861 566.655 57.9111C567.692 59.0361 568.211 60.5127 568.211 62.3408C568.211 63.7295 567.815 65.1182 567.024 66.5068C566.251 67.8779 564.941 69.5918 563.096 71.6484L550.308 85.5967V90ZM74.8584 77.2646V51.6094H68.2139V77.0801C68.2139 82.4941 65.6475 85.2012 60.5146 85.2012C57.9834 85.2012 56.0674 84.5244 54.7666 83.1709C53.4658 81.8174 52.8154 79.8574 52.8154 77.291V51.6094H46.1709V77.2383C46.1709 81.4043 47.4629 84.665 50.0469 87.0205C52.6309 89.3584 56.1201 90.5273 60.5146 90.5273C64.8564 90.5273 68.3281 89.3408 70.9297 86.9678C73.5488 84.5771 74.8584 81.3428 74.8584 77.2646ZM95.9521 79.6377C96.9014 80.2354 97.376 81.1055 97.376 82.248C97.376 83.2852 96.9365 84.1289 96.0576 84.7793C95.1787 85.4121 93.8955 85.7285 92.208 85.7285C90.4678 85.7285 89.0703 85.3242 88.0156 84.5156C86.9609 83.6895 86.3896 82.5205 86.3018 81.0088H80.0791C80.0791 82.7139 80.5889 84.3047 81.6084 85.7812C82.6279 87.2578 84.0518 88.418 85.8799 89.2617C87.708 90.1055 89.791 90.5273 92.1289 90.5273C95.5742 90.5273 98.3604 89.7363 100.487 88.1543C102.614 86.5547 103.678 84.4717 103.678 81.9053C103.678 80.376 103.326 79.0752 102.623 78.0029C101.938 76.9307 100.874 76.0166 99.4326 75.2607C98.0088 74.4873 96.04 73.8281 93.5264 73.2832C91.0127 72.7207 89.3428 72.167 88.5166 71.6221C87.6904 71.0771 87.2773 70.3125 87.2773 69.3281C87.2773 68.2383 87.7168 67.3682 88.5957 66.7178C89.4922 66.0674 90.6436 65.7422 92.0498 65.7422C93.5615 65.7422 94.7744 66.1553 95.6885 66.9814C96.6025 67.79 97.0596 68.8096 97.0596 70.04H103.467C103.467 67.3506 102.412 65.1621 100.303 63.4746C98.2109 61.7871 95.46 60.9434 92.0498 60.9434C88.8506 60.9434 86.2139 61.7695 84.1396 63.4219C82.0654 65.0742 81.0283 67.1309 81.0283 69.5918C81.0283 72.5273 82.6279 74.7686 85.8271 76.3154C87.2861 77.0186 89.1055 77.5986 91.2852 78.0557C93.4648 78.5127 95.0205 79.04 95.9521 79.6377ZM111.957 86.7041C114.488 89.2529 117.784 90.5273 121.845 90.5273C124.218 90.5273 126.354 90.0615 128.252 89.1299C130.168 88.1807 131.697 86.8535 132.84 85.1484L129.386 81.8525C127.54 84.2256 125.149 85.4121 122.214 85.4121C120.122 85.4121 118.382 84.7266 116.993 83.3555C115.622 81.9844 114.84 80.1211 114.646 77.7656H133.288V75.1816C133.288 70.6465 132.225 67.1396 130.098 64.6611C127.988 62.1826 124.991 60.9434 121.106 60.9434C118.663 60.9434 116.448 61.5674 114.462 62.8154C112.476 64.0635 110.929 65.8125 109.821 68.0625C108.731 70.2949 108.187 72.835 108.187 75.6826V76.4736C108.187 80.7275 109.443 84.1377 111.957 86.7041ZM116.809 67.9307C117.898 66.7002 119.322 66.085 121.08 66.085C122.855 66.085 124.244 66.6387 125.246 67.7461C126.248 68.8359 126.819 70.4531 126.96 72.5977V73.0723H114.752C115.051 70.875 115.736 69.1611 116.809 67.9307ZM150.611 67.1133C151.508 67.1133 152.378 67.1836 153.222 67.3242L153.248 61.3125C152.65 61.0664 151.895 60.9434 150.98 60.9434C148.238 60.9434 146.094 62.1826 144.547 64.6611L144.389 61.4707H138.271V90H144.679V70.4883C145.698 68.2383 147.676 67.1133 150.611 67.1133ZM181.276 90H187.657V51.4775H186.84L171.863 56.9883V62.3936L181.276 59.1768V90Z" fill="black"/>
<path d="M454.858 51.6094H456.858V49.6094H454.858V51.6094ZM448.214 51.6094V49.6094H446.214V51.6094H448.214ZM432.815 51.6094H434.815V49.6094H432.815V51.6094ZM426.171 51.6094V49.6094H424.171V51.6094H426.171ZM430.047 87.0205L428.7 88.4986L428.705 88.5036L430.047 87.0205ZM450.93 86.9678L452.278 88.4454L452.278 88.445L450.93 86.9678ZM475.952 79.6377L474.872 81.3211L474.879 81.3257L474.887 81.3302L475.952 79.6377ZM476.058 84.7793L477.226 86.4024L477.237 86.3947L477.247 86.387L476.058 84.7793ZM468.016 84.5156L466.782 86.0901L466.79 86.0965L466.799 86.1028L468.016 84.5156ZM466.302 81.0088L468.298 80.8927L468.189 79.0088H466.302V81.0088ZM460.079 81.0088V79.0088H458.079V81.0088H460.079ZM480.487 88.1543L481.681 89.7591L481.689 89.7527L480.487 88.1543ZM482.623 78.0029L480.938 79.0803L480.944 79.09L480.951 79.0996L482.623 78.0029ZM479.433 75.2607L478.478 77.0182L478.491 77.0252L478.504 77.032L479.433 75.2607ZM473.526 73.2832L473.09 75.235L473.103 75.2378L473.526 73.2832ZM468.596 66.7178L467.421 65.0989L467.414 65.1045L467.406 65.1101L468.596 66.7178ZM475.688 66.9814L474.347 68.4652L474.355 68.4724L474.363 68.4794L475.688 66.9814ZM477.06 70.04H475.06V72.04H477.06V70.04ZM483.467 70.04V72.04H485.467V70.04H483.467ZM480.303 63.4746L479.047 65.0312L479.053 65.0363L480.303 63.4746ZM465.827 76.3154L464.957 78.116L464.959 78.1171L465.827 76.3154ZM491.957 86.7041L490.528 88.1036L490.538 88.1134L491.957 86.7041ZM508.252 89.1299L509.133 90.9254L509.14 90.922L508.252 89.1299ZM512.84 85.1484L514.501 86.2618L515.438 84.8635L514.221 83.7015L512.84 85.1484ZM509.386 81.8525L510.766 80.4056L509.166 78.878L507.807 80.6247L509.386 81.8525ZM496.993 83.3555L495.579 84.7697L495.588 84.7787L496.993 83.3555ZM494.646 77.7656V75.7656H492.476L492.653 77.9293L494.646 77.7656ZM513.288 77.7656V79.7656H515.288V77.7656H513.288ZM510.098 64.6611L508.575 65.9574L508.58 65.9636L510.098 64.6611ZM489.821 68.0625L488.027 67.1793L488.024 67.1851L489.821 68.0625ZM496.809 67.9307L495.311 66.6046L495.306 66.6106L495.301 66.6167L496.809 67.9307ZM505.246 67.7461L503.763 69.0879L503.768 69.0938L503.774 69.0997L505.246 67.7461ZM506.96 72.5977H508.96V72.5322L508.956 72.4668L506.96 72.5977ZM506.96 73.0723V75.0723H508.96V73.0723H506.96ZM494.752 73.0723L492.77 72.8027L492.462 75.0723H494.752V73.0723ZM533.222 67.3242L532.893 69.297L535.211 69.6834L535.222 67.333L533.222 67.3242ZM533.248 61.3125L535.248 61.3213L535.254 59.9755L534.01 59.4631L533.248 61.3125ZM524.547 64.6611L522.549 64.7602L522.865 71.1329L526.244 65.72L524.547 64.6611ZM524.389 61.4707L526.386 61.3717L526.292 59.4707H524.389V61.4707ZM518.271 61.4707V59.4707H516.271V61.4707H518.271ZM518.271 90H516.271V92H518.271V90ZM524.679 90V92H526.679V90H524.679ZM524.679 70.4883L522.857 69.6628L522.679 70.0563V70.4883H524.679ZM576.121 90V92H578.121V90H576.121ZM550.308 90H548.308V92H550.308V90ZM576.121 84.8848H578.121V82.8848H576.121V84.8848ZM558.297 84.8848L556.836 83.5193L553.691 86.8848H558.297V84.8848ZM567.684 74.8389L569.145 76.2043L569.15 76.1991L569.155 76.1938L567.684 74.8389ZM572.983 67.6934L571.207 66.7753L571.204 66.781L572.983 67.6934ZM571.375 53.9033L570.056 55.4069L570.063 55.4127L570.069 55.4184L571.375 53.9033ZM555.713 52.6377L554.787 50.8648L554.781 50.8682L555.713 52.6377ZM551.151 57.0146L549.414 56.0241L549.411 56.0295L551.151 57.0146ZM549.569 63.3164H547.569V65.3164H549.569V63.3164ZM555.977 63.3164V65.3164H557.977V63.3164H555.977ZM566.655 57.9111L565.173 59.2542L565.179 59.2605L565.185 59.2667L566.655 57.9111ZM567.024 66.5068L565.287 65.5169L565.282 65.5242L567.024 66.5068ZM563.096 71.6484L564.57 73L564.577 72.9922L564.584 72.9843L563.096 71.6484ZM550.308 85.5967L548.833 84.2451L548.308 84.8186V85.5967H550.308ZM74.8584 51.6094H76.8584V49.6094H74.8584V51.6094ZM68.2139 51.6094V49.6094H66.2139V51.6094H68.2139ZM52.8154 51.6094H54.8154V49.6094H52.8154V51.6094ZM46.1709 51.6094V49.6094H44.1709V51.6094H46.1709ZM50.0469 87.0205L48.6995 88.4986L48.705 88.5036L50.0469 87.0205ZM70.9297 86.9678L72.2775 88.4454L72.278 88.445L70.9297 86.9678ZM95.9521 79.6377L94.8722 81.3211L94.8794 81.3257L94.8865 81.3302L95.9521 79.6377ZM96.0576 84.7793L97.2262 86.4024L97.2368 86.3947L97.2473 86.387L96.0576 84.7793ZM88.0156 84.5156L86.7823 86.0901L86.7905 86.0965L86.7988 86.1028L88.0156 84.5156ZM86.3018 81.0088L88.2984 80.8927L88.1889 79.0088H86.3018V81.0088ZM80.0791 81.0088V79.0088H78.0791V81.0088H80.0791ZM100.487 88.1543L101.681 89.7591L101.689 89.7527L100.487 88.1543ZM102.623 78.0029L100.938 79.0803L100.944 79.09L100.951 79.0996L102.623 78.0029ZM99.4326 75.2607L98.478 77.0182L98.4908 77.0252L98.5038 77.032L99.4326 75.2607ZM93.5264 73.2832L93.0896 75.235L93.1026 75.2378L93.5264 73.2832ZM88.5957 66.7178L87.4212 65.0989L87.4136 65.1045L87.406 65.1101L88.5957 66.7178ZM95.6885 66.9814L94.3474 68.4652L94.3553 68.4724L94.3633 68.4794L95.6885 66.9814ZM97.0596 70.04H95.0596V72.04H97.0596V70.04ZM103.467 70.04V72.04H105.467V70.04H103.467ZM100.303 63.4746L99.047 65.0312L99.0533 65.0363L100.303 63.4746ZM85.8271 76.3154L84.9565 78.116L84.9589 78.1171L85.8271 76.3154ZM111.957 86.7041L110.528 88.1036L110.538 88.1134L111.957 86.7041ZM128.252 89.1299L129.133 90.9254L129.14 90.922L128.252 89.1299ZM132.84 85.1484L134.501 86.2618L135.438 84.8635L134.221 83.7015L132.84 85.1484ZM129.386 81.8525L130.766 80.4056L129.166 78.878L127.807 80.6247L129.386 81.8525ZM116.993 83.3555L115.579 84.7697L115.588 84.7787L116.993 83.3555ZM114.646 77.7656V75.7656H112.476L112.653 77.9293L114.646 77.7656ZM133.288 77.7656V79.7656H135.288V77.7656H133.288ZM130.098 64.6611L128.575 65.9574L128.58 65.9636L130.098 64.6611ZM109.821 68.0625L108.027 67.1793L108.024 67.1851L109.821 68.0625ZM116.809 67.9307L115.311 66.6046L115.306 66.6106L115.301 66.6167L116.809 67.9307ZM125.246 67.7461L123.763 69.0879L123.768 69.0938L123.774 69.0997L125.246 67.7461ZM126.96 72.5977H128.96V72.5322L128.956 72.4668L126.96 72.5977ZM126.96 73.0723V75.0723H128.96V73.0723H126.96ZM114.752 73.0723L112.77 72.8027L112.462 75.0723H114.752V73.0723ZM153.222 67.3242L152.893 69.297L155.211 69.6834L155.222 67.333L153.222 67.3242ZM153.248 61.3125L155.248 61.3213L155.254 59.9755L154.01 59.4631L153.248 61.3125ZM144.547 64.6611L142.549 64.7602L142.865 71.1329L146.244 65.72L144.547 64.6611ZM144.389 61.4707L146.386 61.3717L146.292 59.4707H144.389V61.4707ZM138.271 61.4707V59.4707H136.271V61.4707H138.271ZM138.271 90H136.271V92H138.271V90ZM144.679 90V92H146.679V90H144.679ZM144.679 70.4883L142.857 69.6628L142.679 70.0563V70.4883H144.679ZM187.657 90V92H189.657V90H187.657ZM181.276 90H179.276V92H181.276V90ZM187.657 51.4775H189.657V49.4775H187.657V51.4775ZM186.84 51.4775V49.4775H186.484L186.149 49.6006L186.84 51.4775ZM171.863 56.9883L171.173 55.1113L169.863 55.5931V56.9883H171.863ZM171.863 62.3936H169.863V65.1906L172.51 64.2861L171.863 62.3936ZM181.276 59.1768H183.276V56.3797L180.63 57.2842L181.276 59.1768ZM452.858 51.6094V77.2646H456.858V51.6094H452.858ZM448.214 53.6094H454.858V49.6094H448.214V53.6094ZM450.214 77.0801V51.6094H446.214V77.0801H450.214ZM440.515 87.2012C443.417 87.2012 445.955 86.4305 447.74 84.5469C449.507 82.6833 450.214 80.0696 450.214 77.0801H446.214C446.214 79.5046 445.637 80.9514 444.838 81.7949C444.057 82.6184 442.745 83.2012 440.515 83.2012V87.2012ZM433.325 84.5567C435.12 86.4247 437.635 87.2012 440.515 87.2012V83.2012C438.331 83.2012 437.015 82.6242 436.209 81.7851L433.325 84.5567ZM430.815 77.291C430.815 80.1811 431.551 82.7115 433.325 84.5567L436.209 81.7851C435.38 80.9232 434.815 79.5338 434.815 77.291H430.815ZM430.815 51.6094V77.291H434.815V51.6094H430.815ZM426.171 53.6094H432.815V49.6094H426.171V53.6094ZM428.171 77.2383V51.6094H424.171V77.2383H428.171ZM431.394 85.5424C429.305 83.6384 428.171 80.959 428.171 77.2383H424.171C424.171 81.8495 425.62 85.6917 428.7 88.4986L431.394 85.5424ZM440.515 88.5273C436.482 88.5273 433.516 87.4623 431.389 85.5374L428.705 88.5036C431.746 91.2545 435.759 92.5273 440.515 92.5273V88.5273ZM449.582 85.4902C447.43 87.4533 444.479 88.5273 440.515 88.5273V92.5273C445.234 92.5273 449.227 91.2283 452.278 88.4454L449.582 85.4902ZM452.858 77.2646C452.858 80.8735 451.721 83.5373 449.581 85.4906L452.278 88.445C455.376 85.617 456.858 81.8121 456.858 77.2646H452.858ZM479.376 82.248C479.376 80.4338 478.562 78.9173 477.018 77.9452L474.887 81.3302C475.241 81.5534 475.376 81.7771 475.376 82.248H479.376ZM477.247 86.387C478.604 85.3834 479.376 83.9584 479.376 82.248H475.376C475.376 82.6119 475.27 82.8744 474.868 83.1716L477.247 86.387ZM472.208 87.7285C474.097 87.7285 475.865 87.3827 477.226 86.4024L474.889 83.1562C474.493 83.4416 473.694 83.7285 472.208 83.7285V87.7285ZM466.799 86.1028C468.297 87.2517 470.164 87.7285 472.208 87.7285V83.7285C470.771 83.7285 469.843 83.3967 469.232 82.9284L466.799 86.1028ZM464.305 81.1249C464.422 83.1267 465.214 84.8616 466.782 86.0901L469.249 82.9412C468.708 82.5173 468.358 81.9144 468.298 80.8927L464.305 81.1249ZM460.079 83.0088H466.302V79.0088H460.079V83.0088ZM463.254 84.6449C462.453 83.4839 462.079 82.286 462.079 81.0088H458.079C458.079 83.1418 458.725 85.1255 459.963 86.9176L463.254 84.6449ZM466.718 87.4458C465.174 86.7334 464.046 85.7919 463.254 84.6449L459.963 86.9176C461.21 88.7237 462.929 90.1025 465.042 91.0776L466.718 87.4458ZM472.129 88.5273C470.034 88.5273 468.244 88.1502 466.718 87.4458L465.042 91.0776C467.172 92.0607 469.548 92.5273 472.129 92.5273V88.5273ZM479.294 86.5495C477.603 87.8074 475.273 88.5273 472.129 88.5273V92.5273C475.875 92.5273 479.118 91.6653 481.681 89.7591L479.294 86.5495ZM481.678 81.9053C481.678 83.8163 480.932 85.3177 479.285 86.5559L481.689 89.7527C484.297 87.7917 485.678 85.127 485.678 81.9053H481.678ZM480.951 79.0996C481.402 79.7877 481.678 80.6894 481.678 81.9053H485.678C485.678 80.0625 485.251 78.3627 484.296 76.9062L480.951 79.0996ZM478.504 77.032C479.721 77.6704 480.485 78.372 480.938 79.0803L484.308 76.9256C483.39 75.4893 482.027 74.3628 480.361 73.4895L478.504 77.032ZM473.103 75.2378C475.526 75.7631 477.289 76.3723 478.478 77.0182L480.387 73.5033C478.729 72.6023 476.554 71.8931 473.95 71.3286L473.103 75.2378ZM467.415 73.2916C468.587 74.0646 470.602 74.6783 473.09 75.2349L473.963 71.3315C471.423 70.7631 470.098 70.2694 469.618 69.9525L467.415 73.2916ZM465.277 69.3281C465.277 70.9891 466.032 72.379 467.415 73.2916L469.618 69.9525C469.349 69.7753 469.277 69.6359 469.277 69.3281H465.277ZM467.406 65.1101C466.019 66.1362 465.277 67.6018 465.277 69.3281H469.277C469.277 68.8748 469.414 68.6001 469.785 68.3255L467.406 65.1101ZM472.05 63.7422C470.336 63.7422 468.741 64.1411 467.421 65.0989L469.77 68.3366C470.243 67.9936 470.951 67.7422 472.05 67.7422V63.7422ZM477.03 65.4977C475.669 64.268 473.939 63.7422 472.05 63.7422V67.7422C473.184 67.7422 473.88 68.0426 474.347 68.4652L477.03 65.4977ZM479.06 70.04C479.06 68.2421 478.361 66.6752 477.014 65.4835L474.363 68.4794C474.844 68.9048 475.06 69.3771 475.06 70.04H479.06ZM483.467 68.04H477.06V72.04H483.467V68.04ZM479.053 65.0363C480.691 66.3463 481.467 67.9613 481.467 70.04H485.467C485.467 66.7399 484.133 63.978 481.552 61.9129L479.053 65.0363ZM472.05 62.9434C475.128 62.9434 477.397 63.7005 479.047 65.0312L481.559 61.918C479.025 59.8738 475.792 58.9434 472.05 58.9434V62.9434ZM465.386 64.9862C467.037 63.6708 469.207 62.9434 472.05 62.9434V58.9434C468.495 58.9434 465.391 59.8683 462.893 61.8576L465.386 64.9862ZM463.028 69.5918C463.028 67.7922 463.745 66.2929 465.386 64.9862L462.893 61.8576C460.385 63.8556 459.028 66.4696 459.028 69.5918H463.028ZM466.698 74.5149C465.315 73.8462 464.412 73.0921 463.856 72.3125C463.315 71.554 463.028 70.6721 463.028 69.5918H459.028C459.028 71.447 459.542 73.1536 460.6 74.6362C461.643 76.0979 463.14 77.2378 464.957 78.116L466.698 74.5149ZM471.696 76.0982C469.62 75.663 467.966 75.126 466.695 74.5137L464.959 78.1171C466.606 78.9111 468.591 79.5343 470.875 80.0131L471.696 76.0982ZM477.032 77.9543C475.779 77.1502 473.922 76.5651 471.696 76.0982L470.875 80.0131C473.008 80.4603 474.262 80.9298 474.872 81.3211L477.032 77.9543ZM501.845 88.5273C498.241 88.5273 495.482 87.415 493.376 85.2948L490.538 88.1134C493.495 91.0909 497.327 92.5273 501.845 92.5273V88.5273ZM507.371 87.3344C505.779 88.1158 503.95 88.5273 501.845 88.5273V92.5273C504.486 92.5273 506.928 92.0072 509.133 90.9253L507.371 87.3344ZM511.178 84.0351C510.238 85.4379 508.981 86.5367 507.364 87.3378L509.14 90.922C511.355 89.8246 513.156 88.2691 514.501 86.2618L511.178 84.0351ZM508.005 83.2995L511.459 86.5954L514.221 83.7015L510.766 80.4056L508.005 83.2995ZM502.214 87.4121C505.784 87.4121 508.751 85.9269 510.964 83.0804L507.807 80.6247C506.33 82.5243 504.515 83.4121 502.214 83.4121V87.4121ZM495.588 84.7787C497.38 86.5477 499.638 87.4121 502.214 87.4121V83.4121C500.606 83.4121 499.384 82.9054 498.398 81.9323L495.588 84.7787ZM492.653 77.9293C492.876 80.6496 493.804 82.9944 495.579 84.7697L498.407 81.9413C497.44 80.9743 496.803 79.5926 496.64 77.602L492.653 77.9293ZM513.288 75.7656H494.646V79.7656H513.288V75.7656ZM511.288 75.1816V77.7656H515.288V75.1816H511.288ZM508.58 65.9636C510.293 67.9603 511.288 70.9394 511.288 75.1816H515.288C515.288 70.3535 514.156 66.319 511.615 63.3587L508.58 65.9636ZM501.106 62.9434C504.53 62.9434 506.919 64.0125 508.575 65.9574L511.621 63.3649C509.057 60.3527 505.453 58.9434 501.106 58.9434V62.9434ZM495.526 64.5089C497.18 63.4697 499.023 62.9434 501.106 62.9434V58.9434C498.303 58.9434 495.717 59.6651 493.398 61.122L495.526 64.5089ZM491.616 68.9457C492.571 67.0043 493.875 65.546 495.526 64.5089L493.398 61.122C491.076 62.5809 489.286 64.6207 488.027 67.1793L491.616 68.9457ZM490.187 75.6826C490.187 73.0945 490.68 70.8617 491.619 68.9399L488.024 67.1851C486.783 69.7282 486.187 72.5755 486.187 75.6826H490.187ZM490.187 76.4736V75.6826H486.187V76.4736H490.187ZM493.386 85.3046C491.305 83.1798 490.187 80.3075 490.187 76.4736H486.187C486.187 81.1475 487.582 85.0956 490.528 88.1036L493.386 85.3046ZM501.08 64.085C498.795 64.085 496.81 64.9131 495.311 66.6046L498.306 69.2567C498.987 68.4873 499.85 68.085 501.08 68.085V64.085ZM506.729 66.4043C505.276 64.7986 503.304 64.085 501.08 64.085V68.085C502.407 68.085 503.212 68.4788 503.763 69.0879L506.729 66.4043ZM508.956 72.4668C508.798 70.0666 508.142 67.9408 506.718 66.3925L503.774 69.0997C504.354 69.7311 504.84 70.8396 504.964 72.7285L508.956 72.4668ZM508.96 73.0723V72.5977H504.96V73.0723H508.96ZM494.752 75.0723H506.96V71.0723H494.752V75.0723ZM495.301 66.6167C493.895 68.2297 493.103 70.3535 492.77 72.8027L496.734 73.3418C496.998 71.3965 497.578 70.0925 498.316 69.2446L495.301 66.6167ZM533.55 65.3514C532.593 65.1919 531.613 65.1133 530.611 65.1133V69.1133C531.403 69.1133 532.163 69.1753 532.893 69.297L533.55 65.3514ZM531.248 61.3037L531.222 67.3154L535.222 67.333L535.248 61.3213L531.248 61.3037ZM530.98 62.9434C531.733 62.9434 532.208 63.0473 532.487 63.1619L534.01 59.4631C533.092 59.0855 532.056 58.9434 530.98 58.9434V62.9434ZM526.244 65.72C527.454 63.7807 528.981 62.9434 530.98 62.9434V58.9434C527.496 58.9434 524.734 60.5845 522.85 63.6022L526.244 65.72ZM522.391 61.5698L522.549 64.7602L526.544 64.5621L526.386 61.3717L522.391 61.5698ZM518.271 63.4707H524.389V59.4707H518.271V63.4707ZM520.271 90V61.4707H516.271V90H520.271ZM524.679 88H518.271V92H524.679V88ZM522.679 70.4883V90H526.679V70.4883H522.679ZM530.611 65.1133C528.895 65.1133 527.303 65.4419 525.938 66.2186C524.55 67.0081 523.525 68.188 522.857 69.6628L526.5 71.3137C526.852 70.5385 527.326 70.031 527.915 69.6954C528.528 69.3472 529.392 69.1133 530.611 69.1133V65.1133ZM576.121 88H550.308V92H576.121V88ZM574.121 84.8848V90H578.121V84.8848H574.121ZM558.297 86.8848H576.121V82.8848H558.297V86.8848ZM566.222 73.4734L556.836 83.5193L559.758 86.2502L569.145 76.2043L566.222 73.4734ZM571.204 66.781C570.246 68.6497 568.61 70.8811 566.213 73.4839L569.155 76.1938C571.679 73.4529 573.577 70.9207 574.763 68.6057L571.204 66.781ZM572.618 61.6553C572.618 63.1844 572.184 64.8831 571.207 66.7753L574.76 68.6114C575.962 66.2849 576.618 63.9582 576.618 61.6553H572.618ZM570.069 55.4184C571.719 56.8399 572.618 58.8307 572.618 61.6553H576.618C576.618 57.8705 575.355 54.6933 572.681 52.3883L570.069 55.4184ZM562.568 53.082C565.961 53.082 568.376 53.9337 570.056 55.4069L572.694 52.3997C570.085 50.1113 566.628 49.082 562.568 49.082V53.082ZM556.639 54.4106C558.298 53.5441 560.257 53.082 562.568 53.082V49.082C559.712 49.082 557.1 49.6571 554.787 50.8648L556.639 54.4106ZM552.889 58.0052C553.767 56.465 555.004 55.2719 556.645 54.4072L554.781 50.8682C552.485 52.0777 550.68 53.8026 549.414 56.0241L552.889 58.0052ZM551.569 63.3164C551.569 61.2912 552.023 59.5355 552.892 57.9998L549.411 56.0295C548.171 58.2204 547.569 60.6658 547.569 63.3164H551.569ZM555.977 61.3164H549.569V65.3164H555.977V61.3164ZM556.206 56.7819C554.645 58.5113 553.977 60.7712 553.977 63.3164H557.977C557.977 61.4671 558.451 60.2641 559.175 59.4623L556.206 56.7819ZM562.516 54.2236C560.008 54.2236 557.808 55.0068 556.206 56.7819L559.175 59.4623C559.858 58.7061 560.875 58.2236 562.516 58.2236V54.2236ZM568.137 56.5681C566.681 54.9617 564.729 54.2236 562.516 54.2236V58.2236C563.782 58.2236 564.59 58.6105 565.173 59.2542L568.137 56.5681ZM570.211 62.3408C570.211 60.1139 569.568 58.1195 568.126 56.5555L565.185 59.2667C565.817 59.9527 566.211 60.9114 566.211 62.3408H570.211ZM568.762 67.4967C569.699 65.8525 570.211 64.1261 570.211 62.3408H566.211C566.211 63.3329 565.932 64.3838 565.287 65.5169L568.762 67.4967ZM564.584 72.9843C566.466 70.8875 567.887 69.0476 568.766 67.4895L565.282 65.5242C564.615 66.7083 563.417 68.2961 561.607 70.3126L564.584 72.9843ZM551.782 86.9483L564.57 73L561.622 70.2969L548.833 84.2451L551.782 86.9483ZM552.308 90V85.5967H548.308V90H552.308ZM72.8584 51.6094V77.2646H76.8584V51.6094H72.8584ZM68.2139 53.6094H74.8584V49.6094H68.2139V53.6094ZM70.2139 77.0801V51.6094H66.2139V77.0801H70.2139ZM60.5146 87.2012C63.4174 87.2012 65.9548 86.4305 67.7405 84.5469C69.5072 82.6833 70.2139 80.0696 70.2139 77.0801H66.2139C66.2139 79.5046 65.6373 80.9514 64.8377 81.7949C64.057 82.6184 62.7447 83.2012 60.5146 83.2012V87.2012ZM53.3246 84.5567C55.1197 86.4247 57.6355 87.2012 60.5146 87.2012V83.2012C58.3313 83.2012 57.0151 82.6242 56.2086 81.7851L53.3246 84.5567ZM50.8154 77.291C50.8154 80.1811 51.5513 82.7115 53.3246 84.5567L56.2086 81.7851C55.3804 80.9232 54.8154 79.5338 54.8154 77.291H50.8154ZM50.8154 51.6094V77.291H54.8154V51.6094H50.8154ZM46.1709 53.6094H52.8154V49.6094H46.1709V53.6094ZM48.1709 77.2383V51.6094H44.1709V77.2383H48.1709ZM51.3942 85.5424C49.3054 83.6384 48.1709 80.959 48.1709 77.2383H44.1709C44.1709 81.8495 45.6204 85.6917 48.6995 88.4986L51.3942 85.5424ZM60.5146 88.5273C56.4817 88.5273 53.5162 87.4623 51.3887 85.5374L48.705 88.5036C51.7455 91.2545 55.7586 92.5273 60.5146 92.5273V88.5273ZM69.5819 85.4902C67.4297 87.4533 64.4794 88.5273 60.5146 88.5273V92.5273C65.2335 92.5273 69.2266 91.2283 72.2775 88.4454L69.5819 85.4902ZM72.8584 77.2646C72.8584 80.8735 71.7214 83.5373 69.5814 85.4906L72.278 88.445C75.3762 85.617 76.8584 81.8121 76.8584 77.2646H72.8584ZM99.376 82.248C99.376 80.4338 98.5616 78.9173 97.0178 77.9452L94.8865 81.3302C95.2411 81.5534 95.376 81.7771 95.376 82.248H99.376ZM97.2473 86.387C98.6035 85.3834 99.376 83.9584 99.376 82.248H95.376C95.376 82.6119 95.2695 82.8744 94.8679 83.1716L97.2473 86.387ZM92.208 87.7285C94.0968 87.7285 95.8647 87.3827 97.2262 86.4024L94.889 83.1562C94.4927 83.4416 93.6942 83.7285 92.208 83.7285V87.7285ZM86.7988 86.1028C88.2973 87.2517 90.1642 87.7285 92.208 87.7285V83.7285C90.7713 83.7285 89.8433 83.3967 89.2325 82.9284L86.7988 86.1028ZM84.3051 81.1249C84.4215 83.1267 85.214 84.8616 86.7823 86.0901L89.2489 82.9412C88.7079 82.5173 88.3578 81.9144 88.2984 80.8927L84.3051 81.1249ZM80.0791 83.0088H86.3018V79.0088H80.0791V83.0088ZM83.2542 84.6449C82.4525 83.4839 82.0791 82.286 82.0791 81.0088H78.0791C78.0791 83.1418 78.7252 85.1255 79.9626 86.9176L83.2542 84.6449ZM86.718 87.4458C85.1744 86.7334 84.0462 85.7919 83.2542 84.6449L79.9626 86.9176C81.2097 88.7237 82.9291 90.1025 85.0418 91.0776L86.718 87.4458ZM92.1289 88.5273C90.034 88.5273 88.2443 88.1502 86.718 87.4458L85.0418 91.0776C87.1717 92.0607 89.548 92.5273 92.1289 92.5273V88.5273ZM99.2937 86.5495C97.6026 87.8074 95.2732 88.5273 92.1289 88.5273V92.5273C95.8752 92.5273 99.1181 91.6653 101.681 89.7591L99.2937 86.5495ZM101.678 81.9053C101.678 83.8163 100.932 85.3177 99.2852 86.5559L101.689 89.7527C104.297 87.7917 105.678 85.127 105.678 81.9053H101.678ZM100.951 79.0996C101.402 79.7877 101.678 80.6894 101.678 81.9053H105.678C105.678 80.0625 105.251 78.3627 104.296 76.9062L100.951 79.0996ZM98.5038 77.032C99.7212 77.6704 100.485 78.372 100.938 79.0803L104.308 76.9256C103.39 75.4893 102.027 74.3628 100.361 73.4895L98.5038 77.032ZM93.1026 75.2378C95.526 75.7631 97.289 76.3723 98.478 77.0182L100.387 73.5033C98.7286 72.6023 96.5541 71.8931 93.9501 71.3286L93.1026 75.2378ZM87.4154 73.2916C88.5873 74.0646 90.6022 74.6783 93.0896 75.2349L93.9631 71.3315C91.4232 70.7631 90.0982 70.2694 89.6178 69.9525L87.4154 73.2916ZM85.2773 69.3281C85.2773 70.9891 86.0318 72.379 87.4154 73.2916L89.6178 69.9525C89.3491 69.7753 89.2773 69.6359 89.2773 69.3281H85.2773ZM87.406 65.1101C86.0194 66.1362 85.2773 67.6018 85.2773 69.3281H89.2773C89.2773 68.8748 89.4142 68.6001 89.7854 68.3255L87.406 65.1101ZM92.0498 63.7422C90.3361 63.7422 88.7415 64.1411 87.4212 65.0989L89.7702 68.3366C90.2429 67.9936 90.951 67.7422 92.0498 67.7422V63.7422ZM97.0296 65.4977C95.669 64.268 93.9394 63.7422 92.0498 63.7422V67.7422C93.1837 67.7422 93.8798 68.0426 94.3474 68.4652L97.0296 65.4977ZM99.0596 70.04C99.0596 68.2421 98.3609 66.6752 97.0136 65.4835L94.3633 68.4794C94.8442 68.9048 95.0596 69.3771 95.0596 70.04H99.0596ZM103.467 68.04H97.0596V72.04H103.467V68.04ZM99.0533 65.0363C100.691 66.3463 101.467 67.9613 101.467 70.04H105.467C105.467 66.7399 104.133 63.978 101.552 61.9129L99.0533 65.0363ZM92.0498 62.9434C95.1282 62.9434 97.3974 63.7005 99.047 65.0312L101.558 61.918C99.0245 59.8738 95.7917 58.9434 92.0498 58.9434V62.9434ZM85.3858 64.9862C87.0371 63.6708 89.2067 62.9434 92.0498 62.9434V58.9434C88.4945 58.9434 85.3907 59.8683 82.8935 61.8576L85.3858 64.9862ZM83.0283 69.5918C83.0283 67.7922 83.7455 66.2929 85.3858 64.9862L82.8935 61.8576C80.3854 63.8556 79.0283 66.4696 79.0283 69.5918H83.0283ZM86.6978 74.5149C85.3147 73.8462 84.4123 73.0921 83.8559 72.3125C83.3145 71.554 83.0283 70.6721 83.0283 69.5918H79.0283C79.0283 71.447 79.5419 73.1536 80.6001 74.6362C81.6433 76.0979 83.1403 77.2378 84.9565 78.116L86.6978 74.5149ZM91.6956 76.0982C89.6197 75.663 87.9658 75.126 86.6954 74.5137L84.9589 78.1171C86.6065 78.9111 88.5912 79.5343 90.8747 80.0131L91.6956 76.0982ZM97.0321 77.9543C95.7787 77.1502 93.9221 76.5651 91.6956 76.0982L90.8747 80.0131C93.0076 80.4603 94.2624 80.9298 94.8722 81.3211L97.0321 77.9543ZM121.845 88.5273C118.241 88.5273 115.482 87.415 113.376 85.2948L110.538 88.1134C113.495 91.0909 117.327 92.5273 121.845 92.5273V88.5273ZM127.371 87.3344C125.779 88.1158 123.95 88.5273 121.845 88.5273V92.5273C124.486 92.5273 126.928 92.0072 129.133 90.9253L127.371 87.3344ZM131.178 84.0351C130.238 85.4379 128.981 86.5367 127.364 87.3378L129.14 90.922C131.355 89.8246 133.156 88.2691 134.501 86.2618L131.178 84.0351ZM128.005 83.2995L131.459 86.5954L134.221 83.7015L130.766 80.4056L128.005 83.2995ZM122.214 87.4121C125.784 87.4121 128.751 85.9269 130.964 83.0804L127.807 80.6247C126.33 82.5243 124.515 83.4121 122.214 83.4121V87.4121ZM115.588 84.7787C117.38 86.5477 119.638 87.4121 122.214 87.4121V83.4121C120.606 83.4121 119.384 82.9054 118.398 81.9323L115.588 84.7787ZM112.653 77.9293C112.876 80.6496 113.804 82.9944 115.579 84.7697L118.407 81.9413C117.44 80.9743 116.803 79.5926 116.64 77.602L112.653 77.9293ZM133.288 75.7656H114.646V79.7656H133.288V75.7656ZM131.288 75.1816V77.7656H135.288V75.1816H131.288ZM128.58 65.9636C130.293 67.9603 131.288 70.9394 131.288 75.1816H135.288C135.288 70.3535 134.156 66.319 131.615 63.3587L128.58 65.9636ZM121.106 62.9434C124.53 62.9434 126.919 64.0125 128.575 65.9574L131.621 63.3649C129.057 60.3527 125.453 58.9434 121.106 58.9434V62.9434ZM115.526 64.5089C117.18 63.4697 119.023 62.9434 121.106 62.9434V58.9434C118.303 58.9434 115.717 59.6651 113.398 61.122L115.526 64.5089ZM111.616 68.9457C112.571 67.0043 113.875 65.546 115.526 64.5089L113.398 61.122C111.076 62.5809 109.286 64.6207 108.027 67.1793L111.616 68.9457ZM110.187 75.6826C110.187 73.0945 110.68 70.8617 111.619 68.9399L108.024 67.1851C106.783 69.7282 106.187 72.5755 106.187 75.6826H110.187ZM110.187 76.4736V75.6826H106.187V76.4736H110.187ZM113.386 85.3046C111.305 83.1798 110.187 80.3075 110.187 76.4736H106.187C106.187 81.1475 107.582 85.0956 110.528 88.1036L113.386 85.3046ZM121.08 64.085C118.795 64.085 116.81 64.9131 115.311 66.6046L118.306 69.2567C118.987 68.4873 119.85 68.085 121.08 68.085V64.085ZM126.729 66.4043C125.276 64.7986 123.304 64.085 121.08 64.085V68.085C122.407 68.085 123.212 68.4788 123.763 69.0879L126.729 66.4043ZM128.956 72.4668C128.798 70.0666 128.142 67.9408 126.718 66.3925L123.774 69.0997C124.354 69.7311 124.84 70.8396 124.964 72.7285L128.956 72.4668ZM128.96 73.0723V72.5977H124.96V73.0723H128.96ZM114.752 75.0723H126.96V71.0723H114.752V75.0723ZM115.301 66.6167C113.895 68.2297 113.103 70.3535 112.77 72.8027L116.734 73.3418C116.998 71.3965 117.578 70.0925 118.316 69.2446L115.301 66.6167ZM153.55 65.3514C152.593 65.1919 151.613 65.1133 150.611 65.1133V69.1133C151.403 69.1133 152.163 69.1753 152.893 69.297L153.55 65.3514ZM151.248 61.3037L151.222 67.3154L155.222 67.333L155.248 61.3213L151.248 61.3037ZM150.98 62.9434C151.733 62.9434 152.208 63.0473 152.487 63.1619L154.01 59.4631C153.092 59.0855 152.056 58.9434 150.98 58.9434V62.9434ZM146.244 65.72C147.454 63.7807 148.981 62.9434 150.98 62.9434V58.9434C147.496 58.9434 144.734 60.5845 142.85 63.6022L146.244 65.72ZM142.391 61.5698L142.549 64.7602L146.544 64.5621L146.386 61.3717L142.391 61.5698ZM138.271 63.4707H144.389V59.4707H138.271V63.4707ZM140.271 90V61.4707H136.271V90H140.271ZM144.679 88H138.271V92H144.679V88ZM142.679 70.4883V90H146.679V70.4883H142.679ZM150.611 65.1133C148.895 65.1133 147.303 65.4419 145.938 66.2186C144.55 67.0081 143.525 68.188 142.857 69.6628L146.5 71.3137C146.852 70.5385 147.326 70.031 147.915 69.6954C148.528 69.3472 149.392 69.1133 150.611 69.1133V65.1133ZM187.657 88H181.276V92H187.657V88ZM185.657 51.4775V90H189.657V51.4775H185.657ZM186.84 53.4775H187.657V49.4775H186.84V53.4775ZM172.554 58.8652L187.53 53.3545L186.149 49.6006L171.173 55.1113L172.554 58.8652ZM173.863 62.3936V56.9883H169.863V62.3936H173.863ZM180.63 57.2842L171.217 60.501L172.51 64.2861L181.923 61.0693L180.63 57.2842ZM183.276 90V59.1768H179.276V90H183.276Z" fill="white" mask="url(#path-29-outside-2)"/>
</svg>
