<svg width="40" height="40" viewBox="0 0 40 40" fill="none" xmlns="http://www.w3.org/2000/svg">
<g filter="url(#filter0_dd_7204_20985)">
<mask id="path-1-outside-1_7204_20985" maskUnits="userSpaceOnUse" x="1.55415" y="5.79561" width="36.086" height="27.6007" fill="black">
<rect fill="white" x="1.55415" y="5.79561" width="36.086" height="27.6007"/>
<path fill-rule="evenodd" clip-rule="evenodd" d="M10.6029 15.8346C14.5447 15.186 16.495 16.2301 18.3831 18.2122C19.1888 19.0581 19.5125 20.266 19.2376 21.4014C18.5935 24.062 17.4266 25.9413 13.6886 27.3505C9.73188 28.8422 8.88239 25.9724 8.00604 22.7018C7.12968 19.4312 6.43048 16.5212 10.6029 15.8346ZM25.5057 11.8414C21.7677 13.2506 20.6008 15.13 19.9567 17.7906C19.6818 18.926 20.0055 20.1339 20.8112 20.9797C22.6993 22.9618 24.6496 24.0059 28.5914 23.3573C32.7638 22.6708 32.0646 19.7607 31.1883 16.4901C30.3119 13.2195 29.4624 10.3498 25.5057 11.8414Z"/>
</mask>
<path fill-rule="evenodd" clip-rule="evenodd" d="M10.6029 15.8346C14.5447 15.186 16.495 16.2301 18.3831 18.2122C19.1888 19.0581 19.5125 20.266 19.2376 21.4014C18.5935 24.062 17.4266 25.9413 13.6886 27.3505C9.73188 28.8422 8.88239 25.9724 8.00604 22.7018C7.12968 19.4312 6.43048 16.5212 10.6029 15.8346ZM25.5057 11.8414C21.7677 13.2506 20.6008 15.13 19.9567 17.7906C19.6818 18.926 20.0055 20.1339 20.8112 20.9797C22.6993 22.9618 24.6496 24.0059 28.5914 23.3573C32.7638 22.6708 32.0646 19.7607 31.1883 16.4901C30.3119 13.2195 29.4624 10.3498 25.5057 11.8414Z" fill="#FFADF3"/>
<path d="M18.3831 18.2122L21.2794 15.4533L21.2794 15.4533L18.3831 18.2122ZM10.6029 15.8346L9.95343 11.8877L10.6029 15.8346ZM19.2376 21.4014L15.3499 20.4602L15.3499 20.4602L19.2376 21.4014ZM13.6886 27.3505L15.0996 31.0934L15.0996 31.0934L13.6886 27.3505ZM19.9567 17.7906L23.8444 18.7318L23.8444 18.7318L19.9567 17.7906ZM25.5057 11.8414L26.9168 15.5843L25.5057 11.8414ZM20.8112 20.9797L23.7075 18.2208L23.7074 18.2208L20.8112 20.9797ZM28.5914 23.3573L29.2409 27.3042L28.5914 23.3573ZM21.2794 15.4533C20.1049 14.2204 18.6308 12.9811 16.5901 12.2634C14.5553 11.5479 12.3627 11.4913 9.95343 11.8877L11.2523 19.7816C12.785 19.5294 13.5384 19.6705 13.9362 19.8104C14.328 19.9482 14.7731 20.2219 15.4868 20.9712L21.2794 15.4533ZM23.1253 22.3425C23.7202 19.8855 23.023 17.2838 21.2794 15.4533L15.4868 20.9712C15.3546 20.8323 15.3048 20.6465 15.3499 20.4602L23.1253 22.3425ZM15.0996 31.0934C17.3842 30.2321 19.2548 29.0868 20.6592 27.4497C22.0678 25.8078 22.7247 23.9975 23.1253 22.3425L15.3499 20.4602C15.1065 21.4659 14.8579 21.9255 14.5874 22.2408C14.3128 22.5608 13.7309 23.0598 12.2775 23.6077L15.0996 31.0934ZM4.14234 23.7371C4.35563 24.5331 4.61898 25.508 4.96205 26.4226C5.30038 27.3245 5.81484 28.4481 6.6726 29.4354C7.60277 30.506 8.90256 31.3711 10.5847 31.6569C12.1645 31.9252 13.7069 31.6184 15.0996 31.0934L12.2775 23.6077C11.6919 23.8285 11.6444 23.7223 11.9246 23.7699C12.0763 23.7956 12.2515 23.8555 12.4191 23.9546C12.5802 24.0499 12.6749 24.1462 12.7118 24.1886C12.753 24.2361 12.6435 24.1222 12.4524 23.6129C12.2661 23.1161 12.0946 22.5058 11.8697 21.6665L4.14234 23.7371ZM9.95343 11.8877C8.48483 12.1294 6.99562 12.6349 5.76172 13.6571C4.4478 14.7457 3.75468 16.1448 3.48445 17.5371C3.23526 18.821 3.35152 20.0513 3.50949 21.0015C3.66968 21.9651 3.92905 22.9411 4.14234 23.7371L11.8697 21.6665C11.6449 20.8272 11.4882 20.2129 11.4012 19.6896C11.312 19.1529 11.3499 18.9996 11.3379 19.0613C11.3272 19.1165 11.2934 19.2473 11.2015 19.4104C11.1059 19.5799 10.9841 19.7194 10.8656 19.8175C10.6467 19.9989 10.6347 19.8832 11.2523 19.7816L9.95343 11.8877ZM23.8444 18.7318C24.0878 17.7261 24.3364 17.2665 24.6069 16.9512C24.8815 16.6311 25.4634 16.1322 26.9168 15.5843L24.0947 8.09856C21.8101 8.95985 19.9395 10.1052 18.5351 11.7423C17.1265 13.3841 16.4696 15.1945 16.069 16.8494L23.8444 18.7318ZM23.7074 18.2208C23.8397 18.3596 23.8895 18.5454 23.8444 18.7318L16.069 16.8494C15.4741 19.3065 16.1713 21.9082 17.9149 23.7386L23.7074 18.2208ZM27.942 19.4104C26.4093 19.6626 25.6559 19.5214 25.2581 19.3816C24.8663 19.2438 24.4212 18.97 23.7075 18.2208L17.9149 23.7386C19.0894 24.9715 20.5635 26.2109 22.6042 26.9285C24.639 27.6441 26.8316 27.7007 29.2409 27.3042L27.942 19.4104ZM27.3246 17.5254C27.5494 18.3647 27.7061 18.979 27.7931 19.5023C27.8823 20.039 27.8444 20.1924 27.8564 20.1306C27.8671 20.0754 27.9009 19.9447 27.9928 19.7816C28.0884 19.612 28.2102 19.4726 28.3287 19.3744C28.5476 19.1931 28.5596 19.3088 27.942 19.4104L29.2409 27.3042C30.7095 27.0626 32.1987 26.5571 33.4326 25.5348C34.7465 24.4462 35.4396 23.0472 35.7098 21.6549C35.959 20.371 35.8428 19.1407 35.6848 18.1904C35.5246 17.2268 35.2653 16.2509 35.052 15.4549L27.3246 17.5254ZM26.9168 15.5843C27.5024 15.3635 27.5499 15.4697 27.2697 15.4221C27.118 15.3963 26.9428 15.3365 26.7752 15.2374C26.6141 15.1421 26.5194 15.0458 26.4825 15.0033C26.4413 14.9558 26.5508 15.0697 26.7419 15.5791C26.9282 16.0758 27.0997 16.6861 27.3246 17.5254L35.052 15.4549C34.8387 14.6589 34.5753 13.684 34.2322 12.7694C33.8939 11.8675 33.3795 10.7439 32.5217 9.75656C31.5915 8.68592 30.2917 7.82086 28.6096 7.53508C27.0298 7.2667 25.4874 7.57354 24.0947 8.09856L26.9168 15.5843Z" fill="white" mask="url(#path-1-outside-1_7204_20985)"/>
<circle cx="19.5964" cy="19.5961" r="5" transform="rotate(-15 19.5964 19.5961)" fill="#A85D9F"/>
</g>
<defs>
<filter id="filter0_dd_7204_20985" x="-1.5" y="-1" width="42.1914" height="42.9414" filterUnits="userSpaceOnUse" color-interpolation-filters="sRGB">
<feFlood flood-opacity="0" result="BackgroundImageFix"/>
<feColorMatrix in="SourceAlpha" type="matrix" values="0 0 0 0 0 0 0 0 0 0 0 0 0 0 0 0 0 0 127 0" result="hardAlpha"/>
<feOffset dy="1.25"/>
<feGaussianBlur stdDeviation="0.75"/>
<feColorMatrix type="matrix" values="0 0 0 0 0 0 0 0 0 0 0 0 0 0 0 0 0 0 0.24 0"/>
<feBlend mode="normal" in2="BackgroundImageFix" result="effect1_dropShadow_7204_20985"/>
<feColorMatrix in="SourceAlpha" type="matrix" values="0 0 0 0 0 0 0 0 0 0 0 0 0 0 0 0 0 0 127 0" result="hardAlpha"/>
<feOffset/>
<feGaussianBlur stdDeviation="0.5"/>
<feColorMatrix type="matrix" values="0 0 0 0 0 0 0 0 0 0 0 0 0 0 0 0 0 0 0.16 0"/>
<feBlend mode="normal" in2="effect1_dropShadow_7204_20985" result="effect2_dropShadow_7204_20985"/>
<feBlend mode="normal" in="SourceGraphic" in2="effect2_dropShadow_7204_20985" result="shape"/>
</filter>
</defs>
</svg>
