<svg width="860" height="540" viewBox="0 0 860 540" fill="none" xmlns="http://www.w3.org/2000/svg">
<path d="M303 57H415C423.284 57 430 63.7157 430 72V136C430 144.284 423.284 151 415 151H303C294.716 151 288 144.284 288 136V72C288 63.7157 294.716 57 303 57Z" fill="#E5F2FF"/>
<path d="M303 57H415C423.284 57 430 63.7157 430 72V136C430 144.284 423.284 151 415 151H303C294.716 151 288 144.284 288 136V72C288 63.7157 294.716 57 303 57Z" stroke="#87CEFF" stroke-width="2"/>
<path d="M344.477 105.872V104.16H346.829C347.191 104.16 347.511 104.08 347.789 103.92C348.077 103.76 348.306 103.541 348.477 103.264C348.658 102.987 348.749 102.672 348.749 102.32C348.749 101.787 348.557 101.349 348.173 101.008C347.789 100.667 347.293 100.496 346.685 100.496H344.477V98.8L346.749 98.784C347.517 98.7733 348.194 98.9227 348.781 99.232C349.367 99.5307 349.826 99.9467 350.157 100.48C350.487 101.013 350.653 101.627 350.653 102.32C350.653 103.013 350.477 103.627 350.125 104.16C349.783 104.693 349.309 105.115 348.701 105.424C348.093 105.723 347.405 105.872 346.637 105.872H344.477ZM342.797 110V98.8H344.653V110H342.797ZM349.005 110L346.381 105.456L347.821 104.464L351.101 110H349.005ZM356.328 110.192C355.528 110.192 354.814 110.016 354.184 109.664C353.566 109.301 353.08 108.805 352.728 108.176C352.376 107.547 352.2 106.821 352.2 106C352.2 105.179 352.371 104.453 352.712 103.824C353.064 103.195 353.55 102.704 354.168 102.352C354.787 101.989 355.496 101.808 356.296 101.808C357.096 101.808 357.806 101.989 358.424 102.352C359.043 102.704 359.523 103.195 359.864 103.824C360.216 104.453 360.392 105.179 360.392 106C360.392 106.821 360.222 107.547 359.88 108.176C359.539 108.805 359.059 109.301 358.44 109.664C357.822 110.016 357.118 110.192 356.328 110.192ZM356.328 108.544C356.766 108.544 357.155 108.437 357.496 108.224C357.838 108 358.104 107.701 358.296 107.328C358.488 106.944 358.584 106.501 358.584 106C358.584 105.499 358.483 105.061 358.28 104.688C358.088 104.304 357.822 104.005 357.48 103.792C357.139 103.568 356.744 103.456 356.296 103.456C355.848 103.456 355.454 103.563 355.112 103.776C354.771 103.989 354.504 104.288 354.312 104.672C354.12 105.056 354.024 105.499 354.024 106C354.024 106.501 354.12 106.944 354.312 107.328C354.515 107.701 354.787 108 355.128 108.224C355.48 108.437 355.88 108.544 356.328 108.544ZM365.625 110.192C364.825 110.192 364.11 110.016 363.481 109.664C362.862 109.301 362.377 108.805 362.025 108.176C361.673 107.547 361.497 106.821 361.497 106C361.497 105.179 361.668 104.453 362.009 103.824C362.361 103.195 362.846 102.704 363.465 102.352C364.084 101.989 364.793 101.808 365.593 101.808C366.393 101.808 367.102 101.989 367.721 102.352C368.34 102.704 368.82 103.195 369.161 103.824C369.513 104.453 369.689 105.179 369.689 106C369.689 106.821 369.518 107.547 369.177 108.176C368.836 108.805 368.356 109.301 367.737 109.664C367.118 110.016 366.414 110.192 365.625 110.192ZM365.625 108.544C366.062 108.544 366.452 108.437 366.793 108.224C367.134 108 367.401 107.701 367.593 107.328C367.785 106.944 367.881 106.501 367.881 106C367.881 105.499 367.78 105.061 367.577 104.688C367.385 104.304 367.118 104.005 366.777 103.792C366.436 103.568 366.041 103.456 365.593 103.456C365.145 103.456 364.75 103.563 364.409 103.776C364.068 103.989 363.801 104.288 363.609 104.672C363.417 105.056 363.321 105.499 363.321 106C363.321 106.501 363.417 106.944 363.609 107.328C363.812 107.701 364.084 108 364.425 108.224C364.777 108.437 365.177 108.544 365.625 108.544ZM374.426 110.192C373.583 110.192 372.938 109.984 372.49 109.568C372.053 109.141 371.834 108.533 371.834 107.744V99.504H373.61V107.408C373.61 107.781 373.695 108.064 373.866 108.256C374.047 108.448 374.309 108.544 374.65 108.544C374.757 108.544 374.874 108.523 375.002 108.48C375.13 108.437 375.274 108.357 375.434 108.24L376.09 109.6C375.813 109.792 375.535 109.936 375.258 110.032C374.981 110.139 374.703 110.192 374.426 110.192ZM370.506 103.536V102H375.77V103.536H370.506Z" fill="#00344D"/>
<path d="M196 225H307C315.284 225 322 231.716 322 240V304C322 312.284 315.284 319 307 319H196C187.716 319 181 312.284 181 304V240C181 231.716 187.716 225 196 225Z" fill="#E5F2FF"/>
<path d="M196 225H307C315.284 225 322 231.716 322 240V304C322 312.284 315.284 319 307 319H196C187.716 319 181 312.284 181 304V240C181 231.716 187.716 225 196 225Z" stroke="#87CEFF" stroke-width="2"/>
<path d="M218.217 266.224C217.332 266.224 216.553 266.048 215.881 265.696C215.22 265.333 214.703 264.827 214.329 264.176C213.967 263.525 213.785 262.768 213.785 261.904H215.641C215.641 262.427 215.748 262.885 215.961 263.28C216.185 263.664 216.495 263.968 216.889 264.192C217.284 264.405 217.737 264.512 218.249 264.512C218.772 264.512 219.231 264.405 219.625 264.192C220.031 263.968 220.34 263.664 220.553 263.28C220.767 262.885 220.873 262.427 220.873 261.904H222.729C222.729 262.768 222.543 263.525 222.169 264.176C221.807 264.827 221.284 265.333 220.601 265.696C219.929 266.048 219.135 266.224 218.217 266.224ZM213.785 261.904V254.8H215.641V261.904H213.785ZM220.873 261.904V254.8H222.729V261.904H220.873ZM224.89 266V258H226.57L226.682 259.472V266H224.89ZM230.314 266V261.904L232.106 261.424V266H230.314ZM230.314 261.904C230.314 261.264 230.24 260.773 230.09 260.432C229.952 260.08 229.749 259.835 229.482 259.696C229.226 259.557 228.922 259.488 228.57 259.488C227.973 259.477 227.509 259.675 227.178 260.08C226.848 260.485 226.682 261.067 226.682 261.824H226.01C226.01 260.981 226.133 260.261 226.378 259.664C226.624 259.056 226.976 258.597 227.434 258.288C227.893 257.968 228.437 257.808 229.066 257.808C230.037 257.808 230.784 258.107 231.306 258.704C231.84 259.291 232.106 260.197 232.106 261.424L230.314 261.904ZM237.602 266.192C236.802 266.192 236.087 266.016 235.458 265.664C234.839 265.301 234.354 264.805 234.002 264.176C233.65 263.547 233.474 262.821 233.474 262C233.474 261.179 233.644 260.453 233.986 259.824C234.338 259.195 234.823 258.704 235.442 258.352C236.06 257.989 236.77 257.808 237.57 257.808C238.37 257.808 239.079 257.989 239.698 258.352C240.316 258.704 240.796 259.195 241.138 259.824C241.49 260.453 241.666 261.179 241.666 262C241.666 262.821 241.495 263.547 241.154 264.176C240.812 264.805 240.332 265.301 239.714 265.664C239.095 266.016 238.391 266.192 237.602 266.192ZM237.602 264.544C238.039 264.544 238.428 264.437 238.77 264.224C239.111 264 239.378 263.701 239.57 263.328C239.762 262.944 239.858 262.501 239.858 262C239.858 261.499 239.756 261.061 239.554 260.688C239.362 260.304 239.095 260.005 238.754 259.792C238.412 259.568 238.018 259.456 237.57 259.456C237.122 259.456 236.727 259.563 236.386 259.776C236.044 259.989 235.778 260.288 235.586 260.672C235.394 261.056 235.298 261.499 235.298 262C235.298 262.501 235.394 262.944 235.586 263.328C235.788 263.701 236.06 264 236.402 264.224C236.754 264.437 237.154 264.544 237.602 264.544ZM244.403 261.744C244.403 260.88 244.568 260.171 244.899 259.616C245.229 259.061 245.656 258.651 246.179 258.384C246.712 258.107 247.267 257.968 247.843 257.968V259.68C247.352 259.68 246.888 259.749 246.451 259.888C246.024 260.016 245.677 260.229 245.411 260.528C245.144 260.827 245.011 261.221 245.011 261.712L244.403 261.744ZM243.219 266V258H245.011V266H243.219ZM254.807 266L254.727 264.512V254.8H256.503V266H254.807ZM252.199 266.192C251.474 266.192 250.839 266.021 250.295 265.68C249.762 265.328 249.34 264.837 249.031 264.208C248.732 263.579 248.583 262.843 248.583 262C248.583 261.147 248.732 260.411 249.031 259.792C249.34 259.163 249.762 258.677 250.295 258.336C250.839 257.984 251.474 257.808 252.199 257.808C252.871 257.808 253.447 257.984 253.927 258.336C254.418 258.677 254.791 259.163 255.047 259.792C255.303 260.411 255.431 261.147 255.431 262C255.431 262.843 255.303 263.579 255.047 264.208C254.791 264.837 254.418 265.328 253.927 265.68C253.447 266.021 252.871 266.192 252.199 266.192ZM252.647 264.56C253.052 264.56 253.41 264.453 253.719 264.24C254.039 264.016 254.284 263.712 254.455 263.328C254.636 262.944 254.727 262.501 254.727 262C254.727 261.499 254.636 261.056 254.455 260.672C254.284 260.288 254.039 259.989 253.719 259.776C253.41 259.563 253.047 259.456 252.631 259.456C252.204 259.456 251.826 259.563 251.495 259.776C251.164 259.989 250.903 260.288 250.711 260.672C250.53 261.056 250.434 261.499 250.423 262C250.434 262.501 250.53 262.944 250.711 263.328C250.903 263.712 251.164 264.016 251.495 264.24C251.836 264.453 252.22 264.56 252.647 264.56ZM262.052 266.192C261.274 266.192 260.58 266.016 259.972 265.664C259.375 265.301 258.9 264.805 258.548 264.176C258.207 263.547 258.036 262.821 258.036 262C258.036 261.179 258.212 260.453 258.564 259.824C258.916 259.195 259.396 258.704 260.004 258.352C260.623 257.989 261.327 257.808 262.116 257.808C262.831 257.808 263.471 257.995 264.036 258.368C264.612 258.731 265.071 259.259 265.412 259.952C265.754 260.645 265.924 261.472 265.924 262.432H264.116C264.116 261.739 264.031 261.168 263.86 260.72C263.7 260.272 263.466 259.941 263.156 259.728C262.858 259.504 262.49 259.392 262.052 259.392C261.594 259.392 261.199 259.493 260.868 259.696C260.538 259.899 260.287 260.197 260.116 260.592C259.946 260.976 259.86 261.461 259.86 262.048C259.86 262.571 259.962 263.019 260.164 263.392C260.378 263.765 260.66 264.053 261.012 264.256C261.375 264.448 261.775 264.544 262.212 264.544C262.692 264.544 263.087 264.437 263.396 264.224C263.706 264 263.946 263.717 264.116 263.376L265.764 264.08C265.54 264.507 265.252 264.88 264.9 265.2C264.559 265.52 264.148 265.765 263.668 265.936C263.199 266.107 262.66 266.192 262.052 266.192ZM259.22 262.432V261.008H264.98V262.432H259.22ZM268.481 261.744C268.481 260.88 268.646 260.171 268.977 259.616C269.307 259.061 269.734 258.651 270.257 258.384C270.79 258.107 271.345 257.968 271.921 257.968V259.68C271.43 259.68 270.966 259.749 270.529 259.888C270.102 260.016 269.755 260.229 269.489 260.528C269.222 260.827 269.089 261.221 269.089 261.712L268.481 261.744ZM267.297 266V258H269.089V266H267.297ZM276.677 266.192C275.899 266.192 275.205 266.016 274.597 265.664C274 265.301 273.525 264.805 273.173 264.176C272.832 263.547 272.661 262.821 272.661 262C272.661 261.179 272.837 260.453 273.189 259.824C273.541 259.195 274.021 258.704 274.629 258.352C275.248 257.989 275.952 257.808 276.741 257.808C277.456 257.808 278.096 257.995 278.661 258.368C279.237 258.731 279.696 259.259 280.037 259.952C280.379 260.645 280.549 261.472 280.549 262.432H278.741C278.741 261.739 278.656 261.168 278.485 260.72C278.325 260.272 278.091 259.941 277.781 259.728C277.483 259.504 277.115 259.392 276.677 259.392C276.219 259.392 275.824 259.493 275.493 259.696C275.163 259.899 274.912 260.197 274.741 260.592C274.571 260.976 274.485 261.461 274.485 262.048C274.485 262.571 274.587 263.019 274.789 263.392C275.003 263.765 275.285 264.053 275.637 264.256C276 264.448 276.4 264.544 276.837 264.544C277.317 264.544 277.712 264.437 278.021 264.224C278.331 264 278.571 263.717 278.741 263.376L280.389 264.08C280.165 264.507 279.877 264.88 279.525 265.2C279.184 265.52 278.773 265.765 278.293 265.936C277.824 266.107 277.285 266.192 276.677 266.192ZM273.845 262.432V261.008H279.605V262.432H273.845ZM287.698 266L287.618 264.512V254.8H289.394V266H287.698ZM285.09 266.192C284.364 266.192 283.73 266.021 283.186 265.68C282.652 265.328 282.231 264.837 281.922 264.208C281.623 263.579 281.474 262.843 281.474 262C281.474 261.147 281.623 260.411 281.922 259.792C282.231 259.163 282.652 258.677 283.186 258.336C283.73 257.984 284.364 257.808 285.09 257.808C285.762 257.808 286.338 257.984 286.818 258.336C287.308 258.677 287.682 259.163 287.938 259.792C288.194 260.411 288.322 261.147 288.322 262C288.322 262.843 288.194 263.579 287.938 264.208C287.682 264.837 287.308 265.328 286.818 265.68C286.338 266.021 285.762 266.192 285.09 266.192ZM285.538 264.56C285.943 264.56 286.3 264.453 286.61 264.24C286.93 264.016 287.175 263.712 287.346 263.328C287.527 262.944 287.618 262.501 287.618 262C287.618 261.499 287.527 261.056 287.346 260.672C287.175 260.288 286.93 259.989 286.61 259.776C286.3 259.563 285.938 259.456 285.522 259.456C285.095 259.456 284.716 259.563 284.386 259.776C284.055 259.989 283.794 260.288 283.602 260.672C283.42 261.056 283.324 261.499 283.314 262C283.324 262.501 283.42 262.944 283.602 263.328C283.794 263.712 284.055 264.016 284.386 264.24C284.727 264.453 285.111 264.56 285.538 264.56ZM239.719 290V278.8H241.575V290H239.719ZM241.015 290V288.304H246.647V290H241.015ZM247.979 290L247.995 282H249.771L249.755 290H247.979ZM248.875 280.48C248.587 280.48 248.336 280.379 248.123 280.176C247.92 279.963 247.819 279.712 247.819 279.424C247.819 279.136 247.92 278.891 248.123 278.688C248.336 278.485 248.587 278.384 248.875 278.384C249.163 278.384 249.408 278.485 249.611 278.688C249.824 278.891 249.931 279.136 249.931 279.424C249.931 279.712 249.824 279.963 249.611 280.176C249.408 280.379 249.163 280.48 248.875 280.48ZM254.779 290.192C254.246 290.192 253.755 290.112 253.307 289.952C252.859 289.792 252.475 289.568 252.155 289.28C251.835 288.981 251.59 288.635 251.419 288.24L252.971 287.552C253.131 287.851 253.366 288.101 253.675 288.304C253.995 288.507 254.347 288.608 254.731 288.608C255.147 288.608 255.478 288.539 255.723 288.4C255.979 288.251 256.107 288.048 256.107 287.792C256.107 287.547 256.011 287.36 255.819 287.232C255.627 287.093 255.355 286.981 255.003 286.896L254.251 286.688C253.494 286.496 252.902 286.192 252.475 285.776C252.048 285.349 251.835 284.864 251.835 284.32C251.835 283.52 252.091 282.901 252.603 282.464C253.126 282.027 253.872 281.808 254.843 281.808C255.334 281.808 255.782 281.883 256.187 282.032C256.603 282.171 256.96 282.373 257.259 282.64C257.558 282.896 257.766 283.2 257.883 283.552L256.395 284.224C256.288 283.957 256.086 283.755 255.787 283.616C255.488 283.467 255.158 283.392 254.795 283.392C254.432 283.392 254.15 283.472 253.947 283.632C253.744 283.781 253.643 283.995 253.643 284.272C253.643 284.432 253.734 284.581 253.915 284.72C254.096 284.848 254.358 284.955 254.699 285.04L255.643 285.264C256.166 285.392 256.592 285.595 256.923 285.872C257.254 286.139 257.499 286.443 257.659 286.784C257.819 287.115 257.899 287.451 257.899 287.792C257.899 288.272 257.76 288.693 257.483 289.056C257.216 289.419 256.848 289.701 256.379 289.904C255.91 290.096 255.376 290.192 254.779 290.192ZM262.504 290.192C261.661 290.192 261.016 289.984 260.568 289.568C260.131 289.141 259.912 288.533 259.912 287.744V279.504H261.688V287.408C261.688 287.781 261.773 288.064 261.944 288.256C262.125 288.448 262.387 288.544 262.728 288.544C262.835 288.544 262.952 288.523 263.08 288.48C263.208 288.437 263.352 288.357 263.512 288.24L264.168 289.6C263.891 289.792 263.613 289.936 263.336 290.032C263.059 290.139 262.781 290.192 262.504 290.192ZM258.584 283.536V282H263.848V283.536H258.584Z" fill="#00344D"/>
<path d="M411 225H522C530.284 225 537 231.716 537 240V304C537 312.284 530.284 319 522 319H411C402.716 319 396 312.284 396 304V240C396 231.716 402.716 225 411 225Z" fill="#F2F8FF"/>
<path d="M411 225H522C530.284 225 537 231.716 537 240V304C537 312.284 530.284 319 522 319H411C402.716 319 396 312.284 396 304V240C396 231.716 402.716 225 411 225Z" stroke="#006590" stroke-width="2"/>
<path d="M449.742 266V254.8H451.598V266H449.742ZM451.214 266V264.304H456.686V266H451.214ZM451.214 261.136V259.472H456.046V261.136H451.214ZM451.214 256.496V254.8H456.638V256.496H451.214ZM460.028 261.744C460.028 260.88 460.193 260.171 460.524 259.616C460.854 259.061 461.281 258.651 461.804 258.384C462.337 258.107 462.892 257.968 463.468 257.968V259.68C462.977 259.68 462.513 259.749 462.076 259.888C461.649 260.016 461.302 260.229 461.036 260.528C460.769 260.827 460.636 261.221 460.636 261.712L460.028 261.744ZM458.844 266V258H460.636V266H458.844ZM465.84 261.744C465.84 260.88 466.005 260.171 466.336 259.616C466.667 259.061 467.093 258.651 467.616 258.384C468.149 258.107 468.704 257.968 469.28 257.968V259.68C468.789 259.68 468.325 259.749 467.888 259.888C467.461 260.016 467.115 260.229 466.848 260.528C466.581 260.827 466.448 261.221 466.448 261.712L465.84 261.744ZM464.656 266V258H466.448V266H464.656ZM474.149 266.192C473.349 266.192 472.634 266.016 472.005 265.664C471.386 265.301 470.901 264.805 470.549 264.176C470.197 263.547 470.021 262.821 470.021 262C470.021 261.179 470.191 260.453 470.533 259.824C470.885 259.195 471.37 258.704 471.989 258.352C472.607 257.989 473.317 257.808 474.117 257.808C474.917 257.808 475.626 257.989 476.245 258.352C476.863 258.704 477.343 259.195 477.685 259.824C478.037 260.453 478.213 261.179 478.213 262C478.213 262.821 478.042 263.547 477.701 264.176C477.359 264.805 476.879 265.301 476.261 265.664C475.642 266.016 474.938 266.192 474.149 266.192ZM474.149 264.544C474.586 264.544 474.975 264.437 475.317 264.224C475.658 264 475.925 263.701 476.117 263.328C476.309 262.944 476.405 262.501 476.405 262C476.405 261.499 476.303 261.061 476.101 260.688C475.909 260.304 475.642 260.005 475.301 259.792C474.959 259.568 474.565 259.456 474.117 259.456C473.669 259.456 473.274 259.563 472.933 259.776C472.591 259.989 472.325 260.288 472.133 260.672C471.941 261.056 471.845 261.499 471.845 262C471.845 262.501 471.941 262.944 472.133 263.328C472.335 263.701 472.607 264 472.949 264.224C473.301 264.437 473.701 264.544 474.149 264.544ZM480.949 261.744C480.949 260.88 481.115 260.171 481.445 259.616C481.776 259.061 482.203 258.651 482.725 258.384C483.259 258.107 483.813 257.968 484.389 257.968V259.68C483.899 259.68 483.435 259.749 482.997 259.888C482.571 260.016 482.224 260.229 481.957 260.528C481.691 260.827 481.557 261.221 481.557 261.712L480.949 261.744ZM479.765 266V258H481.557V266H479.765ZM433.888 290V288.336H437.008C437.595 288.336 438.059 288.192 438.4 287.904C438.742 287.616 438.912 287.227 438.912 286.736C438.912 286.203 438.72 285.787 438.336 285.488C437.963 285.179 437.435 285.029 436.752 285.04H433.888V283.568L435.824 283.6C436.838 283.6 437.718 283.717 438.464 283.952C439.211 284.176 439.787 284.528 440.192 285.008C440.598 285.488 440.8 286.107 440.8 286.864C440.8 287.525 440.651 288.091 440.352 288.56C440.054 289.029 439.632 289.387 439.088 289.632C438.544 289.877 437.899 290 437.152 290H433.888ZM432.976 290V278.8H434.8V290H432.976ZM433.84 285.12V283.504H436.832C437.366 283.504 437.782 283.365 438.08 283.088C438.39 282.8 438.544 282.405 438.544 281.904C438.544 281.392 438.368 280.997 438.016 280.72C437.675 280.443 437.195 280.309 436.576 280.32H433.84V278.816L436.672 278.784C437.44 278.784 438.102 278.907 438.656 279.152C439.222 279.387 439.659 279.739 439.968 280.208C440.278 280.667 440.432 281.243 440.432 281.936C440.432 282.523 440.251 283.051 439.888 283.52C439.536 283.979 439.03 284.341 438.368 284.608C437.718 284.875 436.95 285.008 436.064 285.008L433.84 285.12ZM446.117 290.192C445.317 290.192 444.603 290.016 443.973 289.664C443.355 289.301 442.869 288.805 442.517 288.176C442.165 287.547 441.989 286.821 441.989 286C441.989 285.179 442.16 284.453 442.501 283.824C442.853 283.195 443.339 282.704 443.957 282.352C444.576 281.989 445.285 281.808 446.085 281.808C446.885 281.808 447.595 281.989 448.213 282.352C448.832 282.704 449.312 283.195 449.653 283.824C450.005 284.453 450.181 285.179 450.181 286C450.181 286.821 450.011 287.547 449.669 288.176C449.328 288.805 448.848 289.301 448.229 289.664C447.611 290.016 446.907 290.192 446.117 290.192ZM446.117 288.544C446.555 288.544 446.944 288.437 447.285 288.224C447.627 288 447.893 287.701 448.085 287.328C448.277 286.944 448.373 286.501 448.373 286C448.373 285.499 448.272 285.061 448.069 284.688C447.877 284.304 447.611 284.005 447.269 283.792C446.928 283.568 446.533 283.456 446.085 283.456C445.637 283.456 445.243 283.563 444.901 283.776C444.56 283.989 444.293 284.288 444.101 284.672C443.909 285.056 443.813 285.499 443.813 286C443.813 286.501 443.909 286.944 444.101 287.328C444.304 287.701 444.576 288 444.917 288.224C445.269 288.437 445.669 288.544 446.117 288.544ZM457.094 290L456.998 288.528V282H458.774V290H457.094ZM451.558 286.576V282H453.35V286.096L451.558 286.576ZM453.35 286.096C453.35 286.725 453.425 287.216 453.574 287.568C453.724 287.92 453.926 288.165 454.182 288.304C454.449 288.443 454.753 288.512 455.094 288.512C455.702 288.523 456.172 288.325 456.502 287.92C456.833 287.515 456.998 286.933 456.998 286.176H457.67C457.67 287.019 457.542 287.744 457.286 288.352C457.041 288.949 456.689 289.408 456.23 289.728C455.782 290.037 455.244 290.192 454.614 290.192C453.644 290.192 452.892 289.893 452.358 289.296C451.825 288.699 451.558 287.792 451.558 286.576L453.35 286.096ZM460.765 290V282H462.445L462.557 283.472V290H460.765ZM466.189 290V285.904L467.981 285.424V290H466.189ZM466.189 285.904C466.189 285.264 466.115 284.773 465.965 284.432C465.827 284.08 465.624 283.835 465.357 283.696C465.101 283.557 464.797 283.488 464.445 283.488C463.848 283.477 463.384 283.675 463.053 284.08C462.723 284.485 462.557 285.067 462.557 285.824H461.885C461.885 284.981 462.008 284.261 462.253 283.664C462.499 283.056 462.851 282.597 463.309 282.288C463.768 281.968 464.312 281.808 464.941 281.808C465.912 281.808 466.659 282.107 467.181 282.704C467.715 283.291 467.981 284.197 467.981 285.424L466.189 285.904ZM475.573 290L475.493 288.512V278.8H477.269V290H475.573ZM472.965 290.192C472.239 290.192 471.605 290.021 471.061 289.68C470.527 289.328 470.106 288.837 469.797 288.208C469.498 287.579 469.349 286.843 469.349 286C469.349 285.147 469.498 284.411 469.797 283.792C470.106 283.163 470.527 282.677 471.061 282.336C471.605 281.984 472.239 281.808 472.965 281.808C473.637 281.808 474.213 281.984 474.693 282.336C475.183 282.677 475.557 283.163 475.813 283.792C476.069 284.411 476.197 285.147 476.197 286C476.197 286.843 476.069 287.579 475.813 288.208C475.557 288.837 475.183 289.328 474.693 289.68C474.213 290.021 473.637 290.192 472.965 290.192ZM473.413 288.56C473.818 288.56 474.175 288.453 474.485 288.24C474.805 288.016 475.05 287.712 475.221 287.328C475.402 286.944 475.493 286.501 475.493 286C475.493 285.499 475.402 285.056 475.221 284.672C475.05 284.288 474.805 283.989 474.485 283.776C474.175 283.563 473.813 283.456 473.397 283.456C472.97 283.456 472.591 283.563 472.261 283.776C471.93 283.989 471.669 284.288 471.477 284.672C471.295 285.056 471.199 285.499 471.189 286C471.199 286.501 471.295 286.944 471.477 287.328C471.669 287.712 471.93 288.016 472.261 288.24C472.602 288.453 472.986 288.56 473.413 288.56ZM484.098 290L484.018 288.496V285.888C484.018 285.344 483.959 284.891 483.842 284.528C483.724 284.165 483.538 283.888 483.282 283.696C483.036 283.504 482.711 283.408 482.306 283.408C481.932 283.408 481.602 283.488 481.314 283.648C481.026 283.808 480.786 284.053 480.594 284.384L478.962 283.808C479.143 283.456 479.378 283.125 479.666 282.816C479.954 282.507 480.316 282.261 480.754 282.08C481.202 281.899 481.73 281.808 482.338 281.808C483.116 281.808 483.762 281.952 484.274 282.24C484.796 282.528 485.186 282.955 485.442 283.52C485.698 284.085 485.826 284.784 485.826 285.616L485.778 290H484.098ZM481.826 290.192C480.866 290.192 480.119 289.979 479.586 289.552C479.063 289.125 478.802 288.523 478.802 287.744C478.802 286.912 479.079 286.277 479.634 285.84C480.199 285.403 480.983 285.184 481.986 285.184H484.13V286.56H482.562C481.847 286.56 481.346 286.661 481.058 286.864C480.77 287.056 480.626 287.333 480.626 287.696C480.626 288.005 480.748 288.251 480.994 288.432C481.25 288.603 481.602 288.688 482.05 288.688C482.444 288.688 482.786 288.597 483.074 288.416C483.372 288.224 483.602 287.979 483.762 287.68C483.932 287.371 484.018 287.04 484.018 286.688H484.674C484.674 287.776 484.439 288.635 483.97 289.264C483.511 289.883 482.796 290.192 481.826 290.192ZM488.824 285.744C488.824 284.88 488.99 284.171 489.32 283.616C489.651 283.061 490.078 282.651 490.6 282.384C491.134 282.107 491.688 281.968 492.264 281.968V283.68C491.774 283.68 491.31 283.749 490.872 283.888C490.446 284.016 490.099 284.229 489.832 284.528C489.566 284.827 489.432 285.221 489.432 285.712L488.824 285.744ZM487.64 290V282H489.432V290H487.64ZM494.717 293.392C494.461 293.392 494.173 293.344 493.853 293.248C493.544 293.152 493.245 293.029 492.957 292.88L493.629 291.424C493.832 291.52 494.018 291.595 494.189 291.648C494.36 291.712 494.498 291.744 494.605 291.744C494.861 291.744 495.074 291.675 495.245 291.536C495.426 291.408 495.57 291.216 495.677 290.96L496.621 288.752L499.325 282H501.277L497.565 290.848C497.341 291.36 497.112 291.808 496.877 292.192C496.653 292.576 496.37 292.869 496.029 293.072C495.688 293.285 495.25 293.392 494.717 293.392ZM496.141 290L492.557 282H494.509L497.293 288.736L497.869 290H496.141Z" fill="#00344D"/>
<path d="M88 393H200C208.284 393 215 399.716 215 408V472C215 480.284 208.284 487 200 487H88C79.7157 487 73 480.284 73 472V408C73 399.716 79.7157 393 88 393Z" fill="#E5F2FF"/>
<path d="M88 393H200C208.284 393 215 399.716 215 408V472C215 480.284 208.284 487 200 487H88C79.7157 487 73 480.284 73 472V408C73 399.716 79.7157 393 88 393Z" stroke="#87CEFF" stroke-width="2"/>
<path d="M113.305 446V434.8H115.161V446H113.305ZM114.601 446V444.304H120.233V446H114.601ZM121.565 446L121.581 438H123.357L123.341 446H121.565ZM122.461 436.48C122.173 436.48 121.922 436.379 121.709 436.176C121.506 435.963 121.405 435.712 121.405 435.424C121.405 435.136 121.506 434.891 121.709 434.688C121.922 434.485 122.173 434.384 122.461 434.384C122.749 434.384 122.994 434.485 123.197 434.688C123.41 434.891 123.517 435.136 123.517 435.424C123.517 435.712 123.41 435.963 123.197 436.176C122.994 436.379 122.749 436.48 122.461 436.48ZM128.365 446.192C127.832 446.192 127.341 446.112 126.893 445.952C126.445 445.792 126.061 445.568 125.741 445.28C125.421 444.981 125.176 444.635 125.005 444.24L126.557 443.552C126.717 443.851 126.952 444.101 127.261 444.304C127.581 444.507 127.933 444.608 128.317 444.608C128.733 444.608 129.064 444.539 129.309 444.4C129.565 444.251 129.693 444.048 129.693 443.792C129.693 443.547 129.597 443.36 129.405 443.232C129.213 443.093 128.941 442.981 128.589 442.896L127.837 442.688C127.08 442.496 126.488 442.192 126.061 441.776C125.634 441.349 125.421 440.864 125.421 440.32C125.421 439.52 125.677 438.901 126.189 438.464C126.712 438.027 127.458 437.808 128.429 437.808C128.92 437.808 129.368 437.883 129.773 438.032C130.189 438.171 130.546 438.373 130.845 438.64C131.144 438.896 131.352 439.2 131.469 439.552L129.981 440.224C129.874 439.957 129.672 439.755 129.373 439.616C129.074 439.467 128.744 439.392 128.381 439.392C128.018 439.392 127.736 439.472 127.533 439.632C127.33 439.781 127.229 439.995 127.229 440.272C127.229 440.432 127.32 440.581 127.501 440.72C127.682 440.848 127.944 440.955 128.285 441.04L129.229 441.264C129.752 441.392 130.178 441.595 130.509 441.872C130.84 442.139 131.085 442.443 131.245 442.784C131.405 443.115 131.485 443.451 131.485 443.792C131.485 444.272 131.346 444.693 131.069 445.056C130.802 445.419 130.434 445.701 129.965 445.904C129.496 446.096 128.962 446.192 128.365 446.192ZM136.09 446.192C135.247 446.192 134.602 445.984 134.154 445.568C133.717 445.141 133.498 444.533 133.498 443.744V435.504H135.274V443.408C135.274 443.781 135.359 444.064 135.53 444.256C135.711 444.448 135.973 444.544 136.314 444.544C136.421 444.544 136.538 444.523 136.666 444.48C136.794 444.437 136.938 444.357 137.098 444.24L137.754 445.6C137.477 445.792 137.199 445.936 136.922 446.032C136.645 446.139 136.367 446.192 136.09 446.192ZM132.17 439.536V438H137.434V439.536H132.17ZM143.383 446V434.8H145.239V446H143.383ZM150.746 446.192C149.904 446.192 149.258 445.984 148.81 445.568C148.373 445.141 148.154 444.533 148.154 443.744V435.504H149.93V443.408C149.93 443.781 150.016 444.064 150.186 444.256C150.368 444.448 150.629 444.544 150.97 444.544C151.077 444.544 151.194 444.523 151.322 444.48C151.45 444.437 151.594 444.357 151.754 444.24L152.41 445.6C152.133 445.792 151.856 445.936 151.578 446.032C151.301 446.139 151.024 446.192 150.746 446.192ZM146.826 439.536V438H152.09V439.536H146.826ZM157.302 446.192C156.524 446.192 155.83 446.016 155.222 445.664C154.625 445.301 154.15 444.805 153.798 444.176C153.457 443.547 153.286 442.821 153.286 442C153.286 441.179 153.462 440.453 153.814 439.824C154.166 439.195 154.646 438.704 155.254 438.352C155.873 437.989 156.577 437.808 157.366 437.808C158.081 437.808 158.721 437.995 159.286 438.368C159.862 438.731 160.321 439.259 160.662 439.952C161.004 440.645 161.174 441.472 161.174 442.432H159.366C159.366 441.739 159.281 441.168 159.11 440.72C158.95 440.272 158.716 439.941 158.406 439.728C158.108 439.504 157.74 439.392 157.302 439.392C156.844 439.392 156.449 439.493 156.118 439.696C155.788 439.899 155.537 440.197 155.366 440.592C155.196 440.976 155.11 441.461 155.11 442.048C155.11 442.571 155.212 443.019 155.414 443.392C155.628 443.765 155.91 444.053 156.262 444.256C156.625 444.448 157.025 444.544 157.462 444.544C157.942 444.544 158.337 444.437 158.646 444.224C158.956 444 159.196 443.717 159.366 443.376L161.014 444.08C160.79 444.507 160.502 444.88 160.15 445.2C159.809 445.52 159.398 445.765 158.918 445.936C158.449 446.107 157.91 446.192 157.302 446.192ZM154.47 442.432V441.008H160.23V442.432H154.47ZM162.547 446V438H164.227L164.339 439.472V446H162.547ZM167.971 446V441.904L169.763 441.424V446H167.971ZM173.411 446V441.904L175.187 441.424V446H173.411ZM167.971 441.904C167.971 441.264 167.896 440.773 167.747 440.432C167.608 440.08 167.405 439.835 167.139 439.696C166.883 439.557 166.579 439.488 166.227 439.488C165.629 439.477 165.165 439.675 164.835 440.08C164.504 440.485 164.339 441.067 164.339 441.824H163.667C163.667 440.981 163.789 440.261 164.035 439.664C164.28 439.056 164.632 438.597 165.091 438.288C165.549 437.968 166.093 437.808 166.723 437.808C167.693 437.808 168.44 438.107 168.963 438.704C169.496 439.291 169.763 440.197 169.763 441.424L167.971 441.904ZM173.411 441.904C173.411 441.264 173.336 440.773 173.187 440.432C173.037 440.08 172.829 439.835 172.563 439.696C172.307 439.557 172.008 439.488 171.667 439.488C171.059 439.477 170.589 439.675 170.259 440.08C169.928 440.485 169.763 441.067 169.763 441.824H169.091C169.091 440.981 169.213 440.261 169.459 439.664C169.704 439.056 170.056 438.597 170.515 438.288C170.973 437.968 171.517 437.808 172.147 437.808C173.117 437.808 173.869 438.107 174.403 438.704C174.936 439.291 175.197 440.197 175.187 441.424L173.411 441.904Z" fill="#00344D"/>
<path d="M303 393H415C423.284 393 430 399.716 430 408V472C430 480.284 423.284 487 415 487H303C294.716 487 288 480.284 288 472V408C288 399.716 294.716 393 303 393Z" fill="#FFEDEA"/>
<path d="M303 393H415C423.284 393 430 399.716 430 408V472C430 480.284 423.284 487 415 487H303C294.716 487 288 480.284 288 472V408C288 399.716 294.716 393 303 393Z" stroke="#FF897D" stroke-width="2"/>
<path d="M344.062 434.192C342.952 434.192 341.971 433.947 341.118 433.456C340.264 432.965 339.592 432.283 339.102 431.408C338.622 430.533 338.382 429.531 338.382 428.4C338.382 427.269 338.622 426.272 339.102 425.408C339.592 424.533 340.259 423.851 341.102 423.36C341.944 422.859 342.915 422.608 344.014 422.608C345.123 422.608 346.099 422.859 346.942 423.36C347.795 423.851 348.456 424.533 348.926 425.408C349.406 426.272 349.646 427.269 349.646 428.4C349.646 429.531 349.406 430.533 348.926 431.408C348.456 432.283 347.8 432.965 346.958 433.456C346.126 433.947 345.16 434.192 344.062 434.192ZM344.062 432.496C344.787 432.496 345.427 432.32 345.982 431.968C346.536 431.616 346.968 431.136 347.278 430.528C347.598 429.909 347.758 429.2 347.758 428.4C347.758 427.611 347.598 426.907 347.278 426.288C346.958 425.669 346.515 425.189 345.95 424.848C345.395 424.496 344.75 424.32 344.014 424.32C343.288 424.32 342.643 424.496 342.078 424.848C341.523 425.189 341.08 425.669 340.75 426.288C340.43 426.896 340.27 427.6 340.27 428.4C340.27 429.2 340.43 429.909 340.75 430.528C341.08 431.136 341.528 431.616 342.094 431.968C342.67 432.32 343.326 432.496 344.062 432.496ZM354.465 434.192C353.622 434.192 352.977 433.984 352.529 433.568C352.092 433.141 351.873 432.533 351.873 431.744V423.504H353.649V431.408C353.649 431.781 353.734 432.064 353.905 432.256C354.086 432.448 354.348 432.544 354.689 432.544C354.796 432.544 354.913 432.523 355.041 432.48C355.169 432.437 355.313 432.357 355.473 432.24L356.129 433.6C355.852 433.792 355.574 433.936 355.297 434.032C355.02 434.139 354.742 434.192 354.465 434.192ZM350.545 427.536V426H355.809V427.536H350.545ZM357.578 434L357.562 422.656H359.354L359.37 434H357.578ZM363.002 434V429.904L364.794 429.424V434H363.002ZM363.002 429.904C363.002 429.264 362.928 428.773 362.778 428.432C362.629 428.08 362.421 427.835 362.154 427.696C361.898 427.557 361.6 427.488 361.258 427.488C360.65 427.477 360.181 427.675 359.85 428.08C359.53 428.485 359.37 429.067 359.37 429.824H358.682C358.682 428.981 358.805 428.261 359.05 427.664C359.306 427.056 359.664 426.597 360.122 426.288C360.581 425.968 361.125 425.808 361.754 425.808C362.714 425.808 363.461 426.107 363.994 426.704C364.528 427.291 364.794 428.197 364.794 429.424L363.002 429.904ZM370.177 434.192C369.399 434.192 368.705 434.016 368.097 433.664C367.5 433.301 367.025 432.805 366.673 432.176C366.332 431.547 366.161 430.821 366.161 430C366.161 429.179 366.337 428.453 366.689 427.824C367.041 427.195 367.521 426.704 368.129 426.352C368.748 425.989 369.452 425.808 370.241 425.808C370.956 425.808 371.596 425.995 372.161 426.368C372.737 426.731 373.196 427.259 373.537 427.952C373.879 428.645 374.049 429.472 374.049 430.432H372.241C372.241 429.739 372.156 429.168 371.985 428.72C371.825 428.272 371.591 427.941 371.281 427.728C370.983 427.504 370.615 427.392 370.177 427.392C369.719 427.392 369.324 427.493 368.993 427.696C368.663 427.899 368.412 428.197 368.241 428.592C368.071 428.976 367.985 429.461 367.985 430.048C367.985 430.571 368.087 431.019 368.289 431.392C368.503 431.765 368.785 432.053 369.137 432.256C369.5 432.448 369.9 432.544 370.337 432.544C370.817 432.544 371.212 432.437 371.521 432.224C371.831 432 372.071 431.717 372.241 431.376L373.889 432.08C373.665 432.507 373.377 432.88 373.025 433.2C372.684 433.52 372.273 433.765 371.793 433.936C371.324 434.107 370.785 434.192 370.177 434.192ZM367.345 430.432V429.008H373.105V430.432H367.345ZM376.606 429.744C376.606 428.88 376.771 428.171 377.102 427.616C377.432 427.061 377.859 426.651 378.382 426.384C378.915 426.107 379.47 425.968 380.046 425.968V427.68C379.555 427.68 379.091 427.749 378.654 427.888C378.227 428.016 377.88 428.229 377.614 428.528C377.347 428.827 377.214 429.221 377.214 429.712L376.606 429.744ZM375.422 434V426H377.214V434H375.422ZM335.317 458.192C334.239 458.192 333.279 457.947 332.437 457.456C331.605 456.955 330.949 456.272 330.469 455.408C329.999 454.533 329.765 453.531 329.765 452.4C329.765 451.269 329.999 450.272 330.469 449.408C330.949 448.533 331.605 447.851 332.437 447.36C333.269 446.859 334.223 446.608 335.301 446.608C336.026 446.608 336.709 446.741 337.349 447.008C337.989 447.264 338.554 447.621 339.045 448.08C339.546 448.539 339.93 449.072 340.197 449.68L338.501 450.368C338.309 449.963 338.047 449.605 337.717 449.296C337.397 448.976 337.029 448.731 336.613 448.56C336.197 448.389 335.759 448.304 335.301 448.304C334.597 448.304 333.967 448.48 333.413 448.832C332.869 449.184 332.437 449.669 332.117 450.288C331.807 450.896 331.653 451.6 331.653 452.4C331.653 453.2 331.807 453.909 332.117 454.528C332.437 455.147 332.874 455.632 333.429 455.984C333.994 456.336 334.634 456.512 335.349 456.512C335.818 456.512 336.255 456.421 336.661 456.24C337.077 456.048 337.445 455.787 337.765 455.456C338.095 455.125 338.357 454.741 338.549 454.304L340.245 454.992C339.978 455.621 339.599 456.181 339.109 456.672C338.618 457.152 338.047 457.525 337.397 457.792C336.746 458.059 336.053 458.192 335.317 458.192ZM345.375 458.192C344.575 458.192 343.86 458.016 343.231 457.664C342.612 457.301 342.127 456.805 341.775 456.176C341.423 455.547 341.247 454.821 341.247 454C341.247 453.179 341.418 452.453 341.759 451.824C342.111 451.195 342.596 450.704 343.215 450.352C343.834 449.989 344.543 449.808 345.343 449.808C346.143 449.808 346.852 449.989 347.471 450.352C348.09 450.704 348.57 451.195 348.911 451.824C349.263 452.453 349.439 453.179 349.439 454C349.439 454.821 349.268 455.547 348.927 456.176C348.586 456.805 348.106 457.301 347.487 457.664C346.868 458.016 346.164 458.192 345.375 458.192ZM345.375 456.544C345.812 456.544 346.202 456.437 346.543 456.224C346.884 456 347.151 455.701 347.343 455.328C347.535 454.944 347.631 454.501 347.631 454C347.631 453.499 347.53 453.061 347.327 452.688C347.135 452.304 346.868 452.005 346.527 451.792C346.186 451.568 345.791 451.456 345.343 451.456C344.895 451.456 344.5 451.563 344.159 451.776C343.818 451.989 343.551 452.288 343.359 452.672C343.167 453.056 343.071 453.499 343.071 454C343.071 454.501 343.167 454.944 343.359 455.328C343.562 455.701 343.834 456 344.175 456.224C344.527 456.437 344.927 456.544 345.375 456.544ZM356.352 458L356.256 456.528V450H358.032V458H356.352ZM350.816 454.576V450H352.608V454.096L350.816 454.576ZM352.608 454.096C352.608 454.725 352.683 455.216 352.832 455.568C352.981 455.92 353.184 456.165 353.44 456.304C353.707 456.443 354.011 456.512 354.352 456.512C354.96 456.523 355.429 456.325 355.76 455.92C356.091 455.515 356.256 454.933 356.256 454.176H356.928C356.928 455.019 356.8 455.744 356.544 456.352C356.299 456.949 355.947 457.408 355.488 457.728C355.04 458.037 354.501 458.192 353.872 458.192C352.901 458.192 352.149 457.893 351.616 457.296C351.083 456.699 350.816 455.792 350.816 454.576L352.608 454.096ZM360.023 458V450H361.703L361.815 451.472V458H360.023ZM365.447 458V453.904L367.239 453.424V458H365.447ZM365.447 453.904C365.447 453.264 365.373 452.773 365.223 452.432C365.085 452.08 364.882 451.835 364.615 451.696C364.359 451.557 364.055 451.488 363.703 451.488C363.106 451.477 362.642 451.675 362.311 452.08C361.981 452.485 361.815 453.067 361.815 453.824H361.143C361.143 452.981 361.266 452.261 361.511 451.664C361.757 451.056 362.109 450.597 362.567 450.288C363.026 449.968 363.57 449.808 364.199 449.808C365.17 449.808 365.917 450.107 366.439 450.704C366.973 451.291 367.239 452.197 367.239 453.424L365.447 453.904ZM372.239 458.192C371.396 458.192 370.751 457.984 370.303 457.568C369.865 457.141 369.647 456.533 369.647 455.744V447.504H371.423V455.408C371.423 455.781 371.508 456.064 371.679 456.256C371.86 456.448 372.121 456.544 372.463 456.544C372.569 456.544 372.687 456.523 372.815 456.48C372.943 456.437 373.087 456.357 373.247 456.24L373.903 457.6C373.625 457.792 373.348 457.936 373.071 458.032C372.793 458.139 372.516 458.192 372.239 458.192ZM368.319 451.536V450H373.583V451.536H368.319ZM378.794 458.192C378.016 458.192 377.322 458.016 376.714 457.664C376.117 457.301 375.642 456.805 375.29 456.176C374.949 455.547 374.778 454.821 374.778 454C374.778 453.179 374.954 452.453 375.306 451.824C375.658 451.195 376.138 450.704 376.746 450.352C377.365 449.989 378.069 449.808 378.858 449.808C379.573 449.808 380.213 449.995 380.778 450.368C381.354 450.731 381.813 451.259 382.154 451.952C382.496 452.645 382.666 453.472 382.666 454.432H380.858C380.858 453.739 380.773 453.168 380.602 452.72C380.442 452.272 380.208 451.941 379.898 451.728C379.6 451.504 379.232 451.392 378.794 451.392C378.336 451.392 377.941 451.493 377.61 451.696C377.28 451.899 377.029 452.197 376.858 452.592C376.688 452.976 376.602 453.461 376.602 454.048C376.602 454.571 376.704 455.019 376.906 455.392C377.12 455.765 377.402 456.053 377.754 456.256C378.117 456.448 378.517 456.544 378.954 456.544C379.434 456.544 379.829 456.437 380.138 456.224C380.448 456 380.688 455.717 380.858 455.376L382.506 456.08C382.282 456.507 381.994 456.88 381.642 457.2C381.301 457.52 380.89 457.765 380.41 457.936C379.941 458.107 379.402 458.192 378.794 458.192ZM375.962 454.432V453.008H381.722V454.432H375.962ZM385.223 453.744C385.223 452.88 385.388 452.171 385.719 451.616C386.05 451.061 386.476 450.651 386.999 450.384C387.532 450.107 388.087 449.968 388.663 449.968V451.68C388.172 451.68 387.708 451.749 387.271 451.888C386.844 452.016 386.498 452.229 386.231 452.528C385.964 452.827 385.831 453.221 385.831 453.712L385.223 453.744ZM384.039 458V450H385.831V458H384.039Z" fill="#690005"/>
<path d="M518 393H630C638.284 393 645 399.716 645 408V472C645 480.284 638.284 487 630 487H518C509.716 487 503 480.284 503 472V408C503 399.716 509.716 393 518 393Z" fill="#FFEDEA"/>
<path d="M518 393H630C638.284 393 645 399.716 645 408V472C645 480.284 638.284 487 630 487H518C509.716 487 503 480.284 503 472V408C503 399.716 509.716 393 518 393Z" stroke="#FF897D" stroke-width="2"/>
<path d="M550.317 446.192C549.239 446.192 548.279 445.947 547.437 445.456C546.605 444.955 545.949 444.272 545.469 443.408C544.999 442.533 544.765 441.531 544.765 440.4C544.765 439.269 544.999 438.272 545.469 437.408C545.949 436.533 546.605 435.851 547.437 435.36C548.269 434.859 549.223 434.608 550.301 434.608C551.026 434.608 551.709 434.741 552.349 435.008C552.989 435.264 553.554 435.621 554.045 436.08C554.546 436.539 554.93 437.072 555.197 437.68L553.501 438.368C553.309 437.963 553.047 437.605 552.717 437.296C552.397 436.976 552.029 436.731 551.613 436.56C551.197 436.389 550.759 436.304 550.301 436.304C549.597 436.304 548.967 436.48 548.413 436.832C547.869 437.184 547.437 437.669 547.117 438.288C546.807 438.896 546.653 439.6 546.653 440.4C546.653 441.2 546.807 441.909 547.117 442.528C547.437 443.147 547.874 443.632 548.429 443.984C548.994 444.336 549.634 444.512 550.349 444.512C550.818 444.512 551.255 444.421 551.661 444.24C552.077 444.048 552.445 443.787 552.765 443.456C553.095 443.125 553.357 442.741 553.549 442.304L555.245 442.992C554.978 443.621 554.599 444.181 554.109 444.672C553.618 445.152 553.047 445.525 552.397 445.792C551.746 446.059 551.053 446.192 550.317 446.192ZM560.375 446.192C559.575 446.192 558.86 446.016 558.231 445.664C557.612 445.301 557.127 444.805 556.775 444.176C556.423 443.547 556.247 442.821 556.247 442C556.247 441.179 556.418 440.453 556.759 439.824C557.111 439.195 557.596 438.704 558.215 438.352C558.834 437.989 559.543 437.808 560.343 437.808C561.143 437.808 561.852 437.989 562.471 438.352C563.09 438.704 563.57 439.195 563.911 439.824C564.263 440.453 564.439 441.179 564.439 442C564.439 442.821 564.268 443.547 563.927 444.176C563.586 444.805 563.106 445.301 562.487 445.664C561.868 446.016 561.164 446.192 560.375 446.192ZM560.375 444.544C560.812 444.544 561.202 444.437 561.543 444.224C561.884 444 562.151 443.701 562.343 443.328C562.535 442.944 562.631 442.501 562.631 442C562.631 441.499 562.53 441.061 562.327 440.688C562.135 440.304 561.868 440.005 561.527 439.792C561.186 439.568 560.791 439.456 560.343 439.456C559.895 439.456 559.5 439.563 559.159 439.776C558.818 439.989 558.551 440.288 558.359 440.672C558.167 441.056 558.071 441.499 558.071 442C558.071 442.501 558.167 442.944 558.359 443.328C558.562 443.701 558.834 444 559.175 444.224C559.527 444.437 559.927 444.544 560.375 444.544ZM571.352 446L571.256 444.528V438H573.032V446H571.352ZM565.816 442.576V438H567.608V442.096L565.816 442.576ZM567.608 442.096C567.608 442.725 567.683 443.216 567.832 443.568C567.981 443.92 568.184 444.165 568.44 444.304C568.707 444.443 569.011 444.512 569.352 444.512C569.96 444.523 570.429 444.325 570.76 443.92C571.091 443.515 571.256 442.933 571.256 442.176H571.928C571.928 443.019 571.8 443.744 571.544 444.352C571.299 444.949 570.947 445.408 570.488 445.728C570.04 446.037 569.501 446.192 568.872 446.192C567.901 446.192 567.149 445.893 566.616 445.296C566.083 444.699 565.816 443.792 565.816 442.576L567.608 442.096ZM575.023 446V438H576.703L576.815 439.472V446H575.023ZM580.447 446V441.904L582.239 441.424V446H580.447ZM580.447 441.904C580.447 441.264 580.373 440.773 580.223 440.432C580.085 440.08 579.882 439.835 579.615 439.696C579.359 439.557 579.055 439.488 578.703 439.488C578.106 439.477 577.642 439.675 577.311 440.08C576.981 440.485 576.815 441.067 576.815 441.824H576.143C576.143 440.981 576.266 440.261 576.511 439.664C576.757 439.056 577.109 438.597 577.567 438.288C578.026 437.968 578.57 437.808 579.199 437.808C580.17 437.808 580.917 438.107 581.439 438.704C581.973 439.291 582.239 440.197 582.239 441.424L580.447 441.904ZM587.239 446.192C586.396 446.192 585.751 445.984 585.303 445.568C584.865 445.141 584.647 444.533 584.647 443.744V435.504H586.423V443.408C586.423 443.781 586.508 444.064 586.679 444.256C586.86 444.448 587.121 444.544 587.463 444.544C587.569 444.544 587.687 444.523 587.815 444.48C587.943 444.437 588.087 444.357 588.247 444.24L588.903 445.6C588.625 445.792 588.348 445.936 588.071 446.032C587.793 446.139 587.516 446.192 587.239 446.192ZM583.319 439.536V438H588.583V439.536H583.319ZM593.794 446.192C593.016 446.192 592.322 446.016 591.714 445.664C591.117 445.301 590.642 444.805 590.29 444.176C589.949 443.547 589.778 442.821 589.778 442C589.778 441.179 589.954 440.453 590.306 439.824C590.658 439.195 591.138 438.704 591.746 438.352C592.365 437.989 593.069 437.808 593.858 437.808C594.573 437.808 595.213 437.995 595.778 438.368C596.354 438.731 596.813 439.259 597.154 439.952C597.496 440.645 597.666 441.472 597.666 442.432H595.858C595.858 441.739 595.773 441.168 595.602 440.72C595.442 440.272 595.208 439.941 594.898 439.728C594.6 439.504 594.232 439.392 593.794 439.392C593.336 439.392 592.941 439.493 592.61 439.696C592.28 439.899 592.029 440.197 591.858 440.592C591.688 440.976 591.602 441.461 591.602 442.048C591.602 442.571 591.704 443.019 591.906 443.392C592.12 443.765 592.402 444.053 592.754 444.256C593.117 444.448 593.517 444.544 593.954 444.544C594.434 444.544 594.829 444.437 595.138 444.224C595.448 444 595.688 443.717 595.858 443.376L597.506 444.08C597.282 444.507 596.994 444.88 596.642 445.2C596.301 445.52 595.89 445.765 595.41 445.936C594.941 446.107 594.402 446.192 593.794 446.192ZM590.962 442.432V441.008H596.722V442.432H590.962ZM600.223 441.744C600.223 440.88 600.388 440.171 600.719 439.616C601.05 439.061 601.476 438.651 601.999 438.384C602.532 438.107 603.087 437.968 603.663 437.968V439.68C603.172 439.68 602.708 439.749 602.271 439.888C601.844 440.016 601.498 440.229 601.231 440.528C600.964 440.827 600.831 441.221 600.831 441.712L600.223 441.744ZM599.039 446V438H600.831V446H599.039Z" fill="#690005"/>
<path d="M358.5 152L359.5 151.975C359.486 151.432 359.042 151 358.5 151C357.958 151 357.514 151.432 357.5 151.975L358.5 152ZM466 216L471.773 206L460.227 206L466 216ZM251 216L256.774 206L245.226 206L251 216ZM358.306 159.612L359.306 159.638L358.306 159.612ZM358.5 152L357.5 152.025L357.695 159.637L358.694 159.612L359.694 159.586L359.5 151.975L358.5 152ZM382.686 183L382.686 184L442 184L442 183L442 182L382.686 182L382.686 183ZM334.314 183L334.314 182L275 182L275 183L275 184L334.314 184L334.314 183ZM358.306 159.612L359.306 159.638L359.5 152.026L358.5 152L357.5 151.975L357.306 159.587L358.306 159.612ZM275 183L275 182C261.193 182 250 193.193 250 207L251 207L252 207C252 194.298 262.297 184 275 184L275 183ZM334.314 183L334.314 184C347.873 184 358.96 173.192 359.306 159.638L358.306 159.612L357.306 159.587C356.988 172.057 346.788 182 334.314 182L334.314 183ZM442 183L442 184C454.703 184 465 194.298 465 207L466 207L467 207C467 193.193 455.807 182 442 182L442 183ZM358.694 159.612L357.695 159.637C358.04 173.192 369.128 184 382.686 184L382.686 183L382.686 182C370.212 182 360.012 172.057 359.694 159.586L358.694 159.612Z" fill="#87CEFF"/>
<path d="M143 384L148.774 374L137.226 374L143 384ZM251.803 327.621L252.803 327.646L251.803 327.621ZM227.811 351L227.811 350L167 350L167 351L167 352L227.811 352L227.811 351ZM251.803 327.621L252.803 327.646L253 320.026L252 320L251 319.974L250.803 327.595L251.803 327.621ZM167 351L167 350C153.193 350 142 361.193 142 375L143 375L144 375C144 362.298 154.297 352 167 352L167 351ZM227.811 351L227.811 352C241.366 352 252.452 341.197 252.803 327.646L251.803 327.621L250.803 327.595C250.481 340.062 240.282 350 227.811 350L227.811 351Z" fill="#87CEFF"/>
<path d="M465.5 320L466.5 319.975C466.486 319.432 466.042 319 465.5 319C464.958 319 464.514 319.432 464.5 319.975L465.5 320ZM573 384L578.773 374L567.227 374L573 384ZM358 384L363.774 374L352.226 374L358 384ZM382 351L382 352L382 351ZM358 375L359 375L358 375ZM441.314 351L441.314 350L441.314 351ZM465.306 327.612L466.306 327.638L465.306 327.612ZM549 351L549 350L549 351ZM465.694 327.612L466.694 327.586L465.694 327.612ZM489.686 351L489.686 350L489.686 351ZM573 377.25L574 377.25L574 375L573 375L572 375L572 377.25L573 377.25ZM573 375L574 375C574 374.34 573.974 373.686 573.924 373.038L572.927 373.115L571.93 373.193C571.976 373.789 572 374.392 572 375L573 375ZM572.342 369.395L573.314 369.162C573.007 367.877 572.6 366.63 572.103 365.43L571.179 365.813L570.255 366.196C570.713 367.299 571.087 368.446 571.369 369.628L572.342 369.395ZM569.466 362.459L570.319 361.935C569.632 360.817 568.859 359.756 568.01 358.763L567.25 359.413L566.49 360.063C567.271 360.977 567.982 361.953 568.614 362.982L569.466 362.459ZM564.587 356.75L565.237 355.99C564.244 355.141 563.183 354.369 562.065 353.682L561.541 354.534L561.018 355.386C562.047 356.018 563.023 356.729 563.937 357.51L564.587 356.75ZM558.187 352.821L558.57 351.898C557.37 351.4 556.123 350.993 554.838 350.686L554.605 351.658L554.372 352.631C555.554 352.914 556.701 353.288 557.804 353.745L558.187 352.821ZM550.885 351.073L550.962 350.076C550.315 350.026 549.66 350 549 350L549 351L549 352C549.608 352 550.211 352.024 550.807 352.07L550.885 351.073ZM549 351L549 350L546.882 350L546.882 351L546.882 352L549 352L549 351ZM542.645 351L542.645 350L538.408 350L538.408 351L538.408 352L542.645 352L542.645 351ZM534.172 351L534.172 350L529.935 350L529.935 351L529.935 352L534.172 352L534.172 351ZM525.698 351L525.698 350L521.462 350L521.462 351L521.462 352L525.698 352L525.698 351ZM517.225 351L517.225 350L512.988 350L512.988 351L512.988 352L517.225 352L517.225 351ZM508.751 351L508.751 350L504.515 350L504.515 351L504.515 352L508.751 352L508.751 351ZM500.278 351L500.278 350L496.041 350L496.041 351L496.041 352L500.278 352L500.278 351ZM491.805 351L491.805 350L489.686 350L489.686 351L489.686 352L491.805 352L491.805 351ZM489.686 351L489.686 350C489.088 350 488.495 349.977 487.908 349.932L487.832 350.93L487.756 351.927C488.393 351.975 489.037 352 489.686 352L489.686 351ZM484.171 350.363L484.4 349.39C483.236 349.116 482.107 348.754 481.018 348.31L480.641 349.237L480.264 350.163C481.448 350.645 482.676 351.039 483.942 351.336L484.171 350.363ZM477.328 347.577L477.844 346.721C476.826 346.108 475.859 345.419 474.951 344.66L474.31 345.428L473.669 346.195C474.655 347.019 475.706 347.768 476.813 348.434L477.328 347.577ZM471.657 342.841L472.408 342.181C471.626 341.293 470.913 340.344 470.274 339.342L469.431 339.879L468.587 340.416C469.281 341.505 470.057 342.537 470.906 343.502L471.657 342.841ZM467.688 336.609L468.604 336.209C468.133 335.132 467.742 334.012 467.439 332.856L466.472 333.11L465.505 333.363C465.834 334.621 466.26 335.839 466.772 337.01L467.688 336.609ZM465.812 329.464L466.807 329.362C466.747 328.777 466.709 328.185 466.694 327.586L465.694 327.612L464.695 327.637C464.711 328.287 464.752 328.93 464.817 329.565L465.812 329.464ZM465.694 327.612L466.694 327.586L466.645 325.683L465.646 325.709L464.646 325.734L464.695 327.637L465.694 327.612ZM465.549 321.903L466.548 321.877L466.5 319.975L465.5 320L464.5 320.025L464.549 321.928L465.549 321.903ZM465.5 320L464.5 319.975L464.452 321.878L465.452 321.903L466.451 321.929L466.5 320.026L465.5 320ZM465.354 325.709L464.355 325.684L464.306 327.587L465.306 327.612L466.306 327.638L466.354 325.735L465.354 325.709ZM465.306 327.612L464.306 327.587C464.291 328.185 464.253 328.777 464.193 329.362L465.188 329.464L466.183 329.566C466.248 328.93 466.289 328.287 466.306 327.638L465.306 327.612ZM464.528 333.11L463.561 332.856C463.258 334.012 462.867 335.132 462.396 336.209L463.312 336.609L464.229 337.01C464.741 335.839 465.166 334.621 465.496 333.363L464.528 333.11ZM461.569 339.879L460.726 339.342C460.087 340.344 459.374 341.293 458.593 342.181L459.344 342.842L460.094 343.502C460.943 342.537 461.719 341.505 462.413 340.416L461.569 339.879ZM456.69 345.428L456.049 344.66C455.141 345.419 454.174 346.108 453.156 346.721L453.672 347.577L454.188 348.434C455.294 347.768 456.345 347.019 457.331 346.196L456.69 345.428ZM450.359 349.237L449.982 348.31C448.893 348.754 447.764 349.116 446.6 349.39L446.829 350.363L447.058 351.336C448.324 351.039 449.552 350.645 450.736 350.163L450.359 349.237ZM443.168 350.93L443.092 349.932C442.505 349.977 441.912 350 441.314 350L441.314 351L441.314 352C441.963 352 442.607 351.975 443.244 351.927L443.168 350.93ZM441.314 351L441.314 350L439.195 350L439.195 351L439.195 352L441.314 352L441.314 351ZM434.959 351L434.959 350L430.722 350L430.722 351L430.722 352L434.959 352L434.959 351ZM426.485 351L426.485 350L422.249 350L422.249 351L422.249 352L426.485 352L426.485 351ZM418.012 351L418.012 350L413.775 350L413.775 351L413.775 352L418.012 352L418.012 351ZM409.539 351L409.539 350L405.302 350L405.302 351L405.302 352L409.539 352L409.539 351ZM401.065 351L401.065 350L396.828 350L396.828 351L396.828 352L401.065 352L401.065 351ZM392.592 351L392.592 350L388.355 350L388.355 351L388.355 352L392.592 352L392.592 351ZM384.118 351L384.118 350L382 350L382 351L382 352L384.118 352L384.118 351ZM382 351L382 350C381.34 350 380.685 350.026 380.038 350.076L380.115 351.073L380.193 352.07C380.789 352.024 381.392 352 382 352L382 351ZM376.395 351.658L376.162 350.686C374.877 350.993 373.63 351.4 372.43 351.898L372.813 352.821L373.196 353.745C374.299 353.288 375.446 352.914 376.628 352.631L376.395 351.658ZM369.459 354.534L368.935 353.682C367.817 354.369 366.756 355.141 365.763 355.99L366.413 356.75L367.063 357.51C367.977 356.729 368.953 356.018 369.982 355.386L369.459 354.534ZM363.75 359.413L362.99 358.763C362.141 359.756 361.368 360.817 360.681 361.935L361.534 362.459L362.386 362.982C363.018 361.953 363.729 360.977 364.51 360.063L363.75 359.413ZM359.821 365.813L358.897 365.43C358.4 366.63 357.993 367.877 357.686 369.162L358.658 369.395L359.631 369.628C359.913 368.446 360.287 367.299 360.745 366.196L359.821 365.813ZM358.073 373.115L357.076 373.038C357.026 373.686 357 374.34 357 375L358 375L359 375C359 374.392 359.024 373.789 359.07 373.193L358.073 373.115ZM358 375L357 375L357 377.25L358 377.25L359 377.25L359 375L358 375Z" fill="#FF897D"/>
<path d="M546 272L556 277.774V266.226L546 272ZM646 440V441H693V440V439H646V440ZM717 416H718V296H717H716V416H717ZM693 272V271H555V272V273H693V272ZM717 296H718C718 282.193 706.807 271 693 271V272V273C705.703 273 716 283.297 716 296H717ZM693 440V441C706.807 441 718 429.807 718 416H717H716C716 428.703 705.703 439 693 439V440Z" fill="#9AAEBC"/>
<path d="M661 225H772C780.284 225 787 231.716 787 240V304C787 312.284 780.284 319 772 319H661C652.716 319 646 312.284 646 304V240C646 231.716 652.716 225 661 225Z" fill="white"/>
<path d="M661 225H772C780.284 225 787 231.716 787 240V304C787 312.284 780.284 319 772 319H661C652.716 319 646 312.284 646 304V240C646 231.716 652.716 225 661 225Z" stroke="#9AAEBC" stroke-width="2"/>
<path d="M673.283 257V247.2H674.907V257H673.283ZM674.571 257V255.516H679.359V257H674.571ZM674.571 252.744V251.288H678.799V252.744H674.571ZM674.571 248.684V247.2H679.317V248.684H674.571ZM682.283 253.276C682.283 252.52 682.428 251.899 682.717 251.414C683.006 250.929 683.38 250.569 683.837 250.336C684.304 250.093 684.789 249.972 685.293 249.972V251.47C684.864 251.47 684.458 251.531 684.075 251.652C683.702 251.764 683.398 251.951 683.165 252.212C682.932 252.473 682.815 252.819 682.815 253.248L682.283 253.276ZM681.247 257V250H682.815V257H681.247ZM687.369 253.276C687.369 252.52 687.514 251.899 687.803 251.414C688.092 250.929 688.466 250.569 688.923 250.336C689.39 250.093 689.875 249.972 690.379 249.972V251.47C689.95 251.47 689.544 251.531 689.161 251.652C688.788 251.764 688.484 251.951 688.251 252.212C688.018 252.473 687.901 252.819 687.901 253.248L687.369 253.276ZM686.333 257V250H687.901V257H686.333ZM694.639 257.168C693.939 257.168 693.313 257.014 692.763 256.706C692.221 256.389 691.797 255.955 691.489 255.404C691.181 254.853 691.027 254.219 691.027 253.5C691.027 252.781 691.176 252.147 691.475 251.596C691.783 251.045 692.207 250.616 692.749 250.308C693.29 249.991 693.911 249.832 694.611 249.832C695.311 249.832 695.931 249.991 696.473 250.308C697.014 250.616 697.434 251.045 697.733 251.596C698.041 252.147 698.195 252.781 698.195 253.5C698.195 254.219 698.045 254.853 697.747 255.404C697.448 255.955 697.028 256.389 696.487 256.706C695.945 257.014 695.329 257.168 694.639 257.168ZM694.639 255.726C695.021 255.726 695.362 255.633 695.661 255.446C695.959 255.25 696.193 254.989 696.361 254.662C696.529 254.326 696.613 253.939 696.613 253.5C696.613 253.061 696.524 252.679 696.347 252.352C696.179 252.016 695.945 251.755 695.647 251.568C695.348 251.372 695.003 251.274 694.611 251.274C694.219 251.274 693.873 251.367 693.575 251.554C693.276 251.741 693.043 252.002 692.875 252.338C692.707 252.674 692.623 253.061 692.623 253.5C692.623 253.939 692.707 254.326 692.875 254.662C693.052 254.989 693.29 255.25 693.589 255.446C693.897 255.633 694.247 255.726 694.639 255.726ZM700.59 253.276C700.59 252.52 700.734 251.899 701.024 251.414C701.313 250.929 701.686 250.569 702.144 250.336C702.61 250.093 703.096 249.972 703.6 249.972V251.47C703.17 251.47 702.764 251.531 702.382 251.652C702.008 251.764 701.705 251.951 701.472 252.212C701.238 252.473 701.122 252.819 701.122 253.248L700.59 253.276ZM699.554 257V250H701.122V257H699.554ZM708.016 257V247.2H709.584V255.698L709.5 257H708.016ZM711.796 257.168C711.208 257.168 710.7 257.019 710.27 256.72C709.85 256.412 709.528 255.983 709.304 255.432C709.08 254.881 708.968 254.237 708.968 253.5C708.968 252.753 709.08 252.109 709.304 251.568C709.528 251.017 709.85 250.593 710.27 250.294C710.7 249.986 711.208 249.832 711.796 249.832C712.431 249.832 712.982 249.986 713.448 250.294C713.924 250.593 714.293 251.017 714.554 251.568C714.825 252.109 714.96 252.753 714.96 253.5C714.96 254.237 714.825 254.881 714.554 255.432C714.293 255.983 713.924 256.412 713.448 256.72C712.982 257.019 712.431 257.168 711.796 257.168ZM711.404 255.74C711.778 255.74 712.109 255.647 712.398 255.46C712.688 255.264 712.916 254.998 713.084 254.662C713.262 254.326 713.35 253.939 713.35 253.5C713.35 253.061 713.266 252.674 713.098 252.338C712.94 252.002 712.716 251.741 712.426 251.554C712.137 251.367 711.801 251.274 711.418 251.274C711.064 251.274 710.746 251.367 710.466 251.554C710.186 251.741 709.967 252.002 709.808 252.338C709.659 252.674 709.584 253.061 709.584 253.5C709.584 253.939 709.659 254.326 709.808 254.662C709.967 254.998 710.182 255.264 710.452 255.46C710.732 255.647 711.05 255.74 711.404 255.74ZM720.992 257L720.908 255.712V250H722.462V257H720.992ZM716.148 254.004V250H717.716V253.584L716.148 254.004ZM717.716 253.584C717.716 254.135 717.781 254.564 717.912 254.872C718.042 255.18 718.22 255.395 718.444 255.516C718.677 255.637 718.943 255.698 719.242 255.698C719.774 255.707 720.184 255.535 720.474 255.18C720.763 254.825 720.908 254.317 720.908 253.654H721.496C721.496 254.391 721.384 255.026 721.16 255.558C720.945 256.081 720.637 256.482 720.236 256.762C719.844 257.033 719.372 257.168 718.822 257.168C717.972 257.168 717.314 256.907 716.848 256.384C716.381 255.861 716.148 255.068 716.148 254.004L717.716 253.584ZM724.204 257V247.2H725.772V255.698L725.688 257H724.204ZM727.984 257.168C727.396 257.168 726.887 257.019 726.458 256.72C726.038 256.412 725.716 255.983 725.492 255.432C725.268 254.881 725.156 254.237 725.156 253.5C725.156 252.753 725.268 252.109 725.492 251.568C725.716 251.017 726.038 250.593 726.458 250.294C726.887 249.986 727.396 249.832 727.984 249.832C728.619 249.832 729.169 249.986 729.636 250.294C730.112 250.593 730.481 251.017 730.742 251.568C731.013 252.109 731.148 252.753 731.148 253.5C731.148 254.237 731.013 254.881 730.742 255.432C730.481 255.983 730.112 256.412 729.636 256.72C729.169 257.019 728.619 257.168 727.984 257.168ZM727.592 255.74C727.965 255.74 728.297 255.647 728.586 255.46C728.875 255.264 729.104 254.998 729.272 254.662C729.449 254.326 729.538 253.939 729.538 253.5C729.538 253.061 729.454 252.674 729.286 252.338C729.127 252.002 728.903 251.741 728.614 251.554C728.325 251.367 727.989 251.274 727.606 251.274C727.251 251.274 726.934 251.367 726.654 251.554C726.374 251.741 726.155 252.002 725.996 252.338C725.847 252.674 725.772 253.061 725.772 253.5C725.772 253.939 725.847 254.326 725.996 254.662C726.155 254.998 726.369 255.264 726.64 255.46C726.92 255.647 727.237 255.74 727.592 255.74ZM732.489 257V247.2H734.057V255.698L733.973 257H732.489ZM736.269 257.168C735.681 257.168 735.172 257.019 734.743 256.72C734.323 256.412 734.001 255.983 733.777 255.432C733.553 254.881 733.441 254.237 733.441 253.5C733.441 252.753 733.553 252.109 733.777 251.568C734.001 251.017 734.323 250.593 734.743 250.294C735.172 249.986 735.681 249.832 736.269 249.832C736.904 249.832 737.454 249.986 737.921 250.294C738.397 250.593 738.766 251.017 739.027 251.568C739.298 252.109 739.433 252.753 739.433 253.5C739.433 254.237 739.298 254.881 739.027 255.432C738.766 255.983 738.397 256.412 737.921 256.72C737.454 257.019 736.904 257.168 736.269 257.168ZM735.877 255.74C736.25 255.74 736.582 255.647 736.871 255.46C737.16 255.264 737.389 254.998 737.557 254.662C737.734 254.326 737.823 253.939 737.823 253.5C737.823 253.061 737.739 252.674 737.571 252.338C737.412 252.002 737.188 251.741 736.899 251.554C736.61 251.367 736.274 251.274 735.891 251.274C735.536 251.274 735.219 251.367 734.939 251.554C734.659 251.741 734.44 252.002 734.281 252.338C734.132 252.674 734.057 253.061 734.057 253.5C734.057 253.939 734.132 254.326 734.281 254.662C734.44 254.998 734.654 255.264 734.925 255.46C735.205 255.647 735.522 255.74 735.877 255.74ZM740.774 257V247.2H742.342V257H740.774ZM747.205 257.168C746.524 257.168 745.917 257.014 745.385 256.706C744.862 256.389 744.447 255.955 744.139 255.404C743.84 254.853 743.691 254.219 743.691 253.5C743.691 252.781 743.845 252.147 744.153 251.596C744.461 251.045 744.881 250.616 745.413 250.308C745.954 249.991 746.57 249.832 747.261 249.832C747.886 249.832 748.446 249.995 748.941 250.322C749.445 250.639 749.846 251.101 750.145 251.708C750.444 252.315 750.593 253.038 750.593 253.878H749.011C749.011 253.271 748.936 252.772 748.787 252.38C748.647 251.988 748.442 251.699 748.171 251.512C747.91 251.316 747.588 251.218 747.205 251.218C746.804 251.218 746.458 251.307 746.169 251.484C745.88 251.661 745.66 251.923 745.511 252.268C745.362 252.604 745.287 253.029 745.287 253.542C745.287 253.999 745.376 254.391 745.553 254.718C745.74 255.045 745.987 255.297 746.295 255.474C746.612 255.642 746.962 255.726 747.345 255.726C747.765 255.726 748.11 255.633 748.381 255.446C748.652 255.25 748.862 255.003 749.011 254.704L750.453 255.32C750.257 255.693 750.005 256.02 749.697 256.3C749.398 256.58 749.039 256.795 748.619 256.944C748.208 257.093 747.737 257.168 747.205 257.168ZM744.727 253.878V252.632H749.767V253.878H744.727ZM754.342 257.168C753.875 257.168 753.446 257.098 753.054 256.958C752.662 256.818 752.326 256.622 752.046 256.37C751.766 256.109 751.551 255.805 751.402 255.46L752.76 254.858C752.9 255.119 753.105 255.339 753.376 255.516C753.656 255.693 753.964 255.782 754.3 255.782C754.664 255.782 754.953 255.721 755.168 255.6C755.392 255.469 755.504 255.292 755.504 255.068C755.504 254.853 755.42 254.69 755.252 254.578C755.084 254.457 754.846 254.359 754.538 254.284L753.88 254.102C753.217 253.934 752.699 253.668 752.326 253.304C751.952 252.931 751.766 252.506 751.766 252.03C751.766 251.33 751.99 250.789 752.438 250.406C752.895 250.023 753.548 249.832 754.398 249.832C754.827 249.832 755.219 249.897 755.574 250.028C755.938 250.149 756.25 250.327 756.512 250.56C756.773 250.784 756.955 251.05 757.058 251.358L755.756 251.946C755.662 251.713 755.485 251.535 755.224 251.414C754.962 251.283 754.673 251.218 754.356 251.218C754.038 251.218 753.791 251.288 753.614 251.428C753.436 251.559 753.348 251.745 753.348 251.988C753.348 252.128 753.427 252.259 753.586 252.38C753.744 252.492 753.973 252.585 754.272 252.66L755.098 252.856C755.555 252.968 755.928 253.145 756.218 253.388C756.507 253.621 756.722 253.887 756.862 254.186C757.002 254.475 757.072 254.769 757.072 255.068C757.072 255.488 756.95 255.857 756.708 256.174C756.474 256.491 756.152 256.739 755.742 256.916C755.331 257.084 754.864 257.168 754.342 257.168ZM757.909 258.61L758.749 255.432H760.401L759.141 258.61H757.909ZM663.395 273.276C663.395 272.52 663.54 271.899 663.829 271.414C664.119 270.929 664.492 270.569 664.949 270.336C665.416 270.093 665.901 269.972 666.405 269.972V271.47C665.976 271.47 665.57 271.531 665.187 271.652C664.814 271.764 664.511 271.951 664.277 272.212C664.044 272.473 663.927 272.819 663.927 273.248L663.395 273.276ZM662.359 277V270H663.927V277H662.359ZM670.567 277.168C669.886 277.168 669.279 277.014 668.747 276.706C668.224 276.389 667.809 275.955 667.501 275.404C667.202 274.853 667.053 274.219 667.053 273.5C667.053 272.781 667.207 272.147 667.515 271.596C667.823 271.045 668.243 270.616 668.775 270.308C669.316 269.991 669.932 269.832 670.623 269.832C671.248 269.832 671.808 269.995 672.303 270.322C672.807 270.639 673.208 271.101 673.507 271.708C673.806 272.315 673.955 273.038 673.955 273.878H672.373C672.373 273.271 672.298 272.772 672.149 272.38C672.009 271.988 671.804 271.699 671.533 271.512C671.272 271.316 670.95 271.218 670.567 271.218C670.166 271.218 669.82 271.307 669.531 271.484C669.242 271.661 669.022 271.923 668.873 272.268C668.724 272.604 668.649 273.029 668.649 273.542C668.649 273.999 668.738 274.391 668.915 274.718C669.102 275.045 669.349 275.297 669.657 275.474C669.974 275.642 670.324 275.726 670.707 275.726C671.127 275.726 671.472 275.633 671.743 275.446C672.014 275.25 672.224 275.003 672.373 274.704L673.815 275.32C673.619 275.693 673.367 276.02 673.059 276.3C672.76 276.58 672.401 276.795 671.981 276.944C671.57 277.093 671.099 277.168 670.567 277.168ZM668.089 273.878V272.632H673.129V273.878H668.089ZM675.156 277V270H676.626L676.724 271.288V277H675.156ZM679.902 277V273.416L681.47 272.996V277H679.902ZM684.662 277V273.416L686.216 272.996V277H684.662ZM679.902 273.416C679.902 272.856 679.837 272.427 679.706 272.128C679.585 271.82 679.407 271.605 679.174 271.484C678.95 271.363 678.684 271.302 678.376 271.302C677.853 271.293 677.447 271.465 677.158 271.82C676.869 272.175 676.724 272.683 676.724 273.346H676.136C676.136 272.609 676.243 271.979 676.458 271.456C676.673 270.924 676.981 270.523 677.382 270.252C677.783 269.972 678.259 269.832 678.81 269.832C679.659 269.832 680.313 270.093 680.77 270.616C681.237 271.129 681.47 271.923 681.47 272.996L679.902 273.416ZM684.662 273.416C684.662 272.856 684.597 272.427 684.466 272.128C684.335 271.82 684.153 271.605 683.92 271.484C683.696 271.363 683.435 271.302 683.136 271.302C682.604 271.293 682.193 271.465 681.904 271.82C681.615 272.175 681.47 272.683 681.47 273.346H680.882C680.882 272.609 680.989 271.979 681.204 271.456C681.419 270.924 681.727 270.523 682.128 270.252C682.529 269.972 683.005 269.832 683.556 269.832C684.405 269.832 685.063 270.093 685.53 270.616C685.997 271.129 686.225 271.923 686.216 272.996L684.662 273.416ZM691.036 277.168C690.336 277.168 689.711 277.014 689.16 276.706C688.619 276.389 688.194 275.955 687.886 275.404C687.578 274.853 687.424 274.219 687.424 273.5C687.424 272.781 687.574 272.147 687.872 271.596C688.18 271.045 688.605 270.616 689.146 270.308C689.688 269.991 690.308 269.832 691.008 269.832C691.708 269.832 692.329 269.991 692.87 270.308C693.412 270.616 693.832 271.045 694.13 271.596C694.438 272.147 694.592 272.781 694.592 273.5C694.592 274.219 694.443 274.853 694.144 275.404C693.846 275.955 693.426 276.389 692.884 276.706C692.343 277.014 691.727 277.168 691.036 277.168ZM691.036 275.726C691.419 275.726 691.76 275.633 692.058 275.446C692.357 275.25 692.59 274.989 692.758 274.662C692.926 274.326 693.01 273.939 693.01 273.5C693.01 273.061 692.922 272.679 692.744 272.352C692.576 272.016 692.343 271.755 692.044 271.568C691.746 271.372 691.4 271.274 691.008 271.274C690.616 271.274 690.271 271.367 689.972 271.554C689.674 271.741 689.44 272.002 689.272 272.338C689.104 272.674 689.02 273.061 689.02 273.5C689.02 273.939 689.104 274.326 689.272 274.662C689.45 274.989 689.688 275.25 689.986 275.446C690.294 275.633 690.644 275.726 691.036 275.726ZM697.945 277L700.675 270H702.299L699.415 277H697.945ZM697.833 277L694.935 270H696.545L699.289 277H697.833ZM706.21 277.168C705.528 277.168 704.922 277.014 704.39 276.706C703.867 276.389 703.452 275.955 703.144 275.404C702.845 274.853 702.696 274.219 702.696 273.5C702.696 272.781 702.85 272.147 703.158 271.596C703.466 271.045 703.886 270.616 704.418 270.308C704.959 269.991 705.575 269.832 706.266 269.832C706.891 269.832 707.451 269.995 707.946 270.322C708.45 270.639 708.851 271.101 709.15 271.708C709.448 272.315 709.598 273.038 709.598 273.878H708.016C708.016 273.271 707.941 272.772 707.792 272.38C707.652 271.988 707.446 271.699 707.176 271.512C706.914 271.316 706.592 271.218 706.21 271.218C705.808 271.218 705.463 271.307 705.174 271.484C704.884 271.661 704.665 271.923 704.516 272.268C704.366 272.604 704.292 273.029 704.292 273.542C704.292 273.999 704.38 274.391 704.558 274.718C704.744 275.045 704.992 275.297 705.3 275.474C705.617 275.642 705.967 275.726 706.35 275.726C706.77 275.726 707.115 275.633 707.386 275.446C707.656 275.25 707.866 275.003 708.016 274.704L709.458 275.32C709.262 275.693 709.01 276.02 708.702 276.3C708.403 276.58 708.044 276.795 707.624 276.944C707.213 277.093 706.742 277.168 706.21 277.168ZM703.732 273.878V272.632H708.772V273.878H703.732ZM713.347 277.168C712.88 277.168 712.451 277.098 712.059 276.958C711.667 276.818 711.331 276.622 711.051 276.37C710.771 276.109 710.556 275.805 710.407 275.46L711.765 274.858C711.905 275.119 712.11 275.339 712.381 275.516C712.661 275.693 712.969 275.782 713.305 275.782C713.669 275.782 713.958 275.721 714.173 275.6C714.397 275.469 714.509 275.292 714.509 275.068C714.509 274.853 714.425 274.69 714.257 274.578C714.089 274.457 713.851 274.359 713.543 274.284L712.885 274.102C712.222 273.934 711.704 273.668 711.331 273.304C710.957 272.931 710.771 272.506 710.771 272.03C710.771 271.33 710.995 270.789 711.443 270.406C711.9 270.023 712.553 269.832 713.403 269.832C713.832 269.832 714.224 269.897 714.579 270.028C714.943 270.149 715.255 270.327 715.517 270.56C715.778 270.784 715.96 271.05 716.063 271.358L714.761 271.946C714.667 271.713 714.49 271.535 714.229 271.414C713.967 271.283 713.678 271.218 713.361 271.218C713.043 271.218 712.796 271.288 712.619 271.428C712.441 271.559 712.353 271.745 712.353 271.988C712.353 272.128 712.432 272.259 712.591 272.38C712.749 272.492 712.978 272.585 713.277 272.66L714.103 272.856C714.56 272.968 714.933 273.145 715.223 273.388C715.512 273.621 715.727 273.887 715.867 274.186C716.007 274.475 716.077 274.769 716.077 275.068C716.077 275.488 715.955 275.857 715.713 276.174C715.479 276.491 715.157 276.739 714.747 276.916C714.336 277.084 713.869 277.168 713.347 277.168ZM724.939 277L724.869 275.684V273.402C724.869 272.926 724.818 272.529 724.715 272.212C724.612 271.895 724.449 271.652 724.225 271.484C724.01 271.316 723.726 271.232 723.371 271.232C723.044 271.232 722.755 271.302 722.503 271.442C722.251 271.582 722.041 271.797 721.873 272.086L720.445 271.582C720.604 271.274 720.809 270.985 721.061 270.714C721.313 270.443 721.63 270.229 722.013 270.07C722.405 269.911 722.867 269.832 723.399 269.832C724.08 269.832 724.645 269.958 725.093 270.21C725.55 270.462 725.891 270.835 726.115 271.33C726.339 271.825 726.451 272.436 726.451 273.164L726.409 277H724.939ZM722.951 277.168C722.111 277.168 721.458 276.981 720.991 276.608C720.534 276.235 720.305 275.707 720.305 275.026C720.305 274.298 720.548 273.743 721.033 273.36C721.528 272.977 722.214 272.786 723.091 272.786H724.967V273.99H723.595C722.97 273.99 722.531 274.079 722.279 274.256C722.027 274.424 721.901 274.667 721.901 274.984C721.901 275.255 722.008 275.469 722.223 275.628C722.447 275.777 722.755 275.852 723.147 275.852C723.492 275.852 723.791 275.773 724.043 275.614C724.304 275.446 724.505 275.231 724.645 274.97C724.794 274.699 724.869 274.41 724.869 274.102H725.443C725.443 275.054 725.238 275.805 724.827 276.356C724.426 276.897 723.8 277.168 722.951 277.168ZM728.039 277V267.2H729.607V277H728.039ZM731.347 277V267.2H732.915V277H731.347ZM741.253 277.168C740.553 277.168 739.928 277.014 739.377 276.706C738.836 276.389 738.411 275.955 738.103 275.404C737.795 274.853 737.641 274.219 737.641 273.5C737.641 272.781 737.79 272.147 738.089 271.596C738.397 271.045 738.822 270.616 739.363 270.308C739.904 269.991 740.525 269.832 741.225 269.832C741.925 269.832 742.546 269.991 743.087 270.308C743.628 270.616 744.048 271.045 744.347 271.596C744.655 272.147 744.809 272.781 744.809 273.5C744.809 274.219 744.66 274.853 744.361 275.404C744.062 275.955 743.642 276.389 743.101 276.706C742.56 277.014 741.944 277.168 741.253 277.168ZM741.253 275.726C741.636 275.726 741.976 275.633 742.275 275.446C742.574 275.25 742.807 274.989 742.975 274.662C743.143 274.326 743.227 273.939 743.227 273.5C743.227 273.061 743.138 272.679 742.961 272.352C742.793 272.016 742.56 271.755 742.261 271.568C741.962 271.372 741.617 271.274 741.225 271.274C740.833 271.274 740.488 271.367 740.189 271.554C739.89 271.741 739.657 272.002 739.489 272.338C739.321 272.674 739.237 273.061 739.237 273.5C739.237 273.939 739.321 274.326 739.489 274.662C739.666 274.989 739.904 275.25 740.203 275.446C740.511 275.633 740.861 275.726 741.253 275.726ZM748.954 277.168C748.216 277.168 747.652 276.986 747.26 276.622C746.877 276.249 746.686 275.717 746.686 275.026V267.816H748.24V274.732C748.24 275.059 748.314 275.306 748.464 275.474C748.622 275.642 748.851 275.726 749.15 275.726C749.243 275.726 749.346 275.707 749.458 275.67C749.57 275.633 749.696 275.563 749.836 275.46L750.41 276.65C750.167 276.818 749.924 276.944 749.682 277.028C749.439 277.121 749.196 277.168 748.954 277.168ZM745.524 271.344V270H750.13V271.344H745.524ZM751.678 277L751.664 267.074H753.232L753.246 277H751.678ZM756.424 277V273.416L757.992 272.996V277H756.424ZM756.424 273.416C756.424 272.856 756.359 272.427 756.228 272.128C756.097 271.82 755.915 271.605 755.682 271.484C755.458 271.363 755.197 271.302 754.898 271.302C754.366 271.293 753.955 271.465 753.666 271.82C753.386 272.175 753.246 272.683 753.246 273.346H752.644C752.644 272.609 752.751 271.979 752.966 271.456C753.19 270.924 753.503 270.523 753.904 270.252C754.305 269.972 754.781 269.832 755.332 269.832C756.172 269.832 756.825 270.093 757.292 270.616C757.759 271.129 757.992 271.923 757.992 272.996L756.424 273.416ZM762.702 277.168C762.021 277.168 761.414 277.014 760.882 276.706C760.359 276.389 759.944 275.955 759.636 275.404C759.337 274.853 759.188 274.219 759.188 273.5C759.188 272.781 759.342 272.147 759.65 271.596C759.958 271.045 760.378 270.616 760.91 270.308C761.451 269.991 762.067 269.832 762.758 269.832C763.383 269.832 763.943 269.995 764.438 270.322C764.942 270.639 765.343 271.101 765.642 271.708C765.941 272.315 766.09 273.038 766.09 273.878H764.508C764.508 273.271 764.433 272.772 764.284 272.38C764.144 271.988 763.939 271.699 763.668 271.512C763.407 271.316 763.085 271.218 762.702 271.218C762.301 271.218 761.955 271.307 761.666 271.484C761.377 271.661 761.157 271.923 761.008 272.268C760.859 272.604 760.784 273.029 760.784 273.542C760.784 273.999 760.873 274.391 761.05 274.718C761.237 275.045 761.484 275.297 761.792 275.474C762.109 275.642 762.459 275.726 762.842 275.726C763.262 275.726 763.607 275.633 763.878 275.446C764.149 275.25 764.359 275.003 764.508 274.704L765.95 275.32C765.754 275.693 765.502 276.02 765.194 276.3C764.895 276.58 764.536 276.795 764.116 276.944C763.705 277.093 763.234 277.168 762.702 277.168ZM760.224 273.878V272.632H765.264V273.878H760.224ZM768.327 273.276C768.327 272.52 768.472 271.899 768.761 271.414C769.05 270.929 769.424 270.569 769.881 270.336C770.348 270.093 770.833 269.972 771.337 269.972V271.47C770.908 271.47 770.502 271.531 770.119 271.652C769.746 271.764 769.442 271.951 769.209 272.212C768.976 272.473 768.859 272.819 768.859 273.248L768.327 273.276ZM767.291 277V270H768.859V277H767.291ZM684.379 297.168C683.661 297.168 683.026 297.014 682.475 296.706C681.925 296.389 681.491 295.955 681.173 295.404C680.865 294.853 680.711 294.219 680.711 293.5C680.711 292.781 680.865 292.147 681.173 291.596C681.491 291.045 681.92 290.616 682.461 290.308C683.012 289.991 683.642 289.832 684.351 289.832C685.042 289.832 685.667 290 686.227 290.336C686.787 290.663 687.203 291.134 687.473 291.75L686.017 292.31C685.868 292.002 685.639 291.755 685.331 291.568C685.023 291.381 684.673 291.288 684.281 291.288C683.899 291.288 683.558 291.386 683.259 291.582C682.961 291.769 682.727 292.03 682.559 292.366C682.391 292.693 682.307 293.071 682.307 293.5C682.307 293.929 682.391 294.312 682.559 294.648C682.737 294.975 682.975 295.236 683.273 295.432C683.581 295.619 683.927 295.712 684.309 295.712C684.701 295.712 685.051 295.614 685.359 295.418C685.667 295.213 685.896 294.937 686.045 294.592L687.501 295.152C687.231 295.787 686.815 296.281 686.255 296.636C685.705 296.991 685.079 297.168 684.379 297.168ZM688.733 297L688.719 287.074H690.287L690.301 297H688.733ZM693.479 297V293.416L695.047 292.996V297H693.479ZM693.479 293.416C693.479 292.856 693.413 292.427 693.283 292.128C693.152 291.82 692.97 291.605 692.737 291.484C692.513 291.363 692.251 291.302 691.953 291.302C691.421 291.293 691.01 291.465 690.721 291.82C690.441 292.175 690.301 292.683 690.301 293.346H689.699C689.699 292.609 689.806 291.979 690.021 291.456C690.245 290.924 690.557 290.523 690.959 290.252C691.36 289.972 691.836 289.832 692.387 289.832C693.227 289.832 693.88 290.093 694.347 290.616C694.813 291.129 695.047 291.923 695.047 292.996L693.479 293.416ZM696.733 297L696.747 290H698.301L698.287 297H696.733ZM697.517 288.67C697.265 288.67 697.045 288.581 696.859 288.404C696.681 288.217 696.593 287.998 696.593 287.746C696.593 287.494 696.681 287.279 696.859 287.102C697.045 286.925 697.265 286.836 697.517 286.836C697.769 286.836 697.983 286.925 698.161 287.102C698.347 287.279 698.441 287.494 698.441 287.746C698.441 287.998 698.347 288.217 698.161 288.404C697.983 288.581 697.769 288.67 697.517 288.67ZM700.135 297V287.2H701.703V297H700.135ZM708.497 297L708.427 295.698V287.2H709.981V297H708.497ZM706.215 297.168C705.581 297.168 705.025 297.019 704.549 296.72C704.083 296.412 703.714 295.983 703.443 295.432C703.182 294.881 703.051 294.237 703.051 293.5C703.051 292.753 703.182 292.109 703.443 291.568C703.714 291.017 704.083 290.593 704.549 290.294C705.025 289.986 705.581 289.832 706.215 289.832C706.803 289.832 707.307 289.986 707.727 290.294C708.157 290.593 708.483 291.017 708.707 291.568C708.931 292.109 709.043 292.753 709.043 293.5C709.043 294.237 708.931 294.881 708.707 295.432C708.483 295.983 708.157 296.412 707.727 296.72C707.307 297.019 706.803 297.168 706.215 297.168ZM706.607 295.74C706.962 295.74 707.275 295.647 707.545 295.46C707.825 295.264 708.04 294.998 708.189 294.662C708.348 294.326 708.427 293.939 708.427 293.5C708.427 293.061 708.348 292.674 708.189 292.338C708.04 292.002 707.825 291.741 707.545 291.554C707.275 291.367 706.957 291.274 706.593 291.274C706.22 291.274 705.889 291.367 705.599 291.554C705.31 291.741 705.081 292.002 704.913 292.338C704.755 292.674 704.671 293.061 704.661 293.5C704.671 293.939 704.755 294.326 704.913 294.662C705.081 294.998 705.31 295.264 705.599 295.46C705.898 295.647 706.234 295.74 706.607 295.74ZM715.092 297V290H716.562L716.66 291.288V297H715.092ZM719.838 297V293.416L721.406 292.996V297H719.838ZM719.838 293.416C719.838 292.856 719.772 292.427 719.642 292.128C719.52 291.82 719.343 291.605 719.11 291.484C718.886 291.363 718.62 291.302 718.312 291.302C717.789 291.293 717.383 291.465 717.094 291.82C716.804 292.175 716.66 292.683 716.66 293.346H716.072C716.072 292.609 716.179 291.979 716.394 291.456C716.608 290.924 716.916 290.523 717.318 290.252C717.719 289.972 718.195 289.832 718.746 289.832C719.595 289.832 720.248 290.093 720.706 290.616C721.172 291.129 721.406 291.923 721.406 292.996L719.838 293.416ZM726.214 297.168C725.514 297.168 724.889 297.014 724.338 296.706C723.797 296.389 723.372 295.955 723.064 295.404C722.756 294.853 722.602 294.219 722.602 293.5C722.602 292.781 722.751 292.147 723.05 291.596C723.358 291.045 723.783 290.616 724.324 290.308C724.865 289.991 725.486 289.832 726.186 289.832C726.886 289.832 727.507 289.991 728.048 290.308C728.589 290.616 729.009 291.045 729.308 291.596C729.616 292.147 729.77 292.781 729.77 293.5C729.77 294.219 729.621 294.853 729.322 295.404C729.023 295.955 728.603 296.389 728.062 296.706C727.521 297.014 726.905 297.168 726.214 297.168ZM726.214 295.726C726.597 295.726 726.937 295.633 727.236 295.446C727.535 295.25 727.768 294.989 727.936 294.662C728.104 294.326 728.188 293.939 728.188 293.5C728.188 293.061 728.099 292.679 727.922 292.352C727.754 292.016 727.521 291.755 727.222 291.568C726.923 291.372 726.578 291.274 726.186 291.274C725.794 291.274 725.449 291.367 725.15 291.554C724.851 291.741 724.618 292.002 724.45 292.338C724.282 292.674 724.198 293.061 724.198 293.5C724.198 293.939 724.282 294.326 724.45 294.662C724.627 294.989 724.865 295.25 725.164 295.446C725.472 295.633 725.822 295.726 726.214 295.726ZM736.183 297L736.113 295.698V287.2H737.667V297H736.183ZM733.901 297.168C733.266 297.168 732.711 297.019 732.235 296.72C731.768 296.412 731.399 295.983 731.129 295.432C730.867 294.881 730.737 294.237 730.737 293.5C730.737 292.753 730.867 292.109 731.129 291.568C731.399 291.017 731.768 290.593 732.235 290.294C732.711 289.986 733.266 289.832 733.901 289.832C734.489 289.832 734.993 289.986 735.413 290.294C735.842 290.593 736.169 291.017 736.393 291.568C736.617 292.109 736.729 292.753 736.729 293.5C736.729 294.237 736.617 294.881 736.393 295.432C736.169 295.983 735.842 296.412 735.413 296.72C734.993 297.019 734.489 297.168 733.901 297.168ZM734.293 295.74C734.647 295.74 734.96 295.647 735.231 295.46C735.511 295.264 735.725 294.998 735.875 294.662C736.033 294.326 736.113 293.939 736.113 293.5C736.113 293.061 736.033 292.674 735.875 292.338C735.725 292.002 735.511 291.741 735.231 291.554C734.96 291.367 734.643 291.274 734.279 291.274C733.905 291.274 733.574 291.367 733.285 291.554C732.995 291.741 732.767 292.002 732.599 292.338C732.44 292.674 732.356 293.061 732.347 293.5C732.356 293.939 732.44 294.326 732.599 294.662C732.767 294.998 732.995 295.264 733.285 295.46C733.583 295.647 733.919 295.74 734.293 295.74ZM742.522 297.168C741.841 297.168 741.234 297.014 740.702 296.706C740.18 296.389 739.764 295.955 739.456 295.404C739.158 294.853 739.008 294.219 739.008 293.5C739.008 292.781 739.162 292.147 739.47 291.596C739.778 291.045 740.198 290.616 740.73 290.308C741.272 289.991 741.888 289.832 742.578 289.832C743.204 289.832 743.764 289.995 744.258 290.322C744.762 290.639 745.164 291.101 745.462 291.708C745.761 292.315 745.91 293.038 745.91 293.878H744.328C744.328 293.271 744.254 292.772 744.104 292.38C743.964 291.988 743.759 291.699 743.488 291.512C743.227 291.316 742.905 291.218 742.522 291.218C742.121 291.218 741.776 291.307 741.486 291.484C741.197 291.661 740.978 291.923 740.828 292.268C740.679 292.604 740.604 293.029 740.604 293.542C740.604 293.999 740.693 294.391 740.87 294.718C741.057 295.045 741.304 295.297 741.612 295.474C741.93 295.642 742.28 295.726 742.662 295.726C743.082 295.726 743.428 295.633 743.698 295.446C743.969 295.25 744.179 295.003 744.328 294.704L745.77 295.32C745.574 295.693 745.322 296.02 745.014 296.3C744.716 296.58 744.356 296.795 743.936 296.944C743.526 297.093 743.054 297.168 742.522 297.168ZM740.044 293.878V292.632H745.084V293.878H740.044ZM749.659 297.168C749.192 297.168 748.763 297.098 748.371 296.958C747.979 296.818 747.643 296.622 747.363 296.37C747.083 296.109 746.868 295.805 746.719 295.46L748.077 294.858C748.217 295.119 748.422 295.339 748.693 295.516C748.973 295.693 749.281 295.782 749.617 295.782C749.981 295.782 750.27 295.721 750.485 295.6C750.709 295.469 750.821 295.292 750.821 295.068C750.821 294.853 750.737 294.69 750.569 294.578C750.401 294.457 750.163 294.359 749.855 294.284L749.197 294.102C748.534 293.934 748.016 293.668 747.643 293.304C747.27 292.931 747.083 292.506 747.083 292.03C747.083 291.33 747.307 290.789 747.755 290.406C748.212 290.023 748.866 289.832 749.715 289.832C750.144 289.832 750.536 289.897 750.891 290.028C751.255 290.149 751.568 290.327 751.829 290.56C752.09 290.784 752.272 291.05 752.375 291.358L751.073 291.946C750.98 291.713 750.802 291.535 750.541 291.414C750.28 291.283 749.99 291.218 749.673 291.218C749.356 291.218 749.108 291.288 748.931 291.428C748.754 291.559 748.665 291.745 748.665 291.988C748.665 292.128 748.744 292.259 748.903 292.38C749.062 292.492 749.29 292.585 749.589 292.66L750.415 292.856C750.872 292.968 751.246 293.145 751.535 293.388C751.824 293.621 752.039 293.887 752.179 294.186C752.319 294.475 752.389 294.769 752.389 295.068C752.389 295.488 752.268 295.857 752.025 296.174C751.792 296.491 751.47 296.739 751.059 296.916C750.648 297.084 750.182 297.168 749.659 297.168Z" fill="#21333F"/>
</svg>
