<svg width="1056" height="704" viewBox="0 0 1056 704" fill="none" xmlns="http://www.w3.org/2000/svg">
<path d="M237.188 89L246.164 55.4H255.236L245.588 89H237.188ZM217.172 89L207.524 55.4H216.596L225.572 89H217.172ZM218.468 89L226.964 55.4H234.836L226.388 89H218.468ZM236.372 89L227.924 55.4H235.796L244.772 89H236.372ZM258.203 89V65H266.843V89H258.203ZM262.523 62.696C261.243 62.696 260.123 62.216 259.163 61.256C258.203 60.296 257.723 59.176 257.723 57.896C257.723 56.584 258.203 55.464 259.163 54.536C260.123 53.576 261.243 53.096 262.523 53.096C263.835 53.096 264.955 53.576 265.883 54.536C266.843 55.464 267.323 56.584 267.323 57.896C267.323 59.176 266.843 60.296 265.883 61.256C264.955 62.216 263.835 62.696 262.523 62.696ZM282.348 89.576C279.372 89.576 277.164 88.872 275.724 87.464C274.284 86.056 273.564 84.04 273.564 81.416V57.512H282.204V79.064C282.204 79.96 282.332 80.6 282.588 80.984C282.844 81.368 283.276 81.56 283.884 81.56C284.14 81.56 284.46 81.48 284.844 81.32C285.228 81.16 285.532 81 285.756 80.84L288.684 87.08C287.948 87.72 286.988 88.296 285.804 88.808C284.62 89.32 283.468 89.576 282.348 89.576ZM269.964 72.2V65H287.148V72.2H269.964ZM292.131 89L292.035 55.4H300.675L300.771 89H292.131ZM307.155 89V76.712L315.795 75.272V89H307.155ZM307.155 76.712C307.155 75.784 307.043 75.032 306.819 74.456C306.627 73.848 306.323 73.384 305.907 73.064C305.523 72.744 305.027 72.568 304.419 72.536C303.203 72.472 302.291 72.744 301.683 73.352C301.075 73.96 300.771 74.92 300.771 76.232H298.419C298.419 73.704 298.803 71.56 299.571 69.8C300.339 68.04 301.379 66.712 302.691 65.816C304.003 64.888 305.491 64.424 307.155 64.424C310.099 64.424 312.275 65.304 313.683 67.064C315.091 68.824 315.795 71.56 315.795 75.272L307.155 76.712ZM354.077 89L361.853 65H370.685L362.477 89H354.077ZM338.429 89L345.725 65H352.973L345.869 89H338.429ZM337.421 89L329.261 65H338.093L345.341 89H337.421ZM354.029 89L346.973 65H354.221L361.469 89H354.029ZM386.395 89L386.155 83.48V77.24C386.155 76.12 386.091 75.112 385.963 74.216C385.835 73.32 385.515 72.616 385.003 72.104C384.491 71.592 383.659 71.336 382.507 71.336C381.707 71.336 381.051 71.528 380.539 71.912C380.027 72.296 379.595 72.744 379.243 73.256L371.707 70.856C372.379 69.544 373.211 68.408 374.203 67.448C375.227 66.488 376.411 65.752 377.755 65.24C379.131 64.696 380.651 64.424 382.315 64.424C384.875 64.424 387.067 64.888 388.891 65.816C390.715 66.744 392.107 68.04 393.067 69.704C394.027 71.368 394.507 73.304 394.507 75.512V89H386.395ZM380.011 89.576C377.227 89.576 375.051 88.952 373.483 87.704C371.947 86.424 371.179 84.6 371.179 82.232C371.179 79.736 371.947 77.896 373.483 76.712C375.051 75.496 377.227 74.888 380.011 74.888H387.067V79.832H383.419C382.299 79.832 381.435 80.024 380.827 80.408C380.219 80.792 379.915 81.336 379.915 82.04C379.915 82.52 380.123 82.888 380.539 83.144C380.955 83.4 381.531 83.528 382.267 83.528C383.067 83.528 383.755 83.384 384.331 83.096C384.907 82.776 385.355 82.344 385.675 81.8C385.995 81.224 386.155 80.568 386.155 79.832H388.411C388.411 82.936 387.675 85.336 386.203 87.032C384.731 88.728 382.667 89.576 380.011 89.576ZM409.286 89.576C406.31 89.576 404.102 88.872 402.662 87.464C401.222 86.056 400.502 84.04 400.502 81.416V57.512H409.142V79.064C409.142 79.96 409.27 80.6 409.526 80.984C409.782 81.368 410.214 81.56 410.822 81.56C411.078 81.56 411.398 81.48 411.782 81.32C412.166 81.16 412.47 81 412.694 80.84L415.622 87.08C414.886 87.72 413.926 88.296 412.742 88.808C411.558 89.32 410.406 89.576 409.286 89.576ZM396.902 72.2V65H414.086V72.2H396.902ZM430.413 89.576C427.821 89.576 425.517 89.048 423.501 87.992C421.485 86.936 419.901 85.464 418.749 83.576C417.629 81.688 417.069 79.496 417.069 77C417.069 74.504 417.629 72.312 418.749 70.424C419.869 68.536 421.421 67.064 423.405 66.008C425.389 64.952 427.677 64.424 430.269 64.424C432.733 64.424 434.893 64.968 436.749 66.056C438.637 67.112 440.109 68.728 441.165 70.904C442.253 73.08 442.797 75.832 442.797 79.16H434.301C434.301 77.464 434.189 75.96 433.965 74.648C433.773 73.336 433.357 72.312 432.717 71.576C432.109 70.808 431.181 70.424 429.933 70.424C428.941 70.424 428.141 70.712 427.533 71.288C426.925 71.832 426.493 72.632 426.237 73.688C425.981 74.712 425.853 75.96 425.853 77.432C425.853 78.84 426.045 79.96 426.429 80.792C426.845 81.592 427.373 82.168 428.013 82.52C428.685 82.84 429.405 83 430.173 83C431.229 83 432.141 82.76 432.909 82.28C433.709 81.768 434.205 81.144 434.397 80.408L441.981 82.76C441.405 84.424 440.477 85.768 439.197 86.792C437.949 87.784 436.541 88.504 434.973 88.952C433.437 89.368 431.917 89.576 430.413 89.576ZM422.541 79.16L422.589 73.88H438.813V79.16H422.541ZM452.081 76.76C452.081 74.168 452.593 71.992 453.617 70.232C454.673 68.472 456.001 67.144 457.601 66.248C459.201 65.352 460.865 64.904 462.593 64.904V73.352C461.089 73.352 459.681 73.496 458.369 73.784C457.089 74.04 456.049 74.44 455.249 74.984C454.481 75.528 454.097 76.184 454.097 76.952L452.081 76.76ZM445.457 89V65H454.097V89H445.457ZM467.873 89V62.936C467.873 60.28 468.593 58.168 470.033 56.6C471.473 55.032 473.681 54.248 476.657 54.248C477.873 54.248 479.105 54.456 480.353 54.872C481.633 55.256 482.673 55.704 483.473 56.216L480.257 62.216C479.969 61.96 479.649 61.784 479.297 61.688C478.977 61.592 478.657 61.544 478.337 61.544C477.697 61.544 477.233 61.784 476.945 62.264C476.657 62.712 476.513 63.512 476.513 64.664V89H467.873ZM464.273 71.72V65H481.457V71.72H464.273ZM498.473 89L498.233 83.48V77.24C498.233 76.12 498.169 75.112 498.041 74.216C497.913 73.32 497.593 72.616 497.081 72.104C496.569 71.592 495.737 71.336 494.585 71.336C493.785 71.336 493.129 71.528 492.617 71.912C492.105 72.296 491.673 72.744 491.321 73.256L483.785 70.856C484.457 69.544 485.289 68.408 486.281 67.448C487.305 66.488 488.489 65.752 489.833 65.24C491.209 64.696 492.729 64.424 494.393 64.424C496.953 64.424 499.145 64.888 500.969 65.816C502.793 66.744 504.185 68.04 505.145 69.704C506.105 71.368 506.585 73.304 506.585 75.512V89H498.473ZM492.089 89.576C489.305 89.576 487.129 88.952 485.561 87.704C484.025 86.424 483.257 84.6 483.257 82.232C483.257 79.736 484.025 77.896 485.561 76.712C487.129 75.496 489.305 74.888 492.089 74.888H499.145V79.832H495.497C494.377 79.832 493.513 80.024 492.905 80.408C492.297 80.792 491.993 81.336 491.993 82.04C491.993 82.52 492.201 82.888 492.617 83.144C493.033 83.4 493.609 83.528 494.345 83.528C495.145 83.528 495.833 83.384 496.409 83.096C496.985 82.776 497.433 82.344 497.753 81.8C498.073 81.224 498.233 80.568 498.233 79.832H500.489C500.489 82.936 499.753 85.336 498.281 87.032C496.809 88.728 494.745 89.576 492.089 89.576ZM510.66 89V55.4H519.3V89H510.66ZM523.598 89V55.4H532.238V89H523.598ZM564.062 89L563.63 84.536V55.4H572.27V89H564.062ZM557.246 89.576C554.974 89.576 553.022 89.08 551.39 88.088C549.79 87.096 548.558 85.656 547.694 83.768C546.83 81.88 546.398 79.624 546.398 77C546.398 74.344 546.83 72.088 547.694 70.232C548.558 68.344 549.79 66.904 551.39 65.912C553.022 64.92 554.974 64.424 557.246 64.424C559.23 64.424 560.862 64.92 562.142 65.912C563.454 66.904 564.414 68.344 565.022 70.232C565.662 72.088 565.982 74.344 565.982 77C565.982 79.624 565.662 81.88 565.022 83.768C564.414 85.656 563.454 87.096 562.142 88.088C560.862 89.08 559.23 89.576 557.246 89.576ZM559.549 81.608C560.35 81.608 561.054 81.416 561.662 81.032C562.302 80.616 562.798 80.072 563.15 79.4C563.502 78.696 563.678 77.896 563.678 77C563.678 76.104 563.502 75.32 563.15 74.648C562.798 73.944 562.302 73.4 561.662 73.016C561.054 72.632 560.334 72.44 559.502 72.44C558.734 72.44 558.046 72.632 557.438 73.016C556.83 73.4 556.35 73.944 555.998 74.648C555.646 75.32 555.454 76.104 555.422 77C555.454 77.896 555.646 78.696 555.998 79.4C556.35 80.072 556.83 80.616 557.438 81.032C558.078 81.416 558.782 81.608 559.549 81.608ZM590.582 89L590.342 83.48V77.24C590.342 76.12 590.278 75.112 590.15 74.216C590.022 73.32 589.702 72.616 589.19 72.104C588.678 71.592 587.846 71.336 586.694 71.336C585.894 71.336 585.238 71.528 584.726 71.912C584.214 72.296 583.782 72.744 583.43 73.256L575.894 70.856C576.566 69.544 577.398 68.408 578.39 67.448C579.414 66.488 580.598 65.752 581.942 65.24C583.318 64.696 584.838 64.424 586.502 64.424C589.062 64.424 591.254 64.888 593.078 65.816C594.902 66.744 596.294 68.04 597.254 69.704C598.214 71.368 598.694 73.304 598.694 75.512V89H590.582ZM584.198 89.576C581.414 89.576 579.238 88.952 577.67 87.704C576.134 86.424 575.366 84.6 575.366 82.232C575.366 79.736 576.134 77.896 577.67 76.712C579.238 75.496 581.414 74.888 584.198 74.888H591.254V79.832H587.606C586.486 79.832 585.622 80.024 585.014 80.408C584.406 80.792 584.102 81.336 584.102 82.04C584.102 82.52 584.31 82.888 584.726 83.144C585.142 83.4 585.718 83.528 586.454 83.528C587.254 83.528 587.942 83.384 588.518 83.096C589.094 82.776 589.542 82.344 589.862 81.8C590.182 81.224 590.342 80.568 590.342 79.832H592.598C592.598 82.936 591.862 85.336 590.39 87.032C588.918 88.728 586.854 89.576 584.198 89.576ZM613.473 89.576C610.497 89.576 608.289 88.872 606.849 87.464C605.409 86.056 604.689 84.04 604.689 81.416V57.512H613.329V79.064C613.329 79.96 613.457 80.6 613.713 80.984C613.969 81.368 614.401 81.56 615.009 81.56C615.265 81.56 615.585 81.48 615.969 81.32C616.353 81.16 616.657 81 616.881 80.84L619.809 87.08C619.073 87.72 618.113 88.296 616.929 88.808C615.745 89.32 614.593 89.576 613.473 89.576ZM601.089 72.2V65H618.273V72.2H601.089ZM636.473 89L636.233 83.48V77.24C636.233 76.12 636.169 75.112 636.041 74.216C635.913 73.32 635.593 72.616 635.081 72.104C634.569 71.592 633.737 71.336 632.585 71.336C631.785 71.336 631.129 71.528 630.617 71.912C630.105 72.296 629.673 72.744 629.321 73.256L621.785 70.856C622.457 69.544 623.289 68.408 624.281 67.448C625.305 66.488 626.489 65.752 627.833 65.24C629.209 64.696 630.729 64.424 632.393 64.424C634.953 64.424 637.145 64.888 638.969 65.816C640.793 66.744 642.185 68.04 643.145 69.704C644.105 71.368 644.585 73.304 644.585 75.512V89H636.473ZM630.089 89.576C627.305 89.576 625.129 88.952 623.561 87.704C622.025 86.424 621.257 84.6 621.257 82.232C621.257 79.736 622.025 77.896 623.561 76.712C625.129 75.496 627.305 74.888 630.089 74.888H637.145V79.832H633.497C632.377 79.832 631.513 80.024 630.905 80.408C630.297 80.792 629.993 81.336 629.993 82.04C629.993 82.52 630.201 82.888 630.617 83.144C631.033 83.4 631.609 83.528 632.345 83.528C633.145 83.528 633.833 83.384 634.409 83.096C634.985 82.776 635.433 82.344 635.753 81.8C636.073 81.224 636.233 80.568 636.233 79.832H638.489C638.489 82.936 637.753 85.336 636.281 87.032C634.809 88.728 632.745 89.576 630.089 89.576ZM662.123 89V62.936C662.123 60.28 662.843 58.168 664.283 56.6C665.723 55.032 667.931 54.248 670.907 54.248C672.123 54.248 673.355 54.456 674.603 54.872C675.883 55.256 676.923 55.704 677.723 56.216L674.507 62.216C674.219 61.96 673.899 61.784 673.547 61.688C673.227 61.592 672.907 61.544 672.587 61.544C671.947 61.544 671.483 61.784 671.195 62.264C670.907 62.712 670.763 63.512 670.763 64.664V89H662.123ZM658.523 71.72V65H675.707V71.72H658.523ZM690.851 89.576C688.259 89.576 685.955 89.048 683.939 87.992C681.923 86.936 680.339 85.464 679.187 83.576C678.067 81.688 677.507 79.496 677.507 77C677.507 74.504 678.067 72.312 679.187 70.424C680.307 68.536 681.859 67.064 683.843 66.008C685.827 64.952 688.115 64.424 690.707 64.424C693.171 64.424 695.331 64.968 697.187 66.056C699.075 67.112 700.547 68.728 701.603 70.904C702.691 73.08 703.235 75.832 703.235 79.16H694.739C694.739 77.464 694.627 75.96 694.403 74.648C694.211 73.336 693.795 72.312 693.155 71.576C692.547 70.808 691.619 70.424 690.371 70.424C689.379 70.424 688.579 70.712 687.971 71.288C687.363 71.832 686.931 72.632 686.675 73.688C686.419 74.712 686.291 75.96 686.291 77.432C686.291 78.84 686.483 79.96 686.867 80.792C687.283 81.592 687.811 82.168 688.451 82.52C689.123 82.84 689.843 83 690.611 83C691.667 83 692.579 82.76 693.347 82.28C694.147 81.768 694.643 81.144 694.835 80.408L702.419 82.76C701.843 84.424 700.915 85.768 699.635 86.792C698.387 87.784 696.979 88.504 695.411 88.952C693.875 89.368 692.355 89.576 690.851 89.576ZM682.979 79.16L683.027 73.88H699.251V79.16H682.979ZM716.598 89.576C713.622 89.576 711.414 88.872 709.974 87.464C708.534 86.056 707.814 84.04 707.814 81.416V57.512H716.454V79.064C716.454 79.96 716.582 80.6 716.838 80.984C717.094 81.368 717.526 81.56 718.134 81.56C718.39 81.56 718.71 81.48 719.094 81.32C719.478 81.16 719.782 81 720.006 80.84L722.934 87.08C722.198 87.72 721.238 88.296 720.054 88.808C718.87 89.32 717.718 89.576 716.598 89.576ZM704.214 72.2V65H721.398V72.2H704.214ZM737.918 89.576C735.294 89.576 732.958 89.048 730.91 87.992C728.862 86.904 727.262 85.416 726.11 83.528C724.958 81.608 724.382 79.432 724.382 77C724.382 74.536 724.958 72.36 726.11 70.472C727.262 68.584 728.846 67.112 730.862 66.056C732.878 64.968 735.198 64.424 737.822 64.424C740.35 64.424 742.67 65.08 744.782 66.392C746.894 67.704 748.398 69.608 749.294 72.104L741.038 74.792C740.782 74.152 740.302 73.624 739.598 73.208C738.926 72.792 738.174 72.584 737.342 72.584C736.542 72.584 735.838 72.776 735.23 73.16C734.622 73.512 734.142 74.024 733.79 74.696C733.438 75.368 733.262 76.136 733.262 77C733.262 77.864 733.438 78.632 733.79 79.304C734.142 79.944 734.638 80.456 735.278 80.84C735.918 81.224 736.638 81.416 737.438 81.416C738.238 81.416 738.974 81.208 739.646 80.792C740.318 80.376 740.798 79.848 741.086 79.208L749.342 81.848C748.446 84.344 746.942 86.264 744.83 87.608C742.75 88.92 740.446 89.576 737.918 89.576ZM752.069 89L751.973 55.4H760.613L760.709 89H752.069ZM767.093 89V76.712L775.733 75.272V89H767.093ZM767.093 76.712C767.093 75.784 766.981 75.032 766.757 74.456C766.565 73.848 766.261 73.384 765.845 73.064C765.461 72.744 764.965 72.568 764.357 72.536C763.141 72.472 762.229 72.744 761.621 73.352C761.013 73.96 760.709 74.92 760.709 76.232H758.357C758.357 73.704 758.741 71.56 759.509 69.8C760.277 68.04 761.317 66.712 762.629 65.816C763.941 64.888 765.429 64.424 767.093 64.424C770.037 64.424 772.213 65.304 773.621 67.064C775.029 68.824 775.733 71.56 775.733 75.272L767.093 76.712ZM780.296 89V65H788.936V89H780.296ZM784.616 62.696C783.336 62.696 782.216 62.216 781.256 61.256C780.296 60.296 779.816 59.176 779.816 57.896C779.816 56.584 780.296 55.464 781.256 54.536C782.216 53.576 783.336 53.096 784.616 53.096C785.928 53.096 787.048 53.576 787.976 54.536C788.936 55.464 789.416 56.584 789.416 57.896C789.416 59.176 788.936 60.296 787.976 61.256C787.048 62.216 785.928 62.696 784.616 62.696ZM793.738 89V65H801.898L802.378 69.416V89H793.738ZM808.762 89V76.712L817.402 75.272V89H808.762ZM808.762 76.712C808.762 75.784 808.65 75.032 808.426 74.456C808.234 73.848 807.93 73.384 807.514 73.064C807.13 72.744 806.634 72.568 806.026 72.536C804.81 72.472 803.898 72.744 803.29 73.352C802.682 73.96 802.378 74.92 802.378 76.232H800.026C800.026 73.704 800.41 71.56 801.178 69.8C801.946 68.04 802.986 66.712 804.298 65.816C805.61 64.888 807.098 64.424 808.762 64.424C811.706 64.424 813.882 65.304 815.29 67.064C816.698 68.824 817.402 71.56 817.402 75.272L808.762 76.712ZM833.344 99.272C831.264 99.272 829.456 99.16 827.92 98.936C826.416 98.712 825.136 98.376 824.08 97.928C823.024 97.512 822.112 97 821.344 96.392L824.752 89.528C825.264 89.784 825.856 90.072 826.528 90.392C827.232 90.744 828.096 91.048 829.12 91.304C830.144 91.56 831.408 91.688 832.912 91.688C833.904 91.688 834.784 91.496 835.552 91.112C836.32 90.728 836.912 90.152 837.328 89.384C837.776 88.616 838 87.656 838 86.504V65H846.64V86.12C846.64 88.776 846.128 91.096 845.104 93.08C844.112 95.064 842.624 96.584 840.64 97.64C838.688 98.728 836.256 99.272 833.344 99.272ZM831.136 87.848C828.864 87.848 826.912 87.416 825.28 86.552C823.68 85.656 822.448 84.392 821.584 82.76C820.72 81.096 820.288 79.112 820.288 76.808C820.288 74.216 820.72 72.008 821.584 70.184C822.448 68.328 823.68 66.904 825.28 65.912C826.912 64.92 828.864 64.424 831.136 64.424C832.96 64.424 834.528 64.92 835.84 65.912C837.152 66.904 838.144 68.344 838.816 70.232C839.52 72.088 839.872 74.344 839.872 77C839.872 79.272 839.52 81.224 838.816 82.856C838.144 84.456 837.152 85.688 835.84 86.552C834.528 87.416 832.96 87.848 831.136 87.848ZM833.776 80.696C834.576 80.696 835.248 80.52 835.792 80.168C836.368 79.784 836.8 79.272 837.088 78.632C837.408 77.992 837.568 77.272 837.568 76.472C837.568 75.608 837.408 74.856 837.088 74.216C836.768 73.576 836.32 73.08 835.744 72.728C835.2 72.376 834.528 72.2 833.728 72.2C832.96 72.2 832.288 72.376 831.712 72.728C831.136 73.08 830.688 73.576 830.368 74.216C830.048 74.856 829.872 75.608 829.84 76.472C829.872 77.272 830.048 77.992 830.368 78.632C830.688 79.272 831.136 79.784 831.712 80.168C832.32 80.52 833.008 80.696 833.776 80.696Z" fill="#8194A2"/>
<g clip-path="url(#clip0_13398_11558)">
<path d="M108 165H308C322.912 165 335 177.088 335 192C335 206.912 322.912 219 308 219H108C93.0883 219 81 206.912 81 192C81 177.088 93.0883 165 108 165Z" fill="#E5F2FF"/>
<path d="M108 165H308C322.912 165 335 177.088 335 192C335 206.912 322.912 219 308 219H108C93.0883 219 81 206.912 81 192C81 177.088 93.0883 165 108 165Z" stroke="#87CEFF" stroke-width="2"/>
<path d="M157.742 198V196.128H161.252C161.912 196.128 162.434 195.966 162.818 195.642C163.202 195.318 163.394 194.88 163.394 194.328C163.394 193.728 163.178 193.26 162.746 192.924C162.326 192.576 161.732 192.408 160.964 192.42H157.742V190.764L159.92 190.8C161.06 190.8 162.05 190.932 162.89 191.196C163.73 191.448 164.378 191.844 164.834 192.384C165.29 192.924 165.518 193.62 165.518 194.472C165.518 195.216 165.35 195.852 165.014 196.38C164.678 196.908 164.204 197.31 163.592 197.586C162.98 197.862 162.254 198 161.414 198H157.742ZM156.716 198V185.4H158.768V198H156.716ZM157.688 192.51V190.692H161.054C161.654 190.692 162.122 190.536 162.458 190.224C162.806 189.9 162.98 189.456 162.98 188.892C162.98 188.316 162.782 187.872 162.386 187.56C162.002 187.248 161.462 187.098 160.766 187.11H157.688V185.418L160.874 185.382C161.738 185.382 162.482 185.52 163.106 185.796C163.742 186.06 164.234 186.456 164.582 186.984C164.93 187.5 165.104 188.148 165.104 188.928C165.104 189.588 164.9 190.182 164.492 190.71C164.096 191.226 163.526 191.634 162.782 191.934C162.05 192.234 161.186 192.384 160.19 192.384L157.688 192.51ZM172.813 198L172.723 196.308V193.374C172.723 192.762 172.657 192.252 172.525 191.844C172.393 191.436 172.183 191.124 171.895 190.908C171.619 190.692 171.253 190.584 170.797 190.584C170.377 190.584 170.005 190.674 169.681 190.854C169.357 191.034 169.087 191.31 168.871 191.682L167.035 191.034C167.239 190.638 167.503 190.266 167.827 189.918C168.151 189.57 168.559 189.294 169.051 189.09C169.555 188.886 170.149 188.784 170.833 188.784C171.709 188.784 172.435 188.946 173.011 189.27C173.599 189.594 174.037 190.074 174.325 190.71C174.613 191.346 174.757 192.132 174.757 193.068L174.703 198H172.813ZM170.257 198.216C169.177 198.216 168.337 197.976 167.737 197.496C167.149 197.016 166.855 196.338 166.855 195.462C166.855 194.526 167.167 193.812 167.791 193.32C168.427 192.828 169.309 192.582 170.437 192.582H172.849V194.13H171.085C170.281 194.13 169.717 194.244 169.393 194.472C169.069 194.688 168.907 195 168.907 195.408C168.907 195.756 169.045 196.032 169.321 196.236C169.609 196.428 170.005 196.524 170.509 196.524C170.953 196.524 171.337 196.422 171.661 196.218C171.997 196.002 172.255 195.726 172.435 195.39C172.627 195.042 172.723 194.67 172.723 194.274H173.461C173.461 195.498 173.197 196.464 172.669 197.172C172.153 197.868 171.349 198.216 170.257 198.216ZM180.075 198.216C179.475 198.216 178.923 198.126 178.419 197.946C177.915 197.766 177.483 197.514 177.123 197.19C176.763 196.854 176.487 196.464 176.295 196.02L178.041 195.246C178.221 195.582 178.485 195.864 178.833 196.092C179.193 196.32 179.589 196.434 180.021 196.434C180.489 196.434 180.861 196.356 181.137 196.2C181.425 196.032 181.569 195.804 181.569 195.516C181.569 195.24 181.461 195.03 181.245 194.886C181.029 194.73 180.723 194.604 180.327 194.508L179.481 194.274C178.629 194.058 177.963 193.716 177.483 193.248C177.003 192.768 176.763 192.222 176.763 191.61C176.763 190.71 177.051 190.014 177.627 189.522C178.215 189.03 179.055 188.784 180.147 188.784C180.699 188.784 181.203 188.868 181.659 189.036C182.127 189.192 182.529 189.42 182.865 189.72C183.201 190.008 183.435 190.35 183.567 190.746L181.893 191.502C181.773 191.202 181.545 190.974 181.209 190.818C180.873 190.65 180.501 190.566 180.093 190.566C179.685 190.566 179.367 190.656 179.139 190.836C178.911 191.004 178.797 191.244 178.797 191.556C178.797 191.736 178.899 191.904 179.103 192.06C179.307 192.204 179.601 192.324 179.985 192.42L181.047 192.672C181.635 192.816 182.115 193.044 182.487 193.356C182.859 193.656 183.135 193.998 183.315 194.382C183.495 194.754 183.585 195.132 183.585 195.516C183.585 196.056 183.429 196.53 183.117 196.938C182.817 197.346 182.403 197.664 181.875 197.892C181.347 198.108 180.747 198.216 180.075 198.216ZM189.197 198.216C188.321 198.216 187.541 198.018 186.857 197.622C186.185 197.214 185.651 196.656 185.255 195.948C184.871 195.24 184.679 194.424 184.679 193.5C184.679 192.576 184.877 191.76 185.273 191.052C185.669 190.344 186.209 189.792 186.893 189.396C187.589 188.988 188.381 188.784 189.269 188.784C190.073 188.784 190.793 188.994 191.429 189.414C192.077 189.822 192.593 190.416 192.977 191.196C193.361 191.976 193.553 192.906 193.553 193.986H191.519C191.519 193.206 191.423 192.564 191.231 192.06C191.051 191.556 190.787 191.184 190.439 190.944C190.103 190.692 189.689 190.566 189.197 190.566C188.681 190.566 188.237 190.68 187.865 190.908C187.493 191.136 187.211 191.472 187.019 191.916C186.827 192.348 186.731 192.894 186.731 193.554C186.731 194.142 186.845 194.646 187.073 195.066C187.313 195.486 187.631 195.81 188.027 196.038C188.435 196.254 188.885 196.362 189.377 196.362C189.917 196.362 190.361 196.242 190.709 196.002C191.057 195.75 191.327 195.432 191.519 195.048L193.373 195.84C193.121 196.32 192.797 196.74 192.401 197.1C192.017 197.46 191.555 197.736 191.015 197.928C190.487 198.12 189.881 198.216 189.197 198.216ZM186.011 193.986V192.384H192.491V193.986H186.011ZM199.439 198V189H201.329L201.455 190.656V198H199.439ZM205.541 198V193.392L207.557 192.852V198H205.541ZM211.661 198V193.392L213.659 192.852V198H211.661ZM205.541 193.392C205.541 192.672 205.457 192.12 205.289 191.736C205.133 191.34 204.905 191.064 204.605 190.908C204.317 190.752 203.975 190.674 203.579 190.674C202.907 190.662 202.385 190.884 202.013 191.34C201.641 191.796 201.455 192.45 201.455 193.302H200.699C200.699 192.354 200.837 191.544 201.113 190.872C201.389 190.188 201.785 189.672 202.301 189.324C202.817 188.964 203.429 188.784 204.137 188.784C205.229 188.784 206.069 189.12 206.657 189.792C207.257 190.452 207.557 191.472 207.557 192.852L205.541 193.392ZM211.661 193.392C211.661 192.672 211.577 192.12 211.409 191.736C211.241 191.34 211.007 191.064 210.707 190.908C210.419 190.752 210.083 190.674 209.699 190.674C209.015 190.662 208.487 190.884 208.115 191.34C207.743 191.796 207.557 192.45 207.557 193.302H206.801C206.801 192.354 206.939 191.544 207.215 190.872C207.491 190.188 207.887 189.672 208.403 189.324C208.919 188.964 209.531 188.784 210.239 188.784C211.331 188.784 212.177 189.12 212.777 189.792C213.377 190.452 213.671 191.472 213.659 192.852L211.661 193.392ZM221.171 198L221.081 196.308V193.374C221.081 192.762 221.015 192.252 220.883 191.844C220.751 191.436 220.541 191.124 220.253 190.908C219.977 190.692 219.611 190.584 219.155 190.584C218.735 190.584 218.363 190.674 218.039 190.854C217.715 191.034 217.445 191.31 217.229 191.682L215.393 191.034C215.597 190.638 215.861 190.266 216.185 189.918C216.509 189.57 216.917 189.294 217.409 189.09C217.913 188.886 218.507 188.784 219.191 188.784C220.067 188.784 220.793 188.946 221.369 189.27C221.957 189.594 222.395 190.074 222.683 190.71C222.971 191.346 223.115 192.132 223.115 193.068L223.061 198H221.171ZM218.615 198.216C217.535 198.216 216.695 197.976 216.095 197.496C215.507 197.016 215.213 196.338 215.213 195.462C215.213 194.526 215.525 193.812 216.149 193.32C216.785 192.828 217.667 192.582 218.795 192.582H221.207V194.13H219.443C218.639 194.13 218.075 194.244 217.751 194.472C217.427 194.688 217.265 195 217.265 195.408C217.265 195.756 217.403 196.032 217.679 196.236C217.967 196.428 218.363 196.524 218.867 196.524C219.311 196.524 219.695 196.422 220.019 196.218C220.355 196.002 220.613 195.726 220.793 195.39C220.985 195.042 221.081 194.67 221.081 194.274H221.819C221.819 195.498 221.555 196.464 221.027 197.172C220.511 197.868 219.707 198.216 218.615 198.216ZM226.488 193.212C226.488 192.24 226.674 191.442 227.046 190.818C227.418 190.194 227.898 189.732 228.486 189.432C229.086 189.12 229.71 188.964 230.358 188.964V190.89C229.806 190.89 229.284 190.968 228.792 191.124C228.312 191.268 227.922 191.508 227.622 191.844C227.322 192.18 227.172 192.624 227.172 193.176L226.488 193.212ZM225.156 198V189H227.172V198H225.156ZM233.621 195.48L232.397 194.094L237.077 189H239.507L233.621 195.48ZM231.695 198V185.4H233.711V198H231.695ZM237.419 198L234.251 193.338L235.565 191.934L239.813 198H237.419ZM247.024 198L246.916 196.344V189H248.914V198H247.024ZM240.796 194.148V189H242.812V193.608L240.796 194.148ZM242.812 193.608C242.812 194.316 242.896 194.868 243.064 195.264C243.232 195.66 243.46 195.936 243.748 196.092C244.048 196.248 244.39 196.326 244.774 196.326C245.458 196.338 245.986 196.116 246.358 195.66C246.73 195.204 246.916 194.55 246.916 193.698H247.672C247.672 194.646 247.528 195.462 247.24 196.146C246.964 196.818 246.568 197.334 246.052 197.694C245.548 198.042 244.942 198.216 244.234 198.216C243.142 198.216 242.296 197.88 241.696 197.208C241.096 196.536 240.796 195.516 240.796 194.148L242.812 193.608ZM251.244 201.6V189H253.134L253.26 190.656V201.6H251.244ZM256.104 198.216C255.348 198.216 254.694 198.024 254.142 197.64C253.602 197.244 253.188 196.692 252.9 195.984C252.612 195.276 252.468 194.448 252.468 193.5C252.468 192.54 252.612 191.712 252.9 191.016C253.188 190.308 253.602 189.762 254.142 189.378C254.694 188.982 255.348 188.784 256.104 188.784C256.92 188.784 257.628 188.982 258.228 189.378C258.84 189.762 259.314 190.308 259.65 191.016C259.998 191.712 260.172 192.54 260.172 193.5C260.172 194.448 259.998 195.276 259.65 195.984C259.314 196.692 258.84 197.244 258.228 197.64C257.628 198.024 256.92 198.216 256.104 198.216ZM255.6 196.38C256.08 196.38 256.506 196.26 256.878 196.02C257.25 195.768 257.544 195.426 257.76 194.994C257.988 194.562 258.102 194.064 258.102 193.5C258.102 192.936 257.994 192.438 257.778 192.006C257.574 191.574 257.286 191.238 256.914 190.998C256.542 190.758 256.11 190.638 255.618 190.638C255.162 190.638 254.754 190.758 254.394 190.998C254.034 191.238 253.752 191.574 253.548 192.006C253.356 192.438 253.26 192.936 253.26 193.5C253.26 194.064 253.356 194.562 253.548 194.994C253.752 195.426 254.028 195.768 254.376 196.02C254.736 196.26 255.144 196.38 255.6 196.38Z" fill="#00344D"/>
<path d="M428 293H628C642.912 293 655 305.088 655 320C655 334.912 642.912 347 628 347H428C413.088 347 401 334.912 401 320C401 305.088 413.088 293 428 293Z" fill="#E5F2FF"/>
<path d="M428 293H628C642.912 293 655 305.088 655 320C655 334.912 642.912 347 628 347H428C413.088 347 401 334.912 401 320C401 305.088 413.088 293 428 293Z" stroke="#87CEFF" stroke-width="2"/>
<path d="M466.308 326.252C465.312 326.252 464.436 326.054 463.68 325.658C462.936 325.25 462.354 324.68 461.934 323.948C461.526 323.216 461.322 322.364 461.322 321.392H463.41C463.41 321.98 463.53 322.496 463.77 322.94C464.022 323.372 464.37 323.714 464.814 323.966C465.258 324.206 465.768 324.326 466.344 324.326C466.932 324.326 467.448 324.206 467.892 323.966C468.348 323.714 468.696 323.372 468.936 322.94C469.176 322.496 469.296 321.98 469.296 321.392H471.384C471.384 322.364 471.174 323.216 470.754 323.948C470.346 324.68 469.758 325.25 468.99 325.658C468.234 326.054 467.34 326.252 466.308 326.252ZM461.322 321.392V313.4H463.41V321.392H461.322ZM469.296 321.392V313.4H471.384V321.392H469.296ZM477.091 326.216C476.491 326.216 475.939 326.126 475.435 325.946C474.931 325.766 474.499 325.514 474.139 325.19C473.779 324.854 473.503 324.464 473.311 324.02L475.057 323.246C475.237 323.582 475.501 323.864 475.849 324.092C476.209 324.32 476.605 324.434 477.037 324.434C477.505 324.434 477.877 324.356 478.153 324.2C478.441 324.032 478.585 323.804 478.585 323.516C478.585 323.24 478.477 323.03 478.261 322.886C478.045 322.73 477.739 322.604 477.343 322.508L476.497 322.274C475.645 322.058 474.979 321.716 474.499 321.248C474.019 320.768 473.779 320.222 473.779 319.61C473.779 318.71 474.067 318.014 474.643 317.522C475.231 317.03 476.071 316.784 477.163 316.784C477.715 316.784 478.219 316.868 478.675 317.036C479.143 317.192 479.545 317.42 479.881 317.72C480.217 318.008 480.451 318.35 480.583 318.746L478.909 319.502C478.789 319.202 478.561 318.974 478.225 318.818C477.889 318.65 477.517 318.566 477.109 318.566C476.701 318.566 476.383 318.656 476.155 318.836C475.927 319.004 475.813 319.244 475.813 319.556C475.813 319.736 475.915 319.904 476.119 320.06C476.323 320.204 476.617 320.324 477.001 320.42L478.063 320.672C478.651 320.816 479.131 321.044 479.503 321.356C479.875 321.656 480.151 321.998 480.331 322.382C480.511 322.754 480.601 323.132 480.601 323.516C480.601 324.056 480.445 324.53 480.133 324.938C479.833 325.346 479.419 325.664 478.891 325.892C478.363 326.108 477.763 326.216 477.091 326.216ZM486.214 326.216C485.338 326.216 484.558 326.018 483.874 325.622C483.202 325.214 482.668 324.656 482.272 323.948C481.888 323.24 481.696 322.424 481.696 321.5C481.696 320.576 481.894 319.76 482.29 319.052C482.686 318.344 483.226 317.792 483.91 317.396C484.606 316.988 485.398 316.784 486.286 316.784C487.09 316.784 487.81 316.994 488.446 317.414C489.094 317.822 489.61 318.416 489.994 319.196C490.378 319.976 490.57 320.906 490.57 321.986H488.536C488.536 321.206 488.44 320.564 488.248 320.06C488.068 319.556 487.804 319.184 487.456 318.944C487.12 318.692 486.706 318.566 486.214 318.566C485.698 318.566 485.254 318.68 484.882 318.908C484.51 319.136 484.228 319.472 484.036 319.916C483.844 320.348 483.748 320.894 483.748 321.554C483.748 322.142 483.862 322.646 484.09 323.066C484.33 323.486 484.648 323.81 485.044 324.038C485.452 324.254 485.902 324.362 486.394 324.362C486.934 324.362 487.378 324.242 487.726 324.002C488.074 323.75 488.344 323.432 488.536 323.048L490.39 323.84C490.138 324.32 489.814 324.74 489.418 325.1C489.034 325.46 488.572 325.736 488.032 325.928C487.504 326.12 486.898 326.216 486.214 326.216ZM483.028 321.986V320.384H489.508V321.986H483.028ZM493.446 321.212C493.446 320.24 493.632 319.442 494.004 318.818C494.376 318.194 494.856 317.732 495.444 317.432C496.044 317.12 496.668 316.964 497.316 316.964V318.89C496.764 318.89 496.242 318.968 495.75 319.124C495.27 319.268 494.88 319.508 494.58 319.844C494.28 320.18 494.13 320.624 494.13 321.176L493.446 321.212ZM492.114 326V317H494.13V326H492.114ZM503.085 329.6V317H504.975L505.101 318.656V329.6H503.085ZM507.945 326.216C507.189 326.216 506.535 326.024 505.983 325.64C505.443 325.244 505.029 324.692 504.741 323.984C504.453 323.276 504.309 322.448 504.309 321.5C504.309 320.54 504.453 319.712 504.741 319.016C505.029 318.308 505.443 317.762 505.983 317.378C506.535 316.982 507.189 316.784 507.945 316.784C508.761 316.784 509.469 316.982 510.069 317.378C510.681 317.762 511.155 318.308 511.491 319.016C511.839 319.712 512.013 320.54 512.013 321.5C512.013 322.448 511.839 323.276 511.491 323.984C511.155 324.692 510.681 325.244 510.069 325.64C509.469 326.024 508.761 326.216 507.945 326.216ZM507.441 324.38C507.921 324.38 508.347 324.26 508.719 324.02C509.091 323.768 509.385 323.426 509.601 322.994C509.829 322.562 509.943 322.064 509.943 321.5C509.943 320.936 509.835 320.438 509.619 320.006C509.415 319.574 509.127 319.238 508.755 318.998C508.383 318.758 507.951 318.638 507.459 318.638C507.003 318.638 506.595 318.758 506.235 318.998C505.875 319.238 505.593 319.574 505.389 320.006C505.197 320.438 505.101 320.936 505.101 321.5C505.101 322.064 505.197 322.562 505.389 322.994C505.593 323.426 505.869 323.768 506.217 324.02C506.577 324.26 506.985 324.38 507.441 324.38ZM515.067 321.212C515.067 320.24 515.253 319.442 515.625 318.818C515.997 318.194 516.477 317.732 517.065 317.432C517.665 317.12 518.289 316.964 518.937 316.964V318.89C518.385 318.89 517.863 318.968 517.371 319.124C516.891 319.268 516.501 319.508 516.201 319.844C515.901 320.18 515.751 320.624 515.751 321.176L515.067 321.212ZM513.735 326V317H515.751V326H513.735ZM524.414 326.216C523.514 326.216 522.71 326.018 522.002 325.622C521.306 325.214 520.76 324.656 520.364 323.948C519.968 323.24 519.77 322.424 519.77 321.5C519.77 320.576 519.962 319.76 520.346 319.052C520.742 318.344 521.288 317.792 521.984 317.396C522.68 316.988 523.478 316.784 524.378 316.784C525.278 316.784 526.076 316.988 526.772 317.396C527.468 317.792 528.008 318.344 528.392 319.052C528.788 319.76 528.986 320.576 528.986 321.5C528.986 322.424 528.794 323.24 528.41 323.948C528.026 324.656 527.486 325.214 526.79 325.622C526.094 326.018 525.302 326.216 524.414 326.216ZM524.414 324.362C524.906 324.362 525.344 324.242 525.728 324.002C526.112 323.75 526.412 323.414 526.628 322.994C526.844 322.562 526.952 322.064 526.952 321.5C526.952 320.936 526.838 320.444 526.61 320.024C526.394 319.592 526.094 319.256 525.71 319.016C525.326 318.764 524.882 318.638 524.378 318.638C523.874 318.638 523.43 318.758 523.046 318.998C522.662 319.238 522.362 319.574 522.146 320.006C521.93 320.438 521.822 320.936 521.822 321.5C521.822 322.064 521.93 322.562 522.146 322.994C522.374 323.414 522.68 323.75 523.064 324.002C523.46 324.242 523.91 324.362 524.414 324.362ZM531.633 326V316.046C531.633 315.098 531.867 314.372 532.335 313.868C532.815 313.352 533.535 313.094 534.495 313.094C534.807 313.094 535.137 313.148 535.485 313.256C535.845 313.352 536.187 313.484 536.511 313.652L535.773 315.146C535.545 315.038 535.341 314.96 535.161 314.912C534.993 314.864 534.843 314.84 534.711 314.84C534.351 314.84 534.081 314.96 533.901 315.2C533.733 315.428 533.649 315.806 533.649 316.334V326H531.633ZM530.085 318.656V317H536.007V318.656H530.085ZM537.767 326L537.785 317H539.783L539.765 326H537.767ZM538.775 315.29C538.451 315.29 538.169 315.176 537.929 314.948C537.701 314.708 537.587 314.426 537.587 314.102C537.587 313.778 537.701 313.502 537.929 313.274C538.169 313.046 538.451 312.932 538.775 312.932C539.099 312.932 539.375 313.046 539.603 313.274C539.843 313.502 539.963 313.778 539.963 314.102C539.963 314.426 539.843 314.708 539.603 314.948C539.375 315.176 539.099 315.29 538.775 315.29ZM542.141 326V313.4H544.157V326H542.141ZM550.409 326.216C549.533 326.216 548.753 326.018 548.069 325.622C547.397 325.214 546.863 324.656 546.467 323.948C546.083 323.24 545.891 322.424 545.891 321.5C545.891 320.576 546.089 319.76 546.485 319.052C546.881 318.344 547.421 317.792 548.105 317.396C548.801 316.988 549.593 316.784 550.481 316.784C551.285 316.784 552.005 316.994 552.641 317.414C553.289 317.822 553.805 318.416 554.189 319.196C554.573 319.976 554.765 320.906 554.765 321.986H552.731C552.731 321.206 552.635 320.564 552.443 320.06C552.263 319.556 551.999 319.184 551.651 318.944C551.315 318.692 550.901 318.566 550.409 318.566C549.893 318.566 549.449 318.68 549.077 318.908C548.705 319.136 548.423 319.472 548.231 319.916C548.039 320.348 547.943 320.894 547.943 321.554C547.943 322.142 548.057 322.646 548.285 323.066C548.525 323.486 548.843 323.81 549.239 324.038C549.647 324.254 550.097 324.362 550.589 324.362C551.129 324.362 551.573 324.242 551.921 324.002C552.269 323.75 552.539 323.432 552.731 323.048L554.585 323.84C554.333 324.32 554.009 324.74 553.613 325.1C553.229 325.46 552.767 325.736 552.227 325.928C551.699 326.12 551.093 326.216 550.409 326.216ZM547.223 321.986V320.384H553.703V321.986H547.223ZM567.149 326L567.059 324.326V313.4H569.057V326H567.149ZM564.215 326.216C563.399 326.216 562.685 326.024 562.073 325.64C561.473 325.244 560.999 324.692 560.651 323.984C560.315 323.276 560.147 322.448 560.147 321.5C560.147 320.54 560.315 319.712 560.651 319.016C560.999 318.308 561.473 317.762 562.073 317.378C562.685 316.982 563.399 316.784 564.215 316.784C564.971 316.784 565.619 316.982 566.159 317.378C566.711 317.762 567.131 318.308 567.419 319.016C567.707 319.712 567.851 320.54 567.851 321.5C567.851 322.448 567.707 323.276 567.419 323.984C567.131 324.692 566.711 325.244 566.159 325.64C565.619 326.024 564.971 326.216 564.215 326.216ZM564.719 324.38C565.175 324.38 565.577 324.26 565.925 324.02C566.285 323.768 566.561 323.426 566.753 322.994C566.957 322.562 567.059 322.064 567.059 321.5C567.059 320.936 566.957 320.438 566.753 320.006C566.561 319.574 566.285 319.238 565.925 318.998C565.577 318.758 565.169 318.638 564.701 318.638C564.221 318.638 563.795 318.758 563.423 318.998C563.051 319.238 562.757 319.574 562.541 320.006C562.337 320.438 562.229 320.936 562.217 321.5C562.229 322.064 562.337 322.562 562.541 322.994C562.757 323.426 563.051 323.768 563.423 324.02C563.807 324.26 564.239 324.38 564.719 324.38ZM576.74 326L576.65 324.308V321.374C576.65 320.762 576.584 320.252 576.452 319.844C576.32 319.436 576.11 319.124 575.822 318.908C575.546 318.692 575.18 318.584 574.724 318.584C574.304 318.584 573.932 318.674 573.608 318.854C573.284 319.034 573.014 319.31 572.798 319.682L570.962 319.034C571.166 318.638 571.43 318.266 571.754 317.918C572.078 317.57 572.486 317.294 572.978 317.09C573.482 316.886 574.076 316.784 574.76 316.784C575.636 316.784 576.362 316.946 576.938 317.27C577.526 317.594 577.964 318.074 578.252 318.71C578.54 319.346 578.684 320.132 578.684 321.068L578.63 326H576.74ZM574.184 326.216C573.104 326.216 572.264 325.976 571.664 325.496C571.076 325.016 570.782 324.338 570.782 323.462C570.782 322.526 571.094 321.812 571.718 321.32C572.354 320.828 573.236 320.582 574.364 320.582H576.776V322.13H575.012C574.208 322.13 573.644 322.244 573.32 322.472C572.996 322.688 572.834 323 572.834 323.408C572.834 323.756 572.972 324.032 573.248 324.236C573.536 324.428 573.932 324.524 574.436 324.524C574.88 324.524 575.264 324.422 575.588 324.218C575.924 324.002 576.182 323.726 576.362 323.39C576.554 323.042 576.65 322.67 576.65 322.274H577.388C577.388 323.498 577.124 324.464 576.596 325.172C576.08 325.868 575.276 326.216 574.184 326.216ZM584.307 326.216C583.359 326.216 582.633 325.982 582.129 325.514C581.637 325.034 581.391 324.35 581.391 323.462V314.192H583.389V323.084C583.389 323.504 583.485 323.822 583.677 324.038C583.881 324.254 584.175 324.362 584.559 324.362C584.679 324.362 584.811 324.338 584.955 324.29C585.099 324.242 585.261 324.152 585.441 324.02L586.179 325.55C585.867 325.766 585.555 325.928 585.243 326.036C584.931 326.156 584.619 326.216 584.307 326.216ZM579.897 318.728V317H585.819V318.728H579.897ZM593.123 326L593.033 324.308V321.374C593.033 320.762 592.967 320.252 592.835 319.844C592.703 319.436 592.493 319.124 592.205 318.908C591.929 318.692 591.563 318.584 591.107 318.584C590.687 318.584 590.315 318.674 589.991 318.854C589.667 319.034 589.397 319.31 589.181 319.682L587.345 319.034C587.549 318.638 587.813 318.266 588.137 317.918C588.461 317.57 588.869 317.294 589.361 317.09C589.865 316.886 590.459 316.784 591.143 316.784C592.019 316.784 592.745 316.946 593.321 317.27C593.909 317.594 594.347 318.074 594.635 318.71C594.923 319.346 595.067 320.132 595.067 321.068L595.013 326H593.123ZM590.567 326.216C589.487 326.216 588.647 325.976 588.047 325.496C587.459 325.016 587.165 324.338 587.165 323.462C587.165 322.526 587.477 321.812 588.101 321.32C588.737 320.828 589.619 320.582 590.747 320.582H593.159V322.13H591.395C590.591 322.13 590.027 322.244 589.703 322.472C589.379 322.688 589.217 323 589.217 323.408C589.217 323.756 589.355 324.032 589.631 324.236C589.919 324.428 590.315 324.524 590.819 324.524C591.263 324.524 591.647 324.422 591.971 324.218C592.307 324.002 592.565 323.726 592.745 323.39C592.937 323.042 593.033 322.67 593.033 322.274H593.771C593.771 323.498 593.507 324.464 592.979 325.172C592.463 325.868 591.659 326.216 590.567 326.216Z" fill="#00344D"/>
<path d="M748 425H948C962.912 425 975 437.088 975 452C975 466.912 962.912 479 948 479H748C733.088 479 721 466.912 721 452C721 437.088 733.088 425 748 425Z" fill="#E5F2FF"/>
<path d="M748 425H948C962.912 425 975 437.088 975 452C975 466.912 962.912 479 948 479H748C733.088 479 721 466.912 721 452C721 437.088 733.088 425 748 425Z" stroke="#87CEFF" stroke-width="2"/>
<path d="M785.797 458.252C784.801 458.252 783.925 458.054 783.169 457.658C782.425 457.25 781.843 456.68 781.423 455.948C781.015 455.216 780.811 454.364 780.811 453.392H782.899C782.899 453.98 783.019 454.496 783.259 454.94C783.511 455.372 783.859 455.714 784.303 455.966C784.747 456.206 785.257 456.326 785.833 456.326C786.421 456.326 786.937 456.206 787.381 455.966C787.837 455.714 788.185 455.372 788.425 454.94C788.665 454.496 788.785 453.98 788.785 453.392H790.873C790.873 454.364 790.663 455.216 790.243 455.948C789.835 456.68 789.247 457.25 788.479 457.658C787.723 458.054 786.829 458.252 785.797 458.252ZM780.811 453.392V445.4H782.899V453.392H780.811ZM788.785 453.392V445.4H790.873V453.392H788.785ZM796.58 458.216C795.98 458.216 795.428 458.126 794.924 457.946C794.42 457.766 793.988 457.514 793.628 457.19C793.268 456.854 792.992 456.464 792.8 456.02L794.546 455.246C794.726 455.582 794.99 455.864 795.338 456.092C795.698 456.32 796.094 456.434 796.526 456.434C796.994 456.434 797.366 456.356 797.642 456.2C797.93 456.032 798.074 455.804 798.074 455.516C798.074 455.24 797.966 455.03 797.75 454.886C797.534 454.73 797.228 454.604 796.832 454.508L795.986 454.274C795.134 454.058 794.468 453.716 793.988 453.248C793.508 452.768 793.268 452.222 793.268 451.61C793.268 450.71 793.556 450.014 794.132 449.522C794.72 449.03 795.56 448.784 796.652 448.784C797.204 448.784 797.708 448.868 798.164 449.036C798.632 449.192 799.034 449.42 799.37 449.72C799.706 450.008 799.94 450.35 800.072 450.746L798.398 451.502C798.278 451.202 798.05 450.974 797.714 450.818C797.378 450.65 797.006 450.566 796.598 450.566C796.19 450.566 795.872 450.656 795.644 450.836C795.416 451.004 795.302 451.244 795.302 451.556C795.302 451.736 795.404 451.904 795.608 452.06C795.812 452.204 796.106 452.324 796.49 452.42L797.552 452.672C798.14 452.816 798.62 453.044 798.992 453.356C799.364 453.656 799.64 453.998 799.82 454.382C800 454.754 800.09 455.132 800.09 455.516C800.09 456.056 799.934 456.53 799.622 456.938C799.322 457.346 798.908 457.664 798.38 457.892C797.852 458.108 797.252 458.216 796.58 458.216ZM805.703 458.216C804.827 458.216 804.047 458.018 803.363 457.622C802.691 457.214 802.157 456.656 801.761 455.948C801.377 455.24 801.185 454.424 801.185 453.5C801.185 452.576 801.383 451.76 801.779 451.052C802.175 450.344 802.715 449.792 803.399 449.396C804.095 448.988 804.887 448.784 805.775 448.784C806.579 448.784 807.299 448.994 807.935 449.414C808.583 449.822 809.099 450.416 809.483 451.196C809.867 451.976 810.059 452.906 810.059 453.986H808.025C808.025 453.206 807.929 452.564 807.737 452.06C807.557 451.556 807.293 451.184 806.945 450.944C806.609 450.692 806.195 450.566 805.703 450.566C805.187 450.566 804.743 450.68 804.371 450.908C803.999 451.136 803.717 451.472 803.525 451.916C803.333 452.348 803.237 452.894 803.237 453.554C803.237 454.142 803.351 454.646 803.579 455.066C803.819 455.486 804.137 455.81 804.533 456.038C804.941 456.254 805.391 456.362 805.883 456.362C806.423 456.362 806.867 456.242 807.215 456.002C807.563 455.75 807.833 455.432 808.025 455.048L809.879 455.84C809.627 456.32 809.303 456.74 808.907 457.1C808.523 457.46 808.061 457.736 807.521 457.928C806.993 458.12 806.387 458.216 805.703 458.216ZM802.517 453.986V452.384H808.997V453.986H802.517ZM812.935 453.212C812.935 452.24 813.121 451.442 813.493 450.818C813.865 450.194 814.345 449.732 814.933 449.432C815.533 449.12 816.157 448.964 816.805 448.964V450.89C816.253 450.89 815.731 450.968 815.239 451.124C814.759 451.268 814.369 451.508 814.069 451.844C813.769 452.18 813.619 452.624 813.619 453.176L812.935 453.212ZM811.603 458V449H813.619V458H811.603ZM817.278 449.486L818.358 445.4H820.482L818.862 449.486H817.278ZM823.704 458.216C823.104 458.216 822.552 458.126 822.048 457.946C821.544 457.766 821.112 457.514 820.752 457.19C820.392 456.854 820.116 456.464 819.924 456.02L821.67 455.246C821.85 455.582 822.114 455.864 822.462 456.092C822.822 456.32 823.218 456.434 823.65 456.434C824.118 456.434 824.49 456.356 824.766 456.2C825.054 456.032 825.198 455.804 825.198 455.516C825.198 455.24 825.09 455.03 824.874 454.886C824.658 454.73 824.352 454.604 823.956 454.508L823.11 454.274C822.258 454.058 821.592 453.716 821.112 453.248C820.632 452.768 820.392 452.222 820.392 451.61C820.392 450.71 820.68 450.014 821.256 449.522C821.844 449.03 822.684 448.784 823.776 448.784C824.328 448.784 824.832 448.868 825.288 449.036C825.756 449.192 826.158 449.42 826.494 449.72C826.83 450.008 827.064 450.35 827.196 450.746L825.522 451.502C825.402 451.202 825.174 450.974 824.838 450.818C824.502 450.65 824.13 450.566 823.722 450.566C823.314 450.566 822.996 450.656 822.768 450.836C822.54 451.004 822.426 451.244 822.426 451.556C822.426 451.736 822.528 451.904 822.732 452.06C822.936 452.204 823.23 452.324 823.614 452.42L824.676 452.672C825.264 452.816 825.744 453.044 826.116 453.356C826.488 453.656 826.764 453.998 826.944 454.382C827.124 454.754 827.214 455.132 827.214 455.516C827.214 456.056 827.058 456.53 826.746 456.938C826.446 457.346 826.032 457.664 825.504 457.892C824.976 458.108 824.376 458.216 823.704 458.216ZM833.154 458V445.4H835.17V456.326L835.062 458H833.154ZM838.014 458.216C837.258 458.216 836.604 458.024 836.052 457.64C835.512 457.244 835.098 456.692 834.81 455.984C834.522 455.276 834.378 454.448 834.378 453.5C834.378 452.54 834.522 451.712 834.81 451.016C835.098 450.308 835.512 449.762 836.052 449.378C836.604 448.982 837.258 448.784 838.014 448.784C838.83 448.784 839.538 448.982 840.138 449.378C840.75 449.762 841.224 450.308 841.56 451.016C841.908 451.712 842.082 452.54 842.082 453.5C842.082 454.448 841.908 455.276 841.56 455.984C841.224 456.692 840.75 457.244 840.138 457.64C839.538 458.024 838.83 458.216 838.014 458.216ZM837.51 456.38C837.99 456.38 838.416 456.26 838.788 456.02C839.16 455.768 839.454 455.426 839.67 454.994C839.898 454.562 840.012 454.064 840.012 453.5C840.012 452.936 839.904 452.438 839.688 452.006C839.484 451.574 839.196 451.238 838.824 450.998C838.452 450.758 838.02 450.638 837.528 450.638C837.072 450.638 836.664 450.758 836.304 450.998C835.944 451.238 835.662 451.574 835.458 452.006C835.266 452.438 835.17 452.936 835.17 453.5C835.17 454.064 835.266 454.562 835.458 454.994C835.662 455.426 835.938 455.768 836.286 456.02C836.646 456.26 837.054 456.38 837.51 456.38ZM843.806 458V445.4H845.822V458H843.806ZM852.2 458.216C851.3 458.216 850.496 458.018 849.788 457.622C849.092 457.214 848.546 456.656 848.15 455.948C847.754 455.24 847.556 454.424 847.556 453.5C847.556 452.576 847.748 451.76 848.132 451.052C848.528 450.344 849.074 449.792 849.77 449.396C850.466 448.988 851.264 448.784 852.164 448.784C853.064 448.784 853.862 448.988 854.558 449.396C855.254 449.792 855.794 450.344 856.178 451.052C856.574 451.76 856.772 452.576 856.772 453.5C856.772 454.424 856.58 455.24 856.196 455.948C855.812 456.656 855.272 457.214 854.576 457.622C853.88 458.018 853.088 458.216 852.2 458.216ZM852.2 456.362C852.692 456.362 853.13 456.242 853.514 456.002C853.898 455.75 854.198 455.414 854.414 454.994C854.63 454.562 854.738 454.064 854.738 453.5C854.738 452.936 854.624 452.444 854.396 452.024C854.18 451.592 853.88 451.256 853.496 451.016C853.112 450.764 852.668 450.638 852.164 450.638C851.66 450.638 851.216 450.758 850.832 450.998C850.448 451.238 850.148 451.574 849.932 452.006C849.716 452.438 849.608 452.936 849.608 453.5C849.608 454.064 849.716 454.562 849.932 454.994C850.16 455.414 850.466 455.75 850.85 456.002C851.246 456.242 851.696 456.362 852.2 456.362ZM862.389 461.834C861.753 461.834 861.177 461.78 860.661 461.672C860.157 461.564 859.731 461.438 859.383 461.294C859.035 461.15 858.765 461.012 858.573 460.88L859.347 459.26C859.515 459.344 859.737 459.446 860.013 459.566C860.301 459.698 860.637 459.812 861.021 459.908C861.405 460.004 861.837 460.052 862.317 460.052C862.833 460.052 863.295 459.944 863.703 459.728C864.111 459.524 864.429 459.206 864.657 458.774C864.885 458.342 864.999 457.79 864.999 457.118V449H867.015V457.064C867.015 458.084 866.823 458.948 866.439 459.656C866.055 460.376 865.515 460.916 864.819 461.276C864.123 461.648 863.313 461.834 862.389 461.834ZM862.083 457.82C861.267 457.82 860.553 457.634 859.941 457.262C859.341 456.89 858.867 456.374 858.519 455.714C858.183 455.042 858.015 454.268 858.015 453.392C858.015 452.456 858.183 451.646 858.519 450.962C858.867 450.278 859.341 449.744 859.941 449.36C860.553 448.976 861.267 448.784 862.083 448.784C862.815 448.784 863.451 448.976 863.991 449.36C864.543 449.744 864.969 450.284 865.269 450.98C865.569 451.664 865.719 452.474 865.719 453.41C865.719 454.298 865.569 455.072 865.269 455.732C864.969 456.392 864.543 456.908 863.991 457.28C863.451 457.64 862.815 457.82 862.083 457.82ZM862.641 456.11C863.097 456.11 863.493 455.99 863.829 455.75C864.177 455.51 864.447 455.186 864.639 454.778C864.831 454.358 864.927 453.878 864.927 453.338C864.927 452.786 864.831 452.306 864.639 451.898C864.447 451.478 864.177 451.154 863.829 450.926C863.481 450.686 863.079 450.566 862.623 450.566C862.143 450.566 861.717 450.686 861.345 450.926C860.985 451.154 860.697 451.478 860.481 451.898C860.277 452.306 860.175 452.786 860.175 453.338C860.175 453.878 860.277 454.358 860.481 454.778C860.697 455.186 860.991 455.51 861.363 455.75C861.735 455.99 862.161 456.11 862.641 456.11ZM873.674 461.6V449H875.564L875.69 450.656V461.6H873.674ZM878.534 458.216C877.778 458.216 877.124 458.024 876.572 457.64C876.032 457.244 875.618 456.692 875.33 455.984C875.042 455.276 874.898 454.448 874.898 453.5C874.898 452.54 875.042 451.712 875.33 451.016C875.618 450.308 876.032 449.762 876.572 449.378C877.124 448.982 877.778 448.784 878.534 448.784C879.35 448.784 880.058 448.982 880.658 449.378C881.27 449.762 881.744 450.308 882.08 451.016C882.428 451.712 882.602 452.54 882.602 453.5C882.602 454.448 882.428 455.276 882.08 455.984C881.744 456.692 881.27 457.244 880.658 457.64C880.058 458.024 879.35 458.216 878.534 458.216ZM878.03 456.38C878.51 456.38 878.936 456.26 879.308 456.02C879.68 455.768 879.974 455.426 880.19 454.994C880.418 454.562 880.532 454.064 880.532 453.5C880.532 452.936 880.424 452.438 880.208 452.006C880.004 451.574 879.716 451.238 879.344 450.998C878.972 450.758 878.54 450.638 878.048 450.638C877.592 450.638 877.184 450.758 876.824 450.998C876.464 451.238 876.182 451.574 875.978 452.006C875.786 452.438 875.69 452.936 875.69 453.5C875.69 454.064 875.786 454.562 875.978 454.994C876.182 455.426 876.458 455.768 876.806 456.02C877.166 456.26 877.574 456.38 878.03 456.38ZM888.464 458.216C887.564 458.216 886.76 458.018 886.052 457.622C885.356 457.214 884.81 456.656 884.414 455.948C884.018 455.24 883.82 454.424 883.82 453.5C883.82 452.576 884.012 451.76 884.396 451.052C884.792 450.344 885.338 449.792 886.034 449.396C886.73 448.988 887.528 448.784 888.428 448.784C889.328 448.784 890.126 448.988 890.822 449.396C891.518 449.792 892.058 450.344 892.442 451.052C892.838 451.76 893.036 452.576 893.036 453.5C893.036 454.424 892.844 455.24 892.46 455.948C892.076 456.656 891.536 457.214 890.84 457.622C890.144 458.018 889.352 458.216 888.464 458.216ZM888.464 456.362C888.956 456.362 889.394 456.242 889.778 456.002C890.162 455.75 890.462 455.414 890.678 454.994C890.894 454.562 891.002 454.064 891.002 453.5C891.002 452.936 890.888 452.444 890.66 452.024C890.444 451.592 890.144 451.256 889.76 451.016C889.376 450.764 888.932 450.638 888.428 450.638C887.924 450.638 887.48 450.758 887.096 450.998C886.712 451.238 886.412 451.574 886.196 452.006C885.98 452.438 885.872 452.936 885.872 453.5C885.872 454.064 885.98 454.562 886.196 454.994C886.424 455.414 886.73 455.75 887.114 456.002C887.51 456.242 887.96 456.362 888.464 456.362ZM898.059 458.216C897.459 458.216 896.907 458.126 896.403 457.946C895.899 457.766 895.467 457.514 895.107 457.19C894.747 456.854 894.471 456.464 894.279 456.02L896.025 455.246C896.205 455.582 896.469 455.864 896.817 456.092C897.177 456.32 897.573 456.434 898.005 456.434C898.473 456.434 898.845 456.356 899.121 456.2C899.409 456.032 899.553 455.804 899.553 455.516C899.553 455.24 899.445 455.03 899.229 454.886C899.013 454.73 898.707 454.604 898.311 454.508L897.465 454.274C896.613 454.058 895.947 453.716 895.467 453.248C894.987 452.768 894.747 452.222 894.747 451.61C894.747 450.71 895.035 450.014 895.611 449.522C896.199 449.03 897.039 448.784 898.131 448.784C898.683 448.784 899.187 448.868 899.643 449.036C900.111 449.192 900.513 449.42 900.849 449.72C901.185 450.008 901.419 450.35 901.551 450.746L899.877 451.502C899.757 451.202 899.529 450.974 899.193 450.818C898.857 450.65 898.485 450.566 898.077 450.566C897.669 450.566 897.351 450.656 897.123 450.836C896.895 451.004 896.781 451.244 896.781 451.556C896.781 451.736 896.883 451.904 897.087 452.06C897.291 452.204 897.585 452.324 897.969 452.42L899.031 452.672C899.619 452.816 900.099 453.044 900.471 453.356C900.843 453.656 901.119 453.998 901.299 454.382C901.479 454.754 901.569 455.132 901.569 455.516C901.569 456.056 901.413 456.53 901.101 456.938C900.801 457.346 900.387 457.664 899.859 457.892C899.331 458.108 898.731 458.216 898.059 458.216ZM906.75 458.216C905.802 458.216 905.076 457.982 904.572 457.514C904.08 457.034 903.834 456.35 903.834 455.462V446.192H905.832V455.084C905.832 455.504 905.928 455.822 906.12 456.038C906.324 456.254 906.618 456.362 907.002 456.362C907.122 456.362 907.254 456.338 907.398 456.29C907.542 456.242 907.704 456.152 907.884 456.02L908.622 457.55C908.31 457.766 907.998 457.928 907.686 458.036C907.374 458.156 907.062 458.216 906.75 458.216ZM902.34 450.728V449H908.262V450.728H902.34ZM913.51 458.216C912.91 458.216 912.358 458.126 911.854 457.946C911.35 457.766 910.918 457.514 910.558 457.19C910.198 456.854 909.922 456.464 909.73 456.02L911.476 455.246C911.656 455.582 911.92 455.864 912.268 456.092C912.628 456.32 913.024 456.434 913.456 456.434C913.924 456.434 914.296 456.356 914.572 456.2C914.86 456.032 915.004 455.804 915.004 455.516C915.004 455.24 914.896 455.03 914.68 454.886C914.464 454.73 914.158 454.604 913.762 454.508L912.916 454.274C912.064 454.058 911.398 453.716 910.918 453.248C910.438 452.768 910.198 452.222 910.198 451.61C910.198 450.71 910.486 450.014 911.062 449.522C911.65 449.03 912.49 448.784 913.582 448.784C914.134 448.784 914.638 448.868 915.094 449.036C915.562 449.192 915.964 449.42 916.3 449.72C916.636 450.008 916.87 450.35 917.002 450.746L915.328 451.502C915.208 451.202 914.98 450.974 914.644 450.818C914.308 450.65 913.936 450.566 913.528 450.566C913.12 450.566 912.802 450.656 912.574 450.836C912.346 451.004 912.232 451.244 912.232 451.556C912.232 451.736 912.334 451.904 912.538 452.06C912.742 452.204 913.036 452.324 913.42 452.42L914.482 452.672C915.07 452.816 915.55 453.044 915.922 453.356C916.294 453.656 916.57 453.998 916.75 454.382C916.93 454.754 917.02 455.132 917.02 455.516C917.02 456.056 916.864 456.53 916.552 456.938C916.252 457.346 915.838 457.664 915.31 457.892C914.782 458.108 914.182 458.216 913.51 458.216Z" fill="#00344D"/>
<rect x="367" y="128" width="2" height="384" fill="#9AAEBC"/>
<rect x="687" y="128" width="2" height="384" fill="#9AAEBC"/>
<rect opacity="0.4" x="48" y="256" width="960" height="1" fill="#9AAEBC"/>
<rect opacity="0.4" x="48" y="384" width="960" height="1" fill="#9AAEBC"/>
</g>
<path d="M56 129H1000C1003.87 129 1007 132.134 1007 136V504C1007 507.866 1003.87 511 1000 511H56C52.134 511 49 507.866 49 504V136C49 132.134 52.134 129 56 129Z" stroke="#9AAEBC" stroke-width="2"/>
<path d="M183.951 562L183.969 550.516L184.167 549.4H185.985L185.967 562H183.951ZM181.233 553.09V551.2C181.509 551.212 181.821 551.134 182.169 550.966C182.529 550.786 182.883 550.552 183.231 550.264C183.579 549.976 183.891 549.682 184.167 549.382L185.463 550.732C185.043 551.176 184.605 551.584 184.149 551.956C183.693 552.328 183.219 552.616 182.727 552.82C182.247 553.024 181.749 553.114 181.233 553.09ZM193.634 562.216C192.65 562.216 191.774 561.94 191.006 561.388C190.238 560.824 189.632 560.056 189.188 559.084C188.756 558.1 188.54 556.972 188.54 555.7C188.54 554.428 188.756 553.306 189.188 552.334C189.632 551.35 190.232 550.582 190.988 550.03C191.756 549.466 192.638 549.184 193.634 549.184C194.63 549.184 195.512 549.466 196.28 550.03C197.048 550.582 197.648 551.35 198.08 552.334C198.524 553.306 198.746 554.428 198.746 555.7C198.746 556.972 198.524 558.1 198.08 559.084C197.648 560.056 197.048 560.824 196.28 561.388C195.524 561.94 194.642 562.216 193.634 562.216ZM193.652 560.326C194.24 560.326 194.762 560.128 195.218 559.732C195.686 559.336 196.046 558.79 196.298 558.094C196.562 557.398 196.694 556.6 196.694 555.7C196.694 554.8 196.562 554.002 196.298 553.306C196.046 552.598 195.686 552.046 195.218 551.65C194.762 551.254 194.234 551.056 193.634 551.056C193.034 551.056 192.506 551.254 192.05 551.65C191.594 552.046 191.234 552.592 190.97 553.288C190.718 553.984 190.592 554.788 190.592 555.7C190.592 556.6 190.718 557.398 190.97 558.094C191.234 558.79 191.594 559.336 192.05 559.732C192.518 560.128 193.052 560.326 193.652 560.326ZM205.235 562.216C204.251 562.216 203.375 561.94 202.607 561.388C201.839 560.824 201.233 560.056 200.789 559.084C200.357 558.1 200.141 556.972 200.141 555.7C200.141 554.428 200.357 553.306 200.789 552.334C201.233 551.35 201.833 550.582 202.589 550.03C203.357 549.466 204.239 549.184 205.235 549.184C206.231 549.184 207.113 549.466 207.881 550.03C208.649 550.582 209.249 551.35 209.681 552.334C210.125 553.306 210.347 554.428 210.347 555.7C210.347 556.972 210.125 558.1 209.681 559.084C209.249 560.056 208.649 560.824 207.881 561.388C207.125 561.94 206.243 562.216 205.235 562.216ZM205.253 560.326C205.841 560.326 206.363 560.128 206.819 559.732C207.287 559.336 207.647 558.79 207.899 558.094C208.163 557.398 208.295 556.6 208.295 555.7C208.295 554.8 208.163 554.002 207.899 553.306C207.647 552.598 207.287 552.046 206.819 551.65C206.363 551.254 205.835 551.056 205.235 551.056C204.635 551.056 204.107 551.254 203.651 551.65C203.195 552.046 202.835 552.592 202.571 553.288C202.319 553.984 202.193 554.788 202.193 555.7C202.193 556.6 202.319 557.398 202.571 558.094C202.835 558.79 203.195 559.336 203.651 559.732C204.119 560.128 204.653 560.326 205.253 560.326ZM212.157 562V553H214.047L214.173 554.656V562H212.157ZM218.259 562V557.392L220.275 556.852V562H218.259ZM224.379 562V557.392L226.377 556.852V562H224.379ZM218.259 557.392C218.259 556.672 218.175 556.12 218.007 555.736C217.851 555.34 217.623 555.064 217.323 554.908C217.035 554.752 216.693 554.674 216.297 554.674C215.625 554.662 215.103 554.884 214.731 555.34C214.359 555.796 214.173 556.45 214.173 557.302H213.417C213.417 556.354 213.555 555.544 213.831 554.872C214.107 554.188 214.503 553.672 215.019 553.324C215.535 552.964 216.147 552.784 216.855 552.784C217.947 552.784 218.787 553.12 219.375 553.792C219.975 554.452 220.275 555.472 220.275 556.852L218.259 557.392ZM224.379 557.392C224.379 556.672 224.295 556.12 224.127 555.736C223.959 555.34 223.725 555.064 223.425 554.908C223.137 554.752 222.801 554.674 222.417 554.674C221.733 554.662 221.205 554.884 220.833 555.34C220.461 555.796 220.275 556.45 220.275 557.302H219.519C219.519 556.354 219.657 555.544 219.933 554.872C220.209 554.188 220.605 553.672 221.121 553.324C221.637 552.964 222.249 552.784 222.957 552.784C224.049 552.784 224.895 553.12 225.495 553.792C226.095 554.452 226.389 555.472 226.377 556.852L224.379 557.392ZM231.71 562.216C231.11 562.216 230.558 562.126 230.054 561.946C229.55 561.766 229.118 561.514 228.758 561.19C228.398 560.854 228.122 560.464 227.93 560.02L229.676 559.246C229.856 559.582 230.12 559.864 230.468 560.092C230.828 560.32 231.224 560.434 231.656 560.434C232.124 560.434 232.496 560.356 232.772 560.2C233.06 560.032 233.204 559.804 233.204 559.516C233.204 559.24 233.096 559.03 232.88 558.886C232.664 558.73 232.358 558.604 231.962 558.508L231.116 558.274C230.264 558.058 229.598 557.716 229.118 557.248C228.638 556.768 228.398 556.222 228.398 555.61C228.398 554.71 228.686 554.014 229.262 553.522C229.85 553.03 230.69 552.784 231.782 552.784C232.334 552.784 232.838 552.868 233.294 553.036C233.762 553.192 234.164 553.42 234.5 553.72C234.836 554.008 235.07 554.35 235.202 554.746L233.528 555.502C233.408 555.202 233.18 554.974 232.844 554.818C232.508 554.65 232.136 554.566 231.728 554.566C231.32 554.566 231.002 554.656 230.774 554.836C230.546 555.004 230.432 555.244 230.432 555.556C230.432 555.736 230.534 555.904 230.738 556.06C230.942 556.204 231.236 556.324 231.62 556.42L232.682 556.672C233.27 556.816 233.75 557.044 234.122 557.356C234.494 557.656 234.77 557.998 234.95 558.382C235.13 558.754 235.22 559.132 235.22 559.516C235.22 560.056 235.064 560.53 234.752 560.938C234.452 561.346 234.038 561.664 233.51 561.892C232.982 562.108 232.382 562.216 231.71 562.216Z" fill="#8194A2"/>
<path d="M501.932 561.334L499.898 560.398C499.898 560.026 499.994 559.642 500.186 559.246C500.378 558.838 500.648 558.43 500.996 558.022C501.356 557.614 501.776 557.23 502.256 556.87L504.452 555.286C504.728 555.094 504.98 554.872 505.208 554.62C505.448 554.368 505.64 554.104 505.784 553.828C505.928 553.54 506 553.258 506 552.982C506 552.634 505.91 552.316 505.73 552.028C505.562 551.74 505.316 551.512 504.992 551.344C504.68 551.176 504.296 551.092 503.84 551.092C503.432 551.092 503.066 551.176 502.742 551.344C502.43 551.5 502.172 551.71 501.968 551.974C501.764 552.238 501.62 552.526 501.536 552.838L499.394 552.442C499.514 551.866 499.766 551.332 500.15 550.84C500.546 550.336 501.05 549.934 501.662 549.634C502.286 549.334 502.994 549.184 503.786 549.184C504.674 549.184 505.442 549.346 506.09 549.67C506.75 549.994 507.254 550.444 507.602 551.02C507.962 551.584 508.142 552.232 508.142 552.964C508.142 553.708 507.938 554.38 507.53 554.98C507.134 555.568 506.576 556.132 505.856 556.672L503.84 558.166C503.504 558.406 503.186 558.682 502.886 558.994C502.598 559.294 502.364 559.636 502.184 560.02C502.016 560.404 501.932 560.842 501.932 561.334ZM499.898 562V560.398L501.446 560.146H508.304V562H499.898ZM515.005 562.216C514.021 562.216 513.145 561.94 512.377 561.388C511.609 560.824 511.003 560.056 510.559 559.084C510.127 558.1 509.911 556.972 509.911 555.7C509.911 554.428 510.127 553.306 510.559 552.334C511.003 551.35 511.603 550.582 512.359 550.03C513.127 549.466 514.009 549.184 515.005 549.184C516.001 549.184 516.883 549.466 517.651 550.03C518.419 550.582 519.019 551.35 519.451 552.334C519.895 553.306 520.117 554.428 520.117 555.7C520.117 556.972 519.895 558.1 519.451 559.084C519.019 560.056 518.419 560.824 517.651 561.388C516.895 561.94 516.013 562.216 515.005 562.216ZM515.023 560.326C515.611 560.326 516.133 560.128 516.589 559.732C517.057 559.336 517.417 558.79 517.669 558.094C517.933 557.398 518.065 556.6 518.065 555.7C518.065 554.8 517.933 554.002 517.669 553.306C517.417 552.598 517.057 552.046 516.589 551.65C516.133 551.254 515.605 551.056 515.005 551.056C514.405 551.056 513.877 551.254 513.421 551.65C512.965 552.046 512.605 552.592 512.341 553.288C512.089 553.984 511.963 554.788 511.963 555.7C511.963 556.6 512.089 557.398 512.341 558.094C512.605 558.79 512.965 559.336 513.421 559.732C513.889 560.128 514.423 560.326 515.023 560.326ZM526.607 562.216C525.623 562.216 524.747 561.94 523.979 561.388C523.211 560.824 522.605 560.056 522.161 559.084C521.729 558.1 521.513 556.972 521.513 555.7C521.513 554.428 521.729 553.306 522.161 552.334C522.605 551.35 523.205 550.582 523.961 550.03C524.729 549.466 525.611 549.184 526.607 549.184C527.603 549.184 528.485 549.466 529.253 550.03C530.021 550.582 530.621 551.35 531.053 552.334C531.497 553.306 531.719 554.428 531.719 555.7C531.719 556.972 531.497 558.1 531.053 559.084C530.621 560.056 530.021 560.824 529.253 561.388C528.497 561.94 527.615 562.216 526.607 562.216ZM526.625 560.326C527.213 560.326 527.735 560.128 528.191 559.732C528.659 559.336 529.019 558.79 529.271 558.094C529.535 557.398 529.667 556.6 529.667 555.7C529.667 554.8 529.535 554.002 529.271 553.306C529.019 552.598 528.659 552.046 528.191 551.65C527.735 551.254 527.207 551.056 526.607 551.056C526.007 551.056 525.479 551.254 525.023 551.65C524.567 552.046 524.207 552.592 523.943 553.288C523.691 553.984 523.565 554.788 523.565 555.7C523.565 556.6 523.691 557.398 523.943 558.094C524.207 558.79 524.567 559.336 525.023 559.732C525.491 560.128 526.025 560.326 526.625 560.326ZM533.528 562V553H535.418L535.544 554.656V562H533.528ZM539.63 562V557.392L541.646 556.852V562H539.63ZM545.75 562V557.392L547.748 556.852V562H545.75ZM539.63 557.392C539.63 556.672 539.546 556.12 539.378 555.736C539.222 555.34 538.994 555.064 538.694 554.908C538.406 554.752 538.064 554.674 537.668 554.674C536.996 554.662 536.474 554.884 536.102 555.34C535.73 555.796 535.544 556.45 535.544 557.302H534.788C534.788 556.354 534.926 555.544 535.202 554.872C535.478 554.188 535.874 553.672 536.39 553.324C536.906 552.964 537.518 552.784 538.226 552.784C539.318 552.784 540.158 553.12 540.746 553.792C541.346 554.452 541.646 555.472 541.646 556.852L539.63 557.392ZM545.75 557.392C545.75 556.672 545.666 556.12 545.498 555.736C545.33 555.34 545.096 555.064 544.796 554.908C544.508 554.752 544.172 554.674 543.788 554.674C543.104 554.662 542.576 554.884 542.204 555.34C541.832 555.796 541.646 556.45 541.646 557.302H540.89C540.89 556.354 541.028 555.544 541.304 554.872C541.58 554.188 541.976 553.672 542.492 553.324C543.008 552.964 543.62 552.784 544.328 552.784C545.42 552.784 546.266 553.12 546.866 553.792C547.466 554.452 547.76 555.472 547.748 556.852L545.75 557.392ZM553.081 562.216C552.481 562.216 551.929 562.126 551.425 561.946C550.921 561.766 550.489 561.514 550.129 561.19C549.769 560.854 549.493 560.464 549.301 560.02L551.047 559.246C551.227 559.582 551.491 559.864 551.839 560.092C552.199 560.32 552.595 560.434 553.027 560.434C553.495 560.434 553.867 560.356 554.143 560.2C554.431 560.032 554.575 559.804 554.575 559.516C554.575 559.24 554.467 559.03 554.251 558.886C554.035 558.73 553.729 558.604 553.333 558.508L552.487 558.274C551.635 558.058 550.969 557.716 550.489 557.248C550.009 556.768 549.769 556.222 549.769 555.61C549.769 554.71 550.057 554.014 550.633 553.522C551.221 553.03 552.061 552.784 553.153 552.784C553.705 552.784 554.209 552.868 554.665 553.036C555.133 553.192 555.535 553.42 555.871 553.72C556.207 554.008 556.441 554.35 556.573 554.746L554.899 555.502C554.779 555.202 554.551 554.974 554.215 554.818C553.879 554.65 553.507 554.566 553.099 554.566C552.691 554.566 552.373 554.656 552.145 554.836C551.917 555.004 551.803 555.244 551.803 555.556C551.803 555.736 551.905 555.904 552.109 556.06C552.313 556.204 552.607 556.324 552.991 556.42L554.053 556.672C554.641 556.816 555.121 557.044 555.493 557.356C555.865 557.656 556.141 557.998 556.321 558.382C556.501 558.754 556.591 559.132 556.591 559.516C556.591 560.056 556.435 560.53 556.123 560.938C555.823 561.346 555.409 561.664 554.881 561.892C554.353 562.108 553.753 562.216 553.081 562.216Z" fill="#8194A2"/>
<path d="M824.078 562.216C823.394 562.216 822.77 562.114 822.206 561.91C821.642 561.706 821.168 561.418 820.784 561.046C820.4 560.674 820.124 560.254 819.956 559.786L821.828 559.084C821.924 559.252 822.056 559.438 822.224 559.642C822.392 559.846 822.614 560.026 822.89 560.182C823.166 560.326 823.52 560.398 823.952 560.398C824.636 560.398 825.176 560.206 825.572 559.822C825.98 559.426 826.184 558.928 826.184 558.328C826.184 557.896 826.07 557.524 825.842 557.212C825.626 556.9 825.284 556.66 824.816 556.492C824.36 556.324 823.784 556.24 823.088 556.24H822.512V554.764H823.034C823.766 554.764 824.444 554.848 825.068 555.016C825.704 555.184 826.262 555.436 826.742 555.772C827.234 556.096 827.612 556.492 827.876 556.96C828.152 557.428 828.29 557.956 828.29 558.544C828.29 559.3 828.092 559.954 827.696 560.506C827.312 561.058 826.802 561.484 826.166 561.784C825.53 562.072 824.834 562.216 824.078 562.216ZM822.512 555.916V554.512H823.088C824.012 554.512 824.714 554.356 825.194 554.044C825.674 553.732 825.914 553.294 825.914 552.73C825.914 552.406 825.83 552.118 825.662 551.866C825.506 551.602 825.278 551.392 824.978 551.236C824.678 551.08 824.324 551.002 823.916 551.002C823.652 551.002 823.394 551.044 823.142 551.128C822.89 551.212 822.656 551.344 822.44 551.524C822.224 551.704 822.044 551.938 821.9 552.226L820.082 551.56C820.262 551.056 820.55 550.63 820.946 550.282C821.342 549.922 821.804 549.652 822.332 549.472C822.86 549.28 823.412 549.184 823.988 549.184C824.756 549.184 825.44 549.328 826.04 549.616C826.652 549.904 827.132 550.306 827.48 550.822C827.84 551.326 828.02 551.908 828.02 552.568C828.02 553.12 827.882 553.606 827.606 554.026C827.342 554.446 826.976 554.8 826.508 555.088C826.04 555.364 825.506 555.574 824.906 555.718C824.318 555.85 823.688 555.916 823.016 555.916H822.512ZM834.82 562.216C833.836 562.216 832.96 561.94 832.192 561.388C831.424 560.824 830.818 560.056 830.374 559.084C829.942 558.1 829.726 556.972 829.726 555.7C829.726 554.428 829.942 553.306 830.374 552.334C830.818 551.35 831.418 550.582 832.174 550.03C832.942 549.466 833.824 549.184 834.82 549.184C835.816 549.184 836.698 549.466 837.466 550.03C838.234 550.582 838.834 551.35 839.266 552.334C839.71 553.306 839.932 554.428 839.932 555.7C839.932 556.972 839.71 558.1 839.266 559.084C838.834 560.056 838.234 560.824 837.466 561.388C836.71 561.94 835.828 562.216 834.82 562.216ZM834.838 560.326C835.426 560.326 835.948 560.128 836.404 559.732C836.872 559.336 837.232 558.79 837.484 558.094C837.748 557.398 837.88 556.6 837.88 555.7C837.88 554.8 837.748 554.002 837.484 553.306C837.232 552.598 836.872 552.046 836.404 551.65C835.948 551.254 835.42 551.056 834.82 551.056C834.22 551.056 833.692 551.254 833.236 551.65C832.78 552.046 832.42 552.592 832.156 553.288C831.904 553.984 831.778 554.788 831.778 555.7C831.778 556.6 831.904 557.398 832.156 558.094C832.42 558.79 832.78 559.336 833.236 559.732C833.704 560.128 834.238 560.326 834.838 560.326ZM846.422 562.216C845.438 562.216 844.562 561.94 843.794 561.388C843.026 560.824 842.42 560.056 841.976 559.084C841.544 558.1 841.328 556.972 841.328 555.7C841.328 554.428 841.544 553.306 841.976 552.334C842.42 551.35 843.02 550.582 843.776 550.03C844.544 549.466 845.426 549.184 846.422 549.184C847.418 549.184 848.3 549.466 849.068 550.03C849.836 550.582 850.436 551.35 850.868 552.334C851.312 553.306 851.534 554.428 851.534 555.7C851.534 556.972 851.312 558.1 850.868 559.084C850.436 560.056 849.836 560.824 849.068 561.388C848.312 561.94 847.43 562.216 846.422 562.216ZM846.44 560.326C847.028 560.326 847.55 560.128 848.006 559.732C848.474 559.336 848.834 558.79 849.086 558.094C849.35 557.398 849.482 556.6 849.482 555.7C849.482 554.8 849.35 554.002 849.086 553.306C848.834 552.598 848.474 552.046 848.006 551.65C847.55 551.254 847.022 551.056 846.422 551.056C845.822 551.056 845.294 551.254 844.838 551.65C844.382 552.046 844.022 552.592 843.758 553.288C843.506 553.984 843.38 554.788 843.38 555.7C843.38 556.6 843.506 557.398 843.758 558.094C844.022 558.79 844.382 559.336 844.838 559.732C845.306 560.128 845.84 560.326 846.44 560.326ZM853.344 562V553H855.234L855.36 554.656V562H853.344ZM859.446 562V557.392L861.462 556.852V562H859.446ZM865.566 562V557.392L867.564 556.852V562H865.566ZM859.446 557.392C859.446 556.672 859.362 556.12 859.194 555.736C859.038 555.34 858.81 555.064 858.51 554.908C858.222 554.752 857.88 554.674 857.484 554.674C856.812 554.662 856.29 554.884 855.918 555.34C855.546 555.796 855.36 556.45 855.36 557.302H854.604C854.604 556.354 854.742 555.544 855.018 554.872C855.294 554.188 855.69 553.672 856.206 553.324C856.722 552.964 857.334 552.784 858.042 552.784C859.134 552.784 859.974 553.12 860.562 553.792C861.162 554.452 861.462 555.472 861.462 556.852L859.446 557.392ZM865.566 557.392C865.566 556.672 865.482 556.12 865.314 555.736C865.146 555.34 864.912 555.064 864.612 554.908C864.324 554.752 863.988 554.674 863.604 554.674C862.92 554.662 862.392 554.884 862.02 555.34C861.648 555.796 861.462 556.45 861.462 557.302H860.706C860.706 556.354 860.844 555.544 861.12 554.872C861.396 554.188 861.792 553.672 862.308 553.324C862.824 552.964 863.436 552.784 864.144 552.784C865.236 552.784 866.082 553.12 866.682 553.792C867.282 554.452 867.576 555.472 867.564 556.852L865.566 557.392ZM872.897 562.216C872.297 562.216 871.745 562.126 871.241 561.946C870.737 561.766 870.305 561.514 869.945 561.19C869.585 560.854 869.309 560.464 869.117 560.02L870.863 559.246C871.043 559.582 871.307 559.864 871.655 560.092C872.015 560.32 872.411 560.434 872.843 560.434C873.311 560.434 873.683 560.356 873.959 560.2C874.247 560.032 874.391 559.804 874.391 559.516C874.391 559.24 874.283 559.03 874.067 558.886C873.851 558.73 873.545 558.604 873.149 558.508L872.303 558.274C871.451 558.058 870.785 557.716 870.305 557.248C869.825 556.768 869.585 556.222 869.585 555.61C869.585 554.71 869.873 554.014 870.449 553.522C871.037 553.03 871.877 552.784 872.969 552.784C873.521 552.784 874.025 552.868 874.481 553.036C874.949 553.192 875.351 553.42 875.687 553.72C876.023 554.008 876.257 554.35 876.389 554.746L874.715 555.502C874.595 555.202 874.367 554.974 874.031 554.818C873.695 554.65 873.323 554.566 872.915 554.566C872.507 554.566 872.189 554.656 871.961 554.836C871.733 555.004 871.619 555.244 871.619 555.556C871.619 555.736 871.721 555.904 871.925 556.06C872.129 556.204 872.423 556.324 872.807 556.42L873.869 556.672C874.457 556.816 874.937 557.044 875.309 557.356C875.681 557.656 875.957 557.998 876.137 558.382C876.317 558.754 876.407 559.132 876.407 559.516C876.407 560.056 876.251 560.53 875.939 560.938C875.639 561.346 875.225 561.664 874.697 561.892C874.169 562.108 873.569 562.216 872.897 562.216Z" fill="#8194A2"/>
<path d="M462.5 601H593.5C608.412 601 620.5 613.088 620.5 628C620.5 642.912 608.412 655 593.5 655H462.5C447.588 655 435.5 642.912 435.5 628C435.5 613.088 447.588 601 462.5 601Z" fill="white"/>
<path d="M462.5 601H593.5C608.412 601 620.5 613.088 620.5 628C620.5 642.912 608.412 655 593.5 655H462.5C447.588 655 435.5 642.912 435.5 628C435.5 613.088 447.588 601 462.5 601Z" stroke="#9AAEBC" stroke-width="2"/>
<path fill-rule="evenodd" clip-rule="evenodd" d="M476.5 628C476.5 633.523 472.023 638 466.5 638C460.977 638 456.5 633.523 456.5 628C456.5 622.477 460.977 618 466.5 618C472.023 618 476.5 622.477 476.5 628ZM466.5 636C466.5 636 466.5 636 466.5 636C462.082 636 458.5 632.418 458.5 628C458.5 627.68 458.519 627.365 458.555 627.055L464.5 633V634C464.5 634.552 464.948 635 465.5 635H466.5L466.5 636ZM468.5 635.748V634C468.5 633.447 468.053 633 467.5 633H466.5V632.171L465.328 631L469.5 631V632C469.5 632.552 469.948 633 470.5 633H472.746C471.68 634.329 470.2 635.31 468.5 635.748ZM473.919 631H471.5V630C471.5 629.447 471.052 629 470.5 629L462.5 629V627H465.5C466.053 627 466.5 626.552 466.5 626V624H467.5C468.605 624 469.5 623.104 469.5 622V620.582C472.432 621.768 474.5 624.643 474.5 628C474.5 629.061 474.294 630.073 473.919 631ZM467.5 620.062V622H465.5C464.948 622 464.5 622.447 464.5 623V625H461.671C461.024 625 460.5 625.524 460.5 626.171L459.155 624.826C460.383 621.987 463.21 620 466.5 620C466.839 620 467.172 620.021 467.5 620.062Z" fill="#21333F" fill-opacity="0.5"/>
<path d="M492.588 634.252C492.24 634.252 491.94 634.132 491.688 633.892C491.448 633.64 491.328 633.34 491.328 632.992C491.328 632.644 491.448 632.344 491.688 632.092C491.94 631.84 492.24 631.714 492.588 631.714C492.936 631.714 493.236 631.84 493.488 632.092C493.74 632.344 493.866 632.644 493.866 632.992C493.866 633.34 493.74 633.64 493.488 633.892C493.236 634.132 492.936 634.252 492.588 634.252ZM496.772 634.252C496.424 634.252 496.124 634.132 495.872 633.892C495.632 633.64 495.512 633.34 495.512 632.992C495.512 632.644 495.632 632.344 495.872 632.092C496.124 631.84 496.424 631.714 496.772 631.714C497.12 631.714 497.42 631.84 497.672 632.092C497.924 632.344 498.05 632.644 498.05 632.992C498.05 633.34 497.924 633.64 497.672 633.892C497.42 634.132 497.12 634.252 496.772 634.252ZM500.955 634.252C500.607 634.252 500.307 634.132 500.055 633.892C499.815 633.64 499.695 633.34 499.695 632.992C499.695 632.644 499.815 632.344 500.055 632.092C500.307 631.84 500.607 631.714 500.955 631.714C501.303 631.714 501.603 631.84 501.855 632.092C502.107 632.344 502.233 632.644 502.233 632.992C502.233 633.34 502.107 633.64 501.855 633.892C501.603 634.132 501.303 634.252 500.955 634.252ZM503.321 635.512L508.289 620.554H510.251L505.319 635.512H503.321ZM517.667 634L517.559 632.344V625H519.557V634H517.667ZM511.439 630.148V625H513.455V629.608L511.439 630.148ZM513.455 629.608C513.455 630.316 513.539 630.868 513.707 631.264C513.875 631.66 514.103 631.936 514.391 632.092C514.691 632.248 515.033 632.326 515.417 632.326C516.101 632.338 516.629 632.116 517.001 631.66C517.373 631.204 517.559 630.55 517.559 629.698H518.315C518.315 630.646 518.171 631.462 517.883 632.146C517.607 632.818 517.211 633.334 516.695 633.694C516.191 634.042 515.585 634.216 514.877 634.216C513.785 634.216 512.939 633.88 512.339 633.208C511.739 632.536 511.439 631.516 511.439 630.148L513.455 629.608ZM525.074 634.216C524.474 634.216 523.922 634.126 523.418 633.946C522.914 633.766 522.482 633.514 522.122 633.19C521.762 632.854 521.486 632.464 521.294 632.02L523.04 631.246C523.22 631.582 523.484 631.864 523.832 632.092C524.192 632.32 524.588 632.434 525.02 632.434C525.488 632.434 525.86 632.356 526.136 632.2C526.424 632.032 526.568 631.804 526.568 631.516C526.568 631.24 526.46 631.03 526.244 630.886C526.028 630.73 525.722 630.604 525.326 630.508L524.48 630.274C523.628 630.058 522.962 629.716 522.482 629.248C522.002 628.768 521.762 628.222 521.762 627.61C521.762 626.71 522.05 626.014 522.626 625.522C523.214 625.03 524.054 624.784 525.146 624.784C525.698 624.784 526.202 624.868 526.658 625.036C527.126 625.192 527.528 625.42 527.864 625.72C528.2 626.008 528.434 626.35 528.566 626.746L526.892 627.502C526.772 627.202 526.544 626.974 526.208 626.818C525.872 626.65 525.5 626.566 525.092 626.566C524.684 626.566 524.366 626.656 524.138 626.836C523.91 627.004 523.796 627.244 523.796 627.556C523.796 627.736 523.898 627.904 524.102 628.06C524.306 628.204 524.6 628.324 524.984 628.42L526.046 628.672C526.634 628.816 527.114 629.044 527.486 629.356C527.858 629.656 528.134 629.998 528.314 630.382C528.494 630.754 528.584 631.132 528.584 631.516C528.584 632.056 528.428 632.53 528.116 632.938C527.816 633.346 527.402 633.664 526.874 633.892C526.346 634.108 525.746 634.216 525.074 634.216ZM534.196 634.216C533.32 634.216 532.54 634.018 531.856 633.622C531.184 633.214 530.65 632.656 530.254 631.948C529.87 631.24 529.678 630.424 529.678 629.5C529.678 628.576 529.876 627.76 530.272 627.052C530.668 626.344 531.208 625.792 531.892 625.396C532.588 624.988 533.38 624.784 534.268 624.784C535.072 624.784 535.792 624.994 536.428 625.414C537.076 625.822 537.592 626.416 537.976 627.196C538.36 627.976 538.552 628.906 538.552 629.986H536.518C536.518 629.206 536.422 628.564 536.23 628.06C536.05 627.556 535.786 627.184 535.438 626.944C535.102 626.692 534.688 626.566 534.196 626.566C533.68 626.566 533.236 626.68 532.864 626.908C532.492 627.136 532.21 627.472 532.018 627.916C531.826 628.348 531.73 628.894 531.73 629.554C531.73 630.142 531.844 630.646 532.072 631.066C532.312 631.486 532.63 631.81 533.026 632.038C533.434 632.254 533.884 632.362 534.376 632.362C534.916 632.362 535.36 632.242 535.708 632.002C536.056 631.75 536.326 631.432 536.518 631.048L538.372 631.84C538.12 632.32 537.796 632.74 537.4 633.1C537.016 633.46 536.554 633.736 536.014 633.928C535.486 634.12 534.88 634.216 534.196 634.216ZM531.01 629.986V628.384H537.49V629.986H531.01ZM541.428 629.212C541.428 628.24 541.614 627.442 541.986 626.818C542.358 626.194 542.838 625.732 543.426 625.432C544.026 625.12 544.65 624.964 545.298 624.964V626.89C544.746 626.89 544.224 626.968 543.732 627.124C543.252 627.268 542.862 627.508 542.562 627.844C542.262 628.18 542.112 628.624 542.112 629.176L541.428 629.212ZM540.096 634V625H542.112V634H540.096ZM549.912 634.216C549.312 634.216 548.76 634.126 548.256 633.946C547.752 633.766 547.32 633.514 546.96 633.19C546.6 632.854 546.324 632.464 546.132 632.02L547.878 631.246C548.058 631.582 548.322 631.864 548.67 632.092C549.03 632.32 549.426 632.434 549.858 632.434C550.326 632.434 550.698 632.356 550.974 632.2C551.262 632.032 551.406 631.804 551.406 631.516C551.406 631.24 551.298 631.03 551.082 630.886C550.866 630.73 550.56 630.604 550.164 630.508L549.318 630.274C548.466 630.058 547.8 629.716 547.32 629.248C546.84 628.768 546.6 628.222 546.6 627.61C546.6 626.71 546.888 626.014 547.464 625.522C548.052 625.03 548.892 624.784 549.984 624.784C550.536 624.784 551.04 624.868 551.496 625.036C551.964 625.192 552.366 625.42 552.702 625.72C553.038 626.008 553.272 626.35 553.404 626.746L551.73 627.502C551.61 627.202 551.382 626.974 551.046 626.818C550.71 626.65 550.338 626.566 549.93 626.566C549.522 626.566 549.204 626.656 548.976 626.836C548.748 627.004 548.634 627.244 548.634 627.556C548.634 627.736 548.736 627.904 548.94 628.06C549.144 628.204 549.438 628.324 549.822 628.42L550.884 628.672C551.472 628.816 551.952 629.044 552.324 629.356C552.696 629.656 552.972 629.998 553.152 630.382C553.332 630.754 553.422 631.132 553.422 631.516C553.422 632.056 553.266 632.53 552.954 632.938C552.654 633.346 552.24 633.664 551.712 633.892C551.184 634.108 550.584 634.216 549.912 634.216ZM554.174 635.512L559.142 620.554H561.104L556.172 635.512H554.174ZM565.029 634L565.047 622.516L565.245 621.4H567.063L567.045 634H565.029ZM562.311 625.09V623.2C562.587 623.212 562.899 623.134 563.247 622.966C563.607 622.786 563.961 622.552 564.309 622.264C564.657 621.976 564.969 621.682 565.245 621.382L566.541 622.732C566.121 623.176 565.683 623.584 565.227 623.956C564.771 624.328 564.297 624.616 563.805 624.82C563.325 625.024 562.827 625.114 562.311 625.09ZM571.922 633.334L569.888 632.398C569.888 632.026 569.984 631.642 570.176 631.246C570.368 630.838 570.638 630.43 570.986 630.022C571.346 629.614 571.766 629.23 572.246 628.87L574.442 627.286C574.718 627.094 574.97 626.872 575.198 626.62C575.438 626.368 575.63 626.104 575.774 625.828C575.918 625.54 575.99 625.258 575.99 624.982C575.99 624.634 575.9 624.316 575.72 624.028C575.552 623.74 575.306 623.512 574.982 623.344C574.67 623.176 574.286 623.092 573.83 623.092C573.422 623.092 573.056 623.176 572.732 623.344C572.42 623.5 572.162 623.71 571.958 623.974C571.754 624.238 571.61 624.526 571.526 624.838L569.384 624.442C569.504 623.866 569.756 623.332 570.14 622.84C570.536 622.336 571.04 621.934 571.652 621.634C572.276 621.334 572.984 621.184 573.776 621.184C574.664 621.184 575.432 621.346 576.08 621.67C576.74 621.994 577.244 622.444 577.592 623.02C577.952 623.584 578.132 624.232 578.132 624.964C578.132 625.708 577.928 626.38 577.52 626.98C577.124 627.568 576.566 628.132 575.846 628.672L573.83 630.166C573.494 630.406 573.176 630.682 572.876 630.994C572.588 631.294 572.354 631.636 572.174 632.02C572.006 632.404 571.922 632.842 571.922 633.334ZM569.888 634V632.398L571.436 632.146H578.294V634H569.888ZM584.167 634.216C583.483 634.216 582.859 634.114 582.295 633.91C581.731 633.706 581.257 633.418 580.873 633.046C580.489 632.674 580.213 632.254 580.045 631.786L581.917 631.084C582.013 631.252 582.145 631.438 582.313 631.642C582.481 631.846 582.703 632.026 582.979 632.182C583.255 632.326 583.609 632.398 584.041 632.398C584.725 632.398 585.265 632.206 585.661 631.822C586.069 631.426 586.273 630.928 586.273 630.328C586.273 629.896 586.159 629.524 585.931 629.212C585.715 628.9 585.373 628.66 584.905 628.492C584.449 628.324 583.873 628.24 583.177 628.24H582.601V626.764H583.123C583.855 626.764 584.533 626.848 585.157 627.016C585.793 627.184 586.351 627.436 586.831 627.772C587.323 628.096 587.701 628.492 587.965 628.96C588.241 629.428 588.379 629.956 588.379 630.544C588.379 631.3 588.181 631.954 587.785 632.506C587.401 633.058 586.891 633.484 586.255 633.784C585.619 634.072 584.923 634.216 584.167 634.216ZM582.601 627.916V626.512H583.177C584.101 626.512 584.803 626.356 585.283 626.044C585.763 625.732 586.003 625.294 586.003 624.73C586.003 624.406 585.919 624.118 585.751 623.866C585.595 623.602 585.367 623.392 585.067 623.236C584.767 623.08 584.413 623.002 584.005 623.002C583.741 623.002 583.483 623.044 583.231 623.128C582.979 623.212 582.745 623.344 582.529 623.524C582.313 623.704 582.133 623.938 581.989 624.226L580.171 623.56C580.351 623.056 580.639 622.63 581.035 622.282C581.431 621.922 581.893 621.652 582.421 621.472C582.949 621.28 583.501 621.184 584.077 621.184C584.845 621.184 585.529 621.328 586.129 621.616C586.741 621.904 587.221 622.306 587.569 622.822C587.929 623.326 588.109 623.908 588.109 624.568C588.109 625.12 587.971 625.606 587.695 626.026C587.431 626.446 587.065 626.8 586.597 627.088C586.129 627.364 585.595 627.574 584.995 627.718C584.407 627.85 583.777 627.916 583.105 627.916H582.601Z" fill="#21333F"/>
<defs>
<clipPath id="clip0_13398_11558">
<path d="M48 136C48 131.582 51.5817 128 56 128H1000C1004.42 128 1008 131.582 1008 136V504C1008 508.418 1004.42 512 1000 512H56C51.5817 512 48 508.418 48 504V136Z" fill="white"/>
</clipPath>
</defs>
</svg>
