<svg width="1009" height="231" viewBox="0 0 1009 231" fill="none" xmlns="http://www.w3.org/2000/svg">
<path d="M985.818 0H777.182C764.432 0 754 10.395 754 23.1V161.7C754 174.405 764.432 184.8 777.182 184.8H858.318L835.136 219.45V231H927.864V219.45L904.682 184.8H985.818C998.568 184.8 1009 174.405 1009 161.7V23.1C1009 10.395 998.568 0 985.818 0ZM985.818 138.6H777.182V23.1H985.818V138.6Z" fill="black"/>
<path d="M826.271 86.1997H818.285L816.614 91H812.89L820.678 70.3828H823.892L831.694 91H827.956L826.271 86.1997ZM819.29 83.311H825.266L822.278 74.7583L819.29 83.311ZM837.627 83.3394V91H834.045V70.3828H841.932C844.236 70.3828 846.062 70.9823 847.412 72.1812C848.771 73.38 849.451 74.966 849.451 76.939C849.451 78.9591 848.786 80.5309 847.455 81.6543C846.133 82.7777 844.278 83.3394 841.89 83.3394H837.627ZM837.627 80.4648H841.932C843.207 80.4648 844.179 80.1675 844.849 79.5728C845.519 78.9686 845.854 78.1001 845.854 76.9673C845.854 75.8534 845.515 74.966 844.835 74.3052C844.155 73.6349 843.221 73.2904 842.031 73.2715H837.627V80.4648ZM856.375 91H852.807V70.3828H856.375V91ZM878.777 85.6899C878.777 84.7837 878.456 84.0851 877.814 83.5942C877.181 83.1034 876.035 82.6077 874.373 82.1074C872.712 81.6071 871.39 81.0501 870.408 80.4365C868.53 79.2565 867.59 77.7178 867.59 75.8203C867.59 74.1589 868.265 72.79 869.615 71.7139C870.975 70.6377 872.735 70.0996 874.897 70.0996C876.332 70.0996 877.611 70.3639 878.734 70.8926C879.858 71.4212 880.74 72.1764 881.382 73.1582C882.024 74.1305 882.345 75.2114 882.345 76.4009H878.777C878.777 75.3247 878.437 74.4845 877.757 73.8804C877.087 73.2668 876.124 72.96 874.869 72.96C873.698 72.96 872.787 73.2101 872.136 73.7104C871.494 74.2108 871.173 74.9093 871.173 75.8062C871.173 76.5614 871.522 77.1938 872.221 77.7036C872.919 78.2039 874.071 78.6948 875.676 79.1763C877.281 79.6483 878.569 80.1911 879.542 80.8047C880.514 81.4089 881.227 82.1074 881.68 82.9004C882.133 83.6839 882.359 84.6043 882.359 85.6616C882.359 87.3797 881.699 88.7485 880.377 89.7681C879.065 90.7782 877.281 91.2832 875.024 91.2832C873.533 91.2832 872.159 91.0094 870.904 90.4619C869.658 89.9049 868.685 89.1403 867.987 88.168C867.298 87.1956 866.953 86.0628 866.953 84.7695H870.536C870.536 85.9401 870.923 86.8464 871.697 87.4883C872.471 88.1302 873.58 88.4512 875.024 88.4512C876.271 88.4512 877.205 88.201 877.828 87.7007C878.461 87.1909 878.777 86.5207 878.777 85.6899ZM891.917 91.2832C889.737 91.2832 887.967 90.5988 886.607 89.23C885.257 87.8517 884.583 86.0203 884.583 83.7358V83.311C884.583 81.7817 884.875 80.4176 885.46 79.2188C886.055 78.0104 886.886 77.0711 887.953 76.4009C889.019 75.7306 890.209 75.3955 891.521 75.3955C893.607 75.3955 895.217 76.061 896.35 77.3921C897.492 78.7231 898.063 80.6064 898.063 83.042V84.4297H888.052C888.156 85.6947 888.576 86.6953 889.312 87.4316C890.058 88.168 890.992 88.5361 892.116 88.5361C893.692 88.5361 894.976 87.8989 895.967 86.6245L897.822 88.3945C897.209 89.3102 896.387 90.0229 895.358 90.5327C894.339 91.033 893.192 91.2832 891.917 91.2832ZM891.507 78.1567C890.563 78.1567 889.798 78.4871 889.213 79.1479C888.637 79.8088 888.269 80.7292 888.108 81.9092H894.665V81.6543C894.589 80.5026 894.282 79.6341 893.744 79.0488C893.206 78.4541 892.46 78.1567 891.507 78.1567ZM908.768 78.8223C908.315 78.7467 907.848 78.709 907.366 78.709C905.79 78.709 904.728 79.3132 904.18 80.5215V91H900.739V75.6787H904.024L904.109 77.3921C904.94 76.061 906.092 75.3955 907.564 75.3955C908.055 75.3955 908.461 75.4616 908.782 75.5938L908.768 78.8223ZM916.599 86.6387L919.841 75.6787H923.396L918.085 91H915.098L909.745 75.6787H913.313L916.599 86.6387ZM932.104 91.2832C929.923 91.2832 928.153 90.5988 926.794 89.23C925.444 87.8517 924.769 86.0203 924.769 83.7358V83.311C924.769 81.7817 925.062 80.4176 925.647 79.2188C926.242 78.0104 927.072 77.0711 928.139 76.4009C929.206 75.7306 930.395 75.3955 931.708 75.3955C933.794 75.3955 935.403 76.061 936.536 77.3921C937.678 78.7231 938.25 80.6064 938.25 83.042V84.4297H928.238C928.342 85.6947 928.762 86.6953 929.499 87.4316C930.244 88.168 931.179 88.5361 932.302 88.5361C933.879 88.5361 935.163 87.8989 936.154 86.6245L938.009 88.3945C937.395 89.3102 936.574 90.0229 935.545 90.5327C934.525 91.033 933.378 91.2832 932.104 91.2832ZM931.693 78.1567C930.749 78.1567 929.985 78.4871 929.399 79.1479C928.824 79.8088 928.455 80.7292 928.295 81.9092H934.851V81.6543C934.776 80.5026 934.469 79.6341 933.931 79.0488C933.393 78.4541 932.647 78.1567 931.693 78.1567ZM948.955 78.8223C948.501 78.7467 948.034 78.709 947.553 78.709C945.976 78.709 944.914 79.3132 944.367 80.5215V91H940.926V75.6787H944.211L944.296 77.3921C945.127 76.061 946.278 75.3955 947.751 75.3955C948.242 75.3955 948.648 75.4616 948.969 75.5938L948.955 78.8223Z" fill="black"/>
<rect x="4" y="33.8474" width="313.564" height="164.153" rx="9" fill="white" stroke="black" stroke-width="8"/>
<path d="M8.43549 37L160.782 115.924L314 38.6947" stroke="black" stroke-width="8"/>
<path d="M90.8633 163V145.938H95.9023C97.4102 145.938 98.7461 146.273 99.9102 146.945C101.082 147.617 101.988 148.57 102.629 149.805C103.27 151.039 103.59 152.453 103.59 154.047V154.902C103.59 156.52 103.266 157.941 102.617 159.168C101.977 160.395 101.059 161.34 99.8633 162.004C98.6758 162.668 97.3125 163 95.7734 163H90.8633ZM93.8281 148.328V160.633H95.7617C97.3164 160.633 98.5078 160.148 99.3359 159.18C100.172 158.203 100.598 156.805 100.613 154.984V154.035C100.613 152.184 100.211 150.77 99.4062 149.793C98.6016 148.816 97.4336 148.328 95.9023 148.328H93.8281ZM113.844 163C113.719 162.758 113.609 162.363 113.516 161.816C112.609 162.762 111.5 163.234 110.188 163.234C108.914 163.234 107.875 162.871 107.07 162.145C106.266 161.418 105.863 160.52 105.863 159.449C105.863 158.098 106.363 157.062 107.363 156.344C108.371 155.617 109.809 155.254 111.676 155.254H113.422V154.422C113.422 153.766 113.238 153.242 112.871 152.852C112.504 152.453 111.945 152.254 111.195 152.254C110.547 152.254 110.016 152.418 109.602 152.746C109.188 153.066 108.98 153.477 108.98 153.977H106.133C106.133 153.281 106.363 152.633 106.824 152.031C107.285 151.422 107.91 150.945 108.699 150.602C109.496 150.258 110.383 150.086 111.359 150.086C112.844 150.086 114.027 150.461 114.91 151.211C115.793 151.953 116.246 153 116.27 154.352V160.07C116.27 161.211 116.43 162.121 116.75 162.801V163H113.844ZM110.715 160.949C111.277 160.949 111.805 160.812 112.297 160.539C112.797 160.266 113.172 159.898 113.422 159.438V157.047H111.887C110.832 157.047 110.039 157.23 109.508 157.598C108.977 157.965 108.711 158.484 108.711 159.156C108.711 159.703 108.891 160.141 109.25 160.469C109.617 160.789 110.105 160.949 110.715 160.949ZM122.82 147.238V150.32H125.059V152.43H122.82V159.508C122.82 159.992 122.914 160.344 123.102 160.562C123.297 160.773 123.641 160.879 124.133 160.879C124.461 160.879 124.793 160.84 125.129 160.762V162.965C124.48 163.145 123.855 163.234 123.254 163.234C121.066 163.234 119.973 162.027 119.973 159.613V152.43H117.887V150.32H119.973V147.238H122.82ZM134.82 163C134.695 162.758 134.586 162.363 134.492 161.816C133.586 162.762 132.477 163.234 131.164 163.234C129.891 163.234 128.852 162.871 128.047 162.145C127.242 161.418 126.84 160.52 126.84 159.449C126.84 158.098 127.34 157.062 128.34 156.344C129.348 155.617 130.785 155.254 132.652 155.254H134.398V154.422C134.398 153.766 134.215 153.242 133.848 152.852C133.48 152.453 132.922 152.254 132.172 152.254C131.523 152.254 130.992 152.418 130.578 152.746C130.164 153.066 129.957 153.477 129.957 153.977H127.109C127.109 153.281 127.34 152.633 127.801 152.031C128.262 151.422 128.887 150.945 129.676 150.602C130.473 150.258 131.359 150.086 132.336 150.086C133.82 150.086 135.004 150.461 135.887 151.211C136.77 151.953 137.223 153 137.246 154.352V160.07C137.246 161.211 137.406 162.121 137.727 162.801V163H134.82ZM131.691 160.949C132.254 160.949 132.781 160.812 133.273 160.539C133.773 160.266 134.148 159.898 134.398 159.438V157.047H132.863C131.809 157.047 131.016 157.23 130.484 157.598C129.953 157.965 129.688 158.484 129.688 159.156C129.688 159.703 129.867 160.141 130.227 160.469C130.594 160.789 131.082 160.949 131.691 160.949ZM152.75 156.426H149.445V163H146.48V145.938H152.48C154.449 145.938 155.969 146.379 157.039 147.262C158.109 148.145 158.645 149.422 158.645 151.094C158.645 152.234 158.367 153.191 157.812 153.965C157.266 154.73 156.5 155.32 155.516 155.734L159.348 162.848V163H156.172L152.75 156.426ZM149.445 154.047H152.492C153.492 154.047 154.273 153.797 154.836 153.297C155.398 152.789 155.68 152.098 155.68 151.223C155.68 150.309 155.418 149.602 154.895 149.102C154.379 148.602 153.605 148.344 152.574 148.328H149.445V154.047ZM166.766 163.234C164.961 163.234 163.496 162.668 162.371 161.535C161.254 160.395 160.695 158.879 160.695 156.988V156.637C160.695 155.371 160.938 154.242 161.422 153.25C161.914 152.25 162.602 151.473 163.484 150.918C164.367 150.363 165.352 150.086 166.438 150.086C168.164 150.086 169.496 150.637 170.434 151.738C171.379 152.84 171.852 154.398 171.852 156.414V157.562H163.566C163.652 158.609 164 159.438 164.609 160.047C165.227 160.656 166 160.961 166.93 160.961C168.234 160.961 169.297 160.434 170.117 159.379L171.652 160.844C171.145 161.602 170.465 162.191 169.613 162.613C168.77 163.027 167.82 163.234 166.766 163.234ZM166.426 152.371C165.645 152.371 165.012 152.645 164.527 153.191C164.051 153.738 163.746 154.5 163.613 155.477H169.039V155.266C168.977 154.312 168.723 153.594 168.277 153.109C167.832 152.617 167.215 152.371 166.426 152.371ZM173.539 156.555C173.539 154.57 173.992 152.996 174.898 151.832C175.805 150.668 177.031 150.086 178.578 150.086C179.992 150.086 181.113 150.582 181.941 151.574L182.105 150.32H184.637V167.875H181.789V161.922C180.961 162.797 179.883 163.234 178.555 163.234C177.039 163.234 175.824 162.645 174.91 161.465C173.996 160.277 173.539 158.641 173.539 156.555ZM176.387 156.801C176.387 158.098 176.641 159.117 177.148 159.859C177.664 160.594 178.375 160.961 179.281 160.961C180.406 160.961 181.242 160.48 181.789 159.52V153.754C181.242 152.832 180.414 152.371 179.305 152.371C178.398 152.371 177.684 152.734 177.16 153.461C176.645 154.188 176.387 155.301 176.387 156.801ZM195.395 161.758C194.559 162.742 193.371 163.234 191.832 163.234C190.457 163.234 189.414 162.832 188.703 162.027C188 161.223 187.648 160.059 187.648 158.535V150.32H190.496V158.5C190.496 160.109 191.164 160.914 192.5 160.914C193.883 160.914 194.816 160.418 195.301 159.426V150.32H198.148V163H195.465L195.395 161.758ZM206.633 163.234C204.828 163.234 203.363 162.668 202.238 161.535C201.121 160.395 200.562 158.879 200.562 156.988V156.637C200.562 155.371 200.805 154.242 201.289 153.25C201.781 152.25 202.469 151.473 203.352 150.918C204.234 150.363 205.219 150.086 206.305 150.086C208.031 150.086 209.363 150.637 210.301 151.738C211.246 152.84 211.719 154.398 211.719 156.414V157.562H203.434C203.52 158.609 203.867 159.438 204.477 160.047C205.094 160.656 205.867 160.961 206.797 160.961C208.102 160.961 209.164 160.434 209.984 159.379L211.52 160.844C211.012 161.602 210.332 162.191 209.48 162.613C208.637 163.027 207.688 163.234 206.633 163.234ZM206.293 152.371C205.512 152.371 204.879 152.645 204.395 153.191C203.918 153.738 203.613 154.5 203.48 155.477H208.906V155.266C208.844 154.312 208.59 153.594 208.145 153.109C207.699 152.617 207.082 152.371 206.293 152.371ZM221.047 159.555C221.047 159.047 220.836 158.66 220.414 158.395C220 158.129 219.309 157.895 218.34 157.691C217.371 157.488 216.562 157.23 215.914 156.918C214.492 156.23 213.781 155.234 213.781 153.93C213.781 152.836 214.242 151.922 215.164 151.188C216.086 150.453 217.258 150.086 218.68 150.086C220.195 150.086 221.418 150.461 222.348 151.211C223.285 151.961 223.754 152.934 223.754 154.129H220.906C220.906 153.582 220.703 153.129 220.297 152.77C219.891 152.402 219.352 152.219 218.68 152.219C218.055 152.219 217.543 152.363 217.145 152.652C216.754 152.941 216.559 153.328 216.559 153.812C216.559 154.25 216.742 154.59 217.109 154.832C217.477 155.074 218.219 155.32 219.336 155.57C220.453 155.812 221.328 156.105 221.961 156.449C222.602 156.785 223.074 157.191 223.379 157.668C223.691 158.145 223.848 158.723 223.848 159.402C223.848 160.543 223.375 161.469 222.43 162.18C221.484 162.883 220.246 163.234 218.715 163.234C217.676 163.234 216.75 163.047 215.938 162.672C215.125 162.297 214.492 161.781 214.039 161.125C213.586 160.469 213.359 159.762 213.359 159.004H216.125C216.164 159.676 216.418 160.195 216.887 160.562C217.355 160.922 217.977 161.102 218.75 161.102C219.5 161.102 220.07 160.961 220.461 160.68C220.852 160.391 221.047 160.016 221.047 159.555ZM229.906 147.238V150.32H232.145V152.43H229.906V159.508C229.906 159.992 230 160.344 230.188 160.562C230.383 160.773 230.727 160.879 231.219 160.879C231.547 160.879 231.879 160.84 232.215 160.762V162.965C231.566 163.145 230.941 163.234 230.34 163.234C228.152 163.234 227.059 162.027 227.059 159.613V152.43H224.973V150.32H227.059V147.238H229.906Z" fill="black"/>
<path d="M722.768 70.7678C723.744 69.7915 723.744 68.2085 722.768 67.2322L706.858 51.3223C705.882 50.346 704.299 50.346 703.322 51.3223C702.346 52.2986 702.346 53.8816 703.322 54.8579L717.464 69L703.322 83.1421C702.346 84.1184 702.346 85.7014 703.322 86.6777C704.299 87.654 705.882 87.654 706.858 86.6777L722.768 70.7678ZM348 71.5H721V66.5H348V71.5Z" fill="black"/>
<path d="M346.232 160.232C345.256 161.209 345.256 162.791 346.232 163.768L362.142 179.678C363.118 180.654 364.701 180.654 365.678 179.678C366.654 178.701 366.654 177.118 365.678 176.142L351.536 162L365.678 147.858C366.654 146.882 366.654 145.299 365.678 144.322C364.701 143.346 363.118 143.346 362.142 144.322L346.232 160.232ZM348 164.5H721V159.5H348V164.5Z" fill="black"/>
<path d="M497.283 29.1997H489.296L487.625 34H483.901L491.689 13.3828H494.904L502.706 34H498.968L497.283 29.1997ZM490.302 26.311H496.277L493.29 17.7583L490.302 26.311ZM508.639 26.3394V34H505.057V13.3828H512.944C515.247 13.3828 517.074 13.9823 518.424 15.1812C519.783 16.38 520.463 17.966 520.463 19.939C520.463 21.9591 519.797 23.5309 518.466 24.6543C517.145 25.7777 515.29 26.3394 512.901 26.3394H508.639ZM508.639 23.4648H512.944C514.218 23.4648 515.191 23.1675 515.861 22.5728C516.531 21.9686 516.866 21.1001 516.866 19.9673C516.866 18.8534 516.526 17.966 515.847 17.3052C515.167 16.6349 514.232 16.2904 513.043 16.2715H508.639V23.4648ZM527.387 34H523.819V13.3828H527.387V34ZM544.932 25.0933L542.595 27.5713V34H539.013V13.3828H542.595V23.0542L544.578 20.6045L550.61 13.3828H554.943L547.282 22.5161L555.382 34H551.134L544.932 25.0933ZM563.354 34.2832C561.173 34.2832 559.403 33.5988 558.044 32.23C556.694 30.8517 556.019 29.0203 556.019 26.7358V26.311C556.019 24.7817 556.312 23.4176 556.897 22.2188C557.492 21.0104 558.322 20.0711 559.389 19.4009C560.456 18.7306 561.645 18.3955 562.958 18.3955C565.044 18.3955 566.653 19.061 567.786 20.3921C568.928 21.7231 569.5 23.6064 569.5 26.042V27.4297H559.488C559.592 28.6947 560.012 29.6953 560.749 30.4316C561.494 31.168 562.429 31.5361 563.552 31.5361C565.129 31.5361 566.413 30.8989 567.404 29.6245L569.259 31.3945C568.645 32.3102 567.824 33.0229 566.795 33.5327C565.775 34.033 564.628 34.2832 563.354 34.2832ZM562.943 21.1567C561.999 21.1567 561.235 21.4871 560.649 22.1479C560.074 22.8088 559.705 23.7292 559.545 24.9092H566.101V24.6543C566.026 23.5026 565.719 22.6341 565.181 22.0488C564.643 21.4541 563.897 21.1567 562.943 21.1567ZM577.344 29.0723L580.459 18.6787H584.127L578.038 36.3223C577.104 38.8994 575.518 40.188 573.28 40.188C572.78 40.188 572.228 40.103 571.624 39.9331V37.271L572.275 37.3135C573.143 37.3135 573.795 37.153 574.229 36.832C574.673 36.5205 575.022 35.9919 575.277 35.2461L575.772 33.9292L570.392 18.6787H574.102L577.344 29.0723Z" fill="black"/>
<path d="M491.01 211.2H483.023L481.353 216H477.628L485.417 195.383H488.631L496.433 216H492.695L491.01 211.2ZM484.029 208.311H490.004L487.017 199.758L484.029 208.311ZM502.366 208.339V216H498.784V195.383H506.671C508.974 195.383 510.801 195.982 512.151 197.181C513.51 198.38 514.19 199.966 514.19 201.939C514.19 203.959 513.524 205.531 512.193 206.654C510.872 207.778 509.017 208.339 506.628 208.339H502.366ZM502.366 205.465H506.671C507.945 205.465 508.918 205.167 509.588 204.573C510.258 203.969 510.593 203.1 510.593 201.967C510.593 200.853 510.253 199.966 509.574 199.305C508.894 198.635 507.959 198.29 506.77 198.271H502.366V205.465ZM521.114 216H517.546V195.383H521.114V216ZM532.74 216V195.383H538.829C540.651 195.383 542.265 195.789 543.671 196.601C545.087 197.412 546.182 198.564 546.957 200.056C547.731 201.547 548.118 203.256 548.118 205.182V206.215C548.118 208.169 547.726 209.888 546.942 211.37C546.168 212.852 545.059 213.994 543.615 214.796C542.18 215.599 540.533 216 538.673 216H532.74ZM536.322 198.271V213.14H538.659C540.537 213.14 541.977 212.554 542.978 211.384C543.988 210.204 544.502 208.514 544.521 206.314V205.167C544.521 202.93 544.035 201.222 543.062 200.042C542.09 198.861 540.679 198.271 538.829 198.271H536.322ZM560.508 216C560.357 215.707 560.225 215.231 560.111 214.57C559.016 215.712 557.676 216.283 556.09 216.283C554.551 216.283 553.296 215.844 552.323 214.966C551.351 214.088 550.865 213.003 550.865 211.709C550.865 210.076 551.469 208.826 552.677 207.957C553.895 207.079 555.632 206.64 557.888 206.64H559.998V205.635C559.998 204.842 559.776 204.209 559.333 203.737C558.889 203.256 558.214 203.015 557.308 203.015C556.524 203.015 555.882 203.213 555.382 203.61C554.882 203.997 554.631 204.493 554.631 205.097H551.19C551.19 204.257 551.469 203.473 552.026 202.746C552.583 202.01 553.338 201.434 554.292 201.019C555.254 200.603 556.326 200.396 557.506 200.396C559.299 200.396 560.73 200.849 561.796 201.755C562.863 202.652 563.411 203.917 563.439 205.55V212.46C563.439 213.838 563.632 214.938 564.02 215.759V216H560.508ZM556.727 213.522C557.407 213.522 558.044 213.357 558.639 213.026C559.243 212.696 559.696 212.252 559.998 211.695V208.807H558.143C556.869 208.807 555.91 209.028 555.269 209.472C554.627 209.916 554.306 210.544 554.306 211.355C554.306 212.016 554.523 212.545 554.957 212.941C555.401 213.328 555.991 213.522 556.727 213.522ZM571.354 196.955V200.679H574.059V203.228H571.354V211.78C571.354 212.366 571.468 212.79 571.694 213.055C571.93 213.31 572.346 213.437 572.94 213.437C573.337 213.437 573.738 213.39 574.144 213.295V215.958C573.361 216.175 572.605 216.283 571.878 216.283C569.235 216.283 567.914 214.825 567.914 211.908V203.228H565.393V200.679H567.914V196.955H571.354ZM585.854 216C585.703 215.707 585.571 215.231 585.458 214.57C584.363 215.712 583.022 216.283 581.437 216.283C579.898 216.283 578.642 215.844 577.67 214.966C576.698 214.088 576.211 213.003 576.211 211.709C576.211 210.076 576.816 208.826 578.024 207.957C579.242 207.079 580.979 206.64 583.235 206.64H585.345V205.635C585.345 204.842 585.123 204.209 584.679 203.737C584.236 203.256 583.561 203.015 582.654 203.015C581.871 203.015 581.229 203.213 580.729 203.61C580.228 203.997 579.978 204.493 579.978 205.097H576.537C576.537 204.257 576.816 203.473 577.373 202.746C577.93 202.01 578.685 201.434 579.638 201.019C580.601 200.603 581.673 200.396 582.853 200.396C584.646 200.396 586.076 200.849 587.143 201.755C588.21 202.652 588.757 203.917 588.786 205.55V212.46C588.786 213.838 588.979 214.938 589.366 215.759V216H585.854ZM582.074 213.522C582.753 213.522 583.391 213.357 583.985 213.026C584.59 212.696 585.043 212.252 585.345 211.695V208.807H583.49C582.215 208.807 581.257 209.028 580.615 209.472C579.973 209.916 579.652 210.544 579.652 211.355C579.652 212.016 579.869 212.545 580.304 212.941C580.747 213.328 581.337 213.522 582.074 213.522Z" fill="black"/>
</svg>
