<svg width="1702" height="231" viewBox="0 0 1702 231" fill="none" xmlns="http://www.w3.org/2000/svg">
<path d="M984.818 0H776.182C763.432 0 753 10.395 753 23.1V161.7C753 174.405 763.432 184.8 776.182 184.8H857.318L834.136 219.45V231H926.864V219.45L903.682 184.8H984.818C997.568 184.8 1008 174.405 1008 161.7V23.1C1008 10.395 997.568 0 984.818 0ZM984.818 138.6H776.182V23.1H984.818V138.6Z" fill="black"/>
<path d="M803.762 83.3394V91H800.179V70.3828H808.066C810.37 70.3828 812.196 70.9823 813.546 72.1812C814.906 73.38 815.585 74.966 815.585 76.939C815.585 78.9591 814.92 80.5309 813.589 81.6543C812.267 82.7777 810.412 83.3394 808.024 83.3394H803.762ZM803.762 80.4648H808.066C809.341 80.4648 810.313 80.1675 810.983 79.5728C811.654 78.9686 811.989 78.1001 811.989 76.9673C811.989 75.8534 811.649 74.966 810.969 74.3052C810.29 73.6349 809.355 73.2904 808.166 73.2715H803.762V80.4648ZM826.418 78.8223C825.965 78.7467 825.498 78.709 825.016 78.709C823.44 78.709 822.378 79.3132 821.83 80.5215V91H818.389V75.6787H821.674L821.759 77.3921C822.59 76.061 823.742 75.3955 825.214 75.3955C825.705 75.3955 826.111 75.4616 826.432 75.5938L826.418 78.8223ZM827.438 83.1978C827.438 81.6968 827.735 80.3468 828.33 79.1479C828.924 77.9396 829.76 77.0145 830.836 76.3726C831.912 75.7212 833.149 75.3955 834.546 75.3955C836.613 75.3955 838.289 76.061 839.573 77.3921C840.866 78.7231 841.565 80.4884 841.668 82.688L841.683 83.4951C841.683 85.0055 841.39 86.3555 840.805 87.5449C840.229 88.7344 839.398 89.6548 838.312 90.3062C837.236 90.9575 835.99 91.2832 834.574 91.2832C832.412 91.2832 830.68 90.5658 829.377 89.1309C828.084 87.6865 827.438 85.7655 827.438 83.3677V83.1978ZM830.878 83.4951C830.878 85.0716 831.204 86.3083 831.855 87.2051C832.507 88.0924 833.413 88.5361 834.574 88.5361C835.735 88.5361 836.637 88.083 837.279 87.1768C837.93 86.2705 838.256 84.9442 838.256 83.1978C838.256 81.6496 837.921 80.4224 837.25 79.5161C836.59 78.6099 835.688 78.1567 834.546 78.1567C833.423 78.1567 832.53 78.6051 831.87 79.502C831.209 80.3893 830.878 81.7204 830.878 83.4951ZM849.782 80.7197L852.699 75.6787H856.522L851.835 83.2261L856.678 91H852.883L849.825 85.7607L846.78 91H842.957L847.8 83.2261L843.127 75.6787H846.922L849.782 80.7197ZM864.226 86.0723L867.341 75.6787H871.008L864.919 93.3223C863.985 95.8994 862.399 97.188 860.162 97.188C859.661 97.188 859.109 97.103 858.505 96.9331V94.271L859.156 94.3135C860.025 94.3135 860.676 94.153 861.11 93.832C861.554 93.5205 861.903 92.9919 862.158 92.2461L862.654 90.9292L857.273 75.6787H860.983L864.226 86.0723ZM891.328 85.6899C891.328 84.7837 891.007 84.0851 890.365 83.5942C889.733 83.1034 888.586 82.6077 886.924 82.1074C885.263 81.6071 883.941 81.0501 882.959 80.4365C881.081 79.2565 880.142 77.7178 880.142 75.8203C880.142 74.1589 880.817 72.79 882.167 71.7139C883.526 70.6377 885.286 70.0996 887.448 70.0996C888.883 70.0996 890.162 70.3639 891.286 70.8926C892.409 71.4212 893.292 72.1764 893.934 73.1582C894.576 74.1305 894.896 75.2114 894.896 76.4009H891.328C891.328 75.3247 890.988 74.4845 890.309 73.8804C889.638 73.2668 888.675 72.96 887.42 72.96C886.249 72.96 885.338 73.2101 884.687 73.7104C884.045 74.2108 883.724 74.9093 883.724 75.8062C883.724 76.5614 884.073 77.1938 884.772 77.7036C885.471 78.2039 886.622 78.6948 888.227 79.1763C889.832 79.6483 891.12 80.1911 892.093 80.8047C893.065 81.4089 893.778 82.1074 894.231 82.9004C894.684 83.6839 894.911 84.6043 894.911 85.6616C894.911 87.3797 894.25 88.7485 892.928 89.7681C891.616 90.7782 889.832 91.2832 887.576 91.2832C886.084 91.2832 884.711 91.0094 883.455 90.4619C882.209 89.9049 881.237 89.1403 880.538 88.168C879.849 87.1956 879.504 86.0628 879.504 84.7695H883.087C883.087 85.9401 883.474 86.8464 884.248 87.4883C885.022 88.1302 886.131 88.4512 887.576 88.4512C888.822 88.4512 889.756 88.201 890.379 87.7007C891.012 87.1909 891.328 86.5207 891.328 85.6899ZM904.469 91.2832C902.288 91.2832 900.518 90.5988 899.159 89.23C897.809 87.8517 897.134 86.0203 897.134 83.7358V83.311C897.134 81.7817 897.426 80.4176 898.012 79.2188C898.606 78.0104 899.437 77.0711 900.504 76.4009C901.571 75.7306 902.76 75.3955 904.072 75.3955C906.159 75.3955 907.768 76.061 908.901 77.3921C910.043 78.7231 910.614 80.6064 910.614 83.042V84.4297H900.603C900.707 85.6947 901.127 86.6953 901.863 87.4316C902.609 88.168 903.544 88.5361 904.667 88.5361C906.243 88.5361 907.527 87.8989 908.519 86.6245L910.374 88.3945C909.76 89.3102 908.939 90.0229 907.91 90.5327C906.89 91.033 905.743 91.2832 904.469 91.2832ZM904.058 78.1567C903.114 78.1567 902.349 78.4871 901.764 79.1479C901.188 79.8088 900.82 80.7292 900.66 81.9092H907.216V81.6543C907.14 80.5026 906.833 79.6341 906.295 79.0488C905.757 78.4541 905.012 78.1567 904.058 78.1567ZM921.319 78.8223C920.866 78.7467 920.399 78.709 919.917 78.709C918.341 78.709 917.279 79.3132 916.731 80.5215V91H913.291V75.6787H916.576L916.661 77.3921C917.491 76.061 918.643 75.3955 920.116 75.3955C920.607 75.3955 921.013 75.4616 921.333 75.5938L921.319 78.8223ZM929.15 86.6387L932.393 75.6787H935.947L930.637 91H927.649L922.296 75.6787H925.865L929.15 86.6387ZM944.655 91.2832C942.475 91.2832 940.705 90.5988 939.345 89.23C937.995 87.8517 937.32 86.0203 937.32 83.7358V83.311C937.32 81.7817 937.613 80.4176 938.198 79.2188C938.793 78.0104 939.624 77.0711 940.69 76.4009C941.757 75.7306 942.947 75.3955 944.259 75.3955C946.345 75.3955 947.955 76.061 949.087 77.3921C950.23 78.7231 950.801 80.6064 950.801 83.042V84.4297H940.79C940.893 85.6947 941.313 86.6953 942.05 87.4316C942.796 88.168 943.73 88.5361 944.854 88.5361C946.43 88.5361 947.714 87.8989 948.705 86.6245L950.56 88.3945C949.946 89.3102 949.125 90.0229 948.096 90.5327C947.077 91.033 945.93 91.2832 944.655 91.2832ZM944.245 78.1567C943.301 78.1567 942.536 78.4871 941.951 79.1479C941.375 79.8088 941.007 80.7292 940.846 81.9092H947.402V81.6543C947.327 80.5026 947.02 79.6341 946.482 79.0488C945.944 78.4541 945.198 78.1567 944.245 78.1567ZM961.506 78.8223C961.053 78.7467 960.585 78.709 960.104 78.709C958.528 78.709 957.465 79.3132 956.918 80.5215V91H953.477V75.6787H956.762L956.847 77.3921C957.678 76.061 958.83 75.3955 960.302 75.3955C960.793 75.3955 961.199 75.4616 961.52 75.5938L961.506 78.8223Z" fill="black"/>
<path d="M1678.82 0H1470.18C1457.43 0 1447 10.395 1447 23.1V161.7C1447 174.405 1457.43 184.8 1470.18 184.8H1551.32L1528.14 219.45V231H1620.86V219.45L1597.68 184.8H1678.82C1691.57 184.8 1702 174.405 1702 161.7V23.1C1702 10.395 1691.57 0 1678.82 0ZM1678.82 138.6H1470.18V23.1H1678.82V138.6Z" fill="black"/>
<path d="M1519.27 86.1997H1511.28L1509.61 91H1505.89L1513.68 70.3828H1516.89L1524.69 91H1520.96L1519.27 86.1997ZM1512.29 83.311H1518.27L1515.28 74.7583L1512.29 83.311ZM1530.63 83.3394V91H1527.04V70.3828H1534.93C1537.24 70.3828 1539.06 70.9823 1540.41 72.1812C1541.77 73.38 1542.45 74.966 1542.45 76.939C1542.45 78.9591 1541.79 80.5309 1540.45 81.6543C1539.13 82.7777 1537.28 83.3394 1534.89 83.3394H1530.63ZM1530.63 80.4648H1534.93C1536.21 80.4648 1537.18 80.1675 1537.85 79.5728C1538.52 78.9686 1538.85 78.1001 1538.85 76.9673C1538.85 75.8534 1538.51 74.966 1537.83 74.3052C1537.16 73.6349 1536.22 73.2904 1535.03 73.2715H1530.63V80.4648ZM1549.38 91H1545.81V70.3828H1549.38V91ZM1571.78 85.6899C1571.78 84.7837 1571.46 84.0851 1570.81 83.5942C1570.18 83.1034 1569.03 82.6077 1567.37 82.1074C1565.71 81.6071 1564.39 81.0501 1563.41 80.4365C1561.53 79.2565 1560.59 77.7178 1560.59 75.8203C1560.59 74.1589 1561.27 72.79 1562.62 71.7139C1563.97 70.6377 1565.74 70.0996 1567.9 70.0996C1569.33 70.0996 1570.61 70.3639 1571.73 70.8926C1572.86 71.4212 1573.74 72.1764 1574.38 73.1582C1575.02 74.1305 1575.35 75.2114 1575.35 76.4009H1571.78C1571.78 75.3247 1571.44 74.4845 1570.76 73.8804C1570.09 73.2668 1569.12 72.96 1567.87 72.96C1566.7 72.96 1565.79 73.2101 1565.14 73.7104C1564.49 74.2108 1564.17 74.9093 1564.17 75.8062C1564.17 76.5614 1564.52 77.1938 1565.22 77.7036C1565.92 78.2039 1567.07 78.6948 1568.68 79.1763C1570.28 79.6483 1571.57 80.1911 1572.54 80.8047C1573.51 81.4089 1574.23 82.1074 1574.68 82.9004C1575.13 83.6839 1575.36 84.6043 1575.36 85.6616C1575.36 87.3797 1574.7 88.7485 1573.38 89.7681C1572.06 90.7782 1570.28 91.2832 1568.02 91.2832C1566.53 91.2832 1565.16 91.0094 1563.9 90.4619C1562.66 89.9049 1561.69 89.1403 1560.99 88.168C1560.3 87.1956 1559.95 86.0628 1559.95 84.7695H1563.54C1563.54 85.9401 1563.92 86.8464 1564.7 87.4883C1565.47 88.1302 1566.58 88.4512 1568.02 88.4512C1569.27 88.4512 1570.21 88.201 1570.83 87.7007C1571.46 87.1909 1571.78 86.5207 1571.78 85.6899ZM1584.92 91.2832C1582.74 91.2832 1580.97 90.5988 1579.61 89.23C1578.26 87.8517 1577.58 86.0203 1577.58 83.7358V83.311C1577.58 81.7817 1577.88 80.4176 1578.46 79.2188C1579.06 78.0104 1579.89 77.0711 1580.95 76.4009C1582.02 75.7306 1583.21 75.3955 1584.52 75.3955C1586.61 75.3955 1588.22 76.061 1589.35 77.3921C1590.49 78.7231 1591.06 80.6064 1591.06 83.042V84.4297H1581.05C1581.16 85.6947 1581.58 86.6953 1582.31 87.4316C1583.06 88.168 1583.99 88.5361 1585.12 88.5361C1586.69 88.5361 1587.98 87.8989 1588.97 86.6245L1590.82 88.3945C1590.21 89.3102 1589.39 90.0229 1588.36 90.5327C1587.34 91.033 1586.19 91.2832 1584.92 91.2832ZM1584.51 78.1567C1583.56 78.1567 1582.8 78.4871 1582.21 79.1479C1581.64 79.8088 1581.27 80.7292 1581.11 81.9092H1587.66V81.6543C1587.59 80.5026 1587.28 79.6341 1586.74 79.0488C1586.21 78.4541 1585.46 78.1567 1584.51 78.1567ZM1601.77 78.8223C1601.31 78.7467 1600.85 78.709 1600.37 78.709C1598.79 78.709 1597.73 79.3132 1597.18 80.5215V91H1593.74V75.6787H1597.02L1597.11 77.3921C1597.94 76.061 1599.09 75.3955 1600.56 75.3955C1601.06 75.3955 1601.46 75.4616 1601.78 75.5938L1601.77 78.8223ZM1609.6 86.6387L1612.84 75.6787H1616.4L1611.09 91H1608.1L1602.75 75.6787H1606.31L1609.6 86.6387ZM1625.1 91.2832C1622.92 91.2832 1621.15 90.5988 1619.79 89.23C1618.44 87.8517 1617.77 86.0203 1617.77 83.7358V83.311C1617.77 81.7817 1618.06 80.4176 1618.65 79.2188C1619.24 78.0104 1620.07 77.0711 1621.14 76.4009C1622.21 75.7306 1623.4 75.3955 1624.71 75.3955C1626.79 75.3955 1628.4 76.061 1629.54 77.3921C1630.68 78.7231 1631.25 80.6064 1631.25 83.042V84.4297H1621.24C1621.34 85.6947 1621.76 86.6953 1622.5 87.4316C1623.24 88.168 1624.18 88.5361 1625.3 88.5361C1626.88 88.5361 1628.16 87.8989 1629.15 86.6245L1631.01 88.3945C1630.4 89.3102 1629.57 90.0229 1628.54 90.5327C1627.53 91.033 1626.38 91.2832 1625.1 91.2832ZM1624.69 78.1567C1623.75 78.1567 1622.98 78.4871 1622.4 79.1479C1621.82 79.8088 1621.46 80.7292 1621.29 81.9092H1627.85V81.6543C1627.78 80.5026 1627.47 79.6341 1626.93 79.0488C1626.39 78.4541 1625.65 78.1567 1624.69 78.1567ZM1641.95 78.8223C1641.5 78.7467 1641.03 78.709 1640.55 78.709C1638.98 78.709 1637.91 79.3132 1637.37 80.5215V91H1633.93V75.6787H1637.21L1637.3 77.3921C1638.13 76.061 1639.28 75.3955 1640.75 75.3955C1641.24 75.3955 1641.65 75.4616 1641.97 75.5938L1641.95 78.8223Z" fill="black"/>
<rect x="4" y="33.8474" width="313.564" height="164.153" rx="9" fill="white" stroke="black" stroke-width="8"/>
<path d="M8.43549 37L160.782 115.924L314 38.6947" stroke="black" stroke-width="8"/>
<path d="M90.8633 163V145.938H95.9023C97.4102 145.938 98.7461 146.273 99.9102 146.945C101.082 147.617 101.988 148.57 102.629 149.805C103.27 151.039 103.59 152.453 103.59 154.047V154.902C103.59 156.52 103.266 157.941 102.617 159.168C101.977 160.395 101.059 161.34 99.8633 162.004C98.6758 162.668 97.3125 163 95.7734 163H90.8633ZM93.8281 148.328V160.633H95.7617C97.3164 160.633 98.5078 160.148 99.3359 159.18C100.172 158.203 100.598 156.805 100.613 154.984V154.035C100.613 152.184 100.211 150.77 99.4062 149.793C98.6016 148.816 97.4336 148.328 95.9023 148.328H93.8281ZM113.844 163C113.719 162.758 113.609 162.363 113.516 161.816C112.609 162.762 111.5 163.234 110.188 163.234C108.914 163.234 107.875 162.871 107.07 162.145C106.266 161.418 105.863 160.52 105.863 159.449C105.863 158.098 106.363 157.062 107.363 156.344C108.371 155.617 109.809 155.254 111.676 155.254H113.422V154.422C113.422 153.766 113.238 153.242 112.871 152.852C112.504 152.453 111.945 152.254 111.195 152.254C110.547 152.254 110.016 152.418 109.602 152.746C109.188 153.066 108.98 153.477 108.98 153.977H106.133C106.133 153.281 106.363 152.633 106.824 152.031C107.285 151.422 107.91 150.945 108.699 150.602C109.496 150.258 110.383 150.086 111.359 150.086C112.844 150.086 114.027 150.461 114.91 151.211C115.793 151.953 116.246 153 116.27 154.352V160.07C116.27 161.211 116.43 162.121 116.75 162.801V163H113.844ZM110.715 160.949C111.277 160.949 111.805 160.812 112.297 160.539C112.797 160.266 113.172 159.898 113.422 159.438V157.047H111.887C110.832 157.047 110.039 157.23 109.508 157.598C108.977 157.965 108.711 158.484 108.711 159.156C108.711 159.703 108.891 160.141 109.25 160.469C109.617 160.789 110.105 160.949 110.715 160.949ZM122.82 147.238V150.32H125.059V152.43H122.82V159.508C122.82 159.992 122.914 160.344 123.102 160.562C123.297 160.773 123.641 160.879 124.133 160.879C124.461 160.879 124.793 160.84 125.129 160.762V162.965C124.48 163.145 123.855 163.234 123.254 163.234C121.066 163.234 119.973 162.027 119.973 159.613V152.43H117.887V150.32H119.973V147.238H122.82ZM134.82 163C134.695 162.758 134.586 162.363 134.492 161.816C133.586 162.762 132.477 163.234 131.164 163.234C129.891 163.234 128.852 162.871 128.047 162.145C127.242 161.418 126.84 160.52 126.84 159.449C126.84 158.098 127.34 157.062 128.34 156.344C129.348 155.617 130.785 155.254 132.652 155.254H134.398V154.422C134.398 153.766 134.215 153.242 133.848 152.852C133.48 152.453 132.922 152.254 132.172 152.254C131.523 152.254 130.992 152.418 130.578 152.746C130.164 153.066 129.957 153.477 129.957 153.977H127.109C127.109 153.281 127.34 152.633 127.801 152.031C128.262 151.422 128.887 150.945 129.676 150.602C130.473 150.258 131.359 150.086 132.336 150.086C133.82 150.086 135.004 150.461 135.887 151.211C136.77 151.953 137.223 153 137.246 154.352V160.07C137.246 161.211 137.406 162.121 137.727 162.801V163H134.82ZM131.691 160.949C132.254 160.949 132.781 160.812 133.273 160.539C133.773 160.266 134.148 159.898 134.398 159.438V157.047H132.863C131.809 157.047 131.016 157.23 130.484 157.598C129.953 157.965 129.688 158.484 129.688 159.156C129.688 159.703 129.867 160.141 130.227 160.469C130.594 160.789 131.082 160.949 131.691 160.949ZM152.75 156.426H149.445V163H146.48V145.938H152.48C154.449 145.938 155.969 146.379 157.039 147.262C158.109 148.145 158.645 149.422 158.645 151.094C158.645 152.234 158.367 153.191 157.812 153.965C157.266 154.73 156.5 155.32 155.516 155.734L159.348 162.848V163H156.172L152.75 156.426ZM149.445 154.047H152.492C153.492 154.047 154.273 153.797 154.836 153.297C155.398 152.789 155.68 152.098 155.68 151.223C155.68 150.309 155.418 149.602 154.895 149.102C154.379 148.602 153.605 148.344 152.574 148.328H149.445V154.047ZM166.766 163.234C164.961 163.234 163.496 162.668 162.371 161.535C161.254 160.395 160.695 158.879 160.695 156.988V156.637C160.695 155.371 160.938 154.242 161.422 153.25C161.914 152.25 162.602 151.473 163.484 150.918C164.367 150.363 165.352 150.086 166.438 150.086C168.164 150.086 169.496 150.637 170.434 151.738C171.379 152.84 171.852 154.398 171.852 156.414V157.562H163.566C163.652 158.609 164 159.438 164.609 160.047C165.227 160.656 166 160.961 166.93 160.961C168.234 160.961 169.297 160.434 170.117 159.379L171.652 160.844C171.145 161.602 170.465 162.191 169.613 162.613C168.77 163.027 167.82 163.234 166.766 163.234ZM166.426 152.371C165.645 152.371 165.012 152.645 164.527 153.191C164.051 153.738 163.746 154.5 163.613 155.477H169.039V155.266C168.977 154.312 168.723 153.594 168.277 153.109C167.832 152.617 167.215 152.371 166.426 152.371ZM173.539 156.555C173.539 154.57 173.992 152.996 174.898 151.832C175.805 150.668 177.031 150.086 178.578 150.086C179.992 150.086 181.113 150.582 181.941 151.574L182.105 150.32H184.637V167.875H181.789V161.922C180.961 162.797 179.883 163.234 178.555 163.234C177.039 163.234 175.824 162.645 174.91 161.465C173.996 160.277 173.539 158.641 173.539 156.555ZM176.387 156.801C176.387 158.098 176.641 159.117 177.148 159.859C177.664 160.594 178.375 160.961 179.281 160.961C180.406 160.961 181.242 160.48 181.789 159.52V153.754C181.242 152.832 180.414 152.371 179.305 152.371C178.398 152.371 177.684 152.734 177.16 153.461C176.645 154.188 176.387 155.301 176.387 156.801ZM195.395 161.758C194.559 162.742 193.371 163.234 191.832 163.234C190.457 163.234 189.414 162.832 188.703 162.027C188 161.223 187.648 160.059 187.648 158.535V150.32H190.496V158.5C190.496 160.109 191.164 160.914 192.5 160.914C193.883 160.914 194.816 160.418 195.301 159.426V150.32H198.148V163H195.465L195.395 161.758ZM206.633 163.234C204.828 163.234 203.363 162.668 202.238 161.535C201.121 160.395 200.562 158.879 200.562 156.988V156.637C200.562 155.371 200.805 154.242 201.289 153.25C201.781 152.25 202.469 151.473 203.352 150.918C204.234 150.363 205.219 150.086 206.305 150.086C208.031 150.086 209.363 150.637 210.301 151.738C211.246 152.84 211.719 154.398 211.719 156.414V157.562H203.434C203.52 158.609 203.867 159.438 204.477 160.047C205.094 160.656 205.867 160.961 206.797 160.961C208.102 160.961 209.164 160.434 209.984 159.379L211.52 160.844C211.012 161.602 210.332 162.191 209.48 162.613C208.637 163.027 207.688 163.234 206.633 163.234ZM206.293 152.371C205.512 152.371 204.879 152.645 204.395 153.191C203.918 153.738 203.613 154.5 203.48 155.477H208.906V155.266C208.844 154.312 208.59 153.594 208.145 153.109C207.699 152.617 207.082 152.371 206.293 152.371ZM221.047 159.555C221.047 159.047 220.836 158.66 220.414 158.395C220 158.129 219.309 157.895 218.34 157.691C217.371 157.488 216.562 157.23 215.914 156.918C214.492 156.23 213.781 155.234 213.781 153.93C213.781 152.836 214.242 151.922 215.164 151.188C216.086 150.453 217.258 150.086 218.68 150.086C220.195 150.086 221.418 150.461 222.348 151.211C223.285 151.961 223.754 152.934 223.754 154.129H220.906C220.906 153.582 220.703 153.129 220.297 152.77C219.891 152.402 219.352 152.219 218.68 152.219C218.055 152.219 217.543 152.363 217.145 152.652C216.754 152.941 216.559 153.328 216.559 153.812C216.559 154.25 216.742 154.59 217.109 154.832C217.477 155.074 218.219 155.32 219.336 155.57C220.453 155.812 221.328 156.105 221.961 156.449C222.602 156.785 223.074 157.191 223.379 157.668C223.691 158.145 223.848 158.723 223.848 159.402C223.848 160.543 223.375 161.469 222.43 162.18C221.484 162.883 220.246 163.234 218.715 163.234C217.676 163.234 216.75 163.047 215.938 162.672C215.125 162.297 214.492 161.781 214.039 161.125C213.586 160.469 213.359 159.762 213.359 159.004H216.125C216.164 159.676 216.418 160.195 216.887 160.562C217.355 160.922 217.977 161.102 218.75 161.102C219.5 161.102 220.07 160.961 220.461 160.68C220.852 160.391 221.047 160.016 221.047 159.555ZM229.906 147.238V150.32H232.145V152.43H229.906V159.508C229.906 159.992 230 160.344 230.188 160.562C230.383 160.773 230.727 160.879 231.219 160.879C231.547 160.879 231.879 160.84 232.215 160.762V162.965C231.566 163.145 230.941 163.234 230.34 163.234C228.152 163.234 227.059 162.027 227.059 159.613V152.43H224.973V150.32H227.059V147.238H229.906Z" fill="black"/>
<path d="M721.768 70.7678C722.744 69.7915 722.744 68.2085 721.768 67.2322L705.858 51.3223C704.882 50.346 703.299 50.346 702.322 51.3223C701.346 52.2986 701.346 53.8816 702.322 54.8579L716.464 69L702.322 83.1421C701.346 84.1184 701.346 85.7014 702.322 86.6777C703.299 87.654 704.882 87.654 705.858 86.6777L721.768 70.7678ZM347 71.5H720V66.5H347V71.5Z" fill="black"/>
<path d="M345.232 160.232C344.256 161.209 344.256 162.791 345.232 163.768L361.142 179.678C362.118 180.654 363.701 180.654 364.678 179.678C365.654 178.701 365.654 177.118 364.678 176.142L350.536 162L364.678 147.858C365.654 146.882 365.654 145.299 364.678 144.322C363.701 143.346 362.118 143.346 361.142 144.322L345.232 160.232ZM347 164.5H720V159.5H347V164.5Z" fill="black"/>
<path d="M466.759 29.1997H458.772L457.102 34H453.377L461.166 13.3828H464.38L472.182 34H468.444L466.759 29.1997ZM459.778 26.311H465.753L462.766 17.7583L459.778 26.311ZM478.115 26.3394V34H474.533V13.3828H482.42C484.723 13.3828 486.55 13.9823 487.9 15.1812C489.259 16.38 489.939 17.966 489.939 19.939C489.939 21.9591 489.273 23.5309 487.942 24.6543C486.621 25.7777 484.766 26.3394 482.377 26.3394H478.115ZM478.115 23.4648H482.42C483.694 23.4648 484.667 23.1675 485.337 22.5728C486.007 21.9686 486.342 21.1001 486.342 19.9673C486.342 18.8534 486.002 17.966 485.323 17.3052C484.643 16.6349 483.708 16.2904 482.519 16.2715H478.115V23.4648ZM496.863 34H493.295V13.3828H496.863V34ZM516.064 26.0562H512.071V34H508.489V13.3828H515.739C518.118 13.3828 519.954 13.9162 521.247 14.9829C522.54 16.0496 523.187 17.5931 523.187 19.6133C523.187 20.9915 522.852 22.1479 522.182 23.0825C521.521 24.0076 520.596 24.7204 519.406 25.2207L524.037 33.8159V34H520.199L516.064 26.0562ZM512.071 23.1816H515.753C516.961 23.1816 517.905 22.8796 518.585 22.2754C519.265 21.6618 519.604 20.8263 519.604 19.769C519.604 18.6646 519.288 17.8102 518.656 17.2061C518.033 16.6019 517.098 16.2904 515.852 16.2715H512.071V23.1816ZM533 34.2832C530.819 34.2832 529.049 33.5988 527.69 32.23C526.34 30.8517 525.665 29.0203 525.665 26.7358V26.311C525.665 24.7817 525.958 23.4176 526.543 22.2188C527.138 21.0104 527.968 20.0711 529.035 19.4009C530.102 18.7306 531.291 18.3955 532.604 18.3955C534.69 18.3955 536.299 19.061 537.432 20.3921C538.574 21.7231 539.146 23.6064 539.146 26.042V27.4297H529.134C529.238 28.6947 529.658 29.6953 530.395 30.4316C531.14 31.168 532.075 31.5361 533.198 31.5361C534.775 31.5361 536.059 30.8989 537.05 29.6245L538.905 31.3945C538.291 32.3102 537.47 33.0229 536.441 33.5327C535.421 34.033 534.274 34.2832 533 34.2832ZM532.589 21.1567C531.645 21.1567 530.881 21.4871 530.295 22.1479C529.72 22.8088 529.351 23.7292 529.191 24.9092H535.747V24.6543C535.672 23.5026 535.365 22.6341 534.827 22.0488C534.289 21.4541 533.543 21.1567 532.589 21.1567ZM541.185 26.2119C541.185 23.8141 541.732 21.9119 542.827 20.5054C543.922 19.0988 545.404 18.3955 547.273 18.3955C548.982 18.3955 550.337 18.995 551.337 20.1938L551.536 18.6787H554.594V39.8906H551.153V32.6973C550.153 33.7546 548.85 34.2832 547.245 34.2832C545.414 34.2832 543.946 33.5705 542.841 32.145C541.737 30.7101 541.185 28.7324 541.185 26.2119ZM544.625 26.5093C544.625 28.0763 544.932 29.3083 545.546 30.2051C546.169 31.0924 547.028 31.5361 548.123 31.5361C549.482 31.5361 550.493 30.9556 551.153 29.7944V22.8276C550.493 21.7137 549.492 21.1567 548.151 21.1567C547.056 21.1567 546.193 21.5957 545.56 22.4736C544.937 23.3516 544.625 24.6968 544.625 26.5093ZM567.593 32.499C566.583 33.6885 565.148 34.2832 563.289 34.2832C561.627 34.2832 560.367 33.797 559.508 32.8247C558.658 31.8524 558.233 30.4458 558.233 28.605V18.6787H561.674V28.5625C561.674 30.5072 562.481 31.4795 564.096 31.4795C565.767 31.4795 566.895 30.88 567.48 29.6812V18.6787H570.921V34H567.678L567.593 32.499ZM581.173 34.2832C578.992 34.2832 577.222 33.5988 575.863 32.23C574.513 30.8517 573.838 29.0203 573.838 26.7358V26.311C573.838 24.7817 574.131 23.4176 574.716 22.2188C575.311 21.0104 576.141 20.0711 577.208 19.4009C578.275 18.7306 579.464 18.3955 580.776 18.3955C582.863 18.3955 584.472 19.061 585.605 20.3921C586.747 21.7231 587.318 23.6064 587.318 26.042V27.4297H577.307C577.411 28.6947 577.831 29.6953 578.567 30.4316C579.313 31.168 580.248 31.5361 581.371 31.5361C582.948 31.5361 584.231 30.8989 585.223 29.6245L587.078 31.3945C586.464 32.3102 585.643 33.0229 584.614 33.5327C583.594 34.033 582.447 34.2832 581.173 34.2832ZM580.762 21.1567C579.818 21.1567 579.054 21.4871 578.468 22.1479C577.892 22.8088 577.524 23.7292 577.364 24.9092H583.92V24.6543C583.844 23.5026 583.538 22.6341 583 22.0488C582.461 21.4541 581.716 21.1567 580.762 21.1567ZM598.59 29.8369C598.59 29.2233 598.335 28.756 597.825 28.4351C597.325 28.1141 596.489 27.8309 595.319 27.5854C594.148 27.34 593.171 27.0285 592.388 26.6509C590.67 25.8201 589.811 24.6165 589.811 23.04C589.811 21.7184 590.368 20.6139 591.481 19.7266C592.595 18.8392 594.011 18.3955 595.729 18.3955C597.561 18.3955 599.038 18.8486 600.162 19.7549C601.294 20.6611 601.861 21.8364 601.861 23.2808H598.42C598.42 22.62 598.174 22.0724 597.684 21.6382C597.193 21.1945 596.541 20.9727 595.729 20.9727C594.974 20.9727 594.356 21.1473 593.875 21.4966C593.403 21.8459 593.167 22.3132 593.167 22.8984C593.167 23.4271 593.388 23.8377 593.832 24.1304C594.276 24.423 595.173 24.7204 596.522 25.0225C597.872 25.3151 598.93 25.6691 599.694 26.0845C600.468 26.4904 601.04 26.9813 601.408 27.5571C601.785 28.133 601.974 28.8315 601.974 29.6528C601.974 31.0311 601.403 32.1497 600.261 33.0088C599.118 33.8584 597.622 34.2832 595.772 34.2832C594.516 34.2832 593.398 34.0566 592.416 33.6035C591.434 33.1504 590.67 32.5273 590.122 31.7344C589.575 30.9414 589.301 30.0871 589.301 29.1714H592.643C592.69 29.9832 592.997 30.611 593.563 31.0547C594.129 31.4889 594.88 31.7061 595.814 31.7061C596.721 31.7061 597.41 31.5361 597.882 31.1963C598.354 30.847 598.59 30.3939 598.59 29.8369ZM609.295 14.9546V18.6787H612V21.2275H609.295V29.7803C609.295 30.3656 609.408 30.7904 609.635 31.0547C609.871 31.3096 610.286 31.437 610.881 31.437C611.277 31.437 611.679 31.3898 612.084 31.2954V33.9575C611.301 34.1746 610.546 34.2832 609.819 34.2832C607.176 34.2832 605.854 32.8247 605.854 29.9077V21.2275H603.333V18.6787H605.854V14.9546H609.295Z" fill="black"/>
<path d="M490.01 211.2H482.023L480.353 216H476.628L484.417 195.383H487.631L495.433 216H491.695L490.01 211.2ZM483.029 208.311H489.004L486.017 199.758L483.029 208.311ZM501.366 208.339V216H497.784V195.383H505.671C507.974 195.383 509.801 195.982 511.151 197.181C512.51 198.38 513.19 199.966 513.19 201.939C513.19 203.959 512.524 205.531 511.193 206.654C509.872 207.778 508.017 208.339 505.628 208.339H501.366ZM501.366 205.465H505.671C506.945 205.465 507.918 205.167 508.588 204.573C509.258 203.969 509.593 203.1 509.593 201.967C509.593 200.853 509.253 199.966 508.574 199.305C507.894 198.635 506.959 198.29 505.77 198.271H501.366V205.465ZM520.114 216H516.546V195.383H520.114V216ZM531.74 216V195.383H537.829C539.651 195.383 541.265 195.789 542.671 196.601C544.087 197.412 545.182 198.564 545.957 200.056C546.731 201.547 547.118 203.256 547.118 205.182V206.215C547.118 208.169 546.726 209.888 545.942 211.37C545.168 212.852 544.059 213.994 542.615 214.796C541.18 215.599 539.533 216 537.673 216H531.74ZM535.322 198.271V213.14H537.659C539.537 213.14 540.977 212.554 541.978 211.384C542.988 210.204 543.502 208.514 543.521 206.314V205.167C543.521 202.93 543.035 201.222 542.062 200.042C541.09 198.861 539.679 198.271 537.829 198.271H535.322ZM559.508 216C559.357 215.707 559.225 215.231 559.111 214.57C558.016 215.712 556.676 216.283 555.09 216.283C553.551 216.283 552.296 215.844 551.323 214.966C550.351 214.088 549.865 213.003 549.865 211.709C549.865 210.076 550.469 208.826 551.677 207.957C552.895 207.079 554.632 206.64 556.888 206.64H558.998V205.635C558.998 204.842 558.776 204.209 558.333 203.737C557.889 203.256 557.214 203.015 556.308 203.015C555.524 203.015 554.882 203.213 554.382 203.61C553.882 203.997 553.631 204.493 553.631 205.097H550.19C550.19 204.257 550.469 203.473 551.026 202.746C551.583 202.01 552.338 201.434 553.292 201.019C554.254 200.603 555.326 200.396 556.506 200.396C558.299 200.396 559.73 200.849 560.796 201.755C561.863 202.652 562.411 203.917 562.439 205.55V212.46C562.439 213.838 562.632 214.938 563.02 215.759V216H559.508ZM555.727 213.522C556.407 213.522 557.044 213.357 557.639 213.026C558.243 212.696 558.696 212.252 558.998 211.695V208.807H557.143C555.869 208.807 554.91 209.028 554.269 209.472C553.627 209.916 553.306 210.544 553.306 211.355C553.306 212.016 553.523 212.545 553.957 212.941C554.401 213.328 554.991 213.522 555.727 213.522ZM570.354 196.955V200.679H573.059V203.228H570.354V211.78C570.354 212.366 570.468 212.79 570.694 213.055C570.93 213.31 571.346 213.437 571.94 213.437C572.337 213.437 572.738 213.39 573.144 213.295V215.958C572.361 216.175 571.605 216.283 570.878 216.283C568.235 216.283 566.914 214.825 566.914 211.908V203.228H564.393V200.679H566.914V196.955H570.354ZM584.854 216C584.703 215.707 584.571 215.231 584.458 214.57C583.363 215.712 582.022 216.283 580.437 216.283C578.898 216.283 577.642 215.844 576.67 214.966C575.698 214.088 575.211 213.003 575.211 211.709C575.211 210.076 575.816 208.826 577.024 207.957C578.242 207.079 579.979 206.64 582.235 206.64H584.345V205.635C584.345 204.842 584.123 204.209 583.679 203.737C583.236 203.256 582.561 203.015 581.654 203.015C580.871 203.015 580.229 203.213 579.729 203.61C579.228 203.997 578.978 204.493 578.978 205.097H575.537C575.537 204.257 575.816 203.473 576.373 202.746C576.93 202.01 577.685 201.434 578.638 201.019C579.601 200.603 580.673 200.396 581.853 200.396C583.646 200.396 585.076 200.849 586.143 201.755C587.21 202.652 587.757 203.917 587.786 205.55V212.46C587.786 213.838 587.979 214.938 588.366 215.759V216H584.854ZM581.074 213.522C581.753 213.522 582.391 213.357 582.985 213.026C583.59 212.696 584.043 212.252 584.345 211.695V208.807H582.49C581.215 208.807 580.257 209.028 579.615 209.472C578.973 209.916 578.652 210.544 578.652 211.355C578.652 212.016 578.869 212.545 579.304 212.941C579.747 213.328 580.337 213.522 581.074 213.522Z" fill="black"/>
<path d="M1415.77 70.7678C1416.74 69.7915 1416.74 68.2085 1415.77 67.2322L1399.86 51.3223C1398.88 50.346 1397.3 50.346 1396.32 51.3223C1395.35 52.2986 1395.35 53.8816 1396.32 54.8579L1410.46 69L1396.32 83.1421C1395.35 84.1184 1395.35 85.7014 1396.32 86.6777C1397.3 87.654 1398.88 87.654 1399.86 86.6777L1415.77 70.7678ZM1041 71.5H1414V66.5H1041V71.5Z" fill="black"/>
<path d="M1039.23 160.232C1038.26 161.209 1038.26 162.791 1039.23 163.768L1055.14 179.678C1056.12 180.654 1057.7 180.654 1058.68 179.678C1059.65 178.701 1059.65 177.118 1058.68 176.142L1044.54 162L1058.68 147.858C1059.65 146.882 1059.65 145.299 1058.68 144.322C1057.7 143.346 1056.12 143.346 1055.14 144.322L1039.23 160.232ZM1041 164.5H1414V159.5H1041V164.5Z" fill="black"/>
<path d="M1190.28 29.1997H1182.3L1180.63 34H1176.9L1184.69 13.3828H1187.9L1195.71 34H1191.97L1190.28 29.1997ZM1183.3 26.311H1189.28L1186.29 17.7583L1183.3 26.311ZM1201.64 26.3394V34H1198.06V13.3828H1205.94C1208.25 13.3828 1210.07 13.9823 1211.42 15.1812C1212.78 16.38 1213.46 17.966 1213.46 19.939C1213.46 21.9591 1212.8 23.5309 1211.47 24.6543C1210.14 25.7777 1208.29 26.3394 1205.9 26.3394H1201.64ZM1201.64 23.4648H1205.94C1207.22 23.4648 1208.19 23.1675 1208.86 22.5728C1209.53 21.9686 1209.87 21.1001 1209.87 19.9673C1209.87 18.8534 1209.53 17.966 1208.85 17.3052C1208.17 16.6349 1207.23 16.2904 1206.04 16.2715H1201.64V23.4648ZM1220.39 34H1216.82V13.3828H1220.39V34ZM1237.93 25.0933L1235.6 27.5713V34H1232.01V13.3828H1235.6V23.0542L1237.58 20.6045L1243.61 13.3828H1247.94L1240.28 22.5161L1248.38 34H1244.13L1237.93 25.0933ZM1256.35 34.2832C1254.17 34.2832 1252.4 33.5988 1251.04 32.23C1249.69 30.8517 1249.02 29.0203 1249.02 26.7358V26.311C1249.02 24.7817 1249.31 23.4176 1249.9 22.2188C1250.49 21.0104 1251.32 20.0711 1252.39 19.4009C1253.46 18.7306 1254.65 18.3955 1255.96 18.3955C1258.04 18.3955 1259.65 19.061 1260.79 20.3921C1261.93 21.7231 1262.5 23.6064 1262.5 26.042V27.4297H1252.49C1252.59 28.6947 1253.01 29.6953 1253.75 30.4316C1254.49 31.168 1255.43 31.5361 1256.55 31.5361C1258.13 31.5361 1259.41 30.8989 1260.4 29.6245L1262.26 31.3945C1261.65 32.3102 1260.82 33.0229 1259.79 33.5327C1258.78 34.033 1257.63 34.2832 1256.35 34.2832ZM1255.94 21.1567C1255 21.1567 1254.23 21.4871 1253.65 22.1479C1253.07 22.8088 1252.71 23.7292 1252.54 24.9092H1259.1V24.6543C1259.03 23.5026 1258.72 22.6341 1258.18 22.0488C1257.64 21.4541 1256.9 21.1567 1255.94 21.1567ZM1270.34 29.0723L1273.46 18.6787H1277.13L1271.04 36.3223C1270.1 38.8994 1268.52 40.188 1266.28 40.188C1265.78 40.188 1265.23 40.103 1264.62 39.9331V37.271L1265.27 37.3135C1266.14 37.3135 1266.79 37.153 1267.23 36.832C1267.67 36.5205 1268.02 35.9919 1268.28 35.2461L1268.77 33.9292L1263.39 18.6787H1267.1L1270.34 29.0723Z" fill="black"/>
<path d="M1184.01 211.2H1176.02L1174.35 216H1170.63L1178.42 195.383H1181.63L1189.43 216H1185.69L1184.01 211.2ZM1177.03 208.311H1183L1180.02 199.758L1177.03 208.311ZM1195.37 208.339V216H1191.78V195.383H1199.67C1201.97 195.383 1203.8 195.982 1205.15 197.181C1206.51 198.38 1207.19 199.966 1207.19 201.939C1207.19 203.959 1206.52 205.531 1205.19 206.654C1203.87 207.778 1202.02 208.339 1199.63 208.339H1195.37ZM1195.37 205.465H1199.67C1200.95 205.465 1201.92 205.167 1202.59 204.573C1203.26 203.969 1203.59 203.1 1203.59 201.967C1203.59 200.853 1203.25 199.966 1202.57 199.305C1201.89 198.635 1200.96 198.29 1199.77 198.271H1195.37V205.465ZM1214.11 216H1210.55V195.383H1214.11V216ZM1225.74 216V195.383H1231.83C1233.65 195.383 1235.26 195.789 1236.67 196.601C1238.09 197.412 1239.18 198.564 1239.96 200.056C1240.73 201.547 1241.12 203.256 1241.12 205.182V206.215C1241.12 208.169 1240.73 209.888 1239.94 211.37C1239.17 212.852 1238.06 213.994 1236.61 214.796C1235.18 215.599 1233.53 216 1231.67 216H1225.74ZM1229.32 198.271V213.14H1231.66C1233.54 213.14 1234.98 212.554 1235.98 211.384C1236.99 210.204 1237.5 208.514 1237.52 206.314V205.167C1237.52 202.93 1237.03 201.222 1236.06 200.042C1235.09 198.861 1233.68 198.271 1231.83 198.271H1229.32ZM1253.51 216C1253.36 215.707 1253.22 215.231 1253.11 214.57C1252.02 215.712 1250.68 216.283 1249.09 216.283C1247.55 216.283 1246.3 215.844 1245.32 214.966C1244.35 214.088 1243.86 213.003 1243.86 211.709C1243.86 210.076 1244.47 208.826 1245.68 207.957C1246.9 207.079 1248.63 206.64 1250.89 206.64H1253V205.635C1253 204.842 1252.78 204.209 1252.33 203.737C1251.89 203.256 1251.21 203.015 1250.31 203.015C1249.52 203.015 1248.88 203.213 1248.38 203.61C1247.88 203.997 1247.63 204.493 1247.63 205.097H1244.19C1244.19 204.257 1244.47 203.473 1245.03 202.746C1245.58 202.01 1246.34 201.434 1247.29 201.019C1248.25 200.603 1249.33 200.396 1250.51 200.396C1252.3 200.396 1253.73 200.849 1254.8 201.755C1255.86 202.652 1256.41 203.917 1256.44 205.55V212.46C1256.44 213.838 1256.63 214.938 1257.02 215.759V216H1253.51ZM1249.73 213.522C1250.41 213.522 1251.04 213.357 1251.64 213.026C1252.24 212.696 1252.7 212.252 1253 211.695V208.807H1251.14C1249.87 208.807 1248.91 209.028 1248.27 209.472C1247.63 209.916 1247.31 210.544 1247.31 211.355C1247.31 212.016 1247.52 212.545 1247.96 212.941C1248.4 213.328 1248.99 213.522 1249.73 213.522ZM1264.35 196.955V200.679H1267.06V203.228H1264.35V211.78C1264.35 212.366 1264.47 212.79 1264.69 213.055C1264.93 213.31 1265.35 213.437 1265.94 213.437C1266.34 213.437 1266.74 213.39 1267.14 213.295V215.958C1266.36 216.175 1265.61 216.283 1264.88 216.283C1262.24 216.283 1260.91 214.825 1260.91 211.908V203.228H1258.39V200.679H1260.91V196.955H1264.35ZM1278.85 216C1278.7 215.707 1278.57 215.231 1278.46 214.57C1277.36 215.712 1276.02 216.283 1274.44 216.283C1272.9 216.283 1271.64 215.844 1270.67 214.966C1269.7 214.088 1269.21 213.003 1269.21 211.709C1269.21 210.076 1269.82 208.826 1271.02 207.957C1272.24 207.079 1273.98 206.64 1276.23 206.64H1278.34V205.635C1278.34 204.842 1278.12 204.209 1277.68 203.737C1277.24 203.256 1276.56 203.015 1275.65 203.015C1274.87 203.015 1274.23 203.213 1273.73 203.61C1273.23 203.997 1272.98 204.493 1272.98 205.097H1269.54C1269.54 204.257 1269.82 203.473 1270.37 202.746C1270.93 202.01 1271.68 201.434 1272.64 201.019C1273.6 200.603 1274.67 200.396 1275.85 200.396C1277.65 200.396 1279.08 200.849 1280.14 201.755C1281.21 202.652 1281.76 203.917 1281.79 205.55V212.46C1281.79 213.838 1281.98 214.938 1282.37 215.759V216H1278.85ZM1275.07 213.522C1275.75 213.522 1276.39 213.357 1276.99 213.026C1277.59 212.696 1278.04 212.252 1278.34 211.695V208.807H1276.49C1275.22 208.807 1274.26 209.028 1273.62 209.472C1272.97 209.916 1272.65 210.544 1272.65 211.355C1272.65 212.016 1272.87 212.545 1273.3 212.941C1273.75 213.328 1274.34 213.522 1275.07 213.522Z" fill="black"/>
</svg>
