<svg width="360" height="304" viewBox="0 0 360 304" fill="none" xmlns="http://www.w3.org/2000/svg">
<path d="M108 25H252C255.866 25 259 28.134 259 32V64C259 67.866 255.866 71 252 71H108C104.134 71 101 67.866 101 64V32C101 28.134 104.134 25 108 25Z" fill="#D1FFDF"/>
<path d="M108 25H252C255.866 25 259 28.134 259 32V64C259 67.866 255.866 71 252 71H108C104.134 71 101 67.866 101 64V32C101 28.134 104.134 25 108 25Z" stroke="#006D3F" stroke-width="2"/>
<path d="M153.066 54V42.8H154.922V54H153.066ZM145.578 54V42.8H147.434V54H145.578ZM147.034 49.104V47.408H153.818V49.104H147.034ZM162.122 54L162.042 52.496V49.888C162.042 49.344 161.983 48.8907 161.866 48.528C161.759 48.1547 161.578 47.872 161.322 47.68C161.077 47.4773 160.746 47.376 160.33 47.376C159.946 47.376 159.61 47.456 159.322 47.616C159.034 47.776 158.789 48.0267 158.586 48.368L157.018 47.792C157.189 47.44 157.413 47.1147 157.69 46.816C157.978 46.5067 158.335 46.2613 158.762 46.08C159.199 45.8987 159.722 45.808 160.33 45.808C161.109 45.808 161.759 45.9627 162.282 46.272C162.805 46.5707 163.189 47.0027 163.434 47.568C163.69 48.1333 163.818 48.816 163.818 49.616L163.77 54H162.122ZM159.818 54.192C158.858 54.192 158.111 53.9787 157.578 53.552C157.055 53.1253 156.794 52.5227 156.794 51.744C156.794 50.912 157.071 50.2773 157.626 49.84C158.191 49.4027 158.975 49.184 159.978 49.184H162.122V50.56H160.554C159.839 50.56 159.338 50.6613 159.05 50.864C158.762 51.056 158.618 51.3333 158.618 51.696C158.618 52.0053 158.741 52.2507 158.986 52.432C159.242 52.6027 159.594 52.688 160.042 52.688C160.447 52.688 160.799 52.5973 161.098 52.416C161.397 52.2347 161.626 51.9947 161.786 51.696C161.957 51.3973 162.042 51.0613 162.042 50.688H162.57C162.57 51.776 162.351 52.6347 161.914 53.264C161.477 53.8827 160.778 54.192 159.818 54.192ZM166.817 49.744C166.817 48.88 166.982 48.1707 167.313 47.616C167.643 47.0613 168.07 46.6507 168.593 46.384C169.126 46.1067 169.681 45.968 170.257 45.968V47.68C169.766 47.68 169.302 47.7493 168.865 47.888C168.438 48.016 168.091 48.2293 167.825 48.528C167.558 48.8267 167.425 49.2213 167.425 49.712L166.817 49.744ZM165.633 54V46H167.425V54H165.633ZM177.221 54L177.141 52.512V42.8H178.917V54H177.221ZM174.613 54.192C173.888 54.192 173.253 54.0213 172.709 53.68C172.176 53.328 171.754 52.8373 171.445 52.208C171.146 51.5787 170.997 50.8427 170.997 50C170.997 49.1467 171.146 48.4107 171.445 47.792C171.754 47.1627 172.176 46.6773 172.709 46.336C173.253 45.984 173.888 45.808 174.613 45.808C175.285 45.808 175.861 45.984 176.341 46.336C176.832 46.6773 177.205 47.1627 177.461 47.792C177.717 48.4107 177.845 49.1467 177.845 50C177.845 50.8427 177.717 51.5787 177.461 52.208C177.205 52.8373 176.832 53.328 176.341 53.68C175.861 54.0213 175.285 54.192 174.613 54.192ZM175.061 52.56C175.466 52.56 175.824 52.4533 176.133 52.24C176.453 52.016 176.698 51.712 176.869 51.328C177.05 50.944 177.141 50.5013 177.141 50C177.141 49.4987 177.05 49.056 176.869 48.672C176.698 48.288 176.453 47.9893 176.133 47.776C175.824 47.5627 175.461 47.456 175.045 47.456C174.618 47.456 174.24 47.5627 173.909 47.776C173.578 47.9893 173.317 48.288 173.125 48.672C172.944 49.056 172.848 49.4987 172.837 50C172.848 50.5013 172.944 50.944 173.125 51.328C173.317 51.712 173.578 52.016 173.909 52.24C174.25 52.4533 174.634 52.56 175.061 52.56ZM188.306 54L190.978 46H192.786L190.066 54H188.306ZM182.946 54L185.554 46H187.138L184.562 54H182.946ZM182.786 54L180.066 46H181.874L184.482 54H182.786ZM188.29 54L185.73 46H187.314L189.922 54H188.29ZM198.606 54L198.526 52.496V49.888C198.526 49.344 198.468 48.8907 198.35 48.528C198.244 48.1547 198.062 47.872 197.806 47.68C197.561 47.4773 197.23 47.376 196.814 47.376C196.43 47.376 196.094 47.456 195.806 47.616C195.518 47.776 195.273 48.0267 195.07 48.368L193.502 47.792C193.673 47.44 193.897 47.1147 194.174 46.816C194.462 46.5067 194.82 46.2613 195.246 46.08C195.684 45.8987 196.206 45.808 196.814 45.808C197.593 45.808 198.244 45.9627 198.766 46.272C199.289 46.5707 199.673 47.0027 199.918 47.568C200.174 48.1333 200.302 48.816 200.302 49.616L200.254 54H198.606ZM196.302 54.192C195.342 54.192 194.596 53.9787 194.062 53.552C193.54 53.1253 193.278 52.5227 193.278 51.744C193.278 50.912 193.556 50.2773 194.11 49.84C194.676 49.4027 195.46 49.184 196.462 49.184H198.606V50.56H197.038C196.324 50.56 195.822 50.6613 195.534 50.864C195.246 51.056 195.102 51.3333 195.102 51.696C195.102 52.0053 195.225 52.2507 195.47 52.432C195.726 52.6027 196.078 52.688 196.526 52.688C196.932 52.688 197.284 52.5973 197.582 52.416C197.881 52.2347 198.11 51.9947 198.27 51.696C198.441 51.3973 198.526 51.0613 198.526 50.688H199.054C199.054 51.776 198.836 52.6347 198.398 53.264C197.961 53.8827 197.262 54.192 196.302 54.192ZM203.301 49.744C203.301 48.88 203.466 48.1707 203.797 47.616C204.128 47.0613 204.554 46.6507 205.077 46.384C205.61 46.1067 206.165 45.968 206.741 45.968V47.68C206.25 47.68 205.786 47.7493 205.349 47.888C204.922 48.016 204.576 48.2293 204.309 48.528C204.042 48.8267 203.909 49.2213 203.909 49.712L203.301 49.744ZM202.117 54V46H203.909V54H202.117ZM211.498 54.192C210.719 54.192 210.026 54.016 209.418 53.664C208.82 53.3013 208.346 52.8053 207.993 52.176C207.652 51.5467 207.482 50.8213 207.482 50C207.482 49.1787 207.658 48.4533 208.01 47.824C208.362 47.1947 208.842 46.704 209.45 46.352C210.068 45.9893 210.772 45.808 211.562 45.808C212.276 45.808 212.922 45.9947 213.498 46.368C214.074 46.7307 214.527 47.2587 214.858 47.952C215.199 48.6453 215.37 49.472 215.37 50.432H209.082L209.322 50.208C209.322 50.6987 209.428 51.1253 209.642 51.488C209.855 51.84 210.138 52.112 210.49 52.304C210.842 52.496 211.231 52.592 211.658 52.592C212.148 52.592 212.554 52.4853 212.874 52.272C213.194 52.048 213.444 51.76 213.626 51.408L215.21 52.08C214.986 52.5067 214.698 52.88 214.346 53.2C214.004 53.52 213.594 53.7653 213.114 53.936C212.644 54.1067 212.106 54.192 211.498 54.192ZM209.434 49.28L209.178 49.056H213.69L213.45 49.28C213.45 48.8427 213.354 48.4853 213.162 48.208C212.97 47.92 212.724 47.7067 212.426 47.568C212.138 47.4187 211.834 47.344 211.514 47.344C211.194 47.344 210.874 47.4187 210.554 47.568C210.234 47.7067 209.967 47.92 209.754 48.208C209.54 48.4853 209.434 48.8427 209.434 49.28Z" fill="#21333F"/>
<path d="M108 89H252C264.703 89 275 99.2975 275 112V208C275 220.703 264.703 231 252 231H108C95.2975 231 85 220.703 85 208V112C85 99.2975 95.2975 89 108 89Z" fill="#FFEBF7"/>
<path d="M108 89H252C264.703 89 275 99.2975 275 112V208C275 220.703 264.703 231 252 231H108C95.2975 231 85 220.703 85 208V112C85 99.2975 95.2975 89 108 89Z" stroke="#FFADF3" stroke-width="2"/>
<path d="M108 105H252C255.866 105 259 108.134 259 112V144C259 147.866 255.866 151 252 151H108C104.134 151 101 147.866 101 144V112C101 108.134 104.134 105 108 105Z" fill="#FFEDEA"/>
<path d="M108 105H252C255.866 105 259 108.134 259 112V144C259 147.866 255.866 151 252 151H108C104.134 151 101 147.866 101 144V112C101 108.134 104.134 105 108 105Z" stroke="#AC2024" stroke-width="2"/>
<path d="M159.378 130.768L159.01 128.624L164.514 122.8H166.898L159.378 130.768ZM158.226 134V122.8H160.05V134H158.226ZM164.802 134L160.29 128.304L161.602 127.168L167.09 134H164.802ZM171.412 134.192C170.633 134.192 169.94 134.016 169.332 133.664C168.734 133.301 168.26 132.805 167.908 132.176C167.566 131.547 167.396 130.821 167.396 130C167.396 129.179 167.572 128.453 167.924 127.824C168.276 127.195 168.756 126.704 169.364 126.352C169.982 125.989 170.686 125.808 171.476 125.808C172.19 125.808 172.836 125.995 173.412 126.368C173.988 126.731 174.441 127.259 174.772 127.952C175.113 128.645 175.284 129.472 175.284 130.432H168.996L169.236 130.208C169.236 130.699 169.342 131.125 169.556 131.488C169.769 131.84 170.052 132.112 170.404 132.304C170.756 132.496 171.145 132.592 171.572 132.592C172.062 132.592 172.468 132.485 172.788 132.272C173.108 132.048 173.358 131.76 173.54 131.408L175.124 132.08C174.9 132.507 174.612 132.88 174.26 133.2C173.918 133.52 173.508 133.765 173.028 133.936C172.558 134.107 172.02 134.192 171.412 134.192ZM169.348 129.28L169.092 129.056H173.604L173.364 129.28C173.364 128.843 173.268 128.485 173.076 128.208C172.884 127.92 172.638 127.707 172.34 127.568C172.052 127.419 171.748 127.344 171.428 127.344C171.108 127.344 170.788 127.419 170.468 127.568C170.148 127.707 169.881 127.92 169.668 128.208C169.454 128.485 169.348 128.843 169.348 129.28ZM177.84 129.744C177.84 128.88 178.005 128.171 178.336 127.616C178.667 127.061 179.093 126.651 179.616 126.384C180.149 126.107 180.704 125.968 181.28 125.968V127.68C180.789 127.68 180.325 127.749 179.888 127.888C179.461 128.016 179.115 128.229 178.848 128.528C178.581 128.827 178.448 129.221 178.448 129.712L177.84 129.744ZM176.656 134V126H178.448V134H176.656ZM182.469 134V126H184.149L184.261 127.472V134H182.469ZM187.893 134V129.904H189.685V134H187.893ZM187.893 129.904C187.893 129.264 187.818 128.773 187.669 128.432C187.53 128.08 187.327 127.835 187.061 127.696C186.805 127.557 186.501 127.488 186.149 127.488C185.551 127.477 185.087 127.675 184.757 128.08C184.426 128.485 184.261 129.067 184.261 129.824H183.589C183.589 128.981 183.711 128.261 183.957 127.664C184.202 127.056 184.554 126.597 185.013 126.288C185.471 125.968 186.015 125.808 186.645 125.808C187.285 125.808 187.829 125.936 188.277 126.192C188.735 126.448 189.082 126.848 189.317 127.392C189.562 127.925 189.685 128.624 189.685 129.488V129.904H187.893ZM195.068 134.192C194.289 134.192 193.596 134.016 192.988 133.664C192.39 133.301 191.916 132.805 191.564 132.176C191.222 131.547 191.052 130.821 191.052 130C191.052 129.179 191.228 128.453 191.58 127.824C191.932 127.195 192.412 126.704 193.02 126.352C193.638 125.989 194.342 125.808 195.132 125.808C195.846 125.808 196.492 125.995 197.068 126.368C197.644 126.731 198.097 127.259 198.428 127.952C198.769 128.645 198.94 129.472 198.94 130.432H192.652L192.892 130.208C192.892 130.699 192.998 131.125 193.212 131.488C193.425 131.84 193.708 132.112 194.06 132.304C194.412 132.496 194.801 132.592 195.228 132.592C195.718 132.592 196.124 132.485 196.444 132.272C196.764 132.048 197.014 131.76 197.196 131.408L198.78 132.08C198.556 132.507 198.268 132.88 197.916 133.2C197.574 133.52 197.164 133.765 196.684 133.936C196.214 134.107 195.676 134.192 195.068 134.192ZM193.004 129.28L192.748 129.056H197.26L197.02 129.28C197.02 128.843 196.924 128.485 196.732 128.208C196.54 127.92 196.294 127.707 195.996 127.568C195.708 127.419 195.404 127.344 195.084 127.344C194.764 127.344 194.444 127.419 194.124 127.568C193.804 127.707 193.537 127.92 193.324 128.208C193.11 128.485 193.004 128.843 193.004 129.28ZM200.312 134V122.8H202.104V134H200.312Z" fill="#21333F"/>
<path d="M108 169H252C255.866 169 259 172.134 259 176V208C259 211.866 255.866 215 252 215H108C104.134 215 101 211.866 101 208V176C101 172.134 104.134 169 108 169Z" fill="#E5F2FF"/>
<path d="M108 169H252C255.866 169 259 172.134 259 176V208C259 211.866 255.866 215 252 215H108C104.134 215 101 211.866 101 208V176C101 172.134 104.134 169 108 169Z" stroke="#006590" stroke-width="2"/>
<path d="M153.592 198.224C152.707 198.224 151.928 198.048 151.256 197.696C150.595 197.333 150.078 196.827 149.704 196.176C149.342 195.525 149.16 194.768 149.16 193.904V186.8H151.016V193.904C151.016 194.427 151.123 194.885 151.336 195.28C151.56 195.664 151.87 195.968 152.264 196.192C152.659 196.405 153.112 196.512 153.624 196.512C154.147 196.512 154.606 196.405 155 196.192C155.406 195.968 155.715 195.664 155.928 195.28C156.142 194.885 156.248 194.427 156.248 193.904V186.8H158.104V193.904C158.104 194.768 157.918 195.525 157.544 196.176C157.182 196.827 156.659 197.333 155.976 197.696C155.304 198.048 154.51 198.224 153.592 198.224ZM163.177 198.192C162.644 198.192 162.153 198.112 161.705 197.952C161.257 197.792 160.873 197.568 160.553 197.28C160.233 196.981 159.988 196.635 159.817 196.24L161.369 195.552C161.529 195.851 161.764 196.101 162.073 196.304C162.393 196.507 162.745 196.608 163.129 196.608C163.545 196.608 163.876 196.539 164.121 196.4C164.377 196.251 164.505 196.048 164.505 195.792C164.505 195.547 164.409 195.36 164.217 195.232C164.025 195.093 163.753 194.981 163.401 194.896L162.649 194.688C161.892 194.496 161.3 194.192 160.873 193.776C160.447 193.349 160.233 192.864 160.233 192.32C160.233 191.52 160.489 190.901 161.001 190.464C161.524 190.027 162.271 189.808 163.241 189.808C163.732 189.808 164.18 189.883 164.585 190.032C165.001 190.171 165.359 190.373 165.657 190.64C165.956 190.896 166.164 191.2 166.281 191.552L164.793 192.224C164.687 191.957 164.484 191.755 164.185 191.616C163.887 191.467 163.556 191.392 163.193 191.392C162.831 191.392 162.548 191.472 162.345 191.632C162.143 191.781 162.041 191.995 162.041 192.272C162.041 192.432 162.132 192.581 162.313 192.72C162.495 192.848 162.756 192.955 163.097 193.04L164.041 193.264C164.564 193.392 164.991 193.595 165.321 193.872C165.652 194.139 165.897 194.443 166.057 194.784C166.217 195.115 166.297 195.451 166.297 195.792C166.297 196.272 166.159 196.693 165.881 197.056C165.615 197.419 165.247 197.701 164.777 197.904C164.308 198.096 163.775 198.192 163.177 198.192ZM171.287 198.192C170.508 198.192 169.815 198.016 169.207 197.664C168.609 197.301 168.135 196.805 167.783 196.176C167.441 195.547 167.271 194.821 167.271 194C167.271 193.179 167.447 192.453 167.799 191.824C168.151 191.195 168.631 190.704 169.239 190.352C169.857 189.989 170.561 189.808 171.351 189.808C172.065 189.808 172.711 189.995 173.287 190.368C173.863 190.731 174.316 191.259 174.647 191.952C174.988 192.645 175.159 193.472 175.159 194.432H168.871L169.111 194.208C169.111 194.699 169.217 195.125 169.431 195.488C169.644 195.84 169.927 196.112 170.279 196.304C170.631 196.496 171.02 196.592 171.447 196.592C171.937 196.592 172.343 196.485 172.663 196.272C172.983 196.048 173.233 195.76 173.415 195.408L174.999 196.08C174.775 196.507 174.487 196.88 174.135 197.2C173.793 197.52 173.383 197.765 172.903 197.936C172.433 198.107 171.895 198.192 171.287 198.192ZM169.223 193.28L168.967 193.056H173.479L173.239 193.28C173.239 192.843 173.143 192.485 172.951 192.208C172.759 191.92 172.513 191.707 172.215 191.568C171.927 191.419 171.623 191.344 171.303 191.344C170.983 191.344 170.663 191.419 170.343 191.568C170.023 191.707 169.756 191.92 169.543 192.208C169.329 192.485 169.223 192.843 169.223 193.28ZM177.715 193.744C177.715 192.88 177.88 192.171 178.211 191.616C178.542 191.061 178.968 190.651 179.491 190.384C180.024 190.107 180.579 189.968 181.155 189.968V191.68C180.664 191.68 180.2 191.749 179.763 191.888C179.336 192.016 178.99 192.229 178.723 192.528C178.456 192.827 178.323 193.221 178.323 193.712L177.715 193.744ZM176.531 198V190H178.323V198H176.531ZM182.344 198V186.8H184.136V198H182.344ZM191.005 198L190.925 196.496V193.888C190.925 193.344 190.866 192.891 190.749 192.528C190.642 192.155 190.461 191.872 190.205 191.68C189.959 191.477 189.629 191.376 189.213 191.376C188.829 191.376 188.493 191.456 188.205 191.616C187.917 191.776 187.671 192.027 187.469 192.368L185.901 191.792C186.071 191.44 186.295 191.115 186.573 190.816C186.861 190.507 187.218 190.261 187.645 190.08C188.082 189.899 188.605 189.808 189.213 189.808C189.991 189.808 190.642 189.963 191.165 190.272C191.687 190.571 192.071 191.003 192.317 191.568C192.573 192.133 192.701 192.816 192.701 193.616L192.653 198H191.005ZM188.701 198.192C187.741 198.192 186.994 197.979 186.461 197.552C185.938 197.125 185.677 196.523 185.677 195.744C185.677 194.912 185.954 194.277 186.509 193.84C187.074 193.403 187.858 193.184 188.861 193.184H191.005V194.56H189.437C188.722 194.56 188.221 194.661 187.933 194.864C187.645 195.056 187.501 195.333 187.501 195.696C187.501 196.005 187.623 196.251 187.869 196.432C188.125 196.603 188.477 196.688 188.925 196.688C189.33 196.688 189.682 196.597 189.981 196.416C190.279 196.235 190.509 195.995 190.669 195.696C190.839 195.397 190.925 195.061 190.925 194.688H191.453C191.453 195.776 191.234 196.635 190.797 197.264C190.359 197.883 189.661 198.192 188.701 198.192ZM194.515 198V190H196.195L196.307 191.472V198H194.515ZM199.939 198V193.904H201.731V198H199.939ZM199.939 193.904C199.939 193.264 199.865 192.773 199.715 192.432C199.577 192.08 199.374 191.835 199.107 191.696C198.851 191.557 198.547 191.488 198.195 191.488C197.598 191.477 197.134 191.675 196.803 192.08C196.473 192.485 196.307 193.067 196.307 193.824H195.635C195.635 192.981 195.758 192.261 196.003 191.664C196.249 191.056 196.601 190.597 197.059 190.288C197.518 189.968 198.062 189.808 198.691 189.808C199.331 189.808 199.875 189.936 200.323 190.192C200.782 190.448 201.129 190.848 201.363 191.392C201.609 191.925 201.731 192.624 201.731 193.488V193.904H199.939ZM209.323 198L209.243 196.512V186.8H211.019V198H209.323ZM206.715 198.192C205.989 198.192 205.355 198.021 204.811 197.68C204.277 197.328 203.856 196.837 203.547 196.208C203.248 195.579 203.099 194.843 203.099 194C203.099 193.147 203.248 192.411 203.547 191.792C203.856 191.163 204.277 190.677 204.811 190.336C205.355 189.984 205.989 189.808 206.715 189.808C207.387 189.808 207.963 189.984 208.443 190.336C208.933 190.677 209.307 191.163 209.563 191.792C209.819 192.411 209.947 193.147 209.947 194C209.947 194.843 209.819 195.579 209.563 196.208C209.307 196.837 208.933 197.328 208.443 197.68C207.963 198.021 207.387 198.192 206.715 198.192ZM207.163 196.56C207.568 196.56 207.925 196.453 208.235 196.24C208.555 196.016 208.8 195.712 208.971 195.328C209.152 194.944 209.243 194.501 209.243 194C209.243 193.499 209.152 193.056 208.971 192.672C208.8 192.288 208.555 191.989 208.235 191.776C207.925 191.563 207.563 191.456 207.147 191.456C206.72 191.456 206.341 191.563 206.011 191.776C205.68 191.989 205.419 192.288 205.227 192.672C205.045 193.056 204.949 193.499 204.939 194C204.949 194.501 205.045 194.944 205.227 195.328C205.419 195.712 205.68 196.016 206.011 196.24C206.352 196.453 206.736 196.56 207.163 196.56Z" fill="#21333F"/>
<path d="M176 160L180 164M180 164L184 160M180 164V151" stroke="#AC2024" stroke-width="2" stroke-linecap="round" stroke-linejoin="round"/>
<path d="M176 96L180 100M180 100L184 96M180 100V71" stroke="#006D3F" stroke-width="2" stroke-linecap="round" stroke-linejoin="round"/>
<path d="M111 260C111 251.163 118.163 244 127 244H234C242.837 244 250 251.163 250 260V260C250 268.837 242.837 276 234 276H127C118.163 276 111 268.837 111 260V260Z" fill="#D2E5F4"/>
<path d="M128.963 265.168C127.993 265.168 127.134 264.953 126.387 264.524C125.641 264.095 125.053 263.497 124.623 262.732C124.203 261.967 123.993 261.089 123.993 260.1C123.993 259.111 124.203 258.238 124.623 257.482C125.053 256.717 125.636 256.119 126.373 255.69C127.111 255.251 127.96 255.032 128.921 255.032C129.892 255.032 130.746 255.251 131.483 255.69C132.23 256.119 132.809 256.717 133.219 257.482C133.639 258.238 133.849 259.111 133.849 260.1C133.849 261.089 133.639 261.967 133.219 262.732C132.809 263.497 132.235 264.095 131.497 264.524C130.769 264.953 129.925 265.168 128.963 265.168ZM128.963 263.684C129.598 263.684 130.158 263.53 130.643 263.222C131.129 262.914 131.507 262.494 131.777 261.962C132.057 261.421 132.197 260.8 132.197 260.1C132.197 259.409 132.057 258.793 131.777 258.252C131.497 257.711 131.11 257.291 130.615 256.992C130.13 256.684 129.565 256.53 128.921 256.53C128.287 256.53 127.722 256.684 127.227 256.992C126.742 257.291 126.355 257.711 126.065 258.252C125.785 258.784 125.645 259.4 125.645 260.1C125.645 260.8 125.785 261.421 126.065 261.962C126.355 262.494 126.747 262.914 127.241 263.222C127.745 263.53 128.319 263.684 128.963 263.684ZM135.35 267.8V258H136.82L136.918 259.288V267.8H135.35ZM139.13 265.168C138.542 265.168 138.033 265.019 137.604 264.72C137.184 264.412 136.862 263.983 136.638 263.432C136.414 262.881 136.302 262.237 136.302 261.5C136.302 260.753 136.414 260.109 136.638 259.568C136.862 259.017 137.184 258.593 137.604 258.294C138.033 257.986 138.542 257.832 139.13 257.832C139.765 257.832 140.315 257.986 140.782 258.294C141.258 258.593 141.627 259.017 141.888 259.568C142.159 260.109 142.294 260.753 142.294 261.5C142.294 262.237 142.159 262.881 141.888 263.432C141.627 263.983 141.258 264.412 140.782 264.72C140.315 265.019 139.765 265.168 139.13 265.168ZM138.738 263.74C139.111 263.74 139.443 263.647 139.732 263.46C140.021 263.264 140.25 262.998 140.418 262.662C140.595 262.326 140.684 261.939 140.684 261.5C140.684 261.061 140.6 260.674 140.432 260.338C140.273 260.002 140.049 259.741 139.76 259.554C139.471 259.367 139.135 259.274 138.752 259.274C138.397 259.274 138.08 259.367 137.8 259.554C137.52 259.741 137.301 260.002 137.142 260.338C136.993 260.674 136.918 261.061 136.918 261.5C136.918 261.939 136.993 262.326 137.142 262.662C137.301 262.998 137.515 263.264 137.786 263.46C138.066 263.647 138.383 263.74 138.738 263.74ZM146.756 265.168C146.074 265.168 145.468 265.014 144.936 264.706C144.413 264.389 143.998 263.955 143.69 263.404C143.391 262.853 143.242 262.219 143.242 261.5C143.242 260.781 143.396 260.147 143.704 259.596C144.012 259.045 144.432 258.616 144.964 258.308C145.505 257.991 146.121 257.832 146.812 257.832C147.437 257.832 148.002 257.995 148.506 258.322C149.01 258.639 149.406 259.101 149.696 259.708C149.994 260.315 150.144 261.038 150.144 261.878H144.642L144.852 261.682C144.852 262.111 144.945 262.485 145.132 262.802C145.318 263.11 145.566 263.348 145.874 263.516C146.182 263.684 146.522 263.768 146.896 263.768C147.325 263.768 147.68 263.675 147.96 263.488C148.24 263.292 148.459 263.04 148.618 262.732L150.004 263.32C149.808 263.693 149.556 264.02 149.248 264.3C148.949 264.58 148.59 264.795 148.17 264.944C147.759 265.093 147.288 265.168 146.756 265.168ZM144.95 260.87L144.726 260.674H148.674L148.464 260.87C148.464 260.487 148.38 260.175 148.212 259.932C148.044 259.68 147.829 259.493 147.568 259.372C147.316 259.241 147.05 259.176 146.77 259.176C146.49 259.176 146.21 259.241 145.93 259.372C145.65 259.493 145.416 259.68 145.23 259.932C145.043 260.175 144.95 260.487 144.95 260.87ZM152.381 261.276C152.381 260.52 152.525 259.899 152.815 259.414C153.104 258.929 153.477 258.569 153.935 258.336C154.401 258.093 154.887 257.972 155.391 257.972V259.47C154.961 259.47 154.555 259.531 154.173 259.652C153.799 259.764 153.496 259.951 153.263 260.212C153.029 260.473 152.913 260.819 152.913 261.248L152.381 261.276ZM151.345 265V258H152.913V265H151.345ZM160.701 265L160.631 263.684V261.402C160.631 260.926 160.579 260.529 160.477 260.212C160.383 259.885 160.225 259.638 160.001 259.47C159.786 259.293 159.497 259.204 159.133 259.204C158.797 259.204 158.503 259.274 158.251 259.414C157.999 259.554 157.784 259.773 157.607 260.072L156.235 259.568C156.384 259.26 156.58 258.975 156.823 258.714C157.075 258.443 157.387 258.229 157.761 258.07C158.143 257.911 158.601 257.832 159.133 257.832C159.814 257.832 160.383 257.967 160.841 258.238C161.298 258.499 161.634 258.877 161.849 259.372C162.073 259.867 162.185 260.464 162.185 261.164L162.143 265H160.701ZM158.685 265.168C157.845 265.168 157.191 264.981 156.725 264.608C156.267 264.235 156.039 263.707 156.039 263.026C156.039 262.298 156.281 261.743 156.767 261.36C157.261 260.977 157.947 260.786 158.825 260.786H160.701V261.99H159.329C158.703 261.99 158.265 262.079 158.013 262.256C157.761 262.424 157.635 262.667 157.635 262.984C157.635 263.255 157.742 263.469 157.957 263.628C158.181 263.777 158.489 263.852 158.881 263.852C159.235 263.852 159.543 263.773 159.805 263.614C160.066 263.455 160.267 263.245 160.407 262.984C160.556 262.723 160.631 262.429 160.631 262.102H161.093C161.093 263.054 160.901 263.805 160.519 264.356C160.136 264.897 159.525 265.168 158.685 265.168ZM166.558 265.168C165.821 265.168 165.256 264.986 164.864 264.622C164.482 264.249 164.29 263.717 164.29 263.026V255.816H165.844V262.732C165.844 263.059 165.919 263.306 166.068 263.474C166.227 263.642 166.456 263.726 166.754 263.726C166.848 263.726 166.95 263.707 167.062 263.67C167.174 263.633 167.3 263.563 167.44 263.46L168.014 264.65C167.772 264.818 167.529 264.944 167.286 265.028C167.044 265.121 166.801 265.168 166.558 265.168ZM163.128 259.344V258H167.734V259.344H163.128ZM169.366 265V258H170.92V265H169.366ZM170.15 256.67C169.898 256.67 169.679 256.581 169.492 256.404C169.315 256.217 169.226 255.998 169.226 255.746C169.226 255.494 169.315 255.279 169.492 255.102C169.679 254.925 169.898 254.836 170.15 254.836C170.402 254.836 170.617 254.925 170.794 255.102C170.981 255.279 171.074 255.494 171.074 255.746C171.074 255.998 170.981 256.217 170.794 256.404C170.617 256.581 170.402 256.67 170.15 256.67ZM172.768 265V258H174.238L174.336 259.288V265H172.768ZM177.514 265V261.416H179.082V265H177.514ZM177.514 261.416C177.514 260.856 177.449 260.427 177.318 260.128C177.197 259.82 177.02 259.605 176.786 259.484C176.562 259.363 176.296 259.302 175.988 259.302C175.466 259.293 175.06 259.465 174.77 259.82C174.481 260.175 174.336 260.683 174.336 261.346H173.748C173.748 260.609 173.856 259.979 174.07 259.456C174.285 258.924 174.593 258.523 174.994 258.252C175.396 257.972 175.872 257.832 176.422 257.832C176.982 257.832 177.458 257.944 177.85 258.168C178.252 258.392 178.555 258.742 178.76 259.218C178.975 259.685 179.082 260.296 179.082 261.052V261.416H177.514ZM183.681 267.982C183.186 267.982 182.738 267.94 182.337 267.856C181.945 267.772 181.613 267.674 181.343 267.562C181.072 267.45 180.862 267.343 180.713 267.24L181.315 265.98C181.445 266.045 181.618 266.125 181.833 266.218C182.057 266.321 182.318 266.409 182.617 266.484C182.915 266.559 183.251 266.596 183.625 266.596C184.026 266.596 184.385 266.512 184.703 266.344C185.02 266.185 185.267 265.938 185.445 265.602C185.622 265.266 185.711 264.837 185.711 264.314V258H187.279V264.272C187.279 265.065 187.129 265.737 186.831 266.288C186.532 266.848 186.112 267.268 185.571 267.548C185.029 267.837 184.399 267.982 183.681 267.982ZM183.443 264.86C182.808 264.86 182.253 264.715 181.777 264.426C181.31 264.137 180.941 263.735 180.671 263.222C180.409 262.699 180.279 262.097 180.279 261.416C180.279 260.688 180.409 260.058 180.671 259.526C180.941 258.994 181.31 258.579 181.777 258.28C182.253 257.981 182.808 257.832 183.443 257.832C184.012 257.832 184.507 257.981 184.927 258.28C185.356 258.579 185.687 258.999 185.921 259.54C186.154 260.072 186.271 260.702 186.271 261.43C186.271 262.121 186.154 262.723 185.921 263.236C185.687 263.749 185.356 264.151 184.927 264.44C184.507 264.72 184.012 264.86 183.443 264.86ZM183.877 263.53C184.231 263.53 184.539 263.437 184.801 263.25C185.071 263.063 185.281 262.811 185.431 262.494C185.58 262.167 185.655 261.794 185.655 261.374C185.655 260.945 185.58 260.571 185.431 260.254C185.281 259.927 185.071 259.675 184.801 259.498C184.53 259.311 184.217 259.218 183.863 259.218C183.489 259.218 183.158 259.311 182.869 259.498C182.589 259.675 182.365 259.927 182.197 260.254C182.038 260.571 181.959 260.945 181.959 261.374C181.959 261.794 182.038 262.167 182.197 262.494C182.365 262.811 182.593 263.063 182.883 263.25C183.172 263.437 183.503 263.53 183.877 263.53ZM194.936 265.168C194.469 265.168 194.04 265.098 193.648 264.958C193.256 264.818 192.92 264.622 192.64 264.37C192.36 264.109 192.145 263.805 191.996 263.46L193.354 262.858C193.494 263.119 193.699 263.339 193.97 263.516C194.25 263.693 194.558 263.782 194.894 263.782C195.258 263.782 195.547 263.721 195.762 263.6C195.986 263.469 196.098 263.292 196.098 263.068C196.098 262.853 196.014 262.69 195.846 262.578C195.678 262.457 195.44 262.359 195.132 262.284L194.474 262.102C193.811 261.934 193.293 261.668 192.92 261.304C192.546 260.931 192.36 260.506 192.36 260.03C192.36 259.33 192.584 258.789 193.032 258.406C193.489 258.023 194.142 257.832 194.992 257.832C195.421 257.832 195.813 257.897 196.168 258.028C196.532 258.149 196.844 258.327 197.106 258.56C197.367 258.784 197.549 259.05 197.652 259.358L196.35 259.946C196.256 259.713 196.079 259.535 195.818 259.414C195.556 259.283 195.267 259.218 194.95 259.218C194.632 259.218 194.385 259.288 194.208 259.428C194.03 259.559 193.942 259.745 193.942 259.988C193.942 260.128 194.021 260.259 194.18 260.38C194.338 260.492 194.567 260.585 194.866 260.66L195.692 260.856C196.149 260.968 196.522 261.145 196.812 261.388C197.101 261.621 197.316 261.887 197.456 262.186C197.596 262.475 197.666 262.769 197.666 263.068C197.666 263.488 197.544 263.857 197.302 264.174C197.068 264.491 196.746 264.739 196.336 264.916C195.925 265.084 195.458 265.168 194.936 265.168ZM200.015 267.968C199.791 267.968 199.539 267.926 199.259 267.842C198.988 267.758 198.727 267.651 198.475 267.52L199.063 266.246C199.24 266.33 199.404 266.395 199.553 266.442C199.702 266.498 199.824 266.526 199.917 266.526C200.141 266.526 200.328 266.465 200.477 266.344C200.636 266.232 200.762 266.064 200.855 265.84L201.681 263.908L204.047 258H205.755L202.507 265.742C202.311 266.19 202.11 266.582 201.905 266.918C201.709 267.254 201.462 267.511 201.163 267.688C200.864 267.875 200.482 267.968 200.015 267.968ZM201.261 265L198.125 258H199.833L202.269 263.894L202.773 265H201.261ZM209.236 265.168C208.77 265.168 208.34 265.098 207.948 264.958C207.556 264.818 207.22 264.622 206.94 264.37C206.66 264.109 206.446 263.805 206.296 263.46L207.654 262.858C207.794 263.119 208 263.339 208.27 263.516C208.55 263.693 208.858 263.782 209.194 263.782C209.558 263.782 209.848 263.721 210.062 263.6C210.286 263.469 210.398 263.292 210.398 263.068C210.398 262.853 210.314 262.69 210.146 262.578C209.978 262.457 209.74 262.359 209.432 262.284L208.774 262.102C208.112 261.934 207.594 261.668 207.22 261.304C206.847 260.931 206.66 260.506 206.66 260.03C206.66 259.33 206.884 258.789 207.332 258.406C207.79 258.023 208.443 257.832 209.292 257.832C209.722 257.832 210.114 257.897 210.468 258.028C210.832 258.149 211.145 258.327 211.406 258.56C211.668 258.784 211.85 259.05 211.952 259.358L210.65 259.946C210.557 259.713 210.38 259.535 210.118 259.414C209.857 259.283 209.568 259.218 209.25 259.218C208.933 259.218 208.686 259.288 208.508 259.428C208.331 259.559 208.242 259.745 208.242 259.988C208.242 260.128 208.322 260.259 208.48 260.38C208.639 260.492 208.868 260.585 209.166 260.66L209.992 260.856C210.45 260.968 210.823 261.145 211.112 261.388C211.402 261.621 211.616 261.887 211.756 262.186C211.896 262.475 211.966 262.769 211.966 263.068C211.966 263.488 211.845 263.857 211.602 264.174C211.369 264.491 211.047 264.739 210.636 264.916C210.226 265.084 209.759 265.168 209.236 265.168ZM215.996 265.168C215.258 265.168 214.694 264.986 214.302 264.622C213.919 264.249 213.728 263.717 213.728 263.026V255.816H215.282V262.732C215.282 263.059 215.356 263.306 215.506 263.474C215.664 263.642 215.893 263.726 216.192 263.726C216.285 263.726 216.388 263.707 216.5 263.67C216.612 263.633 216.738 263.563 216.878 263.46L217.452 264.65C217.209 264.818 216.966 264.944 216.724 265.028C216.481 265.121 216.238 265.168 215.996 265.168ZM212.566 259.344V258H217.172V259.344H212.566ZM221.732 265.168C221.051 265.168 220.444 265.014 219.912 264.706C219.39 264.389 218.974 263.955 218.666 263.404C218.368 262.853 218.218 262.219 218.218 261.5C218.218 260.781 218.372 260.147 218.68 259.596C218.988 259.045 219.408 258.616 219.94 258.308C220.482 257.991 221.098 257.832 221.788 257.832C222.414 257.832 222.978 257.995 223.482 258.322C223.986 258.639 224.383 259.101 224.672 259.708C224.971 260.315 225.12 261.038 225.12 261.878H219.618L219.828 261.682C219.828 262.111 219.922 262.485 220.108 262.802C220.295 263.11 220.542 263.348 220.85 263.516C221.158 263.684 221.499 263.768 221.872 263.768C222.302 263.768 222.656 263.675 222.936 263.488C223.216 263.292 223.436 263.04 223.594 262.732L224.98 263.32C224.784 263.693 224.532 264.02 224.224 264.3C223.926 264.58 223.566 264.795 223.146 264.944C222.736 265.093 222.264 265.168 221.732 265.168ZM219.926 260.87L219.702 260.674H223.65L223.44 260.87C223.44 260.487 223.356 260.175 223.188 259.932C223.02 259.68 222.806 259.493 222.544 259.372C222.292 259.241 222.026 259.176 221.746 259.176C221.466 259.176 221.186 259.241 220.906 259.372C220.626 259.493 220.393 259.68 220.206 259.932C220.02 260.175 219.926 260.487 219.926 260.87ZM226.321 265V258H227.791L227.861 258.938C228.076 258.574 228.351 258.299 228.687 258.112C229.023 257.925 229.406 257.832 229.835 257.832C230.395 257.832 230.871 257.958 231.263 258.21C231.655 258.462 231.94 258.845 232.117 259.358C232.322 258.863 232.612 258.485 232.985 258.224C233.358 257.963 233.797 257.832 234.301 257.832C235.113 257.832 235.738 258.093 236.177 258.616C236.616 259.129 236.83 259.923 236.821 260.996V265H235.267V261.416C235.267 260.856 235.206 260.427 235.085 260.128C234.964 259.82 234.8 259.605 234.595 259.484C234.39 259.363 234.152 259.302 233.881 259.302C233.396 259.293 233.018 259.465 232.747 259.82C232.486 260.175 232.355 260.683 232.355 261.346V265H230.787V261.416C230.787 260.856 230.726 260.427 230.605 260.128C230.493 259.82 230.334 259.605 230.129 259.484C229.924 259.363 229.686 259.302 229.415 259.302C228.93 259.293 228.552 259.465 228.281 259.82C228.02 260.175 227.889 260.683 227.889 261.346V265H226.321Z" fill="#21333F" fill-opacity="0.75"/>
</svg>
