<svg width="3443" height="1354" viewBox="0 0 3443 1354" fill="none" xmlns="http://www.w3.org/2000/svg">
<path d="M733.5 695C750.345 695 764 681.121 764 664C764 646.879 750.345 633 733.5 633C716.655 633 703 646.879 703 664C703 681.121 716.655 695 733.5 695Z" stroke="black" stroke-width="2"/>
<path d="M733.5 709C754.763 709 772 689.748 772 666C772 642.252 754.763 623 733.5 623C712.237 623 695 642.252 695 666C695 689.748 712.237 709 733.5 709Z" stroke="black" stroke-width="2"/>
<path d="M732.5 500C741.613 500 749 493.061 749 484.5C749 475.94 741.613 469 732.5 469C723.387 469 716 475.94 716 484.5C716 493.061 723.387 500 732.5 500Z" stroke="black" stroke-width="2"/>
<path d="M752.185 155.696C752.975 155.696 753.616 155.028 753.616 154.205C753.616 153.381 752.975 152.714 752.185 152.714C751.395 152.714 750.754 153.381 750.754 154.205C750.754 155.028 751.395 155.696 752.185 155.696Z" stroke="black" stroke-width="4"/>
<path d="M752.185 155.365L751.899 143.474" stroke="black" stroke-width="3"/>
<path fill-rule="evenodd" clip-rule="evenodd" d="M731.5 417C740.261 421.073 734.576 432.975 731.5 437C729.61 433.117 720.91 424.224 731.5 417Z" fill="#050505" stroke="black" stroke-width="2"/>
<path d="M680 307C680 307 670 522 674 552" stroke="black" stroke-width="4"/>
<path d="M362 501L364 433L673 486" stroke="black" stroke-width="3"/>
<path d="M145 456V435L363 460" stroke="black" stroke-width="3"/>
<path d="M287 487V480L323 486V494" stroke="black" stroke-width="2"/>
<path d="M706 912L724.5 1035" stroke="black" stroke-width="2" stroke-dasharray="4 4"/>
<path d="M552 1031L538 994L714 983L713 1033" stroke="black" stroke-width="3"/>
<path d="M600 1032V1025H682V1034" stroke="black" stroke-width="3"/>
<path d="M527 954L731 377" stroke="black"/>
<path fill-rule="evenodd" clip-rule="evenodd" d="M575.667 192L576.667 277.667L596.333 277L596 190.667L591.333 184.667L578.333 185.333L575.667 192Z" stroke="black" stroke-width="2"/>
<path d="M539.333 252.333L576 252.667" stroke="black" stroke-width="3"/>
<path d="M542 265.333L576.333 265" stroke="black" stroke-width="3"/>
<path d="M596.667 252.333L632 251.667" stroke="black" stroke-width="3"/>
<path d="M596.667 265H629.667" stroke="black" stroke-width="3"/>
<path fill-rule="evenodd" clip-rule="evenodd" d="M578.333 185.333L573 181.333V175L578.333 170.333H592.333L596.333 174.333V181L591.333 184.667L578.333 185.333Z" stroke="black" stroke-width="2"/>
<path d="M577.333 170.333L577.333 157C577.333 157 584.667 143.333 592.333 156.667C592.453 161.09 591.783 170.089 592.333 170.333" stroke="black" stroke-width="2"/>
<path fill-rule="evenodd" clip-rule="evenodd" d="M573 181.333C573 181.333 511.302 182.333 478.658 178.667C542.314 171 573 175 573 175V181.333Z" stroke="black" stroke-width="2"/>
<path fill-rule="evenodd" clip-rule="evenodd" d="M596.333 181C596.333 181 658.029 182 690.672 178.333C627.018 170.667 596.333 174.667 596.333 174.667V181Z" stroke="black" stroke-width="2"/>
<path d="M572.667 177.667L485.667 178.333" stroke="black" stroke-width="2"/>
<path d="M683 177.333L596 178" stroke="black" stroke-width="2"/>
<path d="M584.833 182.333C588.239 182.333 591 180.319 591 177.833C591 175.348 588.239 173.333 584.833 173.333C581.428 173.333 578.667 175.348 578.667 177.833C578.667 180.319 581.428 182.333 584.833 182.333Z" fill="#050505" stroke="black" stroke-width="2"/>
<path d="M585.5 141.5L586 230.5" stroke="black" stroke-width="2"/>
<path d="M585.5 240.5L586.5 293.5" stroke="black" stroke-width="2"/>
<path d="M586.5 304L587 345.5" stroke="black" stroke-width="2"/>
<path d="M540 328C550.738 326.21 555.623 351.098 564.369 380.056C570.526 400.442 576.03 420.196 587 436C595.789 428.299 608.969 408.285 615.516 375.881C623.182 337.933 624.432 321.737 632 314" stroke="black" stroke-width="3"/>
<path d="M706 156.5C707.381 156.5 708.5 155.49 708.5 154.243C708.5 152.997 707.381 151.987 706 151.987C704.619 151.987 703.5 152.997 703.5 154.243C703.5 155.49 704.619 156.5 706 156.5Z" stroke="black" stroke-width="4"/>
<path d="M706 156L705.5 138" stroke="black" stroke-width="3"/>
<path d="M730 243C715.345 257.031 700.106 271.896 694.5 273L684.5 326C684.5 326 688 336 695.5 326.5C697 316.5 701.5 290.5 701.5 290.5L730 266" stroke="black" stroke-width="2"/>
<path d="M695.5 326.5L766.5 326" stroke="black" stroke-width="2"/>
<path d="M693.5 278L701.5 290.5L759 291L768.5 275.167" stroke="black" stroke-width="4"/>
<path d="M730 243V327" stroke="black" stroke-width="4"/>
<path d="M727 388L717 376" stroke="black" stroke-width="2"/>
<path d="M717.28 378C718.263 378 719.059 377.203 719.059 376.221C719.059 375.238 718.263 374.441 717.28 374.441C716.297 374.441 715.5 375.238 715.5 376.221C715.5 377.203 716.297 378 717.28 378Z" stroke="black" stroke-width="4"/>
<path d="M730.78 378C731.763 378 732.559 377.203 732.559 376.221C732.559 375.238 731.763 374.441 730.78 374.441C729.797 374.441 729 375.238 729 376.221C729 377.203 729.797 378 730.78 378Z" stroke="black" stroke-width="4"/>
<path d="M718 669.5H712.5V698.5H718V669.5Z" fill="white" stroke="black" stroke-width="2"/>
<path d="M716 698.597H714.591V730.5H716V698.597Z" stroke="black" stroke-width="3"/>
<path d="M747.5 106C747.5 106 772.091 182 782.114 305L831.058 313.333L833.23 264.667L831.225 261.333C831.225 261.333 829.555 256 830.223 249.667C828.854 181.916 848.386 188.697 853.275 188C853.275 188 888.021 188.333 907.064 188.667C925.342 188.618 922.091 249.83 923.101 250.333C922.975 253.778 923.709 257.889 923.435 260.667L920.094 264.667L922.432 326L1320.34 385C1320.34 385 1444.58 407.562 1294.28 465C1271.44 473.726 788.127 550 788.127 550C788.127 550 797.125 710 766.055 910C837.216 922 920.394 940.538 953.48 947C990.426 954.216 1003.84 1019.39 945.462 1029C924.484 1032.45 747.513 1033 747.513 1033C747.513 1033 744.506 1065 735.993 1069C727.5 1067 724.5 1035 724.5 1035C724.5 1035 547.93 1034.45 527 1031C468.758 1021.39 482.138 956.216 519 949C552.011 942.538 635 924 706 912C675 712 674 552 674 552C674 552 191.783 475.726 169 467C19.035 409.562 143 387 143 387L540 328L542.333 266.667L539 262.667C538.726 259.889 539.458 255.778 539.333 252.333C540.34 251.83 537.097 190.618 555.333 190.667C574.333 190.333 609 190 609 190C613.879 190.697 633.366 183.916 632 251.667C632.667 258 631 263.333 631 263.333L629 266.667L631.167 315.333L680 307C690 184 710 107 710 107M747.5 106L710 107M747.5 106C749.942 105.5 747.01 74 728.5 74C713.912 74.3809 710.681 95.3254 710 107" stroke="black" stroke-width="4"/>
<path d="M782.114 305C782.114 305 792.137 520 788.128 550" stroke="black" stroke-width="4"/>
<path d="M1100.84 499L1098.83 431L789.13 484" stroke="black" stroke-width="3"/>
<path d="M1318.33 454V433L1099.84 458" stroke="black" stroke-width="3"/>
<path d="M1176.01 485V478L1139.93 484V492" stroke="black" stroke-width="2"/>
<path d="M766.055 910L746.513 1034" stroke="black" stroke-width="2" stroke-dasharray="4 4"/>
<path d="M919.405 1030L933.437 993L757.036 982L758.039 1032" stroke="black" stroke-width="3"/>
<path d="M871.296 1031V1024H789.109V1033" stroke="black" stroke-width="3"/>
<path d="M944.462 952L730.664 376" stroke="black"/>
<path fill-rule="evenodd" clip-rule="evenodd" d="M886.685 190L885.682 275.667L865.971 275L866.305 188.667L870.982 182.667L884.012 183.333L886.685 190Z" stroke="black" stroke-width="2"/>
<path d="M923.101 250.333L886.351 250.667" stroke="black" stroke-width="3"/>
<path d="M920.428 263.333L886.016 263" stroke="black" stroke-width="3"/>
<path d="M865.637 250.333L830.223 249.667" stroke="black" stroke-width="3"/>
<path d="M865.637 263H832.562" stroke="black" stroke-width="3"/>
<path fill-rule="evenodd" clip-rule="evenodd" d="M884.012 183.333L889.357 179.333V173L884.012 168.333H869.98L865.971 172.333V179L870.982 182.667L884.012 183.333Z" stroke="black" stroke-width="2"/>
<path d="M885.014 168.333L885.014 155C885.014 155 877.664 141.333 869.98 154.667C869.86 159.09 870.532 168.089 869.98 168.333" stroke="black" stroke-width="2"/>
<path fill-rule="evenodd" clip-rule="evenodd" d="M889.357 179.333C889.357 179.333 951.196 180.333 983.914 176.667C920.113 169 889.357 173 889.357 173V179.333Z" stroke="black" stroke-width="2"/>
<path fill-rule="evenodd" clip-rule="evenodd" d="M865.971 179C865.971 179 804.135 180 771.418 176.333C835.217 168.667 865.971 172.667 865.971 172.667V179Z" stroke="black" stroke-width="2"/>
<path d="M889.691 175.667L976.889 176.333" stroke="black" stroke-width="2"/>
<path d="M779.107 175.333L866.305 176" stroke="black" stroke-width="2"/>
<path d="M877.497 180.333C874.084 180.333 871.316 178.319 871.316 175.833C871.316 173.348 874.084 171.333 877.497 171.333C880.911 171.333 883.678 173.348 883.678 175.833C883.678 178.319 880.911 180.333 877.497 180.333Z" fill="#050505" stroke="black" stroke-width="2"/>
<path d="M876.831 139.5L876.331 228.5" stroke="black" stroke-width="2"/>
<path d="M876.831 238.5L875.831 291.5" stroke="black" stroke-width="2"/>
<path d="M875.829 302L875.329 343.5" stroke="black" stroke-width="2"/>
<path d="M922.432 326C911.67 324.21 906.773 349.098 898.008 378.056C891.837 398.442 886.32 418.196 875.326 434C866.517 426.299 853.306 406.285 846.745 373.881C839.061 335.933 837.809 319.737 830.223 312" stroke="black" stroke-width="3"/>
<path d="M730 243C744.689 257.031 761.962 269.896 767.581 271L777.604 324C777.604 324 774.017 335.5 766.5 326C764.997 316 760.232 290.5 760.232 290.5L730 266" stroke="black" stroke-width="2"/>
<path d="M735.007 386L745.03 374" stroke="black" stroke-width="2"/>
<path d="M744.749 376C743.764 376 742.966 375.203 742.966 374.221C742.966 373.238 743.764 372.441 744.749 372.441C745.734 372.441 746.533 373.238 746.533 374.221C746.533 375.203 745.734 376 744.749 376Z" stroke="black" stroke-width="4"/>
<path d="M748.027 668.5H753.54V697.5H748.027V668.5Z" fill="white" stroke="black" stroke-width="2"/>
<path d="M750.032 697.597H751.444V729.5H750.032V697.597Z" stroke="black" stroke-width="3"/>
<path d="M724.5 1035L746.513 1034" stroke="black" stroke-width="4"/>
<path d="M728.5 69.5V84.5" stroke="black" stroke-width="2"/>
<path d="M729 93V144" stroke="black" stroke-width="2"/>
<path d="M728.5 153.5L729 203.5" stroke="black" stroke-width="2"/>
<path d="M729 212.5L730 243" stroke="black" stroke-width="2"/>
<path d="M730 325V340.5" stroke="black" stroke-width="2"/>
<path d="M730.5 349L731 411" stroke="black" stroke-width="2"/>
<path d="M731.5 437V487" stroke="black" stroke-width="2"/>
<path d="M732 503V569" stroke="black" stroke-width="2"/>
<path d="M733.5 609.5L733 650.5" stroke="black" stroke-width="2"/>
<path d="M732 660.5L733 722.5" stroke="black" stroke-width="2"/>
<path d="M733 731.5L732.5 793.5" stroke="black" stroke-width="2"/>
<path d="M732.5 805V878.5" stroke="black" stroke-width="2"/>
<path d="M733 890L734 947" stroke="black" stroke-width="2"/>
<path d="M734.5 960.5L735 1016" stroke="black" stroke-width="2"/>
<path d="M736 1027.5V1079" stroke="black" stroke-width="2"/>
<path fill-rule="evenodd" clip-rule="evenodd" d="M526.667 947.667C520.021 960.688 518.903 1013.2 528 1048C534.922 1010.59 531.127 954.46 526.667 947.667Z" fill="white" stroke="black" stroke-width="3"/>
<path d="M521 996.333H531.667" stroke="black" stroke-width="3"/>
<path fill-rule="evenodd" clip-rule="evenodd" d="M944.796 946.667C951.457 959.688 954.578 1010.7 945.46 1045.5C938.522 1008.09 940.326 953.46 944.796 946.667Z" fill="white" stroke="black" stroke-width="3"/>
<path d="M950.476 995.333H939.785" stroke="black" stroke-width="3"/>
<path d="M774 886.5L748.5 1043H984L1024 941L774 886.5Z" fill="#FF0000" fill-opacity="0.48"/>
<path d="M1062.5 325L1045.5 515.5L1334.5 457.5L1402.5 398.5L1062.5 325Z" fill="#FF0000" fill-opacity="0.48"/>
<path d="M404 325L421 515.5L132 457.5L64 398.5L404 325Z" fill="#FF0000" fill-opacity="0.48"/>
<path d="M699 886.5L724.5 1043H489L449 941L699 886.5Z" fill="#FF0000" fill-opacity="0.48"/>
<path d="M454 391.5V519L670.5 553.5V643H733.5V377L454 391.5Z" fill="#FF0000" fill-opacity="0.48"/>
<path d="M1012.5 391.5V519L796 553.5V643H733V377L1012.5 391.5Z" fill="#FF0000" fill-opacity="0.48"/>
<rect x="170" y="1199" width="91" height="91" rx="16" fill="#FF0000"/>
<path d="M308.114 1262L297.818 1227.09H308.386L313.159 1248.57H313.432L319.091 1227.09H327.409L333.068 1248.64H333.341L338.114 1227.09H348.682L338.386 1262H329.318L323.386 1242.5H323.114L317.182 1262H308.114ZM361.295 1247.27V1262H351.886V1227.09H360.955V1240.8H361.227C361.818 1239.12 362.801 1237.82 364.176 1236.89C365.551 1235.95 367.205 1235.48 369.136 1235.48C370.989 1235.48 372.597 1235.9 373.96 1236.74C375.335 1237.58 376.398 1238.74 377.148 1240.22C377.909 1241.69 378.284 1243.39 378.273 1245.3V1262H368.864V1247.27C368.875 1245.98 368.551 1244.96 367.892 1244.22C367.244 1243.48 366.318 1243.11 365.114 1243.11C364.352 1243.11 363.682 1243.28 363.102 1243.62C362.534 1243.95 362.091 1244.43 361.773 1245.06C361.466 1245.67 361.307 1246.41 361.295 1247.27ZM395.463 1262.48C392.668 1262.48 390.259 1261.94 388.236 1260.88C386.224 1259.8 384.673 1258.25 383.582 1256.24C382.503 1254.22 381.963 1251.8 381.963 1248.98C381.963 1246.27 382.509 1243.91 383.599 1241.89C384.69 1239.86 386.23 1238.29 388.219 1237.16C390.207 1236.04 392.554 1235.48 395.259 1235.48C397.236 1235.48 399.026 1235.78 400.628 1236.4C402.23 1237.01 403.599 1237.9 404.736 1239.07C405.872 1240.23 406.747 1241.64 407.361 1243.3C407.974 1244.96 408.281 1246.83 408.281 1248.91V1251.09H384.895V1245.91H399.622C399.611 1245.16 399.418 1244.5 399.043 1243.93C398.679 1243.35 398.185 1242.9 397.56 1242.59C396.946 1242.26 396.247 1242.09 395.463 1242.09C394.702 1242.09 394.003 1242.26 393.366 1242.59C392.73 1242.9 392.219 1243.35 391.832 1243.91C391.457 1244.48 391.259 1245.15 391.236 1245.91V1251.5C391.236 1252.34 391.412 1253.09 391.764 1253.75C392.116 1254.41 392.622 1254.93 393.281 1255.3C393.94 1255.68 394.736 1255.86 395.668 1255.86C396.315 1255.86 396.906 1255.77 397.44 1255.59C397.986 1255.41 398.452 1255.15 398.838 1254.81C399.224 1254.45 399.509 1254.03 399.69 1253.55H408.281C407.986 1255.36 407.287 1256.94 406.185 1258.28C405.082 1259.61 403.622 1260.65 401.804 1261.39C399.997 1262.11 397.884 1262.48 395.463 1262.48ZM412.121 1262V1235.82H421.257V1240.8H421.53C422.007 1238.95 422.763 1237.61 423.797 1236.76C424.842 1235.9 426.064 1235.48 427.462 1235.48C427.871 1235.48 428.274 1235.51 428.672 1235.58C429.081 1235.64 429.473 1235.72 429.848 1235.84V1243.86C429.382 1243.7 428.808 1243.59 428.126 1243.51C427.445 1243.43 426.859 1243.39 426.371 1243.39C425.45 1243.39 424.621 1243.6 423.882 1244.02C423.155 1244.43 422.581 1245.01 422.161 1245.76C421.74 1246.49 421.53 1247.36 421.53 1248.36V1262H412.121ZM443.979 1262.48C441.183 1262.48 438.774 1261.94 436.751 1260.88C434.74 1259.8 433.189 1258.25 432.098 1256.24C431.018 1254.22 430.479 1251.8 430.479 1248.98C430.479 1246.27 431.024 1243.91 432.115 1241.89C433.206 1239.86 434.746 1238.29 436.734 1237.16C438.723 1236.04 441.07 1235.48 443.774 1235.48C445.751 1235.48 447.541 1235.78 449.143 1236.4C450.746 1237.01 452.115 1237.9 453.251 1239.07C454.388 1240.23 455.263 1241.64 455.876 1243.3C456.49 1244.96 456.797 1246.83 456.797 1248.91V1251.09H433.411V1245.91H448.138C448.126 1245.16 447.933 1244.5 447.558 1243.93C447.195 1243.35 446.7 1242.9 446.075 1242.59C445.462 1242.26 444.763 1242.09 443.979 1242.09C443.217 1242.09 442.518 1242.26 441.882 1242.59C441.246 1242.9 440.734 1243.35 440.348 1243.91C439.973 1244.48 439.774 1245.15 439.751 1245.91V1251.5C439.751 1252.34 439.928 1253.09 440.28 1253.75C440.632 1254.41 441.138 1254.93 441.797 1255.3C442.456 1255.68 443.251 1255.86 444.183 1255.86C444.831 1255.86 445.422 1255.77 445.956 1255.59C446.501 1255.41 446.967 1255.15 447.354 1254.81C447.74 1254.45 448.024 1254.03 448.206 1253.55H456.797C456.501 1255.36 455.803 1256.94 454.7 1258.28C453.598 1259.61 452.138 1260.65 450.32 1261.39C448.513 1262.11 446.399 1262.48 443.979 1262.48ZM485.812 1235.82V1242.64H468.562V1235.82H485.812ZM471.903 1229.55H481.312V1253.58C481.312 1253.94 481.375 1254.25 481.5 1254.5C481.625 1254.74 481.818 1254.92 482.08 1255.05C482.341 1255.16 482.676 1255.22 483.085 1255.22C483.369 1255.22 483.699 1255.18 484.074 1255.11C484.46 1255.05 484.744 1254.99 484.926 1254.94L486.29 1261.56C485.869 1261.68 485.267 1261.84 484.483 1262.02C483.71 1262.2 482.79 1262.32 481.722 1262.38C479.563 1262.49 477.75 1262.27 476.284 1261.71C474.818 1261.14 473.716 1260.25 472.977 1259.03C472.239 1257.82 471.881 1256.3 471.903 1254.47V1229.55ZM499.624 1247.27V1262H490.214V1227.09H499.283V1240.8H499.555C500.146 1239.12 501.129 1237.82 502.504 1236.89C503.879 1235.95 505.533 1235.48 507.464 1235.48C509.317 1235.48 510.925 1235.9 512.288 1236.74C513.663 1237.58 514.726 1238.74 515.476 1240.22C516.237 1241.69 516.612 1243.39 516.601 1245.3V1262H507.192V1247.27C507.203 1245.98 506.879 1244.96 506.22 1244.22C505.572 1243.48 504.646 1243.11 503.442 1243.11C502.68 1243.11 502.01 1243.28 501.43 1243.62C500.862 1243.95 500.419 1244.43 500.101 1245.06C499.794 1245.67 499.635 1246.41 499.624 1247.27ZM533.791 1262.48C530.996 1262.48 528.587 1261.94 526.564 1260.88C524.553 1259.8 523.001 1258.25 521.911 1256.24C520.831 1254.22 520.291 1251.8 520.291 1248.98C520.291 1246.27 520.837 1243.91 521.928 1241.89C523.018 1239.86 524.558 1238.29 526.547 1237.16C528.536 1236.04 530.882 1235.48 533.587 1235.48C535.564 1235.48 537.354 1235.78 538.956 1236.4C540.558 1237.01 541.928 1237.9 543.064 1239.07C544.2 1240.23 545.075 1241.64 545.689 1243.3C546.303 1244.96 546.609 1246.83 546.609 1248.91V1251.09H523.223V1245.91H537.95C537.939 1245.16 537.746 1244.5 537.371 1243.93C537.007 1243.35 536.513 1242.9 535.888 1242.59C535.274 1242.26 534.575 1242.09 533.791 1242.09C533.03 1242.09 532.331 1242.26 531.695 1242.59C531.058 1242.9 530.547 1243.35 530.161 1243.91C529.786 1244.48 529.587 1245.15 529.564 1245.91V1251.5C529.564 1252.34 529.74 1253.09 530.092 1253.75C530.445 1254.41 530.95 1254.93 531.609 1255.3C532.268 1255.68 533.064 1255.86 533.996 1255.86C534.643 1255.86 535.234 1255.77 535.768 1255.59C536.314 1255.41 536.78 1255.15 537.166 1254.81C537.553 1254.45 537.837 1254.03 538.018 1253.55H546.609C546.314 1255.36 545.615 1256.94 544.513 1258.28C543.411 1259.61 541.95 1260.65 540.132 1261.39C538.325 1262.11 536.212 1262.48 533.791 1262.48ZM555.52 1271.82C554.44 1271.82 553.412 1271.73 552.435 1271.56C551.457 1271.4 550.599 1271.18 549.861 1270.9L551.906 1264.22C552.679 1264.49 553.384 1264.66 554.02 1264.74C554.668 1264.82 555.219 1264.78 555.673 1264.61C556.139 1264.44 556.474 1264.11 556.679 1263.64L556.884 1263.16L547.679 1235.82H557.497L561.724 1253.95H561.997L566.293 1235.82H576.179L566.634 1264.18C566.156 1265.62 565.463 1266.92 564.554 1268.07C563.656 1269.23 562.474 1270.14 561.009 1270.81C559.543 1271.48 557.713 1271.82 555.52 1271.82ZM604.031 1235.82V1242.64H586.781V1235.82H604.031ZM590.122 1229.55H599.531V1253.58C599.531 1253.94 599.594 1254.25 599.719 1254.5C599.844 1254.74 600.037 1254.92 600.298 1255.05C600.56 1255.16 600.895 1255.22 601.304 1255.22C601.588 1255.22 601.918 1255.18 602.293 1255.11C602.679 1255.05 602.963 1254.99 603.145 1254.94L604.509 1261.56C604.088 1261.68 603.486 1261.84 602.702 1262.02C601.929 1262.2 601.009 1262.32 599.94 1262.38C597.781 1262.49 595.969 1262.27 594.503 1261.71C593.037 1261.14 591.935 1260.25 591.196 1259.03C590.457 1257.82 590.099 1256.3 590.122 1254.47V1229.55ZM617.842 1247.27V1262H608.433V1227.09H617.501V1240.8H617.774C618.365 1239.12 619.348 1237.82 620.723 1236.89C622.098 1235.95 623.751 1235.48 625.683 1235.48C627.536 1235.48 629.143 1235.9 630.507 1236.74C631.882 1237.58 632.945 1238.74 633.695 1240.22C634.456 1241.69 634.831 1243.39 634.82 1245.3V1262H625.411V1247.27C625.422 1245.98 625.098 1244.96 624.439 1244.22C623.791 1243.48 622.865 1243.11 621.661 1243.11C620.899 1243.11 620.229 1243.28 619.649 1243.62C619.081 1243.95 618.638 1244.43 618.32 1245.06C618.013 1245.67 617.854 1246.41 617.842 1247.27ZM652.078 1262.48C649.237 1262.48 646.805 1261.91 644.783 1260.79C642.76 1259.65 641.209 1258.07 640.129 1256.05C639.05 1254.02 638.51 1251.66 638.51 1248.98C638.51 1246.3 639.05 1243.94 640.129 1241.92C641.209 1239.89 642.76 1238.31 644.783 1237.18C646.805 1236.05 649.237 1235.48 652.078 1235.48C654.919 1235.48 657.351 1236.05 659.374 1237.18C661.396 1238.31 662.947 1239.89 664.027 1241.92C665.107 1243.94 665.646 1246.3 665.646 1248.98C665.646 1251.66 665.107 1254.02 664.027 1256.05C662.947 1258.07 661.396 1259.65 659.374 1260.79C657.351 1261.91 654.919 1262.48 652.078 1262.48ZM652.146 1255.52C652.942 1255.52 653.629 1255.26 654.209 1254.72C654.788 1254.19 655.237 1253.43 655.555 1252.44C655.874 1251.45 656.033 1250.27 656.033 1248.91C656.033 1247.53 655.874 1246.36 655.555 1245.38C655.237 1244.39 654.788 1243.63 654.209 1243.1C653.629 1242.56 652.942 1242.3 652.146 1242.3C651.305 1242.3 650.584 1242.56 649.982 1243.1C649.379 1243.63 648.919 1244.39 648.601 1245.38C648.283 1246.36 648.124 1247.53 648.124 1248.91C648.124 1250.27 648.283 1251.45 648.601 1252.44C648.919 1253.43 649.379 1254.19 649.982 1254.72C650.584 1255.26 651.305 1255.52 652.146 1255.52ZM686.442 1250.55V1235.82H695.851V1262H686.919V1257.02H686.646C686.078 1258.69 685.084 1260 683.663 1260.94C682.243 1261.87 680.555 1262.34 678.601 1262.34C676.771 1262.34 675.169 1261.92 673.794 1261.08C672.43 1260.24 671.368 1259.08 670.607 1257.6C669.857 1256.12 669.476 1254.43 669.464 1252.52V1235.82H678.874V1250.55C678.885 1251.84 679.214 1252.86 679.862 1253.6C680.521 1254.34 681.442 1254.7 682.624 1254.7C683.408 1254.7 684.084 1254.54 684.652 1254.21C685.232 1253.87 685.675 1253.39 685.982 1252.78C686.3 1252.15 686.453 1251.41 686.442 1250.55ZM713.25 1272.36C710.625 1272.36 708.375 1271.99 706.5 1271.24C704.636 1270.5 703.188 1269.48 702.153 1268.17C701.131 1266.88 700.557 1265.39 700.432 1263.7H709.5C709.591 1264.26 709.818 1264.71 710.182 1265.05C710.545 1265.39 711.011 1265.64 711.58 1265.78C712.159 1265.94 712.807 1266.02 713.523 1266.02C714.739 1266.02 715.744 1265.73 716.54 1265.14C717.347 1264.55 717.75 1263.48 717.75 1261.93V1257.5H717.477C717.136 1258.39 716.614 1259.14 715.909 1259.77C715.205 1260.38 714.358 1260.85 713.369 1261.18C712.381 1261.5 711.295 1261.66 710.114 1261.66C708.25 1261.66 706.534 1261.23 704.966 1260.36C703.409 1259.5 702.159 1258.13 701.216 1256.26C700.284 1254.38 699.818 1251.93 699.818 1248.91C699.818 1245.75 700.307 1243.18 701.284 1241.2C702.273 1239.23 703.545 1237.78 705.102 1236.86C706.67 1235.94 708.318 1235.48 710.045 1235.48C711.341 1235.48 712.477 1235.7 713.455 1236.16C714.432 1236.6 715.25 1237.2 715.909 1237.95C716.568 1238.69 717.068 1239.5 717.409 1240.39H717.614V1235.82H727.023V1261.93C727.023 1264.15 726.449 1266.03 725.301 1267.57C724.165 1269.13 722.563 1270.32 720.494 1271.14C718.426 1271.95 716.011 1272.36 713.25 1272.36ZM713.591 1254.98C714.455 1254.98 715.193 1254.74 715.807 1254.26C716.432 1253.77 716.909 1253.08 717.239 1252.18C717.58 1251.27 717.75 1250.18 717.75 1248.91C717.75 1247.61 717.58 1246.51 717.239 1245.59C716.909 1244.65 716.432 1243.94 715.807 1243.45C715.193 1242.95 714.455 1242.7 713.591 1242.7C712.727 1242.7 711.989 1242.95 711.375 1243.45C710.773 1243.94 710.307 1244.65 709.977 1245.59C709.659 1246.51 709.5 1247.61 709.5 1248.91C709.5 1250.2 709.659 1251.31 709.977 1252.22C710.307 1253.11 710.773 1253.8 711.375 1254.28C711.989 1254.74 712.727 1254.98 713.591 1254.98ZM741.217 1247.27V1262H731.808V1227.09H740.876V1240.8H741.149C741.74 1239.12 742.723 1237.82 744.098 1236.89C745.473 1235.95 747.126 1235.48 749.058 1235.48C750.911 1235.48 752.518 1235.9 753.882 1236.74C755.257 1237.58 756.32 1238.74 757.07 1240.22C757.831 1241.69 758.206 1243.39 758.195 1245.3V1262H748.786V1247.27C748.797 1245.98 748.473 1244.96 747.814 1244.22C747.166 1243.48 746.24 1243.11 745.036 1243.11C744.274 1243.11 743.604 1243.28 743.024 1243.62C742.456 1243.95 742.013 1244.43 741.695 1245.06C741.388 1245.67 741.229 1246.41 741.217 1247.27ZM778.453 1235.82V1242.64H761.203V1235.82H778.453ZM764.544 1229.55H773.953V1253.58C773.953 1253.94 774.016 1254.25 774.141 1254.5C774.266 1254.74 774.459 1254.92 774.72 1255.05C774.982 1255.16 775.317 1255.22 775.726 1255.22C776.01 1255.22 776.339 1255.18 776.714 1255.11C777.101 1255.05 777.385 1254.99 777.567 1254.94L778.93 1261.56C778.51 1261.68 777.908 1261.84 777.124 1262.02C776.351 1262.2 775.43 1262.32 774.362 1262.38C772.203 1262.49 770.391 1262.27 768.925 1261.71C767.459 1261.14 766.357 1260.25 765.618 1259.03C764.879 1257.82 764.521 1256.3 764.544 1254.47V1229.55ZM807.469 1235.82V1242.64H790.219V1235.82H807.469ZM793.56 1229.55H802.969V1253.58C802.969 1253.94 803.031 1254.25 803.156 1254.5C803.281 1254.74 803.474 1254.92 803.736 1255.05C803.997 1255.16 804.332 1255.22 804.741 1255.22C805.026 1255.22 805.355 1255.18 805.73 1255.11C806.116 1255.05 806.401 1254.99 806.582 1254.94L807.946 1261.56C807.526 1261.68 806.923 1261.84 806.139 1262.02C805.366 1262.2 804.446 1262.32 803.378 1262.38C801.219 1262.49 799.406 1262.27 797.94 1261.71C796.474 1261.14 795.372 1260.25 794.634 1259.03C793.895 1257.82 793.537 1256.3 793.56 1254.47V1229.55ZM821.28 1247.27V1262H811.871V1227.09H820.939V1240.8H821.212C821.803 1239.12 822.786 1237.82 824.161 1236.89C825.536 1235.95 827.189 1235.48 829.121 1235.48C830.973 1235.48 832.581 1235.9 833.945 1236.74C835.32 1237.58 836.382 1238.74 837.132 1240.22C837.893 1241.69 838.268 1243.39 838.257 1245.3V1262H828.848V1247.27C828.859 1245.98 828.536 1244.96 827.876 1244.22C827.229 1243.48 826.303 1243.11 825.098 1243.11C824.337 1243.11 823.666 1243.28 823.087 1243.62C822.518 1243.95 822.075 1244.43 821.757 1245.06C821.45 1245.67 821.291 1246.41 821.28 1247.27ZM855.447 1262.48C852.652 1262.48 850.243 1261.94 848.22 1260.88C846.209 1259.8 844.658 1258.25 843.567 1256.24C842.487 1254.22 841.947 1251.8 841.947 1248.98C841.947 1246.27 842.493 1243.91 843.584 1241.89C844.675 1239.86 846.214 1238.29 848.203 1237.16C850.192 1236.04 852.538 1235.48 855.243 1235.48C857.22 1235.48 859.01 1235.78 860.612 1236.4C862.214 1237.01 863.584 1237.9 864.72 1239.07C865.857 1240.23 866.732 1241.64 867.345 1243.3C867.959 1244.96 868.266 1246.83 868.266 1248.91V1251.09H844.879V1245.91H859.607C859.595 1245.16 859.402 1244.5 859.027 1243.93C858.663 1243.35 858.169 1242.9 857.544 1242.59C856.93 1242.26 856.232 1242.09 855.447 1242.09C854.686 1242.09 853.987 1242.26 853.351 1242.59C852.714 1242.9 852.203 1243.35 851.817 1243.91C851.442 1244.48 851.243 1245.15 851.22 1245.91V1251.5C851.22 1252.34 851.396 1253.09 851.749 1253.75C852.101 1254.41 852.607 1254.93 853.266 1255.3C853.925 1255.68 854.72 1255.86 855.652 1255.86C856.3 1255.86 856.891 1255.77 857.425 1255.59C857.97 1255.41 858.436 1255.15 858.822 1254.81C859.209 1254.45 859.493 1254.03 859.675 1253.55H868.266C867.97 1255.36 867.271 1256.94 866.169 1258.28C865.067 1259.61 863.607 1260.65 861.788 1261.39C859.982 1262.11 857.868 1262.48 855.447 1262.48ZM877.176 1271.82C876.097 1271.82 875.068 1271.73 874.091 1271.56C873.114 1271.4 872.256 1271.18 871.517 1270.9L873.562 1264.22C874.335 1264.49 875.04 1264.66 875.676 1264.74C876.324 1264.82 876.875 1264.78 877.33 1264.61C877.795 1264.44 878.131 1264.11 878.335 1263.64L878.54 1263.16L869.335 1235.82H879.153L883.381 1253.95H883.653L887.949 1235.82H897.835L888.29 1264.18C887.812 1265.62 887.119 1266.92 886.21 1268.07C885.313 1269.23 884.131 1270.14 882.665 1270.81C881.199 1271.48 879.369 1271.82 877.176 1271.82ZM934.006 1244.34H925.347C925.301 1243.81 925.114 1243.35 924.784 1242.96C924.455 1242.57 924.028 1242.28 923.506 1242.07C922.994 1241.86 922.426 1241.75 921.801 1241.75C920.994 1241.75 920.301 1241.9 919.722 1242.19C919.142 1242.49 918.858 1242.91 918.869 1243.45C918.858 1243.84 919.023 1244.2 919.364 1244.53C919.716 1244.86 920.392 1245.11 921.392 1245.3L926.71 1246.25C929.392 1246.74 931.386 1247.56 932.693 1248.72C934.011 1249.87 934.676 1251.41 934.688 1253.34C934.676 1255.2 934.119 1256.82 933.017 1258.2C931.926 1259.56 930.432 1260.62 928.534 1261.37C926.648 1262.11 924.494 1262.48 922.074 1262.48C918.074 1262.48 914.943 1261.66 912.682 1260.02C910.432 1258.39 909.176 1256.23 908.915 1253.55H918.256C918.381 1254.37 918.79 1255.02 919.483 1255.47C920.188 1255.91 921.074 1256.14 922.142 1256.14C923.006 1256.14 923.716 1255.99 924.273 1255.69C924.841 1255.4 925.131 1254.98 925.142 1254.43C925.131 1253.93 924.881 1253.53 924.392 1253.24C923.915 1252.94 923.165 1252.7 922.142 1252.52L917.506 1251.7C914.835 1251.24 912.835 1250.35 911.506 1249.05C910.176 1247.74 909.517 1246.06 909.528 1244C909.517 1242.18 909.994 1240.64 910.96 1239.38C911.938 1238.11 913.33 1237.14 915.136 1236.48C916.955 1235.81 919.108 1235.48 921.597 1235.48C925.381 1235.48 928.364 1236.26 930.545 1237.83C932.739 1239.4 933.892 1241.57 934.006 1244.34ZM947.702 1247.27V1262H938.293V1227.09H947.361V1240.8H947.634C948.224 1239.12 949.207 1237.82 950.582 1236.89C951.957 1235.95 953.611 1235.48 955.543 1235.48C957.395 1235.48 959.003 1235.9 960.366 1236.74C961.741 1237.58 962.804 1238.74 963.554 1240.22C964.315 1241.69 964.69 1243.39 964.679 1245.3V1262H955.27V1247.27C955.281 1245.98 954.957 1244.96 954.298 1244.22C953.651 1243.48 952.724 1243.11 951.52 1243.11C950.759 1243.11 950.088 1243.28 949.509 1243.62C948.94 1243.95 948.497 1244.43 948.179 1245.06C947.872 1245.67 947.713 1246.41 947.702 1247.27ZM981.938 1262.48C979.097 1262.48 976.665 1261.91 974.642 1260.79C972.619 1259.65 971.068 1258.07 969.989 1256.05C968.909 1254.02 968.369 1251.66 968.369 1248.98C968.369 1246.3 968.909 1243.94 969.989 1241.92C971.068 1239.89 972.619 1238.31 974.642 1237.18C976.665 1236.05 979.097 1235.48 981.938 1235.48C984.778 1235.48 987.21 1236.05 989.233 1237.18C991.256 1238.31 992.807 1239.89 993.886 1241.92C994.966 1243.94 995.506 1246.3 995.506 1248.98C995.506 1251.66 994.966 1254.02 993.886 1256.05C992.807 1258.07 991.256 1259.65 989.233 1260.79C987.21 1261.91 984.778 1262.48 981.938 1262.48ZM982.006 1255.52C982.801 1255.52 983.489 1255.26 984.068 1254.72C984.648 1254.19 985.097 1253.43 985.415 1252.44C985.733 1251.45 985.892 1250.27 985.892 1248.91C985.892 1247.53 985.733 1246.36 985.415 1245.38C985.097 1244.39 984.648 1243.63 984.068 1243.1C983.489 1242.56 982.801 1242.3 982.006 1242.3C981.165 1242.3 980.443 1242.56 979.841 1243.1C979.239 1243.63 978.778 1244.39 978.46 1245.38C978.142 1246.36 977.983 1247.53 977.983 1248.91C977.983 1250.27 978.142 1251.45 978.46 1252.44C978.778 1253.43 979.239 1254.19 979.841 1254.72C980.443 1255.26 981.165 1255.52 982.006 1255.52ZM1016.3 1250.55V1235.82H1025.71V1262H1016.78V1257.02H1016.51C1015.94 1258.69 1014.94 1260 1013.52 1260.94C1012.1 1261.87 1010.41 1262.34 1008.46 1262.34C1006.63 1262.34 1005.03 1261.92 1003.65 1261.08C1002.29 1260.24 1001.23 1259.08 1000.47 1257.6C999.716 1256.12 999.335 1254.43 999.324 1252.52V1235.82H1008.73V1250.55C1008.74 1251.84 1009.07 1252.86 1009.72 1253.6C1010.38 1254.34 1011.3 1254.7 1012.48 1254.7C1013.27 1254.7 1013.94 1254.54 1014.51 1254.21C1015.09 1253.87 1015.53 1253.39 1015.84 1252.78C1016.16 1252.15 1016.31 1251.41 1016.3 1250.55ZM1039.9 1227.09V1262H1030.5V1227.09H1039.9ZM1054.18 1262.34C1052.31 1262.34 1050.6 1261.85 1049.03 1260.88C1047.47 1259.9 1046.22 1258.41 1045.28 1256.43C1044.35 1254.44 1043.88 1251.93 1043.88 1248.91C1043.88 1245.75 1044.37 1243.18 1045.35 1241.2C1046.34 1239.23 1047.61 1237.78 1049.16 1236.86C1050.73 1235.94 1052.38 1235.48 1054.11 1235.48C1055.4 1235.48 1056.54 1235.7 1057.52 1236.16C1058.49 1236.6 1059.31 1237.2 1059.97 1237.95C1060.63 1238.69 1061.13 1239.5 1061.47 1240.39H1061.61V1227.09H1071.02V1262H1061.68V1257.7H1061.47C1061.11 1258.59 1060.59 1259.39 1059.9 1260.09C1059.23 1260.78 1058.41 1261.34 1057.45 1261.74C1056.49 1262.14 1055.4 1262.34 1054.18 1262.34ZM1057.65 1255.11C1058.52 1255.11 1059.26 1254.86 1059.87 1254.36C1060.49 1253.85 1060.97 1253.14 1061.3 1252.22C1061.64 1251.28 1061.81 1250.18 1061.81 1248.91C1061.81 1247.61 1061.64 1246.51 1061.3 1245.59C1060.97 1244.65 1060.49 1243.94 1059.87 1243.45C1059.26 1242.95 1058.52 1242.7 1057.65 1242.7C1056.79 1242.7 1056.05 1242.95 1055.44 1243.45C1054.84 1243.94 1054.37 1244.65 1054.04 1245.59C1053.72 1246.51 1053.56 1247.61 1053.56 1248.91C1053.56 1250.2 1053.72 1251.32 1054.04 1252.25C1054.37 1253.17 1054.84 1253.88 1055.44 1254.38C1056.05 1254.87 1056.79 1255.11 1057.65 1255.11ZM1085.2 1262V1235.82H1094.34V1240.8H1094.61C1095.09 1238.95 1095.84 1237.61 1096.88 1236.76C1097.92 1235.9 1099.14 1235.48 1100.54 1235.48C1100.95 1235.48 1101.35 1235.51 1101.75 1235.58C1102.16 1235.64 1102.55 1235.72 1102.93 1235.84V1243.86C1102.46 1243.7 1101.89 1243.59 1101.2 1243.51C1100.52 1243.43 1099.94 1243.39 1099.45 1243.39C1098.53 1243.39 1097.7 1243.6 1096.96 1244.02C1096.23 1244.43 1095.66 1245.01 1095.24 1245.76C1094.82 1246.49 1094.61 1247.36 1094.61 1248.36V1262H1085.2ZM1117.06 1262.48C1114.26 1262.48 1111.85 1261.94 1109.83 1260.88C1107.82 1259.8 1106.27 1258.25 1105.18 1256.24C1104.1 1254.22 1103.56 1251.8 1103.56 1248.98C1103.56 1246.27 1104.1 1243.91 1105.19 1241.89C1106.28 1239.86 1107.82 1238.29 1109.81 1237.16C1111.8 1236.04 1114.15 1235.48 1116.85 1235.48C1118.83 1235.48 1120.62 1235.78 1122.22 1236.4C1123.82 1237.01 1125.19 1237.9 1126.33 1239.07C1127.47 1240.23 1128.34 1241.64 1128.95 1243.3C1129.57 1244.96 1129.88 1246.83 1129.88 1248.91V1251.09H1106.49V1245.91H1121.22C1121.2 1245.16 1121.01 1244.5 1120.64 1243.93C1120.27 1243.35 1119.78 1242.9 1119.15 1242.59C1118.54 1242.26 1117.84 1242.09 1117.06 1242.09C1116.3 1242.09 1115.6 1242.26 1114.96 1242.59C1114.32 1242.9 1113.81 1243.35 1113.43 1243.91C1113.05 1244.48 1112.85 1245.15 1112.83 1245.91V1251.5C1112.83 1252.34 1113.01 1253.09 1113.36 1253.75C1113.71 1254.41 1114.22 1254.93 1114.88 1255.3C1115.53 1255.68 1116.33 1255.86 1117.26 1255.86C1117.91 1255.86 1118.5 1255.77 1119.03 1255.59C1119.58 1255.41 1120.05 1255.15 1120.43 1254.81C1120.82 1254.45 1121.1 1254.03 1121.28 1253.55H1129.88C1129.58 1255.36 1128.88 1256.94 1127.78 1258.28C1126.68 1259.61 1125.22 1260.65 1123.4 1261.39C1121.59 1262.11 1119.48 1262.48 1117.06 1262.48ZM1133.71 1262V1235.82H1143.12V1262H1133.71ZM1138.42 1233.09C1137.15 1233.09 1136.06 1232.67 1135.15 1231.83C1134.24 1230.99 1133.78 1229.98 1133.78 1228.8C1133.78 1227.61 1134.24 1226.6 1135.15 1225.76C1136.06 1224.92 1137.15 1224.5 1138.42 1224.5C1139.7 1224.5 1140.79 1224.92 1141.69 1225.76C1142.6 1226.6 1143.06 1227.61 1143.06 1228.8C1143.06 1229.98 1142.6 1230.99 1141.69 1231.83C1140.79 1232.67 1139.7 1233.09 1138.42 1233.09ZM1157.33 1247.27V1262H1147.92V1235.82H1156.85V1240.8H1157.12C1157.69 1239.14 1158.69 1237.84 1160.12 1236.89C1161.57 1235.95 1163.25 1235.48 1165.17 1235.48C1167.02 1235.48 1168.63 1235.9 1169.99 1236.76C1171.37 1237.6 1172.43 1238.76 1173.18 1240.23C1173.94 1241.71 1174.32 1243.4 1174.3 1245.3V1262H1164.89V1247.27C1164.91 1245.98 1164.58 1244.96 1163.91 1244.22C1163.25 1243.48 1162.33 1243.11 1161.14 1243.11C1160.37 1243.11 1159.7 1243.28 1159.12 1243.62C1158.55 1243.95 1158.11 1244.43 1157.8 1245.06C1157.5 1245.67 1157.34 1246.41 1157.33 1247.27ZM1194.63 1235.82V1242.64H1177.11V1235.82H1194.63ZM1180.45 1262V1235.07C1180.45 1232.91 1180.84 1231.12 1181.61 1229.7C1182.38 1228.28 1183.47 1227.22 1184.88 1226.51C1186.29 1225.81 1187.95 1225.45 1189.86 1225.45C1191.05 1225.45 1192.21 1225.55 1193.34 1225.73C1194.47 1225.91 1195.31 1226.07 1195.86 1226.2L1194.49 1232.95C1194.15 1232.85 1193.76 1232.77 1193.3 1232.72C1192.85 1232.65 1192.45 1232.61 1192.11 1232.61C1191.22 1232.61 1190.63 1232.8 1190.32 1233.18C1190.01 1233.55 1189.86 1234.05 1189.86 1234.66V1262H1180.45ZM1210.08 1262.48C1207.24 1262.48 1204.81 1261.91 1202.78 1260.79C1200.76 1259.65 1199.21 1258.07 1198.13 1256.05C1197.05 1254.02 1196.51 1251.66 1196.51 1248.98C1196.51 1246.3 1197.05 1243.94 1198.13 1241.92C1199.21 1239.89 1200.76 1238.31 1202.78 1237.18C1204.81 1236.05 1207.24 1235.48 1210.08 1235.48C1212.92 1235.48 1215.35 1236.05 1217.37 1237.18C1219.4 1238.31 1220.95 1239.89 1222.03 1241.92C1223.11 1243.94 1223.65 1246.3 1223.65 1248.98C1223.65 1251.66 1223.11 1254.02 1222.03 1256.05C1220.95 1258.07 1219.4 1259.65 1217.37 1260.79C1215.35 1261.91 1212.92 1262.48 1210.08 1262.48ZM1210.15 1255.52C1210.94 1255.52 1211.63 1255.26 1212.21 1254.72C1212.79 1254.19 1213.24 1253.43 1213.56 1252.44C1213.87 1251.45 1214.03 1250.27 1214.03 1248.91C1214.03 1247.53 1213.87 1246.36 1213.56 1245.38C1213.24 1244.39 1212.79 1243.63 1212.21 1243.1C1211.63 1242.56 1210.94 1242.3 1210.15 1242.3C1209.31 1242.3 1208.58 1242.56 1207.98 1243.1C1207.38 1243.63 1206.92 1244.39 1206.6 1245.38C1206.28 1246.36 1206.12 1247.53 1206.12 1248.91C1206.12 1250.27 1206.28 1251.45 1206.6 1252.44C1206.92 1253.43 1207.38 1254.19 1207.98 1254.72C1208.58 1255.26 1209.31 1255.52 1210.15 1255.52ZM1227.46 1262V1235.82H1236.6V1240.8H1236.87C1237.35 1238.95 1238.11 1237.61 1239.14 1236.76C1240.19 1235.9 1241.41 1235.48 1242.81 1235.48C1243.21 1235.48 1243.62 1235.51 1244.02 1235.58C1244.42 1235.64 1244.82 1235.72 1245.19 1235.84V1243.86C1244.73 1243.7 1244.15 1243.59 1243.47 1243.51C1242.79 1243.43 1242.2 1243.39 1241.71 1243.39C1240.79 1243.39 1239.96 1243.6 1239.23 1244.02C1238.5 1244.43 1237.92 1245.01 1237.5 1245.76C1237.08 1246.49 1236.87 1247.36 1236.87 1248.36V1262H1227.46ZM1259.39 1262.48C1256.55 1262.48 1254.12 1261.91 1252.1 1260.79C1250.07 1259.65 1248.52 1258.07 1247.44 1256.05C1246.36 1254.02 1245.82 1251.66 1245.82 1248.98C1245.82 1246.3 1246.36 1243.94 1247.44 1241.92C1248.52 1239.89 1250.07 1238.31 1252.1 1237.18C1254.12 1236.05 1256.55 1235.48 1259.39 1235.48C1261.96 1235.48 1264.18 1235.94 1266.06 1236.88C1267.94 1237.8 1269.4 1239.1 1270.44 1240.8C1271.47 1242.48 1271.99 1244.45 1272 1246.73H1263.28C1263.15 1245.35 1262.75 1244.31 1262.08 1243.59C1261.42 1242.86 1260.57 1242.5 1259.53 1242.5C1258.71 1242.5 1257.99 1242.74 1257.38 1243.22C1256.77 1243.68 1256.29 1244.39 1255.95 1245.35C1255.61 1246.29 1255.44 1247.48 1255.44 1248.91C1255.44 1250.34 1255.61 1251.53 1255.95 1252.49C1256.29 1253.43 1256.77 1254.14 1257.38 1254.62C1257.99 1255.09 1258.71 1255.32 1259.53 1255.32C1260.22 1255.32 1260.83 1255.16 1261.37 1254.84C1261.9 1254.51 1262.33 1254.03 1262.66 1253.41C1263 1252.77 1263.21 1252 1263.28 1251.09H1272C1271.97 1253.4 1271.44 1255.41 1270.42 1257.12C1269.4 1258.83 1267.95 1260.15 1266.07 1261.08C1264.21 1262.01 1261.98 1262.48 1259.39 1262.48ZM1288.43 1262.48C1285.64 1262.48 1283.23 1261.94 1281.2 1260.88C1279.19 1259.8 1277.64 1258.25 1276.55 1256.24C1275.47 1254.22 1274.93 1251.8 1274.93 1248.98C1274.93 1246.27 1275.48 1243.91 1276.57 1241.89C1277.66 1239.86 1279.2 1238.29 1281.19 1237.16C1283.18 1236.04 1285.52 1235.48 1288.23 1235.48C1290.2 1235.48 1291.99 1235.78 1293.6 1236.4C1295.2 1237.01 1296.57 1237.9 1297.7 1239.07C1298.84 1240.23 1299.72 1241.64 1300.33 1243.3C1300.94 1244.96 1301.25 1246.83 1301.25 1248.91V1251.09H1277.86V1245.91H1292.59C1292.58 1245.16 1292.39 1244.5 1292.01 1243.93C1291.65 1243.35 1291.15 1242.9 1290.53 1242.59C1289.91 1242.26 1289.22 1242.09 1288.43 1242.09C1287.67 1242.09 1286.97 1242.26 1286.34 1242.59C1285.7 1242.9 1285.19 1243.35 1284.8 1243.91C1284.43 1244.48 1284.23 1245.15 1284.2 1245.91V1251.5C1284.2 1252.34 1284.38 1253.09 1284.73 1253.75C1285.09 1254.41 1285.59 1254.93 1286.25 1255.3C1286.91 1255.68 1287.7 1255.86 1288.64 1255.86C1289.28 1255.86 1289.88 1255.77 1290.41 1255.59C1290.95 1255.41 1291.42 1255.15 1291.81 1254.81C1292.19 1254.45 1292.48 1254.03 1292.66 1253.55H1301.25C1300.95 1255.36 1300.26 1256.94 1299.15 1258.28C1298.05 1259.61 1296.59 1260.65 1294.77 1261.39C1292.97 1262.11 1290.85 1262.48 1288.43 1262.48Z" fill="black"/>
<path d="M2743.5 695C2760.34 695 2774 681.121 2774 664C2774 646.879 2760.34 633 2743.5 633C2726.66 633 2713 646.879 2713 664C2713 681.121 2726.66 695 2743.5 695Z" stroke="black" stroke-width="2"/>
<path d="M2743.5 709C2764.76 709 2782 689.748 2782 666C2782 642.252 2764.76 623 2743.5 623C2722.24 623 2705 642.252 2705 666C2705 689.748 2722.24 709 2743.5 709Z" stroke="black" stroke-width="2"/>
<path d="M2742.5 500C2751.61 500 2759 493.061 2759 484.5C2759 475.94 2751.61 469 2742.5 469C2733.39 469 2726 475.94 2726 484.5C2726 493.061 2733.39 500 2742.5 500Z" stroke="black" stroke-width="2"/>
<path d="M2762.18 155.696C2762.98 155.696 2763.62 155.028 2763.62 154.205C2763.62 153.381 2762.98 152.714 2762.18 152.714C2761.39 152.714 2760.75 153.381 2760.75 154.205C2760.75 155.028 2761.39 155.696 2762.18 155.696Z" stroke="black" stroke-width="4"/>
<path d="M2762.18 155.365L2761.9 143.474" stroke="black" stroke-width="3"/>
<path fill-rule="evenodd" clip-rule="evenodd" d="M2741.5 417C2750.26 421.073 2744.58 432.975 2741.5 437C2739.61 433.117 2730.91 424.224 2741.5 417Z" fill="#050505" stroke="black" stroke-width="2"/>
<path d="M2690 307C2690 307 2680 522 2684 552" stroke="black" stroke-width="4"/>
<path d="M2372 501L2374 433L2683 486" stroke="black" stroke-width="3"/>
<path d="M2155 456V435L2373 460" stroke="black" stroke-width="3"/>
<path d="M2297 487V480L2333 486V494" stroke="black" stroke-width="2"/>
<path d="M2716 912L2734.5 1035" stroke="black" stroke-width="2" stroke-dasharray="4 4"/>
<path d="M2562 1031L2548 994L2724 983L2723 1033" stroke="black" stroke-width="3"/>
<path d="M2610 1032V1025H2692V1034" stroke="black" stroke-width="3"/>
<path d="M2537 954L2741 377" stroke="black"/>
<path fill-rule="evenodd" clip-rule="evenodd" d="M2585.67 192L2586.67 277.667L2606.33 277L2606 190.667L2601.33 184.667L2588.33 185.333L2585.67 192Z" stroke="black" stroke-width="2"/>
<path d="M2549.33 252.333L2586 252.667" stroke="black" stroke-width="3"/>
<path d="M2552 265.333L2586.33 265" stroke="black" stroke-width="3"/>
<path d="M2606.67 252.333L2642 251.667" stroke="black" stroke-width="3"/>
<path d="M2606.67 265H2639.67" stroke="black" stroke-width="3"/>
<path fill-rule="evenodd" clip-rule="evenodd" d="M2588.33 185.333L2583 181.333V175L2588.33 170.333H2602.33L2606.33 174.333V181L2601.33 184.667L2588.33 185.333Z" stroke="black" stroke-width="2"/>
<path d="M2587.33 170.333L2587.33 157C2587.33 157 2594.67 143.333 2602.33 156.667C2602.45 161.09 2601.78 170.089 2602.33 170.333" stroke="black" stroke-width="2"/>
<path fill-rule="evenodd" clip-rule="evenodd" d="M2583 181.333C2583 181.333 2521.3 182.333 2488.66 178.667C2552.31 171 2583 175 2583 175V181.333Z" stroke="black" stroke-width="2"/>
<path fill-rule="evenodd" clip-rule="evenodd" d="M2606.33 181C2606.33 181 2668.03 182 2700.67 178.333C2637.02 170.667 2606.33 174.667 2606.33 174.667V181Z" stroke="black" stroke-width="2"/>
<path d="M2582.67 177.667L2495.67 178.333" stroke="black" stroke-width="2"/>
<path d="M2693 177.333L2606 178" stroke="black" stroke-width="2"/>
<path d="M2594.83 182.333C2598.24 182.333 2601 180.319 2601 177.833C2601 175.348 2598.24 173.333 2594.83 173.333C2591.43 173.333 2588.67 175.348 2588.67 177.833C2588.67 180.319 2591.43 182.333 2594.83 182.333Z" fill="#050505" stroke="black" stroke-width="2"/>
<path d="M2595.5 141.5L2596 230.5" stroke="black" stroke-width="2"/>
<path d="M2595.5 240.5L2596.5 293.5" stroke="black" stroke-width="2"/>
<path d="M2596.5 304L2597 345.5" stroke="black" stroke-width="2"/>
<path d="M2550 328C2560.74 326.21 2565.62 351.098 2574.37 380.056C2580.53 400.442 2586.03 420.196 2597 436C2605.79 428.299 2618.97 408.285 2625.52 375.881C2633.18 337.933 2634.43 321.737 2642 314" stroke="black" stroke-width="3"/>
<path d="M2716 156.5C2717.38 156.5 2718.5 155.49 2718.5 154.243C2718.5 152.997 2717.38 151.987 2716 151.987C2714.62 151.987 2713.5 152.997 2713.5 154.243C2713.5 155.49 2714.62 156.5 2716 156.5Z" stroke="black" stroke-width="4"/>
<path d="M2716 156L2715.5 138" stroke="black" stroke-width="3"/>
<path d="M2740 243C2725.34 257.031 2710.11 271.896 2704.5 273L2694.5 326C2694.5 326 2698 336 2705.5 326.5C2707 316.5 2711.5 290.5 2711.5 290.5L2740 266" stroke="black" stroke-width="2"/>
<path d="M2705.5 326.5L2776.5 326" stroke="black" stroke-width="2"/>
<path d="M2703.5 278L2711.5 290.5L2769 291L2778.5 275.167" stroke="black" stroke-width="4"/>
<path d="M2740 243V327" stroke="black" stroke-width="4"/>
<path d="M2737 388L2727 376" stroke="black" stroke-width="2"/>
<path d="M2727.28 378C2728.26 378 2729.06 377.203 2729.06 376.221C2729.06 375.238 2728.26 374.441 2727.28 374.441C2726.3 374.441 2725.5 375.238 2725.5 376.221C2725.5 377.203 2726.3 378 2727.28 378Z" stroke="black" stroke-width="4"/>
<path d="M2740.78 378C2741.76 378 2742.56 377.203 2742.56 376.221C2742.56 375.238 2741.76 374.441 2740.78 374.441C2739.8 374.441 2739 375.238 2739 376.221C2739 377.203 2739.8 378 2740.78 378Z" stroke="black" stroke-width="4"/>
<path d="M2728 669.5H2722.5V698.5H2728V669.5Z" fill="white" stroke="black" stroke-width="2"/>
<path d="M2726 698.597H2724.59V730.5H2726V698.597Z" stroke="black" stroke-width="3"/>
<path d="M2757.5 106C2757.5 106 2782.09 182 2792.11 305L2841.06 313.333L2843.23 264.667L2841.23 261.333C2841.23 261.333 2839.55 256 2840.22 249.667C2838.85 181.916 2858.39 188.697 2863.28 188C2863.28 188 2898.02 188.333 2917.06 188.667C2935.34 188.618 2932.09 249.83 2933.1 250.333C2932.98 253.778 2933.71 257.889 2933.43 260.667L2930.09 264.667L2932.43 326L3330.34 385C3330.34 385 3454.58 407.562 3304.28 465C3281.44 473.726 2798.13 550 2798.13 550C2798.13 550 2807.13 710 2776.05 910C2847.22 922 2930.39 940.538 2963.48 947C3000.43 954.216 3013.84 1019.39 2955.46 1029C2934.48 1032.45 2757.51 1033 2757.51 1033C2757.51 1033 2754.51 1065 2745.99 1069C2737.5 1067 2734.5 1035 2734.5 1035C2734.5 1035 2557.93 1034.45 2537 1031C2478.76 1021.39 2492.14 956.216 2529 949C2562.01 942.538 2645 924 2716 912C2685 712 2684 552 2684 552C2684 552 2201.78 475.726 2179 467C2029.04 409.562 2153 387 2153 387L2550 328L2552.33 266.667L2549 262.667C2548.73 259.889 2549.46 255.778 2549.33 252.333C2550.34 251.83 2547.1 190.618 2565.33 190.667C2584.33 190.333 2619 190 2619 190C2623.88 190.697 2643.37 183.916 2642 251.667C2642.67 258 2641 263.333 2641 263.333L2639 266.667L2641.17 315.333L2690 307C2700 184 2720 107 2720 107M2757.5 106L2720 107M2757.5 106C2759.94 105.5 2757.01 74 2738.5 74C2723.91 74.3809 2720.68 95.3254 2720 107" stroke="black" stroke-width="4"/>
<path d="M2792.11 305C2792.11 305 2802.14 520 2798.13 550" stroke="black" stroke-width="4"/>
<path d="M3110.84 499L3108.83 431L2799.13 484" stroke="black" stroke-width="3"/>
<path d="M3328.33 454V433L3109.84 458" stroke="black" stroke-width="3"/>
<path d="M3186.01 485V478L3149.93 484V492" stroke="black" stroke-width="2"/>
<path d="M2776.05 910L2756.51 1034" stroke="black" stroke-width="2" stroke-dasharray="4 4"/>
<path d="M2929.41 1030L2943.44 993L2767.04 982L2768.04 1032" stroke="black" stroke-width="3"/>
<path d="M2881.3 1031V1024H2799.11V1033" stroke="black" stroke-width="3"/>
<path d="M2954.46 952L2740.66 376" stroke="black"/>
<path fill-rule="evenodd" clip-rule="evenodd" d="M2896.68 190L2895.68 275.667L2875.97 275L2876.31 188.667L2880.98 182.667L2894.01 183.333L2896.68 190Z" stroke="black" stroke-width="2"/>
<path d="M2933.1 250.333L2896.35 250.667" stroke="black" stroke-width="3"/>
<path d="M2930.43 263.333L2896.02 263" stroke="black" stroke-width="3"/>
<path d="M2875.64 250.333L2840.22 249.667" stroke="black" stroke-width="3"/>
<path d="M2875.64 263H2842.56" stroke="black" stroke-width="3"/>
<path fill-rule="evenodd" clip-rule="evenodd" d="M2894.01 183.333L2899.36 179.333V173L2894.01 168.333H2879.98L2875.97 172.333V179L2880.98 182.667L2894.01 183.333Z" stroke="black" stroke-width="2"/>
<path d="M2895.01 168.333L2895.01 155C2895.01 155 2887.66 141.333 2879.98 154.667C2879.86 159.09 2880.53 168.089 2879.98 168.333" stroke="black" stroke-width="2"/>
<path fill-rule="evenodd" clip-rule="evenodd" d="M2899.36 179.333C2899.36 179.333 2961.2 180.333 2993.91 176.667C2930.11 169 2899.36 173 2899.36 173V179.333Z" stroke="black" stroke-width="2"/>
<path fill-rule="evenodd" clip-rule="evenodd" d="M2875.97 179C2875.97 179 2814.14 180 2781.42 176.333C2845.22 168.667 2875.97 172.667 2875.97 172.667V179Z" stroke="black" stroke-width="2"/>
<path d="M2899.69 175.667L2986.89 176.333" stroke="black" stroke-width="2"/>
<path d="M2789.11 175.333L2876.31 176" stroke="black" stroke-width="2"/>
<path d="M2887.5 180.333C2884.08 180.333 2881.32 178.319 2881.32 175.833C2881.32 173.348 2884.08 171.333 2887.5 171.333C2890.91 171.333 2893.68 173.348 2893.68 175.833C2893.68 178.319 2890.91 180.333 2887.5 180.333Z" fill="#050505" stroke="black" stroke-width="2"/>
<path d="M2886.83 139.5L2886.33 228.5" stroke="black" stroke-width="2"/>
<path d="M2886.83 238.5L2885.83 291.5" stroke="black" stroke-width="2"/>
<path d="M2885.83 302L2885.33 343.5" stroke="black" stroke-width="2"/>
<path d="M2932.43 326C2921.67 324.21 2916.77 349.098 2908.01 378.056C2901.84 398.442 2896.32 418.196 2885.33 434C2876.52 426.299 2863.31 406.285 2856.74 373.881C2849.06 335.933 2847.81 319.737 2840.22 312" stroke="black" stroke-width="3"/>
<path d="M2740 243C2754.69 257.031 2771.96 269.896 2777.58 271L2787.6 324C2787.6 324 2784.02 335.5 2776.5 326C2775 316 2770.23 290.5 2770.23 290.5L2740 266" stroke="black" stroke-width="2"/>
<path d="M2745.01 386L2755.03 374" stroke="black" stroke-width="2"/>
<path d="M2754.75 376C2753.76 376 2752.97 375.203 2752.97 374.221C2752.97 373.238 2753.76 372.441 2754.75 372.441C2755.73 372.441 2756.53 373.238 2756.53 374.221C2756.53 375.203 2755.73 376 2754.75 376Z" stroke="black" stroke-width="4"/>
<path d="M2758.03 668.5H2763.54V697.5H2758.03V668.5Z" fill="white" stroke="black" stroke-width="2"/>
<path d="M2760.03 697.597H2761.44V729.5H2760.03V697.597Z" stroke="black" stroke-width="3"/>
<path d="M2734.5 1035L2756.51 1034" stroke="black" stroke-width="4"/>
<path d="M2738.5 69.5V84.5" stroke="black" stroke-width="2"/>
<path d="M2739 93V144" stroke="black" stroke-width="2"/>
<path d="M2738.5 153.5L2739 203.5" stroke="black" stroke-width="2"/>
<path d="M2739 212.5L2740 243" stroke="black" stroke-width="2"/>
<path d="M2740 325V340.5" stroke="black" stroke-width="2"/>
<path d="M2740.5 349L2741 411" stroke="black" stroke-width="2"/>
<path d="M2741.5 437V487" stroke="black" stroke-width="2"/>
<path d="M2742 503V569" stroke="black" stroke-width="2"/>
<path d="M2743.5 609.5L2743 650.5" stroke="black" stroke-width="2"/>
<path d="M2742 660.5L2743 722.5" stroke="black" stroke-width="2"/>
<path d="M2743 731.5L2742.5 793.5" stroke="black" stroke-width="2"/>
<path d="M2742.5 805V878.5" stroke="black" stroke-width="2"/>
<path d="M2743 890L2744 947" stroke="black" stroke-width="2"/>
<path d="M2744.5 960.5L2745 1016" stroke="black" stroke-width="2"/>
<path d="M2746 1027.5V1079" stroke="black" stroke-width="2"/>
<path fill-rule="evenodd" clip-rule="evenodd" d="M2536.67 947.667C2530.02 960.688 2528.9 1013.2 2538 1048C2544.92 1010.59 2541.13 954.46 2536.67 947.667Z" fill="white" stroke="black" stroke-width="3"/>
<path d="M2531 996.333H2541.67" stroke="black" stroke-width="3"/>
<path fill-rule="evenodd" clip-rule="evenodd" d="M2954.8 946.667C2961.46 959.688 2964.58 1010.7 2955.46 1045.5C2948.52 1008.09 2950.33 953.46 2954.8 946.667Z" fill="white" stroke="black" stroke-width="3"/>
<path d="M2960.48 995.333H2949.78" stroke="black" stroke-width="3"/>
<rect x="2302" y="1199" width="91" height="91" rx="16" fill="#0000FF"/>
<path d="M2440.11 1262L2429.82 1227.09H2440.39L2445.16 1248.57H2445.43L2451.09 1227.09H2459.41L2465.07 1248.64H2465.34L2470.11 1227.09H2480.68L2470.39 1262H2461.32L2455.39 1242.5H2455.11L2449.18 1262H2440.11ZM2493.3 1247.27V1262H2483.89V1227.09H2492.95V1240.8H2493.23C2493.82 1239.12 2494.8 1237.82 2496.18 1236.89C2497.55 1235.95 2499.2 1235.48 2501.14 1235.48C2502.99 1235.48 2504.6 1235.9 2505.96 1236.74C2507.34 1237.58 2508.4 1238.74 2509.15 1240.22C2509.91 1241.69 2510.28 1243.39 2510.27 1245.3V1262H2500.86V1247.27C2500.88 1245.98 2500.55 1244.96 2499.89 1244.22C2499.24 1243.48 2498.32 1243.11 2497.11 1243.11C2496.35 1243.11 2495.68 1243.28 2495.1 1243.62C2494.53 1243.95 2494.09 1244.43 2493.77 1245.06C2493.47 1245.67 2493.31 1246.41 2493.3 1247.27ZM2527.46 1262.48C2524.67 1262.48 2522.26 1261.94 2520.24 1260.88C2518.22 1259.8 2516.67 1258.25 2515.58 1256.24C2514.5 1254.22 2513.96 1251.8 2513.96 1248.98C2513.96 1246.27 2514.51 1243.91 2515.6 1241.89C2516.69 1239.86 2518.23 1238.29 2520.22 1237.16C2522.21 1236.04 2524.55 1235.48 2527.26 1235.48C2529.24 1235.48 2531.03 1235.78 2532.63 1236.4C2534.23 1237.01 2535.6 1237.9 2536.74 1239.07C2537.87 1240.23 2538.75 1241.64 2539.36 1243.3C2539.97 1244.96 2540.28 1246.83 2540.28 1248.91V1251.09H2516.89V1245.91H2531.62C2531.61 1245.16 2531.42 1244.5 2531.04 1243.93C2530.68 1243.35 2530.18 1242.9 2529.56 1242.59C2528.95 1242.26 2528.25 1242.09 2527.46 1242.09C2526.7 1242.09 2526 1242.26 2525.37 1242.59C2524.73 1242.9 2524.22 1243.35 2523.83 1243.91C2523.46 1244.48 2523.26 1245.15 2523.24 1245.91V1251.5C2523.24 1252.34 2523.41 1253.09 2523.76 1253.75C2524.12 1254.41 2524.62 1254.93 2525.28 1255.3C2525.94 1255.68 2526.74 1255.86 2527.67 1255.86C2528.32 1255.86 2528.91 1255.77 2529.44 1255.59C2529.99 1255.41 2530.45 1255.15 2530.84 1254.81C2531.22 1254.45 2531.51 1254.03 2531.69 1253.55H2540.28C2539.99 1255.36 2539.29 1256.94 2538.18 1258.28C2537.08 1259.61 2535.62 1260.65 2533.8 1261.39C2532 1262.11 2529.88 1262.48 2527.46 1262.48ZM2544.12 1262V1235.82H2553.26V1240.8H2553.53C2554.01 1238.95 2554.76 1237.61 2555.8 1236.76C2556.84 1235.9 2558.06 1235.48 2559.46 1235.48C2559.87 1235.48 2560.27 1235.51 2560.67 1235.58C2561.08 1235.64 2561.47 1235.72 2561.85 1235.84V1243.86C2561.38 1243.7 2560.81 1243.59 2560.13 1243.51C2559.44 1243.43 2558.86 1243.39 2558.37 1243.39C2557.45 1243.39 2556.62 1243.6 2555.88 1244.02C2555.15 1244.43 2554.58 1245.01 2554.16 1245.76C2553.74 1246.49 2553.53 1247.36 2553.53 1248.36V1262H2544.12ZM2575.98 1262.48C2573.18 1262.48 2570.77 1261.94 2568.75 1260.88C2566.74 1259.8 2565.19 1258.25 2564.1 1256.24C2563.02 1254.22 2562.48 1251.8 2562.48 1248.98C2562.48 1246.27 2563.02 1243.91 2564.12 1241.89C2565.21 1239.86 2566.75 1238.29 2568.73 1237.16C2570.72 1236.04 2573.07 1235.48 2575.77 1235.48C2577.75 1235.48 2579.54 1235.78 2581.14 1236.4C2582.75 1237.01 2584.12 1237.9 2585.25 1239.07C2586.39 1240.23 2587.26 1241.64 2587.88 1243.3C2588.49 1244.96 2588.8 1246.83 2588.8 1248.91V1251.09H2565.41V1245.91H2580.14C2580.13 1245.16 2579.93 1244.5 2579.56 1243.93C2579.19 1243.35 2578.7 1242.9 2578.08 1242.59C2577.46 1242.26 2576.76 1242.09 2575.98 1242.09C2575.22 1242.09 2574.52 1242.26 2573.88 1242.59C2573.25 1242.9 2572.73 1243.35 2572.35 1243.91C2571.97 1244.48 2571.77 1245.15 2571.75 1245.91V1251.5C2571.75 1252.34 2571.93 1253.09 2572.28 1253.75C2572.63 1254.41 2573.14 1254.93 2573.8 1255.3C2574.46 1255.68 2575.25 1255.86 2576.18 1255.86C2576.83 1255.86 2577.42 1255.77 2577.96 1255.59C2578.5 1255.41 2578.97 1255.15 2579.35 1254.81C2579.74 1254.45 2580.02 1254.03 2580.21 1253.55H2588.8C2588.5 1255.36 2587.8 1256.94 2586.7 1258.28C2585.6 1259.61 2584.14 1260.65 2582.32 1261.39C2580.51 1262.11 2578.4 1262.48 2575.98 1262.48ZM2617.81 1235.82V1242.64H2600.56V1235.82H2617.81ZM2603.9 1229.55H2613.31V1253.58C2613.31 1253.94 2613.38 1254.25 2613.5 1254.5C2613.62 1254.74 2613.82 1254.92 2614.08 1255.05C2614.34 1255.16 2614.68 1255.22 2615.09 1255.22C2615.37 1255.22 2615.7 1255.18 2616.07 1255.11C2616.46 1255.05 2616.74 1254.99 2616.93 1254.94L2618.29 1261.56C2617.87 1261.68 2617.27 1261.84 2616.48 1262.02C2615.71 1262.2 2614.79 1262.32 2613.72 1262.38C2611.56 1262.49 2609.75 1262.27 2608.28 1261.71C2606.82 1261.14 2605.72 1260.25 2604.98 1259.03C2604.24 1257.82 2603.88 1256.3 2603.9 1254.47V1229.55ZM2631.62 1247.27V1262H2622.21V1227.09H2631.28V1240.8H2631.56C2632.15 1239.12 2633.13 1237.82 2634.5 1236.89C2635.88 1235.95 2637.53 1235.48 2639.46 1235.48C2641.32 1235.48 2642.92 1235.9 2644.29 1236.74C2645.66 1237.58 2646.73 1238.74 2647.48 1240.22C2648.24 1241.69 2648.61 1243.39 2648.6 1245.3V1262H2639.19V1247.27C2639.2 1245.98 2638.88 1244.96 2638.22 1244.22C2637.57 1243.48 2636.65 1243.11 2635.44 1243.11C2634.68 1243.11 2634.01 1243.28 2633.43 1243.62C2632.86 1243.95 2632.42 1244.43 2632.1 1245.06C2631.79 1245.67 2631.63 1246.41 2631.62 1247.27ZM2665.79 1262.48C2663 1262.48 2660.59 1261.94 2658.56 1260.88C2656.55 1259.8 2655 1258.25 2653.91 1256.24C2652.83 1254.22 2652.29 1251.8 2652.29 1248.98C2652.29 1246.27 2652.84 1243.91 2653.93 1241.89C2655.02 1239.86 2656.56 1238.29 2658.55 1237.16C2660.54 1236.04 2662.88 1235.48 2665.59 1235.48C2667.56 1235.48 2669.35 1235.78 2670.96 1236.4C2672.56 1237.01 2673.93 1237.9 2675.06 1239.07C2676.2 1240.23 2677.08 1241.64 2677.69 1243.3C2678.3 1244.96 2678.61 1246.83 2678.61 1248.91V1251.09H2655.22V1245.91H2669.95C2669.94 1245.16 2669.75 1244.5 2669.37 1243.93C2669.01 1243.35 2668.51 1242.9 2667.89 1242.59C2667.27 1242.26 2666.58 1242.09 2665.79 1242.09C2665.03 1242.09 2664.33 1242.26 2663.69 1242.59C2663.06 1242.9 2662.55 1243.35 2662.16 1243.91C2661.79 1244.48 2661.59 1245.15 2661.56 1245.91V1251.5C2661.56 1252.34 2661.74 1253.09 2662.09 1253.75C2662.44 1254.41 2662.95 1254.93 2663.61 1255.3C2664.27 1255.68 2665.06 1255.86 2666 1255.86C2666.64 1255.86 2667.23 1255.77 2667.77 1255.59C2668.31 1255.41 2668.78 1255.15 2669.17 1254.81C2669.55 1254.45 2669.84 1254.03 2670.02 1253.55H2678.61C2678.31 1255.36 2677.62 1256.94 2676.51 1258.28C2675.41 1259.61 2673.95 1260.65 2672.13 1261.39C2670.33 1262.11 2668.21 1262.48 2665.79 1262.48ZM2687.52 1271.82C2686.44 1271.82 2685.41 1271.73 2684.43 1271.56C2683.46 1271.4 2682.6 1271.18 2681.86 1270.9L2683.91 1264.22C2684.68 1264.49 2685.38 1264.66 2686.02 1264.74C2686.67 1264.82 2687.22 1264.78 2687.67 1264.61C2688.14 1264.44 2688.47 1264.11 2688.68 1263.64L2688.88 1263.16L2679.68 1235.82H2689.5L2693.72 1253.95H2694L2698.29 1235.82H2708.18L2698.63 1264.18C2698.16 1265.62 2697.46 1266.92 2696.55 1268.07C2695.66 1269.23 2694.47 1270.14 2693.01 1270.81C2691.54 1271.48 2689.71 1271.82 2687.52 1271.82ZM2729.83 1247.27V1262H2720.42V1235.82H2729.35V1240.8H2729.62C2730.19 1239.14 2731.19 1237.84 2732.62 1236.89C2734.07 1235.95 2735.75 1235.48 2737.67 1235.48C2739.52 1235.48 2741.13 1235.9 2742.49 1236.76C2743.87 1237.6 2744.93 1238.76 2745.68 1240.23C2746.44 1241.71 2746.82 1243.4 2746.8 1245.3V1262H2737.39V1247.27C2737.41 1245.98 2737.08 1244.96 2736.41 1244.22C2735.75 1243.48 2734.83 1243.11 2733.64 1243.11C2732.87 1243.11 2732.2 1243.28 2731.62 1243.62C2731.05 1243.95 2730.61 1244.43 2730.3 1245.06C2730 1245.67 2729.84 1246.41 2729.83 1247.27ZM2763.99 1262.48C2761.2 1262.48 2758.79 1261.94 2756.77 1260.88C2754.76 1259.8 2753.2 1258.25 2752.11 1256.24C2751.03 1254.22 2750.49 1251.8 2750.49 1248.98C2750.49 1246.27 2751.04 1243.91 2752.13 1241.89C2753.22 1239.86 2754.76 1238.29 2756.75 1237.16C2758.74 1236.04 2761.09 1235.48 2763.79 1235.48C2765.77 1235.48 2767.56 1235.78 2769.16 1236.4C2770.76 1237.01 2772.13 1237.9 2773.27 1239.07C2774.4 1240.23 2775.28 1241.64 2775.89 1243.3C2776.51 1244.96 2776.81 1246.83 2776.81 1248.91V1251.09H2753.43V1245.91H2768.15C2768.14 1245.16 2767.95 1244.5 2767.57 1243.93C2767.21 1243.35 2766.72 1242.9 2766.09 1242.59C2765.48 1242.26 2764.78 1242.09 2763.99 1242.09C2763.23 1242.09 2762.53 1242.26 2761.9 1242.59C2761.26 1242.9 2760.75 1243.35 2760.36 1243.91C2759.99 1244.48 2759.79 1245.15 2759.77 1245.91V1251.5C2759.77 1252.34 2759.94 1253.09 2760.3 1253.75C2760.65 1254.41 2761.15 1254.93 2761.81 1255.3C2762.47 1255.68 2763.27 1255.86 2764.2 1255.86C2764.85 1255.86 2765.44 1255.77 2765.97 1255.59C2766.52 1255.41 2766.98 1255.15 2767.37 1254.81C2767.76 1254.45 2768.04 1254.03 2768.22 1253.55H2776.81C2776.52 1255.36 2775.82 1256.94 2774.72 1258.28C2773.61 1259.61 2772.15 1260.65 2770.34 1261.39C2768.53 1262.11 2766.41 1262.48 2763.99 1262.48ZM2793.2 1262.48C2790.4 1262.48 2787.99 1261.94 2785.97 1260.88C2783.96 1259.8 2782.41 1258.25 2781.32 1256.24C2780.24 1254.22 2779.7 1251.8 2779.7 1248.98C2779.7 1246.27 2780.24 1243.91 2781.33 1241.89C2782.42 1239.86 2783.96 1238.29 2785.95 1237.16C2787.94 1236.04 2790.29 1235.48 2792.99 1235.48C2794.97 1235.48 2796.76 1235.78 2798.36 1236.4C2799.96 1237.01 2801.33 1237.9 2802.47 1239.07C2803.61 1240.23 2804.48 1241.64 2805.1 1243.3C2805.71 1244.96 2806.02 1246.83 2806.02 1248.91V1251.09H2782.63V1245.91H2797.36C2797.35 1245.16 2797.15 1244.5 2796.78 1243.93C2796.41 1243.35 2795.92 1242.9 2795.29 1242.59C2794.68 1242.26 2793.98 1242.09 2793.2 1242.09C2792.44 1242.09 2791.74 1242.26 2791.1 1242.59C2790.46 1242.9 2789.95 1243.35 2789.57 1243.91C2789.19 1244.48 2788.99 1245.15 2788.97 1245.91V1251.5C2788.97 1252.34 2789.15 1253.09 2789.5 1253.75C2789.85 1254.41 2790.36 1254.93 2791.02 1255.3C2791.67 1255.68 2792.47 1255.86 2793.4 1255.86C2794.05 1255.86 2794.64 1255.77 2795.17 1255.59C2795.72 1255.41 2796.19 1255.15 2796.57 1254.81C2796.96 1254.45 2797.24 1254.03 2797.42 1253.55H2806.02C2805.72 1255.36 2805.02 1256.94 2803.92 1258.28C2802.82 1259.61 2801.36 1260.65 2799.54 1261.39C2797.73 1262.11 2795.62 1262.48 2793.2 1262.48ZM2819.33 1262.34C2817.47 1262.34 2815.75 1261.85 2814.18 1260.88C2812.63 1259.9 2811.38 1258.41 2810.43 1256.43C2809.5 1254.44 2809.04 1251.93 2809.04 1248.91C2809.04 1245.75 2809.53 1243.18 2810.5 1241.2C2811.49 1239.23 2812.76 1237.78 2814.32 1236.86C2815.89 1235.94 2817.54 1235.48 2819.26 1235.48C2820.56 1235.48 2821.7 1235.7 2822.67 1236.16C2823.65 1236.6 2824.47 1237.2 2825.13 1237.95C2825.79 1238.69 2826.29 1239.5 2826.63 1240.39H2826.76V1227.09H2836.17V1262H2826.83V1257.7H2826.63C2826.26 1258.59 2825.74 1259.39 2825.06 1260.09C2824.39 1260.78 2823.57 1261.34 2822.61 1261.74C2821.65 1262.14 2820.56 1262.34 2819.33 1262.34ZM2822.81 1255.11C2823.67 1255.11 2824.41 1254.86 2825.03 1254.36C2825.65 1253.85 2826.13 1253.14 2826.46 1252.22C2826.8 1251.28 2826.97 1250.18 2826.97 1248.91C2826.97 1247.61 2826.8 1246.51 2826.46 1245.59C2826.13 1244.65 2825.65 1243.94 2825.03 1243.45C2824.41 1242.95 2823.67 1242.7 2822.81 1242.7C2821.95 1242.7 2821.21 1242.95 2820.59 1243.45C2819.99 1243.94 2819.53 1244.65 2819.2 1245.59C2818.88 1246.51 2818.72 1247.61 2818.72 1248.91C2818.72 1250.2 2818.88 1251.32 2819.2 1252.25C2819.53 1253.17 2819.99 1253.88 2820.59 1254.38C2821.21 1254.87 2821.95 1255.11 2822.81 1255.11ZM2853.34 1262.48C2850.54 1262.48 2848.13 1261.94 2846.11 1260.88C2844.1 1259.8 2842.55 1258.25 2841.46 1256.24C2840.38 1254.22 2839.84 1251.8 2839.84 1248.98C2839.84 1246.27 2840.38 1243.91 2841.47 1241.89C2842.57 1239.86 2844.11 1238.29 2846.09 1237.16C2848.08 1236.04 2850.43 1235.48 2853.13 1235.48C2855.11 1235.48 2856.9 1235.78 2858.5 1236.4C2860.11 1237.01 2861.47 1237.9 2862.61 1239.07C2863.75 1240.23 2864.62 1241.64 2865.24 1243.3C2865.85 1244.96 2866.16 1246.83 2866.16 1248.91V1251.09H2842.77V1245.91H2857.5C2857.49 1245.16 2857.29 1244.5 2856.92 1243.93C2856.55 1243.35 2856.06 1242.9 2855.43 1242.59C2854.82 1242.26 2854.12 1242.09 2853.34 1242.09C2852.58 1242.09 2851.88 1242.26 2851.24 1242.59C2850.61 1242.9 2850.09 1243.35 2849.71 1243.91C2849.33 1244.48 2849.13 1245.15 2849.11 1245.91V1251.5C2849.11 1252.34 2849.29 1253.09 2849.64 1253.75C2849.99 1254.41 2850.5 1254.93 2851.16 1255.3C2851.82 1255.68 2852.61 1255.86 2853.54 1255.86C2854.19 1255.86 2854.78 1255.77 2855.32 1255.59C2855.86 1255.41 2856.33 1255.15 2856.71 1254.81C2857.1 1254.45 2857.38 1254.03 2857.57 1253.55H2866.16C2865.86 1255.36 2865.16 1256.94 2864.06 1258.28C2862.96 1259.61 2861.5 1260.65 2859.68 1261.39C2857.87 1262.11 2855.76 1262.48 2853.34 1262.48ZM2879.47 1262.34C2877.61 1262.34 2875.89 1261.85 2874.33 1260.88C2872.77 1259.9 2871.52 1258.41 2870.58 1256.43C2869.64 1254.44 2869.18 1251.93 2869.18 1248.91C2869.18 1245.75 2869.67 1243.18 2870.64 1241.2C2871.63 1239.23 2872.9 1237.78 2874.46 1236.86C2876.03 1235.94 2877.68 1235.48 2879.4 1235.48C2880.7 1235.48 2881.84 1235.7 2882.81 1236.16C2883.79 1236.6 2884.61 1237.2 2885.27 1237.95C2885.93 1238.69 2886.43 1239.5 2886.77 1240.39H2886.9V1227.09H2896.31V1262H2886.97V1257.7H2886.77C2886.4 1258.59 2885.88 1259.39 2885.2 1260.09C2884.53 1260.78 2883.71 1261.34 2882.75 1261.74C2881.79 1262.14 2880.7 1262.34 2879.47 1262.34ZM2882.95 1255.11C2883.81 1255.11 2884.55 1254.86 2885.17 1254.36C2885.79 1253.85 2886.27 1253.14 2886.6 1252.22C2886.94 1251.28 2887.11 1250.18 2887.11 1248.91C2887.11 1247.61 2886.94 1246.51 2886.6 1245.59C2886.27 1244.65 2885.79 1243.94 2885.17 1243.45C2884.55 1242.95 2883.81 1242.7 2882.95 1242.7C2882.09 1242.7 2881.35 1242.95 2880.73 1243.45C2880.13 1243.94 2879.67 1244.65 2879.34 1245.59C2879.02 1246.51 2878.86 1247.61 2878.86 1248.91C2878.86 1250.2 2879.02 1251.32 2879.34 1252.25C2879.67 1253.17 2880.13 1253.88 2880.73 1254.38C2881.35 1254.87 2882.09 1255.11 2882.95 1255.11ZM2926.11 1235.82V1242.64H2908.86V1235.82H2926.11ZM2912.2 1229.55H2921.61V1253.58C2921.61 1253.94 2921.67 1254.25 2921.8 1254.5C2921.92 1254.74 2922.12 1254.92 2922.38 1255.05C2922.64 1255.16 2922.97 1255.22 2923.38 1255.22C2923.67 1255.22 2924 1255.18 2924.37 1255.11C2924.76 1255.05 2925.04 1254.99 2925.22 1254.94L2926.59 1261.56C2926.17 1261.68 2925.56 1261.84 2924.78 1262.02C2924.01 1262.2 2923.09 1262.32 2922.02 1262.38C2919.86 1262.49 2918.05 1262.27 2916.58 1261.71C2915.12 1261.14 2914.01 1260.25 2913.27 1259.03C2912.54 1257.82 2912.18 1256.3 2912.2 1254.47V1229.55ZM2942.28 1262.48C2939.44 1262.48 2937.01 1261.91 2934.99 1260.79C2932.96 1259.65 2931.41 1258.07 2930.33 1256.05C2929.25 1254.02 2928.71 1251.66 2928.71 1248.98C2928.71 1246.3 2929.25 1243.94 2930.33 1241.92C2931.41 1239.89 2932.96 1238.31 2934.99 1237.18C2937.01 1236.05 2939.44 1235.48 2942.28 1235.48C2945.12 1235.48 2947.55 1236.05 2949.58 1237.18C2951.6 1238.31 2953.15 1239.89 2954.23 1241.92C2955.31 1243.94 2955.85 1246.3 2955.85 1248.98C2955.85 1251.66 2955.31 1254.02 2954.23 1256.05C2953.15 1258.07 2951.6 1259.65 2949.58 1260.79C2947.55 1261.91 2945.12 1262.48 2942.28 1262.48ZM2942.35 1255.52C2943.14 1255.52 2943.83 1255.26 2944.41 1254.72C2944.99 1254.19 2945.44 1253.43 2945.76 1252.44C2946.08 1251.45 2946.24 1250.27 2946.24 1248.91C2946.24 1247.53 2946.08 1246.36 2945.76 1245.38C2945.44 1244.39 2944.99 1243.63 2944.41 1243.1C2943.83 1242.56 2943.14 1242.3 2942.35 1242.3C2941.51 1242.3 2940.79 1242.56 2940.18 1243.1C2939.58 1243.63 2939.12 1244.39 2938.8 1245.38C2938.49 1246.36 2938.33 1247.53 2938.33 1248.91C2938.33 1250.27 2938.49 1251.45 2938.8 1252.44C2939.12 1253.43 2939.58 1254.19 2940.18 1254.72C2940.79 1255.26 2941.51 1255.52 2942.35 1255.52ZM2969.23 1262V1235.82H2978.37V1240.8H2978.64C2979.12 1238.95 2979.87 1237.61 2980.91 1236.76C2981.95 1235.9 2983.17 1235.48 2984.57 1235.48C2984.98 1235.48 2985.38 1235.51 2985.78 1235.58C2986.19 1235.64 2986.58 1235.72 2986.96 1235.84V1243.86C2986.49 1243.7 2985.92 1243.59 2985.24 1243.51C2984.55 1243.43 2983.97 1243.39 2983.48 1243.39C2982.56 1243.39 2981.73 1243.6 2980.99 1244.02C2980.26 1244.43 2979.69 1245.01 2979.27 1245.76C2978.85 1246.49 2978.64 1247.36 2978.64 1248.36V1262H2969.23ZM3001.09 1262.48C2998.29 1262.48 2995.88 1261.94 2993.86 1260.88C2991.85 1259.8 2990.3 1258.25 2989.21 1256.24C2988.13 1254.22 2987.59 1251.8 2987.59 1248.98C2987.59 1246.27 2988.13 1243.91 2989.22 1241.89C2990.32 1239.86 2991.86 1238.29 2993.84 1237.16C2995.83 1236.04 2998.18 1235.48 3000.88 1235.48C3002.86 1235.48 3004.65 1235.78 3006.25 1236.4C3007.86 1237.01 3009.22 1237.9 3010.36 1239.07C3011.5 1240.23 3012.37 1241.64 3012.99 1243.3C3013.6 1244.96 3013.91 1246.83 3013.91 1248.91V1251.09H2990.52V1245.91H3005.25C3005.24 1245.16 3005.04 1244.5 3004.67 1243.93C3004.3 1243.35 3003.81 1242.9 3003.18 1242.59C3002.57 1242.26 3001.87 1242.09 3001.09 1242.09C3000.33 1242.09 2999.63 1242.26 2998.99 1242.59C2998.36 1242.9 2997.84 1243.35 2997.46 1243.91C2997.08 1244.48 2996.88 1245.15 2996.86 1245.91V1251.5C2996.86 1252.34 2997.04 1253.09 2997.39 1253.75C2997.74 1254.41 2998.25 1254.93 2998.91 1255.3C2999.57 1255.68 3000.36 1255.86 3001.29 1255.86C3001.94 1255.86 3002.53 1255.77 3003.07 1255.59C3003.61 1255.41 3004.08 1255.15 3004.46 1254.81C3004.85 1254.45 3005.13 1254.03 3005.32 1253.55H3013.91C3013.61 1255.36 3012.91 1256.94 3011.81 1258.28C3010.71 1259.61 3009.25 1260.65 3007.43 1261.39C3005.62 1262.11 3003.51 1262.48 3001.09 1262.48ZM3017.75 1262V1235.82H3027.15V1262H3017.75ZM3022.45 1233.09C3021.18 1233.09 3020.09 1232.67 3019.18 1231.83C3018.27 1230.99 3017.81 1229.98 3017.81 1228.8C3017.81 1227.61 3018.27 1226.6 3019.18 1225.76C3020.09 1224.92 3021.18 1224.5 3022.45 1224.5C3023.73 1224.5 3024.83 1224.92 3025.72 1225.76C3026.63 1226.6 3027.09 1227.61 3027.09 1228.8C3027.09 1229.98 3026.63 1230.99 3025.72 1231.83C3024.83 1232.67 3023.73 1233.09 3022.45 1233.09ZM3041.36 1247.27V1262H3031.95V1235.82H3040.88V1240.8H3041.15C3041.72 1239.14 3042.72 1237.84 3044.15 1236.89C3045.6 1235.95 3047.28 1235.48 3049.2 1235.48C3051.05 1235.48 3052.66 1235.9 3054.02 1236.76C3055.4 1237.6 3056.46 1238.76 3057.21 1240.23C3057.97 1241.71 3058.35 1243.4 3058.34 1245.3V1262H3048.93V1247.27C3048.94 1245.98 3048.61 1244.96 3047.94 1244.22C3047.28 1243.48 3046.36 1243.11 3045.18 1243.11C3044.4 1243.11 3043.73 1243.28 3043.15 1243.62C3042.58 1243.95 3042.14 1244.43 3041.84 1245.06C3041.53 1245.67 3041.37 1246.41 3041.36 1247.27ZM3078.66 1235.82V1242.64H3061.14V1235.82H3078.66ZM3064.48 1262V1235.07C3064.48 1232.91 3064.87 1231.12 3065.64 1229.7C3066.41 1228.28 3067.5 1227.22 3068.91 1226.51C3070.32 1225.81 3071.98 1225.45 3073.89 1225.45C3075.08 1225.45 3076.24 1225.55 3077.37 1225.73C3078.5 1225.91 3079.34 1226.07 3079.89 1226.2L3078.53 1232.95C3078.18 1232.85 3077.79 1232.77 3077.33 1232.72C3076.88 1232.65 3076.48 1232.61 3076.14 1232.61C3075.25 1232.61 3074.66 1232.8 3074.35 1233.18C3074.04 1233.55 3073.89 1234.05 3073.89 1234.66V1262H3064.48ZM3094.11 1262.48C3091.27 1262.48 3088.84 1261.91 3086.81 1260.79C3084.79 1259.65 3083.24 1258.07 3082.16 1256.05C3081.08 1254.02 3080.54 1251.66 3080.54 1248.98C3080.54 1246.3 3081.08 1243.94 3082.16 1241.92C3083.24 1239.89 3084.79 1238.31 3086.81 1237.18C3088.84 1236.05 3091.27 1235.48 3094.11 1235.48C3096.95 1235.48 3099.38 1236.05 3101.4 1237.18C3103.43 1238.31 3104.98 1239.89 3106.06 1241.92C3107.14 1243.94 3107.68 1246.3 3107.68 1248.98C3107.68 1251.66 3107.14 1254.02 3106.06 1256.05C3104.98 1258.07 3103.43 1259.65 3101.4 1260.79C3099.38 1261.91 3096.95 1262.48 3094.11 1262.48ZM3094.18 1255.52C3094.97 1255.52 3095.66 1255.26 3096.24 1254.72C3096.82 1254.19 3097.27 1253.43 3097.59 1252.44C3097.9 1251.45 3098.06 1250.27 3098.06 1248.91C3098.06 1247.53 3097.9 1246.36 3097.59 1245.38C3097.27 1244.39 3096.82 1243.63 3096.24 1243.1C3095.66 1242.56 3094.97 1242.3 3094.18 1242.3C3093.34 1242.3 3092.62 1242.56 3092.01 1243.1C3091.41 1243.63 3090.95 1244.39 3090.63 1245.38C3090.31 1246.36 3090.15 1247.53 3090.15 1248.91C3090.15 1250.27 3090.31 1251.45 3090.63 1252.44C3090.95 1253.43 3091.41 1254.19 3092.01 1254.72C3092.62 1255.26 3093.34 1255.52 3094.18 1255.52ZM3111.5 1262V1235.82H3120.63V1240.8H3120.9C3121.38 1238.95 3122.14 1237.61 3123.17 1236.76C3124.22 1235.9 3125.44 1235.48 3126.84 1235.48C3127.25 1235.48 3127.65 1235.51 3128.05 1235.58C3128.46 1235.64 3128.85 1235.72 3129.22 1235.84V1243.86C3128.76 1243.7 3128.18 1243.59 3127.5 1243.51C3126.82 1243.43 3126.23 1243.39 3125.75 1243.39C3124.83 1243.39 3124 1243.6 3123.26 1244.02C3122.53 1244.43 3121.96 1245.01 3121.54 1245.76C3121.12 1246.49 3120.9 1247.36 3120.9 1248.36V1262H3111.5ZM3143.42 1262.48C3140.58 1262.48 3138.15 1261.91 3136.13 1260.79C3134.1 1259.65 3132.55 1258.07 3131.47 1256.05C3130.39 1254.02 3129.85 1251.66 3129.85 1248.98C3129.85 1246.3 3130.39 1243.94 3131.47 1241.92C3132.55 1239.89 3134.1 1238.31 3136.13 1237.18C3138.15 1236.05 3140.58 1235.48 3143.42 1235.48C3145.99 1235.48 3148.21 1235.94 3150.09 1236.88C3151.97 1237.8 3153.43 1239.1 3154.47 1240.8C3155.5 1242.48 3156.02 1244.45 3156.04 1246.73H3147.31C3147.18 1245.35 3146.79 1244.31 3146.12 1243.59C3145.46 1242.86 3144.6 1242.5 3143.56 1242.5C3142.74 1242.5 3142.02 1242.74 3141.41 1243.22C3140.8 1243.68 3140.32 1244.39 3139.98 1245.35C3139.64 1246.29 3139.47 1247.48 3139.47 1248.91C3139.47 1250.34 3139.64 1251.53 3139.98 1252.49C3140.32 1253.43 3140.8 1254.14 3141.41 1254.62C3142.02 1255.09 3142.74 1255.32 3143.56 1255.32C3144.25 1255.32 3144.87 1255.16 3145.4 1254.84C3145.93 1254.51 3146.37 1254.03 3146.69 1253.41C3147.04 1252.77 3147.24 1252 3147.31 1251.09H3156.04C3156 1253.4 3155.47 1255.41 3154.45 1257.12C3153.43 1258.83 3151.98 1260.15 3150.1 1261.08C3148.24 1262.01 3146.01 1262.48 3143.42 1262.48ZM3172.46 1262.48C3169.67 1262.48 3167.26 1261.94 3165.24 1260.88C3163.22 1259.8 3161.67 1258.25 3160.58 1256.24C3159.5 1254.22 3158.96 1251.8 3158.96 1248.98C3158.96 1246.27 3159.51 1243.91 3160.6 1241.89C3161.69 1239.86 3163.23 1238.29 3165.22 1237.16C3167.21 1236.04 3169.55 1235.48 3172.26 1235.48C3174.24 1235.48 3176.03 1235.78 3177.63 1236.4C3179.23 1237.01 3180.6 1237.9 3181.74 1239.07C3182.87 1240.23 3183.75 1241.64 3184.36 1243.3C3184.97 1244.96 3185.28 1246.83 3185.28 1248.91V1251.09H3161.89V1245.91H3176.62C3176.61 1245.16 3176.42 1244.5 3176.04 1243.93C3175.68 1243.35 3175.18 1242.9 3174.56 1242.59C3173.95 1242.26 3173.25 1242.09 3172.46 1242.09C3171.7 1242.09 3171 1242.26 3170.37 1242.59C3169.73 1242.9 3169.22 1243.35 3168.83 1243.91C3168.46 1244.48 3168.26 1245.15 3168.24 1245.91V1251.5C3168.24 1252.34 3168.41 1253.09 3168.76 1253.75C3169.12 1254.41 3169.62 1254.93 3170.28 1255.3C3170.94 1255.68 3171.74 1255.86 3172.67 1255.86C3173.32 1255.86 3173.91 1255.77 3174.44 1255.59C3174.99 1255.41 3175.45 1255.15 3175.84 1254.81C3176.22 1254.45 3176.51 1254.03 3176.69 1253.55H3185.28C3184.99 1255.36 3184.29 1256.94 3183.18 1258.28C3182.08 1259.61 3180.62 1260.65 3178.8 1261.39C3177 1262.11 3174.88 1262.48 3172.46 1262.48Z" fill="black"/>
<path d="M1658.45 635.909L1677.55 701.545H1678.27L1697.36 635.909H1725.91L1695.18 729H1660.64L1629.91 635.909H1658.45ZM1785.06 665C1784.81 661.97 1783.68 659.606 1781.65 657.909C1779.65 656.212 1776.6 655.364 1772.51 655.364C1769.91 655.364 1767.77 655.682 1766.1 656.318C1764.47 656.924 1763.25 657.758 1762.47 658.818C1761.68 659.879 1761.27 661.091 1761.24 662.455C1761.18 663.576 1761.38 664.591 1761.83 665.5C1762.31 666.379 1763.07 667.182 1764.1 667.909C1765.13 668.606 1766.45 669.242 1768.06 669.818C1769.66 670.394 1771.57 670.909 1773.78 671.364L1781.42 673C1786.57 674.091 1790.98 675.53 1794.65 677.318C1798.31 679.106 1801.31 681.212 1803.65 683.636C1805.98 686.03 1807.69 688.727 1808.78 691.727C1809.91 694.727 1810.48 698 1810.51 701.545C1810.48 707.667 1808.95 712.848 1805.92 717.091C1802.89 721.333 1798.56 724.561 1792.92 726.773C1787.31 728.985 1780.57 730.091 1772.69 730.091C1764.6 730.091 1757.54 728.894 1751.51 726.5C1745.51 724.106 1740.84 720.424 1737.51 715.455C1734.21 710.455 1732.54 704.061 1732.51 696.273H1756.51C1756.66 699.121 1757.38 701.515 1758.65 703.455C1759.92 705.394 1761.71 706.864 1764.01 707.864C1766.34 708.864 1769.12 709.364 1772.33 709.364C1775.03 709.364 1777.28 709.03 1779.1 708.364C1780.92 707.697 1782.3 706.773 1783.24 705.591C1784.18 704.409 1784.66 703.061 1784.69 701.545C1784.66 700.121 1784.19 698.879 1783.28 697.818C1782.41 696.727 1780.95 695.758 1778.92 694.909C1776.89 694.03 1774.15 693.212 1770.69 692.455L1761.42 690.455C1753.18 688.667 1746.68 685.682 1741.92 681.5C1737.19 677.288 1734.84 671.545 1734.88 664.273C1734.84 658.364 1736.42 653.197 1739.6 648.773C1742.81 644.318 1747.25 640.848 1752.92 638.364C1758.62 635.879 1765.15 634.636 1772.51 634.636C1780.03 634.636 1786.53 635.894 1792.01 638.409C1797.5 640.924 1801.72 644.47 1804.69 649.045C1807.69 653.591 1809.21 658.909 1809.24 665H1785.06Z" fill="black"/>
<path d="M2782.25 886.5H2784L2758.5 1043H2759.5L2745.5 1082L2733.5 1043H2734.5L2709 886.5L2707.55 886.815L2707.5 886.5H2708.44L2688.01 643H2799.62L2782.25 886.5ZM2743.5 65.6953L2774 90L2805 298L2834 308L2840 185H2940L2948 298L3073 323.5L3072.86 325.076L3072.5 325L3055.99 510.001L3022.5 515.805V391.5L2743.5 377.025V377L2743.25 377.013L2743 377V377.025L2464 391.5V515.978L2430.52 510.177L2414 325L2412.66 325.288L2412.5 323.5L2537.5 298L2545.5 185H2645.5L2651.5 308L2680.5 298L2711.5 90L2742 65.6953V64.5L2742.75 65.0977L2743.5 64.5V65.6953Z" fill="#0000FF" fill-opacity="0.48"/>
</svg>
