<svg width="1024" height="1024" viewBox="0 0 1024 1024" fill="none" xmlns="http://www.w3.org/2000/svg">
<path d="M369.219 175.953L289.022 38.375V218.313C229.963 258.825 182.478 314.984 152.545 380.812H77.9253L100.722 427.759L100.983 428.234C103.058 432.007 105.289 436.236 107.774 440.948L107.9 441.187C112.58 450.06 118.043 460.418 124.131 470.683C119.668 494.44 117.333 518.947 117.333 544C117.333 761.968 294.031 938.667 512 938.667C728.437 938.667 904.181 764.443 906.64 548.592C910.549 544.128 913.771 539.355 916.405 534.459C926.235 516.161 927.723 495.382 928.453 485.213L928.517 484.357C928.656 482.381 928.757 481.051 928.859 480.021L931.995 448.935L893.936 444.178C891.285 434.017 888.24 424.016 884.821 414.192L929.024 409.772V380.812C929.024 342.839 919.429 312.07 894.533 293.05C871.728 275.63 843.115 274.146 822.357 274.146H799.995C727.989 197.328 625.6 149.333 512 149.333C461.647 149.333 413.497 158.763 369.219 175.953Z" fill="#127DB3"/>
<path d="M310.417 662.48V515.49L178.286 634.405L184.916 642.299C209.128 671.125 234.68 680.773 257.217 680.773C279.174 680.773 296.707 671.621 305.667 665.648L310.417 662.48Z" fill="#82C3D9"/>
<path d="M310.417 662.48V515.49L178.286 634.405L184.916 642.299C209.128 671.125 234.68 680.773 257.217 680.773C279.174 680.773 296.707 671.621 305.667 665.648L310.417 662.48Z" fill="url(#paint0_radial)"/>
<path d="M310.356 402.146V117.333L417.791 301.638C356.982 316.594 316.545 356.937 311.007 402.146H310.356Z" fill="url(#paint1_linear)"/>
<path d="M662.283 582.613C644.96 601.867 626.075 615.797 606.709 625.413L706.096 795.771L704.373 800.48C687.163 847.525 652.688 876.053 616.096 892.661C579.691 909.184 540.763 914.144 513.022 914.144C388.187 914.144 328.663 841.717 311.218 801.013L310.355 799.003V515.551C284.947 527.406 262.556 532.361 242.633 531.774C218.487 531.063 198.921 522.237 182.94 509.394C167.139 496.694 154.9 480.124 144.903 463.821C138.132 452.778 132.049 441.244 126.644 430.996C124.181 426.325 121.858 421.921 119.676 417.953L112 402.146H311.007C318.017 344.914 380.958 295.479 470.355 295.479H822.357C842.971 295.479 864.96 297.305 881.584 310.003C898.896 323.228 907.691 345.923 907.691 380.812V390.466L708.928 410.342C700.656 411.169 694.357 418.13 694.357 426.444C694.357 434.605 700.432 441.489 708.528 442.501L908.677 467.52L907.637 477.882C907.493 479.274 907.376 480.937 907.237 482.816C906.485 493.182 905.259 510.126 897.611 524.358C892.837 533.244 885.531 541.365 874.507 546.901C863.616 552.379 849.808 554.971 832.507 554.133C822.795 553.664 812.379 552.709 801.909 551.755C797.056 551.307 792.192 550.864 787.376 550.464C771.893 549.184 756.379 548.315 741.275 549.115C711.2 550.704 683.707 558.811 662.283 582.613Z" fill="#F0FBFF"/>
<path d="M662.283 582.613C644.96 601.867 626.075 615.797 606.709 625.413L706.096 795.771L704.373 800.48C687.163 847.525 652.688 876.053 616.096 892.661C579.691 909.184 540.763 914.144 513.022 914.144C388.187 914.144 328.663 841.717 311.218 801.013L310.355 799.003V515.551C284.947 527.406 262.556 532.361 242.633 531.774C218.487 531.063 198.921 522.237 182.94 509.394C167.139 496.694 154.9 480.124 144.903 463.821C138.132 452.778 132.049 441.244 126.644 430.996C124.181 426.325 121.858 421.921 119.676 417.953L112 402.146H311.007C318.017 344.914 380.958 295.479 470.355 295.479H822.357C842.971 295.479 864.96 297.305 881.584 310.003C898.896 323.228 907.691 345.923 907.691 380.812V390.466L708.928 410.342C700.656 411.169 694.357 418.13 694.357 426.444C694.357 434.605 700.432 441.489 708.528 442.501L908.677 467.52L907.637 477.882C907.493 479.274 907.376 480.937 907.237 482.816C906.485 493.182 905.259 510.126 897.611 524.358C892.837 533.244 885.531 541.365 874.507 546.901C863.616 552.379 849.808 554.971 832.507 554.133C822.795 553.664 812.379 552.709 801.909 551.755C797.056 551.307 792.192 550.864 787.376 550.464C771.893 549.184 756.379 548.315 741.275 549.115C711.2 550.704 683.707 558.811 662.283 582.613Z" fill="url(#paint2_linear)"/>
<path d="M683.691 651.669V703.883C683.691 716.437 678.501 727.184 670.501 734.757L684.997 759.605C652.448 785.259 597.125 802.144 534.357 802.144C434.208 802.144 353.022 759.163 353.022 706.144C353.022 653.125 434.208 610.144 534.357 610.144C596.293 610.144 650.976 626.587 683.691 651.669Z" fill="url(#paint3_radial)"/>
<path fill-rule="evenodd" clip-rule="evenodd" d="M508.657 705.877C536.773 689.392 536.773 648.741 508.657 632.256L449.266 597.445C420.822 580.768 385.022 601.28 385.022 634.251V703.883C385.022 736.853 420.823 757.365 449.266 740.693L508.657 705.877ZM560.053 705.877C531.935 689.392 531.935 648.741 560.053 632.256L619.445 597.445C647.888 580.768 683.691 601.28 683.691 634.251V703.883C683.691 736.853 647.888 757.365 619.445 740.693L560.053 705.877Z" fill="#153E67"/>
<path fill-rule="evenodd" clip-rule="evenodd" d="M508.657 705.877C536.773 689.392 536.773 648.741 508.657 632.256L449.266 597.445C420.822 580.768 385.022 601.28 385.022 634.251V703.883C385.022 736.853 420.823 757.365 449.266 740.693L508.657 705.877ZM560.053 705.877C531.935 689.392 531.935 648.741 560.053 632.256L619.445 597.445C647.888 580.768 683.691 601.28 683.691 634.251V703.883C683.691 736.853 647.888 757.365 619.445 740.693L560.053 705.877Z" fill="url(#paint4_radial)"/>
<path d="M534.357 621.856C504.9 621.856 481.022 645.733 481.022 675.189C481.022 704.645 504.9 728.523 534.357 728.523C563.808 728.523 587.691 704.645 587.691 675.189C587.691 645.733 563.808 621.856 534.357 621.856Z" fill="#266999"/>
<path d="M510 393L558 436.577L510 484" stroke="#2A2933" stroke-width="22"/>
<path d="M558 538C572.912 538 585 525.914 585 511.006L558 484L531 511.006C531 525.914 543.088 538 558 538Z" fill="#3669EC"/>
<path fill-rule="evenodd" clip-rule="evenodd" d="M584.743 510.749C582.92 523.886 571.641 534 558 534C544.358 534 533.08 523.886 531.257 510.749L531 511.006C531 525.914 543.088 538 558 538C572.912 538 585 525.914 585 511.006L584.743 510.749Z" fill="#085099" fill-opacity="0.9"/>
<defs>
<radialGradient id="paint0_radial" cx="0" cy="0" r="1" gradientUnits="userSpaceOnUse" gradientTransform="translate(177.022 634.144) rotate(-41.7428) scale(232.306 237.356)">
<stop stop-color="white" stop-opacity="0"/>
<stop offset="1" stop-color="#085099" stop-opacity="0.9"/>
</radialGradient>
<linearGradient id="paint1_linear" x1="363.689" y1="332.812" x2="310.355" y2="119.479" gradientUnits="userSpaceOnUse">
<stop stop-color="#E68A99"/>
<stop offset="1" stop-color="#FFC2E9"/>
</linearGradient>
<linearGradient id="paint2_linear" x1="510.34" y1="295.479" x2="510.34" y2="914.144" gradientUnits="userSpaceOnUse">
<stop stop-color="white" stop-opacity="0"/>
<stop offset="1" stop-color="#E4F4FF"/>
</linearGradient>
<radialGradient id="paint3_radial" cx="0" cy="0" r="1" gradientUnits="userSpaceOnUse" gradientTransform="translate(534.357 711.477) rotate(90) scale(58.6667 175.411)">
<stop stop-color="#266999" stop-opacity="0.2"/>
<stop offset="1" stop-color="#153E67" stop-opacity="0"/>
</radialGradient>
<radialGradient id="paint4_radial" cx="0" cy="0" r="1" gradientUnits="userSpaceOnUse" gradientTransform="translate(534.357 740.811) rotate(-90) scale(130.667)">
<stop stop-color="#262833"/>
<stop offset="1" stop-color="#262833" stop-opacity="0"/>
</radialGradient>
</defs>
</svg>
