<svg width="192" height="192" viewBox="0 0 192 192" fill="none" xmlns="http://www.w3.org/2000/svg">
<path d="M69.2285 32.9911L54.1916 7.19531V40.9337C43.118 48.5297 34.2146 59.0595 28.6022 71.4023H14.611L18.8853 80.2048L18.9343 80.2939C19.3234 81.0013 19.7417 81.7942 20.2077 82.6777L20.2313 82.7226C21.1087 84.3862 22.133 86.3283 23.2745 88.2531C22.4377 92.7075 22 97.3026 22 102C22 142.869 55.1309 176 96 176C136.582 176 169.534 143.333 169.995 102.861C170.728 102.024 171.332 101.129 171.826 100.211C173.669 96.7802 173.948 92.8842 174.085 90.9775L174.097 90.817C174.123 90.4465 174.142 90.197 174.161 90.004L174.749 84.1753L167.613 83.2833C167.116 81.3782 166.545 79.503 165.904 77.661L174.192 76.8323V71.4023C174.192 64.2823 172.393 58.5131 167.725 54.9469C163.449 51.6807 158.084 51.4023 154.192 51.4023H149.999C136.498 36.999 117.3 28 96 28C86.5589 28 77.5307 29.768 69.2285 32.9911Z" fill="#127DB3"/>
<path d="M58.2032 124.215V96.6543L33.4286 118.951L34.6718 120.431C39.2115 125.836 44.0025 127.645 48.2282 127.645C52.3451 127.645 55.6326 125.929 57.3126 124.809L58.2032 124.215Z" fill="#82C3D9"/>
<path d="M58.2032 124.215V96.6543L33.4286 118.951L34.6718 120.431C39.2115 125.836 44.0025 127.645 48.2282 127.645C52.3451 127.645 55.6326 125.929 57.3126 124.809L58.2032 124.215Z" fill="url(#paint0_radial)"/>
<path d="M58.1917 75.4023V22L78.3358 56.5571C66.9341 59.3613 59.3521 66.9257 58.3139 75.4023H58.1917Z" fill="url(#paint1_linear)"/>
<path d="M124.178 109.24C120.93 112.85 117.389 115.462 113.758 117.265L132.393 149.207L132.07 150.09C128.843 158.911 122.379 164.26 115.518 167.374C108.692 170.472 101.393 171.402 96.1916 171.402C72.7851 171.402 61.6243 157.822 58.3533 150.19L58.1916 149.813V96.6659C53.4275 98.8886 49.2293 99.8177 45.4937 99.7077C40.9663 99.5744 37.2976 97.9194 34.3012 95.5113C31.3385 93.1301 29.0437 90.0233 27.1694 86.9665C25.8998 84.8959 24.7592 82.7332 23.7458 80.8118C23.2839 79.936 22.8484 79.1102 22.4392 78.3662L21 75.4023H58.3139C59.6282 64.6714 71.4296 55.4023 88.1916 55.4023H154.192C158.057 55.4023 162.18 55.7447 165.297 58.1255C168.543 60.6052 170.192 64.8605 170.192 71.4023V73.2123L132.924 76.9391C131.373 77.0942 130.192 78.3994 130.192 79.9582C130.192 81.4885 131.331 82.7792 132.849 82.969L170.377 87.66L170.182 89.6029C170.155 89.8638 170.133 90.1756 170.107 90.528C169.966 92.4716 169.736 95.6487 168.302 98.3172C167.407 99.9833 166.037 101.506 163.97 102.544C161.928 103.571 159.339 104.057 156.095 103.9C154.274 103.812 152.321 103.633 150.358 103.454C149.448 103.37 148.536 103.287 147.633 103.212C144.73 102.972 141.821 102.809 138.989 102.959C133.35 103.257 128.195 104.777 124.178 109.24Z" fill="#F0FBFF"/>
<path d="M124.178 109.24C120.93 112.85 117.389 115.462 113.758 117.265L132.393 149.207L132.07 150.09C128.843 158.911 122.379 164.26 115.518 167.374C108.692 170.472 101.393 171.402 96.1916 171.402C72.7851 171.402 61.6243 157.822 58.3533 150.19L58.1916 149.813V96.6659C53.4275 98.8886 49.2293 99.8177 45.4937 99.7077C40.9663 99.5744 37.2976 97.9194 34.3012 95.5113C31.3385 93.1301 29.0437 90.0233 27.1694 86.9665C25.8998 84.8959 24.7592 82.7332 23.7458 80.8118C23.2839 79.936 22.8484 79.1102 22.4392 78.3662L21 75.4023H58.3139C59.6282 64.6714 71.4296 55.4023 88.1916 55.4023H154.192C158.057 55.4023 162.18 55.7447 165.297 58.1255C168.543 60.6052 170.192 64.8605 170.192 71.4023V73.2123L132.924 76.9391C131.373 77.0942 130.192 78.3994 130.192 79.9582C130.192 81.4885 131.331 82.7792 132.849 82.969L170.377 87.66L170.182 89.6029C170.155 89.8638 170.133 90.1756 170.107 90.528C169.966 92.4716 169.736 95.6487 168.302 98.3172C167.407 99.9833 166.037 101.506 163.97 102.544C161.928 103.571 159.339 104.057 156.095 103.9C154.274 103.812 152.321 103.633 150.358 103.454C149.448 103.37 148.536 103.287 147.633 103.212C144.73 102.972 141.821 102.809 138.989 102.959C133.35 103.257 128.195 104.777 124.178 109.24Z" fill="url(#paint2_linear)"/>
<path fill-rule="evenodd" clip-rule="evenodd" d="M96.3648 78.1635C97.5781 77.661 98.8784 77.4023 100.192 77.4023C101.505 77.4023 102.805 77.661 104.018 78.1635C105.232 78.6661 106.334 79.4027 107.263 80.3313C108.191 81.2599 108.928 82.3623 109.43 83.5755C109.933 84.7888 110.192 86.0891 110.192 87.4023H106.192C106.192 86.6144 106.036 85.8342 105.735 85.1062C105.433 84.3783 104.991 83.7169 104.434 83.1597C103.877 82.6026 103.216 82.1606 102.488 81.8591C101.76 81.5575 100.98 81.4023 100.192 81.4023C99.4037 81.4023 98.6235 81.5575 97.8955 81.8591C97.1676 82.1606 96.5062 82.6026 95.949 83.1597C95.3919 83.7169 94.9499 84.3783 94.6484 85.1062C94.3468 85.8342 94.1917 86.6144 94.1917 87.4023H90.1917C90.1917 86.0891 90.4503 84.7888 90.9529 83.5755C91.4554 82.3623 92.192 81.2599 93.1206 80.3313C94.0492 79.4027 95.1516 78.6661 96.3648 78.1635Z" fill="#2A2933"/>
<path d="M128.192 122.188V131.978C128.192 134.332 127.219 136.347 125.719 137.767L128.437 142.426C122.334 147.236 111.961 150.402 100.192 150.402C81.414 150.402 66.1917 142.343 66.1917 132.402C66.1917 122.461 81.414 114.402 100.192 114.402C111.805 114.402 122.058 117.485 128.192 122.188Z" fill="url(#paint3_radial)"/>
<path d="M95.3731 132.352C100.645 129.261 100.645 121.639 95.3731 118.548L84.2374 112.021C78.9042 108.894 72.1916 112.74 72.1917 118.922V131.978C72.1917 138.16 78.9043 142.006 84.2374 138.88L95.3731 132.352Z" fill="#153E67"/>
<path d="M95.3731 132.352C100.645 129.261 100.645 121.639 95.3731 118.548L84.2374 112.021C78.9042 108.894 72.1916 112.74 72.1917 118.922V131.978C72.1917 138.16 78.9043 142.006 84.2374 138.88L95.3731 132.352Z" fill="url(#paint4_radial)"/>
<path d="M105.01 132.352C99.7378 129.261 99.7378 121.639 105.01 118.548L116.146 112.021C121.479 108.894 128.192 112.74 128.192 118.922V131.978C128.192 138.16 121.479 142.006 116.146 138.88L105.01 132.352Z" fill="#153E67"/>
<path d="M105.01 132.352C99.7378 129.261 99.7378 121.639 105.01 118.548L116.146 112.021C121.479 108.894 128.192 112.74 128.192 118.922V131.978C128.192 138.16 121.479 142.006 116.146 138.88L105.01 132.352Z" fill="url(#paint5_radial)"/>
<path d="M100.192 116.598C94.6688 116.598 90.1917 121.075 90.1917 126.598C90.1917 132.121 94.6688 136.598 100.192 136.598C105.714 136.598 110.192 132.121 110.192 126.598C110.192 121.075 105.714 116.598 100.192 116.598Z" fill="#266999"/>
<defs>
<radialGradient id="paint0_radial" cx="0" cy="0" r="1" gradientUnits="userSpaceOnUse" gradientTransform="translate(33.1917 118.902) rotate(-41.7428) scale(43.5574 44.5042)">
<stop stop-color="white" stop-opacity="0"/>
<stop offset="1" stop-color="#085099" stop-opacity="0.9"/>
</radialGradient>
<linearGradient id="paint1_linear" x1="68.1917" y1="62.4023" x2="58.1916" y2="22.4023" gradientUnits="userSpaceOnUse">
<stop stop-color="#E68A99"/>
<stop offset="1" stop-color="#FFC2E9"/>
</linearGradient>
<linearGradient id="paint2_linear" x1="95.6887" y1="55.4023" x2="95.6887" y2="171.402" gradientUnits="userSpaceOnUse">
<stop stop-color="white" stop-opacity="0"/>
<stop offset="1" stop-color="#E4F4FF"/>
</linearGradient>
<radialGradient id="paint3_radial" cx="0" cy="0" r="1" gradientUnits="userSpaceOnUse" gradientTransform="translate(100.192 133.402) rotate(90) scale(11 32.8896)">
<stop stop-color="#266999" stop-opacity="0.2"/>
<stop offset="1" stop-color="#153E67" stop-opacity="0"/>
</radialGradient>
<radialGradient id="paint4_radial" cx="0" cy="0" r="1" gradientUnits="userSpaceOnUse" gradientTransform="translate(100.192 138.902) rotate(-90) scale(24.5)">
<stop stop-color="#262833"/>
<stop offset="1" stop-color="#262833" stop-opacity="0"/>
</radialGradient>
<radialGradient id="paint5_radial" cx="0" cy="0" r="1" gradientUnits="userSpaceOnUse" gradientTransform="translate(100.192 138.902) rotate(-90) scale(24.5)">
<stop stop-color="#262833"/>
<stop offset="1" stop-color="#262833" stop-opacity="0"/>
</radialGradient>
</defs>
</svg>
