<svg width="192" height="192" viewBox="0 0 192 192" fill="none" xmlns="http://www.w3.org/2000/svg">
<path fill-rule="evenodd" clip-rule="evenodd" d="M78.4691 55.7097L58.2361 21V74.4023H21L22.4472 77.2968C22.68 77.7624 22.9221 78.2549 23.1747 78.7689C25.5391 83.5796 28.8319 90.2795 34.1669 94.5183C37.1959 96.9249 40.9089 98.5748 45.4684 98.7077C49.2344 98.8176 53.46 97.8895 58.2361 95.6647V148.813L58.3978 149.19C61.6687 156.822 72.8295 170.402 96.2361 170.402C101.437 170.402 108.736 169.472 115.563 166.374C122.424 163.26 128.887 157.911 132.114 149.09L132.439 148.203L125.736 136.793C127.251 135.371 128.236 133.346 128.236 130.978V117.922C128.236 114.054 125.608 111.101 122.334 110.197C122.973 109.58 123.603 108.928 124.223 108.24C128.239 103.777 133.395 102.257 139.034 101.959C141.866 101.809 144.774 101.972 147.678 102.212C148.579 102.287 149.49 102.37 150.399 102.453L150.401 102.453L150.402 102.454C152.366 102.633 154.318 102.812 156.139 102.9C159.383 103.057 161.972 102.571 164.015 101.544C166.082 100.506 167.451 98.9833 168.347 97.3172C169.781 94.6487 170.011 91.4716 170.152 89.528C170.177 89.1756 170.2 88.8638 170.226 88.6029L170.422 86.66L132.894 81.969C131.376 81.7792 130.236 80.4885 130.236 78.9582C130.236 77.3994 131.417 76.0942 132.968 75.9391L170.236 72.2123V70.4023C170.236 63.8605 168.587 59.6052 165.341 57.1255C162.225 54.7447 158.102 54.4023 154.236 54.4023H88.2361C84.6591 54.4023 81.4808 54.8397 78.4691 55.7097ZM91.876 120.109L82.2589 114.471C79.5924 112.908 76.2361 114.831 76.2361 117.922V130.978C76.2361 134.069 79.5924 135.992 82.259 134.429L90.9558 129.33C90.4916 128.177 90.2361 126.918 90.2361 125.598C90.2361 123.571 90.8393 121.685 91.876 120.109ZM109.516 129.331L118.213 134.429C120.88 135.992 124.236 134.069 124.236 130.978V117.922C124.236 114.831 120.88 112.908 118.213 114.471L108.596 120.109C109.633 121.685 110.236 123.571 110.236 125.598C110.236 126.918 109.981 128.177 109.516 129.331ZM100.236 76.4023C98.9229 76.4023 97.6225 76.661 96.4092 77.1635C95.196 77.6661 94.0936 78.4027 93.165 79.3313C92.2364 80.2599 91.4998 81.3623 90.9973 82.5755C90.4947 83.7888 90.2361 85.0891 90.2361 86.4023H94.2361C94.2361 85.6144 94.3913 84.8342 94.6928 84.1062C94.9943 83.3783 95.4363 82.7169 95.9934 82.1597C96.5506 81.6026 97.212 81.1606 97.94 80.8591C98.6679 80.5575 99.4482 80.4023 100.236 80.4023C101.024 80.4023 101.804 80.5575 102.532 80.8591C103.26 81.1606 103.922 81.6026 104.479 82.1597C105.036 82.7169 105.478 83.3783 105.779 84.1062C106.081 84.8342 106.236 85.6144 106.236 86.4023H110.236C110.236 85.0891 109.977 83.7888 109.475 82.5755C108.972 81.3623 108.236 80.2599 107.307 79.3313C106.379 78.4027 105.276 77.6661 104.063 77.1635C102.85 76.661 101.549 76.4023 100.236 76.4023ZM94.2361 125.598C94.2361 122.285 96.9224 119.598 100.236 119.598C103.55 119.598 106.236 122.285 106.236 125.598C106.236 128.912 103.55 131.598 100.236 131.598C96.9224 131.598 94.2361 128.912 94.2361 125.598Z" fill="black"/>
<path d="M54.2361 129.473V101.912L29.4615 124.209L30.7047 125.689C35.2445 131.093 40.0355 132.902 44.2611 132.902C48.378 132.902 51.6655 131.186 53.3455 130.066L54.2361 129.473Z" fill="black"/>
</svg>
