<svg width="192" height="192" viewBox="0 0 192 192" fill="none" xmlns="http://www.w3.org/2000/svg">
<path d="M100.236 76.3978C98.9229 76.3978 97.6225 76.6565 96.4092 77.159C95.196 77.6616 94.0936 78.3982 93.165 79.3268C92.2364 80.2553 91.4998 81.3577 90.9973 82.571C90.4947 83.7842 90.2361 85.0846 90.2361 86.3978H94.2361C94.2361 85.6099 94.3913 84.8297 94.6928 84.1017C94.9943 83.3738 95.4363 82.7123 95.9934 82.1552C96.5506 81.598 97.212 81.1561 97.94 80.8545C98.6679 80.553 99.4482 80.3978 100.236 80.3978C101.024 80.3978 101.804 80.553 102.532 80.8545C103.26 81.1561 103.922 81.598 104.479 82.1552C105.036 82.7123 105.478 83.3738 105.779 84.1017C106.081 84.8297 106.236 85.6099 106.236 86.3978H110.236C110.236 85.0846 109.977 83.7842 109.475 82.571C108.972 81.3577 108.236 80.2553 107.307 79.3268C106.379 78.3982 105.276 77.6616 104.063 77.159C102.85 76.6565 101.549 76.3978 100.236 76.3978Z" fill="black"/>
<path fill-rule="evenodd" clip-rule="evenodd" d="M58.2361 21L78.4881 55.7177C81.481 54.8715 84.7444 54.3978 88.2361 54.3978H154.236C158.102 54.3978 162.225 54.7402 165.341 57.121C168.587 59.6007 170.236 63.856 170.236 70.3978V72.2078L132.968 75.9346C131.417 76.0897 130.236 77.3949 130.236 78.9537C130.236 80.4839 131.376 81.7747 132.894 81.9645L170.422 86.6555L170.226 88.5984C170.2 88.8578 170.177 89.1675 170.152 89.5173L170.152 89.5204L170.152 89.5224L170.152 89.5235C170.011 91.4671 169.781 94.6442 168.347 97.3127C167.451 98.9788 166.082 100.501 164.015 101.54C161.972 102.566 159.383 103.053 156.139 102.895C154.318 102.807 152.366 102.629 150.402 102.449L150.399 102.449L150.396 102.449C149.489 102.366 148.578 102.282 147.678 102.208C144.774 101.967 141.866 101.805 139.034 101.954C133.395 102.252 128.239 103.773 124.223 108.236C123.603 108.924 122.973 109.576 122.335 110.193C125.608 111.096 128.236 114.05 128.236 117.918V130.973C128.236 133.327 127.263 135.342 125.764 136.762L132.437 148.202L132.114 149.085C128.887 157.906 122.424 163.255 115.563 166.369C108.736 169.467 101.437 170.398 96.2361 170.398C72.8295 170.398 61.6687 156.818 58.3978 149.186L58.2361 148.808V95.6602C53.46 97.885 49.2344 98.8131 45.4684 98.7032C40.9089 98.5703 37.1959 96.9204 34.1669 94.5138C28.8319 90.275 25.5391 83.5751 23.1747 78.7644C22.9221 78.2504 22.68 77.7579 22.4472 77.2923L21 74.3978H58.2361V21ZM122.272 138.715C120.33 139.234 118.165 139.033 116.19 137.875L107.305 132.667C105.496 134.475 102.997 135.594 100.236 135.594C97.4755 135.594 94.9762 134.475 93.1667 132.667L84.2818 137.875C78.9487 141.001 72.2361 137.155 72.2361 130.973V117.918C72.2361 111.736 78.9487 107.89 84.2818 111.016L85.4878 111.723L85.4909 111.718L85.5591 111.765L87.4233 112.858C95.1742 116.813 110.006 118.053 121.249 105.56C126.233 100.023 132.583 98.2893 138.823 97.9599C141.93 97.7959 145.053 97.9767 148.008 98.2214C148.992 98.3029 149.946 98.3903 150.876 98.4754L150.877 98.4755C152.79 98.6506 154.598 98.816 156.333 98.9002C159.089 99.0338 160.95 98.6033 162.219 97.9656C163.464 97.3398 164.269 96.4509 164.823 95.4193C165.7 93.787 165.932 91.924 166.082 90.1441L132.398 85.9336C128.878 85.4936 126.236 82.5012 126.236 78.9537C126.236 75.3399 128.974 72.314 132.57 71.9544L166.186 68.5929C165.912 63.8676 164.544 61.5456 162.913 60.2997C160.957 58.8054 158.08 58.3978 154.236 58.3978H88.2361C71.8844 58.3978 62.2361 69.7423 62.2361 78.3978H27.46C29.749 82.9852 32.5112 88.0894 36.6552 91.3819C39.1012 93.3253 42.0008 94.6004 45.585 94.7049C49.2011 94.8104 53.684 93.7286 59.2699 90.6467L62.2361 89.0102V147.976C65.178 154.441 75.0491 166.398 96.2361 166.398C101.035 166.398 107.736 165.528 113.91 162.727C119.811 160.048 125.157 155.646 128.024 148.576L122.272 138.715ZM109.516 129.326L118.213 134.424C120.88 135.987 124.236 134.064 124.236 130.973V117.918C124.236 114.827 120.88 112.904 118.213 114.467L108.596 120.104C109.633 121.68 110.236 123.567 110.236 125.594C110.236 126.913 109.981 128.173 109.516 129.326ZM90.2361 125.594C90.2361 126.97 90.514 128.281 91.0167 129.474C91.0061 129.449 90.9957 129.424 90.9853 129.399C90.9754 129.374 90.9655 129.35 90.9558 129.326L82.259 134.424C79.5924 135.987 76.2361 134.064 76.2361 130.973V117.918C76.2361 114.827 79.5924 112.904 82.2589 114.467L83.4327 115.155C84.0496 115.565 84.7222 115.96 85.4445 116.334L91.876 120.104C90.8393 121.68 90.2361 123.567 90.2361 125.594ZM62.2361 35.7957V66.7999C65.0683 62.8126 69.3081 59.3197 74.6435 57.0655L62.2361 35.7957ZM94.2361 125.594C94.2361 122.28 96.9224 119.594 100.236 119.594C103.55 119.594 106.236 122.28 106.236 125.594C106.236 128.907 103.55 131.594 100.236 131.594C96.9224 131.594 94.2361 128.907 94.2361 125.594Z" fill="black"/>
<path fill-rule="evenodd" clip-rule="evenodd" d="M54.2361 101.907V129.468L53.3455 130.062C51.6655 131.182 48.378 132.898 44.2611 132.898C40.0355 132.898 35.2445 131.089 30.7047 125.684L29.4615 124.204L54.2361 101.907ZM35.0676 124.54C38.4548 127.961 41.6668 128.898 44.2611 128.898C46.7101 128.898 48.8196 128.061 50.2361 127.275V110.889L35.0676 124.54Z" fill="black"/>
</svg>
