<svg width="941" height="677" viewBox="0 0 941 677" fill="none" xmlns="http://www.w3.org/2000/svg">
<g clip-path="url(#clip0_704_2012)">
<rect x="63" y="88" width="846" height="336" rx="60" fill="#8AB0FC" fill-opacity="0.32" stroke="#8AB0FC" stroke-width="6"/>
<path d="M56.7703 188L47.7703 188C42.3703 188 38.2387 192.188 35.7432 195.815C33.2478 199.442 32 204.269 32 210.296L32 583.027L32 577C32 583.027 33.2477 587.854 35.7432 591.481C38.2387 595.108 42.3703 599.296 47.7703 599.296L56.7703 599.296" stroke="#2A3751" stroke-width="6" stroke-linecap="round" stroke-linejoin="round"/>
<path d="M250.23 241.5L250.23 321C250.23 327.027 251.477 331.854 253.973 335.481C256.468 339.108 260.6 343.296 266 343.296L437.5 343.296" stroke="#2A3751" stroke-width="6" stroke-linecap="round" stroke-linejoin="round"/>
<rect x="94" y="140" width="290" height="96" rx="48" fill="#FFF5CB"/>
<path d="M161.492 198.12L148.372 190.18V186.58L161.492 178.62V183.04L150.472 188.96V187.8L161.492 193.68V198.12ZM184.789 199V191.34C184.789 191.02 184.789 190.62 184.789 190.14C184.789 189.66 184.789 189.173 184.789 188.68C184.789 188.187 184.789 187.78 184.789 187.46C184.789 185.7 184.443 184.353 183.749 183.42C183.069 182.473 181.903 182 180.249 182C179.143 182 178.196 182.22 177.409 182.66C176.636 183.087 176.043 183.687 175.629 184.46C175.216 185.233 175.009 186.127 175.009 187.14L173.089 186.12C173.089 184.427 173.469 182.927 174.229 181.62C175.003 180.3 176.069 179.267 177.429 178.52C178.789 177.773 180.349 177.4 182.109 177.4C184.683 177.4 186.649 178.167 188.009 179.7C189.369 181.22 190.049 183.34 190.049 186.06C190.049 186.753 190.049 187.58 190.049 188.54C190.049 189.487 190.049 190.553 190.049 191.74V199H184.789ZM169.749 199V167.74H175.009V199H169.749ZM196.7 190.08V186.34H211.56L210.96 187.34C210.96 187.26 210.96 187.173 210.96 187.08C210.96 186.973 210.96 186.887 210.96 186.82C210.96 185.9 210.753 185.04 210.34 184.24C209.927 183.427 209.3 182.773 208.46 182.28C207.62 181.773 206.553 181.52 205.26 181.52C203.98 181.52 202.867 181.793 201.92 182.34C200.987 182.873 200.26 183.647 199.74 184.66C199.233 185.673 198.98 186.887 198.98 188.3C198.98 189.753 199.227 191.007 199.72 192.06C200.213 193.1 200.933 193.9 201.88 194.46C202.84 195.007 204.007 195.28 205.38 195.28C206.313 195.28 207.12 195.193 207.8 195.02C208.48 194.847 209.033 194.613 209.46 194.32C209.9 194.013 210.227 193.687 210.44 193.34C210.667 192.993 210.8 192.647 210.84 192.3H216.08C216 193.193 215.7 194.067 215.18 194.92C214.673 195.76 213.96 196.527 213.04 197.22C212.12 197.9 211 198.447 209.68 198.86C208.373 199.26 206.88 199.46 205.2 199.46C202.92 199.46 200.927 198.993 199.22 198.06C197.513 197.127 196.18 195.827 195.22 194.16C194.273 192.493 193.8 190.587 193.8 188.44C193.8 186.24 194.28 184.313 195.24 182.66C196.213 181.007 197.56 179.72 199.28 178.8C201 177.867 202.973 177.4 205.2 177.4C207.493 177.4 209.473 177.867 211.14 178.8C212.82 179.733 214.113 181.033 215.02 182.7C215.927 184.353 216.38 186.28 216.38 188.48C216.38 188.76 216.373 189.06 216.36 189.38C216.347 189.7 216.327 189.933 216.3 190.08H196.7ZM227.597 199.44C226.01 199.44 224.617 199.193 223.417 198.7C222.217 198.193 221.277 197.467 220.597 196.52C219.917 195.573 219.577 194.433 219.577 193.1C219.577 191.647 219.97 190.453 220.757 189.52C221.557 188.573 222.63 187.847 223.977 187.34C225.323 186.82 226.817 186.487 228.457 186.34C230.883 186.1 232.577 185.873 233.537 185.66C234.51 185.433 234.997 185.073 234.997 184.58C234.997 184.567 234.997 184.56 234.997 184.56C234.997 184.547 234.997 184.54 234.997 184.54C234.997 183.607 234.577 182.887 233.737 182.38C232.897 181.873 231.71 181.62 230.177 181.62C228.563 181.62 227.323 181.907 226.457 182.48C225.603 183.04 225.177 183.933 225.177 185.16H219.977C219.977 183.493 220.417 182.087 221.297 180.94C222.19 179.78 223.41 178.9 224.957 178.3C226.503 177.7 228.257 177.4 230.217 177.4C232.043 177.4 233.717 177.673 235.237 178.22C236.757 178.767 237.977 179.593 238.897 180.7C239.817 181.807 240.277 183.187 240.277 184.84C240.277 185.12 240.277 185.4 240.277 185.68C240.277 185.96 240.277 186.24 240.277 186.52V194.52C240.277 195.027 240.29 195.527 240.317 196.02C240.357 196.5 240.43 196.933 240.537 197.32C240.67 197.747 240.83 198.107 241.017 198.4C241.203 198.693 241.35 198.893 241.457 199H236.257C236.163 198.907 236.03 198.727 235.857 198.46C235.697 198.18 235.55 197.86 235.417 197.5C235.283 197.1 235.183 196.673 235.117 196.22C235.05 195.753 235.017 195.24 235.017 194.68L236.057 195.4C235.657 196.213 235.043 196.927 234.217 197.54C233.403 198.14 232.43 198.607 231.297 198.94C230.163 199.273 228.93 199.44 227.597 199.44ZM228.877 195.3C229.97 195.3 230.983 195.113 231.917 194.74C232.85 194.367 233.603 193.793 234.177 193.02C234.75 192.233 235.037 191.227 235.037 190V187.16L236.317 188.6C235.463 188.92 234.437 189.187 233.237 189.4C232.037 189.6 230.823 189.76 229.597 189.88C228.023 190.027 226.837 190.3 226.037 190.7C225.25 191.1 224.857 191.753 224.857 192.66C224.857 193.54 225.19 194.2 225.857 194.64C226.523 195.08 227.53 195.3 228.877 195.3ZM253.58 199.44C251.834 199.44 250.214 199.02 248.72 198.18C247.24 197.327 246.054 196.073 245.16 194.42C244.267 192.767 243.82 190.733 243.82 188.32C243.82 185.973 244.274 183.987 245.18 182.36C246.1 180.733 247.3 179.5 248.78 178.66C250.274 177.82 251.874 177.4 253.58 177.4C255.247 177.4 256.787 177.813 258.2 178.64C259.614 179.453 260.747 180.587 261.6 182.04C262.454 183.493 262.88 185.16 262.88 187.04C262.88 187.093 262.88 187.147 262.88 187.2C262.88 187.253 262.88 187.307 262.88 187.36L260.28 187.42C260.28 187.38 260.28 187.34 260.28 187.3C260.28 187.247 260.28 187.2 260.28 187.16C260.28 186.107 260.014 185.187 259.48 184.4C258.96 183.613 258.28 183 257.44 182.56C256.614 182.107 255.734 181.88 254.8 181.88C253.267 181.88 251.96 182.4 250.88 183.44C249.8 184.467 249.26 186.093 249.26 188.32C249.26 190.533 249.8 192.167 250.88 193.22C251.96 194.273 253.267 194.8 254.8 194.8C255.774 194.8 256.674 194.567 257.5 194.1C258.327 193.633 258.994 192.993 259.5 192.18C260.02 191.353 260.28 190.407 260.28 189.34L262.88 189.46C262.88 191.327 262.46 193.02 261.62 194.54C260.794 196.047 259.68 197.24 258.28 198.12C256.88 199 255.314 199.44 253.58 199.44ZM260.28 199V167.74H265.56V199H260.28ZM272.297 190.08V186.34H287.157L286.557 187.34C286.557 187.26 286.557 187.173 286.557 187.08C286.557 186.973 286.557 186.887 286.557 186.82C286.557 185.9 286.35 185.04 285.937 184.24C285.524 183.427 284.897 182.773 284.057 182.28C283.217 181.773 282.15 181.52 280.857 181.52C279.577 181.52 278.464 181.793 277.517 182.34C276.584 182.873 275.857 183.647 275.337 184.66C274.83 185.673 274.577 186.887 274.577 188.3C274.577 189.753 274.824 191.007 275.317 192.06C275.81 193.1 276.53 193.9 277.477 194.46C278.437 195.007 279.604 195.28 280.977 195.28C281.91 195.28 282.717 195.193 283.397 195.02C284.077 194.847 284.63 194.613 285.057 194.32C285.497 194.013 285.824 193.687 286.037 193.34C286.264 192.993 286.397 192.647 286.437 192.3H291.677C291.597 193.193 291.297 194.067 290.777 194.92C290.27 195.76 289.557 196.527 288.637 197.22C287.717 197.9 286.597 198.447 285.277 198.86C283.97 199.26 282.477 199.46 280.797 199.46C278.517 199.46 276.524 198.993 274.817 198.06C273.11 197.127 271.777 195.827 270.817 194.16C269.87 192.493 269.397 190.587 269.397 188.44C269.397 186.24 269.877 184.313 270.837 182.66C271.81 181.007 273.157 179.72 274.877 178.8C276.597 177.867 278.57 177.4 280.797 177.4C283.09 177.4 285.07 177.867 286.737 178.8C288.417 179.733 289.71 181.033 290.617 182.7C291.524 184.353 291.977 186.28 291.977 188.48C291.977 188.76 291.97 189.06 291.957 189.38C291.944 189.7 291.924 189.933 291.897 190.08H272.297ZM295.913 199V177.76H301.173V184.82L299.953 184.14C300.087 183.22 300.333 182.353 300.693 181.54C301.053 180.713 301.533 179.993 302.133 179.38C302.733 178.753 303.46 178.267 304.313 177.92C305.167 177.573 306.14 177.4 307.233 177.4C308.1 177.4 308.78 177.467 309.273 177.6C309.78 177.72 310.093 177.82 310.213 177.9L309.253 182.72C309.12 182.627 308.847 182.513 308.433 182.38C308.033 182.233 307.493 182.16 306.813 182.16C305.733 182.16 304.827 182.347 304.093 182.72C303.373 183.08 302.8 183.573 302.373 184.2C301.947 184.813 301.64 185.493 301.453 186.24C301.267 186.973 301.173 187.707 301.173 188.44V199H295.913ZM316.491 178.62L329.591 186.58V190.18L316.491 198.12V193.68L327.511 187.8V188.96L316.491 183.04V178.62Z" fill="#D17805"/>
<rect x="94" y="140" width="290" height="96" rx="48" stroke="#D17805" stroke-width="6"/>
<rect x="443" y="293" width="428" height="96" rx="48" fill="#C9FBE2"/>
<path d="M510.545 351.12L497.425 343.18V339.58L510.545 331.62V336.04L499.525 341.96V340.8L510.545 346.68V351.12ZM527.623 352.44C525.876 352.44 524.256 352.02 522.763 351.18C521.283 350.327 520.096 349.073 519.203 347.42C518.309 345.767 517.863 343.733 517.863 341.32C517.863 338.973 518.316 336.987 519.223 335.36C520.143 333.733 521.343 332.5 522.823 331.66C524.316 330.82 525.916 330.4 527.623 330.4C529.289 330.4 530.829 330.813 532.243 331.64C533.656 332.453 534.789 333.587 535.643 335.04C536.496 336.493 536.923 338.16 536.923 340.04C536.923 340.093 536.923 340.147 536.923 340.2C536.923 340.253 536.923 340.307 536.923 340.36L534.323 340.42C534.323 340.38 534.323 340.34 534.323 340.3C534.323 340.247 534.323 340.2 534.323 340.16C534.323 339.107 534.056 338.187 533.523 337.4C533.003 336.613 532.323 336 531.483 335.56C530.656 335.107 529.776 334.88 528.843 334.88C527.309 334.88 526.003 335.4 524.923 336.44C523.843 337.467 523.303 339.093 523.303 341.32C523.303 343.533 523.843 345.167 524.923 346.22C526.003 347.273 527.309 347.8 528.843 347.8C529.816 347.8 530.716 347.567 531.543 347.1C532.369 346.633 533.036 345.993 533.543 345.18C534.063 344.353 534.323 343.407 534.323 342.34L536.923 342.46C536.923 344.327 536.503 346.02 535.663 347.54C534.836 349.047 533.723 350.24 532.323 351.12C530.923 352 529.356 352.44 527.623 352.44ZM534.323 352V320.74H539.603V352H534.323ZM544.279 352V330.76H549.479V352H544.279ZM546.899 326.84C546.046 326.84 545.299 326.613 544.659 326.16C544.032 325.693 543.719 325.047 543.719 324.22C543.719 323.407 544.032 322.773 544.659 322.32C545.299 321.867 546.046 321.64 546.899 321.64C547.739 321.64 548.472 321.867 549.099 322.32C549.726 322.773 550.039 323.407 550.039 324.22C550.039 325.047 549.726 325.693 549.099 326.16C548.472 326.613 547.739 326.84 546.899 326.84ZM572.932 330.76L566.272 352H559.212L552.392 330.76H557.832L563.172 350.16H562.332L567.492 330.76H572.932ZM585.423 352V330.76H590.623V352H585.423ZM588.043 326.84C587.189 326.84 586.443 326.613 585.803 326.16C585.176 325.693 584.863 325.047 584.863 324.22C584.863 323.407 585.176 322.773 585.803 322.32C586.443 321.867 587.189 321.64 588.043 321.64C588.883 321.64 589.616 321.867 590.243 322.32C590.869 322.773 591.183 323.407 591.183 324.22C591.183 325.047 590.869 325.693 590.243 326.16C589.616 326.613 588.883 326.84 588.043 326.84ZM604.255 352.44C602.509 352.44 600.889 352.02 599.395 351.18C597.915 350.327 596.729 349.073 595.835 347.42C594.942 345.767 594.495 343.733 594.495 341.32C594.495 338.973 594.949 336.987 595.855 335.36C596.775 333.733 597.975 332.5 599.455 331.66C600.949 330.82 602.549 330.4 604.255 330.4C605.922 330.4 607.462 330.813 608.875 331.64C610.289 332.453 611.422 333.587 612.275 335.04C613.129 336.493 613.555 338.16 613.555 340.04C613.555 340.093 613.555 340.147 613.555 340.2C613.555 340.253 613.555 340.307 613.555 340.36L610.955 340.42C610.955 340.38 610.955 340.34 610.955 340.3C610.955 340.247 610.955 340.2 610.955 340.16C610.955 339.107 610.689 338.187 610.155 337.4C609.635 336.613 608.955 336 608.115 335.56C607.289 335.107 606.409 334.88 605.475 334.88C603.942 334.88 602.635 335.4 601.555 336.44C600.475 337.467 599.935 339.093 599.935 341.32C599.935 343.533 600.475 345.167 601.555 346.22C602.635 347.273 603.942 347.8 605.475 347.8C606.449 347.8 607.349 347.567 608.175 347.1C609.002 346.633 609.669 345.993 610.175 345.18C610.695 344.353 610.955 343.407 610.955 342.34L613.555 342.46C613.555 344.327 613.135 346.02 612.295 347.54C611.469 349.047 610.355 350.24 608.955 351.12C607.555 352 605.989 352.44 604.255 352.44ZM610.955 352V320.74H616.235V352H610.955ZM638.352 339.54H623.432V336.24H638.352V339.54ZM638.352 346.58H623.432V343.28H638.352V346.58ZM649.269 322.5L648.789 331.9H645.849L645.389 322.5H649.269ZM656.169 322.5L655.689 331.9H652.769L652.289 322.5H656.169ZM674.857 352V343.38C674.857 342.593 674.857 341.907 674.857 341.32C674.857 340.72 674.857 340.22 674.857 339.82C674.857 339.3 674.824 338.76 674.757 338.2C674.691 337.627 674.544 337.1 674.317 336.62C674.091 336.14 673.737 335.753 673.257 335.46C672.791 335.153 672.144 335 671.317 335C670.517 335 669.837 335.167 669.277 335.5C668.731 335.82 668.277 336.253 667.917 336.8C667.571 337.333 667.317 337.947 667.157 338.64C666.997 339.32 666.917 340.02 666.917 340.74L665.157 339.56C665.157 337.813 665.484 336.253 666.137 334.88C666.791 333.507 667.717 332.42 668.917 331.62C670.131 330.807 671.564 330.4 673.217 330.4C674.924 330.4 676.277 330.76 677.277 331.48C678.277 332.187 678.991 333.147 679.417 334.36C679.857 335.573 680.077 336.933 680.077 338.44C680.077 339 680.077 339.747 680.077 340.68C680.077 341.6 680.077 342.687 680.077 343.94V352H674.857ZM661.657 352V330.76H666.917V352H661.657ZM687.977 352V343.4C687.977 342.56 687.977 341.847 687.977 341.26C687.977 340.673 687.977 340.18 687.977 339.78C687.977 339.22 687.944 338.66 687.877 338.1C687.811 337.527 687.664 337.013 687.437 336.56C687.211 336.093 686.857 335.72 686.377 335.44C685.897 335.147 685.244 335 684.417 335C683.604 335 682.917 335.16 682.357 335.48C681.811 335.8 681.371 336.227 681.037 336.76C680.704 337.293 680.457 337.893 680.297 338.56C680.151 339.227 680.077 339.893 680.077 340.56L678.317 339.4C678.317 337.707 678.637 336.18 679.277 334.82C679.917 333.46 680.837 332.387 682.037 331.6C683.237 330.8 684.664 330.4 686.317 330.4C687.984 330.4 689.324 330.74 690.337 331.42C691.351 332.1 692.084 333.033 692.537 334.22C693.004 335.393 693.237 336.733 693.237 338.24C693.237 338.827 693.237 339.573 693.237 340.48C693.237 341.387 693.237 342.46 693.237 343.7V352H687.977ZM708.338 352.42C706.098 352.42 704.124 351.953 702.418 351.02C700.711 350.073 699.371 348.767 698.398 347.1C697.438 345.433 696.958 343.527 696.958 341.38C696.958 339.22 697.438 337.32 698.398 335.68C699.371 334.027 700.711 332.733 702.418 331.8C704.124 330.867 706.098 330.4 708.338 330.4C710.578 330.4 712.551 330.867 714.258 331.8C715.964 332.733 717.298 334.027 718.258 335.68C719.231 337.32 719.718 339.22 719.718 341.38C719.718 343.527 719.231 345.433 718.258 347.1C717.298 348.767 715.964 350.073 714.258 351.02C712.551 351.953 710.578 352.42 708.338 352.42ZM708.338 348.12C709.551 348.12 710.611 347.84 711.518 347.28C712.424 346.72 713.131 345.94 713.638 344.94C714.144 343.927 714.398 342.74 714.398 341.38C714.398 340.02 714.144 338.847 713.638 337.86C713.131 336.86 712.424 336.087 711.518 335.54C710.611 334.993 709.551 334.72 708.338 334.72C707.138 334.72 706.078 334.993 705.158 335.54C704.251 336.087 703.544 336.86 703.038 337.86C702.531 338.847 702.278 340.02 702.278 341.38C702.278 342.74 702.531 343.927 703.038 344.94C703.544 345.94 704.251 346.72 705.158 347.28C706.078 347.84 707.138 348.12 708.338 348.12ZM732.49 352.44C730.743 352.44 729.123 352.02 727.63 351.18C726.15 350.327 724.963 349.073 724.07 347.42C723.176 345.767 722.73 343.733 722.73 341.32C722.73 338.973 723.183 336.987 724.09 335.36C725.01 333.733 726.21 332.5 727.69 331.66C729.183 330.82 730.783 330.4 732.49 330.4C734.156 330.4 735.696 330.813 737.11 331.64C738.523 332.453 739.656 333.587 740.51 335.04C741.363 336.493 741.79 338.16 741.79 340.04C741.79 340.093 741.79 340.147 741.79 340.2C741.79 340.253 741.79 340.307 741.79 340.36L739.19 340.42C739.19 340.38 739.19 340.34 739.19 340.3C739.19 340.247 739.19 340.2 739.19 340.16C739.19 339.107 738.923 338.187 738.39 337.4C737.87 336.613 737.19 336 736.35 335.56C735.523 335.107 734.643 334.88 733.71 334.88C732.176 334.88 730.87 335.4 729.79 336.44C728.71 337.467 728.17 339.093 728.17 341.32C728.17 343.533 728.71 345.167 729.79 346.22C730.87 347.273 732.176 347.8 733.71 347.8C734.683 347.8 735.583 347.567 736.41 347.1C737.236 346.633 737.903 345.993 738.41 345.18C738.93 344.353 739.19 343.407 739.19 342.34L741.79 342.46C741.79 344.327 741.37 346.02 740.53 347.54C739.703 349.047 738.59 350.24 737.19 351.12C735.79 352 734.223 352.44 732.49 352.44ZM739.19 352V320.74H744.47V352H739.19ZM756.526 352.44C754.94 352.44 753.546 352.193 752.346 351.7C751.146 351.193 750.206 350.467 749.526 349.52C748.846 348.573 748.506 347.433 748.506 346.1C748.506 344.647 748.9 343.453 749.686 342.52C750.486 341.573 751.56 340.847 752.906 340.34C754.253 339.82 755.746 339.487 757.386 339.34C759.813 339.1 761.506 338.873 762.466 338.66C763.44 338.433 763.926 338.073 763.926 337.58C763.926 337.567 763.926 337.56 763.926 337.56C763.926 337.547 763.926 337.54 763.926 337.54C763.926 336.607 763.506 335.887 762.666 335.38C761.826 334.873 760.64 334.62 759.106 334.62C757.493 334.62 756.253 334.907 755.386 335.48C754.533 336.04 754.106 336.933 754.106 338.16H748.906C748.906 336.493 749.346 335.087 750.226 333.94C751.12 332.78 752.34 331.9 753.886 331.3C755.433 330.7 757.186 330.4 759.146 330.4C760.973 330.4 762.646 330.673 764.166 331.22C765.686 331.767 766.906 332.593 767.826 333.7C768.746 334.807 769.206 336.187 769.206 337.84C769.206 338.12 769.206 338.4 769.206 338.68C769.206 338.96 769.206 339.24 769.206 339.52V347.52C769.206 348.027 769.22 348.527 769.246 349.02C769.286 349.5 769.36 349.933 769.466 350.32C769.6 350.747 769.76 351.107 769.946 351.4C770.133 351.693 770.28 351.893 770.386 352H765.186C765.093 351.907 764.96 351.727 764.786 351.46C764.626 351.18 764.48 350.86 764.346 350.5C764.213 350.1 764.113 349.673 764.046 349.22C763.98 348.753 763.946 348.24 763.946 347.68L764.986 348.4C764.586 349.213 763.973 349.927 763.146 350.54C762.333 351.14 761.36 351.607 760.226 351.94C759.093 352.273 757.86 352.44 756.526 352.44ZM757.806 348.3C758.9 348.3 759.913 348.113 760.846 347.74C761.78 347.367 762.533 346.793 763.106 346.02C763.68 345.233 763.966 344.227 763.966 343V340.16L765.246 341.6C764.393 341.92 763.366 342.187 762.166 342.4C760.966 342.6 759.753 342.76 758.526 342.88C756.953 343.027 755.766 343.3 754.966 343.7C754.18 344.1 753.786 344.753 753.786 345.66C753.786 346.54 754.12 347.2 754.786 347.64C755.453 348.08 756.46 348.3 757.806 348.3ZM779.17 320.74V352H773.99V320.74H779.17ZM787.689 322.5L787.209 331.9H784.269L783.809 322.5H787.689ZM794.589 322.5L794.109 331.9H791.189L790.709 322.5H794.589ZM803.438 331.62L816.538 339.58V343.18L803.438 351.12V346.68L814.458 340.8V341.96L803.438 336.04V331.62Z" fill="#009483"/>
<rect x="443" y="293" width="428" height="96" rx="48" stroke="#009483" stroke-width="6"/>
<rect x="63" y="549" width="290" height="96" rx="48" fill="#FED9D2"/>
<path d="M138.363 607.12L125.243 599.18V595.58L138.363 587.62V592.04L127.343 597.96V596.8L138.363 602.68V607.12ZM149.2 608V590.96H144.7V586.76H149.2V584.86C149.2 583.62 149.367 582.533 149.7 581.6C150.034 580.653 150.487 579.853 151.06 579.2C151.634 578.547 152.287 578.02 153.02 577.62C153.767 577.207 154.56 576.907 155.4 576.72C156.254 576.533 157.1 576.44 157.94 576.44C158.74 576.44 159.347 576.487 159.76 576.58C160.187 576.673 160.474 576.753 160.62 576.82V581.06C160.46 581.007 160.18 580.947 159.78 580.88C159.394 580.8 158.974 580.76 158.52 580.76C157.707 580.76 157.034 580.88 156.5 581.12C155.967 581.347 155.554 581.667 155.26 582.08C154.967 582.493 154.76 582.973 154.64 583.52C154.52 584.053 154.46 584.64 154.46 585.28V586.76H160.34V590.96H154.46V608H149.2ZM172.91 608.42C170.67 608.42 168.697 607.953 166.99 607.02C165.284 606.073 163.944 604.767 162.97 603.1C162.01 601.433 161.53 599.527 161.53 597.38C161.53 595.22 162.01 593.32 162.97 591.68C163.944 590.027 165.284 588.733 166.99 587.8C168.697 586.867 170.67 586.4 172.91 586.4C175.15 586.4 177.124 586.867 178.83 587.8C180.537 588.733 181.87 590.027 182.83 591.68C183.804 593.32 184.29 595.22 184.29 597.38C184.29 599.527 183.804 601.433 182.83 603.1C181.87 604.767 180.537 606.073 178.83 607.02C177.124 607.953 175.15 608.42 172.91 608.42ZM172.91 604.12C174.124 604.12 175.184 603.84 176.09 603.28C176.997 602.72 177.704 601.94 178.21 600.94C178.717 599.927 178.97 598.74 178.97 597.38C178.97 596.02 178.717 594.847 178.21 593.86C177.704 592.86 176.997 592.087 176.09 591.54C175.184 590.993 174.124 590.72 172.91 590.72C171.71 590.72 170.65 590.993 169.73 591.54C168.824 592.087 168.117 592.86 167.61 593.86C167.104 594.847 166.85 596.02 166.85 597.38C166.85 598.74 167.104 599.927 167.61 600.94C168.117 601.94 168.824 602.72 169.73 603.28C170.65 603.84 171.71 604.12 172.91 604.12ZM198.682 608.42C196.442 608.42 194.469 607.953 192.762 607.02C191.056 606.073 189.716 604.767 188.742 603.1C187.782 601.433 187.302 599.527 187.302 597.38C187.302 595.22 187.782 593.32 188.742 591.68C189.716 590.027 191.056 588.733 192.762 587.8C194.469 586.867 196.442 586.4 198.682 586.4C200.922 586.4 202.896 586.867 204.602 587.8C206.309 588.733 207.642 590.027 208.602 591.68C209.576 593.32 210.062 595.22 210.062 597.38C210.062 599.527 209.576 601.433 208.602 603.1C207.642 604.767 206.309 606.073 204.602 607.02C202.896 607.953 200.922 608.42 198.682 608.42ZM198.682 604.12C199.896 604.12 200.956 603.84 201.862 603.28C202.769 602.72 203.476 601.94 203.982 600.94C204.489 599.927 204.742 598.74 204.742 597.38C204.742 596.02 204.489 594.847 203.982 593.86C203.476 592.86 202.769 592.087 201.862 591.54C200.956 590.993 199.896 590.72 198.682 590.72C197.482 590.72 196.422 590.993 195.502 591.54C194.596 592.087 193.889 592.86 193.382 593.86C192.876 594.847 192.622 596.02 192.622 597.38C192.622 598.74 192.876 599.927 193.382 600.94C193.889 601.94 194.596 602.72 195.502 603.28C196.422 603.84 197.482 604.12 198.682 604.12ZM223.54 608.4C222.78 608.4 222.007 608.327 221.22 608.18C220.433 608.033 219.713 607.76 219.06 607.36C218.407 606.96 217.88 606.373 217.48 605.6C217.08 604.827 216.88 603.807 216.88 602.54C216.88 602.247 216.88 601.953 216.88 601.66C216.88 601.353 216.88 601.04 216.88 600.72V590.96H211.86V586.76H213.9C214.593 586.76 215.14 586.733 215.54 586.68C215.94 586.613 216.233 586.467 216.42 586.24C216.607 586.013 216.727 585.66 216.78 585.18C216.847 584.687 216.88 584.007 216.88 583.14V579.76H222.16V586.76H228.48V590.96H222.16V599.48C222.16 599.733 222.16 599.987 222.16 600.24C222.16 600.48 222.16 600.713 222.16 600.94C222.16 601.927 222.28 602.72 222.52 603.32C222.76 603.92 223.327 604.22 224.22 604.22C224.647 604.22 225.047 604.18 225.42 604.1C225.807 604.02 226.093 603.94 226.28 603.86V607.98C226.027 608.073 225.66 608.167 225.18 608.26C224.7 608.353 224.153 608.4 223.54 608.4ZM233.426 599.08V595.34H248.286L247.686 596.34C247.686 596.26 247.686 596.173 247.686 596.08C247.686 595.973 247.686 595.887 247.686 595.82C247.686 594.9 247.479 594.04 247.066 593.24C246.652 592.427 246.026 591.773 245.186 591.28C244.346 590.773 243.279 590.52 241.986 590.52C240.706 590.52 239.592 590.793 238.646 591.34C237.712 591.873 236.986 592.647 236.466 593.66C235.959 594.673 235.706 595.887 235.706 597.3C235.706 598.753 235.952 600.007 236.446 601.06C236.939 602.1 237.659 602.9 238.606 603.46C239.566 604.007 240.732 604.28 242.106 604.28C243.039 604.28 243.846 604.193 244.526 604.02C245.206 603.847 245.759 603.613 246.186 603.32C246.626 603.013 246.952 602.687 247.166 602.34C247.392 601.993 247.526 601.647 247.566 601.3H252.806C252.726 602.193 252.426 603.067 251.906 603.92C251.399 604.76 250.686 605.527 249.766 606.22C248.846 606.9 247.726 607.447 246.406 607.86C245.099 608.26 243.606 608.46 241.926 608.46C239.646 608.46 237.652 607.993 235.946 607.06C234.239 606.127 232.906 604.827 231.946 603.16C230.999 601.493 230.526 599.587 230.526 597.44C230.526 595.24 231.006 593.313 231.966 591.66C232.939 590.007 234.286 588.72 236.006 587.8C237.726 586.867 239.699 586.4 241.926 586.4C244.219 586.4 246.199 586.867 247.866 587.8C249.546 588.733 250.839 590.033 251.746 591.7C252.652 593.353 253.106 595.28 253.106 597.48C253.106 597.76 253.099 598.06 253.086 598.38C253.072 598.7 253.052 598.933 253.026 599.08H233.426ZM257.042 608V586.76H262.302V593.82L261.082 593.14C261.216 592.22 261.462 591.353 261.822 590.54C262.182 589.713 262.662 588.993 263.262 588.38C263.862 587.753 264.589 587.267 265.442 586.92C266.296 586.573 267.269 586.4 268.362 586.4C269.229 586.4 269.909 586.467 270.402 586.6C270.909 586.72 271.222 586.82 271.342 586.9L270.382 591.72C270.249 591.627 269.976 591.513 269.562 591.38C269.162 591.233 268.622 591.16 267.942 591.16C266.862 591.16 265.956 591.347 265.222 591.72C264.502 592.08 263.929 592.573 263.502 593.2C263.076 593.813 262.769 594.493 262.582 595.24C262.396 595.973 262.302 596.707 262.302 597.44V608H257.042ZM277.62 587.62L290.72 595.58V599.18L277.62 607.12V602.68L288.64 596.8V597.96L277.62 592.04V587.62Z" fill="#DA2F84"/>
<rect x="63" y="549" width="290" height="96" rx="48" stroke="#DA2F84" stroke-opacity="0.64" stroke-width="6"/>
<path d="M698.869 67.168H712.693V73H690.901V67.48L704.389 53.056L704.557 53.32H691.381V47.512H712.405V53.032L699.037 67.408L698.869 67.168ZM715.004 61.696V57.136H732.5V61.696H715.004ZM737.032 73V47.512H744.4V73H737.032ZM740.704 43.36C739.552 43.36 738.544 43.056 737.68 42.448C736.832 41.84 736.408 40.984 736.408 39.88C736.408 38.76 736.832 37.896 737.68 37.288C738.544 36.68 739.552 36.376 740.704 36.376C741.872 36.376 742.88 36.68 743.728 37.288C744.592 37.896 745.024 38.76 745.024 39.88C745.024 41 744.592 41.864 743.728 42.472C742.88 43.064 741.872 43.36 740.704 43.36ZM766.874 73V62.176C766.874 61.568 766.874 61.016 766.874 60.52C766.874 60.024 766.874 59.576 766.874 59.176C766.874 58.12 766.738 57.16 766.466 56.296C766.194 55.416 765.706 54.712 765.002 54.184C764.298 53.656 763.282 53.392 761.954 53.392C760.802 53.392 759.802 53.656 758.954 54.184C758.122 54.712 757.482 55.448 757.034 56.392C756.586 57.336 756.362 58.424 756.362 59.656L754.298 58.168C754.298 55.96 754.778 54.024 755.738 52.36C756.698 50.696 757.994 49.392 759.626 48.448C761.274 47.504 763.098 47.032 765.098 47.032C767.194 47.032 768.914 47.456 770.258 48.304C771.618 49.136 772.626 50.304 773.282 51.808C773.954 53.296 774.29 55.04 774.29 57.04C774.29 57.856 774.29 58.768 774.29 59.776C774.29 60.784 774.29 61.816 774.29 62.872V73H766.874ZM748.922 73V47.512H756.362V73H748.922ZM789.556 73.576C787.428 73.576 785.468 73.072 783.676 72.064C781.884 71.04 780.444 69.528 779.356 67.528C778.268 65.528 777.724 63.064 777.724 60.136C777.724 57.336 778.276 54.96 779.38 53.008C780.5 51.056 781.956 49.576 783.748 48.568C785.556 47.544 787.492 47.032 789.556 47.032C791.572 47.032 793.412 47.544 795.076 48.568C796.756 49.592 798.1 50.992 799.108 52.768C800.116 54.528 800.62 56.56 800.62 58.864C800.62 58.944 800.62 59.024 800.62 59.104C800.62 59.168 800.62 59.24 800.62 59.32L797.404 59.368C797.404 59.32 797.404 59.272 797.404 59.224C797.404 59.16 797.404 59.104 797.404 59.056C797.404 57.856 797.116 56.824 796.54 55.96C795.964 55.096 795.22 54.432 794.308 53.968C793.396 53.488 792.444 53.248 791.452 53.248C789.804 53.248 788.38 53.8 787.18 54.904C785.98 55.992 785.38 57.736 785.38 60.136C785.38 62.536 785.98 64.304 787.18 65.44C788.396 66.56 789.82 67.12 791.452 67.12C792.476 67.12 793.444 66.88 794.356 66.4C795.268 65.904 796.004 65.208 796.564 64.312C797.124 63.416 797.404 62.36 797.404 61.144L800.62 61.312C800.62 63.6 800.124 65.672 799.132 67.528C798.156 69.368 796.828 70.84 795.148 71.944C793.484 73.032 791.62 73.576 789.556 73.576ZM797.404 73V35.488H804.868V73H797.404ZM812.436 62.488V57.568H829.332L828.612 58.816C828.612 58.688 828.612 58.568 828.612 58.456C828.612 58.328 828.612 58.208 828.612 58.096C828.612 57.184 828.396 56.312 827.964 55.48C827.532 54.632 826.86 53.944 825.948 53.416C825.052 52.872 823.9 52.6 822.492 52.6C821.084 52.6 819.868 52.904 818.844 53.512C817.836 54.104 817.06 54.96 816.516 56.08C815.988 57.2 815.724 58.552 815.724 60.136C815.724 61.768 815.98 63.168 816.492 64.336C817.02 65.488 817.796 66.376 818.82 67C819.86 67.624 821.148 67.936 822.684 67.936C823.676 67.936 824.532 67.848 825.252 67.672C825.972 67.48 826.556 67.24 827.004 66.952C827.468 66.664 827.82 66.344 828.06 65.992C828.3 65.64 828.444 65.296 828.492 64.96H835.836C835.74 66.032 835.372 67.088 834.732 68.128C834.092 69.152 833.204 70.08 832.068 70.912C830.932 71.728 829.548 72.376 827.916 72.856C826.3 73.336 824.452 73.576 822.372 73.576C819.556 73.576 817.1 73.016 815.004 71.896C812.908 70.76 811.284 69.2 810.132 67.216C808.98 65.216 808.404 62.912 808.404 60.304C808.404 57.664 808.988 55.352 810.156 53.368C811.34 51.368 812.98 49.816 815.076 48.712C817.188 47.592 819.628 47.032 822.396 47.032C825.228 47.032 827.676 47.6 829.74 48.736C831.804 49.856 833.396 51.432 834.516 53.464C835.636 55.48 836.196 57.832 836.196 60.52C836.196 60.92 836.188 61.304 836.172 61.672C836.156 62.04 836.132 62.312 836.1 62.488H812.436ZM846.814 58.96L846.742 62.296L836.158 47.512H844.246L851.854 58.84L847.39 58.792L854.95 47.512H862.894L852.742 61.36L852.382 57.976L862.99 73H854.854L847.078 61.624L852.118 61.384L843.67 73H835.726L846.814 58.96ZM869.702 73.72C868.598 73.72 867.662 73.336 866.894 72.568C866.126 71.8 865.742 70.864 865.742 69.76C865.742 68.672 866.126 67.744 866.894 66.976C867.662 66.208 868.598 65.824 869.702 65.824C870.79 65.824 871.718 66.208 872.486 66.976C873.254 67.744 873.638 68.672 873.638 69.76C873.638 70.864 873.254 71.8 872.486 72.568C871.718 73.336 870.79 73.72 869.702 73.72ZM869.726 55.6C868.622 55.6 867.686 55.216 866.918 54.448C866.15 53.68 865.766 52.744 865.766 51.64C865.766 50.552 866.15 49.624 866.918 48.856C867.686 48.088 868.622 47.704 869.726 47.704C870.814 47.704 871.742 48.088 872.51 48.856C873.278 49.624 873.662 50.552 873.662 51.64C873.662 52.744 873.278 53.68 872.51 54.448C871.742 55.216 870.814 55.6 869.726 55.6ZM903.613 37.552V73H896.221V44.512C896.013 44.672 895.565 44.88 894.877 45.136C894.205 45.376 893.397 45.608 892.453 45.832C891.509 46.056 890.533 46.208 889.525 46.288V40.432C890.533 40.304 891.517 40.088 892.477 39.784C893.437 39.464 894.261 39.104 894.949 38.704C895.653 38.304 896.117 37.92 896.341 37.552H903.613Z" fill="black"/>
<path d="M135.431 528.168H149.255V534H127.463V528.48L140.951 514.056L141.119 514.32H127.943V508.512H148.967V514.032L135.599 528.408L135.431 528.168ZM151.566 522.696V518.136H169.062V522.696H151.566ZM173.594 534V508.512H180.962V534H173.594ZM177.266 504.36C176.114 504.36 175.106 504.056 174.242 503.448C173.394 502.84 172.97 501.984 172.97 500.88C172.97 499.76 173.394 498.896 174.242 498.288C175.106 497.68 176.114 497.376 177.266 497.376C178.434 497.376 179.442 497.68 180.29 498.288C181.154 498.896 181.586 499.76 181.586 500.88C181.586 502 181.154 502.864 180.29 503.472C179.442 504.064 178.434 504.36 177.266 504.36ZM203.437 534V523.176C203.437 522.568 203.437 522.016 203.437 521.52C203.437 521.024 203.437 520.576 203.437 520.176C203.437 519.12 203.301 518.16 203.029 517.296C202.757 516.416 202.269 515.712 201.565 515.184C200.861 514.656 199.845 514.392 198.517 514.392C197.365 514.392 196.365 514.656 195.517 515.184C194.685 515.712 194.045 516.448 193.597 517.392C193.149 518.336 192.925 519.424 192.925 520.656L190.861 519.168C190.861 516.96 191.341 515.024 192.301 513.36C193.261 511.696 194.557 510.392 196.189 509.448C197.837 508.504 199.661 508.032 201.661 508.032C203.757 508.032 205.477 508.456 206.821 509.304C208.181 510.136 209.189 511.304 209.845 512.808C210.517 514.296 210.853 516.04 210.853 518.04C210.853 518.856 210.853 519.768 210.853 520.776C210.853 521.784 210.853 522.816 210.853 523.872V534H203.437ZM185.485 534V508.512H192.925V534H185.485ZM226.118 534.576C223.99 534.576 222.03 534.072 220.238 533.064C218.446 532.04 217.006 530.528 215.918 528.528C214.83 526.528 214.286 524.064 214.286 521.136C214.286 518.336 214.838 515.96 215.942 514.008C217.062 512.056 218.518 510.576 220.31 509.568C222.118 508.544 224.054 508.032 226.118 508.032C228.134 508.032 229.974 508.544 231.638 509.568C233.318 510.592 234.662 511.992 235.67 513.768C236.678 515.528 237.182 517.56 237.182 519.864C237.182 519.944 237.182 520.024 237.182 520.104C237.182 520.168 237.182 520.24 237.182 520.32L233.966 520.368C233.966 520.32 233.966 520.272 233.966 520.224C233.966 520.16 233.966 520.104 233.966 520.056C233.966 518.856 233.678 517.824 233.102 516.96C232.526 516.096 231.782 515.432 230.87 514.968C229.958 514.488 229.006 514.248 228.014 514.248C226.366 514.248 224.942 514.8 223.742 515.904C222.542 516.992 221.942 518.736 221.942 521.136C221.942 523.536 222.542 525.304 223.742 526.44C224.958 527.56 226.382 528.12 228.014 528.12C229.038 528.12 230.006 527.88 230.918 527.4C231.83 526.904 232.566 526.208 233.126 525.312C233.686 524.416 233.966 523.36 233.966 522.144L237.182 522.312C237.182 524.6 236.686 526.672 235.694 528.528C234.718 530.368 233.39 531.84 231.71 532.944C230.046 534.032 228.182 534.576 226.118 534.576ZM233.966 534V496.488H241.43V534H233.966ZM248.999 523.488V518.568H265.895L265.175 519.816C265.175 519.688 265.175 519.568 265.175 519.456C265.175 519.328 265.175 519.208 265.175 519.096C265.175 518.184 264.959 517.312 264.527 516.48C264.095 515.632 263.423 514.944 262.511 514.416C261.615 513.872 260.463 513.6 259.055 513.6C257.647 513.6 256.431 513.904 255.407 514.512C254.399 515.104 253.623 515.96 253.079 517.08C252.551 518.2 252.287 519.552 252.287 521.136C252.287 522.768 252.543 524.168 253.055 525.336C253.583 526.488 254.359 527.376 255.383 528C256.423 528.624 257.711 528.936 259.247 528.936C260.239 528.936 261.095 528.848 261.815 528.672C262.535 528.48 263.119 528.24 263.567 527.952C264.031 527.664 264.383 527.344 264.623 526.992C264.863 526.64 265.007 526.296 265.055 525.96H272.399C272.303 527.032 271.935 528.088 271.295 529.128C270.655 530.152 269.767 531.08 268.631 531.912C267.495 532.728 266.111 533.376 264.479 533.856C262.863 534.336 261.015 534.576 258.935 534.576C256.119 534.576 253.663 534.016 251.567 532.896C249.471 531.76 247.847 530.2 246.695 528.216C245.543 526.216 244.967 523.912 244.967 521.304C244.967 518.664 245.551 516.352 246.719 514.368C247.903 512.368 249.543 510.816 251.639 509.712C253.751 508.592 256.191 508.032 258.959 508.032C261.791 508.032 264.239 508.6 266.303 509.736C268.367 510.856 269.959 512.432 271.079 514.464C272.199 516.48 272.759 518.832 272.759 521.52C272.759 521.92 272.751 522.304 272.735 522.672C272.719 523.04 272.695 523.312 272.663 523.488H248.999ZM283.377 519.96L283.305 523.296L272.721 508.512H280.809L288.417 519.84L283.953 519.792L291.513 508.512H299.457L289.305 522.36L288.945 518.976L299.553 534H291.417L283.641 522.624L288.681 522.384L280.233 534H272.289L283.377 519.96ZM306.264 534.72C305.16 534.72 304.224 534.336 303.456 533.568C302.688 532.8 302.304 531.864 302.304 530.76C302.304 529.672 302.688 528.744 303.456 527.976C304.224 527.208 305.16 526.824 306.264 526.824C307.352 526.824 308.28 527.208 309.048 527.976C309.816 528.744 310.2 529.672 310.2 530.76C310.2 531.864 309.816 532.8 309.048 533.568C308.28 534.336 307.352 534.72 306.264 534.72ZM306.288 516.6C305.184 516.6 304.248 516.216 303.48 515.448C302.712 514.68 302.328 513.744 302.328 512.64C302.328 511.552 302.712 510.624 303.48 509.856C304.248 509.088 305.184 508.704 306.288 508.704C307.376 508.704 308.304 509.088 309.072 509.856C309.84 510.624 310.224 511.552 310.224 512.64C310.224 513.744 309.84 514.68 309.072 515.448C308.304 516.216 307.376 516.6 306.288 516.6ZM325.512 534V527.904C325.656 527.552 326.08 527.032 326.784 526.344C327.488 525.64 328.344 524.848 329.352 523.968C330.36 523.088 331.416 522.192 332.52 521.28C333.64 520.352 334.672 519.496 335.616 518.712C336.736 517.784 337.824 516.824 338.88 515.832C339.936 514.824 340.808 513.76 341.496 512.64C342.2 511.504 342.552 510.312 342.552 509.064C342.552 507.496 342.176 506.24 341.424 505.296C340.688 504.352 339.512 503.88 337.896 503.88C336.6 503.88 335.568 504.168 334.8 504.744C334.048 505.304 333.512 506.096 333.192 507.12C332.872 508.128 332.712 509.312 332.712 510.672H325.272C325.272 508.08 325.76 505.84 326.736 503.952C327.728 502.064 329.168 500.616 331.056 499.608C332.96 498.584 335.28 498.072 338.016 498.072C340.672 498.072 342.888 498.56 344.664 499.536C346.456 500.512 347.8 501.832 348.696 503.496C349.592 505.16 350.04 507.04 350.04 509.136C350.04 510.544 349.768 511.864 349.224 513.096C348.696 514.312 348 515.44 347.136 516.48C346.288 517.52 345.376 518.472 344.4 519.336C343.424 520.184 342.504 520.952 341.64 521.64C340.184 522.792 338.92 523.808 337.848 524.688C336.776 525.568 335.92 526.312 335.28 526.92C334.656 527.528 334.272 527.992 334.128 528.312H349.824V534H325.512Z" fill="black"/>
<path d="M702.803 277.576H712.323V281H698.259V277.752L707.587 267.288L707.667 267.432H698.611V264.008H712.147V267.256L702.883 277.688L702.803 277.576ZM714.655 273.24V270.632H726.127V273.24H714.655ZM730.313 281V264.008H734.473V281H730.313ZM732.409 260.872C731.727 260.872 731.129 260.691 730.617 260.328C730.116 259.955 729.865 259.437 729.865 258.776C729.865 258.125 730.116 257.619 730.617 257.256C731.129 256.893 731.727 256.712 732.409 256.712C733.081 256.712 733.668 256.893 734.169 257.256C734.671 257.619 734.921 258.125 734.921 258.776C734.921 259.437 734.671 259.955 734.169 260.328C733.668 260.691 733.081 260.872 732.409 260.872ZM750.659 281V273.464C750.659 273.037 750.659 272.664 750.659 272.344C750.659 272.013 750.659 271.715 750.659 271.448C750.659 270.68 750.547 269.992 750.323 269.384C750.11 268.765 749.737 268.28 749.203 267.928C748.681 267.576 747.955 267.4 747.027 267.4C746.217 267.4 745.497 267.597 744.867 267.992C744.238 268.376 743.742 268.909 743.379 269.592C743.027 270.264 742.851 271.043 742.851 271.928L741.427 271.048C741.427 269.629 741.747 268.371 742.387 267.272C743.038 266.163 743.907 265.293 744.995 264.664C746.083 264.035 747.289 263.72 748.611 263.72C749.977 263.72 751.123 263.987 752.051 264.52C752.99 265.053 753.694 265.811 754.163 266.792C754.643 267.773 754.883 268.925 754.883 270.248C754.883 270.76 754.883 271.336 754.883 271.976C754.883 272.616 754.883 273.245 754.883 273.864V281H750.659ZM738.643 281V264.008H742.851V281H738.643ZM765.981 281.352C764.583 281.352 763.287 281.016 762.093 280.344C760.909 279.661 759.959 278.659 759.245 277.336C758.53 276.013 758.173 274.387 758.173 272.456C758.173 270.579 758.535 268.989 759.261 267.688C759.997 266.387 760.957 265.4 762.141 264.728C763.335 264.056 764.615 263.72 765.981 263.72C767.314 263.72 768.546 264.051 769.677 264.712C770.807 265.363 771.714 266.269 772.397 267.432C773.079 268.595 773.421 269.928 773.421 271.432C773.421 271.475 773.421 271.517 773.421 271.56C773.421 271.603 773.421 271.645 773.421 271.688L771.341 271.736C771.341 271.704 771.341 271.672 771.341 271.64C771.341 271.597 771.341 271.56 771.341 271.528C771.341 270.685 771.127 269.949 770.701 269.32C770.285 268.691 769.741 268.2 769.069 267.848C768.407 267.485 767.703 267.304 766.957 267.304C765.73 267.304 764.685 267.72 763.821 268.552C762.957 269.373 762.525 270.675 762.525 272.456C762.525 274.227 762.957 275.533 763.821 276.376C764.685 277.219 765.73 277.64 766.957 277.64C767.735 277.64 768.455 277.453 769.117 277.08C769.778 276.707 770.311 276.195 770.717 275.544C771.133 274.883 771.341 274.125 771.341 273.272L773.421 273.368C773.421 274.861 773.085 276.216 772.413 277.432C771.751 278.637 770.861 279.592 769.741 280.296C768.621 281 767.367 281.352 765.981 281.352ZM771.341 281V255.992H775.565V281H771.341ZM781.274 273.864V270.872H793.162L792.682 271.672C792.682 271.608 792.682 271.539 792.682 271.464C792.682 271.379 792.682 271.309 792.682 271.256C792.682 270.52 792.516 269.832 792.186 269.192C791.855 268.541 791.354 268.019 790.682 267.624C790.01 267.219 789.156 267.016 788.122 267.016C787.098 267.016 786.207 267.235 785.45 267.672C784.703 268.099 784.122 268.717 783.706 269.528C783.3 270.339 783.098 271.309 783.098 272.44C783.098 273.603 783.295 274.605 783.69 275.448C784.084 276.28 784.66 276.92 785.418 277.368C786.186 277.805 787.119 278.024 788.218 278.024C788.964 278.024 789.61 277.955 790.154 277.816C790.698 277.677 791.14 277.491 791.482 277.256C791.834 277.011 792.095 276.749 792.266 276.472C792.447 276.195 792.554 275.917 792.586 275.64H796.778C796.714 276.355 796.474 277.053 796.058 277.736C795.652 278.408 795.082 279.021 794.346 279.576C793.61 280.12 792.714 280.557 791.658 280.888C790.612 281.208 789.418 281.368 788.074 281.368C786.25 281.368 784.655 280.995 783.29 280.248C781.924 279.501 780.858 278.461 780.09 277.128C779.332 275.795 778.954 274.269 778.954 272.552C778.954 270.792 779.338 269.251 780.106 267.928C780.884 266.605 781.962 265.576 783.338 264.84C784.714 264.093 786.292 263.72 788.074 263.72C789.908 263.72 791.492 264.093 792.826 264.84C794.17 265.587 795.204 266.627 795.93 267.96C796.655 269.283 797.018 270.824 797.018 272.584C797.018 272.808 797.012 273.048 797.002 273.304C796.991 273.56 796.975 273.747 796.954 273.864H781.274ZM804.962 271.736L804.93 273.656L798.002 264.008H802.61L807.826 271.576L805.298 271.56L810.418 264.008H814.93L808.29 273.112L808.178 271.352L815.026 281H810.418L805.122 273.448L807.97 273.192L802.258 281H797.746L804.962 271.736ZM820.105 281.448C819.444 281.448 818.884 281.219 818.425 280.76C817.966 280.301 817.737 279.741 817.737 279.08C817.737 278.429 817.966 277.875 818.425 277.416C818.884 276.947 819.444 276.712 820.105 276.712C820.756 276.712 821.31 276.947 821.769 277.416C822.238 277.875 822.473 278.429 822.473 279.08C822.473 279.741 822.238 280.301 821.769 280.76C821.31 281.219 820.756 281.448 820.105 281.448ZM820.121 269.096C819.46 269.096 818.9 268.867 818.441 268.408C817.982 267.949 817.753 267.389 817.753 266.728C817.753 266.077 817.982 265.523 818.441 265.064C818.9 264.595 819.46 264.36 820.121 264.36C820.772 264.36 821.326 264.595 821.785 265.064C822.254 265.523 822.489 266.077 822.489 266.728C822.489 267.389 822.254 267.949 821.785 268.408C821.326 268.867 820.772 269.096 820.121 269.096ZM841.874 281.368C840.519 281.368 839.41 281.139 838.546 280.68C837.682 280.211 837.004 279.629 836.514 278.936C836.034 278.243 835.698 277.533 835.506 276.808C835.314 276.083 835.218 275.453 835.218 274.92C835.218 274.899 835.218 274.883 835.218 274.872C835.218 274.861 835.218 274.845 835.218 274.824H839.154C839.154 274.845 839.154 274.861 839.154 274.872C839.154 274.883 839.154 274.899 839.154 274.92C839.154 275.229 839.191 275.565 839.266 275.928C839.34 276.28 839.474 276.616 839.666 276.936C839.868 277.245 840.151 277.501 840.514 277.704C840.876 277.896 841.335 277.992 841.89 277.992C842.69 277.992 843.367 277.656 843.922 276.984C844.487 276.301 844.919 275.219 845.218 273.736C845.527 272.253 845.682 270.307 845.682 267.896L846.722 267.88C846.7 268.701 846.45 269.464 845.97 270.168C845.49 270.861 844.823 271.421 843.97 271.848C843.116 272.264 842.108 272.472 840.946 272.472C839.527 272.472 838.332 272.147 837.362 271.496C836.391 270.835 835.655 269.949 835.154 268.84C834.663 267.731 834.418 266.493 834.418 265.128C834.418 263.571 834.706 262.189 835.282 260.984C835.858 259.768 836.716 258.813 837.858 258.12C839.01 257.427 840.428 257.08 842.114 257.08C843.884 257.08 845.335 257.533 846.466 258.44C847.607 259.336 848.444 260.605 848.978 262.248C849.522 263.891 849.794 265.827 849.794 268.056C849.794 270.307 849.612 272.264 849.25 273.928C848.887 275.592 848.359 276.979 847.666 278.088C846.983 279.187 846.151 280.008 845.17 280.552C844.199 281.096 843.1 281.368 841.874 281.368ZM841.858 269.304C842.562 269.304 843.186 269.139 843.73 268.808C844.274 268.477 844.695 268.003 844.994 267.384C845.303 266.755 845.458 266.008 845.458 265.144C845.458 264.237 845.319 263.432 845.042 262.728C844.764 262.013 844.37 261.453 843.858 261.048C843.356 260.643 842.759 260.44 842.066 260.44C841.319 260.44 840.69 260.611 840.178 260.952C839.676 261.293 839.298 261.795 839.042 262.456C838.786 263.107 838.658 263.907 838.658 264.856C838.658 265.752 838.78 266.536 839.026 267.208C839.282 267.869 839.65 268.387 840.13 268.76C840.61 269.123 841.186 269.304 841.858 269.304ZM860.968 281.368C859.613 281.368 858.504 281.139 857.64 280.68C856.776 280.211 856.098 279.629 855.608 278.936C855.128 278.243 854.792 277.533 854.6 276.808C854.408 276.083 854.312 275.453 854.312 274.92C854.312 274.899 854.312 274.883 854.312 274.872C854.312 274.861 854.312 274.845 854.312 274.824H858.248C858.248 274.845 858.248 274.861 858.248 274.872C858.248 274.883 858.248 274.899 858.248 274.92C858.248 275.229 858.285 275.565 858.36 275.928C858.434 276.28 858.568 276.616 858.76 276.936C858.962 277.245 859.245 277.501 859.608 277.704C859.97 277.896 860.429 277.992 860.984 277.992C861.784 277.992 862.461 277.656 863.016 276.984C863.581 276.301 864.013 275.219 864.312 273.736C864.621 272.253 864.776 270.307 864.776 267.896L865.816 267.88C865.794 268.701 865.544 269.464 865.064 270.168C864.584 270.861 863.917 271.421 863.064 271.848C862.21 272.264 861.202 272.472 860.04 272.472C858.621 272.472 857.426 272.147 856.456 271.496C855.485 270.835 854.749 269.949 854.248 268.84C853.757 267.731 853.512 266.493 853.512 265.128C853.512 263.571 853.8 262.189 854.376 260.984C854.952 259.768 855.81 258.813 856.952 258.12C858.104 257.427 859.522 257.08 861.208 257.08C862.978 257.08 864.429 257.533 865.56 258.44C866.701 259.336 867.538 260.605 868.072 262.248C868.616 263.891 868.888 265.827 868.888 268.056C868.888 270.307 868.706 272.264 868.344 273.928C867.981 275.592 867.453 276.979 866.76 278.088C866.077 279.187 865.245 280.008 864.264 280.552C863.293 281.096 862.194 281.368 860.968 281.368ZM860.952 269.304C861.656 269.304 862.28 269.139 862.824 268.808C863.368 268.477 863.789 268.003 864.088 267.384C864.397 266.755 864.552 266.008 864.552 265.144C864.552 264.237 864.413 263.432 864.136 262.728C863.858 262.013 863.464 261.453 862.952 261.048C862.45 260.643 861.853 260.44 861.16 260.44C860.413 260.44 859.784 260.611 859.272 260.952C858.77 261.293 858.392 261.795 858.136 262.456C857.88 263.107 857.752 263.907 857.752 264.856C857.752 265.752 857.874 266.536 858.12 267.208C858.376 267.869 858.744 268.387 859.224 268.76C859.704 269.123 860.28 269.304 860.952 269.304Z" fill="black"/>
</g>
<defs>
<clipPath id="clip0_704_2012">
<rect width="941" height="677" fill="white"/>
</clipPath>
</defs>
</svg>
