<svg width="1284" height="1460" viewBox="0 0 1284 1460" fill="none" xmlns="http://www.w3.org/2000/svg">
<rect x="849" y="592" width="332" height="96" rx="48" fill="#D6E4FF"/>
<path d="M916.545 650.12L903.425 642.18V638.58L916.545 630.62V635.04L905.525 640.96V639.8L916.545 645.68V650.12ZM924.742 651V621.5H930.022V649.42L927.642 646.64H941.202V651H924.742ZM944.927 651V629.76H950.127V651H944.927ZM947.547 625.84C946.693 625.84 945.947 625.613 945.307 625.16C944.68 624.693 944.367 624.047 944.367 623.22C944.367 622.407 944.68 621.773 945.307 621.32C945.947 620.867 946.693 620.64 947.547 620.64C948.387 620.64 949.12 620.867 949.747 621.32C950.373 621.773 950.687 622.407 950.687 623.22C950.687 624.047 950.373 624.693 949.747 625.16C949.12 625.613 948.387 625.84 947.547 625.84ZM963.519 651.44C962.253 651.44 961.046 651.3 959.899 651.02C958.766 650.74 957.753 650.32 956.859 649.76C955.979 649.2 955.279 648.507 954.759 647.68C954.253 646.84 953.999 645.873 953.999 644.78C953.999 644.7 953.999 644.62 953.999 644.54C953.999 644.46 953.999 644.387 953.999 644.32H959.239C959.239 644.387 959.239 644.447 959.239 644.5C959.239 644.54 959.239 644.6 959.239 644.68C959.239 645.547 959.633 646.2 960.419 646.64C961.219 647.067 962.306 647.28 963.679 647.28C964.426 647.28 965.126 647.2 965.779 647.04C966.446 646.88 966.979 646.633 967.379 646.3C967.793 645.967 967.999 645.54 967.999 645.02C967.999 644.18 967.566 643.58 966.699 643.22C965.846 642.86 964.499 642.533 962.659 642.24C961.646 642.067 960.646 641.833 959.659 641.54C958.673 641.247 957.773 640.853 956.959 640.36C956.159 639.867 955.513 639.253 955.019 638.52C954.539 637.787 954.299 636.893 954.299 635.84C954.299 634.44 954.713 633.267 955.539 632.32C956.379 631.36 957.499 630.633 958.899 630.14C960.313 629.647 961.866 629.4 963.559 629.4C965.186 629.4 966.699 629.667 968.099 630.2C969.499 630.733 970.626 631.5 971.479 632.5C972.346 633.5 972.779 634.707 972.779 636.12C972.779 636.173 972.779 636.233 972.779 636.3C972.779 636.353 972.779 636.4 972.779 636.44H967.579C967.579 636.4 967.579 636.36 967.579 636.32C967.579 636.28 967.579 636.233 967.579 636.18C967.579 635.567 967.386 635.067 966.999 634.68C966.613 634.293 966.113 634.007 965.499 633.82C964.886 633.633 964.239 633.54 963.559 633.54C962.959 633.54 962.339 633.607 961.699 633.74C961.059 633.86 960.526 634.08 960.099 634.4C959.673 634.707 959.459 635.14 959.459 635.7C959.459 636.233 959.679 636.667 960.119 637C960.559 637.333 961.173 637.613 961.959 637.84C962.746 638.053 963.653 638.247 964.679 638.42C965.653 638.58 966.633 638.8 967.619 639.08C968.619 639.36 969.533 639.733 970.359 640.2C971.186 640.667 971.853 641.28 972.359 642.04C972.879 642.787 973.139 643.713 973.139 644.82C973.139 645.993 972.873 646.993 972.339 647.82C971.806 648.647 971.079 649.333 970.159 649.88C969.253 650.413 968.226 650.807 967.079 651.06C965.933 651.313 964.746 651.44 963.519 651.44ZM986.604 651.4C985.844 651.4 985.071 651.327 984.284 651.18C983.497 651.033 982.777 650.76 982.124 650.36C981.471 649.96 980.944 649.373 980.544 648.6C980.144 647.827 979.944 646.807 979.944 645.54C979.944 645.247 979.944 644.953 979.944 644.66C979.944 644.353 979.944 644.04 979.944 643.72V633.96H974.924V629.76H976.964C977.657 629.76 978.204 629.733 978.604 629.68C979.004 629.613 979.297 629.467 979.484 629.24C979.671 629.013 979.791 628.66 979.844 628.18C979.911 627.687 979.944 627.007 979.944 626.14V622.76H985.224V629.76H991.544V633.96H985.224V642.48C985.224 642.733 985.224 642.987 985.224 643.24C985.224 643.48 985.224 643.713 985.224 643.94C985.224 644.927 985.344 645.72 985.584 646.32C985.824 646.92 986.391 647.22 987.284 647.22C987.711 647.22 988.111 647.18 988.484 647.1C988.871 647.02 989.157 646.94 989.344 646.86V650.98C989.091 651.073 988.724 651.167 988.244 651.26C987.764 651.353 987.217 651.4 986.604 651.4ZM1018.36 640.38C1018.36 641.633 1018.12 642.907 1017.66 644.2C1017.19 645.493 1016.48 646.693 1015.52 647.8C1014.57 648.893 1013.37 649.773 1011.92 650.44C1010.46 651.107 1008.76 651.44 1006.8 651.44C1004.14 651.44 1001.88 650.793 999.996 649.5C998.129 648.193 996.702 646.4 995.716 644.12C994.742 641.84 994.256 639.22 994.256 636.26C994.256 633.287 994.742 630.66 995.716 628.38C996.702 626.1 998.129 624.313 999.996 623.02C1001.88 621.727 1004.14 621.08 1006.8 621.08C1009 621.08 1010.88 621.5 1012.44 622.34C1014 623.18 1015.24 624.26 1016.18 625.58C1017.11 626.9 1017.74 628.28 1018.06 629.72C1018.26 630.56 1018.36 631.36 1018.36 632.12H1013.06C1013.06 631.733 1013.03 631.333 1012.98 630.92C1012.83 629.907 1012.49 628.987 1011.96 628.16C1011.44 627.32 1010.74 626.66 1009.88 626.18C1009.01 625.687 1007.98 625.44 1006.8 625.44C1005.38 625.44 1004.14 625.833 1003.06 626.62C1001.99 627.407 1001.15 628.6 1000.54 630.2C999.922 631.8 999.616 633.82 999.616 636.26C999.616 638.673 999.922 640.687 1000.54 642.3C1001.15 643.913 1001.99 645.12 1003.06 645.92C1004.14 646.72 1005.38 647.12 1006.8 647.12C1007.81 647.12 1008.7 646.933 1009.48 646.56C1010.25 646.187 1010.9 645.687 1011.44 645.06C1011.97 644.42 1012.37 643.7 1012.64 642.9C1012.92 642.1 1013.06 641.26 1013.06 640.38H1018.36ZM1032.81 651.42C1030.57 651.42 1028.6 650.953 1026.89 650.02C1025.19 649.073 1023.85 647.767 1022.87 646.1C1021.91 644.433 1021.43 642.527 1021.43 640.38C1021.43 638.22 1021.91 636.32 1022.87 634.68C1023.85 633.027 1025.19 631.733 1026.89 630.8C1028.6 629.867 1030.57 629.4 1032.81 629.4C1035.05 629.4 1037.03 629.867 1038.73 630.8C1040.44 631.733 1041.77 633.027 1042.73 634.68C1043.71 636.32 1044.19 638.22 1044.19 640.38C1044.19 642.527 1043.71 644.433 1042.73 646.1C1041.77 647.767 1040.44 649.073 1038.73 650.02C1037.03 650.953 1035.05 651.42 1032.81 651.42ZM1032.81 647.12C1034.03 647.12 1035.09 646.84 1035.99 646.28C1036.9 645.72 1037.61 644.94 1038.11 643.94C1038.62 642.927 1038.87 641.74 1038.87 640.38C1038.87 639.02 1038.62 637.847 1038.11 636.86C1037.61 635.86 1036.9 635.087 1035.99 634.54C1035.09 633.993 1034.03 633.72 1032.81 633.72C1031.61 633.72 1030.55 633.993 1029.63 634.54C1028.73 635.087 1028.02 635.86 1027.51 636.86C1027.01 637.847 1026.75 639.02 1026.75 640.38C1026.75 641.74 1027.01 642.927 1027.51 643.94C1028.02 644.94 1028.73 645.72 1029.63 646.28C1030.55 646.84 1031.61 647.12 1032.81 647.12ZM1061.34 651V642.38C1061.34 641.593 1061.34 640.907 1061.34 640.32C1061.34 639.72 1061.34 639.22 1061.34 638.82C1061.34 638.3 1061.31 637.76 1061.24 637.2C1061.18 636.627 1061.03 636.1 1060.8 635.62C1060.58 635.14 1060.22 634.753 1059.74 634.46C1059.28 634.153 1058.63 634 1057.8 634C1057 634 1056.32 634.167 1055.76 634.5C1055.22 634.82 1054.76 635.253 1054.4 635.8C1054.06 636.333 1053.8 636.947 1053.64 637.64C1053.48 638.32 1053.4 639.02 1053.4 639.74L1051.64 638.56C1051.64 636.813 1051.97 635.253 1052.62 633.88C1053.28 632.507 1054.2 631.42 1055.4 630.62C1056.62 629.807 1058.05 629.4 1059.7 629.4C1061.41 629.4 1062.76 629.76 1063.76 630.48C1064.76 631.187 1065.48 632.147 1065.9 633.36C1066.34 634.573 1066.56 635.933 1066.56 637.44C1066.56 638 1066.56 638.747 1066.56 639.68C1066.56 640.6 1066.56 641.687 1066.56 642.94V651H1061.34ZM1048.14 651V629.76H1053.4V651H1048.14ZM1074.46 651V642.4C1074.46 641.56 1074.46 640.847 1074.46 640.26C1074.46 639.673 1074.46 639.18 1074.46 638.78C1074.46 638.22 1074.43 637.66 1074.36 637.1C1074.3 636.527 1074.15 636.013 1073.92 635.56C1073.7 635.093 1073.34 634.72 1072.86 634.44C1072.38 634.147 1071.73 634 1070.9 634C1070.09 634 1069.4 634.16 1068.84 634.48C1068.3 634.8 1067.86 635.227 1067.52 635.76C1067.19 636.293 1066.94 636.893 1066.78 637.56C1066.64 638.227 1066.56 638.893 1066.56 639.56L1064.8 638.4C1064.8 636.707 1065.12 635.18 1065.76 633.82C1066.4 632.46 1067.32 631.387 1068.52 630.6C1069.72 629.8 1071.15 629.4 1072.8 629.4C1074.47 629.4 1075.81 629.74 1076.82 630.42C1077.84 631.1 1078.57 632.033 1079.02 633.22C1079.49 634.393 1079.72 635.733 1079.72 637.24C1079.72 637.827 1079.72 638.573 1079.72 639.48C1079.72 640.387 1079.72 641.46 1079.72 642.7V651H1074.46ZM1084.38 659.74V629.76H1089.64V659.74H1084.38ZM1096.34 651.44C1094.69 651.44 1093.16 651.013 1091.74 650.16C1090.34 649.293 1089.21 648.113 1088.34 646.62C1087.49 645.127 1087.06 643.447 1087.06 641.58C1087.06 641.527 1087.06 641.48 1087.06 641.44C1087.06 641.387 1087.06 641.34 1087.06 641.3L1089.66 641.24C1089.66 641.267 1089.66 641.3 1089.66 641.34C1089.66 641.38 1089.66 641.413 1089.66 641.44C1089.66 642.48 1089.92 643.407 1090.44 644.22C1090.96 645.02 1091.64 645.653 1092.46 646.12C1093.3 646.573 1094.2 646.8 1095.14 646.8C1096.68 646.8 1097.98 646.273 1099.06 645.22C1100.14 644.167 1100.68 642.533 1100.68 640.32C1100.68 638.093 1100.14 636.467 1099.06 635.44C1098 634.4 1096.69 633.88 1095.14 633.88C1094.21 633.88 1093.32 634.107 1092.48 634.56C1091.66 635 1090.98 635.613 1090.44 636.4C1089.92 637.187 1089.66 638.107 1089.66 639.16L1087.06 639.04C1087.06 637.16 1087.49 635.493 1088.34 634.04C1089.21 632.587 1090.34 631.453 1091.74 630.64C1093.16 629.813 1094.69 629.4 1096.34 629.4C1098.06 629.4 1099.66 629.82 1101.14 630.66C1102.64 631.5 1103.84 632.733 1104.74 634.36C1105.66 635.987 1106.12 637.973 1106.12 640.32C1106.12 642.733 1105.68 644.767 1104.78 646.42C1103.89 648.073 1102.7 649.327 1101.22 650.18C1099.74 651.02 1098.12 651.44 1096.34 651.44ZM1113.44 630.62L1126.54 638.58V642.18L1113.44 650.12V645.68L1124.46 639.8V640.96L1113.44 635.04V630.62Z" fill="#0F2CBD"/>
<rect x="849" y="592" width="332" height="96" rx="48" stroke="#0F2CBD" stroke-width="6"/>
<rect x="64" y="416" width="410" height="96" rx="48" fill="#FFF5CB"/>
<path d="M117.72 449.7L120.1 447.08V459.68L118.86 458.1H129.9V462.3H118.86L120.1 460.74V473.42L117.72 470.8H132.12V475H114.8V445.5H132.12V449.7H117.72ZM150.121 475V466.38C150.121 465.593 150.121 464.907 150.121 464.32C150.121 463.72 150.121 463.22 150.121 462.82C150.121 462.3 150.088 461.76 150.021 461.2C149.955 460.627 149.808 460.1 149.581 459.62C149.355 459.14 149.001 458.753 148.521 458.46C148.055 458.153 147.408 458 146.581 458C145.781 458 145.101 458.167 144.541 458.5C143.995 458.82 143.541 459.253 143.181 459.8C142.835 460.333 142.581 460.947 142.421 461.64C142.261 462.32 142.181 463.02 142.181 463.74L140.421 462.56C140.421 460.813 140.748 459.253 141.401 457.88C142.055 456.507 142.981 455.42 144.181 454.62C145.395 453.807 146.828 453.4 148.481 453.4C150.188 453.4 151.541 453.76 152.541 454.48C153.541 455.187 154.255 456.147 154.681 457.36C155.121 458.573 155.341 459.933 155.341 461.44C155.341 462 155.341 462.747 155.341 463.68C155.341 464.6 155.341 465.687 155.341 466.94V475H150.121ZM136.921 475V453.76H142.181V475H136.921ZM163.241 475V466.4C163.241 465.56 163.241 464.847 163.241 464.26C163.241 463.673 163.241 463.18 163.241 462.78C163.241 462.22 163.208 461.66 163.141 461.1C163.075 460.527 162.928 460.013 162.701 459.56C162.475 459.093 162.121 458.72 161.641 458.44C161.161 458.147 160.508 458 159.681 458C158.868 458 158.181 458.16 157.621 458.48C157.075 458.8 156.635 459.227 156.301 459.76C155.968 460.293 155.721 460.893 155.561 461.56C155.415 462.227 155.341 462.893 155.341 463.56L153.581 462.4C153.581 460.707 153.901 459.18 154.541 457.82C155.181 456.46 156.101 455.387 157.301 454.6C158.501 453.8 159.928 453.4 161.581 453.4C163.248 453.4 164.588 453.74 165.601 454.42C166.615 455.1 167.348 456.033 167.801 457.22C168.268 458.393 168.501 459.733 168.501 461.24C168.501 461.827 168.501 462.573 168.501 463.48C168.501 464.387 168.501 465.46 168.501 466.7V475H163.241ZM185.122 475.44C183.469 475.44 181.935 475.013 180.522 474.16C179.122 473.293 177.989 472.113 177.122 470.62C176.269 469.127 175.842 467.447 175.842 465.58C175.842 465.527 175.842 465.48 175.842 465.44C175.842 465.387 175.842 465.34 175.842 465.3L178.442 465.24C178.442 465.267 178.442 465.3 178.442 465.34C178.442 465.38 178.442 465.413 178.442 465.44C178.442 466.48 178.702 467.407 179.222 468.22C179.742 469.02 180.415 469.653 181.242 470.12C182.082 470.573 182.975 470.8 183.922 470.8C185.455 470.8 186.762 470.273 187.842 469.22C188.922 468.167 189.462 466.533 189.462 464.32C189.462 462.093 188.922 460.467 187.842 459.44C186.775 458.4 185.469 457.88 183.922 457.88C182.989 457.88 182.102 458.107 181.262 458.56C180.435 459 179.755 459.613 179.222 460.4C178.702 461.187 178.442 462.107 178.442 463.16L175.842 463.04C175.842 461.16 176.269 459.493 177.122 458.04C177.989 456.587 179.122 455.453 180.522 454.64C181.935 453.813 183.469 453.4 185.122 453.4C186.842 453.4 188.442 453.827 189.922 454.68C191.415 455.52 192.615 456.753 193.522 458.38C194.442 459.993 194.902 461.973 194.902 464.32C194.902 466.733 194.455 468.767 193.562 470.42C192.669 472.073 191.482 473.327 190.002 474.18C188.522 475.02 186.895 475.44 185.122 475.44ZM173.162 475V443.74H178.442V475H173.162ZM200.816 466.08V462.34H215.676L215.076 463.34C215.076 463.26 215.076 463.173 215.076 463.08C215.076 462.973 215.076 462.887 215.076 462.82C215.076 461.9 214.869 461.04 214.456 460.24C214.042 459.427 213.416 458.773 212.576 458.28C211.736 457.773 210.669 457.52 209.376 457.52C208.096 457.52 206.982 457.793 206.036 458.34C205.102 458.873 204.376 459.647 203.856 460.66C203.349 461.673 203.096 462.887 203.096 464.3C203.096 465.753 203.342 467.007 203.836 468.06C204.329 469.1 205.049 469.9 205.996 470.46C206.956 471.007 208.122 471.28 209.496 471.28C210.429 471.28 211.236 471.193 211.916 471.02C212.596 470.847 213.149 470.613 213.576 470.32C214.016 470.013 214.342 469.687 214.556 469.34C214.782 468.993 214.916 468.647 214.956 468.3H220.196C220.116 469.193 219.816 470.067 219.296 470.92C218.789 471.76 218.076 472.527 217.156 473.22C216.236 473.9 215.116 474.447 213.796 474.86C212.489 475.26 210.996 475.46 209.316 475.46C207.036 475.46 205.042 474.993 203.336 474.06C201.629 473.127 200.296 471.827 199.336 470.16C198.389 468.493 197.916 466.587 197.916 464.44C197.916 462.24 198.396 460.313 199.356 458.66C200.329 457.007 201.676 455.72 203.396 454.8C205.116 453.867 207.089 453.4 209.316 453.4C211.609 453.4 213.589 453.867 215.256 454.8C216.936 455.733 218.229 457.033 219.136 458.7C220.042 460.353 220.496 462.28 220.496 464.48C220.496 464.76 220.489 465.06 220.476 465.38C220.462 465.7 220.442 465.933 220.416 466.08H200.816ZM233.252 475.44C231.506 475.44 229.886 475.02 228.392 474.18C226.912 473.327 225.726 472.073 224.832 470.42C223.939 468.767 223.492 466.733 223.492 464.32C223.492 461.973 223.946 459.987 224.852 458.36C225.772 456.733 226.972 455.5 228.452 454.66C229.946 453.82 231.546 453.4 233.252 453.4C234.919 453.4 236.459 453.813 237.872 454.64C239.286 455.453 240.419 456.587 241.272 458.04C242.126 459.493 242.552 461.16 242.552 463.04C242.552 463.093 242.552 463.147 242.552 463.2C242.552 463.253 242.552 463.307 242.552 463.36L239.952 463.42C239.952 463.38 239.952 463.34 239.952 463.3C239.952 463.247 239.952 463.2 239.952 463.16C239.952 462.107 239.686 461.187 239.152 460.4C238.632 459.613 237.952 459 237.112 458.56C236.286 458.107 235.406 457.88 234.472 457.88C232.939 457.88 231.632 458.4 230.552 459.44C229.472 460.467 228.932 462.093 228.932 464.32C228.932 466.533 229.472 468.167 230.552 469.22C231.632 470.273 232.939 470.8 234.472 470.8C235.446 470.8 236.346 470.567 237.172 470.1C237.999 469.633 238.666 468.993 239.172 468.18C239.692 467.353 239.952 466.407 239.952 465.34L242.552 465.46C242.552 467.327 242.132 469.02 241.292 470.54C240.466 472.047 239.352 473.24 237.952 474.12C236.552 475 234.986 475.44 233.252 475.44ZM239.952 475V443.74H245.232V475H239.952ZM258.829 475.44C257.082 475.44 255.462 475.02 253.969 474.18C252.489 473.327 251.302 472.073 250.409 470.42C249.515 468.767 249.069 466.733 249.069 464.32C249.069 461.973 249.522 459.987 250.429 458.36C251.349 456.733 252.549 455.5 254.029 454.66C255.522 453.82 257.122 453.4 258.829 453.4C260.495 453.4 262.035 453.813 263.449 454.64C264.862 455.453 265.995 456.587 266.849 458.04C267.702 459.493 268.129 461.16 268.129 463.04C268.129 463.093 268.129 463.147 268.129 463.2C268.129 463.253 268.129 463.307 268.129 463.36L265.529 463.42C265.529 463.38 265.529 463.34 265.529 463.3C265.529 463.247 265.529 463.2 265.529 463.16C265.529 462.107 265.262 461.187 264.729 460.4C264.209 459.613 263.529 459 262.689 458.56C261.862 458.107 260.982 457.88 260.049 457.88C258.515 457.88 257.209 458.4 256.129 459.44C255.049 460.467 254.509 462.093 254.509 464.32C254.509 466.533 255.049 468.167 256.129 469.22C257.209 470.273 258.515 470.8 260.049 470.8C261.022 470.8 261.922 470.567 262.749 470.1C263.575 469.633 264.242 468.993 264.749 468.18C265.269 467.353 265.529 466.407 265.529 465.34L268.129 465.46C268.129 467.327 267.709 469.02 266.869 470.54C266.042 472.047 264.929 473.24 263.529 474.12C262.129 475 260.562 475.44 258.829 475.44ZM265.529 475V443.74H270.809V475H265.529ZM277.545 466.08V462.34H292.405L291.805 463.34C291.805 463.26 291.805 463.173 291.805 463.08C291.805 462.973 291.805 462.887 291.805 462.82C291.805 461.9 291.599 461.04 291.185 460.24C290.772 459.427 290.145 458.773 289.305 458.28C288.465 457.773 287.399 457.52 286.105 457.52C284.825 457.52 283.712 457.793 282.765 458.34C281.832 458.873 281.105 459.647 280.585 460.66C280.079 461.673 279.825 462.887 279.825 464.3C279.825 465.753 280.072 467.007 280.565 468.06C281.059 469.1 281.779 469.9 282.725 470.46C283.685 471.007 284.852 471.28 286.225 471.28C287.159 471.28 287.965 471.193 288.645 471.02C289.325 470.847 289.879 470.613 290.305 470.32C290.745 470.013 291.072 469.687 291.285 469.34C291.512 468.993 291.645 468.647 291.685 468.3H296.925C296.845 469.193 296.545 470.067 296.025 470.92C295.519 471.76 294.805 472.527 293.885 473.22C292.965 473.9 291.845 474.447 290.525 474.86C289.219 475.26 287.725 475.46 286.045 475.46C283.765 475.46 281.772 474.993 280.065 474.06C278.359 473.127 277.025 471.827 276.065 470.16C275.119 468.493 274.645 466.587 274.645 464.44C274.645 462.24 275.125 460.313 276.085 458.66C277.059 457.007 278.405 455.72 280.125 454.8C281.845 453.867 283.819 453.4 286.045 453.4C288.339 453.4 290.319 453.867 291.985 454.8C293.665 455.733 294.959 457.033 295.865 458.7C296.772 460.353 297.225 462.28 297.225 464.48C297.225 464.76 297.219 465.06 297.205 465.38C297.192 465.7 297.172 465.933 297.145 466.08H277.545ZM309.982 475.44C308.235 475.44 306.615 475.02 305.122 474.18C303.642 473.327 302.455 472.073 301.562 470.42C300.669 468.767 300.222 466.733 300.222 464.32C300.222 461.973 300.675 459.987 301.582 458.36C302.502 456.733 303.702 455.5 305.182 454.66C306.675 453.82 308.275 453.4 309.982 453.4C311.649 453.4 313.189 453.813 314.602 454.64C316.015 455.453 317.149 456.587 318.002 458.04C318.855 459.493 319.282 461.16 319.282 463.04C319.282 463.093 319.282 463.147 319.282 463.2C319.282 463.253 319.282 463.307 319.282 463.36L316.682 463.42C316.682 463.38 316.682 463.34 316.682 463.3C316.682 463.247 316.682 463.2 316.682 463.16C316.682 462.107 316.415 461.187 315.882 460.4C315.362 459.613 314.682 459 313.842 458.56C313.015 458.107 312.135 457.88 311.202 457.88C309.669 457.88 308.362 458.4 307.282 459.44C306.202 460.467 305.662 462.093 305.662 464.32C305.662 466.533 306.202 468.167 307.282 469.22C308.362 470.273 309.669 470.8 311.202 470.8C312.175 470.8 313.075 470.567 313.902 470.1C314.729 469.633 315.395 468.993 315.902 468.18C316.422 467.353 316.682 466.407 316.682 465.34L319.282 465.46C319.282 467.327 318.862 469.02 318.022 470.54C317.195 472.047 316.082 473.24 314.682 474.12C313.282 475 311.715 475.44 309.982 475.44ZM316.682 475V443.74H321.962V475H316.682ZM342.478 475.1L334.958 445.5H340.778L346.538 471.64H346.278L351.978 445.5H357.798L350.338 475.1H342.478ZM361.19 475V453.76H366.39V475H361.19ZM363.81 449.84C362.957 449.84 362.21 449.613 361.57 449.16C360.943 448.693 360.63 448.047 360.63 447.22C360.63 446.407 360.943 445.773 361.57 445.32C362.21 444.867 362.957 444.64 363.81 444.64C364.65 444.64 365.383 444.867 366.01 445.32C366.637 445.773 366.95 446.407 366.95 447.22C366.95 448.047 366.637 448.693 366.01 449.16C365.383 449.613 364.65 449.84 363.81 449.84ZM373.163 466.08V462.34H388.023L387.423 463.34C387.423 463.26 387.423 463.173 387.423 463.08C387.423 462.973 387.423 462.887 387.423 462.82C387.423 461.9 387.216 461.04 386.803 460.24C386.389 459.427 385.763 458.773 384.923 458.28C384.083 457.773 383.016 457.52 381.723 457.52C380.443 457.52 379.329 457.793 378.383 458.34C377.449 458.873 376.723 459.647 376.203 460.66C375.696 461.673 375.443 462.887 375.443 464.3C375.443 465.753 375.689 467.007 376.183 468.06C376.676 469.1 377.396 469.9 378.343 470.46C379.303 471.007 380.469 471.28 381.843 471.28C382.776 471.28 383.583 471.193 384.263 471.02C384.943 470.847 385.496 470.613 385.923 470.32C386.363 470.013 386.689 469.687 386.903 469.34C387.129 468.993 387.263 468.647 387.303 468.3H392.543C392.463 469.193 392.163 470.067 391.643 470.92C391.136 471.76 390.423 472.527 389.503 473.22C388.583 473.9 387.463 474.447 386.143 474.86C384.836 475.26 383.343 475.46 381.663 475.46C379.383 475.46 377.389 474.993 375.683 474.06C373.976 473.127 372.643 471.827 371.683 470.16C370.736 468.493 370.263 466.587 370.263 464.44C370.263 462.24 370.743 460.313 371.703 458.66C372.676 457.007 374.023 455.72 375.743 454.8C377.463 453.867 379.436 453.4 381.663 453.4C383.956 453.4 385.936 453.867 387.603 454.8C389.283 455.733 390.576 457.033 391.483 458.7C392.389 460.353 392.843 462.28 392.843 464.48C392.843 464.76 392.836 465.06 392.823 465.38C392.809 465.7 392.789 465.933 392.763 466.08H373.163ZM413.43 475L408.49 453.76H412.51L417.33 473.34H416.47L419.55 453.76H425.01L420.65 475H413.43ZM398.79 475L394.41 453.76H399.87L402.97 473.34H402.11L406.89 453.76H410.91L406.05 475H398.79Z" fill="#D17805"/>
<rect x="64" y="416" width="410" height="96" rx="48" stroke="#D17805" stroke-width="6"/>
<rect x="444" y="240" width="395" height="96" rx="48" fill="#C9FBE2"/>
<path d="M500.81 299.1L493.29 269.5H499.11L504.87 295.64H504.61L510.31 269.5H516.13L508.67 299.1H500.81ZM519.521 299V277.76H524.721V299H519.521ZM522.141 273.84C521.288 273.84 520.541 273.613 519.901 273.16C519.275 272.693 518.961 272.047 518.961 271.22C518.961 270.407 519.275 269.773 519.901 269.32C520.541 268.867 521.288 268.64 522.141 268.64C522.981 268.64 523.715 268.867 524.341 269.32C524.968 269.773 525.281 270.407 525.281 271.22C525.281 272.047 524.968 272.693 524.341 273.16C523.715 273.613 522.981 273.84 522.141 273.84ZM531.494 290.08V286.34H546.354L545.754 287.34C545.754 287.26 545.754 287.173 545.754 287.08C545.754 286.973 545.754 286.887 545.754 286.82C545.754 285.9 545.547 285.04 545.134 284.24C544.72 283.427 544.094 282.773 543.254 282.28C542.414 281.773 541.347 281.52 540.054 281.52C538.774 281.52 537.66 281.793 536.714 282.34C535.78 282.873 535.054 283.647 534.534 284.66C534.027 285.673 533.774 286.887 533.774 288.3C533.774 289.753 534.02 291.007 534.514 292.06C535.007 293.1 535.727 293.9 536.674 294.46C537.634 295.007 538.8 295.28 540.174 295.28C541.107 295.28 541.914 295.193 542.594 295.02C543.274 294.847 543.827 294.613 544.254 294.32C544.694 294.013 545.02 293.687 545.234 293.34C545.46 292.993 545.594 292.647 545.634 292.3H550.874C550.794 293.193 550.494 294.067 549.974 294.92C549.467 295.76 548.754 296.527 547.834 297.22C546.914 297.9 545.794 298.447 544.474 298.86C543.167 299.26 541.674 299.46 539.994 299.46C537.714 299.46 535.72 298.993 534.014 298.06C532.307 297.127 530.974 295.827 530.014 294.16C529.067 292.493 528.594 290.587 528.594 288.44C528.594 286.24 529.074 284.313 530.034 282.66C531.007 281.007 532.354 279.72 534.074 278.8C535.794 277.867 537.767 277.4 539.994 277.4C542.287 277.4 544.267 277.867 545.934 278.8C547.614 279.733 548.907 281.033 549.814 282.7C550.72 284.353 551.174 286.28 551.174 288.48C551.174 288.76 551.167 289.06 551.154 289.38C551.14 289.7 551.12 289.933 551.094 290.08H531.494ZM571.762 299L566.822 277.76H570.842L575.662 297.34H574.802L577.882 277.76H583.342L578.982 299H571.762ZM557.122 299L552.742 277.76H558.202L561.302 297.34H560.442L565.222 277.76H569.242L564.382 299H557.122ZM619.191 288.38C619.191 289.633 618.958 290.907 618.491 292.2C618.024 293.493 617.311 294.693 616.351 295.8C615.404 296.893 614.204 297.773 612.751 298.44C611.298 299.107 609.591 299.44 607.631 299.44C604.978 299.44 602.711 298.793 600.831 297.5C598.964 296.193 597.538 294.4 596.551 292.12C595.578 289.84 595.091 287.22 595.091 284.26C595.091 281.287 595.578 278.66 596.551 276.38C597.538 274.1 598.964 272.313 600.831 271.02C602.711 269.727 604.978 269.08 607.631 269.08C609.831 269.08 611.711 269.5 613.271 270.34C614.831 271.18 616.078 272.26 617.011 273.58C617.944 274.9 618.571 276.28 618.891 277.72C619.091 278.56 619.191 279.36 619.191 280.12H613.891C613.891 279.733 613.864 279.333 613.811 278.92C613.664 277.907 613.324 276.987 612.791 276.16C612.271 275.32 611.578 274.66 610.711 274.18C609.844 273.687 608.818 273.44 607.631 273.44C606.218 273.44 604.971 273.833 603.891 274.62C602.824 275.407 601.984 276.6 601.371 278.2C600.758 279.8 600.451 281.82 600.451 284.26C600.451 286.673 600.758 288.687 601.371 290.3C601.984 291.913 602.824 293.12 603.891 293.92C604.971 294.72 606.218 295.12 607.631 295.12C608.644 295.12 609.538 294.933 610.311 294.56C611.084 294.187 611.738 293.687 612.271 293.06C612.804 292.42 613.204 291.7 613.471 290.9C613.751 290.1 613.891 289.26 613.891 288.38H619.191ZM633.647 299.42C631.407 299.42 629.434 298.953 627.727 298.02C626.021 297.073 624.681 295.767 623.707 294.1C622.747 292.433 622.267 290.527 622.267 288.38C622.267 286.22 622.747 284.32 623.707 282.68C624.681 281.027 626.021 279.733 627.727 278.8C629.434 277.867 631.407 277.4 633.647 277.4C635.887 277.4 637.861 277.867 639.567 278.8C641.274 279.733 642.607 281.027 643.567 282.68C644.541 284.32 645.027 286.22 645.027 288.38C645.027 290.527 644.541 292.433 643.567 294.1C642.607 295.767 641.274 297.073 639.567 298.02C637.861 298.953 635.887 299.42 633.647 299.42ZM633.647 295.12C634.861 295.12 635.921 294.84 636.827 294.28C637.734 293.72 638.441 292.94 638.947 291.94C639.454 290.927 639.707 289.74 639.707 288.38C639.707 287.02 639.454 285.847 638.947 284.86C638.441 283.86 637.734 283.087 636.827 282.54C635.921 281.993 634.861 281.72 633.647 281.72C632.447 281.72 631.387 281.993 630.467 282.54C629.561 283.087 628.854 283.86 628.347 284.86C627.841 285.847 627.587 287.02 627.587 288.38C627.587 289.74 627.841 290.927 628.347 291.94C628.854 292.94 629.561 293.72 630.467 294.28C631.387 294.84 632.447 295.12 633.647 295.12ZM663.999 299V289.58C663.999 289.047 663.999 288.58 663.999 288.18C663.999 287.767 663.999 287.393 663.999 287.06C663.999 286.1 663.859 285.24 663.579 284.48C663.312 283.707 662.846 283.1 662.179 282.66C661.526 282.22 660.619 282 659.459 282C658.446 282 657.546 282.247 656.759 282.74C655.972 283.22 655.352 283.887 654.899 284.74C654.459 285.58 654.239 286.553 654.239 287.66L652.459 286.56C652.459 284.787 652.859 283.213 653.659 281.84C654.472 280.453 655.559 279.367 656.919 278.58C658.279 277.793 659.786 277.4 661.439 277.4C663.146 277.4 664.579 277.733 665.739 278.4C666.912 279.067 667.792 280.013 668.379 281.24C668.979 282.467 669.279 283.907 669.279 285.56C669.279 286.2 669.279 286.92 669.279 287.72C669.279 288.52 669.279 289.307 669.279 290.08V299H663.999ZM648.979 299V277.76H654.239V299H648.979ZM683.183 299.4C682.423 299.4 681.649 299.327 680.863 299.18C680.076 299.033 679.356 298.76 678.703 298.36C678.049 297.96 677.523 297.373 677.123 296.6C676.723 295.827 676.523 294.807 676.523 293.54C676.523 293.247 676.523 292.953 676.523 292.66C676.523 292.353 676.523 292.04 676.523 291.72V281.96H671.503V277.76H673.543C674.236 277.76 674.783 277.733 675.183 277.68C675.583 277.613 675.876 277.467 676.063 277.24C676.249 277.013 676.369 276.66 676.423 276.18C676.489 275.687 676.523 275.007 676.523 274.14V270.76H681.803V277.76H688.123V281.96H681.803V290.48C681.803 290.733 681.803 290.987 681.803 291.24C681.803 291.48 681.803 291.713 681.803 291.94C681.803 292.927 681.923 293.72 682.163 294.32C682.403 294.92 682.969 295.22 683.863 295.22C684.289 295.22 684.689 295.18 685.063 295.1C685.449 295.02 685.736 294.94 685.923 294.86V298.98C685.669 299.073 685.303 299.167 684.823 299.26C684.343 299.353 683.796 299.4 683.183 299.4ZM698.389 299.44C696.802 299.44 695.409 299.193 694.209 298.7C693.009 298.193 692.069 297.467 691.389 296.52C690.709 295.573 690.369 294.433 690.369 293.1C690.369 291.647 690.762 290.453 691.549 289.52C692.349 288.573 693.422 287.847 694.769 287.34C696.115 286.82 697.609 286.487 699.249 286.34C701.675 286.1 703.369 285.873 704.329 285.66C705.302 285.433 705.789 285.073 705.789 284.58C705.789 284.567 705.789 284.56 705.789 284.56C705.789 284.547 705.789 284.54 705.789 284.54C705.789 283.607 705.369 282.887 704.529 282.38C703.689 281.873 702.502 281.62 700.969 281.62C699.355 281.62 698.115 281.907 697.249 282.48C696.395 283.04 695.969 283.933 695.969 285.16H690.769C690.769 283.493 691.209 282.087 692.089 280.94C692.982 279.78 694.202 278.9 695.749 278.3C697.295 277.7 699.049 277.4 701.009 277.4C702.835 277.4 704.509 277.673 706.029 278.22C707.549 278.767 708.769 279.593 709.689 280.7C710.609 281.807 711.069 283.187 711.069 284.84C711.069 285.12 711.069 285.4 711.069 285.68C711.069 285.96 711.069 286.24 711.069 286.52V294.52C711.069 295.027 711.082 295.527 711.109 296.02C711.149 296.5 711.222 296.933 711.329 297.32C711.462 297.747 711.622 298.107 711.809 298.4C711.995 298.693 712.142 298.893 712.249 299H707.049C706.955 298.907 706.822 298.727 706.649 298.46C706.489 298.18 706.342 297.86 706.209 297.5C706.075 297.1 705.975 296.673 705.909 296.22C705.842 295.753 705.809 295.24 705.809 294.68L706.849 295.4C706.449 296.213 705.835 296.927 705.009 297.54C704.195 298.14 703.222 298.607 702.089 298.94C700.955 299.273 699.722 299.44 698.389 299.44ZM699.669 295.3C700.762 295.3 701.775 295.113 702.709 294.74C703.642 294.367 704.395 293.793 704.969 293.02C705.542 292.233 705.829 291.227 705.829 290V287.16L707.109 288.6C706.255 288.92 705.229 289.187 704.029 289.4C702.829 289.6 701.615 289.76 700.389 289.88C698.815 290.027 697.629 290.3 696.829 290.7C696.042 291.1 695.649 291.753 695.649 292.66C695.649 293.54 695.982 294.2 696.649 294.64C697.315 295.08 698.322 295.3 699.669 295.3ZM715.453 299V277.76H720.653V299H715.453ZM718.073 273.84C717.219 273.84 716.473 273.613 715.833 273.16C715.206 272.693 714.893 272.047 714.893 271.22C714.893 270.407 715.206 269.773 715.833 269.32C716.473 268.867 717.219 268.64 718.073 268.64C718.913 268.64 719.646 268.867 720.273 269.32C720.899 269.773 721.213 270.407 721.213 271.22C721.213 272.047 720.899 272.693 720.273 273.16C719.646 273.613 718.913 273.84 718.073 273.84ZM740.485 299V289.58C740.485 289.047 740.485 288.58 740.485 288.18C740.485 287.767 740.485 287.393 740.485 287.06C740.485 286.1 740.345 285.24 740.065 284.48C739.798 283.707 739.332 283.1 738.665 282.66C738.012 282.22 737.105 282 735.945 282C734.932 282 734.032 282.247 733.245 282.74C732.458 283.22 731.838 283.887 731.385 284.74C730.945 285.58 730.725 286.553 730.725 287.66L728.945 286.56C728.945 284.787 729.345 283.213 730.145 281.84C730.958 280.453 732.045 279.367 733.405 278.58C734.765 277.793 736.272 277.4 737.925 277.4C739.632 277.4 741.065 277.733 742.225 278.4C743.398 279.067 744.278 280.013 744.865 281.24C745.465 282.467 745.765 283.907 745.765 285.56C745.765 286.2 745.765 286.92 745.765 287.72C745.765 288.52 745.765 289.307 745.765 290.08V299H740.485ZM725.465 299V277.76H730.725V299H725.465ZM752.377 290.08V286.34H767.237L766.637 287.34C766.637 287.26 766.637 287.173 766.637 287.08C766.637 286.973 766.637 286.887 766.637 286.82C766.637 285.9 766.43 285.04 766.017 284.24C765.603 283.427 764.977 282.773 764.137 282.28C763.297 281.773 762.23 281.52 760.937 281.52C759.657 281.52 758.543 281.793 757.597 282.34C756.663 282.873 755.937 283.647 755.417 284.66C754.91 285.673 754.657 286.887 754.657 288.3C754.657 289.753 754.903 291.007 755.397 292.06C755.89 293.1 756.61 293.9 757.557 294.46C758.517 295.007 759.683 295.28 761.057 295.28C761.99 295.28 762.797 295.193 763.477 295.02C764.157 294.847 764.71 294.613 765.137 294.32C765.577 294.013 765.903 293.687 766.117 293.34C766.343 292.993 766.477 292.647 766.517 292.3H771.757C771.677 293.193 771.377 294.067 770.857 294.92C770.35 295.76 769.637 296.527 768.717 297.22C767.797 297.9 766.677 298.447 765.357 298.86C764.05 299.26 762.557 299.46 760.877 299.46C758.597 299.46 756.603 298.993 754.897 298.06C753.19 297.127 751.857 295.827 750.897 294.16C749.95 292.493 749.477 290.587 749.477 288.44C749.477 286.24 749.957 284.313 750.917 282.66C751.89 281.007 753.237 279.72 754.957 278.8C756.677 277.867 758.65 277.4 760.877 277.4C763.17 277.4 765.15 277.867 766.817 278.8C768.497 279.733 769.79 281.033 770.697 282.7C771.603 284.353 772.057 286.28 772.057 288.48C772.057 288.76 772.05 289.06 772.037 289.38C772.023 289.7 772.003 289.933 771.977 290.08H752.377ZM775.993 299V277.76H781.253V284.82L780.033 284.14C780.166 283.22 780.413 282.353 780.773 281.54C781.133 280.713 781.613 279.993 782.213 279.38C782.813 278.753 783.54 278.267 784.393 277.92C785.246 277.573 786.22 277.4 787.313 277.4C788.18 277.4 788.86 277.467 789.353 277.6C789.86 277.72 790.173 277.82 790.293 277.9L789.333 282.72C789.2 282.627 788.926 282.513 788.513 282.38C788.113 282.233 787.573 282.16 786.893 282.16C785.813 282.16 784.906 282.347 784.173 282.72C783.453 283.08 782.88 283.573 782.453 284.2C782.026 284.813 781.72 285.493 781.533 286.24C781.346 286.973 781.253 287.707 781.253 288.44V299H775.993Z" fill="#007A70"/>
<rect x="444" y="240" width="395" height="96" rx="48" stroke="#007A70" stroke-width="6"/>
<rect x="124" y="592" width="290" height="96" rx="48" fill="#E9D6FF"/>
<path d="M234.623 650.12L221.503 642.18V638.58L234.623 630.62V635.04L223.603 640.96V639.8L234.623 645.68V650.12ZM251.7 651.44C249.953 651.44 248.333 651.02 246.84 650.18C245.36 649.327 244.173 648.073 243.28 646.42C242.387 644.767 241.94 642.733 241.94 640.32C241.94 637.973 242.393 635.987 243.3 634.36C244.22 632.733 245.42 631.5 246.9 630.66C248.393 629.82 249.993 629.4 251.7 629.4C253.367 629.4 254.907 629.813 256.32 630.64C257.733 631.453 258.867 632.587 259.72 634.04C260.573 635.493 261 637.16 261 639.04C261 639.093 261 639.147 261 639.2C261 639.253 261 639.307 261 639.36L258.4 639.42C258.4 639.38 258.4 639.34 258.4 639.3C258.4 639.247 258.4 639.2 258.4 639.16C258.4 638.107 258.133 637.187 257.6 636.4C257.08 635.613 256.4 635 255.56 634.56C254.733 634.107 253.853 633.88 252.92 633.88C251.387 633.88 250.08 634.4 249 635.44C247.92 636.467 247.38 638.093 247.38 640.32C247.38 642.533 247.92 644.167 249 645.22C250.08 646.273 251.387 646.8 252.92 646.8C253.893 646.8 254.793 646.567 255.62 646.1C256.447 645.633 257.113 644.993 257.62 644.18C258.14 643.353 258.4 642.407 258.4 641.34L261 641.46C261 643.327 260.58 645.02 259.74 646.54C258.913 648.047 257.8 649.24 256.4 650.12C255 651 253.433 651.44 251.7 651.44ZM258.4 651V619.74H263.68V651H258.4ZM268.356 651V629.76H273.556V651H268.356ZM270.976 625.84C270.123 625.84 269.376 625.613 268.736 625.16C268.11 624.693 267.796 624.047 267.796 623.22C267.796 622.407 268.11 621.773 268.736 621.32C269.376 620.867 270.123 620.64 270.976 620.64C271.816 620.64 272.55 620.867 273.176 621.32C273.803 621.773 274.116 622.407 274.116 623.22C274.116 624.047 273.803 624.693 273.176 625.16C272.55 625.613 271.816 625.84 270.976 625.84ZM297.009 629.76L290.349 651H283.289L276.469 629.76H281.909L287.249 649.16H286.409L291.569 629.76H297.009ZM303.36 630.62L316.46 638.58V642.18L303.36 650.12V645.68L314.38 639.8V640.96L303.36 635.04V630.62Z" fill="#5F00B2"/>
<rect x="124" y="592" width="290" height="96" rx="48" stroke="#5F00B2" stroke-width="6"/>
<rect x="497" y="592" width="290" height="96" rx="48" fill="#E9D6FF"/>
<path d="M607.623 650.12L594.503 642.18V638.58L607.623 630.62V635.04L596.603 640.96V639.8L607.623 645.68V650.12ZM624.7 651.44C622.953 651.44 621.333 651.02 619.84 650.18C618.36 649.327 617.173 648.073 616.28 646.42C615.387 644.767 614.94 642.733 614.94 640.32C614.94 637.973 615.393 635.987 616.3 634.36C617.22 632.733 618.42 631.5 619.9 630.66C621.393 629.82 622.993 629.4 624.7 629.4C626.367 629.4 627.907 629.813 629.32 630.64C630.733 631.453 631.867 632.587 632.72 634.04C633.573 635.493 634 637.16 634 639.04C634 639.093 634 639.147 634 639.2C634 639.253 634 639.307 634 639.36L631.4 639.42C631.4 639.38 631.4 639.34 631.4 639.3C631.4 639.247 631.4 639.2 631.4 639.16C631.4 638.107 631.133 637.187 630.6 636.4C630.08 635.613 629.4 635 628.56 634.56C627.733 634.107 626.853 633.88 625.92 633.88C624.387 633.88 623.08 634.4 622 635.44C620.92 636.467 620.38 638.093 620.38 640.32C620.38 642.533 620.92 644.167 622 645.22C623.08 646.273 624.387 646.8 625.92 646.8C626.893 646.8 627.793 646.567 628.62 646.1C629.447 645.633 630.113 644.993 630.62 644.18C631.14 643.353 631.4 642.407 631.4 641.34L634 641.46C634 643.327 633.58 645.02 632.74 646.54C631.913 648.047 630.8 649.24 629.4 650.12C628 651 626.433 651.44 624.7 651.44ZM631.4 651V619.74H636.68V651H631.4ZM641.356 651V629.76H646.556V651H641.356ZM643.976 625.84C643.123 625.84 642.376 625.613 641.736 625.16C641.11 624.693 640.796 624.047 640.796 623.22C640.796 622.407 641.11 621.773 641.736 621.32C642.376 620.867 643.123 620.64 643.976 620.64C644.816 620.64 645.55 620.867 646.176 621.32C646.803 621.773 647.116 622.407 647.116 623.22C647.116 624.047 646.803 624.693 646.176 625.16C645.55 625.613 644.816 625.84 643.976 625.84ZM670.009 629.76L663.349 651H656.289L649.469 629.76H654.909L660.249 649.16H659.409L664.569 629.76H670.009ZM676.36 630.62L689.46 638.58V642.18L676.36 650.12V645.68L687.38 639.8V640.96L676.36 635.04V630.62Z" fill="#5F00B2"/>
<rect x="497" y="592" width="290" height="96" rx="48" stroke="#5F00B2" stroke-width="6"/>
<rect x="521" y="1300" width="242" height="96" rx="48" fill="#E9D6FF"/>
<path d="M625.997 1358.12L612.877 1350.18V1346.58L625.997 1338.62V1343.04L614.977 1348.96V1347.8L625.997 1353.68V1358.12ZM639.734 1327.74V1359H634.554V1327.74H639.734ZM644.613 1359V1337.76H649.813V1359H644.613ZM647.233 1333.84C646.38 1333.84 645.633 1333.61 644.993 1333.16C644.367 1332.69 644.053 1332.05 644.053 1331.22C644.053 1330.41 644.367 1329.77 644.993 1329.32C645.633 1328.87 646.38 1328.64 647.233 1328.64C648.073 1328.64 648.807 1328.87 649.433 1329.32C650.06 1329.77 650.373 1330.41 650.373 1331.22C650.373 1332.05 650.06 1332.69 649.433 1333.16C648.807 1333.61 648.073 1333.84 647.233 1333.84ZM657.986 1338.62L671.086 1346.58V1350.18L657.986 1358.12V1353.68L669.006 1347.8V1348.96L657.986 1343.04V1338.62Z" fill="#5F00B2"/>
<rect x="521" y="1300" width="242" height="96" rx="48" stroke="#5F00B2" stroke-width="6"/>
<rect x="894" y="1300" width="242" height="96" rx="48" fill="#E9D6FF"/>
<path d="M998.997 1358.12L985.877 1350.18V1346.58L998.997 1338.62V1343.04L987.977 1348.96V1347.8L998.997 1353.68V1358.12ZM1012.73 1327.74V1359H1007.55V1327.74H1012.73ZM1017.61 1359V1337.76H1022.81V1359H1017.61ZM1020.23 1333.84C1019.38 1333.84 1018.63 1333.61 1017.99 1333.16C1017.37 1332.69 1017.05 1332.05 1017.05 1331.22C1017.05 1330.41 1017.37 1329.77 1017.99 1329.32C1018.63 1328.87 1019.38 1328.64 1020.23 1328.64C1021.07 1328.64 1021.81 1328.87 1022.43 1329.32C1023.06 1329.77 1023.37 1330.41 1023.37 1331.22C1023.37 1332.05 1023.06 1332.69 1022.43 1333.16C1021.81 1333.61 1021.07 1333.84 1020.23 1333.84ZM1030.99 1338.62L1044.09 1346.58V1350.18L1030.99 1358.12V1353.68L1042.01 1347.8V1348.96L1030.99 1343.04V1338.62Z" fill="#5F00B2"/>
<rect x="894" y="1300" width="242" height="96" rx="48" stroke="#5F00B2" stroke-width="6"/>
<path d="M269 400V400C269 377.909 286.909 360 309 360L615 360" stroke="#2A3751" stroke-width="6" stroke-linecap="round" stroke-linejoin="round"/>
<path d="M1015 400V400C1015 377.909 997.091 360 975 360L669 360" stroke="#2A3751" stroke-width="6" stroke-linecap="round" stroke-linejoin="round"/>
<path d="M669 360H660C646.4 360 642.333 352 642 348C641.667 352 637.6 360 624 360H615" stroke="#2A3751" stroke-width="6" stroke-linecap="round" stroke-linejoin="round"/>
<path d="M642 576V576C642 553.909 624.091 536 602 536H296" stroke="#2A3751" stroke-width="6" stroke-linecap="round" stroke-linejoin="round"/>
<path d="M269 524C269.333 528 273.4 536 287 536H296" stroke="#2A3751" stroke-width="6" stroke-linecap="round" stroke-linejoin="round"/>
<path d="M642 176V224" stroke="#2A3751" stroke-width="6" stroke-linecap="round" stroke-linejoin="round"/>
<rect x="817" y="768" width="395" height="96" rx="48" fill="#C9FBE2"/>
<path d="M873.81 827.1L866.29 797.5H872.11L877.87 823.64H877.61L883.31 797.5H889.13L881.67 827.1H873.81ZM892.521 827V805.76H897.721V827H892.521ZM895.141 801.84C894.288 801.84 893.541 801.613 892.901 801.16C892.275 800.693 891.961 800.047 891.961 799.22C891.961 798.407 892.275 797.773 892.901 797.32C893.541 796.867 894.288 796.64 895.141 796.64C895.981 796.64 896.715 796.867 897.341 797.32C897.968 797.773 898.281 798.407 898.281 799.22C898.281 800.047 897.968 800.693 897.341 801.16C896.715 801.613 895.981 801.84 895.141 801.84ZM904.494 818.08V814.34H919.354L918.754 815.34C918.754 815.26 918.754 815.173 918.754 815.08C918.754 814.973 918.754 814.887 918.754 814.82C918.754 813.9 918.547 813.04 918.134 812.24C917.72 811.427 917.094 810.773 916.254 810.28C915.414 809.773 914.347 809.52 913.054 809.52C911.774 809.52 910.66 809.793 909.714 810.34C908.78 810.873 908.054 811.647 907.534 812.66C907.027 813.673 906.774 814.887 906.774 816.3C906.774 817.753 907.02 819.007 907.514 820.06C908.007 821.1 908.727 821.9 909.674 822.46C910.634 823.007 911.8 823.28 913.174 823.28C914.107 823.28 914.914 823.193 915.594 823.02C916.274 822.847 916.827 822.613 917.254 822.32C917.694 822.013 918.02 821.687 918.234 821.34C918.46 820.993 918.594 820.647 918.634 820.3H923.874C923.794 821.193 923.494 822.067 922.974 822.92C922.467 823.76 921.754 824.527 920.834 825.22C919.914 825.9 918.794 826.447 917.474 826.86C916.167 827.26 914.674 827.46 912.994 827.46C910.714 827.46 908.72 826.993 907.014 826.06C905.307 825.127 903.974 823.827 903.014 822.16C902.067 820.493 901.594 818.587 901.594 816.44C901.594 814.24 902.074 812.313 903.034 810.66C904.007 809.007 905.354 807.72 907.074 806.8C908.794 805.867 910.767 805.4 912.994 805.4C915.287 805.4 917.267 805.867 918.934 806.8C920.614 807.733 921.907 809.033 922.814 810.7C923.72 812.353 924.174 814.28 924.174 816.48C924.174 816.76 924.167 817.06 924.154 817.38C924.14 817.7 924.12 817.933 924.094 818.08H904.494ZM944.762 827L939.822 805.76H943.842L948.662 825.34H947.802L950.882 805.76H956.342L951.982 827H944.762ZM930.122 827L925.742 805.76H931.202L934.302 825.34H933.442L938.222 805.76H942.242L937.382 827H930.122ZM992.191 816.38C992.191 817.633 991.958 818.907 991.491 820.2C991.024 821.493 990.311 822.693 989.351 823.8C988.404 824.893 987.204 825.773 985.751 826.44C984.298 827.107 982.591 827.44 980.631 827.44C977.978 827.44 975.711 826.793 973.831 825.5C971.964 824.193 970.538 822.4 969.551 820.12C968.578 817.84 968.091 815.22 968.091 812.26C968.091 809.287 968.578 806.66 969.551 804.38C970.538 802.1 971.964 800.313 973.831 799.02C975.711 797.727 977.978 797.08 980.631 797.08C982.831 797.08 984.711 797.5 986.271 798.34C987.831 799.18 989.078 800.26 990.011 801.58C990.944 802.9 991.571 804.28 991.891 805.72C992.091 806.56 992.191 807.36 992.191 808.12H986.891C986.891 807.733 986.864 807.333 986.811 806.92C986.664 805.907 986.324 804.987 985.791 804.16C985.271 803.32 984.578 802.66 983.711 802.18C982.844 801.687 981.818 801.44 980.631 801.44C979.218 801.44 977.971 801.833 976.891 802.62C975.824 803.407 974.984 804.6 974.371 806.2C973.758 807.8 973.451 809.82 973.451 812.26C973.451 814.673 973.758 816.687 974.371 818.3C974.984 819.913 975.824 821.12 976.891 821.92C977.971 822.72 979.218 823.12 980.631 823.12C981.644 823.12 982.538 822.933 983.311 822.56C984.084 822.187 984.738 821.687 985.271 821.06C985.804 820.42 986.204 819.7 986.471 818.9C986.751 818.1 986.891 817.26 986.891 816.38H992.191ZM1006.65 827.42C1004.41 827.42 1002.43 826.953 1000.73 826.02C999.021 825.073 997.681 823.767 996.707 822.1C995.747 820.433 995.267 818.527 995.267 816.38C995.267 814.22 995.747 812.32 996.707 810.68C997.681 809.027 999.021 807.733 1000.73 806.8C1002.43 805.867 1004.41 805.4 1006.65 805.4C1008.89 805.4 1010.86 805.867 1012.57 806.8C1014.27 807.733 1015.61 809.027 1016.57 810.68C1017.54 812.32 1018.03 814.22 1018.03 816.38C1018.03 818.527 1017.54 820.433 1016.57 822.1C1015.61 823.767 1014.27 825.073 1012.57 826.02C1010.86 826.953 1008.89 827.42 1006.65 827.42ZM1006.65 823.12C1007.86 823.12 1008.92 822.84 1009.83 822.28C1010.73 821.72 1011.44 820.94 1011.95 819.94C1012.45 818.927 1012.71 817.74 1012.71 816.38C1012.71 815.02 1012.45 813.847 1011.95 812.86C1011.44 811.86 1010.73 811.087 1009.83 810.54C1008.92 809.993 1007.86 809.72 1006.65 809.72C1005.45 809.72 1004.39 809.993 1003.47 810.54C1002.56 811.087 1001.85 811.86 1001.35 812.86C1000.84 813.847 1000.59 815.02 1000.59 816.38C1000.59 817.74 1000.84 818.927 1001.35 819.94C1001.85 820.94 1002.56 821.72 1003.47 822.28C1004.39 822.84 1005.45 823.12 1006.65 823.12ZM1037 827V817.58C1037 817.047 1037 816.58 1037 816.18C1037 815.767 1037 815.393 1037 815.06C1037 814.1 1036.86 813.24 1036.58 812.48C1036.31 811.707 1035.85 811.1 1035.18 810.66C1034.53 810.22 1033.62 810 1032.46 810C1031.45 810 1030.55 810.247 1029.76 810.74C1028.97 811.22 1028.35 811.887 1027.9 812.74C1027.46 813.58 1027.24 814.553 1027.24 815.66L1025.46 814.56C1025.46 812.787 1025.86 811.213 1026.66 809.84C1027.47 808.453 1028.56 807.367 1029.92 806.58C1031.28 805.793 1032.79 805.4 1034.44 805.4C1036.15 805.4 1037.58 805.733 1038.74 806.4C1039.91 807.067 1040.79 808.013 1041.38 809.24C1041.98 810.467 1042.28 811.907 1042.28 813.56C1042.28 814.2 1042.28 814.92 1042.28 815.72C1042.28 816.52 1042.28 817.307 1042.28 818.08V827H1037ZM1021.98 827V805.76H1027.24V827H1021.98ZM1056.18 827.4C1055.42 827.4 1054.65 827.327 1053.86 827.18C1053.08 827.033 1052.36 826.76 1051.7 826.36C1051.05 825.96 1050.52 825.373 1050.12 824.6C1049.72 823.827 1049.52 822.807 1049.52 821.54C1049.52 821.247 1049.52 820.953 1049.52 820.66C1049.52 820.353 1049.52 820.04 1049.52 819.72V809.96H1044.5V805.76H1046.54C1047.24 805.76 1047.78 805.733 1048.18 805.68C1048.58 805.613 1048.88 805.467 1049.06 805.24C1049.25 805.013 1049.37 804.66 1049.42 804.18C1049.49 803.687 1049.52 803.007 1049.52 802.14V798.76H1054.8V805.76H1061.12V809.96H1054.8V818.48C1054.8 818.733 1054.8 818.987 1054.8 819.24C1054.8 819.48 1054.8 819.713 1054.8 819.94C1054.8 820.927 1054.92 821.72 1055.16 822.32C1055.4 822.92 1055.97 823.22 1056.86 823.22C1057.29 823.22 1057.69 823.18 1058.06 823.1C1058.45 823.02 1058.74 822.94 1058.92 822.86V826.98C1058.67 827.073 1058.3 827.167 1057.82 827.26C1057.34 827.353 1056.8 827.4 1056.18 827.4ZM1071.39 827.44C1069.8 827.44 1068.41 827.193 1067.21 826.7C1066.01 826.193 1065.07 825.467 1064.39 824.52C1063.71 823.573 1063.37 822.433 1063.37 821.1C1063.37 819.647 1063.76 818.453 1064.55 817.52C1065.35 816.573 1066.42 815.847 1067.77 815.34C1069.12 814.82 1070.61 814.487 1072.25 814.34C1074.68 814.1 1076.37 813.873 1077.33 813.66C1078.3 813.433 1078.79 813.073 1078.79 812.58C1078.79 812.567 1078.79 812.56 1078.79 812.56C1078.79 812.547 1078.79 812.54 1078.79 812.54C1078.79 811.607 1078.37 810.887 1077.53 810.38C1076.69 809.873 1075.5 809.62 1073.97 809.62C1072.36 809.62 1071.12 809.907 1070.25 810.48C1069.4 811.04 1068.97 811.933 1068.97 813.16H1063.77C1063.77 811.493 1064.21 810.087 1065.09 808.94C1065.98 807.78 1067.2 806.9 1068.75 806.3C1070.3 805.7 1072.05 805.4 1074.01 805.4C1075.84 805.4 1077.51 805.673 1079.03 806.22C1080.55 806.767 1081.77 807.593 1082.69 808.7C1083.61 809.807 1084.07 811.187 1084.07 812.84C1084.07 813.12 1084.07 813.4 1084.07 813.68C1084.07 813.96 1084.07 814.24 1084.07 814.52V822.52C1084.07 823.027 1084.08 823.527 1084.11 824.02C1084.15 824.5 1084.22 824.933 1084.33 825.32C1084.46 825.747 1084.62 826.107 1084.81 826.4C1085 826.693 1085.14 826.893 1085.25 827H1080.05C1079.96 826.907 1079.82 826.727 1079.65 826.46C1079.49 826.18 1079.34 825.86 1079.21 825.5C1079.08 825.1 1078.98 824.673 1078.91 824.22C1078.84 823.753 1078.81 823.24 1078.81 822.68L1079.85 823.4C1079.45 824.213 1078.84 824.927 1078.01 825.54C1077.2 826.14 1076.22 826.607 1075.09 826.94C1073.96 827.273 1072.72 827.44 1071.39 827.44ZM1072.67 823.3C1073.76 823.3 1074.78 823.113 1075.71 822.74C1076.64 822.367 1077.4 821.793 1077.97 821.02C1078.54 820.233 1078.83 819.227 1078.83 818V815.16L1080.11 816.6C1079.26 816.92 1078.23 817.187 1077.03 817.4C1075.83 817.6 1074.62 817.76 1073.39 817.88C1071.82 818.027 1070.63 818.3 1069.83 818.7C1069.04 819.1 1068.65 819.753 1068.65 820.66C1068.65 821.54 1068.98 822.2 1069.65 822.64C1070.32 823.08 1071.32 823.3 1072.67 823.3ZM1088.45 827V805.76H1093.65V827H1088.45ZM1091.07 801.84C1090.22 801.84 1089.47 801.613 1088.83 801.16C1088.21 800.693 1087.89 800.047 1087.89 799.22C1087.89 798.407 1088.21 797.773 1088.83 797.32C1089.47 796.867 1090.22 796.64 1091.07 796.64C1091.91 796.64 1092.65 796.867 1093.27 797.32C1093.9 797.773 1094.21 798.407 1094.21 799.22C1094.21 800.047 1093.9 800.693 1093.27 801.16C1092.65 801.613 1091.91 801.84 1091.07 801.84ZM1113.49 827V817.58C1113.49 817.047 1113.49 816.58 1113.49 816.18C1113.49 815.767 1113.49 815.393 1113.49 815.06C1113.49 814.1 1113.35 813.24 1113.07 812.48C1112.8 811.707 1112.33 811.1 1111.67 810.66C1111.01 810.22 1110.11 810 1108.95 810C1107.93 810 1107.03 810.247 1106.25 810.74C1105.46 811.22 1104.84 811.887 1104.39 812.74C1103.95 813.58 1103.73 814.553 1103.73 815.66L1101.95 814.56C1101.95 812.787 1102.35 811.213 1103.15 809.84C1103.96 808.453 1105.05 807.367 1106.41 806.58C1107.77 805.793 1109.27 805.4 1110.93 805.4C1112.63 805.4 1114.07 805.733 1115.23 806.4C1116.4 807.067 1117.28 808.013 1117.87 809.24C1118.47 810.467 1118.77 811.907 1118.77 813.56C1118.77 814.2 1118.77 814.92 1118.77 815.72C1118.77 816.52 1118.77 817.307 1118.77 818.08V827H1113.49ZM1098.47 827V805.76H1103.73V827H1098.47ZM1125.38 818.08V814.34H1140.24L1139.64 815.34C1139.64 815.26 1139.64 815.173 1139.64 815.08C1139.64 814.973 1139.64 814.887 1139.64 814.82C1139.64 813.9 1139.43 813.04 1139.02 812.24C1138.6 811.427 1137.98 810.773 1137.14 810.28C1136.3 809.773 1135.23 809.52 1133.94 809.52C1132.66 809.52 1131.54 809.793 1130.6 810.34C1129.66 810.873 1128.94 811.647 1128.42 812.66C1127.91 813.673 1127.66 814.887 1127.66 816.3C1127.66 817.753 1127.9 819.007 1128.4 820.06C1128.89 821.1 1129.61 821.9 1130.56 822.46C1131.52 823.007 1132.68 823.28 1134.06 823.28C1134.99 823.28 1135.8 823.193 1136.48 823.02C1137.16 822.847 1137.71 822.613 1138.14 822.32C1138.58 822.013 1138.9 821.687 1139.12 821.34C1139.34 820.993 1139.48 820.647 1139.52 820.3H1144.76C1144.68 821.193 1144.38 822.067 1143.86 822.92C1143.35 823.76 1142.64 824.527 1141.72 825.22C1140.8 825.9 1139.68 826.447 1138.36 826.86C1137.05 827.26 1135.56 827.46 1133.88 827.46C1131.6 827.46 1129.6 826.993 1127.9 826.06C1126.19 825.127 1124.86 823.827 1123.9 822.16C1122.95 820.493 1122.48 818.587 1122.48 816.44C1122.48 814.24 1122.96 812.313 1123.92 810.66C1124.89 809.007 1126.24 807.72 1127.96 806.8C1129.68 805.867 1131.65 805.4 1133.88 805.4C1136.17 805.4 1138.15 805.867 1139.82 806.8C1141.5 807.733 1142.79 809.033 1143.7 810.7C1144.6 812.353 1145.06 814.28 1145.06 816.48C1145.06 816.76 1145.05 817.06 1145.04 817.38C1145.02 817.7 1145 817.933 1144.98 818.08H1125.38ZM1148.99 827V805.76H1154.25V812.82L1153.03 812.14C1153.17 811.22 1153.41 810.353 1153.77 809.54C1154.13 808.713 1154.61 807.993 1155.21 807.38C1155.81 806.753 1156.54 806.267 1157.39 805.92C1158.25 805.573 1159.22 805.4 1160.31 805.4C1161.18 805.4 1161.86 805.467 1162.35 805.6C1162.86 805.72 1163.17 805.82 1163.29 805.9L1162.33 810.72C1162.2 810.627 1161.93 810.513 1161.51 810.38C1161.11 810.233 1160.57 810.16 1159.89 810.16C1158.81 810.16 1157.91 810.347 1157.17 810.72C1156.45 811.08 1155.88 811.573 1155.45 812.2C1155.03 812.813 1154.72 813.493 1154.53 814.24C1154.35 814.973 1154.25 815.707 1154.25 816.44V827H1148.99Z" fill="#007A70"/>
<rect x="817" y="768" width="395" height="96" rx="48" stroke="#007A70" stroke-width="6"/>
<path d="M1015 704V752" stroke="#2A3751" stroke-width="6" stroke-linecap="round" stroke-linejoin="round"/>
<path d="M1015 880V928" stroke="#2A3751" stroke-width="6" stroke-linecap="round" stroke-linejoin="round"/>
<rect x="869" y="416" width="291" height="96" rx="48" fill="#FED9D2"/>
<path d="M941.932 445.5V475H936.652V460.6L939.032 462.4H922.752L925.132 460.64V475H919.852V445.5H925.132V460.04L922.752 458.2H939.032L936.652 460.02V445.5H941.932ZM957.178 475.42C954.938 475.42 952.965 474.953 951.258 474.02C949.552 473.073 948.212 471.767 947.238 470.1C946.278 468.433 945.798 466.527 945.798 464.38C945.798 462.22 946.278 460.32 947.238 458.68C948.212 457.027 949.552 455.733 951.258 454.8C952.965 453.867 954.938 453.4 957.178 453.4C959.418 453.4 961.392 453.867 963.098 454.8C964.805 455.733 966.138 457.027 967.098 458.68C968.072 460.32 968.558 462.22 968.558 464.38C968.558 466.527 968.072 468.433 967.098 470.1C966.138 471.767 964.805 473.073 963.098 474.02C961.392 474.953 959.418 475.42 957.178 475.42ZM957.178 471.12C958.392 471.12 959.452 470.84 960.358 470.28C961.265 469.72 961.972 468.94 962.478 467.94C962.985 466.927 963.238 465.74 963.238 464.38C963.238 463.02 962.985 461.847 962.478 460.86C961.972 459.86 961.265 459.087 960.358 458.54C959.452 457.993 958.392 457.72 957.178 457.72C955.978 457.72 954.918 457.993 953.998 458.54C953.092 459.087 952.385 459.86 951.878 460.86C951.372 461.847 951.118 463.02 951.118 464.38C951.118 465.74 951.372 466.927 951.878 467.94C952.385 468.94 953.092 469.72 953.998 470.28C954.918 470.84 955.978 471.12 957.178 471.12ZM981.09 475.44C979.824 475.44 978.617 475.3 977.47 475.02C976.337 474.74 975.324 474.32 974.43 473.76C973.55 473.2 972.85 472.507 972.33 471.68C971.824 470.84 971.57 469.873 971.57 468.78C971.57 468.7 971.57 468.62 971.57 468.54C971.57 468.46 971.57 468.387 971.57 468.32H976.81C976.81 468.387 976.81 468.447 976.81 468.5C976.81 468.54 976.81 468.6 976.81 468.68C976.81 469.547 977.204 470.2 977.99 470.64C978.79 471.067 979.877 471.28 981.25 471.28C981.997 471.28 982.697 471.2 983.35 471.04C984.017 470.88 984.55 470.633 984.95 470.3C985.364 469.967 985.57 469.54 985.57 469.02C985.57 468.18 985.137 467.58 984.27 467.22C983.417 466.86 982.07 466.533 980.23 466.24C979.217 466.067 978.217 465.833 977.23 465.54C976.244 465.247 975.344 464.853 974.53 464.36C973.73 463.867 973.084 463.253 972.59 462.52C972.11 461.787 971.87 460.893 971.87 459.84C971.87 458.44 972.284 457.267 973.11 456.32C973.95 455.36 975.07 454.633 976.47 454.14C977.884 453.647 979.437 453.4 981.13 453.4C982.757 453.4 984.27 453.667 985.67 454.2C987.07 454.733 988.197 455.5 989.05 456.5C989.917 457.5 990.35 458.707 990.35 460.12C990.35 460.173 990.35 460.233 990.35 460.3C990.35 460.353 990.35 460.4 990.35 460.44H985.15C985.15 460.4 985.15 460.36 985.15 460.32C985.15 460.28 985.15 460.233 985.15 460.18C985.15 459.567 984.957 459.067 984.57 458.68C984.184 458.293 983.684 458.007 983.07 457.82C982.457 457.633 981.81 457.54 981.13 457.54C980.53 457.54 979.91 457.607 979.27 457.74C978.63 457.86 978.097 458.08 977.67 458.4C977.244 458.707 977.03 459.14 977.03 459.7C977.03 460.233 977.25 460.667 977.69 461C978.13 461.333 978.744 461.613 979.53 461.84C980.317 462.053 981.224 462.247 982.25 462.42C983.224 462.58 984.204 462.8 985.19 463.08C986.19 463.36 987.104 463.733 987.93 464.2C988.757 464.667 989.424 465.28 989.93 466.04C990.45 466.787 990.71 467.713 990.71 468.82C990.71 469.993 990.444 470.993 989.91 471.82C989.377 472.647 988.65 473.333 987.73 473.88C986.824 474.413 985.797 474.807 984.65 475.06C983.504 475.313 982.317 475.44 981.09 475.44ZM1004.18 475.4C1003.42 475.4 1002.64 475.327 1001.86 475.18C1001.07 475.033 1000.35 474.76 999.695 474.36C999.042 473.96 998.515 473.373 998.115 472.6C997.715 471.827 997.515 470.807 997.515 469.54C997.515 469.247 997.515 468.953 997.515 468.66C997.515 468.353 997.515 468.04 997.515 467.72V457.96H992.495V453.76H994.535C995.228 453.76 995.775 453.733 996.175 453.68C996.575 453.613 996.868 453.467 997.055 453.24C997.242 453.013 997.362 452.66 997.415 452.18C997.482 451.687 997.515 451.007 997.515 450.14V446.76H1002.8V453.76H1009.12V457.96H1002.8V466.48C1002.8 466.733 1002.8 466.987 1002.8 467.24C1002.8 467.48 1002.8 467.713 1002.8 467.94C1002.8 468.927 1002.92 469.72 1003.16 470.32C1003.4 470.92 1003.96 471.22 1004.86 471.22C1005.28 471.22 1005.68 471.18 1006.06 471.1C1006.44 471.02 1006.73 470.94 1006.92 470.86V474.98C1006.66 475.073 1006.3 475.167 1005.82 475.26C1005.34 475.353 1004.79 475.4 1004.18 475.4ZM1028.43 475.1L1020.91 445.5H1026.73L1032.49 471.64H1032.23L1037.93 445.5H1043.75L1036.29 475.1H1028.43ZM1047.14 475V453.76H1052.34V475H1047.14ZM1049.76 449.84C1048.91 449.84 1048.16 449.613 1047.52 449.16C1046.89 448.693 1046.58 448.047 1046.58 447.22C1046.58 446.407 1046.89 445.773 1047.52 445.32C1048.16 444.867 1048.91 444.64 1049.76 444.64C1050.6 444.64 1051.33 444.867 1051.96 445.32C1052.59 445.773 1052.9 446.407 1052.9 447.22C1052.9 448.047 1052.59 448.693 1051.96 449.16C1051.33 449.613 1050.6 449.84 1049.76 449.84ZM1059.11 466.08V462.34H1073.97L1073.37 463.34C1073.37 463.26 1073.37 463.173 1073.37 463.08C1073.37 462.973 1073.37 462.887 1073.37 462.82C1073.37 461.9 1073.16 461.04 1072.75 460.24C1072.34 459.427 1071.71 458.773 1070.87 458.28C1070.03 457.773 1068.96 457.52 1067.67 457.52C1066.39 457.52 1065.28 457.793 1064.33 458.34C1063.4 458.873 1062.67 459.647 1062.15 460.66C1061.64 461.673 1061.39 462.887 1061.39 464.3C1061.39 465.753 1061.64 467.007 1062.13 468.06C1062.62 469.1 1063.34 469.9 1064.29 470.46C1065.25 471.007 1066.42 471.28 1067.79 471.28C1068.72 471.28 1069.53 471.193 1070.21 471.02C1070.89 470.847 1071.44 470.613 1071.87 470.32C1072.31 470.013 1072.64 469.687 1072.85 469.34C1073.08 468.993 1073.21 468.647 1073.25 468.3H1078.49C1078.41 469.193 1078.11 470.067 1077.59 470.92C1077.08 471.76 1076.37 472.527 1075.45 473.22C1074.53 473.9 1073.41 474.447 1072.09 474.86C1070.78 475.26 1069.29 475.46 1067.61 475.46C1065.33 475.46 1063.34 474.993 1061.63 474.06C1059.92 473.127 1058.59 471.827 1057.63 470.16C1056.68 468.493 1056.21 466.587 1056.21 464.44C1056.21 462.24 1056.69 460.313 1057.65 458.66C1058.62 457.007 1059.97 455.72 1061.69 454.8C1063.41 453.867 1065.38 453.4 1067.61 453.4C1069.9 453.4 1071.88 453.867 1073.55 454.8C1075.23 455.733 1076.52 457.033 1077.43 458.7C1078.34 460.353 1078.79 462.28 1078.79 464.48C1078.79 464.76 1078.78 465.06 1078.77 465.38C1078.76 465.7 1078.74 465.933 1078.71 466.08H1059.11ZM1099.38 475L1094.44 453.76H1098.46L1103.28 473.34H1102.42L1105.5 453.76H1110.96L1106.6 475H1099.38ZM1084.74 475L1080.36 453.76H1085.82L1088.92 473.34H1088.06L1092.84 453.76H1096.86L1092 475H1084.74Z" fill="#B92015"/>
<rect x="869" y="416" width="291" height="96" rx="48" stroke="#B92015" stroke-width="6"/>
<path d="M1015 528V576" stroke="#2A3751" stroke-width="6" stroke-linecap="round" stroke-linejoin="round"/>
<path d="M269 524V576" stroke="#2A3751" stroke-width="6" stroke-linecap="round" stroke-linejoin="round"/>
<rect x="553" y="768" width="178" height="96" rx="48" fill="#E9D6FF"/>
<path d="M623.336 826.12L610.216 818.18V814.58L623.336 806.62V811.04L612.316 816.96V815.8L623.336 821.68V826.12ZM631.593 835.74V805.76H636.853V835.74H631.593ZM643.553 827.44C641.9 827.44 640.366 827.013 638.953 826.16C637.553 825.293 636.42 824.113 635.553 822.62C634.7 821.127 634.273 819.447 634.273 817.58C634.273 817.527 634.273 817.48 634.273 817.44C634.273 817.387 634.273 817.34 634.273 817.3L636.873 817.24C636.873 817.267 636.873 817.3 636.873 817.34C636.873 817.38 636.873 817.413 636.873 817.44C636.873 818.48 637.133 819.407 637.653 820.22C638.173 821.02 638.846 821.653 639.673 822.12C640.513 822.573 641.406 822.8 642.353 822.8C643.886 822.8 645.193 822.273 646.273 821.22C647.353 820.167 647.893 818.533 647.893 816.32C647.893 814.093 647.353 812.467 646.273 811.44C645.206 810.4 643.9 809.88 642.353 809.88C641.42 809.88 640.533 810.107 639.693 810.56C638.866 811 638.186 811.613 637.653 812.4C637.133 813.187 636.873 814.107 636.873 815.16L634.273 815.04C634.273 813.16 634.7 811.493 635.553 810.04C636.42 808.587 637.553 807.453 638.953 806.64C640.366 805.813 641.9 805.4 643.553 805.4C645.273 805.4 646.873 805.82 648.353 806.66C649.846 807.5 651.046 808.733 651.953 810.36C652.873 811.987 653.333 813.973 653.333 816.32C653.333 818.733 652.886 820.767 651.993 822.42C651.1 824.073 649.913 825.327 648.433 826.18C646.953 827.02 645.326 827.44 643.553 827.44ZM660.647 806.62L673.747 814.58V818.18L660.647 826.12V821.68L671.667 815.8V816.96L660.647 811.04V806.62Z" fill="#5F00B2"/>
<rect x="553" y="768" width="178" height="96" rx="48" stroke="#5F00B2" stroke-width="6"/>
<rect x="180" y="768" width="178" height="96" rx="48" fill="#E9D6FF"/>
<path d="M250.336 826.12L237.216 818.18V814.58L250.336 806.62V811.04L239.316 816.96V815.8L250.336 821.68V826.12ZM258.593 835.74V805.76H263.853V835.74H258.593ZM270.553 827.44C268.9 827.44 267.366 827.013 265.953 826.16C264.553 825.293 263.42 824.113 262.553 822.62C261.7 821.127 261.273 819.447 261.273 817.58C261.273 817.527 261.273 817.48 261.273 817.44C261.273 817.387 261.273 817.34 261.273 817.3L263.873 817.24C263.873 817.267 263.873 817.3 263.873 817.34C263.873 817.38 263.873 817.413 263.873 817.44C263.873 818.48 264.133 819.407 264.653 820.22C265.173 821.02 265.846 821.653 266.673 822.12C267.513 822.573 268.406 822.8 269.353 822.8C270.886 822.8 272.193 822.273 273.273 821.22C274.353 820.167 274.893 818.533 274.893 816.32C274.893 814.093 274.353 812.467 273.273 811.44C272.206 810.4 270.9 809.88 269.353 809.88C268.42 809.88 267.533 810.107 266.693 810.56C265.866 811 265.186 811.613 264.653 812.4C264.133 813.187 263.873 814.107 263.873 815.16L261.273 815.04C261.273 813.16 261.7 811.493 262.553 810.04C263.42 808.587 264.553 807.453 265.953 806.64C267.366 805.813 268.9 805.4 270.553 805.4C272.273 805.4 273.873 805.82 275.353 806.66C276.846 807.5 278.046 808.733 278.953 810.36C279.873 811.987 280.333 813.973 280.333 816.32C280.333 818.733 279.886 820.767 278.993 822.42C278.1 824.073 276.913 825.327 275.433 826.18C273.953 827.02 272.326 827.44 270.553 827.44ZM287.647 806.62L300.747 814.58V818.18L287.647 826.12V821.68L298.667 815.8V816.96L287.647 811.04V806.62Z" fill="#5F00B2"/>
<rect x="180" y="768" width="178" height="96" rx="48" stroke="#5F00B2" stroke-width="6"/>
<path d="M642 700V752" stroke="#2A3751" stroke-width="6" stroke-linecap="round" stroke-linejoin="round"/>
<path d="M269 700V752" stroke="#2A3751" stroke-width="6" stroke-linecap="round" stroke-linejoin="round"/>
<path d="M642 1284V1284C642 1261.91 659.909 1244 682 1244H988" stroke="#2A3751" stroke-width="6" stroke-linecap="round" stroke-linejoin="round"/>
<path d="M1015 1232C1014.67 1236 1010.6 1244 997 1244H988" stroke="#2A3751" stroke-width="6" stroke-linecap="round" stroke-linejoin="round"/>
<path d="M1015 1232V1284" stroke="#2A3751" stroke-width="6" stroke-linecap="round" stroke-linejoin="round"/>
<rect x="810" y="944" width="410" height="96" rx="48" fill="#FFF5CB"/>
<path d="M863.72 977.7L866.1 975.08V987.68L864.86 986.1H875.9V990.3H864.86L866.1 988.74V1001.42L863.72 998.8H878.12V1003H860.8V973.5H878.12V977.7H863.72ZM896.121 1003V994.38C896.121 993.593 896.121 992.907 896.121 992.32C896.121 991.72 896.121 991.22 896.121 990.82C896.121 990.3 896.088 989.76 896.021 989.2C895.955 988.627 895.808 988.1 895.581 987.62C895.355 987.14 895.001 986.753 894.521 986.46C894.055 986.153 893.408 986 892.581 986C891.781 986 891.101 986.167 890.541 986.5C889.995 986.82 889.541 987.253 889.181 987.8C888.835 988.333 888.581 988.947 888.421 989.64C888.261 990.32 888.181 991.02 888.181 991.74L886.421 990.56C886.421 988.813 886.748 987.253 887.401 985.88C888.055 984.507 888.981 983.42 890.181 982.62C891.395 981.807 892.828 981.4 894.481 981.4C896.188 981.4 897.541 981.76 898.541 982.48C899.541 983.187 900.255 984.147 900.681 985.36C901.121 986.573 901.341 987.933 901.341 989.44C901.341 990 901.341 990.747 901.341 991.68C901.341 992.6 901.341 993.687 901.341 994.94V1003H896.121ZM882.921 1003V981.76H888.181V1003H882.921ZM909.241 1003V994.4C909.241 993.56 909.241 992.847 909.241 992.26C909.241 991.673 909.241 991.18 909.241 990.78C909.241 990.22 909.208 989.66 909.141 989.1C909.075 988.527 908.928 988.013 908.701 987.56C908.475 987.093 908.121 986.72 907.641 986.44C907.161 986.147 906.508 986 905.681 986C904.868 986 904.181 986.16 903.621 986.48C903.075 986.8 902.635 987.227 902.301 987.76C901.968 988.293 901.721 988.893 901.561 989.56C901.415 990.227 901.341 990.893 901.341 991.56L899.581 990.4C899.581 988.707 899.901 987.18 900.541 985.82C901.181 984.46 902.101 983.387 903.301 982.6C904.501 981.8 905.928 981.4 907.581 981.4C909.248 981.4 910.588 981.74 911.601 982.42C912.615 983.1 913.348 984.033 913.801 985.22C914.268 986.393 914.501 987.733 914.501 989.24C914.501 989.827 914.501 990.573 914.501 991.48C914.501 992.387 914.501 993.46 914.501 994.7V1003H909.241ZM931.122 1003.44C929.469 1003.44 927.935 1003.01 926.522 1002.16C925.122 1001.29 923.989 1000.11 923.122 998.62C922.269 997.127 921.842 995.447 921.842 993.58C921.842 993.527 921.842 993.48 921.842 993.44C921.842 993.387 921.842 993.34 921.842 993.3L924.442 993.24C924.442 993.267 924.442 993.3 924.442 993.34C924.442 993.38 924.442 993.413 924.442 993.44C924.442 994.48 924.702 995.407 925.222 996.22C925.742 997.02 926.415 997.653 927.242 998.12C928.082 998.573 928.975 998.8 929.922 998.8C931.455 998.8 932.762 998.273 933.842 997.22C934.922 996.167 935.462 994.533 935.462 992.32C935.462 990.093 934.922 988.467 933.842 987.44C932.775 986.4 931.469 985.88 929.922 985.88C928.989 985.88 928.102 986.107 927.262 986.56C926.435 987 925.755 987.613 925.222 988.4C924.702 989.187 924.442 990.107 924.442 991.16L921.842 991.04C921.842 989.16 922.269 987.493 923.122 986.04C923.989 984.587 925.122 983.453 926.522 982.64C927.935 981.813 929.469 981.4 931.122 981.4C932.842 981.4 934.442 981.827 935.922 982.68C937.415 983.52 938.615 984.753 939.522 986.38C940.442 987.993 940.902 989.973 940.902 992.32C940.902 994.733 940.455 996.767 939.562 998.42C938.669 1000.07 937.482 1001.33 936.002 1002.18C934.522 1003.02 932.895 1003.44 931.122 1003.44ZM919.162 1003V971.74H924.442V1003H919.162ZM946.816 994.08V990.34H961.676L961.076 991.34C961.076 991.26 961.076 991.173 961.076 991.08C961.076 990.973 961.076 990.887 961.076 990.82C961.076 989.9 960.869 989.04 960.456 988.24C960.042 987.427 959.416 986.773 958.576 986.28C957.736 985.773 956.669 985.52 955.376 985.52C954.096 985.52 952.982 985.793 952.036 986.34C951.102 986.873 950.376 987.647 949.856 988.66C949.349 989.673 949.096 990.887 949.096 992.3C949.096 993.753 949.342 995.007 949.836 996.06C950.329 997.1 951.049 997.9 951.996 998.46C952.956 999.007 954.122 999.28 955.496 999.28C956.429 999.28 957.236 999.193 957.916 999.02C958.596 998.847 959.149 998.613 959.576 998.32C960.016 998.013 960.342 997.687 960.556 997.34C960.782 996.993 960.916 996.647 960.956 996.3H966.196C966.116 997.193 965.816 998.067 965.296 998.92C964.789 999.76 964.076 1000.53 963.156 1001.22C962.236 1001.9 961.116 1002.45 959.796 1002.86C958.489 1003.26 956.996 1003.46 955.316 1003.46C953.036 1003.46 951.042 1002.99 949.336 1002.06C947.629 1001.13 946.296 999.827 945.336 998.16C944.389 996.493 943.916 994.587 943.916 992.44C943.916 990.24 944.396 988.313 945.356 986.66C946.329 985.007 947.676 983.72 949.396 982.8C951.116 981.867 953.089 981.4 955.316 981.4C957.609 981.4 959.589 981.867 961.256 982.8C962.936 983.733 964.229 985.033 965.136 986.7C966.042 988.353 966.496 990.28 966.496 992.48C966.496 992.76 966.489 993.06 966.476 993.38C966.462 993.7 966.442 993.933 966.416 994.08H946.816ZM979.252 1003.44C977.506 1003.44 975.886 1003.02 974.392 1002.18C972.912 1001.33 971.726 1000.07 970.832 998.42C969.939 996.767 969.492 994.733 969.492 992.32C969.492 989.973 969.946 987.987 970.852 986.36C971.772 984.733 972.972 983.5 974.452 982.66C975.946 981.82 977.546 981.4 979.252 981.4C980.919 981.4 982.459 981.813 983.872 982.64C985.286 983.453 986.419 984.587 987.272 986.04C988.126 987.493 988.552 989.16 988.552 991.04C988.552 991.093 988.552 991.147 988.552 991.2C988.552 991.253 988.552 991.307 988.552 991.36L985.952 991.42C985.952 991.38 985.952 991.34 985.952 991.3C985.952 991.247 985.952 991.2 985.952 991.16C985.952 990.107 985.686 989.187 985.152 988.4C984.632 987.613 983.952 987 983.112 986.56C982.286 986.107 981.406 985.88 980.472 985.88C978.939 985.88 977.632 986.4 976.552 987.44C975.472 988.467 974.932 990.093 974.932 992.32C974.932 994.533 975.472 996.167 976.552 997.22C977.632 998.273 978.939 998.8 980.472 998.8C981.446 998.8 982.346 998.567 983.172 998.1C983.999 997.633 984.666 996.993 985.172 996.18C985.692 995.353 985.952 994.407 985.952 993.34L988.552 993.46C988.552 995.327 988.132 997.02 987.292 998.54C986.466 1000.05 985.352 1001.24 983.952 1002.12C982.552 1003 980.986 1003.44 979.252 1003.44ZM985.952 1003V971.74H991.232V1003H985.952ZM1004.83 1003.44C1003.08 1003.44 1001.46 1003.02 999.969 1002.18C998.489 1001.33 997.302 1000.07 996.409 998.42C995.515 996.767 995.069 994.733 995.069 992.32C995.069 989.973 995.522 987.987 996.429 986.36C997.349 984.733 998.549 983.5 1000.03 982.66C1001.52 981.82 1003.12 981.4 1004.83 981.4C1006.5 981.4 1008.04 981.813 1009.45 982.64C1010.86 983.453 1012 984.587 1012.85 986.04C1013.7 987.493 1014.13 989.16 1014.13 991.04C1014.13 991.093 1014.13 991.147 1014.13 991.2C1014.13 991.253 1014.13 991.307 1014.13 991.36L1011.53 991.42C1011.53 991.38 1011.53 991.34 1011.53 991.3C1011.53 991.247 1011.53 991.2 1011.53 991.16C1011.53 990.107 1011.26 989.187 1010.73 988.4C1010.21 987.613 1009.53 987 1008.69 986.56C1007.86 986.107 1006.98 985.88 1006.05 985.88C1004.52 985.88 1003.21 986.4 1002.13 987.44C1001.05 988.467 1000.51 990.093 1000.51 992.32C1000.51 994.533 1001.05 996.167 1002.13 997.22C1003.21 998.273 1004.52 998.8 1006.05 998.8C1007.02 998.8 1007.92 998.567 1008.75 998.1C1009.58 997.633 1010.24 996.993 1010.75 996.18C1011.27 995.353 1011.53 994.407 1011.53 993.34L1014.13 993.46C1014.13 995.327 1013.71 997.02 1012.87 998.54C1012.04 1000.05 1010.93 1001.24 1009.53 1002.12C1008.13 1003 1006.56 1003.44 1004.83 1003.44ZM1011.53 1003V971.74H1016.81V1003H1011.53ZM1023.55 994.08V990.34H1038.41L1037.81 991.34C1037.81 991.26 1037.81 991.173 1037.81 991.08C1037.81 990.973 1037.81 990.887 1037.81 990.82C1037.81 989.9 1037.6 989.04 1037.19 988.24C1036.77 987.427 1036.15 986.773 1035.31 986.28C1034.47 985.773 1033.4 985.52 1032.11 985.52C1030.83 985.52 1029.71 985.793 1028.77 986.34C1027.83 986.873 1027.11 987.647 1026.59 988.66C1026.08 989.673 1025.83 990.887 1025.83 992.3C1025.83 993.753 1026.07 995.007 1026.57 996.06C1027.06 997.1 1027.78 997.9 1028.73 998.46C1029.69 999.007 1030.85 999.28 1032.23 999.28C1033.16 999.28 1033.97 999.193 1034.65 999.02C1035.33 998.847 1035.88 998.613 1036.31 998.32C1036.75 998.013 1037.07 997.687 1037.29 997.34C1037.51 996.993 1037.65 996.647 1037.69 996.3H1042.93C1042.85 997.193 1042.55 998.067 1042.03 998.92C1041.52 999.76 1040.81 1000.53 1039.89 1001.22C1038.97 1001.9 1037.85 1002.45 1036.53 1002.86C1035.22 1003.26 1033.73 1003.46 1032.05 1003.46C1029.77 1003.46 1027.77 1002.99 1026.07 1002.06C1024.36 1001.13 1023.03 999.827 1022.07 998.16C1021.12 996.493 1020.65 994.587 1020.65 992.44C1020.65 990.24 1021.13 988.313 1022.09 986.66C1023.06 985.007 1024.41 983.72 1026.13 982.8C1027.85 981.867 1029.82 981.4 1032.05 981.4C1034.34 981.4 1036.32 981.867 1037.99 982.8C1039.67 983.733 1040.96 985.033 1041.87 986.7C1042.77 988.353 1043.23 990.28 1043.23 992.48C1043.23 992.76 1043.22 993.06 1043.21 993.38C1043.19 993.7 1043.17 993.933 1043.15 994.08H1023.55ZM1055.98 1003.44C1054.24 1003.44 1052.62 1003.02 1051.12 1002.18C1049.64 1001.33 1048.46 1000.07 1047.56 998.42C1046.67 996.767 1046.22 994.733 1046.22 992.32C1046.22 989.973 1046.68 987.987 1047.58 986.36C1048.5 984.733 1049.7 983.5 1051.18 982.66C1052.68 981.82 1054.28 981.4 1055.98 981.4C1057.65 981.4 1059.19 981.813 1060.6 982.64C1062.02 983.453 1063.15 984.587 1064 986.04C1064.86 987.493 1065.28 989.16 1065.28 991.04C1065.28 991.093 1065.28 991.147 1065.28 991.2C1065.28 991.253 1065.28 991.307 1065.28 991.36L1062.68 991.42C1062.68 991.38 1062.68 991.34 1062.68 991.3C1062.68 991.247 1062.68 991.2 1062.68 991.16C1062.68 990.107 1062.42 989.187 1061.88 988.4C1061.36 987.613 1060.68 987 1059.84 986.56C1059.02 986.107 1058.14 985.88 1057.2 985.88C1055.67 985.88 1054.36 986.4 1053.28 987.44C1052.2 988.467 1051.66 990.093 1051.66 992.32C1051.66 994.533 1052.2 996.167 1053.28 997.22C1054.36 998.273 1055.67 998.8 1057.2 998.8C1058.18 998.8 1059.08 998.567 1059.9 998.1C1060.73 997.633 1061.4 996.993 1061.9 996.18C1062.42 995.353 1062.68 994.407 1062.68 993.34L1065.28 993.46C1065.28 995.327 1064.86 997.02 1064.02 998.54C1063.2 1000.05 1062.08 1001.24 1060.68 1002.12C1059.28 1003 1057.72 1003.44 1055.98 1003.44ZM1062.68 1003V971.74H1067.96V1003H1062.68ZM1088.48 1003.1L1080.96 973.5H1086.78L1092.54 999.64H1092.28L1097.98 973.5H1103.8L1096.34 1003.1H1088.48ZM1107.19 1003V981.76H1112.39V1003H1107.19ZM1109.81 977.84C1108.96 977.84 1108.21 977.613 1107.57 977.16C1106.94 976.693 1106.63 976.047 1106.63 975.22C1106.63 974.407 1106.94 973.773 1107.57 973.32C1108.21 972.867 1108.96 972.64 1109.81 972.64C1110.65 972.64 1111.38 972.867 1112.01 973.32C1112.64 973.773 1112.95 974.407 1112.95 975.22C1112.95 976.047 1112.64 976.693 1112.01 977.16C1111.38 977.613 1110.65 977.84 1109.81 977.84ZM1119.16 994.08V990.34H1134.02L1133.42 991.34C1133.42 991.26 1133.42 991.173 1133.42 991.08C1133.42 990.973 1133.42 990.887 1133.42 990.82C1133.42 989.9 1133.22 989.04 1132.8 988.24C1132.39 987.427 1131.76 986.773 1130.92 986.28C1130.08 985.773 1129.02 985.52 1127.72 985.52C1126.44 985.52 1125.33 985.793 1124.38 986.34C1123.45 986.873 1122.72 987.647 1122.2 988.66C1121.7 989.673 1121.44 990.887 1121.44 992.3C1121.44 993.753 1121.69 995.007 1122.18 996.06C1122.68 997.1 1123.4 997.9 1124.34 998.46C1125.3 999.007 1126.47 999.28 1127.84 999.28C1128.78 999.28 1129.58 999.193 1130.26 999.02C1130.94 998.847 1131.5 998.613 1131.92 998.32C1132.36 998.013 1132.69 997.687 1132.9 997.34C1133.13 996.993 1133.26 996.647 1133.3 996.3H1138.54C1138.46 997.193 1138.16 998.067 1137.64 998.92C1137.14 999.76 1136.42 1000.53 1135.5 1001.22C1134.58 1001.9 1133.46 1002.45 1132.14 1002.86C1130.84 1003.26 1129.34 1003.46 1127.66 1003.46C1125.38 1003.46 1123.39 1002.99 1121.68 1002.06C1119.98 1001.13 1118.64 999.827 1117.68 998.16C1116.74 996.493 1116.26 994.587 1116.26 992.44C1116.26 990.24 1116.74 988.313 1117.7 986.66C1118.68 985.007 1120.02 983.72 1121.74 982.8C1123.46 981.867 1125.44 981.4 1127.66 981.4C1129.96 981.4 1131.94 981.867 1133.6 982.8C1135.28 983.733 1136.58 985.033 1137.48 986.7C1138.39 988.353 1138.84 990.28 1138.84 992.48C1138.84 992.76 1138.84 993.06 1138.82 993.38C1138.81 993.7 1138.79 993.933 1138.76 994.08H1119.16ZM1159.43 1003L1154.49 981.76H1158.51L1163.33 1001.34H1162.47L1165.55 981.76H1171.01L1166.65 1003H1159.43ZM1144.79 1003L1140.41 981.76H1145.87L1148.97 1001.34H1148.11L1152.89 981.76H1156.91L1152.05 1003H1144.79Z" fill="#D17805"/>
<rect x="810" y="944" width="410" height="96" rx="48" stroke="#D17805" stroke-width="6"/>
<rect x="870" y="1120" width="290" height="96" rx="48" fill="#E9D6FF"/>
<path d="M991.712 1178.12L978.592 1170.18V1166.58L991.712 1158.62V1163.04L980.692 1168.96V1167.8L991.712 1173.68V1178.12ZM1007.61 1179.4C1006.1 1179.4 1004.85 1179.15 1003.85 1178.64C1002.86 1178.13 1002.08 1177.47 1001.51 1176.64C1000.95 1175.81 1000.55 1174.9 1000.31 1173.9C1000.08 1172.9 999.969 1171.9 999.969 1170.9C999.969 1170.41 999.969 1169.89 999.969 1169.36C999.969 1168.83 999.969 1168.29 999.969 1167.74V1157.76H1005.25V1166.92C1005.25 1167.4 1005.25 1167.86 1005.25 1168.3C1005.25 1168.74 1005.25 1169.15 1005.25 1169.54C1005.25 1170.49 1005.36 1171.37 1005.59 1172.18C1005.82 1172.98 1006.23 1173.63 1006.83 1174.12C1007.44 1174.61 1008.3 1174.86 1009.41 1174.86C1010.46 1174.86 1011.37 1174.55 1012.13 1173.94C1012.89 1173.31 1013.48 1172.53 1013.89 1171.58C1014.32 1170.63 1014.53 1169.67 1014.53 1168.7L1016.33 1169.9C1016.33 1171.19 1016.13 1172.41 1015.73 1173.56C1015.33 1174.69 1014.75 1175.7 1013.99 1176.58C1013.23 1177.46 1012.31 1178.15 1011.23 1178.66C1010.16 1179.15 1008.96 1179.4 1007.61 1179.4ZM1014.53 1179V1157.76H1019.79V1179H1014.53ZM1029.93 1147.74V1179H1024.75V1147.74H1029.93ZM1038.27 1158.62L1051.37 1166.58V1170.18L1038.27 1178.12V1173.68L1049.29 1167.8V1168.96L1038.27 1163.04V1158.62Z" fill="#5F00B2"/>
<rect x="870" y="1120" width="290" height="96" rx="48" stroke="#5F00B2" stroke-width="6"/>
<path d="M1015 1056V1104" stroke="#2A3751" stroke-width="6" stroke-linecap="round" stroke-linejoin="round"/>
<rect x="530" y="64" width="223" height="96" rx="48" fill="#D6E4FF"/>
<path d="M597.181 122.12L584.061 114.18V110.58L597.181 102.62V107.04L586.161 112.96V111.8L597.181 117.68V122.12ZM604.058 123L611.678 93.46H619.998L627.558 123H622.138L615.818 96.72H615.858L609.478 123H604.058ZM608.978 115.82V111.6H622.698V115.82H608.978ZM631.054 131.74V101.76H636.314V131.74H631.054ZM643.014 123.44C641.361 123.44 639.827 123.013 638.414 122.16C637.014 121.293 635.881 120.113 635.014 118.62C634.161 117.127 633.734 115.447 633.734 113.58C633.734 113.527 633.734 113.48 633.734 113.44C633.734 113.387 633.734 113.34 633.734 113.3L636.334 113.24C636.334 113.267 636.334 113.3 636.334 113.34C636.334 113.38 636.334 113.413 636.334 113.44C636.334 114.48 636.594 115.407 637.114 116.22C637.634 117.02 638.307 117.653 639.134 118.12C639.974 118.573 640.867 118.8 641.814 118.8C643.347 118.8 644.654 118.273 645.734 117.22C646.814 116.167 647.354 114.533 647.354 112.32C647.354 110.093 646.814 108.467 645.734 107.44C644.667 106.4 643.361 105.88 641.814 105.88C640.881 105.88 639.994 106.107 639.154 106.56C638.327 107 637.647 107.613 637.114 108.4C636.594 109.187 636.334 110.107 636.334 111.16L633.734 111.04C633.734 109.16 634.161 107.493 635.014 106.04C635.881 104.587 637.014 103.453 638.414 102.64C639.827 101.813 641.361 101.4 643.014 101.4C644.734 101.4 646.334 101.82 647.814 102.66C649.307 103.5 650.507 104.733 651.414 106.36C652.334 107.987 652.794 109.973 652.794 112.32C652.794 114.733 652.347 116.767 651.454 118.42C650.561 120.073 649.374 121.327 647.894 122.18C646.414 123.02 644.787 123.44 643.014 123.44ZM656.748 131.74V101.76H662.008V131.74H656.748ZM668.708 123.44C667.054 123.44 665.521 123.013 664.108 122.16C662.708 121.293 661.574 120.113 660.708 118.62C659.854 117.127 659.428 115.447 659.428 113.58C659.428 113.527 659.428 113.48 659.428 113.44C659.428 113.387 659.428 113.34 659.428 113.3L662.028 113.24C662.028 113.267 662.028 113.3 662.028 113.34C662.028 113.38 662.028 113.413 662.028 113.44C662.028 114.48 662.288 115.407 662.808 116.22C663.328 117.02 664.001 117.653 664.828 118.12C665.668 118.573 666.561 118.8 667.508 118.8C669.041 118.8 670.348 118.273 671.428 117.22C672.508 116.167 673.048 114.533 673.048 112.32C673.048 110.093 672.508 108.467 671.428 107.44C670.361 106.4 669.054 105.88 667.508 105.88C666.574 105.88 665.688 106.107 664.848 106.56C664.021 107 663.341 107.613 662.808 108.4C662.288 109.187 662.028 110.107 662.028 111.16L659.428 111.04C659.428 109.16 659.854 107.493 660.708 106.04C661.574 104.587 662.708 103.453 664.108 102.64C665.521 101.813 667.054 101.4 668.708 101.4C670.428 101.4 672.028 101.82 673.508 102.66C675.001 103.5 676.201 104.733 677.108 106.36C678.028 107.987 678.488 109.973 678.488 112.32C678.488 114.733 678.041 116.767 677.148 118.42C676.254 120.073 675.068 121.327 673.588 122.18C672.108 123.02 670.481 123.44 668.708 123.44ZM685.802 102.62L698.902 110.58V114.18L685.802 122.12V117.68L696.822 111.8V112.96L685.802 107.04V102.62Z" fill="#0F2CBD"/>
<rect x="530" y="64" width="223" height="96" rx="48" stroke="#0F2CBD" stroke-width="6"/>
</svg>
