<svg width="292" height="210" viewBox="0 0 292 210" fill="none" xmlns="http://www.w3.org/2000/svg">
<mask id="path-1-outside-1" maskUnits="userSpaceOnUse" x="78" y="30.6361" width="174" height="135" fill="black">
<rect fill="white" x="78" y="30.6361" width="174" height="135"/>
<path fill-rule="evenodd" clip-rule="evenodd" d="M197.343 31.929L203.707 38.293C204.098 38.6835 204.098 39.3167 203.707 39.7072L197.343 46.0711C196.953 46.4617 196.319 46.4617 195.929 46.0711C195.538 45.6806 195.538 45.0474 195.929 44.6569L200.586 40.0001H157V38.0001H200.586L195.929 33.3432C195.538 32.9527 195.538 32.3195 195.929 31.929C196.319 31.5385 196.953 31.5385 197.343 31.929ZM250.071 120.343L243.707 126.707C243.317 127.098 242.683 127.098 242.293 126.707L235.929 120.343C235.538 119.953 235.538 119.32 235.929 118.929C236.319 118.538 236.953 118.538 237.343 118.929L242 123.586V114.939L161.414 114.939L166.071 119.596C166.462 119.986 166.462 120.619 166.071 121.01C165.68 121.401 165.047 121.401 164.657 121.01L158.293 114.646C157.902 114.256 157.902 113.622 158.293 113.232L164.657 106.868C165.047 106.477 165.68 106.477 166.071 106.868C166.462 107.258 166.462 107.892 166.071 108.282L161.414 112.939L242 112.939L242 76.5001L244 76.5001L244 113.939L244 114L244 114.939L244 123.586L248.657 118.929C249.047 118.538 249.681 118.538 250.071 118.929C250.462 119.32 250.462 119.953 250.071 120.343ZM79 90.0001V61.0001H81L81 90.0001H79ZM96.4441 149.27V148.27H95.4441L81.4441 148.27L81.4441 134.77H79.4441L79.4441 149.27L79.4441 150.27H80.4441L94.4441 150.27V163.77H96.4441V149.27Z"/>
</mask>
<path fill-rule="evenodd" clip-rule="evenodd" d="M197.343 31.929L203.707 38.293C204.098 38.6835 204.098 39.3167 203.707 39.7072L197.343 46.0711C196.953 46.4617 196.319 46.4617 195.929 46.0711C195.538 45.6806 195.538 45.0474 195.929 44.6569L200.586 40.0001H157V38.0001H200.586L195.929 33.3432C195.538 32.9527 195.538 32.3195 195.929 31.929C196.319 31.5385 196.953 31.5385 197.343 31.929ZM250.071 120.343L243.707 126.707C243.317 127.098 242.683 127.098 242.293 126.707L235.929 120.343C235.538 119.953 235.538 119.32 235.929 118.929C236.319 118.538 236.953 118.538 237.343 118.929L242 123.586V114.939L161.414 114.939L166.071 119.596C166.462 119.986 166.462 120.619 166.071 121.01C165.68 121.401 165.047 121.401 164.657 121.01L158.293 114.646C157.902 114.256 157.902 113.622 158.293 113.232L164.657 106.868C165.047 106.477 165.68 106.477 166.071 106.868C166.462 107.258 166.462 107.892 166.071 108.282L161.414 112.939L242 112.939L242 76.5001L244 76.5001L244 113.939L244 114L244 114.939L244 123.586L248.657 118.929C249.047 118.538 249.681 118.538 250.071 118.929C250.462 119.32 250.462 119.953 250.071 120.343ZM79 90.0001V61.0001H81L81 90.0001H79ZM96.4441 149.27V148.27H95.4441L81.4441 148.27L81.4441 134.77H79.4441L79.4441 149.27L79.4441 150.27H80.4441L94.4441 150.27V163.77H96.4441V149.27Z" fill="black"/>
<path d="M203.707 38.293L204.414 37.5859L204.414 37.5859L203.707 38.293ZM197.343 31.929L198.05 31.2219L198.05 31.2219L197.343 31.929ZM203.707 39.7072L204.414 40.4143L204.414 40.4143L203.707 39.7072ZM197.343 46.0711L198.05 46.7782L198.05 46.7782L197.343 46.0711ZM195.929 44.6569L196.636 45.364L196.636 45.364L195.929 44.6569ZM200.586 40.0001L201.293 40.7072L203 39.0001H200.586V40.0001ZM157 40.0001H156V41.0001H157V40.0001ZM157 38.0001V37.0001H156V38.0001H157ZM200.586 38.0001V39.0001H203L201.293 37.293L200.586 38.0001ZM195.929 33.3432L196.636 32.6361L196.636 32.6361L195.929 33.3432ZM243.707 126.707L243 126L243 126L243.707 126.707ZM250.071 120.343L249.364 119.636L249.364 119.636L250.071 120.343ZM242.293 126.707L243 126L243 126L242.293 126.707ZM235.929 120.343L235.222 121.05L235.222 121.05L235.929 120.343ZM235.929 118.929L235.222 118.222L235.222 118.222L235.929 118.929ZM237.343 118.929L236.636 119.636L236.636 119.636L237.343 118.929ZM242 123.586L241.293 124.293L243 126V123.586H242ZM242 114.939H243V113.939L242 113.939L242 114.939ZM161.414 114.939L161.414 113.939L159 113.939L160.707 115.646L161.414 114.939ZM166.071 119.596L166.778 118.889L166.778 118.889L166.071 119.596ZM164.657 121.01L165.364 120.303L165.364 120.303L164.657 121.01ZM158.293 114.646L157.586 115.353L157.586 115.353L158.293 114.646ZM158.293 113.232L159 113.939L159 113.939L158.293 113.232ZM164.657 106.868L165.364 107.575L165.364 107.575L164.657 106.868ZM166.071 106.868L165.364 107.575L165.364 107.575L166.071 106.868ZM166.071 108.282L165.364 107.575L165.364 107.575L166.071 108.282ZM161.414 112.939L160.707 112.232L159 113.939L161.414 113.939L161.414 112.939ZM242 112.939L242 113.939L243 113.939L243 112.939L242 112.939ZM242 76.5001L242 75.5001L241 75.5001L241 76.5001L242 76.5001ZM244 76.5001L245 76.5001L245 75.5001L244 75.5001L244 76.5001ZM244 113.939L243 113.939L243 113.939L244 113.939ZM244 114L245 114L245 114L244 114ZM244 114.939L243 114.939L243 114.939L244 114.939ZM244 123.586L243 123.586L243 126L244.707 124.293L244 123.586ZM248.657 118.929L249.364 119.636L249.364 119.636L248.657 118.929ZM250.071 118.929L249.364 119.636L249.364 119.636L250.071 118.929ZM79 61.0001V60.0001H78V61.0001H79ZM79 90.0001H78V91.0001H79V90.0001ZM81 61.0001L82 61.0001L82 60.0001H81V61.0001ZM81 90.0001V91.0001H82L82 90.0001L81 90.0001ZM96.4441 148.27H97.4441V147.27H96.4441V148.27ZM95.4441 148.27L95.4441 149.27H95.4441V148.27ZM81.4441 148.27L80.4441 148.27L80.4441 149.27L81.4441 149.27L81.4441 148.27ZM81.4441 134.77L82.4441 134.77L82.4441 133.77H81.4441V134.77ZM79.4441 134.77V133.77H78.4441L78.4441 134.77L79.4441 134.77ZM79.4441 149.27L78.4441 149.27L78.4441 149.27L79.4441 149.27ZM79.4441 150.27L78.4441 150.27L78.4441 151.27H79.4441V150.27ZM80.4441 150.27L80.4441 149.27H80.4441V150.27ZM94.4441 150.27H95.4441V149.27L94.4441 149.27L94.4441 150.27ZM94.4441 163.77H93.4441V164.77H94.4441V163.77ZM96.4441 163.77V164.77H97.4441V163.77H96.4441ZM204.414 37.5859L198.05 31.2219L196.636 32.6361L203 39.0001L204.414 37.5859ZM204.414 40.4143C205.195 39.6332 205.195 38.3669 204.414 37.5859L203 39.0001V39.0001L204.414 40.4143ZM198.05 46.7782L204.414 40.4143L203 39.0001L196.636 45.364L198.05 46.7782ZM195.222 46.7782C196.003 47.5593 197.269 47.5593 198.05 46.7782L196.636 45.364H196.636L195.222 46.7782ZM195.222 43.9498C194.441 44.7309 194.441 45.9972 195.222 46.7782L196.636 45.364V45.364L195.222 43.9498ZM199.879 39.293L195.222 43.9498L196.636 45.364L201.293 40.7072L199.879 39.293ZM157 41.0001H200.586V39.0001H157V41.0001ZM156 38.0001V40.0001H158V38.0001H156ZM200.586 37.0001H157V39.0001H200.586V37.0001ZM195.222 34.0503L199.879 38.7072L201.293 37.293L196.636 32.6361L195.222 34.0503ZM195.222 31.2219C194.441 32.0029 194.441 33.2693 195.222 34.0503L196.636 32.6361V32.6361L195.222 31.2219ZM198.05 31.2219C197.269 30.4408 196.003 30.4408 195.222 31.2219L196.636 32.6361H196.636L198.05 31.2219ZM244.414 127.414L250.778 121.05L249.364 119.636L243 126L244.414 127.414ZM241.586 127.414C242.367 128.195 243.633 128.195 244.414 127.414L243 126H243L241.586 127.414ZM235.222 121.05L241.586 127.414L243 126L236.636 119.636L235.222 121.05ZM235.222 118.222C234.441 119.003 234.441 120.269 235.222 121.05L236.636 119.636V119.636L235.222 118.222ZM238.05 118.222C237.269 117.441 236.003 117.441 235.222 118.222L236.636 119.636L236.636 119.636L238.05 118.222ZM242.707 122.879L238.05 118.222L236.636 119.636L241.293 124.293L242.707 122.879ZM241 114.939V123.586H243V114.939H241ZM161.414 115.939L242 115.939L242 113.939L161.414 113.939L161.414 115.939ZM166.778 118.889L162.121 114.232L160.707 115.646L165.364 120.303L166.778 118.889ZM166.778 121.717C167.559 120.936 167.559 119.67 166.778 118.889L165.364 120.303V120.303L166.778 121.717ZM163.95 121.717C164.731 122.498 165.997 122.498 166.778 121.717L165.364 120.303H165.364L163.95 121.717ZM157.586 115.353L163.95 121.717L165.364 120.303L159 113.939L157.586 115.353ZM157.586 112.525C156.805 113.306 156.805 114.572 157.586 115.353L159 113.939L159 113.939L157.586 112.525ZM163.95 106.161L157.586 112.525L159 113.939L165.364 107.575L163.95 106.161ZM166.778 106.161C165.997 105.38 164.731 105.38 163.95 106.161L165.364 107.575L165.364 107.575L166.778 106.161ZM166.778 108.989C167.559 108.208 167.559 106.942 166.778 106.161L165.364 107.575L165.364 107.575L166.778 108.989ZM162.121 113.646L166.778 108.989L165.364 107.575L160.707 112.232L162.121 113.646ZM242 111.939L161.414 111.939L161.414 113.939L242 113.939L242 111.939ZM241 76.5001L241 112.939L243 112.939L243 76.5001L241 76.5001ZM244 75.5001L242 75.5001L242 77.5001L244 77.5001L244 75.5001ZM245 113.939L245 76.5001L243 76.5001L243 113.939L245 113.939ZM245 114L245 113.939L243 113.939L243 114L245 114ZM245 114.939L245 114L243 114L243 114.939L245 114.939ZM245 123.586L245 114.939L243 114.939L243 123.586L245 123.586ZM247.95 118.222L243.293 122.879L244.707 124.293L249.364 119.636L247.95 118.222ZM250.778 118.222C249.997 117.441 248.731 117.441 247.95 118.222L249.364 119.636H249.364L250.778 118.222ZM250.778 121.05C251.559 120.269 251.559 119.003 250.778 118.222L249.364 119.636V119.636L250.778 121.05ZM78 61.0001V90.0001H80V61.0001H78ZM81 60.0001H79V62.0001H81V60.0001ZM82 90.0001L82 61.0001L80 61.0001L80 90.0001L82 90.0001ZM79 91.0001H81V89.0001H79V91.0001ZM95.4441 148.27V149.27H97.4441V148.27H95.4441ZM95.4441 149.27H96.4441V147.27H95.4441V149.27ZM81.4441 149.27L95.4441 149.27L95.4441 147.27L81.4441 147.27L81.4441 149.27ZM80.4441 134.77L80.4441 148.27L82.4441 148.27L82.4441 134.77L80.4441 134.77ZM79.4441 135.77H81.4441V133.77H79.4441V135.77ZM80.4441 149.27L80.4441 134.77L78.4441 134.77L78.4441 149.27L80.4441 149.27ZM80.4441 150.27L80.4441 149.27L78.4441 149.27L78.4441 150.27L80.4441 150.27ZM80.4441 149.27H79.4441V151.27H80.4441V149.27ZM94.4441 149.27L80.4441 149.27L80.4441 151.27L94.4441 151.27L94.4441 149.27ZM95.4441 163.77V150.27H93.4441V163.77H95.4441ZM96.4441 162.77H94.4441V164.77H96.4441V162.77ZM95.4441 149.27V163.77H97.4441V149.27H95.4441Z" fill="white" mask="url(#path-1-outside-1)"/>
<path fill-rule="evenodd" clip-rule="evenodd" d="M189 186.5C189 174.074 176.891 164 161.954 164H28.0456C20.8727 164 13.9935 166.371 8.92146 170.59C3.84942 174.81 1 180.533 1 186.5C1 198.926 13.1087 209 28.0456 209H161.954C176.891 209 189 198.926 189 186.5Z" fill="#FCE5CD" stroke="#783F04" stroke-miterlimit="8" stroke-linejoin="round"/>
<path d="M19.4404 187.34L24.9424 189.563V191.286L17.7529 187.955V186.672L24.9424 183.35V185.072L19.4404 187.34ZM35.5596 188.351C35.5596 189.804 35.2256 190.973 34.5576 191.857C33.8897 192.736 32.9932 193.176 31.8682 193.176C30.667 193.176 29.7383 192.751 29.082 191.901L29.0029 193H27.5088V179.5H29.1348V184.536C29.791 183.722 30.6963 183.314 31.8506 183.314C33.0049 183.314 33.9102 183.751 34.5664 184.624C35.2285 185.497 35.5596 186.692 35.5596 188.21V188.351ZM33.9336 188.166C33.9336 187.059 33.7197 186.203 33.292 185.6C32.8643 184.996 32.249 184.694 31.4463 184.694C30.374 184.694 29.6035 185.192 29.1348 186.188V190.302C29.6328 191.298 30.4092 191.796 31.4639 191.796C32.2432 191.796 32.8496 191.494 33.2832 190.891C33.7168 190.287 33.9336 189.379 33.9336 188.166ZM43.4873 192.06C42.8545 192.804 41.9258 193.176 40.7012 193.176C39.6875 193.176 38.9141 192.883 38.3809 192.297C37.8535 191.705 37.5869 190.832 37.5811 189.678V183.49H39.207V189.634C39.207 191.075 39.793 191.796 40.9649 191.796C42.207 191.796 43.0332 191.333 43.4434 190.407V183.49H45.0693V193H43.5225L43.4873 192.06ZM49.7539 181.188V183.49H51.5293V184.747H49.7539V190.645C49.7539 191.025 49.833 191.312 49.9912 191.506C50.1494 191.693 50.419 191.787 50.7998 191.787C50.9873 191.787 51.2451 191.752 51.5732 191.682V193C51.1455 193.117 50.7295 193.176 50.3252 193.176C49.5986 193.176 49.0508 192.956 48.6816 192.517C48.3125 192.077 48.1279 191.453 48.1279 190.645V184.747H46.3965V183.49H48.1279V181.188H49.7539ZM55.6426 181.188V183.49H57.418V184.747H55.6426V190.645C55.6426 191.025 55.7217 191.312 55.8799 191.506C56.0381 191.693 56.3076 191.787 56.6885 191.787C56.876 191.787 57.1338 191.752 57.4619 191.682V193C57.0342 193.117 56.6182 193.176 56.2139 193.176C55.4873 193.176 54.9395 192.956 54.5703 192.517C54.2012 192.077 54.0166 191.453 54.0166 190.645V184.747H52.2852V183.49H54.0166V181.188H55.6426ZM58.7188 188.157C58.7188 187.226 58.9004 186.388 59.2637 185.644C59.6328 184.899 60.1426 184.325 60.793 183.921C61.4492 183.517 62.1963 183.314 63.0342 183.314C64.3291 183.314 65.375 183.763 66.1719 184.659C66.9746 185.556 67.376 186.748 67.376 188.236V188.351C67.376 189.276 67.1973 190.108 66.8399 190.847C66.4883 191.579 65.9815 192.15 65.3193 192.561C64.6631 192.971 63.9072 193.176 63.0518 193.176C61.7627 193.176 60.7168 192.728 59.9141 191.831C59.1172 190.935 58.7188 189.748 58.7188 188.271V188.157ZM60.3535 188.351C60.3535 189.405 60.5967 190.252 61.083 190.891C61.5752 191.529 62.2315 191.849 63.0518 191.849C63.8779 191.849 64.5342 191.526 65.0205 190.882C65.5068 190.231 65.75 189.323 65.75 188.157C65.75 187.114 65.501 186.271 65.0029 185.626C64.5107 184.976 63.8545 184.65 63.0342 184.65C62.2315 184.65 61.584 184.97 61.0918 185.608C60.5996 186.247 60.3535 187.161 60.3535 188.351ZM70.9531 183.49L71.0059 184.686C71.7324 183.771 72.6816 183.314 73.8535 183.314C75.8633 183.314 76.877 184.448 76.8945 186.716V193H75.2686V186.707C75.2627 186.021 75.1045 185.515 74.794 185.187C74.4893 184.858 74.0117 184.694 73.3613 184.694C72.834 184.694 72.3711 184.835 71.9727 185.116C71.5742 185.397 71.2637 185.767 71.041 186.224V193H69.415V183.49H70.9531ZM85.5781 193H83.9522V183.49H85.5781V193ZM83.8203 180.968C83.8203 180.704 83.8994 180.481 84.0576 180.3C84.2217 180.118 84.4619 180.027 84.7783 180.027C85.0947 180.027 85.335 180.118 85.499 180.3C85.6631 180.481 85.7451 180.704 85.7451 180.968C85.7451 181.231 85.6631 181.451 85.499 181.627C85.335 181.803 85.0947 181.891 84.7783 181.891C84.4619 181.891 84.2217 181.803 84.0576 181.627C83.8994 181.451 83.8203 181.231 83.8203 180.968ZM87.793 188.166C87.793 186.707 88.1387 185.535 88.8301 184.65C89.5215 183.76 90.4268 183.314 91.5459 183.314C92.6592 183.314 93.541 183.695 94.1914 184.457V179.5H95.8174V193H94.3232L94.2441 191.98C93.5938 192.777 92.6885 193.176 91.5283 193.176C90.4268 193.176 89.5274 192.725 88.8301 191.822C88.1387 190.92 87.793 189.742 87.793 188.289V188.166ZM89.419 188.351C89.419 189.429 89.6416 190.272 90.0869 190.882C90.5322 191.491 91.1475 191.796 91.9326 191.796C92.9639 191.796 93.7168 191.333 94.1914 190.407V186.039C93.7051 185.143 92.958 184.694 91.9502 184.694C91.1533 184.694 90.5322 185.002 90.0869 185.617C89.6416 186.232 89.419 187.144 89.419 188.351ZM105.784 185.846H98.4541V184.431H105.784V185.846ZM105.784 189.493H98.4541V188.087H105.784V189.493ZM108.447 183.807L107.524 183.174C108.069 182.412 108.351 181.609 108.368 180.766V179.5H109.977V180.643C109.971 181.229 109.824 181.814 109.537 182.4C109.256 182.98 108.893 183.449 108.447 183.807ZM111.146 183.807L110.223 183.174C110.768 182.412 111.049 181.609 111.066 180.766V179.5H112.675V180.643C112.669 181.229 112.522 181.814 112.235 182.4C111.954 182.98 111.591 183.449 111.146 183.807ZM113.747 188.166C113.747 186.684 114.09 185.506 114.775 184.633C115.461 183.754 116.369 183.314 117.5 183.314C118.66 183.314 119.565 183.725 120.216 184.545L120.295 183.49H121.78V192.771C121.78 194.002 121.414 194.972 120.682 195.681C119.955 196.39 118.977 196.744 117.746 196.744C117.061 196.744 116.39 196.598 115.733 196.305C115.077 196.012 114.576 195.61 114.23 195.101L115.074 194.125C115.771 194.986 116.624 195.417 117.632 195.417C118.423 195.417 119.038 195.194 119.478 194.749C119.923 194.304 120.146 193.677 120.146 192.868V192.051C119.495 192.801 118.607 193.176 117.482 193.176C116.369 193.176 115.467 192.728 114.775 191.831C114.09 190.935 113.747 189.713 113.747 188.166ZM115.382 188.351C115.382 189.423 115.602 190.267 116.041 190.882C116.48 191.491 117.096 191.796 117.887 191.796C118.912 191.796 119.665 191.33 120.146 190.398V186.057C119.647 185.148 118.9 184.694 117.904 184.694C117.113 184.694 116.495 185.002 116.05 185.617C115.604 186.232 115.382 187.144 115.382 188.351ZM128.838 184.949C128.592 184.908 128.325 184.888 128.038 184.888C126.972 184.888 126.248 185.342 125.867 186.25V193H124.241V183.49H125.823L125.85 184.589C126.383 183.739 127.139 183.314 128.117 183.314C128.434 183.314 128.674 183.355 128.838 183.438V184.949ZM134.111 193.176C132.822 193.176 131.773 192.754 130.965 191.91C130.156 191.061 129.752 189.927 129.752 188.509V188.21C129.752 187.267 129.931 186.426 130.288 185.688C130.651 184.943 131.155 184.363 131.8 183.947C132.45 183.525 133.153 183.314 133.909 183.314C135.146 183.314 136.106 183.722 136.792 184.536C137.478 185.351 137.82 186.517 137.82 188.034V188.711H131.378C131.401 189.648 131.674 190.407 132.195 190.987C132.723 191.562 133.391 191.849 134.199 191.849C134.773 191.849 135.26 191.731 135.658 191.497C136.057 191.263 136.405 190.952 136.704 190.565L137.697 191.339C136.9 192.563 135.705 193.176 134.111 193.176ZM133.909 184.65C133.253 184.65 132.702 184.891 132.257 185.371C131.812 185.846 131.536 186.514 131.431 187.375H136.194V187.252C136.147 186.426 135.925 185.787 135.526 185.336C135.128 184.879 134.589 184.65 133.909 184.65ZM143.656 193.176C142.367 193.176 141.318 192.754 140.51 191.91C139.701 191.061 139.297 189.927 139.297 188.509V188.21C139.297 187.267 139.476 186.426 139.833 185.688C140.196 184.943 140.7 184.363 141.345 183.947C141.995 183.525 142.698 183.314 143.454 183.314C144.69 183.314 145.651 183.722 146.337 184.536C147.022 185.351 147.365 186.517 147.365 188.034V188.711H140.923C140.946 189.648 141.219 190.407 141.74 190.987C142.268 191.562 142.936 191.849 143.744 191.849C144.318 191.849 144.805 191.731 145.203 191.497C145.602 191.263 145.95 190.952 146.249 190.565L147.242 191.339C146.445 192.563 145.25 193.176 143.656 193.176ZM143.454 184.65C142.798 184.65 142.247 184.891 141.802 185.371C141.356 185.846 141.081 186.514 140.976 187.375H145.739V187.252C145.692 186.426 145.47 185.787 145.071 185.336C144.673 184.879 144.134 184.65 143.454 184.65ZM150.793 183.49L150.846 184.686C151.572 183.771 152.521 183.314 153.693 183.314C155.703 183.314 156.717 184.448 156.734 186.716V193H155.108V186.707C155.103 186.021 154.944 185.515 154.634 185.187C154.329 184.858 153.852 184.694 153.201 184.694C152.674 184.694 152.211 184.835 151.813 185.116C151.414 185.397 151.104 185.767 150.881 186.224V193H149.255V183.49H150.793ZM158.492 183.807L157.569 183.174C158.114 182.412 158.396 181.609 158.413 180.766V179.5H160.021V180.643C160.016 181.229 159.869 181.814 159.582 182.4C159.301 182.98 158.938 183.449 158.492 183.807ZM161.19 183.807L160.268 183.174C160.813 182.412 161.094 181.609 161.111 180.766V179.5H162.72V180.643C162.714 181.229 162.567 181.814 162.28 182.4C161.999 182.98 161.636 183.449 161.19 183.807ZM170.463 187.287L164.653 185.011V183.341L172.159 186.663V187.946L164.653 191.277V189.59L170.463 187.287Z" fill="black"/>
<path fill-rule="evenodd" clip-rule="evenodd" d="M157.402 38.5C157.402 26.0736 147.329 16 134.902 16H23.5C17.5326 16 11.8096 18.3706 7.59007 22.5901C3.3705 26.8097 0.999989 32.5326 0.999989 38.5C0.999989 50.9264 11.0736 61 23.5 61H134.902C147.329 61 157.402 50.9264 157.402 38.5Z" fill="#D6FCCD" stroke="#297804" stroke-miterlimit="8" stroke-linejoin="round"/>
<path d="M27.6251 39.3398L33.1271 41.5635V43.2861L25.9376 39.9551V38.6719L33.1271 35.3496V37.0723L27.6251 39.3398ZM35.298 40.166C35.298 38.707 35.6437 37.5352 36.3351 36.6504C37.0265 35.7598 37.9317 35.3145 39.0509 35.3145C40.1642 35.3145 41.046 35.6953 41.6964 36.457V31.5H43.3224V45H41.8282L41.7491 43.9805C41.0987 44.7773 40.1935 45.1758 39.0333 45.1758C37.9317 45.1758 37.0323 44.7246 36.3351 43.8223C35.6437 42.9199 35.298 41.7422 35.298 40.2891V40.166ZM36.9239 40.3506C36.9239 41.4287 37.1466 42.2725 37.5919 42.8818C38.0372 43.4912 38.6525 43.7959 39.4376 43.7959C40.4689 43.7959 41.2218 43.333 41.6964 42.4072V38.0391C41.2101 37.1426 40.463 36.6943 39.4552 36.6943C38.6583 36.6943 38.0372 37.002 37.5919 37.6172C37.1466 38.2324 36.9239 39.1436 36.9239 40.3506ZM47.6202 45H45.9942V35.4902H47.6202V45ZM45.8624 32.9678C45.8624 32.7041 45.9415 32.4814 46.0997 32.2998C46.2638 32.1182 46.504 32.0273 46.8204 32.0273C47.1368 32.0273 47.3771 32.1182 47.5411 32.2998C47.7052 32.4814 47.7872 32.7041 47.7872 32.9678C47.7872 33.2314 47.7052 33.4512 47.5411 33.627C47.3771 33.8027 47.1368 33.8906 46.8204 33.8906C46.504 33.8906 46.2638 33.8027 46.0997 33.627C45.9415 33.4512 45.8624 33.2314 45.8624 32.9678ZM53.3683 42.7939L55.7237 35.4902H57.3849L53.9747 45H52.7355L49.2901 35.4902H50.9513L53.3683 42.7939ZM65.1808 45H63.5548V35.4902H65.1808V45ZM63.423 32.9678C63.423 32.7041 63.5021 32.4814 63.6603 32.2998C63.8243 32.1182 64.0646 32.0273 64.381 32.0273C64.6974 32.0273 64.9376 32.1182 65.1017 32.2998C65.2657 32.4814 65.3478 32.7041 65.3478 32.9678C65.3478 33.2314 65.2657 33.4512 65.1017 33.627C64.9376 33.8027 64.6974 33.8906 64.381 33.8906C64.0646 33.8906 63.8243 33.8027 63.6603 33.627C63.5021 33.4512 63.423 33.2314 63.423 32.9678ZM67.3956 40.166C67.3956 38.707 67.7413 37.5352 68.4327 36.6504C69.1241 35.7598 70.0294 35.3145 71.1485 35.3145C72.2618 35.3145 73.1437 35.6953 73.7941 36.457V31.5H75.42V45H73.9259L73.8468 43.9805C73.1964 44.7773 72.2911 45.1758 71.131 45.1758C70.0294 45.1758 69.13 44.7246 68.4327 43.8223C67.7413 42.9199 67.3956 41.7422 67.3956 40.2891V40.166ZM69.0216 40.3506C69.0216 41.4287 69.2442 42.2725 69.6896 42.8818C70.1349 43.4912 70.7501 43.7959 71.5353 43.7959C72.5665 43.7959 73.3194 43.333 73.7941 42.4072V38.0391C73.3077 37.1426 72.5607 36.6943 71.5528 36.6943C70.756 36.6943 70.1349 37.002 69.6896 37.6172C69.2442 38.2324 69.0216 39.1436 69.0216 40.3506ZM85.3868 37.8457H78.0567V36.4307H85.3868V37.8457ZM85.3868 41.4932H78.0567V40.0869H85.3868V41.4932ZM88.0499 35.8066L87.1271 35.1738C87.672 34.4121 87.9532 33.6094 87.9708 32.7656V31.5H89.5792V32.6426C89.5733 33.2285 89.4269 33.8145 89.1398 34.4004C88.8585 34.9805 88.4952 35.4492 88.0499 35.8066ZM90.7482 35.8066L89.8253 35.1738C90.3702 34.4121 90.6515 33.6094 90.6691 32.7656V31.5H92.2775V32.6426C92.2716 33.2285 92.1251 33.8145 91.838 34.4004C91.5567 34.9805 91.1935 35.4492 90.7482 35.8066ZM98.8605 36.9492C98.6144 36.9082 98.3478 36.8877 98.0607 36.8877C96.9942 36.8877 96.2706 37.3418 95.8898 38.25V45H94.2638V35.4902H95.8458L95.8722 36.5889C96.4054 35.7393 97.1612 35.3145 98.1398 35.3145C98.4562 35.3145 98.6964 35.3555 98.8605 35.4375V36.9492ZM104.134 45.1758C102.845 45.1758 101.796 44.7539 100.987 43.9102C100.179 43.0605 99.7745 41.9268 99.7745 40.5088V40.21C99.7745 39.2666 99.9532 38.4258 100.311 37.6875C100.674 36.9434 101.178 36.3633 101.822 35.9473C102.473 35.5254 103.176 35.3145 103.932 35.3145C105.168 35.3145 106.129 35.7217 106.815 36.5361C107.5 37.3506 107.843 38.5166 107.843 40.0342V40.7109H101.4C101.424 41.6484 101.696 42.4072 102.218 42.9873C102.745 43.5615 103.413 43.8486 104.222 43.8486C104.796 43.8486 105.282 43.7314 105.681 43.4971C106.079 43.2627 106.428 42.9521 106.727 42.5654L107.72 43.3389C106.923 44.5635 105.728 45.1758 104.134 45.1758ZM103.932 36.6504C103.275 36.6504 102.725 36.8906 102.279 37.3711C101.834 37.8457 101.559 38.5137 101.453 39.375H106.217V39.252C106.17 38.4258 105.947 37.7871 105.549 37.3359C105.15 36.8789 104.611 36.6504 103.932 36.6504ZM109.337 40.166C109.337 38.707 109.683 37.5352 110.374 36.6504C111.066 35.7598 111.971 35.3145 113.09 35.3145C114.203 35.3145 115.085 35.6953 115.735 36.457V31.5H117.361V45H115.867L115.788 43.9805C115.138 44.7773 114.233 45.1758 113.072 45.1758C111.971 45.1758 111.071 44.7246 110.374 43.8223C109.683 42.9199 109.337 41.7422 109.337 40.2891V40.166ZM110.963 40.3506C110.963 41.4287 111.186 42.2725 111.631 42.8818C112.076 43.4912 112.692 43.7959 113.477 43.7959C114.508 43.7959 115.261 43.333 115.735 42.4072V38.0391C115.249 37.1426 114.502 36.6943 113.494 36.6943C112.697 36.6943 112.076 37.002 111.631 37.6172C111.186 38.2324 110.963 39.1436 110.963 40.3506ZM120.112 35.8066L119.19 35.1738C119.734 34.4121 120.016 33.6094 120.033 32.7656V31.5H121.642V32.6426C121.636 33.2285 121.489 33.8145 121.202 34.4004C120.921 34.9805 120.558 35.4492 120.112 35.8066ZM122.811 35.8066L121.888 35.1738C122.433 34.4121 122.714 33.6094 122.732 32.7656V31.5H124.34V32.6426C124.334 33.2285 124.188 33.8145 123.9 34.4004C123.619 34.9805 123.256 35.4492 122.811 35.8066ZM132.083 39.2871L126.274 37.0107V35.3408L133.779 38.6631V39.9463L126.274 43.2773V41.5898L132.083 39.2871Z" fill="black"/>
<path fill-rule="evenodd" clip-rule="evenodd" d="M157.402 112.5C157.402 100.074 147.329 90 134.902 90H23.5C17.5326 90 11.8096 92.3706 7.59007 96.5901C3.3705 100.81 0.999989 106.533 0.999989 112.5C0.999989 124.926 11.0736 135 23.5 135H134.902C147.329 135 157.402 124.926 157.402 112.5Z" fill="#D6FCCD" stroke="#297804" stroke-miterlimit="8" stroke-linejoin="round"/>
<path d="M23.1182 113.34L28.6201 115.563V117.286L21.4307 113.955V112.672L28.6201 109.35V111.072L23.1182 113.34ZM30.791 114.166C30.791 112.707 31.1367 111.535 31.8281 110.65C32.5195 109.76 33.4248 109.314 34.544 109.314C35.6572 109.314 36.5391 109.695 37.1895 110.457V105.5H38.8154V119H37.3213L37.2422 117.98C36.5918 118.777 35.6865 119.176 34.5264 119.176C33.4248 119.176 32.5254 118.725 31.8281 117.822C31.1367 116.92 30.791 115.742 30.791 114.289V114.166ZM32.417 114.351C32.417 115.429 32.6397 116.272 33.085 116.882C33.5303 117.491 34.1455 117.796 34.9307 117.796C35.9619 117.796 36.7149 117.333 37.1895 116.407V112.039C36.7031 111.143 35.9561 110.694 34.9482 110.694C34.1514 110.694 33.5303 111.002 33.085 111.617C32.6397 112.232 32.417 113.144 32.417 114.351ZM43.1133 119H41.4873V109.49H43.1133V119ZM41.3555 106.968C41.3555 106.704 41.4346 106.481 41.5928 106.3C41.7568 106.118 41.9971 106.027 42.3135 106.027C42.6299 106.027 42.8701 106.118 43.0342 106.3C43.1982 106.481 43.2803 106.704 43.2803 106.968C43.2803 107.231 43.1982 107.451 43.0342 107.627C42.8701 107.803 42.6299 107.891 42.3135 107.891C41.9971 107.891 41.7568 107.803 41.5928 107.627C41.4346 107.451 41.3555 107.231 41.3555 106.968ZM48.8613 116.794L51.2168 109.49H52.8779L49.4678 119H48.2285L44.7832 109.49H46.4443L48.8613 116.794ZM60.6738 119H59.0479V109.49H60.6738V119ZM58.916 106.968C58.916 106.704 58.9951 106.481 59.1533 106.3C59.3174 106.118 59.5576 106.027 59.874 106.027C60.1904 106.027 60.4307 106.118 60.5947 106.3C60.7588 106.481 60.8408 106.704 60.8408 106.968C60.8408 107.231 60.7588 107.451 60.5947 107.627C60.4307 107.803 60.1904 107.891 59.874 107.891C59.5576 107.891 59.3174 107.803 59.1533 107.627C58.9951 107.451 58.916 107.231 58.916 106.968ZM62.8887 114.166C62.8887 112.707 63.2344 111.535 63.9258 110.65C64.6172 109.76 65.5225 109.314 66.6416 109.314C67.7549 109.314 68.6367 109.695 69.2871 110.457V105.5H70.9131V119H69.419L69.3399 117.98C68.6895 118.777 67.7842 119.176 66.624 119.176C65.5225 119.176 64.6231 118.725 63.9258 117.822C63.2344 116.92 62.8887 115.742 62.8887 114.289V114.166ZM64.5147 114.351C64.5147 115.429 64.7373 116.272 65.1826 116.882C65.6279 117.491 66.2432 117.796 67.0283 117.796C68.0596 117.796 68.8125 117.333 69.2871 116.407V112.039C68.8008 111.143 68.0537 110.694 67.0459 110.694C66.249 110.694 65.6279 111.002 65.1826 111.617C64.7373 112.232 64.5147 113.144 64.5147 114.351ZM80.8799 111.846H73.5498V110.431H80.8799V111.846ZM80.8799 115.493H73.5498V114.087H80.8799V115.493ZM83.543 109.807L82.6201 109.174C83.165 108.412 83.4463 107.609 83.4639 106.766V105.5H85.0723V106.643C85.0664 107.229 84.9199 107.814 84.6328 108.4C84.3516 108.98 83.9883 109.449 83.543 109.807ZM86.2412 109.807L85.3184 109.174C85.8633 108.412 86.1445 107.609 86.1621 106.766V105.5H87.7705V106.643C87.7647 107.229 87.6182 107.814 87.3311 108.4C87.0498 108.98 86.6865 109.449 86.2412 109.807ZM97.8076 114.351C97.8076 115.804 97.4736 116.973 96.8057 117.857C96.1377 118.736 95.2412 119.176 94.1162 119.176C92.915 119.176 91.9863 118.751 91.3301 117.901L91.251 119H89.7568V105.5H91.3828V110.536C92.0391 109.722 92.9443 109.314 94.0986 109.314C95.2529 109.314 96.1582 109.751 96.8145 110.624C97.4766 111.497 97.8076 112.692 97.8076 114.21V114.351ZM96.1816 114.166C96.1816 113.059 95.9678 112.203 95.54 111.6C95.1123 110.996 94.4971 110.694 93.6943 110.694C92.6221 110.694 91.8516 111.192 91.3828 112.188V116.302C91.8809 117.298 92.6572 117.796 93.7119 117.796C94.4912 117.796 95.0977 117.494 95.5313 116.891C95.9649 116.287 96.1816 115.379 96.1816 114.166ZM101.631 119H100.005V105.5H101.631V119ZM110.112 118.06C109.479 118.804 108.551 119.176 107.326 119.176C106.313 119.176 105.539 118.883 105.006 118.297C104.479 117.705 104.212 116.832 104.206 115.678V109.49H105.832V115.634C105.832 117.075 106.418 117.796 107.59 117.796C108.832 117.796 109.658 117.333 110.068 116.407V109.49H111.694V119H110.147L110.112 118.06ZM118.119 119.176C116.83 119.176 115.781 118.754 114.973 117.91C114.164 117.061 113.76 115.927 113.76 114.509V114.21C113.76 113.267 113.938 112.426 114.296 111.688C114.659 110.943 115.163 110.363 115.808 109.947C116.458 109.525 117.161 109.314 117.917 109.314C119.153 109.314 120.114 109.722 120.8 110.536C121.485 111.351 121.828 112.517 121.828 114.034V114.711H115.386C115.409 115.648 115.682 116.407 116.203 116.987C116.73 117.562 117.398 117.849 118.207 117.849C118.781 117.849 119.268 117.731 119.666 117.497C120.064 117.263 120.413 116.952 120.712 116.565L121.705 117.339C120.908 118.563 119.713 119.176 118.119 119.176ZM117.917 110.65C117.261 110.65 116.71 110.891 116.265 111.371C115.819 111.846 115.544 112.514 115.438 113.375H120.202V113.252C120.155 112.426 119.933 111.787 119.534 111.336C119.136 110.879 118.597 110.65 117.917 110.65ZM123.814 109.807L122.892 109.174C123.437 108.412 123.718 107.609 123.735 106.766V105.5H125.344V106.643C125.338 107.229 125.191 107.814 124.904 108.4C124.623 108.98 124.26 109.449 123.814 109.807ZM126.513 109.807L125.59 109.174C126.135 108.412 126.416 107.609 126.434 106.766V105.5H128.042V106.643C128.036 107.229 127.89 107.814 127.603 108.4C127.321 108.98 126.958 109.449 126.513 109.807ZM135.785 113.287L129.976 111.011V109.341L137.481 112.663V113.946L129.976 117.277V115.59L135.785 113.287Z" fill="black"/>
<circle cx="243" cy="39" r="38" fill="#D6FCCD" stroke="#297804" stroke-width="2"/>
<path d="M221.555 43.8574C221.848 43.8574 222.132 43.8105 222.407 43.7168C222.688 43.623 222.938 43.4941 223.154 43.3301C223.371 43.1602 223.544 42.9639 223.673 42.7412C223.808 42.5127 223.878 42.2666 223.884 42.0029H225.422C225.416 42.4248 225.305 42.8291 225.088 43.2158C224.877 43.5967 224.593 43.9336 224.235 44.2266C223.878 44.5137 223.468 44.7451 223.005 44.9209C222.542 45.0908 222.059 45.1758 221.555 45.1758C220.834 45.1758 220.204 45.0469 219.665 44.7891C219.126 44.5312 218.675 44.1855 218.312 43.752C217.954 43.3125 217.685 42.8086 217.503 42.2402C217.321 41.666 217.23 41.0625 217.23 40.4297V40.0605C217.23 39.4336 217.321 38.833 217.503 38.2588C217.685 37.6846 217.954 37.1807 218.312 36.7471C218.675 36.3076 219.126 35.959 219.665 35.7012C220.204 35.4434 220.834 35.3145 221.555 35.3145C222.117 35.3145 222.633 35.4053 223.102 35.5869C223.576 35.7627 223.983 36.0059 224.323 36.3164C224.669 36.6211 224.938 36.9844 225.132 37.4062C225.325 37.8281 225.422 38.2793 225.422 38.7598H223.884C223.878 38.4727 223.813 38.2031 223.69 37.9512C223.573 37.6934 223.412 37.4678 223.207 37.2744C223.002 37.0811 222.756 36.9287 222.469 36.8174C222.188 36.7061 221.883 36.6504 221.555 36.6504C221.051 36.6504 220.626 36.7529 220.28 36.958C219.94 37.1572 219.665 37.4209 219.454 37.749C219.243 38.0713 219.091 38.4346 218.997 38.8389C218.909 39.2432 218.865 39.6504 218.865 40.0605V40.4297C218.865 40.8457 218.909 41.2588 218.997 41.6689C219.091 42.0732 219.24 42.4395 219.445 42.7676C219.656 43.0898 219.932 43.3535 220.271 43.5586C220.617 43.7578 221.045 43.8574 221.555 43.8574ZM228.568 31.5H233.429V43.5938H236.531V45H228.568V43.5938H231.803V32.915H228.568V31.5ZM239.379 35.4902H244.239V43.5938H247.342V45H239.379V43.5938H242.613V36.9053H239.379V35.4902ZM242.402 32.9941C242.402 32.7246 242.481 32.499 242.64 32.3174C242.804 32.1299 243.05 32.0361 243.378 32.0361C243.7 32.0361 243.943 32.1299 244.107 32.3174C244.271 32.499 244.354 32.7246 244.354 32.9941C244.354 33.2578 244.271 33.4775 244.107 33.6533C243.943 33.8291 243.7 33.917 243.378 33.917C243.05 33.917 242.804 33.8291 242.64 33.6533C242.481 33.4775 242.402 33.2578 242.402 32.9941ZM253.986 43.8574C254.279 43.8574 254.563 43.8105 254.839 43.7168C255.12 43.623 255.369 43.4941 255.586 43.3301C255.803 43.1602 255.976 42.9639 256.104 42.7412C256.239 42.5127 256.31 42.2666 256.315 42.0029H257.854C257.848 42.4248 257.736 42.8291 257.52 43.2158C257.309 43.5967 257.024 43.9336 256.667 44.2266C256.31 44.5137 255.899 44.7451 255.437 44.9209C254.974 45.0908 254.49 45.1758 253.986 45.1758C253.266 45.1758 252.636 45.0469 252.097 44.7891C251.558 44.5312 251.106 44.1855 250.743 43.752C250.386 43.3125 250.116 42.8086 249.935 42.2402C249.753 41.666 249.662 41.0625 249.662 40.4297V40.0605C249.662 39.4336 249.753 38.833 249.935 38.2588C250.116 37.6846 250.386 37.1807 250.743 36.7471C251.106 36.3076 251.558 35.959 252.097 35.7012C252.636 35.4434 253.266 35.3145 253.986 35.3145C254.549 35.3145 255.064 35.4053 255.533 35.5869C256.008 35.7627 256.415 36.0059 256.755 36.3164C257.101 36.6211 257.37 36.9844 257.563 37.4062C257.757 37.8281 257.854 38.2793 257.854 38.7598H256.315C256.31 38.4727 256.245 38.2031 256.122 37.9512C256.005 37.6934 255.844 37.4678 255.639 37.2744C255.434 37.0811 255.188 36.9287 254.9 36.8174C254.619 36.7061 254.314 36.6504 253.986 36.6504C253.482 36.6504 253.058 36.7529 252.712 36.958C252.372 37.1572 252.097 37.4209 251.886 37.749C251.675 38.0713 251.522 38.4346 251.429 38.8389C251.341 39.2432 251.297 39.6504 251.297 40.0605V40.4297C251.297 40.8457 251.341 41.2588 251.429 41.6689C251.522 42.0732 251.672 42.4395 251.877 42.7676C252.088 43.0898 252.363 43.3535 252.703 43.5586C253.049 43.7578 253.477 43.8574 253.986 43.8574ZM263.593 40.5615L262.397 41.7129V45H260.763V31.5H262.397V39.7617L263.461 38.6191L266.581 35.4902H268.559L264.709 39.4541L269.147 45H267.082L263.593 40.5615Z" fill="#297804"/>
<path d="M202.053 175.55C202.053 175.468 202.033 175.397 201.994 175.335C201.958 175.273 201.892 175.216 201.794 175.164C201.7 175.109 201.573 175.058 201.413 175.013C201.254 174.967 201.052 174.922 200.808 174.876C200.498 174.814 200.215 174.738 199.958 174.646C199.704 174.552 199.486 174.44 199.304 174.31C199.121 174.176 198.978 174.023 198.874 173.851C198.773 173.678 198.723 173.479 198.723 173.255C198.723 173.037 198.775 172.828 198.879 172.63C198.983 172.431 199.133 172.257 199.328 172.107C199.523 171.958 199.761 171.839 200.041 171.751C200.321 171.663 200.637 171.619 200.988 171.619C201.356 171.619 201.687 171.663 201.979 171.751C202.272 171.836 202.52 171.954 202.722 172.107C202.927 172.257 203.083 172.436 203.19 172.645C203.298 172.853 203.352 173.079 203.352 173.323H201.994C201.994 173.118 201.911 172.947 201.745 172.811C201.579 172.671 201.327 172.601 200.988 172.601C200.673 172.601 200.433 172.658 200.271 172.771C200.111 172.885 200.031 173.025 200.031 173.191C200.031 173.27 200.048 173.343 200.08 173.411C200.113 173.476 200.17 173.536 200.251 173.592C200.336 173.644 200.45 173.693 200.593 173.738C200.736 173.781 200.918 173.818 201.14 173.851C201.459 173.903 201.755 173.969 202.028 174.051C202.302 174.132 202.538 174.238 202.736 174.368C202.935 174.495 203.09 174.651 203.2 174.837C203.314 175.019 203.371 175.237 203.371 175.491C203.371 175.726 203.314 175.942 203.2 176.141C203.09 176.336 202.93 176.505 202.722 176.648C202.517 176.792 202.268 176.904 201.975 176.985C201.682 177.063 201.354 177.103 200.993 177.103C200.596 177.103 200.244 177.05 199.938 176.946C199.636 176.842 199.382 176.707 199.177 176.541C198.972 176.372 198.815 176.181 198.708 175.97C198.604 175.755 198.552 175.54 198.552 175.325H199.846C199.855 175.468 199.895 175.592 199.963 175.696C200.031 175.797 200.119 175.88 200.227 175.945C200.334 176.007 200.456 176.053 200.593 176.082C200.733 176.111 200.876 176.126 201.022 176.126C201.358 176.126 201.613 176.072 201.789 175.965C201.965 175.857 202.053 175.719 202.053 175.55ZM207.141 170.423V171.717H209.113V172.718H207.141V174.988C207.141 175.18 207.162 175.341 207.204 175.472C207.25 175.599 207.313 175.701 207.395 175.779C207.476 175.854 207.574 175.908 207.688 175.94C207.805 175.973 207.935 175.989 208.078 175.989C208.182 175.989 208.288 175.984 208.396 175.975C208.506 175.965 208.61 175.953 208.708 175.94C208.809 175.924 208.902 175.908 208.986 175.892C209.074 175.875 209.149 175.859 209.211 175.843L209.343 176.775C209.248 176.831 209.138 176.88 209.011 176.922C208.884 176.961 208.749 176.993 208.605 177.02C208.462 177.046 208.312 177.065 208.156 177.078C208.003 177.094 207.852 177.103 207.702 177.103C207.412 177.103 207.149 177.065 206.911 176.99C206.677 176.912 206.475 176.793 206.306 176.634C206.14 176.471 206.011 176.266 205.92 176.019C205.829 175.768 205.783 175.468 205.783 175.12V172.718H204.577V171.717H205.783V170.423H207.141ZM210.471 174.31C210.471 173.925 210.526 173.571 210.637 173.245C210.747 172.916 210.909 172.632 211.12 172.391C211.335 172.15 211.595 171.961 211.901 171.824C212.211 171.688 212.564 171.619 212.961 171.619C213.358 171.619 213.711 171.688 214.021 171.824C214.33 171.961 214.59 172.15 214.802 172.391C215.017 172.632 215.179 172.916 215.29 173.245C215.401 173.571 215.456 173.925 215.456 174.31V174.412C215.456 174.799 215.401 175.158 215.29 175.486C215.179 175.812 215.018 176.095 214.807 176.336C214.595 176.577 214.335 176.766 214.025 176.902C213.716 177.036 213.365 177.103 212.971 177.103C212.574 177.103 212.219 177.036 211.906 176.902C211.597 176.766 211.335 176.577 211.12 176.336C210.909 176.095 210.747 175.812 210.637 175.486C210.526 175.158 210.471 174.799 210.471 174.412V174.31ZM211.828 174.412C211.828 174.633 211.849 174.842 211.892 175.037C211.934 175.229 212.001 175.398 212.092 175.545C212.183 175.688 212.3 175.802 212.443 175.887C212.59 175.971 212.766 176.014 212.971 176.014C213.169 176.014 213.34 175.971 213.483 175.887C213.627 175.802 213.742 175.688 213.83 175.545C213.921 175.398 213.988 175.229 214.03 175.037C214.073 174.842 214.094 174.633 214.094 174.412V174.31C214.094 174.095 214.073 173.891 214.03 173.699C213.988 173.507 213.921 173.338 213.83 173.191C213.742 173.045 213.627 172.929 213.483 172.845C213.34 172.76 213.166 172.718 212.961 172.718C212.759 172.718 212.587 172.76 212.443 172.845C212.3 172.929 212.183 173.045 212.092 173.191C212.001 173.338 211.934 173.507 211.892 173.699C211.849 173.891 211.828 174.095 211.828 174.31V174.412ZM221.408 174.407C221.408 174.791 221.363 175.148 221.271 175.477C221.184 175.805 221.052 176.09 220.876 176.331C220.703 176.569 220.489 176.756 220.231 176.893C219.974 177.029 219.68 177.098 219.348 177.098C219.064 177.098 218.815 177.049 218.601 176.951C218.386 176.854 218.199 176.717 218.039 176.541V179.031H216.682V171.717H217.937L217.985 172.234C218.148 172.039 218.34 171.888 218.562 171.78C218.783 171.673 219.042 171.619 219.338 171.619C219.673 171.619 219.969 171.684 220.227 171.814C220.484 171.941 220.7 172.124 220.876 172.361C221.052 172.596 221.184 172.879 221.271 173.211C221.363 173.54 221.408 173.904 221.408 174.305V174.407ZM220.051 174.305C220.051 174.083 220.03 173.877 219.987 173.685C219.948 173.489 219.885 173.322 219.797 173.182C219.712 173.038 219.602 172.926 219.465 172.845C219.331 172.763 219.169 172.723 218.977 172.723C218.739 172.723 218.544 172.77 218.391 172.864C218.241 172.955 218.124 173.086 218.039 173.255V175.462C218.124 175.628 218.241 175.761 218.391 175.862C218.544 175.96 218.742 176.009 218.986 176.009C219.178 176.009 219.341 175.966 219.475 175.882C219.611 175.797 219.722 175.682 219.807 175.535C219.891 175.389 219.953 175.219 219.992 175.027C220.031 174.832 220.051 174.625 220.051 174.407V174.305ZM224.079 174.393V177H222.707V169.891H225.139C225.526 169.891 225.876 169.948 226.188 170.062C226.501 170.172 226.766 170.328 226.984 170.53C227.206 170.729 227.375 170.968 227.492 171.248C227.613 171.528 227.673 171.839 227.673 172.181C227.673 172.5 227.613 172.794 227.492 173.064C227.375 173.335 227.206 173.569 226.984 173.768C226.766 173.963 226.501 174.116 226.188 174.227C225.876 174.337 225.526 174.393 225.139 174.393H224.079ZM224.079 173.279H225.139C225.334 173.279 225.503 173.25 225.646 173.191C225.79 173.133 225.909 173.053 226.003 172.952C226.101 172.851 226.172 172.736 226.218 172.605C226.267 172.472 226.291 172.334 226.291 172.19C226.291 172.024 226.267 171.87 226.218 171.727C226.172 171.583 226.101 171.458 226.003 171.351C225.909 171.243 225.79 171.159 225.646 171.097C225.503 171.035 225.334 171.004 225.139 171.004H224.079V173.279ZM232.468 171.619C232.673 171.619 232.862 171.634 233.034 171.663C233.21 171.689 233.352 171.718 233.459 171.751L233.259 173.104C233.08 173.061 232.896 173.03 232.707 173.011C232.521 172.988 232.344 172.977 232.175 172.977C231.794 172.977 231.488 173.05 231.257 173.196C231.029 173.343 230.858 173.553 230.744 173.826V177H229.387V171.717H230.651L230.715 172.581C230.93 172.282 231.187 172.047 231.486 171.878C231.786 171.705 232.113 171.619 232.468 171.619ZM234.494 174.31C234.494 173.925 234.549 173.571 234.66 173.245C234.771 172.916 234.932 172.632 235.144 172.391C235.358 172.15 235.619 171.961 235.925 171.824C236.234 171.688 236.587 171.619 236.984 171.619C237.382 171.619 237.735 171.688 238.044 171.824C238.353 171.961 238.614 172.15 238.825 172.391C239.04 172.632 239.203 172.916 239.313 173.245C239.424 173.571 239.479 173.925 239.479 174.31V174.412C239.479 174.799 239.424 175.158 239.313 175.486C239.203 175.812 239.042 176.095 238.83 176.336C238.618 176.577 238.358 176.766 238.049 176.902C237.74 177.036 237.388 177.103 236.994 177.103C236.597 177.103 236.242 177.036 235.93 176.902C235.62 176.766 235.358 176.577 235.144 176.336C234.932 176.095 234.771 175.812 234.66 175.486C234.549 175.158 234.494 174.799 234.494 174.412V174.31ZM235.852 174.412C235.852 174.633 235.873 174.842 235.915 175.037C235.957 175.229 236.024 175.398 236.115 175.545C236.206 175.688 236.324 175.802 236.467 175.887C236.613 175.971 236.789 176.014 236.994 176.014C237.193 176.014 237.364 175.971 237.507 175.887C237.65 175.802 237.766 175.688 237.854 175.545C237.945 175.398 238.011 175.229 238.054 175.037C238.096 174.842 238.117 174.633 238.117 174.412V174.31C238.117 174.095 238.096 173.891 238.054 173.699C238.011 173.507 237.945 173.338 237.854 173.191C237.766 173.045 237.65 172.929 237.507 172.845C237.364 172.76 237.189 172.718 236.984 172.718C236.783 172.718 236.61 172.76 236.467 172.845C236.324 172.929 236.206 173.045 236.115 173.191C236.024 173.338 235.957 173.507 235.915 173.699C235.873 173.891 235.852 174.095 235.852 174.31V174.412ZM245.432 174.407C245.432 174.791 245.386 175.148 245.295 175.477C245.207 175.805 245.075 176.09 244.899 176.331C244.727 176.569 244.512 176.756 244.255 176.893C243.998 177.029 243.703 177.098 243.371 177.098C243.088 177.098 242.839 177.049 242.624 176.951C242.409 176.854 242.222 176.717 242.062 176.541V179.031H240.705V171.717H241.96L242.009 172.234C242.172 172.039 242.364 171.888 242.585 171.78C242.806 171.673 243.065 171.619 243.361 171.619C243.697 171.619 243.993 171.684 244.25 171.814C244.507 171.941 244.724 172.124 244.899 172.361C245.075 172.596 245.207 172.879 245.295 173.211C245.386 173.54 245.432 173.904 245.432 174.305V174.407ZM244.074 174.305C244.074 174.083 244.053 173.877 244.011 173.685C243.972 173.489 243.908 173.322 243.82 173.182C243.736 173.038 243.625 172.926 243.488 172.845C243.355 172.763 243.192 172.723 243 172.723C242.762 172.723 242.567 172.77 242.414 172.864C242.264 172.955 242.147 173.086 242.062 173.255V175.462C242.147 175.628 242.264 175.761 242.414 175.862C242.567 175.96 242.766 176.009 243.01 176.009C243.202 176.009 243.365 175.966 243.498 175.882C243.635 175.797 243.745 175.682 243.83 175.535C243.915 175.389 243.977 175.219 244.016 175.027C244.055 174.832 244.074 174.625 244.074 174.407V174.305ZM249.992 177C249.96 176.935 249.932 176.86 249.909 176.775C249.886 176.691 249.867 176.601 249.851 176.507C249.776 176.588 249.689 176.665 249.592 176.736C249.494 176.808 249.385 176.871 249.265 176.927C249.147 176.979 249.017 177.02 248.874 177.049C248.731 177.081 248.576 177.098 248.41 177.098C248.14 177.098 247.891 177.059 247.663 176.98C247.438 176.902 247.245 176.793 247.082 176.653C246.919 176.513 246.792 176.347 246.701 176.155C246.61 175.96 246.564 175.748 246.564 175.521C246.564 174.964 246.771 174.534 247.185 174.231C247.601 173.925 248.221 173.772 249.045 173.772H249.802V173.46C249.802 173.206 249.719 173.006 249.553 172.859C249.387 172.71 249.147 172.635 248.835 172.635C248.558 172.635 248.356 172.695 248.229 172.815C248.103 172.933 248.039 173.09 248.039 173.289H246.682C246.682 173.064 246.73 172.851 246.828 172.649C246.929 172.448 247.074 172.27 247.263 172.117C247.455 171.964 247.688 171.844 247.961 171.756C248.238 171.665 248.553 171.619 248.908 171.619C249.227 171.619 249.523 171.658 249.797 171.736C250.074 171.814 250.313 171.93 250.515 172.083C250.716 172.236 250.874 172.43 250.988 172.664C251.102 172.895 251.159 173.164 251.159 173.47V175.735C251.159 176.019 251.177 176.253 251.213 176.438C251.249 176.624 251.301 176.784 251.369 176.917V177H249.992ZM248.698 176.048C248.835 176.048 248.962 176.032 249.079 175.999C249.196 175.966 249.302 175.924 249.396 175.872C249.491 175.82 249.572 175.761 249.641 175.696C249.709 175.628 249.763 175.56 249.802 175.491V174.583H249.108C248.897 174.583 248.716 174.604 248.566 174.646C248.417 174.686 248.295 174.743 248.2 174.817C248.106 174.889 248.036 174.977 247.99 175.081C247.945 175.182 247.922 175.293 247.922 175.413C247.922 175.595 247.985 175.747 248.112 175.867C248.243 175.988 248.438 176.048 248.698 176.048ZM252.561 174.319C252.561 173.919 252.609 173.553 252.707 173.221C252.808 172.889 252.951 172.604 253.137 172.366C253.322 172.129 253.547 171.945 253.811 171.814C254.074 171.684 254.372 171.619 254.704 171.619C255.013 171.619 255.279 171.671 255.5 171.775C255.721 171.88 255.91 172.028 256.066 172.22L256.12 171.717H257.355V176.829C257.355 177.187 257.294 177.506 257.17 177.786C257.049 178.066 256.879 178.302 256.657 178.494C256.439 178.686 256.175 178.831 255.866 178.929C255.56 179.03 255.222 179.08 254.851 179.08C254.691 179.08 254.52 179.064 254.338 179.031C254.156 178.999 253.975 178.948 253.796 178.88C253.617 178.812 253.448 178.724 253.288 178.616C253.129 178.512 252.992 178.387 252.878 178.24L253.488 177.415C253.661 177.61 253.856 177.758 254.074 177.859C254.292 177.964 254.528 178.016 254.782 178.016C255.163 178.016 255.459 177.913 255.671 177.708C255.886 177.506 255.993 177.218 255.993 176.844V176.541C255.834 176.717 255.646 176.854 255.432 176.951C255.22 177.049 254.974 177.098 254.694 177.098C254.366 177.098 254.069 177.031 253.806 176.897C253.545 176.761 253.322 176.574 253.137 176.336C252.951 176.098 252.808 175.817 252.707 175.491C252.609 175.162 252.561 174.806 252.561 174.422V174.319ZM253.923 174.422C253.923 174.643 253.944 174.85 253.986 175.042C254.032 175.231 254.1 175.397 254.191 175.54C254.283 175.68 254.398 175.791 254.538 175.872C254.678 175.953 254.844 175.994 255.036 175.994C255.274 175.994 255.469 175.949 255.622 175.857C255.778 175.766 255.902 175.639 255.993 175.477V173.24C255.902 173.074 255.778 172.947 255.622 172.859C255.469 172.768 255.277 172.723 255.046 172.723C254.854 172.723 254.688 172.765 254.548 172.85C254.408 172.931 254.291 173.045 254.196 173.191C254.105 173.335 254.037 173.504 253.991 173.699C253.946 173.891 253.923 174.098 253.923 174.319V174.422ZM262.004 177C261.971 176.935 261.944 176.86 261.921 176.775C261.898 176.691 261.879 176.601 261.862 176.507C261.787 176.588 261.701 176.665 261.604 176.736C261.506 176.808 261.397 176.871 261.276 176.927C261.159 176.979 261.029 177.02 260.886 177.049C260.743 177.081 260.588 177.098 260.422 177.098C260.152 177.098 259.903 177.059 259.675 176.98C259.45 176.902 259.257 176.793 259.094 176.653C258.931 176.513 258.804 176.347 258.713 176.155C258.622 175.96 258.576 175.748 258.576 175.521C258.576 174.964 258.783 174.534 259.196 174.231C259.613 173.925 260.233 173.772 261.057 173.772H261.813V173.46C261.813 173.206 261.73 173.006 261.564 172.859C261.398 172.71 261.159 172.635 260.847 172.635C260.57 172.635 260.368 172.695 260.241 172.815C260.114 172.933 260.051 173.09 260.051 173.289H258.693C258.693 173.064 258.742 172.851 258.84 172.649C258.941 172.448 259.086 172.27 259.274 172.117C259.466 171.964 259.699 171.844 259.973 171.756C260.249 171.665 260.565 171.619 260.92 171.619C261.239 171.619 261.535 171.658 261.809 171.736C262.085 171.814 262.325 171.93 262.526 172.083C262.728 172.236 262.886 172.43 263 172.664C263.114 172.895 263.171 173.164 263.171 173.47V175.735C263.171 176.019 263.189 176.253 263.225 176.438C263.26 176.624 263.312 176.784 263.381 176.917V177H262.004ZM260.71 176.048C260.847 176.048 260.974 176.032 261.091 175.999C261.208 175.966 261.314 175.924 261.408 175.872C261.503 175.82 261.584 175.761 261.652 175.696C261.721 175.628 261.774 175.56 261.813 175.491V174.583H261.12C260.909 174.583 260.728 174.604 260.578 174.646C260.428 174.686 260.306 174.743 260.212 174.817C260.118 174.889 260.048 174.977 260.002 175.081C259.956 175.182 259.934 175.293 259.934 175.413C259.934 175.595 259.997 175.747 260.124 175.867C260.254 175.988 260.45 176.048 260.71 176.048ZM267.199 170.423V171.717H269.172V172.718H267.199V174.988C267.199 175.18 267.22 175.341 267.263 175.472C267.308 175.599 267.372 175.701 267.453 175.779C267.535 175.854 267.632 175.908 267.746 175.94C267.863 175.973 267.993 175.989 268.137 175.989C268.241 175.989 268.347 175.984 268.454 175.975C268.565 175.965 268.669 175.953 268.767 175.94C268.868 175.924 268.96 175.908 269.045 175.892C269.133 175.875 269.208 175.859 269.27 175.843L269.401 176.775C269.307 176.831 269.196 176.88 269.069 176.922C268.942 176.961 268.807 176.993 268.664 177.02C268.521 177.046 268.371 177.065 268.215 177.078C268.062 177.094 267.91 177.103 267.761 177.103C267.471 177.103 267.207 177.065 266.97 176.99C266.735 176.912 266.534 176.793 266.364 176.634C266.198 176.471 266.07 176.266 265.979 176.019C265.887 175.768 265.842 175.468 265.842 175.12V172.718H264.636V171.717H265.842V170.423H267.199ZM271.076 171.717H273.952V175.896H275.383V177H271.076V175.896H272.58V172.825H271.076V171.717ZM272.482 170.364C272.482 170.26 272.5 170.164 272.536 170.076C272.575 169.985 272.629 169.909 272.697 169.847C272.766 169.782 272.847 169.731 272.941 169.695C273.039 169.66 273.146 169.642 273.264 169.642C273.505 169.642 273.695 169.71 273.835 169.847C273.978 169.98 274.05 170.153 274.05 170.364C274.05 170.576 273.978 170.75 273.835 170.887C273.695 171.02 273.505 171.087 273.264 171.087C273.146 171.087 273.039 171.069 272.941 171.033C272.847 170.997 272.766 170.949 272.697 170.887C272.629 170.822 272.575 170.745 272.536 170.657C272.5 170.566 272.482 170.468 272.482 170.364ZM276.535 174.31C276.535 173.925 276.59 173.571 276.701 173.245C276.812 172.916 276.973 172.632 277.185 172.391C277.399 172.15 277.66 171.961 277.966 171.824C278.275 171.688 278.628 171.619 279.025 171.619C279.423 171.619 279.776 171.688 280.085 171.824C280.394 171.961 280.655 172.15 280.866 172.391C281.081 172.632 281.244 172.916 281.354 173.245C281.465 173.571 281.521 173.925 281.521 174.31V174.412C281.521 174.799 281.465 175.158 281.354 175.486C281.244 175.812 281.083 176.095 280.871 176.336C280.66 176.577 280.399 176.766 280.09 176.902C279.781 177.036 279.429 177.103 279.035 177.103C278.638 177.103 278.283 177.036 277.971 176.902C277.661 176.766 277.399 176.577 277.185 176.336C276.973 176.095 276.812 175.812 276.701 175.486C276.59 175.158 276.535 174.799 276.535 174.412V174.31ZM277.893 174.412C277.893 174.633 277.914 174.842 277.956 175.037C277.998 175.229 278.065 175.398 278.156 175.545C278.247 175.688 278.365 175.802 278.508 175.887C278.654 175.971 278.83 176.014 279.035 176.014C279.234 176.014 279.405 175.971 279.548 175.887C279.691 175.802 279.807 175.688 279.895 175.545C279.986 175.398 280.052 175.229 280.095 175.037C280.137 174.842 280.158 174.633 280.158 174.412V174.31C280.158 174.095 280.137 173.891 280.095 173.699C280.052 173.507 279.986 173.338 279.895 173.191C279.807 173.045 279.691 172.929 279.548 172.845C279.405 172.76 279.23 172.718 279.025 172.718C278.824 172.718 278.651 172.76 278.508 172.845C278.365 172.929 278.247 173.045 278.156 173.191C278.065 173.338 277.998 173.507 277.956 173.699C277.914 173.891 277.893 174.095 277.893 174.31V174.412ZM283.957 171.717L284.04 172.449C284.229 172.186 284.458 171.982 284.729 171.839C284.999 171.692 285.298 171.619 285.627 171.619C285.894 171.619 286.138 171.658 286.359 171.736C286.581 171.814 286.771 171.94 286.931 172.112C287.093 172.282 287.219 172.501 287.307 172.771C287.398 173.038 287.443 173.364 287.443 173.748V177H286.086V173.768C286.086 173.559 286.062 173.388 286.013 173.255C285.967 173.118 285.9 173.011 285.812 172.933C285.725 172.854 285.619 172.801 285.495 172.771C285.371 172.739 285.231 172.723 285.075 172.723C284.844 172.723 284.647 172.77 284.484 172.864C284.322 172.955 284.19 173.082 284.089 173.245V177H282.727V171.717H283.957Z" fill="#780404"/>
<path d="M243 130C233.064 130 225 138.064 225 148C225 157.936 233.064 166 243 166C252.936 166 261 157.936 261 148C261 138.064 252.936 130 243 130ZM230.4 148C230.4 141.038 236.038 135.4 243 135.4C245.506 135.4 247.835 136.133 249.789 137.4L232.4 154.789C231.133 152.835 230.4 150.506 230.4 148ZM243 160.6C240.494 160.6 238.165 159.867 236.211 158.6L253.6 141.211C254.867 143.165 255.6 145.494 255.6 148C255.6 154.962 249.962 160.6 243 160.6Z" fill="#FCCDCD" stroke="#780404" stroke-width="2"/>
</svg>
