<svg width="523" height="123" viewBox="0 0 523 123" fill="none" xmlns="http://www.w3.org/2000/svg">
<path fill-rule="evenodd" clip-rule="evenodd" d="M185.547 23.7954C185.547 11.369 195.621 1.29541 208.047 1.29541H319.45C325.417 1.29541 331.14 3.66594 335.36 7.8855C339.579 12.1051 341.95 17.828 341.95 23.7954C341.95 36.2218 331.876 46.2954 319.45 46.2954H208.047C195.621 46.2954 185.547 36.2218 185.547 23.7954Z" fill="#D9D2E9" stroke="#382074" stroke-miterlimit="8" stroke-linejoin="round"/>
<path fill-rule="evenodd" clip-rule="evenodd" d="M1 99.5C1 87.0736 11.0815 77 23.5177 77H135.008C140.98 77 146.707 79.3706 150.93 83.5901C155.153 87.8097 157.526 93.5326 157.526 99.5C157.526 111.926 147.444 122 135.008 122H23.5177C11.0815 122 1 111.926 1 99.5Z" fill="#FCE5CD" stroke="#783F04" stroke-miterlimit="8" stroke-linejoin="round"/>
<path d="M55.5674 100.085H50.0215V104.62H56.4639V106H48.334V93.2031H56.376V94.5918H50.0215V98.7051H55.5674V100.085ZM60.0762 106H58.4502V92.5H60.0762V106ZM66.6328 106.176C65.3438 106.176 64.2949 105.754 63.4863 104.91C62.6777 104.061 62.2734 102.927 62.2734 101.509V101.21C62.2734 100.267 62.4521 99.4258 62.8096 98.6875C63.1729 97.9434 63.6768 97.3633 64.3213 96.9473C64.9717 96.5254 65.6748 96.3145 66.4307 96.3145C67.667 96.3145 68.6279 96.7217 69.3135 97.5361C69.999 98.3506 70.3418 99.5166 70.3418 101.034V101.711H63.8994C63.9229 102.648 64.1953 103.407 64.7168 103.987C65.2441 104.562 65.9121 104.849 66.7207 104.849C67.2949 104.849 67.7812 104.731 68.1797 104.497C68.5781 104.263 68.9268 103.952 69.2256 103.565L70.2188 104.339C69.4219 105.563 68.2266 106.176 66.6328 106.176ZM66.4307 97.6504C65.7744 97.6504 65.2236 97.8906 64.7783 98.3711C64.333 98.8457 64.0576 99.5137 63.9521 100.375H68.7158V100.252C68.6689 99.4258 68.4463 98.7871 68.0479 98.3359C67.6494 97.8789 67.1104 97.6504 66.4307 97.6504ZM73.7607 96.4902L73.8047 97.5449C74.502 96.7246 75.4424 96.3145 76.626 96.3145C77.9561 96.3145 78.8613 96.8242 79.3418 97.8438C79.6582 97.3867 80.0684 97.0176 80.5723 96.7363C81.082 96.4551 81.6826 96.3145 82.374 96.3145C84.46 96.3145 85.5205 97.4189 85.5557 99.6279V106H83.9297V99.7246C83.9297 99.0449 83.7744 98.5381 83.4639 98.2041C83.1533 97.8643 82.6318 97.6943 81.8994 97.6943C81.2959 97.6943 80.7949 97.876 80.3965 98.2393C79.998 98.5967 79.7666 99.0801 79.7021 99.6895V106H78.0674V99.7686C78.0674 98.3857 77.3906 97.6943 76.0371 97.6943C74.9707 97.6943 74.2412 98.1484 73.8486 99.0566V106H72.2227V96.4902H73.7607ZM91.9629 106.176C90.6738 106.176 89.625 105.754 88.8164 104.91C88.0078 104.061 87.6035 102.927 87.6035 101.509V101.21C87.6035 100.267 87.7822 99.4258 88.1396 98.6875C88.5029 97.9434 89.0068 97.3633 89.6514 96.9473C90.3018 96.5254 91.0049 96.3145 91.7607 96.3145C92.9971 96.3145 93.958 96.7217 94.6436 97.5361C95.3291 98.3506 95.6719 99.5166 95.6719 101.034V101.711H89.2295C89.2529 102.648 89.5254 103.407 90.0469 103.987C90.5742 104.562 91.2422 104.849 92.0508 104.849C92.625 104.849 93.1113 104.731 93.5098 104.497C93.9082 104.263 94.2568 103.952 94.5557 103.565L95.5488 104.339C94.752 105.563 93.5566 106.176 91.9629 106.176ZM91.7607 97.6504C91.1045 97.6504 90.5537 97.8906 90.1084 98.3711C89.6631 98.8457 89.3877 99.5137 89.2822 100.375H94.0459V100.252C93.999 99.4258 93.7764 98.7871 93.3779 98.3359C92.9795 97.8789 92.4404 97.6504 91.7607 97.6504ZM99.0996 96.4902L99.1523 97.6855C99.8789 96.7715 100.828 96.3145 102 96.3145C104.01 96.3145 105.023 97.4482 105.041 99.7158V106H103.415V99.707C103.409 99.0215 103.251 98.5146 102.94 98.1865C102.636 97.8584 102.158 97.6943 101.508 97.6943C100.98 97.6943 100.518 97.835 100.119 98.1162C99.7207 98.3975 99.4102 98.7666 99.1875 99.2236V106H97.5615V96.4902H99.0996ZM109.699 94.1875V96.4902H111.475V97.7471H109.699V103.645C109.699 104.025 109.778 104.312 109.937 104.506C110.095 104.693 110.364 104.787 110.745 104.787C110.933 104.787 111.19 104.752 111.519 104.682V106C111.091 106.117 110.675 106.176 110.271 106.176C109.544 106.176 108.996 105.956 108.627 105.517C108.258 105.077 108.073 104.453 108.073 103.645V97.7471H106.342V96.4902H108.073V94.1875H109.699Z" fill="black"/>
<path d="M236.877 19.5918H232.764V31H231.085V19.5918H226.98V18.2031H236.877V19.5918ZM241.588 31.1758C240.299 31.1758 239.25 30.7539 238.441 29.9102C237.633 29.0605 237.229 27.9268 237.229 26.5088V26.21C237.229 25.2666 237.407 24.4258 237.765 23.6875C238.128 22.9434 238.632 22.3633 239.276 21.9473C239.927 21.5254 240.63 21.3145 241.386 21.3145C242.622 21.3145 243.583 21.7217 244.269 22.5361C244.954 23.3506 245.297 24.5166 245.297 26.0342V26.7109H238.854C238.878 27.6484 239.15 28.4072 239.672 28.9873C240.199 29.5615 240.867 29.8486 241.676 29.8486C242.25 29.8486 242.736 29.7314 243.135 29.4971C243.533 29.2627 243.882 28.9521 244.181 28.5654L245.174 29.3389C244.377 30.5635 243.182 31.1758 241.588 31.1758ZM241.386 22.6504C240.729 22.6504 240.179 22.8906 239.733 23.3711C239.288 23.8457 239.013 24.5137 238.907 25.375H243.671V25.252C243.624 24.4258 243.401 23.7871 243.003 23.3359C242.604 22.8789 242.065 22.6504 241.386 22.6504ZM248.716 21.4902L248.76 22.5449C249.457 21.7246 250.397 21.3145 251.581 21.3145C252.911 21.3145 253.816 21.8242 254.297 22.8438C254.613 22.3867 255.023 22.0176 255.527 21.7363C256.037 21.4551 256.638 21.3145 257.329 21.3145C259.415 21.3145 260.476 22.4189 260.511 24.6279V31H258.885V24.7246C258.885 24.0449 258.729 23.5381 258.419 23.2041C258.108 22.8643 257.587 22.6943 256.854 22.6943C256.251 22.6943 255.75 22.876 255.352 23.2393C254.953 23.5967 254.722 24.0801 254.657 24.6895V31H253.022V24.7686C253.022 23.3857 252.346 22.6943 250.992 22.6943C249.926 22.6943 249.196 23.1484 248.804 24.0566V31H247.178V21.4902H248.716ZM271.005 26.3506C271.005 27.7979 270.674 28.9639 270.012 29.8486C269.35 30.7334 268.453 31.1758 267.322 31.1758C266.168 31.1758 265.26 30.8096 264.598 30.0771V34.6562H262.972V21.4902H264.457L264.536 22.5449C265.198 21.7246 266.118 21.3145 267.296 21.3145C268.438 21.3145 269.341 21.7451 270.003 22.6064C270.671 23.4678 271.005 24.666 271.005 26.2012V26.3506ZM269.379 26.166C269.379 25.0938 269.15 24.2471 268.693 23.626C268.236 23.0049 267.609 22.6943 266.812 22.6943C265.828 22.6943 265.09 23.1309 264.598 24.0039V28.5479C265.084 29.415 265.828 29.8486 266.83 29.8486C267.609 29.8486 268.228 29.541 268.685 28.9258C269.147 28.3047 269.379 27.3848 269.379 26.166ZM274.846 31H273.22V17.5H274.846V31ZM283.327 31C283.233 30.8125 283.157 30.4785 283.099 29.998C282.343 30.7832 281.44 31.1758 280.392 31.1758C279.454 31.1758 278.684 30.9121 278.08 30.3848C277.482 29.8516 277.184 29.1777 277.184 28.3633C277.184 27.373 277.559 26.6055 278.309 26.0605C279.064 25.5098 280.125 25.2344 281.49 25.2344H283.072V24.4873C283.072 23.9189 282.902 23.4678 282.562 23.1338C282.223 22.7939 281.722 22.624 281.06 22.624C280.479 22.624 279.993 22.7705 279.601 23.0635C279.208 23.3564 279.012 23.7109 279.012 24.127H277.377C277.377 23.6523 277.544 23.1953 277.878 22.7559C278.218 22.3105 278.675 21.959 279.249 21.7012C279.829 21.4434 280.465 21.3145 281.156 21.3145C282.252 21.3145 283.11 21.5898 283.731 22.1406C284.353 22.6855 284.675 23.4385 284.698 24.3994V28.7764C284.698 29.6494 284.81 30.3438 285.032 30.8594V31H283.327ZM280.629 29.7607C281.139 29.7607 281.622 29.6289 282.079 29.3652C282.536 29.1016 282.867 28.7588 283.072 28.3369V26.3857H281.798C279.806 26.3857 278.81 26.9688 278.81 28.1348C278.81 28.6445 278.979 29.043 279.319 29.3301C279.659 29.6172 280.096 29.7607 280.629 29.7607ZM289.453 19.1875V21.4902H291.229V22.7471H289.453V28.6445C289.453 29.0254 289.532 29.3125 289.69 29.5059C289.849 29.6934 290.118 29.7871 290.499 29.7871C290.687 29.7871 290.944 29.752 291.272 29.6816V31C290.845 31.1172 290.429 31.1758 290.024 31.1758C289.298 31.1758 288.75 30.9561 288.381 30.5166C288.012 30.0771 287.827 29.4531 287.827 28.6445V22.7471H286.096V21.4902H287.827V19.1875H289.453ZM297.082 31.1758C295.793 31.1758 294.744 30.7539 293.936 29.9102C293.127 29.0605 292.723 27.9268 292.723 26.5088V26.21C292.723 25.2666 292.901 24.4258 293.259 23.6875C293.622 22.9434 294.126 22.3633 294.771 21.9473C295.421 21.5254 296.124 21.3145 296.88 21.3145C298.116 21.3145 299.077 21.7217 299.763 22.5361C300.448 23.3506 300.791 24.5166 300.791 26.0342V26.7109H294.349C294.372 27.6484 294.645 28.4072 295.166 28.9873C295.693 29.5615 296.361 29.8486 297.17 29.8486C297.744 29.8486 298.23 29.7314 298.629 29.4971C299.027 29.2627 299.376 28.9521 299.675 28.5654L300.668 29.3389C299.871 30.5635 298.676 31.1758 297.082 31.1758ZM296.88 22.6504C296.224 22.6504 295.673 22.8906 295.228 23.3711C294.782 23.8457 294.507 24.5137 294.401 25.375H299.165V25.252C299.118 24.4258 298.896 23.7871 298.497 23.3359C298.099 22.8789 297.56 22.6504 296.88 22.6504Z" fill="black"/>
<path fill-rule="evenodd" clip-rule="evenodd" d="M365.788 99.5C365.788 87.0736 375.862 77 388.288 77H499.69C505.658 77 511.381 79.3705 515.6 83.5901C519.82 87.8096 522.19 93.5326 522.19 99.5C522.19 111.926 512.117 122 499.69 122H388.288C375.862 122 365.788 111.926 365.788 99.5Z" fill="#F4CCCC" stroke="#5B0F00" stroke-miterlimit="8" stroke-linejoin="round"/>
<path fill-rule="evenodd" clip-rule="evenodd" d="M186 99.5C186 87.0736 196.074 77 208.5 77H319.902C325.87 77 331.593 79.3706 335.812 83.5901C340.032 87.8097 342.402 93.5326 342.402 99.5C342.402 111.926 332.329 122 319.902 122H208.5C196.074 122 186 111.926 186 99.5Z" fill="#D9D2E9" stroke="#351C75" stroke-miterlimit="8" stroke-linejoin="round"/>
<path d="M365.788 98.936H353.291" stroke="#666666" stroke-miterlimit="8" stroke-linejoin="round"/>
<path fill-rule="evenodd" clip-rule="evenodd" d="M353.291 95.6404L344.238 98.936L353.291 102.231V95.6404Z" fill="#666666" stroke="#666666" stroke-miterlimit="10"/>
<path d="M237.474 94.5918H233.361V106H231.682V94.5918H227.578V93.2031H237.474V94.5918ZM242.185 106.176C240.896 106.176 239.847 105.754 239.039 104.91C238.23 104.061 237.826 102.927 237.826 101.509V101.21C237.826 100.267 238.004 99.4258 238.362 98.6875C238.725 97.9434 239.229 97.3633 239.874 96.9473C240.524 96.5254 241.227 96.3145 241.983 96.3145C243.219 96.3145 244.18 96.7217 244.866 97.5361C245.551 98.3506 245.894 99.5166 245.894 101.034V101.711H239.452C239.475 102.648 239.748 103.407 240.269 103.987C240.796 104.562 241.464 104.849 242.273 104.849C242.847 104.849 243.334 104.731 243.732 104.497C244.13 104.263 244.479 103.952 244.778 103.565L245.771 104.339C244.974 105.563 243.779 106.176 242.185 106.176ZM241.983 97.6504C241.327 97.6504 240.776 97.8906 240.331 98.3711C239.885 98.8457 239.61 99.5137 239.504 100.375H244.268V100.252C244.221 99.4258 243.999 98.7871 243.6 98.3359C243.202 97.8789 242.663 97.6504 241.983 97.6504ZM249.313 96.4902L249.357 97.5449C250.054 96.7246 250.995 96.3145 252.178 96.3145C253.508 96.3145 254.414 96.8242 254.894 97.8438C255.211 97.3867 255.621 97.0176 256.125 96.7363C256.634 96.4551 257.235 96.3145 257.926 96.3145C260.012 96.3145 261.073 97.4189 261.108 99.6279V106H259.482V99.7246C259.482 99.0449 259.327 98.5381 259.016 98.2041C258.706 97.8643 258.184 97.6943 257.452 97.6943C256.848 97.6943 256.347 97.876 255.949 98.2393C255.55 98.5967 255.319 99.0801 255.254 99.6895V106H253.62V99.7686C253.62 98.3857 252.943 97.6943 251.589 97.6943C250.523 97.6943 249.794 98.1484 249.401 99.0566V106H247.775V96.4902H249.313ZM271.602 101.351C271.602 102.798 271.271 103.964 270.609 104.849C269.947 105.733 269.05 106.176 267.919 106.176C266.765 106.176 265.857 105.81 265.195 105.077V109.656H263.569V96.4902H265.054L265.133 97.5449C265.795 96.7246 266.715 96.3145 267.893 96.3145C269.036 96.3145 269.938 96.7451 270.6 97.6064C271.268 98.4678 271.602 99.666 271.602 101.201V101.351ZM269.976 101.166C269.976 100.094 269.748 99.2471 269.291 98.626C268.834 98.0049 268.207 97.6943 267.41 97.6943C266.425 97.6943 265.687 98.1309 265.195 99.0039V103.548C265.681 104.415 266.425 104.849 267.427 104.849C268.207 104.849 268.825 104.541 269.282 103.926C269.745 103.305 269.976 102.385 269.976 101.166ZM275.443 106H273.817V92.5H275.443V106ZM283.924 106C283.831 105.812 283.754 105.479 283.696 104.998C282.94 105.783 282.038 106.176 280.989 106.176C280.051 106.176 279.281 105.912 278.677 105.385C278.08 104.852 277.781 104.178 277.781 103.363C277.781 102.373 278.156 101.605 278.906 101.061C279.662 100.51 280.722 100.234 282.087 100.234H283.669V99.4873C283.669 98.9189 283.5 98.4678 283.16 98.1338C282.82 97.7939 282.319 97.624 281.657 97.624C281.077 97.624 280.59 97.7705 280.198 98.0635C279.805 98.3564 279.609 98.7109 279.609 99.127H277.974C277.974 98.6523 278.141 98.1953 278.475 97.7559C278.815 97.3105 279.272 96.959 279.846 96.7012C280.426 96.4434 281.062 96.3145 281.753 96.3145C282.849 96.3145 283.708 96.5898 284.329 97.1406C284.95 97.6855 285.272 98.4385 285.295 99.3994V103.776C285.295 104.649 285.407 105.344 285.629 105.859V106H283.924ZM281.226 104.761C281.736 104.761 282.219 104.629 282.676 104.365C283.133 104.102 283.464 103.759 283.669 103.337V101.386H282.395C280.403 101.386 279.407 101.969 279.407 103.135C279.407 103.645 279.577 104.043 279.917 104.33C280.256 104.617 280.693 104.761 281.226 104.761ZM290.05 94.1875V96.4902H291.826V97.7471H290.05V103.645C290.05 104.025 290.129 104.312 290.288 104.506C290.446 104.693 290.715 104.787 291.096 104.787C291.284 104.787 291.542 104.752 291.87 104.682V106C291.442 106.117 291.026 106.176 290.622 106.176C289.895 106.176 289.347 105.956 288.978 105.517C288.609 105.077 288.424 104.453 288.424 103.645V97.7471H286.693V96.4902H288.424V94.1875H290.05ZM297.679 106.176C296.39 106.176 295.341 105.754 294.533 104.91C293.724 104.061 293.32 102.927 293.32 101.509V101.21C293.32 100.267 293.499 99.4258 293.856 98.6875C294.219 97.9434 294.723 97.3633 295.368 96.9473C296.018 96.5254 296.721 96.3145 297.477 96.3145C298.713 96.3145 299.674 96.7217 300.36 97.5361C301.045 98.3506 301.388 99.5166 301.388 101.034V101.711H294.946C294.969 102.648 295.242 103.407 295.763 103.987C296.291 104.562 296.959 104.849 297.767 104.849C298.341 104.849 298.828 104.731 299.226 104.497C299.625 104.263 299.973 103.952 300.272 103.565L301.265 104.339C300.468 105.563 299.273 106.176 297.679 106.176ZM297.477 97.6504C296.821 97.6504 296.27 97.8906 295.825 98.3711C295.379 98.8457 295.104 99.5137 294.999 100.375H299.762V100.252C299.715 99.4258 299.493 98.7871 299.094 98.3359C298.696 97.8789 298.157 97.6504 297.477 97.6504Z" fill="black"/>
<path d="M429.86 103.759L433.516 93.2031H435.362L430.616 106H429.122L424.384 93.2031H426.221L429.86 103.759ZM438.596 106H436.97V96.4902H438.596V106ZM436.838 93.9678C436.838 93.7041 436.918 93.4814 437.076 93.2998C437.24 93.1182 437.48 93.0273 437.796 93.0273C438.113 93.0273 438.353 93.1182 438.517 93.2998C438.681 93.4814 438.763 93.7041 438.763 93.9678C438.763 94.2314 438.681 94.4512 438.517 94.627C438.353 94.8027 438.113 94.8906 437.796 94.8906C437.48 94.8906 437.24 94.8027 437.076 94.627C436.918 94.4512 436.838 94.2314 436.838 93.9678ZM445.153 106.176C443.864 106.176 442.815 105.754 442.006 104.91C441.198 104.061 440.794 102.927 440.794 101.509V101.21C440.794 100.267 440.972 99.4258 441.33 98.6875C441.693 97.9434 442.197 97.3633 442.841 96.9473C443.492 96.5254 444.195 96.3145 444.951 96.3145C446.187 96.3145 447.148 96.7217 447.834 97.5361C448.519 98.3506 448.862 99.5166 448.862 101.034V101.711H442.419C442.443 102.648 442.715 103.407 443.237 103.987C443.764 104.562 444.432 104.849 445.241 104.849C445.815 104.849 446.301 104.731 446.7 104.497C447.098 104.263 447.447 103.952 447.746 103.565L448.739 104.339C447.942 105.563 446.747 106.176 445.153 106.176ZM444.951 97.6504C444.294 97.6504 443.744 97.8906 443.298 98.3711C442.853 98.8457 442.578 99.5137 442.472 100.375H447.236V100.252C447.189 99.4258 446.966 98.7871 446.568 98.3359C446.169 97.8789 445.63 97.6504 444.951 97.6504ZM459.171 103.759L461 96.4902H462.626L459.857 106H458.539L456.227 98.793L453.977 106H452.659L449.899 96.4902H451.516L453.388 103.609L455.603 96.4902H456.913L459.171 103.759Z" fill="black"/>
<path d="M265 46L265 77" stroke="#666666"/>
<path d="M265 46V62H447V77" stroke="#666666"/>
<path d="M265 46V62H73V77" stroke="#666666"/>
</svg>
