<svg width="1559" height="988" viewBox="0 0 1559 988" fill="none" xmlns="http://www.w3.org/2000/svg">
<rect x="95" y="120" width="664" height="356" rx="60" fill="#8AB0FC" fill-opacity="0.32" stroke="#8AB0FC" stroke-width="6"/>
<path d="M88.7704 226L79.7704 226C74.3704 226 70.2388 230.188 67.7433 233.815C65.2478 237.442 64.0001 242.269 64.0001 248.296L64 579L64 634.009C64 640.036 65.2478 644.863 67.7433 648.49C70.2388 652.117 74.3703 656.305 79.7703 656.305L88.7703 656.305M64 573L64 857.5C64 863.527 65.2478 868.354 67.7433 871.981C70.2388 875.608 74.3703 879.796 79.7703 879.796L88.7703 879.796" stroke="#2A3751" stroke-width="6" stroke-linecap="round" stroke-linejoin="round"/>
<path d="M282.23 273.5L282.23 353C282.23 359.027 283.477 363.854 285.973 367.481C288.468 371.108 292.6 375.296 298 375.296L435.5 375.296" stroke="#2A3751" stroke-width="6" stroke-linecap="round" stroke-linejoin="round"/>
<rect x="125" y="172" width="292" height="96" rx="48" fill="#FFF5CB"/>
<path d="M192.574 230.12L179.454 222.18V218.58L192.574 210.62V215.04L181.554 220.96V219.8L192.574 225.68V230.12ZM222.851 201.5V231H217.571V216.6L219.951 218.4H203.671L206.051 216.64V231H200.771V201.5H206.051V216.04L203.671 214.2H219.951L217.571 216.02V201.5H222.851ZM229.618 222.08V218.34H244.478L243.878 219.34C243.878 219.26 243.878 219.173 243.878 219.08C243.878 218.973 243.878 218.887 243.878 218.82C243.878 217.9 243.671 217.04 243.258 216.24C242.845 215.427 242.218 214.773 241.378 214.28C240.538 213.773 239.471 213.52 238.178 213.52C236.898 213.52 235.785 213.793 234.838 214.34C233.905 214.873 233.178 215.647 232.658 216.66C232.151 217.673 231.898 218.887 231.898 220.3C231.898 221.753 232.145 223.007 232.638 224.06C233.131 225.1 233.851 225.9 234.798 226.46C235.758 227.007 236.925 227.28 238.298 227.28C239.231 227.28 240.038 227.193 240.718 227.02C241.398 226.847 241.951 226.613 242.378 226.32C242.818 226.013 243.145 225.687 243.358 225.34C243.585 224.993 243.718 224.647 243.758 224.3H248.998C248.918 225.193 248.618 226.067 248.098 226.92C247.591 227.76 246.878 228.527 245.958 229.22C245.038 229.9 243.918 230.447 242.598 230.86C241.291 231.26 239.798 231.46 238.118 231.46C235.838 231.46 233.845 230.993 232.138 230.06C230.431 229.127 229.098 227.827 228.138 226.16C227.191 224.493 226.718 222.587 226.718 220.44C226.718 218.24 227.198 216.313 228.158 214.66C229.131 213.007 230.478 211.72 232.198 210.8C233.918 209.867 235.891 209.4 238.118 209.4C240.411 209.4 242.391 209.867 244.058 210.8C245.738 211.733 247.031 213.033 247.938 214.7C248.845 216.353 249.298 218.28 249.298 220.48C249.298 220.76 249.291 221.06 249.278 221.38C249.265 221.7 249.245 221.933 249.218 222.08H229.618ZM260.515 231.44C258.928 231.44 257.535 231.193 256.335 230.7C255.135 230.193 254.195 229.467 253.515 228.52C252.835 227.573 252.495 226.433 252.495 225.1C252.495 223.647 252.888 222.453 253.675 221.52C254.475 220.573 255.548 219.847 256.895 219.34C258.241 218.82 259.735 218.487 261.375 218.34C263.801 218.1 265.495 217.873 266.455 217.66C267.428 217.433 267.915 217.073 267.915 216.58C267.915 216.567 267.915 216.56 267.915 216.56C267.915 216.547 267.915 216.54 267.915 216.54C267.915 215.607 267.495 214.887 266.655 214.38C265.815 213.873 264.628 213.62 263.095 213.62C261.481 213.62 260.241 213.907 259.375 214.48C258.521 215.04 258.095 215.933 258.095 217.16H252.895C252.895 215.493 253.335 214.087 254.215 212.94C255.108 211.78 256.328 210.9 257.875 210.3C259.421 209.7 261.175 209.4 263.135 209.4C264.961 209.4 266.635 209.673 268.155 210.22C269.675 210.767 270.895 211.593 271.815 212.7C272.735 213.807 273.195 215.187 273.195 216.84C273.195 217.12 273.195 217.4 273.195 217.68C273.195 217.96 273.195 218.24 273.195 218.52V226.52C273.195 227.027 273.208 227.527 273.235 228.02C273.275 228.5 273.348 228.933 273.455 229.32C273.588 229.747 273.748 230.107 273.935 230.4C274.121 230.693 274.268 230.893 274.375 231H269.175C269.081 230.907 268.948 230.727 268.775 230.46C268.615 230.18 268.468 229.86 268.335 229.5C268.201 229.1 268.101 228.673 268.035 228.22C267.968 227.753 267.935 227.24 267.935 226.68L268.975 227.4C268.575 228.213 267.961 228.927 267.135 229.54C266.321 230.14 265.348 230.607 264.215 230.94C263.081 231.273 261.848 231.44 260.515 231.44ZM261.795 227.3C262.888 227.3 263.901 227.113 264.835 226.74C265.768 226.367 266.521 225.793 267.095 225.02C267.668 224.233 267.955 223.227 267.955 222V219.16L269.235 220.6C268.381 220.92 267.355 221.187 266.155 221.4C264.955 221.6 263.741 221.76 262.515 221.88C260.941 222.027 259.755 222.3 258.955 222.7C258.168 223.1 257.775 223.753 257.775 224.66C257.775 225.54 258.108 226.2 258.775 226.64C259.441 227.08 260.448 227.3 261.795 227.3ZM286.498 231.44C284.752 231.44 283.132 231.02 281.638 230.18C280.158 229.327 278.972 228.073 278.078 226.42C277.185 224.767 276.738 222.733 276.738 220.32C276.738 217.973 277.192 215.987 278.098 214.36C279.018 212.733 280.218 211.5 281.698 210.66C283.192 209.82 284.792 209.4 286.498 209.4C288.165 209.4 289.705 209.813 291.118 210.64C292.532 211.453 293.665 212.587 294.518 214.04C295.372 215.493 295.798 217.16 295.798 219.04C295.798 219.093 295.798 219.147 295.798 219.2C295.798 219.253 295.798 219.307 295.798 219.36L293.198 219.42C293.198 219.38 293.198 219.34 293.198 219.3C293.198 219.247 293.198 219.2 293.198 219.16C293.198 218.107 292.932 217.187 292.398 216.4C291.878 215.613 291.198 215 290.358 214.56C289.532 214.107 288.652 213.88 287.718 213.88C286.185 213.88 284.878 214.4 283.798 215.44C282.718 216.467 282.178 218.093 282.178 220.32C282.178 222.533 282.718 224.167 283.798 225.22C284.878 226.273 286.185 226.8 287.718 226.8C288.692 226.8 289.592 226.567 290.418 226.1C291.245 225.633 291.912 224.993 292.418 224.18C292.938 223.353 293.198 222.407 293.198 221.34L295.798 221.46C295.798 223.327 295.378 225.02 294.538 226.54C293.712 228.047 292.598 229.24 291.198 230.12C289.798 231 288.232 231.44 286.498 231.44ZM293.198 231V199.74H298.478V231H293.198ZM305.215 222.08V218.34H320.075L319.475 219.34C319.475 219.26 319.475 219.173 319.475 219.08C319.475 218.973 319.475 218.887 319.475 218.82C319.475 217.9 319.268 217.04 318.855 216.24C318.442 215.427 317.815 214.773 316.975 214.28C316.135 213.773 315.068 213.52 313.775 213.52C312.495 213.52 311.382 213.793 310.435 214.34C309.502 214.873 308.775 215.647 308.255 216.66C307.748 217.673 307.495 218.887 307.495 220.3C307.495 221.753 307.742 223.007 308.235 224.06C308.728 225.1 309.448 225.9 310.395 226.46C311.355 227.007 312.522 227.28 313.895 227.28C314.828 227.28 315.635 227.193 316.315 227.02C316.995 226.847 317.548 226.613 317.975 226.32C318.415 226.013 318.742 225.687 318.955 225.34C319.182 224.993 319.315 224.647 319.355 224.3H324.595C324.515 225.193 324.215 226.067 323.695 226.92C323.188 227.76 322.475 228.527 321.555 229.22C320.635 229.9 319.515 230.447 318.195 230.86C316.888 231.26 315.395 231.46 313.715 231.46C311.435 231.46 309.442 230.993 307.735 230.06C306.028 229.127 304.695 227.827 303.735 226.16C302.788 224.493 302.315 222.587 302.315 220.44C302.315 218.24 302.795 216.313 303.755 214.66C304.728 213.007 306.075 211.72 307.795 210.8C309.515 209.867 311.488 209.4 313.715 209.4C316.008 209.4 317.988 209.867 319.655 210.8C321.335 211.733 322.628 213.033 323.535 214.7C324.442 216.353 324.895 218.28 324.895 220.48C324.895 220.76 324.888 221.06 324.875 221.38C324.862 221.7 324.842 221.933 324.815 222.08H305.215ZM328.831 231V209.76H334.091V216.82L332.871 216.14C333.005 215.22 333.251 214.353 333.611 213.54C333.971 212.713 334.451 211.993 335.051 211.38C335.651 210.753 336.378 210.267 337.231 209.92C338.085 209.573 339.058 209.4 340.151 209.4C341.018 209.4 341.698 209.467 342.191 209.6C342.698 209.72 343.011 209.82 343.131 209.9L342.171 214.72C342.038 214.627 341.765 214.513 341.351 214.38C340.951 214.233 340.411 214.16 339.731 214.16C338.651 214.16 337.745 214.347 337.011 214.72C336.291 215.08 335.718 215.573 335.291 216.2C334.865 216.813 334.558 217.493 334.371 218.24C334.185 218.973 334.091 219.707 334.091 220.44V231H328.831ZM349.409 210.62L362.509 218.58V222.18L349.409 230.12V225.68L360.429 219.8V220.96L349.409 215.04V210.62Z" fill="#D17805"/>
<rect x="125" y="172" width="292" height="96" rx="48" stroke="#D17805" stroke-width="6"/>
<rect x="384.5" y="325" width="290" height="96" rx="48" fill="#C9FBE2"/>
<path d="M454.531 383.12L441.411 375.18V371.58L454.531 363.62V368.04L443.511 373.96V372.8L454.531 378.68V383.12ZM483.648 354.5H492.608V384H487.588V357.86L487.708 357.9L481.368 384H474.328L467.908 357.88L468.028 357.82V384H463.008V354.5H471.968L477.948 381.12H477.608L483.648 354.5ZM508.141 384.42C505.901 384.42 503.928 383.953 502.221 383.02C500.514 382.073 499.174 380.767 498.201 379.1C497.241 377.433 496.761 375.527 496.761 373.38C496.761 371.22 497.241 369.32 498.201 367.68C499.174 366.027 500.514 364.733 502.221 363.8C503.928 362.867 505.901 362.4 508.141 362.4C510.381 362.4 512.354 362.867 514.061 363.8C515.768 364.733 517.101 366.027 518.061 367.68C519.034 369.32 519.521 371.22 519.521 373.38C519.521 375.527 519.034 377.433 518.061 379.1C517.101 380.767 515.768 382.073 514.061 383.02C512.354 383.953 510.381 384.42 508.141 384.42ZM508.141 380.12C509.354 380.12 510.414 379.84 511.321 379.28C512.228 378.72 512.934 377.94 513.441 376.94C513.948 375.927 514.201 374.74 514.201 373.38C514.201 372.02 513.948 370.847 513.441 369.86C512.934 368.86 512.228 368.087 511.321 367.54C510.414 366.993 509.354 366.72 508.141 366.72C506.941 366.72 505.881 366.993 504.961 367.54C504.054 368.087 503.348 368.86 502.841 369.86C502.334 370.847 502.081 372.02 502.081 373.38C502.081 374.74 502.334 375.927 502.841 376.94C503.348 377.94 504.054 378.72 504.961 379.28C505.881 379.84 506.941 380.12 508.141 380.12ZM532.293 384.44C530.546 384.44 528.926 384.02 527.433 383.18C525.953 382.327 524.766 381.073 523.873 379.42C522.979 377.767 522.533 375.733 522.533 373.32C522.533 370.973 522.986 368.987 523.893 367.36C524.813 365.733 526.013 364.5 527.493 363.66C528.986 362.82 530.586 362.4 532.293 362.4C533.959 362.4 535.499 362.813 536.913 363.64C538.326 364.453 539.459 365.587 540.313 367.04C541.166 368.493 541.593 370.16 541.593 372.04C541.593 372.093 541.593 372.147 541.593 372.2C541.593 372.253 541.593 372.307 541.593 372.36L538.993 372.42C538.993 372.38 538.993 372.34 538.993 372.3C538.993 372.247 538.993 372.2 538.993 372.16C538.993 371.107 538.726 370.187 538.193 369.4C537.673 368.613 536.993 368 536.153 367.56C535.326 367.107 534.446 366.88 533.513 366.88C531.979 366.88 530.673 367.4 529.593 368.44C528.513 369.467 527.973 371.093 527.973 373.32C527.973 375.533 528.513 377.167 529.593 378.22C530.673 379.273 531.979 379.8 533.513 379.8C534.486 379.8 535.386 379.567 536.213 379.1C537.039 378.633 537.706 377.993 538.213 377.18C538.733 376.353 538.993 375.407 538.993 374.34L541.593 374.46C541.593 376.327 541.173 378.02 540.333 379.54C539.506 381.047 538.393 382.24 536.993 383.12C535.593 384 534.026 384.44 532.293 384.44ZM538.993 384V352.74H544.273V384H538.993ZM556.329 384.44C554.743 384.44 553.349 384.193 552.149 383.7C550.949 383.193 550.009 382.467 549.329 381.52C548.649 380.573 548.309 379.433 548.309 378.1C548.309 376.647 548.703 375.453 549.489 374.52C550.289 373.573 551.363 372.847 552.709 372.34C554.056 371.82 555.549 371.487 557.189 371.34C559.616 371.1 561.309 370.873 562.269 370.66C563.243 370.433 563.729 370.073 563.729 369.58C563.729 369.567 563.729 369.56 563.729 369.56C563.729 369.547 563.729 369.54 563.729 369.54C563.729 368.607 563.309 367.887 562.469 367.38C561.629 366.873 560.443 366.62 558.909 366.62C557.296 366.62 556.056 366.907 555.189 367.48C554.336 368.04 553.909 368.933 553.909 370.16H548.709C548.709 368.493 549.149 367.087 550.029 365.94C550.923 364.78 552.143 363.9 553.689 363.3C555.236 362.7 556.989 362.4 558.949 362.4C560.776 362.4 562.449 362.673 563.969 363.22C565.489 363.767 566.709 364.593 567.629 365.7C568.549 366.807 569.009 368.187 569.009 369.84C569.009 370.12 569.009 370.4 569.009 370.68C569.009 370.96 569.009 371.24 569.009 371.52V379.52C569.009 380.027 569.023 380.527 569.049 381.02C569.089 381.5 569.163 381.933 569.269 382.32C569.403 382.747 569.563 383.107 569.749 383.4C569.936 383.693 570.083 383.893 570.189 384H564.989C564.896 383.907 564.763 383.727 564.589 383.46C564.429 383.18 564.283 382.86 564.149 382.5C564.016 382.1 563.916 381.673 563.849 381.22C563.783 380.753 563.749 380.24 563.749 379.68L564.789 380.4C564.389 381.213 563.776 381.927 562.949 382.54C562.136 383.14 561.163 383.607 560.029 383.94C558.896 384.273 557.663 384.44 556.329 384.44ZM557.609 380.3C558.703 380.3 559.716 380.113 560.649 379.74C561.583 379.367 562.336 378.793 562.909 378.02C563.483 377.233 563.769 376.227 563.769 375V372.16L565.049 373.6C564.196 373.92 563.169 374.187 561.969 374.4C560.769 374.6 559.556 374.76 558.329 374.88C556.756 375.027 555.569 375.3 554.769 375.7C553.983 376.1 553.589 376.753 553.589 377.66C553.589 378.54 553.923 379.2 554.589 379.64C555.256 380.08 556.263 380.3 557.609 380.3ZM578.973 352.74V384H573.793V352.74H578.973ZM597.913 352.74L586.293 387.1H581.993L593.633 352.74H597.913ZM604.452 363.62L617.552 371.58V375.18L604.452 383.12V378.68L615.472 372.8V373.96L604.452 368.04V363.62Z" fill="#009483"/>
<rect x="384.5" y="325" width="290" height="96" rx="48" stroke="#009483" stroke-width="6"/>
<rect x="95" y="828" width="290" height="96" rx="48" fill="#FED9D2"/>
<path d="M159.841 886.12L146.721 878.18V874.58L159.841 866.62V871.04L148.821 876.96V875.8L159.841 881.68V886.12ZM170.898 861.7L173.278 859.08V871.86L171.638 870.44H183.678V874.66H171.638L173.278 873.14V887H168.038V857.5H185.458V861.7H170.898ZM198.294 887.42C196.054 887.42 194.081 886.953 192.374 886.02C190.667 885.073 189.327 883.767 188.354 882.1C187.394 880.433 186.914 878.527 186.914 876.38C186.914 874.22 187.394 872.32 188.354 870.68C189.327 869.027 190.667 867.733 192.374 866.8C194.081 865.867 196.054 865.4 198.294 865.4C200.534 865.4 202.507 865.867 204.214 866.8C205.921 867.733 207.254 869.027 208.214 870.68C209.187 872.32 209.674 874.22 209.674 876.38C209.674 878.527 209.187 880.433 208.214 882.1C207.254 883.767 205.921 885.073 204.214 886.02C202.507 886.953 200.534 887.42 198.294 887.42ZM198.294 883.12C199.507 883.12 200.567 882.84 201.474 882.28C202.381 881.72 203.087 880.94 203.594 879.94C204.101 878.927 204.354 877.74 204.354 876.38C204.354 875.02 204.101 873.847 203.594 872.86C203.087 871.86 202.381 871.087 201.474 870.54C200.567 869.993 199.507 869.72 198.294 869.72C197.094 869.72 196.034 869.993 195.114 870.54C194.207 871.087 193.501 871.86 192.994 872.86C192.487 873.847 192.234 875.02 192.234 876.38C192.234 877.74 192.487 878.927 192.994 879.94C193.501 880.94 194.207 881.72 195.114 882.28C196.034 882.84 197.094 883.12 198.294 883.12ZM224.066 887.42C221.826 887.42 219.853 886.953 218.146 886.02C216.439 885.073 215.099 883.767 214.126 882.1C213.166 880.433 212.686 878.527 212.686 876.38C212.686 874.22 213.166 872.32 214.126 870.68C215.099 869.027 216.439 867.733 218.146 866.8C219.853 865.867 221.826 865.4 224.066 865.4C226.306 865.4 228.279 865.867 229.986 866.8C231.693 867.733 233.026 869.027 233.986 870.68C234.959 872.32 235.446 874.22 235.446 876.38C235.446 878.527 234.959 880.433 233.986 882.1C233.026 883.767 231.693 885.073 229.986 886.02C228.279 886.953 226.306 887.42 224.066 887.42ZM224.066 883.12C225.279 883.12 226.339 882.84 227.246 882.28C228.153 881.72 228.859 880.94 229.366 879.94C229.873 878.927 230.126 877.74 230.126 876.38C230.126 875.02 229.873 873.847 229.366 872.86C228.859 871.86 228.153 871.087 227.246 870.54C226.339 869.993 225.279 869.72 224.066 869.72C222.866 869.72 221.806 869.993 220.886 870.54C219.979 871.087 219.273 871.86 218.766 872.86C218.259 873.847 218.006 875.02 218.006 876.38C218.006 877.74 218.259 878.927 218.766 879.94C219.273 880.94 219.979 881.72 220.886 882.28C221.806 882.84 222.866 883.12 224.066 883.12ZM248.923 887.4C248.163 887.4 247.39 887.327 246.603 887.18C245.817 887.033 245.097 886.76 244.443 886.36C243.79 885.96 243.263 885.373 242.863 884.6C242.463 883.827 242.263 882.807 242.263 881.54C242.263 881.247 242.263 880.953 242.263 880.66C242.263 880.353 242.263 880.04 242.263 879.72V869.96H237.243V865.76H239.283C239.977 865.76 240.523 865.733 240.923 865.68C241.323 865.613 241.617 865.467 241.803 865.24C241.99 865.013 242.11 864.66 242.163 864.18C242.23 863.687 242.263 863.007 242.263 862.14V858.76H247.543V865.76H253.863V869.96H247.543V878.48C247.543 878.733 247.543 878.987 247.543 879.24C247.543 879.48 247.543 879.713 247.543 879.94C247.543 880.927 247.663 881.72 247.903 882.32C248.143 882.92 248.71 883.22 249.603 883.22C250.03 883.22 250.43 883.18 250.803 883.1C251.19 883.02 251.477 882.94 251.663 882.86V886.98C251.41 887.073 251.043 887.167 250.563 887.26C250.083 887.353 249.537 887.4 248.923 887.4ZM258.809 878.08V874.34H273.669L273.069 875.34C273.069 875.26 273.069 875.173 273.069 875.08C273.069 874.973 273.069 874.887 273.069 874.82C273.069 873.9 272.863 873.04 272.449 872.24C272.036 871.427 271.409 870.773 270.569 870.28C269.729 869.773 268.663 869.52 267.369 869.52C266.089 869.52 264.976 869.793 264.029 870.34C263.096 870.873 262.369 871.647 261.849 872.66C261.343 873.673 261.089 874.887 261.089 876.3C261.089 877.753 261.336 879.007 261.829 880.06C262.323 881.1 263.043 881.9 263.989 882.46C264.949 883.007 266.116 883.28 267.489 883.28C268.423 883.28 269.229 883.193 269.909 883.02C270.589 882.847 271.143 882.613 271.569 882.32C272.009 882.013 272.336 881.687 272.549 881.34C272.776 880.993 272.909 880.647 272.949 880.3H278.189C278.109 881.193 277.809 882.067 277.289 882.92C276.783 883.76 276.069 884.527 275.149 885.22C274.229 885.9 273.109 886.447 271.789 886.86C270.483 887.26 268.989 887.46 267.309 887.46C265.029 887.46 263.036 886.993 261.329 886.06C259.623 885.127 258.289 883.827 257.329 882.16C256.383 880.493 255.909 878.587 255.909 876.44C255.909 874.24 256.389 872.313 257.349 870.66C258.323 869.007 259.669 867.72 261.389 866.8C263.109 865.867 265.083 865.4 267.309 865.4C269.603 865.4 271.583 865.867 273.249 866.8C274.929 867.733 276.223 869.033 277.129 870.7C278.036 872.353 278.489 874.28 278.489 876.48C278.489 876.76 278.483 877.06 278.469 877.38C278.456 877.7 278.436 877.933 278.409 878.08H258.809ZM282.426 887V865.76H287.686V872.82L286.466 872.14C286.599 871.22 286.846 870.353 287.206 869.54C287.566 868.713 288.046 867.993 288.646 867.38C289.246 866.753 289.973 866.267 290.826 865.92C291.679 865.573 292.653 865.4 293.746 865.4C294.613 865.4 295.293 865.467 295.786 865.6C296.293 865.72 296.606 865.82 296.726 865.9L295.766 870.72C295.633 870.627 295.359 870.513 294.946 870.38C294.546 870.233 294.006 870.16 293.326 870.16C292.246 870.16 291.339 870.347 290.606 870.72C289.886 871.08 289.313 871.573 288.886 872.2C288.459 872.813 288.153 873.493 287.966 874.24C287.779 874.973 287.686 875.707 287.686 876.44V887H282.426ZM313.603 855.74L301.983 890.1H297.683L309.323 855.74H313.603ZM320.142 866.62L333.242 874.58V878.18L320.142 886.12V881.68L331.162 875.8V876.96L320.142 871.04V866.62Z" fill="#DA2F84"/>
<rect x="95" y="828" width="290" height="96" rx="48" stroke="#DA2F84" stroke-opacity="0.64" stroke-width="6"/>
<path d="M548.869 99.168H562.693V105H540.901V99.48L554.389 85.056L554.557 85.32H541.381V79.512H562.405V85.032L549.037 99.408L548.869 99.168ZM565.004 93.696V89.136H582.5V93.696H565.004ZM587.032 105V79.512H594.4V105H587.032ZM590.704 75.36C589.552 75.36 588.544 75.056 587.68 74.448C586.832 73.84 586.408 72.984 586.408 71.88C586.408 70.76 586.832 69.896 587.68 69.288C588.544 68.68 589.552 68.376 590.704 68.376C591.872 68.376 592.88 68.68 593.728 69.288C594.592 69.896 595.024 70.76 595.024 71.88C595.024 73 594.592 73.864 593.728 74.472C592.88 75.064 591.872 75.36 590.704 75.36ZM616.874 105V94.176C616.874 93.568 616.874 93.016 616.874 92.52C616.874 92.024 616.874 91.576 616.874 91.176C616.874 90.12 616.738 89.16 616.466 88.296C616.194 87.416 615.706 86.712 615.002 86.184C614.298 85.656 613.282 85.392 611.954 85.392C610.802 85.392 609.802 85.656 608.954 86.184C608.122 86.712 607.482 87.448 607.034 88.392C606.586 89.336 606.362 90.424 606.362 91.656L604.298 90.168C604.298 87.96 604.778 86.024 605.738 84.36C606.698 82.696 607.994 81.392 609.626 80.448C611.274 79.504 613.098 79.032 615.098 79.032C617.194 79.032 618.914 79.456 620.258 80.304C621.618 81.136 622.626 82.304 623.282 83.808C623.954 85.296 624.29 87.04 624.29 89.04C624.29 89.856 624.29 90.768 624.29 91.776C624.29 92.784 624.29 93.816 624.29 94.872V105H616.874ZM598.922 105V79.512H606.362V105H598.922ZM639.556 105.576C637.428 105.576 635.468 105.072 633.676 104.064C631.884 103.04 630.444 101.528 629.356 99.528C628.268 97.528 627.724 95.064 627.724 92.136C627.724 89.336 628.276 86.96 629.38 85.008C630.5 83.056 631.956 81.576 633.748 80.568C635.556 79.544 637.492 79.032 639.556 79.032C641.572 79.032 643.412 79.544 645.076 80.568C646.756 81.592 648.1 82.992 649.108 84.768C650.116 86.528 650.62 88.56 650.62 90.864C650.62 90.944 650.62 91.024 650.62 91.104C650.62 91.168 650.62 91.24 650.62 91.32L647.404 91.368C647.404 91.32 647.404 91.272 647.404 91.224C647.404 91.16 647.404 91.104 647.404 91.056C647.404 89.856 647.116 88.824 646.54 87.96C645.964 87.096 645.22 86.432 644.308 85.968C643.396 85.488 642.444 85.248 641.452 85.248C639.804 85.248 638.38 85.8 637.18 86.904C635.98 87.992 635.38 89.736 635.38 92.136C635.38 94.536 635.98 96.304 637.18 97.44C638.396 98.56 639.82 99.12 641.452 99.12C642.476 99.12 643.444 98.88 644.356 98.4C645.268 97.904 646.004 97.208 646.564 96.312C647.124 95.416 647.404 94.36 647.404 93.144L650.62 93.312C650.62 95.6 650.124 97.672 649.132 99.528C648.156 101.368 646.828 102.84 645.148 103.944C643.484 105.032 641.62 105.576 639.556 105.576ZM647.404 105V67.488H654.868V105H647.404ZM662.436 94.488V89.568H679.332L678.612 90.816C678.612 90.688 678.612 90.568 678.612 90.456C678.612 90.328 678.612 90.208 678.612 90.096C678.612 89.184 678.396 88.312 677.964 87.48C677.532 86.632 676.86 85.944 675.948 85.416C675.052 84.872 673.9 84.6 672.492 84.6C671.084 84.6 669.868 84.904 668.844 85.512C667.836 86.104 667.06 86.96 666.516 88.08C665.988 89.2 665.724 90.552 665.724 92.136C665.724 93.768 665.98 95.168 666.492 96.336C667.02 97.488 667.796 98.376 668.82 99C669.86 99.624 671.148 99.936 672.684 99.936C673.676 99.936 674.532 99.848 675.252 99.672C675.972 99.48 676.556 99.24 677.004 98.952C677.468 98.664 677.82 98.344 678.06 97.992C678.3 97.64 678.444 97.296 678.492 96.96H685.836C685.74 98.032 685.372 99.088 684.732 100.128C684.092 101.152 683.204 102.08 682.068 102.912C680.932 103.728 679.548 104.376 677.916 104.856C676.3 105.336 674.452 105.576 672.372 105.576C669.556 105.576 667.1 105.016 665.004 103.896C662.908 102.76 661.284 101.2 660.132 99.216C658.98 97.216 658.404 94.912 658.404 92.304C658.404 89.664 658.988 87.352 660.156 85.368C661.34 83.368 662.98 81.816 665.076 80.712C667.188 79.592 669.628 79.032 672.396 79.032C675.228 79.032 677.676 79.6 679.74 80.736C681.804 81.856 683.396 83.432 684.516 85.464C685.636 87.48 686.196 89.832 686.196 92.52C686.196 92.92 686.188 93.304 686.172 93.672C686.156 94.04 686.132 94.312 686.1 94.488H662.436ZM696.814 90.96L696.742 94.296L686.158 79.512H694.246L701.854 90.84L697.39 90.792L704.95 79.512H712.894L702.742 93.36L702.382 89.976L712.99 105H704.854L697.078 93.624L702.118 93.384L693.67 105H685.726L696.814 90.96ZM719.702 105.72C718.598 105.72 717.662 105.336 716.894 104.568C716.126 103.8 715.742 102.864 715.742 101.76C715.742 100.672 716.126 99.744 716.894 98.976C717.662 98.208 718.598 97.824 719.702 97.824C720.79 97.824 721.718 98.208 722.486 98.976C723.254 99.744 723.638 100.672 723.638 101.76C723.638 102.864 723.254 103.8 722.486 104.568C721.718 105.336 720.79 105.72 719.702 105.72ZM719.726 87.6C718.622 87.6 717.686 87.216 716.918 86.448C716.15 85.68 715.766 84.744 715.766 83.64C715.766 82.552 716.15 81.624 716.918 80.856C717.686 80.088 718.622 79.704 719.726 79.704C720.814 79.704 721.742 80.088 722.51 80.856C723.278 81.624 723.662 82.552 723.662 83.64C723.662 84.744 723.278 85.68 722.51 86.448C721.742 87.216 720.814 87.6 719.726 87.6ZM753.613 69.552V105H746.221V76.512C746.013 76.672 745.565 76.88 744.877 77.136C744.205 77.376 743.397 77.608 742.453 77.832C741.509 78.056 740.533 78.208 739.525 78.288V72.432C740.533 72.304 741.517 72.088 742.477 71.784C743.437 71.464 744.261 71.104 744.949 70.704C745.653 70.304 746.117 69.92 746.341 69.552H753.613Z" fill="black"/>
<path d="M167.431 807.168H181.255V813H159.463V807.48L172.951 793.056L173.119 793.32H159.943V787.512H180.967V793.032L167.599 807.408L167.431 807.168ZM183.566 801.696V797.136H201.062V801.696H183.566ZM205.594 813V787.512H212.962V813H205.594ZM209.266 783.36C208.114 783.36 207.106 783.056 206.242 782.448C205.394 781.84 204.97 780.984 204.97 779.88C204.97 778.76 205.394 777.896 206.242 777.288C207.106 776.68 208.114 776.376 209.266 776.376C210.434 776.376 211.442 776.68 212.29 777.288C213.154 777.896 213.586 778.76 213.586 779.88C213.586 781 213.154 781.864 212.29 782.472C211.442 783.064 210.434 783.36 209.266 783.36ZM235.437 813V802.176C235.437 801.568 235.437 801.016 235.437 800.52C235.437 800.024 235.437 799.576 235.437 799.176C235.437 798.12 235.301 797.16 235.029 796.296C234.757 795.416 234.269 794.712 233.565 794.184C232.861 793.656 231.845 793.392 230.517 793.392C229.365 793.392 228.365 793.656 227.517 794.184C226.685 794.712 226.045 795.448 225.597 796.392C225.149 797.336 224.925 798.424 224.925 799.656L222.861 798.168C222.861 795.96 223.341 794.024 224.301 792.36C225.261 790.696 226.557 789.392 228.189 788.448C229.837 787.504 231.661 787.032 233.661 787.032C235.757 787.032 237.477 787.456 238.821 788.304C240.181 789.136 241.189 790.304 241.845 791.808C242.517 793.296 242.853 795.04 242.853 797.04C242.853 797.856 242.853 798.768 242.853 799.776C242.853 800.784 242.853 801.816 242.853 802.872V813H235.437ZM217.485 813V787.512H224.925V813H217.485ZM258.118 813.576C255.99 813.576 254.03 813.072 252.238 812.064C250.446 811.04 249.006 809.528 247.918 807.528C246.83 805.528 246.286 803.064 246.286 800.136C246.286 797.336 246.838 794.96 247.942 793.008C249.062 791.056 250.518 789.576 252.31 788.568C254.118 787.544 256.054 787.032 258.118 787.032C260.134 787.032 261.974 787.544 263.638 788.568C265.318 789.592 266.662 790.992 267.67 792.768C268.678 794.528 269.182 796.56 269.182 798.864C269.182 798.944 269.182 799.024 269.182 799.104C269.182 799.168 269.182 799.24 269.182 799.32L265.966 799.368C265.966 799.32 265.966 799.272 265.966 799.224C265.966 799.16 265.966 799.104 265.966 799.056C265.966 797.856 265.678 796.824 265.102 795.96C264.526 795.096 263.782 794.432 262.87 793.968C261.958 793.488 261.006 793.248 260.014 793.248C258.366 793.248 256.942 793.8 255.742 794.904C254.542 795.992 253.942 797.736 253.942 800.136C253.942 802.536 254.542 804.304 255.742 805.44C256.958 806.56 258.382 807.12 260.014 807.12C261.038 807.12 262.006 806.88 262.918 806.4C263.83 805.904 264.566 805.208 265.126 804.312C265.686 803.416 265.966 802.36 265.966 801.144L269.182 801.312C269.182 803.6 268.686 805.672 267.694 807.528C266.718 809.368 265.39 810.84 263.71 811.944C262.046 813.032 260.182 813.576 258.118 813.576ZM265.966 813V775.488H273.43V813H265.966ZM280.999 802.488V797.568H297.895L297.175 798.816C297.175 798.688 297.175 798.568 297.175 798.456C297.175 798.328 297.175 798.208 297.175 798.096C297.175 797.184 296.959 796.312 296.527 795.48C296.095 794.632 295.423 793.944 294.511 793.416C293.615 792.872 292.463 792.6 291.055 792.6C289.647 792.6 288.431 792.904 287.407 793.512C286.399 794.104 285.623 794.96 285.079 796.08C284.551 797.2 284.287 798.552 284.287 800.136C284.287 801.768 284.543 803.168 285.055 804.336C285.583 805.488 286.359 806.376 287.383 807C288.423 807.624 289.711 807.936 291.247 807.936C292.239 807.936 293.095 807.848 293.815 807.672C294.535 807.48 295.119 807.24 295.567 806.952C296.031 806.664 296.383 806.344 296.623 805.992C296.863 805.64 297.007 805.296 297.055 804.96H304.399C304.303 806.032 303.935 807.088 303.295 808.128C302.655 809.152 301.767 810.08 300.631 810.912C299.495 811.728 298.111 812.376 296.479 812.856C294.863 813.336 293.015 813.576 290.935 813.576C288.119 813.576 285.663 813.016 283.567 811.896C281.471 810.76 279.847 809.2 278.695 807.216C277.543 805.216 276.967 802.912 276.967 800.304C276.967 797.664 277.551 795.352 278.719 793.368C279.903 791.368 281.543 789.816 283.639 788.712C285.751 787.592 288.191 787.032 290.959 787.032C293.791 787.032 296.239 787.6 298.303 788.736C300.367 789.856 301.959 791.432 303.079 793.464C304.199 795.48 304.759 797.832 304.759 800.52C304.759 800.92 304.751 801.304 304.735 801.672C304.719 802.04 304.695 802.312 304.663 802.488H280.999ZM315.377 798.96L315.305 802.296L304.721 787.512H312.809L320.417 798.84L315.953 798.792L323.513 787.512H331.457L321.305 801.36L320.945 797.976L331.553 813H323.417L315.641 801.624L320.681 801.384L312.233 813H304.289L315.377 798.96ZM338.264 813.72C337.16 813.72 336.224 813.336 335.456 812.568C334.688 811.8 334.304 810.864 334.304 809.76C334.304 808.672 334.688 807.744 335.456 806.976C336.224 806.208 337.16 805.824 338.264 805.824C339.352 805.824 340.28 806.208 341.048 806.976C341.816 807.744 342.2 808.672 342.2 809.76C342.2 810.864 341.816 811.8 341.048 812.568C340.28 813.336 339.352 813.72 338.264 813.72ZM338.288 795.6C337.184 795.6 336.248 795.216 335.48 794.448C334.712 793.68 334.328 792.744 334.328 791.64C334.328 790.552 334.712 789.624 335.48 788.856C336.248 788.088 337.184 787.704 338.288 787.704C339.376 787.704 340.304 788.088 341.072 788.856C341.84 789.624 342.224 790.552 342.224 791.64C342.224 792.744 341.84 793.68 341.072 794.448C340.304 795.216 339.376 795.6 338.288 795.6ZM357.512 813V806.904C357.656 806.552 358.08 806.032 358.784 805.344C359.488 804.64 360.344 803.848 361.352 802.968C362.36 802.088 363.416 801.192 364.52 800.28C365.64 799.352 366.672 798.496 367.616 797.712C368.736 796.784 369.824 795.824 370.88 794.832C371.936 793.824 372.808 792.76 373.496 791.64C374.2 790.504 374.552 789.312 374.552 788.064C374.552 786.496 374.176 785.24 373.424 784.296C372.688 783.352 371.512 782.88 369.896 782.88C368.6 782.88 367.568 783.168 366.8 783.744C366.048 784.304 365.512 785.096 365.192 786.12C364.872 787.128 364.712 788.312 364.712 789.672H357.272C357.272 787.08 357.76 784.84 358.736 782.952C359.728 781.064 361.168 779.616 363.056 778.608C364.96 777.584 367.28 777.072 370.016 777.072C372.672 777.072 374.888 777.56 376.664 778.536C378.456 779.512 379.8 780.832 380.696 782.496C381.592 784.16 382.04 786.04 382.04 788.136C382.04 789.544 381.768 790.864 381.224 792.096C380.696 793.312 380 794.44 379.136 795.48C378.288 796.52 377.376 797.472 376.4 798.336C375.424 799.184 374.504 799.952 373.64 800.64C372.184 801.792 370.92 802.808 369.848 803.688C368.776 804.568 367.92 805.312 367.28 805.92C366.656 806.528 366.272 806.992 366.128 807.312H381.824V813H357.512Z" fill="black"/>
<path d="M468.003 309.72H479.903V314H462.323V309.94L473.983 296.86L474.083 297.04H462.763V292.76H479.683V296.82L468.103 309.86L468.003 309.72ZM482.419 304.3V301.04H496.759V304.3H482.419ZM501.592 314V292.76H506.792V314H501.592ZM504.212 288.84C503.358 288.84 502.612 288.613 501.972 288.16C501.345 287.693 501.032 287.047 501.032 286.22C501.032 285.407 501.345 284.773 501.972 284.32C502.612 283.867 503.358 283.64 504.212 283.64C505.052 283.64 505.785 283.867 506.412 284.32C507.038 284.773 507.352 285.407 507.352 286.22C507.352 287.047 507.038 287.693 506.412 288.16C505.785 288.613 505.052 288.84 504.212 288.84ZM526.624 314V304.58C526.624 304.047 526.624 303.58 526.624 303.18C526.624 302.767 526.624 302.393 526.624 302.06C526.624 301.1 526.484 300.24 526.204 299.48C525.937 298.707 525.471 298.1 524.804 297.66C524.151 297.22 523.244 297 522.084 297C521.071 297 520.171 297.247 519.384 297.74C518.597 298.22 517.977 298.887 517.524 299.74C517.084 300.58 516.864 301.553 516.864 302.66L515.084 301.56C515.084 299.787 515.484 298.213 516.284 296.84C517.097 295.453 518.184 294.367 519.544 293.58C520.904 292.793 522.411 292.4 524.064 292.4C525.771 292.4 527.204 292.733 528.364 293.4C529.537 294.067 530.417 295.013 531.004 296.24C531.604 297.467 531.904 298.907 531.904 300.56C531.904 301.2 531.904 301.92 531.904 302.72C531.904 303.52 531.904 304.307 531.904 305.08V314H526.624ZM511.604 314V292.76H516.864V314H511.604ZM545.376 314.44C543.629 314.44 542.009 314.02 540.516 313.18C539.036 312.327 537.849 311.073 536.956 309.42C536.062 307.767 535.616 305.733 535.616 303.32C535.616 300.973 536.069 298.987 536.976 297.36C537.896 295.733 539.096 294.5 540.576 293.66C542.069 292.82 543.669 292.4 545.376 292.4C547.042 292.4 548.582 292.813 549.996 293.64C551.409 294.453 552.542 295.587 553.396 297.04C554.249 298.493 554.676 300.16 554.676 302.04C554.676 302.093 554.676 302.147 554.676 302.2C554.676 302.253 554.676 302.307 554.676 302.36L552.076 302.42C552.076 302.38 552.076 302.34 552.076 302.3C552.076 302.247 552.076 302.2 552.076 302.16C552.076 301.107 551.809 300.187 551.276 299.4C550.756 298.613 550.076 298 549.236 297.56C548.409 297.107 547.529 296.88 546.596 296.88C545.062 296.88 543.756 297.4 542.676 298.44C541.596 299.467 541.056 301.093 541.056 303.32C541.056 305.533 541.596 307.167 542.676 308.22C543.756 309.273 545.062 309.8 546.596 309.8C547.569 309.8 548.469 309.567 549.296 309.1C550.122 308.633 550.789 307.993 551.296 307.18C551.816 306.353 552.076 305.407 552.076 304.34L554.676 304.46C554.676 306.327 554.256 308.02 553.416 309.54C552.589 311.047 551.476 312.24 550.076 313.12C548.676 314 547.109 314.44 545.376 314.44ZM552.076 314V282.74H557.356V314H552.076ZM564.092 305.08V301.34H578.952L578.352 302.34C578.352 302.26 578.352 302.173 578.352 302.08C578.352 301.973 578.352 301.887 578.352 301.82C578.352 300.9 578.146 300.04 577.732 299.24C577.319 298.427 576.692 297.773 575.852 297.28C575.012 296.773 573.946 296.52 572.652 296.52C571.372 296.52 570.259 296.793 569.312 297.34C568.379 297.873 567.652 298.647 567.132 299.66C566.626 300.673 566.372 301.887 566.372 303.3C566.372 304.753 566.619 306.007 567.112 307.06C567.606 308.1 568.326 308.9 569.272 309.46C570.232 310.007 571.399 310.28 572.772 310.28C573.706 310.28 574.512 310.193 575.192 310.02C575.872 309.847 576.426 309.613 576.852 309.32C577.292 309.013 577.619 308.687 577.832 308.34C578.059 307.993 578.192 307.647 578.232 307.3H583.472C583.392 308.193 583.092 309.067 582.572 309.92C582.066 310.76 581.352 311.527 580.432 312.22C579.512 312.9 578.392 313.447 577.072 313.86C575.766 314.26 574.272 314.46 572.592 314.46C570.312 314.46 568.319 313.993 566.612 313.06C564.906 312.127 563.572 310.827 562.612 309.16C561.666 307.493 561.192 305.587 561.192 303.44C561.192 301.24 561.672 299.313 562.632 297.66C563.606 296.007 564.952 294.72 566.672 293.8C568.392 292.867 570.366 292.4 572.592 292.4C574.886 292.4 576.866 292.867 578.532 293.8C580.212 294.733 581.506 296.033 582.412 297.7C583.319 299.353 583.772 301.28 583.772 303.48C583.772 303.76 583.766 304.06 583.752 304.38C583.739 304.7 583.719 304.933 583.692 305.08H564.092ZM593.302 302.42L593.262 304.82L584.602 292.76H590.362L596.882 302.22L593.722 302.2L600.122 292.76H605.762L597.462 304.14L597.322 301.94L605.882 314H600.122L593.502 304.56L597.062 304.24L589.922 314H584.282L593.302 302.42ZM611.831 314.56C611.005 314.56 610.305 314.273 609.731 313.7C609.158 313.127 608.871 312.427 608.871 311.6C608.871 310.787 609.158 310.093 609.731 309.52C610.305 308.933 611.005 308.64 611.831 308.64C612.645 308.64 613.338 308.933 613.911 309.52C614.498 310.093 614.791 310.787 614.791 311.6C614.791 312.427 614.498 313.127 613.911 313.7C613.338 314.273 612.645 314.56 611.831 314.56ZM611.851 299.12C611.025 299.12 610.325 298.833 609.751 298.26C609.178 297.687 608.891 296.987 608.891 296.16C608.891 295.347 609.178 294.653 609.751 294.08C610.325 293.493 611.025 293.2 611.851 293.2C612.665 293.2 613.358 293.493 613.931 294.08C614.518 294.653 614.811 295.347 614.811 296.16C614.811 296.987 614.518 297.687 613.931 298.26C613.358 298.833 612.665 299.12 611.851 299.12ZM638.242 314.46C636.549 314.46 635.162 314.173 634.082 313.6C633.002 313.013 632.156 312.287 631.542 311.42C630.942 310.553 630.522 309.667 630.282 308.76C630.042 307.853 629.922 307.067 629.922 306.4C629.922 306.373 629.922 306.353 629.922 306.34C629.922 306.327 629.922 306.307 629.922 306.28H634.842C634.842 306.307 634.842 306.327 634.842 306.34C634.842 306.353 634.842 306.373 634.842 306.4C634.842 306.787 634.889 307.207 634.982 307.66C635.076 308.1 635.242 308.52 635.482 308.92C635.736 309.307 636.089 309.627 636.542 309.88C636.996 310.12 637.569 310.24 638.262 310.24C639.262 310.24 640.109 309.82 640.802 308.98C641.509 308.127 642.049 306.773 642.422 304.92C642.809 303.067 643.002 300.633 643.002 297.62L644.302 297.6C644.276 298.627 643.962 299.58 643.362 300.46C642.762 301.327 641.929 302.027 640.862 302.56C639.796 303.08 638.536 303.34 637.082 303.34C635.309 303.34 633.816 302.933 632.602 302.12C631.389 301.293 630.469 300.187 629.842 298.8C629.229 297.413 628.922 295.867 628.922 294.16C628.922 292.213 629.282 290.487 630.002 288.98C630.722 287.46 631.796 286.267 633.222 285.4C634.662 284.533 636.436 284.1 638.542 284.1C640.756 284.1 642.569 284.667 643.982 285.8C645.409 286.92 646.456 288.507 647.122 290.56C647.802 292.613 648.142 295.033 648.142 297.82C648.142 300.633 647.916 303.08 647.462 305.16C647.009 307.24 646.349 308.973 645.482 310.36C644.629 311.733 643.589 312.76 642.362 313.44C641.149 314.12 639.776 314.46 638.242 314.46ZM638.222 299.38C639.102 299.38 639.882 299.173 640.562 298.76C641.242 298.347 641.769 297.753 642.142 296.98C642.529 296.193 642.722 295.26 642.722 294.18C642.722 293.047 642.549 292.04 642.202 291.16C641.856 290.267 641.362 289.567 640.722 289.06C640.096 288.553 639.349 288.3 638.482 288.3C637.549 288.3 636.762 288.513 636.122 288.94C635.496 289.367 635.022 289.993 634.702 290.82C634.382 291.633 634.222 292.633 634.222 293.82C634.222 294.94 634.376 295.92 634.682 296.76C635.002 297.587 635.462 298.233 636.062 298.7C636.662 299.153 637.382 299.38 638.222 299.38ZM661.709 314.46C660.016 314.46 658.629 314.173 657.549 313.6C656.469 313.013 655.623 312.287 655.009 311.42C654.409 310.553 653.989 309.667 653.749 308.76C653.509 307.853 653.389 307.067 653.389 306.4C653.389 306.373 653.389 306.353 653.389 306.34C653.389 306.327 653.389 306.307 653.389 306.28H658.309C658.309 306.307 658.309 306.327 658.309 306.34C658.309 306.353 658.309 306.373 658.309 306.4C658.309 306.787 658.356 307.207 658.449 307.66C658.543 308.1 658.709 308.52 658.949 308.92C659.203 309.307 659.556 309.627 660.009 309.88C660.463 310.12 661.036 310.24 661.729 310.24C662.729 310.24 663.576 309.82 664.269 308.98C664.976 308.127 665.516 306.773 665.889 304.92C666.276 303.067 666.469 300.633 666.469 297.62L667.769 297.6C667.743 298.627 667.429 299.58 666.829 300.46C666.229 301.327 665.396 302.027 664.329 302.56C663.263 303.08 662.003 303.34 660.549 303.34C658.776 303.34 657.283 302.933 656.069 302.12C654.856 301.293 653.936 300.187 653.309 298.8C652.696 297.413 652.389 295.867 652.389 294.16C652.389 292.213 652.749 290.487 653.469 288.98C654.189 287.46 655.263 286.267 656.689 285.4C658.129 284.533 659.903 284.1 662.009 284.1C664.223 284.1 666.036 284.667 667.449 285.8C668.876 286.92 669.923 288.507 670.589 290.56C671.269 292.613 671.609 295.033 671.609 297.82C671.609 300.633 671.383 303.08 670.929 305.16C670.476 307.24 669.816 308.973 668.949 310.36C668.096 311.733 667.056 312.76 665.829 313.44C664.616 314.12 663.243 314.46 661.709 314.46ZM661.689 299.38C662.569 299.38 663.349 299.173 664.029 298.76C664.709 298.347 665.236 297.753 665.609 296.98C665.996 296.193 666.189 295.26 666.189 294.18C666.189 293.047 666.016 292.04 665.669 291.16C665.323 290.267 664.829 289.567 664.189 289.06C663.563 288.553 662.816 288.3 661.949 288.3C661.016 288.3 660.229 288.513 659.589 288.94C658.963 289.367 658.489 289.993 658.169 290.82C657.849 291.633 657.689 292.633 657.689 293.82C657.689 294.94 657.843 295.92 658.149 296.76C658.469 297.587 658.929 298.233 659.529 298.7C660.129 299.153 660.849 299.38 661.689 299.38Z" fill="black"/>
<rect x="95" y="604" width="290" height="96" rx="48" fill="#E9D6FF"/>
<path d="M176.784 662.12L163.664 654.18V650.58L176.784 642.62V647.04L165.764 652.96V651.8L176.784 657.68V662.12ZM196.022 633.5C197.995 633.5 199.635 633.78 200.942 634.34C202.248 634.887 203.228 635.687 203.882 636.74C204.548 637.793 204.882 639.08 204.882 640.6C204.882 642.067 204.582 643.313 203.982 644.34C203.395 645.353 202.648 646.133 201.742 646.68C200.835 647.227 199.902 647.533 198.942 647.6C199.955 647.627 200.968 647.873 201.982 648.34C203.008 648.807 203.862 649.553 204.542 650.58C205.222 651.607 205.562 652.987 205.562 654.72C205.562 656.36 205.235 657.807 204.582 659.06C203.928 660.3 202.888 661.267 201.462 661.96C200.048 662.653 198.202 663 195.922 663H184.982V633.5H196.022ZM190.022 647.2L188.282 645.66H194.222C195.982 645.66 197.315 645.293 198.222 644.56C199.142 643.813 199.602 642.78 199.602 641.46C199.602 640.567 199.408 639.847 199.022 639.3C198.648 638.753 198.088 638.353 197.342 638.1C196.608 637.833 195.722 637.7 194.682 637.7H187.642L190.022 635.08V647.2ZM194.882 658.8C196.588 658.8 197.902 658.413 198.822 657.64C199.742 656.867 200.202 655.787 200.202 654.4C200.202 653.6 200.055 652.913 199.762 652.34C199.482 651.753 199.082 651.28 198.562 650.92C198.055 650.547 197.455 650.273 196.762 650.1C196.082 649.927 195.335 649.84 194.522 649.84H188.282L190.022 648.28V661.42L187.642 658.8H194.882ZM220.277 663.42C218.037 663.42 216.064 662.953 214.357 662.02C212.65 661.073 211.31 659.767 210.337 658.1C209.377 656.433 208.897 654.527 208.897 652.38C208.897 650.22 209.377 648.32 210.337 646.68C211.31 645.027 212.65 643.733 214.357 642.8C216.064 641.867 218.037 641.4 220.277 641.4C222.517 641.4 224.49 641.867 226.197 642.8C227.904 643.733 229.237 645.027 230.197 646.68C231.17 648.32 231.657 650.22 231.657 652.38C231.657 654.527 231.17 656.433 230.197 658.1C229.237 659.767 227.904 661.073 226.197 662.02C224.49 662.953 222.517 663.42 220.277 663.42ZM220.277 659.12C221.49 659.12 222.55 658.84 223.457 658.28C224.364 657.72 225.07 656.94 225.577 655.94C226.084 654.927 226.337 653.74 226.337 652.38C226.337 651.02 226.084 649.847 225.577 648.86C225.07 647.86 224.364 647.087 223.457 646.54C222.55 645.993 221.49 645.72 220.277 645.72C219.077 645.72 218.017 645.993 217.097 646.54C216.19 647.087 215.484 647.86 214.977 648.86C214.47 649.847 214.217 651.02 214.217 652.38C214.217 653.74 214.47 654.927 214.977 655.94C215.484 656.94 216.19 657.72 217.097 658.28C218.017 658.84 219.077 659.12 220.277 659.12ZM244.429 663.44C242.682 663.44 241.062 663.02 239.569 662.18C238.089 661.327 236.902 660.073 236.009 658.42C235.115 656.767 234.669 654.733 234.669 652.32C234.669 649.973 235.122 647.987 236.029 646.36C236.949 644.733 238.149 643.5 239.629 642.66C241.122 641.82 242.722 641.4 244.429 641.4C246.095 641.4 247.635 641.813 249.049 642.64C250.462 643.453 251.595 644.587 252.449 646.04C253.302 647.493 253.729 649.16 253.729 651.04C253.729 651.093 253.729 651.147 253.729 651.2C253.729 651.253 253.729 651.307 253.729 651.36L251.129 651.42C251.129 651.38 251.129 651.34 251.129 651.3C251.129 651.247 251.129 651.2 251.129 651.16C251.129 650.107 250.862 649.187 250.329 648.4C249.809 647.613 249.129 647 248.289 646.56C247.462 646.107 246.582 645.88 245.649 645.88C244.115 645.88 242.809 646.4 241.729 647.44C240.649 648.467 240.109 650.093 240.109 652.32C240.109 654.533 240.649 656.167 241.729 657.22C242.809 658.273 244.115 658.8 245.649 658.8C246.622 658.8 247.522 658.567 248.349 658.1C249.175 657.633 249.842 656.993 250.349 656.18C250.869 655.353 251.129 654.407 251.129 653.34L253.729 653.46C253.729 655.327 253.309 657.02 252.469 658.54C251.642 660.047 250.529 661.24 249.129 662.12C247.729 663 246.162 663.44 244.429 663.44ZM251.129 663V631.74H256.409V663H251.129ZM262.565 672.12C261.939 672.12 261.379 672.087 260.885 672.02C260.392 671.967 260.085 671.913 259.965 671.86V667.76C260.139 667.84 260.432 667.9 260.845 667.94C261.272 667.993 261.712 668.02 262.165 668.02C262.899 668.02 263.532 667.873 264.065 667.58C264.612 667.287 265.079 666.88 265.465 666.36C265.852 665.853 266.159 665.26 266.385 664.58L266.845 663.24L259.525 641.76H265.025L270.045 659.48H269.405L274.305 641.76H279.705L272.265 664.3C271.745 665.86 271.112 667.227 270.365 668.4C269.632 669.573 268.652 670.487 267.425 671.14C266.199 671.793 264.579 672.12 262.565 672.12ZM296.659 631.74L285.039 666.1H280.739L292.379 631.74H296.659ZM303.198 642.62L316.298 650.58V654.18L303.198 662.12V657.68L314.218 651.8V652.96L303.198 647.04V642.62Z" fill="#3B0076"/>
<rect x="95" y="604" width="290" height="96" rx="48" stroke="#A75EFA" stroke-width="6"/>
<path d="M1198.77 231.5L1189.77 231.5C1184.37 231.5 1180.24 235.688 1177.74 239.315C1175.25 242.942 1174 247.769 1174 253.796L1174 328.001C1174 328.001 1174 376.982 1174 383.01C1174 389.037 1175.25 393.864 1177.74 397.491C1180.24 401.117 1184.37 405.306 1189.77 405.306L1198.77 405.306M1174 322L1174 606.5C1174 612.528 1175.25 617.355 1177.74 620.981C1180.24 624.608 1184.37 628.796 1189.77 628.796L1198.77 628.796M1174 504.205L1174 832.204C1174 838.231 1175.25 843.058 1177.74 846.685C1180.24 850.312 1184.37 854.5 1189.77 854.5L1198.77 854.5" stroke="#2A3751" stroke-width="6" stroke-linecap="round" stroke-linejoin="round"/>
<rect x="1205" y="185" width="290" height="96" rx="48" fill="#FFF5CB"/>
<path d="M1263 243.12L1249.88 235.18V231.58L1263 223.62V228.04L1251.98 233.96V232.8L1263 238.68V243.12ZM1293.28 214.5V244H1288V229.6L1290.38 231.4H1274.1L1276.48 229.64V244H1271.2V214.5H1276.48V229.04L1274.1 227.2H1290.38L1288 229.02V214.5H1293.28ZM1300.05 235.08V231.34H1314.91L1314.31 232.34C1314.31 232.26 1314.31 232.173 1314.31 232.08C1314.31 231.973 1314.31 231.887 1314.31 231.82C1314.31 230.9 1314.1 230.04 1313.69 229.24C1313.28 228.427 1312.65 227.773 1311.81 227.28C1310.97 226.773 1309.9 226.52 1308.61 226.52C1307.33 226.52 1306.22 226.793 1305.27 227.34C1304.34 227.873 1303.61 228.647 1303.09 229.66C1302.58 230.673 1302.33 231.887 1302.33 233.3C1302.33 234.753 1302.58 236.007 1303.07 237.06C1303.56 238.1 1304.28 238.9 1305.23 239.46C1306.19 240.007 1307.36 240.28 1308.73 240.28C1309.66 240.28 1310.47 240.193 1311.15 240.02C1311.83 239.847 1312.38 239.613 1312.81 239.32C1313.25 239.013 1313.58 238.687 1313.79 238.34C1314.02 237.993 1314.15 237.647 1314.19 237.3H1319.43C1319.35 238.193 1319.05 239.067 1318.53 239.92C1318.02 240.76 1317.31 241.527 1316.39 242.22C1315.47 242.9 1314.35 243.447 1313.03 243.86C1311.72 244.26 1310.23 244.46 1308.55 244.46C1306.27 244.46 1304.28 243.993 1302.57 243.06C1300.86 242.127 1299.53 240.827 1298.57 239.16C1297.62 237.493 1297.15 235.587 1297.15 233.44C1297.15 231.24 1297.63 229.313 1298.59 227.66C1299.56 226.007 1300.91 224.72 1302.63 223.8C1304.35 222.867 1306.32 222.4 1308.55 222.4C1310.84 222.4 1312.82 222.867 1314.49 223.8C1316.17 224.733 1317.46 226.033 1318.37 227.7C1319.28 229.353 1319.73 231.28 1319.73 233.48C1319.73 233.76 1319.72 234.06 1319.71 234.38C1319.7 234.7 1319.68 234.933 1319.65 235.08H1300.05ZM1330.95 244.44C1329.36 244.44 1327.97 244.193 1326.77 243.7C1325.57 243.193 1324.63 242.467 1323.95 241.52C1323.27 240.573 1322.93 239.433 1322.93 238.1C1322.93 236.647 1323.32 235.453 1324.11 234.52C1324.91 233.573 1325.98 232.847 1327.33 232.34C1328.67 231.82 1330.17 231.487 1331.81 231.34C1334.23 231.1 1335.93 230.873 1336.89 230.66C1337.86 230.433 1338.35 230.073 1338.35 229.58C1338.35 229.567 1338.35 229.56 1338.35 229.56C1338.35 229.547 1338.35 229.54 1338.35 229.54C1338.35 228.607 1337.93 227.887 1337.09 227.38C1336.25 226.873 1335.06 226.62 1333.53 226.62C1331.91 226.62 1330.67 226.907 1329.81 227.48C1328.95 228.04 1328.53 228.933 1328.53 230.16H1323.33C1323.33 228.493 1323.77 227.087 1324.65 225.94C1325.54 224.78 1326.76 223.9 1328.31 223.3C1329.85 222.7 1331.61 222.4 1333.57 222.4C1335.39 222.4 1337.07 222.673 1338.59 223.22C1340.11 223.767 1341.33 224.593 1342.25 225.7C1343.17 226.807 1343.63 228.187 1343.63 229.84C1343.63 230.12 1343.63 230.4 1343.63 230.68C1343.63 230.96 1343.63 231.24 1343.63 231.52V239.52C1343.63 240.027 1343.64 240.527 1343.67 241.02C1343.71 241.5 1343.78 241.933 1343.89 242.32C1344.02 242.747 1344.18 243.107 1344.37 243.4C1344.55 243.693 1344.7 243.893 1344.81 244H1339.61C1339.51 243.907 1339.38 243.727 1339.21 243.46C1339.05 243.18 1338.9 242.86 1338.77 242.5C1338.63 242.1 1338.53 241.673 1338.47 241.22C1338.4 240.753 1338.37 240.24 1338.37 239.68L1339.41 240.4C1339.01 241.213 1338.39 241.927 1337.57 242.54C1336.75 243.14 1335.78 243.607 1334.65 243.94C1333.51 244.273 1332.28 244.44 1330.95 244.44ZM1332.23 240.3C1333.32 240.3 1334.33 240.113 1335.27 239.74C1336.2 239.367 1336.95 238.793 1337.53 238.02C1338.1 237.233 1338.39 236.227 1338.39 235V232.16L1339.67 233.6C1338.81 233.92 1337.79 234.187 1336.59 234.4C1335.39 234.6 1334.17 234.76 1332.95 234.88C1331.37 235.027 1330.19 235.3 1329.39 235.7C1328.6 236.1 1328.21 236.753 1328.21 237.66C1328.21 238.54 1328.54 239.2 1329.21 239.64C1329.87 240.08 1330.88 240.3 1332.23 240.3ZM1356.93 244.44C1355.18 244.44 1353.56 244.02 1352.07 243.18C1350.59 242.327 1349.4 241.073 1348.51 239.42C1347.62 237.767 1347.17 235.733 1347.17 233.32C1347.17 230.973 1347.62 228.987 1348.53 227.36C1349.45 225.733 1350.65 224.5 1352.13 223.66C1353.62 222.82 1355.22 222.4 1356.93 222.4C1358.6 222.4 1360.14 222.813 1361.55 223.64C1362.96 224.453 1364.1 225.587 1364.95 227.04C1365.8 228.493 1366.23 230.16 1366.23 232.04C1366.23 232.093 1366.23 232.147 1366.23 232.2C1366.23 232.253 1366.23 232.307 1366.23 232.36L1363.63 232.42C1363.63 232.38 1363.63 232.34 1363.63 232.3C1363.63 232.247 1363.63 232.2 1363.63 232.16C1363.63 231.107 1363.36 230.187 1362.83 229.4C1362.31 228.613 1361.63 228 1360.79 227.56C1359.96 227.107 1359.08 226.88 1358.15 226.88C1356.62 226.88 1355.31 227.4 1354.23 228.44C1353.15 229.467 1352.61 231.093 1352.61 233.32C1352.61 235.533 1353.15 237.167 1354.23 238.22C1355.31 239.273 1356.62 239.8 1358.15 239.8C1359.12 239.8 1360.02 239.567 1360.85 239.1C1361.68 238.633 1362.34 237.993 1362.85 237.18C1363.37 236.353 1363.63 235.407 1363.63 234.34L1366.23 234.46C1366.23 236.327 1365.81 238.02 1364.97 239.54C1364.14 241.047 1363.03 242.24 1361.63 243.12C1360.23 244 1358.66 244.44 1356.93 244.44ZM1363.63 244V212.74H1368.91V244H1363.63ZM1375.65 235.08V231.34H1390.51L1389.91 232.34C1389.91 232.26 1389.91 232.173 1389.91 232.08C1389.91 231.973 1389.91 231.887 1389.91 231.82C1389.91 230.9 1389.7 230.04 1389.29 229.24C1388.87 228.427 1388.25 227.773 1387.41 227.28C1386.57 226.773 1385.5 226.52 1384.21 226.52C1382.93 226.52 1381.81 226.793 1380.87 227.34C1379.93 227.873 1379.21 228.647 1378.69 229.66C1378.18 230.673 1377.93 231.887 1377.93 233.3C1377.93 234.753 1378.17 236.007 1378.67 237.06C1379.16 238.1 1379.88 238.9 1380.83 239.46C1381.79 240.007 1382.95 240.28 1384.33 240.28C1385.26 240.28 1386.07 240.193 1386.75 240.02C1387.43 239.847 1387.98 239.613 1388.41 239.32C1388.85 239.013 1389.17 238.687 1389.39 238.34C1389.61 237.993 1389.75 237.647 1389.79 237.3H1395.03C1394.95 238.193 1394.65 239.067 1394.13 239.92C1393.62 240.76 1392.91 241.527 1391.99 242.22C1391.07 242.9 1389.95 243.447 1388.63 243.86C1387.32 244.26 1385.83 244.46 1384.15 244.46C1381.87 244.46 1379.87 243.993 1378.17 243.06C1376.46 242.127 1375.13 240.827 1374.17 239.16C1373.22 237.493 1372.75 235.587 1372.75 233.44C1372.75 231.24 1373.23 229.313 1374.19 227.66C1375.16 226.007 1376.51 224.72 1378.23 223.8C1379.95 222.867 1381.92 222.4 1384.15 222.4C1386.44 222.4 1388.42 222.867 1390.09 223.8C1391.77 224.733 1393.06 226.033 1393.97 227.7C1394.87 229.353 1395.33 231.28 1395.33 233.48C1395.33 233.76 1395.32 234.06 1395.31 234.38C1395.29 234.7 1395.27 234.933 1395.25 235.08H1375.65ZM1399.26 244V222.76H1404.52V229.82L1403.3 229.14C1403.44 228.22 1403.68 227.353 1404.04 226.54C1404.4 225.713 1404.88 224.993 1405.48 224.38C1406.08 223.753 1406.81 223.267 1407.66 222.92C1408.52 222.573 1409.49 222.4 1410.58 222.4C1411.45 222.4 1412.13 222.467 1412.62 222.6C1413.13 222.72 1413.44 222.82 1413.56 222.9L1412.6 227.72C1412.47 227.627 1412.2 227.513 1411.78 227.38C1411.38 227.233 1410.84 227.16 1410.16 227.16C1409.08 227.16 1408.18 227.347 1407.44 227.72C1406.72 228.08 1406.15 228.573 1405.72 229.2C1405.3 229.813 1404.99 230.493 1404.8 231.24C1404.62 231.973 1404.52 232.707 1404.52 233.44V244H1399.26ZM1430.44 212.74L1418.82 247.1H1414.52L1426.16 212.74H1430.44ZM1436.98 223.62L1450.08 231.58V235.18L1436.98 243.12V238.68L1448 232.8V233.96L1436.98 228.04V223.62Z" fill="#D17805"/>
<rect x="1205" y="185" width="290" height="96" rx="48" stroke="#D17805" stroke-width="6"/>
<rect x="1205" y="801" width="290" height="96" rx="48" fill="#C9FBE2"/>
<path d="M1275.03 859.12L1261.91 851.18V847.58L1275.03 839.62V844.04L1264.01 849.96V848.8L1275.03 854.68V859.12ZM1304.15 830.5H1313.11V860H1308.09V833.86L1308.21 833.9L1301.87 860H1294.83L1288.41 833.88L1288.53 833.82V860H1283.51V830.5H1292.47L1298.45 857.12H1298.11L1304.15 830.5ZM1328.64 860.42C1326.4 860.42 1324.43 859.953 1322.72 859.02C1321.01 858.073 1319.67 856.767 1318.7 855.1C1317.74 853.433 1317.26 851.527 1317.26 849.38C1317.26 847.22 1317.74 845.32 1318.7 843.68C1319.67 842.027 1321.01 840.733 1322.72 839.8C1324.43 838.867 1326.4 838.4 1328.64 838.4C1330.88 838.4 1332.85 838.867 1334.56 839.8C1336.27 840.733 1337.6 842.027 1338.56 843.68C1339.53 845.32 1340.02 847.22 1340.02 849.38C1340.02 851.527 1339.53 853.433 1338.56 855.1C1337.6 856.767 1336.27 858.073 1334.56 859.02C1332.85 859.953 1330.88 860.42 1328.64 860.42ZM1328.64 856.12C1329.85 856.12 1330.91 855.84 1331.82 855.28C1332.73 854.72 1333.43 853.94 1333.94 852.94C1334.45 851.927 1334.7 850.74 1334.7 849.38C1334.7 848.02 1334.45 846.847 1333.94 845.86C1333.43 844.86 1332.73 844.087 1331.82 843.54C1330.91 842.993 1329.85 842.72 1328.64 842.72C1327.44 842.72 1326.38 842.993 1325.46 843.54C1324.55 844.087 1323.85 844.86 1323.34 845.86C1322.83 846.847 1322.58 848.02 1322.58 849.38C1322.58 850.74 1322.83 851.927 1323.34 852.94C1323.85 853.94 1324.55 854.72 1325.46 855.28C1326.38 855.84 1327.44 856.12 1328.64 856.12ZM1352.79 860.44C1351.05 860.44 1349.43 860.02 1347.93 859.18C1346.45 858.327 1345.27 857.073 1344.37 855.42C1343.48 853.767 1343.03 851.733 1343.03 849.32C1343.03 846.973 1343.49 844.987 1344.39 843.36C1345.31 841.733 1346.51 840.5 1347.99 839.66C1349.49 838.82 1351.09 838.4 1352.79 838.4C1354.46 838.4 1356 838.813 1357.41 839.64C1358.83 840.453 1359.96 841.587 1360.81 843.04C1361.67 844.493 1362.09 846.16 1362.09 848.04C1362.09 848.093 1362.09 848.147 1362.09 848.2C1362.09 848.253 1362.09 848.307 1362.09 848.36L1359.49 848.42C1359.49 848.38 1359.49 848.34 1359.49 848.3C1359.49 848.247 1359.49 848.2 1359.49 848.16C1359.49 847.107 1359.23 846.187 1358.69 845.4C1358.17 844.613 1357.49 844 1356.65 843.56C1355.83 843.107 1354.95 842.88 1354.01 842.88C1352.48 842.88 1351.17 843.4 1350.09 844.44C1349.01 845.467 1348.47 847.093 1348.47 849.32C1348.47 851.533 1349.01 853.167 1350.09 854.22C1351.17 855.273 1352.48 855.8 1354.01 855.8C1354.99 855.8 1355.89 855.567 1356.71 855.1C1357.54 854.633 1358.21 853.993 1358.71 853.18C1359.23 852.353 1359.49 851.407 1359.49 850.34L1362.09 850.46C1362.09 852.327 1361.67 854.02 1360.83 855.54C1360.01 857.047 1358.89 858.24 1357.49 859.12C1356.09 860 1354.53 860.44 1352.79 860.44ZM1359.49 860V828.74H1364.77V860H1359.49ZM1376.83 860.44C1375.24 860.44 1373.85 860.193 1372.65 859.7C1371.45 859.193 1370.51 858.467 1369.83 857.52C1369.15 856.573 1368.81 855.433 1368.81 854.1C1368.81 852.647 1369.2 851.453 1369.99 850.52C1370.79 849.573 1371.86 848.847 1373.21 848.34C1374.56 847.82 1376.05 847.487 1377.69 847.34C1380.12 847.1 1381.81 846.873 1382.77 846.66C1383.74 846.433 1384.23 846.073 1384.23 845.58C1384.23 845.567 1384.23 845.56 1384.23 845.56C1384.23 845.547 1384.23 845.54 1384.23 845.54C1384.23 844.607 1383.81 843.887 1382.97 843.38C1382.13 842.873 1380.94 842.62 1379.41 842.62C1377.8 842.62 1376.56 842.907 1375.69 843.48C1374.84 844.04 1374.41 844.933 1374.41 846.16H1369.21C1369.21 844.493 1369.65 843.087 1370.53 841.94C1371.42 840.78 1372.64 839.9 1374.19 839.3C1375.74 838.7 1377.49 838.4 1379.45 838.4C1381.28 838.4 1382.95 838.673 1384.47 839.22C1385.99 839.767 1387.21 840.593 1388.13 841.7C1389.05 842.807 1389.51 844.187 1389.51 845.84C1389.51 846.12 1389.51 846.4 1389.51 846.68C1389.51 846.96 1389.51 847.24 1389.51 847.52V855.52C1389.51 856.027 1389.52 856.527 1389.55 857.02C1389.59 857.5 1389.66 857.933 1389.77 858.32C1389.9 858.747 1390.06 859.107 1390.25 859.4C1390.44 859.693 1390.58 859.893 1390.69 860H1385.49C1385.4 859.907 1385.26 859.727 1385.09 859.46C1384.93 859.18 1384.78 858.86 1384.65 858.5C1384.52 858.1 1384.42 857.673 1384.35 857.22C1384.28 856.753 1384.25 856.24 1384.25 855.68L1385.29 856.4C1384.89 857.213 1384.28 857.927 1383.45 858.54C1382.64 859.14 1381.66 859.607 1380.53 859.94C1379.4 860.273 1378.16 860.44 1376.83 860.44ZM1378.11 856.3C1379.2 856.3 1380.22 856.113 1381.15 855.74C1382.08 855.367 1382.84 854.793 1383.41 854.02C1383.98 853.233 1384.27 852.227 1384.27 851V848.16L1385.55 849.6C1384.7 849.92 1383.67 850.187 1382.47 850.4C1381.27 850.6 1380.06 850.76 1378.83 850.88C1377.26 851.027 1376.07 851.3 1375.27 851.7C1374.48 852.1 1374.09 852.753 1374.09 853.66C1374.09 854.54 1374.42 855.2 1375.09 855.64C1375.76 856.08 1376.76 856.3 1378.11 856.3ZM1399.47 828.74V860H1394.29V828.74H1399.47ZM1418.41 828.74L1406.79 863.1H1402.49L1414.13 828.74H1418.41ZM1424.95 839.62L1438.05 847.58V851.18L1424.95 859.12V854.68L1435.97 848.8V849.96L1424.95 844.04V839.62Z" fill="#009483"/>
<rect x="1205" y="801" width="290" height="96" rx="48" stroke="#009483" stroke-width="6"/>
<rect x="1205" y="577" width="290" height="96" rx="48" fill="#FED9D2"/>
<path d="M1269.84 635.12L1256.72 627.18V623.58L1269.84 615.62V620.04L1258.82 625.96V624.8L1269.84 630.68V635.12ZM1280.9 610.7L1283.28 608.08V620.86L1281.64 619.44H1293.68V623.66H1281.64L1283.28 622.14V636H1278.04V606.5H1295.46V610.7H1280.9ZM1308.29 636.42C1306.05 636.42 1304.08 635.953 1302.37 635.02C1300.67 634.073 1299.33 632.767 1298.35 631.1C1297.39 629.433 1296.91 627.527 1296.91 625.38C1296.91 623.22 1297.39 621.32 1298.35 619.68C1299.33 618.027 1300.67 616.733 1302.37 615.8C1304.08 614.867 1306.05 614.4 1308.29 614.4C1310.53 614.4 1312.51 614.867 1314.21 615.8C1315.92 616.733 1317.25 618.027 1318.21 619.68C1319.19 621.32 1319.67 623.22 1319.67 625.38C1319.67 627.527 1319.19 629.433 1318.21 631.1C1317.25 632.767 1315.92 634.073 1314.21 635.02C1312.51 635.953 1310.53 636.42 1308.29 636.42ZM1308.29 632.12C1309.51 632.12 1310.57 631.84 1311.47 631.28C1312.38 630.72 1313.09 629.94 1313.59 628.94C1314.1 627.927 1314.35 626.74 1314.35 625.38C1314.35 624.02 1314.1 622.847 1313.59 621.86C1313.09 620.86 1312.38 620.087 1311.47 619.54C1310.57 618.993 1309.51 618.72 1308.29 618.72C1307.09 618.72 1306.03 618.993 1305.11 619.54C1304.21 620.087 1303.5 620.86 1302.99 621.86C1302.49 622.847 1302.23 624.02 1302.23 625.38C1302.23 626.74 1302.49 627.927 1302.99 628.94C1303.5 629.94 1304.21 630.72 1305.11 631.28C1306.03 631.84 1307.09 632.12 1308.29 632.12ZM1334.07 636.42C1331.83 636.42 1329.85 635.953 1328.15 635.02C1326.44 634.073 1325.1 632.767 1324.13 631.1C1323.17 629.433 1322.69 627.527 1322.69 625.38C1322.69 623.22 1323.17 621.32 1324.13 619.68C1325.1 618.027 1326.44 616.733 1328.15 615.8C1329.85 614.867 1331.83 614.4 1334.07 614.4C1336.31 614.4 1338.28 614.867 1339.99 615.8C1341.69 616.733 1343.03 618.027 1343.99 619.68C1344.96 621.32 1345.45 623.22 1345.45 625.38C1345.45 627.527 1344.96 629.433 1343.99 631.1C1343.03 632.767 1341.69 634.073 1339.99 635.02C1338.28 635.953 1336.31 636.42 1334.07 636.42ZM1334.07 632.12C1335.28 632.12 1336.34 631.84 1337.25 631.28C1338.15 630.72 1338.86 629.94 1339.37 628.94C1339.87 627.927 1340.13 626.74 1340.13 625.38C1340.13 624.02 1339.87 622.847 1339.37 621.86C1338.86 620.86 1338.15 620.087 1337.25 619.54C1336.34 618.993 1335.28 618.72 1334.07 618.72C1332.87 618.72 1331.81 618.993 1330.89 619.54C1329.98 620.087 1329.27 620.86 1328.77 621.86C1328.26 622.847 1328.01 624.02 1328.01 625.38C1328.01 626.74 1328.26 627.927 1328.77 628.94C1329.27 629.94 1329.98 630.72 1330.89 631.28C1331.81 631.84 1332.87 632.12 1334.07 632.12ZM1358.92 636.4C1358.16 636.4 1357.39 636.327 1356.6 636.18C1355.82 636.033 1355.1 635.76 1354.44 635.36C1353.79 634.96 1353.26 634.373 1352.86 633.6C1352.46 632.827 1352.26 631.807 1352.26 630.54C1352.26 630.247 1352.26 629.953 1352.26 629.66C1352.26 629.353 1352.26 629.04 1352.26 628.72V618.96H1347.24V614.76H1349.28C1349.98 614.76 1350.52 614.733 1350.92 614.68C1351.32 614.613 1351.62 614.467 1351.8 614.24C1351.99 614.013 1352.11 613.66 1352.16 613.18C1352.23 612.687 1352.26 612.007 1352.26 611.14V607.76H1357.54V614.76H1363.86V618.96H1357.54V627.48C1357.54 627.733 1357.54 627.987 1357.54 628.24C1357.54 628.48 1357.54 628.713 1357.54 628.94C1357.54 629.927 1357.66 630.72 1357.9 631.32C1358.14 631.92 1358.71 632.22 1359.6 632.22C1360.03 632.22 1360.43 632.18 1360.8 632.1C1361.19 632.02 1361.48 631.94 1361.66 631.86V635.98C1361.41 636.073 1361.04 636.167 1360.56 636.26C1360.08 636.353 1359.54 636.4 1358.92 636.4ZM1368.81 627.08V623.34H1383.67L1383.07 624.34C1383.07 624.26 1383.07 624.173 1383.07 624.08C1383.07 623.973 1383.07 623.887 1383.07 623.82C1383.07 622.9 1382.86 622.04 1382.45 621.24C1382.04 620.427 1381.41 619.773 1380.57 619.28C1379.73 618.773 1378.66 618.52 1377.37 618.52C1376.09 618.52 1374.98 618.793 1374.03 619.34C1373.1 619.873 1372.37 620.647 1371.85 621.66C1371.34 622.673 1371.09 623.887 1371.09 625.3C1371.09 626.753 1371.34 628.007 1371.83 629.06C1372.32 630.1 1373.04 630.9 1373.99 631.46C1374.95 632.007 1376.12 632.28 1377.49 632.28C1378.42 632.28 1379.23 632.193 1379.91 632.02C1380.59 631.847 1381.14 631.613 1381.57 631.32C1382.01 631.013 1382.34 630.687 1382.55 630.34C1382.78 629.993 1382.91 629.647 1382.95 629.3H1388.19C1388.11 630.193 1387.81 631.067 1387.29 631.92C1386.78 632.76 1386.07 633.527 1385.15 634.22C1384.23 634.9 1383.11 635.447 1381.79 635.86C1380.48 636.26 1378.99 636.46 1377.31 636.46C1375.03 636.46 1373.04 635.993 1371.33 635.06C1369.62 634.127 1368.29 632.827 1367.33 631.16C1366.38 629.493 1365.91 627.587 1365.91 625.44C1365.91 623.24 1366.39 621.313 1367.35 619.66C1368.32 618.007 1369.67 616.72 1371.39 615.8C1373.11 614.867 1375.08 614.4 1377.31 614.4C1379.6 614.4 1381.58 614.867 1383.25 615.8C1384.93 616.733 1386.22 618.033 1387.13 619.7C1388.04 621.353 1388.49 623.28 1388.49 625.48C1388.49 625.76 1388.48 626.06 1388.47 626.38C1388.46 626.7 1388.44 626.933 1388.41 627.08H1368.81ZM1392.43 636V614.76H1397.69V621.82L1396.47 621.14C1396.6 620.22 1396.85 619.353 1397.21 618.54C1397.57 617.713 1398.05 616.993 1398.65 616.38C1399.25 615.753 1399.97 615.267 1400.83 614.92C1401.68 614.573 1402.65 614.4 1403.75 614.4C1404.61 614.4 1405.29 614.467 1405.79 614.6C1406.29 614.72 1406.61 614.82 1406.73 614.9L1405.77 619.72C1405.63 619.627 1405.36 619.513 1404.95 619.38C1404.55 619.233 1404.01 619.16 1403.33 619.16C1402.25 619.16 1401.34 619.347 1400.61 619.72C1399.89 620.08 1399.31 620.573 1398.89 621.2C1398.46 621.813 1398.15 622.493 1397.97 623.24C1397.78 623.973 1397.69 624.707 1397.69 625.44V636H1392.43ZM1423.6 604.74L1411.98 639.1H1407.68L1419.32 604.74H1423.6ZM1430.14 615.62L1443.24 623.58V627.18L1430.14 635.12V630.68L1441.16 624.8V625.96L1430.14 620.04V615.62Z" fill="#DA2F84"/>
<rect x="1205" y="577" width="290" height="96" rx="48" stroke="#DA2F84" stroke-opacity="0.64" stroke-width="6"/>
<path d="M1284.87 164.168H1298.69V170H1276.9V164.48L1290.39 150.056L1290.56 150.32H1277.38V144.512H1298.4V150.032L1285.04 164.408L1284.87 164.168ZM1301 158.696V154.136H1318.5V158.696H1301ZM1323.03 170V144.512H1330.4V170H1323.03ZM1326.7 140.36C1325.55 140.36 1324.54 140.056 1323.68 139.448C1322.83 138.84 1322.41 137.984 1322.41 136.88C1322.41 135.76 1322.83 134.896 1323.68 134.288C1324.54 133.68 1325.55 133.376 1326.7 133.376C1327.87 133.376 1328.88 133.68 1329.73 134.288C1330.59 134.896 1331.02 135.76 1331.02 136.88C1331.02 138 1330.59 138.864 1329.73 139.472C1328.88 140.064 1327.87 140.36 1326.7 140.36ZM1352.87 170V159.176C1352.87 158.568 1352.87 158.016 1352.87 157.52C1352.87 157.024 1352.87 156.576 1352.87 156.176C1352.87 155.12 1352.74 154.16 1352.47 153.296C1352.19 152.416 1351.71 151.712 1351 151.184C1350.3 150.656 1349.28 150.392 1347.95 150.392C1346.8 150.392 1345.8 150.656 1344.95 151.184C1344.12 151.712 1343.48 152.448 1343.03 153.392C1342.59 154.336 1342.36 155.424 1342.36 156.656L1340.3 155.168C1340.3 152.96 1340.78 151.024 1341.74 149.36C1342.7 147.696 1343.99 146.392 1345.63 145.448C1347.27 144.504 1349.1 144.032 1351.1 144.032C1353.19 144.032 1354.91 144.456 1356.26 145.304C1357.62 146.136 1358.63 147.304 1359.28 148.808C1359.95 150.296 1360.29 152.04 1360.29 154.04C1360.29 154.856 1360.29 155.768 1360.29 156.776C1360.29 157.784 1360.29 158.816 1360.29 159.872V170H1352.87ZM1334.92 170V144.512H1342.36V170H1334.92ZM1375.56 170.576C1373.43 170.576 1371.47 170.072 1369.68 169.064C1367.88 168.04 1366.44 166.528 1365.36 164.528C1364.27 162.528 1363.72 160.064 1363.72 157.136C1363.72 154.336 1364.28 151.96 1365.38 150.008C1366.5 148.056 1367.96 146.576 1369.75 145.568C1371.56 144.544 1373.49 144.032 1375.56 144.032C1377.57 144.032 1379.41 144.544 1381.08 145.568C1382.76 146.592 1384.1 147.992 1385.11 149.768C1386.12 151.528 1386.62 153.56 1386.62 155.864C1386.62 155.944 1386.62 156.024 1386.62 156.104C1386.62 156.168 1386.62 156.24 1386.62 156.32L1383.4 156.368C1383.4 156.32 1383.4 156.272 1383.4 156.224C1383.4 156.16 1383.4 156.104 1383.4 156.056C1383.4 154.856 1383.12 153.824 1382.54 152.96C1381.96 152.096 1381.22 151.432 1380.31 150.968C1379.4 150.488 1378.44 150.248 1377.45 150.248C1375.8 150.248 1374.38 150.8 1373.18 151.904C1371.98 152.992 1371.38 154.736 1371.38 157.136C1371.38 159.536 1371.98 161.304 1373.18 162.44C1374.4 163.56 1375.82 164.12 1377.45 164.12C1378.48 164.12 1379.44 163.88 1380.36 163.4C1381.27 162.904 1382 162.208 1382.56 161.312C1383.12 160.416 1383.4 159.36 1383.4 158.144L1386.62 158.312C1386.62 160.6 1386.12 162.672 1385.13 164.528C1384.16 166.368 1382.83 167.84 1381.15 168.944C1379.48 170.032 1377.62 170.576 1375.56 170.576ZM1383.4 170V132.488H1390.87V170H1383.4ZM1398.44 159.488V154.568H1415.33L1414.61 155.816C1414.61 155.688 1414.61 155.568 1414.61 155.456C1414.61 155.328 1414.61 155.208 1414.61 155.096C1414.61 154.184 1414.4 153.312 1413.96 152.48C1413.53 151.632 1412.86 150.944 1411.95 150.416C1411.05 149.872 1409.9 149.6 1408.49 149.6C1407.08 149.6 1405.87 149.904 1404.84 150.512C1403.84 151.104 1403.06 151.96 1402.52 153.08C1401.99 154.2 1401.72 155.552 1401.72 157.136C1401.72 158.768 1401.98 160.168 1402.49 161.336C1403.02 162.488 1403.8 163.376 1404.82 164C1405.86 164.624 1407.15 164.936 1408.68 164.936C1409.68 164.936 1410.53 164.848 1411.25 164.672C1411.97 164.48 1412.56 164.24 1413 163.952C1413.47 163.664 1413.82 163.344 1414.06 162.992C1414.3 162.64 1414.44 162.296 1414.49 161.96H1421.84C1421.74 163.032 1421.37 164.088 1420.73 165.128C1420.09 166.152 1419.2 167.08 1418.07 167.912C1416.93 168.728 1415.55 169.376 1413.92 169.856C1412.3 170.336 1410.45 170.576 1408.37 170.576C1405.56 170.576 1403.1 170.016 1401 168.896C1398.91 167.76 1397.28 166.2 1396.13 164.216C1394.98 162.216 1394.4 159.912 1394.4 157.304C1394.4 154.664 1394.99 152.352 1396.16 150.368C1397.34 148.368 1398.98 146.816 1401.08 145.712C1403.19 144.592 1405.63 144.032 1408.4 144.032C1411.23 144.032 1413.68 144.6 1415.74 145.736C1417.8 146.856 1419.4 148.432 1420.52 150.464C1421.64 152.48 1422.2 154.832 1422.2 157.52C1422.2 157.92 1422.19 158.304 1422.17 158.672C1422.16 159.04 1422.13 159.312 1422.1 159.488H1398.44ZM1432.81 155.96L1432.74 159.296L1422.16 144.512H1430.25L1437.85 155.84L1433.39 155.792L1440.95 144.512H1448.89L1438.74 158.36L1438.38 154.976L1448.99 170H1440.85L1433.08 158.624L1438.12 158.384L1429.67 170H1421.73L1432.81 155.96ZM1455.7 170.72C1454.6 170.72 1453.66 170.336 1452.89 169.568C1452.13 168.8 1451.74 167.864 1451.74 166.76C1451.74 165.672 1452.13 164.744 1452.89 163.976C1453.66 163.208 1454.6 162.824 1455.7 162.824C1456.79 162.824 1457.72 163.208 1458.49 163.976C1459.25 164.744 1459.64 165.672 1459.64 166.76C1459.64 167.864 1459.25 168.8 1458.49 169.568C1457.72 170.336 1456.79 170.72 1455.7 170.72ZM1455.73 152.6C1454.62 152.6 1453.69 152.216 1452.92 151.448C1452.15 150.68 1451.77 149.744 1451.77 148.64C1451.77 147.552 1452.15 146.624 1452.92 145.856C1453.69 145.088 1454.62 144.704 1455.73 144.704C1456.81 144.704 1457.74 145.088 1458.51 145.856C1459.28 146.624 1459.66 147.552 1459.66 148.64C1459.66 149.744 1459.28 150.68 1458.51 151.448C1457.74 152.216 1456.81 152.6 1455.73 152.6ZM1489.61 134.552V170H1482.22V141.512C1482.01 141.672 1481.57 141.88 1480.88 142.136C1480.21 142.376 1479.4 142.608 1478.45 142.832C1477.51 143.056 1476.53 143.208 1475.53 143.288V137.432C1476.53 137.304 1477.52 137.088 1478.48 136.784C1479.44 136.464 1480.26 136.104 1480.95 135.704C1481.65 135.304 1482.12 134.92 1482.34 134.552H1489.61Z" fill="black"/>
<path d="M1277.43 556.168H1291.26V562H1269.46V556.48L1282.95 542.056L1283.12 542.32H1269.94V536.512H1290.97V542.032L1277.6 556.408L1277.43 556.168ZM1293.57 550.696V546.136H1311.06V550.696H1293.57ZM1315.59 562V536.512H1322.96V562H1315.59ZM1319.27 532.36C1318.11 532.36 1317.11 532.056 1316.24 531.448C1315.39 530.84 1314.97 529.984 1314.97 528.88C1314.97 527.76 1315.39 526.896 1316.24 526.288C1317.11 525.68 1318.11 525.376 1319.27 525.376C1320.43 525.376 1321.44 525.68 1322.29 526.288C1323.15 526.896 1323.59 527.76 1323.59 528.88C1323.59 530 1323.15 530.864 1322.29 531.472C1321.44 532.064 1320.43 532.36 1319.27 532.36ZM1345.44 562V551.176C1345.44 550.568 1345.44 550.016 1345.44 549.52C1345.44 549.024 1345.44 548.576 1345.44 548.176C1345.44 547.12 1345.3 546.16 1345.03 545.296C1344.76 544.416 1344.27 543.712 1343.56 543.184C1342.86 542.656 1341.84 542.392 1340.52 542.392C1339.36 542.392 1338.36 542.656 1337.52 543.184C1336.68 543.712 1336.04 544.448 1335.6 545.392C1335.15 546.336 1334.92 547.424 1334.92 548.656L1332.86 547.168C1332.86 544.96 1333.34 543.024 1334.3 541.36C1335.26 539.696 1336.56 538.392 1338.19 537.448C1339.84 536.504 1341.66 536.032 1343.66 536.032C1345.76 536.032 1347.48 536.456 1348.82 537.304C1350.18 538.136 1351.19 539.304 1351.84 540.808C1352.52 542.296 1352.85 544.04 1352.85 546.04C1352.85 546.856 1352.85 547.768 1352.85 548.776C1352.85 549.784 1352.85 550.816 1352.85 551.872V562H1345.44ZM1327.48 562V536.512H1334.92V562H1327.48ZM1368.12 562.576C1365.99 562.576 1364.03 562.072 1362.24 561.064C1360.45 560.04 1359.01 558.528 1357.92 556.528C1356.83 554.528 1356.29 552.064 1356.29 549.136C1356.29 546.336 1356.84 543.96 1357.94 542.008C1359.06 540.056 1360.52 538.576 1362.31 537.568C1364.12 536.544 1366.05 536.032 1368.12 536.032C1370.13 536.032 1371.97 536.544 1373.64 537.568C1375.32 538.592 1376.66 539.992 1377.67 541.768C1378.68 543.528 1379.18 545.56 1379.18 547.864C1379.18 547.944 1379.18 548.024 1379.18 548.104C1379.18 548.168 1379.18 548.24 1379.18 548.32L1375.97 548.368C1375.97 548.32 1375.97 548.272 1375.97 548.224C1375.97 548.16 1375.97 548.104 1375.97 548.056C1375.97 546.856 1375.68 545.824 1375.1 544.96C1374.53 544.096 1373.78 543.432 1372.87 542.968C1371.96 542.488 1371.01 542.248 1370.01 542.248C1368.37 542.248 1366.94 542.8 1365.74 543.904C1364.54 544.992 1363.94 546.736 1363.94 549.136C1363.94 551.536 1364.54 553.304 1365.74 554.44C1366.96 555.56 1368.38 556.12 1370.01 556.12C1371.04 556.12 1372.01 555.88 1372.92 555.4C1373.83 554.904 1374.57 554.208 1375.13 553.312C1375.69 552.416 1375.97 551.36 1375.97 550.144L1379.18 550.312C1379.18 552.6 1378.69 554.672 1377.69 556.528C1376.72 558.368 1375.39 559.84 1373.71 560.944C1372.05 562.032 1370.18 562.576 1368.12 562.576ZM1375.97 562V524.488H1383.43V562H1375.97ZM1391 551.488V546.568H1407.89L1407.17 547.816C1407.17 547.688 1407.17 547.568 1407.17 547.456C1407.17 547.328 1407.17 547.208 1407.17 547.096C1407.17 546.184 1406.96 545.312 1406.53 544.48C1406.09 543.632 1405.42 542.944 1404.51 542.416C1403.61 541.872 1402.46 541.6 1401.05 541.6C1399.65 541.6 1398.43 541.904 1397.41 542.512C1396.4 543.104 1395.62 543.96 1395.08 545.08C1394.55 546.2 1394.29 547.552 1394.29 549.136C1394.29 550.768 1394.54 552.168 1395.05 553.336C1395.58 554.488 1396.36 555.376 1397.38 556C1398.42 556.624 1399.71 556.936 1401.25 556.936C1402.24 556.936 1403.09 556.848 1403.81 556.672C1404.53 556.48 1405.12 556.24 1405.57 555.952C1406.03 555.664 1406.38 555.344 1406.62 554.992C1406.86 554.64 1407.01 554.296 1407.05 553.96H1414.4C1414.3 555.032 1413.93 556.088 1413.29 557.128C1412.65 558.152 1411.77 559.08 1410.63 559.912C1409.49 560.728 1408.11 561.376 1406.48 561.856C1404.86 562.336 1403.01 562.576 1400.93 562.576C1398.12 562.576 1395.66 562.016 1393.57 560.896C1391.47 559.76 1389.85 558.2 1388.69 556.216C1387.54 554.216 1386.97 551.912 1386.97 549.304C1386.97 546.664 1387.55 544.352 1388.72 542.368C1389.9 540.368 1391.54 538.816 1393.64 537.712C1395.75 536.592 1398.19 536.032 1400.96 536.032C1403.79 536.032 1406.24 536.6 1408.3 537.736C1410.37 538.856 1411.96 540.432 1413.08 542.464C1414.2 544.48 1414.76 546.832 1414.76 549.52C1414.76 549.92 1414.75 550.304 1414.73 550.672C1414.72 551.04 1414.69 551.312 1414.66 551.488H1391ZM1425.38 547.96L1425.3 551.296L1414.72 536.512H1422.81L1430.42 547.84L1425.95 547.792L1433.51 536.512H1441.46L1431.3 550.36L1430.94 546.976L1441.55 562H1433.42L1425.64 550.624L1430.68 550.384L1422.23 562H1414.29L1425.38 547.96ZM1448.26 562.72C1447.16 562.72 1446.22 562.336 1445.46 561.568C1444.69 560.8 1444.3 559.864 1444.3 558.76C1444.3 557.672 1444.69 556.744 1445.46 555.976C1446.22 555.208 1447.16 554.824 1448.26 554.824C1449.35 554.824 1450.28 555.208 1451.05 555.976C1451.82 556.744 1452.2 557.672 1452.2 558.76C1452.2 559.864 1451.82 560.8 1451.05 561.568C1450.28 562.336 1449.35 562.72 1448.26 562.72ZM1448.29 544.6C1447.18 544.6 1446.25 544.216 1445.48 543.448C1444.71 542.68 1444.33 541.744 1444.33 540.64C1444.33 539.552 1444.71 538.624 1445.48 537.856C1446.25 537.088 1447.18 536.704 1448.29 536.704C1449.38 536.704 1450.3 537.088 1451.07 537.856C1451.84 538.624 1452.22 539.552 1452.22 540.64C1452.22 541.744 1451.84 542.68 1451.07 543.448C1450.3 544.216 1449.38 544.6 1448.29 544.6ZM1467.51 562V555.904C1467.66 555.552 1468.08 555.032 1468.78 554.344C1469.49 553.64 1470.34 552.848 1471.35 551.968C1472.36 551.088 1473.42 550.192 1474.52 549.28C1475.64 548.352 1476.67 547.496 1477.62 546.712C1478.74 545.784 1479.82 544.824 1480.88 543.832C1481.94 542.824 1482.81 541.76 1483.5 540.64C1484.2 539.504 1484.55 538.312 1484.55 537.064C1484.55 535.496 1484.18 534.24 1483.42 533.296C1482.69 532.352 1481.51 531.88 1479.9 531.88C1478.6 531.88 1477.57 532.168 1476.8 532.744C1476.05 533.304 1475.51 534.096 1475.19 535.12C1474.87 536.128 1474.71 537.312 1474.71 538.672H1467.27C1467.27 536.08 1467.76 533.84 1468.74 531.952C1469.73 530.064 1471.17 528.616 1473.06 527.608C1474.96 526.584 1477.28 526.072 1480.02 526.072C1482.67 526.072 1484.89 526.56 1486.66 527.536C1488.46 528.512 1489.8 529.832 1490.7 531.496C1491.59 533.16 1492.04 535.04 1492.04 537.136C1492.04 538.544 1491.77 539.864 1491.22 541.096C1490.7 542.312 1490 543.44 1489.14 544.48C1488.29 545.52 1487.38 546.472 1486.4 547.336C1485.42 548.184 1484.5 548.952 1483.64 549.64C1482.18 550.792 1480.92 551.808 1479.85 552.688C1478.78 553.568 1477.92 554.312 1477.28 554.92C1476.66 555.528 1476.27 555.992 1476.13 556.312H1491.82V562H1467.51Z" fill="black"/>
<path d="M1248.88 780.168H1262.7V786H1240.91V780.48L1254.4 766.056L1254.57 766.32H1241.39V760.512H1262.42V766.032L1249.05 780.408L1248.88 780.168ZM1265.02 774.696V770.136H1282.51V774.696H1265.02ZM1287.04 786V760.512H1294.41V786H1287.04ZM1290.71 756.36C1289.56 756.36 1288.55 756.056 1287.69 755.448C1286.84 754.84 1286.42 753.984 1286.42 752.88C1286.42 751.76 1286.84 750.896 1287.69 750.288C1288.55 749.68 1289.56 749.376 1290.71 749.376C1291.88 749.376 1292.89 749.68 1293.74 750.288C1294.6 750.896 1295.03 751.76 1295.03 752.88C1295.03 754 1294.6 754.864 1293.74 755.472C1292.89 756.064 1291.88 756.36 1290.71 756.36ZM1316.89 786V775.176C1316.89 774.568 1316.89 774.016 1316.89 773.52C1316.89 773.024 1316.89 772.576 1316.89 772.176C1316.89 771.12 1316.75 770.16 1316.48 769.296C1316.21 768.416 1315.72 767.712 1315.01 767.184C1314.31 766.656 1313.29 766.392 1311.97 766.392C1310.81 766.392 1309.81 766.656 1308.97 767.184C1308.13 767.712 1307.49 768.448 1307.05 769.392C1306.6 770.336 1306.37 771.424 1306.37 772.656L1304.31 771.168C1304.31 768.96 1304.79 767.024 1305.75 765.36C1306.71 763.696 1308.01 762.392 1309.64 761.448C1311.29 760.504 1313.11 760.032 1315.11 760.032C1317.21 760.032 1318.93 760.456 1320.27 761.304C1321.63 762.136 1322.64 763.304 1323.29 764.808C1323.97 766.296 1324.3 768.04 1324.3 770.04C1324.3 770.856 1324.3 771.768 1324.3 772.776C1324.3 773.784 1324.3 774.816 1324.3 775.872V786H1316.89ZM1298.93 786V760.512H1306.37V786H1298.93ZM1339.57 786.576C1337.44 786.576 1335.48 786.072 1333.69 785.064C1331.89 784.04 1330.45 782.528 1329.37 780.528C1328.28 778.528 1327.73 776.064 1327.73 773.136C1327.73 770.336 1328.29 767.96 1329.39 766.008C1330.51 764.056 1331.97 762.576 1333.76 761.568C1335.57 760.544 1337.5 760.032 1339.57 760.032C1341.58 760.032 1343.42 760.544 1345.09 761.568C1346.77 762.592 1348.11 763.992 1349.12 765.768C1350.13 767.528 1350.63 769.56 1350.63 771.864C1350.63 771.944 1350.63 772.024 1350.63 772.104C1350.63 772.168 1350.63 772.24 1350.63 772.32L1347.41 772.368C1347.41 772.32 1347.41 772.272 1347.41 772.224C1347.41 772.16 1347.41 772.104 1347.41 772.056C1347.41 770.856 1347.13 769.824 1346.55 768.96C1345.97 768.096 1345.23 767.432 1344.32 766.968C1343.41 766.488 1342.45 766.248 1341.46 766.248C1339.81 766.248 1338.39 766.8 1337.19 767.904C1335.99 768.992 1335.39 770.736 1335.39 773.136C1335.39 775.536 1335.99 777.304 1337.19 778.44C1338.41 779.56 1339.83 780.12 1341.46 780.12C1342.49 780.12 1343.45 779.88 1344.37 779.4C1345.28 778.904 1346.01 778.208 1346.57 777.312C1347.13 776.416 1347.41 775.36 1347.41 774.144L1350.63 774.312C1350.63 776.6 1350.13 778.672 1349.14 780.528C1348.17 782.368 1346.84 783.84 1345.16 784.944C1343.49 786.032 1341.63 786.576 1339.57 786.576ZM1347.41 786V748.488H1354.88V786H1347.41ZM1362.45 775.488V770.568H1379.34L1378.62 771.816C1378.62 771.688 1378.62 771.568 1378.62 771.456C1378.62 771.328 1378.62 771.208 1378.62 771.096C1378.62 770.184 1378.41 769.312 1377.98 768.48C1377.54 767.632 1376.87 766.944 1375.96 766.416C1375.06 765.872 1373.91 765.6 1372.5 765.6C1371.1 765.6 1369.88 765.904 1368.86 766.512C1367.85 767.104 1367.07 767.96 1366.53 769.08C1366 770.2 1365.74 771.552 1365.74 773.136C1365.74 774.768 1365.99 776.168 1366.5 777.336C1367.03 778.488 1367.81 779.376 1368.83 780C1369.87 780.624 1371.16 780.936 1372.7 780.936C1373.69 780.936 1374.54 780.848 1375.26 780.672C1375.98 780.48 1376.57 780.24 1377.02 779.952C1377.48 779.664 1377.83 779.344 1378.07 778.992C1378.31 778.64 1378.46 778.296 1378.5 777.96H1385.85C1385.75 779.032 1385.38 780.088 1384.74 781.128C1384.1 782.152 1383.22 783.08 1382.08 783.912C1380.94 784.728 1379.56 785.376 1377.93 785.856C1376.31 786.336 1374.46 786.576 1372.38 786.576C1369.57 786.576 1367.11 786.016 1365.02 784.896C1362.92 783.76 1361.3 782.2 1360.14 780.216C1358.99 778.216 1358.42 775.912 1358.42 773.304C1358.42 770.664 1359 768.352 1360.17 766.368C1361.35 764.368 1362.99 762.816 1365.09 761.712C1367.2 760.592 1369.64 760.032 1372.41 760.032C1375.24 760.032 1377.69 760.6 1379.75 761.736C1381.82 762.856 1383.41 764.432 1384.53 766.464C1385.65 768.48 1386.21 770.832 1386.21 773.52C1386.21 773.92 1386.2 774.304 1386.18 774.672C1386.17 775.04 1386.14 775.312 1386.11 775.488H1362.45ZM1396.83 771.96L1396.75 775.296L1386.17 760.512H1394.26L1401.87 771.84L1397.4 771.792L1404.96 760.512H1412.91L1402.75 774.36L1402.39 770.976L1413 786H1404.87L1397.09 774.624L1402.13 774.384L1393.68 786H1385.74L1396.83 771.96ZM1419.71 786.72C1418.61 786.72 1417.67 786.336 1416.91 785.568C1416.14 784.8 1415.75 783.864 1415.75 782.76C1415.75 781.672 1416.14 780.744 1416.91 779.976C1417.67 779.208 1418.61 778.824 1419.71 778.824C1420.8 778.824 1421.73 779.208 1422.5 779.976C1423.27 780.744 1423.65 781.672 1423.65 782.76C1423.65 783.864 1423.27 784.8 1422.5 785.568C1421.73 786.336 1420.8 786.72 1419.71 786.72ZM1419.74 768.6C1418.63 768.6 1417.7 768.216 1416.93 767.448C1416.16 766.68 1415.78 765.744 1415.78 764.64C1415.78 763.552 1416.16 762.624 1416.93 761.856C1417.7 761.088 1418.63 760.704 1419.74 760.704C1420.83 760.704 1421.75 761.088 1422.52 761.856C1423.29 762.624 1423.67 763.552 1423.67 764.64C1423.67 765.744 1423.29 766.68 1422.52 767.448C1421.75 768.216 1420.83 768.6 1419.74 768.6ZM1451.08 786.576C1448.94 786.576 1447.17 786.216 1445.78 785.496C1444.38 784.76 1443.3 783.848 1442.54 782.76C1441.77 781.656 1441.22 780.544 1440.9 779.424C1440.6 778.288 1440.45 777.328 1440.45 776.544C1440.45 776.496 1440.45 776.464 1440.45 776.448C1440.45 776.432 1440.45 776.408 1440.45 776.376H1447.36C1447.36 776.408 1447.36 776.432 1447.36 776.448C1447.36 776.464 1447.36 776.496 1447.36 776.544C1447.36 776.944 1447.41 777.392 1447.5 777.888C1447.62 778.368 1447.81 778.832 1448.08 779.28C1448.35 779.728 1448.73 780.096 1449.21 780.384C1449.7 780.672 1450.34 780.816 1451.1 780.816C1452.26 780.816 1453.22 780.32 1453.98 779.328C1454.75 778.32 1455.32 776.792 1455.69 774.744C1456.07 772.696 1456.26 770.096 1456.26 766.944L1457.66 766.92C1457.59 767.928 1457.23 768.904 1456.58 769.848C1455.94 770.792 1455 771.568 1453.77 772.176C1452.54 772.768 1451.02 773.064 1449.23 773.064C1447.02 773.064 1445.18 772.576 1443.71 771.6C1442.24 770.608 1441.13 769.296 1440.38 767.664C1439.64 766.032 1439.27 764.232 1439.27 762.264C1439.27 759.928 1439.73 757.84 1440.64 756C1441.55 754.16 1442.9 752.712 1444.7 751.656C1446.5 750.6 1448.75 750.072 1451.44 750.072C1454.29 750.072 1456.6 750.76 1458.38 752.136C1460.17 753.496 1461.49 755.44 1462.34 757.968C1463.18 760.48 1463.61 763.472 1463.61 766.944C1463.61 770.096 1463.34 772.896 1462.79 775.344C1462.25 777.776 1461.44 779.824 1460.37 781.488C1459.31 783.152 1458 784.416 1456.43 785.28C1454.88 786.144 1453.1 786.576 1451.08 786.576ZM1451.1 767.736C1452.05 767.736 1452.87 767.512 1453.58 767.064C1454.3 766.616 1454.86 765.976 1455.26 765.144C1455.67 764.296 1455.88 763.264 1455.88 762.048C1455.88 760.816 1455.7 759.744 1455.33 758.832C1454.96 757.904 1454.43 757.176 1453.74 756.648C1453.07 756.12 1452.28 755.856 1451.37 755.856C1450.34 755.856 1449.49 756.08 1448.8 756.528C1448.13 756.976 1447.62 757.64 1447.26 758.52C1446.93 759.384 1446.76 760.464 1446.76 761.76C1446.76 762.992 1446.93 764.056 1447.26 764.952C1447.62 765.848 1448.11 766.536 1448.75 767.016C1449.41 767.496 1450.19 767.736 1451.1 767.736ZM1479.46 786.576C1477.32 786.576 1475.55 786.216 1474.16 785.496C1472.77 784.76 1471.69 783.848 1470.92 782.76C1470.15 781.656 1469.61 780.544 1469.29 779.424C1468.98 778.288 1468.83 777.328 1468.83 776.544C1468.83 776.496 1468.83 776.464 1468.83 776.448C1468.83 776.432 1468.83 776.408 1468.83 776.376H1475.74C1475.74 776.408 1475.74 776.432 1475.74 776.448C1475.74 776.464 1475.74 776.496 1475.74 776.544C1475.74 776.944 1475.79 777.392 1475.89 777.888C1476 778.368 1476.19 778.832 1476.46 779.28C1476.74 779.728 1477.11 780.096 1477.59 780.384C1478.09 780.672 1478.72 780.816 1479.49 780.816C1480.64 780.816 1481.6 780.32 1482.37 779.328C1483.14 778.32 1483.7 776.792 1484.07 774.744C1484.46 772.696 1484.65 770.096 1484.65 766.944L1486.04 766.92C1485.98 767.928 1485.62 768.904 1484.96 769.848C1484.32 770.792 1483.38 771.568 1482.15 772.176C1480.92 772.768 1479.41 773.064 1477.62 773.064C1475.41 773.064 1473.57 772.576 1472.1 771.6C1470.62 770.608 1469.51 769.296 1468.76 767.664C1468.02 766.032 1467.66 764.232 1467.66 762.264C1467.66 759.928 1468.11 757.84 1469.02 756C1469.94 754.16 1471.29 752.712 1473.08 751.656C1474.89 750.6 1477.14 750.072 1479.82 750.072C1482.67 750.072 1484.98 750.76 1486.76 752.136C1488.55 753.496 1489.87 755.44 1490.72 757.968C1491.57 760.48 1491.99 763.472 1491.99 766.944C1491.99 770.096 1491.72 772.896 1491.18 775.344C1490.63 777.776 1489.82 779.824 1488.75 781.488C1487.7 783.152 1486.38 784.416 1484.82 785.28C1483.26 786.144 1481.48 786.576 1479.46 786.576ZM1479.49 767.736C1480.43 767.736 1481.26 767.512 1481.96 767.064C1482.68 766.616 1483.24 765.976 1483.64 765.144C1484.06 764.296 1484.26 763.264 1484.26 762.048C1484.26 760.816 1484.08 759.744 1483.71 758.832C1483.34 757.904 1482.82 757.176 1482.13 756.648C1481.46 756.12 1480.66 755.856 1479.75 755.856C1478.73 755.856 1477.87 756.08 1477.18 756.528C1476.51 756.976 1476 757.64 1475.65 758.52C1475.31 759.384 1475.14 760.464 1475.14 761.76C1475.14 762.992 1475.31 764.056 1475.65 764.952C1476 765.848 1476.5 766.536 1477.14 767.016C1477.79 767.496 1478.58 767.736 1479.49 767.736Z" fill="black"/>
<rect x="1205" y="353" width="290" height="96" rx="48" fill="#E9D6FF"/>
<path d="M1286.78 411.12L1273.66 403.18V399.58L1286.78 391.62V396.04L1275.76 401.96V400.8L1286.78 406.68V411.12ZM1306.02 382.5C1307.99 382.5 1309.63 382.78 1310.94 383.34C1312.25 383.887 1313.23 384.687 1313.88 385.74C1314.55 386.793 1314.88 388.08 1314.88 389.6C1314.88 391.067 1314.58 392.313 1313.98 393.34C1313.39 394.353 1312.65 395.133 1311.74 395.68C1310.83 396.227 1309.9 396.533 1308.94 396.6C1309.95 396.627 1310.97 396.873 1311.98 397.34C1313.01 397.807 1313.86 398.553 1314.54 399.58C1315.22 400.607 1315.56 401.987 1315.56 403.72C1315.56 405.36 1315.23 406.807 1314.58 408.06C1313.93 409.3 1312.89 410.267 1311.46 410.96C1310.05 411.653 1308.2 412 1305.92 412H1294.98V382.5H1306.02ZM1300.02 396.2L1298.28 394.66H1304.22C1305.98 394.66 1307.31 394.293 1308.22 393.56C1309.14 392.813 1309.6 391.78 1309.6 390.46C1309.6 389.567 1309.41 388.847 1309.02 388.3C1308.65 387.753 1308.09 387.353 1307.34 387.1C1306.61 386.833 1305.72 386.7 1304.68 386.7H1297.64L1300.02 384.08V396.2ZM1304.88 407.8C1306.59 407.8 1307.9 407.413 1308.82 406.64C1309.74 405.867 1310.2 404.787 1310.2 403.4C1310.2 402.6 1310.05 401.913 1309.76 401.34C1309.48 400.753 1309.08 400.28 1308.56 399.92C1308.05 399.547 1307.45 399.273 1306.76 399.1C1306.08 398.927 1305.33 398.84 1304.52 398.84H1298.28L1300.02 397.28V410.42L1297.64 407.8H1304.88ZM1330.28 412.42C1328.04 412.42 1326.06 411.953 1324.36 411.02C1322.65 410.073 1321.31 408.767 1320.34 407.1C1319.38 405.433 1318.9 403.527 1318.9 401.38C1318.9 399.22 1319.38 397.32 1320.34 395.68C1321.31 394.027 1322.65 392.733 1324.36 391.8C1326.06 390.867 1328.04 390.4 1330.28 390.4C1332.52 390.4 1334.49 390.867 1336.2 391.8C1337.9 392.733 1339.24 394.027 1340.2 395.68C1341.17 397.32 1341.66 399.22 1341.66 401.38C1341.66 403.527 1341.17 405.433 1340.2 407.1C1339.24 408.767 1337.9 410.073 1336.2 411.02C1334.49 411.953 1332.52 412.42 1330.28 412.42ZM1330.28 408.12C1331.49 408.12 1332.55 407.84 1333.46 407.28C1334.36 406.72 1335.07 405.94 1335.58 404.94C1336.08 403.927 1336.34 402.74 1336.34 401.38C1336.34 400.02 1336.08 398.847 1335.58 397.86C1335.07 396.86 1334.36 396.087 1333.46 395.54C1332.55 394.993 1331.49 394.72 1330.28 394.72C1329.08 394.72 1328.02 394.993 1327.1 395.54C1326.19 396.087 1325.48 396.86 1324.98 397.86C1324.47 398.847 1324.22 400.02 1324.22 401.38C1324.22 402.74 1324.47 403.927 1324.98 404.94C1325.48 405.94 1326.19 406.72 1327.1 407.28C1328.02 407.84 1329.08 408.12 1330.28 408.12ZM1354.43 412.44C1352.68 412.44 1351.06 412.02 1349.57 411.18C1348.09 410.327 1346.9 409.073 1346.01 407.42C1345.12 405.767 1344.67 403.733 1344.67 401.32C1344.67 398.973 1345.12 396.987 1346.03 395.36C1346.95 393.733 1348.15 392.5 1349.63 391.66C1351.12 390.82 1352.72 390.4 1354.43 390.4C1356.1 390.4 1357.64 390.813 1359.05 391.64C1360.46 392.453 1361.6 393.587 1362.45 395.04C1363.3 396.493 1363.73 398.16 1363.73 400.04C1363.73 400.093 1363.73 400.147 1363.73 400.2C1363.73 400.253 1363.73 400.307 1363.73 400.36L1361.13 400.42C1361.13 400.38 1361.13 400.34 1361.13 400.3C1361.13 400.247 1361.13 400.2 1361.13 400.16C1361.13 399.107 1360.86 398.187 1360.33 397.4C1359.81 396.613 1359.13 396 1358.29 395.56C1357.46 395.107 1356.58 394.88 1355.65 394.88C1354.12 394.88 1352.81 395.4 1351.73 396.44C1350.65 397.467 1350.11 399.093 1350.11 401.32C1350.11 403.533 1350.65 405.167 1351.73 406.22C1352.81 407.273 1354.12 407.8 1355.65 407.8C1356.62 407.8 1357.52 407.567 1358.35 407.1C1359.18 406.633 1359.84 405.993 1360.35 405.18C1360.87 404.353 1361.13 403.407 1361.13 402.34L1363.73 402.46C1363.73 404.327 1363.31 406.02 1362.47 407.54C1361.64 409.047 1360.53 410.24 1359.13 411.12C1357.73 412 1356.16 412.44 1354.43 412.44ZM1361.13 412V380.74H1366.41V412H1361.13ZM1372.57 421.12C1371.94 421.12 1371.38 421.087 1370.89 421.02C1370.39 420.967 1370.09 420.913 1369.97 420.86V416.76C1370.14 416.84 1370.43 416.9 1370.85 416.94C1371.27 416.993 1371.71 417.02 1372.17 417.02C1372.9 417.02 1373.53 416.873 1374.07 416.58C1374.61 416.287 1375.08 415.88 1375.47 415.36C1375.85 414.853 1376.16 414.26 1376.39 413.58L1376.85 412.24L1369.53 390.76H1375.03L1380.05 408.48H1379.41L1384.31 390.76H1389.71L1382.27 413.3C1381.75 414.86 1381.11 416.227 1380.37 417.4C1379.63 418.573 1378.65 419.487 1377.43 420.14C1376.2 420.793 1374.58 421.12 1372.57 421.12ZM1406.66 380.74L1395.04 415.1H1390.74L1402.38 380.74H1406.66ZM1413.2 391.62L1426.3 399.58V403.18L1413.2 411.12V406.68L1424.22 400.8V401.96L1413.2 396.04V391.62Z" fill="#3B0076"/>
<rect x="1205" y="353" width="290" height="96" rx="48" stroke="#A75EFA" stroke-width="6"/>
<path d="M1038.43 599.54C1016.73 610.386 1001.88 625.616 987.266 644.652C976.306 658.916 954.622 647.355 962.652 630.441C969.003 617.075 978.408 605.516 989.469 595.721C931.666 596.396 872.87 590.752 815.464 588.536C747.257 585.91 678.983 585.181 610.798 582.343C599.425 581.871 599.483 565.636 610.7 564.795C680.459 559.567 750.627 559.002 820.552 559.325C866.224 559.534 913.461 559.149 959.871 562.539C953.522 556.631 947.861 550.106 943.172 542.907C937.772 534.608 948.502 524.735 956.624 529.537C982.952 545.107 1004.99 562.236 1034.74 571.681C1046.54 575.429 1050.96 593.275 1038.43 599.54Z" fill="#2A3751" stroke="white" stroke-width="6"/>
</svg>
