<svg width="823" height="988" viewBox="0 0 823 988" fill="none" xmlns="http://www.w3.org/2000/svg">
<rect x="95" y="120" width="664" height="356" rx="60" fill="#8AB0FC" fill-opacity="0.32" stroke="#8AB0FC" stroke-width="6"/>
<path d="M88.7704 226L79.7704 226C74.3704 226 70.2388 230.188 67.7433 233.815C65.2478 237.442 64.0001 242.269 64.0001 248.296L64 579L64 634.009C64 640.036 65.2478 644.863 67.7433 648.49C70.2388 652.117 74.3703 656.305 79.7703 656.305L88.7703 656.305M64 573L64 857.5C64 863.527 65.2478 868.354 67.7433 871.981C70.2388 875.608 74.3703 879.796 79.7703 879.796L88.7703 879.796" stroke="#2A3751" stroke-width="6" stroke-linecap="round" stroke-linejoin="round"/>
<path d="M282.23 273.5L282.23 353C282.23 359.027 283.477 363.854 285.973 367.481C288.468 371.107 292.6 375.296 298 375.296L435.5 375.296" stroke="#2A3751" stroke-width="6" stroke-linecap="round" stroke-linejoin="round"/>
<rect x="125" y="172" width="292" height="96" rx="48" fill="#FFF5CB"/>
<path d="M192.574 230.12L179.454 222.18V218.58L192.574 210.62V215.04L181.554 220.96V219.8L192.574 225.68V230.12ZM222.851 201.5V231H217.571V216.6L219.951 218.4H203.671L206.051 216.64V231H200.771V201.5H206.051V216.04L203.671 214.2H219.951L217.571 216.02V201.5H222.851ZM229.618 222.08V218.34H244.478L243.878 219.34C243.878 219.26 243.878 219.173 243.878 219.08C243.878 218.973 243.878 218.887 243.878 218.82C243.878 217.9 243.671 217.04 243.258 216.24C242.845 215.427 242.218 214.773 241.378 214.28C240.538 213.773 239.471 213.52 238.178 213.52C236.898 213.52 235.785 213.793 234.838 214.34C233.905 214.873 233.178 215.647 232.658 216.66C232.151 217.673 231.898 218.887 231.898 220.3C231.898 221.753 232.145 223.007 232.638 224.06C233.131 225.1 233.851 225.9 234.798 226.46C235.758 227.007 236.925 227.28 238.298 227.28C239.231 227.28 240.038 227.193 240.718 227.02C241.398 226.847 241.951 226.613 242.378 226.32C242.818 226.013 243.145 225.687 243.358 225.34C243.585 224.993 243.718 224.647 243.758 224.3H248.998C248.918 225.193 248.618 226.067 248.098 226.92C247.591 227.76 246.878 228.527 245.958 229.22C245.038 229.9 243.918 230.447 242.598 230.86C241.291 231.26 239.798 231.46 238.118 231.46C235.838 231.46 233.845 230.993 232.138 230.06C230.431 229.127 229.098 227.827 228.138 226.16C227.191 224.493 226.718 222.587 226.718 220.44C226.718 218.24 227.198 216.313 228.158 214.66C229.131 213.007 230.478 211.72 232.198 210.8C233.918 209.867 235.891 209.4 238.118 209.4C240.411 209.4 242.391 209.867 244.058 210.8C245.738 211.733 247.031 213.033 247.938 214.7C248.845 216.353 249.298 218.28 249.298 220.48C249.298 220.76 249.291 221.06 249.278 221.38C249.265 221.7 249.245 221.933 249.218 222.08H229.618ZM260.515 231.44C258.928 231.44 257.535 231.193 256.335 230.7C255.135 230.193 254.195 229.467 253.515 228.52C252.835 227.573 252.495 226.433 252.495 225.1C252.495 223.647 252.888 222.453 253.675 221.52C254.475 220.573 255.548 219.847 256.895 219.34C258.241 218.82 259.735 218.487 261.375 218.34C263.801 218.1 265.495 217.873 266.455 217.66C267.428 217.433 267.915 217.073 267.915 216.58C267.915 216.567 267.915 216.56 267.915 216.56C267.915 216.547 267.915 216.54 267.915 216.54C267.915 215.607 267.495 214.887 266.655 214.38C265.815 213.873 264.628 213.62 263.095 213.62C261.481 213.62 260.241 213.907 259.375 214.48C258.521 215.04 258.095 215.933 258.095 217.16H252.895C252.895 215.493 253.335 214.087 254.215 212.94C255.108 211.78 256.328 210.9 257.875 210.3C259.421 209.7 261.175 209.4 263.135 209.4C264.961 209.4 266.635 209.673 268.155 210.22C269.675 210.767 270.895 211.593 271.815 212.7C272.735 213.807 273.195 215.187 273.195 216.84C273.195 217.12 273.195 217.4 273.195 217.68C273.195 217.96 273.195 218.24 273.195 218.52V226.52C273.195 227.027 273.208 227.527 273.235 228.02C273.275 228.5 273.348 228.933 273.455 229.32C273.588 229.747 273.748 230.107 273.935 230.4C274.121 230.693 274.268 230.893 274.375 231H269.175C269.081 230.907 268.948 230.727 268.775 230.46C268.615 230.18 268.468 229.86 268.335 229.5C268.201 229.1 268.101 228.673 268.035 228.22C267.968 227.753 267.935 227.24 267.935 226.68L268.975 227.4C268.575 228.213 267.961 228.927 267.135 229.54C266.321 230.14 265.348 230.607 264.215 230.94C263.081 231.273 261.848 231.44 260.515 231.44ZM261.795 227.3C262.888 227.3 263.901 227.113 264.835 226.74C265.768 226.367 266.521 225.793 267.095 225.02C267.668 224.233 267.955 223.227 267.955 222V219.16L269.235 220.6C268.381 220.92 267.355 221.187 266.155 221.4C264.955 221.6 263.741 221.76 262.515 221.88C260.941 222.027 259.755 222.3 258.955 222.7C258.168 223.1 257.775 223.753 257.775 224.66C257.775 225.54 258.108 226.2 258.775 226.64C259.441 227.08 260.448 227.3 261.795 227.3ZM286.498 231.44C284.752 231.44 283.132 231.02 281.638 230.18C280.158 229.327 278.972 228.073 278.078 226.42C277.185 224.767 276.738 222.733 276.738 220.32C276.738 217.973 277.192 215.987 278.098 214.36C279.018 212.733 280.218 211.5 281.698 210.66C283.192 209.82 284.792 209.4 286.498 209.4C288.165 209.4 289.705 209.813 291.118 210.64C292.532 211.453 293.665 212.587 294.518 214.04C295.372 215.493 295.798 217.16 295.798 219.04C295.798 219.093 295.798 219.147 295.798 219.2C295.798 219.253 295.798 219.307 295.798 219.36L293.198 219.42C293.198 219.38 293.198 219.34 293.198 219.3C293.198 219.247 293.198 219.2 293.198 219.16C293.198 218.107 292.932 217.187 292.398 216.4C291.878 215.613 291.198 215 290.358 214.56C289.532 214.107 288.652 213.88 287.718 213.88C286.185 213.88 284.878 214.4 283.798 215.44C282.718 216.467 282.178 218.093 282.178 220.32C282.178 222.533 282.718 224.167 283.798 225.22C284.878 226.273 286.185 226.8 287.718 226.8C288.692 226.8 289.592 226.567 290.418 226.1C291.245 225.633 291.912 224.993 292.418 224.18C292.938 223.353 293.198 222.407 293.198 221.34L295.798 221.46C295.798 223.327 295.378 225.02 294.538 226.54C293.712 228.047 292.598 229.24 291.198 230.12C289.798 231 288.232 231.44 286.498 231.44ZM293.198 231V199.74H298.478V231H293.198ZM305.215 222.08V218.34H320.075L319.475 219.34C319.475 219.26 319.475 219.173 319.475 219.08C319.475 218.973 319.475 218.887 319.475 218.82C319.475 217.9 319.268 217.04 318.855 216.24C318.442 215.427 317.815 214.773 316.975 214.28C316.135 213.773 315.068 213.52 313.775 213.52C312.495 213.52 311.382 213.793 310.435 214.34C309.502 214.873 308.775 215.647 308.255 216.66C307.748 217.673 307.495 218.887 307.495 220.3C307.495 221.753 307.742 223.007 308.235 224.06C308.728 225.1 309.448 225.9 310.395 226.46C311.355 227.007 312.522 227.28 313.895 227.28C314.828 227.28 315.635 227.193 316.315 227.02C316.995 226.847 317.548 226.613 317.975 226.32C318.415 226.013 318.742 225.687 318.955 225.34C319.182 224.993 319.315 224.647 319.355 224.3H324.595C324.515 225.193 324.215 226.067 323.695 226.92C323.188 227.76 322.475 228.527 321.555 229.22C320.635 229.9 319.515 230.447 318.195 230.86C316.888 231.26 315.395 231.46 313.715 231.46C311.435 231.46 309.442 230.993 307.735 230.06C306.028 229.127 304.695 227.827 303.735 226.16C302.788 224.493 302.315 222.587 302.315 220.44C302.315 218.24 302.795 216.313 303.755 214.66C304.728 213.007 306.075 211.72 307.795 210.8C309.515 209.867 311.488 209.4 313.715 209.4C316.008 209.4 317.988 209.867 319.655 210.8C321.335 211.733 322.628 213.033 323.535 214.7C324.442 216.353 324.895 218.28 324.895 220.48C324.895 220.76 324.888 221.06 324.875 221.38C324.862 221.7 324.842 221.933 324.815 222.08H305.215ZM328.831 231V209.76H334.091V216.82L332.871 216.14C333.005 215.22 333.251 214.353 333.611 213.54C333.971 212.713 334.451 211.993 335.051 211.38C335.651 210.753 336.378 210.267 337.231 209.92C338.085 209.573 339.058 209.4 340.151 209.4C341.018 209.4 341.698 209.467 342.191 209.6C342.698 209.72 343.011 209.82 343.131 209.9L342.171 214.72C342.038 214.627 341.765 214.513 341.351 214.38C340.951 214.233 340.411 214.16 339.731 214.16C338.651 214.16 337.745 214.347 337.011 214.72C336.291 215.08 335.718 215.573 335.291 216.2C334.865 216.813 334.558 217.493 334.371 218.24C334.185 218.973 334.091 219.707 334.091 220.44V231H328.831ZM349.409 210.62L362.509 218.58V222.18L349.409 230.12V225.68L360.429 219.8V220.96L349.409 215.04V210.62Z" fill="#D17805"/>
<rect x="125" y="172" width="292" height="96" rx="48" stroke="#D17805" stroke-width="6"/>
<rect x="384.5" y="325" width="290" height="96" rx="48" fill="#C9FBE2"/>
<path d="M454.531 383.12L441.411 375.18V371.58L454.531 363.62V368.04L443.511 373.96V372.8L454.531 378.68V383.12ZM483.648 354.5H492.608V384H487.588V357.86L487.708 357.9L481.368 384H474.328L467.908 357.88L468.028 357.82V384H463.008V354.5H471.968L477.948 381.12H477.608L483.648 354.5ZM508.141 384.42C505.901 384.42 503.928 383.953 502.221 383.02C500.514 382.073 499.174 380.767 498.201 379.1C497.241 377.433 496.761 375.527 496.761 373.38C496.761 371.22 497.241 369.32 498.201 367.68C499.174 366.027 500.514 364.733 502.221 363.8C503.928 362.867 505.901 362.4 508.141 362.4C510.381 362.4 512.354 362.867 514.061 363.8C515.768 364.733 517.101 366.027 518.061 367.68C519.034 369.32 519.521 371.22 519.521 373.38C519.521 375.527 519.034 377.433 518.061 379.1C517.101 380.767 515.768 382.073 514.061 383.02C512.354 383.953 510.381 384.42 508.141 384.42ZM508.141 380.12C509.354 380.12 510.414 379.84 511.321 379.28C512.228 378.72 512.934 377.94 513.441 376.94C513.948 375.927 514.201 374.74 514.201 373.38C514.201 372.02 513.948 370.847 513.441 369.86C512.934 368.86 512.228 368.087 511.321 367.54C510.414 366.993 509.354 366.72 508.141 366.72C506.941 366.72 505.881 366.993 504.961 367.54C504.054 368.087 503.348 368.86 502.841 369.86C502.334 370.847 502.081 372.02 502.081 373.38C502.081 374.74 502.334 375.927 502.841 376.94C503.348 377.94 504.054 378.72 504.961 379.28C505.881 379.84 506.941 380.12 508.141 380.12ZM532.293 384.44C530.546 384.44 528.926 384.02 527.433 383.18C525.953 382.327 524.766 381.073 523.873 379.42C522.979 377.767 522.533 375.733 522.533 373.32C522.533 370.973 522.986 368.987 523.893 367.36C524.813 365.733 526.013 364.5 527.493 363.66C528.986 362.82 530.586 362.4 532.293 362.4C533.959 362.4 535.499 362.813 536.913 363.64C538.326 364.453 539.459 365.587 540.313 367.04C541.166 368.493 541.593 370.16 541.593 372.04C541.593 372.093 541.593 372.147 541.593 372.2C541.593 372.253 541.593 372.307 541.593 372.36L538.993 372.42C538.993 372.38 538.993 372.34 538.993 372.3C538.993 372.247 538.993 372.2 538.993 372.16C538.993 371.107 538.726 370.187 538.193 369.4C537.673 368.613 536.993 368 536.153 367.56C535.326 367.107 534.446 366.88 533.513 366.88C531.979 366.88 530.673 367.4 529.593 368.44C528.513 369.467 527.973 371.093 527.973 373.32C527.973 375.533 528.513 377.167 529.593 378.22C530.673 379.273 531.979 379.8 533.513 379.8C534.486 379.8 535.386 379.567 536.213 379.1C537.039 378.633 537.706 377.993 538.213 377.18C538.733 376.353 538.993 375.407 538.993 374.34L541.593 374.46C541.593 376.327 541.173 378.02 540.333 379.54C539.506 381.047 538.393 382.24 536.993 383.12C535.593 384 534.026 384.44 532.293 384.44ZM538.993 384V352.74H544.273V384H538.993ZM556.329 384.44C554.743 384.44 553.349 384.193 552.149 383.7C550.949 383.193 550.009 382.467 549.329 381.52C548.649 380.573 548.309 379.433 548.309 378.1C548.309 376.647 548.703 375.453 549.489 374.52C550.289 373.573 551.363 372.847 552.709 372.34C554.056 371.82 555.549 371.487 557.189 371.34C559.616 371.1 561.309 370.873 562.269 370.66C563.243 370.433 563.729 370.073 563.729 369.58C563.729 369.567 563.729 369.56 563.729 369.56C563.729 369.547 563.729 369.54 563.729 369.54C563.729 368.607 563.309 367.887 562.469 367.38C561.629 366.873 560.443 366.62 558.909 366.62C557.296 366.62 556.056 366.907 555.189 367.48C554.336 368.04 553.909 368.933 553.909 370.16H548.709C548.709 368.493 549.149 367.087 550.029 365.94C550.923 364.78 552.143 363.9 553.689 363.3C555.236 362.7 556.989 362.4 558.949 362.4C560.776 362.4 562.449 362.673 563.969 363.22C565.489 363.767 566.709 364.593 567.629 365.7C568.549 366.807 569.009 368.187 569.009 369.84C569.009 370.12 569.009 370.4 569.009 370.68C569.009 370.96 569.009 371.24 569.009 371.52V379.52C569.009 380.027 569.023 380.527 569.049 381.02C569.089 381.5 569.163 381.933 569.269 382.32C569.403 382.747 569.563 383.107 569.749 383.4C569.936 383.693 570.083 383.893 570.189 384H564.989C564.896 383.907 564.763 383.727 564.589 383.46C564.429 383.18 564.283 382.86 564.149 382.5C564.016 382.1 563.916 381.673 563.849 381.22C563.783 380.753 563.749 380.24 563.749 379.68L564.789 380.4C564.389 381.213 563.776 381.927 562.949 382.54C562.136 383.14 561.163 383.607 560.029 383.94C558.896 384.273 557.663 384.44 556.329 384.44ZM557.609 380.3C558.703 380.3 559.716 380.113 560.649 379.74C561.583 379.367 562.336 378.793 562.909 378.02C563.483 377.233 563.769 376.227 563.769 375V372.16L565.049 373.6C564.196 373.92 563.169 374.187 561.969 374.4C560.769 374.6 559.556 374.76 558.329 374.88C556.756 375.027 555.569 375.3 554.769 375.7C553.983 376.1 553.589 376.753 553.589 377.66C553.589 378.54 553.923 379.2 554.589 379.64C555.256 380.08 556.263 380.3 557.609 380.3ZM578.973 352.74V384H573.793V352.74H578.973ZM597.913 352.74L586.293 387.1H581.993L593.633 352.74H597.913ZM604.452 363.62L617.552 371.58V375.18L604.452 383.12V378.68L615.472 372.8V373.96L604.452 368.04V363.62Z" fill="#009483"/>
<rect x="384.5" y="325" width="290" height="96" rx="48" stroke="#009483" stroke-width="6"/>
<rect x="95" y="828" width="290" height="96" rx="48" fill="#FED9D2"/>
<path d="M159.841 886.12L146.721 878.18V874.58L159.841 866.62V871.04L148.821 876.96V875.8L159.841 881.68V886.12ZM170.898 861.7L173.278 859.08V871.86L171.638 870.44H183.678V874.66H171.638L173.278 873.14V887H168.038V857.5H185.458V861.7H170.898ZM198.294 887.42C196.054 887.42 194.081 886.953 192.374 886.02C190.667 885.073 189.327 883.767 188.354 882.1C187.394 880.433 186.914 878.527 186.914 876.38C186.914 874.22 187.394 872.32 188.354 870.68C189.327 869.027 190.667 867.733 192.374 866.8C194.081 865.867 196.054 865.4 198.294 865.4C200.534 865.4 202.507 865.867 204.214 866.8C205.921 867.733 207.254 869.027 208.214 870.68C209.187 872.32 209.674 874.22 209.674 876.38C209.674 878.527 209.187 880.433 208.214 882.1C207.254 883.767 205.921 885.073 204.214 886.02C202.507 886.953 200.534 887.42 198.294 887.42ZM198.294 883.12C199.507 883.12 200.567 882.84 201.474 882.28C202.381 881.72 203.087 880.94 203.594 879.94C204.101 878.927 204.354 877.74 204.354 876.38C204.354 875.02 204.101 873.847 203.594 872.86C203.087 871.86 202.381 871.087 201.474 870.54C200.567 869.993 199.507 869.72 198.294 869.72C197.094 869.72 196.034 869.993 195.114 870.54C194.207 871.087 193.501 871.86 192.994 872.86C192.487 873.847 192.234 875.02 192.234 876.38C192.234 877.74 192.487 878.927 192.994 879.94C193.501 880.94 194.207 881.72 195.114 882.28C196.034 882.84 197.094 883.12 198.294 883.12ZM224.066 887.42C221.826 887.42 219.853 886.953 218.146 886.02C216.439 885.073 215.099 883.767 214.126 882.1C213.166 880.433 212.686 878.527 212.686 876.38C212.686 874.22 213.166 872.32 214.126 870.68C215.099 869.027 216.439 867.733 218.146 866.8C219.853 865.867 221.826 865.4 224.066 865.4C226.306 865.4 228.279 865.867 229.986 866.8C231.693 867.733 233.026 869.027 233.986 870.68C234.959 872.32 235.446 874.22 235.446 876.38C235.446 878.527 234.959 880.433 233.986 882.1C233.026 883.767 231.693 885.073 229.986 886.02C228.279 886.953 226.306 887.42 224.066 887.42ZM224.066 883.12C225.279 883.12 226.339 882.84 227.246 882.28C228.153 881.72 228.859 880.94 229.366 879.94C229.873 878.927 230.126 877.74 230.126 876.38C230.126 875.02 229.873 873.847 229.366 872.86C228.859 871.86 228.153 871.087 227.246 870.54C226.339 869.993 225.279 869.72 224.066 869.72C222.866 869.72 221.806 869.993 220.886 870.54C219.979 871.087 219.273 871.86 218.766 872.86C218.259 873.847 218.006 875.02 218.006 876.38C218.006 877.74 218.259 878.927 218.766 879.94C219.273 880.94 219.979 881.72 220.886 882.28C221.806 882.84 222.866 883.12 224.066 883.12ZM248.923 887.4C248.163 887.4 247.39 887.327 246.603 887.18C245.817 887.033 245.097 886.76 244.443 886.36C243.79 885.96 243.263 885.373 242.863 884.6C242.463 883.827 242.263 882.807 242.263 881.54C242.263 881.247 242.263 880.953 242.263 880.66C242.263 880.353 242.263 880.04 242.263 879.72V869.96H237.243V865.76H239.283C239.977 865.76 240.523 865.733 240.923 865.68C241.323 865.613 241.617 865.467 241.803 865.24C241.99 865.013 242.11 864.66 242.163 864.18C242.23 863.687 242.263 863.007 242.263 862.14V858.76H247.543V865.76H253.863V869.96H247.543V878.48C247.543 878.733 247.543 878.987 247.543 879.24C247.543 879.48 247.543 879.713 247.543 879.94C247.543 880.927 247.663 881.72 247.903 882.32C248.143 882.92 248.71 883.22 249.603 883.22C250.03 883.22 250.43 883.18 250.803 883.1C251.19 883.02 251.477 882.94 251.663 882.86V886.98C251.41 887.073 251.043 887.167 250.563 887.26C250.083 887.353 249.537 887.4 248.923 887.4ZM258.809 878.08V874.34H273.669L273.069 875.34C273.069 875.26 273.069 875.173 273.069 875.08C273.069 874.973 273.069 874.887 273.069 874.82C273.069 873.9 272.863 873.04 272.449 872.24C272.036 871.427 271.409 870.773 270.569 870.28C269.729 869.773 268.663 869.52 267.369 869.52C266.089 869.52 264.976 869.793 264.029 870.34C263.096 870.873 262.369 871.647 261.849 872.66C261.343 873.673 261.089 874.887 261.089 876.3C261.089 877.753 261.336 879.007 261.829 880.06C262.323 881.1 263.043 881.9 263.989 882.46C264.949 883.007 266.116 883.28 267.489 883.28C268.423 883.28 269.229 883.193 269.909 883.02C270.589 882.847 271.143 882.613 271.569 882.32C272.009 882.013 272.336 881.687 272.549 881.34C272.776 880.993 272.909 880.647 272.949 880.3H278.189C278.109 881.193 277.809 882.067 277.289 882.92C276.783 883.76 276.069 884.527 275.149 885.22C274.229 885.9 273.109 886.447 271.789 886.86C270.483 887.26 268.989 887.46 267.309 887.46C265.029 887.46 263.036 886.993 261.329 886.06C259.623 885.127 258.289 883.827 257.329 882.16C256.383 880.493 255.909 878.587 255.909 876.44C255.909 874.24 256.389 872.313 257.349 870.66C258.323 869.007 259.669 867.72 261.389 866.8C263.109 865.867 265.083 865.4 267.309 865.4C269.603 865.4 271.583 865.867 273.249 866.8C274.929 867.733 276.223 869.033 277.129 870.7C278.036 872.353 278.489 874.28 278.489 876.48C278.489 876.76 278.483 877.06 278.469 877.38C278.456 877.7 278.436 877.933 278.409 878.08H258.809ZM282.426 887V865.76H287.686V872.82L286.466 872.14C286.599 871.22 286.846 870.353 287.206 869.54C287.566 868.713 288.046 867.993 288.646 867.38C289.246 866.753 289.973 866.267 290.826 865.92C291.679 865.573 292.653 865.4 293.746 865.4C294.613 865.4 295.293 865.467 295.786 865.6C296.293 865.72 296.606 865.82 296.726 865.9L295.766 870.72C295.633 870.627 295.359 870.513 294.946 870.38C294.546 870.233 294.006 870.16 293.326 870.16C292.246 870.16 291.339 870.347 290.606 870.72C289.886 871.08 289.313 871.573 288.886 872.2C288.459 872.813 288.153 873.493 287.966 874.24C287.779 874.973 287.686 875.707 287.686 876.44V887H282.426ZM313.603 855.74L301.983 890.1H297.683L309.323 855.74H313.603ZM320.142 866.62L333.242 874.58V878.18L320.142 886.12V881.68L331.162 875.8V876.96L320.142 871.04V866.62Z" fill="#DA2F84"/>
<rect x="95" y="828" width="290" height="96" rx="48" stroke="#DA2F84" stroke-opacity="0.64" stroke-width="6"/>
<path d="M548.869 99.168H562.693V105H540.901V99.48L554.389 85.056L554.557 85.32H541.381V79.512H562.405V85.032L549.037 99.408L548.869 99.168ZM565.004 93.696V89.136H582.5V93.696H565.004ZM587.032 105V79.512H594.4V105H587.032ZM590.704 75.36C589.552 75.36 588.544 75.056 587.68 74.448C586.832 73.84 586.408 72.984 586.408 71.88C586.408 70.76 586.832 69.896 587.68 69.288C588.544 68.68 589.552 68.376 590.704 68.376C591.872 68.376 592.88 68.68 593.728 69.288C594.592 69.896 595.024 70.76 595.024 71.88C595.024 73 594.592 73.864 593.728 74.472C592.88 75.064 591.872 75.36 590.704 75.36ZM616.874 105V94.176C616.874 93.568 616.874 93.016 616.874 92.52C616.874 92.024 616.874 91.576 616.874 91.176C616.874 90.12 616.738 89.16 616.466 88.296C616.194 87.416 615.706 86.712 615.002 86.184C614.298 85.656 613.282 85.392 611.954 85.392C610.802 85.392 609.802 85.656 608.954 86.184C608.122 86.712 607.482 87.448 607.034 88.392C606.586 89.336 606.362 90.424 606.362 91.656L604.298 90.168C604.298 87.96 604.778 86.024 605.738 84.36C606.698 82.696 607.994 81.392 609.626 80.448C611.274 79.504 613.098 79.032 615.098 79.032C617.194 79.032 618.914 79.456 620.258 80.304C621.618 81.136 622.626 82.304 623.282 83.808C623.954 85.296 624.29 87.04 624.29 89.04C624.29 89.856 624.29 90.768 624.29 91.776C624.29 92.784 624.29 93.816 624.29 94.872V105H616.874ZM598.922 105V79.512H606.362V105H598.922ZM639.556 105.576C637.428 105.576 635.468 105.072 633.676 104.064C631.884 103.04 630.444 101.528 629.356 99.528C628.268 97.528 627.724 95.064 627.724 92.136C627.724 89.336 628.276 86.96 629.38 85.008C630.5 83.056 631.956 81.576 633.748 80.568C635.556 79.544 637.492 79.032 639.556 79.032C641.572 79.032 643.412 79.544 645.076 80.568C646.756 81.592 648.1 82.992 649.108 84.768C650.116 86.528 650.62 88.56 650.62 90.864C650.62 90.944 650.62 91.024 650.62 91.104C650.62 91.168 650.62 91.24 650.62 91.32L647.404 91.368C647.404 91.32 647.404 91.272 647.404 91.224C647.404 91.16 647.404 91.104 647.404 91.056C647.404 89.856 647.116 88.824 646.54 87.96C645.964 87.096 645.22 86.432 644.308 85.968C643.396 85.488 642.444 85.248 641.452 85.248C639.804 85.248 638.38 85.8 637.18 86.904C635.98 87.992 635.38 89.736 635.38 92.136C635.38 94.536 635.98 96.304 637.18 97.44C638.396 98.56 639.82 99.12 641.452 99.12C642.476 99.12 643.444 98.88 644.356 98.4C645.268 97.904 646.004 97.208 646.564 96.312C647.124 95.416 647.404 94.36 647.404 93.144L650.62 93.312C650.62 95.6 650.124 97.672 649.132 99.528C648.156 101.368 646.828 102.84 645.148 103.944C643.484 105.032 641.62 105.576 639.556 105.576ZM647.404 105V67.488H654.868V105H647.404ZM662.436 94.488V89.568H679.332L678.612 90.816C678.612 90.688 678.612 90.568 678.612 90.456C678.612 90.328 678.612 90.208 678.612 90.096C678.612 89.184 678.396 88.312 677.964 87.48C677.532 86.632 676.86 85.944 675.948 85.416C675.052 84.872 673.9 84.6 672.492 84.6C671.084 84.6 669.868 84.904 668.844 85.512C667.836 86.104 667.06 86.96 666.516 88.08C665.988 89.2 665.724 90.552 665.724 92.136C665.724 93.768 665.98 95.168 666.492 96.336C667.02 97.488 667.796 98.376 668.82 99C669.86 99.624 671.148 99.936 672.684 99.936C673.676 99.936 674.532 99.848 675.252 99.672C675.972 99.48 676.556 99.24 677.004 98.952C677.468 98.664 677.82 98.344 678.06 97.992C678.3 97.64 678.444 97.296 678.492 96.96H685.836C685.74 98.032 685.372 99.088 684.732 100.128C684.092 101.152 683.204 102.08 682.068 102.912C680.932 103.728 679.548 104.376 677.916 104.856C676.3 105.336 674.452 105.576 672.372 105.576C669.556 105.576 667.1 105.016 665.004 103.896C662.908 102.76 661.284 101.2 660.132 99.216C658.98 97.216 658.404 94.912 658.404 92.304C658.404 89.664 658.988 87.352 660.156 85.368C661.34 83.368 662.98 81.816 665.076 80.712C667.188 79.592 669.628 79.032 672.396 79.032C675.228 79.032 677.676 79.6 679.74 80.736C681.804 81.856 683.396 83.432 684.516 85.464C685.636 87.48 686.196 89.832 686.196 92.52C686.196 92.92 686.188 93.304 686.172 93.672C686.156 94.04 686.132 94.312 686.1 94.488H662.436ZM696.814 90.96L696.742 94.296L686.158 79.512H694.246L701.854 90.84L697.39 90.792L704.95 79.512H712.894L702.742 93.36L702.382 89.976L712.99 105H704.854L697.078 93.624L702.118 93.384L693.67 105H685.726L696.814 90.96ZM719.702 105.72C718.598 105.72 717.662 105.336 716.894 104.568C716.126 103.8 715.742 102.864 715.742 101.76C715.742 100.672 716.126 99.744 716.894 98.976C717.662 98.208 718.598 97.824 719.702 97.824C720.79 97.824 721.718 98.208 722.486 98.976C723.254 99.744 723.638 100.672 723.638 101.76C723.638 102.864 723.254 103.8 722.486 104.568C721.718 105.336 720.79 105.72 719.702 105.72ZM719.726 87.6C718.622 87.6 717.686 87.216 716.918 86.448C716.15 85.68 715.766 84.744 715.766 83.64C715.766 82.552 716.15 81.624 716.918 80.856C717.686 80.088 718.622 79.704 719.726 79.704C720.814 79.704 721.742 80.088 722.51 80.856C723.278 81.624 723.662 82.552 723.662 83.64C723.662 84.744 723.278 85.68 722.51 86.448C721.742 87.216 720.814 87.6 719.726 87.6ZM753.613 69.552V105H746.221V76.512C746.013 76.672 745.565 76.88 744.877 77.136C744.205 77.376 743.397 77.608 742.453 77.832C741.509 78.056 740.533 78.208 739.525 78.288V72.432C740.533 72.304 741.517 72.088 742.477 71.784C743.437 71.464 744.261 71.104 744.949 70.704C745.653 70.304 746.117 69.92 746.341 69.552H753.613Z" fill="black"/>
<path d="M167.431 807.168H181.255V813H159.463V807.48L172.951 793.056L173.119 793.32H159.943V787.512H180.967V793.032L167.599 807.408L167.431 807.168ZM183.566 801.696V797.136H201.062V801.696H183.566ZM205.594 813V787.512H212.962V813H205.594ZM209.266 783.36C208.114 783.36 207.106 783.056 206.242 782.448C205.394 781.84 204.97 780.984 204.97 779.88C204.97 778.76 205.394 777.896 206.242 777.288C207.106 776.68 208.114 776.376 209.266 776.376C210.434 776.376 211.442 776.68 212.29 777.288C213.154 777.896 213.586 778.76 213.586 779.88C213.586 781 213.154 781.864 212.29 782.472C211.442 783.064 210.434 783.36 209.266 783.36ZM235.437 813V802.176C235.437 801.568 235.437 801.016 235.437 800.52C235.437 800.024 235.437 799.576 235.437 799.176C235.437 798.12 235.301 797.16 235.029 796.296C234.757 795.416 234.269 794.712 233.565 794.184C232.861 793.656 231.845 793.392 230.517 793.392C229.365 793.392 228.365 793.656 227.517 794.184C226.685 794.712 226.045 795.448 225.597 796.392C225.149 797.336 224.925 798.424 224.925 799.656L222.861 798.168C222.861 795.96 223.341 794.024 224.301 792.36C225.261 790.696 226.557 789.392 228.189 788.448C229.837 787.504 231.661 787.032 233.661 787.032C235.757 787.032 237.477 787.456 238.821 788.304C240.181 789.136 241.189 790.304 241.845 791.808C242.517 793.296 242.853 795.04 242.853 797.04C242.853 797.856 242.853 798.768 242.853 799.776C242.853 800.784 242.853 801.816 242.853 802.872V813H235.437ZM217.485 813V787.512H224.925V813H217.485ZM258.118 813.576C255.99 813.576 254.03 813.072 252.238 812.064C250.446 811.04 249.006 809.528 247.918 807.528C246.83 805.528 246.286 803.064 246.286 800.136C246.286 797.336 246.838 794.96 247.942 793.008C249.062 791.056 250.518 789.576 252.31 788.568C254.118 787.544 256.054 787.032 258.118 787.032C260.134 787.032 261.974 787.544 263.638 788.568C265.318 789.592 266.662 790.992 267.67 792.768C268.678 794.528 269.182 796.56 269.182 798.864C269.182 798.944 269.182 799.024 269.182 799.104C269.182 799.168 269.182 799.24 269.182 799.32L265.966 799.368C265.966 799.32 265.966 799.272 265.966 799.224C265.966 799.16 265.966 799.104 265.966 799.056C265.966 797.856 265.678 796.824 265.102 795.96C264.526 795.096 263.782 794.432 262.87 793.968C261.958 793.488 261.006 793.248 260.014 793.248C258.366 793.248 256.942 793.8 255.742 794.904C254.542 795.992 253.942 797.736 253.942 800.136C253.942 802.536 254.542 804.304 255.742 805.44C256.958 806.56 258.382 807.12 260.014 807.12C261.038 807.12 262.006 806.88 262.918 806.4C263.83 805.904 264.566 805.208 265.126 804.312C265.686 803.416 265.966 802.36 265.966 801.144L269.182 801.312C269.182 803.6 268.686 805.672 267.694 807.528C266.718 809.368 265.39 810.84 263.71 811.944C262.046 813.032 260.182 813.576 258.118 813.576ZM265.966 813V775.488H273.43V813H265.966ZM280.999 802.488V797.568H297.895L297.175 798.816C297.175 798.688 297.175 798.568 297.175 798.456C297.175 798.328 297.175 798.208 297.175 798.096C297.175 797.184 296.959 796.312 296.527 795.48C296.095 794.632 295.423 793.944 294.511 793.416C293.615 792.872 292.463 792.6 291.055 792.6C289.647 792.6 288.431 792.904 287.407 793.512C286.399 794.104 285.623 794.96 285.079 796.08C284.551 797.2 284.287 798.552 284.287 800.136C284.287 801.768 284.543 803.168 285.055 804.336C285.583 805.488 286.359 806.376 287.383 807C288.423 807.624 289.711 807.936 291.247 807.936C292.239 807.936 293.095 807.848 293.815 807.672C294.535 807.48 295.119 807.24 295.567 806.952C296.031 806.664 296.383 806.344 296.623 805.992C296.863 805.64 297.007 805.296 297.055 804.96H304.399C304.303 806.032 303.935 807.088 303.295 808.128C302.655 809.152 301.767 810.08 300.631 810.912C299.495 811.728 298.111 812.376 296.479 812.856C294.863 813.336 293.015 813.576 290.935 813.576C288.119 813.576 285.663 813.016 283.567 811.896C281.471 810.76 279.847 809.2 278.695 807.216C277.543 805.216 276.967 802.912 276.967 800.304C276.967 797.664 277.551 795.352 278.719 793.368C279.903 791.368 281.543 789.816 283.639 788.712C285.751 787.592 288.191 787.032 290.959 787.032C293.791 787.032 296.239 787.6 298.303 788.736C300.367 789.856 301.959 791.432 303.079 793.464C304.199 795.48 304.759 797.832 304.759 800.52C304.759 800.92 304.751 801.304 304.735 801.672C304.719 802.04 304.695 802.312 304.663 802.488H280.999ZM315.377 798.96L315.305 802.296L304.721 787.512H312.809L320.417 798.84L315.953 798.792L323.513 787.512H331.457L321.305 801.36L320.945 797.976L331.553 813H323.417L315.641 801.624L320.681 801.384L312.233 813H304.289L315.377 798.96ZM338.264 813.72C337.16 813.72 336.224 813.336 335.456 812.568C334.688 811.8 334.304 810.864 334.304 809.76C334.304 808.672 334.688 807.744 335.456 806.976C336.224 806.208 337.16 805.824 338.264 805.824C339.352 805.824 340.28 806.208 341.048 806.976C341.816 807.744 342.2 808.672 342.2 809.76C342.2 810.864 341.816 811.8 341.048 812.568C340.28 813.336 339.352 813.72 338.264 813.72ZM338.288 795.6C337.184 795.6 336.248 795.216 335.48 794.448C334.712 793.68 334.328 792.744 334.328 791.64C334.328 790.552 334.712 789.624 335.48 788.856C336.248 788.088 337.184 787.704 338.288 787.704C339.376 787.704 340.304 788.088 341.072 788.856C341.84 789.624 342.224 790.552 342.224 791.64C342.224 792.744 341.84 793.68 341.072 794.448C340.304 795.216 339.376 795.6 338.288 795.6ZM357.512 813V806.904C357.656 806.552 358.08 806.032 358.784 805.344C359.488 804.64 360.344 803.848 361.352 802.968C362.36 802.088 363.416 801.192 364.52 800.28C365.64 799.352 366.672 798.496 367.616 797.712C368.736 796.784 369.824 795.824 370.88 794.832C371.936 793.824 372.808 792.76 373.496 791.64C374.2 790.504 374.552 789.312 374.552 788.064C374.552 786.496 374.176 785.24 373.424 784.296C372.688 783.352 371.512 782.88 369.896 782.88C368.6 782.88 367.568 783.168 366.8 783.744C366.048 784.304 365.512 785.096 365.192 786.12C364.872 787.128 364.712 788.312 364.712 789.672H357.272C357.272 787.08 357.76 784.84 358.736 782.952C359.728 781.064 361.168 779.616 363.056 778.608C364.96 777.584 367.28 777.072 370.016 777.072C372.672 777.072 374.888 777.56 376.664 778.536C378.456 779.512 379.8 780.832 380.696 782.496C381.592 784.16 382.04 786.04 382.04 788.136C382.04 789.544 381.768 790.864 381.224 792.096C380.696 793.312 380 794.44 379.136 795.48C378.288 796.52 377.376 797.472 376.4 798.336C375.424 799.184 374.504 799.952 373.64 800.64C372.184 801.792 370.92 802.808 369.848 803.688C368.776 804.568 367.92 805.312 367.28 805.92C366.656 806.528 366.272 806.992 366.128 807.312H381.824V813H357.512Z" fill="black"/>
<path d="M468.003 309.72H479.903V314H462.323V309.94L473.983 296.86L474.083 297.04H462.763V292.76H479.683V296.82L468.103 309.86L468.003 309.72ZM482.419 304.3V301.04H496.759V304.3H482.419ZM501.592 314V292.76H506.792V314H501.592ZM504.212 288.84C503.358 288.84 502.612 288.613 501.972 288.16C501.345 287.693 501.032 287.047 501.032 286.22C501.032 285.407 501.345 284.773 501.972 284.32C502.612 283.867 503.358 283.64 504.212 283.64C505.052 283.64 505.785 283.867 506.412 284.32C507.038 284.773 507.352 285.407 507.352 286.22C507.352 287.047 507.038 287.693 506.412 288.16C505.785 288.613 505.052 288.84 504.212 288.84ZM526.624 314V304.58C526.624 304.047 526.624 303.58 526.624 303.18C526.624 302.767 526.624 302.393 526.624 302.06C526.624 301.1 526.484 300.24 526.204 299.48C525.937 298.707 525.471 298.1 524.804 297.66C524.151 297.22 523.244 297 522.084 297C521.071 297 520.171 297.247 519.384 297.74C518.597 298.22 517.977 298.887 517.524 299.74C517.084 300.58 516.864 301.553 516.864 302.66L515.084 301.56C515.084 299.787 515.484 298.213 516.284 296.84C517.097 295.453 518.184 294.367 519.544 293.58C520.904 292.793 522.411 292.4 524.064 292.4C525.771 292.4 527.204 292.733 528.364 293.4C529.537 294.067 530.417 295.013 531.004 296.24C531.604 297.467 531.904 298.907 531.904 300.56C531.904 301.2 531.904 301.92 531.904 302.72C531.904 303.52 531.904 304.307 531.904 305.08V314H526.624ZM511.604 314V292.76H516.864V314H511.604ZM545.376 314.44C543.629 314.44 542.009 314.02 540.516 313.18C539.036 312.327 537.849 311.073 536.956 309.42C536.062 307.767 535.616 305.733 535.616 303.32C535.616 300.973 536.069 298.987 536.976 297.36C537.896 295.733 539.096 294.5 540.576 293.66C542.069 292.82 543.669 292.4 545.376 292.4C547.042 292.4 548.582 292.813 549.996 293.64C551.409 294.453 552.542 295.587 553.396 297.04C554.249 298.493 554.676 300.16 554.676 302.04C554.676 302.093 554.676 302.147 554.676 302.2C554.676 302.253 554.676 302.307 554.676 302.36L552.076 302.42C552.076 302.38 552.076 302.34 552.076 302.3C552.076 302.247 552.076 302.2 552.076 302.16C552.076 301.107 551.809 300.187 551.276 299.4C550.756 298.613 550.076 298 549.236 297.56C548.409 297.107 547.529 296.88 546.596 296.88C545.062 296.88 543.756 297.4 542.676 298.44C541.596 299.467 541.056 301.093 541.056 303.32C541.056 305.533 541.596 307.167 542.676 308.22C543.756 309.273 545.062 309.8 546.596 309.8C547.569 309.8 548.469 309.567 549.296 309.1C550.122 308.633 550.789 307.993 551.296 307.18C551.816 306.353 552.076 305.407 552.076 304.34L554.676 304.46C554.676 306.327 554.256 308.02 553.416 309.54C552.589 311.047 551.476 312.24 550.076 313.12C548.676 314 547.109 314.44 545.376 314.44ZM552.076 314V282.74H557.356V314H552.076ZM564.092 305.08V301.34H578.952L578.352 302.34C578.352 302.26 578.352 302.173 578.352 302.08C578.352 301.973 578.352 301.887 578.352 301.82C578.352 300.9 578.146 300.04 577.732 299.24C577.319 298.427 576.692 297.773 575.852 297.28C575.012 296.773 573.946 296.52 572.652 296.52C571.372 296.52 570.259 296.793 569.312 297.34C568.379 297.873 567.652 298.647 567.132 299.66C566.626 300.673 566.372 301.887 566.372 303.3C566.372 304.753 566.619 306.007 567.112 307.06C567.606 308.1 568.326 308.9 569.272 309.46C570.232 310.007 571.399 310.28 572.772 310.28C573.706 310.28 574.512 310.193 575.192 310.02C575.872 309.847 576.426 309.613 576.852 309.32C577.292 309.013 577.619 308.687 577.832 308.34C578.059 307.993 578.192 307.647 578.232 307.3H583.472C583.392 308.193 583.092 309.067 582.572 309.92C582.066 310.76 581.352 311.527 580.432 312.22C579.512 312.9 578.392 313.447 577.072 313.86C575.766 314.26 574.272 314.46 572.592 314.46C570.312 314.46 568.319 313.993 566.612 313.06C564.906 312.127 563.572 310.827 562.612 309.16C561.666 307.493 561.192 305.587 561.192 303.44C561.192 301.24 561.672 299.313 562.632 297.66C563.606 296.007 564.952 294.72 566.672 293.8C568.392 292.867 570.366 292.4 572.592 292.4C574.886 292.4 576.866 292.867 578.532 293.8C580.212 294.733 581.506 296.033 582.412 297.7C583.319 299.353 583.772 301.28 583.772 303.48C583.772 303.76 583.766 304.06 583.752 304.38C583.739 304.7 583.719 304.933 583.692 305.08H564.092ZM593.302 302.42L593.262 304.82L584.602 292.76H590.362L596.882 302.22L593.722 302.2L600.122 292.76H605.762L597.462 304.14L597.322 301.94L605.882 314H600.122L593.502 304.56L597.062 304.24L589.922 314H584.282L593.302 302.42ZM611.831 314.56C611.005 314.56 610.305 314.273 609.731 313.7C609.158 313.127 608.871 312.427 608.871 311.6C608.871 310.787 609.158 310.093 609.731 309.52C610.305 308.933 611.005 308.64 611.831 308.64C612.645 308.64 613.338 308.933 613.911 309.52C614.498 310.093 614.791 310.787 614.791 311.6C614.791 312.427 614.498 313.127 613.911 313.7C613.338 314.273 612.645 314.56 611.831 314.56ZM611.851 299.12C611.025 299.12 610.325 298.833 609.751 298.26C609.178 297.687 608.891 296.987 608.891 296.16C608.891 295.347 609.178 294.653 609.751 294.08C610.325 293.493 611.025 293.2 611.851 293.2C612.665 293.2 613.358 293.493 613.931 294.08C614.518 294.653 614.811 295.347 614.811 296.16C614.811 296.987 614.518 297.687 613.931 298.26C613.358 298.833 612.665 299.12 611.851 299.12ZM638.242 314.46C636.549 314.46 635.162 314.173 634.082 313.6C633.002 313.013 632.156 312.287 631.542 311.42C630.942 310.553 630.522 309.667 630.282 308.76C630.042 307.853 629.922 307.067 629.922 306.4C629.922 306.373 629.922 306.353 629.922 306.34C629.922 306.327 629.922 306.307 629.922 306.28H634.842C634.842 306.307 634.842 306.327 634.842 306.34C634.842 306.353 634.842 306.373 634.842 306.4C634.842 306.787 634.889 307.207 634.982 307.66C635.076 308.1 635.242 308.52 635.482 308.92C635.736 309.307 636.089 309.627 636.542 309.88C636.996 310.12 637.569 310.24 638.262 310.24C639.262 310.24 640.109 309.82 640.802 308.98C641.509 308.127 642.049 306.773 642.422 304.92C642.809 303.067 643.002 300.633 643.002 297.62L644.302 297.6C644.276 298.627 643.962 299.58 643.362 300.46C642.762 301.327 641.929 302.027 640.862 302.56C639.796 303.08 638.536 303.34 637.082 303.34C635.309 303.34 633.816 302.933 632.602 302.12C631.389 301.293 630.469 300.187 629.842 298.8C629.229 297.413 628.922 295.867 628.922 294.16C628.922 292.213 629.282 290.487 630.002 288.98C630.722 287.46 631.796 286.267 633.222 285.4C634.662 284.533 636.436 284.1 638.542 284.1C640.756 284.1 642.569 284.667 643.982 285.8C645.409 286.92 646.456 288.507 647.122 290.56C647.802 292.613 648.142 295.033 648.142 297.82C648.142 300.633 647.916 303.08 647.462 305.16C647.009 307.24 646.349 308.973 645.482 310.36C644.629 311.733 643.589 312.76 642.362 313.44C641.149 314.12 639.776 314.46 638.242 314.46ZM638.222 299.38C639.102 299.38 639.882 299.173 640.562 298.76C641.242 298.347 641.769 297.753 642.142 296.98C642.529 296.193 642.722 295.26 642.722 294.18C642.722 293.047 642.549 292.04 642.202 291.16C641.856 290.267 641.362 289.567 640.722 289.06C640.096 288.553 639.349 288.3 638.482 288.3C637.549 288.3 636.762 288.513 636.122 288.94C635.496 289.367 635.022 289.993 634.702 290.82C634.382 291.633 634.222 292.633 634.222 293.82C634.222 294.94 634.376 295.92 634.682 296.76C635.002 297.587 635.462 298.233 636.062 298.7C636.662 299.153 637.382 299.38 638.222 299.38ZM661.709 314.46C660.016 314.46 658.629 314.173 657.549 313.6C656.469 313.013 655.623 312.287 655.009 311.42C654.409 310.553 653.989 309.667 653.749 308.76C653.509 307.853 653.389 307.067 653.389 306.4C653.389 306.373 653.389 306.353 653.389 306.34C653.389 306.327 653.389 306.307 653.389 306.28H658.309C658.309 306.307 658.309 306.327 658.309 306.34C658.309 306.353 658.309 306.373 658.309 306.4C658.309 306.787 658.356 307.207 658.449 307.66C658.543 308.1 658.709 308.52 658.949 308.92C659.203 309.307 659.556 309.627 660.009 309.88C660.463 310.12 661.036 310.24 661.729 310.24C662.729 310.24 663.576 309.82 664.269 308.98C664.976 308.127 665.516 306.773 665.889 304.92C666.276 303.067 666.469 300.633 666.469 297.62L667.769 297.6C667.743 298.627 667.429 299.58 666.829 300.46C666.229 301.327 665.396 302.027 664.329 302.56C663.263 303.08 662.003 303.34 660.549 303.34C658.776 303.34 657.283 302.933 656.069 302.12C654.856 301.293 653.936 300.187 653.309 298.8C652.696 297.413 652.389 295.867 652.389 294.16C652.389 292.213 652.749 290.487 653.469 288.98C654.189 287.46 655.263 286.267 656.689 285.4C658.129 284.533 659.903 284.1 662.009 284.1C664.223 284.1 666.036 284.667 667.449 285.8C668.876 286.92 669.923 288.507 670.589 290.56C671.269 292.613 671.609 295.033 671.609 297.82C671.609 300.633 671.383 303.08 670.929 305.16C670.476 307.24 669.816 308.973 668.949 310.36C668.096 311.733 667.056 312.76 665.829 313.44C664.616 314.12 663.243 314.46 661.709 314.46ZM661.689 299.38C662.569 299.38 663.349 299.173 664.029 298.76C664.709 298.347 665.236 297.753 665.609 296.98C665.996 296.193 666.189 295.26 666.189 294.18C666.189 293.047 666.016 292.04 665.669 291.16C665.323 290.267 664.829 289.567 664.189 289.06C663.563 288.553 662.816 288.3 661.949 288.3C661.016 288.3 660.229 288.513 659.589 288.94C658.963 289.367 658.489 289.993 658.169 290.82C657.849 291.633 657.689 292.633 657.689 293.82C657.689 294.94 657.843 295.92 658.149 296.76C658.469 297.587 658.929 298.233 659.529 298.7C660.129 299.153 660.849 299.38 661.689 299.38Z" fill="black"/>
<rect x="95" y="604" width="290" height="96" rx="48" fill="#E9D6FF"/>
<path d="M176.784 662.12L163.664 654.18V650.58L176.784 642.62V647.04L165.764 652.96V651.8L176.784 657.68V662.12ZM196.022 633.5C197.995 633.5 199.635 633.78 200.942 634.34C202.248 634.887 203.228 635.687 203.882 636.74C204.548 637.793 204.882 639.08 204.882 640.6C204.882 642.067 204.582 643.313 203.982 644.34C203.395 645.353 202.648 646.133 201.742 646.68C200.835 647.227 199.902 647.533 198.942 647.6C199.955 647.627 200.968 647.873 201.982 648.34C203.008 648.807 203.862 649.553 204.542 650.58C205.222 651.607 205.562 652.987 205.562 654.72C205.562 656.36 205.235 657.807 204.582 659.06C203.928 660.3 202.888 661.267 201.462 661.96C200.048 662.653 198.202 663 195.922 663H184.982V633.5H196.022ZM190.022 647.2L188.282 645.66H194.222C195.982 645.66 197.315 645.293 198.222 644.56C199.142 643.813 199.602 642.78 199.602 641.46C199.602 640.567 199.408 639.847 199.022 639.3C198.648 638.753 198.088 638.353 197.342 638.1C196.608 637.833 195.722 637.7 194.682 637.7H187.642L190.022 635.08V647.2ZM194.882 658.8C196.588 658.8 197.902 658.413 198.822 657.64C199.742 656.867 200.202 655.787 200.202 654.4C200.202 653.6 200.055 652.913 199.762 652.34C199.482 651.753 199.082 651.28 198.562 650.92C198.055 650.547 197.455 650.273 196.762 650.1C196.082 649.927 195.335 649.84 194.522 649.84H188.282L190.022 648.28V661.42L187.642 658.8H194.882ZM220.277 663.42C218.037 663.42 216.064 662.953 214.357 662.02C212.65 661.073 211.31 659.767 210.337 658.1C209.377 656.433 208.897 654.527 208.897 652.38C208.897 650.22 209.377 648.32 210.337 646.68C211.31 645.027 212.65 643.733 214.357 642.8C216.064 641.867 218.037 641.4 220.277 641.4C222.517 641.4 224.49 641.867 226.197 642.8C227.904 643.733 229.237 645.027 230.197 646.68C231.17 648.32 231.657 650.22 231.657 652.38C231.657 654.527 231.17 656.433 230.197 658.1C229.237 659.767 227.904 661.073 226.197 662.02C224.49 662.953 222.517 663.42 220.277 663.42ZM220.277 659.12C221.49 659.12 222.55 658.84 223.457 658.28C224.364 657.72 225.07 656.94 225.577 655.94C226.084 654.927 226.337 653.74 226.337 652.38C226.337 651.02 226.084 649.847 225.577 648.86C225.07 647.86 224.364 647.087 223.457 646.54C222.55 645.993 221.49 645.72 220.277 645.72C219.077 645.72 218.017 645.993 217.097 646.54C216.19 647.087 215.484 647.86 214.977 648.86C214.47 649.847 214.217 651.02 214.217 652.38C214.217 653.74 214.47 654.927 214.977 655.94C215.484 656.94 216.19 657.72 217.097 658.28C218.017 658.84 219.077 659.12 220.277 659.12ZM244.429 663.44C242.682 663.44 241.062 663.02 239.569 662.18C238.089 661.327 236.902 660.073 236.009 658.42C235.115 656.767 234.669 654.733 234.669 652.32C234.669 649.973 235.122 647.987 236.029 646.36C236.949 644.733 238.149 643.5 239.629 642.66C241.122 641.82 242.722 641.4 244.429 641.4C246.095 641.4 247.635 641.813 249.049 642.64C250.462 643.453 251.595 644.587 252.449 646.04C253.302 647.493 253.729 649.16 253.729 651.04C253.729 651.093 253.729 651.147 253.729 651.2C253.729 651.253 253.729 651.307 253.729 651.36L251.129 651.42C251.129 651.38 251.129 651.34 251.129 651.3C251.129 651.247 251.129 651.2 251.129 651.16C251.129 650.107 250.862 649.187 250.329 648.4C249.809 647.613 249.129 647 248.289 646.56C247.462 646.107 246.582 645.88 245.649 645.88C244.115 645.88 242.809 646.4 241.729 647.44C240.649 648.467 240.109 650.093 240.109 652.32C240.109 654.533 240.649 656.167 241.729 657.22C242.809 658.273 244.115 658.8 245.649 658.8C246.622 658.8 247.522 658.567 248.349 658.1C249.175 657.633 249.842 656.993 250.349 656.18C250.869 655.353 251.129 654.407 251.129 653.34L253.729 653.46C253.729 655.327 253.309 657.02 252.469 658.54C251.642 660.047 250.529 661.24 249.129 662.12C247.729 663 246.162 663.44 244.429 663.44ZM251.129 663V631.74H256.409V663H251.129ZM262.565 672.12C261.939 672.12 261.379 672.087 260.885 672.02C260.392 671.967 260.085 671.913 259.965 671.86V667.76C260.139 667.84 260.432 667.9 260.845 667.94C261.272 667.993 261.712 668.02 262.165 668.02C262.899 668.02 263.532 667.873 264.065 667.58C264.612 667.287 265.079 666.88 265.465 666.36C265.852 665.853 266.159 665.26 266.385 664.58L266.845 663.24L259.525 641.76H265.025L270.045 659.48H269.405L274.305 641.76H279.705L272.265 664.3C271.745 665.86 271.112 667.227 270.365 668.4C269.632 669.573 268.652 670.487 267.425 671.14C266.199 671.793 264.579 672.12 262.565 672.12ZM296.659 631.74L285.039 666.1H280.739L292.379 631.74H296.659ZM303.198 642.62L316.298 650.58V654.18L303.198 662.12V657.68L314.218 651.8V652.96L303.198 647.04V642.62Z" fill="#3B0076"/>
<rect x="95" y="604" width="290" height="96" rx="48" stroke="#A75EFA" stroke-width="6"/>
</svg>
