<svg xmlns="http://www.w3.org/2000/svg" xmlns:xlink="http://www.w3.org/1999/xlink" viewBox="0 0 1920 1080"><defs><style>.cls-1{fill:none;}.cls-2{fill:#1b2a4f;}.cls-3{fill:#384e85;}.cls-4{fill:#2e4277;}.cls-5{fill:#3955d1;}.cls-6{fill:#6bb5fb;}.cls-7,.cls-8{fill:#4466fb;}.cls-8{opacity:0.3;}.cls-8,.cls-9{isolation:isolate;}.cls-10{fill:#b7c5fd;}.cls-11{fill:#798ffe;}.cls-12{fill:#aabafd;}.cls-13{fill:#fff;}.cls-14{fill:#d9ddf6;}.cls-15{fill:#9aadfd;}.cls-16{fill:#2b3c67;}.cls-17{fill:#8fccff;}.cls-18{clip-path:url(#clip-path);}.cls-19{fill:#213b6e;}.cls-20{fill:#213a6c;}.cls-21{fill:#2d5095;}.cls-22{fill:#3863b8;}.cls-23{fill:#26427c;}.cls-24{fill:#20396a;}.cls-25{fill:#3660b3;}.cls-26{fill:#2c4e92;}.cls-27{clip-path:url(#clip-path-2);}.cls-28{fill:#233d72;}.cls-29{fill:#243f76;}.cls-30{fill:#25427a;}.cls-31{fill:#26447f;}.cls-32{fill:#284683;}.cls-33{fill:#294887;}.cls-34{fill:#2a4b8b;}.cls-35{clip-path:url(#clip-path-3);}.cls-36{fill:#2c4d8f;}.cls-37{clip-path:url(#clip-path-4);}.cls-38{font-size:40px;}.cls-38,.cls-41{font-family:Roboto-Regular, Roboto;}.cls-39{letter-spacing:0.01em;}.cls-40{letter-spacing:-0.01em;}.cls-41{font-size:32px;}.cls-42{clip-path:url(#clip-path-5);}.cls-43{fill:#3a66bf;}.cls-44{clip-path:url(#clip-path-6);}.cls-45{letter-spacing:-0.01em;}.cls-46{letter-spacing:-0.01em;}</style><clipPath id="clip-path"><path class="cls-1" d="M316.19,704.38,293.39,692a3.36,3.36,0,0,1-1.65-3l22.8,12.4A3.32,3.32,0,0,0,316.19,704.38Z"/></clipPath><clipPath id="clip-path-2"><path class="cls-1" d="M458.85,228.91,448,216a4.53,4.53,0,0,1-1-3.23,5.24,5.24,0,0,1,5.18-4.82l10.87,13a5.23,5.23,0,0,0-5.19,4.81A4.59,4.59,0,0,0,458.85,228.91Z"/></clipPath><clipPath id="clip-path-3"><path class="cls-1" d="M931,293.52l10.86,12.94a4.6,4.6,0,0,0-3.55-1.62L927.49,291.9A4.61,4.61,0,0,1,931,293.52Z"/></clipPath><clipPath id="clip-path-4"><path class="cls-1" d="M1296.05,290.82l-10.87-12.94a4.54,4.54,0,0,1-1-3.19,5.23,5.23,0,0,1,5.14-4.85l10.87,12.94a5.22,5.22,0,0,0-5.14,4.85A4.49,4.49,0,0,0,1296.05,290.82Z"/></clipPath><clipPath id="clip-path-5"><path class="cls-1" d="M1164.69,619.38l-7.81,1a157.85,157.85,0,0,0,94.19-48,163,163,0,0,0,29.24-180.58l7.81-1a163.07,163.07,0,0,1-29.25,180.58A157.74,157.74,0,0,1,1164.69,619.38Z"/></clipPath><clipPath id="clip-path-6"><path class="cls-1" d="M1166,629.3l-7.8,1a168.32,168.32,0,0,1-139.49-46.76A173.16,173.16,0,0,1,994,366.31a4.92,4.92,0,0,1,3.5-2.22l7.8-1a4.92,4.92,0,0,0-3.5,2.22,173.16,173.16,0,0,0,24.73,217.23A168.51,168.51,0,0,0,1166,629.3Z"/></clipPath></defs><title>Artboard 2</title><g id="CSR"><g id="Icons"><g id="Server"><polygon class="cls-2" points="299.94 379.95 231.12 339.96 231.04 171.89 299.85 208.27 299.94 379.95"/><polygon class="cls-3" points="299.85 211.88 231.04 171.89 298.11 133.17 366.93 173.16 299.85 211.88"/><polygon class="cls-4" points="366.93 173.16 367.01 341.23 299.94 379.95 299.85 211.88 366.93 173.16"/><polygon class="cls-3" points="358.9 336.16 303.99 367.86 303.99 372.93 362.95 338.88 362.87 180.18 358.82 182.52 358.9 336.16"/><polygon class="cls-2" points="303.91 214.22 303.99 367.86 358.9 336.16 358.82 182.52 303.91 214.22"/><polygon class="cls-4" points="353.29 193.85 353.35 212.06 308.11 238.18 308.05 219.97 353.29 193.85"/><polygon class="cls-5" points="342.42 217.23 340.79 216.28 340.73 204.57 342.36 205.52 342.42 217.23"/><polygon class="cls-6" points="342.36 205.52 340.73 204.57 343.59 202.91 345.23 203.86 342.36 205.52"/><polygon class="cls-7" points="345.23 203.86 345.29 215.58 342.42 217.23 342.36 205.52 345.23 203.86"/><polygon class="cls-5" points="336.57 220.61 334.94 219.66 334.88 207.94 336.51 208.89 336.57 220.61"/><polygon class="cls-6" points="336.51 208.89 334.88 207.94 337.75 206.29 339.38 207.24 336.51 208.89"/><polygon class="cls-7" points="339.38 207.24 339.44 218.95 336.57 220.61 336.51 208.89 339.38 207.24"/><polygon class="cls-5" points="330.73 223.99 329.09 223.03 329.03 211.32 330.67 212.27 330.73 223.99"/><polygon class="cls-6" points="330.67 212.27 329.03 211.32 331.9 209.66 333.53 210.62 330.67 212.27"/><polygon class="cls-7" points="333.53 210.62 333.59 222.33 330.73 223.99 330.67 212.27 333.53 210.62"/><polygon class="cls-5" points="324.88 227.36 323.25 226.41 323.19 214.7 324.82 215.65 324.88 227.36"/><polygon class="cls-6" points="324.82 215.65 323.19 214.7 326.05 213.04 327.69 213.99 324.82 215.65"/><polygon class="cls-7" points="327.69 213.99 327.75 225.71 324.88 227.36 324.82 215.65 327.69 213.99"/><polygon class="cls-5" points="319.03 230.74 317.4 229.79 317.34 218.07 318.97 219.02 319.03 230.74"/><polygon class="cls-6" points="318.97 219.02 317.34 218.07 320.2 216.42 321.84 217.37 318.97 219.02"/><polygon class="cls-7" points="321.84 217.37 321.9 229.08 319.03 230.74 318.97 219.02 321.84 217.37"/><polygon class="cls-5" points="313.19 234.11 311.55 233.16 311.49 221.45 313.13 222.4 313.19 234.11"/><polygon class="cls-6" points="313.13 222.4 311.49 221.45 314.36 219.79 315.99 220.74 313.13 222.4"/><polygon class="cls-7" points="315.99 220.74 316.05 232.46 313.19 234.11 313.13 222.4 315.99 220.74"/><polygon class="cls-5" points="348.27 213.86 346.63 212.91 346.57 201.19 348.21 202.14 348.27 213.86"/><polygon class="cls-6" points="348.21 202.14 346.57 201.19 349.44 199.54 351.07 200.49 348.21 202.14"/><polygon class="cls-7" points="351.07 200.49 351.13 212.2 348.27 213.86 348.21 202.14 351.07 200.49"/><polygon class="cls-4" points="353.29 218.07 353.35 236.28 308.11 262.4 308.05 244.19 353.29 218.07"/><polygon class="cls-5" points="342.42 241.46 340.79 240.51 340.73 228.79 342.36 229.74 342.42 241.46"/><polygon class="cls-6" points="342.36 229.74 340.73 228.79 343.59 227.14 345.23 228.09 342.36 229.74"/><polygon class="cls-7" points="345.23 228.09 345.29 239.8 342.42 241.46 342.36 229.74 345.23 228.09"/><polygon class="cls-5" points="336.57 244.83 334.94 243.88 334.88 232.17 336.51 233.12 336.57 244.83"/><polygon class="cls-6" points="336.51 233.12 334.88 232.17 337.75 230.51 339.38 231.46 336.51 233.12"/><polygon class="cls-7" points="339.38 231.46 339.44 243.18 336.57 244.83 336.51 233.12 339.38 231.46"/><polygon class="cls-5" points="330.73 248.21 329.09 247.26 329.03 235.54 330.67 236.5 330.73 248.21"/><polygon class="cls-6" points="330.67 236.5 329.03 235.54 331.9 233.89 333.53 234.84 330.67 236.5"/><polygon class="cls-7" points="333.53 234.84 333.59 246.56 330.73 248.21 330.67 236.5 333.53 234.84"/><polygon class="cls-5" points="324.88 251.59 323.25 250.64 323.19 238.92 324.82 239.87 324.88 251.59"/><polygon class="cls-6" points="324.82 239.87 323.19 238.92 326.05 237.27 327.69 238.22 324.82 239.87"/><polygon class="cls-7" points="327.69 238.22 327.75 249.93 324.88 251.59 324.82 239.87 327.69 238.22"/><polygon class="cls-5" points="319.03 254.96 317.4 254.01 317.34 242.3 318.97 243.25 319.03 254.96"/><polygon class="cls-6" points="318.97 243.25 317.34 242.3 320.2 240.64 321.84 241.59 318.97 243.25"/><polygon class="cls-7" points="321.84 241.59 321.9 253.31 319.03 254.96 318.97 243.25 321.84 241.59"/><polygon class="cls-5" points="313.19 258.34 311.55 257.39 311.49 245.67 313.13 246.62 313.19 258.34"/><polygon class="cls-6" points="313.13 246.62 311.49 245.67 314.36 244.02 315.99 244.97 313.13 246.62"/><polygon class="cls-7" points="315.99 244.97 316.05 256.68 313.19 258.34 313.13 246.62 315.99 244.97"/><polygon class="cls-5" points="348.27 238.08 346.63 237.13 346.57 225.42 348.21 226.37 348.27 238.08"/><polygon class="cls-6" points="348.21 226.37 346.57 225.42 349.44 223.76 351.07 224.71 348.21 226.37"/><polygon class="cls-7" points="351.07 224.71 351.13 236.43 348.27 238.08 348.21 226.37 351.07 224.71"/><polygon class="cls-4" points="353.29 242.3 353.35 260.51 308.11 286.63 308.05 268.42 353.29 242.3"/><polygon class="cls-5" points="342.42 265.68 340.79 264.73 340.73 253.02 342.36 253.97 342.42 265.68"/><polygon class="cls-6" points="342.36 253.97 340.73 253.02 343.59 251.36 345.23 252.31 342.36 253.97"/><polygon class="cls-7" points="345.23 252.31 345.29 264.03 342.42 265.68 342.36 253.97 345.23 252.31"/><polygon class="cls-5" points="336.57 269.06 334.94 268.11 334.88 256.39 336.51 257.34 336.57 269.06"/><polygon class="cls-6" points="336.51 257.34 334.88 256.39 337.75 254.74 339.38 255.69 336.51 257.34"/><polygon class="cls-7" points="339.38 255.69 339.44 267.4 336.57 269.06 336.51 257.34 339.38 255.69"/><polygon class="cls-5" points="330.73 272.44 329.09 271.49 329.03 259.77 330.67 260.72 330.73 272.44"/><polygon class="cls-6" points="330.67 260.72 329.03 259.77 331.9 258.12 333.53 259.07 330.67 260.72"/><polygon class="cls-7" points="333.53 259.07 333.59 270.78 330.73 272.44 330.67 260.72 333.53 259.07"/><polygon class="cls-5" points="324.88 275.81 323.25 274.86 323.19 263.15 324.82 264.1 324.88 275.81"/><polygon class="cls-6" points="324.82 264.1 323.19 263.15 326.05 261.49 327.69 262.44 324.82 264.1"/><polygon class="cls-7" points="327.69 262.44 327.75 274.16 324.88 275.81 324.82 264.1 327.69 262.44"/><polygon class="cls-5" points="319.03 279.19 317.4 278.24 317.34 266.52 318.97 267.47 319.03 279.19"/><polygon class="cls-6" points="318.97 267.47 317.34 266.52 320.2 264.87 321.84 265.82 318.97 267.47"/><polygon class="cls-7" points="321.84 265.82 321.9 277.53 319.03 279.19 318.97 267.47 321.84 265.82"/><polygon class="cls-5" points="313.19 282.56 311.55 281.61 311.49 269.9 313.13 270.85 313.19 282.56"/><polygon class="cls-6" points="313.13 270.85 311.49 269.9 314.36 268.24 315.99 269.19 313.13 270.85"/><polygon class="cls-7" points="315.99 269.19 316.05 280.91 313.19 282.56 313.13 270.85 315.99 269.19"/><polygon class="cls-5" points="348.27 262.31 346.63 261.36 346.57 249.64 348.21 250.59 348.27 262.31"/><polygon class="cls-6" points="348.21 250.59 346.57 249.64 349.44 247.99 351.07 248.94 348.21 250.59"/><polygon class="cls-7" points="351.07 248.94 351.13 260.65 348.27 262.31 348.21 250.59 351.07 248.94"/><polygon class="cls-4" points="353.29 266.52 353.35 284.73 308.11 310.85 308.05 292.64 353.29 266.52"/><polygon class="cls-5" points="342.42 289.91 340.79 288.96 340.73 277.24 342.36 278.19 342.42 289.91"/><polygon class="cls-6" points="342.36 278.19 340.73 277.24 343.59 275.59 345.23 276.54 342.36 278.19"/><polygon class="cls-7" points="345.23 276.54 345.29 288.25 342.42 289.91 342.36 278.19 345.23 276.54"/><polygon class="cls-5" points="336.57 293.28 334.94 292.33 334.88 280.62 336.51 281.57 336.57 293.28"/><polygon class="cls-6" points="336.51 281.57 334.88 280.62 337.75 278.96 339.38 279.92 336.51 281.57"/><polygon class="cls-7" points="339.38 279.92 339.44 291.63 336.57 293.28 336.51 281.57 339.38 279.92"/><polygon class="cls-5" points="330.73 296.66 329.09 295.71 329.03 284 330.67 284.94 330.73 296.66"/><polygon class="cls-6" points="330.67 284.94 329.03 284 331.9 282.34 333.53 283.29 330.67 284.94"/><polygon class="cls-7" points="333.53 283.29 333.59 295.01 330.73 296.66 330.67 284.94 333.53 283.29"/><polygon class="cls-5" points="324.88 300.04 323.25 299.09 323.19 287.37 324.82 288.32 324.88 300.04"/><polygon class="cls-6" points="324.82 288.32 323.19 287.37 326.05 285.72 327.69 286.67 324.82 288.32"/><polygon class="cls-7" points="327.69 286.67 327.75 298.38 324.88 300.04 324.82 288.32 327.69 286.67"/><polygon class="cls-5" points="319.03 303.41 317.4 302.46 317.34 290.75 318.97 291.7 319.03 303.41"/><polygon class="cls-6" points="318.97 291.7 317.34 290.75 320.2 289.09 321.84 290.04 318.97 291.7"/><polygon class="cls-7" points="321.84 290.04 321.9 301.76 319.03 303.41 318.97 291.7 321.84 290.04"/><polygon class="cls-5" points="313.19 306.79 311.55 305.84 311.49 294.12 313.13 295.07 313.19 306.79"/><polygon class="cls-6" points="313.13 295.07 311.49 294.12 314.36 292.47 315.99 293.42 313.13 295.07"/><polygon class="cls-7" points="315.99 293.42 316.05 305.13 313.19 306.79 313.13 295.07 315.99 293.42"/><polygon class="cls-5" points="348.27 286.53 346.63 285.58 346.57 273.87 348.21 274.82 348.27 286.53"/><polygon class="cls-6" points="348.21 274.82 346.57 273.87 349.44 272.21 351.07 273.16 348.21 274.82"/><polygon class="cls-7" points="351.07 273.16 351.13 284.88 348.27 286.53 348.21 274.82 351.07 273.16"/><polygon class="cls-4" points="353.29 290.75 353.35 308.96 308.11 335.08 308.05 316.87 353.29 290.75"/><polygon class="cls-5" points="342.42 314.13 340.79 313.18 340.73 301.47 342.36 302.42 342.42 314.13"/><polygon class="cls-6" points="342.36 302.42 340.73 301.47 343.59 299.81 345.23 300.76 342.36 302.42"/><polygon class="cls-7" points="345.23 300.76 345.29 312.48 342.42 314.13 342.36 302.42 345.23 300.76"/><polygon class="cls-5" points="336.57 317.51 334.94 316.56 334.88 304.85 336.51 305.8 336.57 317.51"/><polygon class="cls-6" points="336.51 305.8 334.88 304.85 337.75 303.19 339.38 304.14 336.51 305.8"/><polygon class="cls-7" points="339.38 304.14 339.44 315.86 336.57 317.51 336.51 305.8 339.38 304.14"/><polygon class="cls-5" points="330.73 320.89 329.09 319.94 329.03 308.22 330.67 309.17 330.73 320.89"/><polygon class="cls-6" points="330.67 309.17 329.03 308.22 331.9 306.57 333.53 307.52 330.67 309.17"/><polygon class="cls-7" points="333.53 307.52 333.59 319.23 330.73 320.89 330.67 309.17 333.53 307.52"/><polygon class="cls-5" points="324.88 324.26 323.25 323.31 323.19 311.6 324.82 312.55 324.88 324.26"/><polygon class="cls-6" points="324.82 312.55 323.19 311.6 326.05 309.94 327.69 310.89 324.82 312.55"/><polygon class="cls-7" points="327.69 310.89 327.75 322.61 324.88 324.26 324.82 312.55 327.69 310.89"/><polygon class="cls-5" points="319.03 327.64 317.4 326.69 317.34 314.97 318.97 315.92 319.03 327.64"/><polygon class="cls-6" points="318.97 315.92 317.34 314.97 320.2 313.32 321.84 314.27 318.97 315.92"/><polygon class="cls-7" points="321.84 314.27 321.9 325.98 319.03 327.64 318.97 315.92 321.84 314.27"/><polygon class="cls-5" points="313.19 331.01 311.55 330.06 311.49 318.35 313.13 319.3 313.19 331.01"/><polygon class="cls-6" points="313.13 319.3 311.49 318.35 314.36 316.69 315.99 317.64 313.13 319.3"/><polygon class="cls-7" points="315.99 317.64 316.05 329.36 313.19 331.01 313.13 319.3 315.99 317.64"/><polygon class="cls-5" points="348.27 310.76 346.63 309.81 346.57 298.09 348.21 299.04 348.27 310.76"/><polygon class="cls-6" points="348.21 299.04 346.57 298.09 349.44 296.44 351.07 297.39 348.21 299.04"/><polygon class="cls-7" points="351.07 297.39 351.13 309.1 348.27 310.76 348.21 299.04 351.07 297.39"/><polygon class="cls-4" points="353.29 314.97 353.35 333.18 308.11 359.3 308.05 341.09 353.29 314.97"/><polygon class="cls-5" points="342.42 338.36 340.79 337.41 340.73 325.69 342.36 326.64 342.42 338.36"/><polygon class="cls-6" points="342.36 326.64 340.73 325.69 343.59 324.04 345.23 324.99 342.36 326.64"/><polygon class="cls-7" points="345.23 324.99 345.29 336.7 342.42 338.36 342.36 326.64 345.23 324.99"/><polygon class="cls-5" points="336.57 341.74 334.94 340.79 334.88 329.07 336.51 330.02 336.57 341.74"/><polygon class="cls-6" points="336.51 330.02 334.88 329.07 337.75 327.42 339.38 328.37 336.51 330.02"/><polygon class="cls-7" points="339.38 328.37 339.44 340.08 336.57 341.74 336.51 330.02 339.38 328.37"/><polygon class="cls-5" points="330.73 345.11 329.09 344.16 329.03 332.45 330.67 333.4 330.73 345.11"/><polygon class="cls-6" points="330.67 333.4 329.03 332.45 331.9 330.79 333.53 331.74 330.67 333.4"/><polygon class="cls-7" points="333.53 331.74 333.59 343.46 330.73 345.11 330.67 333.4 333.53 331.74"/><polygon class="cls-5" points="324.88 348.49 323.25 347.54 323.19 335.82 324.82 336.77 324.88 348.49"/><polygon class="cls-6" points="324.82 336.77 323.19 335.82 326.05 334.17 327.69 335.12 324.82 336.77"/><polygon class="cls-7" points="327.69 335.12 327.75 346.83 324.88 348.49 324.82 336.77 327.69 335.12"/><polygon class="cls-5" points="319.03 351.86 317.4 350.91 317.34 339.2 318.97 340.15 319.03 351.86"/><polygon class="cls-6" points="318.97 340.15 317.34 339.2 320.2 337.54 321.84 338.49 318.97 340.15"/><polygon class="cls-7" points="321.84 338.49 321.9 350.21 319.03 351.86 318.97 340.15 321.84 338.49"/><polygon class="cls-5" points="313.19 355.24 311.55 354.29 311.49 342.57 313.13 343.52 313.19 355.24"/><polygon class="cls-6" points="313.13 343.52 311.49 342.57 314.36 340.92 315.99 341.87 313.13 343.52"/><polygon class="cls-7" points="315.99 341.87 316.05 353.58 313.19 355.24 313.13 343.52 315.99 341.87"/><polygon class="cls-5" points="348.27 334.98 346.63 334.03 346.57 322.32 348.21 323.27 348.27 334.98"/><polygon class="cls-6" points="348.21 323.27 346.57 322.32 349.44 320.66 351.07 321.61 348.21 323.27"/><polygon class="cls-7" points="351.07 321.61 351.13 333.33 348.27 334.98 348.21 323.27 351.07 321.61"/><path class="cls-3" d="M236.42,330c-.24-.14-.44,0-.44.25a1,1,0,0,0,.44.77l10.74,6.2c.24.14.44,0,.44-.26a1,1,0,0,0-.44-.76Z"/><path class="cls-3" d="M236.43,327.65c-.24-.14-.44,0-.44.26a.93.93,0,0,0,.44.76l10.74,6.2c.24.14.44,0,.44-.25a1,1,0,0,0-.44-.77Z"/><path class="cls-3" d="M236.44,325.29c-.25-.14-.45,0-.45.25a1,1,0,0,0,.44.76l10.74,6.21c.25.14.45,0,.45-.26a1,1,0,0,0-.44-.76Z"/><path class="cls-3" d="M236.44,322.92c-.24-.14-.44,0-.44.25a1,1,0,0,0,.44.77l10.74,6.2a.27.27,0,0,0,.44-.25,1,1,0,0,0-.44-.77Z"/><path class="cls-3" d="M236.46,318.19c-.25-.14-.45,0-.45.25a1,1,0,0,0,.44.76l10.74,6.2c.25.14.45,0,.45-.25a1,1,0,0,0-.44-.76Z"/><path class="cls-3" d="M236.45,320.55c-.24-.13-.44,0-.44.26a1,1,0,0,0,.44.76l10.74,6.2c.24.14.44,0,.44-.25a1,1,0,0,0-.44-.76Z"/><path class="cls-3" d="M236.42,308.47a.27.27,0,0,0-.44.25,1,1,0,0,0,.44.77l10.74,6.2c.24.14.44,0,.44-.26a1,1,0,0,0-.44-.76Z"/><path class="cls-3" d="M236.43,306.1c-.24-.14-.44,0-.44.26a.93.93,0,0,0,.44.76l10.74,6.21c.24.14.44,0,.44-.26a1,1,0,0,0-.44-.76Z"/><path class="cls-3" d="M236.44,303.74c-.25-.14-.45,0-.45.25a1,1,0,0,0,.44.77l10.74,6.2c.25.14.45,0,.45-.25a1,1,0,0,0-.44-.77Z"/><path class="cls-3" d="M236.44,301.38c-.24-.14-.44,0-.44.25a1,1,0,0,0,.44.76l10.74,6.2c.24.14.44,0,.44-.25a1,1,0,0,0-.44-.76Z"/><path class="cls-3" d="M236.46,296.64c-.25-.14-.45,0-.45.25a1,1,0,0,0,.44.77l10.74,6.2c.25.14.45,0,.45-.26a1,1,0,0,0-.44-.76Z"/><path class="cls-3" d="M236.45,299c-.24-.14-.44,0-.44.25a1,1,0,0,0,.44.76l10.74,6.2c.24.14.44,0,.44-.25a1,1,0,0,0-.44-.76Z"/><path class="cls-3" d="M236.42,286.92c-.24-.14-.44,0-.44.26a1,1,0,0,0,.44.76l10.74,6.21c.24.14.44,0,.44-.26a1,1,0,0,0-.44-.76Z"/><path class="cls-3" d="M236.43,284.56c-.24-.14-.44,0-.44.26a.94.94,0,0,0,.44.76l10.74,6.2a.27.27,0,0,0,.44-.25,1,1,0,0,0-.44-.77Z"/><path class="cls-3" d="M236.44,282.2c-.25-.14-.45,0-.45.25a1,1,0,0,0,.44.76l10.74,6.2c.25.14.45,0,.45-.25a1,1,0,0,0-.44-.76Z"/><path class="cls-3" d="M236.44,279.83c-.24-.14-.44,0-.44.25a1,1,0,0,0,.44.76l10.74,6.2c.24.14.44,0,.44-.25a1,1,0,0,0-.44-.76Z"/><path class="cls-3" d="M236.46,275.09c-.25-.14-.45,0-.45.26a1,1,0,0,0,.44.76l10.74,6.2c.25.14.45,0,.45-.25a1,1,0,0,0-.44-.76Z"/><path class="cls-3" d="M236.45,277.46c-.24-.14-.44,0-.44.25a1,1,0,0,0,.44.77l10.74,6.2a.27.27,0,0,0,.44-.25,1,1,0,0,0-.44-.77Z"/><path class="cls-3" d="M236.42,265.38c-.24-.14-.44,0-.44.25a1,1,0,0,0,.44.77l10.74,6.2c.24.14.44,0,.44-.26a1,1,0,0,0-.44-.76Z"/><path class="cls-3" d="M236.43,263c-.24-.14-.44,0-.44.26a.93.93,0,0,0,.44.76l10.74,6.2c.24.14.44,0,.44-.25a1,1,0,0,0-.44-.77Z"/><path class="cls-3" d="M236.44,260.65c-.25-.14-.45,0-.45.25a1,1,0,0,0,.44.76l10.74,6.2c.25.14.45,0,.45-.25a1,1,0,0,0-.44-.76Z"/><path class="cls-3" d="M236.44,258.28c-.24-.14-.44,0-.44.25a1,1,0,0,0,.44.77l10.74,6.2a.27.27,0,0,0,.44-.25,1,1,0,0,0-.44-.77Z"/><path class="cls-3" d="M236.46,253.55c-.25-.14-.45,0-.45.25a1,1,0,0,0,.44.76l10.74,6.2c.25.14.45,0,.45-.25a1,1,0,0,0-.44-.76Z"/><path class="cls-3" d="M236.45,255.91c-.24-.14-.44,0-.44.26a1,1,0,0,0,.44.76l10.74,6.2c.24.14.44,0,.44-.25a1,1,0,0,0-.44-.76Z"/><path class="cls-3" d="M236.42,243.83c-.24-.14-.44,0-.44.25a1,1,0,0,0,.44.77l10.74,6.2c.24.14.44,0,.44-.26a1,1,0,0,0-.44-.76Z"/><path class="cls-3" d="M236.43,241.46c-.24-.14-.44,0-.44.26a.93.93,0,0,0,.44.76l10.74,6.21c.24.13.44,0,.44-.26a1,1,0,0,0-.44-.77Z"/><path class="cls-3" d="M236.44,239.1c-.25-.14-.45,0-.45.25a1,1,0,0,0,.44.77l10.74,6.2c.25.14.45,0,.45-.25a1,1,0,0,0-.44-.77Z"/><path class="cls-3" d="M236.44,236.73c-.24-.14-.44,0-.44.26a1,1,0,0,0,.44.76l10.74,6.2c.24.14.44,0,.44-.25a.94.94,0,0,0-.44-.76Z"/><path class="cls-3" d="M236.46,232c-.25-.14-.45,0-.45.25a1,1,0,0,0,.44.76l10.74,6.21c.25.14.45,0,.45-.26a1,1,0,0,0-.44-.76Z"/><path class="cls-3" d="M236.45,234.37c-.24-.14-.44,0-.44.25a1,1,0,0,0,.44.76l10.74,6.2c.24.14.44,0,.44-.25a1,1,0,0,0-.44-.76Z"/><path class="cls-3" d="M236.42,222.28c-.24-.14-.44,0-.44.26a1,1,0,0,0,.44.76l10.74,6.21c.24.14.44,0,.44-.26a1,1,0,0,0-.44-.77Z"/><path class="cls-3" d="M236.43,219.92c-.24-.14-.44,0-.44.25a.94.94,0,0,0,.44.77l10.74,6.2a.27.27,0,0,0,.44-.25,1,1,0,0,0-.44-.77Z"/><path class="cls-3" d="M236.44,217.55c-.25-.13-.45,0-.45.26a1,1,0,0,0,.44.76l10.74,6.2c.25.14.45,0,.45-.25a1,1,0,0,0-.44-.76Z"/><path class="cls-3" d="M236.44,215.19c-.24-.14-.44,0-.44.25a1,1,0,0,0,.44.76l10.74,6.2c.24.14.44,0,.44-.25a1,1,0,0,0-.44-.76Z"/><path class="cls-3" d="M236.46,210.45c-.25-.14-.45,0-.45.26a1,1,0,0,0,.44.76l10.74,6.2c.25.14.45,0,.45-.25a1,1,0,0,0-.44-.77Z"/><path class="cls-3" d="M236.45,212.82c-.24-.14-.44,0-.44.25a.94.94,0,0,0,.44.76L247.19,220c.24.14.44,0,.44-.26a1,1,0,0,0-.44-.76Z"/><path class="cls-3" d="M236.42,200.74c-.24-.14-.44,0-.44.25a1,1,0,0,0,.44.77l10.74,6.2c.24.14.44,0,.44-.26a1,1,0,0,0-.44-.76Z"/><path class="cls-3" d="M236.43,198.37c-.24-.14-.44,0-.44.26a.93.93,0,0,0,.44.76l10.74,6.2c.24.14.44,0,.44-.25a1,1,0,0,0-.44-.77Z"/><path class="cls-3" d="M236.44,196c-.25-.14-.45,0-.45.25a1,1,0,0,0,.44.76l10.74,6.2c.25.14.45,0,.45-.25a1,1,0,0,0-.44-.76Z"/><path class="cls-3" d="M236.44,193.64c-.24-.14-.44,0-.44.25a1,1,0,0,0,.44.77l10.74,6.2c.24.14.44,0,.44-.26a1,1,0,0,0-.44-.76Z"/><path class="cls-3" d="M236.46,188.91c-.25-.14-.45,0-.45.25a1,1,0,0,0,.44.76l10.74,6.2c.25.14.45,0,.45-.25a1,1,0,0,0-.44-.76Z"/><path class="cls-3" d="M236.45,191.27c-.24-.14-.44,0-.44.26a1,1,0,0,0,.44.76l10.74,6.2c.24.14.44,0,.44-.25a1,1,0,0,0-.44-.76Z"/><polygon class="cls-2" points="306.43 383.72 299.94 379.95 299.85 211.88 306.35 215.66 306.43 383.72"/><polygon class="cls-2" points="306.35 215.66 299.85 211.88 366.93 173.16 373.42 176.93 306.35 215.66"/><path class="cls-4" d="M306.35,215.66l.09,168.06L373.49,345,373.4,177Zm7.75,0,52.41-30.24.05,147.37L314.19,363Z"/><polygon class="cls-8" points="314.12 215.66 314.2 369.4 366.56 339.16 366.49 185.42 314.12 215.66"/><polygon class="cls-8" points="359.58 343.19 314.18 318.7 314.18 323.93 354.23 346.28 359.58 343.19"/><polygon class="cls-8" points="366.56 326.94 314.17 299.66 314.17 312.89 365.53 339.76 366.56 339.16 366.56 326.94"/><polygon class="cls-8" points="314.15 269.34 366.54 290.27 366.54 285.04 314.15 264.11 314.15 269.34"/><polygon class="cls-8" points="314.14 258.29 366.54 279.23 366.53 266 314.14 245.06 314.14 258.29"/><polygon class="cls-8" points="315.05 215.12 366.52 235.68 366.51 230.45 320.41 212.03 315.05 215.12"/><polygon class="cls-8" points="326.36 208.59 366.51 224.63 366.5 211.41 339.9 200.78 326.36 208.59"/><g class="cls-9"><path class="cls-10" d="M310.41,297.2l2.72,1.57,0-9.67a4.93,4.93,0,0,0-2.24-3.86l-2.93-1.7,2.46-1.42,2.94,1.7a4.84,4.84,0,0,1,2.23,3.85l0,11.66a1.55,1.55,0,0,1-.65,1.43l-2.47,1.44a1.61,1.61,0,0,0,.66-1.44v-1.38l-1.71,1a.5.5,0,0,1-.53-.06l-2.95-1.69Z"/></g><path class="cls-11" d="M310.92,285.25a4.88,4.88,0,0,1,2.22,3.85l0,11.66c0,1.41-1,2-2.24,1.28l-2.94-1.7v-1.71l2.95,1.7c.41.23.74,0,.74-.43l0-11.66a1.66,1.66,0,0,0-.74-1.29l-2.94-1.7v-1.7Z"/></g><g id="Dev_Laptop" data-name="Dev Laptop"><path class="cls-12" d="M235,897.71l87,50.57a7.31,7.31,0,0,0,6.66,0L460.88,872c1.85-1.06,1.85-2.79,0-3.86l-87-50.58a7.39,7.39,0,0,0-6.64,0L235,893.85C233.14,894.93,233.13,896.65,235,897.71Z"/><path class="cls-4" d="M337.81,902.85a1.15,1.15,0,0,0,0,2.18l21.45,12.46a4.15,4.15,0,0,0,3.76,0l42.27-24.41a1.14,1.14,0,0,0,0-2.17l-21.45-12.47a4.15,4.15,0,0,0-3.76,0Z"/><path class="cls-11" d="M233.6,895.8l0,5.09A2.35,2.35,0,0,0,235,902.8l87,50.57a7.37,7.37,0,0,0,6.66,0L460.9,877a2.34,2.34,0,0,0,1.38-1.95V870a2.34,2.34,0,0,1-1.39,1.93L328.65,948.3a7.31,7.31,0,0,1-6.66,0l-87-50.57A2.3,2.3,0,0,1,233.6,895.8Z"/><path class="cls-2" d="M367,716.82c1.84-1.07,3.34-.21,3.35,1.91l.23,93a7.33,7.33,0,0,1-3.32,5.76L236.89,892.75c-1.84,1.06-3.34.2-3.34-1.91l-.24-93a7.32,7.32,0,0,1,3.33-5.76Z"/><path class="cls-3" d="M229.81,795.79l.24,93a2.36,2.36,0,0,0,1,2.14l3.5,2a2.32,2.32,0,0,1-1-2.14l-.24-93a7.35,7.35,0,0,1,3.33-5.77L367,716.82a2.39,2.39,0,0,1,2.37-.24l-3.49-2a2.39,2.39,0,0,0-2.37.24L233.14,790A7.35,7.35,0,0,0,229.81,795.79Z"/><polygon class="cls-3" points="238.01 796.68 238.24 886.55 365.84 812.89 365.61 723.02 238.01 796.68"/><polygon class="cls-12" points="238.01 796.68 238.05 811.75 365.65 738.09 365.61 723.02 238.01 796.68"/><path class="cls-13" d="M344.57,740.85c1.23-.71,2.23-.16,2.24,1.25a4.9,4.9,0,0,1-2.22,3.84c-1.21.7-2.21.13-2.21-1.28A4.83,4.83,0,0,1,344.57,740.85Z"/><path class="cls-13" d="M351.68,736.75c1.21-.7,2.21-.15,2.21,1.26a4.87,4.87,0,0,1-2.2,3.83c-1.23.71-2.23.14-2.23-1.27A4.84,4.84,0,0,1,351.68,736.75Z"/><path class="cls-13" d="M358.76,732.66c1.23-.71,2.23-.17,2.24,1.25a4.9,4.9,0,0,1-2.22,3.84c-1.23.71-2.23.14-2.24-1.27A4.86,4.86,0,0,1,358.76,732.66Z"/><polygon class="cls-3" points="261.66 891.47 253.31 896.32 249.71 894.24 258.06 889.39 261.66 891.47"/><polygon class="cls-3" points="351.53 839.24 343.17 844.1 339.57 842.02 347.93 837.16 351.53 839.24"/><polygon class="cls-3" points="374 826.18 365.64 831.04 362.04 828.96 370.4 824.1 374 826.18"/><polygon class="cls-3" points="359.01 856.58 350.66 861.43 343.23 857.14 351.58 852.29 359.01 856.58"/><polygon class="cls-3" points="400.21 854.33 391.84 859.19 384.4 854.9 392.77 850.04 400.21 854.33"/><polygon class="cls-3" points="411.45 847.8 403.08 852.66 386.28 842.96 394.64 838.1 411.45 847.8"/><g class="cls-9"><polygon class="cls-3" points="383.37 831.59 367.94 840.55 360.5 836.25 375.93 827.29 383.37 831.59"/><polygon class="cls-3" points="365.08 842.21 356.71 847.07 349.28 842.78 357.64 837.92 365.08 842.21"/><polygon class="cls-3" points="392.72 836.99 373.11 848.38 365.69 844.09 385.29 832.7 392.72 836.99"/><polygon class="cls-3" points="370.25 850.04 361.88 854.9 354.46 850.62 362.82 845.76 370.25 850.04"/><polygon class="cls-3" points="379.61 855.45 371.25 860.31 363.81 856.02 372.18 851.16 379.61 855.45"/></g><polygon class="cls-3" points="353.84 848.75 345.47 853.61 338.04 849.31 346.4 844.45 353.84 848.75"/><polygon class="cls-3" points="340.29 845.77 331.94 850.62 328.34 848.55 336.69 843.69 340.29 845.77"/><polygon class="cls-3" points="329.06 852.29 320.7 857.15 317.1 855.08 325.46 850.22 329.06 852.29"/><polygon class="cls-3" points="334.68 881.57 326.31 886.43 318.87 882.13 327.24 877.27 334.68 881.57"/><g class="cls-9"><polygon class="cls-3" points="317.82 858.83 309.47 863.68 305.87 861.6 314.23 856.75 317.82 858.83"/><polygon class="cls-3" points="331.37 861.8 323.02 866.66 315.58 862.36 323.93 857.51 331.37 861.8"/><polygon class="cls-3" points="306.6 865.35 298.23 870.21 294.63 868.13 303 863.27 306.6 865.35"/><polygon class="cls-3" points="320.14 868.33 311.78 873.19 304.34 868.89 312.7 864.03 320.14 868.33"/><polygon class="cls-3" points="336.54 869.63 328.19 874.49 320.76 870.2 329.11 865.35 336.54 869.63"/><polygon class="cls-3" points="295.37 871.88 287 876.74 283.4 874.66 291.77 869.8 295.37 871.88"/><polygon class="cls-3" points="308.91 874.85 300.55 879.71 293.11 875.42 301.47 870.56 308.91 874.85"/><polygon class="cls-3" points="345.9 875.04 337.55 879.89 330.11 875.6 338.47 870.75 345.9 875.04"/><polygon class="cls-3" points="325.31 876.16 316.95 881.02 309.52 876.73 317.88 871.87 325.31 876.16"/><polygon class="cls-3" points="284.13 878.41 275.76 883.27 272.16 881.19 280.53 876.33 284.13 878.41"/><polygon class="cls-3" points="297.67 881.39 289.31 886.25 281.87 881.95 290.23 877.09 297.67 881.39"/><polygon class="cls-3" points="314.08 882.68 305.72 887.54 298.29 883.26 306.66 878.4 314.08 882.68"/><polygon class="cls-3" points="286.44 887.91 278.08 892.77 270.64 888.48 279 883.62 286.44 887.91"/><polygon class="cls-3" points="323.45 888.09 315.08 892.95 307.64 888.66 316.01 883.8 323.45 888.09"/><polygon class="cls-3" points="302.84 889.22 294.48 894.08 287.05 889.79 295.42 884.93 302.84 889.22"/><polygon class="cls-3" points="312.21 894.62 303.84 899.48 296.4 895.19 304.77 890.33 312.21 894.62"/><polygon class="cls-3" points="355.75 880.17 313.21 904.89 305.77 900.6 348.31 875.87 355.75 880.17"/><polygon class="cls-3" points="300.98 901.15 292.62 906.01 285.18 901.71 293.54 896.85 300.98 901.15"/><polygon class="cls-3" points="291.62 895.74 272.02 907.13 264.6 902.84 284.19 891.45 291.62 895.74"/><polygon class="cls-3" points="289.74 907.68 281.39 912.53 273.95 908.24 282.3 903.38 289.74 907.68"/><polygon class="cls-3" points="310.34 906.55 290.75 917.94 283.31 913.65 302.91 902.26 310.34 906.55"/></g><polygon class="cls-3" points="272.9 884.93 264.53 889.79 260.94 887.72 269.3 882.86 272.9 884.93"/><polygon class="cls-3" points="362.76 832.71 354.4 837.57 350.8 835.5 359.16 830.63 362.76 832.71"/><polygon class="cls-3" points="342.61 855.27 334.25 860.13 326.81 855.84 335.17 850.98 342.61 855.27"/><polygon class="cls-3" points="366.51 873.91 358.15 878.77 350.71 874.48 359.07 869.62 366.51 873.91"/><polygon class="cls-3" points="357.15 868.51 348.78 873.37 341.34 869.07 349.71 864.21 357.15 868.51"/><polygon class="cls-3" points="347.78 863.1 339.42 867.96 331.99 863.67 340.35 858.81 347.78 863.1"/><polygon class="cls-3" points="388.98 860.86 380.62 865.72 373.18 861.42 381.54 856.56 388.98 860.86"/><polygon class="cls-3" points="377.74 867.39 369.39 872.24 361.95 867.95 370.3 863.09 377.74 867.39"/><polygon class="cls-3" points="275.2 894.44 262.67 901.73 255.23 897.43 267.76 890.15 275.2 894.44"/><path class="cls-14" d="M249.88,820.43c1.61-.93,2.57-.73,3.26-.11l-.92,1.49c-.59-.59-1.35-.54-2.27,0a6.74,6.74,0,0,0-3.06,5.71c0,2.26,1.21,3.25,3.08,2.17a5.57,5.57,0,0,0,2.26-2.63l.93.43a8,8,0,0,1-3.25,3.66c-2.65,1.53-4.44.21-4.44-2.81A9.52,9.52,0,0,1,249.88,820.43Z"/><path class="cls-14" d="M255.84,825.34c.55-.31,1-.05,1,.58a2.23,2.23,0,0,1-1,1.74c-.56.32-1,.06-1-.57A2.27,2.27,0,0,1,255.84,825.34Z"/><ellipse class="cls-14" cx="255.82" cy="818.27" rx="1.42" ry="0.82" transform="translate(-580.19 628.31) rotate(-59.84)"/><polygon class="cls-14" points="258.91 811.16 263.3 823.57 262.22 824.2 257.82 811.78 258.91 811.16"/><polygon class="cls-14" points="267.47 804.78 275.15 809.16 267.52 822.38 266.29 821.68 272.71 810.57 266.25 806.9 267.47 804.78"/><polygon class="cls-14" points="283.72 809.18 283.73 812.48 275.7 817.11 275.69 813.82 283.72 809.18"/></g><g id="User_Laptop" data-name="User Laptop"><path class="cls-10" d="M1049.07,305l116.65-67.35a6.5,6.5,0,0,1,5.86,0L1235,274.52c1.63,1,1.63,2.47,0,3.41l-116.65,67.36a6.46,6.46,0,0,1-5.87,0l-63.41-36.85C1047.43,307.49,1047.44,306,1049.07,305Z"/><path class="cls-15" d="M1170.24,284.48a3.32,3.32,0,0,1,3,0l17.22,10a.92.92,0,0,1,0,1.75l-33.94,19.59a3.35,3.35,0,0,1-3,0l-17.22-10a.92.92,0,0,1,0-1.75Z"/><path class="cls-15" d="M1049.06,308.42l63.41,36.85a6.46,6.46,0,0,0,5.87,0L1235,277.93a2.06,2.06,0,0,0,1.22-1.7l0,6.13a2.08,2.08,0,0,1-1.22,1.72l-116.65,67.34a6.54,6.54,0,0,1-5.88,0l-63.41-36.85a2.08,2.08,0,0,1-1.2-1.69l0-6.15A2,2,0,0,0,1049.06,308.42Z"/><polygon class="cls-3" points="1157.85 252.8 1160.04 254.08 1154.76 257.13 1152.57 255.85 1157.85 252.8"/><polygon class="cls-3" points="1193.74 257.23 1198.58 260.04 1186.2 267.18 1181.36 264.37 1193.74 257.23"/><polygon class="cls-3" points="1187.65 253.69 1192.49 256.5 1187.21 259.55 1182.37 256.74 1187.65 253.69"/><polygon class="cls-3" points="1180.55 257.78 1185.39 260.6 1180.11 263.64 1175.27 260.83 1180.55 257.78"/><polygon class="cls-3" points="1181.56 250.15 1186.4 252.96 1174.02 260.11 1169.18 257.29 1181.56 250.15"/><polygon class="cls-3" points="1167.37 258.34 1172.21 261.15 1166.93 264.2 1162.09 261.39 1167.37 258.34"/><polygon class="cls-3" points="1158.65 256.33 1163.48 259.13 1158.2 262.18 1153.37 259.38 1158.65 256.33"/><polygon class="cls-3" points="1165.74 252.24 1170.57 255.04 1165.29 258.09 1160.46 255.28 1165.74 252.24"/><polygon class="cls-3" points="1164.94 248.71 1167.13 249.98 1161.85 253.03 1159.66 251.76 1164.94 248.71"/><polygon class="cls-3" points="1175.48 246.61 1180.31 249.42 1172.38 253.99 1167.56 251.19 1175.48 246.61"/><polygon class="cls-3" points="1172.04 244.61 1174.22 245.88 1168.94 248.93 1166.76 247.66 1172.04 244.61"/><polygon class="cls-3" points="1129.47 269.19 1131.66 270.46 1126.38 273.51 1124.19 272.24 1129.47 269.19"/><polygon class="cls-3" points="1130.27 272.71 1135.1 275.52 1129.82 278.57 1124.99 275.76 1130.27 272.71"/><polygon class="cls-3" points="1137.36 268.62 1142.19 271.43 1136.91 274.47 1132.08 271.67 1137.36 268.62"/><polygon class="cls-3" points="1159.27 270.07 1164.11 272.88 1158.83 275.93 1153.99 273.12 1159.27 270.07"/><polygon class="cls-3" points="1152.17 274.17 1157.01 276.98 1151.73 280.03 1146.89 277.22 1152.17 274.17"/><g class="cls-9"><polygon class="cls-3" points="1150.75 256.9 1152.94 258.17 1147.65 261.22 1145.47 259.95 1150.75 256.9"/><polygon class="cls-3" points="1143.66 261 1145.85 262.27 1140.57 265.32 1138.38 264.05 1143.66 261"/><polygon class="cls-3" points="1151.55 260.43 1156.38 263.23 1151.1 266.28 1146.27 263.48 1151.55 260.43"/><polygon class="cls-3" points="1160.27 262.44 1165.11 265.25 1159.83 268.3 1154.99 265.49 1160.27 262.44"/><polygon class="cls-3" points="1144.46 264.52 1149.29 267.33 1144.01 270.38 1139.18 267.57 1144.46 264.52"/><polygon class="cls-3" points="1166.36 265.98 1171.2 268.79 1165.92 271.84 1161.08 269.02 1166.36 265.98"/><polygon class="cls-3" points="1153.18 266.53 1158.02 269.34 1152.74 272.39 1147.9 269.58 1153.18 266.53"/><polygon class="cls-3" points="1179.55 265.42 1184.38 268.22 1150.72 287.66 1145.89 284.85 1179.55 265.42"/></g><polygon class="cls-3" points="1136.56 265.1 1138.75 266.37 1133.47 269.42 1131.28 268.14 1136.56 265.1"/><polygon class="cls-3" points="1122.38 273.28 1124.57 274.55 1119.28 277.61 1117.09 276.34 1122.38 273.28"/><polygon class="cls-3" points="1108.19 281.47 1110.38 282.75 1105.1 285.79 1102.91 284.52 1108.19 281.47"/><g class="cls-9"><polygon class="cls-3" points="1146.08 270.63 1150.92 273.44 1145.64 276.49 1140.8 273.68 1146.08 270.63"/><polygon class="cls-3" points="1138.99 274.72 1143.83 277.53 1138.55 280.58 1133.71 277.77 1138.99 274.72"/></g><polygon class="cls-3" points="1131.9 278.82 1136.74 281.63 1131.45 284.68 1126.61 281.87 1131.9 278.82"/><polygon class="cls-3" points="1123.17 276.81 1128 279.62 1122.73 282.66 1117.9 279.86 1123.17 276.81"/><polygon class="cls-3" points="1124.8 282.91 1129.64 285.73 1124.36 288.77 1119.52 285.96 1124.8 282.91"/><polygon class="cls-3" points="1129.89 294.09 1134.73 296.9 1129.45 299.95 1124.61 297.14 1129.89 294.09"/><polygon class="cls-3" points="1123.8 290.55 1128.64 293.36 1123.36 296.41 1118.52 293.6 1123.8 290.55"/><polygon class="cls-3" points="1117.71 287.01 1122.55 289.82 1110.17 296.97 1105.33 294.15 1117.71 287.01"/><g class="cls-9"><polygon class="cls-3" points="1101.09 285.57 1103.28 286.84 1098 289.89 1095.81 288.62 1101.09 285.57"/><polygon class="cls-3" points="1108.99 285 1113.82 287.8 1104.08 293.43 1099.25 290.62 1108.99 285"/></g><polygon class="cls-3" points="1116.08 280.9 1120.91 283.71 1115.63 286.76 1110.8 283.95 1116.08 280.9"/><polygon class="cls-3" points="1115.28 277.38 1117.47 278.65 1112.19 281.7 1110 280.43 1115.28 277.38"/><polygon class="cls-3" points="1090.32 302.82 1095.16 305.63 1089.88 308.68 1085.04 305.87 1090.32 302.82"/><polygon class="cls-3" points="1076.13 311.01 1080.97 313.83 1075.69 316.88 1070.85 314.06 1076.13 311.01"/><polygon class="cls-3" points="1109.6 305.8 1114.44 308.61 1109.16 311.66 1104.32 308.85 1109.6 305.8"/><g class="cls-9"><polygon class="cls-3" points="1087.9 293.19 1090.09 294.46 1084.81 297.51 1082.62 296.24 1087.9 293.19"/><polygon class="cls-3" points="1091.34 295.19 1096.17 298 1090.89 301.05 1086.06 298.24 1091.34 295.19"/><polygon class="cls-3" points="1080.8 297.29 1082.99 298.56 1077.71 301.61 1075.52 300.34 1080.8 297.29"/><polygon class="cls-3" points="1097.42 298.72 1102.26 301.54 1096.98 304.58 1092.14 301.77 1097.42 298.72"/><polygon class="cls-3" points="1084.24 299.29 1089.07 302.09 1083.79 305.14 1078.96 302.34 1084.24 299.29"/><polygon class="cls-3" points="1103.51 302.26 1108.35 305.07 1103.07 308.12 1098.23 305.31 1103.51 302.26"/><polygon class="cls-3" points="1077.15 303.38 1081.98 306.19 1076.7 309.24 1071.87 306.43 1077.15 303.38"/><polygon class="cls-3" points="1096.41 306.36 1101.25 309.17 1095.97 312.22 1091.13 309.41 1096.41 306.36"/><polygon class="cls-3" points="1083.23 306.92 1088.07 309.73 1082.79 312.78 1077.95 309.96 1083.23 306.92"/><polygon class="cls-3" points="1089.32 310.45 1094.16 313.27 1088.88 316.32 1084.04 313.5 1089.32 310.45"/></g><polygon class="cls-3" points="1173.46 261.88 1178.3 264.69 1173.02 267.74 1168.18 264.93 1173.46 261.88"/><polygon class="cls-3" points="1144.08 285.89 1148.92 288.71 1143.63 291.76 1138.79 288.95 1144.08 285.89"/><polygon class="cls-3" points="1137.99 282.36 1142.83 285.17 1137.54 288.22 1132.7 285.41 1137.99 282.36"/><polygon class="cls-3" points="1136.98 289.99 1141.82 292.81 1136.54 295.85 1131.7 293.04 1136.98 289.99"/><polygon class="cls-3" points="1130.89 286.45 1135.73 289.27 1130.45 292.31 1125.61 289.5 1130.89 286.45"/><polygon class="cls-3" points="1145.08 278.26 1149.92 281.07 1144.64 284.12 1139.8 281.31 1145.08 278.26"/><polygon class="cls-3" points="1122.8 298.19 1127.63 301 1122.35 304.05 1117.51 301.24 1122.8 298.19"/><polygon class="cls-3" points="1070.05 307.48 1074.88 310.29 1069.6 313.33 1064.77 310.53 1070.05 307.48"/><polygon class="cls-3" points="1066.61 305.48 1068.8 306.75 1063.52 309.8 1061.33 308.53 1066.61 305.48"/><polygon class="cls-3" points="1073.71 301.38 1075.9 302.65 1070.62 305.7 1068.43 304.43 1073.71 301.38"/><polygon class="cls-3" points="1102.5 309.9 1107.34 312.71 1102.06 315.76 1097.22 312.95 1102.5 309.9"/><polygon class="cls-3" points="1082.22 314.55 1093.15 320.9 1087.87 323.95 1076.94 317.6 1082.22 314.55"/><polygon class="cls-3" points="1095.41 314 1100.25 316.81 1094.97 319.86 1090.13 317.04 1095.41 314"/><path class="cls-2" d="M1165.5,148.84c1.62-.94,2.94-.19,3,1.68l.21,82.07a6.47,6.47,0,0,1-2.94,5.08l-115,66.38c-1.62.93-3,.17-3-1.69l-.21-82.07a6.5,6.5,0,0,1,2.93-5.08Z"/><path class="cls-3" d="M1047.44,213.43l115-66.38a2.12,2.12,0,0,1,2.1-.21l3.08,1.79a2.1,2.1,0,0,0-2.09.21l-115,66.37a6.51,6.51,0,0,0-2.93,5.09l.21,82.06a2.06,2.06,0,0,0,.86,1.89l-3.09-1.8a2.06,2.06,0,0,1-.86-1.88l-.21-82.07A6.45,6.45,0,0,1,1047.44,213.43Z"/><polygon class="cls-14" points="1164.31 154.31 1164.51 233.59 1051.94 298.58 1051.74 219.29 1164.31 154.31"/><polygon class="cls-3" points="1064.23 319.08 1064.22 321.93 1070.29 325.44 1070.3 322.58 1064.23 319.08"/><polygon class="cls-3" points="1053.31 312.78 1053.3 315.63 1059.37 319.13 1059.37 316.28 1053.31 312.78"/><path class="cls-3" d="M1037.12,342.27a2.09,2.09,0,0,1-1.17-1.76,2.13,2.13,0,0,1,1.18-1.79l29.92-17.27.84,1.45L1038,340.17c-.25.15-.34.29-.34.34s.08.17.33.31l39.13,22.74-.84,1.45Z"/><g class="cls-9"><path class="cls-14" d="M1061.38,366.46a3.87,3.87,0,0,0,5.08,2.49c2.19-.69,5.7.3,9.25,1.67,4.57,1.77,6.87,3.84,7.82,5.93,1.7,3.78,5.46,6.31,9.56,5.68a26.71,26.71,0,0,0,9.17-3.26c6.44-3.75,8.69-8.52,2.29-12.23-6.74-2.87-11.72-5.53-14.42-7.91a11.91,11.91,0,0,0-3.4-2.23c-6.24-2.49-14.33-1.63-20.08,1.67C1062.61,360.62,1060.68,363.63,1061.38,366.46Z"/><path class="cls-12" d="M1061.23,365.33v1.73c0,2.11,1.38,4.18,4.32,5.89l15.57,9.06c6.44,3.71,14.66,2.43,21.14-1.31,3.78-2.19,6.11-4.73,6.11-7.21v-1.76l0,0c0,2.48-2.32,5-6.09,7.21a26.71,26.71,0,0,1-9.17,3.26c-4.1.63-7.86-1.9-9.56-5.68-1-2.09-3.25-4.16-7.82-5.93-3.55-1.37-7.06-2.36-9.25-1.67a3.87,3.87,0,0,1-5.08-2.49,4.59,4.59,0,0,1-.13-1.1Z"/></g><g class="cls-9"><path class="cls-12" d="M1075.21,359.58a3.1,3.1,0,0,1,3.14.31,9.79,9.79,0,0,1,4,5.3l-2.35,1.37a9.82,9.82,0,0,0-4-5.31,3.12,3.12,0,0,0-3.14-.3Z"/><path class="cls-15" d="M1080,366.56l-8-4.65c.7-1.36,2.24-1.69,4-.66A9.78,9.78,0,0,1,1080,366.56Z"/></g></g><g id="User"><path class="cls-15" d="M1596.39,139.84c-5.81,3.37-9.41,10.54-9.44,20.72l-.13,5.25,10.79-6.27.14-5.27c0-10.16,3.63-17.33,9.44-20.7Z"/><path class="cls-14" d="M1586.71,162.22c2.49-16.51,50.91-17.38,59.32-3.63,9.77,16,1.8,65.14,4.19,53.77,0,0-.11.4-.26,1.16-.77,3.77-3.68,3.95-.52,14.4l-20.62,37.85-33.41-1.92s-3.09-13.08-3.29-23c-3.43-3.32-.16-12.37-1-24.55a235.59,235.59,0,0,1-2.38-24.17C1584.54,181.07,1584.36,175.09,1586.71,162.22Z"/><path class="cls-3" d="M1588.7,192.12s-3.47-23.64,2.54-34.27a2.07,2.07,0,0,1,3.26-.47c4.92,5,10,8.62,20,10.09a57.79,57.79,0,0,0,14-.07c6.26-.61,21.32,2.77,19.9,41l3.43-1s37.83-83.62-30.1-77c-19.4,1.89-23.24,6.76-28.47,11.95-3.9,3.88-6.22,10.1-6.24,18.24C1587,160.55,1580.73,178.42,1588.7,192.12Z"/><path class="cls-4" d="M1553.83,293.4c3,31,15.44,42.39,37.19,56l.17.11c57.83,32.3,87.34,18.42,101.12,11.81a13.06,13.06,0,0,0,7.44-11.81l-1-52.22a60.69,60.69,0,0,0-24.6-48.7c-9.77-7.25-18.65-12.48-18.65-12.48-17.2,3.4-28.77,31.6-49.13,26.77-16.76-4-15.32-46.56-15.32-46.56C1543.85,192.47,1553.83,293.4,1553.83,293.4Z"/><path class="cls-6" d="M1587.58,346.13l-.26.49c2.33,1.78,3.87,2.86,3.87,2.86,19.74-23,64.34-113.4,64.34-113.4-5,1-9.56,9.23-13.89,9.29-18.27,19-33.44,10.24-33.44,10.24-13.23-7.53-18.52-21.44-19.44-32.22-.58-.23-1.12-.38-1.67-.56C1570.41,299.66,1587.58,346.13,1587.58,346.13Z"/><polygon class="cls-16" points="1621.51 263.12 1608.25 274.17 1604.45 332 1591.19 349.48 1587.32 346.62 1583.82 322.98 1601.38 270.3 1592.43 246.71 1621.51 263.12"/><path class="cls-17" d="M1582.47,234.18c-1.4,10,7.75,30.82,7.75,30.82,5,0,18-9.39,18-9.39-18-18.29-17.12-39.32-17.12-39.32C1589.36,225.12,1583.86,224.12,1582.47,234.18Z"/><path class="cls-17" d="M1618.92,277.18c-7.66-6.94-10.72-21.57-10.72-21.57,24.16,1.4,41.24-27.69,41.24-27.69a33.08,33.08,0,0,0,6.09,8.16C1645,263.46,1618.92,277.18,1618.92,277.18Z"/><path class="cls-3" d="M1655.53,236.08l-64.34,113.4,51-47.82-4.29-15.51h16.18C1668.36,263.64,1655.53,236.08,1655.53,236.08Z"/><path class="cls-3" d="M1578,262.64l-10.19,7.53c0,18.1,19.81,76,19.81,76-5.57-49.46,3.5-129.84,3.5-129.84-17.11,19.2-21.89,32.94-21.89,32.94Z"/></g></g><g id="Arrows"><g id="From_Dev" data-name="From Dev"><g class="cls-9"><g class="cls-9"><g class="cls-18"><g class="cls-9"><path class="cls-19" d="M316.19,704.38,293.39,692a3.36,3.36,0,0,1-1.65-3l22.8,12.4a3.32,3.32,0,0,0,1.65,3"/></g></g></g><polygon class="cls-20" points="314.54 701.36 291.74 688.96 292.18 455.95 314.97 468.35 314.54 701.36"/><polygon class="cls-21" points="314.97 468.35 292.18 455.95 299.3 454.95 322.09 467.35 314.97 468.35"/><path class="cls-22" d="M322.09,467.35l-.43,233a4.42,4.42,0,0,1-3.57,4.35,3.13,3.13,0,0,1-3.55-3.34l.43-233Z"/></g><g class="cls-9"><polygon class="cls-23" points="297.23 470.84 274.43 458.44 295.81 415.63 318.61 428.03 297.23 470.84"/><polygon class="cls-22" points="318.61 428.03 339.83 464.86 322.09 467.35 314.97 468.35 297.23 470.84 318.61 428.03"/></g></g><g id="To_Client" data-name="To Client"><g class="cls-9"><polygon class="cls-24" points="885.73 256.33 874.86 243.38 876.41 219.31 887.27 232.25 885.73 256.33"/><polygon class="cls-24" points="887.27 232.25 876.41 219.31 877.03 209.66 887.9 222.6 887.27 232.25"/><polygon class="cls-25" points="889.45 198.52 938.05 227.63 885.73 256.33 887.27 232.25 887.9 222.6 889.45 198.52"/><polygon class="cls-26" points="889.45 198.52 878.58 185.58 927.19 214.69 938.05 227.63 889.45 198.52"/><polygon class="cls-24" points="887.9 222.6 877.03 209.66 878.58 185.58 889.45 198.52 887.9 222.6"/><polygon class="cls-21" points="462.99 220.87 452.12 207.93 877.03 209.66 887.9 222.6 462.99 220.87"/><g class="cls-9"><g class="cls-27"><g class="cls-9"><path class="cls-19" d="M458.85,228.91,448,216a4.53,4.53,0,0,1-1-3.23,5.09,5.09,0,0,1,1.24-3L459,222.7a5.15,5.15,0,0,0-1.24,3,4.59,4.59,0,0,0,1.05,3.23"/><path class="cls-28" d="M459,222.7l-10.86-12.94a4.76,4.76,0,0,1,.55-.55l10.86,12.94a4.76,4.76,0,0,0-.55.55"/><path class="cls-29" d="M459.59,222.15l-10.86-12.94a6.12,6.12,0,0,1,.5-.39l10.87,12.94a4.91,4.91,0,0,0-.51.39"/><path class="cls-30" d="M460.1,221.76l-10.87-12.94c.17-.11.33-.21.5-.3l10.87,12.94a5.09,5.09,0,0,0-.5.3"/><path class="cls-31" d="M460.6,221.46l-10.87-12.94a4.9,4.9,0,0,1,.52-.24l10.87,12.94a4.9,4.9,0,0,0-.52.24"/><path class="cls-32" d="M461.12,221.22l-10.87-12.94a5.22,5.22,0,0,1,.56-.18L461.67,221a5.05,5.05,0,0,0-.55.18"/><path class="cls-33" d="M461.67,221,450.81,208.1a4.13,4.13,0,0,1,.63-.13l10.86,12.94a4.7,4.7,0,0,0-.63.13"/><path class="cls-34" d="M462.3,220.91,451.44,208a5.06,5.06,0,0,1,.68-.05l10.87,13a5.32,5.32,0,0,0-.69,0"/></g></g></g><path class="cls-25" d="M463,220.87,887.9,222.6l-.63,9.65-424.9-1.73a4.52,4.52,0,0,1-4.57-4.84A5.23,5.23,0,0,1,463,220.87Z"/></g></g><g id="To_Server" data-name="To Server"><g class="cls-9"><g class="cls-9"><g class="cls-35"><g class="cls-9"><path class="cls-34" d="M938.35,304.84,927.49,291.9h.15l10.86,12.94h-.15"/><path class="cls-36" d="M938.5,304.84,927.64,291.9a4.66,4.66,0,0,1,2.66.92l10.86,12.94a4.61,4.61,0,0,0-2.66-.92"/><path class="cls-34" d="M941.16,305.76,930.3,292.82a4.07,4.07,0,0,1,.58.52l10.86,12.94a3.59,3.59,0,0,0-.58-.52"/><path class="cls-33" d="M941.74,306.28l-10.86-12.94.16.18,10.86,12.94-.16-.18"/></g></g></g><polygon class="cls-24" points="499.08 315.36 488.22 302.42 488.78 292.76 499.64 305.7 499.08 315.36"/><polygon class="cls-21" points="499.64 305.7 488.78 292.76 927.49 291.9 938.35 304.84 499.64 305.7"/><path class="cls-25" d="M938.35,304.84a4.51,4.51,0,0,1,4.59,4.82,5.23,5.23,0,0,1-5.16,4.84l-438.7.86.57-9.66Z"/><polygon class="cls-32" points="448.87 310.63 438.01 297.69 490.18 268.7 501.05 281.64 448.87 310.63"/><polygon class="cls-25" points="501.05 281.64 499.64 305.7 499.08 315.36 497.68 339.43 448.87 310.63 501.05 281.64"/></g></g><g id="To_User" data-name="To User"><g class="cls-9"><polygon class="cls-24" points="1447.38 314.81 1436.51 301.87 1437.79 278.77 1448.65 291.71 1447.38 314.81"/><polygon class="cls-24" points="1448.65 291.71 1437.79 278.77 1438.32 269.11 1449.19 282.06 1448.65 291.71"/><polygon class="cls-25" points="1450.46 258.95 1497.73 286.65 1447.38 314.81 1448.65 291.71 1449.19 282.06 1450.46 258.95"/><polygon class="cls-26" points="1450.46 258.95 1439.6 246.01 1486.87 273.71 1497.73 286.65 1450.46 258.95"/><polygon class="cls-24" points="1449.19 282.06 1438.32 269.11 1439.6 246.01 1450.46 258.95 1449.19 282.06"/><polygon class="cls-21" points="1300.15 282.78 1289.29 269.84 1438.32 269.11 1449.19 282.06 1300.15 282.78"/><g class="cls-9"><g class="cls-37"><g class="cls-9"><path class="cls-19" d="M1296.05,290.82l-10.87-12.94a4.54,4.54,0,0,1-1-3.19,5,5,0,0,1,1.23-3l10.87,12.94a5,5,0,0,0-1.23,3,4.49,4.49,0,0,0,1,3.19"/><path class="cls-28" d="M1296.24,284.62l-10.87-12.94a5.71,5.71,0,0,1,.55-.55l10.86,12.94a5.62,5.62,0,0,0-.54.55"/><path class="cls-29" d="M1296.78,284.07l-10.86-12.94c.16-.14.33-.27.51-.4l10.86,12.95q-.26.18-.51.39"/><path class="cls-30" d="M1297.29,283.68l-10.86-12.95c.16-.1.33-.21.5-.3l10.87,12.94-.51.31"/><path class="cls-31" d="M1297.8,283.37l-10.87-12.94.52-.23,10.87,12.94-.52.23"/><path class="cls-32" d="M1298.32,283.14l-10.87-12.94a3.69,3.69,0,0,1,.56-.19L1298.87,283a5.1,5.1,0,0,0-.55.19"/><path class="cls-33" d="M1298.87,283,1288,270c.21-.05.42-.1.63-.13l10.87,12.95a4.52,4.52,0,0,0-.64.12"/><path class="cls-34" d="M1299.51,282.83l-10.87-12.95c.21,0,.43,0,.64,0l10.87,12.94a4.48,4.48,0,0,0-.64.05"/></g></g></g><path class="cls-25" d="M1449.19,282.06l-.54,9.65-149,.73a4.51,4.51,0,0,1-4.6-4.81,5.22,5.22,0,0,1,5.14-4.85Z"/></g></g></g><g id="Text"><text class="cls-38" transform="translate(242.72 88.83)">Se<tspan class="cls-39" x="44.92" y="0">r</tspan><tspan class="cls-40" x="58.81" y="0">v</tspan><tspan x="77.93" y="0">er</tspan></text><text class="cls-38" transform="translate(178.2 1016.17)">D<tspan class="cls-40" x="26.23" y="0">ev</tspan><tspan x="66.29" y="0">eloper Machine</tspan></text><text class="cls-38" transform="translate(1001.14 88.83)">User Machine</text><text class="cls-38" transform="translate(1580.4 88.83)">User</text><text class="cls-41" transform="translate(552.3 369.17)">Client Requests Site</text><text class="cls-41" transform="translate(1302.33 246.17)">Content</text></g><g id="CSR-2" data-name="CSR"><g id="CSR-3" data-name="CSR"><g class="cls-9"><polygon class="cls-20" points="1288.12 390.83 1280.31 391.84 1288.53 386.07 1296.33 385.06 1288.12 390.83"/><g class="cls-9"><g class="cls-42"><g class="cls-9"><path class="cls-28" d="M1164.69,619.38l-7.81,1a156.61,156.61,0,0,0,37.71-9.75l7.8-1a156.53,156.53,0,0,1-37.7,9.75"/><path class="cls-19" d="M1202.39,609.63l-7.8,1a158.91,158.91,0,0,0,56.48-38.22,163,163,0,0,0,29.24-180.58l7.81-1a163.07,163.07,0,0,1-29.25,180.58,158.91,158.91,0,0,1-56.48,38.22"/></g></g></g><polygon class="cls-43" points="1263.23 345.17 1316.73 370.75 1296.33 385.06 1288.12 390.83 1268.24 404.79 1263.23 345.17"/><polygon class="cls-24" points="1268.24 404.79 1260.43 405.8 1255.42 346.18 1263.23 345.17 1268.24 404.79"/><g class="cls-9"><g class="cls-44"><g class="cls-9"><path class="cls-19" d="M1166,629.3l-7.8,1a168.32,168.32,0,0,1-139.49-46.76A173.16,173.16,0,0,1,994,366.31a4.87,4.87,0,0,1,2.32-1.91l7.8-1a4.87,4.87,0,0,0-2.32,1.91,173.16,173.16,0,0,0,24.73,217.23A168.51,168.51,0,0,0,1166,629.3"/><path class="cls-28" d="M1004.07,363.39l-7.8,1a5.26,5.26,0,0,1,1.18-.31l7.8-1a5.4,5.4,0,0,0-1.18.31"/></g></g></g><path class="cls-43" d="M1005.79,363.05a4.83,4.83,0,0,1,2.8.82,5,5,0,0,1,1.44,6.92,163.1,163.1,0,0,0,23.28,204.56,158.15,158.15,0,0,0,225.56-3.94,163.07,163.07,0,0,0,29.25-180.58l8.21-5.77A173.11,173.11,0,0,1,1266,578.35a167.91,167.91,0,0,1-239.51,4.18,173.16,173.16,0,0,1-24.73-217.23A4.88,4.88,0,0,1,1005.79,363.05Z"/></g></g><text class="cls-41" transform="translate(1101.32 454.17)">React <tspan x="-26.79" y="38.4">P</tspan><tspan class="cls-45" x="-6.6" y="38.4">r</tspan><tspan x="3.91" y="38.4">oduces </tspan><tspan class="cls-46" x="-2.67" y="76.8">H</tspan><tspan x="19.69" y="76.8">TML</tspan></text><text class="cls-41" transform="translate(605.82 178.17)">React Code</text><text class="cls-41" transform="translate(161.32 536.17)">React <tspan x="5.63" y="38.4">code</tspan><tspan x="-33.66" y="76.8">index.html</tspan></text></g></g></svg>