<svg xmlns="http://www.w3.org/2000/svg" xmlns:xlink="http://www.w3.org/1999/xlink" viewBox="0 0 1920 1080"><defs><style>.cls-1{fill:none;}.cls-2{fill:#1b2a4f;}.cls-3{fill:#384e85;}.cls-4{fill:#2e4277;}.cls-5{fill:#3955d1;}.cls-6{fill:#6bb5fb;}.cls-7,.cls-8{fill:#4466fb;}.cls-8{opacity:0.3;}.cls-8,.cls-9{isolation:isolate;}.cls-10{fill:#b7c5fd;}.cls-11{fill:#798ffe;}.cls-12{fill:#aabafd;}.cls-13{fill:#fff;}.cls-14{fill:#d9ddf6;}.cls-15{fill:#9aadfd;}.cls-16{fill:#2b3c67;}.cls-17{fill:#8fccff;}.cls-18{clip-path:url(#clip-path);}.cls-19{fill:#213b6e;}.cls-20{fill:#213a6c;}.cls-21{fill:#2d5095;}.cls-22{fill:#3863b8;}.cls-23{fill:#26427c;}.cls-24{fill:#20396a;}.cls-25{fill:#3660b3;}.cls-26{fill:#2c4e92;}.cls-27{clip-path:url(#clip-path-2);}.cls-28{fill:#233d72;}.cls-29{fill:#243f76;}.cls-30{fill:#25427a;}.cls-31{fill:#26447f;}.cls-32{fill:#284683;}.cls-33{fill:#294887;}.cls-34{fill:#2a4b8b;}.cls-35{clip-path:url(#clip-path-3);}.cls-36{fill:#2c4d8f;}.cls-37{clip-path:url(#clip-path-4);}.cls-38{font-size:40px;}.cls-38,.cls-41{font-family:Roboto-Regular, Roboto;}.cls-39{letter-spacing:0.01em;}.cls-40{letter-spacing:-0.01em;}.cls-41{font-size:32px;}.cls-42{clip-path:url(#clip-path-5);}.cls-43{clip-path:url(#clip-path-6);}.cls-44{clip-path:url(#clip-path-7);}.cls-45{fill:#3a66bf;}.cls-46{letter-spacing:-0.01em;}.cls-47{letter-spacing:-0.01em;}</style><clipPath id="clip-path"><path class="cls-1" d="M316.14,704.38,293.35,692a3.31,3.31,0,0,1-1.65-3l22.79,12.4A3.36,3.36,0,0,0,316.14,704.38Z"/></clipPath><clipPath id="clip-path-2"><path class="cls-1" d="M458.8,228.91,447.94,216a4.53,4.53,0,0,1-1-3.23,5.22,5.22,0,0,1,5.18-4.81l10.86,12.94a5.22,5.22,0,0,0-5.18,4.81A4.53,4.53,0,0,0,458.8,228.91Z"/></clipPath><clipPath id="clip-path-3"><path class="cls-1" d="M931,293.52l10.86,12.94a4.58,4.58,0,0,0-3.55-1.62L927.44,291.9A4.56,4.56,0,0,1,931,293.52Z"/></clipPath><clipPath id="clip-path-4"><path class="cls-1" d="M1296,290.82l-10.87-12.94a4.54,4.54,0,0,1-1-3.19,5.23,5.23,0,0,1,5.14-4.85l10.87,12.94a5.24,5.24,0,0,0-5.15,4.85A4.55,4.55,0,0,0,1296,290.82Z"/></clipPath><clipPath id="clip-path-5"><path class="cls-1" d="M604.48,1010.43l-7.8,1a159,159,0,0,0,116.41-77.26,162.88,162.88,0,0,0,5.7-154.37,159.89,159.89,0,0,0-146.21-90.06A155.73,155.73,0,0,0,555.24,691l7.81-1a155.38,155.38,0,0,1,17.33-1.27A159.9,159.9,0,0,1,726.6,778.81a162.9,162.9,0,0,1-5.71,154.36,159,159,0,0,1-116.41,77.26Z"/></clipPath><clipPath id="clip-path-6"><path class="cls-1" d="M605.76,1020.34l-7.81,1a165.36,165.36,0,0,1-18.41,1.35,167.07,167.07,0,0,1-26.48-1.65,5,5,0,0,1,0-9.9l7.81-1a4.94,4.94,0,0,0-4.25,4.26,5,5,0,0,0,4.22,5.65,168.13,168.13,0,0,0,26.47,1.64A165.54,165.54,0,0,0,605.76,1020.34Z"/></clipPath><clipPath id="clip-path-7"><path class="cls-1" d="M554,681.1l7.81-1A168.81,168.81,0,0,0,452,742l-7.8,1A168.82,168.82,0,0,1,554,681.1Z"/></clipPath></defs><title>Artboard 4</title><g id="SSG"><g id="Icons"><g id="Server"><polygon class="cls-2" points="299.89 379.95 231.08 339.96 230.99 171.89 299.8 208.27 299.89 379.95"/><polygon class="cls-3" points="299.8 211.88 230.99 171.89 298.06 133.17 366.88 173.16 299.8 211.88"/><polygon class="cls-4" points="366.88 173.16 366.96 341.23 299.89 379.95 299.8 211.88 366.88 173.16"/><polygon class="cls-3" points="358.85 336.16 303.94 367.86 303.94 372.93 362.91 338.88 362.83 180.18 358.78 182.52 358.85 336.16"/><polygon class="cls-2" points="303.86 214.22 303.94 367.86 358.85 336.16 358.78 182.52 303.86 214.22"/><polygon class="cls-4" points="353.24 193.85 353.3 212.06 308.06 238.18 308.01 219.97 353.24 193.85"/><polygon class="cls-5" points="342.38 217.23 340.74 216.28 340.68 204.57 342.31 205.52 342.38 217.23"/><polygon class="cls-6" points="342.31 205.52 340.68 204.57 343.55 202.91 345.18 203.86 342.31 205.52"/><polygon class="cls-7" points="345.18 203.86 345.24 215.58 342.38 217.23 342.31 205.52 345.18 203.86"/><polygon class="cls-5" points="336.53 220.61 334.89 219.66 334.83 207.94 336.47 208.89 336.53 220.61"/><polygon class="cls-6" points="336.47 208.89 334.83 207.94 337.7 206.29 339.33 207.24 336.47 208.89"/><polygon class="cls-7" points="339.33 207.24 339.39 218.95 336.53 220.61 336.47 208.89 339.33 207.24"/><polygon class="cls-5" points="330.68 223.99 329.05 223.03 328.99 211.32 330.62 212.27 330.68 223.99"/><polygon class="cls-6" points="330.62 212.27 328.99 211.32 331.85 209.66 333.49 210.62 330.62 212.27"/><polygon class="cls-7" points="333.49 210.62 333.55 222.33 330.68 223.99 330.62 212.27 333.49 210.62"/><polygon class="cls-5" points="324.83 227.36 323.2 226.41 323.14 214.7 324.77 215.65 324.83 227.36"/><polygon class="cls-6" points="324.77 215.65 323.14 214.7 326 213.04 327.64 213.99 324.77 215.65"/><polygon class="cls-7" points="327.64 213.99 327.7 225.71 324.83 227.36 324.77 215.65 327.64 213.99"/><polygon class="cls-5" points="318.99 230.74 317.35 229.79 317.29 218.07 318.93 219.02 318.99 230.74"/><polygon class="cls-6" points="318.93 219.02 317.29 218.07 320.16 216.42 321.79 217.37 318.93 219.02"/><polygon class="cls-7" points="321.79 217.37 321.85 229.08 318.99 230.74 318.93 219.02 321.79 217.37"/><polygon class="cls-5" points="313.14 234.11 311.5 233.16 311.44 221.45 313.08 222.4 313.14 234.11"/><polygon class="cls-6" points="313.08 222.4 311.44 221.45 314.31 219.79 315.94 220.74 313.08 222.4"/><polygon class="cls-7" points="315.94 220.74 316 232.46 313.14 234.11 313.08 222.4 315.94 220.74"/><polygon class="cls-5" points="348.22 213.86 346.59 212.91 346.53 201.19 348.16 202.14 348.22 213.86"/><polygon class="cls-6" points="348.16 202.14 346.53 201.19 349.39 199.54 351.03 200.49 348.16 202.14"/><polygon class="cls-7" points="351.03 200.49 351.09 212.2 348.22 213.86 348.16 202.14 351.03 200.49"/><polygon class="cls-4" points="353.24 218.07 353.3 236.28 308.06 262.4 308.01 244.19 353.24 218.07"/><polygon class="cls-5" points="342.38 241.46 340.74 240.51 340.68 228.79 342.31 229.74 342.38 241.46"/><polygon class="cls-6" points="342.31 229.74 340.68 228.79 343.55 227.14 345.18 228.09 342.31 229.74"/><polygon class="cls-7" points="345.18 228.09 345.24 239.8 342.38 241.46 342.31 229.74 345.18 228.09"/><polygon class="cls-5" points="336.53 244.83 334.89 243.88 334.83 232.17 336.47 233.12 336.53 244.83"/><polygon class="cls-6" points="336.47 233.12 334.83 232.17 337.7 230.51 339.33 231.46 336.47 233.12"/><polygon class="cls-7" points="339.33 231.46 339.39 243.18 336.53 244.83 336.47 233.12 339.33 231.46"/><polygon class="cls-5" points="330.68 248.21 329.05 247.26 328.99 235.54 330.62 236.5 330.68 248.21"/><polygon class="cls-6" points="330.62 236.5 328.99 235.54 331.85 233.89 333.49 234.84 330.62 236.5"/><polygon class="cls-7" points="333.49 234.84 333.55 246.56 330.68 248.21 330.62 236.5 333.49 234.84"/><polygon class="cls-5" points="324.83 251.59 323.2 250.64 323.14 238.92 324.77 239.87 324.83 251.59"/><polygon class="cls-6" points="324.77 239.87 323.14 238.92 326 237.27 327.64 238.22 324.77 239.87"/><polygon class="cls-7" points="327.64 238.22 327.7 249.93 324.83 251.59 324.77 239.87 327.64 238.22"/><polygon class="cls-5" points="318.99 254.96 317.35 254.01 317.29 242.3 318.93 243.25 318.99 254.96"/><polygon class="cls-6" points="318.93 243.25 317.29 242.3 320.16 240.64 321.79 241.59 318.93 243.25"/><polygon class="cls-7" points="321.79 241.59 321.85 253.31 318.99 254.96 318.93 243.25 321.79 241.59"/><polygon class="cls-5" points="313.14 258.34 311.5 257.39 311.44 245.67 313.08 246.62 313.14 258.34"/><polygon class="cls-6" points="313.08 246.62 311.44 245.67 314.31 244.02 315.94 244.97 313.08 246.62"/><polygon class="cls-7" points="315.94 244.97 316 256.68 313.14 258.34 313.08 246.62 315.94 244.97"/><polygon class="cls-5" points="348.22 238.08 346.59 237.13 346.53 225.42 348.16 226.37 348.22 238.08"/><polygon class="cls-6" points="348.16 226.37 346.53 225.42 349.39 223.76 351.03 224.71 348.16 226.37"/><polygon class="cls-7" points="351.03 224.71 351.09 236.43 348.22 238.08 348.16 226.37 351.03 224.71"/><polygon class="cls-4" points="353.24 242.3 353.3 260.51 308.06 286.63 308.01 268.42 353.24 242.3"/><polygon class="cls-5" points="342.38 265.68 340.74 264.73 340.68 253.02 342.31 253.97 342.38 265.68"/><polygon class="cls-6" points="342.31 253.97 340.68 253.02 343.55 251.36 345.18 252.31 342.31 253.97"/><polygon class="cls-7" points="345.18 252.31 345.24 264.03 342.38 265.68 342.31 253.97 345.18 252.31"/><polygon class="cls-5" points="336.53 269.06 334.89 268.11 334.83 256.39 336.47 257.34 336.53 269.06"/><polygon class="cls-6" points="336.47 257.34 334.83 256.39 337.7 254.74 339.33 255.69 336.47 257.34"/><polygon class="cls-7" points="339.33 255.69 339.39 267.4 336.53 269.06 336.47 257.34 339.33 255.69"/><polygon class="cls-5" points="330.68 272.44 329.05 271.49 328.99 259.77 330.62 260.72 330.68 272.44"/><polygon class="cls-6" points="330.62 260.72 328.99 259.77 331.85 258.12 333.49 259.07 330.62 260.72"/><polygon class="cls-7" points="333.49 259.07 333.55 270.78 330.68 272.44 330.62 260.72 333.49 259.07"/><polygon class="cls-5" points="324.83 275.81 323.2 274.86 323.14 263.15 324.77 264.1 324.83 275.81"/><polygon class="cls-6" points="324.77 264.1 323.14 263.15 326 261.49 327.64 262.44 324.77 264.1"/><polygon class="cls-7" points="327.64 262.44 327.7 274.16 324.83 275.81 324.77 264.1 327.64 262.44"/><polygon class="cls-5" points="318.99 279.19 317.35 278.24 317.29 266.52 318.93 267.47 318.99 279.19"/><polygon class="cls-6" points="318.93 267.47 317.29 266.52 320.16 264.87 321.79 265.82 318.93 267.47"/><polygon class="cls-7" points="321.79 265.82 321.85 277.53 318.99 279.19 318.93 267.47 321.79 265.82"/><polygon class="cls-5" points="313.14 282.56 311.5 281.61 311.44 269.9 313.08 270.85 313.14 282.56"/><polygon class="cls-6" points="313.08 270.85 311.44 269.9 314.31 268.24 315.94 269.19 313.08 270.85"/><polygon class="cls-7" points="315.94 269.19 316 280.91 313.14 282.56 313.08 270.85 315.94 269.19"/><polygon class="cls-5" points="348.22 262.31 346.59 261.36 346.53 249.64 348.16 250.59 348.22 262.31"/><polygon class="cls-6" points="348.16 250.59 346.53 249.64 349.39 247.99 351.03 248.94 348.16 250.59"/><polygon class="cls-7" points="351.03 248.94 351.09 260.65 348.22 262.31 348.16 250.59 351.03 248.94"/><polygon class="cls-4" points="353.24 266.52 353.3 284.73 308.06 310.85 308.01 292.64 353.24 266.52"/><polygon class="cls-5" points="342.38 289.91 340.74 288.96 340.68 277.24 342.31 278.19 342.38 289.91"/><polygon class="cls-6" points="342.31 278.19 340.68 277.24 343.55 275.59 345.18 276.54 342.31 278.19"/><polygon class="cls-7" points="345.18 276.54 345.24 288.25 342.38 289.91 342.31 278.19 345.18 276.54"/><polygon class="cls-5" points="336.53 293.28 334.89 292.33 334.83 280.62 336.47 281.57 336.53 293.28"/><polygon class="cls-6" points="336.47 281.57 334.83 280.62 337.7 278.96 339.33 279.92 336.47 281.57"/><polygon class="cls-7" points="339.33 279.92 339.39 291.63 336.53 293.28 336.47 281.57 339.33 279.92"/><polygon class="cls-5" points="330.68 296.66 329.05 295.71 328.99 284 330.62 284.94 330.68 296.66"/><polygon class="cls-6" points="330.62 284.94 328.99 284 331.85 282.34 333.49 283.29 330.62 284.94"/><polygon class="cls-7" points="333.49 283.29 333.55 295.01 330.68 296.66 330.62 284.94 333.49 283.29"/><polygon class="cls-5" points="324.83 300.04 323.2 299.09 323.14 287.37 324.77 288.32 324.83 300.04"/><polygon class="cls-6" points="324.77 288.32 323.14 287.37 326 285.72 327.64 286.67 324.77 288.32"/><polygon class="cls-7" points="327.64 286.67 327.7 298.38 324.83 300.04 324.77 288.32 327.64 286.67"/><polygon class="cls-5" points="318.99 303.41 317.35 302.46 317.29 290.75 318.93 291.7 318.99 303.41"/><polygon class="cls-6" points="318.93 291.7 317.29 290.75 320.16 289.09 321.79 290.04 318.93 291.7"/><polygon class="cls-7" points="321.79 290.04 321.85 301.76 318.99 303.41 318.93 291.7 321.79 290.04"/><polygon class="cls-5" points="313.14 306.79 311.5 305.84 311.44 294.12 313.08 295.07 313.14 306.79"/><polygon class="cls-6" points="313.08 295.07 311.44 294.12 314.31 292.47 315.94 293.42 313.08 295.07"/><polygon class="cls-7" points="315.94 293.42 316 305.13 313.14 306.79 313.08 295.07 315.94 293.42"/><polygon class="cls-5" points="348.22 286.53 346.59 285.58 346.53 273.87 348.16 274.82 348.22 286.53"/><polygon class="cls-6" points="348.16 274.82 346.53 273.87 349.39 272.21 351.03 273.16 348.16 274.82"/><polygon class="cls-7" points="351.03 273.16 351.09 284.88 348.22 286.53 348.16 274.82 351.03 273.16"/><polygon class="cls-4" points="353.24 290.75 353.3 308.96 308.06 335.08 308.01 316.87 353.24 290.75"/><polygon class="cls-5" points="342.38 314.13 340.74 313.18 340.68 301.47 342.31 302.42 342.38 314.13"/><polygon class="cls-6" points="342.31 302.42 340.68 301.47 343.55 299.81 345.18 300.76 342.31 302.42"/><polygon class="cls-7" points="345.18 300.76 345.24 312.48 342.38 314.13 342.31 302.42 345.18 300.76"/><polygon class="cls-5" points="336.53 317.51 334.89 316.56 334.83 304.85 336.47 305.8 336.53 317.51"/><polygon class="cls-6" points="336.47 305.8 334.83 304.85 337.7 303.19 339.33 304.14 336.47 305.8"/><polygon class="cls-7" points="339.33 304.14 339.39 315.86 336.53 317.51 336.47 305.8 339.33 304.14"/><polygon class="cls-5" points="330.68 320.89 329.05 319.94 328.99 308.22 330.62 309.17 330.68 320.89"/><polygon class="cls-6" points="330.62 309.17 328.99 308.22 331.85 306.57 333.49 307.52 330.62 309.17"/><polygon class="cls-7" points="333.49 307.52 333.55 319.23 330.68 320.89 330.62 309.17 333.49 307.52"/><polygon class="cls-5" points="324.83 324.26 323.2 323.31 323.14 311.6 324.77 312.55 324.83 324.26"/><polygon class="cls-6" points="324.77 312.55 323.14 311.6 326 309.94 327.64 310.89 324.77 312.55"/><polygon class="cls-7" points="327.64 310.89 327.7 322.61 324.83 324.26 324.77 312.55 327.64 310.89"/><polygon class="cls-5" points="318.99 327.64 317.35 326.69 317.29 314.97 318.93 315.92 318.99 327.64"/><polygon class="cls-6" points="318.93 315.92 317.29 314.97 320.16 313.32 321.79 314.27 318.93 315.92"/><polygon class="cls-7" points="321.79 314.27 321.85 325.98 318.99 327.64 318.93 315.92 321.79 314.27"/><polygon class="cls-5" points="313.14 331.01 311.5 330.06 311.44 318.35 313.08 319.3 313.14 331.01"/><polygon class="cls-6" points="313.08 319.3 311.44 318.35 314.31 316.69 315.94 317.64 313.08 319.3"/><polygon class="cls-7" points="315.94 317.64 316 329.36 313.14 331.01 313.08 319.3 315.94 317.64"/><polygon class="cls-5" points="348.22 310.76 346.59 309.81 346.53 298.09 348.16 299.04 348.22 310.76"/><polygon class="cls-6" points="348.16 299.04 346.53 298.09 349.39 296.44 351.03 297.39 348.16 299.04"/><polygon class="cls-7" points="351.03 297.39 351.09 309.1 348.22 310.76 348.16 299.04 351.03 297.39"/><polygon class="cls-4" points="353.24 314.97 353.3 333.18 308.06 359.3 308.01 341.09 353.24 314.97"/><polygon class="cls-5" points="342.38 338.36 340.74 337.41 340.68 325.69 342.31 326.64 342.38 338.36"/><polygon class="cls-6" points="342.31 326.64 340.68 325.69 343.55 324.04 345.18 324.99 342.31 326.64"/><polygon class="cls-7" points="345.18 324.99 345.24 336.7 342.38 338.36 342.31 326.64 345.18 324.99"/><polygon class="cls-5" points="336.53 341.74 334.89 340.79 334.83 329.07 336.47 330.02 336.53 341.74"/><polygon class="cls-6" points="336.47 330.02 334.83 329.07 337.7 327.42 339.33 328.37 336.47 330.02"/><polygon class="cls-7" points="339.33 328.37 339.39 340.08 336.53 341.74 336.47 330.02 339.33 328.37"/><polygon class="cls-5" points="330.68 345.11 329.05 344.16 328.99 332.45 330.62 333.4 330.68 345.11"/><polygon class="cls-6" points="330.62 333.4 328.99 332.45 331.85 330.79 333.49 331.74 330.62 333.4"/><polygon class="cls-7" points="333.49 331.74 333.55 343.46 330.68 345.11 330.62 333.4 333.49 331.74"/><polygon class="cls-5" points="324.83 348.49 323.2 347.54 323.14 335.82 324.77 336.77 324.83 348.49"/><polygon class="cls-6" points="324.77 336.77 323.14 335.82 326 334.17 327.64 335.12 324.77 336.77"/><polygon class="cls-7" points="327.64 335.12 327.7 346.83 324.83 348.49 324.77 336.77 327.64 335.12"/><polygon class="cls-5" points="318.99 351.86 317.35 350.91 317.29 339.2 318.93 340.15 318.99 351.86"/><polygon class="cls-6" points="318.93 340.15 317.29 339.2 320.16 337.54 321.79 338.49 318.93 340.15"/><polygon class="cls-7" points="321.79 338.49 321.85 350.21 318.99 351.86 318.93 340.15 321.79 338.49"/><polygon class="cls-5" points="313.14 355.24 311.5 354.29 311.44 342.57 313.08 343.52 313.14 355.24"/><polygon class="cls-6" points="313.08 343.52 311.44 342.57 314.31 340.92 315.94 341.87 313.08 343.52"/><polygon class="cls-7" points="315.94 341.87 316 353.58 313.14 355.24 313.08 343.52 315.94 341.87"/><polygon class="cls-5" points="348.22 334.98 346.59 334.03 346.53 322.32 348.16 323.27 348.22 334.98"/><polygon class="cls-6" points="348.16 323.27 346.53 322.32 349.39 320.66 351.03 321.61 348.16 323.27"/><polygon class="cls-7" points="351.03 321.61 351.09 333.33 348.22 334.98 348.16 323.27 351.03 321.61"/><path class="cls-3" d="M236.37,330c-.24-.14-.44,0-.44.25a1,1,0,0,0,.44.77l10.74,6.2c.25.14.45,0,.45-.26a1,1,0,0,0-.44-.76Z"/><path class="cls-3" d="M236.38,327.65c-.24-.14-.44,0-.44.26a1,1,0,0,0,.44.76l10.74,6.2c.24.14.44,0,.44-.25a1,1,0,0,0-.44-.77Z"/><path class="cls-3" d="M236.39,325.29c-.24-.14-.44,0-.44.25a.93.93,0,0,0,.44.76l10.74,6.21c.24.14.44,0,.44-.26a1,1,0,0,0-.44-.76Z"/><path class="cls-3" d="M236.39,322.92c-.24-.14-.44,0-.44.25a1,1,0,0,0,.44.77l10.74,6.2c.25.14.45,0,.45-.25a1,1,0,0,0-.44-.77Z"/><path class="cls-3" d="M236.41,318.19c-.24-.14-.44,0-.44.25a.93.93,0,0,0,.44.76l10.74,6.2c.24.14.44,0,.44-.25a1,1,0,0,0-.44-.76Z"/><path class="cls-3" d="M236.4,320.55c-.24-.13-.44,0-.44.26a1,1,0,0,0,.44.76l10.74,6.2c.24.14.44,0,.44-.25a1,1,0,0,0-.44-.76Z"/><path class="cls-3" d="M236.37,308.47a.27.27,0,0,0-.44.25,1,1,0,0,0,.44.77l10.74,6.2c.25.14.45,0,.45-.26a1,1,0,0,0-.44-.76Z"/><path class="cls-3" d="M236.38,306.1c-.24-.14-.44,0-.44.26a1,1,0,0,0,.44.76l10.74,6.21c.24.14.44,0,.44-.26a1,1,0,0,0-.44-.76Z"/><path class="cls-3" d="M236.39,303.74c-.24-.14-.44,0-.44.25a.94.94,0,0,0,.44.77l10.74,6.2a.27.27,0,0,0,.44-.25,1,1,0,0,0-.44-.77Z"/><path class="cls-3" d="M236.39,301.38c-.24-.14-.44,0-.44.25a1,1,0,0,0,.44.76l10.74,6.2c.25.14.45,0,.45-.25a1,1,0,0,0-.44-.76Z"/><path class="cls-3" d="M236.41,296.64c-.24-.14-.44,0-.44.25a.94.94,0,0,0,.44.77l10.74,6.2c.24.14.44,0,.44-.26a1,1,0,0,0-.44-.76Z"/><path class="cls-3" d="M236.4,299c-.24-.14-.44,0-.44.25a1,1,0,0,0,.44.76l10.74,6.2c.24.14.44,0,.44-.25a1,1,0,0,0-.44-.76Z"/><path class="cls-3" d="M236.37,286.92c-.24-.14-.44,0-.44.26a1,1,0,0,0,.44.76l10.74,6.21c.25.14.45,0,.45-.26a1,1,0,0,0-.44-.76Z"/><path class="cls-3" d="M236.38,284.56c-.24-.14-.44,0-.44.26a1,1,0,0,0,.44.76l10.74,6.2a.27.27,0,0,0,.44-.25,1,1,0,0,0-.44-.77Z"/><path class="cls-3" d="M236.39,282.2c-.24-.14-.44,0-.44.25a.93.93,0,0,0,.44.76l10.74,6.2c.24.14.44,0,.44-.25a1,1,0,0,0-.44-.76Z"/><path class="cls-3" d="M236.39,279.83c-.24-.14-.44,0-.44.25a1,1,0,0,0,.44.76l10.74,6.2c.25.14.45,0,.45-.25a1,1,0,0,0-.44-.76Z"/><path class="cls-3" d="M236.41,275.09c-.24-.14-.44,0-.44.26a.94.94,0,0,0,.44.76l10.74,6.2c.24.14.44,0,.44-.25a1,1,0,0,0-.44-.76Z"/><path class="cls-3" d="M236.4,277.46c-.24-.14-.44,0-.44.25a1,1,0,0,0,.44.77l10.74,6.2a.27.27,0,0,0,.44-.25,1,1,0,0,0-.44-.77Z"/><path class="cls-3" d="M236.37,265.38c-.24-.14-.44,0-.44.25a1,1,0,0,0,.44.77l10.74,6.2c.25.14.45,0,.45-.26a1,1,0,0,0-.44-.76Z"/><path class="cls-3" d="M236.38,263c-.24-.14-.44,0-.44.26a1,1,0,0,0,.44.76l10.74,6.2c.24.14.44,0,.44-.25a1,1,0,0,0-.44-.77Z"/><path class="cls-3" d="M236.39,260.65c-.24-.14-.44,0-.44.25a.93.93,0,0,0,.44.76l10.74,6.2c.24.14.44,0,.44-.25a1,1,0,0,0-.44-.76Z"/><path class="cls-3" d="M236.39,258.28c-.24-.14-.44,0-.44.25a1,1,0,0,0,.44.77l10.74,6.2c.25.14.45,0,.45-.25a1,1,0,0,0-.44-.77Z"/><path class="cls-3" d="M236.41,253.55c-.24-.14-.44,0-.44.25a.93.93,0,0,0,.44.76l10.74,6.2c.24.14.44,0,.44-.25a1,1,0,0,0-.44-.76Z"/><path class="cls-3" d="M236.4,255.91c-.24-.14-.44,0-.44.26a1,1,0,0,0,.44.76l10.74,6.2c.24.14.44,0,.44-.25a.94.94,0,0,0-.44-.76Z"/><path class="cls-3" d="M236.37,243.83c-.24-.14-.44,0-.44.25a1,1,0,0,0,.44.77l10.74,6.2c.25.14.45,0,.45-.26a1,1,0,0,0-.44-.76Z"/><path class="cls-3" d="M236.38,241.46c-.24-.14-.44,0-.44.26a1,1,0,0,0,.44.76l10.74,6.21c.24.13.44,0,.44-.26a1,1,0,0,0-.44-.77Z"/><path class="cls-3" d="M236.39,239.1c-.24-.14-.44,0-.44.25a.94.94,0,0,0,.44.77l10.74,6.2a.27.27,0,0,0,.44-.25,1,1,0,0,0-.44-.77Z"/><path class="cls-3" d="M236.39,236.73c-.24-.14-.44,0-.44.26a1,1,0,0,0,.44.76l10.74,6.2c.25.14.45,0,.45-.25a1,1,0,0,0-.44-.76Z"/><path class="cls-3" d="M236.41,232c-.24-.14-.44,0-.44.25a.93.93,0,0,0,.44.76l10.74,6.21c.24.14.44,0,.44-.26a1,1,0,0,0-.44-.76Z"/><path class="cls-3" d="M236.4,234.37c-.24-.14-.44,0-.44.25a1,1,0,0,0,.44.76l10.74,6.2c.24.14.44,0,.44-.25a1,1,0,0,0-.44-.76Z"/><path class="cls-3" d="M236.37,222.28c-.24-.14-.44,0-.44.26a1,1,0,0,0,.44.76l10.74,6.21c.25.14.45,0,.45-.26a1,1,0,0,0-.44-.77Z"/><path class="cls-3" d="M236.38,219.92c-.24-.14-.44,0-.44.25a1,1,0,0,0,.44.77l10.74,6.2a.27.27,0,0,0,.44-.25,1,1,0,0,0-.44-.77Z"/><path class="cls-3" d="M236.39,217.55c-.24-.13-.44,0-.44.26a.94.94,0,0,0,.44.76l10.74,6.2c.24.14.44,0,.44-.25a1,1,0,0,0-.44-.76Z"/><path class="cls-3" d="M236.39,215.19c-.24-.14-.44,0-.44.25a1,1,0,0,0,.44.76l10.74,6.2c.25.14.45,0,.45-.25a1,1,0,0,0-.44-.76Z"/><path class="cls-3" d="M236.41,210.45c-.24-.14-.44,0-.44.26a.94.94,0,0,0,.44.76l10.74,6.2a.27.27,0,0,0,.44-.25,1,1,0,0,0-.44-.77Z"/><path class="cls-3" d="M236.4,212.82c-.24-.14-.44,0-.44.25a1,1,0,0,0,.44.76L247.14,220c.24.14.44,0,.44-.26a1,1,0,0,0-.44-.76Z"/><path class="cls-3" d="M236.37,200.74c-.24-.14-.44,0-.44.25a1,1,0,0,0,.44.77l10.74,6.2c.25.14.45,0,.45-.26a1,1,0,0,0-.44-.76Z"/><path class="cls-3" d="M236.38,198.37c-.24-.14-.44,0-.44.26a1,1,0,0,0,.44.76l10.74,6.2c.24.14.44,0,.44-.25a1,1,0,0,0-.44-.77Z"/><path class="cls-3" d="M236.39,196c-.24-.14-.44,0-.44.25a.93.93,0,0,0,.44.76l10.74,6.2c.24.14.44,0,.44-.25a1,1,0,0,0-.44-.76Z"/><path class="cls-3" d="M236.39,193.64c-.24-.14-.44,0-.44.25a1,1,0,0,0,.44.77l10.74,6.2c.25.14.45,0,.45-.26a1,1,0,0,0-.44-.76Z"/><path class="cls-3" d="M236.41,188.91c-.24-.14-.44,0-.44.25a.93.93,0,0,0,.44.76l10.74,6.2c.24.14.44,0,.44-.25a1,1,0,0,0-.44-.76Z"/><path class="cls-3" d="M236.4,191.27c-.24-.14-.44,0-.44.26a1,1,0,0,0,.44.76l10.74,6.2c.24.14.44,0,.44-.25a.92.92,0,0,0-.44-.76Z"/><polygon class="cls-2" points="306.38 383.72 299.89 379.95 299.8 211.88 306.3 215.66 306.38 383.72"/><polygon class="cls-2" points="306.3 215.66 299.8 211.88 366.88 173.16 373.37 176.93 306.3 215.66"/><path class="cls-4" d="M306.3,215.66l.09,168.06L373.45,345,373.35,177Zm7.75,0,52.42-30.24,0,147.37L314.14,363Z"/><polygon class="cls-8" points="314.07 215.66 314.15 369.4 366.52 339.16 366.44 185.42 314.07 215.66"/><polygon class="cls-8" points="359.53 343.19 314.13 318.7 314.13 323.93 354.18 346.28 359.53 343.19"/><polygon class="cls-8" points="366.51 326.94 314.12 299.66 314.12 312.89 365.48 339.76 366.52 339.16 366.51 326.94"/><polygon class="cls-8" points="314.1 269.34 366.5 290.27 366.49 285.04 314.1 264.11 314.1 269.34"/><polygon class="cls-8" points="314.1 258.29 366.49 279.23 366.48 266 314.09 245.06 314.1 258.29"/><polygon class="cls-8" points="315.01 215.12 366.47 235.68 366.47 230.45 320.36 212.03 315.01 215.12"/><polygon class="cls-8" points="326.31 208.59 366.46 224.63 366.46 211.41 339.85 200.78 326.31 208.59"/><g class="cls-9"><path class="cls-10" d="M310.36,297.2l2.72,1.57,0-9.67a4.92,4.92,0,0,0-2.23-3.86l-2.94-1.7,2.46-1.42,2.95,1.7a4.86,4.86,0,0,1,2.22,3.85l0,11.66a1.55,1.55,0,0,1-.65,1.43l-2.47,1.44a1.59,1.59,0,0,0,.66-1.44v-1.38l-1.72,1a.5.5,0,0,1-.53-.06l-2.95-1.69Z"/></g><path class="cls-11" d="M310.87,285.25a4.91,4.91,0,0,1,2.23,3.85l0,11.66c0,1.41-1,2-2.24,1.28l-2.95-1.7v-1.71l2.94,1.7c.41.23.74,0,.74-.43l0-11.66a1.66,1.66,0,0,0-.74-1.29l-2.95-1.7v-1.7Z"/></g><g id="Dev_Laptop" data-name="Dev Laptop"><path class="cls-12" d="M234.92,897.71l87,50.57a7.31,7.31,0,0,0,6.66,0L460.84,872c1.84-1.06,1.84-2.79,0-3.86l-87-50.58a7.39,7.39,0,0,0-6.64,0L234.94,893.85C233.1,894.93,233.08,896.65,234.92,897.71Z"/><path class="cls-4" d="M337.76,902.85a1.15,1.15,0,0,0,0,2.18l21.45,12.46a4.15,4.15,0,0,0,3.76,0l42.27-24.41a1.14,1.14,0,0,0,0-2.17l-21.45-12.47a4.15,4.15,0,0,0-3.76,0Z"/><path class="cls-11" d="M233.56,895.8v5.09a2.37,2.37,0,0,0,1.37,1.91l87,50.57a7.37,7.37,0,0,0,6.66,0L460.85,877a2.34,2.34,0,0,0,1.39-1.95l0-5.07a2.34,2.34,0,0,1-1.38,1.93L328.61,948.3a7.31,7.31,0,0,1-6.66,0l-87-50.57A2.29,2.29,0,0,1,233.56,895.8Z"/><path class="cls-2" d="M366.91,716.82c1.84-1.07,3.34-.21,3.35,1.91l.24,93a7.36,7.36,0,0,1-3.33,5.76L236.85,892.75c-1.85,1.06-3.35.2-3.35-1.91l-.24-93a7.38,7.38,0,0,1,3.33-5.76Z"/><path class="cls-3" d="M229.76,795.79l.24,93a2.35,2.35,0,0,0,1,2.14l3.49,2a2.32,2.32,0,0,1-1-2.14l-.24-93a7.35,7.35,0,0,1,3.33-5.77l130.32-75.23a2.41,2.41,0,0,1,2.38-.24l-3.5-2a2.39,2.39,0,0,0-2.37.24L233.09,790A7.35,7.35,0,0,0,229.76,795.79Z"/><polygon class="cls-3" points="237.97 796.68 238.19 886.55 365.79 812.89 365.56 723.02 237.97 796.68"/><polygon class="cls-12" points="237.97 796.68 238 811.75 365.6 738.09 365.56 723.02 237.97 796.68"/><path class="cls-13" d="M344.53,740.85c1.23-.71,2.23-.16,2.23,1.25a4.9,4.9,0,0,1-2.22,3.84c-1.21.7-2.21.13-2.21-1.28A4.84,4.84,0,0,1,344.53,740.85Z"/><path class="cls-13" d="M351.63,736.75c1.21-.7,2.21-.15,2.21,1.26a4.89,4.89,0,0,1-2.19,3.83c-1.23.71-2.23.14-2.24-1.27A4.86,4.86,0,0,1,351.63,736.75Z"/><path class="cls-13" d="M358.72,732.66c1.23-.71,2.23-.17,2.23,1.25a4.9,4.9,0,0,1-2.22,3.84c-1.23.71-2.23.14-2.23-1.27A4.84,4.84,0,0,1,358.72,732.66Z"/><polygon class="cls-3" points="261.61 891.47 253.26 896.32 249.66 894.24 258.01 889.39 261.61 891.47"/><polygon class="cls-3" points="351.49 839.24 343.12 844.1 339.52 842.02 347.89 837.16 351.49 839.24"/><polygon class="cls-3" points="373.95 826.18 365.59 831.04 361.99 828.96 370.36 824.1 373.95 826.18"/><polygon class="cls-3" points="358.96 856.58 350.61 861.43 343.18 857.14 351.54 852.29 358.96 856.58"/><polygon class="cls-3" points="400.16 854.33 391.8 859.19 384.36 854.9 392.72 850.04 400.16 854.33"/><polygon class="cls-3" points="411.4 847.8 403.04 852.66 386.23 842.96 394.6 838.1 411.4 847.8"/><g class="cls-9"><polygon class="cls-3" points="383.32 831.59 367.9 840.55 360.46 836.25 375.88 827.29 383.32 831.59"/><polygon class="cls-3" points="365.03 842.21 356.67 847.07 349.23 842.78 357.59 837.92 365.03 842.21"/><polygon class="cls-3" points="392.67 836.99 373.07 848.38 365.64 844.09 385.24 832.7 392.67 836.99"/><polygon class="cls-3" points="370.2 850.04 361.84 854.9 354.41 850.62 362.77 845.76 370.2 850.04"/><polygon class="cls-3" points="379.57 855.45 371.2 860.31 363.76 856.02 372.13 851.16 379.57 855.45"/></g><polygon class="cls-3" points="353.79 848.75 345.43 853.61 337.99 849.31 346.35 844.45 353.79 848.75"/><polygon class="cls-3" points="340.24 845.77 331.89 850.62 328.29 848.55 336.65 843.69 340.24 845.77"/><polygon class="cls-3" points="329.02 852.29 320.65 857.15 317.05 855.08 325.42 850.22 329.02 852.29"/><polygon class="cls-3" points="334.63 881.57 326.26 886.43 318.83 882.13 327.19 877.27 334.63 881.57"/><g class="cls-9"><polygon class="cls-3" points="317.78 858.83 309.42 863.68 305.82 861.6 314.18 856.75 317.78 858.83"/><polygon class="cls-3" points="331.32 861.8 322.97 866.66 315.53 862.36 323.88 857.51 331.32 861.8"/><polygon class="cls-3" points="306.55 865.35 298.18 870.21 294.58 868.13 302.95 863.27 306.55 865.35"/><polygon class="cls-3" points="320.09 868.33 311.73 873.19 304.29 868.89 312.65 864.03 320.09 868.33"/><polygon class="cls-3" points="336.49 869.63 328.14 874.49 320.71 870.2 329.07 865.35 336.49 869.63"/><polygon class="cls-3" points="295.32 871.88 286.95 876.74 283.36 874.66 291.72 869.8 295.32 871.88"/><polygon class="cls-3" points="308.87 874.85 300.5 879.71 293.06 875.42 301.43 870.56 308.87 874.85"/><polygon class="cls-3" points="345.86 875.04 337.5 879.89 330.07 875.6 338.42 870.75 345.86 875.04"/><polygon class="cls-3" points="325.26 876.16 316.9 881.02 309.47 876.73 317.84 871.87 325.26 876.16"/><polygon class="cls-3" points="284.08 878.41 275.71 883.27 272.12 881.19 280.48 876.33 284.08 878.41"/><polygon class="cls-3" points="297.63 881.39 289.26 886.25 281.82 881.95 290.19 877.09 297.63 881.39"/><polygon class="cls-3" points="314.04 882.68 305.67 887.54 298.25 883.26 306.61 878.4 314.04 882.68"/><polygon class="cls-3" points="286.4 887.91 278.03 892.77 270.59 888.48 278.96 883.62 286.4 887.91"/><polygon class="cls-3" points="323.4 888.09 315.04 892.95 307.6 888.66 315.96 883.8 323.4 888.09"/><polygon class="cls-3" points="302.8 889.22 294.43 894.08 287 889.79 295.37 884.93 302.8 889.22"/><polygon class="cls-3" points="312.16 894.62 303.8 899.48 296.36 895.19 304.72 890.33 312.16 894.62"/><polygon class="cls-3" points="355.7 880.17 313.16 904.89 305.72 900.6 348.26 875.87 355.7 880.17"/><polygon class="cls-3" points="300.93 901.15 292.57 906.01 285.13 901.71 293.49 896.85 300.93 901.15"/><polygon class="cls-3" points="291.57 895.74 271.98 907.13 264.55 902.84 284.14 891.45 291.57 895.74"/><polygon class="cls-3" points="289.69 907.68 281.34 912.53 273.9 908.24 282.25 903.38 289.69 907.68"/><polygon class="cls-3" points="310.3 906.55 290.7 917.94 283.26 913.65 302.86 902.26 310.3 906.55"/></g><polygon class="cls-3" points="272.85 884.93 264.49 889.79 260.89 887.72 269.25 882.86 272.85 884.93"/><polygon class="cls-3" points="362.71 832.71 354.35 837.57 350.75 835.5 359.12 830.63 362.71 832.71"/><polygon class="cls-3" points="342.56 855.27 334.2 860.13 326.76 855.84 335.12 850.98 342.56 855.27"/><polygon class="cls-3" points="366.46 873.91 358.1 878.77 350.66 874.48 359.02 869.62 366.46 873.91"/><polygon class="cls-3" points="357.1 868.51 348.73 873.37 341.3 869.07 349.66 864.21 357.1 868.51"/><polygon class="cls-3" points="347.73 863.1 339.37 867.96 331.94 863.67 340.31 858.81 347.73 863.1"/><polygon class="cls-3" points="388.93 860.86 380.57 865.72 373.13 861.42 381.49 856.56 388.93 860.86"/><polygon class="cls-3" points="377.69 867.39 369.34 872.24 361.9 867.95 370.25 863.09 377.69 867.39"/><polygon class="cls-3" points="275.16 894.44 262.62 901.73 255.18 897.43 267.72 890.15 275.16 894.44"/><path class="cls-14" d="M249.83,820.43c1.62-.93,2.57-.73,3.26-.11l-.92,1.49c-.59-.59-1.34-.54-2.27,0a6.74,6.74,0,0,0-3.06,5.71c0,2.26,1.21,3.25,3.09,2.17a5.61,5.61,0,0,0,2.25-2.63l.93.43a8,8,0,0,1-3.25,3.66c-2.65,1.53-4.43.21-4.44-2.81A9.52,9.52,0,0,1,249.83,820.43Z"/><path class="cls-14" d="M255.79,825.34a.63.63,0,0,1,1,.58,2.27,2.27,0,0,1-1,1.74c-.55.32-1,.06-1-.57A2.24,2.24,0,0,1,255.79,825.34Z"/><ellipse class="cls-14" cx="255.77" cy="818.27" rx="1.42" ry="0.82" transform="translate(-580.22 628.27) rotate(-59.84)"/><polygon class="cls-14" points="258.86 811.16 263.26 823.57 262.17 824.2 257.78 811.78 258.86 811.16"/><polygon class="cls-14" points="267.43 804.78 275.1 809.16 267.48 822.38 266.25 821.68 272.66 810.57 266.2 806.9 267.43 804.78"/><polygon class="cls-14" points="283.67 809.18 283.68 812.48 275.65 817.11 275.64 813.82 283.67 809.18"/></g><g id="User_Laptop" data-name="User Laptop"><path class="cls-10" d="M1049,305l116.65-67.35a6.52,6.52,0,0,1,5.87,0L1235,274.52c1.62,1,1.62,2.47,0,3.41l-116.66,67.36a6.46,6.46,0,0,1-5.87,0L1049,308.42C1047.38,307.49,1047.4,306,1049,305Z"/><path class="cls-15" d="M1170.19,284.48a3.32,3.32,0,0,1,3,0l17.23,10a.93.93,0,0,1,0,1.75l-34,19.59a3.35,3.35,0,0,1-3,0l-17.22-10a.93.93,0,0,1,0-1.75Z"/><path class="cls-15" d="M1049,308.42l63.41,36.85a6.46,6.46,0,0,0,5.87,0L1235,277.93a2.08,2.08,0,0,0,1.22-1.7v6.13a2.08,2.08,0,0,1-1.22,1.72l-116.65,67.34a6.54,6.54,0,0,1-5.88,0L1049,314.57a2.08,2.08,0,0,1-1.2-1.69l0-6.15A2,2,0,0,0,1049,308.42Z"/><polygon class="cls-3" points="1157.8 252.8 1159.99 254.08 1154.71 257.13 1152.52 255.85 1157.8 252.8"/><polygon class="cls-3" points="1193.69 257.23 1198.53 260.04 1186.15 267.18 1181.31 264.37 1193.69 257.23"/><polygon class="cls-3" points="1187.6 253.69 1192.44 256.5 1187.16 259.55 1182.32 256.74 1187.6 253.69"/><polygon class="cls-3" points="1180.5 257.78 1185.34 260.6 1180.06 263.64 1175.22 260.83 1180.5 257.78"/><polygon class="cls-3" points="1181.51 250.15 1186.35 252.96 1173.97 260.11 1169.13 257.29 1181.51 250.15"/><polygon class="cls-3" points="1167.32 258.34 1172.16 261.15 1166.88 264.2 1162.04 261.39 1167.32 258.34"/><polygon class="cls-3" points="1158.6 256.33 1163.43 259.13 1158.15 262.18 1153.32 259.38 1158.6 256.33"/><polygon class="cls-3" points="1165.69 252.24 1170.52 255.04 1165.24 258.09 1160.41 255.28 1165.69 252.24"/><polygon class="cls-3" points="1164.89 248.71 1167.08 249.98 1161.8 253.03 1159.61 251.76 1164.89 248.71"/><polygon class="cls-3" points="1175.43 246.61 1180.26 249.42 1172.34 253.99 1167.51 251.19 1175.43 246.61"/><polygon class="cls-3" points="1171.99 244.61 1174.18 245.88 1168.9 248.93 1166.71 247.66 1171.99 244.61"/><polygon class="cls-3" points="1129.42 269.19 1131.61 270.46 1126.33 273.51 1124.14 272.24 1129.42 269.19"/><polygon class="cls-3" points="1130.22 272.71 1135.05 275.52 1129.77 278.57 1124.94 275.76 1130.22 272.71"/><polygon class="cls-3" points="1137.31 268.62 1142.14 271.43 1136.86 274.47 1132.03 271.67 1137.31 268.62"/><polygon class="cls-3" points="1159.22 270.07 1164.06 272.88 1158.78 275.93 1153.94 273.12 1159.22 270.07"/><polygon class="cls-3" points="1152.13 274.17 1156.96 276.98 1151.68 280.03 1146.84 277.22 1152.13 274.17"/><g class="cls-9"><polygon class="cls-3" points="1150.7 256.9 1152.89 258.17 1147.61 261.22 1145.42 259.95 1150.7 256.9"/><polygon class="cls-3" points="1143.61 261 1145.8 262.27 1140.52 265.32 1138.33 264.05 1143.61 261"/><polygon class="cls-3" points="1151.5 260.43 1156.33 263.23 1151.05 266.28 1146.22 263.48 1151.5 260.43"/><polygon class="cls-3" points="1160.22 262.44 1165.06 265.25 1159.78 268.3 1154.94 265.49 1160.22 262.44"/><polygon class="cls-3" points="1144.41 264.52 1149.24 267.33 1143.96 270.38 1139.13 267.57 1144.41 264.52"/><polygon class="cls-3" points="1166.31 265.98 1171.15 268.79 1165.87 271.84 1161.03 269.02 1166.31 265.98"/><polygon class="cls-3" points="1153.13 266.53 1157.97 269.34 1152.69 272.39 1147.85 269.58 1153.13 266.53"/><polygon class="cls-3" points="1179.5 265.42 1184.33 268.22 1150.67 287.66 1145.85 284.85 1179.5 265.42"/></g><polygon class="cls-3" points="1136.51 265.1 1138.7 266.37 1133.42 269.42 1131.23 268.14 1136.51 265.1"/><polygon class="cls-3" points="1122.33 273.28 1124.52 274.55 1119.23 277.61 1117.04 276.34 1122.33 273.28"/><polygon class="cls-3" points="1108.14 281.47 1110.33 282.75 1105.05 285.79 1102.86 284.52 1108.14 281.47"/><g class="cls-9"><polygon class="cls-3" points="1146.03 270.63 1150.87 273.44 1145.59 276.49 1140.75 273.68 1146.03 270.63"/><polygon class="cls-3" points="1138.94 274.72 1143.78 277.53 1138.5 280.58 1133.66 277.77 1138.94 274.72"/></g><polygon class="cls-3" points="1131.85 278.82 1136.69 281.63 1131.4 284.68 1126.56 281.87 1131.85 278.82"/><polygon class="cls-3" points="1123.12 276.81 1127.95 279.62 1122.68 282.66 1117.85 279.86 1123.12 276.81"/><polygon class="cls-3" points="1124.76 282.91 1129.59 285.73 1124.31 288.77 1119.47 285.96 1124.76 282.91"/><polygon class="cls-3" points="1129.85 294.09 1134.68 296.9 1129.4 299.95 1124.57 297.14 1129.85 294.09"/><polygon class="cls-3" points="1123.76 290.55 1128.59 293.36 1123.31 296.41 1118.47 293.6 1123.76 290.55"/><polygon class="cls-3" points="1117.66 287.01 1122.5 289.82 1110.12 296.97 1105.29 294.15 1117.66 287.01"/><g class="cls-9"><polygon class="cls-3" points="1101.04 285.57 1103.23 286.84 1097.95 289.89 1095.76 288.62 1101.04 285.57"/><polygon class="cls-3" points="1108.94 285 1113.77 287.8 1104.03 293.43 1099.2 290.62 1108.94 285"/></g><polygon class="cls-3" points="1116.03 280.9 1120.86 283.71 1115.58 286.76 1110.75 283.95 1116.03 280.9"/><polygon class="cls-3" points="1115.23 277.38 1117.42 278.65 1112.14 281.7 1109.95 280.43 1115.23 277.38"/><polygon class="cls-3" points="1090.27 302.82 1095.11 305.63 1089.83 308.68 1084.99 305.87 1090.27 302.82"/><polygon class="cls-3" points="1076.08 311.01 1080.92 313.83 1075.64 316.88 1070.8 314.06 1076.08 311.01"/><polygon class="cls-3" points="1109.55 305.8 1114.39 308.61 1109.11 311.66 1104.27 308.85 1109.55 305.8"/><g class="cls-9"><polygon class="cls-3" points="1087.85 293.19 1090.04 294.46 1084.76 297.51 1082.57 296.24 1087.85 293.19"/><polygon class="cls-3" points="1091.29 295.19 1096.12 298 1090.84 301.05 1086.01 298.24 1091.29 295.19"/><polygon class="cls-3" points="1080.75 297.29 1082.94 298.56 1077.66 301.61 1075.47 300.34 1080.75 297.29"/><polygon class="cls-3" points="1097.37 298.72 1102.21 301.54 1096.93 304.58 1092.09 301.77 1097.37 298.72"/><polygon class="cls-3" points="1084.19 299.29 1089.02 302.09 1083.74 305.14 1078.91 302.34 1084.19 299.29"/><polygon class="cls-3" points="1103.46 302.26 1108.3 305.07 1103.02 308.12 1098.18 305.31 1103.46 302.26"/><polygon class="cls-3" points="1077.1 303.38 1081.93 306.19 1076.65 309.24 1071.82 306.43 1077.1 303.38"/><polygon class="cls-3" points="1096.36 306.36 1101.2 309.17 1095.92 312.22 1091.08 309.41 1096.36 306.36"/><polygon class="cls-3" points="1083.18 306.92 1088.02 309.73 1082.74 312.78 1077.9 309.96 1083.18 306.92"/><polygon class="cls-3" points="1089.27 310.45 1094.11 313.27 1088.83 316.32 1083.99 313.5 1089.27 310.45"/></g><polygon class="cls-3" points="1173.41 261.88 1178.25 264.69 1172.97 267.74 1168.13 264.93 1173.41 261.88"/><polygon class="cls-3" points="1144.04 285.89 1148.87 288.71 1143.58 291.76 1138.75 288.95 1144.04 285.89"/><polygon class="cls-3" points="1137.94 282.36 1142.78 285.17 1137.49 288.22 1132.65 285.41 1137.94 282.36"/><polygon class="cls-3" points="1136.94 289.99 1141.78 292.81 1136.49 295.85 1131.66 293.04 1136.94 289.99"/><polygon class="cls-3" points="1130.85 286.45 1135.68 289.27 1130.4 292.31 1125.57 289.5 1130.85 286.45"/><polygon class="cls-3" points="1145.04 278.26 1149.87 281.07 1144.59 284.12 1139.75 281.31 1145.04 278.26"/><polygon class="cls-3" points="1122.75 298.19 1127.59 301 1122.31 304.05 1117.47 301.24 1122.75 298.19"/><polygon class="cls-3" points="1070 307.48 1074.83 310.29 1069.55 313.33 1064.72 310.53 1070 307.48"/><polygon class="cls-3" points="1066.56 305.48 1068.75 306.75 1063.47 309.8 1061.28 308.53 1066.56 305.48"/><polygon class="cls-3" points="1073.66 301.38 1075.85 302.65 1070.57 305.7 1068.38 304.43 1073.66 301.38"/><polygon class="cls-3" points="1102.45 309.9 1107.29 312.71 1102.01 315.76 1097.17 312.95 1102.45 309.9"/><polygon class="cls-3" points="1082.17 314.55 1093.1 320.9 1087.82 323.95 1076.89 317.6 1082.17 314.55"/><polygon class="cls-3" points="1095.37 314 1100.2 316.81 1094.92 319.86 1090.08 317.04 1095.37 314"/><path class="cls-2" d="M1165.45,148.84c1.62-.94,3-.19,3,1.68l.21,82.07a6.47,6.47,0,0,1-2.94,5.08l-115,66.38c-1.62.93-2.94.17-3-1.69l-.21-82.07a6.49,6.49,0,0,1,2.94-5.08Z"/><path class="cls-3" d="M1047.39,213.43l115-66.38a2.12,2.12,0,0,1,2.1-.21l3.08,1.79a2.1,2.1,0,0,0-2.09.21l-115,66.37a6.49,6.49,0,0,0-2.94,5.09l.21,82.06a2.06,2.06,0,0,0,.86,1.89l-3.08-1.8a2,2,0,0,1-.86-1.88l-.21-82.07A6.47,6.47,0,0,1,1047.39,213.43Z"/><polygon class="cls-14" points="1164.26 154.31 1164.46 233.59 1051.89 298.58 1051.69 219.29 1164.26 154.31"/><polygon class="cls-3" points="1064.18 319.08 1064.17 321.93 1070.24 325.44 1070.25 322.58 1064.18 319.08"/><polygon class="cls-3" points="1053.26 312.78 1053.25 315.63 1059.32 319.13 1059.33 316.28 1053.26 312.78"/><path class="cls-3" d="M1037.07,342.27a2.06,2.06,0,0,1-1.16-1.76,2.12,2.12,0,0,1,1.17-1.79L1067,321.45l.84,1.45-29.92,17.27c-.25.15-.34.29-.34.34s.08.17.33.31l39.14,22.74-.85,1.45Z"/><g class="cls-9"><path class="cls-14" d="M1061.34,366.46a3.87,3.87,0,0,0,5.08,2.49c2.18-.69,5.69.3,9.24,1.67,4.57,1.77,6.87,3.84,7.82,5.93,1.7,3.78,5.46,6.31,9.56,5.68a26.71,26.71,0,0,0,9.17-3.26c6.44-3.75,8.7-8.52,2.29-12.23-6.74-2.87-11.72-5.53-14.42-7.91a12,12,0,0,0-3.39-2.23c-6.25-2.49-14.34-1.63-20.09,1.67C1062.56,360.62,1060.64,363.63,1061.34,366.46Z"/><path class="cls-12" d="M1061.18,365.33v1.73c0,2.11,1.38,4.18,4.33,5.89l15.57,9.06c6.44,3.71,14.66,2.43,21.13-1.31,3.79-2.19,6.11-4.73,6.11-7.21v-1.76l0,0c0,2.48-2.32,5-6.09,7.21a26.71,26.71,0,0,1-9.17,3.26c-4.1.63-7.86-1.9-9.56-5.68-1-2.09-3.25-4.16-7.82-5.93-3.55-1.37-7.06-2.36-9.24-1.67a3.87,3.87,0,0,1-5.08-2.49,4.61,4.61,0,0,1-.14-1.1Z"/></g><g class="cls-9"><path class="cls-12" d="M1075.16,359.58a3.1,3.1,0,0,1,3.14.31,9.79,9.79,0,0,1,4,5.3l-2.35,1.37a9.77,9.77,0,0,0-4-5.31,3.1,3.1,0,0,0-3.13-.3Z"/><path class="cls-15" d="M1080,366.56l-8-4.65c.71-1.36,2.25-1.69,4-.66A9.73,9.73,0,0,1,1080,366.56Z"/></g></g><g id="User"><path class="cls-15" d="M1596.34,139.84c-5.8,3.37-9.41,10.54-9.44,20.72l-.13,5.25,10.8-6.27.13-5.27c0-10.16,3.63-17.33,9.44-20.7Z"/><path class="cls-14" d="M1586.66,162.22c2.49-16.51,50.91-17.38,59.32-3.63,9.77,16,1.8,65.14,4.2,53.77,0,0-.11.4-.27,1.16-.77,3.77-3.68,3.95-.52,14.4l-20.62,37.85-33.41-1.92s-3.09-13.08-3.28-23c-3.44-3.32-.17-12.37-1-24.55a235.59,235.59,0,0,1-2.38-24.17C1584.5,181.07,1584.31,175.09,1586.66,162.22Z"/><path class="cls-3" d="M1588.65,192.12s-3.46-23.64,2.54-34.27a2.07,2.07,0,0,1,3.26-.47c4.92,5,10,8.62,20,10.09a57.79,57.79,0,0,0,14-.07c6.26-.61,21.32,2.77,19.9,41l3.43-1s37.83-83.62-30.1-77c-19.4,1.89-23.24,6.76-28.46,11.95-3.91,3.88-6.22,10.1-6.25,18.24C1586.9,160.55,1580.69,178.42,1588.65,192.12Z"/><path class="cls-4" d="M1553.79,293.4c3,31,15.43,42.39,37.18,56l.17.11c57.83,32.3,87.35,18.42,101.13,11.81a13.07,13.07,0,0,0,7.43-11.81l-1-52.22a60.69,60.69,0,0,0-24.6-48.7c-9.77-7.25-18.65-12.48-18.65-12.48-17.2,3.4-28.77,31.6-49.12,26.77-16.77-4-15.33-46.56-15.33-46.56C1543.8,192.47,1553.79,293.4,1553.79,293.4Z"/><path class="cls-6" d="M1587.53,346.13l-.26.49c2.33,1.78,3.87,2.86,3.87,2.86,19.74-23,64.34-113.4,64.34-113.4-5,1-9.56,9.23-13.88,9.29-18.28,19-33.45,10.24-33.45,10.24-13.23-7.53-18.52-21.44-19.44-32.22-.57-.23-1.11-.38-1.67-.56C1570.36,299.66,1587.53,346.13,1587.53,346.13Z"/><polygon class="cls-16" points="1621.47 263.12 1608.2 274.17 1604.41 332 1591.14 349.48 1587.28 346.62 1583.77 322.98 1601.33 270.3 1592.38 246.71 1621.47 263.12"/><path class="cls-17" d="M1582.42,234.18c-1.4,10,7.75,30.82,7.75,30.82,4.95,0,18-9.39,18-9.39-18-18.29-17.12-39.32-17.12-39.32C1589.31,225.12,1583.82,224.12,1582.42,234.18Z"/><path class="cls-17" d="M1618.88,277.18c-7.67-6.94-10.73-21.57-10.73-21.57,24.16,1.4,41.24-27.69,41.24-27.69a33.39,33.39,0,0,0,6.09,8.16C1645,263.46,1618.88,277.18,1618.88,277.18Z"/><path class="cls-3" d="M1655.48,236.08l-64.34,113.4,51-47.82-4.29-15.51H1654C1668.31,263.64,1655.48,236.08,1655.48,236.08Z"/><path class="cls-3" d="M1577.91,262.64l-10.19,7.53c0,18.1,19.81,76,19.81,76-5.57-49.46,3.5-129.84,3.5-129.84-17.11,19.2-21.89,32.94-21.89,32.94Z"/></g></g><g id="Arrows"><g id="From_Dev" data-name="From Dev"><g class="cls-9"><g class="cls-9"><g class="cls-18"><g class="cls-9"><path class="cls-19" d="M316.14,704.38,293.35,692a3.31,3.31,0,0,1-1.65-3l22.79,12.4a3.36,3.36,0,0,0,1.65,3"/></g></g></g><polygon class="cls-20" points="314.49 701.36 291.7 688.96 292.13 455.95 314.92 468.35 314.49 701.36"/><polygon class="cls-21" points="314.92 468.35 292.13 455.95 299.25 454.95 322.05 467.35 314.92 468.35"/><path class="cls-22" d="M322,467.35l-.43,233a4.41,4.41,0,0,1-3.56,4.34,3.14,3.14,0,0,1-3.56-3.34l.43-233Z"/><polygon class="cls-23" points="297.18 470.84 274.39 458.44 295.77 415.64 318.56 428.04 297.18 470.84"/><polygon class="cls-22" points="318.56 428.04 339.79 464.86 322.05 467.35 314.92 468.35 297.18 470.84 318.56 428.04"/></g></g><g id="To_Client" data-name="To Client"><g class="cls-9"><polygon class="cls-24" points="885.67 256.33 874.81 243.39 876.36 219.31 887.22 232.25 885.67 256.33"/><polygon class="cls-24" points="887.22 232.25 876.36 219.31 876.98 209.66 887.85 222.6 887.22 232.25"/><polygon class="cls-25" points="889.4 198.53 938.01 227.63 885.67 256.33 887.22 232.25 887.85 222.6 889.4 198.53"/><polygon class="cls-26" points="889.4 198.53 878.54 185.58 927.14 214.69 938.01 227.63 889.4 198.53"/><polygon class="cls-24" points="887.85 222.6 876.98 209.66 878.54 185.58 889.4 198.53 887.85 222.6"/><polygon class="cls-21" points="462.94 220.87 452.08 207.93 876.98 209.66 887.85 222.6 462.94 220.87"/><g class="cls-9"><g class="cls-27"><g class="cls-9"><path class="cls-19" d="M458.8,228.91,447.94,216a4.53,4.53,0,0,1-1-3.23,5,5,0,0,1,1.23-3L459,222.7a5.1,5.1,0,0,0-1.23,3,4.53,4.53,0,0,0,1,3.23"/><path class="cls-28" d="M459,222.7l-10.86-12.94a5.62,5.62,0,0,1,.54-.55l10.87,12.94a4.76,4.76,0,0,0-.55.55"/><path class="cls-29" d="M459.54,222.15l-10.87-12.94q.25-.21.51-.39l10.87,12.94a4.91,4.91,0,0,0-.51.39"/><path class="cls-30" d="M460.05,221.76l-10.87-12.94a5.24,5.24,0,0,1,.51-.3l10.86,12.94a5.09,5.09,0,0,0-.5.3"/><path class="cls-31" d="M460.55,221.46l-10.86-12.94a4.74,4.74,0,0,1,.51-.24l10.87,12.94a4.9,4.9,0,0,0-.52.24"/><path class="cls-32" d="M461.07,221.22,450.2,208.28a5.22,5.22,0,0,1,.56-.18L461.62,221a5.05,5.05,0,0,0-.55.18"/><path class="cls-33" d="M461.62,221,450.76,208.1a4.7,4.7,0,0,1,.63-.13l10.87,12.94a4.53,4.53,0,0,0-.64.13"/><path class="cls-34" d="M462.26,220.91,451.39,208a5.32,5.32,0,0,1,.69,0l10.86,12.94a5.07,5.07,0,0,0-.68,0"/></g></g></g><path class="cls-25" d="M462.94,220.87l424.91,1.73-.63,9.66-424.9-1.73a4.52,4.52,0,0,1-4.56-4.85A5.22,5.22,0,0,1,462.94,220.87Z"/></g></g><g id="To_Server" data-name="To Server"><g class="cls-9"><g class="cls-9"><g class="cls-35"><g class="cls-9"><path class="cls-34" d="M938.3,304.84,927.44,291.9h.16l10.86,12.94h-.16"/><path class="cls-36" d="M938.46,304.84,927.6,291.9a4.61,4.61,0,0,1,2.65.92l10.86,12.94a4.68,4.68,0,0,0-2.65-.92"/><path class="cls-34" d="M941.11,305.76l-10.86-12.94a4.07,4.07,0,0,1,.58.52l10.87,12.94a4.15,4.15,0,0,0-.59-.52"/><path class="cls-33" d="M941.7,306.28l-10.87-12.94a1.37,1.37,0,0,1,.16.18l10.86,12.94-.15-.18"/></g></g></g><polygon class="cls-24" points="499.03 315.36 488.17 302.42 488.73 292.76 499.6 305.7 499.03 315.36"/><polygon class="cls-21" points="499.6 305.7 488.73 292.76 927.44 291.9 938.3 304.84 499.6 305.7"/><path class="cls-25" d="M938.3,304.84a4.5,4.5,0,0,1,4.59,4.82,5.22,5.22,0,0,1-5.15,4.84L499,315.36l.57-9.66Z"/><polygon class="cls-32" points="448.83 310.63 437.96 297.69 490.14 268.7 501 281.64 448.83 310.63"/><polygon class="cls-25" points="501 281.64 499.6 305.7 499.03 315.36 497.63 339.43 448.83 310.63 501 281.64"/></g></g><g id="To_User" data-name="To User"><g class="cls-9"><polygon class="cls-24" points="1447.33 314.82 1436.47 301.88 1437.74 278.77 1448.61 291.71 1447.33 314.82"/><polygon class="cls-24" points="1448.61 291.71 1437.74 278.77 1438.28 269.12 1449.14 282.06 1448.61 291.71"/><polygon class="cls-25" points="1450.42 258.95 1497.69 286.65 1447.33 314.82 1448.61 291.71 1449.14 282.06 1450.42 258.95"/><polygon class="cls-26" points="1450.42 258.95 1439.55 246.01 1486.83 273.71 1497.69 286.65 1450.42 258.95"/><polygon class="cls-24" points="1449.14 282.06 1438.28 269.12 1439.55 246.01 1450.42 258.95 1449.14 282.06"/><polygon class="cls-21" points="1300.1 282.78 1289.23 269.84 1438.28 269.12 1449.14 282.06 1300.1 282.78"/><g class="cls-9"><g class="cls-37"><g class="cls-9"><path class="cls-19" d="M1296,290.82l-10.87-12.94a4.54,4.54,0,0,1-1-3.19,5,5,0,0,1,1.23-3l10.87,12.94a5.11,5.11,0,0,0-1.24,3,4.55,4.55,0,0,0,1,3.19"/><path class="cls-28" d="M1296.19,284.62l-10.87-12.94a5.83,5.83,0,0,1,.55-.56l10.87,12.95a4.76,4.76,0,0,0-.55.55"/><path class="cls-29" d="M1296.74,284.07l-10.87-12.95a4.91,4.91,0,0,1,.51-.39l10.87,12.95a4.91,4.91,0,0,0-.51.39"/><path class="cls-30" d="M1297.25,283.68l-10.87-12.95a5.09,5.09,0,0,1,.5-.3l10.87,12.94c-.18.1-.34.2-.5.31"/><path class="cls-31" d="M1297.75,283.37l-10.87-12.94a4.83,4.83,0,0,1,.52-.23l10.87,12.94-.52.23"/><path class="cls-32" d="M1298.27,283.14,1287.4,270.2a3.69,3.69,0,0,1,.56-.19L1298.82,283a5.1,5.1,0,0,0-.55.19"/><path class="cls-33" d="M1298.82,283,1288,270a4.38,4.38,0,0,1,.63-.12l10.87,12.94c-.22,0-.43.07-.64.12"/><path class="cls-34" d="M1299.46,282.83l-10.87-12.94a4.6,4.6,0,0,1,.64-.05l10.87,12.94a4.48,4.48,0,0,0-.64.05"/></g></g></g><path class="cls-25" d="M1449.14,282.06l-.53,9.65-149,.73a4.53,4.53,0,0,1-4.62-4.81,5.24,5.24,0,0,1,5.15-4.85Z"/></g></g></g><g id="Text"><text class="cls-38" transform="translate(242.67 88.83)">Se<tspan class="cls-39" x="44.92" y="0">r</tspan><tspan class="cls-40" x="58.81" y="0">v</tspan><tspan x="77.93" y="0">er</tspan></text><text class="cls-38" transform="translate(178.16 1016.17)">D<tspan class="cls-40" x="26.23" y="0">ev</tspan><tspan x="66.29" y="0">eloper Machine</tspan></text><text class="cls-38" transform="translate(1001.1 88.83)">User Machine</text><text class="cls-38" transform="translate(1580.36 88.83)">User</text><text class="cls-41" transform="translate(552.25 369.17)">Client Requests Site</text><text class="cls-41" transform="translate(1302.28 246.17)">Content</text></g><g id="SSG-2" data-name="SSG"><g id="SSG-3" data-name="SSG"><g class="cls-9"><g class="cls-9"><g class="cls-42"><g class="cls-9"><path class="cls-28" d="M604.48,1010.43l-7.8,1a157.17,157.17,0,0,0,37.7-9.77l7.8-1a157,157,0,0,1-37.7,9.76"/><path class="cls-19" d="M642.18,1000.67l-7.8,1q6.35-2.5,12.58-5.63a158.73,158.73,0,0,0,66.13-61.86,162.88,162.88,0,0,0,5.7-154.37,159.89,159.89,0,0,0-146.21-90.06A155.73,155.73,0,0,0,555.24,691l7.81-1a155.38,155.38,0,0,1,17.33-1.27A159.9,159.9,0,0,1,726.6,778.81a162.9,162.9,0,0,1-5.71,154.36A158.64,158.64,0,0,1,654.77,995q-6.24,3.12-12.59,5.64"/></g></g></g><g class="cls-9"><g class="cls-43"><g class="cls-9"><path class="cls-19" d="M605.76,1020.34l-7.81,1a165.36,165.36,0,0,1-18.41,1.35,167.07,167.07,0,0,1-26.48-1.65,5,5,0,0,1-1.13-9.6l7.8-1a5,5,0,0,0,1.14,9.61,168.13,168.13,0,0,0,26.47,1.64,165.54,165.54,0,0,0,18.42-1.35"/><path class="cls-28" d="M559.73,1010.44l-7.8,1a4.61,4.61,0,0,1,1.16-.3l7.81-1a4.57,4.57,0,0,0-1.17.3"/></g></g></g><polygon class="cls-24" points="460.64 747.09 452.84 748.1 444.16 743.02 451.96 742.01 460.64 747.09"/><g class="cls-9"><g class="cls-44"><g class="cls-9"><path class="cls-19" d="M452,742l-7.8,1a168.31,168.31,0,0,1,56.39-45.57q6.61-3.32,13.37-6l7.8-1q-6.75,2.67-13.37,6A168.41,168.41,0,0,0,452,742"/><path class="cls-28" d="M521.72,690.46l-7.8,1a166.29,166.29,0,0,1,40-10.37l7.81-1a166.37,166.37,0,0,0-40,10.37"/></g></g></g><path class="cls-45" d="M580.18,678.74a169.81,169.81,0,0,1,155.26,95.65,173,173,0,0,1-6.05,163.92A168.6,168.6,0,0,1,659.16,1004a166.68,166.68,0,0,1-98.29,16,5,5,0,0,1-4.22-5.65,4.94,4.94,0,0,1,4.79-4.3,166.54,166.54,0,0,0,25.7,1.59A156.72,156.72,0,0,0,654.77,995a158.64,158.64,0,0,0,66.12-61.86,162.9,162.9,0,0,0,5.71-154.36,159.9,159.9,0,0,0-146.22-90.07,158.73,158.73,0,0,0-119.74,58.35L452,742a168.53,168.53,0,0,1,128.22-63.27Z"/><polygon class="cls-24" points="430.54 789.23 422.74 790.24 422.6 730.42 430.4 729.41 430.54 789.23"/><polygon class="cls-45" points="430.4 729.41 451.96 742.01 460.64 747.09 481.66 759.38 430.54 789.23 430.4 729.41"/></g></g><text class="cls-41" transform="translate(583.19 178.17)"><tspan class="cls-46">H</tspan><tspan x="22.36" y="0">TML/CSS/JS</tspan></text><text class="cls-41" transform="translate(550.27 809.17)">React <tspan x="-26.79" y="38.4">P</tspan><tspan class="cls-47" x="-6.6" y="38.4">r</tspan><tspan x="3.91" y="38.4">oduces </tspan><tspan class="cls-46" x="-2.67" y="76.8">H</tspan><tspan x="19.69" y="76.8">TML</tspan></text><text class="cls-41" transform="translate(170.1 541.17)"><tspan class="cls-46">H</tspan><tspan x="22.36" y="0">TML</tspan><tspan x="13.91" y="38.4">CSS</tspan><tspan x="24.98" y="76.8">JS</tspan></text></g></g></svg>