<svg xmlns="http://www.w3.org/2000/svg" xmlns:xlink="http://www.w3.org/1999/xlink" viewBox="0 0 1920 1080"><defs><style>.cls-1{fill:none;}.cls-2{fill:#1b2a4f;}.cls-3{fill:#384e85;}.cls-4{fill:#2e4277;}.cls-5{fill:#3955d1;}.cls-6{fill:#6bb5fb;}.cls-7,.cls-8{fill:#4466fb;}.cls-8{opacity:0.3;}.cls-8,.cls-9{isolation:isolate;}.cls-10{fill:#b7c5fd;}.cls-11{fill:#798ffe;}.cls-12{fill:#aabafd;}.cls-13{fill:#fff;}.cls-14{fill:#d9ddf6;}.cls-15{fill:#9aadfd;}.cls-16{fill:#2b3c67;}.cls-17{fill:#8fccff;}.cls-18{clip-path:url(#clip-path);}.cls-19{fill:#213b6e;}.cls-20{fill:#213a6c;}.cls-21{fill:#2d5095;}.cls-22{fill:#3863b8;}.cls-23{fill:#26427c;}.cls-24{fill:#20396a;}.cls-25{fill:#3660b3;}.cls-26{fill:#2c4e92;}.cls-27{clip-path:url(#clip-path-2);}.cls-28{fill:#233d72;}.cls-29{fill:#243f76;}.cls-30{fill:#25427a;}.cls-31{fill:#26447f;}.cls-32{fill:#284683;}.cls-33{fill:#294887;}.cls-34{fill:#2a4b8b;}.cls-35{clip-path:url(#clip-path-3);}.cls-36{fill:#2c4d8f;}.cls-37{clip-path:url(#clip-path-4);}.cls-38{font-size:40px;}.cls-38,.cls-41{font-family:Roboto-Regular, Roboto;}.cls-39{letter-spacing:0.01em;}.cls-40{letter-spacing:-0.01em;}.cls-41{font-size:32px;}.cls-42{clip-path:url(#clip-path-5);}.cls-43{clip-path:url(#clip-path-6);}.cls-44{clip-path:url(#clip-path-7);}.cls-45{fill:#3a66bf;}.cls-46{letter-spacing:-0.01em;}.cls-47{letter-spacing:-0.01em;}.cls-48{clip-path:url(#clip-path-8);}.cls-49{clip-path:url(#clip-path-9);}.cls-50{letter-spacing:-0.01em;}.cls-51{letter-spacing:-0.05em;}</style><clipPath id="clip-path"><path class="cls-1" d="M324.15,690.37,301.35,678a3.34,3.34,0,0,1-1.65-3l22.79,12.4A3.33,3.33,0,0,0,324.15,690.37Z"/></clipPath><clipPath id="clip-path-2"><path class="cls-1" d="M466.8,214.91,455.94,202a4.53,4.53,0,0,1-1-3.23,5.22,5.22,0,0,1,5.17-4.81l10.87,12.94a5.22,5.22,0,0,0-5.18,4.81A4.53,4.53,0,0,0,466.8,214.91Z"/></clipPath><clipPath id="clip-path-3"><path class="cls-1" d="M939,279.52l10.86,12.94a4.58,4.58,0,0,0-3.55-1.62L935.44,277.9A4.58,4.58,0,0,1,939,279.52Z"/></clipPath><clipPath id="clip-path-4"><path class="cls-1" d="M1304,276.82l-10.86-12.94a4.53,4.53,0,0,1-1.05-3.19,5.23,5.23,0,0,1,5.14-4.85l10.87,12.94a5.22,5.22,0,0,0-5.14,4.85A4.51,4.51,0,0,0,1304,276.82Z"/></clipPath><clipPath id="clip-path-5"><path class="cls-1" d="M612.47,996.43l-7.8,1a158.94,158.94,0,0,0,116.42-77.25,162.9,162.9,0,0,0,5.7-154.38A158.93,158.93,0,0,0,563.27,677l7.81-1A159.78,159.78,0,0,1,734.6,764.8a162.94,162.94,0,0,1-5.71,154.38,158.9,158.9,0,0,1-116.42,77.25Z"/></clipPath><clipPath id="clip-path-6"><path class="cls-1" d="M613.73,1006.35l-7.8,1a165,165,0,0,1-18.39,1.34,167,167,0,0,1-26.48-1.64,5,5,0,0,1-4.22-5.65,5,5,0,0,1,4.26-4.27l7.8-1a4.94,4.94,0,0,0-4.25,4.26,5,5,0,0,0,4.22,5.65,166.94,166.94,0,0,0,26.47,1.64A165,165,0,0,0,613.73,1006.35Z"/></clipPath><clipPath id="clip-path-7"><path class="cls-1" d="M562,667.09l7.81-1A168.87,168.87,0,0,0,460,728l-7.8,1A168.88,168.88,0,0,1,562,667.09Z"/></clipPath><clipPath id="clip-path-8"><path class="cls-1" d="M1172.71,605.37l-7.81,1a157.7,157.7,0,0,0,94.16-48,163,163,0,0,0,29.25-180.58l7.81-1a163.07,163.07,0,0,1-29.25,180.58A157.76,157.76,0,0,1,1172.71,605.37Z"/></clipPath><clipPath id="clip-path-9"><path class="cls-1" d="M1174,615.3l-7.8,1a170,170,0,0,1-18.73,1.36,168.29,168.29,0,0,1-120.77-48.13A173.18,173.18,0,0,1,1002,352.31a4.92,4.92,0,0,1,3.5-2.22l7.8-1a4.88,4.88,0,0,0-3.5,2.21,173.2,173.2,0,0,0,24.73,217.23A168.51,168.51,0,0,0,1174,615.3Z"/></clipPath></defs><title>Artboard 5</title><g id="SSG-slow"><g id="Icons"><g id="Server"><polygon class="cls-2" points="307.89 365.95 239.08 325.96 238.99 157.89 307.8 194.27 307.89 365.95"/><polygon class="cls-3" points="307.8 197.88 238.99 157.89 306.06 119.17 374.88 159.16 307.8 197.88"/><polygon class="cls-4" points="374.88 159.16 374.96 327.23 307.89 365.95 307.8 197.88 374.88 159.16"/><polygon class="cls-3" points="366.85 322.16 311.94 353.86 311.94 358.93 370.91 324.88 370.83 166.18 366.78 168.52 366.85 322.16"/><polygon class="cls-2" points="311.86 200.22 311.94 353.86 366.85 322.16 366.78 168.52 311.86 200.22"/><polygon class="cls-4" points="361.24 179.85 361.3 198.06 316.06 224.18 316.01 205.97 361.24 179.85"/><polygon class="cls-5" points="350.38 203.23 348.74 202.28 348.68 190.57 350.31 191.52 350.38 203.23"/><polygon class="cls-6" points="350.31 191.52 348.68 190.57 351.55 188.91 353.18 189.86 350.31 191.52"/><polygon class="cls-7" points="353.18 189.86 353.24 201.58 350.38 203.23 350.31 191.52 353.18 189.86"/><polygon class="cls-5" points="344.53 206.61 342.89 205.66 342.83 193.94 344.47 194.89 344.53 206.61"/><polygon class="cls-6" points="344.47 194.89 342.83 193.94 345.7 192.29 347.33 193.24 344.47 194.89"/><polygon class="cls-7" points="347.33 193.24 347.39 204.95 344.53 206.61 344.47 194.89 347.33 193.24"/><polygon class="cls-5" points="338.68 209.99 337.05 209.03 336.99 197.32 338.62 198.27 338.68 209.99"/><polygon class="cls-6" points="338.62 198.27 336.99 197.32 339.85 195.66 341.49 196.62 338.62 198.27"/><polygon class="cls-7" points="341.49 196.62 341.55 208.33 338.68 209.99 338.62 198.27 341.49 196.62"/><polygon class="cls-5" points="332.83 213.36 331.2 212.41 331.14 200.7 332.77 201.65 332.83 213.36"/><polygon class="cls-6" points="332.77 201.65 331.14 200.7 334 199.04 335.64 199.99 332.77 201.65"/><polygon class="cls-7" points="335.64 199.99 335.7 211.71 332.83 213.36 332.77 201.65 335.64 199.99"/><polygon class="cls-5" points="326.99 216.74 325.35 215.79 325.29 204.07 326.93 205.02 326.99 216.74"/><polygon class="cls-6" points="326.93 205.02 325.29 204.07 328.16 202.42 329.79 203.37 326.93 205.02"/><polygon class="cls-7" points="329.79 203.37 329.85 215.08 326.99 216.74 326.93 205.02 329.79 203.37"/><polygon class="cls-5" points="321.14 220.11 319.5 219.16 319.44 207.45 321.08 208.4 321.14 220.11"/><polygon class="cls-6" points="321.08 208.4 319.44 207.45 322.31 205.79 323.94 206.74 321.08 208.4"/><polygon class="cls-7" points="323.94 206.74 324 218.46 321.14 220.11 321.08 208.4 323.94 206.74"/><polygon class="cls-5" points="356.22 199.86 354.59 198.91 354.53 187.19 356.16 188.14 356.22 199.86"/><polygon class="cls-6" points="356.16 188.14 354.53 187.19 357.39 185.54 359.03 186.49 356.16 188.14"/><polygon class="cls-7" points="359.03 186.49 359.09 198.2 356.22 199.86 356.16 188.14 359.03 186.49"/><polygon class="cls-4" points="361.24 204.07 361.3 222.28 316.06 248.4 316.01 230.19 361.24 204.07"/><polygon class="cls-5" points="350.38 227.46 348.74 226.51 348.68 214.79 350.31 215.74 350.38 227.46"/><polygon class="cls-6" points="350.31 215.74 348.68 214.79 351.55 213.14 353.18 214.09 350.31 215.74"/><polygon class="cls-7" points="353.18 214.09 353.24 225.8 350.38 227.46 350.31 215.74 353.18 214.09"/><polygon class="cls-5" points="344.53 230.83 342.89 229.88 342.83 218.17 344.47 219.12 344.53 230.83"/><polygon class="cls-6" points="344.47 219.12 342.83 218.17 345.7 216.51 347.33 217.46 344.47 219.12"/><polygon class="cls-7" points="347.33 217.46 347.39 229.18 344.53 230.83 344.47 219.12 347.33 217.46"/><polygon class="cls-5" points="338.68 234.21 337.05 233.26 336.99 221.54 338.62 222.5 338.68 234.21"/><polygon class="cls-6" points="338.62 222.5 336.99 221.54 339.85 219.89 341.49 220.84 338.62 222.5"/><polygon class="cls-7" points="341.49 220.84 341.55 232.56 338.68 234.21 338.62 222.5 341.49 220.84"/><polygon class="cls-5" points="332.83 237.59 331.2 236.64 331.14 224.92 332.77 225.87 332.83 237.59"/><polygon class="cls-6" points="332.77 225.87 331.14 224.92 334 223.27 335.64 224.22 332.77 225.87"/><polygon class="cls-7" points="335.64 224.22 335.7 235.93 332.83 237.59 332.77 225.87 335.64 224.22"/><polygon class="cls-5" points="326.99 240.96 325.35 240.01 325.29 228.3 326.93 229.25 326.99 240.96"/><polygon class="cls-6" points="326.93 229.25 325.29 228.3 328.16 226.64 329.79 227.59 326.93 229.25"/><polygon class="cls-7" points="329.79 227.59 329.85 239.31 326.99 240.96 326.93 229.25 329.79 227.59"/><polygon class="cls-5" points="321.14 244.34 319.5 243.39 319.44 231.67 321.08 232.62 321.14 244.34"/><polygon class="cls-6" points="321.08 232.62 319.44 231.67 322.31 230.02 323.94 230.97 321.08 232.62"/><polygon class="cls-7" points="323.94 230.97 324 242.68 321.14 244.34 321.08 232.62 323.94 230.97"/><polygon class="cls-5" points="356.22 224.08 354.59 223.13 354.53 211.42 356.16 212.37 356.22 224.08"/><polygon class="cls-6" points="356.16 212.37 354.53 211.42 357.39 209.76 359.03 210.71 356.16 212.37"/><polygon class="cls-7" points="359.03 210.71 359.09 222.43 356.22 224.08 356.16 212.37 359.03 210.71"/><polygon class="cls-4" points="361.24 228.3 361.3 246.51 316.06 272.63 316.01 254.41 361.24 228.3"/><polygon class="cls-5" points="350.38 251.68 348.74 250.73 348.68 239.02 350.31 239.97 350.38 251.68"/><polygon class="cls-6" points="350.31 239.97 348.68 239.02 351.55 237.36 353.18 238.31 350.31 239.97"/><polygon class="cls-7" points="353.18 238.31 353.24 250.03 350.38 251.68 350.31 239.97 353.18 238.31"/><polygon class="cls-5" points="344.53 255.06 342.89 254.11 342.83 242.39 344.47 243.34 344.53 255.06"/><polygon class="cls-6" points="344.47 243.34 342.83 242.39 345.7 240.74 347.33 241.69 344.47 243.34"/><polygon class="cls-7" points="347.33 241.69 347.39 253.41 344.53 255.06 344.47 243.34 347.33 241.69"/><polygon class="cls-5" points="338.68 258.44 337.05 257.49 336.99 245.77 338.62 246.72 338.68 258.44"/><polygon class="cls-6" points="338.62 246.72 336.99 245.77 339.85 244.12 341.49 245.07 338.62 246.72"/><polygon class="cls-7" points="341.49 245.07 341.55 256.78 338.68 258.44 338.62 246.72 341.49 245.07"/><polygon class="cls-5" points="332.83 261.81 331.2 260.86 331.14 249.15 332.77 250.1 332.83 261.81"/><polygon class="cls-6" points="332.77 250.1 331.14 249.15 334 247.49 335.64 248.44 332.77 250.1"/><polygon class="cls-7" points="335.64 248.44 335.7 260.16 332.83 261.81 332.77 250.1 335.64 248.44"/><polygon class="cls-5" points="326.99 265.19 325.35 264.24 325.29 252.52 326.93 253.47 326.99 265.19"/><polygon class="cls-6" points="326.93 253.47 325.29 252.52 328.16 250.87 329.79 251.82 326.93 253.47"/><polygon class="cls-7" points="329.79 251.82 329.85 263.53 326.99 265.19 326.93 253.47 329.79 251.82"/><polygon class="cls-5" points="321.14 268.56 319.5 267.61 319.44 255.9 321.08 256.85 321.14 268.56"/><polygon class="cls-6" points="321.08 256.85 319.44 255.9 322.31 254.24 323.94 255.19 321.08 256.85"/><polygon class="cls-7" points="323.94 255.19 324 266.91 321.14 268.56 321.08 256.85 323.94 255.19"/><polygon class="cls-5" points="356.22 248.31 354.59 247.36 354.53 235.64 356.16 236.59 356.22 248.31"/><polygon class="cls-6" points="356.16 236.59 354.53 235.64 357.39 233.99 359.03 234.94 356.16 236.59"/><polygon class="cls-7" points="359.03 234.94 359.09 246.65 356.22 248.31 356.16 236.59 359.03 234.94"/><polygon class="cls-4" points="361.24 252.52 361.3 270.73 316.06 296.85 316.01 278.64 361.24 252.52"/><polygon class="cls-5" points="350.38 275.91 348.74 274.96 348.68 263.24 350.31 264.19 350.38 275.91"/><polygon class="cls-6" points="350.31 264.19 348.68 263.24 351.55 261.59 353.18 262.54 350.31 264.19"/><polygon class="cls-7" points="353.18 262.54 353.24 274.25 350.38 275.91 350.31 264.19 353.18 262.54"/><polygon class="cls-5" points="344.53 279.28 342.89 278.33 342.83 266.62 344.47 267.57 344.53 279.28"/><polygon class="cls-6" points="344.47 267.57 342.83 266.62 345.7 264.96 347.33 265.92 344.47 267.57"/><polygon class="cls-7" points="347.33 265.92 347.39 277.63 344.53 279.28 344.47 267.57 347.33 265.92"/><polygon class="cls-5" points="338.68 282.66 337.05 281.71 336.99 270 338.62 270.94 338.68 282.66"/><polygon class="cls-6" points="338.62 270.94 336.99 270 339.85 268.34 341.49 269.29 338.62 270.94"/><polygon class="cls-7" points="341.49 269.29 341.55 281.01 338.68 282.66 338.62 270.94 341.49 269.29"/><polygon class="cls-5" points="332.83 286.04 331.2 285.09 331.14 273.37 332.77 274.32 332.83 286.04"/><polygon class="cls-6" points="332.77 274.32 331.14 273.37 334 271.72 335.64 272.67 332.77 274.32"/><polygon class="cls-7" points="335.64 272.67 335.7 284.38 332.83 286.04 332.77 274.32 335.64 272.67"/><polygon class="cls-5" points="326.99 289.41 325.35 288.46 325.29 276.75 326.93 277.7 326.99 289.41"/><polygon class="cls-6" points="326.93 277.7 325.29 276.75 328.16 275.09 329.79 276.04 326.93 277.7"/><polygon class="cls-7" points="329.79 276.04 329.85 287.76 326.99 289.41 326.93 277.7 329.79 276.04"/><polygon class="cls-5" points="321.14 292.79 319.5 291.84 319.44 280.12 321.08 281.07 321.14 292.79"/><polygon class="cls-6" points="321.08 281.07 319.44 280.12 322.31 278.47 323.94 279.42 321.08 281.07"/><polygon class="cls-7" points="323.94 279.42 324 291.13 321.14 292.79 321.08 281.07 323.94 279.42"/><polygon class="cls-5" points="356.22 272.53 354.59 271.58 354.53 259.87 356.16 260.82 356.22 272.53"/><polygon class="cls-6" points="356.16 260.82 354.53 259.87 357.39 258.21 359.03 259.16 356.16 260.82"/><polygon class="cls-7" points="359.03 259.16 359.09 270.88 356.22 272.53 356.16 260.82 359.03 259.16"/><polygon class="cls-4" points="361.24 276.75 361.3 294.96 316.06 321.08 316.01 302.87 361.24 276.75"/><polygon class="cls-5" points="350.38 300.13 348.74 299.18 348.68 287.47 350.31 288.42 350.38 300.13"/><polygon class="cls-6" points="350.31 288.42 348.68 287.47 351.55 285.81 353.18 286.76 350.31 288.42"/><polygon class="cls-7" points="353.18 286.76 353.24 298.48 350.38 300.13 350.31 288.42 353.18 286.76"/><polygon class="cls-5" points="344.53 303.51 342.89 302.56 342.83 290.85 344.47 291.8 344.53 303.51"/><polygon class="cls-6" points="344.47 291.8 342.83 290.85 345.7 289.19 347.33 290.14 344.47 291.8"/><polygon class="cls-7" points="347.33 290.14 347.39 301.86 344.53 303.51 344.47 291.8 347.33 290.14"/><polygon class="cls-5" points="338.68 306.89 337.05 305.94 336.99 294.22 338.62 295.17 338.68 306.89"/><polygon class="cls-6" points="338.62 295.17 336.99 294.22 339.85 292.57 341.49 293.52 338.62 295.17"/><polygon class="cls-7" points="341.49 293.52 341.55 305.23 338.68 306.89 338.62 295.17 341.49 293.52"/><polygon class="cls-5" points="332.83 310.26 331.2 309.31 331.14 297.6 332.77 298.55 332.83 310.26"/><polygon class="cls-6" points="332.77 298.55 331.14 297.6 334 295.94 335.64 296.89 332.77 298.55"/><polygon class="cls-7" points="335.64 296.89 335.7 308.61 332.83 310.26 332.77 298.55 335.64 296.89"/><polygon class="cls-5" points="326.99 313.64 325.35 312.69 325.29 300.97 326.93 301.92 326.99 313.64"/><polygon class="cls-6" points="326.93 301.92 325.29 300.97 328.16 299.32 329.79 300.27 326.93 301.92"/><polygon class="cls-7" points="329.79 300.27 329.85 311.98 326.99 313.64 326.93 301.92 329.79 300.27"/><polygon class="cls-5" points="321.14 317.01 319.5 316.06 319.44 304.35 321.08 305.3 321.14 317.01"/><polygon class="cls-6" points="321.08 305.3 319.44 304.35 322.31 302.69 323.94 303.64 321.08 305.3"/><polygon class="cls-7" points="323.94 303.64 324 315.36 321.14 317.01 321.08 305.3 323.94 303.64"/><polygon class="cls-5" points="356.22 296.76 354.59 295.81 354.53 284.09 356.16 285.04 356.22 296.76"/><polygon class="cls-6" points="356.16 285.04 354.53 284.09 357.39 282.44 359.03 283.39 356.16 285.04"/><polygon class="cls-7" points="359.03 283.39 359.09 295.1 356.22 296.76 356.16 285.04 359.03 283.39"/><polygon class="cls-4" points="361.24 300.97 361.3 319.18 316.06 345.3 316.01 327.09 361.24 300.97"/><polygon class="cls-5" points="350.38 324.36 348.74 323.41 348.68 311.69 350.31 312.64 350.38 324.36"/><polygon class="cls-6" points="350.31 312.64 348.68 311.69 351.55 310.04 353.18 310.99 350.31 312.64"/><polygon class="cls-7" points="353.18 310.99 353.24 322.7 350.38 324.36 350.31 312.64 353.18 310.99"/><polygon class="cls-5" points="344.53 327.74 342.89 326.79 342.83 315.07 344.47 316.02 344.53 327.74"/><polygon class="cls-6" points="344.47 316.02 342.83 315.07 345.7 313.42 347.33 314.37 344.47 316.02"/><polygon class="cls-7" points="347.33 314.37 347.39 326.08 344.53 327.74 344.47 316.02 347.33 314.37"/><polygon class="cls-5" points="338.68 331.11 337.05 330.16 336.99 318.45 338.62 319.4 338.68 331.11"/><polygon class="cls-6" points="338.62 319.4 336.99 318.45 339.85 316.79 341.49 317.74 338.62 319.4"/><polygon class="cls-7" points="341.49 317.74 341.55 329.46 338.68 331.11 338.62 319.4 341.49 317.74"/><polygon class="cls-5" points="332.83 334.49 331.2 333.54 331.14 321.82 332.77 322.77 332.83 334.49"/><polygon class="cls-6" points="332.77 322.77 331.14 321.82 334 320.17 335.64 321.12 332.77 322.77"/><polygon class="cls-7" points="335.64 321.12 335.7 332.83 332.83 334.49 332.77 322.77 335.64 321.12"/><polygon class="cls-5" points="326.99 337.86 325.35 336.91 325.29 325.2 326.93 326.15 326.99 337.86"/><polygon class="cls-6" points="326.93 326.15 325.29 325.2 328.16 323.54 329.79 324.49 326.93 326.15"/><polygon class="cls-7" points="329.79 324.49 329.85 336.21 326.99 337.86 326.93 326.15 329.79 324.49"/><polygon class="cls-5" points="321.14 341.24 319.5 340.29 319.44 328.57 321.08 329.52 321.14 341.24"/><polygon class="cls-6" points="321.08 329.52 319.44 328.57 322.31 326.92 323.94 327.87 321.08 329.52"/><polygon class="cls-7" points="323.94 327.87 324 339.58 321.14 341.24 321.08 329.52 323.94 327.87"/><polygon class="cls-5" points="356.22 320.98 354.59 320.03 354.53 308.32 356.16 309.27 356.22 320.98"/><polygon class="cls-6" points="356.16 309.27 354.53 308.32 357.39 306.66 359.03 307.61 356.16 309.27"/><polygon class="cls-7" points="359.03 307.61 359.09 319.33 356.22 320.98 356.16 309.27 359.03 307.61"/><path class="cls-3" d="M244.37,316c-.24-.14-.44,0-.44.25a1,1,0,0,0,.44.77l10.74,6.2c.25.14.45,0,.45-.26a1,1,0,0,0-.44-.76Z"/><path class="cls-3" d="M244.38,313.65c-.24-.14-.44,0-.44.26a1,1,0,0,0,.44.76l10.74,6.2c.24.14.44,0,.44-.25a1,1,0,0,0-.44-.77Z"/><path class="cls-3" d="M244.39,311.29c-.24-.14-.44,0-.44.25a.93.93,0,0,0,.44.76l10.74,6.21c.24.14.44,0,.44-.26a1,1,0,0,0-.44-.76Z"/><path class="cls-3" d="M244.39,308.92c-.24-.14-.44,0-.44.25a1,1,0,0,0,.44.77l10.74,6.2c.25.14.45,0,.45-.25a1,1,0,0,0-.44-.77Z"/><path class="cls-3" d="M244.41,304.19c-.24-.14-.44,0-.44.25a.93.93,0,0,0,.44.76l10.74,6.2c.24.14.44,0,.44-.25a1,1,0,0,0-.44-.76Z"/><path class="cls-3" d="M244.4,306.55c-.24-.13-.44,0-.44.26a1,1,0,0,0,.44.76l10.74,6.2c.24.14.44,0,.44-.25a1,1,0,0,0-.44-.76Z"/><path class="cls-3" d="M244.37,294.47a.27.27,0,0,0-.44.25,1,1,0,0,0,.44.77l10.74,6.2c.25.14.45,0,.45-.26a1,1,0,0,0-.44-.76Z"/><path class="cls-3" d="M244.38,292.1c-.24-.14-.44,0-.44.26a1,1,0,0,0,.44.76l10.74,6.21c.24.14.44,0,.44-.26a1,1,0,0,0-.44-.76Z"/><path class="cls-3" d="M244.39,289.74c-.24-.14-.44,0-.44.25a.94.94,0,0,0,.44.77l10.74,6.2a.27.27,0,0,0,.44-.25,1,1,0,0,0-.44-.77Z"/><path class="cls-3" d="M244.39,287.38c-.24-.14-.44,0-.44.25a1,1,0,0,0,.44.76l10.74,6.2c.25.14.45,0,.45-.25a1,1,0,0,0-.44-.76Z"/><path class="cls-3" d="M244.41,282.64c-.24-.14-.44,0-.44.25a.94.94,0,0,0,.44.77l10.74,6.2c.24.14.44,0,.44-.26a1,1,0,0,0-.44-.76Z"/><path class="cls-3" d="M244.4,285c-.24-.14-.44,0-.44.25a1,1,0,0,0,.44.76l10.74,6.2c.24.14.44,0,.44-.25a1,1,0,0,0-.44-.76Z"/><path class="cls-3" d="M244.37,272.92c-.24-.14-.44,0-.44.26a1,1,0,0,0,.44.76l10.74,6.21c.25.14.45,0,.45-.26a1,1,0,0,0-.44-.76Z"/><path class="cls-3" d="M244.38,270.56c-.24-.14-.44,0-.44.26a1,1,0,0,0,.44.76l10.74,6.2a.27.27,0,0,0,.44-.25,1,1,0,0,0-.44-.77Z"/><path class="cls-3" d="M244.39,268.2c-.24-.14-.44,0-.44.25a.93.93,0,0,0,.44.76l10.74,6.2c.24.14.44,0,.44-.25a1,1,0,0,0-.44-.76Z"/><path class="cls-3" d="M244.39,265.83c-.24-.14-.44,0-.44.25a1,1,0,0,0,.44.76l10.74,6.2c.25.14.45,0,.45-.25a1,1,0,0,0-.44-.76Z"/><path class="cls-3" d="M244.41,261.09c-.24-.14-.44,0-.44.26a.94.94,0,0,0,.44.76l10.74,6.2c.24.14.44,0,.44-.25a1,1,0,0,0-.44-.76Z"/><path class="cls-3" d="M244.4,263.46c-.24-.14-.44,0-.44.25a1,1,0,0,0,.44.77l10.74,6.2a.27.27,0,0,0,.44-.25,1,1,0,0,0-.44-.77Z"/><path class="cls-3" d="M244.37,251.38c-.24-.14-.44,0-.44.25a1,1,0,0,0,.44.77l10.74,6.2c.25.14.45,0,.45-.26a1,1,0,0,0-.44-.76Z"/><path class="cls-3" d="M244.38,249c-.24-.14-.44,0-.44.26a1,1,0,0,0,.44.76l10.74,6.2c.24.14.44,0,.44-.25a1,1,0,0,0-.44-.77Z"/><path class="cls-3" d="M244.39,246.65c-.24-.14-.44,0-.44.25a.93.93,0,0,0,.44.76l10.74,6.2c.24.14.44,0,.44-.25a1,1,0,0,0-.44-.76Z"/><path class="cls-3" d="M244.39,244.28c-.24-.14-.44,0-.44.25a1,1,0,0,0,.44.77l10.74,6.2c.25.14.45,0,.45-.25a1,1,0,0,0-.44-.77Z"/><path class="cls-3" d="M244.41,239.55c-.24-.14-.44,0-.44.25a.93.93,0,0,0,.44.76l10.74,6.2c.24.14.44,0,.44-.25a1,1,0,0,0-.44-.76Z"/><path class="cls-3" d="M244.4,241.91c-.24-.14-.44,0-.44.26a1,1,0,0,0,.44.76l10.74,6.2c.24.14.44,0,.44-.25a.94.94,0,0,0-.44-.76Z"/><path class="cls-3" d="M244.37,229.83c-.24-.14-.44,0-.44.25a1,1,0,0,0,.44.77l10.74,6.2c.25.14.45,0,.45-.26a1,1,0,0,0-.44-.76Z"/><path class="cls-3" d="M244.38,227.46c-.24-.14-.44,0-.44.26a1,1,0,0,0,.44.76l10.74,6.21c.24.13.44,0,.44-.26a1,1,0,0,0-.44-.77Z"/><path class="cls-3" d="M244.39,225.1c-.24-.14-.44,0-.44.25a.94.94,0,0,0,.44.77l10.74,6.2a.27.27,0,0,0,.44-.25,1,1,0,0,0-.44-.77Z"/><path class="cls-3" d="M244.39,222.73c-.24-.14-.44,0-.44.26a1,1,0,0,0,.44.76l10.74,6.2c.25.14.45,0,.45-.25a1,1,0,0,0-.44-.76Z"/><path class="cls-3" d="M244.41,218c-.24-.14-.44,0-.44.25a.93.93,0,0,0,.44.76l10.74,6.21c.24.14.44,0,.44-.26a1,1,0,0,0-.44-.76Z"/><path class="cls-3" d="M244.4,220.37c-.24-.14-.44,0-.44.25a1,1,0,0,0,.44.76l10.74,6.2c.24.14.44,0,.44-.25a1,1,0,0,0-.44-.76Z"/><path class="cls-3" d="M244.37,208.28c-.24-.14-.44,0-.44.26a1,1,0,0,0,.44.76l10.74,6.21c.25.14.45,0,.45-.26a1,1,0,0,0-.44-.77Z"/><path class="cls-3" d="M244.38,205.92c-.24-.14-.44,0-.44.25a1,1,0,0,0,.44.77l10.74,6.2a.27.27,0,0,0,.44-.25,1,1,0,0,0-.44-.77Z"/><path class="cls-3" d="M244.39,203.55c-.24-.13-.44,0-.44.26a.94.94,0,0,0,.44.76l10.74,6.2c.24.14.44,0,.44-.25a1,1,0,0,0-.44-.76Z"/><path class="cls-3" d="M244.39,201.19c-.24-.14-.44,0-.44.25a1,1,0,0,0,.44.76l10.74,6.2c.25.14.45,0,.45-.25a1,1,0,0,0-.44-.76Z"/><path class="cls-3" d="M244.41,196.45c-.24-.14-.44,0-.44.26a.94.94,0,0,0,.44.76l10.74,6.2a.27.27,0,0,0,.44-.25,1,1,0,0,0-.44-.77Z"/><path class="cls-3" d="M244.4,198.82c-.24-.14-.44,0-.44.25a1,1,0,0,0,.44.76L255.14,206c.24.14.44,0,.44-.26a1,1,0,0,0-.44-.76Z"/><path class="cls-3" d="M244.37,186.74c-.24-.14-.44,0-.44.25a1,1,0,0,0,.44.77l10.74,6.2c.25.14.45,0,.45-.26a1,1,0,0,0-.44-.76Z"/><path class="cls-3" d="M244.38,184.37c-.24-.14-.44,0-.44.26a1,1,0,0,0,.44.76l10.74,6.2c.24.14.44,0,.44-.25a1,1,0,0,0-.44-.77Z"/><path class="cls-3" d="M244.39,182c-.24-.14-.44,0-.44.25a.93.93,0,0,0,.44.76l10.74,6.2c.24.14.44,0,.44-.25a1,1,0,0,0-.44-.76Z"/><path class="cls-3" d="M244.39,179.64c-.24-.14-.44,0-.44.25a1,1,0,0,0,.44.77l10.74,6.2c.25.14.45,0,.45-.26a1,1,0,0,0-.44-.76Z"/><path class="cls-3" d="M244.41,174.91c-.24-.14-.44,0-.44.25a.93.93,0,0,0,.44.76l10.74,6.2c.24.14.44,0,.44-.25a1,1,0,0,0-.44-.76Z"/><path class="cls-3" d="M244.4,177.27c-.24-.14-.44,0-.44.26a1,1,0,0,0,.44.76l10.74,6.2c.24.14.44,0,.44-.25a.92.92,0,0,0-.44-.76Z"/><polygon class="cls-2" points="314.38 369.72 307.89 365.95 307.8 197.88 314.3 201.66 314.38 369.72"/><polygon class="cls-2" points="314.3 201.66 307.8 197.88 374.88 159.16 381.37 162.93 314.3 201.66"/><path class="cls-4" d="M314.3,201.66l.09,168.06L381.45,331,381.35,163Zm7.75,0,52.42-30.24,0,147.37L322.14,349Z"/><polygon class="cls-8" points="322.07 201.66 322.15 355.4 374.52 325.16 374.44 171.42 322.07 201.66"/><polygon class="cls-8" points="367.53 329.19 322.13 304.7 322.13 309.93 362.18 332.28 367.53 329.19"/><polygon class="cls-8" points="374.51 312.94 322.12 285.66 322.12 298.89 373.48 325.76 374.52 325.16 374.51 312.94"/><polygon class="cls-8" points="322.1 255.34 374.5 276.27 374.49 271.04 322.1 250.11 322.1 255.34"/><polygon class="cls-8" points="322.1 244.29 374.49 265.23 374.48 252 322.09 231.06 322.1 244.29"/><polygon class="cls-8" points="323.01 201.12 374.47 221.68 374.47 216.45 328.36 198.03 323.01 201.12"/><polygon class="cls-8" points="334.31 194.59 374.46 210.63 374.46 197.41 347.85 186.78 334.31 194.59"/><g class="cls-9"><path class="cls-10" d="M318.36,283.2l2.72,1.57,0-9.67a4.92,4.92,0,0,0-2.23-3.86l-2.94-1.7,2.46-1.42,2.95,1.7a4.86,4.86,0,0,1,2.22,3.85l0,11.66a1.55,1.55,0,0,1-.65,1.43l-2.47,1.44a1.59,1.59,0,0,0,.66-1.44v-1.38l-1.72,1a.5.5,0,0,1-.53-.06l-2.95-1.69Z"/></g><path class="cls-11" d="M318.87,271.25a4.91,4.91,0,0,1,2.23,3.85l0,11.66c0,1.41-1,2-2.24,1.28l-2.95-1.7v-1.71l2.94,1.7c.41.23.74,0,.74-.43l0-11.66a1.66,1.66,0,0,0-.74-1.29l-2.95-1.7v-1.7Z"/></g><g id="Dev_Laptop" data-name="Dev Laptop"><path class="cls-12" d="M242.92,883.71l87,50.57a7.31,7.31,0,0,0,6.66,0L468.84,858c1.84-1.06,1.84-2.79,0-3.86l-87-50.58a7.39,7.39,0,0,0-6.64,0L242.94,879.85C241.1,880.93,241.08,882.65,242.92,883.71Z"/><path class="cls-4" d="M345.76,888.85a1.15,1.15,0,0,0,0,2.18l21.45,12.46a4.15,4.15,0,0,0,3.76,0l42.27-24.41a1.14,1.14,0,0,0,0-2.17l-21.45-12.47a4.15,4.15,0,0,0-3.76,0Z"/><path class="cls-11" d="M241.56,881.8v5.09a2.37,2.37,0,0,0,1.37,1.91l87,50.57a7.37,7.37,0,0,0,6.66,0L468.85,863a2.34,2.34,0,0,0,1.39-1.95l0-5.07a2.34,2.34,0,0,1-1.38,1.93L336.61,934.3a7.31,7.31,0,0,1-6.66,0l-87-50.57A2.29,2.29,0,0,1,241.56,881.8Z"/><path class="cls-2" d="M374.91,702.82c1.84-1.07,3.34-.21,3.35,1.91l.24,93a7.36,7.36,0,0,1-3.33,5.76L244.85,878.75c-1.85,1.06-3.35.2-3.35-1.91l-.24-93a7.38,7.38,0,0,1,3.33-5.76Z"/><path class="cls-3" d="M237.76,781.79l.24,93a2.35,2.35,0,0,0,1,2.14l3.49,2a2.32,2.32,0,0,1-1-2.14l-.24-93a7.35,7.35,0,0,1,3.33-5.77l130.32-75.23a2.41,2.41,0,0,1,2.38-.24l-3.5-2a2.39,2.39,0,0,0-2.37.24L241.09,776A7.35,7.35,0,0,0,237.76,781.79Z"/><polygon class="cls-3" points="245.97 782.68 246.19 872.55 373.79 798.89 373.56 709.02 245.97 782.68"/><polygon class="cls-12" points="245.97 782.68 246 797.75 373.6 724.09 373.56 709.02 245.97 782.68"/><path class="cls-13" d="M352.53,726.85c1.23-.71,2.23-.16,2.23,1.25a4.9,4.9,0,0,1-2.22,3.84c-1.21.7-2.21.13-2.21-1.28A4.84,4.84,0,0,1,352.53,726.85Z"/><path class="cls-13" d="M359.63,722.75c1.21-.7,2.21-.15,2.21,1.26a4.89,4.89,0,0,1-2.19,3.83c-1.23.71-2.23.14-2.24-1.27A4.86,4.86,0,0,1,359.63,722.75Z"/><path class="cls-13" d="M366.72,718.66c1.23-.71,2.23-.17,2.23,1.25a4.9,4.9,0,0,1-2.22,3.84c-1.23.71-2.23.14-2.23-1.27A4.84,4.84,0,0,1,366.72,718.66Z"/><polygon class="cls-3" points="269.61 877.47 261.26 882.32 257.66 880.24 266.01 875.39 269.61 877.47"/><polygon class="cls-3" points="359.49 825.24 351.12 830.1 347.52 828.02 355.89 823.16 359.49 825.24"/><polygon class="cls-3" points="381.95 812.18 373.59 817.04 369.99 814.96 378.36 810.1 381.95 812.18"/><polygon class="cls-3" points="366.96 842.58 358.61 847.43 351.18 843.14 359.54 838.29 366.96 842.58"/><polygon class="cls-3" points="408.16 840.33 399.8 845.19 392.36 840.9 400.72 836.04 408.16 840.33"/><polygon class="cls-3" points="419.4 833.8 411.04 838.66 394.23 828.96 402.6 824.1 419.4 833.8"/><g class="cls-9"><polygon class="cls-3" points="391.32 817.59 375.9 826.55 368.46 822.25 383.88 813.29 391.32 817.59"/><polygon class="cls-3" points="373.03 828.21 364.67 833.07 357.23 828.78 365.59 823.92 373.03 828.21"/><polygon class="cls-3" points="400.67 822.99 381.07 834.38 373.64 830.09 393.24 818.7 400.67 822.99"/><polygon class="cls-3" points="378.2 836.04 369.84 840.9 362.41 836.62 370.77 831.76 378.2 836.04"/><polygon class="cls-3" points="387.57 841.45 379.2 846.31 371.76 842.02 380.13 837.16 387.57 841.45"/></g><polygon class="cls-3" points="361.79 834.75 353.43 839.61 345.99 835.31 354.35 830.45 361.79 834.75"/><polygon class="cls-3" points="348.24 831.77 339.89 836.62 336.29 834.55 344.65 829.69 348.24 831.77"/><polygon class="cls-3" points="337.02 838.29 328.65 843.15 325.05 841.08 333.42 836.22 337.02 838.29"/><polygon class="cls-3" points="342.63 867.57 334.26 872.43 326.83 868.13 335.19 863.27 342.63 867.57"/><g class="cls-9"><polygon class="cls-3" points="325.78 844.83 317.42 849.68 313.82 847.6 322.18 842.75 325.78 844.83"/><polygon class="cls-3" points="339.32 847.8 330.97 852.66 323.53 848.36 331.88 843.51 339.32 847.8"/><polygon class="cls-3" points="314.55 851.35 306.18 856.21 302.58 854.13 310.95 849.27 314.55 851.35"/><polygon class="cls-3" points="328.09 854.33 319.73 859.19 312.29 854.89 320.65 850.03 328.09 854.33"/><polygon class="cls-3" points="344.49 855.63 336.14 860.49 328.71 856.2 337.07 851.35 344.49 855.63"/><polygon class="cls-3" points="303.32 857.88 294.95 862.74 291.36 860.66 299.72 855.8 303.32 857.88"/><polygon class="cls-3" points="316.87 860.85 308.5 865.71 301.06 861.42 309.43 856.56 316.87 860.85"/><polygon class="cls-3" points="353.86 861.04 345.5 865.89 338.07 861.6 346.42 856.75 353.86 861.04"/><polygon class="cls-3" points="333.26 862.16 324.9 867.02 317.47 862.73 325.84 857.87 333.26 862.16"/><polygon class="cls-3" points="292.08 864.41 283.71 869.27 280.12 867.19 288.48 862.33 292.08 864.41"/><polygon class="cls-3" points="305.63 867.39 297.26 872.25 289.82 867.95 298.19 863.09 305.63 867.39"/><polygon class="cls-3" points="322.04 868.68 313.67 873.54 306.25 869.26 314.61 864.4 322.04 868.68"/><polygon class="cls-3" points="294.4 873.91 286.03 878.77 278.59 874.48 286.96 869.62 294.4 873.91"/><polygon class="cls-3" points="331.4 874.09 323.04 878.95 315.6 874.66 323.96 869.8 331.4 874.09"/><polygon class="cls-3" points="310.8 875.22 302.43 880.08 295 875.79 303.37 870.93 310.8 875.22"/><polygon class="cls-3" points="320.16 880.62 311.8 885.48 304.36 881.19 312.72 876.33 320.16 880.62"/><polygon class="cls-3" points="363.7 866.17 321.16 890.89 313.72 886.6 356.26 861.87 363.7 866.17"/><polygon class="cls-3" points="308.93 887.15 300.57 892.01 293.13 887.71 301.49 882.85 308.93 887.15"/><polygon class="cls-3" points="299.57 881.74 279.98 893.13 272.55 888.84 292.14 877.45 299.57 881.74"/><polygon class="cls-3" points="297.69 893.68 289.34 898.53 281.9 894.24 290.25 889.38 297.69 893.68"/><polygon class="cls-3" points="318.3 892.55 298.7 903.94 291.26 899.65 310.86 888.26 318.3 892.55"/></g><polygon class="cls-3" points="280.85 870.93 272.49 875.79 268.89 873.72 277.25 868.86 280.85 870.93"/><polygon class="cls-3" points="370.71 818.71 362.35 823.57 358.75 821.5 367.12 816.63 370.71 818.71"/><polygon class="cls-3" points="350.56 841.27 342.2 846.13 334.76 841.84 343.12 836.98 350.56 841.27"/><polygon class="cls-3" points="374.46 859.91 366.1 864.77 358.66 860.48 367.02 855.62 374.46 859.91"/><polygon class="cls-3" points="365.1 854.51 356.73 859.37 349.3 855.07 357.66 850.21 365.1 854.51"/><polygon class="cls-3" points="355.73 849.1 347.37 853.96 339.94 849.67 348.31 844.81 355.73 849.1"/><polygon class="cls-3" points="396.93 846.86 388.57 851.72 381.13 847.42 389.49 842.56 396.93 846.86"/><polygon class="cls-3" points="385.69 853.39 377.34 858.24 369.9 853.95 378.25 849.09 385.69 853.39"/><polygon class="cls-3" points="283.16 880.44 270.62 887.73 263.18 883.43 275.72 876.15 283.16 880.44"/><path class="cls-14" d="M257.83,806.43c1.62-.93,2.57-.73,3.26-.11l-.92,1.49c-.59-.59-1.34-.54-2.27,0a6.74,6.74,0,0,0-3.06,5.71c0,2.26,1.21,3.25,3.09,2.17a5.61,5.61,0,0,0,2.25-2.63l.93.43a8,8,0,0,1-3.25,3.66c-2.65,1.53-4.43.21-4.44-2.81A9.52,9.52,0,0,1,257.83,806.43Z"/><path class="cls-14" d="M263.79,811.34a.63.63,0,0,1,1,.58,2.27,2.27,0,0,1-1,1.74c-.55.32-1,.06-1-.57A2.24,2.24,0,0,1,263.79,811.34Z"/><ellipse class="cls-14" cx="263.77" cy="804.27" rx="1.42" ry="0.82" transform="translate(-564.13 628.22) rotate(-59.84)"/><polygon class="cls-14" points="266.86 797.16 271.26 809.57 270.17 810.2 265.78 797.78 266.86 797.16"/><polygon class="cls-14" points="275.43 790.78 283.1 795.16 275.48 808.38 274.25 807.68 280.66 796.57 274.2 792.9 275.43 790.78"/><polygon class="cls-14" points="291.67 795.18 291.68 798.48 283.65 803.11 283.64 799.82 291.67 795.18"/></g><g id="User_Laptop" data-name="User Laptop"><path class="cls-10" d="M1057,291l116.65-67.35a6.52,6.52,0,0,1,5.87,0L1243,260.52c1.62,1,1.62,2.47,0,3.41l-116.66,67.36a6.46,6.46,0,0,1-5.87,0L1057,294.42C1055.38,293.49,1055.4,292,1057,291Z"/><path class="cls-15" d="M1178.19,270.48a3.32,3.32,0,0,1,3,0l17.23,10a.93.93,0,0,1,0,1.75l-34,19.59a3.35,3.35,0,0,1-3,0l-17.22-10a.93.93,0,0,1,0-1.75Z"/><path class="cls-15" d="M1057,294.42l63.41,36.85a6.46,6.46,0,0,0,5.87,0L1243,263.93a2.08,2.08,0,0,0,1.22-1.7v6.13a2.08,2.08,0,0,1-1.22,1.72l-116.65,67.34a6.54,6.54,0,0,1-5.88,0L1057,300.57a2.08,2.08,0,0,1-1.2-1.69l0-6.15A2,2,0,0,0,1057,294.42Z"/><polygon class="cls-3" points="1165.8 238.8 1167.99 240.08 1162.71 243.13 1160.52 241.85 1165.8 238.8"/><polygon class="cls-3" points="1201.69 243.22 1206.53 246.04 1194.15 253.18 1189.31 250.37 1201.69 243.22"/><polygon class="cls-3" points="1195.6 239.69 1200.44 242.5 1195.16 245.55 1190.32 242.74 1195.6 239.69"/><polygon class="cls-3" points="1188.5 243.78 1193.34 246.6 1188.06 249.65 1183.22 246.83 1188.5 243.78"/><polygon class="cls-3" points="1189.51 236.15 1194.35 238.96 1181.97 246.1 1177.13 243.29 1189.51 236.15"/><polygon class="cls-3" points="1175.32 244.34 1180.16 247.15 1174.88 250.2 1170.04 247.39 1175.32 244.34"/><polygon class="cls-3" points="1166.6 242.33 1171.43 245.13 1166.15 248.18 1161.32 245.38 1166.6 242.33"/><polygon class="cls-3" points="1173.69 238.24 1178.52 241.04 1173.24 244.09 1168.41 241.28 1173.69 238.24"/><polygon class="cls-3" points="1172.89 234.71 1175.08 235.98 1169.8 239.03 1167.61 237.76 1172.89 234.71"/><polygon class="cls-3" points="1183.43 232.61 1188.26 235.42 1180.34 239.99 1175.51 237.19 1183.43 232.61"/><polygon class="cls-3" points="1179.99 230.61 1182.18 231.88 1176.9 234.93 1174.71 233.66 1179.99 230.61"/><polygon class="cls-3" points="1137.42 255.19 1139.61 256.46 1134.33 259.51 1132.14 258.24 1137.42 255.19"/><polygon class="cls-3" points="1138.22 258.71 1143.05 261.52 1137.77 264.57 1132.94 261.76 1138.22 258.71"/><polygon class="cls-3" points="1145.31 254.62 1150.14 257.43 1144.86 260.47 1140.03 257.67 1145.31 254.62"/><polygon class="cls-3" points="1167.22 256.07 1172.06 258.88 1166.78 261.93 1161.94 259.12 1167.22 256.07"/><polygon class="cls-3" points="1160.13 260.17 1164.96 262.98 1159.68 266.03 1154.84 263.22 1160.13 260.17"/><g class="cls-9"><polygon class="cls-3" points="1158.7 242.9 1160.89 244.17 1155.61 247.22 1153.42 245.95 1158.7 242.9"/><polygon class="cls-3" points="1151.61 247 1153.8 248.27 1148.52 251.32 1146.33 250.05 1151.61 247"/><polygon class="cls-3" points="1159.5 246.43 1164.33 249.23 1159.05 252.28 1154.22 249.48 1159.5 246.43"/><polygon class="cls-3" points="1168.22 248.44 1173.06 251.25 1167.78 254.3 1162.94 251.49 1168.22 248.44"/><polygon class="cls-3" points="1152.41 250.52 1157.24 253.33 1151.96 256.38 1147.13 253.57 1152.41 250.52"/><polygon class="cls-3" points="1174.31 251.98 1179.15 254.79 1173.87 257.84 1169.03 255.03 1174.31 251.98"/><polygon class="cls-3" points="1161.13 252.53 1165.97 255.34 1160.69 258.39 1155.85 255.58 1161.13 252.53"/><polygon class="cls-3" points="1187.5 251.42 1192.33 254.22 1158.67 273.66 1153.85 270.85 1187.5 251.42"/></g><polygon class="cls-3" points="1144.51 251.09 1146.7 252.37 1141.42 255.42 1139.23 254.14 1144.51 251.09"/><polygon class="cls-3" points="1130.33 259.28 1132.52 260.55 1127.23 263.61 1125.04 262.34 1130.33 259.28"/><polygon class="cls-3" points="1116.14 267.47 1118.33 268.75 1113.05 271.79 1110.86 270.52 1116.14 267.47"/><g class="cls-9"><polygon class="cls-3" points="1154.03 256.63 1158.87 259.44 1153.59 262.49 1148.75 259.68 1154.03 256.63"/><polygon class="cls-3" points="1146.94 260.72 1151.78 263.53 1146.5 266.58 1141.66 263.77 1146.94 260.72"/></g><polygon class="cls-3" points="1139.85 264.82 1144.69 267.63 1139.4 270.68 1134.56 267.87 1139.85 264.82"/><polygon class="cls-3" points="1131.12 262.81 1135.95 265.62 1130.68 268.66 1125.85 265.86 1131.12 262.81"/><polygon class="cls-3" points="1132.76 268.91 1137.59 271.73 1132.31 274.77 1127.47 271.96 1132.76 268.91"/><polygon class="cls-3" points="1137.85 280.09 1142.68 282.9 1137.4 285.95 1132.57 283.14 1137.85 280.09"/><polygon class="cls-3" points="1131.76 276.55 1136.59 279.36 1131.31 282.41 1126.47 279.6 1131.76 276.55"/><polygon class="cls-3" points="1125.66 273.01 1130.5 275.82 1118.12 282.97 1113.29 280.15 1125.66 273.01"/><g class="cls-9"><polygon class="cls-3" points="1109.04 271.57 1111.23 272.84 1105.95 275.89 1103.76 274.62 1109.04 271.57"/><polygon class="cls-3" points="1116.94 271 1121.77 273.8 1112.03 279.43 1107.2 276.62 1116.94 271"/></g><polygon class="cls-3" points="1124.03 266.9 1128.86 269.71 1123.58 272.76 1118.75 269.95 1124.03 266.9"/><polygon class="cls-3" points="1123.23 263.38 1125.42 264.65 1120.14 267.7 1117.95 266.43 1123.23 263.38"/><polygon class="cls-3" points="1098.27 288.82 1103.11 291.63 1097.83 294.68 1092.99 291.87 1098.27 288.82"/><polygon class="cls-3" points="1084.08 297.01 1088.92 299.83 1083.64 302.88 1078.8 300.06 1084.08 297.01"/><polygon class="cls-3" points="1117.55 291.8 1122.39 294.61 1117.11 297.66 1112.27 294.85 1117.55 291.8"/><g class="cls-9"><polygon class="cls-3" points="1095.85 279.19 1098.04 280.46 1092.76 283.51 1090.57 282.24 1095.85 279.19"/><polygon class="cls-3" points="1099.29 281.19 1104.12 284 1098.84 287.05 1094.01 284.24 1099.29 281.19"/><polygon class="cls-3" points="1088.75 283.29 1090.94 284.56 1085.66 287.61 1083.47 286.34 1088.75 283.29"/><polygon class="cls-3" points="1105.37 284.72 1110.21 287.54 1104.93 290.58 1100.09 287.77 1105.37 284.72"/><polygon class="cls-3" points="1092.19 285.29 1097.02 288.09 1091.74 291.14 1086.91 288.34 1092.19 285.29"/><polygon class="cls-3" points="1111.46 288.26 1116.3 291.07 1111.02 294.12 1106.18 291.31 1111.46 288.26"/><polygon class="cls-3" points="1085.1 289.38 1089.93 292.19 1084.65 295.24 1079.82 292.43 1085.1 289.38"/><polygon class="cls-3" points="1104.36 292.36 1109.2 295.17 1103.92 298.22 1099.08 295.41 1104.36 292.36"/><polygon class="cls-3" points="1091.18 292.92 1096.02 295.73 1090.74 298.78 1085.9 295.96 1091.18 292.92"/><polygon class="cls-3" points="1097.27 296.45 1102.11 299.27 1096.83 302.32 1091.99 299.5 1097.27 296.45"/></g><polygon class="cls-3" points="1181.41 247.88 1186.25 250.69 1180.97 253.74 1176.13 250.93 1181.41 247.88"/><polygon class="cls-3" points="1152.04 271.89 1156.87 274.71 1151.58 277.76 1146.75 274.95 1152.04 271.89"/><polygon class="cls-3" points="1145.94 268.36 1150.78 271.17 1145.49 274.22 1140.65 271.41 1145.94 268.36"/><polygon class="cls-3" points="1144.94 275.99 1149.78 278.81 1144.49 281.85 1139.66 279.04 1144.94 275.99"/><polygon class="cls-3" points="1138.85 272.45 1143.68 275.27 1138.4 278.31 1133.57 275.5 1138.85 272.45"/><polygon class="cls-3" points="1153.04 264.26 1157.87 267.07 1152.59 270.12 1147.75 267.31 1153.04 264.26"/><polygon class="cls-3" points="1130.75 284.19 1135.59 287 1130.31 290.05 1125.47 287.24 1130.75 284.19"/><polygon class="cls-3" points="1078 293.48 1082.83 296.29 1077.55 299.33 1072.72 296.53 1078 293.48"/><polygon class="cls-3" points="1074.56 291.48 1076.75 292.75 1071.47 295.8 1069.28 294.53 1074.56 291.48"/><polygon class="cls-3" points="1081.66 287.38 1083.85 288.65 1078.57 291.7 1076.38 290.43 1081.66 287.38"/><polygon class="cls-3" points="1110.45 295.9 1115.29 298.71 1110.01 301.76 1105.17 298.95 1110.45 295.9"/><polygon class="cls-3" points="1090.17 300.55 1101.1 306.9 1095.82 309.95 1084.89 303.6 1090.17 300.55"/><polygon class="cls-3" points="1103.37 300 1108.2 302.81 1102.92 305.86 1098.08 303.04 1103.37 300"/><path class="cls-2" d="M1173.45,134.84c1.62-.94,3-.19,3,1.68l.21,82.07a6.47,6.47,0,0,1-2.94,5.08l-115,66.38c-1.62.93-2.94.17-3-1.69l-.21-82.07a6.49,6.49,0,0,1,2.94-5.08Z"/><path class="cls-3" d="M1055.39,199.43l115-66.38a2.12,2.12,0,0,1,2.1-.21l3.08,1.79a2.1,2.1,0,0,0-2.09.21l-115,66.37a6.49,6.49,0,0,0-2.94,5.09l.21,82.06a2.06,2.06,0,0,0,.86,1.89l-3.08-1.8a2,2,0,0,1-.86-1.88l-.21-82.07A6.47,6.47,0,0,1,1055.39,199.43Z"/><polygon class="cls-14" points="1172.26 140.31 1172.46 219.59 1059.89 284.58 1059.69 205.29 1172.26 140.31"/><polygon class="cls-3" points="1072.18 305.08 1072.17 307.93 1078.24 311.44 1078.25 308.58 1072.18 305.08"/><polygon class="cls-3" points="1061.26 298.78 1061.25 301.63 1067.32 305.13 1067.33 302.28 1061.26 298.78"/><path class="cls-3" d="M1045.07,328.27a2.06,2.06,0,0,1-1.16-1.76,2.12,2.12,0,0,1,1.17-1.79L1075,307.45l.84,1.45-29.92,17.27c-.25.15-.34.29-.34.34s.08.17.33.31l39.14,22.74-.85,1.45Z"/><g class="cls-9"><path class="cls-14" d="M1069.34,352.46a3.87,3.87,0,0,0,5.08,2.49c2.18-.69,5.69.3,9.24,1.67,4.57,1.77,6.87,3.84,7.82,5.93,1.7,3.78,5.46,6.31,9.56,5.68a26.71,26.71,0,0,0,9.17-3.26c6.44-3.75,8.7-8.52,2.29-12.23-6.74-2.87-11.72-5.53-14.42-7.91a12,12,0,0,0-3.39-2.23c-6.25-2.49-14.34-1.63-20.09,1.67C1070.56,346.62,1068.64,349.63,1069.34,352.46Z"/><path class="cls-12" d="M1069.18,351.33v1.73c0,2.11,1.38,4.18,4.33,5.89l15.57,9.06c6.44,3.71,14.66,2.43,21.13-1.31,3.79-2.19,6.11-4.73,6.11-7.21v-1.76l0,0c0,2.48-2.32,5-6.09,7.21a26.71,26.71,0,0,1-9.17,3.26c-4.1.63-7.86-1.9-9.56-5.68-1-2.09-3.25-4.16-7.82-5.93-3.55-1.37-7.06-2.36-9.24-1.67a3.87,3.87,0,0,1-5.08-2.49,4.61,4.61,0,0,1-.14-1.1Z"/></g><g class="cls-9"><path class="cls-12" d="M1083.16,345.58a3.1,3.1,0,0,1,3.14.31,9.79,9.79,0,0,1,4,5.3l-2.35,1.37a9.77,9.77,0,0,0-4-5.31,3.1,3.1,0,0,0-3.13-.3Z"/><path class="cls-15" d="M1088,352.56l-8-4.65c.71-1.36,2.25-1.69,4-.66A9.73,9.73,0,0,1,1088,352.56Z"/></g></g><g id="User"><path class="cls-15" d="M1604.34,125.84c-5.8,3.37-9.41,10.54-9.44,20.72l-.13,5.25,10.8-6.27.13-5.27c0-10.16,3.63-17.33,9.44-20.7Z"/><path class="cls-14" d="M1594.66,148.22c2.49-16.51,50.91-17.38,59.32-3.63,9.77,16,1.8,65.14,4.2,53.77,0,0-.11.4-.27,1.16-.77,3.77-3.68,3.95-.52,14.4l-20.62,37.85-33.41-1.92s-3.09-13.08-3.28-23c-3.44-3.32-.17-12.37-1-24.55a235.59,235.59,0,0,1-2.38-24.17C1592.5,167.07,1592.31,161.09,1594.66,148.22Z"/><path class="cls-3" d="M1596.65,178.12s-3.46-23.64,2.54-34.27a2.07,2.07,0,0,1,3.26-.47c4.92,5,10,8.62,20,10.09a57.79,57.79,0,0,0,14-.07c6.26-.61,21.32,2.77,19.9,41l3.43-1s37.83-83.62-30.1-77c-19.4,1.89-23.24,6.76-28.46,12-3.91,3.88-6.22,10.1-6.25,18.24C1594.9,146.55,1588.69,164.42,1596.65,178.12Z"/><path class="cls-4" d="M1561.79,279.4c3,31,15.43,42.39,37.18,56l.17.11c57.83,32.3,87.35,18.42,101.13,11.81a13.07,13.07,0,0,0,7.43-11.81l-1-52.22a60.69,60.69,0,0,0-24.6-48.7c-9.77-7.25-18.65-12.48-18.65-12.48-17.2,3.4-28.77,31.6-49.12,26.77-16.77-4-15.33-46.56-15.33-46.56C1551.8,178.47,1561.79,279.4,1561.79,279.4Z"/><path class="cls-6" d="M1595.53,332.13l-.26.49c2.33,1.78,3.87,2.86,3.87,2.86,19.74-23,64.34-113.4,64.34-113.4-5,1-9.56,9.23-13.88,9.29-18.28,19-33.45,10.24-33.45,10.24-13.23-7.53-18.52-21.44-19.44-32.22-.57-.23-1.11-.38-1.67-.56C1578.36,285.66,1595.53,332.13,1595.53,332.13Z"/><polygon class="cls-16" points="1629.47 249.12 1616.2 260.17 1612.41 318 1599.14 335.48 1595.28 332.62 1591.77 308.98 1609.33 256.3 1600.38 232.71 1629.47 249.12"/><path class="cls-17" d="M1590.42,220.18c-1.4,10,7.75,30.82,7.75,30.82,4.95,0,18-9.39,18-9.39-18-18.29-17.12-39.32-17.12-39.32C1597.31,211.12,1591.82,210.12,1590.42,220.18Z"/><path class="cls-17" d="M1626.88,263.18c-7.67-6.94-10.73-21.57-10.73-21.57,24.16,1.4,41.24-27.69,41.24-27.69a33.39,33.39,0,0,0,6.09,8.16C1653,249.46,1626.88,263.18,1626.88,263.18Z"/><path class="cls-3" d="M1663.48,222.08l-64.34,113.4,51-47.82-4.29-15.51H1662C1676.31,249.64,1663.48,222.08,1663.48,222.08Z"/><path class="cls-3" d="M1585.91,248.64l-10.19,7.53c0,18.1,19.81,76,19.81,76-5.57-49.46,3.5-129.84,3.5-129.84-17.11,19.2-21.89,32.94-21.89,32.94Z"/></g></g><g id="Arrows"><g id="From_Dev" data-name="From Dev"><g class="cls-9"><g class="cls-9"><g class="cls-18"><g class="cls-9"><path class="cls-19" d="M324.15,690.37,301.35,678a3.34,3.34,0,0,1-1.65-3l22.79,12.4a3.33,3.33,0,0,0,1.66,3"/></g></g></g><polygon class="cls-20" points="322.49 687.36 299.7 674.96 300.13 441.95 322.93 454.35 322.49 687.36"/><polygon class="cls-21" points="322.93 454.35 300.13 441.95 307.25 440.95 330.05 453.35 322.93 454.35"/><path class="cls-22" d="M330.05,453.35l-.43,233A4.43,4.43,0,0,1,326,690.7a3.14,3.14,0,0,1-3.55-3.34l.44-233Z"/><polygon class="cls-23" points="305.18 456.85 282.39 444.45 303.76 401.63 326.56 414.03 305.18 456.85"/><polygon class="cls-22" points="326.56 414.03 347.78 450.86 330.05 453.35 322.93 454.35 305.18 456.85 326.56 414.03"/></g></g><g id="To_Client" data-name="To Client"><g class="cls-9"><polygon class="cls-24" points="893.67 242.32 882.81 229.38 884.36 205.32 895.22 218.26 893.67 242.32"/><polygon class="cls-24" points="895.22 218.26 884.36 205.32 884.98 195.65 895.85 208.59 895.22 218.26"/><polygon class="cls-25" points="897.4 184.53 946 213.63 893.67 242.32 895.22 218.26 895.85 208.59 897.4 184.53"/><polygon class="cls-26" points="897.4 184.53 886.53 171.59 935.14 200.69 946 213.63 897.4 184.53"/><polygon class="cls-24" points="895.85 208.59 884.98 195.65 886.53 171.59 897.4 184.53 895.85 208.59"/><polygon class="cls-21" points="470.94 206.87 460.07 193.93 884.98 195.65 895.85 208.59 470.94 206.87"/><g class="cls-9"><g class="cls-27"><g class="cls-9"><path class="cls-19" d="M466.8,214.91,455.94,202a4.53,4.53,0,0,1-1-3.23,5.08,5.08,0,0,1,1.23-3L467,208.7a5.14,5.14,0,0,0-1.23,3,4.53,4.53,0,0,0,1,3.23"/><path class="cls-28" d="M467,208.7l-10.86-12.94a4.76,4.76,0,0,1,.55-.55l10.86,12.94a4.76,4.76,0,0,0-.55.55"/><path class="cls-29" d="M467.54,208.15l-10.86-12.94a6.12,6.12,0,0,1,.5-.39l10.87,12.94a4.91,4.91,0,0,0-.51.39"/><path class="cls-30" d="M468.05,207.76l-10.87-12.94a5.09,5.09,0,0,1,.5-.3l10.87,12.94a5.09,5.09,0,0,0-.5.3"/><path class="cls-31" d="M468.55,207.46l-10.87-12.94a4.9,4.9,0,0,1,.52-.24l10.86,12.94q-.26.1-.51.24"/><path class="cls-32" d="M469.06,207.22,458.2,194.28a5.22,5.22,0,0,1,.56-.18L469.62,207c-.19.05-.37.11-.56.18"/><path class="cls-33" d="M469.62,207,458.76,194.1a5.84,5.84,0,0,1,.63-.13l10.86,12.94c-.21,0-.42.08-.63.13"/><path class="cls-34" d="M470.25,206.91,459.39,194a5.07,5.07,0,0,1,.68,0l10.87,12.94a5.32,5.32,0,0,0-.69,0"/></g></g></g><path class="cls-25" d="M470.94,206.87l424.91,1.72-.63,9.67-424.9-1.73a4.51,4.51,0,0,1-4.56-4.85A5.22,5.22,0,0,1,470.94,206.87Z"/></g></g><g id="To_Server" data-name="To Server"><g class="cls-9"><g class="cls-9"><g class="cls-35"><g class="cls-9"><path class="cls-34" d="M946.3,290.84,935.44,277.9h.15l10.86,12.94h-.15"/><path class="cls-36" d="M946.45,290.84,935.59,277.9a4.6,4.6,0,0,1,2.65.91l10.86,12.94a4.6,4.6,0,0,0-2.65-.91"/><path class="cls-34" d="M949.1,291.75l-10.86-12.94a4.22,4.22,0,0,1,.59.53l10.86,12.94a3.72,3.72,0,0,0-.59-.53"/><path class="cls-33" d="M949.69,292.28l-10.86-12.94.16.18,10.86,12.94a1.45,1.45,0,0,0-.16-.18"/></g></g></g><polygon class="cls-24" points="507.04 301.37 496.17 288.42 496.74 278.76 507.6 291.71 507.04 301.37"/><polygon class="cls-21" points="507.6 291.71 496.74 278.76 935.44 277.89 946.3 290.84 507.6 291.71"/><path class="cls-25" d="M946.3,290.84a4.51,4.51,0,0,1,4.59,4.82,5.21,5.21,0,0,1-5.15,4.83l-438.7.87.56-9.65Z"/><polygon class="cls-32" points="456.83 296.63 445.97 283.69 498.14 254.69 509 267.63 456.83 296.63"/><polygon class="cls-25" points="509 267.63 507.6 291.71 507.04 301.37 505.63 325.44 456.83 296.63 509 267.63"/></g></g><g id="To_User" data-name="To User"><g class="cls-9"><polygon class="cls-24" points="1455.33 300.82 1444.46 287.88 1445.74 264.78 1456.6 277.72 1455.33 300.82"/><polygon class="cls-24" points="1456.6 277.72 1445.74 264.78 1446.27 255.11 1457.14 268.05 1456.6 277.72"/><polygon class="cls-25" points="1458.41 244.95 1505.68 272.64 1455.33 300.82 1456.6 277.72 1457.14 268.05 1458.41 244.95"/><polygon class="cls-26" points="1458.41 244.95 1447.55 232.01 1494.82 259.7 1505.68 272.64 1458.41 244.95"/><polygon class="cls-24" points="1457.14 268.05 1446.27 255.11 1447.55 232.01 1458.41 244.95 1457.14 268.05"/><polygon class="cls-21" points="1308.1 268.78 1297.23 255.84 1446.27 255.11 1457.14 268.05 1308.1 268.78"/><g class="cls-9"><g class="cls-37"><g class="cls-9"><path class="cls-19" d="M1304,276.82l-10.86-12.94a4.53,4.53,0,0,1-1.05-3.19,5.14,5.14,0,0,1,1.24-3l10.86,12.94a5.06,5.06,0,0,0-1.23,3,4.51,4.51,0,0,0,1,3.19"/><path class="cls-28" d="M1304.19,270.61l-10.86-12.94a4.76,4.76,0,0,1,.55-.55l10.86,12.94a7.14,7.14,0,0,0-.55.55"/><path class="cls-29" d="M1304.74,270.06l-10.86-12.94a6.12,6.12,0,0,1,.5-.39l10.87,12.94a4.91,4.91,0,0,0-.51.39"/><path class="cls-30" d="M1305.25,269.67l-10.87-12.94a5.09,5.09,0,0,1,.5-.3l10.87,12.94a4.14,4.14,0,0,0-.5.3"/><path class="cls-31" d="M1305.75,269.37l-10.87-12.94.52-.23,10.86,12.94-.51.23"/><path class="cls-32" d="M1306.26,269.14,1295.4,256.2l.55-.19L1306.81,269c-.18.05-.37.11-.55.18"/><path class="cls-33" d="M1306.81,269,1296,256q.32-.07.63-.12l10.87,12.94a4.53,4.53,0,0,0-.64.13"/><path class="cls-34" d="M1307.45,268.83l-10.87-12.94a4.74,4.74,0,0,1,.65,0l10.87,12.94a4.62,4.62,0,0,0-.65.05"/></g></g></g><path class="cls-25" d="M1457.14,268.05l-.54,9.67-149,.72a4.51,4.51,0,0,1-4.6-4.81,5.22,5.22,0,0,1,5.14-4.85Z"/></g></g></g><g id="Text"><text class="cls-38" transform="translate(250.67 74.83)">Se<tspan class="cls-39" x="44.92" y="0">r</tspan><tspan class="cls-40" x="58.81" y="0">v</tspan><tspan x="77.93" y="0">er</tspan></text><text class="cls-38" transform="translate(186.16 1002.17)">D<tspan class="cls-40" x="26.23" y="0">ev</tspan><tspan x="66.29" y="0">eloper Machine</tspan></text><text class="cls-38" transform="translate(1009.1 74.83)">User Machine</text><text class="cls-38" transform="translate(1588.36 74.83)">User</text><text class="cls-41" transform="translate(560.25 355.17)">Client Requests Site</text><text class="cls-41" transform="translate(1310.28 232.17)">Content</text></g><g id="SSG-2" data-name="SSG"><g id="SSG-3" data-name="SSG"><g class="cls-9"><g class="cls-9"><g class="cls-42"><g class="cls-9"><path class="cls-28" d="M612.47,996.43l-7.8,1a156.74,156.74,0,0,0,37.72-9.77l7.8-1a156.74,156.74,0,0,1-37.72,9.77"/><path class="cls-19" d="M650.19,986.66l-7.8,1q6.35-2.5,12.57-5.62a158.74,158.74,0,0,0,66.13-61.86,162.9,162.9,0,0,0,5.7-154.38A158.93,158.93,0,0,0,563.27,677l7.81-1A159.78,159.78,0,0,1,734.6,764.8a162.94,162.94,0,0,1-5.71,154.38A158.77,158.77,0,0,1,662.77,981q-6.22,3.11-12.58,5.62"/></g></g></g><g class="cls-9"><g class="cls-43"><g class="cls-9"><path class="cls-19" d="M613.73,1006.35l-7.8,1a165,165,0,0,1-18.39,1.34,167,167,0,0,1-26.48-1.64,5,5,0,0,1-4.22-5.65,5,5,0,0,1,3.09-4l7.8-1a5,5,0,0,0-3.08,4,5,5,0,0,0,4.22,5.65,166.94,166.94,0,0,0,26.47,1.64,165,165,0,0,0,18.39-1.34"/><path class="cls-28" d="M567.73,996.44l-7.8,1a5,5,0,0,1,1.17-.31l7.8-1a4.68,4.68,0,0,0-1.17.3"/></g></g></g><polygon class="cls-24" points="468.64 733.09 460.84 734.1 452.16 729.02 459.96 728.01 468.64 733.09"/><g class="cls-9"><g class="cls-44"><g class="cls-9"><path class="cls-19" d="M460,728l-7.8,1a168.31,168.31,0,0,1,56.39-45.57q6.6-3.32,13.35-6l7.8-1c-4.49,1.79-8.94,3.77-13.35,6A168.41,168.41,0,0,0,460,728"/><path class="cls-28" d="M529.7,676.46l-7.8,1A167.09,167.09,0,0,1,562,667.09l7.81-1a167.17,167.17,0,0,0-40.09,10.38"/></g></g></g><path class="cls-45" d="M588.18,664.74a168.88,168.88,0,0,1,90.14,24.35,170.67,170.67,0,0,1,65.12,71.29,173,173,0,0,1-6.05,163.92A168.56,168.56,0,0,1,667.16,990a166.68,166.68,0,0,1-98.29,16,5,5,0,0,1-4.22-5.65,4.93,4.93,0,0,1,4.79-4.3,167.84,167.84,0,0,0,25.7,1.6A157.15,157.15,0,0,0,662.77,981a158.77,158.77,0,0,0,66.12-61.86A162.94,162.94,0,0,0,734.6,764.8a160,160,0,0,0-146.22-90.07,158.7,158.7,0,0,0-119.74,58.36L460,728a168.41,168.41,0,0,1,56.39-45.57A166.72,166.72,0,0,1,588.18,664.74Z"/><polygon class="cls-24" points="438.54 775.23 430.74 776.23 430.6 716.42 438.4 715.41 438.54 775.23"/><polygon class="cls-45" points="438.4 715.41 459.96 728.01 468.64 733.09 489.66 745.37 438.54 775.23 438.4 715.41"/></g></g><text class="cls-41" transform="translate(591.19 164.17)"><tspan class="cls-46">H</tspan><tspan x="22.36" y="0">TML/CSS/JS</tspan></text><text class="cls-41" transform="translate(558.27 795.17)">React <tspan x="-26.79" y="38.4">P</tspan><tspan class="cls-47" x="-6.6" y="38.4">r</tspan><tspan x="3.91" y="38.4">oduces </tspan><tspan class="cls-46" x="-2.67" y="76.8">H</tspan><tspan x="19.69" y="76.8">TML</tspan></text><text class="cls-41" transform="translate(178.1 527.17)"><tspan class="cls-46">H</tspan><tspan x="22.36" y="0">TML</tspan><tspan x="13.91" y="38.4">CSS</tspan><tspan x="24.98" y="76.8">JS</tspan></text></g><g id="CSR-2" data-name="CSR"><g class="cls-9"><polygon class="cls-20" points="1296.12 376.83 1288.31 377.84 1296.53 372.07 1304.34 371.06 1296.12 376.83"/><g class="cls-9"><g class="cls-48"><g class="cls-9"><path class="cls-28" d="M1172.71,605.37l-7.81,1a157,157,0,0,0,37.7-9.74l7.8-1a156.9,156.9,0,0,1-37.69,9.74"/><path class="cls-19" d="M1210.4,595.63l-7.8,1a158.83,158.83,0,0,0,56.46-38.22,163,163,0,0,0,29.25-180.58l7.81-1a163.07,163.07,0,0,1-29.25,180.58,158.87,158.87,0,0,1-56.47,38.22"/></g></g></g><polygon class="cls-45" points="1271.23 331.17 1324.73 356.75 1304.34 371.06 1296.12 376.83 1276.24 390.78 1271.23 331.17"/><polygon class="cls-24" points="1276.24 390.78 1268.43 391.79 1263.42 332.18 1271.23 331.17 1276.24 390.78"/><g class="cls-9"><g class="cls-49"><g class="cls-9"><path class="cls-19" d="M1174,615.3l-7.8,1a170,170,0,0,1-18.73,1.36,168.29,168.29,0,0,1-120.77-48.13A173.18,173.18,0,0,1,1002,352.31a4.87,4.87,0,0,1,2.32-1.91l7.8-1a4.93,4.93,0,0,0-2.32,1.91,173.2,173.2,0,0,0,24.73,217.23A168.51,168.51,0,0,0,1174,615.3"/><path class="cls-28" d="M1012.07,349.39l-7.8,1a5.26,5.26,0,0,1,1.18-.31l7.8-1a4.87,4.87,0,0,0-1.18.3"/></g></g></g><path class="cls-45" d="M1013.79,349.05a4.83,4.83,0,0,1,2.8.82,5,5,0,0,1,1.44,6.92,163.1,163.1,0,0,0,23.28,204.56,158.17,158.17,0,0,0,225.56-3.94,163.07,163.07,0,0,0,29.25-180.58l8.22-5.77A173.14,173.14,0,0,1,1274,564.35a167.91,167.91,0,0,1-239.51,4.18,173.2,173.2,0,0,1-24.73-217.23A4.89,4.89,0,0,1,1013.79,349.05Z"/></g></g><text class="cls-41" transform="translate(1109.32 415.17)">React<tspan x="-26.54" y="38.4">Initiali</tspan><tspan class="cls-50" x="58.74" y="38.4">z</tspan><tspan x="74.35" y="38.4">es</tspan><tspan x="-32.56" y="76.8">on Client</tspan><tspan class="cls-51" x="92.69" y="76.8"></tspan><tspan x="97.33" y="76.8">s</tspan><tspan x="-17.88" y="115.2">B</tspan><tspan class="cls-47" x="2.05" y="115.2">r</tspan><tspan x="12.56" y="115.2">owser</tspan></text></g></svg>