<svg width="524" height="210" viewBox="0 0 524 210" fill="none" xmlns="http://www.w3.org/2000/svg">
<mask id="path-1-outside-1" maskUnits="userSpaceOnUse" x="77.163" y="45.5" width="264" height="104" fill="black">
<rect fill="white" x="77.163" y="45.5" width="264" height="104"/>
<path fill-rule="evenodd" clip-rule="evenodd" d="M253.163 61.5L253.163 60.5L252.163 60.5L167 60.5L167 46.5L167 46.5H165V60.4727L79.163 60.4727H78.163L78.163 61.4727L78.163 75.5H80.163L80.163 62.4727L165 62.4727V62.5H166L251.163 62.5L251.163 75.5273L253.163 75.5273L253.163 61.5ZM339.623 132.38V133.38V148.5L337.623 148.5V134.38H252.46H251.46V134.353L166.623 134.353V148.353H164.623V133.353V132.353H165.623L251.46 132.353L251.46 121.5L251.46 121.5L253.46 121.5L253.46 121.5L253.46 132.38H338.623H339.623Z"/>
</mask>
<path fill-rule="evenodd" clip-rule="evenodd" d="M253.163 61.5L253.163 60.5L252.163 60.5L167 60.5L167 46.5L167 46.5H165V60.4727L79.163 60.4727H78.163L78.163 61.4727L78.163 75.5H80.163L80.163 62.4727L165 62.4727V62.5H166L251.163 62.5L251.163 75.5273L253.163 75.5273L253.163 61.5ZM339.623 132.38V133.38V148.5L337.623 148.5V134.38H252.46H251.46V134.353L166.623 134.353V148.353H164.623V133.353V132.353H165.623L251.46 132.353L251.46 121.5L251.46 121.5L253.46 121.5L253.46 121.5L253.46 132.38H338.623H339.623Z" fill="black"/>
<path d="M253.163 60.5L254.163 60.5L254.163 59.5L253.163 59.5L253.163 60.5ZM253.163 61.5L252.163 61.5L252.163 61.5L253.163 61.5ZM252.163 60.5L252.163 59.5L252.163 59.5L252.163 60.5ZM167 60.5L166 60.5L166 61.5L167 61.5L167 60.5ZM167 46.5L168 46.5L168 45.5391L167.04 45.5008L167 46.5ZM167 46.5L167.04 45.5008L167.02 45.5H167V46.5ZM165 46.5V45.5H164V46.5H165ZM165 60.4727L165 61.4727L166 61.4727V60.4727H165ZM79.163 60.4727L79.163 61.4727L79.163 61.4727L79.163 60.4727ZM78.163 60.4727V59.4727H77.163L77.163 60.4727L78.163 60.4727ZM78.163 61.4727L79.163 61.4727L79.163 61.4727L78.163 61.4727ZM78.163 75.5L77.163 75.5L77.163 76.5H78.163V75.5ZM80.163 75.5V76.5H81.163L81.163 75.5L80.163 75.5ZM80.163 62.4727L80.163 61.4727L79.163 61.4727L79.163 62.4727L80.163 62.4727ZM165 62.4727H166V61.4727L165 61.4727L165 62.4727ZM165 62.5H164V63.5H165V62.5ZM166 62.5L166 63.5H166L166 62.5ZM251.163 62.5L252.163 62.5L252.163 61.5L251.163 61.5L251.163 62.5ZM251.163 75.5273L250.163 75.5273L250.163 76.5273L251.163 76.5273L251.163 75.5273ZM253.163 75.5273L253.163 76.5273L254.163 76.5273L254.163 75.5273L253.163 75.5273ZM339.623 132.38H340.623V131.38H339.623V132.38ZM339.623 148.5L339.623 149.5L340.623 149.5V148.5H339.623ZM337.623 148.5H336.623V149.5L337.623 149.5L337.623 148.5ZM337.623 134.38H338.623V133.38H337.623V134.38ZM251.46 134.38H250.46V135.38H251.46V134.38ZM251.46 134.353H252.46V133.353L251.46 133.353L251.46 134.353ZM166.623 134.353L166.623 133.353L165.623 133.353V134.353H166.623ZM166.623 148.353V149.353H167.623V148.353H166.623ZM164.623 148.353H163.623V149.353H164.623V148.353ZM164.623 132.353V131.353H163.623V132.353H164.623ZM165.623 132.353L165.623 133.353H165.623L165.623 132.353ZM251.46 132.353L251.46 133.353L252.46 133.353L252.46 132.353L251.46 132.353ZM251.46 121.5L251.397 120.502L250.46 120.561L250.46 121.5L251.46 121.5ZM251.46 121.5L251.46 120.5L251.428 120.5L251.397 120.502L251.46 121.5ZM253.46 121.5L253.46 122.5L253.491 122.5L253.522 122.498L253.46 121.5ZM253.46 121.5L254.46 121.5L254.46 120.436L253.397 120.502L253.46 121.5ZM253.46 132.38L252.46 132.38L252.46 133.38H253.46V132.38ZM252.163 60.5L252.163 61.5L254.163 61.5L254.163 60.5L252.163 60.5ZM252.163 61.5L253.163 61.5L253.163 59.5L252.163 59.5L252.163 61.5ZM167 61.5L252.163 61.5L252.163 59.5L167 59.5L167 61.5ZM166 46.5L166 60.5L168 60.5L168 46.5L166 46.5ZM166.96 47.4992L166.96 47.4992L167.04 45.5008L167.04 45.5008L166.96 47.4992ZM165 47.5H167V45.5H165V47.5ZM166 60.4727V46.5H164V60.4727H166ZM79.163 61.4727L165 61.4727L165 59.4727L79.163 59.4727L79.163 61.4727ZM78.163 61.4727H79.163V59.4727H78.163V61.4727ZM79.163 61.4727L79.163 60.4727L77.163 60.4727L77.163 61.4727L79.163 61.4727ZM79.163 75.5L79.163 61.4727L77.163 61.4727L77.163 75.5L79.163 75.5ZM80.163 74.5H78.163V76.5H80.163V74.5ZM79.163 62.4727L79.163 75.5L81.163 75.5L81.163 62.4727L79.163 62.4727ZM165 61.4727L80.163 61.4727L80.163 63.4727L165 63.4727L165 61.4727ZM166 62.5V62.4727H164V62.5H166ZM166 61.5H165V63.5H166V61.5ZM251.163 61.5L166 61.5L166 63.5L251.163 63.5L251.163 61.5ZM252.163 75.5273L252.163 62.5L250.163 62.5L250.163 75.5273L252.163 75.5273ZM253.163 74.5273L251.163 74.5273L251.163 76.5273L253.163 76.5273L253.163 74.5273ZM252.163 61.5L252.163 75.5273L254.163 75.5273L254.163 61.5L252.163 61.5ZM340.623 133.38V132.38H338.623V133.38H340.623ZM340.623 148.5V133.38H338.623V148.5H340.623ZM337.623 149.5L339.623 149.5L339.623 147.5L337.623 147.5L337.623 149.5ZM336.623 134.38V148.5H338.623V134.38H336.623ZM252.46 135.38H337.623V133.38H252.46V135.38ZM251.46 135.38H252.46V133.38H251.46V135.38ZM250.46 134.353V134.38H252.46V134.353H250.46ZM251.46 133.353L166.623 133.353L166.623 135.353L251.46 135.353L251.46 133.353ZM165.623 134.353V148.353H167.623V134.353H165.623ZM166.623 147.353H164.623V149.353H166.623V147.353ZM165.623 148.353V133.353H163.623V148.353H165.623ZM165.623 133.353V132.353H163.623V133.353H165.623ZM164.623 133.353H165.623V131.353H164.623V133.353ZM165.623 133.353L251.46 133.353L251.46 131.353L165.623 131.353L165.623 133.353ZM250.46 121.5L250.46 132.353L252.46 132.353L252.46 121.5L250.46 121.5ZM251.397 120.502L251.397 120.502L251.522 122.498L251.522 122.498L251.397 120.502ZM251.46 122.5L253.46 122.5L253.46 120.5L251.46 120.5L251.46 122.5ZM253.522 122.498L253.522 122.498L253.397 120.502L253.397 120.502L253.522 122.498ZM252.46 121.5L252.46 132.38L254.46 132.38L254.46 121.5L252.46 121.5ZM338.623 131.38H253.46V133.38H338.623V131.38ZM339.623 131.38H338.623V133.38H339.623V131.38Z" fill="white" mask="url(#path-1-outside-1)"/>
<mask id="path-3-outside-2" maskUnits="userSpaceOnUse" x="244" y="15.636" width="243" height="120" fill="black">
<rect fill="white" x="244" y="15.636" width="243" height="120"/>
<path fill-rule="evenodd" clip-rule="evenodd" d="M288 76V24V23H287L248.414 23L253.071 18.3432C253.462 17.9526 253.462 17.3195 253.071 16.9289C252.681 16.5384 252.047 16.5384 251.657 16.9289L245.293 23.2929C244.902 23.6834 244.902 24.3166 245.293 24.7071L251.657 31.0711C252.047 31.4616 252.681 31.4616 253.071 31.0711C253.462 30.6806 253.462 30.0474 253.071 29.6569L248.414 25L286 25V76H288ZM331.293 98.2929C330.902 98.6834 330.902 99.3166 331.293 99.7071L337.657 106.071C338.047 106.462 338.681 106.462 339.071 106.071C339.462 105.681 339.462 105.047 339.071 104.657L334.414 100H484V134H486V99V98H485H334.414L339.071 93.3432C339.462 92.9526 339.462 92.3195 339.071 91.929C338.681 91.5384 338.047 91.5384 337.657 91.929L331.293 98.2929Z"/>
</mask>
<path fill-rule="evenodd" clip-rule="evenodd" d="M288 76V24V23H287L248.414 23L253.071 18.3432C253.462 17.9526 253.462 17.3195 253.071 16.9289C252.681 16.5384 252.047 16.5384 251.657 16.9289L245.293 23.2929C244.902 23.6834 244.902 24.3166 245.293 24.7071L251.657 31.0711C252.047 31.4616 252.681 31.4616 253.071 31.0711C253.462 30.6806 253.462 30.0474 253.071 29.6569L248.414 25L286 25V76H288ZM331.293 98.2929C330.902 98.6834 330.902 99.3166 331.293 99.7071L337.657 106.071C338.047 106.462 338.681 106.462 339.071 106.071C339.462 105.681 339.462 105.047 339.071 104.657L334.414 100H484V134H486V99V98H485H334.414L339.071 93.3432C339.462 92.9526 339.462 92.3195 339.071 91.929C338.681 91.5384 338.047 91.5384 337.657 91.929L331.293 98.2929Z" fill="black"/>
<path d="M288 76V77H289V76H288ZM288 23H289V22H288V23ZM287 23L287 24H287V23ZM248.414 23L247.707 22.2929L246 24L248.414 24L248.414 23ZM253.071 18.3432L253.778 19.0503L253.778 19.0503L253.071 18.3432ZM253.071 16.9289L252.364 17.636L252.364 17.636L253.071 16.9289ZM251.657 16.9289L250.95 16.2218L250.95 16.2218L251.657 16.9289ZM245.293 23.2929L244.586 22.5858L244.586 22.5858L245.293 23.2929ZM245.293 24.7071L246 24L246 24L245.293 24.7071ZM251.657 31.0711L250.95 31.7782L251.657 31.0711ZM253.071 31.0711L253.778 31.7782L253.778 31.7782L253.071 31.0711ZM253.071 29.6569L252.364 30.364L252.364 30.364L253.071 29.6569ZM248.414 25L248.414 24L246 24L247.707 25.7071L248.414 25ZM286 25H287V24L286 24L286 25ZM286 76H285V77H286V76ZM339.071 106.071L339.778 106.778L339.778 106.778L339.071 106.071ZM334.414 100V99H332L333.707 100.707L334.414 100ZM484 100H485V99H484V100ZM484 134H483V135H484V134ZM486 134V135H487V134H486ZM486 98H487V97H486V98ZM334.414 98L333.707 97.2929L332 99H334.414V98ZM339.071 93.3432L339.778 94.0503L339.778 94.0503L339.071 93.3432ZM339.071 91.929L339.778 91.2219L339.778 91.2218L339.071 91.929ZM337.657 91.929L336.95 91.2218L336.95 91.2218L337.657 91.929ZM287 24V76H289V24H287ZM287 23V24H289V23H287ZM287 24H288V22H287V24ZM248.414 24L287 24L287 22L248.414 22L248.414 24ZM252.364 17.636L247.707 22.2929L249.121 23.7071L253.778 19.0503L252.364 17.636ZM252.364 17.636L252.364 17.6361L253.778 19.0503C254.559 18.2692 254.559 17.0029 253.778 16.2218L252.364 17.636ZM252.364 17.636L252.364 17.636L253.778 16.2218C252.997 15.4408 251.731 15.4408 250.95 16.2218L252.364 17.636ZM246 24L252.364 17.636L250.95 16.2218L244.586 22.5858L246 24ZM246 24L246 24L244.586 22.5858C243.805 23.3668 243.805 24.6332 244.586 25.4142L246 24ZM252.364 30.364L246 24L244.586 25.4142L250.95 31.7782L252.364 30.364ZM252.364 30.364L252.364 30.364L250.95 31.7782C251.731 32.5592 252.997 32.5592 253.778 31.7782L252.364 30.364ZM252.364 30.364L252.364 30.364L253.778 31.7782C254.559 30.9971 254.559 29.7308 253.778 28.9498L252.364 30.364ZM247.707 25.7071L252.364 30.364L253.778 28.9498L249.121 24.2929L247.707 25.7071ZM286 24L248.414 24L248.414 26L286 26L286 24ZM287 76V25H285V76H287ZM288 75H286V77H288V75ZM332 99V99L330.586 97.5858C329.805 98.3669 329.805 99.6332 330.586 100.414L332 99ZM338.364 105.364L332 99L330.586 100.414L336.95 106.778L338.364 105.364ZM338.364 105.364L338.364 105.364L336.95 106.778C337.731 107.559 338.997 107.559 339.778 106.778L338.364 105.364ZM338.364 105.364L338.364 105.364L339.778 106.778C340.559 105.997 340.559 104.731 339.778 103.95L338.364 105.364ZM333.707 100.707L338.364 105.364L339.778 103.95L335.121 99.2929L333.707 100.707ZM484 99H334.414V101H484V99ZM485 134V100H483V134H485ZM486 133H484V135H486V133ZM485 99V134H487V99H485ZM485 98V99H487V98H485ZM485 99H486V97H485V99ZM334.414 99H485V97H334.414V99ZM338.364 92.6361L333.707 97.2929L335.121 98.7071L339.778 94.0503L338.364 92.6361ZM338.364 92.6361L338.364 92.6361L339.778 94.0503C340.559 93.2692 340.559 92.0029 339.778 91.2219L338.364 92.6361ZM338.364 92.6361L338.364 92.6361L339.778 91.2218C338.997 90.4408 337.731 90.4408 336.95 91.2218L338.364 92.6361ZM332 99L338.364 92.6361L336.95 91.2218L330.586 97.5858L332 99Z" fill="white" mask="url(#path-3-outside-2)"/>
<path fill-rule="evenodd" clip-rule="evenodd" d="M88 171.5C88 159.074 98.0736 149 110.5 149H221.902C227.87 149 233.593 151.371 237.812 155.59C242.032 159.81 244.402 165.533 244.402 171.5C244.402 183.926 234.329 194 221.902 194H110.5C98.0736 194 88 183.926 88 171.5Z" fill="#FCE5CD" stroke="#783F04" stroke-miterlimit="8" stroke-linejoin="round"/>
<path d="M135.712 172.34L141.214 174.563V176.286L134.024 172.955V171.672L141.214 168.35V170.072L135.712 172.34ZM145.547 178H143.921V168.49H145.547V178ZM143.789 165.968C143.789 165.704 143.868 165.481 144.026 165.3C144.19 165.118 144.431 165.027 144.747 165.027C145.063 165.027 145.304 165.118 145.468 165.3C145.632 165.481 145.714 165.704 145.714 165.968C145.714 166.231 145.632 166.451 145.468 166.627C145.304 166.803 145.063 166.891 144.747 166.891C144.431 166.891 144.19 166.803 144.026 166.627C143.868 166.451 143.789 166.231 143.789 165.968ZM149.695 168.49L149.748 169.686C150.475 168.771 151.424 168.314 152.596 168.314C154.605 168.314 155.619 169.448 155.637 171.716V178H154.011V171.707C154.005 171.021 153.847 170.515 153.536 170.187C153.231 169.858 152.754 169.694 152.104 169.694C151.576 169.694 151.113 169.835 150.715 170.116C150.316 170.397 150.006 170.767 149.783 171.224V178H148.157V168.49H149.695ZM166.122 173.351C166.122 174.798 165.791 175.964 165.129 176.849C164.467 177.733 163.57 178.176 162.439 178.176C161.285 178.176 160.377 177.81 159.715 177.077V181.656H158.089V168.49H159.574L159.653 169.545C160.315 168.725 161.235 168.314 162.413 168.314C163.556 168.314 164.458 168.745 165.12 169.606C165.788 170.468 166.122 171.666 166.122 173.201V173.351ZM164.496 173.166C164.496 172.094 164.268 171.247 163.811 170.626C163.354 170.005 162.727 169.694 161.93 169.694C160.945 169.694 160.207 170.131 159.715 171.004V175.548C160.201 176.415 160.945 176.849 161.947 176.849C162.727 176.849 163.345 176.541 163.802 175.926C164.265 175.305 164.496 174.385 164.496 173.166ZM174.067 177.06C173.435 177.804 172.506 178.176 171.281 178.176C170.268 178.176 169.494 177.883 168.961 177.297C168.434 176.705 168.167 175.832 168.161 174.678V168.49H169.787V174.634C169.787 176.075 170.373 176.796 171.545 176.796C172.787 176.796 173.613 176.333 174.023 175.407V168.49H175.649V178H174.103L174.067 177.06ZM180.334 166.188V168.49H182.109V169.747H180.334V175.645C180.334 176.025 180.413 176.312 180.571 176.506C180.729 176.693 180.999 176.787 181.38 176.787C181.567 176.787 181.825 176.752 182.153 176.682V178C181.726 178.117 181.31 178.176 180.905 178.176C180.179 178.176 179.631 177.956 179.262 177.517C178.893 177.077 178.708 176.453 178.708 175.645V169.747H176.977V168.49H178.708V166.188H180.334ZM184.342 179.099H182.944L188.288 165.203H189.677L184.342 179.099ZM197.191 172.287L191.382 170.011V168.341L198.888 171.663V172.946L191.382 176.277V174.59L197.191 172.287Z" fill="black"/>
<path fill-rule="evenodd" clip-rule="evenodd" d="M260 171.5C260 159.074 270.074 149 282.5 149H393.902C399.87 149 405.593 151.371 409.812 155.59C414.032 159.81 416.402 165.533 416.402 171.5C416.402 183.926 406.329 194 393.902 194H282.5C270.074 194 260 183.926 260 171.5Z" fill="#D6FCCD" stroke="#297804" stroke-miterlimit="8" stroke-linejoin="round"/>
<path d="M305.62 172.34L311.122 174.563V176.286L303.933 172.955V171.672L311.122 168.35V170.072L305.62 172.34ZM321.739 173.351C321.739 174.804 321.405 175.973 320.737 176.857C320.069 177.736 319.173 178.176 318.048 178.176C316.847 178.176 315.918 177.751 315.262 176.901L315.183 178H313.688V164.5H315.314V169.536C315.971 168.722 316.876 168.314 318.03 168.314C319.185 168.314 320.09 168.751 320.746 169.624C321.408 170.497 321.739 171.692 321.739 173.21V173.351ZM320.113 173.166C320.113 172.059 319.899 171.203 319.472 170.6C319.044 169.996 318.429 169.694 317.626 169.694C316.554 169.694 315.783 170.192 315.314 171.188V175.302C315.812 176.298 316.589 176.796 317.644 176.796C318.423 176.796 319.029 176.494 319.463 175.891C319.896 175.287 320.113 174.379 320.113 173.166ZM329.667 177.06C329.034 177.804 328.105 178.176 326.881 178.176C325.867 178.176 325.094 177.883 324.561 177.297C324.033 176.705 323.767 175.832 323.761 174.678V168.49H325.387V174.634C325.387 176.075 325.973 176.796 327.145 176.796C328.387 176.796 329.213 176.333 329.623 175.407V168.49H331.249V178H329.702L329.667 177.06ZM335.934 166.188V168.49H337.709V169.747H335.934V175.645C335.934 176.025 336.013 176.312 336.171 176.506C336.329 176.693 336.599 176.787 336.979 176.787C337.167 176.787 337.425 176.752 337.753 176.682V178C337.325 178.117 336.909 178.176 336.505 178.176C335.778 178.176 335.23 177.956 334.861 177.517C334.492 177.077 334.308 176.453 334.308 175.645V169.747H332.576V168.49H334.308V166.188H335.934ZM341.822 166.188V168.49H343.598V169.747H341.822V175.645C341.822 176.025 341.901 176.312 342.06 176.506C342.218 176.693 342.487 176.787 342.868 176.787C343.056 176.787 343.313 176.752 343.642 176.682V178C343.214 178.117 342.798 178.176 342.394 178.176C341.667 178.176 341.119 177.956 340.75 177.517C340.381 177.077 340.196 176.453 340.196 175.645V169.747H338.465V168.49H340.196V166.188H341.822ZM344.898 173.157C344.898 172.226 345.08 171.388 345.443 170.644C345.812 169.899 346.322 169.325 346.973 168.921C347.629 168.517 348.376 168.314 349.214 168.314C350.509 168.314 351.555 168.763 352.352 169.659C353.154 170.556 353.556 171.748 353.556 173.236V173.351C353.556 174.276 353.377 175.108 353.02 175.847C352.668 176.579 352.161 177.15 351.499 177.561C350.843 177.971 350.087 178.176 349.231 178.176C347.942 178.176 346.896 177.728 346.094 176.831C345.297 175.935 344.898 174.748 344.898 173.271V173.157ZM346.533 173.351C346.533 174.405 346.776 175.252 347.263 175.891C347.755 176.529 348.411 176.849 349.231 176.849C350.058 176.849 350.714 176.526 351.2 175.882C351.687 175.231 351.93 174.323 351.93 173.157C351.93 172.114 351.681 171.271 351.183 170.626C350.69 169.976 350.034 169.65 349.214 169.65C348.411 169.65 347.764 169.97 347.271 170.608C346.779 171.247 346.533 172.161 346.533 173.351ZM357.133 168.49L357.186 169.686C357.912 168.771 358.861 168.314 360.033 168.314C362.043 168.314 363.057 169.448 363.074 171.716V178H361.448V171.707C361.442 171.021 361.284 170.515 360.974 170.187C360.669 169.858 360.191 169.694 359.541 169.694C359.014 169.694 358.551 169.835 358.152 170.116C357.754 170.397 357.443 170.767 357.221 171.224V178H355.595V168.49H357.133ZM371.283 172.287L365.474 170.011V168.341L372.979 171.663V172.946L365.474 176.277V174.59L371.283 172.287Z" fill="black"/>
<path fill-rule="evenodd" clip-rule="evenodd" d="M1 98.5C1 86.0736 11.0736 76 23.5 76H134.902C140.87 76 146.593 78.3706 150.812 82.5901C155.032 86.8097 157.402 92.5326 157.402 98.5C157.402 110.926 147.329 121 134.902 121H23.5C11.0736 121 1 110.926 1 98.5Z" fill="#FCE5CD" stroke="#783F04" stroke-miterlimit="8" stroke-linejoin="round"/>
<path d="M48.7119 99.3398L54.2139 101.563V103.286L47.0244 99.9551V98.6719L54.2139 95.3496V97.0723L48.7119 99.3398ZM58.5469 105H56.9209V95.4902H58.5469V105ZM56.7891 92.9678C56.7891 92.7041 56.8682 92.4814 57.0264 92.2998C57.1904 92.1182 57.4307 92.0273 57.7471 92.0273C58.0635 92.0273 58.3037 92.1182 58.4678 92.2998C58.6318 92.4814 58.7139 92.7041 58.7139 92.9678C58.7139 93.2314 58.6318 93.4512 58.4678 93.627C58.3037 93.8027 58.0635 93.8906 57.7471 93.8906C57.4307 93.8906 57.1904 93.8027 57.0264 93.627C56.8682 93.4512 56.7891 93.2314 56.7891 92.9678ZM62.6953 95.4902L62.748 96.6855C63.4746 95.7715 64.4238 95.3145 65.5957 95.3145C67.6055 95.3145 68.6191 96.4482 68.6367 98.7158V105H67.0107V98.707C67.0049 98.0215 66.8467 97.5146 66.5361 97.1865C66.2314 96.8584 65.7539 96.6943 65.1035 96.6943C64.5762 96.6943 64.1133 96.835 63.7148 97.1162C63.3164 97.3975 63.0059 97.7666 62.7832 98.2236V105H61.1572V95.4902H62.6953ZM79.1221 100.351C79.1221 101.798 78.791 102.964 78.1289 103.849C77.4668 104.733 76.5703 105.176 75.4395 105.176C74.2852 105.176 73.377 104.81 72.7148 104.077V108.656H71.0889V95.4902H72.5742L72.6533 96.5449C73.3154 95.7246 74.2354 95.3145 75.4131 95.3145C76.5557 95.3145 77.458 95.7451 78.1201 96.6064C78.7881 97.4678 79.1221 98.666 79.1221 100.201V100.351ZM77.4961 100.166C77.4961 99.0938 77.2676 98.2471 76.8105 97.626C76.3535 97.0049 75.7266 96.6943 74.9297 96.6943C73.9453 96.6943 73.207 97.1309 72.7148 98.0039V102.548C73.2012 103.415 73.9453 103.849 74.9473 103.849C75.7266 103.849 76.3447 103.541 76.8018 102.926C77.2646 102.305 77.4961 101.385 77.4961 100.166ZM87.0674 104.06C86.4346 104.804 85.5059 105.176 84.2812 105.176C83.2676 105.176 82.4941 104.883 81.9609 104.297C81.4336 103.705 81.167 102.832 81.1611 101.678V95.4902H82.7871V101.634C82.7871 103.075 83.373 103.796 84.5449 103.796C85.7871 103.796 86.6133 103.333 87.0234 102.407V95.4902H88.6494V105H87.1025L87.0674 104.06ZM93.334 93.1875V95.4902H95.1094V96.7471H93.334V102.645C93.334 103.025 93.4131 103.312 93.5713 103.506C93.7295 103.693 93.999 103.787 94.3799 103.787C94.5674 103.787 94.8252 103.752 95.1533 103.682V105C94.7256 105.117 94.3096 105.176 93.9053 105.176C93.1787 105.176 92.6309 104.956 92.2617 104.517C91.8926 104.077 91.708 103.453 91.708 102.645V96.7471H89.9766V95.4902H91.708V93.1875H93.334ZM97.3418 106.099H95.9443L101.288 92.2031H102.677L97.3418 106.099ZM110.191 99.2871L104.382 97.0107V95.3408L111.888 98.6631V99.9463L104.382 103.277V101.59L110.191 99.2871Z" fill="black"/>
<path fill-rule="evenodd" clip-rule="evenodd" d="M87 23.5C87 11.0736 97.0736 1 109.5 1H220.902C226.87 1 232.593 3.37056 236.812 7.59013C241.032 11.8097 243.402 17.5326 243.402 23.5C243.402 35.9264 233.329 46 220.902 46H109.5C97.0736 46 87 35.9264 87 23.5Z" fill="#D6FCCD" stroke="#297804" stroke-miterlimit="8" stroke-linejoin="round"/>
<path d="M139.335 24.3398L144.837 26.5635V28.2861L137.647 24.9551V23.6719L144.837 20.3496V22.0723L139.335 24.3398ZM148.203 30V21.7471H146.7V20.4902H148.203V19.5146C148.203 18.4951 148.476 17.707 149.021 17.1504C149.565 16.5938 150.336 16.3154 151.332 16.3154C151.707 16.3154 152.079 16.3652 152.448 16.4648L152.36 17.7832C152.085 17.7305 151.792 17.7041 151.481 17.7041C150.954 17.7041 150.547 17.8594 150.26 18.1699C149.973 18.4746 149.829 18.9141 149.829 19.4883V20.4902H151.859V21.7471H149.829V30H148.203ZM153.23 25.1572C153.23 24.2256 153.412 23.3877 153.775 22.6436C154.145 21.8994 154.654 21.3252 155.305 20.9209C155.961 20.5166 156.708 20.3145 157.546 20.3145C158.841 20.3145 159.887 20.7627 160.684 21.6592C161.486 22.5557 161.888 23.748 161.888 25.2363V25.3506C161.888 26.2764 161.709 27.1084 161.352 27.8467C161 28.5791 160.493 29.1504 159.831 29.5605C159.175 29.9707 158.419 30.1758 157.563 30.1758C156.274 30.1758 155.229 29.7275 154.426 28.8311C153.629 27.9346 153.23 26.748 153.23 25.2715V25.1572ZM154.865 25.3506C154.865 26.4053 155.108 27.252 155.595 27.8906C156.087 28.5293 156.743 28.8486 157.563 28.8486C158.39 28.8486 159.046 28.5264 159.532 27.8818C160.019 27.2314 160.262 26.3232 160.262 25.1572C160.262 24.1143 160.013 23.2705 159.515 22.626C159.022 21.9756 158.366 21.6504 157.546 21.6504C156.743 21.6504 156.096 21.9697 155.604 22.6084C155.111 23.2471 154.865 24.1611 154.865 25.3506ZM168.523 21.9492C168.277 21.9082 168.011 21.8877 167.724 21.8877C166.657 21.8877 165.934 22.3418 165.553 23.25V30H163.927V20.4902H165.509L165.535 21.5889C166.068 20.7393 166.824 20.3145 167.803 20.3145C168.119 20.3145 168.359 20.3555 168.523 20.4375V21.9492ZM171.556 20.4902L171.6 21.5449C172.297 20.7246 173.237 20.3145 174.421 20.3145C175.751 20.3145 176.656 20.8242 177.137 21.8438C177.453 21.3867 177.863 21.0176 178.367 20.7363C178.877 20.4551 179.478 20.3145 180.169 20.3145C182.255 20.3145 183.315 21.4189 183.351 23.6279V30H181.725V23.7246C181.725 23.0449 181.569 22.5381 181.259 22.2041C180.948 21.8643 180.427 21.6943 179.694 21.6943C179.091 21.6943 178.59 21.876 178.191 22.2393C177.793 22.5967 177.562 23.0801 177.497 23.6895V30H175.862V23.7686C175.862 22.3857 175.186 21.6943 173.832 21.6943C172.766 21.6943 172.036 22.1484 171.644 23.0566V30H170.018V20.4902H171.556ZM191.568 24.2871L185.759 22.0107V20.3408L193.265 23.6631V24.9463L185.759 28.2773V26.5898L191.568 24.2871Z" fill="black"/>
<path fill-rule="evenodd" clip-rule="evenodd" d="M173 98.5C173 86.0736 183.074 76 195.5 76H306.902C312.87 76 318.593 78.3706 322.812 82.5901C327.032 86.8097 329.402 92.5326 329.402 98.5C329.402 110.926 319.329 121 306.902 121H195.5C183.074 121 173 110.926 173 98.5Z" fill="#D6FCCD" stroke="#297804" stroke-miterlimit="8" stroke-linejoin="round"/>
<path d="M232.911 99.3398L238.413 101.563V103.286L231.224 99.9551V98.6719L238.413 95.3496V97.0723L232.911 99.3398ZM240.584 100.166C240.584 98.707 240.93 97.5352 241.621 96.6504C242.312 95.7598 243.218 95.3145 244.337 95.3145C245.45 95.3145 246.332 95.6953 246.982 96.457V91.5H248.608V105H247.114L247.035 103.98C246.385 104.777 245.479 105.176 244.319 105.176C243.218 105.176 242.318 104.725 241.621 103.822C240.93 102.92 240.584 101.742 240.584 100.289V100.166ZM242.21 100.351C242.21 101.429 242.433 102.272 242.878 102.882C243.323 103.491 243.938 103.796 244.724 103.796C245.755 103.796 246.508 103.333 246.982 102.407V98.0391C246.496 97.1426 245.749 96.6943 244.741 96.6943C243.944 96.6943 243.323 97.002 242.878 97.6172C242.433 98.2324 242.21 99.1436 242.21 100.351ZM252.906 105H251.28V95.4902H252.906V105ZM251.148 92.9678C251.148 92.7041 251.228 92.4814 251.386 92.2998C251.55 92.1182 251.79 92.0273 252.106 92.0273C252.423 92.0273 252.663 92.1182 252.827 92.2998C252.991 92.4814 253.073 92.7041 253.073 92.9678C253.073 93.2314 252.991 93.4512 252.827 93.627C252.663 93.8027 252.423 93.8906 252.106 93.8906C251.79 93.8906 251.55 93.8027 251.386 93.627C251.228 93.4512 251.148 93.2314 251.148 92.9678ZM258.654 102.794L261.01 95.4902H262.671L259.261 105H258.021L254.576 95.4902H256.237L258.654 102.794ZM269.992 99.2871L264.183 97.0107V95.3408L271.688 98.6631V99.9463L264.183 103.277V101.59L269.992 99.2871Z" fill="black"/>
<circle cx="485" cy="171" r="38" fill="#D6FCCD" stroke="#297804" stroke-width="2"/>
<path d="M460.417 174.478C460.417 174.284 460.379 174.111 460.303 173.959C460.227 173.801 460.098 173.657 459.916 173.528C459.734 173.399 459.494 173.282 459.195 173.177C458.896 173.065 458.524 172.966 458.079 172.878C457.534 172.767 457.036 172.632 456.585 172.474C456.14 172.315 455.756 172.128 455.434 171.911C455.117 171.688 454.871 171.431 454.695 171.138C454.52 170.839 454.432 170.493 454.432 170.101C454.432 169.714 454.522 169.354 454.704 169.02C454.886 168.68 455.141 168.384 455.469 168.132C455.797 167.88 456.187 167.681 456.638 167.534C457.095 167.388 457.596 167.314 458.141 167.314C458.727 167.314 459.254 167.391 459.723 167.543C460.191 167.695 460.59 167.906 460.918 168.176C461.246 168.445 461.498 168.762 461.674 169.125C461.855 169.482 461.946 169.869 461.946 170.285H460.32C460.32 170.08 460.268 169.881 460.162 169.688C460.057 169.488 459.91 169.312 459.723 169.16C459.535 169.008 459.307 168.885 459.037 168.791C458.773 168.697 458.475 168.65 458.141 168.65C457.795 168.65 457.49 168.688 457.227 168.765C456.969 168.841 456.752 168.943 456.576 169.072C456.406 169.201 456.277 169.351 456.189 169.521C456.102 169.69 456.058 169.866 456.058 170.048C456.058 170.235 456.093 170.402 456.163 170.549C456.233 170.695 456.354 170.827 456.523 170.944C456.699 171.062 456.931 171.167 457.218 171.261C457.511 171.354 457.88 171.445 458.325 171.533C458.911 171.656 459.436 171.8 459.898 171.964C460.361 172.122 460.751 172.315 461.067 172.544C461.384 172.767 461.624 173.027 461.788 173.326C461.958 173.625 462.043 173.971 462.043 174.363C462.043 174.785 461.946 175.169 461.753 175.515C461.565 175.86 461.302 176.156 460.962 176.402C460.622 176.648 460.215 176.839 459.74 176.974C459.266 177.108 458.747 177.176 458.185 177.176C457.54 177.176 456.966 177.091 456.462 176.921C455.958 176.745 455.53 176.517 455.179 176.235C454.833 175.948 454.566 175.617 454.379 175.242C454.197 174.867 454.106 174.478 454.106 174.073H455.732C455.756 174.407 455.844 174.688 455.996 174.917C456.154 175.146 456.348 175.33 456.576 175.471C456.811 175.611 457.068 175.711 457.35 175.77C457.631 175.828 457.909 175.857 458.185 175.857C458.87 175.857 459.412 175.731 459.811 175.479C460.209 175.228 460.411 174.894 460.417 174.478ZM471.078 175.69C470.762 176.159 470.366 176.525 469.892 176.789C469.417 177.047 468.869 177.176 468.248 177.176C467.75 177.176 467.299 177.1 466.895 176.947C466.49 176.789 466.145 176.546 465.857 176.218C465.57 175.89 465.348 175.474 465.189 174.97C465.037 174.46 464.961 173.851 464.961 173.142V167.49H466.587V173.159C466.587 173.675 466.628 174.103 466.71 174.442C466.792 174.782 466.915 175.055 467.079 175.26C467.243 175.459 467.442 175.6 467.677 175.682C467.917 175.764 468.192 175.805 468.503 175.805C469.165 175.805 469.698 175.67 470.103 175.4C470.513 175.131 470.817 174.768 471.017 174.311V167.49H472.651V177H471.175L471.078 175.69ZM483.778 172.351C483.778 173.03 483.696 173.666 483.532 174.258C483.368 174.844 483.128 175.354 482.812 175.787C482.495 176.221 482.103 176.561 481.634 176.807C481.171 177.053 480.638 177.176 480.034 177.176C479.425 177.176 478.895 177.067 478.443 176.851C477.998 176.634 477.617 176.323 477.301 175.919L477.222 177H475.728V163.5H477.354V168.51C477.664 168.123 478.039 167.827 478.479 167.622C478.918 167.417 479.431 167.314 480.017 167.314C480.626 167.314 481.165 167.435 481.634 167.675C482.103 167.915 482.495 168.249 482.812 168.677C483.128 169.104 483.368 169.617 483.532 170.215C483.696 170.807 483.778 171.457 483.778 172.166V172.351ZM482.152 172.166C482.152 171.703 482.105 171.264 482.012 170.848C481.924 170.426 481.78 170.057 481.581 169.74C481.382 169.418 481.121 169.163 480.799 168.976C480.477 168.788 480.081 168.694 479.612 168.694C479.331 168.694 479.073 168.732 478.839 168.809C478.604 168.879 478.394 168.981 478.206 169.116C478.024 169.245 477.86 169.4 477.714 169.582C477.573 169.758 477.453 169.951 477.354 170.162V174.319C477.459 174.53 477.582 174.727 477.723 174.908C477.869 175.084 478.036 175.239 478.224 175.374C478.411 175.509 478.622 175.614 478.856 175.69C479.091 175.761 479.349 175.796 479.63 175.796C480.075 175.796 480.456 175.705 480.772 175.523C481.095 175.336 481.355 175.084 481.555 174.768C481.76 174.451 481.909 174.085 482.003 173.669C482.103 173.253 482.152 172.813 482.152 172.351V172.166ZM487.276 167.49L487.32 168.387C487.514 168.053 487.766 167.792 488.076 167.604C488.393 167.417 488.773 167.32 489.219 167.314C490.092 167.314 490.675 167.654 490.968 168.334C491.155 168.029 491.401 167.786 491.706 167.604C492.017 167.417 492.392 167.32 492.831 167.314C493.528 167.314 494.064 167.528 494.439 167.956C494.814 168.384 495.002 169.031 495.002 169.898V177H493.455V169.881C493.455 169.084 493.089 168.688 492.356 168.694C492.163 168.694 491.996 168.721 491.855 168.773C491.715 168.826 491.598 168.899 491.504 168.993C491.41 169.081 491.337 169.187 491.284 169.31C491.231 169.427 491.196 169.55 491.179 169.679V177H489.632V169.872C489.632 169.491 489.547 169.198 489.377 168.993C489.207 168.788 488.938 168.688 488.568 168.694C488.229 168.694 487.965 168.762 487.777 168.896C487.59 169.031 487.452 169.21 487.364 169.433V177H485.817V167.49H487.276ZM497.595 167.49H502.455V175.594H505.558V177H497.595V175.594H500.829V168.905H497.595V167.49ZM500.618 164.994C500.618 164.725 500.697 164.499 500.855 164.317C501.02 164.13 501.266 164.036 501.594 164.036C501.916 164.036 502.159 164.13 502.323 164.317C502.487 164.499 502.569 164.725 502.569 164.994C502.569 165.258 502.487 165.478 502.323 165.653C502.159 165.829 501.916 165.917 501.594 165.917C501.266 165.917 501.02 165.829 500.855 165.653C500.697 165.478 500.618 165.258 500.618 164.994ZM512 165.188V167.49H515.621V168.747H512V173.915C512 174.284 512.047 174.589 512.141 174.829C512.234 175.069 512.363 175.263 512.527 175.409C512.691 175.55 512.879 175.649 513.09 175.708C513.307 175.767 513.535 175.796 513.775 175.796C513.951 175.796 514.133 175.787 514.32 175.77C514.508 175.746 514.689 175.72 514.865 175.69C515.047 175.661 515.214 175.632 515.366 175.603C515.524 175.567 515.653 175.538 515.753 175.515L515.981 176.666C515.847 176.748 515.683 176.821 515.489 176.886C515.296 176.944 515.085 176.994 514.856 177.035C514.628 177.082 514.385 177.117 514.127 177.141C513.875 177.164 513.623 177.176 513.371 177.176C512.949 177.176 512.554 177.117 512.185 177C511.821 176.877 511.505 176.687 511.235 176.429C510.966 176.165 510.752 175.828 510.594 175.418C510.441 175.002 510.365 174.501 510.365 173.915V168.747H507.869V167.49H510.365V165.188H512Z" fill="#297804"/>
<path d="M443.707 171.707C444.098 171.317 444.098 170.683 443.707 170.293L437.343 163.929C436.953 163.538 436.319 163.538 435.929 163.929C435.538 164.319 435.538 164.953 435.929 165.343L441.586 171L435.929 176.657C435.538 177.047 435.538 177.681 435.929 178.071C436.319 178.462 436.953 178.462 437.343 178.071L443.707 171.707ZM417 172H443V170H417V172Z" fill="black"/>
</svg>
