<svg width="560" height="184" viewBox="0 0 560 184" fill="none" xmlns="http://www.w3.org/2000/svg">
<rect width="560" height="184" fill="#87CEFF" fill-opacity="0.16"/>
<rect x="96.5" y="96.5" width="367" height="39" rx="7.5" fill="#E5F2FF"/>
<rect x="96.5" y="96.5" width="367" height="39" rx="7.5" stroke="#87CEFF"/>
<path d="M115.048 119.865L109.107 117.322V116.01L115.048 113.474V115.107L111.117 116.529L110.7 116.68L111.117 116.823L115.048 118.231V119.865ZM117.844 113.604H121.768V119.646H123.941V121H117.844V119.646H120.12V114.964H117.844V113.604ZM119.97 111.689C119.97 111.557 119.993 111.437 120.038 111.327C120.084 111.213 120.15 111.115 120.236 111.033C120.318 110.956 120.416 110.896 120.53 110.855C120.649 110.81 120.781 110.787 120.927 110.787C121.173 110.787 121.371 110.851 121.521 110.979C121.676 111.102 121.765 111.261 121.788 111.457C121.82 111.658 121.786 111.833 121.686 111.983C121.585 112.129 121.439 112.227 121.248 112.277C121.152 112.364 121.038 112.421 120.906 112.448C120.774 112.476 120.628 112.464 120.469 112.414C120.305 112.364 120.179 112.275 120.093 112.147C120.011 112.015 119.97 111.863 119.97 111.689ZM126.806 113.604L126.854 114.417C126.995 114.121 127.188 113.888 127.435 113.72C127.685 113.551 127.986 113.467 128.337 113.467C128.519 113.467 128.683 113.487 128.829 113.528C128.975 113.569 129.1 113.633 129.205 113.72C129.287 113.784 129.36 113.861 129.424 113.952C129.488 114.039 129.542 114.139 129.588 114.253C129.652 114.148 129.725 114.05 129.807 113.959C129.889 113.868 129.978 113.79 130.073 113.727C130.196 113.645 130.333 113.581 130.483 113.535C130.638 113.49 130.807 113.467 130.989 113.467C131.226 113.467 131.443 113.508 131.639 113.59C131.839 113.667 132.012 113.788 132.158 113.952C132.304 114.125 132.416 114.351 132.493 114.629C132.575 114.902 132.616 115.233 132.616 115.62V121H131.112V115.606C131.112 115.461 131.096 115.338 131.064 115.237C131.033 115.132 130.987 115.048 130.928 114.984C130.868 114.925 130.796 114.882 130.709 114.854C130.627 114.827 130.536 114.813 130.436 114.813C130.331 114.813 130.24 114.827 130.162 114.854C130.085 114.882 130.016 114.921 129.957 114.971C129.902 115.016 129.857 115.071 129.82 115.135C129.784 115.194 129.757 115.262 129.738 115.34C129.738 115.358 129.738 115.381 129.738 115.408C129.738 115.431 129.738 115.465 129.738 115.511V121H128.262V115.6C128.262 115.454 128.246 115.331 128.214 115.23C128.187 115.126 128.143 115.044 128.084 114.984C128.025 114.925 127.954 114.882 127.872 114.854C127.795 114.827 127.706 114.813 127.605 114.813C127.496 114.813 127.398 114.829 127.312 114.861C127.229 114.889 127.159 114.932 127.1 114.991C127.054 115.032 127.013 115.08 126.977 115.135C126.945 115.189 126.915 115.251 126.888 115.319V121H125.384V113.604H126.806ZM134.072 117.247C134.072 116.687 134.141 116.176 134.277 115.716C134.414 115.251 134.612 114.852 134.872 114.52C135.132 114.187 135.444 113.929 135.809 113.747C136.178 113.56 136.592 113.467 137.053 113.467C137.326 113.467 137.575 113.496 137.798 113.556C138.021 113.61 138.224 113.692 138.406 113.802C138.525 113.87 138.636 113.952 138.741 114.048C138.846 114.139 138.944 114.239 139.035 114.349L139.104 113.604H140.587V120.795C140.587 121.292 140.505 121.731 140.341 122.114C140.181 122.502 139.956 122.83 139.664 123.099C139.368 123.363 139.012 123.563 138.598 123.7C138.188 123.841 137.734 123.912 137.237 123.912C137.028 123.912 136.798 123.889 136.547 123.844C136.296 123.798 136.046 123.728 135.795 123.632C135.544 123.536 135.305 123.411 135.077 123.256C134.849 123.101 134.653 122.914 134.489 122.695L135.262 121.704C135.394 121.864 135.535 122 135.686 122.114C135.84 122.233 135.998 122.328 136.157 122.401C136.317 122.474 136.479 122.527 136.643 122.559C136.807 122.595 136.973 122.613 137.142 122.613C137.433 122.613 137.691 122.572 137.914 122.49C138.142 122.408 138.336 122.29 138.495 122.135C138.641 121.984 138.753 121.8 138.83 121.581C138.912 121.362 138.953 121.114 138.953 120.836V120.323C138.857 120.424 138.757 120.517 138.652 120.604C138.552 120.69 138.443 120.765 138.324 120.829C138.146 120.929 137.951 121.005 137.736 121.055C137.522 121.109 137.29 121.137 137.039 121.137C136.583 121.137 136.173 121.043 135.809 120.856C135.444 120.665 135.132 120.401 134.872 120.063C134.617 119.731 134.419 119.337 134.277 118.881C134.141 118.421 134.072 117.924 134.072 117.391V117.247ZM135.713 117.391C135.713 117.719 135.745 118.029 135.809 118.32C135.877 118.612 135.984 118.865 136.13 119.079C136.271 119.302 136.451 119.478 136.67 119.605C136.889 119.729 137.148 119.79 137.449 119.79C137.636 119.79 137.805 119.77 137.955 119.729C138.11 119.688 138.249 119.631 138.372 119.558C138.495 119.48 138.604 119.387 138.7 119.277C138.796 119.168 138.88 119.047 138.953 118.915V115.675C138.88 115.538 138.791 115.415 138.687 115.306C138.586 115.196 138.47 115.103 138.338 115.025C138.219 114.962 138.087 114.911 137.941 114.875C137.796 114.834 137.636 114.813 137.463 114.813C137.158 114.813 136.896 114.877 136.677 115.005C136.458 115.132 136.278 115.308 136.137 115.531C135.991 115.755 135.884 116.014 135.815 116.311C135.747 116.602 135.713 116.914 135.713 117.247V117.391Z" fill="#001E2E"/>
<rect x="150.5" y="104.5" width="138" height="23" rx="5.5" fill="#FFEBF7"/>
<rect x="150.5" y="104.5" width="138" height="23" rx="5.5" stroke="#FFADF3"/>
<path d="M161.893 118.997C161.893 118.869 161.863 118.756 161.804 118.655C161.749 118.555 161.656 118.459 161.523 118.368C161.382 118.286 161.198 118.209 160.97 118.136C160.742 118.063 160.457 117.994 160.115 117.931C159.687 117.844 159.295 117.737 158.939 117.609C158.589 117.482 158.285 117.327 158.03 117.145C157.78 116.971 157.584 116.766 157.442 116.529C157.301 116.292 157.23 116.017 157.23 115.702C157.23 115.401 157.301 115.117 157.442 114.848C157.588 114.574 157.796 114.335 158.064 114.13C158.329 113.925 158.648 113.763 159.021 113.645C159.4 113.526 159.819 113.467 160.279 113.467C160.771 113.467 161.214 113.528 161.605 113.651C161.997 113.77 162.33 113.934 162.604 114.144C162.872 114.353 163.08 114.602 163.226 114.889C163.371 115.176 163.444 115.486 163.444 115.818H161.811C161.811 115.682 161.781 115.552 161.722 115.429C161.667 115.301 161.585 115.187 161.476 115.087C161.348 114.968 161.184 114.875 160.983 114.807C160.783 114.734 160.548 114.697 160.279 114.697C160.033 114.697 159.817 114.725 159.63 114.779C159.448 114.829 159.297 114.9 159.179 114.991C159.06 115.073 158.971 115.171 158.912 115.285C158.853 115.395 158.823 115.511 158.823 115.634C158.823 115.761 158.848 115.878 158.898 115.982C158.949 116.083 159.037 116.172 159.165 116.249C159.284 116.331 159.448 116.406 159.657 116.475C159.871 116.543 160.14 116.604 160.464 116.659C160.915 116.741 161.327 116.841 161.701 116.96C162.075 117.078 162.394 117.224 162.658 117.397C162.923 117.58 163.128 117.794 163.273 118.04C163.419 118.286 163.492 118.578 163.492 118.915C163.492 119.243 163.415 119.544 163.26 119.817C163.109 120.091 162.895 120.326 162.617 120.521C162.335 120.717 161.997 120.87 161.605 120.979C161.214 121.089 160.778 121.144 160.3 121.144C159.767 121.144 159.293 121.073 158.878 120.932C158.468 120.79 158.124 120.604 157.846 120.371C157.563 120.143 157.349 119.881 157.203 119.585C157.057 119.289 156.984 118.988 156.984 118.683H158.57C158.584 118.91 158.643 119.104 158.748 119.264C158.857 119.419 158.994 119.544 159.158 119.64C159.318 119.74 159.5 119.813 159.705 119.858C159.91 119.899 160.118 119.92 160.327 119.92C160.61 119.92 160.856 119.89 161.065 119.831C161.28 119.772 161.451 119.692 161.578 119.592C161.683 119.51 161.76 119.421 161.811 119.325C161.865 119.225 161.893 119.116 161.893 118.997ZM170.581 113.467C170.845 113.467 171.101 113.485 171.347 113.521C171.597 113.558 171.793 113.601 171.935 113.651L171.702 115.265C171.451 115.21 171.203 115.169 170.957 115.142C170.715 115.114 170.474 115.101 170.232 115.101C169.959 115.101 169.713 115.128 169.494 115.183C169.275 115.237 169.082 115.322 168.913 115.436C168.731 115.545 168.576 115.684 168.448 115.853C168.321 116.021 168.214 116.215 168.127 116.434V121H166.493V113.604H168.024L168.093 114.629L168.1 114.8C168.4 114.385 168.76 114.059 169.18 113.822C169.604 113.585 170.071 113.467 170.581 113.467ZM177.096 119.824C177.301 119.824 177.497 119.795 177.684 119.735C177.875 119.672 178.044 119.583 178.189 119.469C178.331 119.355 178.442 119.22 178.524 119.065C178.611 118.91 178.654 118.74 178.654 118.553H180.192C180.197 118.913 180.115 119.252 179.946 119.571C179.782 119.886 179.559 120.157 179.276 120.385C178.989 120.622 178.659 120.809 178.285 120.945C177.916 121.077 177.526 121.144 177.116 121.144C176.547 121.144 176.048 121.046 175.619 120.85C175.195 120.649 174.842 120.38 174.56 120.043C174.272 119.706 174.056 119.314 173.91 118.867C173.764 118.416 173.691 117.935 173.691 117.425V117.186C173.691 116.68 173.762 116.201 173.903 115.75C174.049 115.299 174.266 114.905 174.553 114.567C174.84 114.23 175.195 113.964 175.619 113.768C176.048 113.567 176.544 113.467 177.109 113.467C177.556 113.467 177.968 113.535 178.347 113.672C178.729 113.809 179.058 114 179.331 114.246C179.604 114.492 179.816 114.786 179.967 115.128C180.122 115.47 180.197 115.846 180.192 116.256H178.654C178.654 116.055 178.616 115.866 178.538 115.688C178.465 115.511 178.36 115.356 178.224 115.224C178.082 115.091 177.914 114.987 177.718 114.909C177.526 114.832 177.319 114.793 177.096 114.793C176.754 114.793 176.469 114.864 176.241 115.005C176.018 115.142 175.84 115.322 175.708 115.545C175.567 115.768 175.466 116.023 175.407 116.311C175.353 116.598 175.325 116.889 175.325 117.186V117.425C175.325 117.726 175.353 118.022 175.407 118.313C175.466 118.601 175.564 118.854 175.701 119.072C175.833 119.3 176.013 119.482 176.241 119.619C176.469 119.756 176.754 119.824 177.096 119.824ZM188.662 115.921H182.346V114.554H188.662V115.921ZM188.662 118.819H182.346V117.459H188.662V118.819ZM193.707 111.45C193.707 111.674 193.677 111.908 193.618 112.154C193.559 112.396 193.477 112.633 193.372 112.865C193.258 113.098 193.126 113.321 192.976 113.535C192.83 113.745 192.666 113.929 192.483 114.089L191.69 113.569C191.882 113.264 192.032 112.943 192.142 112.605C192.251 112.264 192.306 111.881 192.306 111.457V110.343H193.707V111.45ZM196.079 111.45C196.079 111.674 196.049 111.908 195.99 112.154C195.931 112.396 195.849 112.633 195.744 112.865C195.63 113.098 195.498 113.321 195.348 113.535C195.202 113.745 195.038 113.929 194.855 114.089L194.062 113.569C194.254 113.264 194.404 112.943 194.514 112.605C194.623 112.264 194.678 111.881 194.678 111.457V110.343H196.079V111.45ZM201.138 120.016C201.138 119.701 201.238 119.432 201.438 119.209C201.644 118.986 201.938 118.874 202.32 118.874C202.694 118.874 202.986 118.986 203.195 119.209C203.405 119.428 203.51 119.697 203.51 120.016C203.51 120.335 203.403 120.601 203.188 120.815C202.979 121.03 202.689 121.137 202.32 121.137C201.947 121.137 201.655 121.03 201.445 120.815C201.24 120.597 201.138 120.33 201.138 120.016ZM209.546 121.854H208.042L211.952 111.047H213.449L209.546 121.854ZM216.293 113.604H220.217V119.646H222.391V121H216.293V119.646H218.569V114.964H216.293V113.604ZM218.419 111.689C218.419 111.557 218.442 111.437 218.487 111.327C218.533 111.213 218.599 111.115 218.686 111.033C218.768 110.956 218.866 110.896 218.979 110.855C219.098 110.81 219.23 110.787 219.376 110.787C219.622 110.787 219.82 110.851 219.971 110.979C220.126 111.102 220.215 111.261 220.237 111.457C220.269 111.658 220.235 111.833 220.135 111.983C220.035 112.129 219.889 112.227 219.697 112.277C219.602 112.364 219.488 112.421 219.355 112.448C219.223 112.476 219.077 112.464 218.918 112.414C218.754 112.364 218.629 112.275 218.542 112.147C218.46 112.015 218.419 111.863 218.419 111.689ZM225.255 113.604L225.303 114.417C225.444 114.121 225.638 113.888 225.884 113.72C226.134 113.551 226.435 113.467 226.786 113.467C226.968 113.467 227.132 113.487 227.278 113.528C227.424 113.569 227.549 113.633 227.654 113.72C227.736 113.784 227.809 113.861 227.873 113.952C227.937 114.039 227.992 114.139 228.037 114.253C228.101 114.148 228.174 114.05 228.256 113.959C228.338 113.868 228.427 113.79 228.522 113.727C228.646 113.645 228.782 113.581 228.933 113.535C229.088 113.49 229.256 113.467 229.438 113.467C229.675 113.467 229.892 113.508 230.088 113.59C230.288 113.667 230.462 113.788 230.607 113.952C230.753 114.125 230.865 114.351 230.942 114.629C231.024 114.902 231.065 115.233 231.065 115.62V121H229.562V115.606C229.562 115.461 229.546 115.338 229.514 115.237C229.482 115.132 229.436 115.048 229.377 114.984C229.318 114.925 229.245 114.882 229.158 114.854C229.076 114.827 228.985 114.813 228.885 114.813C228.78 114.813 228.689 114.827 228.611 114.854C228.534 114.882 228.465 114.921 228.406 114.971C228.352 115.016 228.306 115.071 228.27 115.135C228.233 115.194 228.206 115.262 228.188 115.34C228.188 115.358 228.188 115.381 228.188 115.408C228.188 115.431 228.188 115.465 228.188 115.511V121H226.711V115.6C226.711 115.454 226.695 115.331 226.663 115.23C226.636 115.126 226.592 115.044 226.533 114.984C226.474 114.925 226.403 114.882 226.321 114.854C226.244 114.827 226.155 114.813 226.055 114.813C225.945 114.813 225.847 114.829 225.761 114.861C225.679 114.889 225.608 114.932 225.549 114.991C225.503 115.032 225.462 115.08 225.426 115.135C225.394 115.189 225.364 115.251 225.337 115.319V121H223.833V113.604H225.255ZM232.521 117.247C232.521 116.687 232.59 116.176 232.727 115.716C232.863 115.251 233.062 114.852 233.321 114.52C233.581 114.187 233.893 113.929 234.258 113.747C234.627 113.56 235.042 113.467 235.502 113.467C235.775 113.467 236.024 113.496 236.247 113.556C236.47 113.61 236.673 113.692 236.855 113.802C236.974 113.87 237.086 113.952 237.19 114.048C237.295 114.139 237.393 114.239 237.484 114.349L237.553 113.604H239.036V120.795C239.036 121.292 238.954 121.731 238.79 122.114C238.631 122.502 238.405 122.83 238.113 123.099C237.817 123.363 237.462 123.563 237.047 123.7C236.637 123.841 236.183 123.912 235.687 123.912C235.477 123.912 235.247 123.889 234.996 123.844C234.745 123.798 234.495 123.728 234.244 123.632C233.993 123.536 233.754 123.411 233.526 123.256C233.299 123.101 233.103 122.914 232.938 122.695L233.711 121.704C233.843 121.864 233.984 122 234.135 122.114C234.29 122.233 234.447 122.328 234.606 122.401C234.766 122.474 234.928 122.527 235.092 122.559C235.256 122.595 235.422 122.613 235.591 122.613C235.882 122.613 236.14 122.572 236.363 122.49C236.591 122.408 236.785 122.29 236.944 122.135C237.09 121.984 237.202 121.8 237.279 121.581C237.361 121.362 237.402 121.114 237.402 120.836V120.323C237.307 120.424 237.206 120.517 237.102 120.604C237.001 120.69 236.892 120.765 236.773 120.829C236.596 120.929 236.4 121.005 236.186 121.055C235.971 121.109 235.739 121.137 235.488 121.137C235.033 121.137 234.622 121.043 234.258 120.856C233.893 120.665 233.581 120.401 233.321 120.063C233.066 119.731 232.868 119.337 232.727 118.881C232.59 118.421 232.521 117.924 232.521 117.391V117.247ZM234.162 117.391C234.162 117.719 234.194 118.029 234.258 118.32C234.326 118.612 234.433 118.865 234.579 119.079C234.72 119.302 234.9 119.478 235.119 119.605C235.338 119.729 235.598 119.79 235.898 119.79C236.085 119.79 236.254 119.77 236.404 119.729C236.559 119.688 236.698 119.631 236.821 119.558C236.944 119.48 237.054 119.387 237.149 119.277C237.245 119.168 237.329 119.047 237.402 118.915V115.675C237.329 115.538 237.241 115.415 237.136 115.306C237.035 115.196 236.919 115.103 236.787 115.025C236.669 114.962 236.536 114.911 236.391 114.875C236.245 114.834 236.085 114.813 235.912 114.813C235.607 114.813 235.345 114.877 235.126 115.005C234.907 115.132 234.727 115.308 234.586 115.531C234.44 115.755 234.333 116.014 234.265 116.311C234.196 116.602 234.162 116.914 234.162 117.247V117.391ZM243.179 120.016C243.179 119.701 243.279 119.432 243.479 119.209C243.685 118.986 243.979 118.874 244.361 118.874C244.735 118.874 245.027 118.986 245.236 119.209C245.446 119.428 245.551 119.697 245.551 120.016C245.551 120.335 245.444 120.601 245.229 120.815C245.02 121.03 244.73 121.137 244.361 121.137C243.988 121.137 243.696 121.03 243.486 120.815C243.281 120.597 243.179 120.33 243.179 120.016ZM249.563 123.844V113.604H251.067L251.129 114.362C251.229 114.239 251.339 114.128 251.457 114.027C251.576 113.927 251.703 113.84 251.84 113.768C252.018 113.672 252.214 113.599 252.428 113.549C252.642 113.494 252.87 113.467 253.111 113.467C253.585 113.467 254.002 113.558 254.362 113.74C254.727 113.923 255.032 114.18 255.278 114.513C255.52 114.845 255.704 115.244 255.832 115.709C255.96 116.169 256.023 116.677 256.023 117.233V117.377C256.023 117.91 255.96 118.407 255.832 118.867C255.709 119.327 255.524 119.724 255.278 120.057C255.032 120.394 254.729 120.658 254.369 120.85C254.009 121.041 253.597 121.137 253.132 121.137C252.868 121.137 252.624 121.109 252.4 121.055C252.182 121 251.979 120.92 251.792 120.815C251.683 120.752 251.578 120.679 251.478 120.597C251.377 120.515 251.284 120.426 251.197 120.33V123.844H249.563ZM254.39 117.233C254.39 116.901 254.355 116.589 254.287 116.297C254.223 116.001 254.123 115.743 253.986 115.524C253.845 115.306 253.665 115.132 253.446 115.005C253.228 114.877 252.965 114.813 252.66 114.813C252.492 114.813 252.334 114.832 252.188 114.868C252.043 114.905 251.913 114.957 251.799 115.025C251.667 115.098 251.55 115.189 251.45 115.299C251.354 115.408 251.27 115.531 251.197 115.668V118.956C251.261 119.084 251.339 119.2 251.43 119.305C251.521 119.41 251.626 119.501 251.744 119.578C251.867 119.651 252.006 119.71 252.161 119.756C252.316 119.797 252.487 119.817 252.674 119.817C252.979 119.817 253.239 119.754 253.453 119.626C253.672 119.494 253.85 119.316 253.986 119.093C254.128 118.865 254.23 118.605 254.294 118.313C254.358 118.017 254.39 117.705 254.39 117.377V117.233ZM257.958 121V113.604H259.435L259.537 114.656C259.637 114.515 259.747 114.385 259.865 114.267C259.988 114.144 260.118 114.034 260.255 113.938C260.474 113.788 260.713 113.672 260.973 113.59C261.232 113.508 261.506 113.467 261.793 113.467C262.171 113.467 262.518 113.521 262.832 113.631C263.146 113.74 263.415 113.913 263.639 114.15C263.862 114.387 264.035 114.69 264.158 115.06C264.281 115.424 264.343 115.866 264.343 116.386V121H262.709V116.413C262.709 116.108 262.675 115.853 262.606 115.647C262.538 115.442 262.438 115.278 262.306 115.155C262.174 115.032 262.014 114.946 261.827 114.896C261.64 114.841 261.426 114.813 261.185 114.813C260.984 114.813 260.797 114.841 260.624 114.896C260.451 114.946 260.294 115.019 260.152 115.114C260.043 115.187 259.94 115.276 259.845 115.381C259.749 115.486 259.665 115.6 259.592 115.723V121H257.958ZM266.154 117.247C266.154 116.687 266.223 116.176 266.359 115.716C266.496 115.251 266.694 114.852 266.954 114.52C267.214 114.187 267.526 113.929 267.891 113.747C268.26 113.56 268.674 113.467 269.135 113.467C269.408 113.467 269.657 113.496 269.88 113.556C270.103 113.61 270.306 113.692 270.488 113.802C270.607 113.87 270.718 113.952 270.823 114.048C270.928 114.139 271.026 114.239 271.117 114.349L271.186 113.604H272.669V120.795C272.669 121.292 272.587 121.731 272.423 122.114C272.263 122.502 272.038 122.83 271.746 123.099C271.45 123.363 271.094 123.563 270.68 123.7C270.27 123.841 269.816 123.912 269.319 123.912C269.11 123.912 268.88 123.889 268.629 123.844C268.378 123.798 268.128 123.728 267.877 123.632C267.626 123.536 267.387 123.411 267.159 123.256C266.931 123.101 266.735 122.914 266.571 122.695L267.344 121.704C267.476 121.864 267.617 122 267.768 122.114C267.923 122.233 268.08 122.328 268.239 122.401C268.399 122.474 268.561 122.527 268.725 122.559C268.889 122.595 269.055 122.613 269.224 122.613C269.515 122.613 269.773 122.572 269.996 122.49C270.224 122.408 270.418 122.29 270.577 122.135C270.723 121.984 270.835 121.8 270.912 121.581C270.994 121.362 271.035 121.114 271.035 120.836V120.323C270.939 120.424 270.839 120.517 270.734 120.604C270.634 120.69 270.525 120.765 270.406 120.829C270.229 120.929 270.033 121.005 269.818 121.055C269.604 121.109 269.372 121.137 269.121 121.137C268.665 121.137 268.255 121.043 267.891 120.856C267.526 120.665 267.214 120.401 266.954 120.063C266.699 119.731 266.501 119.337 266.359 118.881C266.223 118.421 266.154 117.924 266.154 117.391V117.247ZM267.795 117.391C267.795 117.719 267.827 118.029 267.891 118.32C267.959 118.612 268.066 118.865 268.212 119.079C268.353 119.302 268.533 119.478 268.752 119.605C268.971 119.729 269.23 119.79 269.531 119.79C269.718 119.79 269.887 119.77 270.037 119.729C270.192 119.688 270.331 119.631 270.454 119.558C270.577 119.48 270.687 119.387 270.782 119.277C270.878 119.168 270.962 119.047 271.035 118.915V115.675C270.962 115.538 270.873 115.415 270.769 115.306C270.668 115.196 270.552 115.103 270.42 115.025C270.301 114.962 270.169 114.911 270.023 114.875C269.878 114.834 269.718 114.813 269.545 114.813C269.24 114.813 268.978 114.877 268.759 115.005C268.54 115.132 268.36 115.308 268.219 115.531C268.073 115.755 267.966 116.014 267.897 116.311C267.829 116.602 267.795 116.914 267.795 117.247V117.391ZM277.789 111.45C277.789 111.674 277.759 111.908 277.7 112.154C277.641 112.396 277.559 112.633 277.454 112.865C277.34 113.098 277.208 113.321 277.058 113.535C276.912 113.745 276.748 113.929 276.565 114.089L275.772 113.569C275.964 113.264 276.114 112.943 276.224 112.605C276.333 112.264 276.388 111.881 276.388 111.457V110.343H277.789V111.45ZM280.161 111.45C280.161 111.674 280.132 111.908 280.072 112.154C280.013 112.396 279.931 112.633 279.826 112.865C279.712 113.098 279.58 113.321 279.43 113.535C279.284 113.745 279.12 113.929 278.938 114.089L278.145 113.569C278.336 113.264 278.486 112.943 278.596 112.605C278.705 112.264 278.76 111.881 278.76 111.457V110.343H280.161V111.45Z" fill="#380037"/>
<rect x="297.5" y="104.5" width="129" height="23" rx="5.5" fill="#FFEBF7"/>
<rect x="297.5" y="104.5" width="129" height="23" rx="5.5" stroke="#FFADF3"/>
<path d="M304.374 110.5H308.359V119.646H310.602V121H304.374V119.646H306.712V111.86H304.374V110.5ZM312.167 117.233C312.167 116.696 312.244 116.199 312.399 115.743C312.554 115.283 312.78 114.884 313.076 114.547C313.368 114.21 313.726 113.945 314.149 113.754C314.573 113.562 315.056 113.467 315.599 113.467C316.141 113.467 316.624 113.562 317.048 113.754C317.476 113.945 317.839 114.21 318.135 114.547C318.426 114.884 318.65 115.283 318.805 115.743C318.96 116.199 319.037 116.696 319.037 117.233V117.377C319.037 117.919 318.96 118.418 318.805 118.874C318.65 119.33 318.426 119.726 318.135 120.063C317.843 120.401 317.483 120.665 317.055 120.856C316.631 121.048 316.15 121.144 315.612 121.144C315.07 121.144 314.585 121.048 314.156 120.856C313.728 120.665 313.368 120.401 313.076 120.063C312.78 119.726 312.554 119.33 312.399 118.874C312.244 118.418 312.167 117.919 312.167 117.377V117.233ZM313.801 117.377C313.801 117.71 313.835 118.024 313.903 118.32C313.976 118.617 314.088 118.876 314.238 119.1C314.384 119.323 314.571 119.501 314.799 119.633C315.027 119.76 315.298 119.824 315.612 119.824C315.918 119.824 316.184 119.76 316.412 119.633C316.64 119.501 316.827 119.323 316.973 119.1C317.118 118.876 317.226 118.617 317.294 118.32C317.367 118.024 317.403 117.71 317.403 117.377V117.233C317.403 116.91 317.367 116.6 317.294 116.304C317.221 116.007 317.114 115.748 316.973 115.524C316.822 115.301 316.633 115.123 316.405 114.991C316.182 114.859 315.913 114.793 315.599 114.793C315.289 114.793 315.02 114.859 314.792 114.991C314.569 115.123 314.384 115.301 314.238 115.524C314.088 115.748 313.976 116.007 313.903 116.304C313.835 116.6 313.801 116.91 313.801 117.233V117.377ZM325.6 121C325.549 120.909 325.508 120.799 325.477 120.672C325.449 120.54 325.424 120.403 325.401 120.262C325.287 120.38 325.158 120.494 325.012 120.604C324.87 120.708 324.711 120.799 324.533 120.877C324.355 120.959 324.164 121.023 323.959 121.068C323.754 121.114 323.533 121.137 323.296 121.137C322.913 121.137 322.562 121.082 322.243 120.973C321.929 120.859 321.66 120.704 321.437 120.508C321.209 120.316 321.031 120.086 320.903 119.817C320.78 119.544 320.719 119.25 320.719 118.936C320.719 118.53 320.799 118.172 320.958 117.862C321.122 117.548 321.359 117.288 321.669 117.083C321.956 116.892 322.309 116.746 322.729 116.646C323.152 116.545 323.631 116.495 324.164 116.495H325.354V115.996C325.354 115.805 325.319 115.632 325.251 115.477C325.187 115.322 325.094 115.187 324.971 115.073C324.839 114.959 324.677 114.873 324.485 114.813C324.299 114.75 324.082 114.718 323.836 114.718C323.613 114.718 323.417 114.745 323.248 114.8C323.084 114.854 322.947 114.93 322.838 115.025C322.729 115.112 322.646 115.219 322.592 115.347C322.542 115.47 322.517 115.602 322.517 115.743H320.876C320.881 115.447 320.951 115.162 321.088 114.889C321.225 114.615 321.425 114.374 321.689 114.164C321.945 113.95 322.259 113.781 322.633 113.658C323.011 113.531 323.442 113.467 323.925 113.467C324.358 113.467 324.761 113.521 325.135 113.631C325.513 113.736 325.839 113.893 326.112 114.103C326.386 114.312 326.6 114.579 326.755 114.902C326.91 115.221 326.987 115.59 326.987 116.01V119.298C326.987 119.631 327.01 119.931 327.056 120.2C327.106 120.465 327.176 120.692 327.268 120.884V121H325.6ZM323.61 119.824C323.825 119.824 324.023 119.797 324.205 119.742C324.392 119.688 324.561 119.617 324.711 119.53C324.861 119.444 324.991 119.346 325.101 119.236C325.21 119.127 325.294 119.013 325.354 118.895V117.527H324.301C323.945 117.527 323.638 117.562 323.378 117.63C323.118 117.694 322.911 117.787 322.756 117.91C322.619 118.015 322.517 118.14 322.448 118.286C322.384 118.432 322.353 118.596 322.353 118.778C322.353 118.929 322.38 119.07 322.435 119.202C322.489 119.33 322.569 119.439 322.674 119.53C322.779 119.621 322.909 119.694 323.063 119.749C323.218 119.799 323.401 119.824 323.61 119.824ZM329.065 117.247C329.065 116.687 329.132 116.176 329.264 115.716C329.4 115.251 329.596 114.852 329.852 114.52C330.102 114.187 330.408 113.929 330.768 113.747C331.132 113.56 331.542 113.467 331.998 113.467C332.408 113.467 332.766 113.54 333.071 113.686C333.381 113.827 333.655 114.03 333.892 114.294V110.5H335.525V121H334.042L333.967 120.228C333.73 120.519 333.447 120.745 333.119 120.904C332.791 121.059 332.413 121.137 331.984 121.137C331.533 121.137 331.128 121.043 330.768 120.856C330.408 120.665 330.102 120.401 329.852 120.063C329.601 119.731 329.407 119.337 329.271 118.881C329.134 118.421 329.065 117.924 329.065 117.391V117.247ZM330.699 117.391C330.699 117.719 330.731 118.029 330.795 118.32C330.859 118.612 330.959 118.865 331.096 119.079C331.232 119.302 331.408 119.478 331.622 119.605C331.836 119.729 332.094 119.79 332.395 119.79C332.764 119.79 333.069 119.71 333.311 119.551C333.552 119.387 333.746 119.166 333.892 118.888V115.709C333.746 115.436 333.552 115.219 333.311 115.06C333.074 114.896 332.773 114.813 332.408 114.813C332.103 114.813 331.841 114.877 331.622 115.005C331.408 115.132 331.235 115.308 331.103 115.531C330.961 115.755 330.859 116.014 330.795 116.311C330.731 116.602 330.699 116.914 330.699 117.247V117.391ZM338.068 113.604H341.992V119.646H344.166V121H338.068V119.646H340.345V114.964H338.068V113.604ZM340.194 111.689C340.194 111.557 340.217 111.437 340.263 111.327C340.308 111.213 340.374 111.115 340.461 111.033C340.543 110.956 340.641 110.896 340.755 110.855C340.873 110.81 341.006 110.787 341.151 110.787C341.397 110.787 341.596 110.851 341.746 110.979C341.901 111.102 341.99 111.261 342.013 111.457C342.045 111.658 342.01 111.833 341.91 111.983C341.81 112.129 341.664 112.227 341.473 112.277C341.377 112.364 341.263 112.421 341.131 112.448C340.999 112.476 340.853 112.464 340.693 112.414C340.529 112.364 340.404 112.275 340.317 112.147C340.235 112.015 340.194 111.863 340.194 111.689ZM346.101 121V113.604H347.577L347.68 114.656C347.78 114.515 347.889 114.385 348.008 114.267C348.131 114.144 348.261 114.034 348.397 113.938C348.616 113.788 348.855 113.672 349.115 113.59C349.375 113.508 349.648 113.467 349.936 113.467C350.314 113.467 350.66 113.521 350.975 113.631C351.289 113.74 351.558 113.913 351.781 114.15C352.005 114.387 352.178 114.69 352.301 115.06C352.424 115.424 352.485 115.866 352.485 116.386V121H350.852V116.413C350.852 116.108 350.817 115.853 350.749 115.647C350.681 115.442 350.58 115.278 350.448 115.155C350.316 115.032 350.157 114.946 349.97 114.896C349.783 114.841 349.569 114.813 349.327 114.813C349.127 114.813 348.94 114.841 348.767 114.896C348.593 114.946 348.436 115.019 348.295 115.114C348.186 115.187 348.083 115.276 347.987 115.381C347.892 115.486 347.807 115.6 347.734 115.723V121H346.101ZM354.297 117.247C354.297 116.687 354.365 116.176 354.502 115.716C354.639 115.251 354.837 114.852 355.097 114.52C355.356 114.187 355.669 113.929 356.033 113.747C356.402 113.56 356.817 113.467 357.277 113.467C357.551 113.467 357.799 113.496 358.022 113.556C358.246 113.61 358.449 113.692 358.631 113.802C358.749 113.87 358.861 113.952 358.966 114.048C359.071 114.139 359.169 114.239 359.26 114.349L359.328 113.604H360.812V120.795C360.812 121.292 360.729 121.731 360.565 122.114C360.406 122.502 360.18 122.83 359.889 123.099C359.592 123.363 359.237 123.563 358.822 123.7C358.412 123.841 357.959 123.912 357.462 123.912C357.252 123.912 357.022 123.889 356.771 123.844C356.521 123.798 356.27 123.728 356.02 123.632C355.769 123.536 355.53 123.411 355.302 123.256C355.074 123.101 354.878 122.914 354.714 122.695L355.486 121.704C355.618 121.864 355.76 122 355.91 122.114C356.065 122.233 356.222 122.328 356.382 122.401C356.541 122.474 356.703 122.527 356.867 122.559C357.031 122.595 357.198 122.613 357.366 122.613C357.658 122.613 357.915 122.572 358.139 122.49C358.367 122.408 358.56 122.29 358.72 122.135C358.866 121.984 358.977 121.8 359.055 121.581C359.137 121.362 359.178 121.114 359.178 120.836V120.323C359.082 120.424 358.982 120.517 358.877 120.604C358.777 120.69 358.667 120.765 358.549 120.829C358.371 120.929 358.175 121.005 357.961 121.055C357.747 121.109 357.514 121.137 357.264 121.137C356.808 121.137 356.398 121.043 356.033 120.856C355.669 120.665 355.356 120.401 355.097 120.063C354.841 119.731 354.643 119.337 354.502 118.881C354.365 118.421 354.297 117.924 354.297 117.391V117.247ZM355.938 117.391C355.938 117.719 355.969 118.029 356.033 118.32C356.102 118.612 356.209 118.865 356.354 119.079C356.496 119.302 356.676 119.478 356.895 119.605C357.113 119.729 357.373 119.79 357.674 119.79C357.861 119.79 358.029 119.77 358.18 119.729C358.335 119.688 358.474 119.631 358.597 119.558C358.72 119.48 358.829 119.387 358.925 119.277C359.021 119.168 359.105 119.047 359.178 118.915V115.675C359.105 115.538 359.016 115.415 358.911 115.306C358.811 115.196 358.695 115.103 358.562 115.025C358.444 114.962 358.312 114.911 358.166 114.875C358.02 114.834 357.861 114.813 357.688 114.813C357.382 114.813 357.12 114.877 356.901 115.005C356.683 115.132 356.503 115.308 356.361 115.531C356.215 115.755 356.108 116.014 356.04 116.311C355.972 116.602 355.938 116.914 355.938 117.247V117.391ZM369.295 115.921H362.979V114.554H369.295V115.921ZM369.295 118.819H362.979V117.459H369.295V118.819ZM374.34 111.45C374.34 111.674 374.31 111.908 374.251 112.154C374.192 112.396 374.11 112.633 374.005 112.865C373.891 113.098 373.759 113.321 373.608 113.535C373.463 113.745 373.299 113.929 373.116 114.089L372.323 113.569C372.515 113.264 372.665 112.943 372.774 112.605C372.884 112.264 372.938 111.881 372.938 111.457V110.343H374.34V111.45ZM376.712 111.45C376.712 111.674 376.682 111.908 376.623 112.154C376.564 112.396 376.482 112.633 376.377 112.865C376.263 113.098 376.131 113.321 375.98 113.535C375.835 113.745 375.671 113.929 375.488 114.089L374.695 113.569C374.887 113.264 375.037 112.943 375.146 112.605C375.256 112.264 375.311 111.881 375.311 111.457V110.343H376.712V111.45ZM380.048 110.5H384.033V119.646H386.275V121H380.048V119.646H382.386V111.86H380.048V110.5ZM392.865 121C392.815 120.909 392.774 120.799 392.742 120.672C392.715 120.54 392.69 120.403 392.667 120.262C392.553 120.38 392.423 120.494 392.277 120.604C392.136 120.708 391.977 120.799 391.799 120.877C391.621 120.959 391.43 121.023 391.225 121.068C391.02 121.114 390.799 121.137 390.562 121.137C390.179 121.137 389.828 121.082 389.509 120.973C389.194 120.859 388.925 120.704 388.702 120.508C388.474 120.316 388.297 120.086 388.169 119.817C388.046 119.544 387.984 119.25 387.984 118.936C387.984 118.53 388.064 118.172 388.224 117.862C388.388 117.548 388.625 117.288 388.935 117.083C389.222 116.892 389.575 116.746 389.994 116.646C390.418 116.545 390.896 116.495 391.43 116.495H392.619V115.996C392.619 115.805 392.585 115.632 392.517 115.477C392.453 115.322 392.359 115.187 392.236 115.073C392.104 114.959 391.942 114.873 391.751 114.813C391.564 114.75 391.348 114.718 391.102 114.718C390.878 114.718 390.682 114.745 390.514 114.8C390.35 114.854 390.213 114.93 390.104 115.025C389.994 115.112 389.912 115.219 389.857 115.347C389.807 115.47 389.782 115.602 389.782 115.743H388.142C388.146 115.447 388.217 115.162 388.354 114.889C388.49 114.615 388.691 114.374 388.955 114.164C389.21 113.95 389.525 113.781 389.898 113.658C390.277 113.531 390.707 113.467 391.19 113.467C391.623 113.467 392.027 113.521 392.4 113.631C392.779 113.736 393.104 113.893 393.378 114.103C393.651 114.312 393.866 114.579 394.021 114.902C394.175 115.221 394.253 115.59 394.253 116.01V119.298C394.253 119.631 394.276 119.931 394.321 120.2C394.371 120.465 394.442 120.692 394.533 120.884V121H392.865ZM390.876 119.824C391.09 119.824 391.288 119.797 391.471 119.742C391.658 119.688 391.826 119.617 391.977 119.53C392.127 119.444 392.257 119.346 392.366 119.236C392.476 119.127 392.56 119.013 392.619 118.895V117.527H391.566C391.211 117.527 390.903 117.562 390.644 117.63C390.384 117.694 390.176 117.787 390.021 117.91C389.885 118.015 389.782 118.14 389.714 118.286C389.65 118.432 389.618 118.596 389.618 118.778C389.618 118.929 389.646 119.07 389.7 119.202C389.755 119.33 389.835 119.439 389.939 119.53C390.044 119.621 390.174 119.694 390.329 119.749C390.484 119.799 390.666 119.824 390.876 119.824ZM398.601 119.681H403.105V121H396.42V119.927L400.672 114.937H396.502V113.604H402.9V114.643L398.601 119.681ZM405.888 123.987C405.728 123.987 405.576 123.974 405.43 123.946C405.288 123.924 405.152 123.896 405.02 123.864L405.245 122.586C405.336 122.59 405.439 122.595 405.553 122.6C405.671 122.609 405.767 122.613 405.84 122.613C405.999 122.613 406.143 122.565 406.271 122.47C406.398 122.379 406.51 122.274 406.605 122.155C406.697 122.037 406.77 121.932 406.824 121.841C406.883 121.75 406.938 121.654 406.988 121.554L407.453 120.672L404.302 113.604H406.1L407.938 118.122L408.191 118.936L408.499 118.143L410.283 113.604H412.095L408.342 122.121C408.255 122.312 408.146 122.515 408.014 122.729C407.886 122.948 407.724 123.149 407.528 123.331C407.332 123.518 407.1 123.673 406.831 123.796C406.562 123.924 406.248 123.987 405.888 123.987ZM416.381 111.45C416.381 111.674 416.351 111.908 416.292 112.154C416.233 112.396 416.151 112.633 416.046 112.865C415.932 113.098 415.8 113.321 415.649 113.535C415.504 113.745 415.34 113.929 415.157 114.089L414.364 113.569C414.556 113.264 414.706 112.943 414.815 112.605C414.925 112.264 414.979 111.881 414.979 111.457V110.343H416.381V111.45ZM418.753 111.45C418.753 111.674 418.723 111.908 418.664 112.154C418.605 112.396 418.523 112.633 418.418 112.865C418.304 113.098 418.172 113.321 418.021 113.535C417.876 113.745 417.712 113.929 417.529 114.089L416.736 113.569C416.928 113.264 417.078 112.943 417.188 112.605C417.297 112.264 417.352 111.881 417.352 111.457V110.343H418.753V111.45Z" fill="#380037"/>
<path d="M438.097 121.854H436.593L440.503 111.047H442L438.097 121.854ZM444.557 119.865V118.245L448.686 116.782L449.103 116.659L448.692 116.522L444.557 115.087V113.467L450.661 116.003V117.322L444.557 119.865Z" fill="#001E2E"/>
<g filter="url(#filter0_b_7579_60705)">
<g clip-path="url(#clip0_7579_60705)">
<rect x="329" y="40" width="65" height="20.0001" rx="4" fill="#8194A2"/>
<rect width="65" height="20.0001" transform="translate(329 40)" fill="#8194A2"/>
<path d="M341.235 50.6646C341.235 51.0011 341.204 51.3216 341.144 51.626C341.083 51.9268 340.995 52.2061 340.88 52.4639C340.759 52.7217 340.608 52.958 340.429 53.1729C340.25 53.3877 340.046 53.5667 339.817 53.71C339.609 53.8353 339.38 53.932 339.129 54C338.882 54.0716 338.616 54.1074 338.329 54.1074C338.025 54.1074 337.744 54.068 337.486 53.9893C337.228 53.9105 336.993 53.7995 336.782 53.6562C336.575 53.5059 336.388 53.325 336.224 53.1138C336.059 52.8989 335.921 52.6572 335.81 52.3887C335.71 52.1416 335.633 51.873 335.579 51.583C335.529 51.293 335.504 50.9868 335.504 50.6646V49.5259C335.504 49.1821 335.533 48.8563 335.59 48.5483C335.651 48.2404 335.738 47.9557 335.853 47.6943C335.964 47.4473 336.098 47.2235 336.256 47.0229C336.417 46.8224 336.601 46.6506 336.809 46.5073C337.013 46.3677 337.242 46.2603 337.497 46.1851C337.751 46.1099 338.027 46.0723 338.324 46.0723C338.625 46.0723 338.906 46.1117 339.167 46.1904C339.432 46.2656 339.67 46.3748 339.881 46.5181C340.093 46.6541 340.277 46.8188 340.435 47.0122C340.596 47.2056 340.734 47.4186 340.848 47.6514C340.973 47.9163 341.068 48.2064 341.133 48.5215C341.201 48.8366 341.235 49.1714 341.235 49.5259V50.6646ZM339.704 49.5151C339.704 49.3146 339.693 49.1248 339.672 48.9458C339.654 48.7632 339.624 48.5949 339.581 48.4409C339.527 48.2476 339.455 48.0757 339.366 47.9253C339.276 47.7713 339.171 47.646 339.049 47.5493C338.952 47.4777 338.843 47.4222 338.721 47.3828C338.603 47.3434 338.471 47.3237 338.324 47.3237C338.184 47.3237 338.057 47.3416 337.942 47.3774C337.831 47.4132 337.731 47.4652 337.642 47.5332C337.52 47.6335 337.416 47.7588 337.33 47.9092C337.248 48.0596 337.183 48.235 337.137 48.4355C337.101 48.5895 337.074 48.7578 337.056 48.9404C337.042 49.123 337.035 49.3146 337.035 49.5151V50.6646C337.035 50.8543 337.042 51.0369 337.056 51.2124C337.07 51.3879 337.096 51.5508 337.131 51.7012C337.171 51.891 337.228 52.0646 337.303 52.2222C337.382 52.3761 337.473 52.5015 337.577 52.5981C337.674 52.6841 337.783 52.7503 337.905 52.7969C338.03 52.8434 338.172 52.8667 338.329 52.8667C338.479 52.8667 338.617 52.8452 338.743 52.8022C338.868 52.7593 338.979 52.6966 339.076 52.6143C339.197 52.514 339.299 52.3887 339.382 52.2383C339.468 52.0843 339.536 51.9106 339.586 51.7173C339.625 51.5669 339.654 51.4022 339.672 51.2231C339.693 51.0441 339.704 50.8579 339.704 50.6646V49.5151ZM342.459 56.2344V48.1885H343.84L343.894 48.7578C343.972 48.6611 344.058 48.5752 344.151 48.5C344.244 48.4212 344.345 48.3532 344.452 48.2959C344.581 48.2279 344.722 48.1759 344.876 48.1401C345.034 48.1007 345.202 48.0811 345.381 48.0811C345.75 48.0811 346.076 48.1527 346.359 48.2959C346.642 48.4355 346.88 48.6343 347.073 48.8921C347.267 49.1535 347.412 49.4668 347.508 49.832C347.609 50.1937 347.659 50.5947 347.659 51.0352V51.1479C347.659 51.5705 347.609 51.9626 347.508 52.3242C347.412 52.6859 347.268 52.9974 347.079 53.2588C346.885 53.5238 346.647 53.7314 346.364 53.8818C346.081 54.0322 345.757 54.1074 345.392 54.1074C345.199 54.1074 345.02 54.0859 344.855 54.043C344.694 54.0036 344.543 53.9445 344.404 53.8657C344.321 53.8156 344.243 53.7601 344.167 53.6992C344.092 53.6383 344.021 53.5703 343.953 53.4951V56.2344H342.459ZM346.166 51.0352C346.166 50.7917 346.142 50.5643 346.096 50.353C346.053 50.1382 345.985 49.952 345.892 49.7944C345.795 49.6405 345.671 49.5187 345.521 49.4292C345.374 49.3397 345.195 49.2949 344.984 49.2949C344.862 49.2949 344.751 49.3075 344.651 49.3325C344.551 49.354 344.459 49.3862 344.377 49.4292C344.284 49.4793 344.201 49.542 344.13 49.6172C344.062 49.6924 344.003 49.7801 343.953 49.8804V52.3081C343.999 52.4012 344.055 52.4854 344.119 52.5605C344.187 52.6357 344.264 52.7002 344.35 52.7539C344.432 52.804 344.527 52.8434 344.635 52.8721C344.742 52.8971 344.862 52.9097 344.995 52.9097C345.206 52.9097 345.385 52.8631 345.532 52.77C345.682 52.6769 345.804 52.5498 345.897 52.3887C345.99 52.2275 346.058 52.0413 346.101 51.8301C346.144 51.6152 346.166 51.3879 346.166 51.1479V51.0352ZM351.784 46.7651V48.1885H353.954V49.2896H351.784V51.7871C351.784 51.9984 351.807 52.1756 351.854 52.3188C351.904 52.4585 351.973 52.5695 352.063 52.6519C352.153 52.7378 352.26 52.7987 352.385 52.8345C352.514 52.8703 352.657 52.8882 352.815 52.8882C352.93 52.8882 353.046 52.8828 353.164 52.8721C353.286 52.8613 353.402 52.847 353.513 52.8291C353.621 52.8148 353.721 52.7987 353.814 52.7808C353.911 52.7629 353.993 52.745 354.061 52.7271L354.206 53.7529C354.102 53.8138 353.98 53.8675 353.841 53.9141C353.701 53.957 353.553 53.9928 353.395 54.0215C353.237 54.0501 353.073 54.0716 352.901 54.0859C352.733 54.1038 352.566 54.1128 352.401 54.1128C352.083 54.1128 351.793 54.0716 351.531 53.9893C351.273 53.9033 351.053 53.7708 350.871 53.5918C350.684 53.4163 350.541 53.1925 350.441 52.9204C350.341 52.6447 350.291 52.3153 350.291 51.9321V49.2896H348.964V48.1885H350.291V46.7651H351.784ZM356.048 48.1885H359.212V52.7861H360.786V54H356.048V52.7861H357.703V49.4077H356.048V48.1885ZM357.595 46.7007C357.595 46.5861 357.615 46.4805 357.654 46.3838C357.697 46.2835 357.756 46.1976 357.832 46.126C357.907 46.0579 357.996 46.0042 358.1 45.9648C358.208 45.9255 358.326 45.9058 358.455 45.9058C358.72 45.9058 358.929 45.981 359.083 46.1313C359.241 46.2782 359.319 46.4679 359.319 46.7007C359.319 46.9334 359.241 47.125 359.083 47.2754C358.929 47.4222 358.72 47.4956 358.455 47.4956C358.326 47.4956 358.208 47.4759 358.1 47.4365C357.996 47.3971 357.907 47.3416 357.832 47.27C357.756 47.202 357.697 47.1196 357.654 47.0229C357.615 46.9227 357.595 46.8153 357.595 46.7007ZM362.053 51.0405C362.053 50.618 362.114 50.2277 362.236 49.8696C362.358 49.508 362.537 49.1947 362.773 48.9297C363.006 48.6647 363.29 48.457 363.627 48.3066C363.967 48.1562 364.356 48.0811 364.792 48.0811C365.229 48.0811 365.618 48.1562 365.958 48.3066C366.298 48.457 366.586 48.6647 366.823 48.9297C367.056 49.1947 367.233 49.508 367.354 49.8696C367.476 50.2277 367.537 50.618 367.537 51.0405V51.1533C367.537 51.5794 367.476 51.9733 367.354 52.335C367.233 52.693 367.056 53.0046 366.823 53.2695C366.59 53.5345 366.304 53.7422 365.963 53.8926C365.623 54.0394 365.236 54.1128 364.803 54.1128C364.366 54.1128 363.976 54.0394 363.632 53.8926C363.292 53.7422 363.006 53.5345 362.773 53.2695C362.537 53.0046 362.358 52.693 362.236 52.335C362.114 51.9733 362.053 51.5794 362.053 51.1533V51.0405ZM363.546 51.1533C363.546 51.3968 363.57 51.626 363.616 51.8408C363.663 52.0521 363.736 52.2365 363.836 52.394C363.937 52.5552 364.066 52.6823 364.223 52.7754C364.384 52.8685 364.578 52.915 364.803 52.915C365.022 52.915 365.21 52.8685 365.367 52.7754C365.525 52.6823 365.654 52.5552 365.754 52.394C365.851 52.2365 365.922 52.0521 365.969 51.8408C366.015 51.626 366.039 51.3968 366.039 51.1533V51.0405C366.039 50.8042 366.015 50.5804 365.969 50.3691C365.922 50.1579 365.851 49.9717 365.754 49.8105C365.654 49.6494 365.525 49.5223 365.367 49.4292C365.21 49.3361 365.018 49.2896 364.792 49.2896C364.57 49.2896 364.381 49.3361 364.223 49.4292C364.066 49.5223 363.937 49.6494 363.836 49.8105C363.736 49.9717 363.663 50.1579 363.616 50.3691C363.57 50.5804 363.546 50.8042 363.546 51.0405V51.1533ZM368.864 54V48.1885H370.217L370.309 48.9941C370.384 48.8867 370.466 48.7882 370.556 48.6987C370.645 48.6092 370.74 48.5286 370.84 48.457C371.012 48.3353 371.2 48.2422 371.404 48.1777C371.608 48.1133 371.825 48.0811 372.054 48.0811C372.348 48.0811 372.616 48.124 372.86 48.21C373.103 48.2959 373.315 48.432 373.494 48.6182C373.669 48.8079 373.805 49.0514 373.902 49.3486C374.002 49.6423 374.052 50.0003 374.052 50.4229V54H372.559V50.4443C372.559 50.2152 372.532 50.0272 372.479 49.8804C372.428 49.73 372.355 49.6118 372.258 49.5259C372.162 49.4399 372.045 49.3809 371.909 49.3486C371.773 49.3128 371.619 49.2949 371.447 49.2949C371.304 49.2949 371.172 49.311 371.05 49.3433C370.932 49.3755 370.826 49.4238 370.733 49.4883C370.658 49.5348 370.59 49.5903 370.529 49.6548C370.468 49.7192 370.412 49.7909 370.362 49.8696V54H368.864ZM379.101 54C379.065 53.9284 379.035 53.846 379.01 53.7529C378.985 53.6598 378.963 53.5614 378.945 53.4575C378.863 53.547 378.768 53.6312 378.661 53.71C378.553 53.7887 378.435 53.8568 378.306 53.9141C378.174 53.9749 378.029 54.0215 377.871 54.0537C377.714 54.0895 377.543 54.1074 377.361 54.1074C377.064 54.1074 376.79 54.0645 376.539 53.9785C376.292 53.8926 376.079 53.7726 375.9 53.6187C375.721 53.4647 375.581 53.2821 375.481 53.0708C375.381 52.856 375.331 52.6232 375.331 52.3726C375.331 52.0503 375.393 51.7656 375.519 51.5186C375.644 51.2679 375.832 51.062 376.083 50.9009C376.308 50.7541 376.586 50.6431 376.915 50.5679C377.248 50.4891 377.629 50.4497 378.059 50.4497H378.892V50.106C378.892 49.9699 378.87 49.8481 378.827 49.7407C378.784 49.6297 378.72 49.5348 378.634 49.4561C378.544 49.3737 378.431 49.311 378.295 49.2681C378.163 49.2215 378.007 49.1982 377.828 49.1982C377.671 49.1982 377.535 49.2179 377.42 49.2573C377.305 49.2931 377.212 49.3451 377.141 49.4131C377.076 49.474 377.028 49.5474 376.996 49.6333C376.967 49.7192 376.953 49.8141 376.953 49.918H375.459C375.459 49.6709 375.513 49.4364 375.621 49.2144C375.732 48.9924 375.893 48.7972 376.104 48.6289C376.312 48.4606 376.566 48.3281 376.867 48.2314C377.171 48.1312 377.518 48.0811 377.909 48.0811C378.26 48.0811 378.585 48.124 378.886 48.21C379.191 48.2959 379.454 48.423 379.676 48.5913C379.898 48.7596 380.071 48.9727 380.197 49.2305C380.322 49.4847 380.385 49.7801 380.385 50.1167V52.6089C380.385 52.9204 380.404 53.1782 380.444 53.3823C380.483 53.5864 380.541 53.7619 380.616 53.9087V54H379.101ZM377.678 52.9526C377.828 52.9526 377.968 52.9347 378.097 52.8989C378.226 52.8631 378.342 52.8166 378.446 52.7593C378.55 52.702 378.639 52.6375 378.714 52.5659C378.79 52.4907 378.849 52.4155 378.892 52.3403V51.3413H378.129C377.896 51.3413 377.697 51.3646 377.533 51.4111C377.368 51.4541 377.234 51.515 377.13 51.5938C377.026 51.6761 376.949 51.7746 376.899 51.8892C376.849 52.0002 376.824 52.1219 376.824 52.2544C376.824 52.3582 376.842 52.4549 376.877 52.5444C376.917 52.6304 376.972 52.7038 377.044 52.7646C377.116 52.8219 377.203 52.8685 377.307 52.9043C377.415 52.9365 377.538 52.9526 377.678 52.9526ZM382.388 45.75H385.638V52.7861H387.303V54H382.388V52.7861H384.128V46.9692H382.388V45.75Z" fill="white"/>
</g>
</g>
<path d="M361.5 60V102" stroke="#8194A2" stroke-linejoin="round"/>
<circle cx="361.5" cy="104" r="2" fill="#8194A2"/>
<defs>
<filter id="filter0_b_7579_60705" x="79" y="-210" width="565" height="520" filterUnits="userSpaceOnUse" color-interpolation-filters="sRGB">
<feFlood flood-opacity="0" result="BackgroundImageFix"/>
<feGaussianBlur in="BackgroundImageFix" stdDeviation="125"/>
<feComposite in2="SourceAlpha" operator="in" result="effect1_backgroundBlur_7579_60705"/>
<feBlend mode="normal" in="SourceGraphic" in2="effect1_backgroundBlur_7579_60705" result="shape"/>
</filter>
<clipPath id="clip0_7579_60705">
<rect x="329" y="40" width="65" height="20.0001" rx="4" fill="white"/>
</clipPath>
</defs>
</svg>
