<svg width="560" height="184" viewBox="0 0 560 184" fill="none" xmlns="http://www.w3.org/2000/svg">
<rect width="560" height="184" fill="#87CEFF" fill-opacity="0.16"/>
<rect x="91.5" y="96.5" width="377" height="39" rx="7.5" fill="#E5F2FF"/>
<rect x="91.5" y="96.5" width="377" height="39" rx="7.5" stroke="#87CEFF"/>
<path d="M110.048 119.865L104.107 117.322V116.01L110.048 113.474V115.107L106.117 116.529L105.7 116.68L106.117 116.823L110.048 118.231V119.865ZM112.844 113.604H116.768V119.646H118.941V121H112.844V119.646H115.12V114.964H112.844V113.604ZM114.97 111.689C114.97 111.557 114.993 111.437 115.038 111.327C115.084 111.213 115.15 111.115 115.236 111.033C115.318 110.956 115.416 110.896 115.53 110.855C115.649 110.81 115.781 110.787 115.927 110.787C116.173 110.787 116.371 110.851 116.521 110.979C116.676 111.102 116.765 111.261 116.788 111.457C116.82 111.658 116.786 111.833 116.686 111.983C116.585 112.129 116.439 112.227 116.248 112.277C116.152 112.364 116.038 112.421 115.906 112.448C115.774 112.476 115.628 112.464 115.469 112.414C115.305 112.364 115.179 112.275 115.093 112.147C115.011 112.015 114.97 111.863 114.97 111.689ZM121.806 113.604L121.854 114.417C121.995 114.121 122.188 113.888 122.435 113.72C122.685 113.551 122.986 113.467 123.337 113.467C123.519 113.467 123.683 113.487 123.829 113.528C123.975 113.569 124.1 113.633 124.205 113.72C124.287 113.784 124.36 113.861 124.424 113.952C124.488 114.039 124.542 114.139 124.588 114.253C124.652 114.148 124.725 114.05 124.807 113.959C124.889 113.868 124.978 113.79 125.073 113.727C125.196 113.645 125.333 113.581 125.483 113.535C125.638 113.49 125.807 113.467 125.989 113.467C126.226 113.467 126.443 113.508 126.639 113.59C126.839 113.667 127.012 113.788 127.158 113.952C127.304 114.125 127.416 114.351 127.493 114.629C127.575 114.902 127.616 115.233 127.616 115.62V121H126.112V115.606C126.112 115.461 126.096 115.338 126.064 115.237C126.033 115.132 125.987 115.048 125.928 114.984C125.868 114.925 125.796 114.882 125.709 114.854C125.627 114.827 125.536 114.813 125.436 114.813C125.331 114.813 125.24 114.827 125.162 114.854C125.085 114.882 125.016 114.921 124.957 114.971C124.902 115.016 124.857 115.071 124.82 115.135C124.784 115.194 124.757 115.262 124.738 115.34C124.738 115.358 124.738 115.381 124.738 115.408C124.738 115.431 124.738 115.465 124.738 115.511V121H123.262V115.6C123.262 115.454 123.246 115.331 123.214 115.23C123.187 115.126 123.143 115.044 123.084 114.984C123.025 114.925 122.954 114.882 122.872 114.854C122.795 114.827 122.706 114.813 122.605 114.813C122.496 114.813 122.398 114.829 122.312 114.861C122.229 114.889 122.159 114.932 122.1 114.991C122.054 115.032 122.013 115.08 121.977 115.135C121.945 115.189 121.915 115.251 121.888 115.319V121H120.384V113.604H121.806ZM129.072 117.247C129.072 116.687 129.141 116.176 129.277 115.716C129.414 115.251 129.612 114.852 129.872 114.52C130.132 114.187 130.444 113.929 130.809 113.747C131.178 113.56 131.592 113.467 132.053 113.467C132.326 113.467 132.575 113.496 132.798 113.556C133.021 113.61 133.224 113.692 133.406 113.802C133.525 113.87 133.636 113.952 133.741 114.048C133.846 114.139 133.944 114.239 134.035 114.349L134.104 113.604H135.587V120.795C135.587 121.292 135.505 121.731 135.341 122.114C135.181 122.502 134.956 122.83 134.664 123.099C134.368 123.363 134.012 123.563 133.598 123.7C133.188 123.841 132.734 123.912 132.237 123.912C132.028 123.912 131.798 123.889 131.547 123.844C131.296 123.798 131.046 123.728 130.795 123.632C130.544 123.536 130.305 123.411 130.077 123.256C129.849 123.101 129.653 122.914 129.489 122.695L130.262 121.704C130.394 121.864 130.535 122 130.686 122.114C130.84 122.233 130.998 122.328 131.157 122.401C131.317 122.474 131.479 122.527 131.643 122.559C131.807 122.595 131.973 122.613 132.142 122.613C132.433 122.613 132.691 122.572 132.914 122.49C133.142 122.408 133.336 122.29 133.495 122.135C133.641 121.984 133.753 121.8 133.83 121.581C133.912 121.362 133.953 121.114 133.953 120.836V120.323C133.857 120.424 133.757 120.517 133.652 120.604C133.552 120.69 133.443 120.765 133.324 120.829C133.146 120.929 132.951 121.005 132.736 121.055C132.522 121.109 132.29 121.137 132.039 121.137C131.583 121.137 131.173 121.043 130.809 120.856C130.444 120.665 130.132 120.401 129.872 120.063C129.617 119.731 129.419 119.337 129.277 118.881C129.141 118.421 129.072 117.924 129.072 117.391V117.247ZM130.713 117.391C130.713 117.719 130.745 118.029 130.809 118.32C130.877 118.612 130.984 118.865 131.13 119.079C131.271 119.302 131.451 119.478 131.67 119.605C131.889 119.729 132.148 119.79 132.449 119.79C132.636 119.79 132.805 119.77 132.955 119.729C133.11 119.688 133.249 119.631 133.372 119.558C133.495 119.48 133.604 119.387 133.7 119.277C133.796 119.168 133.88 119.047 133.953 118.915V115.675C133.88 115.538 133.791 115.415 133.687 115.306C133.586 115.196 133.47 115.103 133.338 115.025C133.219 114.962 133.087 114.911 132.941 114.875C132.796 114.834 132.636 114.813 132.463 114.813C132.158 114.813 131.896 114.877 131.677 115.005C131.458 115.132 131.278 115.308 131.137 115.531C130.991 115.755 130.884 116.014 130.815 116.311C130.747 116.602 130.713 116.914 130.713 117.247V117.391Z" fill="#001E2E"/>
<rect x="145.5" y="104.5" width="138" height="23" rx="5.5" fill="#FFEBF7"/>
<rect x="145.5" y="104.5" width="138" height="23" rx="5.5" stroke="#FFADF3"/>
<path d="M156.893 118.997C156.893 118.869 156.863 118.756 156.804 118.655C156.749 118.555 156.656 118.459 156.523 118.368C156.382 118.286 156.198 118.209 155.97 118.136C155.742 118.063 155.457 117.994 155.115 117.931C154.687 117.844 154.295 117.737 153.939 117.609C153.589 117.482 153.285 117.327 153.03 117.145C152.78 116.971 152.584 116.766 152.442 116.529C152.301 116.292 152.23 116.017 152.23 115.702C152.23 115.401 152.301 115.117 152.442 114.848C152.588 114.574 152.796 114.335 153.064 114.13C153.329 113.925 153.648 113.763 154.021 113.645C154.4 113.526 154.819 113.467 155.279 113.467C155.771 113.467 156.214 113.528 156.605 113.651C156.997 113.77 157.33 113.934 157.604 114.144C157.872 114.353 158.08 114.602 158.226 114.889C158.371 115.176 158.444 115.486 158.444 115.818H156.811C156.811 115.682 156.781 115.552 156.722 115.429C156.667 115.301 156.585 115.187 156.476 115.087C156.348 114.968 156.184 114.875 155.983 114.807C155.783 114.734 155.548 114.697 155.279 114.697C155.033 114.697 154.817 114.725 154.63 114.779C154.448 114.829 154.297 114.9 154.179 114.991C154.06 115.073 153.971 115.171 153.912 115.285C153.853 115.395 153.823 115.511 153.823 115.634C153.823 115.761 153.848 115.878 153.898 115.982C153.949 116.083 154.037 116.172 154.165 116.249C154.284 116.331 154.448 116.406 154.657 116.475C154.871 116.543 155.14 116.604 155.464 116.659C155.915 116.741 156.327 116.841 156.701 116.96C157.075 117.078 157.394 117.224 157.658 117.397C157.923 117.58 158.128 117.794 158.273 118.04C158.419 118.286 158.492 118.578 158.492 118.915C158.492 119.243 158.415 119.544 158.26 119.817C158.109 120.091 157.895 120.326 157.617 120.521C157.335 120.717 156.997 120.87 156.605 120.979C156.214 121.089 155.778 121.144 155.3 121.144C154.767 121.144 154.293 121.073 153.878 120.932C153.468 120.79 153.124 120.604 152.846 120.371C152.563 120.143 152.349 119.881 152.203 119.585C152.057 119.289 151.984 118.988 151.984 118.683H153.57C153.584 118.91 153.643 119.104 153.748 119.264C153.857 119.419 153.994 119.544 154.158 119.64C154.318 119.74 154.5 119.813 154.705 119.858C154.91 119.899 155.118 119.92 155.327 119.92C155.61 119.92 155.856 119.89 156.065 119.831C156.28 119.772 156.451 119.692 156.578 119.592C156.683 119.51 156.76 119.421 156.811 119.325C156.865 119.225 156.893 119.116 156.893 118.997ZM165.581 113.467C165.845 113.467 166.101 113.485 166.347 113.521C166.597 113.558 166.793 113.601 166.935 113.651L166.702 115.265C166.451 115.21 166.203 115.169 165.957 115.142C165.715 115.114 165.474 115.101 165.232 115.101C164.959 115.101 164.713 115.128 164.494 115.183C164.275 115.237 164.082 115.322 163.913 115.436C163.731 115.545 163.576 115.684 163.448 115.853C163.321 116.021 163.214 116.215 163.127 116.434V121H161.493V113.604H163.024L163.093 114.629L163.1 114.8C163.4 114.385 163.76 114.059 164.18 113.822C164.604 113.585 165.071 113.467 165.581 113.467ZM172.096 119.824C172.301 119.824 172.497 119.795 172.684 119.735C172.875 119.672 173.044 119.583 173.189 119.469C173.331 119.355 173.442 119.22 173.524 119.065C173.611 118.91 173.654 118.74 173.654 118.553H175.192C175.197 118.913 175.115 119.252 174.946 119.571C174.782 119.886 174.559 120.157 174.276 120.385C173.989 120.622 173.659 120.809 173.285 120.945C172.916 121.077 172.526 121.144 172.116 121.144C171.547 121.144 171.048 121.046 170.619 120.85C170.195 120.649 169.842 120.38 169.56 120.043C169.272 119.706 169.056 119.314 168.91 118.867C168.764 118.416 168.691 117.935 168.691 117.425V117.186C168.691 116.68 168.762 116.201 168.903 115.75C169.049 115.299 169.266 114.905 169.553 114.567C169.84 114.23 170.195 113.964 170.619 113.768C171.048 113.567 171.544 113.467 172.109 113.467C172.556 113.467 172.968 113.535 173.347 113.672C173.729 113.809 174.058 114 174.331 114.246C174.604 114.492 174.816 114.786 174.967 115.128C175.122 115.47 175.197 115.846 175.192 116.256H173.654C173.654 116.055 173.616 115.866 173.538 115.688C173.465 115.511 173.36 115.356 173.224 115.224C173.082 115.091 172.914 114.987 172.718 114.909C172.526 114.832 172.319 114.793 172.096 114.793C171.754 114.793 171.469 114.864 171.241 115.005C171.018 115.142 170.84 115.322 170.708 115.545C170.567 115.768 170.466 116.023 170.407 116.311C170.353 116.598 170.325 116.889 170.325 117.186V117.425C170.325 117.726 170.353 118.022 170.407 118.313C170.466 118.601 170.564 118.854 170.701 119.072C170.833 119.3 171.013 119.482 171.241 119.619C171.469 119.756 171.754 119.824 172.096 119.824ZM183.662 115.921H177.346V114.554H183.662V115.921ZM183.662 118.819H177.346V117.459H183.662V118.819ZM188.707 111.45C188.707 111.674 188.677 111.908 188.618 112.154C188.559 112.396 188.477 112.633 188.372 112.865C188.258 113.098 188.126 113.321 187.976 113.535C187.83 113.745 187.666 113.929 187.483 114.089L186.69 113.569C186.882 113.264 187.032 112.943 187.142 112.605C187.251 112.264 187.306 111.881 187.306 111.457V110.343H188.707V111.45ZM191.079 111.45C191.079 111.674 191.049 111.908 190.99 112.154C190.931 112.396 190.849 112.633 190.744 112.865C190.63 113.098 190.498 113.321 190.348 113.535C190.202 113.745 190.038 113.929 189.855 114.089L189.062 113.569C189.254 113.264 189.404 112.943 189.514 112.605C189.623 112.264 189.678 111.881 189.678 111.457V110.343H191.079V111.45ZM196.138 120.016C196.138 119.701 196.238 119.432 196.438 119.209C196.644 118.986 196.938 118.874 197.32 118.874C197.694 118.874 197.986 118.986 198.195 119.209C198.405 119.428 198.51 119.697 198.51 120.016C198.51 120.335 198.403 120.601 198.188 120.815C197.979 121.03 197.689 121.137 197.32 121.137C196.947 121.137 196.655 121.03 196.445 120.815C196.24 120.597 196.138 120.33 196.138 120.016ZM204.546 121.854H203.042L206.952 111.047H208.449L204.546 121.854ZM211.293 113.604H215.217V119.646H217.391V121H211.293V119.646H213.569V114.964H211.293V113.604ZM213.419 111.689C213.419 111.557 213.442 111.437 213.487 111.327C213.533 111.213 213.599 111.115 213.686 111.033C213.768 110.956 213.866 110.896 213.979 110.855C214.098 110.81 214.23 110.787 214.376 110.787C214.622 110.787 214.82 110.851 214.971 110.979C215.126 111.102 215.215 111.261 215.237 111.457C215.269 111.658 215.235 111.833 215.135 111.983C215.035 112.129 214.889 112.227 214.697 112.277C214.602 112.364 214.488 112.421 214.355 112.448C214.223 112.476 214.077 112.464 213.918 112.414C213.754 112.364 213.629 112.275 213.542 112.147C213.46 112.015 213.419 111.863 213.419 111.689ZM220.255 113.604L220.303 114.417C220.444 114.121 220.638 113.888 220.884 113.72C221.134 113.551 221.435 113.467 221.786 113.467C221.968 113.467 222.132 113.487 222.278 113.528C222.424 113.569 222.549 113.633 222.654 113.72C222.736 113.784 222.809 113.861 222.873 113.952C222.937 114.039 222.992 114.139 223.037 114.253C223.101 114.148 223.174 114.05 223.256 113.959C223.338 113.868 223.427 113.79 223.522 113.727C223.646 113.645 223.782 113.581 223.933 113.535C224.088 113.49 224.256 113.467 224.438 113.467C224.675 113.467 224.892 113.508 225.088 113.59C225.288 113.667 225.462 113.788 225.607 113.952C225.753 114.125 225.865 114.351 225.942 114.629C226.024 114.902 226.065 115.233 226.065 115.62V121H224.562V115.606C224.562 115.461 224.546 115.338 224.514 115.237C224.482 115.132 224.436 115.048 224.377 114.984C224.318 114.925 224.245 114.882 224.158 114.854C224.076 114.827 223.985 114.813 223.885 114.813C223.78 114.813 223.689 114.827 223.611 114.854C223.534 114.882 223.465 114.921 223.406 114.971C223.352 115.016 223.306 115.071 223.27 115.135C223.233 115.194 223.206 115.262 223.188 115.34C223.188 115.358 223.188 115.381 223.188 115.408C223.188 115.431 223.188 115.465 223.188 115.511V121H221.711V115.6C221.711 115.454 221.695 115.331 221.663 115.23C221.636 115.126 221.592 115.044 221.533 114.984C221.474 114.925 221.403 114.882 221.321 114.854C221.244 114.827 221.155 114.813 221.055 114.813C220.945 114.813 220.847 114.829 220.761 114.861C220.679 114.889 220.608 114.932 220.549 114.991C220.503 115.032 220.462 115.08 220.426 115.135C220.394 115.189 220.364 115.251 220.337 115.319V121H218.833V113.604H220.255ZM227.521 117.247C227.521 116.687 227.59 116.176 227.727 115.716C227.863 115.251 228.062 114.852 228.321 114.52C228.581 114.187 228.893 113.929 229.258 113.747C229.627 113.56 230.042 113.467 230.502 113.467C230.775 113.467 231.024 113.496 231.247 113.556C231.47 113.61 231.673 113.692 231.855 113.802C231.974 113.87 232.086 113.952 232.19 114.048C232.295 114.139 232.393 114.239 232.484 114.349L232.553 113.604H234.036V120.795C234.036 121.292 233.954 121.731 233.79 122.114C233.631 122.502 233.405 122.83 233.113 123.099C232.817 123.363 232.462 123.563 232.047 123.7C231.637 123.841 231.183 123.912 230.687 123.912C230.477 123.912 230.247 123.889 229.996 123.844C229.745 123.798 229.495 123.728 229.244 123.632C228.993 123.536 228.754 123.411 228.526 123.256C228.299 123.101 228.103 122.914 227.938 122.695L228.711 121.704C228.843 121.864 228.984 122 229.135 122.114C229.29 122.233 229.447 122.328 229.606 122.401C229.766 122.474 229.928 122.527 230.092 122.559C230.256 122.595 230.422 122.613 230.591 122.613C230.882 122.613 231.14 122.572 231.363 122.49C231.591 122.408 231.785 122.29 231.944 122.135C232.09 121.984 232.202 121.8 232.279 121.581C232.361 121.362 232.402 121.114 232.402 120.836V120.323C232.307 120.424 232.206 120.517 232.102 120.604C232.001 120.69 231.892 120.765 231.773 120.829C231.596 120.929 231.4 121.005 231.186 121.055C230.971 121.109 230.739 121.137 230.488 121.137C230.033 121.137 229.622 121.043 229.258 120.856C228.893 120.665 228.581 120.401 228.321 120.063C228.066 119.731 227.868 119.337 227.727 118.881C227.59 118.421 227.521 117.924 227.521 117.391V117.247ZM229.162 117.391C229.162 117.719 229.194 118.029 229.258 118.32C229.326 118.612 229.433 118.865 229.579 119.079C229.72 119.302 229.9 119.478 230.119 119.605C230.338 119.729 230.598 119.79 230.898 119.79C231.085 119.79 231.254 119.77 231.404 119.729C231.559 119.688 231.698 119.631 231.821 119.558C231.944 119.48 232.054 119.387 232.149 119.277C232.245 119.168 232.329 119.047 232.402 118.915V115.675C232.329 115.538 232.241 115.415 232.136 115.306C232.035 115.196 231.919 115.103 231.787 115.025C231.669 114.962 231.536 114.911 231.391 114.875C231.245 114.834 231.085 114.813 230.912 114.813C230.607 114.813 230.345 114.877 230.126 115.005C229.907 115.132 229.727 115.308 229.586 115.531C229.44 115.755 229.333 116.014 229.265 116.311C229.196 116.602 229.162 116.914 229.162 117.247V117.391ZM238.179 120.016C238.179 119.701 238.279 119.432 238.479 119.209C238.685 118.986 238.979 118.874 239.361 118.874C239.735 118.874 240.027 118.986 240.236 119.209C240.446 119.428 240.551 119.697 240.551 120.016C240.551 120.335 240.444 120.601 240.229 120.815C240.02 121.03 239.73 121.137 239.361 121.137C238.988 121.137 238.696 121.03 238.486 120.815C238.281 120.597 238.179 120.33 238.179 120.016ZM244.563 123.844V113.604H246.067L246.129 114.362C246.229 114.239 246.339 114.128 246.457 114.027C246.576 113.927 246.703 113.84 246.84 113.768C247.018 113.672 247.214 113.599 247.428 113.549C247.642 113.494 247.87 113.467 248.111 113.467C248.585 113.467 249.002 113.558 249.362 113.74C249.727 113.923 250.032 114.18 250.278 114.513C250.52 114.845 250.704 115.244 250.832 115.709C250.96 116.169 251.023 116.677 251.023 117.233V117.377C251.023 117.91 250.96 118.407 250.832 118.867C250.709 119.327 250.524 119.724 250.278 120.057C250.032 120.394 249.729 120.658 249.369 120.85C249.009 121.041 248.597 121.137 248.132 121.137C247.868 121.137 247.624 121.109 247.4 121.055C247.182 121 246.979 120.92 246.792 120.815C246.683 120.752 246.578 120.679 246.478 120.597C246.377 120.515 246.284 120.426 246.197 120.33V123.844H244.563ZM249.39 117.233C249.39 116.901 249.355 116.589 249.287 116.297C249.223 116.001 249.123 115.743 248.986 115.524C248.845 115.306 248.665 115.132 248.446 115.005C248.228 114.877 247.965 114.813 247.66 114.813C247.492 114.813 247.334 114.832 247.188 114.868C247.043 114.905 246.913 114.957 246.799 115.025C246.667 115.098 246.55 115.189 246.45 115.299C246.354 115.408 246.27 115.531 246.197 115.668V118.956C246.261 119.084 246.339 119.2 246.43 119.305C246.521 119.41 246.626 119.501 246.744 119.578C246.867 119.651 247.006 119.71 247.161 119.756C247.316 119.797 247.487 119.817 247.674 119.817C247.979 119.817 248.239 119.754 248.453 119.626C248.672 119.494 248.85 119.316 248.986 119.093C249.128 118.865 249.23 118.605 249.294 118.313C249.358 118.017 249.39 117.705 249.39 117.377V117.233ZM252.958 121V113.604H254.435L254.537 114.656C254.637 114.515 254.747 114.385 254.865 114.267C254.988 114.144 255.118 114.034 255.255 113.938C255.474 113.788 255.713 113.672 255.973 113.59C256.232 113.508 256.506 113.467 256.793 113.467C257.171 113.467 257.518 113.521 257.832 113.631C258.146 113.74 258.415 113.913 258.639 114.15C258.862 114.387 259.035 114.69 259.158 115.06C259.281 115.424 259.343 115.866 259.343 116.386V121H257.709V116.413C257.709 116.108 257.675 115.853 257.606 115.647C257.538 115.442 257.438 115.278 257.306 115.155C257.174 115.032 257.014 114.946 256.827 114.896C256.64 114.841 256.426 114.813 256.185 114.813C255.984 114.813 255.797 114.841 255.624 114.896C255.451 114.946 255.294 115.019 255.152 115.114C255.043 115.187 254.94 115.276 254.845 115.381C254.749 115.486 254.665 115.6 254.592 115.723V121H252.958ZM261.154 117.247C261.154 116.687 261.223 116.176 261.359 115.716C261.496 115.251 261.694 114.852 261.954 114.52C262.214 114.187 262.526 113.929 262.891 113.747C263.26 113.56 263.674 113.467 264.135 113.467C264.408 113.467 264.657 113.496 264.88 113.556C265.103 113.61 265.306 113.692 265.488 113.802C265.607 113.87 265.718 113.952 265.823 114.048C265.928 114.139 266.026 114.239 266.117 114.349L266.186 113.604H267.669V120.795C267.669 121.292 267.587 121.731 267.423 122.114C267.263 122.502 267.038 122.83 266.746 123.099C266.45 123.363 266.094 123.563 265.68 123.7C265.27 123.841 264.816 123.912 264.319 123.912C264.11 123.912 263.88 123.889 263.629 123.844C263.378 123.798 263.128 123.728 262.877 123.632C262.626 123.536 262.387 123.411 262.159 123.256C261.931 123.101 261.735 122.914 261.571 122.695L262.344 121.704C262.476 121.864 262.617 122 262.768 122.114C262.923 122.233 263.08 122.328 263.239 122.401C263.399 122.474 263.561 122.527 263.725 122.559C263.889 122.595 264.055 122.613 264.224 122.613C264.515 122.613 264.773 122.572 264.996 122.49C265.224 122.408 265.418 122.29 265.577 122.135C265.723 121.984 265.835 121.8 265.912 121.581C265.994 121.362 266.035 121.114 266.035 120.836V120.323C265.939 120.424 265.839 120.517 265.734 120.604C265.634 120.69 265.525 120.765 265.406 120.829C265.229 120.929 265.033 121.005 264.818 121.055C264.604 121.109 264.372 121.137 264.121 121.137C263.665 121.137 263.255 121.043 262.891 120.856C262.526 120.665 262.214 120.401 261.954 120.063C261.699 119.731 261.501 119.337 261.359 118.881C261.223 118.421 261.154 117.924 261.154 117.391V117.247ZM262.795 117.391C262.795 117.719 262.827 118.029 262.891 118.32C262.959 118.612 263.066 118.865 263.212 119.079C263.353 119.302 263.533 119.478 263.752 119.605C263.971 119.729 264.23 119.79 264.531 119.79C264.718 119.79 264.887 119.77 265.037 119.729C265.192 119.688 265.331 119.631 265.454 119.558C265.577 119.48 265.687 119.387 265.782 119.277C265.878 119.168 265.962 119.047 266.035 118.915V115.675C265.962 115.538 265.873 115.415 265.769 115.306C265.668 115.196 265.552 115.103 265.42 115.025C265.301 114.962 265.169 114.911 265.023 114.875C264.878 114.834 264.718 114.813 264.545 114.813C264.24 114.813 263.978 114.877 263.759 115.005C263.54 115.132 263.36 115.308 263.219 115.531C263.073 115.755 262.966 116.014 262.897 116.311C262.829 116.602 262.795 116.914 262.795 117.247V117.391ZM272.789 111.45C272.789 111.674 272.759 111.908 272.7 112.154C272.641 112.396 272.559 112.633 272.454 112.865C272.34 113.098 272.208 113.321 272.058 113.535C271.912 113.745 271.748 113.929 271.565 114.089L270.772 113.569C270.964 113.264 271.114 112.943 271.224 112.605C271.333 112.264 271.388 111.881 271.388 111.457V110.343H272.789V111.45ZM275.161 111.45C275.161 111.674 275.132 111.908 275.072 112.154C275.013 112.396 274.931 112.633 274.826 112.865C274.712 113.098 274.58 113.321 274.43 113.535C274.284 113.745 274.12 113.929 273.938 114.089L273.145 113.569C273.336 113.264 273.486 112.943 273.596 112.605C273.705 112.264 273.76 111.881 273.76 111.457V110.343H275.161V111.45Z" fill="#380037"/>
<rect x="292.5" y="104.5" width="138" height="23" rx="5.5" fill="#FFEBF7"/>
<rect x="292.5" y="104.5" width="138" height="23" rx="5.5" stroke="#FFADF3"/>
<path d="M303.783 121C303.733 120.909 303.692 120.799 303.66 120.672C303.633 120.54 303.608 120.403 303.585 120.262C303.471 120.38 303.341 120.494 303.195 120.604C303.054 120.708 302.895 120.799 302.717 120.877C302.539 120.959 302.348 121.023 302.143 121.068C301.938 121.114 301.716 121.137 301.479 121.137C301.097 121.137 300.746 121.082 300.427 120.973C300.112 120.859 299.843 120.704 299.62 120.508C299.392 120.316 299.215 120.086 299.087 119.817C298.964 119.544 298.902 119.25 298.902 118.936C298.902 118.53 298.982 118.172 299.142 117.862C299.306 117.548 299.543 117.288 299.853 117.083C300.14 116.892 300.493 116.746 300.912 116.646C301.336 116.545 301.814 116.495 302.348 116.495H303.537V115.996C303.537 115.805 303.503 115.632 303.435 115.477C303.371 115.322 303.277 115.187 303.154 115.073C303.022 114.959 302.86 114.873 302.669 114.813C302.482 114.75 302.266 114.718 302.02 114.718C301.796 114.718 301.6 114.745 301.432 114.8C301.268 114.854 301.131 114.93 301.021 115.025C300.912 115.112 300.83 115.219 300.775 115.347C300.725 115.47 300.7 115.602 300.7 115.743H299.06C299.064 115.447 299.135 115.162 299.271 114.889C299.408 114.615 299.609 114.374 299.873 114.164C300.128 113.95 300.443 113.781 300.816 113.658C301.195 113.531 301.625 113.467 302.108 113.467C302.541 113.467 302.945 113.521 303.318 113.631C303.697 113.736 304.022 113.893 304.296 114.103C304.569 114.312 304.784 114.579 304.938 114.902C305.093 115.221 305.171 115.59 305.171 116.01V119.298C305.171 119.631 305.194 119.931 305.239 120.2C305.289 120.465 305.36 120.692 305.451 120.884V121H303.783ZM301.794 119.824C302.008 119.824 302.206 119.797 302.389 119.742C302.576 119.688 302.744 119.617 302.895 119.53C303.045 119.444 303.175 119.346 303.284 119.236C303.394 119.127 303.478 119.013 303.537 118.895V117.527H302.484C302.129 117.527 301.821 117.562 301.562 117.63C301.302 117.694 301.094 117.787 300.939 117.91C300.803 118.015 300.7 118.14 300.632 118.286C300.568 118.432 300.536 118.596 300.536 118.778C300.536 118.929 300.563 119.07 300.618 119.202C300.673 119.33 300.753 119.439 300.857 119.53C300.962 119.621 301.092 119.694 301.247 119.749C301.402 119.799 301.584 119.824 301.794 119.824ZM307.782 110.5H311.768V119.646H314.01V121H307.782V119.646H310.12V111.86H307.782V110.5ZM319.157 111.799V113.604H321.939V114.827H319.157V118.361C319.157 118.635 319.189 118.865 319.253 119.052C319.321 119.234 319.415 119.378 319.533 119.482C319.652 119.592 319.793 119.669 319.957 119.715C320.121 119.76 320.301 119.783 320.497 119.783C320.638 119.783 320.784 119.776 320.935 119.763C321.085 119.749 321.231 119.731 321.372 119.708C321.509 119.69 321.636 119.669 321.755 119.646C321.878 119.619 321.98 119.596 322.062 119.578L322.24 120.706C322.122 120.779 321.978 120.843 321.81 120.897C321.646 120.948 321.468 120.991 321.276 121.027C321.085 121.064 320.884 121.091 320.675 121.109C320.47 121.132 320.265 121.144 320.06 121.144C319.686 121.144 319.342 121.093 319.027 120.993C318.717 120.888 318.451 120.727 318.228 120.508C318.004 120.294 317.829 120.018 317.701 119.681C317.578 119.343 317.517 118.938 317.517 118.464V114.827H315.726V113.604H317.517V111.799H319.157ZM330.662 115.921H324.346V114.554H330.662V115.921ZM330.662 118.819H324.346V117.459H330.662V118.819ZM335.707 111.45C335.707 111.674 335.677 111.908 335.618 112.154C335.559 112.396 335.477 112.633 335.372 112.865C335.258 113.098 335.126 113.321 334.976 113.535C334.83 113.745 334.666 113.929 334.483 114.089L333.69 113.569C333.882 113.264 334.032 112.943 334.142 112.605C334.251 112.264 334.306 111.881 334.306 111.457V110.343H335.707V111.45ZM338.079 111.45C338.079 111.674 338.049 111.908 337.99 112.154C337.931 112.396 337.849 112.633 337.744 112.865C337.63 113.098 337.498 113.321 337.348 113.535C337.202 113.745 337.038 113.929 336.855 114.089L336.062 113.569C336.254 113.264 336.404 112.943 336.514 112.605C336.623 112.264 336.678 111.881 336.678 111.457V110.343H338.079V111.45ZM345.893 118.71H342.769L342.092 121H340.383L343.623 111.047H345.079L348.265 121H346.562L345.893 118.71ZM343.186 117.302H345.489L344.348 113.364L343.186 117.302ZM349.509 121V113.604H350.985L351.088 114.656C351.188 114.515 351.298 114.385 351.416 114.267C351.539 114.144 351.669 114.034 351.806 113.938C352.024 113.788 352.264 113.672 352.523 113.59C352.783 113.508 353.057 113.467 353.344 113.467C353.722 113.467 354.068 113.521 354.383 113.631C354.697 113.74 354.966 113.913 355.189 114.15C355.413 114.387 355.586 114.69 355.709 115.06C355.832 115.424 355.894 115.866 355.894 116.386V121H354.26V116.413C354.26 116.108 354.226 115.853 354.157 115.647C354.089 115.442 353.989 115.278 353.856 115.155C353.724 115.032 353.565 114.946 353.378 114.896C353.191 114.841 352.977 114.813 352.735 114.813C352.535 114.813 352.348 114.841 352.175 114.896C352.002 114.946 351.844 115.019 351.703 115.114C351.594 115.187 351.491 115.276 351.396 115.381C351.3 115.486 351.215 115.6 351.143 115.723V121H349.509ZM366.024 117.233C366.024 116.696 366.102 116.199 366.257 115.743C366.412 115.283 366.637 114.884 366.934 114.547C367.225 114.21 367.583 113.945 368.007 113.754C368.431 113.562 368.914 113.467 369.456 113.467C369.998 113.467 370.481 113.562 370.905 113.754C371.334 113.945 371.696 114.21 371.992 114.547C372.284 114.884 372.507 115.283 372.662 115.743C372.817 116.199 372.895 116.696 372.895 117.233V117.377C372.895 117.919 372.817 118.418 372.662 118.874C372.507 119.33 372.284 119.726 371.992 120.063C371.701 120.401 371.34 120.665 370.912 120.856C370.488 121.048 370.007 121.144 369.47 121.144C368.927 121.144 368.442 121.048 368.014 120.856C367.585 120.665 367.225 120.401 366.934 120.063C366.637 119.726 366.412 119.33 366.257 118.874C366.102 118.418 366.024 117.919 366.024 117.377V117.233ZM367.658 117.377C367.658 117.71 367.692 118.024 367.761 118.32C367.834 118.617 367.945 118.876 368.096 119.1C368.242 119.323 368.428 119.501 368.656 119.633C368.884 119.76 369.155 119.824 369.47 119.824C369.775 119.824 370.042 119.76 370.27 119.633C370.497 119.501 370.684 119.323 370.83 119.1C370.976 118.876 371.083 118.617 371.151 118.32C371.224 118.024 371.261 117.71 371.261 117.377V117.233C371.261 116.91 371.224 116.6 371.151 116.304C371.078 116.007 370.971 115.748 370.83 115.524C370.68 115.301 370.491 115.123 370.263 114.991C370.039 114.859 369.771 114.793 369.456 114.793C369.146 114.793 368.877 114.859 368.649 114.991C368.426 115.123 368.242 115.301 368.096 115.524C367.945 115.748 367.834 116.007 367.761 116.304C367.692 116.6 367.658 116.91 367.658 117.233V117.377ZM379.847 113.467C380.111 113.467 380.366 113.485 380.612 113.521C380.863 113.558 381.059 113.601 381.2 113.651L380.968 115.265C380.717 115.21 380.469 115.169 380.223 115.142C379.981 115.114 379.74 115.101 379.498 115.101C379.225 115.101 378.979 115.128 378.76 115.183C378.541 115.237 378.347 115.322 378.179 115.436C377.996 115.545 377.841 115.684 377.714 115.853C377.586 116.021 377.479 116.215 377.393 116.434V121H375.759V113.604H377.29L377.358 114.629L377.365 114.8C377.666 114.385 378.026 114.059 378.445 113.822C378.869 113.585 379.336 113.467 379.847 113.467ZM387.865 121C387.815 120.909 387.774 120.799 387.742 120.672C387.715 120.54 387.69 120.403 387.667 120.262C387.553 120.38 387.423 120.494 387.277 120.604C387.136 120.708 386.977 120.799 386.799 120.877C386.621 120.959 386.43 121.023 386.225 121.068C386.02 121.114 385.799 121.137 385.562 121.137C385.179 121.137 384.828 121.082 384.509 120.973C384.194 120.859 383.925 120.704 383.702 120.508C383.474 120.316 383.297 120.086 383.169 119.817C383.046 119.544 382.984 119.25 382.984 118.936C382.984 118.53 383.064 118.172 383.224 117.862C383.388 117.548 383.625 117.288 383.935 117.083C384.222 116.892 384.575 116.746 384.994 116.646C385.418 116.545 385.896 116.495 386.43 116.495H387.619V115.996C387.619 115.805 387.585 115.632 387.517 115.477C387.453 115.322 387.359 115.187 387.236 115.073C387.104 114.959 386.942 114.873 386.751 114.813C386.564 114.75 386.348 114.718 386.102 114.718C385.878 114.718 385.682 114.745 385.514 114.8C385.35 114.854 385.213 114.93 385.104 115.025C384.994 115.112 384.912 115.219 384.857 115.347C384.807 115.47 384.782 115.602 384.782 115.743H383.142C383.146 115.447 383.217 115.162 383.354 114.889C383.49 114.615 383.691 114.374 383.955 114.164C384.21 113.95 384.525 113.781 384.898 113.658C385.277 113.531 385.707 113.467 386.19 113.467C386.623 113.467 387.027 113.521 387.4 113.631C387.779 113.736 388.104 113.893 388.378 114.103C388.651 114.312 388.866 114.579 389.021 114.902C389.175 115.221 389.253 115.59 389.253 116.01V119.298C389.253 119.631 389.276 119.931 389.321 120.2C389.371 120.465 389.442 120.692 389.533 120.884V121H387.865ZM385.876 119.824C386.09 119.824 386.288 119.797 386.471 119.742C386.658 119.688 386.826 119.617 386.977 119.53C387.127 119.444 387.257 119.346 387.366 119.236C387.476 119.127 387.56 119.013 387.619 118.895V117.527H386.566C386.211 117.527 385.903 117.562 385.644 117.63C385.384 117.694 385.176 117.787 385.021 117.91C384.885 118.015 384.782 118.14 384.714 118.286C384.65 118.432 384.618 118.596 384.618 118.778C384.618 118.929 384.646 119.07 384.7 119.202C384.755 119.33 384.835 119.439 384.939 119.53C385.044 119.621 385.174 119.694 385.329 119.749C385.484 119.799 385.666 119.824 385.876 119.824ZM391.55 121V113.604H393.026L393.129 114.656C393.229 114.515 393.339 114.385 393.457 114.267C393.58 114.144 393.71 114.034 393.847 113.938C394.065 113.788 394.305 113.672 394.564 113.59C394.824 113.508 395.098 113.467 395.385 113.467C395.763 113.467 396.109 113.521 396.424 113.631C396.738 113.74 397.007 113.913 397.23 114.15C397.454 114.387 397.627 114.69 397.75 115.06C397.873 115.424 397.935 115.866 397.935 116.386V121H396.301V116.413C396.301 116.108 396.267 115.853 396.198 115.647C396.13 115.442 396.03 115.278 395.897 115.155C395.765 115.032 395.606 114.946 395.419 114.896C395.232 114.841 395.018 114.813 394.776 114.813C394.576 114.813 394.389 114.841 394.216 114.896C394.043 114.946 393.885 115.019 393.744 115.114C393.635 115.187 393.532 115.276 393.437 115.381C393.341 115.486 393.257 115.6 393.184 115.723V121H391.55ZM399.746 117.247C399.746 116.687 399.814 116.176 399.951 115.716C400.088 115.251 400.286 114.852 400.546 114.52C400.806 114.187 401.118 113.929 401.482 113.747C401.852 113.56 402.266 113.467 402.727 113.467C403 113.467 403.248 113.496 403.472 113.556C403.695 113.61 403.898 113.692 404.08 113.802C404.199 113.87 404.31 113.952 404.415 114.048C404.52 114.139 404.618 114.239 404.709 114.349L404.777 113.604H406.261V120.795C406.261 121.292 406.179 121.731 406.015 122.114C405.855 122.502 405.63 122.83 405.338 123.099C405.042 123.363 404.686 123.563 404.271 123.7C403.861 123.841 403.408 123.912 402.911 123.912C402.701 123.912 402.471 123.889 402.221 123.844C401.97 123.798 401.719 123.728 401.469 123.632C401.218 123.536 400.979 123.411 400.751 123.256C400.523 123.101 400.327 122.914 400.163 122.695L400.936 121.704C401.068 121.864 401.209 122 401.359 122.114C401.514 122.233 401.672 122.328 401.831 122.401C401.991 122.474 402.152 122.527 402.316 122.559C402.48 122.595 402.647 122.613 402.815 122.613C403.107 122.613 403.365 122.572 403.588 122.49C403.816 122.408 404.009 122.29 404.169 122.135C404.315 121.984 404.426 121.8 404.504 121.581C404.586 121.362 404.627 121.114 404.627 120.836V120.323C404.531 120.424 404.431 120.517 404.326 120.604C404.226 120.69 404.117 120.765 403.998 120.829C403.82 120.929 403.624 121.005 403.41 121.055C403.196 121.109 402.964 121.137 402.713 121.137C402.257 121.137 401.847 121.043 401.482 120.856C401.118 120.665 400.806 120.401 400.546 120.063C400.291 119.731 400.092 119.337 399.951 118.881C399.814 118.421 399.746 117.924 399.746 117.391V117.247ZM401.387 117.391C401.387 117.719 401.419 118.029 401.482 118.32C401.551 118.612 401.658 118.865 401.804 119.079C401.945 119.302 402.125 119.478 402.344 119.605C402.562 119.729 402.822 119.79 403.123 119.79C403.31 119.79 403.479 119.77 403.629 119.729C403.784 119.688 403.923 119.631 404.046 119.558C404.169 119.48 404.278 119.387 404.374 119.277C404.47 119.168 404.554 119.047 404.627 118.915V115.675C404.554 115.538 404.465 115.415 404.36 115.306C404.26 115.196 404.144 115.103 404.012 115.025C403.893 114.962 403.761 114.911 403.615 114.875C403.469 114.834 403.31 114.813 403.137 114.813C402.831 114.813 402.569 114.877 402.351 115.005C402.132 115.132 401.952 115.308 401.811 115.531C401.665 115.755 401.558 116.014 401.489 116.311C401.421 116.602 401.387 116.914 401.387 117.247V117.391ZM411.818 121.137C411.271 121.137 410.77 121.046 410.314 120.863C409.863 120.681 409.476 120.428 409.152 120.104C408.829 119.785 408.578 119.41 408.4 118.977C408.227 118.539 408.141 118.067 408.141 117.562V117.281C408.141 116.702 408.232 116.178 408.414 115.709C408.596 115.24 408.847 114.839 409.166 114.506C409.485 114.173 409.854 113.918 410.273 113.74C410.697 113.558 411.148 113.467 411.627 113.467C412.16 113.467 412.632 113.558 413.042 113.74C413.452 113.918 413.796 114.166 414.074 114.485C414.352 114.809 414.562 115.194 414.703 115.641C414.844 116.087 414.915 116.575 414.915 117.104V117.808H409.788V117.842C409.838 118.165 409.916 118.437 410.021 118.655C410.125 118.874 410.269 119.07 410.451 119.243C410.633 119.425 410.848 119.567 411.094 119.667C411.344 119.767 411.618 119.817 411.914 119.817C412.32 119.817 412.698 119.74 413.049 119.585C413.4 119.425 413.689 119.2 413.917 118.908L414.792 119.756C414.546 120.111 414.168 120.43 413.657 120.713C413.151 120.995 412.538 121.137 411.818 121.137ZM411.62 114.793C411.388 114.793 411.171 114.836 410.971 114.923C410.775 115.005 410.599 115.123 410.444 115.278C410.289 115.438 410.16 115.629 410.055 115.853C409.95 116.076 409.872 116.329 409.822 116.611H413.302V116.502C413.302 116.288 413.263 116.076 413.186 115.866C413.108 115.652 412.999 115.465 412.857 115.306C412.721 115.151 412.548 115.028 412.338 114.937C412.133 114.841 411.894 114.793 411.62 114.793ZM419.789 111.45C419.789 111.674 419.759 111.908 419.7 112.154C419.641 112.396 419.559 112.633 419.454 112.865C419.34 113.098 419.208 113.321 419.058 113.535C418.912 113.745 418.748 113.929 418.565 114.089L417.772 113.569C417.964 113.264 418.114 112.943 418.224 112.605C418.333 112.264 418.388 111.881 418.388 111.457V110.343H419.789V111.45ZM422.161 111.45C422.161 111.674 422.132 111.908 422.072 112.154C422.013 112.396 421.931 112.633 421.826 112.865C421.712 113.098 421.58 113.321 421.43 113.535C421.284 113.745 421.12 113.929 420.938 114.089L420.145 113.569C420.336 113.264 420.486 112.943 420.596 112.605C420.705 112.264 420.76 111.881 420.76 111.457V110.343H422.161V111.45Z" fill="#380037"/>
<path d="M442.688 121.854H441.185L445.095 111.047H446.592L442.688 121.854ZM449.148 119.865V118.245L453.277 116.782L453.694 116.659L453.284 116.522L449.148 115.087V113.467L455.253 116.003V117.322L449.148 119.865Z" fill="#001E2E"/>
<g filter="url(#filter0_b_7578_60674)">
<g clip-path="url(#clip0_7578_60674)">
<rect x="179.5" y="40" width="72" height="20.0001" rx="4" fill="#8194A2"/>
<rect width="72" height="20.0001" transform="translate(179.5 40)" fill="#8194A2"/>
<path d="M188.328 46.1797L189.069 49.1177L189.912 46.1797H191.787V54H190.401V51.6851L190.465 48.0273L189.439 51.4219H188.693L187.774 48.1724L187.839 51.6851V54H186.453V46.1797H188.328ZM196.766 54C196.73 53.9284 196.699 53.846 196.674 53.7529C196.649 53.6598 196.628 53.5614 196.61 53.4575C196.528 53.547 196.433 53.6312 196.325 53.71C196.218 53.7887 196.1 53.8568 195.971 53.9141C195.838 53.9749 195.693 54.0215 195.536 54.0537C195.378 54.0895 195.208 54.1074 195.025 54.1074C194.728 54.1074 194.454 54.0645 194.204 53.9785C193.957 53.8926 193.743 53.7726 193.564 53.6187C193.385 53.4647 193.246 53.2821 193.146 53.0708C193.045 52.856 192.995 52.6232 192.995 52.3726C192.995 52.0503 193.058 51.7656 193.183 51.5186C193.308 51.2679 193.496 51.062 193.747 50.9009C193.973 50.7541 194.25 50.6431 194.58 50.5679C194.913 50.4891 195.294 50.4497 195.724 50.4497H196.556V50.106C196.556 49.9699 196.535 49.8481 196.492 49.7407C196.449 49.6297 196.384 49.5348 196.298 49.4561C196.209 49.3737 196.096 49.311 195.96 49.2681C195.827 49.2215 195.672 49.1982 195.493 49.1982C195.335 49.1982 195.199 49.2179 195.084 49.2573C194.97 49.2931 194.877 49.3451 194.805 49.4131C194.741 49.474 194.692 49.5474 194.66 49.6333C194.632 49.7192 194.617 49.8141 194.617 49.918H193.124C193.124 49.6709 193.178 49.4364 193.285 49.2144C193.396 48.9924 193.557 48.7972 193.769 48.6289C193.976 48.4606 194.23 48.3281 194.531 48.2314C194.836 48.1312 195.183 48.0811 195.573 48.0811C195.924 48.0811 196.25 48.124 196.551 48.21C196.855 48.2959 197.118 48.423 197.34 48.5913C197.562 48.7596 197.736 48.9727 197.861 49.2305C197.987 49.4847 198.049 49.7801 198.049 50.1167V52.6089C198.049 52.9204 198.069 53.1782 198.108 53.3823C198.148 53.5864 198.205 53.7619 198.28 53.9087V54H196.766ZM195.342 52.9526C195.493 52.9526 195.632 52.9347 195.761 52.8989C195.89 52.8631 196.007 52.8166 196.11 52.7593C196.214 52.702 196.304 52.6375 196.379 52.5659C196.454 52.4907 196.513 52.4155 196.556 52.3403V51.3413H195.793C195.561 51.3413 195.362 51.3646 195.197 51.4111C195.033 51.4541 194.898 51.515 194.794 51.5938C194.691 51.6761 194.614 51.7746 194.563 51.8892C194.513 52.0002 194.488 52.1219 194.488 52.2544C194.488 52.3582 194.506 52.4549 194.542 52.5444C194.581 52.6304 194.637 52.7038 194.708 52.7646C194.78 52.8219 194.868 52.8685 194.972 52.9043C195.079 52.9365 195.203 52.9526 195.342 52.9526ZM199.741 54V48.1885H201.095L201.186 48.9941C201.261 48.8867 201.344 48.7882 201.433 48.6987C201.523 48.6092 201.618 48.5286 201.718 48.457C201.89 48.3353 202.078 48.2422 202.282 48.1777C202.486 48.1133 202.702 48.0811 202.932 48.0811C203.225 48.0811 203.494 48.124 203.737 48.21C203.981 48.2959 204.192 48.432 204.371 48.6182C204.547 48.8079 204.683 49.0514 204.779 49.3486C204.88 49.6423 204.93 50.0003 204.93 50.4229V54H203.437V50.4443C203.437 50.2152 203.41 50.0272 203.356 49.8804C203.306 49.73 203.232 49.6118 203.136 49.5259C203.039 49.4399 202.923 49.3809 202.787 49.3486C202.651 49.3128 202.497 49.2949 202.325 49.2949C202.181 49.2949 202.049 49.311 201.927 49.3433C201.809 49.3755 201.703 49.4238 201.61 49.4883C201.535 49.5348 201.467 49.5903 201.406 49.6548C201.345 49.7192 201.29 49.7909 201.24 49.8696V54H199.741ZM206.192 51.0513C206.192 50.6108 206.242 50.208 206.342 49.8428C206.446 49.4775 206.597 49.1642 206.793 48.9028C206.99 48.6414 207.229 48.4391 207.508 48.2959C207.791 48.1527 208.113 48.0811 208.475 48.0811C208.779 48.0811 209.046 48.1366 209.275 48.2476C209.508 48.355 209.714 48.509 209.893 48.7095V45.75H211.391V54H210.043L209.968 53.3931C209.785 53.6187 209.57 53.7941 209.323 53.9194C209.076 54.0448 208.79 54.1074 208.464 54.1074C208.109 54.1074 207.791 54.034 207.508 53.8872C207.229 53.7368 206.992 53.5309 206.799 53.2695C206.602 53.0081 206.451 52.6984 206.348 52.3403C206.244 51.9787 206.192 51.5866 206.192 51.1641V51.0513ZM207.685 51.1641C207.685 51.4076 207.705 51.6349 207.744 51.8462C207.787 52.0539 207.855 52.2347 207.948 52.3887C208.041 52.5462 208.161 52.6698 208.308 52.7593C208.455 52.8488 208.634 52.8936 208.845 52.8936C209.103 52.8936 209.316 52.8381 209.484 52.7271C209.656 52.616 209.792 52.4639 209.893 52.2705V49.918C209.792 49.721 209.658 49.5688 209.49 49.4614C209.321 49.3504 209.11 49.2949 208.856 49.2949C208.645 49.2949 208.464 49.3415 208.313 49.4346C208.167 49.5241 208.047 49.6476 207.954 49.8052C207.861 49.9663 207.792 50.1543 207.75 50.3691C207.707 50.5804 207.685 50.8078 207.685 51.0513V51.1641ZM216.585 54C216.549 53.9284 216.519 53.846 216.494 53.7529C216.469 53.6598 216.447 53.5614 216.429 53.4575C216.347 53.547 216.252 53.6312 216.145 53.71C216.037 53.7887 215.919 53.8568 215.79 53.9141C215.658 53.9749 215.513 54.0215 215.355 54.0537C215.197 54.0895 215.027 54.1074 214.845 54.1074C214.548 54.1074 214.274 54.0645 214.023 53.9785C213.776 53.8926 213.563 53.7726 213.384 53.6187C213.205 53.4647 213.065 53.2821 212.965 53.0708C212.865 52.856 212.814 52.6232 212.814 52.3726C212.814 52.0503 212.877 51.7656 213.002 51.5186C213.128 51.2679 213.316 51.062 213.566 50.9009C213.792 50.7541 214.069 50.6431 214.399 50.5679C214.732 50.4891 215.113 50.4497 215.543 50.4497H216.375V50.106C216.375 49.9699 216.354 49.8481 216.311 49.7407C216.268 49.6297 216.204 49.5348 216.118 49.4561C216.028 49.3737 215.915 49.311 215.779 49.2681C215.647 49.2215 215.491 49.1982 215.312 49.1982C215.154 49.1982 215.018 49.2179 214.904 49.2573C214.789 49.2931 214.696 49.3451 214.625 49.4131C214.56 49.474 214.512 49.5474 214.479 49.6333C214.451 49.7192 214.437 49.8141 214.437 49.918H212.943C212.943 49.6709 212.997 49.4364 213.104 49.2144C213.215 48.9924 213.377 48.7972 213.588 48.6289C213.796 48.4606 214.05 48.3281 214.351 48.2314C214.655 48.1312 215.002 48.0811 215.393 48.0811C215.743 48.0811 216.069 48.124 216.37 48.21C216.674 48.2959 216.938 48.423 217.16 48.5913C217.382 48.7596 217.555 48.9727 217.681 49.2305C217.806 49.4847 217.869 49.7801 217.869 50.1167V52.6089C217.869 52.9204 217.888 53.1782 217.928 53.3823C217.967 53.5864 218.024 53.7619 218.1 53.9087V54H216.585ZM215.162 52.9526C215.312 52.9526 215.452 52.9347 215.581 52.8989C215.709 52.8631 215.826 52.8166 215.93 52.7593C216.034 52.702 216.123 52.6375 216.198 52.5659C216.273 52.4907 216.333 52.4155 216.375 52.3403V51.3413H215.613C215.38 51.3413 215.181 51.3646 215.017 51.4111C214.852 51.4541 214.718 51.515 214.614 51.5938C214.51 51.6761 214.433 51.7746 214.383 51.8892C214.333 52.0002 214.308 52.1219 214.308 52.2544C214.308 52.3582 214.326 52.4549 214.361 52.5444C214.401 52.6304 214.456 52.7038 214.528 52.7646C214.599 52.8219 214.687 52.8685 214.791 52.9043C214.898 52.9365 215.022 52.9526 215.162 52.9526ZM222.3 46.7651V48.1885H224.47V49.2896H222.3V51.7871C222.3 51.9984 222.323 52.1756 222.37 52.3188C222.42 52.4585 222.49 52.5695 222.579 52.6519C222.669 52.7378 222.776 52.7987 222.901 52.8345C223.03 52.8703 223.174 52.8882 223.331 52.8882C223.446 52.8882 223.562 52.8828 223.68 52.8721C223.802 52.8613 223.918 52.847 224.029 52.8291C224.137 52.8148 224.237 52.7987 224.33 52.7808C224.427 52.7629 224.509 52.745 224.577 52.7271L224.722 53.7529C224.618 53.8138 224.497 53.8675 224.357 53.9141C224.217 53.957 224.069 53.9928 223.911 54.0215C223.754 54.0501 223.589 54.0716 223.417 54.0859C223.249 54.1038 223.082 54.1128 222.917 54.1128C222.599 54.1128 222.309 54.0716 222.047 53.9893C221.79 53.9033 221.569 53.7708 221.387 53.5918C221.201 53.4163 221.057 53.1925 220.957 52.9204C220.857 52.6447 220.807 52.3153 220.807 51.9321V49.2896H219.48V48.1885H220.807V46.7651H222.3ZM225.963 51.0405C225.963 50.618 226.024 50.2277 226.146 49.8696C226.267 49.508 226.446 49.1947 226.683 48.9297C226.915 48.6647 227.2 48.457 227.537 48.3066C227.877 48.1562 228.265 48.0811 228.702 48.0811C229.139 48.0811 229.528 48.1562 229.868 48.3066C230.208 48.457 230.496 48.6647 230.732 48.9297C230.965 49.1947 231.142 49.508 231.264 49.8696C231.386 50.2277 231.447 50.618 231.447 51.0405V51.1533C231.447 51.5794 231.386 51.9733 231.264 52.335C231.142 52.693 230.965 53.0046 230.732 53.2695C230.5 53.5345 230.213 53.7422 229.873 53.8926C229.533 54.0394 229.146 54.1128 228.713 54.1128C228.276 54.1128 227.886 54.0394 227.542 53.8926C227.202 53.7422 226.915 53.5345 226.683 53.2695C226.446 53.0046 226.267 52.693 226.146 52.335C226.024 51.9733 225.963 51.5794 225.963 51.1533V51.0405ZM227.456 51.1533C227.456 51.3968 227.479 51.626 227.526 51.8408C227.572 52.0521 227.646 52.2365 227.746 52.394C227.846 52.5552 227.975 52.6823 228.133 52.7754C228.294 52.8685 228.487 52.915 228.713 52.915C228.931 52.915 229.119 52.8685 229.277 52.7754C229.434 52.6823 229.563 52.5552 229.664 52.394C229.76 52.2365 229.832 52.0521 229.878 51.8408C229.925 51.626 229.948 51.3968 229.948 51.1533V51.0405C229.948 50.8042 229.925 50.5804 229.878 50.3691C229.832 50.1579 229.76 49.9717 229.664 49.8105C229.563 49.6494 229.434 49.5223 229.277 49.4292C229.119 49.3361 228.928 49.2896 228.702 49.2896C228.48 49.2896 228.29 49.3361 228.133 49.4292C227.975 49.5223 227.846 49.6494 227.746 49.8105C227.646 49.9717 227.572 50.1579 227.526 50.3691C227.479 50.5804 227.456 50.8042 227.456 51.0405V51.1533ZM236.947 48.0811C237.172 48.0811 237.38 48.0972 237.57 48.1294C237.763 48.158 237.919 48.1903 238.037 48.2261L237.817 49.7139C237.62 49.6673 237.418 49.6333 237.21 49.6118C237.006 49.5868 236.811 49.5742 236.625 49.5742C236.431 49.5742 236.256 49.5921 236.098 49.6279C235.944 49.6602 235.806 49.7103 235.685 49.7783C235.538 49.8571 235.412 49.9574 235.309 50.0791C235.205 50.2008 235.119 50.3441 235.051 50.5088V54H233.558V48.1885H234.949L235.008 49.0103L235.019 49.1392C235.255 48.8097 235.538 48.5519 235.867 48.3657C236.197 48.1759 236.556 48.0811 236.947 48.0811ZM240.298 56.3472C240.155 56.3472 240.03 56.3382 239.922 56.3203C239.819 56.3024 239.702 56.2756 239.573 56.2397L239.756 55.1011C239.817 55.1011 239.894 55.1029 239.987 55.1064C240.083 55.1136 240.16 55.1172 240.218 55.1172C240.336 55.1172 240.44 55.0796 240.529 55.0044C240.622 54.9328 240.701 54.854 240.766 54.7681C240.83 54.6821 240.877 54.6177 240.905 54.5747C240.938 54.5317 240.975 54.4709 241.018 54.3921L241.362 53.7529L238.902 48.1885H240.535L241.867 51.5938L242.028 52.1846L242.248 51.6045L243.575 48.1885H245.224L242.275 54.8701C242.21 55.0169 242.126 55.1763 242.022 55.3481C241.922 55.52 241.795 55.6794 241.641 55.8262C241.487 55.973 241.299 56.0965 241.077 56.1968C240.859 56.297 240.599 56.3472 240.298 56.3472Z" fill="white"/>
</g>
</g>
<path d="M215.5 60V102" stroke="#8194A2" stroke-linejoin="round"/>
<circle cx="215.5" cy="104" r="2" fill="#8194A2"/>
<g filter="url(#filter1_b_7578_60674)">
<g clip-path="url(#clip1_7578_60674)">
<rect x="296" y="40" width="131" height="20.0001" rx="4" fill="#8194A2"/>
<rect width="131" height="20.0001" transform="translate(296 40)" fill="#8194A2"/>
<path d="M307.907 54H306.414V50.6108H304.201V54H302.703V46.1797H304.201V49.3862H306.414V46.1797H307.907V54ZM312.226 54.1074C311.778 54.1074 311.372 54.034 311.006 53.8872C310.641 53.7404 310.328 53.5399 310.066 53.2856C309.805 53.035 309.603 52.7396 309.459 52.3994C309.32 52.0557 309.25 51.6886 309.25 51.2983V51.0835C309.25 50.6395 309.32 50.2349 309.459 49.8696C309.599 49.5008 309.794 49.1839 310.045 48.9189C310.296 48.654 310.593 48.4481 310.937 48.3013C311.28 48.1545 311.654 48.0811 312.059 48.0811C312.478 48.0811 312.85 48.1509 313.176 48.2905C313.506 48.4266 313.785 48.62 314.014 48.8706C314.24 49.1213 314.412 49.4238 314.53 49.7783C314.648 50.1292 314.707 50.5177 314.707 50.9438V51.5776H310.765V51.5938C310.815 51.8265 310.879 52.0145 310.958 52.1577C311.037 52.2974 311.142 52.4245 311.275 52.5391C311.411 52.6572 311.567 52.7485 311.742 52.813C311.918 52.8774 312.109 52.9097 312.317 52.9097C312.611 52.9097 312.895 52.8542 313.171 52.7432C313.447 52.6322 313.67 52.4657 313.842 52.2437L314.589 53.0493C314.399 53.3179 314.098 53.5614 313.687 53.7798C313.275 53.9982 312.788 54.1074 312.226 54.1074ZM312.048 49.2896C311.88 49.2896 311.726 49.32 311.586 49.3809C311.447 49.4382 311.325 49.5223 311.221 49.6333C311.114 49.7443 311.024 49.8768 310.953 50.0308C310.881 50.1847 310.827 50.3566 310.792 50.5464H313.241V50.4282C313.241 50.2707 313.212 50.1221 313.155 49.9824C313.097 49.8428 313.019 49.721 312.918 49.6172C312.818 49.5169 312.695 49.4382 312.548 49.3809C312.405 49.32 312.238 49.2896 312.048 49.2896ZM319.643 54C319.607 53.9284 319.577 53.846 319.552 53.7529C319.527 53.6598 319.505 53.5614 319.487 53.4575C319.405 53.547 319.31 53.6312 319.203 53.71C319.095 53.7887 318.977 53.8568 318.848 53.9141C318.716 53.9749 318.571 54.0215 318.413 54.0537C318.256 54.0895 318.085 54.1074 317.903 54.1074C317.606 54.1074 317.332 54.0645 317.081 53.9785C316.834 53.8926 316.621 53.7726 316.442 53.6187C316.263 53.4647 316.123 53.2821 316.023 53.0708C315.923 52.856 315.873 52.6232 315.873 52.3726C315.873 52.0503 315.935 51.7656 316.061 51.5186C316.186 51.2679 316.374 51.062 316.625 50.9009C316.85 50.7541 317.128 50.6431 317.457 50.5679C317.79 50.4891 318.171 50.4497 318.601 50.4497H319.434V50.106C319.434 49.9699 319.412 49.8481 319.369 49.7407C319.326 49.6297 319.262 49.5348 319.176 49.4561C319.086 49.3737 318.973 49.311 318.837 49.2681C318.705 49.2215 318.549 49.1982 318.37 49.1982C318.213 49.1982 318.076 49.2179 317.962 49.2573C317.847 49.2931 317.754 49.3451 317.683 49.4131C317.618 49.474 317.57 49.5474 317.538 49.6333C317.509 49.7192 317.495 49.8141 317.495 49.918H316.001C316.001 49.6709 316.055 49.4364 316.163 49.2144C316.274 48.9924 316.435 48.7972 316.646 48.6289C316.854 48.4606 317.108 48.3281 317.409 48.2314C317.713 48.1312 318.06 48.0811 318.451 48.0811C318.802 48.0811 319.127 48.124 319.428 48.21C319.733 48.2959 319.996 48.423 320.218 48.5913C320.44 48.7596 320.613 48.9727 320.739 49.2305C320.864 49.4847 320.927 49.7801 320.927 50.1167V52.6089C320.927 52.9204 320.946 53.1782 320.986 53.3823C321.025 53.5864 321.083 53.7619 321.158 53.9087V54H319.643ZM318.22 52.9526C318.37 52.9526 318.51 52.9347 318.639 52.8989C318.768 52.8631 318.884 52.8166 318.988 52.7593C319.092 52.702 319.181 52.6375 319.256 52.5659C319.332 52.4907 319.391 52.4155 319.434 52.3403V51.3413H318.671C318.438 51.3413 318.239 51.3646 318.075 51.4111C317.91 51.4541 317.776 51.515 317.672 51.5938C317.568 51.6761 317.491 51.7746 317.441 51.8892C317.391 52.0002 317.366 52.1219 317.366 52.2544C317.366 52.3582 317.384 52.4549 317.419 52.5444C317.459 52.6304 317.514 52.7038 317.586 52.7646C317.658 52.8219 317.745 52.8685 317.849 52.9043C317.957 52.9365 318.08 52.9526 318.22 52.9526ZM324.466 54L322.248 48.1885H323.806L325.084 52.2866L325.165 52.6948L325.245 52.2866L326.518 48.1885H328.076L325.868 54H324.466ZM329.623 48.1885H332.786V52.7861H334.36V54H329.623V52.7861H331.277V49.4077H329.623V48.1885ZM331.169 46.7007C331.169 46.5861 331.189 46.4805 331.229 46.3838C331.271 46.2835 331.331 46.1976 331.406 46.126C331.481 46.0579 331.57 46.0042 331.674 45.9648C331.782 45.9255 331.9 45.9058 332.029 45.9058C332.294 45.9058 332.503 45.981 332.657 46.1313C332.815 46.2782 332.894 46.4679 332.894 46.7007C332.894 46.9334 332.815 47.125 332.657 47.2754C332.503 47.4222 332.294 47.4956 332.029 47.4956C331.9 47.4956 331.782 47.4759 331.674 47.4365C331.57 47.3971 331.481 47.3416 331.406 47.27C331.331 47.202 331.271 47.1196 331.229 47.0229C331.189 46.9227 331.169 46.8153 331.169 46.7007ZM336.143 45.75H339.393V52.7861H341.058V54H336.143V52.7861H337.883V46.9692H336.143V45.75ZM343.356 56.3472C343.213 56.3472 343.088 56.3382 342.98 56.3203C342.877 56.3024 342.76 56.2756 342.631 56.2397L342.814 55.1011C342.875 55.1011 342.952 55.1029 343.045 55.1064C343.142 55.1136 343.219 55.1172 343.276 55.1172C343.394 55.1172 343.498 55.0796 343.587 55.0044C343.681 54.9328 343.759 54.854 343.824 54.7681C343.888 54.6821 343.935 54.6177 343.963 54.5747C343.996 54.5317 344.033 54.4709 344.076 54.3921L344.42 53.7529L341.96 48.1885H343.593L344.925 51.5938L345.086 52.1846L345.306 51.6045L346.633 48.1885H348.282L345.333 54.8701C345.269 55.0169 345.184 55.1763 345.081 55.3481C344.98 55.52 344.853 55.6794 344.699 55.8262C344.545 55.973 344.357 56.0965 344.135 56.1968C343.917 56.297 343.657 56.3472 343.356 56.3472ZM358.471 54.1074C358.023 54.1074 357.617 54.034 357.251 53.8872C356.886 53.7404 356.573 53.5399 356.312 53.2856C356.05 53.035 355.848 52.7396 355.705 52.3994C355.565 52.0557 355.495 51.6886 355.495 51.2983V51.0835C355.495 50.6395 355.565 50.2349 355.705 49.8696C355.844 49.5008 356.039 49.1839 356.29 48.9189C356.541 48.654 356.838 48.4481 357.182 48.3013C357.525 48.1545 357.9 48.0811 358.304 48.0811C358.723 48.0811 359.096 48.1509 359.421 48.2905C359.751 48.4266 360.03 48.62 360.259 48.8706C360.485 49.1213 360.657 49.4238 360.775 49.7783C360.893 50.1292 360.952 50.5177 360.952 50.9438V51.5776H357.01V51.5938C357.06 51.8265 357.124 52.0145 357.203 52.1577C357.282 52.2974 357.388 52.4245 357.52 52.5391C357.656 52.6572 357.812 52.7485 357.987 52.813C358.163 52.8774 358.354 52.9097 358.562 52.9097C358.856 52.9097 359.14 52.8542 359.416 52.7432C359.692 52.6322 359.916 52.4657 360.087 52.2437L360.834 53.0493C360.644 53.3179 360.343 53.5614 359.932 53.7798C359.52 53.9982 359.033 54.1074 358.471 54.1074ZM358.293 49.2896C358.125 49.2896 357.971 49.32 357.832 49.3809C357.692 49.4382 357.57 49.5223 357.466 49.6333C357.359 49.7443 357.269 49.8768 357.198 50.0308C357.126 50.1847 357.072 50.3566 357.037 50.5464H359.486V50.4282C359.486 50.2707 359.457 50.1221 359.4 49.9824C359.343 49.8428 359.264 49.721 359.164 49.6172C359.063 49.5169 358.94 49.4382 358.793 49.3809C358.65 49.32 358.483 49.2896 358.293 49.2896ZM362.257 54V48.1885H363.611L363.702 48.9941C363.777 48.8867 363.86 48.7882 363.949 48.6987C364.039 48.6092 364.134 48.5286 364.234 48.457C364.406 48.3353 364.594 48.2422 364.798 48.1777C365.002 48.1133 365.219 48.0811 365.448 48.0811C365.741 48.0811 366.01 48.124 366.253 48.21C366.497 48.2959 366.708 48.432 366.887 48.6182C367.063 48.8079 367.199 49.0514 367.295 49.3486C367.396 49.6423 367.446 50.0003 367.446 50.4229V54H365.953V50.4443C365.953 50.2152 365.926 50.0272 365.872 49.8804C365.822 49.73 365.749 49.6118 365.652 49.5259C365.555 49.4399 365.439 49.3809 365.303 49.3486C365.167 49.3128 365.013 49.2949 364.841 49.2949C364.698 49.2949 364.565 49.311 364.443 49.3433C364.325 49.3755 364.22 49.4238 364.126 49.4883C364.051 49.5348 363.983 49.5903 363.922 49.6548C363.861 49.7192 363.806 49.7909 363.756 49.8696V54H362.257ZM371.437 52.915C371.583 52.915 371.723 52.8936 371.855 52.8506C371.988 52.8076 372.104 52.7467 372.205 52.668C372.305 52.5892 372.382 52.4943 372.436 52.3833C372.493 52.2723 372.518 52.1488 372.511 52.0127H373.918C373.925 52.3135 373.862 52.5928 373.73 52.8506C373.601 53.1084 373.424 53.3304 373.198 53.5166C372.973 53.7028 372.709 53.8496 372.409 53.957C372.111 54.0609 371.796 54.1128 371.463 54.1128C371.012 54.1128 370.617 54.0376 370.276 53.8872C369.936 53.7332 369.653 53.5238 369.428 53.2588C369.199 52.9938 369.025 52.6841 368.907 52.3296C368.792 51.9715 368.735 51.5884 368.735 51.1802V51.019C368.735 50.6108 368.792 50.2295 368.907 49.875C369.021 49.5169 369.193 49.2054 369.422 48.9404C369.652 48.6755 369.934 48.466 370.271 48.312C370.611 48.158 371.005 48.0811 371.453 48.0811C371.811 48.0811 372.142 48.1348 372.446 48.2422C372.751 48.3496 373.014 48.5 373.236 48.6934C373.454 48.8903 373.624 49.1284 373.746 49.4077C373.868 49.6834 373.925 49.9932 373.918 50.3369H372.511C372.518 50.1937 372.496 50.0576 372.446 49.9287C372.396 49.7998 372.323 49.6888 372.226 49.5957C372.129 49.5026 372.013 49.4292 371.877 49.3755C371.741 49.3182 371.592 49.2896 371.431 49.2896C371.195 49.2896 371 49.3379 370.846 49.4346C370.692 49.5312 370.57 49.6602 370.48 49.8213C370.387 49.9824 370.321 50.1668 370.282 50.3745C370.246 50.5822 370.228 50.797 370.228 51.019V51.1802C370.228 51.4058 370.246 51.6242 370.282 51.8354C370.318 52.0431 370.382 52.2257 370.475 52.3833C370.565 52.5444 370.686 52.6733 370.84 52.77C370.998 52.8667 371.197 52.915 371.437 52.915ZM375.266 51.0405C375.266 50.618 375.327 50.2277 375.449 49.8696C375.57 49.508 375.75 49.1947 375.986 48.9297C376.219 48.6647 376.503 48.457 376.84 48.3066C377.18 48.1562 377.569 48.0811 378.005 48.0811C378.442 48.0811 378.831 48.1562 379.171 48.3066C379.511 48.457 379.799 48.6647 380.036 48.9297C380.268 49.1947 380.446 49.508 380.567 49.8696C380.689 50.2277 380.75 50.618 380.75 51.0405V51.1533C380.75 51.5794 380.689 51.9733 380.567 52.335C380.446 52.693 380.268 53.0046 380.036 53.2695C379.803 53.5345 379.516 53.7422 379.176 53.8926C378.836 54.0394 378.449 54.1128 378.016 54.1128C377.579 54.1128 377.189 54.0394 376.845 53.8926C376.505 53.7422 376.219 53.5345 375.986 53.2695C375.75 53.0046 375.57 52.693 375.449 52.335C375.327 51.9733 375.266 51.5794 375.266 51.1533V51.0405ZM376.759 51.1533C376.759 51.3968 376.783 51.626 376.829 51.8408C376.876 52.0521 376.949 52.2365 377.049 52.394C377.15 52.5552 377.278 52.6823 377.436 52.7754C377.597 52.8685 377.791 52.915 378.016 52.915C378.235 52.915 378.423 52.8685 378.58 52.7754C378.738 52.6823 378.867 52.5552 378.967 52.394C379.063 52.2365 379.135 52.0521 379.182 51.8408C379.228 51.626 379.251 51.3968 379.251 51.1533V51.0405C379.251 50.8042 379.228 50.5804 379.182 50.3691C379.135 50.1579 379.063 49.9717 378.967 49.8105C378.867 49.6494 378.738 49.5223 378.58 49.4292C378.423 49.3361 378.231 49.2896 378.005 49.2896C377.783 49.2896 377.594 49.3361 377.436 49.4292C377.278 49.5223 377.15 49.6494 377.049 49.8105C376.949 49.9717 376.876 50.1579 376.829 50.3691C376.783 50.5804 376.759 50.8042 376.759 51.0405V51.1533ZM385.869 54L385.783 53.1836C385.586 53.4736 385.348 53.701 385.068 53.8657C384.793 54.0304 384.49 54.1128 384.161 54.1128C383.86 54.1128 383.584 54.0662 383.333 53.9731C383.083 53.88 382.868 53.7314 382.689 53.5273C382.51 53.3268 382.37 53.0708 382.27 52.7593C382.173 52.4442 382.125 52.0664 382.125 51.626V48.1885H383.618V51.6367C383.618 51.873 383.634 52.0718 383.667 52.2329C383.702 52.394 383.758 52.5229 383.833 52.6196C383.908 52.7199 384.007 52.7915 384.128 52.8345C384.25 52.8774 384.399 52.8989 384.574 52.8989C384.732 52.8989 384.873 52.8828 384.999 52.8506C385.127 52.8184 385.24 52.7718 385.337 52.7109C385.419 52.6572 385.493 52.5928 385.557 52.5176C385.622 52.4424 385.677 52.3582 385.724 52.2651V48.1885H387.222V54H385.869ZM392.856 48.0811C393.082 48.0811 393.29 48.0972 393.479 48.1294C393.673 48.158 393.829 48.1903 393.947 48.2261L393.727 49.7139C393.53 49.6673 393.327 49.6333 393.12 49.6118C392.916 49.5868 392.72 49.5742 392.534 49.5742C392.341 49.5742 392.165 49.5921 392.008 49.6279C391.854 49.6602 391.716 49.7103 391.594 49.7783C391.447 49.8571 391.322 49.9574 391.218 50.0791C391.114 50.2008 391.028 50.3441 390.96 50.5088V54H389.467V48.1885H390.858L390.917 49.0103L390.928 49.1392C391.165 48.8097 391.447 48.5519 391.777 48.3657C392.106 48.1759 392.466 48.0811 392.856 48.0811ZM398.92 54C398.885 53.9284 398.854 53.846 398.829 53.7529C398.804 53.6598 398.783 53.5614 398.765 53.4575C398.682 53.547 398.587 53.6312 398.48 53.71C398.373 53.7887 398.254 53.8568 398.125 53.9141C397.993 53.9749 397.848 54.0215 397.69 54.0537C397.533 54.0895 397.363 54.1074 397.18 54.1074C396.883 54.1074 396.609 54.0645 396.358 53.9785C396.111 53.8926 395.898 53.7726 395.719 53.6187C395.54 53.4647 395.401 53.2821 395.3 53.0708C395.2 52.856 395.15 52.6232 395.15 52.3726C395.15 52.0503 395.213 51.7656 395.338 51.5186C395.463 51.2679 395.651 51.062 395.902 50.9009C396.127 50.7541 396.405 50.6431 396.734 50.5679C397.067 50.4891 397.449 50.4497 397.878 50.4497H398.711V50.106C398.711 49.9699 398.689 49.8481 398.646 49.7407C398.604 49.6297 398.539 49.5348 398.453 49.4561C398.364 49.3737 398.251 49.311 398.115 49.2681C397.982 49.2215 397.826 49.1982 397.647 49.1982C397.49 49.1982 397.354 49.2179 397.239 49.2573C397.125 49.2931 397.032 49.3451 396.96 49.4131C396.896 49.474 396.847 49.5474 396.815 49.6333C396.786 49.7192 396.772 49.8141 396.772 49.918H395.279C395.279 49.6709 395.333 49.4364 395.44 49.2144C395.551 48.9924 395.712 48.7972 395.923 48.6289C396.131 48.4606 396.385 48.3281 396.686 48.2314C396.99 48.1312 397.338 48.0811 397.728 48.0811C398.079 48.0811 398.405 48.124 398.706 48.21C399.01 48.2959 399.273 48.423 399.495 48.5913C399.717 48.7596 399.891 48.9727 400.016 49.2305C400.141 49.4847 400.204 49.7801 400.204 50.1167V52.6089C400.204 52.9204 400.224 53.1782 400.263 53.3823C400.303 53.5864 400.36 53.7619 400.435 53.9087V54H398.92ZM397.497 52.9526C397.647 52.9526 397.787 52.9347 397.916 52.8989C398.045 52.8631 398.161 52.8166 398.265 52.7593C398.369 52.702 398.458 52.6375 398.534 52.5659C398.609 52.4907 398.668 52.4155 398.711 52.3403V51.3413H397.948C397.715 51.3413 397.517 51.3646 397.352 51.4111C397.187 51.4541 397.053 51.515 396.949 51.5938C396.845 51.6761 396.768 51.7746 396.718 51.8892C396.668 52.0002 396.643 52.1219 396.643 52.2544C396.643 52.3582 396.661 52.4549 396.697 52.5444C396.736 52.6304 396.792 52.7038 396.863 52.7646C396.935 52.8219 397.023 52.8685 397.126 52.9043C397.234 52.9365 397.357 52.9526 397.497 52.9526ZM401.746 51.0513C401.746 50.6108 401.799 50.208 401.907 49.8428C402.018 49.4775 402.175 49.1642 402.379 48.9028C402.583 48.6414 402.831 48.4391 403.121 48.2959C403.411 48.1527 403.738 48.0811 404.104 48.0811C404.3 48.0811 404.479 48.1007 404.641 48.1401C404.805 48.1759 404.954 48.2314 405.086 48.3066C405.187 48.3604 405.28 48.4248 405.366 48.5C405.452 48.5716 405.53 48.6522 405.602 48.7417L405.661 48.1885H407.02V53.812C407.02 54.2059 406.952 54.5568 406.816 54.8647C406.683 55.1727 406.497 55.4323 406.257 55.6436C406.014 55.8548 405.722 56.0142 405.382 56.1216C405.045 56.2326 404.673 56.2881 404.265 56.2881C404.089 56.2881 403.901 56.2702 403.701 56.2344C403.5 56.1986 403.301 56.1431 403.104 56.0679C402.908 55.9927 402.721 55.896 402.546 55.7778C402.37 55.6632 402.22 55.5254 402.095 55.3643L402.766 54.4565C402.863 54.5675 402.967 54.6642 403.078 54.7466C403.189 54.8325 403.305 54.9023 403.427 54.9561C403.545 55.0098 403.667 55.0492 403.792 55.0742C403.921 55.1029 404.053 55.1172 404.189 55.1172C404.408 55.1172 404.601 55.0868 404.77 55.0259C404.941 54.965 405.085 54.8755 405.199 54.7573C405.303 54.6499 405.382 54.5174 405.436 54.3599C405.493 54.2023 405.521 54.0251 405.521 53.8281V53.4951C405.45 53.5739 405.375 53.6455 405.296 53.71C405.217 53.7744 405.133 53.8317 405.043 53.8818C404.911 53.9535 404.764 54.009 404.603 54.0483C404.445 54.0877 404.275 54.1074 404.093 54.1074C403.731 54.1074 403.405 54.034 403.115 53.8872C402.829 53.7368 402.583 53.5309 402.379 53.2695C402.175 53.0081 402.018 52.6984 401.907 52.3403C401.799 51.9787 401.746 51.5866 401.746 51.1641V51.0513ZM403.244 51.1641C403.244 51.4076 403.267 51.6349 403.314 51.8462C403.364 52.0539 403.439 52.2347 403.54 52.3887C403.64 52.5462 403.767 52.6698 403.921 52.7593C404.075 52.8488 404.257 52.8936 404.469 52.8936C404.598 52.8936 404.714 52.881 404.818 52.856C404.925 52.8309 405.022 52.7951 405.108 52.7485C405.197 52.6984 405.276 52.6375 405.344 52.5659C405.412 52.4943 405.471 52.4137 405.521 52.3242V49.8643C405.468 49.764 405.403 49.6763 405.328 49.6011C405.253 49.5259 405.167 49.465 405.07 49.4185C404.988 49.3791 404.897 49.3486 404.796 49.3271C404.7 49.3057 404.594 49.2949 404.479 49.2949C404.268 49.2949 404.086 49.3415 403.932 49.4346C403.778 49.5241 403.651 49.6476 403.55 49.8052C403.446 49.9663 403.369 50.1543 403.319 50.3691C403.269 50.5804 403.244 50.8078 403.244 51.0513V51.1641ZM411.322 54.1074C410.875 54.1074 410.468 54.034 410.103 53.8872C409.738 53.7404 409.424 53.5399 409.163 53.2856C408.902 53.035 408.699 52.7396 408.556 52.3994C408.417 52.0557 408.347 51.6886 408.347 51.2983V51.0835C408.347 50.6395 408.417 50.2349 408.556 49.8696C408.696 49.5008 408.891 49.1839 409.142 48.9189C409.392 48.654 409.689 48.4481 410.033 48.3013C410.377 48.1545 410.751 48.0811 411.156 48.0811C411.575 48.0811 411.947 48.1509 412.273 48.2905C412.602 48.4266 412.882 48.62 413.111 48.8706C413.336 49.1213 413.508 49.4238 413.626 49.7783C413.745 50.1292 413.804 50.5177 413.804 50.9438V51.5776H409.861V51.5938C409.911 51.8265 409.976 52.0145 410.055 52.1577C410.133 52.2974 410.239 52.4245 410.372 52.5391C410.508 52.6572 410.663 52.7485 410.839 52.813C411.014 52.8774 411.206 52.9097 411.414 52.9097C411.707 52.9097 411.992 52.8542 412.268 52.7432C412.543 52.6322 412.767 52.4657 412.939 52.2437L413.686 53.0493C413.496 53.3179 413.195 53.5614 412.783 53.7798C412.371 53.9982 411.884 54.1074 411.322 54.1074ZM411.145 49.2896C410.977 49.2896 410.823 49.32 410.683 49.3809C410.543 49.4382 410.422 49.5223 410.318 49.6333C410.21 49.7443 410.121 49.8768 410.049 50.0308C409.978 50.1847 409.924 50.3566 409.888 50.5464H412.337V50.4282C412.337 50.2707 412.309 50.1221 412.251 49.9824C412.194 49.8428 412.115 49.721 412.015 49.6172C411.915 49.5169 411.791 49.4382 411.645 49.3809C411.501 49.32 411.335 49.2896 411.145 49.2896ZM414.953 51.0513C414.953 50.6108 415.003 50.208 415.104 49.8428C415.207 49.4775 415.358 49.1642 415.555 48.9028C415.752 48.6414 415.99 48.4391 416.269 48.2959C416.552 48.1527 416.874 48.0811 417.236 48.0811C417.54 48.0811 417.807 48.1366 418.036 48.2476C418.269 48.355 418.475 48.509 418.654 48.7095V45.75H420.152V54H418.804L418.729 53.3931C418.546 53.6187 418.332 53.7941 418.084 53.9194C417.837 54.0448 417.551 54.1074 417.225 54.1074C416.871 54.1074 416.552 54.034 416.269 53.8872C415.99 53.7368 415.753 53.5309 415.56 53.2695C415.363 53.0081 415.213 52.6984 415.109 52.3403C415.005 51.9787 414.953 51.5866 414.953 51.1641V51.0513ZM416.446 51.1641C416.446 51.4076 416.466 51.6349 416.505 51.8462C416.548 52.0539 416.616 52.2347 416.709 52.3887C416.803 52.5462 416.923 52.6698 417.069 52.7593C417.216 52.8488 417.395 52.8936 417.606 52.8936C417.864 52.8936 418.077 52.8381 418.246 52.7271C418.417 52.616 418.554 52.4639 418.654 52.2705V49.918C418.554 49.721 418.419 49.5688 418.251 49.4614C418.083 49.3504 417.871 49.2949 417.617 49.2949C417.406 49.2949 417.225 49.3415 417.075 49.4346C416.928 49.5241 416.808 49.6476 416.715 49.8052C416.622 49.9663 416.554 50.1543 416.511 50.3691C416.468 50.5804 416.446 50.8078 416.446 51.0513V51.1641Z" fill="white"/>
</g>
</g>
<path d="M361.5 60V102" stroke="#8194A2" stroke-linejoin="round"/>
<circle cx="361.5" cy="104" r="2" fill="#8194A2"/>
<defs>
<filter id="filter0_b_7578_60674" x="-70.5" y="-210" width="572" height="520" filterUnits="userSpaceOnUse" color-interpolation-filters="sRGB">
<feFlood flood-opacity="0" result="BackgroundImageFix"/>
<feGaussianBlur in="BackgroundImageFix" stdDeviation="125"/>
<feComposite in2="SourceAlpha" operator="in" result="effect1_backgroundBlur_7578_60674"/>
<feBlend mode="normal" in="SourceGraphic" in2="effect1_backgroundBlur_7578_60674" result="shape"/>
</filter>
<filter id="filter1_b_7578_60674" x="46" y="-210" width="631" height="520" filterUnits="userSpaceOnUse" color-interpolation-filters="sRGB">
<feFlood flood-opacity="0" result="BackgroundImageFix"/>
<feGaussianBlur in="BackgroundImageFix" stdDeviation="125"/>
<feComposite in2="SourceAlpha" operator="in" result="effect1_backgroundBlur_7578_60674"/>
<feBlend mode="normal" in="SourceGraphic" in2="effect1_backgroundBlur_7578_60674" result="shape"/>
</filter>
<clipPath id="clip0_7578_60674">
<rect x="179.5" y="40" width="72" height="20.0001" rx="4" fill="white"/>
</clipPath>
<clipPath id="clip1_7578_60674">
<rect x="296" y="40" width="131" height="20.0001" rx="4" fill="white"/>
</clipPath>
</defs>
</svg>
