<svg width="432" height="150" viewBox="0 0 432 150" fill="none" xmlns="http://www.w3.org/2000/svg">
<rect width="432" height="150" rx="24" fill="#87CEFF" fill-opacity="0.16"/>
<rect x="48.5" y="48.5" width="156" height="20" rx="2.5" fill="white"/>
<rect x="48.5" y="48.5" width="156" height="20" rx="2.5" stroke="black"/>
<path d="M53.0029 63V53.6943H56.5132C57.131 53.6943 57.6029 53.724 57.9287 53.7832C58.3857 53.8594 58.7687 54.0054 59.0776 54.2212C59.3866 54.4328 59.6341 54.7311 59.8203 55.1162C60.0107 55.5013 60.106 55.9245 60.106 56.3857C60.106 57.1771 59.8542 57.8478 59.3506 58.3979C58.847 58.9438 57.9372 59.2168 56.6211 59.2168H54.2344V63H53.0029ZM54.2344 58.1187H56.6401C57.4357 58.1187 58.0007 57.9705 58.335 57.6743C58.6693 57.3781 58.8364 56.9613 58.8364 56.4238C58.8364 56.0345 58.737 55.7023 58.5381 55.4272C58.3434 55.1479 58.0853 54.9639 57.7637 54.875C57.5563 54.82 57.1733 54.7925 56.6147 54.7925H54.2344V58.1187ZM61.5024 63V53.6943H62.645V63H61.5024ZM68.8213 62.1685C68.3981 62.5282 67.9897 62.7821 67.5962 62.9302C67.2069 63.0783 66.7879 63.1523 66.3394 63.1523C65.5988 63.1523 65.0296 62.9725 64.6318 62.6128C64.234 62.2489 64.0352 61.7855 64.0352 61.2227C64.0352 60.8926 64.1092 60.5921 64.2573 60.3213C64.4097 60.0462 64.6064 59.8262 64.8477 59.6611C65.0931 59.4961 65.3682 59.3713 65.6729 59.2866C65.8971 59.2274 66.2357 59.1702 66.6885 59.1152C67.611 59.0052 68.2902 58.874 68.7261 58.7217C68.7303 58.5651 68.7324 58.4657 68.7324 58.4233C68.7324 57.9578 68.6245 57.6299 68.4087 57.4395C68.1167 57.1813 67.6829 57.0522 67.1074 57.0522C66.57 57.0522 66.1722 57.1475 65.9141 57.3379C65.6602 57.5241 65.4718 57.8563 65.3491 58.3345L64.2319 58.1821C64.3335 57.7039 64.5007 57.3188 64.7334 57.0269C64.9661 56.7306 65.3026 56.5042 65.7427 56.3477C66.1828 56.1868 66.6927 56.1064 67.2725 56.1064C67.848 56.1064 68.3156 56.1742 68.6753 56.3096C69.035 56.445 69.2995 56.6164 69.4688 56.8237C69.638 57.0269 69.7565 57.285 69.8242 57.5981C69.8623 57.7928 69.8813 58.144 69.8813 58.6519V60.1753C69.8813 61.2375 69.9046 61.9103 69.9512 62.1938C70.002 62.4731 70.0993 62.7419 70.2432 63H69.0498C68.9313 62.763 68.8551 62.4858 68.8213 62.1685ZM68.7261 59.6167C68.3114 59.786 67.6893 59.9299 66.8599 60.0483C66.3901 60.116 66.0579 60.1922 65.8633 60.2769C65.6686 60.3615 65.5184 60.4863 65.4126 60.6514C65.3068 60.8122 65.2539 60.992 65.2539 61.1909C65.2539 61.4956 65.3682 61.7495 65.5967 61.9526C65.8294 62.1558 66.168 62.2573 66.6123 62.2573C67.0524 62.2573 67.4438 62.1621 67.7866 61.9717C68.1294 61.777 68.3812 61.5125 68.542 61.1782C68.6647 60.9201 68.7261 60.5392 68.7261 60.0356V59.6167ZM76.0576 60.5308L77.1812 60.6768C77.0584 61.4512 76.7432 62.0584 76.2354 62.4985C75.7318 62.9344 75.1118 63.1523 74.3755 63.1523C73.453 63.1523 72.7103 62.8519 72.1475 62.251C71.5889 61.6458 71.3096 60.7804 71.3096 59.6548C71.3096 58.9269 71.4302 58.29 71.6714 57.7441C71.9126 57.1982 72.2786 56.7899 72.7695 56.519C73.2646 56.244 73.8021 56.1064 74.3818 56.1064C75.1139 56.1064 75.7127 56.2926 76.1782 56.665C76.6437 57.0332 76.9421 57.5579 77.0732 58.2393L75.9624 58.4106C75.8566 57.9578 75.6683 57.6172 75.3975 57.3887C75.1309 57.1602 74.8071 57.0459 74.4263 57.0459C73.8507 57.0459 73.3831 57.2533 73.0234 57.668C72.6637 58.0785 72.4839 58.7301 72.4839 59.623C72.4839 60.5286 72.6574 61.1867 73.0044 61.5972C73.3514 62.0076 73.8042 62.2129 74.3628 62.2129C74.8114 62.2129 75.1859 62.0754 75.4863 61.8003C75.7868 61.5252 75.9772 61.1021 76.0576 60.5308ZM82.7734 60.8291L83.9541 60.9751C83.7679 61.6649 83.423 62.2002 82.9194 62.5811C82.4159 62.9619 81.7726 63.1523 80.9897 63.1523C80.0037 63.1523 79.2209 62.8498 78.6411 62.2446C78.0656 61.6353 77.7778 60.7826 77.7778 59.6865C77.7778 58.5524 78.0698 57.6722 78.6538 57.0459C79.2378 56.4196 79.9953 56.1064 80.9263 56.1064C81.8276 56.1064 82.564 56.4132 83.1353 57.0269C83.7065 57.6405 83.9922 58.5037 83.9922 59.6167C83.9922 59.6844 83.9901 59.786 83.9858 59.9214H78.9585C79.0008 60.6619 79.2103 61.229 79.5869 61.6226C79.9635 62.0161 80.4333 62.2129 80.9961 62.2129C81.415 62.2129 81.7726 62.1029 82.0688 61.8828C82.3651 61.6628 82.5999 61.3115 82.7734 60.8291ZM79.022 58.9819H82.7861C82.7354 58.4149 82.5915 57.9896 82.3545 57.7061C81.9906 57.266 81.5187 57.0459 80.939 57.0459C80.4142 57.0459 79.972 57.2215 79.6123 57.5728C79.2568 57.924 79.0601 58.3937 79.022 58.9819ZM85.395 63V53.6943H86.5376V57.0332C87.0708 56.4154 87.7437 56.1064 88.5562 56.1064C89.0555 56.1064 89.4893 56.2059 89.8574 56.4048C90.2256 56.5994 90.488 56.8703 90.6445 57.2173C90.8053 57.5643 90.8857 58.0679 90.8857 58.728V63H89.7432V58.728C89.7432 58.1567 89.6183 57.742 89.3687 57.4839C89.1232 57.2215 88.7741 57.0903 88.3213 57.0903C87.9827 57.0903 87.6632 57.1792 87.3628 57.3569C87.0666 57.5304 86.855 57.7674 86.728 58.0679C86.6011 58.3683 86.5376 58.783 86.5376 59.312V63H85.395ZM92.2061 59.6294C92.2061 58.381 92.5531 57.4564 93.2471 56.8555C93.8268 56.3561 94.5335 56.1064 95.3672 56.1064C96.2939 56.1064 97.0514 56.4111 97.6396 57.0205C98.2279 57.6257 98.522 58.4635 98.522 59.5342C98.522 60.4017 98.3908 61.0851 98.1284 61.5845C97.8703 62.0796 97.4915 62.4647 96.9922 62.7397C96.4971 63.0148 95.9554 63.1523 95.3672 63.1523C94.4235 63.1523 93.6597 62.8498 93.0757 62.2446C92.4959 61.6395 92.2061 60.7677 92.2061 59.6294ZM93.3804 59.6294C93.3804 60.4927 93.5687 61.1401 93.9453 61.5718C94.3219 61.9992 94.7959 62.2129 95.3672 62.2129C95.9342 62.2129 96.4061 61.9971 96.7827 61.5654C97.1593 61.1338 97.3477 60.4757 97.3477 59.5913C97.3477 58.7576 97.1572 58.1271 96.7764 57.6997C96.3997 57.2681 95.93 57.0522 95.3672 57.0522C94.7959 57.0522 94.3219 57.266 93.9453 57.6934C93.5687 58.1208 93.3804 58.7661 93.3804 59.6294ZM99.8423 63V53.6943H100.985V63H99.8423ZM107.136 63V62.1494C106.708 62.818 106.08 63.1523 105.25 63.1523C104.713 63.1523 104.218 63.0042 103.765 62.708C103.317 62.4118 102.967 61.9992 102.718 61.4702C102.472 60.937 102.35 60.3255 102.35 59.6357C102.35 58.9629 102.462 58.3535 102.686 57.8076C102.91 57.2575 103.247 56.8364 103.695 56.5444C104.144 56.2524 104.645 56.1064 105.2 56.1064C105.606 56.1064 105.968 56.1932 106.285 56.3667C106.603 56.536 106.861 56.7581 107.06 57.0332V53.6943H108.196V63H107.136ZM103.524 59.6357C103.524 60.499 103.706 61.1444 104.07 61.5718C104.434 61.9992 104.863 62.2129 105.358 62.2129C105.858 62.2129 106.281 62.0098 106.628 61.6035C106.979 61.193 107.155 60.5688 107.155 59.731C107.155 58.8084 106.977 58.1313 106.622 57.6997C106.266 57.2681 105.828 57.0522 105.308 57.0522C104.8 57.0522 104.375 57.2596 104.032 57.6743C103.693 58.089 103.524 58.7428 103.524 59.6357ZM114.613 60.8291L115.794 60.9751C115.608 61.6649 115.263 62.2002 114.759 62.5811C114.256 62.9619 113.612 63.1523 112.83 63.1523C111.844 63.1523 111.061 62.8498 110.481 62.2446C109.905 61.6353 109.618 60.7826 109.618 59.6865C109.618 58.5524 109.91 57.6722 110.494 57.0459C111.078 56.4196 111.835 56.1064 112.766 56.1064C113.667 56.1064 114.404 56.4132 114.975 57.0269C115.546 57.6405 115.832 58.5037 115.832 59.6167C115.832 59.6844 115.83 59.786 115.826 59.9214H110.798C110.841 60.6619 111.05 61.229 111.427 61.6226C111.803 62.0161 112.273 62.2129 112.836 62.2129C113.255 62.2129 113.612 62.1029 113.909 61.8828C114.205 61.6628 114.44 61.3115 114.613 60.8291ZM110.862 58.9819H114.626C114.575 58.4149 114.431 57.9896 114.194 57.7061C113.83 57.266 113.359 57.0459 112.779 57.0459C112.254 57.0459 111.812 57.2215 111.452 57.5728C111.097 57.924 110.9 58.3937 110.862 58.9819ZM117.222 63V56.2588H118.25V57.2808C118.513 56.8026 118.754 56.4873 118.974 56.335C119.198 56.1826 119.444 56.1064 119.71 56.1064C120.096 56.1064 120.487 56.2292 120.885 56.4746L120.491 57.5347C120.212 57.3696 119.933 57.2871 119.653 57.2871C119.404 57.2871 119.179 57.3633 118.98 57.5156C118.782 57.6637 118.64 57.8711 118.555 58.1377C118.428 58.5439 118.365 58.9883 118.365 59.4707V63H117.222Z" fill="#767676"/>
<rect x="48.5" y="81.5" width="156" height="20" rx="2.5" fill="white"/>
<rect x="48.5" y="81.5" width="156" height="20" rx="2.5" stroke="black"/>
<path fill-rule="evenodd" clip-rule="evenodd" d="M192 85H190.5V86.5C189.672 86.5 189 87.1716 189 88V95.5C189 96.3284 189.672 97 190.5 97H198.5C199.328 97 200 96.3284 200 95.5V88C200 87.1716 199.328 86.5 198.5 86.5V85H197V86.5H192V85ZM190.25 89V95.5C190.25 95.6381 190.362 95.75 190.5 95.75H198.5C198.638 95.75 198.75 95.6381 198.75 95.5V89H190.25Z" fill="black"/>
<rect x="221.5" y="48.5" width="56" height="20" rx="2.5" fill="#EFEFEF"/>
<rect x="221.5" y="48.5" width="56" height="20" rx="2.5" stroke="#767676"/>
<path d="M229.841 60.0103L231.003 59.9087C231.058 60.3742 231.185 60.7572 231.384 61.0576C231.587 61.3538 231.9 61.5951 232.323 61.7812C232.746 61.9632 233.222 62.0542 233.751 62.0542C234.221 62.0542 234.636 61.9844 234.996 61.8447C235.355 61.7051 235.622 61.5146 235.795 61.2734C235.973 61.028 236.062 60.7614 236.062 60.4736C236.062 60.1816 235.977 59.9277 235.808 59.7119C235.639 59.4919 235.36 59.3078 234.97 59.1597C234.721 59.0623 234.168 58.9121 233.313 58.709C232.459 58.5016 231.86 58.307 231.517 58.125C231.073 57.8923 230.741 57.6045 230.521 57.2617C230.305 56.9147 230.197 56.5275 230.197 56.1001C230.197 55.6304 230.33 55.1924 230.597 54.7861C230.863 54.3757 231.253 54.0646 231.765 53.853C232.277 53.6414 232.846 53.5356 233.472 53.5356C234.162 53.5356 234.769 53.6478 235.294 53.8721C235.823 54.0921 236.229 54.418 236.513 54.8496C236.796 55.2812 236.949 55.77 236.97 56.3159L235.789 56.4048C235.726 55.8166 235.51 55.3722 235.142 55.0718C234.778 54.7713 234.238 54.6211 233.523 54.6211C232.778 54.6211 232.234 54.7586 231.892 55.0337C231.553 55.3045 231.384 55.6325 231.384 56.0176C231.384 56.3519 231.504 56.627 231.746 56.8428C231.983 57.0586 232.6 57.2808 233.599 57.5093C234.602 57.7336 235.29 57.9303 235.662 58.0996C236.204 58.3493 236.604 58.6667 236.862 59.0518C237.12 59.4326 237.249 59.8727 237.249 60.3721C237.249 60.8672 237.107 61.3348 236.824 61.7749C236.54 62.2108 236.132 62.5514 235.599 62.7969C235.07 63.0381 234.473 63.1587 233.809 63.1587C232.966 63.1587 232.26 63.036 231.688 62.7905C231.121 62.5451 230.675 62.1769 230.349 61.686C230.028 61.1909 229.858 60.6323 229.841 60.0103ZM243.203 63V62.0098C242.678 62.7715 241.965 63.1523 241.064 63.1523C240.666 63.1523 240.294 63.0762 239.947 62.9238C239.604 62.7715 239.348 62.5811 239.179 62.3525C239.014 62.1198 238.897 61.8363 238.83 61.502C238.783 61.2777 238.76 60.9222 238.76 60.4355V56.2588H239.902V59.9976C239.902 60.5942 239.926 60.9963 239.972 61.2036C240.044 61.5041 240.196 61.741 240.429 61.9146C240.662 62.0838 240.95 62.1685 241.292 62.1685C241.635 62.1685 241.957 62.0817 242.257 61.9082C242.558 61.7305 242.769 61.4914 242.892 61.1909C243.019 60.8862 243.083 60.4461 243.083 59.8706V56.2588H244.225V63H243.203ZM247.075 63H246.015V53.6943H247.158V57.0142C247.64 56.409 248.256 56.1064 249.005 56.1064C249.42 56.1064 249.811 56.1911 250.179 56.3604C250.552 56.5254 250.856 56.7603 251.093 57.0649C251.334 57.3654 251.523 57.7293 251.658 58.1567C251.794 58.5841 251.861 59.0412 251.861 59.5278C251.861 60.6831 251.576 61.576 251.004 62.2065C250.433 62.8371 249.748 63.1523 248.948 63.1523C248.152 63.1523 247.528 62.8201 247.075 62.1558V63ZM247.062 59.5786C247.062 60.3869 247.173 60.9709 247.393 61.3306C247.752 61.9188 248.239 62.2129 248.853 62.2129C249.352 62.2129 249.784 61.9971 250.147 61.5654C250.511 61.1296 250.693 60.4821 250.693 59.623C250.693 58.7428 250.518 58.0933 250.167 57.6743C249.819 57.2554 249.398 57.0459 248.903 57.0459C248.404 57.0459 247.972 57.2638 247.608 57.6997C247.244 58.1313 247.062 58.7576 247.062 59.5786ZM253.258 63V56.2588H254.28V57.2046C254.491 56.8745 254.773 56.61 255.124 56.4111C255.475 56.208 255.875 56.1064 256.324 56.1064C256.823 56.1064 257.231 56.2101 257.549 56.4175C257.87 56.6248 258.097 56.9147 258.228 57.2871C258.761 56.5 259.455 56.1064 260.31 56.1064C260.979 56.1064 261.493 56.2926 261.853 56.665C262.212 57.0332 262.392 57.6024 262.392 58.3726V63H261.256V58.7534C261.256 58.2964 261.218 57.9684 261.142 57.7695C261.07 57.5664 260.936 57.4035 260.742 57.2808C260.547 57.158 260.319 57.0967 260.056 57.0967C259.582 57.0967 259.189 57.2554 258.875 57.5728C258.562 57.8859 258.406 58.3895 258.406 59.0835V63H257.263V58.6201C257.263 58.1123 257.17 57.7314 256.984 57.4775C256.798 57.2236 256.493 57.0967 256.07 57.0967C255.748 57.0967 255.45 57.1813 255.175 57.3506C254.904 57.5199 254.707 57.7674 254.584 58.0933C254.462 58.4191 254.4 58.8888 254.4 59.5024V63H253.258ZM264.093 55.0083V53.6943H265.236V55.0083H264.093ZM264.093 63V56.2588H265.236V63H264.093ZM269.476 61.978L269.641 62.9873C269.319 63.055 269.032 63.0889 268.778 63.0889C268.363 63.0889 268.042 63.0233 267.813 62.8921C267.584 62.7609 267.424 62.5895 267.331 62.3779C267.237 62.1621 267.191 61.7114 267.191 61.0259V57.1475H266.353V56.2588H267.191V54.5894L268.327 53.9038V56.2588H269.476V57.1475H268.327V61.0894C268.327 61.4152 268.346 61.6247 268.384 61.7178C268.427 61.8109 268.492 61.8849 268.581 61.9399C268.674 61.995 268.805 62.0225 268.975 62.0225C269.102 62.0225 269.269 62.0076 269.476 61.978Z" fill="black"/>
<rect x="294.5" y="52.5" width="12" height="12" rx="1.5" fill="white"/>
<rect x="294.5" y="52.5" width="12" height="12" rx="1.5" stroke="#767676"/>
<rect x="318" y="52" width="13" height="13" rx="2" fill="#2E6DFA"/>
<path fill-rule="evenodd" clip-rule="evenodd" d="M329.258 55.2157L323.171 62.5845L319.836 59.2497L321.25 57.8355L323.03 59.615L327.716 53.9419L329.258 55.2157Z" fill="white"/>
<rect x="347.5" y="52.5" width="12" height="12" rx="6" fill="white"/>
<rect x="347.5" y="52.5" width="12" height="12" rx="6" stroke="#767676"/>
<rect x="371.5" y="52.5" width="12" height="12" rx="6" stroke="#2E6DFA"/>
<circle cx="377.5" cy="58.5" r="4" fill="#2E6DFA"/>
<g clip-path="url(#clip0_7300_34629)">
<rect x="221" y="88" width="163" height="8" rx="4" fill="#EFEFEF"/>
<rect x="221" y="88" width="99" height="8" rx="4" fill="#2E6DFA"/>
<rect x="221.5" y="88.5" width="162" height="7" rx="3.5" stroke="#808080" stroke-opacity="0.5"/>
</g>
<circle cx="320" cy="92" r="8" fill="#2E6DFA"/>
<defs>
<clipPath id="clip0_7300_34629">
<rect x="221" y="88" width="163" height="8" rx="4" fill="white"/>
</clipPath>
</defs>
</svg>
