<svg width="790" height="453" viewBox="0 0 790 453" fill="none" xmlns="http://www.w3.org/2000/svg">
<path fill-rule="evenodd" clip-rule="evenodd" d="M198.256 25.8865C198.256 12.0955 209.436 0.915649 223.227 0.915649H346.946C353.569 0.915649 359.92 3.5465 364.603 8.22945C369.286 12.9124 371.917 19.2638 371.917 25.8865C371.917 39.6775 360.737 50.8574 346.946 50.8574H223.227C209.436 50.8574 198.256 39.6775 198.256 25.8865Z" fill="#F4CCCC" stroke="#990000" stroke-miterlimit="8" stroke-linejoin="round"/>
<path fill-rule="evenodd" clip-rule="evenodd" d="M1.30042 177.82C1.30042 164.029 12.4803 152.849 26.2713 152.849H149.991C156.613 152.849 162.965 155.48 167.648 160.162C172.331 164.845 174.961 171.197 174.961 177.82C174.961 191.611 163.782 202.79 149.991 202.79H26.2713C12.4803 202.79 1.30042 191.611 1.30042 177.82Z" fill="#FCE5CD" stroke="#783F04" stroke-miterlimit="8" stroke-linejoin="round"/>
<path fill-rule="evenodd" clip-rule="evenodd" d="M396.402 344.322C396.402 330.531 407.582 319.351 421.373 319.351H545.092C551.715 319.351 558.066 321.982 562.749 326.665C567.432 331.348 570.063 337.699 570.063 344.322C570.063 358.113 558.883 369.293 545.092 369.293H421.373C407.582 369.293 396.402 358.113 396.402 344.322Z" fill="#D9D2E9" stroke="#351C75" stroke-miterlimit="8" stroke-linejoin="round"/>
<path fill-rule="evenodd" clip-rule="evenodd" d="M614.947 344.321C614.947 330.53 626.127 319.351 639.918 319.351H763.637C770.26 319.351 776.612 321.981 781.294 326.664C785.977 331.347 788.608 337.699 788.608 344.321C788.608 358.112 777.428 369.292 763.637 369.292H639.918C626.127 369.292 614.947 358.112 614.947 344.321Z" fill="#F4CCCC" stroke="#5B0F00" stroke-miterlimit="8" stroke-linejoin="round"/>
<path fill-rule="evenodd" clip-rule="evenodd" d="M396.402 426.456C396.402 412.665 407.581 401.485 421.372 401.485H545.092C551.714 401.485 558.066 404.116 562.749 408.799C567.432 413.482 570.063 419.833 570.063 426.456C570.063 440.247 558.883 451.427 545.092 451.427H421.372C407.581 451.427 396.402 440.247 396.402 426.456Z" fill="#FCE5CD" stroke="#783F04" stroke-miterlimit="8" stroke-linejoin="round"/>
<path d="M483.232 369.293V385.384H483.306V401.477" stroke="#666666" stroke-miterlimit="8" stroke-linejoin="round"/>
<path d="M580.816 344.322H614.952" stroke="#666666" stroke-miterlimit="8" stroke-linejoin="round"/>
<path fill-rule="evenodd" clip-rule="evenodd" d="M580.816 341.026L571.762 344.322L580.816 347.617V341.026Z" fill="#666666" stroke="#666666" stroke-miterlimit="10"/>
<path fill-rule="evenodd" clip-rule="evenodd" d="M1.30103 344.321C1.30103 330.53 12.4809 319.351 26.2719 319.351H149.991C156.614 319.351 162.965 321.981 167.648 326.664C172.331 331.347 174.962 337.699 174.962 344.321C174.962 358.112 163.782 369.292 149.991 369.292H26.2719C12.4809 369.292 1.30103 358.112 1.30103 344.321Z" fill="#F4CCCC" stroke="#5B0F00" stroke-miterlimit="8" stroke-linejoin="round"/>
<path fill-rule="evenodd" clip-rule="evenodd" d="M396.402 177.819C396.402 164.028 407.582 152.848 421.373 152.848H545.092C551.715 152.848 558.066 155.479 562.749 160.162C567.432 164.845 570.063 171.196 570.063 177.819C570.063 191.61 558.883 202.79 545.092 202.79H421.373C407.582 202.79 396.402 191.61 396.402 177.819Z" fill="#D9D2E9" stroke="#351C75" stroke-miterlimit="8" stroke-linejoin="round"/>
<path fill-rule="evenodd" clip-rule="evenodd" d="M198.255 344.322C198.255 330.531 209.435 319.352 223.226 319.352H346.945C353.568 319.352 359.92 321.982 364.602 326.665C369.285 331.348 371.916 337.7 371.916 344.322C371.916 358.113 360.736 369.293 346.945 369.293H223.226C209.435 369.293 198.255 358.113 198.255 344.322Z" fill="#FCE5CD" stroke="#783F04" stroke-miterlimit="8" stroke-linejoin="round"/>
<path fill-rule="evenodd" clip-rule="evenodd" d="M198.253 97.4526C198.253 83.6615 209.433 72.4817 223.224 72.4817H346.943C353.566 72.4817 359.917 75.1125 364.6 79.7955C369.283 84.4784 371.914 90.8299 371.914 97.4526C371.914 111.244 360.734 122.423 346.943 122.423H223.224C209.433 122.423 198.253 111.244 198.253 97.4526Z" fill="#82FDE4" stroke="#134F5C" stroke-miterlimit="8" stroke-linejoin="round"/>
<path d="M285.086 50.8574V61.7432" stroke="#666666" stroke-miterlimit="8" stroke-linejoin="round"/>
<path fill-rule="evenodd" clip-rule="evenodd" d="M281.791 61.7432L285.086 70.7968L288.382 61.7432H281.791Z" fill="#666666" stroke="#666666" stroke-miterlimit="10"/>
<path fill-rule="evenodd" clip-rule="evenodd" d="M396.442 261.07C396.442 247.279 407.622 236.099 421.413 236.099H545.132C551.755 236.099 558.106 238.73 562.789 243.413C567.472 248.096 570.103 254.447 570.103 261.07C570.103 274.861 558.923 286.04 545.132 286.04H421.413C407.622 286.04 396.442 274.861 396.442 261.07Z" fill="#82FDE4" stroke="#134F5C" stroke-miterlimit="8" stroke-linejoin="round"/>
<path d="M483.232 202.79L483.257 225.356" stroke="#666666" stroke-miterlimit="8" stroke-linejoin="round"/>
<path fill-rule="evenodd" clip-rule="evenodd" d="M479.962 225.359L483.267 234.409L486.553 225.352L479.962 225.359Z" fill="#666666" stroke="#666666" stroke-miterlimit="10"/>
<path d="M483.272 286.04V302.71H483.346V319.359" stroke="#666666" stroke-miterlimit="8" stroke-linejoin="round"/>
<path d="M483.272 286.04V302.71H701.786V319.359" stroke="#666666" stroke-miterlimit="8" stroke-linejoin="round"/>
<path d="M285.086 319.352V302.702H483.278V286.033" stroke="#666666" stroke-miterlimit="8" stroke-linejoin="round"/>
<path fill-rule="evenodd" clip-rule="evenodd" d="M1.30005 261.07C1.30005 247.279 12.4799 236.099 26.2709 236.099H149.99C156.613 236.099 162.964 238.73 167.647 243.413C172.33 248.096 174.961 254.447 174.961 261.07C174.961 274.861 163.781 286.04 149.99 286.04H26.2709C12.4799 286.04 1.30005 274.861 1.30005 261.07Z" fill="#82FDE4" stroke="#134F5C" stroke-miterlimit="8" stroke-linejoin="round"/>
<path d="M88.1305 286.04V302.71H88.2037V319.359" stroke="#666666" stroke-miterlimit="8" stroke-linejoin="round"/>
<path d="M88.1309 202.79V225.356" stroke="#666666" stroke-miterlimit="8" stroke-linejoin="round"/>
<path fill-rule="evenodd" clip-rule="evenodd" d="M84.8354 225.356L88.1309 234.41L91.4264 225.356H84.8354Z" fill="#666666" stroke="#666666" stroke-miterlimit="10"/>
<path d="M285.084 122.423V137.646H88.136V152.85" stroke="#666666" stroke-miterlimit="8" stroke-linejoin="round"/>
<path d="M285.084 122.423V137.646H483.24V152.85" stroke="#666666" stroke-miterlimit="8" stroke-linejoin="round"/>
<path d="M174.962 344.321H187.471V177.837H385.651" stroke="#666666" stroke-miterlimit="8" stroke-linejoin="round"/>
<path fill-rule="evenodd" clip-rule="evenodd" d="M385.651 181.132L394.705 177.837L385.651 174.541V181.132Z" fill="#666666" stroke="#666666" stroke-miterlimit="10"/>
<path d="M255.495 32H253.799V26.085H247.348V32H245.66V19.2031H247.348V24.7051H253.799V19.2031H255.495V32ZM257.807 27.1572C257.807 26.2256 257.988 25.3877 258.352 24.6436C258.721 23.8994 259.23 23.3252 259.881 22.9209C260.537 22.5166 261.284 22.3145 262.122 22.3145C263.417 22.3145 264.463 22.7627 265.26 23.6592C266.062 24.5557 266.464 25.748 266.464 27.2363V27.3506C266.464 28.2764 266.285 29.1084 265.928 29.8467C265.576 30.5791 265.069 31.1504 264.407 31.5605C263.751 31.9707 262.995 32.1758 262.14 32.1758C260.851 32.1758 259.805 31.7275 259.002 30.8311C258.205 29.9346 257.807 28.748 257.807 27.2715V27.1572ZM259.441 27.3506C259.441 28.4053 259.685 29.252 260.171 29.8906C260.663 30.5293 261.319 30.8486 262.14 30.8486C262.966 30.8486 263.622 30.5264 264.108 29.8818C264.595 29.2314 264.838 28.3232 264.838 27.1572C264.838 26.1143 264.589 25.2705 264.091 24.626C263.599 23.9756 262.942 23.6504 262.122 23.6504C261.319 23.6504 260.672 23.9697 260.18 24.6084C259.688 25.2471 259.441 26.1611 259.441 27.3506ZM274.04 29.4775C274.04 29.0381 273.873 28.6982 273.539 28.458C273.211 28.2119 272.634 28.001 271.808 27.8252C270.987 27.6494 270.334 27.4385 269.848 27.1924C269.367 26.9463 269.01 26.6533 268.775 26.3135C268.547 25.9736 268.433 25.5693 268.433 25.1006C268.433 24.3213 268.761 23.6621 269.417 23.123C270.079 22.584 270.923 22.3145 271.948 22.3145C273.026 22.3145 273.899 22.5928 274.567 23.1494C275.241 23.7061 275.578 24.418 275.578 25.2852H273.943C273.943 24.8398 273.753 24.4561 273.372 24.1338C272.997 23.8115 272.522 23.6504 271.948 23.6504C271.356 23.6504 270.894 23.7793 270.56 24.0371C270.226 24.2949 270.059 24.6318 270.059 25.0479C270.059 25.4404 270.214 25.7363 270.524 25.9355C270.835 26.1348 271.395 26.3252 272.203 26.5068C273.018 26.6885 273.677 26.9053 274.181 27.1572C274.685 27.4092 275.057 27.7139 275.297 28.0713C275.543 28.4229 275.666 28.8535 275.666 29.3633C275.666 30.2129 275.326 30.8955 274.646 31.4111C273.967 31.9209 273.085 32.1758 272.001 32.1758C271.239 32.1758 270.565 32.041 269.979 31.7715C269.394 31.502 268.934 31.127 268.6 30.6465C268.271 30.1602 268.107 29.6357 268.107 29.0732H269.733C269.763 29.6182 269.979 30.0518 270.384 30.374C270.794 30.6904 271.333 30.8486 272.001 30.8486C272.616 30.8486 273.108 30.7256 273.478 30.4795C273.853 30.2275 274.04 29.8936 274.04 29.4775ZM279.99 20.1875V22.4902H281.766V23.7471H279.99V29.6445C279.99 30.0254 280.069 30.3125 280.228 30.5059C280.386 30.6934 280.655 30.7871 281.036 30.7871C281.224 30.7871 281.481 30.752 281.81 30.6816V32C281.382 32.1172 280.966 32.1758 280.562 32.1758C279.835 32.1758 279.287 31.9561 278.918 31.5166C278.549 31.0771 278.364 30.4531 278.364 29.6445V23.7471H276.633V22.4902H278.364V20.1875H279.99ZM292.629 29.7588L296.285 19.2031H298.131L293.385 32H291.891L287.153 19.2031H288.99L292.629 29.7588ZM301.365 32H299.739V22.4902H301.365V32ZM299.607 19.9678C299.607 19.7041 299.687 19.4814 299.845 19.2998C300.009 19.1182 300.249 19.0273 300.565 19.0273C300.882 19.0273 301.122 19.1182 301.286 19.2998C301.45 19.4814 301.532 19.7041 301.532 19.9678C301.532 20.2314 301.45 20.4512 301.286 20.627C301.122 20.8027 300.882 20.8906 300.565 20.8906C300.249 20.8906 300.009 20.8027 299.845 20.627C299.687 20.4512 299.607 20.2314 299.607 19.9678ZM307.922 32.1758C306.633 32.1758 305.584 31.7539 304.775 30.9102C303.967 30.0605 303.562 28.9268 303.562 27.5088V27.21C303.562 26.2666 303.741 25.4258 304.099 24.6875C304.462 23.9434 304.966 23.3633 305.61 22.9473C306.261 22.5254 306.964 22.3145 307.72 22.3145C308.956 22.3145 309.917 22.7217 310.603 23.5361C311.288 24.3506 311.631 25.5166 311.631 27.0342V27.7109H305.188C305.212 28.6484 305.484 29.4072 306.006 29.9873C306.533 30.5615 307.201 30.8486 308.01 30.8486C308.584 30.8486 309.07 30.7314 309.469 30.4971C309.867 30.2627 310.216 29.9521 310.515 29.5654L311.508 30.3389C310.711 31.5635 309.516 32.1758 307.922 32.1758ZM307.72 23.6504C307.063 23.6504 306.513 23.8906 306.067 24.3711C305.622 24.8457 305.347 25.5137 305.241 26.375H310.005V26.252C309.958 25.4258 309.735 24.7871 309.337 24.3359C308.938 23.8789 308.399 23.6504 307.72 23.6504ZM321.94 29.7588L323.769 22.4902H325.395L322.626 32H321.308L318.996 24.793L316.746 32H315.428L312.668 22.4902H314.285L316.157 29.6094L318.372 22.4902H319.682L321.94 29.7588Z" fill="black"/>
<path d="M688.263 347.759L691.919 337.203H693.765L689.019 350H687.524L682.787 337.203H684.624L688.263 347.759ZM696.999 350H695.373V340.49H696.999V350ZM695.241 337.968C695.241 337.704 695.32 337.481 695.479 337.3C695.643 337.118 695.883 337.027 696.199 337.027C696.516 337.027 696.756 337.118 696.92 337.3C697.084 337.481 697.166 337.704 697.166 337.968C697.166 338.231 697.084 338.451 696.92 338.627C696.756 338.803 696.516 338.891 696.199 338.891C695.883 338.891 695.643 338.803 695.479 338.627C695.32 338.451 695.241 338.231 695.241 337.968ZM703.556 350.176C702.267 350.176 701.218 349.754 700.409 348.91C699.601 348.061 699.196 346.927 699.196 345.509V345.21C699.196 344.267 699.375 343.426 699.732 342.688C700.096 341.943 700.6 341.363 701.244 340.947C701.895 340.525 702.598 340.314 703.354 340.314C704.59 340.314 705.551 340.722 706.236 341.536C706.922 342.351 707.265 343.517 707.265 345.034V345.711H700.822C700.846 346.648 701.118 347.407 701.64 347.987C702.167 348.562 702.835 348.849 703.644 348.849C704.218 348.849 704.704 348.731 705.103 348.497C705.501 348.263 705.85 347.952 706.148 347.565L707.142 348.339C706.345 349.563 705.149 350.176 703.556 350.176ZM703.354 341.65C702.697 341.65 702.146 341.891 701.701 342.371C701.256 342.846 700.98 343.514 700.875 344.375H705.639V344.252C705.592 343.426 705.369 342.787 704.971 342.336C704.572 341.879 704.033 341.65 703.354 341.65ZM717.574 347.759L719.402 340.49H721.028L718.26 350H716.941L714.63 342.793L712.38 350H711.062L708.302 340.49H709.919L711.791 347.609L714.006 340.49H715.315L717.574 347.759Z" fill="black"/>
<path d="M74.2627 347.759L77.9189 337.203H79.7646L75.0186 350H73.5244L68.7871 337.203H70.624L74.2627 347.759ZM82.999 350H81.373V340.49H82.999V350ZM81.2412 337.968C81.2412 337.704 81.3203 337.481 81.4785 337.3C81.6426 337.118 81.8828 337.027 82.1992 337.027C82.5156 337.027 82.7559 337.118 82.9199 337.3C83.084 337.481 83.166 337.704 83.166 337.968C83.166 338.231 83.084 338.451 82.9199 338.627C82.7559 338.803 82.5156 338.891 82.1992 338.891C81.8828 338.891 81.6426 338.803 81.4785 338.627C81.3203 338.451 81.2412 338.231 81.2412 337.968ZM89.5557 350.176C88.2666 350.176 87.2178 349.754 86.4092 348.91C85.6006 348.061 85.1963 346.927 85.1963 345.509V345.21C85.1963 344.267 85.375 343.426 85.7324 342.688C86.0957 341.943 86.5996 341.363 87.2441 340.947C87.8945 340.525 88.5977 340.314 89.3535 340.314C90.5898 340.314 91.5508 340.722 92.2363 341.536C92.9219 342.351 93.2646 343.517 93.2646 345.034V345.711H86.8223C86.8457 346.648 87.1182 347.407 87.6396 347.987C88.167 348.562 88.835 348.849 89.6436 348.849C90.2178 348.849 90.7041 348.731 91.1025 348.497C91.501 348.263 91.8496 347.952 92.1484 347.565L93.1416 348.339C92.3447 349.563 91.1494 350.176 89.5557 350.176ZM89.3535 341.65C88.6973 341.65 88.1465 341.891 87.7012 342.371C87.2559 342.846 86.9805 343.514 86.875 344.375H91.6387V344.252C91.5918 343.426 91.3691 342.787 90.9707 342.336C90.5723 341.879 90.0332 341.65 89.3535 341.65ZM103.574 347.759L105.402 340.49H107.028L104.26 350H102.941L100.63 342.793L98.3799 350H97.0615L94.3018 340.49H95.9189L97.791 347.609L100.006 340.49H101.315L103.574 347.759Z" fill="black"/>
<path d="M261.067 344.085H255.521V348.62H261.964V350H253.834V337.203H261.876V338.592H255.521V342.705H261.067V344.085ZM265.576 350H263.95V336.5H265.576V350ZM272.133 350.176C270.844 350.176 269.795 349.754 268.986 348.91C268.178 348.061 267.773 346.927 267.773 345.509V345.21C267.773 344.267 267.952 343.426 268.31 342.688C268.673 341.943 269.177 341.363 269.821 340.947C270.472 340.525 271.175 340.314 271.931 340.314C273.167 340.314 274.128 340.722 274.813 341.536C275.499 342.351 275.842 343.517 275.842 345.034V345.711H269.399C269.423 346.648 269.695 347.407 270.217 347.987C270.744 348.562 271.412 348.849 272.221 348.849C272.795 348.849 273.281 348.731 273.68 348.497C274.078 348.263 274.427 347.952 274.726 347.565L275.719 348.339C274.922 349.563 273.727 350.176 272.133 350.176ZM271.931 341.65C271.274 341.65 270.724 341.891 270.278 342.371C269.833 342.846 269.558 343.514 269.452 344.375H274.216V344.252C274.169 343.426 273.946 342.787 273.548 342.336C273.149 341.879 272.61 341.65 271.931 341.65ZM279.261 340.49L279.305 341.545C280.002 340.725 280.942 340.314 282.126 340.314C283.456 340.314 284.361 340.824 284.842 341.844C285.158 341.387 285.568 341.018 286.072 340.736C286.582 340.455 287.183 340.314 287.874 340.314C289.96 340.314 291.021 341.419 291.056 343.628V350H289.43V343.725C289.43 343.045 289.274 342.538 288.964 342.204C288.653 341.864 288.132 341.694 287.399 341.694C286.796 341.694 286.295 341.876 285.896 342.239C285.498 342.597 285.267 343.08 285.202 343.689V350H283.567V343.769C283.567 342.386 282.891 341.694 281.537 341.694C280.471 341.694 279.741 342.148 279.349 343.057V350H277.723V340.49H279.261ZM297.463 350.176C296.174 350.176 295.125 349.754 294.316 348.91C293.508 348.061 293.104 346.927 293.104 345.509V345.21C293.104 344.267 293.282 343.426 293.64 342.688C294.003 341.943 294.507 341.363 295.151 340.947C295.802 340.525 296.505 340.314 297.261 340.314C298.497 340.314 299.458 340.722 300.144 341.536C300.829 342.351 301.172 343.517 301.172 345.034V345.711H294.729C294.753 346.648 295.025 347.407 295.547 347.987C296.074 348.562 296.742 348.849 297.551 348.849C298.125 348.849 298.611 348.731 299.01 348.497C299.408 348.263 299.757 347.952 300.056 347.565L301.049 348.339C300.252 349.563 299.057 350.176 297.463 350.176ZM297.261 341.65C296.604 341.65 296.054 341.891 295.608 342.371C295.163 342.846 294.888 343.514 294.782 344.375H299.546V344.252C299.499 343.426 299.276 342.787 298.878 342.336C298.479 341.879 297.94 341.65 297.261 341.65ZM304.6 340.49L304.652 341.686C305.379 340.771 306.328 340.314 307.5 340.314C309.51 340.314 310.523 341.448 310.541 343.716V350H308.915V343.707C308.909 343.021 308.751 342.515 308.44 342.187C308.136 341.858 307.658 341.694 307.008 341.694C306.48 341.694 306.018 341.835 305.619 342.116C305.221 342.397 304.91 342.767 304.688 343.224V350H303.062V340.49H304.6ZM315.199 338.188V340.49H316.975V341.747H315.199V347.645C315.199 348.025 315.278 348.312 315.437 348.506C315.595 348.693 315.864 348.787 316.245 348.787C316.433 348.787 316.69 348.752 317.019 348.682V350C316.591 350.117 316.175 350.176 315.771 350.176C315.044 350.176 314.496 349.956 314.127 349.517C313.758 349.077 313.573 348.453 313.573 347.645V341.747H311.842V340.49H313.573V338.188H315.199Z" fill="black"/>
<path d="M459.067 426.085H453.521V430.62H459.964V432H451.834V419.203H459.876V420.592H453.521V424.705H459.067V426.085ZM463.576 432H461.95V418.5H463.576V432ZM470.133 432.176C468.844 432.176 467.795 431.754 466.986 430.91C466.178 430.061 465.773 428.927 465.773 427.509V427.21C465.773 426.267 465.952 425.426 466.31 424.688C466.673 423.943 467.177 423.363 467.821 422.947C468.472 422.525 469.175 422.314 469.931 422.314C471.167 422.314 472.128 422.722 472.813 423.536C473.499 424.351 473.842 425.517 473.842 427.034V427.711H467.399C467.423 428.648 467.695 429.407 468.217 429.987C468.744 430.562 469.412 430.849 470.221 430.849C470.795 430.849 471.281 430.731 471.68 430.497C472.078 430.263 472.427 429.952 472.726 429.565L473.719 430.339C472.922 431.563 471.727 432.176 470.133 432.176ZM469.931 423.65C469.274 423.65 468.724 423.891 468.278 424.371C467.833 424.846 467.558 425.514 467.452 426.375H472.216V426.252C472.169 425.426 471.946 424.787 471.548 424.336C471.149 423.879 470.61 423.65 469.931 423.65ZM477.261 422.49L477.305 423.545C478.002 422.725 478.942 422.314 480.126 422.314C481.456 422.314 482.361 422.824 482.842 423.844C483.158 423.387 483.568 423.018 484.072 422.736C484.582 422.455 485.183 422.314 485.874 422.314C487.96 422.314 489.021 423.419 489.056 425.628V432H487.43V425.725C487.43 425.045 487.274 424.538 486.964 424.204C486.653 423.864 486.132 423.694 485.399 423.694C484.796 423.694 484.295 423.876 483.896 424.239C483.498 424.597 483.267 425.08 483.202 425.689V432H481.567V425.769C481.567 424.386 480.891 423.694 479.537 423.694C478.471 423.694 477.741 424.148 477.349 425.057V432H475.723V422.49H477.261ZM495.463 432.176C494.174 432.176 493.125 431.754 492.316 430.91C491.508 430.061 491.104 428.927 491.104 427.509V427.21C491.104 426.267 491.282 425.426 491.64 424.688C492.003 423.943 492.507 423.363 493.151 422.947C493.802 422.525 494.505 422.314 495.261 422.314C496.497 422.314 497.458 422.722 498.144 423.536C498.829 424.351 499.172 425.517 499.172 427.034V427.711H492.729C492.753 428.648 493.025 429.407 493.547 429.987C494.074 430.562 494.742 430.849 495.551 430.849C496.125 430.849 496.611 430.731 497.01 430.497C497.408 430.263 497.757 429.952 498.056 429.565L499.049 430.339C498.252 431.563 497.057 432.176 495.463 432.176ZM495.261 423.65C494.604 423.65 494.054 423.891 493.608 424.371C493.163 424.846 492.888 425.514 492.782 426.375H497.546V426.252C497.499 425.426 497.276 424.787 496.878 424.336C496.479 423.879 495.94 423.65 495.261 423.65ZM502.6 422.49L502.652 423.686C503.379 422.771 504.328 422.314 505.5 422.314C507.51 422.314 508.523 423.448 508.541 425.716V432H506.915V425.707C506.909 425.021 506.751 424.515 506.44 424.187C506.136 423.858 505.658 423.694 505.008 423.694C504.48 423.694 504.018 423.835 503.619 424.116C503.221 424.397 502.91 424.767 502.688 425.224V432H501.062V422.49H502.6ZM513.199 420.188V422.49H514.975V423.747H513.199V429.645C513.199 430.025 513.278 430.312 513.437 430.506C513.595 430.693 513.864 430.787 514.245 430.787C514.433 430.787 514.69 430.752 515.019 430.682V432C514.591 432.117 514.175 432.176 513.771 432.176C513.044 432.176 512.496 431.956 512.127 431.517C511.758 431.077 511.573 430.453 511.573 429.645V423.747H509.842V422.49H511.573V420.188H513.199Z" fill="black"/>
<path d="M64.0674 177.085H58.5215V181.62H64.9639V183H56.834V170.203H64.876V171.592H58.5215V175.705H64.0674V177.085ZM68.5762 183H66.9502V169.5H68.5762V183ZM75.1328 183.176C73.8438 183.176 72.7949 182.754 71.9863 181.91C71.1777 181.061 70.7734 179.927 70.7734 178.509V178.21C70.7734 177.267 70.9521 176.426 71.3096 175.688C71.6729 174.943 72.1768 174.363 72.8213 173.947C73.4717 173.525 74.1748 173.314 74.9307 173.314C76.167 173.314 77.1279 173.722 77.8135 174.536C78.499 175.351 78.8418 176.517 78.8418 178.034V178.711H72.3994C72.4229 179.648 72.6953 180.407 73.2168 180.987C73.7441 181.562 74.4121 181.849 75.2207 181.849C75.7949 181.849 76.2812 181.731 76.6797 181.497C77.0781 181.263 77.4268 180.952 77.7256 180.565L78.7188 181.339C77.9219 182.563 76.7266 183.176 75.1328 183.176ZM74.9307 174.65C74.2744 174.65 73.7236 174.891 73.2783 175.371C72.833 175.846 72.5576 176.514 72.4521 177.375H77.2158V177.252C77.1689 176.426 76.9463 175.787 76.5479 175.336C76.1494 174.879 75.6104 174.65 74.9307 174.65ZM82.2607 173.49L82.3047 174.545C83.002 173.725 83.9424 173.314 85.126 173.314C86.4561 173.314 87.3613 173.824 87.8418 174.844C88.1582 174.387 88.5684 174.018 89.0723 173.736C89.582 173.455 90.1826 173.314 90.874 173.314C92.96 173.314 94.0205 174.419 94.0557 176.628V183H92.4297V176.725C92.4297 176.045 92.2744 175.538 91.9639 175.204C91.6533 174.864 91.1318 174.694 90.3994 174.694C89.7959 174.694 89.2949 174.876 88.8965 175.239C88.498 175.597 88.2666 176.08 88.2021 176.689V183H86.5674V176.769C86.5674 175.386 85.8906 174.694 84.5371 174.694C83.4707 174.694 82.7412 175.148 82.3486 176.057V183H80.7227V173.49H82.2607ZM100.463 183.176C99.1738 183.176 98.125 182.754 97.3164 181.91C96.5078 181.061 96.1035 179.927 96.1035 178.509V178.21C96.1035 177.267 96.2822 176.426 96.6396 175.688C97.0029 174.943 97.5068 174.363 98.1514 173.947C98.8018 173.525 99.5049 173.314 100.261 173.314C101.497 173.314 102.458 173.722 103.144 174.536C103.829 175.351 104.172 176.517 104.172 178.034V178.711H97.7295C97.7529 179.648 98.0254 180.407 98.5469 180.987C99.0742 181.562 99.7422 181.849 100.551 181.849C101.125 181.849 101.611 181.731 102.01 181.497C102.408 181.263 102.757 180.952 103.056 180.565L104.049 181.339C103.252 182.563 102.057 183.176 100.463 183.176ZM100.261 174.65C99.6045 174.65 99.0537 174.891 98.6084 175.371C98.1631 175.846 97.8877 176.514 97.7822 177.375H102.546V177.252C102.499 176.426 102.276 175.787 101.878 175.336C101.479 174.879 100.94 174.65 100.261 174.65ZM107.6 173.49L107.652 174.686C108.379 173.771 109.328 173.314 110.5 173.314C112.51 173.314 113.523 174.448 113.541 176.716V183H111.915V176.707C111.909 176.021 111.751 175.515 111.44 175.187C111.136 174.858 110.658 174.694 110.008 174.694C109.48 174.694 109.018 174.835 108.619 175.116C108.221 175.397 107.91 175.767 107.688 176.224V183H106.062V173.49H107.6ZM118.199 171.188V173.49H119.975V174.747H118.199V180.645C118.199 181.025 118.278 181.312 118.437 181.506C118.595 181.693 118.864 181.787 119.245 181.787C119.433 181.787 119.69 181.752 120.019 181.682V183C119.591 183.117 119.175 183.176 118.771 183.176C118.044 183.176 117.496 182.956 117.127 182.517C116.758 182.077 116.573 181.453 116.573 180.645V174.747H114.842V173.49H116.573V171.188H118.199Z" fill="black"/>
<path d="M455.877 338.592H451.764V350H450.085V338.592H445.98V337.203H455.877V338.592ZM460.588 350.176C459.299 350.176 458.25 349.754 457.441 348.91C456.633 348.061 456.229 346.927 456.229 345.509V345.21C456.229 344.267 456.407 343.426 456.765 342.688C457.128 341.943 457.632 341.363 458.276 340.947C458.927 340.525 459.63 340.314 460.386 340.314C461.622 340.314 462.583 340.722 463.269 341.536C463.954 342.351 464.297 343.517 464.297 345.034V345.711H457.854C457.878 346.648 458.15 347.407 458.672 347.987C459.199 348.562 459.867 348.849 460.676 348.849C461.25 348.849 461.736 348.731 462.135 348.497C462.533 348.263 462.882 347.952 463.181 347.565L464.174 348.339C463.377 349.563 462.182 350.176 460.588 350.176ZM460.386 341.65C459.729 341.65 459.179 341.891 458.733 342.371C458.288 342.846 458.013 343.514 457.907 344.375H462.671V344.252C462.624 343.426 462.401 342.787 462.003 342.336C461.604 341.879 461.065 341.65 460.386 341.65ZM467.716 340.49L467.76 341.545C468.457 340.725 469.397 340.314 470.581 340.314C471.911 340.314 472.816 340.824 473.297 341.844C473.613 341.387 474.023 341.018 474.527 340.736C475.037 340.455 475.638 340.314 476.329 340.314C478.415 340.314 479.476 341.419 479.511 343.628V350H477.885V343.725C477.885 343.045 477.729 342.538 477.419 342.204C477.108 341.864 476.587 341.694 475.854 341.694C475.251 341.694 474.75 341.876 474.352 342.239C473.953 342.597 473.722 343.08 473.657 343.689V350H472.022V343.769C472.022 342.386 471.346 341.694 469.992 341.694C468.926 341.694 468.196 342.148 467.804 343.057V350H466.178V340.49H467.716ZM490.005 345.351C490.005 346.798 489.674 347.964 489.012 348.849C488.35 349.733 487.453 350.176 486.322 350.176C485.168 350.176 484.26 349.81 483.598 349.077V353.656H481.972V340.49H483.457L483.536 341.545C484.198 340.725 485.118 340.314 486.296 340.314C487.438 340.314 488.341 340.745 489.003 341.606C489.671 342.468 490.005 343.666 490.005 345.201V345.351ZM488.379 345.166C488.379 344.094 488.15 343.247 487.693 342.626C487.236 342.005 486.609 341.694 485.812 341.694C484.828 341.694 484.09 342.131 483.598 343.004V347.548C484.084 348.415 484.828 348.849 485.83 348.849C486.609 348.849 487.228 348.541 487.685 347.926C488.147 347.305 488.379 346.385 488.379 345.166ZM493.846 350H492.22V336.5H493.846V350ZM502.327 350C502.233 349.812 502.157 349.479 502.099 348.998C501.343 349.783 500.44 350.176 499.392 350.176C498.454 350.176 497.684 349.912 497.08 349.385C496.482 348.852 496.184 348.178 496.184 347.363C496.184 346.373 496.559 345.605 497.309 345.061C498.064 344.51 499.125 344.234 500.49 344.234H502.072V343.487C502.072 342.919 501.902 342.468 501.562 342.134C501.223 341.794 500.722 341.624 500.06 341.624C499.479 341.624 498.993 341.771 498.601 342.063C498.208 342.356 498.012 342.711 498.012 343.127H496.377C496.377 342.652 496.544 342.195 496.878 341.756C497.218 341.311 497.675 340.959 498.249 340.701C498.829 340.443 499.465 340.314 500.156 340.314C501.252 340.314 502.11 340.59 502.731 341.141C503.353 341.686 503.675 342.438 503.698 343.399V347.776C503.698 348.649 503.81 349.344 504.032 349.859V350H502.327ZM499.629 348.761C500.139 348.761 500.622 348.629 501.079 348.365C501.536 348.102 501.867 347.759 502.072 347.337V345.386H500.798C498.806 345.386 497.81 345.969 497.81 347.135C497.81 347.645 497.979 348.043 498.319 348.33C498.659 348.617 499.096 348.761 499.629 348.761ZM508.453 338.188V340.49H510.229V341.747H508.453V347.645C508.453 348.025 508.532 348.312 508.69 348.506C508.849 348.693 509.118 348.787 509.499 348.787C509.687 348.787 509.944 348.752 510.272 348.682V350C509.845 350.117 509.429 350.176 509.024 350.176C508.298 350.176 507.75 349.956 507.381 349.517C507.012 349.077 506.827 348.453 506.827 347.645V341.747H505.096V340.49H506.827V338.188H508.453ZM516.082 350.176C514.793 350.176 513.744 349.754 512.936 348.91C512.127 348.061 511.723 346.927 511.723 345.509V345.21C511.723 344.267 511.901 343.426 512.259 342.688C512.622 341.943 513.126 341.363 513.771 340.947C514.421 340.525 515.124 340.314 515.88 340.314C517.116 340.314 518.077 340.722 518.763 341.536C519.448 342.351 519.791 343.517 519.791 345.034V345.711H513.349C513.372 346.648 513.645 347.407 514.166 347.987C514.693 348.562 515.361 348.849 516.17 348.849C516.744 348.849 517.23 348.731 517.629 348.497C518.027 348.263 518.376 347.952 518.675 347.565L519.668 348.339C518.871 349.563 517.676 350.176 516.082 350.176ZM515.88 341.65C515.224 341.65 514.673 341.891 514.228 342.371C513.782 342.846 513.507 343.514 513.401 344.375H518.165V344.252C518.118 343.426 517.896 342.787 517.497 342.336C517.099 341.879 516.56 341.65 515.88 341.65Z" fill="black"/>
<path d="M455.877 171.592H451.764V183H450.085V171.592H445.98V170.203H455.877V171.592ZM460.588 183.176C459.299 183.176 458.25 182.754 457.441 181.91C456.633 181.061 456.229 179.927 456.229 178.509V178.21C456.229 177.267 456.407 176.426 456.765 175.688C457.128 174.943 457.632 174.363 458.276 173.947C458.927 173.525 459.63 173.314 460.386 173.314C461.622 173.314 462.583 173.722 463.269 174.536C463.954 175.351 464.297 176.517 464.297 178.034V178.711H457.854C457.878 179.648 458.15 180.407 458.672 180.987C459.199 181.562 459.867 181.849 460.676 181.849C461.25 181.849 461.736 181.731 462.135 181.497C462.533 181.263 462.882 180.952 463.181 180.565L464.174 181.339C463.377 182.563 462.182 183.176 460.588 183.176ZM460.386 174.65C459.729 174.65 459.179 174.891 458.733 175.371C458.288 175.846 458.013 176.514 457.907 177.375H462.671V177.252C462.624 176.426 462.401 175.787 462.003 175.336C461.604 174.879 461.065 174.65 460.386 174.65ZM467.716 173.49L467.76 174.545C468.457 173.725 469.397 173.314 470.581 173.314C471.911 173.314 472.816 173.824 473.297 174.844C473.613 174.387 474.023 174.018 474.527 173.736C475.037 173.455 475.638 173.314 476.329 173.314C478.415 173.314 479.476 174.419 479.511 176.628V183H477.885V176.725C477.885 176.045 477.729 175.538 477.419 175.204C477.108 174.864 476.587 174.694 475.854 174.694C475.251 174.694 474.75 174.876 474.352 175.239C473.953 175.597 473.722 176.08 473.657 176.689V183H472.022V176.769C472.022 175.386 471.346 174.694 469.992 174.694C468.926 174.694 468.196 175.148 467.804 176.057V183H466.178V173.49H467.716ZM490.005 178.351C490.005 179.798 489.674 180.964 489.012 181.849C488.35 182.733 487.453 183.176 486.322 183.176C485.168 183.176 484.26 182.81 483.598 182.077V186.656H481.972V173.49H483.457L483.536 174.545C484.198 173.725 485.118 173.314 486.296 173.314C487.438 173.314 488.341 173.745 489.003 174.606C489.671 175.468 490.005 176.666 490.005 178.201V178.351ZM488.379 178.166C488.379 177.094 488.15 176.247 487.693 175.626C487.236 175.005 486.609 174.694 485.812 174.694C484.828 174.694 484.09 175.131 483.598 176.004V180.548C484.084 181.415 484.828 181.849 485.83 181.849C486.609 181.849 487.228 181.541 487.685 180.926C488.147 180.305 488.379 179.385 488.379 178.166ZM493.846 183H492.22V169.5H493.846V183ZM502.327 183C502.233 182.812 502.157 182.479 502.099 181.998C501.343 182.783 500.44 183.176 499.392 183.176C498.454 183.176 497.684 182.912 497.08 182.385C496.482 181.852 496.184 181.178 496.184 180.363C496.184 179.373 496.559 178.605 497.309 178.061C498.064 177.51 499.125 177.234 500.49 177.234H502.072V176.487C502.072 175.919 501.902 175.468 501.562 175.134C501.223 174.794 500.722 174.624 500.06 174.624C499.479 174.624 498.993 174.771 498.601 175.063C498.208 175.356 498.012 175.711 498.012 176.127H496.377C496.377 175.652 496.544 175.195 496.878 174.756C497.218 174.311 497.675 173.959 498.249 173.701C498.829 173.443 499.465 173.314 500.156 173.314C501.252 173.314 502.11 173.59 502.731 174.141C503.353 174.686 503.675 175.438 503.698 176.399V180.776C503.698 181.649 503.81 182.344 504.032 182.859V183H502.327ZM499.629 181.761C500.139 181.761 500.622 181.629 501.079 181.365C501.536 181.102 501.867 180.759 502.072 180.337V178.386H500.798C498.806 178.386 497.81 178.969 497.81 180.135C497.81 180.645 497.979 181.043 498.319 181.33C498.659 181.617 499.096 181.761 499.629 181.761ZM508.453 171.188V173.49H510.229V174.747H508.453V180.645C508.453 181.025 508.532 181.312 508.69 181.506C508.849 181.693 509.118 181.787 509.499 181.787C509.687 181.787 509.944 181.752 510.272 181.682V183C509.845 183.117 509.429 183.176 509.024 183.176C508.298 183.176 507.75 182.956 507.381 182.517C507.012 182.077 506.827 181.453 506.827 180.645V174.747H505.096V173.49H506.827V171.188H508.453ZM516.082 183.176C514.793 183.176 513.744 182.754 512.936 181.91C512.127 181.061 511.723 179.927 511.723 178.509V178.21C511.723 177.267 511.901 176.426 512.259 175.688C512.622 174.943 513.126 174.363 513.771 173.947C514.421 173.525 515.124 173.314 515.88 173.314C517.116 173.314 518.077 173.722 518.763 174.536C519.448 175.351 519.791 176.517 519.791 178.034V178.711H513.349C513.372 179.648 513.645 180.407 514.166 180.987C514.693 181.562 515.361 181.849 516.17 181.849C516.744 181.849 517.23 181.731 517.629 181.497C518.027 181.263 518.376 180.952 518.675 180.565L519.668 181.339C518.871 182.563 517.676 183.176 516.082 183.176ZM515.88 174.65C515.224 174.65 514.673 174.891 514.228 175.371C513.782 175.846 513.507 176.514 513.401 177.375H518.165V177.252C518.118 176.426 517.896 175.787 517.497 175.336C517.099 174.879 516.56 174.65 515.88 174.65Z" fill="black"/>
<path d="M230.253 99.7588L233.909 89.2031H235.755L231.009 102H229.515L224.777 89.2031H226.614L230.253 99.7588ZM238.989 102H237.363V92.4902H238.989V102ZM237.231 89.9678C237.231 89.7041 237.311 89.4814 237.469 89.2998C237.633 89.1182 237.873 89.0273 238.189 89.0273C238.506 89.0273 238.746 89.1182 238.91 89.2998C239.074 89.4814 239.156 89.7041 239.156 89.9678C239.156 90.2314 239.074 90.4512 238.91 90.627C238.746 90.8027 238.506 90.8906 238.189 90.8906C237.873 90.8906 237.633 90.8027 237.469 90.627C237.311 90.4512 237.231 90.2314 237.231 89.9678ZM245.546 102.176C244.257 102.176 243.208 101.754 242.399 100.91C241.591 100.061 241.187 98.9268 241.187 97.5088V97.21C241.187 96.2666 241.365 95.4258 241.723 94.6875C242.086 93.9434 242.59 93.3633 243.234 92.9473C243.885 92.5254 244.588 92.3145 245.344 92.3145C246.58 92.3145 247.541 92.7217 248.227 93.5361C248.912 94.3506 249.255 95.5166 249.255 97.0342V97.7109H242.812C242.836 98.6484 243.108 99.4072 243.63 99.9873C244.157 100.562 244.825 100.849 245.634 100.849C246.208 100.849 246.694 100.731 247.093 100.497C247.491 100.263 247.84 99.9521 248.139 99.5654L249.132 100.339C248.335 101.563 247.14 102.176 245.546 102.176ZM245.344 93.6504C244.688 93.6504 244.137 93.8906 243.691 94.3711C243.246 94.8457 242.971 95.5137 242.865 96.375H247.629V96.252C247.582 95.4258 247.359 94.7871 246.961 94.3359C246.562 93.8789 246.023 93.6504 245.344 93.6504ZM259.564 99.7588L261.393 92.4902H263.019L260.25 102H258.932L256.62 94.793L254.37 102H253.052L250.292 92.4902H251.909L253.781 99.6094L255.996 92.4902H257.306L259.564 99.7588ZM278.812 97.9395C278.654 99.293 278.153 100.339 277.31 101.077C276.472 101.81 275.355 102.176 273.961 102.176C272.449 102.176 271.236 101.634 270.322 100.55C269.414 99.4658 268.96 98.0156 268.96 96.1992V94.9688C268.96 93.7793 269.171 92.7334 269.593 91.8311C270.021 90.9287 270.624 90.2373 271.403 89.7568C272.183 89.2705 273.085 89.0273 274.11 89.0273C275.47 89.0273 276.56 89.4082 277.38 90.1699C278.2 90.9258 278.678 91.9746 278.812 93.3164H277.116C276.97 92.2969 276.65 91.5586 276.158 91.1016C275.672 90.6445 274.989 90.416 274.11 90.416C273.032 90.416 272.186 90.8145 271.57 91.6113C270.961 92.4082 270.656 93.542 270.656 95.0127V96.252C270.656 97.6406 270.946 98.7451 271.526 99.5654C272.106 100.386 272.918 100.796 273.961 100.796C274.898 100.796 275.616 100.585 276.114 100.163C276.618 99.7354 276.952 98.9941 277.116 97.9395H278.812ZM280.438 97.1572C280.438 96.2256 280.62 95.3877 280.983 94.6436C281.353 93.8994 281.862 93.3252 282.513 92.9209C283.169 92.5166 283.916 92.3145 284.754 92.3145C286.049 92.3145 287.095 92.7627 287.892 93.6592C288.694 94.5557 289.096 95.748 289.096 97.2363V97.3506C289.096 98.2764 288.917 99.1084 288.56 99.8467C288.208 100.579 287.701 101.15 287.039 101.561C286.383 101.971 285.627 102.176 284.771 102.176C283.482 102.176 282.437 101.728 281.634 100.831C280.837 99.9346 280.438 98.748 280.438 97.2715V97.1572ZM282.073 97.3506C282.073 98.4053 282.316 99.252 282.803 99.8906C283.295 100.529 283.951 100.849 284.771 100.849C285.598 100.849 286.254 100.526 286.74 99.8818C287.227 99.2314 287.47 98.3232 287.47 97.1572C287.47 96.1143 287.221 95.2705 286.723 94.626C286.23 93.9756 285.574 93.6504 284.754 93.6504C283.951 93.6504 283.304 93.9697 282.812 94.6084C282.319 95.2471 282.073 96.1611 282.073 97.3506ZM292.673 92.4902L292.726 93.6855C293.452 92.7715 294.401 92.3145 295.573 92.3145C297.583 92.3145 298.597 93.4482 298.614 95.7158V102H296.988V95.707C296.982 95.0215 296.824 94.5146 296.514 94.1865C296.209 93.8584 295.731 93.6943 295.081 93.6943C294.554 93.6943 294.091 93.835 293.692 94.1162C293.294 94.3975 292.983 94.7666 292.761 95.2236V102H291.135V92.4902H292.673ZM303.272 90.1875V92.4902H305.048V93.7471H303.272V99.6445C303.272 100.025 303.352 100.312 303.51 100.506C303.668 100.693 303.938 100.787 304.318 100.787C304.506 100.787 304.764 100.752 305.092 100.682V102C304.664 102.117 304.248 102.176 303.844 102.176C303.117 102.176 302.569 101.956 302.2 101.517C301.831 101.077 301.646 100.453 301.646 99.6445V93.7471H299.915V92.4902H301.646V90.1875H303.272ZM312.826 102C312.732 101.812 312.656 101.479 312.598 100.998C311.842 101.783 310.939 102.176 309.891 102.176C308.953 102.176 308.183 101.912 307.579 101.385C306.981 100.852 306.683 100.178 306.683 99.3633C306.683 98.373 307.058 97.6055 307.808 97.0605C308.563 96.5098 309.624 96.2344 310.989 96.2344H312.571V95.4873C312.571 94.9189 312.401 94.4678 312.062 94.1338C311.722 93.7939 311.221 93.624 310.559 93.624C309.979 93.624 309.492 93.7705 309.1 94.0635C308.707 94.3564 308.511 94.7109 308.511 95.127H306.876C306.876 94.6523 307.043 94.1953 307.377 93.7559C307.717 93.3105 308.174 92.959 308.748 92.7012C309.328 92.4434 309.964 92.3145 310.655 92.3145C311.751 92.3145 312.609 92.5898 313.23 93.1406C313.852 93.6855 314.174 94.4385 314.197 95.3994V99.7764C314.197 100.649 314.309 101.344 314.531 101.859V102H312.826ZM310.128 100.761C310.638 100.761 311.121 100.629 311.578 100.365C312.035 100.102 312.366 99.7588 312.571 99.3369V97.3857H311.297C309.305 97.3857 308.309 97.9688 308.309 99.1348C308.309 99.6445 308.479 100.043 308.818 100.33C309.158 100.617 309.595 100.761 310.128 100.761ZM318.513 102H316.887V92.4902H318.513V102ZM316.755 89.9678C316.755 89.7041 316.834 89.4814 316.992 89.2998C317.156 89.1182 317.396 89.0273 317.713 89.0273C318.029 89.0273 318.27 89.1182 318.434 89.2998C318.598 89.4814 318.68 89.7041 318.68 89.9678C318.68 90.2314 318.598 90.4512 318.434 90.627C318.27 90.8027 318.029 90.8906 317.713 90.8906C317.396 90.8906 317.156 90.8027 316.992 90.627C316.834 90.4512 316.755 90.2314 316.755 89.9678ZM322.661 92.4902L322.714 93.6855C323.44 92.7715 324.39 92.3145 325.562 92.3145C327.571 92.3145 328.585 93.4482 328.603 95.7158V102H326.977V95.707C326.971 95.0215 326.812 94.5146 326.502 94.1865C326.197 93.8584 325.72 93.6943 325.069 93.6943C324.542 93.6943 324.079 93.835 323.681 94.1162C323.282 94.3975 322.972 94.7666 322.749 95.2236V102H321.123V92.4902H322.661ZM335.001 102.176C333.712 102.176 332.663 101.754 331.854 100.91C331.046 100.061 330.642 98.9268 330.642 97.5088V97.21C330.642 96.2666 330.82 95.4258 331.178 94.6875C331.541 93.9434 332.045 93.3633 332.689 92.9473C333.34 92.5254 334.043 92.3145 334.799 92.3145C336.035 92.3145 336.996 92.7217 337.682 93.5361C338.367 94.3506 338.71 95.5166 338.71 97.0342V97.7109H332.268C332.291 98.6484 332.563 99.4072 333.085 99.9873C333.612 100.562 334.28 100.849 335.089 100.849C335.663 100.849 336.149 100.731 336.548 100.497C336.946 100.263 337.295 99.9521 337.594 99.5654L338.587 100.339C337.79 101.563 336.595 102.176 335.001 102.176ZM334.799 93.6504C334.143 93.6504 333.592 93.8906 333.146 94.3711C332.701 94.8457 332.426 95.5137 332.32 96.375H337.084V96.252C337.037 95.4258 336.814 94.7871 336.416 94.3359C336.018 93.8789 335.479 93.6504 334.799 93.6504ZM345.196 93.9492C344.95 93.9082 344.684 93.8877 344.396 93.8877C343.33 93.8877 342.606 94.3418 342.226 95.25V102H340.6V92.4902H342.182L342.208 93.5889C342.741 92.7393 343.497 92.3145 344.476 92.3145C344.792 92.3145 345.032 92.3555 345.196 92.4375V93.9492Z" fill="black"/>
<path d="M428.253 264.759L431.909 254.203H433.755L429.009 267H427.515L422.777 254.203H424.614L428.253 264.759ZM436.989 267H435.363V257.49H436.989V267ZM435.231 254.968C435.231 254.704 435.311 254.481 435.469 254.3C435.633 254.118 435.873 254.027 436.189 254.027C436.506 254.027 436.746 254.118 436.91 254.3C437.074 254.481 437.156 254.704 437.156 254.968C437.156 255.231 437.074 255.451 436.91 255.627C436.746 255.803 436.506 255.891 436.189 255.891C435.873 255.891 435.633 255.803 435.469 255.627C435.311 255.451 435.231 255.231 435.231 254.968ZM443.546 267.176C442.257 267.176 441.208 266.754 440.399 265.91C439.591 265.061 439.187 263.927 439.187 262.509V262.21C439.187 261.267 439.365 260.426 439.723 259.688C440.086 258.943 440.59 258.363 441.234 257.947C441.885 257.525 442.588 257.314 443.344 257.314C444.58 257.314 445.541 257.722 446.227 258.536C446.912 259.351 447.255 260.517 447.255 262.034V262.711H440.812C440.836 263.648 441.108 264.407 441.63 264.987C442.157 265.562 442.825 265.849 443.634 265.849C444.208 265.849 444.694 265.731 445.093 265.497C445.491 265.263 445.84 264.952 446.139 264.565L447.132 265.339C446.335 266.563 445.14 267.176 443.546 267.176ZM443.344 258.65C442.688 258.65 442.137 258.891 441.691 259.371C441.246 259.846 440.971 260.514 440.865 261.375H445.629V261.252C445.582 260.426 445.359 259.787 444.961 259.336C444.562 258.879 444.023 258.65 443.344 258.65ZM457.564 264.759L459.393 257.49H461.019L458.25 267H456.932L454.62 259.793L452.37 267H451.052L448.292 257.49H449.909L451.781 264.609L453.996 257.49H455.306L457.564 264.759ZM476.812 262.939C476.654 264.293 476.153 265.339 475.31 266.077C474.472 266.81 473.355 267.176 471.961 267.176C470.449 267.176 469.236 266.634 468.322 265.55C467.414 264.466 466.96 263.016 466.96 261.199V259.969C466.96 258.779 467.171 257.733 467.593 256.831C468.021 255.929 468.624 255.237 469.403 254.757C470.183 254.271 471.085 254.027 472.11 254.027C473.47 254.027 474.56 254.408 475.38 255.17C476.2 255.926 476.678 256.975 476.812 258.316H475.116C474.97 257.297 474.65 256.559 474.158 256.102C473.672 255.645 472.989 255.416 472.11 255.416C471.032 255.416 470.186 255.814 469.57 256.611C468.961 257.408 468.656 258.542 468.656 260.013V261.252C468.656 262.641 468.946 263.745 469.526 264.565C470.106 265.386 470.918 265.796 471.961 265.796C472.898 265.796 473.616 265.585 474.114 265.163C474.618 264.735 474.952 263.994 475.116 262.939H476.812ZM478.438 262.157C478.438 261.226 478.62 260.388 478.983 259.644C479.353 258.899 479.862 258.325 480.513 257.921C481.169 257.517 481.916 257.314 482.754 257.314C484.049 257.314 485.095 257.763 485.892 258.659C486.694 259.556 487.096 260.748 487.096 262.236V262.351C487.096 263.276 486.917 264.108 486.56 264.847C486.208 265.579 485.701 266.15 485.039 266.561C484.383 266.971 483.627 267.176 482.771 267.176C481.482 267.176 480.437 266.728 479.634 265.831C478.837 264.935 478.438 263.748 478.438 262.271V262.157ZM480.073 262.351C480.073 263.405 480.316 264.252 480.803 264.891C481.295 265.529 481.951 265.849 482.771 265.849C483.598 265.849 484.254 265.526 484.74 264.882C485.227 264.231 485.47 263.323 485.47 262.157C485.47 261.114 485.221 260.271 484.723 259.626C484.23 258.976 483.574 258.65 482.754 258.65C481.951 258.65 481.304 258.97 480.812 259.608C480.319 260.247 480.073 261.161 480.073 262.351ZM490.673 257.49L490.726 258.686C491.452 257.771 492.401 257.314 493.573 257.314C495.583 257.314 496.597 258.448 496.614 260.716V267H494.988V260.707C494.982 260.021 494.824 259.515 494.514 259.187C494.209 258.858 493.731 258.694 493.081 258.694C492.554 258.694 492.091 258.835 491.692 259.116C491.294 259.397 490.983 259.767 490.761 260.224V267H489.135V257.49H490.673ZM501.272 255.188V257.49H503.048V258.747H501.272V264.645C501.272 265.025 501.352 265.312 501.51 265.506C501.668 265.693 501.938 265.787 502.318 265.787C502.506 265.787 502.764 265.752 503.092 265.682V267C502.664 267.117 502.248 267.176 501.844 267.176C501.117 267.176 500.569 266.956 500.2 266.517C499.831 266.077 499.646 265.453 499.646 264.645V258.747H497.915V257.49H499.646V255.188H501.272ZM510.826 267C510.732 266.812 510.656 266.479 510.598 265.998C509.842 266.783 508.939 267.176 507.891 267.176C506.953 267.176 506.183 266.912 505.579 266.385C504.981 265.852 504.683 265.178 504.683 264.363C504.683 263.373 505.058 262.605 505.808 262.061C506.563 261.51 507.624 261.234 508.989 261.234H510.571V260.487C510.571 259.919 510.401 259.468 510.062 259.134C509.722 258.794 509.221 258.624 508.559 258.624C507.979 258.624 507.492 258.771 507.1 259.063C506.707 259.356 506.511 259.711 506.511 260.127H504.876C504.876 259.652 505.043 259.195 505.377 258.756C505.717 258.311 506.174 257.959 506.748 257.701C507.328 257.443 507.964 257.314 508.655 257.314C509.751 257.314 510.609 257.59 511.23 258.141C511.852 258.686 512.174 259.438 512.197 260.399V264.776C512.197 265.649 512.309 266.344 512.531 266.859V267H510.826ZM508.128 265.761C508.638 265.761 509.121 265.629 509.578 265.365C510.035 265.102 510.366 264.759 510.571 264.337V262.386H509.297C507.305 262.386 506.309 262.969 506.309 264.135C506.309 264.645 506.479 265.043 506.818 265.33C507.158 265.617 507.595 265.761 508.128 265.761ZM516.513 267H514.887V257.49H516.513V267ZM514.755 254.968C514.755 254.704 514.834 254.481 514.992 254.3C515.156 254.118 515.396 254.027 515.713 254.027C516.029 254.027 516.27 254.118 516.434 254.3C516.598 254.481 516.68 254.704 516.68 254.968C516.68 255.231 516.598 255.451 516.434 255.627C516.27 255.803 516.029 255.891 515.713 255.891C515.396 255.891 515.156 255.803 514.992 255.627C514.834 255.451 514.755 255.231 514.755 254.968ZM520.661 257.49L520.714 258.686C521.44 257.771 522.39 257.314 523.562 257.314C525.571 257.314 526.585 258.448 526.603 260.716V267H524.977V260.707C524.971 260.021 524.812 259.515 524.502 259.187C524.197 258.858 523.72 258.694 523.069 258.694C522.542 258.694 522.079 258.835 521.681 259.116C521.282 259.397 520.972 259.767 520.749 260.224V267H519.123V257.49H520.661ZM533.001 267.176C531.712 267.176 530.663 266.754 529.854 265.91C529.046 265.061 528.642 263.927 528.642 262.509V262.21C528.642 261.267 528.82 260.426 529.178 259.688C529.541 258.943 530.045 258.363 530.689 257.947C531.34 257.525 532.043 257.314 532.799 257.314C534.035 257.314 534.996 257.722 535.682 258.536C536.367 259.351 536.71 260.517 536.71 262.034V262.711H530.268C530.291 263.648 530.563 264.407 531.085 264.987C531.612 265.562 532.28 265.849 533.089 265.849C533.663 265.849 534.149 265.731 534.548 265.497C534.946 265.263 535.295 264.952 535.594 264.565L536.587 265.339C535.79 266.563 534.595 267.176 533.001 267.176ZM532.799 258.65C532.143 258.65 531.592 258.891 531.146 259.371C530.701 259.846 530.426 260.514 530.32 261.375H535.084V261.252C535.037 260.426 534.814 259.787 534.416 259.336C534.018 258.879 533.479 258.65 532.799 258.65ZM543.196 258.949C542.95 258.908 542.684 258.888 542.396 258.888C541.33 258.888 540.606 259.342 540.226 260.25V267H538.6V257.49H540.182L540.208 258.589C540.741 257.739 541.497 257.314 542.476 257.314C542.792 257.314 543.032 257.355 543.196 257.438V258.949Z" fill="black"/>
<path d="M33.2529 264.759L36.9092 254.203H38.7549L34.0088 267H32.5146L27.7773 254.203H29.6143L33.2529 264.759ZM41.9893 267H40.3633V257.49H41.9893V267ZM40.2314 254.968C40.2314 254.704 40.3105 254.481 40.4688 254.3C40.6328 254.118 40.873 254.027 41.1895 254.027C41.5059 254.027 41.7461 254.118 41.9102 254.3C42.0742 254.481 42.1562 254.704 42.1562 254.968C42.1562 255.231 42.0742 255.451 41.9102 255.627C41.7461 255.803 41.5059 255.891 41.1895 255.891C40.873 255.891 40.6328 255.803 40.4688 255.627C40.3105 255.451 40.2314 255.231 40.2314 254.968ZM48.5459 267.176C47.2568 267.176 46.208 266.754 45.3994 265.91C44.5908 265.061 44.1865 263.927 44.1865 262.509V262.21C44.1865 261.267 44.3652 260.426 44.7227 259.688C45.0859 258.943 45.5898 258.363 46.2344 257.947C46.8848 257.525 47.5879 257.314 48.3438 257.314C49.5801 257.314 50.541 257.722 51.2266 258.536C51.9121 259.351 52.2549 260.517 52.2549 262.034V262.711H45.8125C45.8359 263.648 46.1084 264.407 46.6299 264.987C47.1572 265.562 47.8252 265.849 48.6338 265.849C49.208 265.849 49.6943 265.731 50.0928 265.497C50.4912 265.263 50.8398 264.952 51.1387 264.565L52.1318 265.339C51.335 266.563 50.1396 267.176 48.5459 267.176ZM48.3438 258.65C47.6875 258.65 47.1367 258.891 46.6914 259.371C46.2461 259.846 45.9707 260.514 45.8652 261.375H50.6289V261.252C50.582 260.426 50.3594 259.787 49.9609 259.336C49.5625 258.879 49.0234 258.65 48.3438 258.65ZM62.5645 264.759L64.3926 257.49H66.0186L63.25 267H61.9316L59.6201 259.793L57.3701 267H56.0518L53.292 257.49H54.9092L56.7812 264.609L58.9961 257.49H60.3057L62.5645 264.759ZM81.8125 262.939C81.6543 264.293 81.1533 265.339 80.3096 266.077C79.4717 266.81 78.3555 267.176 76.9609 267.176C75.4492 267.176 74.2363 266.634 73.3223 265.55C72.4141 264.466 71.96 263.016 71.96 261.199V259.969C71.96 258.779 72.1709 257.733 72.5928 256.831C73.0205 255.929 73.624 255.237 74.4033 254.757C75.1826 254.271 76.085 254.027 77.1104 254.027C78.4697 254.027 79.5596 254.408 80.3799 255.17C81.2002 255.926 81.6777 256.975 81.8125 258.316H80.1162C79.9697 257.297 79.6504 256.559 79.1582 256.102C78.6719 255.645 77.9893 255.416 77.1104 255.416C76.0322 255.416 75.1855 255.814 74.5703 256.611C73.9609 257.408 73.6562 258.542 73.6562 260.013V261.252C73.6562 262.641 73.9463 263.745 74.5264 264.565C75.1064 265.386 75.918 265.796 76.9609 265.796C77.8984 265.796 78.6162 265.585 79.1143 265.163C79.6182 264.735 79.9521 263.994 80.1162 262.939H81.8125ZM83.4385 262.157C83.4385 261.226 83.6201 260.388 83.9834 259.644C84.3525 258.899 84.8623 258.325 85.5127 257.921C86.1689 257.517 86.916 257.314 87.7539 257.314C89.0488 257.314 90.0947 257.763 90.8916 258.659C91.6943 259.556 92.0957 260.748 92.0957 262.236V262.351C92.0957 263.276 91.917 264.108 91.5596 264.847C91.208 265.579 90.7012 266.15 90.0391 266.561C89.3828 266.971 88.627 267.176 87.7715 267.176C86.4824 267.176 85.4365 266.728 84.6338 265.831C83.8369 264.935 83.4385 263.748 83.4385 262.271V262.157ZM85.0732 262.351C85.0732 263.405 85.3164 264.252 85.8027 264.891C86.2949 265.529 86.9512 265.849 87.7715 265.849C88.5977 265.849 89.2539 265.526 89.7402 264.882C90.2266 264.231 90.4697 263.323 90.4697 262.157C90.4697 261.114 90.2207 260.271 89.7227 259.626C89.2305 258.976 88.5742 258.65 87.7539 258.65C86.9512 258.65 86.3037 258.97 85.8115 259.608C85.3193 260.247 85.0732 261.161 85.0732 262.351ZM95.6729 257.49L95.7256 258.686C96.4521 257.771 97.4014 257.314 98.5732 257.314C100.583 257.314 101.597 258.448 101.614 260.716V267H99.9883V260.707C99.9824 260.021 99.8242 259.515 99.5137 259.187C99.209 258.858 98.7314 258.694 98.0811 258.694C97.5537 258.694 97.0908 258.835 96.6924 259.116C96.2939 259.397 95.9834 259.767 95.7607 260.224V267H94.1348V257.49H95.6729ZM106.272 255.188V257.49H108.048V258.747H106.272V264.645C106.272 265.025 106.352 265.312 106.51 265.506C106.668 265.693 106.938 265.787 107.318 265.787C107.506 265.787 107.764 265.752 108.092 265.682V267C107.664 267.117 107.248 267.176 106.844 267.176C106.117 267.176 105.569 266.956 105.2 266.517C104.831 266.077 104.646 265.453 104.646 264.645V258.747H102.915V257.49H104.646V255.188H106.272ZM115.826 267C115.732 266.812 115.656 266.479 115.598 265.998C114.842 266.783 113.939 267.176 112.891 267.176C111.953 267.176 111.183 266.912 110.579 266.385C109.981 265.852 109.683 265.178 109.683 264.363C109.683 263.373 110.058 262.605 110.808 262.061C111.563 261.51 112.624 261.234 113.989 261.234H115.571V260.487C115.571 259.919 115.401 259.468 115.062 259.134C114.722 258.794 114.221 258.624 113.559 258.624C112.979 258.624 112.492 258.771 112.1 259.063C111.707 259.356 111.511 259.711 111.511 260.127H109.876C109.876 259.652 110.043 259.195 110.377 258.756C110.717 258.311 111.174 257.959 111.748 257.701C112.328 257.443 112.964 257.314 113.655 257.314C114.751 257.314 115.609 257.59 116.23 258.141C116.852 258.686 117.174 259.438 117.197 260.399V264.776C117.197 265.649 117.309 266.344 117.531 266.859V267H115.826ZM113.128 265.761C113.638 265.761 114.121 265.629 114.578 265.365C115.035 265.102 115.366 264.759 115.571 264.337V262.386H114.297C112.305 262.386 111.309 262.969 111.309 264.135C111.309 264.645 111.479 265.043 111.818 265.33C112.158 265.617 112.595 265.761 113.128 265.761ZM121.513 267H119.887V257.49H121.513V267ZM119.755 254.968C119.755 254.704 119.834 254.481 119.992 254.3C120.156 254.118 120.396 254.027 120.713 254.027C121.029 254.027 121.27 254.118 121.434 254.3C121.598 254.481 121.68 254.704 121.68 254.968C121.68 255.231 121.598 255.451 121.434 255.627C121.27 255.803 121.029 255.891 120.713 255.891C120.396 255.891 120.156 255.803 119.992 255.627C119.834 255.451 119.755 255.231 119.755 254.968ZM125.661 257.49L125.714 258.686C126.44 257.771 127.39 257.314 128.562 257.314C130.571 257.314 131.585 258.448 131.603 260.716V267H129.977V260.707C129.971 260.021 129.812 259.515 129.502 259.187C129.197 258.858 128.72 258.694 128.069 258.694C127.542 258.694 127.079 258.835 126.681 259.116C126.282 259.397 125.972 259.767 125.749 260.224V267H124.123V257.49H125.661ZM138.001 267.176C136.712 267.176 135.663 266.754 134.854 265.91C134.046 265.061 133.642 263.927 133.642 262.509V262.21C133.642 261.267 133.82 260.426 134.178 259.688C134.541 258.943 135.045 258.363 135.689 257.947C136.34 257.525 137.043 257.314 137.799 257.314C139.035 257.314 139.996 257.722 140.682 258.536C141.367 259.351 141.71 260.517 141.71 262.034V262.711H135.268C135.291 263.648 135.563 264.407 136.085 264.987C136.612 265.562 137.28 265.849 138.089 265.849C138.663 265.849 139.149 265.731 139.548 265.497C139.946 265.263 140.295 264.952 140.594 264.565L141.587 265.339C140.79 266.563 139.595 267.176 138.001 267.176ZM137.799 258.65C137.143 258.65 136.592 258.891 136.146 259.371C135.701 259.846 135.426 260.514 135.32 261.375H140.084V261.252C140.037 260.426 139.814 259.787 139.416 259.336C139.018 258.879 138.479 258.65 137.799 258.65ZM148.196 258.949C147.95 258.908 147.684 258.888 147.396 258.888C146.33 258.888 145.606 259.342 145.226 260.25V267H143.6V257.49H145.182L145.208 258.589C145.741 257.739 146.497 257.314 147.476 257.314C147.792 257.314 148.032 257.355 148.196 257.438V258.949Z" fill="black"/>
</svg>
