<svg width="523" height="199" viewBox="0 0 523 199" fill="none" xmlns="http://www.w3.org/2000/svg">
<path fill-rule="evenodd" clip-rule="evenodd" d="M179 25.5C179 11.969 190.207 1 204.032 1H327.968C334.607 1 340.974 3.58124 345.668 8.17588C350.363 12.7705 353 19.0022 353 25.5C353 39.031 341.793 50 327.968 50H204.032C190.207 50 179 39.031 179 25.5Z" fill="#D9D2E9" stroke="#382074" stroke-miterlimit="8" stroke-linejoin="round"/>
<path d="M238.877 21.5918H234.764V33H233.085V21.5918H228.98V20.2031H238.877V21.5918ZM243.588 33.1758C242.299 33.1758 241.25 32.7539 240.441 31.9102C239.633 31.0605 239.229 29.9268 239.229 28.5088V28.21C239.229 27.2666 239.407 26.4258 239.765 25.6875C240.128 24.9434 240.632 24.3633 241.276 23.9473C241.927 23.5254 242.63 23.3145 243.386 23.3145C244.622 23.3145 245.583 23.7217 246.269 24.5361C246.954 25.3506 247.297 26.5166 247.297 28.0342V28.7109H240.854C240.878 29.6484 241.15 30.4072 241.672 30.9873C242.199 31.5615 242.867 31.8486 243.676 31.8486C244.25 31.8486 244.736 31.7314 245.135 31.4971C245.533 31.2627 245.882 30.9521 246.181 30.5654L247.174 31.3389C246.377 32.5635 245.182 33.1758 243.588 33.1758ZM243.386 24.6504C242.729 24.6504 242.179 24.8906 241.733 25.3711C241.288 25.8457 241.013 26.5137 240.907 27.375H245.671V27.252C245.624 26.4258 245.401 25.7871 245.003 25.3359C244.604 24.8789 244.065 24.6504 243.386 24.6504ZM250.716 23.4902L250.76 24.5449C251.457 23.7246 252.397 23.3145 253.581 23.3145C254.911 23.3145 255.816 23.8242 256.297 24.8438C256.613 24.3867 257.023 24.0176 257.527 23.7363C258.037 23.4551 258.638 23.3145 259.329 23.3145C261.415 23.3145 262.476 24.4189 262.511 26.6279V33H260.885V26.7246C260.885 26.0449 260.729 25.5381 260.419 25.2041C260.108 24.8643 259.587 24.6943 258.854 24.6943C258.251 24.6943 257.75 24.876 257.352 25.2393C256.953 25.5967 256.722 26.0801 256.657 26.6895V33H255.022V26.7686C255.022 25.3857 254.346 24.6943 252.992 24.6943C251.926 24.6943 251.196 25.1484 250.804 26.0566V33H249.178V23.4902H250.716ZM273.005 28.3506C273.005 29.7979 272.674 30.9639 272.012 31.8486C271.35 32.7334 270.453 33.1758 269.322 33.1758C268.168 33.1758 267.26 32.8096 266.598 32.0771V36.6562H264.972V23.4902H266.457L266.536 24.5449C267.198 23.7246 268.118 23.3145 269.296 23.3145C270.438 23.3145 271.341 23.7451 272.003 24.6064C272.671 25.4678 273.005 26.666 273.005 28.2012V28.3506ZM271.379 28.166C271.379 27.0938 271.15 26.2471 270.693 25.626C270.236 25.0049 269.609 24.6943 268.812 24.6943C267.828 24.6943 267.09 25.1309 266.598 26.0039V30.5479C267.084 31.415 267.828 31.8486 268.83 31.8486C269.609 31.8486 270.228 31.541 270.685 30.9258C271.147 30.3047 271.379 29.3848 271.379 28.166ZM276.846 33H275.22V19.5H276.846V33ZM285.327 33C285.233 32.8125 285.157 32.4785 285.099 31.998C284.343 32.7832 283.44 33.1758 282.392 33.1758C281.454 33.1758 280.684 32.9121 280.08 32.3848C279.482 31.8516 279.184 31.1777 279.184 30.3633C279.184 29.373 279.559 28.6055 280.309 28.0605C281.064 27.5098 282.125 27.2344 283.49 27.2344H285.072V26.4873C285.072 25.9189 284.902 25.4678 284.562 25.1338C284.223 24.7939 283.722 24.624 283.06 24.624C282.479 24.624 281.993 24.7705 281.601 25.0635C281.208 25.3564 281.012 25.7109 281.012 26.127H279.377C279.377 25.6523 279.544 25.1953 279.878 24.7559C280.218 24.3105 280.675 23.959 281.249 23.7012C281.829 23.4434 282.465 23.3145 283.156 23.3145C284.252 23.3145 285.11 23.5898 285.731 24.1406C286.353 24.6855 286.675 25.4385 286.698 26.3994V30.7764C286.698 31.6494 286.81 32.3438 287.032 32.8594V33H285.327ZM282.629 31.7607C283.139 31.7607 283.622 31.6289 284.079 31.3652C284.536 31.1016 284.867 30.7588 285.072 30.3369V28.3857H283.798C281.806 28.3857 280.81 28.9688 280.81 30.1348C280.81 30.6445 280.979 31.043 281.319 31.3301C281.659 31.6172 282.096 31.7607 282.629 31.7607ZM291.453 21.1875V23.4902H293.229V24.7471H291.453V30.6445C291.453 31.0254 291.532 31.3125 291.69 31.5059C291.849 31.6934 292.118 31.7871 292.499 31.7871C292.687 31.7871 292.944 31.752 293.272 31.6816V33C292.845 33.1172 292.429 33.1758 292.024 33.1758C291.298 33.1758 290.75 32.9561 290.381 32.5166C290.012 32.0771 289.827 31.4531 289.827 30.6445V24.7471H288.096V23.4902H289.827V21.1875H291.453ZM299.082 33.1758C297.793 33.1758 296.744 32.7539 295.936 31.9102C295.127 31.0605 294.723 29.9268 294.723 28.5088V28.21C294.723 27.2666 294.901 26.4258 295.259 25.6875C295.622 24.9434 296.126 24.3633 296.771 23.9473C297.421 23.5254 298.124 23.3145 298.88 23.3145C300.116 23.3145 301.077 23.7217 301.763 24.5361C302.448 25.3506 302.791 26.5166 302.791 28.0342V28.7109H296.349C296.372 29.6484 296.645 30.4072 297.166 30.9873C297.693 31.5615 298.361 31.8486 299.17 31.8486C299.744 31.8486 300.23 31.7314 300.629 31.4971C301.027 31.2627 301.376 30.9521 301.675 30.5654L302.668 31.3389C301.871 32.5635 300.676 33.1758 299.082 33.1758ZM298.88 24.6504C298.224 24.6504 297.673 24.8906 297.228 25.3711C296.782 25.8457 296.507 26.5137 296.401 27.375H301.165V27.252C301.118 26.4258 300.896 25.7871 300.497 25.3359C300.099 24.8789 299.56 24.6504 298.88 24.6504Z" fill="black"/>
<path fill-rule="evenodd" clip-rule="evenodd" d="M1 175.5C1 163.074 11.0815 153 23.5177 153H135.008C140.98 153 146.707 155.371 150.93 159.59C155.153 163.81 157.526 169.533 157.526 175.5C157.526 187.926 147.444 198 135.008 198H23.5177C11.0815 198 1 187.926 1 175.5Z" fill="#FCE5CD" stroke="#783F04" stroke-miterlimit="8" stroke-linejoin="round"/>
<path d="M55.5674 176.085H50.0215V180.62H56.4639V182H48.334V169.203H56.376V170.592H50.0215V174.705H55.5674V176.085ZM60.0762 182H58.4502V168.5H60.0762V182ZM66.6328 182.176C65.3438 182.176 64.2949 181.754 63.4863 180.91C62.6777 180.061 62.2734 178.927 62.2734 177.509V177.21C62.2734 176.267 62.4521 175.426 62.8096 174.688C63.1729 173.943 63.6768 173.363 64.3213 172.947C64.9717 172.525 65.6748 172.314 66.4307 172.314C67.667 172.314 68.6279 172.722 69.3135 173.536C69.999 174.351 70.3418 175.517 70.3418 177.034V177.711H63.8994C63.9229 178.648 64.1953 179.407 64.7168 179.987C65.2441 180.562 65.9121 180.849 66.7207 180.849C67.2949 180.849 67.7812 180.731 68.1797 180.497C68.5781 180.263 68.9268 179.952 69.2256 179.565L70.2188 180.339C69.4219 181.563 68.2266 182.176 66.6328 182.176ZM66.4307 173.65C65.7744 173.65 65.2236 173.891 64.7783 174.371C64.333 174.846 64.0576 175.514 63.9521 176.375H68.7158V176.252C68.6689 175.426 68.4463 174.787 68.0479 174.336C67.6494 173.879 67.1104 173.65 66.4307 173.65ZM73.7607 172.49L73.8047 173.545C74.502 172.725 75.4424 172.314 76.626 172.314C77.9561 172.314 78.8613 172.824 79.3418 173.844C79.6582 173.387 80.0684 173.018 80.5723 172.736C81.082 172.455 81.6826 172.314 82.374 172.314C84.46 172.314 85.5205 173.419 85.5557 175.628V182H83.9297V175.725C83.9297 175.045 83.7744 174.538 83.4639 174.204C83.1533 173.864 82.6318 173.694 81.8994 173.694C81.2959 173.694 80.7949 173.876 80.3965 174.239C79.998 174.597 79.7666 175.08 79.7021 175.689V182H78.0674V175.769C78.0674 174.386 77.3906 173.694 76.0371 173.694C74.9707 173.694 74.2412 174.148 73.8486 175.057V182H72.2227V172.49H73.7607ZM91.9629 182.176C90.6738 182.176 89.625 181.754 88.8164 180.91C88.0078 180.061 87.6035 178.927 87.6035 177.509V177.21C87.6035 176.267 87.7822 175.426 88.1396 174.688C88.5029 173.943 89.0068 173.363 89.6514 172.947C90.3018 172.525 91.0049 172.314 91.7607 172.314C92.9971 172.314 93.958 172.722 94.6436 173.536C95.3291 174.351 95.6719 175.517 95.6719 177.034V177.711H89.2295C89.2529 178.648 89.5254 179.407 90.0469 179.987C90.5742 180.562 91.2422 180.849 92.0508 180.849C92.625 180.849 93.1113 180.731 93.5098 180.497C93.9082 180.263 94.2568 179.952 94.5557 179.565L95.5488 180.339C94.752 181.563 93.5566 182.176 91.9629 182.176ZM91.7607 173.65C91.1045 173.65 90.5537 173.891 90.1084 174.371C89.6631 174.846 89.3877 175.514 89.2822 176.375H94.0459V176.252C93.999 175.426 93.7764 174.787 93.3779 174.336C92.9795 173.879 92.4404 173.65 91.7607 173.65ZM99.0996 172.49L99.1523 173.686C99.8789 172.771 100.828 172.314 102 172.314C104.01 172.314 105.023 173.448 105.041 175.716V182H103.415V175.707C103.409 175.021 103.251 174.515 102.94 174.187C102.636 173.858 102.158 173.694 101.508 173.694C100.98 173.694 100.518 173.835 100.119 174.116C99.7207 174.397 99.4102 174.767 99.1875 175.224V182H97.5615V172.49H99.0996ZM109.699 170.188V172.49H111.475V173.747H109.699V179.645C109.699 180.025 109.778 180.312 109.937 180.506C110.095 180.693 110.364 180.787 110.745 180.787C110.933 180.787 111.19 180.752 111.519 180.682V182C111.091 182.117 110.675 182.176 110.271 182.176C109.544 182.176 108.996 181.956 108.627 181.517C108.258 181.077 108.073 180.453 108.073 179.645V173.747H106.342V172.49H108.073V170.188H109.699Z" fill="black"/>
<path fill-rule="evenodd" clip-rule="evenodd" d="M365.788 175.5C365.788 163.074 375.862 153 388.288 153H499.69C505.658 153 511.381 155.371 515.6 159.59C519.82 163.81 522.19 169.533 522.19 175.5C522.19 187.926 512.117 198 499.69 198H388.288C375.862 198 365.788 187.926 365.788 175.5Z" fill="#F4CCCC" stroke="#5B0F00" stroke-miterlimit="8" stroke-linejoin="round"/>
<path fill-rule="evenodd" clip-rule="evenodd" d="M186 175.5C186 163.074 196.074 153 208.5 153H319.902C325.87 153 331.593 155.371 335.812 159.59C340.032 163.81 342.402 169.533 342.402 175.5C342.402 187.926 332.329 198 319.902 198H208.5C196.074 198 186 187.926 186 175.5Z" fill="#D9D2E9" stroke="#351C75" stroke-miterlimit="8" stroke-linejoin="round"/>
<path d="M365.788 174.936H353.291" stroke="#666666" stroke-miterlimit="8" stroke-linejoin="round"/>
<path fill-rule="evenodd" clip-rule="evenodd" d="M353.291 171.64L344.238 174.936L353.291 178.231V171.64Z" fill="#666666" stroke="#666666" stroke-miterlimit="10"/>
<path d="M237.474 170.592H233.361V182H231.682V170.592H227.578V169.203H237.474V170.592ZM242.185 182.176C240.896 182.176 239.847 181.754 239.039 180.91C238.23 180.061 237.826 178.927 237.826 177.509V177.21C237.826 176.267 238.004 175.426 238.362 174.688C238.725 173.943 239.229 173.363 239.874 172.947C240.524 172.525 241.227 172.314 241.983 172.314C243.219 172.314 244.18 172.722 244.866 173.536C245.551 174.351 245.894 175.517 245.894 177.034V177.711H239.452C239.475 178.648 239.748 179.407 240.269 179.987C240.796 180.562 241.464 180.849 242.273 180.849C242.847 180.849 243.334 180.731 243.732 180.497C244.13 180.263 244.479 179.952 244.778 179.565L245.771 180.339C244.974 181.563 243.779 182.176 242.185 182.176ZM241.983 173.65C241.327 173.65 240.776 173.891 240.331 174.371C239.885 174.846 239.61 175.514 239.504 176.375H244.268V176.252C244.221 175.426 243.999 174.787 243.6 174.336C243.202 173.879 242.663 173.65 241.983 173.65ZM249.313 172.49L249.357 173.545C250.054 172.725 250.995 172.314 252.178 172.314C253.508 172.314 254.414 172.824 254.894 173.844C255.211 173.387 255.621 173.018 256.125 172.736C256.634 172.455 257.235 172.314 257.926 172.314C260.012 172.314 261.073 173.419 261.108 175.628V182H259.482V175.725C259.482 175.045 259.327 174.538 259.016 174.204C258.706 173.864 258.184 173.694 257.452 173.694C256.848 173.694 256.347 173.876 255.949 174.239C255.55 174.597 255.319 175.08 255.254 175.689V182H253.62V175.769C253.62 174.386 252.943 173.694 251.589 173.694C250.523 173.694 249.794 174.148 249.401 175.057V182H247.775V172.49H249.313ZM271.602 177.351C271.602 178.798 271.271 179.964 270.609 180.849C269.947 181.733 269.05 182.176 267.919 182.176C266.765 182.176 265.857 181.81 265.195 181.077V185.656H263.569V172.49H265.054L265.133 173.545C265.795 172.725 266.715 172.314 267.893 172.314C269.036 172.314 269.938 172.745 270.6 173.606C271.268 174.468 271.602 175.666 271.602 177.201V177.351ZM269.976 177.166C269.976 176.094 269.748 175.247 269.291 174.626C268.834 174.005 268.207 173.694 267.41 173.694C266.425 173.694 265.687 174.131 265.195 175.004V179.548C265.681 180.415 266.425 180.849 267.427 180.849C268.207 180.849 268.825 180.541 269.282 179.926C269.745 179.305 269.976 178.385 269.976 177.166ZM275.443 182H273.817V168.5H275.443V182ZM283.924 182C283.831 181.812 283.754 181.479 283.696 180.998C282.94 181.783 282.038 182.176 280.989 182.176C280.051 182.176 279.281 181.912 278.677 181.385C278.08 180.852 277.781 180.178 277.781 179.363C277.781 178.373 278.156 177.605 278.906 177.061C279.662 176.51 280.722 176.234 282.087 176.234H283.669V175.487C283.669 174.919 283.5 174.468 283.16 174.134C282.82 173.794 282.319 173.624 281.657 173.624C281.077 173.624 280.59 173.771 280.198 174.063C279.805 174.356 279.609 174.711 279.609 175.127H277.974C277.974 174.652 278.141 174.195 278.475 173.756C278.815 173.311 279.272 172.959 279.846 172.701C280.426 172.443 281.062 172.314 281.753 172.314C282.849 172.314 283.708 172.59 284.329 173.141C284.95 173.686 285.272 174.438 285.295 175.399V179.776C285.295 180.649 285.407 181.344 285.629 181.859V182H283.924ZM281.226 180.761C281.736 180.761 282.219 180.629 282.676 180.365C283.133 180.102 283.464 179.759 283.669 179.337V177.386H282.395C280.403 177.386 279.407 177.969 279.407 179.135C279.407 179.645 279.577 180.043 279.917 180.33C280.256 180.617 280.693 180.761 281.226 180.761ZM290.05 170.188V172.49H291.826V173.747H290.05V179.645C290.05 180.025 290.129 180.312 290.288 180.506C290.446 180.693 290.715 180.787 291.096 180.787C291.284 180.787 291.542 180.752 291.87 180.682V182C291.442 182.117 291.026 182.176 290.622 182.176C289.895 182.176 289.347 181.956 288.978 181.517C288.609 181.077 288.424 180.453 288.424 179.645V173.747H286.693V172.49H288.424V170.188H290.05ZM297.679 182.176C296.39 182.176 295.341 181.754 294.533 180.91C293.724 180.061 293.32 178.927 293.32 177.509V177.21C293.32 176.267 293.499 175.426 293.856 174.688C294.219 173.943 294.723 173.363 295.368 172.947C296.018 172.525 296.721 172.314 297.477 172.314C298.713 172.314 299.674 172.722 300.36 173.536C301.045 174.351 301.388 175.517 301.388 177.034V177.711H294.946C294.969 178.648 295.242 179.407 295.763 179.987C296.291 180.562 296.959 180.849 297.767 180.849C298.341 180.849 298.828 180.731 299.226 180.497C299.625 180.263 299.973 179.952 300.272 179.565L301.265 180.339C300.468 181.563 299.273 182.176 297.679 182.176ZM297.477 173.65C296.821 173.65 296.27 173.891 295.825 174.371C295.379 174.846 295.104 175.514 294.999 176.375H299.762V176.252C299.715 175.426 299.493 174.787 299.094 174.336C298.696 173.879 298.157 173.65 297.477 173.65Z" fill="black"/>
<path d="M429.86 179.759L433.516 169.203H435.362L430.616 182H429.122L424.384 169.203H426.221L429.86 179.759ZM438.596 182H436.97V172.49H438.596V182ZM436.838 169.968C436.838 169.704 436.918 169.481 437.076 169.3C437.24 169.118 437.48 169.027 437.796 169.027C438.113 169.027 438.353 169.118 438.517 169.3C438.681 169.481 438.763 169.704 438.763 169.968C438.763 170.231 438.681 170.451 438.517 170.627C438.353 170.803 438.113 170.891 437.796 170.891C437.48 170.891 437.24 170.803 437.076 170.627C436.918 170.451 436.838 170.231 436.838 169.968ZM445.153 182.176C443.864 182.176 442.815 181.754 442.006 180.91C441.198 180.061 440.794 178.927 440.794 177.509V177.21C440.794 176.267 440.972 175.426 441.33 174.688C441.693 173.943 442.197 173.363 442.841 172.947C443.492 172.525 444.195 172.314 444.951 172.314C446.187 172.314 447.148 172.722 447.834 173.536C448.519 174.351 448.862 175.517 448.862 177.034V177.711H442.419C442.443 178.648 442.715 179.407 443.237 179.987C443.764 180.562 444.432 180.849 445.241 180.849C445.815 180.849 446.301 180.731 446.7 180.497C447.098 180.263 447.447 179.952 447.746 179.565L448.739 180.339C447.942 181.563 446.747 182.176 445.153 182.176ZM444.951 173.65C444.294 173.65 443.744 173.891 443.298 174.371C442.853 174.846 442.578 175.514 442.472 176.375H447.236V176.252C447.189 175.426 446.966 174.787 446.568 174.336C446.169 173.879 445.63 173.65 444.951 173.65ZM459.171 179.759L461 172.49H462.626L459.857 182H458.539L456.227 174.793L453.977 182H452.659L449.899 172.49H451.516L453.388 179.609L455.603 172.49H456.913L459.171 179.759Z" fill="black"/>
<path d="M265 122L265 153" stroke="#666666"/>
<path d="M265 122V138H447V153" stroke="#666666"/>
<path d="M265 122V138H73V153" stroke="#666666"/>
<path fill-rule="evenodd" clip-rule="evenodd" d="M179 96.5707C179 82.7796 190.18 71.5998 203.971 71.5998H327.69C334.313 71.5998 340.664 74.2306 345.347 78.9136C350.03 83.5965 352.661 89.948 352.661 96.5707C352.661 110.362 341.481 121.542 327.69 121.542H203.971C190.18 121.542 179 110.362 179 96.5707Z" fill="#82FDE4" stroke="#134F5C" stroke-miterlimit="8" stroke-linejoin="round"/>
<path d="M266 49.9755V60.8613" stroke="#666666" stroke-miterlimit="8" stroke-linejoin="round"/>
<path fill-rule="evenodd" clip-rule="evenodd" d="M263 60.8613L266.295 69.9149L269.591 60.8613H263Z" fill="#666666" stroke="#666666" stroke-miterlimit="10"/>
<path d="M211.253 98.8769L214.909 88.3212H216.755L212.009 101.118H210.515L205.777 88.3212H207.614L211.253 98.8769ZM219.989 101.118H218.363V91.6083H219.989V101.118ZM218.231 89.0859C218.231 88.8222 218.311 88.5995 218.469 88.4179C218.633 88.2363 218.873 88.1454 219.189 88.1454C219.506 88.1454 219.746 88.2363 219.91 88.4179C220.074 88.5995 220.156 88.8222 220.156 89.0859C220.156 89.3495 220.074 89.5693 219.91 89.7451C219.746 89.9208 219.506 90.0087 219.189 90.0087C218.873 90.0087 218.633 89.9208 218.469 89.7451C218.311 89.5693 218.231 89.3495 218.231 89.0859ZM226.546 101.294C225.257 101.294 224.208 100.872 223.399 100.028C222.591 99.1786 222.187 98.0449 222.187 96.6269V96.3281C222.187 95.3847 222.365 94.5439 222.723 93.8056C223.086 93.0615 223.59 92.4814 224.234 92.0654C224.885 91.6435 225.588 91.4326 226.344 91.4326C227.58 91.4326 228.541 91.8398 229.227 92.6542C229.912 93.4687 230.255 94.6347 230.255 96.1523V96.829H223.812C223.836 97.7665 224.108 98.5253 224.63 99.1054C225.157 99.6796 225.825 99.9667 226.634 99.9667C227.208 99.9667 227.694 99.8495 228.093 99.6152C228.491 99.3808 228.84 99.0703 229.139 98.6835L230.132 99.457C229.335 100.682 228.14 101.294 226.546 101.294ZM226.344 92.7685C225.688 92.7685 225.137 93.0087 224.691 93.4892C224.246 93.9638 223.971 94.6318 223.865 95.4931H228.629V95.3701C228.582 94.5439 228.359 93.9052 227.961 93.454C227.562 92.997 227.023 92.7685 226.344 92.7685ZM240.564 98.8769L242.393 91.6083H244.019L241.25 101.118H239.932L237.62 93.9111L235.37 101.118H234.052L231.292 91.6083H232.909L234.781 98.7275L236.996 91.6083H238.306L240.564 98.8769ZM259.812 97.0576C259.654 98.4111 259.153 99.457 258.31 100.195C257.472 100.928 256.355 101.294 254.961 101.294C253.449 101.294 252.236 100.752 251.322 99.6679C250.414 98.5839 249.96 97.1337 249.96 95.3173V94.0869C249.96 92.8974 250.171 91.8515 250.593 90.9492C251.021 90.0468 251.624 89.3554 252.403 88.8749C253.183 88.3886 254.085 88.1454 255.11 88.1454C256.47 88.1454 257.56 88.5263 258.38 89.288C259.2 90.0439 259.678 91.0927 259.812 92.4345H258.116C257.97 91.415 257.65 90.6767 257.158 90.2197C256.672 89.7626 255.989 89.5341 255.11 89.5341C254.032 89.5341 253.186 89.9326 252.57 90.7294C251.961 91.5263 251.656 92.6601 251.656 94.1308V95.3701C251.656 96.7587 251.946 97.8632 252.526 98.6835C253.106 99.5038 253.918 99.914 254.961 99.914C255.898 99.914 256.616 99.7031 257.114 99.2812C257.618 98.8535 257.952 98.1122 258.116 97.0576H259.812ZM261.438 96.2753C261.438 95.3437 261.62 94.5058 261.983 93.7617C262.353 93.0175 262.862 92.4433 263.513 92.039C264.169 91.6347 264.916 91.4326 265.754 91.4326C267.049 91.4326 268.095 91.8808 268.892 92.7773C269.694 93.6738 270.096 94.8661 270.096 96.3544V96.4687C270.096 97.3945 269.917 98.2265 269.56 98.9648C269.208 99.6972 268.701 100.268 268.039 100.679C267.383 101.089 266.627 101.294 265.771 101.294C264.482 101.294 263.437 100.846 262.634 99.9492C261.837 99.0527 261.438 97.8661 261.438 96.3896V96.2753ZM263.073 96.4687C263.073 97.5234 263.316 98.3701 263.803 99.0087C264.295 99.6474 264.951 99.9667 265.771 99.9667C266.598 99.9667 267.254 99.6445 267.74 98.9999C268.227 98.3495 268.47 97.4413 268.47 96.2753C268.47 95.2324 268.221 94.3886 267.723 93.7441C267.23 93.0937 266.574 92.7685 265.754 92.7685C264.951 92.7685 264.304 93.0878 263.812 93.7265C263.319 94.3652 263.073 95.2792 263.073 96.4687ZM273.673 91.6083L273.726 92.8036C274.452 91.8896 275.401 91.4326 276.573 91.4326C278.583 91.4326 279.597 92.5663 279.614 94.8339V101.118H277.988V94.8251C277.982 94.1396 277.824 93.6328 277.514 93.3046C277.209 92.9765 276.731 92.8124 276.081 92.8124C275.554 92.8124 275.091 92.9531 274.692 93.2343C274.294 93.5156 273.983 93.8847 273.761 94.3417V101.118H272.135V91.6083H273.673ZM284.272 89.3056V91.6083H286.048V92.8652H284.272V98.7626C284.272 99.1435 284.352 99.4306 284.51 99.624C284.668 99.8115 284.938 99.9052 285.318 99.9052C285.506 99.9052 285.764 99.8701 286.092 99.7997V101.118C285.664 101.235 285.248 101.294 284.844 101.294C284.117 101.294 283.569 101.074 283.2 100.635C282.831 100.195 282.646 99.5712 282.646 98.7626V92.8652H280.915V91.6083H282.646V89.3056H284.272ZM293.826 101.118C293.732 100.931 293.656 100.597 293.598 100.116C292.842 100.901 291.939 101.294 290.891 101.294C289.953 101.294 289.183 101.03 288.579 100.503C287.981 99.9697 287.683 99.2958 287.683 98.4814C287.683 97.4911 288.058 96.7236 288.808 96.1786C289.563 95.6279 290.624 95.3525 291.989 95.3525H293.571V94.6054C293.571 94.037 293.401 93.5859 293.062 93.2519C292.722 92.912 292.221 92.7421 291.559 92.7421C290.979 92.7421 290.492 92.8886 290.1 93.1816C289.707 93.4745 289.511 93.829 289.511 94.2451H287.876C287.876 93.7704 288.043 93.3134 288.377 92.874C288.717 92.4286 289.174 92.0771 289.748 91.8193C290.328 91.5615 290.964 91.4326 291.655 91.4326C292.751 91.4326 293.609 91.7079 294.23 92.2587C294.852 92.8036 295.174 93.5566 295.197 94.5175V98.8945C295.197 99.7675 295.309 100.462 295.531 100.977V101.118H293.826ZM291.128 99.8788C291.638 99.8788 292.121 99.747 292.578 99.4833C293.035 99.2197 293.366 98.8769 293.571 98.455V96.5038H292.297C290.305 96.5038 289.309 97.0869 289.309 98.2529C289.309 98.7626 289.479 99.1611 289.818 99.4482C290.158 99.7353 290.595 99.8788 291.128 99.8788ZM299.513 101.118H297.887V91.6083H299.513V101.118ZM297.755 89.0859C297.755 88.8222 297.834 88.5995 297.992 88.4179C298.156 88.2363 298.396 88.1454 298.713 88.1454C299.029 88.1454 299.27 88.2363 299.434 88.4179C299.598 88.5995 299.68 88.8222 299.68 89.0859C299.68 89.3495 299.598 89.5693 299.434 89.7451C299.27 89.9208 299.029 90.0087 298.713 90.0087C298.396 90.0087 298.156 89.9208 297.992 89.7451C297.834 89.5693 297.755 89.3495 297.755 89.0859ZM303.661 91.6083L303.714 92.8036C304.44 91.8896 305.39 91.4326 306.562 91.4326C308.571 91.4326 309.585 92.5663 309.603 94.8339V101.118H307.977V94.8251C307.971 94.1396 307.812 93.6328 307.502 93.3046C307.197 92.9765 306.72 92.8124 306.069 92.8124C305.542 92.8124 305.079 92.9531 304.681 93.2343C304.282 93.5156 303.972 93.8847 303.749 94.3417V101.118H302.123V91.6083H303.661ZM316.001 101.294C314.712 101.294 313.663 100.872 312.854 100.028C312.046 99.1786 311.642 98.0449 311.642 96.6269V96.3281C311.642 95.3847 311.82 94.5439 312.178 93.8056C312.541 93.0615 313.045 92.4814 313.689 92.0654C314.34 91.6435 315.043 91.4326 315.799 91.4326C317.035 91.4326 317.996 91.8398 318.682 92.6542C319.367 93.4687 319.71 94.6347 319.71 96.1523V96.829H313.268C313.291 97.7665 313.563 98.5253 314.085 99.1054C314.612 99.6796 315.28 99.9667 316.089 99.9667C316.663 99.9667 317.149 99.8495 317.548 99.6152C317.946 99.3808 318.295 99.0703 318.594 98.6835L319.587 99.457C318.79 100.682 317.595 101.294 316.001 101.294ZM315.799 92.7685C315.143 92.7685 314.592 93.0087 314.146 93.4892C313.701 93.9638 313.426 94.6318 313.32 95.4931H318.084V95.3701C318.037 94.5439 317.814 93.9052 317.416 93.454C317.018 92.997 316.479 92.7685 315.799 92.7685ZM326.196 93.0673C325.95 93.0263 325.684 93.0058 325.396 93.0058C324.33 93.0058 323.606 93.4599 323.226 94.3681V101.118H321.6V91.6083H323.182L323.208 92.707C323.741 91.8574 324.497 91.4326 325.476 91.4326C325.792 91.4326 326.032 91.4736 326.196 91.5556V93.0673Z" fill="black"/>
</svg>
