<svg width="759" height="478" viewBox="0 0 759 478" fill="none" xmlns="http://www.w3.org/2000/svg">
<path d="M380 51V76.2903H570V100" stroke="#666666"/>
<path d="M380 51V76.2903H291V100" stroke="#666666"/>
<path d="M380 51V76.2903H88V100" stroke="#666666"/>
<path fill-rule="evenodd" clip-rule="evenodd" d="M293.256 25.9709C293.256 12.1798 304.436 1 318.227 1H441.946C448.569 1 454.92 3.63085 459.603 8.3138C464.286 12.9967 466.917 19.3482 466.917 25.9709C466.917 39.7619 455.737 50.9417 441.946 50.9417H318.227C304.436 50.9417 293.256 39.7619 293.256 25.9709Z" fill="#CCE3F4" stroke="#005999" stroke-miterlimit="8" stroke-linejoin="round"/>
<path d="M353.114 22.5746L353.158 23.6293C353.855 22.809 354.796 22.3988 355.979 22.3988C357.31 22.3988 358.215 22.9086 358.695 23.9281C359.012 23.4711 359.422 23.1019 359.926 22.8207C360.436 22.5394 361.036 22.3988 361.728 22.3988C363.813 22.3988 364.874 23.5033 364.909 25.7123V32.0844H363.283V25.809C363.283 25.1293 363.128 24.6224 362.817 24.2885C362.507 23.9486 361.985 23.7787 361.253 23.7787C360.649 23.7787 360.148 23.9603 359.75 24.3236C359.352 24.681 359.12 25.1644 359.056 25.7738V32.0844H357.421V25.8529C357.421 24.4701 356.744 23.7787 355.391 23.7787C354.324 23.7787 353.595 24.2328 353.202 25.141V32.0844H351.576V22.5746H353.114ZM370.481 29.7025L372.696 22.5746H374.437L370.613 33.5521C370.021 35.1342 369.081 35.9252 367.792 35.9252L367.484 35.8988L366.878 35.7845V34.4662L367.317 34.5013C367.868 34.5013 368.296 34.39 368.601 34.1674C368.911 33.9447 369.166 33.5375 369.365 32.9457L369.726 31.9789L366.333 22.5746H368.108L370.481 29.7025ZM379.279 27.3119H374.99V25.9847H379.279V27.3119ZM386.741 32.0844C386.647 31.8969 386.571 31.5629 386.513 31.0824C385.757 31.8676 384.854 32.2601 383.806 32.2601C382.868 32.2601 382.098 31.9965 381.494 31.4691C380.896 30.9359 380.598 30.2621 380.598 29.4476C380.598 28.4574 380.973 27.6898 381.723 27.1449C382.479 26.5941 383.539 26.3187 384.904 26.3187H386.486V25.5717C386.486 25.0033 386.316 24.5521 385.977 24.2181C385.637 23.8783 385.136 23.7084 384.474 23.7084C383.894 23.7084 383.407 23.8549 383.015 24.1478C382.622 24.4408 382.426 24.7953 382.426 25.2113H380.791C380.791 24.7367 380.958 24.2797 381.292 23.8402C381.632 23.3949 382.089 23.0433 382.663 22.7855C383.243 22.5277 383.879 22.3988 384.57 22.3988C385.666 22.3988 386.524 22.6742 387.146 23.225C387.767 23.7699 388.089 24.5228 388.112 25.4838V29.8607C388.112 30.7338 388.224 31.4281 388.446 31.9437V32.0844H386.741ZM384.043 30.8451C384.553 30.8451 385.036 30.7133 385.493 30.4496C385.95 30.1859 386.281 29.8431 386.486 29.4213V27.4701H385.212C383.22 27.4701 382.224 28.0531 382.224 29.2191C382.224 29.7289 382.394 30.1273 382.733 30.4144C383.073 30.7015 383.51 30.8451 384.043 30.8451ZM398.694 27.4349C398.694 28.8822 398.363 30.0482 397.701 30.933C397.039 31.8177 396.143 32.2601 395.012 32.2601C393.857 32.2601 392.949 31.8939 392.287 31.1615V35.7406H390.661V22.5746H392.146L392.226 23.6293C392.888 22.809 393.808 22.3988 394.985 22.3988C396.128 22.3988 397.03 22.8295 397.692 23.6908C398.36 24.5521 398.694 25.7504 398.694 27.2855V27.4349ZM397.068 27.2504C397.068 26.1781 396.84 25.3314 396.383 24.7103C395.926 24.0892 395.299 23.7787 394.502 23.7787C393.518 23.7787 392.779 24.2152 392.287 25.0883V29.6322C392.773 30.4994 393.518 30.933 394.52 30.933C395.299 30.933 395.917 30.6254 396.374 30.0101C396.837 29.389 397.068 28.4691 397.068 27.2504ZM408.802 27.4349C408.802 28.8822 408.471 30.0482 407.809 30.933C407.146 31.8177 406.25 32.2601 405.119 32.2601C403.965 32.2601 403.057 31.8939 402.395 31.1615V35.7406H400.769V22.5746H402.254L402.333 23.6293C402.995 22.809 403.915 22.3988 405.093 22.3988C406.235 22.3988 407.138 22.8295 407.8 23.6908C408.468 24.5521 408.802 25.7504 408.802 27.2855V27.4349ZM407.176 27.2504C407.176 26.1781 406.947 25.3314 406.49 24.7103C406.033 24.0892 405.406 23.7787 404.609 23.7787C403.625 23.7787 402.887 24.2152 402.395 25.0883V29.6322C402.881 30.4994 403.625 30.933 404.627 30.933C405.406 30.933 406.024 30.6254 406.481 30.0101C406.944 29.389 407.176 28.4691 407.176 27.2504Z" fill="black"/>
<path fill-rule="evenodd" clip-rule="evenodd" d="M293.256 25.9709C293.256 12.1798 304.436 1 318.227 1H441.946C448.569 1 454.92 3.63085 459.603 8.3138C464.286 12.9967 466.917 19.3482 466.917 25.9709C466.917 39.7619 455.737 50.9417 441.946 50.9417H318.227C304.436 50.9417 293.256 39.7619 293.256 25.9709Z" fill="#CCE3F4" stroke="#005999" stroke-miterlimit="8" stroke-linejoin="round"/>
<path d="M353.114 22.5746L353.158 23.6293C353.855 22.809 354.796 22.3988 355.979 22.3988C357.31 22.3988 358.215 22.9086 358.695 23.9281C359.012 23.4711 359.422 23.1019 359.926 22.8207C360.436 22.5394 361.036 22.3988 361.728 22.3988C363.813 22.3988 364.874 23.5033 364.909 25.7123V32.0844H363.283V25.809C363.283 25.1293 363.128 24.6224 362.817 24.2885C362.507 23.9486 361.985 23.7787 361.253 23.7787C360.649 23.7787 360.148 23.9603 359.75 24.3236C359.352 24.681 359.12 25.1644 359.056 25.7738V32.0844H357.421V25.8529C357.421 24.4701 356.744 23.7787 355.391 23.7787C354.324 23.7787 353.595 24.2328 353.202 25.141V32.0844H351.576V22.5746H353.114ZM370.481 29.7025L372.696 22.5746H374.437L370.613 33.5521C370.021 35.1342 369.081 35.9252 367.792 35.9252L367.484 35.8988L366.878 35.7845V34.4662L367.317 34.5013C367.868 34.5013 368.296 34.39 368.601 34.1674C368.911 33.9447 369.166 33.5375 369.365 32.9457L369.726 31.9789L366.333 22.5746H368.108L370.481 29.7025ZM379.279 27.3119H374.99V25.9847H379.279V27.3119ZM386.741 32.0844C386.647 31.8969 386.571 31.5629 386.513 31.0824C385.757 31.8676 384.854 32.2601 383.806 32.2601C382.868 32.2601 382.098 31.9965 381.494 31.4691C380.896 30.9359 380.598 30.2621 380.598 29.4476C380.598 28.4574 380.973 27.6898 381.723 27.1449C382.479 26.5941 383.539 26.3187 384.904 26.3187H386.486V25.5717C386.486 25.0033 386.316 24.5521 385.977 24.2181C385.637 23.8783 385.136 23.7084 384.474 23.7084C383.894 23.7084 383.407 23.8549 383.015 24.1478C382.622 24.4408 382.426 24.7953 382.426 25.2113H380.791C380.791 24.7367 380.958 24.2797 381.292 23.8402C381.632 23.3949 382.089 23.0433 382.663 22.7855C383.243 22.5277 383.879 22.3988 384.57 22.3988C385.666 22.3988 386.524 22.6742 387.146 23.225C387.767 23.7699 388.089 24.5228 388.112 25.4838V29.8607C388.112 30.7338 388.224 31.4281 388.446 31.9437V32.0844H386.741ZM384.043 30.8451C384.553 30.8451 385.036 30.7133 385.493 30.4496C385.95 30.1859 386.281 29.8431 386.486 29.4213V27.4701H385.212C383.22 27.4701 382.224 28.0531 382.224 29.2191C382.224 29.7289 382.394 30.1273 382.733 30.4144C383.073 30.7015 383.51 30.8451 384.043 30.8451ZM398.694 27.4349C398.694 28.8822 398.363 30.0482 397.701 30.933C397.039 31.8177 396.143 32.2601 395.012 32.2601C393.857 32.2601 392.949 31.8939 392.287 31.1615V35.7406H390.661V22.5746H392.146L392.226 23.6293C392.888 22.809 393.808 22.3988 394.985 22.3988C396.128 22.3988 397.03 22.8295 397.692 23.6908C398.36 24.5521 398.694 25.7504 398.694 27.2855V27.4349ZM397.068 27.2504C397.068 26.1781 396.84 25.3314 396.383 24.7103C395.926 24.0892 395.299 23.7787 394.502 23.7787C393.518 23.7787 392.779 24.2152 392.287 25.0883V29.6322C392.773 30.4994 393.518 30.933 394.52 30.933C395.299 30.933 395.917 30.6254 396.374 30.0101C396.837 29.389 397.068 28.4691 397.068 27.2504ZM408.802 27.4349C408.802 28.8822 408.471 30.0482 407.809 30.933C407.146 31.8177 406.25 32.2601 405.119 32.2601C403.965 32.2601 403.057 31.8939 402.395 31.1615V35.7406H400.769V22.5746H402.254L402.333 23.6293C402.995 22.809 403.915 22.3988 405.093 22.3988C406.235 22.3988 407.138 22.8295 407.8 23.6908C408.468 24.5521 408.802 25.7504 408.802 27.2855V27.4349ZM407.176 27.2504C407.176 26.1781 406.947 25.3314 406.49 24.7103C406.033 24.0892 405.406 23.7787 404.609 23.7787C403.625 23.7787 402.887 24.2152 402.395 25.0883V29.6322C402.881 30.4994 403.625 30.933 404.627 30.933C405.406 30.933 406.024 30.6254 406.481 30.0101C406.944 29.389 407.176 28.4691 407.176 27.2504Z" fill="black"/>
<path fill-rule="evenodd" clip-rule="evenodd" d="M483.256 195.887C483.256 182.095 494.436 170.916 508.227 170.916H631.946C638.569 170.916 644.92 173.547 649.603 178.229C654.286 182.912 656.917 189.264 656.917 195.887C656.917 209.678 645.737 220.857 631.946 220.857H508.227C494.436 220.857 483.256 209.678 483.256 195.887Z" fill="#F4CCCC" stroke="#990000" stroke-miterlimit="8" stroke-linejoin="round"/>
<path d="M540.495 202H538.799V196.085H532.348V202H530.66V189.203H532.348V194.705H538.799V189.203H540.495V202ZM542.807 197.157C542.807 196.226 542.988 195.388 543.352 194.644C543.721 193.899 544.23 193.325 544.881 192.921C545.537 192.517 546.284 192.314 547.122 192.314C548.417 192.314 549.463 192.763 550.26 193.659C551.062 194.556 551.464 195.748 551.464 197.236V197.351C551.464 198.276 551.285 199.108 550.928 199.847C550.576 200.579 550.069 201.15 549.407 201.561C548.751 201.971 547.995 202.176 547.14 202.176C545.851 202.176 544.805 201.728 544.002 200.831C543.205 199.935 542.807 198.748 542.807 197.271V197.157ZM544.441 197.351C544.441 198.405 544.685 199.252 545.171 199.891C545.663 200.529 546.319 200.849 547.14 200.849C547.966 200.849 548.622 200.526 549.108 199.882C549.595 199.231 549.838 198.323 549.838 197.157C549.838 196.114 549.589 195.271 549.091 194.626C548.599 193.976 547.942 193.65 547.122 193.65C546.319 193.65 545.672 193.97 545.18 194.608C544.688 195.247 544.441 196.161 544.441 197.351ZM559.04 199.478C559.04 199.038 558.873 198.698 558.539 198.458C558.211 198.212 557.634 198.001 556.808 197.825C555.987 197.649 555.334 197.438 554.848 197.192C554.367 196.946 554.01 196.653 553.775 196.313C553.547 195.974 553.433 195.569 553.433 195.101C553.433 194.321 553.761 193.662 554.417 193.123C555.079 192.584 555.923 192.314 556.948 192.314C558.026 192.314 558.899 192.593 559.567 193.149C560.241 193.706 560.578 194.418 560.578 195.285H558.943C558.943 194.84 558.753 194.456 558.372 194.134C557.997 193.812 557.522 193.65 556.948 193.65C556.356 193.65 555.894 193.779 555.56 194.037C555.226 194.295 555.059 194.632 555.059 195.048C555.059 195.44 555.214 195.736 555.524 195.936C555.835 196.135 556.395 196.325 557.203 196.507C558.018 196.688 558.677 196.905 559.181 197.157C559.685 197.409 560.057 197.714 560.297 198.071C560.543 198.423 560.666 198.854 560.666 199.363C560.666 200.213 560.326 200.896 559.646 201.411C558.967 201.921 558.085 202.176 557.001 202.176C556.239 202.176 555.565 202.041 554.979 201.771C554.394 201.502 553.934 201.127 553.6 200.646C553.271 200.16 553.107 199.636 553.107 199.073H554.733C554.763 199.618 554.979 200.052 555.384 200.374C555.794 200.69 556.333 200.849 557.001 200.849C557.616 200.849 558.108 200.726 558.478 200.479C558.853 200.228 559.04 199.894 559.04 199.478ZM564.99 190.188V192.49H566.766V193.747H564.99V199.645C564.99 200.025 565.069 200.312 565.228 200.506C565.386 200.693 565.655 200.787 566.036 200.787C566.224 200.787 566.481 200.752 566.81 200.682V202C566.382 202.117 565.966 202.176 565.562 202.176C564.835 202.176 564.287 201.956 563.918 201.517C563.549 201.077 563.364 200.453 563.364 199.645V193.747H561.633V192.49H563.364V190.188H564.99ZM577.629 199.759L581.285 189.203H583.131L578.385 202H576.891L572.153 189.203H573.99L577.629 199.759ZM586.365 202H584.739V192.49H586.365V202ZM584.607 189.968C584.607 189.704 584.687 189.481 584.845 189.3C585.009 189.118 585.249 189.027 585.565 189.027C585.882 189.027 586.122 189.118 586.286 189.3C586.45 189.481 586.532 189.704 586.532 189.968C586.532 190.231 586.45 190.451 586.286 190.627C586.122 190.803 585.882 190.891 585.565 190.891C585.249 190.891 585.009 190.803 584.845 190.627C584.687 190.451 584.607 190.231 584.607 189.968ZM592.922 202.176C591.633 202.176 590.584 201.754 589.775 200.91C588.967 200.061 588.562 198.927 588.562 197.509V197.21C588.562 196.267 588.741 195.426 589.099 194.688C589.462 193.943 589.966 193.363 590.61 192.947C591.261 192.525 591.964 192.314 592.72 192.314C593.956 192.314 594.917 192.722 595.603 193.536C596.288 194.351 596.631 195.517 596.631 197.034V197.711H590.188C590.212 198.648 590.484 199.407 591.006 199.987C591.533 200.562 592.201 200.849 593.01 200.849C593.584 200.849 594.07 200.731 594.469 200.497C594.867 200.263 595.216 199.952 595.515 199.565L596.508 200.339C595.711 201.563 594.516 202.176 592.922 202.176ZM592.72 193.65C592.063 193.65 591.513 193.891 591.067 194.371C590.622 194.846 590.347 195.514 590.241 196.375H595.005V196.252C594.958 195.426 594.735 194.787 594.337 194.336C593.938 193.879 593.399 193.65 592.72 193.65ZM606.94 199.759L608.769 192.49H610.395L607.626 202H606.308L603.996 194.793L601.746 202H600.428L597.668 192.49H599.285L601.157 199.609L603.372 192.49H604.682L606.94 199.759Z" fill="black"/>
<path d="M570.086 150V160.886" stroke="#666666" stroke-miterlimit="8" stroke-linejoin="round"/>
<path fill-rule="evenodd" clip-rule="evenodd" d="M566.791 160.886L570.086 169.939L573.382 160.886H566.791Z" fill="#666666" stroke="#666666" stroke-miterlimit="10"/>
<path fill-rule="evenodd" clip-rule="evenodd" d="M483.256 195.887C483.256 182.095 494.436 170.916 508.227 170.916H631.946C638.569 170.916 644.92 173.547 649.603 178.229C654.286 182.912 656.917 189.264 656.917 195.887C656.917 209.678 645.737 220.857 631.946 220.857H508.227C494.436 220.857 483.256 209.678 483.256 195.887Z" fill="#F4CCCC" stroke="#990000" stroke-miterlimit="8" stroke-linejoin="round"/>
<path d="M556.263 199.759L559.919 189.203H561.765L557.019 202H555.524L550.787 189.203H552.624L556.263 199.759ZM564.999 202H563.373V192.49H564.999V202ZM563.241 189.968C563.241 189.704 563.32 189.481 563.479 189.3C563.643 189.118 563.883 189.027 564.199 189.027C564.516 189.027 564.756 189.118 564.92 189.3C565.084 189.481 565.166 189.704 565.166 189.968C565.166 190.231 565.084 190.451 564.92 190.627C564.756 190.803 564.516 190.891 564.199 190.891C563.883 190.891 563.643 190.803 563.479 190.627C563.32 190.451 563.241 190.231 563.241 189.968ZM571.556 202.176C570.267 202.176 569.218 201.754 568.409 200.91C567.601 200.061 567.196 198.927 567.196 197.509V197.21C567.196 196.267 567.375 195.426 567.732 194.688C568.096 193.943 568.6 193.363 569.244 192.947C569.895 192.525 570.598 192.314 571.354 192.314C572.59 192.314 573.551 192.722 574.236 193.536C574.922 194.351 575.265 195.517 575.265 197.034V197.711H568.822C568.846 198.648 569.118 199.407 569.64 199.987C570.167 200.562 570.835 200.849 571.644 200.849C572.218 200.849 572.704 200.731 573.103 200.497C573.501 200.263 573.85 199.952 574.148 199.565L575.142 200.339C574.345 201.563 573.149 202.176 571.556 202.176ZM571.354 193.65C570.697 193.65 570.146 193.891 569.701 194.371C569.256 194.846 568.98 195.514 568.875 196.375H573.639V196.252C573.592 195.426 573.369 194.787 572.971 194.336C572.572 193.879 572.033 193.65 571.354 193.65ZM585.574 199.759L587.402 192.49H589.028L586.26 202H584.941L582.63 194.793L580.38 202H579.062L576.302 192.49H577.919L579.791 199.609L582.006 192.49H583.315L585.574 199.759Z" fill="black"/>
<path d="M570.086 150V160.886" stroke="#666666" stroke-miterlimit="8" stroke-linejoin="round"/>
<path fill-rule="evenodd" clip-rule="evenodd" d="M566.791 160.886L570.086 169.939L573.382 160.886H566.791Z" fill="#666666" stroke="#666666" stroke-miterlimit="10"/>
<path d="M671 412L671 427" stroke="#666666"/>
<path d="M571 222V257.613H670V291" stroke="#666666"/>
<path d="M571 222V257.613H466V291" stroke="#666666"/>
<path d="M291 150L291 165" stroke="#666666"/>
<path fill-rule="evenodd" clip-rule="evenodd" d="M206.256 189.971C206.256 176.18 217.436 165 231.227 165H354.946C361.569 165 367.92 167.631 372.603 172.314C377.286 176.997 379.917 183.348 379.917 189.971C379.917 203.762 368.737 214.942 354.946 214.942H231.227C217.436 214.942 206.256 203.762 206.256 189.971Z" fill="#F4CCCC" stroke="#990000" stroke-miterlimit="8" stroke-linejoin="round"/>
<path d="M279.263 193.843L282.919 183.287H284.765L280.019 196.084H278.524L273.787 183.287H275.624L279.263 193.843ZM287.999 196.084H286.373V186.575H287.999V196.084ZM286.241 184.052C286.241 183.788 286.32 183.566 286.479 183.384C286.643 183.203 286.883 183.112 287.199 183.112C287.516 183.112 287.756 183.203 287.92 183.384C288.084 183.566 288.166 183.788 288.166 184.052C288.166 184.316 288.084 184.536 287.92 184.711C287.756 184.887 287.516 184.975 287.199 184.975C286.883 184.975 286.643 184.887 286.479 184.711C286.32 184.536 286.241 184.316 286.241 184.052ZM294.556 196.26C293.267 196.26 292.218 195.838 291.409 194.995C290.601 194.145 290.196 193.011 290.196 191.593V191.294C290.196 190.351 290.375 189.51 290.732 188.772C291.096 188.028 291.6 187.448 292.244 187.032C292.895 186.61 293.598 186.399 294.354 186.399C295.59 186.399 296.551 186.806 297.236 187.62C297.922 188.435 298.265 189.601 298.265 191.119V191.795H291.822C291.846 192.733 292.118 193.492 292.64 194.072C293.167 194.646 293.835 194.933 294.644 194.933C295.218 194.933 295.704 194.816 296.103 194.581C296.501 194.347 296.85 194.036 297.148 193.65L298.142 194.423C297.345 195.648 296.149 196.26 294.556 196.26ZM294.354 187.735C293.697 187.735 293.146 187.975 292.701 188.455C292.256 188.93 291.98 189.598 291.875 190.459H296.639V190.336C296.592 189.51 296.369 188.871 295.971 188.42C295.572 187.963 295.033 187.735 294.354 187.735ZM308.574 193.843L310.402 186.575H312.028L309.26 196.084H307.941L305.63 188.877L303.38 196.084H302.062L299.302 186.575H300.919L302.791 193.694L305.006 186.575H306.315L308.574 193.843Z" fill="black"/>
<path fill-rule="evenodd" clip-rule="evenodd" d="M206.3 124.971C206.3 111.18 217.48 100 231.271 100H354.991C361.613 100 367.965 102.631 372.648 107.314C377.331 111.997 379.961 118.348 379.961 124.971C379.961 138.762 368.782 149.942 354.991 149.942H231.271C217.48 149.942 206.3 138.762 206.3 124.971Z" fill="#FCE5CD" stroke="#783F04" stroke-miterlimit="8" stroke-linejoin="round"/>
<path d="M269.067 125.085H263.521V129.62H269.964V131H261.834V118.203H269.876V119.592H263.521V123.705H269.067V125.085ZM273.576 131H271.95V117.5H273.576V131ZM280.133 131.176C278.844 131.176 277.795 130.754 276.986 129.91C276.178 129.061 275.773 127.927 275.773 126.509V126.21C275.773 125.267 275.952 124.426 276.31 123.688C276.673 122.943 277.177 122.363 277.821 121.947C278.472 121.525 279.175 121.314 279.931 121.314C281.167 121.314 282.128 121.722 282.813 122.536C283.499 123.351 283.842 124.517 283.842 126.034V126.711H277.399C277.423 127.648 277.695 128.407 278.217 128.987C278.744 129.562 279.412 129.849 280.221 129.849C280.795 129.849 281.281 129.731 281.68 129.497C282.078 129.263 282.427 128.952 282.726 128.565L283.719 129.339C282.922 130.563 281.727 131.176 280.133 131.176ZM279.931 122.65C279.274 122.65 278.724 122.891 278.278 123.371C277.833 123.846 277.558 124.514 277.452 125.375H282.216V125.252C282.169 124.426 281.946 123.787 281.548 123.336C281.149 122.879 280.61 122.65 279.931 122.65ZM287.261 121.49L287.305 122.545C288.002 121.725 288.942 121.314 290.126 121.314C291.456 121.314 292.361 121.824 292.842 122.844C293.158 122.387 293.568 122.018 294.072 121.736C294.582 121.455 295.183 121.314 295.874 121.314C297.96 121.314 299.021 122.419 299.056 124.628V131H297.43V124.725C297.43 124.045 297.274 123.538 296.964 123.204C296.653 122.864 296.132 122.694 295.399 122.694C294.796 122.694 294.295 122.876 293.896 123.239C293.498 123.597 293.267 124.08 293.202 124.689V131H291.567V124.769C291.567 123.386 290.891 122.694 289.537 122.694C288.471 122.694 287.741 123.148 287.349 124.057V131H285.723V121.49H287.261ZM305.463 131.176C304.174 131.176 303.125 130.754 302.316 129.91C301.508 129.061 301.104 127.927 301.104 126.509V126.21C301.104 125.267 301.282 124.426 301.64 123.688C302.003 122.943 302.507 122.363 303.151 121.947C303.802 121.525 304.505 121.314 305.261 121.314C306.497 121.314 307.458 121.722 308.144 122.536C308.829 123.351 309.172 124.517 309.172 126.034V126.711H302.729C302.753 127.648 303.025 128.407 303.547 128.987C304.074 129.562 304.742 129.849 305.551 129.849C306.125 129.849 306.611 129.731 307.01 129.497C307.408 129.263 307.757 128.952 308.056 128.565L309.049 129.339C308.252 130.563 307.057 131.176 305.463 131.176ZM305.261 122.65C304.604 122.65 304.054 122.891 303.608 123.371C303.163 123.846 302.888 124.514 302.782 125.375H307.546V125.252C307.499 124.426 307.276 123.787 306.878 123.336C306.479 122.879 305.94 122.65 305.261 122.65ZM312.6 121.49L312.652 122.686C313.379 121.771 314.328 121.314 315.5 121.314C317.51 121.314 318.523 122.448 318.541 124.716V131H316.915V124.707C316.909 124.021 316.751 123.515 316.44 123.187C316.136 122.858 315.658 122.694 315.008 122.694C314.48 122.694 314.018 122.835 313.619 123.116C313.221 123.397 312.91 123.767 312.688 124.224V131H311.062V121.49H312.6ZM323.199 119.188V121.49H324.975V122.747H323.199V128.645C323.199 129.025 323.278 129.312 323.437 129.506C323.595 129.693 323.864 129.787 324.245 129.787C324.433 129.787 324.69 129.752 325.019 129.682V131C324.591 131.117 324.175 131.176 323.771 131.176C323.044 131.176 322.496 130.956 322.127 130.517C321.758 130.077 321.573 129.453 321.573 128.645V122.747H319.842V121.49H321.573V119.188H323.199Z" fill="black"/>
<path fill-rule="evenodd" clip-rule="evenodd" d="M1.25586 124.971C1.25586 111.18 12.4357 100 26.2267 100H149.946C156.569 100 162.92 102.631 167.603 107.314C172.286 111.997 174.917 118.348 174.917 124.971C174.917 138.762 163.737 149.942 149.946 149.942H26.2267C12.4357 149.942 1.25586 138.762 1.25586 124.971Z" fill="#F4CCCC" stroke="#990000" stroke-miterlimit="8" stroke-linejoin="round"/>
<path d="M74.2627 128.759L77.9189 118.203H79.7646L75.0186 131H73.5244L68.7871 118.203H70.624L74.2627 128.759ZM82.999 131H81.373V121.49H82.999V131ZM81.2412 118.968C81.2412 118.704 81.3203 118.481 81.4785 118.3C81.6426 118.118 81.8828 118.027 82.1992 118.027C82.5156 118.027 82.7559 118.118 82.9199 118.3C83.084 118.481 83.166 118.704 83.166 118.968C83.166 119.231 83.084 119.451 82.9199 119.627C82.7559 119.803 82.5156 119.891 82.1992 119.891C81.8828 119.891 81.6426 119.803 81.4785 119.627C81.3203 119.451 81.2412 119.231 81.2412 118.968ZM89.5557 131.176C88.2666 131.176 87.2178 130.754 86.4092 129.91C85.6006 129.061 85.1963 127.927 85.1963 126.509V126.21C85.1963 125.267 85.375 124.426 85.7324 123.688C86.0957 122.943 86.5996 122.363 87.2441 121.947C87.8945 121.525 88.5977 121.314 89.3535 121.314C90.5898 121.314 91.5508 121.722 92.2363 122.536C92.9219 123.351 93.2646 124.517 93.2646 126.034V126.711H86.8223C86.8457 127.648 87.1182 128.407 87.6396 128.987C88.167 129.562 88.835 129.849 89.6436 129.849C90.2178 129.849 90.7041 129.731 91.1025 129.497C91.501 129.263 91.8496 128.952 92.1484 128.565L93.1416 129.339C92.3447 130.563 91.1494 131.176 89.5557 131.176ZM89.3535 122.65C88.6973 122.65 88.1465 122.891 87.7012 123.371C87.2559 123.846 86.9805 124.514 86.875 125.375H91.6387V125.252C91.5918 124.426 91.3691 123.787 90.9707 123.336C90.5723 122.879 90.0332 122.65 89.3535 122.65ZM103.574 128.759L105.402 121.49H107.028L104.26 131H102.941L100.63 123.793L98.3799 131H97.0615L94.3018 121.49H95.9189L97.791 128.609L100.006 121.49H101.315L103.574 128.759Z" fill="black"/>
<path fill-rule="evenodd" clip-rule="evenodd" d="M382.3 315.971C382.3 302.18 393.48 291 407.271 291H530.991C537.613 291 543.965 293.631 548.648 298.314C553.331 302.997 555.961 309.348 555.961 315.971C555.961 329.762 544.782 340.942 530.991 340.942H407.271C393.48 340.942 382.3 329.762 382.3 315.971Z" fill="#FCE5CD" stroke="#783F04" stroke-miterlimit="8" stroke-linejoin="round"/>
<path d="M445.067 316.085H439.521V320.62H445.964V322H437.834V309.203H445.876V310.592H439.521V314.705H445.067V316.085ZM449.576 322H447.95V308.5H449.576V322ZM456.133 322.176C454.844 322.176 453.795 321.754 452.986 320.91C452.178 320.061 451.773 318.927 451.773 317.509V317.21C451.773 316.267 451.952 315.426 452.31 314.688C452.673 313.943 453.177 313.363 453.821 312.947C454.472 312.525 455.175 312.314 455.931 312.314C457.167 312.314 458.128 312.722 458.813 313.536C459.499 314.351 459.842 315.517 459.842 317.034V317.711H453.399C453.423 318.648 453.695 319.407 454.217 319.987C454.744 320.562 455.412 320.849 456.221 320.849C456.795 320.849 457.281 320.731 457.68 320.497C458.078 320.263 458.427 319.952 458.726 319.565L459.719 320.339C458.922 321.563 457.727 322.176 456.133 322.176ZM455.931 313.65C455.274 313.65 454.724 313.891 454.278 314.371C453.833 314.846 453.558 315.514 453.452 316.375H458.216V316.252C458.169 315.426 457.946 314.787 457.548 314.336C457.149 313.879 456.61 313.65 455.931 313.65ZM463.261 312.49L463.305 313.545C464.002 312.725 464.942 312.314 466.126 312.314C467.456 312.314 468.361 312.824 468.842 313.844C469.158 313.387 469.568 313.018 470.072 312.736C470.582 312.455 471.183 312.314 471.874 312.314C473.96 312.314 475.021 313.419 475.056 315.628V322H473.43V315.725C473.43 315.045 473.274 314.538 472.964 314.204C472.653 313.864 472.132 313.694 471.399 313.694C470.796 313.694 470.295 313.876 469.896 314.239C469.498 314.597 469.267 315.08 469.202 315.689V322H467.567V315.769C467.567 314.386 466.891 313.694 465.537 313.694C464.471 313.694 463.741 314.148 463.349 315.057V322H461.723V312.49H463.261ZM481.463 322.176C480.174 322.176 479.125 321.754 478.316 320.91C477.508 320.061 477.104 318.927 477.104 317.509V317.21C477.104 316.267 477.282 315.426 477.64 314.688C478.003 313.943 478.507 313.363 479.151 312.947C479.802 312.525 480.505 312.314 481.261 312.314C482.497 312.314 483.458 312.722 484.144 313.536C484.829 314.351 485.172 315.517 485.172 317.034V317.711H478.729C478.753 318.648 479.025 319.407 479.547 319.987C480.074 320.562 480.742 320.849 481.551 320.849C482.125 320.849 482.611 320.731 483.01 320.497C483.408 320.263 483.757 319.952 484.056 319.565L485.049 320.339C484.252 321.563 483.057 322.176 481.463 322.176ZM481.261 313.65C480.604 313.65 480.054 313.891 479.608 314.371C479.163 314.846 478.888 315.514 478.782 316.375H483.546V316.252C483.499 315.426 483.276 314.787 482.878 314.336C482.479 313.879 481.94 313.65 481.261 313.65ZM488.6 312.49L488.652 313.686C489.379 312.771 490.328 312.314 491.5 312.314C493.51 312.314 494.523 313.448 494.541 315.716V322H492.915V315.707C492.909 315.021 492.751 314.515 492.44 314.187C492.136 313.858 491.658 313.694 491.008 313.694C490.48 313.694 490.018 313.835 489.619 314.116C489.221 314.397 488.91 314.767 488.688 315.224V322H487.062V312.49H488.6ZM499.199 310.188V312.49H500.975V313.747H499.199V319.645C499.199 320.025 499.278 320.312 499.437 320.506C499.595 320.693 499.864 320.787 500.245 320.787C500.433 320.787 500.69 320.752 501.019 320.682V322C500.591 322.117 500.175 322.176 499.771 322.176C499.044 322.176 498.496 321.956 498.127 321.517C497.758 321.077 497.573 320.453 497.573 319.645V313.747H495.842V312.49H497.573V310.188H499.199Z" fill="black"/>
<path fill-rule="evenodd" clip-rule="evenodd" d="M584.3 451.971C584.3 438.18 595.48 427 609.271 427H732.991C739.613 427 745.965 429.631 750.648 434.314C755.331 438.997 757.961 445.348 757.961 451.971C757.961 465.762 746.782 476.942 732.991 476.942H609.271C595.48 476.942 584.3 465.762 584.3 451.971Z" fill="#FCE5CD" stroke="#783F04" stroke-miterlimit="8" stroke-linejoin="round"/>
<path d="M647.067 452.085H641.521V456.62H647.964V458H639.834V445.203H647.876V446.592H641.521V450.705H647.067V452.085ZM651.576 458H649.95V444.5H651.576V458ZM658.133 458.176C656.844 458.176 655.795 457.754 654.986 456.91C654.178 456.061 653.773 454.927 653.773 453.509V453.21C653.773 452.267 653.952 451.426 654.31 450.688C654.673 449.943 655.177 449.363 655.821 448.947C656.472 448.525 657.175 448.314 657.931 448.314C659.167 448.314 660.128 448.722 660.813 449.536C661.499 450.351 661.842 451.517 661.842 453.034V453.711H655.399C655.423 454.648 655.695 455.407 656.217 455.987C656.744 456.562 657.412 456.849 658.221 456.849C658.795 456.849 659.281 456.731 659.68 456.497C660.078 456.263 660.427 455.952 660.726 455.565L661.719 456.339C660.922 457.563 659.727 458.176 658.133 458.176ZM657.931 449.65C657.274 449.65 656.724 449.891 656.278 450.371C655.833 450.846 655.558 451.514 655.452 452.375H660.216V452.252C660.169 451.426 659.946 450.787 659.548 450.336C659.149 449.879 658.61 449.65 657.931 449.65ZM665.261 448.49L665.305 449.545C666.002 448.725 666.942 448.314 668.126 448.314C669.456 448.314 670.361 448.824 670.842 449.844C671.158 449.387 671.568 449.018 672.072 448.736C672.582 448.455 673.183 448.314 673.874 448.314C675.96 448.314 677.021 449.419 677.056 451.628V458H675.43V451.725C675.43 451.045 675.274 450.538 674.964 450.204C674.653 449.864 674.132 449.694 673.399 449.694C672.796 449.694 672.295 449.876 671.896 450.239C671.498 450.597 671.267 451.08 671.202 451.689V458H669.567V451.769C669.567 450.386 668.891 449.694 667.537 449.694C666.471 449.694 665.741 450.148 665.349 451.057V458H663.723V448.49H665.261ZM683.463 458.176C682.174 458.176 681.125 457.754 680.316 456.91C679.508 456.061 679.104 454.927 679.104 453.509V453.21C679.104 452.267 679.282 451.426 679.64 450.688C680.003 449.943 680.507 449.363 681.151 448.947C681.802 448.525 682.505 448.314 683.261 448.314C684.497 448.314 685.458 448.722 686.144 449.536C686.829 450.351 687.172 451.517 687.172 453.034V453.711H680.729C680.753 454.648 681.025 455.407 681.547 455.987C682.074 456.562 682.742 456.849 683.551 456.849C684.125 456.849 684.611 456.731 685.01 456.497C685.408 456.263 685.757 455.952 686.056 455.565L687.049 456.339C686.252 457.563 685.057 458.176 683.463 458.176ZM683.261 449.65C682.604 449.65 682.054 449.891 681.608 450.371C681.163 450.846 680.888 451.514 680.782 452.375H685.546V452.252C685.499 451.426 685.276 450.787 684.878 450.336C684.479 449.879 683.94 449.65 683.261 449.65ZM690.6 448.49L690.652 449.686C691.379 448.771 692.328 448.314 693.5 448.314C695.51 448.314 696.523 449.448 696.541 451.716V458H694.915V451.707C694.909 451.021 694.751 450.515 694.44 450.187C694.136 449.858 693.658 449.694 693.008 449.694C692.48 449.694 692.018 449.835 691.619 450.116C691.221 450.397 690.91 450.767 690.688 451.224V458H689.062V448.49H690.6ZM701.199 446.188V448.49H702.975V449.747H701.199V455.645C701.199 456.025 701.278 456.312 701.437 456.506C701.595 456.693 701.864 456.787 702.245 456.787C702.433 456.787 702.69 456.752 703.019 456.682V458C702.591 458.117 702.175 458.176 701.771 458.176C701.044 458.176 700.496 457.956 700.127 457.517C699.758 457.077 699.573 456.453 699.573 455.645V449.747H697.842V448.49H699.573V446.188H701.199Z" fill="black"/>
<path fill-rule="evenodd" clip-rule="evenodd" d="M583.402 315.971C583.402 302.18 594.582 291 608.373 291H732.092C738.715 291 745.066 293.631 749.749 298.314C754.432 302.997 757.063 309.348 757.063 315.971C757.063 329.762 745.883 340.942 732.092 340.942H608.373C594.582 340.942 583.402 329.762 583.402 315.971Z" fill="#D9D2E9" stroke="#351C75" stroke-miterlimit="8" stroke-linejoin="round"/>
<path d="M609.294 310.188V312.49H611.069V313.747H609.294V319.645C609.294 320.025 609.373 320.312 609.531 320.506C609.689 320.693 609.959 320.787 610.34 320.787C610.527 320.787 610.785 320.752 611.113 320.682V322C610.686 322.117 610.27 322.176 609.865 322.176C609.139 322.176 608.591 321.956 608.222 321.517C607.853 321.077 607.668 320.453 607.668 319.645V313.747H605.937V312.49H607.668V310.188H609.294ZM616.923 322.176C615.634 322.176 614.585 321.754 613.776 320.91C612.968 320.061 612.563 318.927 612.563 317.509V317.21C612.563 316.267 612.742 315.426 613.1 314.688C613.463 313.943 613.967 313.363 614.611 312.947C615.262 312.525 615.965 312.314 616.721 312.314C617.957 312.314 618.918 312.722 619.604 313.536C620.289 314.351 620.632 315.517 620.632 317.034V317.711H614.189C614.213 318.648 614.485 319.407 615.007 319.987C615.534 320.562 616.202 320.849 617.011 320.849C617.585 320.849 618.071 320.731 618.47 320.497C618.868 320.263 619.217 319.952 619.516 319.565L620.509 320.339C619.712 321.563 618.517 322.176 616.923 322.176ZM616.721 313.65C616.064 313.65 615.514 313.891 615.068 314.371C614.623 314.846 614.348 315.514 614.242 316.375H619.006V316.252C618.959 315.426 618.736 314.787 618.338 314.336C617.939 313.879 617.4 313.65 616.721 313.65ZM628.059 319.478C628.059 319.038 627.892 318.698 627.558 318.458C627.229 318.212 626.652 318.001 625.826 317.825C625.006 317.649 624.353 317.438 623.866 317.192C623.386 316.946 623.028 316.653 622.794 316.313C622.565 315.974 622.451 315.569 622.451 315.101C622.451 314.321 622.779 313.662 623.436 313.123C624.098 312.584 624.941 312.314 625.967 312.314C627.045 312.314 627.918 312.593 628.586 313.149C629.26 313.706 629.597 314.418 629.597 315.285H627.962C627.962 314.84 627.771 314.456 627.391 314.134C627.016 313.812 626.541 313.65 625.967 313.65C625.375 313.65 624.912 313.779 624.578 314.037C624.244 314.295 624.077 314.632 624.077 315.048C624.077 315.44 624.232 315.736 624.543 315.936C624.854 316.135 625.413 316.325 626.222 316.507C627.036 316.688 627.695 316.905 628.199 317.157C628.703 317.409 629.075 317.714 629.315 318.071C629.562 318.423 629.685 318.854 629.685 319.363C629.685 320.213 629.345 320.896 628.665 321.411C627.985 321.921 627.104 322.176 626.02 322.176C625.258 322.176 624.584 322.041 623.998 321.771C623.412 321.502 622.952 321.127 622.618 320.646C622.29 320.16 622.126 319.636 622.126 319.073H623.752C623.781 319.618 623.998 320.052 624.402 320.374C624.812 320.69 625.352 320.849 626.02 320.849C626.635 320.849 627.127 320.726 627.496 320.479C627.871 320.228 628.059 319.894 628.059 319.478ZM634.009 310.188V312.49H635.784V313.747H634.009V319.645C634.009 320.025 634.088 320.312 634.246 320.506C634.404 320.693 634.674 320.787 635.055 320.787C635.242 320.787 635.5 320.752 635.828 320.682V322C635.4 322.117 634.984 322.176 634.58 322.176C633.854 322.176 633.306 321.956 632.937 321.517C632.567 321.077 632.383 320.453 632.383 319.645V313.747H630.651V312.49H632.383V310.188H634.009ZM639.458 322H637.832V312.49H639.458V322ZM637.7 309.968C637.7 309.704 637.779 309.481 637.938 309.3C638.102 309.118 638.342 309.027 638.658 309.027C638.975 309.027 639.215 309.118 639.379 309.3C639.543 309.481 639.625 309.704 639.625 309.968C639.625 310.231 639.543 310.451 639.379 310.627C639.215 310.803 638.975 310.891 638.658 310.891C638.342 310.891 638.102 310.803 637.938 310.627C637.779 310.451 637.7 310.231 637.7 309.968ZM643.606 312.49L643.659 313.686C644.386 312.771 645.335 312.314 646.507 312.314C648.517 312.314 649.53 313.448 649.548 315.716V322H647.922V315.707C647.916 315.021 647.758 314.515 647.447 314.187C647.143 313.858 646.665 313.694 646.015 313.694C645.487 313.694 645.024 313.835 644.626 314.116C644.228 314.397 643.917 314.767 643.694 315.224V322H642.068V312.49H643.606ZM651.613 317.166C651.613 315.684 651.956 314.506 652.642 313.633C653.327 312.754 654.235 312.314 655.366 312.314C656.526 312.314 657.432 312.725 658.082 313.545L658.161 312.49H659.646V321.771C659.646 323.002 659.28 323.972 658.548 324.681C657.821 325.39 656.843 325.744 655.612 325.744C654.927 325.744 654.256 325.598 653.6 325.305C652.943 325.012 652.442 324.61 652.097 324.101L652.94 323.125C653.638 323.986 654.49 324.417 655.498 324.417C656.289 324.417 656.904 324.194 657.344 323.749C657.789 323.304 658.012 322.677 658.012 321.868V321.051C657.361 321.801 656.474 322.176 655.349 322.176C654.235 322.176 653.333 321.728 652.642 320.831C651.956 319.935 651.613 318.713 651.613 317.166ZM653.248 317.351C653.248 318.423 653.468 319.267 653.907 319.882C654.347 320.491 654.962 320.796 655.753 320.796C656.778 320.796 657.531 320.33 658.012 319.398V315.057C657.514 314.148 656.767 313.694 655.771 313.694C654.979 313.694 654.361 314.002 653.916 314.617C653.471 315.232 653.248 316.144 653.248 317.351ZM664.542 309.203L668.726 319.645L672.909 309.203H675.098V322H673.41V317.017L673.568 311.638L669.367 322H668.075L663.883 311.664L664.05 317.017V322H662.362V309.203H664.542ZM681.769 322.176C680.479 322.176 679.431 321.754 678.622 320.91C677.813 320.061 677.409 318.927 677.409 317.509V317.21C677.409 316.267 677.588 315.426 677.945 314.688C678.309 313.943 678.812 313.363 679.457 312.947C680.107 312.525 680.811 312.314 681.566 312.314C682.803 312.314 683.764 312.722 684.449 313.536C685.135 314.351 685.478 315.517 685.478 317.034V317.711H679.035C679.059 318.648 679.331 319.407 679.853 319.987C680.38 320.562 681.048 320.849 681.856 320.849C682.431 320.849 682.917 320.731 683.315 320.497C683.714 320.263 684.062 319.952 684.361 319.565L685.354 320.339C684.558 321.563 683.362 322.176 681.769 322.176ZM681.566 313.65C680.91 313.65 680.359 313.891 679.914 314.371C679.469 314.846 679.193 315.514 679.088 316.375H683.852V316.252C683.805 315.426 683.582 314.787 683.184 314.336C682.785 313.879 682.246 313.65 681.566 313.65ZM692.904 319.478C692.904 319.038 692.737 318.698 692.403 318.458C692.075 318.212 691.498 318.001 690.672 317.825C689.852 317.649 689.198 317.438 688.712 317.192C688.231 316.946 687.874 316.653 687.64 316.313C687.411 315.974 687.297 315.569 687.297 315.101C687.297 314.321 687.625 313.662 688.281 313.123C688.943 312.584 689.787 312.314 690.812 312.314C691.891 312.314 692.764 312.593 693.432 313.149C694.105 313.706 694.442 314.418 694.442 315.285H692.808C692.808 314.84 692.617 314.456 692.236 314.134C691.861 313.812 691.387 313.65 690.812 313.65C690.221 313.65 689.758 313.779 689.424 314.037C689.09 314.295 688.923 314.632 688.923 315.048C688.923 315.44 689.078 315.736 689.389 315.936C689.699 316.135 690.259 316.325 691.067 316.507C691.882 316.688 692.541 316.905 693.045 317.157C693.549 317.409 693.921 317.714 694.161 318.071C694.407 318.423 694.53 318.854 694.53 319.363C694.53 320.213 694.19 320.896 693.511 321.411C692.831 321.921 691.949 322.176 690.865 322.176C690.104 322.176 689.43 322.041 688.844 321.771C688.258 321.502 687.798 321.127 687.464 320.646C687.136 320.16 686.972 319.636 686.972 319.073H688.598C688.627 319.618 688.844 320.052 689.248 320.374C689.658 320.69 690.197 320.849 690.865 320.849C691.48 320.849 691.973 320.726 692.342 320.479C692.717 320.228 692.904 319.894 692.904 319.478ZM702.186 319.478C702.186 319.038 702.019 318.698 701.685 318.458C701.356 318.212 700.779 318.001 699.953 317.825C699.133 317.649 698.479 317.438 697.993 317.192C697.513 316.946 697.155 316.653 696.921 316.313C696.692 315.974 696.578 315.569 696.578 315.101C696.578 314.321 696.906 313.662 697.562 313.123C698.225 312.584 699.068 312.314 700.094 312.314C701.172 312.314 702.045 312.593 702.713 313.149C703.387 313.706 703.724 314.418 703.724 315.285H702.089C702.089 314.84 701.898 314.456 701.518 314.134C701.143 313.812 700.668 313.65 700.094 313.65C699.502 313.65 699.039 313.779 698.705 314.037C698.371 314.295 698.204 314.632 698.204 315.048C698.204 315.44 698.359 315.736 698.67 315.936C698.98 316.135 699.54 316.325 700.349 316.507C701.163 316.688 701.822 316.905 702.326 317.157C702.83 317.409 703.202 317.714 703.442 318.071C703.688 318.423 703.812 318.854 703.812 319.363C703.812 320.213 703.472 320.896 702.792 321.411C702.112 321.921 701.23 322.176 700.146 322.176C699.385 322.176 698.711 322.041 698.125 321.771C697.539 321.502 697.079 321.127 696.745 320.646C696.417 320.16 696.253 319.636 696.253 319.073H697.879C697.908 319.618 698.125 320.052 698.529 320.374C698.939 320.69 699.479 320.849 700.146 320.849C700.762 320.849 701.254 320.726 701.623 320.479C701.998 320.228 702.186 319.894 702.186 319.478ZM711.801 322C711.707 321.812 711.631 321.479 711.572 320.998C710.816 321.783 709.914 322.176 708.865 322.176C707.928 322.176 707.157 321.912 706.554 321.385C705.956 320.852 705.657 320.178 705.657 319.363C705.657 318.373 706.032 317.605 706.782 317.061C707.538 316.51 708.599 316.234 709.964 316.234H711.546V315.487C711.546 314.919 711.376 314.468 711.036 314.134C710.696 313.794 710.195 313.624 709.533 313.624C708.953 313.624 708.467 313.771 708.074 314.063C707.682 314.356 707.485 314.711 707.485 315.127H705.851C705.851 314.652 706.018 314.195 706.352 313.756C706.691 313.311 707.148 312.959 707.723 312.701C708.303 312.443 708.938 312.314 709.63 312.314C710.726 312.314 711.584 312.59 712.205 313.141C712.826 313.686 713.148 314.438 713.172 315.399V319.776C713.172 320.649 713.283 321.344 713.506 321.859V322H711.801ZM709.103 320.761C709.612 320.761 710.096 320.629 710.553 320.365C711.01 320.102 711.341 319.759 711.546 319.337V317.386H710.271C708.279 317.386 707.283 317.969 707.283 319.135C707.283 319.645 707.453 320.043 707.793 320.33C708.133 320.617 708.569 320.761 709.103 320.761ZM715.334 317.166C715.334 315.684 715.677 314.506 716.362 313.633C717.048 312.754 717.956 312.314 719.087 312.314C720.247 312.314 721.152 312.725 721.803 313.545L721.882 312.49H723.367V321.771C723.367 323.002 723.001 323.972 722.269 324.681C721.542 325.39 720.563 325.744 719.333 325.744C718.647 325.744 717.977 325.598 717.32 325.305C716.664 325.012 716.163 324.61 715.817 324.101L716.661 323.125C717.358 323.986 718.211 324.417 719.219 324.417C720.01 324.417 720.625 324.194 721.064 323.749C721.51 323.304 721.732 322.677 721.732 321.868V321.051C721.082 321.801 720.194 322.176 719.069 322.176C717.956 322.176 717.054 321.728 716.362 320.831C715.677 319.935 715.334 318.713 715.334 317.166ZM716.969 317.351C716.969 318.423 717.188 319.267 717.628 319.882C718.067 320.491 718.683 320.796 719.474 320.796C720.499 320.796 721.252 320.33 721.732 319.398V315.057C721.234 314.148 720.487 313.694 719.491 313.694C718.7 313.694 718.082 314.002 717.637 314.617C717.191 315.232 716.969 316.144 716.969 317.351ZM729.774 322.176C728.485 322.176 727.437 321.754 726.628 320.91C725.819 320.061 725.415 318.927 725.415 317.509V317.21C725.415 316.267 725.594 315.426 725.951 314.688C726.314 313.943 726.818 313.363 727.463 312.947C728.113 312.525 728.816 312.314 729.572 312.314C730.809 312.314 731.77 312.722 732.455 313.536C733.141 314.351 733.483 315.517 733.483 317.034V317.711H727.041C727.064 318.648 727.337 319.407 727.858 319.987C728.386 320.562 729.054 320.849 729.862 320.849C730.437 320.849 730.923 320.731 731.321 320.497C731.72 320.263 732.068 319.952 732.367 319.565L733.36 320.339C732.563 321.563 731.368 322.176 729.774 322.176ZM729.572 313.65C728.916 313.65 728.365 313.891 727.92 314.371C727.475 314.846 727.199 315.514 727.094 316.375H731.857V316.252C731.811 315.426 731.588 314.787 731.189 314.336C730.791 313.879 730.252 313.65 729.572 313.65Z" fill="black"/>
<path fill-rule="evenodd" clip-rule="evenodd" d="M484.402 124.971C484.402 111.18 495.582 100 509.373 100H633.092C639.715 100 646.066 102.631 650.749 107.314C655.432 111.997 658.063 118.348 658.063 124.971C658.063 138.762 646.883 149.942 633.092 149.942H509.373C495.582 149.942 484.402 138.762 484.402 124.971Z" fill="#D9D2E9" stroke="#351C75" stroke-miterlimit="8" stroke-linejoin="round"/>
<path d="M514.231 122.642C514.952 121.757 515.89 121.314 517.044 121.314C519.054 121.314 520.067 122.448 520.085 124.716V131H518.459V124.707C518.453 124.021 518.295 123.515 517.984 123.187C517.68 122.858 517.202 122.694 516.552 122.694C516.024 122.694 515.562 122.835 515.163 123.116C514.765 123.397 514.454 123.767 514.231 124.224V131H512.605V117.5H514.231V122.642ZM526.466 131.176C525.177 131.176 524.128 130.754 523.319 129.91C522.511 129.061 522.106 127.927 522.106 126.509V126.21C522.106 125.267 522.285 124.426 522.643 123.688C523.006 122.943 523.51 122.363 524.154 121.947C524.805 121.525 525.508 121.314 526.264 121.314C527.5 121.314 528.461 121.722 529.146 122.536C529.832 123.351 530.175 124.517 530.175 126.034V126.711H523.732C523.756 127.648 524.028 128.407 524.55 128.987C525.077 129.562 525.745 129.849 526.554 129.849C527.128 129.849 527.614 129.731 528.013 129.497C528.411 129.263 528.76 128.952 529.059 128.565L530.052 129.339C529.255 130.563 528.06 131.176 526.466 131.176ZM526.264 122.65C525.607 122.65 525.057 122.891 524.611 123.371C524.166 123.846 523.891 124.514 523.785 125.375H528.549V125.252C528.502 124.426 528.279 123.787 527.881 123.336C527.482 122.879 526.943 122.65 526.264 122.65ZM533.831 131H532.205V117.5H533.831V131ZM538.208 131H536.582V117.5H538.208V131ZM540.388 126.157C540.388 125.226 540.569 124.388 540.933 123.644C541.302 122.899 541.812 122.325 542.462 121.921C543.118 121.517 543.865 121.314 544.703 121.314C545.998 121.314 547.044 121.763 547.841 122.659C548.644 123.556 549.045 124.748 549.045 126.236V126.351C549.045 127.276 548.866 128.108 548.509 128.847C548.157 129.579 547.65 130.15 546.988 130.561C546.332 130.971 545.576 131.176 544.721 131.176C543.432 131.176 542.386 130.728 541.583 129.831C540.786 128.935 540.388 127.748 540.388 126.271V126.157ZM542.022 126.351C542.022 127.405 542.266 128.252 542.752 128.891C543.244 129.529 543.9 129.849 544.721 129.849C545.547 129.849 546.203 129.526 546.689 128.882C547.176 128.231 547.419 127.323 547.419 126.157C547.419 125.114 547.17 124.271 546.672 123.626C546.18 122.976 545.523 122.65 544.703 122.65C543.9 122.65 543.253 122.97 542.761 123.608C542.269 124.247 542.022 125.161 542.022 126.351ZM560.181 119.592H556.067V131H554.389V119.592H550.284V118.203H560.181V119.592ZM563.45 122.642C564.171 121.757 565.108 121.314 566.263 121.314C568.272 121.314 569.286 122.448 569.304 124.716V131H567.678V124.707C567.672 124.021 567.514 123.515 567.203 123.187C566.898 122.858 566.421 122.694 565.771 122.694C565.243 122.694 564.78 122.835 564.382 123.116C563.983 123.397 563.673 123.767 563.45 124.224V131H561.824V117.5H563.45V122.642ZM575.685 131.176C574.396 131.176 573.347 130.754 572.538 129.91C571.729 129.061 571.325 127.927 571.325 126.509V126.21C571.325 125.267 571.504 124.426 571.861 123.688C572.225 122.943 572.729 122.363 573.373 121.947C574.023 121.525 574.727 121.314 575.482 121.314C576.719 121.314 577.68 121.722 578.365 122.536C579.051 123.351 579.394 124.517 579.394 126.034V126.711H572.951C572.975 127.648 573.247 128.407 573.769 128.987C574.296 129.562 574.964 129.849 575.772 129.849C576.347 129.849 576.833 129.731 577.231 129.497C577.63 129.263 577.979 128.952 578.277 128.565L579.271 129.339C578.474 130.563 577.278 131.176 575.685 131.176ZM575.482 122.65C574.826 122.65 574.275 122.891 573.83 123.371C573.385 123.846 573.109 124.514 573.004 125.375H577.768V125.252C577.721 124.426 577.498 123.787 577.1 123.336C576.701 122.879 576.162 122.65 575.482 122.65ZM585.88 122.949C585.634 122.908 585.367 122.888 585.08 122.888C584.014 122.888 583.29 123.342 582.909 124.25V131H581.283V121.49H582.865L582.892 122.589C583.425 121.739 584.181 121.314 585.159 121.314C585.476 121.314 585.716 121.355 585.88 121.438V122.949ZM591.153 131.176C589.864 131.176 588.815 130.754 588.007 129.91C587.198 129.061 586.794 127.927 586.794 126.509V126.21C586.794 125.267 586.973 124.426 587.33 123.688C587.693 122.943 588.197 122.363 588.842 121.947C589.492 121.525 590.195 121.314 590.951 121.314C592.188 121.314 593.148 121.722 593.834 122.536C594.52 123.351 594.862 124.517 594.862 126.034V126.711H588.42C588.443 127.648 588.716 128.407 589.237 128.987C589.765 129.562 590.433 129.849 591.241 129.849C591.815 129.849 592.302 129.731 592.7 129.497C593.099 129.263 593.447 128.952 593.746 128.565L594.739 129.339C593.942 130.563 592.747 131.176 591.153 131.176ZM590.951 122.65C590.295 122.65 589.744 122.891 589.299 123.371C588.854 123.846 588.578 124.514 588.473 125.375H593.236V125.252C593.189 124.426 592.967 123.787 592.568 123.336C592.17 122.879 591.631 122.65 590.951 122.65ZM599.187 118.203L603.37 128.645L607.554 118.203H609.742V131H608.055V126.017L608.213 120.638L604.012 131H602.72L598.527 120.664L598.694 126.017V131H597.007V118.203H599.187ZM618.004 128.478C618.004 128.038 617.837 127.698 617.503 127.458C617.175 127.212 616.598 127.001 615.771 126.825C614.951 126.649 614.298 126.438 613.812 126.192C613.331 125.946 612.974 125.653 612.739 125.313C612.511 124.974 612.396 124.569 612.396 124.101C612.396 123.321 612.725 122.662 613.381 122.123C614.043 121.584 614.887 121.314 615.912 121.314C616.99 121.314 617.863 121.593 618.531 122.149C619.205 122.706 619.542 123.418 619.542 124.285H617.907C617.907 123.84 617.717 123.456 617.336 123.134C616.961 122.812 616.486 122.65 615.912 122.65C615.32 122.65 614.857 122.779 614.523 123.037C614.189 123.295 614.022 123.632 614.022 124.048C614.022 124.44 614.178 124.736 614.488 124.936C614.799 125.135 615.358 125.325 616.167 125.507C616.981 125.688 617.641 125.905 618.145 126.157C618.648 126.409 619.021 126.714 619.261 127.071C619.507 127.423 619.63 127.854 619.63 128.363C619.63 129.213 619.29 129.896 618.61 130.411C617.931 130.921 617.049 131.176 615.965 131.176C615.203 131.176 614.529 131.041 613.943 130.771C613.357 130.502 612.897 130.127 612.563 129.646C612.235 129.16 612.071 128.636 612.071 128.073H613.697C613.727 128.618 613.943 129.052 614.348 129.374C614.758 129.69 615.297 129.849 615.965 129.849C616.58 129.849 617.072 129.726 617.441 129.479C617.816 129.228 618.004 128.894 618.004 128.478ZM621.361 126.166C621.361 124.684 621.704 123.506 622.39 122.633C623.075 121.754 623.983 121.314 625.114 121.314C626.274 121.314 627.18 121.725 627.83 122.545L627.909 121.49H629.395V130.771C629.395 132.002 629.028 132.972 628.296 133.681C627.569 134.39 626.591 134.744 625.36 134.744C624.675 134.744 624.004 134.598 623.348 134.305C622.691 134.012 622.19 133.61 621.845 133.101L622.688 132.125C623.386 132.986 624.238 133.417 625.246 133.417C626.037 133.417 626.652 133.194 627.092 132.749C627.537 132.304 627.76 131.677 627.76 130.868V130.051C627.109 130.801 626.222 131.176 625.097 131.176C623.983 131.176 623.081 130.728 622.39 129.831C621.704 128.935 621.361 127.713 621.361 126.166ZM622.996 126.351C622.996 127.423 623.216 128.267 623.655 128.882C624.095 129.491 624.71 129.796 625.501 129.796C626.526 129.796 627.279 129.33 627.76 128.398V124.057C627.262 123.148 626.515 122.694 625.519 122.694C624.728 122.694 624.109 123.002 623.664 123.617C623.219 124.232 622.996 125.144 622.996 126.351Z" fill="black"/>
<path fill-rule="evenodd" clip-rule="evenodd" d="M583.256 386.887C583.256 373.095 594.436 361.916 608.227 361.916H731.946C738.569 361.916 744.92 364.547 749.603 369.229C754.286 373.912 756.917 380.264 756.917 386.887C756.917 400.678 745.737 411.857 731.946 411.857H608.227C594.436 411.857 583.256 400.678 583.256 386.887Z" fill="#F4CCCC" stroke="#990000" stroke-miterlimit="8" stroke-linejoin="round"/>
<path d="M640.495 393H638.799V387.085H632.348V393H630.66V380.203H632.348V385.705H638.799V380.203H640.495V393ZM642.807 388.157C642.807 387.226 642.988 386.388 643.352 385.644C643.721 384.899 644.23 384.325 644.881 383.921C645.537 383.517 646.284 383.314 647.122 383.314C648.417 383.314 649.463 383.763 650.26 384.659C651.062 385.556 651.464 386.748 651.464 388.236V388.351C651.464 389.276 651.285 390.108 650.928 390.847C650.576 391.579 650.069 392.15 649.407 392.561C648.751 392.971 647.995 393.176 647.14 393.176C645.851 393.176 644.805 392.728 644.002 391.831C643.205 390.935 642.807 389.748 642.807 388.271V388.157ZM644.441 388.351C644.441 389.405 644.685 390.252 645.171 390.891C645.663 391.529 646.319 391.849 647.14 391.849C647.966 391.849 648.622 391.526 649.108 390.882C649.595 390.231 649.838 389.323 649.838 388.157C649.838 387.114 649.589 386.271 649.091 385.626C648.599 384.976 647.942 384.65 647.122 384.65C646.319 384.65 645.672 384.97 645.18 385.608C644.688 386.247 644.441 387.161 644.441 388.351ZM659.04 390.478C659.04 390.038 658.873 389.698 658.539 389.458C658.211 389.212 657.634 389.001 656.808 388.825C655.987 388.649 655.334 388.438 654.848 388.192C654.367 387.946 654.01 387.653 653.775 387.313C653.547 386.974 653.433 386.569 653.433 386.101C653.433 385.321 653.761 384.662 654.417 384.123C655.079 383.584 655.923 383.314 656.948 383.314C658.026 383.314 658.899 383.593 659.567 384.149C660.241 384.706 660.578 385.418 660.578 386.285H658.943C658.943 385.84 658.753 385.456 658.372 385.134C657.997 384.812 657.522 384.65 656.948 384.65C656.356 384.65 655.894 384.779 655.56 385.037C655.226 385.295 655.059 385.632 655.059 386.048C655.059 386.44 655.214 386.736 655.524 386.936C655.835 387.135 656.395 387.325 657.203 387.507C658.018 387.688 658.677 387.905 659.181 388.157C659.685 388.409 660.057 388.714 660.297 389.071C660.543 389.423 660.666 389.854 660.666 390.363C660.666 391.213 660.326 391.896 659.646 392.411C658.967 392.921 658.085 393.176 657.001 393.176C656.239 393.176 655.565 393.041 654.979 392.771C654.394 392.502 653.934 392.127 653.6 391.646C653.271 391.16 653.107 390.636 653.107 390.073H654.733C654.763 390.618 654.979 391.052 655.384 391.374C655.794 391.69 656.333 391.849 657.001 391.849C657.616 391.849 658.108 391.726 658.478 391.479C658.853 391.228 659.04 390.894 659.04 390.478ZM664.99 381.188V383.49H666.766V384.747H664.99V390.645C664.99 391.025 665.069 391.312 665.228 391.506C665.386 391.693 665.655 391.787 666.036 391.787C666.224 391.787 666.481 391.752 666.81 391.682V393C666.382 393.117 665.966 393.176 665.562 393.176C664.835 393.176 664.287 392.956 663.918 392.517C663.549 392.077 663.364 391.453 663.364 390.645V384.747H661.633V383.49H663.364V381.188H664.99ZM677.629 390.759L681.285 380.203H683.131L678.385 393H676.891L672.153 380.203H673.99L677.629 390.759ZM686.365 393H684.739V383.49H686.365V393ZM684.607 380.968C684.607 380.704 684.687 380.481 684.845 380.3C685.009 380.118 685.249 380.027 685.565 380.027C685.882 380.027 686.122 380.118 686.286 380.3C686.45 380.481 686.532 380.704 686.532 380.968C686.532 381.231 686.45 381.451 686.286 381.627C686.122 381.803 685.882 381.891 685.565 381.891C685.249 381.891 685.009 381.803 684.845 381.627C684.687 381.451 684.607 381.231 684.607 380.968ZM692.922 393.176C691.633 393.176 690.584 392.754 689.775 391.91C688.967 391.061 688.562 389.927 688.562 388.509V388.21C688.562 387.267 688.741 386.426 689.099 385.688C689.462 384.943 689.966 384.363 690.61 383.947C691.261 383.525 691.964 383.314 692.72 383.314C693.956 383.314 694.917 383.722 695.603 384.536C696.288 385.351 696.631 386.517 696.631 388.034V388.711H690.188C690.212 389.648 690.484 390.407 691.006 390.987C691.533 391.562 692.201 391.849 693.01 391.849C693.584 391.849 694.07 391.731 694.469 391.497C694.867 391.263 695.216 390.952 695.515 390.565L696.508 391.339C695.711 392.563 694.516 393.176 692.922 393.176ZM692.72 384.65C692.063 384.65 691.513 384.891 691.067 385.371C690.622 385.846 690.347 386.514 690.241 387.375H695.005V387.252C694.958 386.426 694.735 385.787 694.337 385.336C693.938 384.879 693.399 384.65 692.72 384.65ZM706.94 390.759L708.769 383.49H710.395L707.626 393H706.308L703.996 385.793L701.746 393H700.428L697.668 383.49H699.285L701.157 390.609L703.372 383.49H704.682L706.94 390.759Z" fill="black"/>
<path d="M670.086 341V351.886" stroke="#666666" stroke-miterlimit="8" stroke-linejoin="round"/>
<path fill-rule="evenodd" clip-rule="evenodd" d="M666.791 351.886L670.086 360.939L673.382 351.886H666.791Z" fill="#666666" stroke="#666666" stroke-miterlimit="10"/>
<path fill-rule="evenodd" clip-rule="evenodd" d="M583.256 386.887C583.256 373.095 594.436 361.916 608.227 361.916H731.946C738.569 361.916 744.92 364.547 749.603 369.229C754.286 373.912 756.917 380.264 756.917 386.887C756.917 400.678 745.737 411.857 731.946 411.857H608.227C594.436 411.857 583.256 400.678 583.256 386.887Z" fill="#F4CCCC" stroke="#990000" stroke-miterlimit="8" stroke-linejoin="round"/>
<path d="M656.263 390.759L659.919 380.203H661.765L657.019 393H655.524L650.787 380.203H652.624L656.263 390.759ZM664.999 393H663.373V383.49H664.999V393ZM663.241 380.968C663.241 380.704 663.32 380.481 663.479 380.3C663.643 380.118 663.883 380.027 664.199 380.027C664.516 380.027 664.756 380.118 664.92 380.3C665.084 380.481 665.166 380.704 665.166 380.968C665.166 381.231 665.084 381.451 664.92 381.627C664.756 381.803 664.516 381.891 664.199 381.891C663.883 381.891 663.643 381.803 663.479 381.627C663.32 381.451 663.241 381.231 663.241 380.968ZM671.556 393.176C670.267 393.176 669.218 392.754 668.409 391.91C667.601 391.061 667.196 389.927 667.196 388.509V388.21C667.196 387.267 667.375 386.426 667.732 385.688C668.096 384.943 668.6 384.363 669.244 383.947C669.895 383.525 670.598 383.314 671.354 383.314C672.59 383.314 673.551 383.722 674.236 384.536C674.922 385.351 675.265 386.517 675.265 388.034V388.711H668.822C668.846 389.648 669.118 390.407 669.64 390.987C670.167 391.562 670.835 391.849 671.644 391.849C672.218 391.849 672.704 391.731 673.103 391.497C673.501 391.263 673.85 390.952 674.148 390.565L675.142 391.339C674.345 392.563 673.149 393.176 671.556 393.176ZM671.354 384.65C670.697 384.65 670.146 384.891 669.701 385.371C669.256 385.846 668.98 386.514 668.875 387.375H673.639V387.252C673.592 386.426 673.369 385.787 672.971 385.336C672.572 384.879 672.033 384.65 671.354 384.65ZM685.574 390.759L687.402 383.49H689.028L686.26 393H684.941L682.63 385.793L680.38 393H679.062L676.302 383.49H677.919L679.791 390.609L682.006 383.49H683.315L685.574 390.759Z" fill="black"/>
<path d="M670.086 341V351.886" stroke="#666666" stroke-miterlimit="8" stroke-linejoin="round"/>
<path fill-rule="evenodd" clip-rule="evenodd" d="M666.791 351.886L670.086 360.939L673.382 351.886H666.791Z" fill="#666666" stroke="#666666" stroke-miterlimit="10"/>
</svg>
