<svg width="139" height="193" viewBox="0 0 139 193" fill="none" xmlns="http://www.w3.org/2000/svg">
<path d="M35.2129 33H17.7578V29.6602L26.0371 20.7656C26.6816 20.0625 27.2266 19.4238 27.6719 18.8496C28.1172 18.2754 28.4746 17.7539 28.7441 17.2852C29.0254 16.8047 29.2246 16.3594 29.3418 15.9492C29.4707 15.5391 29.5352 15.1406 29.5352 14.7539C29.5352 14.1797 29.4531 13.6699 29.2891 13.2246C29.125 12.7793 28.8906 12.4043 28.5859 12.0996C28.293 11.7832 27.9355 11.543 27.5137 11.3789C27.1035 11.2148 26.6465 11.1328 26.1426 11.1328C24.7949 11.1328 23.7871 11.5078 23.1191 12.2578C22.4629 13.0078 22.1348 14.0566 22.1348 15.4043H17.2305C17.2305 14.2676 17.4473 13.1953 17.8809 12.1875C18.3145 11.168 18.9238 10.2773 19.709 9.51562C20.5059 8.75391 21.4609 8.15625 22.5742 7.72266C23.6992 7.27734 24.9414 7.05469 26.3008 7.05469C27.6016 7.05469 28.75 7.23633 29.7461 7.59961C30.7539 7.96289 31.5918 8.47266 32.2598 9.12891C32.9395 9.78516 33.4551 10.5762 33.8066 11.502C34.1582 12.416 34.334 13.4297 34.334 14.543C34.334 15.3867 34.1992 16.1953 33.9297 16.9688C33.6719 17.7305 33.2969 18.4863 32.8047 19.2363C32.3242 19.9863 31.7441 20.7539 31.0645 21.5391C30.3848 22.3125 29.6289 23.127 28.7969 23.9824L23.9805 29.0801H35.2129V33Z" fill="#C84646"/>
<path fill-rule="evenodd" clip-rule="evenodd" d="M36.2129 34H16.7578V29.2668L25.3026 20.087C25.9328 19.3994 26.458 18.7831 26.8817 18.2368C27.3077 17.6874 27.6369 17.2047 27.8772 16.7867L27.8811 16.78C28.1321 16.3512 28.2919 15.9838 28.3803 15.6745L28.3839 15.6619L28.3878 15.6494C28.4896 15.3255 28.5352 15.0283 28.5352 14.7539C28.5352 14.2736 28.4664 13.8844 28.3507 13.5703C28.2316 13.2469 28.0712 12.9991 27.8788 12.8067L27.8652 12.7931L27.8522 12.779C27.6674 12.5794 27.439 12.4228 27.1512 12.3109L27.1423 12.3074C26.8657 12.1968 26.537 12.1328 26.1426 12.1328C24.9805 12.1328 24.2884 12.4506 23.8688 12.9197C23.4225 13.4317 23.1348 14.2154 23.1348 15.4043V16.4043H16.2305V15.4043C16.2305 14.1374 16.4727 12.9308 16.9614 11.7942C17.4464 10.6545 18.1311 9.65312 19.0127 8.79789L19.018 8.79273C19.9165 7.93384 20.9848 7.26887 22.2087 6.79186C23.4638 6.29546 24.8319 6.05469 26.3008 6.05469C27.6921 6.05469 28.9598 6.2487 30.087 6.65952C31.2086 7.06404 32.1738 7.64358 32.9573 8.41239C33.7461 9.17479 34.34 10.0904 34.7407 11.1449C35.1414 12.1876 35.334 13.3243 35.334 14.543C35.334 15.4938 35.182 16.4124 34.8755 17.2935C34.5881 18.1413 34.1749 18.9703 33.6437 19.7804C33.1342 20.5753 32.5252 21.3796 31.8205 22.1936L31.8156 22.1992C31.1247 22.9855 30.3588 23.8106 29.5188 24.6744L26.3011 28.0801H36.2129V34ZM23.9805 29.0801L28.7969 23.9824C29.6289 23.127 30.3848 22.3125 31.0645 21.5391C31.7441 20.7539 32.3242 19.9863 32.8047 19.2363C33.2969 18.4863 33.6719 17.7305 33.9297 16.9688C34.1992 16.1953 34.334 15.3867 34.334 14.543C34.334 13.4297 34.1582 12.416 33.8066 11.502C33.4551 10.5762 32.9395 9.78516 32.2598 9.12891C31.5918 8.47266 30.7539 7.96289 29.7461 7.59961C28.75 7.23633 27.6016 7.05469 26.3008 7.05469C24.9414 7.05469 23.6992 7.27734 22.5742 7.72266C21.4609 8.15625 20.5059 8.75391 19.709 9.51562C18.9238 10.2773 18.3145 11.168 17.8809 12.1875C17.5766 12.8947 17.3791 13.6336 17.2883 14.4043C17.2498 14.7319 17.2305 15.0652 17.2305 15.4043H22.1348C22.1348 14.0566 22.4629 13.0078 23.1191 12.2578C23.7871 11.5078 24.7949 11.1328 26.1426 11.1328C26.6465 11.1328 27.1035 11.2148 27.5137 11.3789C27.9355 11.543 28.293 11.7832 28.5859 12.0996C28.8906 12.4043 29.125 12.7793 29.2891 13.2246C29.4531 13.6699 29.5352 14.1797 29.5352 14.7539C29.5352 15.1406 29.4707 15.5391 29.3418 15.9492C29.2246 16.3594 29.0254 16.8047 28.7441 17.2852C28.4746 17.7539 28.1172 18.2754 27.6719 18.8496C27.2266 19.4238 26.6816 20.0625 26.0371 20.7656L17.7578 29.6602V33H35.2129V29.0801H23.9805Z" fill="white"/>
<path d="M78.1426 23.2617C78.1426 24.9141 77.9492 26.373 77.5625 27.6387C77.1875 28.8926 76.6426 29.9473 75.9277 30.8027C75.2129 31.6465 74.3398 32.2852 73.3086 32.7188C72.2773 33.1523 71.1172 33.3691 69.8281 33.3691C68.5508 33.3691 67.3965 33.1523 66.3652 32.7188C65.334 32.2852 64.4551 31.6465 63.7285 30.8027C63.0137 29.9473 62.457 28.8926 62.0586 27.6387C61.6719 26.373 61.4785 24.9141 61.4785 23.2617V17.1445C61.4785 15.4922 61.6719 14.0391 62.0586 12.7852C62.4453 11.5195 62.9961 10.4648 63.7109 9.62109C64.4375 8.76562 65.3105 8.12109 66.3301 7.6875C67.3613 7.25391 68.5156 7.03711 69.793 7.03711C71.082 7.03711 72.2422 7.25391 73.2734 7.6875C74.3047 8.12109 75.1777 8.76562 75.8926 9.62109C76.6191 10.4648 77.1758 11.5195 77.5625 12.7852C77.9492 14.0391 78.1426 15.4922 78.1426 17.1445V23.2617ZM66.4004 21.1523L73.2207 16.0723C73.1855 14.3496 72.8867 13.0723 72.3242 12.2402C71.7617 11.4082 70.918 10.9922 69.793 10.9922C68.6562 10.9922 67.8066 11.4316 67.2441 12.3105C66.6816 13.1895 66.4004 14.543 66.4004 16.3711V21.1523ZM73.2207 19.3945L66.4004 24.457C66.459 26.1445 66.7695 27.3984 67.332 28.2188C67.8945 29.0273 68.7266 29.4316 69.8281 29.4316C70.9766 29.4316 71.8262 28.9863 72.377 28.0957C72.9395 27.2051 73.2207 25.8398 73.2207 24V19.3945Z" fill="#C84646"/>
<path fill-rule="evenodd" clip-rule="evenodd" d="M76.6907 31.4492C75.8729 32.4144 74.8707 33.1467 73.6962 33.6406C72.525 34.133 71.2302 34.3691 69.8281 34.3691C68.4364 34.3691 67.1478 34.1326 65.9776 33.6406C64.8045 33.1473 63.7987 32.4168 62.9707 31.4553L62.9659 31.4496L62.9612 31.444C62.1495 30.4726 61.5364 29.2973 61.1056 27.9415L61.1022 27.9309C60.6804 26.5505 60.4785 24.9896 60.4785 23.2617V17.1445C60.4785 15.4174 60.6802 13.8617 61.1026 12.4917C61.5214 11.1217 62.13 9.94013 62.948 8.97468L62.9487 8.97375C63.7746 8.00132 64.7741 7.26256 65.9387 6.76726L65.9425 6.76566C67.1126 6.27367 68.4013 6.03711 69.793 6.03711C71.195 6.03711 72.4898 6.27323 73.661 6.76567C74.8366 7.25996 75.8385 7.99859 76.6552 8.97421C77.485 9.93964 78.0997 11.1215 78.5186 12.492C78.9409 13.862 79.1426 15.4176 79.1426 17.1445V23.2617C79.1426 24.9885 78.9409 26.5484 78.5197 27.9282C78.1125 29.2885 77.5101 30.4686 76.6951 31.444L76.6907 31.4492ZM77.5625 27.6387C77.9492 26.373 78.1426 24.9141 78.1426 23.2617V17.1445C78.1426 15.4922 77.9492 14.0391 77.5625 12.7852C77.1758 11.5195 76.6191 10.4648 75.8926 9.62109C75.1777 8.76562 74.3047 8.12109 73.2734 7.6875C72.2422 7.25391 71.082 7.03711 69.793 7.03711C68.5156 7.03711 67.3613 7.25391 66.3301 7.6875C65.3105 8.12109 64.4375 8.76562 63.7109 9.62109C62.9961 10.4648 62.4453 11.5195 62.0586 12.7852C61.6719 14.0391 61.4785 15.4922 61.4785 17.1445V23.2617C61.4785 24.9141 61.6719 26.373 62.0586 27.6387C62.457 28.8926 63.0137 29.9473 63.7285 30.8027C64.4551 31.6465 65.334 32.2852 66.3652 32.7188C67.3965 33.1523 68.5508 33.3691 69.8281 33.3691C71.1172 33.3691 72.2773 33.1523 73.3086 32.7188C74.3398 32.2852 75.2129 31.6465 75.9277 30.8027C76.6426 29.9473 77.1875 28.8926 77.5625 27.6387ZM71.5315 27.5617C71.9428 26.9104 72.2207 25.7744 72.2207 24V21.3822L67.4273 24.9402C67.5232 26.2585 67.7971 27.1271 68.1549 27.6505C68.506 28.1536 69.0103 28.4316 69.8281 28.4316C70.6702 28.4316 71.1781 28.1331 71.5264 27.5697L71.5315 27.5617ZM67.332 28.2188C66.7695 27.3984 66.459 26.1445 66.4004 24.457L73.2207 19.3945V24C73.2207 25.8398 72.9395 27.2051 72.377 28.0957C71.8262 28.9863 70.9766 29.4316 69.8281 29.4316C68.7266 29.4316 67.8945 29.0273 67.332 28.2188ZM72.2016 15.5844L67.4004 19.1606V16.3711C67.4004 14.6082 67.6784 13.487 68.0864 12.8496C68.4463 12.2872 68.9609 11.9922 69.793 11.9922C70.6326 11.9922 71.144 12.2799 71.4958 12.8003C71.855 13.3317 72.1242 14.2227 72.2016 15.5844ZM66.4004 21.1523V16.3711C66.4004 14.543 66.6816 13.1895 67.2441 12.3105C67.8066 11.4316 68.6562 10.9922 69.793 10.9922C70.918 10.9922 71.7617 11.4082 72.3242 12.2402C72.8867 13.0723 73.1855 14.3496 73.2207 16.0723L66.4004 21.1523Z" fill="white"/>
<path d="M104.268 33V7.40625H112.863C114.258 7.40625 115.523 7.54688 116.66 7.82812C117.809 8.10938 118.787 8.53711 119.596 9.11133C120.404 9.68555 121.025 10.4121 121.459 11.291C121.904 12.1699 122.127 13.207 122.127 14.4023C122.115 15.5977 121.793 16.6699 121.16 17.6191C120.539 18.5684 119.619 19.2891 118.4 19.7812C119.139 19.9688 119.777 20.25 120.316 20.625C120.855 21 121.301 21.4453 121.652 21.9609C122.016 22.4648 122.279 23.0215 122.443 23.6309C122.619 24.2285 122.707 24.8496 122.707 25.4941C122.707 26.7246 122.496 27.8086 122.074 28.7461C121.652 29.6836 121.049 30.4688 120.264 31.1016C119.479 31.7344 118.523 32.209 117.398 32.5254C116.273 32.8418 115.008 33 113.602 33H104.268ZM109.225 21.7148V29.0098H113.619C114.967 28.998 115.992 28.6699 116.695 28.0254C117.41 27.3691 117.768 26.5137 117.768 25.459C117.779 24.2871 117.463 23.373 116.818 22.7168C116.174 22.0605 115.178 21.7266 113.83 21.7148H109.225ZM109.225 18.1465H112.898C114.27 18.1348 115.324 17.8477 116.062 17.2852C116.801 16.7227 117.176 15.8965 117.188 14.8066C117.188 13.6113 116.818 12.7559 116.08 12.2402C115.342 11.7129 114.275 11.4434 112.881 11.4316H109.225V18.1465Z" fill="#C84646"/>
<path fill-rule="evenodd" clip-rule="evenodd" d="M103.268 34V6.40625H112.863C114.323 6.40625 115.671 6.55334 116.899 6.85713C118.147 7.16276 119.246 7.63638 120.175 8.296C121.115 8.96402 121.846 9.81649 122.353 10.8438C122.882 11.8885 123.127 13.0851 123.127 14.4023V14.4121C123.113 15.7903 122.739 17.0525 121.995 18.1703C121.625 18.7343 121.172 19.2241 120.642 19.6423C120.725 19.6943 120.807 19.7482 120.887 19.8041C121.518 20.2424 122.049 20.7699 122.471 21.3868C122.9 21.9844 123.212 22.6441 123.406 23.3597C123.607 24.0487 123.707 24.7613 123.707 25.4941C123.707 26.8387 123.476 28.0671 122.986 29.1565C122.501 30.2345 121.801 31.1467 120.891 31.8802C119.985 32.6102 118.904 33.1408 117.669 33.488C116.44 33.8337 115.081 34 113.602 34H103.268ZM122.443 23.6309C122.279 23.0215 122.016 22.4648 121.652 21.9609C121.301 21.4453 120.855 21 120.316 20.625C120.126 20.4927 119.924 20.3721 119.709 20.2632C119.314 20.0633 118.878 19.9026 118.4 19.7812C118.855 19.5976 119.268 19.3821 119.64 19.1348C120.264 18.7194 120.771 18.2142 121.16 17.6191C121.793 16.6699 122.115 15.5977 122.127 14.4023C122.127 13.207 121.904 12.1699 121.459 11.291C121.025 10.4121 120.404 9.68555 119.596 9.11133C118.787 8.53711 117.809 8.10938 116.66 7.82812C115.523 7.54688 114.258 7.40625 112.863 7.40625H104.268V33H113.602C115.008 33 116.273 32.8418 117.398 32.5254C118.523 32.209 119.479 31.7344 120.264 31.1016C121.049 30.4688 121.652 29.6836 122.074 28.7461C122.496 27.8086 122.707 26.7246 122.707 25.4941C122.707 24.8496 122.619 24.2285 122.443 23.6309ZM116.768 25.449C116.777 24.4662 116.516 23.836 116.105 23.4175C115.718 23.0237 115.028 22.726 113.826 22.7148H110.225V28.0098H113.615C114.814 27.9987 115.562 27.7074 116.019 27.2883M113.619 29.0098H109.225V21.7148H113.83C115.178 21.7266 116.174 22.0605 116.818 22.7168C117.463 23.373 117.779 24.2871 117.768 25.459C117.768 26.5137 117.41 27.3691 116.695 28.0254C115.992 28.6699 114.967 28.998 113.619 29.0098ZM116.768 25.449L116.768 25.459L116.768 25.449ZM115.499 13.054C114.996 12.695 114.166 12.443 112.877 12.4316H110.225V17.1465H112.894C114.145 17.1352 114.955 16.8716 115.456 16.4897C115.904 16.1486 116.177 15.64 116.187 14.8012C116.186 13.8185 115.893 13.3296 115.507 13.0601L115.499 13.054ZM112.898 18.1465H109.225V11.4316H112.881C114.275 11.4434 115.342 11.7129 116.08 12.2402C116.818 12.7559 117.188 13.6113 117.188 14.8066C117.176 15.8965 116.801 16.7227 116.062 17.2852C115.324 17.8477 114.27 18.1348 112.898 18.1465ZM116.768 25.459C116.768 26.2605 116.508 26.8392 116.019 27.2883L116.768 25.459Z" fill="white"/>
<path d="M34.6328 45.8145H18.6016V42H34.6328V45.8145Z" fill="black"/>
<path fill-rule="evenodd" clip-rule="evenodd" d="M35.6328 46.8145H17.6016V41H35.6328V46.8145ZM34.6328 45.8145V42H18.6016V45.8145H34.6328Z" fill="white"/>
<path d="M77.6328 45.8145H61.6016V42H77.6328V45.8145Z" fill="black"/>
<path fill-rule="evenodd" clip-rule="evenodd" d="M78.6328 46.8145H60.6016V41H78.6328V46.8145ZM77.6328 45.8145V42H61.6016V45.8145H77.6328Z" fill="white"/>
<path d="M120.633 45.8145H104.602V42H120.633V45.8145Z" fill="black"/>
<path fill-rule="evenodd" clip-rule="evenodd" d="M121.633 46.8145H103.602V41H121.633V46.8145ZM120.633 45.8145V42H104.602V45.8145H120.633Z" fill="white"/>
<path d="M19.3779 68H10.9932V66.8311L15.1855 62.1729C15.5605 61.7568 15.874 61.3877 16.126 61.0654C16.3779 60.7432 16.5801 60.4473 16.7324 60.1777C16.8848 59.9023 16.9932 59.6445 17.0576 59.4043C17.1221 59.1582 17.1543 58.9062 17.1543 58.6484C17.1543 58.332 17.1016 58.0361 16.9961 57.7607C16.8965 57.4795 16.7471 57.2363 16.5479 57.0312C16.3545 56.8262 16.1172 56.665 15.8359 56.5479C15.5605 56.4248 15.2471 56.3633 14.8955 56.3633C14.4678 56.3633 14.0957 56.4248 13.7793 56.5479C13.4688 56.6709 13.208 56.8467 12.9971 57.0752C12.792 57.2979 12.6367 57.5703 12.5312 57.8926C12.4316 58.2148 12.3818 58.5752 12.3818 58.9736H10.7471C10.7471 58.4346 10.8408 57.9277 11.0283 57.4531C11.2158 56.9727 11.4854 56.5537 11.8369 56.1963C12.1943 55.8389 12.6279 55.5547 13.1377 55.3438C13.6533 55.1328 14.2393 55.0273 14.8955 55.0273C15.499 55.0273 16.041 55.1182 16.5215 55.2998C17.0078 55.4756 17.418 55.7217 17.752 56.0381C18.0859 56.3545 18.3408 56.7295 18.5166 57.1631C18.6982 57.5967 18.7891 58.0684 18.7891 58.5781C18.7891 58.959 18.7246 59.3369 18.5957 59.7119C18.4668 60.0811 18.291 60.4473 18.0684 60.8105C17.8516 61.1738 17.5967 61.5342 17.3037 61.8916C17.0166 62.2432 16.7119 62.5947 16.3896 62.9463L12.9531 66.6729H19.3779V68Z" fill="black"/>
<path d="M39.1445 55.1943V56.6533H39.0039C38.4648 56.6533 37.9814 56.709 37.5537 56.8203C37.1318 56.9316 36.7598 57.084 36.4375 57.2773C36.1152 57.4707 35.8369 57.7021 35.6025 57.9717C35.374 58.2354 35.1836 58.5254 35.0312 58.8418C34.8789 59.1582 34.7617 59.4893 34.6797 59.835C34.5977 60.1807 34.5449 60.5322 34.5215 60.8896C34.6738 60.708 34.8496 60.541 35.0488 60.3887C35.248 60.2305 35.4619 60.0957 35.6904 59.9844C35.9248 59.8672 36.1738 59.7764 36.4375 59.7119C36.707 59.6416 36.9883 59.6064 37.2812 59.6064C37.9199 59.6064 38.4707 59.7295 38.9336 59.9756C39.3965 60.2158 39.7773 60.5352 40.0762 60.9336C40.375 61.332 40.5947 61.7832 40.7354 62.2871C40.876 62.791 40.9463 63.3037 40.9463 63.8252C40.9463 64.4229 40.8613 64.9854 40.6914 65.5127C40.5273 66.04 40.2783 66.5029 39.9443 66.9014C39.6104 67.2939 39.1943 67.6045 38.6963 67.833C38.2041 68.0615 37.6328 68.1758 36.9824 68.1758C36.5195 68.1758 36.0947 68.1084 35.708 67.9736C35.3271 67.8389 34.9844 67.6572 34.6797 67.4287C34.375 67.1943 34.1084 66.9189 33.8799 66.6025C33.6514 66.2861 33.4609 65.9463 33.3086 65.583C33.1621 65.2197 33.0508 64.8418 32.9746 64.4492C32.8984 64.0566 32.8604 63.6641 32.8604 63.2715V62.5068C32.8604 61.9209 32.8955 61.335 32.9658 60.749C33.042 60.1572 33.168 59.5918 33.3438 59.0527C33.5195 58.5137 33.7568 58.0098 34.0557 57.541C34.3545 57.0664 34.7295 56.6562 35.1807 56.3105C35.6377 55.9648 36.1797 55.6924 36.8066 55.4932C37.4336 55.2939 38.166 55.1943 39.0039 55.1943H39.1445ZM37.0176 60.96C36.7422 60.96 36.4756 61.0039 36.2178 61.0918C35.96 61.1797 35.7197 61.3027 35.4971 61.4609C35.2744 61.6191 35.0781 61.8096 34.9082 62.0322C34.7383 62.2549 34.6035 62.501 34.5039 62.7705V63.3154C34.5039 63.8779 34.5713 64.3789 34.7061 64.8184C34.8408 65.252 35.0225 65.6182 35.251 65.917C35.4795 66.2158 35.7432 66.4443 36.042 66.6025C36.3408 66.7549 36.6543 66.8311 36.9824 66.8311C37.3633 66.8311 37.7002 66.7578 37.9932 66.6113C38.2861 66.4648 38.5322 66.2627 38.7314 66.0049C38.9365 65.7471 39.0889 65.4395 39.1885 65.082C39.2939 64.7188 39.3467 64.3262 39.3467 63.9043C39.3467 63.5293 39.2998 63.166 39.2061 62.8145C39.1123 62.457 38.9688 62.1406 38.7754 61.8652C38.582 61.5898 38.3389 61.3701 38.0459 61.2061C37.7529 61.042 37.4102 60.96 37.0176 60.96Z" fill="black"/>
<path fill-rule="evenodd" clip-rule="evenodd" d="M20.3779 69H9.99316V66.4473L14.4423 61.5039C14.8069 61.0994 15.1047 60.7481 15.3382 60.4495C15.5672 60.1566 15.7382 59.9038 15.8596 59.6896C15.9804 59.4707 16.0523 59.291 16.091 59.148C16.133 58.9867 16.1543 58.8209 16.1543 58.6484C16.1543 58.4453 16.1209 58.2715 16.0622 58.1184L16.0577 58.1065L16.0535 58.0946C15.9998 57.9431 15.925 57.8253 15.8306 57.728L15.8254 57.7227L15.8203 57.7173C15.7309 57.6225 15.6135 57.5385 15.4513 57.4709L15.4396 57.466L15.428 57.4609C15.3005 57.4039 15.1296 57.3633 14.8955 57.3633C14.5627 57.3633 14.3196 57.4112 14.1446 57.4787C13.9648 57.5504 13.8335 57.6435 13.7323 57.753C13.6367 57.8569 13.5501 57.9976 13.4842 58.1958C13.4204 58.4055 13.3818 58.6616 13.3818 58.9736V59.9736H9.74707V58.9736C9.74707 58.3167 9.86173 57.6852 10.0975 57.0877C10.3328 56.4855 10.6751 55.9514 11.124 55.495L11.1298 55.4892C11.5883 55.0306 12.1353 54.6763 12.7553 54.4197L12.7591 54.4182C13.4142 54.1502 14.1321 54.0273 14.8955 54.0273C15.5965 54.0273 16.2588 54.1325 16.8682 54.3618C17.4652 54.5785 17.9958 54.8916 18.4397 55.3121C18.8779 55.7273 19.2127 56.2205 19.4412 56.7821C19.6767 57.3465 19.7891 57.949 19.7891 58.5781C19.7891 59.0741 19.7048 59.5617 19.5414 60.037L19.5398 60.0416C19.386 60.482 19.1793 60.9109 18.9241 61.328C18.6805 61.7356 18.3977 62.1344 18.0777 62.5248C17.7781 62.8916 17.4611 63.2573 17.1268 63.622L17.1248 63.6242L15.2356 65.6729H20.3779V69ZM12.9531 66.6729L16.3896 62.9463C16.7119 62.5947 17.0166 62.2432 17.3037 61.8916C17.5967 61.5342 17.8516 61.1738 18.0684 60.8105C18.291 60.4473 18.4668 60.0811 18.5957 59.7119C18.7246 59.3369 18.7891 58.959 18.7891 58.5781C18.7891 58.0684 18.6982 57.5967 18.5166 57.1631C18.3408 56.7295 18.0859 56.3545 17.752 56.0381C17.418 55.7217 17.0078 55.4756 16.5215 55.2998C16.041 55.1182 15.499 55.0273 14.8955 55.0273C14.2393 55.0273 13.6533 55.1328 13.1377 55.3438C12.6279 55.5547 12.1943 55.8389 11.8369 56.1963C11.4854 56.5537 11.2158 56.9727 11.0283 57.4531C10.9614 57.6225 10.9064 57.796 10.8634 57.9736C10.7858 58.2936 10.7471 58.627 10.7471 58.9736H12.3818C12.3818 58.5752 12.4316 58.2148 12.5312 57.8926C12.6367 57.5703 12.792 57.2979 12.9971 57.0752C13.208 56.8467 13.4688 56.6709 13.7793 56.5479C14.0957 56.4248 14.4678 56.3633 14.8955 56.3633C15.2471 56.3633 15.5605 56.4248 15.8359 56.5479C16.1172 56.665 16.3545 56.8262 16.5479 57.0312C16.7471 57.2363 16.8965 57.4795 16.9961 57.7607C17.1016 58.0361 17.1543 58.332 17.1543 58.6484C17.1543 58.9062 17.1221 59.1582 17.0576 59.4043C16.9932 59.6445 16.8848 59.9023 16.7324 60.1777C16.5801 60.4473 16.3779 60.7432 16.126 61.0654C15.874 61.3877 15.5605 61.7568 15.1855 62.1729L10.9932 66.8311V68H19.3779V66.6729H12.9531ZM40.1445 54.1943V57.6533H39.0039C38.5327 57.6533 38.1367 57.7021 37.8072 57.7877C37.4629 57.8786 37.1813 57.9973 36.952 58.1348C36.7153 58.2768 36.5194 58.4414 36.3576 58.6273C36.3311 58.658 36.3052 58.6891 36.28 58.7207C36.6062 58.6438 36.9406 58.6064 37.2812 58.6064C38.0464 58.6064 38.7639 58.7539 39.3985 59.0902C39.9863 59.396 40.4839 59.8106 40.8762 60.3336C41.2532 60.8363 41.5263 61.4009 41.6985 62.0183C41.8635 62.6094 41.9463 63.2126 41.9463 63.8252C41.9463 64.5171 41.848 65.1821 41.6447 65.8147C41.4438 66.4585 41.1339 67.0389 40.7107 67.5438L40.706 67.5494C40.2721 68.0594 39.7365 68.4556 39.1154 68.741C38.4682 69.041 37.749 69.1758 36.9824 69.1758C36.4219 69.1758 35.8843 69.094 35.3789 68.9179L35.3744 68.9164C34.9039 68.7498 34.4702 68.5216 34.0797 68.2287L34.0699 68.2214C33.6874 67.9271 33.3535 67.5816 33.0692 67.188C32.7956 66.8093 32.5679 66.4026 32.3864 65.9697L32.3811 65.957C32.2102 65.5332 32.081 65.0937 31.9929 64.6397C31.9048 64.1855 31.8604 63.7292 31.8604 63.2715V62.5068C31.8604 61.8808 31.8979 61.2551 31.9729 60.6299L31.974 60.6214C32.0577 59.9708 32.1969 59.3442 32.393 58.7427C32.5941 58.1261 32.8666 57.5463 33.2109 57.0059C33.5736 56.4305 34.0291 55.9331 34.5724 55.5168L34.5774 55.513C35.1373 55.0895 35.7844 54.7687 36.5038 54.5401C37.2512 54.3026 38.09 54.1943 39.0039 54.1943H40.1445ZM34.0557 57.541C33.7568 58.0098 33.5195 58.5137 33.3438 59.0527C33.168 59.5918 33.042 60.1572 32.9658 60.749C32.8955 61.335 32.8604 61.9209 32.8604 62.5068V63.2715C32.8604 63.6641 32.8984 64.0566 32.9746 64.4492C33.0508 64.8418 33.1621 65.2197 33.3086 65.583C33.4609 65.9463 33.6514 66.2861 33.8799 66.6025C34.1084 66.9189 34.375 67.1943 34.6797 67.4287C34.9844 67.6572 35.3271 67.8389 35.708 67.9736C36.0947 68.1084 36.5195 68.1758 36.9824 68.1758C37.6328 68.1758 38.2041 68.0615 38.6963 67.833C39.1943 67.6045 39.6104 67.2939 39.9443 66.9014C40.2783 66.5029 40.5273 66.04 40.6914 65.5127C40.8613 64.9854 40.9463 64.4229 40.9463 63.8252C40.9463 63.3037 40.876 62.791 40.7354 62.2871C40.5947 61.7832 40.375 61.332 40.0762 60.9336C39.7773 60.5352 39.3965 60.2158 38.9336 59.9756C38.4707 59.7295 37.9199 59.6064 37.2812 59.6064C36.9883 59.6064 36.707 59.6416 36.4375 59.7119C36.1738 59.7764 35.9248 59.8672 35.6904 59.9844C35.6837 59.9876 35.677 59.9909 35.6704 59.9942C35.6365 60.011 35.6029 60.0283 35.5696 60.0461C35.3861 60.1445 35.2125 60.2587 35.0488 60.3887C34.8496 60.541 34.6738 60.708 34.5215 60.8896C34.5434 60.5559 34.5908 60.2273 34.6638 59.9038C34.6648 59.899 34.6659 59.8942 34.667 59.8894C34.6712 59.8712 34.6754 59.8531 34.6797 59.835C34.7214 59.6591 34.7723 59.487 34.8322 59.3187C34.8901 59.1562 34.9564 58.9972 35.0312 58.8418C35.1836 58.5254 35.374 58.2354 35.6025 57.9717C35.8369 57.7021 36.1152 57.4707 36.4375 57.2773C36.7598 57.084 37.1318 56.9316 37.5537 56.8203C37.9814 56.709 38.4648 56.6533 39.0039 56.6533H39.1445V55.1943H39.0039C38.7039 55.1943 38.4175 55.2071 38.1445 55.2326C37.6551 55.2784 37.2091 55.3653 36.8066 55.4932C36.1797 55.6924 35.6377 55.9648 35.1807 56.3105C34.7295 56.6562 34.3545 57.0664 34.0557 57.541ZM39.2061 62.8145C39.1123 62.457 38.9688 62.1406 38.7754 61.8652C38.582 61.5898 38.3389 61.3701 38.0459 61.2061C37.7529 61.042 37.4102 60.96 37.0176 60.96C36.7422 60.96 36.4756 61.0039 36.2178 61.0918C35.96 61.1797 35.7197 61.3027 35.4971 61.4609C35.2744 61.6191 35.0781 61.8096 34.9082 62.0322C34.7383 62.2549 34.6035 62.501 34.5039 62.7705V63.3154C34.5039 63.8779 34.5713 64.3789 34.7061 64.8184C34.8408 65.252 35.0225 65.6182 35.251 65.917C35.4795 66.2158 35.7432 66.4443 36.042 66.6025C36.3408 66.7549 36.6543 66.8311 36.9824 66.8311C37.3633 66.8311 37.7002 66.7578 37.9932 66.6113C38.2861 66.4648 38.5322 66.2627 38.7314 66.0049C38.9365 65.7471 39.0889 65.4395 39.1885 65.082C39.2939 64.7188 39.3467 64.3262 39.3467 63.9043C39.3467 63.5293 39.2998 63.166 39.2061 62.8145ZM36.5031 65.7151C36.6621 65.795 36.8182 65.8311 36.9824 65.8311C37.2333 65.8311 37.4128 65.7835 37.5459 65.7169C37.7052 65.6373 37.8334 65.5316 37.9402 65.3934L37.9488 65.3823C38.0606 65.2417 38.157 65.0583 38.2252 64.8136L38.2281 64.8032C38.3044 64.5403 38.3467 64.2425 38.3467 63.9043C38.3467 63.6136 38.3105 63.3371 38.2398 63.0721L38.2388 63.0682C38.1722 62.8144 38.0756 62.6089 37.957 62.4399C37.8496 62.287 37.7191 62.1692 37.5573 62.0786C37.4371 62.0113 37.2682 61.96 37.0176 61.96C36.8507 61.96 36.6932 61.9862 36.5404 62.0383C36.3743 62.0949 36.2204 62.1737 36.0763 62.2761C35.9377 62.3746 35.8136 62.4941 35.7032 62.6389C35.6261 62.7399 35.5596 62.8492 35.5039 62.9685V63.3154C35.5039 63.799 35.5619 64.1977 35.6615 64.5233C35.7684 64.8664 35.9015 65.1214 36.0453 65.3095C36.194 65.504 36.3478 65.6316 36.5031 65.7151Z" fill="white"/>
<path d="M56.6309 126.973H48.2461V125.804L52.4385 121.146C52.8135 120.729 53.127 120.36 53.3789 120.038C53.6309 119.716 53.833 119.42 53.9854 119.15C54.1377 118.875 54.2461 118.617 54.3105 118.377C54.375 118.131 54.4072 117.879 54.4072 117.621C54.4072 117.305 54.3545 117.009 54.249 116.733C54.1494 116.452 54 116.209 53.8008 116.004C53.6074 115.799 53.3701 115.638 53.0889 115.521C52.8135 115.397 52.5 115.336 52.1484 115.336C51.7207 115.336 51.3486 115.397 51.0322 115.521C50.7217 115.644 50.4609 115.819 50.25 116.048C50.0449 116.271 49.8896 116.543 49.7842 116.865C49.6846 117.188 49.6348 117.548 49.6348 117.946H48C48 117.407 48.0938 116.9 48.2812 116.426C48.4688 115.945 48.7383 115.526 49.0898 115.169C49.4473 114.812 49.8809 114.527 50.3906 114.316C50.9062 114.105 51.4922 114 52.1484 114C52.752 114 53.2939 114.091 53.7744 114.272C54.2607 114.448 54.6709 114.694 55.0049 115.011C55.3389 115.327 55.5938 115.702 55.7695 116.136C55.9512 116.569 56.042 117.041 56.042 117.551C56.042 117.932 55.9775 118.31 55.8486 118.685C55.7197 119.054 55.5439 119.42 55.3213 119.783C55.1045 120.146 54.8496 120.507 54.5566 120.864C54.2695 121.216 53.9648 121.567 53.6426 121.919L50.2061 125.646H56.6309V126.973Z" fill="black"/>
<path fill-rule="evenodd" clip-rule="evenodd" d="M57.6309 127.973H47.2461V125.42L51.6952 120.477C52.0598 120.072 52.3577 119.721 52.5911 119.422C52.8201 119.129 52.9911 118.876 53.1125 118.662C53.2333 118.443 53.3053 118.264 53.3439 118.121C53.3859 117.959 53.4072 117.794 53.4072 117.621C53.4072 117.418 53.3738 117.244 53.3152 117.091L53.3106 117.079L53.3064 117.067C53.2527 116.916 53.178 116.798 53.0835 116.701L53.0783 116.695L53.0732 116.69C52.9838 116.595 52.8664 116.511 52.7043 116.444L52.6925 116.439L52.6809 116.434C52.5534 116.377 52.3825 116.336 52.1484 116.336C51.8156 116.336 51.5725 116.384 51.3976 116.451C51.2178 116.523 51.0864 116.616 50.9853 116.726C50.8896 116.83 50.8031 116.97 50.7371 117.168C50.6733 117.378 50.6348 117.634 50.6348 117.946V118.946H47V117.946C47 117.289 47.1147 116.658 47.3504 116.06C47.5857 115.458 47.9281 114.924 48.3769 114.468L48.3827 114.462C48.8413 114.003 49.3882 113.649 50.0083 113.392L50.012 113.391C50.6672 113.123 51.3851 113 52.1484 113C52.8494 113 53.5117 113.105 54.1212 113.334C54.7181 113.551 55.2487 113.864 55.6926 114.285C56.1308 114.7 56.4656 115.193 56.6941 115.755C56.9297 116.319 57.042 116.922 57.042 117.551C57.042 118.047 56.9577 118.534 56.7943 119.01L56.7927 119.014C56.6389 119.455 56.4322 119.884 56.177 120.301C55.9334 120.708 55.6506 121.107 55.3306 121.497C55.031 121.864 54.714 122.23 54.3797 122.595L54.3777 122.597L52.4885 124.646H57.6309V127.973ZM50.2061 125.646L53.6426 121.919C53.9648 121.567 54.2695 121.216 54.5566 120.864C54.8496 120.507 55.1045 120.146 55.3213 119.783C55.5439 119.42 55.7197 119.054 55.8486 118.685C55.9775 118.31 56.042 117.932 56.042 117.551C56.042 117.041 55.9512 116.569 55.7695 116.136C55.5938 115.702 55.3389 115.327 55.0049 115.011C54.6709 114.694 54.2607 114.448 53.7744 114.272C53.2939 114.091 52.752 114 52.1484 114C51.4922 114 50.9062 114.105 50.3906 114.316C49.8809 114.527 49.4473 114.812 49.0898 115.169C48.7383 115.526 48.4688 115.945 48.2812 116.426C48.2143 116.595 48.1593 116.769 48.1163 116.946C48.0388 117.266 48 117.6 48 117.946H49.6348C49.6348 117.548 49.6846 117.188 49.7842 116.865C49.8896 116.543 50.0449 116.271 50.25 116.048C50.4609 115.819 50.7217 115.644 51.0322 115.521C51.3486 115.397 51.7207 115.336 52.1484 115.336C52.5 115.336 52.8135 115.397 53.0889 115.521C53.3701 115.638 53.6074 115.799 53.8008 116.004C54 116.209 54.1494 116.452 54.249 116.733C54.3545 117.009 54.4072 117.305 54.4072 117.621C54.4072 117.879 54.375 118.131 54.3105 118.377C54.2461 118.617 54.1377 118.875 53.9854 119.15C53.833 119.42 53.6309 119.716 53.3789 120.038C53.127 120.36 52.8135 120.729 52.4385 121.146L48.2461 125.804V126.973H56.6309V125.646H50.2061Z" fill="white"/>
<path d="M65.8027 68H64.1768V57.2773L60.8281 58.5518V57.0664L65.6709 55.2031H65.8027V68Z" fill="black"/>
<path d="M77.334 55.1943V56.6533H77.1934C76.6543 56.6533 76.1709 56.709 75.7432 56.8203C75.3213 56.9316 74.9492 57.084 74.627 57.2773C74.3047 57.4707 74.0264 57.7021 73.792 57.9717C73.5635 58.2354 73.373 58.5254 73.2207 58.8418C73.0684 59.1582 72.9512 59.4893 72.8691 59.835C72.7871 60.1807 72.7344 60.5322 72.7109 60.8896C72.8633 60.708 73.0391 60.541 73.2383 60.3887C73.4375 60.2305 73.6514 60.0957 73.8799 59.9844C74.1143 59.8672 74.3633 59.7764 74.627 59.7119C74.8965 59.6416 75.1777 59.6064 75.4707 59.6064C76.1094 59.6064 76.6602 59.7295 77.123 59.9756C77.5859 60.2158 77.9668 60.5352 78.2656 60.9336C78.5645 61.332 78.7842 61.7832 78.9248 62.2871C79.0654 62.791 79.1357 63.3037 79.1357 63.8252C79.1357 64.4229 79.0508 64.9854 78.8809 65.5127C78.7168 66.04 78.4678 66.5029 78.1338 66.9014C77.7998 67.2939 77.3838 67.6045 76.8857 67.833C76.3936 68.0615 75.8223 68.1758 75.1719 68.1758C74.709 68.1758 74.2842 68.1084 73.8975 67.9736C73.5166 67.8389 73.1738 67.6572 72.8691 67.4287C72.5645 67.1943 72.2979 66.9189 72.0693 66.6025C71.8408 66.2861 71.6504 65.9463 71.498 65.583C71.3516 65.2197 71.2402 64.8418 71.1641 64.4492C71.0879 64.0566 71.0498 63.6641 71.0498 63.2715V62.5068C71.0498 61.9209 71.085 61.335 71.1553 60.749C71.2314 60.1572 71.3574 59.5918 71.5332 59.0527C71.709 58.5137 71.9463 58.0098 72.2451 57.541C72.5439 57.0664 72.9189 56.6562 73.3701 56.3105C73.8271 55.9648 74.3691 55.6924 74.9961 55.4932C75.623 55.2939 76.3555 55.1943 77.1934 55.1943H77.334ZM75.207 60.96C74.9316 60.96 74.665 61.0039 74.4072 61.0918C74.1494 61.1797 73.9092 61.3027 73.6865 61.4609C73.4639 61.6191 73.2676 61.8096 73.0977 62.0322C72.9277 62.2549 72.793 62.501 72.6934 62.7705V63.3154C72.6934 63.8779 72.7607 64.3789 72.8955 64.8184C73.0303 65.252 73.2119 65.6182 73.4404 65.917C73.6689 66.2158 73.9326 66.4443 74.2314 66.6025C74.5303 66.7549 74.8438 66.8311 75.1719 66.8311C75.5527 66.8311 75.8896 66.7578 76.1826 66.6113C76.4756 66.4648 76.7217 66.2627 76.9209 66.0049C77.126 65.7471 77.2783 65.4395 77.3779 65.082C77.4834 64.7188 77.5361 64.3262 77.5361 63.9043C77.5361 63.5293 77.4893 63.166 77.3955 62.8145C77.3018 62.457 77.1582 62.1406 76.9648 61.8652C76.7715 61.5898 76.5283 61.3701 76.2354 61.2061C75.9424 61.042 75.5996 60.96 75.207 60.96Z" fill="black"/>
<path fill-rule="evenodd" clip-rule="evenodd" d="M66.8027 69H63.1768V58.7279L59.8281 60.0023V56.3797L65.4852 54.2031H66.8027V69ZM64.1768 57.2773V68H65.8027V55.2031H65.6709L60.8281 57.0664V58.5518L64.1768 57.2773ZM78.334 54.1943V57.6533H77.1934C76.7222 57.6533 76.3262 57.7021 75.9966 57.7877C75.6524 57.8786 75.3707 57.9973 75.1414 58.1348C74.9048 58.2768 74.7089 58.4414 74.5471 58.6273C74.5205 58.658 74.4946 58.6891 74.4695 58.7207C74.7956 58.6438 75.1301 58.6064 75.4707 58.6064C76.2359 58.6064 76.9533 58.7539 77.5879 59.0902C78.1758 59.396 78.6734 59.8106 79.0656 60.3336C79.4427 60.8363 79.7157 61.4009 79.888 62.0183C80.053 62.6094 80.1357 63.2126 80.1357 63.8252C80.1357 64.5171 80.0374 65.1821 79.8342 65.8147C79.6332 66.4585 79.3234 67.0389 78.9002 67.5438L78.8955 67.5494C78.4616 68.0594 77.926 68.4556 77.3048 68.741C76.6576 69.041 75.9385 69.1758 75.1719 69.1758C74.6114 69.1758 74.0737 69.094 73.5684 68.9179L73.5639 68.9164C73.0933 68.7498 72.6597 68.5216 72.2691 68.2287L72.2594 68.2214C71.8769 67.9271 71.5429 67.5816 71.2587 67.188C70.9851 66.8093 70.7574 66.4026 70.5759 65.9697L70.5705 65.957C70.3996 65.5332 70.2705 65.0937 70.1824 64.6397C70.0942 64.1855 70.0498 63.7292 70.0498 63.2715V62.5068C70.0498 61.8808 70.0874 61.2551 70.1624 60.6299L70.1634 60.6214C70.2471 59.9708 70.3864 59.3442 70.5825 58.7427C70.7836 58.126 71.0561 57.5462 71.4005 57.0057C71.7631 56.4304 72.2186 55.9331 72.7619 55.5168L72.7668 55.513C73.3268 55.0895 73.9738 54.7687 74.6933 54.5401C75.4407 54.3026 76.2794 54.1943 77.1934 54.1943H78.334ZM72.2451 57.541C71.9463 58.0098 71.709 58.5137 71.5332 59.0527C71.3574 59.5918 71.2314 60.1572 71.1553 60.749C71.085 61.335 71.0498 61.9209 71.0498 62.5068V63.2715C71.0498 63.6641 71.0879 64.0566 71.1641 64.4492C71.2402 64.8418 71.3516 65.2197 71.498 65.583C71.6504 65.9463 71.8408 66.2861 72.0693 66.6025C72.2979 66.9189 72.5645 67.1943 72.8691 67.4287C73.1738 67.6572 73.5166 67.8389 73.8975 67.9736C74.2842 68.1084 74.709 68.1758 75.1719 68.1758C75.8223 68.1758 76.3936 68.0615 76.8857 67.833C77.3838 67.6045 77.7998 67.2939 78.1338 66.9014C78.4678 66.5029 78.7168 66.04 78.8809 65.5127C79.0508 64.9854 79.1357 64.4229 79.1357 63.8252C79.1357 63.3037 79.0654 62.791 78.9248 62.2871C78.7842 61.7832 78.5645 61.332 78.2656 60.9336C77.9668 60.5352 77.5859 60.2158 77.123 59.9756C76.6602 59.7295 76.1094 59.6064 75.4707 59.6064C75.1777 59.6064 74.8965 59.6416 74.627 59.7119C74.3633 59.7764 74.1143 59.8672 73.8799 59.9844C73.8732 59.9876 73.8665 59.9909 73.8598 59.9942C73.8259 60.011 73.7923 60.0283 73.7591 60.0461C73.5756 60.1445 73.402 60.2587 73.2383 60.3887C73.0391 60.541 72.8633 60.708 72.7109 60.8896C72.7328 60.5559 72.7802 60.2273 72.8532 59.9038C72.8543 59.899 72.8554 59.8942 72.8565 59.8894C72.8606 59.8712 72.8648 59.8531 72.8691 59.835C72.9109 59.6591 72.9617 59.487 73.0216 59.3187C73.0795 59.1562 73.1459 58.9972 73.2207 58.8418C73.373 58.5254 73.5635 58.2354 73.792 57.9717C74.0264 57.7021 74.3047 57.4707 74.627 57.2773C74.9492 57.084 75.3213 56.9316 75.7432 56.8203C76.1709 56.709 76.6543 56.6533 77.1934 56.6533H77.334V55.1943H77.1934C76.8934 55.1943 76.6069 55.2071 76.334 55.2326C75.8446 55.2784 75.3986 55.3653 74.9961 55.4932C74.3691 55.6924 73.8271 55.9648 73.3701 56.3105C72.9189 56.6562 72.5439 57.0664 72.2451 57.541ZM77.3955 62.8145C77.3018 62.457 77.1582 62.1406 76.9648 61.8652C76.7715 61.5898 76.5283 61.3701 76.2354 61.2061C75.9424 61.042 75.5996 60.96 75.207 60.96C74.9316 60.96 74.665 61.0039 74.4072 61.0918C74.1494 61.1797 73.9092 61.3027 73.6865 61.4609C73.4639 61.6191 73.2676 61.8096 73.0977 62.0322C72.9277 62.2549 72.793 62.501 72.6934 62.7705V63.3154C72.6934 63.8779 72.7607 64.3789 72.8955 64.8184C73.0303 65.252 73.2119 65.6182 73.4404 65.917C73.6689 66.2158 73.9326 66.4443 74.2314 66.6025C74.5303 66.7549 74.8438 66.8311 75.1719 66.8311C75.5527 66.8311 75.8896 66.7578 76.1826 66.6113C76.4756 66.4648 76.7217 66.2627 76.9209 66.0049C77.126 65.7471 77.2783 65.4395 77.3779 65.082C77.4834 64.7188 77.5361 64.3262 77.5361 63.9043C77.5361 63.5293 77.4893 63.166 77.3955 62.8145ZM74.6926 65.7151C74.8516 65.795 75.0076 65.8311 75.1719 65.8311C75.4227 65.8311 75.6022 65.7835 75.7354 65.7169C75.8946 65.6373 76.0229 65.5316 76.1296 65.3934L76.1382 65.3823C76.2501 65.2417 76.3464 65.0583 76.4146 64.8136L76.4175 64.8032C76.4939 64.5403 76.5361 64.2425 76.5361 63.9043C76.5361 63.6136 76.4999 63.3371 76.4293 63.0721L76.4282 63.0682C76.3617 62.8144 76.2651 62.6089 76.1464 62.4399C76.0391 62.287 75.9085 62.1692 75.7467 62.0786C75.6266 62.0113 75.4576 61.96 75.207 61.96C75.0402 61.96 74.8827 61.9862 74.7299 62.0383C74.5637 62.0949 74.4099 62.1737 74.2657 62.2761C74.1271 62.3746 74.0031 62.4941 73.8926 62.6389C73.8156 62.7399 73.7491 62.8492 73.6934 62.9685V63.3154C73.6934 63.799 73.7514 64.1977 73.851 64.5233C73.9578 64.8664 74.0909 65.1214 74.2348 65.3095C74.3835 65.504 74.5372 65.6316 74.6926 65.7151Z" fill="white"/>
<path d="M81.8027 127H80.1768V116.277L76.8281 117.552V116.066L81.6709 114.203H81.8027V127Z" fill="black"/>
<path d="M92.6133 127H90.9873V116.277L87.6387 117.552V116.066L92.4814 114.203H92.6133V127Z" fill="black"/>
<path fill-rule="evenodd" clip-rule="evenodd" d="M82.8027 128H79.1768V117.728L75.8281 119.002V115.38L81.4852 113.203H82.8027V128ZM80.1768 116.277V127H81.8027V114.203H81.6709L76.8281 116.066V117.552L80.1768 116.277ZM93.6133 128H89.9873V117.728L86.6387 119.002V115.38L92.2957 113.203H93.6133V128ZM90.9873 116.277V127H92.6133V114.203H92.4814L87.6387 116.066V117.552L90.9873 116.277Z" fill="white"/>
<path d="M113.803 68H112.177V57.2773L108.828 58.5518V57.0664L113.671 55.2031H113.803V68Z" fill="black"/>
<path fill-rule="evenodd" clip-rule="evenodd" d="M114.803 69H111.177V58.7279L107.828 60.0023V56.3797L113.485 54.2031H114.803V69ZM112.177 57.2773V68H113.803V55.2031H113.671L108.828 57.0664V58.5518L112.177 57.2773Z" fill="white"/>
<path d="M43.6133 127H41.9873V116.277L38.6387 117.552V116.066L43.4814 114.203H43.6133V127Z" fill="black"/>
<path d="M56.999 127H48.6143V125.831L52.8066 121.173C53.1816 120.757 53.4951 120.388 53.7471 120.065C53.999 119.743 54.2012 119.447 54.3535 119.178C54.5059 118.902 54.6143 118.645 54.6787 118.404C54.7432 118.158 54.7754 117.906 54.7754 117.648C54.7754 117.332 54.7227 117.036 54.6172 116.761C54.5176 116.479 54.3682 116.236 54.1689 116.031C53.9756 115.826 53.7383 115.665 53.457 115.548C53.1816 115.425 52.8682 115.363 52.5166 115.363C52.0889 115.363 51.7168 115.425 51.4004 115.548C51.0898 115.671 50.8291 115.847 50.6182 116.075C50.4131 116.298 50.2578 116.57 50.1523 116.893C50.0527 117.215 50.0029 117.575 50.0029 117.974H48.3682C48.3682 117.435 48.4619 116.928 48.6494 116.453C48.8369 115.973 49.1064 115.554 49.458 115.196C49.8154 114.839 50.249 114.555 50.7588 114.344C51.2744 114.133 51.8604 114.027 52.5166 114.027C53.1201 114.027 53.6621 114.118 54.1426 114.3C54.6289 114.476 55.0391 114.722 55.373 115.038C55.707 115.354 55.9619 115.729 56.1377 116.163C56.3193 116.597 56.4102 117.068 56.4102 117.578C56.4102 117.959 56.3457 118.337 56.2168 118.712C56.0879 119.081 55.9121 119.447 55.6895 119.811C55.4727 120.174 55.2178 120.534 54.9248 120.892C54.6377 121.243 54.333 121.595 54.0107 121.946L50.5742 125.673H56.999V127Z" fill="black"/>
<path fill-rule="evenodd" clip-rule="evenodd" d="M44.6133 128H40.9873V117.728L37.6387 119.002V115.38L43.2957 113.203H44.6133V128ZM41.9873 116.277V127H43.6133V114.203H43.4814L38.6387 116.066V117.552L41.9873 116.277Z" fill="white"/>
<g filter="url(#filter0_dddd)">
<path fill-rule="evenodd" clip-rule="evenodd" d="M73.0711 151.343L66.7071 157.707C66.3166 158.098 65.6834 158.098 65.2929 157.707L58.9289 151.343C58.5384 150.953 58.5384 150.319 58.9289 149.929C59.3195 149.538 59.9526 149.538 60.3431 149.929L65 154.586L65 140L67 140L67 154.586L71.6569 149.929C72.0474 149.538 72.6805 149.538 73.0711 149.929C73.4616 150.319 73.4616 150.953 73.0711 151.343Z" fill="black"/>
</g>
<path d="M67.2402 120.136H70.8174V121.753H67.2402V125.717H65.6143V121.753H62.0459V120.136H65.6143V116.4H67.2402V120.136Z" fill="black"/>
<path fill-rule="evenodd" clip-rule="evenodd" d="M71.8174 119.136V122.753H68.2402V126.717H64.6143V122.753H61.0459V119.136H64.6143V115.4H68.2402V119.136H71.8174ZM65.6143 120.136H62.0459V121.753H65.6143V125.717H67.2402V121.753H70.8174V120.136H67.2402V116.4H65.6143V120.136Z" fill="white"/>
<path d="M69.1885 183H60.8037V181.831L64.9961 177.173C65.3711 176.757 65.6846 176.388 65.9365 176.065C66.1885 175.743 66.3906 175.447 66.543 175.178C66.6953 174.902 66.8037 174.645 66.8682 174.404C66.9326 174.158 66.9648 173.906 66.9648 173.648C66.9648 173.332 66.9121 173.036 66.8066 172.761C66.707 172.479 66.5576 172.236 66.3584 172.031C66.165 171.826 65.9277 171.665 65.6465 171.548C65.3711 171.425 65.0576 171.363 64.7061 171.363C64.2783 171.363 63.9062 171.425 63.5898 171.548C63.2793 171.671 63.0186 171.847 62.8076 172.075C62.6025 172.298 62.4473 172.57 62.3418 172.893C62.2422 173.215 62.1924 173.575 62.1924 173.974H60.5576C60.5576 173.435 60.6514 172.928 60.8389 172.453C61.0264 171.973 61.2959 171.554 61.6475 171.196C62.0049 170.839 62.4385 170.555 62.9482 170.344C63.4639 170.133 64.0498 170.027 64.7061 170.027C65.3096 170.027 65.8516 170.118 66.332 170.3C66.8184 170.476 67.2285 170.722 67.5625 171.038C67.8965 171.354 68.1514 171.729 68.3271 172.163C68.5088 172.597 68.5996 173.068 68.5996 173.578C68.5996 173.959 68.5352 174.337 68.4062 174.712C68.2773 175.081 68.1016 175.447 67.8789 175.811C67.6621 176.174 67.4072 176.534 67.1143 176.892C66.8271 177.243 66.5225 177.595 66.2002 177.946L62.7637 181.673H69.1885V183Z" fill="#001AFF"/>
<path d="M74.0488 175.819H75.209C75.6191 175.819 75.9795 175.764 76.29 175.652C76.6064 175.541 76.8701 175.389 77.0811 175.195C77.2979 175.002 77.4619 174.771 77.5732 174.501C77.6846 174.231 77.7402 173.936 77.7402 173.613C77.7402 172.869 77.5498 172.31 77.1689 171.935C76.7881 171.554 76.2314 171.363 75.499 171.363C75.1533 171.363 74.8369 171.416 74.5498 171.521C74.2686 171.621 74.0254 171.768 73.8203 171.961C73.6211 172.154 73.4658 172.386 73.3545 172.655C73.2432 172.925 73.1875 173.227 73.1875 173.561H71.5527C71.5527 173.074 71.6465 172.617 71.834 172.189C72.0273 171.756 72.2969 171.381 72.6426 171.064C72.9883 170.742 73.4014 170.49 73.8818 170.309C74.3682 170.121 74.9072 170.027 75.499 170.027C76.0732 170.027 76.5977 170.106 77.0723 170.265C77.5469 170.417 77.9541 170.646 78.2939 170.95C78.6338 171.255 78.8975 171.633 79.085 172.084C79.2725 172.535 79.3662 173.057 79.3662 173.648C79.3662 173.895 79.3281 174.149 79.252 174.413C79.1758 174.677 79.0586 174.935 78.9004 175.187C78.7422 175.433 78.5371 175.667 78.2852 175.89C78.0391 176.106 77.7432 176.288 77.3975 176.435C77.8135 176.569 78.1592 176.745 78.4346 176.962C78.7158 177.179 78.9385 177.422 79.1025 177.691C79.2725 177.961 79.3896 178.245 79.4541 178.544C79.5244 178.843 79.5596 179.139 79.5596 179.432C79.5596 180.029 79.457 180.56 79.252 181.022C79.0469 181.485 78.7627 181.878 78.3994 182.2C78.0361 182.517 77.6055 182.76 77.1074 182.93C76.6152 183.094 76.082 183.176 75.5078 183.176C74.9453 183.176 74.415 183.097 73.917 182.938C73.4248 182.78 72.9971 182.549 72.6338 182.244C72.2705 181.939 71.9805 181.567 71.7637 181.128C71.5527 180.688 71.4473 180.188 71.4473 179.625H73.0732C73.0732 179.959 73.1289 180.264 73.2402 180.539C73.3574 180.814 73.5215 181.049 73.7324 181.242C73.9434 181.436 74.1982 181.585 74.4971 181.69C74.8018 181.796 75.1387 181.849 75.5078 181.849C75.877 181.849 76.2109 181.802 76.5098 181.708C76.8086 181.608 77.0635 181.459 77.2744 181.26C77.4854 181.061 77.6465 180.814 77.7578 180.521C77.875 180.223 77.9336 179.871 77.9336 179.467C77.9336 179.068 77.8662 178.726 77.7314 178.438C77.6025 178.146 77.418 177.902 77.1777 177.709C76.9434 177.516 76.6562 177.372 76.3164 177.278C75.9824 177.185 75.6133 177.138 75.209 177.138H74.0488V175.819Z" fill="#001AFF"/>
<path fill-rule="evenodd" clip-rule="evenodd" d="M70.1885 184H59.8037V181.447L64.2528 176.504C64.6174 176.099 64.9153 175.748 65.1487 175.45C65.3777 175.157 65.5487 174.904 65.6702 174.69C65.7909 174.471 65.8629 174.291 65.9016 174.148C65.9436 173.987 65.9648 173.821 65.9648 173.648C65.9648 173.445 65.9314 173.272 65.8728 173.118L65.8682 173.107L65.864 173.095C65.8104 172.943 65.7356 172.825 65.6411 172.728L65.6359 172.723L65.6308 172.717C65.5415 172.622 65.424 172.539 65.2619 172.471L65.2501 172.466L65.2385 172.461C65.111 172.404 64.9401 172.363 64.7061 172.363C64.3732 172.363 64.1301 172.411 63.9552 172.479C63.7754 172.55 63.6441 172.644 63.5429 172.753C63.4473 172.857 63.3607 172.998 63.2948 173.196C63.231 173.406 63.1924 173.662 63.1924 173.974V174.974H59.5576V173.974C59.5576 173.317 59.6723 172.685 59.908 172.088C60.1433 171.486 60.4857 170.951 60.9345 170.495L60.9403 170.489C61.3989 170.031 61.9458 169.676 62.5659 169.42L62.5696 169.418C63.2248 169.15 63.9427 169.027 64.7061 169.027C65.407 169.027 66.0693 169.133 66.6788 169.362C67.2757 169.579 67.8063 169.892 68.2502 170.312C68.6884 170.727 69.0232 171.22 69.2517 171.782C69.4873 172.346 69.5996 172.949 69.5996 173.578C69.5996 174.074 69.5153 174.562 69.3519 175.037L69.3504 175.042C69.1965 175.482 68.9898 175.911 68.7346 176.328C68.491 176.736 68.2082 177.134 67.8882 177.525C67.5886 177.892 67.2716 178.257 66.9373 178.622L66.9353 178.624L65.0461 180.673H70.1885V184ZM62.7637 181.673L66.2002 177.946C66.5225 177.595 66.8271 177.243 67.1143 176.892C67.4072 176.534 67.6621 176.174 67.8789 175.811C68.1016 175.447 68.2773 175.081 68.4062 174.712C68.5352 174.337 68.5996 173.959 68.5996 173.578C68.5996 173.068 68.5088 172.597 68.3271 172.163C68.1514 171.729 67.8965 171.354 67.5625 171.038C67.2285 170.722 66.8184 170.476 66.332 170.3C65.8516 170.118 65.3096 170.027 64.7061 170.027C64.0498 170.027 63.4639 170.133 62.9482 170.344C62.4385 170.555 62.0049 170.839 61.6475 171.196C61.2959 171.554 61.0264 171.973 60.8389 172.453C60.7719 172.623 60.717 172.796 60.6739 172.974C60.5964 173.294 60.5576 173.627 60.5576 173.974H62.1924C62.1924 173.575 62.2422 173.215 62.3418 172.893C62.4473 172.57 62.6025 172.298 62.8076 172.075C63.0186 171.847 63.2793 171.671 63.5898 171.548C63.9062 171.425 64.2783 171.363 64.7061 171.363C65.0576 171.363 65.3711 171.425 65.6465 171.548C65.9277 171.665 66.165 171.826 66.3584 172.031C66.5576 172.236 66.707 172.479 66.8066 172.761C66.9121 173.036 66.9648 173.332 66.9648 173.648C66.9648 173.906 66.9326 174.158 66.8682 174.404C66.8037 174.645 66.6953 174.902 66.543 175.178C66.3906 175.447 66.1885 175.743 65.9365 176.065C65.6846 176.388 65.3711 176.757 64.9961 177.173L60.8037 181.831V183H69.1885V181.673H62.7637ZM73.0488 174.819H75.209C75.531 174.819 75.773 174.775 75.9526 174.711L75.9581 174.709C76.1688 174.635 76.3095 174.546 76.4053 174.458L76.4154 174.449C76.5191 174.356 76.595 174.25 76.649 174.119C76.7053 173.983 76.7402 173.818 76.7402 173.613C76.7402 173.03 76.5925 172.77 76.4673 172.647L76.4618 172.642C76.3279 172.508 76.0641 172.363 75.499 172.363C75.2558 172.363 75.0579 172.4 74.8946 172.46L74.8837 172.464C74.7285 172.519 74.6087 172.593 74.5116 172.684C74.4177 172.776 74.3395 172.89 74.2788 173.037C74.2242 173.169 74.1875 173.339 74.1875 173.561V174.561H70.5527V173.561C70.5527 172.942 70.6728 172.348 70.9181 171.788L70.9207 171.782C71.1685 171.226 71.5174 170.74 71.964 170.33C72.4113 169.914 72.9364 169.597 73.5252 169.374C74.1399 169.138 74.8019 169.027 75.499 169.027C76.1631 169.027 76.7943 169.119 77.3832 169.314C77.9771 169.506 78.509 169.8 78.9615 170.206C79.4202 170.617 79.7677 171.121 80.0084 171.7C80.2559 172.296 80.3662 172.952 80.3662 173.648C80.3662 173.999 80.3119 174.347 80.2127 174.691C80.1085 175.051 79.951 175.394 79.7473 175.718L79.7416 175.727C79.6013 175.946 79.4381 176.15 79.2551 176.343C79.5287 176.584 79.7643 176.857 79.9525 177.165C80.1783 177.524 80.3396 177.912 80.4296 178.324C80.5154 178.691 80.5596 179.061 80.5596 179.432C80.5596 180.144 80.4371 180.816 80.1662 181.428C79.9057 182.016 79.538 182.527 79.063 182.948L79.0562 182.954C78.5865 183.363 78.0397 183.668 77.4303 183.876L77.4237 183.878C76.8192 184.08 76.1781 184.176 75.5078 184.176C74.8504 184.176 74.2174 184.083 73.6143 183.892L73.611 183.891C73.0068 183.696 72.4622 183.405 71.9912 183.01C71.518 182.614 71.1429 182.13 70.8669 181.57L70.8621 181.561C70.5771 180.967 70.4473 180.314 70.4473 179.625V178.625H74.0732V179.625C74.0732 179.842 74.1084 180.015 74.164 180.156C74.2275 180.302 74.3092 180.414 74.4081 180.505C74.5091 180.598 74.643 180.681 74.827 180.746C75.0119 180.81 75.2355 180.849 75.5078 180.849C75.7889 180.849 76.0172 180.813 76.2022 180.756C76.3704 180.699 76.4931 180.622 76.5878 180.533C76.6804 180.445 76.7609 180.33 76.823 180.166L76.8268 180.156C76.8882 180 76.9336 179.777 76.9336 179.467C76.9336 179.179 76.8847 178.988 76.8262 178.863L76.821 178.852L76.8161 178.841C76.7492 178.689 76.6613 178.577 76.5507 178.488L76.5413 178.48C76.4315 178.39 76.2762 178.305 76.0505 178.242L76.0461 178.241C75.8132 178.176 75.5366 178.138 75.209 178.138H73.0488V174.819ZM74.4971 181.69C74.1982 181.585 73.9434 181.436 73.7324 181.242C73.5215 181.049 73.3574 180.814 73.2402 180.539C73.1289 180.264 73.0732 179.959 73.0732 179.625H71.4473C71.4473 179.983 71.4901 180.317 71.5756 180.625C71.6244 180.801 71.6871 180.968 71.7637 181.128C71.9805 181.567 72.2705 181.939 72.6338 182.244C72.9971 182.549 73.4248 182.78 73.917 182.938C74.415 183.097 74.9453 183.176 75.5078 183.176C76.082 183.176 76.6152 183.094 77.1074 182.93C77.6055 182.76 78.0361 182.517 78.3994 182.2C78.7627 181.878 79.0469 181.485 79.252 181.022C79.457 180.56 79.5596 180.029 79.5596 179.432C79.5596 179.139 79.5244 178.843 79.4541 178.544C79.3896 178.245 79.2725 177.961 79.1025 177.691C78.9466 177.435 78.7377 177.203 78.4758 176.994C78.4622 176.983 78.4485 176.973 78.4346 176.962C78.1592 176.745 77.8135 176.569 77.3975 176.435C77.7432 176.288 78.0391 176.106 78.2852 175.89C78.3293 175.851 78.3719 175.811 78.4132 175.772C78.6075 175.585 78.7699 175.39 78.9004 175.187C79.0586 174.935 79.1758 174.677 79.252 174.413C79.3281 174.149 79.3662 173.895 79.3662 173.648C79.3662 173.057 79.2725 172.535 79.085 172.084C78.8975 171.633 78.6338 171.255 78.2939 170.95C77.9541 170.646 77.5469 170.417 77.0723 170.265C76.5977 170.106 76.0732 170.027 75.499 170.027C74.9072 170.027 74.3682 170.121 73.8818 170.309C73.4014 170.49 72.9883 170.742 72.6426 171.064C72.2969 171.381 72.0273 171.756 71.834 172.189C71.7808 172.311 71.7351 172.434 71.697 172.561C71.6008 172.879 71.5527 173.212 71.5527 173.561H73.1875C73.1875 173.227 73.2432 172.925 73.3545 172.655C73.4658 172.386 73.6211 172.154 73.8203 171.961C74.0254 171.768 74.2686 171.621 74.5498 171.521C74.8369 171.416 75.1533 171.363 75.499 171.363C76.2314 171.363 76.7881 171.554 77.1689 171.935C77.5498 172.31 77.7402 172.869 77.7402 173.613C77.7402 173.936 77.6846 174.231 77.5732 174.501C77.4619 174.771 77.2979 175.002 77.0811 175.195C76.8701 175.389 76.6064 175.541 76.29 175.652C75.9795 175.764 75.6191 175.819 75.209 175.819H74.0488V177.138H75.209C75.6133 177.138 75.9824 177.185 76.3164 177.278C76.6562 177.372 76.9434 177.516 77.1777 177.709C77.418 177.902 77.6025 178.146 77.7314 178.438C77.8662 178.726 77.9336 179.068 77.9336 179.467C77.9336 179.871 77.875 180.223 77.7578 180.521C77.6465 180.814 77.4854 181.061 77.2744 181.26C77.0635 181.459 76.8086 181.608 76.5098 181.708C76.2109 181.802 75.877 181.849 75.5078 181.849C75.1387 181.849 74.8018 181.796 74.4971 181.69Z" fill="white"/>
<g filter="url(#filter1_dddd)">
<path fill-rule="evenodd" clip-rule="evenodd" d="M86.7071 100.52C86.3166 100.91 85.6834 100.91 85.2929 100.52L78.9289 94.1559C78.5384 93.7654 78.5384 93.1322 78.9289 92.7417C79.3195 92.3512 79.9526 92.3512 80.3431 92.7417L85.0565 97.4551C85.2835 93.1235 86.2294 90.4154 88.5133 88.9145C89.8074 88.0642 91.4202 87.6829 93.2837 87.4974C95.1379 87.3127 97.3664 87.3127 99.9548 87.3127L100 87.3127C100.774 87.3127 101.501 87.3143 102.186 87.3157C104.564 87.3208 106.424 87.3248 107.902 87.259C109.839 87.1729 110.914 86.9688 111.549 86.6224C112.062 86.3425 112.369 85.9245 112.548 84.9649C112.742 83.9299 112.746 82.48 112.746 80.3128L114.746 80.3128L114.746 80.4197C114.746 82.453 114.746 84.0923 114.514 85.3325C114.264 86.6698 113.712 87.7206 112.506 88.3781C111.423 88.9692 109.92 89.1713 107.991 89.2571C106.462 89.325 104.537 89.3209 102.147 89.3157C101.469 89.3143 100.754 89.3127 100 89.3127C97.3576 89.3127 95.2263 89.3138 93.4819 89.4875C91.7361 89.6613 90.5051 89.9988 89.6117 90.586C88.1781 91.528 87.3066 93.3366 87.0674 97.3312L91.6569 92.7417C92.0474 92.3512 92.6805 92.3512 93.0711 92.7417C93.4616 93.1322 93.4616 93.7654 93.0711 94.1559L86.7071 100.52Z" fill="black"/>
</g>
<g filter="url(#filter2_dddd)">
<path fill-rule="evenodd" clip-rule="evenodd" d="M41.7929 100.52C42.1834 100.91 42.8166 100.91 43.2071 100.52L49.5711 94.1559C49.9616 93.7654 49.9616 93.1322 49.5711 92.7417C49.1805 92.3512 48.5474 92.3512 48.1569 92.7417L43.497 97.4015C43.4901 95.676 43.4667 94.2553 43.3883 93.0969C43.2782 91.468 43.0531 90.1732 42.4792 89.2303C41.8455 88.1892 40.8862 87.7204 39.7264 87.5087C38.6523 87.3126 37.2642 87.3127 35.5969 87.3127C35.5647 87.3128 35.5324 87.3128 35.5 87.3128C35.012 87.3128 34.5561 87.3143 34.1297 87.3158C32.6677 87.3207 31.5508 87.3245 30.6633 87.2607C29.4982 87.1768 28.9985 86.9853 28.733 86.7508C28.4895 86.5357 28.2611 86.1189 28.1357 85.034C28.0113 83.9568 28.0097 82.4642 28.0097 80.3128L26.0097 80.3128L26.0097 80.3839C26.0097 82.4483 26.0097 84.0576 26.149 85.2635C26.289 86.4755 26.5912 87.5274 27.4089 88.2497C28.2047 88.9527 29.297 89.1675 30.5198 89.2555C31.4896 89.3253 32.7116 89.321 34.1935 89.3158C34.6085 89.3143 35.044 89.3128 35.5 89.3128C37.2895 89.3128 38.4935 89.3167 39.3673 89.4762C40.1763 89.6239 40.5295 89.8738 40.7708 90.2702C41.0719 90.7648 41.2843 91.6263 41.3929 93.2318C41.4672 94.3304 41.49 95.6919 41.4969 97.3955L36.8431 92.7417C36.4526 92.3512 35.8195 92.3512 35.4289 92.7417C35.0384 93.1323 35.0384 93.7654 35.4289 94.1559L41.7929 100.52Z" fill="black"/>
</g>
<path d="M22.5697 61.3809L23.2113 55H29.7767V56.582H24.5824L24.2221 59.9922C24.474 59.8457 24.7758 59.7168 25.1273 59.6055C25.4789 59.4941 25.8861 59.4385 26.349 59.4385C26.9408 59.4385 27.4711 59.541 27.9398 59.7461C28.4086 59.9512 28.807 60.2412 29.1351 60.6162C29.4633 60.9854 29.7152 61.4336 29.891 61.9609C30.0668 62.4883 30.1547 63.0742 30.1547 63.7188C30.1547 64.3281 30.0726 64.8936 29.9086 65.415C29.7445 65.9365 29.4955 66.3877 29.1615 66.7686C28.8334 67.1436 28.4174 67.4395 27.9135 67.6562C27.4096 67.8672 26.8178 67.9727 26.1381 67.9727C25.6166 67.9727 25.1244 67.8994 24.6615 67.7529C24.1986 67.6064 23.7855 67.3867 23.4223 67.0938C23.0648 66.8008 22.7689 66.4316 22.5346 65.9863C22.306 65.541 22.1625 65.0225 22.1039 64.4307H23.6508C23.7504 65.1572 24.017 65.708 24.4506 66.083C24.89 66.458 25.4525 66.6455 26.1381 66.6455C26.5248 66.6455 26.8676 66.5781 27.1664 66.4434C27.4652 66.3027 27.7142 66.1064 27.9135 65.8545C28.1185 65.5967 28.2709 65.2891 28.3705 64.9316C28.476 64.5742 28.5287 64.1758 28.5287 63.7363C28.5287 63.3379 28.4701 62.9658 28.3529 62.6201C28.2416 62.2744 28.0775 61.9756 27.8607 61.7236C27.6439 61.4658 27.3773 61.2637 27.0609 61.1172C26.7445 60.9707 26.3812 60.8975 25.9711 60.8975C25.7016 60.8975 25.4672 60.918 25.268 60.959C25.0746 60.9941 24.8988 61.0469 24.7406 61.1172C24.5824 61.1875 24.433 61.2725 24.2924 61.3721C24.1576 61.4717 24.017 61.5859 23.8705 61.7148L22.5697 61.3809Z" fill="black"/>
<path fill-rule="evenodd" clip-rule="evenodd" d="M25.4823 57.582L25.3835 58.517C25.6925 58.4631 26.0155 58.4385 26.349 58.4385C27.0573 58.4385 27.7272 58.5616 28.3407 58.8299C28.9393 59.0918 29.458 59.4675 29.8852 59.9548C30.3126 60.4365 30.6269 61.0063 30.8397 61.6447C31.0544 62.2888 31.1547 62.9835 31.1547 63.7188C31.1547 64.4184 31.0604 65.0861 30.8625 65.7151C30.6602 66.3581 30.3463 66.9339 29.9141 67.4271C29.4782 67.9252 28.9356 68.3051 28.3087 68.5748L28.2996 68.5787C27.6475 68.8517 26.919 68.9727 26.1381 68.9727C25.5218 68.9727 24.9273 68.8859 24.3598 68.7063C23.7832 68.5238 23.2585 68.2464 22.7945 67.8722L22.7883 67.8671C22.3186 67.4822 21.9407 67.0051 21.6496 66.4521L21.6449 66.4429C21.3494 65.867 21.1774 65.2229 21.1088 64.5292L21 63.4307H24.523L24.6415 64.2948C24.7173 64.8474 24.9003 65.1487 25.1023 65.3245C25.328 65.5161 25.6457 65.6455 26.1381 65.6455C26.4039 65.6455 26.6004 65.6002 26.7481 65.535C26.9074 65.4587 27.0301 65.3594 27.1291 65.2343L27.1309 65.232C27.2427 65.0913 27.339 64.9079 27.4072 64.6632L27.4092 64.6559L27.4114 64.6486C27.4854 64.3978 27.5287 64.0966 27.5287 63.7363C27.5287 63.4371 27.4849 63.1744 27.4059 62.9412L27.4034 62.9339L27.4011 62.9266C27.3268 62.6961 27.2247 62.5177 27.1027 62.3759L27.0953 62.3673C26.9762 62.2256 26.829 62.1118 26.6408 62.0247C26.4773 61.9489 26.2615 61.8975 25.9711 61.8975C25.7489 61.8975 25.5851 61.9147 25.4696 61.9384L25.4583 61.9408L25.4468 61.9429C25.3214 61.9657 25.2233 61.997 25.1468 62.031C25.0516 62.0733 24.9623 62.1238 24.8781 62.1827C24.7719 62.2616 24.6563 62.3554 24.5311 62.4656L24.1341 62.815L21.4888 62.1358L22.3068 54H30.7768V57.582H25.4823ZM22.5697 61.3809L23.2113 55H29.7767V56.582H24.5824L24.2221 59.9922C24.474 59.8457 24.7758 59.7168 25.1273 59.6055C25.4789 59.4941 25.8861 59.4385 26.349 59.4385C26.9408 59.4385 27.4711 59.541 27.9398 59.7461C28.4086 59.9512 28.807 60.2412 29.1351 60.6162C29.4633 60.9854 29.7152 61.4336 29.891 61.9609C30.0668 62.4883 30.1547 63.0742 30.1547 63.7188C30.1547 64.3281 30.0726 64.8936 29.9086 65.415C29.7445 65.9365 29.4955 66.3877 29.1615 66.7686C28.8334 67.1436 28.4174 67.4395 27.9135 67.6562C27.4096 67.8672 26.8178 67.9727 26.1381 67.9727C25.6166 67.9727 25.1244 67.8994 24.6615 67.7529C24.1986 67.6064 23.7855 67.3867 23.4223 67.0938C23.0648 66.8008 22.7689 66.4316 22.5346 65.9863C22.306 65.541 22.1625 65.0225 22.1039 64.4307H23.6508C23.7504 65.1572 24.017 65.708 24.4506 66.083C24.89 66.458 25.4525 66.6455 26.1381 66.6455C26.5248 66.6455 26.8676 66.5781 27.1664 66.4434C27.4652 66.3027 27.7142 66.1064 27.9135 65.8545C28.1185 65.5967 28.2709 65.2891 28.3705 64.9316C28.476 64.5742 28.5287 64.1758 28.5287 63.7363C28.5287 63.3379 28.4701 62.9658 28.3529 62.6201C28.2416 62.2744 28.0775 61.9756 27.8607 61.7236C27.6439 61.4658 27.3773 61.2637 27.0609 61.1172C26.7445 60.9707 26.3812 60.8975 25.9711 60.8975C25.7016 60.8975 25.4672 60.918 25.268 60.959C25.0746 60.9941 24.8988 61.0469 24.7406 61.1172C24.5824 61.1875 24.433 61.2725 24.2924 61.3721C24.1576 61.4717 24.017 61.5859 23.8705 61.7148L22.5697 61.3809Z" fill="white"/>
<path d="M27.5697 120.381L28.2113 114H34.7767V115.582H29.5824L29.2221 118.992C29.474 118.846 29.7758 118.717 30.1273 118.605C30.4789 118.494 30.8861 118.438 31.349 118.438C31.9408 118.438 32.4711 118.541 32.9398 118.746C33.4086 118.951 33.807 119.241 34.1351 119.616C34.4633 119.985 34.7152 120.434 34.891 120.961C35.0668 121.488 35.1547 122.074 35.1547 122.719C35.1547 123.328 35.0726 123.894 34.9086 124.415C34.7445 124.937 34.4955 125.388 34.1615 125.769C33.8334 126.144 33.4174 126.439 32.9135 126.656C32.4096 126.867 31.8178 126.973 31.1381 126.973C30.6166 126.973 30.1244 126.899 29.6615 126.753C29.1986 126.606 28.7855 126.387 28.4223 126.094C28.0648 125.801 27.7689 125.432 27.5346 124.986C27.306 124.541 27.1625 124.022 27.1039 123.431H28.6508C28.7504 124.157 29.017 124.708 29.4506 125.083C29.89 125.458 30.4525 125.646 31.1381 125.646C31.5248 125.646 31.8676 125.578 32.1664 125.443C32.4652 125.303 32.7142 125.106 32.9135 124.854C33.1185 124.597 33.2709 124.289 33.3705 123.932C33.476 123.574 33.5287 123.176 33.5287 122.736C33.5287 122.338 33.4701 121.966 33.3529 121.62C33.2416 121.274 33.0775 120.976 32.8607 120.724C32.6439 120.466 32.3773 120.264 32.0609 120.117C31.7445 119.971 31.3812 119.897 30.9711 119.897C30.7016 119.897 30.4672 119.918 30.268 119.959C30.0746 119.994 29.8988 120.047 29.7406 120.117C29.5824 120.188 29.433 120.272 29.2924 120.372C29.1576 120.472 29.017 120.586 28.8705 120.715L27.5697 120.381Z" fill="black"/>
<path fill-rule="evenodd" clip-rule="evenodd" d="M30.4823 116.582L30.3835 117.517C30.6925 117.463 31.0155 117.438 31.349 117.438C32.0573 117.438 32.7272 117.562 33.3407 117.83C33.9393 118.092 34.458 118.467 34.8852 118.955C35.3126 119.437 35.6269 120.006 35.8397 120.645C36.0544 121.289 36.1547 121.984 36.1547 122.719C36.1547 123.418 36.0604 124.086 35.8625 124.715C35.6602 125.358 35.3463 125.934 34.9141 126.427C34.4782 126.925 33.9356 127.305 33.3087 127.575L33.2996 127.579C32.6475 127.852 31.919 127.973 31.1381 127.973C30.5218 127.973 29.9273 127.886 29.3598 127.706C28.7832 127.524 28.2585 127.246 27.7945 126.872L27.7883 126.867C27.3186 126.482 26.9407 126.005 26.6496 125.452L26.6449 125.443C26.3494 124.867 26.1774 124.223 26.1088 123.529L26 122.431H29.523L29.6415 123.295C29.7173 123.847 29.9003 124.149 30.1023 124.325C30.328 124.516 30.6457 124.646 31.1381 124.646C31.4039 124.646 31.6004 124.6 31.7481 124.535C31.9074 124.459 32.0301 124.359 32.1291 124.234L32.1309 124.232C32.2427 124.091 32.339 123.908 32.4072 123.663L32.4092 123.656L32.4114 123.649C32.4854 123.398 32.5287 123.097 32.5287 122.736C32.5287 122.437 32.4849 122.174 32.4059 121.941L32.4034 121.934L32.4011 121.927C32.3268 121.696 32.2247 121.518 32.1027 121.376L32.0953 121.367C31.9762 121.226 31.829 121.112 31.6408 121.025C31.4773 120.949 31.2615 120.897 30.9711 120.897C30.7489 120.897 30.5851 120.915 30.4696 120.938L30.4583 120.941L30.4468 120.943C30.3214 120.966 30.2233 120.997 30.1468 121.031C30.0516 121.073 29.9623 121.124 29.8781 121.183C29.7719 121.262 29.6563 121.355 29.5311 121.466L29.1341 121.815L26.4888 121.136L27.3068 113H35.7768V116.582H30.4823ZM27.5697 120.381L28.2113 114H34.7767V115.582H29.5824L29.2221 118.992C29.474 118.846 29.7758 118.717 30.1273 118.605C30.4789 118.494 30.8861 118.438 31.349 118.438C31.9408 118.438 32.4711 118.541 32.9398 118.746C33.4086 118.951 33.807 119.241 34.1351 119.616C34.4633 119.985 34.7152 120.434 34.891 120.961C35.0668 121.488 35.1547 122.074 35.1547 122.719C35.1547 123.328 35.0726 123.894 34.9086 124.415C34.7445 124.937 34.4955 125.388 34.1615 125.769C33.8334 126.144 33.4174 126.439 32.9135 126.656C32.4096 126.867 31.8178 126.973 31.1381 126.973C30.6166 126.973 30.1244 126.899 29.6615 126.753C29.1986 126.606 28.7855 126.387 28.4223 126.094C28.0648 125.801 27.7689 125.432 27.5346 124.986C27.306 124.541 27.1625 124.022 27.1039 123.431H28.6508C28.7504 124.157 29.017 124.708 29.4506 125.083C29.89 125.458 30.4525 125.646 31.1381 125.646C31.5248 125.646 31.8676 125.578 32.1664 125.443C32.4652 125.303 32.7142 125.106 32.9135 124.854C33.1185 124.597 33.2709 124.289 33.3705 123.932C33.476 123.574 33.5287 123.176 33.5287 122.736C33.5287 122.338 33.4701 121.966 33.3529 121.62C33.2416 121.274 33.0775 120.976 32.8607 120.724C32.6439 120.466 32.3773 120.264 32.0609 120.117C31.7445 119.971 31.3812 119.897 30.9711 119.897C30.7016 119.897 30.4672 119.918 30.268 119.959C30.0746 119.994 29.8988 120.047 29.7406 120.117C29.5824 120.188 29.433 120.272 29.2924 120.372C29.1576 120.472 29.017 120.586 28.8705 120.715L27.5697 120.381Z" fill="white"/>
<path d="M50.5697 176.381L51.2113 170H57.7767V171.582H52.5824L52.2221 174.992C52.474 174.846 52.7758 174.717 53.1273 174.605C53.4789 174.494 53.8861 174.438 54.349 174.438C54.9408 174.438 55.4711 174.541 55.9398 174.746C56.4086 174.951 56.807 175.241 57.1351 175.616C57.4633 175.985 57.7152 176.434 57.891 176.961C58.0668 177.488 58.1547 178.074 58.1547 178.719C58.1547 179.328 58.0726 179.894 57.9086 180.415C57.7445 180.937 57.4955 181.388 57.1615 181.769C56.8334 182.144 56.4174 182.439 55.9135 182.656C55.4096 182.867 54.8178 182.973 54.1381 182.973C53.6166 182.973 53.1244 182.899 52.6615 182.753C52.1986 182.606 51.7855 182.387 51.4223 182.094C51.0648 181.801 50.7689 181.432 50.5346 180.986C50.306 180.541 50.1625 180.022 50.1039 179.431H51.6508C51.7504 180.157 52.017 180.708 52.4506 181.083C52.89 181.458 53.4525 181.646 54.1381 181.646C54.5248 181.646 54.8676 181.578 55.1664 181.443C55.4652 181.303 55.7142 181.106 55.9135 180.854C56.1185 180.597 56.2709 180.289 56.3705 179.932C56.476 179.574 56.5287 179.176 56.5287 178.736C56.5287 178.338 56.4701 177.966 56.3529 177.62C56.2416 177.274 56.0775 176.976 55.8607 176.724C55.6439 176.466 55.3773 176.264 55.0609 176.117C54.7445 175.971 54.3812 175.897 53.9711 175.897C53.7016 175.897 53.4672 175.918 53.268 175.959C53.0746 175.994 52.8988 176.047 52.7406 176.117C52.5824 176.188 52.433 176.272 52.2924 176.372C52.1576 176.472 52.017 176.586 51.8705 176.715L50.5697 176.381Z" fill="#001AFF"/>
<path fill-rule="evenodd" clip-rule="evenodd" d="M53.4823 172.582L53.3835 173.517C53.6925 173.463 54.0155 173.438 54.349 173.438C55.0573 173.438 55.7272 173.562 56.3407 173.83C56.9393 174.092 57.458 174.467 57.8852 174.955C58.3126 175.437 58.6269 176.006 58.8397 176.645C59.0544 177.289 59.1547 177.984 59.1547 178.719C59.1547 179.418 59.0604 180.086 58.8625 180.715C58.6602 181.358 58.3463 181.934 57.9141 182.427C57.4782 182.925 56.9356 183.305 56.3087 183.575L56.2996 183.579C55.6475 183.852 54.919 183.973 54.1381 183.973C53.5218 183.973 52.9273 183.886 52.3598 183.706C51.7832 183.524 51.2585 183.246 50.7945 182.872L50.7883 182.867C50.3186 182.482 49.9407 182.005 49.6496 181.452L49.6449 181.443C49.3494 180.867 49.1774 180.223 49.1088 179.529L49 178.431H52.523L52.6415 179.295C52.7173 179.847 52.9003 180.149 53.1023 180.325C53.328 180.516 53.6457 180.646 54.1381 180.646C54.4039 180.646 54.6004 180.6 54.7481 180.535C54.9074 180.459 55.0301 180.359 55.1291 180.234L55.1309 180.232C55.2427 180.091 55.339 179.908 55.4072 179.663L55.4092 179.656L55.4114 179.649C55.4854 179.398 55.5287 179.097 55.5287 178.736C55.5287 178.437 55.4849 178.174 55.4059 177.941L55.4034 177.934L55.4011 177.927C55.3268 177.696 55.2247 177.518 55.1027 177.376L55.0953 177.367C54.9762 177.226 54.829 177.112 54.6408 177.025C54.4773 176.949 54.2615 176.897 53.9711 176.897C53.7489 176.897 53.5851 176.915 53.4696 176.938L53.4583 176.941L53.4468 176.943C53.3214 176.966 53.2233 176.997 53.1468 177.031C53.0516 177.073 52.9623 177.124 52.8781 177.183C52.7719 177.262 52.6563 177.355 52.5311 177.466L52.1341 177.815L49.4888 177.136L50.3068 169H58.7768V172.582H53.4823ZM50.5697 176.381L51.2113 170H57.7767V171.582H52.5824L52.2221 174.992C52.474 174.846 52.7758 174.717 53.1273 174.605C53.4789 174.494 53.8861 174.438 54.349 174.438C54.9408 174.438 55.4711 174.541 55.9398 174.746C56.4086 174.951 56.807 175.241 57.1351 175.616C57.4633 175.985 57.7152 176.434 57.891 176.961C58.0668 177.488 58.1547 178.074 58.1547 178.719C58.1547 179.328 58.0726 179.894 57.9086 180.415C57.7445 180.937 57.4955 181.388 57.1615 181.769C56.8334 182.144 56.4174 182.439 55.9135 182.656C55.4096 182.867 54.8178 182.973 54.1381 182.973C53.6166 182.973 53.1244 182.899 52.6615 182.753C52.1986 182.606 51.7855 182.387 51.4223 182.094C51.0648 181.801 50.7689 181.432 50.5346 180.986C50.306 180.541 50.1625 180.022 50.1039 179.431H51.6508C51.7504 180.157 52.017 180.708 52.4506 181.083C52.89 181.458 53.4525 181.646 54.1381 181.646C54.5248 181.646 54.8676 181.578 55.1664 181.443C55.4652 181.303 55.7142 181.106 55.9135 180.854C56.1185 180.597 56.2709 180.289 56.3705 179.932C56.476 179.574 56.5287 179.176 56.5287 178.736C56.5287 178.338 56.4701 177.966 56.3529 177.62C56.2416 177.274 56.0775 176.976 55.8607 176.724C55.6439 176.466 55.3773 176.264 55.0609 176.117C54.7445 175.971 54.3812 175.897 53.9711 175.897C53.7016 175.897 53.4672 175.918 53.268 175.959C53.0746 175.994 52.8988 176.047 52.7406 176.117C52.5824 176.188 52.433 176.272 52.2924 176.372C52.1576 176.472 52.017 176.586 51.8705 176.715L50.5697 176.381Z" fill="white"/>
<defs>
<filter id="filter0_dddd" x="57.636" y="139" width="16.7279" height="20" filterUnits="userSpaceOnUse" color-interpolation-filters="sRGB">
<feFlood flood-opacity="0" result="BackgroundImageFix"/>
<feColorMatrix in="SourceAlpha" type="matrix" values="0 0 0 0 0 0 0 0 0 0 0 0 0 0 0 0 0 0 127 0"/>
<feOffset dy="-1"/>
<feColorMatrix type="matrix" values="0 0 0 0 1 0 0 0 0 1 0 0 0 0 1 0 0 0 1 0"/>
<feBlend mode="normal" in2="BackgroundImageFix" result="effect1_dropShadow"/>
<feColorMatrix in="SourceAlpha" type="matrix" values="0 0 0 0 0 0 0 0 0 0 0 0 0 0 0 0 0 0 127 0"/>
<feOffset dy="1"/>
<feColorMatrix type="matrix" values="0 0 0 0 1 0 0 0 0 1 0 0 0 0 1 0 0 0 1 0"/>
<feBlend mode="normal" in2="effect1_dropShadow" result="effect2_dropShadow"/>
<feColorMatrix in="SourceAlpha" type="matrix" values="0 0 0 0 0 0 0 0 0 0 0 0 0 0 0 0 0 0 127 0"/>
<feOffset dx="1"/>
<feColorMatrix type="matrix" values="0 0 0 0 1 0 0 0 0 1 0 0 0 0 1 0 0 0 1 0"/>
<feBlend mode="normal" in2="effect2_dropShadow" result="effect3_dropShadow"/>
<feColorMatrix in="SourceAlpha" type="matrix" values="0 0 0 0 0 0 0 0 0 0 0 0 0 0 0 0 0 0 127 0"/>
<feOffset dx="-1"/>
<feColorMatrix type="matrix" values="0 0 0 0 1 0 0 0 0 1 0 0 0 0 1 0 0 0 1 0"/>
<feBlend mode="normal" in2="effect3_dropShadow" result="effect4_dropShadow"/>
<feBlend mode="normal" in="SourceGraphic" in2="effect4_dropShadow" result="shape"/>
</filter>
<filter id="filter1_dddd" x="77.636" y="79.3128" width="38.1097" height="22.5" filterUnits="userSpaceOnUse" color-interpolation-filters="sRGB">
<feFlood flood-opacity="0" result="BackgroundImageFix"/>
<feColorMatrix in="SourceAlpha" type="matrix" values="0 0 0 0 0 0 0 0 0 0 0 0 0 0 0 0 0 0 127 0"/>
<feOffset dy="-1"/>
<feColorMatrix type="matrix" values="0 0 0 0 1 0 0 0 0 1 0 0 0 0 1 0 0 0 1 0"/>
<feBlend mode="normal" in2="BackgroundImageFix" result="effect1_dropShadow"/>
<feColorMatrix in="SourceAlpha" type="matrix" values="0 0 0 0 0 0 0 0 0 0 0 0 0 0 0 0 0 0 127 0"/>
<feOffset dy="1"/>
<feColorMatrix type="matrix" values="0 0 0 0 1 0 0 0 0 1 0 0 0 0 1 0 0 0 1 0"/>
<feBlend mode="normal" in2="effect1_dropShadow" result="effect2_dropShadow"/>
<feColorMatrix in="SourceAlpha" type="matrix" values="0 0 0 0 0 0 0 0 0 0 0 0 0 0 0 0 0 0 127 0"/>
<feOffset dx="1"/>
<feColorMatrix type="matrix" values="0 0 0 0 1 0 0 0 0 1 0 0 0 0 1 0 0 0 1 0"/>
<feBlend mode="normal" in2="effect2_dropShadow" result="effect3_dropShadow"/>
<feColorMatrix in="SourceAlpha" type="matrix" values="0 0 0 0 0 0 0 0 0 0 0 0 0 0 0 0 0 0 127 0"/>
<feOffset dx="-1"/>
<feColorMatrix type="matrix" values="0 0 0 0 1 0 0 0 0 1 0 0 0 0 1 0 0 0 1 0"/>
<feBlend mode="normal" in2="effect3_dropShadow" result="effect4_dropShadow"/>
<feBlend mode="normal" in="SourceGraphic" in2="effect4_dropShadow" result="shape"/>
</filter>
<filter id="filter2_dddd" x="25.0097" y="79.3128" width="25.8543" height="22.5" filterUnits="userSpaceOnUse" color-interpolation-filters="sRGB">
<feFlood flood-opacity="0" result="BackgroundImageFix"/>
<feColorMatrix in="SourceAlpha" type="matrix" values="0 0 0 0 0 0 0 0 0 0 0 0 0 0 0 0 0 0 127 0"/>
<feOffset dy="-1"/>
<feColorMatrix type="matrix" values="0 0 0 0 1 0 0 0 0 1 0 0 0 0 1 0 0 0 1 0"/>
<feBlend mode="normal" in2="BackgroundImageFix" result="effect1_dropShadow"/>
<feColorMatrix in="SourceAlpha" type="matrix" values="0 0 0 0 0 0 0 0 0 0 0 0 0 0 0 0 0 0 127 0"/>
<feOffset dy="1"/>
<feColorMatrix type="matrix" values="0 0 0 0 1 0 0 0 0 1 0 0 0 0 1 0 0 0 1 0"/>
<feBlend mode="normal" in2="effect1_dropShadow" result="effect2_dropShadow"/>
<feColorMatrix in="SourceAlpha" type="matrix" values="0 0 0 0 0 0 0 0 0 0 0 0 0 0 0 0 0 0 127 0"/>
<feOffset dx="1"/>
<feColorMatrix type="matrix" values="0 0 0 0 1 0 0 0 0 1 0 0 0 0 1 0 0 0 1 0"/>
<feBlend mode="normal" in2="effect2_dropShadow" result="effect3_dropShadow"/>
<feColorMatrix in="SourceAlpha" type="matrix" values="0 0 0 0 0 0 0 0 0 0 0 0 0 0 0 0 0 0 127 0"/>
<feOffset dx="-1"/>
<feColorMatrix type="matrix" values="0 0 0 0 1 0 0 0 0 1 0 0 0 0 1 0 0 0 1 0"/>
<feBlend mode="normal" in2="effect3_dropShadow" result="effect4_dropShadow"/>
<feBlend mode="normal" in="SourceGraphic" in2="effect4_dropShadow" result="shape"/>
</filter>
</defs>
</svg>
