<svg width="139" height="128" viewBox="0 0 139 128" fill="none" xmlns="http://www.w3.org/2000/svg">
<path d="M30.4492 33H25.5098V13.3652L19.041 15.6855V11.4316L30.1855 7.40625H30.4492V33Z" fill="#C84646"/>
<path fill-rule="evenodd" clip-rule="evenodd" d="M31.4492 34H24.5098V14.7863L18.041 17.1066V10.7296L30.0105 6.40625H31.4492V34ZM25.5098 13.3652V33H30.4492V7.40625H30.1855L19.041 11.4316V15.6855L25.5098 13.3652Z" fill="white"/>
<path d="M78.1426 23.2617C78.1426 24.9141 77.9492 26.373 77.5625 27.6387C77.1875 28.8926 76.6426 29.9473 75.9277 30.8027C75.2129 31.6465 74.3398 32.2852 73.3086 32.7188C72.2773 33.1523 71.1172 33.3691 69.8281 33.3691C68.5508 33.3691 67.3965 33.1523 66.3652 32.7188C65.334 32.2852 64.4551 31.6465 63.7285 30.8027C63.0137 29.9473 62.457 28.8926 62.0586 27.6387C61.6719 26.373 61.4785 24.9141 61.4785 23.2617V17.1445C61.4785 15.4922 61.6719 14.0391 62.0586 12.7852C62.4453 11.5195 62.9961 10.4648 63.7109 9.62109C64.4375 8.76562 65.3105 8.12109 66.3301 7.6875C67.3613 7.25391 68.5156 7.03711 69.793 7.03711C71.082 7.03711 72.2422 7.25391 73.2734 7.6875C74.3047 8.12109 75.1777 8.76562 75.8926 9.62109C76.6191 10.4648 77.1758 11.5195 77.5625 12.7852C77.9492 14.0391 78.1426 15.4922 78.1426 17.1445V23.2617ZM66.4004 21.1523L73.2207 16.0723C73.1855 14.3496 72.8867 13.0723 72.3242 12.2402C71.7617 11.4082 70.918 10.9922 69.793 10.9922C68.6562 10.9922 67.8066 11.4316 67.2441 12.3105C66.6816 13.1895 66.4004 14.543 66.4004 16.3711V21.1523ZM73.2207 19.3945L66.4004 24.457C66.459 26.1445 66.7695 27.3984 67.332 28.2188C67.8945 29.0273 68.7266 29.4316 69.8281 29.4316C70.9766 29.4316 71.8262 28.9863 72.377 28.0957C72.9395 27.2051 73.2207 25.8398 73.2207 24V19.3945Z" fill="#C84646"/>
<path fill-rule="evenodd" clip-rule="evenodd" d="M76.6907 31.4492C75.8729 32.4144 74.8707 33.1467 73.6962 33.6406C72.525 34.133 71.2302 34.3691 69.8281 34.3691C68.4364 34.3691 67.1478 34.1326 65.9776 33.6406C64.8045 33.1473 63.7987 32.4168 62.9707 31.4553L62.9659 31.4496L62.9612 31.444C62.1495 30.4726 61.5364 29.2973 61.1056 27.9415L61.1022 27.9309C60.6804 26.5505 60.4785 24.9896 60.4785 23.2617V17.1445C60.4785 15.4174 60.6802 13.8617 61.1026 12.4917C61.5214 11.1217 62.13 9.94013 62.948 8.97468L62.9487 8.97375C63.7746 8.00132 64.7741 7.26256 65.9387 6.76726L65.9425 6.76566C67.1126 6.27367 68.4013 6.03711 69.793 6.03711C71.195 6.03711 72.4898 6.27323 73.661 6.76567C74.8366 7.25996 75.8385 7.99859 76.6552 8.97421C77.485 9.93964 78.0997 11.1215 78.5186 12.492C78.9409 13.862 79.1426 15.4176 79.1426 17.1445V23.2617C79.1426 24.9885 78.9409 26.5484 78.5197 27.9282C78.1125 29.2885 77.5101 30.4686 76.6951 31.444L76.6907 31.4492ZM77.5625 27.6387C77.9492 26.373 78.1426 24.9141 78.1426 23.2617V17.1445C78.1426 15.4922 77.9492 14.0391 77.5625 12.7852C77.1758 11.5195 76.6191 10.4648 75.8926 9.62109C75.1777 8.76562 74.3047 8.12109 73.2734 7.6875C72.2422 7.25391 71.082 7.03711 69.793 7.03711C68.5156 7.03711 67.3613 7.25391 66.3301 7.6875C65.3105 8.12109 64.4375 8.76562 63.7109 9.62109C62.9961 10.4648 62.4453 11.5195 62.0586 12.7852C61.6719 14.0391 61.4785 15.4922 61.4785 17.1445V23.2617C61.4785 24.9141 61.6719 26.373 62.0586 27.6387C62.457 28.8926 63.0137 29.9473 63.7285 30.8027C64.4551 31.6465 65.334 32.2852 66.3652 32.7188C67.3965 33.1523 68.5508 33.3691 69.8281 33.3691C71.1172 33.3691 72.2773 33.1523 73.3086 32.7188C74.3398 32.2852 75.2129 31.6465 75.9277 30.8027C76.6426 29.9473 77.1875 28.8926 77.5625 27.6387ZM71.5315 27.5617C71.9428 26.9104 72.2207 25.7744 72.2207 24V21.3822L67.4273 24.9402C67.5232 26.2585 67.7971 27.1271 68.1549 27.6505C68.506 28.1536 69.0103 28.4316 69.8281 28.4316C70.6702 28.4316 71.1781 28.1331 71.5264 27.5697L71.5315 27.5617ZM67.332 28.2188C66.7695 27.3984 66.459 26.1445 66.4004 24.457L73.2207 19.3945V24C73.2207 25.8398 72.9395 27.2051 72.377 28.0957C71.8262 28.9863 70.9766 29.4316 69.8281 29.4316C68.7266 29.4316 67.8945 29.0273 67.332 28.2188ZM72.2016 15.5844L67.4004 19.1606V16.3711C67.4004 14.6082 67.6784 13.487 68.0864 12.8496C68.4463 12.2872 68.9609 11.9922 69.793 11.9922C70.6326 11.9922 71.144 12.2799 71.4958 12.8003C71.855 13.3317 72.1242 14.2227 72.2016 15.5844ZM66.4004 21.1523V16.3711C66.4004 14.543 66.6816 13.1895 67.2441 12.3105C67.8066 11.4316 68.6562 10.9922 69.793 10.9922C70.918 10.9922 71.7617 11.4082 72.3242 12.2402C72.8867 13.0723 73.1855 14.3496 73.2207 16.0723L66.4004 21.1523Z" fill="white"/>
<path d="M121.143 23.2617C121.143 24.9141 120.949 26.373 120.562 27.6387C120.188 28.8926 119.643 29.9473 118.928 30.8027C118.213 31.6465 117.34 32.2852 116.309 32.7188C115.277 33.1523 114.117 33.3691 112.828 33.3691C111.551 33.3691 110.396 33.1523 109.365 32.7188C108.334 32.2852 107.455 31.6465 106.729 30.8027C106.014 29.9473 105.457 28.8926 105.059 27.6387C104.672 26.373 104.479 24.9141 104.479 23.2617V17.1445C104.479 15.4922 104.672 14.0391 105.059 12.7852C105.445 11.5195 105.996 10.4648 106.711 9.62109C107.438 8.76562 108.311 8.12109 109.33 7.6875C110.361 7.25391 111.516 7.03711 112.793 7.03711C114.082 7.03711 115.242 7.25391 116.273 7.6875C117.305 8.12109 118.178 8.76562 118.893 9.62109C119.619 10.4648 120.176 11.5195 120.562 12.7852C120.949 14.0391 121.143 15.4922 121.143 17.1445V23.2617ZM109.4 21.1523L116.221 16.0723C116.186 14.3496 115.887 13.0723 115.324 12.2402C114.762 11.4082 113.918 10.9922 112.793 10.9922C111.656 10.9922 110.807 11.4316 110.244 12.3105C109.682 13.1895 109.4 14.543 109.4 16.3711V21.1523ZM116.221 19.3945L109.4 24.457C109.459 26.1445 109.77 27.3984 110.332 28.2188C110.895 29.0273 111.727 29.4316 112.828 29.4316C113.977 29.4316 114.826 28.9863 115.377 28.0957C115.939 27.2051 116.221 25.8398 116.221 24V19.3945Z" fill="#C84646"/>
<path fill-rule="evenodd" clip-rule="evenodd" d="M119.691 31.4492C118.873 32.4144 117.871 33.1467 116.696 33.6406C115.525 34.133 114.23 34.3691 112.828 34.3691C111.436 34.3691 110.148 34.1326 108.978 33.6406C107.805 33.1473 106.799 32.4168 105.971 31.4553L105.966 31.4496L105.961 31.444C105.149 30.4726 104.536 29.2973 104.106 27.9415L104.102 27.9309C103.68 26.5505 103.479 24.9896 103.479 23.2617V17.1445C103.479 15.4174 103.68 13.8617 104.103 12.4917C104.521 11.1217 105.13 9.94013 105.948 8.97468L105.949 8.97375C106.775 8.00132 107.774 7.26256 108.939 6.76726L108.942 6.76566C110.113 6.27367 111.401 6.03711 112.793 6.03711C114.195 6.03711 115.49 6.27323 116.661 6.76567C117.837 7.25996 118.838 7.99859 119.655 8.97421C120.485 9.93964 121.1 11.1215 121.519 12.492C121.941 13.862 122.143 15.4176 122.143 17.1445V23.2617C122.143 24.9885 121.941 26.5484 121.52 27.9282C121.113 29.2885 120.51 30.4686 119.695 31.444L119.691 31.4492ZM120.562 27.6387C120.949 26.373 121.143 24.9141 121.143 23.2617V17.1445C121.143 15.4922 120.949 14.0391 120.562 12.7852C120.176 11.5195 119.619 10.4648 118.893 9.62109C118.178 8.76562 117.305 8.12109 116.273 7.6875C115.242 7.25391 114.082 7.03711 112.793 7.03711C111.516 7.03711 110.361 7.25391 109.33 7.6875C108.311 8.12109 107.438 8.76562 106.711 9.62109C105.996 10.4648 105.445 11.5195 105.059 12.7852C104.672 14.0391 104.479 15.4922 104.479 17.1445V23.2617C104.479 24.9141 104.672 26.373 105.059 27.6387C105.457 28.8926 106.014 29.9473 106.729 30.8027C107.455 31.6465 108.334 32.2852 109.365 32.7188C110.396 33.1523 111.551 33.3691 112.828 33.3691C114.117 33.3691 115.277 33.1523 116.309 32.7188C117.34 32.2852 118.213 31.6465 118.928 30.8027C119.643 29.9473 120.188 28.8926 120.562 27.6387ZM114.531 27.5617C114.943 26.9104 115.221 25.7744 115.221 24V21.3822L110.427 24.9402C110.523 26.2585 110.797 27.1271 111.155 27.6505C111.506 28.1536 112.01 28.4316 112.828 28.4316C113.67 28.4316 114.178 28.1331 114.526 27.5697L114.531 27.5617ZM110.332 28.2188C109.77 27.3984 109.459 26.1445 109.4 24.457L116.221 19.3945V24C116.221 25.8398 115.939 27.2051 115.377 28.0957C114.826 28.9863 113.977 29.4316 112.828 29.4316C111.727 29.4316 110.895 29.0273 110.332 28.2188ZM115.202 15.5844L110.4 19.1606V16.3711C110.4 14.6082 110.678 13.487 111.086 12.8496C111.446 12.2872 111.961 11.9922 112.793 11.9922C113.633 11.9922 114.144 12.2799 114.496 12.8003C114.855 13.3317 115.124 14.2227 115.202 15.5844ZM109.4 21.1523V16.3711C109.4 14.543 109.682 13.1895 110.244 12.3105C110.807 11.4316 111.656 10.9922 112.793 10.9922C113.918 10.9922 114.762 11.4082 115.324 12.2402C115.887 13.0723 116.186 14.3496 116.221 16.0723L109.4 21.1523Z" fill="white"/>
<path d="M34.6328 45.8145H18.6016V42H34.6328V45.8145Z" fill="black"/>
<path fill-rule="evenodd" clip-rule="evenodd" d="M35.6328 46.8145H17.6016V41H35.6328V46.8145ZM34.6328 45.8145V42H18.6016V45.8145H34.6328Z" fill="white"/>
<path d="M77.6328 45.8145H61.6016V42H77.6328V45.8145Z" fill="black"/>
<path fill-rule="evenodd" clip-rule="evenodd" d="M78.6328 46.8145H60.6016V41H78.6328V46.8145ZM77.6328 45.8145V42H61.6016V45.8145H77.6328Z" fill="white"/>
<path d="M120.633 45.8145H104.602V42H120.633V45.8145Z" fill="black"/>
<path fill-rule="evenodd" clip-rule="evenodd" d="M121.633 46.8145H103.602V41H121.633V46.8145ZM120.633 45.8145V42H104.602V45.8145H120.633Z" fill="white"/>
<path d="M16.8027 124H15.1768V113.277L11.8281 114.552V113.066L16.6709 111.203H16.8027V124Z" fill="#001AFF"/>
<path d="M30.373 119.104C30.373 119.919 30.2793 120.643 30.0918 121.275C29.9043 121.902 29.6348 122.433 29.2832 122.866C28.9316 123.294 28.501 123.619 27.9912 123.842C27.4814 124.064 26.8984 124.176 26.2422 124.176C25.5918 124.176 25.0088 124.064 24.4932 123.842C23.9834 123.619 23.5498 123.294 23.1924 122.866C22.835 122.433 22.5596 121.902 22.3662 121.275C22.1787 120.643 22.085 119.919 22.085 119.104V116.107C22.085 115.293 22.1787 114.572 22.3662 113.945C22.5537 113.312 22.8232 112.779 23.1748 112.346C23.5322 111.912 23.9658 111.584 24.4756 111.361C24.9912 111.133 25.5742 111.019 26.2246 111.019C26.8809 111.019 27.4639 111.133 27.9736 111.361C28.4893 111.584 28.9229 111.912 29.2744 112.346C29.6318 112.779 29.9043 113.312 30.0918 113.945C30.2793 114.572 30.373 115.293 30.373 116.107V119.104ZM23.7197 118.779L28.7031 114.956C28.6094 114.106 28.3604 113.462 27.9561 113.022C27.5576 112.577 26.9805 112.354 26.2246 112.354C25.3691 112.354 24.7363 112.645 24.3262 113.225C23.9219 113.799 23.7197 114.64 23.7197 115.747V118.779ZM28.7383 116.512L23.7637 120.317C23.8633 121.144 24.1182 121.773 24.5283 122.207C24.9385 122.641 25.5098 122.857 26.2422 122.857C27.1035 122.857 27.7334 122.564 28.1318 121.979C28.5361 121.393 28.7383 120.549 28.7383 119.447V116.512Z" fill="#001AFF"/>
<path d="M41.1836 119.104C41.1836 119.919 41.0898 120.643 40.9023 121.275C40.7148 121.902 40.4453 122.433 40.0938 122.866C39.7422 123.294 39.3115 123.619 38.8018 123.842C38.292 124.064 37.709 124.176 37.0527 124.176C36.4023 124.176 35.8193 124.064 35.3037 123.842C34.7939 123.619 34.3604 123.294 34.0029 122.866C33.6455 122.433 33.3701 121.902 33.1768 121.275C32.9893 120.643 32.8955 119.919 32.8955 119.104V116.107C32.8955 115.293 32.9893 114.572 33.1768 113.945C33.3643 113.312 33.6338 112.779 33.9854 112.346C34.3428 111.912 34.7764 111.584 35.2861 111.361C35.8018 111.133 36.3848 111.019 37.0352 111.019C37.6914 111.019 38.2744 111.133 38.7842 111.361C39.2998 111.584 39.7334 111.912 40.085 112.346C40.4424 112.779 40.7148 113.312 40.9023 113.945C41.0898 114.572 41.1836 115.293 41.1836 116.107V119.104ZM34.5303 118.779L39.5137 114.956C39.4199 114.106 39.1709 113.462 38.7666 113.022C38.3682 112.577 37.791 112.354 37.0352 112.354C36.1797 112.354 35.5469 112.645 35.1367 113.225C34.7324 113.799 34.5303 114.64 34.5303 115.747V118.779ZM39.5488 116.512L34.5742 120.317C34.6738 121.144 34.9287 121.773 35.3389 122.207C35.749 122.641 36.3203 122.857 37.0527 122.857C37.9141 122.857 38.5439 122.564 38.9424 121.979C39.3467 121.393 39.5488 120.549 39.5488 119.447V116.512Z" fill="#001AFF"/>
<path fill-rule="evenodd" clip-rule="evenodd" d="M17.8027 125H14.1768V114.728L10.8281 116.002V112.38L16.4852 110.203H17.8027V125ZM15.1768 113.277V124H16.8027V111.203H16.6709L11.8281 113.066V114.552L15.1768 113.277ZM31.0506 121.559L31.0499 121.562C30.8313 122.293 30.5067 122.945 30.06 123.496L30.0558 123.501C29.6036 124.051 29.0451 124.473 28.3915 124.758C27.7349 125.045 27.0118 125.176 26.2422 125.176C25.4768 125.176 24.7558 125.044 24.0967 124.76L24.0929 124.758C23.4408 124.473 22.8816 124.054 22.425 123.507L22.4207 123.502C21.9676 122.953 21.6361 122.301 21.4106 121.57L21.4074 121.559C21.187 120.816 21.085 119.994 21.085 119.104V116.107C21.085 115.219 21.1869 114.399 21.4078 113.66C21.6259 112.924 21.9503 112.268 22.398 111.716L22.4032 111.71C22.859 111.157 23.4185 110.732 24.0729 110.446C24.7335 110.154 25.4569 110.019 26.2246 110.019C26.995 110.019 27.7191 110.153 28.3764 110.446C29.0353 110.732 29.5966 111.156 30.0486 111.713C30.5034 112.265 30.8316 112.923 31.0502 113.66C31.0504 113.66 31.0505 113.661 31.0506 113.661L30.0918 113.945C30.2793 114.572 30.373 115.293 30.373 116.107V119.104C30.373 119.919 30.2793 120.643 30.0918 121.275C29.9043 121.902 29.6348 122.433 29.2832 122.866C28.9316 123.294 28.501 123.619 27.9912 123.842C27.4814 124.064 26.8984 124.176 26.2422 124.176C25.5918 124.176 25.0088 124.064 24.4932 123.842C23.9834 123.619 23.5498 123.294 23.1924 122.866C22.835 122.433 22.5596 121.902 22.3662 121.275C22.1787 120.643 22.085 119.919 22.085 119.104V116.107C22.085 115.293 22.1787 114.572 22.3662 113.945C22.5537 113.312 22.8232 112.779 23.1748 112.346C23.5322 111.912 23.9658 111.584 24.4756 111.361C24.9912 111.133 25.5742 111.019 26.2246 111.019C26.8809 111.019 27.4639 111.133 27.9736 111.361C28.4893 111.584 28.9229 111.912 29.2744 112.346C29.6318 112.779 29.9043 113.312 30.0918 113.945M28.7031 114.956C28.6094 114.106 28.3604 113.462 27.9561 113.022C27.5576 112.577 26.9805 112.354 26.2246 112.354C25.3691 112.354 24.7363 112.645 24.3262 113.225C23.9219 113.799 23.7197 114.64 23.7197 115.747V118.779L28.7031 114.956ZM24.7197 116.752L27.6168 114.529C27.5172 114.124 27.3714 113.864 27.2201 113.7L27.2107 113.689C27.0499 113.51 26.7767 113.354 26.2246 113.354C25.6193 113.354 25.3265 113.542 25.1434 113.801C24.9085 114.135 24.7197 114.736 24.7197 115.747V116.752ZM23.7637 120.317C23.8633 121.144 24.1182 121.773 24.5283 122.207C24.9385 122.641 25.5098 122.857 26.2422 122.857C27.1035 122.857 27.7334 122.564 28.1318 121.979C28.5361 121.393 28.7383 120.549 28.7383 119.447V116.512L23.7637 120.317ZM27.7383 118.536V119.447C27.7383 120.449 27.5505 121.06 27.3088 121.411L27.3049 121.416C27.1342 121.667 26.8538 121.857 26.2422 121.857C25.7177 121.857 25.4345 121.71 25.2548 121.52C25.1034 121.36 24.9594 121.114 24.8583 120.739L27.7383 118.536ZM41.8611 121.559L41.8604 121.562C41.6418 122.293 41.3173 122.945 40.8705 123.496L40.8663 123.501C40.4141 124.051 39.8556 124.473 39.202 124.758C38.5454 125.045 37.8223 125.176 37.0527 125.176C36.2874 125.176 35.5663 125.044 34.9073 124.76L34.9034 124.758C34.2513 124.473 33.6922 124.054 33.2356 123.507L33.2313 123.502C32.7782 122.953 32.4466 122.301 32.2212 121.57L32.2179 121.559C31.9976 120.816 31.8955 119.994 31.8955 119.104V116.107C31.8955 115.219 31.9975 114.399 32.2184 113.66C32.4366 112.924 32.7609 112.268 33.2086 111.716L33.2137 111.71C33.6695 111.157 34.2291 110.732 34.8834 110.446C35.5441 110.154 36.2674 110.019 37.0352 110.019C37.8056 110.019 38.5296 110.153 39.1869 110.446C39.8458 110.732 40.4072 111.156 40.8592 111.713C41.3139 112.265 41.6421 112.923 41.8608 113.66C41.8609 113.66 41.861 113.661 41.8611 113.661L40.9023 113.945C41.0898 114.572 41.1836 115.293 41.1836 116.107V119.104C41.1836 119.919 41.0898 120.643 40.9023 121.275C40.7148 121.902 40.4453 122.433 40.0938 122.866C39.7422 123.294 39.3115 123.619 38.8018 123.842C38.292 124.064 37.709 124.176 37.0527 124.176C36.4023 124.176 35.8193 124.064 35.3037 123.842C34.7939 123.619 34.3604 123.294 34.0029 122.866C33.6455 122.433 33.3701 121.902 33.1768 121.275C32.9893 120.643 32.8955 119.919 32.8955 119.104V116.107C32.8955 115.293 32.9893 114.572 33.1768 113.945C33.3643 113.312 33.6338 112.779 33.9854 112.346C34.3428 111.912 34.7764 111.584 35.2861 111.361C35.8018 111.133 36.3848 111.019 37.0352 111.019C37.6914 111.019 38.2744 111.133 38.7842 111.361C39.2998 111.584 39.7334 111.912 40.085 112.346C40.4424 112.779 40.7148 113.312 40.9023 113.945M39.5137 114.956C39.4199 114.106 39.1709 113.462 38.7666 113.022C38.3682 112.577 37.791 112.354 37.0352 112.354C36.1797 112.354 35.5469 112.645 35.1367 113.225C34.7324 113.799 34.5303 114.64 34.5303 115.747V118.779L39.5137 114.956ZM35.5303 116.752L38.4273 114.529C38.3278 114.124 38.182 113.864 38.0307 113.7L38.0213 113.689C37.8604 113.51 37.5873 113.354 37.0352 113.354C36.4297 113.354 36.137 113.543 35.9538 113.801C35.719 114.135 35.5303 114.737 35.5303 115.747V116.752ZM34.5742 120.317C34.6738 121.144 34.9287 121.773 35.3389 122.207C35.749 122.641 36.3203 122.857 37.0527 122.857C37.9141 122.857 38.5439 122.564 38.9424 121.979C39.3467 121.393 39.5488 120.549 39.5488 119.447V116.512L34.5742 120.317ZM38.5488 118.536V119.447C38.5488 120.449 38.3611 121.06 38.1193 121.411L38.1155 121.416C37.9447 121.667 37.6643 121.857 37.0527 121.857C36.5282 121.857 36.2451 121.71 36.0653 121.52C35.9139 121.36 35.77 121.114 35.6689 120.739L38.5488 118.536Z" fill="white"/>
<path d="M113.803 68H112.177V57.2773L108.828 58.5518V57.0664L113.671 55.2031H113.803V68Z" fill="black"/>
<path fill-rule="evenodd" clip-rule="evenodd" d="M114.803 69H111.177V58.7279L107.828 60.0023V56.3797L113.485 54.2031H114.803V69ZM112.177 57.2773V68H113.803V55.2031H113.671L108.828 57.0664V58.5518L112.177 57.2773Z" fill="white"/>
<g filter="url(#filter0_dddd)">
<path fill-rule="evenodd" clip-rule="evenodd" d="M34.0711 92.3431L27.7071 98.7071C27.3166 99.0976 26.6834 99.0976 26.2929 98.7071L19.9289 92.3431C19.5384 91.9526 19.5384 91.3195 19.9289 90.9289C20.3195 90.5384 20.9526 90.5384 21.3431 90.9289L26 95.5858L26 81L28 81L28 95.5858L32.6569 90.9289C33.0474 90.5384 33.6805 90.5384 34.0711 90.9289C34.4616 91.3195 34.4616 91.9526 34.0711 92.3431Z" fill="black"/>
</g>
<path d="M65.9746 70H64.3486V59.2773L61 60.5518V59.0664L65.8428 57.2031H65.9746V70Z" fill="black"/>
<path fill-rule="evenodd" clip-rule="evenodd" d="M66.9746 71H63.3486V60.7279L60 62.0023V58.3797L65.657 56.2031H66.9746V71ZM64.3486 59.2773V70H65.9746V57.2031H65.8428L61 59.0664V60.5518L64.3486 59.2773Z" fill="white"/>
<path d="M79.46 65.0859C79.46 65.9004 79.3662 66.624 79.1787 67.2568C78.9912 67.8838 78.7217 68.4141 78.3701 68.8477C78.0186 69.2754 77.5879 69.6006 77.0781 69.8232C76.5684 70.0459 75.9854 70.1572 75.3291 70.1572C74.6787 70.1572 74.0957 70.0459 73.5801 69.8232C73.0703 69.6006 72.6367 69.2754 72.2793 68.8477C71.9219 68.4141 71.6465 67.8838 71.4531 67.2568C71.2656 66.624 71.1719 65.9004 71.1719 65.0859V62.0889C71.1719 61.2744 71.2656 60.5537 71.4531 59.9268C71.6406 59.2939 71.9102 58.7607 72.2617 58.3271C72.6191 57.8936 73.0527 57.5654 73.5625 57.3428C74.0781 57.1143 74.6611 57 75.3115 57C75.9678 57 76.5508 57.1143 77.0605 57.3428C77.5762 57.5654 78.0098 57.8936 78.3613 58.3271C78.7188 58.7607 78.9912 59.2939 79.1787 59.9268C79.3662 60.5537 79.46 61.2744 79.46 62.0889V65.0859ZM72.8066 64.7607L77.79 60.9375C77.6963 60.0879 77.4473 59.4434 77.043 59.0039C76.6445 58.5586 76.0674 58.3359 75.3115 58.3359C74.4561 58.3359 73.8232 58.626 73.4131 59.2061C73.0088 59.7803 72.8066 60.6211 72.8066 61.7285V64.7607ZM77.8252 62.4932L72.8506 66.2988C72.9502 67.125 73.2051 67.7549 73.6152 68.1885C74.0254 68.6221 74.5967 68.8389 75.3291 68.8389C76.1904 68.8389 76.8203 68.5459 77.2188 67.96C77.623 67.374 77.8252 66.5303 77.8252 65.4287V62.4932Z" fill="black"/>
<path fill-rule="evenodd" clip-rule="evenodd" d="M80.1375 67.5409L80.1368 67.5434C79.9182 68.2742 79.5936 68.9265 79.1469 69.4775L79.1427 69.4826C78.6905 70.0328 78.132 70.4542 77.4784 70.7396C76.8218 71.0264 76.0987 71.1572 75.3291 71.1572C74.5637 71.1572 73.8427 71.0259 73.1836 70.7413L73.1798 70.7396C72.5277 70.4548 71.9685 70.0353 71.5119 69.4889L71.5077 69.4837C71.0545 68.9341 70.723 68.2826 70.4975 67.5515L70.4943 67.5409C70.2739 66.7973 70.1719 65.975 70.1719 65.0859V62.0889C70.1719 61.2005 70.2738 60.3805 70.4947 59.6414C70.7128 58.9056 71.0372 58.2496 71.485 57.6973L71.4901 57.6911C71.9459 57.1381 72.5054 56.7137 73.1598 56.4274C73.8204 56.1351 74.5438 56 75.3115 56C76.0819 56 76.806 56.134 77.4633 56.4274C78.1221 56.7131 78.6835 57.1377 79.1355 57.6941C79.5903 58.2468 79.9185 58.9039 80.1371 59.6415C80.358 60.3805 80.46 61.2005 80.46 62.0889V65.0859C80.46 65.975 80.3578 66.7973 80.1375 67.5409ZM79.1787 59.9268C78.9912 59.2939 78.7188 58.7607 78.3613 58.3271C78.0098 57.8936 77.5762 57.5654 77.0605 57.3428C76.5508 57.1143 75.9678 57 75.3115 57C74.6611 57 74.0781 57.1143 73.5625 57.3428C73.0527 57.5654 72.6191 57.8936 72.2617 58.3271C71.9102 58.7607 71.6406 59.2939 71.4531 59.9268C71.2656 60.5537 71.1719 61.2744 71.1719 62.0889V65.0859C71.1719 65.9004 71.2656 66.624 71.4531 67.2568C71.6465 67.8838 71.9219 68.4141 72.2793 68.8477C72.6367 69.2754 73.0703 69.6006 73.5801 69.8232C74.0957 70.0459 74.6787 70.1572 75.3291 70.1572C75.9854 70.1572 76.5684 70.0459 77.0781 69.8232C77.5879 69.6006 78.0186 69.2754 78.3701 68.8477C78.7217 68.4141 78.9912 67.8838 79.1787 67.2568C79.3662 66.624 79.46 65.9004 79.46 65.0859V62.0889C79.46 61.2744 79.3662 60.5537 79.1787 59.9268ZM72.8506 66.2988C72.9502 67.125 73.2051 67.7549 73.6152 68.1885C74.0254 68.6221 74.5967 68.8389 75.3291 68.8389C76.1904 68.8389 76.8203 68.5459 77.2188 67.96C77.623 67.374 77.8252 66.5303 77.8252 65.4287V62.4932L72.8506 66.2988ZM77.79 60.9375C77.6963 60.0879 77.4473 59.4434 77.043 59.0039C76.6445 58.5586 76.0674 58.3359 75.3115 58.3359C74.4561 58.3359 73.8232 58.626 73.4131 59.2061C73.0088 59.7803 72.8066 60.6211 72.8066 61.7285V64.7607L77.79 60.9375ZM73.8066 62.7332L76.7037 60.5105C76.6041 60.1057 76.4583 59.8454 76.307 59.681L76.2977 59.6708C76.1368 59.491 75.8636 59.3359 75.3115 59.3359C74.7061 59.3359 74.4133 59.524 74.2301 59.7826C73.9954 60.1166 73.8066 60.7181 73.8066 61.7285V62.7332ZM76.8252 64.5172V65.4287C76.8252 66.4307 76.6375 67.0416 76.3957 67.392L76.3918 67.3977C76.2211 67.6487 75.9407 67.8389 75.3291 67.8389C74.8046 67.8389 74.5214 67.6913 74.3417 67.5013C74.1903 67.3412 74.0464 67.0952 73.9452 66.7205L76.8252 64.5172Z" fill="white"/>
<path d="M16.9746 70H15.3486V59.2773L12 60.5518V59.0664L16.8428 57.2031H16.9746V70Z" fill="black"/>
<path d="M30.5449 65.1045C30.5449 65.9189 30.4512 66.6426 30.2637 67.2754C30.0762 67.9023 29.8066 68.4326 29.4551 68.8662C29.1035 69.2939 28.6729 69.6191 28.1631 69.8418C27.6533 70.0645 27.0703 70.1758 26.4141 70.1758C25.7637 70.1758 25.1807 70.0645 24.665 69.8418C24.1553 69.6191 23.7217 69.2939 23.3643 68.8662C23.0068 68.4326 22.7314 67.9023 22.5381 67.2754C22.3506 66.6426 22.2568 65.9189 22.2568 65.1045V62.1074C22.2568 61.293 22.3506 60.5723 22.5381 59.9453C22.7256 59.3125 22.9951 58.7793 23.3467 58.3457C23.7041 57.9121 24.1377 57.584 24.6475 57.3613C25.1631 57.1328 25.7461 57.0186 26.3965 57.0186C27.0527 57.0186 27.6357 57.1328 28.1455 57.3613C28.6611 57.584 29.0947 57.9121 29.4463 58.3457C29.8037 58.7793 30.0762 59.3125 30.2637 59.9453C30.4512 60.5723 30.5449 61.293 30.5449 62.1074V65.1045ZM23.8916 64.7793L28.875 60.9561C28.7812 60.1064 28.5322 59.4619 28.1279 59.0225C27.7295 58.5771 27.1523 58.3545 26.3965 58.3545C25.541 58.3545 24.9082 58.6445 24.498 59.2246C24.0938 59.7988 23.8916 60.6396 23.8916 61.7471V64.7793ZM28.9102 62.5117L23.9355 66.3174C24.0352 67.1436 24.29 67.7734 24.7002 68.207C25.1104 68.6406 25.6816 68.8574 26.4141 68.8574C27.2754 68.8574 27.9053 68.5645 28.3037 67.9785C28.708 67.3926 28.9102 66.5488 28.9102 65.4473V62.5117Z" fill="black"/>
<path d="M41.3555 65.1045C41.3555 65.9189 41.2617 66.6426 41.0742 67.2754C40.8867 67.9023 40.6172 68.4326 40.2656 68.8662C39.9141 69.2939 39.4834 69.6191 38.9736 69.8418C38.4639 70.0645 37.8809 70.1758 37.2246 70.1758C36.5742 70.1758 35.9912 70.0645 35.4756 69.8418C34.9658 69.6191 34.5322 69.2939 34.1748 68.8662C33.8174 68.4326 33.542 67.9023 33.3486 67.2754C33.1611 66.6426 33.0674 65.9189 33.0674 65.1045V62.1074C33.0674 61.293 33.1611 60.5723 33.3486 59.9453C33.5361 59.3125 33.8057 58.7793 34.1572 58.3457C34.5146 57.9121 34.9482 57.584 35.458 57.3613C35.9736 57.1328 36.5566 57.0186 37.207 57.0186C37.8633 57.0186 38.4463 57.1328 38.9561 57.3613C39.4717 57.584 39.9053 57.9121 40.2568 58.3457C40.6143 58.7793 40.8867 59.3125 41.0742 59.9453C41.2617 60.5723 41.3555 61.293 41.3555 62.1074V65.1045ZM34.7021 64.7793L39.6855 60.9561C39.5918 60.1064 39.3428 59.4619 38.9385 59.0225C38.54 58.5771 37.9629 58.3545 37.207 58.3545C36.3516 58.3545 35.7188 58.6445 35.3086 59.2246C34.9043 59.7988 34.7021 60.6396 34.7021 61.7471V64.7793ZM39.7207 62.5117L34.7461 66.3174C34.8457 67.1436 35.1006 67.7734 35.5107 68.207C35.9209 68.6406 36.4922 68.8574 37.2246 68.8574C38.0859 68.8574 38.7158 68.5645 39.1143 67.9785C39.5186 67.3926 39.7207 66.5488 39.7207 65.4473V62.5117Z" fill="black"/>
<path fill-rule="evenodd" clip-rule="evenodd" d="M17.9746 71H14.3486V60.7279L11 62.0023V58.3797L16.657 56.2031H17.9746V71ZM15.3486 59.2773V70H16.9746V57.2031H16.8428L12 59.0664V60.5518L15.3486 59.2773Z" fill="white"/>
<path d="M30.46 65.0859C30.46 65.9004 30.3662 66.624 30.1787 67.2568C29.9912 67.8838 29.7217 68.4141 29.3701 68.8477C29.0186 69.2754 28.5879 69.6006 28.0781 69.8232C27.5684 70.0459 26.9854 70.1572 26.3291 70.1572C25.6787 70.1572 25.0957 70.0459 24.5801 69.8232C24.0703 69.6006 23.6367 69.2754 23.2793 68.8477C22.9219 68.4141 22.6465 67.8838 22.4531 67.2568C22.2656 66.624 22.1719 65.9004 22.1719 65.0859V62.0889C22.1719 61.2744 22.2656 60.5537 22.4531 59.9268C22.6406 59.2939 22.9102 58.7607 23.2617 58.3271C23.6191 57.8936 24.0527 57.5654 24.5625 57.3428C25.0781 57.1143 25.6611 57 26.3115 57C26.9678 57 27.5508 57.1143 28.0605 57.3428C28.5762 57.5654 29.0098 57.8936 29.3613 58.3271C29.7188 58.7607 29.9912 59.2939 30.1787 59.9268C30.3662 60.5537 30.46 61.2744 30.46 62.0889V65.0859ZM23.8066 64.7607L28.79 60.9375C28.6963 60.0879 28.4473 59.4434 28.043 59.0039C27.6445 58.5586 27.0674 58.3359 26.3115 58.3359C25.4561 58.3359 24.8232 58.626 24.4131 59.2061C24.0088 59.7803 23.8066 60.6211 23.8066 61.7285V64.7607ZM28.8252 62.4932L23.8506 66.2988C23.9502 67.125 24.2051 67.7549 24.6152 68.1885C25.0254 68.6221 25.5967 68.8389 26.3291 68.8389C27.1904 68.8389 27.8203 68.5459 28.2188 67.96C28.623 67.374 28.8252 66.5303 28.8252 65.4287V62.4932Z" fill="black"/>
<path fill-rule="evenodd" clip-rule="evenodd" d="M31.1375 67.5409L31.1368 67.5434C30.9182 68.2742 30.5936 68.9265 30.1469 69.4775L30.1427 69.4826C29.6905 70.0328 29.132 70.4542 28.4784 70.7396C27.8218 71.0264 27.0987 71.1572 26.3291 71.1572C25.5637 71.1572 24.8427 71.0259 24.1836 70.7413L24.1798 70.7396C23.5277 70.4548 22.9685 70.0353 22.5119 69.4889L22.5077 69.4837C22.0545 68.9341 21.723 68.2826 21.4975 67.5515L21.4943 67.5409C21.2739 66.7973 21.1719 65.975 21.1719 65.0859V62.0889C21.1719 61.2005 21.2738 60.3805 21.4947 59.6414C21.7128 58.9056 22.0372 58.2496 22.485 57.6973L22.4901 57.6911C22.9459 57.1381 23.5054 56.7137 24.1598 56.4274C24.8204 56.1351 25.5438 56 26.3115 56C27.0819 56 27.806 56.134 28.4633 56.4274C29.1221 56.7131 29.6835 57.1377 30.1355 57.6941C30.5903 58.2468 30.9185 58.9039 31.1371 59.6415C31.358 60.3805 31.46 61.2005 31.46 62.0889V65.0859C31.46 65.975 31.3578 66.7973 31.1375 67.5409ZM30.1787 59.9268C29.9912 59.2939 29.7188 58.7607 29.3613 58.3271C29.0098 57.8936 28.5762 57.5654 28.0605 57.3428C27.5508 57.1143 26.9678 57 26.3115 57C25.6611 57 25.0781 57.1143 24.5625 57.3428C24.0527 57.5654 23.6191 57.8936 23.2617 58.3271C22.9102 58.7607 22.6406 59.2939 22.4531 59.9268C22.2656 60.5537 22.1719 61.2744 22.1719 62.0889V65.0859C22.1719 65.9004 22.2656 66.624 22.4531 67.2568C22.6465 67.8838 22.9219 68.4141 23.2793 68.8477C23.6367 69.2754 24.0703 69.6006 24.5801 69.8232C25.0957 70.0459 25.6787 70.1572 26.3291 70.1572C26.9854 70.1572 27.5684 70.0459 28.0781 69.8232C28.5879 69.6006 29.0186 69.2754 29.3701 68.8477C29.7217 68.4141 29.9912 67.8838 30.1787 67.2568C30.3662 66.624 30.46 65.9004 30.46 65.0859V62.0889C30.46 61.2744 30.3662 60.5537 30.1787 59.9268ZM23.8506 66.2988C23.9502 67.125 24.2051 67.7549 24.6152 68.1885C25.0254 68.6221 25.5967 68.8389 26.3291 68.8389C27.1904 68.8389 27.8203 68.5459 28.2188 67.96C28.623 67.374 28.8252 66.5303 28.8252 65.4287V62.4932L23.8506 66.2988ZM28.79 60.9375C28.6963 60.0879 28.4473 59.4434 28.043 59.0039C27.6445 58.5586 27.0674 58.3359 26.3115 58.3359C25.4561 58.3359 24.8232 58.626 24.4131 59.2061C24.0088 59.7803 23.8066 60.6211 23.8066 61.7285V64.7607L28.79 60.9375ZM24.8066 62.7332L27.7037 60.5105C27.6041 60.1057 27.4583 59.8454 27.307 59.681L27.2977 59.6708C27.1368 59.491 26.8636 59.3359 26.3115 59.3359C25.7061 59.3359 25.4133 59.524 25.2301 59.7826C24.9954 60.1166 24.8066 60.7181 24.8066 61.7285V62.7332ZM27.8252 64.5172V65.4287C27.8252 66.4307 27.6375 67.0416 27.3957 67.392L27.3918 67.3977C27.2211 67.6487 26.9407 67.8389 26.3291 67.8389C25.8046 67.8389 25.5214 67.6913 25.3417 67.5013C25.1903 67.3412 25.0464 67.0952 24.9452 66.7205L27.8252 64.5172Z" fill="white"/>
<path d="M41.46 65.0859C41.46 65.9004 41.3662 66.624 41.1787 67.2568C40.9912 67.8838 40.7217 68.4141 40.3701 68.8477C40.0186 69.2754 39.5879 69.6006 39.0781 69.8232C38.5684 70.0459 37.9854 70.1572 37.3291 70.1572C36.6787 70.1572 36.0957 70.0459 35.5801 69.8232C35.0703 69.6006 34.6367 69.2754 34.2793 68.8477C33.9219 68.4141 33.6465 67.8838 33.4531 67.2568C33.2656 66.624 33.1719 65.9004 33.1719 65.0859V62.0889C33.1719 61.2744 33.2656 60.5537 33.4531 59.9268C33.6406 59.2939 33.9102 58.7607 34.2617 58.3271C34.6191 57.8936 35.0527 57.5654 35.5625 57.3428C36.0781 57.1143 36.6611 57 37.3115 57C37.9678 57 38.5508 57.1143 39.0605 57.3428C39.5762 57.5654 40.0098 57.8936 40.3613 58.3271C40.7188 58.7607 40.9912 59.2939 41.1787 59.9268C41.3662 60.5537 41.46 61.2744 41.46 62.0889V65.0859ZM34.8066 64.7607L39.79 60.9375C39.6963 60.0879 39.4473 59.4434 39.043 59.0039C38.6445 58.5586 38.0674 58.3359 37.3115 58.3359C36.4561 58.3359 35.8232 58.626 35.4131 59.2061C35.0088 59.7803 34.8066 60.6211 34.8066 61.7285V64.7607ZM39.8252 62.4932L34.8506 66.2988C34.9502 67.125 35.2051 67.7549 35.6152 68.1885C36.0254 68.6221 36.5967 68.8389 37.3291 68.8389C38.1904 68.8389 38.8203 68.5459 39.2188 67.96C39.623 67.374 39.8252 66.5303 39.8252 65.4287V62.4932Z" fill="black"/>
<path fill-rule="evenodd" clip-rule="evenodd" d="M42.1375 67.5409L42.1368 67.5434C41.9182 68.2742 41.5936 68.9265 41.1469 69.4775L41.1427 69.4826C40.6905 70.0328 40.132 70.4542 39.4784 70.7396C38.8218 71.0264 38.0987 71.1572 37.3291 71.1572C36.5637 71.1572 35.8427 71.0259 35.1836 70.7413L35.1798 70.7396C34.5277 70.4548 33.9685 70.0353 33.5119 69.4889L33.5077 69.4837C33.0545 68.9341 32.723 68.2826 32.4975 67.5515L32.4943 67.5409C32.2739 66.7973 32.1719 65.975 32.1719 65.0859V62.0889C32.1719 61.2005 32.2738 60.3805 32.4947 59.6414C32.7128 58.9056 33.0372 58.2496 33.485 57.6973L33.4901 57.6911C33.9459 57.1381 34.5054 56.7137 35.1598 56.4274C35.8204 56.1351 36.5438 56 37.3115 56C38.0819 56 38.806 56.134 39.4633 56.4274C40.1221 56.7131 40.6835 57.1377 41.1355 57.6941C41.5903 58.2468 41.9185 58.9039 42.1371 59.6415C42.358 60.3805 42.46 61.2005 42.46 62.0889V65.0859C42.46 65.975 42.3578 66.7973 42.1375 67.5409ZM41.1787 59.9268C40.9912 59.2939 40.7188 58.7607 40.3613 58.3271C40.0098 57.8936 39.5762 57.5654 39.0605 57.3428C38.5508 57.1143 37.9678 57 37.3115 57C36.6611 57 36.0781 57.1143 35.5625 57.3428C35.0527 57.5654 34.6191 57.8936 34.2617 58.3271C33.9102 58.7607 33.6406 59.2939 33.4531 59.9268C33.2656 60.5537 33.1719 61.2744 33.1719 62.0889V65.0859C33.1719 65.9004 33.2656 66.624 33.4531 67.2568C33.6465 67.8838 33.9219 68.4141 34.2793 68.8477C34.6367 69.2754 35.0703 69.6006 35.5801 69.8232C36.0957 70.0459 36.6787 70.1572 37.3291 70.1572C37.9854 70.1572 38.5684 70.0459 39.0781 69.8232C39.5879 69.6006 40.0186 69.2754 40.3701 68.8477C40.7217 68.4141 40.9912 67.8838 41.1787 67.2568C41.3662 66.624 41.46 65.9004 41.46 65.0859V62.0889C41.46 61.2744 41.3662 60.5537 41.1787 59.9268ZM34.8506 66.2988C34.9502 67.125 35.2051 67.7549 35.6152 68.1885C36.0254 68.6221 36.5967 68.8389 37.3291 68.8389C38.1904 68.8389 38.8203 68.5459 39.2188 67.96C39.623 67.374 39.8252 66.5303 39.8252 65.4287V62.4932L34.8506 66.2988ZM39.79 60.9375C39.6963 60.0879 39.4473 59.4434 39.043 59.0039C38.6445 58.5586 38.0674 58.3359 37.3115 58.3359C36.4561 58.3359 35.8232 58.626 35.4131 59.2061C35.0088 59.7803 34.8066 60.6211 34.8066 61.7285V64.7607L39.79 60.9375ZM35.8066 62.7332L38.7037 60.5105C38.6041 60.1057 38.4583 59.8454 38.307 59.681L38.2977 59.6708C38.1368 59.491 37.8636 59.3359 37.3115 59.3359C36.7061 59.3359 36.4133 59.524 36.2301 59.7826C35.9954 60.1166 35.8066 60.7181 35.8066 61.7285V62.7332ZM38.8252 64.5172V65.4287C38.8252 66.4307 38.6375 67.0416 38.3957 67.392L38.3918 67.3977C38.2211 67.6487 37.9407 67.8389 37.3291 67.8389C36.8046 67.8389 36.5214 67.6913 36.3417 67.5013C36.1903 67.3412 36.0464 67.0952 35.9452 66.7205L38.8252 64.5172Z" fill="white"/>
<defs>
<filter id="filter0_dddd" x="18.636" y="80" width="16.7279" height="20" filterUnits="userSpaceOnUse" color-interpolation-filters="sRGB">
<feFlood flood-opacity="0" result="BackgroundImageFix"/>
<feColorMatrix in="SourceAlpha" type="matrix" values="0 0 0 0 0 0 0 0 0 0 0 0 0 0 0 0 0 0 127 0"/>
<feOffset dy="-1"/>
<feColorMatrix type="matrix" values="0 0 0 0 1 0 0 0 0 1 0 0 0 0 1 0 0 0 1 0"/>
<feBlend mode="normal" in2="BackgroundImageFix" result="effect1_dropShadow"/>
<feColorMatrix in="SourceAlpha" type="matrix" values="0 0 0 0 0 0 0 0 0 0 0 0 0 0 0 0 0 0 127 0"/>
<feOffset dy="1"/>
<feColorMatrix type="matrix" values="0 0 0 0 1 0 0 0 0 1 0 0 0 0 1 0 0 0 1 0"/>
<feBlend mode="normal" in2="effect1_dropShadow" result="effect2_dropShadow"/>
<feColorMatrix in="SourceAlpha" type="matrix" values="0 0 0 0 0 0 0 0 0 0 0 0 0 0 0 0 0 0 127 0"/>
<feOffset dx="1"/>
<feColorMatrix type="matrix" values="0 0 0 0 1 0 0 0 0 1 0 0 0 0 1 0 0 0 1 0"/>
<feBlend mode="normal" in2="effect2_dropShadow" result="effect3_dropShadow"/>
<feColorMatrix in="SourceAlpha" type="matrix" values="0 0 0 0 0 0 0 0 0 0 0 0 0 0 0 0 0 0 127 0"/>
<feOffset dx="-1"/>
<feColorMatrix type="matrix" values="0 0 0 0 1 0 0 0 0 1 0 0 0 0 1 0 0 0 1 0"/>
<feBlend mode="normal" in2="effect3_dropShadow" result="effect4_dropShadow"/>
<feBlend mode="normal" in="SourceGraphic" in2="effect4_dropShadow" result="shape"/>
</filter>
</defs>
</svg>
