<svg width="139" height="193" viewBox="0 0 139 193" fill="none" xmlns="http://www.w3.org/2000/svg">
<path d="M35.1426 23.2617C35.1426 24.9141 34.9492 26.373 34.5625 27.6387C34.1875 28.8926 33.6426 29.9473 32.9277 30.8027C32.2129 31.6465 31.3398 32.2852 30.3086 32.7188C29.2773 33.1523 28.1172 33.3691 26.8281 33.3691C25.5508 33.3691 24.3965 33.1523 23.3652 32.7188C22.334 32.2852 21.4551 31.6465 20.7285 30.8027C20.0137 29.9473 19.457 28.8926 19.0586 27.6387C18.6719 26.373 18.4785 24.9141 18.4785 23.2617V17.1445C18.4785 15.4922 18.6719 14.0391 19.0586 12.7852C19.4453 11.5195 19.9961 10.4648 20.7109 9.62109C21.4375 8.76562 22.3105 8.12109 23.3301 7.6875C24.3613 7.25391 25.5156 7.03711 26.793 7.03711C28.082 7.03711 29.2422 7.25391 30.2734 7.6875C31.3047 8.12109 32.1777 8.76562 32.8926 9.62109C33.6191 10.4648 34.1758 11.5195 34.5625 12.7852C34.9492 14.0391 35.1426 15.4922 35.1426 17.1445V23.2617ZM23.4004 21.1523L30.2207 16.0723C30.1855 14.3496 29.8867 13.0723 29.3242 12.2402C28.7617 11.4082 27.918 10.9922 26.793 10.9922C25.6562 10.9922 24.8066 11.4316 24.2441 12.3105C23.6816 13.1895 23.4004 14.543 23.4004 16.3711V21.1523ZM30.2207 19.3945L23.4004 24.457C23.459 26.1445 23.7695 27.3984 24.332 28.2188C24.8945 29.0273 25.7266 29.4316 26.8281 29.4316C27.9766 29.4316 28.8262 28.9863 29.377 28.0957C29.9395 27.2051 30.2207 25.8398 30.2207 24V19.3945Z" fill="#C84646"/>
<path fill-rule="evenodd" clip-rule="evenodd" d="M33.6907 31.4492C32.8729 32.4144 31.8707 33.1467 30.6962 33.6406C29.525 34.133 28.2302 34.3691 26.8281 34.3691C25.4364 34.3691 24.1478 34.1326 22.9776 33.6406C21.8045 33.1473 20.7987 32.4168 19.9707 31.4553L19.9659 31.4496L19.9612 31.444C19.1495 30.4726 18.5364 29.2973 18.1056 27.9415L18.1022 27.9309C17.6804 26.5505 17.4785 24.9896 17.4785 23.2617V17.1445C17.4785 15.4174 17.6802 13.8617 18.1026 12.4917C18.5214 11.1217 19.13 9.94013 19.948 8.97468L19.9487 8.97375C20.7746 8.00132 21.7741 7.26256 22.9387 6.76726L22.9425 6.76566C24.1126 6.27367 25.4013 6.03711 26.793 6.03711C28.195 6.03711 29.4898 6.27323 30.661 6.76567C31.8366 7.25996 32.8385 7.99859 33.6552 8.97421C34.485 9.93964 35.0997 11.1215 35.5186 12.492C35.9409 13.862 36.1426 15.4176 36.1426 17.1445V23.2617C36.1426 24.9885 35.9409 26.5484 35.5197 27.9282C35.1125 29.2885 34.5101 30.4686 33.6951 31.444L33.6907 31.4492ZM34.5625 27.6387C34.9492 26.373 35.1426 24.9141 35.1426 23.2617V17.1445C35.1426 15.4922 34.9492 14.0391 34.5625 12.7852C34.1758 11.5195 33.6191 10.4648 32.8926 9.62109C32.1777 8.76562 31.3047 8.12109 30.2734 7.6875C29.2422 7.25391 28.082 7.03711 26.793 7.03711C25.5156 7.03711 24.3613 7.25391 23.3301 7.6875C22.3105 8.12109 21.4375 8.76562 20.7109 9.62109C19.9961 10.4648 19.4453 11.5195 19.0586 12.7852C18.6719 14.0391 18.4785 15.4922 18.4785 17.1445V23.2617C18.4785 24.9141 18.6719 26.373 19.0586 27.6387C19.457 28.8926 20.0137 29.9473 20.7285 30.8027C21.4551 31.6465 22.334 32.2852 23.3652 32.7188C24.3965 33.1523 25.5508 33.3691 26.8281 33.3691C28.1172 33.3691 29.2773 33.1523 30.3086 32.7188C31.3398 32.2852 32.2129 31.6465 32.9277 30.8027C33.6426 29.9473 34.1875 28.8926 34.5625 27.6387ZM28.5315 27.5617C28.9428 26.9104 29.2207 25.7744 29.2207 24V21.3822L24.4273 24.9402C24.5232 26.2585 24.7971 27.1271 25.1549 27.6505C25.506 28.1536 26.0103 28.4316 26.8281 28.4316C27.6702 28.4316 28.1781 28.1331 28.5264 27.5697L28.5315 27.5617ZM24.332 28.2188C23.7695 27.3984 23.459 26.1445 23.4004 24.457L30.2207 19.3945V24C30.2207 25.8398 29.9395 27.2051 29.377 28.0957C28.8262 28.9863 27.9766 29.4316 26.8281 29.4316C25.7266 29.4316 24.8945 29.0273 24.332 28.2188ZM29.2016 15.5844L24.4004 19.1606V16.3711C24.4004 14.6082 24.6784 13.487 25.0864 12.8496C25.4463 12.2872 25.9609 11.9922 26.793 11.9922C27.6326 11.9922 28.144 12.2799 28.4958 12.8003C28.855 13.3317 29.1242 14.2227 29.2016 15.5844ZM23.4004 21.1523V16.3711C23.4004 14.543 23.6816 13.1895 24.2441 12.3105C24.8066 11.4316 25.6562 10.9922 26.793 10.9922C27.918 10.9922 28.7617 11.4082 29.3242 12.2402C29.8867 13.0723 30.1855 14.3496 30.2207 16.0723L23.4004 21.1523Z" fill="white"/>
<path d="M66.4004 18.0586H69.0547C70.3906 18.0586 71.3809 17.7246 72.0254 17.0566C72.6699 16.377 72.9922 15.4922 72.9922 14.4023C72.9922 13.8984 72.916 13.4414 72.7637 13.0312C72.623 12.6094 72.4062 12.252 72.1133 11.959C71.8203 11.6543 71.4453 11.4199 70.9883 11.2559C70.543 11.0918 70.0215 11.0098 69.4238 11.0098C68.9316 11.0098 68.4688 11.0801 68.0352 11.2207C67.6133 11.3613 67.2383 11.5664 66.9102 11.8359C66.5938 12.0938 66.3418 12.4102 66.1543 12.7852C65.9668 13.1602 65.873 13.582 65.873 14.0508H60.9863C60.9863 13.0078 61.1973 12.0586 61.6191 11.2031C62.0527 10.3477 62.6445 9.61523 63.3945 9.00586C64.1445 8.38477 65.0234 7.9043 66.0312 7.56445C67.0508 7.22461 68.1465 7.05469 69.3184 7.05469C70.584 7.05469 71.7441 7.21289 72.7988 7.5293C73.8535 7.83398 74.7559 8.29688 75.5059 8.91797C76.2559 9.52734 76.8359 10.2891 77.2461 11.2031C77.668 12.1055 77.8789 13.1543 77.8789 14.3496C77.8789 14.9004 77.7969 15.4453 77.6328 15.9844C77.4688 16.5117 77.2285 17.0156 76.9121 17.4961C76.5957 17.9766 76.2031 18.4219 75.7344 18.832C75.2656 19.2305 74.7266 19.5762 74.1172 19.8691C74.832 20.127 75.4473 20.4551 75.9629 20.8535C76.4902 21.252 76.9238 21.709 77.2637 22.2246C77.6035 22.7285 77.8555 23.2852 78.0195 23.8945C78.1836 24.5039 78.2656 25.1484 78.2656 25.8281C78.2656 27.0234 78.0371 28.0898 77.5801 29.0273C77.123 29.9648 76.4961 30.7559 75.6992 31.4004C74.9023 32.0332 73.9531 32.5195 72.8516 32.8594C71.7617 33.1875 70.584 33.3516 69.3184 33.3516C68.2285 33.3516 67.1621 33.2051 66.1191 32.9121C65.0879 32.6074 64.168 32.1562 63.3594 31.5586C62.5508 30.9492 61.9004 30.1875 61.4082 29.2734C60.9277 28.3594 60.6875 27.2812 60.6875 26.0391H65.5742C65.5742 26.5312 65.668 26.9883 65.8555 27.4102C66.043 27.8203 66.3066 28.1777 66.6465 28.4824C66.998 28.7754 67.4082 29.0098 67.877 29.1855C68.3457 29.3496 68.8613 29.4316 69.4238 29.4316C70.666 29.4316 71.6387 29.1035 72.3418 28.4473C73.0449 27.791 73.3965 26.9004 73.3965 25.7754C73.3965 25.084 73.2969 24.4922 73.0977 24C72.8984 23.5078 72.6055 23.1035 72.2188 22.7871C71.8438 22.4707 71.3867 22.2363 70.8477 22.084C70.3203 21.9316 69.7227 21.8555 69.0547 21.8555H66.4004V18.0586Z" fill="#C84646"/>
<path fill-rule="evenodd" clip-rule="evenodd" d="M65.4004 17.0586H69.0547C70.2366 17.0586 70.916 16.7641 71.3028 16.3653C71.7407 15.9019 71.9922 15.279 71.9922 14.4023C71.9922 13.9995 71.9314 13.6627 71.8262 13.3794L71.8203 13.3636L71.815 13.3475C71.7198 13.0618 71.5814 12.8413 71.4062 12.6661L71.3992 12.6592L71.3924 12.6521C71.2212 12.474 70.984 12.3168 70.6504 12.1971L70.6426 12.1942C70.3325 12.08 69.9328 12.0098 69.4238 12.0098C69.0296 12.0098 68.6729 12.0656 68.3476 12.1706C68.0378 12.2744 67.7732 12.4212 67.5449 12.6087L67.5418 12.6112C67.3383 12.777 67.1746 12.9805 67.0487 13.2324C66.9385 13.4528 66.873 13.7188 66.873 14.0508V15.0508H59.9863V14.0508C59.9863 12.869 60.2264 11.7664 60.7223 10.7608L60.7271 10.751C61.2239 9.77078 61.904 8.92925 62.7604 8.23266C63.6122 7.52802 64.6001 6.99171 65.7117 6.61688L65.715 6.61576C66.8453 6.239 68.0487 6.05469 69.3184 6.05469C70.6652 6.05469 71.922 6.22281 73.0813 6.57C74.2474 6.90751 75.2736 7.42816 76.14 8.14476C77.0121 8.85428 77.6844 9.73998 78.1553 10.7867C78.648 11.8438 78.8789 13.0397 78.8789 14.3496C78.8789 15.0013 78.7816 15.6443 78.5895 16.2755L78.5877 16.2814C78.3946 16.902 78.1131 17.4906 77.7473 18.0461C77.3775 18.6077 76.9238 19.12 76.3929 19.5846L76.3875 19.5893L76.382 19.594C76.3113 19.6541 76.2393 19.713 76.1661 19.7708C76.3052 19.8625 76.4399 19.9585 76.5701 20.0589C77.1786 20.5194 77.6903 21.056 78.0957 21.6699C78.4981 22.2676 78.794 22.9245 78.9851 23.6346C79.1737 24.335 79.2656 25.0674 79.2656 25.8281C79.2656 27.1531 79.0116 28.3729 78.479 29.4655C77.959 30.5321 77.2408 31.4397 76.3281 32.1779L76.3211 32.1835C75.4148 32.9032 74.3511 33.4433 73.1464 33.8149L73.1399 33.8169C71.9467 34.1761 70.6708 34.3516 69.3184 34.3516C68.1376 34.3516 66.9802 34.1927 65.8487 33.8748L65.8358 33.8712C64.7004 33.5358 63.6738 33.0345 62.765 32.3628L62.7575 32.3572C61.8307 31.6588 61.0865 30.7853 60.5277 29.7475L60.523 29.7387C59.9532 28.6548 59.6875 27.4107 59.6875 26.0391V25.0391H66.5742V26.0391C66.5742 26.3987 66.6416 26.7148 66.7672 26.9992C66.8942 27.2755 67.0699 27.5159 67.3007 27.7258C67.5531 27.9334 67.8555 28.1083 68.2175 28.2452C68.5647 28.3653 68.9636 28.4316 69.4238 28.4316C70.4891 28.4316 71.1907 28.1538 71.6595 27.7162C72.1253 27.2815 72.3965 26.6745 72.3965 25.7754C72.3965 25.1756 72.3095 24.7181 72.1707 24.3752C72.0303 24.0284 71.8343 23.7646 71.5855 23.5611L71.5797 23.5563L71.5739 23.5514C71.3221 23.3389 70.9972 23.1654 70.5757 23.0463L70.5701 23.0447C70.15 22.9233 69.6483 22.8555 69.0547 22.8555H65.4004V17.0586ZM67.877 29.1855C67.4082 29.0098 66.998 28.7754 66.6465 28.4824C66.3066 28.1777 66.043 27.8203 65.8555 27.4102C65.668 26.9883 65.5742 26.5312 65.5742 26.0391H60.6875C60.6875 26.3851 60.7061 26.7185 60.7434 27.0391C60.84 27.8692 61.0616 28.614 61.4082 29.2734C61.9004 30.1875 62.5508 30.9492 63.3594 31.5586C64.168 32.1562 65.0879 32.6074 66.1191 32.9121C67.1621 33.2051 68.2285 33.3516 69.3184 33.3516C70.584 33.3516 71.7617 33.1875 72.8516 32.8594C73.9531 32.5195 74.9023 32.0332 75.6992 31.4004C76.4961 30.7559 77.123 29.9648 77.5801 29.0273C78.0371 28.0898 78.2656 27.0234 78.2656 25.8281C78.2656 25.1484 78.1836 24.5039 78.0195 23.8945C77.8555 23.2852 77.6035 22.7285 77.2637 22.2246C76.9238 21.709 76.4902 21.252 75.9629 20.8535C75.7469 20.6866 75.5134 20.532 75.2624 20.3898C74.9143 20.1925 74.5326 20.0189 74.1172 19.8691C74.5097 19.6804 74.873 19.4699 75.2072 19.2374C75.3918 19.109 75.5675 18.9738 75.7344 18.832C76.2031 18.4219 76.5957 17.9766 76.9121 17.4961C77.2285 17.0156 77.4688 16.5117 77.6328 15.9844C77.7969 15.4453 77.8789 14.9004 77.8789 14.3496C77.8789 13.1543 77.668 12.1055 77.2461 11.2031C76.8359 10.2891 76.2559 9.52734 75.5059 8.91797C74.7559 8.29688 73.8535 7.83398 72.7988 7.5293C71.7441 7.21289 70.584 7.05469 69.3184 7.05469C68.1465 7.05469 67.0508 7.22461 66.0312 7.56445C65.0234 7.9043 64.1445 8.38477 63.3945 9.00586C62.6445 9.61523 62.0527 10.3477 61.6191 11.2031C61.3362 11.7768 61.1482 12.3927 61.055 13.0508C61.0092 13.3739 60.9863 13.7073 60.9863 14.0508H65.873C65.873 13.582 65.9668 13.1602 66.1543 12.7852C66.3418 12.4102 66.5938 12.0938 66.9102 11.8359C67.2383 11.5664 67.6133 11.3613 68.0352 11.2207C68.4688 11.0801 68.9316 11.0098 69.4238 11.0098C70.0215 11.0098 70.543 11.0918 70.9883 11.2559C71.4453 11.4199 71.8203 11.6543 72.1133 11.959C72.4062 12.252 72.623 12.6094 72.7637 13.0312C72.916 13.4414 72.9922 13.8984 72.9922 14.4023C72.9922 15.4922 72.6699 16.377 72.0254 17.0566C71.3809 17.7246 70.3906 18.0586 69.0547 18.0586H66.4004V21.8555H69.0547C69.7227 21.8555 70.3203 21.9316 70.8477 22.084C71.3867 22.2363 71.8438 22.4707 72.2188 22.7871C72.6055 23.1035 72.8984 23.5078 73.0977 24C73.2969 24.4922 73.3965 25.084 73.3965 25.7754C73.3965 26.9004 73.0449 27.791 72.3418 28.4473C71.6387 29.1035 70.666 29.4316 69.4238 29.4316C68.8613 29.4316 68.3457 29.3496 67.877 29.1855Z" fill="white"/>
<path d="M121.213 33H103.758V29.6602L112.037 20.7656C112.682 20.0625 113.227 19.4238 113.672 18.8496C114.117 18.2754 114.475 17.7539 114.744 17.2852C115.025 16.8047 115.225 16.3594 115.342 15.9492C115.471 15.5391 115.535 15.1406 115.535 14.7539C115.535 14.1797 115.453 13.6699 115.289 13.2246C115.125 12.7793 114.891 12.4043 114.586 12.0996C114.293 11.7832 113.936 11.543 113.514 11.3789C113.104 11.2148 112.646 11.1328 112.143 11.1328C110.795 11.1328 109.787 11.5078 109.119 12.2578C108.463 13.0078 108.135 14.0566 108.135 15.4043H103.23C103.23 14.2676 103.447 13.1953 103.881 12.1875C104.314 11.168 104.924 10.2773 105.709 9.51562C106.506 8.75391 107.461 8.15625 108.574 7.72266C109.699 7.27734 110.941 7.05469 112.301 7.05469C113.602 7.05469 114.75 7.23633 115.746 7.59961C116.754 7.96289 117.592 8.47266 118.26 9.12891C118.939 9.78516 119.455 10.5762 119.807 11.502C120.158 12.416 120.334 13.4297 120.334 14.543C120.334 15.3867 120.199 16.1953 119.93 16.9688C119.672 17.7305 119.297 18.4863 118.805 19.2363C118.324 19.9863 117.744 20.7539 117.064 21.5391C116.385 22.3125 115.629 23.127 114.797 23.9824L109.98 29.0801H121.213V33Z" fill="#C84646"/>
<path fill-rule="evenodd" clip-rule="evenodd" d="M122.213 34H102.758V29.2668L111.303 20.087C111.933 19.3994 112.458 18.7831 112.882 18.2368C113.308 17.6874 113.637 17.2047 113.877 16.7867L113.881 16.78C114.132 16.3512 114.292 15.9838 114.38 15.6745L114.384 15.6619L114.388 15.6494C114.49 15.3255 114.535 15.0283 114.535 14.7539C114.535 14.2736 114.466 13.8844 114.351 13.5703C114.232 13.2469 114.071 12.9991 113.879 12.8067L113.865 12.7931L113.852 12.779C113.667 12.5794 113.439 12.4228 113.151 12.3109L113.142 12.3074C112.866 12.1968 112.537 12.1328 112.143 12.1328C110.98 12.1328 110.288 12.4506 109.869 12.9197C109.422 13.4317 109.135 14.2154 109.135 15.4043V16.4043H102.23V15.4043C102.23 14.1374 102.473 12.9308 102.961 11.7942C103.446 10.6545 104.131 9.65312 105.013 8.79789L105.018 8.79273C105.917 7.93384 106.985 7.26887 108.209 6.79186C109.464 6.29546 110.832 6.05469 112.301 6.05469C113.692 6.05469 114.96 6.2487 116.087 6.65952C117.209 7.06404 118.174 7.64358 118.957 8.41239C119.746 9.17479 120.34 10.0904 120.741 11.1449C121.141 12.1876 121.334 13.3243 121.334 14.543C121.334 15.4938 121.182 16.4124 120.875 17.2935C120.588 18.1413 120.175 18.9703 119.644 19.7804C119.134 20.5753 118.525 21.3796 117.821 22.1936L117.816 22.1992C117.125 22.9855 116.359 23.8106 115.519 24.6744L112.301 28.0801H122.213V34ZM109.98 29.0801L114.797 23.9824C115.629 23.127 116.385 22.3125 117.064 21.5391C117.744 20.7539 118.324 19.9863 118.805 19.2363C119.297 18.4863 119.672 17.7305 119.93 16.9688C120.199 16.1953 120.334 15.3867 120.334 14.543C120.334 13.4297 120.158 12.416 119.807 11.502C119.455 10.5762 118.939 9.78516 118.26 9.12891C117.592 8.47266 116.754 7.96289 115.746 7.59961C114.75 7.23633 113.602 7.05469 112.301 7.05469C110.941 7.05469 109.699 7.27734 108.574 7.72266C107.461 8.15625 106.506 8.75391 105.709 9.51562C104.924 10.2773 104.314 11.168 103.881 12.1875C103.577 12.8947 103.379 13.6336 103.288 14.4043C103.25 14.7319 103.23 15.0652 103.23 15.4043H108.135C108.135 14.0566 108.463 13.0078 109.119 12.2578C109.787 11.5078 110.795 11.1328 112.143 11.1328C112.646 11.1328 113.104 11.2148 113.514 11.3789C113.936 11.543 114.293 11.7832 114.586 12.0996C114.891 12.4043 115.125 12.7793 115.289 13.2246C115.453 13.6699 115.535 14.1797 115.535 14.7539C115.535 15.1406 115.471 15.5391 115.342 15.9492C115.225 16.3594 115.025 16.8047 114.744 17.2852C114.475 17.7539 114.117 18.2754 113.672 18.8496C113.227 19.4238 112.682 20.0625 112.037 20.7656L103.758 29.6602V33H121.213V29.0801H109.98Z" fill="white"/>
<path d="M34.6328 45.8145H18.6016V42H34.6328V45.8145Z" fill="black"/>
<path fill-rule="evenodd" clip-rule="evenodd" d="M35.6328 46.8145H17.6016V41H35.6328V46.8145ZM34.6328 45.8145V42H18.6016V45.8145H34.6328Z" fill="white"/>
<path d="M77.6328 45.8145H61.6016V42H77.6328V45.8145Z" fill="black"/>
<path fill-rule="evenodd" clip-rule="evenodd" d="M78.6328 46.8145H60.6016V41H78.6328V46.8145ZM77.6328 45.8145V42H61.6016V45.8145H77.6328Z" fill="white"/>
<path d="M120.633 45.8145H104.602V42H120.633V45.8145Z" fill="black"/>
<path fill-rule="evenodd" clip-rule="evenodd" d="M121.633 46.8145H103.602V41H121.633V46.8145ZM120.633 45.8145V42H104.602V45.8145H120.633Z" fill="white"/>
<path d="M19.3779 68H10.9932V66.8311L15.1855 62.1729C15.5605 61.7568 15.874 61.3877 16.126 61.0654C16.3779 60.7432 16.5801 60.4473 16.7324 60.1777C16.8848 59.9023 16.9932 59.6445 17.0576 59.4043C17.1221 59.1582 17.1543 58.9062 17.1543 58.6484C17.1543 58.332 17.1016 58.0361 16.9961 57.7607C16.8965 57.4795 16.7471 57.2363 16.5479 57.0312C16.3545 56.8262 16.1172 56.665 15.8359 56.5479C15.5605 56.4248 15.2471 56.3633 14.8955 56.3633C14.4678 56.3633 14.0957 56.4248 13.7793 56.5479C13.4688 56.6709 13.208 56.8467 12.9971 57.0752C12.792 57.2979 12.6367 57.5703 12.5312 57.8926C12.4316 58.2148 12.3818 58.5752 12.3818 58.9736H10.7471C10.7471 58.4346 10.8408 57.9277 11.0283 57.4531C11.2158 56.9727 11.4854 56.5537 11.8369 56.1963C12.1943 55.8389 12.6279 55.5547 13.1377 55.3438C13.6533 55.1328 14.2393 55.0273 14.8955 55.0273C15.499 55.0273 16.041 55.1182 16.5215 55.2998C17.0078 55.4756 17.418 55.7217 17.752 56.0381C18.0859 56.3545 18.3408 56.7295 18.5166 57.1631C18.6982 57.5967 18.7891 58.0684 18.7891 58.5781C18.7891 58.959 18.7246 59.3369 18.5957 59.7119C18.4668 60.0811 18.291 60.4473 18.0684 60.8105C17.8516 61.1738 17.5967 61.5342 17.3037 61.8916C17.0166 62.2432 16.7119 62.5947 16.3896 62.9463L12.9531 66.6729H19.3779V68Z" fill="black"/>
<path d="M39.1445 55.1943V56.6533H39.0039C38.4648 56.6533 37.9814 56.709 37.5537 56.8203C37.1318 56.9316 36.7598 57.084 36.4375 57.2773C36.1152 57.4707 35.8369 57.7021 35.6025 57.9717C35.374 58.2354 35.1836 58.5254 35.0312 58.8418C34.8789 59.1582 34.7617 59.4893 34.6797 59.835C34.5977 60.1807 34.5449 60.5322 34.5215 60.8896C34.6738 60.708 34.8496 60.541 35.0488 60.3887C35.248 60.2305 35.4619 60.0957 35.6904 59.9844C35.9248 59.8672 36.1738 59.7764 36.4375 59.7119C36.707 59.6416 36.9883 59.6064 37.2812 59.6064C37.9199 59.6064 38.4707 59.7295 38.9336 59.9756C39.3965 60.2158 39.7773 60.5352 40.0762 60.9336C40.375 61.332 40.5947 61.7832 40.7354 62.2871C40.876 62.791 40.9463 63.3037 40.9463 63.8252C40.9463 64.4229 40.8613 64.9854 40.6914 65.5127C40.5273 66.04 40.2783 66.5029 39.9443 66.9014C39.6104 67.2939 39.1943 67.6045 38.6963 67.833C38.2041 68.0615 37.6328 68.1758 36.9824 68.1758C36.5195 68.1758 36.0947 68.1084 35.708 67.9736C35.3271 67.8389 34.9844 67.6572 34.6797 67.4287C34.375 67.1943 34.1084 66.9189 33.8799 66.6025C33.6514 66.2861 33.4609 65.9463 33.3086 65.583C33.1621 65.2197 33.0508 64.8418 32.9746 64.4492C32.8984 64.0566 32.8604 63.6641 32.8604 63.2715V62.5068C32.8604 61.9209 32.8955 61.335 32.9658 60.749C33.042 60.1572 33.168 59.5918 33.3438 59.0527C33.5195 58.5137 33.7568 58.0098 34.0557 57.541C34.3545 57.0664 34.7295 56.6562 35.1807 56.3105C35.6377 55.9648 36.1797 55.6924 36.8066 55.4932C37.4336 55.2939 38.166 55.1943 39.0039 55.1943H39.1445ZM37.0176 60.96C36.7422 60.96 36.4756 61.0039 36.2178 61.0918C35.96 61.1797 35.7197 61.3027 35.4971 61.4609C35.2744 61.6191 35.0781 61.8096 34.9082 62.0322C34.7383 62.2549 34.6035 62.501 34.5039 62.7705V63.3154C34.5039 63.8779 34.5713 64.3789 34.7061 64.8184C34.8408 65.252 35.0225 65.6182 35.251 65.917C35.4795 66.2158 35.7432 66.4443 36.042 66.6025C36.3408 66.7549 36.6543 66.8311 36.9824 66.8311C37.3633 66.8311 37.7002 66.7578 37.9932 66.6113C38.2861 66.4648 38.5322 66.2627 38.7314 66.0049C38.9365 65.7471 39.0889 65.4395 39.1885 65.082C39.2939 64.7188 39.3467 64.3262 39.3467 63.9043C39.3467 63.5293 39.2998 63.166 39.2061 62.8145C39.1123 62.457 38.9688 62.1406 38.7754 61.8652C38.582 61.5898 38.3389 61.3701 38.0459 61.2061C37.7529 61.042 37.4102 60.96 37.0176 60.96Z" fill="black"/>
<path fill-rule="evenodd" clip-rule="evenodd" d="M20.3779 69H9.99316V66.4473L14.4423 61.5039C14.8069 61.0994 15.1047 60.7481 15.3382 60.4495C15.5672 60.1566 15.7382 59.9038 15.8596 59.6896C15.9804 59.4707 16.0523 59.291 16.091 59.148C16.133 58.9867 16.1543 58.8209 16.1543 58.6484C16.1543 58.4453 16.1209 58.2715 16.0622 58.1184L16.0577 58.1065L16.0535 58.0946C15.9998 57.9431 15.925 57.8253 15.8306 57.728L15.8254 57.7227L15.8203 57.7173C15.7309 57.6225 15.6135 57.5385 15.4513 57.4709L15.4396 57.466L15.428 57.4609C15.3005 57.4039 15.1296 57.3633 14.8955 57.3633C14.5627 57.3633 14.3196 57.4112 14.1446 57.4787C13.9648 57.5504 13.8335 57.6435 13.7323 57.753C13.6367 57.8569 13.5501 57.9976 13.4842 58.1958C13.4204 58.4055 13.3818 58.6616 13.3818 58.9736V59.9736H9.74707V58.9736C9.74707 58.3167 9.86173 57.6852 10.0975 57.0877C10.3328 56.4855 10.6751 55.9514 11.124 55.495L11.1298 55.4892C11.5883 55.0306 12.1353 54.6763 12.7553 54.4197L12.7591 54.4182C13.4142 54.1502 14.1321 54.0273 14.8955 54.0273C15.5965 54.0273 16.2588 54.1325 16.8682 54.3618C17.4652 54.5785 17.9958 54.8916 18.4397 55.3121C18.8779 55.7273 19.2127 56.2205 19.4412 56.7821C19.6767 57.3465 19.7891 57.949 19.7891 58.5781C19.7891 59.0741 19.7048 59.5617 19.5414 60.037L19.5398 60.0416C19.386 60.482 19.1793 60.9109 18.9241 61.328C18.6805 61.7356 18.3977 62.1344 18.0777 62.5248C17.7781 62.8916 17.4611 63.2573 17.1268 63.622L17.1248 63.6242L15.2356 65.6729H20.3779V69ZM12.9531 66.6729L16.3896 62.9463C16.7119 62.5947 17.0166 62.2432 17.3037 61.8916C17.5967 61.5342 17.8516 61.1738 18.0684 60.8105C18.291 60.4473 18.4668 60.0811 18.5957 59.7119C18.7246 59.3369 18.7891 58.959 18.7891 58.5781C18.7891 58.0684 18.6982 57.5967 18.5166 57.1631C18.3408 56.7295 18.0859 56.3545 17.752 56.0381C17.418 55.7217 17.0078 55.4756 16.5215 55.2998C16.041 55.1182 15.499 55.0273 14.8955 55.0273C14.2393 55.0273 13.6533 55.1328 13.1377 55.3438C12.6279 55.5547 12.1943 55.8389 11.8369 56.1963C11.4854 56.5537 11.2158 56.9727 11.0283 57.4531C10.9614 57.6225 10.9064 57.796 10.8634 57.9736C10.7858 58.2936 10.7471 58.627 10.7471 58.9736H12.3818C12.3818 58.5752 12.4316 58.2148 12.5312 57.8926C12.6367 57.5703 12.792 57.2979 12.9971 57.0752C13.208 56.8467 13.4688 56.6709 13.7793 56.5479C14.0957 56.4248 14.4678 56.3633 14.8955 56.3633C15.2471 56.3633 15.5605 56.4248 15.8359 56.5479C16.1172 56.665 16.3545 56.8262 16.5479 57.0312C16.7471 57.2363 16.8965 57.4795 16.9961 57.7607C17.1016 58.0361 17.1543 58.332 17.1543 58.6484C17.1543 58.9062 17.1221 59.1582 17.0576 59.4043C16.9932 59.6445 16.8848 59.9023 16.7324 60.1777C16.5801 60.4473 16.3779 60.7432 16.126 61.0654C15.874 61.3877 15.5605 61.7568 15.1855 62.1729L10.9932 66.8311V68H19.3779V66.6729H12.9531ZM40.1445 54.1943V57.6533H39.0039C38.5327 57.6533 38.1367 57.7021 37.8072 57.7877C37.4629 57.8786 37.1813 57.9973 36.952 58.1348C36.7153 58.2768 36.5194 58.4414 36.3576 58.6273C36.3311 58.658 36.3052 58.6891 36.28 58.7207C36.6062 58.6438 36.9406 58.6064 37.2812 58.6064C38.0464 58.6064 38.7639 58.7539 39.3985 59.0902C39.9863 59.396 40.4839 59.8106 40.8762 60.3336C41.2532 60.8363 41.5263 61.4009 41.6985 62.0183C41.8635 62.6094 41.9463 63.2126 41.9463 63.8252C41.9463 64.5171 41.848 65.1821 41.6447 65.8147C41.4438 66.4585 41.1339 67.0389 40.7107 67.5438L40.706 67.5494C40.2721 68.0594 39.7365 68.4556 39.1154 68.741C38.4682 69.041 37.749 69.1758 36.9824 69.1758C36.4219 69.1758 35.8843 69.094 35.3789 68.9179L35.3744 68.9164C34.9039 68.7498 34.4702 68.5216 34.0797 68.2287L34.0699 68.2214C33.6874 67.9271 33.3535 67.5816 33.0692 67.188C32.7956 66.8093 32.5679 66.4026 32.3864 65.9697L32.3811 65.957C32.2102 65.5332 32.081 65.0937 31.9929 64.6397C31.9048 64.1855 31.8604 63.7292 31.8604 63.2715V62.5068C31.8604 61.8808 31.8979 61.2551 31.9729 60.6299L31.974 60.6214C32.0577 59.9708 32.1969 59.3442 32.393 58.7427C32.5941 58.1261 32.8666 57.5463 33.2109 57.0059C33.5736 56.4305 34.0291 55.9331 34.5724 55.5168L34.5774 55.513C35.1373 55.0895 35.7844 54.7687 36.5038 54.5401C37.2512 54.3026 38.09 54.1943 39.0039 54.1943H40.1445ZM34.0557 57.541C33.7568 58.0098 33.5195 58.5137 33.3438 59.0527C33.168 59.5918 33.042 60.1572 32.9658 60.749C32.8955 61.335 32.8604 61.9209 32.8604 62.5068V63.2715C32.8604 63.6641 32.8984 64.0566 32.9746 64.4492C33.0508 64.8418 33.1621 65.2197 33.3086 65.583C33.4609 65.9463 33.6514 66.2861 33.8799 66.6025C34.1084 66.9189 34.375 67.1943 34.6797 67.4287C34.9844 67.6572 35.3271 67.8389 35.708 67.9736C36.0947 68.1084 36.5195 68.1758 36.9824 68.1758C37.6328 68.1758 38.2041 68.0615 38.6963 67.833C39.1943 67.6045 39.6104 67.2939 39.9443 66.9014C40.2783 66.5029 40.5273 66.04 40.6914 65.5127C40.8613 64.9854 40.9463 64.4229 40.9463 63.8252C40.9463 63.3037 40.876 62.791 40.7354 62.2871C40.5947 61.7832 40.375 61.332 40.0762 60.9336C39.7773 60.5352 39.3965 60.2158 38.9336 59.9756C38.4707 59.7295 37.9199 59.6064 37.2812 59.6064C36.9883 59.6064 36.707 59.6416 36.4375 59.7119C36.1738 59.7764 35.9248 59.8672 35.6904 59.9844C35.6837 59.9876 35.677 59.9909 35.6704 59.9942C35.6365 60.011 35.6029 60.0283 35.5696 60.0461C35.3861 60.1445 35.2125 60.2587 35.0488 60.3887C34.8496 60.541 34.6738 60.708 34.5215 60.8896C34.5434 60.5559 34.5908 60.2273 34.6638 59.9038C34.6648 59.899 34.6659 59.8942 34.667 59.8894C34.6712 59.8712 34.6754 59.8531 34.6797 59.835C34.7214 59.6591 34.7723 59.487 34.8322 59.3187C34.8901 59.1562 34.9564 58.9972 35.0312 58.8418C35.1836 58.5254 35.374 58.2354 35.6025 57.9717C35.8369 57.7021 36.1152 57.4707 36.4375 57.2773C36.7598 57.084 37.1318 56.9316 37.5537 56.8203C37.9814 56.709 38.4648 56.6533 39.0039 56.6533H39.1445V55.1943H39.0039C38.7039 55.1943 38.4175 55.2071 38.1445 55.2326C37.6551 55.2784 37.2091 55.3653 36.8066 55.4932C36.1797 55.6924 35.6377 55.9648 35.1807 56.3105C34.7295 56.6562 34.3545 57.0664 34.0557 57.541ZM39.2061 62.8145C39.1123 62.457 38.9688 62.1406 38.7754 61.8652C38.582 61.5898 38.3389 61.3701 38.0459 61.2061C37.7529 61.042 37.4102 60.96 37.0176 60.96C36.7422 60.96 36.4756 61.0039 36.2178 61.0918C35.96 61.1797 35.7197 61.3027 35.4971 61.4609C35.2744 61.6191 35.0781 61.8096 34.9082 62.0322C34.7383 62.2549 34.6035 62.501 34.5039 62.7705V63.3154C34.5039 63.8779 34.5713 64.3789 34.7061 64.8184C34.8408 65.252 35.0225 65.6182 35.251 65.917C35.4795 66.2158 35.7432 66.4443 36.042 66.6025C36.3408 66.7549 36.6543 66.8311 36.9824 66.8311C37.3633 66.8311 37.7002 66.7578 37.9932 66.6113C38.2861 66.4648 38.5322 66.2627 38.7314 66.0049C38.9365 65.7471 39.0889 65.4395 39.1885 65.082C39.2939 64.7188 39.3467 64.3262 39.3467 63.9043C39.3467 63.5293 39.2998 63.166 39.2061 62.8145ZM36.5031 65.7151C36.6621 65.795 36.8182 65.8311 36.9824 65.8311C37.2333 65.8311 37.4128 65.7835 37.5459 65.7169C37.7052 65.6373 37.8334 65.5316 37.9402 65.3934L37.9488 65.3823C38.0606 65.2417 38.157 65.0583 38.2252 64.8136L38.2281 64.8032C38.3044 64.5403 38.3467 64.2425 38.3467 63.9043C38.3467 63.6136 38.3105 63.3371 38.2398 63.0721L38.2388 63.0682C38.1722 62.8144 38.0756 62.6089 37.957 62.4399C37.8496 62.287 37.7191 62.1692 37.5573 62.0786C37.4371 62.0113 37.2682 61.96 37.0176 61.96C36.8507 61.96 36.6932 61.9862 36.5404 62.0383C36.3743 62.0949 36.2204 62.1737 36.0763 62.2761C35.9377 62.3746 35.8136 62.4941 35.7032 62.6389C35.6261 62.7399 35.5596 62.8492 35.5039 62.9685V63.3154C35.5039 63.799 35.5619 64.1977 35.6615 64.5233C35.7684 64.8664 35.9015 65.1214 36.0453 65.3095C36.194 65.504 36.3478 65.6316 36.5031 65.7151Z" fill="white"/>
<path d="M65.8027 68H64.1768V57.2773L60.8281 58.5518V57.0664L65.6709 55.2031H65.8027V68Z" fill="black"/>
<path d="M77.334 55.1943V56.6533H77.1934C76.6543 56.6533 76.1709 56.709 75.7432 56.8203C75.3213 56.9316 74.9492 57.084 74.627 57.2773C74.3047 57.4707 74.0264 57.7021 73.792 57.9717C73.5635 58.2354 73.373 58.5254 73.2207 58.8418C73.0684 59.1582 72.9512 59.4893 72.8691 59.835C72.7871 60.1807 72.7344 60.5322 72.7109 60.8896C72.8633 60.708 73.0391 60.541 73.2383 60.3887C73.4375 60.2305 73.6514 60.0957 73.8799 59.9844C74.1143 59.8672 74.3633 59.7764 74.627 59.7119C74.8965 59.6416 75.1777 59.6064 75.4707 59.6064C76.1094 59.6064 76.6602 59.7295 77.123 59.9756C77.5859 60.2158 77.9668 60.5352 78.2656 60.9336C78.5645 61.332 78.7842 61.7832 78.9248 62.2871C79.0654 62.791 79.1357 63.3037 79.1357 63.8252C79.1357 64.4229 79.0508 64.9854 78.8809 65.5127C78.7168 66.04 78.4678 66.5029 78.1338 66.9014C77.7998 67.2939 77.3838 67.6045 76.8857 67.833C76.3936 68.0615 75.8223 68.1758 75.1719 68.1758C74.709 68.1758 74.2842 68.1084 73.8975 67.9736C73.5166 67.8389 73.1738 67.6572 72.8691 67.4287C72.5645 67.1943 72.2979 66.9189 72.0693 66.6025C71.8408 66.2861 71.6504 65.9463 71.498 65.583C71.3516 65.2197 71.2402 64.8418 71.1641 64.4492C71.0879 64.0566 71.0498 63.6641 71.0498 63.2715V62.5068C71.0498 61.9209 71.085 61.335 71.1553 60.749C71.2314 60.1572 71.3574 59.5918 71.5332 59.0527C71.709 58.5137 71.9463 58.0098 72.2451 57.541C72.5439 57.0664 72.9189 56.6562 73.3701 56.3105C73.8271 55.9648 74.3691 55.6924 74.9961 55.4932C75.623 55.2939 76.3555 55.1943 77.1934 55.1943H77.334ZM75.207 60.96C74.9316 60.96 74.665 61.0039 74.4072 61.0918C74.1494 61.1797 73.9092 61.3027 73.6865 61.4609C73.4639 61.6191 73.2676 61.8096 73.0977 62.0322C72.9277 62.2549 72.793 62.501 72.6934 62.7705V63.3154C72.6934 63.8779 72.7607 64.3789 72.8955 64.8184C73.0303 65.252 73.2119 65.6182 73.4404 65.917C73.6689 66.2158 73.9326 66.4443 74.2314 66.6025C74.5303 66.7549 74.8438 66.8311 75.1719 66.8311C75.5527 66.8311 75.8896 66.7578 76.1826 66.6113C76.4756 66.4648 76.7217 66.2627 76.9209 66.0049C77.126 65.7471 77.2783 65.4395 77.3779 65.082C77.4834 64.7188 77.5361 64.3262 77.5361 63.9043C77.5361 63.5293 77.4893 63.166 77.3955 62.8145C77.3018 62.457 77.1582 62.1406 76.9648 61.8652C76.7715 61.5898 76.5283 61.3701 76.2354 61.2061C75.9424 61.042 75.5996 60.96 75.207 60.96Z" fill="black"/>
<path fill-rule="evenodd" clip-rule="evenodd" d="M66.8027 69H63.1768V58.7279L59.8281 60.0023V56.3797L65.4852 54.2031H66.8027V69ZM64.1768 57.2773V68H65.8027V55.2031H65.6709L60.8281 57.0664V58.5518L64.1768 57.2773ZM78.334 54.1943V57.6533H77.1934C76.7222 57.6533 76.3262 57.7021 75.9966 57.7877C75.6524 57.8786 75.3707 57.9973 75.1414 58.1348C74.9048 58.2768 74.7089 58.4414 74.5471 58.6273C74.5205 58.658 74.4946 58.6891 74.4695 58.7207C74.7956 58.6438 75.1301 58.6064 75.4707 58.6064C76.2359 58.6064 76.9533 58.7539 77.5879 59.0902C78.1758 59.396 78.6734 59.8106 79.0656 60.3336C79.4427 60.8363 79.7157 61.4009 79.888 62.0183C80.053 62.6094 80.1357 63.2126 80.1357 63.8252C80.1357 64.5171 80.0374 65.1821 79.8342 65.8147C79.6332 66.4585 79.3234 67.0389 78.9002 67.5438L78.8955 67.5494C78.4616 68.0594 77.926 68.4556 77.3048 68.741C76.6576 69.041 75.9385 69.1758 75.1719 69.1758C74.6114 69.1758 74.0737 69.094 73.5684 68.9179L73.5639 68.9164C73.0933 68.7498 72.6597 68.5216 72.2691 68.2287L72.2594 68.2214C71.8769 67.9271 71.5429 67.5816 71.2587 67.188C70.9851 66.8093 70.7574 66.4026 70.5759 65.9697L70.5705 65.957C70.3996 65.5332 70.2705 65.0937 70.1824 64.6397C70.0942 64.1855 70.0498 63.7292 70.0498 63.2715V62.5068C70.0498 61.8808 70.0874 61.2551 70.1624 60.6299L70.1634 60.6214C70.2471 59.9708 70.3864 59.3442 70.5825 58.7427C70.7836 58.126 71.0561 57.5462 71.4005 57.0057C71.7631 56.4304 72.2186 55.9331 72.7619 55.5168L72.7668 55.513C73.3268 55.0895 73.9738 54.7687 74.6933 54.5401C75.4407 54.3026 76.2794 54.1943 77.1934 54.1943H78.334ZM72.2451 57.541C71.9463 58.0098 71.709 58.5137 71.5332 59.0527C71.3574 59.5918 71.2314 60.1572 71.1553 60.749C71.085 61.335 71.0498 61.9209 71.0498 62.5068V63.2715C71.0498 63.6641 71.0879 64.0566 71.1641 64.4492C71.2402 64.8418 71.3516 65.2197 71.498 65.583C71.6504 65.9463 71.8408 66.2861 72.0693 66.6025C72.2979 66.9189 72.5645 67.1943 72.8691 67.4287C73.1738 67.6572 73.5166 67.8389 73.8975 67.9736C74.2842 68.1084 74.709 68.1758 75.1719 68.1758C75.8223 68.1758 76.3936 68.0615 76.8857 67.833C77.3838 67.6045 77.7998 67.2939 78.1338 66.9014C78.4678 66.5029 78.7168 66.04 78.8809 65.5127C79.0508 64.9854 79.1357 64.4229 79.1357 63.8252C79.1357 63.3037 79.0654 62.791 78.9248 62.2871C78.7842 61.7832 78.5645 61.332 78.2656 60.9336C77.9668 60.5352 77.5859 60.2158 77.123 59.9756C76.6602 59.7295 76.1094 59.6064 75.4707 59.6064C75.1777 59.6064 74.8965 59.6416 74.627 59.7119C74.3633 59.7764 74.1143 59.8672 73.8799 59.9844C73.8732 59.9876 73.8665 59.9909 73.8598 59.9942C73.8259 60.011 73.7923 60.0283 73.7591 60.0461C73.5756 60.1445 73.402 60.2587 73.2383 60.3887C73.0391 60.541 72.8633 60.708 72.7109 60.8896C72.7328 60.5559 72.7802 60.2273 72.8532 59.9038C72.8543 59.899 72.8554 59.8942 72.8565 59.8894C72.8606 59.8712 72.8648 59.8531 72.8691 59.835C72.9109 59.6591 72.9617 59.487 73.0216 59.3187C73.0795 59.1562 73.1459 58.9972 73.2207 58.8418C73.373 58.5254 73.5635 58.2354 73.792 57.9717C74.0264 57.7021 74.3047 57.4707 74.627 57.2773C74.9492 57.084 75.3213 56.9316 75.7432 56.8203C76.1709 56.709 76.6543 56.6533 77.1934 56.6533H77.334V55.1943H77.1934C76.8934 55.1943 76.6069 55.2071 76.334 55.2326C75.8446 55.2784 75.3986 55.3653 74.9961 55.4932C74.3691 55.6924 73.8271 55.9648 73.3701 56.3105C72.9189 56.6562 72.5439 57.0664 72.2451 57.541ZM77.3955 62.8145C77.3018 62.457 77.1582 62.1406 76.9648 61.8652C76.7715 61.5898 76.5283 61.3701 76.2354 61.2061C75.9424 61.042 75.5996 60.96 75.207 60.96C74.9316 60.96 74.665 61.0039 74.4072 61.0918C74.1494 61.1797 73.9092 61.3027 73.6865 61.4609C73.4639 61.6191 73.2676 61.8096 73.0977 62.0322C72.9277 62.2549 72.793 62.501 72.6934 62.7705V63.3154C72.6934 63.8779 72.7607 64.3789 72.8955 64.8184C73.0303 65.252 73.2119 65.6182 73.4404 65.917C73.6689 66.2158 73.9326 66.4443 74.2314 66.6025C74.5303 66.7549 74.8438 66.8311 75.1719 66.8311C75.5527 66.8311 75.8896 66.7578 76.1826 66.6113C76.4756 66.4648 76.7217 66.2627 76.9209 66.0049C77.126 65.7471 77.2783 65.4395 77.3779 65.082C77.4834 64.7188 77.5361 64.3262 77.5361 63.9043C77.5361 63.5293 77.4893 63.166 77.3955 62.8145ZM74.6926 65.7151C74.8516 65.795 75.0076 65.8311 75.1719 65.8311C75.4227 65.8311 75.6022 65.7835 75.7354 65.7169C75.8946 65.6373 76.0229 65.5316 76.1296 65.3934L76.1382 65.3823C76.2501 65.2417 76.3464 65.0583 76.4146 64.8136L76.4175 64.8032C76.4939 64.5403 76.5361 64.2425 76.5361 63.9043C76.5361 63.6136 76.4999 63.3371 76.4293 63.0721L76.4282 63.0682C76.3617 62.8144 76.2651 62.6089 76.1464 62.4399C76.0391 62.287 75.9085 62.1692 75.7467 62.0786C75.6266 62.0113 75.4576 61.96 75.207 61.96C75.0402 61.96 74.8827 61.9862 74.7299 62.0383C74.5637 62.0949 74.4099 62.1737 74.2657 62.2761C74.1271 62.3746 74.0031 62.4941 73.8926 62.6389C73.8156 62.7399 73.7491 62.8492 73.6934 62.9685V63.3154C73.6934 63.799 73.7514 64.1977 73.851 64.5233C73.9578 64.8664 74.0909 65.1214 74.2348 65.3095C74.3835 65.504 74.5372 65.6316 74.6926 65.7151Z" fill="white"/>
<path d="M89.3779 127H80.9932V125.831L85.1855 121.173C85.5605 120.757 85.874 120.388 86.126 120.065C86.3779 119.743 86.5801 119.447 86.7324 119.178C86.8848 118.902 86.9932 118.645 87.0576 118.404C87.1221 118.158 87.1543 117.906 87.1543 117.648C87.1543 117.332 87.1016 117.036 86.9961 116.761C86.8965 116.479 86.7471 116.236 86.5479 116.031C86.3545 115.826 86.1172 115.665 85.8359 115.548C85.5605 115.425 85.2471 115.363 84.8955 115.363C84.4678 115.363 84.0957 115.425 83.7793 115.548C83.4688 115.671 83.208 115.847 82.9971 116.075C82.792 116.298 82.6367 116.57 82.5312 116.893C82.4316 117.215 82.3818 117.575 82.3818 117.974H80.7471C80.7471 117.435 80.8408 116.928 81.0283 116.453C81.2158 115.973 81.4854 115.554 81.8369 115.196C82.1943 114.839 82.6279 114.555 83.1377 114.344C83.6533 114.133 84.2393 114.027 84.8955 114.027C85.499 114.027 86.041 114.118 86.5215 114.3C87.0078 114.476 87.418 114.722 87.752 115.038C88.0859 115.354 88.3408 115.729 88.5166 116.163C88.6982 116.597 88.7891 117.068 88.7891 117.578C88.7891 117.959 88.7246 118.337 88.5957 118.712C88.4668 119.081 88.291 119.447 88.0684 119.811C87.8516 120.174 87.5967 120.534 87.3037 120.892C87.0166 121.243 86.7119 121.595 86.3896 121.946L82.9531 125.673H89.3779V127Z" fill="black"/>
<path fill-rule="evenodd" clip-rule="evenodd" d="M90.3779 128H79.9932V125.447L84.4423 120.504C84.8069 120.099 85.1047 119.748 85.3382 119.45C85.5672 119.157 85.7382 118.904 85.8596 118.69C85.9804 118.471 86.0523 118.291 86.091 118.148C86.133 117.987 86.1543 117.821 86.1543 117.648C86.1543 117.445 86.1209 117.272 86.0622 117.118L86.0577 117.107L86.0535 117.095C85.9998 116.943 85.925 116.825 85.8306 116.728L85.8254 116.723L85.8203 116.717C85.7309 116.622 85.6135 116.539 85.4513 116.471L85.4396 116.466L85.428 116.461C85.3005 116.404 85.1296 116.363 84.8955 116.363C84.5627 116.363 84.3196 116.411 84.1446 116.479C83.9648 116.55 83.8335 116.644 83.7323 116.753C83.6367 116.857 83.5501 116.998 83.4842 117.196C83.4204 117.405 83.3818 117.662 83.3818 117.974V118.974H79.7471V117.974C79.7471 117.317 79.8617 116.685 80.0975 116.088C80.3328 115.485 80.6751 114.951 81.124 114.495L81.1298 114.489C81.5883 114.031 82.1353 113.676 82.7553 113.42L82.7591 113.418C83.4142 113.15 84.1321 113.027 84.8955 113.027C85.5965 113.027 86.2588 113.133 86.8682 113.362C87.4652 113.579 87.9958 113.892 88.4397 114.312C88.8779 114.727 89.2127 115.221 89.4412 115.782C89.6767 116.347 89.7891 116.949 89.7891 117.578C89.7891 118.074 89.7048 118.562 89.5414 119.037L89.5398 119.042C89.386 119.482 89.1793 119.911 88.9241 120.328C88.6805 120.736 88.3977 121.134 88.0777 121.525C87.7781 121.892 87.4611 122.257 87.1268 122.622L87.1248 122.624L85.2356 124.673H90.3779V128ZM82.9531 125.673L86.3896 121.946C86.7119 121.595 87.0166 121.243 87.3037 120.892C87.5967 120.534 87.8516 120.174 88.0684 119.811C88.291 119.447 88.4668 119.081 88.5957 118.712C88.7246 118.337 88.7891 117.959 88.7891 117.578C88.7891 117.068 88.6982 116.597 88.5166 116.163C88.3408 115.729 88.0859 115.354 87.752 115.038C87.418 114.722 87.0078 114.476 86.5215 114.3C86.041 114.118 85.499 114.027 84.8955 114.027C84.2393 114.027 83.6533 114.133 83.1377 114.344C82.6279 114.555 82.1943 114.839 81.8369 115.196C81.4854 115.554 81.2158 115.973 81.0283 116.453C80.9614 116.623 80.9064 116.796 80.8634 116.974C80.7858 117.294 80.7471 117.627 80.7471 117.974H82.3818C82.3818 117.575 82.4316 117.215 82.5312 116.893C82.6367 116.57 82.792 116.298 82.9971 116.075C83.208 115.847 83.4688 115.671 83.7793 115.548C84.0957 115.425 84.4678 115.363 84.8955 115.363C85.2471 115.363 85.5605 115.425 85.8359 115.548C86.1172 115.665 86.3545 115.826 86.5479 116.031C86.7471 116.236 86.8965 116.479 86.9961 116.761C87.1016 117.036 87.1543 117.332 87.1543 117.648C87.1543 117.906 87.1221 118.158 87.0576 118.404C86.9932 118.645 86.8848 118.902 86.7324 119.178C86.5801 119.447 86.3779 119.743 86.126 120.065C85.874 120.388 85.5605 120.757 85.1855 121.173L80.9932 125.831V127H89.3779V125.673H82.9531Z" fill="white"/>
<path d="M113.803 68H112.177V57.2773L108.828 58.5518V57.0664L113.671 55.2031H113.803V68Z" fill="black"/>
<path fill-rule="evenodd" clip-rule="evenodd" d="M114.803 69H111.177V58.7279L107.828 60.0023V56.3797L113.485 54.2031H114.803V69ZM112.177 57.2773V68H113.803V55.2031H113.671L108.828 57.0664V58.5518L112.177 57.2773Z" fill="white"/>
<path d="M40.1211 122.702H41.9053V124.029H40.1211V127H38.4951V124.029H32.6592V123.071L38.3896 114.203H40.1211V122.702ZM34.4609 122.702H38.4951V116.365L38.2314 116.857L34.4609 122.702Z" fill="black"/>
<path d="M52.2148 117.543C52.209 118.182 52.0361 118.75 51.6963 119.248C51.3564 119.746 50.9023 120.136 50.334 120.417C50.6621 120.558 50.958 120.733 51.2217 120.944C51.4912 121.149 51.7197 121.387 51.9072 121.656C52.1006 121.926 52.2471 122.219 52.3467 122.535C52.4521 122.852 52.5049 123.188 52.5049 123.546C52.5049 124.126 52.3965 124.642 52.1797 125.093C51.9688 125.544 51.6787 125.925 51.3096 126.235C50.9463 126.54 50.5186 126.774 50.0264 126.938C49.5342 127.097 49.0068 127.176 48.4443 127.176C47.8701 127.176 47.334 127.097 46.8359 126.938C46.3438 126.78 45.9131 126.549 45.5439 126.244C45.1807 125.934 44.8936 125.553 44.6826 125.102C44.4717 124.65 44.3662 124.132 44.3662 123.546C44.3662 123.188 44.416 122.852 44.5156 122.535C44.6152 122.213 44.7588 121.92 44.9463 121.656C45.1338 121.387 45.3594 121.146 45.623 120.936C45.8867 120.725 46.1826 120.549 46.5107 120.408C46.2295 120.268 45.9746 120.101 45.7461 119.907C45.5176 119.708 45.3242 119.488 45.166 119.248C45.0078 119.002 44.8848 118.735 44.7969 118.448C44.709 118.161 44.665 117.859 44.665 117.543C44.665 116.986 44.7588 116.491 44.9463 116.058C45.1338 115.618 45.3916 115.249 45.7197 114.95C46.0537 114.651 46.4492 114.423 46.9062 114.265C47.3691 114.106 47.873 114.027 48.418 114.027C48.957 114.027 49.458 114.106 49.9209 114.265C50.3838 114.423 50.7852 114.651 51.125 114.95C51.4648 115.249 51.7314 115.618 51.9248 116.058C52.1182 116.491 52.2148 116.986 52.2148 117.543ZM50.8789 123.511C50.8789 123.153 50.8174 122.825 50.6943 122.526C50.5771 122.228 50.4102 121.973 50.1934 121.762C49.9766 121.545 49.7158 121.378 49.4111 121.261C49.1123 121.144 48.7842 121.085 48.4268 121.085C48.0576 121.085 47.7236 121.144 47.4248 121.261C47.126 121.378 46.8711 121.545 46.6602 121.762C46.4492 121.973 46.2852 122.228 46.168 122.526C46.0566 122.825 46.001 123.153 46.001 123.511C46.001 123.88 46.0566 124.211 46.168 124.504C46.2852 124.791 46.4492 125.034 46.6602 125.233C46.8711 125.433 47.126 125.585 47.4248 125.69C47.7295 125.796 48.0693 125.849 48.4443 125.849C48.8018 125.849 49.1299 125.796 49.4287 125.69C49.7275 125.585 49.9824 125.433 50.1934 125.233C50.4102 125.034 50.5771 124.791 50.6943 124.504C50.8174 124.211 50.8789 123.88 50.8789 123.511ZM50.5801 117.569C50.5801 117.247 50.5244 116.951 50.4131 116.682C50.3076 116.412 50.1582 116.181 49.9648 115.987C49.7773 115.788 49.5518 115.636 49.2881 115.53C49.0244 115.419 48.7344 115.363 48.418 115.363C48.1016 115.363 47.8145 115.416 47.5566 115.521C47.2988 115.621 47.0762 115.768 46.8887 115.961C46.7012 116.154 46.5547 116.389 46.4492 116.664C46.3496 116.934 46.2998 117.235 46.2998 117.569C46.2998 117.903 46.3496 118.205 46.4492 118.475C46.5547 118.738 46.7012 118.967 46.8887 119.16C47.082 119.348 47.3076 119.494 47.5654 119.6C47.8291 119.699 48.1191 119.749 48.4355 119.749C48.7461 119.749 49.0332 119.699 49.2969 119.6C49.5605 119.494 49.7861 119.348 49.9736 119.16C50.167 118.967 50.3164 118.735 50.4219 118.466C50.5273 118.196 50.5801 117.897 50.5801 117.569Z" fill="black"/>
<path fill-rule="evenodd" clip-rule="evenodd" d="M38.4951 122.702V116.365L38.2314 116.857L34.4609 122.702H38.4951ZM38.3896 114.203H40.1211V122.702H41.9053V124.029H40.1211V127H38.4951V124.029H32.6592V123.071L38.3896 114.203ZM37.4951 125.029H31.6592V122.776L37.8452 113.203H41.1211V121.702H42.9053V125.029H41.1211V128H37.4951V125.029ZM36.2961 121.702H37.4951V119.844L36.2961 121.702ZM53.2148 117.552C53.2072 118.376 52.9805 119.14 52.5223 119.812C52.3889 120.007 52.2419 120.189 52.0822 120.358C52.324 120.573 52.5386 120.814 52.724 121.079C52.9755 121.431 53.1674 121.815 53.298 122.227C53.438 122.65 53.5049 123.092 53.5049 123.546C53.5049 124.25 53.373 124.916 53.0833 125.521C52.8131 126.097 52.4359 126.595 51.9533 127.001L51.9522 127.002C51.4838 127.394 50.9428 127.687 50.3426 127.887L50.3324 127.891C49.733 128.083 49.1016 128.176 48.4443 128.176C47.7775 128.176 47.1383 128.084 46.5332 127.892L46.5299 127.891C45.9268 127.697 45.3818 127.407 44.9074 127.015L44.9007 127.01L44.8942 127.004C44.4179 126.597 44.0455 126.1 43.7767 125.525C43.4938 124.92 43.3662 124.253 43.3662 123.546C43.3662 123.095 43.4291 122.657 43.561 122.237C43.6901 121.82 43.8786 121.433 44.1284 121.081C44.3142 120.814 44.528 120.571 44.768 120.352C44.6065 120.179 44.4604 119.995 44.3308 119.798L44.3248 119.789C44.1158 119.464 43.9547 119.113 43.8407 118.741C43.7222 118.354 43.665 117.953 43.665 117.543C43.665 116.875 43.7777 116.242 44.0275 115.663C44.2669 115.103 44.6048 114.613 45.0464 114.211L45.0529 114.205C45.4934 113.811 46.0068 113.518 46.5791 113.32L46.5828 113.318C47.161 113.121 47.7755 113.027 48.418 113.027C49.0559 113.027 49.6672 113.121 50.2443 113.318C50.8211 113.516 51.3393 113.807 51.7853 114.199C52.2406 114.6 52.5909 115.089 52.8392 115.653C53.098 116.234 53.2148 116.871 53.2148 117.543L53.2148 117.552ZM51.9248 116.058C51.7314 115.618 51.4648 115.249 51.125 114.95C50.7852 114.651 50.3838 114.423 49.9209 114.265C49.458 114.106 48.957 114.027 48.418 114.027C47.873 114.027 47.3691 114.106 46.9062 114.265C46.4492 114.423 46.0537 114.651 45.7197 114.95C45.3916 115.249 45.1338 115.618 44.9463 116.058C44.7588 116.491 44.665 116.986 44.665 117.543C44.665 117.859 44.709 118.161 44.7969 118.448C44.8848 118.735 45.0078 119.002 45.166 119.248C45.2851 119.429 45.4242 119.598 45.5831 119.756C45.6353 119.808 45.6896 119.858 45.7461 119.907C45.9746 120.101 46.2295 120.268 46.5107 120.408C46.1826 120.549 45.8867 120.725 45.623 120.936C45.5958 120.957 45.5689 120.98 45.5424 121.002C45.3131 121.197 45.1144 121.415 44.9463 121.656C44.7588 121.92 44.6152 122.213 44.5156 122.535C44.416 122.852 44.3662 123.188 44.3662 123.546C44.3662 124.132 44.4717 124.65 44.6826 125.102C44.8936 125.553 45.1807 125.934 45.5439 126.244C45.9131 126.549 46.3438 126.78 46.8359 126.938C47.334 127.097 47.8701 127.176 48.4443 127.176C49.0068 127.176 49.5342 127.097 50.0264 126.938C50.5186 126.774 50.9463 126.54 51.3096 126.235C51.6787 125.925 51.9688 125.544 52.1797 125.093C52.3965 124.642 52.5049 124.126 52.5049 123.546C52.5049 123.188 52.4521 122.852 52.3467 122.535C52.2471 122.219 52.1006 121.926 51.9072 121.656C51.7394 121.415 51.5388 121.2 51.3053 121.01C51.2779 120.988 51.25 120.966 51.2217 120.944C50.958 120.733 50.6621 120.558 50.334 120.417C50.688 120.242 50.9976 120.025 51.2629 119.765C51.4236 119.608 51.5681 119.436 51.6963 119.248C52.0361 118.75 52.209 118.182 52.2148 117.543C52.2148 116.986 52.1182 116.491 51.9248 116.058ZM50.6943 122.526C50.5771 122.228 50.4102 121.973 50.1934 121.762C49.9766 121.545 49.7158 121.378 49.4111 121.261C49.1123 121.144 48.7842 121.085 48.4268 121.085C48.0576 121.085 47.7236 121.144 47.4248 121.261C47.126 121.378 46.8711 121.545 46.6602 121.762C46.4492 121.973 46.2852 122.228 46.168 122.526C46.0566 122.825 46.001 123.153 46.001 123.511C46.001 123.88 46.0566 124.211 46.168 124.504C46.2852 124.791 46.4492 125.034 46.6602 125.233C46.8711 125.433 47.126 125.585 47.4248 125.69C47.7295 125.796 48.0693 125.849 48.4443 125.849C48.8018 125.849 49.1299 125.796 49.4287 125.69C49.7275 125.585 49.9824 125.433 50.1934 125.233C50.4102 125.034 50.5771 124.791 50.6943 124.504C50.8174 124.211 50.8789 123.88 50.8789 123.511C50.8789 123.153 50.8174 122.825 50.6943 122.526ZM47.7547 124.746C47.9381 124.81 48.1643 124.849 48.4443 124.849C48.7027 124.849 48.9167 124.811 49.0959 124.747C49.2753 124.684 49.4064 124.601 49.5067 124.506L49.5167 124.497C49.6193 124.403 49.7039 124.284 49.7685 124.126L49.7723 124.117C49.8362 123.964 49.8789 123.768 49.8789 123.511C49.8789 123.27 49.8379 123.073 49.7697 122.907L49.7664 122.899L49.7634 122.891C49.6949 122.717 49.6046 122.584 49.496 122.478L49.4862 122.469C49.3746 122.357 49.2348 122.264 49.0522 122.194L49.046 122.192C48.876 122.125 48.6734 122.085 48.4268 122.085C48.164 122.085 47.9563 122.126 47.7899 122.192C47.6153 122.26 47.4826 122.35 47.3769 122.459L47.3673 122.469C47.2626 122.574 47.1724 122.707 47.1021 122.883C47.0389 123.056 47.001 123.262 47.001 123.511C47.001 123.773 47.0396 123.978 47.0985 124.137C47.1649 124.296 47.2489 124.414 47.3468 124.506C47.4466 124.601 47.5769 124.683 47.7547 124.746ZM47.5566 115.521C47.2988 115.621 47.0762 115.768 46.8887 115.961C46.7012 116.154 46.5547 116.389 46.4492 116.664C46.3496 116.934 46.2998 117.235 46.2998 117.569C46.2998 117.903 46.3496 118.205 46.4492 118.475C46.5547 118.738 46.7012 118.967 46.8887 119.16C47.082 119.348 47.3076 119.494 47.5654 119.6C47.8291 119.699 48.1191 119.749 48.4355 119.749C48.7461 119.749 49.0332 119.699 49.2969 119.6C49.5605 119.494 49.7861 119.348 49.9736 119.16C50.167 118.967 50.3164 118.735 50.4219 118.466C50.5273 118.196 50.5801 117.897 50.5801 117.569C50.5801 117.247 50.5244 116.951 50.4131 116.682C50.3076 116.412 50.1582 116.181 49.9648 115.987C49.7773 115.788 49.5518 115.636 49.2881 115.53C49.0244 115.419 48.7344 115.363 48.418 115.363C48.1016 115.363 47.8145 115.416 47.5566 115.521ZM48.9346 118.667C49.077 118.609 49.1832 118.536 49.2665 118.453C49.3567 118.363 49.4324 118.25 49.4906 118.101C49.545 117.962 49.5801 117.789 49.5801 117.569C49.5801 117.364 49.5451 117.2 49.4888 117.063L49.4853 117.055L49.4818 117.046C49.4237 116.897 49.3479 116.785 49.2577 116.694L49.247 116.684L49.2366 116.673C49.1528 116.584 49.0504 116.512 48.9167 116.459L48.9079 116.455L48.8991 116.452C48.7709 116.397 48.6149 116.363 48.418 116.363C48.2139 116.363 48.0577 116.397 47.9353 116.447L47.9262 116.451L47.917 116.454C47.7905 116.503 47.6907 116.57 47.6066 116.657C47.5228 116.743 47.4466 116.858 47.3852 117.016C47.3338 117.157 47.2998 117.338 47.2998 117.569C47.2998 117.797 47.3327 117.975 47.3828 118.116C47.4395 118.254 47.5113 118.363 47.596 118.453C47.6893 118.541 47.7987 118.613 47.9313 118.669C48.0667 118.718 48.2315 118.749 48.4355 118.749C48.6334 118.749 48.7966 118.718 48.9346 118.667Z" fill="white"/>
<g filter="url(#filter0_dddd)">
<path fill-rule="evenodd" clip-rule="evenodd" d="M73.0711 151.343L66.7071 157.707C66.3166 158.098 65.6834 158.098 65.2929 157.707L58.9289 151.343C58.5384 150.953 58.5384 150.319 58.9289 149.929C59.3194 149.538 59.9526 149.538 60.3431 149.929L65 154.586L65 140L67 140L67 154.586L71.6568 149.929C72.0474 149.538 72.6805 149.538 73.0711 149.929C73.4616 150.319 73.4616 150.953 73.0711 151.343Z" fill="black"/>
</g>
<path d="M67.2402 120.136H70.8174V121.753H67.2402V125.717H65.6143V121.753H62.0459V120.136H65.6143V116.4H67.2402V120.136Z" fill="black"/>
<path fill-rule="evenodd" clip-rule="evenodd" d="M71.8174 119.136V122.753H68.2402V126.717H64.6143V122.753H61.0459V119.136H64.6143V115.4H68.2402V119.136H71.8174ZM65.6143 120.136H62.0459V121.753H65.6143V125.717H67.2402V121.753H70.8174V120.136H67.2402V116.4H65.6143V120.136Z" fill="white"/>
<g filter="url(#filter1_dddd)">
<path fill-rule="evenodd" clip-rule="evenodd" d="M86.7071 100.52C86.3166 100.91 85.6834 100.91 85.2929 100.52L78.9289 94.1559C78.5384 93.7654 78.5384 93.1322 78.9289 92.7417C79.3195 92.3512 79.9526 92.3512 80.3431 92.7417L85.0565 97.4551C85.2835 93.1235 86.2294 90.4154 88.5133 88.9145C89.8074 88.0642 91.4202 87.6829 93.2837 87.4974C95.1379 87.3127 97.3664 87.3127 99.9548 87.3127L100 87.3127C100.774 87.3127 101.501 87.3143 102.186 87.3157C104.564 87.3208 106.424 87.3248 107.902 87.259C109.839 87.1729 110.914 86.9688 111.549 86.6224C112.062 86.3425 112.369 85.9245 112.548 84.9649C112.742 83.9299 112.746 82.48 112.746 80.3128L114.746 80.3128L114.746 80.4197C114.746 82.453 114.746 84.0923 114.514 85.3325C114.264 86.6698 113.712 87.7206 112.506 88.3781C111.423 88.9692 109.92 89.1713 107.991 89.2571C106.462 89.325 104.537 89.3209 102.147 89.3157C101.469 89.3143 100.754 89.3127 100 89.3127C97.3576 89.3127 95.2263 89.3138 93.4819 89.4875C91.7361 89.6613 90.5051 89.9988 89.6117 90.586C88.1781 91.528 87.3066 93.3366 87.0674 97.3312L91.6569 92.7417C92.0474 92.3512 92.6805 92.3512 93.0711 92.7417C93.4616 93.1322 93.4616 93.7654 93.0711 94.1559L86.7071 100.52Z" fill="black"/>
</g>
<g filter="url(#filter2_dddd)">
<path fill-rule="evenodd" clip-rule="evenodd" d="M43.7168 100.52C43.3263 100.91 42.6931 100.91 42.3026 100.52L35.9386 94.1559C35.5481 93.7654 35.5481 93.1322 35.9386 92.7417C36.3291 92.3512 36.9623 92.3512 37.3528 92.7417L42.0662 97.4551C42.2932 93.1235 43.2391 90.4154 45.523 88.9145C46.8171 88.0642 48.4299 87.6829 50.2934 87.4974C52.1476 87.3127 54.3761 87.3127 56.9645 87.3127L57.0097 87.3127C57.7834 87.3127 58.511 87.3143 59.1957 87.3157C61.5734 87.3208 63.4341 87.3248 64.912 87.259C66.8489 87.1729 67.9233 86.9688 68.5582 86.6224C69.0713 86.3425 69.3782 85.9245 69.5577 84.9649C69.7512 83.9299 69.7554 82.48 69.7554 80.3128L71.7554 80.3128L71.7554 80.4197C71.7555 82.453 71.7555 84.0923 71.5236 85.3325C71.2735 86.6698 70.7213 87.7206 69.5162 88.3781C68.4329 88.9692 66.93 89.1713 65.0008 89.2571C63.4719 89.325 61.5462 89.3209 59.1562 89.3157C58.4786 89.3143 57.7636 89.3127 57.0097 89.3127C54.3673 89.3127 52.2359 89.3138 50.4916 89.4875C48.7457 89.6613 47.5148 89.9988 46.6214 90.586C45.1878 91.528 44.3163 93.3366 44.0771 97.3312L48.6665 92.7417C49.0571 92.3512 49.6902 92.3512 50.0808 92.7417C50.4713 93.1322 50.4713 93.7654 50.0808 94.1559L43.7168 100.52Z" fill="black"/>
</g>
<path d="M57.5697 176.565L58.2113 170.185H64.7767V171.767H59.5824L59.2221 175.177C59.474 175.03 59.7758 174.901 60.1273 174.79C60.4789 174.679 60.8861 174.623 61.349 174.623C61.9408 174.623 62.4711 174.726 62.9398 174.931C63.4086 175.136 63.807 175.426 64.1351 175.801C64.4633 176.17 64.7152 176.618 64.891 177.146C65.0668 177.673 65.1547 178.259 65.1547 178.903C65.1547 179.513 65.0726 180.078 64.9086 180.6C64.7445 181.121 64.4955 181.572 64.1615 181.953C63.8334 182.328 63.4174 182.624 62.9135 182.841C62.4096 183.052 61.8178 183.157 61.1381 183.157C60.6166 183.157 60.1244 183.084 59.6615 182.938C59.1986 182.791 58.7855 182.571 58.4223 182.278C58.0648 181.985 57.7689 181.616 57.5346 181.171C57.306 180.726 57.1625 180.207 57.1039 179.615H58.6508C58.7504 180.342 59.017 180.893 59.4506 181.268C59.89 181.643 60.4525 181.83 61.1381 181.83C61.5248 181.83 61.8676 181.763 62.1664 181.628C62.4652 181.487 62.7142 181.291 62.9135 181.039C63.1185 180.781 63.2709 180.474 63.3705 180.116C63.476 179.759 63.5287 179.36 63.5287 178.921C63.5287 178.522 63.4701 178.15 63.3529 177.805C63.2416 177.459 63.0775 177.16 62.8607 176.908C62.6439 176.65 62.3773 176.448 62.0609 176.302C61.7445 176.155 61.3812 176.082 60.9711 176.082C60.7016 176.082 60.4672 176.103 60.268 176.144C60.0746 176.179 59.8988 176.231 59.7406 176.302C59.5824 176.372 59.433 176.457 59.2924 176.557C59.1576 176.656 59.017 176.771 58.8705 176.899L57.5697 176.565Z" fill="#001AFF"/>
<path d="M75.8334 178.086C75.8334 178.9 75.7396 179.624 75.5521 180.257C75.3646 180.884 75.0951 181.414 74.7435 181.848C74.392 182.275 73.9613 182.601 73.4516 182.823C72.9418 183.046 72.3588 183.157 71.7025 183.157C71.0521 183.157 70.4691 183.046 69.9535 182.823C69.4437 182.601 69.0101 182.275 68.6527 181.848C68.2953 181.414 68.0199 180.884 67.8266 180.257C67.6391 179.624 67.5453 178.9 67.5453 178.086V175.089C67.5453 174.274 67.6391 173.554 67.8266 172.927C68.0141 172.294 68.2836 171.761 68.6351 171.327C68.9926 170.894 69.4262 170.565 69.9359 170.343C70.4516 170.114 71.0346 170 71.685 170C72.3412 170 72.9242 170.114 73.434 170.343C73.9496 170.565 74.3832 170.894 74.7348 171.327C75.0922 171.761 75.3646 172.294 75.5521 172.927C75.7396 173.554 75.8334 174.274 75.8334 175.089V178.086ZM69.1801 177.761L74.1635 173.938C74.0697 173.088 73.8207 172.443 73.4164 172.004C73.018 171.559 72.4408 171.336 71.685 171.336C70.8295 171.336 70.1967 171.626 69.7865 172.206C69.3822 172.78 69.1801 173.621 69.1801 174.729V177.761ZM74.1986 175.493L69.224 179.299C69.3236 180.125 69.5785 180.755 69.9887 181.188C70.3988 181.622 70.9701 181.839 71.7025 181.839C72.5639 181.839 73.1937 181.546 73.5922 180.96C73.9965 180.374 74.1986 179.53 74.1986 178.429V175.493Z" fill="#001AFF"/>
<path fill-rule="evenodd" clip-rule="evenodd" d="M69.1801 177.761L74.1635 173.938C74.0697 173.088 73.8207 172.443 73.4164 172.004C73.018 171.559 72.4408 171.336 71.685 171.336C70.8295 171.336 70.1967 171.626 69.7865 172.206C69.3822 172.78 69.1801 173.621 69.1801 174.729V177.761ZM73.0847 173.493L70.1876 175.716V174.711C70.1876 173.7 70.3764 173.099 70.6112 172.765C70.7944 172.506 71.0872 172.318 71.6925 172.318C72.2446 172.318 72.5178 172.473 72.6786 172.653L72.688 172.663C72.8393 172.828 72.9851 173.088 73.0847 173.493Z" fill="white"/>
<path fill-rule="evenodd" clip-rule="evenodd" d="M74.1986 175.493L69.224 179.299C69.3236 180.125 69.5785 180.755 69.9887 181.188C70.3988 181.622 70.9701 181.839 71.7025 181.839C72.5639 181.839 73.1937 181.546 73.5922 180.96C73.9965 180.374 74.1986 179.53 74.1986 178.429V175.493ZM73.2062 178.411V177.5L70.3262 179.703C70.4273 180.078 70.5713 180.324 70.7227 180.484C70.9024 180.674 71.1856 180.821 71.7101 180.821C72.3217 180.821 72.6021 180.631 72.7728 180.38L72.7767 180.374C73.0184 180.024 73.2062 179.413 73.2062 178.411Z" fill="white"/>
<path fill-rule="evenodd" clip-rule="evenodd" d="M76.5102 180.543L76.5109 180.541C76.7313 179.797 76.8333 178.975 76.8333 178.086V175.089C76.8333 174.201 76.7314 173.381 76.5106 172.641C76.2919 171.904 75.9637 171.247 75.509 170.694C75.057 170.138 74.4956 169.713 73.8367 169.427L73.8454 169.427C73.1848 169.135 72.4614 169 71.6937 169H71.685C71.685 169 70.1939 169.135 69.5332 169.427C68.8789 169.714 68.3193 170.138 67.8635 170.691L67.8584 170.697C67.4106 171.25 67.0863 171.906 66.8681 172.641C66.6472 173.381 66.5453 174.201 66.5453 175.089V178.086C66.5453 178.975 66.6474 179.797 66.8677 180.541L66.8684 180.543L66.871 180.552C67.0964 181.283 67.428 181.934 67.8811 182.484L67.8583 182.477L67.8625 182.483L67.8854 182.489C68.342 183.035 68.9011 183.455 69.5532 183.74L69.5268 183.74C70.1834 184.026 71.6761 184.157 71.6761 184.157H71.7025C72.4721 184.157 73.1952 184.026 73.8518 183.74L73.8254 183.74C74.4775 183.455 75.0367 183.035 75.4933 182.489L75.5161 182.483L75.5203 182.477C75.967 181.926 76.2916 181.274 76.5102 180.543ZM75.5521 180.257C75.7396 179.624 75.8334 178.9 75.8334 178.086V175.089C75.8334 174.274 75.7396 173.554 75.5521 172.927C75.3646 172.294 75.0922 171.761 74.7348 171.327C74.3832 170.894 73.9496 170.565 73.434 170.343C72.9242 170.114 72.3412 170 71.685 170C71.0346 170 70.4516 170.114 69.9359 170.343C69.4262 170.565 68.9926 170.894 68.6351 171.327C68.2836 171.761 68.0141 172.294 67.8266 172.927C67.6391 173.554 67.5453 174.274 67.5453 175.089V178.086C67.5453 178.9 67.6391 179.624 67.8266 180.257C68.0199 180.884 68.2953 181.414 68.6527 181.848C69.0101 182.275 69.4437 182.601 69.9535 182.823C70.4691 183.046 71.0521 183.157 71.7025 183.157C72.3588 183.157 72.9418 183.046 73.4516 182.823C73.9613 182.601 74.392 182.275 74.7435 181.848C75.0951 181.414 75.3646 180.884 75.5521 180.257Z" fill="white"/>
<path fill-rule="evenodd" clip-rule="evenodd" d="M60.4823 172.767L60.3835 173.702C60.6925 173.648 61.0155 173.623 61.349 173.623C62.0573 173.623 62.7272 173.746 63.3407 174.015C63.9393 174.276 64.458 174.652 64.8852 175.139C65.3126 175.621 65.6269 176.191 65.8397 176.829C66.0544 177.473 66.1547 178.168 66.1547 178.903C66.1547 179.603 66.0604 180.271 65.8625 180.9C65.6602 181.543 65.3463 182.118 64.9141 182.612C64.4782 183.11 63.9356 183.49 63.3087 183.759L63.2996 183.763C62.6475 184.036 61.919 184.157 61.1381 184.157C60.5218 184.157 59.9273 184.07 59.3598 183.891C58.7832 183.708 58.2585 183.431 57.7945 183.057L57.7883 183.052C57.3186 182.667 56.9407 182.19 56.6496 181.637L56.6449 181.627C56.3494 181.052 56.1774 180.407 56.1088 179.714L56 178.615H59.523L59.6415 179.479C59.7173 180.032 59.9003 180.333 60.1023 180.509C60.328 180.701 60.6457 180.83 61.1381 180.83C61.4039 180.83 61.6004 180.785 61.7481 180.72C61.9074 180.643 62.0301 180.544 62.1291 180.419L62.1309 180.417C62.2427 180.276 62.339 180.093 62.4072 179.848L62.4092 179.84L62.4114 179.833C62.4854 179.582 62.5287 179.281 62.5287 178.921C62.5287 178.622 62.4849 178.359 62.4059 178.126L62.4034 178.118L62.4011 178.111C62.3268 177.881 62.2247 177.702 62.1027 177.56L62.0953 177.552C61.9762 177.41 61.829 177.296 61.6408 177.209C61.4773 177.134 61.2615 177.082 60.9711 177.082C60.7489 177.082 60.5851 177.099 60.4696 177.123L60.4583 177.125L60.4468 177.127C60.3214 177.15 60.2233 177.182 60.1468 177.216C60.0516 177.258 59.9623 177.308 59.8781 177.367C59.7719 177.446 59.6563 177.54 59.5311 177.65L59.1341 178L56.4888 177.32L57.3068 169.185H65.7768V172.767H60.4823ZM57.5697 176.565L58.2113 170.185H64.7767V171.767H59.5824L59.2221 175.177C59.474 175.03 59.7758 174.901 60.1273 174.79C60.4789 174.679 60.8861 174.623 61.349 174.623C61.9408 174.623 62.4711 174.726 62.9398 174.931C63.4086 175.136 63.807 175.426 64.1351 175.801C64.4633 176.17 64.7152 176.618 64.891 177.146C65.0668 177.673 65.1547 178.259 65.1547 178.903C65.1547 179.513 65.0726 180.078 64.9086 180.6C64.7445 181.121 64.4955 181.572 64.1615 181.953C63.8334 182.328 63.4174 182.624 62.9135 182.841C62.4096 183.052 61.8178 183.157 61.1381 183.157C60.6166 183.157 60.1244 183.084 59.6615 182.938C59.1986 182.791 58.7855 182.571 58.4223 182.278C58.0648 181.985 57.7689 181.616 57.5346 181.171C57.306 180.726 57.1625 180.207 57.1039 179.615H58.6508C58.7504 180.342 59.017 180.893 59.4506 181.268C59.89 181.643 60.4525 181.83 61.1381 181.83C61.5248 181.83 61.8676 181.763 62.1664 181.628C62.4652 181.487 62.7142 181.291 62.9135 181.039C63.1185 180.781 63.2709 180.474 63.3705 180.116C63.476 179.759 63.5287 179.36 63.5287 178.921C63.5287 178.522 63.4701 178.15 63.3529 177.805C63.2416 177.459 63.0775 177.16 62.8607 176.908C62.6439 176.65 62.3773 176.448 62.0609 176.302C61.7445 176.155 61.3812 176.082 60.9711 176.082C60.7016 176.082 60.4672 176.103 60.268 176.144C60.0746 176.179 59.8988 176.231 59.7406 176.302C59.5824 176.372 59.433 176.457 59.2924 176.557C59.1576 176.656 59.017 176.771 58.8705 176.899L57.5697 176.565Z" fill="white"/>
<path d="M22.5697 61.5654L23.2113 55.1846H29.7767V56.7666H24.5824L24.2221 60.1768C24.474 60.0303 24.7758 59.9014 25.1273 59.79C25.4789 59.6787 25.8861 59.623 26.349 59.623C26.9408 59.623 27.4711 59.7256 27.9398 59.9307C28.4086 60.1357 28.807 60.4258 29.1351 60.8008C29.4633 61.1699 29.7152 61.6182 29.891 62.1455C30.0668 62.6729 30.1547 63.2588 30.1547 63.9033C30.1547 64.5127 30.0726 65.0781 29.9086 65.5996C29.7445 66.1211 29.4955 66.5723 29.1615 66.9531C28.8334 67.3281 28.4174 67.624 27.9135 67.8408C27.4096 68.0518 26.8178 68.1572 26.1381 68.1572C25.6166 68.1572 25.1244 68.084 24.6615 67.9375C24.1986 67.791 23.7855 67.5713 23.4223 67.2783C23.0648 66.9854 22.7689 66.6162 22.5346 66.1709C22.306 65.7256 22.1625 65.207 22.1039 64.6152H23.6508C23.7504 65.3418 24.017 65.8926 24.4506 66.2676C24.89 66.6426 25.4525 66.8301 26.1381 66.8301C26.5248 66.8301 26.8676 66.7627 27.1664 66.6279C27.4652 66.4873 27.7142 66.291 27.9135 66.0391C28.1185 65.7812 28.2709 65.4736 28.3705 65.1162C28.476 64.7588 28.5287 64.3604 28.5287 63.9209C28.5287 63.5225 28.4701 63.1504 28.3529 62.8047C28.2416 62.459 28.0775 62.1602 27.8607 61.9082C27.6439 61.6504 27.3773 61.4482 27.0609 61.3018C26.7445 61.1553 26.3812 61.082 25.9711 61.082C25.7016 61.082 25.4672 61.1025 25.268 61.1436C25.0746 61.1787 24.8988 61.2314 24.7406 61.3018C24.5824 61.3721 24.433 61.457 24.2924 61.5566C24.1576 61.6562 24.017 61.7705 23.8705 61.8994L22.5697 61.5654Z" fill="black"/>
<path fill-rule="evenodd" clip-rule="evenodd" d="M25.4823 57.7666L25.3835 58.7016C25.6925 58.6477 26.0155 58.623 26.349 58.623C27.0573 58.623 27.7272 58.7461 28.3407 59.0145C28.9393 59.2764 29.458 59.6521 29.8852 60.1394C30.3126 60.6211 30.6269 61.1909 30.8397 61.8293C31.0544 62.4734 31.1547 63.1681 31.1547 63.9033C31.1547 64.603 31.0604 65.2707 30.8625 65.8997C30.6602 66.5427 30.3463 67.1185 29.9141 67.6116C29.4782 68.1098 28.9356 68.4897 28.3087 68.7594L28.2996 68.7633C27.6475 69.0362 26.919 69.1572 26.1381 69.1572C25.5218 69.1572 24.9273 69.0705 24.3598 68.8909C23.7832 68.7084 23.2585 68.4309 22.7945 68.0567L22.7883 68.0517C22.3186 67.6667 21.9407 67.1897 21.6496 66.6366L21.6449 66.6275C21.3494 66.0516 21.1774 65.4075 21.1088 64.7138L21 63.6152H24.523L24.6415 64.4794C24.7173 65.032 24.9003 65.3332 25.1023 65.5091C25.328 65.7006 25.6457 65.8301 26.1381 65.8301C26.4039 65.8301 26.6004 65.7848 26.7481 65.7196C26.9074 65.6433 27.0301 65.544 27.1291 65.4188L27.1309 65.4165C27.2427 65.2759 27.339 65.0925 27.4072 64.8478L27.4092 64.8405L27.4114 64.8332C27.4854 64.5824 27.5287 64.2812 27.5287 63.9209C27.5287 63.6217 27.4849 63.359 27.4059 63.1257L27.4034 63.1185L27.4011 63.1112C27.3268 62.8807 27.2247 62.7022 27.1027 62.5604L27.0953 62.5518C26.9762 62.4102 26.829 62.2963 26.6408 62.2092C26.4773 62.1335 26.2615 62.082 25.9711 62.082C25.7489 62.082 25.5851 62.0992 25.4696 62.123L25.4583 62.1253L25.4468 62.1274C25.3214 62.1502 25.2233 62.1816 25.1468 62.2156C25.0516 62.2579 24.9623 62.3083 24.8781 62.3672C24.7719 62.4462 24.6563 62.54 24.5311 62.6501L24.1341 62.9995L21.4888 62.3203L22.3068 54.1846H30.7768V57.7666H25.4823ZM22.5697 61.5654L23.2113 55.1846H29.7767V56.7666H24.5824L24.2221 60.1768C24.474 60.0303 24.7758 59.9014 25.1273 59.79C25.4789 59.6787 25.8861 59.623 26.349 59.623C26.9408 59.623 27.4711 59.7256 27.9398 59.9307C28.4086 60.1357 28.807 60.4258 29.1351 60.8008C29.4633 61.1699 29.7152 61.6182 29.891 62.1455C30.0668 62.6729 30.1547 63.2588 30.1547 63.9033C30.1547 64.5127 30.0726 65.0781 29.9086 65.5996C29.7445 66.1211 29.4955 66.5723 29.1615 66.9531C28.8334 67.3281 28.4174 67.624 27.9135 67.8408C27.4096 68.0518 26.8178 68.1572 26.1381 68.1572C25.6166 68.1572 25.1244 68.084 24.6615 67.9375C24.1986 67.791 23.7855 67.5713 23.4223 67.2783C23.0648 66.9854 22.7689 66.6162 22.5346 66.1709C22.306 65.7256 22.1625 65.207 22.1039 64.6152H23.6508C23.7504 65.3418 24.017 65.8926 24.4506 66.2676C24.89 66.6426 25.4525 66.8301 26.1381 66.8301C26.5248 66.8301 26.8676 66.7627 27.1664 66.6279C27.4652 66.4873 27.7142 66.291 27.9135 66.0391C28.1185 65.7812 28.2709 65.4736 28.3705 65.1162C28.476 64.7588 28.5287 64.3604 28.5287 63.9209C28.5287 63.5225 28.4701 63.1504 28.3529 62.8047C28.2416 62.459 28.0775 62.1602 27.8607 61.9082C27.6439 61.6504 27.3773 61.4482 27.0609 61.3018C26.7445 61.1553 26.3812 61.082 25.9711 61.082C25.7016 61.082 25.4672 61.1025 25.268 61.1436C25.0746 61.1787 24.8988 61.2314 24.7406 61.3018C24.5824 61.3721 24.433 61.457 24.2924 61.5566C24.1576 61.6562 24.017 61.7705 23.8705 61.8994L22.5697 61.5654Z" fill="white"/>
<defs>
<filter id="filter0_dddd" x="57.636" y="139" width="16.7279" height="20" filterUnits="userSpaceOnUse" color-interpolation-filters="sRGB">
<feFlood flood-opacity="0" result="BackgroundImageFix"/>
<feColorMatrix in="SourceAlpha" type="matrix" values="0 0 0 0 0 0 0 0 0 0 0 0 0 0 0 0 0 0 127 0"/>
<feOffset dy="-1"/>
<feColorMatrix type="matrix" values="0 0 0 0 1 0 0 0 0 1 0 0 0 0 1 0 0 0 1 0"/>
<feBlend mode="normal" in2="BackgroundImageFix" result="effect1_dropShadow"/>
<feColorMatrix in="SourceAlpha" type="matrix" values="0 0 0 0 0 0 0 0 0 0 0 0 0 0 0 0 0 0 127 0"/>
<feOffset dy="1"/>
<feColorMatrix type="matrix" values="0 0 0 0 1 0 0 0 0 1 0 0 0 0 1 0 0 0 1 0"/>
<feBlend mode="normal" in2="effect1_dropShadow" result="effect2_dropShadow"/>
<feColorMatrix in="SourceAlpha" type="matrix" values="0 0 0 0 0 0 0 0 0 0 0 0 0 0 0 0 0 0 127 0"/>
<feOffset dx="1"/>
<feColorMatrix type="matrix" values="0 0 0 0 1 0 0 0 0 1 0 0 0 0 1 0 0 0 1 0"/>
<feBlend mode="normal" in2="effect2_dropShadow" result="effect3_dropShadow"/>
<feColorMatrix in="SourceAlpha" type="matrix" values="0 0 0 0 0 0 0 0 0 0 0 0 0 0 0 0 0 0 127 0"/>
<feOffset dx="-1"/>
<feColorMatrix type="matrix" values="0 0 0 0 1 0 0 0 0 1 0 0 0 0 1 0 0 0 1 0"/>
<feBlend mode="normal" in2="effect3_dropShadow" result="effect4_dropShadow"/>
<feBlend mode="normal" in="SourceGraphic" in2="effect4_dropShadow" result="shape"/>
</filter>
<filter id="filter1_dddd" x="77.636" y="79.3128" width="38.1097" height="22.5" filterUnits="userSpaceOnUse" color-interpolation-filters="sRGB">
<feFlood flood-opacity="0" result="BackgroundImageFix"/>
<feColorMatrix in="SourceAlpha" type="matrix" values="0 0 0 0 0 0 0 0 0 0 0 0 0 0 0 0 0 0 127 0"/>
<feOffset dy="-1"/>
<feColorMatrix type="matrix" values="0 0 0 0 1 0 0 0 0 1 0 0 0 0 1 0 0 0 1 0"/>
<feBlend mode="normal" in2="BackgroundImageFix" result="effect1_dropShadow"/>
<feColorMatrix in="SourceAlpha" type="matrix" values="0 0 0 0 0 0 0 0 0 0 0 0 0 0 0 0 0 0 127 0"/>
<feOffset dy="1"/>
<feColorMatrix type="matrix" values="0 0 0 0 1 0 0 0 0 1 0 0 0 0 1 0 0 0 1 0"/>
<feBlend mode="normal" in2="effect1_dropShadow" result="effect2_dropShadow"/>
<feColorMatrix in="SourceAlpha" type="matrix" values="0 0 0 0 0 0 0 0 0 0 0 0 0 0 0 0 0 0 127 0"/>
<feOffset dx="1"/>
<feColorMatrix type="matrix" values="0 0 0 0 1 0 0 0 0 1 0 0 0 0 1 0 0 0 1 0"/>
<feBlend mode="normal" in2="effect2_dropShadow" result="effect3_dropShadow"/>
<feColorMatrix in="SourceAlpha" type="matrix" values="0 0 0 0 0 0 0 0 0 0 0 0 0 0 0 0 0 0 127 0"/>
<feOffset dx="-1"/>
<feColorMatrix type="matrix" values="0 0 0 0 1 0 0 0 0 1 0 0 0 0 1 0 0 0 1 0"/>
<feBlend mode="normal" in2="effect3_dropShadow" result="effect4_dropShadow"/>
<feBlend mode="normal" in="SourceGraphic" in2="effect4_dropShadow" result="shape"/>
</filter>
<filter id="filter2_dddd" x="34.6457" y="79.3128" width="38.1097" height="22.5" filterUnits="userSpaceOnUse" color-interpolation-filters="sRGB">
<feFlood flood-opacity="0" result="BackgroundImageFix"/>
<feColorMatrix in="SourceAlpha" type="matrix" values="0 0 0 0 0 0 0 0 0 0 0 0 0 0 0 0 0 0 127 0"/>
<feOffset dy="-1"/>
<feColorMatrix type="matrix" values="0 0 0 0 1 0 0 0 0 1 0 0 0 0 1 0 0 0 1 0"/>
<feBlend mode="normal" in2="BackgroundImageFix" result="effect1_dropShadow"/>
<feColorMatrix in="SourceAlpha" type="matrix" values="0 0 0 0 0 0 0 0 0 0 0 0 0 0 0 0 0 0 127 0"/>
<feOffset dy="1"/>
<feColorMatrix type="matrix" values="0 0 0 0 1 0 0 0 0 1 0 0 0 0 1 0 0 0 1 0"/>
<feBlend mode="normal" in2="effect1_dropShadow" result="effect2_dropShadow"/>
<feColorMatrix in="SourceAlpha" type="matrix" values="0 0 0 0 0 0 0 0 0 0 0 0 0 0 0 0 0 0 127 0"/>
<feOffset dx="1"/>
<feColorMatrix type="matrix" values="0 0 0 0 1 0 0 0 0 1 0 0 0 0 1 0 0 0 1 0"/>
<feBlend mode="normal" in2="effect2_dropShadow" result="effect3_dropShadow"/>
<feColorMatrix in="SourceAlpha" type="matrix" values="0 0 0 0 0 0 0 0 0 0 0 0 0 0 0 0 0 0 127 0"/>
<feOffset dx="-1"/>
<feColorMatrix type="matrix" values="0 0 0 0 1 0 0 0 0 1 0 0 0 0 1 0 0 0 1 0"/>
<feBlend mode="normal" in2="effect3_dropShadow" result="effect4_dropShadow"/>
<feBlend mode="normal" in="SourceGraphic" in2="effect4_dropShadow" result="shape"/>
</filter>
</defs>
</svg>
