<svg width="81" height="128" viewBox="0 0 81 128" fill="none" xmlns="http://www.w3.org/2000/svg">
<path d="M69.6328 45.8145H53.6016V42H69.6328V45.8145Z" fill="black"/>
<path fill-rule="evenodd" clip-rule="evenodd" d="M70.6328 46.8145H52.6016V41H70.6328V46.8145ZM69.6328 45.8145V42H53.6016V45.8145H69.6328Z" fill="white"/>
<path d="M63.8027 68H62.1768V57.2773L58.8281 58.5518V57.0664L63.6709 55.2031H63.8027V68Z" fill="black"/>
<path fill-rule="evenodd" clip-rule="evenodd" d="M64.8027 69H61.1768V58.7279L57.8281 60.0023V56.3797L63.4852 54.2031H64.8027V69ZM62.1768 57.2773V68H63.8027V55.2031H63.6709L58.8281 57.0664V58.5518L62.1768 57.2773Z" fill="white"/>
<path d="M26.6328 45.8145H10.6016V42H26.6328V45.8145Z" fill="black"/>
<path fill-rule="evenodd" clip-rule="evenodd" d="M27.6328 46.8145H9.60156V41H27.6328V46.8145ZM26.6328 45.8145V42H10.6016V45.8145H26.6328Z" fill="white"/>
<path d="M23.3779 68H14.9932V66.8311L19.1855 62.1729C19.5605 61.7568 19.874 61.3877 20.126 61.0654C20.3779 60.7432 20.5801 60.4473 20.7324 60.1777C20.8848 59.9023 20.9932 59.6445 21.0576 59.4043C21.1221 59.1582 21.1543 58.9062 21.1543 58.6484C21.1543 58.332 21.1016 58.0361 20.9961 57.7607C20.8965 57.4795 20.7471 57.2363 20.5479 57.0312C20.3545 56.8262 20.1172 56.665 19.8359 56.5479C19.5605 56.4248 19.2471 56.3633 18.8955 56.3633C18.4678 56.3633 18.0957 56.4248 17.7793 56.5479C17.4688 56.6709 17.208 56.8467 16.9971 57.0752C16.792 57.2979 16.6367 57.5703 16.5312 57.8926C16.4316 58.2148 16.3818 58.5752 16.3818 58.9736H14.7471C14.7471 58.4346 14.8408 57.9277 15.0283 57.4531C15.2158 56.9727 15.4854 56.5537 15.8369 56.1963C16.1943 55.8389 16.6279 55.5547 17.1377 55.3438C17.6533 55.1328 18.2393 55.0273 18.8955 55.0273C19.499 55.0273 20.041 55.1182 20.5215 55.2998C21.0078 55.4756 21.418 55.7217 21.752 56.0381C22.0859 56.3545 22.3408 56.7295 22.5166 57.1631C22.6982 57.5967 22.7891 58.0684 22.7891 58.5781C22.7891 58.959 22.7246 59.3369 22.5957 59.7119C22.4668 60.0811 22.291 60.4473 22.0684 60.8105C21.8516 61.1738 21.5967 61.5342 21.3037 61.8916C21.0166 62.2432 20.7119 62.5947 20.3896 62.9463L16.9531 66.6729H23.3779V68Z" fill="black"/>
<path fill-rule="evenodd" clip-rule="evenodd" d="M24.3779 69H13.9932V66.4473L18.4423 61.5039C18.8069 61.0994 19.1047 60.7481 19.3382 60.4495C19.5672 60.1566 19.7382 59.9038 19.8596 59.6896C19.9804 59.4707 20.0523 59.291 20.091 59.148C20.133 58.9867 20.1543 58.8209 20.1543 58.6484C20.1543 58.4453 20.1209 58.2715 20.0622 58.1184L20.0577 58.1065L20.0535 58.0946C19.9998 57.9431 19.925 57.8253 19.8306 57.728L19.8254 57.7227L19.8203 57.7173C19.7309 57.6225 19.6135 57.5385 19.4513 57.4709L19.4396 57.466L19.428 57.4609C19.3005 57.4039 19.1296 57.3633 18.8955 57.3633C18.5627 57.3633 18.3196 57.4112 18.1446 57.4787C17.9648 57.5504 17.8335 57.6435 17.7323 57.753C17.6367 57.8569 17.5501 57.9976 17.4842 58.1958C17.4204 58.4055 17.3818 58.6616 17.3818 58.9736V59.9736H13.7471V58.9736C13.7471 58.3167 13.8617 57.6852 14.0975 57.0877C14.3328 56.4855 14.6751 55.9514 15.124 55.495L15.1298 55.4892C15.5883 55.0306 16.1353 54.6763 16.7553 54.4197L16.7591 54.4182C17.4142 54.1502 18.1321 54.0273 18.8955 54.0273C19.5965 54.0273 20.2588 54.1325 20.8682 54.3618C21.4652 54.5785 21.9958 54.8916 22.4397 55.3121C22.8779 55.7273 23.2127 56.2205 23.4412 56.7821C23.6767 57.3465 23.7891 57.949 23.7891 58.5781C23.7891 59.0741 23.7048 59.5617 23.5414 60.037L23.5398 60.0416C23.386 60.482 23.1793 60.9109 22.9241 61.328C22.6805 61.7356 22.3977 62.1344 22.0777 62.5248C21.7781 62.8916 21.4611 63.2573 21.1268 63.622L21.1248 63.6242L19.2356 65.6729H24.3779V69ZM16.9531 66.6729L20.3896 62.9463C20.7119 62.5947 21.0166 62.2432 21.3037 61.8916C21.5967 61.5342 21.8516 61.1738 22.0684 60.8105C22.291 60.4473 22.4668 60.0811 22.5957 59.7119C22.7246 59.3369 22.7891 58.959 22.7891 58.5781C22.7891 58.0684 22.6982 57.5967 22.5166 57.1631C22.3408 56.7295 22.0859 56.3545 21.752 56.0381C21.418 55.7217 21.0078 55.4756 20.5215 55.2998C20.041 55.1182 19.499 55.0273 18.8955 55.0273C18.2393 55.0273 17.6533 55.1328 17.1377 55.3438C16.6279 55.5547 16.1943 55.8389 15.8369 56.1963C15.4854 56.5537 15.2158 56.9727 15.0283 57.4531C14.9614 57.6225 14.9064 57.796 14.8634 57.9736C14.7858 58.2936 14.7471 58.627 14.7471 58.9736H16.3818C16.3818 58.5752 16.4316 58.2148 16.5312 57.8926C16.6367 57.5703 16.792 57.2979 16.9971 57.0752C17.208 56.8467 17.4688 56.6709 17.7793 56.5479C18.0957 56.4248 18.4678 56.3633 18.8955 56.3633C19.2471 56.3633 19.5605 56.4248 19.8359 56.5479C20.1172 56.665 20.3545 56.8262 20.5479 57.0312C20.7471 57.2363 20.8965 57.4795 20.9961 57.7607C21.1016 58.0361 21.1543 58.332 21.1543 58.6484C21.1543 58.9062 21.1221 59.1582 21.0576 59.4043C20.9932 59.6445 20.8848 59.9023 20.7324 60.1777C20.5801 60.4473 20.3779 60.7432 20.126 61.0654C19.874 61.3877 19.5605 61.7568 19.1855 62.1729L14.9932 66.8311V68H23.3779V66.6729H16.9531Z" fill="white"/>
<g filter="url(#filter0_dddd)">
<path fill-rule="evenodd" clip-rule="evenodd" d="M26.0711 92.3431L19.7071 98.7071C19.3166 99.0976 18.6834 99.0976 18.2929 98.7071L11.9289 92.3431C11.5384 91.9526 11.5384 91.3195 11.9289 90.9289C12.3194 90.5384 12.9526 90.5384 13.3431 90.9289L18 95.5858L18 81L20 81L20 95.5858L24.6568 90.9289C25.0474 90.5384 25.6805 90.5384 26.0711 90.9289C26.4616 91.3195 26.4616 91.9526 26.0711 92.3431Z" fill="black"/>
</g>
<path d="M23.3779 124H14.9932V122.831L19.1855 118.173C19.5605 117.757 19.874 117.388 20.126 117.065C20.3779 116.743 20.5801 116.447 20.7324 116.178C20.8848 115.902 20.9932 115.645 21.0576 115.404C21.1221 115.158 21.1543 114.906 21.1543 114.648C21.1543 114.332 21.1016 114.036 20.9961 113.761C20.8965 113.479 20.7471 113.236 20.5479 113.031C20.3545 112.826 20.1172 112.665 19.8359 112.548C19.5605 112.425 19.2471 112.363 18.8955 112.363C18.4678 112.363 18.0957 112.425 17.7793 112.548C17.4688 112.671 17.208 112.847 16.9971 113.075C16.792 113.298 16.6367 113.57 16.5312 113.893C16.4316 114.215 16.3818 114.575 16.3818 114.974H14.7471C14.7471 114.435 14.8408 113.928 15.0283 113.453C15.2158 112.973 15.4854 112.554 15.8369 112.196C16.1943 111.839 16.6279 111.555 17.1377 111.344C17.6533 111.133 18.2393 111.027 18.8955 111.027C19.499 111.027 20.041 111.118 20.5215 111.3C21.0078 111.476 21.418 111.722 21.752 112.038C22.0859 112.354 22.3408 112.729 22.5166 113.163C22.6982 113.597 22.7891 114.068 22.7891 114.578C22.7891 114.959 22.7246 115.337 22.5957 115.712C22.4668 116.081 22.291 116.447 22.0684 116.811C21.8516 117.174 21.5967 117.534 21.3037 117.892C21.0166 118.243 20.7119 118.595 20.3896 118.946L16.9531 122.673H23.3779V124Z" fill="#001AFF"/>
<path fill-rule="evenodd" clip-rule="evenodd" d="M24.3779 125H13.9932V122.447L18.4423 117.504C18.8069 117.099 19.1047 116.748 19.3382 116.45C19.5672 116.157 19.7382 115.904 19.8596 115.69C19.9804 115.471 20.0523 115.291 20.091 115.148C20.133 114.987 20.1543 114.821 20.1543 114.648C20.1543 114.445 20.1209 114.272 20.0622 114.118L20.0577 114.107L20.0535 114.095C19.9998 113.943 19.925 113.825 19.8306 113.728L19.8254 113.723L19.8203 113.717C19.7309 113.622 19.6135 113.539 19.4513 113.471L19.4396 113.466L19.428 113.461C19.3005 113.404 19.1296 113.363 18.8955 113.363C18.5627 113.363 18.3196 113.411 18.1446 113.479C17.9648 113.55 17.8335 113.644 17.7323 113.753C17.6367 113.857 17.5501 113.998 17.4842 114.196C17.4204 114.405 17.3818 114.662 17.3818 114.974V115.974H13.7471V114.974C13.7471 114.317 13.8617 113.685 14.0975 113.088C14.3328 112.485 14.6751 111.951 15.124 111.495L15.1298 111.489C15.5883 111.031 16.1353 110.676 16.7553 110.42L16.7591 110.418C17.4142 110.15 18.1321 110.027 18.8955 110.027C19.5965 110.027 20.2588 110.133 20.8682 110.362C21.4652 110.579 21.9958 110.892 22.4397 111.312C22.8779 111.727 23.2127 112.221 23.4412 112.782C23.6767 113.347 23.7891 113.949 23.7891 114.578C23.7891 115.074 23.7048 115.562 23.5414 116.037L23.5398 116.042C23.386 116.482 23.1793 116.911 22.9241 117.328C22.6805 117.736 22.3977 118.134 22.0777 118.525C21.7781 118.892 21.4611 119.257 21.1268 119.622L21.1248 119.624L19.2356 121.673H24.3779V125ZM16.9531 122.673L20.3896 118.946C20.7119 118.595 21.0166 118.243 21.3037 117.892C21.5967 117.534 21.8516 117.174 22.0684 116.811C22.291 116.447 22.4668 116.081 22.5957 115.712C22.7246 115.337 22.7891 114.959 22.7891 114.578C22.7891 114.068 22.6982 113.597 22.5166 113.163C22.3408 112.729 22.0859 112.354 21.752 112.038C21.418 111.722 21.0078 111.476 20.5215 111.3C20.041 111.118 19.499 111.027 18.8955 111.027C18.2393 111.027 17.6533 111.133 17.1377 111.344C16.6279 111.555 16.1943 111.839 15.8369 112.196C15.4854 112.554 15.2158 112.973 15.0283 113.453C14.9614 113.623 14.9064 113.796 14.8634 113.974C14.7858 114.294 14.7471 114.627 14.7471 114.974H16.3818C16.3818 114.575 16.4316 114.215 16.5312 113.893C16.6367 113.57 16.792 113.298 16.9971 113.075C17.208 112.847 17.4688 112.671 17.7793 112.548C18.0957 112.425 18.4678 112.363 18.8955 112.363C19.2471 112.363 19.5605 112.425 19.8359 112.548C20.1172 112.665 20.3545 112.826 20.5479 113.031C20.7471 113.236 20.8965 113.479 20.9961 113.761C21.1016 114.036 21.1543 114.332 21.1543 114.648C21.1543 114.906 21.1221 115.158 21.0576 115.404C20.9932 115.645 20.8848 115.902 20.7324 116.178C20.5801 116.447 20.3779 116.743 20.126 117.065C19.874 117.388 19.5605 117.757 19.1855 118.173L14.9932 122.831V124H23.3779V122.673H16.9531Z" fill="white"/>
<path d="M69.1016 22.2246C69.1016 23.877 68.9082 25.3359 68.5215 26.6016C68.1465 27.8555 67.6016 28.9102 66.8867 29.7656C66.1719 30.6094 65.2988 31.248 64.2676 31.6816C63.2363 32.1152 62.0762 32.332 60.7871 32.332C59.5098 32.332 58.3555 32.1152 57.3242 31.6816C56.293 31.248 55.4141 30.6094 54.6875 29.7656C53.9727 28.9102 53.416 27.8555 53.0176 26.6016C52.6309 25.3359 52.4375 23.877 52.4375 22.2246V16.1074C52.4375 14.4551 52.6309 13.002 53.0176 11.748C53.4043 10.4824 53.9551 9.42773 54.6699 8.58398C55.3965 7.72852 56.2695 7.08398 57.2891 6.65039C58.3203 6.2168 59.4746 6 60.752 6C62.041 6 63.2012 6.2168 64.2324 6.65039C65.2637 7.08398 66.1367 7.72852 66.8516 8.58398C67.5781 9.42773 68.1348 10.4824 68.5215 11.748C68.9082 13.002 69.1016 14.4551 69.1016 16.1074V22.2246ZM57.3594 20.1152L64.1797 15.0352C64.1445 13.3125 63.8457 12.0352 63.2832 11.2031C62.7207 10.3711 61.877 9.95508 60.752 9.95508C59.6152 9.95508 58.7656 10.3945 58.2031 11.2734C57.6406 12.1523 57.3594 13.5059 57.3594 15.334V20.1152ZM64.1797 18.3574L57.3594 23.4199C57.418 25.1074 57.7285 26.3613 58.291 27.1816C58.8535 27.9902 59.6855 28.3945 60.7871 28.3945C61.9355 28.3945 62.7852 27.9492 63.3359 27.0586C63.8984 26.168 64.1797 24.8027 64.1797 22.9629V18.3574Z" fill="#C84646"/>
<path fill-rule="evenodd" clip-rule="evenodd" d="M67.6497 30.412C66.8319 31.3773 65.8297 32.1096 64.6552 32.6035C63.484 33.0959 62.1892 33.332 60.7871 33.332C59.3954 33.332 58.1068 33.0955 56.9366 32.6035C55.7635 32.1102 54.7577 31.3797 53.9297 30.4181L53.9249 30.4125L53.9201 30.4068C53.1084 29.4355 52.4953 28.2602 52.0645 26.9044L52.0612 26.8938C51.6394 25.5134 51.4375 23.9525 51.4375 22.2246V16.1074C51.4375 14.3803 51.6392 12.8246 52.0616 11.4546C52.4804 10.0846 53.089 8.90302 53.9069 7.93757L53.9077 7.93664C54.7336 6.96421 55.7331 6.22545 56.8977 5.73015L56.9015 5.72855C58.0716 5.23656 59.3603 5 60.752 5C62.154 5 63.4488 5.23612 64.62 5.72856C65.7956 6.22285 66.7975 6.96148 67.6142 7.93711C68.444 8.90253 69.0587 10.0844 69.4776 11.4549C69.8999 12.8249 70.1016 14.3805 70.1016 16.1074V22.2246C70.1016 23.9514 69.8999 25.5113 69.4787 26.8911C69.0715 28.2513 68.4691 29.4315 67.6541 30.4068L67.6497 30.412ZM68.5215 26.6016C68.9082 25.3359 69.1016 23.877 69.1016 22.2246V16.1074C69.1016 14.4551 68.9082 13.002 68.5215 11.748C68.1348 10.4824 67.5781 9.42773 66.8516 8.58398C66.1367 7.72852 65.2637 7.08398 64.2324 6.65039C63.2012 6.2168 62.041 6 60.752 6C59.4746 6 58.3203 6.2168 57.2891 6.65039C56.2695 7.08398 55.3965 7.72852 54.6699 8.58398C53.9551 9.42773 53.4043 10.4824 53.0176 11.748C52.6309 13.002 52.4375 14.4551 52.4375 16.1074V22.2246C52.4375 23.877 52.6309 25.3359 53.0176 26.6016C53.416 27.8555 53.9727 28.9102 54.6875 29.7656C55.4141 30.6094 56.293 31.248 57.3242 31.6816C58.3555 32.1152 59.5098 32.332 60.7871 32.332C62.0762 32.332 63.2363 32.1152 64.2676 31.6816C65.2988 31.248 66.1719 30.6094 66.8867 29.7656C67.6016 28.9102 68.1465 27.8555 68.5215 26.6016ZM62.4904 26.5246C62.9018 25.8733 63.1797 24.7373 63.1797 22.9629V20.3451L58.3863 23.9031C58.4822 25.2214 58.7561 26.09 59.1139 26.6134C59.465 27.1165 59.9693 27.3945 60.7871 27.3945C61.6292 27.3945 62.137 27.096 62.4854 26.5326L62.4904 26.5246ZM58.291 27.1816C57.7285 26.3613 57.418 25.1074 57.3594 23.4199L64.1797 18.3574V22.9629C64.1797 24.8027 63.8984 26.168 63.3359 27.0586C62.7852 27.9492 61.9355 28.3945 60.7871 28.3945C59.6855 28.3945 58.8535 27.9902 58.291 27.1816ZM63.1606 14.5473L58.3594 18.1235V15.334C58.3594 13.5711 58.6374 12.4499 59.0454 11.8125C59.4053 11.2501 59.9199 10.9551 60.752 10.9551C61.5916 10.9551 62.103 11.2428 62.4548 11.7632C62.814 12.2946 63.0832 13.1856 63.1606 14.5473ZM57.3594 20.1152V15.334C57.3594 13.5059 57.6406 12.1523 58.2031 11.2734C58.7656 10.3945 59.6152 9.95508 60.752 9.95508C61.877 9.95508 62.7207 10.3711 63.2832 11.2031C63.8457 12.0352 64.1445 13.3125 64.1797 15.0352L57.3594 20.1152Z" fill="white"/>
<path d="M21.4082 31.9629H16.4688V12.3281L10 14.6484V10.3945L21.1445 6.36914H21.4082V31.9629Z" fill="#C84646"/>
<path fill-rule="evenodd" clip-rule="evenodd" d="M22.4082 32.9629H15.4688V13.7492L9 16.0695V9.6925L20.9695 5.36914H22.4082V32.9629ZM16.4688 12.3281V31.9629H21.4082V6.36914H21.1445L10 10.3945V14.6484L16.4688 12.3281Z" fill="white"/>
<defs>
<filter id="filter0_dddd" x="10.636" y="80" width="16.7279" height="20" filterUnits="userSpaceOnUse" color-interpolation-filters="sRGB">
<feFlood flood-opacity="0" result="BackgroundImageFix"/>
<feColorMatrix in="SourceAlpha" type="matrix" values="0 0 0 0 0 0 0 0 0 0 0 0 0 0 0 0 0 0 127 0"/>
<feOffset dy="-1"/>
<feColorMatrix type="matrix" values="0 0 0 0 1 0 0 0 0 1 0 0 0 0 1 0 0 0 1 0"/>
<feBlend mode="normal" in2="BackgroundImageFix" result="effect1_dropShadow"/>
<feColorMatrix in="SourceAlpha" type="matrix" values="0 0 0 0 0 0 0 0 0 0 0 0 0 0 0 0 0 0 127 0"/>
<feOffset dy="1"/>
<feColorMatrix type="matrix" values="0 0 0 0 1 0 0 0 0 1 0 0 0 0 1 0 0 0 1 0"/>
<feBlend mode="normal" in2="effect1_dropShadow" result="effect2_dropShadow"/>
<feColorMatrix in="SourceAlpha" type="matrix" values="0 0 0 0 0 0 0 0 0 0 0 0 0 0 0 0 0 0 127 0"/>
<feOffset dx="1"/>
<feColorMatrix type="matrix" values="0 0 0 0 1 0 0 0 0 1 0 0 0 0 1 0 0 0 1 0"/>
<feBlend mode="normal" in2="effect2_dropShadow" result="effect3_dropShadow"/>
<feColorMatrix in="SourceAlpha" type="matrix" values="0 0 0 0 0 0 0 0 0 0 0 0 0 0 0 0 0 0 127 0"/>
<feOffset dx="-1"/>
<feColorMatrix type="matrix" values="0 0 0 0 1 0 0 0 0 1 0 0 0 0 1 0 0 0 1 0"/>
<feBlend mode="normal" in2="effect3_dropShadow" result="effect4_dropShadow"/>
<feBlend mode="normal" in="SourceGraphic" in2="effect4_dropShadow" result="shape"/>
</filter>
</defs>
</svg>
