<svg width="139" height="193" viewBox="0 0 139 193" fill="none" xmlns="http://www.w3.org/2000/svg">
<path d="M35.1426 23.2617C35.1426 24.9141 34.9492 26.373 34.5625 27.6387C34.1875 28.8926 33.6426 29.9473 32.9277 30.8027C32.2129 31.6465 31.3398 32.2852 30.3086 32.7188C29.2773 33.1523 28.1172 33.3691 26.8281 33.3691C25.5508 33.3691 24.3965 33.1523 23.3652 32.7188C22.334 32.2852 21.4551 31.6465 20.7285 30.8027C20.0137 29.9473 19.457 28.8926 19.0586 27.6387C18.6719 26.373 18.4785 24.9141 18.4785 23.2617V17.1445C18.4785 15.4922 18.6719 14.0391 19.0586 12.7852C19.4453 11.5195 19.9961 10.4648 20.7109 9.62109C21.4375 8.76562 22.3105 8.12109 23.3301 7.6875C24.3613 7.25391 25.5156 7.03711 26.793 7.03711C28.082 7.03711 29.2422 7.25391 30.2734 7.6875C31.3047 8.12109 32.1777 8.76562 32.8926 9.62109C33.6191 10.4648 34.1758 11.5195 34.5625 12.7852C34.9492 14.0391 35.1426 15.4922 35.1426 17.1445V23.2617ZM23.4004 21.1523L30.2207 16.0723C30.1855 14.3496 29.8867 13.0723 29.3242 12.2402C28.7617 11.4082 27.918 10.9922 26.793 10.9922C25.6562 10.9922 24.8066 11.4316 24.2441 12.3105C23.6816 13.1895 23.4004 14.543 23.4004 16.3711V21.1523ZM30.2207 19.3945L23.4004 24.457C23.459 26.1445 23.7695 27.3984 24.332 28.2188C24.8945 29.0273 25.7266 29.4316 26.8281 29.4316C27.9766 29.4316 28.8262 28.9863 29.377 28.0957C29.9395 27.2051 30.2207 25.8398 30.2207 24V19.3945Z" fill="#C84646"/>
<path fill-rule="evenodd" clip-rule="evenodd" d="M33.6907 31.4492C32.8729 32.4144 31.8707 33.1467 30.6962 33.6406C29.525 34.133 28.2302 34.3691 26.8281 34.3691C25.4364 34.3691 24.1478 34.1326 22.9776 33.6406C21.8045 33.1473 20.7987 32.4168 19.9707 31.4553L19.9659 31.4496L19.9612 31.444C19.1495 30.4726 18.5364 29.2973 18.1056 27.9415L18.1022 27.9309C17.6804 26.5505 17.4785 24.9896 17.4785 23.2617V17.1445C17.4785 15.4174 17.6802 13.8617 18.1026 12.4917C18.5214 11.1217 19.13 9.94013 19.948 8.97468L19.9487 8.97375C20.7746 8.00132 21.7741 7.26256 22.9387 6.76726L22.9425 6.76566C24.1126 6.27367 25.4013 6.03711 26.793 6.03711C28.195 6.03711 29.4898 6.27323 30.661 6.76567C31.8366 7.25996 32.8385 7.99859 33.6552 8.97421C34.485 9.93964 35.0997 11.1215 35.5186 12.492C35.9409 13.862 36.1426 15.4176 36.1426 17.1445V23.2617C36.1426 24.9885 35.9409 26.5484 35.5197 27.9282C35.1125 29.2885 34.5101 30.4686 33.6951 31.444L33.6907 31.4492ZM34.5625 27.6387C34.9492 26.373 35.1426 24.9141 35.1426 23.2617V17.1445C35.1426 15.4922 34.9492 14.0391 34.5625 12.7852C34.1758 11.5195 33.6191 10.4648 32.8926 9.62109C32.1777 8.76562 31.3047 8.12109 30.2734 7.6875C29.2422 7.25391 28.082 7.03711 26.793 7.03711C25.5156 7.03711 24.3613 7.25391 23.3301 7.6875C22.3105 8.12109 21.4375 8.76562 20.7109 9.62109C19.9961 10.4648 19.4453 11.5195 19.0586 12.7852C18.6719 14.0391 18.4785 15.4922 18.4785 17.1445V23.2617C18.4785 24.9141 18.6719 26.373 19.0586 27.6387C19.457 28.8926 20.0137 29.9473 20.7285 30.8027C21.4551 31.6465 22.334 32.2852 23.3652 32.7188C24.3965 33.1523 25.5508 33.3691 26.8281 33.3691C28.1172 33.3691 29.2773 33.1523 30.3086 32.7188C31.3398 32.2852 32.2129 31.6465 32.9277 30.8027C33.6426 29.9473 34.1875 28.8926 34.5625 27.6387ZM28.5315 27.5617C28.9428 26.9104 29.2207 25.7744 29.2207 24V21.3822L24.4273 24.9402C24.5232 26.2585 24.7971 27.1271 25.1549 27.6505C25.506 28.1536 26.0103 28.4316 26.8281 28.4316C27.6702 28.4316 28.1781 28.1331 28.5264 27.5697L28.5315 27.5617ZM24.332 28.2188C23.7695 27.3984 23.459 26.1445 23.4004 24.457L30.2207 19.3945V24C30.2207 25.8398 29.9395 27.2051 29.377 28.0957C28.8262 28.9863 27.9766 29.4316 26.8281 29.4316C25.7266 29.4316 24.8945 29.0273 24.332 28.2188ZM29.2016 15.5844L24.4004 19.1606V16.3711C24.4004 14.6082 24.6784 13.487 25.0864 12.8496C25.4463 12.2872 25.9609 11.9922 26.793 11.9922C27.6326 11.9922 28.144 12.2799 28.4958 12.8003C28.855 13.3317 29.1242 14.2227 29.2016 15.5844ZM23.4004 21.1523V16.3711C23.4004 14.543 23.6816 13.1895 24.2441 12.3105C24.8066 11.4316 25.6562 10.9922 26.793 10.9922C27.918 10.9922 28.7617 11.4082 29.3242 12.2402C29.8867 13.0723 30.1855 14.3496 30.2207 16.0723L23.4004 21.1523Z" fill="white"/>
<path d="M66.4004 18.0586H69.0547C70.3906 18.0586 71.3809 17.7246 72.0254 17.0566C72.6699 16.377 72.9922 15.4922 72.9922 14.4023C72.9922 13.8984 72.916 13.4414 72.7637 13.0312C72.623 12.6094 72.4062 12.252 72.1133 11.959C71.8203 11.6543 71.4453 11.4199 70.9883 11.2559C70.543 11.0918 70.0215 11.0098 69.4238 11.0098C68.9316 11.0098 68.4688 11.0801 68.0352 11.2207C67.6133 11.3613 67.2383 11.5664 66.9102 11.8359C66.5938 12.0938 66.3418 12.4102 66.1543 12.7852C65.9668 13.1602 65.873 13.582 65.873 14.0508H60.9863C60.9863 13.0078 61.1973 12.0586 61.6191 11.2031C62.0527 10.3477 62.6445 9.61523 63.3945 9.00586C64.1445 8.38477 65.0234 7.9043 66.0312 7.56445C67.0508 7.22461 68.1465 7.05469 69.3184 7.05469C70.584 7.05469 71.7441 7.21289 72.7988 7.5293C73.8535 7.83398 74.7559 8.29688 75.5059 8.91797C76.2559 9.52734 76.8359 10.2891 77.2461 11.2031C77.668 12.1055 77.8789 13.1543 77.8789 14.3496C77.8789 14.9004 77.7969 15.4453 77.6328 15.9844C77.4688 16.5117 77.2285 17.0156 76.9121 17.4961C76.5957 17.9766 76.2031 18.4219 75.7344 18.832C75.2656 19.2305 74.7266 19.5762 74.1172 19.8691C74.832 20.127 75.4473 20.4551 75.9629 20.8535C76.4902 21.252 76.9238 21.709 77.2637 22.2246C77.6035 22.7285 77.8555 23.2852 78.0195 23.8945C78.1836 24.5039 78.2656 25.1484 78.2656 25.8281C78.2656 27.0234 78.0371 28.0898 77.5801 29.0273C77.123 29.9648 76.4961 30.7559 75.6992 31.4004C74.9023 32.0332 73.9531 32.5195 72.8516 32.8594C71.7617 33.1875 70.584 33.3516 69.3184 33.3516C68.2285 33.3516 67.1621 33.2051 66.1191 32.9121C65.0879 32.6074 64.168 32.1562 63.3594 31.5586C62.5508 30.9492 61.9004 30.1875 61.4082 29.2734C60.9277 28.3594 60.6875 27.2812 60.6875 26.0391H65.5742C65.5742 26.5312 65.668 26.9883 65.8555 27.4102C66.043 27.8203 66.3066 28.1777 66.6465 28.4824C66.998 28.7754 67.4082 29.0098 67.877 29.1855C68.3457 29.3496 68.8613 29.4316 69.4238 29.4316C70.666 29.4316 71.6387 29.1035 72.3418 28.4473C73.0449 27.791 73.3965 26.9004 73.3965 25.7754C73.3965 25.084 73.2969 24.4922 73.0977 24C72.8984 23.5078 72.6055 23.1035 72.2188 22.7871C71.8438 22.4707 71.3867 22.2363 70.8477 22.084C70.3203 21.9316 69.7227 21.8555 69.0547 21.8555H66.4004V18.0586Z" fill="#C84646"/>
<path fill-rule="evenodd" clip-rule="evenodd" d="M65.4004 17.0586H69.0547C70.2366 17.0586 70.916 16.7641 71.3028 16.3653C71.7407 15.9019 71.9922 15.279 71.9922 14.4023C71.9922 13.9995 71.9314 13.6627 71.8262 13.3794L71.8203 13.3636L71.815 13.3475C71.7198 13.0618 71.5814 12.8413 71.4062 12.6661L71.3992 12.6592L71.3924 12.6521C71.2212 12.474 70.984 12.3168 70.6504 12.1971L70.6426 12.1942C70.3325 12.08 69.9328 12.0098 69.4238 12.0098C69.0296 12.0098 68.6729 12.0656 68.3476 12.1706C68.0378 12.2744 67.7732 12.4212 67.5449 12.6087L67.5418 12.6112C67.3383 12.777 67.1746 12.9805 67.0487 13.2324C66.9385 13.4528 66.873 13.7188 66.873 14.0508V15.0508H59.9863V14.0508C59.9863 12.869 60.2264 11.7664 60.7223 10.7608L60.7271 10.751C61.2239 9.77078 61.904 8.92925 62.7604 8.23266C63.6122 7.52802 64.6001 6.99171 65.7117 6.61688L65.715 6.61576C66.8453 6.239 68.0487 6.05469 69.3184 6.05469C70.6652 6.05469 71.922 6.22281 73.0813 6.57C74.2474 6.90751 75.2736 7.42816 76.14 8.14476C77.0121 8.85428 77.6844 9.73998 78.1553 10.7867C78.648 11.8438 78.8789 13.0397 78.8789 14.3496C78.8789 15.0013 78.7816 15.6443 78.5895 16.2755L78.5877 16.2814C78.3946 16.902 78.1131 17.4906 77.7473 18.0461C77.3775 18.6077 76.9238 19.12 76.3929 19.5846L76.3875 19.5893L76.382 19.594C76.3113 19.6541 76.2393 19.713 76.1661 19.7708C76.3052 19.8625 76.4399 19.9585 76.5701 20.0589C77.1786 20.5194 77.6903 21.056 78.0957 21.6699C78.4981 22.2676 78.794 22.9245 78.9851 23.6346C79.1737 24.335 79.2656 25.0674 79.2656 25.8281C79.2656 27.1531 79.0116 28.3729 78.479 29.4655C77.959 30.5321 77.2408 31.4397 76.3281 32.1779L76.3211 32.1835C75.4148 32.9032 74.3511 33.4433 73.1464 33.8149L73.1399 33.8169C71.9467 34.1761 70.6708 34.3516 69.3184 34.3516C68.1376 34.3516 66.9802 34.1927 65.8487 33.8748L65.8358 33.8712C64.7004 33.5358 63.6738 33.0345 62.765 32.3628L62.7575 32.3572C61.8307 31.6588 61.0865 30.7853 60.5277 29.7475L60.523 29.7387C59.9532 28.6548 59.6875 27.4107 59.6875 26.0391V25.0391H66.5742V26.0391C66.5742 26.3987 66.6416 26.7148 66.7672 26.9992C66.8942 27.2755 67.0699 27.5159 67.3007 27.7258C67.5531 27.9334 67.8555 28.1083 68.2175 28.2452C68.5647 28.3653 68.9636 28.4316 69.4238 28.4316C70.4891 28.4316 71.1907 28.1538 71.6595 27.7162C72.1253 27.2815 72.3965 26.6745 72.3965 25.7754C72.3965 25.1756 72.3095 24.7181 72.1707 24.3752C72.0303 24.0284 71.8343 23.7646 71.5855 23.5611L71.5797 23.5563L71.5739 23.5514C71.3221 23.3389 70.9972 23.1654 70.5757 23.0463L70.5701 23.0447C70.15 22.9233 69.6483 22.8555 69.0547 22.8555H65.4004V17.0586ZM67.877 29.1855C67.4082 29.0098 66.998 28.7754 66.6465 28.4824C66.3066 28.1777 66.043 27.8203 65.8555 27.4102C65.668 26.9883 65.5742 26.5312 65.5742 26.0391H60.6875C60.6875 26.3851 60.7061 26.7185 60.7434 27.0391C60.84 27.8692 61.0616 28.614 61.4082 29.2734C61.9004 30.1875 62.5508 30.9492 63.3594 31.5586C64.168 32.1562 65.0879 32.6074 66.1191 32.9121C67.1621 33.2051 68.2285 33.3516 69.3184 33.3516C70.584 33.3516 71.7617 33.1875 72.8516 32.8594C73.9531 32.5195 74.9023 32.0332 75.6992 31.4004C76.4961 30.7559 77.123 29.9648 77.5801 29.0273C78.0371 28.0898 78.2656 27.0234 78.2656 25.8281C78.2656 25.1484 78.1836 24.5039 78.0195 23.8945C77.8555 23.2852 77.6035 22.7285 77.2637 22.2246C76.9238 21.709 76.4902 21.252 75.9629 20.8535C75.7469 20.6866 75.5134 20.532 75.2624 20.3898C74.9143 20.1925 74.5326 20.0189 74.1172 19.8691C74.5097 19.6804 74.873 19.4699 75.2072 19.2374C75.3918 19.109 75.5675 18.9738 75.7344 18.832C76.2031 18.4219 76.5957 17.9766 76.9121 17.4961C77.2285 17.0156 77.4688 16.5117 77.6328 15.9844C77.7969 15.4453 77.8789 14.9004 77.8789 14.3496C77.8789 13.1543 77.668 12.1055 77.2461 11.2031C76.8359 10.2891 76.2559 9.52734 75.5059 8.91797C74.7559 8.29688 73.8535 7.83398 72.7988 7.5293C71.7441 7.21289 70.584 7.05469 69.3184 7.05469C68.1465 7.05469 67.0508 7.22461 66.0312 7.56445C65.0234 7.9043 64.1445 8.38477 63.3945 9.00586C62.6445 9.61523 62.0527 10.3477 61.6191 11.2031C61.3362 11.7768 61.1482 12.3927 61.055 13.0508C61.0092 13.3739 60.9863 13.7073 60.9863 14.0508H65.873C65.873 13.582 65.9668 13.1602 66.1543 12.7852C66.3418 12.4102 66.5938 12.0938 66.9102 11.8359C67.2383 11.5664 67.6133 11.3613 68.0352 11.2207C68.4688 11.0801 68.9316 11.0098 69.4238 11.0098C70.0215 11.0098 70.543 11.0918 70.9883 11.2559C71.4453 11.4199 71.8203 11.6543 72.1133 11.959C72.4062 12.252 72.623 12.6094 72.7637 13.0312C72.916 13.4414 72.9922 13.8984 72.9922 14.4023C72.9922 15.4922 72.6699 16.377 72.0254 17.0566C71.3809 17.7246 70.3906 18.0586 69.0547 18.0586H66.4004V21.8555H69.0547C69.7227 21.8555 70.3203 21.9316 70.8477 22.084C71.3867 22.2363 71.8438 22.4707 72.2188 22.7871C72.6055 23.1035 72.8984 23.5078 73.0977 24C73.2969 24.4922 73.3965 25.084 73.3965 25.7754C73.3965 26.9004 73.0449 27.791 72.3418 28.4473C71.6387 29.1035 70.666 29.4316 69.4238 29.4316C68.8613 29.4316 68.3457 29.3496 67.877 29.1855Z" fill="white"/>
<path d="M118.752 23.4902H121.723V27.4453H118.752V33H113.865V27.4453H103.23L103.037 24.3867L113.795 7.40625H118.752V23.4902ZM107.836 23.4902H113.865V13.9805L113.391 14.8242L107.836 23.4902Z" fill="#C84646"/>
<path fill-rule="evenodd" clip-rule="evenodd" d="M122.723 22.4902V28.4453H119.752V34H112.865V28.4453H102.292L102.019 24.1258L113.245 6.40625H119.752V22.4902H122.723ZM113.865 27.4453V33H118.752V27.4453H121.723V23.4902H118.752V7.40625H113.795L103.037 24.3867L103.23 27.4453H113.865ZM107.836 23.4902H113.865V13.9805L113.391 14.8242L107.836 23.4902ZM112.865 17.497L109.665 22.4902H112.865V17.497Z" fill="white"/>
<path d="M34.6328 45.8145H18.6016V42H34.6328V45.8145Z" fill="black"/>
<path fill-rule="evenodd" clip-rule="evenodd" d="M35.6328 46.8145H17.6016V41H35.6328V46.8145ZM34.6328 45.8145V42H18.6016V45.8145H34.6328Z" fill="white"/>
<path d="M77.6328 45.8145H61.6016V42H77.6328V45.8145Z" fill="black"/>
<path fill-rule="evenodd" clip-rule="evenodd" d="M78.6328 46.8145H60.6016V41H78.6328V46.8145ZM77.6328 45.8145V42H61.6016V45.8145H77.6328Z" fill="white"/>
<path d="M120.633 45.8145H104.602V42H120.633V45.8145Z" fill="black"/>
<path fill-rule="evenodd" clip-rule="evenodd" d="M121.633 46.8145H103.602V41H121.633V46.8145ZM120.633 45.8145V42H104.602V45.8145H120.633Z" fill="white"/>
<path d="M88.1211 122.702H89.9053V124.029H88.1211V127H86.4951V124.029H80.6592V123.071L86.3896 114.203H88.1211V122.702ZM82.4609 122.702H86.4951V116.365L86.2314 116.857L82.4609 122.702Z" fill="black"/>
<path fill-rule="evenodd" clip-rule="evenodd" d="M86.4951 122.702V116.365L86.2314 116.857L82.4609 122.702H86.4951ZM86.3896 114.203H88.1211V122.702H89.9053V124.029H88.1211V127H86.4951V124.029H80.6592V123.071L86.3896 114.203ZM85.4951 125.029H79.6592V122.776L85.8452 113.203H89.1211V121.702H90.9053V125.029H89.1211V128H85.4951V125.029ZM84.2961 121.702H85.4951V119.844L84.2961 121.702Z" fill="white"/>
<path d="M113.803 68H112.177V57.2773L108.828 58.5518V57.0664L113.671 55.2031H113.803V68Z" fill="black"/>
<path fill-rule="evenodd" clip-rule="evenodd" d="M114.803 69H111.177V58.7279L107.828 60.0023V56.3797L113.485 54.2031H114.803V69ZM112.177 57.2773V68H113.803V55.2031H113.671L108.828 57.0664V58.5518L112.177 57.2773Z" fill="white"/>
<path d="M35.4277 119.819H36.5879C36.998 119.819 37.3584 119.764 37.6689 119.652C37.9854 119.541 38.249 119.389 38.46 119.195C38.6768 119.002 38.8408 118.771 38.9521 118.501C39.0635 118.231 39.1191 117.936 39.1191 117.613C39.1191 116.869 38.9287 116.31 38.5479 115.935C38.167 115.554 37.6104 115.363 36.8779 115.363C36.5322 115.363 36.2158 115.416 35.9287 115.521C35.6475 115.621 35.4043 115.768 35.1992 115.961C35 116.154 34.8447 116.386 34.7334 116.655C34.6221 116.925 34.5664 117.227 34.5664 117.561H32.9316C32.9316 117.074 33.0254 116.617 33.2129 116.189C33.4062 115.756 33.6758 115.381 34.0215 115.064C34.3672 114.742 34.7803 114.49 35.2607 114.309C35.7471 114.121 36.2861 114.027 36.8779 114.027C37.4521 114.027 37.9766 114.106 38.4512 114.265C38.9258 114.417 39.333 114.646 39.6729 114.95C40.0127 115.255 40.2764 115.633 40.4639 116.084C40.6514 116.535 40.7451 117.057 40.7451 117.648C40.7451 117.895 40.707 118.149 40.6309 118.413C40.5547 118.677 40.4375 118.935 40.2793 119.187C40.1211 119.433 39.916 119.667 39.6641 119.89C39.418 120.106 39.1221 120.288 38.7764 120.435C39.1924 120.569 39.5381 120.745 39.8135 120.962C40.0947 121.179 40.3174 121.422 40.4814 121.691C40.6514 121.961 40.7686 122.245 40.833 122.544C40.9033 122.843 40.9385 123.139 40.9385 123.432C40.9385 124.029 40.8359 124.56 40.6309 125.022C40.4258 125.485 40.1416 125.878 39.7783 126.2C39.415 126.517 38.9844 126.76 38.4863 126.93C37.9941 127.094 37.4609 127.176 36.8867 127.176C36.3242 127.176 35.7939 127.097 35.2959 126.938C34.8037 126.78 34.376 126.549 34.0127 126.244C33.6494 125.939 33.3594 125.567 33.1426 125.128C32.9316 124.688 32.8262 124.188 32.8262 123.625H34.4521C34.4521 123.959 34.5078 124.264 34.6191 124.539C34.7363 124.814 34.9004 125.049 35.1113 125.242C35.3223 125.436 35.5771 125.585 35.876 125.69C36.1807 125.796 36.5176 125.849 36.8867 125.849C37.2559 125.849 37.5898 125.802 37.8887 125.708C38.1875 125.608 38.4424 125.459 38.6533 125.26C38.8643 125.061 39.0254 124.814 39.1367 124.521C39.2539 124.223 39.3125 123.871 39.3125 123.467C39.3125 123.068 39.2451 122.726 39.1104 122.438C38.9814 122.146 38.7969 121.902 38.5566 121.709C38.3223 121.516 38.0352 121.372 37.6953 121.278C37.3613 121.185 36.9922 121.138 36.5879 121.138H35.4277V119.819Z" fill="black"/>
<path d="M52.373 122.104C52.373 122.919 52.2793 123.643 52.0918 124.275C51.9043 124.902 51.6348 125.433 51.2832 125.866C50.9316 126.294 50.501 126.619 49.9912 126.842C49.4814 127.064 48.8984 127.176 48.2422 127.176C47.5918 127.176 47.0088 127.064 46.4932 126.842C45.9834 126.619 45.5498 126.294 45.1924 125.866C44.835 125.433 44.5596 124.902 44.3662 124.275C44.1787 123.643 44.085 122.919 44.085 122.104V119.107C44.085 118.293 44.1787 117.572 44.3662 116.945C44.5537 116.312 44.8232 115.779 45.1748 115.346C45.5322 114.912 45.9658 114.584 46.4756 114.361C46.9912 114.133 47.5742 114.019 48.2246 114.019C48.8809 114.019 49.4639 114.133 49.9736 114.361C50.4893 114.584 50.9229 114.912 51.2744 115.346C51.6318 115.779 51.9043 116.312 52.0918 116.945C52.2793 117.572 52.373 118.293 52.373 119.107V122.104ZM45.7197 121.779L50.7031 117.956C50.6094 117.106 50.3604 116.462 49.9561 116.022C49.5576 115.577 48.9805 115.354 48.2246 115.354C47.3691 115.354 46.7363 115.645 46.3262 116.225C45.9219 116.799 45.7197 117.64 45.7197 118.747V121.779ZM50.7383 119.512L45.7637 123.317C45.8633 124.144 46.1182 124.773 46.5283 125.207C46.9385 125.641 47.5098 125.857 48.2422 125.857C49.1035 125.857 49.7334 125.564 50.1318 124.979C50.5361 124.393 50.7383 123.549 50.7383 122.447V119.512Z" fill="black"/>
<path fill-rule="evenodd" clip-rule="evenodd" d="M34.4277 118.819H36.5879C36.9099 118.819 37.1519 118.775 37.3315 118.711L37.337 118.709C37.5477 118.635 37.6884 118.546 37.7842 118.458L37.7943 118.449C37.898 118.356 37.9739 118.25 38.0279 118.119C38.0842 117.983 38.1191 117.818 38.1191 117.613C38.1191 117.03 37.9714 116.77 37.8462 116.647L37.8407 116.642C37.7068 116.508 37.443 116.363 36.8779 116.363C36.6347 116.363 36.4368 116.4 36.2735 116.46L36.2626 116.464C36.1074 116.519 35.9876 116.593 35.8905 116.684C35.7966 116.776 35.7184 116.89 35.6577 117.037C35.6031 117.169 35.5664 117.339 35.5664 117.561V118.561H31.9316V117.561C31.9316 116.942 32.0517 116.348 32.297 115.788L32.2996 115.782C32.5474 115.226 32.8963 114.739 33.343 114.33C33.7903 113.914 34.3153 113.597 34.9041 113.374C35.5188 113.138 36.1808 113.027 36.8779 113.027C37.542 113.027 38.1732 113.119 38.7621 113.314C39.356 113.506 39.8879 113.8 40.3404 114.206C40.7991 114.617 41.1466 115.121 41.3873 115.7C41.6348 116.296 41.7451 116.952 41.7451 117.648C41.7451 117.999 41.6908 118.347 41.5916 118.691C41.4874 119.051 41.3299 119.394 41.1262 119.718L41.1205 119.727C40.9803 119.946 40.817 120.15 40.634 120.343C40.9077 120.584 41.1432 120.857 41.3315 121.165C41.5573 121.524 41.7185 121.912 41.8085 122.324C41.8943 122.691 41.9385 123.061 41.9385 123.432C41.9385 124.144 41.816 124.816 41.5451 125.428C41.2846 126.016 40.917 126.527 40.4419 126.948L40.4351 126.954C39.9654 127.363 39.4186 127.668 38.8092 127.876L38.8026 127.878C38.1981 128.08 37.557 128.176 36.8867 128.176C36.2293 128.176 35.5963 128.083 34.9932 127.892L34.9899 127.891C34.3857 127.696 33.8411 127.405 33.3701 127.01C32.8969 126.614 32.5218 126.13 32.2458 125.57L32.241 125.561C31.956 124.967 31.8262 124.314 31.8262 123.625V122.625H35.4521V123.625C35.4521 123.842 35.4873 124.015 35.5429 124.156C35.6064 124.302 35.6881 124.414 35.7871 124.505C35.888 124.598 36.0219 124.681 36.2059 124.746C36.3908 124.81 36.6144 124.849 36.8867 124.849C37.1676 124.849 37.3959 124.813 37.5808 124.757C37.7492 124.699 37.872 124.622 37.9667 124.533C38.0593 124.445 38.1398 124.33 38.2019 124.166L38.2057 124.156C38.2671 124 38.3125 123.777 38.3125 123.467C38.3125 123.179 38.2636 122.988 38.2051 122.863L38.1999 122.852L38.195 122.841C38.1282 122.689 38.0402 122.577 37.9296 122.488L37.9202 122.48C37.8104 122.39 37.6551 122.305 37.4294 122.242L37.4251 122.241C37.1921 122.176 36.9155 122.138 36.5879 122.138H34.4277V118.819ZM35.876 125.69C35.5771 125.585 35.3223 125.436 35.1113 125.242C34.9004 125.049 34.7363 124.814 34.6191 124.539C34.5078 124.264 34.4521 123.959 34.4521 123.625H32.8262C32.8262 123.983 32.869 124.317 32.9545 124.625C33.0033 124.801 33.066 124.968 33.1426 125.128C33.3594 125.567 33.6494 125.939 34.0127 126.244C34.376 126.549 34.8037 126.78 35.2959 126.938C35.7939 127.097 36.3242 127.176 36.8867 127.176C37.4609 127.176 37.9941 127.094 38.4863 126.93C38.9844 126.76 39.415 126.517 39.7783 126.2C40.1416 125.878 40.4258 125.485 40.6309 125.022C40.8359 124.56 40.9385 124.029 40.9385 123.432C40.9385 123.139 40.9033 122.843 40.833 122.544C40.7686 122.245 40.6514 121.961 40.4814 121.691C40.3255 121.435 40.1166 121.203 39.8547 120.994C39.8411 120.983 39.8274 120.973 39.8135 120.962C39.5381 120.745 39.1924 120.569 38.7764 120.435C39.1221 120.288 39.418 120.106 39.6641 119.89C39.7082 119.851 39.7508 119.811 39.7921 119.772C39.9864 119.585 40.1488 119.39 40.2793 119.187C40.4375 118.935 40.5547 118.677 40.6309 118.413C40.707 118.149 40.7451 117.895 40.7451 117.648C40.7451 117.057 40.6514 116.535 40.4639 116.084C40.2764 115.633 40.0127 115.255 39.6729 114.95C39.333 114.646 38.9258 114.417 38.4512 114.265C37.9766 114.106 37.4521 114.027 36.8779 114.027C36.2861 114.027 35.7471 114.121 35.2607 114.309C34.7803 114.49 34.3672 114.742 34.0215 115.064C33.6758 115.381 33.4062 115.756 33.2129 116.189C33.1597 116.311 33.1141 116.434 33.076 116.561C32.9797 116.879 32.9316 117.212 32.9316 117.561H34.5664C34.5664 117.227 34.6221 116.925 34.7334 116.655C34.8447 116.386 35 116.154 35.1992 115.961C35.4043 115.768 35.6475 115.621 35.9287 115.521C36.2158 115.416 36.5322 115.363 36.8779 115.363C37.6104 115.363 38.167 115.554 38.5479 115.935C38.9287 116.31 39.1191 116.869 39.1191 117.613C39.1191 117.936 39.0635 118.231 38.9521 118.501C38.8408 118.771 38.6768 119.002 38.46 119.195C38.249 119.389 37.9854 119.541 37.6689 119.652C37.3584 119.764 36.998 119.819 36.5879 119.819H35.4277V121.138H36.5879C36.9922 121.138 37.3613 121.185 37.6953 121.278C38.0352 121.372 38.3223 121.516 38.5566 121.709C38.7969 121.902 38.9814 122.146 39.1104 122.438C39.2451 122.726 39.3125 123.068 39.3125 123.467C39.3125 123.871 39.2539 124.223 39.1367 124.521C39.0254 124.814 38.8643 125.061 38.6533 125.26C38.4424 125.459 38.1875 125.608 37.8887 125.708C37.5898 125.802 37.2559 125.849 36.8867 125.849C36.5176 125.849 36.1807 125.796 35.876 125.69ZM53.0506 124.559L53.0499 124.562C52.8313 125.293 52.5067 125.945 52.06 126.496L52.0558 126.501C51.6036 127.051 51.0451 127.473 50.3915 127.758C49.7349 128.045 49.0118 128.176 48.2422 128.176C47.4768 128.176 46.7558 128.044 46.0967 127.76L46.0929 127.758C45.4408 127.473 44.8816 127.054 44.425 126.507L44.4207 126.502C43.9676 125.953 43.6361 125.301 43.4106 124.57L43.4074 124.559C43.187 123.816 43.085 122.994 43.085 122.104V119.107C43.085 118.219 43.1869 117.399 43.4078 116.66C43.6259 115.924 43.9503 115.268 44.398 114.716L44.4032 114.71C44.859 114.157 45.4185 113.732 46.0729 113.446C46.7335 113.154 47.4569 113.019 48.2246 113.019C48.995 113.019 49.7191 113.153 50.3764 113.446C51.0353 113.732 51.5966 114.156 52.0486 114.713C52.5034 115.265 52.8316 115.923 53.0502 116.66C53.0504 116.66 53.0505 116.661 53.0506 116.661L52.0918 116.945C52.2793 117.572 52.373 118.293 52.373 119.107V122.104C52.373 122.919 52.2793 123.643 52.0918 124.275C51.9043 124.902 51.6348 125.433 51.2832 125.866C50.9316 126.294 50.501 126.619 49.9912 126.842C49.4814 127.064 48.8984 127.176 48.2422 127.176C47.5918 127.176 47.0088 127.064 46.4932 126.842C45.9834 126.619 45.5498 126.294 45.1924 125.866C44.835 125.433 44.5596 124.902 44.3662 124.275C44.1787 123.643 44.085 122.919 44.085 122.104V119.107C44.085 118.293 44.1787 117.572 44.3662 116.945C44.5537 116.312 44.8232 115.779 45.1748 115.346C45.5322 114.912 45.9658 114.584 46.4756 114.361C46.9912 114.133 47.5742 114.019 48.2246 114.019C48.8809 114.019 49.4639 114.133 49.9736 114.361C50.4893 114.584 50.9229 114.912 51.2744 115.346C51.6318 115.779 51.9043 116.312 52.0918 116.945M50.7031 117.956C50.6094 117.106 50.3604 116.462 49.9561 116.022C49.5576 115.577 48.9805 115.354 48.2246 115.354C47.3691 115.354 46.7363 115.645 46.3262 116.225C45.9219 116.799 45.7197 117.64 45.7197 118.747V121.779L50.7031 117.956ZM46.7197 119.752L49.6168 117.529C49.5172 117.124 49.3714 116.864 49.2201 116.7L49.2107 116.689C49.0499 116.51 48.7767 116.354 48.2246 116.354C47.6193 116.354 47.3265 116.542 47.1434 116.801C46.9085 117.135 46.7197 117.736 46.7197 118.747V119.752ZM45.7637 123.317C45.8633 124.144 46.1182 124.773 46.5283 125.207C46.9385 125.641 47.5098 125.857 48.2422 125.857C49.1035 125.857 49.7334 125.564 50.1318 124.979C50.5361 124.393 50.7383 123.549 50.7383 122.447V119.512L45.7637 123.317ZM49.7383 121.536V122.447C49.7383 123.449 49.5505 124.06 49.3088 124.411L49.3049 124.416C49.1342 124.667 48.8538 124.857 48.2422 124.857C47.7177 124.857 47.4345 124.71 47.2548 124.52C47.1034 124.36 46.9594 124.114 46.8583 123.739L49.7383 121.536Z" fill="white"/>
<g filter="url(#filter0_dddd)">
<path fill-rule="evenodd" clip-rule="evenodd" d="M73.0711 151.343L66.7071 157.707C66.3166 158.098 65.6834 158.098 65.2929 157.707L58.9289 151.343C58.5384 150.953 58.5384 150.319 58.9289 149.929C59.3194 149.538 59.9526 149.538 60.3431 149.929L65 154.586L65 140L67 140L67 154.586L71.6568 149.929C72.0474 149.538 72.6805 149.538 73.0711 149.929C73.4616 150.319 73.4616 150.953 73.0711 151.343Z" fill="black"/>
</g>
<path d="M67.2402 120.136H70.8174V121.753H67.2402V125.717H65.6143V121.753H62.0459V120.136H65.6143V116.4H67.2402V120.136Z" fill="black"/>
<path fill-rule="evenodd" clip-rule="evenodd" d="M71.8174 119.136V122.753H68.2402V126.717H64.6143V122.753H61.0459V119.136H64.6143V115.4H68.2402V119.136H71.8174ZM65.6143 120.136H62.0459V121.753H65.6143V125.717H67.2402V121.753H70.8174V120.136H67.2402V116.4H65.6143V120.136Z" fill="white"/>
<path d="M58.4277 175.819H59.5879C59.998 175.819 60.3584 175.764 60.6689 175.652C60.9854 175.541 61.249 175.389 61.46 175.195C61.6768 175.002 61.8408 174.771 61.9521 174.501C62.0635 174.231 62.1191 173.936 62.1191 173.613C62.1191 172.869 61.9287 172.31 61.5479 171.935C61.167 171.554 60.6104 171.363 59.8779 171.363C59.5322 171.363 59.2158 171.416 58.9287 171.521C58.6475 171.621 58.4043 171.768 58.1992 171.961C58 172.154 57.8447 172.386 57.7334 172.655C57.6221 172.925 57.5664 173.227 57.5664 173.561H55.9316C55.9316 173.074 56.0254 172.617 56.2129 172.189C56.4062 171.756 56.6758 171.381 57.0215 171.064C57.3672 170.742 57.7803 170.49 58.2607 170.309C58.7471 170.121 59.2861 170.027 59.8779 170.027C60.4521 170.027 60.9766 170.106 61.4512 170.265C61.9258 170.417 62.333 170.646 62.6729 170.95C63.0127 171.255 63.2764 171.633 63.4639 172.084C63.6514 172.535 63.7451 173.057 63.7451 173.648C63.7451 173.895 63.707 174.149 63.6309 174.413C63.5547 174.677 63.4375 174.935 63.2793 175.187C63.1211 175.433 62.916 175.667 62.6641 175.89C62.418 176.106 62.1221 176.288 61.7764 176.435C62.1924 176.569 62.5381 176.745 62.8135 176.962C63.0947 177.179 63.3174 177.422 63.4814 177.691C63.6514 177.961 63.7686 178.245 63.833 178.544C63.9033 178.843 63.9385 179.139 63.9385 179.432C63.9385 180.029 63.8359 180.56 63.6309 181.022C63.4258 181.485 63.1416 181.878 62.7783 182.2C62.415 182.517 61.9844 182.76 61.4863 182.93C60.9941 183.094 60.4609 183.176 59.8867 183.176C59.3242 183.176 58.7939 183.097 58.2959 182.938C57.8037 182.78 57.376 182.549 57.0127 182.244C56.6494 181.939 56.3594 181.567 56.1426 181.128C55.9316 180.688 55.8262 180.188 55.8262 179.625H57.4521C57.4521 179.959 57.5078 180.264 57.6191 180.539C57.7363 180.814 57.9004 181.049 58.1113 181.242C58.3223 181.436 58.5771 181.585 58.876 181.69C59.1807 181.796 59.5176 181.849 59.8867 181.849C60.2559 181.849 60.5898 181.802 60.8887 181.708C61.1875 181.608 61.4424 181.459 61.6533 181.26C61.8643 181.061 62.0254 180.814 62.1367 180.521C62.2539 180.223 62.3125 179.871 62.3125 179.467C62.3125 179.068 62.2451 178.726 62.1104 178.438C61.9814 178.146 61.7969 177.902 61.5566 177.709C61.3223 177.516 61.0352 177.372 60.6953 177.278C60.3613 177.185 59.9922 177.138 59.5879 177.138H58.4277V175.819Z" fill="#001AFF"/>
<path d="M73.9316 178.702H75.7158V180.029H73.9316V183H72.3057V180.029H66.4697V179.071L72.2002 170.203H73.9316V178.702ZM68.2715 178.702H72.3057V172.365L72.042 172.857L68.2715 178.702Z" fill="#001AFF"/>
<path fill-rule="evenodd" clip-rule="evenodd" d="M57.4277 174.819H59.5879C59.9099 174.819 60.1519 174.775 60.3315 174.711L60.337 174.709C60.5477 174.635 60.6884 174.546 60.7842 174.458L60.7943 174.449C60.898 174.356 60.9739 174.25 61.0279 174.119C61.0842 173.983 61.1191 173.818 61.1191 173.613C61.1191 173.03 60.9714 172.77 60.8462 172.647L60.8407 172.642C60.7068 172.508 60.443 172.363 59.8779 172.363C59.6347 172.363 59.4368 172.4 59.2735 172.46L59.2626 172.464C59.1074 172.519 58.9876 172.593 58.8905 172.684C58.7966 172.776 58.7184 172.89 58.6577 173.037C58.6031 173.169 58.5664 173.339 58.5664 173.561V174.561H54.9316V173.561C54.9316 172.942 55.0517 172.348 55.297 171.788L55.2996 171.782C55.5474 171.226 55.8963 170.739 56.343 170.33C56.7903 169.914 57.3153 169.597 57.9041 169.374C58.5188 169.138 59.1808 169.027 59.8779 169.027C60.542 169.027 61.1732 169.119 61.7621 169.314C62.356 169.506 62.8879 169.8 63.3404 170.206C63.7991 170.617 64.1466 171.121 64.3873 171.7C64.6348 172.296 64.7451 172.952 64.7451 173.648C64.7451 173.999 64.6908 174.347 64.5916 174.691C64.4874 175.051 64.3299 175.394 64.1262 175.718L64.1205 175.727C63.9803 175.946 63.817 176.15 63.634 176.343C63.9077 176.584 64.1432 176.857 64.3315 177.165C64.5573 177.524 64.7185 177.912 64.8085 178.324C64.8943 178.691 64.9385 179.061 64.9385 179.432C64.9385 180.144 64.816 180.816 64.5451 181.428C64.2846 182.016 63.917 182.527 63.4419 182.948L63.4351 182.954C62.9654 183.363 62.4186 183.668 61.8092 183.876L61.8026 183.878C61.1981 184.08 60.557 184.176 59.8867 184.176C59.2293 184.176 58.5963 184.083 57.9932 183.892L57.9899 183.891C57.3857 183.696 56.8411 183.405 56.3701 183.01C55.8969 182.614 55.5218 182.13 55.2458 181.57L55.241 181.561C54.956 180.967 54.8262 180.314 54.8262 179.625V178.625H58.4521V179.625C58.4521 179.842 58.4873 180.015 58.5429 180.156C58.6064 180.302 58.6881 180.414 58.7871 180.505C58.888 180.598 59.0219 180.681 59.2059 180.746C59.3908 180.81 59.6144 180.849 59.8867 180.849C60.1676 180.849 60.3959 180.813 60.5808 180.757C60.7492 180.699 60.872 180.622 60.9667 180.533C61.0593 180.445 61.1398 180.33 61.2019 180.166L61.2057 180.156C61.2671 180 61.3125 179.777 61.3125 179.467C61.3125 179.179 61.2636 178.988 61.2051 178.863L61.1999 178.852L61.195 178.841C61.1282 178.689 61.0402 178.577 60.9296 178.488L60.9202 178.48C60.8104 178.39 60.6551 178.305 60.4294 178.242L60.4251 178.241C60.1921 178.176 59.9155 178.138 59.5879 178.138H57.4277V174.819ZM58.876 181.69C58.5771 181.585 58.3223 181.436 58.1113 181.242C57.9004 181.049 57.7363 180.814 57.6191 180.539C57.5078 180.264 57.4521 179.959 57.4521 179.625H55.8262C55.8262 179.983 55.869 180.317 55.9545 180.625C56.0033 180.801 56.066 180.968 56.1426 181.128C56.3594 181.567 56.6494 181.939 57.0127 182.244C57.376 182.549 57.8037 182.78 58.2959 182.938C58.7939 183.097 59.3242 183.176 59.8867 183.176C60.4609 183.176 60.9941 183.094 61.4863 182.93C61.9844 182.76 62.415 182.517 62.7783 182.2C63.1416 181.878 63.4258 181.485 63.6309 181.022C63.8359 180.56 63.9385 180.029 63.9385 179.432C63.9385 179.139 63.9033 178.843 63.833 178.544C63.7686 178.245 63.6514 177.961 63.4814 177.691C63.3255 177.435 63.1166 177.203 62.8547 176.994C62.8411 176.983 62.8274 176.973 62.8135 176.962C62.5381 176.745 62.1924 176.569 61.7764 176.435C62.1221 176.288 62.418 176.106 62.6641 175.89C62.7082 175.851 62.7508 175.811 62.7921 175.772C62.9864 175.585 63.1488 175.39 63.2793 175.187C63.4375 174.935 63.5547 174.677 63.6309 174.413C63.707 174.149 63.7451 173.895 63.7451 173.648C63.7451 173.057 63.6514 172.535 63.4639 172.084C63.2764 171.633 63.0127 171.255 62.6729 170.95C62.333 170.646 61.9258 170.417 61.4512 170.265C60.9766 170.106 60.4521 170.027 59.8779 170.027C59.2861 170.027 58.7471 170.121 58.2607 170.309C57.7803 170.49 57.3672 170.742 57.0215 171.064C56.6758 171.381 56.4062 171.756 56.2129 172.189C56.1597 172.311 56.1141 172.434 56.076 172.561C55.9797 172.879 55.9316 173.212 55.9316 173.561H57.5664C57.5664 173.227 57.6221 172.925 57.7334 172.655C57.8447 172.386 58 172.154 58.1992 171.961C58.4043 171.768 58.6475 171.621 58.9287 171.521C59.2158 171.416 59.5322 171.363 59.8779 171.363C60.6104 171.363 61.167 171.554 61.5479 171.935C61.9287 172.31 62.1191 172.869 62.1191 173.613C62.1191 173.936 62.0635 174.231 61.9521 174.501C61.8408 174.771 61.6768 175.002 61.46 175.195C61.249 175.389 60.9854 175.541 60.6689 175.652C60.3584 175.764 59.998 175.819 59.5879 175.819H58.4277V177.138H59.5879C59.9922 177.138 60.3613 177.185 60.6953 177.278C61.0352 177.372 61.3223 177.516 61.5566 177.709C61.7969 177.902 61.9814 178.146 62.1104 178.438C62.2451 178.726 62.3125 179.068 62.3125 179.467C62.3125 179.871 62.2539 180.223 62.1367 180.521C62.0254 180.814 61.8643 181.061 61.6533 181.26C61.4424 181.459 61.1875 181.608 60.8887 181.708C60.5898 181.802 60.2559 181.849 59.8867 181.849C59.5176 181.849 59.1807 181.796 58.876 181.69ZM72.3057 178.702V172.365L72.042 172.857L68.2715 178.702H72.3057ZM72.2002 170.203H73.9316V178.702H75.7158V180.029H73.9316V183H72.3057V180.029H66.4697V179.071L72.2002 170.203ZM71.3057 181.029H65.4697V178.776L71.6558 169.203H74.9316V177.702H76.7158V181.029H74.9316V184H71.3057V181.029ZM70.1066 177.702H71.3057V175.844L70.1066 177.702Z" fill="white"/>
<g filter="url(#filter1_dddd)">
<path fill-rule="evenodd" clip-rule="evenodd" d="M86.7071 100.52C86.3166 100.91 85.6834 100.91 85.2929 100.52L78.9289 94.1559C78.5384 93.7654 78.5384 93.1322 78.9289 92.7417C79.3195 92.3512 79.9526 92.3512 80.3432 92.7417L85.0565 97.4551C85.2835 93.1235 86.2294 90.4154 88.5133 88.9145C89.8074 88.0642 91.4202 87.6829 93.2837 87.4974C95.138 87.3127 97.3665 87.3127 99.9548 87.3127L100 87.3127C100.774 87.3127 101.501 87.3143 102.186 87.3157C104.564 87.3208 106.424 87.3248 107.902 87.259C109.839 87.1729 110.914 86.9688 111.549 86.6224C112.062 86.3425 112.369 85.9245 112.548 84.9649C112.742 83.9299 112.746 82.48 112.746 80.3128L114.746 80.3128L114.746 80.4197C114.746 82.453 114.746 84.0923 114.514 85.3325C114.264 86.6698 113.712 87.7206 112.506 88.3781C111.423 88.9692 109.92 89.1713 107.991 89.2571C106.462 89.325 104.537 89.3209 102.147 89.3157C101.469 89.3143 100.754 89.3127 100 89.3127C97.3576 89.3127 95.2263 89.3138 93.4819 89.4875C91.7361 89.6613 90.5051 89.9988 89.6117 90.586C88.1781 91.528 87.3066 93.3366 87.0674 97.3312L91.6569 92.7417C92.0474 92.3512 92.6806 92.3512 93.0711 92.7417C93.4616 93.1322 93.4616 93.7654 93.0711 94.1559L86.7071 100.52Z" fill="black"/>
</g>
<g filter="url(#filter2_dddd)">
<path fill-rule="evenodd" clip-rule="evenodd" d="M43.7168 100.52C43.3263 100.91 42.6931 100.91 42.3026 100.52L35.9386 94.1559C35.5481 93.7654 35.5481 93.1322 35.9386 92.7417C36.3291 92.3512 36.9623 92.3512 37.3528 92.7417L42.0662 97.4551C42.2932 93.1235 43.2391 90.4154 45.523 88.9145C46.8171 88.0642 48.4299 87.6829 50.2934 87.4974C52.1476 87.3127 54.3761 87.3127 56.9645 87.3127L57.0097 87.3127C57.7834 87.3127 58.511 87.3143 59.1957 87.3157C61.5734 87.3208 63.4341 87.3248 64.912 87.259C66.8489 87.1729 67.9233 86.9688 68.5582 86.6224C69.0713 86.3425 69.3782 85.9245 69.5577 84.9649C69.7512 83.9299 69.7554 82.48 69.7554 80.3128L71.7554 80.3128L71.7554 80.4197C71.7555 82.453 71.7555 84.0923 71.5236 85.3325C71.2735 86.6698 70.7213 87.7206 69.5162 88.3781C68.4329 88.9692 66.93 89.1713 65.0008 89.2571C63.4719 89.325 61.5462 89.3209 59.1562 89.3157C58.4786 89.3143 57.7636 89.3127 57.0097 89.3127C54.3673 89.3127 52.2359 89.3138 50.4916 89.4875C48.7457 89.6613 47.5148 89.9988 46.6214 90.586C45.1878 91.528 44.3163 93.3366 44.0771 97.3312L48.6665 92.7417C49.0571 92.3512 49.6902 92.3512 50.0808 92.7417C50.4713 93.1322 50.4713 93.7654 50.0808 94.1559L43.7168 100.52Z" fill="black"/>
</g>
<path d="M16.9746 68H15.3486V57.2773L12 58.5518V57.0664L16.8428 55.2031H16.9746V68Z" fill="black"/>
<path d="M30.5449 63.1045C30.5449 63.9189 30.4512 64.6426 30.2637 65.2754C30.0762 65.9023 29.8066 66.4326 29.4551 66.8662C29.1035 67.2939 28.6729 67.6191 28.1631 67.8418C27.6533 68.0645 27.0703 68.1758 26.4141 68.1758C25.7637 68.1758 25.1807 68.0645 24.665 67.8418C24.1553 67.6191 23.7217 67.2939 23.3643 66.8662C23.0068 66.4326 22.7314 65.9023 22.5381 65.2754C22.3506 64.6426 22.2568 63.9189 22.2568 63.1045V60.1074C22.2568 59.293 22.3506 58.5723 22.5381 57.9453C22.7256 57.3125 22.9951 56.7793 23.3467 56.3457C23.7041 55.9121 24.1377 55.584 24.6475 55.3613C25.1631 55.1328 25.7461 55.0186 26.3965 55.0186C27.0527 55.0186 27.6357 55.1328 28.1455 55.3613C28.6611 55.584 29.0947 55.9121 29.4463 56.3457C29.8037 56.7793 30.0762 57.3125 30.2637 57.9453C30.4512 58.5723 30.5449 59.293 30.5449 60.1074V63.1045ZM23.8916 62.7793L28.875 58.9561C28.7812 58.1064 28.5322 57.4619 28.1279 57.0225C27.7295 56.5771 27.1523 56.3545 26.3965 56.3545C25.541 56.3545 24.9082 56.6445 24.498 57.2246C24.0938 57.7988 23.8916 58.6396 23.8916 59.7471V62.7793ZM28.9102 60.5117L23.9355 64.3174C24.0352 65.1436 24.29 65.7734 24.7002 66.207C25.1104 66.6406 25.6816 66.8574 26.4141 66.8574C27.2754 66.8574 27.9053 66.5645 28.3037 65.9785C28.708 65.3926 28.9102 64.5488 28.9102 63.4473V60.5117Z" fill="black"/>
<path d="M41.3555 63.1045C41.3555 63.9189 41.2617 64.6426 41.0742 65.2754C40.8867 65.9023 40.6172 66.4326 40.2656 66.8662C39.9141 67.2939 39.4834 67.6191 38.9736 67.8418C38.4639 68.0645 37.8809 68.1758 37.2246 68.1758C36.5742 68.1758 35.9912 68.0645 35.4756 67.8418C34.9658 67.6191 34.5322 67.2939 34.1748 66.8662C33.8174 66.4326 33.542 65.9023 33.3486 65.2754C33.1611 64.6426 33.0674 63.9189 33.0674 63.1045V60.1074C33.0674 59.293 33.1611 58.5723 33.3486 57.9453C33.5361 57.3125 33.8057 56.7793 34.1572 56.3457C34.5146 55.9121 34.9482 55.584 35.458 55.3613C35.9736 55.1328 36.5566 55.0186 37.207 55.0186C37.8633 55.0186 38.4463 55.1328 38.9561 55.3613C39.4717 55.584 39.9053 55.9121 40.2568 56.3457C40.6143 56.7793 40.8867 57.3125 41.0742 57.9453C41.2617 58.5723 41.3555 59.293 41.3555 60.1074V63.1045ZM34.7021 62.7793L39.6855 58.9561C39.5918 58.1064 39.3428 57.4619 38.9385 57.0225C38.54 56.5771 37.9629 56.3545 37.207 56.3545C36.3516 56.3545 35.7188 56.6445 35.3086 57.2246C34.9043 57.7988 34.7021 58.6396 34.7021 59.7471V62.7793ZM39.7207 60.5117L34.7461 64.3174C34.8457 65.1436 35.1006 65.7734 35.5107 66.207C35.9209 66.6406 36.4922 66.8574 37.2246 66.8574C38.0859 66.8574 38.7158 66.5645 39.1143 65.9785C39.5186 65.3926 39.7207 64.5488 39.7207 63.4473V60.5117Z" fill="black"/>
<path fill-rule="evenodd" clip-rule="evenodd" d="M17.9746 69H14.3486V58.7279L11 60.0023V56.3797L16.657 54.2031H17.9746V69ZM15.3486 57.2773V68H16.9746V55.2031H16.8428L12 57.0664V58.5518L15.3486 57.2773Z" fill="white"/>
<path d="M30.46 63.0859C30.46 63.9004 30.3662 64.624 30.1787 65.2568C29.9912 65.8838 29.7217 66.4141 29.3701 66.8477C29.0186 67.2754 28.5879 67.6006 28.0781 67.8232C27.5684 68.0459 26.9854 68.1572 26.3291 68.1572C25.6787 68.1572 25.0957 68.0459 24.5801 67.8232C24.0703 67.6006 23.6367 67.2754 23.2793 66.8477C22.9219 66.4141 22.6465 65.8838 22.4531 65.2568C22.2656 64.624 22.1719 63.9004 22.1719 63.0859V60.0889C22.1719 59.2744 22.2656 58.5537 22.4531 57.9268C22.6406 57.2939 22.9102 56.7607 23.2617 56.3271C23.6191 55.8936 24.0527 55.5654 24.5625 55.3428C25.0781 55.1143 25.6611 55 26.3115 55C26.9678 55 27.5508 55.1143 28.0605 55.3428C28.5762 55.5654 29.0098 55.8936 29.3613 56.3271C29.7188 56.7607 29.9912 57.2939 30.1787 57.9268C30.3662 58.5537 30.46 59.2744 30.46 60.0889V63.0859ZM23.8066 62.7607L28.79 58.9375C28.6963 58.0879 28.4473 57.4434 28.043 57.0039C27.6445 56.5586 27.0674 56.3359 26.3115 56.3359C25.4561 56.3359 24.8232 56.626 24.4131 57.2061C24.0088 57.7803 23.8066 58.6211 23.8066 59.7285V62.7607ZM28.8252 60.4932L23.8506 64.2988C23.9502 65.125 24.2051 65.7549 24.6152 66.1885C25.0254 66.6221 25.5967 66.8389 26.3291 66.8389C27.1904 66.8389 27.8203 66.5459 28.2188 65.96C28.623 65.374 28.8252 64.5303 28.8252 63.4287V60.4932Z" fill="black"/>
<path fill-rule="evenodd" clip-rule="evenodd" d="M31.1375 65.5409L31.1368 65.5434C30.9182 66.2742 30.5936 66.9265 30.1469 67.4775L30.1427 67.4826C29.6905 68.0328 29.132 68.4542 28.4784 68.7396C27.8218 69.0264 27.0987 69.1572 26.3291 69.1572C25.5637 69.1572 24.8427 69.0259 24.1836 68.7413L24.1798 68.7396C23.5277 68.4548 22.9685 68.0353 22.5119 67.4889L22.5077 67.4837C22.0545 66.9341 21.723 66.2826 21.4975 65.5515L21.4943 65.5409C21.2739 64.7973 21.1719 63.975 21.1719 63.0859V60.0889C21.1719 59.2005 21.2738 58.3805 21.4947 57.6414C21.7128 56.9056 22.0372 56.2496 22.485 55.6973L22.4901 55.6911C22.9459 55.1381 23.5054 54.7137 24.1598 54.4274C24.8204 54.1351 25.5438 54 26.3115 54C27.0819 54 27.806 54.134 28.4633 54.4274C29.1221 54.7131 29.6835 55.1377 30.1355 55.6941C30.5903 56.2468 30.9185 56.9039 31.1371 57.6415C31.358 58.3805 31.46 59.2005 31.46 60.0889V63.0859C31.46 63.975 31.3578 64.7973 31.1375 65.5409ZM30.1787 57.9268C29.9912 57.2939 29.7188 56.7607 29.3613 56.3271C29.0098 55.8936 28.5762 55.5654 28.0605 55.3428C27.5508 55.1143 26.9678 55 26.3115 55C25.6611 55 25.0781 55.1143 24.5625 55.3428C24.0527 55.5654 23.6191 55.8936 23.2617 56.3271C22.9102 56.7607 22.6406 57.2939 22.4531 57.9268C22.2656 58.5537 22.1719 59.2744 22.1719 60.0889V63.0859C22.1719 63.9004 22.2656 64.624 22.4531 65.2568C22.6465 65.8838 22.9219 66.4141 23.2793 66.8477C23.6367 67.2754 24.0703 67.6006 24.5801 67.8232C25.0957 68.0459 25.6787 68.1572 26.3291 68.1572C26.9854 68.1572 27.5684 68.0459 28.0781 67.8232C28.5879 67.6006 29.0186 67.2754 29.3701 66.8477C29.7217 66.4141 29.9912 65.8838 30.1787 65.2568C30.3662 64.624 30.46 63.9004 30.46 63.0859V60.0889C30.46 59.2744 30.3662 58.5537 30.1787 57.9268ZM23.8506 64.2988C23.9502 65.125 24.2051 65.7549 24.6152 66.1885C25.0254 66.6221 25.5967 66.8389 26.3291 66.8389C27.1904 66.8389 27.8203 66.5459 28.2188 65.96C28.623 65.374 28.8252 64.5303 28.8252 63.4287V60.4932L23.8506 64.2988ZM28.79 58.9375C28.6963 58.0879 28.4473 57.4434 28.043 57.0039C27.6445 56.5586 27.0674 56.3359 26.3115 56.3359C25.4561 56.3359 24.8232 56.626 24.4131 57.2061C24.0088 57.7803 23.8066 58.6211 23.8066 59.7285V62.7607L28.79 58.9375ZM24.8066 60.7332L27.7037 58.5105C27.6041 58.1057 27.4583 57.8454 27.307 57.681L27.2977 57.6708C27.1368 57.491 26.8636 57.3359 26.3115 57.3359C25.7061 57.3359 25.4133 57.524 25.2301 57.7826C24.9954 58.1166 24.8066 58.7181 24.8066 59.7285V60.7332ZM27.8252 62.5172V63.4287C27.8252 64.4307 27.6375 65.0416 27.3957 65.392L27.3918 65.3977C27.2211 65.6487 26.9407 65.8389 26.3291 65.8389C25.8046 65.8389 25.5214 65.6913 25.3417 65.5013C25.1903 65.3412 25.0464 65.0952 24.9452 64.7205L27.8252 62.5172Z" fill="white"/>
<path d="M41.46 63.0859C41.46 63.9004 41.3662 64.624 41.1787 65.2568C40.9912 65.8838 40.7217 66.4141 40.3701 66.8477C40.0186 67.2754 39.5879 67.6006 39.0781 67.8232C38.5684 68.0459 37.9854 68.1572 37.3291 68.1572C36.6787 68.1572 36.0957 68.0459 35.5801 67.8232C35.0703 67.6006 34.6367 67.2754 34.2793 66.8477C33.9219 66.4141 33.6465 65.8838 33.4531 65.2568C33.2656 64.624 33.1719 63.9004 33.1719 63.0859V60.0889C33.1719 59.2744 33.2656 58.5537 33.4531 57.9268C33.6406 57.2939 33.9102 56.7607 34.2617 56.3271C34.6191 55.8936 35.0527 55.5654 35.5625 55.3428C36.0781 55.1143 36.6611 55 37.3115 55C37.9678 55 38.5508 55.1143 39.0605 55.3428C39.5762 55.5654 40.0098 55.8936 40.3613 56.3271C40.7188 56.7607 40.9912 57.2939 41.1787 57.9268C41.3662 58.5537 41.46 59.2744 41.46 60.0889V63.0859ZM34.8066 62.7607L39.79 58.9375C39.6963 58.0879 39.4473 57.4434 39.043 57.0039C38.6445 56.5586 38.0674 56.3359 37.3115 56.3359C36.4561 56.3359 35.8232 56.626 35.4131 57.2061C35.0088 57.7803 34.8066 58.6211 34.8066 59.7285V62.7607ZM39.8252 60.4932L34.8506 64.2988C34.9502 65.125 35.2051 65.7549 35.6152 66.1885C36.0254 66.6221 36.5967 66.8389 37.3291 66.8389C38.1904 66.8389 38.8203 66.5459 39.2188 65.96C39.623 65.374 39.8252 64.5303 39.8252 63.4287V60.4932Z" fill="black"/>
<path fill-rule="evenodd" clip-rule="evenodd" d="M42.1375 65.5409L42.1368 65.5434C41.9182 66.2742 41.5936 66.9265 41.1469 67.4775L41.1427 67.4826C40.6905 68.0328 40.132 68.4542 39.4784 68.7396C38.8218 69.0264 38.0987 69.1572 37.3291 69.1572C36.5637 69.1572 35.8427 69.0259 35.1836 68.7413L35.1798 68.7396C34.5277 68.4548 33.9685 68.0353 33.5119 67.4889L33.5077 67.4837C33.0545 66.9341 32.723 66.2826 32.4975 65.5515L32.4943 65.5409C32.2739 64.7973 32.1719 63.975 32.1719 63.0859V60.0889C32.1719 59.2005 32.2738 58.3805 32.4947 57.6414C32.7128 56.9056 33.0372 56.2496 33.485 55.6973L33.4901 55.6911C33.9459 55.1381 34.5054 54.7137 35.1598 54.4274C35.8204 54.1351 36.5438 54 37.3115 54C38.0819 54 38.806 54.134 39.4633 54.4274C40.1221 54.7131 40.6835 55.1377 41.1355 55.6941C41.5903 56.2468 41.9185 56.9039 42.1371 57.6415C42.358 58.3805 42.46 59.2005 42.46 60.0889V63.0859C42.46 63.975 42.3578 64.7973 42.1375 65.5409ZM41.1787 57.9268C40.9912 57.2939 40.7188 56.7607 40.3613 56.3271C40.0098 55.8936 39.5762 55.5654 39.0605 55.3428C38.5508 55.1143 37.9678 55 37.3115 55C36.6611 55 36.0781 55.1143 35.5625 55.3428C35.0527 55.5654 34.6191 55.8936 34.2617 56.3271C33.9102 56.7607 33.6406 57.2939 33.4531 57.9268C33.2656 58.5537 33.1719 59.2744 33.1719 60.0889V63.0859C33.1719 63.9004 33.2656 64.624 33.4531 65.2568C33.6465 65.8838 33.9219 66.4141 34.2793 66.8477C34.6367 67.2754 35.0703 67.6006 35.5801 67.8232C36.0957 68.0459 36.6787 68.1572 37.3291 68.1572C37.9854 68.1572 38.5684 68.0459 39.0781 67.8232C39.5879 67.6006 40.0186 67.2754 40.3701 66.8477C40.7217 66.4141 40.9912 65.8838 41.1787 65.2568C41.3662 64.624 41.46 63.9004 41.46 63.0859V60.0889C41.46 59.2744 41.3662 58.5537 41.1787 57.9268ZM34.8506 64.2988C34.9502 65.125 35.2051 65.7549 35.6152 66.1885C36.0254 66.6221 36.5967 66.8389 37.3291 66.8389C38.1904 66.8389 38.8203 66.5459 39.2188 65.96C39.623 65.374 39.8252 64.5303 39.8252 63.4287V60.4932L34.8506 64.2988ZM39.79 58.9375C39.6963 58.0879 39.4473 57.4434 39.043 57.0039C38.6445 56.5586 38.0674 56.3359 37.3115 56.3359C36.4561 56.3359 35.8232 56.626 35.4131 57.2061C35.0088 57.7803 34.8066 58.6211 34.8066 59.7285V62.7607L39.79 58.9375ZM35.8066 60.7332L38.7037 58.5105C38.6041 58.1057 38.4583 57.8454 38.307 57.681L38.2977 57.6708C38.1368 57.491 37.8636 57.3359 37.3115 57.3359C36.7061 57.3359 36.4133 57.524 36.2301 57.7826C35.9954 58.1166 35.8066 58.7181 35.8066 59.7285V60.7332ZM38.8252 62.5172V63.4287C38.8252 64.4307 38.6375 65.0416 38.3957 65.392L38.3918 65.3977C38.2211 65.6487 37.9407 65.8389 37.3291 65.8389C36.8046 65.8389 36.5214 65.6913 36.3417 65.5013C36.1903 65.3412 36.0464 65.0952 35.9452 64.7205L38.8252 62.5172Z" fill="white"/>
<path d="M64.9746 68H63.3486V57.2773L60 58.5518V57.0664L64.8428 55.2031H64.9746V68Z" fill="black"/>
<path fill-rule="evenodd" clip-rule="evenodd" d="M65.9746 69H62.3486V58.7279L59 60.0023V56.3797L64.657 54.2031H65.9746V69ZM63.3486 57.2773V68H64.9746V55.2031H64.8428L60 57.0664V58.5518L63.3486 57.2773Z" fill="white"/>
<path d="M78.46 63.0859C78.46 63.9004 78.3662 64.624 78.1787 65.2568C77.9912 65.8838 77.7217 66.4141 77.3701 66.8477C77.0186 67.2754 76.5879 67.6006 76.0781 67.8232C75.5684 68.0459 74.9854 68.1572 74.3291 68.1572C73.6787 68.1572 73.0957 68.0459 72.5801 67.8232C72.0703 67.6006 71.6367 67.2754 71.2793 66.8477C70.9219 66.4141 70.6465 65.8838 70.4531 65.2568C70.2656 64.624 70.1719 63.9004 70.1719 63.0859V60.0889C70.1719 59.2744 70.2656 58.5537 70.4531 57.9268C70.6406 57.2939 70.9102 56.7607 71.2617 56.3271C71.6191 55.8936 72.0527 55.5654 72.5625 55.3428C73.0781 55.1143 73.6611 55 74.3115 55C74.9678 55 75.5508 55.1143 76.0605 55.3428C76.5762 55.5654 77.0098 55.8936 77.3613 56.3271C77.7188 56.7607 77.9912 57.2939 78.1787 57.9268C78.3662 58.5537 78.46 59.2744 78.46 60.0889V63.0859ZM71.8066 62.7607L76.79 58.9375C76.6963 58.0879 76.4473 57.4434 76.043 57.0039C75.6445 56.5586 75.0674 56.3359 74.3115 56.3359C73.4561 56.3359 72.8232 56.626 72.4131 57.2061C72.0088 57.7803 71.8066 58.6211 71.8066 59.7285V62.7607ZM76.8252 60.4932L71.8506 64.2988C71.9502 65.125 72.2051 65.7549 72.6152 66.1885C73.0254 66.6221 73.5967 66.8389 74.3291 66.8389C75.1904 66.8389 75.8203 66.5459 76.2188 65.96C76.623 65.374 76.8252 64.5303 76.8252 63.4287V60.4932Z" fill="black"/>
<path fill-rule="evenodd" clip-rule="evenodd" d="M79.1375 65.5409L79.1368 65.5434C78.9182 66.2742 78.5936 66.9265 78.1469 67.4775L78.1427 67.4826C77.6905 68.0328 77.132 68.4542 76.4784 68.7396C75.8218 69.0264 75.0987 69.1572 74.3291 69.1572C73.5637 69.1572 72.8427 69.0259 72.1836 68.7413L72.1798 68.7396C71.5277 68.4548 70.9685 68.0353 70.5119 67.4889L70.5077 67.4837C70.0545 66.9341 69.723 66.2826 69.4975 65.5515L69.4943 65.5409C69.2739 64.7973 69.1719 63.975 69.1719 63.0859V60.0889C69.1719 59.2005 69.2738 58.3805 69.4947 57.6414C69.7128 56.9056 70.0372 56.2496 70.485 55.6973L70.4901 55.6911C70.9459 55.1381 71.5054 54.7137 72.1598 54.4274C72.8204 54.1351 73.5438 54 74.3115 54C75.0819 54 75.806 54.134 76.4633 54.4274C77.1221 54.7131 77.6835 55.1377 78.1355 55.6941C78.5903 56.2468 78.9185 56.9039 79.1371 57.6415C79.358 58.3805 79.46 59.2005 79.46 60.0889V63.0859C79.46 63.975 79.3578 64.7973 79.1375 65.5409ZM78.1787 57.9268C77.9912 57.2939 77.7188 56.7607 77.3613 56.3271C77.0098 55.8936 76.5762 55.5654 76.0605 55.3428C75.5508 55.1143 74.9678 55 74.3115 55C73.6611 55 73.0781 55.1143 72.5625 55.3428C72.0527 55.5654 71.6191 55.8936 71.2617 56.3271C70.9102 56.7607 70.6406 57.2939 70.4531 57.9268C70.2656 58.5537 70.1719 59.2744 70.1719 60.0889V63.0859C70.1719 63.9004 70.2656 64.624 70.4531 65.2568C70.6465 65.8838 70.9219 66.4141 71.2793 66.8477C71.6367 67.2754 72.0703 67.6006 72.5801 67.8232C73.0957 68.0459 73.6787 68.1572 74.3291 68.1572C74.9854 68.1572 75.5684 68.0459 76.0781 67.8232C76.5879 67.6006 77.0186 67.2754 77.3701 66.8477C77.7217 66.4141 77.9912 65.8838 78.1787 65.2568C78.3662 64.624 78.46 63.9004 78.46 63.0859V60.0889C78.46 59.2744 78.3662 58.5537 78.1787 57.9268ZM71.8506 64.2988C71.9502 65.125 72.2051 65.7549 72.6152 66.1885C73.0254 66.6221 73.5967 66.8389 74.3291 66.8389C75.1904 66.8389 75.8203 66.5459 76.2188 65.96C76.623 65.374 76.8252 64.5303 76.8252 63.4287V60.4932L71.8506 64.2988ZM76.79 58.9375C76.6963 58.0879 76.4473 57.4434 76.043 57.0039C75.6445 56.5586 75.0674 56.3359 74.3115 56.3359C73.4561 56.3359 72.8232 56.626 72.4131 57.2061C72.0088 57.7803 71.8066 58.6211 71.8066 59.7285V62.7607L76.79 58.9375ZM72.8066 60.7332L75.7037 58.5105C75.6041 58.1057 75.4583 57.8454 75.307 57.681L75.2977 57.6708C75.1368 57.491 74.8636 57.3359 74.3115 57.3359C73.7061 57.3359 73.4133 57.524 73.2301 57.7826C72.9954 58.1166 72.8066 58.7181 72.8066 59.7285V60.7332ZM75.8252 62.5172V63.4287C75.8252 64.4307 75.6375 65.0416 75.3957 65.392L75.3918 65.3977C75.2211 65.6487 74.9407 65.8389 74.3291 65.8389C73.8046 65.8389 73.5214 65.6913 73.3417 65.5013C73.1903 65.3412 73.0464 65.0952 72.9452 64.7205L75.8252 62.5172Z" fill="white"/>
<defs>
<filter id="filter0_dddd" x="57.636" y="139" width="16.7279" height="20" filterUnits="userSpaceOnUse" color-interpolation-filters="sRGB">
<feFlood flood-opacity="0" result="BackgroundImageFix"/>
<feColorMatrix in="SourceAlpha" type="matrix" values="0 0 0 0 0 0 0 0 0 0 0 0 0 0 0 0 0 0 127 0"/>
<feOffset dy="-1"/>
<feColorMatrix type="matrix" values="0 0 0 0 1 0 0 0 0 1 0 0 0 0 1 0 0 0 1 0"/>
<feBlend mode="normal" in2="BackgroundImageFix" result="effect1_dropShadow"/>
<feColorMatrix in="SourceAlpha" type="matrix" values="0 0 0 0 0 0 0 0 0 0 0 0 0 0 0 0 0 0 127 0"/>
<feOffset dy="1"/>
<feColorMatrix type="matrix" values="0 0 0 0 1 0 0 0 0 1 0 0 0 0 1 0 0 0 1 0"/>
<feBlend mode="normal" in2="effect1_dropShadow" result="effect2_dropShadow"/>
<feColorMatrix in="SourceAlpha" type="matrix" values="0 0 0 0 0 0 0 0 0 0 0 0 0 0 0 0 0 0 127 0"/>
<feOffset dx="1"/>
<feColorMatrix type="matrix" values="0 0 0 0 1 0 0 0 0 1 0 0 0 0 1 0 0 0 1 0"/>
<feBlend mode="normal" in2="effect2_dropShadow" result="effect3_dropShadow"/>
<feColorMatrix in="SourceAlpha" type="matrix" values="0 0 0 0 0 0 0 0 0 0 0 0 0 0 0 0 0 0 127 0"/>
<feOffset dx="-1"/>
<feColorMatrix type="matrix" values="0 0 0 0 1 0 0 0 0 1 0 0 0 0 1 0 0 0 1 0"/>
<feBlend mode="normal" in2="effect3_dropShadow" result="effect4_dropShadow"/>
<feBlend mode="normal" in="SourceGraphic" in2="effect4_dropShadow" result="shape"/>
</filter>
<filter id="filter1_dddd" x="77.636" y="79.3128" width="38.1097" height="22.5" filterUnits="userSpaceOnUse" color-interpolation-filters="sRGB">
<feFlood flood-opacity="0" result="BackgroundImageFix"/>
<feColorMatrix in="SourceAlpha" type="matrix" values="0 0 0 0 0 0 0 0 0 0 0 0 0 0 0 0 0 0 127 0"/>
<feOffset dy="-1"/>
<feColorMatrix type="matrix" values="0 0 0 0 1 0 0 0 0 1 0 0 0 0 1 0 0 0 1 0"/>
<feBlend mode="normal" in2="BackgroundImageFix" result="effect1_dropShadow"/>
<feColorMatrix in="SourceAlpha" type="matrix" values="0 0 0 0 0 0 0 0 0 0 0 0 0 0 0 0 0 0 127 0"/>
<feOffset dy="1"/>
<feColorMatrix type="matrix" values="0 0 0 0 1 0 0 0 0 1 0 0 0 0 1 0 0 0 1 0"/>
<feBlend mode="normal" in2="effect1_dropShadow" result="effect2_dropShadow"/>
<feColorMatrix in="SourceAlpha" type="matrix" values="0 0 0 0 0 0 0 0 0 0 0 0 0 0 0 0 0 0 127 0"/>
<feOffset dx="1"/>
<feColorMatrix type="matrix" values="0 0 0 0 1 0 0 0 0 1 0 0 0 0 1 0 0 0 1 0"/>
<feBlend mode="normal" in2="effect2_dropShadow" result="effect3_dropShadow"/>
<feColorMatrix in="SourceAlpha" type="matrix" values="0 0 0 0 0 0 0 0 0 0 0 0 0 0 0 0 0 0 127 0"/>
<feOffset dx="-1"/>
<feColorMatrix type="matrix" values="0 0 0 0 1 0 0 0 0 1 0 0 0 0 1 0 0 0 1 0"/>
<feBlend mode="normal" in2="effect3_dropShadow" result="effect4_dropShadow"/>
<feBlend mode="normal" in="SourceGraphic" in2="effect4_dropShadow" result="shape"/>
</filter>
<filter id="filter2_dddd" x="34.6457" y="79.3128" width="38.1097" height="22.5" filterUnits="userSpaceOnUse" color-interpolation-filters="sRGB">
<feFlood flood-opacity="0" result="BackgroundImageFix"/>
<feColorMatrix in="SourceAlpha" type="matrix" values="0 0 0 0 0 0 0 0 0 0 0 0 0 0 0 0 0 0 127 0"/>
<feOffset dy="-1"/>
<feColorMatrix type="matrix" values="0 0 0 0 1 0 0 0 0 1 0 0 0 0 1 0 0 0 1 0"/>
<feBlend mode="normal" in2="BackgroundImageFix" result="effect1_dropShadow"/>
<feColorMatrix in="SourceAlpha" type="matrix" values="0 0 0 0 0 0 0 0 0 0 0 0 0 0 0 0 0 0 127 0"/>
<feOffset dy="1"/>
<feColorMatrix type="matrix" values="0 0 0 0 1 0 0 0 0 1 0 0 0 0 1 0 0 0 1 0"/>
<feBlend mode="normal" in2="effect1_dropShadow" result="effect2_dropShadow"/>
<feColorMatrix in="SourceAlpha" type="matrix" values="0 0 0 0 0 0 0 0 0 0 0 0 0 0 0 0 0 0 127 0"/>
<feOffset dx="1"/>
<feColorMatrix type="matrix" values="0 0 0 0 1 0 0 0 0 1 0 0 0 0 1 0 0 0 1 0"/>
<feBlend mode="normal" in2="effect2_dropShadow" result="effect3_dropShadow"/>
<feColorMatrix in="SourceAlpha" type="matrix" values="0 0 0 0 0 0 0 0 0 0 0 0 0 0 0 0 0 0 127 0"/>
<feOffset dx="-1"/>
<feColorMatrix type="matrix" values="0 0 0 0 1 0 0 0 0 1 0 0 0 0 1 0 0 0 1 0"/>
<feBlend mode="normal" in2="effect3_dropShadow" result="effect4_dropShadow"/>
<feBlend mode="normal" in="SourceGraphic" in2="effect4_dropShadow" result="shape"/>
</filter>
</defs>
</svg>
