<svg width="81" height="184" viewBox="0 0 81 184" fill="none" xmlns="http://www.w3.org/2000/svg">
<path d="M65.4492 33H60.5098V13.3652L54.041 15.6855V11.4316L65.1855 7.40625H65.4492V33Z" fill="#C84646"/>
<path fill-rule="evenodd" clip-rule="evenodd" d="M66.4492 34H59.5098V14.7863L53.041 17.1066V10.7296L65.0105 6.40625H66.4492V34ZM60.5098 13.3652V33H65.4492V7.40625H65.1855L54.041 11.4316V15.6855L60.5098 13.3652Z" fill="white"/>
<path d="M69.6328 45.8145H53.6016V42H69.6328V45.8145Z" fill="black"/>
<path fill-rule="evenodd" clip-rule="evenodd" d="M70.6328 46.8145H52.6016V41H70.6328V46.8145ZM69.6328 45.8145V42H53.6016V45.8145H69.6328Z" fill="white"/>
<path d="M63.8027 68H62.1768V57.2773L58.8281 58.5518V57.0664L63.6709 55.2031H63.8027V68Z" fill="black"/>
<path fill-rule="evenodd" clip-rule="evenodd" d="M64.8027 69H61.1768V58.7279L57.8281 60.0023V56.3797L63.4852 54.2031H64.8027V69ZM62.1768 57.2773V68H63.8027V55.2031H63.6709L58.8281 57.0664V58.5518L62.1768 57.2773Z" fill="white"/>
<path d="M22.4492 33H17.5098V13.3652L11.041 15.6855V11.4316L22.1855 7.40625H22.4492V33Z" fill="#C84646"/>
<path fill-rule="evenodd" clip-rule="evenodd" d="M23.4492 34H16.5098V14.7863L10.041 17.1066V10.7296L22.0105 6.40625H23.4492V34ZM17.5098 13.3652V33H22.4492V7.40625H22.1855L11.041 11.4316V15.6855L17.5098 13.3652Z" fill="white"/>
<path d="M26.6328 45.8145H10.6016V42H26.6328V45.8145Z" fill="black"/>
<path fill-rule="evenodd" clip-rule="evenodd" d="M27.6328 46.8145H9.60156V41H27.6328V46.8145ZM26.6328 45.8145V42H10.6016V45.8145H26.6328Z" fill="white"/>
<path d="M23.3779 68H14.9932V66.8311L19.1855 62.1729C19.5605 61.7568 19.874 61.3877 20.126 61.0654C20.3779 60.7432 20.5801 60.4473 20.7324 60.1777C20.8848 59.9023 20.9932 59.6445 21.0576 59.4043C21.1221 59.1582 21.1543 58.9062 21.1543 58.6484C21.1543 58.332 21.1016 58.0361 20.9961 57.7607C20.8965 57.4795 20.7471 57.2363 20.5479 57.0312C20.3545 56.8262 20.1172 56.665 19.8359 56.5479C19.5605 56.4248 19.2471 56.3633 18.8955 56.3633C18.4678 56.3633 18.0957 56.4248 17.7793 56.5479C17.4688 56.6709 17.208 56.8467 16.9971 57.0752C16.792 57.2979 16.6367 57.5703 16.5312 57.8926C16.4316 58.2148 16.3818 58.5752 16.3818 58.9736H14.7471C14.7471 58.4346 14.8408 57.9277 15.0283 57.4531C15.2158 56.9727 15.4854 56.5537 15.8369 56.1963C16.1943 55.8389 16.6279 55.5547 17.1377 55.3438C17.6533 55.1328 18.2393 55.0273 18.8955 55.0273C19.499 55.0273 20.041 55.1182 20.5215 55.2998C21.0078 55.4756 21.418 55.7217 21.752 56.0381C22.0859 56.3545 22.3408 56.7295 22.5166 57.1631C22.6982 57.5967 22.7891 58.0684 22.7891 58.5781C22.7891 58.959 22.7246 59.3369 22.5957 59.7119C22.4668 60.0811 22.291 60.4473 22.0684 60.8105C21.8516 61.1738 21.5967 61.5342 21.3037 61.8916C21.0166 62.2432 20.7119 62.5947 20.3896 62.9463L16.9531 66.6729H23.3779V68Z" fill="black"/>
<path fill-rule="evenodd" clip-rule="evenodd" d="M24.3779 69H13.9932V66.4473L18.4423 61.5039C18.8069 61.0994 19.1047 60.7481 19.3382 60.4495C19.5672 60.1566 19.7382 59.9038 19.8596 59.6896C19.9804 59.4707 20.0523 59.291 20.091 59.148C20.133 58.9867 20.1543 58.8209 20.1543 58.6484C20.1543 58.4453 20.1209 58.2715 20.0622 58.1184L20.0577 58.1065L20.0535 58.0946C19.9998 57.9431 19.925 57.8253 19.8306 57.728L19.8254 57.7227L19.8203 57.7173C19.7309 57.6225 19.6135 57.5385 19.4513 57.4709L19.4396 57.466L19.428 57.4609C19.3005 57.4039 19.1296 57.3633 18.8955 57.3633C18.5627 57.3633 18.3196 57.4112 18.1446 57.4787C17.9648 57.5504 17.8335 57.6435 17.7323 57.753C17.6367 57.8569 17.5501 57.9976 17.4842 58.1958C17.4204 58.4055 17.3818 58.6616 17.3818 58.9736V59.9736H13.7471V58.9736C13.7471 58.3167 13.8617 57.6852 14.0975 57.0877C14.3328 56.4855 14.6751 55.9514 15.124 55.495L15.1298 55.4892C15.5883 55.0306 16.1353 54.6763 16.7553 54.4197L16.7591 54.4182C17.4142 54.1502 18.1321 54.0273 18.8955 54.0273C19.5965 54.0273 20.2588 54.1325 20.8682 54.3618C21.4652 54.5785 21.9958 54.8916 22.4397 55.3121C22.8779 55.7273 23.2127 56.2205 23.4412 56.7821C23.6767 57.3465 23.7891 57.949 23.7891 58.5781C23.7891 59.0741 23.7048 59.5617 23.5414 60.037L23.5398 60.0416C23.386 60.482 23.1793 60.9109 22.9241 61.328C22.6805 61.7356 22.3977 62.1344 22.0777 62.5248C21.7781 62.8916 21.4611 63.2573 21.1268 63.622L21.1248 63.6242L19.2356 65.6729H24.3779V69ZM16.9531 66.6729L20.3896 62.9463C20.7119 62.5947 21.0166 62.2432 21.3037 61.8916C21.5967 61.5342 21.8516 61.1738 22.0684 60.8105C22.291 60.4473 22.4668 60.0811 22.5957 59.7119C22.7246 59.3369 22.7891 58.959 22.7891 58.5781C22.7891 58.0684 22.6982 57.5967 22.5166 57.1631C22.3408 56.7295 22.0859 56.3545 21.752 56.0381C21.418 55.7217 21.0078 55.4756 20.5215 55.2998C20.041 55.1182 19.499 55.0273 18.8955 55.0273C18.2393 55.0273 17.6533 55.1328 17.1377 55.3438C16.6279 55.5547 16.1943 55.8389 15.8369 56.1963C15.4854 56.5537 15.2158 56.9727 15.0283 57.4531C14.9614 57.6225 14.9064 57.796 14.8634 57.9736C14.7858 58.2936 14.7471 58.627 14.7471 58.9736H16.3818C16.3818 58.5752 16.4316 58.2148 16.5312 57.8926C16.6367 57.5703 16.792 57.2979 16.9971 57.0752C17.208 56.8467 17.4688 56.6709 17.7793 56.5479C18.0957 56.4248 18.4678 56.3633 18.8955 56.3633C19.2471 56.3633 19.5605 56.4248 19.8359 56.5479C20.1172 56.665 20.3545 56.8262 20.5479 57.0312C20.7471 57.2363 20.8965 57.4795 20.9961 57.7607C21.1016 58.0361 21.1543 58.332 21.1543 58.6484C21.1543 58.9062 21.1221 59.1582 21.0576 59.4043C20.9932 59.6445 20.8848 59.9023 20.7324 60.1777C20.5801 60.4473 20.3779 60.7432 20.126 61.0654C19.874 61.3877 19.5605 61.7568 19.1855 62.1729L14.9932 66.8311V68H23.3779V66.6729H16.9531Z" fill="white"/>
<g filter="url(#filter0_dddd)">
<path fill-rule="evenodd" clip-rule="evenodd" d="M26.0711 92.3431L19.7071 98.7071C19.3166 99.0976 18.6834 99.0976 18.2929 98.7071L11.9289 92.3431C11.5384 91.9526 11.5384 91.3195 11.9289 90.9289C12.3194 90.5384 12.9526 90.5384 13.3431 90.9289L18 95.5858L18 81L20 81L20 95.5858L24.6568 90.9289C25.0474 90.5384 25.6805 90.5384 26.0711 90.9289C26.4616 91.3195 26.4616 91.9526 26.0711 92.3431Z" fill="black"/>
</g>
<g filter="url(#filter1_dddd)">
<path fill-rule="evenodd" clip-rule="evenodd" d="M69.0711 92.3431L62.7071 98.7071C62.3166 99.0976 61.6834 99.0976 61.2929 98.7071L54.9289 92.3431C54.5384 91.9526 54.5384 91.3195 54.9289 90.9289C55.3194 90.5384 55.9526 90.5384 56.3431 90.9289L61 95.5858L61 81L63 81L63 95.5858L67.6568 90.9289C68.0474 90.5384 68.6805 90.5384 69.0711 90.9289C69.4616 91.3195 69.4616 91.9526 69.0711 92.3431Z" fill="black"/>
</g>
<path d="M38.4277 172.819H39.5879C39.998 172.819 40.3584 172.764 40.6689 172.652C40.9854 172.541 41.249 172.389 41.46 172.195C41.6768 172.002 41.8408 171.771 41.9521 171.501C42.0635 171.231 42.1191 170.936 42.1191 170.613C42.1191 169.869 41.9287 169.31 41.5479 168.935C41.167 168.554 40.6104 168.363 39.8779 168.363C39.5322 168.363 39.2158 168.416 38.9287 168.521C38.6475 168.621 38.4043 168.768 38.1992 168.961C38 169.154 37.8447 169.386 37.7334 169.655C37.6221 169.925 37.5664 170.227 37.5664 170.561H35.9316C35.9316 170.074 36.0254 169.617 36.2129 169.189C36.4062 168.756 36.6758 168.381 37.0215 168.064C37.3672 167.742 37.7803 167.49 38.2607 167.309C38.7471 167.121 39.2861 167.027 39.8779 167.027C40.4521 167.027 40.9766 167.106 41.4512 167.265C41.9258 167.417 42.333 167.646 42.6729 167.95C43.0127 168.255 43.2764 168.633 43.4639 169.084C43.6514 169.535 43.7451 170.057 43.7451 170.648C43.7451 170.895 43.707 171.149 43.6309 171.413C43.5547 171.677 43.4375 171.935 43.2793 172.187C43.1211 172.433 42.916 172.667 42.6641 172.89C42.418 173.106 42.1221 173.288 41.7764 173.435C42.1924 173.569 42.5381 173.745 42.8135 173.962C43.0947 174.179 43.3174 174.422 43.4814 174.691C43.6514 174.961 43.7686 175.245 43.833 175.544C43.9033 175.843 43.9385 176.139 43.9385 176.432C43.9385 177.029 43.8359 177.56 43.6309 178.022C43.4258 178.485 43.1416 178.878 42.7783 179.2C42.415 179.517 41.9844 179.76 41.4863 179.93C40.9941 180.094 40.4609 180.176 39.8867 180.176C39.3242 180.176 38.7939 180.097 38.2959 179.938C37.8037 179.78 37.376 179.549 37.0127 179.244C36.6494 178.939 36.3594 178.567 36.1426 178.128C35.9316 177.688 35.8262 177.188 35.8262 176.625H37.4521C37.4521 176.959 37.5078 177.264 37.6191 177.539C37.7363 177.814 37.9004 178.049 38.1113 178.242C38.3223 178.436 38.5771 178.585 38.876 178.69C39.1807 178.796 39.5176 178.849 39.8867 178.849C40.2559 178.849 40.5898 178.802 40.8887 178.708C41.1875 178.608 41.4424 178.459 41.6533 178.26C41.8643 178.061 42.0254 177.814 42.1367 177.521C42.2539 177.223 42.3125 176.871 42.3125 176.467C42.3125 176.068 42.2451 175.726 42.1104 175.438C41.9814 175.146 41.7969 174.902 41.5566 174.709C41.3223 174.516 41.0352 174.372 40.6953 174.278C40.3613 174.185 39.9922 174.138 39.5879 174.138H38.4277V172.819Z" fill="#001AFF"/>
<path fill-rule="evenodd" clip-rule="evenodd" d="M37.4277 171.819H39.5879C39.9099 171.819 40.1519 171.775 40.3315 171.711L40.337 171.709C40.5477 171.635 40.6884 171.546 40.7842 171.458L40.7943 171.449C40.898 171.356 40.9739 171.25 41.0279 171.119C41.0842 170.983 41.1191 170.818 41.1191 170.613C41.1191 170.03 40.9714 169.77 40.8462 169.647L40.8407 169.642C40.7068 169.508 40.443 169.363 39.8779 169.363C39.6347 169.363 39.4368 169.4 39.2735 169.46L39.2626 169.464C39.1074 169.519 38.9876 169.593 38.8905 169.684C38.7966 169.776 38.7184 169.89 38.6577 170.037C38.6031 170.169 38.5664 170.339 38.5664 170.561V171.561H34.9316V170.561C34.9316 169.942 35.0517 169.348 35.297 168.788L35.2996 168.782C35.5474 168.226 35.8963 167.739 36.343 167.33C36.7903 166.914 37.3153 166.597 37.9041 166.374C38.5188 166.138 39.1808 166.027 39.8779 166.027C40.542 166.027 41.1732 166.119 41.7621 166.314C42.356 166.506 42.8879 166.8 43.3404 167.206C43.7991 167.617 44.1466 168.121 44.3873 168.7C44.6348 169.296 44.7451 169.952 44.7451 170.648C44.7451 170.999 44.6908 171.347 44.5916 171.691C44.4874 172.051 44.3299 172.394 44.1262 172.718L44.1205 172.727C43.9803 172.946 43.817 173.15 43.634 173.343C43.9077 173.584 44.1432 173.857 44.3315 174.165C44.5573 174.524 44.7185 174.912 44.8085 175.324C44.8943 175.691 44.9385 176.061 44.9385 176.432C44.9385 177.144 44.816 177.816 44.5451 178.428C44.2846 179.016 43.917 179.527 43.4419 179.948L43.4351 179.954C42.9654 180.363 42.4186 180.668 41.8092 180.876L41.8026 180.878C41.1981 181.08 40.557 181.176 39.8867 181.176C39.2293 181.176 38.5963 181.083 37.9932 180.892L37.9899 180.891C37.3857 180.696 36.8411 180.405 36.3701 180.01C35.8969 179.614 35.5218 179.13 35.2458 178.57L35.241 178.561C34.956 177.967 34.8262 177.314 34.8262 176.625V175.625H38.4521V176.625C38.4521 176.842 38.4873 177.015 38.5429 177.156C38.6064 177.302 38.6881 177.414 38.7871 177.505C38.888 177.598 39.0219 177.681 39.2059 177.746C39.3908 177.81 39.6144 177.849 39.8867 177.849C40.1676 177.849 40.3959 177.813 40.5808 177.757C40.7492 177.699 40.872 177.622 40.9667 177.533C41.0593 177.445 41.1398 177.33 41.2019 177.166L41.2057 177.156C41.2671 177 41.3125 176.777 41.3125 176.467C41.3125 176.179 41.2636 175.988 41.2051 175.863L41.1999 175.852L41.195 175.841C41.1282 175.689 41.0402 175.577 40.9296 175.488L40.9202 175.48C40.8104 175.39 40.6551 175.305 40.4294 175.242L40.4251 175.241C40.1921 175.176 39.9155 175.138 39.5879 175.138H37.4277V171.819ZM38.876 178.69C38.5771 178.585 38.3223 178.436 38.1113 178.242C37.9004 178.049 37.7363 177.814 37.6191 177.539C37.5078 177.264 37.4521 176.959 37.4521 176.625H35.8262C35.8262 176.983 35.869 177.317 35.9545 177.625C36.0033 177.801 36.066 177.968 36.1426 178.128C36.3594 178.567 36.6494 178.939 37.0127 179.244C37.376 179.549 37.8037 179.78 38.2959 179.938C38.7939 180.097 39.3242 180.176 39.8867 180.176C40.4609 180.176 40.9941 180.094 41.4863 179.93C41.9844 179.76 42.415 179.517 42.7783 179.2C43.1416 178.878 43.4258 178.485 43.6309 178.022C43.8359 177.56 43.9385 177.029 43.9385 176.432C43.9385 176.139 43.9033 175.843 43.833 175.544C43.7686 175.245 43.6514 174.961 43.4814 174.691C43.3255 174.435 43.1166 174.203 42.8547 173.994C42.8411 173.983 42.8274 173.973 42.8135 173.962C42.5381 173.745 42.1924 173.569 41.7764 173.435C42.1221 173.288 42.418 173.106 42.6641 172.89C42.7082 172.851 42.7508 172.811 42.7921 172.772C42.9864 172.585 43.1488 172.39 43.2793 172.187C43.4375 171.935 43.5547 171.677 43.6309 171.413C43.707 171.149 43.7451 170.895 43.7451 170.648C43.7451 170.057 43.6514 169.535 43.4639 169.084C43.2764 168.633 43.0127 168.255 42.6729 167.95C42.333 167.646 41.9258 167.417 41.4512 167.265C40.9766 167.106 40.4521 167.027 39.8779 167.027C39.2861 167.027 38.7471 167.121 38.2607 167.309C37.7803 167.49 37.3672 167.742 37.0215 168.064C36.6758 168.381 36.4062 168.756 36.2129 169.189C36.1597 169.311 36.1141 169.434 36.076 169.561C35.9797 169.879 35.9316 170.212 35.9316 170.561H37.5664C37.5664 170.227 37.6221 169.925 37.7334 169.655C37.8447 169.386 38 169.154 38.1992 168.961C38.4043 168.768 38.6475 168.621 38.9287 168.521C39.2158 168.416 39.5322 168.363 39.8779 168.363C40.6104 168.363 41.167 168.554 41.5479 168.935C41.9287 169.31 42.1191 169.869 42.1191 170.613C42.1191 170.936 42.0635 171.231 41.9521 171.501C41.8408 171.771 41.6768 172.002 41.46 172.195C41.249 172.389 40.9854 172.541 40.6689 172.652C40.3584 172.764 39.998 172.819 39.5879 172.819H38.4277V174.138H39.5879C39.9922 174.138 40.3613 174.185 40.6953 174.278C41.0352 174.372 41.3223 174.516 41.5566 174.709C41.7969 174.902 41.9814 175.146 42.1104 175.438C42.2451 175.726 42.3125 176.068 42.3125 176.467C42.3125 176.871 42.2539 177.223 42.1367 177.521C42.0254 177.814 41.8643 178.061 41.6533 178.26C41.4424 178.459 41.1875 178.608 40.8887 178.708C40.5898 178.802 40.2559 178.849 39.8867 178.849C39.5176 178.849 39.1807 178.796 38.876 178.69Z" fill="white"/>
<path d="M23.3779 124H14.9932V122.831L19.1855 118.173C19.5605 117.757 19.874 117.388 20.126 117.065C20.3779 116.743 20.5801 116.447 20.7324 116.178C20.8848 115.902 20.9932 115.645 21.0576 115.404C21.1221 115.158 21.1543 114.906 21.1543 114.648C21.1543 114.332 21.1016 114.036 20.9961 113.761C20.8965 113.479 20.7471 113.236 20.5479 113.031C20.3545 112.826 20.1172 112.665 19.8359 112.548C19.5605 112.425 19.2471 112.363 18.8955 112.363C18.4678 112.363 18.0957 112.425 17.7793 112.548C17.4688 112.671 17.208 112.847 16.9971 113.075C16.792 113.298 16.6367 113.57 16.5312 113.893C16.4316 114.215 16.3818 114.575 16.3818 114.974H14.7471C14.7471 114.435 14.8408 113.928 15.0283 113.453C15.2158 112.973 15.4854 112.554 15.8369 112.196C16.1943 111.839 16.6279 111.555 17.1377 111.344C17.6533 111.133 18.2393 111.027 18.8955 111.027C19.499 111.027 20.041 111.118 20.5215 111.3C21.0078 111.476 21.418 111.722 21.752 112.038C22.0859 112.354 22.3408 112.729 22.5166 113.163C22.6982 113.597 22.7891 114.068 22.7891 114.578C22.7891 114.959 22.7246 115.337 22.5957 115.712C22.4668 116.081 22.291 116.447 22.0684 116.811C21.8516 117.174 21.5967 117.534 21.3037 117.892C21.0166 118.243 20.7119 118.595 20.3896 118.946L16.9531 122.673H23.3779V124Z" fill="black"/>
<path fill-rule="evenodd" clip-rule="evenodd" d="M24.3779 125H13.9932V122.447L18.4423 117.504C18.8069 117.099 19.1047 116.748 19.3382 116.45C19.5672 116.157 19.7382 115.904 19.8596 115.69C19.9804 115.471 20.0523 115.291 20.091 115.148C20.133 114.987 20.1543 114.821 20.1543 114.648C20.1543 114.445 20.1209 114.272 20.0622 114.118L20.0577 114.107L20.0535 114.095C19.9998 113.943 19.925 113.825 19.8306 113.728L19.8254 113.723L19.8203 113.717C19.7309 113.622 19.6135 113.539 19.4513 113.471L19.4396 113.466L19.428 113.461C19.3005 113.404 19.1296 113.363 18.8955 113.363C18.5627 113.363 18.3196 113.411 18.1446 113.479C17.9648 113.55 17.8335 113.644 17.7323 113.753C17.6367 113.857 17.5501 113.998 17.4842 114.196C17.4204 114.405 17.3818 114.662 17.3818 114.974V115.974H13.7471V114.974C13.7471 114.317 13.8617 113.685 14.0975 113.088C14.3328 112.485 14.6751 111.951 15.124 111.495L15.1298 111.489C15.5883 111.031 16.1353 110.676 16.7553 110.42L16.7591 110.418C17.4142 110.15 18.1321 110.027 18.8955 110.027C19.5965 110.027 20.2588 110.133 20.8682 110.362C21.4652 110.579 21.9958 110.892 22.4397 111.312C22.8779 111.727 23.2127 112.221 23.4412 112.782C23.6767 113.347 23.7891 113.949 23.7891 114.578C23.7891 115.074 23.7048 115.562 23.5414 116.037L23.5398 116.042C23.386 116.482 23.1793 116.911 22.9241 117.328C22.6805 117.736 22.3977 118.134 22.0777 118.525C21.7781 118.892 21.4611 119.257 21.1268 119.622L21.1248 119.624L19.2356 121.673H24.3779V125ZM16.9531 122.673L20.3896 118.946C20.7119 118.595 21.0166 118.243 21.3037 117.892C21.5967 117.534 21.8516 117.174 22.0684 116.811C22.291 116.447 22.4668 116.081 22.5957 115.712C22.7246 115.337 22.7891 114.959 22.7891 114.578C22.7891 114.068 22.6982 113.597 22.5166 113.163C22.3408 112.729 22.0859 112.354 21.752 112.038C21.418 111.722 21.0078 111.476 20.5215 111.3C20.041 111.118 19.499 111.027 18.8955 111.027C18.2393 111.027 17.6533 111.133 17.1377 111.344C16.6279 111.555 16.1943 111.839 15.8369 112.196C15.4854 112.554 15.2158 112.973 15.0283 113.453C14.9614 113.623 14.9064 113.796 14.8634 113.974C14.7858 114.294 14.7471 114.627 14.7471 114.974H16.3818C16.3818 114.575 16.4316 114.215 16.5312 113.893C16.6367 113.57 16.792 113.298 16.9971 113.075C17.208 112.847 17.4688 112.671 17.7793 112.548C18.0957 112.425 18.4678 112.363 18.8955 112.363C19.2471 112.363 19.5605 112.425 19.8359 112.548C20.1172 112.665 20.3545 112.826 20.5479 113.031C20.7471 113.236 20.8965 113.479 20.9961 113.761C21.1016 114.036 21.1543 114.332 21.1543 114.648C21.1543 114.906 21.1221 115.158 21.0576 115.404C20.9932 115.645 20.8848 115.902 20.7324 116.178C20.5801 116.447 20.3779 116.743 20.126 117.065C19.874 117.388 19.5605 117.757 19.1855 118.173L14.9932 122.831V124H23.3779V122.673H16.9531Z" fill="white"/>
<path d="M63.8027 124H62.1768V113.277L58.8281 114.552V113.066L63.6709 111.203H63.8027V124Z" fill="black"/>
<path fill-rule="evenodd" clip-rule="evenodd" d="M64.8027 125H61.1768V114.728L57.8281 116.002V112.38L63.4852 110.203H64.8027V125ZM62.1768 113.277V124H63.8027V111.203H63.6709L58.8281 113.066V114.552L62.1768 113.277Z" fill="white"/>
<g filter="url(#filter2_dddd)">
<path fill-rule="evenodd" clip-rule="evenodd" d="M16.7457 137.097C16.7457 137.065 16.7457 137.033 16.7457 137H18.7457C18.7457 139.163 18.7491 140.625 18.9236 141.671C19.0895 142.667 19.3762 143.076 19.7995 143.335C20.3275 143.658 21.2424 143.861 22.9653 143.947C24.2771 144.012 25.9285 144.008 28.0469 144.003C28.658 144.002 29.3081 144 30 144H30.072C32.6359 144 34.654 144 36.191 144.187C37.7442 144.376 39.0253 144.777 39.9259 145.763C40.1848 146.047 40.3981 146.364 40.5746 146.712C40.7511 146.364 40.9644 146.047 41.2234 145.763C42.1239 144.777 43.405 144.376 44.9582 144.187C46.4952 144 48.5133 144 51.0773 144H51.1492C51.8428 144 52.4929 144.002 53.1028 144.003C55.211 144.008 56.8387 144.012 58.1197 143.947C59.8092 143.86 60.6555 143.657 61.1219 143.351C61.4849 143.113 61.7436 142.726 61.8804 141.703C62.0048 140.774 62.0031 139.535 62.0007 137.786C62.0004 137.535 62 137.273 62 137H64C64 137.269 64.0005 137.53 64.0009 137.785C64.004 139.499 64.0064 140.894 63.8627 141.969C63.6922 143.243 63.2859 144.324 62.218 145.024C61.2535 145.656 59.903 145.858 58.2216 145.944C56.8822 146.012 55.1798 146.008 53.0572 146.003C52.4554 146.002 51.8199 146 51.1492 146C48.4976 146 46.6016 146.002 45.1998 146.172C43.8 146.343 43.1123 146.661 42.7003 147.112C42.271 147.582 41.9675 148.383 41.8082 149.953C41.7015 151.004 41.6664 152.303 41.6549 153.931L46.1568 149.429C46.3711 149.215 46.6584 149.118 46.9386 149.139C47.2188 149.118 47.506 149.215 47.7203 149.429C48.1108 149.819 48.1108 150.453 47.7203 150.843L41.3563 157.207C41.1421 157.421 40.8548 157.518 40.5746 157.497C40.2944 157.518 40.0071 157.421 39.7929 157.207L33.4289 150.843C33.0384 150.453 33.0384 149.819 33.4289 149.429C33.6432 149.215 33.9305 149.118 34.2106 149.139C34.4908 149.118 34.7781 149.215 34.9924 149.429L39.4943 153.931C39.4828 152.303 39.4477 151.004 39.341 149.953C39.1817 148.383 38.8782 147.582 38.4489 147.112C38.0369 146.661 37.3492 146.343 35.9494 146.172C34.5476 146.002 32.6516 146 30 146C29.3303 146 28.6943 146.002 28.0911 146.003C25.959 146.008 24.2346 146.012 22.8657 145.944C21.1421 145.858 19.7593 145.655 18.7555 145.04C17.647 144.362 17.1679 143.302 16.9508 142C16.7456 140.77 16.7457 139.139 16.7457 137.097Z" fill="black"/>
</g>
<defs>
<filter id="filter0_dddd" x="10.636" y="80" width="16.7279" height="20" filterUnits="userSpaceOnUse" color-interpolation-filters="sRGB">
<feFlood flood-opacity="0" result="BackgroundImageFix"/>
<feColorMatrix in="SourceAlpha" type="matrix" values="0 0 0 0 0 0 0 0 0 0 0 0 0 0 0 0 0 0 127 0"/>
<feOffset dy="-1"/>
<feColorMatrix type="matrix" values="0 0 0 0 1 0 0 0 0 1 0 0 0 0 1 0 0 0 1 0"/>
<feBlend mode="normal" in2="BackgroundImageFix" result="effect1_dropShadow"/>
<feColorMatrix in="SourceAlpha" type="matrix" values="0 0 0 0 0 0 0 0 0 0 0 0 0 0 0 0 0 0 127 0"/>
<feOffset dy="1"/>
<feColorMatrix type="matrix" values="0 0 0 0 1 0 0 0 0 1 0 0 0 0 1 0 0 0 1 0"/>
<feBlend mode="normal" in2="effect1_dropShadow" result="effect2_dropShadow"/>
<feColorMatrix in="SourceAlpha" type="matrix" values="0 0 0 0 0 0 0 0 0 0 0 0 0 0 0 0 0 0 127 0"/>
<feOffset dx="1"/>
<feColorMatrix type="matrix" values="0 0 0 0 1 0 0 0 0 1 0 0 0 0 1 0 0 0 1 0"/>
<feBlend mode="normal" in2="effect2_dropShadow" result="effect3_dropShadow"/>
<feColorMatrix in="SourceAlpha" type="matrix" values="0 0 0 0 0 0 0 0 0 0 0 0 0 0 0 0 0 0 127 0"/>
<feOffset dx="-1"/>
<feColorMatrix type="matrix" values="0 0 0 0 1 0 0 0 0 1 0 0 0 0 1 0 0 0 1 0"/>
<feBlend mode="normal" in2="effect3_dropShadow" result="effect4_dropShadow"/>
<feBlend mode="normal" in="SourceGraphic" in2="effect4_dropShadow" result="shape"/>
</filter>
<filter id="filter1_dddd" x="53.636" y="80" width="16.7279" height="20" filterUnits="userSpaceOnUse" color-interpolation-filters="sRGB">
<feFlood flood-opacity="0" result="BackgroundImageFix"/>
<feColorMatrix in="SourceAlpha" type="matrix" values="0 0 0 0 0 0 0 0 0 0 0 0 0 0 0 0 0 0 127 0"/>
<feOffset dy="-1"/>
<feColorMatrix type="matrix" values="0 0 0 0 1 0 0 0 0 1 0 0 0 0 1 0 0 0 1 0"/>
<feBlend mode="normal" in2="BackgroundImageFix" result="effect1_dropShadow"/>
<feColorMatrix in="SourceAlpha" type="matrix" values="0 0 0 0 0 0 0 0 0 0 0 0 0 0 0 0 0 0 127 0"/>
<feOffset dy="1"/>
<feColorMatrix type="matrix" values="0 0 0 0 1 0 0 0 0 1 0 0 0 0 1 0 0 0 1 0"/>
<feBlend mode="normal" in2="effect1_dropShadow" result="effect2_dropShadow"/>
<feColorMatrix in="SourceAlpha" type="matrix" values="0 0 0 0 0 0 0 0 0 0 0 0 0 0 0 0 0 0 127 0"/>
<feOffset dx="1"/>
<feColorMatrix type="matrix" values="0 0 0 0 1 0 0 0 0 1 0 0 0 0 1 0 0 0 1 0"/>
<feBlend mode="normal" in2="effect2_dropShadow" result="effect3_dropShadow"/>
<feColorMatrix in="SourceAlpha" type="matrix" values="0 0 0 0 0 0 0 0 0 0 0 0 0 0 0 0 0 0 127 0"/>
<feOffset dx="-1"/>
<feColorMatrix type="matrix" values="0 0 0 0 1 0 0 0 0 1 0 0 0 0 1 0 0 0 1 0"/>
<feBlend mode="normal" in2="effect3_dropShadow" result="effect4_dropShadow"/>
<feBlend mode="normal" in="SourceGraphic" in2="effect4_dropShadow" result="shape"/>
</filter>
<filter id="filter2_dddd" x="15.7457" y="136" width="49.256" height="22.5" filterUnits="userSpaceOnUse" color-interpolation-filters="sRGB">
<feFlood flood-opacity="0" result="BackgroundImageFix"/>
<feColorMatrix in="SourceAlpha" type="matrix" values="0 0 0 0 0 0 0 0 0 0 0 0 0 0 0 0 0 0 127 0"/>
<feOffset dy="-1"/>
<feColorMatrix type="matrix" values="0 0 0 0 1 0 0 0 0 1 0 0 0 0 1 0 0 0 1 0"/>
<feBlend mode="normal" in2="BackgroundImageFix" result="effect1_dropShadow"/>
<feColorMatrix in="SourceAlpha" type="matrix" values="0 0 0 0 0 0 0 0 0 0 0 0 0 0 0 0 0 0 127 0"/>
<feOffset dy="1"/>
<feColorMatrix type="matrix" values="0 0 0 0 1 0 0 0 0 1 0 0 0 0 1 0 0 0 1 0"/>
<feBlend mode="normal" in2="effect1_dropShadow" result="effect2_dropShadow"/>
<feColorMatrix in="SourceAlpha" type="matrix" values="0 0 0 0 0 0 0 0 0 0 0 0 0 0 0 0 0 0 127 0"/>
<feOffset dx="1"/>
<feColorMatrix type="matrix" values="0 0 0 0 1 0 0 0 0 1 0 0 0 0 1 0 0 0 1 0"/>
<feBlend mode="normal" in2="effect2_dropShadow" result="effect3_dropShadow"/>
<feColorMatrix in="SourceAlpha" type="matrix" values="0 0 0 0 0 0 0 0 0 0 0 0 0 0 0 0 0 0 127 0"/>
<feOffset dx="-1"/>
<feColorMatrix type="matrix" values="0 0 0 0 1 0 0 0 0 1 0 0 0 0 1 0 0 0 1 0"/>
<feBlend mode="normal" in2="effect3_dropShadow" result="effect4_dropShadow"/>
<feBlend mode="normal" in="SourceGraphic" in2="effect4_dropShadow" result="shape"/>
</filter>
</defs>
</svg>
