<svg width="81" height="184" viewBox="0 0 81 184" fill="none" xmlns="http://www.w3.org/2000/svg">
<path d="M56.8359 29.1152C58.1484 29.1152 59.2852 28.9746 60.2461 28.6934C61.207 28.4121 62.0098 28.0078 62.6543 27.4805C63.3105 26.9414 63.8145 26.291 64.166 25.5293C64.5293 24.7559 64.7637 23.8828 64.8691 22.9102C64.377 23.4023 63.7441 23.8242 62.9707 24.1758C62.1973 24.5273 61.2598 24.7031 60.1582 24.7031C58.9395 24.7031 57.8672 24.4805 56.9414 24.0352C56.0156 23.5898 55.2363 22.9805 54.6035 22.207C53.9824 21.4336 53.5078 20.5254 53.1797 19.4824C52.8633 18.4277 52.7051 17.2969 52.7051 16.0898C52.7051 14.8477 52.8984 13.6816 53.2852 12.5918C53.6836 11.4902 54.252 10.5293 54.9902 9.70898C55.7285 8.88867 56.6191 8.24414 57.6621 7.77539C58.7168 7.29492 59.9004 7.05469 61.2129 7.05469C62.5488 7.05469 63.75 7.3125 64.8164 7.82812C65.8828 8.34375 66.7852 9.06445 67.5234 9.99023C68.2734 10.916 68.8418 12.0176 69.2285 13.2949C69.627 14.5723 69.8262 15.9727 69.8262 17.4961V19.1836C69.8262 21.2227 69.5742 23.0977 69.0703 24.8086C68.5664 26.5195 67.7871 28.002 66.7324 29.2559C65.6777 30.498 64.3359 31.4707 62.707 32.1738C61.0781 32.8652 59.1328 33.2109 56.8711 33.2109H56.502V29.1152H56.8359ZM61.3184 20.9238C61.7637 20.9238 62.1738 20.8594 62.5488 20.7305C62.9355 20.6016 63.2812 20.4258 63.5859 20.2031C63.9023 19.9688 64.1719 19.6992 64.3945 19.3945C64.6289 19.0781 64.8164 18.7383 64.957 18.375V16.6348C64.957 15.6973 64.8574 14.877 64.6582 14.1738C64.4707 13.4707 64.207 12.8848 63.8672 12.416C63.5273 11.9473 63.1289 11.5957 62.6719 11.3613C62.2148 11.127 61.7227 11.0098 61.1953 11.0098C60.6211 11.0098 60.1055 11.1504 59.6484 11.4316C59.2031 11.7012 58.8281 12.0703 58.5234 12.5391C58.2188 12.9961 57.9844 13.5293 57.8203 14.1387C57.6562 14.7363 57.5742 15.3633 57.5742 16.0195C57.5742 16.6758 57.6504 17.3027 57.8027 17.9004C57.9551 18.498 58.1836 19.0195 58.4883 19.4648C58.8047 19.9102 59.1973 20.2676 59.666 20.5371C60.1348 20.7949 60.6855 20.9238 61.3184 20.9238Z" fill="#C84646"/>
<path fill-rule="evenodd" clip-rule="evenodd" d="M56.8359 29.1152C58.1484 29.1152 59.2852 28.9746 60.2461 28.6934C61.207 28.4121 62.0098 28.0078 62.6543 27.4805C63.3105 26.9414 63.8145 26.291 64.166 25.5293C64.3287 25.1829 64.4656 24.8165 64.5766 24.4301C64.7134 23.9538 64.8109 23.4472 64.8691 22.9102C64.5438 23.2355 64.157 23.5301 63.7088 23.794C63.4789 23.9293 63.2329 24.0566 62.9707 24.1758C62.1973 24.5273 61.2598 24.7031 60.1582 24.7031C58.9395 24.7031 57.8672 24.4805 56.9414 24.0352C56.0156 23.5898 55.2363 22.9805 54.6035 22.207C53.9824 21.4336 53.5078 20.5254 53.1797 19.4824C52.8633 18.4277 52.7051 17.2969 52.7051 16.0898C52.7051 14.8477 52.8984 13.6816 53.2852 12.5918C53.6836 11.4902 54.252 10.5293 54.9902 9.70898C55.7285 8.88867 56.6191 8.24414 57.6621 7.77539C58.7168 7.29492 59.9004 7.05469 61.2129 7.05469C62.5488 7.05469 63.75 7.3125 64.8164 7.82812C65.8828 8.34375 66.7852 9.06445 67.5234 9.99023C68.2734 10.916 68.8418 12.0176 69.2285 13.2949C69.627 14.5723 69.8262 15.9727 69.8262 17.4961V19.1836C69.8262 21.2227 69.5742 23.0977 69.0703 24.8086C68.5664 26.5195 67.7871 28.002 66.7324 29.2559C65.6777 30.498 64.3359 31.4707 62.707 32.1738C61.2316 32.8001 59.4966 33.1427 57.502 33.2017C57.2945 33.2079 57.0842 33.2109 56.8711 33.2109H56.502V29.1152H56.8359ZM70.1844 13.0011C70.6159 14.3861 70.8262 15.887 70.8262 17.4961V19.1836C70.8262 21.3049 70.564 23.2764 70.0296 25.0911C69.4901 26.9227 68.6489 28.5309 67.4977 29.8996L67.4947 29.9031C66.3319 31.2727 64.8607 32.3334 63.1033 33.0919L63.0978 33.0944C61.3161 33.8506 59.2312 34.2109 56.8711 34.2109H55.502V28.1152H56.8359C58.0811 28.1152 59.1187 27.9814 59.9652 27.7336C60.8226 27.4827 61.4986 27.1338 62.0205 26.707C62.5498 26.272 62.9533 25.7552 63.2397 25.1496C62.3371 25.5306 61.3003 25.7031 60.1582 25.7031C58.8171 25.7031 57.5919 25.4577 56.5079 24.9363C55.4542 24.4295 54.5576 23.73 53.8296 22.8403L53.8238 22.8332C53.1173 21.9534 52.5874 20.9319 52.2258 19.7825L52.2218 19.7698C51.8749 18.6134 51.7051 17.3849 51.7051 16.0898C51.7051 14.7422 51.9152 13.4623 52.3427 12.2574L52.3448 12.2517C52.7843 11.0363 53.4172 9.96199 54.2469 9.04002C55.0811 8.11322 56.0857 7.38788 57.2499 6.86432C58.4503 6.31788 59.7772 6.05469 61.2129 6.05469C62.6802 6.05469 64.0331 6.33864 65.2517 6.92784C66.4517 7.50805 67.4717 8.32233 68.3029 9.36376C69.1415 10.3998 69.7651 11.6178 70.1844 13.0011ZM62.2326 19.7818C62.528 19.6833 62.7791 19.5538 62.9933 19.3976C63.231 19.2212 63.4272 19.0234 63.5871 18.8045L63.591 18.7993C63.7371 18.602 63.8588 18.3944 63.957 18.1755V16.6348C63.957 15.7648 63.8642 15.04 63.6961 14.4464L63.694 14.439L63.692 14.4315C63.5283 13.8176 63.3096 13.3506 63.0576 13.003C62.7982 12.6452 62.5157 12.4051 62.2156 12.2511C61.9036 12.0912 61.5684 12.0098 61.1953 12.0098C60.7927 12.0098 60.4608 12.1059 60.1725 12.2833L60.1663 12.2872C59.8592 12.473 59.5906 12.7321 59.3619 13.0841L59.3555 13.0938C59.1193 13.4482 58.9259 13.8788 58.7859 14.3986L58.7847 14.4034C58.6456 14.9099 58.5742 15.4475 58.5742 16.0195C58.5742 16.5978 58.6413 17.1414 58.7717 17.6534C58.8983 18.1499 59.0811 18.5583 59.3086 18.8928C59.5394 19.2156 59.8199 19.4705 60.156 19.6653C60.4511 19.8256 60.8277 19.9238 61.3184 19.9238C61.6665 19.9238 61.9654 19.8736 62.2237 19.7848L62.2326 19.7818ZM64.957 18.375C64.8164 18.7383 64.6289 19.0781 64.3945 19.3945C64.1719 19.6992 63.9023 19.9688 63.5859 20.2031C63.2812 20.4258 62.9355 20.6016 62.5488 20.7305C62.1738 20.8594 61.7637 20.9238 61.3184 20.9238C60.6855 20.9238 60.1348 20.7949 59.666 20.5371C59.1973 20.2676 58.8047 19.9102 58.4883 19.4648C58.1836 19.0195 57.9551 18.498 57.8027 17.9004C57.6504 17.3027 57.5742 16.6758 57.5742 16.0195C57.5742 15.3633 57.6562 14.7363 57.8203 14.1387C57.9844 13.5293 58.2188 12.9961 58.5234 12.5391C58.8281 12.0703 59.2031 11.7012 59.6484 11.4316C60.1055 11.1504 60.6211 11.0098 61.1953 11.0098C61.7227 11.0098 62.2148 11.127 62.6719 11.3613C63.1289 11.5957 63.5273 11.9473 63.8672 12.416C64.207 12.8848 64.4707 13.4707 64.6582 14.1738C64.8574 14.877 64.957 15.6973 64.957 16.6348V18.375Z" fill="white"/>
<path d="M69.6328 45.8145H53.6016V42H69.6328V45.8145Z" fill="black"/>
<path fill-rule="evenodd" clip-rule="evenodd" d="M70.6328 46.8145H52.6016V41H70.6328V46.8145ZM69.6328 45.8145V42H53.6016V45.8145H69.6328Z" fill="white"/>
<path d="M63.8027 68H62.1768V57.2773L58.8281 58.5518V57.0664L63.6709 55.2031H63.8027V68Z" fill="black"/>
<path fill-rule="evenodd" clip-rule="evenodd" d="M64.8027 69H61.1768V58.7279L57.8281 60.0023V56.3797L63.4852 54.2031H64.8027V69ZM62.1768 57.2773V68H63.8027V55.2031H63.6709L58.8281 57.0664V58.5518L62.1768 57.2773Z" fill="white"/>
<path d="M13.8359 29.1152C15.1484 29.1152 16.2852 28.9746 17.2461 28.6934C18.207 28.4121 19.0098 28.0078 19.6543 27.4805C20.3105 26.9414 20.8145 26.291 21.166 25.5293C21.5293 24.7559 21.7637 23.8828 21.8691 22.9102C21.377 23.4023 20.7441 23.8242 19.9707 24.1758C19.1973 24.5273 18.2598 24.7031 17.1582 24.7031C15.9395 24.7031 14.8672 24.4805 13.9414 24.0352C13.0156 23.5898 12.2363 22.9805 11.6035 22.207C10.9824 21.4336 10.5078 20.5254 10.1797 19.4824C9.86328 18.4277 9.70508 17.2969 9.70508 16.0898C9.70508 14.8477 9.89844 13.6816 10.2852 12.5918C10.6836 11.4902 11.252 10.5293 11.9902 9.70898C12.7285 8.88867 13.6191 8.24414 14.6621 7.77539C15.7168 7.29492 16.9004 7.05469 18.2129 7.05469C19.5488 7.05469 20.75 7.3125 21.8164 7.82812C22.8828 8.34375 23.7852 9.06445 24.5234 9.99023C25.2734 10.916 25.8418 12.0176 26.2285 13.2949C26.627 14.5723 26.8262 15.9727 26.8262 17.4961V19.1836C26.8262 21.2227 26.5742 23.0977 26.0703 24.8086C25.5664 26.5195 24.7871 28.002 23.7324 29.2559C22.6777 30.498 21.3359 31.4707 19.707 32.1738C18.0781 32.8652 16.1328 33.2109 13.8711 33.2109H13.502V29.1152H13.8359ZM18.3184 20.9238C18.7637 20.9238 19.1738 20.8594 19.5488 20.7305C19.9355 20.6016 20.2812 20.4258 20.5859 20.2031C20.9023 19.9688 21.1719 19.6992 21.3945 19.3945C21.6289 19.0781 21.8164 18.7383 21.957 18.375V16.6348C21.957 15.6973 21.8574 14.877 21.6582 14.1738C21.4707 13.4707 21.207 12.8848 20.8672 12.416C20.5273 11.9473 20.1289 11.5957 19.6719 11.3613C19.2148 11.127 18.7227 11.0098 18.1953 11.0098C17.6211 11.0098 17.1055 11.1504 16.6484 11.4316C16.2031 11.7012 15.8281 12.0703 15.5234 12.5391C15.2188 12.9961 14.9844 13.5293 14.8203 14.1387C14.6562 14.7363 14.5742 15.3633 14.5742 16.0195C14.5742 16.6758 14.6504 17.3027 14.8027 17.9004C14.9551 18.498 15.1836 19.0195 15.4883 19.4648C15.8047 19.9102 16.1973 20.2676 16.666 20.5371C17.1348 20.7949 17.6855 20.9238 18.3184 20.9238Z" fill="#C84646"/>
<path fill-rule="evenodd" clip-rule="evenodd" d="M13.8359 29.1152C15.1484 29.1152 16.2852 28.9746 17.2461 28.6934C18.207 28.4121 19.0098 28.0078 19.6543 27.4805C20.3105 26.9414 20.8145 26.291 21.166 25.5293C21.3287 25.1829 21.4656 24.8165 21.5766 24.4301C21.7134 23.9538 21.8109 23.4472 21.8691 22.9102C21.5438 23.2355 21.157 23.5301 20.7088 23.794C20.4789 23.9293 20.2329 24.0566 19.9707 24.1758C19.1973 24.5273 18.2598 24.7031 17.1582 24.7031C15.9395 24.7031 14.8672 24.4805 13.9414 24.0352C13.0156 23.5898 12.2363 22.9805 11.6035 22.207C10.9824 21.4336 10.5078 20.5254 10.1797 19.4824C9.86328 18.4277 9.70508 17.2969 9.70508 16.0898C9.70508 14.8477 9.89844 13.6816 10.2852 12.5918C10.6836 11.4902 11.252 10.5293 11.9902 9.70898C12.7285 8.88867 13.6191 8.24414 14.6621 7.77539C15.7168 7.29492 16.9004 7.05469 18.2129 7.05469C19.5488 7.05469 20.75 7.3125 21.8164 7.82812C22.8828 8.34375 23.7852 9.06445 24.5234 9.99023C25.2734 10.916 25.8418 12.0176 26.2285 13.2949C26.627 14.5723 26.8262 15.9727 26.8262 17.4961V19.1836C26.8262 21.2227 26.5742 23.0977 26.0703 24.8086C25.5664 26.5195 24.7871 28.002 23.7324 29.2559C22.6777 30.498 21.3359 31.4707 19.707 32.1738C18.2316 32.8001 16.4966 33.1427 14.502 33.2017C14.2945 33.2079 14.0842 33.2109 13.8711 33.2109H13.502V29.1152H13.8359ZM27.1844 13.0011C27.6159 14.3861 27.8262 15.887 27.8262 17.4961V19.1836C27.8262 21.3049 27.564 23.2764 27.0296 25.0911C26.4901 26.9227 25.6489 28.5309 24.4977 29.8996L24.4947 29.9031C23.3319 31.2727 21.8607 32.3334 20.1033 33.0919L20.0978 33.0944C18.3161 33.8506 16.2312 34.2109 13.8711 34.2109H12.502V28.1152H13.8359C15.0811 28.1152 16.1187 27.9814 16.9652 27.7336C17.8226 27.4827 18.4986 27.1338 19.0205 26.707C19.5498 26.272 19.9533 25.7552 20.2397 25.1496C19.3371 25.5306 18.3003 25.7031 17.1582 25.7031C15.8171 25.7031 14.5919 25.4577 13.5079 24.9363C12.4542 24.4295 11.5576 23.73 10.8296 22.8403L10.8238 22.8332C10.1173 21.9534 9.58739 20.9319 9.22578 19.7825L9.22178 19.7698C8.87486 18.6134 8.70508 17.3849 8.70508 16.0898C8.70508 14.7422 8.91517 13.4623 9.34273 12.2574L9.34476 12.2517C9.78434 11.0363 10.4172 9.96199 11.2469 9.04002C12.0811 8.11322 13.0857 7.38788 14.2499 6.86432C15.4503 6.31788 16.7772 6.05469 18.2129 6.05469C19.6802 6.05469 21.0331 6.33864 22.2517 6.92784C23.4517 7.50805 24.4717 8.32233 25.3029 9.36376C26.1415 10.3998 26.7651 11.6178 27.1844 13.0011ZM19.2326 19.7818C19.528 19.6833 19.7791 19.5538 19.9933 19.3976C20.231 19.2212 20.4272 19.0234 20.5871 18.8045L20.591 18.7993C20.7371 18.602 20.8588 18.3944 20.957 18.1755V16.6348C20.957 15.7648 20.8642 15.04 20.6961 14.4464L20.694 14.439L20.692 14.4315C20.5283 13.8176 20.3096 13.3506 20.0576 13.003C19.7982 12.6452 19.5157 12.4051 19.2156 12.2511C18.9036 12.0912 18.5684 12.0098 18.1953 12.0098C17.7927 12.0098 17.4608 12.1059 17.1725 12.2833L17.1663 12.2872C16.8592 12.473 16.5906 12.7321 16.3619 13.0841L16.3555 13.0938C16.1193 13.4482 15.9259 13.8788 15.7859 14.3986L15.7847 14.4034C15.6456 14.9099 15.5742 15.4475 15.5742 16.0195C15.5742 16.5978 15.6413 17.1414 15.7717 17.6534C15.8983 18.1499 16.0811 18.5583 16.3086 18.8928C16.5394 19.2156 16.8199 19.4705 17.156 19.6653C17.4511 19.8256 17.8277 19.9238 18.3184 19.9238C18.6665 19.9238 18.9654 19.8736 19.2237 19.7848L19.2326 19.7818ZM21.957 18.375C21.8164 18.7383 21.6289 19.0781 21.3945 19.3945C21.1719 19.6992 20.9023 19.9688 20.5859 20.2031C20.2812 20.4258 19.9355 20.6016 19.5488 20.7305C19.1738 20.8594 18.7637 20.9238 18.3184 20.9238C17.6855 20.9238 17.1348 20.7949 16.666 20.5371C16.1973 20.2676 15.8047 19.9102 15.4883 19.4648C15.1836 19.0195 14.9551 18.498 14.8027 17.9004C14.6504 17.3027 14.5742 16.6758 14.5742 16.0195C14.5742 15.3633 14.6562 14.7363 14.8203 14.1387C14.9844 13.5293 15.2188 12.9961 15.5234 12.5391C15.8281 12.0703 16.2031 11.7012 16.6484 11.4316C17.1055 11.1504 17.6211 11.0098 18.1953 11.0098C18.7227 11.0098 19.2148 11.127 19.6719 11.3613C20.1289 11.5957 20.5273 11.9473 20.8672 12.416C21.207 12.8848 21.4707 13.4707 21.6582 14.1738C21.8574 14.877 21.957 15.6973 21.957 16.6348V18.375Z" fill="white"/>
<path d="M26.6328 45.8145H10.6016V42H26.6328V45.8145Z" fill="black"/>
<path fill-rule="evenodd" clip-rule="evenodd" d="M27.6328 46.8145H9.60156V41H27.6328V46.8145ZM26.6328 45.8145V42H10.6016V45.8145H26.6328Z" fill="white"/>
<g filter="url(#filter0_dddd)">
<path fill-rule="evenodd" clip-rule="evenodd" d="M26.0711 92.3431L19.7071 98.7071C19.3166 99.0976 18.6834 99.0976 18.2929 98.7071L11.9289 92.3431C11.5384 91.9526 11.5384 91.3195 11.9289 90.9289C12.3194 90.5384 12.9526 90.5384 13.3431 90.9289L18 95.5858L18 81L20 81L20 95.5858L24.6568 90.9289C25.0474 90.5384 25.6805 90.5384 26.0711 90.9289C26.4616 91.3195 26.4616 91.9526 26.0711 92.3431Z" fill="black"/>
</g>
<g filter="url(#filter1_dddd)">
<path fill-rule="evenodd" clip-rule="evenodd" d="M69.0711 92.3431L62.7071 98.7071C62.3166 99.0976 61.6834 99.0976 61.2929 98.7071L54.9289 92.3431C54.5384 91.9526 54.5384 91.3195 54.9289 90.9289C55.3194 90.5384 55.9526 90.5384 56.3431 90.9289L61 95.5858L61 81L63 81L63 95.5858L67.6568 90.9289C68.0474 90.5384 68.6805 90.5384 69.0711 90.9289C69.4616 91.3195 69.4616 91.9526 69.0711 92.3431Z" fill="black"/>
</g>
<path d="M32.2783 178.559C32.8584 178.559 33.3682 178.509 33.8076 178.409C34.2471 178.304 34.6279 178.157 34.9502 177.97C35.2783 177.782 35.5508 177.562 35.7676 177.311C35.9844 177.053 36.1602 176.771 36.2949 176.467C36.4355 176.156 36.5381 175.831 36.6025 175.491C36.667 175.146 36.708 174.794 36.7256 174.437C36.585 174.612 36.4238 174.779 36.2422 174.938C36.0605 175.09 35.8555 175.225 35.627 175.342C35.3984 175.459 35.1436 175.553 34.8623 175.623C34.5869 175.688 34.2852 175.72 33.957 175.72C33.3242 175.72 32.7764 175.597 32.3135 175.351C31.8564 175.099 31.4785 174.771 31.1797 174.366C30.8809 173.962 30.6611 173.505 30.5205 172.995C30.3799 172.485 30.3096 171.973 30.3096 171.457C30.3096 170.854 30.3916 170.285 30.5557 169.752C30.7256 169.213 30.9746 168.744 31.3027 168.346C31.6367 167.941 32.0498 167.622 32.542 167.388C33.04 167.147 33.6172 167.027 34.2734 167.027C34.7656 167.027 35.208 167.098 35.6006 167.238C35.999 167.373 36.3477 167.563 36.6465 167.81C36.9512 168.05 37.2119 168.337 37.4287 168.671C37.6455 168.999 37.8213 169.356 37.9561 169.743C38.0967 170.124 38.1992 170.525 38.2637 170.947C38.3281 171.363 38.3604 171.782 38.3604 172.204V172.793C38.3604 173.338 38.334 173.897 38.2812 174.472C38.2285 175.04 38.123 175.591 37.9648 176.124C37.8125 176.657 37.5957 177.161 37.3145 177.636C37.0332 178.104 36.667 178.515 36.2158 178.866C35.7646 179.218 35.2168 179.496 34.5723 179.701C33.9277 179.906 33.1631 180.009 32.2783 180.009H32.1113V178.559H32.2783ZM34.2207 174.375C34.4961 174.375 34.7627 174.331 35.0205 174.243C35.2842 174.149 35.5244 174.021 35.7412 173.856C35.9639 173.687 36.1602 173.49 36.3301 173.268C36.5059 173.039 36.6436 172.787 36.7432 172.512V171.984C36.7432 171.416 36.6758 170.909 36.541 170.464C36.4121 170.019 36.2334 169.644 36.0049 169.339C35.7822 169.028 35.5215 168.791 35.2227 168.627C34.9297 168.463 34.6162 168.381 34.2822 168.381C33.9014 168.381 33.5645 168.457 33.2715 168.609C32.9785 168.762 32.7295 168.973 32.5244 169.242C32.3252 169.506 32.1729 169.822 32.0674 170.191C31.9619 170.555 31.9092 170.947 31.9092 171.369C31.9092 171.744 31.9561 172.113 32.0498 172.477C32.1436 172.834 32.2842 173.153 32.4717 173.435C32.665 173.716 32.9053 173.944 33.1924 174.12C33.4854 174.29 33.8281 174.375 34.2207 174.375Z" fill="#001AFF"/>
<path d="M43.0889 178.559C43.6689 178.559 44.1787 178.509 44.6182 178.409C45.0576 178.304 45.4385 178.157 45.7607 177.97C46.0889 177.782 46.3613 177.562 46.5781 177.311C46.7949 177.053 46.9707 176.771 47.1055 176.467C47.2461 176.156 47.3486 175.831 47.4131 175.491C47.4775 175.146 47.5186 174.794 47.5361 174.437C47.3955 174.612 47.2344 174.779 47.0527 174.938C46.8711 175.09 46.666 175.225 46.4375 175.342C46.209 175.459 45.9541 175.553 45.6729 175.623C45.3975 175.688 45.0957 175.72 44.7676 175.72C44.1348 175.72 43.5869 175.597 43.124 175.351C42.667 175.099 42.2891 174.771 41.9902 174.366C41.6914 173.962 41.4717 173.505 41.3311 172.995C41.1904 172.485 41.1201 171.973 41.1201 171.457C41.1201 170.854 41.2021 170.285 41.3662 169.752C41.5361 169.213 41.7852 168.744 42.1133 168.346C42.4473 167.941 42.8604 167.622 43.3525 167.388C43.8506 167.147 44.4277 167.027 45.084 167.027C45.5762 167.027 46.0186 167.098 46.4111 167.238C46.8096 167.373 47.1582 167.563 47.457 167.81C47.7617 168.05 48.0225 168.337 48.2393 168.671C48.4561 168.999 48.6318 169.356 48.7666 169.743C48.9072 170.124 49.0098 170.525 49.0742 170.947C49.1387 171.363 49.1709 171.782 49.1709 172.204V172.793C49.1709 173.338 49.1445 173.897 49.0918 174.472C49.0391 175.04 48.9336 175.591 48.7754 176.124C48.623 176.657 48.4062 177.161 48.125 177.636C47.8438 178.104 47.4775 178.515 47.0264 178.866C46.5752 179.218 46.0273 179.496 45.3828 179.701C44.7383 179.906 43.9736 180.009 43.0889 180.009H42.9219V178.559H43.0889ZM45.0312 174.375C45.3066 174.375 45.5732 174.331 45.8311 174.243C46.0947 174.149 46.335 174.021 46.5518 173.856C46.7744 173.687 46.9707 173.49 47.1406 173.268C47.3164 173.039 47.4541 172.787 47.5537 172.512V171.984C47.5537 171.416 47.4863 170.909 47.3516 170.464C47.2227 170.019 47.0439 169.644 46.8154 169.339C46.5928 169.028 46.332 168.791 46.0332 168.627C45.7402 168.463 45.4268 168.381 45.0928 168.381C44.7119 168.381 44.375 168.457 44.082 168.609C43.7891 168.762 43.54 168.973 43.335 169.242C43.1357 169.506 42.9834 169.822 42.8779 170.191C42.7725 170.555 42.7197 170.947 42.7197 171.369C42.7197 171.744 42.7666 172.113 42.8604 172.477C42.9541 172.834 43.0947 173.153 43.2822 173.435C43.4756 173.716 43.7158 173.944 44.0029 174.12C44.2959 174.29 44.6387 174.375 45.0312 174.375Z" fill="#001AFF"/>
<path fill-rule="evenodd" clip-rule="evenodd" d="M37.3145 177.636C37.0332 178.104 36.667 178.515 36.2158 178.866C35.7646 179.218 35.2168 179.496 34.5723 179.701C34.1395 179.839 33.6525 179.93 33.1113 179.976C32.8466 179.998 32.569 180.009 32.2783 180.009H32.1113V178.559H32.2783C32.8584 178.559 33.3682 178.509 33.8076 178.409C34.2471 178.304 34.6279 178.157 34.9502 177.97C35.2783 177.782 35.5508 177.562 35.7676 177.311C35.9844 177.053 36.1602 176.771 36.2949 176.467C36.3627 176.317 36.4215 176.164 36.4716 176.008C36.5255 175.84 36.5691 175.667 36.6025 175.491C36.6089 175.457 36.615 175.423 36.6209 175.389C36.6217 175.384 36.6225 175.38 36.6233 175.375C36.6759 175.067 36.71 174.754 36.7256 174.437C36.585 174.612 36.4238 174.779 36.2422 174.938C36.0739 175.079 35.8855 175.205 35.677 175.316C35.6756 175.316 35.6742 175.317 35.6728 175.318C35.6576 175.326 35.6423 175.334 35.627 175.342C35.6217 175.344 35.6165 175.347 35.6112 175.35C35.3868 175.463 35.1371 175.554 34.8623 175.623C34.5869 175.688 34.2852 175.72 33.957 175.72C33.3242 175.72 32.7764 175.597 32.3135 175.351C31.8564 175.099 31.4785 174.771 31.1797 174.366C30.8809 173.962 30.6611 173.505 30.5205 172.995C30.3799 172.485 30.3096 171.973 30.3096 171.457C30.3096 170.854 30.3916 170.285 30.5557 169.752C30.7256 169.213 30.9746 168.744 31.3027 168.346C31.6367 167.941 32.0498 167.622 32.542 167.388C33.04 167.147 33.6172 167.027 34.2734 167.027C34.7656 167.027 35.208 167.098 35.6006 167.238C35.999 167.373 36.3477 167.563 36.6465 167.81C36.9512 168.05 37.2119 168.337 37.4287 168.671C37.6455 168.999 37.8213 169.356 37.9561 169.743C38.0967 170.124 38.1992 170.525 38.2637 170.947C38.3281 171.363 38.3604 171.782 38.3604 172.204V172.793C38.3604 173.338 38.334 173.897 38.2812 174.472C38.2285 175.04 38.123 175.591 37.9648 176.124C37.8125 176.657 37.5957 177.161 37.3145 177.636ZM38.925 176.404C38.7493 177.017 38.499 177.598 38.1747 178.146L38.1719 178.15C37.8244 178.729 37.3742 179.231 36.8305 179.655C36.2707 180.091 35.6126 180.42 34.8755 180.654C34.108 180.898 33.2361 181.009 32.2783 181.009H31.1113V177.559H32.2783C32.801 177.559 33.2319 177.514 33.5805 177.435C33.9417 177.348 34.226 177.234 34.4473 177.105L34.454 177.101C34.6944 176.964 34.8733 176.816 35.006 176.662C35.0218 176.644 35.0373 176.625 35.0524 176.605C34.7029 176.684 34.3363 176.72 33.957 176.72C33.1942 176.72 32.4785 176.571 31.844 176.234L31.8373 176.23L31.8307 176.226C31.2524 175.908 30.7632 175.485 30.3755 174.961C30 174.453 29.7281 173.883 29.5565 173.261C29.3926 172.667 29.3096 172.065 29.3096 171.457C29.3096 170.762 29.4042 170.094 29.5999 169.458L29.6019 169.451C29.8067 168.802 30.1137 168.216 30.5308 167.71L30.5318 167.709C30.9618 167.188 31.4922 166.78 32.1098 166.486C32.7658 166.17 33.4955 166.027 34.2734 166.027C34.8571 166.027 35.4134 166.11 35.9293 166.294C36.4259 166.463 36.8779 166.706 37.2739 167.031C37.6621 167.338 37.9928 167.704 38.2652 168.123C38.5269 168.52 38.7372 168.948 38.8973 169.405C39.0607 169.85 39.1784 170.313 39.252 170.795M32.0674 170.191C31.9619 170.555 31.9092 170.947 31.9092 171.369C31.9092 171.744 31.9561 172.113 32.0498 172.477C32.1436 172.834 32.2842 173.153 32.4717 173.435C32.665 173.716 32.9053 173.944 33.1924 174.12C33.4854 174.29 33.8281 174.375 34.2207 174.375C34.4961 174.375 34.7627 174.331 35.0205 174.243C35.2842 174.149 35.5244 174.021 35.7412 173.856C35.9639 173.687 36.1602 173.49 36.3301 173.268C36.5059 173.039 36.6436 172.787 36.7432 172.512V171.984C36.7432 171.416 36.6758 170.909 36.541 170.464C36.4121 170.019 36.2334 169.644 36.0049 169.339C35.7822 169.028 35.5215 168.791 35.2227 168.627C34.9297 168.463 34.6162 168.381 34.2822 168.381C33.9014 168.381 33.5645 168.457 33.2715 168.609C32.9785 168.762 32.7295 168.973 32.5244 169.242C32.3252 169.506 32.1729 169.822 32.0674 170.191ZM35.7432 172.317V171.984C35.7432 171.493 35.6848 171.087 35.5839 170.754L35.5804 170.742C35.478 170.388 35.347 170.128 35.2049 169.939L35.1984 169.93L35.1922 169.922C35.046 169.718 34.8941 169.587 34.7414 169.504L34.734 169.499C34.5895 169.419 34.4442 169.381 34.2822 169.381C34.0372 169.381 33.8629 169.429 33.7328 169.497C33.5747 169.579 33.4391 169.692 33.3213 169.846C33.2077 169.997 33.1057 170.197 33.0289 170.466L33.0277 170.47C32.9514 170.733 32.9092 171.031 32.9092 171.369C32.9092 171.659 32.9452 171.944 33.0176 172.225C33.0851 172.481 33.1812 172.695 33.2997 172.874C33.4114 173.035 33.5445 173.161 33.7036 173.26C33.8206 173.326 33.9825 173.375 34.2207 173.375C34.3854 173.375 34.5409 173.349 34.6918 173.299C34.8586 173.239 35.0053 173.159 35.1362 173.06C35.2873 172.945 35.4197 172.812 35.5351 172.661L35.5374 172.658C35.6183 172.553 35.6868 172.44 35.7432 172.317ZM48.125 177.636C47.8438 178.104 47.4775 178.515 47.0264 178.866C46.5752 179.218 46.0273 179.496 45.3828 179.701C44.95 179.839 44.463 179.93 43.9219 179.976C43.6572 179.998 43.3795 180.009 43.0889 180.009H42.9219V178.559H43.0889C43.6689 178.559 44.1787 178.509 44.6182 178.409C45.0576 178.304 45.4385 178.157 45.7607 177.97C46.0889 177.782 46.3613 177.562 46.5781 177.311C46.7949 177.053 46.9707 176.771 47.1055 176.467C47.1732 176.317 47.2321 176.164 47.2822 176.008C47.336 175.84 47.3797 175.667 47.4131 175.491C47.4194 175.457 47.4255 175.423 47.4314 175.389C47.4322 175.384 47.433 175.38 47.4338 175.375C47.4864 175.067 47.5205 174.754 47.5361 174.437C47.3955 174.612 47.2344 174.779 47.0527 174.938C46.8844 175.079 46.696 175.205 46.4875 175.316C46.4861 175.316 46.4847 175.317 46.4834 175.318C46.4682 175.326 46.4529 175.334 46.4375 175.342C46.4323 175.344 46.427 175.347 46.4218 175.35C46.1973 175.463 45.9477 175.554 45.6729 175.623C45.3975 175.688 45.0957 175.72 44.7676 175.72C44.1348 175.72 43.5869 175.597 43.124 175.351C42.667 175.099 42.2891 174.771 41.9902 174.366C41.6914 173.962 41.4717 173.505 41.3311 172.995C41.1904 172.485 41.1201 171.973 41.1201 171.457C41.1201 170.854 41.2021 170.285 41.3662 169.752C41.5361 169.213 41.7852 168.744 42.1133 168.346C42.4473 167.941 42.8604 167.622 43.3525 167.388C43.8506 167.147 44.4277 167.027 45.084 167.027C45.5762 167.027 46.0186 167.098 46.4111 167.238C46.8096 167.373 47.1582 167.563 47.457 167.81C47.7617 168.05 48.0225 168.337 48.2393 168.671C48.4561 168.999 48.6318 169.356 48.7666 169.743C48.9072 170.124 49.0098 170.525 49.0742 170.947C49.1387 171.363 49.1709 171.782 49.1709 172.204V172.793C49.1709 173.338 49.1445 173.897 49.0918 174.472C49.0391 175.04 48.9336 175.591 48.7754 176.124C48.623 176.657 48.4062 177.161 48.125 177.636ZM49.7355 176.404C49.5598 177.017 49.3096 177.598 48.9853 178.146L48.9825 178.15C48.635 178.729 48.1848 179.231 47.641 179.655C47.0812 180.091 46.4231 180.42 45.686 180.654C44.9186 180.898 44.0467 181.009 43.0889 181.009H41.9219V177.559H43.0889C43.6116 177.559 44.0424 177.514 44.391 177.435C44.7522 177.348 45.0366 177.234 45.2578 177.105L45.2646 177.101C45.505 176.964 45.6839 176.816 45.8166 176.662C45.8324 176.644 45.8478 176.625 45.863 176.605C45.5134 176.684 45.1468 176.72 44.7676 176.72C44.0047 176.72 43.2891 176.571 42.6546 176.234L42.6479 176.23L42.6412 176.226C42.063 175.908 41.5738 175.485 41.1861 174.961C40.8105 174.453 40.5386 173.883 40.3671 173.261C40.2032 172.667 40.1201 172.065 40.1201 171.457C40.1201 170.762 40.2148 170.094 40.4104 169.458L40.4124 169.451C40.6172 168.802 40.9243 168.216 41.3414 167.71L41.3423 167.709C41.7724 167.188 42.3028 166.78 42.9203 166.486C43.5763 166.17 44.306 166.027 45.084 166.027C45.6677 166.027 46.2239 166.11 46.7399 166.294C47.2365 166.463 47.6884 166.706 48.0845 167.031C48.4726 167.338 48.8034 167.704 49.0758 168.123C49.3375 168.52 49.5477 168.948 49.7078 169.405C49.8712 169.849 49.9888 170.313 50.0625 170.795C50.1348 171.261 50.1709 171.731 50.1709 172.204V172.793C50.1709 173.37 50.143 173.96 50.0876 174.563C50.0291 175.193 49.912 175.808 49.7355 176.404ZM42.8779 170.191C42.7725 170.555 42.7197 170.947 42.7197 171.369C42.7197 171.744 42.7666 172.113 42.8604 172.477C42.9541 172.834 43.0947 173.153 43.2822 173.435C43.4756 173.716 43.7158 173.944 44.0029 174.12C44.2959 174.29 44.6387 174.375 45.0312 174.375C45.3066 174.375 45.5732 174.331 45.8311 174.243C46.0947 174.149 46.335 174.021 46.5518 173.856C46.7744 173.687 46.9707 173.49 47.1406 173.268C47.3164 173.039 47.4541 172.787 47.5537 172.512V171.984C47.5537 171.416 47.4863 170.909 47.3516 170.464C47.2227 170.019 47.0439 169.644 46.8154 169.339C46.5928 169.028 46.332 168.791 46.0332 168.627C45.7402 168.463 45.4268 168.381 45.0928 168.381C44.7119 168.381 44.375 168.457 44.082 168.609C43.7891 168.762 43.54 168.973 43.335 169.242C43.1357 169.506 42.9834 169.822 42.8779 170.191ZM44.1319 169.846C44.0183 169.997 43.9162 170.197 43.8395 170.466L43.8383 170.47C43.7619 170.733 43.7197 171.031 43.7197 171.369C43.7197 171.659 43.7558 171.944 43.8281 172.225C43.8956 172.481 43.9918 172.695 44.1102 172.874C44.2219 173.035 44.3551 173.161 44.5141 173.26C44.6312 173.326 44.793 173.375 45.0312 173.375C45.1959 173.375 45.3514 173.349 45.5023 173.299C45.6692 173.239 45.8158 173.159 45.9467 173.06C46.0978 172.945 46.2302 172.812 46.3457 172.661L46.348 172.658C46.4288 172.553 46.4974 172.44 46.5537 172.317V171.984C46.5537 171.493 46.4953 171.087 46.3944 170.754L46.3909 170.742C46.2886 170.388 46.1575 170.128 46.0154 169.939L46.009 169.93L46.0027 169.922C45.8566 169.718 45.7046 169.587 45.5519 169.504L45.5446 169.499C45.4001 169.419 45.2547 169.381 45.0928 169.381C44.8478 169.381 44.6734 169.429 44.5434 169.497C44.3852 169.579 44.2497 169.692 44.1319 169.846Z" fill="white"/>
<path d="M11.2783 122.559C11.8584 122.559 12.3682 122.509 12.8076 122.409C13.2471 122.304 13.6279 122.157 13.9502 121.97C14.2783 121.782 14.5508 121.562 14.7676 121.311C14.9844 121.053 15.1602 120.771 15.2949 120.467C15.4355 120.156 15.5381 119.831 15.6025 119.491C15.667 119.146 15.708 118.794 15.7256 118.437C15.585 118.612 15.4238 118.779 15.2422 118.938C15.0605 119.09 14.8555 119.225 14.627 119.342C14.3984 119.459 14.1436 119.553 13.8623 119.623C13.5869 119.688 13.2852 119.72 12.957 119.72C12.3242 119.72 11.7764 119.597 11.3135 119.351C10.8564 119.099 10.4785 118.771 10.1797 118.366C9.88086 117.962 9.66113 117.505 9.52051 116.995C9.37988 116.485 9.30957 115.973 9.30957 115.457C9.30957 114.854 9.3916 114.285 9.55566 113.752C9.72559 113.213 9.97461 112.744 10.3027 112.346C10.6367 111.941 11.0498 111.622 11.542 111.388C12.04 111.147 12.6172 111.027 13.2734 111.027C13.7656 111.027 14.208 111.098 14.6006 111.238C14.999 111.373 15.3477 111.563 15.6465 111.81C15.9512 112.05 16.2119 112.337 16.4287 112.671C16.6455 112.999 16.8213 113.356 16.9561 113.743C17.0967 114.124 17.1992 114.525 17.2637 114.947C17.3281 115.363 17.3604 115.782 17.3604 116.204V116.793C17.3604 117.338 17.334 117.897 17.2812 118.472C17.2285 119.04 17.123 119.591 16.9648 120.124C16.8125 120.657 16.5957 121.161 16.3145 121.636C16.0332 122.104 15.667 122.515 15.2158 122.866C14.7646 123.218 14.2168 123.496 13.5723 123.701C12.9277 123.906 12.1631 124.009 11.2783 124.009H11.1113V122.559H11.2783ZM13.2207 118.375C13.4961 118.375 13.7627 118.331 14.0205 118.243C14.2842 118.149 14.5244 118.021 14.7412 117.856C14.9639 117.687 15.1602 117.49 15.3301 117.268C15.5059 117.039 15.6436 116.787 15.7432 116.512V115.984C15.7432 115.416 15.6758 114.909 15.541 114.464C15.4121 114.019 15.2334 113.644 15.0049 113.339C14.7822 113.028 14.5215 112.791 14.2227 112.627C13.9297 112.463 13.6162 112.381 13.2822 112.381C12.9014 112.381 12.5645 112.457 12.2715 112.609C11.9785 112.762 11.7295 112.973 11.5244 113.242C11.3252 113.506 11.1729 113.822 11.0674 114.191C10.9619 114.555 10.9092 114.947 10.9092 115.369C10.9092 115.744 10.9561 116.113 11.0498 116.477C11.1436 116.834 11.2842 117.153 11.4717 117.435C11.665 117.716 11.9053 117.944 12.1924 118.12C12.4854 118.29 12.8281 118.375 13.2207 118.375Z" fill="black"/>
<path d="M28.373 119.104C28.373 119.919 28.2793 120.643 28.0918 121.275C27.9043 121.902 27.6348 122.433 27.2832 122.866C26.9316 123.294 26.501 123.619 25.9912 123.842C25.4814 124.064 24.8984 124.176 24.2422 124.176C23.5918 124.176 23.0088 124.064 22.4932 123.842C21.9834 123.619 21.5498 123.294 21.1924 122.866C20.835 122.433 20.5596 121.902 20.3662 121.275C20.1787 120.643 20.085 119.919 20.085 119.104V116.107C20.085 115.293 20.1787 114.572 20.3662 113.945C20.5537 113.312 20.8232 112.779 21.1748 112.346C21.5322 111.912 21.9658 111.584 22.4756 111.361C22.9912 111.133 23.5742 111.019 24.2246 111.019C24.8809 111.019 25.4639 111.133 25.9736 111.361C26.4893 111.584 26.9229 111.912 27.2744 112.346C27.6318 112.779 27.9043 113.312 28.0918 113.945C28.2793 114.572 28.373 115.293 28.373 116.107V119.104ZM21.7197 118.779L26.7031 114.956C26.6094 114.106 26.3604 113.462 25.9561 113.022C25.5576 112.577 24.9805 112.354 24.2246 112.354C23.3691 112.354 22.7363 112.645 22.3262 113.225C21.9219 113.799 21.7197 114.64 21.7197 115.747V118.779ZM26.7383 116.512L21.7637 120.317C21.8633 121.144 22.1182 121.773 22.5283 122.207C22.9385 122.641 23.5098 122.857 24.2422 122.857C25.1035 122.857 25.7334 122.564 26.1318 121.979C26.5361 121.393 26.7383 120.549 26.7383 119.447V116.512Z" fill="black"/>
<path fill-rule="evenodd" clip-rule="evenodd" d="M16.3145 121.636C16.0332 122.104 15.667 122.515 15.2158 122.866C14.7646 123.218 14.2168 123.496 13.5723 123.701C13.1395 123.839 12.6525 123.93 12.1113 123.976C11.8466 123.998 11.569 124.009 11.2783 124.009H11.1113V122.559H11.2783C11.8584 122.559 12.3682 122.509 12.8076 122.409C13.2471 122.304 13.6279 122.157 13.9502 121.97C14.2783 121.782 14.5508 121.562 14.7676 121.311C14.9844 121.053 15.1602 120.771 15.2949 120.467C15.3627 120.317 15.4215 120.164 15.4716 120.008C15.5255 119.84 15.5691 119.667 15.6025 119.491C15.6089 119.457 15.615 119.423 15.6209 119.389C15.6217 119.384 15.6225 119.38 15.6233 119.375C15.6759 119.067 15.71 118.754 15.7256 118.437C15.585 118.612 15.4238 118.779 15.2422 118.938C15.0739 119.079 14.8855 119.205 14.677 119.316C14.6756 119.316 14.6742 119.317 14.6728 119.318C14.6576 119.326 14.6423 119.334 14.627 119.342C14.6217 119.344 14.6165 119.347 14.6112 119.35C14.3868 119.463 14.1371 119.554 13.8623 119.623C13.5869 119.688 13.2852 119.72 12.957 119.72C12.3242 119.72 11.7764 119.597 11.3135 119.351C10.8564 119.099 10.4785 118.771 10.1797 118.366C9.88086 117.962 9.66113 117.505 9.52051 116.995C9.37988 116.485 9.30957 115.973 9.30957 115.457C9.30957 114.854 9.3916 114.285 9.55566 113.752C9.72559 113.213 9.97461 112.744 10.3027 112.346C10.6367 111.941 11.0498 111.622 11.542 111.388C12.04 111.147 12.6172 111.027 13.2734 111.027C13.7656 111.027 14.208 111.098 14.6006 111.238C14.999 111.373 15.3477 111.563 15.6465 111.81C15.9512 112.05 16.2119 112.337 16.4287 112.671C16.6455 112.999 16.8213 113.356 16.9561 113.743C17.0967 114.124 17.1992 114.525 17.2637 114.947C17.3281 115.363 17.3604 115.782 17.3604 116.204V116.793C17.3604 117.338 17.334 117.897 17.2812 118.472C17.2285 119.04 17.123 119.591 16.9648 120.124C16.8125 120.657 16.5957 121.161 16.3145 121.636ZM17.925 120.404C17.7493 121.017 17.499 121.598 17.1747 122.146L17.1719 122.15C16.8244 122.729 16.3742 123.231 15.8305 123.655C15.2707 124.091 14.6126 124.42 13.8755 124.654C13.108 124.898 12.2361 125.009 11.2783 125.009H10.1113V121.559H11.2783C11.801 121.559 12.2319 121.514 12.5805 121.435C12.9417 121.348 13.226 121.234 13.4473 121.105L13.454 121.101C13.6944 120.964 13.8733 120.816 14.006 120.662C14.0218 120.644 14.0373 120.625 14.0524 120.605C13.7029 120.684 13.3363 120.72 12.957 120.72C12.1942 120.72 11.4785 120.571 10.844 120.234L10.8373 120.23L10.8307 120.226C10.2524 119.908 9.76324 119.485 9.37551 118.961C8.99996 118.453 8.72808 117.883 8.55652 117.261C8.39261 116.667 8.30957 116.065 8.30957 115.457C8.30957 114.762 8.40421 114.094 8.59989 113.458L8.6019 113.451C8.8067 112.802 9.11372 112.216 9.5308 111.71L9.53177 111.709C9.96184 111.188 10.4922 110.78 11.1098 110.486C11.7658 110.17 12.4955 110.027 13.2734 110.027C13.8571 110.027 14.4134 110.11 14.9293 110.294C15.4259 110.463 15.8779 110.706 16.2739 111.031C16.6621 111.338 16.9928 111.704 17.2652 112.123C17.5269 112.52 17.7372 112.948 17.8973 113.405C18.0607 113.85 18.1784 114.313 18.252 114.795M11.0674 114.191C10.9619 114.555 10.9092 114.947 10.9092 115.369C10.9092 115.744 10.9561 116.113 11.0498 116.477C11.1436 116.834 11.2842 117.153 11.4717 117.435C11.665 117.716 11.9053 117.944 12.1924 118.12C12.4854 118.29 12.8281 118.375 13.2207 118.375C13.4961 118.375 13.7627 118.331 14.0205 118.243C14.2842 118.149 14.5244 118.021 14.7412 117.856C14.9639 117.687 15.1602 117.49 15.3301 117.268C15.5059 117.039 15.6436 116.787 15.7432 116.512V115.984C15.7432 115.416 15.6758 114.909 15.541 114.464C15.4121 114.019 15.2334 113.644 15.0049 113.339C14.7822 113.028 14.5215 112.791 14.2227 112.627C13.9297 112.463 13.6162 112.381 13.2822 112.381C12.9014 112.381 12.5645 112.457 12.2715 112.609C11.9785 112.762 11.7295 112.973 11.5244 113.242C11.3252 113.506 11.1729 113.822 11.0674 114.191ZM14.7432 116.317V115.984C14.7432 115.493 14.6848 115.087 14.5839 114.754L14.5804 114.742C14.478 114.388 14.347 114.128 14.2049 113.939L14.1984 113.93L14.1922 113.922C14.046 113.718 13.8941 113.587 13.7414 113.504L13.734 113.499C13.5895 113.419 13.4442 113.381 13.2822 113.381C13.0372 113.381 12.8629 113.429 12.7328 113.497C12.5747 113.579 12.4391 113.692 12.3213 113.846C12.2077 113.997 12.1057 114.197 12.0289 114.466L12.0277 114.47C11.9514 114.733 11.9092 115.031 11.9092 115.369C11.9092 115.659 11.9452 115.944 12.0176 116.225C12.0851 116.481 12.1812 116.695 12.2997 116.874C12.4114 117.035 12.5445 117.161 12.7036 117.26C12.8206 117.326 12.9825 117.375 13.2207 117.375C13.3854 117.375 13.5409 117.349 13.6918 117.299C13.8586 117.239 14.0053 117.159 14.1362 117.06C14.2873 116.945 14.4197 116.812 14.5351 116.661L14.5374 116.658C14.6183 116.553 14.6868 116.44 14.7432 116.317ZM29.0506 121.559L29.0499 121.562C28.8313 122.293 28.5067 122.945 28.06 123.496L28.0558 123.501C27.6036 124.051 27.0451 124.473 26.3915 124.758C25.7349 125.045 25.0118 125.176 24.2422 125.176C23.4768 125.176 22.7558 125.044 22.0967 124.76L22.0929 124.758C21.4408 124.473 20.8816 124.054 20.425 123.507L20.4207 123.502C19.9676 122.953 19.6361 122.301 19.4106 121.57L19.4074 121.559C19.187 120.816 19.085 119.994 19.085 119.104V116.107C19.085 115.219 19.1869 114.399 19.4078 113.66C19.6259 112.924 19.9503 112.268 20.398 111.716L20.4032 111.71C20.859 111.157 21.4185 110.732 22.0729 110.446C22.7335 110.154 23.4569 110.019 24.2246 110.019C24.995 110.019 25.7191 110.153 26.3764 110.446C27.0353 110.732 27.5966 111.156 28.0486 111.713C28.5034 112.265 28.8316 112.923 29.0502 113.66C29.0504 113.66 29.0505 113.661 29.0506 113.661L28.0918 113.945C28.2793 114.572 28.373 115.293 28.373 116.107V119.104C28.373 119.919 28.2793 120.643 28.0918 121.275C27.9043 121.902 27.6348 122.433 27.2832 122.866C26.9316 123.294 26.501 123.619 25.9912 123.842C25.4814 124.064 24.8984 124.176 24.2422 124.176C23.5918 124.176 23.0088 124.064 22.4932 123.842C21.9834 123.619 21.5498 123.294 21.1924 122.866C20.835 122.433 20.5596 121.902 20.3662 121.275C20.1787 120.643 20.085 119.919 20.085 119.104V116.107C20.085 115.293 20.1787 114.572 20.3662 113.945C20.5537 113.312 20.8232 112.779 21.1748 112.346C21.5322 111.912 21.9658 111.584 22.4756 111.361C22.9912 111.133 23.5742 111.019 24.2246 111.019C24.8809 111.019 25.4639 111.133 25.9736 111.361C26.4893 111.584 26.9229 111.912 27.2744 112.346C27.6318 112.779 27.9043 113.312 28.0918 113.945M26.7031 114.956C26.6094 114.106 26.3604 113.462 25.9561 113.022C25.5576 112.577 24.9805 112.354 24.2246 112.354C23.3691 112.354 22.7363 112.645 22.3262 113.225C21.9219 113.799 21.7197 114.64 21.7197 115.747V118.779L26.7031 114.956ZM22.7197 116.752L25.6168 114.529C25.5172 114.124 25.3714 113.864 25.2201 113.7L25.2107 113.689C25.0499 113.51 24.7767 113.354 24.2246 113.354C23.6193 113.354 23.3265 113.542 23.1434 113.801C22.9085 114.135 22.7197 114.736 22.7197 115.747V116.752ZM21.7637 120.317C21.8633 121.144 22.1182 121.773 22.5283 122.207C22.9385 122.641 23.5098 122.857 24.2422 122.857C25.1035 122.857 25.7334 122.564 26.1318 121.979C26.5361 121.393 26.7383 120.549 26.7383 119.447V116.512L21.7637 120.317ZM25.7383 118.536V119.447C25.7383 120.449 25.5505 121.06 25.3088 121.411L25.3049 121.416C25.1342 121.667 24.8538 121.857 24.2422 121.857C23.7177 121.857 23.4345 121.71 23.2548 121.52C23.1034 121.36 22.9594 121.114 22.8583 120.739L25.7383 118.536Z" fill="white"/>
<path d="M60.2783 122.559C60.8584 122.559 61.3682 122.509 61.8076 122.409C62.2471 122.304 62.6279 122.157 62.9502 121.97C63.2783 121.782 63.5508 121.562 63.7676 121.311C63.9844 121.053 64.1602 120.771 64.2949 120.467C64.4355 120.156 64.5381 119.831 64.6025 119.491C64.667 119.146 64.708 118.794 64.7256 118.437C64.585 118.612 64.4238 118.779 64.2422 118.938C64.0605 119.09 63.8555 119.225 63.627 119.342C63.3984 119.459 63.1436 119.553 62.8623 119.623C62.5869 119.688 62.2852 119.72 61.957 119.72C61.3242 119.72 60.7764 119.597 60.3135 119.351C59.8564 119.099 59.4785 118.771 59.1797 118.366C58.8809 117.962 58.6611 117.505 58.5205 116.995C58.3799 116.485 58.3096 115.973 58.3096 115.457C58.3096 114.854 58.3916 114.285 58.5557 113.752C58.7256 113.213 58.9746 112.744 59.3027 112.346C59.6367 111.941 60.0498 111.622 60.542 111.388C61.04 111.147 61.6172 111.027 62.2734 111.027C62.7656 111.027 63.208 111.098 63.6006 111.238C63.999 111.373 64.3477 111.563 64.6465 111.81C64.9512 112.05 65.2119 112.337 65.4287 112.671C65.6455 112.999 65.8213 113.356 65.9561 113.743C66.0967 114.124 66.1992 114.525 66.2637 114.947C66.3281 115.363 66.3604 115.782 66.3604 116.204V116.793C66.3604 117.338 66.334 117.897 66.2812 118.472C66.2285 119.04 66.123 119.591 65.9648 120.124C65.8125 120.657 65.5957 121.161 65.3145 121.636C65.0332 122.104 64.667 122.515 64.2158 122.866C63.7646 123.218 63.2168 123.496 62.5723 123.701C61.9277 123.906 61.1631 124.009 60.2783 124.009H60.1113V122.559H60.2783ZM62.2207 118.375C62.4961 118.375 62.7627 118.331 63.0205 118.243C63.2842 118.149 63.5244 118.021 63.7412 117.856C63.9639 117.687 64.1602 117.49 64.3301 117.268C64.5059 117.039 64.6436 116.787 64.7432 116.512V115.984C64.7432 115.416 64.6758 114.909 64.541 114.464C64.4121 114.019 64.2334 113.644 64.0049 113.339C63.7822 113.028 63.5215 112.791 63.2227 112.627C62.9297 112.463 62.6162 112.381 62.2822 112.381C61.9014 112.381 61.5645 112.457 61.2715 112.609C60.9785 112.762 60.7295 112.973 60.5244 113.242C60.3252 113.506 60.1729 113.822 60.0674 114.191C59.9619 114.555 59.9092 114.947 59.9092 115.369C59.9092 115.744 59.9561 116.113 60.0498 116.477C60.1436 116.834 60.2842 117.153 60.4717 117.435C60.665 117.716 60.9053 117.944 61.1924 118.12C61.4854 118.29 61.8281 118.375 62.2207 118.375Z" fill="black"/>
<path fill-rule="evenodd" clip-rule="evenodd" d="M65.3145 121.636C65.0332 122.104 64.667 122.515 64.2158 122.866C63.7646 123.218 63.2168 123.496 62.5723 123.701C62.1395 123.839 61.6525 123.93 61.1113 123.976C60.8466 123.998 60.569 124.009 60.2783 124.009H60.1113V122.559H60.2783C60.8584 122.559 61.3682 122.509 61.8076 122.409C62.2471 122.304 62.6279 122.157 62.9502 121.97C63.2783 121.782 63.5508 121.562 63.7676 121.311C63.9844 121.053 64.1602 120.771 64.2949 120.467C64.3627 120.317 64.4215 120.164 64.4716 120.008C64.5255 119.84 64.5691 119.667 64.6025 119.491C64.6089 119.457 64.615 119.423 64.6209 119.389C64.6217 119.384 64.6225 119.38 64.6233 119.375C64.6759 119.067 64.71 118.754 64.7256 118.437C64.585 118.612 64.4238 118.779 64.2422 118.938C64.0739 119.079 63.8855 119.205 63.677 119.316C63.6756 119.316 63.6742 119.317 63.6728 119.318C63.6576 119.326 63.6423 119.334 63.627 119.342C63.6217 119.344 63.6165 119.347 63.6112 119.35C63.3868 119.463 63.1371 119.554 62.8623 119.623C62.5869 119.688 62.2852 119.72 61.957 119.72C61.3242 119.72 60.7764 119.597 60.3135 119.351C59.8564 119.099 59.4785 118.771 59.1797 118.366C58.8809 117.962 58.6611 117.505 58.5205 116.995C58.3799 116.485 58.3096 115.973 58.3096 115.457C58.3096 114.854 58.3916 114.285 58.5557 113.752C58.7256 113.213 58.9746 112.744 59.3027 112.346C59.6367 111.941 60.0498 111.622 60.542 111.388C61.04 111.147 61.6172 111.027 62.2734 111.027C62.7656 111.027 63.208 111.098 63.6006 111.238C63.999 111.373 64.3477 111.563 64.6465 111.81C64.9512 112.05 65.2119 112.337 65.4287 112.671C65.6455 112.999 65.8213 113.356 65.9561 113.743C66.0967 114.124 66.1992 114.525 66.2637 114.947C66.3281 115.363 66.3604 115.782 66.3604 116.204V116.793C66.3604 117.338 66.334 117.897 66.2812 118.472C66.2285 119.04 66.123 119.591 65.9648 120.124C65.8125 120.657 65.5957 121.161 65.3145 121.636ZM66.925 120.404C66.7493 121.017 66.499 121.598 66.1747 122.146L66.1719 122.15C65.8244 122.729 65.3742 123.231 64.8305 123.655C64.2707 124.091 63.6126 124.42 62.8755 124.654C62.108 124.898 61.2361 125.009 60.2783 125.009H59.1113V121.559H60.2783C60.801 121.559 61.2319 121.514 61.5805 121.435C61.9417 121.348 62.226 121.234 62.4473 121.105L62.454 121.101C62.6944 120.964 62.8733 120.816 63.006 120.662C63.0218 120.644 63.0373 120.625 63.0524 120.605C62.7029 120.684 62.3363 120.72 61.957 120.72C61.1942 120.72 60.4785 120.571 59.844 120.234L59.8373 120.23L59.8307 120.226C59.2524 119.908 58.7632 119.485 58.3755 118.961C58 118.453 57.7281 117.883 57.5565 117.261C57.3926 116.667 57.3096 116.065 57.3096 115.457C57.3096 114.762 57.4042 114.094 57.5999 113.458L57.6019 113.451C57.8067 112.802 58.1137 112.216 58.5308 111.71L58.5318 111.709C58.9618 111.188 59.4922 110.78 60.1098 110.486C60.7658 110.17 61.4955 110.027 62.2734 110.027C62.8571 110.027 63.4134 110.11 63.9293 110.294C64.4259 110.463 64.8779 110.706 65.2739 111.031C65.6621 111.338 65.9928 111.704 66.2652 112.123C66.5269 112.52 66.7372 112.948 66.8973 113.405C67.0607 113.85 67.1784 114.313 67.252 114.795M60.0674 114.191C59.9619 114.555 59.9092 114.947 59.9092 115.369C59.9092 115.744 59.9561 116.113 60.0498 116.477C60.1436 116.834 60.2842 117.153 60.4717 117.435C60.665 117.716 60.9053 117.944 61.1924 118.12C61.4854 118.29 61.8281 118.375 62.2207 118.375C62.4961 118.375 62.7627 118.331 63.0205 118.243C63.2842 118.149 63.5244 118.021 63.7412 117.856C63.9639 117.687 64.1602 117.49 64.3301 117.268C64.5059 117.039 64.6436 116.787 64.7432 116.512V115.984C64.7432 115.416 64.6758 114.909 64.541 114.464C64.4121 114.019 64.2334 113.644 64.0049 113.339C63.7822 113.028 63.5215 112.791 63.2227 112.627C62.9297 112.463 62.6162 112.381 62.2822 112.381C61.9014 112.381 61.5645 112.457 61.2715 112.609C60.9785 112.762 60.7295 112.973 60.5244 113.242C60.3252 113.506 60.1729 113.822 60.0674 114.191ZM63.7432 116.317V115.984C63.7432 115.493 63.6848 115.087 63.5839 114.754L63.5804 114.742C63.478 114.388 63.347 114.128 63.2049 113.939L63.1984 113.93L63.1922 113.922C63.046 113.718 62.8941 113.587 62.7414 113.504L62.734 113.499C62.5895 113.419 62.4442 113.381 62.2822 113.381C62.0372 113.381 61.8629 113.429 61.7328 113.497C61.5747 113.579 61.4391 113.692 61.3213 113.846C61.2077 113.997 61.1057 114.197 61.0289 114.466L61.0277 114.47C60.9514 114.733 60.9092 115.031 60.9092 115.369C60.9092 115.659 60.9452 115.944 61.0176 116.225C61.0851 116.481 61.1812 116.695 61.2997 116.874C61.4114 117.035 61.5445 117.161 61.7036 117.26C61.8206 117.326 61.9825 117.375 62.2207 117.375C62.3854 117.375 62.5409 117.349 62.6918 117.299C62.8586 117.239 63.0053 117.159 63.1362 117.06C63.2873 116.945 63.4197 116.812 63.5351 116.661L63.5374 116.658C63.6183 116.553 63.6868 116.44 63.7432 116.317Z" fill="white"/>
<g filter="url(#filter2_dddd)">
<path fill-rule="evenodd" clip-rule="evenodd" d="M16.7457 137.097C16.7457 137.065 16.7457 137.033 16.7457 137H18.7457C18.7457 139.163 18.7491 140.625 18.9236 141.671C19.0895 142.667 19.3762 143.076 19.7995 143.335C20.3275 143.658 21.2424 143.861 22.9653 143.947C24.2771 144.012 25.9285 144.008 28.0469 144.003C28.658 144.002 29.3081 144 30 144H30.072C32.6359 144 34.654 144 36.191 144.187C37.7442 144.376 39.0253 144.777 39.9259 145.763C40.1848 146.047 40.3981 146.364 40.5746 146.712C40.7511 146.364 40.9644 146.047 41.2234 145.763C42.1239 144.777 43.405 144.376 44.9582 144.187C46.4952 144 48.5133 144 51.0773 144H51.1492C51.8428 144 52.4929 144.002 53.1028 144.003C55.211 144.008 56.8387 144.012 58.1197 143.947C59.8092 143.86 60.6555 143.657 61.1219 143.351C61.4849 143.113 61.7436 142.726 61.8804 141.703C62.0048 140.774 62.0031 139.535 62.0007 137.786C62.0004 137.535 62 137.273 62 137H64C64 137.269 64.0005 137.53 64.0009 137.785C64.004 139.499 64.0064 140.894 63.8627 141.969C63.6922 143.243 63.2859 144.324 62.218 145.024C61.2535 145.656 59.903 145.858 58.2216 145.944C56.8822 146.012 55.1798 146.008 53.0572 146.003C52.4554 146.002 51.8199 146 51.1492 146C48.4976 146 46.6016 146.002 45.1998 146.172C43.8 146.343 43.1123 146.661 42.7003 147.112C42.271 147.582 41.9675 148.383 41.8082 149.953C41.7015 151.004 41.6664 152.303 41.6549 153.931L46.1568 149.429C46.3711 149.215 46.6584 149.118 46.9386 149.139C47.2188 149.118 47.506 149.215 47.7203 149.429C48.1108 149.819 48.1108 150.453 47.7203 150.843L41.3563 157.207C41.1421 157.421 40.8548 157.518 40.5746 157.497C40.2944 157.518 40.0071 157.421 39.7929 157.207L33.4289 150.843C33.0384 150.453 33.0384 149.819 33.4289 149.429C33.6432 149.215 33.9305 149.118 34.2106 149.139C34.4908 149.118 34.7781 149.215 34.9924 149.429L39.4943 153.931C39.4828 152.303 39.4477 151.004 39.341 149.953C39.1817 148.383 38.8782 147.582 38.4489 147.112C38.0369 146.661 37.3492 146.343 35.9494 146.172C34.5476 146.002 32.6516 146 30 146C29.3303 146 28.6943 146.002 28.0911 146.003C25.959 146.008 24.2346 146.012 22.8657 145.944C21.1421 145.858 19.7593 145.655 18.7555 145.04C17.647 144.362 17.1679 143.302 16.9508 142C16.7456 140.77 16.7457 139.139 16.7457 137.097Z" fill="black"/>
</g>
<path d="M13.9746 68H12.3486V57.2773L9 58.5518V57.0664L13.8428 55.2031H13.9746V68Z" fill="black"/>
<path fill-rule="evenodd" clip-rule="evenodd" d="M14.9746 69H11.3486V58.7279L8 60.0023V56.3797L13.657 54.2031H14.9746V69ZM12.3486 57.2773V68H13.9746V55.2031H13.8428L9 57.0664V58.5518L12.3486 57.2773Z" fill="white"/>
<path d="M27.46 63.0859C27.46 63.9004 27.3662 64.624 27.1787 65.2568C26.9912 65.8838 26.7217 66.4141 26.3701 66.8477C26.0186 67.2754 25.5879 67.6006 25.0781 67.8232C24.5684 68.0459 23.9854 68.1572 23.3291 68.1572C22.6787 68.1572 22.0957 68.0459 21.5801 67.8232C21.0703 67.6006 20.6367 67.2754 20.2793 66.8477C19.9219 66.4141 19.6465 65.8838 19.4531 65.2568C19.2656 64.624 19.1719 63.9004 19.1719 63.0859V60.0889C19.1719 59.2744 19.2656 58.5537 19.4531 57.9268C19.6406 57.2939 19.9102 56.7607 20.2617 56.3271C20.6191 55.8936 21.0527 55.5654 21.5625 55.3428C22.0781 55.1143 22.6611 55 23.3115 55C23.9678 55 24.5508 55.1143 25.0605 55.3428C25.5762 55.5654 26.0098 55.8936 26.3613 56.3271C26.7188 56.7607 26.9912 57.2939 27.1787 57.9268C27.3662 58.5537 27.46 59.2744 27.46 60.0889V63.0859ZM20.8066 62.7607L25.79 58.9375C25.6963 58.0879 25.4473 57.4434 25.043 57.0039C24.6445 56.5586 24.0674 56.3359 23.3115 56.3359C22.4561 56.3359 21.8232 56.626 21.4131 57.2061C21.0088 57.7803 20.8066 58.6211 20.8066 59.7285V62.7607ZM25.8252 60.4932L20.8506 64.2988C20.9502 65.125 21.2051 65.7549 21.6152 66.1885C22.0254 66.6221 22.5967 66.8389 23.3291 66.8389C24.1904 66.8389 24.8203 66.5459 25.2188 65.96C25.623 65.374 25.8252 64.5303 25.8252 63.4287V60.4932Z" fill="black"/>
<path fill-rule="evenodd" clip-rule="evenodd" d="M28.1375 65.5409L28.1368 65.5434C27.9182 66.2742 27.5936 66.9265 27.1469 67.4775L27.1427 67.4826C26.6905 68.0328 26.132 68.4542 25.4784 68.7396C24.8218 69.0264 24.0987 69.1572 23.3291 69.1572C22.5637 69.1572 21.8427 69.0259 21.1836 68.7413L21.1798 68.7396C20.5277 68.4548 19.9685 68.0353 19.5119 67.4889L19.5077 67.4837C19.0545 66.9341 18.723 66.2826 18.4975 65.5515L18.4943 65.5409C18.2739 64.7973 18.1719 63.975 18.1719 63.0859V60.0889C18.1719 59.2005 18.2738 58.3805 18.4947 57.6414C18.7128 56.9056 19.0372 56.2496 19.485 55.6973L19.4901 55.6911C19.9459 55.1381 20.5054 54.7137 21.1598 54.4274C21.8204 54.1351 22.5438 54 23.3115 54C24.0819 54 24.806 54.134 25.4633 54.4274C26.1221 54.7131 26.6835 55.1377 27.1355 55.6941C27.5903 56.2468 27.9185 56.9039 28.1371 57.6415C28.358 58.3805 28.46 59.2005 28.46 60.0889V63.0859C28.46 63.975 28.3578 64.7973 28.1375 65.5409ZM27.1787 57.9268C26.9912 57.2939 26.7188 56.7607 26.3613 56.3271C26.0098 55.8936 25.5762 55.5654 25.0605 55.3428C24.5508 55.1143 23.9678 55 23.3115 55C22.6611 55 22.0781 55.1143 21.5625 55.3428C21.0527 55.5654 20.6191 55.8936 20.2617 56.3271C19.9102 56.7607 19.6406 57.2939 19.4531 57.9268C19.2656 58.5537 19.1719 59.2744 19.1719 60.0889V63.0859C19.1719 63.9004 19.2656 64.624 19.4531 65.2568C19.6465 65.8838 19.9219 66.4141 20.2793 66.8477C20.6367 67.2754 21.0703 67.6006 21.5801 67.8232C22.0957 68.0459 22.6787 68.1572 23.3291 68.1572C23.9854 68.1572 24.5684 68.0459 25.0781 67.8232C25.5879 67.6006 26.0186 67.2754 26.3701 66.8477C26.7217 66.4141 26.9912 65.8838 27.1787 65.2568C27.3662 64.624 27.46 63.9004 27.46 63.0859V60.0889C27.46 59.2744 27.3662 58.5537 27.1787 57.9268ZM20.8506 64.2988C20.9502 65.125 21.2051 65.7549 21.6152 66.1885C22.0254 66.6221 22.5967 66.8389 23.3291 66.8389C24.1904 66.8389 24.8203 66.5459 25.2188 65.96C25.623 65.374 25.8252 64.5303 25.8252 63.4287V60.4932L20.8506 64.2988ZM25.79 58.9375C25.6963 58.0879 25.4473 57.4434 25.043 57.0039C24.6445 56.5586 24.0674 56.3359 23.3115 56.3359C22.4561 56.3359 21.8232 56.626 21.4131 57.2061C21.0088 57.7803 20.8066 58.6211 20.8066 59.7285V62.7607L25.79 58.9375ZM21.8066 60.7332L24.7037 58.5105C24.6041 58.1057 24.4583 57.8454 24.307 57.681L24.2977 57.6708C24.1368 57.491 23.8636 57.3359 23.3115 57.3359C22.7061 57.3359 22.4133 57.524 22.2301 57.7826C21.9954 58.1166 21.8066 58.7181 21.8066 59.7285V60.7332ZM24.8252 62.5172V63.4287C24.8252 64.4307 24.6375 65.0416 24.3957 65.392L24.3918 65.3977C24.2211 65.6487 23.9407 65.8389 23.3291 65.8389C22.8046 65.8389 22.5214 65.6913 22.3417 65.5013C22.1903 65.3412 22.0464 65.0952 21.9452 64.7205L24.8252 62.5172Z" fill="white"/>
<defs>
<filter id="filter0_dddd" x="10.636" y="80" width="16.7279" height="20" filterUnits="userSpaceOnUse" color-interpolation-filters="sRGB">
<feFlood flood-opacity="0" result="BackgroundImageFix"/>
<feColorMatrix in="SourceAlpha" type="matrix" values="0 0 0 0 0 0 0 0 0 0 0 0 0 0 0 0 0 0 127 0"/>
<feOffset dy="-1"/>
<feColorMatrix type="matrix" values="0 0 0 0 1 0 0 0 0 1 0 0 0 0 1 0 0 0 1 0"/>
<feBlend mode="normal" in2="BackgroundImageFix" result="effect1_dropShadow"/>
<feColorMatrix in="SourceAlpha" type="matrix" values="0 0 0 0 0 0 0 0 0 0 0 0 0 0 0 0 0 0 127 0"/>
<feOffset dy="1"/>
<feColorMatrix type="matrix" values="0 0 0 0 1 0 0 0 0 1 0 0 0 0 1 0 0 0 1 0"/>
<feBlend mode="normal" in2="effect1_dropShadow" result="effect2_dropShadow"/>
<feColorMatrix in="SourceAlpha" type="matrix" values="0 0 0 0 0 0 0 0 0 0 0 0 0 0 0 0 0 0 127 0"/>
<feOffset dx="1"/>
<feColorMatrix type="matrix" values="0 0 0 0 1 0 0 0 0 1 0 0 0 0 1 0 0 0 1 0"/>
<feBlend mode="normal" in2="effect2_dropShadow" result="effect3_dropShadow"/>
<feColorMatrix in="SourceAlpha" type="matrix" values="0 0 0 0 0 0 0 0 0 0 0 0 0 0 0 0 0 0 127 0"/>
<feOffset dx="-1"/>
<feColorMatrix type="matrix" values="0 0 0 0 1 0 0 0 0 1 0 0 0 0 1 0 0 0 1 0"/>
<feBlend mode="normal" in2="effect3_dropShadow" result="effect4_dropShadow"/>
<feBlend mode="normal" in="SourceGraphic" in2="effect4_dropShadow" result="shape"/>
</filter>
<filter id="filter1_dddd" x="53.636" y="80" width="16.7279" height="20" filterUnits="userSpaceOnUse" color-interpolation-filters="sRGB">
<feFlood flood-opacity="0" result="BackgroundImageFix"/>
<feColorMatrix in="SourceAlpha" type="matrix" values="0 0 0 0 0 0 0 0 0 0 0 0 0 0 0 0 0 0 127 0"/>
<feOffset dy="-1"/>
<feColorMatrix type="matrix" values="0 0 0 0 1 0 0 0 0 1 0 0 0 0 1 0 0 0 1 0"/>
<feBlend mode="normal" in2="BackgroundImageFix" result="effect1_dropShadow"/>
<feColorMatrix in="SourceAlpha" type="matrix" values="0 0 0 0 0 0 0 0 0 0 0 0 0 0 0 0 0 0 127 0"/>
<feOffset dy="1"/>
<feColorMatrix type="matrix" values="0 0 0 0 1 0 0 0 0 1 0 0 0 0 1 0 0 0 1 0"/>
<feBlend mode="normal" in2="effect1_dropShadow" result="effect2_dropShadow"/>
<feColorMatrix in="SourceAlpha" type="matrix" values="0 0 0 0 0 0 0 0 0 0 0 0 0 0 0 0 0 0 127 0"/>
<feOffset dx="1"/>
<feColorMatrix type="matrix" values="0 0 0 0 1 0 0 0 0 1 0 0 0 0 1 0 0 0 1 0"/>
<feBlend mode="normal" in2="effect2_dropShadow" result="effect3_dropShadow"/>
<feColorMatrix in="SourceAlpha" type="matrix" values="0 0 0 0 0 0 0 0 0 0 0 0 0 0 0 0 0 0 127 0"/>
<feOffset dx="-1"/>
<feColorMatrix type="matrix" values="0 0 0 0 1 0 0 0 0 1 0 0 0 0 1 0 0 0 1 0"/>
<feBlend mode="normal" in2="effect3_dropShadow" result="effect4_dropShadow"/>
<feBlend mode="normal" in="SourceGraphic" in2="effect4_dropShadow" result="shape"/>
</filter>
<filter id="filter2_dddd" x="15.7457" y="136" width="49.256" height="22.5" filterUnits="userSpaceOnUse" color-interpolation-filters="sRGB">
<feFlood flood-opacity="0" result="BackgroundImageFix"/>
<feColorMatrix in="SourceAlpha" type="matrix" values="0 0 0 0 0 0 0 0 0 0 0 0 0 0 0 0 0 0 127 0"/>
<feOffset dy="-1"/>
<feColorMatrix type="matrix" values="0 0 0 0 1 0 0 0 0 1 0 0 0 0 1 0 0 0 1 0"/>
<feBlend mode="normal" in2="BackgroundImageFix" result="effect1_dropShadow"/>
<feColorMatrix in="SourceAlpha" type="matrix" values="0 0 0 0 0 0 0 0 0 0 0 0 0 0 0 0 0 0 127 0"/>
<feOffset dy="1"/>
<feColorMatrix type="matrix" values="0 0 0 0 1 0 0 0 0 1 0 0 0 0 1 0 0 0 1 0"/>
<feBlend mode="normal" in2="effect1_dropShadow" result="effect2_dropShadow"/>
<feColorMatrix in="SourceAlpha" type="matrix" values="0 0 0 0 0 0 0 0 0 0 0 0 0 0 0 0 0 0 127 0"/>
<feOffset dx="1"/>
<feColorMatrix type="matrix" values="0 0 0 0 1 0 0 0 0 1 0 0 0 0 1 0 0 0 1 0"/>
<feBlend mode="normal" in2="effect2_dropShadow" result="effect3_dropShadow"/>
<feColorMatrix in="SourceAlpha" type="matrix" values="0 0 0 0 0 0 0 0 0 0 0 0 0 0 0 0 0 0 127 0"/>
<feOffset dx="-1"/>
<feColorMatrix type="matrix" values="0 0 0 0 1 0 0 0 0 1 0 0 0 0 1 0 0 0 1 0"/>
<feBlend mode="normal" in2="effect3_dropShadow" result="effect4_dropShadow"/>
<feBlend mode="normal" in="SourceGraphic" in2="effect4_dropShadow" result="shape"/>
</filter>
</defs>
</svg>
