<svg width="273" height="251" viewBox="0 0 273 251" fill="none" xmlns="http://www.w3.org/2000/svg">
<path d="M252.143 30.2617C252.143 31.9141 251.949 33.373 251.562 34.6387C251.188 35.8926 250.643 36.9473 249.928 37.8027C249.213 38.6465 248.34 39.2852 247.309 39.7188C246.277 40.1523 245.117 40.3691 243.828 40.3691C242.551 40.3691 241.396 40.1523 240.365 39.7188C239.334 39.2852 238.455 38.6465 237.729 37.8027C237.014 36.9473 236.457 35.8926 236.059 34.6387C235.672 33.373 235.479 31.9141 235.479 30.2617V24.1445C235.479 22.4922 235.672 21.0391 236.059 19.7852C236.445 18.5195 236.996 17.4648 237.711 16.6211C238.438 15.7656 239.311 15.1211 240.33 14.6875C241.361 14.2539 242.516 14.0371 243.793 14.0371C245.082 14.0371 246.242 14.2539 247.273 14.6875C248.305 15.1211 249.178 15.7656 249.893 16.6211C250.619 17.4648 251.176 18.5195 251.562 19.7852C251.949 21.0391 252.143 22.4922 252.143 24.1445V30.2617ZM240.4 28.1523L247.221 23.0723C247.186 21.3496 246.887 20.0723 246.324 19.2402C245.762 18.4082 244.918 17.9922 243.793 17.9922C242.656 17.9922 241.807 18.4316 241.244 19.3105C240.682 20.1895 240.4 21.543 240.4 23.3711V28.1523ZM247.221 26.3945L240.4 31.457C240.459 33.1445 240.77 34.3984 241.332 35.2188C241.895 36.0273 242.727 36.4316 243.828 36.4316C244.977 36.4316 245.826 35.9863 246.377 35.0957C246.939 34.2051 247.221 32.8398 247.221 31V26.3945Z" fill="#C84646"/>
<path fill-rule="evenodd" clip-rule="evenodd" d="M250.691 38.4492C249.873 39.4144 248.871 40.1467 247.696 40.6406C246.525 41.133 245.23 41.3691 243.828 41.3691C242.436 41.3691 241.148 41.1326 239.978 40.6406C238.805 40.1473 237.799 39.4168 236.971 38.4553L236.966 38.4496L236.961 38.444C236.149 37.4726 235.536 36.2973 235.106 34.9415L235.102 34.9309C234.68 33.5505 234.479 31.9896 234.479 30.2617V24.1445C234.479 22.4174 234.68 20.8617 235.103 19.4917C235.521 18.1217 236.13 16.9401 236.948 15.9747L236.949 15.9737C237.775 15.0013 238.774 14.2626 239.939 13.7673L239.942 13.7657C241.113 13.2737 242.401 13.0371 243.793 13.0371C245.195 13.0371 246.49 13.2732 247.661 13.7657C248.837 14.26 249.838 14.9986 250.655 15.9742C251.485 16.9396 252.1 18.1215 252.519 19.492C252.941 20.862 253.143 22.4176 253.143 24.1445V30.2617C253.143 31.9885 252.941 33.5484 252.52 34.9282C252.113 36.2885 251.51 37.4686 250.695 38.444L250.691 38.4492ZM251.562 34.6387C251.949 33.373 252.143 31.9141 252.143 30.2617V24.1445C252.143 22.4922 251.949 21.0391 251.562 19.7852C251.176 18.5195 250.619 17.4648 249.893 16.6211C249.178 15.7656 248.305 15.1211 247.273 14.6875C246.242 14.2539 245.082 14.0371 243.793 14.0371C242.516 14.0371 241.361 14.2539 240.33 14.6875C239.311 15.1211 238.438 15.7656 237.711 16.6211C236.996 17.4648 236.445 18.5195 236.059 19.7852C235.672 21.0391 235.479 22.4922 235.479 24.1445V30.2617C235.479 31.9141 235.672 33.373 236.059 34.6387C236.457 35.8926 237.014 36.9473 237.729 37.8027C238.455 38.6465 239.334 39.2852 240.365 39.7188C241.396 40.1523 242.551 40.3691 243.828 40.3691C245.117 40.3691 246.277 40.1523 247.309 39.7188C248.34 39.2852 249.213 38.6465 249.928 37.8027C250.643 36.9473 251.188 35.8926 251.562 34.6387ZM245.531 34.5617C245.943 33.9104 246.221 32.7744 246.221 31V28.3822L241.427 31.9402C241.523 33.2585 241.797 34.1271 242.155 34.6505C242.506 35.1536 243.01 35.4316 243.828 35.4316C244.67 35.4316 245.178 35.1331 245.526 34.5697L245.531 34.5617ZM241.332 35.2188C240.77 34.3984 240.459 33.1445 240.4 31.457L247.221 26.3945V31C247.221 32.8398 246.939 34.2051 246.377 35.0957C245.826 35.9863 244.977 36.4316 243.828 36.4316C242.727 36.4316 241.895 36.0273 241.332 35.2188ZM246.202 22.5844L241.4 26.1606V23.3711C241.4 21.6082 241.678 20.487 242.086 19.8496C242.446 19.2872 242.961 18.9922 243.793 18.9922C244.633 18.9922 245.144 19.2799 245.496 19.8003C245.855 20.3317 246.124 21.2227 246.202 22.5844ZM240.4 28.1523V23.3711C240.4 21.543 240.682 20.1895 241.244 19.3105C241.807 18.4316 242.656 17.9922 243.793 17.9922C244.918 17.9922 245.762 18.4082 246.324 19.2402C246.887 20.0723 247.186 21.3496 247.221 23.0723L240.4 28.1523Z" fill="white"/>
<path d="M251.844 51.6543H235.725V49H251.844V51.6543Z" fill="black"/>
<path fill-rule="evenodd" clip-rule="evenodd" d="M252.844 52.6543H234.725V48H252.844V52.6543ZM251.844 51.6543V49H235.725V51.6543H251.844Z" fill="white"/>
<path d="M245.803 75H244.177V64.2773L240.828 65.5518V64.0664L245.671 62.2031H245.803V75Z" fill="black"/>
<path fill-rule="evenodd" clip-rule="evenodd" d="M246.803 76H243.177V65.7279L239.828 67.0023V63.3797L245.485 61.2031H246.803V76ZM244.177 64.2773V75H245.803V62.2031H245.671L240.828 64.0664V65.5518L244.177 64.2773Z" fill="white"/>
<path d="M166.143 30.2617C166.143 31.9141 165.949 33.373 165.562 34.6387C165.188 35.8926 164.643 36.9473 163.928 37.8027C163.213 38.6465 162.34 39.2852 161.309 39.7188C160.277 40.1523 159.117 40.3691 157.828 40.3691C156.551 40.3691 155.396 40.1523 154.365 39.7188C153.334 39.2852 152.455 38.6465 151.729 37.8027C151.014 36.9473 150.457 35.8926 150.059 34.6387C149.672 33.373 149.479 31.9141 149.479 30.2617V24.1445C149.479 22.4922 149.672 21.0391 150.059 19.7852C150.445 18.5195 150.996 17.4648 151.711 16.6211C152.438 15.7656 153.311 15.1211 154.33 14.6875C155.361 14.2539 156.516 14.0371 157.793 14.0371C159.082 14.0371 160.242 14.2539 161.273 14.6875C162.305 15.1211 163.178 15.7656 163.893 16.6211C164.619 17.4648 165.176 18.5195 165.562 19.7852C165.949 21.0391 166.143 22.4922 166.143 24.1445V30.2617ZM154.4 28.1523L161.221 23.0723C161.186 21.3496 160.887 20.0723 160.324 19.2402C159.762 18.4082 158.918 17.9922 157.793 17.9922C156.656 17.9922 155.807 18.4316 155.244 19.3105C154.682 20.1895 154.4 21.543 154.4 23.3711V28.1523ZM161.221 26.3945L154.4 31.457C154.459 33.1445 154.77 34.3984 155.332 35.2188C155.895 36.0273 156.727 36.4316 157.828 36.4316C158.977 36.4316 159.826 35.9863 160.377 35.0957C160.939 34.2051 161.221 32.8398 161.221 31V26.3945Z" fill="#C84646"/>
<path fill-rule="evenodd" clip-rule="evenodd" d="M164.691 38.4492C163.873 39.4144 162.871 40.1467 161.696 40.6406C160.525 41.133 159.23 41.3691 157.828 41.3691C156.436 41.3691 155.148 41.1326 153.978 40.6406C152.805 40.1473 151.799 39.4168 150.971 38.4553L150.966 38.4496L150.961 38.444C150.149 37.4726 149.536 36.2973 149.106 34.9415L149.102 34.9309C148.68 33.5505 148.479 31.9896 148.479 30.2617V24.1445C148.479 22.4174 148.68 20.8617 149.103 19.4917C149.521 18.1217 150.13 16.9401 150.948 15.9747L150.949 15.9737C151.775 15.0013 152.774 14.2626 153.939 13.7673L153.942 13.7657C155.113 13.2737 156.401 13.0371 157.793 13.0371C159.195 13.0371 160.49 13.2732 161.661 13.7657C162.837 14.26 163.838 14.9986 164.655 15.9742C165.485 16.9396 166.1 18.1215 166.519 19.492C166.941 20.862 167.143 22.4176 167.143 24.1445V30.2617C167.143 31.9885 166.941 33.5484 166.52 34.9282C166.113 36.2885 165.51 37.4686 164.695 38.444L164.691 38.4492ZM165.562 34.6387C165.949 33.373 166.143 31.9141 166.143 30.2617V24.1445C166.143 22.4922 165.949 21.0391 165.562 19.7852C165.176 18.5195 164.619 17.4648 163.893 16.6211C163.178 15.7656 162.305 15.1211 161.273 14.6875C160.242 14.2539 159.082 14.0371 157.793 14.0371C156.516 14.0371 155.361 14.2539 154.33 14.6875C153.311 15.1211 152.438 15.7656 151.711 16.6211C150.996 17.4648 150.445 18.5195 150.059 19.7852C149.672 21.0391 149.479 22.4922 149.479 24.1445V30.2617C149.479 31.9141 149.672 33.373 150.059 34.6387C150.457 35.8926 151.014 36.9473 151.729 37.8027C152.455 38.6465 153.334 39.2852 154.365 39.7188C155.396 40.1523 156.551 40.3691 157.828 40.3691C159.117 40.3691 160.277 40.1523 161.309 39.7188C162.34 39.2852 163.213 38.6465 163.928 37.8027C164.643 36.9473 165.188 35.8926 165.562 34.6387ZM159.531 34.5617C159.943 33.9104 160.221 32.7744 160.221 31V28.3822L155.427 31.9402C155.523 33.2585 155.797 34.1271 156.155 34.6505C156.506 35.1536 157.01 35.4316 157.828 35.4316C158.67 35.4316 159.178 35.1331 159.526 34.5697L159.531 34.5617ZM155.332 35.2188C154.77 34.3984 154.459 33.1445 154.4 31.457L161.221 26.3945V31C161.221 32.8398 160.939 34.2051 160.377 35.0957C159.826 35.9863 158.977 36.4316 157.828 36.4316C156.727 36.4316 155.895 36.0273 155.332 35.2188ZM160.202 22.5844L155.4 26.1606V23.3711C155.4 21.6082 155.678 20.487 156.086 19.8496C156.446 19.2872 156.961 18.9922 157.793 18.9922C158.633 18.9922 159.144 19.2799 159.496 19.8003C159.855 20.3317 160.124 21.2227 160.202 22.5844ZM154.4 28.1523V23.3711C154.4 21.543 154.682 20.1895 155.244 19.3105C155.807 18.4316 156.656 17.9922 157.793 17.9922C158.918 17.9922 159.762 18.4082 160.324 19.2402C160.887 20.0723 161.186 21.3496 161.221 23.0723L154.4 28.1523Z" fill="white"/>
<path d="M165.844 51.6543H149.725V49H165.844V51.6543Z" fill="black"/>
<path fill-rule="evenodd" clip-rule="evenodd" d="M166.844 52.6543H148.725V48H166.844V52.6543ZM165.844 51.6543V49H149.725V51.6543H165.844Z" fill="white"/>
<path d="M161.121 70.7021H162.905V72.0293H161.121V75H159.495V72.0293H153.659V71.0713L159.39 62.2031H161.121V70.7021ZM155.461 70.7021H159.495V64.3652L159.231 64.8574L155.461 70.7021Z" fill="black"/>
<path fill-rule="evenodd" clip-rule="evenodd" d="M159.495 70.7021V64.3652L159.231 64.8574L155.461 70.7021H159.495ZM159.39 62.2031H161.121V70.7021H162.905V72.0293H161.121V75H159.495V72.0293H153.659V71.0713L159.39 62.2031ZM158.495 73.0293H152.659V70.7763L158.845 61.2031H162.121V69.7021H163.905V73.0293H162.121V76H158.495V73.0293ZM157.296 69.7021H158.495V67.8435L157.296 69.7021Z" fill="white"/>
<path d="M123.143 30.2617C123.143 31.9141 122.949 33.373 122.562 34.6387C122.188 35.8926 121.643 36.9473 120.928 37.8027C120.213 38.6465 119.34 39.2852 118.309 39.7188C117.277 40.1523 116.117 40.3691 114.828 40.3691C113.551 40.3691 112.396 40.1523 111.365 39.7188C110.334 39.2852 109.455 38.6465 108.729 37.8027C108.014 36.9473 107.457 35.8926 107.059 34.6387C106.672 33.373 106.479 31.9141 106.479 30.2617V24.1445C106.479 22.4922 106.672 21.0391 107.059 19.7852C107.445 18.5195 107.996 17.4648 108.711 16.6211C109.438 15.7656 110.311 15.1211 111.33 14.6875C112.361 14.2539 113.516 14.0371 114.793 14.0371C116.082 14.0371 117.242 14.2539 118.273 14.6875C119.305 15.1211 120.178 15.7656 120.893 16.6211C121.619 17.4648 122.176 18.5195 122.562 19.7852C122.949 21.0391 123.143 22.4922 123.143 24.1445V30.2617ZM111.4 28.1523L118.221 23.0723C118.186 21.3496 117.887 20.0723 117.324 19.2402C116.762 18.4082 115.918 17.9922 114.793 17.9922C113.656 17.9922 112.807 18.4316 112.244 19.3105C111.682 20.1895 111.4 21.543 111.4 23.3711V28.1523ZM118.221 26.3945L111.4 31.457C111.459 33.1445 111.77 34.3984 112.332 35.2188C112.895 36.0273 113.727 36.4316 114.828 36.4316C115.977 36.4316 116.826 35.9863 117.377 35.0957C117.939 34.2051 118.221 32.8398 118.221 31V26.3945Z" fill="#C84646"/>
<path fill-rule="evenodd" clip-rule="evenodd" d="M121.691 38.4492C120.873 39.4144 119.871 40.1467 118.696 40.6406C117.525 41.133 116.23 41.3691 114.828 41.3691C113.436 41.3691 112.148 41.1326 110.978 40.6406C109.805 40.1473 108.799 39.4168 107.971 38.4553L107.966 38.4496L107.961 38.444C107.149 37.4726 106.536 36.2973 106.106 34.9415L106.102 34.9309C105.68 33.5505 105.479 31.9896 105.479 30.2617V24.1445C105.479 22.4174 105.68 20.8617 106.103 19.4917C106.521 18.1217 107.13 16.9401 107.948 15.9747L107.949 15.9737C108.775 15.0013 109.774 14.2626 110.939 13.7673L110.942 13.7657C112.113 13.2737 113.401 13.0371 114.793 13.0371C116.195 13.0371 117.49 13.2732 118.661 13.7657C119.837 14.26 120.838 14.9986 121.655 15.9742C122.485 16.9396 123.1 18.1215 123.519 19.492C123.941 20.862 124.143 22.4176 124.143 24.1445V30.2617C124.143 31.9885 123.941 33.5484 123.52 34.9282C123.113 36.2885 122.51 37.4686 121.695 38.444L121.691 38.4492ZM122.562 34.6387C122.949 33.373 123.143 31.9141 123.143 30.2617V24.1445C123.143 22.4922 122.949 21.0391 122.562 19.7852C122.176 18.5195 121.619 17.4648 120.893 16.6211C120.178 15.7656 119.305 15.1211 118.273 14.6875C117.242 14.2539 116.082 14.0371 114.793 14.0371C113.516 14.0371 112.361 14.2539 111.33 14.6875C110.311 15.1211 109.438 15.7656 108.711 16.6211C107.996 17.4648 107.445 18.5195 107.059 19.7852C106.672 21.0391 106.479 22.4922 106.479 24.1445V30.2617C106.479 31.9141 106.672 33.373 107.059 34.6387C107.457 35.8926 108.014 36.9473 108.729 37.8027C109.455 38.6465 110.334 39.2852 111.365 39.7188C112.396 40.1523 113.551 40.3691 114.828 40.3691C116.117 40.3691 117.277 40.1523 118.309 39.7188C119.34 39.2852 120.213 38.6465 120.928 37.8027C121.643 36.9473 122.188 35.8926 122.562 34.6387ZM116.531 34.5617C116.943 33.9104 117.221 32.7744 117.221 31V28.3822L112.427 31.9402C112.523 33.2585 112.797 34.1271 113.155 34.6505C113.506 35.1536 114.01 35.4316 114.828 35.4316C115.67 35.4316 116.178 35.1331 116.526 34.5697L116.531 34.5617ZM112.332 35.2188C111.77 34.3984 111.459 33.1445 111.4 31.457L118.221 26.3945V31C118.221 32.8398 117.939 34.2051 117.377 35.0957C116.826 35.9863 115.977 36.4316 114.828 36.4316C113.727 36.4316 112.895 36.0273 112.332 35.2188ZM117.202 22.5844L112.4 26.1606V23.3711C112.4 21.6082 112.678 20.487 113.086 19.8496C113.446 19.2872 113.961 18.9922 114.793 18.9922C115.633 18.9922 116.144 19.2799 116.496 19.8003C116.855 20.3317 117.124 21.2227 117.202 22.5844ZM111.4 28.1523V23.3711C111.4 21.543 111.682 20.1895 112.244 19.3105C112.807 18.4316 113.656 17.9922 114.793 17.9922C115.918 17.9922 116.762 18.4082 117.324 19.2402C117.887 20.0723 118.186 21.3496 118.221 23.0723L111.4 28.1523Z" fill="white"/>
<path d="M122.844 51.6543H106.725V49H122.844V51.6543Z" fill="black"/>
<path fill-rule="evenodd" clip-rule="evenodd" d="M123.844 52.6543H105.725V48H123.844V52.6543ZM122.844 51.6543V49H106.725V51.6543H122.844Z" fill="white"/>
<path d="M119.404 65.543C119.398 66.1816 119.226 66.75 118.886 67.248C118.546 67.7461 118.092 68.1357 117.523 68.417C117.852 68.5576 118.147 68.7334 118.411 68.9443C118.681 69.1494 118.909 69.3867 119.097 69.6562C119.29 69.9258 119.437 70.2188 119.536 70.5352C119.642 70.8516 119.694 71.1885 119.694 71.5459C119.694 72.126 119.586 72.6416 119.369 73.0928C119.158 73.5439 118.868 73.9248 118.499 74.2354C118.136 74.54 117.708 74.7744 117.216 74.9385C116.724 75.0967 116.196 75.1758 115.634 75.1758C115.06 75.1758 114.523 75.0967 114.025 74.9385C113.533 74.7803 113.103 74.5488 112.733 74.2441C112.37 73.9336 112.083 73.5527 111.872 73.1016C111.661 72.6504 111.556 72.1318 111.556 71.5459C111.556 71.1885 111.605 70.8516 111.705 70.5352C111.805 70.2129 111.948 69.9199 112.136 69.6562C112.323 69.3867 112.549 69.1465 112.812 68.9355C113.076 68.7246 113.372 68.5488 113.7 68.4082C113.419 68.2676 113.164 68.1006 112.936 67.9072C112.707 67.708 112.514 67.4883 112.355 67.248C112.197 67.002 112.074 66.7354 111.986 66.4482C111.898 66.1611 111.854 65.8594 111.854 65.543C111.854 64.9863 111.948 64.4912 112.136 64.0576C112.323 63.6182 112.581 63.249 112.909 62.9502C113.243 62.6514 113.639 62.4229 114.096 62.2646C114.559 62.1064 115.062 62.0273 115.607 62.0273C116.146 62.0273 116.647 62.1064 117.11 62.2646C117.573 62.4229 117.975 62.6514 118.314 62.9502C118.654 63.249 118.921 63.6182 119.114 64.0576C119.308 64.4912 119.404 64.9863 119.404 65.543ZM118.068 71.5107C118.068 71.1533 118.007 70.8252 117.884 70.5264C117.767 70.2275 117.6 69.9727 117.383 69.7617C117.166 69.5449 116.905 69.3779 116.601 69.2607C116.302 69.1436 115.974 69.085 115.616 69.085C115.247 69.085 114.913 69.1436 114.614 69.2607C114.315 69.3779 114.061 69.5449 113.85 69.7617C113.639 69.9727 113.475 70.2275 113.357 70.5264C113.246 70.8252 113.19 71.1533 113.19 71.5107C113.19 71.8799 113.246 72.2109 113.357 72.5039C113.475 72.791 113.639 73.0342 113.85 73.2334C114.061 73.4326 114.315 73.585 114.614 73.6904C114.919 73.7959 115.259 73.8486 115.634 73.8486C115.991 73.8486 116.319 73.7959 116.618 73.6904C116.917 73.585 117.172 73.4326 117.383 73.2334C117.6 73.0342 117.767 72.791 117.884 72.5039C118.007 72.2109 118.068 71.8799 118.068 71.5107ZM117.77 65.5693C117.77 65.2471 117.714 64.9512 117.603 64.6816C117.497 64.4121 117.348 64.1807 117.154 63.9873C116.967 63.7881 116.741 63.6357 116.478 63.5303C116.214 63.4189 115.924 63.3633 115.607 63.3633C115.291 63.3633 115.004 63.416 114.746 63.5215C114.488 63.6211 114.266 63.7676 114.078 63.9609C113.891 64.1543 113.744 64.3887 113.639 64.6641C113.539 64.9336 113.489 65.2354 113.489 65.5693C113.489 65.9033 113.539 66.2051 113.639 66.4746C113.744 66.7383 113.891 66.9668 114.078 67.1602C114.271 67.3477 114.497 67.4941 114.755 67.5996C115.019 67.6992 115.309 67.749 115.625 67.749C115.936 67.749 116.223 67.6992 116.486 67.5996C116.75 67.4941 116.976 67.3477 117.163 67.1602C117.356 66.9668 117.506 66.7354 117.611 66.4658C117.717 66.1963 117.77 65.8975 117.77 65.5693Z" fill="black"/>
<path fill-rule="evenodd" clip-rule="evenodd" d="M120.404 65.5521L120.404 65.5521C120.397 66.3764 120.17 67.1402 119.712 67.8117C119.578 68.0073 119.431 68.1895 119.272 68.3583C119.513 68.5733 119.728 68.8137 119.913 69.0792C120.165 69.431 120.357 69.8147 120.487 70.2269C120.627 70.6499 120.694 71.0915 120.694 71.5459C120.694 72.2503 120.562 72.9161 120.273 73.5211C120.003 74.0974 119.625 74.5946 119.143 75.0006L119.142 75.0015C118.673 75.3943 118.132 75.6871 117.532 75.8872L117.522 75.8906L117.522 75.8905C116.922 76.0832 116.291 76.1758 115.634 76.1758C114.967 76.1758 114.328 76.0838 113.723 75.8916L113.719 75.8905C113.116 75.6967 112.571 75.407 112.097 75.0154L112.09 75.0099L112.084 75.0043C111.607 74.5971 111.235 74.0999 110.966 73.5251C110.683 72.9199 110.556 72.2526 110.556 71.5459C110.556 71.0954 110.619 70.6574 110.75 70.2373C110.88 69.8205 111.068 69.4331 111.318 69.081C111.504 68.8144 111.717 68.5712 111.957 68.3517C111.796 68.1793 111.65 67.9948 111.52 67.798L111.514 67.7888L111.514 67.7888C111.305 67.4637 111.144 67.1133 111.03 66.741C110.912 66.354 110.854 65.9532 110.854 65.543C110.854 64.8747 110.967 64.2416 111.217 63.663C111.456 63.1027 111.794 62.613 112.236 62.2109L112.242 62.2049L112.242 62.205C112.683 61.8109 113.196 61.5178 113.769 61.3197L113.772 61.3184L113.772 61.3184C114.35 61.1208 114.965 61.0273 115.607 61.0273C116.245 61.0273 116.857 61.1212 117.434 61.3184C118.011 61.5155 118.529 61.8071 118.975 62.1992C119.43 62.5995 119.78 63.0892 120.029 63.6526C120.287 64.234 120.404 64.8708 120.404 65.543V65.5521ZM119.114 64.0576C118.921 63.6182 118.654 63.249 118.314 62.9502C117.975 62.6514 117.573 62.4229 117.11 62.2646C116.647 62.1064 116.146 62.0273 115.607 62.0273C115.062 62.0273 114.559 62.1064 114.096 62.2646C113.639 62.4229 113.243 62.6514 112.909 62.9502C112.581 63.249 112.323 63.6182 112.136 64.0576C111.948 64.4912 111.854 64.9863 111.854 65.543C111.854 65.8594 111.898 66.1611 111.986 66.4482C112.074 66.7354 112.197 67.002 112.355 67.248C112.475 67.4289 112.614 67.5982 112.773 67.7558C112.825 67.8075 112.879 67.858 112.936 67.9072C113.164 68.1006 113.419 68.2676 113.7 68.4082C113.372 68.5488 113.076 68.7246 112.812 68.9355C112.785 68.9574 112.758 68.9795 112.732 69.002C112.503 69.1965 112.304 69.4146 112.136 69.6562C111.948 69.9199 111.805 70.2129 111.705 70.5352C111.605 70.8516 111.556 71.1885 111.556 71.5459C111.556 72.1318 111.661 72.6504 111.872 73.1016C112.083 73.5527 112.37 73.9336 112.733 74.2441C113.103 74.5488 113.533 74.7803 114.025 74.9385C114.523 75.0967 115.06 75.1758 115.634 75.1758C116.196 75.1758 116.724 75.0967 117.216 74.9385C117.708 74.7744 118.136 74.54 118.499 74.2354C118.868 73.9248 119.158 73.5439 119.369 73.0928C119.586 72.6416 119.694 72.126 119.694 71.5459C119.694 71.1885 119.642 70.8516 119.536 70.5352C119.437 70.2188 119.29 69.9258 119.097 69.6562C118.929 69.415 118.728 69.1996 118.495 69.01C118.467 68.9878 118.439 68.9659 118.411 68.9443C118.147 68.7334 117.852 68.5576 117.523 68.417C117.877 68.2418 118.187 68.0246 118.452 67.7654C118.613 67.6084 118.758 67.4359 118.886 67.248C119.226 66.75 119.398 66.1816 119.404 65.543C119.404 64.9863 119.308 64.4912 119.114 64.0576ZM117.383 69.7617C117.166 69.5449 116.905 69.3779 116.601 69.2607C116.302 69.1436 115.974 69.085 115.616 69.085C115.247 69.085 114.913 69.1436 114.614 69.2607C114.315 69.3779 114.061 69.5449 113.85 69.7617C113.639 69.9727 113.475 70.2275 113.357 70.5264C113.246 70.8252 113.19 71.1533 113.19 71.5107C113.19 71.8799 113.246 72.2109 113.357 72.5039C113.475 72.791 113.639 73.0342 113.85 73.2334C114.061 73.4326 114.315 73.585 114.614 73.6904C114.919 73.7959 115.259 73.8486 115.634 73.8486C115.991 73.8486 116.319 73.7959 116.618 73.6904C116.917 73.585 117.172 73.4326 117.383 73.2334C117.6 73.0342 117.767 72.791 117.884 72.5039C118.007 72.2109 118.068 71.8799 118.068 71.5107C118.068 71.1533 118.007 70.8252 117.884 70.5264C117.767 70.2275 117.6 69.9727 117.383 69.7617ZM114.944 72.7464C115.128 72.8095 115.354 72.8486 115.634 72.8486C115.892 72.8486 116.106 72.8107 116.285 72.7474C116.465 72.6841 116.596 72.6011 116.696 72.5064L116.706 72.497L116.706 72.4971C116.809 72.4028 116.893 72.2842 116.958 72.126L116.962 72.1167L116.962 72.1167C117.026 71.9645 117.068 71.7682 117.068 71.5107C117.068 71.2701 117.027 71.073 116.959 70.9071L116.956 70.8993L116.953 70.8915C116.884 70.7169 116.794 70.5841 116.685 70.4784L116.676 70.4689L116.676 70.4688C116.564 70.3573 116.424 70.2644 116.242 70.1941L116.235 70.1917L116.235 70.1917C116.065 70.125 115.863 70.085 115.616 70.085C115.353 70.085 115.146 70.1264 114.979 70.1917C114.805 70.2602 114.672 70.3505 114.566 70.4591L114.557 70.4689L114.557 70.4688C114.452 70.5736 114.362 70.7069 114.292 70.8834C114.228 71.0563 114.19 71.262 114.19 71.5107C114.19 71.7734 114.229 71.9778 114.288 72.1374C114.354 72.2959 114.438 72.414 114.536 72.5064C114.636 72.6006 114.766 72.6832 114.944 72.7464ZM114.746 63.5215C114.488 63.6211 114.266 63.7676 114.078 63.9609C113.891 64.1543 113.744 64.3887 113.639 64.6641C113.539 64.9336 113.489 65.2354 113.489 65.5693C113.489 65.9033 113.539 66.2051 113.639 66.4746C113.744 66.7383 113.891 66.9668 114.078 67.1602C114.271 67.3477 114.497 67.4941 114.755 67.5996C115.019 67.6992 115.309 67.749 115.625 67.749C115.936 67.749 116.223 67.6992 116.486 67.5996C116.75 67.4941 116.976 67.3477 117.163 67.1602C117.356 66.9668 117.506 66.7354 117.611 66.4658C117.717 66.1963 117.77 65.8975 117.77 65.5693C117.77 65.2471 117.714 64.9512 117.603 64.6816C117.497 64.4121 117.348 64.1807 117.154 63.9873C116.967 63.7881 116.741 63.6357 116.478 63.5303C116.214 63.4189 115.924 63.3633 115.607 63.3633C115.291 63.3633 115.004 63.416 114.746 63.5215ZM116.124 66.6675C116.266 66.6093 116.373 66.5364 116.456 66.453C116.546 66.3629 116.622 66.2501 116.68 66.1014C116.734 65.9625 116.77 65.7893 116.77 65.5693C116.77 65.3643 116.735 65.1997 116.678 65.0634L116.675 65.0548L116.671 65.046C116.613 64.8973 116.537 64.7846 116.447 64.6944L116.436 64.6837L116.426 64.6727C116.342 64.5836 116.24 64.5122 116.106 64.4588L116.097 64.4552L116.089 64.4515C115.96 64.3974 115.804 64.3633 115.607 64.3633C115.403 64.3633 115.247 64.397 115.125 64.447L115.116 64.4507L115.106 64.4543C114.98 64.5032 114.88 64.5703 114.796 64.6571C114.712 64.7435 114.636 64.8578 114.575 65.0161C114.523 65.1574 114.489 65.3377 114.489 65.5693C114.489 65.7972 114.522 65.9754 114.572 66.1157C114.629 66.2535 114.701 66.3629 114.785 66.453C114.879 66.5409 114.988 66.6129 115.121 66.6688C115.256 66.7181 115.421 66.749 115.625 66.749C115.823 66.749 115.986 66.7183 116.124 66.6675Z" fill="white"/>
<path d="M204.449 40H199.51V20.3652L193.041 22.6855V18.4316L204.186 14.4062H204.449V40Z" fill="#C84646"/>
<path fill-rule="evenodd" clip-rule="evenodd" d="M205.449 41H198.51V21.7863L192.041 24.1066V17.7296L204.01 13.4062H205.449V41ZM199.51 20.3652V40H204.449V14.4062H204.186L193.041 18.4316V22.6855L199.51 20.3652Z" fill="white"/>
<path d="M208.844 51.6543H192.725V49H208.844V51.6543Z" fill="black"/>
<path fill-rule="evenodd" clip-rule="evenodd" d="M209.844 52.6543H191.725V48H209.844V52.6543ZM208.844 51.6543V49H192.725V51.6543H208.844Z" fill="white"/>
<path d="M205.378 75H196.993V73.8311L201.186 69.1729C201.561 68.7568 201.874 68.3877 202.126 68.0654C202.378 67.7432 202.58 67.4473 202.732 67.1777C202.885 66.9023 202.993 66.6445 203.058 66.4043C203.122 66.1582 203.154 65.9062 203.154 65.6484C203.154 65.332 203.102 65.0361 202.996 64.7607C202.896 64.4795 202.747 64.2363 202.548 64.0312C202.354 63.8262 202.117 63.665 201.836 63.5479C201.561 63.4248 201.247 63.3633 200.896 63.3633C200.468 63.3633 200.096 63.4248 199.779 63.5479C199.469 63.6709 199.208 63.8467 198.997 64.0752C198.792 64.2979 198.637 64.5703 198.531 64.8926C198.432 65.2148 198.382 65.5752 198.382 65.9736H196.747C196.747 65.4346 196.841 64.9277 197.028 64.4531C197.216 63.9727 197.485 63.5537 197.837 63.1963C198.194 62.8389 198.628 62.5547 199.138 62.3438C199.653 62.1328 200.239 62.0273 200.896 62.0273C201.499 62.0273 202.041 62.1182 202.521 62.2998C203.008 62.4756 203.418 62.7217 203.752 63.0381C204.086 63.3545 204.341 63.7295 204.517 64.1631C204.698 64.5967 204.789 65.0684 204.789 65.5781C204.789 65.959 204.725 66.3369 204.596 66.7119C204.467 67.0811 204.291 67.4473 204.068 67.8105C203.852 68.1738 203.597 68.5342 203.304 68.8916C203.017 69.2432 202.712 69.5947 202.39 69.9463L198.953 73.6729H205.378V75Z" fill="black"/>
<path fill-rule="evenodd" clip-rule="evenodd" d="M206.378 76H195.993V73.4473L200.442 68.5039C200.807 68.0994 201.105 67.7481 201.338 67.4495C201.567 67.1566 201.738 66.9038 201.86 66.6896C201.98 66.4707 202.052 66.291 202.091 66.148C202.133 65.9867 202.154 65.8209 202.154 65.6484C202.154 65.4453 202.121 65.2715 202.062 65.1184L202.058 65.1065L202.053 65.0946C202 64.9431 201.925 64.8253 201.831 64.728L201.825 64.7227L201.82 64.7173C201.731 64.6225 201.614 64.5385 201.451 64.4709L201.44 64.466L201.428 64.4609C201.3 64.4039 201.13 64.3633 200.896 64.3633C200.563 64.3633 200.32 64.4112 200.145 64.4787C199.965 64.5504 199.833 64.6435 199.732 64.753C199.637 64.8569 199.55 64.9976 199.484 65.1958C199.42 65.4055 199.382 65.6616 199.382 65.9736V66.9736H195.747V65.9736C195.747 65.3167 195.862 64.6852 196.097 64.0877C196.333 63.4855 196.675 62.9514 197.124 62.495L197.13 62.4892C197.588 62.0306 198.135 61.6763 198.755 61.4197L198.759 61.4182C199.414 61.1502 200.132 61.0273 200.896 61.0273C201.596 61.0273 202.259 61.1325 202.868 61.3618C203.465 61.5785 203.996 61.8916 204.44 62.3121C204.878 62.7273 205.213 63.2205 205.441 63.7821C205.677 64.3465 205.789 64.949 205.789 65.5781C205.789 66.0741 205.705 66.5617 205.541 67.037L205.54 67.0416C205.386 67.482 205.179 67.9109 204.924 68.328C204.68 68.7356 204.398 69.1344 204.078 69.5248C203.778 69.8916 203.461 70.2573 203.127 70.622L203.125 70.6242L201.236 72.6729H206.378V76ZM198.953 73.6729L202.39 69.9463C202.712 69.5947 203.017 69.2432 203.304 68.8916C203.597 68.5342 203.852 68.1738 204.068 67.8105C204.291 67.4473 204.467 67.0811 204.596 66.7119C204.725 66.3369 204.789 65.959 204.789 65.5781C204.789 65.0684 204.698 64.5967 204.517 64.1631C204.341 63.7295 204.086 63.3545 203.752 63.0381C203.418 62.7217 203.008 62.4756 202.521 62.2998C202.041 62.1182 201.499 62.0273 200.896 62.0273C200.239 62.0273 199.653 62.1328 199.138 62.3438C198.628 62.5547 198.194 62.8389 197.837 63.1963C197.485 63.5537 197.216 63.9727 197.028 64.4531C196.961 64.6225 196.906 64.796 196.863 64.9736C196.786 65.2936 196.747 65.627 196.747 65.9736H198.382C198.382 65.5752 198.432 65.2148 198.531 64.8926C198.637 64.5703 198.792 64.2979 198.997 64.0752C199.208 63.8467 199.469 63.6709 199.779 63.5479C200.096 63.4248 200.468 63.3633 200.896 63.3633C201.247 63.3633 201.561 63.4248 201.836 63.5479C202.117 63.665 202.354 63.8262 202.548 64.0312C202.747 64.2363 202.896 64.4795 202.996 64.7607C203.102 65.0361 203.154 65.332 203.154 65.6484C203.154 65.9062 203.122 66.1582 203.058 66.4043C202.993 66.6445 202.885 66.9023 202.732 67.1777C202.58 67.4473 202.378 67.7432 202.126 68.0654C201.874 68.3877 201.561 68.7568 201.186 69.1729L196.993 73.8311V75H205.378V73.6729H198.953Z" fill="white"/>
<g filter="url(#filter0_dddd)">
<path fill-rule="evenodd" clip-rule="evenodd" d="M208.071 99.3431L201.707 105.707C201.317 106.098 200.683 106.098 200.293 105.707L193.929 99.3431C193.538 98.9526 193.538 98.3195 193.929 97.9289C194.319 97.5384 194.953 97.5384 195.343 97.9289L200 102.586L200 88L202 88L202 102.586L206.657 97.9289C207.047 97.5384 207.681 97.5384 208.071 97.9289C208.462 98.3195 208.462 98.9526 208.071 99.3431Z" fill="black"/>
</g>
<g filter="url(#filter1_dddd)">
<path fill-rule="evenodd" clip-rule="evenodd" d="M143.071 207.343L136.707 213.707C136.317 214.098 135.683 214.098 135.293 213.707L128.929 207.343C128.538 206.953 128.538 206.319 128.929 205.929C129.319 205.538 129.953 205.538 130.343 205.929L135 210.586L135 196L137 196L137 210.586L141.657 205.929C142.047 205.538 142.681 205.538 143.071 205.929C143.462 206.319 143.462 206.953 143.071 207.343Z" fill="black"/>
</g>
<path d="M75.4492 40H70.5098V20.3652L64.041 22.6855V18.4316L75.1855 14.4062H75.4492V40Z" fill="#C84646"/>
<path fill-rule="evenodd" clip-rule="evenodd" d="M76.4492 41H69.5098V21.7863L63.041 24.1066V17.7296L75.0105 13.4062H76.4492V41ZM70.5098 20.3652V40H75.4492V14.4062H75.1855L64.041 18.4316V22.6855L70.5098 20.3652Z" fill="white"/>
<path d="M79.8438 51.6543H63.7246V49H79.8438V51.6543Z" fill="black"/>
<path fill-rule="evenodd" clip-rule="evenodd" d="M80.8438 52.6543H62.7246V48H80.8438V52.6543ZM79.8438 51.6543V49H63.7246V51.6543H79.8438Z" fill="white"/>
<path d="M67.8027 75H66.1768V64.2773L62.8281 65.5518V64.0664L67.6709 62.2031H67.8027V75Z" fill="black"/>
<path d="M79.334 62.1943V63.6533H79.1934C78.6543 63.6533 78.1709 63.709 77.7432 63.8203C77.3213 63.9316 76.9492 64.084 76.627 64.2773C76.3047 64.4707 76.0264 64.7021 75.792 64.9717C75.5635 65.2354 75.373 65.5254 75.2207 65.8418C75.0684 66.1582 74.9512 66.4893 74.8691 66.835C74.7871 67.1807 74.7344 67.5322 74.7109 67.8896C74.8633 67.708 75.0391 67.541 75.2383 67.3887C75.4375 67.2305 75.6514 67.0957 75.8799 66.9844C76.1143 66.8672 76.3633 66.7764 76.627 66.7119C76.8965 66.6416 77.1777 66.6064 77.4707 66.6064C78.1094 66.6064 78.6602 66.7295 79.123 66.9756C79.5859 67.2158 79.9668 67.5352 80.2656 67.9336C80.5645 68.332 80.7842 68.7832 80.9248 69.2871C81.0654 69.791 81.1357 70.3037 81.1357 70.8252C81.1357 71.4229 81.0508 71.9854 80.8809 72.5127C80.7168 73.04 80.4678 73.5029 80.1338 73.9014C79.7998 74.2939 79.3838 74.6045 78.8857 74.833C78.3936 75.0615 77.8223 75.1758 77.1719 75.1758C76.709 75.1758 76.2842 75.1084 75.8975 74.9736C75.5166 74.8389 75.1738 74.6572 74.8691 74.4287C74.5645 74.1943 74.2979 73.9189 74.0693 73.6025C73.8408 73.2861 73.6504 72.9463 73.498 72.583C73.3516 72.2197 73.2402 71.8418 73.1641 71.4492C73.0879 71.0566 73.0498 70.6641 73.0498 70.2715V69.5068C73.0498 68.9209 73.085 68.335 73.1553 67.749C73.2314 67.1572 73.3574 66.5918 73.5332 66.0527C73.709 65.5137 73.9463 65.0098 74.2451 64.541C74.5439 64.0664 74.9189 63.6562 75.3701 63.3105C75.8271 62.9648 76.3691 62.6924 76.9961 62.4932C77.623 62.2939 78.3555 62.1943 79.1934 62.1943H79.334ZM77.207 67.96C76.9316 67.96 76.665 68.0039 76.4072 68.0918C76.1494 68.1797 75.9092 68.3027 75.6865 68.4609C75.4639 68.6191 75.2676 68.8096 75.0977 69.0322C74.9277 69.2549 74.793 69.501 74.6934 69.7705V70.3154C74.6934 70.8779 74.7607 71.3789 74.8955 71.8184C75.0303 72.252 75.2119 72.6182 75.4404 72.917C75.6689 73.2158 75.9326 73.4443 76.2314 73.6025C76.5303 73.7549 76.8438 73.8311 77.1719 73.8311C77.5527 73.8311 77.8896 73.7578 78.1826 73.6113C78.4756 73.4648 78.7217 73.2627 78.9209 73.0049C79.126 72.7471 79.2783 72.4395 79.3779 72.082C79.4834 71.7188 79.5361 71.3262 79.5361 70.9043C79.5361 70.5293 79.4893 70.166 79.3955 69.8145C79.3018 69.457 79.1582 69.1406 78.9648 68.8652C78.7715 68.5898 78.5283 68.3701 78.2354 68.2061C77.9424 68.042 77.5996 67.96 77.207 67.96Z" fill="black"/>
<path fill-rule="evenodd" clip-rule="evenodd" d="M68.8027 76H65.1768V65.7279L61.8281 67.0023V63.3797L67.4852 61.2031H68.8027V76ZM66.1768 64.2773V75H67.8027V62.2031H67.6709L62.8281 64.0664V65.5518L66.1768 64.2773ZM80.334 61.1943V64.6533H79.1934C78.7222 64.6533 78.3262 64.7021 77.9966 64.7877C77.6524 64.8786 77.3707 64.9973 77.1414 65.1348C76.9048 65.2768 76.7089 65.4414 76.5471 65.6273C76.5205 65.658 76.4946 65.6891 76.4695 65.7207C76.7956 65.6438 77.1301 65.6064 77.4707 65.6064C78.2359 65.6064 78.9533 65.7539 79.5879 66.0902C80.1758 66.396 80.6734 66.8106 81.0656 67.3336C81.4427 67.8363 81.7157 68.4009 81.888 69.0183C82.053 69.6094 82.1357 70.2126 82.1357 70.8252C82.1357 71.5171 82.0374 72.1821 81.8342 72.8147C81.6332 73.4585 81.3234 74.0389 80.9002 74.5438L80.8955 74.5494C80.4616 75.0594 79.926 75.4556 79.3048 75.741C78.6576 76.041 77.9385 76.1758 77.1719 76.1758C76.6114 76.1758 76.0737 76.094 75.5684 75.9179L75.5639 75.9164C75.0933 75.7498 74.6597 75.5216 74.2691 75.2287L74.2594 75.2214C73.8769 74.9271 73.5429 74.5816 73.2587 74.188C72.9851 73.8093 72.7574 73.4026 72.5759 72.9697L72.5705 72.957C72.3996 72.5332 72.2705 72.0937 72.1824 71.6397C72.0942 71.1855 72.0498 70.7292 72.0498 70.2715V69.5068C72.0498 68.8808 72.0874 68.2551 72.1624 67.6299L72.1634 67.6214C72.2471 66.9708 72.3864 66.3442 72.5825 65.7427C72.7836 65.126 73.0561 64.5462 73.4005 64.0057C73.7631 63.4304 74.2186 62.9331 74.7619 62.5168L74.7668 62.513C75.3268 62.0895 75.9738 61.7687 76.6933 61.5401C77.4407 61.3026 78.2794 61.1943 79.1934 61.1943H80.334ZM74.2451 64.541C73.9463 65.0098 73.709 65.5137 73.5332 66.0527C73.3574 66.5918 73.2314 67.1572 73.1553 67.749C73.085 68.335 73.0498 68.9209 73.0498 69.5068V70.2715C73.0498 70.6641 73.0879 71.0566 73.1641 71.4492C73.2402 71.8418 73.3516 72.2197 73.498 72.583C73.6504 72.9463 73.8408 73.2861 74.0693 73.6025C74.2979 73.9189 74.5645 74.1943 74.8691 74.4287C75.1738 74.6572 75.5166 74.8389 75.8975 74.9736C76.2842 75.1084 76.709 75.1758 77.1719 75.1758C77.8223 75.1758 78.3936 75.0615 78.8857 74.833C79.3838 74.6045 79.7998 74.2939 80.1338 73.9014C80.4678 73.5029 80.7168 73.04 80.8809 72.5127C81.0508 71.9854 81.1357 71.4229 81.1357 70.8252C81.1357 70.3037 81.0654 69.791 80.9248 69.2871C80.7842 68.7832 80.5645 68.332 80.2656 67.9336C79.9668 67.5352 79.5859 67.2158 79.123 66.9756C78.6602 66.7295 78.1094 66.6064 77.4707 66.6064C77.1777 66.6064 76.8965 66.6416 76.627 66.7119C76.3633 66.7764 76.1143 66.8672 75.8799 66.9844C75.8732 66.9876 75.8665 66.9909 75.8598 66.9942C75.8259 67.011 75.7923 67.0283 75.7591 67.0461C75.5756 67.1445 75.402 67.2587 75.2383 67.3887C75.0391 67.541 74.8633 67.708 74.7109 67.8896C74.7328 67.5559 74.7802 67.2273 74.8532 66.9038C74.8543 66.899 74.8554 66.8942 74.8565 66.8894C74.8606 66.8712 74.8648 66.8531 74.8691 66.835C74.9109 66.6591 74.9617 66.487 75.0216 66.3187C75.0795 66.1562 75.1459 65.9972 75.2207 65.8418C75.373 65.5254 75.5635 65.2354 75.792 64.9717C76.0264 64.7021 76.3047 64.4707 76.627 64.2773C76.9492 64.084 77.3213 63.9316 77.7432 63.8203C78.1709 63.709 78.6543 63.6533 79.1934 63.6533H79.334V62.1943H79.1934C78.8934 62.1943 78.6069 62.2071 78.334 62.2326C77.8446 62.2784 77.3986 62.3653 76.9961 62.4932C76.3691 62.6924 75.8271 62.9648 75.3701 63.3105C74.9189 63.6562 74.5439 64.0664 74.2451 64.541ZM79.3955 69.8145C79.3018 69.457 79.1582 69.1406 78.9648 68.8652C78.7715 68.5898 78.5283 68.3701 78.2354 68.2061C77.9424 68.042 77.5996 67.96 77.207 67.96C76.9316 67.96 76.665 68.0039 76.4072 68.0918C76.1494 68.1797 75.9092 68.3027 75.6865 68.4609C75.4639 68.6191 75.2676 68.8096 75.0977 69.0322C74.9277 69.2549 74.793 69.501 74.6934 69.7705V70.3154C74.6934 70.8779 74.7607 71.3789 74.8955 71.8184C75.0303 72.252 75.2119 72.6182 75.4404 72.917C75.6689 73.2158 75.9326 73.4443 76.2314 73.6025C76.5303 73.7549 76.8438 73.8311 77.1719 73.8311C77.5527 73.8311 77.8896 73.7578 78.1826 73.6113C78.4756 73.4648 78.7217 73.2627 78.9209 73.0049C79.126 72.7471 79.2783 72.4395 79.3779 72.082C79.4834 71.7188 79.5361 71.3262 79.5361 70.9043C79.5361 70.5293 79.4893 70.166 79.3955 69.8145ZM76.6926 72.7151C76.8516 72.795 77.0076 72.8311 77.1719 72.8311C77.4227 72.8311 77.6022 72.7835 77.7354 72.7169C77.8946 72.6373 78.0229 72.5316 78.1296 72.3934L78.1382 72.3823C78.2501 72.2417 78.3464 72.0583 78.4146 71.8136L78.4175 71.8032C78.4939 71.5403 78.5361 71.2425 78.5361 70.9043C78.5361 70.6136 78.4999 70.3371 78.4293 70.0721L78.4282 70.0682C78.3617 69.8144 78.2651 69.6089 78.1464 69.4399C78.0391 69.287 77.9085 69.1692 77.7467 69.0786C77.6266 69.0113 77.4576 68.96 77.207 68.96C77.0402 68.96 76.8827 68.9862 76.7299 69.0383C76.5637 69.0949 76.4099 69.1737 76.2657 69.2761C76.1271 69.3746 76.0031 69.4941 75.8926 69.6389C75.8156 69.7399 75.7491 69.8492 75.6934 69.9685V70.3154C75.6934 70.799 75.7514 71.1977 75.851 71.5233C75.9578 71.8664 76.0909 72.1214 76.2348 72.3095C76.3835 72.504 76.5372 72.6316 76.6926 72.7151Z" fill="white"/>
<g filter="url(#filter2_dddd)">
<path fill-rule="evenodd" clip-rule="evenodd" d="M79.0711 99.3431L72.7071 105.707C72.3166 106.098 71.6834 106.098 71.2929 105.707L64.9289 99.3431C64.5384 98.9526 64.5384 98.3195 64.9289 97.9289C65.3194 97.5384 65.9526 97.5384 66.3431 97.9289L71 102.586L71 88L73 88L73 102.586L77.6568 97.9289C78.0474 97.5384 78.6805 97.5384 79.0711 97.9289C79.4616 98.3195 79.4616 98.9526 79.0711 99.3431Z" fill="black"/>
</g>
<path d="M32.4492 40H27.5098V20.3652L21.041 22.6855V18.4316L32.1855 14.4062H32.4492V40Z" fill="#C84646"/>
<path fill-rule="evenodd" clip-rule="evenodd" d="M33.4492 41H26.5098V21.7863L20.041 24.1066V17.7296L32.0105 13.4062H33.4492V41ZM27.5098 20.3652V40H32.4492V14.4062H32.1855L21.041 18.4316V22.6855L27.5098 20.3652Z" fill="white"/>
<path d="M36.8438 51.6543H20.7246V49H36.8438V51.6543Z" fill="black"/>
<path fill-rule="evenodd" clip-rule="evenodd" d="M37.8438 52.6543H19.7246V48H37.8438V52.6543ZM36.8438 51.6543V49H20.7246V51.6543H36.8438Z" fill="white"/>
<path d="M21.4277 67.8193H22.5879C22.998 67.8193 23.3584 67.7637 23.6689 67.6523C23.9854 67.541 24.249 67.3887 24.46 67.1953C24.6768 67.002 24.8408 66.7705 24.9521 66.501C25.0635 66.2314 25.1191 65.9355 25.1191 65.6133C25.1191 64.8691 24.9287 64.3096 24.5479 63.9346C24.167 63.5537 23.6104 63.3633 22.8779 63.3633C22.5322 63.3633 22.2158 63.416 21.9287 63.5215C21.6475 63.6211 21.4043 63.7676 21.1992 63.9609C21 64.1543 20.8447 64.3857 20.7334 64.6553C20.6221 64.9248 20.5664 65.2266 20.5664 65.5605H18.9316C18.9316 65.0742 19.0254 64.6172 19.2129 64.1895C19.4062 63.7559 19.6758 63.3809 20.0215 63.0645C20.3672 62.7422 20.7803 62.4902 21.2607 62.3086C21.7471 62.1211 22.2861 62.0273 22.8779 62.0273C23.4521 62.0273 23.9766 62.1064 24.4512 62.2646C24.9258 62.417 25.333 62.6455 25.6729 62.9502C26.0127 63.2549 26.2764 63.6328 26.4639 64.084C26.6514 64.5352 26.7451 65.0566 26.7451 65.6484C26.7451 65.8945 26.707 66.1494 26.6309 66.4131C26.5547 66.6768 26.4375 66.9346 26.2793 67.1865C26.1211 67.4326 25.916 67.667 25.6641 67.8896C25.418 68.1064 25.1221 68.2881 24.7764 68.4346C25.1924 68.5693 25.5381 68.7451 25.8135 68.9619C26.0947 69.1787 26.3174 69.4219 26.4814 69.6914C26.6514 69.9609 26.7686 70.2451 26.833 70.5439C26.9033 70.8428 26.9385 71.1387 26.9385 71.4316C26.9385 72.0293 26.8359 72.5596 26.6309 73.0225C26.4258 73.4854 26.1416 73.8779 25.7783 74.2002C25.415 74.5166 24.9844 74.7598 24.4863 74.9297C23.9941 75.0938 23.4609 75.1758 22.8867 75.1758C22.3242 75.1758 21.7939 75.0967 21.2959 74.9385C20.8037 74.7803 20.376 74.5488 20.0127 74.2441C19.6494 73.9395 19.3594 73.5674 19.1426 73.1279C18.9316 72.6885 18.8262 72.1875 18.8262 71.625H20.4521C20.4521 71.959 20.5078 72.2637 20.6191 72.5391C20.7363 72.8145 20.9004 73.0488 21.1113 73.2422C21.3223 73.4355 21.5771 73.585 21.876 73.6904C22.1807 73.7959 22.5176 73.8486 22.8867 73.8486C23.2559 73.8486 23.5898 73.8018 23.8887 73.708C24.1875 73.6084 24.4424 73.459 24.6533 73.2598C24.8643 73.0605 25.0254 72.8145 25.1367 72.5215C25.2539 72.2227 25.3125 71.8711 25.3125 71.4668C25.3125 71.0684 25.2451 70.7256 25.1104 70.4385C24.9814 70.1455 24.7969 69.9023 24.5566 69.709C24.3223 69.5156 24.0352 69.3721 23.6953 69.2783C23.3613 69.1846 22.9922 69.1377 22.5879 69.1377H21.4277V67.8193Z" fill="black"/>
<path d="M38.1885 75H29.8037V73.8311L33.9961 69.1729C34.3711 68.7568 34.6846 68.3877 34.9365 68.0654C35.1885 67.7432 35.3906 67.4473 35.543 67.1777C35.6953 66.9023 35.8037 66.6445 35.8682 66.4043C35.9326 66.1582 35.9648 65.9062 35.9648 65.6484C35.9648 65.332 35.9121 65.0361 35.8066 64.7607C35.707 64.4795 35.5576 64.2363 35.3584 64.0312C35.165 63.8262 34.9277 63.665 34.6465 63.5479C34.3711 63.4248 34.0576 63.3633 33.7061 63.3633C33.2783 63.3633 32.9062 63.4248 32.5898 63.5479C32.2793 63.6709 32.0186 63.8467 31.8076 64.0752C31.6025 64.2979 31.4473 64.5703 31.3418 64.8926C31.2422 65.2148 31.1924 65.5752 31.1924 65.9736H29.5576C29.5576 65.4346 29.6514 64.9277 29.8389 64.4531C30.0264 63.9727 30.2959 63.5537 30.6475 63.1963C31.0049 62.8389 31.4385 62.5547 31.9482 62.3438C32.4639 62.1328 33.0498 62.0273 33.7061 62.0273C34.3096 62.0273 34.8516 62.1182 35.332 62.2998C35.8184 62.4756 36.2285 62.7217 36.5625 63.0381C36.8965 63.3545 37.1514 63.7295 37.3271 64.1631C37.5088 64.5967 37.5996 65.0684 37.5996 65.5781C37.5996 65.959 37.5352 66.3369 37.4062 66.7119C37.2773 67.0811 37.1016 67.4473 36.8789 67.8105C36.6621 68.1738 36.4072 68.5342 36.1143 68.8916C35.8271 69.2432 35.5225 69.5947 35.2002 69.9463L31.7637 73.6729H38.1885V75Z" fill="black"/>
<path fill-rule="evenodd" clip-rule="evenodd" d="M20.4277 66.8193H22.5879C22.9099 66.8193 23.1519 66.7754 23.3315 66.711L23.337 66.709C23.5477 66.6349 23.6884 66.546 23.7842 66.4582L23.7943 66.4489C23.898 66.3564 23.9739 66.2498 24.0279 66.1192C24.0842 65.9829 24.1191 65.8184 24.1191 65.6133C24.1191 65.0299 23.9714 64.7704 23.8462 64.6471L23.8407 64.6417C23.7068 64.5078 23.443 64.3633 22.8779 64.3633C22.6347 64.3633 22.4368 64.4002 22.2735 64.4602L22.2626 64.4642C22.1074 64.5191 21.9876 64.5934 21.8905 64.6836C21.7966 64.7761 21.7184 64.89 21.6577 65.037C21.6031 65.1692 21.5664 65.3387 21.5664 65.5605V66.5605H17.9316V65.5605C17.9316 64.9419 18.0517 64.3475 18.297 63.788L18.2996 63.7822C18.5474 63.2263 18.8963 62.7395 19.343 62.3299C19.7903 61.9137 20.3153 61.5973 20.9041 61.3744C21.5188 61.1378 22.1808 61.0273 22.8779 61.0273C23.542 61.0273 24.1732 61.1186 24.7621 61.3142C25.356 61.5056 25.8879 61.7999 26.3404 62.2056C26.7991 62.6169 27.1466 63.1211 27.3873 63.7002C27.6348 64.2958 27.7451 64.9521 27.7451 65.6484C27.7451 65.9985 27.6908 66.347 27.5916 66.6906C27.4874 67.0511 27.3299 67.3939 27.1262 67.7183L27.1205 67.7273C26.9803 67.9455 26.817 68.1504 26.634 68.3428C26.9077 68.5837 27.1432 68.857 27.3315 69.1647C27.5573 69.5243 27.7185 69.9117 27.8085 70.3237C27.8943 70.6911 27.9385 71.0609 27.9385 71.4316C27.9385 72.144 27.816 72.8162 27.5451 73.4275C27.2846 74.0157 26.917 74.5269 26.4419 74.9483L26.4351 74.9543C25.9654 75.3634 25.4186 75.6682 24.8092 75.8761L24.8026 75.8784C24.1981 76.0799 23.557 76.1758 22.8867 76.1758C22.2293 76.1758 21.5963 76.0831 20.9932 75.8916L20.9899 75.8905C20.3857 75.6963 19.8411 75.4054 19.3701 75.0103C18.8969 74.6135 18.5218 74.1299 18.2458 73.5704L18.241 73.5607C17.956 72.9669 17.8262 72.3143 17.8262 71.625V70.625H21.4521V71.625C21.4521 71.8422 21.4873 72.0151 21.5429 72.156C21.6064 72.3021 21.6881 72.4143 21.7871 72.505C21.888 72.5976 22.0219 72.6811 22.2059 72.7464C22.3908 72.81 22.6144 72.8486 22.8867 72.8486C23.1676 72.8486 23.3959 72.8134 23.5808 72.7565C23.7492 72.6992 23.872 72.6222 23.9667 72.5328C24.0593 72.4453 24.1398 72.3297 24.2019 72.1663L24.2057 72.1564C24.2671 71.9997 24.3125 71.7773 24.3125 71.4668C24.3125 71.1787 24.2636 70.988 24.2051 70.8634L24.1999 70.8524L24.195 70.8412C24.1282 70.6892 24.0402 70.577 23.9296 70.488L23.9202 70.4804C23.8104 70.3898 23.6551 70.3046 23.4294 70.2423L23.4251 70.2411C23.1921 70.1757 22.9155 70.1377 22.5879 70.1377H20.4277V66.8193ZM21.876 73.6904C21.5771 73.585 21.3223 73.4355 21.1113 73.2422C20.9004 73.0488 20.7363 72.8145 20.6191 72.5391C20.5078 72.2637 20.4521 71.959 20.4521 71.625H18.8262C18.8262 71.9833 18.869 72.3166 18.9545 72.625C19.0033 72.8008 19.066 72.9684 19.1426 73.1279C19.3594 73.5674 19.6494 73.9395 20.0127 74.2441C20.376 74.5488 20.8037 74.7803 21.2959 74.9385C21.7939 75.0967 22.3242 75.1758 22.8867 75.1758C23.4609 75.1758 23.9941 75.0938 24.4863 74.9297C24.9844 74.7598 25.415 74.5166 25.7783 74.2002C26.1416 73.8779 26.4258 73.4854 26.6309 73.0225C26.8359 72.5596 26.9385 72.0293 26.9385 71.4316C26.9385 71.1387 26.9033 70.8428 26.833 70.5439C26.7686 70.2451 26.6514 69.9609 26.4814 69.6914C26.3255 69.4352 26.1166 69.2028 25.8547 68.9942C25.8411 68.9834 25.8274 68.9726 25.8135 68.9619C25.5381 68.7451 25.1924 68.5693 24.7764 68.4346C25.1221 68.2881 25.418 68.1064 25.6641 67.8896C25.7082 67.8507 25.7508 67.8113 25.7921 67.7716C25.9864 67.5846 26.1488 67.3895 26.2793 67.1865C26.4375 66.9346 26.5547 66.6768 26.6309 66.4131C26.707 66.1494 26.7451 65.8945 26.7451 65.6484C26.7451 65.0566 26.6514 64.5352 26.4639 64.084C26.2764 63.6328 26.0127 63.2549 25.6729 62.9502C25.333 62.6455 24.9258 62.417 24.4512 62.2646C23.9766 62.1064 23.4521 62.0273 22.8779 62.0273C22.2861 62.0273 21.7471 62.1211 21.2607 62.3086C20.7803 62.4902 20.3672 62.7422 20.0215 63.0645C19.6758 63.3809 19.4062 63.7559 19.2129 64.1895C19.1597 64.3108 19.1141 64.4345 19.076 64.5605C18.9797 64.8788 18.9316 65.2122 18.9316 65.5605H20.5664C20.5664 65.2266 20.6221 64.9248 20.7334 64.6553C20.8447 64.3857 21 64.1543 21.1992 63.9609C21.4043 63.7676 21.6475 63.6211 21.9287 63.5215C22.2158 63.416 22.5322 63.3633 22.8779 63.3633C23.6104 63.3633 24.167 63.5537 24.5479 63.9346C24.9287 64.3096 25.1191 64.8691 25.1191 65.6133C25.1191 65.9355 25.0635 66.2314 24.9521 66.501C24.8408 66.7705 24.6768 67.002 24.46 67.1953C24.249 67.3887 23.9854 67.541 23.6689 67.6523C23.3584 67.7637 22.998 67.8193 22.5879 67.8193H21.4277V69.1377H22.5879C22.9922 69.1377 23.3613 69.1846 23.6953 69.2783C24.0352 69.3721 24.3223 69.5156 24.5566 69.709C24.7969 69.9023 24.9814 70.1455 25.1104 70.4385C25.2451 70.7256 25.3125 71.0684 25.3125 71.4668C25.3125 71.8711 25.2539 72.2227 25.1367 72.5215C25.0254 72.8145 24.8643 73.0605 24.6533 73.2598C24.4424 73.459 24.1875 73.6084 23.8887 73.708C23.5898 73.8018 23.2559 73.8486 22.8867 73.8486C22.5176 73.8486 22.1807 73.7959 21.876 73.6904ZM39.1885 76H28.8037V73.4473L33.2528 68.5039C33.6174 68.0994 33.9153 67.7481 34.1487 67.4495C34.3777 67.1566 34.5487 66.9038 34.6702 66.6896C34.7909 66.4707 34.8629 66.291 34.9016 66.148C34.9436 65.9867 34.9648 65.8209 34.9648 65.6484C34.9648 65.4453 34.9314 65.2715 34.8728 65.1184L34.8682 65.1065L34.864 65.0946C34.8104 64.9431 34.7356 64.8253 34.6411 64.728L34.6359 64.7227L34.6308 64.7173C34.5415 64.6225 34.424 64.5385 34.2619 64.4709L34.2501 64.466L34.2385 64.4609C34.111 64.4039 33.9401 64.3633 33.7061 64.3633C33.3732 64.3633 33.1301 64.4112 32.9552 64.4787C32.7754 64.5504 32.6441 64.6435 32.5429 64.7529C32.4473 64.8568 32.3607 64.9975 32.2948 65.1959C32.231 65.4055 32.1924 65.6617 32.1924 65.9736V66.9736H28.5576V65.9736C28.5576 65.3167 28.6723 64.6852 28.908 64.0877C29.1433 63.4855 29.4857 62.9514 29.9345 62.495L29.9403 62.4892C30.3989 62.0306 30.9458 61.6763 31.5659 61.4197L31.5696 61.4182C32.2248 61.1502 32.9427 61.0273 33.7061 61.0273C34.407 61.0273 35.0693 61.1325 35.6788 61.3618C36.2757 61.5785 36.8063 61.8916 37.2502 62.3121C37.6884 62.7272 38.0232 63.2204 38.2517 63.7819C38.4873 64.3464 38.5996 64.9489 38.5996 65.5781C38.5996 66.0741 38.5153 66.5617 38.3519 67.037L38.3504 67.0416C38.1965 67.482 37.9898 67.9109 37.7346 68.328C37.491 68.7356 37.2082 69.1344 36.8882 69.5248C36.5886 69.8916 36.2716 70.2573 35.9373 70.622L35.9353 70.6242L34.0461 72.6729H39.1885V76ZM31.7637 73.6729L35.2002 69.9463C35.5225 69.5947 35.8271 69.2432 36.1143 68.8916C36.4072 68.5342 36.6621 68.1738 36.8789 67.8105C37.1016 67.4473 37.2773 67.0811 37.4062 66.7119C37.5352 66.3369 37.5996 65.959 37.5996 65.5781C37.5996 65.0684 37.5088 64.5967 37.3271 64.1631C37.1514 63.7295 36.8965 63.3545 36.5625 63.0381C36.2285 62.7217 35.8184 62.4756 35.332 62.2998C34.8516 62.1182 34.3096 62.0273 33.7061 62.0273C33.0498 62.0273 32.4639 62.1328 31.9482 62.3438C31.4385 62.5547 31.0049 62.8389 30.6475 63.1963C30.2959 63.5537 30.0264 63.9727 29.8389 64.4531C29.7719 64.6225 29.717 64.796 29.6739 64.9736C29.5964 65.2936 29.5576 65.627 29.5576 65.9736H31.1924C31.1924 65.5752 31.2422 65.2148 31.3418 64.8926C31.4473 64.5703 31.6025 64.2979 31.8076 64.0752C32.0186 63.8467 32.2793 63.6709 32.5898 63.5479C32.9062 63.4248 33.2783 63.3633 33.7061 63.3633C34.0576 63.3633 34.3711 63.4248 34.6465 63.5479C34.9277 63.665 35.165 63.8262 35.3584 64.0312C35.5576 64.2363 35.707 64.4795 35.8066 64.7607C35.9121 65.0361 35.9648 65.332 35.9648 65.6484C35.9648 65.9062 35.9326 66.1582 35.8682 66.4043C35.8037 66.6445 35.6953 66.9023 35.543 67.1777C35.3906 67.4473 35.1885 67.7432 34.9365 68.0654C34.6846 68.3877 34.3711 68.7568 33.9961 69.1729L29.8037 73.8311V75H38.1885V73.6729H31.7637Z" fill="white"/>
<g filter="url(#filter3_dddd)">
<path fill-rule="evenodd" clip-rule="evenodd" d="M36.0711 99.3431L29.7071 105.707C29.3166 106.098 28.6834 106.098 28.2929 105.707L21.9289 99.3431C21.5384 98.9526 21.5384 98.3195 21.9289 97.9289C22.3194 97.5384 22.9526 97.5384 23.3431 97.9289L28 102.586L28 88L30 88L30 102.586L34.6568 97.9289C35.0474 97.5384 35.6805 97.5384 36.0711 97.9289C36.4616 98.3195 36.4616 98.9526 36.0711 99.3431Z" fill="black"/>
</g>
<path d="M112.121 182.702H113.905V184.029H112.121V187H110.495V184.029H104.659V183.071L110.39 174.203H112.121V182.702ZM106.461 182.702H110.495V176.365L110.231 176.857L106.461 182.702Z" fill="black"/>
<path d="M124.215 177.543C124.209 178.182 124.036 178.75 123.696 179.248C123.356 179.746 122.902 180.136 122.334 180.417C122.662 180.558 122.958 180.733 123.222 180.944C123.491 181.149 123.72 181.387 123.907 181.656C124.101 181.926 124.247 182.219 124.347 182.535C124.452 182.852 124.505 183.188 124.505 183.546C124.505 184.126 124.396 184.642 124.18 185.093C123.969 185.544 123.679 185.925 123.31 186.235C122.946 186.54 122.519 186.774 122.026 186.938C121.534 187.097 121.007 187.176 120.444 187.176C119.87 187.176 119.334 187.097 118.836 186.938C118.344 186.78 117.913 186.549 117.544 186.244C117.181 185.934 116.894 185.553 116.683 185.102C116.472 184.65 116.366 184.132 116.366 183.546C116.366 183.188 116.416 182.852 116.516 182.535C116.615 182.213 116.759 181.92 116.946 181.656C117.134 181.387 117.359 181.146 117.623 180.936C117.887 180.725 118.183 180.549 118.511 180.408C118.229 180.268 117.975 180.101 117.746 179.907C117.518 179.708 117.324 179.488 117.166 179.248C117.008 179.002 116.885 178.735 116.797 178.448C116.709 178.161 116.665 177.859 116.665 177.543C116.665 176.986 116.759 176.491 116.946 176.058C117.134 175.618 117.392 175.249 117.72 174.95C118.054 174.651 118.449 174.423 118.906 174.265C119.369 174.106 119.873 174.027 120.418 174.027C120.957 174.027 121.458 174.106 121.921 174.265C122.384 174.423 122.785 174.651 123.125 174.95C123.465 175.249 123.731 175.618 123.925 176.058C124.118 176.491 124.215 176.986 124.215 177.543ZM122.879 183.511C122.879 183.153 122.817 182.825 122.694 182.526C122.577 182.228 122.41 181.973 122.193 181.762C121.977 181.545 121.716 181.378 121.411 181.261C121.112 181.144 120.784 181.085 120.427 181.085C120.058 181.085 119.724 181.144 119.425 181.261C119.126 181.378 118.871 181.545 118.66 181.762C118.449 181.973 118.285 182.228 118.168 182.526C118.057 182.825 118.001 183.153 118.001 183.511C118.001 183.88 118.057 184.211 118.168 184.504C118.285 184.791 118.449 185.034 118.66 185.233C118.871 185.433 119.126 185.585 119.425 185.69C119.729 185.796 120.069 185.849 120.444 185.849C120.802 185.849 121.13 185.796 121.429 185.69C121.728 185.585 121.982 185.433 122.193 185.233C122.41 185.034 122.577 184.791 122.694 184.504C122.817 184.211 122.879 183.88 122.879 183.511ZM122.58 177.569C122.58 177.247 122.524 176.951 122.413 176.682C122.308 176.412 122.158 176.181 121.965 175.987C121.777 175.788 121.552 175.636 121.288 175.53C121.024 175.419 120.734 175.363 120.418 175.363C120.102 175.363 119.814 175.416 119.557 175.521C119.299 175.621 119.076 175.768 118.889 175.961C118.701 176.154 118.555 176.389 118.449 176.664C118.35 176.934 118.3 177.235 118.3 177.569C118.3 177.903 118.35 178.205 118.449 178.475C118.555 178.738 118.701 178.967 118.889 179.16C119.082 179.348 119.308 179.494 119.565 179.6C119.829 179.699 120.119 179.749 120.436 179.749C120.746 179.749 121.033 179.699 121.297 179.6C121.561 179.494 121.786 179.348 121.974 179.16C122.167 178.967 122.316 178.735 122.422 178.466C122.527 178.196 122.58 177.897 122.58 177.569Z" fill="black"/>
<path d="M127.109 232.584L127.751 226.203H134.316V227.785H129.122L128.762 231.195C129.014 231.049 129.315 230.92 129.667 230.809C130.019 230.697 130.426 230.642 130.889 230.642C131.48 230.642 132.011 230.744 132.479 230.949C132.948 231.154 133.347 231.444 133.675 231.819C134.003 232.188 134.255 232.637 134.431 233.164C134.606 233.691 134.694 234.277 134.694 234.922C134.694 235.531 134.612 236.097 134.448 236.618C134.284 237.14 134.035 237.591 133.701 237.972C133.373 238.347 132.957 238.643 132.453 238.859C131.949 239.07 131.357 239.176 130.678 239.176C130.156 239.176 129.664 239.103 129.201 238.956C128.738 238.81 128.325 238.59 127.962 238.297C127.604 238.004 127.309 237.635 127.074 237.189C126.846 236.744 126.702 236.226 126.644 235.634H128.19C128.29 236.36 128.557 236.911 128.99 237.286C129.43 237.661 129.992 237.849 130.678 237.849C131.064 237.849 131.407 237.781 131.706 237.646C132.005 237.506 132.254 237.31 132.453 237.058C132.658 236.8 132.811 236.492 132.91 236.135C133.016 235.777 133.068 235.379 133.068 234.939C133.068 234.541 133.01 234.169 132.893 233.823C132.781 233.478 132.617 233.179 132.4 232.927C132.184 232.669 131.917 232.467 131.601 232.32C131.284 232.174 130.921 232.101 130.511 232.101C130.241 232.101 130.007 232.121 129.808 232.162C129.614 232.197 129.438 232.25 129.28 232.32C129.122 232.391 128.973 232.476 128.832 232.575C128.697 232.675 128.557 232.789 128.41 232.918L127.109 232.584Z" fill="#001AFF"/>
<path d="M145.373 234.104C145.373 234.919 145.279 235.643 145.092 236.275C144.904 236.902 144.635 237.433 144.283 237.866C143.932 238.294 143.501 238.619 142.991 238.842C142.481 239.064 141.898 239.176 141.242 239.176C140.592 239.176 140.009 239.064 139.493 238.842C138.983 238.619 138.55 238.294 138.192 237.866C137.835 237.433 137.56 236.902 137.366 236.275C137.179 235.643 137.085 234.919 137.085 234.104V231.107C137.085 230.293 137.179 229.572 137.366 228.945C137.554 228.312 137.823 227.779 138.175 227.346C138.532 226.912 138.966 226.584 139.476 226.361C139.991 226.133 140.574 226.019 141.225 226.019C141.881 226.019 142.464 226.133 142.974 226.361C143.489 226.584 143.923 226.912 144.274 227.346C144.632 227.779 144.904 228.312 145.092 228.945C145.279 229.572 145.373 230.293 145.373 231.107V234.104ZM138.72 233.779L143.703 229.956C143.609 229.106 143.36 228.462 142.956 228.022C142.558 227.577 141.98 227.354 141.225 227.354C140.369 227.354 139.736 227.645 139.326 228.225C138.922 228.799 138.72 229.64 138.72 230.747V233.779ZM143.738 231.512L138.764 235.317C138.863 236.144 139.118 236.773 139.528 237.207C139.938 237.641 140.51 237.857 141.242 237.857C142.104 237.857 142.733 237.564 143.132 236.979C143.536 236.393 143.738 235.549 143.738 234.447V231.512Z" fill="#001AFF"/>
<path d="M137.24 180.136H140.817V181.753H137.24V185.717H135.614V181.753H132.046V180.136H135.614V176.4H137.24V180.136Z" fill="black"/>
<path d="M137.24 180.136H140.817V181.753H137.24V185.717H135.614V181.753H132.046V180.136H135.614V176.4H137.24V180.136Z" fill="black"/>
<path d="M156.378 187H147.993V185.831L152.186 181.173C152.561 180.757 152.874 180.388 153.126 180.065C153.378 179.743 153.58 179.447 153.732 179.178C153.885 178.902 153.993 178.645 154.058 178.404C154.122 178.158 154.154 177.906 154.154 177.648C154.154 177.332 154.102 177.036 153.996 176.761C153.896 176.479 153.747 176.236 153.548 176.031C153.354 175.826 153.117 175.665 152.836 175.548C152.561 175.425 152.247 175.363 151.896 175.363C151.468 175.363 151.096 175.425 150.779 175.548C150.469 175.671 150.208 175.847 149.997 176.075C149.792 176.298 149.637 176.57 149.531 176.893C149.432 177.215 149.382 177.575 149.382 177.974H147.747C147.747 177.435 147.841 176.928 148.028 176.453C148.216 175.973 148.485 175.554 148.837 175.196C149.194 174.839 149.628 174.555 150.138 174.344C150.653 174.133 151.239 174.027 151.896 174.027C152.499 174.027 153.041 174.118 153.521 174.3C154.008 174.476 154.418 174.722 154.752 175.038C155.086 175.354 155.341 175.729 155.517 176.163C155.698 176.597 155.789 177.068 155.789 177.578C155.789 177.959 155.725 178.337 155.596 178.712C155.467 179.081 155.291 179.447 155.068 179.811C154.852 180.174 154.597 180.534 154.304 180.892C154.017 181.243 153.712 181.595 153.39 181.946L149.953 185.673H156.378V187Z" fill="black"/>
<path d="M67.8027 131H66.1768V120.277L62.8281 121.552V120.066L67.6709 118.203H67.8027V131Z" fill="black"/>
<path d="M79.334 118.194V119.653H79.1934C78.6543 119.653 78.1709 119.709 77.7432 119.82C77.3213 119.932 76.9492 120.084 76.627 120.277C76.3047 120.471 76.0264 120.702 75.792 120.972C75.5635 121.235 75.373 121.525 75.2207 121.842C75.0684 122.158 74.9512 122.489 74.8691 122.835C74.7871 123.181 74.7344 123.532 74.7109 123.89C74.8633 123.708 75.0391 123.541 75.2383 123.389C75.4375 123.23 75.6514 123.096 75.8799 122.984C76.1143 122.867 76.3633 122.776 76.627 122.712C76.8965 122.642 77.1777 122.606 77.4707 122.606C78.1094 122.606 78.6602 122.729 79.123 122.976C79.5859 123.216 79.9668 123.535 80.2656 123.934C80.5645 124.332 80.7842 124.783 80.9248 125.287C81.0654 125.791 81.1357 126.304 81.1357 126.825C81.1357 127.423 81.0508 127.985 80.8809 128.513C80.7168 129.04 80.4678 129.503 80.1338 129.901C79.7998 130.294 79.3838 130.604 78.8857 130.833C78.3936 131.062 77.8223 131.176 77.1719 131.176C76.709 131.176 76.2842 131.108 75.8975 130.974C75.5166 130.839 75.1738 130.657 74.8691 130.429C74.5645 130.194 74.2979 129.919 74.0693 129.603C73.8408 129.286 73.6504 128.946 73.498 128.583C73.3516 128.22 73.2402 127.842 73.1641 127.449C73.0879 127.057 73.0498 126.664 73.0498 126.271V125.507C73.0498 124.921 73.085 124.335 73.1553 123.749C73.2314 123.157 73.3574 122.592 73.5332 122.053C73.709 121.514 73.9463 121.01 74.2451 120.541C74.5439 120.066 74.9189 119.656 75.3701 119.311C75.8271 118.965 76.3691 118.692 76.9961 118.493C77.623 118.294 78.3555 118.194 79.1934 118.194H79.334ZM77.207 123.96C76.9316 123.96 76.665 124.004 76.4072 124.092C76.1494 124.18 75.9092 124.303 75.6865 124.461C75.4639 124.619 75.2676 124.81 75.0977 125.032C74.9277 125.255 74.793 125.501 74.6934 125.771V126.315C74.6934 126.878 74.7607 127.379 74.8955 127.818C75.0303 128.252 75.2119 128.618 75.4404 128.917C75.6689 129.216 75.9326 129.444 76.2314 129.603C76.5303 129.755 76.8438 129.831 77.1719 129.831C77.5527 129.831 77.8896 129.758 78.1826 129.611C78.4756 129.465 78.7217 129.263 78.9209 129.005C79.126 128.747 79.2783 128.439 79.3779 128.082C79.4834 127.719 79.5361 127.326 79.5361 126.904C79.5361 126.529 79.4893 126.166 79.3955 125.814C79.3018 125.457 79.1582 125.141 78.9648 124.865C78.7715 124.59 78.5283 124.37 78.2354 124.206C77.9424 124.042 77.5996 123.96 77.207 123.96Z" fill="black"/>
<path fill-rule="evenodd" clip-rule="evenodd" d="M68.8027 132H65.1768V121.728L61.8281 123.002V119.38L67.4852 117.203H68.8027V132ZM66.1768 120.277V131H67.8027V118.203H67.6709L62.8281 120.066V121.552L66.1768 120.277ZM80.334 117.194V120.653H79.1934C78.7222 120.653 78.3262 120.702 77.9966 120.788C77.6524 120.879 77.3707 120.997 77.1414 121.135C76.9048 121.277 76.7089 121.441 76.5471 121.627C76.5205 121.658 76.4946 121.689 76.4695 121.721C76.7956 121.644 77.1301 121.606 77.4707 121.606C78.2359 121.606 78.9533 121.754 79.5879 122.09C80.1758 122.396 80.6734 122.811 81.0656 123.334C81.4427 123.836 81.7157 124.401 81.888 125.018C82.053 125.609 82.1357 126.213 82.1357 126.825C82.1357 127.517 82.0374 128.182 81.8342 128.815C81.6332 129.459 81.3234 130.039 80.9002 130.544L80.8955 130.549C80.4616 131.059 79.926 131.456 79.3048 131.741C78.6576 132.041 77.9385 132.176 77.1719 132.176C76.6114 132.176 76.0737 132.094 75.5684 131.918L75.5639 131.916C75.0933 131.75 74.6597 131.522 74.2691 131.229L74.2594 131.221C73.8769 130.927 73.5429 130.582 73.2587 130.188C72.9851 129.809 72.7574 129.403 72.5759 128.97L72.5705 128.957C72.3996 128.533 72.2705 128.094 72.1824 127.64C72.0942 127.186 72.0498 126.729 72.0498 126.271V125.507C72.0498 124.881 72.0874 124.255 72.1624 123.63L72.1634 123.621C72.2471 122.971 72.3864 122.344 72.5825 121.743C72.7836 121.126 73.0561 120.546 73.4005 120.006C73.7631 119.43 74.2186 118.933 74.7619 118.517L74.7668 118.513C75.3268 118.089 75.9738 117.769 76.6933 117.54C77.4407 117.303 78.2794 117.194 79.1934 117.194H80.334ZM74.2451 120.541C73.9463 121.01 73.709 121.514 73.5332 122.053C73.3574 122.592 73.2314 123.157 73.1553 123.749C73.085 124.335 73.0498 124.921 73.0498 125.507V126.271C73.0498 126.664 73.0879 127.057 73.1641 127.449C73.2402 127.842 73.3516 128.22 73.498 128.583C73.6504 128.946 73.8408 129.286 74.0693 129.603C74.2979 129.919 74.5645 130.194 74.8691 130.429C75.1738 130.657 75.5166 130.839 75.8975 130.974C76.2842 131.108 76.709 131.176 77.1719 131.176C77.8223 131.176 78.3936 131.062 78.8857 130.833C79.3838 130.604 79.7998 130.294 80.1338 129.901C80.4678 129.503 80.7168 129.04 80.8809 128.513C81.0508 127.985 81.1357 127.423 81.1357 126.825C81.1357 126.304 81.0654 125.791 80.9248 125.287C80.7842 124.783 80.5645 124.332 80.2656 123.934C79.9668 123.535 79.5859 123.216 79.123 122.976C78.6602 122.729 78.1094 122.606 77.4707 122.606C77.1777 122.606 76.8965 122.642 76.627 122.712C76.3633 122.776 76.1143 122.867 75.8799 122.984C75.8732 122.988 75.8665 122.991 75.8598 122.994C75.8259 123.011 75.7923 123.028 75.7591 123.046C75.5756 123.144 75.402 123.259 75.2383 123.389C75.0391 123.541 74.8633 123.708 74.7109 123.89C74.7328 123.556 74.7802 123.227 74.8532 122.904C74.8543 122.899 74.8554 122.894 74.8565 122.889C74.8606 122.871 74.8648 122.853 74.8691 122.835C74.9109 122.659 74.9617 122.487 75.0216 122.319C75.0795 122.156 75.1459 121.997 75.2207 121.842C75.373 121.525 75.5635 121.235 75.792 120.972C76.0264 120.702 76.3047 120.471 76.627 120.277C76.9492 120.084 77.3213 119.932 77.7432 119.82C78.1709 119.709 78.6543 119.653 79.1934 119.653H79.334V118.194H79.1934C78.8934 118.194 78.6069 118.207 78.334 118.233C77.8446 118.278 77.3986 118.365 76.9961 118.493C76.3691 118.692 75.8271 118.965 75.3701 119.311C74.9189 119.656 74.5439 120.066 74.2451 120.541ZM79.3955 125.814C79.3018 125.457 79.1582 125.141 78.9648 124.865C78.7715 124.59 78.5283 124.37 78.2354 124.206C77.9424 124.042 77.5996 123.96 77.207 123.96C76.9316 123.96 76.665 124.004 76.4072 124.092C76.1494 124.18 75.9092 124.303 75.6865 124.461C75.4639 124.619 75.2676 124.81 75.0977 125.032C74.9277 125.255 74.793 125.501 74.6934 125.771V126.315C74.6934 126.878 74.7607 127.379 74.8955 127.818C75.0303 128.252 75.2119 128.618 75.4404 128.917C75.6689 129.216 75.9326 129.444 76.2314 129.603C76.5303 129.755 76.8438 129.831 77.1719 129.831C77.5527 129.831 77.8896 129.758 78.1826 129.611C78.4756 129.465 78.7217 129.263 78.9209 129.005C79.126 128.747 79.2783 128.439 79.3779 128.082C79.4834 127.719 79.5361 127.326 79.5361 126.904C79.5361 126.529 79.4893 126.166 79.3955 125.814ZM76.6926 128.715C76.8516 128.795 77.0076 128.831 77.1719 128.831C77.4227 128.831 77.6022 128.783 77.7354 128.717C77.8946 128.637 78.0229 128.532 78.1296 128.393L78.1382 128.382C78.2501 128.242 78.3464 128.058 78.4146 127.814L78.4175 127.803C78.4939 127.54 78.5361 127.243 78.5361 126.904C78.5361 126.614 78.4999 126.337 78.4293 126.072L78.4282 126.068C78.3617 125.814 78.2651 125.609 78.1464 125.44C78.0391 125.287 77.9085 125.169 77.7467 125.079C77.6266 125.011 77.4576 124.96 77.207 124.96C77.0402 124.96 76.8827 124.986 76.7299 125.038C76.5637 125.095 76.4099 125.174 76.2657 125.276C76.1271 125.375 76.0031 125.494 75.8926 125.639C75.8156 125.74 75.7491 125.849 75.6934 125.968V126.315C75.6934 126.799 75.7514 127.198 75.851 127.523C75.9578 127.866 76.0909 128.121 76.2348 128.31C76.3835 128.504 76.5372 128.632 76.6926 128.715Z" fill="white"/>
<path d="M21.4277 123.819H22.5879C22.998 123.819 23.3584 123.764 23.6689 123.652C23.9854 123.541 24.249 123.389 24.46 123.195C24.6768 123.002 24.8408 122.771 24.9521 122.501C25.0635 122.231 25.1191 121.936 25.1191 121.613C25.1191 120.869 24.9287 120.31 24.5479 119.935C24.167 119.554 23.6104 119.363 22.8779 119.363C22.5322 119.363 22.2158 119.416 21.9287 119.521C21.6475 119.621 21.4043 119.768 21.1992 119.961C21 120.154 20.8447 120.386 20.7334 120.655C20.6221 120.925 20.5664 121.227 20.5664 121.561H18.9316C18.9316 121.074 19.0254 120.617 19.2129 120.189C19.4062 119.756 19.6758 119.381 20.0215 119.064C20.3672 118.742 20.7803 118.49 21.2607 118.309C21.7471 118.121 22.2861 118.027 22.8779 118.027C23.4521 118.027 23.9766 118.106 24.4512 118.265C24.9258 118.417 25.333 118.646 25.6729 118.95C26.0127 119.255 26.2764 119.633 26.4639 120.084C26.6514 120.535 26.7451 121.057 26.7451 121.648C26.7451 121.895 26.707 122.149 26.6309 122.413C26.5547 122.677 26.4375 122.935 26.2793 123.187C26.1211 123.433 25.916 123.667 25.6641 123.89C25.418 124.106 25.1221 124.288 24.7764 124.435C25.1924 124.569 25.5381 124.745 25.8135 124.962C26.0947 125.179 26.3174 125.422 26.4814 125.691C26.6514 125.961 26.7686 126.245 26.833 126.544C26.9033 126.843 26.9385 127.139 26.9385 127.432C26.9385 128.029 26.8359 128.56 26.6309 129.022C26.4258 129.485 26.1416 129.878 25.7783 130.2C25.415 130.517 24.9844 130.76 24.4863 130.93C23.9941 131.094 23.4609 131.176 22.8867 131.176C22.3242 131.176 21.7939 131.097 21.2959 130.938C20.8037 130.78 20.376 130.549 20.0127 130.244C19.6494 129.939 19.3594 129.567 19.1426 129.128C18.9316 128.688 18.8262 128.188 18.8262 127.625H20.4521C20.4521 127.959 20.5078 128.264 20.6191 128.539C20.7363 128.814 20.9004 129.049 21.1113 129.242C21.3223 129.436 21.5771 129.585 21.876 129.69C22.1807 129.796 22.5176 129.849 22.8867 129.849C23.2559 129.849 23.5898 129.802 23.8887 129.708C24.1875 129.608 24.4424 129.459 24.6533 129.26C24.8643 129.061 25.0254 128.814 25.1367 128.521C25.2539 128.223 25.3125 127.871 25.3125 127.467C25.3125 127.068 25.2451 126.726 25.1104 126.438C24.9814 126.146 24.7969 125.902 24.5566 125.709C24.3223 125.516 24.0352 125.372 23.6953 125.278C23.3613 125.185 22.9922 125.138 22.5879 125.138H21.4277V123.819Z" fill="black"/>
<path d="M38.1885 131H29.8037V129.831L33.9961 125.173C34.3711 124.757 34.6846 124.388 34.9365 124.065C35.1885 123.743 35.3906 123.447 35.543 123.178C35.6953 122.902 35.8037 122.645 35.8682 122.404C35.9326 122.158 35.9648 121.906 35.9648 121.648C35.9648 121.332 35.9121 121.036 35.8066 120.761C35.707 120.479 35.5576 120.236 35.3584 120.031C35.165 119.826 34.9277 119.665 34.6465 119.548C34.3711 119.425 34.0576 119.363 33.7061 119.363C33.2783 119.363 32.9062 119.425 32.5898 119.548C32.2793 119.671 32.0186 119.847 31.8076 120.075C31.6025 120.298 31.4473 120.57 31.3418 120.893C31.2422 121.215 31.1924 121.575 31.1924 121.974H29.5576C29.5576 121.435 29.6514 120.928 29.8389 120.453C30.0264 119.973 30.2959 119.554 30.6475 119.196C31.0049 118.839 31.4385 118.555 31.9482 118.344C32.4639 118.133 33.0498 118.027 33.7061 118.027C34.3096 118.027 34.8516 118.118 35.332 118.3C35.8184 118.476 36.2285 118.722 36.5625 119.038C36.8965 119.354 37.1514 119.729 37.3271 120.163C37.5088 120.597 37.5996 121.068 37.5996 121.578C37.5996 121.959 37.5352 122.337 37.4062 122.712C37.2773 123.081 37.1016 123.447 36.8789 123.811C36.6621 124.174 36.4072 124.534 36.1143 124.892C35.8271 125.243 35.5225 125.595 35.2002 125.946L31.7637 129.673H38.1885V131Z" fill="black"/>
<path fill-rule="evenodd" clip-rule="evenodd" d="M20.4277 122.819H22.5879C22.9099 122.819 23.1519 122.775 23.3315 122.711L23.337 122.709C23.5477 122.635 23.6884 122.546 23.7842 122.458L23.7943 122.449C23.898 122.356 23.9739 122.25 24.0279 122.119C24.0842 121.983 24.1191 121.818 24.1191 121.613C24.1191 121.03 23.9714 120.77 23.8462 120.647L23.8407 120.642C23.7068 120.508 23.443 120.363 22.8779 120.363C22.6347 120.363 22.4368 120.4 22.2735 120.46L22.2626 120.464C22.1074 120.519 21.9876 120.593 21.8905 120.684C21.7966 120.776 21.7184 120.89 21.6577 121.037C21.6031 121.169 21.5664 121.339 21.5664 121.561V122.561H17.9316V121.561C17.9316 120.942 18.0517 120.348 18.297 119.788L18.2996 119.782C18.5474 119.226 18.8963 118.739 19.343 118.33C19.7903 117.914 20.3153 117.597 20.9041 117.374C21.5188 117.138 22.1808 117.027 22.8779 117.027C23.542 117.027 24.1732 117.119 24.7621 117.314C25.356 117.506 25.8879 117.8 26.3404 118.206C26.7991 118.617 27.1466 119.121 27.3873 119.7C27.6348 120.296 27.7451 120.952 27.7451 121.648C27.7451 121.999 27.6908 122.347 27.5916 122.691C27.4874 123.051 27.3299 123.394 27.1262 123.718L27.1205 123.727C26.9803 123.946 26.817 124.15 26.634 124.343C26.9077 124.584 27.1432 124.857 27.3315 125.165C27.5573 125.524 27.7185 125.912 27.8085 126.324C27.8943 126.691 27.9385 127.061 27.9385 127.432C27.9385 128.144 27.816 128.816 27.5451 129.428C27.2846 130.016 26.917 130.527 26.4419 130.948L26.4351 130.954C25.9654 131.363 25.4186 131.668 24.8092 131.876L24.8026 131.878C24.1981 132.08 23.557 132.176 22.8867 132.176C22.2293 132.176 21.5963 132.083 20.9932 131.892L20.9899 131.891C20.3857 131.696 19.8411 131.405 19.3701 131.01C18.8969 130.614 18.5218 130.13 18.2458 129.57L18.241 129.561C17.956 128.967 17.8262 128.314 17.8262 127.625V126.625H21.4521V127.625C21.4521 127.842 21.4873 128.015 21.5429 128.156C21.6064 128.302 21.6881 128.414 21.7871 128.505C21.888 128.598 22.0219 128.681 22.2059 128.746C22.3908 128.81 22.6144 128.849 22.8867 128.849C23.1676 128.849 23.3959 128.813 23.5808 128.757C23.7492 128.699 23.872 128.622 23.9667 128.533C24.0593 128.445 24.1398 128.33 24.2019 128.166L24.2057 128.156C24.2671 128 24.3125 127.777 24.3125 127.467C24.3125 127.179 24.2636 126.988 24.2051 126.863L24.1999 126.852L24.195 126.841C24.1282 126.689 24.0402 126.577 23.9296 126.488L23.9202 126.48C23.8104 126.39 23.6551 126.305 23.4294 126.242L23.4251 126.241C23.1921 126.176 22.9155 126.138 22.5879 126.138H20.4277V122.819ZM21.876 129.69C21.5771 129.585 21.3223 129.436 21.1113 129.242C20.9004 129.049 20.7363 128.814 20.6191 128.539C20.5078 128.264 20.4521 127.959 20.4521 127.625H18.8262C18.8262 127.983 18.869 128.317 18.9545 128.625C19.0033 128.801 19.066 128.968 19.1426 129.128C19.3594 129.567 19.6494 129.939 20.0127 130.244C20.376 130.549 20.8037 130.78 21.2959 130.938C21.7939 131.097 22.3242 131.176 22.8867 131.176C23.4609 131.176 23.9941 131.094 24.4863 130.93C24.9844 130.76 25.415 130.517 25.7783 130.2C26.1416 129.878 26.4258 129.485 26.6309 129.022C26.8359 128.56 26.9385 128.029 26.9385 127.432C26.9385 127.139 26.9033 126.843 26.833 126.544C26.7686 126.245 26.6514 125.961 26.4814 125.691C26.3255 125.435 26.1166 125.203 25.8547 124.994C25.8411 124.983 25.8274 124.973 25.8135 124.962C25.5381 124.745 25.1924 124.569 24.7764 124.435C25.1221 124.288 25.418 124.106 25.6641 123.89C25.7082 123.851 25.7508 123.811 25.7921 123.772C25.9864 123.585 26.1488 123.39 26.2793 123.187C26.4375 122.935 26.5547 122.677 26.6309 122.413C26.707 122.149 26.7451 121.895 26.7451 121.648C26.7451 121.057 26.6514 120.535 26.4639 120.084C26.2764 119.633 26.0127 119.255 25.6729 118.95C25.333 118.646 24.9258 118.417 24.4512 118.265C23.9766 118.106 23.4521 118.027 22.8779 118.027C22.2861 118.027 21.7471 118.121 21.2607 118.309C20.7803 118.49 20.3672 118.742 20.0215 119.064C19.6758 119.381 19.4062 119.756 19.2129 120.189C19.1597 120.311 19.1141 120.434 19.076 120.561C18.9797 120.879 18.9316 121.212 18.9316 121.561H20.5664C20.5664 121.227 20.6221 120.925 20.7334 120.655C20.8447 120.386 21 120.154 21.1992 119.961C21.4043 119.768 21.6475 119.621 21.9287 119.521C22.2158 119.416 22.5322 119.363 22.8779 119.363C23.6104 119.363 24.167 119.554 24.5479 119.935C24.9287 120.31 25.1191 120.869 25.1191 121.613C25.1191 121.936 25.0635 122.231 24.9521 122.501C24.8408 122.771 24.6768 123.002 24.46 123.195C24.249 123.389 23.9854 123.541 23.6689 123.652C23.3584 123.764 22.998 123.819 22.5879 123.819H21.4277V125.138H22.5879C22.9922 125.138 23.3613 125.185 23.6953 125.278C24.0352 125.372 24.3223 125.516 24.5566 125.709C24.7969 125.902 24.9814 126.146 25.1104 126.438C25.2451 126.726 25.3125 127.068 25.3125 127.467C25.3125 127.871 25.2539 128.223 25.1367 128.521C25.0254 128.814 24.8643 129.061 24.6533 129.26C24.4424 129.459 24.1875 129.608 23.8887 129.708C23.5898 129.802 23.2559 129.849 22.8867 129.849C22.5176 129.849 22.1807 129.796 21.876 129.69ZM39.1885 132H28.8037V129.447L33.2528 124.504C33.6174 124.099 33.9153 123.748 34.1487 123.45C34.3777 123.157 34.5487 122.904 34.6702 122.69C34.7909 122.471 34.8629 122.291 34.9016 122.148C34.9436 121.987 34.9648 121.821 34.9648 121.648C34.9648 121.445 34.9314 121.272 34.8728 121.118L34.8682 121.107L34.864 121.095C34.8104 120.943 34.7356 120.825 34.6411 120.728L34.6359 120.723L34.6308 120.717C34.5415 120.622 34.424 120.539 34.2619 120.471L34.2501 120.466L34.2385 120.461C34.111 120.404 33.9401 120.363 33.7061 120.363C33.3732 120.363 33.1301 120.411 32.9552 120.479C32.7754 120.55 32.6441 120.644 32.5429 120.753C32.4473 120.857 32.3607 120.998 32.2948 121.196C32.231 121.406 32.1924 121.662 32.1924 121.974V122.974H28.5576V121.974C28.5576 121.317 28.6723 120.685 28.908 120.088C29.1433 119.486 29.4857 118.951 29.9345 118.495L29.9403 118.489C30.3989 118.031 30.9458 117.676 31.5659 117.42L31.5696 117.418C32.2248 117.15 32.9427 117.027 33.7061 117.027C34.407 117.027 35.0693 117.133 35.6788 117.362C36.2757 117.579 36.8063 117.892 37.2502 118.312C37.6884 118.727 38.0232 119.22 38.2517 119.782C38.4873 120.346 38.5996 120.949 38.5996 121.578C38.5996 122.074 38.5153 122.562 38.3519 123.037L38.3504 123.042C38.1965 123.482 37.9898 123.911 37.7346 124.328C37.491 124.736 37.2082 125.134 36.8882 125.525C36.5886 125.892 36.2716 126.257 35.9373 126.622L35.9353 126.624L34.0461 128.673H39.1885V132ZM31.7637 129.673L35.2002 125.946C35.5225 125.595 35.8271 125.243 36.1143 124.892C36.4072 124.534 36.6621 124.174 36.8789 123.811C37.1016 123.447 37.2773 123.081 37.4062 122.712C37.5352 122.337 37.5996 121.959 37.5996 121.578C37.5996 121.068 37.5088 120.597 37.3271 120.163C37.1514 119.729 36.8965 119.354 36.5625 119.038C36.2285 118.722 35.8184 118.476 35.332 118.3C34.8516 118.118 34.3096 118.027 33.7061 118.027C33.0498 118.027 32.4639 118.133 31.9482 118.344C31.4385 118.555 31.0049 118.839 30.6475 119.196C30.2959 119.554 30.0264 119.973 29.8389 120.453C29.7719 120.623 29.717 120.796 29.6739 120.974C29.5964 121.294 29.5576 121.627 29.5576 121.974H31.1924C31.1924 121.575 31.2422 121.215 31.3418 120.893C31.4473 120.57 31.6025 120.298 31.8076 120.075C32.0186 119.847 32.2793 119.671 32.5898 119.548C32.9062 119.425 33.2783 119.363 33.7061 119.363C34.0576 119.363 34.3711 119.425 34.6465 119.548C34.9277 119.665 35.165 119.826 35.3584 120.031C35.5576 120.236 35.707 120.479 35.8066 120.761C35.9121 121.036 35.9648 121.332 35.9648 121.648C35.9648 121.906 35.9326 122.158 35.8682 122.404C35.8037 122.645 35.6953 122.902 35.543 123.178C35.3906 123.447 35.1885 123.743 34.9365 124.065C34.6846 124.388 34.3711 124.757 33.9961 125.173L29.8037 129.831V131H38.1885V129.673H31.7637Z" fill="white"/>
<path d="M51.2123 124.136H54.7894V125.753H51.2123V129.717H49.5863V125.753H46.018V124.136H49.5863V120.4H51.2123V124.136Z" fill="black"/>
<path fill-rule="evenodd" clip-rule="evenodd" d="M55.7894 123.136V126.753H52.2123V130.717H48.5863V126.753H45.018V123.136H48.5863V119.4H52.2123V123.136H55.7894ZM49.5863 124.136H46.018V125.753H49.5863V129.717H51.2123V125.753H54.7894V124.136H51.2123V120.4H49.5863V124.136Z" fill="white"/>
<path d="M51.2123 124.136H54.7894V125.753H51.2123V129.717H49.5863V125.753H46.018V124.136H49.5863V120.4H51.2123V124.136Z" fill="black"/>
<path fill-rule="evenodd" clip-rule="evenodd" d="M55.7894 123.136V126.753H52.2123V130.717H48.5863V126.753H45.018V123.136H48.5863V119.4H52.2123V123.136H55.7894ZM49.5863 124.136H46.018V125.753H49.5863V129.717H51.2123V125.753H54.7894V124.136H51.2123V120.4H49.5863V124.136Z" fill="white"/>
<g filter="url(#filter4_dddd)">
<path fill-rule="evenodd" clip-rule="evenodd" d="M50.9804 148.638C50.6849 147.61 50.6756 146.185 50.6756 144L49.7002 144L48.6756 143.998L48.6756 143.999L48.6756 144C48.6756 144.047 48.6756 144.093 48.6756 144.14C48.6754 146.145 48.6753 147.858 49.0583 149.19C49.2642 149.906 49.5888 150.553 50.1042 151.107C50.6172 151.657 51.2721 152.064 52.0652 152.37C53.6094 152.967 55.8215 153.234 58.914 153.366C62.0292 153.5 66.1714 153.5 71.6484 153.5L71.6757 153.5C87.9316 153.5 95.9997 154.633 100.548 156.488C104.041 157.913 105.447 159.74 107.025 162.093L100.5 160.906C99.9563 160.807 99.4357 161.168 99.3369 161.711C99.2381 162.255 99.5985 162.775 100.142 162.874L108.997 164.484C109.54 164.583 110.061 164.222 110.159 163.679L111.769 154.824C111.868 154.281 111.508 153.76 110.964 153.661C110.421 153.563 109.901 153.923 109.802 154.466L108.633 160.892C107.017 158.485 105.282 156.26 101.303 154.637C96.3516 152.617 87.9197 151.5 71.6757 151.5C66.1661 151.5 62.0669 151.5 58.9998 151.368C55.9048 151.235 53.9919 150.971 52.786 150.505C52.2042 150.28 51.8279 150.023 51.5674 149.743C51.3093 149.466 51.1184 149.117 50.9804 148.638Z" fill="black"/>
</g>
<path d="M205.378 131H196.993V129.831L201.186 125.173C201.561 124.757 201.874 124.388 202.126 124.065C202.378 123.743 202.58 123.447 202.732 123.178C202.885 122.902 202.993 122.645 203.058 122.404C203.122 122.158 203.154 121.906 203.154 121.648C203.154 121.332 203.102 121.036 202.996 120.761C202.896 120.479 202.747 120.236 202.548 120.031C202.354 119.826 202.117 119.665 201.836 119.548C201.561 119.425 201.247 119.363 200.896 119.363C200.468 119.363 200.096 119.425 199.779 119.548C199.469 119.671 199.208 119.847 198.997 120.075C198.792 120.298 198.637 120.57 198.531 120.893C198.432 121.215 198.382 121.575 198.382 121.974H196.747C196.747 121.435 196.841 120.928 197.028 120.453C197.216 119.973 197.485 119.554 197.837 119.196C198.194 118.839 198.628 118.555 199.138 118.344C199.653 118.133 200.239 118.027 200.896 118.027C201.499 118.027 202.041 118.118 202.521 118.3C203.008 118.476 203.418 118.722 203.752 119.038C204.086 119.354 204.341 119.729 204.517 120.163C204.698 120.597 204.789 121.068 204.789 121.578C204.789 121.959 204.725 122.337 204.596 122.712C204.467 123.081 204.291 123.447 204.068 123.811C203.852 124.174 203.597 124.534 203.304 124.892C203.017 125.243 202.712 125.595 202.39 125.946L198.953 129.673H205.378V131Z" fill="black"/>
<path fill-rule="evenodd" clip-rule="evenodd" d="M206.378 132H195.993V129.447L200.442 124.504C200.807 124.099 201.105 123.748 201.338 123.45C201.567 123.157 201.738 122.904 201.86 122.69C201.98 122.471 202.052 122.291 202.091 122.148C202.133 121.987 202.154 121.821 202.154 121.648C202.154 121.445 202.121 121.272 202.062 121.118L202.058 121.107L202.053 121.095C202 120.943 201.925 120.825 201.831 120.728L201.825 120.723L201.82 120.717C201.731 120.622 201.614 120.539 201.451 120.471L201.44 120.466L201.428 120.461C201.3 120.404 201.13 120.363 200.896 120.363C200.563 120.363 200.32 120.411 200.145 120.479C199.965 120.55 199.833 120.644 199.732 120.753C199.637 120.857 199.55 120.998 199.484 121.196C199.42 121.405 199.382 121.662 199.382 121.974V122.974H195.747V121.974C195.747 121.317 195.862 120.685 196.097 120.088C196.333 119.485 196.675 118.951 197.124 118.495L197.13 118.489C197.588 118.031 198.135 117.676 198.755 117.42L198.759 117.418C199.414 117.15 200.132 117.027 200.896 117.027C201.596 117.027 202.259 117.133 202.868 117.362C203.465 117.579 203.996 117.892 204.44 118.312C204.878 118.727 205.213 119.221 205.441 119.782C205.677 120.347 205.789 120.949 205.789 121.578C205.789 122.074 205.705 122.562 205.541 123.037L205.54 123.042C205.386 123.482 205.179 123.911 204.924 124.328C204.68 124.736 204.398 125.134 204.078 125.525C203.778 125.892 203.461 126.257 203.127 126.622L203.125 126.624L201.236 128.673H206.378V132ZM198.953 129.673L202.39 125.946C202.712 125.595 203.017 125.243 203.304 124.892C203.597 124.534 203.852 124.174 204.068 123.811C204.291 123.447 204.467 123.081 204.596 122.712C204.725 122.337 204.789 121.959 204.789 121.578C204.789 121.068 204.698 120.597 204.517 120.163C204.341 119.729 204.086 119.354 203.752 119.038C203.418 118.722 203.008 118.476 202.521 118.3C202.041 118.118 201.499 118.027 200.896 118.027C200.239 118.027 199.653 118.133 199.138 118.344C198.628 118.555 198.194 118.839 197.837 119.196C197.485 119.554 197.216 119.973 197.028 120.453C196.961 120.623 196.906 120.796 196.863 120.974C196.786 121.294 196.747 121.627 196.747 121.974H198.382C198.382 121.575 198.432 121.215 198.531 120.893C198.637 120.57 198.792 120.298 198.997 120.075C199.208 119.847 199.469 119.671 199.779 119.548C200.096 119.425 200.468 119.363 200.896 119.363C201.247 119.363 201.561 119.425 201.836 119.548C202.117 119.665 202.354 119.826 202.548 120.031C202.747 120.236 202.896 120.479 202.996 120.761C203.102 121.036 203.154 121.332 203.154 121.648C203.154 121.906 203.122 122.158 203.058 122.404C202.993 122.645 202.885 122.902 202.732 123.178C202.58 123.447 202.378 123.743 202.126 124.065C201.874 124.388 201.561 124.757 201.186 125.173L196.993 129.831V131H205.378V129.673H198.953Z" fill="white"/>
<g filter="url(#filter5_dddd)">
<path fill-rule="evenodd" clip-rule="evenodd" d="M153.035 164.207C152.644 164.598 152.011 164.598 151.62 164.207L145.256 157.843C144.866 157.453 144.866 156.819 145.256 156.429C145.647 156.038 146.28 156.038 146.671 156.429L151.337 161.096C151.362 159.343 151.446 157.851 151.737 156.621C151.951 155.716 152.287 154.901 152.826 154.199C153.368 153.492 154.078 152.949 154.965 152.532C156.69 151.722 159.164 151.361 162.611 151.181C166.083 151 170.697 151 176.794 151L176.827 151C178.107 151 179.313 151.002 180.451 151.003C184.422 151.008 187.559 151.012 190.05 150.946C193.283 150.859 195.294 150.655 196.57 150.237C197.188 150.035 197.58 149.798 197.846 149.544C198.105 149.296 198.295 148.982 198.433 148.538C198.735 147.57 198.746 146.192 198.746 144L200.746 144C200.746 144.052 200.746 144.103 200.746 144.155C200.746 146.145 200.746 147.838 200.342 149.134C200.123 149.838 199.775 150.465 199.229 150.989C198.689 151.506 198.006 151.871 197.192 152.138C195.603 152.658 193.317 152.859 190.104 152.945C187.582 153.012 184.406 153.008 180.427 153.003C179.294 153.002 178.095 153 176.827 153C170.691 153 166.128 153 162.715 153.178C159.272 153.358 157.152 153.715 155.815 154.343C155.171 154.645 154.732 155 154.413 155.416C154.09 155.837 153.852 156.37 153.683 157.082C153.44 158.11 153.363 159.399 153.339 161.075L157.984 156.429C158.375 156.038 159.008 156.038 159.399 156.429C159.789 156.819 159.789 157.453 159.399 157.843L153.035 164.207Z" fill="black"/>
</g>
<path fill-rule="evenodd" clip-rule="evenodd" d="M138.72 233.779L143.703 229.956C143.609 229.106 143.36 228.462 142.956 228.022C142.558 227.577 141.98 227.354 141.225 227.354C140.369 227.354 139.736 227.645 139.326 228.225C138.922 228.799 138.72 229.64 138.72 230.747V233.779ZM142.624 229.511L139.727 231.734V230.729C139.727 229.719 139.916 229.117 140.151 228.783C140.334 228.525 140.627 228.337 141.232 228.337C141.784 228.337 142.057 228.492 142.218 228.672L142.228 228.682C142.379 228.846 142.525 229.107 142.624 229.511Z" fill="white"/>
<path fill-rule="evenodd" clip-rule="evenodd" d="M143.738 231.512L138.764 235.317C138.863 236.144 139.118 236.773 139.528 237.207C139.938 237.641 140.51 237.857 141.242 237.857C142.104 237.857 142.733 237.564 143.132 236.979C143.536 236.393 143.738 235.549 143.738 234.447V231.512ZM142.746 234.43V233.518L139.866 235.721C139.967 236.096 140.111 236.342 140.262 236.502C140.442 236.692 140.725 236.84 141.25 236.84C141.861 236.84 142.142 236.65 142.312 236.399L142.316 236.393C142.558 236.043 142.746 235.432 142.746 234.43Z" fill="white"/>
<path fill-rule="evenodd" clip-rule="evenodd" d="M146.05 236.562L146.051 236.559C146.271 235.816 146.373 234.994 146.373 234.104V231.107C146.373 230.219 146.271 229.399 146.05 228.66C145.832 227.923 145.503 227.265 145.049 226.713C144.597 226.156 144.035 225.732 143.376 225.446L143.385 225.446C142.724 225.154 142.001 225.019 141.233 225.019H141.225C141.225 225.019 139.734 225.154 139.073 225.446C138.419 225.732 137.859 226.157 137.403 226.71L137.398 226.716C136.95 227.268 136.626 227.924 136.408 228.66C136.187 229.399 136.085 230.219 136.085 231.107V234.104C136.085 234.994 136.187 235.816 136.407 236.559L136.408 236.562L136.411 236.57C136.636 237.301 136.968 237.953 137.421 238.502L137.398 238.496L137.402 238.501L137.425 238.507C137.882 239.054 138.441 239.473 139.093 239.758L139.066 239.758C139.723 240.045 141.216 240.176 141.216 240.176H141.242C142.012 240.176 142.735 240.045 143.391 239.758L143.365 239.758C144.017 239.473 144.576 239.054 145.033 238.507L145.056 238.501L145.06 238.496C145.507 237.945 145.831 237.293 146.05 236.562ZM145.092 236.275C145.279 235.643 145.373 234.919 145.373 234.104V231.107C145.373 230.293 145.279 229.572 145.092 228.945C144.904 228.312 144.632 227.779 144.274 227.346C143.923 226.912 143.489 226.584 142.974 226.361C142.464 226.133 141.881 226.019 141.225 226.019C140.574 226.019 139.991 226.133 139.476 226.361C138.966 226.584 138.532 226.912 138.175 227.346C137.823 227.779 137.554 228.312 137.366 228.945C137.179 229.572 137.085 230.293 137.085 231.107V234.104C137.085 234.919 137.179 235.643 137.366 236.275C137.56 236.902 137.835 237.433 138.192 237.866C138.55 238.294 138.983 238.619 139.493 238.842C140.009 239.064 140.592 239.176 141.242 239.176C141.898 239.176 142.481 239.064 142.991 238.842C143.501 238.619 143.932 238.294 144.283 237.866C144.635 237.433 144.904 236.902 145.092 236.275Z" fill="white"/>
<path fill-rule="evenodd" clip-rule="evenodd" d="M130.022 228.785L129.923 229.72C130.232 229.666 130.555 229.642 130.889 229.642C131.597 229.642 132.267 229.765 132.88 230.033C133.479 230.295 133.998 230.671 134.425 231.158C134.852 231.64 135.167 232.209 135.379 232.848C135.594 233.492 135.694 234.187 135.694 234.922C135.694 235.622 135.6 236.289 135.402 236.918C135.2 237.561 134.886 238.137 134.454 238.63C134.018 239.128 133.475 239.508 132.848 239.778L132.839 239.782C132.187 240.055 131.459 240.176 130.678 240.176C130.061 240.176 129.467 240.089 128.899 239.909C128.323 239.727 127.798 239.449 127.334 239.075L127.328 239.07C126.858 238.685 126.48 238.208 126.189 237.655L126.185 237.646C125.889 237.07 125.717 236.426 125.648 235.732L125.54 234.634H129.063L129.181 235.498C129.257 236.051 129.44 236.352 129.642 236.528C129.868 236.719 130.185 236.849 130.678 236.849C130.944 236.849 131.14 236.803 131.288 236.738C131.447 236.662 131.57 236.563 131.669 236.437L131.671 236.435C131.782 236.294 131.879 236.111 131.947 235.866L131.949 235.859L131.951 235.852C132.025 235.601 132.068 235.3 132.068 234.939C132.068 234.64 132.025 234.378 131.946 234.144L131.943 234.137L131.941 234.13C131.866 233.899 131.764 233.721 131.642 233.579L131.635 233.57C131.516 233.429 131.369 233.315 131.18 233.228C131.017 233.152 130.801 233.101 130.511 233.101C130.289 233.101 130.125 233.118 130.009 233.142L129.998 233.144L129.987 233.146C129.861 233.169 129.763 233.2 129.686 233.234C129.591 233.276 129.502 233.327 129.418 233.386C129.312 233.465 129.196 233.559 129.071 233.669L128.674 234.018L126.028 233.339L126.846 225.203H135.316V228.785H130.022ZM127.109 232.584L127.751 226.203H134.316V227.785H129.122L128.762 231.195C129.014 231.049 129.315 230.92 129.667 230.809C130.019 230.697 130.426 230.642 130.889 230.642C131.48 230.642 132.011 230.744 132.479 230.949C132.948 231.154 133.347 231.444 133.675 231.819C134.003 232.188 134.255 232.637 134.431 233.164C134.606 233.691 134.694 234.277 134.694 234.922C134.694 235.531 134.612 236.097 134.448 236.618C134.284 237.14 134.035 237.591 133.701 237.972C133.373 238.347 132.957 238.643 132.453 238.859C131.949 239.07 131.357 239.176 130.678 239.176C130.156 239.176 129.664 239.103 129.201 238.956C128.738 238.81 128.325 238.59 127.962 238.297C127.604 238.004 127.309 237.635 127.074 237.189C126.846 236.744 126.702 236.226 126.644 235.634H128.19C128.29 236.36 128.557 236.911 128.99 237.286C129.43 237.661 129.992 237.849 130.678 237.849C131.064 237.849 131.407 237.781 131.706 237.646C132.005 237.506 132.254 237.31 132.453 237.058C132.658 236.8 132.811 236.492 132.91 236.135C133.016 235.777 133.068 235.379 133.068 234.939C133.068 234.541 133.01 234.169 132.893 233.823C132.781 233.478 132.617 233.179 132.4 232.927C132.184 232.669 131.917 232.467 131.601 232.32C131.284 232.174 130.921 232.101 130.511 232.101C130.241 232.101 130.007 232.121 129.808 232.162C129.614 232.197 129.438 232.25 129.28 232.32C129.122 232.391 128.973 232.476 128.832 232.575C128.697 232.675 128.557 232.789 128.41 232.918L127.109 232.584Z" fill="white"/>
<defs>
<filter id="filter0_dddd" x="192.636" y="87" width="16.7279" height="20" filterUnits="userSpaceOnUse" color-interpolation-filters="sRGB">
<feFlood flood-opacity="0" result="BackgroundImageFix"/>
<feColorMatrix in="SourceAlpha" type="matrix" values="0 0 0 0 0 0 0 0 0 0 0 0 0 0 0 0 0 0 127 0"/>
<feOffset dy="-1"/>
<feColorMatrix type="matrix" values="0 0 0 0 1 0 0 0 0 1 0 0 0 0 1 0 0 0 1 0"/>
<feBlend mode="normal" in2="BackgroundImageFix" result="effect1_dropShadow"/>
<feColorMatrix in="SourceAlpha" type="matrix" values="0 0 0 0 0 0 0 0 0 0 0 0 0 0 0 0 0 0 127 0"/>
<feOffset dy="1"/>
<feColorMatrix type="matrix" values="0 0 0 0 1 0 0 0 0 1 0 0 0 0 1 0 0 0 1 0"/>
<feBlend mode="normal" in2="effect1_dropShadow" result="effect2_dropShadow"/>
<feColorMatrix in="SourceAlpha" type="matrix" values="0 0 0 0 0 0 0 0 0 0 0 0 0 0 0 0 0 0 127 0"/>
<feOffset dx="1"/>
<feColorMatrix type="matrix" values="0 0 0 0 1 0 0 0 0 1 0 0 0 0 1 0 0 0 1 0"/>
<feBlend mode="normal" in2="effect2_dropShadow" result="effect3_dropShadow"/>
<feColorMatrix in="SourceAlpha" type="matrix" values="0 0 0 0 0 0 0 0 0 0 0 0 0 0 0 0 0 0 127 0"/>
<feOffset dx="-1"/>
<feColorMatrix type="matrix" values="0 0 0 0 1 0 0 0 0 1 0 0 0 0 1 0 0 0 1 0"/>
<feBlend mode="normal" in2="effect3_dropShadow" result="effect4_dropShadow"/>
<feBlend mode="normal" in="SourceGraphic" in2="effect4_dropShadow" result="shape"/>
</filter>
<filter id="filter1_dddd" x="127.636" y="195" width="16.7279" height="20" filterUnits="userSpaceOnUse" color-interpolation-filters="sRGB">
<feFlood flood-opacity="0" result="BackgroundImageFix"/>
<feColorMatrix in="SourceAlpha" type="matrix" values="0 0 0 0 0 0 0 0 0 0 0 0 0 0 0 0 0 0 127 0"/>
<feOffset dy="-1"/>
<feColorMatrix type="matrix" values="0 0 0 0 1 0 0 0 0 1 0 0 0 0 1 0 0 0 1 0"/>
<feBlend mode="normal" in2="BackgroundImageFix" result="effect1_dropShadow"/>
<feColorMatrix in="SourceAlpha" type="matrix" values="0 0 0 0 0 0 0 0 0 0 0 0 0 0 0 0 0 0 127 0"/>
<feOffset dy="1"/>
<feColorMatrix type="matrix" values="0 0 0 0 1 0 0 0 0 1 0 0 0 0 1 0 0 0 1 0"/>
<feBlend mode="normal" in2="effect1_dropShadow" result="effect2_dropShadow"/>
<feColorMatrix in="SourceAlpha" type="matrix" values="0 0 0 0 0 0 0 0 0 0 0 0 0 0 0 0 0 0 127 0"/>
<feOffset dx="1"/>
<feColorMatrix type="matrix" values="0 0 0 0 1 0 0 0 0 1 0 0 0 0 1 0 0 0 1 0"/>
<feBlend mode="normal" in2="effect2_dropShadow" result="effect3_dropShadow"/>
<feColorMatrix in="SourceAlpha" type="matrix" values="0 0 0 0 0 0 0 0 0 0 0 0 0 0 0 0 0 0 127 0"/>
<feOffset dx="-1"/>
<feColorMatrix type="matrix" values="0 0 0 0 1 0 0 0 0 1 0 0 0 0 1 0 0 0 1 0"/>
<feBlend mode="normal" in2="effect3_dropShadow" result="effect4_dropShadow"/>
<feBlend mode="normal" in="SourceGraphic" in2="effect4_dropShadow" result="shape"/>
</filter>
<filter id="filter2_dddd" x="63.636" y="87" width="16.7279" height="20" filterUnits="userSpaceOnUse" color-interpolation-filters="sRGB">
<feFlood flood-opacity="0" result="BackgroundImageFix"/>
<feColorMatrix in="SourceAlpha" type="matrix" values="0 0 0 0 0 0 0 0 0 0 0 0 0 0 0 0 0 0 127 0"/>
<feOffset dy="-1"/>
<feColorMatrix type="matrix" values="0 0 0 0 1 0 0 0 0 1 0 0 0 0 1 0 0 0 1 0"/>
<feBlend mode="normal" in2="BackgroundImageFix" result="effect1_dropShadow"/>
<feColorMatrix in="SourceAlpha" type="matrix" values="0 0 0 0 0 0 0 0 0 0 0 0 0 0 0 0 0 0 127 0"/>
<feOffset dy="1"/>
<feColorMatrix type="matrix" values="0 0 0 0 1 0 0 0 0 1 0 0 0 0 1 0 0 0 1 0"/>
<feBlend mode="normal" in2="effect1_dropShadow" result="effect2_dropShadow"/>
<feColorMatrix in="SourceAlpha" type="matrix" values="0 0 0 0 0 0 0 0 0 0 0 0 0 0 0 0 0 0 127 0"/>
<feOffset dx="1"/>
<feColorMatrix type="matrix" values="0 0 0 0 1 0 0 0 0 1 0 0 0 0 1 0 0 0 1 0"/>
<feBlend mode="normal" in2="effect2_dropShadow" result="effect3_dropShadow"/>
<feColorMatrix in="SourceAlpha" type="matrix" values="0 0 0 0 0 0 0 0 0 0 0 0 0 0 0 0 0 0 127 0"/>
<feOffset dx="-1"/>
<feColorMatrix type="matrix" values="0 0 0 0 1 0 0 0 0 1 0 0 0 0 1 0 0 0 1 0"/>
<feBlend mode="normal" in2="effect3_dropShadow" result="effect4_dropShadow"/>
<feBlend mode="normal" in="SourceGraphic" in2="effect4_dropShadow" result="shape"/>
</filter>
<filter id="filter3_dddd" x="20.636" y="87" width="16.7279" height="20" filterUnits="userSpaceOnUse" color-interpolation-filters="sRGB">
<feFlood flood-opacity="0" result="BackgroundImageFix"/>
<feColorMatrix in="SourceAlpha" type="matrix" values="0 0 0 0 0 0 0 0 0 0 0 0 0 0 0 0 0 0 127 0"/>
<feOffset dy="-1"/>
<feColorMatrix type="matrix" values="0 0 0 0 1 0 0 0 0 1 0 0 0 0 1 0 0 0 1 0"/>
<feBlend mode="normal" in2="BackgroundImageFix" result="effect1_dropShadow"/>
<feColorMatrix in="SourceAlpha" type="matrix" values="0 0 0 0 0 0 0 0 0 0 0 0 0 0 0 0 0 0 127 0"/>
<feOffset dy="1"/>
<feColorMatrix type="matrix" values="0 0 0 0 1 0 0 0 0 1 0 0 0 0 1 0 0 0 1 0"/>
<feBlend mode="normal" in2="effect1_dropShadow" result="effect2_dropShadow"/>
<feColorMatrix in="SourceAlpha" type="matrix" values="0 0 0 0 0 0 0 0 0 0 0 0 0 0 0 0 0 0 127 0"/>
<feOffset dx="1"/>
<feColorMatrix type="matrix" values="0 0 0 0 1 0 0 0 0 1 0 0 0 0 1 0 0 0 1 0"/>
<feBlend mode="normal" in2="effect2_dropShadow" result="effect3_dropShadow"/>
<feColorMatrix in="SourceAlpha" type="matrix" values="0 0 0 0 0 0 0 0 0 0 0 0 0 0 0 0 0 0 127 0"/>
<feOffset dx="-1"/>
<feColorMatrix type="matrix" values="0 0 0 0 1 0 0 0 0 1 0 0 0 0 1 0 0 0 1 0"/>
<feBlend mode="normal" in2="effect3_dropShadow" result="effect4_dropShadow"/>
<feBlend mode="normal" in="SourceGraphic" in2="effect4_dropShadow" result="shape"/>
</filter>
<filter id="filter4_dddd" x="47.6756" y="142.998" width="65.1102" height="22.5017" filterUnits="userSpaceOnUse" color-interpolation-filters="sRGB">
<feFlood flood-opacity="0" result="BackgroundImageFix"/>
<feColorMatrix in="SourceAlpha" type="matrix" values="0 0 0 0 0 0 0 0 0 0 0 0 0 0 0 0 0 0 127 0"/>
<feOffset dy="-1"/>
<feColorMatrix type="matrix" values="0 0 0 0 1 0 0 0 0 1 0 0 0 0 1 0 0 0 1 0"/>
<feBlend mode="normal" in2="BackgroundImageFix" result="effect1_dropShadow"/>
<feColorMatrix in="SourceAlpha" type="matrix" values="0 0 0 0 0 0 0 0 0 0 0 0 0 0 0 0 0 0 127 0"/>
<feOffset dy="1"/>
<feColorMatrix type="matrix" values="0 0 0 0 1 0 0 0 0 1 0 0 0 0 1 0 0 0 1 0"/>
<feBlend mode="normal" in2="effect1_dropShadow" result="effect2_dropShadow"/>
<feColorMatrix in="SourceAlpha" type="matrix" values="0 0 0 0 0 0 0 0 0 0 0 0 0 0 0 0 0 0 127 0"/>
<feOffset dx="1"/>
<feColorMatrix type="matrix" values="0 0 0 0 1 0 0 0 0 1 0 0 0 0 1 0 0 0 1 0"/>
<feBlend mode="normal" in2="effect2_dropShadow" result="effect3_dropShadow"/>
<feColorMatrix in="SourceAlpha" type="matrix" values="0 0 0 0 0 0 0 0 0 0 0 0 0 0 0 0 0 0 127 0"/>
<feOffset dx="-1"/>
<feColorMatrix type="matrix" values="0 0 0 0 1 0 0 0 0 1 0 0 0 0 1 0 0 0 1 0"/>
<feBlend mode="normal" in2="effect3_dropShadow" result="effect4_dropShadow"/>
<feBlend mode="normal" in="SourceGraphic" in2="effect4_dropShadow" result="shape"/>
</filter>
<filter id="filter5_dddd" x="143.964" y="143" width="57.7822" height="22.5" filterUnits="userSpaceOnUse" color-interpolation-filters="sRGB">
<feFlood flood-opacity="0" result="BackgroundImageFix"/>
<feColorMatrix in="SourceAlpha" type="matrix" values="0 0 0 0 0 0 0 0 0 0 0 0 0 0 0 0 0 0 127 0"/>
<feOffset dy="-1"/>
<feColorMatrix type="matrix" values="0 0 0 0 1 0 0 0 0 1 0 0 0 0 1 0 0 0 1 0"/>
<feBlend mode="normal" in2="BackgroundImageFix" result="effect1_dropShadow"/>
<feColorMatrix in="SourceAlpha" type="matrix" values="0 0 0 0 0 0 0 0 0 0 0 0 0 0 0 0 0 0 127 0"/>
<feOffset dy="1"/>
<feColorMatrix type="matrix" values="0 0 0 0 1 0 0 0 0 1 0 0 0 0 1 0 0 0 1 0"/>
<feBlend mode="normal" in2="effect1_dropShadow" result="effect2_dropShadow"/>
<feColorMatrix in="SourceAlpha" type="matrix" values="0 0 0 0 0 0 0 0 0 0 0 0 0 0 0 0 0 0 127 0"/>
<feOffset dx="1"/>
<feColorMatrix type="matrix" values="0 0 0 0 1 0 0 0 0 1 0 0 0 0 1 0 0 0 1 0"/>
<feBlend mode="normal" in2="effect2_dropShadow" result="effect3_dropShadow"/>
<feColorMatrix in="SourceAlpha" type="matrix" values="0 0 0 0 0 0 0 0 0 0 0 0 0 0 0 0 0 0 127 0"/>
<feOffset dx="-1"/>
<feColorMatrix type="matrix" values="0 0 0 0 1 0 0 0 0 1 0 0 0 0 1 0 0 0 1 0"/>
<feBlend mode="normal" in2="effect3_dropShadow" result="effect4_dropShadow"/>
<feBlend mode="normal" in="SourceGraphic" in2="effect4_dropShadow" result="shape"/>
</filter>
</defs>
</svg>
