<svg width="81" height="128" viewBox="0 0 81 128" fill="none" xmlns="http://www.w3.org/2000/svg">
<path d="M71.1621 22.084C71.1621 23.7246 70.9453 25.2363 70.5117 26.6191C70.0781 28.002 69.4512 29.1914 68.6309 30.1875C67.8105 31.1836 66.8086 31.9629 65.625 32.5254C64.4531 33.0762 63.1289 33.3516 61.6523 33.3516C60.1758 33.3516 58.8633 33.0762 57.7148 32.5254C56.5664 31.9629 55.5996 31.1836 54.8145 30.1875C54.0293 29.1797 53.4316 27.9902 53.0215 26.6191C52.6113 25.2363 52.4062 23.7246 52.4062 22.084V18.3574C52.4062 16.7168 52.6113 15.2051 53.0215 13.8223C53.4316 12.4395 54.0293 11.25 54.8145 10.2539C55.5996 9.24609 56.5605 8.46094 57.6973 7.89844C58.8457 7.33594 60.1582 7.05469 61.6348 7.05469C63.123 7.05469 64.4531 7.33594 65.625 7.89844C66.8086 8.46094 67.8105 9.24609 68.6309 10.2539C69.4512 11.25 70.0781 12.4395 70.5117 13.8223C70.9453 15.2051 71.1621 16.7168 71.1621 18.3574V22.084ZM66.1523 18.3223C66.1523 17.2793 66.0645 16.3184 65.8887 15.4395C65.7246 14.5605 65.4609 13.8047 65.0977 13.1719C64.7344 12.5391 64.2656 12.0469 63.6914 11.6953C63.1289 11.332 62.4434 11.1504 61.6348 11.1504C60.8379 11.1504 60.1699 11.332 59.6309 11.6953C59.0918 12.0469 58.6582 12.5391 58.3301 13.1719C58.002 13.8047 57.7676 14.5605 57.627 15.4395C57.4863 16.3184 57.416 17.2793 57.416 18.3223V22.084C57.416 23.1152 57.4863 24.0703 57.627 24.9492C57.7676 25.8281 58.002 26.5898 58.3301 27.2344C58.6582 27.8789 59.0918 28.3828 59.6309 28.7461C60.1699 29.1094 60.8438 29.291 61.6523 29.291C62.4492 29.291 63.1289 29.1094 63.6914 28.7461C64.2656 28.3828 64.7285 27.8848 65.0801 27.252C65.4434 26.6074 65.7129 25.8457 65.8887 24.9668C66.0645 24.0879 66.1523 23.127 66.1523 22.084V18.3223Z" fill="#C84646"/>
<path fill-rule="evenodd" clip-rule="evenodd" d="M66.0542 33.4286L66.0504 33.4304C64.7279 34.052 63.2553 34.3516 61.6523 34.3516C60.0499 34.3516 58.5857 34.0521 57.2824 33.4271L57.275 33.4235L57.275 33.4235C55.9931 32.7956 54.9078 31.9214 54.0291 30.8065L54.0256 30.8021L54.0256 30.8021C53.1556 29.6853 52.5049 28.3815 52.0634 26.9057L52.0628 26.9035C51.6218 25.4167 51.4062 23.8079 51.4062 22.084V18.3574C51.4062 16.6335 51.6218 15.0247 52.0628 13.5379C52.5038 12.0511 53.1546 10.7449 54.0274 9.63704C54.904 8.51254 55.982 7.63147 57.2538 7.00217L57.2574 7.00037L57.2574 7.00037C58.5625 6.36115 60.0293 6.05469 61.6348 6.05469C63.2504 6.05469 64.7312 6.36053 66.056 6.99608C67.371 7.62134 68.4904 8.49792 69.4046 9.62042C70.3153 10.7269 70.9988 12.0335 71.4659 13.5231C71.9336 15.0145 72.1621 16.6285 72.1621 18.3574V22.084C72.1621 23.8129 71.9336 25.4269 71.4659 26.9183C70.9985 28.4089 70.3144 29.7162 69.4028 30.8232C68.4878 31.9343 67.3682 32.8041 66.0542 33.4286ZM68.6309 10.2539C67.8105 9.24609 66.8086 8.46094 65.625 7.89844C64.4531 7.33594 63.123 7.05469 61.6348 7.05469C60.1582 7.05469 58.8457 7.33594 57.6973 7.89844C56.5605 8.46094 55.5996 9.24609 54.8145 10.2539C54.0293 11.25 53.4316 12.4395 53.0215 13.8223C52.6113 15.2051 52.4062 16.7168 52.4062 18.3574V22.084C52.4062 23.7246 52.6113 25.2363 53.0215 26.6191C53.4316 27.9902 54.0293 29.1797 54.8145 30.1875C55.5996 31.1836 56.5664 31.9629 57.7148 32.5254C58.8633 33.0762 60.1758 33.3516 61.6523 33.3516C63.1289 33.3516 64.4531 33.0762 65.625 32.5254C66.8086 31.9629 67.8105 31.1836 68.6309 30.1875C69.4512 29.1914 70.0781 28.002 70.5117 26.6191C70.9453 25.2363 71.1621 23.7246 71.1621 22.084V18.3574C71.1621 16.7168 70.9453 15.2051 70.5117 13.8223C70.0781 12.4395 69.4512 11.25 68.6309 10.2539ZM64.9056 15.623L64.9057 15.623C64.7577 14.8306 64.5267 14.1859 64.2304 13.6697C63.9434 13.1698 63.5887 12.805 63.1693 12.5482L63.159 12.5419L63.1489 12.5354C62.7789 12.2964 62.2912 12.1504 61.6348 12.1504C60.9916 12.1504 60.5296 12.2955 60.1897 12.5246L60.1835 12.5288L60.1771 12.5329C59.7976 12.7804 59.4753 13.1356 59.2178 13.6322C58.9493 14.15 58.7422 14.7989 58.6144 15.5974C58.4834 16.4161 58.416 17.3235 58.416 18.3223V22.084C58.416 23.0704 58.4833 23.972 58.6144 24.7912C58.7422 25.59 58.9499 26.2477 59.2212 26.7807C59.4812 27.2912 59.8069 27.6588 60.1897 27.9168C60.5274 28.1444 60.9941 28.291 61.6523 28.291C62.2939 28.291 62.7766 28.1465 63.1489 27.9061L63.1567 27.901L63.1568 27.901C63.5803 27.6331 63.9302 27.2626 64.2059 26.7663L64.2089 26.7609L64.2089 26.7609C64.5108 26.2254 64.7488 25.5673 64.9081 24.7707C65.0691 23.9658 65.1523 23.0715 65.1523 22.084V18.3223C65.1523 17.3347 65.0691 16.4404 64.9081 15.6356L64.9056 15.623ZM65.8887 15.4395C66.0645 16.3184 66.1523 17.2793 66.1523 18.3223V22.084C66.1523 23.127 66.0645 24.0879 65.8887 24.9668C65.7129 25.8457 65.4434 26.6074 65.0801 27.252C64.7285 27.8848 64.2656 28.3828 63.6914 28.7461C63.1289 29.1094 62.4492 29.291 61.6523 29.291C60.8438 29.291 60.1699 29.1094 59.6309 28.7461C59.0918 28.3828 58.6582 27.8789 58.3301 27.2344C58.002 26.5898 57.7676 25.8281 57.627 24.9492C57.4863 24.0703 57.416 23.1152 57.416 22.084V18.3223C57.416 17.2793 57.4863 16.3184 57.627 15.4395C57.7676 14.5605 58.002 13.8047 58.3301 13.1719C58.6582 12.5391 59.0918 12.0469 59.6309 11.6953C60.1699 11.332 60.8379 11.1504 61.6348 11.1504C62.4434 11.1504 63.1289 11.332 63.6914 11.6953C64.2656 12.0469 64.7344 12.5391 65.0977 13.1719C65.4609 13.8047 65.7246 14.5605 65.8887 15.4395Z" fill="white"/>
<path d="M69.6328 45.8145H53.6016V42H69.6328V45.8145Z" fill="black"/>
<path fill-rule="evenodd" clip-rule="evenodd" d="M70.6328 46.8145H52.6016V41H70.6328V46.8145ZM69.6328 45.8145V42H53.6016V45.8145H69.6328Z" fill="white"/>
<path d="M63.8027 68H62.1768V57.2773L58.8281 58.5518V57.0664L63.6709 55.2031H63.8027V68Z" fill="black"/>
<path fill-rule="evenodd" clip-rule="evenodd" d="M64.8027 69H61.1768V58.7279L57.8281 60.0023V56.3797L63.4852 54.2031H64.8027V69ZM62.1768 57.2773V68H63.8027V55.2031H63.6709L58.8281 57.0664V58.5518L62.1768 57.2773Z" fill="white"/>
<path d="M18.9688 16.582L23.5215 7.40625H29.3223L22.1152 20.0977L29.498 33H23.7324L19.0391 23.6836L14.3633 33H8.52734L15.9102 20.0977L8.7207 7.40625H14.4863L18.9688 16.582Z" fill="#C84646"/>
<path fill-rule="evenodd" clip-rule="evenodd" d="M15.9101 20.0977L8.72068 7.40625H14.4863L18.9687 16.582L23.5215 7.40625H29.3222L22.1152 20.0977L29.498 33H23.7324L19.039 23.6836L14.3633 33H8.52732L15.9101 20.0977ZM19.0407 25.9096L14.9803 34H6.80298L14.7594 20.0952L7.0049 6.40625H15.1107L18.9757 14.3181L22.9013 6.40625H31.0401L23.2663 20.0958L31.2224 34H23.1164L19.0407 25.9096Z" fill="white"/>
<path d="M26.6328 45.8145H10.6016V42H26.6328V45.8145Z" fill="black"/>
<path fill-rule="evenodd" clip-rule="evenodd" d="M27.6328 46.8145H9.60156V41H27.6328V46.8145ZM26.6328 45.8145V42H10.6016V45.8145H26.6328Z" fill="white"/>
<path d="M23.3779 68H14.9932V66.8311L19.1855 62.1729C19.5605 61.7568 19.874 61.3877 20.126 61.0654C20.3779 60.7432 20.5801 60.4473 20.7324 60.1777C20.8848 59.9023 20.9932 59.6445 21.0576 59.4043C21.1221 59.1582 21.1543 58.9062 21.1543 58.6484C21.1543 58.332 21.1016 58.0361 20.9961 57.7607C20.8965 57.4795 20.7471 57.2363 20.5479 57.0312C20.3545 56.8262 20.1172 56.665 19.8359 56.5479C19.5605 56.4248 19.2471 56.3633 18.8955 56.3633C18.4678 56.3633 18.0957 56.4248 17.7793 56.5479C17.4688 56.6709 17.208 56.8467 16.9971 57.0752C16.792 57.2979 16.6367 57.5703 16.5312 57.8926C16.4316 58.2148 16.3818 58.5752 16.3818 58.9736H14.7471C14.7471 58.4346 14.8408 57.9277 15.0283 57.4531C15.2158 56.9727 15.4854 56.5537 15.8369 56.1963C16.1943 55.8389 16.6279 55.5547 17.1377 55.3438C17.6533 55.1328 18.2393 55.0273 18.8955 55.0273C19.499 55.0273 20.041 55.1182 20.5215 55.2998C21.0078 55.4756 21.418 55.7217 21.752 56.0381C22.0859 56.3545 22.3408 56.7295 22.5166 57.1631C22.6982 57.5967 22.7891 58.0684 22.7891 58.5781C22.7891 58.959 22.7246 59.3369 22.5957 59.7119C22.4668 60.0811 22.291 60.4473 22.0684 60.8105C21.8516 61.1738 21.5967 61.5342 21.3037 61.8916C21.0166 62.2432 20.7119 62.5947 20.3896 62.9463L16.9531 66.6729H23.3779V68Z" fill="black"/>
<path fill-rule="evenodd" clip-rule="evenodd" d="M24.3779 69H13.9932V66.4473L18.4423 61.5039C18.8069 61.0994 19.1047 60.7481 19.3382 60.4495C19.5672 60.1566 19.7382 59.9038 19.8596 59.6896C19.9804 59.4707 20.0523 59.291 20.091 59.148C20.133 58.9867 20.1543 58.8209 20.1543 58.6484C20.1543 58.4453 20.1209 58.2715 20.0622 58.1184L20.0577 58.1065L20.0535 58.0946C19.9998 57.9431 19.925 57.8253 19.8306 57.728L19.8254 57.7227L19.8203 57.7173C19.7309 57.6225 19.6135 57.5385 19.4513 57.4709L19.4396 57.466L19.428 57.4609C19.3005 57.4039 19.1296 57.3633 18.8955 57.3633C18.5627 57.3633 18.3196 57.4112 18.1446 57.4787C17.9648 57.5504 17.8335 57.6435 17.7323 57.753C17.6367 57.8569 17.5501 57.9976 17.4842 58.1958C17.4204 58.4055 17.3818 58.6616 17.3818 58.9736V59.9736H13.7471V58.9736C13.7471 58.3167 13.8617 57.6852 14.0975 57.0877C14.3328 56.4855 14.6751 55.9514 15.124 55.495L15.1298 55.4892C15.5883 55.0306 16.1353 54.6763 16.7553 54.4197L16.7591 54.4182C17.4142 54.1502 18.1321 54.0273 18.8955 54.0273C19.5965 54.0273 20.2588 54.1325 20.8682 54.3618C21.4652 54.5785 21.9958 54.8916 22.4397 55.3121C22.8779 55.7273 23.2127 56.2205 23.4412 56.7821C23.6767 57.3465 23.7891 57.949 23.7891 58.5781C23.7891 59.0741 23.7048 59.5617 23.5414 60.037L23.5398 60.0416C23.386 60.482 23.1793 60.9109 22.9241 61.328C22.6805 61.7356 22.3977 62.1344 22.0777 62.5248C21.7781 62.8916 21.4611 63.2573 21.1268 63.622L21.1248 63.6242L19.2356 65.6729H24.3779V69ZM16.9531 66.6729L20.3896 62.9463C20.7119 62.5947 21.0166 62.2432 21.3037 61.8916C21.5967 61.5342 21.8516 61.1738 22.0684 60.8105C22.291 60.4473 22.4668 60.0811 22.5957 59.7119C22.7246 59.3369 22.7891 58.959 22.7891 58.5781C22.7891 58.0684 22.6982 57.5967 22.5166 57.1631C22.3408 56.7295 22.0859 56.3545 21.752 56.0381C21.418 55.7217 21.0078 55.4756 20.5215 55.2998C20.041 55.1182 19.499 55.0273 18.8955 55.0273C18.2393 55.0273 17.6533 55.1328 17.1377 55.3438C16.6279 55.5547 16.1943 55.8389 15.8369 56.1963C15.4854 56.5537 15.2158 56.9727 15.0283 57.4531C14.9614 57.6225 14.9064 57.796 14.8634 57.9736C14.7858 58.2936 14.7471 58.627 14.7471 58.9736H16.3818C16.3818 58.5752 16.4316 58.2148 16.5312 57.8926C16.6367 57.5703 16.792 57.2979 16.9971 57.0752C17.208 56.8467 17.4688 56.6709 17.7793 56.5479C18.0957 56.4248 18.4678 56.3633 18.8955 56.3633C19.2471 56.3633 19.5605 56.4248 19.8359 56.5479C20.1172 56.665 20.3545 56.8262 20.5479 57.0312C20.7471 57.2363 20.8965 57.4795 20.9961 57.7607C21.1016 58.0361 21.1543 58.332 21.1543 58.6484C21.1543 58.9062 21.1221 59.1582 21.0576 59.4043C20.9932 59.6445 20.8848 59.9023 20.7324 60.1777C20.5801 60.4473 20.3779 60.7432 20.126 61.0654C19.874 61.3877 19.5605 61.7568 19.1855 62.1729L14.9932 66.8311V68H23.3779V66.6729H16.9531Z" fill="white"/>
<g filter="url(#filter0_dddd)">
<path fill-rule="evenodd" clip-rule="evenodd" d="M26.0711 92.3431L19.7071 98.7071C19.3166 99.0976 18.6834 99.0976 18.2929 98.7071L11.9289 92.3431C11.5384 91.9526 11.5384 91.3195 11.9289 90.9289C12.3194 90.5384 12.9526 90.5384 13.3431 90.9289L18 95.5858L18 81L20 81L20 95.5858L24.6568 90.9289C25.0474 90.5384 25.6805 90.5384 26.0711 90.9289C26.4616 91.3195 26.4616 91.9526 26.0711 92.3431Z" fill="black"/>
</g>
<path d="M23.3779 124H14.9932V122.831L19.1855 118.173C19.5605 117.757 19.874 117.388 20.126 117.065C20.3779 116.743 20.5801 116.447 20.7324 116.178C20.8848 115.902 20.9932 115.645 21.0576 115.404C21.1221 115.158 21.1543 114.906 21.1543 114.648C21.1543 114.332 21.1016 114.036 20.9961 113.761C20.8965 113.479 20.7471 113.236 20.5479 113.031C20.3545 112.826 20.1172 112.665 19.8359 112.548C19.5605 112.425 19.2471 112.363 18.8955 112.363C18.4678 112.363 18.0957 112.425 17.7793 112.548C17.4688 112.671 17.208 112.847 16.9971 113.075C16.792 113.298 16.6367 113.57 16.5312 113.893C16.4316 114.215 16.3818 114.575 16.3818 114.974H14.7471C14.7471 114.435 14.8408 113.928 15.0283 113.453C15.2158 112.973 15.4854 112.554 15.8369 112.196C16.1943 111.839 16.6279 111.555 17.1377 111.344C17.6533 111.133 18.2393 111.027 18.8955 111.027C19.499 111.027 20.041 111.118 20.5215 111.3C21.0078 111.476 21.418 111.722 21.752 112.038C22.0859 112.354 22.3408 112.729 22.5166 113.163C22.6982 113.597 22.7891 114.068 22.7891 114.578C22.7891 114.959 22.7246 115.337 22.5957 115.712C22.4668 116.081 22.291 116.447 22.0684 116.811C21.8516 117.174 21.5967 117.534 21.3037 117.892C21.0166 118.243 20.7119 118.595 20.3896 118.946L16.9531 122.673H23.3779V124Z" fill="#001AFF"/>
<path fill-rule="evenodd" clip-rule="evenodd" d="M24.3779 125H13.9932V122.447L18.4423 117.504C18.8069 117.099 19.1047 116.748 19.3382 116.45C19.5672 116.157 19.7382 115.904 19.8596 115.69C19.9804 115.471 20.0523 115.291 20.091 115.148C20.133 114.987 20.1543 114.821 20.1543 114.648C20.1543 114.445 20.1209 114.272 20.0622 114.118L20.0577 114.107L20.0535 114.095C19.9998 113.943 19.925 113.825 19.8306 113.728L19.8254 113.723L19.8203 113.717C19.7309 113.622 19.6135 113.539 19.4513 113.471L19.4396 113.466L19.428 113.461C19.3005 113.404 19.1296 113.363 18.8955 113.363C18.5627 113.363 18.3196 113.411 18.1446 113.479C17.9648 113.55 17.8335 113.644 17.7323 113.753C17.6367 113.857 17.5501 113.998 17.4842 114.196C17.4204 114.405 17.3818 114.662 17.3818 114.974V115.974H13.7471V114.974C13.7471 114.317 13.8617 113.685 14.0975 113.088C14.3328 112.485 14.6751 111.951 15.124 111.495L15.1298 111.489C15.5883 111.031 16.1353 110.676 16.7553 110.42L16.7591 110.418C17.4142 110.15 18.1321 110.027 18.8955 110.027C19.5965 110.027 20.2588 110.133 20.8682 110.362C21.4652 110.579 21.9958 110.892 22.4397 111.312C22.8779 111.727 23.2127 112.221 23.4412 112.782C23.6767 113.347 23.7891 113.949 23.7891 114.578C23.7891 115.074 23.7048 115.562 23.5414 116.037L23.5398 116.042C23.386 116.482 23.1793 116.911 22.9241 117.328C22.6805 117.736 22.3977 118.134 22.0777 118.525C21.7781 118.892 21.4611 119.257 21.1268 119.622L21.1248 119.624L19.2356 121.673H24.3779V125ZM16.9531 122.673L20.3896 118.946C20.7119 118.595 21.0166 118.243 21.3037 117.892C21.5967 117.534 21.8516 117.174 22.0684 116.811C22.291 116.447 22.4668 116.081 22.5957 115.712C22.7246 115.337 22.7891 114.959 22.7891 114.578C22.7891 114.068 22.6982 113.597 22.5166 113.163C22.3408 112.729 22.0859 112.354 21.752 112.038C21.418 111.722 21.0078 111.476 20.5215 111.3C20.041 111.118 19.499 111.027 18.8955 111.027C18.2393 111.027 17.6533 111.133 17.1377 111.344C16.6279 111.555 16.1943 111.839 15.8369 112.196C15.4854 112.554 15.2158 112.973 15.0283 113.453C14.9614 113.623 14.9064 113.796 14.8634 113.974C14.7858 114.294 14.7471 114.627 14.7471 114.974H16.3818C16.3818 114.575 16.4316 114.215 16.5312 113.893C16.6367 113.57 16.792 113.298 16.9971 113.075C17.208 112.847 17.4688 112.671 17.7793 112.548C18.0957 112.425 18.4678 112.363 18.8955 112.363C19.2471 112.363 19.5605 112.425 19.8359 112.548C20.1172 112.665 20.3545 112.826 20.5479 113.031C20.7471 113.236 20.8965 113.479 20.9961 113.761C21.1016 114.036 21.1543 114.332 21.1543 114.648C21.1543 114.906 21.1221 115.158 21.0576 115.404C20.9932 115.645 20.8848 115.902 20.7324 116.178C20.5801 116.447 20.3779 116.743 20.126 117.065C19.874 117.388 19.5605 117.757 19.1855 118.173L14.9932 122.831V124H23.3779V122.673H16.9531Z" fill="white"/>
<defs>
<filter id="filter0_dddd" x="10.636" y="80" width="16.7279" height="20" filterUnits="userSpaceOnUse" color-interpolation-filters="sRGB">
<feFlood flood-opacity="0" result="BackgroundImageFix"/>
<feColorMatrix in="SourceAlpha" type="matrix" values="0 0 0 0 0 0 0 0 0 0 0 0 0 0 0 0 0 0 127 0"/>
<feOffset dy="-1"/>
<feColorMatrix type="matrix" values="0 0 0 0 1 0 0 0 0 1 0 0 0 0 1 0 0 0 1 0"/>
<feBlend mode="normal" in2="BackgroundImageFix" result="effect1_dropShadow"/>
<feColorMatrix in="SourceAlpha" type="matrix" values="0 0 0 0 0 0 0 0 0 0 0 0 0 0 0 0 0 0 127 0"/>
<feOffset dy="1"/>
<feColorMatrix type="matrix" values="0 0 0 0 1 0 0 0 0 1 0 0 0 0 1 0 0 0 1 0"/>
<feBlend mode="normal" in2="effect1_dropShadow" result="effect2_dropShadow"/>
<feColorMatrix in="SourceAlpha" type="matrix" values="0 0 0 0 0 0 0 0 0 0 0 0 0 0 0 0 0 0 127 0"/>
<feOffset dx="1"/>
<feColorMatrix type="matrix" values="0 0 0 0 1 0 0 0 0 1 0 0 0 0 1 0 0 0 1 0"/>
<feBlend mode="normal" in2="effect2_dropShadow" result="effect3_dropShadow"/>
<feColorMatrix in="SourceAlpha" type="matrix" values="0 0 0 0 0 0 0 0 0 0 0 0 0 0 0 0 0 0 127 0"/>
<feOffset dx="-1"/>
<feColorMatrix type="matrix" values="0 0 0 0 1 0 0 0 0 1 0 0 0 0 1 0 0 0 1 0"/>
<feBlend mode="normal" in2="effect3_dropShadow" result="effect4_dropShadow"/>
<feBlend mode="normal" in="SourceGraphic" in2="effect4_dropShadow" result="shape"/>
</filter>
</defs>
</svg>
