<svg width="81" height="128" viewBox="0 0 81 128" fill="none" xmlns="http://www.w3.org/2000/svg">
<mask id="path-1-outside-1" maskUnits="userSpaceOnUse" x="10.041" y="6.03711" width="62" height="29" fill="black">
<rect fill="white" x="10.041" y="6.03711" width="62" height="29"/>
<path fill-rule="evenodd" clip-rule="evenodd" d="M69.5625 27.6387C69.9492 26.373 70.1426 24.9141 70.1426 23.2617V17.1445C70.1426 15.4922 69.9492 14.0391 69.5625 12.7852C69.1758 11.5195 68.6191 10.4648 67.8926 9.62109C67.1777 8.76562 66.3047 8.12109 65.2734 7.6875C64.2422 7.25391 63.082 7.03711 61.793 7.03711C60.5156 7.03711 59.3613 7.25391 58.3301 7.6875C57.3105 8.12109 56.4375 8.76562 55.7109 9.62109C54.9961 10.4648 54.4453 11.5195 54.0586 12.7852C53.6719 14.0391 53.4785 15.4922 53.4785 17.1445V23.2617C53.4785 24.9141 53.6719 26.373 54.0586 27.6387C54.457 28.8926 55.0137 29.9473 55.7285 30.8027C56.4551 31.6465 57.334 32.2852 58.3652 32.7188C59.3965 33.1523 60.5508 33.3691 61.8281 33.3691C63.1172 33.3691 64.2773 33.1523 65.3086 32.7188C66.3398 32.2852 67.2129 31.6465 67.9277 30.8027C68.6426 29.9473 69.1875 28.8926 69.5625 27.6387ZM65.2207 16.0723L58.4004 21.1523V16.3711C58.4004 14.543 58.6816 13.1895 59.2441 12.3105C59.8066 11.4316 60.6562 10.9922 61.793 10.9922C62.918 10.9922 63.7617 11.4082 64.3242 12.2402C64.8867 13.0723 65.1855 14.3496 65.2207 16.0723ZM58.4004 24.457L65.2207 19.3945V24C65.2207 25.8398 64.9395 27.2051 64.377 28.0957C63.8262 28.9863 62.9766 29.4316 61.8281 29.4316C60.7266 29.4316 59.8945 29.0273 59.332 28.2188C58.7695 27.3984 58.459 26.1445 58.4004 24.457ZM17.5098 33H22.4492V7.40625H22.1855L11.041 11.4316V15.6855L17.5098 13.3652V33Z"/>
</mask>
<path fill-rule="evenodd" clip-rule="evenodd" d="M69.5625 27.6387C69.9492 26.373 70.1426 24.9141 70.1426 23.2617V17.1445C70.1426 15.4922 69.9492 14.0391 69.5625 12.7852C69.1758 11.5195 68.6191 10.4648 67.8926 9.62109C67.1777 8.76562 66.3047 8.12109 65.2734 7.6875C64.2422 7.25391 63.082 7.03711 61.793 7.03711C60.5156 7.03711 59.3613 7.25391 58.3301 7.6875C57.3105 8.12109 56.4375 8.76562 55.7109 9.62109C54.9961 10.4648 54.4453 11.5195 54.0586 12.7852C53.6719 14.0391 53.4785 15.4922 53.4785 17.1445V23.2617C53.4785 24.9141 53.6719 26.373 54.0586 27.6387C54.457 28.8926 55.0137 29.9473 55.7285 30.8027C56.4551 31.6465 57.334 32.2852 58.3652 32.7188C59.3965 33.1523 60.5508 33.3691 61.8281 33.3691C63.1172 33.3691 64.2773 33.1523 65.3086 32.7188C66.3398 32.2852 67.2129 31.6465 67.9277 30.8027C68.6426 29.9473 69.1875 28.8926 69.5625 27.6387ZM65.2207 16.0723L58.4004 21.1523V16.3711C58.4004 14.543 58.6816 13.1895 59.2441 12.3105C59.8066 11.4316 60.6562 10.9922 61.793 10.9922C62.918 10.9922 63.7617 11.4082 64.3242 12.2402C64.8867 13.0723 65.1855 14.3496 65.2207 16.0723ZM58.4004 24.457L65.2207 19.3945V24C65.2207 25.8398 64.9395 27.2051 64.377 28.0957C63.8262 28.9863 62.9766 29.4316 61.8281 29.4316C60.7266 29.4316 59.8945 29.0273 59.332 28.2188C58.7695 27.3984 58.459 26.1445 58.4004 24.457ZM17.5098 33H22.4492V7.40625H22.1855L11.041 11.4316V15.6855L17.5098 13.3652V33Z" fill="#C84646"/>
<path d="M69.5625 27.6387L68.6061 27.3464L68.6044 27.3521L69.5625 27.6387ZM69.5625 12.7852L68.6061 13.0774L68.6069 13.0799L69.5625 12.7852ZM67.8926 9.62109L67.1252 10.2623L67.13 10.268L67.1348 10.2736L67.8926 9.62109ZM58.3301 7.6875L57.9425 6.76566L57.9387 6.76726L58.3301 7.6875ZM55.7109 9.62109L54.9487 8.97375L54.948 8.97468L55.7109 9.62109ZM54.0586 12.7852L55.0142 13.0799L55.0149 13.0774L54.0586 12.7852ZM54.0586 27.6387L53.1022 27.9309L53.1056 27.9415L54.0586 27.6387ZM55.7285 30.8027L54.9612 31.444L54.9659 31.4496L54.9707 31.4553L55.7285 30.8027ZM67.9277 30.8027L68.6907 31.4492L68.6951 31.444L67.9277 30.8027ZM58.4004 21.1523H57.4004V23.1441L58.9977 21.9543L58.4004 21.1523ZM65.2207 16.0723L65.8181 16.8742L66.231 16.5667L66.2205 16.0519L65.2207 16.0723ZM65.2207 19.3945H66.2207V17.4069L64.6247 18.5916L65.2207 19.3945ZM58.4004 24.457L57.8044 23.6541L57.3828 23.967L57.401 24.4917L58.4004 24.457ZM64.377 28.0957L63.5314 27.5617L63.5264 27.5697L64.377 28.0957ZM59.332 28.2188L58.5073 28.7843L58.5111 28.7898L59.332 28.2188ZM22.4492 33V34H23.4492V33H22.4492ZM17.5098 33H16.5098V34H17.5098V33ZM22.4492 7.40625H23.4492V6.40625H22.4492V7.40625ZM22.1855 7.40625V6.40625H22.0105L21.8458 6.46572L22.1855 7.40625ZM11.041 11.4316L10.7013 10.4911L10.041 10.7296V11.4316H11.041ZM11.041 15.6855H10.041V17.1066L11.3786 16.6268L11.041 15.6855ZM17.5098 13.3652H18.5098V11.9442L17.1721 12.424L17.5098 13.3652ZM69.1426 23.2617C69.1426 24.8385 68.9578 26.1956 68.6061 27.3465L70.5189 27.9309C70.9407 26.5504 71.1426 24.9896 71.1426 23.2617H69.1426ZM69.1426 17.1445V23.2617H71.1426V17.1445H69.1426ZM68.6069 13.0799C68.9577 14.2173 69.1426 15.5674 69.1426 17.1445H71.1426C71.1426 15.4169 70.9407 13.8608 70.5181 12.4904L68.6069 13.0799ZM67.1348 10.2736C67.7555 10.9944 68.2524 11.9197 68.6061 13.0774L70.5189 12.4929C70.0991 11.1194 69.4828 9.93525 68.6503 8.96857L67.1348 10.2736ZM64.8858 8.60933C65.7705 8.98127 66.5131 9.5298 67.1252 10.2623L68.6599 8.97988C67.8423 8.00145 66.8389 7.26092 65.661 6.76567L64.8858 8.60933ZM61.793 8.03711C62.969 8.03711 63.9946 8.23459 64.8858 8.60933L65.661 6.76567C64.4898 6.27323 63.195 6.03711 61.793 6.03711V8.03711ZM58.7177 8.60933C59.61 8.23414 60.63 8.03711 61.793 8.03711V6.03711C60.4013 6.03711 59.1126 6.27368 57.9425 6.76567L58.7177 8.60933ZM56.4731 10.2684C57.1004 9.52993 57.847 8.97963 58.7214 8.60774L57.9387 6.76726C56.7741 7.26256 55.7746 8.00132 54.9487 8.97375L56.4731 10.2684ZM55.0149 13.0774C55.3696 11.9166 55.8624 10.9893 56.4739 10.2675L54.948 8.97468C54.1297 9.94043 53.521 11.1224 53.1022 12.4929L55.0149 13.0774ZM54.4785 17.1445C54.4785 15.5674 54.6634 14.2173 55.0142 13.0799L53.103 12.4904C52.6804 13.8608 52.4785 15.4169 52.4785 17.1445H54.4785ZM54.4785 23.2617V17.1445H52.4785V23.2617H54.4785ZM55.0149 27.3465C54.6633 26.1956 54.4785 24.8385 54.4785 23.2617H52.4785C52.4785 24.9896 52.6804 26.5504 53.1022 27.9309L55.0149 27.3465ZM56.4959 30.1615C55.8779 29.422 55.3777 28.4879 55.0116 27.3358L53.1056 27.9415C53.5364 29.2973 54.1495 30.4726 54.9612 31.444L56.4959 30.1615ZM58.7528 31.7969C57.8634 31.423 57.1114 30.8762 56.4863 30.1502L54.9707 31.4553C55.7987 32.4168 56.8045 33.1473 57.9776 33.6406L58.7528 31.7969ZM61.8281 32.3691C60.6651 32.3691 59.6452 32.1721 58.7528 31.7969L57.9776 33.6406C59.1478 34.1326 60.4364 34.3691 61.8281 34.3691V32.3691ZM64.921 31.7969C64.0297 32.1717 63.0042 32.3691 61.8281 32.3691V34.3691C63.2302 34.3691 64.525 34.133 65.6962 33.6406L64.921 31.7969ZM67.1648 30.1563C66.5528 30.8786 65.8089 31.4236 64.921 31.7969L65.6962 33.6406C66.8707 33.1467 67.8729 32.4144 68.6907 31.4492L67.1648 30.1563ZM68.6044 27.3521C68.2616 28.4984 67.7745 29.4266 67.1604 30.1615L68.6951 31.444C69.5107 30.4679 70.1134 29.2867 70.5206 27.9252L68.6044 27.3521ZM58.9977 21.9543L65.8181 16.8742L64.6234 15.2703L57.803 20.3504L58.9977 21.9543ZM57.4004 16.3711V21.1523H59.4004V16.3711H57.4004ZM58.4019 11.7715C57.6848 12.8919 57.4004 14.4777 57.4004 16.3711H59.4004C59.4004 14.6082 59.6784 13.487 60.0864 12.8496L58.4019 11.7715ZM61.793 9.99219C60.3516 9.99219 59.1669 10.5761 58.4019 11.7715L60.0864 12.8496C60.4463 12.2872 60.9609 11.9922 61.793 11.9922V9.99219ZM65.1527 11.6802C64.3795 10.5365 63.2033 9.99219 61.793 9.99219V11.9922C62.6326 11.9922 63.144 12.2799 63.4958 12.8003L65.1527 11.6802ZM66.2205 16.0519C66.1839 14.2585 65.8755 12.7494 65.1527 11.6802L63.4958 12.8003C63.8979 13.3951 64.1872 14.4407 64.2209 16.0927L66.2205 16.0519ZM64.6247 18.5916L57.8044 23.6541L58.9964 25.26L65.8167 20.1975L64.6247 18.5916ZM66.2207 24V19.3945H64.2207V24H66.2207ZM65.2224 28.6297C65.9361 27.4997 66.2207 25.9053 66.2207 24H64.2207C64.2207 25.7744 63.9428 26.9104 63.5315 27.5617L65.2224 28.6297ZM61.8281 30.4316C63.2829 30.4316 64.4743 29.8396 65.2275 28.6217L63.5264 27.5697C63.1781 28.1331 62.6702 28.4316 61.8281 28.4316V30.4316ZM58.5111 28.7898C59.2849 29.9022 60.4443 30.4316 61.8281 30.4316V28.4316C61.0088 28.4316 60.5041 28.1525 60.1529 27.6477L58.5111 28.7898ZM57.401 24.4917C57.4621 26.2516 57.786 27.7324 58.5073 28.7843L60.1568 27.6532C59.7531 27.0645 59.4559 26.0375 59.3998 24.4223L57.401 24.4917ZM22.4492 32H17.5098V34H22.4492V32ZM21.4492 7.40625V33H23.4492V7.40625H21.4492ZM22.1855 8.40625H22.4492V6.40625H22.1855V8.40625ZM11.3807 12.3722L22.5253 8.34678L21.8458 6.46572L10.7013 10.4911L11.3807 12.3722ZM12.041 15.6855V11.4316H10.041V15.6855H12.041ZM17.1721 12.424L10.7034 14.7443L11.3786 16.6268L17.8474 14.3065L17.1721 12.424ZM18.5098 33V13.3652H16.5098V33H18.5098Z" fill="white" mask="url(#path-1-outside-1)"/>
<mask id="path-3-outside-2" maskUnits="userSpaceOnUse" x="9.60156" y="41" width="62" height="59" fill="black">
<rect fill="white" x="9.60156" y="41" width="62" height="59"/>
<path fill-rule="evenodd" clip-rule="evenodd" d="M10.6016 45.8145H26.6328V42H10.6016V45.8145ZM69.6328 45.8145H53.6016V42H69.6328V45.8145ZM63.8027 68H62.1768V57.2773L58.8281 58.5518V57.0664L63.6709 55.2031H63.8027V68ZM14.9932 68V66.8311L19.1855 62.1729C19.5605 61.7568 19.874 61.3877 20.126 61.0654C20.3779 60.7432 20.5801 60.4473 20.7324 60.1777C20.8848 59.9023 20.9932 59.6445 21.0576 59.4043C21.1221 59.1582 21.1543 58.9062 21.1543 58.6484C21.1543 58.332 21.1016 58.0361 20.9961 57.7607C20.8965 57.4795 20.7471 57.2363 20.5479 57.0312C20.3545 56.8262 20.1172 56.665 19.8359 56.5479C19.5605 56.4248 19.2471 56.3633 18.8955 56.3633C18.4678 56.3633 18.0957 56.4248 17.7793 56.5479C17.4688 56.6709 17.208 56.8467 16.9971 57.0752C16.792 57.2979 16.6367 57.5703 16.5312 57.8926C16.4316 58.2148 16.3818 58.5752 16.3818 58.9736H14.7471C14.7471 58.4346 14.8408 57.9277 15.0283 57.4531C15.2158 56.9727 15.4854 56.5537 15.8369 56.1963C16.1943 55.8389 16.6279 55.5547 17.1377 55.3438C17.6533 55.1328 18.2393 55.0273 18.8955 55.0273C19.499 55.0273 20.041 55.1182 20.5215 55.2998C21.0078 55.4756 21.418 55.7217 21.752 56.0381C22.0859 56.3545 22.3408 56.7295 22.5166 57.1631C22.6982 57.5967 22.7891 58.0684 22.7891 58.5781C22.7891 58.959 22.7246 59.3369 22.5957 59.7119C22.4668 60.0811 22.291 60.4473 22.0684 60.8105C21.8516 61.1738 21.5967 61.5342 21.3037 61.8916C21.0166 62.2432 20.7119 62.5947 20.3896 62.9463L16.9531 66.6729H23.3779V68H14.9932ZM19.7071 98.7071L26.0711 92.3431C26.4616 91.9526 26.4616 91.3195 26.0711 90.9289C25.6805 90.5384 25.0474 90.5384 24.6569 90.9289L20 95.5858V81H18L18 95.5858L13.3431 90.9289C12.9526 90.5384 12.3195 90.5384 11.9289 90.9289C11.5384 91.3195 11.5384 91.9526 11.9289 92.3431L18.2929 98.7071C18.6834 99.0976 19.3166 99.0976 19.7071 98.7071Z"/>
</mask>
<path fill-rule="evenodd" clip-rule="evenodd" d="M10.6016 45.8145H26.6328V42H10.6016V45.8145ZM69.6328 45.8145H53.6016V42H69.6328V45.8145ZM63.8027 68H62.1768V57.2773L58.8281 58.5518V57.0664L63.6709 55.2031H63.8027V68ZM14.9932 68V66.8311L19.1855 62.1729C19.5605 61.7568 19.874 61.3877 20.126 61.0654C20.3779 60.7432 20.5801 60.4473 20.7324 60.1777C20.8848 59.9023 20.9932 59.6445 21.0576 59.4043C21.1221 59.1582 21.1543 58.9062 21.1543 58.6484C21.1543 58.332 21.1016 58.0361 20.9961 57.7607C20.8965 57.4795 20.7471 57.2363 20.5479 57.0312C20.3545 56.8262 20.1172 56.665 19.8359 56.5479C19.5605 56.4248 19.2471 56.3633 18.8955 56.3633C18.4678 56.3633 18.0957 56.4248 17.7793 56.5479C17.4688 56.6709 17.208 56.8467 16.9971 57.0752C16.792 57.2979 16.6367 57.5703 16.5312 57.8926C16.4316 58.2148 16.3818 58.5752 16.3818 58.9736H14.7471C14.7471 58.4346 14.8408 57.9277 15.0283 57.4531C15.2158 56.9727 15.4854 56.5537 15.8369 56.1963C16.1943 55.8389 16.6279 55.5547 17.1377 55.3438C17.6533 55.1328 18.2393 55.0273 18.8955 55.0273C19.499 55.0273 20.041 55.1182 20.5215 55.2998C21.0078 55.4756 21.418 55.7217 21.752 56.0381C22.0859 56.3545 22.3408 56.7295 22.5166 57.1631C22.6982 57.5967 22.7891 58.0684 22.7891 58.5781C22.7891 58.959 22.7246 59.3369 22.5957 59.7119C22.4668 60.0811 22.291 60.4473 22.0684 60.8105C21.8516 61.1738 21.5967 61.5342 21.3037 61.8916C21.0166 62.2432 20.7119 62.5947 20.3896 62.9463L16.9531 66.6729H23.3779V68H14.9932ZM19.7071 98.7071L26.0711 92.3431C26.4616 91.9526 26.4616 91.3195 26.0711 90.9289C25.6805 90.5384 25.0474 90.5384 24.6569 90.9289L20 95.5858V81H18L18 95.5858L13.3431 90.9289C12.9526 90.5384 12.3195 90.5384 11.9289 90.9289C11.5384 91.3195 11.5384 91.9526 11.9289 92.3431L18.2929 98.7071C18.6834 99.0976 19.3166 99.0976 19.7071 98.7071Z" fill="black"/>
<path d="M26.6328 45.8145V46.8145H27.6328V45.8145H26.6328ZM10.6016 45.8145H9.60156V46.8145H10.6016V45.8145ZM26.6328 42H27.6328V41H26.6328V42ZM10.6016 42V41H9.60156V42H10.6016ZM53.6016 45.8145H52.6016V46.8145H53.6016V45.8145ZM69.6328 45.8145V46.8145H70.6328V45.8145H69.6328ZM53.6016 42V41H52.6016V42H53.6016ZM69.6328 42H70.6328V41H69.6328V42ZM62.1768 68H61.1768V69H62.1768V68ZM63.8027 68V69H64.8027V68H63.8027ZM62.1768 57.2773H63.1768V55.8268L61.8211 56.3427L62.1768 57.2773ZM58.8281 58.5518H57.8281V60.0023L59.1838 59.4864L58.8281 58.5518ZM58.8281 57.0664L58.469 56.1331L57.8281 56.3797V57.0664H58.8281ZM63.6709 55.2031V54.2031H63.4852L63.3118 54.2698L63.6709 55.2031ZM63.8027 55.2031H64.8027V54.2031H63.8027V55.2031ZM14.9932 66.8311L14.2499 66.1621L13.9932 66.4473V66.8311H14.9932ZM14.9932 68H13.9932V69H14.9932V68ZM19.1855 62.1729L18.4428 61.5033L18.4423 61.5039L19.1855 62.1729ZM20.7324 60.1777L21.603 60.6698L21.6075 60.6618L20.7324 60.1777ZM21.0576 59.4043L22.0235 59.6634L22.025 59.6577L21.0576 59.4043ZM20.9961 57.7607L20.0535 58.0946L20.0577 58.1065L20.0622 58.1184L20.9961 57.7607ZM20.5479 57.0312L19.8203 57.7173L19.8254 57.7227L19.8306 57.728L20.5479 57.0312ZM19.8359 56.5479L19.428 57.4609L19.4396 57.466L19.4513 57.4709L19.8359 56.5479ZM17.7793 56.5479L17.4168 55.6158L17.4109 55.6182L17.7793 56.5479ZM16.9971 57.0752L16.2623 56.3969L16.2615 56.3977L16.9971 57.0752ZM16.5312 57.8926L15.5809 57.5815L15.5783 57.5894L15.5758 57.5973L16.5312 57.8926ZM16.3818 58.9736V59.9736H17.3818V58.9736H16.3818ZM14.7471 58.9736H13.7471V59.9736H14.7471V58.9736ZM15.0283 57.4531L15.9584 57.8206L15.9599 57.8167L15.0283 57.4531ZM15.8369 56.1963L15.1298 55.4892L15.124 55.4951L15.8369 56.1963ZM17.1377 55.3438L16.7591 54.4182L16.7553 54.4197L17.1377 55.3438ZM20.5215 55.2998L20.1679 56.2352L20.1747 56.2378L20.1816 56.2403L20.5215 55.2998ZM22.5166 57.1631L21.5898 57.5388L21.5943 57.5495L22.5166 57.1631ZM22.5957 59.7119L23.5398 60.0416L23.5414 60.037L22.5957 59.7119ZM22.0684 60.8105L21.2157 60.2879L21.2096 60.2981L22.0684 60.8105ZM21.3037 61.8916L20.5303 61.2577L20.5292 61.2591L21.3037 61.8916ZM20.3896 62.9463L21.1248 63.6242L21.1268 63.622L20.3896 62.9463ZM16.9531 66.6729L16.218 65.9949L14.6707 67.6729H16.9531V66.6729ZM23.3779 66.6729H24.3779V65.6729H23.3779V66.6729ZM23.3779 68V69H24.3779V68H23.3779ZM26.0711 92.3431L26.7782 93.0503L26.7782 93.0503L26.0711 92.3431ZM19.7071 98.7071L19 98L19 98L19.7071 98.7071ZM26.0711 90.9289L26.7782 90.2218L26.7782 90.2218L26.0711 90.9289ZM24.6569 90.9289L23.9497 90.2218L23.9497 90.2218L24.6569 90.9289ZM20 95.5858H19V98L20.7071 96.2929L20 95.5858ZM20 81H21V80H20V81ZM18 81V80H17L17 81L18 81ZM18 95.5858L17.2929 96.2929L19 98L19 95.5858L18 95.5858ZM13.3431 90.9289L12.636 91.636L12.636 91.636L13.3431 90.9289ZM11.9289 90.9289L12.636 91.636L12.636 91.636L11.9289 90.9289ZM11.9289 92.3431L12.636 91.636L12.636 91.636L11.9289 92.3431ZM18.2929 98.7071L17.5858 99.4142L17.5858 99.4142L18.2929 98.7071ZM26.6328 44.8145H10.6016V46.8145H26.6328V44.8145ZM25.6328 42V45.8145H27.6328V42H25.6328ZM10.6016 43H26.6328V41H10.6016V43ZM11.6016 45.8145V42H9.60156V45.8145H11.6016ZM53.6016 46.8145H69.6328V44.8145H53.6016V46.8145ZM52.6016 42V45.8145H54.6016V42H52.6016ZM69.6328 41H53.6016V43H69.6328V41ZM70.6328 45.8145V42H68.6328V45.8145H70.6328ZM62.1768 69H63.8027V67H62.1768V69ZM61.1768 57.2773V68H63.1768V57.2773H61.1768ZM59.1838 59.4864L62.5324 58.2119L61.8211 56.3427L58.4724 57.6172L59.1838 59.4864ZM57.8281 57.0664V58.5518H59.8281V57.0664H57.8281ZM63.3118 54.2698L58.469 56.1331L59.1872 57.9997L64.03 56.1364L63.3118 54.2698ZM63.8027 54.2031H63.6709V56.2031H63.8027V54.2031ZM64.8027 68V55.2031H62.8027V68H64.8027ZM13.9932 66.8311V68H15.9932V66.8311H13.9932ZM18.4423 61.5039L14.2499 66.1621L15.7365 67.5L19.9288 62.8418L18.4423 61.5039ZM19.3382 60.4495C19.1047 60.7481 18.8074 61.0988 18.4428 61.5033L19.9283 62.8424C20.3137 62.4149 20.6433 62.0273 20.9138 61.6814L19.3382 60.4495ZM19.8619 59.6857C19.7403 59.9007 19.5686 60.1548 19.3382 60.4495L20.9138 61.6814C21.1873 61.3316 21.4198 60.9938 21.603 60.6698L19.8619 59.6857ZM20.0918 59.1452C20.053 59.2895 19.9803 59.4715 19.8574 59.6937L21.6075 60.6618C21.7892 60.3332 21.9333 59.9995 22.0235 59.6634L20.0918 59.1452ZM20.1543 58.6484C20.1543 58.8219 20.1327 58.9887 20.0902 59.1509L22.025 59.6577C22.1114 59.3277 22.1543 58.9906 22.1543 58.6484H20.1543ZM20.0622 58.1184C20.1209 58.2715 20.1543 58.4453 20.1543 58.6484H22.1543C22.1543 58.2188 22.0822 57.8008 21.93 57.4031L20.0622 58.1184ZM19.8306 57.728C19.925 57.8253 19.9998 57.9431 20.0535 58.0946L21.9387 57.4269C21.7932 57.0159 21.5691 56.6474 21.2651 56.3345L19.8306 57.728ZM19.4513 57.4709C19.6135 57.5385 19.7309 57.6225 19.8203 57.7173L21.2754 56.3452C20.9781 56.0298 20.6209 55.7916 20.2206 55.6248L19.4513 57.4709ZM18.8955 57.3633C19.1296 57.3633 19.3005 57.4039 19.428 57.4609L20.2439 55.6348C19.8206 55.4457 19.3646 55.3633 18.8955 55.3633V57.3633ZM18.1417 57.4799C18.3169 57.4117 18.5608 57.3633 18.8955 57.3633V55.3633C18.3747 55.3633 17.8745 55.4379 17.4169 55.6158L18.1417 57.4799ZM17.7319 57.7535C17.8336 57.6432 17.966 57.5495 18.1477 57.4775L17.4109 55.6182C16.9715 55.7923 16.5824 56.0501 16.2623 56.3969L17.7319 57.7535ZM17.4816 58.2036C17.5479 58.001 17.6356 57.858 17.7326 57.7527L16.2615 56.3977C15.9484 56.7377 15.7255 57.1396 15.5809 57.5815L17.4816 58.2036ZM17.3818 58.9736C17.3818 58.6577 17.4214 58.399 17.4867 58.1879L15.5758 57.5973C15.4419 58.0307 15.3818 58.4927 15.3818 58.9736H17.3818ZM14.7471 59.9736H16.3818V57.9736H14.7471V59.9736ZM14.0983 57.0857C13.862 57.6838 13.7471 58.316 13.7471 58.9736H15.7471C15.7471 58.5532 15.8197 58.1717 15.9584 57.8206L14.0983 57.0857ZM15.124 55.4951C14.6747 55.9519 14.332 56.4866 14.0967 57.0896L15.9599 57.8167C16.0996 57.4587 16.296 57.1556 16.5498 56.8975L15.124 55.4951ZM16.7553 54.4197C16.1353 54.6763 15.5884 55.0306 15.1298 55.4892L16.544 56.9034C16.8003 56.6471 17.1206 56.4331 17.52 56.2678L16.7553 54.4197ZM18.8955 54.0273C18.1321 54.0273 17.4142 54.1502 16.7591 54.4182L17.5163 56.2693C17.8924 56.1155 18.3464 56.0273 18.8955 56.0273V54.0273ZM20.8751 54.3644C20.2638 54.1333 19.5991 54.0273 18.8955 54.0273V56.0273C19.3989 56.0273 19.8183 56.103 20.1679 56.2352L20.8751 54.3644ZM22.4397 55.3121C21.9941 54.89 21.4611 54.5761 20.8614 54.3594L20.1816 56.2403C20.5545 56.3751 20.8419 56.5534 21.0642 56.764L22.4397 55.3121ZM23.4433 56.7874C23.2148 56.2236 22.8793 55.7286 22.4397 55.3121L21.0642 56.764C21.2926 56.9804 21.4669 57.2354 21.5899 57.5388L23.4433 56.7874ZM23.7891 58.5781C23.7891 57.947 23.676 57.3427 23.4389 56.7767L21.5943 57.5495C21.7205 57.8507 21.7891 58.1897 21.7891 58.5781H23.7891ZM23.5414 60.037C23.7048 59.5617 23.7891 59.0741 23.7891 58.5781H21.7891C21.7891 58.8439 21.7445 59.1121 21.65 59.3868L23.5414 60.037ZM22.921 61.3331C23.1776 60.9144 23.3854 60.4838 23.5398 60.0416L21.6516 59.3822C21.5482 59.6783 21.4044 59.9802 21.2158 60.288L22.921 61.3331ZM22.0771 62.5255C22.3986 62.1333 22.6827 61.7325 22.9271 61.323L21.2096 60.2981C21.0204 60.6151 20.7947 60.9351 20.5303 61.2577L22.0771 62.5255ZM21.1268 63.622C21.4613 63.2571 21.7785 62.8912 22.0782 62.5241L20.5292 61.2591C20.2547 61.5952 19.9625 61.9323 19.6525 62.2706L21.1268 63.622ZM17.6883 67.3508L21.1248 63.6242L19.6545 62.2684L16.218 65.9949L17.6883 67.3508ZM23.3779 65.6729H16.9531V67.6729H23.3779V65.6729ZM24.3779 68V66.6729H22.3779V68H24.3779ZM14.9932 69H23.3779V67H14.9932V69ZM25.364 91.636L19 98L20.4142 99.4142L26.7782 93.0503L25.364 91.636ZM25.364 91.636V91.636L26.7782 93.0503C27.5592 92.2692 27.5592 91.0029 26.7782 90.2218L25.364 91.636ZM25.364 91.636H25.364L26.7782 90.2218C25.9971 89.4408 24.7308 89.4408 23.9497 90.2218L25.364 91.636ZM20.7071 96.2929L25.364 91.636L23.9497 90.2218L19.2929 94.8787L20.7071 96.2929ZM19 81V95.5858H21V81H19ZM18 82H20V80H18V82ZM19 95.5858L19 81L17 81L17 95.5858L19 95.5858ZM12.636 91.636L17.2929 96.2929L18.7071 94.8787L14.0503 90.2218L12.636 91.636ZM12.636 91.636L12.636 91.636L14.0503 90.2218C13.2692 89.4408 12.0029 89.4408 11.2218 90.2218L12.636 91.636ZM12.636 91.636L12.636 91.636L11.2218 90.2218C10.4408 91.0029 10.4408 92.2692 11.2218 93.0503L12.636 91.636ZM19 98L12.636 91.636L11.2218 93.0503L17.5858 99.4142L19 98ZM19 98L19 98L17.5858 99.4142C18.3668 100.195 19.6332 100.195 20.4142 99.4142L19 98Z" fill="white" mask="url(#path-3-outside-2)"/>
<mask id="path-5-outside-3" maskUnits="userSpaceOnUse" x="13.7471" y="110.027" width="11" height="15" fill="black">
<rect fill="white" x="13.7471" y="110.027" width="11" height="15"/>
<path d="M23.3779 124H14.9932V122.831L19.1855 118.173C19.5605 117.757 19.874 117.388 20.126 117.065C20.3779 116.743 20.5801 116.447 20.7324 116.178C20.8848 115.902 20.9932 115.645 21.0576 115.404C21.1221 115.158 21.1543 114.906 21.1543 114.648C21.1543 114.332 21.1016 114.036 20.9961 113.761C20.8965 113.479 20.7471 113.236 20.5479 113.031C20.3545 112.826 20.1172 112.665 19.8359 112.548C19.5605 112.425 19.2471 112.363 18.8955 112.363C18.4678 112.363 18.0957 112.425 17.7793 112.548C17.4688 112.671 17.208 112.847 16.9971 113.075C16.792 113.298 16.6367 113.57 16.5312 113.893C16.4316 114.215 16.3818 114.575 16.3818 114.974H14.7471C14.7471 114.435 14.8408 113.928 15.0283 113.453C15.2158 112.973 15.4854 112.554 15.8369 112.196C16.1943 111.839 16.6279 111.555 17.1377 111.344C17.6533 111.133 18.2393 111.027 18.8955 111.027C19.499 111.027 20.041 111.118 20.5215 111.3C21.0078 111.476 21.418 111.722 21.752 112.038C22.0859 112.354 22.3408 112.729 22.5166 113.163C22.6982 113.597 22.7891 114.068 22.7891 114.578C22.7891 114.959 22.7246 115.337 22.5957 115.712C22.4668 116.081 22.291 116.447 22.0684 116.811C21.8516 117.174 21.5967 117.534 21.3037 117.892C21.0166 118.243 20.7119 118.595 20.3896 118.946L16.9531 122.673H23.3779V124Z"/>
</mask>
<path d="M23.3779 124H14.9932V122.831L19.1855 118.173C19.5605 117.757 19.874 117.388 20.126 117.065C20.3779 116.743 20.5801 116.447 20.7324 116.178C20.8848 115.902 20.9932 115.645 21.0576 115.404C21.1221 115.158 21.1543 114.906 21.1543 114.648C21.1543 114.332 21.1016 114.036 20.9961 113.761C20.8965 113.479 20.7471 113.236 20.5479 113.031C20.3545 112.826 20.1172 112.665 19.8359 112.548C19.5605 112.425 19.2471 112.363 18.8955 112.363C18.4678 112.363 18.0957 112.425 17.7793 112.548C17.4688 112.671 17.208 112.847 16.9971 113.075C16.792 113.298 16.6367 113.57 16.5312 113.893C16.4316 114.215 16.3818 114.575 16.3818 114.974H14.7471C14.7471 114.435 14.8408 113.928 15.0283 113.453C15.2158 112.973 15.4854 112.554 15.8369 112.196C16.1943 111.839 16.6279 111.555 17.1377 111.344C17.6533 111.133 18.2393 111.027 18.8955 111.027C19.499 111.027 20.041 111.118 20.5215 111.3C21.0078 111.476 21.418 111.722 21.752 112.038C22.0859 112.354 22.3408 112.729 22.5166 113.163C22.6982 113.597 22.7891 114.068 22.7891 114.578C22.7891 114.959 22.7246 115.337 22.5957 115.712C22.4668 116.081 22.291 116.447 22.0684 116.811C21.8516 117.174 21.5967 117.534 21.3037 117.892C21.0166 118.243 20.7119 118.595 20.3896 118.946L16.9531 122.673H23.3779V124Z" fill="#001AFF"/>
<path d="M23.3779 124V125H24.3779V124H23.3779ZM14.9932 124H13.9932V125H14.9932V124ZM14.9932 122.831L14.2499 122.162L13.9932 122.447V122.831H14.9932ZM19.1855 118.173L18.4428 117.503L18.4423 117.504L19.1855 118.173ZM20.7324 116.178L21.603 116.67L21.6075 116.662L20.7324 116.178ZM21.0576 115.404L22.0235 115.663L22.025 115.658L21.0576 115.404ZM20.9961 113.761L20.0535 114.095L20.0577 114.107L20.0622 114.118L20.9961 113.761ZM20.5479 113.031L19.8203 113.717L19.8254 113.723L19.8306 113.728L20.5479 113.031ZM19.8359 112.548L19.428 113.461L19.4396 113.466L19.4513 113.471L19.8359 112.548ZM17.7793 112.548L17.4168 111.616L17.4109 111.618L17.7793 112.548ZM16.9971 113.075L16.2623 112.397L16.2615 112.398L16.9971 113.075ZM16.5312 113.893L15.5809 113.582L15.5783 113.589L15.5758 113.597L16.5312 113.893ZM16.3818 114.974V115.974H17.3818V114.974H16.3818ZM14.7471 114.974H13.7471V115.974H14.7471V114.974ZM15.0283 113.453L15.9584 113.821L15.9599 113.817L15.0283 113.453ZM15.8369 112.196L15.1298 111.489L15.124 111.495L15.8369 112.196ZM17.1377 111.344L16.7591 110.418L16.7553 110.42L17.1377 111.344ZM20.5215 111.3L20.1679 112.235L20.1747 112.238L20.1816 112.24L20.5215 111.3ZM22.5166 113.163L21.5898 113.539L21.5943 113.549L22.5166 113.163ZM22.5957 115.712L23.5398 116.042L23.5414 116.037L22.5957 115.712ZM22.0684 116.811L21.2157 116.288L21.2096 116.298L22.0684 116.811ZM21.3037 117.892L20.5303 117.258L20.5292 117.259L21.3037 117.892ZM20.3896 118.946L21.1248 119.624L21.1268 119.622L20.3896 118.946ZM16.9531 122.673L16.218 121.995L14.6707 123.673H16.9531V122.673ZM23.3779 122.673H24.3779V121.673H23.3779V122.673ZM23.3779 123H14.9932V125H23.3779V123ZM15.9932 124V122.831H13.9932V124H15.9932ZM15.7365 123.5L19.9288 118.842L18.4423 117.504L14.2499 122.162L15.7365 123.5ZM19.9283 118.842C20.3137 118.415 20.6433 118.027 20.9138 117.681L19.3382 116.45C19.1047 116.748 18.8074 117.099 18.4428 117.503L19.9283 118.842ZM20.9138 117.681C21.1873 117.332 21.4198 116.994 21.603 116.67L19.8619 115.686C19.7403 115.901 19.5686 116.155 19.3382 116.45L20.9138 117.681ZM21.6075 116.662C21.7892 116.333 21.9333 116 22.0235 115.663L20.0918 115.145C20.053 115.29 19.9803 115.471 19.8574 115.694L21.6075 116.662ZM22.025 115.658C22.1114 115.328 22.1543 114.991 22.1543 114.648H20.1543C20.1543 114.822 20.1327 114.989 20.0902 115.151L22.025 115.658ZM22.1543 114.648C22.1543 114.219 22.0822 113.801 21.93 113.403L20.0622 114.118C20.1209 114.272 20.1543 114.445 20.1543 114.648H22.1543ZM21.9387 113.427C21.7932 113.016 21.5691 112.647 21.2651 112.334L19.8306 113.728C19.925 113.825 19.9998 113.943 20.0535 114.095L21.9387 113.427ZM21.2754 112.345C20.9781 112.03 20.6209 111.792 20.2206 111.625L19.4513 113.471C19.6135 113.539 19.7309 113.622 19.8203 113.717L21.2754 112.345ZM20.2439 111.635C19.8206 111.446 19.3646 111.363 18.8955 111.363V113.363C19.1296 113.363 19.3005 113.404 19.428 113.461L20.2439 111.635ZM18.8955 111.363C18.3747 111.363 17.8745 111.438 17.4169 111.616L18.1417 113.48C18.3169 113.412 18.5608 113.363 18.8955 113.363V111.363ZM17.4109 111.618C16.9715 111.792 16.5824 112.05 16.2623 112.397L17.7319 113.753C17.8336 113.643 17.966 113.549 18.1477 113.478L17.4109 111.618ZM16.2615 112.398C15.9484 112.738 15.7255 113.14 15.5809 113.582L17.4816 114.204C17.5479 114.001 17.6356 113.858 17.7326 113.753L16.2615 112.398ZM15.5758 113.597C15.4419 114.031 15.3818 114.493 15.3818 114.974H17.3818C17.3818 114.658 17.4214 114.399 17.4867 114.188L15.5758 113.597ZM16.3818 113.974H14.7471V115.974H16.3818V113.974ZM15.7471 114.974C15.7471 114.553 15.8197 114.172 15.9584 113.821L14.0983 113.086C13.862 113.684 13.7471 114.316 13.7471 114.974H15.7471ZM15.9599 113.817C16.0996 113.459 16.296 113.156 16.5498 112.898L15.124 111.495C14.6747 111.952 14.332 112.487 14.0967 113.09L15.9599 113.817ZM16.544 112.903C16.8003 112.647 17.1206 112.433 17.52 112.268L16.7553 110.42C16.1353 110.676 15.5884 111.031 15.1298 111.489L16.544 112.903ZM17.5163 112.269C17.8924 112.115 18.3464 112.027 18.8955 112.027V110.027C18.1321 110.027 17.4142 110.15 16.7591 110.418L17.5163 112.269ZM18.8955 112.027C19.3989 112.027 19.8183 112.103 20.1679 112.235L20.8751 110.364C20.2638 110.133 19.5991 110.027 18.8955 110.027V112.027ZM20.1816 112.24C20.5545 112.375 20.8419 112.553 21.0642 112.764L22.4397 111.312C21.9941 110.89 21.4611 110.576 20.8614 110.359L20.1816 112.24ZM21.0642 112.764C21.2926 112.98 21.4669 113.235 21.5899 113.539L23.4433 112.787C23.2148 112.224 22.8793 111.729 22.4397 111.312L21.0642 112.764ZM21.5943 113.549C21.7205 113.851 21.7891 114.19 21.7891 114.578H23.7891C23.7891 113.947 23.676 113.343 23.4389 112.777L21.5943 113.549ZM21.7891 114.578C21.7891 114.844 21.7445 115.112 21.65 115.387L23.5414 116.037C23.7048 115.562 23.7891 115.074 23.7891 114.578H21.7891ZM21.6516 115.382C21.5482 115.678 21.4044 115.98 21.2158 116.288L22.921 117.333C23.1776 116.914 23.3854 116.484 23.5398 116.042L21.6516 115.382ZM21.2096 116.298C21.0204 116.615 20.7947 116.935 20.5303 117.258L22.0771 118.526C22.3986 118.133 22.6827 117.733 22.9271 117.323L21.2096 116.298ZM20.5292 117.259C20.2547 117.595 19.9625 117.932 19.6525 118.271L21.1268 119.622C21.4613 119.257 21.7785 118.891 22.0782 118.524L20.5292 117.259ZM19.6545 118.268L16.218 121.995L17.6883 123.351L21.1248 119.624L19.6545 118.268ZM16.9531 123.673H23.3779V121.673H16.9531V123.673ZM22.3779 122.673V124H24.3779V122.673H22.3779Z" fill="white" mask="url(#path-5-outside-3)"/>
</svg>
