<svg width="81" height="128" viewBox="0 0 81 128" fill="none" xmlns="http://www.w3.org/2000/svg">
<mask id="path-1-outside-1" maskUnits="userSpaceOnUse" x="6.52734" y="6.05469" width="66" height="29" fill="black">
<rect fill="white" x="6.52734" y="6.05469" width="66" height="29"/>
<path fill-rule="evenodd" clip-rule="evenodd" d="M70.5117 26.6191C70.9453 25.2363 71.1621 23.7246 71.1621 22.084V18.3574C71.1621 16.7168 70.9453 15.2051 70.5117 13.8223C70.0781 12.4395 69.4512 11.25 68.6309 10.2539C67.8105 9.24609 66.8086 8.46094 65.625 7.89844C64.4531 7.33594 63.123 7.05469 61.6348 7.05469C60.1582 7.05469 58.8457 7.33594 57.6973 7.89844C56.5605 8.46094 55.5996 9.24609 54.8145 10.2539C54.0293 11.25 53.4316 12.4395 53.0215 13.8223C52.6113 15.2051 52.4062 16.7168 52.4062 18.3574V22.084C52.4062 23.7246 52.6113 25.2363 53.0215 26.6191C53.4316 27.9902 54.0293 29.1797 54.8145 30.1875C55.5996 31.1836 56.5664 31.9629 57.7148 32.5254C58.8633 33.0762 60.1758 33.3516 61.6523 33.3516C63.1289 33.3516 64.4531 33.0762 65.625 32.5254C66.8086 31.9629 67.8105 31.1836 68.6309 30.1875C69.4512 29.1914 70.0781 28.002 70.5117 26.6191ZM65.8887 15.4395C66.0645 16.3184 66.1523 17.2793 66.1523 18.3223V22.084C66.1523 23.127 66.0645 24.0879 65.8887 24.9668C65.7129 25.8457 65.4434 26.6074 65.0801 27.252C64.7285 27.8848 64.2656 28.3828 63.6914 28.7461C63.1289 29.1094 62.4492 29.291 61.6523 29.291C60.8438 29.291 60.1699 29.1094 59.6309 28.7461C59.0918 28.3828 58.6582 27.8789 58.3301 27.2344C58.002 26.5898 57.7676 25.8281 57.627 24.9492C57.4863 24.0703 57.416 23.1152 57.416 22.084V18.3223C57.416 17.2793 57.4863 16.3184 57.627 15.4395C57.7676 14.5605 58.002 13.8047 58.3301 13.1719C58.6582 12.5391 59.0918 12.0469 59.6309 11.6953C60.1699 11.332 60.8379 11.1504 61.6348 11.1504C62.4434 11.1504 63.1289 11.332 63.6914 11.6953C64.2656 12.0469 64.7344 12.5391 65.0977 13.1719C65.4609 13.8047 65.7246 14.5605 65.8887 15.4395ZM23.5215 7.40625L18.9688 16.582L14.4863 7.40625H8.7207L15.9102 20.0977L8.52734 33H14.3633L19.0391 23.6836L23.7324 33H29.498L22.1152 20.0977L29.3223 7.40625H23.5215Z"/>
</mask>
<path fill-rule="evenodd" clip-rule="evenodd" d="M70.5117 26.6191C70.9453 25.2363 71.1621 23.7246 71.1621 22.084V18.3574C71.1621 16.7168 70.9453 15.2051 70.5117 13.8223C70.0781 12.4395 69.4512 11.25 68.6309 10.2539C67.8105 9.24609 66.8086 8.46094 65.625 7.89844C64.4531 7.33594 63.123 7.05469 61.6348 7.05469C60.1582 7.05469 58.8457 7.33594 57.6973 7.89844C56.5605 8.46094 55.5996 9.24609 54.8145 10.2539C54.0293 11.25 53.4316 12.4395 53.0215 13.8223C52.6113 15.2051 52.4062 16.7168 52.4062 18.3574V22.084C52.4062 23.7246 52.6113 25.2363 53.0215 26.6191C53.4316 27.9902 54.0293 29.1797 54.8145 30.1875C55.5996 31.1836 56.5664 31.9629 57.7148 32.5254C58.8633 33.0762 60.1758 33.3516 61.6523 33.3516C63.1289 33.3516 64.4531 33.0762 65.625 32.5254C66.8086 31.9629 67.8105 31.1836 68.6309 30.1875C69.4512 29.1914 70.0781 28.002 70.5117 26.6191ZM65.8887 15.4395C66.0645 16.3184 66.1523 17.2793 66.1523 18.3223V22.084C66.1523 23.127 66.0645 24.0879 65.8887 24.9668C65.7129 25.8457 65.4434 26.6074 65.0801 27.252C64.7285 27.8848 64.2656 28.3828 63.6914 28.7461C63.1289 29.1094 62.4492 29.291 61.6523 29.291C60.8438 29.291 60.1699 29.1094 59.6309 28.7461C59.0918 28.3828 58.6582 27.8789 58.3301 27.2344C58.002 26.5898 57.7676 25.8281 57.627 24.9492C57.4863 24.0703 57.416 23.1152 57.416 22.084V18.3223C57.416 17.2793 57.4863 16.3184 57.627 15.4395C57.7676 14.5605 58.002 13.8047 58.3301 13.1719C58.6582 12.5391 59.0918 12.0469 59.6309 11.6953C60.1699 11.332 60.8379 11.1504 61.6348 11.1504C62.4434 11.1504 63.1289 11.332 63.6914 11.6953C64.2656 12.0469 64.7344 12.5391 65.0977 13.1719C65.4609 13.8047 65.7246 14.5605 65.8887 15.4395ZM23.5215 7.40625L18.9688 16.582L14.4863 7.40625H8.7207L15.9102 20.0977L8.52734 33H14.3633L19.0391 23.6836L23.7324 33H29.498L22.1152 20.0977L29.3223 7.40625H23.5215Z" fill="#C84646"/>
<path d="M68.6309 10.2539L67.8553 10.8852L67.8589 10.8896L68.6309 10.2539ZM65.625 7.89844L65.1923 8.79997L65.1958 8.80163L65.625 7.89844ZM57.6973 7.89844L57.2574 7.00037L57.2538 7.00217L57.6973 7.89844ZM54.8145 10.2539L55.5998 10.873L55.6033 10.8685L54.8145 10.2539ZM53.0215 26.6191L52.0628 26.9035L52.0634 26.9057L53.0215 26.6191ZM54.8145 30.1875L54.0256 30.8021L54.0291 30.8065L54.8145 30.1875ZM57.7148 32.5254L57.275 33.4235L57.2824 33.4271L57.7148 32.5254ZM65.625 32.5254L66.0504 33.4304L66.0542 33.4286L65.625 32.5254ZM65.8887 15.4395L64.9056 15.623L64.9081 15.6356L65.8887 15.4395ZM65.0801 27.252L64.2089 26.7609L64.2059 26.7663L65.0801 27.252ZM63.6914 28.7461L63.1567 27.901L63.1489 27.9061L63.6914 28.7461ZM59.6309 11.6953L60.1771 12.5329L60.1835 12.5288L60.1897 12.5246L59.6309 11.6953ZM63.6914 11.6953L63.1489 12.5354L63.159 12.5419L63.1693 12.5482L63.6914 11.6953ZM18.9688 16.582L18.0702 17.021L18.9618 18.846L19.8645 17.0265L18.9688 16.582ZM23.5215 7.40625V6.40625H22.9013L22.6257 6.96178L23.5215 7.40625ZM14.4863 7.40625L15.3848 6.96732L15.1108 6.40625H14.4863V7.40625ZM8.7207 7.40625V6.40625H7.00492L7.85061 7.89914L8.7207 7.40625ZM15.9102 20.0977L16.7781 20.5943L17.0609 20.1001L16.7802 19.6048L15.9102 20.0977ZM8.52734 33L7.65939 32.5034L6.803 34H8.52734V33ZM14.3633 33V34H14.9803L15.257 33.4486L14.3633 33ZM19.0391 23.6836L19.9321 23.2337L19.0374 21.4576L18.1453 23.235L19.0391 23.6836ZM23.7324 33L22.8393 33.4499L23.1165 34H23.7324V33ZM29.498 33V34H31.2224L30.366 32.5034L29.498 33ZM22.1152 20.0977L21.2457 19.6039L20.9642 20.0995L21.2473 20.5943L22.1152 20.0977ZM29.3223 7.40625L30.1918 7.90005L31.0401 6.40625H29.3223V7.40625ZM70.1621 22.084C70.1621 23.6363 69.957 25.0458 69.5575 26.3199L71.4659 26.9183C71.9336 25.4269 72.1621 23.8129 72.1621 22.084H70.1621ZM70.1621 18.3574V22.084H72.1621V18.3574H70.1621ZM69.5575 14.1215C69.957 15.3956 70.1621 16.8051 70.1621 18.3574H72.1621C72.1621 16.6285 71.9336 15.0145 71.4659 13.5231L69.5575 14.1215ZM67.8589 10.8896C68.5879 11.7748 69.1577 12.8464 69.5575 14.1215L71.4659 13.5231C70.9985 12.0325 70.3144 10.7252 69.4028 9.6182L67.8589 10.8896ZM65.1958 8.80163C66.2463 9.3009 67.1296 9.99362 67.8553 10.8852L69.4064 9.62263C68.4915 8.49857 67.3709 7.62097 66.0542 6.99525L65.1958 8.80163ZM61.6348 8.05469C62.995 8.05469 64.1738 8.31107 65.1923 8.79996L66.0577 6.99691C64.7325 6.3608 63.2511 6.05469 61.6348 6.05469V8.05469ZM58.1371 8.7965C59.1289 8.31072 60.2871 8.05469 61.6348 8.05469V6.05469C60.0293 6.05469 58.5625 6.36115 57.2574 7.00037L58.1371 8.7965ZM55.6033 10.8685C56.2967 9.97845 57.1399 9.28998 58.1408 8.79471L57.2538 7.00217C55.9812 7.6319 54.9025 8.51374 54.0256 9.63933L55.6033 10.8685ZM53.9802 14.1066C54.3592 12.8288 54.9032 11.7568 55.5998 10.873L54.0291 9.63486C53.1554 10.7432 52.5041 12.0501 52.0628 13.5379L53.9802 14.1066ZM53.4062 18.3574C53.4062 16.8001 53.6009 15.3855 53.9802 14.1066L52.0628 13.5379C51.6218 15.0247 51.4062 16.6335 51.4062 18.3574H53.4062ZM53.4062 22.084V18.3574H51.4062V22.084H53.4062ZM53.9802 26.3348C53.6009 25.0559 53.4062 23.6413 53.4062 22.084H51.4062C51.4062 23.8079 51.6218 25.4167 52.0628 26.9035L53.9802 26.3348ZM55.6033 29.5729C54.903 28.6741 54.3584 27.599 53.9795 26.3325L52.0634 26.9057C52.5049 28.3815 53.1556 29.6853 54.0256 30.8021L55.6033 29.5729ZM58.1547 31.6273C57.1397 31.1302 56.2914 30.4458 55.5998 29.5685L54.0291 30.8065C54.9078 31.9214 55.9931 32.7956 57.275 33.4235L58.1547 31.6273ZM61.6523 32.3516C60.3017 32.3516 59.1408 32.1002 58.1473 31.6237L57.2824 33.4271C58.5857 34.0521 60.0499 34.3516 61.6523 34.3516V32.3516ZM65.1996 31.6204C64.1783 32.1004 63.0025 32.3516 61.6523 32.3516V34.3516C63.2553 34.3516 64.7279 34.052 66.0504 33.4304L65.1996 31.6204ZM67.8589 29.5518C67.1333 30.4329 66.249 31.1216 65.1958 31.6222L66.0542 33.4286C67.3682 32.8041 68.4878 31.9343 69.4028 30.8232L67.8589 29.5518ZM69.5575 26.3199C69.1577 27.595 68.5879 28.6666 67.8589 29.5518L69.4028 30.8232C70.3144 29.7162 70.9985 28.4089 71.4659 26.9183L69.5575 26.3199ZM67.1523 18.3223C67.1523 17.2239 67.0598 16.1963 66.8693 15.2433L64.9081 15.6356C65.0691 16.4404 65.1523 17.3347 65.1523 18.3223H67.1523ZM67.1523 22.084V18.3223H65.1523V22.084H67.1523ZM66.8693 25.1629C67.0598 24.21 67.1523 23.1824 67.1523 22.084H65.1523C65.1523 23.0715 65.0691 23.9658 64.9081 24.7707L66.8693 25.1629ZM65.9512 27.743C66.3759 26.9895 66.677 26.1242 66.8693 25.1629L64.9081 24.7707C64.7488 25.5673 64.5108 26.2254 64.2089 26.7609L65.9512 27.743ZM64.226 29.5912C64.951 29.1325 65.5269 28.5069 65.9542 27.7376L64.2059 26.7663C63.9302 27.2626 63.5803 27.6331 63.1568 27.901L64.226 29.5912ZM61.6523 30.291C62.6046 30.291 63.4812 30.0723 64.2339 29.5861L63.1489 27.9061C62.7766 28.1465 62.2939 28.291 61.6523 28.291V30.291ZM59.072 29.5754C59.8125 30.0744 60.6934 30.291 61.6523 30.291V28.291C60.9941 28.291 60.5274 28.1444 60.1897 27.9168L59.072 29.5754ZM57.4389 27.6881C57.8353 28.4666 58.3767 29.1068 59.072 29.5754L60.1897 27.9168C59.8069 27.6588 59.4812 27.2912 59.2212 26.7807L57.4389 27.6881ZM56.6395 25.1072C56.793 26.0663 57.054 26.932 57.4389 27.6881L59.2212 26.7807C58.9499 26.2477 58.7422 25.59 58.6144 24.7912L56.6395 25.1072ZM56.416 22.084C56.416 23.16 56.4893 24.1686 56.6395 25.1072L58.6144 24.7912C58.4833 23.972 58.416 23.0704 58.416 22.084H56.416ZM56.416 18.3223V22.084H58.416V18.3223H56.416ZM56.6395 15.2815C56.4893 16.2206 56.416 17.2351 56.416 18.3223H58.416C58.416 17.3235 58.4834 16.4161 58.6144 15.5974L56.6395 15.2815ZM57.4423 12.7116C57.0546 13.4594 56.793 14.3222 56.6395 15.2815L58.6144 15.5974C58.7422 14.7989 58.9493 14.15 59.2178 13.6322L57.4423 12.7116ZM59.0846 10.8577C58.386 11.3133 57.8411 11.9425 57.4423 12.7116L59.2178 13.6322C59.4753 13.1356 59.7976 12.7804 60.1771 12.5329L59.0846 10.8577ZM61.6348 10.1504C60.6842 10.1504 59.8102 10.3686 59.072 10.866L60.1897 12.5246C60.5296 12.2955 60.9916 12.1504 61.6348 12.1504V10.1504ZM64.2339 10.8553C63.4789 10.3677 62.5955 10.1504 61.6348 10.1504V12.1504C62.2912 12.1504 62.7789 12.2964 63.1489 12.5354L64.2339 10.8553ZM65.9649 12.674C65.5253 11.9083 64.9426 11.2888 64.2136 10.8425L63.1693 12.5482C63.5887 12.805 63.9434 13.1698 64.2304 13.6697L65.9649 12.674ZM66.8717 15.256C66.6915 14.2905 66.3952 13.4235 65.9649 12.674L64.2304 13.6697C64.5267 14.1859 64.7577 14.8306 64.9057 15.623L66.8717 15.256ZM19.8645 17.0265L24.4173 7.85072L22.6257 6.96178L18.073 16.1376L19.8645 17.0265ZM13.5878 7.84518L18.0702 17.021L19.8673 16.1431L15.3848 6.96732L13.5878 7.84518ZM8.7207 8.40625H14.4863V6.40625H8.7207V8.40625ZM16.7802 19.6048L9.59079 6.91336L7.85061 7.89914L15.0401 20.5905L16.7802 19.6048ZM9.3953 33.4966L16.7781 20.5943L15.0422 19.601L7.65939 32.5034L9.3953 33.4966ZM14.3633 32H8.52734V34H14.3633V32ZM18.1453 23.235L13.4695 32.5514L15.257 33.4486L19.9328 24.1322L18.1453 23.235ZM24.6255 32.5501L19.9321 23.2337L18.146 24.1335L22.8393 33.4499L24.6255 32.5501ZM29.498 32H23.7324V34H29.498V32ZM21.2473 20.5943L28.6301 33.4966L30.366 32.5034L22.9832 19.601L21.2473 20.5943ZM28.4527 6.91245L21.2457 19.6039L22.9848 20.5915L30.1918 7.90005L28.4527 6.91245ZM23.5215 8.40625H29.3223V6.40625H23.5215V8.40625Z" fill="white" mask="url(#path-1-outside-1)"/>
<mask id="path-3-outside-2" maskUnits="userSpaceOnUse" x="9.60156" y="41" width="62" height="59" fill="black">
<rect fill="white" x="9.60156" y="41" width="62" height="59"/>
<path fill-rule="evenodd" clip-rule="evenodd" d="M10.6016 45.8145H26.6328V42H10.6016V45.8145ZM69.6328 45.8145H53.6016V42H69.6328V45.8145ZM63.8027 68H62.1768V57.2773L58.8281 58.5518V57.0664L63.6709 55.2031H63.8027V68ZM14.9932 68V66.8311L19.1855 62.1729C19.5605 61.7568 19.874 61.3877 20.126 61.0654C20.3779 60.7432 20.5801 60.4473 20.7324 60.1777C20.8848 59.9023 20.9932 59.6445 21.0576 59.4043C21.1221 59.1582 21.1543 58.9062 21.1543 58.6484C21.1543 58.332 21.1016 58.0361 20.9961 57.7607C20.8965 57.4795 20.7471 57.2363 20.5479 57.0312C20.3545 56.8262 20.1172 56.665 19.8359 56.5479C19.5605 56.4248 19.2471 56.3633 18.8955 56.3633C18.4678 56.3633 18.0957 56.4248 17.7793 56.5479C17.4688 56.6709 17.208 56.8467 16.9971 57.0752C16.792 57.2979 16.6367 57.5703 16.5312 57.8926C16.4316 58.2148 16.3818 58.5752 16.3818 58.9736H14.7471C14.7471 58.4346 14.8408 57.9277 15.0283 57.4531C15.2158 56.9727 15.4854 56.5537 15.8369 56.1963C16.1943 55.8389 16.6279 55.5547 17.1377 55.3438C17.6533 55.1328 18.2393 55.0273 18.8955 55.0273C19.499 55.0273 20.041 55.1182 20.5215 55.2998C21.0078 55.4756 21.418 55.7217 21.752 56.0381C22.0859 56.3545 22.3408 56.7295 22.5166 57.1631C22.6982 57.5967 22.7891 58.0684 22.7891 58.5781C22.7891 58.959 22.7246 59.3369 22.5957 59.7119C22.4668 60.0811 22.291 60.4473 22.0684 60.8105C21.8516 61.1738 21.5967 61.5342 21.3037 61.8916C21.0166 62.2432 20.7119 62.5947 20.3896 62.9463L16.9531 66.6729H23.3779V68H14.9932ZM19.7071 98.7071L26.0711 92.3431C26.4616 91.9526 26.4616 91.3195 26.0711 90.9289C25.6805 90.5384 25.0474 90.5384 24.6569 90.9289L20 95.5858V81H18L18 95.5858L13.3431 90.9289C12.9526 90.5384 12.3195 90.5384 11.9289 90.9289C11.5384 91.3195 11.5384 91.9526 11.9289 92.3431L18.2929 98.7071C18.6834 99.0976 19.3166 99.0976 19.7071 98.7071Z"/>
</mask>
<path fill-rule="evenodd" clip-rule="evenodd" d="M10.6016 45.8145H26.6328V42H10.6016V45.8145ZM69.6328 45.8145H53.6016V42H69.6328V45.8145ZM63.8027 68H62.1768V57.2773L58.8281 58.5518V57.0664L63.6709 55.2031H63.8027V68ZM14.9932 68V66.8311L19.1855 62.1729C19.5605 61.7568 19.874 61.3877 20.126 61.0654C20.3779 60.7432 20.5801 60.4473 20.7324 60.1777C20.8848 59.9023 20.9932 59.6445 21.0576 59.4043C21.1221 59.1582 21.1543 58.9062 21.1543 58.6484C21.1543 58.332 21.1016 58.0361 20.9961 57.7607C20.8965 57.4795 20.7471 57.2363 20.5479 57.0312C20.3545 56.8262 20.1172 56.665 19.8359 56.5479C19.5605 56.4248 19.2471 56.3633 18.8955 56.3633C18.4678 56.3633 18.0957 56.4248 17.7793 56.5479C17.4688 56.6709 17.208 56.8467 16.9971 57.0752C16.792 57.2979 16.6367 57.5703 16.5312 57.8926C16.4316 58.2148 16.3818 58.5752 16.3818 58.9736H14.7471C14.7471 58.4346 14.8408 57.9277 15.0283 57.4531C15.2158 56.9727 15.4854 56.5537 15.8369 56.1963C16.1943 55.8389 16.6279 55.5547 17.1377 55.3438C17.6533 55.1328 18.2393 55.0273 18.8955 55.0273C19.499 55.0273 20.041 55.1182 20.5215 55.2998C21.0078 55.4756 21.418 55.7217 21.752 56.0381C22.0859 56.3545 22.3408 56.7295 22.5166 57.1631C22.6982 57.5967 22.7891 58.0684 22.7891 58.5781C22.7891 58.959 22.7246 59.3369 22.5957 59.7119C22.4668 60.0811 22.291 60.4473 22.0684 60.8105C21.8516 61.1738 21.5967 61.5342 21.3037 61.8916C21.0166 62.2432 20.7119 62.5947 20.3896 62.9463L16.9531 66.6729H23.3779V68H14.9932ZM19.7071 98.7071L26.0711 92.3431C26.4616 91.9526 26.4616 91.3195 26.0711 90.9289C25.6805 90.5384 25.0474 90.5384 24.6569 90.9289L20 95.5858V81H18L18 95.5858L13.3431 90.9289C12.9526 90.5384 12.3195 90.5384 11.9289 90.9289C11.5384 91.3195 11.5384 91.9526 11.9289 92.3431L18.2929 98.7071C18.6834 99.0976 19.3166 99.0976 19.7071 98.7071Z" fill="black"/>
<path d="M26.6328 45.8145V46.8145H27.6328V45.8145H26.6328ZM10.6016 45.8145H9.60156V46.8145H10.6016V45.8145ZM26.6328 42H27.6328V41H26.6328V42ZM10.6016 42V41H9.60156V42H10.6016ZM53.6016 45.8145H52.6016V46.8145H53.6016V45.8145ZM69.6328 45.8145V46.8145H70.6328V45.8145H69.6328ZM53.6016 42V41H52.6016V42H53.6016ZM69.6328 42H70.6328V41H69.6328V42ZM62.1768 68H61.1768V69H62.1768V68ZM63.8027 68V69H64.8027V68H63.8027ZM62.1768 57.2773H63.1768V55.8268L61.8211 56.3427L62.1768 57.2773ZM58.8281 58.5518H57.8281V60.0023L59.1838 59.4864L58.8281 58.5518ZM58.8281 57.0664L58.469 56.1331L57.8281 56.3797V57.0664H58.8281ZM63.6709 55.2031V54.2031H63.4852L63.3118 54.2698L63.6709 55.2031ZM63.8027 55.2031H64.8027V54.2031H63.8027V55.2031ZM14.9932 66.8311L14.2499 66.1621L13.9932 66.4473V66.8311H14.9932ZM14.9932 68H13.9932V69H14.9932V68ZM19.1855 62.1729L18.4428 61.5033L18.4423 61.5039L19.1855 62.1729ZM20.7324 60.1777L21.603 60.6698L21.6075 60.6618L20.7324 60.1777ZM21.0576 59.4043L22.0235 59.6634L22.025 59.6577L21.0576 59.4043ZM20.9961 57.7607L20.0535 58.0946L20.0577 58.1065L20.0622 58.1184L20.9961 57.7607ZM20.5479 57.0312L19.8203 57.7173L19.8254 57.7227L19.8306 57.728L20.5479 57.0312ZM19.8359 56.5479L19.428 57.4609L19.4396 57.466L19.4513 57.4709L19.8359 56.5479ZM17.7793 56.5479L17.4168 55.6158L17.4109 55.6182L17.7793 56.5479ZM16.9971 57.0752L16.2623 56.3969L16.2615 56.3977L16.9971 57.0752ZM16.5312 57.8926L15.5809 57.5815L15.5783 57.5894L15.5758 57.5973L16.5312 57.8926ZM16.3818 58.9736V59.9736H17.3818V58.9736H16.3818ZM14.7471 58.9736H13.7471V59.9736H14.7471V58.9736ZM15.0283 57.4531L15.9584 57.8206L15.9599 57.8167L15.0283 57.4531ZM15.8369 56.1963L15.1298 55.4892L15.124 55.4951L15.8369 56.1963ZM17.1377 55.3438L16.7591 54.4182L16.7553 54.4197L17.1377 55.3438ZM20.5215 55.2998L20.1679 56.2352L20.1747 56.2378L20.1816 56.2403L20.5215 55.2998ZM22.5166 57.1631L21.5898 57.5388L21.5943 57.5495L22.5166 57.1631ZM22.5957 59.7119L23.5398 60.0416L23.5414 60.037L22.5957 59.7119ZM22.0684 60.8105L21.2157 60.2879L21.2096 60.2981L22.0684 60.8105ZM21.3037 61.8916L20.5303 61.2577L20.5292 61.2591L21.3037 61.8916ZM20.3896 62.9463L21.1248 63.6242L21.1268 63.622L20.3896 62.9463ZM16.9531 66.6729L16.218 65.9949L14.6707 67.6729H16.9531V66.6729ZM23.3779 66.6729H24.3779V65.6729H23.3779V66.6729ZM23.3779 68V69H24.3779V68H23.3779ZM26.0711 92.3431L26.7782 93.0503L26.7782 93.0503L26.0711 92.3431ZM19.7071 98.7071L19 98L19 98L19.7071 98.7071ZM26.0711 90.9289L26.7782 90.2218L26.7782 90.2218L26.0711 90.9289ZM24.6569 90.9289L23.9497 90.2218L23.9497 90.2218L24.6569 90.9289ZM20 95.5858H19V98L20.7071 96.2929L20 95.5858ZM20 81H21V80H20V81ZM18 81V80H17L17 81L18 81ZM18 95.5858L17.2929 96.2929L19 98L19 95.5858L18 95.5858ZM13.3431 90.9289L12.636 91.636L12.636 91.636L13.3431 90.9289ZM11.9289 90.9289L12.636 91.636L12.636 91.636L11.9289 90.9289ZM11.9289 92.3431L12.636 91.636L12.636 91.636L11.9289 92.3431ZM18.2929 98.7071L17.5858 99.4142L17.5858 99.4142L18.2929 98.7071ZM26.6328 44.8145H10.6016V46.8145H26.6328V44.8145ZM25.6328 42V45.8145H27.6328V42H25.6328ZM10.6016 43H26.6328V41H10.6016V43ZM11.6016 45.8145V42H9.60156V45.8145H11.6016ZM53.6016 46.8145H69.6328V44.8145H53.6016V46.8145ZM52.6016 42V45.8145H54.6016V42H52.6016ZM69.6328 41H53.6016V43H69.6328V41ZM70.6328 45.8145V42H68.6328V45.8145H70.6328ZM62.1768 69H63.8027V67H62.1768V69ZM61.1768 57.2773V68H63.1768V57.2773H61.1768ZM59.1838 59.4864L62.5324 58.2119L61.8211 56.3427L58.4724 57.6172L59.1838 59.4864ZM57.8281 57.0664V58.5518H59.8281V57.0664H57.8281ZM63.3118 54.2698L58.469 56.1331L59.1872 57.9997L64.03 56.1364L63.3118 54.2698ZM63.8027 54.2031H63.6709V56.2031H63.8027V54.2031ZM64.8027 68V55.2031H62.8027V68H64.8027ZM13.9932 66.8311V68H15.9932V66.8311H13.9932ZM18.4423 61.5039L14.2499 66.1621L15.7365 67.5L19.9288 62.8418L18.4423 61.5039ZM19.3382 60.4495C19.1047 60.7481 18.8074 61.0988 18.4428 61.5033L19.9283 62.8424C20.3137 62.4149 20.6433 62.0273 20.9138 61.6814L19.3382 60.4495ZM19.8619 59.6857C19.7403 59.9007 19.5686 60.1548 19.3382 60.4495L20.9138 61.6814C21.1873 61.3316 21.4198 60.9938 21.603 60.6698L19.8619 59.6857ZM20.0918 59.1452C20.053 59.2895 19.9803 59.4715 19.8574 59.6937L21.6075 60.6618C21.7892 60.3332 21.9333 59.9995 22.0235 59.6634L20.0918 59.1452ZM20.1543 58.6484C20.1543 58.8219 20.1327 58.9887 20.0902 59.1509L22.025 59.6577C22.1114 59.3277 22.1543 58.9906 22.1543 58.6484H20.1543ZM20.0622 58.1184C20.1209 58.2715 20.1543 58.4453 20.1543 58.6484H22.1543C22.1543 58.2188 22.0822 57.8008 21.93 57.4031L20.0622 58.1184ZM19.8306 57.728C19.925 57.8253 19.9998 57.9431 20.0535 58.0946L21.9387 57.4269C21.7932 57.0159 21.5691 56.6474 21.2651 56.3345L19.8306 57.728ZM19.4513 57.4709C19.6135 57.5385 19.7309 57.6225 19.8203 57.7173L21.2754 56.3452C20.9781 56.0298 20.6209 55.7916 20.2206 55.6248L19.4513 57.4709ZM18.8955 57.3633C19.1296 57.3633 19.3005 57.4039 19.428 57.4609L20.2439 55.6348C19.8206 55.4457 19.3646 55.3633 18.8955 55.3633V57.3633ZM18.1417 57.4799C18.3169 57.4117 18.5608 57.3633 18.8955 57.3633V55.3633C18.3747 55.3633 17.8745 55.4379 17.4169 55.6158L18.1417 57.4799ZM17.7319 57.7535C17.8336 57.6432 17.966 57.5495 18.1477 57.4775L17.4109 55.6182C16.9715 55.7923 16.5824 56.0501 16.2623 56.3969L17.7319 57.7535ZM17.4816 58.2036C17.5479 58.001 17.6356 57.858 17.7326 57.7527L16.2615 56.3977C15.9484 56.7377 15.7255 57.1396 15.5809 57.5815L17.4816 58.2036ZM17.3818 58.9736C17.3818 58.6577 17.4214 58.399 17.4867 58.1879L15.5758 57.5973C15.4419 58.0307 15.3818 58.4927 15.3818 58.9736H17.3818ZM14.7471 59.9736H16.3818V57.9736H14.7471V59.9736ZM14.0983 57.0857C13.862 57.6838 13.7471 58.316 13.7471 58.9736H15.7471C15.7471 58.5532 15.8197 58.1717 15.9584 57.8206L14.0983 57.0857ZM15.124 55.4951C14.6747 55.9519 14.332 56.4866 14.0967 57.0896L15.9599 57.8167C16.0996 57.4587 16.296 57.1556 16.5498 56.8975L15.124 55.4951ZM16.7553 54.4197C16.1353 54.6763 15.5884 55.0306 15.1298 55.4892L16.544 56.9034C16.8003 56.6471 17.1206 56.4331 17.52 56.2678L16.7553 54.4197ZM18.8955 54.0273C18.1321 54.0273 17.4142 54.1502 16.7591 54.4182L17.5163 56.2693C17.8924 56.1155 18.3464 56.0273 18.8955 56.0273V54.0273ZM20.8751 54.3644C20.2638 54.1333 19.5991 54.0273 18.8955 54.0273V56.0273C19.3989 56.0273 19.8183 56.103 20.1679 56.2352L20.8751 54.3644ZM22.4397 55.3121C21.9941 54.89 21.4611 54.5761 20.8614 54.3594L20.1816 56.2403C20.5545 56.3751 20.8419 56.5534 21.0642 56.764L22.4397 55.3121ZM23.4433 56.7874C23.2148 56.2236 22.8793 55.7286 22.4397 55.3121L21.0642 56.764C21.2926 56.9804 21.4669 57.2354 21.5899 57.5388L23.4433 56.7874ZM23.7891 58.5781C23.7891 57.947 23.676 57.3427 23.4389 56.7767L21.5943 57.5495C21.7205 57.8507 21.7891 58.1897 21.7891 58.5781H23.7891ZM23.5414 60.037C23.7048 59.5617 23.7891 59.0741 23.7891 58.5781H21.7891C21.7891 58.8439 21.7445 59.1121 21.65 59.3868L23.5414 60.037ZM22.921 61.3331C23.1776 60.9144 23.3854 60.4838 23.5398 60.0416L21.6516 59.3822C21.5482 59.6783 21.4044 59.9802 21.2158 60.288L22.921 61.3331ZM22.0771 62.5255C22.3986 62.1333 22.6827 61.7325 22.9271 61.323L21.2096 60.2981C21.0204 60.6151 20.7947 60.9351 20.5303 61.2577L22.0771 62.5255ZM21.1268 63.622C21.4613 63.2571 21.7785 62.8912 22.0782 62.5241L20.5292 61.2591C20.2547 61.5952 19.9625 61.9323 19.6525 62.2706L21.1268 63.622ZM17.6883 67.3508L21.1248 63.6242L19.6545 62.2684L16.218 65.9949L17.6883 67.3508ZM23.3779 65.6729H16.9531V67.6729H23.3779V65.6729ZM24.3779 68V66.6729H22.3779V68H24.3779ZM14.9932 69H23.3779V67H14.9932V69ZM25.364 91.636L19 98L20.4142 99.4142L26.7782 93.0503L25.364 91.636ZM25.364 91.636V91.636L26.7782 93.0503C27.5592 92.2692 27.5592 91.0029 26.7782 90.2218L25.364 91.636ZM25.364 91.636H25.364L26.7782 90.2218C25.9971 89.4408 24.7308 89.4408 23.9497 90.2218L25.364 91.636ZM20.7071 96.2929L25.364 91.636L23.9497 90.2218L19.2929 94.8787L20.7071 96.2929ZM19 81V95.5858H21V81H19ZM18 82H20V80H18V82ZM19 95.5858L19 81L17 81L17 95.5858L19 95.5858ZM12.636 91.636L17.2929 96.2929L18.7071 94.8787L14.0503 90.2218L12.636 91.636ZM12.636 91.636L12.636 91.636L14.0503 90.2218C13.2692 89.4408 12.0029 89.4408 11.2218 90.2218L12.636 91.636ZM12.636 91.636L12.636 91.636L11.2218 90.2218C10.4408 91.0029 10.4408 92.2692 11.2218 93.0503L12.636 91.636ZM19 98L12.636 91.636L11.2218 93.0503L17.5858 99.4142L19 98ZM19 98L19 98L17.5858 99.4142C18.3668 100.195 19.6332 100.195 20.4142 99.4142L19 98Z" fill="white" mask="url(#path-3-outside-2)"/>
<mask id="path-5-outside-3" maskUnits="userSpaceOnUse" x="13.7471" y="110.027" width="11" height="15" fill="black">
<rect fill="white" x="13.7471" y="110.027" width="11" height="15"/>
<path d="M23.3779 124H14.9932V122.831L19.1855 118.173C19.5605 117.757 19.874 117.388 20.126 117.065C20.3779 116.743 20.5801 116.447 20.7324 116.178C20.8848 115.902 20.9932 115.645 21.0576 115.404C21.1221 115.158 21.1543 114.906 21.1543 114.648C21.1543 114.332 21.1016 114.036 20.9961 113.761C20.8965 113.479 20.7471 113.236 20.5479 113.031C20.3545 112.826 20.1172 112.665 19.8359 112.548C19.5605 112.425 19.2471 112.363 18.8955 112.363C18.4678 112.363 18.0957 112.425 17.7793 112.548C17.4688 112.671 17.208 112.847 16.9971 113.075C16.792 113.298 16.6367 113.57 16.5312 113.893C16.4316 114.215 16.3818 114.575 16.3818 114.974H14.7471C14.7471 114.435 14.8408 113.928 15.0283 113.453C15.2158 112.973 15.4854 112.554 15.8369 112.196C16.1943 111.839 16.6279 111.555 17.1377 111.344C17.6533 111.133 18.2393 111.027 18.8955 111.027C19.499 111.027 20.041 111.118 20.5215 111.3C21.0078 111.476 21.418 111.722 21.752 112.038C22.0859 112.354 22.3408 112.729 22.5166 113.163C22.6982 113.597 22.7891 114.068 22.7891 114.578C22.7891 114.959 22.7246 115.337 22.5957 115.712C22.4668 116.081 22.291 116.447 22.0684 116.811C21.8516 117.174 21.5967 117.534 21.3037 117.892C21.0166 118.243 20.7119 118.595 20.3896 118.946L16.9531 122.673H23.3779V124Z"/>
</mask>
<path d="M23.3779 124H14.9932V122.831L19.1855 118.173C19.5605 117.757 19.874 117.388 20.126 117.065C20.3779 116.743 20.5801 116.447 20.7324 116.178C20.8848 115.902 20.9932 115.645 21.0576 115.404C21.1221 115.158 21.1543 114.906 21.1543 114.648C21.1543 114.332 21.1016 114.036 20.9961 113.761C20.8965 113.479 20.7471 113.236 20.5479 113.031C20.3545 112.826 20.1172 112.665 19.8359 112.548C19.5605 112.425 19.2471 112.363 18.8955 112.363C18.4678 112.363 18.0957 112.425 17.7793 112.548C17.4688 112.671 17.208 112.847 16.9971 113.075C16.792 113.298 16.6367 113.57 16.5312 113.893C16.4316 114.215 16.3818 114.575 16.3818 114.974H14.7471C14.7471 114.435 14.8408 113.928 15.0283 113.453C15.2158 112.973 15.4854 112.554 15.8369 112.196C16.1943 111.839 16.6279 111.555 17.1377 111.344C17.6533 111.133 18.2393 111.027 18.8955 111.027C19.499 111.027 20.041 111.118 20.5215 111.3C21.0078 111.476 21.418 111.722 21.752 112.038C22.0859 112.354 22.3408 112.729 22.5166 113.163C22.6982 113.597 22.7891 114.068 22.7891 114.578C22.7891 114.959 22.7246 115.337 22.5957 115.712C22.4668 116.081 22.291 116.447 22.0684 116.811C21.8516 117.174 21.5967 117.534 21.3037 117.892C21.0166 118.243 20.7119 118.595 20.3896 118.946L16.9531 122.673H23.3779V124Z" fill="#001AFF"/>
<path d="M23.3779 124V125H24.3779V124H23.3779ZM14.9932 124H13.9932V125H14.9932V124ZM14.9932 122.831L14.2499 122.162L13.9932 122.447V122.831H14.9932ZM19.1855 118.173L18.4428 117.503L18.4423 117.504L19.1855 118.173ZM20.7324 116.178L21.603 116.67L21.6075 116.662L20.7324 116.178ZM21.0576 115.404L22.0235 115.663L22.025 115.658L21.0576 115.404ZM20.9961 113.761L20.0535 114.095L20.0577 114.107L20.0622 114.118L20.9961 113.761ZM20.5479 113.031L19.8203 113.717L19.8254 113.723L19.8306 113.728L20.5479 113.031ZM19.8359 112.548L19.428 113.461L19.4396 113.466L19.4513 113.471L19.8359 112.548ZM17.7793 112.548L17.4168 111.616L17.4109 111.618L17.7793 112.548ZM16.9971 113.075L16.2623 112.397L16.2615 112.398L16.9971 113.075ZM16.5312 113.893L15.5809 113.582L15.5783 113.589L15.5758 113.597L16.5312 113.893ZM16.3818 114.974V115.974H17.3818V114.974H16.3818ZM14.7471 114.974H13.7471V115.974H14.7471V114.974ZM15.0283 113.453L15.9584 113.821L15.9599 113.817L15.0283 113.453ZM15.8369 112.196L15.1298 111.489L15.124 111.495L15.8369 112.196ZM17.1377 111.344L16.7591 110.418L16.7553 110.42L17.1377 111.344ZM20.5215 111.3L20.1679 112.235L20.1747 112.238L20.1816 112.24L20.5215 111.3ZM22.5166 113.163L21.5898 113.539L21.5943 113.549L22.5166 113.163ZM22.5957 115.712L23.5398 116.042L23.5414 116.037L22.5957 115.712ZM22.0684 116.811L21.2157 116.288L21.2096 116.298L22.0684 116.811ZM21.3037 117.892L20.5303 117.258L20.5292 117.259L21.3037 117.892ZM20.3896 118.946L21.1248 119.624L21.1268 119.622L20.3896 118.946ZM16.9531 122.673L16.218 121.995L14.6707 123.673H16.9531V122.673ZM23.3779 122.673H24.3779V121.673H23.3779V122.673ZM23.3779 123H14.9932V125H23.3779V123ZM15.9932 124V122.831H13.9932V124H15.9932ZM15.7365 123.5L19.9288 118.842L18.4423 117.504L14.2499 122.162L15.7365 123.5ZM19.9283 118.842C20.3137 118.415 20.6433 118.027 20.9138 117.681L19.3382 116.45C19.1047 116.748 18.8074 117.099 18.4428 117.503L19.9283 118.842ZM20.9138 117.681C21.1873 117.332 21.4198 116.994 21.603 116.67L19.8619 115.686C19.7403 115.901 19.5686 116.155 19.3382 116.45L20.9138 117.681ZM21.6075 116.662C21.7892 116.333 21.9333 116 22.0235 115.663L20.0918 115.145C20.053 115.29 19.9803 115.471 19.8574 115.694L21.6075 116.662ZM22.025 115.658C22.1114 115.328 22.1543 114.991 22.1543 114.648H20.1543C20.1543 114.822 20.1327 114.989 20.0902 115.151L22.025 115.658ZM22.1543 114.648C22.1543 114.219 22.0822 113.801 21.93 113.403L20.0622 114.118C20.1209 114.272 20.1543 114.445 20.1543 114.648H22.1543ZM21.9387 113.427C21.7932 113.016 21.5691 112.647 21.2651 112.334L19.8306 113.728C19.925 113.825 19.9998 113.943 20.0535 114.095L21.9387 113.427ZM21.2754 112.345C20.9781 112.03 20.6209 111.792 20.2206 111.625L19.4513 113.471C19.6135 113.539 19.7309 113.622 19.8203 113.717L21.2754 112.345ZM20.2439 111.635C19.8206 111.446 19.3646 111.363 18.8955 111.363V113.363C19.1296 113.363 19.3005 113.404 19.428 113.461L20.2439 111.635ZM18.8955 111.363C18.3747 111.363 17.8745 111.438 17.4169 111.616L18.1417 113.48C18.3169 113.412 18.5608 113.363 18.8955 113.363V111.363ZM17.4109 111.618C16.9715 111.792 16.5824 112.05 16.2623 112.397L17.7319 113.753C17.8336 113.643 17.966 113.549 18.1477 113.478L17.4109 111.618ZM16.2615 112.398C15.9484 112.738 15.7255 113.14 15.5809 113.582L17.4816 114.204C17.5479 114.001 17.6356 113.858 17.7326 113.753L16.2615 112.398ZM15.5758 113.597C15.4419 114.031 15.3818 114.493 15.3818 114.974H17.3818C17.3818 114.658 17.4214 114.399 17.4867 114.188L15.5758 113.597ZM16.3818 113.974H14.7471V115.974H16.3818V113.974ZM15.7471 114.974C15.7471 114.553 15.8197 114.172 15.9584 113.821L14.0983 113.086C13.862 113.684 13.7471 114.316 13.7471 114.974H15.7471ZM15.9599 113.817C16.0996 113.459 16.296 113.156 16.5498 112.898L15.124 111.495C14.6747 111.952 14.332 112.487 14.0967 113.09L15.9599 113.817ZM16.544 112.903C16.8003 112.647 17.1206 112.433 17.52 112.268L16.7553 110.42C16.1353 110.676 15.5884 111.031 15.1298 111.489L16.544 112.903ZM17.5163 112.269C17.8924 112.115 18.3464 112.027 18.8955 112.027V110.027C18.1321 110.027 17.4142 110.15 16.7591 110.418L17.5163 112.269ZM18.8955 112.027C19.3989 112.027 19.8183 112.103 20.1679 112.235L20.8751 110.364C20.2638 110.133 19.5991 110.027 18.8955 110.027V112.027ZM20.1816 112.24C20.5545 112.375 20.8419 112.553 21.0642 112.764L22.4397 111.312C21.9941 110.89 21.4611 110.576 20.8614 110.359L20.1816 112.24ZM21.0642 112.764C21.2926 112.98 21.4669 113.235 21.5899 113.539L23.4433 112.787C23.2148 112.224 22.8793 111.729 22.4397 111.312L21.0642 112.764ZM21.5943 113.549C21.7205 113.851 21.7891 114.19 21.7891 114.578H23.7891C23.7891 113.947 23.676 113.343 23.4389 112.777L21.5943 113.549ZM21.7891 114.578C21.7891 114.844 21.7445 115.112 21.65 115.387L23.5414 116.037C23.7048 115.562 23.7891 115.074 23.7891 114.578H21.7891ZM21.6516 115.382C21.5482 115.678 21.4044 115.98 21.2158 116.288L22.921 117.333C23.1776 116.914 23.3854 116.484 23.5398 116.042L21.6516 115.382ZM21.2096 116.298C21.0204 116.615 20.7947 116.935 20.5303 117.258L22.0771 118.526C22.3986 118.133 22.6827 117.733 22.9271 117.323L21.2096 116.298ZM20.5292 117.259C20.2547 117.595 19.9625 117.932 19.6525 118.271L21.1268 119.622C21.4613 119.257 21.7785 118.891 22.0782 118.524L20.5292 117.259ZM19.6545 118.268L16.218 121.995L17.6883 123.351L21.1248 119.624L19.6545 118.268ZM16.9531 123.673H23.3779V121.673H16.9531V123.673ZM22.3779 122.673V124H24.3779V122.673H22.3779Z" fill="white" mask="url(#path-5-outside-3)"/>
</svg>
