<svg width="81" height="184" viewBox="0 0 81 184" fill="none" xmlns="http://www.w3.org/2000/svg">
<mask id="path-1-outside-1" maskUnits="userSpaceOnUse" x="6.52734" y="6.40625" width="68" height="28" fill="black">
<rect fill="white" x="6.52734" y="6.40625" width="68" height="28"/>
<path fill-rule="evenodd" clip-rule="evenodd" d="M23.5215 7.40625L18.9688 16.582L14.4863 7.40625H8.7207L15.9102 20.0977L8.52734 33H14.3633L19.0391 23.6836L23.7324 33H29.498L22.1152 20.0977L29.3223 7.40625H23.5215ZM66.5215 7.40625L61.9688 16.582L57.4863 7.40625H51.7207L58.9102 20.0977L51.5273 33H57.3633L62.0391 23.6836L66.7324 33H72.498L65.1152 20.0977L72.3223 7.40625H66.5215Z"/>
</mask>
<path fill-rule="evenodd" clip-rule="evenodd" d="M23.5215 7.40625L18.9688 16.582L14.4863 7.40625H8.7207L15.9102 20.0977L8.52734 33H14.3633L19.0391 23.6836L23.7324 33H29.498L22.1152 20.0977L29.3223 7.40625H23.5215ZM66.5215 7.40625L61.9688 16.582L57.4863 7.40625H51.7207L58.9102 20.0977L51.5273 33H57.3633L62.0391 23.6836L66.7324 33H72.498L65.1152 20.0977L72.3223 7.40625H66.5215Z" fill="#C84646"/>
<path d="M18.9688 16.582L18.0702 17.021L18.9618 18.846L19.8645 17.0265L18.9688 16.582ZM23.5215 7.40625V6.40625H22.9013L22.6257 6.96178L23.5215 7.40625ZM14.4863 7.40625L15.3848 6.96732L15.1108 6.40625H14.4863V7.40625ZM8.7207 7.40625V6.40625H7.00492L7.85061 7.89914L8.7207 7.40625ZM15.9102 20.0977L16.7781 20.5943L17.0609 20.1001L16.7802 19.6048L15.9102 20.0977ZM8.52734 33L7.65939 32.5034L6.803 34H8.52734V33ZM14.3633 33V34H14.9803L15.257 33.4486L14.3633 33ZM19.0391 23.6836L19.9321 23.2337L19.0374 21.4576L18.1453 23.235L19.0391 23.6836ZM23.7324 33L22.8393 33.4499L23.1165 34H23.7324V33ZM29.498 33V34H31.2224L30.366 32.5034L29.498 33ZM22.1152 20.0977L21.2457 19.6039L20.9642 20.0995L21.2473 20.5943L22.1152 20.0977ZM29.3223 7.40625L30.1918 7.90005L31.0401 6.40625H29.3223V7.40625ZM61.9688 16.582L61.0702 17.021L61.9618 18.846L62.8645 17.0265L61.9688 16.582ZM66.5215 7.40625V6.40625H65.9013L65.6257 6.96178L66.5215 7.40625ZM57.4863 7.40625L58.3848 6.96732L58.1108 6.40625H57.4863V7.40625ZM51.7207 7.40625V6.40625H50.0049L50.8506 7.89914L51.7207 7.40625ZM58.9102 20.0977L59.7781 20.5943L60.0609 20.1001L59.7802 19.6048L58.9102 20.0977ZM51.5273 33L50.6594 32.5034L49.803 34H51.5273V33ZM57.3633 33V34H57.9803L58.257 33.4486L57.3633 33ZM62.0391 23.6836L62.9321 23.2337L62.0374 21.4576L61.1453 23.235L62.0391 23.6836ZM66.7324 33L65.8393 33.4499L66.1165 34H66.7324V33ZM72.498 33V34H74.2224L73.366 32.5034L72.498 33ZM65.1152 20.0977L64.2457 19.6039L63.9642 20.0995L64.2473 20.5943L65.1152 20.0977ZM72.3223 7.40625L73.1918 7.90005L74.0401 6.40625H72.3223V7.40625ZM19.8645 17.0265L24.4173 7.85072L22.6257 6.96178L18.073 16.1376L19.8645 17.0265ZM13.5878 7.84518L18.0702 17.021L19.8673 16.1431L15.3848 6.96732L13.5878 7.84518ZM8.7207 8.40625H14.4863V6.40625H8.7207V8.40625ZM16.7802 19.6048L9.59079 6.91336L7.85061 7.89914L15.0401 20.5905L16.7802 19.6048ZM9.3953 33.4966L16.7781 20.5943L15.0422 19.601L7.65939 32.5034L9.3953 33.4966ZM14.3633 32H8.52734V34H14.3633V32ZM18.1453 23.235L13.4695 32.5514L15.257 33.4486L19.9328 24.1322L18.1453 23.235ZM24.6255 32.5501L19.9321 23.2337L18.146 24.1335L22.8393 33.4499L24.6255 32.5501ZM29.498 32H23.7324V34H29.498V32ZM21.2473 20.5943L28.6301 33.4966L30.366 32.5034L22.9832 19.601L21.2473 20.5943ZM28.4527 6.91245L21.2457 19.6039L22.9848 20.5915L30.1918 7.90005L28.4527 6.91245ZM23.5215 8.40625H29.3223V6.40625H23.5215V8.40625ZM62.8645 17.0265L67.4173 7.85072L65.6257 6.96178L61.073 16.1376L62.8645 17.0265ZM56.5878 7.84518L61.0702 17.021L62.8673 16.1431L58.3848 6.96732L56.5878 7.84518ZM51.7207 8.40625H57.4863V6.40625H51.7207V8.40625ZM59.7802 19.6048L52.5908 6.91336L50.8506 7.89914L58.0401 20.5905L59.7802 19.6048ZM52.3953 33.4966L59.7781 20.5943L58.0422 19.601L50.6594 32.5034L52.3953 33.4966ZM57.3633 32H51.5273V34H57.3633V32ZM61.1453 23.235L56.4695 32.5514L58.257 33.4486L62.9328 24.1322L61.1453 23.235ZM67.6255 32.5501L62.9321 23.2337L61.146 24.1335L65.8393 33.4499L67.6255 32.5501ZM72.498 32H66.7324V34H72.498V32ZM64.2473 20.5943L71.6301 33.4966L73.366 32.5034L65.9832 19.601L64.2473 20.5943ZM71.4527 6.91245L64.2457 19.6039L65.9848 20.5915L73.1918 7.90005L71.4527 6.91245ZM66.5215 8.40625H72.3223V6.40625H66.5215V8.40625Z" fill="white" mask="url(#path-1-outside-1)"/>
<mask id="path-3-outside-2" maskUnits="userSpaceOnUse" x="34.8262" y="166.027" width="11" height="16" fill="black">
<rect fill="white" x="34.8262" y="166.027" width="11" height="16"/>
<path d="M38.4277 172.819H39.5879C39.998 172.819 40.3584 172.764 40.6689 172.652C40.9854 172.541 41.249 172.389 41.46 172.195C41.6768 172.002 41.8408 171.771 41.9521 171.501C42.0635 171.231 42.1191 170.936 42.1191 170.613C42.1191 169.869 41.9287 169.31 41.5479 168.935C41.167 168.554 40.6104 168.363 39.8779 168.363C39.5322 168.363 39.2158 168.416 38.9287 168.521C38.6475 168.621 38.4043 168.768 38.1992 168.961C38 169.154 37.8447 169.386 37.7334 169.655C37.6221 169.925 37.5664 170.227 37.5664 170.561H35.9316C35.9316 170.074 36.0254 169.617 36.2129 169.189C36.4062 168.756 36.6758 168.381 37.0215 168.064C37.3672 167.742 37.7803 167.49 38.2607 167.309C38.7471 167.121 39.2861 167.027 39.8779 167.027C40.4521 167.027 40.9766 167.106 41.4512 167.265C41.9258 167.417 42.333 167.646 42.6729 167.95C43.0127 168.255 43.2764 168.633 43.4639 169.084C43.6514 169.535 43.7451 170.057 43.7451 170.648C43.7451 170.895 43.707 171.149 43.6309 171.413C43.5547 171.677 43.4375 171.935 43.2793 172.187C43.1211 172.433 42.916 172.667 42.6641 172.89C42.418 173.106 42.1221 173.288 41.7764 173.435C42.1924 173.569 42.5381 173.745 42.8135 173.962C43.0947 174.179 43.3174 174.422 43.4814 174.691C43.6514 174.961 43.7686 175.245 43.833 175.544C43.9033 175.843 43.9385 176.139 43.9385 176.432C43.9385 177.029 43.8359 177.56 43.6309 178.022C43.4258 178.485 43.1416 178.878 42.7783 179.2C42.415 179.517 41.9844 179.76 41.4863 179.93C40.9941 180.094 40.4609 180.176 39.8867 180.176C39.3242 180.176 38.7939 180.097 38.2959 179.938C37.8037 179.78 37.376 179.549 37.0127 179.244C36.6494 178.939 36.3594 178.567 36.1426 178.128C35.9316 177.688 35.8262 177.188 35.8262 176.625H37.4521C37.4521 176.959 37.5078 177.264 37.6191 177.539C37.7363 177.814 37.9004 178.049 38.1113 178.242C38.3223 178.436 38.5771 178.585 38.876 178.69C39.1807 178.796 39.5176 178.849 39.8867 178.849C40.2559 178.849 40.5898 178.802 40.8887 178.708C41.1875 178.608 41.4424 178.459 41.6533 178.26C41.8643 178.061 42.0254 177.814 42.1367 177.521C42.2539 177.223 42.3125 176.871 42.3125 176.467C42.3125 176.068 42.2451 175.726 42.1104 175.438C41.9814 175.146 41.7969 174.902 41.5566 174.709C41.3223 174.516 41.0352 174.372 40.6953 174.278C40.3613 174.185 39.9922 174.138 39.5879 174.138H38.4277V172.819Z"/>
</mask>
<path d="M38.4277 172.819H39.5879C39.998 172.819 40.3584 172.764 40.6689 172.652C40.9854 172.541 41.249 172.389 41.46 172.195C41.6768 172.002 41.8408 171.771 41.9521 171.501C42.0635 171.231 42.1191 170.936 42.1191 170.613C42.1191 169.869 41.9287 169.31 41.5479 168.935C41.167 168.554 40.6104 168.363 39.8779 168.363C39.5322 168.363 39.2158 168.416 38.9287 168.521C38.6475 168.621 38.4043 168.768 38.1992 168.961C38 169.154 37.8447 169.386 37.7334 169.655C37.6221 169.925 37.5664 170.227 37.5664 170.561H35.9316C35.9316 170.074 36.0254 169.617 36.2129 169.189C36.4062 168.756 36.6758 168.381 37.0215 168.064C37.3672 167.742 37.7803 167.49 38.2607 167.309C38.7471 167.121 39.2861 167.027 39.8779 167.027C40.4521 167.027 40.9766 167.106 41.4512 167.265C41.9258 167.417 42.333 167.646 42.6729 167.95C43.0127 168.255 43.2764 168.633 43.4639 169.084C43.6514 169.535 43.7451 170.057 43.7451 170.648C43.7451 170.895 43.707 171.149 43.6309 171.413C43.5547 171.677 43.4375 171.935 43.2793 172.187C43.1211 172.433 42.916 172.667 42.6641 172.89C42.418 173.106 42.1221 173.288 41.7764 173.435C42.1924 173.569 42.5381 173.745 42.8135 173.962C43.0947 174.179 43.3174 174.422 43.4814 174.691C43.6514 174.961 43.7686 175.245 43.833 175.544C43.9033 175.843 43.9385 176.139 43.9385 176.432C43.9385 177.029 43.8359 177.56 43.6309 178.022C43.4258 178.485 43.1416 178.878 42.7783 179.2C42.415 179.517 41.9844 179.76 41.4863 179.93C40.9941 180.094 40.4609 180.176 39.8867 180.176C39.3242 180.176 38.7939 180.097 38.2959 179.938C37.8037 179.78 37.376 179.549 37.0127 179.244C36.6494 178.939 36.3594 178.567 36.1426 178.128C35.9316 177.688 35.8262 177.188 35.8262 176.625H37.4521C37.4521 176.959 37.5078 177.264 37.6191 177.539C37.7363 177.814 37.9004 178.049 38.1113 178.242C38.3223 178.436 38.5771 178.585 38.876 178.69C39.1807 178.796 39.5176 178.849 39.8867 178.849C40.2559 178.849 40.5898 178.802 40.8887 178.708C41.1875 178.608 41.4424 178.459 41.6533 178.26C41.8643 178.061 42.0254 177.814 42.1367 177.521C42.2539 177.223 42.3125 176.871 42.3125 176.467C42.3125 176.068 42.2451 175.726 42.1104 175.438C41.9814 175.146 41.7969 174.902 41.5566 174.709C41.3223 174.516 41.0352 174.372 40.6953 174.278C40.3613 174.185 39.9922 174.138 39.5879 174.138H38.4277V172.819Z" fill="#001AFF"/>
<path d="M38.4277 172.819V171.819H37.4277V172.819H38.4277ZM40.6689 172.652L40.337 171.709L40.3315 171.711L40.6689 172.652ZM41.46 172.195L40.7943 171.449L40.7842 171.458L41.46 172.195ZM41.5479 168.935L40.8407 169.642L40.8462 169.647L41.5479 168.935ZM38.9287 168.521L39.2626 169.464L39.2735 169.46L38.9287 168.521ZM38.1992 168.961L37.5132 168.233L37.5079 168.238L37.5027 168.243L38.1992 168.961ZM37.5664 170.561V171.561H38.5664V170.561H37.5664ZM35.9316 170.561H34.9316V171.561H35.9316V170.561ZM36.2129 169.189L35.2996 168.782L35.297 168.788L36.2129 169.189ZM37.0215 168.064L37.6967 168.802L37.7034 168.796L37.0215 168.064ZM38.2607 167.309L38.6144 168.244L38.6205 168.242L38.2607 167.309ZM41.4512 167.265L41.1349 168.213L41.1455 168.217L41.4512 167.265ZM43.4639 169.084L42.5404 169.468L43.4639 169.084ZM43.2793 172.187L44.1205 172.727L44.1262 172.718L43.2793 172.187ZM42.6641 172.89L43.3251 173.64L43.3263 173.639L42.6641 172.89ZM41.7764 173.435L41.3862 172.514L38.9179 173.56L41.4682 174.386L41.7764 173.435ZM42.8135 173.962L42.1949 174.748L42.203 174.754L42.8135 173.962ZM43.4814 174.691L42.6272 175.211L42.6313 175.218L42.6355 175.225L43.4814 174.691ZM43.833 175.544L42.8555 175.755L42.8575 175.764L42.8596 175.773L43.833 175.544ZM42.7783 179.2L43.4351 179.954L43.4419 179.948L42.7783 179.2ZM41.4863 179.93L41.8026 180.878L41.8092 180.876L41.4863 179.93ZM38.2959 179.938L37.9899 180.891L37.9932 180.892L38.2959 179.938ZM36.1426 178.128L35.241 178.561L35.2458 178.57L36.1426 178.128ZM35.8262 176.625V175.625H34.8262V176.625H35.8262ZM37.4521 176.625H38.4521V175.625H37.4521V176.625ZM37.6191 177.539L36.692 177.914L36.6954 177.922L36.699 177.931L37.6191 177.539ZM38.876 178.69L38.5432 179.633L38.5489 179.635L38.876 178.69ZM40.8887 178.708L41.188 179.662L41.1965 179.659L41.2049 179.657L40.8887 178.708ZM42.1367 177.521L41.2057 177.156L41.2019 177.166L42.1367 177.521ZM42.1104 175.438L41.195 175.841L41.1999 175.852L41.2051 175.863L42.1104 175.438ZM41.5566 174.709L40.9202 175.48L40.9296 175.488L41.5566 174.709ZM40.6953 174.278L40.4251 175.241L40.4294 175.242L40.6953 174.278ZM38.4277 174.138H37.4277V175.138H38.4277V174.138ZM38.4277 173.819H39.5879V171.819H38.4277V173.819ZM39.5879 173.819C40.0862 173.819 40.5649 173.752 41.0064 173.594L40.3315 171.711C40.1519 171.775 39.9099 171.819 39.5879 171.819V173.819ZM41.0009 173.596C41.423 173.447 41.8096 173.231 42.1357 172.932L40.7842 171.458C40.6884 171.546 40.5477 171.635 40.337 171.709L41.0009 173.596ZM42.1256 172.942C42.4554 172.647 42.7077 172.291 42.8764 171.883L41.0279 171.119C40.9739 171.25 40.8981 171.356 40.7943 171.449L42.1256 172.942ZM42.8764 171.883C43.0428 171.48 43.1191 171.053 43.1191 170.613H41.1191C41.1191 170.818 41.0842 170.983 41.0279 171.119L42.8764 171.883ZM43.1191 170.613C43.1191 169.708 42.886 168.849 42.2495 168.222L40.8462 169.647C40.9714 169.77 41.1191 170.03 41.1191 170.613H43.1191ZM42.255 168.227C41.6271 167.6 40.7777 167.363 39.8779 167.363V169.363C40.443 169.363 40.7068 169.508 40.8407 169.642L42.255 168.227ZM39.8779 167.363C39.4297 167.363 38.9948 167.432 38.5839 167.583L39.2735 169.46C39.4368 169.4 39.6347 169.363 39.8779 169.363V167.363ZM38.5949 167.579C38.1904 167.722 37.8253 167.939 37.5132 168.233L38.8852 169.689C38.9833 169.596 39.1046 169.52 39.2626 169.464L38.5949 167.579ZM37.5027 168.243C37.2005 168.537 36.97 168.884 36.8091 169.274L38.6577 170.037C38.7195 169.887 38.7995 169.772 38.8957 169.679L37.5027 168.243ZM36.8091 169.274C36.6411 169.68 36.5664 170.114 36.5664 170.561H38.5664C38.5664 170.339 38.6031 170.169 38.6577 170.037L36.8091 169.274ZM37.5664 169.561H35.9316V171.561H37.5664V169.561ZM36.9316 170.561C36.9316 170.207 36.999 169.887 37.1288 169.591L35.297 168.788C35.0517 169.348 34.9316 169.942 34.9316 170.561H36.9316ZM37.1262 169.597C37.2644 169.287 37.4535 169.025 37.6966 168.802L36.3463 167.327C35.8981 167.737 35.5481 168.225 35.2996 168.782L37.1262 169.597ZM37.7034 168.796C37.946 168.57 38.2449 168.384 38.6144 168.244L37.9071 166.373C37.3156 166.597 36.7884 166.915 36.3396 167.333L37.7034 168.796ZM38.6205 168.242C38.9776 168.104 39.3926 168.027 39.8779 168.027V166.027C39.1796 166.027 38.5166 166.138 37.901 166.376L38.6205 168.242ZM39.8779 168.027C40.3603 168.027 40.7761 168.094 41.1349 168.213L41.7674 166.316C41.177 166.119 40.544 166.027 39.8779 166.027V168.027ZM41.1455 168.217C41.4987 168.33 41.7795 168.492 42.0053 168.695L43.3404 167.206C42.8865 166.799 42.3528 166.504 41.7568 166.312L41.1455 168.217ZM42.0053 168.695C42.2263 168.893 42.4061 169.145 42.5404 169.468L44.3873 168.7C44.1466 168.121 43.7991 167.617 43.3404 167.206L42.0053 168.695ZM42.5404 169.468C42.6679 169.775 42.7451 170.161 42.7451 170.648H44.7451C44.7451 169.952 44.6348 169.296 44.3873 168.7L42.5404 169.468ZM42.7451 170.648C42.7451 170.791 42.7232 170.952 42.6701 171.136L44.5916 171.691C44.6908 171.347 44.7451 170.999 44.7451 170.648H42.7451ZM42.6701 171.136C42.6219 171.302 42.5451 171.475 42.4324 171.655L44.1262 172.718C44.3299 172.394 44.4874 172.051 44.5916 171.691L42.6701 171.136ZM42.4381 171.646C42.3365 171.804 42.1949 171.97 42.0019 172.14L43.3263 173.639C43.6371 173.364 43.9057 173.061 44.1205 172.727L42.4381 171.646ZM42.003 172.139C41.8482 172.276 41.6471 172.403 41.3862 172.514L42.1665 174.355C42.597 174.173 42.9877 173.937 43.3251 173.64L42.003 172.139ZM41.4682 174.386C41.7985 174.493 42.0322 174.62 42.1949 174.748L43.432 173.176C43.044 172.871 42.5862 172.646 42.0845 172.483L41.4682 174.386ZM42.203 174.754C42.3991 174.905 42.5345 175.059 42.6272 175.211L44.3356 174.171C44.1002 173.785 43.7904 173.452 43.424 173.17L42.203 174.754ZM42.6355 175.225C42.7457 175.4 42.8167 175.575 42.8555 175.755L44.8105 175.333C44.7204 174.915 44.557 174.522 44.3274 174.158L42.6355 175.225ZM42.8596 175.773C42.9131 176 42.9385 176.219 42.9385 176.432H44.9385C44.9385 176.058 44.8936 175.685 44.8064 175.315L42.8596 175.773ZM42.9385 176.432C42.9385 176.915 42.8559 177.303 42.7166 177.617L44.5451 178.428C44.816 177.816 44.9385 177.144 44.9385 176.432H42.9385ZM42.7166 177.617C42.567 177.955 42.3663 178.229 42.1147 178.452L43.4419 179.948C43.917 179.527 44.2846 179.016 44.5451 178.428L42.7166 177.617ZM42.1215 178.446C41.8647 178.67 41.5502 178.851 41.1634 178.983L41.8092 180.876C42.4186 180.668 42.9654 180.363 43.4351 179.954L42.1215 178.446ZM41.1701 178.981C40.7902 179.108 40.3648 179.176 39.8867 179.176V181.176C40.557 181.176 41.1981 181.08 41.8026 180.878L41.1701 178.981ZM39.8867 179.176C39.4191 179.176 38.9916 179.11 38.5986 178.985L37.9932 180.892C38.5963 181.083 39.2293 181.176 39.8867 181.176V179.176ZM38.6019 178.986C38.2217 178.864 37.9108 178.692 37.6553 178.478L36.3701 180.01C36.8411 180.405 37.3857 180.696 37.9899 180.891L38.6019 178.986ZM37.6553 178.478C37.4019 178.265 37.1969 178.005 37.0394 177.686L35.2458 178.57C35.5218 179.13 35.8969 179.614 36.3701 180.01L37.6553 178.478ZM37.0441 177.695C36.9073 177.41 36.8262 177.061 36.8262 176.625H34.8262C34.8262 177.314 34.956 177.967 35.2411 178.561L37.0441 177.695ZM35.8262 177.625H37.4521V175.625H35.8262V177.625ZM36.4521 176.625C36.4521 177.072 36.5269 177.505 36.692 177.914L38.5463 177.164C38.4887 177.022 38.4521 176.846 38.4521 176.625H36.4521ZM36.699 177.931C36.8694 178.331 37.1146 178.685 37.4356 178.979L38.7871 177.505C38.6862 177.413 38.6032 177.298 38.5393 177.148L36.699 177.931ZM37.4356 178.979C37.756 179.273 38.131 179.488 38.5432 179.633L39.2088 177.747C39.0233 177.682 38.8885 177.598 38.7871 177.505L37.4356 178.979ZM38.5489 179.635C38.9728 179.782 39.4221 179.849 39.8867 179.849V177.849C39.613 177.849 39.3885 177.81 39.2031 177.745L38.5489 179.635ZM39.8867 179.849C40.3398 179.849 40.7768 179.791 41.188 179.662L40.5893 177.754C40.4029 177.812 40.172 177.849 39.8867 177.849V179.849ZM41.2049 179.657C41.6299 179.515 42.0143 179.294 42.3399 178.987L40.9667 177.533C40.8704 177.624 40.7451 177.702 40.5724 177.759L41.2049 179.657ZM42.3399 178.987C42.6692 178.676 42.9109 178.299 43.0715 177.877L41.2019 177.166C41.1398 177.33 41.0593 177.445 40.9667 177.533L42.3399 178.987ZM43.0677 177.887C43.2406 177.446 43.3125 176.965 43.3125 176.467H41.3125C41.3125 176.777 41.2672 177 41.2057 177.156L43.0677 177.887ZM43.3125 176.467C43.3125 175.958 43.2266 175.463 43.0156 175.014L41.2051 175.863C41.2636 175.988 41.3125 176.179 41.3125 176.467H43.3125ZM43.0257 175.036C42.8347 174.602 42.5536 174.228 42.1837 173.93L40.9296 175.488C41.0402 175.577 41.1282 175.689 41.195 175.841L43.0257 175.036ZM42.193 173.938C41.8341 173.641 41.4152 173.44 40.9612 173.314L40.4294 175.242C40.6551 175.305 40.8105 175.39 40.9203 175.48L42.193 173.938ZM40.9656 173.316C40.5305 173.193 40.0688 173.138 39.5879 173.138V175.138C39.9155 175.138 40.1921 175.176 40.4251 175.241L40.9656 173.316ZM39.5879 173.138H38.4277V175.138H39.5879V173.138ZM39.4277 174.138V172.819H37.4277V174.138H39.4277Z" fill="white" mask="url(#path-3-outside-2)"/>
<mask id="path-5-outside-3" maskUnits="userSpaceOnUse" x="9.60156" y="41" width="62" height="118" fill="black">
<rect fill="white" x="9.60156" y="41" width="62" height="118"/>
<path fill-rule="evenodd" clip-rule="evenodd" d="M10.6016 45.8145H26.6328V42H10.6016V45.8145ZM69.6328 45.8145H53.6016V42H69.6328V45.8145ZM63.8027 68H62.1768V57.2773L58.8281 58.5518V57.0664L63.6709 55.2031H63.8027V68ZM14.9932 68V66.8311L19.1855 62.1729C19.5605 61.7568 19.874 61.3877 20.126 61.0654C20.3779 60.7432 20.5801 60.4473 20.7324 60.1777C20.8848 59.9023 20.9932 59.6445 21.0576 59.4043C21.1221 59.1582 21.1543 58.9062 21.1543 58.6484C21.1543 58.332 21.1016 58.0361 20.9961 57.7607C20.8965 57.4795 20.7471 57.2363 20.5479 57.0312C20.3545 56.8262 20.1172 56.665 19.8359 56.5479C19.5605 56.4248 19.2471 56.3633 18.8955 56.3633C18.4678 56.3633 18.0957 56.4248 17.7793 56.5479C17.4688 56.6709 17.208 56.8467 16.9971 57.0752C16.792 57.2979 16.6367 57.5703 16.5312 57.8926C16.4316 58.2148 16.3818 58.5752 16.3818 58.9736H14.7471C14.7471 58.4346 14.8408 57.9277 15.0283 57.4531C15.2158 56.9727 15.4854 56.5537 15.8369 56.1963C16.1943 55.8389 16.6279 55.5547 17.1377 55.3438C17.6533 55.1328 18.2393 55.0273 18.8955 55.0273C19.499 55.0273 20.041 55.1182 20.5215 55.2998C21.0078 55.4756 21.418 55.7217 21.752 56.0381C22.0859 56.3545 22.3408 56.7295 22.5166 57.1631C22.6982 57.5967 22.7891 58.0684 22.7891 58.5781C22.7891 58.959 22.7246 59.3369 22.5957 59.7119C22.4668 60.0811 22.291 60.4473 22.0684 60.8105C21.8516 61.1738 21.5967 61.5342 21.3037 61.8916C21.0166 62.2432 20.7119 62.5947 20.3896 62.9463L16.9531 66.6729H23.3779V68H14.9932ZM19.7071 98.7071L26.0711 92.3431C26.4616 91.9526 26.4616 91.3195 26.0711 90.9289C25.6805 90.5384 25.0474 90.5384 24.6569 90.9289L20 95.5858V81H18L18 95.5858L13.3431 90.9289C12.9526 90.5384 12.3195 90.5384 11.9289 90.9289C11.5384 91.3195 11.5384 91.9526 11.9289 92.3431L18.2929 98.7071C18.6834 99.0976 19.3166 99.0976 19.7071 98.7071ZM69.0711 92.3431L62.7071 98.7071C62.3166 99.0976 61.6834 99.0976 61.2929 98.7071L54.9289 92.3431C54.5384 91.9526 54.5384 91.3195 54.9289 90.9289C55.3195 90.5384 55.9526 90.5384 56.3431 90.9289L61 95.5858V81H63V95.5858L67.6569 90.9289C68.0474 90.5384 68.6805 90.5384 69.0711 90.9289C69.4616 91.3195 69.4616 91.9526 69.0711 92.3431ZM14.9932 122.831V124H23.3779V122.673H16.9531L20.3896 118.946C20.7119 118.595 21.0166 118.243 21.3037 117.892C21.5967 117.534 21.8516 117.174 22.0684 116.811C22.291 116.447 22.4668 116.081 22.5957 115.712C22.7246 115.337 22.7891 114.959 22.7891 114.578C22.7891 114.068 22.6982 113.597 22.5166 113.163C22.3408 112.729 22.0859 112.354 21.752 112.038C21.418 111.722 21.0078 111.476 20.5215 111.3C20.041 111.118 19.499 111.027 18.8955 111.027C18.2393 111.027 17.6533 111.133 17.1377 111.344C16.6279 111.555 16.1943 111.839 15.8369 112.196C15.4854 112.554 15.2158 112.973 15.0283 113.453C14.8408 113.928 14.7471 114.435 14.7471 114.974H16.3818C16.3818 114.575 16.4316 114.215 16.5312 113.893C16.6367 113.57 16.792 113.298 16.9971 113.075C17.208 112.847 17.4688 112.671 17.7793 112.548C18.0957 112.425 18.4678 112.363 18.8955 112.363C19.2471 112.363 19.5605 112.425 19.8359 112.548C20.1172 112.665 20.3545 112.826 20.5479 113.031C20.7471 113.236 20.8965 113.479 20.9961 113.761C21.1016 114.036 21.1543 114.332 21.1543 114.648C21.1543 114.906 21.1221 115.158 21.0576 115.404C20.9932 115.645 20.8848 115.902 20.7324 116.178C20.5801 116.447 20.3779 116.743 20.126 117.065C19.874 117.388 19.5605 117.757 19.1855 118.173L14.9932 122.831ZM63.8027 124H62.1768V113.277L58.8281 114.552V113.066L63.6709 111.203H63.8027V124ZM16.7457 137L16.7457 137.097C16.7457 139.139 16.7456 140.77 16.9508 142C17.1678 143.302 17.647 144.362 18.7555 145.04C19.7593 145.655 21.1421 145.858 22.8657 145.944C24.2346 146.012 25.9588 146.008 28.0909 146.003H28.0911C28.6943 146.002 29.3303 146 30 146C32.6516 146 34.5476 146.002 35.9494 146.172C37.3492 146.343 38.0369 146.661 38.4489 147.112C38.8782 147.582 39.1817 148.383 39.341 149.953C39.4477 151.004 39.4828 152.303 39.4943 153.931L34.9924 149.429C34.7781 149.215 34.4908 149.118 34.2106 149.139C33.9305 149.118 33.6432 149.215 33.4289 149.429C33.0384 149.819 33.0384 150.453 33.4289 150.843L39.7929 157.207C40.0071 157.421 40.2944 157.518 40.5746 157.497C40.8548 157.518 41.1421 157.421 41.3563 157.207L47.7203 150.843C48.1108 150.453 48.1108 149.819 47.7203 149.429C47.506 149.215 47.2188 149.118 46.9386 149.139C46.6584 149.118 46.3711 149.215 46.1568 149.429L41.6549 153.931C41.6664 152.303 41.7015 151.004 41.8082 149.953C41.9675 148.383 42.271 147.582 42.7003 147.112C43.1123 146.661 43.8 146.343 45.1998 146.172C46.6016 146.002 48.4976 146 51.1492 146C51.8199 146 52.4554 146.002 53.0572 146.003H53.0578C55.1801 146.008 56.8823 146.012 58.2216 145.944C59.903 145.858 61.2535 145.656 62.218 145.024C63.2859 144.324 63.6922 143.243 63.8627 141.969C64.0064 140.894 64.004 139.499 64.0009 137.785C64.0005 137.53 64 137.269 64 137H62C62 137.273 62.0003 137.535 62.0007 137.786C62.0031 139.535 62.0048 140.774 61.8804 141.703C61.7436 142.726 61.4849 143.113 61.1219 143.351C60.6555 143.657 59.8092 143.86 58.1197 143.947C56.8389 144.012 55.2114 144.008 53.1036 144.003H53.1028C52.4929 144.002 51.8428 144 51.1492 144H51.0773C48.5133 144 46.4952 144 44.9582 144.187C43.405 144.376 42.1239 144.777 41.2234 145.763C40.9644 146.047 40.7511 146.364 40.5746 146.712C40.3981 146.364 40.1848 146.047 39.9259 145.763C39.0253 144.777 37.7442 144.376 36.191 144.187C34.654 144 32.6359 144 30.072 144H30C29.3081 144 28.658 144.002 28.0469 144.003H28.0465C25.9283 144.008 24.277 144.012 22.9653 143.947C21.2424 143.861 20.3275 143.658 19.7995 143.335C19.3762 143.076 19.0895 142.667 18.9236 141.671C18.7491 140.625 18.7457 139.163 18.7457 137H16.7457Z"/>
</mask>
<path fill-rule="evenodd" clip-rule="evenodd" d="M10.6016 45.8145H26.6328V42H10.6016V45.8145ZM69.6328 45.8145H53.6016V42H69.6328V45.8145ZM63.8027 68H62.1768V57.2773L58.8281 58.5518V57.0664L63.6709 55.2031H63.8027V68ZM14.9932 68V66.8311L19.1855 62.1729C19.5605 61.7568 19.874 61.3877 20.126 61.0654C20.3779 60.7432 20.5801 60.4473 20.7324 60.1777C20.8848 59.9023 20.9932 59.6445 21.0576 59.4043C21.1221 59.1582 21.1543 58.9062 21.1543 58.6484C21.1543 58.332 21.1016 58.0361 20.9961 57.7607C20.8965 57.4795 20.7471 57.2363 20.5479 57.0312C20.3545 56.8262 20.1172 56.665 19.8359 56.5479C19.5605 56.4248 19.2471 56.3633 18.8955 56.3633C18.4678 56.3633 18.0957 56.4248 17.7793 56.5479C17.4688 56.6709 17.208 56.8467 16.9971 57.0752C16.792 57.2979 16.6367 57.5703 16.5312 57.8926C16.4316 58.2148 16.3818 58.5752 16.3818 58.9736H14.7471C14.7471 58.4346 14.8408 57.9277 15.0283 57.4531C15.2158 56.9727 15.4854 56.5537 15.8369 56.1963C16.1943 55.8389 16.6279 55.5547 17.1377 55.3438C17.6533 55.1328 18.2393 55.0273 18.8955 55.0273C19.499 55.0273 20.041 55.1182 20.5215 55.2998C21.0078 55.4756 21.418 55.7217 21.752 56.0381C22.0859 56.3545 22.3408 56.7295 22.5166 57.1631C22.6982 57.5967 22.7891 58.0684 22.7891 58.5781C22.7891 58.959 22.7246 59.3369 22.5957 59.7119C22.4668 60.0811 22.291 60.4473 22.0684 60.8105C21.8516 61.1738 21.5967 61.5342 21.3037 61.8916C21.0166 62.2432 20.7119 62.5947 20.3896 62.9463L16.9531 66.6729H23.3779V68H14.9932ZM19.7071 98.7071L26.0711 92.3431C26.4616 91.9526 26.4616 91.3195 26.0711 90.9289C25.6805 90.5384 25.0474 90.5384 24.6569 90.9289L20 95.5858V81H18L18 95.5858L13.3431 90.9289C12.9526 90.5384 12.3195 90.5384 11.9289 90.9289C11.5384 91.3195 11.5384 91.9526 11.9289 92.3431L18.2929 98.7071C18.6834 99.0976 19.3166 99.0976 19.7071 98.7071ZM69.0711 92.3431L62.7071 98.7071C62.3166 99.0976 61.6834 99.0976 61.2929 98.7071L54.9289 92.3431C54.5384 91.9526 54.5384 91.3195 54.9289 90.9289C55.3195 90.5384 55.9526 90.5384 56.3431 90.9289L61 95.5858V81H63V95.5858L67.6569 90.9289C68.0474 90.5384 68.6805 90.5384 69.0711 90.9289C69.4616 91.3195 69.4616 91.9526 69.0711 92.3431ZM14.9932 122.831V124H23.3779V122.673H16.9531L20.3896 118.946C20.7119 118.595 21.0166 118.243 21.3037 117.892C21.5967 117.534 21.8516 117.174 22.0684 116.811C22.291 116.447 22.4668 116.081 22.5957 115.712C22.7246 115.337 22.7891 114.959 22.7891 114.578C22.7891 114.068 22.6982 113.597 22.5166 113.163C22.3408 112.729 22.0859 112.354 21.752 112.038C21.418 111.722 21.0078 111.476 20.5215 111.3C20.041 111.118 19.499 111.027 18.8955 111.027C18.2393 111.027 17.6533 111.133 17.1377 111.344C16.6279 111.555 16.1943 111.839 15.8369 112.196C15.4854 112.554 15.2158 112.973 15.0283 113.453C14.8408 113.928 14.7471 114.435 14.7471 114.974H16.3818C16.3818 114.575 16.4316 114.215 16.5312 113.893C16.6367 113.57 16.792 113.298 16.9971 113.075C17.208 112.847 17.4688 112.671 17.7793 112.548C18.0957 112.425 18.4678 112.363 18.8955 112.363C19.2471 112.363 19.5605 112.425 19.8359 112.548C20.1172 112.665 20.3545 112.826 20.5479 113.031C20.7471 113.236 20.8965 113.479 20.9961 113.761C21.1016 114.036 21.1543 114.332 21.1543 114.648C21.1543 114.906 21.1221 115.158 21.0576 115.404C20.9932 115.645 20.8848 115.902 20.7324 116.178C20.5801 116.447 20.3779 116.743 20.126 117.065C19.874 117.388 19.5605 117.757 19.1855 118.173L14.9932 122.831ZM63.8027 124H62.1768V113.277L58.8281 114.552V113.066L63.6709 111.203H63.8027V124ZM16.7457 137L16.7457 137.097C16.7457 139.139 16.7456 140.77 16.9508 142C17.1678 143.302 17.647 144.362 18.7555 145.04C19.7593 145.655 21.1421 145.858 22.8657 145.944C24.2346 146.012 25.9588 146.008 28.0909 146.003H28.0911C28.6943 146.002 29.3303 146 30 146C32.6516 146 34.5476 146.002 35.9494 146.172C37.3492 146.343 38.0369 146.661 38.4489 147.112C38.8782 147.582 39.1817 148.383 39.341 149.953C39.4477 151.004 39.4828 152.303 39.4943 153.931L34.9924 149.429C34.7781 149.215 34.4908 149.118 34.2106 149.139C33.9305 149.118 33.6432 149.215 33.4289 149.429C33.0384 149.819 33.0384 150.453 33.4289 150.843L39.7929 157.207C40.0071 157.421 40.2944 157.518 40.5746 157.497C40.8548 157.518 41.1421 157.421 41.3563 157.207L47.7203 150.843C48.1108 150.453 48.1108 149.819 47.7203 149.429C47.506 149.215 47.2188 149.118 46.9386 149.139C46.6584 149.118 46.3711 149.215 46.1568 149.429L41.6549 153.931C41.6664 152.303 41.7015 151.004 41.8082 149.953C41.9675 148.383 42.271 147.582 42.7003 147.112C43.1123 146.661 43.8 146.343 45.1998 146.172C46.6016 146.002 48.4976 146 51.1492 146C51.8199 146 52.4554 146.002 53.0572 146.003H53.0578C55.1801 146.008 56.8823 146.012 58.2216 145.944C59.903 145.858 61.2535 145.656 62.218 145.024C63.2859 144.324 63.6922 143.243 63.8627 141.969C64.0064 140.894 64.004 139.499 64.0009 137.785C64.0005 137.53 64 137.269 64 137H62C62 137.273 62.0003 137.535 62.0007 137.786C62.0031 139.535 62.0048 140.774 61.8804 141.703C61.7436 142.726 61.4849 143.113 61.1219 143.351C60.6555 143.657 59.8092 143.86 58.1197 143.947C56.8389 144.012 55.2114 144.008 53.1036 144.003H53.1028C52.4929 144.002 51.8428 144 51.1492 144H51.0773C48.5133 144 46.4952 144 44.9582 144.187C43.405 144.376 42.1239 144.777 41.2234 145.763C40.9644 146.047 40.7511 146.364 40.5746 146.712C40.3981 146.364 40.1848 146.047 39.9259 145.763C39.0253 144.777 37.7442 144.376 36.191 144.187C34.654 144 32.6359 144 30.072 144H30C29.3081 144 28.658 144.002 28.0469 144.003H28.0465C25.9283 144.008 24.277 144.012 22.9653 143.947C21.2424 143.861 20.3275 143.658 19.7995 143.335C19.3762 143.076 19.0895 142.667 18.9236 141.671C18.7491 140.625 18.7457 139.163 18.7457 137H16.7457Z" fill="black"/>
<path d="M26.6328 45.8145V46.8145H27.6328V45.8145H26.6328ZM10.6016 45.8145H9.60156V46.8145H10.6016V45.8145ZM26.6328 42H27.6328V41H26.6328V42ZM10.6016 42V41H9.60156V42H10.6016ZM53.6016 45.8145H52.6016V46.8145H53.6016V45.8145ZM69.6328 45.8145V46.8145H70.6328V45.8145H69.6328ZM53.6016 42V41H52.6016V42H53.6016ZM69.6328 42H70.6328V41H69.6328V42ZM62.1768 68H61.1768V69H62.1768V68ZM63.8027 68V69H64.8027V68H63.8027ZM62.1768 57.2773H63.1768V55.8268L61.8211 56.3427L62.1768 57.2773ZM58.8281 58.5518H57.8281V60.0023L59.1838 59.4864L58.8281 58.5518ZM58.8281 57.0664L58.469 56.1331L57.8281 56.3797V57.0664H58.8281ZM63.6709 55.2031V54.2031H63.4852L63.3118 54.2698L63.6709 55.2031ZM63.8027 55.2031H64.8027V54.2031H63.8027V55.2031ZM14.9932 66.8311L14.2499 66.1621L13.9932 66.4473V66.8311H14.9932ZM14.9932 68H13.9932V69H14.9932V68ZM19.1855 62.1729L18.4428 61.5033L18.4423 61.5039L19.1855 62.1729ZM20.7324 60.1777L21.603 60.6698L21.6075 60.6618L20.7324 60.1777ZM21.0576 59.4043L22.0235 59.6634L22.025 59.6577L21.0576 59.4043ZM20.9961 57.7607L20.0535 58.0946L20.0577 58.1065L20.0622 58.1184L20.9961 57.7607ZM20.5479 57.0312L19.8203 57.7173L19.8254 57.7227L19.8306 57.728L20.5479 57.0312ZM19.8359 56.5479L19.428 57.4609L19.4396 57.466L19.4513 57.4709L19.8359 56.5479ZM17.7793 56.5479L17.4168 55.6158L17.4109 55.6182L17.7793 56.5479ZM16.9971 57.0752L16.2623 56.3969L16.2615 56.3977L16.9971 57.0752ZM16.5312 57.8926L15.5809 57.5815L15.5783 57.5894L15.5758 57.5973L16.5312 57.8926ZM16.3818 58.9736V59.9736H17.3818V58.9736H16.3818ZM14.7471 58.9736H13.7471V59.9736H14.7471V58.9736ZM15.0283 57.4531L15.9584 57.8206L15.9599 57.8167L15.0283 57.4531ZM15.8369 56.1963L15.1298 55.4892L15.124 55.4951L15.8369 56.1963ZM17.1377 55.3438L16.7591 54.4182L16.7553 54.4197L17.1377 55.3438ZM20.5215 55.2998L20.1679 56.2352L20.1747 56.2378L20.1816 56.2403L20.5215 55.2998ZM22.5166 57.1631L21.5898 57.5388L21.5943 57.5495L22.5166 57.1631ZM22.5957 59.7119L23.5398 60.0416L23.5414 60.037L22.5957 59.7119ZM22.0684 60.8105L21.2157 60.2879L21.2096 60.2981L22.0684 60.8105ZM21.3037 61.8916L20.5303 61.2577L20.5292 61.2591L21.3037 61.8916ZM20.3896 62.9463L21.1248 63.6242L21.1268 63.622L20.3896 62.9463ZM16.9531 66.6729L16.218 65.9949L14.6707 67.6729H16.9531V66.6729ZM23.3779 66.6729H24.3779V65.6729H23.3779V66.6729ZM23.3779 68V69H24.3779V68H23.3779ZM26.0711 92.3431L26.7782 93.0503L26.7782 93.0503L26.0711 92.3431ZM19.7071 98.7071L19 98L19 98L19.7071 98.7071ZM26.0711 90.9289L26.7782 90.2218L26.7782 90.2218L26.0711 90.9289ZM24.6569 90.9289L23.9497 90.2218L23.9497 90.2218L24.6569 90.9289ZM20 95.5858H19V98L20.7071 96.2929L20 95.5858ZM20 81H21V80H20V81ZM18 81V80H17L17 81L18 81ZM18 95.5858L17.2929 96.2929L19 98L19 95.5858L18 95.5858ZM13.3431 90.9289L12.636 91.636L12.636 91.636L13.3431 90.9289ZM11.9289 90.9289L12.636 91.636L12.636 91.636L11.9289 90.9289ZM11.9289 92.3431L12.636 91.636L12.636 91.636L11.9289 92.3431ZM18.2929 98.7071L17.5858 99.4142L17.5858 99.4142L18.2929 98.7071ZM61.2929 98.7071L60.5858 99.4142L60.5858 99.4142L61.2929 98.7071ZM54.9289 92.3431L55.636 91.636L55.636 91.636L54.9289 92.3431ZM54.9289 90.9289L55.636 91.636L55.636 91.636L54.9289 90.9289ZM61 95.5858L60.2929 96.2929L62 98V95.5858H61ZM61 81V80H60V81H61ZM63 81H64V80H63V81ZM63 95.5858H62V98L63.7071 96.2929L63 95.5858ZM67.6569 90.9289L66.9497 90.2218L66.9497 90.2218L67.6569 90.9289ZM69.0711 90.9289L69.7782 90.2218L69.7782 90.2218L69.0711 90.9289ZM14.9932 124H13.9932V125H14.9932V124ZM14.9932 122.831L14.2499 122.162L13.9932 122.447V122.831H14.9932ZM23.3779 124V125H24.3779V124H23.3779ZM23.3779 122.673H24.3779V121.673H23.3779V122.673ZM16.9531 122.673L16.218 121.995L14.6707 123.673H16.9531V122.673ZM20.3896 118.946L21.1248 119.624L21.1268 119.622L20.3896 118.946ZM21.3037 117.892L20.5303 117.258L20.5292 117.259L21.3037 117.892ZM22.0684 116.811L21.2157 116.288L21.2096 116.298L22.0684 116.811ZM22.5957 115.712L23.5398 116.042L23.5414 116.037L22.5957 115.712ZM22.5166 113.163L21.5898 113.539L21.5943 113.549L22.5166 113.163ZM20.5215 111.3L20.1679 112.235L20.1747 112.238L20.1816 112.24L20.5215 111.3ZM17.1377 111.344L16.7591 110.418L16.7553 110.42L17.1377 111.344ZM15.8369 112.196L15.1298 111.489L15.124 111.495L15.8369 112.196ZM15.0283 113.453L15.9584 113.821L15.9599 113.817L15.0283 113.453ZM14.7471 114.974H13.7471V115.974H14.7471V114.974ZM16.3818 114.974V115.974H17.3818V114.974H16.3818ZM16.5312 113.893L15.5809 113.582L15.5783 113.589L15.5758 113.597L16.5312 113.893ZM16.9971 113.075L16.2623 112.397L16.2615 112.398L16.9971 113.075ZM17.7793 112.548L17.4168 111.616L17.4109 111.618L17.7793 112.548ZM19.8359 112.548L19.428 113.461L19.4396 113.466L19.4513 113.471L19.8359 112.548ZM20.5479 113.031L19.8203 113.717L19.8254 113.723L19.8306 113.728L20.5479 113.031ZM20.9961 113.761L20.0535 114.095L20.0577 114.107L20.0622 114.118L20.9961 113.761ZM21.0576 115.404L22.0235 115.663L22.025 115.658L21.0576 115.404ZM20.7324 116.178L21.603 116.67L21.6075 116.662L20.7324 116.178ZM19.1855 118.173L18.4428 117.503L18.4423 117.504L19.1855 118.173ZM62.1768 124H61.1768V125H62.1768V124ZM63.8027 124V125H64.8027V124H63.8027ZM62.1768 113.277H63.1768V111.827L61.8211 112.343L62.1768 113.277ZM58.8281 114.552H57.8281V116.002L59.1838 115.486L58.8281 114.552ZM58.8281 113.066L58.469 112.133L57.8281 112.38V113.066H58.8281ZM63.6709 111.203V110.203H63.4852L63.3118 110.27L63.6709 111.203ZM63.8027 111.203H64.8027V110.203H63.8027V111.203ZM16.7457 137.097L17.7457 137.097L17.7457 137.097L16.7457 137.097ZM16.7457 137V136H15.7457L15.7457 137L16.7457 137ZM16.9508 142L17.9372 141.836L17.9372 141.836L16.9508 142ZM18.7555 145.04L18.2335 145.893L18.2335 145.893L18.7555 145.04ZM22.8657 145.944L22.9155 144.945L22.9155 144.945L22.8657 145.944ZM28.0909 146.003L28.0909 145.003L28.0885 145.003L28.0909 146.003ZM28.0911 146.003L28.0911 147.003L28.0935 147.003L28.0911 146.003ZM35.9494 146.172L35.8286 147.165L35.8286 147.165L35.9494 146.172ZM38.4489 147.112L37.7104 147.786L37.7104 147.786L38.4489 147.112ZM39.341 149.953L40.3359 149.852L40.3359 149.852L39.341 149.953ZM39.4943 153.931L38.7872 154.638L40.5116 156.362L40.4943 153.924L39.4943 153.931ZM34.9924 149.429L34.2853 150.136L34.2853 150.136L34.9924 149.429ZM34.2106 149.139L34.1365 150.136L34.2106 150.142L34.2848 150.136L34.2106 149.139ZM33.4289 149.429L32.7218 148.722L32.7218 148.722L33.4289 149.429ZM33.4289 150.843L32.7218 151.55L32.7218 151.55L33.4289 150.843ZM40.5746 157.497L40.6488 156.5L40.5746 156.494L40.5004 156.5L40.5746 157.497ZM46.9386 149.139L46.8644 150.136L46.9386 150.142L47.0128 150.136L46.9386 149.139ZM46.1568 149.429L46.8639 150.136L46.864 150.136L46.1568 149.429ZM41.6549 153.931L40.6549 153.924L40.6376 156.362L42.362 154.638L41.6549 153.931ZM41.8082 149.953L40.8133 149.852L40.8133 149.852L41.8082 149.953ZM42.7003 147.112L43.4388 147.786L43.4388 147.786L42.7003 147.112ZM45.1998 146.172L45.3206 147.165L45.3206 147.165L45.1998 146.172ZM53.0572 146.003L53.0548 147.003H53.0572V146.003ZM53.0578 146.003L53.0602 145.003H53.0578V146.003ZM58.2216 145.944L58.2725 146.943L58.2725 146.943L58.2216 145.944ZM62.218 145.024L62.766 145.86L62.766 145.86L62.218 145.024ZM63.8627 141.969L62.8716 141.836L62.8716 141.836L63.8627 141.969ZM64.0009 137.785L65.0009 137.783L65.0009 137.783L64.0009 137.785ZM64 137H65V136H64V137ZM62 137V136H61V137H62ZM62.0007 137.786L63.0007 137.784L63.0007 137.784L62.0007 137.786ZM61.8804 141.703L62.8716 141.836L62.8716 141.836L61.8804 141.703ZM61.1219 143.351L60.5739 142.515L60.5739 142.515L61.1219 143.351ZM58.1197 143.947L58.0688 142.948L58.0688 142.948L58.1197 143.947ZM53.1036 144.003L53.106 143.003H53.1036V144.003ZM53.1028 144.003L53.1004 145.003H53.1028V144.003ZM51.0773 144L51.0773 145H51.0773V144ZM44.9582 144.187L44.8374 143.194L44.8374 143.194L44.9582 144.187ZM41.2234 145.763L40.4849 145.089L40.4849 145.089L41.2234 145.763ZM40.5746 146.712L39.6826 147.164L40.5746 148.924L41.4666 147.164L40.5746 146.712ZM39.9259 145.763L40.6643 145.089L40.6643 145.089L39.9259 145.763ZM36.191 144.187L36.3118 143.194L36.3118 143.194L36.191 144.187ZM30.072 144L30.072 145L30.072 145L30.072 144ZM28.0469 144.003L28.0469 145.003L28.0492 145.003L28.0469 144.003ZM28.0465 144.003L28.0465 143.003L28.0442 143.003L28.0465 144.003ZM22.9653 143.947L22.9155 144.945L22.9155 144.945L22.9653 143.947ZM19.7995 143.335L19.2775 144.188L19.2775 144.188L19.7995 143.335ZM18.9236 141.671L17.9372 141.836L17.9372 141.836L18.9236 141.671ZM18.7457 137L19.7457 137L19.7457 136H18.7457V137ZM26.6328 44.8145H10.6016V46.8145H26.6328V44.8145ZM25.6328 42V45.8145H27.6328V42H25.6328ZM10.6016 43H26.6328V41H10.6016V43ZM11.6016 45.8145V42H9.60156V45.8145H11.6016ZM53.6016 46.8145H69.6328V44.8145H53.6016V46.8145ZM52.6016 42V45.8145H54.6016V42H52.6016ZM69.6328 41H53.6016V43H69.6328V41ZM70.6328 45.8145V42H68.6328V45.8145H70.6328ZM62.1768 69H63.8027V67H62.1768V69ZM61.1768 57.2773V68H63.1768V57.2773H61.1768ZM59.1838 59.4864L62.5324 58.2119L61.8211 56.3427L58.4724 57.6172L59.1838 59.4864ZM57.8281 57.0664V58.5518H59.8281V57.0664H57.8281ZM63.3118 54.2698L58.469 56.1331L59.1872 57.9997L64.03 56.1364L63.3118 54.2698ZM63.8027 54.2031H63.6709V56.2031H63.8027V54.2031ZM64.8027 68V55.2031H62.8027V68H64.8027ZM13.9932 66.8311V68H15.9932V66.8311H13.9932ZM18.4423 61.5039L14.2499 66.1621L15.7365 67.5L19.9288 62.8418L18.4423 61.5039ZM19.3382 60.4495C19.1047 60.7481 18.8074 61.0988 18.4428 61.5033L19.9283 62.8424C20.3137 62.4149 20.6433 62.0273 20.9138 61.6814L19.3382 60.4495ZM19.8619 59.6857C19.7403 59.9007 19.5686 60.1548 19.3382 60.4495L20.9138 61.6814C21.1873 61.3316 21.4198 60.9938 21.603 60.6698L19.8619 59.6857ZM20.0918 59.1452C20.053 59.2895 19.9803 59.4715 19.8574 59.6937L21.6075 60.6618C21.7892 60.3332 21.9333 59.9995 22.0235 59.6634L20.0918 59.1452ZM20.1543 58.6484C20.1543 58.8219 20.1327 58.9887 20.0902 59.1509L22.025 59.6577C22.1114 59.3277 22.1543 58.9906 22.1543 58.6484H20.1543ZM20.0622 58.1184C20.1209 58.2715 20.1543 58.4453 20.1543 58.6484H22.1543C22.1543 58.2188 22.0822 57.8008 21.93 57.4031L20.0622 58.1184ZM19.8306 57.728C19.925 57.8253 19.9998 57.9431 20.0535 58.0946L21.9387 57.4269C21.7932 57.0159 21.5691 56.6474 21.2651 56.3345L19.8306 57.728ZM19.4513 57.4709C19.6135 57.5385 19.7309 57.6225 19.8203 57.7173L21.2754 56.3452C20.9781 56.0298 20.6209 55.7916 20.2206 55.6248L19.4513 57.4709ZM18.8955 57.3633C19.1296 57.3633 19.3005 57.4039 19.428 57.4609L20.2439 55.6348C19.8206 55.4457 19.3646 55.3633 18.8955 55.3633V57.3633ZM18.1417 57.4799C18.3169 57.4117 18.5608 57.3633 18.8955 57.3633V55.3633C18.3747 55.3633 17.8745 55.4379 17.4169 55.6158L18.1417 57.4799ZM17.7319 57.7535C17.8336 57.6432 17.966 57.5495 18.1477 57.4775L17.4109 55.6182C16.9715 55.7923 16.5824 56.0501 16.2623 56.3969L17.7319 57.7535ZM17.4816 58.2036C17.5479 58.001 17.6356 57.858 17.7326 57.7527L16.2615 56.3977C15.9484 56.7377 15.7255 57.1396 15.5809 57.5815L17.4816 58.2036ZM17.3818 58.9736C17.3818 58.6577 17.4214 58.399 17.4867 58.1879L15.5758 57.5973C15.4419 58.0307 15.3818 58.4927 15.3818 58.9736H17.3818ZM14.7471 59.9736H16.3818V57.9736H14.7471V59.9736ZM14.0983 57.0857C13.862 57.6838 13.7471 58.316 13.7471 58.9736H15.7471C15.7471 58.5532 15.8197 58.1717 15.9584 57.8206L14.0983 57.0857ZM15.124 55.4951C14.6747 55.9519 14.332 56.4866 14.0967 57.0896L15.9599 57.8167C16.0996 57.4587 16.296 57.1556 16.5498 56.8975L15.124 55.4951ZM16.7553 54.4197C16.1353 54.6763 15.5884 55.0306 15.1298 55.4892L16.544 56.9034C16.8003 56.6471 17.1206 56.4331 17.52 56.2678L16.7553 54.4197ZM18.8955 54.0273C18.1321 54.0273 17.4142 54.1502 16.7591 54.4182L17.5163 56.2693C17.8924 56.1155 18.3464 56.0273 18.8955 56.0273V54.0273ZM20.8751 54.3644C20.2638 54.1333 19.5991 54.0273 18.8955 54.0273V56.0273C19.3989 56.0273 19.8183 56.103 20.1679 56.2352L20.8751 54.3644ZM22.4397 55.3121C21.9941 54.89 21.4611 54.5761 20.8614 54.3594L20.1816 56.2403C20.5545 56.3751 20.8419 56.5534 21.0642 56.764L22.4397 55.3121ZM23.4433 56.7874C23.2148 56.2236 22.8793 55.7286 22.4397 55.3121L21.0642 56.764C21.2926 56.9804 21.4669 57.2354 21.5899 57.5388L23.4433 56.7874ZM23.7891 58.5781C23.7891 57.947 23.676 57.3427 23.4389 56.7767L21.5943 57.5495C21.7205 57.8507 21.7891 58.1897 21.7891 58.5781H23.7891ZM23.5414 60.037C23.7048 59.5617 23.7891 59.0741 23.7891 58.5781H21.7891C21.7891 58.8439 21.7445 59.1121 21.65 59.3868L23.5414 60.037ZM22.921 61.3331C23.1776 60.9144 23.3854 60.4838 23.5398 60.0416L21.6516 59.3822C21.5482 59.6783 21.4044 59.9802 21.2158 60.288L22.921 61.3331ZM22.0771 62.5255C22.3986 62.1333 22.6827 61.7325 22.9271 61.323L21.2096 60.2981C21.0204 60.6151 20.7947 60.9351 20.5303 61.2577L22.0771 62.5255ZM21.1268 63.622C21.4613 63.2571 21.7785 62.8912 22.0782 62.5241L20.5292 61.2591C20.2547 61.5952 19.9625 61.9323 19.6525 62.2706L21.1268 63.622ZM17.6883 67.3508L21.1248 63.6242L19.6545 62.2684L16.218 65.9949L17.6883 67.3508ZM23.3779 65.6729H16.9531V67.6729H23.3779V65.6729ZM24.3779 68V66.6729H22.3779V68H24.3779ZM14.9932 69H23.3779V67H14.9932V69ZM25.364 91.636L19 98L20.4142 99.4142L26.7782 93.0503L25.364 91.636ZM25.364 91.636V91.636L26.7782 93.0503C27.5592 92.2692 27.5592 91.0029 26.7782 90.2218L25.364 91.636ZM25.364 91.636H25.364L26.7782 90.2218C25.9971 89.4408 24.7308 89.4408 23.9497 90.2218L25.364 91.636ZM20.7071 96.2929L25.364 91.636L23.9497 90.2218L19.2929 94.8787L20.7071 96.2929ZM19 81V95.5858H21V81H19ZM18 82H20V80H18V82ZM19 95.5858L19 81L17 81L17 95.5858L19 95.5858ZM12.636 91.636L17.2929 96.2929L18.7071 94.8787L14.0503 90.2218L12.636 91.636ZM12.636 91.636L12.636 91.636L14.0503 90.2218C13.2692 89.4408 12.0029 89.4408 11.2218 90.2218L12.636 91.636ZM12.636 91.636L12.636 91.636L11.2218 90.2218C10.4408 91.0029 10.4408 92.2692 11.2218 93.0503L12.636 91.636ZM19 98L12.636 91.636L11.2218 93.0503L17.5858 99.4142L19 98ZM19 98L19 98L17.5858 99.4142C18.3668 100.195 19.6332 100.195 20.4142 99.4142L19 98ZM63.4142 99.4142L69.7782 93.0503L68.364 91.636L62 98L63.4142 99.4142ZM60.5858 99.4142C61.3668 100.195 62.6332 100.195 63.4142 99.4142L62 98L62 98L60.5858 99.4142ZM54.2218 93.0503L60.5858 99.4142L62 98L55.636 91.636L54.2218 93.0503ZM54.2218 90.2218C53.4408 91.0029 53.4408 92.2692 54.2218 93.0503L55.636 91.636V91.636L54.2218 90.2218ZM57.0503 90.2218C56.2692 89.4408 55.0029 89.4408 54.2218 90.2218L55.636 91.636H55.636L57.0503 90.2218ZM61.7071 94.8787L57.0503 90.2218L55.636 91.636L60.2929 96.2929L61.7071 94.8787ZM60 81V95.5858H62V81H60ZM63 80H61V82H63V80ZM64 95.5858V81H62V95.5858H64ZM66.9497 90.2218L62.2929 94.8787L63.7071 96.2929L68.364 91.636L66.9497 90.2218ZM69.7782 90.2218C68.9971 89.4408 67.7308 89.4408 66.9497 90.2218L68.364 91.636H68.364L69.7782 90.2218ZM69.7782 93.0503C70.5592 92.2692 70.5592 91.0029 69.7782 90.2218L68.364 91.636V91.636L69.7782 93.0503ZM15.9932 124V122.831H13.9932V124H15.9932ZM23.3779 123H14.9932V125H23.3779V123ZM22.3779 122.673V124H24.3779V122.673H22.3779ZM16.9531 123.673H23.3779V121.673H16.9531V123.673ZM19.6545 118.268L16.218 121.995L17.6883 123.351L21.1248 119.624L19.6545 118.268ZM20.5292 117.259C20.2547 117.595 19.9625 117.932 19.6525 118.271L21.1268 119.622C21.4613 119.257 21.7785 118.891 22.0782 118.524L20.5292 117.259ZM21.2096 116.298C21.0204 116.615 20.7947 116.935 20.5303 117.258L22.0771 118.526C22.3986 118.133 22.6827 117.733 22.9271 117.323L21.2096 116.298ZM21.6516 115.382C21.5482 115.678 21.4044 115.98 21.2158 116.288L22.921 117.333C23.1776 116.914 23.3854 116.484 23.5398 116.042L21.6516 115.382ZM21.7891 114.578C21.7891 114.844 21.7445 115.112 21.65 115.387L23.5414 116.037C23.7048 115.562 23.7891 115.074 23.7891 114.578H21.7891ZM21.5943 113.549C21.7205 113.851 21.7891 114.19 21.7891 114.578H23.7891C23.7891 113.947 23.676 113.343 23.4389 112.777L21.5943 113.549ZM21.0642 112.764C21.2926 112.98 21.4669 113.235 21.5899 113.539L23.4433 112.787C23.2148 112.224 22.8793 111.729 22.4397 111.312L21.0642 112.764ZM20.1816 112.24C20.5545 112.375 20.8419 112.553 21.0642 112.764L22.4397 111.312C21.9941 110.89 21.4611 110.576 20.8614 110.359L20.1816 112.24ZM18.8955 112.027C19.3989 112.027 19.8183 112.103 20.1679 112.235L20.8751 110.364C20.2638 110.133 19.5991 110.027 18.8955 110.027V112.027ZM17.5163 112.269C17.8924 112.115 18.3464 112.027 18.8955 112.027V110.027C18.1321 110.027 17.4142 110.15 16.7591 110.418L17.5163 112.269ZM16.544 112.903C16.8003 112.647 17.1206 112.433 17.52 112.268L16.7553 110.42C16.1353 110.676 15.5884 111.031 15.1298 111.489L16.544 112.903ZM15.9599 113.817C16.0996 113.459 16.296 113.156 16.5498 112.898L15.124 111.495C14.6747 111.952 14.332 112.487 14.0967 113.09L15.9599 113.817ZM15.7471 114.974C15.7471 114.553 15.8197 114.172 15.9584 113.821L14.0983 113.086C13.862 113.684 13.7471 114.316 13.7471 114.974H15.7471ZM16.3818 113.974H14.7471V115.974H16.3818V113.974ZM15.5758 113.597C15.4419 114.031 15.3818 114.493 15.3818 114.974H17.3818C17.3818 114.658 17.4214 114.399 17.4867 114.188L15.5758 113.597ZM16.2615 112.398C15.9484 112.738 15.7255 113.14 15.5809 113.582L17.4816 114.204C17.5479 114.001 17.6356 113.858 17.7326 113.753L16.2615 112.398ZM17.4109 111.618C16.9715 111.792 16.5824 112.05 16.2623 112.397L17.7319 113.753C17.8336 113.643 17.966 113.549 18.1477 113.478L17.4109 111.618ZM18.8955 111.363C18.3747 111.363 17.8745 111.438 17.4169 111.616L18.1417 113.48C18.3169 113.412 18.5608 113.363 18.8955 113.363V111.363ZM20.2439 111.635C19.8206 111.446 19.3646 111.363 18.8955 111.363V113.363C19.1296 113.363 19.3005 113.404 19.428 113.461L20.2439 111.635ZM21.2754 112.345C20.9781 112.03 20.6209 111.792 20.2206 111.625L19.4513 113.471C19.6135 113.539 19.7309 113.622 19.8203 113.717L21.2754 112.345ZM21.9387 113.427C21.7932 113.016 21.5691 112.647 21.2651 112.334L19.8306 113.728C19.925 113.825 19.9998 113.943 20.0535 114.095L21.9387 113.427ZM22.1543 114.648C22.1543 114.219 22.0822 113.801 21.93 113.403L20.0622 114.118C20.1209 114.272 20.1543 114.445 20.1543 114.648H22.1543ZM22.025 115.658C22.1114 115.328 22.1543 114.991 22.1543 114.648H20.1543C20.1543 114.822 20.1327 114.989 20.0902 115.151L22.025 115.658ZM21.6075 116.662C21.7892 116.333 21.9333 116 22.0235 115.663L20.0918 115.145C20.053 115.29 19.9803 115.471 19.8574 115.694L21.6075 116.662ZM20.9138 117.681C21.1873 117.332 21.4198 116.994 21.603 116.67L19.8619 115.686C19.7403 115.901 19.5686 116.155 19.3382 116.45L20.9138 117.681ZM19.9283 118.842C20.3137 118.415 20.6433 118.027 20.9138 117.681L19.3382 116.45C19.1047 116.748 18.8074 117.099 18.4428 117.503L19.9283 118.842ZM15.7365 123.5L19.9288 118.842L18.4423 117.504L14.2499 122.162L15.7365 123.5ZM62.1768 125H63.8027V123H62.1768V125ZM61.1768 113.277V124H63.1768V113.277H61.1768ZM59.1838 115.486L62.5324 114.212L61.8211 112.343L58.4724 113.617L59.1838 115.486ZM57.8281 113.066V114.552H59.8281V113.066H57.8281ZM63.3118 110.27L58.469 112.133L59.1872 114L64.03 112.136L63.3118 110.27ZM63.8027 110.203H63.6709V112.203H63.8027V110.203ZM64.8027 124V111.203H62.8027V124H64.8027ZM17.7457 137.097L17.7457 137L15.7457 137L15.7457 137.097L17.7457 137.097ZM17.9372 141.836C17.7489 140.706 17.7457 139.174 17.7457 137.097L15.7457 137.097C15.7457 139.104 15.7424 140.833 15.9644 142.165L17.9372 141.836ZM19.2775 144.188C18.5127 143.719 18.129 142.986 17.9372 141.836L15.9644 142.165C16.2067 143.618 16.7813 145.005 18.2335 145.893L19.2775 144.188ZM22.9155 144.945C21.1937 144.859 20.0439 144.657 19.2775 144.188L18.2335 145.893C19.4746 146.653 21.0906 146.857 22.8159 146.943L22.9155 144.945ZM28.0885 145.003C25.9463 145.008 24.2523 145.012 22.9155 144.945L22.8159 146.943C24.2169 147.013 25.9713 147.008 28.0933 147.003L28.0885 145.003ZM28.0911 145.003H28.0909V147.003H28.0911V145.003ZM30 145C29.3289 145 28.6918 145.002 28.0886 145.003L28.0935 147.003C28.6969 147.002 29.3316 147 30 147V145ZM36.0702 145.18C34.5936 145 32.6246 145 30 145V147C32.6787 147 34.5016 147.004 35.8286 147.165L36.0702 145.18ZM39.1874 146.438C38.5312 145.719 37.547 145.359 36.0702 145.18L35.8286 147.165C37.1514 147.326 37.5426 147.602 37.7104 147.786L39.1874 146.438ZM40.3359 149.852C40.1719 148.235 39.8439 147.157 39.1874 146.438L37.7104 147.786C37.9125 148.007 38.1916 148.531 38.3461 150.053L40.3359 149.852ZM40.4943 153.924C40.4827 152.294 40.4477 150.954 40.3359 149.852L38.3461 150.053C38.4476 151.054 38.4828 152.312 38.4944 153.938L40.4943 153.924ZM34.2853 150.136L38.7872 154.638L40.2014 153.224L35.6995 148.722L34.2853 150.136ZM34.2848 150.136L34.2853 150.136L35.6995 148.722C35.2708 148.293 34.6945 148.1 34.1365 148.142L34.2848 150.136ZM34.136 150.136L34.1365 150.136L34.2848 148.142C33.7268 148.1 33.1505 148.293 32.7218 148.722L34.136 150.136ZM34.136 150.136V150.136L32.7218 148.722C31.9408 149.503 31.9408 150.769 32.7218 151.55L34.136 150.136ZM40.5 156.5L34.136 150.136L32.7218 151.55L39.0858 157.914L40.5 156.5ZM40.5004 156.5L40.5 156.5L39.0858 157.914C39.5144 158.343 40.0907 158.536 40.6488 158.494L40.5004 156.5ZM40.6492 156.5L40.6488 156.5L40.5004 158.494C41.0585 158.536 41.6348 158.343 42.0634 157.914L40.6492 156.5ZM47.0132 150.136L40.6492 156.5L42.0634 157.914L48.4274 151.55L47.0132 150.136ZM47.0132 150.136V150.136L48.4274 151.55C49.2085 150.769 49.2085 149.503 48.4274 148.722L47.0132 150.136ZM47.0128 150.136L47.0132 150.136L48.4274 148.722C47.9987 148.293 47.4225 148.1 46.8644 148.142L47.0128 150.136ZM46.864 150.136L46.8644 150.136L47.0128 148.142C46.4547 148.1 45.8784 148.293 45.4497 148.722L46.864 150.136ZM42.362 154.638L46.8639 150.136L45.4497 148.722L40.9478 153.224L42.362 154.638ZM40.8133 149.852C40.7015 150.954 40.6665 152.294 40.6549 153.924L42.6549 153.938C42.6664 152.312 42.7016 151.054 42.8031 150.053L40.8133 149.852ZM41.9618 146.438C41.3053 147.157 40.9773 148.235 40.8133 149.852L42.8031 150.053C42.9576 148.531 43.2367 148.007 43.4388 147.786L41.9618 146.438ZM45.079 145.18C43.6022 145.359 42.618 145.719 41.9618 146.438L43.4388 147.786C43.6066 147.602 43.9978 147.326 45.3206 147.165L45.079 145.18ZM51.1492 145C48.5246 145 46.5556 145 45.079 145.18L45.3206 147.165C46.6476 147.004 48.4705 147 51.1492 147V145ZM53.0597 145.003C52.458 145.002 51.8213 145 51.1492 145V147C51.8185 147 52.4529 147.002 53.0548 147.003L53.0597 145.003ZM53.0578 145.003H53.0572V147.003H53.0578V145.003ZM58.1707 144.945C56.8642 145.012 55.1931 145.008 53.0602 145.003L53.0554 147.003C55.1672 147.008 56.9004 147.013 58.2725 146.943L58.1707 144.945ZM61.67 144.188C60.9539 144.657 59.8544 144.859 58.1707 144.945L58.2725 146.943C59.9517 146.857 61.553 146.655 62.766 145.86L61.67 144.188ZM62.8716 141.836C62.7177 142.986 62.3844 143.719 61.67 144.188L62.766 145.86C64.1874 144.929 64.6668 143.5 64.8539 142.101L62.8716 141.836ZM63.0009 137.787C63.004 139.528 63.0042 140.844 62.8716 141.836L64.8539 142.101C65.0086 140.944 65.0039 139.47 65.0009 137.783L63.0009 137.787ZM63 137C63 137.27 63.0005 137.532 63.0009 137.787L65.0009 137.783C65.0005 137.529 65 137.268 65 137H63ZM62 138H64V136H62V138ZM63.0007 137.784C63.0003 137.533 63 137.272 63 137H61C61 137.274 61.0003 137.536 61.0007 137.787L63.0007 137.784ZM62.8716 141.836C63.007 140.823 63.003 139.503 63.0007 137.784L61.0007 137.787C61.0031 139.567 61.0025 140.724 60.8892 141.571L62.8716 141.836ZM61.67 144.188C62.3834 143.72 62.7174 142.988 62.8716 141.836L60.8892 141.571C60.8281 142.027 60.7494 142.258 60.6915 142.374C60.6479 142.462 60.6162 142.487 60.5739 142.515L61.67 144.188ZM58.1707 144.945C59.8537 144.86 60.9537 144.657 61.67 144.188L60.5739 142.515C60.3574 142.656 59.7646 142.861 58.0688 142.948L58.1707 144.945ZM53.1012 145.003C55.1983 145.008 56.8569 145.012 58.1707 144.945L58.0688 142.948C56.8208 143.012 55.2246 143.008 53.106 143.003L53.1012 145.003ZM53.1028 145.003H53.1036V143.003H53.1028V145.003ZM51.1492 145C51.8414 145 52.4904 145.002 53.1004 145.003L53.1052 143.003C52.4954 143.002 51.8441 143 51.1492 143V145ZM51.0773 145H51.1492V143H51.0773V145ZM45.079 145.18C46.5415 145.002 48.4879 145 51.0773 145L51.0773 143C48.5386 143 46.4488 142.998 44.8374 143.194L45.079 145.18ZM41.9618 146.438C42.618 145.719 43.6023 145.359 45.079 145.18L44.8374 143.194C43.2077 143.393 41.6298 143.835 40.4849 145.089L41.9618 146.438ZM41.4666 147.164C41.6063 146.888 41.7697 146.648 41.9618 146.438L40.4849 145.089C40.1591 145.446 39.8959 145.839 39.6826 146.26L41.4666 147.164ZM39.1874 146.438C39.3795 146.648 39.5429 146.888 39.6826 147.164L41.4666 146.26C41.2533 145.839 40.9901 145.446 40.6643 145.089L39.1874 146.438ZM36.0702 145.18C37.5469 145.359 38.5312 145.719 39.1874 146.438L40.6643 145.089C39.5195 143.835 37.9416 143.393 36.3118 143.194L36.0702 145.18ZM30.072 145C32.6613 145 34.6077 145.002 36.0702 145.18L36.3118 143.194C34.7004 142.998 32.6106 143 30.0719 143L30.072 145ZM30 145H30.072V143H30V145ZM28.0492 145.003C28.6605 145.002 29.3094 145 30 145V143C29.3067 143 28.6555 143.002 28.0445 143.003L28.0492 145.003ZM28.0465 145.003H28.0469V143.003H28.0465V145.003ZM22.9155 144.945C24.2593 145.012 25.941 145.008 28.0489 145.003L28.0442 143.003C25.9157 143.008 24.2947 143.012 23.0151 142.948L22.9155 144.945ZM19.2775 144.188C20.0441 144.657 21.1942 144.859 22.9155 144.945L23.0151 142.948C21.2906 142.862 20.611 142.659 20.3216 142.482L19.2775 144.188ZM17.9372 141.836C18.0303 142.394 18.1696 142.87 18.393 143.268C18.6296 143.69 18.9339 143.977 19.2775 144.188L20.3216 142.482C20.2418 142.433 20.1911 142.386 20.1371 142.29C20.0698 142.17 19.9828 141.944 19.91 141.507L17.9372 141.836ZM17.7457 137C17.7457 139.124 17.7457 140.687 17.9372 141.836L19.91 141.507C19.7524 140.562 19.7457 139.201 19.7457 137L17.7457 137ZM16.7457 138H18.7457V136H16.7457V138Z" fill="white" mask="url(#path-5-outside-3)"/>
</svg>
