<svg width="119" height="106" viewBox="0 0 119 106" fill="none" xmlns="http://www.w3.org/2000/svg">
<mask id="path-1-outside-1" maskUnits="userSpaceOnUse" x="6" y="0" width="23" height="47" fill="black">
<rect fill="white" x="6" width="23" height="47"/>
<path fill-rule="evenodd" clip-rule="evenodd" d="M27 11.5C27 16.7467 22.7467 21 17.5 21C12.2533 21 8 16.7467 8 11.5C8 6.25329 12.2533 2 17.5 2C22.7467 2 27 6.25329 27 11.5ZM28 11.5C28 17.299 23.299 22 17.5 22C11.701 22 7 17.299 7 11.5C7 5.70101 11.701 1 17.5 1C23.299 1 28 5.70101 28 11.5ZM27 35.5C27 40.7467 22.7467 45 17.5 45C12.2533 45 8 40.7467 8 35.5C8 30.2533 12.2533 26 17.5 26C22.7467 26 27 30.2533 27 35.5ZM28 35.5C28 41.299 23.299 46 17.5 46C11.701 46 7 41.299 7 35.5C7 29.701 11.701 25 17.5 25C23.299 25 28 29.701 28 35.5Z"/>
</mask>
<path fill-rule="evenodd" clip-rule="evenodd" d="M27 11.5C27 16.7467 22.7467 21 17.5 21C12.2533 21 8 16.7467 8 11.5C8 6.25329 12.2533 2 17.5 2C22.7467 2 27 6.25329 27 11.5ZM28 11.5C28 17.299 23.299 22 17.5 22C11.701 22 7 17.299 7 11.5C7 5.70101 11.701 1 17.5 1C23.299 1 28 5.70101 28 11.5ZM27 35.5C27 40.7467 22.7467 45 17.5 45C12.2533 45 8 40.7467 8 35.5C8 30.2533 12.2533 26 17.5 26C22.7467 26 27 30.2533 27 35.5ZM28 35.5C28 41.299 23.299 46 17.5 46C11.701 46 7 41.299 7 35.5C7 29.701 11.701 25 17.5 25C23.299 25 28 29.701 28 35.5Z" fill="#C84646"/>
<path d="M17.5 22C23.299 22 28 17.299 28 11.5H26C26 16.1944 22.1944 20 17.5 20V22ZM7 11.5C7 17.299 11.701 22 17.5 22V20C12.8056 20 9 16.1944 9 11.5H7ZM17.5 1C11.701 1 7 5.70101 7 11.5H9C9 6.80558 12.8056 3 17.5 3V1ZM28 11.5C28 5.70101 23.299 1 17.5 1V3C22.1944 3 26 6.80558 26 11.5H28ZM17.5 23C23.8513 23 29 17.8513 29 11.5H27C27 16.7467 22.7467 21 17.5 21V23ZM6 11.5C6 17.8513 11.1487 23 17.5 23V21C12.2533 21 8 16.7467 8 11.5H6ZM17.5 0C11.1487 0 6 5.14873 6 11.5H8C8 6.25329 12.2533 2 17.5 2V0ZM29 11.5C29 5.14873 23.8513 0 17.5 0V2C22.7467 2 27 6.25329 27 11.5H29ZM17.5 46C23.299 46 28 41.299 28 35.5H26C26 40.1944 22.1944 44 17.5 44V46ZM7 35.5C7 41.299 11.701 46 17.5 46V44C12.8056 44 9 40.1944 9 35.5H7ZM17.5 25C11.701 25 7 29.701 7 35.5H9C9 30.8056 12.8056 27 17.5 27V25ZM28 35.5C28 29.701 23.299 25 17.5 25V27C22.1944 27 26 30.8056 26 35.5H28ZM17.5 47C23.8513 47 29 41.8513 29 35.5H27C27 40.7467 22.7467 45 17.5 45V47ZM6 35.5C6 41.8513 11.1487 47 17.5 47V45C12.2533 45 8 40.7467 8 35.5H6ZM17.5 24C11.1487 24 6 29.1487 6 35.5H8C8 30.2533 12.2533 26 17.5 26V24ZM29 35.5C29 29.1487 23.8513 24 17.5 24V26C22.7467 26 27 30.2533 27 35.5H29Z" fill="white" mask="url(#path-1-outside-1)"/>
<mask id="path-3-outside-2" maskUnits="userSpaceOnUse" x="29.041" y="58.0371" width="62" height="29" fill="black">
<rect fill="white" x="29.041" y="58.0371" width="62" height="29"/>
<path fill-rule="evenodd" clip-rule="evenodd" d="M88.5625 79.6387C88.9492 78.373 89.1426 76.9141 89.1426 75.2617V69.1445C89.1426 67.4922 88.9492 66.0391 88.5625 64.7852C88.1758 63.5195 87.6191 62.4648 86.8926 61.6211C86.1777 60.7656 85.3047 60.1211 84.2734 59.6875C83.2422 59.2539 82.082 59.0371 80.793 59.0371C79.5156 59.0371 78.3613 59.2539 77.3301 59.6875C76.3105 60.1211 75.4375 60.7656 74.7109 61.6211C73.9961 62.4648 73.4453 63.5195 73.0586 64.7852C72.6719 66.0391 72.4785 67.4922 72.4785 69.1445V75.2617C72.4785 76.9141 72.6719 78.373 73.0586 79.6387C73.457 80.8926 74.0137 81.9473 74.7285 82.8027C75.4551 83.6465 76.334 84.2852 77.3652 84.7188C78.3965 85.1523 79.5508 85.3691 80.8281 85.3691C82.1172 85.3691 83.2773 85.1523 84.3086 84.7188C85.3398 84.2852 86.2129 83.6465 86.9277 82.8027C87.6426 81.9473 88.1875 80.8926 88.5625 79.6387ZM84.2207 68.0723L77.4004 73.1523V68.3711C77.4004 66.543 77.6816 65.1895 78.2441 64.3105C78.8066 63.4316 79.6562 62.9922 80.793 62.9922C81.918 62.9922 82.7617 63.4082 83.3242 64.2402C83.8867 65.0723 84.1855 66.3496 84.2207 68.0723ZM77.4004 76.457L84.2207 71.3945V76C84.2207 77.8398 83.9395 79.2051 83.377 80.0957C82.8262 80.9863 81.9766 81.4316 80.8281 81.4316C79.7266 81.4316 78.8945 81.0273 78.332 80.2188C77.7695 79.3984 77.459 78.1445 77.4004 76.457ZM36.5098 85H41.4492V59.4062H41.1855L30.041 63.4316V67.6855L36.5098 65.3652V85Z"/>
</mask>
<path fill-rule="evenodd" clip-rule="evenodd" d="M88.5625 79.6387C88.9492 78.373 89.1426 76.9141 89.1426 75.2617V69.1445C89.1426 67.4922 88.9492 66.0391 88.5625 64.7852C88.1758 63.5195 87.6191 62.4648 86.8926 61.6211C86.1777 60.7656 85.3047 60.1211 84.2734 59.6875C83.2422 59.2539 82.082 59.0371 80.793 59.0371C79.5156 59.0371 78.3613 59.2539 77.3301 59.6875C76.3105 60.1211 75.4375 60.7656 74.7109 61.6211C73.9961 62.4648 73.4453 63.5195 73.0586 64.7852C72.6719 66.0391 72.4785 67.4922 72.4785 69.1445V75.2617C72.4785 76.9141 72.6719 78.373 73.0586 79.6387C73.457 80.8926 74.0137 81.9473 74.7285 82.8027C75.4551 83.6465 76.334 84.2852 77.3652 84.7188C78.3965 85.1523 79.5508 85.3691 80.8281 85.3691C82.1172 85.3691 83.2773 85.1523 84.3086 84.7188C85.3398 84.2852 86.2129 83.6465 86.9277 82.8027C87.6426 81.9473 88.1875 80.8926 88.5625 79.6387ZM84.2207 68.0723L77.4004 73.1523V68.3711C77.4004 66.543 77.6816 65.1895 78.2441 64.3105C78.8066 63.4316 79.6562 62.9922 80.793 62.9922C81.918 62.9922 82.7617 63.4082 83.3242 64.2402C83.8867 65.0723 84.1855 66.3496 84.2207 68.0723ZM77.4004 76.457L84.2207 71.3945V76C84.2207 77.8398 83.9395 79.2051 83.377 80.0957C82.8262 80.9863 81.9766 81.4316 80.8281 81.4316C79.7266 81.4316 78.8945 81.0273 78.332 80.2188C77.7695 79.3984 77.459 78.1445 77.4004 76.457ZM36.5098 85H41.4492V59.4062H41.1855L30.041 63.4316V67.6855L36.5098 65.3652V85Z" fill="#C84646"/>
<path d="M88.5625 79.6387L87.6061 79.3464L87.6044 79.3521L88.5625 79.6387ZM88.5625 64.7852L87.6061 65.0774L87.6069 65.0799L88.5625 64.7852ZM86.8926 61.6211L86.1252 62.2623L86.13 62.268L86.1348 62.2736L86.8926 61.6211ZM77.3301 59.6875L76.9425 58.7657L76.9387 58.7673L77.3301 59.6875ZM74.7109 61.6211L73.9487 60.9737L73.948 60.9747L74.7109 61.6211ZM73.0586 64.7852L74.0142 65.0799L74.0149 65.0774L73.0586 64.7852ZM73.0586 79.6387L72.1022 79.9309L72.1056 79.9415L73.0586 79.6387ZM74.7285 82.8027L73.9612 83.444L73.9659 83.4496L73.9707 83.4553L74.7285 82.8027ZM86.9277 82.8027L87.6907 83.4492L87.6951 83.444L86.9277 82.8027ZM77.4004 73.1523H76.4004V75.1441L77.9977 73.9543L77.4004 73.1523ZM84.2207 68.0723L84.8181 68.8742L85.231 68.5667L85.2205 68.0519L84.2207 68.0723ZM84.2207 71.3945H85.2207V69.4069L83.6247 70.5916L84.2207 71.3945ZM77.4004 76.457L76.8044 75.6541L76.3828 75.967L76.401 76.4917L77.4004 76.457ZM83.377 80.0957L82.5314 79.5617L82.5264 79.5697L83.377 80.0957ZM78.332 80.2188L77.5073 80.7843L77.5111 80.7898L78.332 80.2188ZM41.4492 85V86H42.4492V85H41.4492ZM36.5098 85H35.5098V86H36.5098V85ZM41.4492 59.4062H42.4492V58.4062H41.4492V59.4062ZM41.1855 59.4062V58.4062H41.0105L40.8458 58.4657L41.1855 59.4062ZM30.041 63.4316L29.7013 62.4911L29.041 62.7296V63.4316H30.041ZM30.041 67.6855H29.041V69.1066L30.3786 68.6268L30.041 67.6855ZM36.5098 65.3652H37.5098V63.9442L36.1721 64.424L36.5098 65.3652ZM88.1426 75.2617C88.1426 76.8385 87.9578 78.1956 87.6061 79.3465L89.5189 79.9309C89.9407 78.5504 90.1426 76.9896 90.1426 75.2617H88.1426ZM88.1426 69.1445V75.2617H90.1426V69.1445H88.1426ZM87.6069 65.0799C87.9577 66.2173 88.1426 67.5674 88.1426 69.1445H90.1426C90.1426 67.4169 89.9407 65.8608 89.5181 64.4904L87.6069 65.0799ZM86.1348 62.2736C86.7555 62.9944 87.2524 63.9197 87.6061 65.0774L89.5189 64.4929C89.0991 63.1194 88.4828 61.9352 87.6503 60.9686L86.1348 62.2736ZM83.8858 60.6093C84.7705 60.9813 85.5131 61.5298 86.1252 62.2623L87.6599 60.9799C86.8423 60.0015 85.8389 59.2609 84.661 58.7657L83.8858 60.6093ZM80.793 60.0371C81.969 60.0371 82.9946 60.2346 83.8858 60.6093L84.661 58.7657C83.4898 58.2732 82.195 58.0371 80.793 58.0371V60.0371ZM77.7177 60.6093C78.61 60.2341 79.63 60.0371 80.793 60.0371V58.0371C79.4013 58.0371 78.1126 58.2737 76.9425 58.7657L77.7177 60.6093ZM75.4731 62.2684C76.1004 61.5299 76.847 60.9796 77.7214 60.6077L76.9387 58.7673C75.7741 59.2626 74.7746 60.0013 73.9487 60.9737L75.4731 62.2684ZM74.0149 65.0774C74.3696 63.9166 74.8624 62.9893 75.4739 62.2675L73.948 60.9747C73.1297 61.9404 72.521 63.1224 72.1022 64.4929L74.0149 65.0774ZM73.4785 69.1445C73.4785 67.5674 73.6634 66.2173 74.0142 65.0799L72.103 64.4904C71.6804 65.8608 71.4785 67.4169 71.4785 69.1445H73.4785ZM73.4785 75.2617V69.1445H71.4785V75.2617H73.4785ZM74.0149 79.3465C73.6633 78.1956 73.4785 76.8385 73.4785 75.2617H71.4785C71.4785 76.9896 71.6804 78.5504 72.1022 79.9309L74.0149 79.3465ZM75.4959 82.1615C74.8779 81.422 74.3777 80.4879 74.0116 79.3358L72.1056 79.9415C72.5364 81.2973 73.1495 82.4726 73.9612 83.444L75.4959 82.1615ZM77.7528 83.7969C76.8634 83.423 76.1114 82.8762 75.4863 82.1502L73.9707 83.4553C74.7987 84.4168 75.8045 85.1473 76.9776 85.6406L77.7528 83.7969ZM80.8281 84.3691C79.6651 84.3691 78.6452 84.1721 77.7528 83.7969L76.9776 85.6406C78.1478 86.1326 79.4364 86.3691 80.8281 86.3691V84.3691ZM83.921 83.7969C83.0297 84.1717 82.0042 84.3691 80.8281 84.3691V86.3691C82.2302 86.3691 83.525 86.133 84.6962 85.6406L83.921 83.7969ZM86.1648 82.1563C85.5528 82.8786 84.8089 83.4236 83.921 83.7969L84.6962 85.6406C85.8707 85.1467 86.8729 84.4144 87.6907 83.4492L86.1648 82.1563ZM87.6044 79.3521C87.2616 80.4984 86.7745 81.4266 86.1604 82.1615L87.6951 83.444C88.5107 82.4679 89.1134 81.2867 89.5206 79.9252L87.6044 79.3521ZM77.9977 73.9543L84.8181 68.8742L83.6234 67.2703L76.803 72.3504L77.9977 73.9543ZM76.4004 68.3711V73.1523H78.4004V68.3711H76.4004ZM77.4019 63.7715C76.6848 64.8919 76.4004 66.4777 76.4004 68.3711H78.4004C78.4004 66.6082 78.6784 65.487 79.0864 64.8496L77.4019 63.7715ZM80.793 61.9922C79.3516 61.9922 78.1669 62.5761 77.4019 63.7715L79.0864 64.8496C79.4463 64.2872 79.9609 63.9922 80.793 63.9922V61.9922ZM84.1527 63.6802C83.3795 62.5365 82.2033 61.9922 80.793 61.9922V63.9922C81.6326 63.9922 82.144 64.2799 82.4958 64.8003L84.1527 63.6802ZM85.2205 68.0519C85.1839 66.2585 84.8755 64.7494 84.1527 63.6802L82.4958 64.8003C82.8979 65.3951 83.1872 66.4407 83.2209 68.0927L85.2205 68.0519ZM83.6247 70.5916L76.8044 75.6541L77.9964 77.26L84.8167 72.1975L83.6247 70.5916ZM85.2207 76V71.3945H83.2207V76H85.2207ZM84.2224 80.6297C84.9361 79.4997 85.2207 77.9053 85.2207 76H83.2207C83.2207 77.7744 82.9428 78.9104 82.5315 79.5617L84.2224 80.6297ZM80.8281 82.4316C82.2829 82.4316 83.4743 81.8396 84.2275 80.6217L82.5264 79.5697C82.1781 80.1331 81.6702 80.4316 80.8281 80.4316V82.4316ZM77.5111 80.7898C78.2849 81.9022 79.4443 82.4316 80.8281 82.4316V80.4316C80.0088 80.4316 79.5041 80.1525 79.1529 79.6477L77.5111 80.7898ZM76.401 76.4917C76.4621 78.2516 76.786 79.7324 77.5073 80.7843L79.1568 79.6532C78.7531 79.0645 78.4559 78.0375 78.3998 76.4223L76.401 76.4917ZM41.4492 84H36.5098V86H41.4492V84ZM40.4492 59.4062V85H42.4492V59.4062H40.4492ZM41.1855 60.4062H41.4492V58.4062H41.1855V60.4062ZM30.3807 64.3722L41.5253 60.3468L40.8458 58.4657L29.7013 62.4911L30.3807 64.3722ZM31.041 67.6855V63.4316H29.041V67.6855H31.041ZM36.1721 64.424L29.7034 66.7443L30.3786 68.6268L36.8474 66.3065L36.1721 64.424ZM37.5098 85V65.3652H35.5098V85H37.5098Z" fill="white" mask="url(#path-3-outside-2)"/>
<mask id="path-5-outside-3" maskUnits="userSpaceOnUse" x="12.2744" y="4.01855" width="100" height="95" fill="black">
<rect fill="white" x="12.2744" y="4.01855" width="100" height="95"/>
<path fill-rule="evenodd" clip-rule="evenodd" d="M21.5625 13.1045C21.5625 13.9189 21.4688 14.6426 21.2812 15.2754C21.0938 15.9023 20.8242 16.4326 20.4727 16.8662C20.1211 17.2939 19.6904 17.6191 19.1807 17.8418C18.6709 18.0645 18.0879 18.1758 17.4316 18.1758C16.7812 18.1758 16.1982 18.0645 15.6826 17.8418C15.1729 17.6191 14.7393 17.2939 14.3818 16.8662C14.0244 16.4326 13.749 15.9023 13.5557 15.2754C13.3682 14.6426 13.2744 13.9189 13.2744 13.1045V10.1074C13.2744 9.29297 13.3682 8.57227 13.5557 7.94531C13.7432 7.3125 14.0127 6.7793 14.3643 6.3457C14.7217 5.91211 15.1553 5.58398 15.665 5.36133C16.1807 5.13281 16.7637 5.01855 17.4141 5.01855C18.0703 5.01855 18.6533 5.13281 19.1631 5.36133C19.6787 5.58398 20.1123 5.91211 20.4639 6.3457C20.8213 6.7793 21.0938 7.3125 21.2812 7.94531C21.4688 8.57227 21.5625 9.29297 21.5625 10.1074V13.1045ZM14.9092 12.7793L19.8926 8.95605C19.7988 8.10645 19.5498 7.46191 19.1455 7.02246C18.7471 6.57715 18.1699 6.35449 17.4141 6.35449C16.5586 6.35449 15.9258 6.64453 15.5156 7.22461C15.1113 7.79883 14.9092 8.63965 14.9092 9.74707V12.7793ZM19.9277 10.5117L14.9531 14.3174C15.0527 15.1436 15.3076 15.7734 15.7178 16.207C16.1279 16.6406 16.6992 16.8574 17.4316 16.8574C18.293 16.8574 18.9229 16.5645 19.3213 15.9785C19.7256 15.3926 19.9277 14.5488 19.9277 13.4473V10.5117ZM17.1768 42H18.8027V29.2031H18.6709L13.8281 31.0664V32.5518L17.1768 31.2773V42ZM38.9932 19V17.8311L43.1855 13.1729C43.5605 12.7568 43.874 12.3877 44.126 12.0654C44.3779 11.7432 44.5801 11.4473 44.7324 11.1777C44.8848 10.9023 44.9932 10.6445 45.0576 10.4043C45.1221 10.1582 45.1543 9.90625 45.1543 9.64844C45.1543 9.33203 45.1016 9.03613 44.9961 8.76074C44.8965 8.47949 44.7471 8.23633 44.5479 8.03125C44.3545 7.82617 44.1172 7.66504 43.8359 7.54785C43.5605 7.4248 43.2471 7.36328 42.8955 7.36328C42.4678 7.36328 42.0957 7.4248 41.7793 7.54785C41.4688 7.6709 41.208 7.84668 40.9971 8.0752C40.792 8.29785 40.6367 8.57031 40.5312 8.89258C40.4316 9.21484 40.3818 9.5752 40.3818 9.97363H38.7471C38.7471 9.43457 38.8408 8.92773 39.0283 8.45312C39.2158 7.97266 39.4854 7.55371 39.8369 7.19629C40.1943 6.83887 40.6279 6.55469 41.1377 6.34375C41.6533 6.13281 42.2393 6.02734 42.8955 6.02734C43.499 6.02734 44.041 6.11816 44.5215 6.2998C45.0078 6.47559 45.418 6.72168 45.752 7.03809C46.0859 7.35449 46.3408 7.72949 46.5166 8.16309C46.6982 8.59668 46.7891 9.06836 46.7891 9.57812C46.7891 9.95898 46.7246 10.3369 46.5957 10.7119C46.4668 11.0811 46.291 11.4473 46.0684 11.8105C45.8516 12.1738 45.5967 12.5342 45.3037 12.8916C45.0166 13.2432 44.7119 13.5947 44.3896 13.9463L40.9531 17.6729H47.3779V19H38.9932ZM42.5879 35.8193H41.4277V37.1377H42.5879C42.9922 37.1377 43.3613 37.1846 43.6953 37.2783C44.0352 37.3721 44.3223 37.5156 44.5566 37.709C44.7969 37.9023 44.9814 38.1455 45.1104 38.4385C45.2451 38.7256 45.3125 39.0684 45.3125 39.4668C45.3125 39.8711 45.2539 40.2227 45.1367 40.5215C45.0254 40.8145 44.8643 41.0605 44.6533 41.2598C44.4424 41.459 44.1875 41.6084 43.8887 41.708C43.5898 41.8018 43.2559 41.8486 42.8867 41.8486C42.5176 41.8486 42.1807 41.7959 41.876 41.6904C41.5771 41.585 41.3223 41.4355 41.1113 41.2422C40.9004 41.0488 40.7363 40.8145 40.6191 40.5391C40.5078 40.2637 40.4521 39.959 40.4521 39.625H38.8262C38.8262 40.1875 38.9316 40.6885 39.1426 41.1279C39.3594 41.5674 39.6494 41.9395 40.0127 42.2441C40.376 42.5488 40.8037 42.7803 41.2959 42.9385C41.7939 43.0967 42.3242 43.1758 42.8867 43.1758C43.4609 43.1758 43.9941 43.0938 44.4863 42.9297C44.9844 42.7598 45.415 42.5166 45.7783 42.2002C46.1416 41.8779 46.4258 41.4854 46.6309 41.0225C46.8359 40.5596 46.9385 40.0293 46.9385 39.4316C46.9385 39.1387 46.9033 38.8428 46.833 38.5439C46.7686 38.2451 46.6514 37.9609 46.4814 37.6914C46.3174 37.4219 46.0947 37.1787 45.8135 36.9619C45.5381 36.7451 45.1924 36.5693 44.7764 36.4346C45.1221 36.2881 45.418 36.1064 45.6641 35.8896C45.916 35.667 46.1211 35.4326 46.2793 35.1865C46.4375 34.9346 46.5547 34.6768 46.6309 34.4131C46.707 34.1494 46.7451 33.8945 46.7451 33.6484C46.7451 33.0566 46.6514 32.5352 46.4639 32.084C46.2764 31.6328 46.0127 31.2549 45.6729 30.9502C45.333 30.6455 44.9258 30.417 44.4512 30.2646C43.9766 30.1064 43.4521 30.0273 42.8779 30.0273C42.2861 30.0273 41.7471 30.1211 41.2607 30.3086C40.7803 30.4902 40.3672 30.7422 40.0215 31.0645C39.6758 31.3809 39.4062 31.7559 39.2129 32.1895C39.0254 32.6172 38.9316 33.0742 38.9316 33.5605H40.5664C40.5664 33.2266 40.6221 32.9248 40.7334 32.6553C40.8447 32.3857 41 32.1543 41.1992 31.9609C41.4043 31.7676 41.6475 31.6211 41.9287 31.5215C42.2158 31.416 42.5322 31.3633 42.8779 31.3633C43.6104 31.3633 44.167 31.5537 44.5479 31.9346C44.9287 32.3096 45.1191 32.8691 45.1191 33.6133C45.1191 33.9355 45.0635 34.2314 44.9521 34.501C44.8408 34.7705 44.6768 35.002 44.46 35.1953C44.249 35.3887 43.9854 35.541 43.6689 35.6523C43.3584 35.7637 42.998 35.8193 42.5879 35.8193ZM67.1211 14.7021H68.9053V16.0293H67.1211V19H65.4951V16.0293H59.6592V15.0713L65.3896 6.20312H67.1211V14.7021ZM61.4609 14.7021H65.4951V8.36523L65.2314 8.85742L61.4609 14.7021ZM61.751 30.2031L61.1094 36.584L62.4102 36.918C62.5566 36.7891 62.6973 36.6748 62.832 36.5752C62.9727 36.4756 63.1221 36.3906 63.2803 36.3203C63.4385 36.25 63.6143 36.1973 63.8076 36.1621C64.0068 36.1211 64.2412 36.1006 64.5107 36.1006C64.9209 36.1006 65.2842 36.1738 65.6006 36.3203C65.917 36.4668 66.1836 36.6689 66.4004 36.9268C66.6172 37.1787 66.7812 37.4775 66.8926 37.8232C67.0098 38.1689 67.0684 38.541 67.0684 38.9395C67.0684 39.3789 67.0156 39.7773 66.9102 40.1348C66.8105 40.4922 66.6582 40.7998 66.4531 41.0576C66.2539 41.3096 66.0049 41.5059 65.7061 41.6465C65.4072 41.7812 65.0645 41.8486 64.6777 41.8486C63.9922 41.8486 63.4297 41.6611 62.9902 41.2861C62.5566 40.9111 62.29 40.3604 62.1904 39.6338H60.6436C60.7021 40.2256 60.8457 40.7441 61.0742 41.1895C61.3086 41.6348 61.6045 42.0039 61.9619 42.2969C62.3252 42.5898 62.7383 42.8096 63.2012 42.9561C63.6641 43.1025 64.1562 43.1758 64.6777 43.1758C65.3574 43.1758 65.9492 43.0703 66.4531 42.8594C66.957 42.6426 67.373 42.3467 67.7012 41.9717C68.0352 41.5908 68.2842 41.1396 68.4482 40.6182C68.6123 40.0967 68.6943 39.5312 68.6943 38.9219C68.6943 38.2773 68.6064 37.6914 68.4307 37.1641C68.2549 36.6367 68.0029 36.1885 67.6748 35.8193C67.3467 35.4443 66.9482 35.1543 66.4795 34.9492C66.0107 34.7441 65.4805 34.6416 64.8887 34.6416C64.4258 34.6416 64.0186 34.6973 63.667 34.8086C63.3154 34.9199 63.0137 35.0488 62.7617 35.1953L63.1221 31.7852H68.3164V30.2031H61.751ZM87.5234 6.19434V7.65332H87.3828C86.8438 7.65332 86.3604 7.70898 85.9326 7.82031C85.5107 7.93164 85.1387 8.08398 84.8164 8.27734C84.4941 8.4707 84.2158 8.70215 83.9814 8.97168C83.7529 9.23535 83.5625 9.52539 83.4102 9.8418C83.2578 10.1582 83.1406 10.4893 83.0586 10.835C82.9766 11.1807 82.9238 11.5322 82.9004 11.8896C83.0527 11.708 83.2285 11.541 83.4277 11.3887C83.627 11.2305 83.8408 11.0957 84.0693 10.9844C84.3037 10.8672 84.5527 10.7764 84.8164 10.7119C85.0859 10.6416 85.3672 10.6064 85.6602 10.6064C86.2988 10.6064 86.8496 10.7295 87.3125 10.9756C87.7754 11.2158 88.1562 11.5352 88.4551 11.9336C88.7539 12.332 88.9736 12.7832 89.1143 13.2871C89.2549 13.791 89.3252 14.3037 89.3252 14.8252C89.3252 15.4229 89.2402 15.9854 89.0703 16.5127C88.9062 17.04 88.6572 17.5029 88.3232 17.9014C87.9893 18.2939 87.5732 18.6045 87.0752 18.833C86.583 19.0615 86.0117 19.1758 85.3613 19.1758C84.8984 19.1758 84.4736 19.1084 84.0869 18.9736C83.7061 18.8389 83.3633 18.6572 83.0586 18.4287C82.7539 18.1943 82.4873 17.9189 82.2588 17.6025C82.0303 17.2861 81.8398 16.9463 81.6875 16.583C81.541 16.2197 81.4297 15.8418 81.3535 15.4492C81.2773 15.0566 81.2393 14.6641 81.2393 14.2715V13.5068C81.2393 12.9209 81.2744 12.335 81.3447 11.749C81.4209 11.1572 81.5469 10.5918 81.7227 10.0527C81.8984 9.51367 82.1357 9.00977 82.4346 8.54102C82.7334 8.06641 83.1084 7.65625 83.5596 7.31055C84.0166 6.96484 84.5586 6.69238 85.1855 6.49316C85.8125 6.29395 86.5449 6.19434 87.3828 6.19434H87.5234ZM85.3965 11.96C85.1211 11.96 84.8545 12.0039 84.5967 12.0918C84.3389 12.1797 84.0986 12.3027 83.876 12.4609C83.6533 12.6191 83.457 12.8096 83.2871 13.0322C83.1172 13.2549 82.9824 13.501 82.8828 13.7705V14.3154C82.8828 14.8779 82.9502 15.3789 83.085 15.8184C83.2197 16.252 83.4014 16.6182 83.6299 16.917C83.8584 17.2158 84.1221 17.4443 84.4209 17.6025C84.7197 17.7549 85.0332 17.8311 85.3613 17.8311C85.7422 17.8311 86.0791 17.7578 86.3721 17.6113C86.665 17.4648 86.9111 17.2627 87.1104 17.0049C87.3154 16.7471 87.4678 16.4395 87.5674 16.082C87.6729 15.7188 87.7256 15.3262 87.7256 14.9043C87.7256 14.5293 87.6787 14.166 87.585 13.8145C87.4912 13.457 87.3477 13.1406 87.1543 12.8652C86.9609 12.5898 86.7178 12.3701 86.4248 12.2061C86.1318 12.042 85.7891 11.96 85.3965 11.96ZM84.333 43L89.6328 31.1172V30.2031H80.9844V31.627H87.9102L82.6279 43H84.333ZM109.886 11.248C109.546 11.7461 109.092 12.1357 108.523 12.417C108.852 12.5576 109.147 12.7334 109.411 12.9443C109.681 13.1494 109.909 13.3867 110.097 13.6562C110.29 13.9258 110.437 14.2188 110.536 14.5352C110.642 14.8516 110.694 15.1885 110.694 15.5459C110.694 16.126 110.586 16.6416 110.369 17.0928C110.158 17.5439 109.868 17.9248 109.499 18.2354C109.136 18.54 108.708 18.7744 108.216 18.9385C107.724 19.0967 107.196 19.1758 106.634 19.1758C106.06 19.1758 105.523 19.0967 105.025 18.9385C104.533 18.7803 104.103 18.5488 103.733 18.2441C103.37 17.9336 103.083 17.5527 102.872 17.1016C102.661 16.6504 102.556 16.1318 102.556 15.5459C102.556 15.1885 102.605 14.8516 102.705 14.5352C102.805 14.2129 102.948 13.9199 103.136 13.6562C103.323 13.3867 103.549 13.1465 103.812 12.9355C104.076 12.7246 104.372 12.5488 104.7 12.4082C104.419 12.2676 104.164 12.1006 103.936 11.9072C103.707 11.708 103.514 11.4883 103.355 11.248C103.197 11.002 103.074 10.7354 102.986 10.4482C102.898 10.1611 102.854 9.85938 102.854 9.54297C102.854 8.98633 102.948 8.49121 103.136 8.05762C103.323 7.61816 103.581 7.24902 103.909 6.9502C104.243 6.65137 104.639 6.42285 105.096 6.26465C105.559 6.10645 106.062 6.02734 106.607 6.02734C107.146 6.02734 107.647 6.10645 108.11 6.26465C108.573 6.42285 108.975 6.65137 109.314 6.9502C109.654 7.24902 109.921 7.61816 110.114 8.05762C110.308 8.49121 110.404 8.98633 110.404 9.54297C110.398 10.1816 110.226 10.75 109.886 11.248ZM109.068 15.5107C109.068 15.1533 109.007 14.8252 108.884 14.5264C108.767 14.2275 108.6 13.9727 108.383 13.7617C108.166 13.5449 107.905 13.3779 107.601 13.2607C107.302 13.1436 106.974 13.085 106.616 13.085C106.247 13.085 105.913 13.1436 105.614 13.2607C105.315 13.3779 105.061 13.5449 104.85 13.7617C104.639 13.9727 104.475 14.2275 104.357 14.5264C104.246 14.8252 104.19 15.1533 104.19 15.5107C104.19 15.8799 104.246 16.2109 104.357 16.5039C104.475 16.791 104.639 17.0342 104.85 17.2334C105.061 17.4326 105.315 17.585 105.614 17.6904C105.919 17.7959 106.259 17.8486 106.634 17.8486C106.991 17.8486 107.319 17.7959 107.618 17.6904C107.917 17.585 108.172 17.4326 108.383 17.2334C108.6 17.0342 108.767 16.791 108.884 16.5039C109.007 16.2109 109.068 15.8799 109.068 15.5107ZM108.77 9.56934C108.77 9.24707 108.714 8.95117 108.603 8.68164C108.497 8.41211 108.348 8.18066 108.154 7.9873C107.967 7.78809 107.741 7.63574 107.478 7.53027C107.214 7.41895 106.924 7.36328 106.607 7.36328C106.291 7.36328 106.004 7.41602 105.746 7.52148C105.488 7.62109 105.266 7.76758 105.078 7.96094C104.891 8.1543 104.744 8.38867 104.639 8.66406C104.539 8.93359 104.489 9.23535 104.489 9.56934C104.489 9.90332 104.539 10.2051 104.639 10.4746C104.744 10.7383 104.891 10.9668 105.078 11.1602C105.271 11.3477 105.497 11.4941 105.755 11.5996C106.019 11.6992 106.309 11.749 106.625 11.749C106.936 11.749 107.223 11.6992 107.486 11.5996C107.75 11.4941 107.976 11.3477 108.163 11.1602C108.356 10.9668 108.506 10.7354 108.611 10.4658C108.717 10.1963 108.77 9.89746 108.77 9.56934ZM106.95 40.9697C106.628 41.1572 106.247 41.3037 105.808 41.4092C105.368 41.5088 104.858 41.5586 104.278 41.5586H104.111V43.0088H104.278C105.163 43.0088 105.928 42.9062 106.572 42.7012C107.217 42.4961 107.765 42.2178 108.216 41.8662C108.667 41.5146 109.033 41.1045 109.314 40.6357C109.596 40.1611 109.812 39.6572 109.965 39.124C110.123 38.5908 110.229 38.04 110.281 37.4717C110.334 36.8975 110.36 36.3379 110.36 35.793V35.2041C110.36 34.7822 110.328 34.3633 110.264 33.9473C110.199 33.5254 110.097 33.124 109.956 32.7432C109.821 32.3564 109.646 31.999 109.429 31.6709C109.212 31.3369 108.951 31.0498 108.646 30.8096C108.348 30.5635 107.999 30.373 107.601 30.2383C107.208 30.0977 106.766 30.0273 106.273 30.0273C105.617 30.0273 105.04 30.1475 104.542 30.3877C104.05 30.6221 103.637 30.9414 103.303 31.3457C102.975 31.7441 102.726 32.2129 102.556 32.752C102.392 33.2852 102.31 33.8535 102.31 34.457C102.31 34.9727 102.38 35.4854 102.521 35.9951C102.661 36.5049 102.881 36.9619 103.18 37.3662C103.479 37.7705 103.856 38.0986 104.313 38.3506C104.776 38.5967 105.324 38.7197 105.957 38.7197C106.285 38.7197 106.587 38.6875 106.862 38.623C107.144 38.5527 107.398 38.459 107.627 38.3418C107.855 38.2246 108.061 38.0898 108.242 37.9375C108.424 37.7793 108.585 37.6123 108.726 37.4365C108.708 37.7939 108.667 38.1455 108.603 38.4912C108.538 38.8311 108.436 39.1562 108.295 39.4668C108.16 39.7715 107.984 40.0527 107.768 40.3105C107.551 40.5625 107.278 40.7822 106.95 40.9697ZM107.021 37.2432C106.763 37.3311 106.496 37.375 106.221 37.375C105.828 37.375 105.485 37.29 105.192 37.1201C104.905 36.9443 104.665 36.7158 104.472 36.4346C104.284 36.1533 104.144 35.834 104.05 35.4766C103.956 35.1133 103.909 34.7441 103.909 34.3691C103.909 33.9473 103.962 33.5547 104.067 33.1914C104.173 32.8223 104.325 32.5059 104.524 32.2422C104.729 31.9727 104.979 31.7617 105.271 31.6094C105.564 31.457 105.901 31.3809 106.282 31.3809C106.616 31.3809 106.93 31.4629 107.223 31.627C107.521 31.791 107.782 32.0283 108.005 32.3389C108.233 32.6436 108.412 33.0186 108.541 33.4639C108.676 33.9092 108.743 34.416 108.743 34.9844V35.5117C108.644 35.7871 108.506 36.0391 108.33 36.2676C108.16 36.4902 107.964 36.6865 107.741 36.8564C107.524 37.0205 107.284 37.1494 107.021 37.2432ZM45.6328 97.8145H29.6016V94H45.6328V97.8145ZM72.6016 97.8145H88.6328V94H72.6016V97.8145Z"/>
</mask>
<path fill-rule="evenodd" clip-rule="evenodd" d="M21.5625 13.1045C21.5625 13.9189 21.4688 14.6426 21.2812 15.2754C21.0938 15.9023 20.8242 16.4326 20.4727 16.8662C20.1211 17.2939 19.6904 17.6191 19.1807 17.8418C18.6709 18.0645 18.0879 18.1758 17.4316 18.1758C16.7812 18.1758 16.1982 18.0645 15.6826 17.8418C15.1729 17.6191 14.7393 17.2939 14.3818 16.8662C14.0244 16.4326 13.749 15.9023 13.5557 15.2754C13.3682 14.6426 13.2744 13.9189 13.2744 13.1045V10.1074C13.2744 9.29297 13.3682 8.57227 13.5557 7.94531C13.7432 7.3125 14.0127 6.7793 14.3643 6.3457C14.7217 5.91211 15.1553 5.58398 15.665 5.36133C16.1807 5.13281 16.7637 5.01855 17.4141 5.01855C18.0703 5.01855 18.6533 5.13281 19.1631 5.36133C19.6787 5.58398 20.1123 5.91211 20.4639 6.3457C20.8213 6.7793 21.0938 7.3125 21.2812 7.94531C21.4688 8.57227 21.5625 9.29297 21.5625 10.1074V13.1045ZM14.9092 12.7793L19.8926 8.95605C19.7988 8.10645 19.5498 7.46191 19.1455 7.02246C18.7471 6.57715 18.1699 6.35449 17.4141 6.35449C16.5586 6.35449 15.9258 6.64453 15.5156 7.22461C15.1113 7.79883 14.9092 8.63965 14.9092 9.74707V12.7793ZM19.9277 10.5117L14.9531 14.3174C15.0527 15.1436 15.3076 15.7734 15.7178 16.207C16.1279 16.6406 16.6992 16.8574 17.4316 16.8574C18.293 16.8574 18.9229 16.5645 19.3213 15.9785C19.7256 15.3926 19.9277 14.5488 19.9277 13.4473V10.5117ZM17.1768 42H18.8027V29.2031H18.6709L13.8281 31.0664V32.5518L17.1768 31.2773V42ZM38.9932 19V17.8311L43.1855 13.1729C43.5605 12.7568 43.874 12.3877 44.126 12.0654C44.3779 11.7432 44.5801 11.4473 44.7324 11.1777C44.8848 10.9023 44.9932 10.6445 45.0576 10.4043C45.1221 10.1582 45.1543 9.90625 45.1543 9.64844C45.1543 9.33203 45.1016 9.03613 44.9961 8.76074C44.8965 8.47949 44.7471 8.23633 44.5479 8.03125C44.3545 7.82617 44.1172 7.66504 43.8359 7.54785C43.5605 7.4248 43.2471 7.36328 42.8955 7.36328C42.4678 7.36328 42.0957 7.4248 41.7793 7.54785C41.4688 7.6709 41.208 7.84668 40.9971 8.0752C40.792 8.29785 40.6367 8.57031 40.5312 8.89258C40.4316 9.21484 40.3818 9.5752 40.3818 9.97363H38.7471C38.7471 9.43457 38.8408 8.92773 39.0283 8.45312C39.2158 7.97266 39.4854 7.55371 39.8369 7.19629C40.1943 6.83887 40.6279 6.55469 41.1377 6.34375C41.6533 6.13281 42.2393 6.02734 42.8955 6.02734C43.499 6.02734 44.041 6.11816 44.5215 6.2998C45.0078 6.47559 45.418 6.72168 45.752 7.03809C46.0859 7.35449 46.3408 7.72949 46.5166 8.16309C46.6982 8.59668 46.7891 9.06836 46.7891 9.57812C46.7891 9.95898 46.7246 10.3369 46.5957 10.7119C46.4668 11.0811 46.291 11.4473 46.0684 11.8105C45.8516 12.1738 45.5967 12.5342 45.3037 12.8916C45.0166 13.2432 44.7119 13.5947 44.3896 13.9463L40.9531 17.6729H47.3779V19H38.9932ZM42.5879 35.8193H41.4277V37.1377H42.5879C42.9922 37.1377 43.3613 37.1846 43.6953 37.2783C44.0352 37.3721 44.3223 37.5156 44.5566 37.709C44.7969 37.9023 44.9814 38.1455 45.1104 38.4385C45.2451 38.7256 45.3125 39.0684 45.3125 39.4668C45.3125 39.8711 45.2539 40.2227 45.1367 40.5215C45.0254 40.8145 44.8643 41.0605 44.6533 41.2598C44.4424 41.459 44.1875 41.6084 43.8887 41.708C43.5898 41.8018 43.2559 41.8486 42.8867 41.8486C42.5176 41.8486 42.1807 41.7959 41.876 41.6904C41.5771 41.585 41.3223 41.4355 41.1113 41.2422C40.9004 41.0488 40.7363 40.8145 40.6191 40.5391C40.5078 40.2637 40.4521 39.959 40.4521 39.625H38.8262C38.8262 40.1875 38.9316 40.6885 39.1426 41.1279C39.3594 41.5674 39.6494 41.9395 40.0127 42.2441C40.376 42.5488 40.8037 42.7803 41.2959 42.9385C41.7939 43.0967 42.3242 43.1758 42.8867 43.1758C43.4609 43.1758 43.9941 43.0938 44.4863 42.9297C44.9844 42.7598 45.415 42.5166 45.7783 42.2002C46.1416 41.8779 46.4258 41.4854 46.6309 41.0225C46.8359 40.5596 46.9385 40.0293 46.9385 39.4316C46.9385 39.1387 46.9033 38.8428 46.833 38.5439C46.7686 38.2451 46.6514 37.9609 46.4814 37.6914C46.3174 37.4219 46.0947 37.1787 45.8135 36.9619C45.5381 36.7451 45.1924 36.5693 44.7764 36.4346C45.1221 36.2881 45.418 36.1064 45.6641 35.8896C45.916 35.667 46.1211 35.4326 46.2793 35.1865C46.4375 34.9346 46.5547 34.6768 46.6309 34.4131C46.707 34.1494 46.7451 33.8945 46.7451 33.6484C46.7451 33.0566 46.6514 32.5352 46.4639 32.084C46.2764 31.6328 46.0127 31.2549 45.6729 30.9502C45.333 30.6455 44.9258 30.417 44.4512 30.2646C43.9766 30.1064 43.4521 30.0273 42.8779 30.0273C42.2861 30.0273 41.7471 30.1211 41.2607 30.3086C40.7803 30.4902 40.3672 30.7422 40.0215 31.0645C39.6758 31.3809 39.4062 31.7559 39.2129 32.1895C39.0254 32.6172 38.9316 33.0742 38.9316 33.5605H40.5664C40.5664 33.2266 40.6221 32.9248 40.7334 32.6553C40.8447 32.3857 41 32.1543 41.1992 31.9609C41.4043 31.7676 41.6475 31.6211 41.9287 31.5215C42.2158 31.416 42.5322 31.3633 42.8779 31.3633C43.6104 31.3633 44.167 31.5537 44.5479 31.9346C44.9287 32.3096 45.1191 32.8691 45.1191 33.6133C45.1191 33.9355 45.0635 34.2314 44.9521 34.501C44.8408 34.7705 44.6768 35.002 44.46 35.1953C44.249 35.3887 43.9854 35.541 43.6689 35.6523C43.3584 35.7637 42.998 35.8193 42.5879 35.8193ZM67.1211 14.7021H68.9053V16.0293H67.1211V19H65.4951V16.0293H59.6592V15.0713L65.3896 6.20312H67.1211V14.7021ZM61.4609 14.7021H65.4951V8.36523L65.2314 8.85742L61.4609 14.7021ZM61.751 30.2031L61.1094 36.584L62.4102 36.918C62.5566 36.7891 62.6973 36.6748 62.832 36.5752C62.9727 36.4756 63.1221 36.3906 63.2803 36.3203C63.4385 36.25 63.6143 36.1973 63.8076 36.1621C64.0068 36.1211 64.2412 36.1006 64.5107 36.1006C64.9209 36.1006 65.2842 36.1738 65.6006 36.3203C65.917 36.4668 66.1836 36.6689 66.4004 36.9268C66.6172 37.1787 66.7812 37.4775 66.8926 37.8232C67.0098 38.1689 67.0684 38.541 67.0684 38.9395C67.0684 39.3789 67.0156 39.7773 66.9102 40.1348C66.8105 40.4922 66.6582 40.7998 66.4531 41.0576C66.2539 41.3096 66.0049 41.5059 65.7061 41.6465C65.4072 41.7812 65.0645 41.8486 64.6777 41.8486C63.9922 41.8486 63.4297 41.6611 62.9902 41.2861C62.5566 40.9111 62.29 40.3604 62.1904 39.6338H60.6436C60.7021 40.2256 60.8457 40.7441 61.0742 41.1895C61.3086 41.6348 61.6045 42.0039 61.9619 42.2969C62.3252 42.5898 62.7383 42.8096 63.2012 42.9561C63.6641 43.1025 64.1562 43.1758 64.6777 43.1758C65.3574 43.1758 65.9492 43.0703 66.4531 42.8594C66.957 42.6426 67.373 42.3467 67.7012 41.9717C68.0352 41.5908 68.2842 41.1396 68.4482 40.6182C68.6123 40.0967 68.6943 39.5312 68.6943 38.9219C68.6943 38.2773 68.6064 37.6914 68.4307 37.1641C68.2549 36.6367 68.0029 36.1885 67.6748 35.8193C67.3467 35.4443 66.9482 35.1543 66.4795 34.9492C66.0107 34.7441 65.4805 34.6416 64.8887 34.6416C64.4258 34.6416 64.0186 34.6973 63.667 34.8086C63.3154 34.9199 63.0137 35.0488 62.7617 35.1953L63.1221 31.7852H68.3164V30.2031H61.751ZM87.5234 6.19434V7.65332H87.3828C86.8438 7.65332 86.3604 7.70898 85.9326 7.82031C85.5107 7.93164 85.1387 8.08398 84.8164 8.27734C84.4941 8.4707 84.2158 8.70215 83.9814 8.97168C83.7529 9.23535 83.5625 9.52539 83.4102 9.8418C83.2578 10.1582 83.1406 10.4893 83.0586 10.835C82.9766 11.1807 82.9238 11.5322 82.9004 11.8896C83.0527 11.708 83.2285 11.541 83.4277 11.3887C83.627 11.2305 83.8408 11.0957 84.0693 10.9844C84.3037 10.8672 84.5527 10.7764 84.8164 10.7119C85.0859 10.6416 85.3672 10.6064 85.6602 10.6064C86.2988 10.6064 86.8496 10.7295 87.3125 10.9756C87.7754 11.2158 88.1562 11.5352 88.4551 11.9336C88.7539 12.332 88.9736 12.7832 89.1143 13.2871C89.2549 13.791 89.3252 14.3037 89.3252 14.8252C89.3252 15.4229 89.2402 15.9854 89.0703 16.5127C88.9062 17.04 88.6572 17.5029 88.3232 17.9014C87.9893 18.2939 87.5732 18.6045 87.0752 18.833C86.583 19.0615 86.0117 19.1758 85.3613 19.1758C84.8984 19.1758 84.4736 19.1084 84.0869 18.9736C83.7061 18.8389 83.3633 18.6572 83.0586 18.4287C82.7539 18.1943 82.4873 17.9189 82.2588 17.6025C82.0303 17.2861 81.8398 16.9463 81.6875 16.583C81.541 16.2197 81.4297 15.8418 81.3535 15.4492C81.2773 15.0566 81.2393 14.6641 81.2393 14.2715V13.5068C81.2393 12.9209 81.2744 12.335 81.3447 11.749C81.4209 11.1572 81.5469 10.5918 81.7227 10.0527C81.8984 9.51367 82.1357 9.00977 82.4346 8.54102C82.7334 8.06641 83.1084 7.65625 83.5596 7.31055C84.0166 6.96484 84.5586 6.69238 85.1855 6.49316C85.8125 6.29395 86.5449 6.19434 87.3828 6.19434H87.5234ZM85.3965 11.96C85.1211 11.96 84.8545 12.0039 84.5967 12.0918C84.3389 12.1797 84.0986 12.3027 83.876 12.4609C83.6533 12.6191 83.457 12.8096 83.2871 13.0322C83.1172 13.2549 82.9824 13.501 82.8828 13.7705V14.3154C82.8828 14.8779 82.9502 15.3789 83.085 15.8184C83.2197 16.252 83.4014 16.6182 83.6299 16.917C83.8584 17.2158 84.1221 17.4443 84.4209 17.6025C84.7197 17.7549 85.0332 17.8311 85.3613 17.8311C85.7422 17.8311 86.0791 17.7578 86.3721 17.6113C86.665 17.4648 86.9111 17.2627 87.1104 17.0049C87.3154 16.7471 87.4678 16.4395 87.5674 16.082C87.6729 15.7188 87.7256 15.3262 87.7256 14.9043C87.7256 14.5293 87.6787 14.166 87.585 13.8145C87.4912 13.457 87.3477 13.1406 87.1543 12.8652C86.9609 12.5898 86.7178 12.3701 86.4248 12.2061C86.1318 12.042 85.7891 11.96 85.3965 11.96ZM84.333 43L89.6328 31.1172V30.2031H80.9844V31.627H87.9102L82.6279 43H84.333ZM109.886 11.248C109.546 11.7461 109.092 12.1357 108.523 12.417C108.852 12.5576 109.147 12.7334 109.411 12.9443C109.681 13.1494 109.909 13.3867 110.097 13.6562C110.29 13.9258 110.437 14.2188 110.536 14.5352C110.642 14.8516 110.694 15.1885 110.694 15.5459C110.694 16.126 110.586 16.6416 110.369 17.0928C110.158 17.5439 109.868 17.9248 109.499 18.2354C109.136 18.54 108.708 18.7744 108.216 18.9385C107.724 19.0967 107.196 19.1758 106.634 19.1758C106.06 19.1758 105.523 19.0967 105.025 18.9385C104.533 18.7803 104.103 18.5488 103.733 18.2441C103.37 17.9336 103.083 17.5527 102.872 17.1016C102.661 16.6504 102.556 16.1318 102.556 15.5459C102.556 15.1885 102.605 14.8516 102.705 14.5352C102.805 14.2129 102.948 13.9199 103.136 13.6562C103.323 13.3867 103.549 13.1465 103.812 12.9355C104.076 12.7246 104.372 12.5488 104.7 12.4082C104.419 12.2676 104.164 12.1006 103.936 11.9072C103.707 11.708 103.514 11.4883 103.355 11.248C103.197 11.002 103.074 10.7354 102.986 10.4482C102.898 10.1611 102.854 9.85938 102.854 9.54297C102.854 8.98633 102.948 8.49121 103.136 8.05762C103.323 7.61816 103.581 7.24902 103.909 6.9502C104.243 6.65137 104.639 6.42285 105.096 6.26465C105.559 6.10645 106.062 6.02734 106.607 6.02734C107.146 6.02734 107.647 6.10645 108.11 6.26465C108.573 6.42285 108.975 6.65137 109.314 6.9502C109.654 7.24902 109.921 7.61816 110.114 8.05762C110.308 8.49121 110.404 8.98633 110.404 9.54297C110.398 10.1816 110.226 10.75 109.886 11.248ZM109.068 15.5107C109.068 15.1533 109.007 14.8252 108.884 14.5264C108.767 14.2275 108.6 13.9727 108.383 13.7617C108.166 13.5449 107.905 13.3779 107.601 13.2607C107.302 13.1436 106.974 13.085 106.616 13.085C106.247 13.085 105.913 13.1436 105.614 13.2607C105.315 13.3779 105.061 13.5449 104.85 13.7617C104.639 13.9727 104.475 14.2275 104.357 14.5264C104.246 14.8252 104.19 15.1533 104.19 15.5107C104.19 15.8799 104.246 16.2109 104.357 16.5039C104.475 16.791 104.639 17.0342 104.85 17.2334C105.061 17.4326 105.315 17.585 105.614 17.6904C105.919 17.7959 106.259 17.8486 106.634 17.8486C106.991 17.8486 107.319 17.7959 107.618 17.6904C107.917 17.585 108.172 17.4326 108.383 17.2334C108.6 17.0342 108.767 16.791 108.884 16.5039C109.007 16.2109 109.068 15.8799 109.068 15.5107ZM108.77 9.56934C108.77 9.24707 108.714 8.95117 108.603 8.68164C108.497 8.41211 108.348 8.18066 108.154 7.9873C107.967 7.78809 107.741 7.63574 107.478 7.53027C107.214 7.41895 106.924 7.36328 106.607 7.36328C106.291 7.36328 106.004 7.41602 105.746 7.52148C105.488 7.62109 105.266 7.76758 105.078 7.96094C104.891 8.1543 104.744 8.38867 104.639 8.66406C104.539 8.93359 104.489 9.23535 104.489 9.56934C104.489 9.90332 104.539 10.2051 104.639 10.4746C104.744 10.7383 104.891 10.9668 105.078 11.1602C105.271 11.3477 105.497 11.4941 105.755 11.5996C106.019 11.6992 106.309 11.749 106.625 11.749C106.936 11.749 107.223 11.6992 107.486 11.5996C107.75 11.4941 107.976 11.3477 108.163 11.1602C108.356 10.9668 108.506 10.7354 108.611 10.4658C108.717 10.1963 108.77 9.89746 108.77 9.56934ZM106.95 40.9697C106.628 41.1572 106.247 41.3037 105.808 41.4092C105.368 41.5088 104.858 41.5586 104.278 41.5586H104.111V43.0088H104.278C105.163 43.0088 105.928 42.9062 106.572 42.7012C107.217 42.4961 107.765 42.2178 108.216 41.8662C108.667 41.5146 109.033 41.1045 109.314 40.6357C109.596 40.1611 109.812 39.6572 109.965 39.124C110.123 38.5908 110.229 38.04 110.281 37.4717C110.334 36.8975 110.36 36.3379 110.36 35.793V35.2041C110.36 34.7822 110.328 34.3633 110.264 33.9473C110.199 33.5254 110.097 33.124 109.956 32.7432C109.821 32.3564 109.646 31.999 109.429 31.6709C109.212 31.3369 108.951 31.0498 108.646 30.8096C108.348 30.5635 107.999 30.373 107.601 30.2383C107.208 30.0977 106.766 30.0273 106.273 30.0273C105.617 30.0273 105.04 30.1475 104.542 30.3877C104.05 30.6221 103.637 30.9414 103.303 31.3457C102.975 31.7441 102.726 32.2129 102.556 32.752C102.392 33.2852 102.31 33.8535 102.31 34.457C102.31 34.9727 102.38 35.4854 102.521 35.9951C102.661 36.5049 102.881 36.9619 103.18 37.3662C103.479 37.7705 103.856 38.0986 104.313 38.3506C104.776 38.5967 105.324 38.7197 105.957 38.7197C106.285 38.7197 106.587 38.6875 106.862 38.623C107.144 38.5527 107.398 38.459 107.627 38.3418C107.855 38.2246 108.061 38.0898 108.242 37.9375C108.424 37.7793 108.585 37.6123 108.726 37.4365C108.708 37.7939 108.667 38.1455 108.603 38.4912C108.538 38.8311 108.436 39.1562 108.295 39.4668C108.16 39.7715 107.984 40.0527 107.768 40.3105C107.551 40.5625 107.278 40.7822 106.95 40.9697ZM107.021 37.2432C106.763 37.3311 106.496 37.375 106.221 37.375C105.828 37.375 105.485 37.29 105.192 37.1201C104.905 36.9443 104.665 36.7158 104.472 36.4346C104.284 36.1533 104.144 35.834 104.05 35.4766C103.956 35.1133 103.909 34.7441 103.909 34.3691C103.909 33.9473 103.962 33.5547 104.067 33.1914C104.173 32.8223 104.325 32.5059 104.524 32.2422C104.729 31.9727 104.979 31.7617 105.271 31.6094C105.564 31.457 105.901 31.3809 106.282 31.3809C106.616 31.3809 106.93 31.4629 107.223 31.627C107.521 31.791 107.782 32.0283 108.005 32.3389C108.233 32.6436 108.412 33.0186 108.541 33.4639C108.676 33.9092 108.743 34.416 108.743 34.9844V35.5117C108.644 35.7871 108.506 36.0391 108.33 36.2676C108.16 36.4902 107.964 36.6865 107.741 36.8564C107.524 37.0205 107.284 37.1494 107.021 37.2432ZM45.6328 97.8145H29.6016V94H45.6328V97.8145ZM72.6016 97.8145H88.6328V94H72.6016V97.8145Z" fill="black"/>
<path d="M21.2812 15.2754L22.2393 15.5619L22.24 15.5595L21.2812 15.2754ZM20.4727 16.8662L21.2452 17.5012L21.2494 17.496L20.4727 16.8662ZM15.6826 17.8418L15.2823 18.7582L15.2862 18.7599L15.6826 17.8418ZM14.3818 16.8662L13.6102 17.5023L13.6145 17.5074L14.3818 16.8662ZM13.5557 15.2754L12.5968 15.5595L12.6001 15.5701L13.5557 15.2754ZM13.5557 7.94531L14.5137 8.23184L14.5145 8.2294L13.5557 7.94531ZM14.3643 6.3457L13.5926 5.70961L13.5875 5.7159L14.3643 6.3457ZM15.665 5.36133L16.0653 6.27774L16.0702 6.27557L15.665 5.36133ZM19.1631 5.36133L18.754 6.27392L18.7666 6.27939L19.1631 5.36133ZM20.4639 6.3457L19.6871 6.97553L19.6922 6.98178L20.4639 6.3457ZM21.2812 7.94531L20.3224 8.2294L20.3232 8.23184L21.2812 7.94531ZM19.8926 8.95605L20.5013 9.74946L20.9483 9.40646L20.8865 8.84638L19.8926 8.95605ZM14.9092 12.7793H13.9092V14.8069L15.5179 13.5727L14.9092 12.7793ZM19.1455 7.02246L18.4002 7.68932L18.4096 7.69952L19.1455 7.02246ZM15.5156 7.22461L14.6991 6.64728L14.698 6.64891L15.5156 7.22461ZM14.9531 14.3174L14.3455 13.5231L13.892 13.8701L13.9603 14.4371L14.9531 14.3174ZM19.9277 10.5117H20.9277V8.48763L19.3201 9.71748L19.9277 10.5117ZM19.3213 15.9785L18.4982 15.4106L18.4944 15.4162L19.3213 15.9785ZM18.8027 42V43H19.8027V42H18.8027ZM17.1768 42H16.1768V43H17.1768V42ZM18.8027 29.2031H19.8027V28.2031H18.8027V29.2031ZM18.6709 29.2031V28.2031H18.4852L18.3118 28.2698L18.6709 29.2031ZM13.8281 31.0664L13.469 30.1331L12.8281 30.3797V31.0664H13.8281ZM13.8281 32.5518H12.8281V34.0023L14.1838 33.4864L13.8281 32.5518ZM17.1768 31.2773H18.1768V29.8268L16.8211 30.3427L17.1768 31.2773ZM38.9932 17.8311L38.2499 17.1621L37.9932 17.4473V17.8311H38.9932ZM38.9932 19H37.9932V20H38.9932V19ZM43.1855 13.1729L42.4428 12.5033L42.4423 12.5039L43.1855 13.1729ZM44.7324 11.1777L45.603 11.6698L45.6075 11.6618L44.7324 11.1777ZM45.0576 10.4043L46.0235 10.6634L46.025 10.6577L45.0576 10.4043ZM44.9961 8.76074L44.0535 9.09459L44.0577 9.10655L44.0622 9.11839L44.9961 8.76074ZM44.5479 8.03125L43.8203 8.71726L43.8254 8.72269L43.8306 8.72804L44.5479 8.03125ZM43.8359 7.54785L43.428 8.46086L43.4396 8.46604L43.4513 8.47093L43.8359 7.54785ZM41.7793 7.54785L41.4168 6.61583L41.4109 6.61817L41.7793 7.54785ZM40.9971 8.0752L40.2623 7.39691L40.2615 7.39772L40.9971 8.0752ZM40.5312 8.89258L39.5809 8.58154L39.5783 8.58938L39.5758 8.59727L40.5312 8.89258ZM40.3818 9.97363V10.9736H41.3818V9.97363H40.3818ZM38.7471 9.97363H37.7471V10.9736H38.7471V9.97363ZM39.0283 8.45312L39.9584 8.82056L39.9599 8.81667L39.0283 8.45312ZM39.8369 7.19629L39.1298 6.48916L39.124 6.49505L39.8369 7.19629ZM41.1377 6.34375L40.7591 5.4182L40.7553 5.41973L41.1377 6.34375ZM44.5215 6.2998L44.1679 7.23519L44.1747 7.23778L44.1816 7.24026L44.5215 6.2998ZM46.5166 8.16309L45.5898 8.53882L45.5943 8.54947L46.5166 8.16309ZM46.5957 10.7119L47.5398 11.0416L47.5414 11.037L46.5957 10.7119ZM46.0684 11.8105L45.2157 11.2879L45.2096 11.2981L46.0684 11.8105ZM45.3037 12.8916L44.5303 12.2577L44.5292 12.2591L45.3037 12.8916ZM44.3896 13.9463L45.1248 14.6242L45.1268 14.622L44.3896 13.9463ZM40.9531 17.6729L40.218 16.9949L38.6707 18.6729H40.9531V17.6729ZM47.3779 17.6729H48.3779V16.6729H47.3779V17.6729ZM47.3779 19V20H48.3779V19H47.3779ZM41.4277 35.8193V34.8193H40.4277V35.8193H41.4277ZM41.4277 37.1377H40.4277V38.1377H41.4277V37.1377ZM43.6953 37.2783L43.4251 38.2411L43.4294 38.2423L43.6953 37.2783ZM44.5566 37.709L43.9202 38.4804L43.9296 38.488L44.5566 37.709ZM45.1104 38.4385L44.195 38.8412L44.1999 38.8524L44.2051 38.8634L45.1104 38.4385ZM45.1367 40.5215L44.2057 40.1564L44.2019 40.1663L45.1367 40.5215ZM43.8887 41.708L44.188 42.6622L44.1965 42.6595L44.2049 42.6567L43.8887 41.708ZM41.876 41.6904L41.5432 42.6334L41.5489 42.6354L41.876 41.6904ZM40.6191 40.5391L39.692 40.9139L39.6954 40.9223L39.699 40.9306L40.6191 40.5391ZM40.4521 39.625H41.4521V38.625H40.4521V39.625ZM38.8262 39.625V38.625H37.8262V39.625H38.8262ZM39.1426 41.1279L38.241 41.5607L38.2458 41.5704L39.1426 41.1279ZM41.2959 42.9385L40.9899 43.8905L40.9932 43.8915L41.2959 42.9385ZM44.4863 42.9297L44.8026 43.8784L44.8092 43.8761L44.4863 42.9297ZM45.7783 42.2002L46.4351 42.9543L46.4419 42.9483L45.7783 42.2002ZM46.833 38.5439L45.8555 38.7548L45.8575 38.7639L45.8596 38.773L46.833 38.5439ZM46.4814 37.6914L45.6272 38.2114L45.6313 38.2181L45.6355 38.2247L46.4814 37.6914ZM45.8135 36.9619L45.1949 37.7477L45.203 37.7539L45.8135 36.9619ZM44.7764 36.4346L44.3862 35.5138L41.9179 36.5597L44.4682 37.3859L44.7764 36.4346ZM45.6641 35.8896L46.3251 36.64L46.3263 36.639L45.6641 35.8896ZM46.2793 35.1865L47.1205 35.7273L47.1262 35.7183L46.2793 35.1865ZM44.4512 30.2646L44.1349 31.2134L44.1455 31.2168L44.4512 30.2646ZM41.2607 30.3086L41.6144 31.244L41.6205 31.2416L41.2607 30.3086ZM40.0215 31.0645L40.6967 31.8022L40.7034 31.7959L40.0215 31.0645ZM39.2129 32.1895L38.2996 31.7822L38.297 31.788L39.2129 32.1895ZM38.9316 33.5605H37.9316V34.5605H38.9316V33.5605ZM40.5664 33.5605V34.5605H41.5664V33.5605H40.5664ZM41.1992 31.9609L40.5132 31.2333L40.5079 31.2383L40.5027 31.2434L41.1992 31.9609ZM41.9287 31.5215L42.2626 32.4642L42.2735 32.4602L41.9287 31.5215ZM44.5479 31.9346L43.8407 32.6417L43.8462 32.6471L44.5479 31.9346ZM44.46 35.1953L43.7943 34.4489L43.7842 34.4582L44.46 35.1953ZM43.6689 35.6523L43.337 34.709L43.3315 34.711L43.6689 35.6523ZM68.9053 14.7021H69.9053V13.7021H68.9053V14.7021ZM67.1211 14.7021H66.1211V15.7021H67.1211V14.7021ZM68.9053 16.0293V17.0293H69.9053V16.0293H68.9053ZM67.1211 16.0293V15.0293H66.1211V16.0293H67.1211ZM67.1211 19V20H68.1211V19H67.1211ZM65.4951 19H64.4951V20H65.4951V19ZM65.4951 16.0293H66.4951V15.0293H65.4951V16.0293ZM59.6592 16.0293H58.6592V17.0293H59.6592V16.0293ZM59.6592 15.0713L58.8193 14.5286L58.6592 14.7763V15.0713H59.6592ZM65.3896 6.20312V5.20312H64.8452L64.5497 5.66039L65.3896 6.20312ZM67.1211 6.20312H68.1211V5.20312H67.1211V6.20312ZM65.4951 14.7021V15.7021H66.4951V14.7021H65.4951ZM61.4609 14.7021L60.6206 14.1601L59.6258 15.7021H61.4609V14.7021ZM65.4951 8.36523H66.4951L64.6136 7.89301L65.4951 8.36523ZM65.2314 8.85742L66.0718 9.39952L66.0938 9.36542L66.1129 9.32964L65.2314 8.85742ZM61.1094 36.584L60.1144 36.4839L60.0284 37.3389L60.8607 37.5526L61.1094 36.584ZM61.751 30.2031V29.2031H60.8465L60.756 30.1031L61.751 30.2031ZM62.4102 36.918L62.1615 37.8866L62.6737 38.0181L63.0708 37.6687L62.4102 36.918ZM62.832 36.5752L62.254 35.7592L62.2458 35.765L62.2376 35.771L62.832 36.5752ZM63.8076 36.1621L63.9865 37.146L63.9979 37.1439L64.0093 37.1416L63.8076 36.1621ZM66.4004 36.9268L65.635 37.5704L65.6424 37.579L66.4004 36.9268ZM66.8926 37.8232L65.9407 38.1298L65.9431 38.137L65.9455 38.1443L66.8926 37.8232ZM66.9102 40.1348L65.951 39.8517L65.9489 39.859L65.9469 39.8663L66.9102 40.1348ZM66.4531 41.0576L65.6705 40.4351L65.6687 40.4374L66.4531 41.0576ZM65.7061 41.6465L66.1172 42.5581L66.1245 42.5547L66.1319 42.5513L65.7061 41.6465ZM62.9902 41.2861L62.3361 42.0425L62.3411 42.0468L62.9902 41.2861ZM62.1904 39.6338L63.1812 39.498L63.0627 38.6338H62.1904V39.6338ZM60.6436 39.6338V38.6338H59.5397L59.6484 39.7323L60.6436 39.6338ZM61.0742 41.1895L60.1845 41.646L60.1893 41.6552L61.0742 41.1895ZM61.9619 42.2969L61.328 43.0703L61.3342 43.0753L61.9619 42.2969ZM66.4531 42.8594L66.8393 43.7819L66.8483 43.778L66.4531 42.8594ZM67.7012 41.9717L66.9493 41.3124L66.9486 41.3132L67.7012 41.9717ZM67.6748 35.8193L66.9222 36.4779L66.9274 36.4837L67.6748 35.8193ZM62.7617 35.1953L61.7673 35.0902L61.5601 37.0507L63.2643 36.0598L62.7617 35.1953ZM63.1221 31.7852V30.7852H62.2222L62.1276 31.6801L63.1221 31.7852ZM68.3164 31.7852V32.7852H69.3164V31.7852H68.3164ZM68.3164 30.2031H69.3164V29.2031H68.3164V30.2031ZM87.5234 7.65332V8.65332H88.5234V7.65332H87.5234ZM87.5234 6.19434H88.5234V5.19434H87.5234V6.19434ZM85.9326 7.82031L85.6807 6.85255L85.6775 6.85341L85.9326 7.82031ZM83.9814 8.97168L83.2268 8.3155L83.2258 8.31675L83.9814 8.97168ZM82.9004 11.8896L81.9025 11.8242L81.7025 14.874L83.6666 12.5323L82.9004 11.8896ZM83.4277 11.3887L84.0352 12.183L84.0425 12.1775L84.0496 12.1718L83.4277 11.3887ZM84.0693 10.9844L84.5073 11.8834L84.5165 11.8788L84.0693 10.9844ZM84.8164 10.7119L85.0539 11.6833L85.0614 11.6815L85.0688 11.6795L84.8164 10.7119ZM87.3125 10.9756L86.843 11.8586L86.8519 11.8632L87.3125 10.9756ZM89.0703 16.5127L88.1185 16.206L88.1155 16.2156L89.0703 16.5127ZM88.3232 17.9014L89.0849 18.5494L89.0896 18.5438L88.3232 17.9014ZM87.0752 18.833L86.6582 17.9241L86.6541 17.926L87.0752 18.833ZM84.0869 18.9736L83.7533 19.9164L83.7578 19.9179L84.0869 18.9736ZM83.0586 18.4287L82.4488 19.2214L82.4586 19.2287L83.0586 18.4287ZM81.6875 16.583L80.76 16.957L80.7653 16.9697L81.6875 16.583ZM81.3447 11.749L80.3529 11.6214L80.3518 11.6299L81.3447 11.749ZM82.4346 8.54102L83.2778 9.07858L83.2808 9.07383L82.4346 8.54102ZM83.5596 7.31055L82.9563 6.51299L82.9514 6.51677L83.5596 7.31055ZM82.8828 13.7705L81.9448 13.4239L81.8828 13.5916V13.7705H82.8828ZM83.085 15.8184L82.1289 16.1116L82.13 16.1152L83.085 15.8184ZM84.4209 17.6025L83.953 18.4863L83.9598 18.4899L83.9667 18.4934L84.4209 17.6025ZM87.1104 17.0049L86.3277 16.3823L86.3191 16.3934L87.1104 17.0049ZM87.5674 16.082L86.607 15.8032L86.6041 15.8136L87.5674 16.082ZM87.585 13.8145L86.6177 14.0682L86.6187 14.0721L87.585 13.8145ZM89.6328 31.1172L90.5461 31.5245L90.6328 31.3301V31.1172H89.6328ZM84.333 43V44H84.982L85.2463 43.4073L84.333 43ZM89.6328 30.2031H90.6328V29.2031H89.6328V30.2031ZM80.9844 30.2031V29.2031H79.9844V30.2031H80.9844ZM80.9844 31.627H79.9844V32.627H80.9844V31.627ZM87.9102 31.627L88.8171 32.0482L89.4772 30.627H87.9102V31.627ZM82.6279 43L81.721 42.5788L81.0609 44H82.6279V43ZM108.523 12.417L108.08 11.5207L106.137 12.4822L108.13 13.3361L108.523 12.417ZM109.411 12.9443L108.786 13.7252L108.796 13.7328L108.806 13.7402L109.411 12.9443ZM110.097 13.6562L109.276 14.2273L109.28 14.2333L109.284 14.2392L110.097 13.6562ZM110.536 14.5352L109.582 14.8354L109.585 14.8434L109.587 14.8514L110.536 14.5352ZM110.369 17.0928L109.468 16.6596L109.463 16.6692L110.369 17.0928ZM109.499 18.2354L110.142 19.0015L110.143 19.0006L109.499 18.2354ZM108.216 18.9385L108.522 19.8906L108.532 19.8872L108.216 18.9385ZM105.025 18.9385L104.719 19.8905L104.723 19.8915L105.025 18.9385ZM103.733 18.2441L103.084 19.0043L103.09 19.0099L103.097 19.0154L103.733 18.2441ZM102.705 14.5352L103.659 14.8354L103.66 14.8305L102.705 14.5352ZM103.136 13.6562L103.951 14.2358L103.957 14.2273L103.136 13.6562ZM104.7 12.4082L105.094 13.3273L107.076 12.478L105.147 11.5138L104.7 12.4082ZM103.936 11.9072L103.278 12.661L103.284 12.6658L103.29 12.6706L103.936 11.9072ZM103.355 11.248L102.514 11.7888L102.52 11.798L103.355 11.248ZM103.136 8.05762L104.054 8.45453L104.056 8.45006L103.136 8.05762ZM103.909 6.9502L103.242 6.20493L103.236 6.21085L103.909 6.9502ZM105.096 6.26465L104.772 5.31838L104.769 5.31966L105.096 6.26465ZM110.114 8.05762L109.199 8.46036L109.201 8.4649L110.114 8.05762ZM110.404 9.54297L111.404 9.55214V9.54297H110.404ZM108.884 14.5264L107.953 14.8915L107.956 14.8993L107.959 14.9071L108.884 14.5264ZM108.383 13.7617L107.676 14.4689L107.685 14.4784L108.383 13.7617ZM107.601 13.2607L107.235 14.1917L107.242 14.1941L107.601 13.2607ZM104.85 13.7617L105.557 14.4689L105.566 14.4591L104.85 13.7617ZM104.357 14.5264L103.426 14.1613L103.423 14.1692L103.42 14.1773L104.357 14.5264ZM104.357 16.5039L103.423 16.8591L103.427 16.8705L103.432 16.8818L104.357 16.5039ZM105.614 17.6904L105.281 18.6334L105.287 18.6354L105.614 17.6904ZM108.383 17.2334L107.706 16.497L107.696 16.5064L108.383 17.2334ZM108.884 16.5039L107.962 16.1167L107.958 16.126L108.884 16.5039ZM108.603 8.68164L107.671 9.04604L107.675 9.05475L107.678 9.0634L108.603 8.68164ZM108.154 7.9873L107.426 8.67267L107.436 8.6837L107.447 8.69441L108.154 7.9873ZM107.478 7.53027L107.089 8.45152L107.097 8.45522L107.106 8.45875L107.478 7.53027ZM105.746 7.52148L106.106 8.45428L106.116 8.45075L106.125 8.44703L105.746 7.52148ZM104.639 8.66406L103.705 8.30639L103.701 8.31741L104.639 8.66406ZM104.639 10.4746L103.701 10.8213L103.705 10.8337L103.71 10.846L104.639 10.4746ZM105.078 11.1602L104.36 11.8563L104.371 11.8673L104.382 11.8781L105.078 11.1602ZM105.755 11.5996L105.376 12.5252L105.389 12.5303L105.401 12.5351L105.755 11.5996ZM107.486 11.5996L107.84 12.5351L107.849 12.5317L107.858 12.5281L107.486 11.5996ZM105.808 41.4092L106.029 42.3845L106.041 42.3816L105.808 41.4092ZM106.95 40.9697L106.454 40.1015L106.447 40.1054L106.95 40.9697ZM104.111 41.5586V40.5586H103.111V41.5586H104.111ZM104.111 43.0088H103.111V44.0088H104.111V43.0088ZM109.314 40.6357L110.172 41.1502L110.175 41.1455L109.314 40.6357ZM109.965 39.124L109.006 38.8396L109.003 38.8493L109.965 39.124ZM110.281 37.4717L111.277 37.5641L111.277 37.5631L110.281 37.4717ZM110.264 33.9473L109.275 34.0983L109.275 34.1004L110.264 33.9473ZM109.956 32.7432L109.012 33.0722L109.015 33.0809L109.018 33.0895L109.956 32.7432ZM109.429 31.6709L108.59 32.2154L108.594 32.2222L109.429 31.6709ZM108.646 30.8096L108.011 31.5815L108.019 31.5883L108.027 31.5948L108.646 30.8096ZM107.601 30.2383L107.263 31.1797L107.272 31.1827L107.28 31.1856L107.601 30.2383ZM104.542 30.3877L104.972 31.2906L104.976 31.2884L104.542 30.3877ZM103.303 31.3457L102.532 30.7088L102.531 30.71L103.303 31.3457ZM102.556 32.752L101.602 32.4513L101.6 32.4579L102.556 32.752ZM104.313 38.3506L103.831 39.2263L103.837 39.23L103.844 39.2336L104.313 38.3506ZM106.862 38.623L107.09 39.5967L107.098 39.595L107.105 39.5932L106.862 38.623ZM108.242 37.9375L108.885 38.7037L108.892 38.6977L108.899 38.6916L108.242 37.9375ZM108.726 37.4365L109.724 37.4856L109.876 34.3974L107.945 36.8118L108.726 37.4365ZM108.603 38.4912L109.585 38.6775L109.586 38.6745L108.603 38.4912ZM108.295 39.4668L107.384 39.0543L107.38 39.0623L108.295 39.4668ZM107.768 40.3105L108.526 40.9628L108.533 40.9541L107.768 40.3105ZM107.021 37.2432L107.343 38.1898L107.356 38.1854L107.021 37.2432ZM105.192 37.1201L104.67 37.973L104.68 37.9792L104.691 37.9851L105.192 37.1201ZM104.472 36.4346L103.64 36.9893L103.644 36.9952L103.648 37.0011L104.472 36.4346ZM104.05 35.4766L103.082 35.7264L103.083 35.7303L104.05 35.4766ZM104.067 33.1914L105.028 33.4702L105.029 33.4661L104.067 33.1914ZM104.524 32.2422L103.729 31.6367L103.727 31.6394L104.524 32.2422ZM107.223 31.627L106.734 32.4995L106.741 32.5035L107.223 31.627ZM108.005 32.3389L107.192 32.9216L107.198 32.9303L107.205 32.9389L108.005 32.3389ZM108.541 33.4639L107.58 33.7419L107.584 33.7535L108.541 33.4639ZM108.743 35.5117L109.684 35.8519L109.743 35.687V35.5117H108.743ZM108.33 36.2676L107.537 35.6579L107.535 35.6609L108.33 36.2676ZM107.741 36.8564L108.345 37.6539L108.348 37.6514L107.741 36.8564ZM29.6016 97.8145H28.6016V98.8145H29.6016V97.8145ZM45.6328 97.8145V98.8145H46.6328V97.8145H45.6328ZM29.6016 94V93H28.6016V94H29.6016ZM45.6328 94H46.6328V93H45.6328V94ZM88.6328 97.8145V98.8145H89.6328V97.8145H88.6328ZM72.6016 97.8145H71.6016V98.8145H72.6016V97.8145ZM88.6328 94H89.6328V93H88.6328V94ZM72.6016 94V93H71.6016V94H72.6016ZM22.24 15.5595C22.4604 14.8159 22.5625 13.9936 22.5625 13.1045H20.5625C20.5625 13.8443 20.4771 14.4693 20.3225 14.9913L22.24 15.5595ZM21.2494 17.496C21.6962 16.945 22.0207 16.2928 22.2393 15.5619L20.3232 14.9889C20.1668 15.5119 19.9523 15.9202 19.6959 16.2364L21.2494 17.496ZM19.5809 18.7582C20.2345 18.4727 20.793 18.0514 21.2452 17.5012L19.7001 16.2312C19.4492 16.5365 19.1463 16.7656 18.7804 16.9254L19.5809 18.7582ZM17.4316 19.1758C18.2012 19.1758 18.9243 19.045 19.5809 18.7582L18.7804 16.9254C18.4175 17.0839 17.9746 17.1758 17.4316 17.1758V19.1758ZM15.2862 18.7599C15.9452 19.0444 16.6663 19.1758 17.4316 19.1758V17.1758C16.8962 17.1758 16.4513 17.0845 16.0791 16.9237L15.2862 18.7599ZM13.6145 17.5074C14.0711 18.0538 14.6302 18.4734 15.2824 18.7582L16.0829 16.9254C15.7155 16.7649 15.4074 16.534 15.1492 16.225L13.6145 17.5074ZM12.6001 15.5701C12.8255 16.3011 13.1571 16.9526 13.6102 17.5023L15.1535 16.2301C14.8917 15.9126 14.6725 15.5035 14.5112 14.9807L12.6001 15.5701ZM12.2744 13.1045C12.2744 13.9936 12.3765 14.8159 12.5969 15.5595L14.5145 14.9913C14.3598 14.4693 14.2744 13.8443 14.2744 13.1045H12.2744ZM12.2744 10.1074V13.1045H14.2744V10.1074H12.2744ZM12.5976 7.65879C12.3765 8.39817 12.2744 9.21859 12.2744 10.1074H14.2744C14.2744 9.36735 14.3599 8.74636 14.5137 8.23184L12.5976 7.65879ZM13.5875 5.7159C13.1395 6.26848 12.815 6.92493 12.5969 7.66122L14.5145 8.2294C14.6713 7.70007 14.8859 7.29011 15.141 6.97551L13.5875 5.7159ZM15.2648 4.44493C14.6094 4.73119 14.049 5.15598 13.5926 5.70963L15.1359 6.98178C15.3943 6.66824 15.7012 6.43678 16.0653 6.27773L15.2648 4.44493ZM17.4141 4.01855C16.6454 4.01855 15.9212 4.15401 15.2599 4.44709L16.0702 6.27557C16.4402 6.11162 16.882 6.01855 17.4141 6.01855V4.01855ZM19.5721 4.44882C18.9132 4.15343 18.1869 4.01855 17.4141 4.01855V6.01855C17.9537 6.01855 18.3934 6.11219 18.754 6.27384L19.5721 4.44882ZM21.2406 5.7159C20.7868 5.15613 20.2224 4.7295 19.5595 4.44327L18.7666 6.27939C19.135 6.43847 19.4379 6.66808 19.6871 6.97551L21.2406 5.7159ZM22.24 7.66122C22.021 6.92186 21.6919 6.26325 21.2355 5.70963L19.6922 6.98178C19.9507 7.29534 20.1665 7.70314 20.3225 8.2294L22.24 7.66122ZM22.5625 10.1074C22.5625 9.21859 22.4604 8.39817 22.2393 7.65879L20.3232 8.23184C20.4771 8.74636 20.5625 9.36735 20.5625 10.1074H22.5625ZM22.5625 13.1045V10.1074H20.5625V13.1045H22.5625ZM19.2839 8.16265L14.3005 11.9859L15.5179 13.5727L20.5013 9.74946L19.2839 8.16265ZM18.4096 7.69952C18.6193 7.92749 18.8185 8.33969 18.8986 9.06573L20.8865 8.84638C20.7792 7.8732 20.4803 6.99634 19.8814 6.3454L18.4096 7.69952ZM17.4141 7.35449C17.9662 7.35449 18.2394 7.50949 18.4003 7.68926L19.8907 6.35567C19.2547 5.6448 18.3737 5.35449 17.4141 5.35449V7.35449ZM16.3321 7.80194C16.5153 7.54293 16.808 7.35449 17.4141 7.35449V5.35449C16.3092 5.35449 15.3363 5.74614 14.6991 6.64728L16.3321 7.80194ZM15.9092 9.74707C15.9092 8.73577 16.0982 8.13416 16.3333 7.80031L14.698 6.64891C14.1244 7.4635 13.9092 8.54353 13.9092 9.74707H15.9092ZM15.9092 12.7793V9.74707H13.9092V12.7793H15.9092ZM15.5607 15.1116L20.5353 11.306L19.3201 9.71748L14.3455 13.5231L15.5607 15.1116ZM16.4442 15.5198C16.2295 15.2928 16.0298 14.8929 15.9459 14.1977L13.9603 14.4371C14.0757 15.3942 14.3858 16.2541 14.9913 16.8942L16.4442 15.5198ZM17.4316 15.8574C16.9071 15.8574 16.624 15.7098 16.4442 15.5198L14.9913 16.8942C15.6319 17.5714 16.4913 17.8574 17.4316 17.8574V15.8574ZM18.4944 15.4162C18.3236 15.6673 18.0432 15.8574 17.4316 15.8574V17.8574C18.5427 17.8574 19.5221 17.4616 20.1482 16.5408L18.4944 15.4162ZM18.9277 13.4473C18.9277 14.4492 18.74 15.0602 18.4982 15.4106L20.1444 16.5464C20.7112 15.725 20.9277 14.6484 20.9277 13.4473H18.9277ZM18.9277 10.5117V13.4473H20.9277V10.5117H18.9277ZM18.8027 41H17.1768V43H18.8027V41ZM17.8027 29.2031V42H19.8027V29.2031H17.8027ZM18.6709 30.2031H18.8027V28.2031H18.6709V30.2031ZM14.1872 31.9997L19.03 30.1364L18.3118 28.2698L13.469 30.1331L14.1872 31.9997ZM14.8281 32.5518V31.0664H12.8281V32.5518H14.8281ZM16.8211 30.3427L13.4724 31.6172L14.1838 33.4864L17.5324 32.2119L16.8211 30.3427ZM18.1768 42V31.2773H16.1768V42H18.1768ZM37.9932 17.8311V19H39.9932V17.8311H37.9932ZM42.4423 12.5039L38.2499 17.1621L39.7365 18.5L43.9288 13.8418L42.4423 12.5039ZM43.3382 11.4495C43.1047 11.7481 42.8074 12.0988 42.4428 12.5033L43.9283 13.8424C44.3137 13.4149 44.6433 13.0273 44.9138 12.6814L43.3382 11.4495ZM43.8619 10.6857C43.7403 10.9007 43.5686 11.1548 43.3382 11.4495L44.9138 12.6814C45.1873 12.3316 45.4198 11.9938 45.603 11.6698L43.8619 10.6857ZM44.0918 10.1452C44.053 10.2895 43.9803 10.4715 43.8574 10.6937L45.6075 11.6618C45.7892 11.3332 45.9333 10.9995 46.0235 10.6634L44.0918 10.1452ZM44.1543 9.64844C44.1543 9.82191 44.1327 9.98867 44.0902 10.1509L46.025 10.6577C46.1114 10.3277 46.1543 9.99059 46.1543 9.64844H44.1543ZM44.0622 9.11839C44.1209 9.27151 44.1543 9.44531 44.1543 9.64844H46.1543C46.1543 9.21875 46.0822 8.80075 45.93 8.40309L44.0622 9.11839ZM43.8306 8.72804C43.925 8.82526 43.9998 8.94308 44.0535 9.09459L45.9387 8.4269C45.7932 8.01591 45.5691 7.64739 45.2651 7.33446L43.8306 8.72804ZM43.4513 8.47093C43.6135 8.5385 43.7309 8.62249 43.8203 8.71726L45.2754 7.34524C44.9781 7.02985 44.6209 6.79157 44.2206 6.62477L43.4513 8.47093ZM42.8955 8.36328C43.1296 8.36328 43.3005 8.40388 43.428 8.46086L44.2439 6.63484C43.8206 6.44573 43.3646 6.36328 42.8955 6.36328V8.36328ZM42.1417 8.47986C42.3169 8.41174 42.5608 8.36328 42.8955 8.36328V6.36328C42.3747 6.36328 41.8745 6.43786 41.4169 6.61585L42.1417 8.47986ZM41.7319 8.75348C41.8336 8.64322 41.966 8.5495 42.1477 8.47753L41.4109 6.61817C40.9715 6.7923 40.5824 7.05014 40.2623 7.39692L41.7319 8.75348ZM41.4816 9.20362C41.5479 9.00105 41.6356 8.85797 41.7326 8.75267L40.2615 7.39772C39.9484 7.73774 39.7255 8.13958 39.5809 8.58154L41.4816 9.20362ZM41.3818 9.97363C41.3818 9.65769 41.4214 9.39901 41.4867 9.18788L39.5758 8.59727C39.4419 9.03068 39.3818 9.4927 39.3818 9.97363H41.3818ZM38.7471 10.9736H40.3818V8.97363H38.7471V10.9736ZM38.0983 8.0857C37.862 8.68379 37.7471 9.31596 37.7471 9.97363H39.7471C39.7471 9.55318 39.8197 9.17168 39.9584 8.82055L38.0983 8.0857ZM39.124 6.49505C38.6747 6.95187 38.332 7.48661 38.0967 8.08958L39.9599 8.81667C40.0996 8.4587 40.296 8.15555 40.5498 7.89753L39.124 6.49505ZM40.7553 5.41973C40.1353 5.67631 39.5884 6.03063 39.1298 6.48918L40.544 7.9034C40.8003 7.6471 41.1206 7.43307 41.52 7.26777L40.7553 5.41973ZM42.8955 5.02734C42.1321 5.02734 41.4142 5.15017 40.7591 5.4182L41.5163 7.2693C41.8924 7.11545 42.3464 7.02734 42.8955 7.02734V5.02734ZM44.8751 5.36442C44.2638 5.13329 43.5991 5.02734 42.8955 5.02734V7.02734C43.3989 7.02734 43.8183 7.10303 44.1679 7.23519L44.8751 5.36442ZM46.4397 6.31213C45.9941 5.88996 45.4611 5.57612 44.8614 5.35935L44.1816 7.24026C44.5545 7.37505 44.8419 7.55339 45.0642 7.76404L46.4397 6.31213ZM47.4433 7.78738C47.2148 7.22361 46.8793 6.72857 46.4397 6.31213L45.0642 7.76404C45.2926 7.98042 45.4669 8.23537 45.5899 8.53879L47.4433 7.78738ZM47.7891 9.57812C47.7891 8.94698 47.676 8.34266 47.4389 7.7767L45.5943 8.54947C45.7205 8.8507 45.7891 9.18974 45.7891 9.57812H47.7891ZM47.5414 11.037C47.7048 10.5617 47.7891 10.0741 47.7891 9.57812H45.7891C45.7891 9.84386 45.7445 10.1121 45.65 10.3868L47.5414 11.037ZM46.921 12.3331C47.1776 11.9144 47.3854 11.4838 47.5398 11.0416L45.6516 10.3822C45.5482 10.6783 45.4044 10.9802 45.2158 11.288L46.921 12.3331ZM46.0771 13.5255C46.3986 13.1333 46.6827 12.7325 46.9271 12.323L45.2096 11.2981C45.0204 11.6151 44.7947 11.9351 44.5303 12.2577L46.0771 13.5255ZM45.1268 14.622C45.4613 14.2571 45.7785 13.8912 46.0782 13.5241L44.5292 12.2591C44.2547 12.5952 43.9625 12.9323 43.6525 13.2706L45.1268 14.622ZM41.6883 18.3508L45.1248 14.6242L43.6545 13.2684L40.218 16.9949L41.6883 18.3508ZM47.3779 16.6729H40.9531V18.6729H47.3779V16.6729ZM48.3779 19V17.6729H46.3779V19H48.3779ZM38.9932 20H47.3779V18H38.9932V20ZM41.4277 36.8193H42.5879V34.8193H41.4277V36.8193ZM42.4277 37.1377V35.8193H40.4277V37.1377H42.4277ZM42.5879 36.1377H41.4277V38.1377H42.5879V36.1377ZM43.9656 36.3155C43.5305 36.1934 43.0688 36.1377 42.5879 36.1377V38.1377C42.9155 38.1377 43.1921 38.1757 43.4251 38.2411L43.9656 36.3155ZM45.193 36.9376C44.8341 36.6415 44.4152 36.4395 43.9612 36.3143L43.4294 38.2423C43.6551 38.3046 43.8105 38.3898 43.9203 38.4804L45.193 36.9376ZM46.0257 38.0357C45.8347 37.6018 45.5536 37.2277 45.1837 36.93L43.9296 38.488C44.0402 38.577 44.1282 38.6892 44.195 38.8412L46.0257 38.0357ZM46.3125 39.4668C46.3125 38.958 46.2266 38.4632 46.0156 38.0136L44.2051 38.8634C44.2636 38.988 44.3125 39.1787 44.3125 39.4668H46.3125ZM46.0677 40.8866C46.2406 40.4456 46.3125 39.9649 46.3125 39.4668H44.3125C44.3125 39.7773 44.2672 39.9997 44.2057 40.1564L46.0677 40.8866ZM45.3399 41.9868C45.6692 41.6758 45.9109 41.2992 46.0715 40.8767L44.2019 40.1663C44.1398 40.3297 44.0593 40.4453 43.9667 40.5328L45.3399 41.9868ZM44.2049 42.6567C44.6299 42.515 45.0143 42.2943 45.3399 41.9868L43.9667 40.5328C43.8704 40.6237 43.7451 40.7018 43.5724 40.7593L44.2049 42.6567ZM42.8867 42.8486C43.3398 42.8486 43.7768 42.7912 44.188 42.6622L43.5893 40.7539C43.4029 40.8124 43.172 40.8486 42.8867 40.8486V42.8486ZM41.5489 42.6354C41.9728 42.7822 42.4221 42.8486 42.8867 42.8486V40.8486C42.613 40.8486 42.3885 40.8096 42.2031 40.7454L41.5489 42.6354ZM40.4356 41.9793C40.756 42.273 41.131 42.488 41.5432 42.6334L42.2088 40.7474C42.0233 40.682 41.8885 40.5981 41.7871 40.505L40.4356 41.9793ZM39.699 40.9306C39.8694 41.3312 40.1146 41.6851 40.4356 41.9793L41.7871 40.505C41.6862 40.4125 41.6032 40.2977 41.5393 40.1475L39.699 40.9306ZM39.4521 39.625C39.4521 40.0715 39.5269 40.5055 39.692 40.9139L41.5463 40.1643C41.4887 40.0219 41.4521 39.8464 41.4521 39.625H39.4521ZM38.8262 40.625H40.4521V38.625H38.8262V40.625ZM40.0441 40.6952C39.9073 40.4101 39.8262 40.0607 39.8262 39.625H37.8262C37.8262 40.3143 37.956 40.9668 38.2411 41.5607L40.0441 40.6952ZM40.6553 41.4779C40.4019 41.2654 40.1969 41.0048 40.0394 40.6855L38.2458 41.5704C38.5218 42.1299 38.8969 42.6135 39.3701 43.0103L40.6553 41.4779ZM41.6019 41.9864C41.2217 41.8642 40.9108 41.6923 40.6553 41.4779L39.3701 43.0103C39.8411 43.4054 40.3857 43.6963 40.9899 43.8905L41.6019 41.9864ZM42.8867 42.1758C42.4191 42.1758 41.9916 42.1102 41.5986 41.9854L40.9932 43.8915C41.5963 44.0831 42.2293 44.1758 42.8867 44.1758V42.1758ZM44.1701 41.981C43.7902 42.1077 43.3648 42.1758 42.8867 42.1758V44.1758C43.557 44.1758 44.1981 44.0798 44.8026 43.8784L44.1701 41.981ZM45.1215 41.4461C44.8647 41.6698 44.5502 41.8513 44.1634 41.9833L44.8092 43.8761C45.4186 43.6682 45.9654 43.3634 46.4351 42.9543L45.1215 41.4461ZM45.7166 40.6174C45.567 40.955 45.3663 41.229 45.1147 41.4521L46.4419 42.9483C46.917 42.5269 47.2846 42.0157 47.5451 41.4275L45.7166 40.6174ZM45.9385 39.4316C45.9385 39.9146 45.8559 40.303 45.7166 40.6174L47.5451 41.4275C47.816 40.8162 47.9385 40.144 47.9385 39.4316H45.9385ZM45.8596 38.773C45.9131 39.0003 45.9385 39.2194 45.9385 39.4316H47.9385C47.9385 39.058 47.8936 38.6852 47.8064 38.3149L45.8596 38.773ZM45.6355 38.2247C45.7457 38.3995 45.8167 38.5751 45.8555 38.7548L47.8105 38.3331C47.7204 37.9151 47.557 37.5224 47.3274 37.1581L45.6355 38.2247ZM45.203 37.7539C45.3991 37.9051 45.5345 38.059 45.6272 38.2114L47.3356 37.1715C47.1002 36.7847 46.7904 36.4523 46.424 36.1699L45.203 37.7539ZM44.4682 37.3859C44.7985 37.4929 45.0322 37.6195 45.1949 37.7477L46.432 36.1762C46.044 35.8707 45.5862 35.6458 45.0845 35.4832L44.4682 37.3859ZM45.003 35.1393C44.8482 35.2757 44.6471 35.4033 44.3862 35.5138L45.1665 37.3553C45.597 37.1729 45.9877 36.9372 46.3251 36.64L45.003 35.1393ZM45.4381 34.6458C45.3365 34.8039 45.1949 34.9697 45.0019 35.1403L46.3263 36.639C46.6371 36.3643 46.9057 36.0613 47.1205 35.7273L45.4381 34.6458ZM45.6701 34.1355C45.6219 34.3024 45.5451 34.4752 45.4324 34.6548L47.1262 35.7183C47.3299 35.3939 47.4874 35.0511 47.5916 34.6906L45.6701 34.1355ZM45.7451 33.6484C45.7451 33.7905 45.7232 33.9518 45.6701 34.1355L47.5916 34.6906C47.6908 34.347 47.7451 33.9985 47.7451 33.6484H45.7451ZM45.5404 32.4677C45.6679 32.7745 45.7451 33.1612 45.7451 33.6484H47.7451C47.7451 32.9521 47.6348 32.2958 47.3873 31.7002L45.5404 32.4677ZM45.0053 31.6948C45.2263 31.8929 45.4061 32.1445 45.5404 32.4677L47.3873 31.7002C47.1466 31.1211 46.7991 30.6169 46.3404 30.2056L45.0053 31.6948ZM44.1455 31.2168C44.4987 31.3302 44.7795 31.4923 45.0053 31.6948L46.3404 30.2056C45.8865 29.7987 45.3528 29.5038 44.7568 29.3125L44.1455 31.2168ZM42.8779 31.0273C43.3603 31.0273 43.7761 31.0937 44.1349 31.2133L44.7674 29.316C44.177 29.1192 43.544 29.0273 42.8779 29.0273V31.0273ZM41.6205 31.2416C41.9776 31.104 42.3926 31.0273 42.8779 31.0273V29.0273C42.1796 29.0273 41.5166 29.1382 40.901 29.3755L41.6205 31.2416ZM40.7034 31.7959C40.946 31.5698 41.2449 31.3837 41.6144 31.244L40.9071 29.3732C40.3156 29.5968 39.7884 29.9146 39.3396 30.333L40.7034 31.7959ZM40.1262 32.5967C40.2644 32.2868 40.4535 32.0247 40.6966 31.8021L39.3463 30.3268C38.8981 30.737 38.5481 31.225 38.2996 31.7822L40.1262 32.5967ZM39.9316 33.5605C39.9316 33.2066 39.999 32.8868 40.1288 32.5909L38.297 31.788C38.0517 32.3475 37.9316 32.9419 37.9316 33.5605H39.9316ZM40.5664 32.5605H38.9316V34.5605H40.5664V32.5605ZM39.8091 32.2735C39.6411 32.6804 39.5664 33.1145 39.5664 33.5605H41.5664C41.5664 33.3387 41.6031 33.1692 41.6577 33.037L39.8091 32.2735ZM40.5027 31.2434C40.2005 31.5367 39.97 31.8841 39.8091 32.2735L41.6577 33.037C41.7195 32.8873 41.7995 32.7719 41.8957 32.6785L40.5027 31.2434ZM41.5949 30.5789C41.1904 30.7221 40.8253 30.9391 40.5132 31.2333L41.8852 32.6885C41.9833 32.5961 42.1046 32.5201 42.2626 32.4641L41.5949 30.5789ZM42.8779 30.3633C42.4297 30.3633 41.9948 30.4319 41.5839 30.5828L42.2735 32.4602C42.4368 32.4002 42.6347 32.3633 42.8779 32.3633V30.3633ZM45.255 31.2275C44.6271 30.5996 43.7777 30.3633 42.8779 30.3633V32.3633C43.443 32.3633 43.7068 32.5078 43.8407 32.6417L45.255 31.2275ZM46.1191 33.6133C46.1191 32.7084 45.886 31.8487 45.2495 31.222L43.8462 32.6471C43.9714 32.7704 44.1191 33.0299 44.1191 33.6133H46.1191ZM45.8764 34.8827C46.0428 34.48 46.1191 34.0527 46.1191 33.6133H44.1191C44.1191 33.8184 44.0842 33.9829 44.0279 34.1192L45.8764 34.8827ZM45.1256 35.9416C45.4554 35.6474 45.7077 35.2912 45.8764 34.8827L44.0279 34.1192C43.9739 34.2498 43.8981 34.3565 43.7943 34.449L45.1256 35.9416ZM44.0009 36.5957C44.423 36.4471 44.8096 36.2314 45.1357 35.9325L43.7842 34.4582C43.6884 34.546 43.5477 34.6349 43.337 34.709L44.0009 36.5957ZM42.5879 36.8193C43.0862 36.8193 43.5649 36.752 44.0064 36.5937L43.3315 34.711C43.1519 34.7754 42.9099 34.8193 42.5879 34.8193V36.8193ZM68.9053 13.7021H67.1211V15.7021H68.9053V13.7021ZM69.9053 16.0293V14.7021H67.9053V16.0293H69.9053ZM67.1211 17.0293H68.9053V15.0293H67.1211V17.0293ZM68.1211 19V16.0293H66.1211V19H68.1211ZM65.4951 20H67.1211V18H65.4951V20ZM64.4951 16.0293V19H66.4951V16.0293H64.4951ZM59.6592 17.0293H65.4951V15.0293H59.6592V17.0293ZM58.6592 15.0713V16.0293H60.6592V15.0713H58.6592ZM64.5497 5.66039L58.8193 14.5286L60.4991 15.614L66.2296 6.74586L64.5497 5.66039ZM67.1211 5.20312H65.3896V7.20312H67.1211V5.20312ZM68.1211 14.7021V6.20312H66.1211V14.7021H68.1211ZM65.4951 13.7021H61.4609V15.7021H65.4951V13.7021ZM64.4951 8.36523V14.7021H66.4951V8.36523H64.4951ZM66.1129 9.32964L66.3766 8.83746L64.6136 7.89301L64.35 8.3852L66.1129 9.32964ZM62.3013 15.2442L66.0718 9.39952L64.3911 8.31532L60.6206 14.1601L62.3013 15.2442ZM62.1044 36.684L62.746 30.3032L60.756 30.1031L60.1144 36.4839L62.1044 36.684ZM62.6588 35.9494L61.3581 35.6154L60.8607 37.5526L62.1615 37.8866L62.6588 35.9494ZM62.2376 35.771C62.0767 35.89 61.914 36.0226 61.7495 36.1673L63.0708 37.6687C63.1993 37.5556 63.3178 37.4596 63.4264 37.3794L62.2376 35.771ZM62.8741 35.4065C62.6558 35.5035 62.4488 35.6212 62.254 35.7592L63.41 37.3912C63.4965 37.33 63.5883 37.2777 63.6864 37.2341L62.8741 35.4065ZM63.6287 35.1782C63.3674 35.2257 63.114 35.2999 62.8741 35.4065L63.6864 37.2341C63.7629 37.2001 63.8611 37.1688 63.9865 37.146L63.6287 35.1782ZM64.5107 35.1006C64.1939 35.1006 63.8889 35.1244 63.606 35.1827L64.0093 37.1416C64.1247 37.1178 64.2885 37.1006 64.5107 37.1006V35.1006ZM66.0207 35.4128C65.5514 35.1956 65.0406 35.1006 64.5107 35.1006V37.1006C64.8012 37.1006 65.0169 37.1521 65.1805 37.2278L66.0207 35.4128ZM67.1658 36.2832C66.8513 35.9092 66.4653 35.6187 66.0207 35.4128L65.1805 37.2278C65.3686 37.3149 65.5159 37.4287 65.635 37.5704L67.1658 36.2832ZM67.8444 37.5167C67.696 37.0558 67.47 36.6366 67.1584 36.2745L65.6424 37.579C65.7644 37.7208 65.8665 37.8992 65.9407 38.1298L67.8444 37.5167ZM68.0684 38.9395C68.0684 38.4418 67.9949 37.9603 67.8396 37.5022L65.9455 38.1443C66.0246 38.3775 66.0684 38.6402 66.0684 38.9395H68.0684ZM67.8693 40.4178C68.0062 39.9537 68.0684 39.4581 68.0684 38.9395H66.0684C66.0684 39.2998 66.0251 39.6009 65.951 39.8517L67.8693 40.4178ZM67.2357 41.6801C67.534 41.3051 67.7424 40.8733 67.8734 40.4032L65.9469 39.8663C65.8787 40.1111 65.7824 40.2945 65.6705 40.4351L67.2357 41.6801ZM66.1319 42.5513C66.5665 42.3467 66.9396 42.0546 67.2375 41.6779L65.6687 40.4374C65.5682 40.5645 65.4432 40.665 65.2803 40.7417L66.1319 42.5513ZM64.6777 42.8486C65.181 42.8486 65.668 42.7606 66.1172 42.5581L65.2949 40.7349C65.1465 40.8019 64.9479 40.8486 64.6777 40.8486V42.8486ZM62.3411 42.0468C62.9941 42.6041 63.8008 42.8486 64.6777 42.8486V40.8486C64.1835 40.8486 63.8652 40.7182 63.6394 40.5254L62.3411 42.0468ZM61.1997 39.7696C61.3228 40.6679 61.6719 41.468 62.3361 42.0425L63.6444 40.5298C63.4414 40.3542 63.2572 40.0528 63.1812 39.498L61.1997 39.7696ZM60.6436 40.6338H62.1904V38.6338H60.6436V40.6338ZM61.9639 40.7329C61.8024 40.4181 61.6872 40.0252 61.6387 39.5353L59.6484 39.7323C59.7171 40.426 59.889 41.0702 60.1845 41.646L61.9639 40.7329ZM62.5958 41.5235C62.3507 41.3225 62.1368 41.0613 61.9591 40.7237L60.1893 41.6552C60.4804 42.2082 60.8583 42.6853 61.328 43.0703L62.5958 41.5235ZM63.5029 42.0027C63.1537 41.8922 62.8522 41.7302 62.5897 41.5185L61.3342 43.0753C61.7982 43.4495 62.3228 43.727 62.8995 43.9095L63.5029 42.0027ZM64.6777 42.1758C64.251 42.1758 63.8612 42.116 63.5029 42.0027L62.8995 43.9095C63.4669 44.089 64.0615 44.1758 64.6777 44.1758V42.1758ZM66.067 41.9369C65.7113 42.0858 65.2562 42.1758 64.6777 42.1758V44.1758C65.4587 44.1758 66.1871 44.0548 66.8393 43.7818L66.067 41.9369ZM66.9486 41.3132C66.7283 41.565 66.4388 41.7769 66.0579 41.9408L66.8483 43.778C67.4753 43.5082 68.0178 43.1284 68.4537 42.6302L66.9486 41.3132ZM67.4943 40.3181C67.3686 40.7177 67.1847 41.044 66.9493 41.3124L68.453 42.631C68.8856 42.1377 69.1998 41.5616 69.4021 40.9183L67.4943 40.3181ZM67.6943 38.9219C67.6943 39.441 67.6246 39.9041 67.4943 40.3181L69.4021 40.9183C69.6 40.2893 69.6943 39.6215 69.6943 38.9219H67.6943ZM67.482 37.4803C67.6188 37.8909 67.6943 38.368 67.6943 38.9219H69.6943C69.6943 38.1866 69.594 37.4919 69.3793 36.8478L67.482 37.4803ZM66.9274 36.4837C67.1549 36.7397 67.3437 37.0653 67.482 37.4803L69.3793 36.8478C69.1661 36.2081 68.8509 35.6373 68.4222 35.155L66.9274 36.4837ZM66.0787 35.8654C66.4164 36.0131 66.6936 36.2166 66.9222 36.4778L68.4274 35.1608C67.9997 34.6721 67.4801 34.2955 66.8803 34.0331L66.0787 35.8654ZM64.8887 35.6416C65.364 35.6416 65.7546 35.7236 66.0787 35.8654L66.8803 34.0331C66.2669 33.7647 65.597 33.6416 64.8887 33.6416V35.6416ZM63.9689 35.7619C64.2016 35.6882 64.5033 35.6416 64.8887 35.6416V33.6416C64.3483 33.6416 63.8355 33.7063 63.3651 33.8553L63.9689 35.7619ZM63.2643 36.0598C63.4387 35.9584 63.6698 35.8567 63.9689 35.7619L63.3651 33.8553C62.9611 33.9832 62.5886 34.1392 62.2591 34.3308L63.2643 36.0598ZM62.1276 31.6801L61.7673 35.0902L63.7562 35.3004L64.1165 31.8902L62.1276 31.6801ZM68.3164 30.7852H63.1221V32.7852H68.3164V30.7852ZM67.3164 30.2031V31.7852H69.3164V30.2031H67.3164ZM61.751 31.2031H68.3164V29.2031H61.751V31.2031ZM88.5234 7.65332V6.19434H86.5234V7.65332H88.5234ZM87.3828 8.65332H87.5234V6.65332H87.3828V8.65332ZM86.1845 8.78807C86.5143 8.70223 86.9109 8.65332 87.3828 8.65332V6.65332C86.7766 6.65332 86.2064 6.71574 85.6807 6.85255L86.1845 8.78807ZM85.3309 9.13484C85.5605 8.99705 85.8428 8.87826 86.1878 8.78721L85.6775 6.85341C85.1787 6.98503 84.7168 7.17091 84.3019 7.41985L85.3309 9.13484ZM84.7361 9.62786C84.8979 9.44169 85.094 9.27696 85.3309 9.13484L84.3019 7.41985C83.8943 7.66444 83.5337 7.96261 83.2268 8.3155L84.7361 9.62786ZM84.3112 10.2756C84.4253 10.0385 84.567 9.8229 84.7371 9.62661L83.2258 8.31675C82.9388 8.6478 82.6997 9.01228 82.5092 9.40798L84.3112 10.2756ZM84.0316 11.0658C84.0972 10.7893 84.1904 10.5264 84.3112 10.2756L82.5092 9.40798C82.3252 9.79001 82.1841 10.1892 82.0856 10.6041L84.0316 11.0658ZM83.8982 11.9551C83.9181 11.653 83.9625 11.3567 84.0316 11.0658L82.0856 10.6041C81.9906 11.0046 81.9296 11.4115 81.9025 11.8242L83.8982 11.9551ZM82.8203 10.5943C82.5661 10.7887 82.3364 11.006 82.1342 11.247L83.6666 12.5323C83.7691 12.41 83.8909 12.2933 84.0352 12.183L82.8203 10.5943ZM83.6314 10.0854C83.3375 10.2286 83.0619 10.4022 82.8059 10.6056L84.0496 12.1718C84.192 12.0587 84.3442 11.9628 84.5073 11.8834L83.6314 10.0854ZM84.579 9.74052C84.2453 9.82207 83.9257 9.93817 83.6221 10.0899L84.5165 11.8788C84.6817 11.7962 84.8602 11.7307 85.0539 11.6833L84.579 9.74052ZM85.6602 9.60645C85.2864 9.60645 84.9201 9.6514 84.564 9.7443L85.0688 11.6795C85.2518 11.6318 85.448 11.6064 85.6602 11.6064V9.60645ZM87.7819 10.0926C87.1462 9.75464 86.4272 9.60645 85.6602 9.60645V11.6064C86.1705 11.6064 86.553 11.7043 86.8431 11.8586L87.7819 10.0926ZM89.2551 11.3336C88.8619 10.8094 88.3629 10.3941 87.7731 10.088L86.8519 11.8632C87.1879 12.0376 87.4506 12.261 87.6551 12.5336L89.2551 11.3336ZM90.0775 13.0183C89.9052 12.4009 89.6321 11.8363 89.2551 11.3336L87.6551 12.5336C87.8757 12.8278 88.0421 13.1655 88.1511 13.5559L90.0775 13.0183ZM90.3252 14.8252C90.3252 14.2126 90.2424 13.6094 90.0775 13.0183L88.1511 13.5559C88.2673 13.9726 88.3252 14.3949 88.3252 14.8252H90.3252ZM90.0221 16.8194C90.2264 16.1854 90.3252 15.5188 90.3252 14.8252H88.3252C88.3252 15.3269 88.2541 15.7853 88.1185 16.206L90.0221 16.8194ZM89.0896 18.5438C89.5139 18.0376 89.8242 17.4556 90.0252 16.8098L88.1155 16.2156C87.9883 16.6245 87.8006 16.9682 87.5569 17.259L89.0896 18.5438ZM87.4922 19.7419C88.1143 19.4565 88.6505 19.0599 89.0849 18.5493L87.5616 17.2534C87.328 17.528 87.0322 17.7525 86.6582 17.9241L87.4922 19.7419ZM85.3613 20.1758C86.1287 20.1758 86.8486 20.0407 87.4963 19.74L86.6541 17.926C86.3174 18.0823 85.8947 18.1758 85.3613 18.1758V20.1758ZM83.7578 19.9179C84.2632 20.094 84.8008 20.1758 85.3613 20.1758V18.1758C84.996 18.1758 84.6841 18.1228 84.416 18.0293L83.7578 19.9179ZM82.4586 19.2287C82.8491 19.5216 83.2828 19.7498 83.7533 19.9164L84.4205 18.0309C84.1293 17.9279 83.8774 17.7928 83.6586 17.6287L82.4586 19.2287ZM81.4481 18.188C81.7324 18.5816 82.0664 18.9271 82.4489 19.2213L83.6683 17.6361C83.4415 17.4616 83.2422 17.2563 83.0695 17.017L81.4481 18.188ZM80.7653 16.9697C80.9468 17.4026 81.1746 17.8093 81.4481 18.188L83.0695 17.017C82.886 16.763 82.7328 16.4899 82.6097 16.1963L80.7653 16.9697ZM80.3718 15.6397C80.4599 16.0937 80.5892 16.5332 80.7601 16.957L82.6149 16.209C82.4929 15.9063 82.3995 15.5899 82.3352 15.2587L80.3718 15.6397ZM80.2393 14.2715C80.2393 14.7292 80.2837 15.1855 80.3718 15.6397L82.3352 15.2587C82.271 14.9278 82.2393 14.5989 82.2393 14.2715H80.2393ZM80.2393 13.5068V14.2715H82.2393V13.5068H80.2393ZM80.3518 11.6299C80.2768 12.2551 80.2393 12.8808 80.2393 13.5068H82.2393C82.2393 12.961 82.272 12.4149 82.3376 11.8682L80.3518 11.6299ZM80.7719 9.74271C80.5758 10.3442 80.4366 10.9709 80.3529 11.6214L82.3365 11.8767C82.4052 11.3436 82.5179 10.8394 82.6734 10.3628L80.7719 9.74271ZM81.5913 8.00346C81.2463 8.54464 80.9733 9.12519 80.7719 9.74271L82.6734 10.3628C82.8236 9.90215 83.0251 9.47489 83.2778 9.07857L81.5913 8.00346ZM82.9514 6.51677C82.4073 6.93366 81.9513 7.4318 81.5883 8.0082L83.2808 9.07383C83.5155 8.70101 83.8095 8.37884 84.1678 8.10432L82.9514 6.51677ZM84.8827 5.54012C84.1633 5.76873 83.5162 6.08947 82.9563 6.51301L84.1628 8.10809C84.517 7.84022 84.9539 7.61604 85.4884 7.44621L84.8827 5.54012ZM87.3828 5.19434C86.4689 5.19434 85.6302 5.30262 84.8827 5.54012L85.4884 7.44621C85.9948 7.28527 86.621 7.19434 87.3828 7.19434V5.19434ZM87.5234 5.19434H87.3828V7.19434H87.5234V5.19434ZM84.9194 13.0383C85.0721 12.9862 85.2296 12.96 85.3965 12.96V10.96C85.0126 10.96 84.6369 11.0216 84.274 11.1453L84.9194 13.0383ZM84.4552 13.2761C84.5993 13.1737 84.7532 13.0949 84.9194 13.0383L84.274 11.1453C83.9245 11.2644 83.5979 11.4318 83.2968 11.6458L84.4552 13.2761ZM84.0821 13.6389C84.1925 13.4941 84.3166 13.3746 84.4552 13.2761L83.2968 11.6458C82.99 11.8637 82.7215 12.125 82.4922 12.4256L84.0821 13.6389ZM83.8208 14.1172C83.8868 13.9385 83.974 13.7804 84.0821 13.6389L82.4922 12.4256C82.2603 12.7293 82.078 13.0635 81.9448 13.4239L83.8208 14.1172ZM83.8828 14.3154V13.7705H81.8828V14.3154H83.8828ZM84.041 15.5252C83.941 15.1992 83.8828 14.7999 83.8828 14.3154H81.8828C81.8828 14.9559 81.9593 15.5586 82.1289 16.1115L84.041 15.5252ZM84.4242 16.3095C84.2801 16.1211 84.1468 15.8655 84.0399 15.5216L82.13 16.1152C82.2926 16.6384 82.5226 17.1152 82.8355 17.5244L84.4242 16.3095ZM84.8888 16.7188C84.7311 16.6353 84.5751 16.5068 84.4242 16.3095L82.8355 17.5244C83.1417 17.9249 83.513 18.2534 83.953 18.4863L84.8888 16.7188ZM85.3613 16.8311C85.1947 16.8311 85.0365 16.7939 84.8751 16.7116L83.9667 18.4934C84.403 18.7158 84.8717 18.8311 85.3613 18.8311V16.8311ZM85.9249 16.7169C85.7917 16.7835 85.6122 16.8311 85.3613 16.8311V18.8311C85.8722 18.8311 86.3665 18.7321 86.8193 18.5058L85.9249 16.7169ZM86.3191 16.3934C86.2123 16.5316 86.0841 16.6373 85.9249 16.7169L86.8193 18.5058C87.246 18.2924 87.61 17.9938 87.9016 17.6163L86.3191 16.3934ZM86.6041 15.8136C86.5359 16.0583 86.4396 16.2417 86.3278 16.3824L87.893 17.6274C88.1912 17.2524 88.3997 16.8206 88.5307 16.3505L86.6041 15.8136ZM86.7256 14.9043C86.7256 15.2425 86.6834 15.5403 86.607 15.8032L88.5277 16.3608C88.6623 15.8972 88.7256 15.4098 88.7256 14.9043H86.7256ZM86.6187 14.0721C86.6894 14.3371 86.7256 14.6136 86.7256 14.9043H88.7256C88.7256 14.445 88.668 13.995 88.5512 13.5568L86.6187 14.0721ZM86.3359 13.4399C86.4546 13.6089 86.5511 13.8144 86.6177 14.0682L88.5522 13.5607C88.4313 13.0996 88.2408 12.6724 87.9727 12.2906L86.3359 13.4399ZM85.9362 13.0786C86.098 13.1692 86.2285 13.287 86.3359 13.4399L87.9727 12.2906C87.6933 11.8927 87.3376 11.5711 86.9134 11.3335L85.9362 13.0786ZM85.3965 12.96C85.6471 12.96 85.816 13.0113 85.9362 13.0786L86.9134 11.3335C86.4477 11.0727 85.931 10.96 85.3965 10.96V12.96ZM88.7195 30.7099L83.4197 42.5927L85.2463 43.4073L90.5461 31.5245L88.7195 30.7099ZM88.6328 30.2031V31.1172H90.6328V30.2031H88.6328ZM80.9844 31.2031H89.6328V29.2031H80.9844V31.2031ZM81.9844 31.627V30.2031H79.9844V31.627H81.9844ZM87.9102 30.627H80.9844V32.627H87.9102V30.627ZM83.5349 43.4212L88.8171 32.0482L87.0032 31.2057L81.721 42.5788L83.5349 43.4212ZM84.333 42H82.6279V44H84.333V42ZM108.967 13.3133C109.681 12.9599 110.27 12.459 110.712 11.8117L109.06 10.6844C108.822 11.0331 108.503 11.3116 108.08 11.5207L108.967 13.3133ZM110.036 12.1635C109.698 11.8931 109.324 11.6719 108.917 11.4978L108.13 13.3361C108.38 13.4433 108.597 13.5737 108.786 13.7252L110.036 12.1635ZM110.918 13.0852C110.669 12.7273 110.367 12.4148 110.017 12.1485L108.806 13.7402C108.995 13.884 109.15 14.0462 109.276 14.2273L110.918 13.0852ZM111.49 14.2349C111.359 13.8174 111.164 13.429 110.909 13.0733L109.284 14.2392C109.416 14.4226 109.515 14.6201 109.582 14.8354L111.49 14.2349ZM111.694 15.5459C111.694 15.0887 111.627 14.6444 111.485 14.2189L109.587 14.8514C109.657 15.0588 109.694 15.2882 109.694 15.5459H111.694ZM111.27 17.5259C111.562 16.9197 111.694 16.2522 111.694 15.5459H109.694C109.694 15.9998 109.61 16.3635 109.468 16.6597L111.27 17.5259ZM110.143 19.0006C110.627 18.5935 111.005 18.0947 111.275 17.5163L109.463 16.6692C109.312 16.9932 109.11 17.2562 108.855 17.4701L110.143 19.0006ZM108.532 19.8872C109.132 19.6871 109.673 19.3943 110.142 19.0015L108.856 17.4692C108.598 17.6857 108.284 17.8617 107.9 17.9898L108.532 19.8872ZM106.634 20.1758C107.291 20.1758 107.922 20.0832 108.522 19.8905L107.91 17.9864C107.525 18.1102 107.102 18.1758 106.634 18.1758V20.1758ZM104.723 19.8915C105.328 20.0838 105.967 20.1758 106.634 20.1758V18.1758C106.152 18.1758 105.719 18.1096 105.328 17.9854L104.723 19.8915ZM103.097 19.0154C103.571 19.407 104.116 19.6967 104.719 19.8905L105.331 17.9864C104.95 17.8639 104.634 17.6907 104.37 17.4729L103.097 19.0154ZM101.966 17.5251C102.235 18.0999 102.607 18.5971 103.084 19.0043L104.383 17.484C104.133 17.27 103.931 17.0056 103.778 16.678L101.966 17.5251ZM101.556 15.5459C101.556 16.2526 101.683 16.9199 101.966 17.5251L103.778 16.678C103.639 16.3808 103.556 16.0111 103.556 15.5459H101.556ZM101.751 14.2349C101.619 14.6557 101.556 15.0945 101.556 15.5459H103.556C103.556 15.2825 103.592 15.0474 103.659 14.8354L101.751 14.2349ZM102.321 13.0767C102.069 13.4307 101.879 13.8203 101.75 14.2398L103.66 14.8305C103.73 14.6054 103.827 14.4091 103.951 14.2358L102.321 13.0767ZM103.188 12.1547C102.851 12.424 102.559 12.7344 102.315 13.0852L103.957 14.2273C104.088 14.039 104.247 13.8689 104.437 13.7164L103.188 12.1547ZM104.306 11.4891C103.9 11.6631 103.526 11.8843 103.188 12.1547L104.437 13.7164C104.627 13.5649 104.844 13.4345 105.094 13.3273L104.306 11.4891ZM103.29 12.6706C103.582 12.9179 103.904 13.1282 104.253 13.3026L105.147 11.5138C104.934 11.407 104.746 11.2832 104.581 11.1438L103.29 12.6706ZM102.52 11.798C102.731 12.1179 102.985 12.4054 103.278 12.661L104.593 11.1535C104.429 11.0106 104.296 10.8586 104.191 10.6981L102.52 11.798ZM102.03 10.741C102.144 11.1133 102.305 11.4637 102.514 11.7888L104.197 10.7073C104.089 10.5402 104.004 10.3574 103.943 10.1555L102.03 10.741ZM101.854 9.54297C101.854 9.95323 101.912 10.354 102.03 10.741L103.943 10.1555C103.885 9.96826 103.854 9.76552 103.854 9.54297H101.854ZM102.218 7.66071C101.967 8.23991 101.854 8.87381 101.854 9.54297H103.854C103.854 9.09884 103.929 8.74251 104.054 8.45453L102.218 7.66071ZM103.236 6.21085C102.794 6.61354 102.455 7.10401 102.216 7.66518L104.056 8.45006C104.191 8.13232 104.368 7.88451 104.583 7.68954L103.236 6.21085ZM104.769 5.31966C104.196 5.51779 103.683 5.81087 103.242 6.20495L104.576 7.69544C104.803 7.49187 105.081 7.32791 105.423 7.20963L104.769 5.31966ZM106.607 5.02734C105.965 5.02734 105.35 5.12079 104.772 5.31839L105.419 7.21091C105.767 7.0921 106.16 7.02734 106.607 7.02734V5.02734ZM108.434 5.31839C107.857 5.12116 107.245 5.02734 106.607 5.02734V7.02734C107.048 7.02734 107.438 7.09173 107.787 7.21091L108.434 5.31839ZM109.975 6.19922C109.529 5.80705 109.011 5.51552 108.434 5.31839L107.787 7.21091C108.136 7.33019 108.42 7.49568 108.654 7.70117L109.975 6.19922ZM111.03 7.65488C110.781 7.09046 110.431 6.59999 109.975 6.19922L108.654 7.70117C108.878 7.89806 109.061 8.14587 109.199 8.46036L111.03 7.65488ZM111.404 9.54297C111.404 8.86994 111.287 8.2323 111.028 7.65033L109.201 8.4649C109.328 8.75012 109.404 9.10272 109.404 9.54297H111.404ZM110.712 11.8117C111.17 11.1402 111.397 10.3764 111.404 9.55214L109.404 9.53379C109.4 9.98686 109.281 10.3598 109.06 10.6844L110.712 11.8117ZM107.959 14.9071C108.027 15.073 108.068 15.2701 108.068 15.5107H110.068C110.068 15.0366 109.986 14.5774 109.808 14.1456L107.959 14.9071ZM107.685 14.4784C107.794 14.5841 107.884 14.7169 107.953 14.8915L109.815 14.1613C109.649 13.7382 109.405 13.3612 109.08 13.045L107.685 14.4784ZM107.242 14.1941C107.424 14.2644 107.564 14.3573 107.676 14.4688L109.09 13.0546C108.768 12.7326 108.386 12.4915 107.96 12.3274L107.242 14.1941ZM106.616 14.085C106.863 14.085 107.065 14.125 107.235 14.1917L107.966 12.3298C107.538 12.1621 107.084 12.085 106.616 12.085V14.085ZM105.979 14.1917C106.146 14.1264 106.353 14.085 106.616 14.085V12.085C106.141 12.085 105.68 12.1607 105.249 12.3298L105.979 14.1917ZM105.566 14.4591C105.672 14.3505 105.805 14.2602 105.979 14.1917L105.249 12.3298C104.826 12.4957 104.449 12.7394 104.133 13.0644L105.566 14.4591ZM105.288 14.8915C105.359 14.711 105.45 14.5752 105.557 14.4688L104.143 13.0546C103.827 13.3702 103.59 13.7441 103.426 14.1613L105.288 14.8915ZM105.19 15.5107C105.19 15.2582 105.23 15.05 105.295 14.8755L103.42 14.1773C103.263 14.6004 103.19 15.0484 103.19 15.5107H105.19ZM105.292 16.1487C105.231 15.9874 105.19 15.7796 105.19 15.5107H103.19C103.19 15.9801 103.261 16.4345 103.423 16.8591L105.292 16.1487ZM105.536 16.5064C105.436 16.4118 105.35 16.2903 105.283 16.126L103.432 16.8818C103.599 17.2918 103.841 17.6566 104.163 17.9604L105.536 16.5064ZM105.947 16.7474C105.768 16.6841 105.637 16.6011 105.536 16.5064L104.163 17.9604C104.485 18.2641 104.863 18.4858 105.281 18.6334L105.947 16.7474ZM106.634 16.8486C106.352 16.8486 106.125 16.8091 105.941 16.7454L105.287 18.6354C105.713 18.7827 106.165 18.8486 106.634 18.8486V16.8486ZM107.285 16.7474C107.106 16.8107 106.892 16.8486 106.634 16.8486V18.8486C107.09 18.8486 107.533 18.7811 107.951 18.6334L107.285 16.7474ZM107.696 16.5064C107.596 16.6011 107.465 16.6841 107.285 16.7474L107.951 18.6334C108.369 18.4858 108.748 18.2641 109.069 17.9604L107.696 16.5064ZM107.958 16.126C107.893 16.2842 107.809 16.4028 107.706 16.4971L109.059 17.9697C109.39 17.6656 109.64 17.2979 109.81 16.8818L107.958 16.126ZM108.068 15.5107C108.068 15.7682 108.026 15.9645 107.962 16.1167L109.806 16.8911C109.988 16.4574 110.068 15.9916 110.068 15.5107H108.068ZM107.678 9.0634C107.735 9.19973 107.77 9.36426 107.77 9.56934H109.77C109.77 9.12988 109.693 8.70261 109.527 8.29988L107.678 9.0634ZM107.447 8.69441C107.537 8.78458 107.613 8.89734 107.671 9.04604L109.534 8.31724C109.381 7.92688 109.158 7.57675 108.861 7.2802L107.447 8.69441ZM107.106 8.45875C107.24 8.51224 107.342 8.58357 107.426 8.67267L108.882 7.30194C108.591 6.9926 108.243 6.75924 107.849 6.6018L107.106 8.45875ZM106.607 8.36328C106.804 8.36328 106.96 8.3974 107.089 8.45152L107.867 6.60902C107.467 6.44049 107.043 6.36328 106.607 6.36328V8.36328ZM106.125 8.44703C106.247 8.39696 106.403 8.36328 106.607 8.36328V6.36328C106.179 6.36328 105.761 6.43507 105.367 6.59594L106.125 8.44703ZM105.796 8.65708C105.88 8.57029 105.98 8.50318 106.106 8.45428L105.386 6.58869C104.997 6.739 104.651 6.96487 104.36 7.26479L105.796 8.65708ZM105.573 9.02171C105.634 8.86053 105.711 8.74451 105.796 8.65708L104.36 7.26479C104.07 7.56409 103.854 7.91682 103.705 8.30642L105.573 9.02171ZM105.489 9.56934C105.489 9.33479 105.524 9.15286 105.577 9.01071L103.701 8.31741C103.554 8.71433 103.489 9.13591 103.489 9.56934H105.489ZM105.577 10.128C105.524 9.98582 105.489 9.80388 105.489 9.56934H103.489C103.489 10.0028 103.554 10.4243 103.701 10.8213L105.577 10.128ZM105.796 10.464C105.704 10.3692 105.627 10.2526 105.567 10.1032L103.71 10.846C103.861 11.2239 104.077 11.5644 104.36 11.8563L105.796 10.464ZM106.134 10.6741C105.99 10.6152 105.873 10.5379 105.774 10.4423L104.382 11.8781C104.67 12.1574 105.004 12.3731 105.376 12.5252L106.134 10.6741ZM106.625 10.749C106.415 10.749 106.246 10.7162 106.108 10.6641L105.401 12.5351C105.791 12.6823 106.203 12.749 106.625 12.749V10.749ZM107.133 10.6641C106.993 10.7169 106.827 10.749 106.625 10.749V12.749C107.044 12.749 107.452 12.6815 107.84 12.5351L107.133 10.6641ZM107.456 10.453C107.371 10.5381 107.262 10.6123 107.115 10.6711L107.858 12.5281C108.238 12.3759 108.58 12.1572 108.87 11.8673L107.456 10.453ZM107.68 10.1014C107.622 10.2501 107.546 10.3629 107.456 10.453L108.87 11.8673C109.167 11.5707 109.39 11.2206 109.543 10.8302L107.68 10.1014ZM107.77 9.56934C107.77 9.78931 107.734 9.96248 107.68 10.1014L109.543 10.8302C109.699 10.4301 109.77 10.0056 109.77 9.56934H107.77ZM106.041 42.3816C106.556 42.258 107.031 42.0796 107.453 41.8341L106.447 40.1054C106.225 40.2349 105.938 40.3494 105.574 40.4368L106.041 42.3816ZM104.278 42.5586C104.913 42.5586 105.499 42.5044 106.029 42.3844L105.587 40.4339C105.237 40.5132 104.804 40.5586 104.278 40.5586V42.5586ZM104.111 42.5586H104.278V40.5586H104.111V42.5586ZM105.111 43.0088V41.5586H103.111V43.0088H105.111ZM104.278 42.0088H104.111V44.0088H104.278V42.0088ZM106.269 41.7482C105.747 41.9142 105.09 42.0088 104.278 42.0088V44.0088C105.236 44.0088 106.108 43.8983 106.875 43.6541L106.269 41.7482ZM107.601 41.0774C107.259 41.3443 106.821 41.5726 106.269 41.7482L106.875 43.6541C107.613 43.4196 108.271 43.0912 108.83 42.655L107.601 41.0774ZM108.457 40.1212C108.242 40.4795 107.96 40.798 107.601 41.0774L108.83 42.655C109.374 42.2313 109.824 41.7294 110.172 41.1502L108.457 40.1212ZM109.003 38.8493C108.874 39.3006 108.692 39.7254 108.454 40.1259L110.175 41.1455C110.5 40.5968 110.751 40.0139 110.926 39.3987L109.003 38.8493ZM109.286 37.3793C109.239 37.8843 109.145 38.3707 109.006 38.8396L110.924 39.4085C111.101 38.811 111.218 38.1958 111.277 37.5641L109.286 37.3793ZM109.36 35.793C109.36 36.3057 109.336 36.8347 109.285 37.3802L111.277 37.5631C111.332 36.9603 111.36 36.3701 111.36 35.793H109.36ZM109.36 35.2041V35.793H111.36V35.2041H109.36ZM109.275 34.1004C109.332 34.4656 109.36 34.8334 109.36 35.2041H111.36C111.36 34.7311 111.324 34.2609 111.252 33.7942L109.275 34.1004ZM109.018 33.0895C109.134 33.404 109.22 33.7397 109.275 34.0983L111.252 33.7962C111.178 33.3111 111.059 32.844 110.894 32.3968L109.018 33.0895ZM108.594 32.2222C108.764 32.4783 108.903 32.7606 109.012 33.0722L110.9 32.4141C110.739 31.9523 110.527 31.5198 110.263 31.1196L108.594 32.2222ZM108.027 31.5948C108.244 31.7656 108.431 31.9707 108.59 32.2154L110.267 31.1264C109.993 30.7031 109.658 30.334 109.266 30.0243L108.027 31.5948ZM107.28 31.1856C107.574 31.2848 107.813 31.4189 108.011 31.5815L109.282 30.0376C108.882 29.708 108.424 29.4612 107.921 29.291L107.28 31.1856ZM106.273 31.0273C106.671 31.0273 106.997 31.0841 107.263 31.1797L107.938 29.2969C107.419 29.1112 106.86 29.0273 106.273 29.0273V31.0273ZM104.976 31.2884C105.316 31.1246 105.74 31.0273 106.273 31.0273V29.0273C105.495 29.0273 104.764 29.1703 104.108 29.487L104.976 31.2884ZM104.074 31.9826C104.311 31.6952 104.606 31.4648 104.972 31.2906L104.112 29.4848C103.494 29.7794 102.962 30.1876 102.532 30.7088L104.074 31.9826ZM103.509 33.0526C103.644 32.6242 103.836 32.2718 104.075 31.9814L102.531 30.71C102.114 31.2165 101.807 31.8016 101.602 32.4513L103.509 33.0526ZM103.31 34.457C103.31 33.9451 103.379 33.4765 103.511 33.046L101.6 32.4579C101.404 33.0938 101.31 33.762 101.31 34.457H103.31ZM103.485 35.7292C103.367 35.3038 103.31 34.8805 103.31 34.457H101.31C101.31 35.0648 101.393 35.6669 101.557 36.261L103.485 35.7292ZM103.984 36.7718C103.762 36.4713 103.594 36.1268 103.485 35.7292L101.557 36.261C101.728 36.883 102 37.4525 102.376 37.9606L103.984 36.7718ZM104.796 37.4748C104.46 37.2897 104.194 37.0558 103.984 36.7718L102.376 37.9606C102.763 38.4852 103.252 38.9075 103.831 39.2263L104.796 37.4748ZM105.957 37.7197C105.454 37.7197 105.074 37.6225 104.783 37.4676L103.844 39.2336C104.479 39.5709 105.194 39.7197 105.957 39.7197V37.7197ZM106.634 37.6494C106.445 37.6938 106.22 37.7197 105.957 37.7197V39.7197C106.35 39.7197 106.729 39.6812 107.09 39.5967L106.634 37.6494ZM107.171 37.452C107.018 37.5302 106.836 37.5988 106.62 37.6529L107.105 39.5932C107.451 39.5067 107.779 39.3878 108.083 39.2316L107.171 37.452ZM107.6 37.1713C107.48 37.2718 107.338 37.3661 107.171 37.452L108.083 39.2316C108.373 39.0831 108.641 38.9079 108.885 38.7037L107.6 37.1713ZM107.945 36.8118C107.844 36.9377 107.725 37.0618 107.585 37.1834L108.899 38.6916C109.123 38.4968 109.326 38.2869 109.506 38.0612L107.945 36.8118ZM109.586 38.6745C109.658 38.2837 109.705 37.8873 109.724 37.4856L107.727 37.3874C107.711 37.7006 107.676 38.0073 107.619 38.3079L109.586 38.6745ZM109.206 39.8793C109.38 39.4954 109.506 39.0942 109.585 38.6775L107.62 38.3049C107.57 38.5679 107.491 38.8171 107.384 39.0543L109.206 39.8793ZM108.533 40.9541C108.81 40.6249 109.036 40.2633 109.209 39.8713L107.38 39.0623C107.284 39.2797 107.159 39.4806 107.002 39.6669L108.533 40.9541ZM107.446 41.838C107.86 41.6016 108.225 41.3121 108.526 40.9628L107.01 39.6583C106.877 39.8129 106.697 39.9629 106.454 40.1015L107.446 41.838ZM106.221 38.375C106.605 38.375 106.98 38.3134 107.343 38.1897L106.698 36.2967C106.545 36.3487 106.388 36.375 106.221 36.375V38.375ZM104.691 37.9851C105.159 38.2567 105.68 38.375 106.221 38.375V36.375C105.976 36.375 105.812 36.3234 105.694 36.2551L104.691 37.9851ZM103.648 37.0011C103.919 37.3963 104.262 37.7229 104.67 37.973L105.715 36.2673C105.549 36.1657 105.411 36.0354 105.296 35.868L103.648 37.0011ZM103.083 35.7303C103.202 36.1849 103.385 36.6077 103.64 36.9893L105.304 35.8799C105.183 35.699 105.085 35.4831 105.017 35.2228L103.083 35.7303ZM102.909 34.3691C102.909 34.8285 102.967 35.2816 103.082 35.7264L105.018 35.2267C104.945 34.945 104.909 34.6598 104.909 34.3691H102.909ZM103.107 32.9126C102.972 33.3762 102.909 33.8636 102.909 34.3691H104.909C104.909 34.0309 104.951 33.7331 105.028 33.4702L103.107 32.9126ZM103.727 31.6394C103.442 32.0159 103.24 32.4479 103.106 32.9167L105.029 33.4661C105.106 33.1966 105.208 32.9958 105.322 32.845L103.727 31.6394ZM104.81 30.7222C104.383 30.9444 104.021 31.2528 103.729 31.6367L105.32 32.8477C105.438 32.6925 105.574 32.5791 105.733 32.4966L104.81 30.7222ZM106.282 30.3809C105.766 30.3809 105.266 30.4851 104.81 30.7222L105.733 32.4966C105.863 32.429 106.037 32.3809 106.282 32.3809V30.3809ZM107.711 30.7544C107.27 30.5073 106.788 30.3809 106.282 30.3809V32.3809C106.444 32.3809 106.59 32.4185 106.734 32.4995L107.711 30.7544ZM108.818 31.7562C108.518 31.3389 108.149 30.9947 107.704 30.7504L106.741 32.5035C106.894 32.5874 107.046 32.7177 107.192 32.9216L108.818 31.7562ZM109.502 33.1858C109.346 32.6488 109.12 32.1588 108.805 31.7389L107.205 32.9389C107.347 33.1284 107.478 33.3883 107.58 33.7419L109.502 33.1858ZM109.743 34.9844C109.743 34.3388 109.667 33.7315 109.498 33.1742L107.584 33.7535C107.685 34.0868 107.743 34.4933 107.743 34.9844H109.743ZM109.743 35.5117V34.9844H107.743V35.5117H109.743ZM109.123 36.8773C109.362 36.5658 109.549 36.2226 109.684 35.8519L107.803 35.1716C107.738 35.3516 107.649 35.5124 107.537 35.6579L109.123 36.8773ZM108.348 37.6514C108.641 37.4274 108.901 37.1678 109.125 36.8743L107.535 35.6609C107.419 35.8127 107.286 35.9457 107.135 36.0615L108.348 37.6514ZM107.356 38.1854C107.713 38.0584 108.044 37.8814 108.345 37.6539L107.138 36.059C107.005 36.1596 106.856 36.2404 106.685 36.3009L107.356 38.1854ZM29.6016 98.8145H45.6328V96.8145H29.6016V98.8145ZM28.6016 94V97.8145H30.6016V94H28.6016ZM45.6328 93H29.6016V95H45.6328V93ZM46.6328 97.8145V94H44.6328V97.8145H46.6328ZM88.6328 96.8145H72.6016V98.8145H88.6328V96.8145ZM87.6328 94V97.8145H89.6328V94H87.6328ZM72.6016 95H88.6328V93H72.6016V95ZM73.6016 97.8145V94H71.6016V97.8145H73.6016Z" fill="white" mask="url(#path-5-outside-3)"/>
</svg>
