<svg width="720" height="128" viewBox="0 0 720 128" fill="none" xmlns="http://www.w3.org/2000/svg">
<rect x="0.5" y="0.5" width="719" height="127" rx="3.5" fill="#C8E6FF"/>
<rect x="0.5" y="0.5" width="719" height="127" rx="3.5" stroke="#006590"/>
<rect width="96" height="128" transform="translate(376)" fill="#006590" fill-opacity="0.16"/>
<rect x="376.5" y="28.5" width="95" height="71" rx="1.5" fill="white"/>
<rect x="376.5" y="28.5" width="95" height="71" rx="1.5" stroke="#001E2E" stroke-linecap="square" stroke-dasharray="6 6"/>
<path d="M409.818 57.8636V69.5H408.409V57.8636H409.818ZM416.257 60.7727V61.9091H411.734V60.7727H416.257ZM413.053 58.6818H414.393V67C414.393 67.3788 414.448 67.6629 414.558 67.8523C414.672 68.0379 414.816 68.1629 414.99 68.2273C415.168 68.2879 415.356 68.3182 415.553 68.3182C415.7 68.3182 415.821 68.3106 415.916 68.2955C416.011 68.2765 416.087 68.2614 416.143 68.25L416.416 69.4545C416.325 69.4886 416.198 69.5227 416.036 69.5568C415.873 69.5947 415.666 69.6136 415.416 69.6136C415.037 69.6136 414.666 69.5322 414.303 69.3693C413.943 69.2064 413.643 68.9583 413.405 68.625C413.17 68.2917 413.053 67.8712 413.053 67.3636V58.6818ZM421.839 69.6818C420.999 69.6818 420.273 69.4962 419.663 69.125C419.057 68.75 418.589 68.2273 418.26 67.5568C417.934 66.8826 417.771 66.0985 417.771 65.2045C417.771 64.3106 417.934 63.5227 418.26 62.8409C418.589 62.1553 419.048 61.6212 419.635 61.2386C420.226 60.8523 420.915 60.6591 421.703 60.6591C422.158 60.6591 422.607 60.7348 423.05 60.8864C423.493 61.0379 423.896 61.2841 424.26 61.625C424.624 61.9621 424.913 62.4091 425.129 62.9659C425.345 63.5227 425.453 64.2083 425.453 65.0227V65.5909H418.726V64.4318H424.089C424.089 63.9394 423.991 63.5 423.794 63.1136C423.601 62.7273 423.324 62.4223 422.964 62.1989C422.608 61.9754 422.188 61.8636 421.703 61.8636C421.169 61.8636 420.707 61.9962 420.317 62.2614C419.93 62.5227 419.633 62.8636 419.425 63.2841C419.216 63.7045 419.112 64.1553 419.112 64.6364V65.4091C419.112 66.0682 419.226 66.6269 419.453 67.0852C419.684 67.5398 420.004 67.8864 420.413 68.125C420.822 68.3598 421.298 68.4773 421.839 68.4773C422.192 68.4773 422.51 68.428 422.794 68.3295C423.082 68.2273 423.33 68.0758 423.538 67.875C423.747 67.6705 423.908 67.4167 424.021 67.1136L425.317 67.4773C425.18 67.9167 424.951 68.303 424.629 68.6364C424.307 68.9659 423.91 69.2235 423.436 69.4091C422.963 69.5909 422.43 69.6818 421.839 69.6818ZM427.493 69.5V60.7727H428.788V62.1364H428.902C429.084 61.6705 429.377 61.3087 429.783 61.0511C430.188 60.7898 430.675 60.6591 431.243 60.6591C431.819 60.6591 432.298 60.7898 432.68 61.0511C433.067 61.3087 433.368 61.6705 433.584 62.1364H433.675C433.898 61.6856 434.233 61.3277 434.68 61.0625C435.127 60.7936 435.663 60.6591 436.288 60.6591C437.069 60.6591 437.707 60.9034 438.203 61.392C438.699 61.8769 438.947 62.6326 438.947 63.6591V69.5H437.607V63.6591C437.607 63.0152 437.43 62.5549 437.078 62.2784C436.726 62.0019 436.311 61.8636 435.834 61.8636C435.22 61.8636 434.745 62.0492 434.408 62.4205C434.071 62.7879 433.902 63.2538 433.902 63.8182V69.5H432.538V63.5227C432.538 63.0265 432.377 62.6269 432.055 62.3239C431.733 62.017 431.319 61.8636 430.811 61.8636C430.463 61.8636 430.137 61.9564 429.834 62.142C429.535 62.3277 429.292 62.5852 429.107 62.9148C428.925 63.2405 428.834 63.6174 428.834 64.0455V69.5H427.493Z" fill="#0B1D28"/>
<rect width="72" height="128" transform="translate(488)" fill="#006590" fill-opacity="0.16"/>
<rect x="488.5" y="0.5" width="71" height="127" rx="1.5" fill="white"/>
<rect x="488.5" y="0.5" width="71" height="127" rx="1.5" stroke="#001E2E" stroke-linecap="square" stroke-dasharray="6 6"/>
<path d="M509.818 57.8636V69.5H508.409V57.8636H509.818ZM516.257 60.7727V61.9091H511.734V60.7727H516.257ZM513.053 58.6818H514.393V67C514.393 67.3788 514.448 67.6629 514.558 67.8523C514.672 68.0379 514.816 68.1629 514.99 68.2273C515.168 68.2879 515.356 68.3182 515.553 68.3182C515.7 68.3182 515.821 68.3106 515.916 68.2955C516.011 68.2765 516.087 68.2614 516.143 68.25L516.416 69.4545C516.325 69.4886 516.198 69.5227 516.036 69.5568C515.873 69.5947 515.666 69.6136 515.416 69.6136C515.037 69.6136 514.666 69.5322 514.303 69.3693C513.943 69.2064 513.643 68.9583 513.405 68.625C513.17 68.2917 513.053 67.8712 513.053 67.3636V58.6818ZM521.839 69.6818C520.999 69.6818 520.273 69.4962 519.663 69.125C519.057 68.75 518.589 68.2273 518.26 67.5568C517.934 66.8826 517.771 66.0985 517.771 65.2045C517.771 64.3106 517.934 63.5227 518.26 62.8409C518.589 62.1553 519.048 61.6212 519.635 61.2386C520.226 60.8523 520.915 60.6591 521.703 60.6591C522.158 60.6591 522.607 60.7348 523.05 60.8864C523.493 61.0379 523.896 61.2841 524.26 61.625C524.624 61.9621 524.913 62.4091 525.129 62.9659C525.345 63.5227 525.453 64.2083 525.453 65.0227V65.5909H518.726V64.4318H524.089C524.089 63.9394 523.991 63.5 523.794 63.1136C523.601 62.7273 523.324 62.4223 522.964 62.1989C522.608 61.9754 522.188 61.8636 521.703 61.8636C521.169 61.8636 520.707 61.9962 520.317 62.2614C519.93 62.5227 519.633 62.8636 519.425 63.2841C519.216 63.7045 519.112 64.1553 519.112 64.6364V65.4091C519.112 66.0682 519.226 66.6269 519.453 67.0852C519.684 67.5398 520.004 67.8864 520.413 68.125C520.822 68.3598 521.298 68.4773 521.839 68.4773C522.192 68.4773 522.51 68.428 522.794 68.3295C523.082 68.2273 523.33 68.0758 523.538 67.875C523.747 67.6705 523.908 67.4167 524.021 67.1136L525.317 67.4773C525.18 67.9167 524.951 68.303 524.629 68.6364C524.307 68.9659 523.91 69.2235 523.436 69.4091C522.963 69.5909 522.43 69.6818 521.839 69.6818ZM527.493 69.5V60.7727H528.788V62.1364H528.902C529.084 61.6705 529.377 61.3087 529.783 61.0511C530.188 60.7898 530.675 60.6591 531.243 60.6591C531.819 60.6591 532.298 60.7898 532.68 61.0511C533.067 61.3087 533.368 61.6705 533.584 62.1364H533.675C533.898 61.6856 534.233 61.3277 534.68 61.0625C535.127 60.7936 535.663 60.6591 536.288 60.6591C537.069 60.6591 537.707 60.9034 538.203 61.392C538.699 61.8769 538.947 62.6326 538.947 63.6591V69.5H537.607V63.6591C537.607 63.0152 537.43 62.5549 537.078 62.2784C536.726 62.0019 536.311 61.8636 535.834 61.8636C535.22 61.8636 534.745 62.0492 534.408 62.4205C534.071 62.7879 533.902 63.2538 533.902 63.8182V69.5H532.538V63.5227C532.538 63.0265 532.377 62.6269 532.055 62.3239C531.733 62.017 531.319 61.8636 530.811 61.8636C530.463 61.8636 530.137 61.9564 529.834 62.142C529.535 62.3277 529.292 62.5852 529.107 62.9148C528.925 63.2405 528.834 63.6174 528.834 64.0455V69.5H527.493Z" fill="#0B1D28"/>
<rect width="144" height="128" transform="translate(576)" fill="#006590" fill-opacity="0.16"/>
<rect x="576.5" y="28.5" width="143" height="71" rx="1.5" fill="white"/>
<rect x="576.5" y="28.5" width="143" height="71" rx="1.5" stroke="#001E2E" stroke-linecap="square" stroke-dasharray="6 6"/>
<path d="M633.818 57.8636V69.5H632.409V57.8636H633.818ZM640.257 60.7727V61.9091H635.734V60.7727H640.257ZM637.053 58.6818H638.393V67C638.393 67.3788 638.448 67.6629 638.558 67.8523C638.672 68.0379 638.816 68.1629 638.99 68.2273C639.168 68.2879 639.356 68.3182 639.553 68.3182C639.7 68.3182 639.821 68.3106 639.916 68.2955C640.011 68.2765 640.087 68.2614 640.143 68.25L640.416 69.4545C640.325 69.4886 640.198 69.5227 640.036 69.5568C639.873 69.5947 639.666 69.6136 639.416 69.6136C639.037 69.6136 638.666 69.5322 638.303 69.3693C637.943 69.2064 637.643 68.9583 637.405 68.625C637.17 68.2917 637.053 67.8712 637.053 67.3636V58.6818ZM645.839 69.6818C644.999 69.6818 644.273 69.4962 643.663 69.125C643.057 68.75 642.589 68.2273 642.26 67.5568C641.934 66.8826 641.771 66.0985 641.771 65.2045C641.771 64.3106 641.934 63.5227 642.26 62.8409C642.589 62.1553 643.048 61.6212 643.635 61.2386C644.226 60.8523 644.915 60.6591 645.703 60.6591C646.158 60.6591 646.607 60.7348 647.05 60.8864C647.493 61.0379 647.896 61.2841 648.26 61.625C648.624 61.9621 648.913 62.4091 649.129 62.9659C649.345 63.5227 649.453 64.2083 649.453 65.0227V65.5909H642.726V64.4318H648.089C648.089 63.9394 647.991 63.5 647.794 63.1136C647.601 62.7273 647.324 62.4223 646.964 62.1989C646.608 61.9754 646.188 61.8636 645.703 61.8636C645.169 61.8636 644.707 61.9962 644.317 62.2614C643.93 62.5227 643.633 62.8636 643.425 63.2841C643.216 63.7045 643.112 64.1553 643.112 64.6364V65.4091C643.112 66.0682 643.226 66.6269 643.453 67.0852C643.684 67.5398 644.004 67.8864 644.413 68.125C644.822 68.3598 645.298 68.4773 645.839 68.4773C646.192 68.4773 646.51 68.428 646.794 68.3295C647.082 68.2273 647.33 68.0758 647.538 67.875C647.747 67.6705 647.908 67.4167 648.021 67.1136L649.317 67.4773C649.18 67.9167 648.951 68.303 648.629 68.6364C648.307 68.9659 647.91 69.2235 647.436 69.4091C646.963 69.5909 646.43 69.6818 645.839 69.6818ZM651.493 69.5V60.7727H652.788V62.1364H652.902C653.084 61.6705 653.377 61.3087 653.783 61.0511C654.188 60.7898 654.675 60.6591 655.243 60.6591C655.819 60.6591 656.298 60.7898 656.68 61.0511C657.067 61.3087 657.368 61.6705 657.584 62.1364H657.675C657.898 61.6856 658.233 61.3277 658.68 61.0625C659.127 60.7936 659.663 60.6591 660.288 60.6591C661.069 60.6591 661.707 60.9034 662.203 61.392C662.699 61.8769 662.947 62.6326 662.947 63.6591V69.5H661.607V63.6591C661.607 63.0152 661.43 62.5549 661.078 62.2784C660.726 62.0019 660.311 61.8636 659.834 61.8636C659.22 61.8636 658.745 62.0492 658.408 62.4205C658.071 62.7879 657.902 63.2538 657.902 63.8182V69.5H656.538V63.5227C656.538 63.0265 656.377 62.6269 656.055 62.3239C655.733 62.017 655.319 61.8636 654.811 61.8636C654.463 61.8636 654.137 61.9564 653.834 62.142C653.535 62.3277 653.292 62.5852 653.107 62.9148C652.925 63.2405 652.834 63.6174 652.834 64.0455V69.5H651.493Z" fill="#0B1D28"/>
</svg>
