<svg width="720" height="128" viewBox="0 0 720 128" fill="none" xmlns="http://www.w3.org/2000/svg">
<g clip-path="url(#clip0_7804_9568)">
<rect width="720" height="128" rx="4" fill="#C8E6FF"/>
<rect width="96" height="128" fill="#006590" fill-opacity="0.16"/>
<rect x="0.5" y="28.5" width="95" height="71" rx="1.5" fill="white"/>
<rect x="0.5" y="28.5" width="95" height="71" rx="1.5" stroke="#001E2E" stroke-linecap="square" stroke-dasharray="6 6"/>
<path d="M33.8182 57.8636V69.5H32.4091V57.8636H33.8182ZM40.2571 60.7727V61.9091H35.7344V60.7727H40.2571ZM37.0526 58.6818H38.3935V67C38.3935 67.3788 38.4484 67.6629 38.5582 67.8523C38.6719 68.0379 38.8158 68.1629 38.9901 68.2273C39.1681 68.2879 39.3556 68.3182 39.5526 68.3182C39.7003 68.3182 39.8215 68.3106 39.9162 68.2955C40.0109 68.2765 40.0866 68.2614 40.1435 68.25L40.4162 69.4545C40.3253 69.4886 40.1984 69.5227 40.0355 69.5568C39.8726 69.5947 39.6662 69.6136 39.4162 69.6136C39.0374 69.6136 38.6662 69.5322 38.3026 69.3693C37.9427 69.2064 37.6435 68.9583 37.4048 68.625C37.17 68.2917 37.0526 67.8712 37.0526 67.3636V58.6818ZM45.8395 69.6818C44.9986 69.6818 44.2732 69.4962 43.6634 69.125C43.0573 68.75 42.5895 68.2273 42.2599 67.5568C41.9342 66.8826 41.7713 66.0985 41.7713 65.2045C41.7713 64.3106 41.9342 63.5227 42.2599 62.8409C42.5895 62.1553 43.0478 61.6212 43.6349 61.2386C44.2259 60.8523 44.9152 60.6591 45.7031 60.6591C46.1577 60.6591 46.6065 60.7348 47.0497 60.8864C47.4929 61.0379 47.8963 61.2841 48.2599 61.625C48.6236 61.9621 48.9134 62.4091 49.1293 62.9659C49.3452 63.5227 49.4531 64.2083 49.4531 65.0227V65.5909H42.7259V64.4318H48.0895C48.0895 63.9394 47.991 63.5 47.794 63.1136C47.6009 62.7273 47.3243 62.4223 46.9645 62.1989C46.6084 61.9754 46.188 61.8636 45.7031 61.8636C45.169 61.8636 44.7069 61.9962 44.3168 62.2614C43.9304 62.5227 43.633 62.8636 43.4247 63.2841C43.2164 63.7045 43.1122 64.1553 43.1122 64.6364V65.4091C43.1122 66.0682 43.2259 66.6269 43.4531 67.0852C43.6842 67.5398 44.0043 67.8864 44.4134 68.125C44.8224 68.3598 45.2978 68.4773 45.8395 68.4773C46.1918 68.4773 46.5099 68.428 46.794 68.3295C47.0819 68.2273 47.33 68.0758 47.5384 67.875C47.7467 67.6705 47.9077 67.4167 48.0213 67.1136L49.3168 67.4773C49.1804 67.9167 48.9512 68.303 48.6293 68.6364C48.3073 68.9659 47.9096 69.2235 47.4361 69.4091C46.9626 69.5909 46.4304 69.6818 45.8395 69.6818ZM51.4929 69.5V60.7727H52.7884V62.1364H52.902C53.0838 61.6705 53.3774 61.3087 53.7827 61.0511C54.188 60.7898 54.6747 60.6591 55.2429 60.6591C55.8187 60.6591 56.2978 60.7898 56.6804 61.0511C57.0668 61.3087 57.3679 61.6705 57.5838 62.1364H57.6747C57.8982 61.6856 58.2334 61.3277 58.6804 61.0625C59.1274 60.7936 59.6634 60.6591 60.2884 60.6591C61.0687 60.6591 61.7069 60.9034 62.2031 61.392C62.6993 61.8769 62.9474 62.6326 62.9474 63.6591V69.5H61.6065V63.6591C61.6065 63.0152 61.4304 62.5549 61.0781 62.2784C60.7259 62.0019 60.3111 61.8636 59.8338 61.8636C59.2202 61.8636 58.7448 62.0492 58.4077 62.4205C58.0705 62.7879 57.902 63.2538 57.902 63.8182V69.5H56.5384V63.5227C56.5384 63.0265 56.3774 62.6269 56.0554 62.3239C55.7334 62.017 55.3187 61.8636 54.8111 61.8636C54.4626 61.8636 54.1368 61.9564 53.8338 62.142C53.5346 62.3277 53.2921 62.5852 53.1065 62.9148C52.9247 63.2405 52.8338 63.6174 52.8338 64.0455V69.5H51.4929Z" fill="#0B1D28"/>
<rect width="72" height="128" transform="translate(300)" fill="#006590" fill-opacity="0.16"/>
<rect x="300.5" y="0.5" width="71" height="127" rx="1.5" fill="white"/>
<rect x="300.5" y="0.5" width="71" height="127" rx="1.5" stroke="#001E2E" stroke-linecap="square" stroke-dasharray="6 6"/>
<path d="M321.818 57.8636V69.5H320.409V57.8636H321.818ZM328.257 60.7727V61.9091H323.734V60.7727H328.257ZM325.053 58.6818H326.393V67C326.393 67.3788 326.448 67.6629 326.558 67.8523C326.672 68.0379 326.816 68.1629 326.99 68.2273C327.168 68.2879 327.356 68.3182 327.553 68.3182C327.7 68.3182 327.821 68.3106 327.916 68.2955C328.011 68.2765 328.087 68.2614 328.143 68.25L328.416 69.4545C328.325 69.4886 328.198 69.5227 328.036 69.5568C327.873 69.5947 327.666 69.6136 327.416 69.6136C327.037 69.6136 326.666 69.5322 326.303 69.3693C325.943 69.2064 325.643 68.9583 325.405 68.625C325.17 68.2917 325.053 67.8712 325.053 67.3636V58.6818ZM333.839 69.6818C332.999 69.6818 332.273 69.4962 331.663 69.125C331.057 68.75 330.589 68.2273 330.26 67.5568C329.934 66.8826 329.771 66.0985 329.771 65.2045C329.771 64.3106 329.934 63.5227 330.26 62.8409C330.589 62.1553 331.048 61.6212 331.635 61.2386C332.226 60.8523 332.915 60.6591 333.703 60.6591C334.158 60.6591 334.607 60.7348 335.05 60.8864C335.493 61.0379 335.896 61.2841 336.26 61.625C336.624 61.9621 336.913 62.4091 337.129 62.9659C337.345 63.5227 337.453 64.2083 337.453 65.0227V65.5909H330.726V64.4318H336.089C336.089 63.9394 335.991 63.5 335.794 63.1136C335.601 62.7273 335.324 62.4223 334.964 62.1989C334.608 61.9754 334.188 61.8636 333.703 61.8636C333.169 61.8636 332.707 61.9962 332.317 62.2614C331.93 62.5227 331.633 62.8636 331.425 63.2841C331.216 63.7045 331.112 64.1553 331.112 64.6364V65.4091C331.112 66.0682 331.226 66.6269 331.453 67.0852C331.684 67.5398 332.004 67.8864 332.413 68.125C332.822 68.3598 333.298 68.4773 333.839 68.4773C334.192 68.4773 334.51 68.428 334.794 68.3295C335.082 68.2273 335.33 68.0758 335.538 67.875C335.747 67.6705 335.908 67.4167 336.021 67.1136L337.317 67.4773C337.18 67.9167 336.951 68.303 336.629 68.6364C336.307 68.9659 335.91 69.2235 335.436 69.4091C334.963 69.5909 334.43 69.6818 333.839 69.6818ZM339.493 69.5V60.7727H340.788V62.1364H340.902C341.084 61.6705 341.377 61.3087 341.783 61.0511C342.188 60.7898 342.675 60.6591 343.243 60.6591C343.819 60.6591 344.298 60.7898 344.68 61.0511C345.067 61.3087 345.368 61.6705 345.584 62.1364H345.675C345.898 61.6856 346.233 61.3277 346.68 61.0625C347.127 60.7936 347.663 60.6591 348.288 60.6591C349.069 60.6591 349.707 60.9034 350.203 61.392C350.699 61.8769 350.947 62.6326 350.947 63.6591V69.5H349.607V63.6591C349.607 63.0152 349.43 62.5549 349.078 62.2784C348.726 62.0019 348.311 61.8636 347.834 61.8636C347.22 61.8636 346.745 62.0492 346.408 62.4205C346.071 62.7879 345.902 63.2538 345.902 63.8182V69.5H344.538V63.5227C344.538 63.0265 344.377 62.6269 344.055 62.3239C343.733 62.017 343.319 61.8636 342.811 61.8636C342.463 61.8636 342.137 61.9564 341.834 62.142C341.535 62.3277 341.292 62.5852 341.107 62.9148C340.925 63.2405 340.834 63.6174 340.834 64.0455V69.5H339.493Z" fill="#0B1D28"/>
<rect width="144" height="128" transform="translate(576)" fill="#006590" fill-opacity="0.16"/>
<rect x="576.5" y="28.5" width="143" height="71" rx="1.5" fill="white"/>
<rect x="576.5" y="28.5" width="143" height="71" rx="1.5" stroke="#001E2E" stroke-linecap="square" stroke-dasharray="6 6"/>
<path d="M633.818 57.8636V69.5H632.409V57.8636H633.818ZM640.257 60.7727V61.9091H635.734V60.7727H640.257ZM637.053 58.6818H638.393V67C638.393 67.3788 638.448 67.6629 638.558 67.8523C638.672 68.0379 638.816 68.1629 638.99 68.2273C639.168 68.2879 639.356 68.3182 639.553 68.3182C639.7 68.3182 639.821 68.3106 639.916 68.2955C640.011 68.2765 640.087 68.2614 640.143 68.25L640.416 69.4545C640.325 69.4886 640.198 69.5227 640.036 69.5568C639.873 69.5947 639.666 69.6136 639.416 69.6136C639.037 69.6136 638.666 69.5322 638.303 69.3693C637.943 69.2064 637.643 68.9583 637.405 68.625C637.17 68.2917 637.053 67.8712 637.053 67.3636V58.6818ZM645.839 69.6818C644.999 69.6818 644.273 69.4962 643.663 69.125C643.057 68.75 642.589 68.2273 642.26 67.5568C641.934 66.8826 641.771 66.0985 641.771 65.2045C641.771 64.3106 641.934 63.5227 642.26 62.8409C642.589 62.1553 643.048 61.6212 643.635 61.2386C644.226 60.8523 644.915 60.6591 645.703 60.6591C646.158 60.6591 646.607 60.7348 647.05 60.8864C647.493 61.0379 647.896 61.2841 648.26 61.625C648.624 61.9621 648.913 62.4091 649.129 62.9659C649.345 63.5227 649.453 64.2083 649.453 65.0227V65.5909H642.726V64.4318H648.089C648.089 63.9394 647.991 63.5 647.794 63.1136C647.601 62.7273 647.324 62.4223 646.964 62.1989C646.608 61.9754 646.188 61.8636 645.703 61.8636C645.169 61.8636 644.707 61.9962 644.317 62.2614C643.93 62.5227 643.633 62.8636 643.425 63.2841C643.216 63.7045 643.112 64.1553 643.112 64.6364V65.4091C643.112 66.0682 643.226 66.6269 643.453 67.0852C643.684 67.5398 644.004 67.8864 644.413 68.125C644.822 68.3598 645.298 68.4773 645.839 68.4773C646.192 68.4773 646.51 68.428 646.794 68.3295C647.082 68.2273 647.33 68.0758 647.538 67.875C647.747 67.6705 647.908 67.4167 648.021 67.1136L649.317 67.4773C649.18 67.9167 648.951 68.303 648.629 68.6364C648.307 68.9659 647.91 69.2235 647.436 69.4091C646.963 69.5909 646.43 69.6818 645.839 69.6818ZM651.493 69.5V60.7727H652.788V62.1364H652.902C653.084 61.6705 653.377 61.3087 653.783 61.0511C654.188 60.7898 654.675 60.6591 655.243 60.6591C655.819 60.6591 656.298 60.7898 656.68 61.0511C657.067 61.3087 657.368 61.6705 657.584 62.1364H657.675C657.898 61.6856 658.233 61.3277 658.68 61.0625C659.127 60.7936 659.663 60.6591 660.288 60.6591C661.069 60.6591 661.707 60.9034 662.203 61.392C662.699 61.8769 662.947 62.6326 662.947 63.6591V69.5H661.607V63.6591C661.607 63.0152 661.43 62.5549 661.078 62.2784C660.726 62.0019 660.311 61.8636 659.834 61.8636C659.22 61.8636 658.745 62.0492 658.408 62.4205C658.071 62.7879 657.902 63.2538 657.902 63.8182V69.5H656.538V63.5227C656.538 63.0265 656.377 62.6269 656.055 62.3239C655.733 62.017 655.319 61.8636 654.811 61.8636C654.463 61.8636 654.137 61.9564 653.834 62.142C653.535 62.3277 653.292 62.5852 653.107 62.9148C652.925 63.2405 652.834 63.6174 652.834 64.0455V69.5H651.493Z" fill="#0B1D28"/>
</g>
<rect x="0.5" y="0.5" width="719" height="127" rx="3.5" stroke="#006590"/>
<defs>
<clipPath id="clip0_7804_9568">
<rect width="720" height="128" rx="4" fill="white"/>
</clipPath>
</defs>
</svg>
