<svg width="720" height="136" viewBox="0 0 720 136" fill="none" xmlns="http://www.w3.org/2000/svg">
<g clip-path="url(#clip0_8032_66096)">
<rect x="0.5" y="32.5" width="719" height="71" rx="1.5" fill="#87CEFF"/>
<rect x="0.5" y="32.5" width="719" height="71" rx="1.5" stroke="#006590"/>
<rect x="156" y="32.5" width="89" height="71" rx="1.5" fill="#E5F2FF"/>
<rect x="156" y="32.5" width="89" height="71" rx="1.5" stroke="#001E2E" stroke-linecap="square" stroke-dasharray="6 6"/>
<rect width="42" height="24" transform="translate(179.5 56)" fill="white"/>
<path d="M187.273 64.7727C187.205 64.197 186.928 63.75 186.443 63.4318C185.958 63.1136 185.364 62.9545 184.659 62.9545C184.144 62.9545 183.693 63.0379 183.307 63.2045C182.924 63.3712 182.625 63.6004 182.409 63.892C182.197 64.1837 182.091 64.5152 182.091 64.8864C182.091 65.197 182.165 65.464 182.312 65.6875C182.464 65.9072 182.657 66.0909 182.892 66.2386C183.127 66.3826 183.373 66.5019 183.631 66.5966C183.888 66.6875 184.125 66.7614 184.341 66.8182L185.523 67.1364C185.826 67.2159 186.163 67.3258 186.534 67.4659C186.909 67.6061 187.267 67.7973 187.608 68.0398C187.953 68.2784 188.237 68.5852 188.46 68.9602C188.684 69.3352 188.795 69.7955 188.795 70.3409C188.795 70.9697 188.631 71.5379 188.301 72.0455C187.975 72.553 187.498 72.9564 186.869 73.2557C186.244 73.5549 185.485 73.7045 184.591 73.7045C183.758 73.7045 183.036 73.5701 182.426 73.3011C181.82 73.0322 181.343 72.6572 180.994 72.1761C180.65 71.6951 180.455 71.1364 180.409 70.5H181.864C181.902 70.9394 182.049 71.303 182.307 71.5909C182.568 71.875 182.898 72.0871 183.295 72.2273C183.697 72.3636 184.129 72.4318 184.591 72.4318C185.129 72.4318 185.612 72.3447 186.04 72.1705C186.468 71.9924 186.807 71.7462 187.057 71.4318C187.307 71.1136 187.432 70.7424 187.432 70.3182C187.432 69.9318 187.324 69.6174 187.108 69.375C186.892 69.1326 186.608 68.9356 186.256 68.7841C185.903 68.6326 185.523 68.5 185.114 68.3864L183.682 67.9773C182.773 67.7159 182.053 67.3428 181.523 66.858C180.992 66.3731 180.727 65.7386 180.727 64.9545C180.727 64.303 180.903 63.7348 181.256 63.25C181.612 62.7614 182.089 62.3826 182.688 62.1136C183.29 61.8409 183.962 61.7045 184.705 61.7045C185.455 61.7045 186.121 61.839 186.705 62.108C187.288 62.3731 187.75 62.7367 188.091 63.1989C188.436 63.661 188.617 64.1856 188.636 64.7727H187.273ZM192.271 68.25V73.5H190.93V61.8636H192.271V66.1364H192.385C192.589 65.6856 192.896 65.3277 193.305 65.0625C193.718 64.7936 194.268 64.6591 194.953 64.6591C195.548 64.6591 196.069 64.7784 196.516 65.017C196.963 65.2519 197.309 65.6136 197.555 66.1023C197.805 66.5871 197.93 67.2045 197.93 67.9545V73.5H196.589V68.0455C196.589 67.3523 196.41 66.8163 196.05 66.4375C195.694 66.0549 195.199 65.8636 194.567 65.8636C194.127 65.8636 193.733 65.9564 193.385 66.142C193.04 66.3277 192.768 66.5985 192.567 66.9545C192.37 67.3106 192.271 67.7424 192.271 68.25ZM203.929 73.6818C203.141 73.6818 202.45 73.4943 201.855 73.1193C201.264 72.7443 200.802 72.2197 200.469 71.5455C200.139 70.8712 199.974 70.0833 199.974 69.1818C199.974 68.2727 200.139 67.4792 200.469 66.8011C200.802 66.1231 201.264 65.5966 201.855 65.2216C202.45 64.8466 203.141 64.6591 203.929 64.6591C204.717 64.6591 205.406 64.8466 205.997 65.2216C206.592 65.5966 207.054 66.1231 207.384 66.8011C207.717 67.4792 207.884 68.2727 207.884 69.1818C207.884 70.0833 207.717 70.8712 207.384 71.5455C207.054 72.2197 206.592 72.7443 205.997 73.1193C205.406 73.4943 204.717 73.6818 203.929 73.6818ZM203.929 72.4773C204.527 72.4773 205.02 72.3239 205.406 72.017C205.793 71.7102 206.079 71.3068 206.264 70.8068C206.45 70.3068 206.543 69.7652 206.543 69.1818C206.543 68.5985 206.45 68.0549 206.264 67.5511C206.079 67.0473 205.793 66.6402 205.406 66.3295C205.02 66.0189 204.527 65.8636 203.929 65.8636C203.33 65.8636 202.838 66.0189 202.452 66.3295C202.065 66.6402 201.779 67.0473 201.594 67.5511C201.408 68.0549 201.315 68.5985 201.315 69.1818C201.315 69.7652 201.408 70.3068 201.594 70.8068C201.779 71.3068 202.065 71.7102 202.452 72.017C202.838 72.3239 203.33 72.4773 203.929 72.4773ZM209.93 73.5V64.7727H211.226V66.0909H211.317C211.476 65.6591 211.764 65.3087 212.18 65.0398C212.597 64.7708 213.067 64.6364 213.589 64.6364C213.688 64.6364 213.811 64.6383 213.959 64.642C214.107 64.6458 214.218 64.6515 214.294 64.6591V66.0227C214.249 66.0114 214.144 65.9943 213.982 65.9716C213.822 65.9451 213.654 65.9318 213.476 65.9318C213.052 65.9318 212.673 66.0208 212.339 66.1989C212.01 66.3731 211.749 66.6155 211.555 66.9261C211.366 67.233 211.271 67.5833 211.271 67.9773V73.5H209.93ZM220.226 64.7727V65.9091H215.703V64.7727H220.226ZM217.021 62.6818H218.362V71C218.362 71.3788 218.417 71.6629 218.527 71.8523C218.641 72.0379 218.785 72.1629 218.959 72.2273C219.137 72.2879 219.324 72.3182 219.521 72.3182C219.669 72.3182 219.79 72.3106 219.885 72.2955C219.98 72.2765 220.055 72.2614 220.112 72.25L220.385 73.4545C220.294 73.4886 220.167 73.5227 220.004 73.5568C219.841 73.5947 219.635 73.6136 219.385 73.6136C219.006 73.6136 218.635 73.5322 218.271 73.3693C217.911 73.2064 217.612 72.9583 217.374 72.625C217.139 72.2917 217.021 71.8712 217.021 71.3636V62.6818Z" fill="#0B1D28"/>
<rect x="250" y="32.5" width="108" height="71" rx="1.5" fill="#E5F2FF"/>
<rect x="250" y="32.5" width="108" height="71" rx="1.5" stroke="#001E2E" stroke-linecap="square" stroke-dasharray="6 6"/>
<rect width="61" height="24" transform="translate(273.5 56)" fill="white"/>
<path d="M274.909 61.8636H276.591L280.545 71.5227H280.682L284.636 61.8636H286.318V73.5H285V64.6591H284.886L281.25 73.5H279.977L276.341 64.6591H276.227V73.5H274.909V61.8636ZM292.621 73.6818C291.78 73.6818 291.054 73.4962 290.445 73.125C289.839 72.75 289.371 72.2273 289.041 71.5568C288.715 70.8826 288.553 70.0985 288.553 69.2045C288.553 68.3106 288.715 67.5227 289.041 66.8409C289.371 66.1553 289.829 65.6212 290.416 65.2386C291.007 64.8523 291.696 64.6591 292.484 64.6591C292.939 64.6591 293.388 64.7348 293.831 64.8864C294.274 65.0379 294.678 65.2841 295.041 65.625C295.405 65.9621 295.695 66.4091 295.911 66.9659C296.126 67.5227 296.234 68.2083 296.234 69.0227V69.5909H289.507V68.4318H294.871C294.871 67.9394 294.772 67.5 294.575 67.1136C294.382 66.7273 294.106 66.4223 293.746 66.1989C293.39 65.9754 292.969 65.8636 292.484 65.8636C291.95 65.8636 291.488 65.9962 291.098 66.2614C290.712 66.5227 290.414 66.8636 290.206 67.2841C289.998 67.7045 289.893 68.1553 289.893 68.6364V69.4091C289.893 70.0682 290.007 70.6269 290.234 71.0852C290.465 71.5398 290.786 71.8864 291.195 72.125C291.604 72.3598 292.079 72.4773 292.621 72.4773C292.973 72.4773 293.291 72.428 293.575 72.3295C293.863 72.2273 294.111 72.0758 294.32 71.875C294.528 71.6705 294.689 71.4167 294.803 71.1136L296.098 71.4773C295.962 71.9167 295.732 72.303 295.411 72.6364C295.089 72.9659 294.691 73.2235 294.217 73.4091C293.744 73.5909 293.212 73.6818 292.621 73.6818ZM301.57 73.6818C300.842 73.6818 300.2 73.4981 299.643 73.1307C299.087 72.7595 298.651 72.2367 298.337 71.5625C298.022 70.8845 297.865 70.0833 297.865 69.1591C297.865 68.2424 298.022 67.447 298.337 66.7727C298.651 66.0985 299.089 65.5777 299.649 65.2102C300.21 64.8428 300.857 64.6591 301.592 64.6591C302.161 64.6591 302.609 64.7538 302.939 64.9432C303.272 65.1288 303.526 65.3409 303.7 65.5795C303.878 65.8144 304.017 66.0076 304.115 66.1591H304.229V61.8636H305.57V73.5H304.274V72.1591H304.115C304.017 72.3182 303.876 72.5189 303.695 72.7614C303.513 73 303.253 73.214 302.916 73.4034C302.579 73.589 302.13 73.6818 301.57 73.6818ZM301.751 72.4773C302.289 72.4773 302.744 72.3371 303.115 72.0568C303.486 71.7727 303.768 71.3807 303.962 70.8807C304.155 70.3769 304.251 69.7955 304.251 69.1364C304.251 68.4848 304.157 67.9148 303.967 67.4261C303.778 66.9337 303.498 66.5511 303.126 66.2784C302.755 66.0019 302.297 65.8636 301.751 65.8636C301.183 65.8636 300.71 66.0095 300.331 66.3011C299.956 66.589 299.674 66.9811 299.484 67.4773C299.299 67.9697 299.206 68.5227 299.206 69.1364C299.206 69.7576 299.301 70.322 299.49 70.8295C299.683 71.3333 299.967 71.7348 300.342 72.0341C300.721 72.3295 301.191 72.4773 301.751 72.4773ZM308.212 73.5V64.7727H309.553V73.5H308.212ZM308.893 63.3182C308.632 63.3182 308.407 63.2292 308.217 63.0511C308.032 62.8731 307.939 62.6591 307.939 62.4091C307.939 62.1591 308.032 61.9451 308.217 61.767C308.407 61.589 308.632 61.5 308.893 61.5C309.155 61.5 309.378 61.589 309.564 61.767C309.753 61.9451 309.848 62.1591 309.848 62.4091C309.848 62.6591 309.753 62.8731 309.564 63.0511C309.378 63.2292 309.155 63.3182 308.893 63.3182ZM317.509 69.9318V64.7727H318.849V73.5H317.509V72.0227H317.418C317.213 72.4659 316.895 72.8428 316.463 73.1534C316.031 73.4602 315.486 73.6136 314.827 73.6136C314.281 73.6136 313.796 73.4943 313.372 73.2557C312.948 73.0133 312.615 72.6496 312.372 72.1648C312.13 71.6761 312.009 71.0606 312.009 70.3182V64.7727H313.349V70.2273C313.349 70.8636 313.527 71.3712 313.884 71.75C314.243 72.1288 314.702 72.3182 315.259 72.3182C315.592 72.3182 315.931 72.233 316.276 72.0625C316.624 71.892 316.916 71.6307 317.151 71.2784C317.389 70.9261 317.509 70.4773 317.509 69.9318ZM321.305 73.5V64.7727H322.601V66.1364H322.714C322.896 65.6705 323.19 65.3087 323.595 65.0511C324 64.7898 324.487 64.6591 325.055 64.6591C325.631 64.6591 326.11 64.7898 326.493 65.0511C326.879 65.3087 327.18 65.6705 327.396 66.1364H327.487C327.711 65.6856 328.046 65.3277 328.493 65.0625C328.94 64.7936 329.476 64.6591 330.101 64.6591C330.881 64.6591 331.519 64.9034 332.016 65.392C332.512 65.8769 332.76 66.6326 332.76 67.6591V73.5H331.419V67.6591C331.419 67.0152 331.243 66.5549 330.891 66.2784C330.538 66.0019 330.124 65.8636 329.646 65.8636C329.033 65.8636 328.557 66.0492 328.22 66.4205C327.883 66.7879 327.714 67.2538 327.714 67.8182V73.5H326.351V67.5227C326.351 67.0265 326.19 66.6269 325.868 66.3239C325.546 66.017 325.131 65.8636 324.624 65.8636C324.275 65.8636 323.949 65.9564 323.646 66.142C323.347 66.3277 323.105 66.5852 322.919 66.9148C322.737 67.2405 322.646 67.6174 322.646 68.0455V73.5H321.305Z" fill="#0B1D28"/>
<rect x="363" y="32.5" width="201" height="71" rx="1.5" fill="#E5F2FF"/>
<rect x="363" y="32.5" width="201" height="71" rx="1.5" stroke="#001E2E" stroke-linecap="square" stroke-dasharray="6 6"/>
<rect width="154" height="24" transform="translate(386.5 56)" fill="white"/>
<path d="M388.386 61.8636L391.841 71.6591H391.977L395.432 61.8636H396.909L392.636 73.5H391.182L386.909 61.8636H388.386ZM401.386 73.6818C400.545 73.6818 399.82 73.4962 399.21 73.125C398.604 72.75 398.136 72.2273 397.807 71.5568C397.481 70.8826 397.318 70.0985 397.318 69.2045C397.318 68.3106 397.481 67.5227 397.807 66.8409C398.136 66.1553 398.595 65.6212 399.182 65.2386C399.773 64.8523 400.462 64.6591 401.25 64.6591C401.705 64.6591 402.153 64.7348 402.597 64.8864C403.04 65.0379 403.443 65.2841 403.807 65.625C404.17 65.9621 404.46 66.4091 404.676 66.9659C404.892 67.5227 405 68.2083 405 69.0227V69.5909H398.273V68.4318H403.636C403.636 67.9394 403.538 67.5 403.341 67.1136C403.148 66.7273 402.871 66.4223 402.511 66.1989C402.155 65.9754 401.735 65.8636 401.25 65.8636C400.716 65.8636 400.254 65.9962 399.864 66.2614C399.477 66.5227 399.18 66.8636 398.972 67.2841C398.763 67.7045 398.659 68.1553 398.659 68.6364V69.4091C398.659 70.0682 398.773 70.6269 399 71.0852C399.231 71.5398 399.551 71.8864 399.96 72.125C400.369 72.3598 400.845 72.4773 401.386 72.4773C401.739 72.4773 402.057 72.428 402.341 72.3295C402.629 72.2273 402.877 72.0758 403.085 71.875C403.294 71.6705 403.455 71.4167 403.568 71.1136L404.864 71.4773C404.727 71.9167 404.498 72.303 404.176 72.6364C403.854 72.9659 403.456 73.2235 402.983 73.4091C402.509 73.5909 401.977 73.6818 401.386 73.6818ZM407.04 73.5V64.7727H408.335V66.0909H408.426C408.585 65.6591 408.873 65.3087 409.29 65.0398C409.706 64.7708 410.176 64.6364 410.699 64.6364C410.797 64.6364 410.92 64.6383 411.068 64.642C411.216 64.6458 411.328 64.6515 411.403 64.6591V66.0227C411.358 66.0114 411.254 65.9943 411.091 65.9716C410.932 65.9451 410.763 65.9318 410.585 65.9318C410.161 65.9318 409.782 66.0208 409.449 66.1989C409.119 66.3731 408.858 66.6155 408.665 66.9261C408.475 67.233 408.381 67.5833 408.381 67.9773V73.5H407.04ZM414.122 76.7727C413.895 76.7727 413.692 76.7538 413.514 76.7159C413.336 76.6818 413.213 76.6477 413.145 76.6136L413.486 75.4318C413.812 75.5152 414.099 75.5455 414.349 75.5227C414.599 75.5 414.821 75.3883 415.014 75.1875C415.211 74.9905 415.391 74.6705 415.554 74.2273L415.804 73.5455L412.577 64.7727H414.031L416.44 71.7273H416.531L418.94 64.7727H420.395L416.69 74.7727C416.524 75.2235 416.317 75.5966 416.071 75.892C415.825 76.1913 415.539 76.4129 415.213 76.5568C414.891 76.7008 414.527 76.7727 414.122 76.7727ZM423.618 71.9091L423.527 72.5227C423.463 72.9545 423.364 73.4167 423.232 73.9091C423.103 74.4015 422.968 74.8655 422.828 75.3011C422.688 75.7367 422.572 76.0833 422.482 76.3409H421.459C421.508 76.0985 421.572 75.7784 421.652 75.3807C421.732 74.983 421.811 74.5379 421.891 74.0455C421.974 73.5568 422.042 73.0568 422.095 72.5455L422.163 71.9091H423.618ZM437.739 64.7727L434.511 73.5H433.148L429.92 64.7727H431.375L433.784 71.7273H433.875L436.284 64.7727H437.739ZM442.855 73.6818C442.014 73.6818 441.289 73.4962 440.679 73.125C440.073 72.75 439.605 72.2273 439.276 71.5568C438.95 70.8826 438.787 70.0985 438.787 69.2045C438.787 68.3106 438.95 67.5227 439.276 66.8409C439.605 66.1553 440.063 65.6212 440.651 65.2386C441.241 64.8523 441.931 64.6591 442.719 64.6591C443.173 64.6591 443.622 64.7348 444.065 64.8864C444.509 65.0379 444.912 65.2841 445.276 65.625C445.639 65.9621 445.929 66.4091 446.145 66.9659C446.361 67.5227 446.469 68.2083 446.469 69.0227V69.5909H439.741V68.4318H445.105C445.105 67.9394 445.007 67.5 444.81 67.1136C444.616 66.7273 444.34 66.4223 443.98 66.1989C443.624 65.9754 443.204 65.8636 442.719 65.8636C442.185 65.8636 441.723 65.9962 441.332 66.2614C440.946 66.5227 440.649 66.8636 440.44 67.2841C440.232 67.7045 440.128 68.1553 440.128 68.6364V69.4091C440.128 70.0682 440.241 70.6269 440.469 71.0852C440.7 71.5398 441.02 71.8864 441.429 72.125C441.838 72.3598 442.313 72.4773 442.855 72.4773C443.207 72.4773 443.526 72.428 443.81 72.3295C444.098 72.2273 444.346 72.0758 444.554 71.875C444.762 71.6705 444.923 71.4167 445.037 71.1136L446.332 71.4773C446.196 71.9167 445.967 72.303 445.645 72.6364C445.323 72.9659 444.925 73.2235 444.452 73.4091C443.978 73.5909 443.446 73.6818 442.855 73.6818ZM448.509 73.5V64.7727H449.804V66.0909H449.895C450.054 65.6591 450.342 65.3087 450.759 65.0398C451.175 64.7708 451.645 64.6364 452.168 64.6364C452.266 64.6364 452.389 64.6383 452.537 64.642C452.685 64.6458 452.796 64.6515 452.872 64.6591V66.0227C452.827 66.0114 452.723 65.9943 452.56 65.9716C452.401 65.9451 452.232 65.9318 452.054 65.9318C451.63 65.9318 451.251 66.0208 450.918 66.1989C450.588 66.3731 450.327 66.6155 450.134 66.9261C449.944 67.233 449.849 67.5833 449.849 67.9773V73.5H448.509ZM455.591 76.7727C455.364 76.7727 455.161 76.7538 454.983 76.7159C454.805 76.6818 454.682 76.6477 454.614 76.6136L454.955 75.4318C455.28 75.5152 455.568 75.5455 455.818 75.5227C456.068 75.5 456.29 75.3883 456.483 75.1875C456.68 74.9905 456.86 74.6705 457.023 74.2273L457.273 73.5455L454.045 64.7727H455.5L457.909 71.7273H458L460.409 64.7727H461.864L458.159 74.7727C457.992 75.2235 457.786 75.5966 457.54 75.892C457.294 76.1913 457.008 76.4129 456.682 76.5568C456.36 76.7008 455.996 76.7727 455.591 76.7727ZM469.474 61.8636V73.5H468.134V61.8636H469.474ZM475.476 73.6818C474.688 73.6818 473.997 73.4943 473.402 73.1193C472.811 72.7443 472.349 72.2197 472.016 71.5455C471.686 70.8712 471.521 70.0833 471.521 69.1818C471.521 68.2727 471.686 67.4792 472.016 66.8011C472.349 66.1231 472.811 65.5966 473.402 65.2216C473.997 64.8466 474.688 64.6591 475.476 64.6591C476.264 64.6591 476.953 64.8466 477.544 65.2216C478.139 65.5966 478.601 66.1231 478.93 66.8011C479.264 67.4792 479.43 68.2727 479.43 69.1818C479.43 70.0833 479.264 70.8712 478.93 71.5455C478.601 72.2197 478.139 72.7443 477.544 73.1193C476.953 73.4943 476.264 73.6818 475.476 73.6818ZM475.476 72.4773C476.074 72.4773 476.567 72.3239 476.953 72.017C477.339 71.7102 477.625 71.3068 477.811 70.8068C477.997 70.3068 478.089 69.7652 478.089 69.1818C478.089 68.5985 477.997 68.0549 477.811 67.5511C477.625 67.0473 477.339 66.6402 476.953 66.3295C476.567 66.0189 476.074 65.8636 475.476 65.8636C474.877 65.8636 474.385 66.0189 473.999 66.3295C473.612 66.6402 473.326 67.0473 473.141 67.5511C472.955 68.0549 472.862 68.5985 472.862 69.1818C472.862 69.7652 472.955 70.3068 473.141 70.8068C473.326 71.3068 473.612 71.7102 473.999 72.017C474.385 72.3239 474.877 72.4773 475.476 72.4773ZM482.818 68.25V73.5H481.477V64.7727H482.773V66.1364H482.886C483.091 65.6932 483.402 65.3371 483.818 65.0682C484.235 64.7955 484.773 64.6591 485.432 64.6591C486.023 64.6591 486.54 64.7803 486.983 65.0227C487.426 65.2614 487.771 65.625 488.017 66.1136C488.263 66.5985 488.386 67.2121 488.386 67.9545V73.5H487.045V68.0455C487.045 67.3598 486.867 66.8258 486.511 66.4432C486.155 66.0568 485.667 65.8636 485.045 65.8636C484.617 65.8636 484.235 65.9564 483.898 66.142C483.564 66.3277 483.301 66.5985 483.108 66.9545C482.915 67.3106 482.818 67.7424 482.818 68.25ZM494.359 76.9545C493.712 76.9545 493.155 76.8712 492.689 76.7045C492.223 76.5417 491.835 76.3258 491.524 76.0568C491.217 75.7917 490.973 75.5076 490.791 75.2045L491.859 74.4545C491.981 74.6136 492.134 74.7955 492.32 75C492.505 75.2083 492.759 75.3883 493.081 75.5398C493.407 75.6951 493.833 75.7727 494.359 75.7727C495.064 75.7727 495.645 75.6023 496.104 75.2614C496.562 74.9205 496.791 74.3864 496.791 73.6591V71.8864H496.678C496.579 72.0455 496.439 72.2424 496.257 72.4773C496.079 72.7083 495.821 72.9148 495.484 73.0966C495.151 73.2746 494.7 73.3636 494.132 73.3636C493.428 73.3636 492.795 73.197 492.234 72.8636C491.678 72.5303 491.236 72.0455 490.911 71.4091C490.589 70.7727 490.428 70 490.428 69.0909C490.428 68.197 490.585 67.4186 490.899 66.7557C491.214 66.089 491.651 65.5739 492.212 65.2102C492.772 64.8428 493.42 64.6591 494.155 64.6591C494.723 64.6591 495.174 64.7538 495.507 64.9432C495.844 65.1288 496.102 65.3409 496.28 65.5795C496.462 65.8144 496.602 66.0076 496.7 66.1591H496.837V64.7727H498.132V73.75C498.132 74.5 497.962 75.1098 497.621 75.5795C497.284 76.053 496.829 76.3996 496.257 76.6193C495.689 76.8428 495.056 76.9545 494.359 76.9545ZM494.314 72.1591C494.852 72.1591 495.306 72.036 495.678 71.7898C496.049 71.5436 496.331 71.1894 496.524 70.7273C496.717 70.2652 496.814 69.7121 496.814 69.0682C496.814 68.4394 496.719 67.8845 496.53 67.4034C496.34 66.9223 496.06 66.5455 495.689 66.2727C495.318 66 494.859 65.8636 494.314 65.8636C493.746 65.8636 493.272 66.0076 492.893 66.2955C492.518 66.5833 492.236 66.9697 492.047 67.4545C491.861 67.9394 491.768 68.4773 491.768 69.0682C491.768 69.6742 491.863 70.2102 492.053 70.6761C492.246 71.1383 492.53 71.5019 492.905 71.767C493.284 72.0284 493.753 72.1591 494.314 72.1591ZM506.428 61.8636V73.5H505.087V61.8636H506.428ZM511.452 73.7045C510.899 73.7045 510.397 73.6004 509.946 73.392C509.495 73.1799 509.137 72.875 508.872 72.4773C508.607 72.0758 508.474 71.5909 508.474 71.0227C508.474 70.5227 508.573 70.1174 508.77 69.8068C508.967 69.4924 509.23 69.2462 509.56 69.0682C509.889 68.8902 510.253 68.7576 510.651 68.6705C511.052 68.5795 511.455 68.5076 511.861 68.4545C512.391 68.3864 512.821 68.3352 513.151 68.3011C513.484 68.2633 513.726 68.2008 513.878 68.1136C514.033 68.0265 514.111 67.875 514.111 67.6591V67.6136C514.111 67.053 513.957 66.6174 513.651 66.3068C513.348 65.9962 512.887 65.8409 512.27 65.8409C511.63 65.8409 511.128 65.9811 510.764 66.2614C510.401 66.5417 510.145 66.8409 509.997 67.1591L508.724 66.7045C508.952 66.1742 509.255 65.7614 509.634 65.4659C510.016 65.1667 510.433 64.9583 510.884 64.8409C511.338 64.7197 511.785 64.6591 512.224 64.6591C512.505 64.6591 512.827 64.6932 513.19 64.7614C513.558 64.8258 513.912 64.9602 514.253 65.1648C514.598 65.3693 514.884 65.678 515.111 66.0909C515.338 66.5038 515.452 67.0568 515.452 67.75V73.5H514.111V72.3182H514.043C513.952 72.5076 513.8 72.7102 513.588 72.9261C513.376 73.142 513.094 73.3258 512.741 73.4773C512.389 73.6288 511.959 73.7045 511.452 73.7045ZM511.656 72.5C512.187 72.5 512.634 72.3958 512.997 72.1875C513.365 71.9792 513.641 71.7102 513.827 71.3807C514.016 71.0511 514.111 70.7045 514.111 70.3409V69.1136C514.054 69.1818 513.929 69.2443 513.736 69.3011C513.546 69.3542 513.327 69.4015 513.077 69.4432C512.83 69.4811 512.59 69.5152 512.355 69.5455C512.124 69.572 511.937 69.5947 511.793 69.6136C511.444 69.6591 511.118 69.733 510.815 69.8352C510.516 69.9337 510.274 70.0833 510.088 70.2841C509.906 70.4811 509.815 70.75 509.815 71.0909C509.815 71.5568 509.988 71.9091 510.332 72.1477C510.681 72.3826 511.122 72.5 511.656 72.5ZM518.081 73.5V61.8636H519.422V66.1591H519.536C519.634 66.0076 519.77 65.8144 519.945 65.5795C520.123 65.3409 520.376 65.1288 520.706 64.9432C521.039 64.7538 521.49 64.6591 522.058 64.6591C522.793 64.6591 523.441 64.8428 524.001 65.2102C524.562 65.5777 525 66.0985 525.314 66.7727C525.628 67.447 525.786 68.2424 525.786 69.1591C525.786 70.0833 525.628 70.8845 525.314 71.5625C525 72.2367 524.564 72.7595 524.007 73.1307C523.45 73.4981 522.808 73.6818 522.081 73.6818C521.52 73.6818 521.071 73.589 520.734 73.4034C520.397 73.214 520.138 73 519.956 72.7614C519.774 72.5189 519.634 72.3182 519.536 72.1591H519.376V73.5H518.081ZM519.399 69.1364C519.399 69.7955 519.496 70.3769 519.689 70.8807C519.882 71.3807 520.164 71.7727 520.536 72.0568C520.907 72.3371 521.361 72.4773 521.899 72.4773C522.46 72.4773 522.928 72.3295 523.303 72.0341C523.681 71.7348 523.965 71.3333 524.155 70.8295C524.348 70.322 524.445 69.7576 524.445 69.1364C524.445 68.5227 524.35 67.9697 524.161 67.4773C523.975 66.9811 523.693 66.589 523.314 66.3011C522.939 66.0095 522.467 65.8636 521.899 65.8636C521.354 65.8636 520.895 66.0019 520.524 66.2784C520.153 66.5511 519.873 66.9337 519.683 67.4261C519.494 67.9148 519.399 68.4848 519.399 69.1364ZM531.496 73.6818C530.655 73.6818 529.929 73.4962 529.32 73.125C528.714 72.75 528.246 72.2273 527.916 71.5568C527.59 70.8826 527.428 70.0985 527.428 69.2045C527.428 68.3106 527.59 67.5227 527.916 66.8409C528.246 66.1553 528.704 65.6212 529.291 65.2386C529.882 64.8523 530.571 64.6591 531.359 64.6591C531.814 64.6591 532.263 64.7348 532.706 64.8864C533.149 65.0379 533.553 65.2841 533.916 65.625C534.28 65.9621 534.57 66.4091 534.786 66.9659C535.001 67.5227 535.109 68.2083 535.109 69.0227V69.5909H528.382V68.4318H533.746C533.746 67.9394 533.647 67.5 533.45 67.1136C533.257 66.7273 532.981 66.4223 532.621 66.1989C532.265 65.9754 531.844 65.8636 531.359 65.8636C530.825 65.8636 530.363 65.9962 529.973 66.2614C529.587 66.5227 529.289 66.8636 529.081 67.2841C528.873 67.7045 528.768 68.1553 528.768 68.6364V69.4091C528.768 70.0682 528.882 70.6269 529.109 71.0852C529.34 71.5398 529.661 71.8864 530.07 72.125C530.479 72.3598 530.954 72.4773 531.496 72.4773C531.848 72.4773 532.166 72.428 532.45 72.3295C532.738 72.2273 532.986 72.0758 533.195 71.875C533.403 71.6705 533.564 71.4167 533.678 71.1136L534.973 71.4773C534.837 71.9167 534.607 72.303 534.286 72.6364C533.964 72.9659 533.566 73.2235 533.092 73.4091C532.619 73.5909 532.087 73.6818 531.496 73.6818ZM538.49 61.8636V73.5H537.149V61.8636H538.49Z" fill="#0B1D28"/>
<path d="M156.25 0V33" stroke="#BA1A1A" stroke-width="0.5" stroke-dasharray="2 2"/>
<path d="M563.75 0V33" stroke="#BA1A1A" stroke-width="0.5" stroke-dasharray="2 2"/>
<path d="M563.75 17L563.75 14M563.75 17L563.75 20M563.75 17L156.25 17M156.25 17L156.25 14M156.25 17L156.25 19.9999" stroke="#BA1A1A" stroke-width="0.5"/>
<rect x="345.5" y="9" width="29" height="16" rx="3" fill="#BA1A1A"/>
<path d="M351.138 18.877L350.049 18.283L353.459 13.3L354.361 14.147L351.138 18.877ZM350.049 19.482V18.283L350.896 18.195H356.396V19.482H350.049ZM353.635 21V14.125L353.47 13.3H355.054V21H353.635ZM360.288 21.132C359.664 21.132 359.114 20.9633 358.638 20.626C358.161 20.2813 357.787 19.812 357.516 19.218C357.244 18.6167 357.109 17.9273 357.109 17.15C357.109 16.3727 357.244 15.687 357.516 15.093C357.787 14.4917 358.157 14.0223 358.627 13.685C359.103 13.3403 359.653 13.168 360.277 13.168C360.9 13.168 361.45 13.3403 361.927 13.685C362.411 14.0223 362.788 14.4917 363.06 15.093C363.331 15.687 363.467 16.3727 363.467 17.15C363.467 17.9273 363.331 18.6167 363.06 19.218C362.788 19.812 362.414 20.2813 361.938 20.626C361.461 20.9633 360.911 21.132 360.288 21.132ZM360.288 19.768C360.618 19.768 360.911 19.658 361.168 19.438C361.432 19.2107 361.637 18.9027 361.784 18.514C361.93 18.118 362.004 17.6633 362.004 17.15C362.004 16.6367 361.93 16.182 361.784 15.786C361.637 15.39 361.432 15.082 361.168 14.862C360.911 14.6347 360.614 14.521 360.277 14.521C359.947 14.521 359.653 14.6347 359.397 14.862C359.14 15.082 358.938 15.39 358.792 15.786C358.652 16.182 358.583 16.6367 358.583 17.15C358.583 17.6633 358.652 18.118 358.792 18.514C358.938 18.9027 359.14 19.2107 359.397 19.438C359.661 19.658 359.958 19.768 360.288 19.768ZM366.947 13.179C367.468 13.179 367.908 13.2743 368.267 13.465C368.634 13.6483 368.931 13.905 369.158 14.235C369.393 14.565 369.562 14.95 369.664 15.39C369.774 15.8227 369.829 16.2883 369.829 16.787C369.829 17.381 369.767 17.942 369.642 18.47C369.518 18.9907 369.327 19.4527 369.07 19.856C368.821 20.252 368.498 20.5673 368.102 20.802C367.706 21.0293 367.23 21.143 366.672 21.143C366.269 21.143 365.873 21.0843 365.484 20.967C365.103 20.8423 364.758 20.6737 364.45 20.461L365.187 19.361C365.422 19.515 365.668 19.6323 365.924 19.713C366.188 19.7863 366.427 19.823 366.639 19.823C367.211 19.823 367.659 19.5737 367.981 19.075C368.311 18.569 368.462 17.7807 368.432 16.71L368.74 16.908C368.572 17.3113 368.311 17.6377 367.959 17.887C367.607 18.129 367.186 18.25 366.694 18.25C366.21 18.25 365.778 18.1363 365.396 17.909C365.015 17.6743 364.718 17.3627 364.505 16.974C364.293 16.5853 364.186 16.1453 364.186 15.654C364.186 15.17 364.3 14.7447 364.527 14.378C364.755 14.004 365.074 13.7107 365.484 13.498C365.902 13.2853 366.39 13.179 366.947 13.179ZM366.947 14.444C366.705 14.444 366.489 14.499 366.298 14.609C366.108 14.719 365.957 14.8693 365.847 15.06C365.737 15.2507 365.682 15.4707 365.682 15.72C365.682 15.9693 365.737 16.193 365.847 16.391C365.957 16.589 366.108 16.743 366.298 16.853C366.489 16.963 366.705 17.018 366.947 17.018C367.189 17.018 367.406 16.963 367.596 16.853C367.787 16.743 367.937 16.589 368.047 16.391C368.165 16.193 368.223 15.9693 368.223 15.72C368.223 15.4707 368.165 15.2507 368.047 15.06C367.937 14.8693 367.787 14.719 367.596 14.609C367.406 14.499 367.189 14.444 366.947 14.444Z" fill="white"/>
<path d="M156.25 104V137" stroke="#BA1A1A" stroke-width="0.5" stroke-dasharray="2 2"/>
<path d="M244.75 104V137" stroke="#BA1A1A" stroke-width="0.5" stroke-dasharray="2 2"/>
<path d="M244.75 121L244.75 118M244.75 121L244.75 124M244.75 121L156.25 121M156.25 121L156.25 118M156.25 121L156.25 124" stroke="#BA1A1A" stroke-width="0.5"/>
<rect x="189.5" y="113" width="22" height="16" rx="3" fill="#BA1A1A"/>
<path d="M197.297 125.132C196.681 125.132 196.157 125.044 195.724 124.868C195.291 124.685 194.961 124.435 194.734 124.12C194.514 123.797 194.404 123.423 194.404 122.998C194.404 122.543 194.514 122.144 194.734 121.799C194.961 121.454 195.291 121.183 195.724 120.985C196.157 120.787 196.681 120.692 197.297 120.699C197.92 120.692 198.448 120.787 198.881 120.985C199.314 121.183 199.644 121.454 199.871 121.799C200.098 122.144 200.212 122.543 200.212 122.998C200.212 123.423 200.098 123.797 199.871 124.12C199.644 124.435 199.314 124.685 198.881 124.868C198.448 125.044 197.92 125.132 197.297 125.132ZM197.297 123.878C197.7 123.878 198.03 123.779 198.287 123.581C198.544 123.376 198.672 123.115 198.672 122.8C198.672 122.455 198.544 122.177 198.287 121.964C198.03 121.751 197.7 121.645 197.297 121.645C197.033 121.645 196.798 121.693 196.593 121.788C196.395 121.883 196.237 122.019 196.12 122.195C196.003 122.371 195.944 122.573 195.944 122.8C195.944 123.013 196.003 123.2 196.12 123.361C196.237 123.522 196.395 123.651 196.593 123.746C196.798 123.834 197.033 123.878 197.297 123.878ZM197.297 121.293C196.747 121.293 196.274 121.209 195.878 121.04C195.482 120.864 195.178 120.626 194.965 120.325C194.76 120.017 194.657 119.661 194.657 119.258C194.657 118.847 194.76 118.484 194.965 118.169C195.178 117.854 195.482 117.608 195.878 117.432C196.274 117.256 196.747 117.168 197.297 117.168C197.854 117.168 198.331 117.256 198.727 117.432C199.123 117.608 199.427 117.854 199.64 118.169C199.853 118.484 199.959 118.847 199.959 119.258C199.959 119.661 199.853 120.017 199.64 120.325C199.427 120.626 199.123 120.864 198.727 121.04C198.331 121.209 197.854 121.293 197.297 121.293ZM197.297 120.446C197.649 120.446 197.935 120.351 198.155 120.16C198.382 119.969 198.496 119.727 198.496 119.434C198.496 119.119 198.382 118.866 198.155 118.675C197.935 118.477 197.649 118.378 197.297 118.378C196.952 118.378 196.67 118.477 196.45 118.675C196.23 118.866 196.12 119.119 196.12 119.434C196.12 119.727 196.23 119.969 196.45 120.16C196.67 120.351 196.952 120.446 197.297 120.446ZM203.768 117.179C204.289 117.179 204.729 117.274 205.088 117.465C205.455 117.648 205.752 117.905 205.979 118.235C206.214 118.565 206.383 118.95 206.485 119.39C206.595 119.823 206.65 120.288 206.65 120.787C206.65 121.381 206.588 121.942 206.463 122.47C206.339 122.991 206.148 123.453 205.891 123.856C205.642 124.252 205.319 124.567 204.923 124.802C204.527 125.029 204.051 125.143 203.493 125.143C203.09 125.143 202.694 125.084 202.305 124.967C201.924 124.842 201.579 124.674 201.271 124.461L202.008 123.361C202.243 123.515 202.489 123.632 202.745 123.713C203.009 123.786 203.248 123.823 203.46 123.823C204.032 123.823 204.48 123.574 204.802 123.075C205.132 122.569 205.283 121.781 205.253 120.71L205.561 120.908C205.393 121.311 205.132 121.638 204.78 121.887C204.428 122.129 204.007 122.25 203.515 122.25C203.031 122.25 202.599 122.136 202.217 121.909C201.836 121.674 201.539 121.363 201.326 120.974C201.114 120.585 201.007 120.145 201.007 119.654C201.007 119.17 201.121 118.745 201.348 118.378C201.576 118.004 201.895 117.711 202.305 117.498C202.723 117.285 203.211 117.179 203.768 117.179ZM203.768 118.444C203.526 118.444 203.31 118.499 203.119 118.609C202.929 118.719 202.778 118.869 202.668 119.06C202.558 119.251 202.503 119.471 202.503 119.72C202.503 119.969 202.558 120.193 202.668 120.391C202.778 120.589 202.929 120.743 203.119 120.853C203.31 120.963 203.526 121.018 203.768 121.018C204.01 121.018 204.227 120.963 204.417 120.853C204.608 120.743 204.758 120.589 204.868 120.391C204.986 120.193 205.044 119.969 205.044 119.72C205.044 119.471 204.986 119.251 204.868 119.06C204.758 118.869 204.608 118.719 204.417 118.609C204.227 118.499 204.01 118.444 203.768 118.444Z" fill="white"/>
<path d="M0.25 52V85" stroke="#004C6D" stroke-width="0.5" stroke-dasharray="2 2"/>
<path d="M154.75 52V85" stroke="#004C6D" stroke-width="0.5" stroke-dasharray="2 2"/>
<path d="M154.75 68.5L154.75 65.5M154.75 68.5L154.75 71.5M154.75 68.5L0.249995 68.5M0.249995 68.5L0.249996 65.5M0.249995 68.5L0.249995 71.4999" stroke="#004C6D" stroke-width="0.5"/>
<rect x="64.5" y="60.5" width="26" height="16" rx="3" fill="#004C6D"/>
<path d="M70.9385 72.5V65.603L71.0815 64.8H72.3795L72.3685 72.5H70.9385ZM69.3105 67.231V65.867C69.4938 65.8817 69.6918 65.8377 69.9045 65.735C70.1171 65.625 70.3261 65.4857 70.5315 65.317C70.7441 65.141 70.9275 64.965 71.0815 64.789L72.0385 65.724C71.7745 66.0173 71.4958 66.285 71.2025 66.527C70.9091 66.7617 70.6048 66.945 70.2895 67.077C69.9815 67.209 69.6551 67.2603 69.3105 67.231ZM76.6571 72.632C76.3051 72.632 75.9421 72.5733 75.5681 72.456C75.2014 72.3387 74.8677 72.1627 74.5671 71.928C74.2737 71.6933 74.0574 71.4037 73.9181 71.059L75.2931 70.652C75.4544 70.8867 75.6451 71.059 75.8651 71.169C76.0924 71.279 76.3271 71.334 76.5691 71.334C76.9504 71.334 77.2584 71.2203 77.4931 70.993C77.7351 70.7583 77.8561 70.4467 77.8561 70.058C77.8561 69.6987 77.7387 69.398 77.5041 69.156C77.2767 68.914 76.9724 68.793 76.5911 68.793C76.3637 68.793 76.1547 68.8443 75.9641 68.947C75.7734 69.0497 75.6267 69.1707 75.5241 69.31L74.1711 69.013L74.6331 64.8H78.9891V66.164H74.8531L74.6331 64.844H76.1291L75.5241 69.156L74.7211 69.013C74.7871 68.881 74.8897 68.738 75.0291 68.584C75.1684 68.4227 75.3407 68.2687 75.5461 68.122C75.7587 67.9753 75.9971 67.858 76.2611 67.77C76.5251 67.682 76.8184 67.6417 77.1411 67.649C77.5591 67.649 77.9404 67.7517 78.2851 67.957C78.6297 68.155 78.9011 68.43 79.0991 68.782C79.3044 69.1267 79.4071 69.53 79.4071 69.992C79.4071 70.5127 79.2897 70.971 79.0551 71.367C78.8204 71.763 78.4977 72.0747 78.0871 72.302C77.6764 72.522 77.1997 72.632 76.6571 72.632ZM83.1147 72.632C82.594 72.632 82.1504 72.5403 81.7837 72.357C81.4244 72.1663 81.1274 71.906 80.8927 71.576C80.6654 71.246 80.4967 70.8647 80.3867 70.432C80.284 69.992 80.2327 69.519 80.2327 69.013C80.2327 68.4263 80.295 67.8727 80.4197 67.352C80.5444 66.824 80.7314 66.3583 80.9807 65.955C81.2374 65.5517 81.5637 65.2363 81.9597 65.009C82.3557 64.7817 82.8324 64.668 83.3897 64.668C83.793 64.668 84.1854 64.7267 84.5667 64.844C84.9554 64.9613 85.3037 65.13 85.6117 65.35L84.8637 66.45C84.6364 66.2887 84.3907 66.1713 84.1267 66.098C83.87 66.0247 83.6317 65.988 83.4117 65.988C82.847 65.988 82.4034 66.2373 82.0807 66.736C81.758 67.2347 81.604 68.023 81.6187 69.101L81.3217 68.892C81.4904 68.4887 81.7507 68.166 82.1027 67.924C82.4547 67.682 82.8727 67.561 83.3567 67.561C83.848 67.561 84.2807 67.6747 84.6547 67.902C85.036 68.1293 85.333 68.441 85.5457 68.837C85.7657 69.2257 85.8757 69.662 85.8757 70.146C85.8757 70.6227 85.762 71.0517 85.5347 71.433C85.3074 71.807 84.9847 72.1003 84.5667 72.313C84.156 72.5257 83.672 72.632 83.1147 72.632ZM83.1147 71.356C83.3567 71.356 83.573 71.301 83.7637 71.191C83.9544 71.081 84.1047 70.9307 84.2147 70.74C84.3247 70.5493 84.3797 70.3293 84.3797 70.08C84.3797 69.8307 84.3247 69.6107 84.2147 69.42C84.1047 69.222 83.9544 69.068 83.7637 68.958C83.573 68.8407 83.3567 68.782 83.1147 68.782C82.8727 68.782 82.6527 68.8407 82.4547 68.958C82.264 69.068 82.1137 69.222 82.0037 69.42C81.8937 69.6107 81.8387 69.8307 81.8387 70.08C81.8387 70.3293 81.8937 70.5493 82.0037 70.74C82.1137 70.9307 82.264 71.081 82.4547 71.191C82.6527 71.301 82.8727 71.356 83.1147 71.356Z" fill="white"/>
<path d="M565.25 52V85" stroke="#004C6D" stroke-width="0.5" stroke-dasharray="2 2"/>
<path d="M719.75 52V85" stroke="#004C6D" stroke-width="0.5" stroke-dasharray="2 2"/>
<path d="M719.75 68.5L719.75 65.5M719.75 68.5L719.75 71.5M719.75 68.5L565.25 68.5M565.25 68.5L565.25 65.5M565.25 68.5L565.25 71.4999" stroke="#004C6D" stroke-width="0.5"/>
<rect x="629.5" y="60.5" width="26" height="16" rx="3" fill="#004C6D"/>
<path d="M635.938 72.5V65.603L636.081 64.8H637.379L637.368 72.5H635.938ZM634.31 67.231V65.867C634.494 65.8817 634.692 65.8377 634.904 65.735C635.117 65.625 635.326 65.4857 635.531 65.317C635.744 65.141 635.927 64.965 636.081 64.789L637.038 65.724C636.774 66.0173 636.496 66.285 636.202 66.527C635.909 66.7617 635.605 66.945 635.289 67.077C634.981 67.209 634.655 67.2603 634.31 67.231ZM641.657 72.632C641.305 72.632 640.942 72.5733 640.568 72.456C640.201 72.3387 639.868 72.1627 639.567 71.928C639.274 71.6933 639.057 71.4037 638.918 71.059L640.293 70.652C640.454 70.8867 640.645 71.059 640.865 71.169C641.092 71.279 641.327 71.334 641.569 71.334C641.95 71.334 642.258 71.2203 642.493 70.993C642.735 70.7583 642.856 70.4467 642.856 70.058C642.856 69.6987 642.739 69.398 642.504 69.156C642.277 68.914 641.972 68.793 641.591 68.793C641.364 68.793 641.155 68.8443 640.964 68.947C640.773 69.0497 640.627 69.1707 640.524 69.31L639.171 69.013L639.633 64.8H643.989V66.164H639.853L639.633 64.844H641.129L640.524 69.156L639.721 69.013C639.787 68.881 639.89 68.738 640.029 68.584C640.168 68.4227 640.341 68.2687 640.546 68.122C640.759 67.9753 640.997 67.858 641.261 67.77C641.525 67.682 641.818 67.6417 642.141 67.649C642.559 67.649 642.94 67.7517 643.285 67.957C643.63 68.155 643.901 68.43 644.099 68.782C644.304 69.1267 644.407 69.53 644.407 69.992C644.407 70.5127 644.29 70.971 644.055 71.367C643.82 71.763 643.498 72.0747 643.087 72.302C642.676 72.522 642.2 72.632 641.657 72.632ZM648.115 72.632C647.594 72.632 647.15 72.5403 646.784 72.357C646.424 72.1663 646.127 71.906 645.893 71.576C645.665 71.246 645.497 70.8647 645.387 70.432C645.284 69.992 645.233 69.519 645.233 69.013C645.233 68.4263 645.295 67.8727 645.42 67.352C645.544 66.824 645.731 66.3583 645.981 65.955C646.237 65.5517 646.564 65.2363 646.96 65.009C647.356 64.7817 647.832 64.668 648.39 64.668C648.793 64.668 649.185 64.7267 649.567 64.844C649.955 64.9613 650.304 65.13 650.612 65.35L649.864 66.45C649.636 66.2887 649.391 66.1713 649.127 66.098C648.87 66.0247 648.632 65.988 648.412 65.988C647.847 65.988 647.403 66.2373 647.081 66.736C646.758 67.2347 646.604 68.023 646.619 69.101L646.322 68.892C646.49 68.4887 646.751 68.166 647.103 67.924C647.455 67.682 647.873 67.561 648.357 67.561C648.848 67.561 649.281 67.6747 649.655 67.902C650.036 68.1293 650.333 68.441 650.546 68.837C650.766 69.2257 650.876 69.662 650.876 70.146C650.876 70.6227 650.762 71.0517 650.535 71.433C650.307 71.807 649.985 72.1003 649.567 72.313C649.156 72.5257 648.672 72.632 648.115 72.632ZM648.115 71.356C648.357 71.356 648.573 71.301 648.764 71.191C648.954 71.081 649.105 70.9307 649.215 70.74C649.325 70.5493 649.38 70.3293 649.38 70.08C649.38 69.8307 649.325 69.6107 649.215 69.42C649.105 69.222 648.954 69.068 648.764 68.958C648.573 68.8407 648.357 68.782 648.115 68.782C647.873 68.782 647.653 68.8407 647.455 68.958C647.264 69.068 647.114 69.222 647.004 69.42C646.894 69.6107 646.839 69.8307 646.839 70.08C646.839 70.3293 646.894 70.5493 647.004 70.74C647.114 70.9307 647.264 71.081 647.455 71.191C647.653 71.301 647.873 71.356 648.115 71.356Z" fill="white"/>
<path d="M250.25 104V137" stroke="#BA1A1A" stroke-width="0.5" stroke-dasharray="2 2"/>
<path d="M358.75 104V137" stroke="#BA1A1A" stroke-width="0.5" stroke-dasharray="2 2"/>
<path d="M358.75 121L358.75 118M358.75 121L358.75 124M358.75 121L250.25 121M250.25 121L250.25 118M250.25 121L250.25 124" stroke="#BA1A1A" stroke-width="0.5"/>
<rect x="291" y="113" width="27" height="16" rx="3" fill="#BA1A1A"/>
<path d="M297.568 125V118.103L297.711 117.3H299.009L298.998 125H297.568ZM295.94 119.731V118.367C296.123 118.382 296.321 118.338 296.534 118.235C296.747 118.125 296.956 117.986 297.161 117.817C297.374 117.641 297.557 117.465 297.711 117.289L298.668 118.224C298.404 118.517 298.125 118.785 297.832 119.027C297.539 119.262 297.234 119.445 296.919 119.577C296.611 119.709 296.285 119.76 295.94 119.731ZM303.627 125.132C303.004 125.132 302.454 124.963 301.977 124.626C301.501 124.281 301.127 123.812 300.855 123.218C300.584 122.617 300.448 121.927 300.448 121.15C300.448 120.373 300.584 119.687 300.855 119.093C301.127 118.492 301.497 118.022 301.966 117.685C302.443 117.34 302.993 117.168 303.616 117.168C304.24 117.168 304.79 117.34 305.266 117.685C305.75 118.022 306.128 118.492 306.399 119.093C306.671 119.687 306.806 120.373 306.806 121.15C306.806 121.927 306.671 122.617 306.399 123.218C306.128 123.812 305.754 124.281 305.277 124.626C304.801 124.963 304.251 125.132 303.627 125.132ZM303.627 123.768C303.957 123.768 304.251 123.658 304.507 123.438C304.771 123.211 304.977 122.903 305.123 122.514C305.27 122.118 305.343 121.663 305.343 121.15C305.343 120.637 305.27 120.182 305.123 119.786C304.977 119.39 304.771 119.082 304.507 118.862C304.251 118.635 303.954 118.521 303.616 118.521C303.286 118.521 302.993 118.635 302.736 118.862C302.48 119.082 302.278 119.39 302.131 119.786C301.992 120.182 301.922 120.637 301.922 121.15C301.922 121.663 301.992 122.118 302.131 122.514C302.278 122.903 302.48 123.211 302.736 123.438C303 123.658 303.297 123.768 303.627 123.768ZM310.287 117.179C310.808 117.179 311.248 117.274 311.607 117.465C311.974 117.648 312.271 117.905 312.498 118.235C312.733 118.565 312.902 118.95 313.004 119.39C313.114 119.823 313.169 120.288 313.169 120.787C313.169 121.381 313.107 121.942 312.982 122.47C312.858 122.991 312.667 123.453 312.41 123.856C312.161 124.252 311.838 124.567 311.442 124.802C311.046 125.029 310.57 125.143 310.012 125.143C309.609 125.143 309.213 125.084 308.824 124.967C308.443 124.842 308.098 124.674 307.79 124.461L308.527 123.361C308.762 123.515 309.008 123.632 309.264 123.713C309.528 123.786 309.767 123.823 309.979 123.823C310.551 123.823 310.999 123.574 311.321 123.075C311.651 122.569 311.802 121.781 311.772 120.71L312.08 120.908C311.912 121.311 311.651 121.638 311.299 121.887C310.947 122.129 310.526 122.25 310.034 122.25C309.55 122.25 309.118 122.136 308.736 121.909C308.355 121.674 308.058 121.363 307.845 120.974C307.633 120.585 307.526 120.145 307.526 119.654C307.526 119.17 307.64 118.745 307.867 118.378C308.095 118.004 308.414 117.711 308.824 117.498C309.242 117.285 309.73 117.179 310.287 117.179ZM310.287 118.444C310.045 118.444 309.829 118.499 309.638 118.609C309.448 118.719 309.297 118.869 309.187 119.06C309.077 119.251 309.022 119.471 309.022 119.72C309.022 119.969 309.077 120.193 309.187 120.391C309.297 120.589 309.448 120.743 309.638 120.853C309.829 120.963 310.045 121.018 310.287 121.018C310.529 121.018 310.746 120.963 310.936 120.853C311.127 120.743 311.277 120.589 311.387 120.391C311.505 120.193 311.563 119.969 311.563 119.72C311.563 119.471 311.505 119.251 311.387 119.06C311.277 118.869 311.127 118.719 310.936 118.609C310.746 118.499 310.529 118.444 310.287 118.444Z" fill="white"/>
<path d="M363.25 104V137" stroke="#BA1A1A" stroke-width="0.5" stroke-dasharray="2 2"/>
<path d="M563.75 104V137" stroke="#BA1A1A" stroke-width="0.5" stroke-dasharray="2 2"/>
<path d="M563.75 121L563.75 118M563.75 121L563.75 124M563.75 121L363.25 121M363.25 121L363.25 118M363.25 121L363.25 124" stroke="#BA1A1A" stroke-width="0.5"/>
<rect x="449.5" y="113" width="28" height="16" rx="3" fill="#BA1A1A"/>
<path d="M455.598 124.681L454.124 123.889C454.124 123.676 454.19 123.442 454.322 123.185C454.454 122.928 454.638 122.672 454.872 122.415C455.107 122.158 455.382 121.92 455.697 121.7L456.863 120.864C457.025 120.754 457.175 120.629 457.314 120.49C457.461 120.351 457.578 120.2 457.666 120.039C457.762 119.87 457.809 119.709 457.809 119.555C457.809 119.364 457.762 119.192 457.666 119.038C457.578 118.884 457.446 118.763 457.27 118.675C457.094 118.587 456.878 118.543 456.621 118.543C456.401 118.543 456.203 118.587 456.027 118.675C455.859 118.763 455.719 118.88 455.609 119.027C455.499 119.174 455.422 119.331 455.378 119.5L453.827 119.236C453.901 118.869 454.058 118.528 454.3 118.213C454.542 117.898 454.858 117.645 455.246 117.454C455.642 117.256 456.09 117.157 456.588 117.157C457.16 117.157 457.652 117.26 458.062 117.465C458.473 117.67 458.788 117.953 459.008 118.312C459.236 118.664 459.349 119.075 459.349 119.544C459.349 120.021 459.217 120.446 458.953 120.82C458.697 121.187 458.341 121.531 457.886 121.854L456.841 122.613C456.629 122.752 456.427 122.921 456.236 123.119C456.046 123.31 455.892 123.533 455.774 123.79C455.657 124.039 455.598 124.336 455.598 124.681ZM454.124 125V123.889L455.246 123.68H459.448V125H454.124ZM463.498 125.132C462.874 125.132 462.324 124.963 461.848 124.626C461.371 124.281 460.997 123.812 460.726 123.218C460.454 122.617 460.319 121.927 460.319 121.15C460.319 120.373 460.454 119.687 460.726 119.093C460.997 118.492 461.367 118.022 461.837 117.685C462.313 117.34 462.863 117.168 463.487 117.168C464.11 117.168 464.66 117.34 465.137 117.685C465.621 118.022 465.998 118.492 466.27 119.093C466.541 119.687 466.677 120.373 466.677 121.15C466.677 121.927 466.541 122.617 466.27 123.218C465.998 123.812 465.624 124.281 465.148 124.626C464.671 124.963 464.121 125.132 463.498 125.132ZM463.498 123.768C463.828 123.768 464.121 123.658 464.378 123.438C464.642 123.211 464.847 122.903 464.994 122.514C465.14 122.118 465.214 121.663 465.214 121.15C465.214 120.637 465.14 120.182 464.994 119.786C464.847 119.39 464.642 119.082 464.378 118.862C464.121 118.635 463.824 118.521 463.487 118.521C463.157 118.521 462.863 118.635 462.607 118.862C462.35 119.082 462.148 119.39 462.002 119.786C461.862 120.182 461.793 120.637 461.793 121.15C461.793 121.663 461.862 122.118 462.002 122.514C462.148 122.903 462.35 123.211 462.607 123.438C462.871 123.658 463.168 123.768 463.498 123.768ZM469.101 124.681L467.627 123.889C467.627 123.676 467.693 123.442 467.825 123.185C467.957 122.928 468.141 122.672 468.375 122.415C468.61 122.158 468.885 121.92 469.2 121.7L470.366 120.864C470.528 120.754 470.678 120.629 470.817 120.49C470.964 120.351 471.081 120.2 471.169 120.039C471.265 119.87 471.312 119.709 471.312 119.555C471.312 119.364 471.265 119.192 471.169 119.038C471.081 118.884 470.949 118.763 470.773 118.675C470.597 118.587 470.381 118.543 470.124 118.543C469.904 118.543 469.706 118.587 469.53 118.675C469.362 118.763 469.222 118.88 469.112 119.027C469.002 119.174 468.925 119.331 468.881 119.5L467.33 119.236C467.404 118.869 467.561 118.528 467.803 118.213C468.045 117.898 468.361 117.645 468.749 117.454C469.145 117.256 469.593 117.157 470.091 117.157C470.663 117.157 471.155 117.26 471.565 117.465C471.976 117.67 472.291 117.953 472.511 118.312C472.739 118.664 472.852 119.075 472.852 119.544C472.852 120.021 472.72 120.446 472.456 120.82C472.2 121.187 471.844 121.531 471.389 121.854L470.344 122.613C470.132 122.752 469.93 122.921 469.739 123.119C469.549 123.31 469.395 123.533 469.277 123.79C469.16 124.039 469.101 124.336 469.101 124.681ZM467.627 125V123.889L468.749 123.68H472.951V125H467.627Z" fill="white"/>
</g>
<defs>
<clipPath id="clip0_8032_66096">
<rect width="720" height="136" fill="white"/>
</clipPath>
</defs>
</svg>
