<svg width="720" height="128" viewBox="0 0 720 128" fill="none" xmlns="http://www.w3.org/2000/svg">
<rect x="0.5" y="0.5" width="719" height="127" rx="3.5" fill="#C8E6FF"/>
<rect x="0.5" y="0.5" width="719" height="127" rx="3.5" stroke="#006590"/>
<rect width="96" height="128" fill="#006590" fill-opacity="0.16"/>
<rect x="0.5" y="28.5" width="95" height="71" rx="1.5" fill="white"/>
<rect x="0.5" y="28.5" width="95" height="71" rx="1.5" stroke="#001E2E" stroke-linecap="square" stroke-dasharray="6 6"/>
<path d="M33.8182 57.8636V69.5H32.4091V57.8636H33.8182ZM40.2571 60.7727V61.9091H35.7344V60.7727H40.2571ZM37.0526 58.6818H38.3935V67C38.3935 67.3788 38.4484 67.6629 38.5582 67.8523C38.6719 68.0379 38.8158 68.1629 38.9901 68.2273C39.1681 68.2879 39.3556 68.3182 39.5526 68.3182C39.7003 68.3182 39.8215 68.3106 39.9162 68.2955C40.0109 68.2765 40.0866 68.2614 40.1435 68.25L40.4162 69.4545C40.3253 69.4886 40.1984 69.5227 40.0355 69.5568C39.8726 69.5947 39.6662 69.6136 39.4162 69.6136C39.0374 69.6136 38.6662 69.5322 38.3026 69.3693C37.9427 69.2064 37.6435 68.9583 37.4048 68.625C37.17 68.2917 37.0526 67.8712 37.0526 67.3636V58.6818ZM45.8395 69.6818C44.9986 69.6818 44.2732 69.4962 43.6634 69.125C43.0573 68.75 42.5895 68.2273 42.2599 67.5568C41.9342 66.8826 41.7713 66.0985 41.7713 65.2045C41.7713 64.3106 41.9342 63.5227 42.2599 62.8409C42.5895 62.1553 43.0478 61.6212 43.6349 61.2386C44.2259 60.8523 44.9152 60.6591 45.7031 60.6591C46.1577 60.6591 46.6065 60.7348 47.0497 60.8864C47.4929 61.0379 47.8963 61.2841 48.2599 61.625C48.6236 61.9621 48.9134 62.4091 49.1293 62.9659C49.3452 63.5227 49.4531 64.2083 49.4531 65.0227V65.5909H42.7259V64.4318H48.0895C48.0895 63.9394 47.991 63.5 47.794 63.1136C47.6009 62.7273 47.3243 62.4223 46.9645 62.1989C46.6084 61.9754 46.188 61.8636 45.7031 61.8636C45.169 61.8636 44.7069 61.9962 44.3168 62.2614C43.9304 62.5227 43.633 62.8636 43.4247 63.2841C43.2164 63.7045 43.1122 64.1553 43.1122 64.6364V65.4091C43.1122 66.0682 43.2259 66.6269 43.4531 67.0852C43.6842 67.5398 44.0043 67.8864 44.4134 68.125C44.8224 68.3598 45.2978 68.4773 45.8395 68.4773C46.1918 68.4773 46.5099 68.428 46.794 68.3295C47.0819 68.2273 47.33 68.0758 47.5384 67.875C47.7467 67.6705 47.9077 67.4167 48.0213 67.1136L49.3168 67.4773C49.1804 67.9167 48.9512 68.303 48.6293 68.6364C48.3073 68.9659 47.9096 69.2235 47.4361 69.4091C46.9626 69.5909 46.4304 69.6818 45.8395 69.6818ZM51.4929 69.5V60.7727H52.7884V62.1364H52.902C53.0838 61.6705 53.3774 61.3087 53.7827 61.0511C54.188 60.7898 54.6747 60.6591 55.2429 60.6591C55.8187 60.6591 56.2978 60.7898 56.6804 61.0511C57.0668 61.3087 57.3679 61.6705 57.5838 62.1364H57.6747C57.8982 61.6856 58.2334 61.3277 58.6804 61.0625C59.1274 60.7936 59.6634 60.6591 60.2884 60.6591C61.0687 60.6591 61.7069 60.9034 62.2031 61.392C62.6993 61.8769 62.9474 62.6326 62.9474 63.6591V69.5H61.6065V63.6591C61.6065 63.0152 61.4304 62.5549 61.0781 62.2784C60.7259 62.0019 60.3111 61.8636 59.8338 61.8636C59.2202 61.8636 58.7448 62.0492 58.4077 62.4205C58.0705 62.7879 57.902 63.2538 57.902 63.8182V69.5H56.5384V63.5227C56.5384 63.0265 56.3774 62.6269 56.0554 62.3239C55.7334 62.017 55.3187 61.8636 54.8111 61.8636C54.4626 61.8636 54.1368 61.9564 53.8338 62.142C53.5346 62.3277 53.2921 62.5852 53.1065 62.9148C52.9247 63.2405 52.8338 63.6174 52.8338 64.0455V69.5H51.4929Z" fill="#0B1D28"/>
<rect width="72" height="128" transform="translate(112)" fill="#006590" fill-opacity="0.16"/>
<rect x="112.5" y="0.5" width="71" height="127" rx="1.5" fill="white"/>
<rect x="112.5" y="0.5" width="71" height="127" rx="1.5" stroke="#001E2E" stroke-linecap="square" stroke-dasharray="6 6"/>
<path d="M133.818 57.8636V69.5H132.409V57.8636H133.818ZM140.257 60.7727V61.9091H135.734V60.7727H140.257ZM137.053 58.6818H138.393V67C138.393 67.3788 138.448 67.6629 138.558 67.8523C138.672 68.0379 138.816 68.1629 138.99 68.2273C139.168 68.2879 139.356 68.3182 139.553 68.3182C139.7 68.3182 139.821 68.3106 139.916 68.2955C140.011 68.2765 140.087 68.2614 140.143 68.25L140.416 69.4545C140.325 69.4886 140.198 69.5227 140.036 69.5568C139.873 69.5947 139.666 69.6136 139.416 69.6136C139.037 69.6136 138.666 69.5322 138.303 69.3693C137.943 69.2064 137.643 68.9583 137.405 68.625C137.17 68.2917 137.053 67.8712 137.053 67.3636V58.6818ZM145.839 69.6818C144.999 69.6818 144.273 69.4962 143.663 69.125C143.057 68.75 142.589 68.2273 142.26 67.5568C141.934 66.8826 141.771 66.0985 141.771 65.2045C141.771 64.3106 141.934 63.5227 142.26 62.8409C142.589 62.1553 143.048 61.6212 143.635 61.2386C144.226 60.8523 144.915 60.6591 145.703 60.6591C146.158 60.6591 146.607 60.7348 147.05 60.8864C147.493 61.0379 147.896 61.2841 148.26 61.625C148.624 61.9621 148.913 62.4091 149.129 62.9659C149.345 63.5227 149.453 64.2083 149.453 65.0227V65.5909H142.726V64.4318H148.089C148.089 63.9394 147.991 63.5 147.794 63.1136C147.601 62.7273 147.324 62.4223 146.964 62.1989C146.608 61.9754 146.188 61.8636 145.703 61.8636C145.169 61.8636 144.707 61.9962 144.317 62.2614C143.93 62.5227 143.633 62.8636 143.425 63.2841C143.216 63.7045 143.112 64.1553 143.112 64.6364V65.4091C143.112 66.0682 143.226 66.6269 143.453 67.0852C143.684 67.5398 144.004 67.8864 144.413 68.125C144.822 68.3598 145.298 68.4773 145.839 68.4773C146.192 68.4773 146.51 68.428 146.794 68.3295C147.082 68.2273 147.33 68.0758 147.538 67.875C147.747 67.6705 147.908 67.4167 148.021 67.1136L149.317 67.4773C149.18 67.9167 148.951 68.303 148.629 68.6364C148.307 68.9659 147.91 69.2235 147.436 69.4091C146.963 69.5909 146.43 69.6818 145.839 69.6818ZM151.493 69.5V60.7727H152.788V62.1364H152.902C153.084 61.6705 153.377 61.3087 153.783 61.0511C154.188 60.7898 154.675 60.6591 155.243 60.6591C155.819 60.6591 156.298 60.7898 156.68 61.0511C157.067 61.3087 157.368 61.6705 157.584 62.1364H157.675C157.898 61.6856 158.233 61.3277 158.68 61.0625C159.127 60.7936 159.663 60.6591 160.288 60.6591C161.069 60.6591 161.707 60.9034 162.203 61.392C162.699 61.8769 162.947 62.6326 162.947 63.6591V69.5H161.607V63.6591C161.607 63.0152 161.43 62.5549 161.078 62.2784C160.726 62.0019 160.311 61.8636 159.834 61.8636C159.22 61.8636 158.745 62.0492 158.408 62.4205C158.071 62.7879 157.902 63.2538 157.902 63.8182V69.5H156.538V63.5227C156.538 63.0265 156.377 62.6269 156.055 62.3239C155.733 62.017 155.319 61.8636 154.811 61.8636C154.463 61.8636 154.137 61.9564 153.834 62.142C153.535 62.3277 153.292 62.5852 153.107 62.9148C152.925 63.2405 152.834 63.6174 152.834 64.0455V69.5H151.493Z" fill="#0B1D28"/>
<rect width="144" height="128" transform="translate(200)" fill="#006590" fill-opacity="0.16"/>
<rect x="200.5" y="28.5" width="143" height="71" rx="1.5" fill="white"/>
<rect x="200.5" y="28.5" width="143" height="71" rx="1.5" stroke="#001E2E" stroke-linecap="square" stroke-dasharray="6 6"/>
<path d="M257.818 57.8636V69.5H256.409V57.8636H257.818ZM264.257 60.7727V61.9091H259.734V60.7727H264.257ZM261.053 58.6818H262.393V67C262.393 67.3788 262.448 67.6629 262.558 67.8523C262.672 68.0379 262.816 68.1629 262.99 68.2273C263.168 68.2879 263.356 68.3182 263.553 68.3182C263.7 68.3182 263.821 68.3106 263.916 68.2955C264.011 68.2765 264.087 68.2614 264.143 68.25L264.416 69.4545C264.325 69.4886 264.198 69.5227 264.036 69.5568C263.873 69.5947 263.666 69.6136 263.416 69.6136C263.037 69.6136 262.666 69.5322 262.303 69.3693C261.943 69.2064 261.643 68.9583 261.405 68.625C261.17 68.2917 261.053 67.8712 261.053 67.3636V58.6818ZM269.839 69.6818C268.999 69.6818 268.273 69.4962 267.663 69.125C267.057 68.75 266.589 68.2273 266.26 67.5568C265.934 66.8826 265.771 66.0985 265.771 65.2045C265.771 64.3106 265.934 63.5227 266.26 62.8409C266.589 62.1553 267.048 61.6212 267.635 61.2386C268.226 60.8523 268.915 60.6591 269.703 60.6591C270.158 60.6591 270.607 60.7348 271.05 60.8864C271.493 61.0379 271.896 61.2841 272.26 61.625C272.624 61.9621 272.913 62.4091 273.129 62.9659C273.345 63.5227 273.453 64.2083 273.453 65.0227V65.5909H266.726V64.4318H272.089C272.089 63.9394 271.991 63.5 271.794 63.1136C271.601 62.7273 271.324 62.4223 270.964 62.1989C270.608 61.9754 270.188 61.8636 269.703 61.8636C269.169 61.8636 268.707 61.9962 268.317 62.2614C267.93 62.5227 267.633 62.8636 267.425 63.2841C267.216 63.7045 267.112 64.1553 267.112 64.6364V65.4091C267.112 66.0682 267.226 66.6269 267.453 67.0852C267.684 67.5398 268.004 67.8864 268.413 68.125C268.822 68.3598 269.298 68.4773 269.839 68.4773C270.192 68.4773 270.51 68.428 270.794 68.3295C271.082 68.2273 271.33 68.0758 271.538 67.875C271.747 67.6705 271.908 67.4167 272.021 67.1136L273.317 67.4773C273.18 67.9167 272.951 68.303 272.629 68.6364C272.307 68.9659 271.91 69.2235 271.436 69.4091C270.963 69.5909 270.43 69.6818 269.839 69.6818ZM275.493 69.5V60.7727H276.788V62.1364H276.902C277.084 61.6705 277.377 61.3087 277.783 61.0511C278.188 60.7898 278.675 60.6591 279.243 60.6591C279.819 60.6591 280.298 60.7898 280.68 61.0511C281.067 61.3087 281.368 61.6705 281.584 62.1364H281.675C281.898 61.6856 282.233 61.3277 282.68 61.0625C283.127 60.7936 283.663 60.6591 284.288 60.6591C285.069 60.6591 285.707 60.9034 286.203 61.392C286.699 61.8769 286.947 62.6326 286.947 63.6591V69.5H285.607V63.6591C285.607 63.0152 285.43 62.5549 285.078 62.2784C284.726 62.0019 284.311 61.8636 283.834 61.8636C283.22 61.8636 282.745 62.0492 282.408 62.4205C282.071 62.7879 281.902 63.2538 281.902 63.8182V69.5H280.538V63.5227C280.538 63.0265 280.377 62.6269 280.055 62.3239C279.733 62.017 279.319 61.8636 278.811 61.8636C278.463 61.8636 278.137 61.9564 277.834 62.142C277.535 62.3277 277.292 62.5852 277.107 62.9148C276.925 63.2405 276.834 63.6174 276.834 64.0455V69.5H275.493Z" fill="#0B1D28"/>
</svg>
