<svg width="720" height="128" viewBox="0 0 720 128" fill="none" xmlns="http://www.w3.org/2000/svg">
<rect x="0.5" y="0.5" width="719" height="127" rx="3.5" fill="#C8E6FF"/>
<rect x="0.5" y="0.5" width="719" height="127" rx="3.5" stroke="#006590"/>
<rect width="96" height="128" transform="translate(188)" fill="#006590" fill-opacity="0.16"/>
<rect x="188.5" y="56.5" width="95" height="71" rx="1.5" fill="white"/>
<rect x="188.5" y="56.5" width="95" height="71" rx="1.5" stroke="#001E2E" stroke-linecap="square" stroke-dasharray="6 6"/>
<path d="M221.818 85.8636V97.5H220.409V85.8636H221.818ZM228.257 88.7727V89.9091H223.734V88.7727H228.257ZM225.053 86.6818H226.393V95C226.393 95.3788 226.448 95.6629 226.558 95.8523C226.672 96.0379 226.816 96.1629 226.99 96.2273C227.168 96.2879 227.356 96.3182 227.553 96.3182C227.7 96.3182 227.821 96.3106 227.916 96.2955C228.011 96.2765 228.087 96.2614 228.143 96.25L228.416 97.4545C228.325 97.4886 228.198 97.5227 228.036 97.5568C227.873 97.5947 227.666 97.6136 227.416 97.6136C227.037 97.6136 226.666 97.5322 226.303 97.3693C225.943 97.2064 225.643 96.9583 225.405 96.625C225.17 96.2917 225.053 95.8712 225.053 95.3636V86.6818ZM233.839 97.6818C232.999 97.6818 232.273 97.4962 231.663 97.125C231.057 96.75 230.589 96.2273 230.26 95.5568C229.934 94.8826 229.771 94.0985 229.771 93.2045C229.771 92.3106 229.934 91.5227 230.26 90.8409C230.589 90.1553 231.048 89.6212 231.635 89.2386C232.226 88.8523 232.915 88.6591 233.703 88.6591C234.158 88.6591 234.607 88.7348 235.05 88.8864C235.493 89.0379 235.896 89.2841 236.26 89.625C236.624 89.9621 236.913 90.4091 237.129 90.9659C237.345 91.5227 237.453 92.2083 237.453 93.0227V93.5909H230.726V92.4318H236.089C236.089 91.9394 235.991 91.5 235.794 91.1136C235.601 90.7273 235.324 90.4223 234.964 90.1989C234.608 89.9754 234.188 89.8636 233.703 89.8636C233.169 89.8636 232.707 89.9962 232.317 90.2614C231.93 90.5227 231.633 90.8636 231.425 91.2841C231.216 91.7045 231.112 92.1553 231.112 92.6364V93.4091C231.112 94.0682 231.226 94.6269 231.453 95.0852C231.684 95.5398 232.004 95.8864 232.413 96.125C232.822 96.3598 233.298 96.4773 233.839 96.4773C234.192 96.4773 234.51 96.428 234.794 96.3295C235.082 96.2273 235.33 96.0758 235.538 95.875C235.747 95.6705 235.908 95.4167 236.021 95.1136L237.317 95.4773C237.18 95.9167 236.951 96.303 236.629 96.6364C236.307 96.9659 235.91 97.2235 235.436 97.4091C234.963 97.5909 234.43 97.6818 233.839 97.6818ZM239.493 97.5V88.7727H240.788V90.1364H240.902C241.084 89.6705 241.377 89.3087 241.783 89.0511C242.188 88.7898 242.675 88.6591 243.243 88.6591C243.819 88.6591 244.298 88.7898 244.68 89.0511C245.067 89.3087 245.368 89.6705 245.584 90.1364H245.675C245.898 89.6856 246.233 89.3277 246.68 89.0625C247.127 88.7936 247.663 88.6591 248.288 88.6591C249.069 88.6591 249.707 88.9034 250.203 89.392C250.699 89.8769 250.947 90.6326 250.947 91.6591V97.5H249.607V91.6591C249.607 91.0152 249.43 90.5549 249.078 90.2784C248.726 90.0019 248.311 89.8636 247.834 89.8636C247.22 89.8636 246.745 90.0492 246.408 90.4205C246.071 90.7879 245.902 91.2538 245.902 91.8182V97.5H244.538V91.5227C244.538 91.0265 244.377 90.6269 244.055 90.3239C243.733 90.017 243.319 89.8636 242.811 89.8636C242.463 89.8636 242.137 89.9564 241.834 90.142C241.535 90.3277 241.292 90.5852 241.107 90.9148C240.925 91.2405 240.834 91.6174 240.834 92.0455V97.5H239.493Z" fill="#0B1D28"/>
<rect width="72" height="128" transform="translate(300)" fill="#006590" fill-opacity="0.16"/>
<rect x="300.5" y="0.5" width="71" height="127" rx="1.5" fill="white"/>
<rect x="300.5" y="0.5" width="71" height="127" rx="1.5" stroke="#001E2E" stroke-linecap="square" stroke-dasharray="6 6"/>
<path d="M321.818 57.8636V69.5H320.409V57.8636H321.818ZM328.257 60.7727V61.9091H323.734V60.7727H328.257ZM325.053 58.6818H326.393V67C326.393 67.3788 326.448 67.6629 326.558 67.8523C326.672 68.0379 326.816 68.1629 326.99 68.2273C327.168 68.2879 327.356 68.3182 327.553 68.3182C327.7 68.3182 327.821 68.3106 327.916 68.2955C328.011 68.2765 328.087 68.2614 328.143 68.25L328.416 69.4545C328.325 69.4886 328.198 69.5227 328.036 69.5568C327.873 69.5947 327.666 69.6136 327.416 69.6136C327.037 69.6136 326.666 69.5322 326.303 69.3693C325.943 69.2064 325.643 68.9583 325.405 68.625C325.17 68.2917 325.053 67.8712 325.053 67.3636V58.6818ZM333.839 69.6818C332.999 69.6818 332.273 69.4962 331.663 69.125C331.057 68.75 330.589 68.2273 330.26 67.5568C329.934 66.8826 329.771 66.0985 329.771 65.2045C329.771 64.3106 329.934 63.5227 330.26 62.8409C330.589 62.1553 331.048 61.6212 331.635 61.2386C332.226 60.8523 332.915 60.6591 333.703 60.6591C334.158 60.6591 334.607 60.7348 335.05 60.8864C335.493 61.0379 335.896 61.2841 336.26 61.625C336.624 61.9621 336.913 62.4091 337.129 62.9659C337.345 63.5227 337.453 64.2083 337.453 65.0227V65.5909H330.726V64.4318H336.089C336.089 63.9394 335.991 63.5 335.794 63.1136C335.601 62.7273 335.324 62.4223 334.964 62.1989C334.608 61.9754 334.188 61.8636 333.703 61.8636C333.169 61.8636 332.707 61.9962 332.317 62.2614C331.93 62.5227 331.633 62.8636 331.425 63.2841C331.216 63.7045 331.112 64.1553 331.112 64.6364V65.4091C331.112 66.0682 331.226 66.6269 331.453 67.0852C331.684 67.5398 332.004 67.8864 332.413 68.125C332.822 68.3598 333.298 68.4773 333.839 68.4773C334.192 68.4773 334.51 68.428 334.794 68.3295C335.082 68.2273 335.33 68.0758 335.538 67.875C335.747 67.6705 335.908 67.4167 336.021 67.1136L337.317 67.4773C337.18 67.9167 336.951 68.303 336.629 68.6364C336.307 68.9659 335.91 69.2235 335.436 69.4091C334.963 69.5909 334.43 69.6818 333.839 69.6818ZM339.493 69.5V60.7727H340.788V62.1364H340.902C341.084 61.6705 341.377 61.3087 341.783 61.0511C342.188 60.7898 342.675 60.6591 343.243 60.6591C343.819 60.6591 344.298 60.7898 344.68 61.0511C345.067 61.3087 345.368 61.6705 345.584 62.1364H345.675C345.898 61.6856 346.233 61.3277 346.68 61.0625C347.127 60.7936 347.663 60.6591 348.288 60.6591C349.069 60.6591 349.707 60.9034 350.203 61.392C350.699 61.8769 350.947 62.6326 350.947 63.6591V69.5H349.607V63.6591C349.607 63.0152 349.43 62.5549 349.078 62.2784C348.726 62.0019 348.311 61.8636 347.834 61.8636C347.22 61.8636 346.745 62.0492 346.408 62.4205C346.071 62.7879 345.902 63.2538 345.902 63.8182V69.5H344.538V63.5227C344.538 63.0265 344.377 62.6269 344.055 62.3239C343.733 62.017 343.319 61.8636 342.811 61.8636C342.463 61.8636 342.137 61.9564 341.834 62.142C341.535 62.3277 341.292 62.5852 341.107 62.9148C340.925 63.2405 340.834 63.6174 340.834 64.0455V69.5H339.493Z" fill="#0B1D28"/>
<rect width="144" height="128" transform="translate(388)" fill="#006590" fill-opacity="0.16"/>
<rect x="388.5" y="56.5" width="143" height="71" rx="1.5" fill="white"/>
<rect x="388.5" y="56.5" width="143" height="71" rx="1.5" stroke="#001E2E" stroke-linecap="square" stroke-dasharray="6 6"/>
<path d="M445.818 85.8636V97.5H444.409V85.8636H445.818ZM452.257 88.7727V89.9091H447.734V88.7727H452.257ZM449.053 86.6818H450.393V95C450.393 95.3788 450.448 95.6629 450.558 95.8523C450.672 96.0379 450.816 96.1629 450.99 96.2273C451.168 96.2879 451.356 96.3182 451.553 96.3182C451.7 96.3182 451.821 96.3106 451.916 96.2955C452.011 96.2765 452.087 96.2614 452.143 96.25L452.416 97.4545C452.325 97.4886 452.198 97.5227 452.036 97.5568C451.873 97.5947 451.666 97.6136 451.416 97.6136C451.037 97.6136 450.666 97.5322 450.303 97.3693C449.943 97.2064 449.643 96.9583 449.405 96.625C449.17 96.2917 449.053 95.8712 449.053 95.3636V86.6818ZM457.839 97.6818C456.999 97.6818 456.273 97.4962 455.663 97.125C455.057 96.75 454.589 96.2273 454.26 95.5568C453.934 94.8826 453.771 94.0985 453.771 93.2045C453.771 92.3106 453.934 91.5227 454.26 90.8409C454.589 90.1553 455.048 89.6212 455.635 89.2386C456.226 88.8523 456.915 88.6591 457.703 88.6591C458.158 88.6591 458.607 88.7348 459.05 88.8864C459.493 89.0379 459.896 89.2841 460.26 89.625C460.624 89.9621 460.913 90.4091 461.129 90.9659C461.345 91.5227 461.453 92.2083 461.453 93.0227V93.5909H454.726V92.4318H460.089C460.089 91.9394 459.991 91.5 459.794 91.1136C459.601 90.7273 459.324 90.4223 458.964 90.1989C458.608 89.9754 458.188 89.8636 457.703 89.8636C457.169 89.8636 456.707 89.9962 456.317 90.2614C455.93 90.5227 455.633 90.8636 455.425 91.2841C455.216 91.7045 455.112 92.1553 455.112 92.6364V93.4091C455.112 94.0682 455.226 94.6269 455.453 95.0852C455.684 95.5398 456.004 95.8864 456.413 96.125C456.822 96.3598 457.298 96.4773 457.839 96.4773C458.192 96.4773 458.51 96.428 458.794 96.3295C459.082 96.2273 459.33 96.0758 459.538 95.875C459.747 95.6705 459.908 95.4167 460.021 95.1136L461.317 95.4773C461.18 95.9167 460.951 96.303 460.629 96.6364C460.307 96.9659 459.91 97.2235 459.436 97.4091C458.963 97.5909 458.43 97.6818 457.839 97.6818ZM463.493 97.5V88.7727H464.788V90.1364H464.902C465.084 89.6705 465.377 89.3087 465.783 89.0511C466.188 88.7898 466.675 88.6591 467.243 88.6591C467.819 88.6591 468.298 88.7898 468.68 89.0511C469.067 89.3087 469.368 89.6705 469.584 90.1364H469.675C469.898 89.6856 470.233 89.3277 470.68 89.0625C471.127 88.7936 471.663 88.6591 472.288 88.6591C473.069 88.6591 473.707 88.9034 474.203 89.392C474.699 89.8769 474.947 90.6326 474.947 91.6591V97.5H473.607V91.6591C473.607 91.0152 473.43 90.5549 473.078 90.2784C472.726 90.0019 472.311 89.8636 471.834 89.8636C471.22 89.8636 470.745 90.0492 470.408 90.4205C470.071 90.7879 469.902 91.2538 469.902 91.8182V97.5H468.538V91.5227C468.538 91.0265 468.377 90.6269 468.055 90.3239C467.733 90.017 467.319 89.8636 466.811 89.8636C466.463 89.8636 466.137 89.9564 465.834 90.142C465.535 90.3277 465.292 90.5852 465.107 90.9148C464.925 91.2405 464.834 91.6174 464.834 92.0455V97.5H463.493Z" fill="#0B1D28"/>
</svg>
