<svg width="720" height="105" viewBox="0 0 720 105" fill="none" xmlns="http://www.w3.org/2000/svg">
<g clip-path="url(#clip0_8065_4459)">
<rect width="720" height="105" rx="2" fill="#87CEFF"/>
<rect x="0.5" y="0.5" width="91" height="104" rx="1.5" fill="#E5F2FF"/>
<rect x="0.5" y="0.5" width="91" height="104" rx="1.5" stroke="#001E2E" stroke-linecap="square" stroke-dasharray="6 6"/>
<rect width="44" height="57" transform="translate(24 24)" fill="white"/>
<path d="M29.1136 30.2727V31.4091H24.4091V30.2727H29.1136ZM25.8182 39V29.0682C25.8182 28.5682 25.9356 28.1515 26.1705 27.8182C26.4053 27.4848 26.7102 27.2348 27.0852 27.0682C27.4602 26.9015 27.8561 26.8182 28.2727 26.8182C28.6023 26.8182 28.8712 26.8447 29.0795 26.8977C29.2879 26.9508 29.4432 27 29.5455 27.0455L29.1591 28.2045C29.0909 28.1818 28.9962 28.1534 28.875 28.1193C28.7576 28.0852 28.6023 28.0682 28.4091 28.0682C27.9659 28.0682 27.6458 28.1799 27.4489 28.4034C27.2557 28.6269 27.1591 28.9545 27.1591 29.3864V39H25.8182ZM32.3338 27.3636V39H30.9929V27.3636H32.3338ZM38.4489 39.1818C37.608 39.1818 36.8826 38.9962 36.2727 38.625C35.6667 38.25 35.1989 37.7273 34.8693 37.0568C34.5436 36.3826 34.3807 35.5985 34.3807 34.7045C34.3807 33.8106 34.5436 33.0227 34.8693 32.3409C35.1989 31.6553 35.6572 31.1212 36.2443 30.7386C36.8352 30.3523 37.5246 30.1591 38.3125 30.1591C38.767 30.1591 39.2159 30.2348 39.6591 30.3864C40.1023 30.5379 40.5057 30.7841 40.8693 31.125C41.233 31.4621 41.5227 31.9091 41.7386 32.4659C41.9545 33.0227 42.0625 33.7083 42.0625 34.5227V35.0909H35.3352V33.9318H40.6989C40.6989 33.4394 40.6004 33 40.4034 32.6136C40.2102 32.2273 39.9337 31.9223 39.5739 31.6989C39.2178 31.4754 38.7973 31.3636 38.3125 31.3636C37.7784 31.3636 37.3163 31.4962 36.9261 31.7614C36.5398 32.0227 36.2424 32.3636 36.0341 32.7841C35.8258 33.2045 35.7216 33.6553 35.7216 34.1364V34.9091C35.7216 35.5682 35.8352 36.1269 36.0625 36.5852C36.2936 37.0398 36.6136 37.3864 37.0227 37.625C37.4318 37.8598 37.9072 37.9773 38.4489 37.9773C38.8011 37.9773 39.1193 37.928 39.4034 37.8295C39.6913 37.7273 39.9394 37.5758 40.1477 37.375C40.3561 37.1705 40.517 36.9167 40.6307 36.6136L41.9261 36.9773C41.7898 37.4167 41.5606 37.803 41.2386 38.1364C40.9167 38.4659 40.5189 38.7235 40.0455 38.9091C39.572 39.0909 39.0398 39.1818 38.4489 39.1818ZM44.8679 30.2727L46.9588 33.8409L49.0497 30.2727H50.5952L47.777 34.6364L50.5952 39H49.0497L46.9588 35.6136L44.8679 39H43.3224L46.0952 34.6364L43.3224 30.2727H44.8679ZM57.1491 33.3864V34.6364H52.0582V33.3864H57.1491ZM25.4091 58V46.3636H26.75V50.6591H26.8636C26.9621 50.5076 27.0985 50.3144 27.2727 50.0795C27.4508 49.8409 27.7045 49.6288 28.0341 49.4432C28.3674 49.2538 28.8182 49.1591 29.3864 49.1591C30.1212 49.1591 30.7689 49.3428 31.3295 49.7102C31.8902 50.0777 32.3277 50.5985 32.642 51.2727C32.9564 51.947 33.1136 52.7424 33.1136 53.6591C33.1136 54.5833 32.9564 55.3845 32.642 56.0625C32.3277 56.7367 31.892 57.2595 31.3352 57.6307C30.7784 57.9981 30.1364 58.1818 29.4091 58.1818C28.8485 58.1818 28.3996 58.089 28.0625 57.9034C27.7254 57.714 27.4659 57.5 27.2841 57.2614C27.1023 57.0189 26.9621 56.8182 26.8636 56.6591H26.7045V58H25.4091ZM26.7273 53.6364C26.7273 54.2955 26.8239 54.8769 27.017 55.3807C27.2102 55.8807 27.4924 56.2727 27.8636 56.5568C28.2348 56.8371 28.6894 56.9773 29.2273 56.9773C29.7879 56.9773 30.2557 56.8295 30.6307 56.5341C31.0095 56.2348 31.2936 55.8333 31.483 55.3295C31.6761 54.822 31.7727 54.2576 31.7727 53.6364C31.7727 53.0227 31.678 52.4697 31.4886 51.9773C31.303 51.4811 31.0208 51.089 30.642 50.8011C30.267 50.5095 29.7955 50.3636 29.2273 50.3636C28.6818 50.3636 28.2235 50.5019 27.8523 50.7784C27.4811 51.0511 27.2008 51.4337 27.0114 51.9261C26.822 52.4148 26.7273 52.9848 26.7273 53.6364ZM37.733 58.2045C37.1799 58.2045 36.678 58.1004 36.2273 57.892C35.7765 57.6799 35.4186 57.375 35.1534 56.9773C34.8883 56.5758 34.7557 56.0909 34.7557 55.5227C34.7557 55.0227 34.8542 54.6174 35.0511 54.3068C35.2481 53.9924 35.5114 53.7462 35.8409 53.5682C36.1705 53.3902 36.5341 53.2576 36.9318 53.1705C37.3333 53.0795 37.7367 53.0076 38.142 52.9545C38.6723 52.8864 39.1023 52.8352 39.4318 52.8011C39.7652 52.7633 40.0076 52.7008 40.1591 52.6136C40.3144 52.5265 40.392 52.375 40.392 52.1591V52.1136C40.392 51.553 40.2386 51.1174 39.9318 50.8068C39.6288 50.4962 39.1686 50.3409 38.5511 50.3409C37.911 50.3409 37.4091 50.4811 37.0455 50.7614C36.6818 51.0417 36.4261 51.3409 36.2784 51.6591L35.0057 51.2045C35.233 50.6742 35.536 50.2614 35.9148 49.9659C36.2973 49.6667 36.714 49.4583 37.1648 49.3409C37.6193 49.2197 38.0663 49.1591 38.5057 49.1591C38.786 49.1591 39.108 49.1932 39.4716 49.2614C39.839 49.3258 40.1932 49.4602 40.5341 49.6648C40.8788 49.8693 41.1648 50.178 41.392 50.5909C41.6193 51.0038 41.733 51.5568 41.733 52.25V58H40.392V56.8182H40.3239C40.233 57.0076 40.0814 57.2102 39.8693 57.4261C39.6572 57.642 39.375 57.8258 39.0227 57.9773C38.6705 58.1288 38.2405 58.2045 37.733 58.2045ZM37.9375 57C38.4678 57 38.9148 56.8958 39.2784 56.6875C39.6458 56.4792 39.9223 56.2102 40.108 55.8807C40.2973 55.5511 40.392 55.2045 40.392 54.8409V53.6136C40.3352 53.6818 40.2102 53.7443 40.017 53.8011C39.8277 53.8542 39.608 53.9015 39.358 53.9432C39.1117 53.9811 38.8712 54.0152 38.6364 54.0455C38.4053 54.072 38.2178 54.0947 38.0739 54.1136C37.7254 54.1591 37.3996 54.233 37.0966 54.3352C36.7973 54.4337 36.5549 54.5833 36.3693 54.7841C36.1875 54.9811 36.0966 55.25 36.0966 55.5909C36.0966 56.0568 36.2689 56.4091 36.6136 56.6477C36.9621 56.8826 37.4034 57 37.9375 57ZM50.3622 51.2273L49.1577 51.5682C49.0819 51.3674 48.9702 51.1723 48.8224 50.983C48.6785 50.7898 48.4815 50.6307 48.2315 50.5057C47.9815 50.3807 47.6615 50.3182 47.2713 50.3182C46.7372 50.3182 46.2921 50.4413 45.9361 50.6875C45.5838 50.9299 45.4077 51.2386 45.4077 51.6136C45.4077 51.947 45.5289 52.2102 45.7713 52.4034C46.0137 52.5966 46.3925 52.7576 46.9077 52.8864L48.2031 53.2045C48.9834 53.3939 49.5649 53.6837 49.9474 54.0739C50.33 54.4602 50.5213 54.9583 50.5213 55.5682C50.5213 56.0682 50.3774 56.5152 50.0895 56.9091C49.8054 57.303 49.4077 57.6136 48.8963 57.8409C48.3849 58.0682 47.7902 58.1818 47.1122 58.1818C46.2221 58.1818 45.4853 57.9886 44.902 57.6023C44.3187 57.2159 43.9493 56.6515 43.794 55.9091L45.0668 55.5909C45.188 56.0606 45.4171 56.4129 45.7543 56.6477C46.0952 56.8826 46.5402 57 47.0895 57C47.7145 57 48.2107 56.8674 48.5781 56.6023C48.9493 56.3333 49.1349 56.0114 49.1349 55.6364C49.1349 55.3333 49.0289 55.0795 48.8168 54.875C48.6046 54.6667 48.2789 54.5114 47.8395 54.4091L46.3849 54.0682C45.5857 53.8788 44.9986 53.5852 44.6236 53.1875C44.2524 52.786 44.0668 52.2841 44.0668 51.6818C44.0668 51.1894 44.205 50.7538 44.4815 50.375C44.7618 49.9962 45.1425 49.6989 45.6236 49.483C46.1084 49.267 46.6577 49.1591 47.2713 49.1591C48.1349 49.1591 48.813 49.3485 49.3054 49.7273C49.8016 50.1061 50.1539 50.6061 50.3622 51.2273ZM52.5398 58V49.2727H53.8807V58H52.5398ZM53.2216 47.8182C52.9602 47.8182 52.7348 47.7292 52.5455 47.5511C52.3598 47.3731 52.267 47.1591 52.267 46.9091C52.267 46.6591 52.3598 46.4451 52.5455 46.267C52.7348 46.089 52.9602 46 53.2216 46C53.483 46 53.7064 46.089 53.892 46.267C54.0814 46.4451 54.1761 46.6591 54.1761 46.9091C54.1761 47.1591 54.0814 47.3731 53.892 47.5511C53.7064 47.7292 53.483 47.8182 53.2216 47.8182ZM62.5185 51.2273L61.3139 51.5682C61.2382 51.3674 61.1264 51.1723 60.9787 50.983C60.8348 50.7898 60.6378 50.6307 60.3878 50.5057C60.1378 50.3807 59.8177 50.3182 59.4276 50.3182C58.8935 50.3182 58.4484 50.4413 58.0923 50.6875C57.7401 50.9299 57.5639 51.2386 57.5639 51.6136C57.5639 51.947 57.6851 52.2102 57.9276 52.4034C58.17 52.5966 58.5488 52.7576 59.0639 52.8864L60.3594 53.2045C61.1397 53.3939 61.7211 53.6837 62.1037 54.0739C62.4863 54.4602 62.6776 54.9583 62.6776 55.5682C62.6776 56.0682 62.5336 56.5152 62.2457 56.9091C61.9616 57.303 61.5639 57.6136 61.0526 57.8409C60.5412 58.0682 59.9465 58.1818 59.2685 58.1818C58.3783 58.1818 57.6416 57.9886 57.0582 57.6023C56.4749 57.2159 56.1056 56.6515 55.9503 55.9091L57.223 55.5909C57.3442 56.0606 57.5734 56.4129 57.9105 56.6477C58.2514 56.8826 58.6965 57 59.2457 57C59.8707 57 60.367 56.8674 60.7344 56.6023C61.1056 56.3333 61.2912 56.0114 61.2912 55.6364C61.2912 55.3333 61.1851 55.0795 60.973 54.875C60.7609 54.6667 60.4351 54.5114 59.9957 54.4091L58.5412 54.0682C57.742 53.8788 57.1548 53.5852 56.7798 53.1875C56.4086 52.786 56.223 52.2841 56.223 51.6818C56.223 51.1894 56.3613 50.7538 56.6378 50.375C56.9181 49.9962 57.2988 49.6989 57.7798 49.483C58.2647 49.267 58.8139 49.1591 59.4276 49.1591C60.2912 49.1591 60.9692 49.3485 61.4616 49.7273C61.9579 50.1061 62.3101 50.6061 62.5185 51.2273ZM65.6733 58.0909C65.393 58.0909 65.1525 57.9905 64.9517 57.7898C64.7509 57.589 64.6506 57.3485 64.6506 57.0682C64.6506 56.7879 64.7509 56.5473 64.9517 56.3466C65.1525 56.1458 65.393 56.0455 65.6733 56.0455C65.9536 56.0455 66.1941 56.1458 66.3949 56.3466C66.5956 56.5473 66.696 56.7879 66.696 57.0682C66.696 57.2538 66.6487 57.4242 66.554 57.5795C66.4631 57.7348 66.34 57.8598 66.1847 57.9545C66.0331 58.0455 65.8627 58.0909 65.6733 58.0909ZM65.6733 51.6136C65.393 51.6136 65.1525 51.5133 64.9517 51.3125C64.7509 51.1117 64.6506 50.8712 64.6506 50.5909C64.6506 50.3106 64.7509 50.0701 64.9517 49.8693C65.1525 49.6686 65.393 49.5682 65.6733 49.5682C65.9536 49.5682 66.1941 49.6686 66.3949 49.8693C66.5956 50.0701 66.696 50.3106 66.696 50.5909C66.696 50.7765 66.6487 50.947 66.554 51.1023C66.4631 51.2576 66.34 51.3826 66.1847 51.4773C66.0331 51.5682 65.8627 51.6136 65.6733 51.6136ZM27.7955 77.2045C27.2424 77.2045 26.7405 77.1004 26.2898 76.892C25.839 76.6799 25.4811 76.375 25.2159 75.9773C24.9508 75.5758 24.8182 75.0909 24.8182 74.5227C24.8182 74.0227 24.9167 73.6174 25.1136 73.3068C25.3106 72.9924 25.5739 72.7462 25.9034 72.5682C26.233 72.3902 26.5966 72.2576 26.9943 72.1705C27.3958 72.0795 27.7992 72.0076 28.2045 71.9545C28.7348 71.8864 29.1648 71.8352 29.4943 71.8011C29.8277 71.7633 30.0701 71.7008 30.2216 71.6136C30.3769 71.5265 30.4545 71.375 30.4545 71.1591V71.1136C30.4545 70.553 30.3011 70.1174 29.9943 69.8068C29.6913 69.4962 29.2311 69.3409 28.6136 69.3409C27.9735 69.3409 27.4716 69.4811 27.108 69.7614C26.7443 70.0417 26.4886 70.3409 26.3409 70.6591L25.0682 70.2045C25.2955 69.6742 25.5985 69.2614 25.9773 68.9659C26.3598 68.6667 26.7765 68.4583 27.2273 68.3409C27.6818 68.2197 28.1288 68.1591 28.5682 68.1591C28.8485 68.1591 29.1705 68.1932 29.5341 68.2614C29.9015 68.3258 30.2557 68.4602 30.5966 68.6648C30.9413 68.8693 31.2273 69.178 31.4545 69.5909C31.6818 70.0038 31.7955 70.5568 31.7955 71.25V77H30.4545V75.8182H30.3864C30.2955 76.0076 30.1439 76.2102 29.9318 76.4261C29.7197 76.642 29.4375 76.8258 29.0852 76.9773C28.733 77.1288 28.303 77.2045 27.7955 77.2045ZM28 76C28.5303 76 28.9773 75.8958 29.3409 75.6875C29.7083 75.4792 29.9848 75.2102 30.1705 74.8807C30.3598 74.5511 30.4545 74.2045 30.4545 73.8409V72.6136C30.3977 72.6818 30.2727 72.7443 30.0795 72.8011C29.8902 72.8542 29.6705 72.9015 29.4205 72.9432C29.1742 72.9811 28.9337 73.0152 28.6989 73.0455C28.4678 73.072 28.2803 73.0947 28.1364 73.1136C27.7879 73.1591 27.4621 73.233 27.1591 73.3352C26.8598 73.4337 26.6174 73.5833 26.4318 73.7841C26.25 73.9811 26.1591 74.25 26.1591 74.5909C26.1591 75.0568 26.3314 75.4091 26.6761 75.6477C27.0246 75.8826 27.4659 76 28 76ZM39.7429 73.4318V68.2727H41.0838V77H39.7429V75.5227H39.652C39.4474 75.9659 39.1293 76.3428 38.6974 76.6534C38.2656 76.9602 37.7202 77.1136 37.0611 77.1136C36.5156 77.1136 36.0308 76.9943 35.6065 76.7557C35.1823 76.5133 34.849 76.1496 34.6065 75.6648C34.3641 75.1761 34.2429 74.5606 34.2429 73.8182V68.2727H35.5838V73.7273C35.5838 74.3636 35.7618 74.8712 36.1179 75.25C36.4777 75.6288 36.9361 75.8182 37.4929 75.8182C37.8262 75.8182 38.1652 75.733 38.5099 75.5625C38.8584 75.392 39.1501 75.1307 39.3849 74.7784C39.6236 74.4261 39.7429 73.9773 39.7429 73.4318ZM47.3352 68.2727V69.4091H42.8125V68.2727H47.3352ZM44.1307 66.1818H45.4716V74.5C45.4716 74.8788 45.5265 75.1629 45.6364 75.3523C45.75 75.5379 45.8939 75.6629 46.0682 75.7273C46.2462 75.7879 46.4337 75.8182 46.6307 75.8182C46.7784 75.8182 46.8996 75.8106 46.9943 75.7955C47.089 75.7765 47.1648 75.7614 47.2216 75.75L47.4943 76.9545C47.4034 76.9886 47.2765 77.0227 47.1136 77.0568C46.9508 77.0947 46.7443 77.1136 46.4943 77.1136C46.1155 77.1136 45.7443 77.0322 45.3807 76.8693C45.0208 76.7064 44.7216 76.4583 44.483 76.125C44.2481 75.7917 44.1307 75.3712 44.1307 74.8636V66.1818ZM52.804 77.1818C52.0161 77.1818 51.3248 76.9943 50.7301 76.6193C50.1392 76.2443 49.6771 75.7197 49.3438 75.0455C49.0142 74.3712 48.8494 73.5833 48.8494 72.6818C48.8494 71.7727 49.0142 70.9792 49.3438 70.3011C49.6771 69.6231 50.1392 69.0966 50.7301 68.7216C51.3248 68.3466 52.0161 68.1591 52.804 68.1591C53.5919 68.1591 54.2813 68.3466 54.8722 68.7216C55.4669 69.0966 55.929 69.6231 56.2585 70.3011C56.5919 70.9792 56.7585 71.7727 56.7585 72.6818C56.7585 73.5833 56.5919 74.3712 56.2585 75.0455C55.929 75.7197 55.4669 76.2443 54.8722 76.6193C54.2813 76.9943 53.5919 77.1818 52.804 77.1818ZM52.804 75.9773C53.4025 75.9773 53.8949 75.8239 54.2812 75.517C54.6676 75.2102 54.9536 74.8068 55.1392 74.3068C55.3248 73.8068 55.4176 73.2652 55.4176 72.6818C55.4176 72.0985 55.3248 71.5549 55.1392 71.0511C54.9536 70.5473 54.6676 70.1402 54.2812 69.8295C53.8949 69.5189 53.4025 69.3636 52.804 69.3636C52.2055 69.3636 51.7131 69.5189 51.3267 69.8295C50.9403 70.1402 50.6544 70.5473 50.4688 71.0511C50.2831 71.5549 50.1903 72.0985 50.1903 72.6818C50.1903 73.2652 50.2831 73.8068 50.4688 74.3068C50.6544 74.8068 50.9403 75.2102 51.3267 75.517C51.7131 75.8239 52.2055 75.9773 52.804 75.9773Z" fill="#0B1D28"/>
<rect x="96.5" y="0.5" width="91" height="104" rx="1.5" fill="#E5F2FF"/>
<rect x="96.5" y="0.5" width="91" height="104" rx="1.5" stroke="#001E2E" stroke-linecap="square" stroke-dasharray="6 6"/>
<rect width="44" height="57" transform="translate(120 24)" fill="white"/>
<path d="M125.114 30.2727V31.4091H120.409V30.2727H125.114ZM121.818 39V29.0682C121.818 28.5682 121.936 28.1515 122.17 27.8182C122.405 27.4848 122.71 27.2348 123.085 27.0682C123.46 26.9015 123.856 26.8182 124.273 26.8182C124.602 26.8182 124.871 26.8447 125.08 26.8977C125.288 26.9508 125.443 27 125.545 27.0455L125.159 28.2045C125.091 28.1818 124.996 28.1534 124.875 28.1193C124.758 28.0852 124.602 28.0682 124.409 28.0682C123.966 28.0682 123.646 28.1799 123.449 28.4034C123.256 28.6269 123.159 28.9545 123.159 29.3864V39H121.818ZM128.334 27.3636V39H126.993V27.3636H128.334ZM134.449 39.1818C133.608 39.1818 132.883 38.9962 132.273 38.625C131.667 38.25 131.199 37.7273 130.869 37.0568C130.544 36.3826 130.381 35.5985 130.381 34.7045C130.381 33.8106 130.544 33.0227 130.869 32.3409C131.199 31.6553 131.657 31.1212 132.244 30.7386C132.835 30.3523 133.525 30.1591 134.312 30.1591C134.767 30.1591 135.216 30.2348 135.659 30.3864C136.102 30.5379 136.506 30.7841 136.869 31.125C137.233 31.4621 137.523 31.9091 137.739 32.4659C137.955 33.0227 138.062 33.7083 138.062 34.5227V35.0909H131.335V33.9318H136.699C136.699 33.4394 136.6 33 136.403 32.6136C136.21 32.2273 135.934 31.9223 135.574 31.6989C135.218 31.4754 134.797 31.3636 134.312 31.3636C133.778 31.3636 133.316 31.4962 132.926 31.7614C132.54 32.0227 132.242 32.3636 132.034 32.7841C131.826 33.2045 131.722 33.6553 131.722 34.1364V34.9091C131.722 35.5682 131.835 36.1269 132.062 36.5852C132.294 37.0398 132.614 37.3864 133.023 37.625C133.432 37.8598 133.907 37.9773 134.449 37.9773C134.801 37.9773 135.119 37.928 135.403 37.8295C135.691 37.7273 135.939 37.5758 136.148 37.375C136.356 37.1705 136.517 36.9167 136.631 36.6136L137.926 36.9773C137.79 37.4167 137.561 37.803 137.239 38.1364C136.917 38.4659 136.519 38.7235 136.045 38.9091C135.572 39.0909 135.04 39.1818 134.449 39.1818ZM140.868 30.2727L142.959 33.8409L145.05 30.2727H146.595L143.777 34.6364L146.595 39H145.05L142.959 35.6136L140.868 39H139.322L142.095 34.6364L139.322 30.2727H140.868ZM153.149 33.3864V34.6364H148.058V33.3864H153.149ZM121.409 58V46.3636H122.75V50.6591H122.864C122.962 50.5076 123.098 50.3144 123.273 50.0795C123.451 49.8409 123.705 49.6288 124.034 49.4432C124.367 49.2538 124.818 49.1591 125.386 49.1591C126.121 49.1591 126.769 49.3428 127.33 49.7102C127.89 50.0777 128.328 50.5985 128.642 51.2727C128.956 51.947 129.114 52.7424 129.114 53.6591C129.114 54.5833 128.956 55.3845 128.642 56.0625C128.328 56.7367 127.892 57.2595 127.335 57.6307C126.778 57.9981 126.136 58.1818 125.409 58.1818C124.848 58.1818 124.4 58.089 124.062 57.9034C123.725 57.714 123.466 57.5 123.284 57.2614C123.102 57.0189 122.962 56.8182 122.864 56.6591H122.705V58H121.409ZM122.727 53.6364C122.727 54.2955 122.824 54.8769 123.017 55.3807C123.21 55.8807 123.492 56.2727 123.864 56.5568C124.235 56.8371 124.689 56.9773 125.227 56.9773C125.788 56.9773 126.256 56.8295 126.631 56.5341C127.009 56.2348 127.294 55.8333 127.483 55.3295C127.676 54.822 127.773 54.2576 127.773 53.6364C127.773 53.0227 127.678 52.4697 127.489 51.9773C127.303 51.4811 127.021 51.089 126.642 50.8011C126.267 50.5095 125.795 50.3636 125.227 50.3636C124.682 50.3636 124.223 50.5019 123.852 50.7784C123.481 51.0511 123.201 51.4337 123.011 51.9261C122.822 52.4148 122.727 52.9848 122.727 53.6364ZM133.733 58.2045C133.18 58.2045 132.678 58.1004 132.227 57.892C131.777 57.6799 131.419 57.375 131.153 56.9773C130.888 56.5758 130.756 56.0909 130.756 55.5227C130.756 55.0227 130.854 54.6174 131.051 54.3068C131.248 53.9924 131.511 53.7462 131.841 53.5682C132.17 53.3902 132.534 53.2576 132.932 53.1705C133.333 53.0795 133.737 53.0076 134.142 52.9545C134.672 52.8864 135.102 52.8352 135.432 52.8011C135.765 52.7633 136.008 52.7008 136.159 52.6136C136.314 52.5265 136.392 52.375 136.392 52.1591V52.1136C136.392 51.553 136.239 51.1174 135.932 50.8068C135.629 50.4962 135.169 50.3409 134.551 50.3409C133.911 50.3409 133.409 50.4811 133.045 50.7614C132.682 51.0417 132.426 51.3409 132.278 51.6591L131.006 51.2045C131.233 50.6742 131.536 50.2614 131.915 49.9659C132.297 49.6667 132.714 49.4583 133.165 49.3409C133.619 49.2197 134.066 49.1591 134.506 49.1591C134.786 49.1591 135.108 49.1932 135.472 49.2614C135.839 49.3258 136.193 49.4602 136.534 49.6648C136.879 49.8693 137.165 50.178 137.392 50.5909C137.619 51.0038 137.733 51.5568 137.733 52.25V58H136.392V56.8182H136.324C136.233 57.0076 136.081 57.2102 135.869 57.4261C135.657 57.642 135.375 57.8258 135.023 57.9773C134.67 58.1288 134.241 58.2045 133.733 58.2045ZM133.938 57C134.468 57 134.915 56.8958 135.278 56.6875C135.646 56.4792 135.922 56.2102 136.108 55.8807C136.297 55.5511 136.392 55.2045 136.392 54.8409V53.6136C136.335 53.6818 136.21 53.7443 136.017 53.8011C135.828 53.8542 135.608 53.9015 135.358 53.9432C135.112 53.9811 134.871 54.0152 134.636 54.0455C134.405 54.072 134.218 54.0947 134.074 54.1136C133.725 54.1591 133.4 54.233 133.097 54.3352C132.797 54.4337 132.555 54.5833 132.369 54.7841C132.188 54.9811 132.097 55.25 132.097 55.5909C132.097 56.0568 132.269 56.4091 132.614 56.6477C132.962 56.8826 133.403 57 133.938 57ZM146.362 51.2273L145.158 51.5682C145.082 51.3674 144.97 51.1723 144.822 50.983C144.679 50.7898 144.482 50.6307 144.232 50.5057C143.982 50.3807 143.661 50.3182 143.271 50.3182C142.737 50.3182 142.292 50.4413 141.936 50.6875C141.584 50.9299 141.408 51.2386 141.408 51.6136C141.408 51.947 141.529 52.2102 141.771 52.4034C142.014 52.5966 142.393 52.7576 142.908 52.8864L144.203 53.2045C144.983 53.3939 145.565 53.6837 145.947 54.0739C146.33 54.4602 146.521 54.9583 146.521 55.5682C146.521 56.0682 146.377 56.5152 146.089 56.9091C145.805 57.303 145.408 57.6136 144.896 57.8409C144.385 58.0682 143.79 58.1818 143.112 58.1818C142.222 58.1818 141.485 57.9886 140.902 57.6023C140.319 57.2159 139.949 56.6515 139.794 55.9091L141.067 55.5909C141.188 56.0606 141.417 56.4129 141.754 56.6477C142.095 56.8826 142.54 57 143.089 57C143.714 57 144.211 56.8674 144.578 56.6023C144.949 56.3333 145.135 56.0114 145.135 55.6364C145.135 55.3333 145.029 55.0795 144.817 54.875C144.605 54.6667 144.279 54.5114 143.839 54.4091L142.385 54.0682C141.586 53.8788 140.999 53.5852 140.624 53.1875C140.252 52.786 140.067 52.2841 140.067 51.6818C140.067 51.1894 140.205 50.7538 140.482 50.375C140.762 49.9962 141.143 49.6989 141.624 49.483C142.108 49.267 142.658 49.1591 143.271 49.1591C144.135 49.1591 144.813 49.3485 145.305 49.7273C145.802 50.1061 146.154 50.6061 146.362 51.2273ZM148.54 58V49.2727H149.881V58H148.54ZM149.222 47.8182C148.96 47.8182 148.735 47.7292 148.545 47.5511C148.36 47.3731 148.267 47.1591 148.267 46.9091C148.267 46.6591 148.36 46.4451 148.545 46.267C148.735 46.089 148.96 46 149.222 46C149.483 46 149.706 46.089 149.892 46.267C150.081 46.4451 150.176 46.6591 150.176 46.9091C150.176 47.1591 150.081 47.3731 149.892 47.5511C149.706 47.7292 149.483 47.8182 149.222 47.8182ZM158.518 51.2273L157.314 51.5682C157.238 51.3674 157.126 51.1723 156.979 50.983C156.835 50.7898 156.638 50.6307 156.388 50.5057C156.138 50.3807 155.818 50.3182 155.428 50.3182C154.893 50.3182 154.448 50.4413 154.092 50.6875C153.74 50.9299 153.564 51.2386 153.564 51.6136C153.564 51.947 153.685 52.2102 153.928 52.4034C154.17 52.5966 154.549 52.7576 155.064 52.8864L156.359 53.2045C157.14 53.3939 157.721 53.6837 158.104 54.0739C158.486 54.4602 158.678 54.9583 158.678 55.5682C158.678 56.0682 158.534 56.5152 158.246 56.9091C157.962 57.303 157.564 57.6136 157.053 57.8409C156.541 58.0682 155.946 58.1818 155.268 58.1818C154.378 58.1818 153.642 57.9886 153.058 57.6023C152.475 57.2159 152.106 56.6515 151.95 55.9091L153.223 55.5909C153.344 56.0606 153.573 56.4129 153.911 56.6477C154.251 56.8826 154.696 57 155.246 57C155.871 57 156.367 56.8674 156.734 56.6023C157.106 56.3333 157.291 56.0114 157.291 55.6364C157.291 55.3333 157.185 55.0795 156.973 54.875C156.761 54.6667 156.435 54.5114 155.996 54.4091L154.541 54.0682C153.742 53.8788 153.155 53.5852 152.78 53.1875C152.409 52.786 152.223 52.2841 152.223 51.6818C152.223 51.1894 152.361 50.7538 152.638 50.375C152.918 49.9962 153.299 49.6989 153.78 49.483C154.265 49.267 154.814 49.1591 155.428 49.1591C156.291 49.1591 156.969 49.3485 157.462 49.7273C157.958 50.1061 158.31 50.6061 158.518 51.2273ZM161.673 58.0909C161.393 58.0909 161.152 57.9905 160.952 57.7898C160.751 57.589 160.651 57.3485 160.651 57.0682C160.651 56.7879 160.751 56.5473 160.952 56.3466C161.152 56.1458 161.393 56.0455 161.673 56.0455C161.954 56.0455 162.194 56.1458 162.395 56.3466C162.596 56.5473 162.696 56.7879 162.696 57.0682C162.696 57.2538 162.649 57.4242 162.554 57.5795C162.463 57.7348 162.34 57.8598 162.185 57.9545C162.033 58.0455 161.863 58.0909 161.673 58.0909ZM161.673 51.6136C161.393 51.6136 161.152 51.5133 160.952 51.3125C160.751 51.1117 160.651 50.8712 160.651 50.5909C160.651 50.3106 160.751 50.0701 160.952 49.8693C161.152 49.6686 161.393 49.5682 161.673 49.5682C161.954 49.5682 162.194 49.6686 162.395 49.8693C162.596 50.0701 162.696 50.3106 162.696 50.5909C162.696 50.7765 162.649 50.947 162.554 51.1023C162.463 51.2576 162.34 51.3826 162.185 51.4773C162.033 51.5682 161.863 51.6136 161.673 51.6136ZM123.795 77.2045C123.242 77.2045 122.741 77.1004 122.29 76.892C121.839 76.6799 121.481 76.375 121.216 75.9773C120.951 75.5758 120.818 75.0909 120.818 74.5227C120.818 74.0227 120.917 73.6174 121.114 73.3068C121.311 72.9924 121.574 72.7462 121.903 72.5682C122.233 72.3902 122.597 72.2576 122.994 72.1705C123.396 72.0795 123.799 72.0076 124.205 71.9545C124.735 71.8864 125.165 71.8352 125.494 71.8011C125.828 71.7633 126.07 71.7008 126.222 71.6136C126.377 71.5265 126.455 71.375 126.455 71.1591V71.1136C126.455 70.553 126.301 70.1174 125.994 69.8068C125.691 69.4962 125.231 69.3409 124.614 69.3409C123.973 69.3409 123.472 69.4811 123.108 69.7614C122.744 70.0417 122.489 70.3409 122.341 70.6591L121.068 70.2045C121.295 69.6742 121.598 69.2614 121.977 68.9659C122.36 68.6667 122.777 68.4583 123.227 68.3409C123.682 68.2197 124.129 68.1591 124.568 68.1591C124.848 68.1591 125.17 68.1932 125.534 68.2614C125.902 68.3258 126.256 68.4602 126.597 68.6648C126.941 68.8693 127.227 69.178 127.455 69.5909C127.682 70.0038 127.795 70.5568 127.795 71.25V77H126.455V75.8182H126.386C126.295 76.0076 126.144 76.2102 125.932 76.4261C125.72 76.642 125.438 76.8258 125.085 76.9773C124.733 77.1288 124.303 77.2045 123.795 77.2045ZM124 76C124.53 76 124.977 75.8958 125.341 75.6875C125.708 75.4792 125.985 75.2102 126.17 74.8807C126.36 74.5511 126.455 74.2045 126.455 73.8409V72.6136C126.398 72.6818 126.273 72.7443 126.08 72.8011C125.89 72.8542 125.67 72.9015 125.42 72.9432C125.174 72.9811 124.934 73.0152 124.699 73.0455C124.468 73.072 124.28 73.0947 124.136 73.1136C123.788 73.1591 123.462 73.233 123.159 73.3352C122.86 73.4337 122.617 73.5833 122.432 73.7841C122.25 73.9811 122.159 74.25 122.159 74.5909C122.159 75.0568 122.331 75.4091 122.676 75.6477C123.025 75.8826 123.466 76 124 76ZM135.743 73.4318V68.2727H137.084V77H135.743V75.5227H135.652C135.447 75.9659 135.129 76.3428 134.697 76.6534C134.266 76.9602 133.72 77.1136 133.061 77.1136C132.516 77.1136 132.031 76.9943 131.607 76.7557C131.182 76.5133 130.849 76.1496 130.607 75.6648C130.364 75.1761 130.243 74.5606 130.243 73.8182V68.2727H131.584V73.7273C131.584 74.3636 131.762 74.8712 132.118 75.25C132.478 75.6288 132.936 75.8182 133.493 75.8182C133.826 75.8182 134.165 75.733 134.51 75.5625C134.858 75.392 135.15 75.1307 135.385 74.7784C135.624 74.4261 135.743 73.9773 135.743 73.4318ZM143.335 68.2727V69.4091H138.812V68.2727H143.335ZM140.131 66.1818H141.472V74.5C141.472 74.8788 141.527 75.1629 141.636 75.3523C141.75 75.5379 141.894 75.6629 142.068 75.7273C142.246 75.7879 142.434 75.8182 142.631 75.8182C142.778 75.8182 142.9 75.8106 142.994 75.7955C143.089 75.7765 143.165 75.7614 143.222 75.75L143.494 76.9545C143.403 76.9886 143.277 77.0227 143.114 77.0568C142.951 77.0947 142.744 77.1136 142.494 77.1136C142.116 77.1136 141.744 77.0322 141.381 76.8693C141.021 76.7064 140.722 76.4583 140.483 76.125C140.248 75.7917 140.131 75.3712 140.131 74.8636V66.1818ZM148.804 77.1818C148.016 77.1818 147.325 76.9943 146.73 76.6193C146.139 76.2443 145.677 75.7197 145.344 75.0455C145.014 74.3712 144.849 73.5833 144.849 72.6818C144.849 71.7727 145.014 70.9792 145.344 70.3011C145.677 69.6231 146.139 69.0966 146.73 68.7216C147.325 68.3466 148.016 68.1591 148.804 68.1591C149.592 68.1591 150.281 68.3466 150.872 68.7216C151.467 69.0966 151.929 69.6231 152.259 70.3011C152.592 70.9792 152.759 71.7727 152.759 72.6818C152.759 73.5833 152.592 74.3712 152.259 75.0455C151.929 75.7197 151.467 76.2443 150.872 76.6193C150.281 76.9943 149.592 77.1818 148.804 77.1818ZM148.804 75.9773C149.402 75.9773 149.895 75.8239 150.281 75.517C150.668 75.2102 150.954 74.8068 151.139 74.3068C151.325 73.8068 151.418 73.2652 151.418 72.6818C151.418 72.0985 151.325 71.5549 151.139 71.0511C150.954 70.5473 150.668 70.1402 150.281 69.8295C149.895 69.5189 149.402 69.3636 148.804 69.3636C148.205 69.3636 147.713 69.5189 147.327 69.8295C146.94 70.1402 146.654 70.5473 146.469 71.0511C146.283 71.5549 146.19 72.0985 146.19 72.6818C146.19 73.2652 146.283 73.8068 146.469 74.3068C146.654 74.8068 146.94 75.2102 147.327 75.517C147.713 75.8239 148.205 75.9773 148.804 75.9773Z" fill="#0B1D28"/>
<rect x="192.5" y="0.5" width="527" height="104" rx="1.5" fill="#E5F2FF"/>
<rect x="192.5" y="0.5" width="527" height="104" rx="1.5" stroke="#001E2E" stroke-linecap="square" stroke-dasharray="6 6"/>
<rect width="124" height="19" transform="translate(394 43)" fill="white"/>
<path d="M399.114 49.2727V50.4091H394.409V49.2727H399.114ZM395.818 58V48.0682C395.818 47.5682 395.936 47.1515 396.17 46.8182C396.405 46.4848 396.71 46.2348 397.085 46.0682C397.46 45.9015 397.856 45.8182 398.273 45.8182C398.602 45.8182 398.871 45.8447 399.08 45.8977C399.288 45.9508 399.443 46 399.545 46.0455L399.159 47.2045C399.091 47.1818 398.996 47.1534 398.875 47.1193C398.758 47.0852 398.602 47.0682 398.409 47.0682C397.966 47.0682 397.646 47.1799 397.449 47.4034C397.256 47.6269 397.159 47.9545 397.159 48.3864V58H395.818ZM402.334 46.3636V58H400.993V46.3636H402.334ZM408.449 58.1818C407.608 58.1818 406.883 57.9962 406.273 57.625C405.667 57.25 405.199 56.7273 404.869 56.0568C404.544 55.3826 404.381 54.5985 404.381 53.7045C404.381 52.8106 404.544 52.0227 404.869 51.3409C405.199 50.6553 405.657 50.1212 406.244 49.7386C406.835 49.3523 407.525 49.1591 408.312 49.1591C408.767 49.1591 409.216 49.2348 409.659 49.3864C410.102 49.5379 410.506 49.7841 410.869 50.125C411.233 50.4621 411.523 50.9091 411.739 51.4659C411.955 52.0227 412.062 52.7083 412.062 53.5227V54.0909H405.335V52.9318H410.699C410.699 52.4394 410.6 52 410.403 51.6136C410.21 51.2273 409.934 50.9223 409.574 50.6989C409.218 50.4754 408.797 50.3636 408.312 50.3636C407.778 50.3636 407.316 50.4962 406.926 50.7614C406.54 51.0227 406.242 51.3636 406.034 51.7841C405.826 52.2045 405.722 52.6553 405.722 53.1364V53.9091C405.722 54.5682 405.835 55.1269 406.062 55.5852C406.294 56.0398 406.614 56.3864 407.023 56.625C407.432 56.8598 407.907 56.9773 408.449 56.9773C408.801 56.9773 409.119 56.928 409.403 56.8295C409.691 56.7273 409.939 56.5758 410.148 56.375C410.356 56.1705 410.517 55.9167 410.631 55.6136L411.926 55.9773C411.79 56.4167 411.561 56.803 411.239 57.1364C410.917 57.4659 410.519 57.7235 410.045 57.9091C409.572 58.0909 409.04 58.1818 408.449 58.1818ZM414.868 49.2727L416.959 52.8409L419.05 49.2727H420.595L417.777 53.6364L420.595 58H419.05L416.959 54.6136L414.868 58H413.322L416.095 53.6364L413.322 49.2727H414.868ZM427.149 52.3864V53.6364H422.058V52.3864H427.149ZM429.69 58V46.3636H431.031V50.6591H431.145C431.243 50.5076 431.38 50.3144 431.554 50.0795C431.732 49.8409 431.986 49.6288 432.315 49.4432C432.649 49.2538 433.099 49.1591 433.668 49.1591C434.402 49.1591 435.05 49.3428 435.611 49.7102C436.171 50.0777 436.609 50.5985 436.923 51.2727C437.238 51.947 437.395 52.7424 437.395 53.6591C437.395 54.5833 437.238 55.3845 436.923 56.0625C436.609 56.7367 436.173 57.2595 435.616 57.6307C435.06 57.9981 434.418 58.1818 433.69 58.1818C433.13 58.1818 432.681 58.089 432.344 57.9034C432.007 57.714 431.747 57.5 431.565 57.2614C431.384 57.0189 431.243 56.8182 431.145 56.6591H430.986V58H429.69ZM431.009 53.6364C431.009 54.2955 431.105 54.8769 431.298 55.3807C431.491 55.8807 431.774 56.2727 432.145 56.5568C432.516 56.8371 432.971 56.9773 433.509 56.9773C434.069 56.9773 434.537 56.8295 434.912 56.5341C435.291 56.2348 435.575 55.8333 435.764 55.3295C435.957 54.822 436.054 54.2576 436.054 53.6364C436.054 53.0227 435.959 52.4697 435.77 51.9773C435.584 51.4811 435.302 51.089 434.923 50.8011C434.548 50.5095 434.077 50.3636 433.509 50.3636C432.963 50.3636 432.505 50.5019 432.134 50.7784C431.762 51.0511 431.482 51.4337 431.293 51.9261C431.103 52.4148 431.009 52.9848 431.009 53.6364ZM442.014 58.2045C441.461 58.2045 440.959 58.1004 440.509 57.892C440.058 57.6799 439.7 57.375 439.435 56.9773C439.17 56.5758 439.037 56.0909 439.037 55.5227C439.037 55.0227 439.135 54.6174 439.332 54.3068C439.529 53.9924 439.793 53.7462 440.122 53.5682C440.452 53.3902 440.815 53.2576 441.213 53.1705C441.615 53.0795 442.018 53.0076 442.423 52.9545C442.954 52.8864 443.384 52.8352 443.713 52.8011C444.046 52.7633 444.289 52.7008 444.44 52.6136C444.596 52.5265 444.673 52.375 444.673 52.1591V52.1136C444.673 51.553 444.52 51.1174 444.213 50.8068C443.91 50.4962 443.45 50.3409 442.832 50.3409C442.192 50.3409 441.69 50.4811 441.327 50.7614C440.963 51.0417 440.707 51.3409 440.56 51.6591L439.287 51.2045C439.514 50.6742 439.817 50.2614 440.196 49.9659C440.579 49.6667 440.995 49.4583 441.446 49.3409C441.901 49.2197 442.348 49.1591 442.787 49.1591C443.067 49.1591 443.389 49.1932 443.753 49.2614C444.12 49.3258 444.474 49.4602 444.815 49.6648C445.16 49.8693 445.446 50.178 445.673 50.5909C445.901 51.0038 446.014 51.5568 446.014 52.25V58H444.673V56.8182H444.605C444.514 57.0076 444.363 57.2102 444.151 57.4261C443.938 57.642 443.656 57.8258 443.304 57.9773C442.952 58.1288 442.522 58.2045 442.014 58.2045ZM442.219 57C442.749 57 443.196 56.8958 443.56 56.6875C443.927 56.4792 444.204 56.2102 444.389 55.8807C444.579 55.5511 444.673 55.2045 444.673 54.8409V53.6136C444.616 53.6818 444.491 53.7443 444.298 53.8011C444.109 53.8542 443.889 53.9015 443.639 53.9432C443.393 53.9811 443.152 54.0152 442.918 54.0455C442.687 54.072 442.499 54.0947 442.355 54.1136C442.007 54.1591 441.681 54.233 441.378 54.3352C441.079 54.4337 440.836 54.5833 440.651 54.7841C440.469 54.9811 440.378 55.25 440.378 55.5909C440.378 56.0568 440.55 56.4091 440.895 56.6477C441.243 56.8826 441.685 57 442.219 57ZM454.643 51.2273L453.439 51.5682C453.363 51.3674 453.251 51.1723 453.104 50.983C452.96 50.7898 452.763 50.6307 452.513 50.5057C452.263 50.3807 451.943 50.3182 451.553 50.3182C451.018 50.3182 450.573 50.4413 450.217 50.6875C449.865 50.9299 449.689 51.2386 449.689 51.6136C449.689 51.947 449.81 52.2102 450.053 52.4034C450.295 52.5966 450.674 52.7576 451.189 52.8864L452.484 53.2045C453.265 53.3939 453.846 53.6837 454.229 54.0739C454.611 54.4602 454.803 54.9583 454.803 55.5682C454.803 56.0682 454.659 56.5152 454.371 56.9091C454.087 57.303 453.689 57.6136 453.178 57.8409C452.666 58.0682 452.071 58.1818 451.393 58.1818C450.503 58.1818 449.767 57.9886 449.183 57.6023C448.6 57.2159 448.231 56.6515 448.075 55.9091L449.348 55.5909C449.469 56.0606 449.698 56.4129 450.036 56.6477C450.376 56.8826 450.821 57 451.371 57C451.996 57 452.492 56.8674 452.859 56.6023C453.231 56.3333 453.416 56.0114 453.416 55.6364C453.416 55.3333 453.31 55.0795 453.098 54.875C452.886 54.6667 452.56 54.5114 452.121 54.4091L450.666 54.0682C449.867 53.8788 449.28 53.5852 448.905 53.1875C448.534 52.786 448.348 52.2841 448.348 51.6818C448.348 51.1894 448.486 50.7538 448.763 50.375C449.043 49.9962 449.424 49.6989 449.905 49.483C450.39 49.267 450.939 49.1591 451.553 49.1591C452.416 49.1591 453.094 49.3485 453.587 49.7273C454.083 50.1061 454.435 50.6061 454.643 51.2273ZM456.821 58V49.2727H458.162V58H456.821ZM457.503 47.8182C457.241 47.8182 457.016 47.7292 456.827 47.5511C456.641 47.3731 456.548 47.1591 456.548 46.9091C456.548 46.6591 456.641 46.4451 456.827 46.267C457.016 46.089 457.241 46 457.503 46C457.764 46 457.988 46.089 458.173 46.267C458.363 46.4451 458.457 46.6591 458.457 46.9091C458.457 47.1591 458.363 47.3731 458.173 47.5511C457.988 47.7292 457.764 47.8182 457.503 47.8182ZM466.8 51.2273L465.595 51.5682C465.519 51.3674 465.408 51.1723 465.26 50.983C465.116 50.7898 464.919 50.6307 464.669 50.5057C464.419 50.3807 464.099 50.3182 463.709 50.3182C463.175 50.3182 462.73 50.4413 462.374 50.6875C462.021 50.9299 461.845 51.2386 461.845 51.6136C461.845 51.947 461.966 52.2102 462.209 52.4034C462.451 52.5966 462.83 52.7576 463.345 52.8864L464.641 53.2045C465.421 53.3939 466.002 53.6837 466.385 54.0739C466.768 54.4602 466.959 54.9583 466.959 55.5682C466.959 56.0682 466.815 56.5152 466.527 56.9091C466.243 57.303 465.845 57.6136 465.334 57.8409C464.822 58.0682 464.228 58.1818 463.55 58.1818C462.66 58.1818 461.923 57.9886 461.339 57.6023C460.756 57.2159 460.387 56.6515 460.232 55.9091L461.504 55.5909C461.625 56.0606 461.855 56.4129 462.192 56.6477C462.533 56.8826 462.978 57 463.527 57C464.152 57 464.648 56.8674 465.016 56.6023C465.387 56.3333 465.572 56.0114 465.572 55.6364C465.572 55.3333 465.466 55.0795 465.254 54.875C465.042 54.6667 464.716 54.5114 464.277 54.4091L462.822 54.0682C462.023 53.8788 461.436 53.5852 461.061 53.1875C460.69 52.786 460.504 52.2841 460.504 51.6818C460.504 51.1894 460.643 50.7538 460.919 50.375C461.199 49.9962 461.58 49.6989 462.061 49.483C462.546 49.267 463.095 49.1591 463.709 49.1591C464.572 49.1591 465.25 49.3485 465.743 49.7273C466.239 50.1061 466.591 50.6061 466.8 51.2273ZM469.955 58.0909C469.674 58.0909 469.434 57.9905 469.233 57.7898C469.032 57.589 468.932 57.3485 468.932 57.0682C468.932 56.7879 469.032 56.5473 469.233 56.3466C469.434 56.1458 469.674 56.0455 469.955 56.0455C470.235 56.0455 470.475 56.1458 470.676 56.3466C470.877 56.5473 470.977 56.7879 470.977 57.0682C470.977 57.2538 470.93 57.4242 470.835 57.5795C470.744 57.7348 470.621 57.8598 470.466 57.9545C470.314 58.0455 470.144 58.0909 469.955 58.0909ZM469.955 51.6136C469.674 51.6136 469.434 51.5133 469.233 51.3125C469.032 51.1117 468.932 50.8712 468.932 50.5909C468.932 50.3106 469.032 50.0701 469.233 49.8693C469.434 49.6686 469.674 49.5682 469.955 49.5682C470.235 49.5682 470.475 49.6686 470.676 49.8693C470.877 50.0701 470.977 50.3106 470.977 50.5909C470.977 50.7765 470.93 50.947 470.835 51.1023C470.744 51.2576 470.621 51.3826 470.466 51.4773C470.314 51.5682 470.144 51.6136 469.955 51.6136ZM481.952 46.3636V58H480.543V47.8409H480.474L477.634 49.7273V48.2955L480.543 46.3636H481.952ZM489.094 58.1591C488.238 58.1591 487.509 57.9261 486.906 57.4602C486.304 56.9905 485.844 56.3106 485.526 55.4205C485.207 54.5265 485.048 53.447 485.048 52.1818C485.048 50.9242 485.207 49.8504 485.526 48.9602C485.848 48.0663 486.31 47.3845 486.912 46.9148C487.518 46.4413 488.245 46.2045 489.094 46.2045C489.942 46.2045 490.668 46.4413 491.27 46.9148C491.876 47.3845 492.338 48.0663 492.656 48.9602C492.978 49.8504 493.139 50.9242 493.139 52.1818C493.139 53.447 492.98 54.5265 492.662 55.4205C492.344 56.3106 491.884 56.9905 491.281 57.4602C490.679 57.9261 489.95 58.1591 489.094 58.1591ZM489.094 56.9091C489.942 56.9091 490.601 56.5 491.071 55.6818C491.541 54.8636 491.776 53.697 491.776 52.1818C491.776 51.1742 491.668 50.3163 491.452 49.608C491.24 48.8996 490.933 48.3598 490.531 47.9886C490.134 47.6174 489.654 47.4318 489.094 47.4318C488.253 47.4318 487.596 47.8466 487.122 48.6761C486.649 49.5019 486.412 50.6705 486.412 52.1818C486.412 53.1894 486.518 54.0455 486.73 54.75C486.942 55.4545 487.247 55.9905 487.645 56.358C488.046 56.7254 488.529 56.9091 489.094 56.9091ZM499.094 58.1591C498.238 58.1591 497.509 57.9261 496.906 57.4602C496.304 56.9905 495.844 56.3106 495.526 55.4205C495.207 54.5265 495.048 53.447 495.048 52.1818C495.048 50.9242 495.207 49.8504 495.526 48.9602C495.848 48.0663 496.31 47.3845 496.912 46.9148C497.518 46.4413 498.245 46.2045 499.094 46.2045C499.942 46.2045 500.668 46.4413 501.27 46.9148C501.876 47.3845 502.338 48.0663 502.656 48.9602C502.978 49.8504 503.139 50.9242 503.139 52.1818C503.139 53.447 502.98 54.5265 502.662 55.4205C502.344 56.3106 501.884 56.9905 501.281 57.4602C500.679 57.9261 499.95 58.1591 499.094 58.1591ZM499.094 56.9091C499.942 56.9091 500.601 56.5 501.071 55.6818C501.541 54.8636 501.776 53.697 501.776 52.1818C501.776 51.1742 501.668 50.3163 501.452 49.608C501.24 48.8996 500.933 48.3598 500.531 47.9886C500.134 47.6174 499.654 47.4318 499.094 47.4318C498.253 47.4318 497.596 47.8466 497.122 48.6761C496.649 49.5019 496.412 50.6705 496.412 52.1818C496.412 53.1894 496.518 54.0455 496.73 54.75C496.942 55.4545 497.247 55.9905 497.645 56.358C498.046 56.7254 498.529 56.9091 499.094 56.9091ZM511.23 55.8182V55.2045C511.23 54.7803 511.317 54.392 511.491 54.0398C511.67 53.6837 511.927 53.3996 512.264 53.1875C512.605 52.9716 513.018 52.8636 513.503 52.8636C513.995 52.8636 514.408 52.9716 514.741 53.1875C515.075 53.3996 515.327 53.6837 515.497 54.0398C515.668 54.392 515.753 54.7803 515.753 55.2045V55.8182C515.753 56.2424 515.666 56.6326 515.491 56.9886C515.321 57.3409 515.067 57.625 514.73 57.8409C514.397 58.053 513.988 58.1591 513.503 58.1591C513.01 58.1591 512.596 58.053 512.259 57.8409C511.921 57.625 511.666 57.3409 511.491 56.9886C511.317 56.6326 511.23 56.2424 511.23 55.8182ZM512.389 55.2045V55.8182C512.389 56.1705 512.473 56.4867 512.639 56.767C512.806 57.0436 513.094 57.1818 513.503 57.1818C513.901 57.1818 514.181 57.0436 514.344 56.767C514.51 56.4867 514.594 56.1705 514.594 55.8182V55.2045C514.594 54.8523 514.514 54.5379 514.355 54.2614C514.196 53.9811 513.912 53.8409 513.503 53.8409C513.105 53.8409 512.819 53.9811 512.645 54.2614C512.474 54.5379 512.389 54.8523 512.389 55.2045ZM505.435 49.1591V48.5455C505.435 48.1212 505.522 47.733 505.696 47.3807C505.874 47.0246 506.132 46.7405 506.469 46.5284C506.81 46.3125 507.223 46.2045 507.707 46.2045C508.2 46.2045 508.613 46.3125 508.946 46.5284C509.279 46.7405 509.531 47.0246 509.702 47.3807C509.872 47.733 509.957 48.1212 509.957 48.5455V49.1591C509.957 49.5833 509.87 49.9735 509.696 50.3295C509.526 50.6818 509.272 50.9659 508.935 51.1818C508.601 51.3939 508.192 51.5 507.707 51.5C507.215 51.5 506.8 51.3939 506.463 51.1818C506.126 50.9659 505.87 50.6818 505.696 50.3295C505.522 49.9735 505.435 49.5833 505.435 49.1591ZM506.594 48.5455V49.1591C506.594 49.5114 506.677 49.8277 506.844 50.108C507.01 50.3845 507.298 50.5227 507.707 50.5227C508.105 50.5227 508.385 50.3845 508.548 50.108C508.715 49.8277 508.798 49.5114 508.798 49.1591V48.5455C508.798 48.1932 508.719 47.8788 508.56 47.6023C508.401 47.322 508.116 47.1818 507.707 47.1818C507.31 47.1818 507.024 47.322 506.849 47.6023C506.679 47.8788 506.594 48.1932 506.594 48.5455ZM505.866 58L513.866 46.3636H515.162L507.162 58H505.866Z" fill="#0B1D28"/>
</g>
<rect x="0.5" y="0.5" width="719" height="104" rx="1.5" stroke="#006590"/>
<defs>
<clipPath id="clip0_8065_4459">
<rect width="720" height="105" rx="2" fill="white"/>
</clipPath>
</defs>
</svg>
