<svg width="720" height="304" viewBox="0 0 720 304" fill="none" xmlns="http://www.w3.org/2000/svg">
<g clip-path="url(#clip0_7804_9528)">
<rect width="224" height="304" rx="4" fill="#C8E6FF"/>
<rect width="224" height="72" fill="#006590" fill-opacity="0.16"/>
<rect x="0.5" y="0.5" width="95" height="71" rx="1.5" fill="white"/>
<rect x="0.5" y="0.5" width="95" height="71" rx="1.5" stroke="#001E2E" stroke-linecap="square" stroke-dasharray="6 6"/>
<path d="M33.8182 29.8636V41.5H32.4091V29.8636H33.8182ZM40.2571 32.7727V33.9091H35.7344V32.7727H40.2571ZM37.0526 30.6818H38.3935V39C38.3935 39.3788 38.4484 39.6629 38.5582 39.8523C38.6719 40.0379 38.8158 40.1629 38.9901 40.2273C39.1681 40.2879 39.3556 40.3182 39.5526 40.3182C39.7003 40.3182 39.8215 40.3106 39.9162 40.2955C40.0109 40.2765 40.0866 40.2614 40.1435 40.25L40.4162 41.4545C40.3253 41.4886 40.1984 41.5227 40.0355 41.5568C39.8726 41.5947 39.6662 41.6136 39.4162 41.6136C39.0374 41.6136 38.6662 41.5322 38.3026 41.3693C37.9427 41.2064 37.6435 40.9583 37.4048 40.625C37.17 40.2917 37.0526 39.8712 37.0526 39.3636V30.6818ZM45.8395 41.6818C44.9986 41.6818 44.2732 41.4962 43.6634 41.125C43.0573 40.75 42.5895 40.2273 42.2599 39.5568C41.9342 38.8826 41.7713 38.0985 41.7713 37.2045C41.7713 36.3106 41.9342 35.5227 42.2599 34.8409C42.5895 34.1553 43.0478 33.6212 43.6349 33.2386C44.2259 32.8523 44.9152 32.6591 45.7031 32.6591C46.1577 32.6591 46.6065 32.7348 47.0497 32.8864C47.4929 33.0379 47.8963 33.2841 48.2599 33.625C48.6236 33.9621 48.9134 34.4091 49.1293 34.9659C49.3452 35.5227 49.4531 36.2083 49.4531 37.0227V37.5909H42.7259V36.4318H48.0895C48.0895 35.9394 47.991 35.5 47.794 35.1136C47.6009 34.7273 47.3243 34.4223 46.9645 34.1989C46.6084 33.9754 46.188 33.8636 45.7031 33.8636C45.169 33.8636 44.7069 33.9962 44.3168 34.2614C43.9304 34.5227 43.633 34.8636 43.4247 35.2841C43.2164 35.7045 43.1122 36.1553 43.1122 36.6364V37.4091C43.1122 38.0682 43.2259 38.6269 43.4531 39.0852C43.6842 39.5398 44.0043 39.8864 44.4134 40.125C44.8224 40.3598 45.2978 40.4773 45.8395 40.4773C46.1918 40.4773 46.5099 40.428 46.794 40.3295C47.0819 40.2273 47.33 40.0758 47.5384 39.875C47.7467 39.6705 47.9077 39.4167 48.0213 39.1136L49.3168 39.4773C49.1804 39.9167 48.9512 40.303 48.6293 40.6364C48.3073 40.9659 47.9096 41.2235 47.4361 41.4091C46.9626 41.5909 46.4304 41.6818 45.8395 41.6818ZM51.4929 41.5V32.7727H52.7884V34.1364H52.902C53.0838 33.6705 53.3774 33.3087 53.7827 33.0511C54.188 32.7898 54.6747 32.6591 55.2429 32.6591C55.8187 32.6591 56.2978 32.7898 56.6804 33.0511C57.0668 33.3087 57.3679 33.6705 57.5838 34.1364H57.6747C57.8982 33.6856 58.2334 33.3277 58.6804 33.0625C59.1274 32.7936 59.6634 32.6591 60.2884 32.6591C61.0687 32.6591 61.7069 32.9034 62.2031 33.392C62.6993 33.8769 62.9474 34.6326 62.9474 35.6591V41.5H61.6065V35.6591C61.6065 35.0152 61.4304 34.5549 61.0781 34.2784C60.7259 34.0019 60.3111 33.8636 59.8338 33.8636C59.2202 33.8636 58.7448 34.0492 58.4077 34.4205C58.0705 34.7879 57.902 35.2538 57.902 35.8182V41.5H56.5384V35.5227C56.5384 35.0265 56.3774 34.6269 56.0554 34.3239C55.7334 34.017 55.3187 33.8636 54.8111 33.8636C54.4626 33.8636 54.1368 33.9564 53.8338 34.142C53.5346 34.3277 53.2921 34.5852 53.1065 34.9148C52.9247 35.2405 52.8338 35.6174 52.8338 36.0455V41.5H51.4929Z" fill="#0B1D28"/>
<rect width="224" height="128" transform="translate(0 88)" fill="#006590" fill-opacity="0.16"/>
<rect x="0.5" y="88.5" width="71" height="127" rx="1.5" fill="white"/>
<rect x="0.5" y="88.5" width="71" height="127" rx="1.5" stroke="#001E2E" stroke-linecap="square" stroke-dasharray="6 6"/>
<path d="M21.8182 145.864V157.5H20.4091V145.864H21.8182ZM28.2571 148.773V149.909H23.7344V148.773H28.2571ZM25.0526 146.682H26.3935V155C26.3935 155.379 26.4484 155.663 26.5582 155.852C26.6719 156.038 26.8158 156.163 26.9901 156.227C27.1681 156.288 27.3556 156.318 27.5526 156.318C27.7003 156.318 27.8215 156.311 27.9162 156.295C28.0109 156.277 28.0866 156.261 28.1435 156.25L28.4162 157.455C28.3253 157.489 28.1984 157.523 28.0355 157.557C27.8726 157.595 27.6662 157.614 27.4162 157.614C27.0374 157.614 26.6662 157.532 26.3026 157.369C25.9427 157.206 25.6435 156.958 25.4048 156.625C25.17 156.292 25.0526 155.871 25.0526 155.364V146.682ZM33.8395 157.682C32.9986 157.682 32.2732 157.496 31.6634 157.125C31.0573 156.75 30.5895 156.227 30.2599 155.557C29.9342 154.883 29.7713 154.098 29.7713 153.205C29.7713 152.311 29.9342 151.523 30.2599 150.841C30.5895 150.155 31.0478 149.621 31.6349 149.239C32.2259 148.852 32.9152 148.659 33.7031 148.659C34.1577 148.659 34.6065 148.735 35.0497 148.886C35.4929 149.038 35.8963 149.284 36.2599 149.625C36.6236 149.962 36.9134 150.409 37.1293 150.966C37.3452 151.523 37.4531 152.208 37.4531 153.023V153.591H30.7259V152.432H36.0895C36.0895 151.939 35.991 151.5 35.794 151.114C35.6009 150.727 35.3243 150.422 34.9645 150.199C34.6084 149.975 34.188 149.864 33.7031 149.864C33.169 149.864 32.7069 149.996 32.3168 150.261C31.9304 150.523 31.633 150.864 31.4247 151.284C31.2164 151.705 31.1122 152.155 31.1122 152.636V153.409C31.1122 154.068 31.2259 154.627 31.4531 155.085C31.6842 155.54 32.0043 155.886 32.4134 156.125C32.8224 156.36 33.2978 156.477 33.8395 156.477C34.1918 156.477 34.5099 156.428 34.794 156.33C35.0819 156.227 35.33 156.076 35.5384 155.875C35.7467 155.67 35.9077 155.417 36.0213 155.114L37.3168 155.477C37.1804 155.917 36.9512 156.303 36.6293 156.636C36.3073 156.966 35.9096 157.223 35.4361 157.409C34.9626 157.591 34.4304 157.682 33.8395 157.682ZM39.4929 157.5V148.773H40.7884V150.136H40.902C41.0838 149.67 41.3774 149.309 41.7827 149.051C42.188 148.79 42.6747 148.659 43.2429 148.659C43.8187 148.659 44.2978 148.79 44.6804 149.051C45.0668 149.309 45.3679 149.67 45.5838 150.136H45.6747C45.8982 149.686 46.2334 149.328 46.6804 149.062C47.1274 148.794 47.6634 148.659 48.2884 148.659C49.0687 148.659 49.7069 148.903 50.2031 149.392C50.6993 149.877 50.9474 150.633 50.9474 151.659V157.5H49.6065V151.659C49.6065 151.015 49.4304 150.555 49.0781 150.278C48.7259 150.002 48.3111 149.864 47.8338 149.864C47.2202 149.864 46.7448 150.049 46.4077 150.42C46.0705 150.788 45.902 151.254 45.902 151.818V157.5H44.5384V151.523C44.5384 151.027 44.3774 150.627 44.0554 150.324C43.7334 150.017 43.3187 149.864 42.8111 149.864C42.4626 149.864 42.1368 149.956 41.8338 150.142C41.5346 150.328 41.2921 150.585 41.1065 150.915C40.9247 151.241 40.8338 151.617 40.8338 152.045V157.5H39.4929Z" fill="#0B1D28"/>
<rect width="224" height="72" transform="translate(0 232)" fill="#006590" fill-opacity="0.16"/>
<rect x="0.5" y="232.5" width="143" height="71" rx="1.5" fill="white"/>
<rect x="0.5" y="232.5" width="143" height="71" rx="1.5" stroke="#001E2E" stroke-linecap="square" stroke-dasharray="6 6"/>
<path d="M57.8182 261.864V273.5H56.4091V261.864H57.8182ZM64.2571 264.773V265.909H59.7344V264.773H64.2571ZM61.0526 262.682H62.3935V271C62.3935 271.379 62.4484 271.663 62.5582 271.852C62.6719 272.038 62.8158 272.163 62.9901 272.227C63.1681 272.288 63.3556 272.318 63.5526 272.318C63.7003 272.318 63.8215 272.311 63.9162 272.295C64.0109 272.277 64.0866 272.261 64.1435 272.25L64.4162 273.455C64.3253 273.489 64.1984 273.523 64.0355 273.557C63.8726 273.595 63.6662 273.614 63.4162 273.614C63.0374 273.614 62.6662 273.532 62.3026 273.369C61.9427 273.206 61.6435 272.958 61.4048 272.625C61.17 272.292 61.0526 271.871 61.0526 271.364V262.682ZM69.8395 273.682C68.9986 273.682 68.2732 273.496 67.6634 273.125C67.0573 272.75 66.5895 272.227 66.2599 271.557C65.9342 270.883 65.7713 270.098 65.7713 269.205C65.7713 268.311 65.9342 267.523 66.2599 266.841C66.5895 266.155 67.0478 265.621 67.6349 265.239C68.2259 264.852 68.9152 264.659 69.7031 264.659C70.1577 264.659 70.6065 264.735 71.0497 264.886C71.4929 265.038 71.8963 265.284 72.2599 265.625C72.6236 265.962 72.9134 266.409 73.1293 266.966C73.3452 267.523 73.4531 268.208 73.4531 269.023V269.591H66.7259V268.432H72.0895C72.0895 267.939 71.991 267.5 71.794 267.114C71.6009 266.727 71.3243 266.422 70.9645 266.199C70.6084 265.975 70.188 265.864 69.7031 265.864C69.169 265.864 68.7069 265.996 68.3168 266.261C67.9304 266.523 67.633 266.864 67.4247 267.284C67.2164 267.705 67.1122 268.155 67.1122 268.636V269.409C67.1122 270.068 67.2259 270.627 67.4531 271.085C67.6842 271.54 68.0043 271.886 68.4134 272.125C68.8224 272.36 69.2978 272.477 69.8395 272.477C70.1918 272.477 70.5099 272.428 70.794 272.33C71.0819 272.227 71.33 272.076 71.5384 271.875C71.7467 271.67 71.9077 271.417 72.0213 271.114L73.3168 271.477C73.1804 271.917 72.9512 272.303 72.6293 272.636C72.3073 272.966 71.9096 273.223 71.4361 273.409C70.9626 273.591 70.4304 273.682 69.8395 273.682ZM75.4929 273.5V264.773H76.7884V266.136H76.902C77.0838 265.67 77.3774 265.309 77.7827 265.051C78.188 264.79 78.6747 264.659 79.2429 264.659C79.8187 264.659 80.2978 264.79 80.6804 265.051C81.0668 265.309 81.3679 265.67 81.5838 266.136H81.6747C81.8982 265.686 82.2334 265.328 82.6804 265.062C83.1274 264.794 83.6634 264.659 84.2884 264.659C85.0687 264.659 85.7069 264.903 86.2031 265.392C86.6993 265.877 86.9474 266.633 86.9474 267.659V273.5H85.6065V267.659C85.6065 267.015 85.4304 266.555 85.0781 266.278C84.7259 266.002 84.3111 265.864 83.8338 265.864C83.2202 265.864 82.7448 266.049 82.4077 266.42C82.0705 266.788 81.902 267.254 81.902 267.818V273.5H80.5384V267.523C80.5384 267.027 80.3774 266.627 80.0554 266.324C79.7334 266.017 79.3187 265.864 78.8111 265.864C78.4626 265.864 78.1368 265.956 77.8338 266.142C77.5346 266.328 77.2921 266.585 77.1065 266.915C76.9247 267.241 76.8338 267.617 76.8338 268.045V273.5H75.4929Z" fill="#0B1D28"/>
</g>
<rect x="0.5" y="0.5" width="223" height="303" rx="3.5" stroke="#006590"/>
<g clip-path="url(#clip1_7804_9528)">
<rect x="248" width="224" height="304" rx="4" fill="#C8E6FF"/>
<rect width="224" height="72" transform="translate(248)" fill="#006590" fill-opacity="0.16"/>
<rect x="312.5" y="0.5" width="95" height="71" rx="1.5" fill="white"/>
<rect x="312.5" y="0.5" width="95" height="71" rx="1.5" stroke="#001E2E" stroke-linecap="square" stroke-dasharray="6 6"/>
<path d="M345.818 29.8636V41.5H344.409V29.8636H345.818ZM352.257 32.7727V33.9091H347.734V32.7727H352.257ZM349.053 30.6818H350.393V39C350.393 39.3788 350.448 39.6629 350.558 39.8523C350.672 40.0379 350.816 40.1629 350.99 40.2273C351.168 40.2879 351.356 40.3182 351.553 40.3182C351.7 40.3182 351.821 40.3106 351.916 40.2955C352.011 40.2765 352.087 40.2614 352.143 40.25L352.416 41.4545C352.325 41.4886 352.198 41.5227 352.036 41.5568C351.873 41.5947 351.666 41.6136 351.416 41.6136C351.037 41.6136 350.666 41.5322 350.303 41.3693C349.943 41.2064 349.643 40.9583 349.405 40.625C349.17 40.2917 349.053 39.8712 349.053 39.3636V30.6818ZM357.839 41.6818C356.999 41.6818 356.273 41.4962 355.663 41.125C355.057 40.75 354.589 40.2273 354.26 39.5568C353.934 38.8826 353.771 38.0985 353.771 37.2045C353.771 36.3106 353.934 35.5227 354.26 34.8409C354.589 34.1553 355.048 33.6212 355.635 33.2386C356.226 32.8523 356.915 32.6591 357.703 32.6591C358.158 32.6591 358.607 32.7348 359.05 32.8864C359.493 33.0379 359.896 33.2841 360.26 33.625C360.624 33.9621 360.913 34.4091 361.129 34.9659C361.345 35.5227 361.453 36.2083 361.453 37.0227V37.5909H354.726V36.4318H360.089C360.089 35.9394 359.991 35.5 359.794 35.1136C359.601 34.7273 359.324 34.4223 358.964 34.1989C358.608 33.9754 358.188 33.8636 357.703 33.8636C357.169 33.8636 356.707 33.9962 356.317 34.2614C355.93 34.5227 355.633 34.8636 355.425 35.2841C355.216 35.7045 355.112 36.1553 355.112 36.6364V37.4091C355.112 38.0682 355.226 38.6269 355.453 39.0852C355.684 39.5398 356.004 39.8864 356.413 40.125C356.822 40.3598 357.298 40.4773 357.839 40.4773C358.192 40.4773 358.51 40.428 358.794 40.3295C359.082 40.2273 359.33 40.0758 359.538 39.875C359.747 39.6705 359.908 39.4167 360.021 39.1136L361.317 39.4773C361.18 39.9167 360.951 40.303 360.629 40.6364C360.307 40.9659 359.91 41.2235 359.436 41.4091C358.963 41.5909 358.43 41.6818 357.839 41.6818ZM363.493 41.5V32.7727H364.788V34.1364H364.902C365.084 33.6705 365.377 33.3087 365.783 33.0511C366.188 32.7898 366.675 32.6591 367.243 32.6591C367.819 32.6591 368.298 32.7898 368.68 33.0511C369.067 33.3087 369.368 33.6705 369.584 34.1364H369.675C369.898 33.6856 370.233 33.3277 370.68 33.0625C371.127 32.7936 371.663 32.6591 372.288 32.6591C373.069 32.6591 373.707 32.9034 374.203 33.392C374.699 33.8769 374.947 34.6326 374.947 35.6591V41.5H373.607V35.6591C373.607 35.0152 373.43 34.5549 373.078 34.2784C372.726 34.0019 372.311 33.8636 371.834 33.8636C371.22 33.8636 370.745 34.0492 370.408 34.4205C370.071 34.7879 369.902 35.2538 369.902 35.8182V41.5H368.538V35.5227C368.538 35.0265 368.377 34.6269 368.055 34.3239C367.733 34.017 367.319 33.8636 366.811 33.8636C366.463 33.8636 366.137 33.9564 365.834 34.142C365.535 34.3277 365.292 34.5852 365.107 34.9148C364.925 35.2405 364.834 35.6174 364.834 36.0455V41.5H363.493Z" fill="#0B1D28"/>
<rect width="224" height="128" transform="translate(248 88)" fill="#006590" fill-opacity="0.16"/>
<rect x="324.5" y="88.5" width="71" height="127" rx="1.5" fill="white"/>
<rect x="324.5" y="88.5" width="71" height="127" rx="1.5" stroke="#001E2E" stroke-linecap="square" stroke-dasharray="6 6"/>
<path d="M345.818 145.864V157.5H344.409V145.864H345.818ZM352.257 148.773V149.909H347.734V148.773H352.257ZM349.053 146.682H350.393V155C350.393 155.379 350.448 155.663 350.558 155.852C350.672 156.038 350.816 156.163 350.99 156.227C351.168 156.288 351.356 156.318 351.553 156.318C351.7 156.318 351.821 156.311 351.916 156.295C352.011 156.277 352.087 156.261 352.143 156.25L352.416 157.455C352.325 157.489 352.198 157.523 352.036 157.557C351.873 157.595 351.666 157.614 351.416 157.614C351.037 157.614 350.666 157.532 350.303 157.369C349.943 157.206 349.643 156.958 349.405 156.625C349.17 156.292 349.053 155.871 349.053 155.364V146.682ZM357.839 157.682C356.999 157.682 356.273 157.496 355.663 157.125C355.057 156.75 354.589 156.227 354.26 155.557C353.934 154.883 353.771 154.098 353.771 153.205C353.771 152.311 353.934 151.523 354.26 150.841C354.589 150.155 355.048 149.621 355.635 149.239C356.226 148.852 356.915 148.659 357.703 148.659C358.158 148.659 358.607 148.735 359.05 148.886C359.493 149.038 359.896 149.284 360.26 149.625C360.624 149.962 360.913 150.409 361.129 150.966C361.345 151.523 361.453 152.208 361.453 153.023V153.591H354.726V152.432H360.089C360.089 151.939 359.991 151.5 359.794 151.114C359.601 150.727 359.324 150.422 358.964 150.199C358.608 149.975 358.188 149.864 357.703 149.864C357.169 149.864 356.707 149.996 356.317 150.261C355.93 150.523 355.633 150.864 355.425 151.284C355.216 151.705 355.112 152.155 355.112 152.636V153.409C355.112 154.068 355.226 154.627 355.453 155.085C355.684 155.54 356.004 155.886 356.413 156.125C356.822 156.36 357.298 156.477 357.839 156.477C358.192 156.477 358.51 156.428 358.794 156.33C359.082 156.227 359.33 156.076 359.538 155.875C359.747 155.67 359.908 155.417 360.021 155.114L361.317 155.477C361.18 155.917 360.951 156.303 360.629 156.636C360.307 156.966 359.91 157.223 359.436 157.409C358.963 157.591 358.43 157.682 357.839 157.682ZM363.493 157.5V148.773H364.788V150.136H364.902C365.084 149.67 365.377 149.309 365.783 149.051C366.188 148.79 366.675 148.659 367.243 148.659C367.819 148.659 368.298 148.79 368.68 149.051C369.067 149.309 369.368 149.67 369.584 150.136H369.675C369.898 149.686 370.233 149.328 370.68 149.062C371.127 148.794 371.663 148.659 372.288 148.659C373.069 148.659 373.707 148.903 374.203 149.392C374.699 149.877 374.947 150.633 374.947 151.659V157.5H373.607V151.659C373.607 151.015 373.43 150.555 373.078 150.278C372.726 150.002 372.311 149.864 371.834 149.864C371.22 149.864 370.745 150.049 370.408 150.42C370.071 150.788 369.902 151.254 369.902 151.818V157.5H368.538V151.523C368.538 151.027 368.377 150.627 368.055 150.324C367.733 150.017 367.319 149.864 366.811 149.864C366.463 149.864 366.137 149.956 365.834 150.142C365.535 150.328 365.292 150.585 365.107 150.915C364.925 151.241 364.834 151.617 364.834 152.045V157.5H363.493Z" fill="#0B1D28"/>
<rect width="224" height="72" transform="translate(248 232)" fill="#006590" fill-opacity="0.16"/>
<rect x="288.5" y="232.5" width="143" height="71" rx="1.5" fill="white"/>
<rect x="288.5" y="232.5" width="143" height="71" rx="1.5" stroke="#001E2E" stroke-linecap="square" stroke-dasharray="6 6"/>
<path d="M345.818 261.864V273.5H344.409V261.864H345.818ZM352.257 264.773V265.909H347.734V264.773H352.257ZM349.053 262.682H350.393V271C350.393 271.379 350.448 271.663 350.558 271.852C350.672 272.038 350.816 272.163 350.99 272.227C351.168 272.288 351.356 272.318 351.553 272.318C351.7 272.318 351.821 272.311 351.916 272.295C352.011 272.277 352.087 272.261 352.143 272.25L352.416 273.455C352.325 273.489 352.198 273.523 352.036 273.557C351.873 273.595 351.666 273.614 351.416 273.614C351.037 273.614 350.666 273.532 350.303 273.369C349.943 273.206 349.643 272.958 349.405 272.625C349.17 272.292 349.053 271.871 349.053 271.364V262.682ZM357.839 273.682C356.999 273.682 356.273 273.496 355.663 273.125C355.057 272.75 354.589 272.227 354.26 271.557C353.934 270.883 353.771 270.098 353.771 269.205C353.771 268.311 353.934 267.523 354.26 266.841C354.589 266.155 355.048 265.621 355.635 265.239C356.226 264.852 356.915 264.659 357.703 264.659C358.158 264.659 358.607 264.735 359.05 264.886C359.493 265.038 359.896 265.284 360.26 265.625C360.624 265.962 360.913 266.409 361.129 266.966C361.345 267.523 361.453 268.208 361.453 269.023V269.591H354.726V268.432H360.089C360.089 267.939 359.991 267.5 359.794 267.114C359.601 266.727 359.324 266.422 358.964 266.199C358.608 265.975 358.188 265.864 357.703 265.864C357.169 265.864 356.707 265.996 356.317 266.261C355.93 266.523 355.633 266.864 355.425 267.284C355.216 267.705 355.112 268.155 355.112 268.636V269.409C355.112 270.068 355.226 270.627 355.453 271.085C355.684 271.54 356.004 271.886 356.413 272.125C356.822 272.36 357.298 272.477 357.839 272.477C358.192 272.477 358.51 272.428 358.794 272.33C359.082 272.227 359.33 272.076 359.538 271.875C359.747 271.67 359.908 271.417 360.021 271.114L361.317 271.477C361.18 271.917 360.951 272.303 360.629 272.636C360.307 272.966 359.91 273.223 359.436 273.409C358.963 273.591 358.43 273.682 357.839 273.682ZM363.493 273.5V264.773H364.788V266.136H364.902C365.084 265.67 365.377 265.309 365.783 265.051C366.188 264.79 366.675 264.659 367.243 264.659C367.819 264.659 368.298 264.79 368.68 265.051C369.067 265.309 369.368 265.67 369.584 266.136H369.675C369.898 265.686 370.233 265.328 370.68 265.062C371.127 264.794 371.663 264.659 372.288 264.659C373.069 264.659 373.707 264.903 374.203 265.392C374.699 265.877 374.947 266.633 374.947 267.659V273.5H373.607V267.659C373.607 267.015 373.43 266.555 373.078 266.278C372.726 266.002 372.311 265.864 371.834 265.864C371.22 265.864 370.745 266.049 370.408 266.42C370.071 266.788 369.902 267.254 369.902 267.818V273.5H368.538V267.523C368.538 267.027 368.377 266.627 368.055 266.324C367.733 266.017 367.319 265.864 366.811 265.864C366.463 265.864 366.137 265.956 365.834 266.142C365.535 266.328 365.292 266.585 365.107 266.915C364.925 267.241 364.834 267.617 364.834 268.045V273.5H363.493Z" fill="#0B1D28"/>
</g>
<rect x="248.5" y="0.5" width="223" height="303" rx="3.5" stroke="#006590"/>
<g clip-path="url(#clip2_7804_9528)">
<rect x="496" width="224" height="304" rx="4" fill="#C8E6FF"/>
<rect width="224" height="72" transform="translate(496)" fill="#006590" fill-opacity="0.16"/>
<rect x="624.5" y="0.5" width="95" height="71" rx="1.5" fill="white"/>
<rect x="624.5" y="0.5" width="95" height="71" rx="1.5" stroke="#001E2E" stroke-linecap="square" stroke-dasharray="6 6"/>
<path d="M657.818 29.8636V41.5H656.409V29.8636H657.818ZM664.257 32.7727V33.9091H659.734V32.7727H664.257ZM661.053 30.6818H662.393V39C662.393 39.3788 662.448 39.6629 662.558 39.8523C662.672 40.0379 662.816 40.1629 662.99 40.2273C663.168 40.2879 663.356 40.3182 663.553 40.3182C663.7 40.3182 663.821 40.3106 663.916 40.2955C664.011 40.2765 664.087 40.2614 664.143 40.25L664.416 41.4545C664.325 41.4886 664.198 41.5227 664.036 41.5568C663.873 41.5947 663.666 41.6136 663.416 41.6136C663.037 41.6136 662.666 41.5322 662.303 41.3693C661.943 41.2064 661.643 40.9583 661.405 40.625C661.17 40.2917 661.053 39.8712 661.053 39.3636V30.6818ZM669.839 41.6818C668.999 41.6818 668.273 41.4962 667.663 41.125C667.057 40.75 666.589 40.2273 666.26 39.5568C665.934 38.8826 665.771 38.0985 665.771 37.2045C665.771 36.3106 665.934 35.5227 666.26 34.8409C666.589 34.1553 667.048 33.6212 667.635 33.2386C668.226 32.8523 668.915 32.6591 669.703 32.6591C670.158 32.6591 670.607 32.7348 671.05 32.8864C671.493 33.0379 671.896 33.2841 672.26 33.625C672.624 33.9621 672.913 34.4091 673.129 34.9659C673.345 35.5227 673.453 36.2083 673.453 37.0227V37.5909H666.726V36.4318H672.089C672.089 35.9394 671.991 35.5 671.794 35.1136C671.601 34.7273 671.324 34.4223 670.964 34.1989C670.608 33.9754 670.188 33.8636 669.703 33.8636C669.169 33.8636 668.707 33.9962 668.317 34.2614C667.93 34.5227 667.633 34.8636 667.425 35.2841C667.216 35.7045 667.112 36.1553 667.112 36.6364V37.4091C667.112 38.0682 667.226 38.6269 667.453 39.0852C667.684 39.5398 668.004 39.8864 668.413 40.125C668.822 40.3598 669.298 40.4773 669.839 40.4773C670.192 40.4773 670.51 40.428 670.794 40.3295C671.082 40.2273 671.33 40.0758 671.538 39.875C671.747 39.6705 671.908 39.4167 672.021 39.1136L673.317 39.4773C673.18 39.9167 672.951 40.303 672.629 40.6364C672.307 40.9659 671.91 41.2235 671.436 41.4091C670.963 41.5909 670.43 41.6818 669.839 41.6818ZM675.493 41.5V32.7727H676.788V34.1364H676.902C677.084 33.6705 677.377 33.3087 677.783 33.0511C678.188 32.7898 678.675 32.6591 679.243 32.6591C679.819 32.6591 680.298 32.7898 680.68 33.0511C681.067 33.3087 681.368 33.6705 681.584 34.1364H681.675C681.898 33.6856 682.233 33.3277 682.68 33.0625C683.127 32.7936 683.663 32.6591 684.288 32.6591C685.069 32.6591 685.707 32.9034 686.203 33.392C686.699 33.8769 686.947 34.6326 686.947 35.6591V41.5H685.607V35.6591C685.607 35.0152 685.43 34.5549 685.078 34.2784C684.726 34.0019 684.311 33.8636 683.834 33.8636C683.22 33.8636 682.745 34.0492 682.408 34.4205C682.071 34.7879 681.902 35.2538 681.902 35.8182V41.5H680.538V35.5227C680.538 35.0265 680.377 34.6269 680.055 34.3239C679.733 34.017 679.319 33.8636 678.811 33.8636C678.463 33.8636 678.137 33.9564 677.834 34.142C677.535 34.3277 677.292 34.5852 677.107 34.9148C676.925 35.2405 676.834 35.6174 676.834 36.0455V41.5H675.493Z" fill="#0B1D28"/>
<rect width="224" height="128" transform="translate(496 88)" fill="#006590" fill-opacity="0.16"/>
<rect x="648.5" y="88.5" width="71" height="127" rx="1.5" fill="white"/>
<rect x="648.5" y="88.5" width="71" height="127" rx="1.5" stroke="#001E2E" stroke-linecap="square" stroke-dasharray="6 6"/>
<path d="M669.818 145.864V157.5H668.409V145.864H669.818ZM676.257 148.773V149.909H671.734V148.773H676.257ZM673.053 146.682H674.393V155C674.393 155.379 674.448 155.663 674.558 155.852C674.672 156.038 674.816 156.163 674.99 156.227C675.168 156.288 675.356 156.318 675.553 156.318C675.7 156.318 675.821 156.311 675.916 156.295C676.011 156.277 676.087 156.261 676.143 156.25L676.416 157.455C676.325 157.489 676.198 157.523 676.036 157.557C675.873 157.595 675.666 157.614 675.416 157.614C675.037 157.614 674.666 157.532 674.303 157.369C673.943 157.206 673.643 156.958 673.405 156.625C673.17 156.292 673.053 155.871 673.053 155.364V146.682ZM681.839 157.682C680.999 157.682 680.273 157.496 679.663 157.125C679.057 156.75 678.589 156.227 678.26 155.557C677.934 154.883 677.771 154.098 677.771 153.205C677.771 152.311 677.934 151.523 678.26 150.841C678.589 150.155 679.048 149.621 679.635 149.239C680.226 148.852 680.915 148.659 681.703 148.659C682.158 148.659 682.607 148.735 683.05 148.886C683.493 149.038 683.896 149.284 684.26 149.625C684.624 149.962 684.913 150.409 685.129 150.966C685.345 151.523 685.453 152.208 685.453 153.023V153.591H678.726V152.432H684.089C684.089 151.939 683.991 151.5 683.794 151.114C683.601 150.727 683.324 150.422 682.964 150.199C682.608 149.975 682.188 149.864 681.703 149.864C681.169 149.864 680.707 149.996 680.317 150.261C679.93 150.523 679.633 150.864 679.425 151.284C679.216 151.705 679.112 152.155 679.112 152.636V153.409C679.112 154.068 679.226 154.627 679.453 155.085C679.684 155.54 680.004 155.886 680.413 156.125C680.822 156.36 681.298 156.477 681.839 156.477C682.192 156.477 682.51 156.428 682.794 156.33C683.082 156.227 683.33 156.076 683.538 155.875C683.747 155.67 683.908 155.417 684.021 155.114L685.317 155.477C685.18 155.917 684.951 156.303 684.629 156.636C684.307 156.966 683.91 157.223 683.436 157.409C682.963 157.591 682.43 157.682 681.839 157.682ZM687.493 157.5V148.773H688.788V150.136H688.902C689.084 149.67 689.377 149.309 689.783 149.051C690.188 148.79 690.675 148.659 691.243 148.659C691.819 148.659 692.298 148.79 692.68 149.051C693.067 149.309 693.368 149.67 693.584 150.136H693.675C693.898 149.686 694.233 149.328 694.68 149.062C695.127 148.794 695.663 148.659 696.288 148.659C697.069 148.659 697.707 148.903 698.203 149.392C698.699 149.877 698.947 150.633 698.947 151.659V157.5H697.607V151.659C697.607 151.015 697.43 150.555 697.078 150.278C696.726 150.002 696.311 149.864 695.834 149.864C695.22 149.864 694.745 150.049 694.408 150.42C694.071 150.788 693.902 151.254 693.902 151.818V157.5H692.538V151.523C692.538 151.027 692.377 150.627 692.055 150.324C691.733 150.017 691.319 149.864 690.811 149.864C690.463 149.864 690.137 149.956 689.834 150.142C689.535 150.328 689.292 150.585 689.107 150.915C688.925 151.241 688.834 151.617 688.834 152.045V157.5H687.493Z" fill="#0B1D28"/>
<rect width="224" height="72" transform="translate(496 232)" fill="#006590" fill-opacity="0.16"/>
<rect x="576.5" y="232.5" width="143" height="71" rx="1.5" fill="white"/>
<rect x="576.5" y="232.5" width="143" height="71" rx="1.5" stroke="#001E2E" stroke-linecap="square" stroke-dasharray="6 6"/>
<path d="M633.818 261.864V273.5H632.409V261.864H633.818ZM640.257 264.773V265.909H635.734V264.773H640.257ZM637.053 262.682H638.393V271C638.393 271.379 638.448 271.663 638.558 271.852C638.672 272.038 638.816 272.163 638.99 272.227C639.168 272.288 639.356 272.318 639.553 272.318C639.7 272.318 639.821 272.311 639.916 272.295C640.011 272.277 640.087 272.261 640.143 272.25L640.416 273.455C640.325 273.489 640.198 273.523 640.036 273.557C639.873 273.595 639.666 273.614 639.416 273.614C639.037 273.614 638.666 273.532 638.303 273.369C637.943 273.206 637.643 272.958 637.405 272.625C637.17 272.292 637.053 271.871 637.053 271.364V262.682ZM645.839 273.682C644.999 273.682 644.273 273.496 643.663 273.125C643.057 272.75 642.589 272.227 642.26 271.557C641.934 270.883 641.771 270.098 641.771 269.205C641.771 268.311 641.934 267.523 642.26 266.841C642.589 266.155 643.048 265.621 643.635 265.239C644.226 264.852 644.915 264.659 645.703 264.659C646.158 264.659 646.607 264.735 647.05 264.886C647.493 265.038 647.896 265.284 648.26 265.625C648.624 265.962 648.913 266.409 649.129 266.966C649.345 267.523 649.453 268.208 649.453 269.023V269.591H642.726V268.432H648.089C648.089 267.939 647.991 267.5 647.794 267.114C647.601 266.727 647.324 266.422 646.964 266.199C646.608 265.975 646.188 265.864 645.703 265.864C645.169 265.864 644.707 265.996 644.317 266.261C643.93 266.523 643.633 266.864 643.425 267.284C643.216 267.705 643.112 268.155 643.112 268.636V269.409C643.112 270.068 643.226 270.627 643.453 271.085C643.684 271.54 644.004 271.886 644.413 272.125C644.822 272.36 645.298 272.477 645.839 272.477C646.192 272.477 646.51 272.428 646.794 272.33C647.082 272.227 647.33 272.076 647.538 271.875C647.747 271.67 647.908 271.417 648.021 271.114L649.317 271.477C649.18 271.917 648.951 272.303 648.629 272.636C648.307 272.966 647.91 273.223 647.436 273.409C646.963 273.591 646.43 273.682 645.839 273.682ZM651.493 273.5V264.773H652.788V266.136H652.902C653.084 265.67 653.377 265.309 653.783 265.051C654.188 264.79 654.675 264.659 655.243 264.659C655.819 264.659 656.298 264.79 656.68 265.051C657.067 265.309 657.368 265.67 657.584 266.136H657.675C657.898 265.686 658.233 265.328 658.68 265.062C659.127 264.794 659.663 264.659 660.288 264.659C661.069 264.659 661.707 264.903 662.203 265.392C662.699 265.877 662.947 266.633 662.947 267.659V273.5H661.607V267.659C661.607 267.015 661.43 266.555 661.078 266.278C660.726 266.002 660.311 265.864 659.834 265.864C659.22 265.864 658.745 266.049 658.408 266.42C658.071 266.788 657.902 267.254 657.902 267.818V273.5H656.538V267.523C656.538 267.027 656.377 266.627 656.055 266.324C655.733 266.017 655.319 265.864 654.811 265.864C654.463 265.864 654.137 265.956 653.834 266.142C653.535 266.328 653.292 266.585 653.107 266.915C652.925 267.241 652.834 267.617 652.834 268.045V273.5H651.493Z" fill="#0B1D28"/>
</g>
<rect x="496.5" y="0.5" width="223" height="303" rx="3.5" stroke="#006590"/>
<defs>
<clipPath id="clip0_7804_9528">
<rect width="224" height="304" rx="4" fill="white"/>
</clipPath>
<clipPath id="clip1_7804_9528">
<rect x="248" width="224" height="304" rx="4" fill="white"/>
</clipPath>
<clipPath id="clip2_7804_9528">
<rect x="496" width="224" height="304" rx="4" fill="white"/>
</clipPath>
</defs>
</svg>
