<svg width="720" height="112" viewBox="0 0 720 112" fill="none" xmlns="http://www.w3.org/2000/svg">
<g clip-path="url(#clip0_8042_4241)">
<rect width="720" height="72" rx="2" fill="#87CEFF"/>
<rect x="0.5" y="0.5" width="279" height="71" rx="1.5" fill="#E5F2FF"/>
<rect x="0.5" y="0.5" width="279" height="71" rx="1.5" stroke="#001E2E" stroke-linecap="square" stroke-dasharray="6 6"/>
<rect width="42" height="24" transform="translate(119 24)" fill="white"/>
<path d="M126.773 32.7727C126.705 32.197 126.428 31.75 125.943 31.4318C125.458 31.1136 124.864 30.9545 124.159 30.9545C123.644 30.9545 123.193 31.0379 122.807 31.2045C122.424 31.3712 122.125 31.6004 121.909 31.892C121.697 32.1837 121.591 32.5152 121.591 32.8864C121.591 33.197 121.665 33.464 121.812 33.6875C121.964 33.9072 122.157 34.0909 122.392 34.2386C122.627 34.3826 122.873 34.5019 123.131 34.5966C123.388 34.6875 123.625 34.7614 123.841 34.8182L125.023 35.1364C125.326 35.2159 125.663 35.3258 126.034 35.4659C126.409 35.6061 126.767 35.7973 127.108 36.0398C127.453 36.2784 127.737 36.5852 127.96 36.9602C128.184 37.3352 128.295 37.7955 128.295 38.3409C128.295 38.9697 128.131 39.5379 127.801 40.0455C127.475 40.553 126.998 40.9564 126.369 41.2557C125.744 41.5549 124.985 41.7045 124.091 41.7045C123.258 41.7045 122.536 41.5701 121.926 41.3011C121.32 41.0322 120.843 40.6572 120.494 40.1761C120.15 39.6951 119.955 39.1364 119.909 38.5H121.364C121.402 38.9394 121.549 39.303 121.807 39.5909C122.068 39.875 122.398 40.0871 122.795 40.2273C123.197 40.3636 123.629 40.4318 124.091 40.4318C124.629 40.4318 125.112 40.3447 125.54 40.1705C125.968 39.9924 126.307 39.7462 126.557 39.4318C126.807 39.1136 126.932 38.7424 126.932 38.3182C126.932 37.9318 126.824 37.6174 126.608 37.375C126.392 37.1326 126.108 36.9356 125.756 36.7841C125.403 36.6326 125.023 36.5 124.614 36.3864L123.182 35.9773C122.273 35.7159 121.553 35.3428 121.023 34.858C120.492 34.3731 120.227 33.7386 120.227 32.9545C120.227 32.303 120.403 31.7348 120.756 31.25C121.112 30.7614 121.589 30.3826 122.188 30.1136C122.79 29.8409 123.462 29.7045 124.205 29.7045C124.955 29.7045 125.621 29.839 126.205 30.108C126.788 30.3731 127.25 30.7367 127.591 31.1989C127.936 31.661 128.117 32.1856 128.136 32.7727H126.773ZM131.771 36.25V41.5H130.43V29.8636H131.771V34.1364H131.885C132.089 33.6856 132.396 33.3277 132.805 33.0625C133.218 32.7936 133.768 32.6591 134.453 32.6591C135.048 32.6591 135.569 32.7784 136.016 33.017C136.463 33.2519 136.809 33.6136 137.055 34.1023C137.305 34.5871 137.43 35.2045 137.43 35.9545V41.5H136.089V36.0455C136.089 35.3523 135.91 34.8163 135.55 34.4375C135.194 34.0549 134.699 33.8636 134.067 33.8636C133.627 33.8636 133.233 33.9564 132.885 34.142C132.54 34.3277 132.268 34.5985 132.067 34.9545C131.87 35.3106 131.771 35.7424 131.771 36.25ZM143.429 41.6818C142.641 41.6818 141.95 41.4943 141.355 41.1193C140.764 40.7443 140.302 40.2197 139.969 39.5455C139.639 38.8712 139.474 38.0833 139.474 37.1818C139.474 36.2727 139.639 35.4792 139.969 34.8011C140.302 34.1231 140.764 33.5966 141.355 33.2216C141.95 32.8466 142.641 32.6591 143.429 32.6591C144.217 32.6591 144.906 32.8466 145.497 33.2216C146.092 33.5966 146.554 34.1231 146.884 34.8011C147.217 35.4792 147.384 36.2727 147.384 37.1818C147.384 38.0833 147.217 38.8712 146.884 39.5455C146.554 40.2197 146.092 40.7443 145.497 41.1193C144.906 41.4943 144.217 41.6818 143.429 41.6818ZM143.429 40.4773C144.027 40.4773 144.52 40.3239 144.906 40.017C145.293 39.7102 145.579 39.3068 145.764 38.8068C145.95 38.3068 146.043 37.7652 146.043 37.1818C146.043 36.5985 145.95 36.0549 145.764 35.5511C145.579 35.0473 145.293 34.6402 144.906 34.3295C144.52 34.0189 144.027 33.8636 143.429 33.8636C142.83 33.8636 142.338 34.0189 141.952 34.3295C141.565 34.6402 141.279 35.0473 141.094 35.5511C140.908 36.0549 140.815 36.5985 140.815 37.1818C140.815 37.7652 140.908 38.3068 141.094 38.8068C141.279 39.3068 141.565 39.7102 141.952 40.017C142.338 40.3239 142.83 40.4773 143.429 40.4773ZM149.43 41.5V32.7727H150.726V34.0909H150.817C150.976 33.6591 151.264 33.3087 151.68 33.0398C152.097 32.7708 152.567 32.6364 153.089 32.6364C153.188 32.6364 153.311 32.6383 153.459 32.642C153.607 32.6458 153.718 32.6515 153.794 32.6591V34.0227C153.749 34.0114 153.644 33.9943 153.482 33.9716C153.322 33.9451 153.154 33.9318 152.976 33.9318C152.552 33.9318 152.173 34.0208 151.839 34.1989C151.51 34.3731 151.249 34.6155 151.055 34.9261C150.866 35.233 150.771 35.5833 150.771 35.9773V41.5H149.43ZM159.726 32.7727V33.9091H155.203V32.7727H159.726ZM156.521 30.6818H157.862V39C157.862 39.3788 157.917 39.6629 158.027 39.8523C158.141 40.0379 158.285 40.1629 158.459 40.2273C158.637 40.2879 158.824 40.3182 159.021 40.3182C159.169 40.3182 159.29 40.3106 159.385 40.2955C159.48 40.2765 159.555 40.2614 159.612 40.25L159.885 41.4545C159.794 41.4886 159.667 41.5227 159.504 41.5568C159.341 41.5947 159.135 41.6136 158.885 41.6136C158.506 41.6136 158.135 41.5322 157.771 41.3693C157.411 41.2064 157.112 40.9583 156.874 40.625C156.639 40.2917 156.521 39.8712 156.521 39.3636V30.6818Z" fill="#0B1D28"/>
<rect x="284.5" y="0.5" width="228" height="71" rx="1.5" fill="#E5F2FF"/>
<rect x="284.5" y="0.5" width="228" height="71" rx="1.5" stroke="#001E2E" stroke-linecap="square" stroke-dasharray="6 6"/>
<rect width="61" height="24" transform="translate(368 24)" fill="white"/>
<path d="M369.409 29.8636H371.091L375.045 39.5227H375.182L379.136 29.8636H380.818V41.5H379.5V32.6591H379.386L375.75 41.5H374.477L370.841 32.6591H370.727V41.5H369.409V29.8636ZM387.121 41.6818C386.28 41.6818 385.554 41.4962 384.945 41.125C384.339 40.75 383.871 40.2273 383.541 39.5568C383.215 38.8826 383.053 38.0985 383.053 37.2045C383.053 36.3106 383.215 35.5227 383.541 34.8409C383.871 34.1553 384.329 33.6212 384.916 33.2386C385.507 32.8523 386.196 32.6591 386.984 32.6591C387.439 32.6591 387.888 32.7348 388.331 32.8864C388.774 33.0379 389.178 33.2841 389.541 33.625C389.905 33.9621 390.195 34.4091 390.411 34.9659C390.626 35.5227 390.734 36.2083 390.734 37.0227V37.5909H384.007V36.4318H389.371C389.371 35.9394 389.272 35.5 389.075 35.1136C388.882 34.7273 388.606 34.4223 388.246 34.1989C387.89 33.9754 387.469 33.8636 386.984 33.8636C386.45 33.8636 385.988 33.9962 385.598 34.2614C385.212 34.5227 384.914 34.8636 384.706 35.2841C384.498 35.7045 384.393 36.1553 384.393 36.6364V37.4091C384.393 38.0682 384.507 38.6269 384.734 39.0852C384.965 39.5398 385.286 39.8864 385.695 40.125C386.104 40.3598 386.579 40.4773 387.121 40.4773C387.473 40.4773 387.791 40.428 388.075 40.3295C388.363 40.2273 388.611 40.0758 388.82 39.875C389.028 39.6705 389.189 39.4167 389.303 39.1136L390.598 39.4773C390.462 39.9167 390.232 40.303 389.911 40.6364C389.589 40.9659 389.191 41.2235 388.717 41.4091C388.244 41.5909 387.712 41.6818 387.121 41.6818ZM396.07 41.6818C395.342 41.6818 394.7 41.4981 394.143 41.1307C393.587 40.7595 393.151 40.2367 392.837 39.5625C392.522 38.8845 392.365 38.0833 392.365 37.1591C392.365 36.2424 392.522 35.447 392.837 34.7727C393.151 34.0985 393.589 33.5777 394.149 33.2102C394.71 32.8428 395.357 32.6591 396.092 32.6591C396.661 32.6591 397.109 32.7538 397.439 32.9432C397.772 33.1288 398.026 33.3409 398.2 33.5795C398.378 33.8144 398.517 34.0076 398.615 34.1591H398.729V29.8636H400.07V41.5H398.774V40.1591H398.615C398.517 40.3182 398.376 40.5189 398.195 40.7614C398.013 41 397.753 41.214 397.416 41.4034C397.079 41.589 396.63 41.6818 396.07 41.6818ZM396.251 40.4773C396.789 40.4773 397.244 40.3371 397.615 40.0568C397.986 39.7727 398.268 39.3807 398.462 38.8807C398.655 38.3769 398.751 37.7955 398.751 37.1364C398.751 36.4848 398.657 35.9148 398.467 35.4261C398.278 34.9337 397.998 34.5511 397.626 34.2784C397.255 34.0019 396.797 33.8636 396.251 33.8636C395.683 33.8636 395.21 34.0095 394.831 34.3011C394.456 34.589 394.174 34.9811 393.984 35.4773C393.799 35.9697 393.706 36.5227 393.706 37.1364C393.706 37.7576 393.801 38.322 393.99 38.8295C394.183 39.3333 394.467 39.7348 394.842 40.0341C395.221 40.3295 395.691 40.4773 396.251 40.4773ZM402.712 41.5V32.7727H404.053V41.5H402.712ZM403.393 31.3182C403.132 31.3182 402.907 31.2292 402.717 31.0511C402.532 30.8731 402.439 30.6591 402.439 30.4091C402.439 30.1591 402.532 29.9451 402.717 29.767C402.907 29.589 403.132 29.5 403.393 29.5C403.655 29.5 403.878 29.589 404.064 29.767C404.253 29.9451 404.348 30.1591 404.348 30.4091C404.348 30.6591 404.253 30.8731 404.064 31.0511C403.878 31.2292 403.655 31.3182 403.393 31.3182ZM412.009 37.9318V32.7727H413.349V41.5H412.009V40.0227H411.918C411.713 40.4659 411.395 40.8428 410.963 41.1534C410.531 41.4602 409.986 41.6136 409.327 41.6136C408.781 41.6136 408.296 41.4943 407.872 41.2557C407.448 41.0133 407.115 40.6496 406.872 40.1648C406.63 39.6761 406.509 39.0606 406.509 38.3182V32.7727H407.849V38.2273C407.849 38.8636 408.027 39.3712 408.384 39.75C408.743 40.1288 409.202 40.3182 409.759 40.3182C410.092 40.3182 410.431 40.233 410.776 40.0625C411.124 39.892 411.416 39.6307 411.651 39.2784C411.889 38.9261 412.009 38.4773 412.009 37.9318ZM415.805 41.5V32.7727H417.101V34.1364H417.214C417.396 33.6705 417.69 33.3087 418.095 33.0511C418.5 32.7898 418.987 32.6591 419.555 32.6591C420.131 32.6591 420.61 32.7898 420.993 33.0511C421.379 33.3087 421.68 33.6705 421.896 34.1364H421.987C422.211 33.6856 422.546 33.3277 422.993 33.0625C423.44 32.7936 423.976 32.6591 424.601 32.6591C425.381 32.6591 426.019 32.9034 426.516 33.392C427.012 33.8769 427.26 34.6326 427.26 35.6591V41.5H425.919V35.6591C425.919 35.0152 425.743 34.5549 425.391 34.2784C425.038 34.0019 424.624 33.8636 424.146 33.8636C423.533 33.8636 423.057 34.0492 422.72 34.4205C422.383 34.7879 422.214 35.2538 422.214 35.8182V41.5H420.851V35.5227C420.851 35.0265 420.69 34.6269 420.368 34.3239C420.046 34.017 419.631 33.8636 419.124 33.8636C418.775 33.8636 418.449 33.9564 418.146 34.142C417.847 34.3277 417.605 34.5852 417.419 34.9148C417.237 35.2405 417.146 35.6174 417.146 36.0455V41.5H415.805Z" fill="#0B1D28"/>
<rect x="517.5" y="0.5" width="202" height="71" rx="1.5" fill="#E5F2FF"/>
<rect x="517.5" y="0.5" width="202" height="71" rx="1.5" stroke="#001E2E" stroke-linecap="square" stroke-dasharray="6 6"/>
<rect width="154" height="24" transform="translate(541.5 24)" fill="white"/>
<path d="M543.386 29.8636L546.841 39.6591H546.977L550.432 29.8636H551.909L547.636 41.5H546.182L541.909 29.8636H543.386ZM556.386 41.6818C555.545 41.6818 554.82 41.4962 554.21 41.125C553.604 40.75 553.136 40.2273 552.807 39.5568C552.481 38.8826 552.318 38.0985 552.318 37.2045C552.318 36.3106 552.481 35.5227 552.807 34.8409C553.136 34.1553 553.595 33.6212 554.182 33.2386C554.773 32.8523 555.462 32.6591 556.25 32.6591C556.705 32.6591 557.153 32.7348 557.597 32.8864C558.04 33.0379 558.443 33.2841 558.807 33.625C559.17 33.9621 559.46 34.4091 559.676 34.9659C559.892 35.5227 560 36.2083 560 37.0227V37.5909H553.273V36.4318H558.636C558.636 35.9394 558.538 35.5 558.341 35.1136C558.148 34.7273 557.871 34.4223 557.511 34.1989C557.155 33.9754 556.735 33.8636 556.25 33.8636C555.716 33.8636 555.254 33.9962 554.864 34.2614C554.477 34.5227 554.18 34.8636 553.972 35.2841C553.763 35.7045 553.659 36.1553 553.659 36.6364V37.4091C553.659 38.0682 553.773 38.6269 554 39.0852C554.231 39.5398 554.551 39.8864 554.96 40.125C555.369 40.3598 555.845 40.4773 556.386 40.4773C556.739 40.4773 557.057 40.428 557.341 40.3295C557.629 40.2273 557.877 40.0758 558.085 39.875C558.294 39.6705 558.455 39.4167 558.568 39.1136L559.864 39.4773C559.727 39.9167 559.498 40.303 559.176 40.6364C558.854 40.9659 558.456 41.2235 557.983 41.4091C557.509 41.5909 556.977 41.6818 556.386 41.6818ZM562.04 41.5V32.7727H563.335V34.0909H563.426C563.585 33.6591 563.873 33.3087 564.29 33.0398C564.706 32.7708 565.176 32.6364 565.699 32.6364C565.797 32.6364 565.92 32.6383 566.068 32.642C566.216 32.6458 566.328 32.6515 566.403 32.6591V34.0227C566.358 34.0114 566.254 33.9943 566.091 33.9716C565.932 33.9451 565.763 33.9318 565.585 33.9318C565.161 33.9318 564.782 34.0208 564.449 34.1989C564.119 34.3731 563.858 34.6155 563.665 34.9261C563.475 35.233 563.381 35.5833 563.381 35.9773V41.5H562.04ZM569.122 44.7727C568.895 44.7727 568.692 44.7538 568.514 44.7159C568.336 44.6818 568.213 44.6477 568.145 44.6136L568.486 43.4318C568.812 43.5152 569.099 43.5455 569.349 43.5227C569.599 43.5 569.821 43.3883 570.014 43.1875C570.211 42.9905 570.391 42.6705 570.554 42.2273L570.804 41.5455L567.577 32.7727H569.031L571.44 39.7273H571.531L573.94 32.7727H575.395L571.69 42.7727C571.524 43.2235 571.317 43.5966 571.071 43.892C570.825 44.1913 570.539 44.4129 570.213 44.5568C569.891 44.7008 569.527 44.7727 569.122 44.7727ZM578.618 39.9091L578.527 40.5227C578.463 40.9545 578.364 41.4167 578.232 41.9091C578.103 42.4015 577.968 42.8655 577.828 43.3011C577.688 43.7367 577.572 44.0833 577.482 44.3409H576.459C576.508 44.0985 576.572 43.7784 576.652 43.3807C576.732 42.983 576.811 42.5379 576.891 42.0455C576.974 41.5568 577.042 41.0568 577.095 40.5455L577.163 39.9091H578.618ZM592.739 32.7727L589.511 41.5H588.148L584.92 32.7727H586.375L588.784 39.7273H588.875L591.284 32.7727H592.739ZM597.855 41.6818C597.014 41.6818 596.289 41.4962 595.679 41.125C595.073 40.75 594.605 40.2273 594.276 39.5568C593.95 38.8826 593.787 38.0985 593.787 37.2045C593.787 36.3106 593.95 35.5227 594.276 34.8409C594.605 34.1553 595.063 33.6212 595.651 33.2386C596.241 32.8523 596.931 32.6591 597.719 32.6591C598.173 32.6591 598.622 32.7348 599.065 32.8864C599.509 33.0379 599.912 33.2841 600.276 33.625C600.639 33.9621 600.929 34.4091 601.145 34.9659C601.361 35.5227 601.469 36.2083 601.469 37.0227V37.5909H594.741V36.4318H600.105C600.105 35.9394 600.007 35.5 599.81 35.1136C599.616 34.7273 599.34 34.4223 598.98 34.1989C598.624 33.9754 598.204 33.8636 597.719 33.8636C597.185 33.8636 596.723 33.9962 596.332 34.2614C595.946 34.5227 595.649 34.8636 595.44 35.2841C595.232 35.7045 595.128 36.1553 595.128 36.6364V37.4091C595.128 38.0682 595.241 38.6269 595.469 39.0852C595.7 39.5398 596.02 39.8864 596.429 40.125C596.838 40.3598 597.313 40.4773 597.855 40.4773C598.207 40.4773 598.526 40.428 598.81 40.3295C599.098 40.2273 599.346 40.0758 599.554 39.875C599.762 39.6705 599.923 39.4167 600.037 39.1136L601.332 39.4773C601.196 39.9167 600.967 40.303 600.645 40.6364C600.323 40.9659 599.925 41.2235 599.452 41.4091C598.978 41.5909 598.446 41.6818 597.855 41.6818ZM603.509 41.5V32.7727H604.804V34.0909H604.895C605.054 33.6591 605.342 33.3087 605.759 33.0398C606.175 32.7708 606.645 32.6364 607.168 32.6364C607.266 32.6364 607.389 32.6383 607.537 32.642C607.685 32.6458 607.796 32.6515 607.872 32.6591V34.0227C607.827 34.0114 607.723 33.9943 607.56 33.9716C607.401 33.9451 607.232 33.9318 607.054 33.9318C606.63 33.9318 606.251 34.0208 605.918 34.1989C605.588 34.3731 605.327 34.6155 605.134 34.9261C604.944 35.233 604.849 35.5833 604.849 35.9773V41.5H603.509ZM610.591 44.7727C610.364 44.7727 610.161 44.7538 609.983 44.7159C609.805 44.6818 609.682 44.6477 609.614 44.6136L609.955 43.4318C610.28 43.5152 610.568 43.5455 610.818 43.5227C611.068 43.5 611.29 43.3883 611.483 43.1875C611.68 42.9905 611.86 42.6705 612.023 42.2273L612.273 41.5455L609.045 32.7727H610.5L612.909 39.7273H613L615.409 32.7727H616.864L613.159 42.7727C612.992 43.2235 612.786 43.5966 612.54 43.892C612.294 44.1913 612.008 44.4129 611.682 44.5568C611.36 44.7008 610.996 44.7727 610.591 44.7727ZM624.474 29.8636V41.5H623.134V29.8636H624.474ZM630.476 41.6818C629.688 41.6818 628.997 41.4943 628.402 41.1193C627.811 40.7443 627.349 40.2197 627.016 39.5455C626.686 38.8712 626.521 38.0833 626.521 37.1818C626.521 36.2727 626.686 35.4792 627.016 34.8011C627.349 34.1231 627.811 33.5966 628.402 33.2216C628.997 32.8466 629.688 32.6591 630.476 32.6591C631.264 32.6591 631.953 32.8466 632.544 33.2216C633.139 33.5966 633.601 34.1231 633.93 34.8011C634.264 35.4792 634.43 36.2727 634.43 37.1818C634.43 38.0833 634.264 38.8712 633.93 39.5455C633.601 40.2197 633.139 40.7443 632.544 41.1193C631.953 41.4943 631.264 41.6818 630.476 41.6818ZM630.476 40.4773C631.074 40.4773 631.567 40.3239 631.953 40.017C632.339 39.7102 632.625 39.3068 632.811 38.8068C632.997 38.3068 633.089 37.7652 633.089 37.1818C633.089 36.5985 632.997 36.0549 632.811 35.5511C632.625 35.0473 632.339 34.6402 631.953 34.3295C631.567 34.0189 631.074 33.8636 630.476 33.8636C629.877 33.8636 629.385 34.0189 628.999 34.3295C628.612 34.6402 628.326 35.0473 628.141 35.5511C627.955 36.0549 627.862 36.5985 627.862 37.1818C627.862 37.7652 627.955 38.3068 628.141 38.8068C628.326 39.3068 628.612 39.7102 628.999 40.017C629.385 40.3239 629.877 40.4773 630.476 40.4773ZM637.818 36.25V41.5H636.477V32.7727H637.773V34.1364H637.886C638.091 33.6932 638.402 33.3371 638.818 33.0682C639.235 32.7955 639.773 32.6591 640.432 32.6591C641.023 32.6591 641.54 32.7803 641.983 33.0227C642.426 33.2614 642.771 33.625 643.017 34.1136C643.263 34.5985 643.386 35.2121 643.386 35.9545V41.5H642.045V36.0455C642.045 35.3598 641.867 34.8258 641.511 34.4432C641.155 34.0568 640.667 33.8636 640.045 33.8636C639.617 33.8636 639.235 33.9564 638.898 34.142C638.564 34.3277 638.301 34.5985 638.108 34.9545C637.915 35.3106 637.818 35.7424 637.818 36.25ZM649.359 44.9545C648.712 44.9545 648.155 44.8712 647.689 44.7045C647.223 44.5417 646.835 44.3258 646.524 44.0568C646.217 43.7917 645.973 43.5076 645.791 43.2045L646.859 42.4545C646.981 42.6136 647.134 42.7955 647.32 43C647.505 43.2083 647.759 43.3883 648.081 43.5398C648.407 43.6951 648.833 43.7727 649.359 43.7727C650.064 43.7727 650.645 43.6023 651.104 43.2614C651.562 42.9205 651.791 42.3864 651.791 41.6591V39.8864H651.678C651.579 40.0455 651.439 40.2424 651.257 40.4773C651.079 40.7083 650.821 40.9148 650.484 41.0966C650.151 41.2746 649.7 41.3636 649.132 41.3636C648.428 41.3636 647.795 41.197 647.234 40.8636C646.678 40.5303 646.236 40.0455 645.911 39.4091C645.589 38.7727 645.428 38 645.428 37.0909C645.428 36.197 645.585 35.4186 645.899 34.7557C646.214 34.089 646.651 33.5739 647.212 33.2102C647.772 32.8428 648.42 32.6591 649.155 32.6591C649.723 32.6591 650.174 32.7538 650.507 32.9432C650.844 33.1288 651.102 33.3409 651.28 33.5795C651.462 33.8144 651.602 34.0076 651.7 34.1591H651.837V32.7727H653.132V41.75C653.132 42.5 652.962 43.1098 652.621 43.5795C652.284 44.053 651.829 44.3996 651.257 44.6193C650.689 44.8428 650.056 44.9545 649.359 44.9545ZM649.314 40.1591C649.852 40.1591 650.306 40.036 650.678 39.7898C651.049 39.5436 651.331 39.1894 651.524 38.7273C651.717 38.2652 651.814 37.7121 651.814 37.0682C651.814 36.4394 651.719 35.8845 651.53 35.4034C651.34 34.9223 651.06 34.5455 650.689 34.2727C650.318 34 649.859 33.8636 649.314 33.8636C648.746 33.8636 648.272 34.0076 647.893 34.2955C647.518 34.5833 647.236 34.9697 647.047 35.4545C646.861 35.9394 646.768 36.4773 646.768 37.0682C646.768 37.6742 646.863 38.2102 647.053 38.6761C647.246 39.1383 647.53 39.5019 647.905 39.767C648.284 40.0284 648.753 40.1591 649.314 40.1591ZM661.428 29.8636V41.5H660.087V29.8636H661.428ZM666.452 41.7045C665.899 41.7045 665.397 41.6004 664.946 41.392C664.495 41.1799 664.137 40.875 663.872 40.4773C663.607 40.0758 663.474 39.5909 663.474 39.0227C663.474 38.5227 663.573 38.1174 663.77 37.8068C663.967 37.4924 664.23 37.2462 664.56 37.0682C664.889 36.8902 665.253 36.7576 665.651 36.6705C666.052 36.5795 666.455 36.5076 666.861 36.4545C667.391 36.3864 667.821 36.3352 668.151 36.3011C668.484 36.2633 668.726 36.2008 668.878 36.1136C669.033 36.0265 669.111 35.875 669.111 35.6591V35.6136C669.111 35.053 668.957 34.6174 668.651 34.3068C668.348 33.9962 667.887 33.8409 667.27 33.8409C666.63 33.8409 666.128 33.9811 665.764 34.2614C665.401 34.5417 665.145 34.8409 664.997 35.1591L663.724 34.7045C663.952 34.1742 664.255 33.7614 664.634 33.4659C665.016 33.1667 665.433 32.9583 665.884 32.8409C666.338 32.7197 666.785 32.6591 667.224 32.6591C667.505 32.6591 667.827 32.6932 668.19 32.7614C668.558 32.8258 668.912 32.9602 669.253 33.1648C669.598 33.3693 669.884 33.678 670.111 34.0909C670.338 34.5038 670.452 35.0568 670.452 35.75V41.5H669.111V40.3182H669.043C668.952 40.5076 668.8 40.7102 668.588 40.9261C668.376 41.142 668.094 41.3258 667.741 41.4773C667.389 41.6288 666.959 41.7045 666.452 41.7045ZM666.656 40.5C667.187 40.5 667.634 40.3958 667.997 40.1875C668.365 39.9792 668.641 39.7102 668.827 39.3807C669.016 39.0511 669.111 38.7045 669.111 38.3409V37.1136C669.054 37.1818 668.929 37.2443 668.736 37.3011C668.546 37.3542 668.327 37.4015 668.077 37.4432C667.83 37.4811 667.59 37.5152 667.355 37.5455C667.124 37.572 666.937 37.5947 666.793 37.6136C666.444 37.6591 666.118 37.733 665.815 37.8352C665.516 37.9337 665.274 38.0833 665.088 38.2841C664.906 38.4811 664.815 38.75 664.815 39.0909C664.815 39.5568 664.988 39.9091 665.332 40.1477C665.681 40.3826 666.122 40.5 666.656 40.5ZM673.081 41.5V29.8636H674.422V34.1591H674.536C674.634 34.0076 674.77 33.8144 674.945 33.5795C675.123 33.3409 675.376 33.1288 675.706 32.9432C676.039 32.7538 676.49 32.6591 677.058 32.6591C677.793 32.6591 678.441 32.8428 679.001 33.2102C679.562 33.5777 680 34.0985 680.314 34.7727C680.628 35.447 680.786 36.2424 680.786 37.1591C680.786 38.0833 680.628 38.8845 680.314 39.5625C680 40.2367 679.564 40.7595 679.007 41.1307C678.45 41.4981 677.808 41.6818 677.081 41.6818C676.52 41.6818 676.071 41.589 675.734 41.4034C675.397 41.214 675.138 41 674.956 40.7614C674.774 40.5189 674.634 40.3182 674.536 40.1591H674.376V41.5H673.081ZM674.399 37.1364C674.399 37.7955 674.496 38.3769 674.689 38.8807C674.882 39.3807 675.164 39.7727 675.536 40.0568C675.907 40.3371 676.361 40.4773 676.899 40.4773C677.46 40.4773 677.928 40.3295 678.303 40.0341C678.681 39.7348 678.965 39.3333 679.155 38.8295C679.348 38.322 679.445 37.7576 679.445 37.1364C679.445 36.5227 679.35 35.9697 679.161 35.4773C678.975 34.9811 678.693 34.589 678.314 34.3011C677.939 34.0095 677.467 33.8636 676.899 33.8636C676.354 33.8636 675.895 34.0019 675.524 34.2784C675.153 34.5511 674.873 34.9337 674.683 35.4261C674.494 35.9148 674.399 36.4848 674.399 37.1364ZM686.496 41.6818C685.655 41.6818 684.929 41.4962 684.32 41.125C683.714 40.75 683.246 40.2273 682.916 39.5568C682.59 38.8826 682.428 38.0985 682.428 37.2045C682.428 36.3106 682.59 35.5227 682.916 34.8409C683.246 34.1553 683.704 33.6212 684.291 33.2386C684.882 32.8523 685.571 32.6591 686.359 32.6591C686.814 32.6591 687.263 32.7348 687.706 32.8864C688.149 33.0379 688.553 33.2841 688.916 33.625C689.28 33.9621 689.57 34.4091 689.786 34.9659C690.001 35.5227 690.109 36.2083 690.109 37.0227V37.5909H683.382V36.4318H688.746C688.746 35.9394 688.647 35.5 688.45 35.1136C688.257 34.7273 687.981 34.4223 687.621 34.1989C687.265 33.9754 686.844 33.8636 686.359 33.8636C685.825 33.8636 685.363 33.9962 684.973 34.2614C684.587 34.5227 684.289 34.8636 684.081 35.2841C683.873 35.7045 683.768 36.1553 683.768 36.6364V37.4091C683.768 38.0682 683.882 38.6269 684.109 39.0852C684.34 39.5398 684.661 39.8864 685.07 40.125C685.479 40.3598 685.954 40.4773 686.496 40.4773C686.848 40.4773 687.166 40.428 687.45 40.3295C687.738 40.2273 687.986 40.0758 688.195 39.875C688.403 39.6705 688.564 39.4167 688.678 39.1136L689.973 39.4773C689.837 39.9167 689.607 40.303 689.286 40.6364C688.964 40.9659 688.566 41.2235 688.092 41.4091C687.619 41.5909 687.087 41.6818 686.496 41.6818ZM693.49 29.8636V41.5H692.149V29.8636H693.49Z" fill="#0B1D28"/>
<path d="M451.25 0V72" stroke="#004C6D" stroke-width="0.5" stroke-dasharray="2 2"/>
<path d="M512.75 0V72" stroke="#004C6D" stroke-width="0.5" stroke-dasharray="2 2"/>
<path d="M512.75 36.5L512.75 33.5M512.75 36.5L512.75 39.5M512.75 36.5L451.25 36.5M451.25 36.5L451.25 33.5M451.25 36.5L451.25 39.4999" stroke="#004C6D" stroke-width="0.5"/>
<rect x="466.5" y="28.5" width="31" height="16" rx="3" fill="#004C6D"/>
<path d="M474.069 40.632C473.548 40.632 473.104 40.5403 472.738 40.357C472.378 40.1663 472.081 39.906 471.847 39.576C471.619 39.246 471.451 38.8647 471.341 38.432C471.238 37.992 471.187 37.519 471.187 37.013C471.187 36.4263 471.249 35.8727 471.374 35.352C471.498 34.824 471.685 34.3583 471.935 33.955C472.191 33.5517 472.518 33.2363 472.914 33.009C473.31 32.7817 473.786 32.668 474.344 32.668C474.747 32.668 475.139 32.7267 475.521 32.844C475.909 32.9613 476.258 33.13 476.566 33.35L475.818 34.45C475.59 34.2887 475.345 34.1713 475.081 34.098C474.824 34.0247 474.586 33.988 474.366 33.988C473.801 33.988 473.357 34.2373 473.035 34.736C472.712 35.2347 472.558 36.023 472.573 37.101L472.276 36.892C472.444 36.4887 472.705 36.166 473.057 35.924C473.409 35.682 473.827 35.561 474.311 35.561C474.802 35.561 475.235 35.6747 475.609 35.902C475.99 36.1293 476.287 36.441 476.5 36.837C476.72 37.2257 476.83 37.662 476.83 38.146C476.83 38.6227 476.716 39.0517 476.489 39.433C476.261 39.807 475.939 40.1003 475.521 40.313C475.11 40.5257 474.626 40.632 474.069 40.632ZM474.069 39.356C474.311 39.356 474.527 39.301 474.718 39.191C474.908 39.081 475.059 38.9307 475.169 38.74C475.279 38.5493 475.334 38.3293 475.334 38.08C475.334 37.8307 475.279 37.6107 475.169 37.42C475.059 37.222 474.908 37.068 474.718 36.958C474.527 36.8407 474.311 36.782 474.069 36.782C473.827 36.782 473.607 36.8407 473.409 36.958C473.218 37.068 473.068 37.222 472.958 37.42C472.848 37.6107 472.793 37.8307 472.793 38.08C472.793 38.3293 472.848 38.5493 472.958 38.74C473.068 38.9307 473.218 39.081 473.409 39.191C473.607 39.301 473.827 39.356 474.069 39.356ZM479.196 40.181L477.722 39.389C477.722 39.1763 477.788 38.9417 477.92 38.685C478.052 38.4283 478.235 38.1717 478.47 37.915C478.704 37.6583 478.979 37.42 479.295 37.2L480.461 36.364C480.622 36.254 480.772 36.1293 480.912 35.99C481.058 35.8507 481.176 35.7003 481.264 35.539C481.359 35.3703 481.407 35.209 481.407 35.055C481.407 34.8643 481.359 34.692 481.264 34.538C481.176 34.384 481.044 34.263 480.868 34.175C480.692 34.087 480.475 34.043 480.219 34.043C479.999 34.043 479.801 34.087 479.625 34.175C479.456 34.263 479.317 34.3803 479.207 34.527C479.097 34.6737 479.02 34.8313 478.976 35L477.425 34.736C477.498 34.3693 477.656 34.0283 477.898 33.713C478.14 33.3977 478.455 33.1447 478.844 32.954C479.24 32.756 479.687 32.657 480.186 32.657C480.758 32.657 481.249 32.7597 481.66 32.965C482.07 33.1703 482.386 33.4527 482.606 33.812C482.833 34.164 482.947 34.5747 482.947 35.044C482.947 35.5207 482.815 35.946 482.551 36.32C482.294 36.6867 481.938 37.0313 481.484 37.354L480.439 38.113C480.226 38.2523 480.024 38.421 479.834 38.619C479.643 38.8097 479.489 39.0333 479.372 39.29C479.254 39.5393 479.196 39.8363 479.196 40.181ZM477.722 40.5V39.389L478.844 39.18H483.046V40.5H477.722ZM484.895 40.665C484.653 40.665 484.444 40.577 484.268 40.401C484.099 40.225 484.015 40.016 484.015 39.774C484.015 39.5393 484.099 39.334 484.268 39.158C484.444 38.982 484.653 38.894 484.895 38.894C485.137 38.894 485.342 38.982 485.511 39.158C485.687 39.334 485.775 39.5393 485.775 39.774C485.775 40.016 485.687 40.225 485.511 40.401C485.342 40.577 485.137 40.665 484.895 40.665ZM487.634 38.377L486.545 37.783L489.955 32.8L490.857 33.647L487.634 38.377ZM486.545 38.982V37.783L487.392 37.695H492.892V38.982H486.545ZM490.131 40.5V33.625L489.966 32.8H491.55V40.5H490.131Z" fill="white"/>
<path d="M284.25 0V72" stroke="#004C6D" stroke-width="0.5" stroke-dasharray="2 2"/>
<path d="M345.75 0V72" stroke="#004C6D" stroke-width="0.5" stroke-dasharray="2 2"/>
<path d="M345.75 36.5L345.75 33.5M345.75 36.5L345.75 39.5M345.75 36.5L284.25 36.5M284.25 36.5L284.25 33.5M284.25 36.5L284.25 39.4999" stroke="#004C6D" stroke-width="0.5"/>
<rect x="299.5" y="28.5" width="31" height="16" rx="3" fill="#004C6D"/>
<path d="M307.069 40.632C306.548 40.632 306.104 40.5403 305.738 40.357C305.378 40.1663 305.081 39.906 304.847 39.576C304.619 39.246 304.451 38.8647 304.341 38.432C304.238 37.992 304.187 37.519 304.187 37.013C304.187 36.4263 304.249 35.8727 304.374 35.352C304.498 34.824 304.685 34.3583 304.935 33.955C305.191 33.5517 305.518 33.2363 305.914 33.009C306.31 32.7817 306.786 32.668 307.344 32.668C307.747 32.668 308.139 32.7267 308.521 32.844C308.909 32.9613 309.258 33.13 309.566 33.35L308.818 34.45C308.59 34.2887 308.345 34.1713 308.081 34.098C307.824 34.0247 307.586 33.988 307.366 33.988C306.801 33.988 306.357 34.2373 306.035 34.736C305.712 35.2347 305.558 36.023 305.573 37.101L305.276 36.892C305.444 36.4887 305.705 36.166 306.057 35.924C306.409 35.682 306.827 35.561 307.311 35.561C307.802 35.561 308.235 35.6747 308.609 35.902C308.99 36.1293 309.287 36.441 309.5 36.837C309.72 37.2257 309.83 37.662 309.83 38.146C309.83 38.6227 309.716 39.0517 309.489 39.433C309.261 39.807 308.939 40.1003 308.521 40.313C308.11 40.5257 307.626 40.632 307.069 40.632ZM307.069 39.356C307.311 39.356 307.527 39.301 307.718 39.191C307.908 39.081 308.059 38.9307 308.169 38.74C308.279 38.5493 308.334 38.3293 308.334 38.08C308.334 37.8307 308.279 37.6107 308.169 37.42C308.059 37.222 307.908 37.068 307.718 36.958C307.527 36.8407 307.311 36.782 307.069 36.782C306.827 36.782 306.607 36.8407 306.409 36.958C306.218 37.068 306.068 37.222 305.958 37.42C305.848 37.6107 305.793 37.8307 305.793 38.08C305.793 38.3293 305.848 38.5493 305.958 38.74C306.068 38.9307 306.218 39.081 306.409 39.191C306.607 39.301 306.827 39.356 307.069 39.356ZM312.196 40.181L310.722 39.389C310.722 39.1763 310.788 38.9417 310.92 38.685C311.052 38.4283 311.235 38.1717 311.47 37.915C311.704 37.6583 311.979 37.42 312.295 37.2L313.461 36.364C313.622 36.254 313.772 36.1293 313.912 35.99C314.058 35.8507 314.176 35.7003 314.264 35.539C314.359 35.3703 314.407 35.209 314.407 35.055C314.407 34.8643 314.359 34.692 314.264 34.538C314.176 34.384 314.044 34.263 313.868 34.175C313.692 34.087 313.475 34.043 313.219 34.043C312.999 34.043 312.801 34.087 312.625 34.175C312.456 34.263 312.317 34.3803 312.207 34.527C312.097 34.6737 312.02 34.8313 311.976 35L310.425 34.736C310.498 34.3693 310.656 34.0283 310.898 33.713C311.14 33.3977 311.455 33.1447 311.844 32.954C312.24 32.756 312.687 32.657 313.186 32.657C313.758 32.657 314.249 32.7597 314.66 32.965C315.07 33.1703 315.386 33.4527 315.606 33.812C315.833 34.164 315.947 34.5747 315.947 35.044C315.947 35.5207 315.815 35.946 315.551 36.32C315.294 36.6867 314.938 37.0313 314.484 37.354L313.439 38.113C313.226 38.2523 313.024 38.421 312.834 38.619C312.643 38.8097 312.489 39.0333 312.372 39.29C312.254 39.5393 312.196 39.8363 312.196 40.181ZM310.722 40.5V39.389L311.844 39.18H316.046V40.5H310.722ZM317.895 40.665C317.653 40.665 317.444 40.577 317.268 40.401C317.099 40.225 317.015 40.016 317.015 39.774C317.015 39.5393 317.099 39.334 317.268 39.158C317.444 38.982 317.653 38.894 317.895 38.894C318.137 38.894 318.342 38.982 318.511 39.158C318.687 39.334 318.775 39.5393 318.775 39.774C318.775 40.016 318.687 40.225 318.511 40.401C318.342 40.577 318.137 40.665 317.895 40.665ZM320.634 38.377L319.545 37.783L322.955 32.8L323.857 33.647L320.634 38.377ZM319.545 38.982V37.783L320.392 37.695H325.892V38.982H319.545ZM323.131 40.5V33.625L322.966 32.8H324.55V40.5H323.131Z" fill="white"/>
<path d="M0.25 0V72" stroke="#004C6D" stroke-width="0.5" stroke-dasharray="2 2"/>
<path d="M95.75 0V72" stroke="#004C6D" stroke-width="0.5" stroke-dasharray="2 2"/>
<path d="M95.75 36.5L95.75 33.5M95.75 36.5L95.75 39.5M95.75 36.5L0.249998 36.5M0.249998 36.5L0.249998 33.5M0.249998 36.5L0.249997 39.4999" stroke="#004C6D" stroke-width="0.5"/>
<rect x="33" y="28.5" width="30" height="16" rx="3" fill="#004C6D"/>
<path d="M40.2897 32.679C40.8104 32.679 41.2504 32.7743 41.6097 32.965C41.9764 33.1483 42.2734 33.405 42.5007 33.735C42.7354 34.065 42.9041 34.45 43.0067 34.89C43.1167 35.3227 43.1717 35.7883 43.1717 36.287C43.1717 36.881 43.1094 37.442 42.9847 37.97C42.8601 38.4907 42.6694 38.9527 42.4127 39.356C42.1634 39.752 41.8407 40.0673 41.4447 40.302C41.0487 40.5293 40.5721 40.643 40.0147 40.643C39.6114 40.643 39.2154 40.5843 38.8267 40.467C38.4454 40.3423 38.1007 40.1737 37.7927 39.961L38.5297 38.861C38.7644 39.015 39.0101 39.1323 39.2667 39.213C39.5307 39.2863 39.7691 39.323 39.9817 39.323C40.5537 39.323 41.0011 39.0737 41.3237 38.575C41.6537 38.069 41.8041 37.2807 41.7747 36.21L42.0827 36.408C41.9141 36.8113 41.6537 37.1377 41.3017 37.387C40.9497 37.629 40.5281 37.75 40.0367 37.75C39.5527 37.75 39.1201 37.6363 38.7387 37.409C38.3574 37.1743 38.0604 36.8627 37.8477 36.474C37.6351 36.0853 37.5287 35.6453 37.5287 35.154C37.5287 34.67 37.6424 34.2447 37.8697 33.878C38.0971 33.504 38.4161 33.2107 38.8267 32.998C39.2447 32.7853 39.7324 32.679 40.2897 32.679ZM40.2897 33.944C40.0477 33.944 39.8314 33.999 39.6407 34.109C39.4501 34.219 39.2997 34.3693 39.1897 34.56C39.0797 34.7507 39.0247 34.9707 39.0247 35.22C39.0247 35.4693 39.0797 35.693 39.1897 35.891C39.2997 36.089 39.4501 36.243 39.6407 36.353C39.8314 36.463 40.0477 36.518 40.2897 36.518C40.5317 36.518 40.7481 36.463 40.9387 36.353C41.1294 36.243 41.2797 36.089 41.3897 35.891C41.5071 35.693 41.5657 35.4693 41.5657 35.22C41.5657 34.9707 41.5071 34.7507 41.3897 34.56C41.2797 34.3693 41.1294 34.219 40.9387 34.109C40.7481 33.999 40.5317 33.944 40.2897 33.944ZM46.6706 40.632C46.2159 40.632 45.8053 40.566 45.4386 40.434C45.0719 40.2947 44.7639 40.1003 44.5146 39.851C44.2726 39.5943 44.1039 39.2937 44.0086 38.949L45.3946 38.542C45.4459 38.63 45.5156 38.74 45.6036 38.872C45.6916 38.9967 45.8126 39.103 45.9666 39.191C46.1206 39.279 46.3223 39.323 46.5716 39.323C46.9383 39.323 47.2279 39.224 47.4406 39.026C47.6606 38.8207 47.7706 38.5567 47.7706 38.234C47.7706 38.014 47.7156 37.8197 47.6056 37.651C47.4956 37.4823 47.3159 37.354 47.0666 37.266C46.8246 37.1707 46.5056 37.123 46.1096 37.123H45.6476V36.1H46.0546C46.4946 36.1 46.9089 36.155 47.2976 36.265C47.6863 36.3677 48.0273 36.5217 48.3206 36.727C48.6213 36.925 48.8559 37.167 49.0246 37.453C49.1933 37.7317 49.2776 38.0507 49.2776 38.41C49.2776 38.872 49.1566 39.2717 48.9146 39.609C48.6726 39.939 48.3536 40.192 47.9576 40.368C47.5616 40.544 47.1326 40.632 46.6706 40.632ZM45.6476 36.848V35.891H46.1096C46.6229 35.891 47.0043 35.803 47.2536 35.627C47.5029 35.451 47.6276 35.209 47.6276 34.901C47.6276 34.725 47.5836 34.5673 47.4956 34.428C47.4076 34.2887 47.2829 34.1787 47.1216 34.098C46.9603 34.0173 46.7733 33.977 46.5606 33.977C46.4213 33.977 46.2783 34.0027 46.1316 34.054C45.9849 34.098 45.8493 34.175 45.7246 34.285C45.6073 34.3877 45.5119 34.538 45.4386 34.736L44.0746 34.329C44.1773 33.9697 44.3533 33.669 44.6026 33.427C44.8593 33.1777 45.1636 32.9907 45.5156 32.866C45.8676 32.734 46.2306 32.668 46.6046 32.668C47.0813 32.668 47.5103 32.7597 47.8916 32.943C48.2729 33.119 48.5736 33.3647 48.7936 33.68C49.0136 33.9953 49.1236 34.3583 49.1236 34.769C49.1236 35.121 49.0393 35.4253 48.8706 35.682C48.7019 35.9387 48.4709 36.155 48.1776 36.331C47.8916 36.507 47.5653 36.639 47.1986 36.727C46.8319 36.8077 46.4506 36.848 46.0546 36.848H45.6476ZM51.0559 40.665C50.8139 40.665 50.6049 40.577 50.4289 40.401C50.2602 40.225 50.1759 40.016 50.1759 39.774C50.1759 39.5393 50.2602 39.334 50.4289 39.158C50.6049 38.982 50.8139 38.894 51.0559 38.894C51.2979 38.894 51.5032 38.982 51.6719 39.158C51.8479 39.334 51.9359 39.5393 51.9359 39.774C51.9359 40.016 51.8479 40.225 51.6719 40.401C51.5032 40.577 51.2979 40.665 51.0559 40.665ZM55.7094 40.632C55.1887 40.632 54.7451 40.5403 54.3784 40.357C54.0191 40.1663 53.7221 39.906 53.4874 39.576C53.2601 39.246 53.0914 38.8647 52.9814 38.432C52.8787 37.992 52.8274 37.519 52.8274 37.013C52.8274 36.4263 52.8897 35.8727 53.0144 35.352C53.1391 34.824 53.3261 34.3583 53.5754 33.955C53.8321 33.5517 54.1584 33.2363 54.5544 33.009C54.9504 32.7817 55.4271 32.668 55.9844 32.668C56.3877 32.668 56.7801 32.7267 57.1614 32.844C57.5501 32.9613 57.8984 33.13 58.2064 33.35L57.4584 34.45C57.2311 34.2887 56.9854 34.1713 56.7214 34.098C56.4647 34.0247 56.2264 33.988 56.0064 33.988C55.4417 33.988 54.9981 34.2373 54.6754 34.736C54.3527 35.2347 54.1987 36.023 54.2134 37.101L53.9164 36.892C54.0851 36.4887 54.3454 36.166 54.6974 35.924C55.0494 35.682 55.4674 35.561 55.9514 35.561C56.4427 35.561 56.8754 35.6747 57.2494 35.902C57.6307 36.1293 57.9277 36.441 58.1404 36.837C58.3604 37.2257 58.4704 37.662 58.4704 38.146C58.4704 38.6227 58.3567 39.0517 58.1294 39.433C57.9021 39.807 57.5794 40.1003 57.1614 40.313C56.7507 40.5257 56.2667 40.632 55.7094 40.632ZM55.7094 39.356C55.9514 39.356 56.1677 39.301 56.3584 39.191C56.5491 39.081 56.6994 38.9307 56.8094 38.74C56.9194 38.5493 56.9744 38.3293 56.9744 38.08C56.9744 37.8307 56.9194 37.6107 56.8094 37.42C56.6994 37.222 56.5491 37.068 56.3584 36.958C56.1677 36.8407 55.9514 36.782 55.7094 36.782C55.4674 36.782 55.2474 36.8407 55.0494 36.958C54.8587 37.068 54.7084 37.222 54.5984 37.42C54.4884 37.6107 54.4334 37.8307 54.4334 38.08C54.4334 38.3293 54.4884 38.5493 54.5984 38.74C54.7084 38.9307 54.8587 39.081 55.0494 39.191C55.2474 39.301 55.4674 39.356 55.7094 39.356Z" fill="white"/>
<path d="M184.25 0V72" stroke="#004C6D" stroke-width="0.5" stroke-dasharray="2 2"/>
<path d="M279.75 0V72" stroke="#004C6D" stroke-width="0.5" stroke-dasharray="2 2"/>
<path d="M279.75 36.5L279.75 33.5M279.75 36.5L279.75 39.5M279.75 36.5L184.25 36.5M184.25 36.5L184.25 33.5M184.25 36.5L184.25 39.4999" stroke="#004C6D" stroke-width="0.5"/>
<rect x="217" y="28.5" width="30" height="16" rx="3" fill="#004C6D"/>
<path d="M224.29 32.679C224.81 32.679 225.25 32.7743 225.61 32.965C225.976 33.1483 226.273 33.405 226.501 33.735C226.735 34.065 226.904 34.45 227.007 34.89C227.117 35.3227 227.172 35.7883 227.172 36.287C227.172 36.881 227.109 37.442 226.985 37.97C226.86 38.4907 226.669 38.9527 226.413 39.356C226.163 39.752 225.841 40.0673 225.445 40.302C225.049 40.5293 224.572 40.643 224.015 40.643C223.611 40.643 223.215 40.5843 222.827 40.467C222.445 40.3423 222.101 40.1737 221.793 39.961L222.53 38.861C222.764 39.015 223.01 39.1323 223.267 39.213C223.531 39.2863 223.769 39.323 223.982 39.323C224.554 39.323 225.001 39.0737 225.324 38.575C225.654 38.069 225.804 37.2807 225.775 36.21L226.083 36.408C225.914 36.8113 225.654 37.1377 225.302 37.387C224.95 37.629 224.528 37.75 224.037 37.75C223.553 37.75 223.12 37.6363 222.739 37.409C222.357 37.1743 222.06 36.8627 221.848 36.474C221.635 36.0853 221.529 35.6453 221.529 35.154C221.529 34.67 221.642 34.2447 221.87 33.878C222.097 33.504 222.416 33.2107 222.827 32.998C223.245 32.7853 223.732 32.679 224.29 32.679ZM224.29 33.944C224.048 33.944 223.831 33.999 223.641 34.109C223.45 34.219 223.3 34.3693 223.19 34.56C223.08 34.7507 223.025 34.9707 223.025 35.22C223.025 35.4693 223.08 35.693 223.19 35.891C223.3 36.089 223.45 36.243 223.641 36.353C223.831 36.463 224.048 36.518 224.29 36.518C224.532 36.518 224.748 36.463 224.939 36.353C225.129 36.243 225.28 36.089 225.39 35.891C225.507 35.693 225.566 35.4693 225.566 35.22C225.566 34.9707 225.507 34.7507 225.39 34.56C225.28 34.3693 225.129 34.219 224.939 34.109C224.748 33.999 224.532 33.944 224.29 33.944ZM230.671 40.632C230.216 40.632 229.805 40.566 229.439 40.434C229.072 40.2947 228.764 40.1003 228.515 39.851C228.273 39.5943 228.104 39.2937 228.009 38.949L229.395 38.542C229.446 38.63 229.516 38.74 229.604 38.872C229.692 38.9967 229.813 39.103 229.967 39.191C230.121 39.279 230.322 39.323 230.572 39.323C230.938 39.323 231.228 39.224 231.441 39.026C231.661 38.8207 231.771 38.5567 231.771 38.234C231.771 38.014 231.716 37.8197 231.606 37.651C231.496 37.4823 231.316 37.354 231.067 37.266C230.825 37.1707 230.506 37.123 230.11 37.123H229.648V36.1H230.055C230.495 36.1 230.909 36.155 231.298 36.265C231.686 36.3677 232.027 36.5217 232.321 36.727C232.621 36.925 232.856 37.167 233.025 37.453C233.193 37.7317 233.278 38.0507 233.278 38.41C233.278 38.872 233.157 39.2717 232.915 39.609C232.673 39.939 232.354 40.192 231.958 40.368C231.562 40.544 231.133 40.632 230.671 40.632ZM229.648 36.848V35.891H230.11C230.623 35.891 231.004 35.803 231.254 35.627C231.503 35.451 231.628 35.209 231.628 34.901C231.628 34.725 231.584 34.5673 231.496 34.428C231.408 34.2887 231.283 34.1787 231.122 34.098C230.96 34.0173 230.773 33.977 230.561 33.977C230.421 33.977 230.278 34.0027 230.132 34.054C229.985 34.098 229.849 34.175 229.725 34.285C229.607 34.3877 229.512 34.538 229.439 34.736L228.075 34.329C228.177 33.9697 228.353 33.669 228.603 33.427C228.859 33.1777 229.164 32.9907 229.516 32.866C229.868 32.734 230.231 32.668 230.605 32.668C231.081 32.668 231.51 32.7597 231.892 32.943C232.273 33.119 232.574 33.3647 232.794 33.68C233.014 33.9953 233.124 34.3583 233.124 34.769C233.124 35.121 233.039 35.4253 232.871 35.682C232.702 35.9387 232.471 36.155 232.178 36.331C231.892 36.507 231.565 36.639 231.199 36.727C230.832 36.8077 230.451 36.848 230.055 36.848H229.648ZM235.056 40.665C234.814 40.665 234.605 40.577 234.429 40.401C234.26 40.225 234.176 40.016 234.176 39.774C234.176 39.5393 234.26 39.334 234.429 39.158C234.605 38.982 234.814 38.894 235.056 38.894C235.298 38.894 235.503 38.982 235.672 39.158C235.848 39.334 235.936 39.5393 235.936 39.774C235.936 40.016 235.848 40.225 235.672 40.401C235.503 40.577 235.298 40.665 235.056 40.665ZM239.709 40.632C239.189 40.632 238.745 40.5403 238.378 40.357C238.019 40.1663 237.722 39.906 237.487 39.576C237.26 39.246 237.091 38.8647 236.981 38.432C236.879 37.992 236.827 37.519 236.827 37.013C236.827 36.4263 236.89 35.8727 237.014 35.352C237.139 34.824 237.326 34.3583 237.575 33.955C237.832 33.5517 238.158 33.2363 238.554 33.009C238.95 32.7817 239.427 32.668 239.984 32.668C240.388 32.668 240.78 32.7267 241.161 32.844C241.55 32.9613 241.898 33.13 242.206 33.35L241.458 34.45C241.231 34.2887 240.985 34.1713 240.721 34.098C240.465 34.0247 240.226 33.988 240.006 33.988C239.442 33.988 238.998 34.2373 238.675 34.736C238.353 35.2347 238.199 36.023 238.213 37.101L237.916 36.892C238.085 36.4887 238.345 36.166 238.697 35.924C239.049 35.682 239.467 35.561 239.951 35.561C240.443 35.561 240.875 35.6747 241.249 35.902C241.631 36.1293 241.928 36.441 242.14 36.837C242.36 37.2257 242.47 37.662 242.47 38.146C242.47 38.6227 242.357 39.0517 242.129 39.433C241.902 39.807 241.579 40.1003 241.161 40.313C240.751 40.5257 240.267 40.632 239.709 40.632ZM239.709 39.356C239.951 39.356 240.168 39.301 240.358 39.191C240.549 39.081 240.699 38.9307 240.809 38.74C240.919 38.5493 240.974 38.3293 240.974 38.08C240.974 37.8307 240.919 37.6107 240.809 37.42C240.699 37.222 240.549 37.068 240.358 36.958C240.168 36.8407 239.951 36.782 239.709 36.782C239.467 36.782 239.247 36.8407 239.049 36.958C238.859 37.068 238.708 37.222 238.598 37.42C238.488 37.6107 238.433 37.8307 238.433 38.08C238.433 38.3293 238.488 38.5493 238.598 38.74C238.708 38.9307 238.859 39.081 239.049 39.191C239.247 39.301 239.467 39.356 239.709 39.356Z" fill="white"/>
</g>
<rect x="0.5" y="0.5" width="719" height="71" rx="1.5" stroke="#006590"/>
<rect x="562.5" y="88.5" width="112" height="23" rx="5.5" fill="#FFEBF7"/>
<rect x="562.5" y="88.5" width="112" height="23" rx="5.5" stroke="#FFADF3"/>
<path d="M570.919 105V98.8271H568.937V97.6035H570.919V97.1523C570.919 96.6693 570.992 96.2454 571.138 95.8809C571.288 95.5117 571.5 95.2018 571.773 94.9512C572.047 94.7051 572.375 94.5182 572.758 94.3906C573.145 94.263 573.578 94.1992 574.057 94.1992C574.225 94.1992 574.389 94.2083 574.549 94.2266C574.713 94.2402 574.872 94.2585 575.027 94.2812C575.155 94.2995 575.285 94.3223 575.417 94.3496C575.549 94.3724 575.684 94.3975 575.82 94.4248L575.69 95.7305C575.508 95.6803 575.301 95.637 575.068 95.6006C574.84 95.5641 574.581 95.5459 574.289 95.5459C573.984 95.5459 573.719 95.5824 573.496 95.6553C573.277 95.7282 573.097 95.8353 572.956 95.9766C572.824 96.1087 572.724 96.2728 572.655 96.4688C572.591 96.6647 572.56 96.8926 572.56 97.1523V97.6035H575.301V98.8271H572.56V105H570.919ZM577.782 94.5H581.768V103.646H584.01V105H577.782V103.646H580.12V95.8604H577.782V94.5ZM589.328 105.137C588.781 105.137 588.28 105.046 587.824 104.863C587.373 104.681 586.986 104.428 586.662 104.104C586.339 103.785 586.088 103.41 585.91 102.977C585.737 102.539 585.65 102.067 585.65 101.562V101.281C585.65 100.702 585.742 100.178 585.924 99.709C586.106 99.2396 586.357 98.8385 586.676 98.5059C586.995 98.1732 587.364 97.918 587.783 97.7402C588.207 97.5579 588.658 97.4668 589.137 97.4668C589.67 97.4668 590.142 97.5579 590.552 97.7402C590.962 97.918 591.306 98.1663 591.584 98.4854C591.862 98.8089 592.072 99.194 592.213 99.6406C592.354 100.087 592.425 100.575 592.425 101.104V101.808H587.298V101.842C587.348 102.165 587.425 102.437 587.53 102.655C587.635 102.874 587.779 103.07 587.961 103.243C588.143 103.425 588.357 103.567 588.604 103.667C588.854 103.767 589.128 103.817 589.424 103.817C589.829 103.817 590.208 103.74 590.559 103.585C590.91 103.425 591.199 103.2 591.427 102.908L592.302 103.756C592.056 104.111 591.677 104.43 591.167 104.713C590.661 104.995 590.048 105.137 589.328 105.137ZM589.13 98.793C588.897 98.793 588.681 98.8363 588.48 98.9229C588.285 99.0049 588.109 99.1234 587.954 99.2783C587.799 99.4378 587.669 99.6292 587.564 99.8525C587.46 100.076 587.382 100.329 587.332 100.611H590.812V100.502C590.812 100.288 590.773 100.076 590.695 99.8662C590.618 99.652 590.508 99.4652 590.367 99.3057C590.23 99.1507 590.057 99.0277 589.848 98.9365C589.643 98.8408 589.403 98.793 589.13 98.793ZM597.531 100.092L599.302 97.6035H601.113L598.516 101.247L601.195 105H599.391L597.545 102.416L595.706 105H593.895L596.574 101.247L593.983 97.6035H595.781L597.531 100.092ZM608.879 101.288H603.376V99.9619H608.879V101.288ZM610.889 101.247C610.889 100.687 610.957 100.176 611.094 99.7158C611.23 99.251 611.429 98.8522 611.688 98.5195C611.948 98.1868 612.26 97.9294 612.625 97.7471C612.994 97.5602 613.409 97.4668 613.869 97.4668C614.143 97.4668 614.391 97.4964 614.614 97.5557C614.838 97.6104 615.04 97.6924 615.223 97.8018C615.341 97.8701 615.453 97.9521 615.558 98.0479C615.662 98.139 615.76 98.2393 615.852 98.3486L615.92 97.6035H617.403V104.795C617.403 105.292 617.321 105.731 617.157 106.114C616.998 106.502 616.772 106.83 616.48 107.099C616.184 107.363 615.829 107.563 615.414 107.7C615.004 107.841 614.55 107.912 614.054 107.912C613.844 107.912 613.614 107.889 613.363 107.844C613.113 107.798 612.862 107.728 612.611 107.632C612.361 107.536 612.121 107.411 611.894 107.256C611.666 107.101 611.47 106.914 611.306 106.695L612.078 105.704C612.21 105.864 612.352 106 612.502 106.114C612.657 106.233 612.814 106.328 612.974 106.401C613.133 106.474 613.295 106.527 613.459 106.559C613.623 106.595 613.789 106.613 613.958 106.613C614.25 106.613 614.507 106.572 614.73 106.49C614.958 106.408 615.152 106.29 615.312 106.135C615.457 105.984 615.569 105.8 615.646 105.581C615.729 105.362 615.77 105.114 615.77 104.836V104.323C615.674 104.424 615.574 104.517 615.469 104.604C615.368 104.69 615.259 104.765 615.141 104.829C614.963 104.929 614.767 105.005 614.553 105.055C614.339 105.109 614.106 105.137 613.855 105.137C613.4 105.137 612.99 105.043 612.625 104.856C612.26 104.665 611.948 104.401 611.688 104.063C611.433 103.731 611.235 103.337 611.094 102.881C610.957 102.421 610.889 101.924 610.889 101.391V101.247ZM612.529 101.391C612.529 101.719 612.561 102.029 612.625 102.32C612.693 102.612 612.8 102.865 612.946 103.079C613.088 103.302 613.268 103.478 613.486 103.605C613.705 103.729 613.965 103.79 614.266 103.79C614.452 103.79 614.621 103.77 614.771 103.729C614.926 103.688 615.065 103.631 615.188 103.558C615.312 103.48 615.421 103.387 615.517 103.277C615.612 103.168 615.697 103.047 615.77 102.915V99.6748C615.697 99.5381 615.608 99.415 615.503 99.3057C615.403 99.1963 615.286 99.1029 615.154 99.0254C615.036 98.9616 614.904 98.9115 614.758 98.875C614.612 98.834 614.452 98.8135 614.279 98.8135C613.974 98.8135 613.712 98.8773 613.493 99.0049C613.274 99.1325 613.094 99.3079 612.953 99.5312C612.807 99.7546 612.7 100.014 612.632 100.311C612.563 100.602 612.529 100.914 612.529 101.247V101.391ZM624.622 97.4668C624.886 97.4668 625.142 97.485 625.388 97.5215C625.638 97.5579 625.834 97.6012 625.976 97.6514L625.743 99.2646C625.493 99.21 625.244 99.1689 624.998 99.1416C624.757 99.1143 624.515 99.1006 624.273 99.1006C624 99.1006 623.754 99.1279 623.535 99.1826C623.316 99.2373 623.123 99.3216 622.954 99.4355C622.772 99.5449 622.617 99.6839 622.489 99.8525C622.362 100.021 622.255 100.215 622.168 100.434V105H620.534V97.6035H622.065L622.134 98.6289L622.141 98.7998C622.441 98.3851 622.801 98.0592 623.221 97.8223C623.645 97.5853 624.112 97.4668 624.622 97.4668ZM627.616 101.233C627.616 100.696 627.694 100.199 627.849 99.7432C628.004 99.2829 628.229 98.8841 628.525 98.5469C628.817 98.2096 629.175 97.9453 629.599 97.7539C630.022 97.5625 630.506 97.4668 631.048 97.4668C631.59 97.4668 632.073 97.5625 632.497 97.7539C632.925 97.9453 633.288 98.2096 633.584 98.5469C633.876 98.8841 634.099 99.2829 634.254 99.7432C634.409 100.199 634.486 100.696 634.486 101.233V101.377C634.486 101.919 634.409 102.418 634.254 102.874C634.099 103.33 633.876 103.726 633.584 104.063C633.292 104.401 632.932 104.665 632.504 104.856C632.08 105.048 631.599 105.144 631.062 105.144C630.519 105.144 630.034 105.048 629.605 104.856C629.177 104.665 628.817 104.401 628.525 104.063C628.229 103.726 628.004 103.33 627.849 102.874C627.694 102.418 627.616 101.919 627.616 101.377V101.233ZM629.25 101.377C629.25 101.71 629.284 102.024 629.353 102.32C629.425 102.617 629.537 102.876 629.688 103.1C629.833 103.323 630.02 103.501 630.248 103.633C630.476 103.76 630.747 103.824 631.062 103.824C631.367 103.824 631.633 103.76 631.861 103.633C632.089 103.501 632.276 103.323 632.422 103.1C632.568 102.876 632.675 102.617 632.743 102.32C632.816 102.024 632.853 101.71 632.853 101.377V101.233C632.853 100.91 632.816 100.6 632.743 100.304C632.67 100.007 632.563 99.7477 632.422 99.5244C632.271 99.3011 632.082 99.1234 631.854 98.9912C631.631 98.859 631.362 98.793 631.048 98.793C630.738 98.793 630.469 98.859 630.241 98.9912C630.018 99.1234 629.833 99.3011 629.688 99.5244C629.537 99.7477 629.425 100.007 629.353 100.304C629.284 100.6 629.25 100.91 629.25 101.233V101.377ZM636.94 105L635.512 97.6035H636.988L637.672 102.136L637.788 102.99L637.938 102.136L638.902 97.6035H639.976L640.939 102.122L641.097 103.018L641.227 102.115L641.89 97.6035H643.373L641.944 105H640.557L639.6 100.803L639.429 99.8867L639.265 100.803L638.328 105H636.94ZM646.969 104.016C646.969 103.701 647.069 103.432 647.27 103.209C647.475 102.986 647.769 102.874 648.151 102.874C648.525 102.874 648.817 102.986 649.026 103.209C649.236 103.428 649.341 103.697 649.341 104.016C649.341 104.335 649.234 104.601 649.02 104.815C648.81 105.03 648.521 105.137 648.151 105.137C647.778 105.137 647.486 105.03 647.276 104.815C647.071 104.597 646.969 104.33 646.969 104.016ZM646.969 98.2256C646.969 97.9111 647.069 97.6423 647.27 97.4189C647.475 97.1956 647.769 97.084 648.151 97.084C648.525 97.084 648.817 97.1956 649.026 97.4189C649.236 97.6377 649.341 97.9066 649.341 98.2256C649.341 98.5446 649.234 98.8112 649.02 99.0254C648.81 99.2396 648.521 99.3467 648.151 99.3467C647.778 99.3467 647.486 99.2396 647.276 99.0254C647.071 98.8066 646.969 98.54 646.969 98.2256ZM667.935 101.206C667.935 101.844 667.859 102.409 667.709 102.901C667.563 103.389 667.351 103.797 667.073 104.125C666.8 104.462 666.463 104.717 666.062 104.891C665.665 105.059 665.214 105.144 664.708 105.144C664.207 105.144 663.756 105.059 663.354 104.891C662.953 104.717 662.614 104.462 662.336 104.125C662.053 103.797 661.837 103.389 661.687 102.901C661.541 102.409 661.468 101.844 661.468 101.206V98.8477C661.468 98.2096 661.541 97.6468 661.687 97.1592C661.837 96.667 662.051 96.2523 662.329 95.915C662.607 95.5824 662.944 95.3317 663.341 95.1631C663.742 94.9899 664.193 94.9033 664.694 94.9033C665.2 94.9033 665.651 94.9899 666.048 95.1631C666.449 95.3317 666.791 95.5824 667.073 95.915C667.347 96.2523 667.559 96.667 667.709 97.1592C667.859 97.6468 667.935 98.2096 667.935 98.8477V101.206ZM663.108 100.625L666.273 98.2256C666.255 97.8701 666.205 97.5625 666.123 97.3027C666.046 97.043 665.934 96.8311 665.788 96.667C665.66 96.5212 665.503 96.4118 665.316 96.3389C665.134 96.266 664.927 96.2295 664.694 96.2295C664.444 96.2295 664.223 96.2728 664.031 96.3594C663.84 96.446 663.68 96.5736 663.553 96.7422C663.402 96.9336 663.291 97.182 663.218 97.4873C663.145 97.7881 663.108 98.1436 663.108 98.5537V99.8936C663.108 100.067 663.108 100.199 663.108 100.29C663.108 100.381 663.108 100.493 663.108 100.625ZM666.287 101.479V100.222C666.287 100.108 666.287 99.9893 666.287 99.8662C666.287 99.7432 666.287 99.6156 666.287 99.4834L663.122 101.869C663.145 102.184 663.193 102.462 663.266 102.703C663.343 102.945 663.446 103.145 663.573 103.305C663.701 103.478 663.858 103.608 664.045 103.694C664.236 103.781 664.457 103.824 664.708 103.824C664.954 103.824 665.171 103.783 665.357 103.701C665.544 103.615 665.704 103.489 665.836 103.325C665.986 103.134 666.098 102.883 666.171 102.573C666.248 102.263 666.287 101.899 666.287 101.479Z" fill="#380037"/>
<rect x="35.5" y="88.5" width="129" height="23" rx="5.5" fill="#FFEBF7"/>
<rect x="35.5" y="88.5" width="129" height="23" rx="5.5" stroke="#FFADF3"/>
<path d="M43.9189 105V98.8271H41.9365V97.6035H43.9189V97.1523C43.9189 96.6693 43.9919 96.2454 44.1377 95.8809C44.2881 95.5117 44.5 95.2018 44.7734 94.9512C45.0469 94.7051 45.375 94.5182 45.7578 94.3906C46.1452 94.263 46.5781 94.1992 47.0566 94.1992C47.2253 94.1992 47.3893 94.2083 47.5488 94.2266C47.7129 94.2402 47.8724 94.2585 48.0273 94.2812C48.1549 94.2995 48.2848 94.3223 48.417 94.3496C48.5492 94.3724 48.6836 94.3975 48.8203 94.4248L48.6904 95.7305C48.5081 95.6803 48.3008 95.637 48.0684 95.6006C47.8405 95.5641 47.5807 95.5459 47.2891 95.5459C46.9837 95.5459 46.7194 95.5824 46.4961 95.6553C46.2773 95.7282 46.0973 95.8353 45.9561 95.9766C45.8239 96.1087 45.7236 96.2728 45.6553 96.4688C45.5915 96.6647 45.5596 96.8926 45.5596 97.1523V97.6035H48.3008V98.8271H45.5596V105H43.9189ZM50.7822 94.5H54.7676V103.646H57.0098V105H50.7822V103.646H53.1201V95.8604H50.7822V94.5ZM62.3281 105.137C61.7812 105.137 61.2799 105.046 60.8242 104.863C60.373 104.681 59.9857 104.428 59.6621 104.104C59.3385 103.785 59.0879 103.41 58.9102 102.977C58.737 102.539 58.6504 102.067 58.6504 101.562V101.281C58.6504 100.702 58.7415 100.178 58.9238 99.709C59.1061 99.2396 59.3568 98.8385 59.6758 98.5059C59.9948 98.1732 60.3639 97.918 60.7832 97.7402C61.207 97.5579 61.6582 97.4668 62.1367 97.4668C62.6699 97.4668 63.1416 97.5579 63.5518 97.7402C63.9619 97.918 64.306 98.1663 64.584 98.4854C64.862 98.8089 65.0716 99.194 65.2129 99.6406C65.3542 100.087 65.4248 100.575 65.4248 101.104V101.808H60.2979V101.842C60.348 102.165 60.4255 102.437 60.5303 102.655C60.6351 102.874 60.7786 103.07 60.9609 103.243C61.1432 103.425 61.3574 103.567 61.6035 103.667C61.8542 103.767 62.1276 103.817 62.4238 103.817C62.8294 103.817 63.2077 103.74 63.5586 103.585C63.9095 103.425 64.1989 103.2 64.4268 102.908L65.3018 103.756C65.0557 104.111 64.6774 104.43 64.167 104.713C63.6611 104.995 63.0482 105.137 62.3281 105.137ZM62.1299 98.793C61.8975 98.793 61.681 98.8363 61.4805 98.9229C61.2845 99.0049 61.109 99.1234 60.9541 99.2783C60.7992 99.4378 60.6693 99.6292 60.5645 99.8525C60.4596 100.076 60.3822 100.329 60.332 100.611H63.8115V100.502C63.8115 100.288 63.7728 100.076 63.6953 99.8662C63.6178 99.652 63.5085 99.4652 63.3672 99.3057C63.2305 99.1507 63.0573 99.0277 62.8477 98.9365C62.6426 98.8408 62.4033 98.793 62.1299 98.793ZM70.5312 100.092L72.3018 97.6035H74.1133L71.5156 101.247L74.1953 105H72.3906L70.5449 102.416L68.7061 105H66.8945L69.5742 101.247L66.9834 97.6035H68.7812L70.5312 100.092ZM81.8789 101.288H76.376V99.9619H81.8789V101.288ZM83.8887 101.247C83.8887 100.687 83.957 100.176 84.0938 99.7158C84.2305 99.251 84.4287 98.8522 84.6885 98.5195C84.9482 98.1868 85.2604 97.9294 85.625 97.7471C85.9941 97.5602 86.4089 97.4668 86.8691 97.4668C87.1426 97.4668 87.391 97.4964 87.6143 97.5557C87.8376 97.6104 88.0404 97.6924 88.2227 97.8018C88.3411 97.8701 88.4528 97.9521 88.5576 98.0479C88.6624 98.139 88.7604 98.2393 88.8516 98.3486L88.9199 97.6035H90.4033V104.795C90.4033 105.292 90.3213 105.731 90.1572 106.114C89.9977 106.502 89.7721 106.83 89.4805 107.099C89.1842 107.363 88.8288 107.563 88.4141 107.7C88.0039 107.841 87.5505 107.912 87.0537 107.912C86.8441 107.912 86.6139 107.889 86.3633 107.844C86.1126 107.798 85.862 107.728 85.6113 107.632C85.3607 107.536 85.1214 107.411 84.8936 107.256C84.6657 107.101 84.4697 106.914 84.3057 106.695L85.0781 105.704C85.2103 105.864 85.3516 106 85.502 106.114C85.6569 106.233 85.8141 106.328 85.9736 106.401C86.1331 106.474 86.2949 106.527 86.459 106.559C86.623 106.595 86.7894 106.613 86.958 106.613C87.2497 106.613 87.5072 106.572 87.7305 106.49C87.9583 106.408 88.152 106.29 88.3115 106.135C88.4574 105.984 88.569 105.8 88.6465 105.581C88.7285 105.362 88.7695 105.114 88.7695 104.836V104.323C88.6738 104.424 88.5736 104.517 88.4688 104.604C88.3685 104.69 88.2591 104.765 88.1406 104.829C87.9629 104.929 87.7669 105.005 87.5527 105.055C87.3385 105.109 87.1061 105.137 86.8555 105.137C86.3997 105.137 85.9896 105.043 85.625 104.856C85.2604 104.665 84.9482 104.401 84.6885 104.063C84.4333 103.731 84.235 103.337 84.0938 102.881C83.957 102.421 83.8887 101.924 83.8887 101.391V101.247ZM85.5293 101.391C85.5293 101.719 85.5612 102.029 85.625 102.32C85.6934 102.612 85.8005 102.865 85.9463 103.079C86.0876 103.302 86.2676 103.478 86.4863 103.605C86.7051 103.729 86.9648 103.79 87.2656 103.79C87.4525 103.79 87.6211 103.77 87.7715 103.729C87.9264 103.688 88.0654 103.631 88.1885 103.558C88.3115 103.48 88.4209 103.387 88.5166 103.277C88.6123 103.168 88.6966 103.047 88.7695 102.915V99.6748C88.6966 99.5381 88.6077 99.415 88.5029 99.3057C88.4027 99.1963 88.2865 99.1029 88.1543 99.0254C88.0358 98.9616 87.9036 98.9115 87.7578 98.875C87.612 98.834 87.4525 98.8135 87.2793 98.8135C86.974 98.8135 86.7119 98.8773 86.4932 99.0049C86.2744 99.1325 86.0944 99.3079 85.9531 99.5312C85.8073 99.7546 85.7002 100.014 85.6318 100.311C85.5635 100.602 85.5293 100.914 85.5293 101.247V101.391ZM97.6221 97.4668C97.8864 97.4668 98.1416 97.485 98.3877 97.5215C98.6383 97.5579 98.8343 97.6012 98.9756 97.6514L98.7432 99.2646C98.4925 99.21 98.2441 99.1689 97.998 99.1416C97.7565 99.1143 97.515 99.1006 97.2734 99.1006C97 99.1006 96.7539 99.1279 96.5352 99.1826C96.3164 99.2373 96.1227 99.3216 95.9541 99.4355C95.7718 99.5449 95.6169 99.6839 95.4893 99.8525C95.3617 100.021 95.2546 100.215 95.168 100.434V105H93.5342V97.6035H95.0654L95.1338 98.6289L95.1406 98.7998C95.4414 98.3851 95.8014 98.0592 96.2207 97.8223C96.6445 97.5853 97.1117 97.4668 97.6221 97.4668ZM100.616 101.233C100.616 100.696 100.694 100.199 100.849 99.7432C101.004 99.2829 101.229 98.8841 101.525 98.5469C101.817 98.2096 102.175 97.9453 102.599 97.7539C103.022 97.5625 103.506 97.4668 104.048 97.4668C104.59 97.4668 105.073 97.5625 105.497 97.7539C105.925 97.9453 106.288 98.2096 106.584 98.5469C106.876 98.8841 107.099 99.2829 107.254 99.7432C107.409 100.199 107.486 100.696 107.486 101.233V101.377C107.486 101.919 107.409 102.418 107.254 102.874C107.099 103.33 106.876 103.726 106.584 104.063C106.292 104.401 105.932 104.665 105.504 104.856C105.08 105.048 104.599 105.144 104.062 105.144C103.519 105.144 103.034 105.048 102.605 104.856C102.177 104.665 101.817 104.401 101.525 104.063C101.229 103.726 101.004 103.33 100.849 102.874C100.694 102.418 100.616 101.919 100.616 101.377V101.233ZM102.25 101.377C102.25 101.71 102.284 102.024 102.353 102.32C102.425 102.617 102.537 102.876 102.688 103.1C102.833 103.323 103.02 103.501 103.248 103.633C103.476 103.76 103.747 103.824 104.062 103.824C104.367 103.824 104.633 103.76 104.861 103.633C105.089 103.501 105.276 103.323 105.422 103.1C105.568 102.876 105.675 102.617 105.743 102.32C105.816 102.024 105.853 101.71 105.853 101.377V101.233C105.853 100.91 105.816 100.6 105.743 100.304C105.67 100.007 105.563 99.7477 105.422 99.5244C105.271 99.3011 105.082 99.1234 104.854 98.9912C104.631 98.859 104.362 98.793 104.048 98.793C103.738 98.793 103.469 98.859 103.241 98.9912C103.018 99.1234 102.833 99.3011 102.688 99.5244C102.537 99.7477 102.425 100.007 102.353 100.304C102.284 100.6 102.25 100.91 102.25 101.233V101.377ZM109.94 105L108.512 97.6035H109.988L110.672 102.136L110.788 102.99L110.938 102.136L111.902 97.6035H112.976L113.939 102.122L114.097 103.018L114.227 102.115L114.89 97.6035H116.373L114.944 105H113.557L112.6 100.803L112.429 99.8867L112.265 100.803L111.328 105H109.94ZM119.969 104.016C119.969 103.701 120.069 103.432 120.27 103.209C120.475 102.986 120.769 102.874 121.151 102.874C121.525 102.874 121.817 102.986 122.026 103.209C122.236 103.428 122.341 103.697 122.341 104.016C122.341 104.335 122.234 104.601 122.02 104.815C121.81 105.03 121.521 105.137 121.151 105.137C120.778 105.137 120.486 105.03 120.276 104.815C120.071 104.597 119.969 104.33 119.969 104.016ZM119.969 98.2256C119.969 97.9111 120.069 97.6423 120.27 97.4189C120.475 97.1956 120.769 97.084 121.151 97.084C121.525 97.084 121.817 97.1956 122.026 97.4189C122.236 97.6377 122.341 97.9066 122.341 98.2256C122.341 98.5446 122.234 98.8112 122.02 99.0254C121.81 99.2396 121.521 99.3467 121.151 99.3467C120.778 99.3467 120.486 99.2396 120.276 99.0254C120.071 98.8066 119.969 98.54 119.969 98.2256ZM140.935 101.206C140.935 101.844 140.859 102.409 140.709 102.901C140.563 103.389 140.351 103.797 140.073 104.125C139.8 104.462 139.463 104.717 139.062 104.891C138.665 105.059 138.214 105.144 137.708 105.144C137.207 105.144 136.756 105.059 136.354 104.891C135.953 104.717 135.614 104.462 135.336 104.125C135.053 103.797 134.837 103.389 134.687 102.901C134.541 102.409 134.468 101.844 134.468 101.206V98.8477C134.468 98.2096 134.541 97.6468 134.687 97.1592C134.837 96.667 135.051 96.2523 135.329 95.915C135.607 95.5824 135.944 95.3317 136.341 95.1631C136.742 94.9899 137.193 94.9033 137.694 94.9033C138.2 94.9033 138.651 94.9899 139.048 95.1631C139.449 95.3317 139.791 95.5824 140.073 95.915C140.347 96.2523 140.559 96.667 140.709 97.1592C140.859 97.6468 140.935 98.2096 140.935 98.8477V101.206ZM136.108 100.625L139.273 98.2256C139.255 97.8701 139.205 97.5625 139.123 97.3027C139.046 97.043 138.934 96.8311 138.788 96.667C138.66 96.5212 138.503 96.4118 138.316 96.3389C138.134 96.266 137.927 96.2295 137.694 96.2295C137.444 96.2295 137.223 96.2728 137.031 96.3594C136.84 96.446 136.68 96.5736 136.553 96.7422C136.402 96.9336 136.291 97.182 136.218 97.4873C136.145 97.7881 136.108 98.1436 136.108 98.5537V99.8936C136.108 100.067 136.108 100.199 136.108 100.29C136.108 100.381 136.108 100.493 136.108 100.625ZM139.287 101.479V100.222C139.287 100.108 139.287 99.9893 139.287 99.8662C139.287 99.7432 139.287 99.6156 139.287 99.4834L136.122 101.869C136.145 102.184 136.193 102.462 136.266 102.703C136.343 102.945 136.446 103.145 136.573 103.305C136.701 103.478 136.858 103.608 137.045 103.694C137.236 103.781 137.457 103.824 137.708 103.824C137.954 103.824 138.171 103.783 138.357 103.701C138.544 103.615 138.704 103.489 138.836 103.325C138.986 103.134 139.098 102.883 139.171 102.573C139.248 102.263 139.287 101.899 139.287 101.479ZM144.995 104.016C144.995 103.701 145.095 103.432 145.296 103.209C145.501 102.986 145.795 102.874 146.178 102.874C146.551 102.874 146.843 102.986 147.053 103.209C147.262 103.428 147.367 103.697 147.367 104.016C147.367 104.335 147.26 104.601 147.046 104.815C146.836 105.03 146.547 105.137 146.178 105.137C145.804 105.137 145.512 105.03 145.303 104.815C145.098 104.597 144.995 104.33 144.995 104.016ZM156.247 94.999V96.3867H156.138C155.595 96.3867 155.124 96.4619 154.723 96.6123C154.326 96.7581 153.991 96.9632 153.718 97.2275C153.44 97.4919 153.223 97.8086 153.068 98.1777C152.918 98.5469 152.825 98.9434 152.788 99.3672C152.897 99.2441 153.025 99.1257 153.171 99.0117C153.317 98.8932 153.479 98.7884 153.656 98.6973C153.825 98.6107 154.012 98.5423 154.217 98.4922C154.422 98.4375 154.638 98.4102 154.866 98.4102C155.349 98.4102 155.769 98.5013 156.124 98.6836C156.484 98.8659 156.78 99.112 157.013 99.4219C157.25 99.7318 157.423 100.087 157.532 100.488C157.646 100.889 157.703 101.306 157.703 101.739C157.703 102.213 157.63 102.658 157.484 103.072C157.343 103.482 157.136 103.84 156.862 104.146C156.584 104.455 156.245 104.699 155.844 104.877C155.447 105.05 154.994 105.137 154.483 105.137C153.959 105.137 153.492 105.036 153.082 104.836C152.672 104.635 152.326 104.364 152.043 104.022C151.742 103.667 151.514 103.25 151.359 102.771C151.204 102.288 151.127 101.78 151.127 101.247V100.57C151.127 99.7682 151.229 99.0049 151.435 98.2803C151.644 97.5511 151.991 96.9245 152.474 96.4004C152.884 95.9492 153.39 95.6029 153.991 95.3613C154.593 95.1198 155.281 94.999 156.056 94.999H156.247ZM154.463 99.7363C154.267 99.7363 154.08 99.766 153.902 99.8252C153.725 99.8844 153.561 99.9665 153.41 100.071C153.273 100.176 153.15 100.297 153.041 100.434C152.932 100.57 152.84 100.723 152.768 100.892V101.397C152.768 101.794 152.811 102.143 152.897 102.443C152.989 102.744 153.112 102.995 153.267 103.195C153.422 103.396 153.602 103.549 153.807 103.653C154.012 103.758 154.23 103.811 154.463 103.811C154.718 103.811 154.946 103.76 155.146 103.66C155.347 103.555 155.518 103.414 155.659 103.236C155.8 103.054 155.908 102.84 155.98 102.594C156.053 102.343 156.09 102.072 156.09 101.78C156.09 101.502 156.053 101.24 155.98 100.994C155.912 100.743 155.81 100.525 155.673 100.338C155.536 100.151 155.365 100.005 155.16 99.9004C154.96 99.791 154.727 99.7363 154.463 99.7363Z" fill="#380037"/>
<path d="M180.733 99.9209H174.417V98.5537H180.733V99.9209ZM180.733 102.819H174.417V101.459H180.733V102.819Z" fill="#687A87"/>
<rect x="190.5" y="88.5" width="54" height="23" rx="5.5" fill="#FFEBF7"/>
<rect x="190.5" y="88.5" width="54" height="23" rx="5.5" stroke="#FFADF3"/>
<path d="M201.482 105H199.835V97.0703L197.285 98.0068V96.5645L201.38 95.0469H201.482V105ZM211.661 97.6719C211.661 97.9727 211.611 98.2529 211.511 98.5127C211.415 98.7725 211.278 99.0049 211.101 99.21C210.991 99.3421 210.866 99.4652 210.725 99.5791C210.583 99.693 210.426 99.7933 210.253 99.8799C210.458 99.9756 210.647 100.087 210.82 100.215C210.998 100.338 211.153 100.481 211.285 100.646C211.472 100.864 211.618 101.113 211.723 101.391C211.827 101.669 211.88 101.969 211.88 102.293C211.88 102.753 211.796 103.161 211.627 103.517C211.458 103.872 211.228 104.168 210.937 104.405C210.64 104.647 210.294 104.829 209.897 104.952C209.506 105.075 209.082 105.137 208.626 105.137C208.161 105.137 207.728 105.075 207.327 104.952C206.931 104.829 206.587 104.647 206.295 104.405C205.999 104.168 205.766 103.874 205.598 103.523C205.434 103.168 205.352 102.758 205.352 102.293C205.352 102.02 205.388 101.76 205.461 101.514C205.538 101.268 205.648 101.04 205.789 100.83C205.93 100.63 206.099 100.45 206.295 100.29C206.495 100.126 206.719 99.987 206.965 99.873C206.755 99.7682 206.564 99.6406 206.391 99.4902C206.222 99.3398 206.078 99.1735 205.96 98.9912C205.837 98.8044 205.741 98.5993 205.673 98.376C205.604 98.1527 205.57 97.918 205.57 97.6719C205.57 97.2298 205.646 96.8379 205.796 96.4961C205.951 96.1543 206.163 95.8649 206.432 95.6279C206.696 95.391 207.013 95.2132 207.382 95.0947C207.756 94.9717 208.163 94.9102 208.605 94.9102C209.043 94.9102 209.446 94.9717 209.815 95.0947C210.189 95.2132 210.515 95.391 210.793 95.6279C211.062 95.8604 211.274 96.1497 211.429 96.4961C211.584 96.8379 211.661 97.2298 211.661 97.6719ZM210.246 102.204C210.246 101.958 210.205 101.735 210.123 101.534C210.046 101.329 209.936 101.151 209.795 101.001C209.649 100.86 209.476 100.75 209.275 100.673C209.075 100.595 208.854 100.557 208.612 100.557C208.362 100.557 208.136 100.595 207.936 100.673C207.74 100.75 207.571 100.86 207.43 101.001C207.288 101.151 207.179 101.329 207.102 101.534C207.029 101.735 206.992 101.96 206.992 102.211C206.992 102.466 207.031 102.696 207.108 102.901C207.186 103.102 207.298 103.271 207.443 103.407C207.585 103.539 207.753 103.642 207.949 103.715C208.15 103.783 208.375 103.817 208.626 103.817C208.863 103.817 209.079 103.781 209.275 103.708C209.476 103.635 209.649 103.53 209.795 103.394C209.932 103.252 210.041 103.084 210.123 102.888C210.205 102.687 210.246 102.459 210.246 102.204ZM210.034 97.7334C210.034 97.5101 209.998 97.3073 209.925 97.125C209.856 96.9427 209.761 96.7832 209.638 96.6465C209.51 96.5189 209.36 96.4186 209.187 96.3457C209.013 96.2728 208.817 96.2363 208.599 96.2363C208.384 96.2363 208.191 96.2728 208.018 96.3457C207.849 96.4141 207.703 96.512 207.58 96.6396C207.462 96.7673 207.37 96.9245 207.307 97.1113C207.243 97.2982 207.211 97.5055 207.211 97.7334C207.211 97.9567 207.243 98.1618 207.307 98.3486C207.37 98.5309 207.466 98.6859 207.594 98.8135C207.717 98.9456 207.865 99.0482 208.038 99.1211C208.211 99.194 208.405 99.2305 208.619 99.2305C208.833 99.2305 209.027 99.194 209.2 99.1211C209.373 99.0482 209.521 98.9456 209.645 98.8135C209.768 98.6859 209.863 98.5309 209.932 98.3486C210 98.1618 210.034 97.9567 210.034 97.7334ZM220.295 95.9629L216.316 105H214.594L218.572 96.4141H213.411V95.0469H220.295V95.9629ZM224.321 104.016C224.321 103.701 224.422 103.432 224.622 103.209C224.827 102.986 225.121 102.874 225.504 102.874C225.878 102.874 226.169 102.986 226.379 103.209C226.589 103.428 226.693 103.697 226.693 104.016C226.693 104.335 226.586 104.601 226.372 104.815C226.162 105.03 225.873 105.137 225.504 105.137C225.13 105.137 224.839 105.03 224.629 104.815C224.424 104.597 224.321 104.33 224.321 104.016ZM237.029 105H230.351V103.865L233.591 100.338C233.86 100.042 234.085 99.7773 234.268 99.5449C234.45 99.3079 234.598 99.0915 234.712 98.8955C234.821 98.6995 234.899 98.5173 234.944 98.3486C234.994 98.1755 235.02 98.0023 235.02 97.8291C235.02 97.5967 234.985 97.3848 234.917 97.1934C234.849 97.002 234.748 96.8379 234.616 96.7012C234.484 96.5645 234.325 96.4574 234.138 96.3799C233.955 96.3024 233.75 96.2637 233.522 96.2637C233.231 96.2637 232.978 96.3047 232.764 96.3867C232.549 96.4688 232.372 96.585 232.23 96.7354C232.085 96.8949 231.975 97.0885 231.902 97.3164C231.829 97.5397 231.793 97.7949 231.793 98.082H230.152C230.152 97.6491 230.232 97.2412 230.392 96.8584C230.551 96.471 230.779 96.1338 231.075 95.8467C231.367 95.5596 231.722 95.3317 232.142 95.1631C232.565 94.9945 233.037 94.9102 233.557 94.9102C234.044 94.9102 234.479 94.9808 234.862 95.1221C235.25 95.2633 235.576 95.4593 235.84 95.71C236.1 95.9606 236.298 96.2614 236.435 96.6123C236.571 96.9587 236.64 97.3415 236.64 97.7607C236.64 98.0752 236.587 98.3805 236.482 98.6768C236.382 98.9684 236.243 99.2578 236.065 99.5449C235.883 99.832 235.667 100.121 235.416 100.413C235.17 100.705 234.901 101.006 234.609 101.315L232.395 103.681H237.029V105Z" fill="#380037"/>
<rect x="294" y="88.5" width="129" height="23" rx="5.5" fill="#FFEBF7"/>
<rect x="294" y="88.5" width="129" height="23" rx="5.5" stroke="#FFADF3"/>
<path d="M302.419 105V98.8271H300.437V97.6035H302.419V97.1523C302.419 96.6693 302.492 96.2454 302.638 95.8809C302.788 95.5117 303 95.2018 303.273 94.9512C303.547 94.7051 303.875 94.5182 304.258 94.3906C304.645 94.263 305.078 94.1992 305.557 94.1992C305.725 94.1992 305.889 94.2083 306.049 94.2266C306.213 94.2402 306.372 94.2585 306.527 94.2812C306.655 94.2995 306.785 94.3223 306.917 94.3496C307.049 94.3724 307.184 94.3975 307.32 94.4248L307.19 95.7305C307.008 95.6803 306.801 95.637 306.568 95.6006C306.34 95.5641 306.081 95.5459 305.789 95.5459C305.484 95.5459 305.219 95.5824 304.996 95.6553C304.777 95.7282 304.597 95.8353 304.456 95.9766C304.324 96.1087 304.224 96.2728 304.155 96.4688C304.091 96.6647 304.06 96.8926 304.06 97.1523V97.6035H306.801V98.8271H304.06V105H302.419ZM309.282 94.5H313.268V103.646H315.51V105H309.282V103.646H311.62V95.8604H309.282V94.5ZM320.828 105.137C320.281 105.137 319.78 105.046 319.324 104.863C318.873 104.681 318.486 104.428 318.162 104.104C317.839 103.785 317.588 103.41 317.41 102.977C317.237 102.539 317.15 102.067 317.15 101.562V101.281C317.15 100.702 317.242 100.178 317.424 99.709C317.606 99.2396 317.857 98.8385 318.176 98.5059C318.495 98.1732 318.864 97.918 319.283 97.7402C319.707 97.5579 320.158 97.4668 320.637 97.4668C321.17 97.4668 321.642 97.5579 322.052 97.7402C322.462 97.918 322.806 98.1663 323.084 98.4854C323.362 98.8089 323.572 99.194 323.713 99.6406C323.854 100.087 323.925 100.575 323.925 101.104V101.808H318.798V101.842C318.848 102.165 318.925 102.437 319.03 102.655C319.135 102.874 319.279 103.07 319.461 103.243C319.643 103.425 319.857 103.567 320.104 103.667C320.354 103.767 320.628 103.817 320.924 103.817C321.329 103.817 321.708 103.74 322.059 103.585C322.41 103.425 322.699 103.2 322.927 102.908L323.802 103.756C323.556 104.111 323.177 104.43 322.667 104.713C322.161 104.995 321.548 105.137 320.828 105.137ZM320.63 98.793C320.397 98.793 320.181 98.8363 319.98 98.9229C319.785 99.0049 319.609 99.1234 319.454 99.2783C319.299 99.4378 319.169 99.6292 319.064 99.8525C318.96 100.076 318.882 100.329 318.832 100.611H322.312V100.502C322.312 100.288 322.273 100.076 322.195 99.8662C322.118 99.652 322.008 99.4652 321.867 99.3057C321.73 99.1507 321.557 99.0277 321.348 98.9365C321.143 98.8408 320.903 98.793 320.63 98.793ZM329.031 100.092L330.802 97.6035H332.613L330.016 101.247L332.695 105H330.891L329.045 102.416L327.206 105H325.395L328.074 101.247L325.483 97.6035H327.281L329.031 100.092ZM340.379 101.288H334.876V99.9619H340.379V101.288ZM342.389 101.247C342.389 100.687 342.457 100.176 342.594 99.7158C342.73 99.251 342.929 98.8522 343.188 98.5195C343.448 98.1868 343.76 97.9294 344.125 97.7471C344.494 97.5602 344.909 97.4668 345.369 97.4668C345.643 97.4668 345.891 97.4964 346.114 97.5557C346.338 97.6104 346.54 97.6924 346.723 97.8018C346.841 97.8701 346.953 97.9521 347.058 98.0479C347.162 98.139 347.26 98.2393 347.352 98.3486L347.42 97.6035H348.903V104.795C348.903 105.292 348.821 105.731 348.657 106.114C348.498 106.502 348.272 106.83 347.98 107.099C347.684 107.363 347.329 107.563 346.914 107.7C346.504 107.841 346.05 107.912 345.554 107.912C345.344 107.912 345.114 107.889 344.863 107.844C344.613 107.798 344.362 107.728 344.111 107.632C343.861 107.536 343.621 107.411 343.394 107.256C343.166 107.101 342.97 106.914 342.806 106.695L343.578 105.704C343.71 105.864 343.852 106 344.002 106.114C344.157 106.233 344.314 106.328 344.474 106.401C344.633 106.474 344.795 106.527 344.959 106.559C345.123 106.595 345.289 106.613 345.458 106.613C345.75 106.613 346.007 106.572 346.23 106.49C346.458 106.408 346.652 106.29 346.812 106.135C346.957 105.984 347.069 105.8 347.146 105.581C347.229 105.362 347.27 105.114 347.27 104.836V104.323C347.174 104.424 347.074 104.517 346.969 104.604C346.868 104.69 346.759 104.765 346.641 104.829C346.463 104.929 346.267 105.005 346.053 105.055C345.839 105.109 345.606 105.137 345.355 105.137C344.9 105.137 344.49 105.043 344.125 104.856C343.76 104.665 343.448 104.401 343.188 104.063C342.933 103.731 342.735 103.337 342.594 102.881C342.457 102.421 342.389 101.924 342.389 101.391V101.247ZM344.029 101.391C344.029 101.719 344.061 102.029 344.125 102.32C344.193 102.612 344.3 102.865 344.446 103.079C344.588 103.302 344.768 103.478 344.986 103.605C345.205 103.729 345.465 103.79 345.766 103.79C345.952 103.79 346.121 103.77 346.271 103.729C346.426 103.688 346.565 103.631 346.688 103.558C346.812 103.48 346.921 103.387 347.017 103.277C347.112 103.168 347.197 103.047 347.27 102.915V99.6748C347.197 99.5381 347.108 99.415 347.003 99.3057C346.903 99.1963 346.786 99.1029 346.654 99.0254C346.536 98.9616 346.404 98.9115 346.258 98.875C346.112 98.834 345.952 98.8135 345.779 98.8135C345.474 98.8135 345.212 98.8773 344.993 99.0049C344.774 99.1325 344.594 99.3079 344.453 99.5312C344.307 99.7546 344.2 100.014 344.132 100.311C344.063 100.602 344.029 100.914 344.029 101.247V101.391ZM356.122 97.4668C356.386 97.4668 356.642 97.485 356.888 97.5215C357.138 97.5579 357.334 97.6012 357.476 97.6514L357.243 99.2646C356.993 99.21 356.744 99.1689 356.498 99.1416C356.257 99.1143 356.015 99.1006 355.773 99.1006C355.5 99.1006 355.254 99.1279 355.035 99.1826C354.816 99.2373 354.623 99.3216 354.454 99.4355C354.272 99.5449 354.117 99.6839 353.989 99.8525C353.862 100.021 353.755 100.215 353.668 100.434V105H352.034V97.6035H353.565L353.634 98.6289L353.641 98.7998C353.941 98.3851 354.301 98.0592 354.721 97.8223C355.145 97.5853 355.612 97.4668 356.122 97.4668ZM359.116 101.233C359.116 100.696 359.194 100.199 359.349 99.7432C359.504 99.2829 359.729 98.8841 360.025 98.5469C360.317 98.2096 360.675 97.9453 361.099 97.7539C361.522 97.5625 362.006 97.4668 362.548 97.4668C363.09 97.4668 363.573 97.5625 363.997 97.7539C364.425 97.9453 364.788 98.2096 365.084 98.5469C365.376 98.8841 365.599 99.2829 365.754 99.7432C365.909 100.199 365.986 100.696 365.986 101.233V101.377C365.986 101.919 365.909 102.418 365.754 102.874C365.599 103.33 365.376 103.726 365.084 104.063C364.792 104.401 364.432 104.665 364.004 104.856C363.58 105.048 363.099 105.144 362.562 105.144C362.019 105.144 361.534 105.048 361.105 104.856C360.677 104.665 360.317 104.401 360.025 104.063C359.729 103.726 359.504 103.33 359.349 102.874C359.194 102.418 359.116 101.919 359.116 101.377V101.233ZM360.75 101.377C360.75 101.71 360.784 102.024 360.853 102.32C360.925 102.617 361.037 102.876 361.188 103.1C361.333 103.323 361.52 103.501 361.748 103.633C361.976 103.76 362.247 103.824 362.562 103.824C362.867 103.824 363.133 103.76 363.361 103.633C363.589 103.501 363.776 103.323 363.922 103.1C364.068 102.876 364.175 102.617 364.243 102.32C364.316 102.024 364.353 101.71 364.353 101.377V101.233C364.353 100.91 364.316 100.6 364.243 100.304C364.17 100.007 364.063 99.7477 363.922 99.5244C363.771 99.3011 363.582 99.1234 363.354 98.9912C363.131 98.859 362.862 98.793 362.548 98.793C362.238 98.793 361.969 98.859 361.741 98.9912C361.518 99.1234 361.333 99.3011 361.188 99.5244C361.037 99.7477 360.925 100.007 360.853 100.304C360.784 100.6 360.75 100.91 360.75 101.233V101.377ZM368.44 105L367.012 97.6035H368.488L369.172 102.136L369.288 102.99L369.438 102.136L370.402 97.6035H371.476L372.439 102.122L372.597 103.018L372.727 102.115L373.39 97.6035H374.873L373.444 105H372.057L371.1 100.803L370.929 99.8867L370.765 100.803L369.828 105H368.44ZM378.469 104.016C378.469 103.701 378.569 103.432 378.77 103.209C378.975 102.986 379.269 102.874 379.651 102.874C380.025 102.874 380.317 102.986 380.526 103.209C380.736 103.428 380.841 103.697 380.841 104.016C380.841 104.335 380.734 104.601 380.52 104.815C380.31 105.03 380.021 105.137 379.651 105.137C379.278 105.137 378.986 105.03 378.776 104.815C378.571 104.597 378.469 104.33 378.469 104.016ZM378.469 98.2256C378.469 97.9111 378.569 97.6423 378.77 97.4189C378.975 97.1956 379.269 97.084 379.651 97.084C380.025 97.084 380.317 97.1956 380.526 97.4189C380.736 97.6377 380.841 97.9066 380.841 98.2256C380.841 98.5446 380.734 98.8112 380.52 99.0254C380.31 99.2396 380.021 99.3467 379.651 99.3467C379.278 99.3467 378.986 99.2396 378.776 99.0254C378.571 98.8066 378.469 98.54 378.469 98.2256ZM399.435 101.206C399.435 101.844 399.359 102.409 399.209 102.901C399.063 103.389 398.851 103.797 398.573 104.125C398.3 104.462 397.963 104.717 397.562 104.891C397.165 105.059 396.714 105.144 396.208 105.144C395.707 105.144 395.256 105.059 394.854 104.891C394.453 104.717 394.114 104.462 393.836 104.125C393.553 103.797 393.337 103.389 393.187 102.901C393.041 102.409 392.968 101.844 392.968 101.206V98.8477C392.968 98.2096 393.041 97.6468 393.187 97.1592C393.337 96.667 393.551 96.2523 393.829 95.915C394.107 95.5824 394.444 95.3317 394.841 95.1631C395.242 94.9899 395.693 94.9033 396.194 94.9033C396.7 94.9033 397.151 94.9899 397.548 95.1631C397.949 95.3317 398.291 95.5824 398.573 95.915C398.847 96.2523 399.059 96.667 399.209 97.1592C399.359 97.6468 399.435 98.2096 399.435 98.8477V101.206ZM394.608 100.625L397.773 98.2256C397.755 97.8701 397.705 97.5625 397.623 97.3027C397.546 97.043 397.434 96.8311 397.288 96.667C397.16 96.5212 397.003 96.4118 396.816 96.3389C396.634 96.266 396.427 96.2295 396.194 96.2295C395.944 96.2295 395.723 96.2728 395.531 96.3594C395.34 96.446 395.18 96.5736 395.053 96.7422C394.902 96.9336 394.791 97.182 394.718 97.4873C394.645 97.7881 394.608 98.1436 394.608 98.5537V99.8936C394.608 100.067 394.608 100.199 394.608 100.29C394.608 100.381 394.608 100.493 394.608 100.625ZM397.787 101.479V100.222C397.787 100.108 397.787 99.9893 397.787 99.8662C397.787 99.7432 397.787 99.6156 397.787 99.4834L394.622 101.869C394.645 102.184 394.693 102.462 394.766 102.703C394.843 102.945 394.946 103.145 395.073 103.305C395.201 103.478 395.358 103.608 395.545 103.694C395.736 103.781 395.957 103.824 396.208 103.824C396.454 103.824 396.671 103.783 396.857 103.701C397.044 103.615 397.204 103.489 397.336 103.325C397.486 103.134 397.598 102.883 397.671 102.573C397.748 102.263 397.787 101.899 397.787 101.479ZM403.495 104.016C403.495 103.701 403.595 103.432 403.796 103.209C404.001 102.986 404.295 102.874 404.678 102.874C405.051 102.874 405.343 102.986 405.553 103.209C405.762 103.428 405.867 103.697 405.867 104.016C405.867 104.335 405.76 104.601 405.546 104.815C405.336 105.03 405.047 105.137 404.678 105.137C404.304 105.137 404.012 105.03 403.803 104.815C403.598 104.597 403.495 104.33 403.495 104.016ZM415.239 101.452H416.49V102.778H415.239V105H413.605V102.778H409.299L409.258 101.773L413.558 95.0469H415.239V101.452ZM410.926 101.452H413.605V97.2344L413.414 97.5898L410.926 101.452Z" fill="#380037"/>
<path d="M439.233 99.9209H432.917V98.5537H439.233V99.9209ZM439.233 102.819H432.917V101.459H439.233V102.819Z" fill="#687A87"/>
<rect x="449" y="88.5" width="54" height="23" rx="5.5" fill="#FFEBF7"/>
<rect x="449" y="88.5" width="54" height="23" rx="5.5" stroke="#FFADF3"/>
<path d="M459.982 105H458.335V97.0703L455.785 98.0068V96.5645L459.88 95.0469H459.982V105ZM470.305 105H463.626V103.865L466.866 100.338C467.135 100.042 467.361 99.7773 467.543 99.5449C467.725 99.3079 467.873 99.0915 467.987 98.8955C468.097 98.6995 468.174 98.5173 468.22 98.3486C468.27 98.1755 468.295 98.0023 468.295 97.8291C468.295 97.5967 468.261 97.3848 468.192 97.1934C468.124 97.002 468.024 96.8379 467.892 96.7012C467.759 96.5645 467.6 96.4574 467.413 96.3799C467.231 96.3024 467.026 96.2637 466.798 96.2637C466.506 96.2637 466.253 96.3047 466.039 96.3867C465.825 96.4688 465.647 96.585 465.506 96.7354C465.36 96.8949 465.251 97.0885 465.178 97.3164C465.105 97.5397 465.068 97.7949 465.068 98.082H463.428C463.428 97.6491 463.507 97.2412 463.667 96.8584C463.826 96.471 464.054 96.1338 464.351 95.8467C464.642 95.5596 464.998 95.3317 465.417 95.1631C465.841 94.9945 466.312 94.9102 466.832 94.9102C467.32 94.9102 467.755 94.9808 468.138 95.1221C468.525 95.2633 468.851 95.4593 469.115 95.71C469.375 95.9606 469.573 96.2614 469.71 96.6123C469.847 96.9587 469.915 97.3415 469.915 97.7607C469.915 98.0752 469.863 98.3805 469.758 98.6768C469.658 98.9684 469.519 99.2578 469.341 99.5449C469.159 99.832 468.942 100.121 468.691 100.413C468.445 100.705 468.176 101.006 467.885 101.315L465.67 103.681H470.305V105ZM477.749 101.452H479V102.778H477.749V105H476.115V102.778H471.809L471.768 101.773L476.067 95.0469H477.749V101.452ZM473.436 101.452H476.115V97.2344L475.924 97.5898L473.436 101.452ZM482.821 104.016C482.821 103.701 482.922 103.432 483.122 103.209C483.327 102.986 483.621 102.874 484.004 102.874C484.378 102.874 484.669 102.986 484.879 103.209C485.089 103.428 485.193 103.697 485.193 104.016C485.193 104.335 485.086 104.601 484.872 104.815C484.662 105.03 484.373 105.137 484.004 105.137C483.63 105.137 483.339 105.03 483.129 104.815C482.924 104.597 482.821 104.33 482.821 104.016ZM495.386 97.6719C495.386 97.9727 495.336 98.2529 495.235 98.5127C495.14 98.7725 495.003 99.0049 494.825 99.21C494.716 99.3421 494.59 99.4652 494.449 99.5791C494.308 99.693 494.151 99.7933 493.978 99.8799C494.183 99.9756 494.372 100.087 494.545 100.215C494.723 100.338 494.878 100.481 495.01 100.646C495.197 100.864 495.342 101.113 495.447 101.391C495.552 101.669 495.604 101.969 495.604 102.293C495.604 102.753 495.52 103.161 495.352 103.517C495.183 103.872 494.953 104.168 494.661 104.405C494.365 104.647 494.019 104.829 493.622 104.952C493.23 105.075 492.806 105.137 492.351 105.137C491.886 105.137 491.453 105.075 491.052 104.952C490.655 104.829 490.311 104.647 490.02 104.405C489.723 104.168 489.491 103.874 489.322 103.523C489.158 103.168 489.076 102.758 489.076 102.293C489.076 102.02 489.113 101.76 489.186 101.514C489.263 101.268 489.372 101.04 489.514 100.83C489.655 100.63 489.824 100.45 490.02 100.29C490.22 100.126 490.443 99.987 490.689 99.873C490.48 99.7682 490.288 99.6406 490.115 99.4902C489.947 99.3398 489.803 99.1735 489.685 98.9912C489.562 98.8044 489.466 98.5993 489.397 98.376C489.329 98.1527 489.295 97.918 489.295 97.6719C489.295 97.2298 489.37 96.8379 489.521 96.4961C489.675 96.1543 489.887 95.8649 490.156 95.6279C490.421 95.391 490.737 95.2132 491.106 95.0947C491.48 94.9717 491.888 94.9102 492.33 94.9102C492.768 94.9102 493.171 94.9717 493.54 95.0947C493.914 95.2132 494.24 95.391 494.518 95.6279C494.786 95.8604 494.998 96.1497 495.153 96.4961C495.308 96.8379 495.386 97.2298 495.386 97.6719ZM493.971 102.204C493.971 101.958 493.93 101.735 493.848 101.534C493.77 101.329 493.661 101.151 493.52 101.001C493.374 100.86 493.201 100.75 493 100.673C492.799 100.595 492.578 100.557 492.337 100.557C492.086 100.557 491.861 100.595 491.66 100.673C491.464 100.75 491.296 100.86 491.154 101.001C491.013 101.151 490.904 101.329 490.826 101.534C490.753 101.735 490.717 101.96 490.717 102.211C490.717 102.466 490.756 102.696 490.833 102.901C490.91 103.102 491.022 103.271 491.168 103.407C491.309 103.539 491.478 103.642 491.674 103.715C491.874 103.783 492.1 103.817 492.351 103.817C492.588 103.817 492.804 103.781 493 103.708C493.201 103.635 493.374 103.53 493.52 103.394C493.656 103.252 493.766 103.084 493.848 102.888C493.93 102.687 493.971 102.459 493.971 102.204ZM493.759 97.7334C493.759 97.5101 493.722 97.3073 493.649 97.125C493.581 96.9427 493.485 96.7832 493.362 96.6465C493.235 96.5189 493.084 96.4186 492.911 96.3457C492.738 96.2728 492.542 96.2363 492.323 96.2363C492.109 96.2363 491.915 96.2728 491.742 96.3457C491.574 96.4141 491.428 96.512 491.305 96.6396C491.186 96.7673 491.095 96.9245 491.031 97.1113C490.967 97.2982 490.936 97.5055 490.936 97.7334C490.936 97.9567 490.967 98.1618 491.031 98.3486C491.095 98.5309 491.191 98.6859 491.318 98.8135C491.441 98.9456 491.59 99.0482 491.763 99.1211C491.936 99.194 492.13 99.2305 492.344 99.2305C492.558 99.2305 492.752 99.194 492.925 99.1211C493.098 99.0482 493.246 98.9456 493.369 98.8135C493.492 98.6859 493.588 98.5309 493.656 98.3486C493.725 98.1618 493.759 97.9567 493.759 97.7334Z" fill="#380037"/>
<defs>
<clipPath id="clip0_8042_4241">
<rect width="720" height="72" rx="2" fill="white"/>
</clipPath>
</defs>
</svg>
