<svg width="720" height="72" viewBox="0 0 720 72" fill="none" xmlns="http://www.w3.org/2000/svg">
<g clip-path="url(#clip0_8027_64772)">
<rect width="720" height="72" rx="2" fill="#87CEFF"/>
<rect x="0.5" y="0.5" width="236.333" height="71" rx="1.5" fill="white"/>
<rect x="0.5" y="0.5" width="236.333" height="71" rx="1.5" stroke="#001E2E" stroke-linecap="square" stroke-dasharray="6 6"/>
<rect width="12" height="24" transform="translate(112.667 24)" fill="white"/>
<path d="M119.962 29.8636V41.5H118.553V31.3409H118.485L115.644 33.2273V31.7955L118.553 29.8636H119.962Z" fill="#0B1D28"/>
<rect x="241.833" y="0.5" width="236.333" height="71" rx="1.5" fill="white"/>
<rect x="241.833" y="0.5" width="236.333" height="71" rx="1.5" stroke="#001E2E" stroke-linecap="square" stroke-dasharray="6 6"/>
<rect width="10" height="24" transform="translate(355 24)" fill="white"/>
<path d="M356.205 41.5V40.4773L360.045 36.2727C360.496 35.7803 360.867 35.3523 361.159 34.9886C361.451 34.6212 361.667 34.2765 361.807 33.9545C361.951 33.6288 362.023 33.2879 362.023 32.9318C362.023 32.5227 361.924 32.1686 361.727 31.8693C361.534 31.5701 361.269 31.339 360.932 31.1761C360.595 31.0133 360.216 30.9318 359.795 30.9318C359.348 30.9318 358.958 31.0246 358.625 31.2102C358.295 31.392 358.04 31.6477 357.858 31.9773C357.68 32.3068 357.591 32.6932 357.591 33.1364H356.25C356.25 32.4545 356.407 31.8561 356.722 31.3409C357.036 30.8258 357.464 30.4242 358.006 30.1364C358.551 29.8485 359.163 29.7045 359.841 29.7045C360.523 29.7045 361.127 29.8485 361.653 30.1364C362.18 30.4242 362.593 30.8125 362.892 31.3011C363.191 31.7898 363.341 32.3333 363.341 32.9318C363.341 33.3598 363.263 33.7784 363.108 34.1875C362.956 34.5928 362.691 35.0455 362.312 35.5455C361.938 36.0417 361.417 36.6477 360.75 37.3636L358.136 40.1591V40.25H363.545V41.5H356.205Z" fill="#0B1D28"/>
<rect x="483.167" y="0.5" width="236.333" height="71" rx="1.5" fill="white"/>
<rect x="483.167" y="0.5" width="236.333" height="71" rx="1.5" stroke="#001E2E" stroke-linecap="square" stroke-dasharray="6 6"/>
<rect width="11" height="24" transform="translate(595.833 24)" fill="white"/>
<path d="M600.969 41.6591C600.219 41.6591 599.551 41.5303 598.964 41.2727C598.38 41.0152 597.916 40.6572 597.572 40.1989C597.231 39.7367 597.045 39.2008 597.015 38.5909H598.447C598.477 38.9659 598.606 39.2898 598.833 39.5625C599.06 39.8314 599.358 40.0398 599.725 40.1875C600.092 40.3352 600.5 40.4091 600.947 40.4091C601.447 40.4091 601.89 40.322 602.276 40.1477C602.663 39.9735 602.966 39.7311 603.185 39.4205C603.405 39.1098 603.515 38.75 603.515 38.3409C603.515 37.9129 603.409 37.536 603.197 37.2102C602.985 36.8807 602.674 36.6231 602.265 36.4375C601.856 36.2519 601.356 36.1591 600.765 36.1591H599.833V34.9091H600.765C601.227 34.9091 601.632 34.8258 601.981 34.6591C602.333 34.4924 602.608 34.2576 602.805 33.9545C603.005 33.6515 603.106 33.2955 603.106 32.8864C603.106 32.4924 603.019 32.1496 602.844 31.858C602.67 31.5663 602.424 31.339 602.106 31.1761C601.791 31.0133 601.42 30.9318 600.992 30.9318C600.591 30.9318 600.212 31.0057 599.856 31.1534C599.503 31.2973 599.216 31.5076 598.992 31.7841C598.769 32.0568 598.647 32.3864 598.628 32.7727H597.265C597.288 32.1629 597.471 31.6288 597.816 31.1705C598.161 30.7083 598.611 30.3485 599.168 30.0909C599.729 29.8333 600.344 29.7045 601.015 29.7045C601.735 29.7045 602.352 29.8504 602.867 30.142C603.382 30.4299 603.778 30.8106 604.055 31.2841C604.331 31.7576 604.469 32.2689 604.469 32.8182C604.469 33.4735 604.297 34.0322 603.952 34.4943C603.611 34.9564 603.147 35.2765 602.56 35.4545V35.5455C603.295 35.6667 603.869 35.9792 604.282 36.483C604.695 36.983 604.901 37.6023 604.901 38.3409C604.901 38.9735 604.729 39.5417 604.384 40.0455C604.043 40.5455 603.577 40.9394 602.986 41.2273C602.396 41.5152 601.723 41.6591 600.969 41.6591Z" fill="#0B1D28"/>
</g>
<rect x="0.5" y="0.5" width="719" height="71" rx="1.5" stroke="#006590"/>
<defs>
<clipPath id="clip0_8027_64772">
<rect width="720" height="72" rx="2" fill="white"/>
</clipPath>
</defs>
</svg>
