<svg width="720" height="72" viewBox="0 0 720 72" fill="none" xmlns="http://www.w3.org/2000/svg">
<g clip-path="url(#clip0_8029_66042)">
<rect width="720" height="72" rx="2" fill="#87CEFF"/>
<rect x="0.5" y="0.5" width="177" height="71" rx="1.5" fill="white"/>
<rect x="0.5" y="0.5" width="177" height="71" rx="1.5" stroke="#001E2E" stroke-linecap="square" stroke-dasharray="6 6"/>
<rect width="12" height="24" transform="translate(83 24)" fill="white"/>
<path d="M90.2955 29.8636V41.5H88.8864V31.3409H88.8182L85.9773 33.2273V31.7955L88.8864 29.8636H90.2955Z" fill="#0B1D28"/>
<rect x="182.5" y="0.5" width="355" height="71" rx="1.5" fill="white"/>
<rect x="182.5" y="0.5" width="355" height="71" rx="1.5" stroke="#001E2E" stroke-linecap="square" stroke-dasharray="6 6"/>
<rect x="297.5" y="22.5" width="125" height="27" rx="7.5" fill="#FFEBF7"/>
<rect x="297.5" y="22.5" width="125" height="27" rx="7.5" stroke="#FFADF3"/>
<path d="M307.919 41V34.8271H305.937V33.6035H307.919V33.1523C307.919 32.6693 307.992 32.2454 308.138 31.8809C308.288 31.5117 308.5 31.2018 308.773 30.9512C309.047 30.7051 309.375 30.5182 309.758 30.3906C310.145 30.263 310.578 30.1992 311.057 30.1992C311.225 30.1992 311.389 30.2083 311.549 30.2266C311.713 30.2402 311.872 30.2585 312.027 30.2812C312.155 30.2995 312.285 30.3223 312.417 30.3496C312.549 30.3724 312.684 30.3975 312.82 30.4248L312.69 31.7305C312.508 31.6803 312.301 31.637 312.068 31.6006C311.84 31.5641 311.581 31.5459 311.289 31.5459C310.984 31.5459 310.719 31.5824 310.496 31.6553C310.277 31.7282 310.097 31.8353 309.956 31.9766C309.824 32.1087 309.724 32.2728 309.655 32.4688C309.591 32.6647 309.56 32.8926 309.56 33.1523V33.6035H312.301V34.8271H309.56V41H307.919ZM314.782 30.5H318.768V39.6465H321.01V41H314.782V39.6465H317.12V31.8604H314.782V30.5ZM326.328 41.1367C325.781 41.1367 325.28 41.0456 324.824 40.8633C324.373 40.681 323.986 40.4281 323.662 40.1045C323.339 39.7855 323.088 39.4095 322.91 38.9766C322.737 38.5391 322.65 38.0674 322.65 37.5615V37.2812C322.65 36.7025 322.742 36.1784 322.924 35.709C323.106 35.2396 323.357 34.8385 323.676 34.5059C323.995 34.1732 324.364 33.918 324.783 33.7402C325.207 33.5579 325.658 33.4668 326.137 33.4668C326.67 33.4668 327.142 33.5579 327.552 33.7402C327.962 33.918 328.306 34.1663 328.584 34.4854C328.862 34.8089 329.072 35.194 329.213 35.6406C329.354 36.0872 329.425 36.5749 329.425 37.1035V37.8076H324.298V37.8418C324.348 38.1654 324.425 38.4365 324.53 38.6553C324.635 38.874 324.779 39.07 324.961 39.2432C325.143 39.4255 325.357 39.5667 325.604 39.667C325.854 39.7673 326.128 39.8174 326.424 39.8174C326.829 39.8174 327.208 39.7399 327.559 39.585C327.91 39.4255 328.199 39.1999 328.427 38.9082L329.302 39.7559C329.056 40.1113 328.677 40.4303 328.167 40.7129C327.661 40.9954 327.048 41.1367 326.328 41.1367ZM326.13 34.793C325.897 34.793 325.681 34.8363 325.48 34.9229C325.285 35.0049 325.109 35.1234 324.954 35.2783C324.799 35.4378 324.669 35.6292 324.564 35.8525C324.46 36.0758 324.382 36.3288 324.332 36.6113H327.812V36.502C327.812 36.2878 327.773 36.0758 327.695 35.8662C327.618 35.652 327.508 35.4652 327.367 35.3057C327.23 35.1507 327.057 35.0277 326.848 34.9365C326.643 34.8408 326.403 34.793 326.13 34.793ZM334.531 36.0918L336.302 33.6035H338.113L335.516 37.2471L338.195 41H336.391L334.545 38.416L332.706 41H330.895L333.574 37.2471L330.983 33.6035H332.781L334.531 36.0918ZM345.879 37.2881H340.376V35.9619H345.879V37.2881ZM347.889 37.2471C347.889 36.6865 347.957 36.1761 348.094 35.7158C348.23 35.251 348.429 34.8522 348.688 34.5195C348.948 34.1868 349.26 33.9294 349.625 33.7471C349.994 33.5602 350.409 33.4668 350.869 33.4668C351.143 33.4668 351.391 33.4964 351.614 33.5557C351.838 33.6104 352.04 33.6924 352.223 33.8018C352.341 33.8701 352.453 33.9521 352.558 34.0479C352.662 34.139 352.76 34.2393 352.852 34.3486L352.92 33.6035H354.403V40.7949C354.403 41.2917 354.321 41.7314 354.157 42.1143C353.998 42.5016 353.772 42.8298 353.48 43.0986C353.184 43.363 352.829 43.5635 352.414 43.7002C352.004 43.8415 351.55 43.9121 351.054 43.9121C350.844 43.9121 350.614 43.8893 350.363 43.8438C350.113 43.7982 349.862 43.7275 349.611 43.6318C349.361 43.5361 349.121 43.4108 348.894 43.2559C348.666 43.1009 348.47 42.9141 348.306 42.6953L349.078 41.7041C349.21 41.8636 349.352 42.0003 349.502 42.1143C349.657 42.2327 349.814 42.3285 349.974 42.4014C350.133 42.4743 350.295 42.5267 350.459 42.5586C350.623 42.5951 350.789 42.6133 350.958 42.6133C351.25 42.6133 351.507 42.5723 351.73 42.4902C351.958 42.4082 352.152 42.2897 352.312 42.1348C352.457 41.9844 352.569 41.7998 352.646 41.5811C352.729 41.3623 352.77 41.1139 352.77 40.8359V40.3232C352.674 40.4235 352.574 40.5169 352.469 40.6035C352.368 40.6901 352.259 40.7653 352.141 40.8291C351.963 40.9294 351.767 41.0046 351.553 41.0547C351.339 41.1094 351.106 41.1367 350.855 41.1367C350.4 41.1367 349.99 41.0433 349.625 40.8564C349.26 40.665 348.948 40.4007 348.688 40.0635C348.433 39.7308 348.235 39.3366 348.094 38.8809C347.957 38.4206 347.889 37.9238 347.889 37.3906V37.2471ZM349.529 37.3906C349.529 37.7188 349.561 38.0286 349.625 38.3203C349.693 38.612 349.8 38.8649 349.946 39.0791C350.088 39.3024 350.268 39.4779 350.486 39.6055C350.705 39.7285 350.965 39.79 351.266 39.79C351.452 39.79 351.621 39.7695 351.771 39.7285C351.926 39.6875 352.065 39.6305 352.188 39.5576C352.312 39.4801 352.421 39.3867 352.517 39.2773C352.612 39.168 352.697 39.0472 352.77 38.915V35.6748C352.697 35.5381 352.608 35.415 352.503 35.3057C352.403 35.1963 352.286 35.1029 352.154 35.0254C352.036 34.9616 351.904 34.9115 351.758 34.875C351.612 34.834 351.452 34.8135 351.279 34.8135C350.974 34.8135 350.712 34.8773 350.493 35.0049C350.274 35.1325 350.094 35.3079 349.953 35.5312C349.807 35.7546 349.7 36.0143 349.632 36.3105C349.563 36.6022 349.529 36.9144 349.529 37.2471V37.3906ZM361.622 33.4668C361.886 33.4668 362.142 33.485 362.388 33.5215C362.638 33.5579 362.834 33.6012 362.976 33.6514L362.743 35.2646C362.493 35.21 362.244 35.1689 361.998 35.1416C361.757 35.1143 361.515 35.1006 361.273 35.1006C361 35.1006 360.754 35.1279 360.535 35.1826C360.316 35.2373 360.123 35.3216 359.954 35.4355C359.772 35.5449 359.617 35.6839 359.489 35.8525C359.362 36.0212 359.255 36.2148 359.168 36.4336V41H357.534V33.6035H359.065L359.134 34.6289L359.141 34.7998C359.441 34.3851 359.801 34.0592 360.221 33.8223C360.645 33.5853 361.112 33.4668 361.622 33.4668ZM364.616 37.2334C364.616 36.6956 364.694 36.1989 364.849 35.7432C365.004 35.2829 365.229 34.8841 365.525 34.5469C365.817 34.2096 366.175 33.9453 366.599 33.7539C367.022 33.5625 367.506 33.4668 368.048 33.4668C368.59 33.4668 369.073 33.5625 369.497 33.7539C369.925 33.9453 370.288 34.2096 370.584 34.5469C370.876 34.8841 371.099 35.2829 371.254 35.7432C371.409 36.1989 371.486 36.6956 371.486 37.2334V37.377C371.486 37.9193 371.409 38.4183 371.254 38.874C371.099 39.3298 370.876 39.7262 370.584 40.0635C370.292 40.4007 369.932 40.665 369.504 40.8564C369.08 41.0479 368.599 41.1436 368.062 41.1436C367.519 41.1436 367.034 41.0479 366.605 40.8564C366.177 40.665 365.817 40.4007 365.525 40.0635C365.229 39.7262 365.004 39.3298 364.849 38.874C364.694 38.4183 364.616 37.9193 364.616 37.377V37.2334ZM366.25 37.377C366.25 37.7096 366.284 38.0241 366.353 38.3203C366.425 38.6165 366.537 38.8763 366.688 39.0996C366.833 39.3229 367.02 39.5007 367.248 39.6328C367.476 39.7604 367.747 39.8242 368.062 39.8242C368.367 39.8242 368.633 39.7604 368.861 39.6328C369.089 39.5007 369.276 39.3229 369.422 39.0996C369.568 38.8763 369.675 38.6165 369.743 38.3203C369.816 38.0241 369.853 37.7096 369.853 37.377V37.2334C369.853 36.9098 369.816 36.5999 369.743 36.3037C369.67 36.0075 369.563 35.7477 369.422 35.5244C369.271 35.3011 369.082 35.1234 368.854 34.9912C368.631 34.859 368.362 34.793 368.048 34.793C367.738 34.793 367.469 34.859 367.241 34.9912C367.018 35.1234 366.833 35.3011 366.688 35.5244C366.537 35.7477 366.425 36.0075 366.353 36.3037C366.284 36.5999 366.25 36.9098 366.25 37.2334V37.377ZM373.94 41L372.512 33.6035H373.988L374.672 38.1357L374.788 38.9902L374.938 38.1357L375.902 33.6035H376.976L377.939 38.1221L378.097 39.0176L378.227 38.1152L378.89 33.6035H380.373L378.944 41H377.557L376.6 36.8027L376.429 35.8867L376.265 36.8027L375.328 41H373.94ZM383.969 40.0156C383.969 39.7012 384.069 39.4323 384.27 39.209C384.475 38.9857 384.769 38.874 385.151 38.874C385.525 38.874 385.817 38.9857 386.026 39.209C386.236 39.4277 386.341 39.6966 386.341 40.0156C386.341 40.3346 386.234 40.6012 386.02 40.8154C385.81 41.0296 385.521 41.1367 385.151 41.1367C384.778 41.1367 384.486 41.0296 384.276 40.8154C384.071 40.5967 383.969 40.3301 383.969 40.0156ZM383.969 34.2256C383.969 33.9111 384.069 33.6423 384.27 33.4189C384.475 33.1956 384.769 33.084 385.151 33.084C385.525 33.084 385.817 33.1956 386.026 33.4189C386.236 33.6377 386.341 33.9066 386.341 34.2256C386.341 34.5446 386.234 34.8112 386.02 35.0254C385.81 35.2396 385.521 35.3467 385.151 35.3467C384.778 35.3467 384.486 35.2396 384.276 35.0254C384.071 34.8066 383.969 34.54 383.969 34.2256ZM404.887 41H398.208V39.8652L401.448 36.3379C401.717 36.0417 401.943 35.7773 402.125 35.5449C402.307 35.3079 402.455 35.0915 402.569 34.8955C402.679 34.6995 402.756 34.5173 402.802 34.3486C402.852 34.1755 402.877 34.0023 402.877 33.8291C402.877 33.5967 402.843 33.3848 402.774 33.1934C402.706 33.002 402.606 32.8379 402.474 32.7012C402.341 32.5645 402.182 32.4574 401.995 32.3799C401.813 32.3024 401.608 32.2637 401.38 32.2637C401.088 32.2637 400.835 32.3047 400.621 32.3867C400.407 32.4688 400.229 32.585 400.088 32.7354C399.942 32.8949 399.833 33.0885 399.76 33.3164C399.687 33.5397 399.65 33.7949 399.65 34.082H398.01C398.01 33.6491 398.09 33.2412 398.249 32.8584C398.409 32.471 398.636 32.1338 398.933 31.8467C399.224 31.5596 399.58 31.3317 399.999 31.1631C400.423 30.9945 400.895 30.9102 401.414 30.9102C401.902 30.9102 402.337 30.9808 402.72 31.1221C403.107 31.2633 403.433 31.4593 403.697 31.71C403.957 31.9606 404.155 32.2614 404.292 32.6123C404.429 32.9587 404.497 33.3415 404.497 33.7607C404.497 34.0752 404.445 34.3805 404.34 34.6768C404.24 34.9684 404.101 35.2578 403.923 35.5449C403.741 35.832 403.524 36.1214 403.273 36.4131C403.027 36.7048 402.758 37.0055 402.467 37.3154L400.252 39.6807H404.887V41ZM409.323 34.2256C409.323 33.9111 409.424 33.6423 409.624 33.4189C409.829 33.1956 410.123 33.084 410.506 33.084C410.88 33.084 411.171 33.1956 411.381 33.4189C411.59 33.6377 411.695 33.9066 411.695 34.2256C411.695 34.5446 411.588 34.8112 411.374 35.0254C411.164 35.2396 410.875 35.3467 410.506 35.3467C410.132 35.3467 409.84 35.2396 409.631 35.0254C409.426 34.8066 409.323 34.54 409.323 34.2256ZM411.244 40.7881C411.244 41.2803 411.123 41.7793 410.882 42.2852C410.645 42.7956 410.33 43.2262 409.938 43.5771L409.022 43.0918C409.218 42.7682 409.369 42.4264 409.474 42.0664C409.583 41.7064 409.638 41.3008 409.638 40.8496V39.4072H411.244V40.7881Z" fill="#380037"/>
<rect x="542.5" y="0.5" width="177" height="71" rx="1.5" fill="white"/>
<rect x="542.5" y="0.5" width="177" height="71" rx="1.5" stroke="#001E2E" stroke-linecap="square" stroke-dasharray="6 6"/>
<rect width="11" height="24" transform="translate(625.5 24)" fill="white"/>
<path d="M630.636 41.6591C629.886 41.6591 629.218 41.5303 628.631 41.2727C628.047 41.0152 627.583 40.6572 627.239 40.1989C626.898 39.7367 626.712 39.2008 626.682 38.5909H628.114C628.144 38.9659 628.273 39.2898 628.5 39.5625C628.727 39.8314 629.025 40.0398 629.392 40.1875C629.759 40.3352 630.167 40.4091 630.614 40.4091C631.114 40.4091 631.557 40.322 631.943 40.1477C632.33 39.9735 632.633 39.7311 632.852 39.4205C633.072 39.1098 633.182 38.75 633.182 38.3409C633.182 37.9129 633.076 37.536 632.864 37.2102C632.652 36.8807 632.341 36.6231 631.932 36.4375C631.523 36.2519 631.023 36.1591 630.432 36.1591H629.5V34.9091H630.432C630.894 34.9091 631.299 34.8258 631.648 34.6591C632 34.4924 632.275 34.2576 632.472 33.9545C632.672 33.6515 632.773 33.2955 632.773 32.8864C632.773 32.4924 632.686 32.1496 632.511 31.858C632.337 31.5663 632.091 31.339 631.773 31.1761C631.458 31.0133 631.087 30.9318 630.659 30.9318C630.258 30.9318 629.879 31.0057 629.523 31.1534C629.17 31.2973 628.883 31.5076 628.659 31.7841C628.436 32.0568 628.314 32.3864 628.295 32.7727H626.932C626.955 32.1629 627.138 31.6288 627.483 31.1705C627.828 30.7083 628.278 30.3485 628.835 30.0909C629.396 29.8333 630.011 29.7045 630.682 29.7045C631.402 29.7045 632.019 29.8504 632.534 30.142C633.049 30.4299 633.445 30.8106 633.722 31.2841C633.998 31.7576 634.136 32.2689 634.136 32.8182C634.136 33.4735 633.964 34.0322 633.619 34.4943C633.278 34.9564 632.814 35.2765 632.227 35.4545V35.5455C632.962 35.6667 633.536 35.9792 633.949 36.483C634.362 36.983 634.568 37.6023 634.568 38.3409C634.568 38.9735 634.396 39.5417 634.051 40.0455C633.71 40.5455 633.244 40.9394 632.653 41.2273C632.063 41.5152 631.39 41.6591 630.636 41.6591Z" fill="#0B1D28"/>
</g>
<rect x="0.5" y="0.5" width="719" height="71" rx="1.5" stroke="#006590"/>
<defs>
<clipPath id="clip0_8029_66042">
<rect width="720" height="72" rx="2" fill="white"/>
</clipPath>
</defs>
</svg>
