<svg width="720" height="112" viewBox="0 0 720 112" fill="none" xmlns="http://www.w3.org/2000/svg">
<rect x="0.5" y="0.5" width="719" height="71" rx="1.5" fill="#87CEFF"/>
<rect x="0.5" y="0.5" width="719" height="71" rx="1.5" stroke="#006590"/>
<rect x="96" y="0.5" width="89" height="71" rx="1.5" fill="#E5F2FF"/>
<rect x="96" y="0.5" width="89" height="71" rx="1.5" stroke="#001E2E" stroke-linecap="square" stroke-dasharray="6 6"/>
<rect width="42" height="24" transform="translate(119.5 24)" fill="white"/>
<path d="M127.273 32.7727C127.205 32.197 126.928 31.75 126.443 31.4318C125.958 31.1136 125.364 30.9545 124.659 30.9545C124.144 30.9545 123.693 31.0379 123.307 31.2045C122.924 31.3712 122.625 31.6004 122.409 31.892C122.197 32.1837 122.091 32.5152 122.091 32.8864C122.091 33.197 122.165 33.464 122.312 33.6875C122.464 33.9072 122.657 34.0909 122.892 34.2386C123.127 34.3826 123.373 34.5019 123.631 34.5966C123.888 34.6875 124.125 34.7614 124.341 34.8182L125.523 35.1364C125.826 35.2159 126.163 35.3258 126.534 35.4659C126.909 35.6061 127.267 35.7973 127.608 36.0398C127.953 36.2784 128.237 36.5852 128.46 36.9602C128.684 37.3352 128.795 37.7955 128.795 38.3409C128.795 38.9697 128.631 39.5379 128.301 40.0455C127.975 40.553 127.498 40.9564 126.869 41.2557C126.244 41.5549 125.485 41.7045 124.591 41.7045C123.758 41.7045 123.036 41.5701 122.426 41.3011C121.82 41.0322 121.343 40.6572 120.994 40.1761C120.65 39.6951 120.455 39.1364 120.409 38.5H121.864C121.902 38.9394 122.049 39.303 122.307 39.5909C122.568 39.875 122.898 40.0871 123.295 40.2273C123.697 40.3636 124.129 40.4318 124.591 40.4318C125.129 40.4318 125.612 40.3447 126.04 40.1705C126.468 39.9924 126.807 39.7462 127.057 39.4318C127.307 39.1136 127.432 38.7424 127.432 38.3182C127.432 37.9318 127.324 37.6174 127.108 37.375C126.892 37.1326 126.608 36.9356 126.256 36.7841C125.903 36.6326 125.523 36.5 125.114 36.3864L123.682 35.9773C122.773 35.7159 122.053 35.3428 121.523 34.858C120.992 34.3731 120.727 33.7386 120.727 32.9545C120.727 32.303 120.903 31.7348 121.256 31.25C121.612 30.7614 122.089 30.3826 122.688 30.1136C123.29 29.8409 123.962 29.7045 124.705 29.7045C125.455 29.7045 126.121 29.839 126.705 30.108C127.288 30.3731 127.75 30.7367 128.091 31.1989C128.436 31.661 128.617 32.1856 128.636 32.7727H127.273ZM132.271 36.25V41.5H130.93V29.8636H132.271V34.1364H132.385C132.589 33.6856 132.896 33.3277 133.305 33.0625C133.718 32.7936 134.268 32.6591 134.953 32.6591C135.548 32.6591 136.069 32.7784 136.516 33.017C136.963 33.2519 137.309 33.6136 137.555 34.1023C137.805 34.5871 137.93 35.2045 137.93 35.9545V41.5H136.589V36.0455C136.589 35.3523 136.41 34.8163 136.05 34.4375C135.694 34.0549 135.199 33.8636 134.567 33.8636C134.127 33.8636 133.733 33.9564 133.385 34.142C133.04 34.3277 132.768 34.5985 132.567 34.9545C132.37 35.3106 132.271 35.7424 132.271 36.25ZM143.929 41.6818C143.141 41.6818 142.45 41.4943 141.855 41.1193C141.264 40.7443 140.802 40.2197 140.469 39.5455C140.139 38.8712 139.974 38.0833 139.974 37.1818C139.974 36.2727 140.139 35.4792 140.469 34.8011C140.802 34.1231 141.264 33.5966 141.855 33.2216C142.45 32.8466 143.141 32.6591 143.929 32.6591C144.717 32.6591 145.406 32.8466 145.997 33.2216C146.592 33.5966 147.054 34.1231 147.384 34.8011C147.717 35.4792 147.884 36.2727 147.884 37.1818C147.884 38.0833 147.717 38.8712 147.384 39.5455C147.054 40.2197 146.592 40.7443 145.997 41.1193C145.406 41.4943 144.717 41.6818 143.929 41.6818ZM143.929 40.4773C144.527 40.4773 145.02 40.3239 145.406 40.017C145.793 39.7102 146.079 39.3068 146.264 38.8068C146.45 38.3068 146.543 37.7652 146.543 37.1818C146.543 36.5985 146.45 36.0549 146.264 35.5511C146.079 35.0473 145.793 34.6402 145.406 34.3295C145.02 34.0189 144.527 33.8636 143.929 33.8636C143.33 33.8636 142.838 34.0189 142.452 34.3295C142.065 34.6402 141.779 35.0473 141.594 35.5511C141.408 36.0549 141.315 36.5985 141.315 37.1818C141.315 37.7652 141.408 38.3068 141.594 38.8068C141.779 39.3068 142.065 39.7102 142.452 40.017C142.838 40.3239 143.33 40.4773 143.929 40.4773ZM149.93 41.5V32.7727H151.226V34.0909H151.317C151.476 33.6591 151.764 33.3087 152.18 33.0398C152.597 32.7708 153.067 32.6364 153.589 32.6364C153.688 32.6364 153.811 32.6383 153.959 32.642C154.107 32.6458 154.218 32.6515 154.294 32.6591V34.0227C154.249 34.0114 154.144 33.9943 153.982 33.9716C153.822 33.9451 153.654 33.9318 153.476 33.9318C153.052 33.9318 152.673 34.0208 152.339 34.1989C152.01 34.3731 151.749 34.6155 151.555 34.9261C151.366 35.233 151.271 35.5833 151.271 35.9773V41.5H149.93ZM160.226 32.7727V33.9091H155.703V32.7727H160.226ZM157.021 30.6818H158.362V39C158.362 39.3788 158.417 39.6629 158.527 39.8523C158.641 40.0379 158.785 40.1629 158.959 40.2273C159.137 40.2879 159.324 40.3182 159.521 40.3182C159.669 40.3182 159.79 40.3106 159.885 40.2955C159.98 40.2765 160.055 40.2614 160.112 40.25L160.385 41.4545C160.294 41.4886 160.167 41.5227 160.004 41.5568C159.841 41.5947 159.635 41.6136 159.385 41.6136C159.006 41.6136 158.635 41.5322 158.271 41.3693C157.911 41.2064 157.612 40.9583 157.374 40.625C157.139 40.2917 157.021 39.8712 157.021 39.3636V30.6818Z" fill="#0B1D28"/>
<rect x="190" y="0.5" width="228" height="71" rx="1.5" fill="#E5F2FF"/>
<rect x="190" y="0.5" width="228" height="71" rx="1.5" stroke="#001E2E" stroke-linecap="square" stroke-dasharray="6 6"/>
<rect width="61" height="24" transform="translate(273.5 24)" fill="white"/>
<path d="M274.909 29.8636H276.591L280.545 39.5227H280.682L284.636 29.8636H286.318V41.5H285V32.6591H284.886L281.25 41.5H279.977L276.341 32.6591H276.227V41.5H274.909V29.8636ZM292.621 41.6818C291.78 41.6818 291.054 41.4962 290.445 41.125C289.839 40.75 289.371 40.2273 289.041 39.5568C288.715 38.8826 288.553 38.0985 288.553 37.2045C288.553 36.3106 288.715 35.5227 289.041 34.8409C289.371 34.1553 289.829 33.6212 290.416 33.2386C291.007 32.8523 291.696 32.6591 292.484 32.6591C292.939 32.6591 293.388 32.7348 293.831 32.8864C294.274 33.0379 294.678 33.2841 295.041 33.625C295.405 33.9621 295.695 34.4091 295.911 34.9659C296.126 35.5227 296.234 36.2083 296.234 37.0227V37.5909H289.507V36.4318H294.871C294.871 35.9394 294.772 35.5 294.575 35.1136C294.382 34.7273 294.106 34.4223 293.746 34.1989C293.39 33.9754 292.969 33.8636 292.484 33.8636C291.95 33.8636 291.488 33.9962 291.098 34.2614C290.712 34.5227 290.414 34.8636 290.206 35.2841C289.998 35.7045 289.893 36.1553 289.893 36.6364V37.4091C289.893 38.0682 290.007 38.6269 290.234 39.0852C290.465 39.5398 290.786 39.8864 291.195 40.125C291.604 40.3598 292.079 40.4773 292.621 40.4773C292.973 40.4773 293.291 40.428 293.575 40.3295C293.863 40.2273 294.111 40.0758 294.32 39.875C294.528 39.6705 294.689 39.4167 294.803 39.1136L296.098 39.4773C295.962 39.9167 295.732 40.303 295.411 40.6364C295.089 40.9659 294.691 41.2235 294.217 41.4091C293.744 41.5909 293.212 41.6818 292.621 41.6818ZM301.57 41.6818C300.842 41.6818 300.2 41.4981 299.643 41.1307C299.087 40.7595 298.651 40.2367 298.337 39.5625C298.022 38.8845 297.865 38.0833 297.865 37.1591C297.865 36.2424 298.022 35.447 298.337 34.7727C298.651 34.0985 299.089 33.5777 299.649 33.2102C300.21 32.8428 300.857 32.6591 301.592 32.6591C302.161 32.6591 302.609 32.7538 302.939 32.9432C303.272 33.1288 303.526 33.3409 303.7 33.5795C303.878 33.8144 304.017 34.0076 304.115 34.1591H304.229V29.8636H305.57V41.5H304.274V40.1591H304.115C304.017 40.3182 303.876 40.5189 303.695 40.7614C303.513 41 303.253 41.214 302.916 41.4034C302.579 41.589 302.13 41.6818 301.57 41.6818ZM301.751 40.4773C302.289 40.4773 302.744 40.3371 303.115 40.0568C303.486 39.7727 303.768 39.3807 303.962 38.8807C304.155 38.3769 304.251 37.7955 304.251 37.1364C304.251 36.4848 304.157 35.9148 303.967 35.4261C303.778 34.9337 303.498 34.5511 303.126 34.2784C302.755 34.0019 302.297 33.8636 301.751 33.8636C301.183 33.8636 300.71 34.0095 300.331 34.3011C299.956 34.589 299.674 34.9811 299.484 35.4773C299.299 35.9697 299.206 36.5227 299.206 37.1364C299.206 37.7576 299.301 38.322 299.49 38.8295C299.683 39.3333 299.967 39.7348 300.342 40.0341C300.721 40.3295 301.191 40.4773 301.751 40.4773ZM308.212 41.5V32.7727H309.553V41.5H308.212ZM308.893 31.3182C308.632 31.3182 308.407 31.2292 308.217 31.0511C308.032 30.8731 307.939 30.6591 307.939 30.4091C307.939 30.1591 308.032 29.9451 308.217 29.767C308.407 29.589 308.632 29.5 308.893 29.5C309.155 29.5 309.378 29.589 309.564 29.767C309.753 29.9451 309.848 30.1591 309.848 30.4091C309.848 30.6591 309.753 30.8731 309.564 31.0511C309.378 31.2292 309.155 31.3182 308.893 31.3182ZM317.509 37.9318V32.7727H318.849V41.5H317.509V40.0227H317.418C317.213 40.4659 316.895 40.8428 316.463 41.1534C316.031 41.4602 315.486 41.6136 314.827 41.6136C314.281 41.6136 313.796 41.4943 313.372 41.2557C312.948 41.0133 312.615 40.6496 312.372 40.1648C312.13 39.6761 312.009 39.0606 312.009 38.3182V32.7727H313.349V38.2273C313.349 38.8636 313.527 39.3712 313.884 39.75C314.243 40.1288 314.702 40.3182 315.259 40.3182C315.592 40.3182 315.931 40.233 316.276 40.0625C316.624 39.892 316.916 39.6307 317.151 39.2784C317.389 38.9261 317.509 38.4773 317.509 37.9318ZM321.305 41.5V32.7727H322.601V34.1364H322.714C322.896 33.6705 323.19 33.3087 323.595 33.0511C324 32.7898 324.487 32.6591 325.055 32.6591C325.631 32.6591 326.11 32.7898 326.493 33.0511C326.879 33.3087 327.18 33.6705 327.396 34.1364H327.487C327.711 33.6856 328.046 33.3277 328.493 33.0625C328.94 32.7936 329.476 32.6591 330.101 32.6591C330.881 32.6591 331.519 32.9034 332.016 33.392C332.512 33.8769 332.76 34.6326 332.76 35.6591V41.5H331.419V35.6591C331.419 35.0152 331.243 34.5549 330.891 34.2784C330.538 34.0019 330.124 33.8636 329.646 33.8636C329.033 33.8636 328.557 34.0492 328.22 34.4205C327.883 34.7879 327.714 35.2538 327.714 35.8182V41.5H326.351V35.5227C326.351 35.0265 326.19 34.6269 325.868 34.3239C325.546 34.017 325.131 33.8636 324.624 33.8636C324.275 33.8636 323.949 33.9564 323.646 34.142C323.347 34.3277 323.105 34.5852 322.919 34.9148C322.737 35.2405 322.646 35.6174 322.646 36.0455V41.5H321.305Z" fill="#0B1D28"/>
<rect x="423" y="0.5" width="201" height="71" rx="1.5" fill="#E5F2FF"/>
<rect x="423" y="0.5" width="201" height="71" rx="1.5" stroke="#001E2E" stroke-linecap="square" stroke-dasharray="6 6"/>
<rect width="154" height="24" transform="translate(446.5 24)" fill="white"/>
<path d="M448.386 29.8636L451.841 39.6591H451.977L455.432 29.8636H456.909L452.636 41.5H451.182L446.909 29.8636H448.386ZM461.386 41.6818C460.545 41.6818 459.82 41.4962 459.21 41.125C458.604 40.75 458.136 40.2273 457.807 39.5568C457.481 38.8826 457.318 38.0985 457.318 37.2045C457.318 36.3106 457.481 35.5227 457.807 34.8409C458.136 34.1553 458.595 33.6212 459.182 33.2386C459.773 32.8523 460.462 32.6591 461.25 32.6591C461.705 32.6591 462.153 32.7348 462.597 32.8864C463.04 33.0379 463.443 33.2841 463.807 33.625C464.17 33.9621 464.46 34.4091 464.676 34.9659C464.892 35.5227 465 36.2083 465 37.0227V37.5909H458.273V36.4318H463.636C463.636 35.9394 463.538 35.5 463.341 35.1136C463.148 34.7273 462.871 34.4223 462.511 34.1989C462.155 33.9754 461.735 33.8636 461.25 33.8636C460.716 33.8636 460.254 33.9962 459.864 34.2614C459.477 34.5227 459.18 34.8636 458.972 35.2841C458.763 35.7045 458.659 36.1553 458.659 36.6364V37.4091C458.659 38.0682 458.773 38.6269 459 39.0852C459.231 39.5398 459.551 39.8864 459.96 40.125C460.369 40.3598 460.845 40.4773 461.386 40.4773C461.739 40.4773 462.057 40.428 462.341 40.3295C462.629 40.2273 462.877 40.0758 463.085 39.875C463.294 39.6705 463.455 39.4167 463.568 39.1136L464.864 39.4773C464.727 39.9167 464.498 40.303 464.176 40.6364C463.854 40.9659 463.456 41.2235 462.983 41.4091C462.509 41.5909 461.977 41.6818 461.386 41.6818ZM467.04 41.5V32.7727H468.335V34.0909H468.426C468.585 33.6591 468.873 33.3087 469.29 33.0398C469.706 32.7708 470.176 32.6364 470.699 32.6364C470.797 32.6364 470.92 32.6383 471.068 32.642C471.216 32.6458 471.328 32.6515 471.403 32.6591V34.0227C471.358 34.0114 471.254 33.9943 471.091 33.9716C470.932 33.9451 470.763 33.9318 470.585 33.9318C470.161 33.9318 469.782 34.0208 469.449 34.1989C469.119 34.3731 468.858 34.6155 468.665 34.9261C468.475 35.233 468.381 35.5833 468.381 35.9773V41.5H467.04ZM474.122 44.7727C473.895 44.7727 473.692 44.7538 473.514 44.7159C473.336 44.6818 473.213 44.6477 473.145 44.6136L473.486 43.4318C473.812 43.5152 474.099 43.5455 474.349 43.5227C474.599 43.5 474.821 43.3883 475.014 43.1875C475.211 42.9905 475.391 42.6705 475.554 42.2273L475.804 41.5455L472.577 32.7727H474.031L476.44 39.7273H476.531L478.94 32.7727H480.395L476.69 42.7727C476.524 43.2235 476.317 43.5966 476.071 43.892C475.825 44.1913 475.539 44.4129 475.213 44.5568C474.891 44.7008 474.527 44.7727 474.122 44.7727ZM483.618 39.9091L483.527 40.5227C483.463 40.9545 483.364 41.4167 483.232 41.9091C483.103 42.4015 482.968 42.8655 482.828 43.3011C482.688 43.7367 482.572 44.0833 482.482 44.3409H481.459C481.508 44.0985 481.572 43.7784 481.652 43.3807C481.732 42.983 481.811 42.5379 481.891 42.0455C481.974 41.5568 482.042 41.0568 482.095 40.5455L482.163 39.9091H483.618ZM497.739 32.7727L494.511 41.5H493.148L489.92 32.7727H491.375L493.784 39.7273H493.875L496.284 32.7727H497.739ZM502.855 41.6818C502.014 41.6818 501.289 41.4962 500.679 41.125C500.073 40.75 499.605 40.2273 499.276 39.5568C498.95 38.8826 498.787 38.0985 498.787 37.2045C498.787 36.3106 498.95 35.5227 499.276 34.8409C499.605 34.1553 500.063 33.6212 500.651 33.2386C501.241 32.8523 501.931 32.6591 502.719 32.6591C503.173 32.6591 503.622 32.7348 504.065 32.8864C504.509 33.0379 504.912 33.2841 505.276 33.625C505.639 33.9621 505.929 34.4091 506.145 34.9659C506.361 35.5227 506.469 36.2083 506.469 37.0227V37.5909H499.741V36.4318H505.105C505.105 35.9394 505.007 35.5 504.81 35.1136C504.616 34.7273 504.34 34.4223 503.98 34.1989C503.624 33.9754 503.204 33.8636 502.719 33.8636C502.185 33.8636 501.723 33.9962 501.332 34.2614C500.946 34.5227 500.649 34.8636 500.44 35.2841C500.232 35.7045 500.128 36.1553 500.128 36.6364V37.4091C500.128 38.0682 500.241 38.6269 500.469 39.0852C500.7 39.5398 501.02 39.8864 501.429 40.125C501.838 40.3598 502.313 40.4773 502.855 40.4773C503.207 40.4773 503.526 40.428 503.81 40.3295C504.098 40.2273 504.346 40.0758 504.554 39.875C504.762 39.6705 504.923 39.4167 505.037 39.1136L506.332 39.4773C506.196 39.9167 505.967 40.303 505.645 40.6364C505.323 40.9659 504.925 41.2235 504.452 41.4091C503.978 41.5909 503.446 41.6818 502.855 41.6818ZM508.509 41.5V32.7727H509.804V34.0909H509.895C510.054 33.6591 510.342 33.3087 510.759 33.0398C511.175 32.7708 511.645 32.6364 512.168 32.6364C512.266 32.6364 512.389 32.6383 512.537 32.642C512.685 32.6458 512.796 32.6515 512.872 32.6591V34.0227C512.827 34.0114 512.723 33.9943 512.56 33.9716C512.401 33.9451 512.232 33.9318 512.054 33.9318C511.63 33.9318 511.251 34.0208 510.918 34.1989C510.588 34.3731 510.327 34.6155 510.134 34.9261C509.944 35.233 509.849 35.5833 509.849 35.9773V41.5H508.509ZM515.591 44.7727C515.364 44.7727 515.161 44.7538 514.983 44.7159C514.805 44.6818 514.682 44.6477 514.614 44.6136L514.955 43.4318C515.28 43.5152 515.568 43.5455 515.818 43.5227C516.068 43.5 516.29 43.3883 516.483 43.1875C516.68 42.9905 516.86 42.6705 517.023 42.2273L517.273 41.5455L514.045 32.7727H515.5L517.909 39.7273H518L520.409 32.7727H521.864L518.159 42.7727C517.992 43.2235 517.786 43.5966 517.54 43.892C517.294 44.1913 517.008 44.4129 516.682 44.5568C516.36 44.7008 515.996 44.7727 515.591 44.7727ZM529.474 29.8636V41.5H528.134V29.8636H529.474ZM535.476 41.6818C534.688 41.6818 533.997 41.4943 533.402 41.1193C532.811 40.7443 532.349 40.2197 532.016 39.5455C531.686 38.8712 531.521 38.0833 531.521 37.1818C531.521 36.2727 531.686 35.4792 532.016 34.8011C532.349 34.1231 532.811 33.5966 533.402 33.2216C533.997 32.8466 534.688 32.6591 535.476 32.6591C536.264 32.6591 536.953 32.8466 537.544 33.2216C538.139 33.5966 538.601 34.1231 538.93 34.8011C539.264 35.4792 539.43 36.2727 539.43 37.1818C539.43 38.0833 539.264 38.8712 538.93 39.5455C538.601 40.2197 538.139 40.7443 537.544 41.1193C536.953 41.4943 536.264 41.6818 535.476 41.6818ZM535.476 40.4773C536.074 40.4773 536.567 40.3239 536.953 40.017C537.339 39.7102 537.625 39.3068 537.811 38.8068C537.997 38.3068 538.089 37.7652 538.089 37.1818C538.089 36.5985 537.997 36.0549 537.811 35.5511C537.625 35.0473 537.339 34.6402 536.953 34.3295C536.567 34.0189 536.074 33.8636 535.476 33.8636C534.877 33.8636 534.385 34.0189 533.999 34.3295C533.612 34.6402 533.326 35.0473 533.141 35.5511C532.955 36.0549 532.862 36.5985 532.862 37.1818C532.862 37.7652 532.955 38.3068 533.141 38.8068C533.326 39.3068 533.612 39.7102 533.999 40.017C534.385 40.3239 534.877 40.4773 535.476 40.4773ZM542.818 36.25V41.5H541.477V32.7727H542.773V34.1364H542.886C543.091 33.6932 543.402 33.3371 543.818 33.0682C544.235 32.7955 544.773 32.6591 545.432 32.6591C546.023 32.6591 546.54 32.7803 546.983 33.0227C547.426 33.2614 547.771 33.625 548.017 34.1136C548.263 34.5985 548.386 35.2121 548.386 35.9545V41.5H547.045V36.0455C547.045 35.3598 546.867 34.8258 546.511 34.4432C546.155 34.0568 545.667 33.8636 545.045 33.8636C544.617 33.8636 544.235 33.9564 543.898 34.142C543.564 34.3277 543.301 34.5985 543.108 34.9545C542.915 35.3106 542.818 35.7424 542.818 36.25ZM554.359 44.9545C553.712 44.9545 553.155 44.8712 552.689 44.7045C552.223 44.5417 551.835 44.3258 551.524 44.0568C551.217 43.7917 550.973 43.5076 550.791 43.2045L551.859 42.4545C551.981 42.6136 552.134 42.7955 552.32 43C552.505 43.2083 552.759 43.3883 553.081 43.5398C553.407 43.6951 553.833 43.7727 554.359 43.7727C555.064 43.7727 555.645 43.6023 556.104 43.2614C556.562 42.9205 556.791 42.3864 556.791 41.6591V39.8864H556.678C556.579 40.0455 556.439 40.2424 556.257 40.4773C556.079 40.7083 555.821 40.9148 555.484 41.0966C555.151 41.2746 554.7 41.3636 554.132 41.3636C553.428 41.3636 552.795 41.197 552.234 40.8636C551.678 40.5303 551.236 40.0455 550.911 39.4091C550.589 38.7727 550.428 38 550.428 37.0909C550.428 36.197 550.585 35.4186 550.899 34.7557C551.214 34.089 551.651 33.5739 552.212 33.2102C552.772 32.8428 553.42 32.6591 554.155 32.6591C554.723 32.6591 555.174 32.7538 555.507 32.9432C555.844 33.1288 556.102 33.3409 556.28 33.5795C556.462 33.8144 556.602 34.0076 556.7 34.1591H556.837V32.7727H558.132V41.75C558.132 42.5 557.962 43.1098 557.621 43.5795C557.284 44.053 556.829 44.3996 556.257 44.6193C555.689 44.8428 555.056 44.9545 554.359 44.9545ZM554.314 40.1591C554.852 40.1591 555.306 40.036 555.678 39.7898C556.049 39.5436 556.331 39.1894 556.524 38.7273C556.717 38.2652 556.814 37.7121 556.814 37.0682C556.814 36.4394 556.719 35.8845 556.53 35.4034C556.34 34.9223 556.06 34.5455 555.689 34.2727C555.318 34 554.859 33.8636 554.314 33.8636C553.746 33.8636 553.272 34.0076 552.893 34.2955C552.518 34.5833 552.236 34.9697 552.047 35.4545C551.861 35.9394 551.768 36.4773 551.768 37.0682C551.768 37.6742 551.863 38.2102 552.053 38.6761C552.246 39.1383 552.53 39.5019 552.905 39.767C553.284 40.0284 553.753 40.1591 554.314 40.1591ZM566.428 29.8636V41.5H565.087V29.8636H566.428ZM571.452 41.7045C570.899 41.7045 570.397 41.6004 569.946 41.392C569.495 41.1799 569.137 40.875 568.872 40.4773C568.607 40.0758 568.474 39.5909 568.474 39.0227C568.474 38.5227 568.573 38.1174 568.77 37.8068C568.967 37.4924 569.23 37.2462 569.56 37.0682C569.889 36.8902 570.253 36.7576 570.651 36.6705C571.052 36.5795 571.455 36.5076 571.861 36.4545C572.391 36.3864 572.821 36.3352 573.151 36.3011C573.484 36.2633 573.726 36.2008 573.878 36.1136C574.033 36.0265 574.111 35.875 574.111 35.6591V35.6136C574.111 35.053 573.957 34.6174 573.651 34.3068C573.348 33.9962 572.887 33.8409 572.27 33.8409C571.63 33.8409 571.128 33.9811 570.764 34.2614C570.401 34.5417 570.145 34.8409 569.997 35.1591L568.724 34.7045C568.952 34.1742 569.255 33.7614 569.634 33.4659C570.016 33.1667 570.433 32.9583 570.884 32.8409C571.338 32.7197 571.785 32.6591 572.224 32.6591C572.505 32.6591 572.827 32.6932 573.19 32.7614C573.558 32.8258 573.912 32.9602 574.253 33.1648C574.598 33.3693 574.884 33.678 575.111 34.0909C575.338 34.5038 575.452 35.0568 575.452 35.75V41.5H574.111V40.3182H574.043C573.952 40.5076 573.8 40.7102 573.588 40.9261C573.376 41.142 573.094 41.3258 572.741 41.4773C572.389 41.6288 571.959 41.7045 571.452 41.7045ZM571.656 40.5C572.187 40.5 572.634 40.3958 572.997 40.1875C573.365 39.9792 573.641 39.7102 573.827 39.3807C574.016 39.0511 574.111 38.7045 574.111 38.3409V37.1136C574.054 37.1818 573.929 37.2443 573.736 37.3011C573.546 37.3542 573.327 37.4015 573.077 37.4432C572.83 37.4811 572.59 37.5152 572.355 37.5455C572.124 37.572 571.937 37.5947 571.793 37.6136C571.444 37.6591 571.118 37.733 570.815 37.8352C570.516 37.9337 570.274 38.0833 570.088 38.2841C569.906 38.4811 569.815 38.75 569.815 39.0909C569.815 39.5568 569.988 39.9091 570.332 40.1477C570.681 40.3826 571.122 40.5 571.656 40.5ZM578.081 41.5V29.8636H579.422V34.1591H579.536C579.634 34.0076 579.77 33.8144 579.945 33.5795C580.123 33.3409 580.376 33.1288 580.706 32.9432C581.039 32.7538 581.49 32.6591 582.058 32.6591C582.793 32.6591 583.441 32.8428 584.001 33.2102C584.562 33.5777 585 34.0985 585.314 34.7727C585.628 35.447 585.786 36.2424 585.786 37.1591C585.786 38.0833 585.628 38.8845 585.314 39.5625C585 40.2367 584.564 40.7595 584.007 41.1307C583.45 41.4981 582.808 41.6818 582.081 41.6818C581.52 41.6818 581.071 41.589 580.734 41.4034C580.397 41.214 580.138 41 579.956 40.7614C579.774 40.5189 579.634 40.3182 579.536 40.1591H579.376V41.5H578.081ZM579.399 37.1364C579.399 37.7955 579.496 38.3769 579.689 38.8807C579.882 39.3807 580.164 39.7727 580.536 40.0568C580.907 40.3371 581.361 40.4773 581.899 40.4773C582.46 40.4773 582.928 40.3295 583.303 40.0341C583.681 39.7348 583.965 39.3333 584.155 38.8295C584.348 38.322 584.445 37.7576 584.445 37.1364C584.445 36.5227 584.35 35.9697 584.161 35.4773C583.975 34.9811 583.693 34.589 583.314 34.3011C582.939 34.0095 582.467 33.8636 581.899 33.8636C581.354 33.8636 580.895 34.0019 580.524 34.2784C580.153 34.5511 579.873 34.9337 579.683 35.4261C579.494 35.9148 579.399 36.4848 579.399 37.1364ZM591.496 41.6818C590.655 41.6818 589.929 41.4962 589.32 41.125C588.714 40.75 588.246 40.2273 587.916 39.5568C587.59 38.8826 587.428 38.0985 587.428 37.2045C587.428 36.3106 587.59 35.5227 587.916 34.8409C588.246 34.1553 588.704 33.6212 589.291 33.2386C589.882 32.8523 590.571 32.6591 591.359 32.6591C591.814 32.6591 592.263 32.7348 592.706 32.8864C593.149 33.0379 593.553 33.2841 593.916 33.625C594.28 33.9621 594.57 34.4091 594.786 34.9659C595.001 35.5227 595.109 36.2083 595.109 37.0227V37.5909H588.382V36.4318H593.746C593.746 35.9394 593.647 35.5 593.45 35.1136C593.257 34.7273 592.981 34.4223 592.621 34.1989C592.265 33.9754 591.844 33.8636 591.359 33.8636C590.825 33.8636 590.363 33.9962 589.973 34.2614C589.587 34.5227 589.289 34.8636 589.081 35.2841C588.873 35.7045 588.768 36.1553 588.768 36.6364V37.4091C588.768 38.0682 588.882 38.6269 589.109 39.0852C589.34 39.5398 589.661 39.8864 590.07 40.125C590.479 40.3598 590.954 40.4773 591.496 40.4773C591.848 40.4773 592.166 40.428 592.45 40.3295C592.738 40.2273 592.986 40.0758 593.195 39.875C593.403 39.6705 593.564 39.4167 593.678 39.1136L594.973 39.4773C594.837 39.9167 594.607 40.303 594.286 40.6364C593.964 40.9659 593.566 41.2235 593.092 41.4091C592.619 41.5909 592.087 41.6818 591.496 41.6818ZM598.49 29.8636V41.5H597.149V29.8636H598.49Z" fill="#0B1D28"/>
<path d="M357.25 0V72" stroke="#004C6D" stroke-width="0.5" stroke-dasharray="2 2"/>
<path d="M418.75 0V72" stroke="#004C6D" stroke-width="0.5" stroke-dasharray="2 2"/>
<path d="M418.75 36.5L418.75 33.5M418.75 36.5L418.75 39.5M418.75 36.5L357.25 36.5M357.25 36.5L357.25 33.5M357.25 36.5L357.25 39.4999" stroke="#004C6D" stroke-width="0.5"/>
<rect x="372.5" y="28.5" width="31" height="16" rx="3" fill="#004C6D"/>
<path d="M380.069 40.632C379.548 40.632 379.104 40.5403 378.738 40.357C378.378 40.1663 378.081 39.906 377.847 39.576C377.619 39.246 377.451 38.8647 377.341 38.432C377.238 37.992 377.187 37.519 377.187 37.013C377.187 36.4263 377.249 35.8727 377.374 35.352C377.498 34.824 377.685 34.3583 377.935 33.955C378.191 33.5517 378.518 33.2363 378.914 33.009C379.31 32.7817 379.786 32.668 380.344 32.668C380.747 32.668 381.139 32.7267 381.521 32.844C381.909 32.9613 382.258 33.13 382.566 33.35L381.818 34.45C381.59 34.2887 381.345 34.1713 381.081 34.098C380.824 34.0247 380.586 33.988 380.366 33.988C379.801 33.988 379.357 34.2373 379.035 34.736C378.712 35.2347 378.558 36.023 378.573 37.101L378.276 36.892C378.444 36.4887 378.705 36.166 379.057 35.924C379.409 35.682 379.827 35.561 380.311 35.561C380.802 35.561 381.235 35.6747 381.609 35.902C381.99 36.1293 382.287 36.441 382.5 36.837C382.72 37.2257 382.83 37.662 382.83 38.146C382.83 38.6227 382.716 39.0517 382.489 39.433C382.261 39.807 381.939 40.1003 381.521 40.313C381.11 40.5257 380.626 40.632 380.069 40.632ZM380.069 39.356C380.311 39.356 380.527 39.301 380.718 39.191C380.908 39.081 381.059 38.9307 381.169 38.74C381.279 38.5493 381.334 38.3293 381.334 38.08C381.334 37.8307 381.279 37.6107 381.169 37.42C381.059 37.222 380.908 37.068 380.718 36.958C380.527 36.8407 380.311 36.782 380.069 36.782C379.827 36.782 379.607 36.8407 379.409 36.958C379.218 37.068 379.068 37.222 378.958 37.42C378.848 37.6107 378.793 37.8307 378.793 38.08C378.793 38.3293 378.848 38.5493 378.958 38.74C379.068 38.9307 379.218 39.081 379.409 39.191C379.607 39.301 379.827 39.356 380.069 39.356ZM385.196 40.181L383.722 39.389C383.722 39.1763 383.788 38.9417 383.92 38.685C384.052 38.4283 384.235 38.1717 384.47 37.915C384.704 37.6583 384.979 37.42 385.295 37.2L386.461 36.364C386.622 36.254 386.772 36.1293 386.912 35.99C387.058 35.8507 387.176 35.7003 387.264 35.539C387.359 35.3703 387.407 35.209 387.407 35.055C387.407 34.8643 387.359 34.692 387.264 34.538C387.176 34.384 387.044 34.263 386.868 34.175C386.692 34.087 386.475 34.043 386.219 34.043C385.999 34.043 385.801 34.087 385.625 34.175C385.456 34.263 385.317 34.3803 385.207 34.527C385.097 34.6737 385.02 34.8313 384.976 35L383.425 34.736C383.498 34.3693 383.656 34.0283 383.898 33.713C384.14 33.3977 384.455 33.1447 384.844 32.954C385.24 32.756 385.687 32.657 386.186 32.657C386.758 32.657 387.249 32.7597 387.66 32.965C388.07 33.1703 388.386 33.4527 388.606 33.812C388.833 34.164 388.947 34.5747 388.947 35.044C388.947 35.5207 388.815 35.946 388.551 36.32C388.294 36.6867 387.938 37.0313 387.484 37.354L386.439 38.113C386.226 38.2523 386.024 38.421 385.834 38.619C385.643 38.8097 385.489 39.0333 385.372 39.29C385.254 39.5393 385.196 39.8363 385.196 40.181ZM383.722 40.5V39.389L384.844 39.18H389.046V40.5H383.722ZM390.895 40.665C390.653 40.665 390.444 40.577 390.268 40.401C390.099 40.225 390.015 40.016 390.015 39.774C390.015 39.5393 390.099 39.334 390.268 39.158C390.444 38.982 390.653 38.894 390.895 38.894C391.137 38.894 391.342 38.982 391.511 39.158C391.687 39.334 391.775 39.5393 391.775 39.774C391.775 40.016 391.687 40.225 391.511 40.401C391.342 40.577 391.137 40.665 390.895 40.665ZM393.634 38.377L392.545 37.783L395.955 32.8L396.857 33.647L393.634 38.377ZM392.545 38.982V37.783L393.392 37.695H398.892V38.982H392.545ZM396.131 40.5V33.625L395.966 32.8H397.55V40.5H396.131Z" fill="white"/>
<path d="M190.25 0V72" stroke="#004C6D" stroke-width="0.5" stroke-dasharray="2 2"/>
<path d="M251.75 0V72" stroke="#004C6D" stroke-width="0.5" stroke-dasharray="2 2"/>
<path d="M251.75 36.5L251.75 33.5M251.75 36.5L251.75 39.5M251.75 36.5L190.25 36.5M190.25 36.5L190.25 33.5M190.25 36.5L190.25 39.4999" stroke="#004C6D" stroke-width="0.5"/>
<rect x="205.5" y="28.5" width="31" height="16" rx="3" fill="#004C6D"/>
<path d="M213.069 40.632C212.548 40.632 212.104 40.5403 211.738 40.357C211.378 40.1663 211.081 39.906 210.847 39.576C210.619 39.246 210.451 38.8647 210.341 38.432C210.238 37.992 210.187 37.519 210.187 37.013C210.187 36.4263 210.249 35.8727 210.374 35.352C210.498 34.824 210.685 34.3583 210.935 33.955C211.191 33.5517 211.518 33.2363 211.914 33.009C212.31 32.7817 212.786 32.668 213.344 32.668C213.747 32.668 214.139 32.7267 214.521 32.844C214.909 32.9613 215.258 33.13 215.566 33.35L214.818 34.45C214.59 34.2887 214.345 34.1713 214.081 34.098C213.824 34.0247 213.586 33.988 213.366 33.988C212.801 33.988 212.357 34.2373 212.035 34.736C211.712 35.2347 211.558 36.023 211.573 37.101L211.276 36.892C211.444 36.4887 211.705 36.166 212.057 35.924C212.409 35.682 212.827 35.561 213.311 35.561C213.802 35.561 214.235 35.6747 214.609 35.902C214.99 36.1293 215.287 36.441 215.5 36.837C215.72 37.2257 215.83 37.662 215.83 38.146C215.83 38.6227 215.716 39.0517 215.489 39.433C215.261 39.807 214.939 40.1003 214.521 40.313C214.11 40.5257 213.626 40.632 213.069 40.632ZM213.069 39.356C213.311 39.356 213.527 39.301 213.718 39.191C213.908 39.081 214.059 38.9307 214.169 38.74C214.279 38.5493 214.334 38.3293 214.334 38.08C214.334 37.8307 214.279 37.6107 214.169 37.42C214.059 37.222 213.908 37.068 213.718 36.958C213.527 36.8407 213.311 36.782 213.069 36.782C212.827 36.782 212.607 36.8407 212.409 36.958C212.218 37.068 212.068 37.222 211.958 37.42C211.848 37.6107 211.793 37.8307 211.793 38.08C211.793 38.3293 211.848 38.5493 211.958 38.74C212.068 38.9307 212.218 39.081 212.409 39.191C212.607 39.301 212.827 39.356 213.069 39.356ZM218.196 40.181L216.722 39.389C216.722 39.1763 216.788 38.9417 216.92 38.685C217.052 38.4283 217.235 38.1717 217.47 37.915C217.704 37.6583 217.979 37.42 218.295 37.2L219.461 36.364C219.622 36.254 219.772 36.1293 219.912 35.99C220.058 35.8507 220.176 35.7003 220.264 35.539C220.359 35.3703 220.407 35.209 220.407 35.055C220.407 34.8643 220.359 34.692 220.264 34.538C220.176 34.384 220.044 34.263 219.868 34.175C219.692 34.087 219.475 34.043 219.219 34.043C218.999 34.043 218.801 34.087 218.625 34.175C218.456 34.263 218.317 34.3803 218.207 34.527C218.097 34.6737 218.02 34.8313 217.976 35L216.425 34.736C216.498 34.3693 216.656 34.0283 216.898 33.713C217.14 33.3977 217.455 33.1447 217.844 32.954C218.24 32.756 218.687 32.657 219.186 32.657C219.758 32.657 220.249 32.7597 220.66 32.965C221.07 33.1703 221.386 33.4527 221.606 33.812C221.833 34.164 221.947 34.5747 221.947 35.044C221.947 35.5207 221.815 35.946 221.551 36.32C221.294 36.6867 220.938 37.0313 220.484 37.354L219.439 38.113C219.226 38.2523 219.024 38.421 218.834 38.619C218.643 38.8097 218.489 39.0333 218.372 39.29C218.254 39.5393 218.196 39.8363 218.196 40.181ZM216.722 40.5V39.389L217.844 39.18H222.046V40.5H216.722ZM223.895 40.665C223.653 40.665 223.444 40.577 223.268 40.401C223.099 40.225 223.015 40.016 223.015 39.774C223.015 39.5393 223.099 39.334 223.268 39.158C223.444 38.982 223.653 38.894 223.895 38.894C224.137 38.894 224.342 38.982 224.511 39.158C224.687 39.334 224.775 39.5393 224.775 39.774C224.775 40.016 224.687 40.225 224.511 40.401C224.342 40.577 224.137 40.665 223.895 40.665ZM226.634 38.377L225.545 37.783L228.955 32.8L229.857 33.647L226.634 38.377ZM225.545 38.982V37.783L226.392 37.695H231.892V38.982H225.545ZM229.131 40.5V33.625L228.966 32.8H230.55V40.5H229.131Z" fill="white"/>
<rect x="524.5" y="88.5" width="112" height="23" rx="5.5" fill="#FFEBF7"/>
<rect x="524.5" y="88.5" width="112" height="23" rx="5.5" stroke="#FFADF3"/>
<path d="M532.919 105V98.8271H530.937V97.6035H532.919V97.1523C532.919 96.6693 532.992 96.2454 533.138 95.8809C533.288 95.5117 533.5 95.2018 533.773 94.9512C534.047 94.7051 534.375 94.5182 534.758 94.3906C535.145 94.263 535.578 94.1992 536.057 94.1992C536.225 94.1992 536.389 94.2083 536.549 94.2266C536.713 94.2402 536.872 94.2585 537.027 94.2812C537.155 94.2995 537.285 94.3223 537.417 94.3496C537.549 94.3724 537.684 94.3975 537.82 94.4248L537.69 95.7305C537.508 95.6803 537.301 95.637 537.068 95.6006C536.84 95.5641 536.581 95.5459 536.289 95.5459C535.984 95.5459 535.719 95.5824 535.496 95.6553C535.277 95.7282 535.097 95.8353 534.956 95.9766C534.824 96.1087 534.724 96.2728 534.655 96.4688C534.591 96.6647 534.56 96.8926 534.56 97.1523V97.6035H537.301V98.8271H534.56V105H532.919ZM539.782 94.5H543.768V103.646H546.01V105H539.782V103.646H542.12V95.8604H539.782V94.5ZM551.328 105.137C550.781 105.137 550.28 105.046 549.824 104.863C549.373 104.681 548.986 104.428 548.662 104.104C548.339 103.785 548.088 103.41 547.91 102.977C547.737 102.539 547.65 102.067 547.65 101.562V101.281C547.65 100.702 547.742 100.178 547.924 99.709C548.106 99.2396 548.357 98.8385 548.676 98.5059C548.995 98.1732 549.364 97.918 549.783 97.7402C550.207 97.5579 550.658 97.4668 551.137 97.4668C551.67 97.4668 552.142 97.5579 552.552 97.7402C552.962 97.918 553.306 98.1663 553.584 98.4854C553.862 98.8089 554.072 99.194 554.213 99.6406C554.354 100.087 554.425 100.575 554.425 101.104V101.808H549.298V101.842C549.348 102.165 549.425 102.437 549.53 102.655C549.635 102.874 549.779 103.07 549.961 103.243C550.143 103.425 550.357 103.567 550.604 103.667C550.854 103.767 551.128 103.817 551.424 103.817C551.829 103.817 552.208 103.74 552.559 103.585C552.91 103.425 553.199 103.2 553.427 102.908L554.302 103.756C554.056 104.111 553.677 104.43 553.167 104.713C552.661 104.995 552.048 105.137 551.328 105.137ZM551.13 98.793C550.897 98.793 550.681 98.8363 550.48 98.9229C550.285 99.0049 550.109 99.1234 549.954 99.2783C549.799 99.4378 549.669 99.6292 549.564 99.8525C549.46 100.076 549.382 100.329 549.332 100.611H552.812V100.502C552.812 100.288 552.773 100.076 552.695 99.8662C552.618 99.652 552.508 99.4652 552.367 99.3057C552.23 99.1507 552.057 99.0277 551.848 98.9365C551.643 98.8408 551.403 98.793 551.13 98.793ZM559.531 100.092L561.302 97.6035H563.113L560.516 101.247L563.195 105H561.391L559.545 102.416L557.706 105H555.895L558.574 101.247L555.983 97.6035H557.781L559.531 100.092ZM570.879 101.288H565.376V99.9619H570.879V101.288ZM572.889 101.247C572.889 100.687 572.957 100.176 573.094 99.7158C573.23 99.251 573.429 98.8522 573.688 98.5195C573.948 98.1868 574.26 97.9294 574.625 97.7471C574.994 97.5602 575.409 97.4668 575.869 97.4668C576.143 97.4668 576.391 97.4964 576.614 97.5557C576.838 97.6104 577.04 97.6924 577.223 97.8018C577.341 97.8701 577.453 97.9521 577.558 98.0479C577.662 98.139 577.76 98.2393 577.852 98.3486L577.92 97.6035H579.403V104.795C579.403 105.292 579.321 105.731 579.157 106.114C578.998 106.502 578.772 106.83 578.48 107.099C578.184 107.363 577.829 107.563 577.414 107.7C577.004 107.841 576.55 107.912 576.054 107.912C575.844 107.912 575.614 107.889 575.363 107.844C575.113 107.798 574.862 107.728 574.611 107.632C574.361 107.536 574.121 107.411 573.894 107.256C573.666 107.101 573.47 106.914 573.306 106.695L574.078 105.704C574.21 105.864 574.352 106 574.502 106.114C574.657 106.233 574.814 106.328 574.974 106.401C575.133 106.474 575.295 106.527 575.459 106.559C575.623 106.595 575.789 106.613 575.958 106.613C576.25 106.613 576.507 106.572 576.73 106.49C576.958 106.408 577.152 106.29 577.312 106.135C577.457 105.984 577.569 105.8 577.646 105.581C577.729 105.362 577.77 105.114 577.77 104.836V104.323C577.674 104.424 577.574 104.517 577.469 104.604C577.368 104.69 577.259 104.765 577.141 104.829C576.963 104.929 576.767 105.005 576.553 105.055C576.339 105.109 576.106 105.137 575.855 105.137C575.4 105.137 574.99 105.043 574.625 104.856C574.26 104.665 573.948 104.401 573.688 104.063C573.433 103.731 573.235 103.337 573.094 102.881C572.957 102.421 572.889 101.924 572.889 101.391V101.247ZM574.529 101.391C574.529 101.719 574.561 102.029 574.625 102.32C574.693 102.612 574.8 102.865 574.946 103.079C575.088 103.302 575.268 103.478 575.486 103.605C575.705 103.729 575.965 103.79 576.266 103.79C576.452 103.79 576.621 103.77 576.771 103.729C576.926 103.688 577.065 103.631 577.188 103.558C577.312 103.48 577.421 103.387 577.517 103.277C577.612 103.168 577.697 103.047 577.77 102.915V99.6748C577.697 99.5381 577.608 99.415 577.503 99.3057C577.403 99.1963 577.286 99.1029 577.154 99.0254C577.036 98.9616 576.904 98.9115 576.758 98.875C576.612 98.834 576.452 98.8135 576.279 98.8135C575.974 98.8135 575.712 98.8773 575.493 99.0049C575.274 99.1325 575.094 99.3079 574.953 99.5312C574.807 99.7546 574.7 100.014 574.632 100.311C574.563 100.602 574.529 100.914 574.529 101.247V101.391ZM586.622 97.4668C586.886 97.4668 587.142 97.485 587.388 97.5215C587.638 97.5579 587.834 97.6012 587.976 97.6514L587.743 99.2646C587.493 99.21 587.244 99.1689 586.998 99.1416C586.757 99.1143 586.515 99.1006 586.273 99.1006C586 99.1006 585.754 99.1279 585.535 99.1826C585.316 99.2373 585.123 99.3216 584.954 99.4355C584.772 99.5449 584.617 99.6839 584.489 99.8525C584.362 100.021 584.255 100.215 584.168 100.434V105H582.534V97.6035H584.065L584.134 98.6289L584.141 98.7998C584.441 98.3851 584.801 98.0592 585.221 97.8223C585.645 97.5853 586.112 97.4668 586.622 97.4668ZM589.616 101.233C589.616 100.696 589.694 100.199 589.849 99.7432C590.004 99.2829 590.229 98.8841 590.525 98.5469C590.817 98.2096 591.175 97.9453 591.599 97.7539C592.022 97.5625 592.506 97.4668 593.048 97.4668C593.59 97.4668 594.073 97.5625 594.497 97.7539C594.925 97.9453 595.288 98.2096 595.584 98.5469C595.876 98.8841 596.099 99.2829 596.254 99.7432C596.409 100.199 596.486 100.696 596.486 101.233V101.377C596.486 101.919 596.409 102.418 596.254 102.874C596.099 103.33 595.876 103.726 595.584 104.063C595.292 104.401 594.932 104.665 594.504 104.856C594.08 105.048 593.599 105.144 593.062 105.144C592.519 105.144 592.034 105.048 591.605 104.856C591.177 104.665 590.817 104.401 590.525 104.063C590.229 103.726 590.004 103.33 589.849 102.874C589.694 102.418 589.616 101.919 589.616 101.377V101.233ZM591.25 101.377C591.25 101.71 591.284 102.024 591.353 102.32C591.425 102.617 591.537 102.876 591.688 103.1C591.833 103.323 592.02 103.501 592.248 103.633C592.476 103.76 592.747 103.824 593.062 103.824C593.367 103.824 593.633 103.76 593.861 103.633C594.089 103.501 594.276 103.323 594.422 103.1C594.568 102.876 594.675 102.617 594.743 102.32C594.816 102.024 594.853 101.71 594.853 101.377V101.233C594.853 100.91 594.816 100.6 594.743 100.304C594.67 100.007 594.563 99.7477 594.422 99.5244C594.271 99.3011 594.082 99.1234 593.854 98.9912C593.631 98.859 593.362 98.793 593.048 98.793C592.738 98.793 592.469 98.859 592.241 98.9912C592.018 99.1234 591.833 99.3011 591.688 99.5244C591.537 99.7477 591.425 100.007 591.353 100.304C591.284 100.6 591.25 100.91 591.25 101.233V101.377ZM598.94 105L597.512 97.6035H598.988L599.672 102.136L599.788 102.99L599.938 102.136L600.902 97.6035H601.976L602.939 102.122L603.097 103.018L603.227 102.115L603.89 97.6035H605.373L603.944 105H602.557L601.6 100.803L601.429 99.8867L601.265 100.803L600.328 105H598.94ZM608.969 104.016C608.969 103.701 609.069 103.432 609.27 103.209C609.475 102.986 609.769 102.874 610.151 102.874C610.525 102.874 610.817 102.986 611.026 103.209C611.236 103.428 611.341 103.697 611.341 104.016C611.341 104.335 611.234 104.601 611.02 104.815C610.81 105.03 610.521 105.137 610.151 105.137C609.778 105.137 609.486 105.03 609.276 104.815C609.071 104.597 608.969 104.33 608.969 104.016ZM608.969 98.2256C608.969 97.9111 609.069 97.6423 609.27 97.4189C609.475 97.1956 609.769 97.084 610.151 97.084C610.525 97.084 610.817 97.1956 611.026 97.4189C611.236 97.6377 611.341 97.9066 611.341 98.2256C611.341 98.5446 611.234 98.8112 611.02 99.0254C610.81 99.2396 610.521 99.3467 610.151 99.3467C609.778 99.3467 609.486 99.2396 609.276 99.0254C609.071 98.8066 608.969 98.54 608.969 98.2256ZM629.935 101.206C629.935 101.844 629.859 102.409 629.709 102.901C629.563 103.389 629.351 103.797 629.073 104.125C628.8 104.462 628.463 104.717 628.062 104.891C627.665 105.059 627.214 105.144 626.708 105.144C626.207 105.144 625.756 105.059 625.354 104.891C624.953 104.717 624.614 104.462 624.336 104.125C624.053 103.797 623.837 103.389 623.687 102.901C623.541 102.409 623.468 101.844 623.468 101.206V98.8477C623.468 98.2096 623.541 97.6468 623.687 97.1592C623.837 96.667 624.051 96.2523 624.329 95.915C624.607 95.5824 624.944 95.3317 625.341 95.1631C625.742 94.9899 626.193 94.9033 626.694 94.9033C627.2 94.9033 627.651 94.9899 628.048 95.1631C628.449 95.3317 628.791 95.5824 629.073 95.915C629.347 96.2523 629.559 96.667 629.709 97.1592C629.859 97.6468 629.935 98.2096 629.935 98.8477V101.206ZM625.108 100.625L628.273 98.2256C628.255 97.8701 628.205 97.5625 628.123 97.3027C628.046 97.043 627.934 96.8311 627.788 96.667C627.66 96.5212 627.503 96.4118 627.316 96.3389C627.134 96.266 626.927 96.2295 626.694 96.2295C626.444 96.2295 626.223 96.2728 626.031 96.3594C625.84 96.446 625.68 96.5736 625.553 96.7422C625.402 96.9336 625.291 97.182 625.218 97.4873C625.145 97.7881 625.108 98.1436 625.108 98.5537V99.8936C625.108 100.067 625.108 100.199 625.108 100.29C625.108 100.381 625.108 100.493 625.108 100.625ZM628.287 101.479V100.222C628.287 100.108 628.287 99.9893 628.287 99.8662C628.287 99.7432 628.287 99.6156 628.287 99.4834L625.122 101.869C625.145 102.184 625.193 102.462 625.266 102.703C625.343 102.945 625.446 103.145 625.573 103.305C625.701 103.478 625.858 103.608 626.045 103.694C626.236 103.781 626.457 103.824 626.708 103.824C626.954 103.824 627.171 103.783 627.357 103.701C627.544 103.615 627.704 103.489 627.836 103.325C627.986 103.134 628.098 102.883 628.171 102.573C628.248 102.263 628.287 101.899 628.287 101.479Z" fill="#380037"/>
<rect x="39.5" y="88.5" width="112" height="23" rx="5.5" fill="#FFEBF7"/>
<rect x="39.5" y="88.5" width="112" height="23" rx="5.5" stroke="#FFADF3"/>
<path d="M47.9189 105V98.8271H45.9365V97.6035H47.9189V97.1523C47.9189 96.6693 47.9919 96.2454 48.1377 95.8809C48.2881 95.5117 48.5 95.2018 48.7734 94.9512C49.0469 94.7051 49.375 94.5182 49.7578 94.3906C50.1452 94.263 50.5781 94.1992 51.0566 94.1992C51.2253 94.1992 51.3893 94.2083 51.5488 94.2266C51.7129 94.2402 51.8724 94.2585 52.0273 94.2812C52.1549 94.2995 52.2848 94.3223 52.417 94.3496C52.5492 94.3724 52.6836 94.3975 52.8203 94.4248L52.6904 95.7305C52.5081 95.6803 52.3008 95.637 52.0684 95.6006C51.8405 95.5641 51.5807 95.5459 51.2891 95.5459C50.9837 95.5459 50.7194 95.5824 50.4961 95.6553C50.2773 95.7282 50.0973 95.8353 49.9561 95.9766C49.8239 96.1087 49.7236 96.2728 49.6553 96.4688C49.5915 96.6647 49.5596 96.8926 49.5596 97.1523V97.6035H52.3008V98.8271H49.5596V105H47.9189ZM54.7822 94.5H58.7676V103.646H61.0098V105H54.7822V103.646H57.1201V95.8604H54.7822V94.5ZM66.3281 105.137C65.7812 105.137 65.2799 105.046 64.8242 104.863C64.373 104.681 63.9857 104.428 63.6621 104.104C63.3385 103.785 63.0879 103.41 62.9102 102.977C62.737 102.539 62.6504 102.067 62.6504 101.562V101.281C62.6504 100.702 62.7415 100.178 62.9238 99.709C63.1061 99.2396 63.3568 98.8385 63.6758 98.5059C63.9948 98.1732 64.3639 97.918 64.7832 97.7402C65.207 97.5579 65.6582 97.4668 66.1367 97.4668C66.6699 97.4668 67.1416 97.5579 67.5518 97.7402C67.9619 97.918 68.306 98.1663 68.584 98.4854C68.862 98.8089 69.0716 99.194 69.2129 99.6406C69.3542 100.087 69.4248 100.575 69.4248 101.104V101.808H64.2979V101.842C64.348 102.165 64.4255 102.437 64.5303 102.655C64.6351 102.874 64.7786 103.07 64.9609 103.243C65.1432 103.425 65.3574 103.567 65.6035 103.667C65.8542 103.767 66.1276 103.817 66.4238 103.817C66.8294 103.817 67.2077 103.74 67.5586 103.585C67.9095 103.425 68.1989 103.2 68.4268 102.908L69.3018 103.756C69.0557 104.111 68.6774 104.43 68.167 104.713C67.6611 104.995 67.0482 105.137 66.3281 105.137ZM66.1299 98.793C65.8975 98.793 65.681 98.8363 65.4805 98.9229C65.2845 99.0049 65.109 99.1234 64.9541 99.2783C64.7992 99.4378 64.6693 99.6292 64.5645 99.8525C64.4596 100.076 64.3822 100.329 64.332 100.611H67.8115V100.502C67.8115 100.288 67.7728 100.076 67.6953 99.8662C67.6178 99.652 67.5085 99.4652 67.3672 99.3057C67.2305 99.1507 67.0573 99.0277 66.8477 98.9365C66.6426 98.8408 66.4033 98.793 66.1299 98.793ZM74.5312 100.092L76.3018 97.6035H78.1133L75.5156 101.247L78.1953 105H76.3906L74.5449 102.416L72.7061 105H70.8945L73.5742 101.247L70.9834 97.6035H72.7812L74.5312 100.092ZM85.8789 101.288H80.376V99.9619H85.8789V101.288ZM87.8887 101.247C87.8887 100.687 87.957 100.176 88.0938 99.7158C88.2305 99.251 88.4287 98.8522 88.6885 98.5195C88.9482 98.1868 89.2604 97.9294 89.625 97.7471C89.9941 97.5602 90.4089 97.4668 90.8691 97.4668C91.1426 97.4668 91.391 97.4964 91.6143 97.5557C91.8376 97.6104 92.0404 97.6924 92.2227 97.8018C92.3411 97.8701 92.4528 97.9521 92.5576 98.0479C92.6624 98.139 92.7604 98.2393 92.8516 98.3486L92.9199 97.6035H94.4033V104.795C94.4033 105.292 94.3213 105.731 94.1572 106.114C93.9977 106.502 93.7721 106.83 93.4805 107.099C93.1842 107.363 92.8288 107.563 92.4141 107.7C92.0039 107.841 91.5505 107.912 91.0537 107.912C90.8441 107.912 90.6139 107.889 90.3633 107.844C90.1126 107.798 89.862 107.728 89.6113 107.632C89.3607 107.536 89.1214 107.411 88.8936 107.256C88.6657 107.101 88.4697 106.914 88.3057 106.695L89.0781 105.704C89.2103 105.864 89.3516 106 89.502 106.114C89.6569 106.233 89.8141 106.328 89.9736 106.401C90.1331 106.474 90.2949 106.527 90.459 106.559C90.623 106.595 90.7894 106.613 90.958 106.613C91.2497 106.613 91.5072 106.572 91.7305 106.49C91.9583 106.408 92.152 106.29 92.3115 106.135C92.4574 105.984 92.569 105.8 92.6465 105.581C92.7285 105.362 92.7695 105.114 92.7695 104.836V104.323C92.6738 104.424 92.5736 104.517 92.4688 104.604C92.3685 104.69 92.2591 104.765 92.1406 104.829C91.9629 104.929 91.7669 105.005 91.5527 105.055C91.3385 105.109 91.1061 105.137 90.8555 105.137C90.3997 105.137 89.9896 105.043 89.625 104.856C89.2604 104.665 88.9482 104.401 88.6885 104.063C88.4333 103.731 88.235 103.337 88.0938 102.881C87.957 102.421 87.8887 101.924 87.8887 101.391V101.247ZM89.5293 101.391C89.5293 101.719 89.5612 102.029 89.625 102.32C89.6934 102.612 89.8005 102.865 89.9463 103.079C90.0876 103.302 90.2676 103.478 90.4863 103.605C90.7051 103.729 90.9648 103.79 91.2656 103.79C91.4525 103.79 91.6211 103.77 91.7715 103.729C91.9264 103.688 92.0654 103.631 92.1885 103.558C92.3115 103.48 92.4209 103.387 92.5166 103.277C92.6123 103.168 92.6966 103.047 92.7695 102.915V99.6748C92.6966 99.5381 92.6077 99.415 92.5029 99.3057C92.4027 99.1963 92.2865 99.1029 92.1543 99.0254C92.0358 98.9616 91.9036 98.9115 91.7578 98.875C91.612 98.834 91.4525 98.8135 91.2793 98.8135C90.974 98.8135 90.7119 98.8773 90.4932 99.0049C90.2744 99.1325 90.0944 99.3079 89.9531 99.5312C89.8073 99.7546 89.7002 100.014 89.6318 100.311C89.5635 100.602 89.5293 100.914 89.5293 101.247V101.391ZM101.622 97.4668C101.886 97.4668 102.142 97.485 102.388 97.5215C102.638 97.5579 102.834 97.6012 102.976 97.6514L102.743 99.2646C102.493 99.21 102.244 99.1689 101.998 99.1416C101.757 99.1143 101.515 99.1006 101.273 99.1006C101 99.1006 100.754 99.1279 100.535 99.1826C100.316 99.2373 100.123 99.3216 99.9541 99.4355C99.7718 99.5449 99.6169 99.6839 99.4893 99.8525C99.3617 100.021 99.2546 100.215 99.168 100.434V105H97.5342V97.6035H99.0654L99.1338 98.6289L99.1406 98.7998C99.4414 98.3851 99.8014 98.0592 100.221 97.8223C100.645 97.5853 101.112 97.4668 101.622 97.4668ZM104.616 101.233C104.616 100.696 104.694 100.199 104.849 99.7432C105.004 99.2829 105.229 98.8841 105.525 98.5469C105.817 98.2096 106.175 97.9453 106.599 97.7539C107.022 97.5625 107.506 97.4668 108.048 97.4668C108.59 97.4668 109.073 97.5625 109.497 97.7539C109.925 97.9453 110.288 98.2096 110.584 98.5469C110.876 98.8841 111.099 99.2829 111.254 99.7432C111.409 100.199 111.486 100.696 111.486 101.233V101.377C111.486 101.919 111.409 102.418 111.254 102.874C111.099 103.33 110.876 103.726 110.584 104.063C110.292 104.401 109.932 104.665 109.504 104.856C109.08 105.048 108.599 105.144 108.062 105.144C107.519 105.144 107.034 105.048 106.605 104.856C106.177 104.665 105.817 104.401 105.525 104.063C105.229 103.726 105.004 103.33 104.849 102.874C104.694 102.418 104.616 101.919 104.616 101.377V101.233ZM106.25 101.377C106.25 101.71 106.284 102.024 106.353 102.32C106.425 102.617 106.537 102.876 106.688 103.1C106.833 103.323 107.02 103.501 107.248 103.633C107.476 103.76 107.747 103.824 108.062 103.824C108.367 103.824 108.633 103.76 108.861 103.633C109.089 103.501 109.276 103.323 109.422 103.1C109.568 102.876 109.675 102.617 109.743 102.32C109.816 102.024 109.853 101.71 109.853 101.377V101.233C109.853 100.91 109.816 100.6 109.743 100.304C109.67 100.007 109.563 99.7477 109.422 99.5244C109.271 99.3011 109.082 99.1234 108.854 98.9912C108.631 98.859 108.362 98.793 108.048 98.793C107.738 98.793 107.469 98.859 107.241 98.9912C107.018 99.1234 106.833 99.3011 106.688 99.5244C106.537 99.7477 106.425 100.007 106.353 100.304C106.284 100.6 106.25 100.91 106.25 101.233V101.377ZM113.94 105L112.512 97.6035H113.988L114.672 102.136L114.788 102.99L114.938 102.136L115.902 97.6035H116.976L117.939 102.122L118.097 103.018L118.227 102.115L118.89 97.6035H120.373L118.944 105H117.557L116.6 100.803L116.429 99.8867L116.265 100.803L115.328 105H113.94ZM123.969 104.016C123.969 103.701 124.069 103.432 124.27 103.209C124.475 102.986 124.769 102.874 125.151 102.874C125.525 102.874 125.817 102.986 126.026 103.209C126.236 103.428 126.341 103.697 126.341 104.016C126.341 104.335 126.234 104.601 126.02 104.815C125.81 105.03 125.521 105.137 125.151 105.137C124.778 105.137 124.486 105.03 124.276 104.815C124.071 104.597 123.969 104.33 123.969 104.016ZM123.969 98.2256C123.969 97.9111 124.069 97.6423 124.27 97.4189C124.475 97.1956 124.769 97.084 125.151 97.084C125.525 97.084 125.817 97.1956 126.026 97.4189C126.236 97.6377 126.341 97.9066 126.341 98.2256C126.341 98.5446 126.234 98.8112 126.02 99.0254C125.81 99.2396 125.521 99.3467 125.151 99.3467C124.778 99.3467 124.486 99.2396 124.276 99.0254C124.071 98.8066 123.969 98.54 123.969 98.2256ZM144.935 101.206C144.935 101.844 144.859 102.409 144.709 102.901C144.563 103.389 144.351 103.797 144.073 104.125C143.8 104.462 143.463 104.717 143.062 104.891C142.665 105.059 142.214 105.144 141.708 105.144C141.207 105.144 140.756 105.059 140.354 104.891C139.953 104.717 139.614 104.462 139.336 104.125C139.053 103.797 138.837 103.389 138.687 102.901C138.541 102.409 138.468 101.844 138.468 101.206V98.8477C138.468 98.2096 138.541 97.6468 138.687 97.1592C138.837 96.667 139.051 96.2523 139.329 95.915C139.607 95.5824 139.944 95.3317 140.341 95.1631C140.742 94.9899 141.193 94.9033 141.694 94.9033C142.2 94.9033 142.651 94.9899 143.048 95.1631C143.449 95.3317 143.791 95.5824 144.073 95.915C144.347 96.2523 144.559 96.667 144.709 97.1592C144.859 97.6468 144.935 98.2096 144.935 98.8477V101.206ZM140.108 100.625L143.273 98.2256C143.255 97.8701 143.205 97.5625 143.123 97.3027C143.046 97.043 142.934 96.8311 142.788 96.667C142.66 96.5212 142.503 96.4118 142.316 96.3389C142.134 96.266 141.927 96.2295 141.694 96.2295C141.444 96.2295 141.223 96.2728 141.031 96.3594C140.84 96.446 140.68 96.5736 140.553 96.7422C140.402 96.9336 140.291 97.182 140.218 97.4873C140.145 97.7881 140.108 98.1436 140.108 98.5537V99.8936C140.108 100.067 140.108 100.199 140.108 100.29C140.108 100.381 140.108 100.493 140.108 100.625ZM143.287 101.479V100.222C143.287 100.108 143.287 99.9893 143.287 99.8662C143.287 99.7432 143.287 99.6156 143.287 99.4834L140.122 101.869C140.145 102.184 140.193 102.462 140.266 102.703C140.343 102.945 140.446 103.145 140.573 103.305C140.701 103.478 140.858 103.608 141.045 103.694C141.236 103.781 141.457 103.824 141.708 103.824C141.954 103.824 142.171 103.783 142.357 103.701C142.544 103.615 142.704 103.489 142.836 103.325C142.986 103.134 143.098 102.883 143.171 102.573C143.248 102.263 143.287 101.899 143.287 101.479Z" fill="#380037"/>
<rect x="200" y="88.5" width="129" height="23" rx="5.5" fill="#FFEBF7"/>
<rect x="200" y="88.5" width="129" height="23" rx="5.5" stroke="#FFADF3"/>
<path d="M208.419 105V98.8271H206.437V97.6035H208.419V97.1523C208.419 96.6693 208.492 96.2454 208.638 95.8809C208.788 95.5117 209 95.2018 209.273 94.9512C209.547 94.7051 209.875 94.5182 210.258 94.3906C210.645 94.263 211.078 94.1992 211.557 94.1992C211.725 94.1992 211.889 94.2083 212.049 94.2266C212.213 94.2402 212.372 94.2585 212.527 94.2812C212.655 94.2995 212.785 94.3223 212.917 94.3496C213.049 94.3724 213.184 94.3975 213.32 94.4248L213.19 95.7305C213.008 95.6803 212.801 95.637 212.568 95.6006C212.34 95.5641 212.081 95.5459 211.789 95.5459C211.484 95.5459 211.219 95.5824 210.996 95.6553C210.777 95.7282 210.597 95.8353 210.456 95.9766C210.324 96.1087 210.224 96.2728 210.155 96.4688C210.091 96.6647 210.06 96.8926 210.06 97.1523V97.6035H212.801V98.8271H210.06V105H208.419ZM215.282 94.5H219.268V103.646H221.51V105H215.282V103.646H217.62V95.8604H215.282V94.5ZM226.828 105.137C226.281 105.137 225.78 105.046 225.324 104.863C224.873 104.681 224.486 104.428 224.162 104.104C223.839 103.785 223.588 103.41 223.41 102.977C223.237 102.539 223.15 102.067 223.15 101.562V101.281C223.15 100.702 223.242 100.178 223.424 99.709C223.606 99.2396 223.857 98.8385 224.176 98.5059C224.495 98.1732 224.864 97.918 225.283 97.7402C225.707 97.5579 226.158 97.4668 226.637 97.4668C227.17 97.4668 227.642 97.5579 228.052 97.7402C228.462 97.918 228.806 98.1663 229.084 98.4854C229.362 98.8089 229.572 99.194 229.713 99.6406C229.854 100.087 229.925 100.575 229.925 101.104V101.808H224.798V101.842C224.848 102.165 224.925 102.437 225.03 102.655C225.135 102.874 225.279 103.07 225.461 103.243C225.643 103.425 225.857 103.567 226.104 103.667C226.354 103.767 226.628 103.817 226.924 103.817C227.329 103.817 227.708 103.74 228.059 103.585C228.41 103.425 228.699 103.2 228.927 102.908L229.802 103.756C229.556 104.111 229.177 104.43 228.667 104.713C228.161 104.995 227.548 105.137 226.828 105.137ZM226.63 98.793C226.397 98.793 226.181 98.8363 225.98 98.9229C225.785 99.0049 225.609 99.1234 225.454 99.2783C225.299 99.4378 225.169 99.6292 225.064 99.8525C224.96 100.076 224.882 100.329 224.832 100.611H228.312V100.502C228.312 100.288 228.273 100.076 228.195 99.8662C228.118 99.652 228.008 99.4652 227.867 99.3057C227.73 99.1507 227.557 99.0277 227.348 98.9365C227.143 98.8408 226.903 98.793 226.63 98.793ZM235.031 100.092L236.802 97.6035H238.613L236.016 101.247L238.695 105H236.891L235.045 102.416L233.206 105H231.395L234.074 101.247L231.483 97.6035H233.281L235.031 100.092ZM246.379 101.288H240.876V99.9619H246.379V101.288ZM248.389 101.247C248.389 100.687 248.457 100.176 248.594 99.7158C248.73 99.251 248.929 98.8522 249.188 98.5195C249.448 98.1868 249.76 97.9294 250.125 97.7471C250.494 97.5602 250.909 97.4668 251.369 97.4668C251.643 97.4668 251.891 97.4964 252.114 97.5557C252.338 97.6104 252.54 97.6924 252.723 97.8018C252.841 97.8701 252.953 97.9521 253.058 98.0479C253.162 98.139 253.26 98.2393 253.352 98.3486L253.42 97.6035H254.903V104.795C254.903 105.292 254.821 105.731 254.657 106.114C254.498 106.502 254.272 106.83 253.98 107.099C253.684 107.363 253.329 107.563 252.914 107.7C252.504 107.841 252.05 107.912 251.554 107.912C251.344 107.912 251.114 107.889 250.863 107.844C250.613 107.798 250.362 107.728 250.111 107.632C249.861 107.536 249.621 107.411 249.394 107.256C249.166 107.101 248.97 106.914 248.806 106.695L249.578 105.704C249.71 105.864 249.852 106 250.002 106.114C250.157 106.233 250.314 106.328 250.474 106.401C250.633 106.474 250.795 106.527 250.959 106.559C251.123 106.595 251.289 106.613 251.458 106.613C251.75 106.613 252.007 106.572 252.23 106.49C252.458 106.408 252.652 106.29 252.812 106.135C252.957 105.984 253.069 105.8 253.146 105.581C253.229 105.362 253.27 105.114 253.27 104.836V104.323C253.174 104.424 253.074 104.517 252.969 104.604C252.868 104.69 252.759 104.765 252.641 104.829C252.463 104.929 252.267 105.005 252.053 105.055C251.839 105.109 251.606 105.137 251.355 105.137C250.9 105.137 250.49 105.043 250.125 104.856C249.76 104.665 249.448 104.401 249.188 104.063C248.933 103.731 248.735 103.337 248.594 102.881C248.457 102.421 248.389 101.924 248.389 101.391V101.247ZM250.029 101.391C250.029 101.719 250.061 102.029 250.125 102.32C250.193 102.612 250.3 102.865 250.446 103.079C250.588 103.302 250.768 103.478 250.986 103.605C251.205 103.729 251.465 103.79 251.766 103.79C251.952 103.79 252.121 103.77 252.271 103.729C252.426 103.688 252.565 103.631 252.688 103.558C252.812 103.48 252.921 103.387 253.017 103.277C253.112 103.168 253.197 103.047 253.27 102.915V99.6748C253.197 99.5381 253.108 99.415 253.003 99.3057C252.903 99.1963 252.786 99.1029 252.654 99.0254C252.536 98.9616 252.404 98.9115 252.258 98.875C252.112 98.834 251.952 98.8135 251.779 98.8135C251.474 98.8135 251.212 98.8773 250.993 99.0049C250.774 99.1325 250.594 99.3079 250.453 99.5312C250.307 99.7546 250.2 100.014 250.132 100.311C250.063 100.602 250.029 100.914 250.029 101.247V101.391ZM262.122 97.4668C262.386 97.4668 262.642 97.485 262.888 97.5215C263.138 97.5579 263.334 97.6012 263.476 97.6514L263.243 99.2646C262.993 99.21 262.744 99.1689 262.498 99.1416C262.257 99.1143 262.015 99.1006 261.773 99.1006C261.5 99.1006 261.254 99.1279 261.035 99.1826C260.816 99.2373 260.623 99.3216 260.454 99.4355C260.272 99.5449 260.117 99.6839 259.989 99.8525C259.862 100.021 259.755 100.215 259.668 100.434V105H258.034V97.6035H259.565L259.634 98.6289L259.641 98.7998C259.941 98.3851 260.301 98.0592 260.721 97.8223C261.145 97.5853 261.612 97.4668 262.122 97.4668ZM265.116 101.233C265.116 100.696 265.194 100.199 265.349 99.7432C265.504 99.2829 265.729 98.8841 266.025 98.5469C266.317 98.2096 266.675 97.9453 267.099 97.7539C267.522 97.5625 268.006 97.4668 268.548 97.4668C269.09 97.4668 269.573 97.5625 269.997 97.7539C270.425 97.9453 270.788 98.2096 271.084 98.5469C271.376 98.8841 271.599 99.2829 271.754 99.7432C271.909 100.199 271.986 100.696 271.986 101.233V101.377C271.986 101.919 271.909 102.418 271.754 102.874C271.599 103.33 271.376 103.726 271.084 104.063C270.792 104.401 270.432 104.665 270.004 104.856C269.58 105.048 269.099 105.144 268.562 105.144C268.019 105.144 267.534 105.048 267.105 104.856C266.677 104.665 266.317 104.401 266.025 104.063C265.729 103.726 265.504 103.33 265.349 102.874C265.194 102.418 265.116 101.919 265.116 101.377V101.233ZM266.75 101.377C266.75 101.71 266.784 102.024 266.853 102.32C266.925 102.617 267.037 102.876 267.188 103.1C267.333 103.323 267.52 103.501 267.748 103.633C267.976 103.76 268.247 103.824 268.562 103.824C268.867 103.824 269.133 103.76 269.361 103.633C269.589 103.501 269.776 103.323 269.922 103.1C270.068 102.876 270.175 102.617 270.243 102.32C270.316 102.024 270.353 101.71 270.353 101.377V101.233C270.353 100.91 270.316 100.6 270.243 100.304C270.17 100.007 270.063 99.7477 269.922 99.5244C269.771 99.3011 269.582 99.1234 269.354 98.9912C269.131 98.859 268.862 98.793 268.548 98.793C268.238 98.793 267.969 98.859 267.741 98.9912C267.518 99.1234 267.333 99.3011 267.188 99.5244C267.037 99.7477 266.925 100.007 266.853 100.304C266.784 100.6 266.75 100.91 266.75 101.233V101.377ZM274.44 105L273.012 97.6035H274.488L275.172 102.136L275.288 102.99L275.438 102.136L276.402 97.6035H277.476L278.439 102.122L278.597 103.018L278.727 102.115L279.39 97.6035H280.873L279.444 105H278.057L277.1 100.803L276.929 99.8867L276.765 100.803L275.828 105H274.44ZM284.469 104.016C284.469 103.701 284.569 103.432 284.77 103.209C284.975 102.986 285.269 102.874 285.651 102.874C286.025 102.874 286.317 102.986 286.526 103.209C286.736 103.428 286.841 103.697 286.841 104.016C286.841 104.335 286.734 104.601 286.52 104.815C286.31 105.03 286.021 105.137 285.651 105.137C285.278 105.137 284.986 105.03 284.776 104.815C284.571 104.597 284.469 104.33 284.469 104.016ZM284.469 98.2256C284.469 97.9111 284.569 97.6423 284.77 97.4189C284.975 97.1956 285.269 97.084 285.651 97.084C286.025 97.084 286.317 97.1956 286.526 97.4189C286.736 97.6377 286.841 97.9066 286.841 98.2256C286.841 98.5446 286.734 98.8112 286.52 99.0254C286.31 99.2396 286.021 99.3467 285.651 99.3467C285.278 99.3467 284.986 99.2396 284.776 99.0254C284.571 98.8066 284.469 98.54 284.469 98.2256ZM305.435 101.206C305.435 101.844 305.359 102.409 305.209 102.901C305.063 103.389 304.851 103.797 304.573 104.125C304.3 104.462 303.963 104.717 303.562 104.891C303.165 105.059 302.714 105.144 302.208 105.144C301.707 105.144 301.256 105.059 300.854 104.891C300.453 104.717 300.114 104.462 299.836 104.125C299.553 103.797 299.337 103.389 299.187 102.901C299.041 102.409 298.968 101.844 298.968 101.206V98.8477C298.968 98.2096 299.041 97.6468 299.187 97.1592C299.337 96.667 299.551 96.2523 299.829 95.915C300.107 95.5824 300.444 95.3317 300.841 95.1631C301.242 94.9899 301.693 94.9033 302.194 94.9033C302.7 94.9033 303.151 94.9899 303.548 95.1631C303.949 95.3317 304.291 95.5824 304.573 95.915C304.847 96.2523 305.059 96.667 305.209 97.1592C305.359 97.6468 305.435 98.2096 305.435 98.8477V101.206ZM300.608 100.625L303.773 98.2256C303.755 97.8701 303.705 97.5625 303.623 97.3027C303.546 97.043 303.434 96.8311 303.288 96.667C303.16 96.5212 303.003 96.4118 302.816 96.3389C302.634 96.266 302.427 96.2295 302.194 96.2295C301.944 96.2295 301.723 96.2728 301.531 96.3594C301.34 96.446 301.18 96.5736 301.053 96.7422C300.902 96.9336 300.791 97.182 300.718 97.4873C300.645 97.7881 300.608 98.1436 300.608 98.5537V99.8936C300.608 100.067 300.608 100.199 300.608 100.29C300.608 100.381 300.608 100.493 300.608 100.625ZM303.787 101.479V100.222C303.787 100.108 303.787 99.9893 303.787 99.8662C303.787 99.7432 303.787 99.6156 303.787 99.4834L300.622 101.869C300.645 102.184 300.693 102.462 300.766 102.703C300.843 102.945 300.946 103.145 301.073 103.305C301.201 103.478 301.358 103.608 301.545 103.694C301.736 103.781 301.957 103.824 302.208 103.824C302.454 103.824 302.671 103.783 302.857 103.701C303.044 103.615 303.204 103.489 303.336 103.325C303.486 103.134 303.598 102.883 303.671 102.573C303.748 102.263 303.787 101.899 303.787 101.479ZM309.495 104.016C309.495 103.701 309.595 103.432 309.796 103.209C310.001 102.986 310.295 102.874 310.678 102.874C311.051 102.874 311.343 102.986 311.553 103.209C311.762 103.428 311.867 103.697 311.867 104.016C311.867 104.335 311.76 104.601 311.546 104.815C311.336 105.03 311.047 105.137 310.678 105.137C310.304 105.137 310.012 105.03 309.803 104.815C309.598 104.597 309.495 104.33 309.495 104.016ZM321.239 101.452H322.49V102.778H321.239V105H319.605V102.778H315.299L315.258 101.773L319.558 95.0469H321.239V101.452ZM316.926 101.452H319.605V97.2344L319.414 97.5898L316.926 101.452Z" fill="#380037"/>
<path d="M345.233 99.9209H338.917V98.5537H345.233V99.9209ZM345.233 102.819H338.917V101.459H345.233V102.819Z" fill="#687A87"/>
<rect x="355" y="88.5" width="54" height="23" rx="5.5" fill="#FFEBF7"/>
<rect x="355" y="88.5" width="54" height="23" rx="5.5" stroke="#FFADF3"/>
<path d="M365.982 105H364.335V97.0703L361.785 98.0068V96.5645L365.88 95.0469H365.982V105ZM376.305 105H369.626V103.865L372.866 100.338C373.135 100.042 373.361 99.7773 373.543 99.5449C373.725 99.3079 373.873 99.0915 373.987 98.8955C374.097 98.6995 374.174 98.5173 374.22 98.3486C374.27 98.1755 374.295 98.0023 374.295 97.8291C374.295 97.5967 374.261 97.3848 374.192 97.1934C374.124 97.002 374.024 96.8379 373.892 96.7012C373.759 96.5645 373.6 96.4574 373.413 96.3799C373.231 96.3024 373.026 96.2637 372.798 96.2637C372.506 96.2637 372.253 96.3047 372.039 96.3867C371.825 96.4688 371.647 96.585 371.506 96.7354C371.36 96.8949 371.251 97.0885 371.178 97.3164C371.105 97.5397 371.068 97.7949 371.068 98.082H369.428C369.428 97.6491 369.507 97.2412 369.667 96.8584C369.826 96.471 370.054 96.1338 370.351 95.8467C370.642 95.5596 370.998 95.3317 371.417 95.1631C371.841 94.9945 372.312 94.9102 372.832 94.9102C373.32 94.9102 373.755 94.9808 374.138 95.1221C374.525 95.2633 374.851 95.4593 375.115 95.71C375.375 95.9606 375.573 96.2614 375.71 96.6123C375.847 96.9587 375.915 97.3415 375.915 97.7607C375.915 98.0752 375.863 98.3805 375.758 98.6768C375.658 98.9684 375.519 99.2578 375.341 99.5449C375.159 99.832 374.942 100.121 374.691 100.413C374.445 100.705 374.176 101.006 373.885 101.315L371.67 103.681H376.305V105ZM383.749 101.452H385V102.778H383.749V105H382.115V102.778H377.809L377.768 101.773L382.067 95.0469H383.749V101.452ZM379.436 101.452H382.115V97.2344L381.924 97.5898L379.436 101.452ZM388.821 104.016C388.821 103.701 388.922 103.432 389.122 103.209C389.327 102.986 389.621 102.874 390.004 102.874C390.378 102.874 390.669 102.986 390.879 103.209C391.089 103.428 391.193 103.697 391.193 104.016C391.193 104.335 391.086 104.601 390.872 104.815C390.662 105.03 390.373 105.137 390.004 105.137C389.63 105.137 389.339 105.03 389.129 104.815C388.924 104.597 388.821 104.33 388.821 104.016ZM401.386 97.6719C401.386 97.9727 401.336 98.2529 401.235 98.5127C401.14 98.7725 401.003 99.0049 400.825 99.21C400.716 99.3421 400.59 99.4652 400.449 99.5791C400.308 99.693 400.151 99.7933 399.978 99.8799C400.183 99.9756 400.372 100.087 400.545 100.215C400.723 100.338 400.878 100.481 401.01 100.646C401.197 100.864 401.342 101.113 401.447 101.391C401.552 101.669 401.604 101.969 401.604 102.293C401.604 102.753 401.52 103.161 401.352 103.517C401.183 103.872 400.953 104.168 400.661 104.405C400.365 104.647 400.019 104.829 399.622 104.952C399.23 105.075 398.806 105.137 398.351 105.137C397.886 105.137 397.453 105.075 397.052 104.952C396.655 104.829 396.311 104.647 396.02 104.405C395.723 104.168 395.491 103.874 395.322 103.523C395.158 103.168 395.076 102.758 395.076 102.293C395.076 102.02 395.113 101.76 395.186 101.514C395.263 101.268 395.372 101.04 395.514 100.83C395.655 100.63 395.824 100.45 396.02 100.29C396.22 100.126 396.443 99.987 396.689 99.873C396.48 99.7682 396.288 99.6406 396.115 99.4902C395.947 99.3398 395.803 99.1735 395.685 98.9912C395.562 98.8044 395.466 98.5993 395.397 98.376C395.329 98.1527 395.295 97.918 395.295 97.6719C395.295 97.2298 395.37 96.8379 395.521 96.4961C395.675 96.1543 395.887 95.8649 396.156 95.6279C396.421 95.391 396.737 95.2132 397.106 95.0947C397.48 94.9717 397.888 94.9102 398.33 94.9102C398.768 94.9102 399.171 94.9717 399.54 95.0947C399.914 95.2132 400.24 95.391 400.518 95.6279C400.786 95.8604 400.998 96.1497 401.153 96.4961C401.308 96.8379 401.386 97.2298 401.386 97.6719ZM399.971 102.204C399.971 101.958 399.93 101.735 399.848 101.534C399.77 101.329 399.661 101.151 399.52 101.001C399.374 100.86 399.201 100.75 399 100.673C398.799 100.595 398.578 100.557 398.337 100.557C398.086 100.557 397.861 100.595 397.66 100.673C397.464 100.75 397.296 100.86 397.154 101.001C397.013 101.151 396.904 101.329 396.826 101.534C396.753 101.735 396.717 101.96 396.717 102.211C396.717 102.466 396.756 102.696 396.833 102.901C396.91 103.102 397.022 103.271 397.168 103.407C397.309 103.539 397.478 103.642 397.674 103.715C397.874 103.783 398.1 103.817 398.351 103.817C398.588 103.817 398.804 103.781 399 103.708C399.201 103.635 399.374 103.53 399.52 103.394C399.656 103.252 399.766 103.084 399.848 102.888C399.93 102.687 399.971 102.459 399.971 102.204ZM399.759 97.7334C399.759 97.5101 399.722 97.3073 399.649 97.125C399.581 96.9427 399.485 96.7832 399.362 96.6465C399.235 96.5189 399.084 96.4186 398.911 96.3457C398.738 96.2728 398.542 96.2363 398.323 96.2363C398.109 96.2363 397.915 96.2728 397.742 96.3457C397.574 96.4141 397.428 96.512 397.305 96.6396C397.186 96.7673 397.095 96.9245 397.031 97.1113C396.967 97.2982 396.936 97.5055 396.936 97.7334C396.936 97.9567 396.967 98.1618 397.031 98.3486C397.095 98.5309 397.191 98.6859 397.318 98.8135C397.441 98.9456 397.59 99.0482 397.763 99.1211C397.936 99.194 398.13 99.2305 398.344 99.2305C398.558 99.2305 398.752 99.194 398.925 99.1211C399.098 99.0482 399.246 98.9456 399.369 98.8135C399.492 98.6859 399.588 98.5309 399.656 98.3486C399.725 98.1618 399.759 97.9567 399.759 97.7334Z" fill="#380037"/>
</svg>
