<svg width="720" height="160" viewBox="0 0 720 160" fill="none" xmlns="http://www.w3.org/2000/svg">
<rect x="0.5" y="0.5" width="719" height="71" rx="1.5" fill="#87CEFF"/>
<rect x="0.5" y="0.5" width="719" height="71" rx="1.5" stroke="#006590"/>
<rect x="268" y="0.5" width="59" height="71" rx="1.5" fill="#E5F2FF"/>
<rect x="268" y="0.5" width="59" height="71" rx="1.5" stroke="#001E2E" stroke-linecap="square" stroke-dasharray="6 6"/>
<rect width="12" height="24" transform="translate(291.5 24)" fill="white"/>
<path d="M298.795 29.8636V41.5H297.386V31.3409H297.318L294.477 33.2273V31.7955L297.386 29.8636H298.795Z" fill="#0B1D28"/>
<rect x="332" y="0.5" width="57" height="71" rx="1.5" fill="#E5F2FF"/>
<rect x="332" y="0.5" width="57" height="71" rx="1.5" stroke="#001E2E" stroke-linecap="square" stroke-dasharray="6 6"/>
<rect width="10" height="24" transform="translate(355.5 24)" fill="white"/>
<path d="M356.705 41.5V40.4773L360.545 36.2727C360.996 35.7803 361.367 35.3523 361.659 34.9886C361.951 34.6212 362.167 34.2765 362.307 33.9545C362.451 33.6288 362.523 33.2879 362.523 32.9318C362.523 32.5227 362.424 32.1686 362.227 31.8693C362.034 31.5701 361.769 31.339 361.432 31.1761C361.095 31.0133 360.716 30.9318 360.295 30.9318C359.848 30.9318 359.458 31.0246 359.125 31.2102C358.795 31.392 358.54 31.6477 358.358 31.9773C358.18 32.3068 358.091 32.6932 358.091 33.1364H356.75C356.75 32.4545 356.907 31.8561 357.222 31.3409C357.536 30.8258 357.964 30.4242 358.506 30.1364C359.051 29.8485 359.663 29.7045 360.341 29.7045C361.023 29.7045 361.627 29.8485 362.153 30.1364C362.68 30.4242 363.093 30.8125 363.392 31.3011C363.691 31.7898 363.841 32.3333 363.841 32.9318C363.841 33.3598 363.763 33.7784 363.608 34.1875C363.456 34.5928 363.191 35.0455 362.812 35.5455C362.438 36.0417 361.917 36.6477 361.25 37.3636L358.636 40.1591V40.25H364.045V41.5H356.705Z" fill="#0B1D28"/>
<rect x="394" y="0.5" width="58" height="71" rx="1.5" fill="#E5F2FF"/>
<rect x="394" y="0.5" width="58" height="71" rx="1.5" stroke="#001E2E" stroke-linecap="square" stroke-dasharray="6 6"/>
<rect width="11" height="24" transform="translate(417.5 24)" fill="white"/>
<path d="M422.636 41.6591C421.886 41.6591 421.218 41.5303 420.631 41.2727C420.047 41.0152 419.583 40.6572 419.239 40.1989C418.898 39.7367 418.712 39.2008 418.682 38.5909H420.114C420.144 38.9659 420.273 39.2898 420.5 39.5625C420.727 39.8314 421.025 40.0398 421.392 40.1875C421.759 40.3352 422.167 40.4091 422.614 40.4091C423.114 40.4091 423.557 40.322 423.943 40.1477C424.33 39.9735 424.633 39.7311 424.852 39.4205C425.072 39.1098 425.182 38.75 425.182 38.3409C425.182 37.9129 425.076 37.536 424.864 37.2102C424.652 36.8807 424.341 36.6231 423.932 36.4375C423.523 36.2519 423.023 36.1591 422.432 36.1591H421.5V34.9091H422.432C422.894 34.9091 423.299 34.8258 423.648 34.6591C424 34.4924 424.275 34.2576 424.472 33.9545C424.672 33.6515 424.773 33.2955 424.773 32.8864C424.773 32.4924 424.686 32.1496 424.511 31.858C424.337 31.5663 424.091 31.339 423.773 31.1761C423.458 31.0133 423.087 30.9318 422.659 30.9318C422.258 30.9318 421.879 31.0057 421.523 31.1534C421.17 31.2973 420.883 31.5076 420.659 31.7841C420.436 32.0568 420.314 32.3864 420.295 32.7727H418.932C418.955 32.1629 419.138 31.6288 419.483 31.1705C419.828 30.7083 420.278 30.3485 420.835 30.0909C421.396 29.8333 422.011 29.7045 422.682 29.7045C423.402 29.7045 424.019 29.8504 424.534 30.142C425.049 30.4299 425.445 30.8106 425.722 31.2841C425.998 31.7576 426.136 32.2689 426.136 32.8182C426.136 33.4735 425.964 34.0322 425.619 34.4943C425.278 34.9564 424.814 35.2765 424.227 35.4545V35.5455C424.962 35.6667 425.536 35.9792 425.949 36.483C426.362 36.983 426.568 37.6023 426.568 38.3409C426.568 38.9735 426.396 39.5417 426.051 40.0455C425.71 40.5455 425.244 40.9394 424.653 41.2273C424.063 41.5152 423.39 41.6591 422.636 41.6591Z" fill="#0B1D28"/>
<g clip-path="url(#clip0_8034_66452)">
<rect y="88" width="720" height="72" rx="2" fill="#87CEFF"/>
<rect x="0.5" y="88.5" width="236.333" height="71" rx="1.5" fill="#E5F2FF"/>
<rect x="0.5" y="88.5" width="236.333" height="71" rx="1.5" stroke="#001E2E" stroke-linecap="square" stroke-dasharray="6 6"/>
<rect width="12" height="24" transform="translate(112.667 112)" fill="white"/>
<path d="M119.962 117.864V129.5H118.553V119.341H118.485L115.644 121.227V119.795L118.553 117.864H119.962Z" fill="#0B1D28"/>
<rect x="241.833" y="88.5" width="236.333" height="71" rx="1.5" fill="#E5F2FF"/>
<rect x="241.833" y="88.5" width="236.333" height="71" rx="1.5" stroke="#001E2E" stroke-linecap="square" stroke-dasharray="6 6"/>
<rect width="10" height="24" transform="translate(355 112)" fill="white"/>
<path d="M356.205 129.5V128.477L360.045 124.273C360.496 123.78 360.867 123.352 361.159 122.989C361.451 122.621 361.667 122.277 361.807 121.955C361.951 121.629 362.023 121.288 362.023 120.932C362.023 120.523 361.924 120.169 361.727 119.869C361.534 119.57 361.269 119.339 360.932 119.176C360.595 119.013 360.216 118.932 359.795 118.932C359.348 118.932 358.958 119.025 358.625 119.21C358.295 119.392 358.04 119.648 357.858 119.977C357.68 120.307 357.591 120.693 357.591 121.136H356.25C356.25 120.455 356.407 119.856 356.722 119.341C357.036 118.826 357.464 118.424 358.006 118.136C358.551 117.848 359.163 117.705 359.841 117.705C360.523 117.705 361.127 117.848 361.653 118.136C362.18 118.424 362.593 118.812 362.892 119.301C363.191 119.79 363.341 120.333 363.341 120.932C363.341 121.36 363.263 121.778 363.108 122.188C362.956 122.593 362.691 123.045 362.312 123.545C361.938 124.042 361.417 124.648 360.75 125.364L358.136 128.159V128.25H363.545V129.5H356.205Z" fill="#0B1D28"/>
<rect x="483.167" y="88.5" width="236.333" height="71" rx="1.5" fill="#E5F2FF"/>
<rect x="483.167" y="88.5" width="236.333" height="71" rx="1.5" stroke="#001E2E" stroke-linecap="square" stroke-dasharray="6 6"/>
<rect width="11" height="24" transform="translate(595.833 112)" fill="white"/>
<path d="M600.969 129.659C600.219 129.659 599.551 129.53 598.964 129.273C598.38 129.015 597.916 128.657 597.572 128.199C597.231 127.737 597.045 127.201 597.015 126.591H598.447C598.477 126.966 598.606 127.29 598.833 127.562C599.06 127.831 599.358 128.04 599.725 128.188C600.092 128.335 600.5 128.409 600.947 128.409C601.447 128.409 601.89 128.322 602.276 128.148C602.663 127.973 602.966 127.731 603.185 127.42C603.405 127.11 603.515 126.75 603.515 126.341C603.515 125.913 603.409 125.536 603.197 125.21C602.985 124.881 602.674 124.623 602.265 124.438C601.856 124.252 601.356 124.159 600.765 124.159H599.833V122.909H600.765C601.227 122.909 601.632 122.826 601.981 122.659C602.333 122.492 602.608 122.258 602.805 121.955C603.005 121.652 603.106 121.295 603.106 120.886C603.106 120.492 603.019 120.15 602.844 119.858C602.67 119.566 602.424 119.339 602.106 119.176C601.791 119.013 601.42 118.932 600.992 118.932C600.591 118.932 600.212 119.006 599.856 119.153C599.503 119.297 599.216 119.508 598.992 119.784C598.769 120.057 598.647 120.386 598.628 120.773H597.265C597.288 120.163 597.471 119.629 597.816 119.17C598.161 118.708 598.611 118.348 599.168 118.091C599.729 117.833 600.344 117.705 601.015 117.705C601.735 117.705 602.352 117.85 602.867 118.142C603.382 118.43 603.778 118.811 604.055 119.284C604.331 119.758 604.469 120.269 604.469 120.818C604.469 121.473 604.297 122.032 603.952 122.494C603.611 122.956 603.147 123.277 602.56 123.455V123.545C603.295 123.667 603.869 123.979 604.282 124.483C604.695 124.983 604.901 125.602 604.901 126.341C604.901 126.973 604.729 127.542 604.384 128.045C604.043 128.545 603.577 128.939 602.986 129.227C602.396 129.515 601.723 129.659 600.969 129.659Z" fill="#0B1D28"/>
</g>
<rect x="0.5" y="88.5" width="719" height="71" rx="1.5" stroke="#006590"/>
<defs>
<clipPath id="clip0_8034_66452">
<rect y="88" width="720" height="72" rx="2" fill="white"/>
</clipPath>
</defs>
</svg>
