<svg width="722" height="162" viewBox="0 0 722 162" fill="none" xmlns="http://www.w3.org/2000/svg">
<g clip-path="url(#clip0_7484_36042)">
<rect x="1" y="1" width="420" height="72" fill="#D9BCF2"/>
<rect x="1" y="1" width="112" height="72" fill="white"/>
<rect x="1" y="1" width="112" height="72" stroke="black" stroke-dasharray="5 5"/>
<path d="M42.8182 30.8636V42.5H41.4091V30.8636H42.8182ZM49.2571 33.7727V34.9091H44.7344V33.7727H49.2571ZM46.0526 31.6818H47.3935V40C47.3935 40.3788 47.4484 40.6629 47.5582 40.8523C47.6719 41.0379 47.8158 41.1629 47.9901 41.2273C48.1681 41.2879 48.3556 41.3182 48.5526 41.3182C48.7003 41.3182 48.8215 41.3106 48.9162 41.2955C49.0109 41.2765 49.0866 41.2614 49.1435 41.25L49.4162 42.4545C49.3253 42.4886 49.1984 42.5227 49.0355 42.5568C48.8726 42.5947 48.6662 42.6136 48.4162 42.6136C48.0374 42.6136 47.6662 42.5322 47.3026 42.3693C46.9427 42.2064 46.6435 41.9583 46.4048 41.625C46.17 41.2917 46.0526 40.8712 46.0526 40.3636V31.6818ZM54.8395 42.6818C53.9986 42.6818 53.2732 42.4962 52.6634 42.125C52.0573 41.75 51.5895 41.2273 51.2599 40.5568C50.9342 39.8826 50.7713 39.0985 50.7713 38.2045C50.7713 37.3106 50.9342 36.5227 51.2599 35.8409C51.5895 35.1553 52.0478 34.6212 52.6349 34.2386C53.2259 33.8523 53.9152 33.6591 54.7031 33.6591C55.1577 33.6591 55.6065 33.7348 56.0497 33.8864C56.4929 34.0379 56.8963 34.2841 57.2599 34.625C57.6236 34.9621 57.9134 35.4091 58.1293 35.9659C58.3452 36.5227 58.4531 37.2083 58.4531 38.0227V38.5909H51.7259V37.4318H57.0895C57.0895 36.9394 56.991 36.5 56.794 36.1136C56.6009 35.7273 56.3243 35.4223 55.9645 35.1989C55.6084 34.9754 55.188 34.8636 54.7031 34.8636C54.169 34.8636 53.7069 34.9962 53.3168 35.2614C52.9304 35.5227 52.633 35.8636 52.4247 36.2841C52.2164 36.7045 52.1122 37.1553 52.1122 37.6364V38.4091C52.1122 39.0682 52.2259 39.6269 52.4531 40.0852C52.6842 40.5398 53.0043 40.8864 53.4134 41.125C53.8224 41.3598 54.2978 41.4773 54.8395 41.4773C55.1918 41.4773 55.5099 41.428 55.794 41.3295C56.0819 41.2273 56.33 41.0758 56.5384 40.875C56.7467 40.6705 56.9077 40.4167 57.0213 40.1136L58.3168 40.4773C58.1804 40.9167 57.9512 41.303 57.6293 41.6364C57.3073 41.9659 56.9096 42.2235 56.4361 42.4091C55.9626 42.5909 55.4304 42.6818 54.8395 42.6818ZM60.4929 42.5V33.7727H61.7884V35.1364H61.902C62.0838 34.6705 62.3774 34.3087 62.7827 34.0511C63.188 33.7898 63.6747 33.6591 64.2429 33.6591C64.8187 33.6591 65.2978 33.7898 65.6804 34.0511C66.0668 34.3087 66.3679 34.6705 66.5838 35.1364H66.6747C66.8982 34.6856 67.2334 34.3277 67.6804 34.0625C68.1274 33.7936 68.6634 33.6591 69.2884 33.6591C70.0687 33.6591 70.7069 33.9034 71.2031 34.392C71.6993 34.8769 71.9474 35.6326 71.9474 36.6591V42.5H70.6065V36.6591C70.6065 36.0152 70.4304 35.5549 70.0781 35.2784C69.7259 35.0019 69.3111 34.8636 68.8338 34.8636C68.2202 34.8636 67.7448 35.0492 67.4077 35.4205C67.0705 35.7879 66.902 36.2538 66.902 36.8182V42.5H65.5384V36.5227C65.5384 36.0265 65.3774 35.6269 65.0554 35.3239C64.7334 35.017 64.3187 34.8636 63.8111 34.8636C63.4626 34.8636 63.1368 34.9564 62.8338 35.142C62.5346 35.3277 62.2921 35.5852 62.1065 35.9148C61.9247 36.2405 61.8338 36.6174 61.8338 37.0455V42.5H60.4929Z" fill="black"/>
<rect x="129" y="1" width="112" height="72" fill="white"/>
<rect x="129" y="1" width="112" height="72" stroke="black" stroke-dasharray="5 5"/>
<path d="M170.818 30.8636V42.5H169.409V30.8636H170.818ZM177.257 33.7727V34.9091H172.734V33.7727H177.257ZM174.053 31.6818H175.393V40C175.393 40.3788 175.448 40.6629 175.558 40.8523C175.672 41.0379 175.816 41.1629 175.99 41.2273C176.168 41.2879 176.356 41.3182 176.553 41.3182C176.7 41.3182 176.821 41.3106 176.916 41.2955C177.011 41.2765 177.087 41.2614 177.143 41.25L177.416 42.4545C177.325 42.4886 177.198 42.5227 177.036 42.5568C176.873 42.5947 176.666 42.6136 176.416 42.6136C176.037 42.6136 175.666 42.5322 175.303 42.3693C174.943 42.2064 174.643 41.9583 174.405 41.625C174.17 41.2917 174.053 40.8712 174.053 40.3636V31.6818ZM182.839 42.6818C181.999 42.6818 181.273 42.4962 180.663 42.125C180.057 41.75 179.589 41.2273 179.26 40.5568C178.934 39.8826 178.771 39.0985 178.771 38.2045C178.771 37.3106 178.934 36.5227 179.26 35.8409C179.589 35.1553 180.048 34.6212 180.635 34.2386C181.226 33.8523 181.915 33.6591 182.703 33.6591C183.158 33.6591 183.607 33.7348 184.05 33.8864C184.493 34.0379 184.896 34.2841 185.26 34.625C185.624 34.9621 185.913 35.4091 186.129 35.9659C186.345 36.5227 186.453 37.2083 186.453 38.0227V38.5909H179.726V37.4318H185.089C185.089 36.9394 184.991 36.5 184.794 36.1136C184.601 35.7273 184.324 35.4223 183.964 35.1989C183.608 34.9754 183.188 34.8636 182.703 34.8636C182.169 34.8636 181.707 34.9962 181.317 35.2614C180.93 35.5227 180.633 35.8636 180.425 36.2841C180.216 36.7045 180.112 37.1553 180.112 37.6364V38.4091C180.112 39.0682 180.226 39.6269 180.453 40.0852C180.684 40.5398 181.004 40.8864 181.413 41.125C181.822 41.3598 182.298 41.4773 182.839 41.4773C183.192 41.4773 183.51 41.428 183.794 41.3295C184.082 41.2273 184.33 41.0758 184.538 40.875C184.747 40.6705 184.908 40.4167 185.021 40.1136L186.317 40.4773C186.18 40.9167 185.951 41.303 185.629 41.6364C185.307 41.9659 184.91 42.2235 184.436 42.4091C183.963 42.5909 183.43 42.6818 182.839 42.6818ZM188.493 42.5V33.7727H189.788V35.1364H189.902C190.084 34.6705 190.377 34.3087 190.783 34.0511C191.188 33.7898 191.675 33.6591 192.243 33.6591C192.819 33.6591 193.298 33.7898 193.68 34.0511C194.067 34.3087 194.368 34.6705 194.584 35.1364H194.675C194.898 34.6856 195.233 34.3277 195.68 34.0625C196.127 33.7936 196.663 33.6591 197.288 33.6591C198.069 33.6591 198.707 33.9034 199.203 34.392C199.699 34.8769 199.947 35.6326 199.947 36.6591V42.5H198.607V36.6591C198.607 36.0152 198.43 35.5549 198.078 35.2784C197.726 35.0019 197.311 34.8636 196.834 34.8636C196.22 34.8636 195.745 35.0492 195.408 35.4205C195.071 35.7879 194.902 36.2538 194.902 36.8182V42.5H193.538V36.5227C193.538 36.0265 193.377 35.6269 193.055 35.3239C192.733 35.017 192.319 34.8636 191.811 34.8636C191.463 34.8636 191.137 34.9564 190.834 35.142C190.535 35.3277 190.292 35.5852 190.107 35.9148C189.925 36.2405 189.834 36.6174 189.834 37.0455V42.5H188.493Z" fill="black"/>
<rect x="257" y="1" width="112" height="72" fill="white"/>
<rect x="257" y="1" width="112" height="72" stroke="black" stroke-dasharray="5 5"/>
<path d="M298.818 30.8636V42.5H297.409V30.8636H298.818ZM305.257 33.7727V34.9091H300.734V33.7727H305.257ZM302.053 31.6818H303.393V40C303.393 40.3788 303.448 40.6629 303.558 40.8523C303.672 41.0379 303.816 41.1629 303.99 41.2273C304.168 41.2879 304.356 41.3182 304.553 41.3182C304.7 41.3182 304.821 41.3106 304.916 41.2955C305.011 41.2765 305.087 41.2614 305.143 41.25L305.416 42.4545C305.325 42.4886 305.198 42.5227 305.036 42.5568C304.873 42.5947 304.666 42.6136 304.416 42.6136C304.037 42.6136 303.666 42.5322 303.303 42.3693C302.943 42.2064 302.643 41.9583 302.405 41.625C302.17 41.2917 302.053 40.8712 302.053 40.3636V31.6818ZM310.839 42.6818C309.999 42.6818 309.273 42.4962 308.663 42.125C308.057 41.75 307.589 41.2273 307.26 40.5568C306.934 39.8826 306.771 39.0985 306.771 38.2045C306.771 37.3106 306.934 36.5227 307.26 35.8409C307.589 35.1553 308.048 34.6212 308.635 34.2386C309.226 33.8523 309.915 33.6591 310.703 33.6591C311.158 33.6591 311.607 33.7348 312.05 33.8864C312.493 34.0379 312.896 34.2841 313.26 34.625C313.624 34.9621 313.913 35.4091 314.129 35.9659C314.345 36.5227 314.453 37.2083 314.453 38.0227V38.5909H307.726V37.4318H313.089C313.089 36.9394 312.991 36.5 312.794 36.1136C312.601 35.7273 312.324 35.4223 311.964 35.1989C311.608 34.9754 311.188 34.8636 310.703 34.8636C310.169 34.8636 309.707 34.9962 309.317 35.2614C308.93 35.5227 308.633 35.8636 308.425 36.2841C308.216 36.7045 308.112 37.1553 308.112 37.6364V38.4091C308.112 39.0682 308.226 39.6269 308.453 40.0852C308.684 40.5398 309.004 40.8864 309.413 41.125C309.822 41.3598 310.298 41.4773 310.839 41.4773C311.192 41.4773 311.51 41.428 311.794 41.3295C312.082 41.2273 312.33 41.0758 312.538 40.875C312.747 40.6705 312.908 40.4167 313.021 40.1136L314.317 40.4773C314.18 40.9167 313.951 41.303 313.629 41.6364C313.307 41.9659 312.91 42.2235 312.436 42.4091C311.963 42.5909 311.43 42.6818 310.839 42.6818ZM316.493 42.5V33.7727H317.788V35.1364H317.902C318.084 34.6705 318.377 34.3087 318.783 34.0511C319.188 33.7898 319.675 33.6591 320.243 33.6591C320.819 33.6591 321.298 33.7898 321.68 34.0511C322.067 34.3087 322.368 34.6705 322.584 35.1364H322.675C322.898 34.6856 323.233 34.3277 323.68 34.0625C324.127 33.7936 324.663 33.6591 325.288 33.6591C326.069 33.6591 326.707 33.9034 327.203 34.392C327.699 34.8769 327.947 35.6326 327.947 36.6591V42.5H326.607V36.6591C326.607 36.0152 326.43 35.5549 326.078 35.2784C325.726 35.0019 325.311 34.8636 324.834 34.8636C324.22 34.8636 323.745 35.0492 323.408 35.4205C323.071 35.7879 322.902 36.2538 322.902 36.8182V42.5H321.538V36.5227C321.538 36.0265 321.377 35.6269 321.055 35.3239C320.733 35.017 320.319 34.8636 319.811 34.8636C319.463 34.8636 319.137 34.9564 318.834 35.142C318.535 35.3277 318.292 35.5852 318.107 35.9148C317.925 36.2405 317.834 36.6174 317.834 37.0455V42.5H316.493Z" fill="black"/>
</g>
<rect x="1" y="1" width="420" height="72" stroke="#7F20D2" stroke-dasharray="5 5"/>
<g clip-path="url(#clip1_7484_36042)">
<rect x="437" y="1" width="284" height="160" fill="#D9BCF2"/>
<rect x="437" y="1" width="112" height="72" fill="white"/>
<rect x="437" y="1" width="112" height="72" stroke="black" stroke-dasharray="5 5"/>
<path d="M478.818 30.8636V42.5H477.409V30.8636H478.818ZM485.257 33.7727V34.9091H480.734V33.7727H485.257ZM482.053 31.6818H483.393V40C483.393 40.3788 483.448 40.6629 483.558 40.8523C483.672 41.0379 483.816 41.1629 483.99 41.2273C484.168 41.2879 484.356 41.3182 484.553 41.3182C484.7 41.3182 484.821 41.3106 484.916 41.2955C485.011 41.2765 485.087 41.2614 485.143 41.25L485.416 42.4545C485.325 42.4886 485.198 42.5227 485.036 42.5568C484.873 42.5947 484.666 42.6136 484.416 42.6136C484.037 42.6136 483.666 42.5322 483.303 42.3693C482.943 42.2064 482.643 41.9583 482.405 41.625C482.17 41.2917 482.053 40.8712 482.053 40.3636V31.6818ZM490.839 42.6818C489.999 42.6818 489.273 42.4962 488.663 42.125C488.057 41.75 487.589 41.2273 487.26 40.5568C486.934 39.8826 486.771 39.0985 486.771 38.2045C486.771 37.3106 486.934 36.5227 487.26 35.8409C487.589 35.1553 488.048 34.6212 488.635 34.2386C489.226 33.8523 489.915 33.6591 490.703 33.6591C491.158 33.6591 491.607 33.7348 492.05 33.8864C492.493 34.0379 492.896 34.2841 493.26 34.625C493.624 34.9621 493.913 35.4091 494.129 35.9659C494.345 36.5227 494.453 37.2083 494.453 38.0227V38.5909H487.726V37.4318H493.089C493.089 36.9394 492.991 36.5 492.794 36.1136C492.601 35.7273 492.324 35.4223 491.964 35.1989C491.608 34.9754 491.188 34.8636 490.703 34.8636C490.169 34.8636 489.707 34.9962 489.317 35.2614C488.93 35.5227 488.633 35.8636 488.425 36.2841C488.216 36.7045 488.112 37.1553 488.112 37.6364V38.4091C488.112 39.0682 488.226 39.6269 488.453 40.0852C488.684 40.5398 489.004 40.8864 489.413 41.125C489.822 41.3598 490.298 41.4773 490.839 41.4773C491.192 41.4773 491.51 41.428 491.794 41.3295C492.082 41.2273 492.33 41.0758 492.538 40.875C492.747 40.6705 492.908 40.4167 493.021 40.1136L494.317 40.4773C494.18 40.9167 493.951 41.303 493.629 41.6364C493.307 41.9659 492.91 42.2235 492.436 42.4091C491.963 42.5909 491.43 42.6818 490.839 42.6818ZM496.493 42.5V33.7727H497.788V35.1364H497.902C498.084 34.6705 498.377 34.3087 498.783 34.0511C499.188 33.7898 499.675 33.6591 500.243 33.6591C500.819 33.6591 501.298 33.7898 501.68 34.0511C502.067 34.3087 502.368 34.6705 502.584 35.1364H502.675C502.898 34.6856 503.233 34.3277 503.68 34.0625C504.127 33.7936 504.663 33.6591 505.288 33.6591C506.069 33.6591 506.707 33.9034 507.203 34.392C507.699 34.8769 507.947 35.6326 507.947 36.6591V42.5H506.607V36.6591C506.607 36.0152 506.43 35.5549 506.078 35.2784C505.726 35.0019 505.311 34.8636 504.834 34.8636C504.22 34.8636 503.745 35.0492 503.408 35.4205C503.071 35.7879 502.902 36.2538 502.902 36.8182V42.5H501.538V36.5227C501.538 36.0265 501.377 35.6269 501.055 35.3239C500.733 35.017 500.319 34.8636 499.811 34.8636C499.463 34.8636 499.137 34.9564 498.834 35.142C498.535 35.3277 498.292 35.5852 498.107 35.9148C497.925 36.2405 497.834 36.6174 497.834 37.0455V42.5H496.493Z" fill="black"/>
<rect x="565" y="1" width="112" height="72" fill="white"/>
<rect x="565" y="1" width="112" height="72" stroke="black" stroke-dasharray="5 5"/>
<path d="M606.818 30.8636V42.5H605.409V30.8636H606.818ZM613.257 33.7727V34.9091H608.734V33.7727H613.257ZM610.053 31.6818H611.393V40C611.393 40.3788 611.448 40.6629 611.558 40.8523C611.672 41.0379 611.816 41.1629 611.99 41.2273C612.168 41.2879 612.356 41.3182 612.553 41.3182C612.7 41.3182 612.821 41.3106 612.916 41.2955C613.011 41.2765 613.087 41.2614 613.143 41.25L613.416 42.4545C613.325 42.4886 613.198 42.5227 613.036 42.5568C612.873 42.5947 612.666 42.6136 612.416 42.6136C612.037 42.6136 611.666 42.5322 611.303 42.3693C610.943 42.2064 610.643 41.9583 610.405 41.625C610.17 41.2917 610.053 40.8712 610.053 40.3636V31.6818ZM618.839 42.6818C617.999 42.6818 617.273 42.4962 616.663 42.125C616.057 41.75 615.589 41.2273 615.26 40.5568C614.934 39.8826 614.771 39.0985 614.771 38.2045C614.771 37.3106 614.934 36.5227 615.26 35.8409C615.589 35.1553 616.048 34.6212 616.635 34.2386C617.226 33.8523 617.915 33.6591 618.703 33.6591C619.158 33.6591 619.607 33.7348 620.05 33.8864C620.493 34.0379 620.896 34.2841 621.26 34.625C621.624 34.9621 621.913 35.4091 622.129 35.9659C622.345 36.5227 622.453 37.2083 622.453 38.0227V38.5909H615.726V37.4318H621.089C621.089 36.9394 620.991 36.5 620.794 36.1136C620.601 35.7273 620.324 35.4223 619.964 35.1989C619.608 34.9754 619.188 34.8636 618.703 34.8636C618.169 34.8636 617.707 34.9962 617.317 35.2614C616.93 35.5227 616.633 35.8636 616.425 36.2841C616.216 36.7045 616.112 37.1553 616.112 37.6364V38.4091C616.112 39.0682 616.226 39.6269 616.453 40.0852C616.684 40.5398 617.004 40.8864 617.413 41.125C617.822 41.3598 618.298 41.4773 618.839 41.4773C619.192 41.4773 619.51 41.428 619.794 41.3295C620.082 41.2273 620.33 41.0758 620.538 40.875C620.747 40.6705 620.908 40.4167 621.021 40.1136L622.317 40.4773C622.18 40.9167 621.951 41.303 621.629 41.6364C621.307 41.9659 620.91 42.2235 620.436 42.4091C619.963 42.5909 619.43 42.6818 618.839 42.6818ZM624.493 42.5V33.7727H625.788V35.1364H625.902C626.084 34.6705 626.377 34.3087 626.783 34.0511C627.188 33.7898 627.675 33.6591 628.243 33.6591C628.819 33.6591 629.298 33.7898 629.68 34.0511C630.067 34.3087 630.368 34.6705 630.584 35.1364H630.675C630.898 34.6856 631.233 34.3277 631.68 34.0625C632.127 33.7936 632.663 33.6591 633.288 33.6591C634.069 33.6591 634.707 33.9034 635.203 34.392C635.699 34.8769 635.947 35.6326 635.947 36.6591V42.5H634.607V36.6591C634.607 36.0152 634.43 35.5549 634.078 35.2784C633.726 35.0019 633.311 34.8636 632.834 34.8636C632.22 34.8636 631.745 35.0492 631.408 35.4205C631.071 35.7879 630.902 36.2538 630.902 36.8182V42.5H629.538V36.5227C629.538 36.0265 629.377 35.6269 629.055 35.3239C628.733 35.017 628.319 34.8636 627.811 34.8636C627.463 34.8636 627.137 34.9564 626.834 35.142C626.535 35.3277 626.292 35.5852 626.107 35.9148C625.925 36.2405 625.834 36.6174 625.834 37.0455V42.5H624.493Z" fill="black"/>
<rect x="437" y="89" width="112" height="72" fill="white"/>
<rect x="437" y="89" width="112" height="72" stroke="black" stroke-dasharray="5 5"/>
<path d="M478.818 118.864V130.5H477.409V118.864H478.818ZM485.257 121.773V122.909H480.734V121.773H485.257ZM482.053 119.682H483.393V128C483.393 128.379 483.448 128.663 483.558 128.852C483.672 129.038 483.816 129.163 483.99 129.227C484.168 129.288 484.356 129.318 484.553 129.318C484.7 129.318 484.821 129.311 484.916 129.295C485.011 129.277 485.087 129.261 485.143 129.25L485.416 130.455C485.325 130.489 485.198 130.523 485.036 130.557C484.873 130.595 484.666 130.614 484.416 130.614C484.037 130.614 483.666 130.532 483.303 130.369C482.943 130.206 482.643 129.958 482.405 129.625C482.17 129.292 482.053 128.871 482.053 128.364V119.682ZM490.839 130.682C489.999 130.682 489.273 130.496 488.663 130.125C488.057 129.75 487.589 129.227 487.26 128.557C486.934 127.883 486.771 127.098 486.771 126.205C486.771 125.311 486.934 124.523 487.26 123.841C487.589 123.155 488.048 122.621 488.635 122.239C489.226 121.852 489.915 121.659 490.703 121.659C491.158 121.659 491.607 121.735 492.05 121.886C492.493 122.038 492.896 122.284 493.26 122.625C493.624 122.962 493.913 123.409 494.129 123.966C494.345 124.523 494.453 125.208 494.453 126.023V126.591H487.726V125.432H493.089C493.089 124.939 492.991 124.5 492.794 124.114C492.601 123.727 492.324 123.422 491.964 123.199C491.608 122.975 491.188 122.864 490.703 122.864C490.169 122.864 489.707 122.996 489.317 123.261C488.93 123.523 488.633 123.864 488.425 124.284C488.216 124.705 488.112 125.155 488.112 125.636V126.409C488.112 127.068 488.226 127.627 488.453 128.085C488.684 128.54 489.004 128.886 489.413 129.125C489.822 129.36 490.298 129.477 490.839 129.477C491.192 129.477 491.51 129.428 491.794 129.33C492.082 129.227 492.33 129.076 492.538 128.875C492.747 128.67 492.908 128.417 493.021 128.114L494.317 128.477C494.18 128.917 493.951 129.303 493.629 129.636C493.307 129.966 492.91 130.223 492.436 130.409C491.963 130.591 491.43 130.682 490.839 130.682ZM496.493 130.5V121.773H497.788V123.136H497.902C498.084 122.67 498.377 122.309 498.783 122.051C499.188 121.79 499.675 121.659 500.243 121.659C500.819 121.659 501.298 121.79 501.68 122.051C502.067 122.309 502.368 122.67 502.584 123.136H502.675C502.898 122.686 503.233 122.328 503.68 122.062C504.127 121.794 504.663 121.659 505.288 121.659C506.069 121.659 506.707 121.903 507.203 122.392C507.699 122.877 507.947 123.633 507.947 124.659V130.5H506.607V124.659C506.607 124.015 506.43 123.555 506.078 123.278C505.726 123.002 505.311 122.864 504.834 122.864C504.22 122.864 503.745 123.049 503.408 123.42C503.071 123.788 502.902 124.254 502.902 124.818V130.5H501.538V124.523C501.538 124.027 501.377 123.627 501.055 123.324C500.733 123.017 500.319 122.864 499.811 122.864C499.463 122.864 499.137 122.956 498.834 123.142C498.535 123.328 498.292 123.585 498.107 123.915C497.925 124.241 497.834 124.617 497.834 125.045V130.5H496.493Z" fill="black"/>
</g>
<rect x="437" y="1" width="284" height="160" stroke="#7F20D2" stroke-dasharray="5 5"/>
<defs>
<clipPath id="clip0_7484_36042">
<rect x="1" y="1" width="420" height="72" fill="white"/>
</clipPath>
<clipPath id="clip1_7484_36042">
<rect x="437" y="1" width="284" height="160" fill="white"/>
</clipPath>
</defs>
</svg>
