<svg width="720" height="160" viewBox="0 0 720 160" fill="none" xmlns="http://www.w3.org/2000/svg">
<g clip-path="url(#clip0_8033_66205)">
<rect width="720" height="72" rx="2" fill="#87CEFF"/>
<rect x="0.5" y="0.5" width="236.333" height="71" rx="1.5" fill="white"/>
<rect x="0.5" y="0.5" width="236.333" height="71" rx="1.5" stroke="#001E2E" stroke-linecap="square" stroke-dasharray="6 6"/>
<rect width="12" height="24" transform="translate(112.667 24)" fill="white"/>
<path d="M119.962 29.8636V41.5H118.553V31.3409H118.485L115.644 33.2273V31.7955L118.553 29.8636H119.962Z" fill="#0B1D28"/>
<rect x="241.833" y="0.5" width="236.333" height="71" rx="1.5" fill="white"/>
<rect x="241.833" y="0.5" width="236.333" height="71" rx="1.5" stroke="#001E2E" stroke-linecap="square" stroke-dasharray="6 6"/>
<rect width="10" height="24" transform="translate(355 24)" fill="white"/>
<path d="M356.205 41.5V40.4773L360.045 36.2727C360.496 35.7803 360.867 35.3523 361.159 34.9886C361.451 34.6212 361.667 34.2765 361.807 33.9545C361.951 33.6288 362.023 33.2879 362.023 32.9318C362.023 32.5227 361.924 32.1686 361.727 31.8693C361.534 31.5701 361.269 31.339 360.932 31.1761C360.595 31.0133 360.216 30.9318 359.795 30.9318C359.348 30.9318 358.958 31.0246 358.625 31.2102C358.295 31.392 358.04 31.6477 357.858 31.9773C357.68 32.3068 357.591 32.6932 357.591 33.1364H356.25C356.25 32.4545 356.407 31.8561 356.722 31.3409C357.036 30.8258 357.464 30.4242 358.006 30.1364C358.551 29.8485 359.163 29.7045 359.841 29.7045C360.523 29.7045 361.127 29.8485 361.653 30.1364C362.18 30.4242 362.593 30.8125 362.892 31.3011C363.191 31.7898 363.341 32.3333 363.341 32.9318C363.341 33.3598 363.263 33.7784 363.108 34.1875C362.956 34.5928 362.691 35.0455 362.312 35.5455C361.938 36.0417 361.417 36.6477 360.75 37.3636L358.136 40.1591V40.25H363.545V41.5H356.205Z" fill="#0B1D28"/>
<rect x="483.167" y="0.5" width="236.333" height="71" rx="1.5" fill="white"/>
<rect x="483.167" y="0.5" width="236.333" height="71" rx="1.5" stroke="#001E2E" stroke-linecap="square" stroke-dasharray="6 6"/>
<rect width="11" height="24" transform="translate(595.833 24)" fill="white"/>
<path d="M600.969 41.6591C600.219 41.6591 599.551 41.5303 598.964 41.2727C598.38 41.0152 597.916 40.6572 597.572 40.1989C597.231 39.7367 597.045 39.2008 597.015 38.5909H598.447C598.477 38.9659 598.606 39.2898 598.833 39.5625C599.06 39.8314 599.358 40.0398 599.725 40.1875C600.092 40.3352 600.5 40.4091 600.947 40.4091C601.447 40.4091 601.89 40.322 602.276 40.1477C602.663 39.9735 602.966 39.7311 603.185 39.4205C603.405 39.1098 603.515 38.75 603.515 38.3409C603.515 37.9129 603.409 37.536 603.197 37.2102C602.985 36.8807 602.674 36.6231 602.265 36.4375C601.856 36.2519 601.356 36.1591 600.765 36.1591H599.833V34.9091H600.765C601.227 34.9091 601.632 34.8258 601.981 34.6591C602.333 34.4924 602.608 34.2576 602.805 33.9545C603.005 33.6515 603.106 33.2955 603.106 32.8864C603.106 32.4924 603.019 32.1496 602.844 31.858C602.67 31.5663 602.424 31.339 602.106 31.1761C601.791 31.0133 601.42 30.9318 600.992 30.9318C600.591 30.9318 600.212 31.0057 599.856 31.1534C599.503 31.2973 599.216 31.5076 598.992 31.7841C598.769 32.0568 598.647 32.3864 598.628 32.7727H597.265C597.288 32.1629 597.471 31.6288 597.816 31.1705C598.161 30.7083 598.611 30.3485 599.168 30.0909C599.729 29.8333 600.344 29.7045 601.015 29.7045C601.735 29.7045 602.352 29.8504 602.867 30.142C603.382 30.4299 603.778 30.8106 604.055 31.2841C604.331 31.7576 604.469 32.2689 604.469 32.8182C604.469 33.4735 604.297 34.0322 603.952 34.4943C603.611 34.9564 603.147 35.2765 602.56 35.4545V35.5455C603.295 35.6667 603.869 35.9792 604.282 36.483C604.695 36.983 604.901 37.6023 604.901 38.3409C604.901 38.9735 604.729 39.5417 604.384 40.0455C604.043 40.5455 603.577 40.9394 602.986 41.2273C602.396 41.5152 601.723 41.6591 600.969 41.6591Z" fill="#0B1D28"/>
</g>
<rect x="0.5" y="0.5" width="719" height="71" rx="1.5" stroke="#006590"/>
<g clip-path="url(#clip1_8033_66205)">
<rect y="88" width="720" height="72" rx="2" fill="#87CEFF"/>
<rect x="0.5" y="88.5" width="191" height="71" rx="1.5" fill="white"/>
<rect x="0.5" y="88.5" width="191" height="71" rx="1.5" stroke="#001E2E" stroke-linecap="square" stroke-dasharray="6 6"/>
<rect width="42" height="24" transform="translate(75 112)" fill="white"/>
<path d="M82.7727 120.773C82.7045 120.197 82.428 119.75 81.9432 119.432C81.4583 119.114 80.8636 118.955 80.1591 118.955C79.6439 118.955 79.1932 119.038 78.8068 119.205C78.4242 119.371 78.125 119.6 77.9091 119.892C77.697 120.184 77.5909 120.515 77.5909 120.886C77.5909 121.197 77.6648 121.464 77.8125 121.688C77.964 121.907 78.1572 122.091 78.392 122.239C78.6269 122.383 78.8731 122.502 79.1307 122.597C79.3883 122.687 79.625 122.761 79.8409 122.818L81.0227 123.136C81.3258 123.216 81.6629 123.326 82.0341 123.466C82.4091 123.606 82.767 123.797 83.108 124.04C83.4527 124.278 83.7367 124.585 83.9602 124.96C84.1837 125.335 84.2955 125.795 84.2955 126.341C84.2955 126.97 84.1307 127.538 83.8011 128.045C83.4754 128.553 82.9981 128.956 82.3693 129.256C81.7443 129.555 80.9848 129.705 80.0909 129.705C79.2576 129.705 78.536 129.57 77.9261 129.301C77.3201 129.032 76.8428 128.657 76.4943 128.176C76.1496 127.695 75.9545 127.136 75.9091 126.5H77.3636C77.4015 126.939 77.5492 127.303 77.8068 127.591C78.0682 127.875 78.3977 128.087 78.7955 128.227C79.197 128.364 79.6288 128.432 80.0909 128.432C80.6288 128.432 81.1117 128.345 81.5398 128.17C81.9678 127.992 82.3068 127.746 82.5568 127.432C82.8068 127.114 82.9318 126.742 82.9318 126.318C82.9318 125.932 82.8239 125.617 82.608 125.375C82.392 125.133 82.108 124.936 81.7557 124.784C81.4034 124.633 81.0227 124.5 80.6136 124.386L79.1818 123.977C78.2727 123.716 77.553 123.343 77.0227 122.858C76.4924 122.373 76.2273 121.739 76.2273 120.955C76.2273 120.303 76.4034 119.735 76.7557 119.25C77.1117 118.761 77.589 118.383 78.1875 118.114C78.7898 117.841 79.4621 117.705 80.2045 117.705C80.9545 117.705 81.6212 117.839 82.2045 118.108C82.7879 118.373 83.25 118.737 83.5909 119.199C83.9356 119.661 84.1174 120.186 84.1364 120.773H82.7727ZM87.7713 124.25V129.5H86.4304V117.864H87.7713V122.136H87.8849C88.0895 121.686 88.3963 121.328 88.8054 121.062C89.2183 120.794 89.7675 120.659 90.4531 120.659C91.0478 120.659 91.5687 120.778 92.0156 121.017C92.4626 121.252 92.8092 121.614 93.0554 122.102C93.3054 122.587 93.4304 123.205 93.4304 123.955V129.5H92.0895V124.045C92.0895 123.352 91.9096 122.816 91.5497 122.438C91.1937 122.055 90.6993 121.864 90.0668 121.864C89.6274 121.864 89.2334 121.956 88.8849 122.142C88.5402 122.328 88.2675 122.598 88.0668 122.955C87.8698 123.311 87.7713 123.742 87.7713 124.25ZM99.429 129.682C98.6411 129.682 97.9498 129.494 97.3551 129.119C96.7642 128.744 96.3021 128.22 95.9688 127.545C95.6392 126.871 95.4744 126.083 95.4744 125.182C95.4744 124.273 95.6392 123.479 95.9688 122.801C96.3021 122.123 96.7642 121.597 97.3551 121.222C97.9498 120.847 98.6411 120.659 99.429 120.659C100.217 120.659 100.906 120.847 101.497 121.222C102.092 121.597 102.554 122.123 102.884 122.801C103.217 123.479 103.384 124.273 103.384 125.182C103.384 126.083 103.217 126.871 102.884 127.545C102.554 128.22 102.092 128.744 101.497 129.119C100.906 129.494 100.217 129.682 99.429 129.682ZM99.429 128.477C100.027 128.477 100.52 128.324 100.906 128.017C101.293 127.71 101.579 127.307 101.764 126.807C101.95 126.307 102.043 125.765 102.043 125.182C102.043 124.598 101.95 124.055 101.764 123.551C101.579 123.047 101.293 122.64 100.906 122.33C100.52 122.019 100.027 121.864 99.429 121.864C98.8305 121.864 98.3381 122.019 97.9517 122.33C97.5653 122.64 97.2794 123.047 97.0938 123.551C96.9081 124.055 96.8153 124.598 96.8153 125.182C96.8153 125.765 96.9081 126.307 97.0938 126.807C97.2794 127.307 97.5653 127.71 97.9517 128.017C98.3381 128.324 98.8305 128.477 99.429 128.477ZM105.43 129.5V120.773H106.726V122.091H106.817C106.976 121.659 107.264 121.309 107.68 121.04C108.097 120.771 108.567 120.636 109.089 120.636C109.188 120.636 109.311 120.638 109.459 120.642C109.607 120.646 109.718 120.652 109.794 120.659V122.023C109.749 122.011 109.644 121.994 109.482 121.972C109.322 121.945 109.154 121.932 108.976 121.932C108.552 121.932 108.173 122.021 107.839 122.199C107.51 122.373 107.249 122.616 107.055 122.926C106.866 123.233 106.771 123.583 106.771 123.977V129.5H105.43ZM115.726 120.773V121.909H111.203V120.773H115.726ZM112.521 118.682H113.862V127C113.862 127.379 113.917 127.663 114.027 127.852C114.141 128.038 114.285 128.163 114.459 128.227C114.637 128.288 114.824 128.318 115.021 128.318C115.169 128.318 115.29 128.311 115.385 128.295C115.48 128.277 115.555 128.261 115.612 128.25L115.885 129.455C115.794 129.489 115.667 129.523 115.504 129.557C115.341 129.595 115.135 129.614 114.885 129.614C114.506 129.614 114.135 129.532 113.771 129.369C113.411 129.206 113.112 128.958 112.874 128.625C112.639 128.292 112.521 127.871 112.521 127.364V118.682Z" fill="#0B1D28"/>
<rect x="196.5" y="88.5" width="210" height="71" rx="1.5" fill="white"/>
<rect x="196.5" y="88.5" width="210" height="71" rx="1.5" stroke="#001E2E" stroke-linecap="square" stroke-dasharray="6 6"/>
<rect width="61" height="24" transform="translate(271 112)" fill="white"/>
<path d="M272.409 117.864H274.091L278.045 127.523H278.182L282.136 117.864H283.818V129.5H282.5V120.659H282.386L278.75 129.5H277.477L273.841 120.659H273.727V129.5H272.409V117.864ZM290.121 129.682C289.28 129.682 288.554 129.496 287.945 129.125C287.339 128.75 286.871 128.227 286.541 127.557C286.215 126.883 286.053 126.098 286.053 125.205C286.053 124.311 286.215 123.523 286.541 122.841C286.871 122.155 287.329 121.621 287.916 121.239C288.507 120.852 289.196 120.659 289.984 120.659C290.439 120.659 290.888 120.735 291.331 120.886C291.774 121.038 292.178 121.284 292.541 121.625C292.905 121.962 293.195 122.409 293.411 122.966C293.626 123.523 293.734 124.208 293.734 125.023V125.591H287.007V124.432H292.371C292.371 123.939 292.272 123.5 292.075 123.114C291.882 122.727 291.606 122.422 291.246 122.199C290.89 121.975 290.469 121.864 289.984 121.864C289.45 121.864 288.988 121.996 288.598 122.261C288.212 122.523 287.914 122.864 287.706 123.284C287.498 123.705 287.393 124.155 287.393 124.636V125.409C287.393 126.068 287.507 126.627 287.734 127.085C287.965 127.54 288.286 127.886 288.695 128.125C289.104 128.36 289.579 128.477 290.121 128.477C290.473 128.477 290.791 128.428 291.075 128.33C291.363 128.227 291.611 128.076 291.82 127.875C292.028 127.67 292.189 127.417 292.303 127.114L293.598 127.477C293.462 127.917 293.232 128.303 292.911 128.636C292.589 128.966 292.191 129.223 291.717 129.409C291.244 129.591 290.712 129.682 290.121 129.682ZM299.07 129.682C298.342 129.682 297.7 129.498 297.143 129.131C296.587 128.759 296.151 128.237 295.837 127.562C295.522 126.884 295.365 126.083 295.365 125.159C295.365 124.242 295.522 123.447 295.837 122.773C296.151 122.098 296.589 121.578 297.149 121.21C297.71 120.843 298.357 120.659 299.092 120.659C299.661 120.659 300.109 120.754 300.439 120.943C300.772 121.129 301.026 121.341 301.2 121.58C301.378 121.814 301.517 122.008 301.615 122.159H301.729V117.864H303.07V129.5H301.774V128.159H301.615C301.517 128.318 301.376 128.519 301.195 128.761C301.013 129 300.753 129.214 300.416 129.403C300.079 129.589 299.63 129.682 299.07 129.682ZM299.251 128.477C299.789 128.477 300.244 128.337 300.615 128.057C300.986 127.773 301.268 127.381 301.462 126.881C301.655 126.377 301.751 125.795 301.751 125.136C301.751 124.485 301.657 123.915 301.467 123.426C301.278 122.934 300.998 122.551 300.626 122.278C300.255 122.002 299.797 121.864 299.251 121.864C298.683 121.864 298.21 122.009 297.831 122.301C297.456 122.589 297.174 122.981 296.984 123.477C296.799 123.97 296.706 124.523 296.706 125.136C296.706 125.758 296.801 126.322 296.99 126.83C297.183 127.333 297.467 127.735 297.842 128.034C298.221 128.33 298.691 128.477 299.251 128.477ZM305.712 129.5V120.773H307.053V129.5H305.712ZM306.393 119.318C306.132 119.318 305.907 119.229 305.717 119.051C305.532 118.873 305.439 118.659 305.439 118.409C305.439 118.159 305.532 117.945 305.717 117.767C305.907 117.589 306.132 117.5 306.393 117.5C306.655 117.5 306.878 117.589 307.064 117.767C307.253 117.945 307.348 118.159 307.348 118.409C307.348 118.659 307.253 118.873 307.064 119.051C306.878 119.229 306.655 119.318 306.393 119.318ZM315.009 125.932V120.773H316.349V129.5H315.009V128.023H314.918C314.713 128.466 314.395 128.843 313.963 129.153C313.531 129.46 312.986 129.614 312.327 129.614C311.781 129.614 311.296 129.494 310.872 129.256C310.448 129.013 310.115 128.65 309.872 128.165C309.63 127.676 309.509 127.061 309.509 126.318V120.773H310.849V126.227C310.849 126.864 311.027 127.371 311.384 127.75C311.743 128.129 312.202 128.318 312.759 128.318C313.092 128.318 313.431 128.233 313.776 128.062C314.124 127.892 314.416 127.631 314.651 127.278C314.889 126.926 315.009 126.477 315.009 125.932ZM318.805 129.5V120.773H320.101V122.136H320.214C320.396 121.67 320.69 121.309 321.095 121.051C321.5 120.79 321.987 120.659 322.555 120.659C323.131 120.659 323.61 120.79 323.993 121.051C324.379 121.309 324.68 121.67 324.896 122.136H324.987C325.211 121.686 325.546 121.328 325.993 121.062C326.44 120.794 326.976 120.659 327.601 120.659C328.381 120.659 329.019 120.903 329.516 121.392C330.012 121.877 330.26 122.633 330.26 123.659V129.5H328.919V123.659C328.919 123.015 328.743 122.555 328.391 122.278C328.038 122.002 327.624 121.864 327.146 121.864C326.533 121.864 326.057 122.049 325.72 122.42C325.383 122.788 325.214 123.254 325.214 123.818V129.5H323.851V123.523C323.851 123.027 323.69 122.627 323.368 122.324C323.046 122.017 322.631 121.864 322.124 121.864C321.775 121.864 321.449 121.956 321.146 122.142C320.847 122.328 320.605 122.585 320.419 122.915C320.237 123.241 320.146 123.617 320.146 124.045V129.5H318.805Z" fill="#0B1D28"/>
<rect x="411.5" y="88.5" width="308" height="71" rx="1.5" fill="white"/>
<rect x="411.5" y="88.5" width="308" height="71" rx="1.5" stroke="#001E2E" stroke-linecap="square" stroke-dasharray="6 6"/>
<rect width="154" height="24" transform="translate(488.5 112)" fill="white"/>
<path d="M490.386 117.864L493.841 127.659H493.977L497.432 117.864H498.909L494.636 129.5H493.182L488.909 117.864H490.386ZM503.386 129.682C502.545 129.682 501.82 129.496 501.21 129.125C500.604 128.75 500.136 128.227 499.807 127.557C499.481 126.883 499.318 126.098 499.318 125.205C499.318 124.311 499.481 123.523 499.807 122.841C500.136 122.155 500.595 121.621 501.182 121.239C501.773 120.852 502.462 120.659 503.25 120.659C503.705 120.659 504.153 120.735 504.597 120.886C505.04 121.038 505.443 121.284 505.807 121.625C506.17 121.962 506.46 122.409 506.676 122.966C506.892 123.523 507 124.208 507 125.023V125.591H500.273V124.432H505.636C505.636 123.939 505.538 123.5 505.341 123.114C505.148 122.727 504.871 122.422 504.511 122.199C504.155 121.975 503.735 121.864 503.25 121.864C502.716 121.864 502.254 121.996 501.864 122.261C501.477 122.523 501.18 122.864 500.972 123.284C500.763 123.705 500.659 124.155 500.659 124.636V125.409C500.659 126.068 500.773 126.627 501 127.085C501.231 127.54 501.551 127.886 501.96 128.125C502.369 128.36 502.845 128.477 503.386 128.477C503.739 128.477 504.057 128.428 504.341 128.33C504.629 128.227 504.877 128.076 505.085 127.875C505.294 127.67 505.455 127.417 505.568 127.114L506.864 127.477C506.727 127.917 506.498 128.303 506.176 128.636C505.854 128.966 505.456 129.223 504.983 129.409C504.509 129.591 503.977 129.682 503.386 129.682ZM509.04 129.5V120.773H510.335V122.091H510.426C510.585 121.659 510.873 121.309 511.29 121.04C511.706 120.771 512.176 120.636 512.699 120.636C512.797 120.636 512.92 120.638 513.068 120.642C513.216 120.646 513.328 120.652 513.403 120.659V122.023C513.358 122.011 513.254 121.994 513.091 121.972C512.932 121.945 512.763 121.932 512.585 121.932C512.161 121.932 511.782 122.021 511.449 122.199C511.119 122.373 510.858 122.616 510.665 122.926C510.475 123.233 510.381 123.583 510.381 123.977V129.5H509.04ZM516.122 132.773C515.895 132.773 515.692 132.754 515.514 132.716C515.336 132.682 515.213 132.648 515.145 132.614L515.486 131.432C515.812 131.515 516.099 131.545 516.349 131.523C516.599 131.5 516.821 131.388 517.014 131.188C517.211 130.991 517.391 130.67 517.554 130.227L517.804 129.545L514.577 120.773H516.031L518.44 127.727H518.531L520.94 120.773H522.395L518.69 130.773C518.524 131.223 518.317 131.597 518.071 131.892C517.825 132.191 517.539 132.413 517.213 132.557C516.891 132.701 516.527 132.773 516.122 132.773ZM525.618 127.909L525.527 128.523C525.463 128.955 525.364 129.417 525.232 129.909C525.103 130.402 524.968 130.866 524.828 131.301C524.688 131.737 524.572 132.083 524.482 132.341H523.459C523.508 132.098 523.572 131.778 523.652 131.381C523.732 130.983 523.811 130.538 523.891 130.045C523.974 129.557 524.042 129.057 524.095 128.545L524.163 127.909H525.618ZM539.739 120.773L536.511 129.5H535.148L531.92 120.773H533.375L535.784 127.727H535.875L538.284 120.773H539.739ZM544.855 129.682C544.014 129.682 543.289 129.496 542.679 129.125C542.073 128.75 541.605 128.227 541.276 127.557C540.95 126.883 540.787 126.098 540.787 125.205C540.787 124.311 540.95 123.523 541.276 122.841C541.605 122.155 542.063 121.621 542.651 121.239C543.241 120.852 543.931 120.659 544.719 120.659C545.173 120.659 545.622 120.735 546.065 120.886C546.509 121.038 546.912 121.284 547.276 121.625C547.639 121.962 547.929 122.409 548.145 122.966C548.361 123.523 548.469 124.208 548.469 125.023V125.591H541.741V124.432H547.105C547.105 123.939 547.007 123.5 546.81 123.114C546.616 122.727 546.34 122.422 545.98 122.199C545.624 121.975 545.204 121.864 544.719 121.864C544.185 121.864 543.723 121.996 543.332 122.261C542.946 122.523 542.649 122.864 542.44 123.284C542.232 123.705 542.128 124.155 542.128 124.636V125.409C542.128 126.068 542.241 126.627 542.469 127.085C542.7 127.54 543.02 127.886 543.429 128.125C543.838 128.36 544.313 128.477 544.855 128.477C545.207 128.477 545.526 128.428 545.81 128.33C546.098 128.227 546.346 128.076 546.554 127.875C546.762 127.67 546.923 127.417 547.037 127.114L548.332 127.477C548.196 127.917 547.967 128.303 547.645 128.636C547.323 128.966 546.925 129.223 546.452 129.409C545.978 129.591 545.446 129.682 544.855 129.682ZM550.509 129.5V120.773H551.804V122.091H551.895C552.054 121.659 552.342 121.309 552.759 121.04C553.175 120.771 553.645 120.636 554.168 120.636C554.266 120.636 554.389 120.638 554.537 120.642C554.685 120.646 554.796 120.652 554.872 120.659V122.023C554.827 122.011 554.723 121.994 554.56 121.972C554.401 121.945 554.232 121.932 554.054 121.932C553.63 121.932 553.251 122.021 552.918 122.199C552.588 122.373 552.327 122.616 552.134 122.926C551.944 123.233 551.849 123.583 551.849 123.977V129.5H550.509ZM557.591 132.773C557.364 132.773 557.161 132.754 556.983 132.716C556.805 132.682 556.682 132.648 556.614 132.614L556.955 131.432C557.28 131.515 557.568 131.545 557.818 131.523C558.068 131.5 558.29 131.388 558.483 131.188C558.68 130.991 558.86 130.67 559.023 130.227L559.273 129.545L556.045 120.773H557.5L559.909 127.727H560L562.409 120.773H563.864L560.159 130.773C559.992 131.223 559.786 131.597 559.54 131.892C559.294 132.191 559.008 132.413 558.682 132.557C558.36 132.701 557.996 132.773 557.591 132.773ZM571.474 117.864V129.5H570.134V117.864H571.474ZM577.476 129.682C576.688 129.682 575.997 129.494 575.402 129.119C574.811 128.744 574.349 128.22 574.016 127.545C573.686 126.871 573.521 126.083 573.521 125.182C573.521 124.273 573.686 123.479 574.016 122.801C574.349 122.123 574.811 121.597 575.402 121.222C575.997 120.847 576.688 120.659 577.476 120.659C578.264 120.659 578.953 120.847 579.544 121.222C580.139 121.597 580.601 122.123 580.93 122.801C581.264 123.479 581.43 124.273 581.43 125.182C581.43 126.083 581.264 126.871 580.93 127.545C580.601 128.22 580.139 128.744 579.544 129.119C578.953 129.494 578.264 129.682 577.476 129.682ZM577.476 128.477C578.074 128.477 578.567 128.324 578.953 128.017C579.339 127.71 579.625 127.307 579.811 126.807C579.997 126.307 580.089 125.765 580.089 125.182C580.089 124.598 579.997 124.055 579.811 123.551C579.625 123.047 579.339 122.64 578.953 122.33C578.567 122.019 578.074 121.864 577.476 121.864C576.877 121.864 576.385 122.019 575.999 122.33C575.612 122.64 575.326 123.047 575.141 123.551C574.955 124.055 574.862 124.598 574.862 125.182C574.862 125.765 574.955 126.307 575.141 126.807C575.326 127.307 575.612 127.71 575.999 128.017C576.385 128.324 576.877 128.477 577.476 128.477ZM584.818 124.25V129.5H583.477V120.773H584.773V122.136H584.886C585.091 121.693 585.402 121.337 585.818 121.068C586.235 120.795 586.773 120.659 587.432 120.659C588.023 120.659 588.54 120.78 588.983 121.023C589.426 121.261 589.771 121.625 590.017 122.114C590.263 122.598 590.386 123.212 590.386 123.955V129.5H589.045V124.045C589.045 123.36 588.867 122.826 588.511 122.443C588.155 122.057 587.667 121.864 587.045 121.864C586.617 121.864 586.235 121.956 585.898 122.142C585.564 122.328 585.301 122.598 585.108 122.955C584.915 123.311 584.818 123.742 584.818 124.25ZM596.359 132.955C595.712 132.955 595.155 132.871 594.689 132.705C594.223 132.542 593.835 132.326 593.524 132.057C593.217 131.792 592.973 131.508 592.791 131.205L593.859 130.455C593.981 130.614 594.134 130.795 594.32 131C594.505 131.208 594.759 131.388 595.081 131.54C595.407 131.695 595.833 131.773 596.359 131.773C597.064 131.773 597.645 131.602 598.104 131.261C598.562 130.92 598.791 130.386 598.791 129.659V127.886H598.678C598.579 128.045 598.439 128.242 598.257 128.477C598.079 128.708 597.821 128.915 597.484 129.097C597.151 129.275 596.7 129.364 596.132 129.364C595.428 129.364 594.795 129.197 594.234 128.864C593.678 128.53 593.236 128.045 592.911 127.409C592.589 126.773 592.428 126 592.428 125.091C592.428 124.197 592.585 123.419 592.899 122.756C593.214 122.089 593.651 121.574 594.212 121.21C594.772 120.843 595.42 120.659 596.155 120.659C596.723 120.659 597.174 120.754 597.507 120.943C597.844 121.129 598.102 121.341 598.28 121.58C598.462 121.814 598.602 122.008 598.7 122.159H598.837V120.773H600.132V129.75C600.132 130.5 599.962 131.11 599.621 131.58C599.284 132.053 598.829 132.4 598.257 132.619C597.689 132.843 597.056 132.955 596.359 132.955ZM596.314 128.159C596.852 128.159 597.306 128.036 597.678 127.79C598.049 127.544 598.331 127.189 598.524 126.727C598.717 126.265 598.814 125.712 598.814 125.068C598.814 124.439 598.719 123.884 598.53 123.403C598.34 122.922 598.06 122.545 597.689 122.273C597.318 122 596.859 121.864 596.314 121.864C595.746 121.864 595.272 122.008 594.893 122.295C594.518 122.583 594.236 122.97 594.047 123.455C593.861 123.939 593.768 124.477 593.768 125.068C593.768 125.674 593.863 126.21 594.053 126.676C594.246 127.138 594.53 127.502 594.905 127.767C595.284 128.028 595.753 128.159 596.314 128.159ZM608.428 117.864V129.5H607.087V117.864H608.428ZM613.452 129.705C612.899 129.705 612.397 129.6 611.946 129.392C611.495 129.18 611.137 128.875 610.872 128.477C610.607 128.076 610.474 127.591 610.474 127.023C610.474 126.523 610.573 126.117 610.77 125.807C610.967 125.492 611.23 125.246 611.56 125.068C611.889 124.89 612.253 124.758 612.651 124.67C613.052 124.58 613.455 124.508 613.861 124.455C614.391 124.386 614.821 124.335 615.151 124.301C615.484 124.263 615.726 124.201 615.878 124.114C616.033 124.027 616.111 123.875 616.111 123.659V123.614C616.111 123.053 615.957 122.617 615.651 122.307C615.348 121.996 614.887 121.841 614.27 121.841C613.63 121.841 613.128 121.981 612.764 122.261C612.401 122.542 612.145 122.841 611.997 123.159L610.724 122.705C610.952 122.174 611.255 121.761 611.634 121.466C612.016 121.167 612.433 120.958 612.884 120.841C613.338 120.72 613.785 120.659 614.224 120.659C614.505 120.659 614.827 120.693 615.19 120.761C615.558 120.826 615.912 120.96 616.253 121.165C616.598 121.369 616.884 121.678 617.111 122.091C617.338 122.504 617.452 123.057 617.452 123.75V129.5H616.111V128.318H616.043C615.952 128.508 615.8 128.71 615.588 128.926C615.376 129.142 615.094 129.326 614.741 129.477C614.389 129.629 613.959 129.705 613.452 129.705ZM613.656 128.5C614.187 128.5 614.634 128.396 614.997 128.188C615.365 127.979 615.641 127.71 615.827 127.381C616.016 127.051 616.111 126.705 616.111 126.341V125.114C616.054 125.182 615.929 125.244 615.736 125.301C615.546 125.354 615.327 125.402 615.077 125.443C614.83 125.481 614.59 125.515 614.355 125.545C614.124 125.572 613.937 125.595 613.793 125.614C613.444 125.659 613.118 125.733 612.815 125.835C612.516 125.934 612.274 126.083 612.088 126.284C611.906 126.481 611.815 126.75 611.815 127.091C611.815 127.557 611.988 127.909 612.332 128.148C612.681 128.383 613.122 128.5 613.656 128.5ZM620.081 129.5V117.864H621.422V122.159H621.536C621.634 122.008 621.77 121.814 621.945 121.58C622.123 121.341 622.376 121.129 622.706 120.943C623.039 120.754 623.49 120.659 624.058 120.659C624.793 120.659 625.441 120.843 626.001 121.21C626.562 121.578 627 122.098 627.314 122.773C627.628 123.447 627.786 124.242 627.786 125.159C627.786 126.083 627.628 126.884 627.314 127.562C627 128.237 626.564 128.759 626.007 129.131C625.45 129.498 624.808 129.682 624.081 129.682C623.52 129.682 623.071 129.589 622.734 129.403C622.397 129.214 622.138 129 621.956 128.761C621.774 128.519 621.634 128.318 621.536 128.159H621.376V129.5H620.081ZM621.399 125.136C621.399 125.795 621.496 126.377 621.689 126.881C621.882 127.381 622.164 127.773 622.536 128.057C622.907 128.337 623.361 128.477 623.899 128.477C624.46 128.477 624.928 128.33 625.303 128.034C625.681 127.735 625.965 127.333 626.155 126.83C626.348 126.322 626.445 125.758 626.445 125.136C626.445 124.523 626.35 123.97 626.161 123.477C625.975 122.981 625.693 122.589 625.314 122.301C624.939 122.009 624.467 121.864 623.899 121.864C623.354 121.864 622.895 122.002 622.524 122.278C622.153 122.551 621.873 122.934 621.683 123.426C621.494 123.915 621.399 124.485 621.399 125.136ZM633.496 129.682C632.655 129.682 631.929 129.496 631.32 129.125C630.714 128.75 630.246 128.227 629.916 127.557C629.59 126.883 629.428 126.098 629.428 125.205C629.428 124.311 629.59 123.523 629.916 122.841C630.246 122.155 630.704 121.621 631.291 121.239C631.882 120.852 632.571 120.659 633.359 120.659C633.814 120.659 634.263 120.735 634.706 120.886C635.149 121.038 635.553 121.284 635.916 121.625C636.28 121.962 636.57 122.409 636.786 122.966C637.001 123.523 637.109 124.208 637.109 125.023V125.591H630.382V124.432H635.746C635.746 123.939 635.647 123.5 635.45 123.114C635.257 122.727 634.981 122.422 634.621 122.199C634.265 121.975 633.844 121.864 633.359 121.864C632.825 121.864 632.363 121.996 631.973 122.261C631.587 122.523 631.289 122.864 631.081 123.284C630.873 123.705 630.768 124.155 630.768 124.636V125.409C630.768 126.068 630.882 126.627 631.109 127.085C631.34 127.54 631.661 127.886 632.07 128.125C632.479 128.36 632.954 128.477 633.496 128.477C633.848 128.477 634.166 128.428 634.45 128.33C634.738 128.227 634.986 128.076 635.195 127.875C635.403 127.67 635.564 127.417 635.678 127.114L636.973 127.477C636.837 127.917 636.607 128.303 636.286 128.636C635.964 128.966 635.566 129.223 635.092 129.409C634.619 129.591 634.087 129.682 633.496 129.682ZM640.49 117.864V129.5H639.149V117.864H640.49Z" fill="#0B1D28"/>
</g>
<rect x="0.5" y="88.5" width="719" height="71" rx="1.5" stroke="#006590"/>
<defs>
<clipPath id="clip0_8033_66205">
<rect width="720" height="72" rx="2" fill="white"/>
</clipPath>
<clipPath id="clip1_8033_66205">
<rect y="88" width="720" height="72" rx="2" fill="white"/>
</clipPath>
</defs>
</svg>
