<svg width="720" height="160" viewBox="0 0 720 160" fill="none" xmlns="http://www.w3.org/2000/svg">
<rect x="0.5" y="0.5" width="419" height="71" rx="1.5" fill="#87CEFF"/>
<rect x="0.5" y="0.5" width="419" height="71" rx="1.5" stroke="#006590"/>
<rect x="0.5" y="0.5" width="111" height="71" rx="1.5" fill="white"/>
<rect x="0.5" y="0.5" width="111" height="71" rx="1.5" stroke="#001E2E" stroke-linecap="square" stroke-dasharray="6 6"/>
<path d="M41.8182 29.8636V41.5H40.4091V29.8636H41.8182ZM48.2571 32.7727V33.9091H43.7344V32.7727H48.2571ZM45.0526 30.6818H46.3935V39C46.3935 39.3788 46.4484 39.6629 46.5582 39.8523C46.6719 40.0379 46.8158 40.1629 46.9901 40.2273C47.1681 40.2879 47.3556 40.3182 47.5526 40.3182C47.7003 40.3182 47.8215 40.3106 47.9162 40.2955C48.0109 40.2765 48.0866 40.2614 48.1435 40.25L48.4162 41.4545C48.3253 41.4886 48.1984 41.5227 48.0355 41.5568C47.8726 41.5947 47.6662 41.6136 47.4162 41.6136C47.0374 41.6136 46.6662 41.5322 46.3026 41.3693C45.9427 41.2064 45.6435 40.9583 45.4048 40.625C45.17 40.2917 45.0526 39.8712 45.0526 39.3636V30.6818ZM53.8395 41.6818C52.9986 41.6818 52.2732 41.4962 51.6634 41.125C51.0573 40.75 50.5895 40.2273 50.2599 39.5568C49.9342 38.8826 49.7713 38.0985 49.7713 37.2045C49.7713 36.3106 49.9342 35.5227 50.2599 34.8409C50.5895 34.1553 51.0478 33.6212 51.6349 33.2386C52.2259 32.8523 52.9152 32.6591 53.7031 32.6591C54.1577 32.6591 54.6065 32.7348 55.0497 32.8864C55.4929 33.0379 55.8963 33.2841 56.2599 33.625C56.6236 33.9621 56.9134 34.4091 57.1293 34.9659C57.3452 35.5227 57.4531 36.2083 57.4531 37.0227V37.5909H50.7259V36.4318H56.0895C56.0895 35.9394 55.991 35.5 55.794 35.1136C55.6009 34.7273 55.3243 34.4223 54.9645 34.1989C54.6084 33.9754 54.188 33.8636 53.7031 33.8636C53.169 33.8636 52.7069 33.9962 52.3168 34.2614C51.9304 34.5227 51.633 34.8636 51.4247 35.2841C51.2164 35.7045 51.1122 36.1553 51.1122 36.6364V37.4091C51.1122 38.0682 51.2259 38.6269 51.4531 39.0852C51.6842 39.5398 52.0043 39.8864 52.4134 40.125C52.8224 40.3598 53.2978 40.4773 53.8395 40.4773C54.1918 40.4773 54.5099 40.428 54.794 40.3295C55.0819 40.2273 55.33 40.0758 55.5384 39.875C55.7467 39.6705 55.9077 39.4167 56.0213 39.1136L57.3168 39.4773C57.1804 39.9167 56.9512 40.303 56.6293 40.6364C56.3073 40.9659 55.9096 41.2235 55.4361 41.4091C54.9626 41.5909 54.4304 41.6818 53.8395 41.6818ZM59.4929 41.5V32.7727H60.7884V34.1364H60.902C61.0838 33.6705 61.3774 33.3087 61.7827 33.0511C62.188 32.7898 62.6747 32.6591 63.2429 32.6591C63.8187 32.6591 64.2978 32.7898 64.6804 33.0511C65.0668 33.3087 65.3679 33.6705 65.5838 34.1364H65.6747C65.8982 33.6856 66.2334 33.3277 66.6804 33.0625C67.1274 32.7936 67.6634 32.6591 68.2884 32.6591C69.0687 32.6591 69.7069 32.9034 70.2031 33.392C70.6993 33.8769 70.9474 34.6326 70.9474 35.6591V41.5H69.6065V35.6591C69.6065 35.0152 69.4304 34.5549 69.0781 34.2784C68.7259 34.0019 68.3111 33.8636 67.8338 33.8636C67.2202 33.8636 66.7448 34.0492 66.4077 34.4205C66.0705 34.7879 65.902 35.2538 65.902 35.8182V41.5H64.5384V35.5227C64.5384 35.0265 64.3774 34.6269 64.0554 34.3239C63.7334 34.017 63.3187 33.8636 62.8111 33.8636C62.4626 33.8636 62.1368 33.9564 61.8338 34.142C61.5346 34.3277 61.2921 34.5852 61.1065 34.9148C60.9247 35.2405 60.8338 35.6174 60.8338 36.0455V41.5H59.4929Z" fill="#0B1D28"/>
<rect x="128.5" y="0.5" width="111" height="71" rx="1.5" fill="white"/>
<rect x="128.5" y="0.5" width="111" height="71" rx="1.5" stroke="#001E2E" stroke-linecap="square" stroke-dasharray="6 6"/>
<path d="M169.818 29.8636V41.5H168.409V29.8636H169.818ZM176.257 32.7727V33.9091H171.734V32.7727H176.257ZM173.053 30.6818H174.393V39C174.393 39.3788 174.448 39.6629 174.558 39.8523C174.672 40.0379 174.816 40.1629 174.99 40.2273C175.168 40.2879 175.356 40.3182 175.553 40.3182C175.7 40.3182 175.821 40.3106 175.916 40.2955C176.011 40.2765 176.087 40.2614 176.143 40.25L176.416 41.4545C176.325 41.4886 176.198 41.5227 176.036 41.5568C175.873 41.5947 175.666 41.6136 175.416 41.6136C175.037 41.6136 174.666 41.5322 174.303 41.3693C173.943 41.2064 173.643 40.9583 173.405 40.625C173.17 40.2917 173.053 39.8712 173.053 39.3636V30.6818ZM181.839 41.6818C180.999 41.6818 180.273 41.4962 179.663 41.125C179.057 40.75 178.589 40.2273 178.26 39.5568C177.934 38.8826 177.771 38.0985 177.771 37.2045C177.771 36.3106 177.934 35.5227 178.26 34.8409C178.589 34.1553 179.048 33.6212 179.635 33.2386C180.226 32.8523 180.915 32.6591 181.703 32.6591C182.158 32.6591 182.607 32.7348 183.05 32.8864C183.493 33.0379 183.896 33.2841 184.26 33.625C184.624 33.9621 184.913 34.4091 185.129 34.9659C185.345 35.5227 185.453 36.2083 185.453 37.0227V37.5909H178.726V36.4318H184.089C184.089 35.9394 183.991 35.5 183.794 35.1136C183.601 34.7273 183.324 34.4223 182.964 34.1989C182.608 33.9754 182.188 33.8636 181.703 33.8636C181.169 33.8636 180.707 33.9962 180.317 34.2614C179.93 34.5227 179.633 34.8636 179.425 35.2841C179.216 35.7045 179.112 36.1553 179.112 36.6364V37.4091C179.112 38.0682 179.226 38.6269 179.453 39.0852C179.684 39.5398 180.004 39.8864 180.413 40.125C180.822 40.3598 181.298 40.4773 181.839 40.4773C182.192 40.4773 182.51 40.428 182.794 40.3295C183.082 40.2273 183.33 40.0758 183.538 39.875C183.747 39.6705 183.908 39.4167 184.021 39.1136L185.317 39.4773C185.18 39.9167 184.951 40.303 184.629 40.6364C184.307 40.9659 183.91 41.2235 183.436 41.4091C182.963 41.5909 182.43 41.6818 181.839 41.6818ZM187.493 41.5V32.7727H188.788V34.1364H188.902C189.084 33.6705 189.377 33.3087 189.783 33.0511C190.188 32.7898 190.675 32.6591 191.243 32.6591C191.819 32.6591 192.298 32.7898 192.68 33.0511C193.067 33.3087 193.368 33.6705 193.584 34.1364H193.675C193.898 33.6856 194.233 33.3277 194.68 33.0625C195.127 32.7936 195.663 32.6591 196.288 32.6591C197.069 32.6591 197.707 32.9034 198.203 33.392C198.699 33.8769 198.947 34.6326 198.947 35.6591V41.5H197.607V35.6591C197.607 35.0152 197.43 34.5549 197.078 34.2784C196.726 34.0019 196.311 33.8636 195.834 33.8636C195.22 33.8636 194.745 34.0492 194.408 34.4205C194.071 34.7879 193.902 35.2538 193.902 35.8182V41.5H192.538V35.5227C192.538 35.0265 192.377 34.6269 192.055 34.3239C191.733 34.017 191.319 33.8636 190.811 33.8636C190.463 33.8636 190.137 33.9564 189.834 34.142C189.535 34.3277 189.292 34.5852 189.107 34.9148C188.925 35.2405 188.834 35.6174 188.834 36.0455V41.5H187.493Z" fill="#0B1D28"/>
<rect x="256.5" y="0.5" width="111" height="71" rx="1.5" fill="white"/>
<rect x="256.5" y="0.5" width="111" height="71" rx="1.5" stroke="#001E2E" stroke-linecap="square" stroke-dasharray="6 6"/>
<path d="M297.818 29.8636V41.5H296.409V29.8636H297.818ZM304.257 32.7727V33.9091H299.734V32.7727H304.257ZM301.053 30.6818H302.393V39C302.393 39.3788 302.448 39.6629 302.558 39.8523C302.672 40.0379 302.816 40.1629 302.99 40.2273C303.168 40.2879 303.356 40.3182 303.553 40.3182C303.7 40.3182 303.821 40.3106 303.916 40.2955C304.011 40.2765 304.087 40.2614 304.143 40.25L304.416 41.4545C304.325 41.4886 304.198 41.5227 304.036 41.5568C303.873 41.5947 303.666 41.6136 303.416 41.6136C303.037 41.6136 302.666 41.5322 302.303 41.3693C301.943 41.2064 301.643 40.9583 301.405 40.625C301.17 40.2917 301.053 39.8712 301.053 39.3636V30.6818ZM309.839 41.6818C308.999 41.6818 308.273 41.4962 307.663 41.125C307.057 40.75 306.589 40.2273 306.26 39.5568C305.934 38.8826 305.771 38.0985 305.771 37.2045C305.771 36.3106 305.934 35.5227 306.26 34.8409C306.589 34.1553 307.048 33.6212 307.635 33.2386C308.226 32.8523 308.915 32.6591 309.703 32.6591C310.158 32.6591 310.607 32.7348 311.05 32.8864C311.493 33.0379 311.896 33.2841 312.26 33.625C312.624 33.9621 312.913 34.4091 313.129 34.9659C313.345 35.5227 313.453 36.2083 313.453 37.0227V37.5909H306.726V36.4318H312.089C312.089 35.9394 311.991 35.5 311.794 35.1136C311.601 34.7273 311.324 34.4223 310.964 34.1989C310.608 33.9754 310.188 33.8636 309.703 33.8636C309.169 33.8636 308.707 33.9962 308.317 34.2614C307.93 34.5227 307.633 34.8636 307.425 35.2841C307.216 35.7045 307.112 36.1553 307.112 36.6364V37.4091C307.112 38.0682 307.226 38.6269 307.453 39.0852C307.684 39.5398 308.004 39.8864 308.413 40.125C308.822 40.3598 309.298 40.4773 309.839 40.4773C310.192 40.4773 310.51 40.428 310.794 40.3295C311.082 40.2273 311.33 40.0758 311.538 39.875C311.747 39.6705 311.908 39.4167 312.021 39.1136L313.317 39.4773C313.18 39.9167 312.951 40.303 312.629 40.6364C312.307 40.9659 311.91 41.2235 311.436 41.4091C310.963 41.5909 310.43 41.6818 309.839 41.6818ZM315.493 41.5V32.7727H316.788V34.1364H316.902C317.084 33.6705 317.377 33.3087 317.783 33.0511C318.188 32.7898 318.675 32.6591 319.243 32.6591C319.819 32.6591 320.298 32.7898 320.68 33.0511C321.067 33.3087 321.368 33.6705 321.584 34.1364H321.675C321.898 33.6856 322.233 33.3277 322.68 33.0625C323.127 32.7936 323.663 32.6591 324.288 32.6591C325.069 32.6591 325.707 32.9034 326.203 33.392C326.699 33.8769 326.947 34.6326 326.947 35.6591V41.5H325.607V35.6591C325.607 35.0152 325.43 34.5549 325.078 34.2784C324.726 34.0019 324.311 33.8636 323.834 33.8636C323.22 33.8636 322.745 34.0492 322.408 34.4205C322.071 34.7879 321.902 35.2538 321.902 35.8182V41.5H320.538V35.5227C320.538 35.0265 320.377 34.6269 320.055 34.3239C319.733 34.017 319.319 33.8636 318.811 33.8636C318.463 33.8636 318.137 33.9564 317.834 34.142C317.535 34.3277 317.292 34.5852 317.107 34.9148C316.925 35.2405 316.834 35.6174 316.834 36.0455V41.5H315.493Z" fill="#0B1D28"/>
<rect x="436.5" y="0.5" width="283" height="159" rx="1.5" fill="#87CEFF"/>
<rect x="436.5" y="0.5" width="283" height="159" rx="1.5" stroke="#006590"/>
<rect x="436.5" y="0.5" width="111" height="71" rx="1.5" fill="white"/>
<rect x="436.5" y="0.5" width="111" height="71" rx="1.5" stroke="#001E2E" stroke-linecap="square" stroke-dasharray="6 6"/>
<path d="M477.818 29.8636V41.5H476.409V29.8636H477.818ZM484.257 32.7727V33.9091H479.734V32.7727H484.257ZM481.053 30.6818H482.393V39C482.393 39.3788 482.448 39.6629 482.558 39.8523C482.672 40.0379 482.816 40.1629 482.99 40.2273C483.168 40.2879 483.356 40.3182 483.553 40.3182C483.7 40.3182 483.821 40.3106 483.916 40.2955C484.011 40.2765 484.087 40.2614 484.143 40.25L484.416 41.4545C484.325 41.4886 484.198 41.5227 484.036 41.5568C483.873 41.5947 483.666 41.6136 483.416 41.6136C483.037 41.6136 482.666 41.5322 482.303 41.3693C481.943 41.2064 481.643 40.9583 481.405 40.625C481.17 40.2917 481.053 39.8712 481.053 39.3636V30.6818ZM489.839 41.6818C488.999 41.6818 488.273 41.4962 487.663 41.125C487.057 40.75 486.589 40.2273 486.26 39.5568C485.934 38.8826 485.771 38.0985 485.771 37.2045C485.771 36.3106 485.934 35.5227 486.26 34.8409C486.589 34.1553 487.048 33.6212 487.635 33.2386C488.226 32.8523 488.915 32.6591 489.703 32.6591C490.158 32.6591 490.607 32.7348 491.05 32.8864C491.493 33.0379 491.896 33.2841 492.26 33.625C492.624 33.9621 492.913 34.4091 493.129 34.9659C493.345 35.5227 493.453 36.2083 493.453 37.0227V37.5909H486.726V36.4318H492.089C492.089 35.9394 491.991 35.5 491.794 35.1136C491.601 34.7273 491.324 34.4223 490.964 34.1989C490.608 33.9754 490.188 33.8636 489.703 33.8636C489.169 33.8636 488.707 33.9962 488.317 34.2614C487.93 34.5227 487.633 34.8636 487.425 35.2841C487.216 35.7045 487.112 36.1553 487.112 36.6364V37.4091C487.112 38.0682 487.226 38.6269 487.453 39.0852C487.684 39.5398 488.004 39.8864 488.413 40.125C488.822 40.3598 489.298 40.4773 489.839 40.4773C490.192 40.4773 490.51 40.428 490.794 40.3295C491.082 40.2273 491.33 40.0758 491.538 39.875C491.747 39.6705 491.908 39.4167 492.021 39.1136L493.317 39.4773C493.18 39.9167 492.951 40.303 492.629 40.6364C492.307 40.9659 491.91 41.2235 491.436 41.4091C490.963 41.5909 490.43 41.6818 489.839 41.6818ZM495.493 41.5V32.7727H496.788V34.1364H496.902C497.084 33.6705 497.377 33.3087 497.783 33.0511C498.188 32.7898 498.675 32.6591 499.243 32.6591C499.819 32.6591 500.298 32.7898 500.68 33.0511C501.067 33.3087 501.368 33.6705 501.584 34.1364H501.675C501.898 33.6856 502.233 33.3277 502.68 33.0625C503.127 32.7936 503.663 32.6591 504.288 32.6591C505.069 32.6591 505.707 32.9034 506.203 33.392C506.699 33.8769 506.947 34.6326 506.947 35.6591V41.5H505.607V35.6591C505.607 35.0152 505.43 34.5549 505.078 34.2784C504.726 34.0019 504.311 33.8636 503.834 33.8636C503.22 33.8636 502.745 34.0492 502.408 34.4205C502.071 34.7879 501.902 35.2538 501.902 35.8182V41.5H500.538V35.5227C500.538 35.0265 500.377 34.6269 500.055 34.3239C499.733 34.017 499.319 33.8636 498.811 33.8636C498.463 33.8636 498.137 33.9564 497.834 34.142C497.535 34.3277 497.292 34.5852 497.107 34.9148C496.925 35.2405 496.834 35.6174 496.834 36.0455V41.5H495.493Z" fill="#0B1D28"/>
<rect x="564.5" y="0.5" width="111" height="71" rx="1.5" fill="white"/>
<rect x="564.5" y="0.5" width="111" height="71" rx="1.5" stroke="#001E2E" stroke-linecap="square" stroke-dasharray="6 6"/>
<path d="M605.818 29.8636V41.5H604.409V29.8636H605.818ZM612.257 32.7727V33.9091H607.734V32.7727H612.257ZM609.053 30.6818H610.393V39C610.393 39.3788 610.448 39.6629 610.558 39.8523C610.672 40.0379 610.816 40.1629 610.99 40.2273C611.168 40.2879 611.356 40.3182 611.553 40.3182C611.7 40.3182 611.821 40.3106 611.916 40.2955C612.011 40.2765 612.087 40.2614 612.143 40.25L612.416 41.4545C612.325 41.4886 612.198 41.5227 612.036 41.5568C611.873 41.5947 611.666 41.6136 611.416 41.6136C611.037 41.6136 610.666 41.5322 610.303 41.3693C609.943 41.2064 609.643 40.9583 609.405 40.625C609.17 40.2917 609.053 39.8712 609.053 39.3636V30.6818ZM617.839 41.6818C616.999 41.6818 616.273 41.4962 615.663 41.125C615.057 40.75 614.589 40.2273 614.26 39.5568C613.934 38.8826 613.771 38.0985 613.771 37.2045C613.771 36.3106 613.934 35.5227 614.26 34.8409C614.589 34.1553 615.048 33.6212 615.635 33.2386C616.226 32.8523 616.915 32.6591 617.703 32.6591C618.158 32.6591 618.607 32.7348 619.05 32.8864C619.493 33.0379 619.896 33.2841 620.26 33.625C620.624 33.9621 620.913 34.4091 621.129 34.9659C621.345 35.5227 621.453 36.2083 621.453 37.0227V37.5909H614.726V36.4318H620.089C620.089 35.9394 619.991 35.5 619.794 35.1136C619.601 34.7273 619.324 34.4223 618.964 34.1989C618.608 33.9754 618.188 33.8636 617.703 33.8636C617.169 33.8636 616.707 33.9962 616.317 34.2614C615.93 34.5227 615.633 34.8636 615.425 35.2841C615.216 35.7045 615.112 36.1553 615.112 36.6364V37.4091C615.112 38.0682 615.226 38.6269 615.453 39.0852C615.684 39.5398 616.004 39.8864 616.413 40.125C616.822 40.3598 617.298 40.4773 617.839 40.4773C618.192 40.4773 618.51 40.428 618.794 40.3295C619.082 40.2273 619.33 40.0758 619.538 39.875C619.747 39.6705 619.908 39.4167 620.021 39.1136L621.317 39.4773C621.18 39.9167 620.951 40.303 620.629 40.6364C620.307 40.9659 619.91 41.2235 619.436 41.4091C618.963 41.5909 618.43 41.6818 617.839 41.6818ZM623.493 41.5V32.7727H624.788V34.1364H624.902C625.084 33.6705 625.377 33.3087 625.783 33.0511C626.188 32.7898 626.675 32.6591 627.243 32.6591C627.819 32.6591 628.298 32.7898 628.68 33.0511C629.067 33.3087 629.368 33.6705 629.584 34.1364H629.675C629.898 33.6856 630.233 33.3277 630.68 33.0625C631.127 32.7936 631.663 32.6591 632.288 32.6591C633.069 32.6591 633.707 32.9034 634.203 33.392C634.699 33.8769 634.947 34.6326 634.947 35.6591V41.5H633.607V35.6591C633.607 35.0152 633.43 34.5549 633.078 34.2784C632.726 34.0019 632.311 33.8636 631.834 33.8636C631.22 33.8636 630.745 34.0492 630.408 34.4205C630.071 34.7879 629.902 35.2538 629.902 35.8182V41.5H628.538V35.5227C628.538 35.0265 628.377 34.6269 628.055 34.3239C627.733 34.017 627.319 33.8636 626.811 33.8636C626.463 33.8636 626.137 33.9564 625.834 34.142C625.535 34.3277 625.292 34.5852 625.107 34.9148C624.925 35.2405 624.834 35.6174 624.834 36.0455V41.5H623.493Z" fill="#0B1D28"/>
<rect x="436.5" y="88.5" width="111" height="71" rx="1.5" fill="white"/>
<rect x="436.5" y="88.5" width="111" height="71" rx="1.5" stroke="#001E2E" stroke-linecap="square" stroke-dasharray="6 6"/>
<path d="M477.818 117.864V129.5H476.409V117.864H477.818ZM484.257 120.773V121.909H479.734V120.773H484.257ZM481.053 118.682H482.393V127C482.393 127.379 482.448 127.663 482.558 127.852C482.672 128.038 482.816 128.163 482.99 128.227C483.168 128.288 483.356 128.318 483.553 128.318C483.7 128.318 483.821 128.311 483.916 128.295C484.011 128.277 484.087 128.261 484.143 128.25L484.416 129.455C484.325 129.489 484.198 129.523 484.036 129.557C483.873 129.595 483.666 129.614 483.416 129.614C483.037 129.614 482.666 129.532 482.303 129.369C481.943 129.206 481.643 128.958 481.405 128.625C481.17 128.292 481.053 127.871 481.053 127.364V118.682ZM489.839 129.682C488.999 129.682 488.273 129.496 487.663 129.125C487.057 128.75 486.589 128.227 486.26 127.557C485.934 126.883 485.771 126.098 485.771 125.205C485.771 124.311 485.934 123.523 486.26 122.841C486.589 122.155 487.048 121.621 487.635 121.239C488.226 120.852 488.915 120.659 489.703 120.659C490.158 120.659 490.607 120.735 491.05 120.886C491.493 121.038 491.896 121.284 492.26 121.625C492.624 121.962 492.913 122.409 493.129 122.966C493.345 123.523 493.453 124.208 493.453 125.023V125.591H486.726V124.432H492.089C492.089 123.939 491.991 123.5 491.794 123.114C491.601 122.727 491.324 122.422 490.964 122.199C490.608 121.975 490.188 121.864 489.703 121.864C489.169 121.864 488.707 121.996 488.317 122.261C487.93 122.523 487.633 122.864 487.425 123.284C487.216 123.705 487.112 124.155 487.112 124.636V125.409C487.112 126.068 487.226 126.627 487.453 127.085C487.684 127.54 488.004 127.886 488.413 128.125C488.822 128.36 489.298 128.477 489.839 128.477C490.192 128.477 490.51 128.428 490.794 128.33C491.082 128.227 491.33 128.076 491.538 127.875C491.747 127.67 491.908 127.417 492.021 127.114L493.317 127.477C493.18 127.917 492.951 128.303 492.629 128.636C492.307 128.966 491.91 129.223 491.436 129.409C490.963 129.591 490.43 129.682 489.839 129.682ZM495.493 129.5V120.773H496.788V122.136H496.902C497.084 121.67 497.377 121.309 497.783 121.051C498.188 120.79 498.675 120.659 499.243 120.659C499.819 120.659 500.298 120.79 500.68 121.051C501.067 121.309 501.368 121.67 501.584 122.136H501.675C501.898 121.686 502.233 121.328 502.68 121.062C503.127 120.794 503.663 120.659 504.288 120.659C505.069 120.659 505.707 120.903 506.203 121.392C506.699 121.877 506.947 122.633 506.947 123.659V129.5H505.607V123.659C505.607 123.015 505.43 122.555 505.078 122.278C504.726 122.002 504.311 121.864 503.834 121.864C503.22 121.864 502.745 122.049 502.408 122.42C502.071 122.788 501.902 123.254 501.902 123.818V129.5H500.538V123.523C500.538 123.027 500.377 122.627 500.055 122.324C499.733 122.017 499.319 121.864 498.811 121.864C498.463 121.864 498.137 121.956 497.834 122.142C497.535 122.328 497.292 122.585 497.107 122.915C496.925 123.241 496.834 123.617 496.834 124.045V129.5H495.493Z" fill="#0B1D28"/>
</svg>
