<svg width="720" height="72" viewBox="0 0 720 72" fill="none" xmlns="http://www.w3.org/2000/svg">
<rect x="0.5" y="0.5" width="719" height="71" rx="1.5" fill="#87CEFF"/>
<rect x="0.5" y="0.5" width="719" height="71" rx="1.5" stroke="#006590"/>
<rect x="248.5" y="0.5" width="71" height="71" rx="1.5" fill="white"/>
<rect x="248.5" y="0.5" width="71" height="71" rx="1.5" stroke="#001E2E" stroke-linecap="square" stroke-dasharray="6 6"/>
<rect width="12" height="24" transform="translate(278 24)" fill="white"/>
<path d="M285.295 29.8636V41.5H283.886V31.3409H283.818L280.977 33.2273V31.7955L283.886 29.8636H285.295Z" fill="#0B1D28"/>
<rect x="324.5" y="0.5" width="71" height="71" rx="1.5" fill="white"/>
<rect x="324.5" y="0.5" width="71" height="71" rx="1.5" stroke="#001E2E" stroke-linecap="square" stroke-dasharray="6 6"/>
<rect width="10" height="24" transform="translate(355 24)" fill="white"/>
<path d="M356.205 41.5V40.4773L360.045 36.2727C360.496 35.7803 360.867 35.3523 361.159 34.9886C361.451 34.6212 361.667 34.2765 361.807 33.9545C361.951 33.6288 362.023 33.2879 362.023 32.9318C362.023 32.5227 361.924 32.1686 361.727 31.8693C361.534 31.5701 361.269 31.339 360.932 31.1761C360.595 31.0133 360.216 30.9318 359.795 30.9318C359.348 30.9318 358.958 31.0246 358.625 31.2102C358.295 31.392 358.04 31.6477 357.858 31.9773C357.68 32.3068 357.591 32.6932 357.591 33.1364H356.25C356.25 32.4545 356.407 31.8561 356.722 31.3409C357.036 30.8258 357.464 30.4242 358.006 30.1364C358.551 29.8485 359.163 29.7045 359.841 29.7045C360.523 29.7045 361.127 29.8485 361.653 30.1364C362.18 30.4242 362.593 30.8125 362.892 31.3011C363.191 31.7898 363.341 32.3333 363.341 32.9318C363.341 33.3598 363.263 33.7784 363.108 34.1875C362.956 34.5928 362.691 35.0455 362.312 35.5455C361.938 36.0417 361.417 36.6477 360.75 37.3636L358.136 40.1591V40.25H363.545V41.5H356.205Z" fill="#0B1D28"/>
<rect x="400.5" y="0.5" width="71" height="71" rx="1.5" fill="white"/>
<rect x="400.5" y="0.5" width="71" height="71" rx="1.5" stroke="#001E2E" stroke-linecap="square" stroke-dasharray="6 6"/>
<rect width="11" height="24" transform="translate(430.5 24)" fill="white"/>
<path d="M435.636 41.6591C434.886 41.6591 434.218 41.5303 433.631 41.2727C433.047 41.0152 432.583 40.6572 432.239 40.1989C431.898 39.7367 431.712 39.2008 431.682 38.5909H433.114C433.144 38.9659 433.273 39.2898 433.5 39.5625C433.727 39.8314 434.025 40.0398 434.392 40.1875C434.759 40.3352 435.167 40.4091 435.614 40.4091C436.114 40.4091 436.557 40.322 436.943 40.1477C437.33 39.9735 437.633 39.7311 437.852 39.4205C438.072 39.1098 438.182 38.75 438.182 38.3409C438.182 37.9129 438.076 37.536 437.864 37.2102C437.652 36.8807 437.341 36.6231 436.932 36.4375C436.523 36.2519 436.023 36.1591 435.432 36.1591H434.5V34.9091H435.432C435.894 34.9091 436.299 34.8258 436.648 34.6591C437 34.4924 437.275 34.2576 437.472 33.9545C437.672 33.6515 437.773 33.2955 437.773 32.8864C437.773 32.4924 437.686 32.1496 437.511 31.858C437.337 31.5663 437.091 31.339 436.773 31.1761C436.458 31.0133 436.087 30.9318 435.659 30.9318C435.258 30.9318 434.879 31.0057 434.523 31.1534C434.17 31.2973 433.883 31.5076 433.659 31.7841C433.436 32.0568 433.314 32.3864 433.295 32.7727H431.932C431.955 32.1629 432.138 31.6288 432.483 31.1705C432.828 30.7083 433.278 30.3485 433.835 30.0909C434.396 29.8333 435.011 29.7045 435.682 29.7045C436.402 29.7045 437.019 29.8504 437.534 30.142C438.049 30.4299 438.445 30.8106 438.722 31.2841C438.998 31.7576 439.136 32.2689 439.136 32.8182C439.136 33.4735 438.964 34.0322 438.619 34.4943C438.278 34.9564 437.814 35.2765 437.227 35.4545V35.5455C437.962 35.6667 438.536 35.9792 438.949 36.483C439.362 36.983 439.568 37.6023 439.568 38.3409C439.568 38.9735 439.396 39.5417 439.051 40.0455C438.71 40.5455 438.244 40.9394 437.653 41.2273C437.063 41.5152 436.39 41.6591 435.636 41.6591Z" fill="#0B1D28"/>
</svg>
