<svg width="720" height="224" viewBox="0 0 720 224" fill="none" xmlns="http://www.w3.org/2000/svg">
<rect x="0.5" y="0.5" width="719" height="223" rx="1.5" fill="#87CEFF"/>
<rect x="0.5" y="0.5" width="719" height="223" rx="1.5" stroke="#006590"/>
<rect x="304.5" y="0.5" width="111" height="71" rx="1.5" fill="white"/>
<rect x="304.5" y="0.5" width="111" height="71" rx="1.5" stroke="#001E2E" stroke-linecap="square" stroke-dasharray="6 6"/>
<path d="M345.818 29.8636V41.5H344.409V29.8636H345.818ZM352.257 32.7727V33.9091H347.734V32.7727H352.257ZM349.053 30.6818H350.393V39C350.393 39.3788 350.448 39.6629 350.558 39.8523C350.672 40.0379 350.816 40.1629 350.99 40.2273C351.168 40.2879 351.356 40.3182 351.553 40.3182C351.7 40.3182 351.821 40.3106 351.916 40.2955C352.011 40.2765 352.087 40.2614 352.143 40.25L352.416 41.4545C352.325 41.4886 352.198 41.5227 352.036 41.5568C351.873 41.5947 351.666 41.6136 351.416 41.6136C351.037 41.6136 350.666 41.5322 350.303 41.3693C349.943 41.2064 349.643 40.9583 349.405 40.625C349.17 40.2917 349.053 39.8712 349.053 39.3636V30.6818ZM357.839 41.6818C356.999 41.6818 356.273 41.4962 355.663 41.125C355.057 40.75 354.589 40.2273 354.26 39.5568C353.934 38.8826 353.771 38.0985 353.771 37.2045C353.771 36.3106 353.934 35.5227 354.26 34.8409C354.589 34.1553 355.048 33.6212 355.635 33.2386C356.226 32.8523 356.915 32.6591 357.703 32.6591C358.158 32.6591 358.607 32.7348 359.05 32.8864C359.493 33.0379 359.896 33.2841 360.26 33.625C360.624 33.9621 360.913 34.4091 361.129 34.9659C361.345 35.5227 361.453 36.2083 361.453 37.0227V37.5909H354.726V36.4318H360.089C360.089 35.9394 359.991 35.5 359.794 35.1136C359.601 34.7273 359.324 34.4223 358.964 34.1989C358.608 33.9754 358.188 33.8636 357.703 33.8636C357.169 33.8636 356.707 33.9962 356.317 34.2614C355.93 34.5227 355.633 34.8636 355.425 35.2841C355.216 35.7045 355.112 36.1553 355.112 36.6364V37.4091C355.112 38.0682 355.226 38.6269 355.453 39.0852C355.684 39.5398 356.004 39.8864 356.413 40.125C356.822 40.3598 357.298 40.4773 357.839 40.4773C358.192 40.4773 358.51 40.428 358.794 40.3295C359.082 40.2273 359.33 40.0758 359.538 39.875C359.747 39.6705 359.908 39.4167 360.021 39.1136L361.317 39.4773C361.18 39.9167 360.951 40.303 360.629 40.6364C360.307 40.9659 359.91 41.2235 359.436 41.4091C358.963 41.5909 358.43 41.6818 357.839 41.6818ZM363.493 41.5V32.7727H364.788V34.1364H364.902C365.084 33.6705 365.377 33.3087 365.783 33.0511C366.188 32.7898 366.675 32.6591 367.243 32.6591C367.819 32.6591 368.298 32.7898 368.68 33.0511C369.067 33.3087 369.368 33.6705 369.584 34.1364H369.675C369.898 33.6856 370.233 33.3277 370.68 33.0625C371.127 32.7936 371.663 32.6591 372.288 32.6591C373.069 32.6591 373.707 32.9034 374.203 33.392C374.699 33.8769 374.947 34.6326 374.947 35.6591V41.5H373.607V35.6591C373.607 35.0152 373.43 34.5549 373.078 34.2784C372.726 34.0019 372.311 33.8636 371.834 33.8636C371.22 33.8636 370.745 34.0492 370.408 34.4205C370.071 34.7879 369.902 35.2538 369.902 35.8182V41.5H368.538V35.5227C368.538 35.0265 368.377 34.6269 368.055 34.3239C367.733 34.017 367.319 33.8636 366.811 33.8636C366.463 33.8636 366.137 33.9564 365.834 34.142C365.535 34.3277 365.292 34.5852 365.107 34.9148C364.925 35.2405 364.834 35.6174 364.834 36.0455V41.5H363.493Z" fill="#0B1D28"/>
<rect x="304.5" y="76.5" width="111" height="71" rx="1.5" fill="white"/>
<rect x="304.5" y="76.5" width="111" height="71" rx="1.5" stroke="#001E2E" stroke-linecap="square" stroke-dasharray="6 6"/>
<path d="M345.818 105.864V117.5H344.409V105.864H345.818ZM352.257 108.773V109.909H347.734V108.773H352.257ZM349.053 106.682H350.393V115C350.393 115.379 350.448 115.663 350.558 115.852C350.672 116.038 350.816 116.163 350.99 116.227C351.168 116.288 351.356 116.318 351.553 116.318C351.7 116.318 351.821 116.311 351.916 116.295C352.011 116.277 352.087 116.261 352.143 116.25L352.416 117.455C352.325 117.489 352.198 117.523 352.036 117.557C351.873 117.595 351.666 117.614 351.416 117.614C351.037 117.614 350.666 117.532 350.303 117.369C349.943 117.206 349.643 116.958 349.405 116.625C349.17 116.292 349.053 115.871 349.053 115.364V106.682ZM357.839 117.682C356.999 117.682 356.273 117.496 355.663 117.125C355.057 116.75 354.589 116.227 354.26 115.557C353.934 114.883 353.771 114.098 353.771 113.205C353.771 112.311 353.934 111.523 354.26 110.841C354.589 110.155 355.048 109.621 355.635 109.239C356.226 108.852 356.915 108.659 357.703 108.659C358.158 108.659 358.607 108.735 359.05 108.886C359.493 109.038 359.896 109.284 360.26 109.625C360.624 109.962 360.913 110.409 361.129 110.966C361.345 111.523 361.453 112.208 361.453 113.023V113.591H354.726V112.432H360.089C360.089 111.939 359.991 111.5 359.794 111.114C359.601 110.727 359.324 110.422 358.964 110.199C358.608 109.975 358.188 109.864 357.703 109.864C357.169 109.864 356.707 109.996 356.317 110.261C355.93 110.523 355.633 110.864 355.425 111.284C355.216 111.705 355.112 112.155 355.112 112.636V113.409C355.112 114.068 355.226 114.627 355.453 115.085C355.684 115.54 356.004 115.886 356.413 116.125C356.822 116.36 357.298 116.477 357.839 116.477C358.192 116.477 358.51 116.428 358.794 116.33C359.082 116.227 359.33 116.076 359.538 115.875C359.747 115.67 359.908 115.417 360.021 115.114L361.317 115.477C361.18 115.917 360.951 116.303 360.629 116.636C360.307 116.966 359.91 117.223 359.436 117.409C358.963 117.591 358.43 117.682 357.839 117.682ZM363.493 117.5V108.773H364.788V110.136H364.902C365.084 109.67 365.377 109.309 365.783 109.051C366.188 108.79 366.675 108.659 367.243 108.659C367.819 108.659 368.298 108.79 368.68 109.051C369.067 109.309 369.368 109.67 369.584 110.136H369.675C369.898 109.686 370.233 109.328 370.68 109.062C371.127 108.794 371.663 108.659 372.288 108.659C373.069 108.659 373.707 108.903 374.203 109.392C374.699 109.877 374.947 110.633 374.947 111.659V117.5H373.607V111.659C373.607 111.015 373.43 110.555 373.078 110.278C372.726 110.002 372.311 109.864 371.834 109.864C371.22 109.864 370.745 110.049 370.408 110.42C370.071 110.788 369.902 111.254 369.902 111.818V117.5H368.538V111.523C368.538 111.027 368.377 110.627 368.055 110.324C367.733 110.017 367.319 109.864 366.811 109.864C366.463 109.864 366.137 109.956 365.834 110.142C365.535 110.328 365.292 110.585 365.107 110.915C364.925 111.241 364.834 111.617 364.834 112.045V117.5H363.493Z" fill="#0B1D28"/>
<rect x="304.5" y="152.5" width="111" height="71" rx="1.5" fill="white"/>
<rect x="304.5" y="152.5" width="111" height="71" rx="1.5" stroke="#001E2E" stroke-linecap="square" stroke-dasharray="6 6"/>
<path d="M345.818 181.864V193.5H344.409V181.864H345.818ZM352.257 184.773V185.909H347.734V184.773H352.257ZM349.053 182.682H350.393V191C350.393 191.379 350.448 191.663 350.558 191.852C350.672 192.038 350.816 192.163 350.99 192.227C351.168 192.288 351.356 192.318 351.553 192.318C351.7 192.318 351.821 192.311 351.916 192.295C352.011 192.277 352.087 192.261 352.143 192.25L352.416 193.455C352.325 193.489 352.198 193.523 352.036 193.557C351.873 193.595 351.666 193.614 351.416 193.614C351.037 193.614 350.666 193.532 350.303 193.369C349.943 193.206 349.643 192.958 349.405 192.625C349.17 192.292 349.053 191.871 349.053 191.364V182.682ZM357.839 193.682C356.999 193.682 356.273 193.496 355.663 193.125C355.057 192.75 354.589 192.227 354.26 191.557C353.934 190.883 353.771 190.098 353.771 189.205C353.771 188.311 353.934 187.523 354.26 186.841C354.589 186.155 355.048 185.621 355.635 185.239C356.226 184.852 356.915 184.659 357.703 184.659C358.158 184.659 358.607 184.735 359.05 184.886C359.493 185.038 359.896 185.284 360.26 185.625C360.624 185.962 360.913 186.409 361.129 186.966C361.345 187.523 361.453 188.208 361.453 189.023V189.591H354.726V188.432H360.089C360.089 187.939 359.991 187.5 359.794 187.114C359.601 186.727 359.324 186.422 358.964 186.199C358.608 185.975 358.188 185.864 357.703 185.864C357.169 185.864 356.707 185.996 356.317 186.261C355.93 186.523 355.633 186.864 355.425 187.284C355.216 187.705 355.112 188.155 355.112 188.636V189.409C355.112 190.068 355.226 190.627 355.453 191.085C355.684 191.54 356.004 191.886 356.413 192.125C356.822 192.36 357.298 192.477 357.839 192.477C358.192 192.477 358.51 192.428 358.794 192.33C359.082 192.227 359.33 192.076 359.538 191.875C359.747 191.67 359.908 191.417 360.021 191.114L361.317 191.477C361.18 191.917 360.951 192.303 360.629 192.636C360.307 192.966 359.91 193.223 359.436 193.409C358.963 193.591 358.43 193.682 357.839 193.682ZM363.493 193.5V184.773H364.788V186.136H364.902C365.084 185.67 365.377 185.309 365.783 185.051C366.188 184.79 366.675 184.659 367.243 184.659C367.819 184.659 368.298 184.79 368.68 185.051C369.067 185.309 369.368 185.67 369.584 186.136H369.675C369.898 185.686 370.233 185.328 370.68 185.062C371.127 184.794 371.663 184.659 372.288 184.659C373.069 184.659 373.707 184.903 374.203 185.392C374.699 185.877 374.947 186.633 374.947 187.659V193.5H373.607V187.659C373.607 187.015 373.43 186.555 373.078 186.278C372.726 186.002 372.311 185.864 371.834 185.864C371.22 185.864 370.745 186.049 370.408 186.42C370.071 186.788 369.902 187.254 369.902 187.818V193.5H368.538V187.523C368.538 187.027 368.377 186.627 368.055 186.324C367.733 186.017 367.319 185.864 366.811 185.864C366.463 185.864 366.137 185.956 365.834 186.142C365.535 186.328 365.292 186.585 365.107 186.915C364.925 187.241 364.834 187.617 364.834 188.045V193.5H363.493Z" fill="#0B1D28"/>
</svg>
