<svg width="720" height="128" viewBox="0 0 720 128" fill="none" xmlns="http://www.w3.org/2000/svg">
<rect x="0.5" y="0.5" width="719" height="127" rx="3.5" fill="#C8E6FF"/>
<rect x="0.5" y="0.5" width="719" height="127" rx="3.5" stroke="#006590"/>
<rect width="96" height="128" transform="translate(102)" fill="#006590" fill-opacity="0.16"/>
<rect x="102.5" y="28.5" width="95" height="71" rx="1.5" fill="white"/>
<rect x="102.5" y="28.5" width="95" height="71" rx="1.5" stroke="#001E2E" stroke-linecap="square" stroke-dasharray="6 6"/>
<path d="M135.818 57.8636V69.5H134.409V57.8636H135.818ZM142.257 60.7727V61.9091H137.734V60.7727H142.257ZM139.053 58.6818H140.393V67C140.393 67.3788 140.448 67.6629 140.558 67.8523C140.672 68.0379 140.816 68.1629 140.99 68.2273C141.168 68.2879 141.356 68.3182 141.553 68.3182C141.7 68.3182 141.821 68.3106 141.916 68.2955C142.011 68.2765 142.087 68.2614 142.143 68.25L142.416 69.4545C142.325 69.4886 142.198 69.5227 142.036 69.5568C141.873 69.5947 141.666 69.6136 141.416 69.6136C141.037 69.6136 140.666 69.5322 140.303 69.3693C139.943 69.2064 139.643 68.9583 139.405 68.625C139.17 68.2917 139.053 67.8712 139.053 67.3636V58.6818ZM147.839 69.6818C146.999 69.6818 146.273 69.4962 145.663 69.125C145.057 68.75 144.589 68.2273 144.26 67.5568C143.934 66.8826 143.771 66.0985 143.771 65.2045C143.771 64.3106 143.934 63.5227 144.26 62.8409C144.589 62.1553 145.048 61.6212 145.635 61.2386C146.226 60.8523 146.915 60.6591 147.703 60.6591C148.158 60.6591 148.607 60.7348 149.05 60.8864C149.493 61.0379 149.896 61.2841 150.26 61.625C150.624 61.9621 150.913 62.4091 151.129 62.9659C151.345 63.5227 151.453 64.2083 151.453 65.0227V65.5909H144.726V64.4318H150.089C150.089 63.9394 149.991 63.5 149.794 63.1136C149.601 62.7273 149.324 62.4223 148.964 62.1989C148.608 61.9754 148.188 61.8636 147.703 61.8636C147.169 61.8636 146.707 61.9962 146.317 62.2614C145.93 62.5227 145.633 62.8636 145.425 63.2841C145.216 63.7045 145.112 64.1553 145.112 64.6364V65.4091C145.112 66.0682 145.226 66.6269 145.453 67.0852C145.684 67.5398 146.004 67.8864 146.413 68.125C146.822 68.3598 147.298 68.4773 147.839 68.4773C148.192 68.4773 148.51 68.428 148.794 68.3295C149.082 68.2273 149.33 68.0758 149.538 67.875C149.747 67.6705 149.908 67.4167 150.021 67.1136L151.317 67.4773C151.18 67.9167 150.951 68.303 150.629 68.6364C150.307 68.9659 149.91 69.2235 149.436 69.4091C148.963 69.5909 148.43 69.6818 147.839 69.6818ZM153.493 69.5V60.7727H154.788V62.1364H154.902C155.084 61.6705 155.377 61.3087 155.783 61.0511C156.188 60.7898 156.675 60.6591 157.243 60.6591C157.819 60.6591 158.298 60.7898 158.68 61.0511C159.067 61.3087 159.368 61.6705 159.584 62.1364H159.675C159.898 61.6856 160.233 61.3277 160.68 61.0625C161.127 60.7936 161.663 60.6591 162.288 60.6591C163.069 60.6591 163.707 60.9034 164.203 61.392C164.699 61.8769 164.947 62.6326 164.947 63.6591V69.5H163.607V63.6591C163.607 63.0152 163.43 62.5549 163.078 62.2784C162.726 62.0019 162.311 61.8636 161.834 61.8636C161.22 61.8636 160.745 62.0492 160.408 62.4205C160.071 62.7879 159.902 63.2538 159.902 63.8182V69.5H158.538V63.5227C158.538 63.0265 158.377 62.6269 158.055 62.3239C157.733 62.017 157.319 61.8636 156.811 61.8636C156.463 61.8636 156.137 61.9564 155.834 62.142C155.535 62.3277 155.292 62.5852 155.107 62.9148C154.925 63.2405 154.834 63.6174 154.834 64.0455V69.5H153.493Z" fill="#0B1D28"/>
<rect width="72" height="128" transform="translate(300)" fill="#006590" fill-opacity="0.16"/>
<rect x="300.5" y="0.5" width="71" height="127" rx="1.5" fill="white"/>
<rect x="300.5" y="0.5" width="71" height="127" rx="1.5" stroke="#001E2E" stroke-linecap="square" stroke-dasharray="6 6"/>
<path d="M321.818 57.8636V69.5H320.409V57.8636H321.818ZM328.257 60.7727V61.9091H323.734V60.7727H328.257ZM325.053 58.6818H326.393V67C326.393 67.3788 326.448 67.6629 326.558 67.8523C326.672 68.0379 326.816 68.1629 326.99 68.2273C327.168 68.2879 327.356 68.3182 327.553 68.3182C327.7 68.3182 327.821 68.3106 327.916 68.2955C328.011 68.2765 328.087 68.2614 328.143 68.25L328.416 69.4545C328.325 69.4886 328.198 69.5227 328.036 69.5568C327.873 69.5947 327.666 69.6136 327.416 69.6136C327.037 69.6136 326.666 69.5322 326.303 69.3693C325.943 69.2064 325.643 68.9583 325.405 68.625C325.17 68.2917 325.053 67.8712 325.053 67.3636V58.6818ZM333.839 69.6818C332.999 69.6818 332.273 69.4962 331.663 69.125C331.057 68.75 330.589 68.2273 330.26 67.5568C329.934 66.8826 329.771 66.0985 329.771 65.2045C329.771 64.3106 329.934 63.5227 330.26 62.8409C330.589 62.1553 331.048 61.6212 331.635 61.2386C332.226 60.8523 332.915 60.6591 333.703 60.6591C334.158 60.6591 334.607 60.7348 335.05 60.8864C335.493 61.0379 335.896 61.2841 336.26 61.625C336.624 61.9621 336.913 62.4091 337.129 62.9659C337.345 63.5227 337.453 64.2083 337.453 65.0227V65.5909H330.726V64.4318H336.089C336.089 63.9394 335.991 63.5 335.794 63.1136C335.601 62.7273 335.324 62.4223 334.964 62.1989C334.608 61.9754 334.188 61.8636 333.703 61.8636C333.169 61.8636 332.707 61.9962 332.317 62.2614C331.93 62.5227 331.633 62.8636 331.425 63.2841C331.216 63.7045 331.112 64.1553 331.112 64.6364V65.4091C331.112 66.0682 331.226 66.6269 331.453 67.0852C331.684 67.5398 332.004 67.8864 332.413 68.125C332.822 68.3598 333.298 68.4773 333.839 68.4773C334.192 68.4773 334.51 68.428 334.794 68.3295C335.082 68.2273 335.33 68.0758 335.538 67.875C335.747 67.6705 335.908 67.4167 336.021 67.1136L337.317 67.4773C337.18 67.9167 336.951 68.303 336.629 68.6364C336.307 68.9659 335.91 69.2235 335.436 69.4091C334.963 69.5909 334.43 69.6818 333.839 69.6818ZM339.493 69.5V60.7727H340.788V62.1364H340.902C341.084 61.6705 341.377 61.3087 341.783 61.0511C342.188 60.7898 342.675 60.6591 343.243 60.6591C343.819 60.6591 344.298 60.7898 344.68 61.0511C345.067 61.3087 345.368 61.6705 345.584 62.1364H345.675C345.898 61.6856 346.233 61.3277 346.68 61.0625C347.127 60.7936 347.663 60.6591 348.288 60.6591C349.069 60.6591 349.707 60.9034 350.203 61.392C350.699 61.8769 350.947 62.6326 350.947 63.6591V69.5H349.607V63.6591C349.607 63.0152 349.43 62.5549 349.078 62.2784C348.726 62.0019 348.311 61.8636 347.834 61.8636C347.22 61.8636 346.745 62.0492 346.408 62.4205C346.071 62.7879 345.902 63.2538 345.902 63.8182V69.5H344.538V63.5227C344.538 63.0265 344.377 62.6269 344.055 62.3239C343.733 62.017 343.319 61.8636 342.811 61.8636C342.463 61.8636 342.137 61.9564 341.834 62.142C341.535 62.3277 341.292 62.5852 341.107 62.9148C340.925 63.2405 340.834 63.6174 340.834 64.0455V69.5H339.493Z" fill="#0B1D28"/>
<rect width="144" height="128" transform="translate(474)" fill="#006590" fill-opacity="0.16"/>
<rect x="474.5" y="28.5" width="143" height="71" rx="1.5" fill="white"/>
<rect x="474.5" y="28.5" width="143" height="71" rx="1.5" stroke="#001E2E" stroke-linecap="square" stroke-dasharray="6 6"/>
<path d="M531.818 57.8636V69.5H530.409V57.8636H531.818ZM538.257 60.7727V61.9091H533.734V60.7727H538.257ZM535.053 58.6818H536.393V67C536.393 67.3788 536.448 67.6629 536.558 67.8523C536.672 68.0379 536.816 68.1629 536.99 68.2273C537.168 68.2879 537.356 68.3182 537.553 68.3182C537.7 68.3182 537.821 68.3106 537.916 68.2955C538.011 68.2765 538.087 68.2614 538.143 68.25L538.416 69.4545C538.325 69.4886 538.198 69.5227 538.036 69.5568C537.873 69.5947 537.666 69.6136 537.416 69.6136C537.037 69.6136 536.666 69.5322 536.303 69.3693C535.943 69.2064 535.643 68.9583 535.405 68.625C535.17 68.2917 535.053 67.8712 535.053 67.3636V58.6818ZM543.839 69.6818C542.999 69.6818 542.273 69.4962 541.663 69.125C541.057 68.75 540.589 68.2273 540.26 67.5568C539.934 66.8826 539.771 66.0985 539.771 65.2045C539.771 64.3106 539.934 63.5227 540.26 62.8409C540.589 62.1553 541.048 61.6212 541.635 61.2386C542.226 60.8523 542.915 60.6591 543.703 60.6591C544.158 60.6591 544.607 60.7348 545.05 60.8864C545.493 61.0379 545.896 61.2841 546.26 61.625C546.624 61.9621 546.913 62.4091 547.129 62.9659C547.345 63.5227 547.453 64.2083 547.453 65.0227V65.5909H540.726V64.4318H546.089C546.089 63.9394 545.991 63.5 545.794 63.1136C545.601 62.7273 545.324 62.4223 544.964 62.1989C544.608 61.9754 544.188 61.8636 543.703 61.8636C543.169 61.8636 542.707 61.9962 542.317 62.2614C541.93 62.5227 541.633 62.8636 541.425 63.2841C541.216 63.7045 541.112 64.1553 541.112 64.6364V65.4091C541.112 66.0682 541.226 66.6269 541.453 67.0852C541.684 67.5398 542.004 67.8864 542.413 68.125C542.822 68.3598 543.298 68.4773 543.839 68.4773C544.192 68.4773 544.51 68.428 544.794 68.3295C545.082 68.2273 545.33 68.0758 545.538 67.875C545.747 67.6705 545.908 67.4167 546.021 67.1136L547.317 67.4773C547.18 67.9167 546.951 68.303 546.629 68.6364C546.307 68.9659 545.91 69.2235 545.436 69.4091C544.963 69.5909 544.43 69.6818 543.839 69.6818ZM549.493 69.5V60.7727H550.788V62.1364H550.902C551.084 61.6705 551.377 61.3087 551.783 61.0511C552.188 60.7898 552.675 60.6591 553.243 60.6591C553.819 60.6591 554.298 60.7898 554.68 61.0511C555.067 61.3087 555.368 61.6705 555.584 62.1364H555.675C555.898 61.6856 556.233 61.3277 556.68 61.0625C557.127 60.7936 557.663 60.6591 558.288 60.6591C559.069 60.6591 559.707 60.9034 560.203 61.392C560.699 61.8769 560.947 62.6326 560.947 63.6591V69.5H559.607V63.6591C559.607 63.0152 559.43 62.5549 559.078 62.2784C558.726 62.0019 558.311 61.8636 557.834 61.8636C557.22 61.8636 556.745 62.0492 556.408 62.4205C556.071 62.7879 555.902 63.2538 555.902 63.8182V69.5H554.538V63.5227C554.538 63.0265 554.377 62.6269 554.055 62.3239C553.733 62.017 553.319 61.8636 552.811 61.8636C552.463 61.8636 552.137 61.9564 551.834 62.142C551.535 62.3277 551.292 62.5852 551.107 62.9148C550.925 63.2405 550.834 63.6174 550.834 64.0455V69.5H549.493Z" fill="#0B1D28"/>
<path d="M716.5 64.5L716.5 58.5M716.5 64.5L716.5 70.5M716.5 64.5L620.5 64.5M620.5 64.5L620.5 58.5M620.5 64.5L620.5 70.4999" stroke="#3399D1"/>
<path d="M471.5 64.5L471.5 58.5M471.5 64.5L471.5 70.5M471.5 64.5L374.5 64.5M374.5 64.5L374.5 58.5M374.5 64.5L374.5 70.4999" stroke="#3399D1"/>
<path d="M297.5 64.5L297.5 58.5M297.5 64.5L297.5 70.5M297.5 64.5L200.5 64.5M200.5 64.5L200.5 58.5M200.5 64.5L200.5 70.4999" stroke="#3399D1"/>
<path d="M99.5 64.5L99.5 58.5M99.5 64.5L99.5 70.5M99.5 64.5L3.5 64.5M3.5 64.5L3.5 58.5M3.5 64.5L3.5 70.4999" stroke="#3399D1"/>
</svg>
