<svg width="720" height="128" viewBox="0 0 720 128" fill="none" xmlns="http://www.w3.org/2000/svg">
<rect x="0.5" y="0.5" width="719" height="127" rx="3.5" fill="#C8E6FF"/>
<rect x="0.5" y="0.5" width="719" height="127" rx="3.5" stroke="#006590"/>
<rect width="96" height="128" transform="translate(68)" fill="#006590" fill-opacity="0.16"/>
<rect x="68.5" y="28.5" width="95" height="71" rx="1.5" fill="white"/>
<rect x="68.5" y="28.5" width="95" height="71" rx="1.5" stroke="#001E2E" stroke-linecap="square" stroke-dasharray="6 6"/>
<path d="M101.818 57.8636V69.5H100.409V57.8636H101.818ZM108.257 60.7727V61.9091H103.734V60.7727H108.257ZM105.053 58.6818H106.393V67C106.393 67.3788 106.448 67.6629 106.558 67.8523C106.672 68.0379 106.816 68.1629 106.99 68.2273C107.168 68.2879 107.356 68.3182 107.553 68.3182C107.7 68.3182 107.821 68.3106 107.916 68.2955C108.011 68.2765 108.087 68.2614 108.143 68.25L108.416 69.4545C108.325 69.4886 108.198 69.5227 108.036 69.5568C107.873 69.5947 107.666 69.6136 107.416 69.6136C107.037 69.6136 106.666 69.5322 106.303 69.3693C105.943 69.2064 105.643 68.9583 105.405 68.625C105.17 68.2917 105.053 67.8712 105.053 67.3636V58.6818ZM113.839 69.6818C112.999 69.6818 112.273 69.4962 111.663 69.125C111.057 68.75 110.589 68.2273 110.26 67.5568C109.934 66.8826 109.771 66.0985 109.771 65.2045C109.771 64.3106 109.934 63.5227 110.26 62.8409C110.589 62.1553 111.048 61.6212 111.635 61.2386C112.226 60.8523 112.915 60.6591 113.703 60.6591C114.158 60.6591 114.607 60.7348 115.05 60.8864C115.493 61.0379 115.896 61.2841 116.26 61.625C116.624 61.9621 116.913 62.4091 117.129 62.9659C117.345 63.5227 117.453 64.2083 117.453 65.0227V65.5909H110.726V64.4318H116.089C116.089 63.9394 115.991 63.5 115.794 63.1136C115.601 62.7273 115.324 62.4223 114.964 62.1989C114.608 61.9754 114.188 61.8636 113.703 61.8636C113.169 61.8636 112.707 61.9962 112.317 62.2614C111.93 62.5227 111.633 62.8636 111.425 63.2841C111.216 63.7045 111.112 64.1553 111.112 64.6364V65.4091C111.112 66.0682 111.226 66.6269 111.453 67.0852C111.684 67.5398 112.004 67.8864 112.413 68.125C112.822 68.3598 113.298 68.4773 113.839 68.4773C114.192 68.4773 114.51 68.428 114.794 68.3295C115.082 68.2273 115.33 68.0758 115.538 67.875C115.747 67.6705 115.908 67.4167 116.021 67.1136L117.317 67.4773C117.18 67.9167 116.951 68.303 116.629 68.6364C116.307 68.9659 115.91 69.2235 115.436 69.4091C114.963 69.5909 114.43 69.6818 113.839 69.6818ZM119.493 69.5V60.7727H120.788V62.1364H120.902C121.084 61.6705 121.377 61.3087 121.783 61.0511C122.188 60.7898 122.675 60.6591 123.243 60.6591C123.819 60.6591 124.298 60.7898 124.68 61.0511C125.067 61.3087 125.368 61.6705 125.584 62.1364H125.675C125.898 61.6856 126.233 61.3277 126.68 61.0625C127.127 60.7936 127.663 60.6591 128.288 60.6591C129.069 60.6591 129.707 60.9034 130.203 61.392C130.699 61.8769 130.947 62.6326 130.947 63.6591V69.5H129.607V63.6591C129.607 63.0152 129.43 62.5549 129.078 62.2784C128.726 62.0019 128.311 61.8636 127.834 61.8636C127.22 61.8636 126.745 62.0492 126.408 62.4205C126.071 62.7879 125.902 63.2538 125.902 63.8182V69.5H124.538V63.5227C124.538 63.0265 124.377 62.6269 124.055 62.3239C123.733 62.017 123.319 61.8636 122.811 61.8636C122.463 61.8636 122.137 61.9564 121.834 62.142C121.535 62.3277 121.292 62.5852 121.107 62.9148C120.925 63.2405 120.834 63.6174 120.834 64.0455V69.5H119.493Z" fill="#0B1D28"/>
<rect width="72" height="128" transform="translate(300)" fill="#006590" fill-opacity="0.16"/>
<rect x="300.5" y="0.5" width="71" height="127" rx="1.5" fill="white"/>
<rect x="300.5" y="0.5" width="71" height="127" rx="1.5" stroke="#001E2E" stroke-linecap="square" stroke-dasharray="6 6"/>
<path d="M321.818 57.8636V69.5H320.409V57.8636H321.818ZM328.257 60.7727V61.9091H323.734V60.7727H328.257ZM325.053 58.6818H326.393V67C326.393 67.3788 326.448 67.6629 326.558 67.8523C326.672 68.0379 326.816 68.1629 326.99 68.2273C327.168 68.2879 327.356 68.3182 327.553 68.3182C327.7 68.3182 327.821 68.3106 327.916 68.2955C328.011 68.2765 328.087 68.2614 328.143 68.25L328.416 69.4545C328.325 69.4886 328.198 69.5227 328.036 69.5568C327.873 69.5947 327.666 69.6136 327.416 69.6136C327.037 69.6136 326.666 69.5322 326.303 69.3693C325.943 69.2064 325.643 68.9583 325.405 68.625C325.17 68.2917 325.053 67.8712 325.053 67.3636V58.6818ZM333.839 69.6818C332.999 69.6818 332.273 69.4962 331.663 69.125C331.057 68.75 330.589 68.2273 330.26 67.5568C329.934 66.8826 329.771 66.0985 329.771 65.2045C329.771 64.3106 329.934 63.5227 330.26 62.8409C330.589 62.1553 331.048 61.6212 331.635 61.2386C332.226 60.8523 332.915 60.6591 333.703 60.6591C334.158 60.6591 334.607 60.7348 335.05 60.8864C335.493 61.0379 335.896 61.2841 336.26 61.625C336.624 61.9621 336.913 62.4091 337.129 62.9659C337.345 63.5227 337.453 64.2083 337.453 65.0227V65.5909H330.726V64.4318H336.089C336.089 63.9394 335.991 63.5 335.794 63.1136C335.601 62.7273 335.324 62.4223 334.964 62.1989C334.608 61.9754 334.188 61.8636 333.703 61.8636C333.169 61.8636 332.707 61.9962 332.317 62.2614C331.93 62.5227 331.633 62.8636 331.425 63.2841C331.216 63.7045 331.112 64.1553 331.112 64.6364V65.4091C331.112 66.0682 331.226 66.6269 331.453 67.0852C331.684 67.5398 332.004 67.8864 332.413 68.125C332.822 68.3598 333.298 68.4773 333.839 68.4773C334.192 68.4773 334.51 68.428 334.794 68.3295C335.082 68.2273 335.33 68.0758 335.538 67.875C335.747 67.6705 335.908 67.4167 336.021 67.1136L337.317 67.4773C337.18 67.9167 336.951 68.303 336.629 68.6364C336.307 68.9659 335.91 69.2235 335.436 69.4091C334.963 69.5909 334.43 69.6818 333.839 69.6818ZM339.493 69.5V60.7727H340.788V62.1364H340.902C341.084 61.6705 341.377 61.3087 341.783 61.0511C342.188 60.7898 342.675 60.6591 343.243 60.6591C343.819 60.6591 344.298 60.7898 344.68 61.0511C345.067 61.3087 345.368 61.6705 345.584 62.1364H345.675C345.898 61.6856 346.233 61.3277 346.68 61.0625C347.127 60.7936 347.663 60.6591 348.288 60.6591C349.069 60.6591 349.707 60.9034 350.203 61.392C350.699 61.8769 350.947 62.6326 350.947 63.6591V69.5H349.607V63.6591C349.607 63.0152 349.43 62.5549 349.078 62.2784C348.726 62.0019 348.311 61.8636 347.834 61.8636C347.22 61.8636 346.745 62.0492 346.408 62.4205C346.071 62.7879 345.902 63.2538 345.902 63.8182V69.5H344.538V63.5227C344.538 63.0265 344.377 62.6269 344.055 62.3239C343.733 62.017 343.319 61.8636 342.811 61.8636C342.463 61.8636 342.137 61.9564 341.834 62.142C341.535 62.3277 341.292 62.5852 341.107 62.9148C340.925 63.2405 340.834 63.6174 340.834 64.0455V69.5H339.493Z" fill="#0B1D28"/>
<rect width="144" height="128" transform="translate(508)" fill="#006590" fill-opacity="0.16"/>
<rect x="508.5" y="28.5" width="143" height="71" rx="1.5" fill="white"/>
<rect x="508.5" y="28.5" width="143" height="71" rx="1.5" stroke="#001E2E" stroke-linecap="square" stroke-dasharray="6 6"/>
<path d="M565.818 57.8636V69.5H564.409V57.8636H565.818ZM572.257 60.7727V61.9091H567.734V60.7727H572.257ZM569.053 58.6818H570.393V67C570.393 67.3788 570.448 67.6629 570.558 67.8523C570.672 68.0379 570.816 68.1629 570.99 68.2273C571.168 68.2879 571.356 68.3182 571.553 68.3182C571.7 68.3182 571.821 68.3106 571.916 68.2955C572.011 68.2765 572.087 68.2614 572.143 68.25L572.416 69.4545C572.325 69.4886 572.198 69.5227 572.036 69.5568C571.873 69.5947 571.666 69.6136 571.416 69.6136C571.037 69.6136 570.666 69.5322 570.303 69.3693C569.943 69.2064 569.643 68.9583 569.405 68.625C569.17 68.2917 569.053 67.8712 569.053 67.3636V58.6818ZM577.839 69.6818C576.999 69.6818 576.273 69.4962 575.663 69.125C575.057 68.75 574.589 68.2273 574.26 67.5568C573.934 66.8826 573.771 66.0985 573.771 65.2045C573.771 64.3106 573.934 63.5227 574.26 62.8409C574.589 62.1553 575.048 61.6212 575.635 61.2386C576.226 60.8523 576.915 60.6591 577.703 60.6591C578.158 60.6591 578.607 60.7348 579.05 60.8864C579.493 61.0379 579.896 61.2841 580.26 61.625C580.624 61.9621 580.913 62.4091 581.129 62.9659C581.345 63.5227 581.453 64.2083 581.453 65.0227V65.5909H574.726V64.4318H580.089C580.089 63.9394 579.991 63.5 579.794 63.1136C579.601 62.7273 579.324 62.4223 578.964 62.1989C578.608 61.9754 578.188 61.8636 577.703 61.8636C577.169 61.8636 576.707 61.9962 576.317 62.2614C575.93 62.5227 575.633 62.8636 575.425 63.2841C575.216 63.7045 575.112 64.1553 575.112 64.6364V65.4091C575.112 66.0682 575.226 66.6269 575.453 67.0852C575.684 67.5398 576.004 67.8864 576.413 68.125C576.822 68.3598 577.298 68.4773 577.839 68.4773C578.192 68.4773 578.51 68.428 578.794 68.3295C579.082 68.2273 579.33 68.0758 579.538 67.875C579.747 67.6705 579.908 67.4167 580.021 67.1136L581.317 67.4773C581.18 67.9167 580.951 68.303 580.629 68.6364C580.307 68.9659 579.91 69.2235 579.436 69.4091C578.963 69.5909 578.43 69.6818 577.839 69.6818ZM583.493 69.5V60.7727H584.788V62.1364H584.902C585.084 61.6705 585.377 61.3087 585.783 61.0511C586.188 60.7898 586.675 60.6591 587.243 60.6591C587.819 60.6591 588.298 60.7898 588.68 61.0511C589.067 61.3087 589.368 61.6705 589.584 62.1364H589.675C589.898 61.6856 590.233 61.3277 590.68 61.0625C591.127 60.7936 591.663 60.6591 592.288 60.6591C593.069 60.6591 593.707 60.9034 594.203 61.392C594.699 61.8769 594.947 62.6326 594.947 63.6591V69.5H593.607V63.6591C593.607 63.0152 593.43 62.5549 593.078 62.2784C592.726 62.0019 592.311 61.8636 591.834 61.8636C591.22 61.8636 590.745 62.0492 590.408 62.4205C590.071 62.7879 589.902 63.2538 589.902 63.8182V69.5H588.538V63.5227C588.538 63.0265 588.377 62.6269 588.055 62.3239C587.733 62.017 587.319 61.8636 586.811 61.8636C586.463 61.8636 586.137 61.9564 585.834 62.142C585.535 62.3277 585.292 62.5852 585.107 62.9148C584.925 63.2405 584.834 63.6174 584.834 64.0455V69.5H583.493Z" fill="#0B1D28"/>
<path d="M230.5 76.5L230.5 70.5M230.5 76.5L230.5 82.5M230.5 76.5L166.5 76.5M166.5 76.5L166.5 70.5M166.5 76.5L166.5 82.4999" stroke="#3399D1"/>
<path d="M438.5 76.5L438.5 70.5M438.5 76.5L438.5 82.5M438.5 76.5L374.5 76.5M374.5 76.5L374.5 70.5M374.5 76.5L374.5 82.4999" stroke="#3399D1"/>
<path d="M297.5 76.5L297.5 70.5M297.5 76.5L297.5 82.5M297.5 76.5L233.5 76.5M233.5 76.5L233.5 70.5M233.5 76.5L233.5 82.4999" stroke="#3399D1"/>
<path d="M505.5 76.5L505.5 70.5M505.5 76.5L505.5 82.5M505.5 76.5L441.5 76.5M441.5 76.5L441.5 70.5M441.5 76.5L441.5 82.4999" stroke="#3399D1"/>
<path d="M716.5 76.5L716.5 70.5M716.5 76.5L716.5 82.5M716.5 76.5L654.5 76.5M654.5 76.5L654.5 70.5M654.5 76.5L654.5 82.4999" stroke="#3399D1"/>
<path d="M65.5 76.5L65.5 70.5M65.5 76.5L65.5 82.5M65.5 76.5L3 76.5M3 76.5L3 70.5M3 76.5L3 82.4999" stroke="#3399D1"/>
<path d="M34.9094 55L34.9234 46.068L35.0774 45.2H36.4914L36.4774 55H34.9094ZM32.7954 48.07V46.6C33.01 46.6093 33.2527 46.5487 33.5234 46.418C33.8034 46.278 34.0787 46.096 34.3494 45.872C34.62 45.648 34.8627 45.4193 35.0774 45.186L36.0854 46.236C35.7587 46.5813 35.418 46.8987 35.0634 47.188C34.7087 47.4773 34.34 47.7013 33.9574 47.86C33.584 48.0187 33.1967 48.0887 32.7954 48.07Z" fill="#006590"/>
<path d="M685.909 55L685.923 46.068L686.077 45.2H687.491L687.477 55H685.909ZM683.795 48.07V46.6C684.01 46.6093 684.253 46.5487 684.523 46.418C684.803 46.278 685.079 46.096 685.349 45.872C685.62 45.648 685.863 45.4193 686.077 45.186L687.085 46.236C686.759 46.5813 686.418 46.8987 686.063 47.188C685.709 47.4773 685.34 47.7013 684.957 47.86C684.584 48.0187 684.197 48.0887 683.795 48.07Z" fill="#006590"/>
<path d="M197.909 55L197.923 46.068L198.077 45.2H199.491L199.477 55H197.909ZM195.795 48.07V46.6C196.01 46.6093 196.253 46.5487 196.523 46.418C196.803 46.278 197.079 46.096 197.349 45.872C197.62 45.648 197.863 45.4193 198.077 45.186L199.085 46.236C198.759 46.5813 198.418 46.8987 198.063 47.188C197.709 47.4773 197.34 47.7013 196.957 47.86C196.584 48.0187 196.197 48.0887 195.795 48.07Z" fill="#006590"/>
<path d="M405.909 55L405.923 46.068L406.077 45.2H407.491L407.477 55H405.909ZM403.795 48.07V46.6C404.01 46.6093 404.253 46.5487 404.523 46.418C404.803 46.278 405.079 46.096 405.349 45.872C405.62 45.648 405.863 45.4193 406.077 45.186L407.085 46.236C406.759 46.5813 406.418 46.8987 406.063 47.188C405.709 47.4773 405.34 47.7013 404.957 47.86C404.584 48.0187 404.197 48.0887 403.795 48.07Z" fill="#006590"/>
<path d="M231.35 54.034V47.622H232.652V54.034H231.35ZM228.788 51.486V50.184H235.214V51.486H228.788Z" fill="#006590"/>
<path d="M439.35 54.034V47.622H440.652V54.034H439.35ZM436.788 51.486V50.184H443.214V51.486H436.788Z" fill="#006590"/>
<path d="M265.909 55L265.923 46.068L266.077 45.2H267.491L267.477 55H265.909ZM263.795 48.07V46.6C264.01 46.6093 264.253 46.5487 264.523 46.418C264.803 46.278 265.079 46.096 265.349 45.872C265.62 45.648 265.863 45.4193 266.077 45.186L267.085 46.236C266.759 46.5813 266.418 46.8987 266.063 47.188C265.709 47.4773 265.34 47.7013 264.957 47.86C264.584 48.0187 264.197 48.0887 263.795 48.07Z" fill="#006590"/>
<path d="M473.909 55L473.923 46.068L474.077 45.2H475.491L475.477 55H473.909ZM471.795 48.07V46.6C472.01 46.6093 472.253 46.5487 472.523 46.418C472.803 46.278 473.079 46.096 473.349 45.872C473.62 45.648 473.863 45.4193 474.077 45.186L475.085 46.236C474.759 46.5813 474.418 46.8987 474.063 47.188C473.709 47.4773 473.34 47.7013 472.957 47.86C472.584 48.0187 472.197 48.0887 471.795 48.07Z" fill="#006590"/>
</svg>
