<svg width="720" height="128" viewBox="0 0 720 128" fill="none" xmlns="http://www.w3.org/2000/svg">
<rect x="0.5" y="0.5" width="719" height="127" rx="3.5" fill="#C8E6FF"/>
<rect x="0.5" y="0.5" width="719" height="127" rx="3.5" stroke="#006590"/>
<rect width="96" height="128" transform="translate(188)" fill="#006590" fill-opacity="0.16"/>
<rect x="188.5" y="0.5" width="95" height="71" rx="1.5" fill="white"/>
<rect x="188.5" y="0.5" width="95" height="71" rx="1.5" stroke="#001E2E" stroke-linecap="square" stroke-dasharray="6 6"/>
<path d="M221.818 29.8636V41.5H220.409V29.8636H221.818ZM228.257 32.7727V33.9091H223.734V32.7727H228.257ZM225.053 30.6818H226.393V39C226.393 39.3788 226.448 39.6629 226.558 39.8523C226.672 40.0379 226.816 40.1629 226.99 40.2273C227.168 40.2879 227.356 40.3182 227.553 40.3182C227.7 40.3182 227.821 40.3106 227.916 40.2955C228.011 40.2765 228.087 40.2614 228.143 40.25L228.416 41.4545C228.325 41.4886 228.198 41.5227 228.036 41.5568C227.873 41.5947 227.666 41.6136 227.416 41.6136C227.037 41.6136 226.666 41.5322 226.303 41.3693C225.943 41.2064 225.643 40.9583 225.405 40.625C225.17 40.2917 225.053 39.8712 225.053 39.3636V30.6818ZM233.839 41.6818C232.999 41.6818 232.273 41.4962 231.663 41.125C231.057 40.75 230.589 40.2273 230.26 39.5568C229.934 38.8826 229.771 38.0985 229.771 37.2045C229.771 36.3106 229.934 35.5227 230.26 34.8409C230.589 34.1553 231.048 33.6212 231.635 33.2386C232.226 32.8523 232.915 32.6591 233.703 32.6591C234.158 32.6591 234.607 32.7348 235.05 32.8864C235.493 33.0379 235.896 33.2841 236.26 33.625C236.624 33.9621 236.913 34.4091 237.129 34.9659C237.345 35.5227 237.453 36.2083 237.453 37.0227V37.5909H230.726V36.4318H236.089C236.089 35.9394 235.991 35.5 235.794 35.1136C235.601 34.7273 235.324 34.4223 234.964 34.1989C234.608 33.9754 234.188 33.8636 233.703 33.8636C233.169 33.8636 232.707 33.9962 232.317 34.2614C231.93 34.5227 231.633 34.8636 231.425 35.2841C231.216 35.7045 231.112 36.1553 231.112 36.6364V37.4091C231.112 38.0682 231.226 38.6269 231.453 39.0852C231.684 39.5398 232.004 39.8864 232.413 40.125C232.822 40.3598 233.298 40.4773 233.839 40.4773C234.192 40.4773 234.51 40.428 234.794 40.3295C235.082 40.2273 235.33 40.0758 235.538 39.875C235.747 39.6705 235.908 39.4167 236.021 39.1136L237.317 39.4773C237.18 39.9167 236.951 40.303 236.629 40.6364C236.307 40.9659 235.91 41.2235 235.436 41.4091C234.963 41.5909 234.43 41.6818 233.839 41.6818ZM239.493 41.5V32.7727H240.788V34.1364H240.902C241.084 33.6705 241.377 33.3087 241.783 33.0511C242.188 32.7898 242.675 32.6591 243.243 32.6591C243.819 32.6591 244.298 32.7898 244.68 33.0511C245.067 33.3087 245.368 33.6705 245.584 34.1364H245.675C245.898 33.6856 246.233 33.3277 246.68 33.0625C247.127 32.7936 247.663 32.6591 248.288 32.6591C249.069 32.6591 249.707 32.9034 250.203 33.392C250.699 33.8769 250.947 34.6326 250.947 35.6591V41.5H249.607V35.6591C249.607 35.0152 249.43 34.5549 249.078 34.2784C248.726 34.0019 248.311 33.8636 247.834 33.8636C247.22 33.8636 246.745 34.0492 246.408 34.4205C246.071 34.7879 245.902 35.2538 245.902 35.8182V41.5H244.538V35.5227C244.538 35.0265 244.377 34.6269 244.055 34.3239C243.733 34.017 243.319 33.8636 242.811 33.8636C242.463 33.8636 242.137 33.9564 241.834 34.142C241.535 34.3277 241.292 34.5852 241.107 34.9148C240.925 35.2405 240.834 35.6174 240.834 36.0455V41.5H239.493Z" fill="#0B1D28"/>
<rect width="72" height="128" transform="translate(300)" fill="#006590" fill-opacity="0.16"/>
<rect x="300.5" y="0.5" width="71" height="127" rx="1.5" fill="white"/>
<rect x="300.5" y="0.5" width="71" height="127" rx="1.5" stroke="#001E2E" stroke-linecap="square" stroke-dasharray="6 6"/>
<path d="M321.818 57.8636V69.5H320.409V57.8636H321.818ZM328.257 60.7727V61.9091H323.734V60.7727H328.257ZM325.053 58.6818H326.393V67C326.393 67.3788 326.448 67.6629 326.558 67.8523C326.672 68.0379 326.816 68.1629 326.99 68.2273C327.168 68.2879 327.356 68.3182 327.553 68.3182C327.7 68.3182 327.821 68.3106 327.916 68.2955C328.011 68.2765 328.087 68.2614 328.143 68.25L328.416 69.4545C328.325 69.4886 328.198 69.5227 328.036 69.5568C327.873 69.5947 327.666 69.6136 327.416 69.6136C327.037 69.6136 326.666 69.5322 326.303 69.3693C325.943 69.2064 325.643 68.9583 325.405 68.625C325.17 68.2917 325.053 67.8712 325.053 67.3636V58.6818ZM333.839 69.6818C332.999 69.6818 332.273 69.4962 331.663 69.125C331.057 68.75 330.589 68.2273 330.26 67.5568C329.934 66.8826 329.771 66.0985 329.771 65.2045C329.771 64.3106 329.934 63.5227 330.26 62.8409C330.589 62.1553 331.048 61.6212 331.635 61.2386C332.226 60.8523 332.915 60.6591 333.703 60.6591C334.158 60.6591 334.607 60.7348 335.05 60.8864C335.493 61.0379 335.896 61.2841 336.26 61.625C336.624 61.9621 336.913 62.4091 337.129 62.9659C337.345 63.5227 337.453 64.2083 337.453 65.0227V65.5909H330.726V64.4318H336.089C336.089 63.9394 335.991 63.5 335.794 63.1136C335.601 62.7273 335.324 62.4223 334.964 62.1989C334.608 61.9754 334.188 61.8636 333.703 61.8636C333.169 61.8636 332.707 61.9962 332.317 62.2614C331.93 62.5227 331.633 62.8636 331.425 63.2841C331.216 63.7045 331.112 64.1553 331.112 64.6364V65.4091C331.112 66.0682 331.226 66.6269 331.453 67.0852C331.684 67.5398 332.004 67.8864 332.413 68.125C332.822 68.3598 333.298 68.4773 333.839 68.4773C334.192 68.4773 334.51 68.428 334.794 68.3295C335.082 68.2273 335.33 68.0758 335.538 67.875C335.747 67.6705 335.908 67.4167 336.021 67.1136L337.317 67.4773C337.18 67.9167 336.951 68.303 336.629 68.6364C336.307 68.9659 335.91 69.2235 335.436 69.4091C334.963 69.5909 334.43 69.6818 333.839 69.6818ZM339.493 69.5V60.7727H340.788V62.1364H340.902C341.084 61.6705 341.377 61.3087 341.783 61.0511C342.188 60.7898 342.675 60.6591 343.243 60.6591C343.819 60.6591 344.298 60.7898 344.68 61.0511C345.067 61.3087 345.368 61.6705 345.584 62.1364H345.675C345.898 61.6856 346.233 61.3277 346.68 61.0625C347.127 60.7936 347.663 60.6591 348.288 60.6591C349.069 60.6591 349.707 60.9034 350.203 61.392C350.699 61.8769 350.947 62.6326 350.947 63.6591V69.5H349.607V63.6591C349.607 63.0152 349.43 62.5549 349.078 62.2784C348.726 62.0019 348.311 61.8636 347.834 61.8636C347.22 61.8636 346.745 62.0492 346.408 62.4205C346.071 62.7879 345.902 63.2538 345.902 63.8182V69.5H344.538V63.5227C344.538 63.0265 344.377 62.6269 344.055 62.3239C343.733 62.017 343.319 61.8636 342.811 61.8636C342.463 61.8636 342.137 61.9564 341.834 62.142C341.535 62.3277 341.292 62.5852 341.107 62.9148C340.925 63.2405 340.834 63.6174 340.834 64.0455V69.5H339.493Z" fill="#0B1D28"/>
<rect width="144" height="128" transform="translate(388)" fill="#006590" fill-opacity="0.16"/>
<rect x="388.5" y="0.5" width="143" height="71" rx="1.5" fill="white"/>
<rect x="388.5" y="0.5" width="143" height="71" rx="1.5" stroke="#001E2E" stroke-linecap="square" stroke-dasharray="6 6"/>
<path d="M445.818 29.8636V41.5H444.409V29.8636H445.818ZM452.257 32.7727V33.9091H447.734V32.7727H452.257ZM449.053 30.6818H450.393V39C450.393 39.3788 450.448 39.6629 450.558 39.8523C450.672 40.0379 450.816 40.1629 450.99 40.2273C451.168 40.2879 451.356 40.3182 451.553 40.3182C451.7 40.3182 451.821 40.3106 451.916 40.2955C452.011 40.2765 452.087 40.2614 452.143 40.25L452.416 41.4545C452.325 41.4886 452.198 41.5227 452.036 41.5568C451.873 41.5947 451.666 41.6136 451.416 41.6136C451.037 41.6136 450.666 41.5322 450.303 41.3693C449.943 41.2064 449.643 40.9583 449.405 40.625C449.17 40.2917 449.053 39.8712 449.053 39.3636V30.6818ZM457.839 41.6818C456.999 41.6818 456.273 41.4962 455.663 41.125C455.057 40.75 454.589 40.2273 454.26 39.5568C453.934 38.8826 453.771 38.0985 453.771 37.2045C453.771 36.3106 453.934 35.5227 454.26 34.8409C454.589 34.1553 455.048 33.6212 455.635 33.2386C456.226 32.8523 456.915 32.6591 457.703 32.6591C458.158 32.6591 458.607 32.7348 459.05 32.8864C459.493 33.0379 459.896 33.2841 460.26 33.625C460.624 33.9621 460.913 34.4091 461.129 34.9659C461.345 35.5227 461.453 36.2083 461.453 37.0227V37.5909H454.726V36.4318H460.089C460.089 35.9394 459.991 35.5 459.794 35.1136C459.601 34.7273 459.324 34.4223 458.964 34.1989C458.608 33.9754 458.188 33.8636 457.703 33.8636C457.169 33.8636 456.707 33.9962 456.317 34.2614C455.93 34.5227 455.633 34.8636 455.425 35.2841C455.216 35.7045 455.112 36.1553 455.112 36.6364V37.4091C455.112 38.0682 455.226 38.6269 455.453 39.0852C455.684 39.5398 456.004 39.8864 456.413 40.125C456.822 40.3598 457.298 40.4773 457.839 40.4773C458.192 40.4773 458.51 40.428 458.794 40.3295C459.082 40.2273 459.33 40.0758 459.538 39.875C459.747 39.6705 459.908 39.4167 460.021 39.1136L461.317 39.4773C461.18 39.9167 460.951 40.303 460.629 40.6364C460.307 40.9659 459.91 41.2235 459.436 41.4091C458.963 41.5909 458.43 41.6818 457.839 41.6818ZM463.493 41.5V32.7727H464.788V34.1364H464.902C465.084 33.6705 465.377 33.3087 465.783 33.0511C466.188 32.7898 466.675 32.6591 467.243 32.6591C467.819 32.6591 468.298 32.7898 468.68 33.0511C469.067 33.3087 469.368 33.6705 469.584 34.1364H469.675C469.898 33.6856 470.233 33.3277 470.68 33.0625C471.127 32.7936 471.663 32.6591 472.288 32.6591C473.069 32.6591 473.707 32.9034 474.203 33.392C474.699 33.8769 474.947 34.6326 474.947 35.6591V41.5H473.607V35.6591C473.607 35.0152 473.43 34.5549 473.078 34.2784C472.726 34.0019 472.311 33.8636 471.834 33.8636C471.22 33.8636 470.745 34.0492 470.408 34.4205C470.071 34.7879 469.902 35.2538 469.902 35.8182V41.5H468.538V35.5227C468.538 35.0265 468.377 34.6269 468.055 34.3239C467.733 34.017 467.319 33.8636 466.811 33.8636C466.463 33.8636 466.137 33.9564 465.834 34.142C465.535 34.3277 465.292 34.5852 465.107 34.9148C464.925 35.2405 464.834 35.6174 464.834 36.0455V41.5H463.493Z" fill="#0B1D28"/>
</svg>
