<svg width="520" height="160" viewBox="0 0 520 160" fill="none" xmlns="http://www.w3.org/2000/svg">
<g clip-path="url(#clip0_8407_62540)">
<rect x="13.5" y="49.5" width="37" height="69" rx="6.5" fill="#FAFCFF" stroke="#87CEFF" stroke-width="3"/>
<rect x="27" y="54" width="10" height="3" rx="1.5" fill="#87CEFF"/>
<rect y="132" width="64" height="28" rx="14" fill="#C8E6FF"/>
<path d="M14.256 147.096V145.812H16.116C16.516 145.812 16.844 145.676 17.1 145.404C17.356 145.132 17.484 144.78 17.484 144.348C17.484 144.052 17.416 143.796 17.28 143.58C17.152 143.356 16.972 143.18 16.74 143.052C16.508 142.924 16.24 142.864 15.936 142.872H14.256V141.6L15.96 141.588C16.536 141.588 17.044 141.708 17.484 141.948C17.924 142.18 18.268 142.504 18.516 142.92C18.764 143.328 18.888 143.804 18.888 144.348C18.888 144.876 18.772 145.348 18.54 145.764C18.308 146.18 17.984 146.508 17.568 146.748C17.16 146.98 16.684 147.096 16.14 147.096H14.256ZM12.996 150V141.6H14.388V150H12.996ZM19.881 150L19.869 141.492H21.213L21.225 150H19.881ZM23.949 150V146.928L25.293 146.568V150H23.949ZM23.949 146.928C23.949 146.448 23.893 146.08 23.781 145.824C23.669 145.56 23.513 145.376 23.313 145.272C23.121 145.168 22.897 145.116 22.641 145.116C22.185 145.108 21.833 145.256 21.585 145.56C21.345 145.864 21.225 146.3 21.225 146.868H20.709C20.709 146.236 20.801 145.696 20.985 145.248C21.177 144.792 21.445 144.448 21.789 144.216C22.133 143.976 22.541 143.856 23.013 143.856C23.733 143.856 24.293 144.08 24.693 144.528C25.093 144.968 25.293 145.648 25.293 146.568L23.949 146.928ZM29.4142 150.144C28.8142 150.144 28.2782 150.012 27.8062 149.748C27.3422 149.476 26.9782 149.104 26.7142 148.632C26.4502 148.16 26.3182 147.616 26.3182 147C26.3182 146.384 26.4462 145.84 26.7022 145.368C26.9662 144.896 27.3302 144.528 27.7942 144.264C28.2582 143.992 28.7902 143.856 29.3902 143.856C29.9902 143.856 30.5222 143.992 30.9862 144.264C31.4502 144.528 31.8102 144.896 32.0662 145.368C32.3302 145.84 32.4622 146.384 32.4622 147C32.4622 147.616 32.3342 148.16 32.0782 148.632C31.8222 149.104 31.4622 149.476 30.9982 149.748C30.5342 150.012 30.0062 150.144 29.4142 150.144ZM29.4142 148.908C29.7422 148.908 30.0342 148.828 30.2902 148.668C30.5462 148.5 30.7462 148.276 30.8902 147.996C31.0342 147.708 31.1062 147.376 31.1062 147C31.1062 146.624 31.0302 146.296 30.8782 146.016C30.7342 145.728 30.5342 145.504 30.2782 145.344C30.0222 145.176 29.7262 145.092 29.3902 145.092C29.0542 145.092 28.7582 145.172 28.5022 145.332C28.2462 145.492 28.0462 145.716 27.9022 146.004C27.7582 146.292 27.6862 146.624 27.6862 147C27.6862 147.376 27.7582 147.708 27.9022 147.996C28.0542 148.276 28.2582 148.5 28.5142 148.668C28.7782 148.828 29.0782 148.908 29.4142 148.908ZM33.6268 150V144H34.8868L34.9708 145.104V150H33.6268ZM37.6948 150V146.928L39.0388 146.568V150H37.6948ZM37.6948 146.928C37.6948 146.448 37.6388 146.08 37.5268 145.824C37.4228 145.56 37.2708 145.376 37.0708 145.272C36.8788 145.168 36.6508 145.116 36.3868 145.116C35.9388 145.108 35.5908 145.256 35.3428 145.56C35.0948 145.864 34.9708 146.3 34.9708 146.868H34.4668C34.4668 146.236 34.5588 145.696 34.7428 145.248C34.9268 144.792 35.1908 144.448 35.5348 144.216C35.8788 143.976 36.2868 143.856 36.7588 143.856C37.4868 143.856 38.0468 144.08 38.4388 144.528C38.8388 144.968 39.0388 145.648 39.0388 146.568L37.6948 146.928ZM43.0763 150.144C42.4923 150.144 41.9723 150.012 41.5163 149.748C41.0683 149.476 40.7123 149.104 40.4482 148.632C40.1923 148.16 40.0643 147.616 40.0643 147C40.0643 146.384 40.1963 145.84 40.4603 145.368C40.7243 144.896 41.0843 144.528 41.5403 144.264C42.0043 143.992 42.5323 143.856 43.1243 143.856C43.6603 143.856 44.1403 143.996 44.5643 144.276C44.9963 144.548 45.3403 144.944 45.5963 145.464C45.8523 145.984 45.9803 146.604 45.9803 147.324H44.6243C44.6243 146.804 44.5603 146.376 44.4323 146.04C44.3123 145.704 44.1363 145.456 43.9043 145.296C43.6803 145.128 43.4043 145.044 43.0763 145.044C42.7323 145.044 42.4363 145.12 42.1883 145.272C41.9403 145.424 41.7523 145.648 41.6243 145.944C41.4963 146.232 41.4323 146.596 41.4323 147.036C41.4323 147.428 41.5083 147.764 41.6603 148.044C41.8203 148.324 42.0323 148.54 42.2963 148.692C42.5683 148.836 42.8683 148.908 43.1963 148.908C43.5563 148.908 43.8523 148.828 44.0843 148.668C44.3163 148.5 44.4963 148.288 44.6243 148.032L45.8603 148.56C45.6923 148.88 45.4763 149.16 45.2123 149.4C44.9563 149.64 44.6483 149.824 44.2883 149.952C43.9363 150.08 43.5323 150.144 43.0763 150.144ZM40.9523 147.324V146.256H45.2723V147.324H40.9523ZM49.1936 150.144C48.7936 150.144 48.4256 150.084 48.0896 149.964C47.7536 149.844 47.4656 149.676 47.2256 149.46C46.9856 149.236 46.8016 148.976 46.6736 148.68L47.8376 148.164C47.9576 148.388 48.1336 148.576 48.3656 148.728C48.6056 148.88 48.8696 148.956 49.1576 148.956C49.4696 148.956 49.7176 148.904 49.9016 148.8C50.0936 148.688 50.1896 148.536 50.1896 148.344C50.1896 148.16 50.1176 148.02 49.9736 147.924C49.8296 147.82 49.6256 147.736 49.3616 147.672L48.7976 147.516C48.2296 147.372 47.7856 147.144 47.4656 146.832C47.1456 146.512 46.9856 146.148 46.9856 145.74C46.9856 145.14 47.1776 144.676 47.5616 144.348C47.9536 144.02 48.5136 143.856 49.2416 143.856C49.6096 143.856 49.9456 143.912 50.2496 144.024C50.5616 144.128 50.8296 144.28 51.0536 144.48C51.2776 144.672 51.4336 144.9 51.5216 145.164L50.4056 145.668C50.3256 145.468 50.1736 145.316 49.9496 145.212C49.7256 145.1 49.4776 145.044 49.2056 145.044C48.9336 145.044 48.7216 145.104 48.5696 145.224C48.4176 145.336 48.3416 145.496 48.3416 145.704C48.3416 145.824 48.4096 145.936 48.5456 146.04C48.6816 146.136 48.8776 146.216 49.1336 146.28L49.8416 146.448C50.2336 146.544 50.5536 146.696 50.8016 146.904C51.0496 147.104 51.2336 147.332 51.3536 147.588C51.4736 147.836 51.5336 148.088 51.5336 148.344C51.5336 148.704 51.4296 149.02 51.2216 149.292C51.0216 149.564 50.7456 149.776 50.3936 149.928C50.0416 150.072 49.6416 150.144 49.1936 150.144Z" fill="#004C6D"/>
<rect x="89.5" y="49.5" width="77" height="69" rx="6.5" fill="#FAFCFF" stroke="#87CEFF" stroke-width="3"/>
<path fill-rule="evenodd" clip-rule="evenodd" d="M160 54C158.895 54 158 54.8954 158 56C158 57.1046 158.895 58 160 58C161.105 58 162 57.1046 162 56C162 54.8954 161.105 54 160 54ZM128 72C127.448 72 127 72.4477 127 73V95C127 95.5523 127.448 96 128 96C128.552 96 129 95.5523 129 95V73C129 72.4477 128.552 72 128 72Z" fill="#87CEFF"/>
<rect x="90" y="132" width="76" height="28" rx="14" fill="#C8E6FF"/>
<path d="M102.996 150V141.6H104.388V150H102.996ZM104.148 146.496V145.224H107.664V146.496H104.148ZM104.148 142.872V141.6H108.216V142.872H104.148ZM112.02 150.144C111.42 150.144 110.884 150.012 110.412 149.748C109.948 149.476 109.584 149.104 109.32 148.632C109.056 148.16 108.924 147.616 108.924 147C108.924 146.384 109.052 145.84 109.308 145.368C109.572 144.896 109.936 144.528 110.4 144.264C110.864 143.992 111.396 143.856 111.996 143.856C112.596 143.856 113.128 143.992 113.592 144.264C114.056 144.528 114.416 144.896 114.672 145.368C114.936 145.84 115.068 146.384 115.068 147C115.068 147.616 114.94 148.16 114.684 148.632C114.428 149.104 114.068 149.476 113.604 149.748C113.14 150.012 112.612 150.144 112.02 150.144ZM112.02 148.908C112.348 148.908 112.64 148.828 112.896 148.668C113.152 148.5 113.352 148.276 113.496 147.996C113.64 147.708 113.712 147.376 113.712 147C113.712 146.624 113.636 146.296 113.484 146.016C113.34 145.728 113.14 145.504 112.884 145.344C112.628 145.176 112.332 145.092 111.996 145.092C111.66 145.092 111.364 145.172 111.108 145.332C110.852 145.492 110.652 145.716 110.508 146.004C110.364 146.292 110.292 146.624 110.292 147C110.292 147.376 110.364 147.708 110.508 147.996C110.66 148.276 110.864 148.5 111.12 148.668C111.384 148.828 111.684 148.908 112.02 148.908ZM116.232 150V141.6H117.576V150H116.232ZM123.4 150L123.34 148.884V141.6H124.672V150H123.4ZM121.444 150.144C120.9 150.144 120.424 150.016 120.016 149.76C119.616 149.496 119.3 149.128 119.068 148.656C118.844 148.184 118.732 147.632 118.732 147C118.732 146.36 118.844 145.808 119.068 145.344C119.3 144.872 119.616 144.508 120.016 144.252C120.424 143.988 120.9 143.856 121.444 143.856C121.948 143.856 122.38 143.988 122.74 144.252C123.108 144.508 123.388 144.872 123.58 145.344C123.772 145.808 123.868 146.36 123.868 147C123.868 147.632 123.772 148.184 123.58 148.656C123.388 149.128 123.108 149.496 122.74 149.76C122.38 150.016 121.948 150.144 121.444 150.144ZM121.78 148.92C122.084 148.92 122.352 148.84 122.584 148.68C122.824 148.512 123.008 148.284 123.136 147.996C123.272 147.708 123.34 147.376 123.34 147C123.34 146.624 123.272 146.292 123.136 146.004C123.008 145.716 122.824 145.492 122.584 145.332C122.352 145.172 122.08 145.092 121.768 145.092C121.448 145.092 121.164 145.172 120.916 145.332C120.668 145.492 120.472 145.716 120.328 146.004C120.192 146.292 120.12 146.624 120.112 147C120.12 147.376 120.192 147.708 120.328 147.996C120.472 148.284 120.668 148.512 120.916 148.68C121.172 148.84 121.46 148.92 121.78 148.92ZM129.794 150L129.734 148.872V146.916C129.734 146.508 129.69 146.168 129.602 145.896C129.514 145.624 129.374 145.416 129.182 145.272C128.998 145.128 128.754 145.056 128.45 145.056C128.17 145.056 127.922 145.116 127.706 145.236C127.49 145.356 127.31 145.54 127.166 145.788L125.942 145.356C126.078 145.092 126.254 144.844 126.47 144.612C126.686 144.38 126.958 144.196 127.286 144.06C127.622 143.924 128.018 143.856 128.474 143.856C129.058 143.856 129.542 143.964 129.926 144.18C130.318 144.396 130.61 144.716 130.802 145.14C130.994 145.564 131.09 146.088 131.09 146.712L131.054 150H129.794ZM128.09 150.144C127.37 150.144 126.81 149.984 126.41 149.664C126.018 149.344 125.822 148.892 125.822 148.308C125.822 147.684 126.03 147.208 126.446 146.88C126.87 146.552 127.458 146.388 128.21 146.388H129.818V147.42H128.642C128.106 147.42 127.73 147.496 127.514 147.648C127.298 147.792 127.19 148 127.19 148.272C127.19 148.504 127.282 148.688 127.466 148.824C127.658 148.952 127.922 149.016 128.258 149.016C128.554 149.016 128.81 148.948 129.026 148.812C129.25 148.668 129.422 148.484 129.542 148.26C129.67 148.028 129.734 147.78 129.734 147.516H130.226C130.226 148.332 130.05 148.976 129.698 149.448C129.354 149.912 128.818 150.144 128.09 150.144ZM132.451 150V141.6H133.795V148.884L133.723 150H132.451ZM135.691 150.144C135.187 150.144 134.751 150.016 134.383 149.76C134.023 149.496 133.747 149.128 133.555 148.656C133.363 148.184 133.267 147.632 133.267 147C133.267 146.36 133.363 145.808 133.555 145.344C133.747 144.872 134.023 144.508 134.383 144.252C134.751 143.988 135.187 143.856 135.691 143.856C136.235 143.856 136.707 143.988 137.107 144.252C137.515 144.508 137.831 144.872 138.055 145.344C138.287 145.808 138.403 146.36 138.403 147C138.403 147.632 138.287 148.184 138.055 148.656C137.831 149.128 137.515 149.496 137.107 149.76C136.707 150.016 136.235 150.144 135.691 150.144ZM135.355 148.92C135.675 148.92 135.959 148.84 136.207 148.68C136.455 148.512 136.651 148.284 136.795 147.996C136.947 147.708 137.023 147.376 137.023 147C137.023 146.624 136.951 146.292 136.807 146.004C136.671 145.716 136.479 145.492 136.231 145.332C135.983 145.172 135.695 145.092 135.367 145.092C135.063 145.092 134.791 145.172 134.551 145.332C134.311 145.492 134.123 145.716 133.987 146.004C133.859 146.292 133.795 146.624 133.795 147C133.795 147.376 133.859 147.708 133.987 147.996C134.123 148.284 134.307 148.512 134.539 148.68C134.779 148.84 135.051 148.92 135.355 148.92ZM139.553 150V141.6H140.897V150H139.553ZM145.065 150.144C144.481 150.144 143.961 150.012 143.505 149.748C143.057 149.476 142.701 149.104 142.437 148.632C142.181 148.16 142.053 147.616 142.053 147C142.053 146.384 142.185 145.84 142.449 145.368C142.713 144.896 143.073 144.528 143.529 144.264C143.993 143.992 144.521 143.856 145.113 143.856C145.649 143.856 146.129 143.996 146.553 144.276C146.985 144.548 147.329 144.944 147.585 145.464C147.841 145.984 147.969 146.604 147.969 147.324H146.613C146.613 146.804 146.549 146.376 146.421 146.04C146.301 145.704 146.125 145.456 145.893 145.296C145.669 145.128 145.393 145.044 145.065 145.044C144.721 145.044 144.425 145.12 144.177 145.272C143.929 145.424 143.741 145.648 143.613 145.944C143.485 146.232 143.421 146.596 143.421 147.036C143.421 147.428 143.497 147.764 143.649 148.044C143.809 148.324 144.021 148.54 144.285 148.692C144.557 148.836 144.857 148.908 145.185 148.908C145.545 148.908 145.841 148.828 146.073 148.668C146.305 148.5 146.485 148.288 146.613 148.032L147.849 148.56C147.681 148.88 147.465 149.16 147.201 149.4C146.945 149.64 146.637 149.824 146.277 149.952C145.925 150.08 145.521 150.144 145.065 150.144ZM142.941 147.324V146.256H147.261V147.324H142.941ZM151.182 150.144C150.782 150.144 150.414 150.084 150.078 149.964C149.742 149.844 149.454 149.676 149.214 149.46C148.974 149.236 148.79 148.976 148.662 148.68L149.826 148.164C149.946 148.388 150.122 148.576 150.354 148.728C150.594 148.88 150.858 148.956 151.146 148.956C151.458 148.956 151.706 148.904 151.89 148.8C152.082 148.688 152.178 148.536 152.178 148.344C152.178 148.16 152.106 148.02 151.962 147.924C151.818 147.82 151.614 147.736 151.35 147.672L150.786 147.516C150.218 147.372 149.774 147.144 149.454 146.832C149.134 146.512 148.974 146.148 148.974 145.74C148.974 145.14 149.166 144.676 149.55 144.348C149.942 144.02 150.502 143.856 151.23 143.856C151.598 143.856 151.934 143.912 152.238 144.024C152.55 144.128 152.818 144.28 153.042 144.48C153.266 144.672 153.422 144.9 153.51 145.164L152.394 145.668C152.314 145.468 152.162 145.316 151.938 145.212C151.714 145.1 151.466 145.044 151.194 145.044C150.922 145.044 150.71 145.104 150.558 145.224C150.406 145.336 150.33 145.496 150.33 145.704C150.33 145.824 150.398 145.936 150.534 146.04C150.67 146.136 150.866 146.216 151.122 146.28L151.83 146.448C152.222 146.544 152.542 146.696 152.79 146.904C153.038 147.104 153.222 147.332 153.342 147.588C153.462 147.836 153.522 148.088 153.522 148.344C153.522 148.704 153.418 149.02 153.21 149.292C153.01 149.564 152.734 149.776 152.382 149.928C152.03 150.072 151.63 150.144 151.182 150.144Z" fill="#004C6D"/>
<rect x="194" y="42" width="116" height="76" rx="6" fill="#FAFCFF" stroke="#87CEFF" stroke-width="4"/>
<rect x="250" y="47" width="4" height="4" rx="2" fill="#87CEFF"/>
<rect x="193" y="132" width="118" height="28" rx="14" fill="#C8E6FF"/>
<path d="M207.736 150V142.296H209.128V150H207.736ZM205.156 142.872V141.6H211.708V142.872H205.156ZM215.485 150L215.425 148.872V146.916C215.425 146.508 215.381 146.168 215.293 145.896C215.205 145.624 215.065 145.416 214.873 145.272C214.689 145.128 214.445 145.056 214.141 145.056C213.861 145.056 213.613 145.116 213.397 145.236C213.181 145.356 213.001 145.54 212.857 145.788L211.633 145.356C211.769 145.092 211.945 144.844 212.161 144.612C212.377 144.38 212.649 144.196 212.977 144.06C213.313 143.924 213.709 143.856 214.165 143.856C214.749 143.856 215.233 143.964 215.617 144.18C216.009 144.396 216.301 144.716 216.493 145.14C216.685 145.564 216.781 146.088 216.781 146.712L216.745 150H215.485ZM213.781 150.144C213.061 150.144 212.501 149.984 212.101 149.664C211.709 149.344 211.513 148.892 211.513 148.308C211.513 147.684 211.721 147.208 212.137 146.88C212.561 146.552 213.149 146.388 213.901 146.388H215.509V147.42H214.333C213.797 147.42 213.421 147.496 213.205 147.648C212.989 147.792 212.881 148 212.881 148.272C212.881 148.504 212.973 148.688 213.157 148.824C213.349 148.952 213.613 149.016 213.949 149.016C214.245 149.016 214.501 148.948 214.717 148.812C214.941 148.668 215.113 148.484 215.233 148.26C215.361 148.028 215.425 147.78 215.425 147.516H215.917C215.917 148.332 215.741 148.976 215.389 149.448C215.045 149.912 214.509 150.144 213.781 150.144ZM218.142 150V141.6H219.486V148.884L219.414 150H218.142ZM221.382 150.144C220.878 150.144 220.442 150.016 220.074 149.76C219.714 149.496 219.438 149.128 219.246 148.656C219.054 148.184 218.958 147.632 218.958 147C218.958 146.36 219.054 145.808 219.246 145.344C219.438 144.872 219.714 144.508 220.074 144.252C220.442 143.988 220.878 143.856 221.382 143.856C221.926 143.856 222.398 143.988 222.798 144.252C223.206 144.508 223.522 144.872 223.746 145.344C223.978 145.808 224.094 146.36 224.094 147C224.094 147.632 223.978 148.184 223.746 148.656C223.522 149.128 223.206 149.496 222.798 149.76C222.398 150.016 221.926 150.144 221.382 150.144ZM221.046 148.92C221.366 148.92 221.65 148.84 221.898 148.68C222.146 148.512 222.342 148.284 222.486 147.996C222.638 147.708 222.714 147.376 222.714 147C222.714 146.624 222.642 146.292 222.498 146.004C222.362 145.716 222.17 145.492 221.922 145.332C221.674 145.172 221.386 145.092 221.058 145.092C220.754 145.092 220.482 145.172 220.242 145.332C220.002 145.492 219.814 145.716 219.678 146.004C219.55 146.292 219.486 146.624 219.486 147C219.486 147.376 219.55 147.708 219.678 147.996C219.814 148.284 219.998 148.512 220.23 148.68C220.47 148.84 220.742 148.92 221.046 148.92ZM225.244 150V141.6H226.588V150H225.244ZM230.756 150.144C230.172 150.144 229.652 150.012 229.196 149.748C228.748 149.476 228.392 149.104 228.128 148.632C227.872 148.16 227.744 147.616 227.744 147C227.744 146.384 227.876 145.84 228.14 145.368C228.404 144.896 228.764 144.528 229.22 144.264C229.684 143.992 230.212 143.856 230.804 143.856C231.34 143.856 231.82 143.996 232.244 144.276C232.676 144.548 233.02 144.944 233.276 145.464C233.532 145.984 233.66 146.604 233.66 147.324H232.304C232.304 146.804 232.24 146.376 232.112 146.04C231.992 145.704 231.816 145.456 231.584 145.296C231.36 145.128 231.084 145.044 230.756 145.044C230.412 145.044 230.116 145.12 229.868 145.272C229.62 145.424 229.432 145.648 229.304 145.944C229.176 146.232 229.112 146.596 229.112 147.036C229.112 147.428 229.188 147.764 229.34 148.044C229.5 148.324 229.712 148.54 229.976 148.692C230.248 148.836 230.548 148.908 230.876 148.908C231.236 148.908 231.532 148.828 231.764 148.668C231.996 148.5 232.176 148.288 232.304 148.032L233.54 148.56C233.372 148.88 233.156 149.16 232.892 149.4C232.636 149.64 232.328 149.824 231.968 149.952C231.616 150.08 231.212 150.144 230.756 150.144ZM228.632 147.324V146.256H232.952V147.324H228.632ZM237.077 150.144C236.445 150.144 235.961 149.988 235.625 149.676C235.297 149.356 235.133 148.9 235.133 148.308V142.128H236.465V148.056C236.465 148.336 236.529 148.548 236.657 148.692C236.793 148.836 236.989 148.908 237.245 148.908C237.325 148.908 237.413 148.892 237.509 148.86C237.605 148.828 237.713 148.768 237.833 148.68L238.325 149.7C238.117 149.844 237.909 149.952 237.701 150.024C237.493 150.104 237.285 150.144 237.077 150.144ZM234.137 145.152V144H238.085V145.152H234.137ZM241.584 150.144C241.184 150.144 240.816 150.084 240.48 149.964C240.144 149.844 239.856 149.676 239.616 149.46C239.376 149.236 239.192 148.976 239.064 148.68L240.228 148.164C240.348 148.388 240.524 148.576 240.756 148.728C240.996 148.88 241.26 148.956 241.548 148.956C241.86 148.956 242.108 148.904 242.292 148.8C242.484 148.688 242.58 148.536 242.58 148.344C242.58 148.16 242.508 148.02 242.364 147.924C242.22 147.82 242.016 147.736 241.752 147.672L241.188 147.516C240.62 147.372 240.176 147.144 239.856 146.832C239.536 146.512 239.376 146.148 239.376 145.74C239.376 145.14 239.568 144.676 239.952 144.348C240.344 144.02 240.904 143.856 241.632 143.856C242 143.856 242.336 143.912 242.64 144.024C242.952 144.128 243.22 144.28 243.444 144.48C243.668 144.672 243.824 144.9 243.912 145.164L242.796 145.668C242.716 145.468 242.564 145.316 242.34 145.212C242.116 145.1 241.868 145.044 241.596 145.044C241.324 145.044 241.112 145.104 240.96 145.224C240.808 145.336 240.732 145.496 240.732 145.704C240.732 145.824 240.8 145.936 240.936 146.04C241.072 146.136 241.268 146.216 241.524 146.28L242.232 146.448C242.624 146.544 242.944 146.696 243.192 146.904C243.44 147.104 243.624 147.332 243.744 147.588C243.864 147.836 243.924 148.088 243.924 148.344C243.924 148.704 243.82 149.02 243.612 149.292C243.412 149.564 243.136 149.776 242.784 149.928C242.432 150.072 242.032 150.144 241.584 150.144ZM250.213 150.168C249.725 150.168 249.293 150.072 248.917 149.88C248.541 149.688 248.245 149.424 248.029 149.088C247.813 148.752 247.705 148.368 247.705 147.936C247.705 147.616 247.765 147.324 247.885 147.06C248.013 146.788 248.181 146.54 248.389 146.316C248.597 146.092 248.833 145.892 249.097 145.716L250.477 144.768C250.637 144.656 250.801 144.536 250.969 144.408C251.137 144.28 251.281 144.132 251.401 143.964C251.529 143.796 251.593 143.604 251.593 143.388C251.593 143.124 251.497 142.916 251.305 142.764C251.121 142.612 250.885 142.536 250.597 142.536C250.341 142.536 250.121 142.616 249.937 142.776C249.761 142.936 249.673 143.136 249.673 143.376C249.673 143.592 249.741 143.784 249.877 143.952C250.013 144.12 250.173 144.32 250.357 144.552L251.905 146.412L254.869 150H253.273L250.897 147.156L249.313 145.236C249.105 144.972 248.929 144.74 248.785 144.54C248.641 144.332 248.533 144.136 248.461 143.952C248.397 143.76 248.365 143.564 248.365 143.364C248.365 142.996 248.461 142.668 248.653 142.38C248.853 142.084 249.117 141.852 249.445 141.684C249.773 141.516 250.141 141.432 250.549 141.432C250.997 141.432 251.393 141.516 251.737 141.684C252.089 141.852 252.365 142.084 252.565 142.38C252.765 142.676 252.865 143.02 252.865 143.412C252.865 143.732 252.781 144.032 252.613 144.312C252.445 144.592 252.205 144.864 251.893 145.128C251.589 145.392 251.229 145.672 250.813 145.968L249.949 146.556C249.797 146.66 249.657 146.776 249.529 146.904C249.401 147.032 249.297 147.176 249.217 147.336C249.137 147.496 249.097 147.688 249.097 147.912C249.097 148.232 249.205 148.496 249.421 148.704C249.645 148.904 249.933 149.004 250.285 149.004C250.653 149.004 251.005 148.944 251.341 148.824C251.685 148.704 251.989 148.532 252.253 148.308C252.525 148.076 252.737 147.796 252.889 147.468C253.041 147.14 253.117 146.768 253.117 146.352H254.401C254.401 147.088 254.221 147.744 253.861 148.32C253.501 148.896 253.005 149.348 252.373 149.676C251.749 150.004 251.029 150.168 250.213 150.168ZM258.537 150V141.6H259.881V150H258.537ZM265.009 150L264.949 148.872V146.916C264.949 146.508 264.905 146.168 264.817 145.896C264.729 145.624 264.589 145.416 264.397 145.272C264.213 145.128 263.969 145.056 263.665 145.056C263.385 145.056 263.137 145.116 262.921 145.236C262.705 145.356 262.525 145.54 262.381 145.788L261.157 145.356C261.293 145.092 261.469 144.844 261.685 144.612C261.901 144.38 262.173 144.196 262.501 144.06C262.837 143.924 263.233 143.856 263.689 143.856C264.273 143.856 264.757 143.964 265.141 144.18C265.533 144.396 265.825 144.716 266.017 145.14C266.209 145.564 266.305 146.088 266.305 146.712L266.269 150H265.009ZM263.305 150.144C262.585 150.144 262.025 149.984 261.625 149.664C261.233 149.344 261.037 148.892 261.037 148.308C261.037 147.684 261.245 147.208 261.661 146.88C262.085 146.552 262.673 146.388 263.425 146.388H265.033V147.42H263.857C263.321 147.42 262.945 147.496 262.729 147.648C262.513 147.792 262.405 148 262.405 148.272C262.405 148.504 262.497 148.688 262.681 148.824C262.873 148.952 263.137 149.016 263.473 149.016C263.769 149.016 264.025 148.948 264.241 148.812C264.465 148.668 264.637 148.484 264.757 148.26C264.885 148.028 264.949 147.78 264.949 147.516H265.441C265.441 148.332 265.265 148.976 264.913 149.448C264.569 149.912 264.033 150.144 263.305 150.144ZM267.726 152.4V144H268.986L269.07 145.104V152.4H267.726ZM270.966 150.144C270.462 150.144 270.026 150.016 269.658 149.76C269.298 149.496 269.022 149.128 268.83 148.656C268.638 148.184 268.542 147.632 268.542 147C268.542 146.36 268.638 145.808 268.83 145.344C269.022 144.872 269.298 144.508 269.658 144.252C270.026 143.988 270.462 143.856 270.966 143.856C271.51 143.856 271.982 143.988 272.382 144.252C272.79 144.508 273.106 144.872 273.33 145.344C273.562 145.808 273.678 146.36 273.678 147C273.678 147.632 273.562 148.184 273.33 148.656C273.106 149.128 272.79 149.496 272.382 149.76C271.982 150.016 271.51 150.144 270.966 150.144ZM270.63 148.92C270.95 148.92 271.234 148.84 271.482 148.68C271.73 148.512 271.926 148.284 272.07 147.996C272.222 147.708 272.298 147.376 272.298 147C272.298 146.624 272.226 146.292 272.082 146.004C271.946 145.716 271.754 145.492 271.506 145.332C271.258 145.172 270.97 145.092 270.642 145.092C270.338 145.092 270.066 145.172 269.826 145.332C269.586 145.492 269.398 145.716 269.262 146.004C269.134 146.292 269.07 146.624 269.07 147C269.07 147.376 269.134 147.708 269.262 147.996C269.398 148.284 269.582 148.512 269.814 148.68C270.054 148.84 270.326 148.92 270.63 148.92ZM277.214 150.144C276.582 150.144 276.098 149.988 275.762 149.676C275.434 149.356 275.27 148.9 275.27 148.308V142.128H276.602V148.056C276.602 148.336 276.666 148.548 276.794 148.692C276.93 148.836 277.126 148.908 277.382 148.908C277.462 148.908 277.55 148.892 277.646 148.86C277.742 148.828 277.85 148.768 277.97 148.68L278.462 149.7C278.254 149.844 278.046 149.952 277.838 150.024C277.63 150.104 277.422 150.144 277.214 150.144ZM274.274 145.152V144H278.222V145.152H274.274ZM282.215 150.144C281.615 150.144 281.079 150.012 280.607 149.748C280.143 149.476 279.779 149.104 279.515 148.632C279.251 148.16 279.119 147.616 279.119 147C279.119 146.384 279.247 145.84 279.503 145.368C279.767 144.896 280.131 144.528 280.595 144.264C281.059 143.992 281.591 143.856 282.191 143.856C282.791 143.856 283.323 143.992 283.787 144.264C284.251 144.528 284.611 144.896 284.867 145.368C285.131 145.84 285.263 146.384 285.263 147C285.263 147.616 285.135 148.16 284.879 148.632C284.623 149.104 284.263 149.476 283.799 149.748C283.335 150.012 282.807 150.144 282.215 150.144ZM282.215 148.908C282.543 148.908 282.835 148.828 283.091 148.668C283.347 148.5 283.547 148.276 283.691 147.996C283.835 147.708 283.907 147.376 283.907 147C283.907 146.624 283.831 146.296 283.679 146.016C283.535 145.728 283.335 145.504 283.079 145.344C282.823 145.176 282.527 145.092 282.191 145.092C281.855 145.092 281.559 145.172 281.303 145.332C281.047 145.492 280.847 145.716 280.703 146.004C280.559 146.292 280.487 146.624 280.487 147C280.487 147.376 280.559 147.708 280.703 147.996C280.855 148.276 281.059 148.5 281.315 148.668C281.579 148.828 281.879 148.908 282.215 148.908ZM286.488 152.4V144H287.748L287.832 145.104V152.4H286.488ZM289.728 150.144C289.224 150.144 288.788 150.016 288.42 149.76C288.06 149.496 287.784 149.128 287.592 148.656C287.4 148.184 287.304 147.632 287.304 147C287.304 146.36 287.4 145.808 287.592 145.344C287.784 144.872 288.06 144.508 288.42 144.252C288.788 143.988 289.224 143.856 289.728 143.856C290.272 143.856 290.744 143.988 291.144 144.252C291.552 144.508 291.868 144.872 292.092 145.344C292.324 145.808 292.44 146.36 292.44 147C292.44 147.632 292.324 148.184 292.092 148.656C291.868 149.128 291.552 149.496 291.144 149.76C290.744 150.016 290.272 150.144 289.728 150.144ZM289.392 148.92C289.712 148.92 289.996 148.84 290.244 148.68C290.492 148.512 290.688 148.284 290.832 147.996C290.984 147.708 291.06 147.376 291.06 147C291.06 146.624 290.988 146.292 290.844 146.004C290.708 145.716 290.516 145.492 290.268 145.332C290.02 145.172 289.732 145.092 289.404 145.092C289.1 145.092 288.828 145.172 288.588 145.332C288.348 145.492 288.16 145.716 288.024 146.004C287.896 146.292 287.832 146.624 287.832 147C287.832 147.376 287.896 147.708 288.024 147.996C288.16 148.284 288.344 148.512 288.576 148.68C288.816 148.84 289.088 148.92 289.392 148.92ZM295.772 150.144C295.372 150.144 295.004 150.084 294.668 149.964C294.332 149.844 294.044 149.676 293.804 149.46C293.564 149.236 293.38 148.976 293.252 148.68L294.416 148.164C294.536 148.388 294.712 148.576 294.944 148.728C295.184 148.88 295.448 148.956 295.736 148.956C296.048 148.956 296.296 148.904 296.48 148.8C296.672 148.688 296.768 148.536 296.768 148.344C296.768 148.16 296.696 148.02 296.552 147.924C296.408 147.82 296.204 147.736 295.94 147.672L295.376 147.516C294.808 147.372 294.364 147.144 294.044 146.832C293.724 146.512 293.564 146.148 293.564 145.74C293.564 145.14 293.756 144.676 294.14 144.348C294.532 144.02 295.092 143.856 295.82 143.856C296.188 143.856 296.524 143.912 296.828 144.024C297.14 144.128 297.408 144.28 297.632 144.48C297.856 144.672 298.012 144.9 298.1 145.164L296.984 145.668C296.904 145.468 296.752 145.316 296.528 145.212C296.304 145.1 296.056 145.044 295.784 145.044C295.512 145.044 295.3 145.104 295.148 145.224C294.996 145.336 294.92 145.496 294.92 145.704C294.92 145.824 294.988 145.936 295.124 146.04C295.26 146.136 295.456 146.216 295.712 146.28L296.42 146.448C296.812 146.544 297.132 146.696 297.38 146.904C297.628 147.104 297.812 147.332 297.932 147.588C298.052 147.836 298.112 148.088 298.112 148.344C298.112 148.704 298.008 149.02 297.8 149.292C297.6 149.564 297.324 149.776 296.972 149.928C296.62 150.072 296.22 150.144 295.772 150.144Z" fill="#004C6D"/>
<rect x="338" y="2" width="180" height="116" rx="4" fill="#FAFCFF" stroke="#87CEFF" stroke-width="4"/>
<rect x="392" y="132" width="73" height="28" rx="14" fill="#C8E6FF"/>
<path d="M409.112 147.84L405.104 141.96L405.728 141.732L406.484 141.6L409.82 146.52L409.112 147.84ZM404.996 150V141.6H406.388V150H404.996ZM409.112 147.84L408.428 146.52L411.74 141.6L412.508 141.732L413.12 141.936L409.112 147.84ZM411.848 150V141.6H413.24V150H411.848ZM417.734 150.144C417.134 150.144 416.598 150.012 416.126 149.748C415.662 149.476 415.298 149.104 415.034 148.632C414.77 148.16 414.638 147.616 414.638 147C414.638 146.384 414.766 145.84 415.022 145.368C415.286 144.896 415.65 144.528 416.114 144.264C416.578 143.992 417.11 143.856 417.71 143.856C418.31 143.856 418.842 143.992 419.306 144.264C419.77 144.528 420.13 144.896 420.386 145.368C420.65 145.84 420.782 146.384 420.782 147C420.782 147.616 420.654 148.16 420.398 148.632C420.142 149.104 419.782 149.476 419.318 149.748C418.854 150.012 418.326 150.144 417.734 150.144ZM417.734 148.908C418.062 148.908 418.354 148.828 418.61 148.668C418.866 148.5 419.066 148.276 419.21 147.996C419.354 147.708 419.426 147.376 419.426 147C419.426 146.624 419.35 146.296 419.198 146.016C419.054 145.728 418.854 145.504 418.598 145.344C418.342 145.176 418.046 145.092 417.71 145.092C417.374 145.092 417.078 145.172 416.822 145.332C416.566 145.492 416.366 145.716 416.222 146.004C416.078 146.292 416.006 146.624 416.006 147C416.006 147.376 416.078 147.708 416.222 147.996C416.374 148.276 416.578 148.5 416.834 148.668C417.098 148.828 417.398 148.908 417.734 148.908ZM421.947 150V144H423.207L423.291 145.104V150H421.947ZM426.015 150V146.928L427.359 146.568V150H426.015ZM426.015 146.928C426.015 146.448 425.959 146.08 425.847 145.824C425.743 145.56 425.591 145.376 425.391 145.272C425.199 145.168 424.971 145.116 424.707 145.116C424.259 145.108 423.911 145.256 423.663 145.56C423.415 145.864 423.291 146.3 423.291 146.868H422.787C422.787 146.236 422.879 145.696 423.063 145.248C423.247 144.792 423.511 144.448 423.855 144.216C424.199 143.976 424.607 143.856 425.079 143.856C425.807 143.856 426.367 144.08 426.759 144.528C427.159 144.968 427.359 145.648 427.359 146.568L426.015 146.928ZM428.805 150L428.817 144H430.149L430.137 150H428.805ZM429.477 142.86C429.261 142.86 429.073 142.784 428.913 142.632C428.761 142.472 428.685 142.284 428.685 142.068C428.685 141.852 428.761 141.668 428.913 141.516C429.073 141.364 429.261 141.288 429.477 141.288C429.693 141.288 429.877 141.364 430.029 141.516C430.189 141.668 430.269 141.852 430.269 142.068C430.269 142.284 430.189 142.472 430.029 142.632C429.877 142.784 429.693 142.86 429.477 142.86ZM434.109 150.144C433.477 150.144 432.993 149.988 432.657 149.676C432.329 149.356 432.165 148.9 432.165 148.308V142.128H433.497V148.056C433.497 148.336 433.561 148.548 433.689 148.692C433.825 148.836 434.021 148.908 434.277 148.908C434.357 148.908 434.445 148.892 434.541 148.86C434.637 148.828 434.745 148.768 434.865 148.68L435.357 149.7C435.149 149.844 434.941 149.952 434.733 150.024C434.525 150.104 434.317 150.144 434.109 150.144ZM431.169 145.152V144H435.117V145.152H431.169ZM439.109 150.144C438.509 150.144 437.973 150.012 437.501 149.748C437.037 149.476 436.673 149.104 436.409 148.632C436.145 148.16 436.013 147.616 436.013 147C436.013 146.384 436.141 145.84 436.397 145.368C436.661 144.896 437.025 144.528 437.489 144.264C437.953 143.992 438.485 143.856 439.085 143.856C439.685 143.856 440.217 143.992 440.681 144.264C441.145 144.528 441.505 144.896 441.761 145.368C442.025 145.84 442.157 146.384 442.157 147C442.157 147.616 442.029 148.16 441.773 148.632C441.517 149.104 441.157 149.476 440.693 149.748C440.229 150.012 439.701 150.144 439.109 150.144ZM439.109 148.908C439.437 148.908 439.729 148.828 439.985 148.668C440.241 148.5 440.441 148.276 440.585 147.996C440.729 147.708 440.801 147.376 440.801 147C440.801 146.624 440.725 146.296 440.573 146.016C440.429 145.728 440.229 145.504 439.973 145.344C439.717 145.176 439.421 145.092 439.085 145.092C438.749 145.092 438.453 145.172 438.197 145.332C437.941 145.492 437.741 145.716 437.597 146.004C437.453 146.292 437.381 146.624 437.381 147C437.381 147.376 437.453 147.708 437.597 147.996C437.749 148.276 437.953 148.5 438.209 148.668C438.473 148.828 438.773 148.908 439.109 148.908ZM444.21 146.808C444.21 146.16 444.334 145.628 444.582 145.212C444.83 144.796 445.15 144.488 445.542 144.288C445.942 144.08 446.358 143.976 446.79 143.976V145.26C446.422 145.26 446.074 145.312 445.746 145.416C445.426 145.512 445.166 145.672 444.966 145.896C444.766 146.12 444.666 146.416 444.666 146.784L444.21 146.808ZM443.322 150V144H444.666V150H443.322ZM449.866 150.144C449.466 150.144 449.098 150.084 448.762 149.964C448.426 149.844 448.138 149.676 447.898 149.46C447.658 149.236 447.474 148.976 447.346 148.68L448.51 148.164C448.63 148.388 448.806 148.576 449.038 148.728C449.278 148.88 449.542 148.956 449.83 148.956C450.142 148.956 450.39 148.904 450.574 148.8C450.766 148.688 450.862 148.536 450.862 148.344C450.862 148.16 450.79 148.02 450.646 147.924C450.502 147.82 450.298 147.736 450.034 147.672L449.47 147.516C448.902 147.372 448.458 147.144 448.138 146.832C447.818 146.512 447.658 146.148 447.658 145.74C447.658 145.14 447.85 144.676 448.234 144.348C448.626 144.02 449.186 143.856 449.914 143.856C450.282 143.856 450.618 143.912 450.922 144.024C451.234 144.128 451.502 144.28 451.726 144.48C451.95 144.672 452.106 144.9 452.194 145.164L451.078 145.668C450.998 145.468 450.846 145.316 450.622 145.212C450.398 145.1 450.15 145.044 449.878 145.044C449.606 145.044 449.394 145.104 449.242 145.224C449.09 145.336 449.014 145.496 449.014 145.704C449.014 145.824 449.082 145.936 449.218 146.04C449.354 146.136 449.55 146.216 449.806 146.28L450.514 146.448C450.906 146.544 451.226 146.696 451.474 146.904C451.722 147.104 451.906 147.332 452.026 147.588C452.146 147.836 452.206 148.088 452.206 148.344C452.206 148.704 452.102 149.02 451.894 149.292C451.694 149.564 451.418 149.776 451.066 149.928C450.714 150.072 450.314 150.144 449.866 150.144Z" fill="#004C6D"/>
</g>
<defs>
<clipPath id="clip0_8407_62540">
<rect width="520" height="160" fill="white"/>
</clipPath>
</defs>
</svg>
