<svg width="359" height="199" viewBox="0 0 359 199" fill="none" xmlns="http://www.w3.org/2000/svg">
<path fill-rule="evenodd" clip-rule="evenodd" d="M101 25.5C101 11.969 112.207 1 126.032 1H249.968C256.607 1 262.974 3.58124 267.668 8.17588C272.363 12.7705 275 19.0022 275 25.5C275 39.031 263.793 50 249.968 50H126.032C112.207 50 101 39.031 101 25.5Z" fill="#FCE5CD" stroke="#783F04" stroke-miterlimit="8" stroke-linejoin="round"/>
<path d="M164.067 27.085H158.521V31.6201H164.964V33H156.834V20.2031H164.876V21.5918H158.521V25.7051H164.067V27.085ZM168.576 33H166.95V19.5H168.576V33ZM175.133 33.1758C173.844 33.1758 172.795 32.7539 171.986 31.9102C171.178 31.0605 170.773 29.9268 170.773 28.5088V28.21C170.773 27.2666 170.952 26.4258 171.31 25.6875C171.673 24.9434 172.177 24.3633 172.821 23.9473C173.472 23.5254 174.175 23.3145 174.931 23.3145C176.167 23.3145 177.128 23.7217 177.813 24.5361C178.499 25.3506 178.842 26.5166 178.842 28.0342V28.7109H172.399C172.423 29.6484 172.695 30.4072 173.217 30.9873C173.744 31.5615 174.412 31.8486 175.221 31.8486C175.795 31.8486 176.281 31.7314 176.68 31.4971C177.078 31.2627 177.427 30.9521 177.726 30.5654L178.719 31.3389C177.922 32.5635 176.727 33.1758 175.133 33.1758ZM174.931 24.6504C174.274 24.6504 173.724 24.8906 173.278 25.3711C172.833 25.8457 172.558 26.5137 172.452 27.375H177.216V27.252C177.169 26.4258 176.946 25.7871 176.548 25.3359C176.149 24.8789 175.61 24.6504 174.931 24.6504ZM182.261 23.4902L182.305 24.5449C183.002 23.7246 183.942 23.3145 185.126 23.3145C186.456 23.3145 187.361 23.8242 187.842 24.8438C188.158 24.3867 188.568 24.0176 189.072 23.7363C189.582 23.4551 190.183 23.3145 190.874 23.3145C192.96 23.3145 194.021 24.4189 194.056 26.6279V33H192.43V26.7246C192.43 26.0449 192.274 25.5381 191.964 25.2041C191.653 24.8643 191.132 24.6943 190.399 24.6943C189.796 24.6943 189.295 24.876 188.896 25.2393C188.498 25.5967 188.267 26.0801 188.202 26.6895V33H186.567V26.7686C186.567 25.3857 185.891 24.6943 184.537 24.6943C183.471 24.6943 182.741 25.1484 182.349 26.0566V33H180.723V23.4902H182.261ZM200.463 33.1758C199.174 33.1758 198.125 32.7539 197.316 31.9102C196.508 31.0605 196.104 29.9268 196.104 28.5088V28.21C196.104 27.2666 196.282 26.4258 196.64 25.6875C197.003 24.9434 197.507 24.3633 198.151 23.9473C198.802 23.5254 199.505 23.3145 200.261 23.3145C201.497 23.3145 202.458 23.7217 203.144 24.5361C203.829 25.3506 204.172 26.5166 204.172 28.0342V28.7109H197.729C197.753 29.6484 198.025 30.4072 198.547 30.9873C199.074 31.5615 199.742 31.8486 200.551 31.8486C201.125 31.8486 201.611 31.7314 202.01 31.4971C202.408 31.2627 202.757 30.9521 203.056 30.5654L204.049 31.3389C203.252 32.5635 202.057 33.1758 200.463 33.1758ZM200.261 24.6504C199.604 24.6504 199.054 24.8906 198.608 25.3711C198.163 25.8457 197.888 26.5137 197.782 27.375H202.546V27.252C202.499 26.4258 202.276 25.7871 201.878 25.3359C201.479 24.8789 200.94 24.6504 200.261 24.6504ZM207.6 23.4902L207.652 24.6855C208.379 23.7715 209.328 23.3145 210.5 23.3145C212.51 23.3145 213.523 24.4482 213.541 26.7158V33H211.915V26.707C211.909 26.0215 211.751 25.5146 211.44 25.1865C211.136 24.8584 210.658 24.6943 210.008 24.6943C209.48 24.6943 209.018 24.835 208.619 25.1162C208.221 25.3975 207.91 25.7666 207.688 26.2236V33H206.062V23.4902H207.6ZM218.199 21.1875V23.4902H219.975V24.7471H218.199V30.6445C218.199 31.0254 218.278 31.3125 218.437 31.5059C218.595 31.6934 218.864 31.7871 219.245 31.7871C219.433 31.7871 219.69 31.752 220.019 31.6816V33C219.591 33.1172 219.175 33.1758 218.771 33.1758C218.044 33.1758 217.496 32.9561 217.127 32.5166C216.758 32.0771 216.573 31.4531 216.573 30.6445V24.7471H214.842V23.4902H216.573V21.1875H218.199Z" fill="black"/>
<path fill-rule="evenodd" clip-rule="evenodd" d="M201.55 175.5C201.55 163.074 211.624 153 224.05 153H335.453C341.42 153 347.143 155.371 351.363 159.59C355.582 163.81 357.953 169.533 357.953 175.5C357.953 187.926 347.879 198 335.453 198H224.05C211.624 198 201.55 187.926 201.55 175.5Z" fill="#F4CCCC" stroke="#5B0F00" stroke-miterlimit="8" stroke-linejoin="round"/>
<path fill-rule="evenodd" clip-rule="evenodd" d="M23 175.5C23 163.074 33.0736 153 45.5 153H156.902C162.87 153 168.593 155.371 172.812 159.59C177.032 163.81 179.402 169.533 179.402 175.5C179.402 187.926 169.329 198 156.902 198H45.5C33.0736 198 23 187.926 23 175.5Z" fill="#D9D2E9" stroke="#351C75" stroke-miterlimit="8" stroke-linejoin="round"/>
<path d="M201.55 174.936H189.054" stroke="#666666" stroke-miterlimit="8" stroke-linejoin="round"/>
<path fill-rule="evenodd" clip-rule="evenodd" d="M189.054 171.64L180 174.936L189.054 178.231V171.64Z" fill="#666666" stroke="#666666" stroke-miterlimit="10"/>
<path d="M74.4742 170.592H70.3609V182H68.6822V170.592H64.5777V169.203H74.4742V170.592ZM79.1851 182.176C77.8961 182.176 76.8472 181.754 76.0386 180.91C75.23 180.061 74.8257 178.927 74.8257 177.509V177.21C74.8257 176.267 75.0045 175.426 75.3619 174.688C75.7252 173.943 76.2291 173.363 76.8736 172.947C77.524 172.525 78.2271 172.314 78.983 172.314C80.2193 172.314 81.1802 172.722 81.8658 173.536C82.5513 174.351 82.8941 175.517 82.8941 177.034V177.711H76.4517C76.4752 178.648 76.7476 179.407 77.2691 179.987C77.7964 180.562 78.4644 180.849 79.273 180.849C79.8472 180.849 80.3336 180.731 80.732 180.497C81.1304 180.263 81.4791 179.952 81.7779 179.565L82.7711 180.339C81.9742 181.563 80.7789 182.176 79.1851 182.176ZM78.983 173.65C78.3267 173.65 77.7759 173.891 77.3306 174.371C76.8853 174.846 76.6099 175.514 76.5045 176.375H81.2681V176.252C81.2213 175.426 80.9986 174.787 80.6002 174.336C80.2017 173.879 79.6627 173.65 78.983 173.65ZM86.313 172.49L86.357 173.545C87.0543 172.725 87.9947 172.314 89.1783 172.314C90.5084 172.314 91.4136 172.824 91.8941 173.844C92.2105 173.387 92.6207 173.018 93.1246 172.736C93.6343 172.455 94.2349 172.314 94.9263 172.314C97.0123 172.314 98.0728 173.419 98.108 175.628V182H96.482V175.725C96.482 175.045 96.3267 174.538 96.0162 174.204C95.7056 173.864 95.1841 173.694 94.4517 173.694C93.8482 173.694 93.3472 173.876 92.9488 174.239C92.5504 174.597 92.3189 175.08 92.2545 175.689V182H90.6197V175.769C90.6197 174.386 89.9429 173.694 88.5894 173.694C87.523 173.694 86.7935 174.148 86.4009 175.057V182H84.775V172.49H86.313ZM108.602 177.351C108.602 178.798 108.271 179.964 107.609 180.849C106.947 181.733 106.05 182.176 104.919 182.176C103.765 182.176 102.857 181.81 102.195 181.077V185.656H100.569V172.49H102.054L102.133 173.545C102.795 172.725 103.715 172.314 104.893 172.314C106.036 172.314 106.938 172.745 107.6 173.606C108.268 174.468 108.602 175.666 108.602 177.201V177.351ZM106.976 177.166C106.976 176.094 106.748 175.247 106.291 174.626C105.834 174.005 105.207 173.694 104.41 173.694C103.425 173.694 102.687 174.131 102.195 175.004V179.548C102.681 180.415 103.425 180.849 104.427 180.849C105.207 180.849 105.825 180.541 106.282 179.926C106.745 179.305 106.976 178.385 106.976 177.166ZM112.443 182H110.817V168.5H112.443V182ZM120.924 182C120.831 181.812 120.754 181.479 120.696 180.998C119.94 181.783 119.038 182.176 117.989 182.176C117.051 182.176 116.281 181.912 115.677 181.385C115.08 180.852 114.781 180.178 114.781 179.363C114.781 178.373 115.156 177.605 115.906 177.061C116.662 176.51 117.722 176.234 119.087 176.234H120.669V175.487C120.669 174.919 120.5 174.468 120.16 174.134C119.82 173.794 119.319 173.624 118.657 173.624C118.077 173.624 117.59 173.771 117.198 174.063C116.805 174.356 116.609 174.711 116.609 175.127H114.974C114.974 174.652 115.141 174.195 115.475 173.756C115.815 173.311 116.272 172.959 116.846 172.701C117.426 172.443 118.062 172.314 118.753 172.314C119.849 172.314 120.708 172.59 121.329 173.141C121.95 173.686 122.272 174.438 122.295 175.399V179.776C122.295 180.649 122.407 181.344 122.629 181.859V182H120.924ZM118.226 180.761C118.736 180.761 119.219 180.629 119.676 180.365C120.133 180.102 120.464 179.759 120.669 179.337V177.386H119.395C117.403 177.386 116.407 177.969 116.407 179.135C116.407 179.645 116.577 180.043 116.917 180.33C117.256 180.617 117.693 180.761 118.226 180.761ZM127.05 170.188V172.49H128.826V173.747H127.05V179.645C127.05 180.025 127.129 180.312 127.288 180.506C127.446 180.693 127.715 180.787 128.096 180.787C128.284 180.787 128.542 180.752 128.87 180.682V182C128.442 182.117 128.026 182.176 127.622 182.176C126.895 182.176 126.347 181.956 125.978 181.517C125.609 181.077 125.424 180.453 125.424 179.645V173.747H123.693V172.49H125.424V170.188H127.05ZM134.679 182.176C133.39 182.176 132.341 181.754 131.533 180.91C130.724 180.061 130.32 178.927 130.32 177.509V177.21C130.32 176.267 130.499 175.426 130.856 174.688C131.219 173.943 131.723 173.363 132.368 172.947C133.018 172.525 133.721 172.314 134.477 172.314C135.713 172.314 136.674 172.722 137.36 173.536C138.045 174.351 138.388 175.517 138.388 177.034V177.711H131.946C131.969 178.648 132.242 179.407 132.763 179.987C133.291 180.562 133.959 180.849 134.767 180.849C135.341 180.849 135.828 180.731 136.226 180.497C136.625 180.263 136.973 179.952 137.272 179.565L138.265 180.339C137.468 181.563 136.273 182.176 134.679 182.176ZM134.477 173.65C133.821 173.65 133.27 173.891 132.825 174.371C132.379 174.846 132.104 175.514 131.999 176.375H136.762V176.252C136.715 175.426 136.493 174.787 136.094 174.336C135.696 173.879 135.157 173.65 134.477 173.65Z" fill="black"/>
<path d="M265.622 179.759L269.279 169.203H271.124L266.378 182H264.884L260.147 169.203H261.984L265.622 179.759ZM274.359 182H272.733V172.49H274.359V182ZM272.601 169.968C272.601 169.704 272.68 169.481 272.838 169.3C273.002 169.118 273.242 169.027 273.559 169.027C273.875 169.027 274.115 169.118 274.28 169.3C274.444 169.481 274.526 169.704 274.526 169.968C274.526 170.231 274.444 170.451 274.28 170.627C274.115 170.803 273.875 170.891 273.559 170.891C273.242 170.891 273.002 170.803 272.838 170.627C272.68 170.451 272.601 170.231 272.601 169.968ZM280.915 182.176C279.626 182.176 278.577 181.754 277.769 180.91C276.96 180.061 276.556 178.927 276.556 177.509V177.21C276.556 176.267 276.735 175.426 277.092 174.688C277.455 173.943 277.959 173.363 278.604 172.947C279.254 172.525 279.957 172.314 280.713 172.314C281.949 172.314 282.91 172.722 283.596 173.536C284.281 174.351 284.624 175.517 284.624 177.034V177.711H278.182C278.205 178.648 278.478 179.407 278.999 179.987C279.527 180.562 280.195 180.849 281.003 180.849C281.577 180.849 282.064 180.731 282.462 180.497C282.861 180.263 283.209 179.952 283.508 179.565L284.501 180.339C283.704 181.563 282.509 182.176 280.915 182.176ZM280.713 173.65C280.057 173.65 279.506 173.891 279.061 174.371C278.615 174.846 278.34 175.514 278.235 176.375H282.998V176.252C282.951 175.426 282.729 174.787 282.33 174.336C281.932 173.879 281.393 173.65 280.713 173.65ZM294.934 179.759L296.762 172.49H298.388L295.619 182H294.301L291.99 174.793L289.74 182H288.421L285.661 172.49H287.279L289.151 179.609L291.365 172.49H292.675L294.934 179.759Z" fill="black"/>
<path d="M187 122V138H267V153" stroke="#666666"/>
<path d="M187 122V138H107V153" stroke="#666666"/>
<path fill-rule="evenodd" clip-rule="evenodd" d="M101 96.5707C101 82.7796 112.18 71.5998 125.971 71.5998H249.69C256.313 71.5998 262.664 74.2306 267.347 78.9136C272.03 83.5965 274.661 89.948 274.661 96.5707C274.661 110.362 263.481 121.542 249.69 121.542H125.971C112.18 121.542 101 110.362 101 96.5707Z" fill="#82FDE4" stroke="#134F5C" stroke-miterlimit="8" stroke-linejoin="round"/>
<path d="M188 49.9755V60.8613" stroke="#666666" stroke-miterlimit="8" stroke-linejoin="round"/>
<path fill-rule="evenodd" clip-rule="evenodd" d="M185 60.8613L188.295 69.9149L191.591 60.8613H185Z" fill="#666666" stroke="#666666" stroke-miterlimit="10"/>
<path d="M133.253 98.8769L136.909 88.3212H138.755L134.009 101.118H132.515L127.777 88.3212H129.614L133.253 98.8769ZM141.989 101.118H140.363V91.6083H141.989V101.118ZM140.231 89.0859C140.231 88.8222 140.311 88.5995 140.469 88.4179C140.633 88.2363 140.873 88.1454 141.189 88.1454C141.506 88.1454 141.746 88.2363 141.91 88.4179C142.074 88.5995 142.156 88.8222 142.156 89.0859C142.156 89.3495 142.074 89.5693 141.91 89.7451C141.746 89.9208 141.506 90.0087 141.189 90.0087C140.873 90.0087 140.633 89.9208 140.469 89.7451C140.311 89.5693 140.231 89.3495 140.231 89.0859ZM148.546 101.294C147.257 101.294 146.208 100.872 145.399 100.028C144.591 99.1786 144.187 98.0449 144.187 96.6269V96.3281C144.187 95.3847 144.365 94.5439 144.723 93.8056C145.086 93.0615 145.59 92.4814 146.234 92.0654C146.885 91.6435 147.588 91.4326 148.344 91.4326C149.58 91.4326 150.541 91.8398 151.227 92.6542C151.912 93.4687 152.255 94.6347 152.255 96.1523V96.829H145.812C145.836 97.7665 146.108 98.5253 146.63 99.1054C147.157 99.6796 147.825 99.9667 148.634 99.9667C149.208 99.9667 149.694 99.8495 150.093 99.6152C150.491 99.3808 150.84 99.0703 151.139 98.6835L152.132 99.457C151.335 100.682 150.14 101.294 148.546 101.294ZM148.344 92.7685C147.688 92.7685 147.137 93.0087 146.691 93.4892C146.246 93.9638 145.971 94.6318 145.865 95.4931H150.629V95.3701C150.582 94.5439 150.359 93.9052 149.961 93.454C149.562 92.997 149.023 92.7685 148.344 92.7685ZM162.564 98.8769L164.393 91.6083H166.019L163.25 101.118H161.932L159.62 93.9111L157.37 101.118H156.052L153.292 91.6083H154.909L156.781 98.7275L158.996 91.6083H160.306L162.564 98.8769ZM181.812 97.0576C181.654 98.4111 181.153 99.457 180.31 100.195C179.472 100.928 178.355 101.294 176.961 101.294C175.449 101.294 174.236 100.752 173.322 99.6679C172.414 98.5839 171.96 97.1337 171.96 95.3173V94.0869C171.96 92.8974 172.171 91.8515 172.593 90.9492C173.021 90.0468 173.624 89.3554 174.403 88.8749C175.183 88.3886 176.085 88.1454 177.11 88.1454C178.47 88.1454 179.56 88.5263 180.38 89.288C181.2 90.0439 181.678 91.0927 181.812 92.4345H180.116C179.97 91.415 179.65 90.6767 179.158 90.2197C178.672 89.7626 177.989 89.5341 177.11 89.5341C176.032 89.5341 175.186 89.9326 174.57 90.7294C173.961 91.5263 173.656 92.6601 173.656 94.1308V95.3701C173.656 96.7587 173.946 97.8632 174.526 98.6835C175.106 99.5038 175.918 99.914 176.961 99.914C177.898 99.914 178.616 99.7031 179.114 99.2812C179.618 98.8535 179.952 98.1122 180.116 97.0576H181.812ZM183.438 96.2753C183.438 95.3437 183.62 94.5058 183.983 93.7617C184.353 93.0175 184.862 92.4433 185.513 92.039C186.169 91.6347 186.916 91.4326 187.754 91.4326C189.049 91.4326 190.095 91.8808 190.892 92.7773C191.694 93.6738 192.096 94.8661 192.096 96.3544V96.4687C192.096 97.3945 191.917 98.2265 191.56 98.9648C191.208 99.6972 190.701 100.268 190.039 100.679C189.383 101.089 188.627 101.294 187.771 101.294C186.482 101.294 185.437 100.846 184.634 99.9492C183.837 99.0527 183.438 97.8661 183.438 96.3896V96.2753ZM185.073 96.4687C185.073 97.5234 185.316 98.3701 185.803 99.0087C186.295 99.6474 186.951 99.9667 187.771 99.9667C188.598 99.9667 189.254 99.6445 189.74 98.9999C190.227 98.3495 190.47 97.4413 190.47 96.2753C190.47 95.2324 190.221 94.3886 189.723 93.7441C189.23 93.0937 188.574 92.7685 187.754 92.7685C186.951 92.7685 186.304 93.0878 185.812 93.7265C185.319 94.3652 185.073 95.2792 185.073 96.4687ZM195.673 91.6083L195.726 92.8036C196.452 91.8896 197.401 91.4326 198.573 91.4326C200.583 91.4326 201.597 92.5663 201.614 94.8339V101.118H199.988V94.8251C199.982 94.1396 199.824 93.6328 199.514 93.3046C199.209 92.9765 198.731 92.8124 198.081 92.8124C197.554 92.8124 197.091 92.9531 196.692 93.2343C196.294 93.5156 195.983 93.8847 195.761 94.3417V101.118H194.135V91.6083H195.673ZM206.272 89.3056V91.6083H208.048V92.8652H206.272V98.7626C206.272 99.1435 206.352 99.4306 206.51 99.624C206.668 99.8115 206.938 99.9052 207.318 99.9052C207.506 99.9052 207.764 99.8701 208.092 99.7997V101.118C207.664 101.235 207.248 101.294 206.844 101.294C206.117 101.294 205.569 101.074 205.2 100.635C204.831 100.195 204.646 99.5712 204.646 98.7626V92.8652H202.915V91.6083H204.646V89.3056H206.272ZM215.826 101.118C215.732 100.931 215.656 100.597 215.598 100.116C214.842 100.901 213.939 101.294 212.891 101.294C211.953 101.294 211.183 101.03 210.579 100.503C209.981 99.9697 209.683 99.2958 209.683 98.4814C209.683 97.4911 210.058 96.7236 210.808 96.1786C211.563 95.6279 212.624 95.3525 213.989 95.3525H215.571V94.6054C215.571 94.037 215.401 93.5859 215.062 93.2519C214.722 92.912 214.221 92.7421 213.559 92.7421C212.979 92.7421 212.492 92.8886 212.1 93.1816C211.707 93.4745 211.511 93.829 211.511 94.2451H209.876C209.876 93.7704 210.043 93.3134 210.377 92.874C210.717 92.4286 211.174 92.0771 211.748 91.8193C212.328 91.5615 212.964 91.4326 213.655 91.4326C214.751 91.4326 215.609 91.7079 216.23 92.2587C216.852 92.8036 217.174 93.5566 217.197 94.5175V98.8945C217.197 99.7675 217.309 100.462 217.531 100.977V101.118H215.826ZM213.128 99.8788C213.638 99.8788 214.121 99.747 214.578 99.4833C215.035 99.2197 215.366 98.8769 215.571 98.455V96.5038H214.297C212.305 96.5038 211.309 97.0869 211.309 98.2529C211.309 98.7626 211.479 99.1611 211.818 99.4482C212.158 99.7353 212.595 99.8788 213.128 99.8788ZM221.513 101.118H219.887V91.6083H221.513V101.118ZM219.755 89.0859C219.755 88.8222 219.834 88.5995 219.992 88.4179C220.156 88.2363 220.396 88.1454 220.713 88.1454C221.029 88.1454 221.27 88.2363 221.434 88.4179C221.598 88.5995 221.68 88.8222 221.68 89.0859C221.68 89.3495 221.598 89.5693 221.434 89.7451C221.27 89.9208 221.029 90.0087 220.713 90.0087C220.396 90.0087 220.156 89.9208 219.992 89.7451C219.834 89.5693 219.755 89.3495 219.755 89.0859ZM225.661 91.6083L225.714 92.8036C226.44 91.8896 227.39 91.4326 228.562 91.4326C230.571 91.4326 231.585 92.5663 231.603 94.8339V101.118H229.977V94.8251C229.971 94.1396 229.812 93.6328 229.502 93.3046C229.197 92.9765 228.72 92.8124 228.069 92.8124C227.542 92.8124 227.079 92.9531 226.681 93.2343C226.282 93.5156 225.972 93.8847 225.749 94.3417V101.118H224.123V91.6083H225.661ZM238.001 101.294C236.712 101.294 235.663 100.872 234.854 100.028C234.046 99.1786 233.642 98.0449 233.642 96.6269V96.3281C233.642 95.3847 233.82 94.5439 234.178 93.8056C234.541 93.0615 235.045 92.4814 235.689 92.0654C236.34 91.6435 237.043 91.4326 237.799 91.4326C239.035 91.4326 239.996 91.8398 240.682 92.6542C241.367 93.4687 241.71 94.6347 241.71 96.1523V96.829H235.268C235.291 97.7665 235.563 98.5253 236.085 99.1054C236.612 99.6796 237.28 99.9667 238.089 99.9667C238.663 99.9667 239.149 99.8495 239.548 99.6152C239.946 99.3808 240.295 99.0703 240.594 98.6835L241.587 99.457C240.79 100.682 239.595 101.294 238.001 101.294ZM237.799 92.7685C237.143 92.7685 236.592 93.0087 236.146 93.4892C235.701 93.9638 235.426 94.6318 235.32 95.4931H240.084V95.3701C240.037 94.5439 239.814 93.9052 239.416 93.454C239.018 92.997 238.479 92.7685 237.799 92.7685ZM248.196 93.0673C247.95 93.0263 247.684 93.0058 247.396 93.0058C246.33 93.0058 245.606 93.4599 245.226 94.3681V101.118H243.6V91.6083H245.182L245.208 92.707C245.741 91.8574 246.497 91.4326 247.476 91.4326C247.792 91.4326 248.032 91.4736 248.196 91.5556V93.0673Z" fill="black"/>
</svg>
