<svg width="720" height="120" viewBox="0 0 720 120" fill="none" xmlns="http://www.w3.org/2000/svg">
<path d="M0 0H720V120H0V0Z" fill="#D9BCF2"/>
<rect x="117.5" y="0.5" width="83" height="71" fill="white"/>
<path d="M144.217 43H142.74V30.3965H144.217V43ZM151.521 42.9121C151.181 43.0996 150.732 43.1934 150.176 43.1934C148.6 43.1934 147.812 42.3145 147.812 40.5566V35.2305H146.265V34H147.812V31.8027L149.253 31.3369V34H151.521V35.2305H149.253V40.3018C149.253 40.9053 149.355 41.3359 149.561 41.5938C149.766 41.8516 150.105 41.9805 150.58 41.9805C150.943 41.9805 151.257 41.8809 151.521 41.6816V42.9121ZM160.679 38.8604H154.324C154.348 39.8623 154.617 40.6357 155.133 41.1807C155.648 41.7256 156.357 41.998 157.26 41.998C158.273 41.998 159.205 41.6641 160.055 40.9961V42.3496C159.264 42.9238 158.218 43.2109 156.917 43.2109C155.646 43.2109 154.646 42.8037 153.92 41.9893C153.193 41.1689 152.83 40.0176 152.83 38.5352C152.83 37.1348 153.226 35.9951 154.017 35.1162C154.813 34.2314 155.801 33.7891 156.979 33.7891C158.156 33.7891 159.067 34.1699 159.712 34.9316C160.356 35.6934 160.679 36.751 160.679 38.1045V38.8604ZM159.202 37.6387C159.196 36.8066 158.994 36.1592 158.596 35.6963C158.203 35.2334 157.655 35.002 156.952 35.002C156.272 35.002 155.695 35.2451 155.221 35.7314C154.746 36.2178 154.453 36.8535 154.342 37.6387H159.202ZM175.646 43H174.205V37.832C174.205 36.8359 174.05 36.1152 173.739 35.6699C173.435 35.2246 172.919 35.002 172.192 35.002C171.577 35.002 171.053 35.2832 170.619 35.8457C170.191 36.4082 169.978 37.082 169.978 37.8672V43H168.536V37.6562C168.536 35.8867 167.854 35.002 166.488 35.002C165.855 35.002 165.334 35.2686 164.924 35.8018C164.514 36.3291 164.309 37.0176 164.309 37.8672V43H162.867V34H164.309V35.4238H164.344C164.982 34.334 165.914 33.7891 167.139 33.7891C167.754 33.7891 168.29 33.9619 168.747 34.3076C169.204 34.6475 169.518 35.0957 169.688 35.6523C170.355 34.4102 171.352 33.7891 172.676 33.7891C174.656 33.7891 175.646 35.0107 175.646 37.4541V43Z" fill="black"/>
<rect x="117.5" y="0.5" width="83" height="71" stroke="black" stroke-dasharray="5 5"/>
<rect x="318.5" y="0.5" width="83" height="119" fill="white"/>
<path d="M345.217 67H343.74V54.3965H345.217V67ZM352.521 66.9121C352.181 67.0996 351.732 67.1934 351.176 67.1934C349.6 67.1934 348.812 66.3145 348.812 64.5566V59.2305H347.265V58H348.812V55.8027L350.253 55.3369V58H352.521V59.2305H350.253V64.3018C350.253 64.9053 350.355 65.3359 350.561 65.5938C350.766 65.8516 351.105 65.9805 351.58 65.9805C351.943 65.9805 352.257 65.8809 352.521 65.6816V66.9121ZM361.679 62.8604H355.324C355.348 63.8623 355.617 64.6357 356.133 65.1807C356.648 65.7256 357.357 65.998 358.26 65.998C359.273 65.998 360.205 65.6641 361.055 64.9961V66.3496C360.264 66.9238 359.218 67.2109 357.917 67.2109C356.646 67.2109 355.646 66.8037 354.92 65.9893C354.193 65.1689 353.83 64.0176 353.83 62.5352C353.83 61.1348 354.226 59.9951 355.017 59.1162C355.813 58.2314 356.801 57.7891 357.979 57.7891C359.156 57.7891 360.067 58.1699 360.712 58.9316C361.356 59.6934 361.679 60.751 361.679 62.1045V62.8604ZM360.202 61.6387C360.196 60.8066 359.994 60.1592 359.596 59.6963C359.203 59.2334 358.655 59.002 357.952 59.002C357.272 59.002 356.695 59.2451 356.221 59.7314C355.746 60.2178 355.453 60.8535 355.342 61.6387H360.202ZM376.646 67H375.205V61.832C375.205 60.8359 375.05 60.1152 374.739 59.6699C374.435 59.2246 373.919 59.002 373.192 59.002C372.577 59.002 372.053 59.2832 371.619 59.8457C371.191 60.4082 370.978 61.082 370.978 61.8672V67H369.536V61.6562C369.536 59.8867 368.854 59.002 367.488 59.002C366.855 59.002 366.334 59.2686 365.924 59.8018C365.514 60.3291 365.309 61.0176 365.309 61.8672V67H363.867V58H365.309V59.4238H365.344C365.982 58.334 366.914 57.7891 368.139 57.7891C368.754 57.7891 369.29 57.9619 369.747 58.3076C370.204 58.6475 370.518 59.0957 370.688 59.6523C371.355 58.4102 372.352 57.7891 373.676 57.7891C375.656 57.7891 376.646 59.0107 376.646 61.4541V67Z" fill="black"/>
<rect x="318.5" y="0.5" width="83" height="119" stroke="black" stroke-dasharray="5 5"/>
<rect x="495.5" y="0.5" width="131" height="71" fill="white"/>
<path d="M546.217 43H544.74V30.3965H546.217V43ZM553.521 42.9121C553.181 43.0996 552.732 43.1934 552.176 43.1934C550.6 43.1934 549.812 42.3145 549.812 40.5566V35.2305H548.265V34H549.812V31.8027L551.253 31.3369V34H553.521V35.2305H551.253V40.3018C551.253 40.9053 551.355 41.3359 551.561 41.5938C551.766 41.8516 552.105 41.9805 552.58 41.9805C552.943 41.9805 553.257 41.8809 553.521 41.6816V42.9121ZM562.679 38.8604H556.324C556.348 39.8623 556.617 40.6357 557.133 41.1807C557.648 41.7256 558.357 41.998 559.26 41.998C560.273 41.998 561.205 41.6641 562.055 40.9961V42.3496C561.264 42.9238 560.218 43.2109 558.917 43.2109C557.646 43.2109 556.646 42.8037 555.92 41.9893C555.193 41.1689 554.83 40.0176 554.83 38.5352C554.83 37.1348 555.226 35.9951 556.017 35.1162C556.813 34.2314 557.801 33.7891 558.979 33.7891C560.156 33.7891 561.067 34.1699 561.712 34.9316C562.356 35.6934 562.679 36.751 562.679 38.1045V38.8604ZM561.202 37.6387C561.196 36.8066 560.994 36.1592 560.596 35.6963C560.203 35.2334 559.655 35.002 558.952 35.002C558.272 35.002 557.695 35.2451 557.221 35.7314C556.746 36.2178 556.453 36.8535 556.342 37.6387H561.202ZM577.646 43H576.205V37.832C576.205 36.8359 576.05 36.1152 575.739 35.6699C575.435 35.2246 574.919 35.002 574.192 35.002C573.577 35.002 573.053 35.2832 572.619 35.8457C572.191 36.4082 571.978 37.082 571.978 37.8672V43H570.536V37.6562C570.536 35.8867 569.854 35.002 568.488 35.002C567.855 35.002 567.334 35.2686 566.924 35.8018C566.514 36.3291 566.309 37.0176 566.309 37.8672V43H564.867V34H566.309V35.4238H566.344C566.982 34.334 567.914 33.7891 569.139 33.7891C569.754 33.7891 570.29 33.9619 570.747 34.3076C571.204 34.6475 571.518 35.0957 571.688 35.6523C572.355 34.4102 573.352 33.7891 574.676 33.7891C576.656 33.7891 577.646 35.0107 577.646 37.4541V43Z" fill="black"/>
<rect x="495.5" y="0.5" width="131" height="71" stroke="black" stroke-dasharray="5 5"/>
<path d="M0 0V-0.5H-0.5V0H0ZM720 0H720.5V-0.5H720V0ZM720 120V120.5H720.5V120H720ZM0 120H-0.5V120.5H0V120ZM-0.5 0V2.5H0.5V0H-0.5ZM-0.5 7.5V12.5H0.5V7.5H-0.5ZM-0.5 17.5V22.5H0.5V17.5H-0.5ZM-0.5 27.5V32.5H0.5V27.5H-0.5ZM-0.5 37.5V42.5H0.5V37.5H-0.5ZM-0.5 47.5V52.5H0.5V47.5H-0.5ZM-0.5 57.5V62.5H0.5V57.5H-0.5ZM-0.5 67.5V72.5H0.5V67.5H-0.5ZM-0.5 77.5V82.5H0.5V77.5H-0.5ZM-0.5 87.5V92.5H0.5V87.5H-0.5ZM-0.5 97.5V102.5H0.5V97.5H-0.5ZM-0.5 107.5V112.5H0.5V107.5H-0.5ZM-0.5 117.5V120H0.5V117.5H-0.5ZM0 120.5H2.5V119.5H0V120.5ZM7.5 120.5H12.5V119.5H7.5V120.5ZM17.5 120.5H22.5V119.5H17.5V120.5ZM27.5 120.5H32.5V119.5H27.5V120.5ZM37.5 120.5H42.5V119.5H37.5V120.5ZM47.5 120.5H52.5V119.5H47.5V120.5ZM57.5 120.5H62.5V119.5H57.5V120.5ZM67.5 120.5H72.5V119.5H67.5V120.5ZM77.5 120.5H82.5V119.5H77.5V120.5ZM87.5 120.5H92.5V119.5H87.5V120.5ZM97.5 120.5H102.5V119.5H97.5V120.5ZM107.5 120.5H112.5V119.5H107.5V120.5ZM117.5 120.5H122.5V119.5H117.5V120.5ZM127.5 120.5H132.5V119.5H127.5V120.5ZM137.5 120.5H142.5V119.5H137.5V120.5ZM147.5 120.5H152.5V119.5H147.5V120.5ZM157.5 120.5H162.5V119.5H157.5V120.5ZM167.5 120.5H172.5V119.5H167.5V120.5ZM177.5 120.5H182.5V119.5H177.5V120.5ZM187.5 120.5H192.5V119.5H187.5V120.5ZM197.5 120.5H202.5V119.5H197.5V120.5ZM207.5 120.5H212.5V119.5H207.5V120.5ZM217.5 120.5H222.5V119.5H217.5V120.5ZM227.5 120.5H232.5V119.5H227.5V120.5ZM237.5 120.5H242.5V119.5H237.5V120.5ZM247.5 120.5H252.5V119.5H247.5V120.5ZM257.5 120.5H262.5V119.5H257.5V120.5ZM267.5 120.5H272.5V119.5H267.5V120.5ZM277.5 120.5H282.5V119.5H277.5V120.5ZM287.5 120.5H292.5V119.5H287.5V120.5ZM297.5 120.5H302.5V119.5H297.5V120.5ZM307.5 120.5H312.5V119.5H307.5V120.5ZM317.5 120.5H322.5V119.5H317.5V120.5ZM327.5 120.5H332.5V119.5H327.5V120.5ZM337.5 120.5H342.5V119.5H337.5V120.5ZM347.5 120.5H352.5V119.5H347.5V120.5ZM357.5 120.5H362.5V119.5H357.5V120.5ZM367.5 120.5H372.5V119.5H367.5V120.5ZM377.5 120.5H382.5V119.5H377.5V120.5ZM387.5 120.5H392.5V119.5H387.5V120.5ZM397.5 120.5H402.5V119.5H397.5V120.5ZM407.5 120.5H412.5V119.5H407.5V120.5ZM417.5 120.5H422.5V119.5H417.5V120.5ZM427.5 120.5H432.5V119.5H427.5V120.5ZM437.5 120.5H442.5V119.5H437.5V120.5ZM447.5 120.5H452.5V119.5H447.5V120.5ZM457.5 120.5H462.5V119.5H457.5V120.5ZM467.5 120.5H472.5V119.5H467.5V120.5ZM477.5 120.5H482.5V119.5H477.5V120.5ZM487.5 120.5H492.5V119.5H487.5V120.5ZM497.5 120.5H502.5V119.5H497.5V120.5ZM507.5 120.5H512.5V119.5H507.5V120.5ZM517.5 120.5H522.5V119.5H517.5V120.5ZM527.5 120.5H532.5V119.5H527.5V120.5ZM537.5 120.5H542.5V119.5H537.5V120.5ZM547.5 120.5H552.5V119.5H547.5V120.5ZM557.5 120.5H562.5V119.5H557.5V120.5ZM567.5 120.5H572.5V119.5H567.5V120.5ZM577.5 120.5H582.5V119.5H577.5V120.5ZM587.5 120.5H592.5V119.5H587.5V120.5ZM597.5 120.5H602.5V119.5H597.5V120.5ZM607.5 120.5H612.5V119.5H607.5V120.5ZM617.5 120.5H622.5V119.5H617.5V120.5ZM627.5 120.5H632.5V119.5H627.5V120.5ZM637.5 120.5H642.5V119.5H637.5V120.5ZM647.5 120.5H652.5V119.5H647.5V120.5ZM657.5 120.5H662.5V119.5H657.5V120.5ZM667.5 120.5H672.5V119.5H667.5V120.5ZM677.5 120.5H682.5V119.5H677.5V120.5ZM687.5 120.5H692.5V119.5H687.5V120.5ZM697.5 120.5H702.5V119.5H697.5V120.5ZM707.5 120.5H712.5V119.5H707.5V120.5ZM717.5 120.5H720V119.5H717.5V120.5ZM720.5 120V117.5H719.5V120H720.5ZM720.5 112.5V107.5H719.5V112.5H720.5ZM720.5 102.5V97.5H719.5V102.5H720.5ZM720.5 92.5V87.5H719.5V92.5H720.5ZM720.5 82.5V77.5H719.5V82.5H720.5ZM720.5 72.5V67.5H719.5V72.5H720.5ZM720.5 62.5V57.5H719.5V62.5H720.5ZM720.5 52.5V47.5H719.5V52.5H720.5ZM720.5 42.5V37.5H719.5V42.5H720.5ZM720.5 32.5V27.5H719.5V32.5H720.5ZM720.5 22.5V17.5H719.5V22.5H720.5ZM720.5 12.5V7.5H719.5V12.5H720.5ZM720.5 2.5V0H719.5V2.5H720.5ZM720 -0.5H717.5V0.5H720V-0.5ZM712.5 -0.5H707.5V0.5H712.5V-0.5ZM702.5 -0.5H697.5V0.5H702.5V-0.5ZM692.5 -0.5H687.5V0.5H692.5V-0.5ZM682.5 -0.5H677.5V0.5H682.5V-0.5ZM672.5 -0.5H667.5V0.5H672.5V-0.5ZM662.5 -0.5H657.5V0.5H662.5V-0.5ZM652.5 -0.5H647.5V0.5H652.5V-0.5ZM642.5 -0.5H637.5V0.5H642.5V-0.5ZM632.5 -0.5H627.5V0.5H632.5V-0.5ZM622.5 -0.5H617.5V0.5H622.5V-0.5ZM612.5 -0.5H607.5V0.5H612.5V-0.5ZM602.5 -0.5H597.5V0.5H602.5V-0.5ZM592.5 -0.5H587.5V0.5H592.5V-0.5ZM582.5 -0.5H577.5V0.5H582.5V-0.5ZM572.5 -0.5H567.5V0.5H572.5V-0.5ZM562.5 -0.5H557.5V0.5H562.5V-0.5ZM552.5 -0.5H547.5V0.5H552.5V-0.5ZM542.5 -0.5H537.5V0.5H542.5V-0.5ZM532.5 -0.5H527.5V0.5H532.5V-0.5ZM522.5 -0.5H517.5V0.5H522.5V-0.5ZM512.5 -0.5H507.5V0.5H512.5V-0.5ZM502.5 -0.5H497.5V0.5H502.5V-0.5ZM492.5 -0.5H487.5V0.5H492.5V-0.5ZM482.5 -0.5H477.5V0.5H482.5V-0.5ZM472.5 -0.5H467.5V0.5H472.5V-0.5ZM462.5 -0.5H457.5V0.5H462.5V-0.5ZM452.5 -0.5H447.5V0.5H452.5V-0.5ZM442.5 -0.5H437.5V0.5H442.5V-0.5ZM432.5 -0.5H427.5V0.5H432.5V-0.5ZM422.5 -0.5H417.5V0.5H422.5V-0.5ZM412.5 -0.5H407.5V0.5H412.5V-0.5ZM402.5 -0.5H397.5V0.5H402.5V-0.5ZM392.5 -0.5H387.5V0.5H392.5V-0.5ZM382.5 -0.5H377.5V0.5H382.5V-0.5ZM372.5 -0.5H367.5V0.5H372.5V-0.5ZM362.5 -0.5H357.5V0.5H362.5V-0.5ZM352.5 -0.5H347.5V0.5H352.5V-0.5ZM342.5 -0.5H337.5V0.5H342.5V-0.5ZM332.5 -0.5H327.5V0.5H332.5V-0.5ZM322.5 -0.5H317.5V0.5H322.5V-0.5ZM312.5 -0.5H307.5V0.5H312.5V-0.5ZM302.5 -0.5H297.5V0.5H302.5V-0.5ZM292.5 -0.5H287.5V0.5H292.5V-0.5ZM282.5 -0.5H277.5V0.5H282.5V-0.5ZM272.5 -0.5H267.5V0.5H272.5V-0.5ZM262.5 -0.5H257.5V0.5H262.5V-0.5ZM252.5 -0.5H247.5V0.5H252.5V-0.5ZM242.5 -0.5H237.5V0.5H242.5V-0.5ZM232.5 -0.5H227.5V0.5H232.5V-0.5ZM222.5 -0.5H217.5V0.5H222.5V-0.5ZM212.5 -0.5H207.5V0.5H212.5V-0.5ZM202.5 -0.5H197.5V0.5H202.5V-0.5ZM192.5 -0.5H187.5V0.5H192.5V-0.5ZM182.5 -0.5H177.5V0.5H182.5V-0.5ZM172.5 -0.5H167.5V0.5H172.5V-0.5ZM162.5 -0.5H157.5V0.5H162.5V-0.5ZM152.5 -0.5H147.5V0.5H152.5V-0.5ZM142.5 -0.5H137.5V0.5H142.5V-0.5ZM132.5 -0.5H127.5V0.5H132.5V-0.5ZM122.5 -0.5H117.5V0.5H122.5V-0.5ZM112.5 -0.5H107.5V0.5H112.5V-0.5ZM102.5 -0.5H97.5V0.5H102.5V-0.5ZM92.5 -0.5H87.5V0.5H92.5V-0.5ZM82.5 -0.5H77.5V0.5H82.5V-0.5ZM72.5 -0.5H67.5V0.5H72.5V-0.5ZM62.5 -0.5H57.5V0.5H62.5V-0.5ZM52.5 -0.5H47.5V0.5H52.5V-0.5ZM42.5 -0.5H37.5V0.5H42.5V-0.5ZM32.5 -0.5H27.5V0.5H32.5V-0.5ZM22.5 -0.5H17.5V0.5H22.5V-0.5ZM12.5 -0.5H7.50001V0.5H12.5V-0.5ZM2.49999 -0.5H0V0.5H2.49999V-0.5ZM0 0V-1H-1V0H0ZM720 0H721V-1H720V0ZM720 120V121H721V120H720ZM0 120H-1V121H0V120ZM-1 0V2.5H1V0H-1ZM-1 7.5V12.5H1V7.5H-1ZM-1 17.5V22.5H1V17.5H-1ZM-1 27.5V32.5H1V27.5H-1ZM-1 37.5V42.5H1V37.5H-1ZM-1 47.5V52.5H1V47.5H-1ZM-1 57.5V62.5H1V57.5H-1ZM-1 67.5V72.5H1V67.5H-1ZM-1 77.5V82.5H1V77.5H-1ZM-1 87.5V92.5H1V87.5H-1ZM-1 97.5V102.5H1V97.5H-1ZM-1 107.5V112.5H1V107.5H-1ZM-1 117.5V120H1V117.5H-1ZM0 121H2.5V119H0V121ZM7.5 121H12.5V119H7.5V121ZM17.5 121H22.5V119H17.5V121ZM27.5 121H32.5V119H27.5V121ZM37.5 121H42.5V119H37.5V121ZM47.5 121H52.5V119H47.5V121ZM57.5 121H62.5V119H57.5V121ZM67.5 121H72.5V119H67.5V121ZM77.5 121H82.5V119H77.5V121ZM87.5 121H92.5V119H87.5V121ZM97.5 121H102.5V119H97.5V121ZM107.5 121H112.5V119H107.5V121ZM117.5 121H122.5V119H117.5V121ZM127.5 121H132.5V119H127.5V121ZM137.5 121H142.5V119H137.5V121ZM147.5 121H152.5V119H147.5V121ZM157.5 121H162.5V119H157.5V121ZM167.5 121H172.5V119H167.5V121ZM177.5 121H182.5V119H177.5V121ZM187.5 121H192.5V119H187.5V121ZM197.5 121H202.5V119H197.5V121ZM207.5 121H212.5V119H207.5V121ZM217.5 121H222.5V119H217.5V121ZM227.5 121H232.5V119H227.5V121ZM237.5 121H242.5V119H237.5V121ZM247.5 121H252.5V119H247.5V121ZM257.5 121H262.5V119H257.5V121ZM267.5 121H272.5V119H267.5V121ZM277.5 121H282.5V119H277.5V121ZM287.5 121H292.5V119H287.5V121ZM297.5 121H302.5V119H297.5V121ZM307.5 121H312.5V119H307.5V121ZM317.5 121H322.5V119H317.5V121ZM327.5 121H332.5V119H327.5V121ZM337.5 121H342.5V119H337.5V121ZM347.5 121H352.5V119H347.5V121ZM357.5 121H362.5V119H357.5V121ZM367.5 121H372.5V119H367.5V121ZM377.5 121H382.5V119H377.5V121ZM387.5 121H392.5V119H387.5V121ZM397.5 121H402.5V119H397.5V121ZM407.5 121H412.5V119H407.5V121ZM417.5 121H422.5V119H417.5V121ZM427.5 121H432.5V119H427.5V121ZM437.5 121H442.5V119H437.5V121ZM447.5 121H452.5V119H447.5V121ZM457.5 121H462.5V119H457.5V121ZM467.5 121H472.5V119H467.5V121ZM477.5 121H482.5V119H477.5V121ZM487.5 121H492.5V119H487.5V121ZM497.5 121H502.5V119H497.5V121ZM507.5 121H512.5V119H507.5V121ZM517.5 121H522.5V119H517.5V121ZM527.5 121H532.5V119H527.5V121ZM537.5 121H542.5V119H537.5V121ZM547.5 121H552.5V119H547.5V121ZM557.5 121H562.5V119H557.5V121ZM567.5 121H572.5V119H567.5V121ZM577.5 121H582.5V119H577.5V121ZM587.5 121H592.5V119H587.5V121ZM597.5 121H602.5V119H597.5V121ZM607.5 121H612.5V119H607.5V121ZM617.5 121H622.5V119H617.5V121ZM627.5 121H632.5V119H627.5V121ZM637.5 121H642.5V119H637.5V121ZM647.5 121H652.5V119H647.5V121ZM657.5 121H662.5V119H657.5V121ZM667.5 121H672.5V119H667.5V121ZM677.5 121H682.5V119H677.5V121ZM687.5 121H692.5V119H687.5V121ZM697.5 121H702.5V119H697.5V121ZM707.5 121H712.5V119H707.5V121ZM717.5 121H720V119H717.5V121ZM721 120V117.5H719V120H721ZM721 112.5V107.5H719V112.5H721ZM721 102.5V97.5H719V102.5H721ZM721 92.5V87.5H719V92.5H721ZM721 82.5V77.5H719V82.5H721ZM721 72.5V67.5H719V72.5H721ZM721 62.5V57.5H719V62.5H721ZM721 52.5V47.5H719V52.5H721ZM721 42.5V37.5H719V42.5H721ZM721 32.5V27.5H719V32.5H721ZM721 22.5V17.5H719V22.5H721ZM721 12.5V7.5H719V12.5H721ZM721 2.5V0H719V2.5H721ZM720 -1H717.5V1H720V-1ZM712.5 -1H707.5V1H712.5V-1ZM702.5 -1H697.5V1H702.5V-1ZM692.5 -1H687.5V1H692.5V-1ZM682.5 -1H677.5V1H682.5V-1ZM672.5 -1H667.5V1H672.5V-1ZM662.5 -1H657.5V1H662.5V-1ZM652.5 -1H647.5V1H652.5V-1ZM642.5 -1H637.5V1H642.5V-1ZM632.5 -1H627.5V1H632.5V-1ZM622.5 -1H617.5V1H622.5V-1ZM612.5 -1H607.5V1H612.5V-1ZM602.5 -1H597.5V1H602.5V-1ZM592.5 -1H587.5V1H592.5V-1ZM582.5 -1H577.5V1H582.5V-1ZM572.5 -1H567.5V1H572.5V-1ZM562.5 -1H557.5V1H562.5V-1ZM552.5 -1H547.5V1H552.5V-1ZM542.5 -1H537.5V1H542.5V-1ZM532.5 -1H527.5V1H532.5V-1ZM522.5 -1H517.5V1H522.5V-1ZM512.5 -1H507.5V1H512.5V-1ZM502.5 -1H497.5V1H502.5V-1ZM492.5 -1H487.5V1H492.5V-1ZM482.5 -1H477.5V1H482.5V-1ZM472.5 -1H467.5V1H472.5V-1ZM462.5 -1H457.5V1H462.5V-1ZM452.5 -1H447.5V1H452.5V-1ZM442.5 -1H437.5V1H442.5V-1ZM432.5 -1H427.5V1H432.5V-1ZM422.5 -1H417.5V1H422.5V-1ZM412.5 -1H407.5V1H412.5V-1ZM402.5 -1H397.5V1H402.5V-1ZM392.5 -1H387.5V1H392.5V-1ZM382.5 -1H377.5V1H382.5V-1ZM372.5 -1H367.5V1H372.5V-1ZM362.5 -1H357.5V1H362.5V-1ZM352.5 -1H347.5V1H352.5V-1ZM342.5 -1H337.5V1H342.5V-1ZM332.5 -1H327.5V1H332.5V-1ZM322.5 -1H317.5V1H322.5V-1ZM312.5 -1H307.5V1H312.5V-1ZM302.5 -1H297.5V1H302.5V-1ZM292.5 -1H287.5V1H292.5V-1ZM282.5 -1H277.5V1H282.5V-1ZM272.5 -1H267.5V1H272.5V-1ZM262.5 -1H257.5V1H262.5V-1ZM252.5 -1H247.5V1H252.5V-1ZM242.5 -1H237.5V1H242.5V-1ZM232.5 -1H227.5V1H232.5V-1ZM222.5 -1H217.5V1H222.5V-1ZM212.5 -1H207.5V1H212.5V-1ZM202.5 -1H197.5V1H202.5V-1ZM192.5 -1H187.5V1H192.5V-1ZM182.5 -1H177.5V1H182.5V-1ZM172.5 -1H167.5V1H172.5V-1ZM162.5 -1H157.5V1H162.5V-1ZM152.5 -1H147.5V1H152.5V-1ZM142.5 -1H137.5V1H142.5V-1ZM132.5 -1H127.5V1H132.5V-1ZM122.5 -1H117.5V1H122.5V-1ZM112.5 -1H107.5V1H112.5V-1ZM102.5 -1H97.5V1H102.5V-1ZM92.5 -1H87.5V1H92.5V-1ZM82.5 -1H77.5V1H82.5V-1ZM72.5 -1H67.5V1H72.5V-1ZM62.5 -1H57.5V1H62.5V-1ZM52.5 -1H47.5V1H52.5V-1ZM42.5 -1H37.5V1H42.5V-1ZM32.5 -1H27.5V1H32.5V-1ZM22.5 -1H17.5V1H22.5V-1ZM12.5 -1H7.50001V1H12.5V-1ZM2.49999 -1H0V1H2.49999V-1Z" fill="#7F20D2"/>
</svg>
