<svg width="720" height="160" viewBox="0 0 720 160" fill="none" xmlns="http://www.w3.org/2000/svg">
<path d="M0 0H720V160H0V0Z" fill="#D9BCF2"/>
<rect x="0.5" y="0.5" width="719" height="71" fill="white"/>
<path d="M323.455 42.1387C322.189 42.8535 320.783 43.2109 319.236 43.2109C317.438 43.2109 315.981 42.6309 314.868 41.4707C313.761 40.3105 313.207 38.7754 313.207 36.8652C313.207 34.9141 313.822 33.3145 315.053 32.0664C316.289 30.8125 317.854 30.1855 319.746 30.1855C321.117 30.1855 322.269 30.4082 323.2 30.8535V32.4883C322.181 31.8438 320.974 31.5215 319.579 31.5215C318.167 31.5215 317.01 32.0078 316.107 32.9805C315.205 33.9531 314.754 35.2129 314.754 36.7598C314.754 38.3535 315.173 39.6074 316.011 40.5215C316.849 41.4297 317.985 41.8838 319.421 41.8838C320.405 41.8838 321.258 41.6875 321.979 41.2949V37.7617H319.219V36.4258H323.455V42.1387ZM330.891 35.459C330.639 35.2656 330.275 35.1689 329.801 35.1689C329.186 35.1689 328.67 35.459 328.254 36.0391C327.844 36.6191 327.639 37.4102 327.639 38.4121V43H326.197V34H327.639V35.8545H327.674C327.879 35.2217 328.192 34.7295 328.614 34.3779C329.036 34.0205 329.508 33.8418 330.029 33.8418C330.404 33.8418 330.691 33.8828 330.891 33.9648V35.459ZM333.193 31.7148C332.936 31.7148 332.716 31.627 332.534 31.4512C332.353 31.2754 332.262 31.0527 332.262 30.7832C332.262 30.5137 332.353 30.291 332.534 30.1152C332.716 29.9336 332.936 29.8428 333.193 29.8428C333.457 29.8428 333.68 29.9336 333.861 30.1152C334.049 30.291 334.143 30.5137 334.143 30.7832C334.143 31.041 334.049 31.2607 333.861 31.4424C333.68 31.624 333.457 31.7148 333.193 31.7148ZM333.896 43H332.455V34H333.896V43ZM344.496 43H343.055V41.4707H343.02C342.352 42.6309 341.32 43.2109 339.926 43.2109C338.795 43.2109 337.89 42.8096 337.21 42.0068C336.536 41.1982 336.199 40.0996 336.199 38.7109C336.199 37.2227 336.574 36.0303 337.324 35.1338C338.074 34.2373 339.073 33.7891 340.321 33.7891C341.558 33.7891 342.457 34.2754 343.02 35.248H343.055V29.6758H344.496V43ZM343.055 38.9307V37.6035C343.055 36.877 342.814 36.2617 342.334 35.7578C341.854 35.2539 341.244 35.002 340.506 35.002C339.627 35.002 338.936 35.3242 338.432 35.9688C337.928 36.6133 337.676 37.5039 337.676 38.6406C337.676 39.6777 337.916 40.498 338.396 41.1016C338.883 41.6992 339.533 41.998 340.348 41.998C341.15 41.998 341.801 41.708 342.299 41.1279C342.803 40.5479 343.055 39.8154 343.055 38.9307ZM352.02 38.5527H347.221V37.4189H352.02V38.5527ZM364.57 43H362.936L361.6 39.4668H356.256L354.999 43H353.355L358.189 30.3965H359.719L364.57 43ZM361.116 38.1396L359.139 32.7695C359.074 32.5938 359.01 32.3125 358.945 31.9258H358.91C358.852 32.2832 358.784 32.5645 358.708 32.7695L356.748 38.1396H361.116ZM370.934 35.459C370.682 35.2656 370.318 35.1689 369.844 35.1689C369.229 35.1689 368.713 35.459 368.297 36.0391C367.887 36.6191 367.682 37.4102 367.682 38.4121V43H366.24V34H367.682V35.8545H367.717C367.922 35.2217 368.235 34.7295 368.657 34.3779C369.079 34.0205 369.551 33.8418 370.072 33.8418C370.447 33.8418 370.734 33.8828 370.934 33.9648V35.459ZM379.731 38.8604H373.377C373.4 39.8623 373.67 40.6357 374.186 41.1807C374.701 41.7256 375.41 41.998 376.312 41.998C377.326 41.998 378.258 41.6641 379.107 40.9961V42.3496C378.316 42.9238 377.271 43.2109 375.97 43.2109C374.698 43.2109 373.699 42.8037 372.973 41.9893C372.246 41.1689 371.883 40.0176 371.883 38.5352C371.883 37.1348 372.278 35.9951 373.069 35.1162C373.866 34.2314 374.854 33.7891 376.031 33.7891C377.209 33.7891 378.12 34.1699 378.765 34.9316C379.409 35.6934 379.731 36.751 379.731 38.1045V38.8604ZM378.255 37.6387C378.249 36.8066 378.047 36.1592 377.648 35.6963C377.256 35.2334 376.708 35.002 376.005 35.002C375.325 35.002 374.748 35.2451 374.273 35.7314C373.799 36.2178 373.506 36.8535 373.395 37.6387H378.255ZM388.362 43H386.921V41.5938H386.886C386.259 42.6719 385.336 43.2109 384.117 43.2109C383.221 43.2109 382.518 42.9736 382.008 42.499C381.504 42.0244 381.252 41.3945 381.252 40.6094C381.252 38.9277 382.242 37.9492 384.223 37.6738L386.921 37.2959C386.921 35.7666 386.303 35.002 385.066 35.002C383.982 35.002 383.004 35.3711 382.131 36.1094V34.6328C383.016 34.0703 384.035 33.7891 385.189 33.7891C387.305 33.7891 388.362 34.9082 388.362 37.1465V43ZM386.921 38.4473L384.75 38.7461C384.082 38.8398 383.578 39.0068 383.238 39.2471C382.898 39.4814 382.729 39.9004 382.729 40.5039C382.729 40.9434 382.884 41.3037 383.194 41.585C383.511 41.8604 383.93 41.998 384.451 41.998C385.166 41.998 385.755 41.749 386.218 41.251C386.687 40.7471 386.921 40.1113 386.921 39.3438V38.4473ZM391.579 35.7578C391.31 35.7578 391.078 35.6611 390.885 35.4678C390.697 35.2744 390.604 35.043 390.604 34.7734C390.604 34.5039 390.697 34.2754 390.885 34.0879C391.078 33.9004 391.31 33.8066 391.579 33.8066C391.854 33.8066 392.089 33.9004 392.282 34.0879C392.476 34.2754 392.572 34.5039 392.572 34.7734C392.572 35.043 392.476 35.2744 392.282 35.4678C392.089 35.6611 391.854 35.7578 391.579 35.7578ZM391.579 43.1934C391.31 43.1934 391.078 43.0967 390.885 42.9033C390.697 42.71 390.604 42.4785 390.604 42.209C390.604 41.9395 390.697 41.708 390.885 41.5146C391.078 41.3154 391.31 41.2158 391.579 41.2158C391.854 41.2158 392.089 41.3154 392.282 41.5146C392.476 41.708 392.572 41.9395 392.572 42.209C392.572 42.4785 392.476 42.71 392.282 42.9033C392.089 43.0967 391.854 43.1934 391.579 43.1934ZM406.362 43H404.921V41.5938H404.886C404.259 42.6719 403.336 43.2109 402.117 43.2109C401.221 43.2109 400.518 42.9736 400.008 42.499C399.504 42.0244 399.252 41.3945 399.252 40.6094C399.252 38.9277 400.242 37.9492 402.223 37.6738L404.921 37.2959C404.921 35.7666 404.303 35.002 403.066 35.002C401.982 35.002 401.004 35.3711 400.131 36.1094V34.6328C401.016 34.0703 402.035 33.7891 403.189 33.7891C405.305 33.7891 406.362 34.9082 406.362 37.1465V43ZM404.921 38.4473L402.75 38.7461C402.082 38.8398 401.578 39.0068 401.238 39.2471C400.898 39.4814 400.729 39.9004 400.729 40.5039C400.729 40.9434 400.884 41.3037 401.194 41.585C401.511 41.8604 401.93 41.998 402.451 41.998C403.166 41.998 403.755 41.749 404.218 41.251C404.687 40.7471 404.921 40.1113 404.921 39.3438V38.4473Z" fill="black"/>
<rect x="0.5" y="0.5" width="719" height="71" stroke="black" stroke-dasharray="5 5"/>
<rect x="0.5" y="88.5" width="351" height="71" fill="white"/>
<path d="M138.743 130.139C137.478 130.854 136.071 131.211 134.524 131.211C132.726 131.211 131.27 130.631 130.156 129.471C129.049 128.311 128.495 126.775 128.495 124.865C128.495 122.914 129.11 121.314 130.341 120.066C131.577 118.812 133.142 118.186 135.034 118.186C136.405 118.186 137.557 118.408 138.488 118.854V120.488C137.469 119.844 136.262 119.521 134.867 119.521C133.455 119.521 132.298 120.008 131.396 120.98C130.493 121.953 130.042 123.213 130.042 124.76C130.042 126.354 130.461 127.607 131.299 128.521C132.137 129.43 133.273 129.884 134.709 129.884C135.693 129.884 136.546 129.688 137.267 129.295V125.762H134.507V124.426H138.743V130.139ZM146.179 123.459C145.927 123.266 145.563 123.169 145.089 123.169C144.474 123.169 143.958 123.459 143.542 124.039C143.132 124.619 142.927 125.41 142.927 126.412V131H141.485V122H142.927V123.854H142.962C143.167 123.222 143.48 122.729 143.902 122.378C144.324 122.021 144.796 121.842 145.317 121.842C145.692 121.842 145.979 121.883 146.179 121.965V123.459ZM148.481 119.715C148.224 119.715 148.004 119.627 147.822 119.451C147.641 119.275 147.55 119.053 147.55 118.783C147.55 118.514 147.641 118.291 147.822 118.115C148.004 117.934 148.224 117.843 148.481 117.843C148.745 117.843 148.968 117.934 149.149 118.115C149.337 118.291 149.431 118.514 149.431 118.783C149.431 119.041 149.337 119.261 149.149 119.442C148.968 119.624 148.745 119.715 148.481 119.715ZM149.185 131H147.743V122H149.185V131ZM159.784 131H158.343V129.471H158.308C157.64 130.631 156.608 131.211 155.214 131.211C154.083 131.211 153.178 130.81 152.498 130.007C151.824 129.198 151.487 128.1 151.487 126.711C151.487 125.223 151.862 124.03 152.612 123.134C153.362 122.237 154.361 121.789 155.609 121.789C156.846 121.789 157.745 122.275 158.308 123.248H158.343V117.676H159.784V131ZM158.343 126.931V125.604C158.343 124.877 158.103 124.262 157.622 123.758C157.142 123.254 156.532 123.002 155.794 123.002C154.915 123.002 154.224 123.324 153.72 123.969C153.216 124.613 152.964 125.504 152.964 126.641C152.964 127.678 153.204 128.498 153.685 129.102C154.171 129.699 154.821 129.998 155.636 129.998C156.438 129.998 157.089 129.708 157.587 129.128C158.091 128.548 158.343 127.815 158.343 126.931ZM167.308 126.553H162.509V125.419H167.308V126.553ZM179.858 131H178.224L176.888 127.467H171.544L170.287 131H168.644L173.478 118.396H175.007L179.858 131ZM176.404 126.14L174.427 120.77C174.362 120.594 174.298 120.312 174.233 119.926H174.198C174.14 120.283 174.072 120.564 173.996 120.77L172.036 126.14H176.404ZM186.222 123.459C185.97 123.266 185.606 123.169 185.132 123.169C184.517 123.169 184.001 123.459 183.585 124.039C183.175 124.619 182.97 125.41 182.97 126.412V131H181.528V122H182.97V123.854H183.005C183.21 123.222 183.523 122.729 183.945 122.378C184.367 122.021 184.839 121.842 185.36 121.842C185.735 121.842 186.022 121.883 186.222 121.965V123.459ZM195.02 126.86H188.665C188.688 127.862 188.958 128.636 189.474 129.181C189.989 129.726 190.698 129.998 191.601 129.998C192.614 129.998 193.546 129.664 194.396 128.996V130.35C193.604 130.924 192.559 131.211 191.258 131.211C189.986 131.211 188.987 130.804 188.261 129.989C187.534 129.169 187.171 128.018 187.171 126.535C187.171 125.135 187.566 123.995 188.357 123.116C189.154 122.231 190.142 121.789 191.319 121.789C192.497 121.789 193.408 122.17 194.053 122.932C194.697 123.693 195.02 124.751 195.02 126.104V126.86ZM193.543 125.639C193.537 124.807 193.335 124.159 192.937 123.696C192.544 123.233 191.996 123.002 191.293 123.002C190.613 123.002 190.036 123.245 189.562 123.731C189.087 124.218 188.794 124.854 188.683 125.639H193.543ZM203.65 131H202.209V129.594H202.174C201.547 130.672 200.624 131.211 199.405 131.211C198.509 131.211 197.806 130.974 197.296 130.499C196.792 130.024 196.54 129.395 196.54 128.609C196.54 126.928 197.53 125.949 199.511 125.674L202.209 125.296C202.209 123.767 201.591 123.002 200.354 123.002C199.271 123.002 198.292 123.371 197.419 124.109V122.633C198.304 122.07 199.323 121.789 200.478 121.789C202.593 121.789 203.65 122.908 203.65 125.146V131ZM202.209 126.447L200.038 126.746C199.37 126.84 198.866 127.007 198.526 127.247C198.187 127.481 198.017 127.9 198.017 128.504C198.017 128.943 198.172 129.304 198.482 129.585C198.799 129.86 199.218 129.998 199.739 129.998C200.454 129.998 201.043 129.749 201.506 129.251C201.975 128.747 202.209 128.111 202.209 127.344V126.447ZM206.867 123.758C206.598 123.758 206.366 123.661 206.173 123.468C205.985 123.274 205.892 123.043 205.892 122.773C205.892 122.504 205.985 122.275 206.173 122.088C206.366 121.9 206.598 121.807 206.867 121.807C207.143 121.807 207.377 121.9 207.57 122.088C207.764 122.275 207.86 122.504 207.86 122.773C207.86 123.043 207.764 123.274 207.57 123.468C207.377 123.661 207.143 123.758 206.867 123.758ZM206.867 131.193C206.598 131.193 206.366 131.097 206.173 130.903C205.985 130.71 205.892 130.479 205.892 130.209C205.892 129.939 205.985 129.708 206.173 129.515C206.366 129.315 206.598 129.216 206.867 129.216C207.143 129.216 207.377 129.315 207.57 129.515C207.764 129.708 207.86 129.939 207.86 130.209C207.86 130.479 207.764 130.71 207.57 130.903C207.377 131.097 207.143 131.193 206.867 131.193ZM216.685 129.699H216.649V131H215.208V117.676H216.649V123.582H216.685C217.394 122.387 218.431 121.789 219.796 121.789C220.95 121.789 221.853 122.193 222.503 123.002C223.159 123.805 223.487 124.883 223.487 126.236C223.487 127.742 223.121 128.949 222.389 129.857C221.656 130.76 220.654 131.211 219.383 131.211C218.193 131.211 217.294 130.707 216.685 129.699ZM216.649 126.069V127.326C216.649 128.07 216.89 128.703 217.37 129.225C217.856 129.74 218.472 129.998 219.216 129.998C220.089 129.998 220.771 129.664 221.264 128.996C221.762 128.328 222.011 127.399 222.011 126.21C222.011 125.208 221.779 124.423 221.316 123.854C220.854 123.286 220.227 123.002 219.436 123.002C218.598 123.002 217.924 123.295 217.414 123.881C216.904 124.461 216.649 125.19 216.649 126.069Z" fill="black"/>
<rect x="0.5" y="88.5" width="351" height="71" stroke="black" stroke-dasharray="5 5"/>
<rect x="368.5" y="88.5" width="351" height="71" fill="white"/>
<path d="M507.877 130.139C506.611 130.854 505.205 131.211 503.658 131.211C501.859 131.211 500.403 130.631 499.29 129.471C498.183 128.311 497.629 126.775 497.629 124.865C497.629 122.914 498.244 121.314 499.475 120.066C500.711 118.812 502.275 118.186 504.168 118.186C505.539 118.186 506.69 118.408 507.622 118.854V120.488C506.603 119.844 505.396 119.521 504.001 119.521C502.589 119.521 501.432 120.008 500.529 120.98C499.627 121.953 499.176 123.213 499.176 124.76C499.176 126.354 499.595 127.607 500.433 128.521C501.271 129.43 502.407 129.884 503.843 129.884C504.827 129.884 505.68 129.688 506.4 129.295V125.762H503.641V124.426H507.877V130.139ZM515.312 123.459C515.061 123.266 514.697 123.169 514.223 123.169C513.607 123.169 513.092 123.459 512.676 124.039C512.266 124.619 512.061 125.41 512.061 126.412V131H510.619V122H512.061V123.854H512.096C512.301 123.222 512.614 122.729 513.036 122.378C513.458 122.021 513.93 121.842 514.451 121.842C514.826 121.842 515.113 121.883 515.312 121.965V123.459ZM517.615 119.715C517.357 119.715 517.138 119.627 516.956 119.451C516.774 119.275 516.684 119.053 516.684 118.783C516.684 118.514 516.774 118.291 516.956 118.115C517.138 117.934 517.357 117.843 517.615 117.843C517.879 117.843 518.102 117.934 518.283 118.115C518.471 118.291 518.564 118.514 518.564 118.783C518.564 119.041 518.471 119.261 518.283 119.442C518.102 119.624 517.879 119.715 517.615 119.715ZM518.318 131H516.877V122H518.318V131ZM528.918 131H527.477V129.471H527.441C526.773 130.631 525.742 131.211 524.348 131.211C523.217 131.211 522.312 130.81 521.632 130.007C520.958 129.198 520.621 128.1 520.621 126.711C520.621 125.223 520.996 124.03 521.746 123.134C522.496 122.237 523.495 121.789 524.743 121.789C525.979 121.789 526.879 122.275 527.441 123.248H527.477V117.676H528.918V131ZM527.477 126.931V125.604C527.477 124.877 527.236 124.262 526.756 123.758C526.275 123.254 525.666 123.002 524.928 123.002C524.049 123.002 523.357 123.324 522.854 123.969C522.35 124.613 522.098 125.504 522.098 126.641C522.098 127.678 522.338 128.498 522.818 129.102C523.305 129.699 523.955 129.998 524.77 129.998C525.572 129.998 526.223 129.708 526.721 129.128C527.225 128.548 527.477 127.815 527.477 126.931ZM536.441 126.553H531.643V125.419H536.441V126.553ZM548.992 131H547.357L546.021 127.467H540.678L539.421 131H537.777L542.611 118.396H544.141L548.992 131ZM545.538 126.14L543.561 120.77C543.496 120.594 543.432 120.312 543.367 119.926H543.332C543.273 120.283 543.206 120.564 543.13 120.77L541.17 126.14H545.538ZM555.355 123.459C555.104 123.266 554.74 123.169 554.266 123.169C553.65 123.169 553.135 123.459 552.719 124.039C552.309 124.619 552.104 125.41 552.104 126.412V131H550.662V122H552.104V123.854H552.139C552.344 123.222 552.657 122.729 553.079 122.378C553.501 122.021 553.973 121.842 554.494 121.842C554.869 121.842 555.156 121.883 555.355 121.965V123.459ZM564.153 126.86H557.799C557.822 127.862 558.092 128.636 558.607 129.181C559.123 129.726 559.832 129.998 560.734 129.998C561.748 129.998 562.68 129.664 563.529 128.996V130.35C562.738 130.924 561.692 131.211 560.392 131.211C559.12 131.211 558.121 130.804 557.395 129.989C556.668 129.169 556.305 128.018 556.305 126.535C556.305 125.135 556.7 123.995 557.491 123.116C558.288 122.231 559.275 121.789 560.453 121.789C561.631 121.789 562.542 122.17 563.187 122.932C563.831 123.693 564.153 124.751 564.153 126.104V126.86ZM562.677 125.639C562.671 124.807 562.469 124.159 562.07 123.696C561.678 123.233 561.13 123.002 560.427 123.002C559.747 123.002 559.17 123.245 558.695 123.731C558.221 124.218 557.928 124.854 557.816 125.639H562.677ZM572.784 131H571.343V129.594H571.308C570.681 130.672 569.758 131.211 568.539 131.211C567.643 131.211 566.939 130.974 566.43 130.499C565.926 130.024 565.674 129.395 565.674 128.609C565.674 126.928 566.664 125.949 568.645 125.674L571.343 125.296C571.343 123.767 570.725 123.002 569.488 123.002C568.404 123.002 567.426 123.371 566.553 124.109V122.633C567.438 122.07 568.457 121.789 569.611 121.789C571.727 121.789 572.784 122.908 572.784 125.146V131ZM571.343 126.447L569.172 126.746C568.504 126.84 568 127.007 567.66 127.247C567.32 127.481 567.15 127.9 567.15 128.504C567.15 128.943 567.306 129.304 567.616 129.585C567.933 129.86 568.352 129.998 568.873 129.998C569.588 129.998 570.177 129.749 570.64 129.251C571.108 128.747 571.343 128.111 571.343 127.344V126.447ZM576.001 123.758C575.731 123.758 575.5 123.661 575.307 123.468C575.119 123.274 575.025 123.043 575.025 122.773C575.025 122.504 575.119 122.275 575.307 122.088C575.5 121.9 575.731 121.807 576.001 121.807C576.276 121.807 576.511 121.9 576.704 122.088C576.897 122.275 576.994 122.504 576.994 122.773C576.994 123.043 576.897 123.274 576.704 123.468C576.511 123.661 576.276 123.758 576.001 123.758ZM576.001 131.193C575.731 131.193 575.5 131.097 575.307 130.903C575.119 130.71 575.025 130.479 575.025 130.209C575.025 129.939 575.119 129.708 575.307 129.515C575.5 129.315 575.731 129.216 576.001 129.216C576.276 129.216 576.511 129.315 576.704 129.515C576.897 129.708 576.994 129.939 576.994 130.209C576.994 130.479 576.897 130.71 576.704 130.903C576.511 131.097 576.276 131.193 576.001 131.193ZM590.477 130.587C589.785 131.003 588.965 131.211 588.016 131.211C586.732 131.211 585.695 130.795 584.904 129.963C584.119 129.125 583.727 128.041 583.727 126.711C583.727 125.229 584.151 124.039 585.001 123.143C585.851 122.24 586.984 121.789 588.402 121.789C589.193 121.789 589.891 121.936 590.494 122.229V123.705C589.826 123.236 589.111 123.002 588.35 123.002C587.43 123.002 586.674 123.333 586.082 123.995C585.496 124.651 585.203 125.516 585.203 126.588C585.203 127.643 585.479 128.475 586.029 129.084C586.586 129.693 587.33 129.998 588.262 129.998C589.047 129.998 589.785 129.737 590.477 129.216V130.587Z" fill="black"/>
<rect x="368.5" y="88.5" width="351" height="71" stroke="black" stroke-dasharray="5 5"/>
<path d="M0 0V-0.5H-0.5V0H0ZM720 0H720.5V-0.5H720V0ZM720 160V160.5H720.5V160H720ZM0 160H-0.5V160.5H0V160ZM-0.5 0V2.5H0.5V0H-0.5ZM-0.5 7.5V12.5H0.5V7.5H-0.5ZM-0.5 17.5V22.5H0.5V17.5H-0.5ZM-0.5 27.5V32.5H0.5V27.5H-0.5ZM-0.5 37.5V42.5H0.5V37.5H-0.5ZM-0.5 47.5V52.5H0.5V47.5H-0.5ZM-0.5 57.5V62.5H0.5V57.5H-0.5ZM-0.5 67.5V72.5H0.5V67.5H-0.5ZM-0.5 77.5V82.5H0.5V77.5H-0.5ZM-0.5 87.5V92.5H0.5V87.5H-0.5ZM-0.5 97.5V102.5H0.5V97.5H-0.5ZM-0.5 107.5V112.5H0.5V107.5H-0.5ZM-0.5 117.5V122.5H0.5V117.5H-0.5ZM-0.5 127.5V132.5H0.5V127.5H-0.5ZM-0.5 137.5V142.5H0.5V137.5H-0.5ZM-0.5 147.5V152.5H0.5V147.5H-0.5ZM-0.5 157.5V160H0.5V157.5H-0.5ZM0 160.5H2.5V159.5H0V160.5ZM7.5 160.5H12.5V159.5H7.5V160.5ZM17.5 160.5H22.5V159.5H17.5V160.5ZM27.5 160.5H32.5V159.5H27.5V160.5ZM37.5 160.5H42.5V159.5H37.5V160.5ZM47.5 160.5H52.5V159.5H47.5V160.5ZM57.5 160.5H62.5V159.5H57.5V160.5ZM67.5 160.5H72.5V159.5H67.5V160.5ZM77.5 160.5H82.5V159.5H77.5V160.5ZM87.5 160.5H92.5V159.5H87.5V160.5ZM97.5 160.5H102.5V159.5H97.5V160.5ZM107.5 160.5H112.5V159.5H107.5V160.5ZM117.5 160.5H122.5V159.5H117.5V160.5ZM127.5 160.5H132.5V159.5H127.5V160.5ZM137.5 160.5H142.5V159.5H137.5V160.5ZM147.5 160.5H152.5V159.5H147.5V160.5ZM157.5 160.5H162.5V159.5H157.5V160.5ZM167.5 160.5H172.5V159.5H167.5V160.5ZM177.5 160.5H182.5V159.5H177.5V160.5ZM187.5 160.5H192.5V159.5H187.5V160.5ZM197.5 160.5H202.5V159.5H197.5V160.5ZM207.5 160.5H212.5V159.5H207.5V160.5ZM217.5 160.5H222.5V159.5H217.5V160.5ZM227.5 160.5H232.5V159.5H227.5V160.5ZM237.5 160.5H242.5V159.5H237.5V160.5ZM247.5 160.5H252.5V159.5H247.5V160.5ZM257.5 160.5H262.5V159.5H257.5V160.5ZM267.5 160.5H272.5V159.5H267.5V160.5ZM277.5 160.5H282.5V159.5H277.5V160.5ZM287.5 160.5H292.5V159.5H287.5V160.5ZM297.5 160.5H302.5V159.5H297.5V160.5ZM307.5 160.5H312.5V159.5H307.5V160.5ZM317.5 160.5H322.5V159.5H317.5V160.5ZM327.5 160.5H332.5V159.5H327.5V160.5ZM337.5 160.5H342.5V159.5H337.5V160.5ZM347.5 160.5H352.5V159.5H347.5V160.5ZM357.5 160.5H362.5V159.5H357.5V160.5ZM367.5 160.5H372.5V159.5H367.5V160.5ZM377.5 160.5H382.5V159.5H377.5V160.5ZM387.5 160.5H392.5V159.5H387.5V160.5ZM397.5 160.5H402.5V159.5H397.5V160.5ZM407.5 160.5H412.5V159.5H407.5V160.5ZM417.5 160.5H422.5V159.5H417.5V160.5ZM427.5 160.5H432.5V159.5H427.5V160.5ZM437.5 160.5H442.5V159.5H437.5V160.5ZM447.5 160.5H452.5V159.5H447.5V160.5ZM457.5 160.5H462.5V159.5H457.5V160.5ZM467.5 160.5H472.5V159.5H467.5V160.5ZM477.5 160.5H482.5V159.5H477.5V160.5ZM487.5 160.5H492.5V159.5H487.5V160.5ZM497.5 160.5H502.5V159.5H497.5V160.5ZM507.5 160.5H512.5V159.5H507.5V160.5ZM517.5 160.5H522.5V159.5H517.5V160.5ZM527.5 160.5H532.5V159.5H527.5V160.5ZM537.5 160.5H542.5V159.5H537.5V160.5ZM547.5 160.5H552.5V159.5H547.5V160.5ZM557.5 160.5H562.5V159.5H557.5V160.5ZM567.5 160.5H572.5V159.5H567.5V160.5ZM577.5 160.5H582.5V159.5H577.5V160.5ZM587.5 160.5H592.5V159.5H587.5V160.5ZM597.5 160.5H602.5V159.5H597.5V160.5ZM607.5 160.5H612.5V159.5H607.5V160.5ZM617.5 160.5H622.5V159.5H617.5V160.5ZM627.5 160.5H632.5V159.5H627.5V160.5ZM637.5 160.5H642.5V159.5H637.5V160.5ZM647.5 160.5H652.5V159.5H647.5V160.5ZM657.5 160.5H662.5V159.5H657.5V160.5ZM667.5 160.5H672.5V159.5H667.5V160.5ZM677.5 160.5H682.5V159.5H677.5V160.5ZM687.5 160.5H692.5V159.5H687.5V160.5ZM697.5 160.5H702.5V159.5H697.5V160.5ZM707.5 160.5H712.5V159.5H707.5V160.5ZM717.5 160.5H720V159.5H717.5V160.5ZM720.5 160V157.5H719.5V160H720.5ZM720.5 152.5V147.5H719.5V152.5H720.5ZM720.5 142.5V137.5H719.5V142.5H720.5ZM720.5 132.5V127.5H719.5V132.5H720.5ZM720.5 122.5V117.5H719.5V122.5H720.5ZM720.5 112.5V107.5H719.5V112.5H720.5ZM720.5 102.5V97.5H719.5V102.5H720.5ZM720.5 92.5V87.5H719.5V92.5H720.5ZM720.5 82.5V77.5H719.5V82.5H720.5ZM720.5 72.5V67.5H719.5V72.5H720.5ZM720.5 62.5V57.5H719.5V62.5H720.5ZM720.5 52.5V47.5H719.5V52.5H720.5ZM720.5 42.5V37.5H719.5V42.5H720.5ZM720.5 32.5V27.5H719.5V32.5H720.5ZM720.5 22.5V17.5H719.5V22.5H720.5ZM720.5 12.5V7.5H719.5V12.5H720.5ZM720.5 2.5V0H719.5V2.5H720.5ZM720 -0.5H717.5V0.5H720V-0.5ZM712.5 -0.5H707.5V0.5H712.5V-0.5ZM702.5 -0.5H697.5V0.5H702.5V-0.5ZM692.5 -0.5H687.5V0.5H692.5V-0.5ZM682.5 -0.5H677.5V0.5H682.5V-0.5ZM672.5 -0.5H667.5V0.5H672.5V-0.5ZM662.5 -0.5H657.5V0.5H662.5V-0.5ZM652.5 -0.5H647.5V0.5H652.5V-0.5ZM642.5 -0.5H637.5V0.5H642.5V-0.5ZM632.5 -0.5H627.5V0.5H632.5V-0.5ZM622.5 -0.5H617.5V0.5H622.5V-0.5ZM612.5 -0.5H607.5V0.5H612.5V-0.5ZM602.5 -0.5H597.5V0.5H602.5V-0.5ZM592.5 -0.5H587.5V0.5H592.5V-0.5ZM582.5 -0.5H577.5V0.5H582.5V-0.5ZM572.5 -0.5H567.5V0.5H572.5V-0.5ZM562.5 -0.5H557.5V0.5H562.5V-0.5ZM552.5 -0.5H547.5V0.5H552.5V-0.5ZM542.5 -0.5H537.5V0.5H542.5V-0.5ZM532.5 -0.5H527.5V0.5H532.5V-0.5ZM522.5 -0.5H517.5V0.5H522.5V-0.5ZM512.5 -0.5H507.5V0.5H512.5V-0.5ZM502.5 -0.5H497.5V0.5H502.5V-0.5ZM492.5 -0.5H487.5V0.5H492.5V-0.5ZM482.5 -0.5H477.5V0.5H482.5V-0.5ZM472.5 -0.5H467.5V0.5H472.5V-0.5ZM462.5 -0.5H457.5V0.5H462.5V-0.5ZM452.5 -0.5H447.5V0.5H452.5V-0.5ZM442.5 -0.5H437.5V0.5H442.5V-0.5ZM432.5 -0.5H427.5V0.5H432.5V-0.5ZM422.5 -0.5H417.5V0.5H422.5V-0.5ZM412.5 -0.5H407.5V0.5H412.5V-0.5ZM402.5 -0.5H397.5V0.5H402.5V-0.5ZM392.5 -0.5H387.5V0.5H392.5V-0.5ZM382.5 -0.5H377.5V0.5H382.5V-0.5ZM372.5 -0.5H367.5V0.5H372.5V-0.5ZM362.5 -0.5H357.5V0.5H362.5V-0.5ZM352.5 -0.5H347.5V0.5H352.5V-0.5ZM342.5 -0.5H337.5V0.5H342.5V-0.5ZM332.5 -0.5H327.5V0.5H332.5V-0.5ZM322.5 -0.5H317.5V0.5H322.5V-0.5ZM312.5 -0.5H307.5V0.5H312.5V-0.5ZM302.5 -0.5H297.5V0.5H302.5V-0.5ZM292.5 -0.5H287.5V0.5H292.5V-0.5ZM282.5 -0.5H277.5V0.5H282.5V-0.5ZM272.5 -0.5H267.5V0.5H272.5V-0.5ZM262.5 -0.5H257.5V0.5H262.5V-0.5ZM252.5 -0.5H247.5V0.5H252.5V-0.5ZM242.5 -0.5H237.5V0.5H242.5V-0.5ZM232.5 -0.5H227.5V0.5H232.5V-0.5ZM222.5 -0.5H217.5V0.5H222.5V-0.5ZM212.5 -0.5H207.5V0.5H212.5V-0.5ZM202.5 -0.5H197.5V0.5H202.5V-0.5ZM192.5 -0.5H187.5V0.5H192.5V-0.5ZM182.5 -0.5H177.5V0.5H182.5V-0.5ZM172.5 -0.5H167.5V0.5H172.5V-0.5ZM162.5 -0.5H157.5V0.5H162.5V-0.5ZM152.5 -0.5H147.5V0.5H152.5V-0.5ZM142.5 -0.5H137.5V0.5H142.5V-0.5ZM132.5 -0.5H127.5V0.5H132.5V-0.5ZM122.5 -0.5H117.5V0.5H122.5V-0.5ZM112.5 -0.5H107.5V0.5H112.5V-0.5ZM102.5 -0.5H97.5V0.5H102.5V-0.5ZM92.5 -0.5H87.5V0.5H92.5V-0.5ZM82.5 -0.5H77.5V0.5H82.5V-0.5ZM72.5 -0.5H67.5V0.5H72.5V-0.5ZM62.5 -0.5H57.5V0.5H62.5V-0.5ZM52.5 -0.5H47.5V0.5H52.5V-0.5ZM42.5 -0.5H37.5V0.5H42.5V-0.5ZM32.5 -0.5H27.5V0.5H32.5V-0.5ZM22.5 -0.5H17.5V0.5H22.5V-0.5ZM12.5 -0.5H7.50001V0.5H12.5V-0.5ZM2.49999 -0.5H0V0.5H2.49999V-0.5ZM0 0V-1H-1V0H0ZM720 0H721V-1H720V0ZM720 160V161H721V160H720ZM0 160H-1V161H0V160ZM-1 0V2.5H1V0H-1ZM-1 7.5V12.5H1V7.5H-1ZM-1 17.5V22.5H1V17.5H-1ZM-1 27.5V32.5H1V27.5H-1ZM-1 37.5V42.5H1V37.5H-1ZM-1 47.5V52.5H1V47.5H-1ZM-1 57.5V62.5H1V57.5H-1ZM-1 67.5V72.5H1V67.5H-1ZM-1 77.5V82.5H1V77.5H-1ZM-1 87.5V92.5H1V87.5H-1ZM-1 97.5V102.5H1V97.5H-1ZM-1 107.5V112.5H1V107.5H-1ZM-1 117.5V122.5H1V117.5H-1ZM-1 127.5V132.5H1V127.5H-1ZM-1 137.5V142.5H1V137.5H-1ZM-1 147.5V152.5H1V147.5H-1ZM-1 157.5V160H1V157.5H-1ZM0 161H2.5V159H0V161ZM7.5 161H12.5V159H7.5V161ZM17.5 161H22.5V159H17.5V161ZM27.5 161H32.5V159H27.5V161ZM37.5 161H42.5V159H37.5V161ZM47.5 161H52.5V159H47.5V161ZM57.5 161H62.5V159H57.5V161ZM67.5 161H72.5V159H67.5V161ZM77.5 161H82.5V159H77.5V161ZM87.5 161H92.5V159H87.5V161ZM97.5 161H102.5V159H97.5V161ZM107.5 161H112.5V159H107.5V161ZM117.5 161H122.5V159H117.5V161ZM127.5 161H132.5V159H127.5V161ZM137.5 161H142.5V159H137.5V161ZM147.5 161H152.5V159H147.5V161ZM157.5 161H162.5V159H157.5V161ZM167.5 161H172.5V159H167.5V161ZM177.5 161H182.5V159H177.5V161ZM187.5 161H192.5V159H187.5V161ZM197.5 161H202.5V159H197.5V161ZM207.5 161H212.5V159H207.5V161ZM217.5 161H222.5V159H217.5V161ZM227.5 161H232.5V159H227.5V161ZM237.5 161H242.5V159H237.5V161ZM247.5 161H252.5V159H247.5V161ZM257.5 161H262.5V159H257.5V161ZM267.5 161H272.5V159H267.5V161ZM277.5 161H282.5V159H277.5V161ZM287.5 161H292.5V159H287.5V161ZM297.5 161H302.5V159H297.5V161ZM307.5 161H312.5V159H307.5V161ZM317.5 161H322.5V159H317.5V161ZM327.5 161H332.5V159H327.5V161ZM337.5 161H342.5V159H337.5V161ZM347.5 161H352.5V159H347.5V161ZM357.5 161H362.5V159H357.5V161ZM367.5 161H372.5V159H367.5V161ZM377.5 161H382.5V159H377.5V161ZM387.5 161H392.5V159H387.5V161ZM397.5 161H402.5V159H397.5V161ZM407.5 161H412.5V159H407.5V161ZM417.5 161H422.5V159H417.5V161ZM427.5 161H432.5V159H427.5V161ZM437.5 161H442.5V159H437.5V161ZM447.5 161H452.5V159H447.5V161ZM457.5 161H462.5V159H457.5V161ZM467.5 161H472.5V159H467.5V161ZM477.5 161H482.5V159H477.5V161ZM487.5 161H492.5V159H487.5V161ZM497.5 161H502.5V159H497.5V161ZM507.5 161H512.5V159H507.5V161ZM517.5 161H522.5V159H517.5V161ZM527.5 161H532.5V159H527.5V161ZM537.5 161H542.5V159H537.5V161ZM547.5 161H552.5V159H547.5V161ZM557.5 161H562.5V159H557.5V161ZM567.5 161H572.5V159H567.5V161ZM577.5 161H582.5V159H577.5V161ZM587.5 161H592.5V159H587.5V161ZM597.5 161H602.5V159H597.5V161ZM607.5 161H612.5V159H607.5V161ZM617.5 161H622.5V159H617.5V161ZM627.5 161H632.5V159H627.5V161ZM637.5 161H642.5V159H637.5V161ZM647.5 161H652.5V159H647.5V161ZM657.5 161H662.5V159H657.5V161ZM667.5 161H672.5V159H667.5V161ZM677.5 161H682.5V159H677.5V161ZM687.5 161H692.5V159H687.5V161ZM697.5 161H702.5V159H697.5V161ZM707.5 161H712.5V159H707.5V161ZM717.5 161H720V159H717.5V161ZM721 160V157.5H719V160H721ZM721 152.5V147.5H719V152.5H721ZM721 142.5V137.5H719V142.5H721ZM721 132.5V127.5H719V132.5H721ZM721 122.5V117.5H719V122.5H721ZM721 112.5V107.5H719V112.5H721ZM721 102.5V97.5H719V102.5H721ZM721 92.5V87.5H719V92.5H721ZM721 82.5V77.5H719V82.5H721ZM721 72.5V67.5H719V72.5H721ZM721 62.5V57.5H719V62.5H721ZM721 52.5V47.5H719V52.5H721ZM721 42.5V37.5H719V42.5H721ZM721 32.5V27.5H719V32.5H721ZM721 22.5V17.5H719V22.5H721ZM721 12.5V7.5H719V12.5H721ZM721 2.5V0H719V2.5H721ZM720 -1H717.5V1H720V-1ZM712.5 -1H707.5V1H712.5V-1ZM702.5 -1H697.5V1H702.5V-1ZM692.5 -1H687.5V1H692.5V-1ZM682.5 -1H677.5V1H682.5V-1ZM672.5 -1H667.5V1H672.5V-1ZM662.5 -1H657.5V1H662.5V-1ZM652.5 -1H647.5V1H652.5V-1ZM642.5 -1H637.5V1H642.5V-1ZM632.5 -1H627.5V1H632.5V-1ZM622.5 -1H617.5V1H622.5V-1ZM612.5 -1H607.5V1H612.5V-1ZM602.5 -1H597.5V1H602.5V-1ZM592.5 -1H587.5V1H592.5V-1ZM582.5 -1H577.5V1H582.5V-1ZM572.5 -1H567.5V1H572.5V-1ZM562.5 -1H557.5V1H562.5V-1ZM552.5 -1H547.5V1H552.5V-1ZM542.5 -1H537.5V1H542.5V-1ZM532.5 -1H527.5V1H532.5V-1ZM522.5 -1H517.5V1H522.5V-1ZM512.5 -1H507.5V1H512.5V-1ZM502.5 -1H497.5V1H502.5V-1ZM492.5 -1H487.5V1H492.5V-1ZM482.5 -1H477.5V1H482.5V-1ZM472.5 -1H467.5V1H472.5V-1ZM462.5 -1H457.5V1H462.5V-1ZM452.5 -1H447.5V1H452.5V-1ZM442.5 -1H437.5V1H442.5V-1ZM432.5 -1H427.5V1H432.5V-1ZM422.5 -1H417.5V1H422.5V-1ZM412.5 -1H407.5V1H412.5V-1ZM402.5 -1H397.5V1H402.5V-1ZM392.5 -1H387.5V1H392.5V-1ZM382.5 -1H377.5V1H382.5V-1ZM372.5 -1H367.5V1H372.5V-1ZM362.5 -1H357.5V1H362.5V-1ZM352.5 -1H347.5V1H352.5V-1ZM342.5 -1H337.5V1H342.5V-1ZM332.5 -1H327.5V1H332.5V-1ZM322.5 -1H317.5V1H322.5V-1ZM312.5 -1H307.5V1H312.5V-1ZM302.5 -1H297.5V1H302.5V-1ZM292.5 -1H287.5V1H292.5V-1ZM282.5 -1H277.5V1H282.5V-1ZM272.5 -1H267.5V1H272.5V-1ZM262.5 -1H257.5V1H262.5V-1ZM252.5 -1H247.5V1H252.5V-1ZM242.5 -1H237.5V1H242.5V-1ZM232.5 -1H227.5V1H232.5V-1ZM222.5 -1H217.5V1H222.5V-1ZM212.5 -1H207.5V1H212.5V-1ZM202.5 -1H197.5V1H202.5V-1ZM192.5 -1H187.5V1H192.5V-1ZM182.5 -1H177.5V1H182.5V-1ZM172.5 -1H167.5V1H172.5V-1ZM162.5 -1H157.5V1H162.5V-1ZM152.5 -1H147.5V1H152.5V-1ZM142.5 -1H137.5V1H142.5V-1ZM132.5 -1H127.5V1H132.5V-1ZM122.5 -1H117.5V1H122.5V-1ZM112.5 -1H107.5V1H112.5V-1ZM102.5 -1H97.5V1H102.5V-1ZM92.5 -1H87.5V1H92.5V-1ZM82.5 -1H77.5V1H82.5V-1ZM72.5 -1H67.5V1H72.5V-1ZM62.5 -1H57.5V1H62.5V-1ZM52.5 -1H47.5V1H52.5V-1ZM42.5 -1H37.5V1H42.5V-1ZM32.5 -1H27.5V1H32.5V-1ZM22.5 -1H17.5V1H22.5V-1ZM12.5 -1H7.50001V1H12.5V-1ZM2.49999 -1H0V1H2.49999V-1Z" fill="#7F20D2"/>
</svg>
