<svg width="720" height="72" viewBox="0 0 720 72" fill="none" xmlns="http://www.w3.org/2000/svg">
<path d="M0 0H720V72H0V0Z" fill="#D9BCF2"/>
<rect x="0.5" y="0.5" width="83" height="71" fill="white"/>
<path d="M27.2168 43H25.7402V30.3965H27.2168V43ZM34.5205 42.9121C34.1807 43.0996 33.7324 43.1934 33.1758 43.1934C31.5996 43.1934 30.8115 42.3145 30.8115 40.5566V35.2305H29.2646V34H30.8115V31.8027L32.2529 31.3369V34H34.5205V35.2305H32.2529V40.3018C32.2529 40.9053 32.3555 41.3359 32.5605 41.5938C32.7656 41.8516 33.1055 41.9805 33.5801 41.9805C33.9434 41.9805 34.2568 41.8809 34.5205 41.6816V42.9121ZM43.6787 38.8604H37.3242C37.3477 39.8623 37.6172 40.6357 38.1328 41.1807C38.6484 41.7256 39.3574 41.998 40.2598 41.998C41.2734 41.998 42.2051 41.6641 43.0547 40.9961V42.3496C42.2637 42.9238 41.2178 43.2109 39.917 43.2109C38.6455 43.2109 37.6465 42.8037 36.9199 41.9893C36.1934 41.1689 35.8301 40.0176 35.8301 38.5352C35.8301 37.1348 36.2256 35.9951 37.0166 35.1162C37.8135 34.2314 38.8008 33.7891 39.9785 33.7891C41.1562 33.7891 42.0674 34.1699 42.7119 34.9316C43.3564 35.6934 43.6787 36.751 43.6787 38.1045V38.8604ZM42.2021 37.6387C42.1963 36.8066 41.9941 36.1592 41.5957 35.6963C41.2031 35.2334 40.6553 35.002 39.9521 35.002C39.2725 35.002 38.6953 35.2451 38.2207 35.7314C37.7461 36.2178 37.4531 36.8535 37.3418 37.6387H42.2021ZM58.6465 43H57.2051V37.832C57.2051 36.8359 57.0498 36.1152 56.7393 35.6699C56.4346 35.2246 55.9189 35.002 55.1924 35.002C54.5771 35.002 54.0527 35.2832 53.6191 35.8457C53.1914 36.4082 52.9775 37.082 52.9775 37.8672V43H51.5361V37.6562C51.5361 35.8867 50.8535 35.002 49.4883 35.002C48.8555 35.002 48.334 35.2686 47.9238 35.8018C47.5137 36.3291 47.3086 37.0176 47.3086 37.8672V43H45.8672V34H47.3086V35.4238H47.3438C47.9824 34.334 48.9141 33.7891 50.1387 33.7891C50.7539 33.7891 51.29 33.9619 51.7471 34.3076C52.2041 34.6475 52.5176 35.0957 52.6875 35.6523C53.3555 34.4102 54.3516 33.7891 55.6758 33.7891C57.6562 33.7891 58.6465 35.0107 58.6465 37.4541V43Z" fill="black"/>
<rect x="0.5" y="0.5" width="83" height="71" stroke="black" stroke-dasharray="5 5"/>
<rect x="84.5" y="0.5" width="83" height="71" fill="white"/>
<path d="M111.217 43H109.74V30.3965H111.217V43ZM118.521 42.9121C118.181 43.0996 117.732 43.1934 117.176 43.1934C115.6 43.1934 114.812 42.3145 114.812 40.5566V35.2305H113.265V34H114.812V31.8027L116.253 31.3369V34H118.521V35.2305H116.253V40.3018C116.253 40.9053 116.355 41.3359 116.561 41.5938C116.766 41.8516 117.105 41.9805 117.58 41.9805C117.943 41.9805 118.257 41.8809 118.521 41.6816V42.9121ZM127.679 38.8604H121.324C121.348 39.8623 121.617 40.6357 122.133 41.1807C122.648 41.7256 123.357 41.998 124.26 41.998C125.273 41.998 126.205 41.6641 127.055 40.9961V42.3496C126.264 42.9238 125.218 43.2109 123.917 43.2109C122.646 43.2109 121.646 42.8037 120.92 41.9893C120.193 41.1689 119.83 40.0176 119.83 38.5352C119.83 37.1348 120.226 35.9951 121.017 35.1162C121.813 34.2314 122.801 33.7891 123.979 33.7891C125.156 33.7891 126.067 34.1699 126.712 34.9316C127.356 35.6934 127.679 36.751 127.679 38.1045V38.8604ZM126.202 37.6387C126.196 36.8066 125.994 36.1592 125.596 35.6963C125.203 35.2334 124.655 35.002 123.952 35.002C123.272 35.002 122.695 35.2451 122.221 35.7314C121.746 36.2178 121.453 36.8535 121.342 37.6387H126.202ZM142.646 43H141.205V37.832C141.205 36.8359 141.05 36.1152 140.739 35.6699C140.435 35.2246 139.919 35.002 139.192 35.002C138.577 35.002 138.053 35.2832 137.619 35.8457C137.191 36.4082 136.978 37.082 136.978 37.8672V43H135.536V37.6562C135.536 35.8867 134.854 35.002 133.488 35.002C132.855 35.002 132.334 35.2686 131.924 35.8018C131.514 36.3291 131.309 37.0176 131.309 37.8672V43H129.867V34H131.309V35.4238H131.344C131.982 34.334 132.914 33.7891 134.139 33.7891C134.754 33.7891 135.29 33.9619 135.747 34.3076C136.204 34.6475 136.518 35.0957 136.688 35.6523C137.355 34.4102 138.352 33.7891 139.676 33.7891C141.656 33.7891 142.646 35.0107 142.646 37.4541V43Z" fill="black"/>
<rect x="84.5" y="0.5" width="83" height="71" stroke="black" stroke-dasharray="5 5"/>
<rect x="168.5" y="0.5" width="83" height="71" fill="white"/>
<path d="M195.217 43H193.74V30.3965H195.217V43ZM202.521 42.9121C202.181 43.0996 201.732 43.1934 201.176 43.1934C199.6 43.1934 198.812 42.3145 198.812 40.5566V35.2305H197.265V34H198.812V31.8027L200.253 31.3369V34H202.521V35.2305H200.253V40.3018C200.253 40.9053 200.355 41.3359 200.561 41.5938C200.766 41.8516 201.105 41.9805 201.58 41.9805C201.943 41.9805 202.257 41.8809 202.521 41.6816V42.9121ZM211.679 38.8604H205.324C205.348 39.8623 205.617 40.6357 206.133 41.1807C206.648 41.7256 207.357 41.998 208.26 41.998C209.273 41.998 210.205 41.6641 211.055 40.9961V42.3496C210.264 42.9238 209.218 43.2109 207.917 43.2109C206.646 43.2109 205.646 42.8037 204.92 41.9893C204.193 41.1689 203.83 40.0176 203.83 38.5352C203.83 37.1348 204.226 35.9951 205.017 35.1162C205.813 34.2314 206.801 33.7891 207.979 33.7891C209.156 33.7891 210.067 34.1699 210.712 34.9316C211.356 35.6934 211.679 36.751 211.679 38.1045V38.8604ZM210.202 37.6387C210.196 36.8066 209.994 36.1592 209.596 35.6963C209.203 35.2334 208.655 35.002 207.952 35.002C207.272 35.002 206.695 35.2451 206.221 35.7314C205.746 36.2178 205.453 36.8535 205.342 37.6387H210.202ZM226.646 43H225.205V37.832C225.205 36.8359 225.05 36.1152 224.739 35.6699C224.435 35.2246 223.919 35.002 223.192 35.002C222.577 35.002 222.053 35.2832 221.619 35.8457C221.191 36.4082 220.978 37.082 220.978 37.8672V43H219.536V37.6562C219.536 35.8867 218.854 35.002 217.488 35.002C216.855 35.002 216.334 35.2686 215.924 35.8018C215.514 36.3291 215.309 37.0176 215.309 37.8672V43H213.867V34H215.309V35.4238H215.344C215.982 34.334 216.914 33.7891 218.139 33.7891C218.754 33.7891 219.29 33.9619 219.747 34.3076C220.204 34.6475 220.518 35.0957 220.688 35.6523C221.355 34.4102 222.352 33.7891 223.676 33.7891C225.656 33.7891 226.646 35.0107 226.646 37.4541V43Z" fill="black"/>
<rect x="168.5" y="0.5" width="83" height="71" stroke="black" stroke-dasharray="5 5"/>
<path d="M0 0V-0.5H-0.5V0H0ZM720 0H720.5V-0.5H720V0ZM720 72V72.5H720.5V72H720ZM0 72H-0.5V72.5H0V72ZM-0.5 0V2.57143H0.5V0H-0.5ZM-0.5 7.71429V12.8571H0.5V7.71429H-0.5ZM-0.5 18V23.1429H0.5V18H-0.5ZM-0.5 28.2857V33.4286H0.5V28.2857H-0.5ZM-0.5 38.5714V43.7143H0.5V38.5714H-0.5ZM-0.5 48.8571V54H0.5V48.8571H-0.5ZM-0.5 59.1429V64.2857H0.5V59.1429H-0.5ZM-0.5 69.4286V72H0.5V69.4286H-0.5ZM0 72.5H2.5V71.5H0V72.5ZM7.5 72.5H12.5V71.5H7.5V72.5ZM17.5 72.5H22.5V71.5H17.5V72.5ZM27.5 72.5H32.5V71.5H27.5V72.5ZM37.5 72.5H42.5V71.5H37.5V72.5ZM47.5 72.5H52.5V71.5H47.5V72.5ZM57.5 72.5H62.5V71.5H57.5V72.5ZM67.5 72.5H72.5V71.5H67.5V72.5ZM77.5 72.5H82.5V71.5H77.5V72.5ZM87.5 72.5H92.5V71.5H87.5V72.5ZM97.5 72.5H102.5V71.5H97.5V72.5ZM107.5 72.5H112.5V71.5H107.5V72.5ZM117.5 72.5H122.5V71.5H117.5V72.5ZM127.5 72.5H132.5V71.5H127.5V72.5ZM137.5 72.5H142.5V71.5H137.5V72.5ZM147.5 72.5H152.5V71.5H147.5V72.5ZM157.5 72.5H162.5V71.5H157.5V72.5ZM167.5 72.5H172.5V71.5H167.5V72.5ZM177.5 72.5H182.5V71.5H177.5V72.5ZM187.5 72.5H192.5V71.5H187.5V72.5ZM197.5 72.5H202.5V71.5H197.5V72.5ZM207.5 72.5H212.5V71.5H207.5V72.5ZM217.5 72.5H222.5V71.5H217.5V72.5ZM227.5 72.5H232.5V71.5H227.5V72.5ZM237.5 72.5H242.5V71.5H237.5V72.5ZM247.5 72.5H252.5V71.5H247.5V72.5ZM257.5 72.5H262.5V71.5H257.5V72.5ZM267.5 72.5H272.5V71.5H267.5V72.5ZM277.5 72.5H282.5V71.5H277.5V72.5ZM287.5 72.5H292.5V71.5H287.5V72.5ZM297.5 72.5H302.5V71.5H297.5V72.5ZM307.5 72.5H312.5V71.5H307.5V72.5ZM317.5 72.5H322.5V71.5H317.5V72.5ZM327.5 72.5H332.5V71.5H327.5V72.5ZM337.5 72.5H342.5V71.5H337.5V72.5ZM347.5 72.5H352.5V71.5H347.5V72.5ZM357.5 72.5H362.5V71.5H357.5V72.5ZM367.5 72.5H372.5V71.5H367.5V72.5ZM377.5 72.5H382.5V71.5H377.5V72.5ZM387.5 72.5H392.5V71.5H387.5V72.5ZM397.5 72.5H402.5V71.5H397.5V72.5ZM407.5 72.5H412.5V71.5H407.5V72.5ZM417.5 72.5H422.5V71.5H417.5V72.5ZM427.5 72.5H432.5V71.5H427.5V72.5ZM437.5 72.5H442.5V71.5H437.5V72.5ZM447.5 72.5H452.5V71.5H447.5V72.5ZM457.5 72.5H462.5V71.5H457.5V72.5ZM467.5 72.5H472.5V71.5H467.5V72.5ZM477.5 72.5H482.5V71.5H477.5V72.5ZM487.5 72.5H492.5V71.5H487.5V72.5ZM497.5 72.5H502.5V71.5H497.5V72.5ZM507.5 72.5H512.5V71.5H507.5V72.5ZM517.5 72.5H522.5V71.5H517.5V72.5ZM527.5 72.5H532.5V71.5H527.5V72.5ZM537.5 72.5H542.5V71.5H537.5V72.5ZM547.5 72.5H552.5V71.5H547.5V72.5ZM557.5 72.5H562.5V71.5H557.5V72.5ZM567.5 72.5H572.5V71.5H567.5V72.5ZM577.5 72.5H582.5V71.5H577.5V72.5ZM587.5 72.5H592.5V71.5H587.5V72.5ZM597.5 72.5H602.5V71.5H597.5V72.5ZM607.5 72.5H612.5V71.5H607.5V72.5ZM617.5 72.5H622.5V71.5H617.5V72.5ZM627.5 72.5H632.5V71.5H627.5V72.5ZM637.5 72.5H642.5V71.5H637.5V72.5ZM647.5 72.5H652.5V71.5H647.5V72.5ZM657.5 72.5H662.5V71.5H657.5V72.5ZM667.5 72.5H672.5V71.5H667.5V72.5ZM677.5 72.5H682.5V71.5H677.5V72.5ZM687.5 72.5H692.5V71.5H687.5V72.5ZM697.5 72.5H702.5V71.5H697.5V72.5ZM707.5 72.5H712.5V71.5H707.5V72.5ZM717.5 72.5H720V71.5H717.5V72.5ZM720.5 72V69.4286H719.5V72H720.5ZM720.5 64.2857V59.1429H719.5V64.2857H720.5ZM720.5 54V48.8571H719.5V54H720.5ZM720.5 43.7143V38.5714H719.5V43.7143H720.5ZM720.5 33.4286V28.2857H719.5V33.4286H720.5ZM720.5 23.1429V18H719.5V23.1429H720.5ZM720.5 12.8571V7.71429H719.5V12.8571H720.5ZM720.5 2.57143V0H719.5V2.57143H720.5ZM720 -0.5H717.5V0.5H720V-0.5ZM712.5 -0.5H707.5V0.5H712.5V-0.5ZM702.5 -0.5H697.5V0.5H702.5V-0.5ZM692.5 -0.5H687.5V0.5H692.5V-0.5ZM682.5 -0.5H677.5V0.5H682.5V-0.5ZM672.5 -0.5H667.5V0.5H672.5V-0.5ZM662.5 -0.5H657.5V0.5H662.5V-0.5ZM652.5 -0.5H647.5V0.5H652.5V-0.5ZM642.5 -0.5H637.5V0.5H642.5V-0.5ZM632.5 -0.5H627.5V0.5H632.5V-0.5ZM622.5 -0.5H617.5V0.5H622.5V-0.5ZM612.5 -0.5H607.5V0.5H612.5V-0.5ZM602.5 -0.5H597.5V0.5H602.5V-0.5ZM592.5 -0.5H587.5V0.5H592.5V-0.5ZM582.5 -0.5H577.5V0.5H582.5V-0.5ZM572.5 -0.5H567.5V0.5H572.5V-0.5ZM562.5 -0.5H557.5V0.5H562.5V-0.5ZM552.5 -0.5H547.5V0.5H552.5V-0.5ZM542.5 -0.5H537.5V0.5H542.5V-0.5ZM532.5 -0.5H527.5V0.5H532.5V-0.5ZM522.5 -0.5H517.5V0.5H522.5V-0.5ZM512.5 -0.5H507.5V0.5H512.5V-0.5ZM502.5 -0.5H497.5V0.5H502.5V-0.5ZM492.5 -0.5H487.5V0.5H492.5V-0.5ZM482.5 -0.5H477.5V0.5H482.5V-0.5ZM472.5 -0.5H467.5V0.5H472.5V-0.5ZM462.5 -0.5H457.5V0.5H462.5V-0.5ZM452.5 -0.5H447.5V0.5H452.5V-0.5ZM442.5 -0.5H437.5V0.5H442.5V-0.5ZM432.5 -0.5H427.5V0.5H432.5V-0.5ZM422.5 -0.5H417.5V0.5H422.5V-0.5ZM412.5 -0.5H407.5V0.5H412.5V-0.5ZM402.5 -0.5H397.5V0.5H402.5V-0.5ZM392.5 -0.5H387.5V0.5H392.5V-0.5ZM382.5 -0.5H377.5V0.5H382.5V-0.5ZM372.5 -0.5H367.5V0.5H372.5V-0.5ZM362.5 -0.5H357.5V0.5H362.5V-0.5ZM352.5 -0.5H347.5V0.5H352.5V-0.5ZM342.5 -0.5H337.5V0.5H342.5V-0.5ZM332.5 -0.5H327.5V0.5H332.5V-0.5ZM322.5 -0.5H317.5V0.5H322.5V-0.5ZM312.5 -0.5H307.5V0.5H312.5V-0.5ZM302.5 -0.5H297.5V0.5H302.5V-0.5ZM292.5 -0.5H287.5V0.5H292.5V-0.5ZM282.5 -0.5H277.5V0.5H282.5V-0.5ZM272.5 -0.5H267.5V0.5H272.5V-0.5ZM262.5 -0.5H257.5V0.5H262.5V-0.5ZM252.5 -0.5H247.5V0.5H252.5V-0.5ZM242.5 -0.5H237.5V0.5H242.5V-0.5ZM232.5 -0.5H227.5V0.5H232.5V-0.5ZM222.5 -0.5H217.5V0.5H222.5V-0.5ZM212.5 -0.5H207.5V0.5H212.5V-0.5ZM202.5 -0.5H197.5V0.5H202.5V-0.5ZM192.5 -0.5H187.5V0.5H192.5V-0.5ZM182.5 -0.5H177.5V0.5H182.5V-0.5ZM172.5 -0.5H167.5V0.5H172.5V-0.5ZM162.5 -0.5H157.5V0.5H162.5V-0.5ZM152.5 -0.5H147.5V0.5H152.5V-0.5ZM142.5 -0.5H137.5V0.5H142.5V-0.5ZM132.5 -0.5H127.5V0.5H132.5V-0.5ZM122.5 -0.5H117.5V0.5H122.5V-0.5ZM112.5 -0.5H107.5V0.5H112.5V-0.5ZM102.5 -0.5H97.5V0.5H102.5V-0.5ZM92.5 -0.5H87.5V0.5H92.5V-0.5ZM82.5 -0.5H77.5V0.5H82.5V-0.5ZM72.5 -0.5H67.5V0.5H72.5V-0.5ZM62.5 -0.5H57.5V0.5H62.5V-0.5ZM52.5 -0.5H47.5V0.5H52.5V-0.5ZM42.5 -0.5H37.5V0.5H42.5V-0.5ZM32.5 -0.5H27.5V0.5H32.5V-0.5ZM22.5 -0.5H17.5V0.5H22.5V-0.5ZM12.5 -0.5H7.50001V0.5H12.5V-0.5ZM2.49999 -0.5H0V0.5H2.49999V-0.5ZM0 0V-1H-1V0H0ZM720 0H721V-1H720V0ZM720 72V73H721V72H720ZM0 72H-1V73H0V72ZM-1 0V2.57143H1V0H-1ZM-1 7.71429V12.8571H1V7.71429H-1ZM-1 18V23.1429H1V18H-1ZM-1 28.2857V33.4286H1V28.2857H-1ZM-1 38.5714V43.7143H1V38.5714H-1ZM-1 48.8571V54H1V48.8571H-1ZM-1 59.1429V64.2857H1V59.1429H-1ZM-1 69.4286V72H1V69.4286H-1ZM0 73H2.5V71H0V73ZM7.5 73H12.5V71H7.5V73ZM17.5 73H22.5V71H17.5V73ZM27.5 73H32.5V71H27.5V73ZM37.5 73H42.5V71H37.5V73ZM47.5 73H52.5V71H47.5V73ZM57.5 73H62.5V71H57.5V73ZM67.5 73H72.5V71H67.5V73ZM77.5 73H82.5V71H77.5V73ZM87.5 73H92.5V71H87.5V73ZM97.5 73H102.5V71H97.5V73ZM107.5 73H112.5V71H107.5V73ZM117.5 73H122.5V71H117.5V73ZM127.5 73H132.5V71H127.5V73ZM137.5 73H142.5V71H137.5V73ZM147.5 73H152.5V71H147.5V73ZM157.5 73H162.5V71H157.5V73ZM167.5 73H172.5V71H167.5V73ZM177.5 73H182.5V71H177.5V73ZM187.5 73H192.5V71H187.5V73ZM197.5 73H202.5V71H197.5V73ZM207.5 73H212.5V71H207.5V73ZM217.5 73H222.5V71H217.5V73ZM227.5 73H232.5V71H227.5V73ZM237.5 73H242.5V71H237.5V73ZM247.5 73H252.5V71H247.5V73ZM257.5 73H262.5V71H257.5V73ZM267.5 73H272.5V71H267.5V73ZM277.5 73H282.5V71H277.5V73ZM287.5 73H292.5V71H287.5V73ZM297.5 73H302.5V71H297.5V73ZM307.5 73H312.5V71H307.5V73ZM317.5 73H322.5V71H317.5V73ZM327.5 73H332.5V71H327.5V73ZM337.5 73H342.5V71H337.5V73ZM347.5 73H352.5V71H347.5V73ZM357.5 73H362.5V71H357.5V73ZM367.5 73H372.5V71H367.5V73ZM377.5 73H382.5V71H377.5V73ZM387.5 73H392.5V71H387.5V73ZM397.5 73H402.5V71H397.5V73ZM407.5 73H412.5V71H407.5V73ZM417.5 73H422.5V71H417.5V73ZM427.5 73H432.5V71H427.5V73ZM437.5 73H442.5V71H437.5V73ZM447.5 73H452.5V71H447.5V73ZM457.5 73H462.5V71H457.5V73ZM467.5 73H472.5V71H467.5V73ZM477.5 73H482.5V71H477.5V73ZM487.5 73H492.5V71H487.5V73ZM497.5 73H502.5V71H497.5V73ZM507.5 73H512.5V71H507.5V73ZM517.5 73H522.5V71H517.5V73ZM527.5 73H532.5V71H527.5V73ZM537.5 73H542.5V71H537.5V73ZM547.5 73H552.5V71H547.5V73ZM557.5 73H562.5V71H557.5V73ZM567.5 73H572.5V71H567.5V73ZM577.5 73H582.5V71H577.5V73ZM587.5 73H592.5V71H587.5V73ZM597.5 73H602.5V71H597.5V73ZM607.5 73H612.5V71H607.5V73ZM617.5 73H622.5V71H617.5V73ZM627.5 73H632.5V71H627.5V73ZM637.5 73H642.5V71H637.5V73ZM647.5 73H652.5V71H647.5V73ZM657.5 73H662.5V71H657.5V73ZM667.5 73H672.5V71H667.5V73ZM677.5 73H682.5V71H677.5V73ZM687.5 73H692.5V71H687.5V73ZM697.5 73H702.5V71H697.5V73ZM707.5 73H712.5V71H707.5V73ZM717.5 73H720V71H717.5V73ZM721 72V69.4286H719V72H721ZM721 64.2857V59.1429H719V64.2857H721ZM721 54V48.8571H719V54H721ZM721 43.7143V38.5714H719V43.7143H721ZM721 33.4286V28.2857H719V33.4286H721ZM721 23.1429V18H719V23.1429H721ZM721 12.8571V7.71429H719V12.8571H721ZM721 2.57143V0H719V2.57143H721ZM720 -1H717.5V1H720V-1ZM712.5 -1H707.5V1H712.5V-1ZM702.5 -1H697.5V1H702.5V-1ZM692.5 -1H687.5V1H692.5V-1ZM682.5 -1H677.5V1H682.5V-1ZM672.5 -1H667.5V1H672.5V-1ZM662.5 -1H657.5V1H662.5V-1ZM652.5 -1H647.5V1H652.5V-1ZM642.5 -1H637.5V1H642.5V-1ZM632.5 -1H627.5V1H632.5V-1ZM622.5 -1H617.5V1H622.5V-1ZM612.5 -1H607.5V1H612.5V-1ZM602.5 -1H597.5V1H602.5V-1ZM592.5 -1H587.5V1H592.5V-1ZM582.5 -1H577.5V1H582.5V-1ZM572.5 -1H567.5V1H572.5V-1ZM562.5 -1H557.5V1H562.5V-1ZM552.5 -1H547.5V1H552.5V-1ZM542.5 -1H537.5V1H542.5V-1ZM532.5 -1H527.5V1H532.5V-1ZM522.5 -1H517.5V1H522.5V-1ZM512.5 -1H507.5V1H512.5V-1ZM502.5 -1H497.5V1H502.5V-1ZM492.5 -1H487.5V1H492.5V-1ZM482.5 -1H477.5V1H482.5V-1ZM472.5 -1H467.5V1H472.5V-1ZM462.5 -1H457.5V1H462.5V-1ZM452.5 -1H447.5V1H452.5V-1ZM442.5 -1H437.5V1H442.5V-1ZM432.5 -1H427.5V1H432.5V-1ZM422.5 -1H417.5V1H422.5V-1ZM412.5 -1H407.5V1H412.5V-1ZM402.5 -1H397.5V1H402.5V-1ZM392.5 -1H387.5V1H392.5V-1ZM382.5 -1H377.5V1H382.5V-1ZM372.5 -1H367.5V1H372.5V-1ZM362.5 -1H357.5V1H362.5V-1ZM352.5 -1H347.5V1H352.5V-1ZM342.5 -1H337.5V1H342.5V-1ZM332.5 -1H327.5V1H332.5V-1ZM322.5 -1H317.5V1H322.5V-1ZM312.5 -1H307.5V1H312.5V-1ZM302.5 -1H297.5V1H302.5V-1ZM292.5 -1H287.5V1H292.5V-1ZM282.5 -1H277.5V1H282.5V-1ZM272.5 -1H267.5V1H272.5V-1ZM262.5 -1H257.5V1H262.5V-1ZM252.5 -1H247.5V1H252.5V-1ZM242.5 -1H237.5V1H242.5V-1ZM232.5 -1H227.5V1H232.5V-1ZM222.5 -1H217.5V1H222.5V-1ZM212.5 -1H207.5V1H212.5V-1ZM202.5 -1H197.5V1H202.5V-1ZM192.5 -1H187.5V1H192.5V-1ZM182.5 -1H177.5V1H182.5V-1ZM172.5 -1H167.5V1H172.5V-1ZM162.5 -1H157.5V1H162.5V-1ZM152.5 -1H147.5V1H152.5V-1ZM142.5 -1H137.5V1H142.5V-1ZM132.5 -1H127.5V1H132.5V-1ZM122.5 -1H117.5V1H122.5V-1ZM112.5 -1H107.5V1H112.5V-1ZM102.5 -1H97.5V1H102.5V-1ZM92.5 -1H87.5V1H92.5V-1ZM82.5 -1H77.5V1H82.5V-1ZM72.5 -1H67.5V1H72.5V-1ZM62.5 -1H57.5V1H62.5V-1ZM52.5 -1H47.5V1H52.5V-1ZM42.5 -1H37.5V1H42.5V-1ZM32.5 -1H27.5V1H32.5V-1ZM22.5 -1H17.5V1H22.5V-1ZM12.5 -1H7.50001V1H12.5V-1ZM2.49999 -1H0V1H2.49999V-1Z" fill="#7F20D2"/>
</svg>
