<svg width="720" height="272" viewBox="0 0 720 272" fill="none" xmlns="http://www.w3.org/2000/svg">
<rect x="0.5" y="0.5" width="719" height="271" fill="#F8F8F8"/>
<path d="M383.008 56.3158C382.706 56.4825 382.307 56.5658 381.812 56.5658C380.411 56.5658 379.711 55.7845 379.711 54.222V49.4877H378.336V48.3939H379.711V46.4408L380.992 46.0267V48.3939H383.008V49.4877H380.992V53.9955C380.992 54.5319 381.083 54.9148 381.266 55.1439C381.448 55.3731 381.75 55.4877 382.172 55.4877C382.495 55.4877 382.773 55.3991 383.008 55.222V56.3158ZM388.062 56.5814C386.88 56.5814 385.935 56.209 385.227 55.4642C384.523 54.7142 384.172 53.722 384.172 52.4877C384.172 51.1439 384.539 50.0944 385.273 49.3392C386.008 48.584 387 48.2064 388.25 48.2064C389.443 48.2064 390.372 48.5736 391.039 49.308C391.711 50.0424 392.047 51.0606 392.047 52.3627C392.047 53.6387 391.685 54.6622 390.961 55.433C390.242 56.1986 389.276 56.5814 388.062 56.5814ZM388.156 49.2845C387.333 49.2845 386.682 49.5658 386.203 50.1283C385.724 50.6856 385.484 51.4564 385.484 52.4408C385.484 53.3887 385.727 54.1361 386.211 54.683C386.695 55.2299 387.344 55.5033 388.156 55.5033C388.984 55.5033 389.62 55.2351 390.062 54.6986C390.51 54.1622 390.734 53.3991 390.734 52.4095C390.734 51.4095 390.51 50.6387 390.062 50.097C389.62 49.5554 388.984 49.2845 388.156 49.2845ZM395.406 55.2377H395.375V60.0736H394.094V48.3939H395.375V49.8002H395.406C396.036 48.7377 396.958 48.2064 398.172 48.2064C399.203 48.2064 400.008 48.5658 400.586 49.2845C401.164 49.9981 401.453 50.9564 401.453 52.1595C401.453 53.4981 401.128 54.571 400.477 55.3783C399.826 56.1804 398.935 56.5814 397.805 56.5814C396.768 56.5814 395.969 56.1335 395.406 55.2377ZM395.375 52.0111V53.1283C395.375 53.7898 395.589 54.3523 396.016 54.8158C396.448 55.2741 396.995 55.5033 397.656 55.5033C398.432 55.5033 399.039 55.2064 399.477 54.6127C399.919 54.0189 400.141 53.1934 400.141 52.1361C400.141 51.2455 399.935 50.5476 399.523 50.0424C399.112 49.5372 398.555 49.2845 397.852 49.2845C397.107 49.2845 396.508 49.545 396.055 50.0658C395.602 50.5814 395.375 51.2299 395.375 52.0111ZM403.945 49.9564C403.706 49.9564 403.5 49.8705 403.328 49.6986C403.161 49.5267 403.078 49.321 403.078 49.0814C403.078 48.8418 403.161 48.6387 403.328 48.472C403.5 48.3054 403.706 48.222 403.945 48.222C404.19 48.222 404.398 48.3054 404.57 48.472C404.742 48.6387 404.828 48.8418 404.828 49.0814C404.828 49.321 404.742 49.5267 404.57 49.6986C404.398 49.8705 404.19 49.9564 403.945 49.9564ZM403.945 56.5658C403.706 56.5658 403.5 56.4799 403.328 56.308C403.161 56.1361 403.078 55.9304 403.078 55.6908C403.078 55.4512 403.161 55.2455 403.328 55.0736C403.5 54.8965 403.706 54.808 403.945 54.808C404.19 54.808 404.398 54.8965 404.57 55.0736C404.742 55.2455 404.828 55.4512 404.828 55.6908C404.828 55.9304 404.742 56.1361 404.57 56.308C404.398 56.4799 404.19 56.5658 403.945 56.5658Z" fill="black"/>
<path d="M415.719 56.3939H414.438V46.7142C414.339 46.8132 414.193 46.9278 414 47.058C413.812 47.183 413.599 47.308 413.359 47.433C413.125 47.558 412.875 47.6752 412.609 47.7845C412.349 47.8939 412.094 47.9799 411.844 48.0424V46.7455C412.125 46.6674 412.422 46.5632 412.734 46.433C413.052 46.2976 413.362 46.1491 413.664 45.9877C413.971 45.821 414.26 45.6491 414.531 45.472C414.802 45.2898 415.036 45.1127 415.234 44.9408H415.719V56.3939ZM426.656 50.7455C426.656 51.683 426.57 52.5137 426.398 53.2377C426.232 53.9616 425.987 54.5736 425.664 55.0736C425.346 55.5684 424.953 55.946 424.484 56.2064C424.021 56.4616 423.492 56.5892 422.898 56.5892C422.336 56.5892 421.833 56.4668 421.391 56.222C420.953 55.972 420.583 55.6101 420.281 55.1361C419.979 54.6622 419.75 54.0814 419.594 53.3939C419.438 52.7012 419.359 51.9095 419.359 51.0189C419.359 50.0398 419.44 49.1752 419.602 48.4252C419.768 47.6752 420.01 47.0476 420.328 46.5424C420.646 46.0319 421.039 45.6491 421.508 45.3939C421.982 45.1335 422.523 45.0033 423.133 45.0033C425.482 45.0033 426.656 46.9174 426.656 50.7455ZM425.344 50.8705C425.344 47.683 424.586 46.0892 423.07 46.0892C421.471 46.0892 420.672 47.7116 420.672 50.9564C420.672 53.9825 421.456 55.4955 423.023 55.4955C424.57 55.4955 425.344 53.9538 425.344 50.8705ZM435.281 50.7455C435.281 51.683 435.195 52.5137 435.023 53.2377C434.857 53.9616 434.612 54.5736 434.289 55.0736C433.971 55.5684 433.578 55.946 433.109 56.2064C432.646 56.4616 432.117 56.5892 431.523 56.5892C430.961 56.5892 430.458 56.4668 430.016 56.222C429.578 55.972 429.208 55.6101 428.906 55.1361C428.604 54.6622 428.375 54.0814 428.219 53.3939C428.062 52.7012 427.984 51.9095 427.984 51.0189C427.984 50.0398 428.065 49.1752 428.227 48.4252C428.393 47.6752 428.635 47.0476 428.953 46.5424C429.271 46.0319 429.664 45.6491 430.133 45.3939C430.607 45.1335 431.148 45.0033 431.758 45.0033C434.107 45.0033 435.281 46.9174 435.281 50.7455ZM433.969 50.8705C433.969 47.683 433.211 46.0892 431.695 46.0892C430.096 46.0892 429.297 47.7116 429.297 50.9564C429.297 53.9825 430.081 55.4955 431.648 55.4955C433.195 55.4955 433.969 53.9538 433.969 50.8705ZM438.547 55.2377H438.516V60.0736H437.234V48.3939L438.516 48.3939V49.8002H438.547C439.177 48.7377 440.099 48.2064 441.312 48.2064C442.344 48.2064 443.148 48.5658 443.727 49.2845C444.305 49.9981 444.594 50.9564 444.594 52.1595C444.594 53.4981 444.268 54.571 443.617 55.3783C442.966 56.1804 442.076 56.5814 440.945 56.5814C439.909 56.5814 439.109 56.1335 438.547 55.2377ZM438.516 52.0111V53.1283C438.516 53.7898 438.729 54.3523 439.156 54.8158C439.589 55.2741 440.135 55.5033 440.797 55.5033C441.573 55.5033 442.18 55.2064 442.617 54.6127C443.06 54.0189 443.281 53.1934 443.281 52.1361C443.281 51.2455 443.076 50.5476 442.664 50.0424C442.253 49.5372 441.695 49.2845 440.992 49.2845C440.247 49.2845 439.648 49.545 439.195 50.0658C438.742 50.5814 438.516 51.2299 438.516 52.0111ZM452.484 48.3939L449.797 52.4408L452.438 56.3939H450.945L449.375 53.8002C449.276 53.6387 449.159 53.4356 449.023 53.1908H448.992C448.966 53.2377 448.844 53.4408 448.625 53.8002L447.023 56.3939H445.547L448.273 52.472L445.664 48.3939H447.156L448.703 51.1283C448.818 51.3314 448.93 51.5398 449.039 51.7533H449.07L451.07 48.3939H452.484Z" fill="#7B61FF"/>
<path d="M373 0L370.113 5L375.887 5L373 0ZM373 100L375.887 95L370.113 95L373 100ZM372.5 4.5L372.5 95.5L373.5 95.5L373.5 4.5L372.5 4.5Z" fill="black"/>
<path d="M80.8277 175H79.5464V163.156H80.8277V175ZM89.8511 171.32H84.2027C84.2235 172.211 84.4631 172.898 84.9214 173.383C85.3798 173.867 86.01 174.109 86.8121 174.109C87.7131 174.109 88.5412 173.812 89.2964 173.219L89.2964 174.422C88.5933 174.932 87.6636 175.188 86.5074 175.188C85.3772 175.188 84.4891 174.826 83.8433 174.102C83.1975 173.372 82.8746 172.349 82.8746 171.031C82.8746 169.786 83.2261 168.773 83.9292 167.992C84.6376 167.206 85.5152 166.812 86.5621 166.812C87.6089 166.812 88.4188 167.151 88.9917 167.828C89.5647 168.505 89.8511 169.445 89.8511 170.648V171.32ZM88.5386 170.234C88.5334 169.495 88.3537 168.919 87.9996 168.508C87.6506 168.096 87.1636 167.891 86.5386 167.891C85.9345 167.891 85.4214 168.107 84.9996 168.539C84.5777 168.971 84.3173 169.536 84.2183 170.234H88.5386ZM95.7496 164.281C95.4996 164.141 95.2157 164.07 94.898 164.07C94.0022 164.07 93.5542 164.635 93.5542 165.766V167H95.4292V168.094H93.5542L93.5542 175H92.2808L92.2808 168.094H90.9136V167H92.2808V165.703C92.2808 164.865 92.523 164.203 93.0074 163.719C93.4917 163.229 94.0959 162.984 94.8199 162.984C95.2105 162.984 95.5204 163.031 95.7496 163.125V164.281ZM100.523 174.922C100.221 175.089 99.8225 175.172 99.3277 175.172C97.9266 175.172 97.2261 174.391 97.2261 172.828V168.094H95.8511V167H97.2261V165.047L98.5074 164.633V167H100.523V168.094H98.5074V172.602C98.5074 173.138 98.5985 173.521 98.7808 173.75C98.9631 173.979 99.2652 174.094 99.6871 174.094C100.01 174.094 100.289 174.005 100.523 173.828V174.922ZM102.679 168.562C102.44 168.562 102.234 168.477 102.062 168.305C101.895 168.133 101.812 167.927 101.812 167.688C101.812 167.448 101.895 167.245 102.062 167.078C102.234 166.911 102.44 166.828 102.679 166.828C102.924 166.828 103.132 166.911 103.304 167.078C103.476 167.245 103.562 167.448 103.562 167.688C103.562 167.927 103.476 168.133 103.304 168.305C103.132 168.477 102.924 168.562 102.679 168.562ZM102.679 175.172C102.44 175.172 102.234 175.086 102.062 174.914C101.895 174.742 101.812 174.536 101.812 174.297C101.812 174.057 101.895 173.852 102.062 173.68C102.234 173.503 102.44 173.414 102.679 173.414C102.924 173.414 103.132 173.503 103.304 173.68C103.476 173.852 103.562 174.057 103.562 174.297C103.562 174.536 103.476 174.742 103.304 174.914C103.132 175.086 102.924 175.172 102.679 175.172Z" fill="black"/>
<path d="M114.828 166.734C114.828 166.391 114.773 166.091 114.664 165.836C114.559 165.581 114.414 165.37 114.226 165.203C114.044 165.031 113.828 164.904 113.578 164.82C113.328 164.737 113.057 164.695 112.765 164.695C112.515 164.695 112.27 164.729 112.031 164.797C111.791 164.865 111.557 164.958 111.328 165.078C111.104 165.198 110.885 165.341 110.671 165.508C110.463 165.674 110.268 165.859 110.085 166.062V164.688C110.445 164.339 110.846 164.073 111.289 163.891C111.737 163.703 112.281 163.609 112.921 163.609C113.38 163.609 113.804 163.677 114.195 163.812C114.585 163.943 114.924 164.135 115.21 164.391C115.497 164.646 115.721 164.961 115.882 165.336C116.049 165.711 116.132 166.141 116.132 166.625C116.132 167.068 116.08 167.469 115.976 167.828C115.877 168.188 115.724 168.526 115.515 168.844C115.312 169.161 115.054 169.466 114.742 169.758C114.429 170.049 114.062 170.346 113.64 170.648C113.114 171.023 112.679 171.344 112.335 171.609C111.997 171.875 111.726 172.125 111.523 172.359C111.325 172.589 111.184 172.82 111.101 173.055C111.023 173.284 110.984 173.549 110.984 173.852H116.562V175H109.648V174.445C109.648 173.966 109.7 173.544 109.804 173.18C109.908 172.815 110.08 172.469 110.32 172.141C110.559 171.812 110.872 171.484 111.257 171.156C111.648 170.828 112.125 170.458 112.687 170.047C113.093 169.755 113.432 169.477 113.703 169.211C113.979 168.945 114.2 168.68 114.367 168.414C114.533 168.148 114.651 167.88 114.718 167.609C114.791 167.333 114.828 167.042 114.828 166.734ZM123.453 166.734C123.453 166.391 123.398 166.091 123.289 165.836C123.184 165.581 123.039 165.37 122.851 165.203C122.669 165.031 122.453 164.904 122.203 164.82C121.953 164.737 121.682 164.695 121.39 164.695C121.14 164.695 120.895 164.729 120.656 164.797C120.416 164.865 120.182 164.958 119.953 165.078C119.729 165.198 119.51 165.341 119.296 165.508C119.088 165.674 118.893 165.859 118.71 166.062V164.688C119.07 164.339 119.471 164.073 119.914 163.891C120.362 163.703 120.906 163.609 121.546 163.609C122.005 163.609 122.429 163.677 122.82 163.812C123.21 163.943 123.549 164.135 123.835 164.391C124.122 164.646 124.346 164.961 124.507 165.336C124.674 165.711 124.757 166.141 124.757 166.625C124.757 167.068 124.705 167.469 124.601 167.828C124.502 168.188 124.349 168.526 124.14 168.844C123.937 169.161 123.679 169.466 123.367 169.758C123.054 170.049 122.687 170.346 122.265 170.648C121.739 171.023 121.304 171.344 120.96 171.609C120.622 171.875 120.351 172.125 120.148 172.359C119.95 172.589 119.809 172.82 119.726 173.055C119.648 173.284 119.609 173.549 119.609 173.852H125.187V175H118.273V174.445C118.273 173.966 118.325 173.544 118.429 173.18C118.533 172.815 118.705 172.469 118.945 172.141C119.184 171.812 119.497 171.484 119.882 171.156C120.273 170.828 120.75 170.458 121.312 170.047C121.718 169.755 122.057 169.477 122.328 169.211C122.604 168.945 122.825 168.68 122.992 168.414C123.158 168.148 123.276 167.88 123.343 167.609C123.416 167.333 123.453 167.042 123.453 166.734ZM132.687 163.797V171.195H134.125V172.367H132.687V175H131.421V172.367H126.156V171.258C126.645 170.706 127.14 170.117 127.64 169.492C128.14 168.862 128.617 168.224 129.07 167.578C129.528 166.932 129.95 166.289 130.335 165.648C130.726 165.003 131.054 164.385 131.32 163.797H132.687ZM127.601 171.195H131.421V165.711C131.031 166.393 130.661 167.003 130.312 167.539C129.963 168.076 129.63 168.562 129.312 169C129 169.438 128.7 169.833 128.414 170.188C128.127 170.542 127.856 170.878 127.601 171.195ZM137.281 173.844H137.25V178.68H135.968V167H137.25V168.406H137.281C137.911 167.344 138.833 166.812 140.046 166.812C141.078 166.812 141.882 167.172 142.46 167.891C143.039 168.604 143.328 169.562 143.328 170.766C143.328 172.104 143.002 173.177 142.351 173.984C141.7 174.786 140.809 175.188 139.679 175.188C138.643 175.188 137.843 174.74 137.281 173.844ZM137.25 170.617V171.734C137.25 172.396 137.463 172.958 137.89 173.422C138.322 173.88 138.869 174.109 139.531 174.109C140.307 174.109 140.914 173.812 141.351 173.219C141.794 172.625 142.015 171.799 142.015 170.742C142.015 169.852 141.809 169.154 141.398 168.648C140.987 168.143 140.429 167.891 139.726 167.891C138.981 167.891 138.382 168.151 137.929 168.672C137.476 169.188 137.25 169.836 137.25 170.617ZM151.218 167L148.531 171.047L151.171 175H149.679L148.109 172.406C148.01 172.245 147.893 172.042 147.757 171.797H147.726C147.7 171.844 147.578 172.047 147.359 172.406L145.757 175H144.281L147.007 171.078L144.398 167H145.89L147.437 169.734C147.552 169.938 147.664 170.146 147.773 170.359H147.804L149.804 167H151.218Z" fill="#7B61FF"/>
<path d="M0 184L5 186.887L5 181.113L0 184ZM224 184L219 181.113V186.887L224 184ZM4.5 184.5L219.5 184.5V183.5L4.5 183.5V184.5Z" fill="black"/>
<rect x="224.5" y="100.5" width="319" height="144" fill="white"/>
<rect x="241.5" y="130.5" width="212" height="64" fill="#F8F8F8"/>
<path d="M255.031 146.734C255.031 146.391 254.977 146.091 254.867 145.836C254.763 145.581 254.617 145.37 254.43 145.203C254.247 145.031 254.031 144.904 253.781 144.82C253.531 144.737 253.26 144.695 252.969 144.695C252.719 144.695 252.474 144.729 252.234 144.797C251.995 144.865 251.76 144.958 251.531 145.078C251.307 145.198 251.089 145.341 250.875 145.508C250.667 145.674 250.471 145.859 250.289 146.062V144.688C250.648 144.339 251.049 144.073 251.492 143.891C251.94 143.703 252.484 143.609 253.125 143.609C253.583 143.609 254.008 143.677 254.398 143.812C254.789 143.943 255.128 144.135 255.414 144.391C255.701 144.646 255.924 144.961 256.086 145.336C256.253 145.711 256.336 146.141 256.336 146.625C256.336 147.068 256.284 147.469 256.18 147.828C256.081 148.188 255.927 148.526 255.719 148.844C255.516 149.161 255.258 149.466 254.945 149.758C254.633 150.049 254.266 150.346 253.844 150.648C253.318 151.023 252.883 151.344 252.539 151.609C252.201 151.875 251.93 152.125 251.727 152.359C251.529 152.589 251.388 152.82 251.305 153.055C251.227 153.284 251.188 153.549 251.188 153.852H256.766V155H249.852V154.445C249.852 153.966 249.904 153.544 250.008 153.18C250.112 152.815 250.284 152.469 250.523 152.141C250.763 151.812 251.076 151.484 251.461 151.156C251.852 150.828 252.328 150.458 252.891 150.047C253.297 149.755 253.635 149.477 253.906 149.211C254.182 148.945 254.404 148.68 254.57 148.414C254.737 148.148 254.854 147.88 254.922 147.609C254.995 147.333 255.031 147.042 255.031 146.734ZM263.281 155H262V145.32C261.901 145.419 261.755 145.534 261.562 145.664C261.375 145.789 261.161 145.914 260.922 146.039C260.688 146.164 260.438 146.281 260.172 146.391C259.911 146.5 259.656 146.586 259.406 146.648V145.352C259.688 145.273 259.984 145.169 260.297 145.039C260.615 144.904 260.924 144.755 261.227 144.594C261.534 144.427 261.823 144.255 262.094 144.078C262.365 143.896 262.599 143.719 262.797 143.547H263.281V155ZM273.695 151.828C273.695 152.333 273.599 152.794 273.406 153.211C273.219 153.622 272.951 153.977 272.602 154.273C272.258 154.565 271.844 154.792 271.359 154.953C270.875 155.115 270.341 155.195 269.758 155.195C268.69 155.195 267.841 154.992 267.211 154.586V153.211C267.966 153.805 268.831 154.102 269.805 154.102C270.195 154.102 270.547 154.052 270.859 153.953C271.177 153.854 271.448 153.711 271.672 153.523C271.901 153.336 272.076 153.109 272.195 152.844C272.32 152.578 272.383 152.279 272.383 151.945C272.383 150.482 271.341 149.75 269.258 149.75H268.328V148.664H269.211C271.055 148.664 271.977 147.977 271.977 146.602C271.977 145.331 271.273 144.695 269.867 144.695C269.076 144.695 268.333 144.961 267.641 145.492V144.25C268.354 143.823 269.203 143.609 270.188 143.609C270.656 143.609 271.081 143.674 271.461 143.805C271.841 143.935 272.167 144.117 272.438 144.352C272.708 144.586 272.917 144.867 273.062 145.195C273.214 145.523 273.289 145.885 273.289 146.281C273.289 147.755 272.544 148.703 271.055 149.125V149.156C271.435 149.198 271.786 149.292 272.109 149.438C272.432 149.578 272.711 149.763 272.945 149.992C273.18 150.221 273.362 150.492 273.492 150.805C273.628 151.112 273.695 151.453 273.695 151.828ZM277.484 153.844H277.453V158.68H276.172V147H277.453V148.406H277.484C278.115 147.344 279.036 146.812 280.25 146.812C281.281 146.812 282.086 147.172 282.664 147.891C283.242 148.604 283.531 149.562 283.531 150.766C283.531 152.104 283.206 153.177 282.555 153.984C281.904 154.786 281.013 155.188 279.883 155.188C278.846 155.188 278.047 154.74 277.484 153.844ZM277.453 150.617V151.734C277.453 152.396 277.667 152.958 278.094 153.422C278.526 153.88 279.073 154.109 279.734 154.109C280.51 154.109 281.117 153.812 281.555 153.219C281.997 152.625 282.219 151.799 282.219 150.742C282.219 149.852 282.013 149.154 281.602 148.648C281.19 148.143 280.633 147.891 279.93 147.891C279.185 147.891 278.586 148.151 278.133 148.672C277.68 149.188 277.453 149.836 277.453 150.617ZM291.422 147L288.734 151.047L291.375 155H289.883L288.312 152.406C288.214 152.245 288.096 152.042 287.961 151.797H287.93C287.904 151.844 287.781 152.047 287.562 152.406L285.961 155H284.484L287.211 151.078L284.602 147H286.094L287.641 149.734C287.755 149.938 287.867 150.146 287.977 150.359H288.008L290.008 147H291.422ZM302.109 146.375L299.969 146.812L301.453 148.711L300.594 149.305L299.375 147.234L298.141 149.305L297.281 148.711L298.766 146.812L296.609 146.375L296.961 145.398L299.008 146.172L298.828 143.797H299.906L299.727 146.172L301.781 145.398L302.109 146.375ZM315.062 151.445C315.062 151.992 314.974 152.495 314.797 152.953C314.62 153.411 314.375 153.807 314.062 154.141C313.75 154.474 313.378 154.734 312.945 154.922C312.513 155.104 312.044 155.195 311.539 155.195C310.977 155.195 310.471 155.078 310.023 154.844C309.581 154.609 309.203 154.273 308.891 153.836C308.583 153.393 308.349 152.854 308.188 152.219C308.026 151.583 307.945 150.867 307.945 150.07C307.945 149.096 308.052 148.214 308.266 147.422C308.484 146.625 308.792 145.945 309.188 145.383C309.589 144.815 310.07 144.378 310.633 144.07C311.195 143.763 311.823 143.609 312.516 143.609C313.286 143.609 313.906 143.716 314.375 143.93V145.141C313.797 144.844 313.188 144.695 312.547 144.695C312.047 144.695 311.596 144.807 311.195 145.031C310.794 145.255 310.451 145.573 310.164 145.984C309.878 146.391 309.656 146.883 309.5 147.461C309.349 148.039 309.273 148.682 309.273 149.391H309.305C309.82 148.458 310.672 147.992 311.859 147.992C312.349 147.992 312.789 148.076 313.18 148.242C313.576 148.409 313.911 148.646 314.188 148.953C314.469 149.255 314.685 149.617 314.836 150.039C314.987 150.461 315.062 150.93 315.062 151.445ZM313.75 151.609C313.75 151.219 313.701 150.867 313.602 150.555C313.503 150.242 313.359 149.977 313.172 149.758C312.99 149.539 312.763 149.372 312.492 149.258C312.221 149.138 311.914 149.078 311.57 149.078C311.253 149.078 310.958 149.138 310.688 149.258C310.417 149.378 310.182 149.542 309.984 149.75C309.786 149.953 309.63 150.193 309.516 150.469C309.406 150.74 309.352 151.029 309.352 151.336C309.352 151.721 309.406 152.083 309.516 152.422C309.625 152.755 309.779 153.047 309.977 153.297C310.174 153.547 310.409 153.745 310.68 153.891C310.956 154.031 311.26 154.102 311.594 154.102C311.917 154.102 312.211 154.042 312.477 153.922C312.742 153.797 312.969 153.625 313.156 153.406C313.344 153.188 313.49 152.927 313.594 152.625C313.698 152.318 313.75 151.979 313.75 151.609ZM323.273 151.578C323.273 152.125 323.18 152.62 322.992 153.062C322.805 153.505 322.536 153.885 322.188 154.203C321.844 154.521 321.427 154.766 320.938 154.938C320.448 155.109 319.904 155.195 319.305 155.195C318.263 155.195 317.49 155.039 316.984 154.727V153.367C317.745 153.857 318.523 154.102 319.32 154.102C319.727 154.102 320.091 154.042 320.414 153.922C320.742 153.802 321.021 153.635 321.25 153.422C321.479 153.208 321.654 152.951 321.773 152.648C321.898 152.346 321.961 152.016 321.961 151.656C321.961 150.927 321.716 150.357 321.227 149.945C320.737 149.529 320.026 149.32 319.094 149.32C318.943 149.32 318.784 149.323 318.617 149.328C318.451 149.333 318.284 149.341 318.117 149.352C317.951 149.357 317.786 149.365 317.625 149.375C317.469 149.385 317.326 149.398 317.195 149.414L317.578 143.797H322.758V144.953H318.688L318.461 148.242C318.628 148.232 318.805 148.224 318.992 148.219C319.18 148.208 319.346 148.203 319.492 148.203C320.086 148.203 320.617 148.281 321.086 148.438C321.555 148.594 321.951 148.818 322.273 149.109C322.602 149.396 322.849 149.75 323.016 150.172C323.188 150.589 323.273 151.057 323.273 151.578ZM326.938 153.844H326.906V158.68H325.625V147H326.906V148.406H326.938C327.568 147.344 328.49 146.812 329.703 146.812C330.734 146.812 331.539 147.172 332.117 147.891C332.695 148.604 332.984 149.562 332.984 150.766C332.984 152.104 332.659 153.177 332.008 153.984C331.357 154.786 330.466 155.188 329.336 155.188C328.299 155.188 327.5 154.74 326.938 153.844ZM326.906 150.617V151.734C326.906 152.396 327.12 152.958 327.547 153.422C327.979 153.88 328.526 154.109 329.188 154.109C329.964 154.109 330.57 153.812 331.008 153.219C331.451 152.625 331.672 151.799 331.672 150.742C331.672 149.852 331.466 149.154 331.055 148.648C330.643 148.143 330.086 147.891 329.383 147.891C328.638 147.891 328.039 148.151 327.586 148.672C327.133 149.188 326.906 149.836 326.906 150.617ZM340.875 147L338.188 151.047L340.828 155H339.336L337.766 152.406C337.667 152.245 337.549 152.042 337.414 151.797H337.383C337.357 151.844 337.234 152.047 337.016 152.406L335.414 155H333.938L336.664 151.078L334.055 147H335.547L337.094 149.734C337.208 149.938 337.32 150.146 337.43 150.359H337.461L339.461 147H340.875Z" fill="#7B61FF"/>
<rect x="241.5" y="130.5" width="212" height="64" stroke="#000000" stroke-dasharray="5 5"/>
<path d="M465.867 151.297C465.643 151.125 465.32 151.039 464.898 151.039C464.352 151.039 463.893 151.297 463.523 151.812C463.159 152.328 462.977 153.031 462.977 153.922V158H461.695V150H462.977V151.648H463.008C463.19 151.086 463.469 150.648 463.844 150.336C464.219 150.018 464.638 149.859 465.102 149.859C465.435 149.859 465.69 149.896 465.867 149.969V151.297ZM467.914 147.969C467.685 147.969 467.49 147.891 467.328 147.734C467.167 147.578 467.086 147.38 467.086 147.141C467.086 146.901 467.167 146.703 467.328 146.547C467.49 146.385 467.685 146.305 467.914 146.305C468.148 146.305 468.346 146.385 468.508 146.547C468.674 146.703 468.758 146.901 468.758 147.141C468.758 147.37 468.674 147.565 468.508 147.727C468.346 147.888 468.148 147.969 467.914 147.969ZM468.539 158H467.258V150H468.539V158ZM477.961 157.359C477.961 160.297 476.555 161.766 473.742 161.766C472.753 161.766 471.888 161.578 471.148 161.203V159.922C472.049 160.422 472.909 160.672 473.727 160.672C475.695 160.672 476.68 159.625 476.68 157.531V156.656H476.648C476.039 157.677 475.122 158.188 473.898 158.188C472.904 158.188 472.102 157.833 471.492 157.125C470.888 156.411 470.586 155.456 470.586 154.258C470.586 152.898 470.911 151.818 471.562 151.016C472.219 150.214 473.115 149.812 474.25 149.812C475.328 149.812 476.128 150.245 476.648 151.109H476.68V150H477.961V157.359ZM476.68 154.383V153.203C476.68 152.568 476.464 152.023 476.031 151.57C475.604 151.117 475.07 150.891 474.43 150.891C473.638 150.891 473.018 151.18 472.57 151.758C472.122 152.331 471.898 153.135 471.898 154.172C471.898 155.062 472.112 155.776 472.539 156.312C472.971 156.844 473.542 157.109 474.25 157.109C474.969 157.109 475.552 156.854 476 156.344C476.453 155.833 476.68 155.18 476.68 154.383ZM487.195 158H485.914V153.391C485.914 151.724 485.294 150.891 484.055 150.891C483.43 150.891 482.904 151.133 482.477 151.617C482.049 152.096 481.836 152.714 481.836 153.469V158H480.555V146.156H481.836V151.328H481.867C482.482 150.318 483.357 149.812 484.492 149.812C486.294 149.812 487.195 150.898 487.195 153.07V158ZM493.328 157.922C493.026 158.089 492.628 158.172 492.133 158.172C490.732 158.172 490.031 157.391 490.031 155.828V151.094H488.656V150H490.031V148.047L491.312 147.633V150H493.328V151.094H491.312V155.602C491.312 156.138 491.404 156.521 491.586 156.75C491.768 156.979 492.07 157.094 492.492 157.094C492.815 157.094 493.094 157.005 493.328 156.828V157.922ZM495.484 151.562C495.245 151.562 495.039 151.477 494.867 151.305C494.701 151.133 494.617 150.927 494.617 150.688C494.617 150.448 494.701 150.245 494.867 150.078C495.039 149.911 495.245 149.828 495.484 149.828C495.729 149.828 495.938 149.911 496.109 150.078C496.281 150.245 496.367 150.448 496.367 150.688C496.367 150.927 496.281 151.133 496.109 151.305C495.938 151.477 495.729 151.562 495.484 151.562ZM495.484 158.172C495.245 158.172 495.039 158.086 494.867 157.914C494.701 157.742 494.617 157.536 494.617 157.297C494.617 157.057 494.701 156.852 494.867 156.68C495.039 156.503 495.245 156.414 495.484 156.414C495.729 156.414 495.938 156.503 496.109 156.68C496.281 156.852 496.367 157.057 496.367 157.297C496.367 157.536 496.281 157.742 496.109 157.914C495.938 158.086 495.729 158.172 495.484 158.172Z" fill="black"/>
<path d="M509.445 151.727C509.445 152.753 509.344 153.667 509.141 154.469C508.938 155.266 508.641 155.943 508.25 156.5C507.859 157.052 507.383 157.474 506.82 157.766C506.258 158.052 505.617 158.195 504.898 158.195C504.159 158.195 503.508 158.065 502.945 157.805V156.578C503.565 156.927 504.227 157.102 504.93 157.102C505.435 157.102 505.885 156.997 506.281 156.789C506.682 156.581 507.021 156.279 507.297 155.883C507.573 155.482 507.784 154.99 507.93 154.406C508.076 153.823 508.148 153.154 508.148 152.398H508.117C507.638 153.362 506.805 153.844 505.617 153.844C505.138 153.844 504.698 153.76 504.297 153.594C503.896 153.422 503.549 153.182 503.258 152.875C502.966 152.562 502.74 152.193 502.578 151.766C502.417 151.339 502.336 150.867 502.336 150.352C502.336 149.799 502.424 149.294 502.602 148.836C502.784 148.378 503.034 147.984 503.352 147.656C503.674 147.323 504.055 147.065 504.492 146.883C504.935 146.701 505.417 146.609 505.938 146.609C506.5 146.609 506.997 146.724 507.43 146.953C507.867 147.177 508.234 147.508 508.531 147.945C508.828 148.378 509.055 148.911 509.211 149.547C509.367 150.182 509.445 150.909 509.445 151.727ZM508.062 150.578C508.062 150.146 508.005 149.753 507.891 149.398C507.781 149.044 507.628 148.742 507.43 148.492C507.232 148.237 506.995 148.042 506.719 147.906C506.448 147.766 506.151 147.695 505.828 147.695C505.521 147.695 505.234 147.758 504.969 147.883C504.703 148.003 504.471 148.174 504.273 148.398C504.081 148.617 503.927 148.88 503.812 149.188C503.703 149.49 503.648 149.82 503.648 150.18C503.648 150.576 503.701 150.93 503.805 151.242C503.914 151.555 504.068 151.82 504.266 152.039C504.464 152.253 504.701 152.417 504.977 152.531C505.258 152.646 505.568 152.703 505.906 152.703C506.203 152.703 506.482 152.648 506.742 152.539C507.008 152.424 507.237 152.273 507.43 152.086C507.628 151.893 507.781 151.669 507.891 151.414C508.005 151.154 508.062 150.875 508.062 150.578ZM518.195 152.352C518.195 153.289 518.109 154.12 517.938 154.844C517.771 155.568 517.526 156.18 517.203 156.68C516.885 157.174 516.492 157.552 516.023 157.812C515.56 158.068 515.031 158.195 514.438 158.195C513.875 158.195 513.372 158.073 512.93 157.828C512.492 157.578 512.122 157.216 511.82 156.742C511.518 156.268 511.289 155.688 511.133 155C510.977 154.307 510.898 153.516 510.898 152.625C510.898 151.646 510.979 150.781 511.141 150.031C511.307 149.281 511.549 148.654 511.867 148.148C512.185 147.638 512.578 147.255 513.047 147C513.521 146.74 514.062 146.609 514.672 146.609C517.021 146.609 518.195 148.523 518.195 152.352ZM516.883 152.477C516.883 149.289 516.125 147.695 514.609 147.695C513.01 147.695 512.211 149.318 512.211 152.562C512.211 155.589 512.995 157.102 514.562 157.102C516.109 157.102 516.883 155.56 516.883 152.477ZM521.461 156.844H521.43V161.68H520.148V150H521.43V151.406H521.461C522.091 150.344 523.013 149.812 524.227 149.812C525.258 149.812 526.062 150.172 526.641 150.891C527.219 151.604 527.508 152.562 527.508 153.766C527.508 155.104 527.182 156.177 526.531 156.984C525.88 157.786 524.99 158.188 523.859 158.188C522.823 158.188 522.023 157.74 521.461 156.844ZM521.43 153.617V154.734C521.43 155.396 521.643 155.958 522.07 156.422C522.503 156.88 523.049 157.109 523.711 157.109C524.487 157.109 525.094 156.812 525.531 156.219C525.974 155.625 526.195 154.799 526.195 153.742C526.195 152.852 525.99 152.154 525.578 151.648C525.167 151.143 524.609 150.891 523.906 150.891C523.161 150.891 522.562 151.151 522.109 151.672C521.656 152.188 521.43 152.836 521.43 153.617ZM535.398 150L532.711 154.047L535.352 158H533.859L532.289 155.406C532.19 155.245 532.073 155.042 531.938 154.797H531.906C531.88 154.844 531.758 155.047 531.539 155.406L529.938 158H528.461L531.188 154.078L528.578 150H530.07L531.617 152.734C531.732 152.938 531.844 153.146 531.953 153.359H531.984L533.984 150H535.398Z" fill="#7B61FF"/>
<path d="M454 169L459 171.887L459 166.113L454 169ZM543 169L538 166.113L538 171.887L543 169ZM458.5 169.5L538.5 169.5L538.5 168.5L458.5 168.5L458.5 169.5Z" fill="black"/>
<path d="M355.609 224.844H355.578V226H354.297V214.156H355.578V219.406H355.609C356.24 218.344 357.161 217.812 358.375 217.812C359.401 217.812 360.203 218.172 360.781 218.891C361.365 219.604 361.656 220.562 361.656 221.766C361.656 223.104 361.331 224.177 360.68 224.984C360.029 225.786 359.138 226.188 358.008 226.188C356.951 226.188 356.151 225.74 355.609 224.844ZM355.578 221.617V222.734C355.578 223.396 355.792 223.958 356.219 224.422C356.651 224.88 357.198 225.109 357.859 225.109C358.635 225.109 359.242 224.812 359.68 224.219C360.122 223.625 360.344 222.799 360.344 221.742C360.344 220.852 360.138 220.154 359.727 219.648C359.315 219.143 358.758 218.891 358.055 218.891C357.31 218.891 356.711 219.151 356.258 219.672C355.805 220.188 355.578 220.836 355.578 221.617ZM367.047 226.188C365.865 226.188 364.919 225.815 364.211 225.07C363.508 224.32 363.156 223.328 363.156 222.094C363.156 220.75 363.523 219.701 364.258 218.945C364.992 218.19 365.984 217.812 367.234 217.812C368.427 217.812 369.357 218.18 370.023 218.914C370.695 219.648 371.031 220.667 371.031 221.969C371.031 223.245 370.669 224.268 369.945 225.039C369.227 225.805 368.26 226.188 367.047 226.188ZM367.141 218.891C366.318 218.891 365.667 219.172 365.188 219.734C364.708 220.292 364.469 221.062 364.469 222.047C364.469 222.995 364.711 223.742 365.195 224.289C365.68 224.836 366.328 225.109 367.141 225.109C367.969 225.109 368.604 224.841 369.047 224.305C369.495 223.768 369.719 223.005 369.719 222.016C369.719 221.016 369.495 220.245 369.047 219.703C368.604 219.161 367.969 218.891 367.141 218.891ZM376.789 225.922C376.487 226.089 376.089 226.172 375.594 226.172C374.193 226.172 373.492 225.391 373.492 223.828V219.094H372.117V218H373.492V216.047L374.773 215.633V218H376.789V219.094H374.773V223.602C374.773 224.138 374.865 224.521 375.047 224.75C375.229 224.979 375.531 225.094 375.953 225.094C376.276 225.094 376.555 225.005 376.789 224.828V225.922ZM382.211 225.922C381.909 226.089 381.51 226.172 381.016 226.172C379.615 226.172 378.914 225.391 378.914 223.828V219.094H377.539V218H378.914V216.047L380.195 215.633V218H382.211V219.094H380.195V223.602C380.195 224.138 380.286 224.521 380.469 224.75C380.651 224.979 380.953 225.094 381.375 225.094C381.698 225.094 381.977 225.005 382.211 224.828V225.922ZM387.266 226.188C386.083 226.188 385.138 225.815 384.43 225.07C383.727 224.32 383.375 223.328 383.375 222.094C383.375 220.75 383.742 219.701 384.477 218.945C385.211 218.19 386.203 217.812 387.453 217.812C388.646 217.812 389.576 218.18 390.242 218.914C390.914 219.648 391.25 220.667 391.25 221.969C391.25 223.245 390.888 224.268 390.164 225.039C389.445 225.805 388.479 226.188 387.266 226.188ZM387.359 218.891C386.536 218.891 385.885 219.172 385.406 219.734C384.927 220.292 384.688 221.062 384.688 222.047C384.688 222.995 384.93 223.742 385.414 224.289C385.898 224.836 386.547 225.109 387.359 225.109C388.188 225.109 388.823 224.841 389.266 224.305C389.714 223.768 389.938 223.005 389.938 222.016C389.938 221.016 389.714 220.245 389.266 219.703C388.823 219.161 388.188 218.891 387.359 218.891ZM404.656 226H403.375V221.406C403.375 220.521 403.237 219.88 402.961 219.484C402.69 219.089 402.232 218.891 401.586 218.891C401.039 218.891 400.573 219.141 400.188 219.641C399.807 220.141 399.617 220.74 399.617 221.438V226H398.336V221.25C398.336 219.677 397.729 218.891 396.516 218.891C395.953 218.891 395.49 219.128 395.125 219.602C394.76 220.07 394.578 220.682 394.578 221.438V226H393.297V218H394.578V219.266H394.609C395.177 218.297 396.005 217.812 397.094 217.812C397.641 217.812 398.117 217.966 398.523 218.273C398.93 218.576 399.208 218.974 399.359 219.469C399.953 218.365 400.839 217.812 402.016 217.812C403.776 217.812 404.656 218.898 404.656 221.07V226ZM407.523 219.562C407.284 219.562 407.078 219.477 406.906 219.305C406.74 219.133 406.656 218.927 406.656 218.688C406.656 218.448 406.74 218.245 406.906 218.078C407.078 217.911 407.284 217.828 407.523 217.828C407.768 217.828 407.977 217.911 408.148 218.078C408.32 218.245 408.406 218.448 408.406 218.688C408.406 218.927 408.32 219.133 408.148 219.305C407.977 219.477 407.768 219.562 407.523 219.562ZM407.523 226.172C407.284 226.172 407.078 226.086 406.906 225.914C406.74 225.742 406.656 225.536 406.656 225.297C406.656 225.057 406.74 224.852 406.906 224.68C407.078 224.503 407.284 224.414 407.523 224.414C407.768 224.414 407.977 224.503 408.148 224.68C408.32 224.852 408.406 225.057 408.406 225.297C408.406 225.536 408.32 225.742 408.148 225.914C407.977 226.086 407.768 226.172 407.523 226.172Z" fill="black"/>
<path d="M421.211 222.578C421.211 223.125 421.117 223.62 420.93 224.062C420.742 224.505 420.474 224.885 420.125 225.203C419.781 225.521 419.365 225.766 418.875 225.938C418.385 226.109 417.841 226.195 417.242 226.195C416.201 226.195 415.427 226.039 414.922 225.727V224.367C415.682 224.857 416.461 225.102 417.258 225.102C417.664 225.102 418.029 225.042 418.352 224.922C418.68 224.802 418.958 224.635 419.188 224.422C419.417 224.208 419.591 223.951 419.711 223.648C419.836 223.346 419.898 223.016 419.898 222.656C419.898 221.927 419.654 221.357 419.164 220.945C418.674 220.529 417.964 220.32 417.031 220.32C416.88 220.32 416.721 220.323 416.555 220.328C416.388 220.333 416.221 220.341 416.055 220.352C415.888 220.357 415.724 220.365 415.562 220.375C415.406 220.385 415.263 220.398 415.133 220.414L415.516 214.797H420.695V215.953H416.625L416.398 219.242C416.565 219.232 416.742 219.224 416.93 219.219C417.117 219.208 417.284 219.203 417.43 219.203C418.023 219.203 418.555 219.281 419.023 219.438C419.492 219.594 419.888 219.818 420.211 220.109C420.539 220.396 420.786 220.75 420.953 221.172C421.125 221.589 421.211 222.057 421.211 222.578ZM430.234 220.352C430.234 221.289 430.148 222.12 429.977 222.844C429.81 223.568 429.565 224.18 429.242 224.68C428.924 225.174 428.531 225.552 428.062 225.812C427.599 226.068 427.07 226.195 426.477 226.195C425.914 226.195 425.411 226.073 424.969 225.828C424.531 225.578 424.161 225.216 423.859 224.742C423.557 224.268 423.328 223.688 423.172 223C423.016 222.307 422.938 221.516 422.938 220.625C422.938 219.646 423.018 218.781 423.18 218.031C423.346 217.281 423.589 216.654 423.906 216.148C424.224 215.638 424.617 215.255 425.086 215C425.56 214.74 426.102 214.609 426.711 214.609C429.06 214.609 430.234 216.523 430.234 220.352ZM428.922 220.477C428.922 217.289 428.164 215.695 426.648 215.695C425.049 215.695 424.25 217.318 424.25 220.562C424.25 223.589 425.034 225.102 426.602 225.102C428.148 225.102 428.922 223.56 428.922 220.477ZM433.5 224.844H433.469V229.68H432.188V218H433.469V219.406H433.5C434.13 218.344 435.052 217.812 436.266 217.812C437.297 217.812 438.102 218.172 438.68 218.891C439.258 219.604 439.547 220.562 439.547 221.766C439.547 223.104 439.221 224.177 438.57 224.984C437.919 225.786 437.029 226.188 435.898 226.188C434.862 226.188 434.062 225.74 433.5 224.844ZM433.469 221.617V222.734C433.469 223.396 433.682 223.958 434.109 224.422C434.542 224.88 435.089 225.109 435.75 225.109C436.526 225.109 437.133 224.812 437.57 224.219C438.013 223.625 438.234 222.799 438.234 221.742C438.234 220.852 438.029 220.154 437.617 219.648C437.206 219.143 436.648 218.891 435.945 218.891C435.201 218.891 434.602 219.151 434.148 219.672C433.695 220.188 433.469 220.836 433.469 221.617ZM447.438 218L444.75 222.047L447.391 226H445.898L444.328 223.406C444.229 223.245 444.112 223.042 443.977 222.797H443.945C443.919 222.844 443.797 223.047 443.578 223.406L441.977 226H440.5L443.227 222.078L440.617 218H442.109L443.656 220.734C443.771 220.938 443.883 221.146 443.992 221.359H444.023L446.023 218L447.438 218Z" fill="#7B61FF"/>
<path d="M348 195L345.113 200L350.887 200L348 195ZM348 244L350.887 239L345.113 239L348 244ZM347.5 199.5L347.5 239.5L348.5 239.5L348.5 199.5L347.5 199.5Z" fill="black"/>
<path d="M239.445 121.828C239.445 122.333 239.349 122.794 239.156 123.211C238.969 123.622 238.701 123.977 238.352 124.273C238.008 124.565 237.594 124.792 237.109 124.953C236.625 125.115 236.091 125.195 235.508 125.195C234.44 125.195 233.591 124.992 232.961 124.586V123.211C233.716 123.805 234.581 124.102 235.555 124.102C235.945 124.102 236.297 124.052 236.609 123.953C236.927 123.854 237.198 123.711 237.422 123.523C237.651 123.336 237.826 123.109 237.945 122.844C238.07 122.578 238.133 122.279 238.133 121.945C238.133 120.482 237.091 119.75 235.008 119.75H234.078V118.664H234.961C236.805 118.664 237.727 117.977 237.727 116.602C237.727 115.331 237.023 114.695 235.617 114.695C234.826 114.695 234.083 114.961 233.391 115.492V114.25C234.104 113.823 234.953 113.609 235.938 113.609C236.406 113.609 236.831 113.674 237.211 113.805C237.591 113.935 237.917 114.117 238.188 114.352C238.458 114.586 238.667 114.867 238.812 115.195C238.964 115.523 239.039 115.885 239.039 116.281C239.039 117.755 238.294 118.703 236.805 119.125V119.156C237.185 119.198 237.536 119.292 237.859 119.438C238.182 119.578 238.461 119.763 238.695 119.992C238.93 120.221 239.112 120.492 239.242 120.805C239.378 121.112 239.445 121.453 239.445 121.828ZM246.656 116.734C246.656 116.391 246.602 116.091 246.492 115.836C246.388 115.581 246.242 115.37 246.055 115.203C245.872 115.031 245.656 114.904 245.406 114.82C245.156 114.737 244.885 114.695 244.594 114.695C244.344 114.695 244.099 114.729 243.859 114.797C243.62 114.865 243.385 114.958 243.156 115.078C242.932 115.198 242.714 115.341 242.5 115.508C242.292 115.674 242.096 115.859 241.914 116.062V114.688C242.273 114.339 242.674 114.073 243.117 113.891C243.565 113.703 244.109 113.609 244.75 113.609C245.208 113.609 245.633 113.677 246.023 113.812C246.414 113.943 246.753 114.135 247.039 114.391C247.326 114.646 247.549 114.961 247.711 115.336C247.878 115.711 247.961 116.141 247.961 116.625C247.961 117.068 247.909 117.469 247.805 117.828C247.706 118.188 247.552 118.526 247.344 118.844C247.141 119.161 246.883 119.466 246.57 119.758C246.258 120.049 245.891 120.346 245.469 120.648C244.943 121.023 244.508 121.344 244.164 121.609C243.826 121.875 243.555 122.125 243.352 122.359C243.154 122.589 243.013 122.82 242.93 123.055C242.852 123.284 242.812 123.549 242.812 123.852H248.391V125H241.477V124.445C241.477 123.966 241.529 123.544 241.633 123.18C241.737 122.815 241.909 122.469 242.148 122.141C242.388 121.812 242.701 121.484 243.086 121.156C243.477 120.828 243.953 120.458 244.516 120.047C244.922 119.755 245.26 119.477 245.531 119.211C245.807 118.945 246.029 118.68 246.195 118.414C246.362 118.148 246.479 117.88 246.547 117.609C246.62 117.333 246.656 117.042 246.656 116.734ZM257.219 119.352C257.219 120.289 257.133 121.12 256.961 121.844C256.794 122.568 256.549 123.18 256.227 123.68C255.909 124.174 255.516 124.552 255.047 124.812C254.583 125.068 254.055 125.195 253.461 125.195C252.898 125.195 252.396 125.073 251.953 124.828C251.516 124.578 251.146 124.216 250.844 123.742C250.542 123.268 250.312 122.688 250.156 122C250 121.307 249.922 120.516 249.922 119.625C249.922 118.646 250.003 117.781 250.164 117.031C250.331 116.281 250.573 115.654 250.891 115.148C251.208 114.638 251.602 114.255 252.07 114C252.544 113.74 253.086 113.609 253.695 113.609C256.044 113.609 257.219 115.523 257.219 119.352ZM255.906 119.477C255.906 116.289 255.148 114.695 253.633 114.695C252.034 114.695 251.234 116.318 251.234 119.562C251.234 122.589 252.018 124.102 253.586 124.102C255.133 124.102 255.906 122.56 255.906 119.477ZM260.484 123.844H260.453V128.68H259.172V117H260.453V118.406H260.484C261.115 117.344 262.036 116.812 263.25 116.812C264.281 116.812 265.086 117.172 265.664 117.891C266.242 118.604 266.531 119.562 266.531 120.766C266.531 122.104 266.206 123.177 265.555 123.984C264.904 124.786 264.013 125.188 262.883 125.188C261.846 125.188 261.047 124.74 260.484 123.844ZM260.453 120.617V121.734C260.453 122.396 260.667 122.958 261.094 123.422C261.526 123.88 262.073 124.109 262.734 124.109C263.51 124.109 264.117 123.812 264.555 123.219C264.997 122.625 265.219 121.799 265.219 120.742C265.219 119.852 265.013 119.154 264.602 118.648C264.19 118.143 263.633 117.891 262.93 117.891C262.185 117.891 261.586 118.151 261.133 118.672C260.68 119.188 260.453 119.836 260.453 120.617ZM274.422 117L271.734 121.047L274.375 125H272.883L271.312 122.406C271.214 122.245 271.096 122.042 270.961 121.797H270.93C270.904 121.844 270.781 122.047 270.562 122.406L268.961 125H267.484L270.211 121.078L267.602 117H269.094L270.641 119.734C270.755 119.938 270.867 120.146 270.977 120.359H271.008L273.008 117H274.422ZM285.109 116.375L282.969 116.812L284.453 118.711L283.594 119.305L282.375 117.234L281.141 119.305L280.281 118.711L281.766 116.812L279.609 116.375L279.961 115.398L282.008 116.172L281.828 113.797H282.906L282.727 116.172L284.781 115.398L285.109 116.375ZM295.734 125H294.453V115.32C294.354 115.419 294.208 115.534 294.016 115.664C293.828 115.789 293.615 115.914 293.375 116.039C293.141 116.164 292.891 116.281 292.625 116.391C292.365 116.5 292.109 116.586 291.859 116.648V115.352C292.141 115.273 292.438 115.169 292.75 115.039C293.068 114.904 293.378 114.755 293.68 114.594C293.987 114.427 294.276 114.255 294.547 114.078C294.818 113.896 295.052 113.719 295.25 113.547H295.734V125ZM305.344 113.797V121.195H306.781V122.367H305.344V125H304.078V122.367H298.812V121.258C299.302 120.706 299.797 120.117 300.297 119.492C300.797 118.862 301.273 118.224 301.727 117.578C302.185 116.932 302.607 116.289 302.992 115.648C303.383 115.003 303.711 114.385 303.977 113.797H305.344ZM300.258 121.195H304.078V115.711C303.688 116.393 303.318 117.003 302.969 117.539C302.62 118.076 302.286 118.562 301.969 119C301.656 119.438 301.357 119.833 301.07 120.188C300.784 120.542 300.513 120.878 300.258 121.195ZM314.898 121.578C314.898 122.125 314.805 122.62 314.617 123.062C314.43 123.505 314.161 123.885 313.812 124.203C313.469 124.521 313.052 124.766 312.562 124.938C312.073 125.109 311.529 125.195 310.93 125.195C309.888 125.195 309.115 125.039 308.609 124.727V123.367C309.37 123.857 310.148 124.102 310.945 124.102C311.352 124.102 311.716 124.042 312.039 123.922C312.367 123.802 312.646 123.635 312.875 123.422C313.104 123.208 313.279 122.951 313.398 122.648C313.523 122.346 313.586 122.016 313.586 121.656C313.586 120.927 313.341 120.357 312.852 119.945C312.362 119.529 311.651 119.32 310.719 119.32C310.568 119.32 310.409 119.323 310.242 119.328C310.076 119.333 309.909 119.341 309.742 119.352C309.576 119.357 309.411 119.365 309.25 119.375C309.094 119.385 308.951 119.398 308.82 119.414L309.203 113.797H314.383V114.953H310.312L310.086 118.242C310.253 118.232 310.43 118.224 310.617 118.219C310.805 118.208 310.971 118.203 311.117 118.203C311.711 118.203 312.242 118.281 312.711 118.438C313.18 118.594 313.576 118.818 313.898 119.109C314.227 119.396 314.474 119.75 314.641 120.172C314.812 120.589 314.898 121.057 314.898 121.578ZM318.562 123.844H318.531V128.68H317.25V117H318.531V118.406H318.562C319.193 117.344 320.115 116.812 321.328 116.812C322.359 116.812 323.164 117.172 323.742 117.891C324.32 118.604 324.609 119.562 324.609 120.766C324.609 122.104 324.284 123.177 323.633 123.984C322.982 124.786 322.091 125.188 320.961 125.188C319.924 125.188 319.125 124.74 318.562 123.844ZM318.531 120.617V121.734C318.531 122.396 318.745 122.958 319.172 123.422C319.604 123.88 320.151 124.109 320.812 124.109C321.589 124.109 322.195 123.812 322.633 123.219C323.076 122.625 323.297 121.799 323.297 120.742C323.297 119.852 323.091 119.154 322.68 118.648C322.268 118.143 321.711 117.891 321.008 117.891C320.263 117.891 319.664 118.151 319.211 118.672C318.758 119.188 318.531 119.836 318.531 120.617ZM332.5 117L329.812 121.047L332.453 125H330.961L329.391 122.406C329.292 122.245 329.174 122.042 329.039 121.797H329.008C328.982 121.844 328.859 122.047 328.641 122.406L327.039 125H325.562L328.289 121.078L325.68 117H327.172L328.719 119.734C328.833 119.938 328.945 120.146 329.055 120.359H329.086L331.086 117H332.5Z" fill="#7B61FF"/>
<rect x="224.5" y="100.5" width="319" height="144" stroke="#000000" stroke-dasharray="5 5"/>
<path d="M14.8906 13.5391C14.7188 13.8359 14.5104 14.2057 14.2656 14.6484C14.026 15.0911 13.7708 15.5885 13.5 16.1406C13.2292 16.6927 12.9531 17.2865 12.6719 17.9219C12.3906 18.5573 12.1276 19.2135 11.8828 19.8906C11.638 20.5677 11.4219 21.2552 11.2344 21.9531C11.0521 22.6458 10.9193 23.3281 10.8359 24H9.46094C9.55469 23.3333 9.69792 22.6536 9.89062 21.9609C10.0885 21.263 10.3099 20.5807 10.5547 19.9141C10.8047 19.2422 11.0677 18.5964 11.3438 17.9766C11.6198 17.3568 11.888 16.7865 12.1484 16.2656C12.4089 15.7448 12.6458 15.2865 12.8594 14.8906C13.0781 14.4896 13.2526 14.1771 13.3828 13.9531H7.76562V12.7969H14.8906V13.5391ZM21.6562 15.7344C21.6562 15.3906 21.6016 15.0911 21.4922 14.8359C21.388 14.5807 21.2422 14.3698 21.0547 14.2031C20.8724 14.0312 20.6562 13.9036 20.4062 13.8203C20.1562 13.737 19.8854 13.6953 19.5938 13.6953C19.3438 13.6953 19.099 13.7292 18.8594 13.7969C18.6198 13.8646 18.3854 13.9583 18.1562 14.0781C17.9323 14.1979 17.7135 14.3411 17.5 14.5078C17.2917 14.6745 17.0964 14.8594 16.9141 15.0625V13.6875C17.2734 13.3385 17.6745 13.0729 18.1172 12.8906C18.5651 12.7031 19.1094 12.6094 19.75 12.6094C20.2083 12.6094 20.6328 12.6771 21.0234 12.8125C21.4141 12.9427 21.7526 13.1354 22.0391 13.3906C22.3255 13.6458 22.5495 13.9609 22.7109 14.3359C22.8776 14.7109 22.9609 15.1406 22.9609 15.625C22.9609 16.0677 22.9089 16.4688 22.8047 16.8281C22.7057 17.1875 22.5521 17.526 22.3438 17.8438C22.1406 18.1615 21.8828 18.4661 21.5703 18.7578C21.2578 19.0495 20.8906 19.3464 20.4688 19.6484C19.9427 20.0234 19.5078 20.3438 19.1641 20.6094C18.8255 20.875 18.5547 21.125 18.3516 21.3594C18.1536 21.5885 18.013 21.8203 17.9297 22.0547C17.8516 22.2839 17.8125 22.5495 17.8125 22.8516H23.3906V24H16.4766V23.4453C16.4766 22.9661 16.5286 22.5443 16.6328 22.1797C16.737 21.8151 16.9089 21.4688 17.1484 21.1406C17.388 20.8125 17.7005 20.4844 18.0859 20.1562C18.4766 19.8281 18.9531 19.4583 19.5156 19.0469C19.9219 18.7552 20.2604 18.4766 20.5312 18.2109C20.8073 17.9453 21.0286 17.6797 21.1953 17.4141C21.362 17.1484 21.4792 16.8802 21.5469 16.6094C21.6198 16.3333 21.6562 16.0417 21.6562 15.7344ZM32.2188 18.3516C32.2188 19.2891 32.1328 20.1198 31.9609 20.8438C31.7943 21.5677 31.5495 22.1797 31.2266 22.6797C30.9089 23.1745 30.5156 23.5521 30.0469 23.8125C29.5833 24.0677 29.0547 24.1953 28.4609 24.1953C27.8984 24.1953 27.3958 24.0729 26.9531 23.8281C26.5156 23.5781 26.1458 23.2161 25.8438 22.7422C25.5417 22.2682 25.3125 21.6875 25.1562 21C25 20.3073 24.9219 19.5156 24.9219 18.625C24.9219 17.6458 25.0026 16.7812 25.1641 16.0312C25.3307 15.2812 25.5729 14.6536 25.8906 14.1484C26.2083 13.638 26.6016 13.2552 27.0703 13C27.5443 12.7396 28.0859 12.6094 28.6953 12.6094C31.0443 12.6094 32.2188 14.5234 32.2188 18.3516ZM30.9062 18.4766C30.9062 15.2891 30.1484 13.6953 28.6328 13.6953C27.0339 13.6953 26.2344 15.3177 26.2344 18.5625C26.2344 21.5885 27.0182 23.1016 28.5859 23.1016C30.1328 23.1016 30.9062 21.5599 30.9062 18.4766ZM35.4844 22.8438H35.4531V27.6797H34.1719V16H35.4531V17.4062H35.4844C36.1146 16.3438 37.0365 15.8125 38.25 15.8125C39.2812 15.8125 40.0859 16.1719 40.6641 16.8906C41.2422 17.6042 41.5312 18.5625 41.5312 19.7656C41.5312 21.1042 41.2057 22.1771 40.5547 22.9844C39.9036 23.7865 39.013 24.1875 37.8828 24.1875C36.8464 24.1875 36.0469 23.7396 35.4844 22.8438ZM35.4531 19.6172V20.7344C35.4531 21.3958 35.6667 21.9583 36.0938 22.4219C36.526 22.8802 37.0729 23.1094 37.7344 23.1094C38.5104 23.1094 39.1172 22.8125 39.5547 22.2188C39.9974 21.625 40.2188 20.7995 40.2188 19.7422C40.2188 18.8516 40.013 18.1536 39.6016 17.6484C39.1901 17.1432 38.6328 16.8906 37.9297 16.8906C37.1849 16.8906 36.5859 17.151 36.1328 17.6719C35.6797 18.1875 35.4531 18.8359 35.4531 19.6172ZM49.4219 16L46.7344 20.0469L49.375 24H47.8828L46.3125 21.4062C46.2135 21.2448 46.0964 21.0417 45.9609 20.7969H45.9297C45.9036 20.8438 45.7812 21.0469 45.5625 21.4062L43.9609 24H42.4844L45.2109 20.0781L42.6016 16H44.0938L45.6406 18.7344C45.7552 18.9375 45.8672 19.1458 45.9766 19.3594H46.0078L48.0078 16H49.4219ZM60.1094 15.375L57.9688 15.8125L59.4531 17.7109L58.5938 18.3047L57.375 16.2344L56.1406 18.3047L55.2812 17.7109L56.7656 15.8125L54.6094 15.375L54.9609 14.3984L57.0078 15.1719L56.8281 12.7969H57.9062L57.7266 15.1719L59.7812 14.3984L60.1094 15.375ZM71.1094 15.7344C71.1094 15.3906 71.0547 15.0911 70.9453 14.8359C70.8411 14.5807 70.6953 14.3698 70.5078 14.2031C70.3255 14.0312 70.1094 13.9036 69.8594 13.8203C69.6094 13.737 69.3385 13.6953 69.0469 13.6953C68.7969 13.6953 68.5521 13.7292 68.3125 13.7969C68.0729 13.8646 67.8385 13.9583 67.6094 14.0781C67.3854 14.1979 67.1667 14.3411 66.9531 14.5078C66.7448 14.6745 66.5495 14.8594 66.3672 15.0625V13.6875C66.7266 13.3385 67.1276 13.0729 67.5703 12.8906C68.0182 12.7031 68.5625 12.6094 69.2031 12.6094C69.6615 12.6094 70.0859 12.6771 70.4766 12.8125C70.8672 12.9427 71.2057 13.1354 71.4922 13.3906C71.7786 13.6458 72.0026 13.9609 72.1641 14.3359C72.3307 14.7109 72.4141 15.1406 72.4141 15.625C72.4141 16.0677 72.362 16.4688 72.2578 16.8281C72.1589 17.1875 72.0052 17.526 71.7969 17.8438C71.5938 18.1615 71.3359 18.4661 71.0234 18.7578C70.7109 19.0495 70.3438 19.3464 69.9219 19.6484C69.3958 20.0234 68.9609 20.3438 68.6172 20.6094C68.2786 20.875 68.0078 21.125 67.8047 21.3594C67.6068 21.5885 67.4661 21.8203 67.3828 22.0547C67.3047 22.2839 67.2656 22.5495 67.2656 22.8516H72.8438V24H65.9297V23.4453C65.9297 22.9661 65.9818 22.5443 66.0859 22.1797C66.1901 21.8151 66.362 21.4688 66.6016 21.1406C66.8411 20.8125 67.1536 20.4844 67.5391 20.1562C67.9297 19.8281 68.4062 19.4583 68.9688 19.0469C69.375 18.7552 69.7135 18.4766 69.9844 18.2109C70.2604 17.9453 70.4818 17.6797 70.6484 17.4141C70.8151 17.1484 70.9323 16.8802 71 16.6094C71.0729 16.3333 71.1094 16.0417 71.1094 15.7344ZM81.5938 13.5391C81.4219 13.8359 81.2135 14.2057 80.9688 14.6484C80.7292 15.0911 80.474 15.5885 80.2031 16.1406C79.9323 16.6927 79.6562 17.2865 79.375 17.9219C79.0938 18.5573 78.8307 19.2135 78.5859 19.8906C78.3411 20.5677 78.125 21.2552 77.9375 21.9531C77.7552 22.6458 77.6224 23.3281 77.5391 24H76.1641C76.2578 23.3333 76.401 22.6536 76.5938 21.9609C76.7917 21.263 77.013 20.5807 77.2578 19.9141C77.5078 19.2422 77.7708 18.5964 78.0469 17.9766C78.3229 17.3568 78.5911 16.7865 78.8516 16.2656C79.112 15.7448 79.349 15.2865 79.5625 14.8906C79.7812 14.4896 79.9557 14.1771 80.0859 13.9531H74.4688V12.7969H81.5938V13.5391ZM88.3594 15.7344C88.3594 15.3906 88.3047 15.0911 88.1953 14.8359C88.0911 14.5807 87.9453 14.3698 87.7578 14.2031C87.5755 14.0312 87.3594 13.9036 87.1094 13.8203C86.8594 13.737 86.5885 13.6953 86.2969 13.6953C86.0469 13.6953 85.8021 13.7292 85.5625 13.7969C85.3229 13.8646 85.0885 13.9583 84.8594 14.0781C84.6354 14.1979 84.4167 14.3411 84.2031 14.5078C83.9948 14.6745 83.7995 14.8594 83.6172 15.0625V13.6875C83.9766 13.3385 84.3776 13.0729 84.8203 12.8906C85.2682 12.7031 85.8125 12.6094 86.4531 12.6094C86.9115 12.6094 87.3359 12.6771 87.7266 12.8125C88.1172 12.9427 88.4557 13.1354 88.7422 13.3906C89.0286 13.6458 89.2526 13.9609 89.4141 14.3359C89.5807 14.7109 89.6641 15.1406 89.6641 15.625C89.6641 16.0677 89.612 16.4688 89.5078 16.8281C89.4089 17.1875 89.2552 17.526 89.0469 17.8438C88.8438 18.1615 88.5859 18.4661 88.2734 18.7578C87.9609 19.0495 87.5938 19.3464 87.1719 19.6484C86.6458 20.0234 86.2109 20.3438 85.8672 20.6094C85.5286 20.875 85.2578 21.125 85.0547 21.3594C84.8568 21.5885 84.7161 21.8203 84.6328 22.0547C84.5547 22.2839 84.5156 22.5495 84.5156 22.8516H90.0938V24H83.1797V23.4453C83.1797 22.9661 83.2318 22.5443 83.3359 22.1797C83.4401 21.8151 83.612 21.4688 83.8516 21.1406C84.0911 20.8125 84.4036 20.4844 84.7891 20.1562C85.1797 19.8281 85.6562 19.4583 86.2188 19.0469C86.625 18.7552 86.9635 18.4766 87.2344 18.2109C87.5104 17.9453 87.7318 17.6797 87.8984 17.4141C88.0651 17.1484 88.1823 16.8802 88.25 16.6094C88.3229 16.3333 88.3594 16.0417 88.3594 15.7344ZM93.5625 22.8438H93.5312V27.6797H92.25V16H93.5312V17.4062H93.5625C94.1927 16.3438 95.1146 15.8125 96.3281 15.8125C97.3594 15.8125 98.1641 16.1719 98.7422 16.8906C99.3203 17.6042 99.6094 18.5625 99.6094 19.7656C99.6094 21.1042 99.2839 22.1771 98.6328 22.9844C97.9818 23.7865 97.0911 24.1875 95.9609 24.1875C94.9245 24.1875 94.125 23.7396 93.5625 22.8438ZM93.5312 19.6172V20.7344C93.5312 21.3958 93.7448 21.9583 94.1719 22.4219C94.6042 22.8802 95.151 23.1094 95.8125 23.1094C96.5885 23.1094 97.1953 22.8125 97.6328 22.2188C98.0755 21.625 98.2969 20.7995 98.2969 19.7422C98.2969 18.8516 98.0911 18.1536 97.6797 17.6484C97.2682 17.1432 96.7109 16.8906 96.0078 16.8906C95.263 16.8906 94.6641 17.151 94.2109 17.6719C93.7578 18.1875 93.5312 18.8359 93.5312 19.6172ZM107.5 16L104.812 20.0469L107.453 24H105.961L104.391 21.4062C104.292 21.2448 104.174 21.0417 104.039 20.7969H104.008C103.982 20.8438 103.859 21.0469 103.641 21.4062L102.039 24H100.562L103.289 20.0781L100.68 16H102.172L103.719 18.7344C103.833 18.9375 103.945 19.1458 104.055 19.3594H104.086L106.086 16H107.5Z" fill="#7B61FF"/>
<rect x="0.5" y="0.5" width="719" height="271" stroke="#000000" stroke-dasharray="5 5"/>
</svg>
