<svg width="600" height="320" viewBox="0 0 600 320" fill="none" xmlns="http://www.w3.org/2000/svg">
<path d="M252.5 232C252.5 223.44 259.44 216.5 268 216.5H332C340.56 216.5 347.5 223.44 347.5 232V280C347.5 288.56 340.56 295.5 332 295.5H268C259.44 295.5 252.5 288.56 252.5 280V232Z" fill="white"/>
<path d="M252.5 232C252.5 223.44 259.44 216.5 268 216.5H332C340.56 216.5 347.5 223.44 347.5 232V280C347.5 288.56 340.56 295.5 332 295.5H268C259.44 295.5 252.5 288.56 252.5 280V232Z" stroke="#B6C9D8"/>
<mask id="mask0_12173_2089" style="mask-type:alpha" maskUnits="userSpaceOnUse" x="288" y="232" width="24" height="24">
<rect x="288" y="232" width="24" height="24" fill="#D9D9D9"/>
</mask>
<g mask="url(#mask0_12173_2089)">
<path d="M288 252V250H292V249C291.45 249 290.979 248.804 290.588 248.413C290.196 248.021 290 247.55 290 247V237C290 236.45 290.196 235.979 290.588 235.588C290.979 235.196 291.45 235 292 235H308C308.55 235 309.021 235.196 309.413 235.588C309.804 235.979 310 236.45 310 237V247C310 247.55 309.804 248.021 309.413 248.413C309.021 248.804 308.55 249 308 249V250H312V252H288ZM292 247H308V237H292V247Z" fill="#006590"/>
</g>
<path d="M282 274V262.8H283.856V274H282ZM283.296 274V272.304H288.928V274H283.296ZM293.828 274.192C293.028 274.192 292.314 274.016 291.684 273.664C291.066 273.301 290.58 272.805 290.228 272.176C289.876 271.547 289.7 270.821 289.7 270C289.7 269.179 289.871 268.453 290.212 267.824C290.564 267.195 291.05 266.704 291.668 266.352C292.287 265.989 292.996 265.808 293.796 265.808C294.596 265.808 295.306 265.989 295.924 266.352C296.543 266.704 297.023 267.195 297.364 267.824C297.716 268.453 297.892 269.179 297.892 270C297.892 270.821 297.722 271.547 297.38 272.176C297.039 272.805 296.559 273.301 295.94 273.664C295.322 274.016 294.618 274.192 293.828 274.192ZM293.828 272.544C294.266 272.544 294.655 272.437 294.996 272.224C295.338 272 295.604 271.701 295.796 271.328C295.988 270.944 296.084 270.501 296.084 270C296.084 269.499 295.983 269.061 295.78 268.688C295.588 268.304 295.322 268.005 294.98 267.792C294.639 267.568 294.244 267.456 293.796 267.456C293.348 267.456 292.954 267.563 292.612 267.776C292.271 267.989 292.004 268.288 291.812 268.672C291.62 269.056 291.524 269.499 291.524 270C291.524 270.501 291.62 270.944 291.812 271.328C292.015 271.701 292.287 272 292.628 272.224C292.98 272.437 293.38 272.544 293.828 272.544ZM303.189 274.192C302.368 274.192 301.642 274.016 301.013 273.664C300.384 273.301 299.888 272.805 299.525 272.176C299.173 271.547 298.997 270.821 298.997 270C298.997 269.179 299.173 268.453 299.525 267.824C299.888 267.195 300.378 266.704 300.997 266.352C301.626 265.989 302.346 265.808 303.157 265.808C303.946 265.808 304.661 266 305.301 266.384C305.941 266.757 306.416 267.296 306.725 268L305.061 268.64C304.89 268.288 304.629 268.005 304.277 267.792C303.925 267.579 303.525 267.472 303.077 267.472C302.64 267.472 302.25 267.584 301.909 267.808C301.568 268.021 301.301 268.32 301.109 268.704C300.917 269.077 300.821 269.509 300.821 270C300.821 270.491 300.917 270.928 301.109 271.312C301.312 271.685 301.584 271.984 301.925 272.208C302.277 272.421 302.672 272.528 303.109 272.528C303.557 272.528 303.957 272.416 304.309 272.192C304.661 271.957 304.922 271.643 305.093 271.248L306.757 271.888C306.448 272.613 305.973 273.179 305.333 273.584C304.704 273.989 303.989 274.192 303.189 274.192ZM312.996 274L312.916 272.496V269.888C312.916 269.344 312.858 268.891 312.74 268.528C312.623 268.165 312.436 267.888 312.18 267.696C311.935 267.504 311.61 267.408 311.204 267.408C310.831 267.408 310.5 267.488 310.212 267.648C309.924 267.808 309.684 268.053 309.492 268.384L307.86 267.808C308.042 267.456 308.276 267.125 308.564 266.816C308.852 266.507 309.215 266.261 309.652 266.08C310.1 265.899 310.628 265.808 311.236 265.808C312.015 265.808 312.66 265.952 313.172 266.24C313.695 266.528 314.084 266.955 314.34 267.52C314.596 268.085 314.724 268.784 314.724 269.616L314.676 274H312.996ZM310.724 274.192C309.764 274.192 309.018 273.979 308.484 273.552C307.962 273.125 307.7 272.523 307.7 271.744C307.7 270.912 307.978 270.277 308.532 269.84C309.098 269.403 309.882 269.184 310.884 269.184H313.028V270.56H311.46C310.746 270.56 310.244 270.661 309.956 270.864C309.668 271.056 309.524 271.333 309.524 271.696C309.524 272.005 309.647 272.251 309.892 272.432C310.148 272.603 310.5 272.688 310.948 272.688C311.343 272.688 311.684 272.597 311.972 272.416C312.271 272.224 312.5 271.979 312.66 271.68C312.831 271.371 312.916 271.04 312.916 270.688H313.572C313.572 271.776 313.338 272.635 312.868 273.264C312.41 273.883 311.695 274.192 310.724 274.192ZM316.539 274V262.8H318.331V274H316.539Z" fill="#21333F"/>
<path d="M268 26C258.059 26 250 34.0589 250 44V92C250 101.941 258.059 110 268 110H332C341.941 110 350 101.941 350 92V44C350 34.0589 341.941 26 332 26H268Z" fill="white"/>
<path d="M268 26C258.059 26 250 34.0589 250 44V92C250 101.941 258.059 110 268 110H332C341.941 110 350 101.941 350 92V44C350 34.0589 341.941 26 332 26H268Z" stroke="#55B4ED" stroke-width="4"/>
<mask id="mask1_12173_2089" style="mask-type:alpha" maskUnits="userSpaceOnUse" x="286" y="44" width="24" height="24">
<rect x="286" y="44" width="24" height="24" fill="#D9D9D9"/>
</mask>
<g mask="url(#mask1_12173_2089)">
<path d="M292.5 64C290.967 64 289.667 63.4667 288.6 62.4C287.533 61.3333 287 60.0333 287 58.5C287 57.2 287.404 56.0542 288.212 55.0625C289.021 54.0708 290.033 53.4333 291.25 53.15C291.667 51.65 292.492 50.4167 293.725 49.45C294.958 48.4833 296.383 48 298 48C299.983 48 301.646 48.6875 302.988 50.0625C304.329 51.4375 305 53.0833 305 55C306.25 55.1333 307.229 55.65 307.938 56.55C308.646 57.45 309 58.425 309 59.475C309 60.725 308.562 61.7917 307.688 62.675C306.812 63.5583 305.75 64 304.5 64H292.5ZM292.5 62H304.5C305.2 62 305.792 61.7583 306.275 61.275C306.758 60.7917 307 60.2 307 59.5C307 58.8 306.758 58.2083 306.275 57.725C305.792 57.2417 305.2 57 304.5 57H303V55C303 53.6167 302.513 52.4375 301.538 51.4625C300.562 50.4875 299.383 50 298 50C296.95 50 296.017 50.2875 295.2 50.8625C294.383 51.4375 293.783 52.175 293.4 53.075C294.533 53.2583 295.508 53.7458 296.325 54.5375C297.142 55.3292 297.667 56.2833 297.9 57.4C297.967 57.6833 297.896 57.9375 297.688 58.1625C297.479 58.3875 297.208 58.5 296.875 58.5C296.642 58.5 296.438 58.4208 296.262 58.2625C296.087 58.1042 295.967 57.9 295.9 57.65C295.717 56.9 295.308 56.2708 294.675 55.7625C294.042 55.2542 293.317 55 292.5 55C291.533 55 290.708 55.3417 290.025 56.025C289.342 56.7083 289 57.5333 289 58.5C289 59.4667 289.342 60.2917 290.025 60.975C290.708 61.6583 291.533 62 292.5 62Z" fill="#006590"/>
</g>
<path d="M272.133 81.872V80.16H274.485C274.848 80.16 275.168 80.08 275.445 79.92C275.733 79.76 275.962 79.5413 276.133 79.264C276.314 78.9867 276.405 78.672 276.405 78.32C276.405 77.7867 276.213 77.3493 275.829 77.008C275.445 76.6667 274.949 76.496 274.341 76.496H272.133V74.8L274.405 74.784C275.173 74.7733 275.85 74.9227 276.437 75.232C277.024 75.5307 277.482 75.9467 277.813 76.48C278.144 77.0133 278.309 77.6267 278.309 78.32C278.309 79.0133 278.133 79.6267 277.781 80.16C277.44 80.6933 276.965 81.1147 276.357 81.424C275.749 81.7227 275.061 81.872 274.293 81.872H272.133ZM270.453 86V74.8H272.309V86H270.453ZM276.661 86L274.037 81.456L275.477 80.464L278.757 86H276.661ZM283.873 86.192C283.094 86.192 282.401 86.016 281.793 85.664C281.195 85.3013 280.721 84.8053 280.368 84.176C280.027 83.5467 279.857 82.8213 279.857 82C279.857 81.1787 280.033 80.4533 280.385 79.824C280.737 79.1947 281.217 78.704 281.825 78.352C282.443 77.9893 283.147 77.808 283.937 77.808C284.651 77.808 285.291 77.9947 285.857 78.368C286.433 78.7307 286.891 79.2587 287.233 79.952C287.574 80.6453 287.745 81.472 287.745 82.432H285.937C285.937 81.7387 285.851 81.168 285.681 80.72C285.521 80.272 285.286 79.9413 284.977 79.728C284.678 79.504 284.31 79.392 283.873 79.392C283.414 79.392 283.019 79.4933 282.689 79.696C282.358 79.8987 282.107 80.1973 281.937 80.592C281.766 80.976 281.681 81.4613 281.681 82.048C281.681 82.5707 281.782 83.0187 281.985 83.392C282.198 83.7653 282.481 84.0533 282.833 84.256C283.195 84.448 283.595 84.544 284.033 84.544C284.513 84.544 284.907 84.4373 285.217 84.224C285.526 84 285.766 83.7173 285.937 83.376L287.585 84.08C287.361 84.5067 287.073 84.88 286.721 85.2C286.379 85.52 285.969 85.7653 285.489 85.936C285.019 86.1067 284.481 86.192 283.873 86.192ZM281.041 82.432V81.008H286.801V82.432H281.041ZM289.117 86V78H290.797L290.909 79.472V86H289.117ZM294.541 86V81.904L296.333 81.424V86H294.541ZM299.981 86V81.904L301.757 81.424V86H299.981ZM294.541 81.904C294.541 81.264 294.466 80.7733 294.317 80.432C294.178 80.08 293.976 79.8347 293.709 79.696C293.453 79.5573 293.149 79.488 292.797 79.488C292.2 79.4773 291.736 79.6747 291.405 80.08C291.074 80.4853 290.909 81.0667 290.909 81.824H290.237C290.237 80.9813 290.36 80.2613 290.605 79.664C290.85 79.056 291.202 78.5973 291.661 78.288C292.12 77.968 292.664 77.808 293.293 77.808C294.264 77.808 295.01 78.1067 295.533 78.704C296.066 79.2907 296.333 80.1973 296.333 81.424L294.541 81.904ZM299.981 81.904C299.981 81.264 299.906 80.7733 299.757 80.432C299.608 80.08 299.4 79.8347 299.133 79.696C298.877 79.5573 298.578 79.488 298.237 79.488C297.629 79.4773 297.16 79.6747 296.829 80.08C296.498 80.4853 296.333 81.0667 296.333 81.824H295.661C295.661 80.9813 295.784 80.2613 296.029 79.664C296.274 79.056 296.626 78.5973 297.085 78.288C297.544 77.968 298.088 77.808 298.717 77.808C299.688 77.808 300.44 78.1067 300.973 78.704C301.506 79.2907 301.768 80.1973 301.757 81.424L299.981 81.904ZM307.266 86.192C306.466 86.192 305.751 86.016 305.122 85.664C304.503 85.3013 304.018 84.8053 303.666 84.176C303.314 83.5467 303.138 82.8213 303.138 82C303.138 81.1787 303.308 80.4533 303.65 79.824C304.002 79.1947 304.487 78.704 305.106 78.352C305.724 77.9893 306.434 77.808 307.234 77.808C308.034 77.808 308.743 77.9893 309.362 78.352C309.98 78.704 310.46 79.1947 310.802 79.824C311.154 80.4533 311.33 81.1787 311.33 82C311.33 82.8213 311.159 83.5467 310.818 84.176C310.476 84.8053 309.996 85.3013 309.378 85.664C308.759 86.016 308.055 86.192 307.266 86.192ZM307.266 84.544C307.703 84.544 308.092 84.4373 308.434 84.224C308.775 84 309.042 83.7013 309.234 83.328C309.426 82.944 309.522 82.5013 309.522 82C309.522 81.4987 309.42 81.0613 309.218 80.688C309.026 80.304 308.759 80.0053 308.418 79.792C308.076 79.568 307.682 79.456 307.234 79.456C306.786 79.456 306.391 79.5627 306.05 79.776C305.708 79.9893 305.442 80.288 305.25 80.672C305.058 81.056 304.962 81.4987 304.962 82C304.962 82.5013 305.058 82.944 305.25 83.328C305.452 83.7013 305.724 84 306.066 84.224C306.418 84.4373 306.818 84.544 307.266 84.544ZM316.067 86.192C315.224 86.192 314.579 85.984 314.131 85.568C313.693 85.1413 313.475 84.5333 313.475 83.744V75.504H315.251V83.408C315.251 83.7813 315.336 84.064 315.507 84.256C315.688 84.448 315.949 84.544 316.291 84.544C316.397 84.544 316.515 84.5227 316.643 84.48C316.771 84.4373 316.915 84.3573 317.075 84.24L317.731 85.6C317.453 85.792 317.176 85.936 316.899 86.032C316.621 86.1387 316.344 86.192 316.067 86.192ZM312.147 79.536V78H317.411V79.536H312.147ZM322.623 86.192C321.844 86.192 321.151 86.016 320.543 85.664C319.945 85.3013 319.471 84.8053 319.118 84.176C318.777 83.5467 318.607 82.8213 318.607 82C318.607 81.1787 318.783 80.4533 319.135 79.824C319.487 79.1947 319.967 78.704 320.575 78.352C321.193 77.9893 321.897 77.808 322.687 77.808C323.401 77.808 324.041 77.9947 324.607 78.368C325.183 78.7307 325.641 79.2587 325.983 79.952C326.324 80.6453 326.495 81.472 326.495 82.432H324.687C324.687 81.7387 324.601 81.168 324.431 80.72C324.271 80.272 324.036 79.9413 323.727 79.728C323.428 79.504 323.06 79.392 322.623 79.392C322.164 79.392 321.769 79.4933 321.439 79.696C321.108 79.8987 320.857 80.1973 320.687 80.592C320.516 80.976 320.431 81.4613 320.431 82.048C320.431 82.5707 320.532 83.0187 320.735 83.392C320.948 83.7653 321.231 84.0533 321.583 84.256C321.945 84.448 322.345 84.544 322.783 84.544C323.263 84.544 323.657 84.4373 323.967 84.224C324.276 84 324.516 83.7173 324.687 83.376L326.335 84.08C326.111 84.5067 325.823 84.88 325.471 85.2C325.129 85.52 324.719 85.7653 324.239 85.936C323.769 86.1067 323.231 86.192 322.623 86.192ZM319.791 82.432V81.008H325.551V82.432H319.791Z" fill="#21333F"/>
<path d="M251.5 122C251.5 113.44 258.44 106.5 267 106.5H333C341.56 106.5 348.5 113.44 348.5 122C348.5 130.56 341.56 137.5 333 137.5H267C258.44 137.5 251.5 130.56 251.5 122Z" fill="#E5F2FF"/>
<path d="M251.5 122C251.5 113.44 258.44 106.5 267 106.5H333C341.56 106.5 348.5 113.44 348.5 122C348.5 130.56 341.56 137.5 333 137.5H267C258.44 137.5 251.5 130.56 251.5 122Z" stroke="#B6C9D8"/>
<path d="M264 98.5H336C345.665 98.5 353.5 106.335 353.5 116C353.5 125.665 345.665 133.5 336 133.5H264C254.335 133.5 246.5 125.665 246.5 116C246.5 106.335 254.335 98.5 264 98.5Z" fill="white"/>
<path d="M264 98.5H336C345.665 98.5 353.5 106.335 353.5 116C353.5 125.665 345.665 133.5 336 133.5H264C254.335 133.5 246.5 125.665 246.5 116C246.5 106.335 254.335 98.5 264 98.5Z" stroke="#B6C9D8"/>
<path d="M267.429 121L271.769 112.446H273.435L269.221 121H267.429ZM266.687 112.684V111.2H273.435V112.446L271.909 112.684H266.687ZM281.373 121.168C280.655 121.168 280.02 121.014 279.469 120.706C278.919 120.389 278.485 119.955 278.167 119.404C277.859 118.853 277.705 118.219 277.705 117.5C277.705 116.781 277.859 116.147 278.167 115.596C278.485 115.045 278.914 114.616 279.455 114.308C280.006 113.991 280.636 113.832 281.345 113.832C282.036 113.832 282.661 114 283.221 114.336C283.781 114.663 284.197 115.134 284.467 115.75L283.011 116.31C282.862 116.002 282.633 115.755 282.325 115.568C282.017 115.381 281.667 115.288 281.275 115.288C280.893 115.288 280.552 115.386 280.253 115.582C279.955 115.769 279.721 116.03 279.553 116.366C279.385 116.693 279.301 117.071 279.301 117.5C279.301 117.929 279.385 118.312 279.553 118.648C279.731 118.975 279.969 119.236 280.267 119.432C280.575 119.619 280.921 119.712 281.303 119.712C281.695 119.712 282.045 119.614 282.353 119.418C282.661 119.213 282.89 118.937 283.039 118.592L284.495 119.152C284.225 119.787 283.809 120.281 283.249 120.636C282.699 120.991 282.073 121.168 281.373 121.168ZM288.933 121.168C288.233 121.168 287.607 121.014 287.057 120.706C286.515 120.389 286.091 119.955 285.783 119.404C285.475 118.853 285.321 118.219 285.321 117.5C285.321 116.781 285.47 116.147 285.769 115.596C286.077 115.045 286.501 114.616 287.043 114.308C287.584 113.991 288.205 113.832 288.905 113.832C289.605 113.832 290.225 113.991 290.767 114.308C291.308 114.616 291.728 115.045 292.027 115.596C292.335 116.147 292.489 116.781 292.489 117.5C292.489 118.219 292.339 118.853 292.041 119.404C291.742 119.955 291.322 120.389 290.781 120.706C290.239 121.014 289.623 121.168 288.933 121.168ZM288.933 119.726C289.315 119.726 289.656 119.633 289.955 119.446C290.253 119.25 290.487 118.989 290.655 118.662C290.823 118.326 290.907 117.939 290.907 117.5C290.907 117.061 290.818 116.679 290.641 116.352C290.473 116.016 290.239 115.755 289.941 115.568C289.642 115.372 289.297 115.274 288.905 115.274C288.513 115.274 288.167 115.367 287.869 115.554C287.57 115.741 287.337 116.002 287.169 116.338C287.001 116.674 286.917 117.061 286.917 117.5C286.917 117.939 287.001 118.326 287.169 118.662C287.346 118.989 287.584 119.25 287.883 119.446C288.191 119.633 288.541 119.726 288.933 119.726ZM293.847 121V114H295.317L295.415 115.288V121H293.847ZM298.593 121V117.416L300.161 116.996V121H298.593ZM303.353 121V117.416L304.907 116.996V121H303.353ZM298.593 117.416C298.593 116.856 298.528 116.427 298.397 116.128C298.276 115.82 298.099 115.605 297.865 115.484C297.641 115.363 297.375 115.302 297.067 115.302C296.545 115.293 296.139 115.465 295.849 115.82C295.56 116.175 295.415 116.683 295.415 117.346H294.827C294.827 116.609 294.935 115.979 295.149 115.456C295.364 114.924 295.672 114.523 296.073 114.252C296.475 113.972 296.951 113.832 297.501 113.832C298.351 113.832 299.004 114.093 299.461 114.616C299.928 115.129 300.161 115.923 300.161 116.996L298.593 117.416ZM303.353 117.416C303.353 116.856 303.288 116.427 303.157 116.128C303.027 115.82 302.845 115.605 302.611 115.484C302.387 115.363 302.126 115.302 301.827 115.302C301.295 115.293 300.885 115.465 300.595 115.82C300.306 116.175 300.161 116.683 300.161 117.346H299.573C299.573 116.609 299.681 115.979 299.895 115.456C300.11 114.924 300.418 114.523 300.819 114.252C301.221 113.972 301.697 113.832 302.247 113.832C303.097 113.832 303.755 114.093 304.221 114.616C304.688 115.129 304.917 115.923 304.907 116.996L303.353 117.416ZM306.508 121V114H307.978L308.076 115.288V121H306.508ZM311.254 121V117.416L312.822 116.996V121H311.254ZM316.014 121V117.416L317.568 116.996V121H316.014ZM311.254 117.416C311.254 116.856 311.188 116.427 311.058 116.128C310.936 115.82 310.759 115.605 310.526 115.484C310.302 115.363 310.036 115.302 309.728 115.302C309.205 115.293 308.799 115.465 308.51 115.82C308.22 116.175 308.076 116.683 308.076 117.346H307.488C307.488 116.609 307.595 115.979 307.81 115.456C308.024 114.924 308.332 114.523 308.734 114.252C309.135 113.972 309.611 113.832 310.162 113.832C311.011 113.832 311.664 114.093 312.122 114.616C312.588 115.129 312.822 115.923 312.822 116.996L311.254 117.416ZM316.014 117.416C316.014 116.856 315.948 116.427 315.818 116.128C315.687 115.82 315.505 115.605 315.272 115.484C315.048 115.363 314.786 115.302 314.488 115.302C313.956 115.293 313.545 115.465 313.256 115.82C312.966 116.175 312.822 116.683 312.822 117.346H312.234C312.234 116.609 312.341 115.979 312.556 115.456C312.77 114.924 313.078 114.523 313.48 114.252C313.881 113.972 314.357 113.832 314.908 113.832C315.757 113.832 316.415 114.093 316.882 114.616C317.348 115.129 317.577 115.923 317.568 116.996L316.014 117.416ZM319.266 121L319.28 114H320.834L320.82 121H319.266ZM320.05 112.67C319.798 112.67 319.578 112.581 319.392 112.404C319.214 112.217 319.126 111.998 319.126 111.746C319.126 111.494 319.214 111.279 319.392 111.102C319.578 110.925 319.798 110.836 320.05 110.836C320.302 110.836 320.516 110.925 320.694 111.102C320.88 111.279 320.974 111.494 320.974 111.746C320.974 111.998 320.88 112.217 320.694 112.404C320.516 112.581 320.302 112.67 320.05 112.67ZM325.454 121.168C324.716 121.168 324.152 120.986 323.76 120.622C323.377 120.249 323.186 119.717 323.186 119.026V111.816H324.74V118.732C324.74 119.059 324.814 119.306 324.964 119.474C325.122 119.642 325.351 119.726 325.65 119.726C325.743 119.726 325.846 119.707 325.958 119.67C326.07 119.633 326.196 119.563 326.336 119.46L326.91 120.65C326.667 120.818 326.424 120.944 326.182 121.028C325.939 121.121 325.696 121.168 325.454 121.168ZM322.024 115.344V114H326.63V115.344H322.024ZM330.712 121.168C330.245 121.168 329.816 121.098 329.424 120.958C329.032 120.818 328.696 120.622 328.416 120.37C328.136 120.109 327.921 119.805 327.772 119.46L329.13 118.858C329.27 119.119 329.475 119.339 329.746 119.516C330.026 119.693 330.334 119.782 330.67 119.782C331.034 119.782 331.323 119.721 331.538 119.6C331.762 119.469 331.874 119.292 331.874 119.068C331.874 118.853 331.79 118.69 331.622 118.578C331.454 118.457 331.216 118.359 330.908 118.284L330.25 118.102C329.587 117.934 329.069 117.668 328.696 117.304C328.323 116.931 328.136 116.506 328.136 116.03C328.136 115.33 328.36 114.789 328.808 114.406C329.265 114.023 329.919 113.832 330.768 113.832C331.197 113.832 331.589 113.897 331.944 114.028C332.308 114.149 332.621 114.327 332.882 114.56C333.143 114.784 333.325 115.05 333.428 115.358L332.126 115.946C332.033 115.713 331.855 115.535 331.594 115.414C331.333 115.283 331.043 115.218 330.726 115.218C330.409 115.218 330.161 115.288 329.984 115.428C329.807 115.559 329.718 115.745 329.718 115.988C329.718 116.128 329.797 116.259 329.956 116.38C330.115 116.492 330.343 116.585 330.642 116.66L331.468 116.856C331.925 116.968 332.299 117.145 332.588 117.388C332.877 117.621 333.092 117.887 333.232 118.186C333.372 118.475 333.442 118.769 333.442 119.068C333.442 119.488 333.321 119.857 333.078 120.174C332.845 120.491 332.523 120.739 332.112 120.916C331.701 121.084 331.235 121.168 330.712 121.168Z" fill="#21333F"/>
<path fill-rule="evenodd" clip-rule="evenodd" d="M305.684 160.768C306.026 160.446 306.041 159.908 305.719 159.567L301.528 155.129C300.699 154.251 299.303 154.251 298.474 155.129L294.283 159.567C293.96 159.908 293.976 160.446 294.317 160.768C294.658 161.09 295.196 161.075 295.519 160.734L299.71 156.296C299.868 156.129 300.134 156.129 300.292 156.296L304.483 160.734C304.805 161.075 305.343 161.09 305.684 160.768Z" fill="#55B4ED"/>
<path fill-rule="evenodd" clip-rule="evenodd" d="M305.684 172.768C306.026 172.446 306.041 171.908 305.719 171.567L301.528 167.129C300.699 166.251 299.303 166.251 298.474 167.129L294.283 171.567C293.96 171.908 293.976 172.446 294.317 172.768C294.658 173.09 295.196 173.075 295.519 172.734L299.71 168.296C299.868 168.129 300.134 168.129 300.292 168.296L304.483 172.734C304.805 173.075 305.343 173.09 305.684 172.768Z" fill="#55B4ED"/>
<path fill-rule="evenodd" clip-rule="evenodd" d="M305.684 184.768C306.026 184.446 306.041 183.908 305.719 183.567L301.528 179.129C300.699 178.251 299.303 178.251 298.474 179.129L294.283 183.567C293.96 183.908 293.976 184.446 294.317 184.768C294.658 185.09 295.196 185.075 295.519 184.734L299.71 180.296C299.868 180.129 300.134 180.129 300.292 180.296L304.483 184.734C304.805 185.075 305.343 185.09 305.684 184.768Z" fill="#55B4ED"/>
<path fill-rule="evenodd" clip-rule="evenodd" d="M305.684 196.768C306.026 196.446 306.041 195.908 305.719 195.567L301.528 191.129C300.699 190.251 299.303 190.251 298.474 191.129L294.283 195.567C293.96 195.908 293.976 196.446 294.317 196.768C294.658 197.09 295.196 197.075 295.519 196.734L299.71 192.296C299.868 192.129 300.134 192.129 300.292 192.296L304.483 196.734C304.805 197.075 305.343 197.09 305.684 196.768Z" fill="#55B4ED"/>
</svg>
