<svg width="600" height="320" viewBox="0 0 600 320" fill="none" xmlns="http://www.w3.org/2000/svg">
<path d="M252.5 232C252.5 223.44 259.44 216.5 268 216.5H332C340.56 216.5 347.5 223.44 347.5 232V280C347.5 288.56 340.56 295.5 332 295.5H268C259.44 295.5 252.5 288.56 252.5 280V232Z" fill="white"/>
<path d="M252.5 232C252.5 223.44 259.44 216.5 268 216.5H332C340.56 216.5 347.5 223.44 347.5 232V280C347.5 288.56 340.56 295.5 332 295.5H268C259.44 295.5 252.5 288.56 252.5 280V232Z" stroke="#B6C9D8"/>
<mask id="mask0_12173_2089" style="mask-type:alpha" maskUnits="userSpaceOnUse" x="288" y="232" width="24" height="24">
<rect x="288" y="232" width="24" height="24" fill="#D9D9D9"/>
</mask>
<g mask="url(#mask0_12173_2089)">
<path d="M288 252V250H292V249C291.45 249 290.979 248.804 290.588 248.413C290.196 248.021 290 247.55 290 247V237C290 236.45 290.196 235.979 290.588 235.588C290.979 235.196 291.45 235 292 235H308C308.55 235 309.021 235.196 309.413 235.588C309.804 235.979 310 236.45 310 237V247C310 247.55 309.804 248.021 309.413 248.413C309.021 248.804 308.55 249 308 249V250H312V252H288ZM292 247H308V237H292V247Z" fill="#006590"/>
</g>
<path d="M282 274V262.8H283.856V274H282ZM283.296 274V272.304H288.928V274H283.296ZM293.828 274.192C293.028 274.192 292.314 274.016 291.684 273.664C291.066 273.301 290.58 272.805 290.228 272.176C289.876 271.547 289.7 270.821 289.7 270C289.7 269.179 289.871 268.453 290.212 267.824C290.564 267.195 291.05 266.704 291.668 266.352C292.287 265.989 292.996 265.808 293.796 265.808C294.596 265.808 295.306 265.989 295.924 266.352C296.543 266.704 297.023 267.195 297.364 267.824C297.716 268.453 297.892 269.179 297.892 270C297.892 270.821 297.722 271.547 297.38 272.176C297.039 272.805 296.559 273.301 295.94 273.664C295.322 274.016 294.618 274.192 293.828 274.192ZM293.828 272.544C294.266 272.544 294.655 272.437 294.996 272.224C295.338 272 295.604 271.701 295.796 271.328C295.988 270.944 296.084 270.501 296.084 270C296.084 269.499 295.983 269.061 295.78 268.688C295.588 268.304 295.322 268.005 294.98 267.792C294.639 267.568 294.244 267.456 293.796 267.456C293.348 267.456 292.954 267.563 292.612 267.776C292.271 267.989 292.004 268.288 291.812 268.672C291.62 269.056 291.524 269.499 291.524 270C291.524 270.501 291.62 270.944 291.812 271.328C292.015 271.701 292.287 272 292.628 272.224C292.98 272.437 293.38 272.544 293.828 272.544ZM303.189 274.192C302.368 274.192 301.642 274.016 301.013 273.664C300.384 273.301 299.888 272.805 299.525 272.176C299.173 271.547 298.997 270.821 298.997 270C298.997 269.179 299.173 268.453 299.525 267.824C299.888 267.195 300.378 266.704 300.997 266.352C301.626 265.989 302.346 265.808 303.157 265.808C303.946 265.808 304.661 266 305.301 266.384C305.941 266.757 306.416 267.296 306.725 268L305.061 268.64C304.89 268.288 304.629 268.005 304.277 267.792C303.925 267.579 303.525 267.472 303.077 267.472C302.64 267.472 302.25 267.584 301.909 267.808C301.568 268.021 301.301 268.32 301.109 268.704C300.917 269.077 300.821 269.509 300.821 270C300.821 270.491 300.917 270.928 301.109 271.312C301.312 271.685 301.584 271.984 301.925 272.208C302.277 272.421 302.672 272.528 303.109 272.528C303.557 272.528 303.957 272.416 304.309 272.192C304.661 271.957 304.922 271.643 305.093 271.248L306.757 271.888C306.448 272.613 305.973 273.179 305.333 273.584C304.704 273.989 303.989 274.192 303.189 274.192ZM312.996 274L312.916 272.496V269.888C312.916 269.344 312.858 268.891 312.74 268.528C312.623 268.165 312.436 267.888 312.18 267.696C311.935 267.504 311.61 267.408 311.204 267.408C310.831 267.408 310.5 267.488 310.212 267.648C309.924 267.808 309.684 268.053 309.492 268.384L307.86 267.808C308.042 267.456 308.276 267.125 308.564 266.816C308.852 266.507 309.215 266.261 309.652 266.08C310.1 265.899 310.628 265.808 311.236 265.808C312.015 265.808 312.66 265.952 313.172 266.24C313.695 266.528 314.084 266.955 314.34 267.52C314.596 268.085 314.724 268.784 314.724 269.616L314.676 274H312.996ZM310.724 274.192C309.764 274.192 309.018 273.979 308.484 273.552C307.962 273.125 307.7 272.523 307.7 271.744C307.7 270.912 307.978 270.277 308.532 269.84C309.098 269.403 309.882 269.184 310.884 269.184H313.028V270.56H311.46C310.746 270.56 310.244 270.661 309.956 270.864C309.668 271.056 309.524 271.333 309.524 271.696C309.524 272.005 309.647 272.251 309.892 272.432C310.148 272.603 310.5 272.688 310.948 272.688C311.343 272.688 311.684 272.597 311.972 272.416C312.271 272.224 312.5 271.979 312.66 271.68C312.831 271.371 312.916 271.04 312.916 270.688H313.572C313.572 271.776 313.338 272.635 312.868 273.264C312.41 273.883 311.695 274.192 310.724 274.192ZM316.539 274V262.8H318.331V274H316.539Z" fill="#21333F"/>
<path d="M332 26H268C258.059 26 250 34.0589 250 44V92C250 101.941 258.059 110 268 110H332C341.941 110 350 101.941 350 92V44C350 34.0589 341.941 26 332 26Z" fill="white"/>
<path d="M332 26H268C258.059 26 250 34.0589 250 44V92C250 101.941 258.059 110 268 110H332C341.941 110 350 101.941 350 92V44C350 34.0589 341.941 26 332 26Z" stroke="#55B4ED" stroke-width="4"/>
<mask id="mask1_12173_2089" style="mask-type:alpha" maskUnits="userSpaceOnUse" x="286" y="44" width="24" height="24">
<rect x="286" y="44" width="24" height="24" fill="#D9D9D9"/>
</mask>
<g mask="url(#mask1_12173_2089)">
<path d="M292.5 64C290.967 64 289.667 63.4667 288.6 62.4C287.533 61.3333 287 60.0333 287 58.5C287 57.2 287.404 56.0542 288.212 55.0625C289.021 54.0708 290.033 53.4333 291.25 53.15C291.667 51.65 292.492 50.4167 293.725 49.45C294.958 48.4833 296.383 48 298 48C299.983 48 301.646 48.6875 302.988 50.0625C304.329 51.4375 305 53.0833 305 55C306.25 55.1333 307.229 55.65 307.938 56.55C308.646 57.45 309 58.425 309 59.475C309 60.725 308.562 61.7917 307.688 62.675C306.812 63.5583 305.75 64 304.5 64H292.5ZM292.5 62H304.5C305.2 62 305.792 61.7583 306.275 61.275C306.758 60.7917 307 60.2 307 59.5C307 58.8 306.758 58.2083 306.275 57.725C305.792 57.2417 305.2 57 304.5 57H303V55C303 53.6167 302.513 52.4375 301.538 51.4625C300.562 50.4875 299.383 50 298 50C296.95 50 296.017 50.2875 295.2 50.8625C294.383 51.4375 293.783 52.175 293.4 53.075C294.533 53.2583 295.508 53.7458 296.325 54.5375C297.142 55.3292 297.667 56.2833 297.9 57.4C297.967 57.6833 297.896 57.9375 297.688 58.1625C297.479 58.3875 297.208 58.5 296.875 58.5C296.642 58.5 296.438 58.4208 296.262 58.2625C296.087 58.1042 295.967 57.9 295.9 57.65C295.717 56.9 295.308 56.2708 294.675 55.7625C294.042 55.2542 293.317 55 292.5 55C291.533 55 290.708 55.3417 290.025 56.025C289.342 56.7083 289 57.5333 289 58.5C289 59.4667 289.342 60.2917 290.025 60.975C290.708 61.6583 291.533 62 292.5 62Z" fill="#006590"/>
</g>
<path d="M272.133 81.872V80.16H274.485C274.848 80.16 275.168 80.08 275.445 79.92C275.733 79.76 275.962 79.5413 276.133 79.264C276.314 78.9867 276.405 78.672 276.405 78.32C276.405 77.7867 276.213 77.3493 275.829 77.008C275.445 76.6667 274.949 76.496 274.341 76.496H272.133V74.8L274.405 74.784C275.173 74.7733 275.85 74.9227 276.437 75.232C277.024 75.5307 277.482 75.9467 277.813 76.48C278.144 77.0133 278.309 77.6267 278.309 78.32C278.309 79.0133 278.133 79.6267 277.781 80.16C277.44 80.6933 276.965 81.1147 276.357 81.424C275.749 81.7227 275.061 81.872 274.293 81.872H272.133ZM270.453 86V74.8H272.309V86H270.453ZM276.661 86L274.037 81.456L275.477 80.464L278.757 86H276.661ZM283.873 86.192C283.094 86.192 282.401 86.016 281.793 85.664C281.195 85.3013 280.721 84.8053 280.368 84.176C280.027 83.5467 279.857 82.8213 279.857 82C279.857 81.1787 280.033 80.4533 280.385 79.824C280.737 79.1947 281.217 78.704 281.825 78.352C282.443 77.9893 283.147 77.808 283.937 77.808C284.651 77.808 285.291 77.9947 285.857 78.368C286.433 78.7307 286.891 79.2587 287.233 79.952C287.574 80.6453 287.745 81.472 287.745 82.432H285.937C285.937 81.7387 285.851 81.168 285.681 80.72C285.521 80.272 285.286 79.9413 284.977 79.728C284.678 79.504 284.31 79.392 283.873 79.392C283.414 79.392 283.019 79.4933 282.689 79.696C282.358 79.8987 282.107 80.1973 281.937 80.592C281.766 80.976 281.681 81.4613 281.681 82.048C281.681 82.5707 281.782 83.0187 281.985 83.392C282.198 83.7653 282.481 84.0533 282.833 84.256C283.195 84.448 283.595 84.544 284.033 84.544C284.513 84.544 284.907 84.4373 285.217 84.224C285.526 84 285.766 83.7173 285.937 83.376L287.585 84.08C287.361 84.5067 287.073 84.88 286.721 85.2C286.379 85.52 285.969 85.7653 285.489 85.936C285.019 86.1067 284.481 86.192 283.873 86.192ZM281.041 82.432V81.008H286.801V82.432H281.041ZM289.117 86V78H290.797L290.909 79.472V86H289.117ZM294.541 86V81.904L296.333 81.424V86H294.541ZM299.981 86V81.904L301.757 81.424V86H299.981ZM294.541 81.904C294.541 81.264 294.466 80.7733 294.317 80.432C294.178 80.08 293.976 79.8347 293.709 79.696C293.453 79.5573 293.149 79.488 292.797 79.488C292.2 79.4773 291.736 79.6747 291.405 80.08C291.074 80.4853 290.909 81.0667 290.909 81.824H290.237C290.237 80.9813 290.36 80.2613 290.605 79.664C290.85 79.056 291.202 78.5973 291.661 78.288C292.12 77.968 292.664 77.808 293.293 77.808C294.264 77.808 295.01 78.1067 295.533 78.704C296.066 79.2907 296.333 80.1973 296.333 81.424L294.541 81.904ZM299.981 81.904C299.981 81.264 299.906 80.7733 299.757 80.432C299.608 80.08 299.4 79.8347 299.133 79.696C298.877 79.5573 298.578 79.488 298.237 79.488C297.629 79.4773 297.16 79.6747 296.829 80.08C296.498 80.4853 296.333 81.0667 296.333 81.824H295.661C295.661 80.9813 295.784 80.2613 296.029 79.664C296.274 79.056 296.626 78.5973 297.085 78.288C297.544 77.968 298.088 77.808 298.717 77.808C299.688 77.808 300.44 78.1067 300.973 78.704C301.506 79.2907 301.768 80.1973 301.757 81.424L299.981 81.904ZM307.266 86.192C306.466 86.192 305.751 86.016 305.122 85.664C304.503 85.3013 304.018 84.8053 303.666 84.176C303.314 83.5467 303.138 82.8213 303.138 82C303.138 81.1787 303.308 80.4533 303.65 79.824C304.002 79.1947 304.487 78.704 305.106 78.352C305.724 77.9893 306.434 77.808 307.234 77.808C308.034 77.808 308.743 77.9893 309.362 78.352C309.98 78.704 310.46 79.1947 310.802 79.824C311.154 80.4533 311.33 81.1787 311.33 82C311.33 82.8213 311.159 83.5467 310.818 84.176C310.476 84.8053 309.996 85.3013 309.378 85.664C308.759 86.016 308.055 86.192 307.266 86.192ZM307.266 84.544C307.703 84.544 308.092 84.4373 308.434 84.224C308.775 84 309.042 83.7013 309.234 83.328C309.426 82.944 309.522 82.5013 309.522 82C309.522 81.4987 309.42 81.0613 309.218 80.688C309.026 80.304 308.759 80.0053 308.418 79.792C308.076 79.568 307.682 79.456 307.234 79.456C306.786 79.456 306.391 79.5627 306.05 79.776C305.708 79.9893 305.442 80.288 305.25 80.672C305.058 81.056 304.962 81.4987 304.962 82C304.962 82.5013 305.058 82.944 305.25 83.328C305.452 83.7013 305.724 84 306.066 84.224C306.418 84.4373 306.818 84.544 307.266 84.544ZM316.067 86.192C315.224 86.192 314.579 85.984 314.131 85.568C313.693 85.1413 313.475 84.5333 313.475 83.744V75.504H315.251V83.408C315.251 83.7813 315.336 84.064 315.507 84.256C315.688 84.448 315.949 84.544 316.291 84.544C316.397 84.544 316.515 84.5227 316.643 84.48C316.771 84.4373 316.915 84.3573 317.075 84.24L317.731 85.6C317.453 85.792 317.176 85.936 316.899 86.032C316.621 86.1387 316.344 86.192 316.067 86.192ZM312.147 79.536V78H317.411V79.536H312.147ZM322.623 86.192C321.844 86.192 321.151 86.016 320.543 85.664C319.945 85.3013 319.471 84.8053 319.118 84.176C318.777 83.5467 318.607 82.8213 318.607 82C318.607 81.1787 318.783 80.4533 319.135 79.824C319.487 79.1947 319.967 78.704 320.575 78.352C321.193 77.9893 321.897 77.808 322.687 77.808C323.401 77.808 324.041 77.9947 324.607 78.368C325.183 78.7307 325.641 79.2587 325.983 79.952C326.324 80.6453 326.495 81.472 326.495 82.432H324.687C324.687 81.7387 324.601 81.168 324.431 80.72C324.271 80.272 324.036 79.9413 323.727 79.728C323.428 79.504 323.06 79.392 322.623 79.392C322.164 79.392 321.769 79.4933 321.439 79.696C321.108 79.8987 320.857 80.1973 320.687 80.592C320.516 80.976 320.431 81.4613 320.431 82.048C320.431 82.5707 320.532 83.0187 320.735 83.392C320.948 83.7653 321.231 84.0533 321.583 84.256C321.945 84.448 322.345 84.544 322.783 84.544C323.263 84.544 323.657 84.4373 323.967 84.224C324.276 84 324.516 83.7173 324.687 83.376L326.335 84.08C326.111 84.5067 325.823 84.88 325.471 85.2C325.129 85.52 324.719 85.7653 324.239 85.936C323.769 86.1067 323.231 86.192 322.623 86.192ZM319.791 82.432V81.008H325.551V82.432H319.791Z" fill="#21333F"/>
<path d="M267 106.5H333C341.56 106.5 348.5 113.44 348.5 122C348.5 130.56 341.56 137.5 333 137.5H267C258.44 137.5 251.5 130.56 251.5 122C251.5 113.44 258.44 106.5 267 106.5Z" fill="#E5F2FF"/>
<path d="M267 106.5H333C341.56 106.5 348.5 113.44 348.5 122C348.5 130.56 341.56 137.5 333 137.5H267C258.44 137.5 251.5 130.56 251.5 122C251.5 113.44 258.44 106.5 267 106.5Z" stroke="#B6C9D8"/>
<path d="M261 98.5H339C348.665 98.5 356.5 106.335 356.5 116C356.5 125.665 348.665 133.5 339 133.5H261C251.335 133.5 243.5 125.665 243.5 116C243.5 106.335 251.335 98.5 261 98.5Z" fill="white"/>
<path d="M261 98.5H339C348.665 98.5 356.5 106.335 356.5 116C356.5 125.665 348.665 133.5 339 133.5H261C251.335 133.5 243.5 125.665 243.5 116C243.5 106.335 251.335 98.5 261 98.5Z" stroke="#B6C9D8"/>
<path d="M266.071 121L266.085 112.068L266.239 111.2H267.653L267.639 121H266.071ZM263.957 114.07V112.6C264.172 112.609 264.415 112.549 264.685 112.418C264.965 112.278 265.241 112.096 265.511 111.872C265.782 111.648 266.025 111.419 266.239 111.186L267.247 112.236C266.921 112.581 266.58 112.899 266.225 113.188C265.871 113.477 265.502 113.701 265.119 113.86C264.746 114.019 264.359 114.089 263.957 114.07ZM272.959 121.168C272.427 121.168 271.941 121.089 271.503 120.93C271.064 120.771 270.695 120.547 270.397 120.258C270.098 119.969 269.883 119.642 269.753 119.278L271.209 118.732C271.283 118.863 271.386 119.007 271.517 119.166C271.647 119.325 271.82 119.465 272.035 119.586C272.249 119.698 272.525 119.754 272.861 119.754C273.393 119.754 273.813 119.605 274.121 119.306C274.438 118.998 274.597 118.611 274.597 118.144C274.597 117.808 274.508 117.519 274.331 117.276C274.163 117.033 273.897 116.847 273.533 116.716C273.178 116.585 272.73 116.52 272.189 116.52H271.741V115.372H272.147C272.716 115.372 273.243 115.437 273.729 115.568C274.223 115.699 274.657 115.895 275.031 116.156C275.413 116.408 275.707 116.716 275.913 117.08C276.127 117.444 276.235 117.855 276.235 118.312C276.235 118.9 276.081 119.409 275.773 119.838C275.474 120.267 275.077 120.599 274.583 120.832C274.088 121.056 273.547 121.168 272.959 121.168ZM271.741 116.268V115.176H272.189C272.907 115.176 273.453 115.055 273.827 114.812C274.2 114.569 274.387 114.229 274.387 113.79C274.387 113.538 274.321 113.314 274.191 113.118C274.069 112.913 273.892 112.749 273.659 112.628C273.425 112.507 273.15 112.446 272.833 112.446C272.627 112.446 272.427 112.479 272.231 112.544C272.035 112.609 271.853 112.712 271.685 112.852C271.517 112.992 271.377 113.174 271.265 113.398L269.851 112.88C269.991 112.488 270.215 112.157 270.523 111.886C270.831 111.606 271.19 111.396 271.601 111.256C272.011 111.107 272.441 111.032 272.889 111.032C273.486 111.032 274.018 111.144 274.485 111.368C274.961 111.592 275.334 111.905 275.605 112.306C275.885 112.698 276.025 113.151 276.025 113.664C276.025 114.093 275.917 114.471 275.703 114.798C275.497 115.125 275.213 115.4 274.849 115.624C274.485 115.839 274.069 116.002 273.603 116.114C273.145 116.217 272.655 116.268 272.133 116.268H271.741ZM284.327 121.168C283.608 121.168 282.973 121.014 282.423 120.706C281.872 120.389 281.438 119.955 281.121 119.404C280.813 118.853 280.659 118.219 280.659 117.5C280.659 116.781 280.813 116.147 281.121 115.596C281.438 115.045 281.867 114.616 282.409 114.308C282.959 113.991 283.589 113.832 284.299 113.832C284.989 113.832 285.615 114 286.175 114.336C286.735 114.663 287.15 115.134 287.421 115.75L285.965 116.31C285.815 116.002 285.587 115.755 285.279 115.568C284.971 115.381 284.621 115.288 284.229 115.288C283.846 115.288 283.505 115.386 283.207 115.582C282.908 115.769 282.675 116.03 282.507 116.366C282.339 116.693 282.255 117.071 282.255 117.5C282.255 117.929 282.339 118.312 282.507 118.648C282.684 118.975 282.922 119.236 283.221 119.432C283.529 119.619 283.874 119.712 284.257 119.712C284.649 119.712 284.999 119.614 285.307 119.418C285.615 119.213 285.843 118.937 285.993 118.592L287.449 119.152C287.178 119.787 286.763 120.281 286.203 120.636C285.652 120.991 285.027 121.168 284.327 121.168ZM291.886 121.168C291.186 121.168 290.561 121.014 290.01 120.706C289.469 120.389 289.044 119.955 288.736 119.404C288.428 118.853 288.274 118.219 288.274 117.5C288.274 116.781 288.423 116.147 288.722 115.596C289.03 115.045 289.455 114.616 289.996 114.308C290.537 113.991 291.158 113.832 291.858 113.832C292.558 113.832 293.179 113.991 293.72 114.308C294.261 114.616 294.681 115.045 294.98 115.596C295.288 116.147 295.442 116.781 295.442 117.5C295.442 118.219 295.293 118.853 294.994 119.404C294.695 119.955 294.275 120.389 293.734 120.706C293.193 121.014 292.577 121.168 291.886 121.168ZM291.886 119.726C292.269 119.726 292.609 119.633 292.908 119.446C293.207 119.25 293.44 118.989 293.608 118.662C293.776 118.326 293.86 117.939 293.86 117.5C293.86 117.061 293.771 116.679 293.594 116.352C293.426 116.016 293.193 115.755 292.894 115.568C292.595 115.372 292.25 115.274 291.858 115.274C291.466 115.274 291.121 115.367 290.822 115.554C290.523 115.741 290.29 116.002 290.122 116.338C289.954 116.674 289.87 117.061 289.87 117.5C289.87 117.939 289.954 118.326 290.122 118.662C290.299 118.989 290.537 119.25 290.836 119.446C291.144 119.633 291.494 119.726 291.886 119.726ZM296.801 121V114H298.271L298.369 115.288V121H296.801ZM301.547 121V117.416L303.115 116.996V121H301.547ZM306.307 121V117.416L307.861 116.996V121H306.307ZM301.547 117.416C301.547 116.856 301.481 116.427 301.351 116.128C301.229 115.82 301.052 115.605 300.819 115.484C300.595 115.363 300.329 115.302 300.021 115.302C299.498 115.293 299.092 115.465 298.803 115.82C298.513 116.175 298.369 116.683 298.369 117.346H297.781C297.781 116.609 297.888 115.979 298.103 115.456C298.317 114.924 298.625 114.523 299.027 114.252C299.428 113.972 299.904 113.832 300.455 113.832C301.304 113.832 301.957 114.093 302.415 114.616C302.881 115.129 303.115 115.923 303.115 116.996L301.547 117.416ZM306.307 117.416C306.307 116.856 306.241 116.427 306.111 116.128C305.98 115.82 305.798 115.605 305.565 115.484C305.341 115.363 305.079 115.302 304.781 115.302C304.249 115.293 303.838 115.465 303.549 115.82C303.259 116.175 303.115 116.683 303.115 117.346H302.527C302.527 116.609 302.634 115.979 302.849 115.456C303.063 114.924 303.371 114.523 303.773 114.252C304.174 113.972 304.65 113.832 305.201 113.832C306.05 113.832 306.708 114.093 307.175 114.616C307.641 115.129 307.87 115.923 307.861 116.996L306.307 117.416ZM309.461 121V114H310.931L311.029 115.288V121H309.461ZM314.207 121V117.416L315.775 116.996V121H314.207ZM318.967 121V117.416L320.521 116.996V121H318.967ZM314.207 117.416C314.207 116.856 314.141 116.427 314.011 116.128C313.889 115.82 313.712 115.605 313.479 115.484C313.255 115.363 312.989 115.302 312.681 115.302C312.158 115.293 311.752 115.465 311.463 115.82C311.173 116.175 311.029 116.683 311.029 117.346H310.441C310.441 116.609 310.548 115.979 310.763 115.456C310.977 114.924 311.285 114.523 311.687 114.252C312.088 113.972 312.564 113.832 313.115 113.832C313.964 113.832 314.617 114.093 315.075 114.616C315.541 115.129 315.775 115.923 315.775 116.996L314.207 117.416ZM318.967 117.416C318.967 116.856 318.901 116.427 318.771 116.128C318.64 115.82 318.458 115.605 318.225 115.484C318.001 115.363 317.739 115.302 317.441 115.302C316.909 115.293 316.498 115.465 316.209 115.82C315.919 116.175 315.775 116.683 315.775 117.346H315.187C315.187 116.609 315.294 115.979 315.509 115.456C315.723 114.924 316.031 114.523 316.433 114.252C316.834 113.972 317.31 113.832 317.861 113.832C318.71 113.832 319.368 114.093 319.835 114.616C320.301 115.129 320.53 115.923 320.521 116.996L318.967 117.416ZM322.219 121L322.233 114H323.787L323.773 121H322.219ZM323.003 112.67C322.751 112.67 322.532 112.581 322.345 112.404C322.168 112.217 322.079 111.998 322.079 111.746C322.079 111.494 322.168 111.279 322.345 111.102C322.532 110.925 322.751 110.836 323.003 110.836C323.255 110.836 323.47 110.925 323.647 111.102C323.834 111.279 323.927 111.494 323.927 111.746C323.927 111.998 323.834 112.217 323.647 112.404C323.47 112.581 323.255 112.67 323.003 112.67ZM328.407 121.168C327.67 121.168 327.105 120.986 326.713 120.622C326.33 120.249 326.139 119.717 326.139 119.026V111.816H327.693V118.732C327.693 119.059 327.768 119.306 327.917 119.474C328.076 119.642 328.304 119.726 328.603 119.726C328.696 119.726 328.799 119.707 328.911 119.67C329.023 119.633 329.149 119.563 329.289 119.46L329.863 120.65C329.62 120.818 329.378 120.944 329.135 121.028C328.892 121.121 328.65 121.168 328.407 121.168ZM324.977 115.344V114H329.583V115.344H324.977ZM333.665 121.168C333.198 121.168 332.769 121.098 332.377 120.958C331.985 120.818 331.649 120.622 331.369 120.37C331.089 120.109 330.874 119.805 330.725 119.46L332.083 118.858C332.223 119.119 332.428 119.339 332.699 119.516C332.979 119.693 333.287 119.782 333.623 119.782C333.987 119.782 334.276 119.721 334.491 119.6C334.715 119.469 334.827 119.292 334.827 119.068C334.827 118.853 334.743 118.69 334.575 118.578C334.407 118.457 334.169 118.359 333.861 118.284L333.203 118.102C332.54 117.934 332.022 117.668 331.649 117.304C331.276 116.931 331.089 116.506 331.089 116.03C331.089 115.33 331.313 114.789 331.761 114.406C332.218 114.023 332.872 113.832 333.721 113.832C334.15 113.832 334.542 113.897 334.897 114.028C335.261 114.149 335.574 114.327 335.835 114.56C336.096 114.784 336.278 115.05 336.381 115.358L335.079 115.946C334.986 115.713 334.808 115.535 334.547 115.414C334.286 115.283 333.996 115.218 333.679 115.218C333.362 115.218 333.114 115.288 332.937 115.428C332.76 115.559 332.671 115.745 332.671 115.988C332.671 116.128 332.75 116.259 332.909 116.38C333.068 116.492 333.296 116.585 333.595 116.66L334.421 116.856C334.878 116.968 335.252 117.145 335.541 117.388C335.83 117.621 336.045 117.887 336.185 118.186C336.325 118.475 336.395 118.769 336.395 119.068C336.395 119.488 336.274 119.857 336.031 120.174C335.798 120.491 335.476 120.739 335.065 120.916C334.654 121.084 334.188 121.168 333.665 121.168Z" fill="#21333F"/>
<path fill-rule="evenodd" clip-rule="evenodd" d="M305.684 160.768C306.026 160.446 306.041 159.908 305.719 159.567L301.528 155.129C300.699 154.251 299.303 154.251 298.474 155.129L294.283 159.567C293.96 159.908 293.976 160.446 294.317 160.768C294.658 161.09 295.196 161.075 295.519 160.734L299.71 156.296C299.868 156.129 300.134 156.129 300.292 156.296L304.483 160.734C304.805 161.075 305.343 161.09 305.684 160.768Z" fill="#55B4ED"/>
<path fill-rule="evenodd" clip-rule="evenodd" d="M305.684 172.768C306.026 172.446 306.041 171.908 305.719 171.567L301.528 167.129C300.699 166.251 299.303 166.251 298.474 167.129L294.283 171.567C293.96 171.908 293.976 172.446 294.317 172.768C294.658 173.09 295.196 173.075 295.519 172.734L299.71 168.296C299.868 168.129 300.134 168.129 300.292 168.296L304.483 172.734C304.805 173.075 305.343 173.09 305.684 172.768Z" fill="#55B4ED"/>
<path fill-rule="evenodd" clip-rule="evenodd" d="M305.684 184.768C306.026 184.446 306.041 183.908 305.719 183.567L301.528 179.129C300.699 178.251 299.303 178.251 298.474 179.129L294.283 183.567C293.96 183.908 293.976 184.446 294.317 184.768C294.658 185.09 295.196 185.075 295.519 184.734L299.71 180.296C299.868 180.129 300.134 180.129 300.292 180.296L304.483 184.734C304.805 185.075 305.343 185.09 305.684 184.768Z" fill="#55B4ED"/>
<path fill-rule="evenodd" clip-rule="evenodd" d="M305.684 196.768C306.026 196.446 306.041 195.908 305.719 195.567L301.528 191.129C300.699 190.251 299.303 190.251 298.474 191.129L294.283 195.567C293.96 195.908 293.976 196.446 294.317 196.768C294.658 197.09 295.196 197.075 295.519 196.734L299.71 192.296C299.868 192.129 300.134 192.129 300.292 192.296L304.483 196.734C304.805 197.075 305.343 197.09 305.684 196.768Z" fill="#55B4ED"/>
</svg>
