<svg width="640" height="320" viewBox="0 0 640 320" fill="none" xmlns="http://www.w3.org/2000/svg">
<g clip-path="url(#clip0_12038_102049)">
<path d="M337 184C337 179.582 340.582 176 345 176H385C389.418 176 393 179.582 393 184V196C393 200.418 389.418 204 385 204H345C340.582 204 337 200.418 337 196V184Z" fill="#007FB4"/>
<path d="M349.868 195V188H351.338L351.436 189.288V195H349.868ZM354.614 195V191.416L356.182 190.996V195H354.614ZM359.374 195V191.416L360.928 190.996V195H359.374ZM354.614 191.416C354.614 190.856 354.549 190.427 354.418 190.128C354.297 189.82 354.119 189.605 353.886 189.484C353.662 189.363 353.396 189.302 353.088 189.302C352.565 189.293 352.159 189.465 351.87 189.82C351.581 190.175 351.436 190.683 351.436 191.346H350.848C350.848 190.609 350.955 189.979 351.17 189.456C351.385 188.924 351.693 188.523 352.094 188.252C352.495 187.972 352.971 187.832 353.522 187.832C354.371 187.832 355.025 188.093 355.482 188.616C355.949 189.129 356.182 189.923 356.182 190.996L354.614 191.416ZM359.374 191.416C359.374 190.856 359.309 190.427 359.178 190.128C359.047 189.82 358.865 189.605 358.632 189.484C358.408 189.363 358.147 189.302 357.848 189.302C357.316 189.293 356.905 189.465 356.616 189.82C356.327 190.175 356.182 190.683 356.182 191.346H355.594C355.594 190.609 355.701 189.979 355.916 189.456C356.131 188.924 356.439 188.523 356.84 188.252C357.241 187.972 357.717 187.832 358.268 187.832C359.117 187.832 359.775 188.093 360.242 188.616C360.709 189.129 360.937 189.923 360.928 190.996L359.374 191.416ZM366.91 195L366.84 193.684V191.402C366.84 190.926 366.789 190.529 366.686 190.212C366.583 189.895 366.42 189.652 366.196 189.484C365.981 189.316 365.697 189.232 365.342 189.232C365.015 189.232 364.726 189.302 364.474 189.442C364.222 189.582 364.012 189.797 363.844 190.086L362.416 189.582C362.575 189.274 362.78 188.985 363.032 188.714C363.284 188.443 363.601 188.229 363.984 188.07C364.376 187.911 364.838 187.832 365.37 187.832C366.051 187.832 366.616 187.958 367.064 188.21C367.521 188.462 367.862 188.835 368.086 189.33C368.31 189.825 368.422 190.436 368.422 191.164L368.38 195H366.91ZM364.922 195.168C364.082 195.168 363.429 194.981 362.962 194.608C362.505 194.235 362.276 193.707 362.276 193.026C362.276 192.298 362.519 191.743 363.004 191.36C363.499 190.977 364.185 190.786 365.062 190.786H366.938V191.99H365.566C364.941 191.99 364.502 192.079 364.25 192.256C363.998 192.424 363.872 192.667 363.872 192.984C363.872 193.255 363.979 193.469 364.194 193.628C364.418 193.777 364.726 193.852 365.118 193.852C365.463 193.852 365.762 193.773 366.014 193.614C366.275 193.446 366.476 193.231 366.616 192.97C366.765 192.699 366.84 192.41 366.84 192.102H367.414C367.414 193.054 367.209 193.805 366.798 194.356C366.397 194.897 365.771 195.168 364.922 195.168ZM370.248 195L370.262 188H371.816L371.802 195H370.248ZM371.032 186.67C370.78 186.67 370.561 186.581 370.374 186.404C370.197 186.217 370.108 185.998 370.108 185.746C370.108 185.494 370.197 185.279 370.374 185.102C370.561 184.925 370.78 184.836 371.032 184.836C371.284 184.836 371.499 184.925 371.676 185.102C371.863 185.279 371.956 185.494 371.956 185.746C371.956 185.998 371.863 186.217 371.676 186.404C371.499 186.581 371.284 186.67 371.032 186.67ZM373.79 195V188H375.26L375.358 189.288V195H373.79ZM378.536 195V191.416L380.104 190.996V195H378.536ZM378.536 191.416C378.536 190.856 378.471 190.427 378.34 190.128C378.219 189.82 378.041 189.605 377.808 189.484C377.584 189.363 377.318 189.302 377.01 189.302C376.487 189.293 376.081 189.465 375.792 189.82C375.503 190.175 375.358 190.683 375.358 191.346H374.77C374.77 190.609 374.877 189.979 375.092 189.456C375.307 188.924 375.615 188.523 376.016 188.252C376.417 187.972 376.893 187.832 377.444 187.832C378.293 187.832 378.947 188.093 379.404 188.616C379.871 189.129 380.104 189.923 380.104 190.996L378.536 191.416Z" fill="white"/>
<path d="M332 190L338 185L338 195L332 190Z" fill="#007FB4"/>
<path d="M299 116C299 111.582 302.582 108 307 108H367C371.418 108 375 111.582 375 116V128C375 132.418 371.418 136 367 136H307C302.582 136 299 132.418 299 128V116Z" fill="#A85D9F"/>
<path d="M316.922 127L316.852 125.698V117.2H318.406V127H316.922ZM314.64 127.168C314.005 127.168 313.45 127.019 312.974 126.72C312.507 126.412 312.139 125.983 311.868 125.432C311.607 124.881 311.476 124.237 311.476 123.5C311.476 122.753 311.607 122.109 311.868 121.568C312.139 121.017 312.507 120.593 312.974 120.294C313.45 119.986 314.005 119.832 314.64 119.832C315.228 119.832 315.732 119.986 316.152 120.294C316.581 120.593 316.908 121.017 317.132 121.568C317.356 122.109 317.468 122.753 317.468 123.5C317.468 124.237 317.356 124.881 317.132 125.432C316.908 125.983 316.581 126.412 316.152 126.72C315.732 127.019 315.228 127.168 314.64 127.168ZM315.032 125.74C315.387 125.74 315.699 125.647 315.97 125.46C316.25 125.264 316.465 124.998 316.614 124.662C316.773 124.326 316.852 123.939 316.852 123.5C316.852 123.061 316.773 122.674 316.614 122.338C316.465 122.002 316.25 121.741 315.97 121.554C315.699 121.367 315.382 121.274 315.018 121.274C314.645 121.274 314.313 121.367 314.024 121.554C313.735 121.741 313.506 122.002 313.338 122.338C313.179 122.674 313.095 123.061 313.086 123.5C313.095 123.939 313.179 124.326 313.338 124.662C313.506 124.998 313.735 125.264 314.024 125.46C314.323 125.647 314.659 125.74 315.032 125.74ZM323.401 127.168C322.72 127.168 322.113 127.014 321.581 126.706C321.059 126.389 320.643 125.955 320.335 125.404C320.037 124.853 319.887 124.219 319.887 123.5C319.887 122.781 320.041 122.147 320.349 121.596C320.657 121.045 321.077 120.616 321.609 120.308C322.151 119.991 322.767 119.832 323.457 119.832C324.083 119.832 324.643 119.995 325.137 120.322C325.641 120.639 326.043 121.101 326.341 121.708C326.64 122.315 326.789 123.038 326.789 123.878H325.207C325.207 123.271 325.133 122.772 324.983 122.38C324.843 121.988 324.638 121.699 324.367 121.512C324.106 121.316 323.784 121.218 323.401 121.218C323 121.218 322.655 121.307 322.365 121.484C322.076 121.661 321.857 121.923 321.707 122.268C321.558 122.604 321.483 123.029 321.483 123.542C321.483 123.999 321.572 124.391 321.749 124.718C321.936 125.045 322.183 125.297 322.491 125.474C322.809 125.642 323.159 125.726 323.541 125.726C323.961 125.726 324.307 125.633 324.577 125.446C324.848 125.25 325.058 125.003 325.207 124.704L326.649 125.32C326.453 125.693 326.201 126.02 325.893 126.3C325.595 126.58 325.235 126.795 324.815 126.944C324.405 127.093 323.933 127.168 323.401 127.168ZM320.923 123.878V122.632H325.963V123.878H320.923ZM330.125 127L332.855 120H334.479L331.595 127H330.125ZM330.013 127L327.115 120H328.725L331.469 127H330.013ZM338.529 127.168C337.848 127.168 337.241 127.014 336.709 126.706C336.186 126.389 335.771 125.955 335.463 125.404C335.164 124.853 335.015 124.219 335.015 123.5C335.015 122.781 335.169 122.147 335.477 121.596C335.785 121.045 336.205 120.616 336.737 120.308C337.278 119.991 337.894 119.832 338.585 119.832C339.21 119.832 339.77 119.995 340.265 120.322C340.769 120.639 341.17 121.101 341.469 121.708C341.768 122.315 341.917 123.038 341.917 123.878H340.335C340.335 123.271 340.26 122.772 340.111 122.38C339.971 121.988 339.766 121.699 339.495 121.512C339.234 121.316 338.912 121.218 338.529 121.218C338.128 121.218 337.782 121.307 337.493 121.484C337.204 121.661 336.984 121.923 336.835 122.268C336.686 122.604 336.611 123.029 336.611 123.542C336.611 123.999 336.7 124.391 336.877 124.718C337.064 125.045 337.311 125.297 337.619 125.474C337.936 125.642 338.286 125.726 338.669 125.726C339.089 125.726 339.434 125.633 339.705 125.446C339.976 125.25 340.186 125.003 340.335 124.704L341.777 125.32C341.581 125.693 341.329 126.02 341.021 126.3C340.722 126.58 340.363 126.795 339.943 126.944C339.532 127.093 339.061 127.168 338.529 127.168ZM336.051 123.878V122.632H341.091V123.878H336.051ZM343.258 127V117.2H344.826V127H343.258ZM349.927 127.168C349.227 127.168 348.601 127.014 348.051 126.706C347.509 126.389 347.085 125.955 346.777 125.404C346.469 124.853 346.315 124.219 346.315 123.5C346.315 122.781 346.464 122.147 346.763 121.596C347.071 121.045 347.495 120.616 348.037 120.308C348.578 119.991 349.199 119.832 349.899 119.832C350.599 119.832 351.219 119.991 351.761 120.308C352.302 120.616 352.722 121.045 353.021 121.596C353.329 122.147 353.483 122.781 353.483 123.5C353.483 124.219 353.333 124.853 353.035 125.404C352.736 125.955 352.316 126.389 351.775 126.706C351.233 127.014 350.617 127.168 349.927 127.168ZM349.927 125.726C350.309 125.726 350.65 125.633 350.949 125.446C351.247 125.25 351.481 124.989 351.649 124.662C351.817 124.326 351.901 123.939 351.901 123.5C351.901 123.061 351.812 122.679 351.635 122.352C351.467 122.016 351.233 121.755 350.935 121.568C350.636 121.372 350.291 121.274 349.899 121.274C349.507 121.274 349.161 121.367 348.863 121.554C348.564 121.741 348.331 122.002 348.163 122.338C347.995 122.674 347.911 123.061 347.911 123.5C347.911 123.939 347.995 124.326 348.163 124.662C348.34 124.989 348.578 125.25 348.877 125.446C349.185 125.633 349.535 125.726 349.927 125.726ZM355.051 129.8V120H356.521L356.619 121.288V129.8H355.051ZM358.831 127.168C358.243 127.168 357.735 127.019 357.305 126.72C356.885 126.412 356.563 125.983 356.339 125.432C356.115 124.881 356.003 124.237 356.003 123.5C356.003 122.753 356.115 122.109 356.339 121.568C356.563 121.017 356.885 120.593 357.305 120.294C357.735 119.986 358.243 119.832 358.831 119.832C359.466 119.832 360.017 119.986 360.483 120.294C360.959 120.593 361.328 121.017 361.589 121.568C361.86 122.109 361.995 122.753 361.995 123.5C361.995 124.237 361.86 124.881 361.589 125.432C361.328 125.983 360.959 126.412 360.483 126.72C360.017 127.019 359.466 127.168 358.831 127.168ZM358.439 125.74C358.813 125.74 359.144 125.647 359.433 125.46C359.723 125.264 359.951 124.998 360.119 124.662C360.297 124.326 360.385 123.939 360.385 123.5C360.385 123.061 360.301 122.674 360.133 122.338C359.975 122.002 359.751 121.741 359.461 121.554C359.172 121.367 358.836 121.274 358.453 121.274C358.099 121.274 357.781 121.367 357.501 121.554C357.221 121.741 357.002 122.002 356.843 122.338C356.694 122.674 356.619 123.061 356.619 123.5C356.619 123.939 356.694 124.326 356.843 124.662C357.002 124.998 357.217 125.264 357.487 125.46C357.767 125.647 358.085 125.74 358.439 125.74Z" fill="white"/>
<path d="M294 122L300 117L300 127L294 122Z" fill="#A85D9F"/>
<path d="M261 48C261 43.5817 264.582 40 269 40H325C329.418 40 333 43.5817 333 48V60C333 64.4183 329.418 68 325 68H269C264.582 68 261 64.4183 261 60V48Z" fill="#268755"/>
<path d="M274.568 59V51.258C274.568 50.5207 274.75 49.956 275.114 49.564C275.487 49.1627 276.047 48.962 276.794 48.962C277.037 48.962 277.293 49.004 277.564 49.088C277.844 49.1627 278.11 49.2653 278.362 49.396L277.788 50.558C277.611 50.474 277.452 50.4133 277.312 50.376C277.181 50.3387 277.065 50.32 276.962 50.32C276.682 50.32 276.472 50.4133 276.332 50.6C276.201 50.7773 276.136 51.0713 276.136 51.482V59H274.568ZM273.364 53.288V52H277.97V53.288H273.364ZM282.38 59.168C281.699 59.168 281.092 59.014 280.56 58.706C280.037 58.3887 279.622 57.9547 279.314 57.404C279.015 56.8533 278.866 56.2187 278.866 55.5C278.866 54.7813 279.02 54.1467 279.328 53.596C279.636 53.0453 280.056 52.616 280.588 52.308C281.129 51.9907 281.745 51.832 282.436 51.832C283.061 51.832 283.621 51.9953 284.116 52.322C284.62 52.6393 285.021 53.1013 285.32 53.708C285.619 54.3147 285.768 55.038 285.768 55.878H284.186C284.186 55.2713 284.111 54.772 283.962 54.38C283.822 53.988 283.617 53.6987 283.346 53.512C283.085 53.316 282.763 53.218 282.38 53.218C281.979 53.218 281.633 53.3067 281.344 53.484C281.055 53.6613 280.835 53.9227 280.686 54.268C280.537 54.604 280.462 55.0287 280.462 55.542C280.462 55.9993 280.551 56.3913 280.728 56.718C280.915 57.0447 281.162 57.2967 281.47 57.474C281.787 57.642 282.137 57.726 282.52 57.726C282.94 57.726 283.285 57.6327 283.556 57.446C283.827 57.25 284.037 57.0027 284.186 56.704L285.628 57.32C285.432 57.6933 285.18 58.02 284.872 58.3C284.573 58.58 284.214 58.7947 283.794 58.944C283.383 59.0933 282.912 59.168 282.38 59.168ZM279.902 55.878V54.632H284.942V55.878H279.902ZM291.351 59L291.281 57.684V55.402C291.281 54.926 291.23 54.5293 291.127 54.212C291.024 53.8947 290.861 53.652 290.637 53.484C290.422 53.316 290.138 53.232 289.783 53.232C289.456 53.232 289.167 53.302 288.915 53.442C288.663 53.582 288.453 53.7967 288.285 54.086L286.857 53.582C287.016 53.274 287.221 52.9847 287.473 52.714C287.725 52.4433 288.042 52.2287 288.425 52.07C288.817 51.9113 289.279 51.832 289.811 51.832C290.492 51.832 291.057 51.958 291.505 52.21C291.962 52.462 292.303 52.8353 292.527 53.33C292.751 53.8247 292.863 54.436 292.863 55.164L292.821 59H291.351ZM289.363 59.168C288.523 59.168 287.87 58.9813 287.403 58.608C286.946 58.2347 286.717 57.7073 286.717 57.026C286.717 56.298 286.96 55.7427 287.445 55.36C287.94 54.9773 288.626 54.786 289.503 54.786H291.379V55.99H290.007C289.382 55.99 288.943 56.0787 288.691 56.256C288.439 56.424 288.313 56.6667 288.313 56.984C288.313 57.2547 288.42 57.4693 288.635 57.628C288.859 57.7773 289.167 57.852 289.559 57.852C289.904 57.852 290.203 57.7727 290.455 57.614C290.716 57.446 290.917 57.2313 291.057 56.97C291.206 56.6993 291.281 56.41 291.281 56.102H291.855C291.855 57.054 291.65 57.8053 291.239 58.356C290.838 58.8973 290.212 59.168 289.363 59.168ZM297.377 59.168C296.639 59.168 296.075 58.986 295.683 58.622C295.3 58.2487 295.109 57.7167 295.109 57.026V49.816H296.663V56.732C296.663 57.0587 296.737 57.306 296.887 57.474C297.045 57.642 297.274 57.726 297.573 57.726C297.666 57.726 297.769 57.7073 297.881 57.67C297.993 57.6327 298.119 57.5627 298.259 57.46L298.833 58.65C298.59 58.818 298.347 58.944 298.105 59.028C297.862 59.1213 297.619 59.168 297.377 59.168ZM293.947 53.344V52H298.553V53.344H293.947ZM304.917 59L304.833 57.712V52H306.387V59H304.917ZM300.073 56.004V52H301.641V55.584L300.073 56.004ZM301.641 55.584C301.641 56.1347 301.706 56.564 301.837 56.872C301.967 57.18 302.145 57.3947 302.369 57.516C302.602 57.6373 302.868 57.698 303.167 57.698C303.699 57.7073 304.109 57.5347 304.399 57.18C304.688 56.8253 304.833 56.3167 304.833 55.654H305.421C305.421 56.3913 305.309 57.026 305.085 57.558C304.87 58.0807 304.562 58.482 304.161 58.762C303.769 59.0327 303.297 59.168 302.747 59.168C301.897 59.168 301.239 58.9067 300.773 58.384C300.306 57.8613 300.073 57.068 300.073 56.004L301.641 55.584ZM309.305 55.276C309.305 54.52 309.45 53.8993 309.739 53.414C310.029 52.9287 310.402 52.5693 310.859 52.336C311.326 52.0933 311.811 51.972 312.315 51.972V53.47C311.886 53.47 311.48 53.5307 311.097 53.652C310.724 53.764 310.421 53.9507 310.187 54.212C309.954 54.4733 309.837 54.8187 309.837 55.248L309.305 55.276ZM308.269 59V52H309.837V59H308.269ZM316.617 59.168C315.936 59.168 315.329 59.014 314.797 58.706C314.274 58.3887 313.859 57.9547 313.551 57.404C313.252 56.8533 313.103 56.2187 313.103 55.5C313.103 54.7813 313.257 54.1467 313.565 53.596C313.873 53.0453 314.293 52.616 314.825 52.308C315.366 51.9907 315.982 51.832 316.673 51.832C317.298 51.832 317.858 51.9953 318.353 52.322C318.857 52.6393 319.258 53.1013 319.557 53.708C319.856 54.3147 320.005 55.038 320.005 55.878H318.423C318.423 55.2713 318.348 54.772 318.199 54.38C318.059 53.988 317.854 53.6987 317.583 53.512C317.322 53.316 317 53.218 316.617 53.218C316.216 53.218 315.87 53.3067 315.581 53.484C315.292 53.6613 315.072 53.9227 314.923 54.268C314.774 54.604 314.699 55.0287 314.699 55.542C314.699 55.9993 314.788 56.3913 314.965 56.718C315.152 57.0447 315.399 57.2967 315.707 57.474C316.024 57.642 316.374 57.726 316.757 57.726C317.177 57.726 317.522 57.6327 317.793 57.446C318.064 57.25 318.274 57.0027 318.423 56.704L319.865 57.32C319.669 57.6933 319.417 58.02 319.109 58.3C318.81 58.58 318.451 58.7947 318.031 58.944C317.62 59.0933 317.149 59.168 316.617 59.168ZM314.139 55.878V54.632H319.179V55.878H314.139Z" fill="white"/>
<path d="M256 54L262 49L262 59L256 54Z" fill="#268755"/>
<circle cx="284" cy="122" r="3" fill="#C577BB"/>
<path d="M284 128L284 184" stroke="#C577BB" stroke-width="2" stroke-linecap="round" stroke-linejoin="round"/>
<circle cx="284" cy="190" r="3" fill="#C577BB"/>
<path d="M284 196L284 252" stroke="#C577BB" stroke-width="2" stroke-linecap="round" stroke-linejoin="round"/>
<circle cx="284" cy="258" r="3" fill="#C577BB"/>
<path d="M284 264L284 320" stroke="#C577BB" stroke-width="2" stroke-linecap="round" stroke-linejoin="round"/>
<circle cx="246" cy="54" r="3" fill="#45A26D"/>
<path d="M246 60L246 116" stroke="#45A26D" stroke-width="2" stroke-linecap="round" stroke-linejoin="round"/>
<circle cx="246" cy="122" r="3" fill="#45A26D"/>
<path d="M246 128L246 184" stroke="#45A26D" stroke-width="2" stroke-linecap="round" stroke-linejoin="round"/>
<circle cx="246" cy="190" r="3" fill="#45A26D"/>
<path d="M246 196L246 252" stroke="#45A26D" stroke-width="2" stroke-linecap="round" stroke-linejoin="round"/>
<circle cx="246" cy="258" r="3" fill="#45A26D"/>
<path d="M246 264L246 320" stroke="#45A26D" stroke-width="2" stroke-linecap="round" stroke-linejoin="round"/>
<circle cx="322" cy="190" r="3" fill="#3399D1"/>
<path d="M322 196L322 252" stroke="#3399D1" stroke-width="2" stroke-linecap="round" stroke-linejoin="round"/>
<circle cx="322" cy="258" r="3" fill="#3399D1"/>
<path d="M322 264L322 320" stroke="#3399D1" stroke-width="2" stroke-linecap="round" stroke-linejoin="round"/>
</g>
<defs>
<clipPath id="clip0_12038_102049">
<rect width="640" height="320" fill="white"/>
</clipPath>
</defs>
</svg>
