<svg width="600" height="320" viewBox="0 0 600 320" fill="none" xmlns="http://www.w3.org/2000/svg">
<g clip-path="url(#clip0_12156_4654)">
<path d="M252.5 224C252.5 215.44 259.44 208.5 268 208.5H332C340.56 208.5 347.5 215.44 347.5 224V272C347.5 280.56 340.56 287.5 332 287.5H268C259.44 287.5 252.5 280.56 252.5 272V224Z" fill="white"/>
<path d="M252.5 224C252.5 215.44 259.44 208.5 268 208.5H332C340.56 208.5 347.5 215.44 347.5 224V272C347.5 280.56 340.56 287.5 332 287.5H268C259.44 287.5 252.5 280.56 252.5 272V224Z" stroke="#B6C9D8"/>
<mask id="mask0_12156_4654" style="mask-type:alpha" maskUnits="userSpaceOnUse" x="288" y="224" width="24" height="24">
<rect x="288" y="224" width="24" height="24" fill="#D9D9D9"/>
</mask>
<g mask="url(#mask0_12156_4654)">
<path d="M288 244V242H292V241C291.45 241 290.979 240.804 290.588 240.413C290.196 240.021 290 239.55 290 239V229C290 228.45 290.196 227.979 290.588 227.588C290.979 227.196 291.45 227 292 227H308C308.55 227 309.021 227.196 309.413 227.588C309.804 227.979 310 228.45 310 229V239C310 239.55 309.804 240.021 309.413 240.413C309.021 240.804 308.55 241 308 241V242H312V244H288ZM292 239H308V229H292V239Z" fill="#006590"/>
</g>
<path d="M282 266V254.8H283.856V266H282ZM283.296 266V264.304H288.928V266H283.296ZM293.828 266.192C293.028 266.192 292.314 266.016 291.684 265.664C291.066 265.301 290.58 264.805 290.228 264.176C289.876 263.547 289.7 262.821 289.7 262C289.7 261.179 289.871 260.453 290.212 259.824C290.564 259.195 291.05 258.704 291.668 258.352C292.287 257.989 292.996 257.808 293.796 257.808C294.596 257.808 295.306 257.989 295.924 258.352C296.543 258.704 297.023 259.195 297.364 259.824C297.716 260.453 297.892 261.179 297.892 262C297.892 262.821 297.722 263.547 297.38 264.176C297.039 264.805 296.559 265.301 295.94 265.664C295.322 266.016 294.618 266.192 293.828 266.192ZM293.828 264.544C294.266 264.544 294.655 264.437 294.996 264.224C295.338 264 295.604 263.701 295.796 263.328C295.988 262.944 296.084 262.501 296.084 262C296.084 261.499 295.983 261.061 295.78 260.688C295.588 260.304 295.322 260.005 294.98 259.792C294.639 259.568 294.244 259.456 293.796 259.456C293.348 259.456 292.954 259.563 292.612 259.776C292.271 259.989 292.004 260.288 291.812 260.672C291.62 261.056 291.524 261.499 291.524 262C291.524 262.501 291.62 262.944 291.812 263.328C292.015 263.701 292.287 264 292.628 264.224C292.98 264.437 293.38 264.544 293.828 264.544ZM303.189 266.192C302.368 266.192 301.642 266.016 301.013 265.664C300.384 265.301 299.888 264.805 299.525 264.176C299.173 263.547 298.997 262.821 298.997 262C298.997 261.179 299.173 260.453 299.525 259.824C299.888 259.195 300.378 258.704 300.997 258.352C301.626 257.989 302.346 257.808 303.157 257.808C303.946 257.808 304.661 258 305.301 258.384C305.941 258.757 306.416 259.296 306.725 260L305.061 260.64C304.89 260.288 304.629 260.005 304.277 259.792C303.925 259.579 303.525 259.472 303.077 259.472C302.64 259.472 302.25 259.584 301.909 259.808C301.568 260.021 301.301 260.32 301.109 260.704C300.917 261.077 300.821 261.509 300.821 262C300.821 262.491 300.917 262.928 301.109 263.312C301.312 263.685 301.584 263.984 301.925 264.208C302.277 264.421 302.672 264.528 303.109 264.528C303.557 264.528 303.957 264.416 304.309 264.192C304.661 263.957 304.922 263.643 305.093 263.248L306.757 263.888C306.448 264.613 305.973 265.179 305.333 265.584C304.704 265.989 303.989 266.192 303.189 266.192ZM312.996 266L312.916 264.496V261.888C312.916 261.344 312.858 260.891 312.74 260.528C312.623 260.165 312.436 259.888 312.18 259.696C311.935 259.504 311.61 259.408 311.204 259.408C310.831 259.408 310.5 259.488 310.212 259.648C309.924 259.808 309.684 260.053 309.492 260.384L307.86 259.808C308.042 259.456 308.276 259.125 308.564 258.816C308.852 258.507 309.215 258.261 309.652 258.08C310.1 257.899 310.628 257.808 311.236 257.808C312.015 257.808 312.66 257.952 313.172 258.24C313.695 258.528 314.084 258.955 314.34 259.52C314.596 260.085 314.724 260.784 314.724 261.616L314.676 266H312.996ZM310.724 266.192C309.764 266.192 309.018 265.979 308.484 265.552C307.962 265.125 307.7 264.523 307.7 263.744C307.7 262.912 307.978 262.277 308.532 261.84C309.098 261.403 309.882 261.184 310.884 261.184H313.028V262.56H311.46C310.746 262.56 310.244 262.661 309.956 262.864C309.668 263.056 309.524 263.333 309.524 263.696C309.524 264.005 309.647 264.251 309.892 264.432C310.148 264.603 310.5 264.688 310.948 264.688C311.343 264.688 311.684 264.597 311.972 264.416C312.271 264.224 312.5 263.979 312.66 263.68C312.831 263.371 312.916 263.04 312.916 262.688H313.572C313.572 263.776 313.338 264.635 312.868 265.264C312.41 265.883 311.695 266.192 310.724 266.192ZM316.539 266V254.8H318.331V266H316.539Z" fill="#21333F"/>
<path d="M252.5 80C252.5 71.4396 259.44 64.5 268 64.5H332C340.56 64.5 347.5 71.4396 347.5 80V128C347.5 136.56 340.56 143.5 332 143.5H268C259.44 143.5 252.5 136.56 252.5 128V80Z" fill="white"/>
<path d="M252.5 80C252.5 71.4396 259.44 64.5 268 64.5H332C340.56 64.5 347.5 71.4396 347.5 80V128C347.5 136.56 340.56 143.5 332 143.5H268C259.44 143.5 252.5 136.56 252.5 128V80Z" stroke="#B6C9D8"/>
<mask id="mask1_12156_4654" style="mask-type:alpha" maskUnits="userSpaceOnUse" x="286" y="80" width="24" height="24">
<rect x="286" y="80" width="24" height="24" fill="#D9D9D9"/>
</mask>
<g mask="url(#mask1_12156_4654)">
<path d="M292.5 100C290.967 100 289.667 99.4667 288.6 98.4C287.533 97.3333 287 96.0333 287 94.5C287 93.2 287.404 92.0542 288.212 91.0625C289.021 90.0708 290.033 89.4333 291.25 89.15C291.667 87.65 292.492 86.4167 293.725 85.45C294.958 84.4833 296.383 84 298 84C299.983 84 301.646 84.6875 302.988 86.0625C304.329 87.4375 305 89.0833 305 91C306.25 91.1333 307.229 91.65 307.938 92.55C308.646 93.45 309 94.425 309 95.475C309 96.725 308.562 97.7917 307.688 98.675C306.812 99.5583 305.75 100 304.5 100H292.5ZM292.5 98H304.5C305.2 98 305.792 97.7583 306.275 97.275C306.758 96.7917 307 96.2 307 95.5C307 94.8 306.758 94.2083 306.275 93.725C305.792 93.2417 305.2 93 304.5 93H303V91C303 89.6167 302.513 88.4375 301.538 87.4625C300.562 86.4875 299.383 86 298 86C296.95 86 296.017 86.2875 295.2 86.8625C294.383 87.4375 293.783 88.175 293.4 89.075C294.533 89.2583 295.508 89.7458 296.325 90.5375C297.142 91.3292 297.667 92.2833 297.9 93.4C297.967 93.6833 297.896 93.9375 297.688 94.1625C297.479 94.3875 297.208 94.5 296.875 94.5C296.642 94.5 296.438 94.4208 296.262 94.2625C296.087 94.1042 295.967 93.9 295.9 93.65C295.717 92.9 295.308 92.2708 294.675 91.7625C294.042 91.2542 293.317 91 292.5 91C291.533 91 290.708 91.3417 290.025 92.025C289.342 92.7083 289 93.5333 289 94.5C289 95.4667 289.342 96.2917 290.025 96.975C290.708 97.6583 291.533 98 292.5 98Z" fill="#006590"/>
</g>
<path d="M272.133 117.872V116.16H274.485C274.848 116.16 275.168 116.08 275.445 115.92C275.733 115.76 275.962 115.541 276.133 115.264C276.314 114.987 276.405 114.672 276.405 114.32C276.405 113.787 276.213 113.349 275.829 113.008C275.445 112.667 274.949 112.496 274.341 112.496H272.133V110.8L274.405 110.784C275.173 110.773 275.85 110.923 276.437 111.232C277.024 111.531 277.482 111.947 277.813 112.48C278.144 113.013 278.309 113.627 278.309 114.32C278.309 115.013 278.133 115.627 277.781 116.16C277.44 116.693 276.965 117.115 276.357 117.424C275.749 117.723 275.061 117.872 274.293 117.872H272.133ZM270.453 122V110.8H272.309V122H270.453ZM276.661 122L274.037 117.456L275.477 116.464L278.757 122H276.661ZM283.873 122.192C283.094 122.192 282.401 122.016 281.793 121.664C281.195 121.301 280.721 120.805 280.368 120.176C280.027 119.547 279.857 118.821 279.857 118C279.857 117.179 280.033 116.453 280.385 115.824C280.737 115.195 281.217 114.704 281.825 114.352C282.443 113.989 283.147 113.808 283.937 113.808C284.651 113.808 285.291 113.995 285.857 114.368C286.433 114.731 286.891 115.259 287.233 115.952C287.574 116.645 287.745 117.472 287.745 118.432H285.937C285.937 117.739 285.851 117.168 285.681 116.72C285.521 116.272 285.286 115.941 284.977 115.728C284.678 115.504 284.31 115.392 283.873 115.392C283.414 115.392 283.019 115.493 282.689 115.696C282.358 115.899 282.107 116.197 281.937 116.592C281.766 116.976 281.681 117.461 281.681 118.048C281.681 118.571 281.782 119.019 281.985 119.392C282.198 119.765 282.481 120.053 282.833 120.256C283.195 120.448 283.595 120.544 284.033 120.544C284.513 120.544 284.907 120.437 285.217 120.224C285.526 120 285.766 119.717 285.937 119.376L287.585 120.08C287.361 120.507 287.073 120.88 286.721 121.2C286.379 121.52 285.969 121.765 285.489 121.936C285.019 122.107 284.481 122.192 283.873 122.192ZM281.041 118.432V117.008H286.801V118.432H281.041ZM289.117 122V114H290.797L290.909 115.472V122H289.117ZM294.541 122V117.904L296.333 117.424V122H294.541ZM299.981 122V117.904L301.757 117.424V122H299.981ZM294.541 117.904C294.541 117.264 294.466 116.773 294.317 116.432C294.178 116.08 293.976 115.835 293.709 115.696C293.453 115.557 293.149 115.488 292.797 115.488C292.2 115.477 291.736 115.675 291.405 116.08C291.074 116.485 290.909 117.067 290.909 117.824H290.237C290.237 116.981 290.36 116.261 290.605 115.664C290.85 115.056 291.202 114.597 291.661 114.288C292.12 113.968 292.664 113.808 293.293 113.808C294.264 113.808 295.01 114.107 295.533 114.704C296.066 115.291 296.333 116.197 296.333 117.424L294.541 117.904ZM299.981 117.904C299.981 117.264 299.906 116.773 299.757 116.432C299.608 116.08 299.4 115.835 299.133 115.696C298.877 115.557 298.578 115.488 298.237 115.488C297.629 115.477 297.16 115.675 296.829 116.08C296.498 116.485 296.333 117.067 296.333 117.824H295.661C295.661 116.981 295.784 116.261 296.029 115.664C296.274 115.056 296.626 114.597 297.085 114.288C297.544 113.968 298.088 113.808 298.717 113.808C299.688 113.808 300.44 114.107 300.973 114.704C301.506 115.291 301.768 116.197 301.757 117.424L299.981 117.904ZM307.266 122.192C306.466 122.192 305.751 122.016 305.122 121.664C304.503 121.301 304.018 120.805 303.666 120.176C303.314 119.547 303.138 118.821 303.138 118C303.138 117.179 303.308 116.453 303.65 115.824C304.002 115.195 304.487 114.704 305.106 114.352C305.724 113.989 306.434 113.808 307.234 113.808C308.034 113.808 308.743 113.989 309.362 114.352C309.98 114.704 310.46 115.195 310.802 115.824C311.154 116.453 311.33 117.179 311.33 118C311.33 118.821 311.159 119.547 310.818 120.176C310.476 120.805 309.996 121.301 309.378 121.664C308.759 122.016 308.055 122.192 307.266 122.192ZM307.266 120.544C307.703 120.544 308.092 120.437 308.434 120.224C308.775 120 309.042 119.701 309.234 119.328C309.426 118.944 309.522 118.501 309.522 118C309.522 117.499 309.42 117.061 309.218 116.688C309.026 116.304 308.759 116.005 308.418 115.792C308.076 115.568 307.682 115.456 307.234 115.456C306.786 115.456 306.391 115.563 306.05 115.776C305.708 115.989 305.442 116.288 305.25 116.672C305.058 117.056 304.962 117.499 304.962 118C304.962 118.501 305.058 118.944 305.25 119.328C305.452 119.701 305.724 120 306.066 120.224C306.418 120.437 306.818 120.544 307.266 120.544ZM316.067 122.192C315.224 122.192 314.579 121.984 314.131 121.568C313.693 121.141 313.475 120.533 313.475 119.744V111.504H315.251V119.408C315.251 119.781 315.336 120.064 315.507 120.256C315.688 120.448 315.949 120.544 316.291 120.544C316.397 120.544 316.515 120.523 316.643 120.48C316.771 120.437 316.915 120.357 317.075 120.24L317.731 121.6C317.453 121.792 317.176 121.936 316.899 122.032C316.621 122.139 316.344 122.192 316.067 122.192ZM312.147 115.536V114H317.411V115.536H312.147ZM322.623 122.192C321.844 122.192 321.151 122.016 320.543 121.664C319.945 121.301 319.471 120.805 319.118 120.176C318.777 119.547 318.607 118.821 318.607 118C318.607 117.179 318.783 116.453 319.135 115.824C319.487 115.195 319.967 114.704 320.575 114.352C321.193 113.989 321.897 113.808 322.687 113.808C323.401 113.808 324.041 113.995 324.607 114.368C325.183 114.731 325.641 115.259 325.983 115.952C326.324 116.645 326.495 117.472 326.495 118.432H324.687C324.687 117.739 324.601 117.168 324.431 116.72C324.271 116.272 324.036 115.941 323.727 115.728C323.428 115.504 323.06 115.392 322.623 115.392C322.164 115.392 321.769 115.493 321.439 115.696C321.108 115.899 320.857 116.197 320.687 116.592C320.516 116.976 320.431 117.461 320.431 118.048C320.431 118.571 320.532 119.019 320.735 119.392C320.948 119.765 321.231 120.053 321.583 120.256C321.945 120.448 322.345 120.544 322.783 120.544C323.263 120.544 323.657 120.437 323.967 120.224C324.276 120 324.516 119.717 324.687 119.376L326.335 120.08C326.111 120.507 325.823 120.88 325.471 121.2C325.129 121.52 324.719 121.765 324.239 121.936C323.769 122.107 323.231 122.192 322.623 122.192ZM319.791 118.432V117.008H325.551V118.432H319.791Z" fill="#21333F"/>
<path d="M372.5 56C372.5 47.4396 379.44 40.5 388 40.5H452C460.56 40.5 467.5 47.4396 467.5 56V104C467.5 112.56 460.56 119.5 452 119.5H388C379.44 119.5 372.5 112.56 372.5 104V56Z" fill="white"/>
<path d="M372.5 56C372.5 47.4396 379.44 40.5 388 40.5H452C460.56 40.5 467.5 47.4396 467.5 56V104C467.5 112.56 460.56 119.5 452 119.5H388C379.44 119.5 372.5 112.56 372.5 104V56Z" stroke="#B6C9D8"/>
<mask id="mask2_12156_4654" style="mask-type:alpha" maskUnits="userSpaceOnUse" x="406" y="56" width="24" height="24">
<rect x="406" y="56" width="24" height="24" fill="#D9D9D9"/>
</mask>
<g mask="url(#mask2_12156_4654)">
<path d="M412.5 76C410.967 76 409.667 75.4667 408.6 74.4C407.533 73.3333 407 72.0333 407 70.5C407 69.2 407.404 68.0542 408.212 67.0625C409.021 66.0708 410.033 65.4333 411.25 65.15C411.667 63.65 412.492 62.4167 413.725 61.45C414.958 60.4833 416.383 60 418 60C419.983 60 421.646 60.6875 422.988 62.0625C424.329 63.4375 425 65.0833 425 67C426.25 67.1333 427.229 67.65 427.938 68.55C428.646 69.45 429 70.425 429 71.475C429 72.725 428.562 73.7917 427.688 74.675C426.812 75.5583 425.75 76 424.5 76H412.5ZM412.5 74H424.5C425.2 74 425.792 73.7583 426.275 73.275C426.758 72.7917 427 72.2 427 71.5C427 70.8 426.758 70.2083 426.275 69.725C425.792 69.2417 425.2 69 424.5 69H423V67C423 65.6167 422.513 64.4375 421.538 63.4625C420.562 62.4875 419.383 62 418 62C416.95 62 416.017 62.2875 415.2 62.8625C414.383 63.4375 413.783 64.175 413.4 65.075C414.533 65.2583 415.508 65.7458 416.325 66.5375C417.142 67.3292 417.667 68.2833 417.9 69.4C417.967 69.6833 417.896 69.9375 417.688 70.1625C417.479 70.3875 417.208 70.5 416.875 70.5C416.642 70.5 416.438 70.4208 416.262 70.2625C416.087 70.1042 415.967 69.9 415.9 69.65C415.717 68.9 415.308 68.2708 414.675 67.7625C414.042 67.2542 413.317 67 412.5 67C411.533 67 410.708 67.3417 410.025 68.025C409.342 68.7083 409 69.5333 409 70.5C409 71.4667 409.342 72.2917 410.025 72.975C410.708 73.6583 411.533 74 412.5 74Z" fill="#006590"/>
</g>
<path d="M392.133 93.872V92.16H394.485C394.848 92.16 395.168 92.08 395.445 91.92C395.733 91.76 395.962 91.5413 396.133 91.264C396.314 90.9867 396.405 90.672 396.405 90.32C396.405 89.7867 396.213 89.3493 395.829 89.008C395.445 88.6667 394.949 88.496 394.341 88.496H392.133V86.8L394.405 86.784C395.173 86.7733 395.85 86.9227 396.437 87.232C397.024 87.5307 397.482 87.9467 397.813 88.48C398.144 89.0133 398.309 89.6267 398.309 90.32C398.309 91.0133 398.133 91.6267 397.781 92.16C397.44 92.6933 396.965 93.1147 396.357 93.424C395.749 93.7227 395.061 93.872 394.293 93.872H392.133ZM390.453 98V86.8H392.309V98H390.453ZM396.661 98L394.037 93.456L395.477 92.464L398.757 98H396.661ZM403.873 98.192C403.094 98.192 402.401 98.016 401.793 97.664C401.195 97.3013 400.721 96.8053 400.368 96.176C400.027 95.5467 399.857 94.8213 399.857 94C399.857 93.1787 400.033 92.4533 400.385 91.824C400.737 91.1947 401.217 90.704 401.825 90.352C402.443 89.9893 403.147 89.808 403.937 89.808C404.651 89.808 405.291 89.9947 405.857 90.368C406.433 90.7307 406.891 91.2587 407.233 91.952C407.574 92.6453 407.745 93.472 407.745 94.432H405.937C405.937 93.7387 405.851 93.168 405.681 92.72C405.521 92.272 405.286 91.9413 404.977 91.728C404.678 91.504 404.31 91.392 403.873 91.392C403.414 91.392 403.019 91.4933 402.689 91.696C402.358 91.8987 402.107 92.1973 401.937 92.592C401.766 92.976 401.681 93.4613 401.681 94.048C401.681 94.5707 401.782 95.0187 401.985 95.392C402.198 95.7653 402.481 96.0533 402.833 96.256C403.195 96.448 403.595 96.544 404.033 96.544C404.513 96.544 404.907 96.4373 405.217 96.224C405.526 96 405.766 95.7173 405.937 95.376L407.585 96.08C407.361 96.5067 407.073 96.88 406.721 97.2C406.379 97.52 405.969 97.7653 405.489 97.936C405.019 98.1067 404.481 98.192 403.873 98.192ZM401.041 94.432V93.008H406.801V94.432H401.041ZM409.117 98V90H410.797L410.909 91.472V98H409.117ZM414.541 98V93.904L416.333 93.424V98H414.541ZM419.981 98V93.904L421.757 93.424V98H419.981ZM414.541 93.904C414.541 93.264 414.466 92.7733 414.317 92.432C414.178 92.08 413.976 91.8347 413.709 91.696C413.453 91.5573 413.149 91.488 412.797 91.488C412.2 91.4773 411.736 91.6747 411.405 92.08C411.074 92.4853 410.909 93.0667 410.909 93.824H410.237C410.237 92.9813 410.36 92.2613 410.605 91.664C410.85 91.056 411.202 90.5973 411.661 90.288C412.12 89.968 412.664 89.808 413.293 89.808C414.264 89.808 415.01 90.1067 415.533 90.704C416.066 91.2907 416.333 92.1973 416.333 93.424L414.541 93.904ZM419.981 93.904C419.981 93.264 419.906 92.7733 419.757 92.432C419.608 92.08 419.4 91.8347 419.133 91.696C418.877 91.5573 418.578 91.488 418.237 91.488C417.629 91.4773 417.16 91.6747 416.829 92.08C416.498 92.4853 416.333 93.0667 416.333 93.824H415.661C415.661 92.9813 415.784 92.2613 416.029 91.664C416.274 91.056 416.626 90.5973 417.085 90.288C417.544 89.968 418.088 89.808 418.717 89.808C419.688 89.808 420.44 90.1067 420.973 90.704C421.506 91.2907 421.768 92.1973 421.757 93.424L419.981 93.904ZM427.266 98.192C426.466 98.192 425.751 98.016 425.122 97.664C424.503 97.3013 424.018 96.8053 423.666 96.176C423.314 95.5467 423.138 94.8213 423.138 94C423.138 93.1787 423.308 92.4533 423.65 91.824C424.002 91.1947 424.487 90.704 425.106 90.352C425.724 89.9893 426.434 89.808 427.234 89.808C428.034 89.808 428.743 89.9893 429.362 90.352C429.98 90.704 430.46 91.1947 430.802 91.824C431.154 92.4533 431.33 93.1787 431.33 94C431.33 94.8213 431.159 95.5467 430.818 96.176C430.476 96.8053 429.996 97.3013 429.378 97.664C428.759 98.016 428.055 98.192 427.266 98.192ZM427.266 96.544C427.703 96.544 428.092 96.4373 428.434 96.224C428.775 96 429.042 95.7013 429.234 95.328C429.426 94.944 429.522 94.5013 429.522 94C429.522 93.4987 429.42 93.0613 429.218 92.688C429.026 92.304 428.759 92.0053 428.418 91.792C428.076 91.568 427.682 91.456 427.234 91.456C426.786 91.456 426.391 91.5627 426.05 91.776C425.708 91.9893 425.442 92.288 425.25 92.672C425.058 93.056 424.962 93.4987 424.962 94C424.962 94.5013 425.058 94.944 425.25 95.328C425.452 95.7013 425.724 96 426.066 96.224C426.418 96.4373 426.818 96.544 427.266 96.544ZM436.067 98.192C435.224 98.192 434.579 97.984 434.131 97.568C433.693 97.1413 433.475 96.5333 433.475 95.744V87.504H435.251V95.408C435.251 95.7813 435.336 96.064 435.507 96.256C435.688 96.448 435.949 96.544 436.291 96.544C436.397 96.544 436.515 96.5227 436.643 96.48C436.771 96.4373 436.915 96.3573 437.075 96.24L437.731 97.6C437.453 97.792 437.176 97.936 436.899 98.032C436.621 98.1387 436.344 98.192 436.067 98.192ZM432.147 91.536V90H437.411V91.536H432.147ZM442.623 98.192C441.844 98.192 441.151 98.016 440.543 97.664C439.945 97.3013 439.471 96.8053 439.118 96.176C438.777 95.5467 438.607 94.8213 438.607 94C438.607 93.1787 438.783 92.4533 439.135 91.824C439.487 91.1947 439.967 90.704 440.575 90.352C441.193 89.9893 441.897 89.808 442.687 89.808C443.401 89.808 444.041 89.9947 444.607 90.368C445.183 90.7307 445.641 91.2587 445.983 91.952C446.324 92.6453 446.495 93.472 446.495 94.432H444.687C444.687 93.7387 444.601 93.168 444.431 92.72C444.271 92.272 444.036 91.9413 443.727 91.728C443.428 91.504 443.06 91.392 442.623 91.392C442.164 91.392 441.769 91.4933 441.439 91.696C441.108 91.8987 440.857 92.1973 440.687 92.592C440.516 92.976 440.431 93.4613 440.431 94.048C440.431 94.5707 440.532 95.0187 440.735 95.392C440.948 95.7653 441.231 96.0533 441.583 96.256C441.945 96.448 442.345 96.544 442.783 96.544C443.263 96.544 443.657 96.4373 443.967 96.224C444.276 96 444.516 95.7173 444.687 95.376L446.335 96.08C446.111 96.5067 445.823 96.88 445.471 97.2C445.129 97.52 444.719 97.7653 444.239 97.936C443.769 98.1067 443.231 98.192 442.623 98.192ZM439.791 94.432V93.008H445.551V94.432H439.791Z" fill="#21333F"/>
<path d="M132.5 56C132.5 47.4396 139.44 40.5 148 40.5H212C220.56 40.5 227.5 47.4396 227.5 56V104C227.5 112.56 220.56 119.5 212 119.5H148C139.44 119.5 132.5 112.56 132.5 104V56Z" fill="white"/>
<path d="M132.5 56C132.5 47.4396 139.44 40.5 148 40.5H212C220.56 40.5 227.5 47.4396 227.5 56V104C227.5 112.56 220.56 119.5 212 119.5H148C139.44 119.5 132.5 112.56 132.5 104V56Z" stroke="#B6C9D8"/>
<mask id="mask3_12156_4654" style="mask-type:alpha" maskUnits="userSpaceOnUse" x="166" y="56" width="24" height="24">
<rect x="166" y="56" width="24" height="24" fill="#D9D9D9"/>
</mask>
<g mask="url(#mask3_12156_4654)">
<path d="M172.5 76C170.967 76 169.667 75.4667 168.6 74.4C167.533 73.3333 167 72.0333 167 70.5C167 69.2 167.404 68.0542 168.212 67.0625C169.021 66.0708 170.033 65.4333 171.25 65.15C171.667 63.65 172.492 62.4167 173.725 61.45C174.958 60.4833 176.383 60 178 60C179.983 60 181.646 60.6875 182.988 62.0625C184.329 63.4375 185 65.0833 185 67C186.25 67.1333 187.229 67.65 187.938 68.55C188.646 69.45 189 70.425 189 71.475C189 72.725 188.562 73.7917 187.688 74.675C186.812 75.5583 185.75 76 184.5 76H172.5ZM172.5 74H184.5C185.2 74 185.792 73.7583 186.275 73.275C186.758 72.7917 187 72.2 187 71.5C187 70.8 186.758 70.2083 186.275 69.725C185.792 69.2417 185.2 69 184.5 69H183V67C183 65.6167 182.513 64.4375 181.538 63.4625C180.562 62.4875 179.383 62 178 62C176.95 62 176.017 62.2875 175.2 62.8625C174.383 63.4375 173.783 64.175 173.4 65.075C174.533 65.2583 175.508 65.7458 176.325 66.5375C177.142 67.3292 177.667 68.2833 177.9 69.4C177.967 69.6833 177.896 69.9375 177.688 70.1625C177.479 70.3875 177.208 70.5 176.875 70.5C176.642 70.5 176.438 70.4208 176.262 70.2625C176.087 70.1042 175.967 69.9 175.9 69.65C175.717 68.9 175.308 68.2708 174.675 67.7625C174.042 67.2542 173.317 67 172.5 67C171.533 67 170.708 67.3417 170.025 68.025C169.342 68.7083 169 69.5333 169 70.5C169 71.4667 169.342 72.2917 170.025 72.975C170.708 73.6583 171.533 74 172.5 74Z" fill="#006590"/>
</g>
<path d="M152.133 93.872V92.16H154.485C154.848 92.16 155.168 92.08 155.445 91.92C155.733 91.76 155.962 91.5413 156.133 91.264C156.314 90.9867 156.405 90.672 156.405 90.32C156.405 89.7867 156.213 89.3493 155.829 89.008C155.445 88.6667 154.949 88.496 154.341 88.496H152.133V86.8L154.405 86.784C155.173 86.7733 155.85 86.9227 156.437 87.232C157.024 87.5307 157.482 87.9467 157.813 88.48C158.144 89.0133 158.309 89.6267 158.309 90.32C158.309 91.0133 158.133 91.6267 157.781 92.16C157.44 92.6933 156.965 93.1147 156.357 93.424C155.749 93.7227 155.061 93.872 154.293 93.872H152.133ZM150.453 98V86.8H152.309V98H150.453ZM156.661 98L154.037 93.456L155.477 92.464L158.757 98H156.661ZM163.873 98.192C163.094 98.192 162.401 98.016 161.793 97.664C161.195 97.3013 160.721 96.8053 160.368 96.176C160.027 95.5467 159.857 94.8213 159.857 94C159.857 93.1787 160.033 92.4533 160.385 91.824C160.737 91.1947 161.217 90.704 161.825 90.352C162.443 89.9893 163.147 89.808 163.937 89.808C164.651 89.808 165.291 89.9947 165.857 90.368C166.433 90.7307 166.891 91.2587 167.233 91.952C167.574 92.6453 167.745 93.472 167.745 94.432H165.937C165.937 93.7387 165.851 93.168 165.681 92.72C165.521 92.272 165.286 91.9413 164.977 91.728C164.678 91.504 164.31 91.392 163.873 91.392C163.414 91.392 163.019 91.4933 162.689 91.696C162.358 91.8987 162.107 92.1973 161.937 92.592C161.766 92.976 161.681 93.4613 161.681 94.048C161.681 94.5707 161.782 95.0187 161.985 95.392C162.198 95.7653 162.481 96.0533 162.833 96.256C163.195 96.448 163.595 96.544 164.033 96.544C164.513 96.544 164.907 96.4373 165.217 96.224C165.526 96 165.766 95.7173 165.937 95.376L167.585 96.08C167.361 96.5067 167.073 96.88 166.721 97.2C166.379 97.52 165.969 97.7653 165.489 97.936C165.019 98.1067 164.481 98.192 163.873 98.192ZM161.041 94.432V93.008H166.801V94.432H161.041ZM169.117 98V90H170.797L170.909 91.472V98H169.117ZM174.541 98V93.904L176.333 93.424V98H174.541ZM179.981 98V93.904L181.757 93.424V98H179.981ZM174.541 93.904C174.541 93.264 174.466 92.7733 174.317 92.432C174.178 92.08 173.976 91.8347 173.709 91.696C173.453 91.5573 173.149 91.488 172.797 91.488C172.2 91.4773 171.736 91.6747 171.405 92.08C171.074 92.4853 170.909 93.0667 170.909 93.824H170.237C170.237 92.9813 170.36 92.2613 170.605 91.664C170.85 91.056 171.202 90.5973 171.661 90.288C172.12 89.968 172.664 89.808 173.293 89.808C174.264 89.808 175.01 90.1067 175.533 90.704C176.066 91.2907 176.333 92.1973 176.333 93.424L174.541 93.904ZM179.981 93.904C179.981 93.264 179.906 92.7733 179.757 92.432C179.608 92.08 179.4 91.8347 179.133 91.696C178.877 91.5573 178.578 91.488 178.237 91.488C177.629 91.4773 177.16 91.6747 176.829 92.08C176.498 92.4853 176.333 93.0667 176.333 93.824H175.661C175.661 92.9813 175.784 92.2613 176.029 91.664C176.274 91.056 176.626 90.5973 177.085 90.288C177.544 89.968 178.088 89.808 178.717 89.808C179.688 89.808 180.44 90.1067 180.973 90.704C181.506 91.2907 181.768 92.1973 181.757 93.424L179.981 93.904ZM187.266 98.192C186.466 98.192 185.751 98.016 185.122 97.664C184.503 97.3013 184.018 96.8053 183.666 96.176C183.314 95.5467 183.138 94.8213 183.138 94C183.138 93.1787 183.308 92.4533 183.65 91.824C184.002 91.1947 184.487 90.704 185.106 90.352C185.724 89.9893 186.434 89.808 187.234 89.808C188.034 89.808 188.743 89.9893 189.362 90.352C189.98 90.704 190.46 91.1947 190.802 91.824C191.154 92.4533 191.33 93.1787 191.33 94C191.33 94.8213 191.159 95.5467 190.818 96.176C190.476 96.8053 189.996 97.3013 189.378 97.664C188.759 98.016 188.055 98.192 187.266 98.192ZM187.266 96.544C187.703 96.544 188.092 96.4373 188.434 96.224C188.775 96 189.042 95.7013 189.234 95.328C189.426 94.944 189.522 94.5013 189.522 94C189.522 93.4987 189.42 93.0613 189.218 92.688C189.026 92.304 188.759 92.0053 188.418 91.792C188.076 91.568 187.682 91.456 187.234 91.456C186.786 91.456 186.391 91.5627 186.05 91.776C185.708 91.9893 185.442 92.288 185.25 92.672C185.058 93.056 184.962 93.4987 184.962 94C184.962 94.5013 185.058 94.944 185.25 95.328C185.452 95.7013 185.724 96 186.066 96.224C186.418 96.4373 186.818 96.544 187.266 96.544ZM196.067 98.192C195.224 98.192 194.579 97.984 194.131 97.568C193.693 97.1413 193.475 96.5333 193.475 95.744V87.504H195.251V95.408C195.251 95.7813 195.336 96.064 195.507 96.256C195.688 96.448 195.949 96.544 196.291 96.544C196.397 96.544 196.515 96.5227 196.643 96.48C196.771 96.4373 196.915 96.3573 197.075 96.24L197.731 97.6C197.453 97.792 197.176 97.936 196.899 98.032C196.621 98.1387 196.344 98.192 196.067 98.192ZM192.147 91.536V90H197.411V91.536H192.147ZM202.623 98.192C201.844 98.192 201.151 98.016 200.543 97.664C199.945 97.3013 199.471 96.8053 199.118 96.176C198.777 95.5467 198.607 94.8213 198.607 94C198.607 93.1787 198.783 92.4533 199.135 91.824C199.487 91.1947 199.967 90.704 200.575 90.352C201.193 89.9893 201.897 89.808 202.687 89.808C203.401 89.808 204.041 89.9947 204.607 90.368C205.183 90.7307 205.641 91.2587 205.983 91.952C206.324 92.6453 206.495 93.472 206.495 94.432H204.687C204.687 93.7387 204.601 93.168 204.431 92.72C204.271 92.272 204.036 91.9413 203.727 91.728C203.428 91.504 203.06 91.392 202.623 91.392C202.164 91.392 201.769 91.4933 201.439 91.696C201.108 91.8987 200.857 92.1973 200.687 92.592C200.516 92.976 200.431 93.4613 200.431 94.048C200.431 94.5707 200.532 95.0187 200.735 95.392C200.948 95.7653 201.231 96.0533 201.583 96.256C201.945 96.448 202.345 96.544 202.783 96.544C203.263 96.544 203.657 96.4373 203.967 96.224C204.276 96 204.516 95.7173 204.687 95.376L206.335 96.08C206.111 96.5067 205.823 96.88 205.471 97.2C205.129 97.52 204.719 97.7653 204.239 97.936C203.769 98.1067 203.231 98.192 202.623 98.192ZM199.791 94.432V93.008H205.551V94.432H199.791Z" fill="#21333F"/>
<path d="M252.5 -24C252.5 -32.5604 259.44 -39.5 268 -39.5H332C340.56 -39.5 347.5 -32.5604 347.5 -24V24C347.5 32.5604 340.56 39.5 332 39.5H268C259.44 39.5 252.5 32.5604 252.5 24V-24Z" stroke="#9AAEBC"/>
<path d="M272.133 13.872V12.16H274.485C274.848 12.16 275.168 12.08 275.445 11.92C275.733 11.76 275.962 11.5413 276.133 11.264C276.314 10.9867 276.405 10.672 276.405 10.32C276.405 9.78667 276.213 9.34933 275.829 9.008C275.445 8.66667 274.949 8.496 274.341 8.496H272.133V6.8L274.405 6.784C275.173 6.77333 275.85 6.92267 276.437 7.232C277.024 7.53067 277.482 7.94667 277.813 8.48C278.144 9.01333 278.309 9.62667 278.309 10.32C278.309 11.0133 278.133 11.6267 277.781 12.16C277.44 12.6933 276.965 13.1147 276.357 13.424C275.749 13.7227 275.061 13.872 274.293 13.872H272.133ZM270.453 18V6.8H272.309V18H270.453ZM276.661 18L274.037 13.456L275.477 12.464L278.757 18H276.661ZM283.873 18.192C283.094 18.192 282.401 18.016 281.793 17.664C281.195 17.3013 280.721 16.8053 280.368 16.176C280.027 15.5467 279.857 14.8213 279.857 14C279.857 13.1787 280.033 12.4533 280.385 11.824C280.737 11.1947 281.217 10.704 281.825 10.352C282.443 9.98933 283.147 9.808 283.937 9.808C284.651 9.808 285.291 9.99467 285.857 10.368C286.433 10.7307 286.891 11.2587 287.233 11.952C287.574 12.6453 287.745 13.472 287.745 14.432H285.937C285.937 13.7387 285.851 13.168 285.681 12.72C285.521 12.272 285.286 11.9413 284.977 11.728C284.678 11.504 284.31 11.392 283.873 11.392C283.414 11.392 283.019 11.4933 282.689 11.696C282.358 11.8987 282.107 12.1973 281.937 12.592C281.766 12.976 281.681 13.4613 281.681 14.048C281.681 14.5707 281.782 15.0187 281.985 15.392C282.198 15.7653 282.481 16.0533 282.833 16.256C283.195 16.448 283.595 16.544 284.033 16.544C284.513 16.544 284.907 16.4373 285.217 16.224C285.526 16 285.766 15.7173 285.937 15.376L287.585 16.08C287.361 16.5067 287.073 16.88 286.721 17.2C286.379 17.52 285.969 17.7653 285.489 17.936C285.019 18.1067 284.481 18.192 283.873 18.192ZM281.041 14.432V13.008H286.801V14.432H281.041ZM289.117 18V10H290.797L290.909 11.472V18H289.117ZM294.541 18V13.904L296.333 13.424V18H294.541ZM299.981 18V13.904L301.757 13.424V18H299.981ZM294.541 13.904C294.541 13.264 294.466 12.7733 294.317 12.432C294.178 12.08 293.976 11.8347 293.709 11.696C293.453 11.5573 293.149 11.488 292.797 11.488C292.2 11.4773 291.736 11.6747 291.405 12.08C291.074 12.4853 290.909 13.0667 290.909 13.824H290.237C290.237 12.9813 290.36 12.2613 290.605 11.664C290.85 11.056 291.202 10.5973 291.661 10.288C292.12 9.968 292.664 9.808 293.293 9.808C294.264 9.808 295.01 10.1067 295.533 10.704C296.066 11.2907 296.333 12.1973 296.333 13.424L294.541 13.904ZM299.981 13.904C299.981 13.264 299.906 12.7733 299.757 12.432C299.608 12.08 299.4 11.8347 299.133 11.696C298.877 11.5573 298.578 11.488 298.237 11.488C297.629 11.4773 297.16 11.6747 296.829 12.08C296.498 12.4853 296.333 13.0667 296.333 13.824H295.661C295.661 12.9813 295.784 12.2613 296.029 11.664C296.274 11.056 296.626 10.5973 297.085 10.288C297.544 9.968 298.088 9.808 298.717 9.808C299.688 9.808 300.44 10.1067 300.973 10.704C301.506 11.2907 301.768 12.1973 301.757 13.424L299.981 13.904ZM307.266 18.192C306.466 18.192 305.751 18.016 305.122 17.664C304.503 17.3013 304.018 16.8053 303.666 16.176C303.314 15.5467 303.138 14.8213 303.138 14C303.138 13.1787 303.308 12.4533 303.65 11.824C304.002 11.1947 304.487 10.704 305.106 10.352C305.724 9.98933 306.434 9.808 307.234 9.808C308.034 9.808 308.743 9.98933 309.362 10.352C309.98 10.704 310.46 11.1947 310.802 11.824C311.154 12.4533 311.33 13.1787 311.33 14C311.33 14.8213 311.159 15.5467 310.818 16.176C310.476 16.8053 309.996 17.3013 309.378 17.664C308.759 18.016 308.055 18.192 307.266 18.192ZM307.266 16.544C307.703 16.544 308.092 16.4373 308.434 16.224C308.775 16 309.042 15.7013 309.234 15.328C309.426 14.944 309.522 14.5013 309.522 14C309.522 13.4987 309.42 13.0613 309.218 12.688C309.026 12.304 308.759 12.0053 308.418 11.792C308.076 11.568 307.682 11.456 307.234 11.456C306.786 11.456 306.391 11.5627 306.05 11.776C305.708 11.9893 305.442 12.288 305.25 12.672C305.058 13.056 304.962 13.4987 304.962 14C304.962 14.5013 305.058 14.944 305.25 15.328C305.452 15.7013 305.724 16 306.066 16.224C306.418 16.4373 306.818 16.544 307.266 16.544ZM316.067 18.192C315.224 18.192 314.579 17.984 314.131 17.568C313.693 17.1413 313.475 16.5333 313.475 15.744V7.504H315.251V15.408C315.251 15.7813 315.336 16.064 315.507 16.256C315.688 16.448 315.949 16.544 316.291 16.544C316.397 16.544 316.515 16.5227 316.643 16.48C316.771 16.4373 316.915 16.3573 317.075 16.24L317.731 17.6C317.453 17.792 317.176 17.936 316.899 18.032C316.621 18.1387 316.344 18.192 316.067 18.192ZM312.147 11.536V10H317.411V11.536H312.147ZM322.623 18.192C321.844 18.192 321.151 18.016 320.543 17.664C319.945 17.3013 319.471 16.8053 319.118 16.176C318.777 15.5467 318.607 14.8213 318.607 14C318.607 13.1787 318.783 12.4533 319.135 11.824C319.487 11.1947 319.967 10.704 320.575 10.352C321.193 9.98933 321.897 9.808 322.687 9.808C323.401 9.808 324.041 9.99467 324.607 10.368C325.183 10.7307 325.641 11.2587 325.983 11.952C326.324 12.6453 326.495 13.472 326.495 14.432H324.687C324.687 13.7387 324.601 13.168 324.431 12.72C324.271 12.272 324.036 11.9413 323.727 11.728C323.428 11.504 323.06 11.392 322.623 11.392C322.164 11.392 321.769 11.4933 321.439 11.696C321.108 11.8987 320.857 12.1973 320.687 12.592C320.516 12.976 320.431 13.4613 320.431 14.048C320.431 14.5707 320.532 15.0187 320.735 15.392C320.948 15.7653 321.231 16.0533 321.583 16.256C321.945 16.448 322.345 16.544 322.783 16.544C323.263 16.544 323.657 16.4373 323.967 16.224C324.276 16 324.516 15.7173 324.687 15.376L326.335 16.08C326.111 16.5067 325.823 16.88 325.471 17.2C325.129 17.52 324.719 17.7653 324.239 17.936C323.769 18.1067 323.231 18.192 322.623 18.192ZM319.791 14.432V13.008H325.551V14.432H319.791Z" fill="#9AAEBC"/>
<path d="M388 -63.5H452C460.56 -63.5 467.5 -56.5604 467.5 -48V0C467.5 8.56042 460.56 15.5 452 15.5H388C379.44 15.5 372.5 8.56041 372.5 0V-48C372.5 -56.5604 379.44 -63.5 388 -63.5Z" stroke="#9AAEBC"/>
<path d="M148 -63.5H212C220.56 -63.5 227.5 -56.5604 227.5 -48V0C227.5 8.56042 220.56 15.5 212 15.5H148C139.44 15.5 132.5 8.56041 132.5 0V-48C132.5 -56.5604 139.44 -63.5 148 -63.5Z" stroke="#9AAEBC"/>
<path d="M492.5 24C492.5 15.4396 499.44 8.5 508 8.5H572C580.56 8.5 587.5 15.4396 587.5 24V72C587.5 80.5604 580.56 87.5 572 87.5H508C499.44 87.5 492.5 80.5604 492.5 72V24Z" stroke="#9AAEBC"/>
<mask id="mask4_12156_4654" style="mask-type:alpha" maskUnits="userSpaceOnUse" x="526" y="24" width="24" height="24">
<rect x="526" y="24" width="24" height="24" fill="#D9D9D9"/>
</mask>
<g mask="url(#mask4_12156_4654)">
<path d="M532.5 44C530.967 44 529.667 43.4667 528.6 42.4C527.533 41.3333 527 40.0333 527 38.5C527 37.2 527.404 36.0542 528.212 35.0625C529.021 34.0708 530.033 33.4333 531.25 33.15C531.667 31.65 532.492 30.4167 533.725 29.45C534.958 28.4833 536.383 28 538 28C539.983 28 541.646 28.6875 542.988 30.0625C544.329 31.4375 545 33.0833 545 35C546.25 35.1333 547.229 35.65 547.938 36.55C548.646 37.45 549 38.425 549 39.475C549 40.725 548.562 41.7917 547.688 42.675C546.812 43.5583 545.75 44 544.5 44H532.5ZM532.5 42H544.5C545.2 42 545.792 41.7583 546.275 41.275C546.758 40.7917 547 40.2 547 39.5C547 38.8 546.758 38.2083 546.275 37.725C545.792 37.2417 545.2 37 544.5 37H543V35C543 33.6167 542.513 32.4375 541.538 31.4625C540.562 30.4875 539.383 30 538 30C536.95 30 536.017 30.2875 535.2 30.8625C534.383 31.4375 533.783 32.175 533.4 33.075C534.533 33.2583 535.508 33.7458 536.325 34.5375C537.142 35.3292 537.667 36.2833 537.9 37.4C537.967 37.6833 537.896 37.9375 537.688 38.1625C537.479 38.3875 537.208 38.5 536.875 38.5C536.642 38.5 536.438 38.4208 536.262 38.2625C536.087 38.1042 535.967 37.9 535.9 37.65C535.717 36.9 535.308 36.2708 534.675 35.7625C534.042 35.2542 533.317 35 532.5 35C531.533 35 530.708 35.3417 530.025 36.025C529.342 36.7083 529 37.5333 529 38.5C529 39.4667 529.342 40.2917 530.025 40.975C530.708 41.6583 531.533 42 532.5 42Z" fill="#55B4ED"/>
</g>
<path d="M512.133 61.872V60.16H514.485C514.848 60.16 515.168 60.08 515.445 59.92C515.733 59.76 515.962 59.5413 516.133 59.264C516.314 58.9867 516.405 58.672 516.405 58.32C516.405 57.7867 516.213 57.3493 515.829 57.008C515.445 56.6667 514.949 56.496 514.341 56.496H512.133V54.8L514.405 54.784C515.173 54.7733 515.85 54.9227 516.437 55.232C517.024 55.5307 517.482 55.9467 517.813 56.48C518.144 57.0133 518.309 57.6267 518.309 58.32C518.309 59.0133 518.133 59.6267 517.781 60.16C517.44 60.6933 516.965 61.1147 516.357 61.424C515.749 61.7227 515.061 61.872 514.293 61.872H512.133ZM510.453 66V54.8H512.309V66H510.453ZM516.661 66L514.037 61.456L515.477 60.464L518.757 66H516.661ZM523.873 66.192C523.094 66.192 522.401 66.016 521.793 65.664C521.195 65.3013 520.721 64.8053 520.368 64.176C520.027 63.5467 519.857 62.8213 519.857 62C519.857 61.1787 520.033 60.4533 520.385 59.824C520.737 59.1947 521.217 58.704 521.825 58.352C522.443 57.9893 523.147 57.808 523.937 57.808C524.651 57.808 525.291 57.9947 525.857 58.368C526.433 58.7307 526.891 59.2587 527.233 59.952C527.574 60.6453 527.745 61.472 527.745 62.432H525.937C525.937 61.7387 525.851 61.168 525.681 60.72C525.521 60.272 525.286 59.9413 524.977 59.728C524.678 59.504 524.31 59.392 523.873 59.392C523.414 59.392 523.019 59.4933 522.689 59.696C522.358 59.8987 522.107 60.1973 521.937 60.592C521.766 60.976 521.681 61.4613 521.681 62.048C521.681 62.5707 521.782 63.0187 521.985 63.392C522.198 63.7653 522.481 64.0533 522.833 64.256C523.195 64.448 523.595 64.544 524.033 64.544C524.513 64.544 524.907 64.4373 525.217 64.224C525.526 64 525.766 63.7173 525.937 63.376L527.585 64.08C527.361 64.5067 527.073 64.88 526.721 65.2C526.379 65.52 525.969 65.7653 525.489 65.936C525.019 66.1067 524.481 66.192 523.873 66.192ZM521.041 62.432V61.008H526.801V62.432H521.041ZM529.117 66V58H530.797L530.909 59.472V66H529.117ZM534.541 66V61.904L536.333 61.424V66H534.541ZM539.981 66V61.904L541.757 61.424V66H539.981ZM534.541 61.904C534.541 61.264 534.466 60.7733 534.317 60.432C534.178 60.08 533.976 59.8347 533.709 59.696C533.453 59.5573 533.149 59.488 532.797 59.488C532.2 59.4773 531.736 59.6747 531.405 60.08C531.074 60.4853 530.909 61.0667 530.909 61.824H530.237C530.237 60.9813 530.36 60.2613 530.605 59.664C530.85 59.056 531.202 58.5973 531.661 58.288C532.12 57.968 532.664 57.808 533.293 57.808C534.264 57.808 535.01 58.1067 535.533 58.704C536.066 59.2907 536.333 60.1973 536.333 61.424L534.541 61.904ZM539.981 61.904C539.981 61.264 539.906 60.7733 539.757 60.432C539.608 60.08 539.4 59.8347 539.133 59.696C538.877 59.5573 538.578 59.488 538.237 59.488C537.629 59.4773 537.16 59.6747 536.829 60.08C536.498 60.4853 536.333 61.0667 536.333 61.824H535.661C535.661 60.9813 535.784 60.2613 536.029 59.664C536.274 59.056 536.626 58.5973 537.085 58.288C537.544 57.968 538.088 57.808 538.717 57.808C539.688 57.808 540.44 58.1067 540.973 58.704C541.506 59.2907 541.768 60.1973 541.757 61.424L539.981 61.904ZM547.266 66.192C546.466 66.192 545.751 66.016 545.122 65.664C544.503 65.3013 544.018 64.8053 543.666 64.176C543.314 63.5467 543.138 62.8213 543.138 62C543.138 61.1787 543.308 60.4533 543.65 59.824C544.002 59.1947 544.487 58.704 545.106 58.352C545.724 57.9893 546.434 57.808 547.234 57.808C548.034 57.808 548.743 57.9893 549.362 58.352C549.98 58.704 550.46 59.1947 550.802 59.824C551.154 60.4533 551.33 61.1787 551.33 62C551.33 62.8213 551.159 63.5467 550.818 64.176C550.476 64.8053 549.996 65.3013 549.378 65.664C548.759 66.016 548.055 66.192 547.266 66.192ZM547.266 64.544C547.703 64.544 548.092 64.4373 548.434 64.224C548.775 64 549.042 63.7013 549.234 63.328C549.426 62.944 549.522 62.5013 549.522 62C549.522 61.4987 549.42 61.0613 549.218 60.688C549.026 60.304 548.759 60.0053 548.418 59.792C548.076 59.568 547.682 59.456 547.234 59.456C546.786 59.456 546.391 59.5627 546.05 59.776C545.708 59.9893 545.442 60.288 545.25 60.672C545.058 61.056 544.962 61.4987 544.962 62C544.962 62.5013 545.058 62.944 545.25 63.328C545.452 63.7013 545.724 64 546.066 64.224C546.418 64.4373 546.818 64.544 547.266 64.544ZM556.067 66.192C555.224 66.192 554.579 65.984 554.131 65.568C553.693 65.1413 553.475 64.5333 553.475 63.744V55.504H555.251V63.408C555.251 63.7813 555.336 64.064 555.507 64.256C555.688 64.448 555.949 64.544 556.291 64.544C556.397 64.544 556.515 64.5227 556.643 64.48C556.771 64.4373 556.915 64.3573 557.075 64.24L557.731 65.6C557.453 65.792 557.176 65.936 556.899 66.032C556.621 66.1387 556.344 66.192 556.067 66.192ZM552.147 59.536V58H557.411V59.536H552.147ZM562.623 66.192C561.844 66.192 561.151 66.016 560.543 65.664C559.945 65.3013 559.471 64.8053 559.118 64.176C558.777 63.5467 558.607 62.8213 558.607 62C558.607 61.1787 558.783 60.4533 559.135 59.824C559.487 59.1947 559.967 58.704 560.575 58.352C561.193 57.9893 561.897 57.808 562.687 57.808C563.401 57.808 564.041 57.9947 564.607 58.368C565.183 58.7307 565.641 59.2587 565.983 59.952C566.324 60.6453 566.495 61.472 566.495 62.432H564.687C564.687 61.7387 564.601 61.168 564.431 60.72C564.271 60.272 564.036 59.9413 563.727 59.728C563.428 59.504 563.06 59.392 562.623 59.392C562.164 59.392 561.769 59.4933 561.439 59.696C561.108 59.8987 560.857 60.1973 560.687 60.592C560.516 60.976 560.431 61.4613 560.431 62.048C560.431 62.5707 560.532 63.0187 560.735 63.392C560.948 63.7653 561.231 64.0533 561.583 64.256C561.945 64.448 562.345 64.544 562.783 64.544C563.263 64.544 563.657 64.4373 563.967 64.224C564.276 64 564.516 63.7173 564.687 63.376L566.335 64.08C566.111 64.5067 565.823 64.88 565.471 65.2C565.129 65.52 564.719 65.7653 564.239 65.936C563.769 66.1067 563.231 66.192 562.623 66.192ZM559.791 62.432V61.008H565.551V62.432H559.791Z" fill="#9AAEBC"/>
<path d="M12.5 24C12.5 15.4396 19.4396 8.5 28 8.5H92C100.56 8.5 107.5 15.4396 107.5 24V72C107.5 80.5604 100.56 87.5 92 87.5H28C19.4396 87.5 12.5 80.5604 12.5 72V24Z" stroke="#9AAEBC"/>
<mask id="mask5_12156_4654" style="mask-type:alpha" maskUnits="userSpaceOnUse" x="46" y="24" width="24" height="24">
<rect x="46" y="24" width="24" height="24" fill="#D9D9D9"/>
</mask>
<g mask="url(#mask5_12156_4654)">
<path d="M52.5 44C50.9667 44 49.6667 43.4667 48.6 42.4C47.5333 41.3333 47 40.0333 47 38.5C47 37.2 47.4042 36.0542 48.2125 35.0625C49.0208 34.0708 50.0333 33.4333 51.25 33.15C51.6667 31.65 52.4917 30.4167 53.725 29.45C54.9583 28.4833 56.3833 28 58 28C59.9833 28 61.6458 28.6875 62.9875 30.0625C64.3292 31.4375 65 33.0833 65 35C66.25 35.1333 67.2292 35.65 67.9375 36.55C68.6458 37.45 69 38.425 69 39.475C69 40.725 68.5625 41.7917 67.6875 42.675C66.8125 43.5583 65.75 44 64.5 44H52.5ZM52.5 42H64.5C65.2 42 65.7917 41.7583 66.275 41.275C66.7583 40.7917 67 40.2 67 39.5C67 38.8 66.7583 38.2083 66.275 37.725C65.7917 37.2417 65.2 37 64.5 37H63V35C63 33.6167 62.5125 32.4375 61.5375 31.4625C60.5625 30.4875 59.3833 30 58 30C56.95 30 56.0167 30.2875 55.2 30.8625C54.3833 31.4375 53.7833 32.175 53.4 33.075C54.5333 33.2583 55.5083 33.7458 56.325 34.5375C57.1417 35.3292 57.6667 36.2833 57.9 37.4C57.9667 37.6833 57.8958 37.9375 57.6875 38.1625C57.4792 38.3875 57.2083 38.5 56.875 38.5C56.6417 38.5 56.4375 38.4208 56.2625 38.2625C56.0875 38.1042 55.9667 37.9 55.9 37.65C55.7167 36.9 55.3083 36.2708 54.675 35.7625C54.0417 35.2542 53.3167 35 52.5 35C51.5333 35 50.7083 35.3417 50.025 36.025C49.3417 36.7083 49 37.5333 49 38.5C49 39.4667 49.3417 40.2917 50.025 40.975C50.7083 41.6583 51.5333 42 52.5 42Z" fill="#55B4ED"/>
</g>
<path d="M32.133 61.872V60.16H34.485C34.8477 60.16 35.1677 60.08 35.445 59.92C35.733 59.76 35.9623 59.5413 36.133 59.264C36.3143 58.9867 36.405 58.672 36.405 58.32C36.405 57.7867 36.213 57.3493 35.829 57.008C35.445 56.6667 34.949 56.496 34.341 56.496H32.133V54.8L34.405 54.784C35.173 54.7733 35.8503 54.9227 36.437 55.232C37.0237 55.5307 37.4823 55.9467 37.813 56.48C38.1437 57.0133 38.309 57.6267 38.309 58.32C38.309 59.0133 38.133 59.6267 37.781 60.16C37.4397 60.6933 36.965 61.1147 36.357 61.424C35.749 61.7227 35.061 61.872 34.293 61.872H32.133ZM30.453 66V54.8H32.309V66H30.453ZM36.661 66L34.037 61.456L35.477 60.464L38.757 66H36.661ZM43.8725 66.192C43.0938 66.192 42.4005 66.016 41.7925 65.664C41.1952 65.3013 40.7205 64.8053 40.3685 64.176C40.0272 63.5467 39.8565 62.8213 39.8565 62C39.8565 61.1787 40.0325 60.4533 40.3845 59.824C40.7365 59.1947 41.2165 58.704 41.8245 58.352C42.4432 57.9893 43.1472 57.808 43.9365 57.808C44.6512 57.808 45.2912 57.9947 45.8565 58.368C46.4325 58.7307 46.8912 59.2587 47.2325 59.952C47.5738 60.6453 47.7445 61.472 47.7445 62.432H45.9365C45.9365 61.7387 45.8512 61.168 45.6805 60.72C45.5205 60.272 45.2858 59.9413 44.9765 59.728C44.6778 59.504 44.3098 59.392 43.8725 59.392C43.4138 59.392 43.0192 59.4933 42.6885 59.696C42.3578 59.8987 42.1072 60.1973 41.9365 60.592C41.7658 60.976 41.6805 61.4613 41.6805 62.048C41.6805 62.5707 41.7818 63.0187 41.9845 63.392C42.1978 63.7653 42.4805 64.0533 42.8325 64.256C43.1952 64.448 43.5952 64.544 44.0325 64.544C44.5125 64.544 44.9072 64.4373 45.2165 64.224C45.5258 64 45.7658 63.7173 45.9365 63.376L47.5845 64.08C47.3605 64.5067 47.0725 64.88 46.7205 65.2C46.3792 65.52 45.9685 65.7653 45.4885 65.936C45.0192 66.1067 44.4805 66.192 43.8725 66.192ZM41.0405 62.432V61.008H46.8005V62.432H41.0405ZM49.117 66V58H50.797L50.909 59.472V66H49.117ZM54.541 66V61.904L56.333 61.424V66H54.541ZM59.981 66V61.904L61.757 61.424V66H59.981ZM54.541 61.904C54.541 61.264 54.4663 60.7733 54.317 60.432C54.1783 60.08 53.9757 59.8347 53.709 59.696C53.453 59.5573 53.149 59.488 52.797 59.488C52.1997 59.4773 51.7357 59.6747 51.405 60.08C51.0743 60.4853 50.909 61.0667 50.909 61.824H50.237C50.237 60.9813 50.3597 60.2613 50.605 59.664C50.8503 59.056 51.2023 58.5973 51.661 58.288C52.1197 57.968 52.6637 57.808 53.293 57.808C54.2637 57.808 55.0103 58.1067 55.533 58.704C56.0663 59.2907 56.333 60.1973 56.333 61.424L54.541 61.904ZM59.981 61.904C59.981 61.264 59.9063 60.7733 59.757 60.432C59.6077 60.08 59.3997 59.8347 59.133 59.696C58.877 59.5573 58.5783 59.488 58.237 59.488C57.629 59.4773 57.1597 59.6747 56.829 60.08C56.4983 60.4853 56.333 61.0667 56.333 61.824H55.661C55.661 60.9813 55.7837 60.2613 56.029 59.664C56.2743 59.056 56.6263 58.5973 57.085 58.288C57.5437 57.968 58.0877 57.808 58.717 57.808C59.6877 57.808 60.4397 58.1067 60.973 58.704C61.5063 59.2907 61.7677 60.1973 61.757 61.424L59.981 61.904ZM67.2658 66.192C66.4658 66.192 65.7511 66.016 65.1218 65.664C64.5031 65.3013 64.0178 64.8053 63.6658 64.176C63.3138 63.5467 63.1378 62.8213 63.1378 62C63.1378 61.1787 63.3084 60.4533 63.6497 59.824C64.0018 59.1947 64.4871 58.704 65.1058 58.352C65.7244 57.9893 66.4338 57.808 67.2338 57.808C68.0338 57.808 68.7431 57.9893 69.3618 58.352C69.9804 58.704 70.4604 59.1947 70.8018 59.824C71.1538 60.4533 71.3298 61.1787 71.3298 62C71.3298 62.8213 71.1591 63.5467 70.8177 64.176C70.4764 64.8053 69.9964 65.3013 69.3778 65.664C68.7591 66.016 68.0551 66.192 67.2658 66.192ZM67.2658 64.544C67.7031 64.544 68.0924 64.4373 68.4338 64.224C68.7751 64 69.0418 63.7013 69.2338 63.328C69.4258 62.944 69.5218 62.5013 69.5218 62C69.5218 61.4987 69.4204 61.0613 69.2178 60.688C69.0258 60.304 68.7591 60.0053 68.4178 59.792C68.0764 59.568 67.6818 59.456 67.2338 59.456C66.7858 59.456 66.3911 59.5627 66.0498 59.776C65.7084 59.9893 65.4418 60.288 65.2498 60.672C65.0578 61.056 64.9618 61.4987 64.9618 62C64.9618 62.5013 65.0578 62.944 65.2498 63.328C65.4524 63.7013 65.7244 64 66.0658 64.224C66.4178 64.4373 66.8178 64.544 67.2658 64.544ZM76.0666 66.192C75.224 66.192 74.5786 65.984 74.1306 65.568C73.6933 65.1413 73.4746 64.5333 73.4746 63.744V55.504H75.2506V63.408C75.2506 63.7813 75.336 64.064 75.5066 64.256C75.688 64.448 75.9493 64.544 76.2906 64.544C76.3973 64.544 76.5146 64.5227 76.6426 64.48C76.7706 64.4373 76.9146 64.3573 77.0746 64.24L77.7306 65.6C77.4533 65.792 77.176 65.936 76.8986 66.032C76.6213 66.1387 76.344 66.192 76.0666 66.192ZM72.1466 59.536V58H77.4106V59.536H72.1466ZM82.6225 66.192C81.8438 66.192 81.1505 66.016 80.5425 65.664C79.9452 65.3013 79.4705 64.8053 79.1185 64.176C78.7772 63.5467 78.6065 62.8213 78.6065 62C78.6065 61.1787 78.7825 60.4533 79.1345 59.824C79.4865 59.1947 79.9665 58.704 80.5745 58.352C81.1932 57.9893 81.8972 57.808 82.6865 57.808C83.4012 57.808 84.0412 57.9947 84.6065 58.368C85.1825 58.7307 85.6412 59.2587 85.9825 59.952C86.3238 60.6453 86.4945 61.472 86.4945 62.432H84.6865C84.6865 61.7387 84.6012 61.168 84.4305 60.72C84.2705 60.272 84.0358 59.9413 83.7265 59.728C83.4278 59.504 83.0598 59.392 82.6225 59.392C82.1638 59.392 81.7692 59.4933 81.4385 59.696C81.1078 59.8987 80.8572 60.1973 80.6865 60.592C80.5158 60.976 80.4305 61.4613 80.4305 62.048C80.4305 62.5707 80.5318 63.0187 80.7345 63.392C80.9478 63.7653 81.2305 64.0533 81.5825 64.256C81.9452 64.448 82.3452 64.544 82.7825 64.544C83.2625 64.544 83.6572 64.4373 83.9665 64.224C84.2758 64 84.5158 63.7173 84.6865 63.376L86.3345 64.08C86.1105 64.5067 85.8225 64.88 85.4705 65.2C85.1292 65.52 84.7185 65.7653 84.2385 65.936C83.7692 66.1067 83.2305 66.192 82.6225 66.192ZM79.7905 62.432V61.008H85.5505V62.432H79.7905Z" fill="#9AAEBC"/>
<path fill-rule="evenodd" clip-rule="evenodd" d="M420 126C421.105 126 422 126.895 422 128C422 129.105 421.105 130 420 130C418.895 130 418 129.105 418 128C418 126.896 418.895 126 420 126ZM420 134C421.105 134 422 134.895 422 136C422 137.104 421.105 138 420 138C418.895 138 418 137.105 418 136C418 134.896 418.895 134 420 134ZM420 142C421.105 142 422 142.895 422 144C422 145.104 421.105 146 420 146C418.895 146 418 145.105 418 144C418 142.896 418.895 142 420 142ZM420 150C421.105 150 422 150.895 422 152C422 153.104 421.105 154 420 154C418.895 154 418 153.105 418 152C418 150.896 418.895 150 420 150ZM420 158C421.105 158 422 158.895 422 160C422 161.104 421.105 162 420 162C418.895 162 418 161.105 418 160C418 158.896 418.895 158 420 158ZM418.86 166.27C419.816 166.823 420.143 168.047 419.59 169.003C419.037 169.959 417.813 170.286 416.857 169.732C415.901 169.179 415.574 167.956 416.128 167C416.681 166.044 417.904 165.717 418.86 166.27ZM413.732 172.857C414.286 173.813 413.959 175.037 413.003 175.59C412.047 176.143 410.823 175.816 410.27 174.86C409.717 173.904 410.044 172.681 411 172.128C411.956 171.575 413.179 171.901 413.732 172.857ZM406 176C406 177.105 405.105 178 404 178C402.896 178 402 177.105 402 176C402 174.895 402.895 174 404 174C405.104 174 406 174.895 406 176ZM398 176C398 177.105 397.105 178 396 178C394.896 178 394 177.105 394 176C394 174.895 394.895 174 396 174C397.104 174 398 174.895 398 176ZM390 176C390 177.105 389.105 178 388 178C386.896 178 386 177.105 386 176C386 174.895 386.895 174 388 174C389.104 174 390 174.895 390 176ZM382 176C382 177.105 381.105 178 380 178C378.896 178 378 177.105 378 176C378 174.895 378.895 174 380 174C381.104 174 382 174.895 382 176ZM374 176C374 177.105 373.105 178 372 178C370.896 178 370 177.105 370 176C370 174.895 370.895 174 372 174C373.104 174 374 174.895 374 176ZM366 176C366 177.105 365.105 178 364 178C362.896 178 362 177.105 362 176C362 174.895 362.895 174 364 174C365.104 174 366 174.895 366 176ZM358 176C358 177.105 357.105 178 356 178C354.896 178 354 177.105 354 176C354 174.895 354.895 174 356 174C357.104 174 358 174.895 358 176ZM350 176C350 177.105 349.105 178 348 178C346.896 178 346 177.105 346 176C346 174.895 346.895 174 348 174C349.104 174 350 174.895 350 176ZM342 176C342 177.105 341.105 178 340 178C338.896 178 338 177.105 338 176C338 174.895 338.895 174 340 174C341.104 174 342 174.895 342 176ZM334 176C334 177.105 333.105 178 332 178C330.896 178 330 177.105 330 176C330 174.895 330.895 174 332 174C333.104 174 334 174.895 334 176ZM326 176C326 177.105 325.105 178 324 178C322.896 178 322 177.105 322 176C322 174.895 322.895 174 324 174C325.104 174 326 174.895 326 176ZM318 176C318 177.105 317.105 178 316 178C314.896 178 314 177.105 314 176C314 174.895 314.895 174 316 174C317.104 174 318 174.895 318 176ZM310 176C310 177.105 309.105 178 308 178C306.896 178 306 177.105 306 176C306 174.895 306.895 174 308 174C309.104 174 310 174.895 310 176ZM299.222 177.843C298.715 177.629 298.315 177.212 298.123 176.694C298.044 176.477 298 176.244 298 176C298 175.724 298.056 175.461 298.157 175.221C298.36 174.743 298.743 174.36 299.221 174.157C299.46 174.056 299.724 174 300 174C300.276 174 300.539 174.056 300.779 174.157C301.286 174.372 301.686 174.789 301.877 175.308C301.957 175.524 302 175.757 302 176C302 176.276 301.944 176.539 301.843 176.779C301.634 177.271 301.234 177.663 300.735 177.861C300.508 177.951 300.26 178 300 178C299.724 178 299.461 177.944 299.222 177.843ZM300 150C301.105 150 302 150.895 302 152C302 153.105 301.105 154 300 154C298.895 154 298 153.105 298 152C298 150.896 298.895 150 300 150ZM300 158C301.105 158 302 158.895 302 160C302 161.104 301.105 162 300 162C298.895 162 298 161.105 298 160C298 158.896 298.895 158 300 158ZM300 166C301.105 166 302 166.895 302 168C302 169.104 301.105 170 300 170C298.895 170 298 169.105 298 168C298 166.896 298.895 166 300 166ZM300 182C301.105 182 302 182.895 302 184C302 185.104 301.105 186 300 186C298.895 186 298 185.105 298 184C298 182.896 298.895 182 300 182ZM300 190C301.105 190 302 190.895 302 192C302 193.104 301.105 194 300 194C298.895 194 298 193.105 298 192C298 190.896 298.895 190 300 190ZM300 198C301.105 198 302 198.895 302 200C302 201.104 301.105 202 300 202C298.895 202 298 201.105 298 200C298 198.895 298.895 198 300 198ZM294 176C294 177.105 293.105 178 292 178C290.896 178 290 177.105 290 176C290 174.895 290.895 174 292 174C293.104 174 294 174.895 294 176ZM286 176C286 177.105 285.105 178 284 178C282.896 178 282 177.105 282 176C282 174.895 282.895 174 284 174C285.104 174 286 174.895 286 176ZM278 176C278 177.105 277.105 178 276 178C274.896 178 274 177.105 274 176C274 174.895 274.895 174 276 174C277.104 174 278 174.895 278 176ZM270 176C270 177.105 269.105 178 268 178C266.896 178 266 177.105 266 176C266 174.895 266.895 174 268 174C269.104 174 270 174.895 270 176ZM262 176C262 177.105 261.105 178 260 178C258.896 178 258 177.105 258 176C258 174.895 258.895 174 260 174C261.104 174 262 174.895 262 176ZM254 176C254 177.105 253.105 178 252 178C250.896 178 250 177.105 250 176C250 174.895 250.895 174 252 174C253.104 174 254 174.895 254 176ZM246 176C246 177.105 245.105 178 244 178C242.896 178 242 177.105 242 176C242 174.895 242.895 174 244 174C245.104 174 246 174.895 246 176ZM238 176C238 177.105 237.105 178 236 178C234.896 178 234 177.105 234 176C234 174.895 234.895 174 236 174C237.104 174 238 174.895 238 176ZM230 176C230 177.105 229.105 178 228 178C226.896 178 226 177.105 226 176C226 174.895 226.895 174 228 174C229.104 174 230 174.895 230 176ZM222 176C222 177.105 221.105 178 220 178C218.896 178 218 177.105 218 176C218 174.895 218.895 174 220 174C221.104 174 222 174.895 222 176ZM214 176C214 177.105 213.105 178 212 178C210.896 178 210 177.105 210 176C210 174.895 210.895 174 212 174C213.104 174 214 174.895 214 176ZM206 176C206 177.105 205.105 178 204 178C202.896 178 202 177.105 202 176C202 174.895 202.895 174 204 174C205.104 174 206 174.895 206 176ZM198 176C198 177.105 197.105 178 196 178C194.895 178 194 177.105 194 176C194 174.895 194.895 174 196 174C197.105 174 198 174.895 198 176ZM189.73 174.86C189.177 175.816 187.953 176.143 186.997 175.59C186.041 175.037 185.714 173.813 186.268 172.857C186.821 171.901 188.044 171.574 189 172.128C189.956 172.681 190.283 173.904 189.73 174.86ZM183.143 169.732C182.187 170.286 180.963 169.959 180.41 169.003C179.857 168.047 180.184 166.823 181.14 166.27C182.096 165.717 183.319 166.044 183.872 167C184.426 167.956 184.099 169.179 183.143 169.732ZM180 126C181.105 126 182 126.895 182 128C182 129.105 181.105 130 180 130C178.895 130 178 129.105 178 128C178 126.896 178.895 126 180 126ZM180 134C181.105 134 182 134.895 182 136C182 137.104 181.105 138 180 138C178.895 138 178 137.105 178 136C178 134.896 178.895 134 180 134ZM180 142C181.105 142 182 142.895 182 144C182 145.104 181.105 146 180 146C178.895 146 178 145.105 178 144C178 142.896 178.895 142 180 142ZM180 150C181.105 150 182 150.895 182 152C182 153.104 181.105 154 180 154C178.895 154 178 153.105 178 152C178 150.896 178.895 150 180 150ZM180 158C181.105 158 182 158.895 182 160C182 161.105 181.105 162 180 162C178.895 162 178 161.105 178 160C178 158.896 178.895 158 180 158Z" fill="#55B4ED"/>
</g>
<defs>
<clipPath id="clip0_12156_4654">
<rect width="600" height="320" fill="white"/>
</clipPath>
</defs>
</svg>
