<svg width="600" height="320" viewBox="0 0 600 320" fill="none" xmlns="http://www.w3.org/2000/svg">
<path d="M252.5 208C252.5 199.44 259.44 192.5 268 192.5H332C340.56 192.5 347.5 199.44 347.5 208V256C347.5 264.56 340.56 271.5 332 271.5H268C259.44 271.5 252.5 264.56 252.5 256V208Z" fill="white"/>
<path d="M252.5 208C252.5 199.44 259.44 192.5 268 192.5H332C340.56 192.5 347.5 199.44 347.5 208V256C347.5 264.56 340.56 271.5 332 271.5H268C259.44 271.5 252.5 264.56 252.5 256V208Z" stroke="#B6C9D8"/>
<mask id="mask0_12141_32433" style="mask-type:alpha" maskUnits="userSpaceOnUse" x="288" y="208" width="24" height="24">
<rect x="288" y="208" width="24" height="24" fill="#D9D9D9"/>
</mask>
<g mask="url(#mask0_12141_32433)">
<path d="M288 228V226H292V225C291.45 225 290.979 224.804 290.588 224.413C290.196 224.021 290 223.55 290 223V213C290 212.45 290.196 211.979 290.588 211.588C290.979 211.196 291.45 211 292 211H308C308.55 211 309.021 211.196 309.413 211.588C309.804 211.979 310 212.45 310 213V223C310 223.55 309.804 224.021 309.413 224.413C309.021 224.804 308.55 225 308 225V226H312V228H288ZM292 223H308V213H292V223Z" fill="#006590"/>
</g>
<path d="M282 250V238.8H283.856V250H282ZM283.296 250V248.304H288.928V250H283.296ZM293.828 250.192C293.028 250.192 292.314 250.016 291.684 249.664C291.066 249.301 290.58 248.805 290.228 248.176C289.876 247.547 289.7 246.821 289.7 246C289.7 245.179 289.871 244.453 290.212 243.824C290.564 243.195 291.05 242.704 291.668 242.352C292.287 241.989 292.996 241.808 293.796 241.808C294.596 241.808 295.306 241.989 295.924 242.352C296.543 242.704 297.023 243.195 297.364 243.824C297.716 244.453 297.892 245.179 297.892 246C297.892 246.821 297.722 247.547 297.38 248.176C297.039 248.805 296.559 249.301 295.94 249.664C295.322 250.016 294.618 250.192 293.828 250.192ZM293.828 248.544C294.266 248.544 294.655 248.437 294.996 248.224C295.338 248 295.604 247.701 295.796 247.328C295.988 246.944 296.084 246.501 296.084 246C296.084 245.499 295.983 245.061 295.78 244.688C295.588 244.304 295.322 244.005 294.98 243.792C294.639 243.568 294.244 243.456 293.796 243.456C293.348 243.456 292.954 243.563 292.612 243.776C292.271 243.989 292.004 244.288 291.812 244.672C291.62 245.056 291.524 245.499 291.524 246C291.524 246.501 291.62 246.944 291.812 247.328C292.015 247.701 292.287 248 292.628 248.224C292.98 248.437 293.38 248.544 293.828 248.544ZM303.189 250.192C302.368 250.192 301.642 250.016 301.013 249.664C300.384 249.301 299.888 248.805 299.525 248.176C299.173 247.547 298.997 246.821 298.997 246C298.997 245.179 299.173 244.453 299.525 243.824C299.888 243.195 300.378 242.704 300.997 242.352C301.626 241.989 302.346 241.808 303.157 241.808C303.946 241.808 304.661 242 305.301 242.384C305.941 242.757 306.416 243.296 306.725 244L305.061 244.64C304.89 244.288 304.629 244.005 304.277 243.792C303.925 243.579 303.525 243.472 303.077 243.472C302.64 243.472 302.25 243.584 301.909 243.808C301.568 244.021 301.301 244.32 301.109 244.704C300.917 245.077 300.821 245.509 300.821 246C300.821 246.491 300.917 246.928 301.109 247.312C301.312 247.685 301.584 247.984 301.925 248.208C302.277 248.421 302.672 248.528 303.109 248.528C303.557 248.528 303.957 248.416 304.309 248.192C304.661 247.957 304.922 247.643 305.093 247.248L306.757 247.888C306.448 248.613 305.973 249.179 305.333 249.584C304.704 249.989 303.989 250.192 303.189 250.192ZM312.996 250L312.916 248.496V245.888C312.916 245.344 312.858 244.891 312.74 244.528C312.623 244.165 312.436 243.888 312.18 243.696C311.935 243.504 311.61 243.408 311.204 243.408C310.831 243.408 310.5 243.488 310.212 243.648C309.924 243.808 309.684 244.053 309.492 244.384L307.86 243.808C308.042 243.456 308.276 243.125 308.564 242.816C308.852 242.507 309.215 242.261 309.652 242.08C310.1 241.899 310.628 241.808 311.236 241.808C312.015 241.808 312.66 241.952 313.172 242.24C313.695 242.528 314.084 242.955 314.34 243.52C314.596 244.085 314.724 244.784 314.724 245.616L314.676 250H312.996ZM310.724 250.192C309.764 250.192 309.018 249.979 308.484 249.552C307.962 249.125 307.7 248.523 307.7 247.744C307.7 246.912 307.978 246.277 308.532 245.84C309.098 245.403 309.882 245.184 310.884 245.184H313.028V246.56H311.46C310.746 246.56 310.244 246.661 309.956 246.864C309.668 247.056 309.524 247.333 309.524 247.696C309.524 248.005 309.647 248.251 309.892 248.432C310.148 248.603 310.5 248.688 310.948 248.688C311.343 248.688 311.684 248.597 311.972 248.416C312.271 248.224 312.5 247.979 312.66 247.68C312.831 247.371 312.916 247.04 312.916 246.688H313.572C313.572 247.776 313.338 248.635 312.868 249.264C312.41 249.883 311.695 250.192 310.724 250.192ZM316.539 250V238.8H318.331V250H316.539Z" fill="#21333F"/>
<path d="M252.5 64C252.5 55.4396 259.44 48.5 268 48.5H332C340.56 48.5 347.5 55.4396 347.5 64V112C347.5 120.56 340.56 127.5 332 127.5H268C259.44 127.5 252.5 120.56 252.5 112V64Z" fill="white"/>
<path d="M252.5 64C252.5 55.4396 259.44 48.5 268 48.5H332C340.56 48.5 347.5 55.4396 347.5 64V112C347.5 120.56 340.56 127.5 332 127.5H268C259.44 127.5 252.5 120.56 252.5 112V64Z" stroke="#B6C9D8"/>
<mask id="mask1_12141_32433" style="mask-type:alpha" maskUnits="userSpaceOnUse" x="286" y="64" width="24" height="24">
<rect x="286" y="64" width="24" height="24" fill="#D9D9D9"/>
</mask>
<g mask="url(#mask1_12141_32433)">
<path d="M292.5 84C290.967 84 289.667 83.4667 288.6 82.4C287.533 81.3333 287 80.0333 287 78.5C287 77.2 287.404 76.0542 288.212 75.0625C289.021 74.0708 290.033 73.4333 291.25 73.15C291.667 71.65 292.492 70.4167 293.725 69.45C294.958 68.4833 296.383 68 298 68C299.983 68 301.646 68.6875 302.988 70.0625C304.329 71.4375 305 73.0833 305 75C306.25 75.1333 307.229 75.65 307.938 76.55C308.646 77.45 309 78.425 309 79.475C309 80.725 308.562 81.7917 307.688 82.675C306.812 83.5583 305.75 84 304.5 84H292.5ZM292.5 82H304.5C305.2 82 305.792 81.7583 306.275 81.275C306.758 80.7917 307 80.2 307 79.5C307 78.8 306.758 78.2083 306.275 77.725C305.792 77.2417 305.2 77 304.5 77H303V75C303 73.6167 302.513 72.4375 301.538 71.4625C300.562 70.4875 299.383 70 298 70C296.95 70 296.017 70.2875 295.2 70.8625C294.383 71.4375 293.783 72.175 293.4 73.075C294.533 73.2583 295.508 73.7458 296.325 74.5375C297.142 75.3292 297.667 76.2833 297.9 77.4C297.967 77.6833 297.896 77.9375 297.688 78.1625C297.479 78.3875 297.208 78.5 296.875 78.5C296.642 78.5 296.438 78.4208 296.262 78.2625C296.087 78.1042 295.967 77.9 295.9 77.65C295.717 76.9 295.308 76.2708 294.675 75.7625C294.042 75.2542 293.317 75 292.5 75C291.533 75 290.708 75.3417 290.025 76.025C289.342 76.7083 289 77.5333 289 78.5C289 79.4667 289.342 80.2917 290.025 80.975C290.708 81.6583 291.533 82 292.5 82Z" fill="#006590"/>
</g>
<path d="M272.133 101.872V100.16H274.485C274.848 100.16 275.168 100.08 275.445 99.92C275.733 99.76 275.962 99.5413 276.133 99.264C276.314 98.9867 276.405 98.672 276.405 98.32C276.405 97.7867 276.213 97.3493 275.829 97.008C275.445 96.6667 274.949 96.496 274.341 96.496H272.133V94.8L274.405 94.784C275.173 94.7733 275.85 94.9227 276.437 95.232C277.024 95.5307 277.482 95.9467 277.813 96.48C278.144 97.0133 278.309 97.6267 278.309 98.32C278.309 99.0133 278.133 99.6267 277.781 100.16C277.44 100.693 276.965 101.115 276.357 101.424C275.749 101.723 275.061 101.872 274.293 101.872H272.133ZM270.453 106V94.8H272.309V106H270.453ZM276.661 106L274.037 101.456L275.477 100.464L278.757 106H276.661ZM283.873 106.192C283.094 106.192 282.401 106.016 281.793 105.664C281.195 105.301 280.721 104.805 280.368 104.176C280.027 103.547 279.857 102.821 279.857 102C279.857 101.179 280.033 100.453 280.385 99.824C280.737 99.1947 281.217 98.704 281.825 98.352C282.443 97.9893 283.147 97.808 283.937 97.808C284.651 97.808 285.291 97.9947 285.857 98.368C286.433 98.7307 286.891 99.2587 287.233 99.952C287.574 100.645 287.745 101.472 287.745 102.432H285.937C285.937 101.739 285.851 101.168 285.681 100.72C285.521 100.272 285.286 99.9413 284.977 99.728C284.678 99.504 284.31 99.392 283.873 99.392C283.414 99.392 283.019 99.4933 282.689 99.696C282.358 99.8987 282.107 100.197 281.937 100.592C281.766 100.976 281.681 101.461 281.681 102.048C281.681 102.571 281.782 103.019 281.985 103.392C282.198 103.765 282.481 104.053 282.833 104.256C283.195 104.448 283.595 104.544 284.033 104.544C284.513 104.544 284.907 104.437 285.217 104.224C285.526 104 285.766 103.717 285.937 103.376L287.585 104.08C287.361 104.507 287.073 104.88 286.721 105.2C286.379 105.52 285.969 105.765 285.489 105.936C285.019 106.107 284.481 106.192 283.873 106.192ZM281.041 102.432V101.008H286.801V102.432H281.041ZM289.117 106V98H290.797L290.909 99.472V106H289.117ZM294.541 106V101.904L296.333 101.424V106H294.541ZM299.981 106V101.904L301.757 101.424V106H299.981ZM294.541 101.904C294.541 101.264 294.466 100.773 294.317 100.432C294.178 100.08 293.976 99.8347 293.709 99.696C293.453 99.5573 293.149 99.488 292.797 99.488C292.2 99.4773 291.736 99.6747 291.405 100.08C291.074 100.485 290.909 101.067 290.909 101.824H290.237C290.237 100.981 290.36 100.261 290.605 99.664C290.85 99.056 291.202 98.5973 291.661 98.288C292.12 97.968 292.664 97.808 293.293 97.808C294.264 97.808 295.01 98.1067 295.533 98.704C296.066 99.2907 296.333 100.197 296.333 101.424L294.541 101.904ZM299.981 101.904C299.981 101.264 299.906 100.773 299.757 100.432C299.608 100.08 299.4 99.8347 299.133 99.696C298.877 99.5573 298.578 99.488 298.237 99.488C297.629 99.4773 297.16 99.6747 296.829 100.08C296.498 100.485 296.333 101.067 296.333 101.824H295.661C295.661 100.981 295.784 100.261 296.029 99.664C296.274 99.056 296.626 98.5973 297.085 98.288C297.544 97.968 298.088 97.808 298.717 97.808C299.688 97.808 300.44 98.1067 300.973 98.704C301.506 99.2907 301.768 100.197 301.757 101.424L299.981 101.904ZM307.266 106.192C306.466 106.192 305.751 106.016 305.122 105.664C304.503 105.301 304.018 104.805 303.666 104.176C303.314 103.547 303.138 102.821 303.138 102C303.138 101.179 303.308 100.453 303.65 99.824C304.002 99.1947 304.487 98.704 305.106 98.352C305.724 97.9893 306.434 97.808 307.234 97.808C308.034 97.808 308.743 97.9893 309.362 98.352C309.98 98.704 310.46 99.1947 310.802 99.824C311.154 100.453 311.33 101.179 311.33 102C311.33 102.821 311.159 103.547 310.818 104.176C310.476 104.805 309.996 105.301 309.378 105.664C308.759 106.016 308.055 106.192 307.266 106.192ZM307.266 104.544C307.703 104.544 308.092 104.437 308.434 104.224C308.775 104 309.042 103.701 309.234 103.328C309.426 102.944 309.522 102.501 309.522 102C309.522 101.499 309.42 101.061 309.218 100.688C309.026 100.304 308.759 100.005 308.418 99.792C308.076 99.568 307.682 99.456 307.234 99.456C306.786 99.456 306.391 99.5627 306.05 99.776C305.708 99.9893 305.442 100.288 305.25 100.672C305.058 101.056 304.962 101.499 304.962 102C304.962 102.501 305.058 102.944 305.25 103.328C305.452 103.701 305.724 104 306.066 104.224C306.418 104.437 306.818 104.544 307.266 104.544ZM316.067 106.192C315.224 106.192 314.579 105.984 314.131 105.568C313.693 105.141 313.475 104.533 313.475 103.744V95.504H315.251V103.408C315.251 103.781 315.336 104.064 315.507 104.256C315.688 104.448 315.949 104.544 316.291 104.544C316.397 104.544 316.515 104.523 316.643 104.48C316.771 104.437 316.915 104.357 317.075 104.24L317.731 105.6C317.453 105.792 317.176 105.936 316.899 106.032C316.621 106.139 316.344 106.192 316.067 106.192ZM312.147 99.536V98H317.411V99.536H312.147ZM322.623 106.192C321.844 106.192 321.151 106.016 320.543 105.664C319.945 105.301 319.471 104.805 319.118 104.176C318.777 103.547 318.607 102.821 318.607 102C318.607 101.179 318.783 100.453 319.135 99.824C319.487 99.1947 319.967 98.704 320.575 98.352C321.193 97.9893 321.897 97.808 322.687 97.808C323.401 97.808 324.041 97.9947 324.607 98.368C325.183 98.7307 325.641 99.2587 325.983 99.952C326.324 100.645 326.495 101.472 326.495 102.432H324.687C324.687 101.739 324.601 101.168 324.431 100.72C324.271 100.272 324.036 99.9413 323.727 99.728C323.428 99.504 323.06 99.392 322.623 99.392C322.164 99.392 321.769 99.4933 321.439 99.696C321.108 99.8987 320.857 100.197 320.687 100.592C320.516 100.976 320.431 101.461 320.431 102.048C320.431 102.571 320.532 103.019 320.735 103.392C320.948 103.765 321.231 104.053 321.583 104.256C321.945 104.448 322.345 104.544 322.783 104.544C323.263 104.544 323.657 104.437 323.967 104.224C324.276 104 324.516 103.717 324.687 103.376L326.335 104.08C326.111 104.507 325.823 104.88 325.471 105.2C325.129 105.52 324.719 105.765 324.239 105.936C323.769 106.107 323.231 106.192 322.623 106.192ZM319.791 102.432V101.008H325.551V102.432H319.791Z" fill="#21333F"/>
<path fill-rule="evenodd" clip-rule="evenodd" d="M300 138C301.105 138 302 138.895 302 140L302 140C302 141.105 301.105 142 300 142C298.895 142 298 141.105 298 140L298 140C298 138.895 298.895 138 300 138ZM300 146C301.105 146 302 146.895 302 148L302 148C302 149.105 301.105 150 300 150C298.895 150 298 149.105 298 148L298 148C298 146.895 298.895 146 300 146ZM300 154C301.105 154 302 154.895 302 156L302 156C302 157.105 301.105 158 300 158C298.895 158 298 157.105 298 156L298 156C298 154.895 298.895 154 300 154ZM300 162C301.105 162 302 162.895 302 164L302 164C302 165.105 301.105 166 300 166C298.895 166 298 165.105 298 164L298 164C298 162.895 298.895 162 300 162ZM300 170C301.105 170 302 170.895 302 172L302 172C302 173.105 301.105 174 300 174C298.895 174 298 173.105 298 172L298 172C298 170.895 298.895 170 300 170ZM300 178C301.105 178 302 178.895 302 180L302 180C302 181.105 301.105 182 300 182C298.895 182 298 181.105 298 180L298 180C298 178.895 298.895 178 300 178Z" fill="#55B4ED"/>
</svg>
