<svg width="600" height="320" viewBox="0 0 600 320" fill="none" xmlns="http://www.w3.org/2000/svg">
<path d="M252 232C252 223.163 259.163 216 268 216H332C340.837 216 348 223.163 348 232V280C348 288.837 340.837 296 332 296H268C259.163 296 252 288.837 252 280V232Z" fill="white"/>
<path d="M252 232C252 223.163 259.163 216 268 216H332C340.837 216 348 223.163 348 232V280C348 288.837 340.837 296 332 296H268C259.163 296 252 288.837 252 280V232Z" stroke="#55B4ED" stroke-width="2"/>
<mask id="mask0_12321_14069" style="mask-type:alpha" maskUnits="userSpaceOnUse" x="288" y="232" width="24" height="24">
<rect x="288" y="232" width="24" height="24" fill="#D9D9D9"/>
</mask>
<g mask="url(#mask0_12321_14069)">
<path d="M288 252V250H292V249C291.45 249 290.979 248.804 290.588 248.413C290.196 248.021 290 247.55 290 247V237C290 236.45 290.196 235.979 290.588 235.588C290.979 235.196 291.45 235 292 235H308C308.55 235 309.021 235.196 309.413 235.588C309.804 235.979 310 236.45 310 237V247C310 247.55 309.804 248.021 309.413 248.413C309.021 248.804 308.55 249 308 249V250H312V252H288ZM292 247H308V237H292V247Z" fill="#006590"/>
</g>
<path d="M282 274V262.8H283.856V274H282ZM283.296 274V272.304H288.928V274H283.296ZM293.828 274.192C293.028 274.192 292.314 274.016 291.684 273.664C291.066 273.301 290.58 272.805 290.228 272.176C289.876 271.547 289.7 270.821 289.7 270C289.7 269.179 289.871 268.453 290.212 267.824C290.564 267.195 291.05 266.704 291.668 266.352C292.287 265.989 292.996 265.808 293.796 265.808C294.596 265.808 295.306 265.989 295.924 266.352C296.543 266.704 297.023 267.195 297.364 267.824C297.716 268.453 297.892 269.179 297.892 270C297.892 270.821 297.722 271.547 297.38 272.176C297.039 272.805 296.559 273.301 295.94 273.664C295.322 274.016 294.618 274.192 293.828 274.192ZM293.828 272.544C294.266 272.544 294.655 272.437 294.996 272.224C295.338 272 295.604 271.701 295.796 271.328C295.988 270.944 296.084 270.501 296.084 270C296.084 269.499 295.983 269.061 295.78 268.688C295.588 268.304 295.322 268.005 294.98 267.792C294.639 267.568 294.244 267.456 293.796 267.456C293.348 267.456 292.954 267.563 292.612 267.776C292.271 267.989 292.004 268.288 291.812 268.672C291.62 269.056 291.524 269.499 291.524 270C291.524 270.501 291.62 270.944 291.812 271.328C292.015 271.701 292.287 272 292.628 272.224C292.98 272.437 293.38 272.544 293.828 272.544ZM303.189 274.192C302.368 274.192 301.642 274.016 301.013 273.664C300.384 273.301 299.888 272.805 299.525 272.176C299.173 271.547 298.997 270.821 298.997 270C298.997 269.179 299.173 268.453 299.525 267.824C299.888 267.195 300.378 266.704 300.997 266.352C301.626 265.989 302.346 265.808 303.157 265.808C303.946 265.808 304.661 266 305.301 266.384C305.941 266.757 306.416 267.296 306.725 268L305.061 268.64C304.89 268.288 304.629 268.005 304.277 267.792C303.925 267.579 303.525 267.472 303.077 267.472C302.64 267.472 302.25 267.584 301.909 267.808C301.568 268.021 301.301 268.32 301.109 268.704C300.917 269.077 300.821 269.509 300.821 270C300.821 270.491 300.917 270.928 301.109 271.312C301.312 271.685 301.584 271.984 301.925 272.208C302.277 272.421 302.672 272.528 303.109 272.528C303.557 272.528 303.957 272.416 304.309 272.192C304.661 271.957 304.922 271.643 305.093 271.248L306.757 271.888C306.448 272.613 305.973 273.179 305.333 273.584C304.704 273.989 303.989 274.192 303.189 274.192ZM312.996 274L312.916 272.496V269.888C312.916 269.344 312.858 268.891 312.74 268.528C312.623 268.165 312.436 267.888 312.18 267.696C311.935 267.504 311.61 267.408 311.204 267.408C310.831 267.408 310.5 267.488 310.212 267.648C309.924 267.808 309.684 268.053 309.492 268.384L307.86 267.808C308.042 267.456 308.276 267.125 308.564 266.816C308.852 266.507 309.215 266.261 309.652 266.08C310.1 265.899 310.628 265.808 311.236 265.808C312.015 265.808 312.66 265.952 313.172 266.24C313.695 266.528 314.084 266.955 314.34 267.52C314.596 268.085 314.724 268.784 314.724 269.616L314.676 274H312.996ZM310.724 274.192C309.764 274.192 309.018 273.979 308.484 273.552C307.962 273.125 307.7 272.523 307.7 271.744C307.7 270.912 307.978 270.277 308.532 269.84C309.098 269.403 309.882 269.184 310.884 269.184H313.028V270.56H311.46C310.746 270.56 310.244 270.661 309.956 270.864C309.668 271.056 309.524 271.333 309.524 271.696C309.524 272.005 309.647 272.251 309.892 272.432C310.148 272.603 310.5 272.688 310.948 272.688C311.343 272.688 311.684 272.597 311.972 272.416C312.271 272.224 312.5 271.979 312.66 271.68C312.831 271.371 312.916 271.04 312.916 270.688H313.572C313.572 271.776 313.338 272.635 312.868 273.264C312.41 273.883 311.695 274.192 310.724 274.192ZM316.539 274V262.8H318.331V274H316.539Z" fill="#21333F"/>
<path d="M252 40C252 31.1634 259.163 24 268 24H332C340.837 24 348 31.1634 348 40V88C348 96.8366 340.837 104 332 104H268C259.163 104 252 96.8366 252 88V40Z" fill="white"/>
<path d="M252 40C252 31.1634 259.163 24 268 24H332C340.837 24 348 31.1634 348 40V88C348 96.8366 340.837 104 332 104H268C259.163 104 252 96.8366 252 88V40Z" stroke="#55B4ED" stroke-width="2"/>
<mask id="mask1_12321_14069" style="mask-type:alpha" maskUnits="userSpaceOnUse" x="286" y="40" width="24" height="24">
<rect x="286" y="40" width="24" height="24" fill="#D9D9D9"/>
</mask>
<g mask="url(#mask1_12321_14069)">
<path d="M292.5 60C290.967 60 289.667 59.4667 288.6 58.4C287.533 57.3333 287 56.0333 287 54.5C287 53.2 287.404 52.0542 288.212 51.0625C289.021 50.0708 290.033 49.4333 291.25 49.15C291.667 47.65 292.492 46.4167 293.725 45.45C294.958 44.4833 296.383 44 298 44C299.983 44 301.646 44.6875 302.988 46.0625C304.329 47.4375 305 49.0833 305 51C306.25 51.1333 307.229 51.65 307.938 52.55C308.646 53.45 309 54.425 309 55.475C309 56.725 308.562 57.7917 307.688 58.675C306.812 59.5583 305.75 60 304.5 60H292.5ZM292.5 58H304.5C305.2 58 305.792 57.7583 306.275 57.275C306.758 56.7917 307 56.2 307 55.5C307 54.8 306.758 54.2083 306.275 53.725C305.792 53.2417 305.2 53 304.5 53H303V51C303 49.6167 302.513 48.4375 301.538 47.4625C300.563 46.4875 299.383 46 298 46C296.95 46 296.017 46.2875 295.2 46.8625C294.383 47.4375 293.783 48.175 293.4 49.075C294.533 49.2583 295.508 49.7458 296.325 50.5375C297.142 51.3292 297.667 52.2833 297.9 53.4C297.967 53.6833 297.896 53.9375 297.688 54.1625C297.479 54.3875 297.208 54.5 296.875 54.5C296.642 54.5 296.437 54.4208 296.262 54.2625C296.087 54.1042 295.967 53.9 295.9 53.65C295.717 52.9 295.308 52.2708 294.675 51.7625C294.042 51.2542 293.317 51 292.5 51C291.533 51 290.708 51.3417 290.025 52.025C289.342 52.7083 289 53.5333 289 54.5C289 55.4667 289.342 56.2917 290.025 56.975C290.708 57.6583 291.533 58 292.5 58Z" fill="#006590"/>
</g>
<path d="M272.133 77.872V76.16H274.485C274.848 76.16 275.168 76.08 275.445 75.92C275.733 75.76 275.962 75.5413 276.133 75.264C276.314 74.9867 276.405 74.672 276.405 74.32C276.405 73.7867 276.213 73.3493 275.829 73.008C275.445 72.6667 274.949 72.496 274.341 72.496H272.133V70.8L274.405 70.784C275.173 70.7733 275.85 70.9227 276.437 71.232C277.024 71.5307 277.482 71.9467 277.813 72.48C278.144 73.0133 278.309 73.6267 278.309 74.32C278.309 75.0133 278.133 75.6267 277.781 76.16C277.44 76.6933 276.965 77.1147 276.357 77.424C275.749 77.7227 275.061 77.872 274.293 77.872H272.133ZM270.453 82V70.8H272.309V82H270.453ZM276.661 82L274.037 77.456L275.477 76.464L278.757 82H276.661ZM283.873 82.192C283.094 82.192 282.401 82.016 281.793 81.664C281.195 81.3013 280.721 80.8053 280.368 80.176C280.027 79.5467 279.857 78.8213 279.857 78C279.857 77.1787 280.033 76.4533 280.385 75.824C280.737 75.1947 281.217 74.704 281.825 74.352C282.443 73.9893 283.147 73.808 283.937 73.808C284.651 73.808 285.291 73.9947 285.857 74.368C286.433 74.7307 286.891 75.2587 287.233 75.952C287.574 76.6453 287.745 77.472 287.745 78.432H285.937C285.937 77.7387 285.851 77.168 285.681 76.72C285.521 76.272 285.286 75.9413 284.977 75.728C284.678 75.504 284.31 75.392 283.873 75.392C283.414 75.392 283.019 75.4933 282.689 75.696C282.358 75.8987 282.107 76.1973 281.937 76.592C281.766 76.976 281.681 77.4613 281.681 78.048C281.681 78.5707 281.782 79.0187 281.985 79.392C282.198 79.7653 282.481 80.0533 282.833 80.256C283.195 80.448 283.595 80.544 284.033 80.544C284.513 80.544 284.907 80.4373 285.217 80.224C285.526 80 285.766 79.7173 285.937 79.376L287.585 80.08C287.361 80.5067 287.073 80.88 286.721 81.2C286.379 81.52 285.969 81.7653 285.489 81.936C285.019 82.1067 284.481 82.192 283.873 82.192ZM281.041 78.432V77.008H286.801V78.432H281.041ZM289.117 82V74H290.797L290.909 75.472V82H289.117ZM294.541 82V77.904L296.333 77.424V82H294.541ZM299.981 82V77.904L301.757 77.424V82H299.981ZM294.541 77.904C294.541 77.264 294.466 76.7733 294.317 76.432C294.178 76.08 293.976 75.8347 293.709 75.696C293.453 75.5573 293.149 75.488 292.797 75.488C292.2 75.4773 291.736 75.6747 291.405 76.08C291.074 76.4853 290.909 77.0667 290.909 77.824H290.237C290.237 76.9813 290.36 76.2613 290.605 75.664C290.85 75.056 291.202 74.5973 291.661 74.288C292.12 73.968 292.664 73.808 293.293 73.808C294.264 73.808 295.01 74.1067 295.533 74.704C296.066 75.2907 296.333 76.1973 296.333 77.424L294.541 77.904ZM299.981 77.904C299.981 77.264 299.906 76.7733 299.757 76.432C299.608 76.08 299.4 75.8347 299.133 75.696C298.877 75.5573 298.578 75.488 298.237 75.488C297.629 75.4773 297.16 75.6747 296.829 76.08C296.498 76.4853 296.333 77.0667 296.333 77.824H295.661C295.661 76.9813 295.784 76.2613 296.029 75.664C296.274 75.056 296.626 74.5973 297.085 74.288C297.544 73.968 298.088 73.808 298.717 73.808C299.688 73.808 300.44 74.1067 300.973 74.704C301.506 75.2907 301.768 76.1973 301.757 77.424L299.981 77.904ZM307.266 82.192C306.466 82.192 305.751 82.016 305.122 81.664C304.503 81.3013 304.018 80.8053 303.666 80.176C303.314 79.5467 303.138 78.8213 303.138 78C303.138 77.1787 303.308 76.4533 303.65 75.824C304.002 75.1947 304.487 74.704 305.106 74.352C305.724 73.9893 306.434 73.808 307.234 73.808C308.034 73.808 308.743 73.9893 309.362 74.352C309.98 74.704 310.46 75.1947 310.802 75.824C311.154 76.4533 311.33 77.1787 311.33 78C311.33 78.8213 311.159 79.5467 310.818 80.176C310.476 80.8053 309.996 81.3013 309.378 81.664C308.759 82.016 308.055 82.192 307.266 82.192ZM307.266 80.544C307.703 80.544 308.092 80.4373 308.434 80.224C308.775 80 309.042 79.7013 309.234 79.328C309.426 78.944 309.522 78.5013 309.522 78C309.522 77.4987 309.42 77.0613 309.218 76.688C309.026 76.304 308.759 76.0053 308.418 75.792C308.076 75.568 307.682 75.456 307.234 75.456C306.786 75.456 306.391 75.5627 306.05 75.776C305.708 75.9893 305.442 76.288 305.25 76.672C305.058 77.056 304.962 77.4987 304.962 78C304.962 78.5013 305.058 78.944 305.25 79.328C305.452 79.7013 305.724 80 306.066 80.224C306.418 80.4373 306.818 80.544 307.266 80.544ZM316.067 82.192C315.224 82.192 314.579 81.984 314.131 81.568C313.693 81.1413 313.475 80.5333 313.475 79.744V71.504H315.251V79.408C315.251 79.7813 315.336 80.064 315.507 80.256C315.688 80.448 315.949 80.544 316.291 80.544C316.397 80.544 316.515 80.5227 316.643 80.48C316.771 80.4373 316.915 80.3573 317.075 80.24L317.731 81.6C317.453 81.792 317.176 81.936 316.899 82.032C316.621 82.1387 316.344 82.192 316.067 82.192ZM312.147 75.536V74H317.411V75.536H312.147ZM322.623 82.192C321.844 82.192 321.151 82.016 320.543 81.664C319.945 81.3013 319.471 80.8053 319.118 80.176C318.777 79.5467 318.607 78.8213 318.607 78C318.607 77.1787 318.783 76.4533 319.135 75.824C319.487 75.1947 319.967 74.704 320.575 74.352C321.193 73.9893 321.897 73.808 322.687 73.808C323.401 73.808 324.041 73.9947 324.607 74.368C325.183 74.7307 325.641 75.2587 325.983 75.952C326.324 76.6453 326.495 77.472 326.495 78.432H324.687C324.687 77.7387 324.601 77.168 324.431 76.72C324.271 76.272 324.036 75.9413 323.727 75.728C323.428 75.504 323.06 75.392 322.623 75.392C322.164 75.392 321.769 75.4933 321.439 75.696C321.108 75.8987 320.857 76.1973 320.687 76.592C320.516 76.976 320.431 77.4613 320.431 78.048C320.431 78.5707 320.532 79.0187 320.735 79.392C320.948 79.7653 321.231 80.0533 321.583 80.256C321.945 80.448 322.345 80.544 322.783 80.544C323.263 80.544 323.657 80.4373 323.967 80.224C324.276 80 324.516 79.7173 324.687 79.376L326.335 80.08C326.111 80.5067 325.823 80.88 325.471 81.2C325.129 81.52 324.719 81.7653 324.239 81.936C323.769 82.1067 323.231 82.192 322.623 82.192ZM319.791 78.432V77.008H325.551V78.432H319.791Z" fill="#21333F"/>
<path fill-rule="evenodd" clip-rule="evenodd" d="M294.667 104C294.667 101.055 297.055 98.667 300.001 98.667C302.946 98.667 305.334 101.055 305.334 104C305.334 106.604 303.468 108.772 301.001 109.24L301.001 210.761C303.468 211.229 305.334 213.397 305.334 216C305.334 218.946 302.946 221.334 300.001 221.334C297.055 221.334 294.667 218.946 294.667 216C294.667 213.397 296.533 211.229 299.001 210.761L299.001 109.24C296.533 108.772 294.667 106.604 294.667 104Z" fill="#55B4ED"/>
<path d="M332 141H269C258.507 141 250 149.507 250 160C250 170.493 258.507 179 269 179H332C342.493 179 351 170.493 351 160C351 149.507 342.493 141 332 141Z" fill="white"/>
<path d="M332 141H269C258.507 141 250 149.507 250 160C250 170.493 258.507 179 269 179H332C342.493 179 351 170.493 351 160C351 149.507 342.493 141 332 141Z" stroke="#55B4ED" stroke-width="2"/>
<path fill-rule="evenodd" clip-rule="evenodd" d="M269 167.75C273.28 167.75 276.75 164.28 276.75 160C276.75 155.72 273.28 152.25 269 152.25C264.72 152.25 261.25 155.72 261.25 160C261.25 164.28 264.72 167.75 269 167.75ZM272.619 158.619C272.96 158.277 272.96 157.723 272.619 157.381C272.277 157.04 271.723 157.04 271.381 157.381L268 160.763L266.619 159.381C266.277 159.04 265.723 159.04 265.381 159.381C265.04 159.723 265.04 160.277 265.381 160.619L267.381 162.619C267.723 162.96 268.277 162.96 268.619 162.619L272.619 158.619Z" fill="#006590"/>
<path d="M288.632 165V155.2H290.256V165H288.632ZM289.766 165V163.516H294.694V165H289.766ZM295.86 165L295.874 158H297.428L297.414 165H295.86ZM296.644 156.67C296.392 156.67 296.172 156.581 295.986 156.404C295.808 156.217 295.72 155.998 295.72 155.746C295.72 155.494 295.808 155.279 295.986 155.102C296.172 154.925 296.392 154.836 296.644 154.836C296.896 154.836 297.11 154.925 297.288 155.102C297.474 155.279 297.568 155.494 297.568 155.746C297.568 155.998 297.474 156.217 297.288 156.404C297.11 156.581 296.896 156.67 296.644 156.67ZM299.262 165V158H300.732L300.83 159.288V165H299.262ZM304.008 165V161.416L305.576 160.996V165H304.008ZM304.008 161.416C304.008 160.856 303.942 160.427 303.812 160.128C303.69 159.82 303.513 159.605 303.28 159.484C303.056 159.363 302.79 159.302 302.482 159.302C301.959 159.293 301.553 159.465 301.264 159.82C300.974 160.175 300.83 160.683 300.83 161.346H300.242C300.242 160.609 300.349 159.979 300.564 159.456C300.778 158.924 301.086 158.523 301.488 158.252C301.889 157.972 302.365 157.832 302.916 157.832C303.765 157.832 304.418 158.093 304.876 158.616C305.342 159.129 305.576 159.923 305.576 160.996L304.008 161.416ZM308.662 163.04L307.71 161.962L311.35 158H313.24L308.662 163.04ZM307.164 165V155.2H308.732V165H307.164ZM311.616 165L309.152 161.374L310.174 160.282L313.478 165H311.616ZM317.245 165.168C316.564 165.168 315.957 165.014 315.425 164.706C314.902 164.389 314.487 163.955 314.179 163.404C313.88 162.853 313.731 162.219 313.731 161.5C313.731 160.781 313.885 160.147 314.193 159.596C314.501 159.045 314.921 158.616 315.453 158.308C315.994 157.991 316.61 157.832 317.301 157.832C317.926 157.832 318.486 157.995 318.981 158.322C319.485 158.639 319.886 159.101 320.185 159.708C320.484 160.315 320.633 161.038 320.633 161.878H319.051C319.051 161.271 318.976 160.772 318.827 160.38C318.687 159.988 318.482 159.699 318.211 159.512C317.95 159.316 317.628 159.218 317.245 159.218C316.844 159.218 316.498 159.307 316.209 159.484C315.92 159.661 315.7 159.923 315.551 160.268C315.402 160.604 315.327 161.029 315.327 161.542C315.327 161.999 315.416 162.391 315.593 162.718C315.78 163.045 316.027 163.297 316.335 163.474C316.652 163.642 317.002 163.726 317.385 163.726C317.805 163.726 318.15 163.633 318.421 163.446C318.692 163.25 318.902 163.003 319.051 162.704L320.493 163.32C320.297 163.693 320.045 164.02 319.737 164.3C319.438 164.58 319.079 164.795 318.659 164.944C318.248 165.093 317.777 165.168 317.245 165.168ZM314.767 161.878V160.632H319.807V161.878H314.767ZM326.888 165L326.818 163.698V155.2H328.372V165H326.888ZM324.606 165.168C323.971 165.168 323.416 165.019 322.94 164.72C322.473 164.412 322.104 163.983 321.834 163.432C321.572 162.881 321.442 162.237 321.442 161.5C321.442 160.753 321.572 160.109 321.834 159.568C322.104 159.017 322.473 158.593 322.94 158.294C323.416 157.986 323.971 157.832 324.606 157.832C325.194 157.832 325.698 157.986 326.118 158.294C326.547 158.593 326.874 159.017 327.098 159.568C327.322 160.109 327.434 160.753 327.434 161.5C327.434 162.237 327.322 162.881 327.098 163.432C326.874 163.983 326.547 164.412 326.118 164.72C325.698 165.019 325.194 165.168 324.606 165.168ZM324.998 163.74C325.352 163.74 325.665 163.647 325.936 163.46C326.216 163.264 326.43 162.998 326.58 162.662C326.738 162.326 326.818 161.939 326.818 161.5C326.818 161.061 326.738 160.674 326.58 160.338C326.43 160.002 326.216 159.741 325.936 159.554C325.665 159.367 325.348 159.274 324.984 159.274C324.61 159.274 324.279 159.367 323.99 159.554C323.7 159.741 323.472 160.002 323.304 160.338C323.145 160.674 323.061 161.061 323.052 161.5C323.061 161.939 323.145 162.326 323.304 162.662C323.472 162.998 323.7 163.264 323.99 163.46C324.288 163.647 324.624 163.74 324.998 163.74ZM330.623 161.948L330.525 155.2H332.247L332.149 161.948H330.623ZM331.379 165.21C331.109 165.21 330.875 165.112 330.679 164.916C330.493 164.72 330.399 164.487 330.399 164.216C330.399 163.945 330.493 163.717 330.679 163.53C330.875 163.334 331.109 163.236 331.379 163.236C331.65 163.236 331.883 163.334 332.079 163.53C332.275 163.717 332.373 163.945 332.373 164.216C332.373 164.487 332.275 164.72 332.079 164.916C331.883 165.112 331.65 165.21 331.379 165.21Z" fill="#006590"/>
</svg>
