<svg width="600" height="320" viewBox="0 0 600 320" fill="none" xmlns="http://www.w3.org/2000/svg">
<path d="M281 94.0002V82.0002V80.5859L273.586 88.0002L281 95.4144V94.0002Z" fill="#B6C9D8"/>
<path d="M180 192.5H244C252.56 192.5 259.5 199.44 259.5 208V256C259.5 264.56 252.56 271.5 244 271.5H180C171.44 271.5 164.5 264.56 164.5 256V208C164.5 199.44 171.44 192.5 180 192.5Z" fill="white"/>
<path d="M180 192.5H244C252.56 192.5 259.5 199.44 259.5 208V256C259.5 264.56 252.56 271.5 244 271.5H180C171.44 271.5 164.5 264.56 164.5 256V208C164.5 199.44 171.44 192.5 180 192.5Z" stroke="#B6C9D8"/>
<mask id="mask0_12301_2122" style="mask-type:alpha" maskUnits="userSpaceOnUse" x="200" y="208" width="24" height="24">
<rect x="200" y="208" width="24" height="24" fill="#D9D9D9"/>
</mask>
<g mask="url(#mask0_12301_2122)">
<path d="M200 228V226H204V225C203.45 225 202.979 224.804 202.588 224.413C202.196 224.021 202 223.55 202 223V213C202 212.45 202.196 211.979 202.588 211.588C202.979 211.196 203.45 211 204 211H220C220.55 211 221.021 211.196 221.413 211.588C221.804 211.979 222 212.45 222 213V223C222 223.55 221.804 224.021 221.413 224.413C221.021 224.804 220.55 225 220 225V226H224V228H200ZM204 223H220V213H204V223Z" fill="#006590"/>
</g>
<path d="M194 250V238.8H195.856V250H194ZM195.296 250V248.304H200.928V250H195.296ZM205.828 250.192C205.028 250.192 204.314 250.016 203.684 249.664C203.066 249.301 202.58 248.805 202.228 248.176C201.876 247.547 201.7 246.821 201.7 246C201.7 245.179 201.871 244.453 202.212 243.824C202.564 243.195 203.05 242.704 203.668 242.352C204.287 241.989 204.996 241.808 205.796 241.808C206.596 241.808 207.306 241.989 207.924 242.352C208.543 242.704 209.023 243.195 209.364 243.824C209.716 244.453 209.892 245.179 209.892 246C209.892 246.821 209.722 247.547 209.38 248.176C209.039 248.805 208.559 249.301 207.94 249.664C207.322 250.016 206.618 250.192 205.828 250.192ZM205.828 248.544C206.266 248.544 206.655 248.437 206.996 248.224C207.338 248 207.604 247.701 207.796 247.328C207.988 246.944 208.084 246.501 208.084 246C208.084 245.499 207.983 245.061 207.78 244.688C207.588 244.304 207.322 244.005 206.98 243.792C206.639 243.568 206.244 243.456 205.796 243.456C205.348 243.456 204.954 243.563 204.612 243.776C204.271 243.989 204.004 244.288 203.812 244.672C203.62 245.056 203.524 245.499 203.524 246C203.524 246.501 203.62 246.944 203.812 247.328C204.015 247.701 204.287 248 204.628 248.224C204.98 248.437 205.38 248.544 205.828 248.544ZM215.189 250.192C214.368 250.192 213.642 250.016 213.013 249.664C212.384 249.301 211.888 248.805 211.525 248.176C211.173 247.547 210.997 246.821 210.997 246C210.997 245.179 211.173 244.453 211.525 243.824C211.888 243.195 212.378 242.704 212.997 242.352C213.626 241.989 214.346 241.808 215.157 241.808C215.946 241.808 216.661 242 217.301 242.384C217.941 242.757 218.416 243.296 218.725 244L217.061 244.64C216.89 244.288 216.629 244.005 216.277 243.792C215.925 243.579 215.525 243.472 215.077 243.472C214.64 243.472 214.25 243.584 213.909 243.808C213.568 244.021 213.301 244.32 213.109 244.704C212.917 245.077 212.821 245.509 212.821 246C212.821 246.491 212.917 246.928 213.109 247.312C213.312 247.685 213.584 247.984 213.925 248.208C214.277 248.421 214.672 248.528 215.109 248.528C215.557 248.528 215.957 248.416 216.309 248.192C216.661 247.957 216.922 247.643 217.093 247.248L218.757 247.888C218.448 248.613 217.973 249.179 217.333 249.584C216.704 249.989 215.989 250.192 215.189 250.192ZM224.996 250L224.916 248.496V245.888C224.916 245.344 224.858 244.891 224.74 244.528C224.623 244.165 224.436 243.888 224.18 243.696C223.935 243.504 223.61 243.408 223.204 243.408C222.831 243.408 222.5 243.488 222.212 243.648C221.924 243.808 221.684 244.053 221.492 244.384L219.86 243.808C220.042 243.456 220.276 243.125 220.564 242.816C220.852 242.507 221.215 242.261 221.652 242.08C222.1 241.899 222.628 241.808 223.236 241.808C224.015 241.808 224.66 241.952 225.172 242.24C225.695 242.528 226.084 242.955 226.34 243.52C226.596 244.085 226.724 244.784 226.724 245.616L226.676 250H224.996ZM222.724 250.192C221.764 250.192 221.018 249.979 220.484 249.552C219.962 249.125 219.7 248.523 219.7 247.744C219.7 246.912 219.978 246.277 220.532 245.84C221.098 245.403 221.882 245.184 222.884 245.184H225.028V246.56H223.46C222.746 246.56 222.244 246.661 221.956 246.864C221.668 247.056 221.524 247.333 221.524 247.696C221.524 248.005 221.647 248.251 221.892 248.432C222.148 248.603 222.5 248.688 222.948 248.688C223.343 248.688 223.684 248.597 223.972 248.416C224.271 248.224 224.5 247.979 224.66 247.68C224.831 247.371 224.916 247.04 224.916 246.688H225.572C225.572 247.776 225.338 248.635 224.868 249.264C224.41 249.883 223.695 250.192 222.724 250.192ZM228.539 250V238.8H230.331V250H228.539Z" fill="#21333F"/>
<path d="M180 48.5H244C252.56 48.5 259.5 55.4396 259.5 64V112C259.5 120.56 252.56 127.5 244 127.5H180C171.44 127.5 164.5 120.56 164.5 112V64C164.5 55.4396 171.44 48.5 180 48.5Z" fill="white"/>
<path d="M180 48.5H244C252.56 48.5 259.5 55.4396 259.5 64V112C259.5 120.56 252.56 127.5 244 127.5H180C171.44 127.5 164.5 120.56 164.5 112V64C164.5 55.4396 171.44 48.5 180 48.5Z" stroke="#B6C9D8"/>
<mask id="mask1_12301_2122" style="mask-type:alpha" maskUnits="userSpaceOnUse" x="198" y="64" width="24" height="24">
<rect x="198" y="64" width="24" height="24" fill="#D9D9D9"/>
</mask>
<g mask="url(#mask1_12301_2122)">
<path d="M204.5 84C202.967 84 201.667 83.4667 200.6 82.4C199.533 81.3333 199 80.0333 199 78.5C199 77.2 199.404 76.0542 200.212 75.0625C201.021 74.0708 202.033 73.4333 203.25 73.15C203.667 71.65 204.492 70.4167 205.725 69.45C206.958 68.4833 208.383 68 210 68C211.983 68 213.646 68.6875 214.988 70.0625C216.329 71.4375 217 73.0833 217 75C218.25 75.1333 219.229 75.65 219.938 76.55C220.646 77.45 221 78.425 221 79.475C221 80.725 220.562 81.7917 219.688 82.675C218.812 83.5583 217.75 84 216.5 84H204.5ZM204.5 82H216.5C217.2 82 217.792 81.7583 218.275 81.275C218.758 80.7917 219 80.2 219 79.5C219 78.8 218.758 78.2083 218.275 77.725C217.792 77.2417 217.2 77 216.5 77H215V75C215 73.6167 214.513 72.4375 213.538 71.4625C212.563 70.4875 211.383 70 210 70C208.95 70 208.017 70.2875 207.2 70.8625C206.383 71.4375 205.783 72.175 205.4 73.075C206.533 73.2583 207.508 73.7458 208.325 74.5375C209.142 75.3292 209.667 76.2833 209.9 77.4C209.967 77.6833 209.896 77.9375 209.688 78.1625C209.479 78.3875 209.208 78.5 208.875 78.5C208.642 78.5 208.437 78.4208 208.262 78.2625C208.087 78.1042 207.967 77.9 207.9 77.65C207.717 76.9 207.308 76.2708 206.675 75.7625C206.042 75.2542 205.317 75 204.5 75C203.533 75 202.708 75.3417 202.025 76.025C201.342 76.7083 201 77.5333 201 78.5C201 79.4667 201.342 80.2917 202.025 80.975C202.708 81.6583 203.533 82 204.5 82Z" fill="#006590"/>
</g>
<path d="M184.133 101.872V100.16H186.485C186.848 100.16 187.168 100.08 187.445 99.92C187.733 99.76 187.962 99.5413 188.133 99.264C188.314 98.9867 188.405 98.672 188.405 98.32C188.405 97.7867 188.213 97.3493 187.829 97.008C187.445 96.6667 186.949 96.496 186.341 96.496H184.133V94.8L186.405 94.784C187.173 94.7733 187.85 94.9227 188.437 95.232C189.024 95.5307 189.482 95.9467 189.813 96.48C190.144 97.0133 190.309 97.6267 190.309 98.32C190.309 99.0133 190.133 99.6267 189.781 100.16C189.44 100.693 188.965 101.115 188.357 101.424C187.749 101.723 187.061 101.872 186.293 101.872H184.133ZM182.453 106V94.8H184.309V106H182.453ZM188.661 106L186.037 101.456L187.477 100.464L190.757 106H188.661ZM195.873 106.192C195.094 106.192 194.401 106.016 193.793 105.664C193.195 105.301 192.721 104.805 192.368 104.176C192.027 103.547 191.857 102.821 191.857 102C191.857 101.179 192.033 100.453 192.385 99.824C192.737 99.1947 193.217 98.704 193.825 98.352C194.443 97.9893 195.147 97.808 195.937 97.808C196.651 97.808 197.291 97.9947 197.857 98.368C198.433 98.7307 198.891 99.2587 199.233 99.952C199.574 100.645 199.745 101.472 199.745 102.432H197.937C197.937 101.739 197.851 101.168 197.681 100.72C197.521 100.272 197.286 99.9413 196.977 99.728C196.678 99.504 196.31 99.392 195.873 99.392C195.414 99.392 195.019 99.4933 194.689 99.696C194.358 99.8987 194.107 100.197 193.937 100.592C193.766 100.976 193.681 101.461 193.681 102.048C193.681 102.571 193.782 103.019 193.985 103.392C194.198 103.765 194.481 104.053 194.833 104.256C195.195 104.448 195.595 104.544 196.033 104.544C196.513 104.544 196.907 104.437 197.217 104.224C197.526 104 197.766 103.717 197.937 103.376L199.585 104.08C199.361 104.507 199.073 104.88 198.721 105.2C198.379 105.52 197.969 105.765 197.489 105.936C197.019 106.107 196.481 106.192 195.873 106.192ZM193.041 102.432V101.008H198.801V102.432H193.041ZM201.117 106V98H202.797L202.909 99.472V106H201.117ZM206.541 106V101.904L208.333 101.424V106H206.541ZM211.981 106V101.904L213.757 101.424V106H211.981ZM206.541 101.904C206.541 101.264 206.466 100.773 206.317 100.432C206.178 100.08 205.976 99.8347 205.709 99.696C205.453 99.5573 205.149 99.488 204.797 99.488C204.2 99.4773 203.736 99.6747 203.405 100.08C203.074 100.485 202.909 101.067 202.909 101.824H202.237C202.237 100.981 202.36 100.261 202.605 99.664C202.85 99.056 203.202 98.5973 203.661 98.288C204.12 97.968 204.664 97.808 205.293 97.808C206.264 97.808 207.01 98.1067 207.533 98.704C208.066 99.2907 208.333 100.197 208.333 101.424L206.541 101.904ZM211.981 101.904C211.981 101.264 211.906 100.773 211.757 100.432C211.608 100.08 211.4 99.8347 211.133 99.696C210.877 99.5573 210.578 99.488 210.237 99.488C209.629 99.4773 209.16 99.6747 208.829 100.08C208.498 100.485 208.333 101.067 208.333 101.824H207.661C207.661 100.981 207.784 100.261 208.029 99.664C208.274 99.056 208.626 98.5973 209.085 98.288C209.544 97.968 210.088 97.808 210.717 97.808C211.688 97.808 212.44 98.1067 212.973 98.704C213.506 99.2907 213.768 100.197 213.757 101.424L211.981 101.904ZM219.266 106.192C218.466 106.192 217.751 106.016 217.122 105.664C216.503 105.301 216.018 104.805 215.666 104.176C215.314 103.547 215.138 102.821 215.138 102C215.138 101.179 215.308 100.453 215.65 99.824C216.002 99.1947 216.487 98.704 217.106 98.352C217.724 97.9893 218.434 97.808 219.234 97.808C220.034 97.808 220.743 97.9893 221.362 98.352C221.98 98.704 222.46 99.1947 222.802 99.824C223.154 100.453 223.33 101.179 223.33 102C223.33 102.821 223.159 103.547 222.818 104.176C222.476 104.805 221.996 105.301 221.378 105.664C220.759 106.016 220.055 106.192 219.266 106.192ZM219.266 104.544C219.703 104.544 220.092 104.437 220.434 104.224C220.775 104 221.042 103.701 221.234 103.328C221.426 102.944 221.522 102.501 221.522 102C221.522 101.499 221.42 101.061 221.218 100.688C221.026 100.304 220.759 100.005 220.418 99.792C220.076 99.568 219.682 99.456 219.234 99.456C218.786 99.456 218.391 99.5627 218.05 99.776C217.708 99.9893 217.442 100.288 217.25 100.672C217.058 101.056 216.962 101.499 216.962 102C216.962 102.501 217.058 102.944 217.25 103.328C217.452 103.701 217.724 104 218.066 104.224C218.418 104.437 218.818 104.544 219.266 104.544ZM228.067 106.192C227.224 106.192 226.579 105.984 226.131 105.568C225.693 105.141 225.475 104.533 225.475 103.744V95.504H227.251V103.408C227.251 103.781 227.336 104.064 227.507 104.256C227.688 104.448 227.949 104.544 228.291 104.544C228.397 104.544 228.515 104.523 228.643 104.48C228.771 104.437 228.915 104.357 229.075 104.24L229.731 105.6C229.453 105.792 229.176 105.936 228.899 106.032C228.621 106.139 228.344 106.192 228.067 106.192ZM224.147 99.536V98H229.411V99.536H224.147ZM234.623 106.192C233.844 106.192 233.151 106.016 232.543 105.664C231.945 105.301 231.471 104.805 231.118 104.176C230.777 103.547 230.607 102.821 230.607 102C230.607 101.179 230.783 100.453 231.135 99.824C231.487 99.1947 231.967 98.704 232.575 98.352C233.193 97.9893 233.897 97.808 234.687 97.808C235.401 97.808 236.041 97.9947 236.607 98.368C237.183 98.7307 237.641 99.2587 237.983 99.952C238.324 100.645 238.495 101.472 238.495 102.432H236.687C236.687 101.739 236.601 101.168 236.431 100.72C236.271 100.272 236.036 99.9413 235.727 99.728C235.428 99.504 235.06 99.392 234.623 99.392C234.164 99.392 233.769 99.4933 233.439 99.696C233.108 99.8987 232.857 100.197 232.687 100.592C232.516 100.976 232.431 101.461 232.431 102.048C232.431 102.571 232.532 103.019 232.735 103.392C232.948 103.765 233.231 104.053 233.583 104.256C233.945 104.448 234.345 104.544 234.783 104.544C235.263 104.544 235.657 104.437 235.967 104.224C236.276 104 236.516 103.717 236.687 103.376L238.335 104.08C238.111 104.507 237.823 104.88 237.471 105.2C237.129 105.52 236.719 105.765 236.239 105.936C235.769 106.107 235.231 106.192 234.623 106.192ZM231.791 102.432V101.008H237.551V102.432H231.791Z" fill="#21333F"/>
<path fill-rule="evenodd" clip-rule="evenodd" d="M212 138C213.105 138 214 138.895 214 140L214 140C214 141.105 213.105 142 212 142C210.895 142 210 141.105 210 140L210 140C210 138.895 210.895 138 212 138ZM212 146C213.105 146 214 146.895 214 148L214 148C214 149.105 213.105 150 212 150C210.895 150 210 149.105 210 148L210 148C210 146.895 210.895 146 212 146ZM212 154C213.105 154 214 154.895 214 156L214 156C214 157.105 213.105 158 212 158C210.895 158 210 157.105 210 156L210 156C210 154.895 210.895 154 212 154ZM212 162C213.105 162 214 162.895 214 164L214 164C214 165.105 213.105 166 212 166C210.895 166 210 165.105 210 164L210 164C210 162.895 210.895 162 212 162ZM212 170C213.105 170 214 170.895 214 172L214 172C214 173.105 213.105 174 212 174C210.895 174 210 173.105 210 172L210 172C210 170.895 210.895 170 212 170ZM212 178C213.105 178 214 178.895 214 180L214 180C214 181.105 213.105 182 212 182C210.895 182 210 181.105 210 180L210 180C210 178.895 210.895 178 212 178Z" fill="#55B4ED"/>
<path d="M287 70.5H475C479.142 70.5 482.5 73.8579 482.5 78V98C482.5 102.142 479.142 105.5 475 105.5H287C282.858 105.5 279.5 102.142 279.5 98V78C279.5 73.8579 282.858 70.5 287 70.5Z" fill="white"/>
<path d="M287 70.5H475C479.142 70.5 482.5 73.8579 482.5 78V98C482.5 102.142 479.142 105.5 475 105.5H287C282.858 105.5 279.5 102.142 279.5 98V78C279.5 73.8579 282.858 70.5 287 70.5Z" stroke="#B6C9D8"/>
<path d="M294.381 93V84.012H296.005V93H294.381ZM291.371 84.684V83.2H299.015V84.684H291.371ZM300.083 93L300.069 83.074H301.637L301.651 93H300.083ZM304.829 93V89.416L306.397 88.996V93H304.829ZM304.829 89.416C304.829 88.856 304.764 88.4267 304.633 88.128C304.503 87.82 304.321 87.6053 304.087 87.484C303.863 87.3627 303.602 87.302 303.303 87.302C302.771 87.2927 302.361 87.4653 302.071 87.82C301.791 88.1747 301.651 88.6833 301.651 89.346H301.049C301.049 88.6087 301.157 87.9787 301.371 87.456C301.595 86.924 301.908 86.5227 302.309 86.252C302.711 85.972 303.187 85.832 303.737 85.832C304.577 85.832 305.231 86.0933 305.697 86.616C306.164 87.1293 306.397 87.9227 306.397 88.996L304.829 89.416ZM311.107 93.168C310.426 93.168 309.819 93.014 309.287 92.706C308.765 92.3887 308.349 91.9547 308.041 91.404C307.743 90.8533 307.593 90.2187 307.593 89.5C307.593 88.7813 307.747 88.1467 308.055 87.596C308.363 87.0453 308.783 86.616 309.315 86.308C309.857 85.9907 310.473 85.832 311.163 85.832C311.789 85.832 312.349 85.9953 312.843 86.322C313.347 86.6393 313.749 87.1013 314.047 87.708C314.346 88.3147 314.495 89.038 314.495 89.878H312.913C312.913 89.2713 312.839 88.772 312.689 88.38C312.549 87.988 312.344 87.6987 312.073 87.512C311.812 87.316 311.49 87.218 311.107 87.218C310.706 87.218 310.361 87.3067 310.071 87.484C309.782 87.6613 309.563 87.9227 309.413 88.268C309.264 88.604 309.189 89.0287 309.189 89.542C309.189 89.9993 309.278 90.3913 309.455 90.718C309.642 91.0447 309.889 91.2967 310.197 91.474C310.515 91.642 310.865 91.726 311.247 91.726C311.667 91.726 312.013 91.6327 312.283 91.446C312.554 91.25 312.764 91.0027 312.913 90.704L314.355 91.32C314.159 91.6933 313.907 92.02 313.599 92.3C313.301 92.58 312.941 92.7947 312.521 92.944C312.111 93.0933 311.639 93.168 311.107 93.168ZM308.629 89.878V88.632H313.669V89.878H308.629ZM316.732 89.276C316.732 88.52 316.877 87.8993 317.166 87.414C317.455 86.9287 317.829 86.5693 318.286 86.336C318.753 86.0933 319.238 85.972 319.742 85.972V87.47C319.313 87.47 318.907 87.5307 318.524 87.652C318.151 87.764 317.847 87.9507 317.614 88.212C317.381 88.4733 317.264 88.8187 317.264 89.248L316.732 89.276ZM315.696 93V86H317.264V93H315.696ZM323.904 93.168C323.223 93.168 322.616 93.014 322.084 92.706C321.561 92.3887 321.146 91.9547 320.838 91.404C320.539 90.8533 320.39 90.2187 320.39 89.5C320.39 88.7813 320.544 88.1467 320.852 87.596C321.16 87.0453 321.58 86.616 322.112 86.308C322.653 85.9907 323.269 85.832 323.96 85.832C324.585 85.832 325.145 85.9953 325.64 86.322C326.144 86.6393 326.545 87.1013 326.844 87.708C327.143 88.3147 327.292 89.038 327.292 89.878H325.71C325.71 89.2713 325.635 88.772 325.486 88.38C325.346 87.988 325.141 87.6987 324.87 87.512C324.609 87.316 324.287 87.218 323.904 87.218C323.503 87.218 323.157 87.3067 322.868 87.484C322.579 87.6613 322.359 87.9227 322.21 88.268C322.061 88.604 321.986 89.0287 321.986 89.542C321.986 89.9993 322.075 90.3913 322.252 90.718C322.439 91.0447 322.686 91.2967 322.994 91.474C323.311 91.642 323.661 91.726 324.044 91.726C324.464 91.726 324.809 91.6327 325.08 91.446C325.351 91.25 325.561 91.0027 325.71 90.704L327.152 91.32C326.956 91.6933 326.704 92.02 326.396 92.3C326.097 92.58 325.738 92.7947 325.318 92.944C324.907 93.0933 324.436 93.168 323.904 93.168ZM321.426 89.878V88.632H326.466V89.878H321.426ZM336.112 93L336.042 91.684V89.402C336.042 88.926 335.991 88.5293 335.888 88.212C335.785 87.8947 335.622 87.652 335.398 87.484C335.183 87.316 334.899 87.232 334.544 87.232C334.217 87.232 333.928 87.302 333.676 87.442C333.424 87.582 333.214 87.7967 333.046 88.086L331.618 87.582C331.777 87.274 331.982 86.9847 332.234 86.714C332.486 86.4433 332.803 86.2287 333.186 86.07C333.578 85.9113 334.04 85.832 334.572 85.832C335.253 85.832 335.818 85.958 336.266 86.21C336.723 86.462 337.064 86.8353 337.288 87.33C337.512 87.8247 337.624 88.436 337.624 89.164L337.582 93H336.112ZM334.124 93.168C333.284 93.168 332.631 92.9813 332.164 92.608C331.707 92.2347 331.478 91.7073 331.478 91.026C331.478 90.298 331.721 89.7427 332.206 89.36C332.701 88.9773 333.387 88.786 334.264 88.786H336.14V89.99H334.768C334.143 89.99 333.704 90.0787 333.452 90.256C333.2 90.424 333.074 90.6667 333.074 90.984C333.074 91.2547 333.181 91.4693 333.396 91.628C333.62 91.7773 333.928 91.852 334.32 91.852C334.665 91.852 334.964 91.7727 335.216 91.614C335.477 91.446 335.678 91.2313 335.818 90.97C335.967 90.6993 336.042 90.41 336.042 90.102H336.616C336.616 91.054 336.411 91.8053 336 92.356C335.599 92.8973 334.973 93.168 334.124 93.168ZM340.248 89.276C340.248 88.52 340.392 87.8993 340.682 87.414C340.971 86.9287 341.344 86.5693 341.802 86.336C342.268 86.0933 342.754 85.972 343.258 85.972V87.47C342.828 87.47 342.422 87.5307 342.04 87.652C341.666 87.764 341.363 87.9507 341.13 88.212C340.896 88.4733 340.78 88.8187 340.78 89.248L340.248 89.276ZM339.212 93V86H340.78V93H339.212ZM347.42 93.168C346.738 93.168 346.132 93.014 345.6 92.706C345.077 92.3887 344.662 91.9547 344.354 91.404C344.055 90.8533 343.906 90.2187 343.906 89.5C343.906 88.7813 344.06 88.1467 344.368 87.596C344.676 87.0453 345.096 86.616 345.628 86.308C346.169 85.9907 346.785 85.832 347.476 85.832C348.101 85.832 348.661 85.9953 349.156 86.322C349.66 86.6393 350.061 87.1013 350.36 87.708C350.658 88.3147 350.808 89.038 350.808 89.878H349.226C349.226 89.2713 349.151 88.772 349.002 88.38C348.862 87.988 348.656 87.6987 348.386 87.512C348.124 87.316 347.802 87.218 347.42 87.218C347.018 87.218 346.673 87.3067 346.384 87.484C346.094 87.6613 345.875 87.9227 345.726 88.268C345.576 88.604 345.502 89.0287 345.502 89.542C345.502 89.9993 345.59 90.3913 345.768 90.718C345.954 91.0447 346.202 91.2967 346.51 91.474C346.827 91.642 347.177 91.726 347.56 91.726C347.98 91.726 348.325 91.6327 348.596 91.446C348.866 91.25 349.076 91.0027 349.226 90.704L350.668 91.32C350.472 91.6933 350.22 92.02 349.912 92.3C349.613 92.58 349.254 92.7947 348.834 92.944C348.423 93.0933 347.952 93.168 347.42 93.168ZM344.942 89.878V88.632H349.982V89.878H344.942ZM357.36 93L357.374 84.068L357.528 83.2H358.942L358.928 93H357.36ZM355.246 86.07V84.6C355.46 84.6093 355.703 84.5487 355.974 84.418C356.254 84.278 356.529 84.096 356.8 83.872C357.07 83.648 357.313 83.4193 357.528 83.186L358.536 84.236C358.209 84.5813 357.868 84.8987 357.514 85.188C357.159 85.4773 356.79 85.7013 356.408 85.86C356.034 86.0187 355.647 86.0887 355.246 86.07ZM364.247 93.168C363.715 93.168 363.229 93.0887 362.791 92.93C362.352 92.7713 361.983 92.5473 361.685 92.258C361.386 91.9687 361.171 91.642 361.041 91.278L362.497 90.732C362.571 90.8627 362.674 91.0073 362.805 91.166C362.935 91.3247 363.108 91.4647 363.323 91.586C363.537 91.698 363.813 91.754 364.149 91.754C364.681 91.754 365.101 91.6047 365.409 91.306C365.726 90.998 365.885 90.6107 365.885 90.144C365.885 89.808 365.796 89.5187 365.619 89.276C365.451 89.0333 365.185 88.8467 364.821 88.716C364.466 88.5853 364.018 88.52 363.477 88.52H363.029V87.372H363.435C364.004 87.372 364.531 87.4373 365.017 87.568C365.511 87.6987 365.945 87.8947 366.319 88.156C366.701 88.408 366.995 88.716 367.201 89.08C367.415 89.444 367.523 89.8547 367.523 90.312C367.523 90.9 367.369 91.4087 367.061 91.838C366.762 92.2673 366.365 92.5987 365.871 92.832C365.376 93.056 364.835 93.168 364.247 93.168ZM363.029 88.268V87.176H363.477C364.195 87.176 364.741 87.0547 365.115 86.812C365.488 86.5693 365.675 86.2287 365.675 85.79C365.675 85.538 365.609 85.314 365.479 85.118C365.357 84.9127 365.18 84.7493 364.947 84.628C364.713 84.5067 364.438 84.446 364.121 84.446C363.915 84.446 363.715 84.4787 363.519 84.544C363.323 84.6093 363.141 84.712 362.973 84.852C362.805 84.992 362.665 85.174 362.553 85.398L361.139 84.88C361.279 84.488 361.503 84.1567 361.811 83.886C362.119 83.606 362.478 83.396 362.889 83.256C363.299 83.1067 363.729 83.032 364.177 83.032C364.774 83.032 365.306 83.144 365.773 83.368C366.249 83.592 366.622 83.9047 366.893 84.306C367.173 84.698 367.313 85.1507 367.313 85.664C367.313 86.0933 367.205 86.4713 366.991 86.798C366.785 87.1247 366.501 87.4 366.137 87.624C365.773 87.8387 365.357 88.002 364.891 88.114C364.433 88.2167 363.943 88.268 363.421 88.268H363.029ZM372.339 93V86H373.809L373.907 87.288V93H372.339ZM377.085 93V89.416L378.653 88.996V93H377.085ZM377.085 89.416C377.085 88.856 377.019 88.4267 376.889 88.128C376.767 87.82 376.59 87.6053 376.357 87.484C376.133 87.3627 375.867 87.302 375.559 87.302C375.036 87.2927 374.63 87.4653 374.341 87.82C374.051 88.1747 373.907 88.6833 373.907 89.346H373.319C373.319 88.6087 373.426 87.9787 373.641 87.456C373.855 86.924 374.163 86.5227 374.565 86.252C374.966 85.972 375.442 85.832 375.993 85.832C376.842 85.832 377.495 86.0933 377.953 86.616C378.419 87.1293 378.653 87.9227 378.653 88.996L377.085 89.416ZM383.363 93.168C382.682 93.168 382.075 93.014 381.543 92.706C381.02 92.3887 380.605 91.9547 380.297 91.404C379.998 90.8533 379.849 90.2187 379.849 89.5C379.849 88.7813 380.003 88.1467 380.311 87.596C380.619 87.0453 381.039 86.616 381.571 86.308C382.112 85.9907 382.728 85.832 383.419 85.832C384.044 85.832 384.604 85.9953 385.099 86.322C385.603 86.6393 386.004 87.1013 386.303 87.708C386.602 88.3147 386.751 89.038 386.751 89.878H385.169C385.169 89.2713 385.094 88.772 384.945 88.38C384.805 87.988 384.6 87.6987 384.329 87.512C384.068 87.316 383.746 87.218 383.363 87.218C382.962 87.218 382.616 87.3067 382.327 87.484C382.038 87.6613 381.818 87.9227 381.669 88.268C381.52 88.604 381.445 89.0287 381.445 89.542C381.445 89.9993 381.534 90.3913 381.711 90.718C381.898 91.0447 382.145 91.2967 382.453 91.474C382.77 91.642 383.12 91.726 383.503 91.726C383.923 91.726 384.268 91.6327 384.539 91.446C384.81 91.25 385.02 91.0027 385.169 90.704L386.611 91.32C386.415 91.6933 386.163 92.02 385.855 92.3C385.556 92.58 385.197 92.7947 384.777 92.944C384.366 93.0933 383.895 93.168 383.363 93.168ZM380.885 89.878V88.632H385.925V89.878H380.885ZM394.174 93L396.512 86H398.094L395.714 93H394.174ZM389.484 93L391.766 86H393.152L390.898 93H389.484ZM389.344 93L386.964 86H388.546L390.828 93H389.344ZM394.16 93L391.92 86H393.306L395.588 93H394.16ZM402.039 93.168C401.357 93.168 400.751 93.014 400.219 92.706C399.696 92.3887 399.281 91.9547 398.973 91.404C398.674 90.8533 398.525 90.2187 398.525 89.5C398.525 88.7813 398.679 88.1467 398.987 87.596C399.295 87.0453 399.715 86.616 400.247 86.308C400.788 85.9907 401.404 85.832 402.095 85.832C402.72 85.832 403.28 85.9953 403.775 86.322C404.279 86.6393 404.68 87.1013 404.979 87.708C405.277 88.3147 405.427 89.038 405.427 89.878H403.845C403.845 89.2713 403.77 88.772 403.621 88.38C403.481 87.988 403.275 87.6987 403.005 87.512C402.743 87.316 402.421 87.218 402.039 87.218C401.637 87.218 401.292 87.3067 401.003 87.484C400.713 87.6613 400.494 87.9227 400.345 88.268C400.195 88.604 400.121 89.0287 400.121 89.542C400.121 89.9993 400.209 90.3913 400.387 90.718C400.573 91.0447 400.821 91.2967 401.129 91.474C401.446 91.642 401.796 91.726 402.179 91.726C402.599 91.726 402.944 91.6327 403.215 91.446C403.485 91.25 403.695 91.0027 403.845 90.704L405.287 91.32C405.091 91.6933 404.839 92.02 404.531 92.3C404.232 92.58 403.873 92.7947 403.453 92.944C403.042 93.0933 402.571 93.168 402.039 93.168ZM399.561 89.878V88.632H404.601V89.878H399.561ZM407.664 89.276C407.664 88.52 407.808 87.8993 408.098 87.414C408.387 86.9287 408.76 86.5693 409.218 86.336C409.684 86.0933 410.17 85.972 410.674 85.972V87.47C410.244 87.47 409.838 87.5307 409.456 87.652C409.082 87.764 408.779 87.9507 408.546 88.212C408.312 88.4733 408.196 88.8187 408.196 89.248L407.664 89.276ZM406.628 93V86H408.196V93H406.628ZM418.367 93.168C417.648 93.168 417.013 93.014 416.463 92.706C415.912 92.3887 415.478 91.9547 415.161 91.404C414.853 90.8533 414.699 90.2187 414.699 89.5C414.699 88.7813 414.853 88.1467 415.161 87.596C415.478 87.0453 415.907 86.616 416.449 86.308C416.999 85.9907 417.629 85.832 418.339 85.832C419.029 85.832 419.655 86 420.215 86.336C420.775 86.6627 421.19 87.134 421.461 87.75L420.005 88.31C419.855 88.002 419.627 87.7547 419.319 87.568C419.011 87.3813 418.661 87.288 418.269 87.288C417.886 87.288 417.545 87.386 417.247 87.582C416.948 87.7687 416.715 88.03 416.547 88.366C416.379 88.6927 416.295 89.0707 416.295 89.5C416.295 89.9293 416.379 90.312 416.547 90.648C416.724 90.9747 416.962 91.236 417.261 91.432C417.569 91.6187 417.914 91.712 418.297 91.712C418.689 91.712 419.039 91.614 419.347 91.418C419.655 91.2127 419.883 90.9373 420.033 90.592L421.489 91.152C421.218 91.7867 420.803 92.2813 420.243 92.636C419.692 92.9907 419.067 93.168 418.367 93.168ZM425.926 93.168C425.226 93.168 424.601 93.014 424.05 92.706C423.509 92.3887 423.084 91.9547 422.776 91.404C422.468 90.8533 422.314 90.2187 422.314 89.5C422.314 88.7813 422.463 88.1467 422.762 87.596C423.07 87.0453 423.495 86.616 424.036 86.308C424.577 85.9907 425.198 85.832 425.898 85.832C426.598 85.832 427.219 85.9907 427.76 86.308C428.301 86.616 428.721 87.0453 429.02 87.596C429.328 88.1467 429.482 88.7813 429.482 89.5C429.482 90.2187 429.333 90.8533 429.034 91.404C428.735 91.9547 428.315 92.3887 427.774 92.706C427.233 93.014 426.617 93.168 425.926 93.168ZM425.926 91.726C426.309 91.726 426.649 91.6327 426.948 91.446C427.247 91.25 427.48 90.9887 427.648 90.662C427.816 90.326 427.9 89.9387 427.9 89.5C427.9 89.0613 427.811 88.6787 427.634 88.352C427.466 88.016 427.233 87.7547 426.934 87.568C426.635 87.372 426.29 87.274 425.898 87.274C425.506 87.274 425.161 87.3673 424.862 87.554C424.563 87.7407 424.33 88.002 424.162 88.338C423.994 88.674 423.91 89.0613 423.91 89.5C423.91 89.9387 423.994 90.326 424.162 90.662C424.339 90.9887 424.577 91.25 424.876 91.446C425.184 91.6327 425.534 91.726 425.926 91.726ZM430.841 93V86H432.311L432.409 87.288V93H430.841ZM435.587 93V89.416L437.155 88.996V93H435.587ZM440.347 93V89.416L441.901 88.996V93H440.347ZM435.587 89.416C435.587 88.856 435.521 88.4267 435.391 88.128C435.269 87.82 435.092 87.6053 434.859 87.484C434.635 87.3627 434.369 87.302 434.061 87.302C433.538 87.2927 433.132 87.4653 432.843 87.82C432.553 88.1747 432.409 88.6833 432.409 89.346H431.821C431.821 88.6087 431.928 87.9787 432.143 87.456C432.357 86.924 432.665 86.5227 433.067 86.252C433.468 85.972 433.944 85.832 434.495 85.832C435.344 85.832 435.997 86.0933 436.455 86.616C436.921 87.1293 437.155 87.9227 437.155 88.996L435.587 89.416ZM440.347 89.416C440.347 88.856 440.281 88.4267 440.151 88.128C440.02 87.82 439.838 87.6053 439.605 87.484C439.381 87.3627 439.119 87.302 438.821 87.302C438.289 87.2927 437.878 87.4653 437.589 87.82C437.299 88.1747 437.155 88.6833 437.155 89.346H436.567C436.567 88.6087 436.674 87.9787 436.889 87.456C437.103 86.924 437.411 86.5227 437.813 86.252C438.214 85.972 438.69 85.832 439.241 85.832C440.09 85.832 440.748 86.0933 441.215 86.616C441.681 87.1293 441.91 87.9227 441.901 88.996L440.347 89.416ZM443.501 93V86H444.971L445.069 87.288V93H443.501ZM448.247 93V89.416L449.815 88.996V93H448.247ZM453.007 93V89.416L454.561 88.996V93H453.007ZM448.247 89.416C448.247 88.856 448.181 88.4267 448.051 88.128C447.929 87.82 447.752 87.6053 447.519 87.484C447.295 87.3627 447.029 87.302 446.721 87.302C446.198 87.2927 445.792 87.4653 445.503 87.82C445.213 88.1747 445.069 88.6833 445.069 89.346H444.481C444.481 88.6087 444.588 87.9787 444.803 87.456C445.017 86.924 445.325 86.5227 445.727 86.252C446.128 85.972 446.604 85.832 447.155 85.832C448.004 85.832 448.657 86.0933 449.115 86.616C449.581 87.1293 449.815 87.9227 449.815 88.996L448.247 89.416ZM453.007 89.416C453.007 88.856 452.941 88.4267 452.811 88.128C452.68 87.82 452.498 87.6053 452.265 87.484C452.041 87.3627 451.779 87.302 451.481 87.302C450.949 87.2927 450.538 87.4653 450.249 87.82C449.959 88.1747 449.815 88.6833 449.815 89.346H449.227C449.227 88.6087 449.334 87.9787 449.549 87.456C449.763 86.924 450.071 86.5227 450.473 86.252C450.874 85.972 451.35 85.832 451.901 85.832C452.75 85.832 453.408 86.0933 453.875 86.616C454.341 87.1293 454.57 87.9227 454.561 88.996L453.007 89.416ZM456.259 93L456.273 86H457.827L457.813 93H456.259ZM457.043 84.67C456.791 84.67 456.572 84.5813 456.385 84.404C456.208 84.2173 456.119 83.998 456.119 83.746C456.119 83.494 456.208 83.2793 456.385 83.102C456.572 82.9247 456.791 82.836 457.043 82.836C457.295 82.836 457.51 82.9247 457.687 83.102C457.874 83.2793 457.967 83.494 457.967 83.746C457.967 83.998 457.874 84.2173 457.687 84.404C457.51 84.5813 457.295 84.67 457.043 84.67ZM462.447 93.168C461.71 93.168 461.145 92.986 460.753 92.622C460.37 92.2487 460.179 91.7167 460.179 91.026V83.816H461.733V90.732C461.733 91.0587 461.808 91.306 461.957 91.474C462.116 91.642 462.344 91.726 462.643 91.726C462.736 91.726 462.839 91.7073 462.951 91.67C463.063 91.6327 463.189 91.5627 463.329 91.46L463.903 92.65C463.66 92.818 463.418 92.944 463.175 93.028C462.932 93.1213 462.69 93.168 462.447 93.168ZM459.017 87.344V86H463.623V87.344H459.017ZM467.705 93.168C467.238 93.168 466.809 93.098 466.417 92.958C466.025 92.818 465.689 92.622 465.409 92.37C465.129 92.1087 464.914 91.8053 464.765 91.46L466.123 90.858C466.263 91.1193 466.468 91.3387 466.739 91.516C467.019 91.6933 467.327 91.782 467.663 91.782C468.027 91.782 468.316 91.7213 468.531 91.6C468.755 91.4693 468.867 91.292 468.867 91.068C468.867 90.8533 468.783 90.69 468.615 90.578C468.447 90.4567 468.209 90.3587 467.901 90.284L467.243 90.102C466.58 89.934 466.062 89.668 465.689 89.304C465.316 88.9307 465.129 88.506 465.129 88.03C465.129 87.33 465.353 86.7887 465.801 86.406C466.258 86.0233 466.912 85.832 467.761 85.832C468.19 85.832 468.582 85.8973 468.937 86.028C469.301 86.1493 469.614 86.3267 469.875 86.56C470.136 86.784 470.318 87.05 470.421 87.358L469.119 87.946C469.026 87.7127 468.848 87.5353 468.587 87.414C468.326 87.2833 468.036 87.218 467.719 87.218C467.402 87.218 467.154 87.288 466.977 87.428C466.8 87.5587 466.711 87.7453 466.711 87.988C466.711 88.128 466.79 88.2587 466.949 88.38C467.108 88.492 467.336 88.5853 467.635 88.66L468.461 88.856C468.918 88.968 469.292 89.1453 469.581 89.388C469.87 89.6213 470.085 89.8873 470.225 90.186C470.365 90.4753 470.435 90.7693 470.435 91.068C470.435 91.488 470.314 91.8567 470.071 92.174C469.838 92.4913 469.516 92.7387 469.105 92.916C468.694 93.084 468.228 93.168 467.705 93.168Z" fill="#21333F"/>
<path d="M275 88L281 82V94L275 88Z" fill="white"/>
</svg>
