<svg width="600" height="320" viewBox="0 0 600 320" fill="none" xmlns="http://www.w3.org/2000/svg">
<path d="M268 216.5H332C340.56 216.5 347.5 223.44 347.5 232V280C347.5 288.56 340.56 295.5 332 295.5H268C259.44 295.5 252.5 288.56 252.5 280V232C252.5 223.44 259.44 216.5 268 216.5Z" fill="white"/>
<path d="M268 216.5H332C340.56 216.5 347.5 223.44 347.5 232V280C347.5 288.56 340.56 295.5 332 295.5H268C259.44 295.5 252.5 288.56 252.5 280V232C252.5 223.44 259.44 216.5 268 216.5Z" stroke="#B6C9D8"/>
<mask id="mask0_12319_14037" style="mask-type:alpha" maskUnits="userSpaceOnUse" x="288" y="232" width="24" height="24">
<rect x="288" y="232" width="24" height="24" fill="#D9D9D9"/>
</mask>
<g mask="url(#mask0_12319_14037)">
<path d="M288 252V250H292V249C291.45 249 290.979 248.804 290.588 248.413C290.196 248.021 290 247.55 290 247V237C290 236.45 290.196 235.979 290.588 235.588C290.979 235.196 291.45 235 292 235H308C308.55 235 309.021 235.196 309.413 235.588C309.804 235.979 310 236.45 310 237V247C310 247.55 309.804 248.021 309.413 248.413C309.021 248.804 308.55 249 308 249V250H312V252H288ZM292 247H308V237H292V247Z" fill="#006590"/>
</g>
<path d="M282 274V262.8H283.856V274H282ZM283.296 274V272.304H288.928V274H283.296ZM293.828 274.192C293.028 274.192 292.314 274.016 291.684 273.664C291.066 273.301 290.58 272.805 290.228 272.176C289.876 271.547 289.7 270.821 289.7 270C289.7 269.179 289.871 268.453 290.212 267.824C290.564 267.195 291.05 266.704 291.668 266.352C292.287 265.989 292.996 265.808 293.796 265.808C294.596 265.808 295.306 265.989 295.924 266.352C296.543 266.704 297.023 267.195 297.364 267.824C297.716 268.453 297.892 269.179 297.892 270C297.892 270.821 297.722 271.547 297.38 272.176C297.039 272.805 296.559 273.301 295.94 273.664C295.322 274.016 294.618 274.192 293.828 274.192ZM293.828 272.544C294.266 272.544 294.655 272.437 294.996 272.224C295.338 272 295.604 271.701 295.796 271.328C295.988 270.944 296.084 270.501 296.084 270C296.084 269.499 295.983 269.061 295.78 268.688C295.588 268.304 295.322 268.005 294.98 267.792C294.639 267.568 294.244 267.456 293.796 267.456C293.348 267.456 292.954 267.563 292.612 267.776C292.271 267.989 292.004 268.288 291.812 268.672C291.62 269.056 291.524 269.499 291.524 270C291.524 270.501 291.62 270.944 291.812 271.328C292.015 271.701 292.287 272 292.628 272.224C292.98 272.437 293.38 272.544 293.828 272.544ZM303.189 274.192C302.368 274.192 301.642 274.016 301.013 273.664C300.384 273.301 299.888 272.805 299.525 272.176C299.173 271.547 298.997 270.821 298.997 270C298.997 269.179 299.173 268.453 299.525 267.824C299.888 267.195 300.378 266.704 300.997 266.352C301.626 265.989 302.346 265.808 303.157 265.808C303.946 265.808 304.661 266 305.301 266.384C305.941 266.757 306.416 267.296 306.725 268L305.061 268.64C304.89 268.288 304.629 268.005 304.277 267.792C303.925 267.579 303.525 267.472 303.077 267.472C302.64 267.472 302.25 267.584 301.909 267.808C301.568 268.021 301.301 268.32 301.109 268.704C300.917 269.077 300.821 269.509 300.821 270C300.821 270.491 300.917 270.928 301.109 271.312C301.312 271.685 301.584 271.984 301.925 272.208C302.277 272.421 302.672 272.528 303.109 272.528C303.557 272.528 303.957 272.416 304.309 272.192C304.661 271.957 304.922 271.643 305.093 271.248L306.757 271.888C306.448 272.613 305.973 273.179 305.333 273.584C304.704 273.989 303.989 274.192 303.189 274.192ZM312.996 274L312.916 272.496V269.888C312.916 269.344 312.858 268.891 312.74 268.528C312.623 268.165 312.436 267.888 312.18 267.696C311.935 267.504 311.61 267.408 311.204 267.408C310.831 267.408 310.5 267.488 310.212 267.648C309.924 267.808 309.684 268.053 309.492 268.384L307.86 267.808C308.042 267.456 308.276 267.125 308.564 266.816C308.852 266.507 309.215 266.261 309.652 266.08C310.1 265.899 310.628 265.808 311.236 265.808C312.015 265.808 312.66 265.952 313.172 266.24C313.695 266.528 314.084 266.955 314.34 267.52C314.596 268.085 314.724 268.784 314.724 269.616L314.676 274H312.996ZM310.724 274.192C309.764 274.192 309.018 273.979 308.484 273.552C307.962 273.125 307.7 272.523 307.7 271.744C307.7 270.912 307.978 270.277 308.532 269.84C309.098 269.403 309.882 269.184 310.884 269.184H313.028V270.56H311.46C310.746 270.56 310.244 270.661 309.956 270.864C309.668 271.056 309.524 271.333 309.524 271.696C309.524 272.005 309.647 272.251 309.892 272.432C310.148 272.603 310.5 272.688 310.948 272.688C311.343 272.688 311.684 272.597 311.972 272.416C312.271 272.224 312.5 271.979 312.66 271.68C312.831 271.371 312.916 271.04 312.916 270.688H313.572C313.572 271.776 313.338 272.635 312.868 273.264C312.41 273.883 311.695 274.192 310.724 274.192ZM316.539 274V262.8H318.331V274H316.539Z" fill="#21333F"/>
<path d="M268 64.5H332C340.56 64.5 347.5 71.4396 347.5 80V128C347.5 136.56 340.56 143.5 332 143.5H268C259.44 143.5 252.5 136.56 252.5 128V80C252.5 71.4396 259.44 64.5 268 64.5Z" fill="white"/>
<path d="M268 64.5H332C340.56 64.5 347.5 71.4396 347.5 80V128C347.5 136.56 340.56 143.5 332 143.5H268C259.44 143.5 252.5 136.56 252.5 128V80C252.5 71.4396 259.44 64.5 268 64.5Z" stroke="#B6C9D8"/>
<mask id="mask1_12319_14037" style="mask-type:alpha" maskUnits="userSpaceOnUse" x="286" y="80" width="24" height="24">
<rect x="286" y="80" width="24" height="24" fill="#D9D9D9"/>
</mask>
<g mask="url(#mask1_12319_14037)">
<path d="M292.5 100C290.967 100 289.667 99.4667 288.6 98.4C287.533 97.3333 287 96.0333 287 94.5C287 93.2 287.404 92.0542 288.212 91.0625C289.021 90.0708 290.033 89.4333 291.25 89.15C291.667 87.65 292.492 86.4167 293.725 85.45C294.958 84.4833 296.383 84 298 84C299.983 84 301.646 84.6875 302.988 86.0625C304.329 87.4375 305 89.0833 305 91C306.25 91.1333 307.229 91.65 307.938 92.55C308.646 93.45 309 94.425 309 95.475C309 96.725 308.562 97.7917 307.688 98.675C306.812 99.5583 305.75 100 304.5 100H292.5ZM292.5 98H304.5C305.2 98 305.792 97.7583 306.275 97.275C306.758 96.7917 307 96.2 307 95.5C307 94.8 306.758 94.2083 306.275 93.725C305.792 93.2417 305.2 93 304.5 93H303V91C303 89.6167 302.513 88.4375 301.538 87.4625C300.563 86.4875 299.383 86 298 86C296.95 86 296.017 86.2875 295.2 86.8625C294.383 87.4375 293.783 88.175 293.4 89.075C294.533 89.2583 295.508 89.7458 296.325 90.5375C297.142 91.3292 297.667 92.2833 297.9 93.4C297.967 93.6833 297.896 93.9375 297.688 94.1625C297.479 94.3875 297.208 94.5 296.875 94.5C296.642 94.5 296.437 94.4208 296.262 94.2625C296.087 94.1042 295.967 93.9 295.9 93.65C295.717 92.9 295.308 92.2708 294.675 91.7625C294.042 91.2542 293.317 91 292.5 91C291.533 91 290.708 91.3417 290.025 92.025C289.342 92.7083 289 93.5333 289 94.5C289 95.4667 289.342 96.2917 290.025 96.975C290.708 97.6583 291.533 98 292.5 98Z" fill="#006590"/>
</g>
<path d="M272.133 117.872V116.16H274.485C274.848 116.16 275.168 116.08 275.445 115.92C275.733 115.76 275.962 115.541 276.133 115.264C276.314 114.987 276.405 114.672 276.405 114.32C276.405 113.787 276.213 113.349 275.829 113.008C275.445 112.667 274.949 112.496 274.341 112.496H272.133V110.8L274.405 110.784C275.173 110.773 275.85 110.923 276.437 111.232C277.024 111.531 277.482 111.947 277.813 112.48C278.144 113.013 278.309 113.627 278.309 114.32C278.309 115.013 278.133 115.627 277.781 116.16C277.44 116.693 276.965 117.115 276.357 117.424C275.749 117.723 275.061 117.872 274.293 117.872H272.133ZM270.453 122V110.8H272.309V122H270.453ZM276.661 122L274.037 117.456L275.477 116.464L278.757 122H276.661ZM283.873 122.192C283.094 122.192 282.401 122.016 281.793 121.664C281.195 121.301 280.721 120.805 280.368 120.176C280.027 119.547 279.857 118.821 279.857 118C279.857 117.179 280.033 116.453 280.385 115.824C280.737 115.195 281.217 114.704 281.825 114.352C282.443 113.989 283.147 113.808 283.937 113.808C284.651 113.808 285.291 113.995 285.857 114.368C286.433 114.731 286.891 115.259 287.233 115.952C287.574 116.645 287.745 117.472 287.745 118.432H285.937C285.937 117.739 285.851 117.168 285.681 116.72C285.521 116.272 285.286 115.941 284.977 115.728C284.678 115.504 284.31 115.392 283.873 115.392C283.414 115.392 283.019 115.493 282.689 115.696C282.358 115.899 282.107 116.197 281.937 116.592C281.766 116.976 281.681 117.461 281.681 118.048C281.681 118.571 281.782 119.019 281.985 119.392C282.198 119.765 282.481 120.053 282.833 120.256C283.195 120.448 283.595 120.544 284.033 120.544C284.513 120.544 284.907 120.437 285.217 120.224C285.526 120 285.766 119.717 285.937 119.376L287.585 120.08C287.361 120.507 287.073 120.88 286.721 121.2C286.379 121.52 285.969 121.765 285.489 121.936C285.019 122.107 284.481 122.192 283.873 122.192ZM281.041 118.432V117.008H286.801V118.432H281.041ZM289.117 122V114H290.797L290.909 115.472V122H289.117ZM294.541 122V117.904L296.333 117.424V122H294.541ZM299.981 122V117.904L301.757 117.424V122H299.981ZM294.541 117.904C294.541 117.264 294.466 116.773 294.317 116.432C294.178 116.08 293.976 115.835 293.709 115.696C293.453 115.557 293.149 115.488 292.797 115.488C292.2 115.477 291.736 115.675 291.405 116.08C291.074 116.485 290.909 117.067 290.909 117.824H290.237C290.237 116.981 290.36 116.261 290.605 115.664C290.85 115.056 291.202 114.597 291.661 114.288C292.12 113.968 292.664 113.808 293.293 113.808C294.264 113.808 295.01 114.107 295.533 114.704C296.066 115.291 296.333 116.197 296.333 117.424L294.541 117.904ZM299.981 117.904C299.981 117.264 299.906 116.773 299.757 116.432C299.608 116.08 299.4 115.835 299.133 115.696C298.877 115.557 298.578 115.488 298.237 115.488C297.629 115.477 297.16 115.675 296.829 116.08C296.498 116.485 296.333 117.067 296.333 117.824H295.661C295.661 116.981 295.784 116.261 296.029 115.664C296.274 115.056 296.626 114.597 297.085 114.288C297.544 113.968 298.088 113.808 298.717 113.808C299.688 113.808 300.44 114.107 300.973 114.704C301.506 115.291 301.768 116.197 301.757 117.424L299.981 117.904ZM307.266 122.192C306.466 122.192 305.751 122.016 305.122 121.664C304.503 121.301 304.018 120.805 303.666 120.176C303.314 119.547 303.138 118.821 303.138 118C303.138 117.179 303.308 116.453 303.65 115.824C304.002 115.195 304.487 114.704 305.106 114.352C305.724 113.989 306.434 113.808 307.234 113.808C308.034 113.808 308.743 113.989 309.362 114.352C309.98 114.704 310.46 115.195 310.802 115.824C311.154 116.453 311.33 117.179 311.33 118C311.33 118.821 311.159 119.547 310.818 120.176C310.476 120.805 309.996 121.301 309.378 121.664C308.759 122.016 308.055 122.192 307.266 122.192ZM307.266 120.544C307.703 120.544 308.092 120.437 308.434 120.224C308.775 120 309.042 119.701 309.234 119.328C309.426 118.944 309.522 118.501 309.522 118C309.522 117.499 309.42 117.061 309.218 116.688C309.026 116.304 308.759 116.005 308.418 115.792C308.076 115.568 307.682 115.456 307.234 115.456C306.786 115.456 306.391 115.563 306.05 115.776C305.708 115.989 305.442 116.288 305.25 116.672C305.058 117.056 304.962 117.499 304.962 118C304.962 118.501 305.058 118.944 305.25 119.328C305.452 119.701 305.724 120 306.066 120.224C306.418 120.437 306.818 120.544 307.266 120.544ZM316.067 122.192C315.224 122.192 314.579 121.984 314.131 121.568C313.693 121.141 313.475 120.533 313.475 119.744V111.504H315.251V119.408C315.251 119.781 315.336 120.064 315.507 120.256C315.688 120.448 315.949 120.544 316.291 120.544C316.397 120.544 316.515 120.523 316.643 120.48C316.771 120.437 316.915 120.357 317.075 120.24L317.731 121.6C317.453 121.792 317.176 121.936 316.899 122.032C316.621 122.139 316.344 122.192 316.067 122.192ZM312.147 115.536V114H317.411V115.536H312.147ZM322.623 122.192C321.844 122.192 321.151 122.016 320.543 121.664C319.945 121.301 319.471 120.805 319.118 120.176C318.777 119.547 318.607 118.821 318.607 118C318.607 117.179 318.783 116.453 319.135 115.824C319.487 115.195 319.967 114.704 320.575 114.352C321.193 113.989 321.897 113.808 322.687 113.808C323.401 113.808 324.041 113.995 324.607 114.368C325.183 114.731 325.641 115.259 325.983 115.952C326.324 116.645 326.495 117.472 326.495 118.432H324.687C324.687 117.739 324.601 117.168 324.431 116.72C324.271 116.272 324.036 115.941 323.727 115.728C323.428 115.504 323.06 115.392 322.623 115.392C322.164 115.392 321.769 115.493 321.439 115.696C321.108 115.899 320.857 116.197 320.687 116.592C320.516 116.976 320.431 117.461 320.431 118.048C320.431 118.571 320.532 119.019 320.735 119.392C320.948 119.765 321.231 120.053 321.583 120.256C321.945 120.448 322.345 120.544 322.783 120.544C323.263 120.544 323.657 120.437 323.967 120.224C324.276 120 324.516 119.717 324.687 119.376L326.335 120.08C326.111 120.507 325.823 120.88 325.471 121.2C325.129 121.52 324.719 121.765 324.239 121.936C323.769 122.107 323.231 122.192 322.623 122.192ZM319.791 118.432V117.008H325.551V118.432H319.791Z" fill="#21333F"/>
<path d="M300 164V176" stroke="#87CEFF" stroke-width="6" stroke-linecap="round"/>
<path d="M300 44V32" stroke="#87CEFF" stroke-width="6" stroke-linecap="round"/>
<path d="M268 160L266 172" stroke="#87CEFF" stroke-width="6" stroke-linecap="round"/>
<path d="M268 48L266 36" stroke="#87CEFF" stroke-width="6" stroke-linecap="round"/>
<path d="M244 152L236 160" stroke="#87CEFF" stroke-width="6" stroke-linecap="round"/>
<path d="M244 56L236 48" stroke="#87CEFF" stroke-width="6" stroke-linecap="round"/>
<path d="M332 160L334 172" stroke="#87CEFF" stroke-width="6" stroke-linecap="round"/>
<path d="M332 48L334 36" stroke="#87CEFF" stroke-width="6" stroke-linecap="round"/>
<path d="M368 104L380 104" stroke="#87CEFF" stroke-width="6" stroke-linecap="round"/>
<path d="M364 78L376 76" stroke="#87CEFF" stroke-width="6" stroke-linecap="round"/>
<path d="M364 130L376 132" stroke="#87CEFF" stroke-width="6" stroke-linecap="round"/>
<path d="M220 104L232 104" stroke="#87CEFF" stroke-width="6" stroke-linecap="round"/>
<path d="M224 74L236 76" stroke="#87CEFF" stroke-width="6" stroke-linecap="round"/>
<path d="M224 134L236 132" stroke="#87CEFF" stroke-width="6" stroke-linecap="round"/>
<path d="M356 152L364 160" stroke="#87CEFF" stroke-width="6" stroke-linecap="round"/>
<path d="M356 56L364 48" stroke="#87CEFF" stroke-width="6" stroke-linecap="round"/>
</svg>
