<svg width="720" height="160" viewBox="0 0 720 160" fill="none" xmlns="http://www.w3.org/2000/svg">
<rect width="720" height="160" fill="#0E1116"/>
<rect x="48.5" y="48.5" width="623" height="63" rx="7.5" fill="#151B23"/>
<rect x="48.5" y="48.5" width="623" height="63" rx="7.5" stroke="#3D444D"/>
<path d="M76.1034 86V75.728H77.4474V86H76.1034ZM72.5354 76.032V74.8H81.0154V76.032H72.5354ZM82.3075 86V74.592H83.5875V86H82.3075ZM87.9395 86V81.904L89.2195 81.424V86H87.9395ZM87.9395 81.904C87.9395 81.1147 87.8435 80.512 87.6515 80.096C87.4702 79.68 87.2195 79.3973 86.8995 79.248C86.5795 79.088 86.2168 79.008 85.8115 79.008C85.1075 79.008 84.5582 79.2587 84.1635 79.76C83.7795 80.2507 83.5875 80.9493 83.5875 81.856H82.9635C82.9635 81.0133 83.0862 80.288 83.3315 79.68C83.5768 79.072 83.9342 78.608 84.4035 78.288C84.8728 77.968 85.4382 77.808 86.0995 77.808C87.0595 77.808 87.8222 78.1067 88.3875 78.704C88.9528 79.3013 89.2302 80.208 89.2195 81.424L87.9395 81.904ZM91.3094 86L91.3414 78H92.6214L92.5894 86H91.3094ZM91.9654 76.144C91.752 76.144 91.5654 76.064 91.4054 75.904C91.2454 75.744 91.1654 75.5573 91.1654 75.344C91.1654 75.12 91.2454 74.9333 91.4054 74.784C91.5654 74.624 91.752 74.544 91.9654 74.544C92.1894 74.544 92.376 74.624 92.5254 74.784C92.6854 74.9333 92.7654 75.12 92.7654 75.344C92.7654 75.5573 92.6854 75.744 92.5254 75.904C92.376 76.064 92.1894 76.144 91.9654 76.144ZM97.7481 86.192C97.1615 86.192 96.6495 86.1067 96.2121 85.936C95.7748 85.7547 95.4068 85.52 95.1081 85.232C94.8201 84.944 94.6121 84.6293 94.4841 84.288L95.6041 83.824C95.7855 84.1867 96.0575 84.48 96.4201 84.704C96.7828 84.928 97.1828 85.04 97.6201 85.04C98.1215 85.04 98.5428 84.944 98.8841 84.752C99.2255 84.5493 99.3961 84.2667 99.3961 83.904C99.3961 83.5733 99.2681 83.3067 99.0121 83.104C98.7668 82.9013 98.3988 82.736 97.9081 82.608L97.1401 82.4C96.4148 82.208 95.8495 81.92 95.4441 81.536C95.0388 81.1413 94.8361 80.6987 94.8361 80.208C94.8361 79.4507 95.0815 78.864 95.5721 78.448C96.0735 78.0213 96.8148 77.808 97.7961 77.808C98.2655 77.808 98.6921 77.8773 99.0761 78.016C99.4601 78.1547 99.7908 78.352 100.068 78.608C100.345 78.8533 100.548 79.1467 100.676 79.488L99.5561 79.984C99.4175 79.6213 99.1881 79.36 98.8681 79.2C98.5481 79.04 98.1588 78.96 97.7001 78.96C97.2095 78.96 96.8255 79.0667 96.5481 79.28C96.2708 79.4827 96.1321 79.7707 96.1321 80.144C96.1321 80.3573 96.2441 80.56 96.4681 80.752C96.7028 80.9333 97.0441 81.0827 97.4921 81.2L98.2921 81.408C98.8148 81.536 99.2521 81.728 99.6041 81.984C99.9561 82.2293 100.223 82.512 100.404 82.832C100.585 83.152 100.676 83.4933 100.676 83.856C100.676 84.336 100.548 84.752 100.292 85.104C100.036 85.456 99.6895 85.728 99.2521 85.92C98.8148 86.1013 98.3135 86.192 97.7481 86.192ZM106.354 86V74.8H107.634V84.512L107.57 86H106.354ZM110.338 86.192C109.666 86.192 109.074 86.016 108.562 85.664C108.061 85.312 107.672 84.8213 107.394 84.192C107.117 83.552 106.978 82.8213 106.978 82C106.978 81.168 107.117 80.4373 107.394 79.808C107.672 79.1787 108.061 78.688 108.562 78.336C109.074 77.984 109.666 77.808 110.338 77.808C111.053 77.808 111.682 77.984 112.226 78.336C112.77 78.688 113.192 79.1787 113.49 79.808C113.8 80.4373 113.954 81.168 113.954 82C113.954 82.8213 113.8 83.552 113.49 84.192C113.192 84.8213 112.77 85.312 112.226 85.664C111.682 86.016 111.053 86.192 110.338 86.192ZM110.05 85.024C110.552 85.024 110.994 84.896 111.378 84.64C111.773 84.384 112.082 84.0267 112.306 83.568C112.541 83.1093 112.658 82.5867 112.658 82C112.658 81.4133 112.546 80.8907 112.322 80.432C112.109 79.9733 111.805 79.616 111.41 79.36C111.016 79.104 110.568 78.976 110.066 78.976C109.597 78.976 109.176 79.104 108.802 79.36C108.44 79.616 108.152 79.9733 107.938 80.432C107.736 80.8907 107.634 81.4133 107.634 82C107.634 82.5867 107.736 83.1093 107.938 83.568C108.152 84.0267 108.44 84.384 108.802 84.64C109.165 84.896 109.581 85.024 110.05 85.024ZM116.433 81.664C116.433 80.8 116.599 80.1013 116.929 79.568C117.26 79.024 117.681 78.624 118.193 78.368C118.716 78.1013 119.265 77.968 119.841 77.968V79.168C119.372 79.168 118.919 79.248 118.481 79.408C118.055 79.5573 117.703 79.808 117.425 80.16C117.148 80.512 117.009 80.992 117.009 81.6L116.433 81.664ZM115.729 86V78H117.009V86H115.729ZM126.064 86L125.984 84.688V81.776C125.984 81.1467 125.909 80.6293 125.76 80.224C125.621 79.808 125.402 79.4987 125.104 79.296C124.816 79.0827 124.432 78.976 123.952 78.976C123.493 78.976 123.093 79.0667 122.752 79.248C122.421 79.4293 122.149 79.712 121.936 80.096L120.784 79.632C120.997 79.2587 121.253 78.9333 121.552 78.656C121.85 78.3787 122.197 78.1707 122.592 78.032C122.997 77.8827 123.456 77.808 123.968 77.808C124.704 77.808 125.317 77.952 125.808 78.24C126.298 78.528 126.666 78.96 126.912 79.536C127.157 80.1013 127.274 80.8107 127.264 81.664L127.248 86H126.064ZM123.664 86.192C122.725 86.192 121.989 85.9787 121.456 85.552C120.933 85.1147 120.672 84.512 120.672 83.744C120.672 82.9333 120.938 82.3147 121.472 81.888C122.016 81.4507 122.773 81.232 123.744 81.232H126.032V82.304H124.032C123.285 82.304 122.752 82.4267 122.432 82.672C122.122 82.9173 121.968 83.2693 121.968 83.728C121.968 84.144 122.122 84.4747 122.432 84.72C122.741 84.9547 123.173 85.072 123.728 85.072C124.186 85.072 124.586 84.9653 124.928 84.752C125.269 84.5387 125.53 84.2507 125.712 83.888C125.893 83.5147 125.984 83.0933 125.984 82.624H126.768C126.768 83.712 126.501 84.5813 125.968 85.232C125.434 85.872 124.666 86.192 123.664 86.192ZM129.292 86V78H130.492L130.572 79.472V86H129.292ZM134.908 86V81.904L136.188 81.424V86H134.908ZM134.908 81.904C134.908 81.1147 134.817 80.512 134.636 80.096C134.455 79.68 134.204 79.3973 133.884 79.248C133.564 79.088 133.201 79.008 132.796 79.008C132.092 79.008 131.543 79.2587 131.148 79.76C130.764 80.2507 130.572 80.9493 130.572 81.856H129.948C129.948 81.0133 130.071 80.288 130.316 79.68C130.561 79.072 130.913 78.608 131.372 78.288C131.841 77.968 132.407 77.808 133.068 77.808C134.039 77.808 134.801 78.1067 135.356 78.704C135.921 79.3013 136.199 80.208 136.188 81.424L134.908 81.904ZM141.782 86.192C140.992 86.192 140.294 86.016 139.686 85.664C139.078 85.3013 138.603 84.8053 138.262 84.176C137.92 83.5467 137.75 82.8213 137.75 82C137.75 81.1787 137.915 80.4533 138.246 79.824C138.587 79.1947 139.062 78.704 139.67 78.352C140.278 77.9893 140.971 77.808 141.75 77.808C142.518 77.808 143.206 77.984 143.814 78.336C144.422 78.688 144.886 79.184 145.206 79.824L144.038 80.352C143.824 79.9253 143.515 79.5947 143.11 79.36C142.704 79.1147 142.24 78.992 141.718 78.992C141.195 78.992 140.731 79.12 140.326 79.376C139.931 79.632 139.616 79.9893 139.382 80.448C139.158 80.896 139.046 81.4133 139.046 82C139.046 82.5867 139.158 83.1093 139.382 83.568C139.616 84.016 139.936 84.368 140.342 84.624C140.758 84.88 141.227 85.008 141.75 85.008C142.272 85.008 142.736 84.8747 143.142 84.608C143.558 84.3413 143.872 83.968 144.086 83.488L145.254 84.016C144.934 84.6987 144.47 85.232 143.862 85.616C143.254 86 142.56 86.192 141.782 86.192ZM146.87 86V74.592H148.15V86H146.87ZM152.502 86V81.904L153.782 81.424V86H152.502ZM152.502 81.904C152.502 81.1147 152.406 80.512 152.214 80.096C152.033 79.68 151.782 79.3973 151.462 79.248C151.142 79.088 150.779 79.008 150.374 79.008C149.67 79.008 149.121 79.2587 148.726 79.76C148.342 80.2507 148.15 80.9493 148.15 81.856H147.526C147.526 81.0133 147.649 80.288 147.894 79.68C148.139 79.072 148.497 78.608 148.966 78.288C149.435 77.968 150.001 77.808 150.662 77.808C151.622 77.808 152.385 78.1067 152.95 78.704C153.515 79.3013 153.793 80.208 153.782 81.424L152.502 81.904ZM159.825 86L159.857 78H161.137L161.105 86H159.825ZM160.481 76.144C160.268 76.144 160.081 76.064 159.921 75.904C159.761 75.744 159.681 75.5573 159.681 75.344C159.681 75.12 159.761 74.9333 159.921 74.784C160.081 74.624 160.268 74.544 160.481 74.544C160.705 74.544 160.892 74.624 161.041 74.784C161.201 74.9333 161.281 75.12 161.281 75.344C161.281 75.5573 161.201 75.744 161.041 75.904C160.892 76.064 160.705 76.144 160.481 76.144ZM166.264 86.192C165.677 86.192 165.165 86.1067 164.728 85.936C164.29 85.7547 163.922 85.52 163.624 85.232C163.336 84.944 163.128 84.6293 163 84.288L164.12 83.824C164.301 84.1867 164.573 84.48 164.936 84.704C165.298 84.928 165.698 85.04 166.136 85.04C166.637 85.04 167.058 84.944 167.4 84.752C167.741 84.5493 167.912 84.2667 167.912 83.904C167.912 83.5733 167.784 83.3067 167.528 83.104C167.282 82.9013 166.914 82.736 166.424 82.608L165.656 82.4C164.93 82.208 164.365 81.92 163.96 81.536C163.554 81.1413 163.352 80.6987 163.352 80.208C163.352 79.4507 163.597 78.864 164.088 78.448C164.589 78.0213 165.33 77.808 166.312 77.808C166.781 77.808 167.208 77.8773 167.592 78.016C167.976 78.1547 168.306 78.352 168.584 78.608C168.861 78.8533 169.064 79.1467 169.192 79.488L168.072 79.984C167.933 79.6213 167.704 79.36 167.384 79.2C167.064 79.04 166.674 78.96 166.216 78.96C165.725 78.96 165.341 79.0667 165.064 79.28C164.786 79.4827 164.648 79.7707 164.648 80.144C164.648 80.3573 164.76 80.56 164.984 80.752C165.218 80.9333 165.56 81.0827 166.008 81.2L166.808 81.408C167.33 81.536 167.768 81.728 168.12 81.984C168.472 82.2293 168.738 82.512 168.92 82.832C169.101 83.152 169.192 83.4933 169.192 83.856C169.192 84.336 169.064 84.752 168.808 85.104C168.552 85.456 168.205 85.728 167.768 85.92C167.33 86.1013 166.829 86.192 166.264 86.192ZM325.578 87.84L326.49 84.464H327.93L326.682 87.84H325.578Z" fill="#D2E5F4"/>
<path d="M175.446 82.864L174.438 82.24L179.542 74.8L180.422 75.568L175.446 82.864ZM174.438 83.28V82.24L175.302 82.08H183.206V83.28H174.438ZM179.606 86V75.664L179.542 74.8H180.918V86H179.606ZM187.144 86L187.16 75.52L187.272 74.8H188.488L188.456 86H187.144ZM184.648 77.68V76.448C184.872 76.4587 185.138 76.384 185.448 76.224C185.757 76.064 186.077 75.856 186.408 75.6C186.738 75.344 187.026 75.0773 187.272 74.8L188.104 75.712C187.752 76.0853 187.384 76.4213 187 76.72C186.616 77.0187 186.226 77.2587 185.832 77.44C185.437 77.6107 185.042 77.6907 184.648 77.68ZM198.938 86.192C198.149 86.192 197.45 86.016 196.842 85.664C196.234 85.3013 195.759 84.8053 195.418 84.176C195.077 83.5467 194.906 82.8213 194.906 82C194.906 81.1787 195.071 80.4533 195.402 79.824C195.743 79.1947 196.218 78.704 196.826 78.352C197.434 77.9893 198.127 77.808 198.906 77.808C199.674 77.808 200.362 77.984 200.97 78.336C201.578 78.688 202.042 79.184 202.362 79.824L201.194 80.352C200.981 79.9253 200.671 79.5947 200.266 79.36C199.861 79.1147 199.397 78.992 198.874 78.992C198.351 78.992 197.887 79.12 197.482 79.376C197.087 79.632 196.773 79.9893 196.538 80.448C196.314 80.896 196.202 81.4133 196.202 82C196.202 82.5867 196.314 83.1093 196.538 83.568C196.773 84.016 197.093 84.368 197.498 84.624C197.914 84.88 198.383 85.008 198.906 85.008C199.429 85.008 199.893 84.8747 200.298 84.608C200.714 84.3413 201.029 83.968 201.242 83.488L202.41 84.016C202.09 84.6987 201.626 85.232 201.018 85.616C200.41 86 199.717 86.192 198.938 86.192ZM207.562 86.192C206.784 86.192 206.09 86.016 205.482 85.664C204.885 85.3013 204.416 84.8053 204.074 84.176C203.733 83.5467 203.562 82.8213 203.562 82C203.562 81.1787 203.728 80.4533 204.058 79.824C204.4 79.1947 204.869 78.704 205.466 78.352C206.074 77.9893 206.762 77.808 207.53 77.808C208.32 77.808 209.013 77.9893 209.61 78.352C210.218 78.704 210.688 79.1947 211.018 79.824C211.36 80.4533 211.53 81.1787 211.53 82C211.53 82.8213 211.36 83.5467 211.018 84.176C210.688 84.8053 210.224 85.3013 209.626 85.664C209.029 86.016 208.341 86.192 207.562 86.192ZM207.562 85.008C208.096 85.008 208.56 84.88 208.954 84.624C209.349 84.368 209.658 84.016 209.882 83.568C210.117 83.12 210.234 82.5973 210.234 82C210.234 81.4027 210.117 80.88 209.882 80.432C209.658 79.984 209.344 79.632 208.938 79.376C208.533 79.12 208.064 78.992 207.53 78.992C207.008 78.992 206.544 79.12 206.138 79.376C205.744 79.632 205.429 79.984 205.194 80.432C204.97 80.88 204.858 81.4027 204.858 82C204.858 82.5867 204.97 83.1093 205.194 83.568C205.429 84.016 205.749 84.368 206.154 84.624C206.57 84.88 207.04 85.008 207.562 85.008ZM213.308 86V78H214.508L214.588 79.472V86H213.308ZM218.924 86V81.904L220.204 81.424V86H218.924ZM224.556 86V81.904L225.836 81.424V86H224.556ZM218.924 81.904C218.924 81.1147 218.833 80.512 218.652 80.096C218.47 79.68 218.22 79.3973 217.9 79.248C217.58 79.088 217.217 79.008 216.812 79.008C216.108 79.008 215.558 79.2587 215.164 79.76C214.78 80.2507 214.588 80.9493 214.588 81.856H213.964C213.964 81.0133 214.086 80.288 214.332 79.68C214.577 79.072 214.929 78.608 215.388 78.288C215.857 77.968 216.422 77.808 217.084 77.808C218.054 77.808 218.817 78.1067 219.372 78.704C219.937 79.3013 220.214 80.208 220.204 81.424L218.924 81.904ZM224.556 81.904C224.556 81.1147 224.46 80.512 224.268 80.096C224.086 79.68 223.836 79.3973 223.516 79.248C223.196 79.088 222.833 79.008 222.428 79.008C221.724 79.008 221.174 79.2587 220.78 79.76C220.396 80.2507 220.204 80.9493 220.204 81.856H219.58C219.58 81.0133 219.702 80.288 219.948 79.68C220.193 79.072 220.55 78.608 221.02 78.288C221.489 77.968 222.054 77.808 222.716 77.808C223.676 77.808 224.433 78.1067 224.988 78.704C225.553 79.3013 225.836 80.208 225.836 81.424L224.556 81.904ZM227.854 86V78H229.054L229.134 79.472V86H227.854ZM233.47 86V81.904L234.75 81.424V86H233.47ZM239.102 86V81.904L240.382 81.424V86H239.102ZM233.47 81.904C233.47 81.1147 233.38 80.512 233.198 80.096C233.017 79.68 232.766 79.3973 232.446 79.248C232.126 79.088 231.764 79.008 231.358 79.008C230.654 79.008 230.105 79.2587 229.71 79.76C229.326 80.2507 229.134 80.9493 229.134 81.856H228.51C228.51 81.0133 228.633 80.288 228.878 79.68C229.124 79.072 229.476 78.608 229.934 78.288C230.404 77.968 230.969 77.808 231.63 77.808C232.601 77.808 233.364 78.1067 233.918 78.704C234.484 79.3013 234.761 80.208 234.75 81.424L233.47 81.904ZM239.102 81.904C239.102 81.1147 239.006 80.512 238.814 80.096C238.633 79.68 238.382 79.3973 238.062 79.248C237.742 79.088 237.38 79.008 236.974 79.008C236.27 79.008 235.721 79.2587 235.326 79.76C234.942 80.2507 234.75 80.9493 234.75 81.856H234.126C234.126 81.0133 234.249 80.288 234.494 79.68C234.74 79.072 235.097 78.608 235.566 78.288C236.036 77.968 236.601 77.808 237.262 77.808C238.222 77.808 238.98 78.1067 239.534 78.704C240.1 79.3013 240.382 80.208 240.382 81.424L239.102 81.904ZM242.481 86L242.513 78H243.793L243.761 86H242.481ZM243.137 76.144C242.924 76.144 242.737 76.064 242.577 75.904C242.417 75.744 242.337 75.5573 242.337 75.344C242.337 75.12 242.417 74.9333 242.577 74.784C242.737 74.624 242.924 74.544 243.137 74.544C243.361 74.544 243.548 74.624 243.697 74.784C243.857 74.9333 243.937 75.12 243.937 75.344C243.937 75.5573 243.857 75.744 243.697 75.904C243.548 76.064 243.361 76.144 243.137 76.144ZM249.128 86.192C248.349 86.192 247.747 85.9893 247.32 85.584C246.893 85.1787 246.68 84.608 246.68 83.872V75.504H247.96V83.744C247.96 84.1493 248.067 84.464 248.28 84.688C248.504 84.9013 248.813 85.008 249.208 85.008C249.336 85.008 249.459 84.992 249.576 84.96C249.704 84.9173 249.869 84.8213 250.072 84.672L250.568 85.712C250.291 85.8933 250.04 86.016 249.816 86.08C249.592 86.1547 249.363 86.192 249.128 86.192ZM245.288 79.136V78H250.36V79.136H245.288ZM254.967 86.192C254.38 86.192 253.868 86.1067 253.431 85.936C252.994 85.7547 252.626 85.52 252.327 85.232C252.039 84.944 251.831 84.6293 251.703 84.288L252.823 83.824C253.004 84.1867 253.276 84.48 253.639 84.704C254.002 84.928 254.402 85.04 254.839 85.04C255.34 85.04 255.762 84.944 256.103 84.752C256.444 84.5493 256.615 84.2667 256.615 83.904C256.615 83.5733 256.487 83.3067 256.231 83.104C255.986 82.9013 255.618 82.736 255.127 82.608L254.359 82.4C253.634 82.208 253.068 81.92 252.663 81.536C252.258 81.1413 252.055 80.6987 252.055 80.208C252.055 79.4507 252.3 78.864 252.791 78.448C253.292 78.0213 254.034 77.808 255.015 77.808C255.484 77.808 255.911 77.8773 256.295 78.016C256.679 78.1547 257.01 78.352 257.287 78.608C257.564 78.8533 257.767 79.1467 257.895 79.488L256.775 79.984C256.636 79.6213 256.407 79.36 256.087 79.2C255.767 79.04 255.378 78.96 254.919 78.96C254.428 78.96 254.044 79.0667 253.767 79.28C253.49 79.4827 253.351 79.7707 253.351 80.144C253.351 80.3573 253.463 80.56 253.687 80.752C253.922 80.9333 254.263 81.0827 254.711 81.2L255.511 81.408C256.034 81.536 256.471 81.728 256.823 81.984C257.175 82.2293 257.442 82.512 257.623 82.832C257.804 83.152 257.895 83.4933 257.895 83.856C257.895 84.336 257.767 84.752 257.511 85.104C257.255 85.456 256.908 85.728 256.471 85.92C256.034 86.1013 255.532 86.192 254.967 86.192ZM268.501 86L268.421 84.688V81.776C268.421 81.1467 268.346 80.6293 268.197 80.224C268.058 79.808 267.84 79.4987 267.541 79.296C267.253 79.0827 266.869 78.976 266.389 78.976C265.93 78.976 265.53 79.0667 265.189 79.248C264.858 79.4293 264.586 79.712 264.373 80.096L263.221 79.632C263.434 79.2587 263.69 78.9333 263.989 78.656C264.288 78.3787 264.634 78.1707 265.029 78.032C265.434 77.8827 265.893 77.808 266.405 77.808C267.141 77.808 267.754 77.952 268.245 78.24C268.736 78.528 269.104 78.96 269.349 79.536C269.594 80.1013 269.712 80.8107 269.701 81.664L269.685 86H268.501ZM266.101 86.192C265.162 86.192 264.426 85.9787 263.893 85.552C263.37 85.1147 263.109 84.512 263.109 83.744C263.109 82.9333 263.376 82.3147 263.909 81.888C264.453 81.4507 265.21 81.232 266.181 81.232H268.469V82.304H266.469C265.722 82.304 265.189 82.4267 264.869 82.672C264.56 82.9173 264.405 83.2693 264.405 83.728C264.405 84.144 264.56 84.4747 264.869 84.72C265.178 84.9547 265.61 85.072 266.165 85.072C266.624 85.072 267.024 84.9653 267.365 84.752C267.706 84.5387 267.968 84.2507 268.149 83.888C268.33 83.5147 268.421 83.0933 268.421 82.624H269.205C269.205 83.712 268.938 84.5813 268.405 85.232C267.872 85.872 267.104 86.192 266.101 86.192ZM271.729 86V74.592H273.009V86H271.729ZM277.361 86V81.904L278.641 81.424V86H277.361ZM277.361 81.904C277.361 81.1147 277.265 80.512 277.073 80.096C276.892 79.68 276.641 79.3973 276.321 79.248C276.001 79.088 275.639 79.008 275.233 79.008C274.529 79.008 273.98 79.2587 273.585 79.76C273.201 80.2507 273.009 80.9493 273.009 81.856H272.385C272.385 81.0133 272.508 80.288 272.753 79.68C272.999 79.072 273.356 78.608 273.825 78.288C274.295 77.968 274.86 77.808 275.521 77.808C276.481 77.808 277.244 78.1067 277.809 78.704C278.375 79.3013 278.652 80.208 278.641 81.424L277.361 81.904ZM284.155 86.192C283.377 86.192 282.689 86.016 282.091 85.664C281.494 85.3013 281.025 84.8053 280.683 84.176C280.353 83.5467 280.187 82.8213 280.187 82C280.187 81.1787 280.353 80.4533 280.683 79.824C281.025 79.1947 281.489 78.704 282.075 78.352C282.673 77.9893 283.355 77.808 284.123 77.808C284.859 77.808 285.499 77.9947 286.043 78.368C286.598 78.7307 287.025 79.2427 287.323 79.904C287.622 80.5653 287.771 81.344 287.771 82.24H286.491C286.491 81.5573 286.401 80.976 286.219 80.496C286.038 80.0053 285.766 79.6267 285.403 79.36C285.051 79.0933 284.619 78.96 284.107 78.96C283.585 78.96 283.121 79.088 282.715 79.344C282.321 79.5893 282.017 79.9413 281.803 80.4C281.59 80.8587 281.483 81.3973 281.483 82.016C281.483 82.624 281.601 83.152 281.835 83.6C282.07 84.0373 282.395 84.384 282.811 84.64C283.227 84.8853 283.697 85.008 284.219 85.008C284.774 85.008 285.243 84.8747 285.627 84.608C286.011 84.3413 286.315 83.9947 286.539 83.568L287.659 84.128C287.457 84.544 287.185 84.9067 286.843 85.216C286.513 85.5253 286.118 85.7653 285.659 85.936C285.211 86.1067 284.71 86.192 284.155 86.192ZM281.035 82.24L281.051 81.136H286.987V82.24H281.035ZM294.314 86L294.234 84.688V81.776C294.234 81.1467 294.159 80.6293 294.01 80.224C293.871 79.808 293.652 79.4987 293.354 79.296C293.066 79.0827 292.682 78.976 292.202 78.976C291.743 78.976 291.343 79.0667 291.002 79.248C290.671 79.4293 290.399 79.712 290.186 80.096L289.034 79.632C289.247 79.2587 289.503 78.9333 289.802 78.656C290.1 78.3787 290.447 78.1707 290.842 78.032C291.247 77.8827 291.706 77.808 292.218 77.808C292.954 77.808 293.567 77.952 294.058 78.24C294.548 78.528 294.916 78.96 295.162 79.536C295.407 80.1013 295.524 80.8107 295.514 81.664L295.498 86H294.314ZM291.914 86.192C290.975 86.192 290.239 85.9787 289.706 85.552C289.183 85.1147 288.922 84.512 288.922 83.744C288.922 82.9333 289.188 82.3147 289.722 81.888C290.266 81.4507 291.023 81.232 291.994 81.232H294.282V82.304H292.282C291.535 82.304 291.002 82.4267 290.682 82.672C290.372 82.9173 290.218 83.2693 290.218 83.728C290.218 84.144 290.372 84.4747 290.682 84.72C290.991 84.9547 291.423 85.072 291.978 85.072C292.436 85.072 292.836 84.9653 293.178 84.752C293.519 84.5387 293.78 84.2507 293.962 83.888C294.143 83.5147 294.234 83.0933 294.234 82.624H295.018C295.018 83.712 294.751 84.5813 294.218 85.232C293.684 85.872 292.916 86.192 291.914 86.192ZM303.462 86L303.398 84.512V74.8H304.678V86H303.462ZM300.694 86.192C299.979 86.192 299.35 86.016 298.806 85.664C298.262 85.312 297.835 84.8213 297.526 84.192C297.227 83.552 297.078 82.8213 297.078 82C297.078 81.168 297.227 80.4373 297.526 79.808C297.835 79.1787 298.262 78.688 298.806 78.336C299.35 77.984 299.979 77.808 300.694 77.808C301.366 77.808 301.953 77.984 302.454 78.336C302.966 78.688 303.361 79.1787 303.638 79.808C303.915 80.4373 304.054 81.168 304.054 82C304.054 82.8213 303.915 83.552 303.638 84.192C303.361 84.8213 302.966 85.312 302.454 85.664C301.953 86.016 301.366 86.192 300.694 86.192ZM300.982 85.024C301.451 85.024 301.867 84.896 302.23 84.64C302.593 84.384 302.875 84.0267 303.078 83.568C303.291 83.1093 303.398 82.5867 303.398 82C303.398 81.4133 303.291 80.8907 303.078 80.432C302.875 79.9733 302.593 79.616 302.23 79.36C301.867 79.104 301.446 78.976 300.966 78.976C300.465 78.976 300.017 79.104 299.622 79.36C299.238 79.616 298.934 79.9733 298.71 80.432C298.486 80.8907 298.374 81.4133 298.374 82C298.374 82.5867 298.486 83.1093 298.71 83.568C298.934 84.0267 299.243 84.384 299.638 84.64C300.033 84.896 300.481 85.024 300.982 85.024ZM314.406 86.192C313.627 86.192 312.934 86.016 312.326 85.664C311.729 85.3013 311.259 84.8053 310.918 84.176C310.577 83.5467 310.406 82.8213 310.406 82C310.406 81.1787 310.571 80.4533 310.902 79.824C311.243 79.1947 311.713 78.704 312.31 78.352C312.918 77.9893 313.606 77.808 314.374 77.808C315.163 77.808 315.857 77.9893 316.454 78.352C317.062 78.704 317.531 79.1947 317.862 79.824C318.203 80.4533 318.374 81.1787 318.374 82C318.374 82.8213 318.203 83.5467 317.862 84.176C317.531 84.8053 317.067 85.3013 316.47 85.664C315.873 86.016 315.185 86.192 314.406 86.192ZM314.406 85.008C314.939 85.008 315.403 84.88 315.798 84.624C316.193 84.368 316.502 84.016 316.726 83.568C316.961 83.12 317.078 82.5973 317.078 82C317.078 81.4027 316.961 80.88 316.726 80.432C316.502 79.984 316.187 79.632 315.782 79.376C315.377 79.12 314.907 78.992 314.374 78.992C313.851 78.992 313.387 79.12 312.982 79.376C312.587 79.632 312.273 79.984 312.038 80.432C311.814 80.88 311.702 81.4027 311.702 82C311.702 82.5867 311.814 83.1093 312.038 83.568C312.273 84.016 312.593 84.368 312.998 84.624C313.414 84.88 313.883 85.008 314.406 85.008ZM320.951 86V77.088C320.951 76.256 321.143 75.632 321.527 75.216C321.922 74.7893 322.519 74.576 323.319 74.576C323.533 74.576 323.773 74.6133 324.039 74.688C324.306 74.7627 324.589 74.8693 324.887 75.008L324.407 76.016C324.162 75.92 323.954 75.8453 323.783 75.792C323.613 75.7387 323.469 75.712 323.351 75.712C322.978 75.712 322.695 75.8347 322.503 76.08C322.322 76.3147 322.231 76.6827 322.231 77.184V86H320.951ZM319.479 79.104V78H324.551V79.104H319.479ZM334.756 85.216L333.412 84.88C333.412 84.528 333.481 84.1813 333.62 83.84C333.769 83.488 333.977 83.1413 334.244 82.8C334.521 82.4587 334.857 82.1387 335.252 81.84L337.572 80.096C337.849 79.904 338.089 79.6853 338.292 79.44C338.505 79.184 338.671 78.9227 338.788 78.656C338.905 78.3787 338.964 78.112 338.964 77.856C338.964 77.4827 338.873 77.1467 338.692 76.848C338.511 76.5387 338.255 76.2933 337.924 76.112C337.593 75.9307 337.204 75.84 336.756 75.84C336.319 75.84 335.935 75.9253 335.604 76.096C335.273 76.256 335.001 76.4747 334.788 76.752C334.575 77.0187 334.42 77.3067 334.324 77.616L332.948 77.344C333.076 76.864 333.305 76.416 333.636 76C333.977 75.584 334.409 75.248 334.932 74.992C335.455 74.736 336.036 74.608 336.676 74.608C337.423 74.608 338.068 74.752 338.612 75.04C339.156 75.3173 339.577 75.7013 339.876 76.192C340.185 76.672 340.34 77.2213 340.34 77.84C340.34 78.4267 340.18 78.9813 339.86 79.504C339.54 80.0267 339.076 80.5333 338.468 81.024L336.276 82.688C335.967 82.912 335.695 83.1573 335.46 83.424C335.236 83.6907 335.06 83.9733 334.932 84.272C334.815 84.56 334.756 84.8747 334.756 85.216ZM333.412 86V84.88L334.436 84.8H340.5V86H333.412ZM350.079 86.192C349.289 86.192 348.591 86.016 347.983 85.664C347.375 85.3013 346.9 84.8053 346.559 84.176C346.217 83.5467 346.047 82.8213 346.047 82C346.047 81.1787 346.212 80.4533 346.543 79.824C346.884 79.1947 347.359 78.704 347.967 78.352C348.575 77.9893 349.268 77.808 350.047 77.808C350.815 77.808 351.503 77.984 352.111 78.336C352.719 78.688 353.183 79.184 353.503 79.824L352.335 80.352C352.121 79.9253 351.812 79.5947 351.407 79.36C351.001 79.1147 350.537 78.992 350.015 78.992C349.492 78.992 349.028 79.12 348.623 79.376C348.228 79.632 347.913 79.9893 347.679 80.448C347.455 80.896 347.343 81.4133 347.343 82C347.343 82.5867 347.455 83.1093 347.679 83.568C347.913 84.016 348.233 84.368 348.639 84.624C349.055 84.88 349.524 85.008 350.047 85.008C350.569 85.008 351.033 84.8747 351.439 84.608C351.855 84.3413 352.169 83.968 352.383 83.488L353.551 84.016C353.231 84.6987 352.767 85.232 352.159 85.616C351.551 86 350.857 86.192 350.079 86.192ZM358.703 86.192C357.924 86.192 357.231 86.016 356.623 85.664C356.026 85.3013 355.556 84.8053 355.215 84.176C354.874 83.5467 354.703 82.8213 354.703 82C354.703 81.1787 354.868 80.4533 355.199 79.824C355.54 79.1947 356.01 78.704 356.607 78.352C357.215 77.9893 357.903 77.808 358.671 77.808C359.46 77.808 360.154 77.9893 360.751 78.352C361.359 78.704 361.828 79.1947 362.159 79.824C362.5 80.4533 362.671 81.1787 362.671 82C362.671 82.8213 362.5 83.5467 362.159 84.176C361.828 84.8053 361.364 85.3013 360.767 85.664C360.17 86.016 359.482 86.192 358.703 86.192ZM358.703 85.008C359.236 85.008 359.7 84.88 360.095 84.624C360.49 84.368 360.799 84.016 361.023 83.568C361.258 83.12 361.375 82.5973 361.375 82C361.375 81.4027 361.258 80.88 361.023 80.432C360.799 79.984 360.484 79.632 360.079 79.376C359.674 79.12 359.204 78.992 358.671 78.992C358.148 78.992 357.684 79.12 357.279 79.376C356.884 79.632 356.57 79.984 356.335 80.432C356.111 80.88 355.999 81.4027 355.999 82C355.999 82.5867 356.111 83.1093 356.335 83.568C356.57 84.016 356.89 84.368 357.295 84.624C357.711 84.88 358.18 85.008 358.703 85.008ZM364.448 86V78H365.648L365.728 79.472V86H364.448ZM370.064 86V81.904L371.344 81.424V86H370.064ZM375.696 86V81.904L376.976 81.424V86H375.696ZM370.064 81.904C370.064 81.1147 369.973 80.512 369.792 80.096C369.611 79.68 369.36 79.3973 369.04 79.248C368.72 79.088 368.357 79.008 367.952 79.008C367.248 79.008 366.699 79.2587 366.304 79.76C365.92 80.2507 365.728 80.9493 365.728 81.856H365.104C365.104 81.0133 365.227 80.288 365.472 79.68C365.717 79.072 366.069 78.608 366.528 78.288C366.997 77.968 367.563 77.808 368.224 77.808C369.195 77.808 369.957 78.1067 370.512 78.704C371.077 79.3013 371.355 80.208 371.344 81.424L370.064 81.904ZM375.696 81.904C375.696 81.1147 375.6 80.512 375.408 80.096C375.227 79.68 374.976 79.3973 374.656 79.248C374.336 79.088 373.973 79.008 373.568 79.008C372.864 79.008 372.315 79.2587 371.92 79.76C371.536 80.2507 371.344 80.9493 371.344 81.856H370.72C370.72 81.0133 370.843 80.288 371.088 79.68C371.333 79.072 371.691 78.608 372.16 78.288C372.629 77.968 373.195 77.808 373.856 77.808C374.816 77.808 375.573 78.1067 376.128 78.704C376.693 79.3013 376.976 80.208 376.976 81.424L375.696 81.904ZM378.995 86V78H380.195L380.275 79.472V86H378.995ZM384.611 86V81.904L385.891 81.424V86H384.611ZM390.243 86V81.904L391.523 81.424V86H390.243ZM384.611 81.904C384.611 81.1147 384.52 80.512 384.339 80.096C384.158 79.68 383.907 79.3973 383.587 79.248C383.267 79.088 382.904 79.008 382.499 79.008C381.795 79.008 381.246 79.2587 380.851 79.76C380.467 80.2507 380.275 80.9493 380.275 81.856H379.651C379.651 81.0133 379.774 80.288 380.019 79.68C380.264 79.072 380.616 78.608 381.075 78.288C381.544 77.968 382.11 77.808 382.771 77.808C383.742 77.808 384.504 78.1067 385.059 78.704C385.624 79.3013 385.902 80.208 385.891 81.424L384.611 81.904ZM390.243 81.904C390.243 81.1147 390.147 80.512 389.955 80.096C389.774 79.68 389.523 79.3973 389.203 79.248C388.883 79.088 388.52 79.008 388.115 79.008C387.411 79.008 386.862 79.2587 386.467 79.76C386.083 80.2507 385.891 80.9493 385.891 81.856H385.267C385.267 81.0133 385.39 80.288 385.635 79.68C385.88 79.072 386.238 78.608 386.707 78.288C387.176 77.968 387.742 77.808 388.403 77.808C389.363 77.808 390.12 78.1067 390.675 78.704C391.24 79.3013 391.523 80.208 391.523 81.424L390.243 81.904ZM393.622 86L393.654 78H394.934L394.902 86H393.622ZM394.278 76.144C394.065 76.144 393.878 76.064 393.718 75.904C393.558 75.744 393.478 75.5573 393.478 75.344C393.478 75.12 393.558 74.9333 393.718 74.784C393.878 74.624 394.065 74.544 394.278 74.544C394.502 74.544 394.689 74.624 394.838 74.784C394.998 74.9333 395.078 75.12 395.078 75.344C395.078 75.5573 394.998 75.744 394.838 75.904C394.689 76.064 394.502 76.144 394.278 76.144ZM400.269 86.192C399.49 86.192 398.887 85.9893 398.461 85.584C398.034 85.1787 397.821 84.608 397.821 83.872V75.504H399.101V83.744C399.101 84.1493 399.207 84.464 399.421 84.688C399.645 84.9013 399.954 85.008 400.349 85.008C400.477 85.008 400.599 84.992 400.717 84.96C400.845 84.9173 401.01 84.8213 401.213 84.672L401.709 85.712C401.431 85.8933 401.181 86.016 400.957 86.08C400.733 86.1547 400.503 86.192 400.269 86.192ZM396.429 79.136V78H401.501V79.136H396.429ZM406.108 86.192C405.521 86.192 405.009 86.1067 404.572 85.936C404.134 85.7547 403.766 85.52 403.468 85.232C403.18 84.944 402.972 84.6293 402.844 84.288L403.964 83.824C404.145 84.1867 404.417 84.48 404.78 84.704C405.142 84.928 405.542 85.04 405.98 85.04C406.481 85.04 406.902 84.944 407.244 84.752C407.585 84.5493 407.756 84.2667 407.756 83.904C407.756 83.5733 407.628 83.3067 407.372 83.104C407.126 82.9013 406.758 82.736 406.268 82.608L405.5 82.4C404.774 82.208 404.209 81.92 403.804 81.536C403.398 81.1413 403.196 80.6987 403.196 80.208C403.196 79.4507 403.441 78.864 403.932 78.448C404.433 78.0213 405.174 77.808 406.156 77.808C406.625 77.808 407.052 77.8773 407.436 78.016C407.82 78.1547 408.15 78.352 408.428 78.608C408.705 78.8533 408.908 79.1467 409.036 79.488L407.916 79.984C407.777 79.6213 407.548 79.36 407.228 79.2C406.908 79.04 406.518 78.96 406.06 78.96C405.569 78.96 405.185 79.0667 404.908 79.28C404.63 79.4827 404.492 79.7707 404.492 80.144C404.492 80.3573 404.604 80.56 404.828 80.752C405.062 80.9333 405.404 81.0827 405.852 81.2L406.652 81.408C407.174 81.536 407.612 81.728 407.964 81.984C408.316 82.2293 408.582 82.512 408.764 82.832C408.945 83.152 409.036 83.4933 409.036 83.856C409.036 84.336 408.908 84.752 408.652 85.104C408.396 85.456 408.049 85.728 407.612 85.92C407.174 86.1013 406.673 86.192 406.108 86.192ZM414.714 86V74.8H415.994V84.512L415.93 86H414.714ZM418.698 86.192C418.026 86.192 417.434 86.016 416.922 85.664C416.42 85.312 416.031 84.8213 415.754 84.192C415.476 83.552 415.338 82.8213 415.338 82C415.338 81.168 415.476 80.4373 415.754 79.808C416.031 79.1787 416.42 78.688 416.922 78.336C417.434 77.984 418.026 77.808 418.698 77.808C419.412 77.808 420.042 77.984 420.586 78.336C421.13 78.688 421.551 79.1787 421.85 79.808C422.159 80.4373 422.314 81.168 422.314 82C422.314 82.8213 422.159 83.552 421.85 84.192C421.551 84.8213 421.13 85.312 420.586 85.664C420.042 86.016 419.412 86.192 418.698 86.192ZM418.41 85.024C418.911 85.024 419.354 84.896 419.738 84.64C420.132 84.384 420.442 84.0267 420.666 83.568C420.9 83.1093 421.018 82.5867 421.018 82C421.018 81.4133 420.906 80.8907 420.682 80.432C420.468 79.9733 420.164 79.616 419.77 79.36C419.375 79.104 418.927 78.976 418.426 78.976C417.956 78.976 417.535 79.104 417.162 79.36C416.799 79.616 416.511 79.9733 416.298 80.432C416.095 80.8907 415.994 81.4133 415.994 82C415.994 82.5867 416.095 83.1093 416.298 83.568C416.511 84.0267 416.799 84.384 417.162 84.64C417.524 84.896 417.94 85.024 418.41 85.024ZM427.593 86.192C426.814 86.192 426.126 86.016 425.529 85.664C424.931 85.3013 424.462 84.8053 424.121 84.176C423.79 83.5467 423.625 82.8213 423.625 82C423.625 81.1787 423.79 80.4533 424.121 79.824C424.462 79.1947 424.926 78.704 425.513 78.352C426.11 77.9893 426.793 77.808 427.561 77.808C428.297 77.808 428.937 77.9947 429.481 78.368C430.035 78.7307 430.462 79.2427 430.761 79.904C431.059 80.5653 431.209 81.344 431.209 82.24H429.929C429.929 81.5573 429.838 80.976 429.657 80.496C429.475 80.0053 429.203 79.6267 428.841 79.36C428.489 79.0933 428.057 78.96 427.545 78.96C427.022 78.96 426.558 79.088 426.153 79.344C425.758 79.5893 425.454 79.9413 425.241 80.4C425.027 80.8587 424.921 81.3973 424.921 82.016C424.921 82.624 425.038 83.152 425.273 83.6C425.507 84.0373 425.833 84.384 426.249 84.64C426.665 84.8853 427.134 85.008 427.657 85.008C428.211 85.008 428.681 84.8747 429.065 84.608C429.449 84.3413 429.753 83.9947 429.977 83.568L431.097 84.128C430.894 84.544 430.622 84.9067 430.281 85.216C429.95 85.5253 429.555 85.7653 429.097 85.936C428.649 86.1067 428.147 86.192 427.593 86.192ZM424.473 82.24L424.489 81.136H430.425V82.24H424.473ZM432.823 86V74.592H434.103V86H432.823ZM438.455 86V81.904L439.735 81.424V86H438.455ZM438.455 81.904C438.455 81.1147 438.359 80.512 438.167 80.096C437.986 79.68 437.735 79.3973 437.415 79.248C437.095 79.088 436.732 79.008 436.327 79.008C435.623 79.008 435.074 79.2587 434.679 79.76C434.295 80.2507 434.103 80.9493 434.103 81.856H433.479C433.479 81.0133 433.602 80.288 433.847 79.68C434.092 79.072 434.45 78.608 434.919 78.288C435.388 77.968 435.954 77.808 436.615 77.808C437.575 77.808 438.338 78.1067 438.903 78.704C439.468 79.3013 439.746 80.208 439.735 81.424L438.455 81.904ZM441.825 86L441.857 78H443.137L443.105 86H441.825ZM442.481 76.144C442.268 76.144 442.081 76.064 441.921 75.904C441.761 75.744 441.681 75.5573 441.681 75.344C441.681 75.12 441.761 74.9333 441.921 74.784C442.081 74.624 442.268 74.544 442.481 74.544C442.705 74.544 442.892 74.624 443.041 74.784C443.201 74.9333 443.281 75.12 443.281 75.344C443.281 75.5573 443.201 75.744 443.041 75.904C442.892 76.064 442.705 76.144 442.481 76.144ZM445.464 86V78H446.664L446.744 79.472V86H445.464ZM451.08 86V81.904L452.36 81.424V86H451.08ZM451.08 81.904C451.08 81.1147 450.989 80.512 450.808 80.096C450.626 79.68 450.376 79.3973 450.056 79.248C449.736 79.088 449.373 79.008 448.968 79.008C448.264 79.008 447.714 79.2587 447.32 79.76C446.936 80.2507 446.744 80.9493 446.744 81.856H446.12C446.12 81.0133 446.242 80.288 446.488 79.68C446.733 79.072 447.085 78.608 447.544 78.288C448.013 77.968 448.578 77.808 449.24 77.808C450.21 77.808 450.973 78.1067 451.528 78.704C452.093 79.3013 452.37 80.208 452.36 81.424L451.08 81.904ZM460.306 86L460.242 84.512V74.8H461.522V86H460.306ZM457.538 86.192C456.823 86.192 456.194 86.016 455.65 85.664C455.106 85.312 454.679 84.8213 454.37 84.192C454.071 83.552 453.922 82.8213 453.922 82C453.922 81.168 454.071 80.4373 454.37 79.808C454.679 79.1787 455.106 78.688 455.65 78.336C456.194 77.984 456.823 77.808 457.538 77.808C458.21 77.808 458.796 77.984 459.298 78.336C459.81 78.688 460.204 79.1787 460.482 79.808C460.759 80.4373 460.898 81.168 460.898 82C460.898 82.8213 460.759 83.552 460.482 84.192C460.204 84.8213 459.81 85.312 459.298 85.664C458.796 86.016 458.21 86.192 457.538 86.192ZM457.826 85.024C458.295 85.024 458.711 84.896 459.074 84.64C459.436 84.384 459.719 84.0267 459.922 83.568C460.135 83.1093 460.242 82.5867 460.242 82C460.242 81.4133 460.135 80.8907 459.922 80.432C459.719 79.9733 459.436 79.616 459.074 79.36C458.711 79.104 458.29 78.976 457.81 78.976C457.308 78.976 456.86 79.104 456.466 79.36C456.082 79.616 455.778 79.9733 455.554 80.432C455.33 80.8907 455.218 81.4133 455.218 82C455.218 82.5867 455.33 83.1093 455.554 83.568C455.778 84.0267 456.087 84.384 456.482 84.64C456.876 84.896 457.324 85.024 457.826 85.024Z" fill="#87CEFF"/>
<rect x="467" y="68" width="43" height="24" rx="4" fill="#D2E5F4" fill-opacity="0.2"/>
<path d="M474.017 85V78H475.067L475.137 79.288V85H474.017ZM478.931 85V81.416L480.051 80.996V85H478.931ZM483.859 85V81.416L484.979 80.996V85H483.859ZM478.931 81.416C478.931 80.7253 478.852 80.198 478.693 79.834C478.534 79.47 478.315 79.2227 478.035 79.092C477.755 78.952 477.438 78.882 477.083 78.882C476.467 78.882 475.986 79.1013 475.641 79.54C475.305 79.9693 475.137 80.5807 475.137 81.374H474.591C474.591 80.6367 474.698 80.002 474.913 79.47C475.128 78.938 475.436 78.532 475.837 78.252C476.248 77.972 476.742 77.832 477.321 77.832C478.17 77.832 478.838 78.0933 479.323 78.616C479.818 79.1387 480.06 79.932 480.051 80.996L478.931 81.416ZM483.859 81.416C483.859 80.7253 483.775 80.198 483.607 79.834C483.448 79.47 483.229 79.2227 482.949 79.092C482.669 78.952 482.352 78.882 481.997 78.882C481.381 78.882 480.9 79.1013 480.555 79.54C480.219 79.9693 480.051 80.5807 480.051 81.374H479.505C479.505 80.6367 479.612 80.002 479.827 79.47C480.042 78.938 480.354 78.532 480.765 78.252C481.176 77.972 481.67 77.832 482.249 77.832C483.089 77.832 483.752 78.0933 484.237 78.616C484.732 79.1387 484.979 79.932 484.979 80.996L483.859 81.416ZM491.058 85L490.988 83.852V81.304C490.988 80.7533 490.922 80.3007 490.792 79.946C490.67 79.582 490.479 79.3113 490.218 79.134C489.966 78.9473 489.63 78.854 489.21 78.854C488.808 78.854 488.458 78.9333 488.16 79.092C487.87 79.2507 487.632 79.498 487.446 79.834L486.438 79.428C486.624 79.1013 486.848 78.8167 487.11 78.574C487.371 78.3313 487.674 78.1493 488.02 78.028C488.374 77.8973 488.776 77.832 489.224 77.832C489.868 77.832 490.404 77.958 490.834 78.21C491.263 78.462 491.585 78.84 491.8 79.344C492.014 79.8387 492.117 80.4593 492.108 81.206L492.094 85H491.058ZM488.958 85.168C488.136 85.168 487.492 84.9813 487.026 84.608C486.568 84.2253 486.34 83.698 486.34 83.026C486.34 82.3167 486.573 81.7753 487.04 81.402C487.516 81.0193 488.178 80.828 489.028 80.828H491.03V81.766H489.28C488.626 81.766 488.16 81.8733 487.88 82.088C487.609 82.3027 487.474 82.6107 487.474 83.012C487.474 83.376 487.609 83.6653 487.88 83.88C488.15 84.0853 488.528 84.188 489.014 84.188C489.415 84.188 489.765 84.0947 490.064 83.908C490.362 83.7213 490.591 83.4693 490.75 83.152C490.908 82.8253 490.988 82.4567 490.988 82.046H491.674C491.674 82.998 491.44 83.7587 490.974 84.328C490.507 84.888 489.835 85.168 488.958 85.168ZM493.952 85L493.98 78H495.1L495.072 85H493.952ZM494.526 76.376C494.34 76.376 494.176 76.306 494.036 76.166C493.896 76.026 493.826 75.8627 493.826 75.676C493.826 75.48 493.896 75.3167 494.036 75.186C494.176 75.046 494.34 74.976 494.526 74.976C494.722 74.976 494.886 75.046 495.016 75.186C495.156 75.3167 495.226 75.48 495.226 75.676C495.226 75.8627 495.156 76.026 495.016 76.166C494.886 76.306 494.722 76.376 494.526 76.376ZM497.136 85V78H498.186L498.256 79.288V85H497.136ZM502.05 85V81.416L503.17 80.996V85H502.05ZM502.05 81.416C502.05 80.7253 501.971 80.198 501.812 79.834C501.654 79.47 501.434 79.2227 501.154 79.092C500.874 78.952 500.557 78.882 500.202 78.882C499.586 78.882 499.106 79.1013 498.76 79.54C498.424 79.9693 498.256 80.5807 498.256 81.374H497.71C497.71 80.6367 497.818 80.002 498.032 79.47C498.247 78.938 498.555 78.532 498.956 78.252C499.367 77.972 499.862 77.832 500.44 77.832C501.29 77.832 501.957 78.0933 502.442 78.616C502.937 79.1387 503.18 79.932 503.17 80.996L502.05 81.416Z" fill="white"/>
<path d="M516 86.224C515.755 86.224 515.541 86.1387 515.36 85.968C515.189 85.7867 515.104 85.5787 515.104 85.344C515.104 85.0987 515.189 84.8907 515.36 84.72C515.541 84.5387 515.755 84.448 516 84.448C516.245 84.448 516.453 84.5387 516.624 84.72C516.795 84.8907 516.88 85.0987 516.88 85.344C516.88 85.5787 516.795 85.7867 516.624 85.968C516.453 86.1387 516.245 86.224 516 86.224Z" fill="#D2E5F4"/>
</svg>
