<svg width="800" height="176" viewBox="0 0 800 176" fill="none" xmlns="http://www.w3.org/2000/svg">
<rect width="800" height="176" fill="#0E1116"/>
<rect x="48.5" y="48.5" width="703" height="79" rx="7.5" fill="#27221A"/>
<rect x="48.5" y="48.5" width="703" height="79" rx="7.5" stroke="#5E4821"/>
<path d="M82.834 89.666C80.034 89.666 79.1173 90.791 78.8173 91.5327C79.709 91.916 80.334 92.7993 80.334 93.8327C80.334 94.4957 80.0706 95.1316 79.6018 95.6004C79.1329 96.0693 78.497 96.3327 77.834 96.3327C77.1709 96.3327 76.5351 96.0693 76.0662 95.6004C75.5974 95.1316 75.334 94.4957 75.334 93.8327C75.334 92.741 76.0257 91.816 77.0007 91.4743V84.5243C76.0257 84.1827 75.334 83.2577 75.334 82.166C75.334 81.503 75.5974 80.8671 76.0662 80.3982C76.5351 79.9294 77.1709 79.666 77.834 79.666C78.497 79.666 79.1329 79.9294 79.6018 80.3982C80.0706 80.8671 80.334 81.503 80.334 82.166C80.334 83.2577 79.6423 84.1827 78.6673 84.5243V88.9327C79.4007 88.391 80.4673 87.9993 82.0007 87.9993C84.2257 87.9993 84.9673 86.8827 85.209 86.141C84.309 85.766 83.6673 84.8743 83.6673 83.8327C83.6673 83.1696 83.9307 82.5338 84.3996 82.0649C84.8684 81.5961 85.5043 81.3327 86.1673 81.3327C86.8304 81.3327 87.4662 81.5961 87.9351 82.0649C88.4039 82.5338 88.6673 83.1696 88.6673 83.8327C88.6673 84.9493 87.934 85.916 86.9257 86.216C86.709 87.4077 85.9007 89.666 82.834 89.666ZM77.834 92.9993C77.613 92.9993 77.401 93.0871 77.2447 93.2434C77.0884 93.3997 77.0007 93.6117 77.0007 93.8327C77.0007 94.0537 77.0884 94.2657 77.2447 94.4219C77.401 94.5782 77.613 94.666 77.834 94.666C78.055 94.666 78.267 94.5782 78.4232 94.4219C78.5795 94.2657 78.6673 94.0537 78.6673 93.8327C78.6673 93.6117 78.5795 93.3997 78.4232 93.2434C78.267 93.0871 78.055 92.9993 77.834 92.9993ZM77.834 81.3327C77.613 81.3327 77.401 81.4205 77.2447 81.5768C77.0884 81.733 77.0007 81.945 77.0007 82.166C77.0007 82.387 77.0884 82.599 77.2447 82.7553C77.401 82.9116 77.613 82.9993 77.834 82.9993C78.055 82.9993 78.267 82.9116 78.4232 82.7553C78.5795 82.599 78.6673 82.387 78.6673 82.166C78.6673 81.945 78.5795 81.733 78.4232 81.5768C78.267 81.4205 78.055 81.3327 77.834 81.3327ZM86.1673 82.9993C85.9463 82.9993 85.7343 83.0871 85.5781 83.2434C85.4218 83.3997 85.334 83.6117 85.334 83.8327C85.334 84.0537 85.4218 84.2657 85.5781 84.4219C85.7343 84.5782 85.9463 84.666 86.1673 84.666C86.3883 84.666 86.6003 84.5782 86.7566 84.4219C86.9129 84.2657 87.0007 84.0537 87.0007 83.8327C87.0007 83.6117 86.9129 83.3997 86.7566 83.2434C86.6003 83.0871 86.3883 82.9993 86.1673 82.9993Z" fill="#C99A3E"/>
<path d="M101.312 94V82.8H103.104V92.512L103.008 94H101.312ZM105.632 94.192C104.96 94.192 104.379 94.0213 103.888 93.68C103.408 93.328 103.04 92.8373 102.784 92.208C102.528 91.5787 102.4 90.8427 102.4 90C102.4 89.1467 102.528 88.4107 102.784 87.792C103.04 87.1627 103.408 86.6773 103.888 86.336C104.379 85.984 104.96 85.808 105.632 85.808C106.358 85.808 106.987 85.984 107.52 86.336C108.064 86.6773 108.486 87.1627 108.784 87.792C109.094 88.4107 109.248 89.1467 109.248 90C109.248 90.8427 109.094 91.5787 108.784 92.208C108.486 92.8373 108.064 93.328 107.52 93.68C106.987 94.0213 106.358 94.192 105.632 94.192ZM105.184 92.56C105.611 92.56 105.99 92.4533 106.32 92.24C106.651 92.016 106.912 91.712 107.104 91.328C107.307 90.944 107.408 90.5013 107.408 90C107.408 89.4987 107.312 89.056 107.12 88.672C106.939 88.288 106.683 87.9893 106.352 87.776C106.022 87.5627 105.638 87.456 105.2 87.456C104.795 87.456 104.432 87.5627 104.112 87.776C103.792 87.9893 103.542 88.288 103.36 88.672C103.19 89.056 103.104 89.4987 103.104 90C103.104 90.5013 103.19 90.944 103.36 91.328C103.542 91.712 103.787 92.016 104.096 92.24C104.416 92.4533 104.779 92.56 105.184 92.56ZM111.965 89.744C111.965 88.88 112.13 88.1707 112.461 87.616C112.792 87.0613 113.218 86.6507 113.741 86.384C114.274 86.1067 114.829 85.968 115.405 85.968V87.68C114.914 87.68 114.45 87.7493 114.013 87.888C113.586 88.016 113.24 88.2293 112.973 88.528C112.706 88.8267 112.573 89.2213 112.573 89.712L111.965 89.744ZM110.781 94V86H112.573V94H110.781ZM121.442 94L121.362 92.496V89.888C121.362 89.344 121.303 88.8907 121.186 88.528C121.068 88.1653 120.882 87.888 120.626 87.696C120.38 87.504 120.055 87.408 119.65 87.408C119.276 87.408 118.946 87.488 118.658 87.648C118.37 87.808 118.13 88.0533 117.938 88.384L116.306 87.808C116.487 87.456 116.722 87.1253 117.01 86.816C117.298 86.5067 117.66 86.2613 118.098 86.08C118.546 85.8987 119.074 85.808 119.682 85.808C120.46 85.808 121.106 85.952 121.618 86.24C122.14 86.528 122.53 86.9547 122.786 87.52C123.042 88.0853 123.17 88.784 123.17 89.616L123.122 94H121.442ZM119.17 94.192C118.21 94.192 117.463 93.9787 116.93 93.552C116.407 93.1253 116.146 92.5227 116.146 91.744C116.146 90.912 116.423 90.2773 116.978 89.84C117.543 89.4027 118.327 89.184 119.33 89.184H121.474V90.56H119.906C119.191 90.56 118.69 90.6613 118.402 90.864C118.114 91.056 117.97 91.3333 117.97 91.696C117.97 92.0053 118.092 92.2507 118.338 92.432C118.594 92.6027 118.946 92.688 119.394 92.688C119.788 92.688 120.13 92.5973 120.418 92.416C120.716 92.224 120.946 91.9787 121.106 91.68C121.276 91.3707 121.362 91.04 121.362 90.688H122.018C122.018 91.776 121.783 92.6347 121.314 93.264C120.855 93.8827 120.14 94.192 119.17 94.192ZM124.984 94V86H126.664L126.776 87.472V94H124.984ZM130.408 94V89.904L132.2 89.424V94H130.408ZM130.408 89.904C130.408 89.264 130.334 88.7733 130.184 88.432C130.046 88.08 129.843 87.8347 129.576 87.696C129.32 87.5573 129.016 87.488 128.664 87.488C128.067 87.4773 127.603 87.6747 127.272 88.08C126.942 88.4853 126.776 89.0667 126.776 89.824H126.104C126.104 88.9813 126.227 88.2613 126.472 87.664C126.718 87.056 127.07 86.5973 127.528 86.288C127.987 85.968 128.531 85.808 129.16 85.808C130.131 85.808 130.878 86.1067 131.4 86.704C131.934 87.2907 132.2 88.1973 132.2 89.424L130.408 89.904ZM139.791 94L139.711 92.512V82.8H141.487V94H139.791ZM137.183 94.192C136.458 94.192 135.823 94.0213 135.279 93.68C134.746 93.328 134.325 92.8373 134.015 92.208C133.717 91.5787 133.567 90.8427 133.567 90C133.567 89.1467 133.717 88.4107 134.015 87.792C134.325 87.1627 134.746 86.6773 135.279 86.336C135.823 85.984 136.458 85.808 137.183 85.808C137.855 85.808 138.431 85.984 138.911 86.336C139.402 86.6773 139.775 87.1627 140.031 87.792C140.287 88.4107 140.415 89.1467 140.415 90C140.415 90.8427 140.287 91.5787 140.031 92.208C139.775 92.8373 139.402 93.328 138.911 93.68C138.431 94.0213 137.855 94.192 137.183 94.192ZM137.631 92.56C138.037 92.56 138.394 92.4533 138.703 92.24C139.023 92.016 139.269 91.712 139.439 91.328C139.621 90.944 139.711 90.5013 139.711 90C139.711 89.4987 139.621 89.056 139.439 88.672C139.269 88.288 139.023 87.9893 138.703 87.776C138.394 87.5627 138.031 87.456 137.615 87.456C137.189 87.456 136.81 87.5627 136.479 87.776C136.149 87.9893 135.887 88.288 135.695 88.672C135.514 89.056 135.418 89.4987 135.407 90C135.418 90.5013 135.514 90.944 135.695 91.328C135.887 91.712 136.149 92.016 136.479 92.24C136.821 92.4533 137.205 92.56 137.631 92.56ZM143.373 90.016V88.464H148.173V90.016H143.373ZM150.047 94V86H151.727L151.839 87.472V94H150.047ZM155.471 94V89.904L157.263 89.424V94H155.471ZM155.471 89.904C155.471 89.264 155.396 88.7733 155.247 88.432C155.108 88.08 154.905 87.8347 154.639 87.696C154.383 87.5573 154.079 87.488 153.727 87.488C153.129 87.4773 152.665 87.6747 152.335 88.08C152.004 88.4853 151.839 89.0667 151.839 89.824H151.167C151.167 88.9813 151.289 88.2613 151.535 87.664C151.78 87.056 152.132 86.5973 152.591 86.288C153.049 85.968 153.593 85.808 154.223 85.808C155.193 85.808 155.94 86.1067 156.463 86.704C156.996 87.2907 157.263 88.1973 157.263 89.424L155.471 89.904ZM162.646 94.192C161.867 94.192 161.174 94.016 160.566 93.664C159.969 93.3013 159.494 92.8053 159.142 92.176C158.801 91.5467 158.63 90.8213 158.63 90C158.63 89.1787 158.806 88.4533 159.158 87.824C159.51 87.1947 159.99 86.704 160.598 86.352C161.217 85.9893 161.921 85.808 162.71 85.808C163.425 85.808 164.065 85.9947 164.63 86.368C165.206 86.7307 165.665 87.2587 166.006 87.952C166.347 88.6453 166.518 89.472 166.518 90.432H164.71C164.71 89.7387 164.625 89.168 164.454 88.72C164.294 88.272 164.059 87.9413 163.75 87.728C163.451 87.504 163.083 87.392 162.646 87.392C162.187 87.392 161.793 87.4933 161.462 87.696C161.131 87.8987 160.881 88.1973 160.71 88.592C160.539 88.976 160.454 89.4613 160.454 90.048C160.454 90.5707 160.555 91.0187 160.758 91.392C160.971 91.7653 161.254 92.0533 161.606 92.256C161.969 92.448 162.369 92.544 162.806 92.544C163.286 92.544 163.681 92.4373 163.99 92.224C164.299 92 164.539 91.7173 164.71 91.376L166.358 92.08C166.134 92.5067 165.846 92.88 165.494 93.2C165.153 93.52 164.742 93.7653 164.262 93.936C163.793 94.1067 163.254 94.192 162.646 94.192ZM159.814 90.432V89.008H165.574V90.432H159.814ZM175.002 94L177.674 86H179.482L176.762 94H175.002ZM169.642 94L172.25 86H173.834L171.258 94H169.642ZM169.482 94L166.762 86H168.57L171.178 94H169.482ZM174.986 94L172.426 86H174.01L176.618 94H174.986ZM180.544 90.016V88.464H185.344V90.016H180.544ZM187.219 94V82.8H189.011V92.512L188.915 94H187.219ZM191.539 94.192C190.867 94.192 190.285 94.0213 189.795 93.68C189.315 93.328 188.947 92.8373 188.691 92.208C188.435 91.5787 188.307 90.8427 188.307 90C188.307 89.1467 188.435 88.4107 188.691 87.792C188.947 87.1627 189.315 86.6773 189.795 86.336C190.285 85.984 190.867 85.808 191.539 85.808C192.264 85.808 192.893 85.984 193.427 86.336C193.971 86.6773 194.392 87.1627 194.691 87.792C195 88.4107 195.155 89.1467 195.155 90C195.155 90.8427 195 91.5787 194.691 92.208C194.392 92.8373 193.971 93.328 193.427 93.68C192.893 94.0213 192.264 94.192 191.539 94.192ZM191.091 92.56C191.517 92.56 191.896 92.4533 192.227 92.24C192.557 92.016 192.819 91.712 193.011 91.328C193.213 90.944 193.315 90.5013 193.315 90C193.315 89.4987 193.219 89.056 193.027 88.672C192.845 88.288 192.589 87.9893 192.259 87.776C191.928 87.5627 191.544 87.456 191.107 87.456C190.701 87.456 190.339 87.5627 190.019 87.776C189.699 87.9893 189.448 88.288 189.267 88.672C189.096 89.056 189.011 89.4987 189.011 90C189.011 90.5013 189.096 90.944 189.267 91.328C189.448 91.712 189.693 92.016 190.003 92.24C190.323 92.4533 190.685 92.56 191.091 92.56ZM197.871 89.744C197.871 88.88 198.037 88.1707 198.367 87.616C198.698 87.0613 199.125 86.6507 199.647 86.384C200.181 86.1067 200.735 85.968 201.311 85.968V87.68C200.821 87.68 200.357 87.7493 199.919 87.888C199.493 88.016 199.146 88.2293 198.879 88.528C198.613 88.8267 198.479 89.2213 198.479 89.712L197.871 89.744ZM196.687 94V86H198.479V94H196.687ZM207.348 94L207.268 92.496V89.888C207.268 89.344 207.209 88.8907 207.092 88.528C206.974 88.1653 206.788 87.888 206.532 87.696C206.286 87.504 205.961 87.408 205.556 87.408C205.182 87.408 204.852 87.488 204.564 87.648C204.276 87.808 204.036 88.0533 203.844 88.384L202.212 87.808C202.393 87.456 202.628 87.1253 202.916 86.816C203.204 86.5067 203.566 86.2613 204.004 86.08C204.452 85.8987 204.98 85.808 205.588 85.808C206.366 85.808 207.012 85.952 207.524 86.24C208.046 86.528 208.436 86.9547 208.692 87.52C208.948 88.0853 209.076 88.784 209.076 89.616L209.028 94H207.348ZM205.076 94.192C204.116 94.192 203.369 93.9787 202.836 93.552C202.313 93.1253 202.052 92.5227 202.052 91.744C202.052 90.912 202.329 90.2773 202.884 89.84C203.449 89.4027 204.233 89.184 205.236 89.184H207.38V90.56H205.812C205.097 90.56 204.596 90.6613 204.308 90.864C204.02 91.056 203.876 91.3333 203.876 91.696C203.876 92.0053 203.998 92.2507 204.244 92.432C204.5 92.6027 204.852 92.688 205.3 92.688C205.694 92.688 206.036 92.5973 206.324 92.416C206.622 92.224 206.852 91.9787 207.012 91.68C207.182 91.3707 207.268 91.04 207.268 90.688H207.924C207.924 91.776 207.689 92.6347 207.22 93.264C206.761 93.8827 206.046 94.192 205.076 94.192ZM210.89 94V86H212.57L212.682 87.472V94H210.89ZM216.314 94V89.904L218.106 89.424V94H216.314ZM216.314 89.904C216.314 89.264 216.24 88.7733 216.09 88.432C215.952 88.08 215.749 87.8347 215.482 87.696C215.226 87.5573 214.922 87.488 214.57 87.488C213.973 87.4773 213.509 87.6747 213.178 88.08C212.848 88.4853 212.682 89.0667 212.682 89.824H212.01C212.01 88.9813 212.133 88.2613 212.378 87.664C212.624 87.056 212.976 86.5973 213.434 86.288C213.893 85.968 214.437 85.808 215.066 85.808C216.037 85.808 216.784 86.1067 217.306 86.704C217.84 87.2907 218.106 88.1973 218.106 89.424L216.314 89.904ZM223.666 94.192C222.844 94.192 222.119 94.016 221.49 93.664C220.86 93.3013 220.364 92.8053 220.002 92.176C219.65 91.5467 219.474 90.8213 219.474 90C219.474 89.1787 219.65 88.4533 220.002 87.824C220.364 87.1947 220.855 86.704 221.474 86.352C222.103 85.9893 222.823 85.808 223.634 85.808C224.423 85.808 225.138 86 225.778 86.384C226.418 86.7573 226.892 87.296 227.202 88L225.538 88.64C225.367 88.288 225.106 88.0053 224.754 87.792C224.402 87.5787 224.002 87.472 223.554 87.472C223.116 87.472 222.727 87.584 222.386 87.808C222.044 88.0213 221.778 88.32 221.586 88.704C221.394 89.0773 221.298 89.5093 221.298 90C221.298 90.4907 221.394 90.928 221.586 91.312C221.788 91.6853 222.06 91.984 222.402 92.208C222.754 92.4213 223.148 92.528 223.586 92.528C224.034 92.528 224.434 92.416 224.786 92.192C225.138 91.9573 225.399 91.6427 225.57 91.248L227.234 91.888C226.924 92.6133 226.45 93.1787 225.81 93.584C225.18 93.9893 224.466 94.192 223.666 94.192ZM228.641 94L228.625 82.656H230.417L230.433 94H228.641ZM234.065 94V89.904L235.857 89.424V94H234.065ZM234.065 89.904C234.065 89.264 233.99 88.7733 233.841 88.432C233.691 88.08 233.483 87.8347 233.217 87.696C232.961 87.5573 232.662 87.488 232.321 87.488C231.713 87.4773 231.243 87.6747 230.913 88.08C230.593 88.4853 230.433 89.0667 230.433 89.824H229.745C229.745 88.9813 229.867 88.2613 230.113 87.664C230.369 87.056 230.726 86.5973 231.185 86.288C231.643 85.968 232.187 85.808 232.817 85.808C233.777 85.808 234.523 86.1067 235.057 86.704C235.59 87.2907 235.857 88.1973 235.857 89.424L234.065 89.904Z" fill="#D2E5F4"/>
<path d="M242.573 94V82.592H243.853V94H242.573ZM248.205 94V89.904L249.485 89.424V94H248.205ZM248.205 89.904C248.205 89.1147 248.109 88.512 247.917 88.096C247.736 87.68 247.485 87.3973 247.165 87.248C246.845 87.088 246.482 87.008 246.077 87.008C245.373 87.008 244.824 87.2587 244.429 87.76C244.045 88.2507 243.853 88.9493 243.853 89.856H243.229C243.229 89.0133 243.352 88.288 243.597 87.68C243.842 87.072 244.2 86.608 244.669 86.288C245.138 85.968 245.704 85.808 246.365 85.808C247.325 85.808 248.088 86.1067 248.653 86.704C249.218 87.3013 249.496 88.208 249.485 89.424L248.205 89.904ZM256.423 94L256.343 92.688V89.776C256.343 89.1467 256.268 88.6293 256.119 88.224C255.98 87.808 255.762 87.4987 255.463 87.296C255.175 87.0827 254.791 86.976 254.311 86.976C253.852 86.976 253.452 87.0667 253.111 87.248C252.78 87.4293 252.508 87.712 252.295 88.096L251.143 87.632C251.356 87.2587 251.612 86.9333 251.911 86.656C252.21 86.3787 252.556 86.1707 252.951 86.032C253.356 85.8827 253.815 85.808 254.327 85.808C255.063 85.808 255.676 85.952 256.167 86.24C256.658 86.528 257.026 86.96 257.271 87.536C257.516 88.1013 257.634 88.8107 257.623 89.664L257.607 94H256.423ZM254.023 94.192C253.084 94.192 252.348 93.9787 251.815 93.552C251.292 93.1147 251.031 92.512 251.031 91.744C251.031 90.9333 251.298 90.3147 251.831 89.888C252.375 89.4507 253.132 89.232 254.103 89.232H256.391V90.304H254.391C253.644 90.304 253.111 90.4267 252.791 90.672C252.482 90.9173 252.327 91.2693 252.327 91.728C252.327 92.144 252.482 92.4747 252.791 92.72C253.1 92.9547 253.532 93.072 254.087 93.072C254.546 93.072 254.946 92.9653 255.287 92.752C255.628 92.5387 255.89 92.2507 256.071 91.888C256.252 91.5147 256.343 91.0933 256.343 90.624H257.127C257.127 91.712 256.86 92.5813 256.327 93.232C255.794 93.872 255.026 94.192 254.023 94.192ZM265.571 94L265.507 92.512V82.8H266.787V94H265.571ZM262.803 94.192C262.089 94.192 261.459 94.016 260.915 93.664C260.371 93.312 259.945 92.8213 259.635 92.192C259.337 91.552 259.187 90.8213 259.187 90C259.187 89.168 259.337 88.4373 259.635 87.808C259.945 87.1787 260.371 86.688 260.915 86.336C261.459 85.984 262.089 85.808 262.803 85.808C263.475 85.808 264.062 85.984 264.563 86.336C265.075 86.688 265.47 87.1787 265.747 87.808C266.025 88.4373 266.163 89.168 266.163 90C266.163 90.8213 266.025 91.552 265.747 92.192C265.47 92.8213 265.075 93.312 264.563 93.664C264.062 94.016 263.475 94.192 262.803 94.192ZM263.091 93.024C263.561 93.024 263.977 92.896 264.339 92.64C264.702 92.384 264.985 92.0267 265.187 91.568C265.401 91.1093 265.507 90.5867 265.507 90C265.507 89.4133 265.401 88.8907 265.187 88.432C264.985 87.9733 264.702 87.616 264.339 87.36C263.977 87.104 263.555 86.976 263.075 86.976C262.574 86.976 262.126 87.104 261.731 87.36C261.347 87.616 261.043 87.9733 260.819 88.432C260.595 88.8907 260.483 89.4133 260.483 90C260.483 90.5867 260.595 91.1093 260.819 91.568C261.043 92.0267 261.353 92.384 261.747 92.64C262.142 92.896 262.59 93.024 263.091 93.024ZM273.683 89.664C273.683 88.8 273.849 88.1013 274.179 87.568C274.51 87.024 274.931 86.624 275.443 86.368C275.966 86.1013 276.515 85.968 277.091 85.968V87.168C276.622 87.168 276.169 87.248 275.731 87.408C275.305 87.5573 274.953 87.808 274.675 88.16C274.398 88.512 274.259 88.992 274.259 89.6L273.683 89.664ZM272.979 94V86H274.259V94H272.979ZM281.89 94.192C281.111 94.192 280.423 94.016 279.826 93.664C279.228 93.3013 278.759 92.8053 278.418 92.176C278.087 91.5467 277.922 90.8213 277.922 90C277.922 89.1787 278.087 88.4533 278.418 87.824C278.759 87.1947 279.223 86.704 279.81 86.352C280.407 85.9893 281.09 85.808 281.858 85.808C282.594 85.808 283.234 85.9947 283.778 86.368C284.332 86.7307 284.759 87.2427 285.058 87.904C285.356 88.5653 285.506 89.344 285.506 90.24H284.226C284.226 89.5573 284.135 88.976 283.954 88.496C283.772 88.0053 283.5 87.6267 283.138 87.36C282.786 87.0933 282.354 86.96 281.842 86.96C281.319 86.96 280.855 87.088 280.45 87.344C280.055 87.5893 279.751 87.9413 279.538 88.4C279.324 88.8587 279.218 89.3973 279.218 90.016C279.218 90.624 279.335 91.152 279.57 91.6C279.804 92.0373 280.13 92.384 280.546 92.64C280.962 92.8853 281.431 93.008 281.954 93.008C282.508 93.008 282.978 92.8747 283.362 92.608C283.746 92.3413 284.05 91.9947 284.274 91.568L285.394 92.128C285.191 92.544 284.919 92.9067 284.578 93.216C284.247 93.5253 283.852 93.7653 283.394 93.936C282.946 94.1067 282.444 94.192 281.89 94.192ZM278.77 90.24L278.786 89.136H284.722V90.24H278.77ZM290.688 94.192C289.899 94.192 289.2 94.016 288.592 93.664C287.984 93.3013 287.509 92.8053 287.168 92.176C286.827 91.5467 286.656 90.8213 286.656 90C286.656 89.1787 286.821 88.4533 287.152 87.824C287.493 87.1947 287.968 86.704 288.576 86.352C289.184 85.9893 289.877 85.808 290.656 85.808C291.424 85.808 292.112 85.984 292.72 86.336C293.328 86.688 293.792 87.184 294.112 87.824L292.944 88.352C292.731 87.9253 292.421 87.5947 292.016 87.36C291.611 87.1147 291.147 86.992 290.624 86.992C290.101 86.992 289.637 87.12 289.232 87.376C288.837 87.632 288.523 87.9893 288.288 88.448C288.064 88.896 287.952 89.4133 287.952 90C287.952 90.5867 288.064 91.1093 288.288 91.568C288.523 92.016 288.843 92.368 289.248 92.624C289.664 92.88 290.133 93.008 290.656 93.008C291.179 93.008 291.643 92.8747 292.048 92.608C292.464 92.3413 292.779 91.968 292.992 91.488L294.16 92.016C293.84 92.6987 293.376 93.232 292.768 93.616C292.16 94 291.467 94.192 290.688 94.192ZM299.28 94.192C298.502 94.192 297.814 94.016 297.216 93.664C296.619 93.3013 296.15 92.8053 295.808 92.176C295.478 91.5467 295.312 90.8213 295.312 90C295.312 89.1787 295.478 88.4533 295.808 87.824C296.15 87.1947 296.614 86.704 297.2 86.352C297.798 85.9893 298.48 85.808 299.248 85.808C299.984 85.808 300.624 85.9947 301.168 86.368C301.723 86.7307 302.15 87.2427 302.448 87.904C302.747 88.5653 302.896 89.344 302.896 90.24H301.616C301.616 89.5573 301.526 88.976 301.344 88.496C301.163 88.0053 300.891 87.6267 300.528 87.36C300.176 87.0933 299.744 86.96 299.232 86.96C298.71 86.96 298.246 87.088 297.84 87.344C297.446 87.5893 297.142 87.9413 296.928 88.4C296.715 88.8587 296.608 89.3973 296.608 90.016C296.608 90.624 296.726 91.152 296.96 91.6C297.195 92.0373 297.52 92.384 297.936 92.64C298.352 92.8853 298.822 93.008 299.344 93.008C299.899 93.008 300.368 92.8747 300.752 92.608C301.136 92.3413 301.44 91.9947 301.664 91.568L302.784 92.128C302.582 92.544 302.31 92.9067 301.968 93.216C301.638 93.5253 301.243 93.7653 300.784 93.936C300.336 94.1067 299.835 94.192 299.28 94.192ZM296.16 90.24L296.176 89.136H302.112V90.24H296.16ZM304.511 94V86H305.711L305.791 87.472V94H304.511ZM310.127 94V89.904L311.407 89.424V94H310.127ZM310.127 89.904C310.127 89.1147 310.036 88.512 309.855 88.096C309.673 87.68 309.423 87.3973 309.103 87.248C308.783 87.088 308.42 87.008 308.015 87.008C307.311 87.008 306.761 87.2587 306.367 87.76C305.983 88.2507 305.791 88.9493 305.791 89.856H305.167C305.167 89.0133 305.289 88.288 305.535 87.68C305.78 87.072 306.132 86.608 306.591 86.288C307.06 85.968 307.625 85.808 308.287 85.808C309.257 85.808 310.02 86.1067 310.575 86.704C311.14 87.3013 311.417 88.208 311.407 89.424L310.127 89.904ZM316.441 94.192C315.662 94.192 315.059 93.9893 314.633 93.584C314.206 93.1787 313.993 92.608 313.993 91.872V83.504H315.273V91.744C315.273 92.1493 315.379 92.464 315.593 92.688C315.817 92.9013 316.126 93.008 316.521 93.008C316.649 93.008 316.771 92.992 316.889 92.96C317.017 92.9173 317.182 92.8213 317.385 92.672L317.881 93.712C317.603 93.8933 317.353 94.016 317.129 94.08C316.905 94.1547 316.675 94.192 316.441 94.192ZM312.601 87.136V86H317.673V87.136H312.601ZM323.513 97.2V86H324.713L324.793 87.472V97.2H323.513ZM327.497 94.192C326.825 94.192 326.233 94.016 325.721 93.664C325.219 93.312 324.83 92.8213 324.553 92.192C324.275 91.552 324.137 90.8213 324.137 90C324.137 89.168 324.275 88.4373 324.553 87.808C324.83 87.1787 325.219 86.688 325.721 86.336C326.233 85.984 326.825 85.808 327.497 85.808C328.211 85.808 328.841 85.984 329.385 86.336C329.929 86.688 330.35 87.1787 330.649 87.808C330.958 88.4373 331.113 89.168 331.113 90C331.113 90.8213 330.958 91.552 330.649 92.192C330.35 92.8213 329.929 93.312 329.385 93.664C328.841 94.016 328.211 94.192 327.497 94.192ZM327.209 93.024C327.71 93.024 328.153 92.896 328.537 92.64C328.931 92.384 329.241 92.0267 329.465 91.568C329.699 91.1093 329.817 90.5867 329.817 90C329.817 89.4133 329.705 88.8907 329.481 88.432C329.267 87.9733 328.963 87.616 328.569 87.36C328.174 87.104 327.726 86.976 327.225 86.976C326.755 86.976 326.334 87.104 325.961 87.36C325.598 87.616 325.31 87.9733 325.097 88.432C324.894 88.8907 324.793 89.4133 324.793 90C324.793 90.5867 324.894 91.1093 325.097 91.568C325.31 92.0267 325.598 92.384 325.961 92.64C326.323 92.896 326.739 93.024 327.209 93.024ZM338.374 94L338.294 92.528V86H339.574V94H338.374ZM332.678 90.576V86H333.958V90.096L332.678 90.576ZM333.958 90.096C333.958 90.8853 334.048 91.488 334.23 91.904C334.411 92.32 334.662 92.608 334.982 92.768C335.312 92.9173 335.68 92.992 336.086 92.992C336.779 92.992 337.318 92.7413 337.702 92.24C338.096 91.7387 338.294 91.04 338.294 90.144H338.918C338.918 90.9867 338.795 91.712 338.55 92.32C338.304 92.928 337.947 93.392 337.478 93.712C337.019 94.032 336.459 94.192 335.798 94.192C334.827 94.192 334.059 93.8933 333.494 93.296C332.939 92.6987 332.667 91.792 332.678 90.576L333.958 90.096ZM344.608 94.192C344.021 94.192 343.509 94.1067 343.072 93.936C342.634 93.7547 342.266 93.52 341.968 93.232C341.68 92.944 341.472 92.6293 341.344 92.288L342.464 91.824C342.645 92.1867 342.917 92.48 343.28 92.704C343.642 92.928 344.042 93.04 344.48 93.04C344.981 93.04 345.402 92.944 345.744 92.752C346.085 92.5493 346.256 92.2667 346.256 91.904C346.256 91.5733 346.128 91.3067 345.872 91.104C345.626 90.9013 345.258 90.736 344.768 90.608L344 90.4C343.274 90.208 342.709 89.92 342.304 89.536C341.898 89.1413 341.696 88.6987 341.696 88.208C341.696 87.4507 341.941 86.864 342.432 86.448C342.933 86.0213 343.674 85.808 344.656 85.808C345.125 85.808 345.552 85.8773 345.936 86.016C346.32 86.1547 346.65 86.352 346.928 86.608C347.205 86.8533 347.408 87.1467 347.536 87.488L346.416 87.984C346.277 87.6213 346.048 87.36 345.728 87.2C345.408 87.04 345.018 86.96 344.56 86.96C344.069 86.96 343.685 87.0667 343.408 87.28C343.13 87.4827 342.992 87.7707 342.992 88.144C342.992 88.3573 343.104 88.56 343.328 88.752C343.562 88.9333 343.904 89.0827 344.352 89.2L345.152 89.408C345.674 89.536 346.112 89.728 346.464 89.984C346.816 90.2293 347.082 90.512 347.264 90.832C347.445 91.152 347.536 91.4933 347.536 91.856C347.536 92.336 347.408 92.752 347.152 93.104C346.896 93.456 346.549 93.728 346.112 93.92C345.674 94.1013 345.173 94.192 344.608 94.192ZM349.261 94V82.592H350.541V94H349.261ZM354.893 94V89.904L356.173 89.424V94H354.893ZM354.893 89.904C354.893 89.1147 354.797 88.512 354.605 88.096C354.423 87.68 354.173 87.3973 353.853 87.248C353.533 87.088 353.17 87.008 352.765 87.008C352.061 87.008 351.511 87.2587 351.117 87.76C350.733 88.2507 350.541 88.9493 350.541 89.856H349.917C349.917 89.0133 350.039 88.288 350.285 87.68C350.53 87.072 350.887 86.608 351.357 86.288C351.826 85.968 352.391 85.808 353.053 85.808C354.013 85.808 354.775 86.1067 355.341 86.704C355.906 87.3013 356.183 88.208 356.173 89.424L354.893 89.904ZM361.687 94.192C360.908 94.192 360.22 94.016 359.623 93.664C359.025 93.3013 358.556 92.8053 358.215 92.176C357.884 91.5467 357.719 90.8213 357.719 90C357.719 89.1787 357.884 88.4533 358.215 87.824C358.556 87.1947 359.02 86.704 359.607 86.352C360.204 85.9893 360.887 85.808 361.655 85.808C362.391 85.808 363.031 85.9947 363.575 86.368C364.129 86.7307 364.556 87.2427 364.855 87.904C365.153 88.5653 365.303 89.344 365.303 90.24H364.023C364.023 89.5573 363.932 88.976 363.751 88.496C363.569 88.0053 363.297 87.6267 362.935 87.36C362.583 87.0933 362.151 86.96 361.639 86.96C361.116 86.96 360.652 87.088 360.247 87.344C359.852 87.5893 359.548 87.9413 359.335 88.4C359.121 88.8587 359.015 89.3973 359.015 90.016C359.015 90.624 359.132 91.152 359.367 91.6C359.601 92.0373 359.927 92.384 360.343 92.64C360.759 92.8853 361.228 93.008 361.751 93.008C362.305 93.008 362.775 92.8747 363.159 92.608C363.543 92.3413 363.847 91.9947 364.071 91.568L365.191 92.128C364.988 92.544 364.716 92.9067 364.375 93.216C364.044 93.5253 363.649 93.7653 363.191 93.936C362.743 94.1067 362.241 94.192 361.687 94.192ZM358.567 90.24L358.583 89.136H364.519V90.24H358.567ZM369.717 94.192C369.13 94.192 368.618 94.1067 368.181 93.936C367.744 93.7547 367.376 93.52 367.077 93.232C366.789 92.944 366.581 92.6293 366.453 92.288L367.573 91.824C367.754 92.1867 368.026 92.48 368.389 92.704C368.752 92.928 369.152 93.04 369.589 93.04C370.09 93.04 370.512 92.944 370.853 92.752C371.194 92.5493 371.365 92.2667 371.365 91.904C371.365 91.5733 371.237 91.3067 370.981 91.104C370.736 90.9013 370.368 90.736 369.877 90.608L369.109 90.4C368.384 90.208 367.818 89.92 367.413 89.536C367.008 89.1413 366.805 88.6987 366.805 88.208C366.805 87.4507 367.05 86.864 367.541 86.448C368.042 86.0213 368.784 85.808 369.765 85.808C370.234 85.808 370.661 85.8773 371.045 86.016C371.429 86.1547 371.76 86.352 372.037 86.608C372.314 86.8533 372.517 87.1467 372.645 87.488L371.525 87.984C371.386 87.6213 371.157 87.36 370.837 87.2C370.517 87.04 370.128 86.96 369.669 86.96C369.178 86.96 368.794 87.0667 368.517 87.28C368.24 87.4827 368.101 87.7707 368.101 88.144C368.101 88.3573 368.213 88.56 368.437 88.752C368.672 88.9333 369.013 89.0827 369.461 89.2L370.261 89.408C370.784 89.536 371.221 89.728 371.573 89.984C371.925 90.2293 372.192 90.512 372.373 90.832C372.554 91.152 372.645 91.4933 372.645 91.856C372.645 92.336 372.517 92.752 372.261 93.104C372.005 93.456 371.658 93.728 371.221 93.92C370.784 94.1013 370.282 94.192 369.717 94.192ZM381.507 94.192C380.963 94.192 380.467 94.112 380.019 93.952C379.582 93.7813 379.203 93.5627 378.883 93.296C378.574 93.0293 378.328 92.7467 378.147 92.448L379.267 91.824C379.384 91.9733 379.528 92.144 379.699 92.336C379.88 92.5173 380.11 92.672 380.387 92.8C380.664 92.928 381.006 92.992 381.411 92.992C382.136 92.992 382.718 92.784 383.155 92.368C383.592 91.952 383.811 91.4293 383.811 90.8C383.811 90.32 383.678 89.9147 383.411 89.584C383.155 89.2533 382.782 89.0027 382.291 88.832C381.8 88.6613 381.214 88.576 380.531 88.576H380.227V87.52H380.499C381.171 87.52 381.79 87.5947 382.355 87.744C382.92 87.8933 383.411 88.112 383.827 88.4C384.254 88.688 384.579 89.04 384.803 89.456C385.038 89.872 385.155 90.352 385.155 90.896C385.155 91.5573 384.99 92.1387 384.659 92.64C384.339 93.1307 383.902 93.5147 383.347 93.792C382.792 94.0587 382.179 94.192 381.507 94.192ZM380.227 88.464V87.424H380.531C381.448 87.424 382.174 87.2693 382.707 86.96C383.251 86.64 383.523 86.1867 383.523 85.6C383.523 85.28 383.438 84.9867 383.267 84.72C383.096 84.4427 382.846 84.224 382.515 84.064C382.195 83.8933 381.822 83.808 381.395 83.808C381.107 83.808 380.835 83.8507 380.579 83.936C380.334 84.0107 380.104 84.128 379.891 84.288C379.688 84.4373 379.502 84.6293 379.331 84.864L378.275 84.256C378.478 83.9253 378.734 83.6373 379.043 83.392C379.363 83.1467 379.726 82.9547 380.131 82.816C380.536 82.6773 380.979 82.608 381.459 82.608C382.11 82.608 382.691 82.736 383.203 82.992C383.726 83.248 384.136 83.6 384.435 84.048C384.734 84.4853 384.883 84.9813 384.883 85.536C384.883 86.0053 384.771 86.4213 384.547 86.784C384.323 87.1467 384.008 87.456 383.603 87.712C383.208 87.968 382.744 88.16 382.211 88.288C381.688 88.4053 381.118 88.464 380.499 88.464H380.227ZM389.362 94L389.378 83.52L389.49 82.8H390.706L390.674 94H389.362ZM386.866 85.68V84.448C387.09 84.4587 387.357 84.384 387.666 84.224C387.976 84.064 388.296 83.856 388.626 83.6C388.957 83.344 389.245 83.0773 389.49 82.8L390.322 83.712C389.97 84.0853 389.602 84.4213 389.218 84.72C388.834 85.0187 388.445 85.2587 388.05 85.44C387.656 85.6107 387.261 85.6907 386.866 85.68ZM397.589 94V86H398.789L398.869 87.472V94H397.589ZM403.205 94V89.904L404.485 89.424V94H403.205ZM408.837 94V89.904L410.117 89.424V94H408.837ZM403.205 89.904C403.205 89.1147 403.114 88.512 402.933 88.096C402.751 87.68 402.501 87.3973 402.181 87.248C401.861 87.088 401.498 87.008 401.093 87.008C400.389 87.008 399.839 87.2587 399.445 87.76C399.061 88.2507 398.869 88.9493 398.869 89.856H398.245C398.245 89.0133 398.367 88.288 398.613 87.68C398.858 87.072 399.21 86.608 399.669 86.288C400.138 85.968 400.703 85.808 401.365 85.808C402.335 85.808 403.098 86.1067 403.653 86.704C404.218 87.3013 404.495 88.208 404.485 89.424L403.205 89.904ZM408.837 89.904C408.837 89.1147 408.741 88.512 408.549 88.096C408.367 87.68 408.117 87.3973 407.797 87.248C407.477 87.088 407.114 87.008 406.709 87.008C406.005 87.008 405.455 87.2587 405.061 87.76C404.677 88.2507 404.485 88.9493 404.485 89.856H403.861C403.861 89.0133 403.983 88.288 404.229 87.68C404.474 87.072 404.831 86.608 405.301 86.288C405.77 85.968 406.335 85.808 406.997 85.808C407.957 85.808 408.714 86.1067 409.269 86.704C409.834 87.3013 410.117 88.208 410.117 89.424L408.837 89.904ZM412.216 94L412.248 86H413.528L413.496 94H412.216ZM412.872 84.144C412.658 84.144 412.472 84.064 412.312 83.904C412.152 83.744 412.072 83.5573 412.072 83.344C412.072 83.12 412.152 82.9333 412.312 82.784C412.472 82.624 412.658 82.544 412.872 82.544C413.096 82.544 413.282 82.624 413.432 82.784C413.592 82.9333 413.672 83.12 413.672 83.344C413.672 83.5573 413.592 83.744 413.432 83.904C413.282 84.064 413.096 84.144 412.872 84.144ZM415.854 94V86H417.054L417.134 87.472V94H415.854ZM421.47 94V89.904L422.75 89.424V94H421.47ZM421.47 89.904C421.47 89.1147 421.38 88.512 421.198 88.096C421.017 87.68 420.766 87.3973 420.446 87.248C420.126 87.088 419.764 87.008 419.358 87.008C418.654 87.008 418.105 87.2587 417.71 87.76C417.326 88.2507 417.134 88.9493 417.134 89.856H416.51C416.51 89.0133 416.633 88.288 416.878 87.68C417.124 87.072 417.476 86.608 417.934 86.288C418.404 85.968 418.969 85.808 419.63 85.808C420.601 85.808 421.364 86.1067 421.918 86.704C422.484 87.3013 422.761 88.208 422.75 89.424L421.47 89.904ZM430.264 94L430.184 92.528V86H431.464V94H430.264ZM424.568 90.576V86H425.848V90.096L424.568 90.576ZM425.848 90.096C425.848 90.8853 425.939 91.488 426.12 91.904C426.302 92.32 426.552 92.608 426.872 92.768C427.203 92.9173 427.571 92.992 427.976 92.992C428.67 92.992 429.208 92.7413 429.592 92.24C429.987 91.7387 430.184 91.04 430.184 90.144H430.808C430.808 90.9867 430.686 91.712 430.44 92.32C430.195 92.928 429.838 93.392 429.368 93.712C428.91 94.032 428.35 94.192 427.688 94.192C426.718 94.192 425.95 93.8933 425.384 93.296C424.83 92.6987 424.558 91.792 424.568 90.576L425.848 90.096ZM436.706 94.192C435.927 94.192 435.325 93.9893 434.898 93.584C434.471 93.1787 434.258 92.608 434.258 91.872V83.504H435.538V91.744C435.538 92.1493 435.645 92.464 435.858 92.688C436.082 92.9013 436.391 93.008 436.786 93.008C436.914 93.008 437.037 92.992 437.154 92.96C437.282 92.9173 437.447 92.8213 437.65 92.672L438.146 93.712C437.869 93.8933 437.618 94.016 437.394 94.08C437.17 94.1547 436.941 94.192 436.706 94.192ZM432.866 87.136V86H437.938V87.136H432.866ZM443.202 94.192C442.423 94.192 441.735 94.016 441.138 93.664C440.541 93.3013 440.071 92.8053 439.73 92.176C439.399 91.5467 439.234 90.8213 439.234 90C439.234 89.1787 439.399 88.4533 439.73 87.824C440.071 87.1947 440.535 86.704 441.122 86.352C441.719 85.9893 442.402 85.808 443.17 85.808C443.906 85.808 444.546 85.9947 445.09 86.368C445.645 86.7307 446.071 87.2427 446.37 87.904C446.669 88.5653 446.818 89.344 446.818 90.24H445.538C445.538 89.5573 445.447 88.976 445.266 88.496C445.085 88.0053 444.813 87.6267 444.45 87.36C444.098 87.0933 443.666 86.96 443.154 86.96C442.631 86.96 442.167 87.088 441.762 87.344C441.367 87.5893 441.063 87.9413 440.85 88.4C440.637 88.8587 440.53 89.3973 440.53 90.016C440.53 90.624 440.647 91.152 440.882 91.6C441.117 92.0373 441.442 92.384 441.858 92.64C442.274 92.8853 442.743 93.008 443.266 93.008C443.821 93.008 444.29 92.8747 444.674 92.608C445.058 92.3413 445.362 91.9947 445.586 91.568L446.706 92.128C446.503 92.544 446.231 92.9067 445.89 93.216C445.559 93.5253 445.165 93.7653 444.706 93.936C444.258 94.1067 443.757 94.192 443.202 94.192ZM440.082 90.24L440.098 89.136H446.034V90.24H440.082ZM451.233 94.192C450.646 94.192 450.134 94.1067 449.697 93.936C449.259 93.7547 448.891 93.52 448.593 93.232C448.305 92.944 448.097 92.6293 447.969 92.288L449.089 91.824C449.27 92.1867 449.542 92.48 449.905 92.704C450.267 92.928 450.667 93.04 451.105 93.04C451.606 93.04 452.027 92.944 452.369 92.752C452.71 92.5493 452.881 92.2667 452.881 91.904C452.881 91.5733 452.753 91.3067 452.497 91.104C452.251 90.9013 451.883 90.736 451.393 90.608L450.625 90.4C449.899 90.208 449.334 89.92 448.929 89.536C448.523 89.1413 448.321 88.6987 448.321 88.208C448.321 87.4507 448.566 86.864 449.057 86.448C449.558 86.0213 450.299 85.808 451.281 85.808C451.75 85.808 452.177 85.8773 452.561 86.016C452.945 86.1547 453.275 86.352 453.553 86.608C453.83 86.8533 454.033 87.1467 454.161 87.488L453.041 87.984C452.902 87.6213 452.673 87.36 452.353 87.2C452.033 87.04 451.643 86.96 451.185 86.96C450.694 86.96 450.31 87.0667 450.033 87.28C449.755 87.4827 449.617 87.7707 449.617 88.144C449.617 88.3573 449.729 88.56 449.953 88.752C450.187 88.9333 450.529 89.0827 450.977 89.2L451.777 89.408C452.299 89.536 452.737 89.728 453.089 89.984C453.441 90.2293 453.707 90.512 453.889 90.832C454.07 91.152 454.161 91.4933 454.161 91.856C454.161 92.336 454.033 92.752 453.777 93.104C453.521 93.456 453.174 93.728 452.737 93.92C452.299 94.1013 451.798 94.192 451.233 94.192ZM464.767 94L464.687 92.688V89.776C464.687 89.1467 464.612 88.6293 464.463 88.224C464.324 87.808 464.105 87.4987 463.807 87.296C463.519 87.0827 463.135 86.976 462.655 86.976C462.196 86.976 461.796 87.0667 461.455 87.248C461.124 87.4293 460.852 87.712 460.639 88.096L459.487 87.632C459.7 87.2587 459.956 86.9333 460.255 86.656C460.553 86.3787 460.9 86.1707 461.295 86.032C461.7 85.8827 462.159 85.808 462.671 85.808C463.407 85.808 464.02 85.952 464.511 86.24C465.001 86.528 465.369 86.96 465.615 87.536C465.86 88.1013 465.977 88.8107 465.967 89.664L465.951 94H464.767ZM462.367 94.192C461.428 94.192 460.692 93.9787 460.159 93.552C459.636 93.1147 459.375 92.512 459.375 91.744C459.375 90.9333 459.641 90.3147 460.175 89.888C460.719 89.4507 461.476 89.232 462.447 89.232H464.735V90.304H462.735C461.988 90.304 461.455 90.4267 461.135 90.672C460.825 90.9173 460.671 91.2693 460.671 91.728C460.671 92.144 460.825 92.4747 461.135 92.72C461.444 92.9547 461.876 93.072 462.431 93.072C462.889 93.072 463.289 92.9653 463.631 92.752C463.972 92.5387 464.233 92.2507 464.415 91.888C464.596 91.5147 464.687 91.0933 464.687 90.624H465.471C465.471 91.712 465.204 92.5813 464.671 93.232C464.137 93.872 463.369 94.192 462.367 94.192ZM471.195 97.392C470.683 97.392 470.214 97.3387 469.787 97.232C469.371 97.136 469.014 97.024 468.715 96.896C468.427 96.7787 468.219 96.6773 468.091 96.592L468.571 95.552C468.71 95.6267 468.907 95.7173 469.163 95.824C469.419 95.9413 469.718 96.0373 470.059 96.112C470.411 96.1973 470.784 96.24 471.179 96.24C471.691 96.24 472.15 96.1333 472.555 95.92C472.971 95.7173 473.291 95.392 473.515 94.944C473.75 94.5067 473.867 93.9413 473.867 93.248V86H475.147V93.232C475.147 94.1493 474.976 94.9173 474.635 95.536C474.294 96.1547 473.824 96.6187 473.227 96.928C472.63 97.2373 471.952 97.392 471.195 97.392ZM471.147 93.936C470.432 93.936 469.803 93.7653 469.259 93.424C468.715 93.0827 468.288 92.608 467.979 92C467.68 91.3813 467.531 90.6773 467.531 89.888C467.531 89.0773 467.68 88.368 467.979 87.76C468.288 87.1413 468.715 86.6613 469.259 86.32C469.803 85.9787 470.432 85.808 471.147 85.808C471.819 85.808 472.406 85.9787 472.907 86.32C473.408 86.6613 473.798 87.1413 474.075 87.76C474.363 88.368 474.507 89.0773 474.507 89.888C474.507 90.688 474.363 91.392 474.075 92C473.798 92.608 473.408 93.0827 472.907 93.424C472.406 93.7653 471.819 93.936 471.147 93.936ZM471.451 92.832C471.92 92.832 472.336 92.704 472.699 92.448C473.062 92.192 473.344 91.8453 473.547 91.408C473.75 90.96 473.851 90.4427 473.851 89.856C473.851 89.2907 473.744 88.7893 473.531 88.352C473.328 87.904 473.046 87.5573 472.683 87.312C472.331 87.056 471.915 86.928 471.435 86.928C470.934 86.928 470.486 87.056 470.091 87.312C469.707 87.5573 469.403 87.904 469.179 88.352C468.966 88.7893 468.859 89.2907 468.859 89.856C468.859 90.4427 468.971 90.96 469.195 91.408C469.419 91.8453 469.723 92.192 470.107 92.448C470.502 92.704 470.95 92.832 471.451 92.832ZM480.922 94.192C480.143 94.192 479.45 94.016 478.842 93.664C478.244 93.3013 477.775 92.8053 477.434 92.176C477.092 91.5467 476.922 90.8213 476.922 90C476.922 89.1787 477.087 88.4533 477.418 87.824C477.759 87.1947 478.228 86.704 478.826 86.352C479.434 85.9893 480.122 85.808 480.89 85.808C481.679 85.808 482.372 85.9893 482.97 86.352C483.578 86.704 484.047 87.1947 484.378 87.824C484.719 88.4533 484.89 89.1787 484.89 90C484.89 90.8213 484.719 91.5467 484.378 92.176C484.047 92.8053 483.583 93.3013 482.986 93.664C482.388 94.016 481.7 94.192 480.922 94.192ZM480.922 93.008C481.455 93.008 481.919 92.88 482.314 92.624C482.708 92.368 483.018 92.016 483.242 91.568C483.476 91.12 483.594 90.5973 483.594 90C483.594 89.4027 483.476 88.88 483.242 88.432C483.018 87.984 482.703 87.632 482.298 87.376C481.892 87.12 481.423 86.992 480.89 86.992C480.367 86.992 479.903 87.12 479.498 87.376C479.103 87.632 478.788 87.984 478.554 88.432C478.33 88.88 478.218 89.4027 478.218 90C478.218 90.5867 478.33 91.1093 478.554 91.568C478.788 92.016 479.108 92.368 479.514 92.624C479.93 92.88 480.399 93.008 480.922 93.008Z" fill="#D2E5F4"/>
<rect x="519.5" y="67.5" width="213" height="41" rx="8.5" fill="#438340"/>
<rect x="519.5" y="67.5" width="213" height="41" rx="8.5" stroke="black"/>
<path d="M546.41 94.192C545.333 94.192 544.373 93.9467 543.53 93.456C542.698 92.9547 542.042 92.272 541.562 91.408C541.093 90.5333 540.858 89.5307 540.858 88.4C540.858 87.2693 541.093 86.272 541.562 85.408C542.042 84.5333 542.698 83.8507 543.53 83.36C544.362 82.8587 545.317 82.608 546.394 82.608C547.12 82.608 547.802 82.7413 548.442 83.008C549.082 83.264 549.648 83.6213 550.138 84.08C550.64 84.5387 551.024 85.072 551.29 85.68L549.594 86.368C549.402 85.9627 549.141 85.6053 548.81 85.296C548.49 84.976 548.122 84.7307 547.706 84.56C547.29 84.3893 546.853 84.304 546.394 84.304C545.69 84.304 545.061 84.48 544.506 84.832C543.962 85.184 543.53 85.6693 543.21 86.288C542.901 86.896 542.746 87.6 542.746 88.4C542.746 89.2 542.901 89.9093 543.21 90.528C543.53 91.1467 543.968 91.632 544.522 91.984C545.088 92.336 545.728 92.512 546.442 92.512C546.912 92.512 547.349 92.4213 547.754 92.24C548.17 92.048 548.538 91.7867 548.858 91.456C549.189 91.1253 549.45 90.7413 549.642 90.304L551.338 90.992C551.072 91.6213 550.693 92.1813 550.202 92.672C549.712 93.152 549.141 93.5253 548.49 93.792C547.84 94.0587 547.146 94.192 546.41 94.192ZM556.469 94.192C555.669 94.192 554.954 94.016 554.325 93.664C553.706 93.3013 553.221 92.8053 552.869 92.176C552.517 91.5467 552.341 90.8213 552.341 90C552.341 89.1787 552.512 88.4533 552.853 87.824C553.205 87.1947 553.69 86.704 554.309 86.352C554.928 85.9893 555.637 85.808 556.437 85.808C557.237 85.808 557.946 85.9893 558.565 86.352C559.184 86.704 559.664 87.1947 560.005 87.824C560.357 88.4533 560.533 89.1787 560.533 90C560.533 90.8213 560.362 91.5467 560.021 92.176C559.68 92.8053 559.2 93.3013 558.581 93.664C557.962 94.016 557.258 94.192 556.469 94.192ZM556.469 92.544C556.906 92.544 557.296 92.4373 557.637 92.224C557.978 92 558.245 91.7013 558.437 91.328C558.629 90.944 558.725 90.5013 558.725 90C558.725 89.4987 558.624 89.0613 558.421 88.688C558.229 88.304 557.962 88.0053 557.621 87.792C557.28 87.568 556.885 87.456 556.437 87.456C555.989 87.456 555.594 87.5627 555.253 87.776C554.912 87.9893 554.645 88.288 554.453 88.672C554.261 89.056 554.165 89.4987 554.165 90C554.165 90.5013 554.261 90.944 554.453 91.328C554.656 91.7013 554.928 92 555.269 92.224C555.621 92.4373 556.021 92.544 556.469 92.544ZM562.086 94V86H563.766L563.878 87.472V94H562.086ZM567.51 94V89.904L569.302 89.424V94H567.51ZM572.95 94V89.904L574.726 89.424V94H572.95ZM567.51 89.904C567.51 89.264 567.435 88.7733 567.286 88.432C567.147 88.08 566.944 87.8347 566.678 87.696C566.422 87.5573 566.118 87.488 565.766 87.488C565.168 87.4773 564.704 87.6747 564.374 88.08C564.043 88.4853 563.878 89.0667 563.878 89.824H563.206C563.206 88.9813 563.328 88.2613 563.574 87.664C563.819 87.056 564.171 86.5973 564.63 86.288C565.088 85.968 565.632 85.808 566.262 85.808C567.232 85.808 567.979 86.1067 568.502 86.704C569.035 87.2907 569.302 88.1973 569.302 89.424L567.51 89.904ZM572.95 89.904C572.95 89.264 572.875 88.7733 572.726 88.432C572.576 88.08 572.368 87.8347 572.102 87.696C571.846 87.5573 571.547 87.488 571.206 87.488C570.598 87.4773 570.128 87.6747 569.798 88.08C569.467 88.4853 569.302 89.0667 569.302 89.824H568.63C568.63 88.9813 568.752 88.2613 568.998 87.664C569.243 87.056 569.595 86.5973 570.054 86.288C570.512 85.968 571.056 85.808 571.686 85.808C572.656 85.808 573.408 86.1067 573.942 86.704C574.475 87.2907 574.736 88.1973 574.726 89.424L572.95 89.904ZM576.635 97.2V86H578.315L578.427 87.472V97.2H576.635ZM580.955 94.192C580.283 94.192 579.701 94.0213 579.211 93.68C578.731 93.328 578.363 92.8373 578.107 92.208C577.851 91.5787 577.723 90.8427 577.723 90C577.723 89.1467 577.851 88.4107 578.107 87.792C578.363 87.1627 578.731 86.6773 579.211 86.336C579.701 85.984 580.283 85.808 580.955 85.808C581.68 85.808 582.309 85.984 582.843 86.336C583.387 86.6773 583.808 87.1627 584.107 87.792C584.416 88.4107 584.571 89.1467 584.571 90C584.571 90.8427 584.416 91.5787 584.107 92.208C583.808 92.8373 583.387 93.328 582.843 93.68C582.309 94.0213 581.68 94.192 580.955 94.192ZM580.507 92.56C580.933 92.56 581.312 92.4533 581.643 92.24C581.973 92.016 582.235 91.712 582.427 91.328C582.629 90.944 582.731 90.5013 582.731 90C582.731 89.4987 582.635 89.056 582.443 88.672C582.261 88.288 582.005 87.9893 581.675 87.776C581.344 87.5627 580.96 87.456 580.523 87.456C580.117 87.456 579.755 87.5627 579.435 87.776C579.115 87.9893 578.864 88.288 578.683 88.672C578.512 89.056 578.427 89.4987 578.427 90C578.427 90.5013 578.512 90.944 578.683 91.328C578.864 91.712 579.109 92.016 579.419 92.24C579.739 92.4533 580.101 92.56 580.507 92.56ZM590.949 94L590.869 92.496V89.888C590.869 89.344 590.811 88.8907 590.693 88.528C590.576 88.1653 590.389 87.888 590.133 87.696C589.888 87.504 589.563 87.408 589.157 87.408C588.784 87.408 588.453 87.488 588.165 87.648C587.877 87.808 587.637 88.0533 587.445 88.384L585.813 87.808C585.995 87.456 586.229 87.1253 586.517 86.816C586.805 86.5067 587.168 86.2613 587.605 86.08C588.053 85.8987 588.581 85.808 589.189 85.808C589.968 85.808 590.613 85.952 591.125 86.24C591.648 86.528 592.037 86.9547 592.293 87.52C592.549 88.0853 592.677 88.784 592.677 89.616L592.629 94H590.949ZM588.677 94.192C587.717 94.192 586.971 93.9787 586.437 93.552C585.915 93.1253 585.653 92.5227 585.653 91.744C585.653 90.912 585.931 90.2773 586.485 89.84C587.051 89.4027 587.835 89.184 588.837 89.184H590.981V90.56H589.413C588.699 90.56 588.197 90.6613 587.909 90.864C587.621 91.056 587.477 91.3333 587.477 91.696C587.477 92.0053 587.6 92.2507 587.845 92.432C588.101 92.6027 588.453 92.688 588.901 92.688C589.296 92.688 589.637 92.5973 589.925 92.416C590.224 92.224 590.453 91.9787 590.613 91.68C590.784 91.3707 590.869 91.04 590.869 90.688H591.525C591.525 91.776 591.291 92.6347 590.821 93.264C590.363 93.8827 589.648 94.192 588.677 94.192ZM595.676 89.744C595.676 88.88 595.841 88.1707 596.172 87.616C596.503 87.0613 596.929 86.6507 597.452 86.384C597.985 86.1067 598.54 85.968 599.116 85.968V87.68C598.625 87.68 598.161 87.7493 597.724 87.888C597.297 88.016 596.951 88.2293 596.684 88.528C596.417 88.8267 596.284 89.2213 596.284 89.712L595.676 89.744ZM594.492 94V86H596.284V94H594.492ZM603.873 94.192C603.094 94.192 602.401 94.016 601.793 93.664C601.195 93.3013 600.721 92.8053 600.368 92.176C600.027 91.5467 599.857 90.8213 599.857 90C599.857 89.1787 600.033 88.4533 600.385 87.824C600.737 87.1947 601.217 86.704 601.825 86.352C602.443 85.9893 603.147 85.808 603.937 85.808C604.651 85.808 605.291 85.9947 605.857 86.368C606.433 86.7307 606.891 87.2587 607.233 87.952C607.574 88.6453 607.745 89.472 607.745 90.432H605.937C605.937 89.7387 605.851 89.168 605.681 88.72C605.521 88.272 605.286 87.9413 604.977 87.728C604.678 87.504 604.31 87.392 603.873 87.392C603.414 87.392 603.019 87.4933 602.689 87.696C602.358 87.8987 602.107 88.1973 601.937 88.592C601.766 88.976 601.681 89.4613 601.681 90.048C601.681 90.5707 601.782 91.0187 601.985 91.392C602.198 91.7653 602.481 92.0533 602.833 92.256C603.195 92.448 603.595 92.544 604.033 92.544C604.513 92.544 604.907 92.4373 605.217 92.224C605.526 92 605.766 91.7173 605.937 91.376L607.585 92.08C607.361 92.5067 607.073 92.88 606.721 93.2C606.379 93.52 605.969 93.7653 605.489 93.936C605.019 94.1067 604.481 94.192 603.873 94.192ZM601.041 90.432V89.008H606.801V90.432H601.041ZM616.08 94.224C615.43 94.224 614.854 94.096 614.352 93.84C613.851 93.584 613.456 93.232 613.168 92.784C612.88 92.336 612.736 91.824 612.736 91.248C612.736 90.8213 612.816 90.432 612.976 90.08C613.147 89.7173 613.371 89.3867 613.648 89.088C613.926 88.7893 614.24 88.5227 614.592 88.288L616.432 87.024C616.646 86.8747 616.864 86.7147 617.088 86.544C617.312 86.3733 617.504 86.176 617.664 85.952C617.835 85.728 617.92 85.472 617.92 85.184C617.92 84.832 617.792 84.5547 617.536 84.352C617.291 84.1493 616.976 84.048 616.592 84.048C616.251 84.048 615.958 84.1547 615.712 84.368C615.478 84.5813 615.36 84.848 615.36 85.168C615.36 85.456 615.451 85.712 615.632 85.936C615.814 86.16 616.027 86.4267 616.272 86.736L618.336 89.216L622.288 94H620.16L616.992 90.208L614.88 87.648C614.603 87.296 614.368 86.9867 614.176 86.72C613.984 86.4427 613.84 86.1813 613.744 85.936C613.659 85.68 613.616 85.4187 613.616 85.152C613.616 84.6613 613.744 84.224 614 83.84C614.267 83.4453 614.619 83.136 615.056 82.912C615.494 82.688 615.984 82.576 616.528 82.576C617.126 82.576 617.654 82.688 618.112 82.912C618.582 83.136 618.95 83.4453 619.216 83.84C619.483 84.2347 619.616 84.6933 619.616 85.216C619.616 85.6427 619.504 86.0427 619.28 86.416C619.056 86.7893 618.736 87.152 618.32 87.504C617.915 87.856 617.435 88.2293 616.88 88.624L615.728 89.408C615.526 89.5467 615.339 89.7013 615.168 89.872C614.998 90.0427 614.859 90.2347 614.752 90.448C614.646 90.6613 614.592 90.9173 614.592 91.216C614.592 91.6427 614.736 91.9947 615.024 92.272C615.323 92.5387 615.707 92.672 616.176 92.672C616.667 92.672 617.136 92.592 617.584 92.432C618.043 92.272 618.448 92.0427 618.8 91.744C619.163 91.4347 619.446 91.0613 619.648 90.624C619.851 90.1867 619.952 89.6907 619.952 89.136H621.664C621.664 90.1173 621.424 90.992 620.944 91.76C620.464 92.528 619.803 93.1307 618.96 93.568C618.128 94.0053 617.168 94.224 616.08 94.224ZM627.26 97.2V86H628.94L629.052 87.472V97.2H627.26ZM631.58 94.192C630.908 94.192 630.326 94.0213 629.836 93.68C629.356 93.328 628.988 92.8373 628.732 92.208C628.476 91.5787 628.348 90.8427 628.348 90C628.348 89.1467 628.476 88.4107 628.732 87.792C628.988 87.1627 629.356 86.6773 629.836 86.336C630.326 85.984 630.908 85.808 631.58 85.808C632.305 85.808 632.934 85.984 633.468 86.336C634.012 86.6773 634.433 87.1627 634.732 87.792C635.041 88.4107 635.196 89.1467 635.196 90C635.196 90.8427 635.041 91.5787 634.732 92.208C634.433 92.8373 634.012 93.328 633.468 93.68C632.934 94.0213 632.305 94.192 631.58 94.192ZM631.132 92.56C631.558 92.56 631.937 92.4533 632.268 92.24C632.598 92.016 632.86 91.712 633.052 91.328C633.254 90.944 633.356 90.5013 633.356 90C633.356 89.4987 633.26 89.056 633.068 88.672C632.886 88.288 632.63 87.9893 632.3 87.776C631.969 87.5627 631.585 87.456 631.148 87.456C630.742 87.456 630.38 87.5627 630.06 87.776C629.74 87.9893 629.489 88.288 629.308 88.672C629.137 89.056 629.052 89.4987 629.052 90C629.052 90.5013 629.137 90.944 629.308 91.328C629.489 91.712 629.734 92.016 630.044 92.24C630.364 92.4533 630.726 92.56 631.132 92.56ZM642.086 94L641.99 92.528V86H643.766V94H642.086ZM636.55 90.576V86H638.342V90.096L636.55 90.576ZM638.342 90.096C638.342 90.7253 638.417 91.216 638.566 91.568C638.716 91.92 638.918 92.1653 639.174 92.304C639.441 92.4427 639.745 92.512 640.086 92.512C640.694 92.5227 641.164 92.3253 641.494 91.92C641.825 91.5147 641.99 90.9333 641.99 90.176H642.662C642.662 91.0187 642.534 91.744 642.278 92.352C642.033 92.9493 641.681 93.408 641.222 93.728C640.774 94.0373 640.236 94.192 639.606 94.192C638.636 94.192 637.884 93.8933 637.35 93.296C636.817 92.6987 636.55 91.792 636.55 90.576L638.342 90.096ZM645.758 94V82.8H647.55V94H645.758ZM649.539 94V82.8H651.331V94H649.539ZM658.364 89.744C658.364 88.88 658.529 88.1707 658.86 87.616C659.19 87.0613 659.617 86.6507 660.14 86.384C660.673 86.1067 661.228 85.968 661.804 85.968V87.68C661.313 87.68 660.849 87.7493 660.411 87.888C659.985 88.016 659.638 88.2293 659.372 88.528C659.105 88.8267 658.972 89.2213 658.972 89.712L658.364 89.744ZM657.18 94V86H658.972V94H657.18ZM666.56 94.192C665.781 94.192 665.088 94.016 664.48 93.664C663.883 93.3013 663.408 92.8053 663.056 92.176C662.715 91.5467 662.544 90.8213 662.544 90C662.544 89.1787 662.72 88.4533 663.072 87.824C663.424 87.1947 663.904 86.704 664.512 86.352C665.131 85.9893 665.835 85.808 666.624 85.808C667.339 85.808 667.979 85.9947 668.544 86.368C669.12 86.7307 669.579 87.2587 669.92 87.952C670.261 88.6453 670.432 89.472 670.432 90.432H668.624C668.624 89.7387 668.539 89.168 668.368 88.72C668.208 88.272 667.973 87.9413 667.664 87.728C667.365 87.504 666.997 87.392 666.56 87.392C666.101 87.392 665.707 87.4933 665.376 87.696C665.045 87.8987 664.795 88.1973 664.624 88.592C664.453 88.976 664.368 89.4613 664.368 90.048C664.368 90.5707 664.469 91.0187 664.672 91.392C664.885 91.7653 665.168 92.0533 665.52 92.256C665.883 92.448 666.283 92.544 666.72 92.544C667.2 92.544 667.595 92.4373 667.904 92.224C668.213 92 668.453 91.7173 668.624 91.376L670.272 92.08C670.048 92.5067 669.76 92.88 669.408 93.2C669.067 93.52 668.656 93.7653 668.176 93.936C667.707 94.1067 667.168 94.192 666.56 94.192ZM663.728 90.432V89.008H669.488V90.432H663.728ZM677.501 97.2V87.488L677.597 86H679.293V97.2H677.501ZM674.973 94.192C674.247 94.192 673.613 94.0213 673.069 93.68C672.535 93.328 672.114 92.8373 671.805 92.208C671.506 91.5787 671.357 90.8427 671.357 90C671.357 89.1467 671.506 88.4107 671.805 87.792C672.114 87.1627 672.535 86.6773 673.069 86.336C673.613 85.984 674.247 85.808 674.973 85.808C675.645 85.808 676.221 85.984 676.701 86.336C677.191 86.6773 677.565 87.1627 677.821 87.792C678.077 88.4107 678.205 89.1467 678.205 90C678.205 90.8427 678.077 91.5787 677.821 92.208C677.565 92.8373 677.191 93.328 676.701 93.68C676.221 94.0213 675.645 94.192 674.973 94.192ZM675.421 92.56C675.826 92.56 676.183 92.4533 676.493 92.24C676.813 92.016 677.058 91.712 677.229 91.328C677.41 90.944 677.501 90.5013 677.501 90C677.501 89.4987 677.41 89.056 677.229 88.672C677.058 88.288 676.813 87.9893 676.493 87.776C676.183 87.5627 675.821 87.456 675.405 87.456C674.978 87.456 674.599 87.5627 674.269 87.776C673.938 87.9893 673.677 88.288 673.485 88.672C673.303 89.056 673.207 89.4987 673.197 90C673.207 90.5013 673.303 90.944 673.485 91.328C673.677 91.712 673.938 92.016 674.269 92.24C674.61 92.4533 674.994 92.56 675.421 92.56ZM686.54 94L686.444 92.528V86H688.22V94H686.54ZM681.004 90.576V86H682.796V90.096L681.004 90.576ZM682.796 90.096C682.796 90.7253 682.87 91.216 683.02 91.568C683.169 91.92 683.372 92.1653 683.628 92.304C683.894 92.4427 684.198 92.512 684.54 92.512C685.148 92.5227 685.617 92.3253 685.948 91.92C686.278 91.5147 686.444 90.9333 686.444 90.176H687.116C687.116 91.0187 686.988 91.744 686.732 92.352C686.486 92.9493 686.134 93.408 685.676 93.728C685.228 94.0373 684.689 94.192 684.06 94.192C683.089 94.192 682.337 93.8933 681.804 93.296C681.27 92.6987 681.004 91.792 681.004 90.576L682.796 90.096ZM693.779 94.192C693 94.192 692.307 94.016 691.699 93.664C691.101 93.3013 690.627 92.8053 690.275 92.176C689.933 91.5467 689.763 90.8213 689.763 90C689.763 89.1787 689.939 88.4533 690.291 87.824C690.643 87.1947 691.123 86.704 691.731 86.352C692.349 85.9893 693.053 85.808 693.843 85.808C694.557 85.808 695.197 85.9947 695.763 86.368C696.339 86.7307 696.797 87.2587 697.139 87.952C697.48 88.6453 697.651 89.472 697.651 90.432H695.843C695.843 89.7387 695.757 89.168 695.587 88.72C695.427 88.272 695.192 87.9413 694.883 87.728C694.584 87.504 694.216 87.392 693.779 87.392C693.32 87.392 692.925 87.4933 692.595 87.696C692.264 87.8987 692.013 88.1973 691.843 88.592C691.672 88.976 691.587 89.4613 691.587 90.048C691.587 90.5707 691.688 91.0187 691.891 91.392C692.104 91.7653 692.387 92.0533 692.739 92.256C693.101 92.448 693.501 92.544 693.939 92.544C694.419 92.544 694.813 92.4373 695.123 92.224C695.432 92 695.672 91.7173 695.843 91.376L697.491 92.08C697.267 92.5067 696.979 92.88 696.627 93.2C696.285 93.52 695.875 93.7653 695.395 93.936C694.925 94.1067 694.387 94.192 693.779 94.192ZM690.947 90.432V89.008H696.707V90.432H690.947ZM701.935 94.192C701.402 94.192 700.911 94.112 700.463 93.952C700.015 93.792 699.631 93.568 699.311 93.28C698.991 92.9813 698.746 92.6347 698.575 92.24L700.127 91.552C700.287 91.8507 700.522 92.1013 700.831 92.304C701.151 92.5067 701.503 92.608 701.887 92.608C702.303 92.608 702.634 92.5387 702.879 92.4C703.135 92.2507 703.263 92.048 703.263 91.792C703.263 91.5467 703.167 91.36 702.975 91.232C702.783 91.0933 702.511 90.9813 702.159 90.896L701.407 90.688C700.65 90.496 700.058 90.192 699.631 89.776C699.205 89.3493 698.991 88.864 698.991 88.32C698.991 87.52 699.247 86.9013 699.759 86.464C700.282 86.0267 701.029 85.808 701.999 85.808C702.49 85.808 702.938 85.8827 703.343 86.032C703.759 86.1707 704.117 86.3733 704.415 86.64C704.714 86.896 704.922 87.2 705.039 87.552L703.551 88.224C703.445 87.9573 703.242 87.7547 702.943 87.616C702.645 87.4667 702.314 87.392 701.951 87.392C701.589 87.392 701.306 87.472 701.103 87.632C700.901 87.7813 700.799 87.9947 700.799 88.272C700.799 88.432 700.89 88.5813 701.071 88.72C701.253 88.848 701.514 88.9547 701.855 89.04L702.799 89.264C703.322 89.392 703.749 89.5947 704.079 89.872C704.41 90.1387 704.655 90.4427 704.815 90.784C704.975 91.1147 705.055 91.4507 705.055 91.792C705.055 92.272 704.917 92.6933 704.639 93.056C704.373 93.4187 704.005 93.7013 703.535 93.904C703.066 94.096 702.533 94.192 701.935 94.192ZM709.66 94.192C708.818 94.192 708.172 93.984 707.724 93.568C707.287 93.1413 707.068 92.5333 707.068 91.744V83.504H708.844V91.408C708.844 91.7813 708.93 92.064 709.1 92.256C709.282 92.448 709.543 92.544 709.884 92.544C709.991 92.544 710.108 92.5227 710.236 92.48C710.364 92.4373 710.508 92.3573 710.668 92.24L711.324 93.6C711.047 93.792 710.77 93.936 710.492 94.032C710.215 94.1387 709.938 94.192 709.66 94.192ZM705.74 87.536V86H711.004V87.536H705.74Z" fill="#E6FFEE"/>
</svg>
