<svg width="560" height="440" viewBox="0 0 560 440" fill="none" xmlns="http://www.w3.org/2000/svg">
<g clip-path="url(#clip0_12203_6327)">
<rect x="100" width="360" height="440" fill="white"/>
<rect x="99.5" y="-0.5" width="361" height="441" stroke="#21333F" stroke-opacity="0.2"/>
<path d="M145.008 46.192C144.421 46.192 143.883 46.1227 143.392 45.984C142.912 45.8453 142.485 45.6533 142.112 45.408C141.749 45.1627 141.445 44.8907 141.2 44.592C140.965 44.2827 140.8 43.9627 140.704 43.632L142.528 43.072C142.667 43.4667 142.939 43.8133 143.344 44.112C143.749 44.4107 144.251 44.5653 144.848 44.576C145.541 44.576 146.091 44.432 146.496 44.144C146.901 43.856 147.104 43.4773 147.104 43.008C147.104 42.5813 146.933 42.2347 146.592 41.968C146.251 41.6907 145.792 41.4773 145.216 41.328L143.84 40.976C143.317 40.8373 142.843 40.6347 142.416 40.368C142 40.1013 141.669 39.7653 141.424 39.36C141.189 38.9547 141.072 38.4747 141.072 37.92C141.072 36.8747 141.413 36.064 142.096 35.488C142.779 34.9013 143.755 34.608 145.024 34.608C145.739 34.608 146.363 34.72 146.896 34.944C147.44 35.1573 147.888 35.456 148.24 35.84C148.592 36.2133 148.853 36.64 149.024 37.12L147.232 37.696C147.072 37.2693 146.795 36.9173 146.4 36.64C146.005 36.3627 145.515 36.224 144.928 36.224C144.32 36.224 143.84 36.368 143.488 36.656C143.147 36.944 142.976 37.344 142.976 37.856C142.976 38.272 143.109 38.5973 143.376 38.832C143.653 39.056 144.027 39.2267 144.496 39.344L145.872 39.68C146.875 39.9253 147.653 40.3467 148.208 40.944C148.763 41.5413 149.04 42.2027 149.04 42.928C149.04 43.568 148.885 44.1333 148.576 44.624C148.267 45.1147 147.808 45.4987 147.2 45.776C146.603 46.0533 145.872 46.192 145.008 46.192ZM153.942 46.192C153.099 46.192 152.454 45.984 152.006 45.568C151.568 45.1413 151.35 44.5333 151.35 43.744V35.504H153.126V43.408C153.126 43.7813 153.211 44.064 153.382 44.256C153.563 44.448 153.824 44.544 154.166 44.544C154.272 44.544 154.39 44.5227 154.518 44.48C154.646 44.4373 154.79 44.3573 154.95 44.24L155.606 45.6C155.328 45.792 155.051 45.936 154.774 46.032C154.496 46.1387 154.219 46.192 153.942 46.192ZM150.022 39.536V38H155.286V39.536H150.022ZM161.778 46L161.698 44.496V41.888C161.698 41.344 161.639 40.8907 161.522 40.528C161.404 40.1653 161.218 39.888 160.962 39.696C160.716 39.504 160.391 39.408 159.986 39.408C159.612 39.408 159.282 39.488 158.994 39.648C158.706 39.808 158.466 40.0533 158.274 40.384L156.642 39.808C156.823 39.456 157.058 39.1253 157.346 38.816C157.634 38.5067 157.996 38.2613 158.434 38.08C158.882 37.8987 159.41 37.808 160.018 37.808C160.796 37.808 161.442 37.952 161.954 38.24C162.476 38.528 162.866 38.9547 163.122 39.52C163.378 40.0853 163.506 40.784 163.506 41.616L163.458 46H161.778ZM159.506 46.192C158.546 46.192 157.799 45.9787 157.266 45.552C156.743 45.1253 156.482 44.5227 156.482 43.744C156.482 42.912 156.759 42.2773 157.314 41.84C157.879 41.4027 158.663 41.184 159.666 41.184H161.81V42.56H160.242C159.527 42.56 159.026 42.6613 158.738 42.864C158.45 43.056 158.306 43.3333 158.306 43.696C158.306 44.0053 158.428 44.2507 158.674 44.432C158.93 44.6027 159.282 44.688 159.73 44.688C160.124 44.688 160.466 44.5973 160.754 44.416C161.052 44.224 161.282 43.9787 161.442 43.68C161.612 43.3707 161.698 43.04 161.698 42.688H162.354C162.354 43.776 162.119 44.6347 161.65 45.264C161.191 45.8827 160.476 46.192 159.506 46.192ZM168.76 49.408C168.195 49.408 167.683 49.36 167.224 49.264C166.776 49.168 166.397 49.056 166.088 48.928C165.779 48.8 165.539 48.6773 165.368 48.56L166.056 47.12C166.205 47.1947 166.403 47.2853 166.648 47.392C166.904 47.5093 167.203 47.6107 167.544 47.696C167.885 47.7813 168.269 47.824 168.696 47.824C169.155 47.824 169.565 47.728 169.928 47.536C170.291 47.3547 170.573 47.072 170.776 46.688C170.979 46.304 171.08 45.8133 171.08 45.216V38H172.872V45.168C172.872 46.0747 172.701 46.8427 172.36 47.472C172.019 48.112 171.539 48.592 170.92 48.912C170.301 49.2427 169.581 49.408 168.76 49.408ZM168.488 45.84C167.763 45.84 167.128 45.6747 166.584 45.344C166.051 45.0133 165.629 44.5547 165.32 43.968C165.021 43.3707 164.872 42.6827 164.872 41.904C164.872 41.072 165.021 40.352 165.32 39.744C165.629 39.136 166.051 38.6613 166.584 38.32C167.128 37.9787 167.763 37.808 168.488 37.808C169.139 37.808 169.704 37.9787 170.184 38.32C170.675 38.6613 171.053 39.1413 171.32 39.76C171.587 40.368 171.72 41.088 171.72 41.92C171.72 42.7093 171.587 43.3973 171.32 43.984C171.053 44.5707 170.675 45.0293 170.184 45.36C169.704 45.68 169.139 45.84 168.488 45.84ZM168.984 44.32C169.389 44.32 169.741 44.2133 170.04 44C170.349 43.7867 170.589 43.4987 170.76 43.136C170.931 42.7627 171.016 42.336 171.016 41.856C171.016 41.3653 170.931 40.9387 170.76 40.576C170.589 40.2027 170.349 39.9147 170.04 39.712C169.731 39.4987 169.373 39.392 168.968 39.392C168.541 39.392 168.163 39.4987 167.832 39.712C167.512 39.9147 167.256 40.2027 167.064 40.576C166.883 40.9387 166.792 41.3653 166.792 41.856C166.792 42.336 166.883 42.7627 167.064 43.136C167.256 43.4987 167.517 43.7867 167.848 44C168.179 44.2133 168.557 44.32 168.984 44.32ZM178.419 46.192C177.641 46.192 176.947 46.016 176.339 45.664C175.742 45.3013 175.267 44.8053 174.915 44.176C174.574 43.5467 174.403 42.8213 174.403 42C174.403 41.1787 174.579 40.4533 174.931 39.824C175.283 39.1947 175.763 38.704 176.371 38.352C176.99 37.9893 177.694 37.808 178.483 37.808C179.198 37.808 179.838 37.9947 180.403 38.368C180.979 38.7307 181.438 39.2587 181.779 39.952C182.121 40.6453 182.291 41.472 182.291 42.432H180.483C180.483 41.7387 180.398 41.168 180.227 40.72C180.067 40.272 179.833 39.9413 179.523 39.728C179.225 39.504 178.857 39.392 178.419 39.392C177.961 39.392 177.566 39.4933 177.235 39.696C176.905 39.8987 176.654 40.1973 176.483 40.592C176.313 40.976 176.227 41.4613 176.227 42.048C176.227 42.5707 176.329 43.0187 176.531 43.392C176.745 43.7653 177.027 44.0533 177.379 44.256C177.742 44.448 178.142 44.544 178.579 44.544C179.059 44.544 179.454 44.4373 179.763 44.224C180.073 44 180.313 43.7173 180.483 43.376L182.131 44.08C181.907 44.5067 181.619 44.88 181.267 45.2C180.926 45.52 180.515 45.7653 180.035 45.936C179.566 46.1067 179.027 46.192 178.419 46.192ZM175.587 42.432V41.008H181.347V42.432H175.587ZM189.44 46L189.36 44.512V34.8H191.136V46H189.44ZM186.832 46.192C186.107 46.192 185.472 46.0213 184.928 45.68C184.395 45.328 183.973 44.8373 183.664 44.208C183.365 43.5787 183.216 42.8427 183.216 42C183.216 41.1467 183.365 40.4107 183.664 39.792C183.973 39.1627 184.395 38.6773 184.928 38.336C185.472 37.984 186.107 37.808 186.832 37.808C187.504 37.808 188.08 37.984 188.56 38.336C189.051 38.6773 189.424 39.1627 189.68 39.792C189.936 40.4107 190.064 41.1467 190.064 42C190.064 42.8427 189.936 43.5787 189.68 44.208C189.424 44.8373 189.051 45.328 188.56 45.68C188.08 46.0213 187.504 46.192 186.832 46.192ZM187.28 44.56C187.685 44.56 188.043 44.4533 188.352 44.24C188.672 44.016 188.917 43.712 189.088 43.328C189.269 42.944 189.36 42.5013 189.36 42C189.36 41.4987 189.269 41.056 189.088 40.672C188.917 40.288 188.672 39.9893 188.352 39.776C188.043 39.5627 187.68 39.456 187.264 39.456C186.837 39.456 186.459 39.5627 186.128 39.776C185.797 39.9893 185.536 40.288 185.344 40.672C185.163 41.056 185.067 41.4987 185.056 42C185.067 42.5013 185.163 42.944 185.344 43.328C185.536 43.712 185.797 44.016 186.128 44.24C186.469 44.4533 186.853 44.56 187.28 44.56Z" fill="#21333F"/>
<path d="M385.694 45.168C384.928 45.168 384.247 44.9533 383.65 44.524C383.052 44.0853 382.581 43.488 382.236 42.732C381.9 41.9667 381.732 41.0893 381.732 40.1C381.732 39.1107 381.9 38.238 382.236 37.482C382.581 36.7167 383.048 36.1193 383.636 35.69C384.233 35.2513 384.919 35.032 385.694 35.032C386.468 35.032 387.154 35.2513 387.752 35.69C388.349 36.1193 388.816 36.7167 389.152 37.482C389.497 38.238 389.67 39.1107 389.67 40.1C389.67 41.0893 389.497 41.9667 389.152 42.732C388.816 43.488 388.349 44.0853 387.752 44.524C387.164 44.9533 386.478 45.168 385.694 45.168ZM385.708 43.698C386.165 43.698 386.571 43.544 386.926 43.236C387.29 42.928 387.57 42.5033 387.766 41.962C387.971 41.4207 388.074 40.8 388.074 40.1C388.074 39.4 387.971 38.7793 387.766 38.238C387.57 37.6873 387.29 37.258 386.926 36.95C386.571 36.642 386.16 36.488 385.694 36.488C385.227 36.488 384.816 36.642 384.462 36.95C384.107 37.258 383.827 37.6827 383.622 38.224C383.426 38.7653 383.328 39.3907 383.328 40.1C383.328 40.8 383.426 41.4207 383.622 41.962C383.827 42.5033 384.107 42.928 384.462 43.236C384.826 43.544 385.241 43.698 385.708 43.698ZM395.154 45V37.258C395.154 36.5207 395.336 35.956 395.7 35.564C396.073 35.1627 396.633 34.962 397.38 34.962C397.623 34.962 397.879 35.004 398.15 35.088C398.43 35.1627 398.696 35.2653 398.948 35.396L398.374 36.558C398.197 36.474 398.038 36.4133 397.898 36.376C397.767 36.3387 397.651 36.32 397.548 36.32C397.268 36.32 397.058 36.4133 396.918 36.6C396.787 36.7773 396.722 37.0713 396.722 37.482V45H395.154ZM393.95 39.288V38H398.556V39.288H393.95ZM399.925 45L399.939 38H401.493L401.479 45H399.925ZM400.709 36.67C400.457 36.67 400.238 36.5813 400.051 36.404C399.874 36.2173 399.785 35.998 399.785 35.746C399.785 35.494 399.874 35.2793 400.051 35.102C400.238 34.9247 400.457 34.836 400.709 34.836C400.961 34.836 401.176 34.9247 401.353 35.102C401.54 35.2793 401.633 35.494 401.633 35.746C401.633 35.998 401.54 36.2173 401.353 36.404C401.176 36.5813 400.961 36.67 400.709 36.67ZM403.327 45V35.2H404.895V45H403.327ZM409.758 45.168C409.076 45.168 408.47 45.014 407.938 44.706C407.415 44.3887 407 43.9547 406.692 43.404C406.393 42.8533 406.244 42.2187 406.244 41.5C406.244 40.7813 406.398 40.1467 406.706 39.596C407.014 39.0453 407.434 38.616 407.966 38.308C408.507 37.9907 409.123 37.832 409.814 37.832C410.439 37.832 410.999 37.9953 411.494 38.322C411.998 38.6393 412.399 39.1013 412.698 39.708C412.996 40.3147 413.146 41.038 413.146 41.878H411.564C411.564 41.2713 411.489 40.772 411.34 40.38C411.2 39.988 410.994 39.6987 410.724 39.512C410.462 39.316 410.14 39.218 409.758 39.218C409.356 39.218 409.011 39.3067 408.722 39.484C408.432 39.6613 408.213 39.9227 408.064 40.268C407.914 40.604 407.84 41.0287 407.84 41.542C407.84 41.9993 407.928 42.3913 408.106 42.718C408.292 43.0447 408.54 43.2967 408.848 43.474C409.165 43.642 409.515 43.726 409.898 43.726C410.318 43.726 410.663 43.6327 410.934 43.446C411.204 43.25 411.414 43.0027 411.564 42.704L413.006 43.32C412.81 43.6933 412.558 44.02 412.25 44.3C411.951 44.58 411.592 44.7947 411.172 44.944C410.761 45.0933 410.29 45.168 409.758 45.168ZM407.28 41.878V40.632H412.32V41.878H407.28ZM416.895 45.168C416.428 45.168 415.999 45.098 415.607 44.958C415.215 44.818 414.879 44.622 414.599 44.37C414.319 44.1087 414.104 43.8053 413.955 43.46L415.313 42.858C415.453 43.1193 415.658 43.3387 415.929 43.516C416.209 43.6933 416.517 43.782 416.853 43.782C417.217 43.782 417.506 43.7213 417.721 43.6C417.945 43.4693 418.057 43.292 418.057 43.068C418.057 42.8533 417.973 42.69 417.805 42.578C417.637 42.4567 417.399 42.3587 417.091 42.284L416.433 42.102C415.77 41.934 415.252 41.668 414.879 41.304C414.505 40.9307 414.319 40.506 414.319 40.03C414.319 39.33 414.543 38.7887 414.991 38.406C415.448 38.0233 416.101 37.832 416.951 37.832C417.38 37.832 417.772 37.8973 418.127 38.028C418.491 38.1493 418.803 38.3267 419.065 38.56C419.326 38.784 419.508 39.05 419.611 39.358L418.309 39.946C418.215 39.7127 418.038 39.5353 417.777 39.414C417.515 39.2833 417.226 39.218 416.909 39.218C416.591 39.218 416.344 39.288 416.167 39.428C415.989 39.5587 415.901 39.7453 415.901 39.988C415.901 40.128 415.98 40.2587 416.139 40.38C416.297 40.492 416.526 40.5853 416.825 40.66L417.651 40.856C418.108 40.968 418.481 41.1453 418.771 41.388C419.06 41.6213 419.275 41.8873 419.415 42.186C419.555 42.4753 419.625 42.7693 419.625 43.068C419.625 43.488 419.503 43.8567 419.261 44.174C419.027 44.4913 418.705 44.7387 418.295 44.916C417.884 45.084 417.417 45.168 416.895 45.168Z" fill="#21333F" fill-opacity="0.5"/>
<path d="M145.6 118.224C144.715 118.224 143.936 118.048 143.264 117.696C142.603 117.333 142.085 116.827 141.712 116.176C141.349 115.525 141.168 114.768 141.168 113.904H143.024C143.024 114.427 143.131 114.885 143.344 115.28C143.568 115.664 143.877 115.968 144.272 116.192C144.667 116.405 145.12 116.512 145.632 116.512C146.155 116.512 146.613 116.405 147.008 116.192C147.413 115.968 147.723 115.664 147.936 115.28C148.149 114.885 148.256 114.427 148.256 113.904H150.112C150.112 114.768 149.925 115.525 149.552 116.176C149.189 116.827 148.667 117.333 147.984 117.696C147.312 118.048 146.517 118.224 145.6 118.224ZM141.168 113.904V106.8H143.024V113.904H141.168ZM148.256 113.904V106.8H150.112V113.904H148.256ZM152.273 118V110H153.953L154.065 111.472V118H152.273ZM157.697 118V113.904L159.489 113.424V118H157.697ZM157.697 113.904C157.697 113.264 157.623 112.773 157.473 112.432C157.335 112.08 157.132 111.835 156.865 111.696C156.609 111.557 156.305 111.488 155.953 111.488C155.356 111.477 154.892 111.675 154.561 112.08C154.231 112.485 154.065 113.067 154.065 113.824H153.393C153.393 112.981 153.516 112.261 153.761 111.664C154.007 111.056 154.359 110.597 154.817 110.288C155.276 109.968 155.82 109.808 156.449 109.808C157.42 109.808 158.167 110.107 158.689 110.704C159.223 111.291 159.489 112.197 159.489 113.424L157.697 113.904ZM164.217 118.192C163.683 118.192 163.193 118.112 162.745 117.952C162.297 117.792 161.913 117.568 161.593 117.28C161.273 116.981 161.027 116.635 160.857 116.24L162.409 115.552C162.569 115.851 162.803 116.101 163.113 116.304C163.433 116.507 163.785 116.608 164.169 116.608C164.585 116.608 164.915 116.539 165.161 116.4C165.417 116.251 165.545 116.048 165.545 115.792C165.545 115.547 165.449 115.36 165.257 115.232C165.065 115.093 164.793 114.981 164.441 114.896L163.689 114.688C162.931 114.496 162.339 114.192 161.913 113.776C161.486 113.349 161.273 112.864 161.273 112.32C161.273 111.52 161.529 110.901 162.041 110.464C162.563 110.027 163.31 109.808 164.281 109.808C164.771 109.808 165.219 109.883 165.625 110.032C166.041 110.171 166.398 110.373 166.697 110.64C166.995 110.896 167.203 111.2 167.321 111.552L165.833 112.224C165.726 111.957 165.523 111.755 165.225 111.616C164.926 111.467 164.595 111.392 164.233 111.392C163.87 111.392 163.587 111.472 163.385 111.632C163.182 111.781 163.081 111.995 163.081 112.272C163.081 112.432 163.171 112.581 163.353 112.72C163.534 112.848 163.795 112.955 164.137 113.04L165.081 113.264C165.603 113.392 166.03 113.595 166.361 113.872C166.691 114.139 166.937 114.443 167.097 114.784C167.257 115.115 167.337 115.451 167.337 115.792C167.337 116.272 167.198 116.693 166.921 117.056C166.654 117.419 166.286 117.701 165.817 117.904C165.347 118.096 164.814 118.192 164.217 118.192ZM171.942 118.192C171.099 118.192 170.454 117.984 170.006 117.568C169.568 117.141 169.35 116.533 169.35 115.744V107.504H171.126V115.408C171.126 115.781 171.211 116.064 171.382 116.256C171.563 116.448 171.824 116.544 172.166 116.544C172.272 116.544 172.39 116.523 172.518 116.48C172.646 116.437 172.79 116.357 172.95 116.24L173.606 117.6C173.328 117.792 173.051 117.936 172.774 118.032C172.496 118.139 172.219 118.192 171.942 118.192ZM168.022 111.536V110H173.286V111.536H168.022ZM179.778 118L179.698 116.496V113.888C179.698 113.344 179.639 112.891 179.522 112.528C179.404 112.165 179.218 111.888 178.962 111.696C178.716 111.504 178.391 111.408 177.986 111.408C177.612 111.408 177.282 111.488 176.994 111.648C176.706 111.808 176.466 112.053 176.274 112.384L174.642 111.808C174.823 111.456 175.058 111.125 175.346 110.816C175.634 110.507 175.996 110.261 176.434 110.08C176.882 109.899 177.41 109.808 178.018 109.808C178.796 109.808 179.442 109.952 179.954 110.24C180.476 110.528 180.866 110.955 181.122 111.52C181.378 112.085 181.506 112.784 181.506 113.616L181.458 118H179.778ZM177.506 118.192C176.546 118.192 175.799 117.979 175.266 117.552C174.743 117.125 174.482 116.523 174.482 115.744C174.482 114.912 174.759 114.277 175.314 113.84C175.879 113.403 176.663 113.184 177.666 113.184H179.81V114.56H178.242C177.527 114.56 177.026 114.661 176.738 114.864C176.45 115.056 176.306 115.333 176.306 115.696C176.306 116.005 176.428 116.251 176.674 116.432C176.93 116.603 177.282 116.688 177.73 116.688C178.124 116.688 178.466 116.597 178.754 116.416C179.052 116.224 179.282 115.979 179.442 115.68C179.612 115.371 179.698 115.04 179.698 114.688H180.354C180.354 115.776 180.119 116.635 179.65 117.264C179.191 117.883 178.476 118.192 177.506 118.192ZM186.76 121.408C186.195 121.408 185.683 121.36 185.224 121.264C184.776 121.168 184.397 121.056 184.088 120.928C183.779 120.8 183.539 120.677 183.368 120.56L184.056 119.12C184.205 119.195 184.403 119.285 184.648 119.392C184.904 119.509 185.203 119.611 185.544 119.696C185.885 119.781 186.269 119.824 186.696 119.824C187.155 119.824 187.565 119.728 187.928 119.536C188.291 119.355 188.573 119.072 188.776 118.688C188.979 118.304 189.08 117.813 189.08 117.216V110H190.872V117.168C190.872 118.075 190.701 118.843 190.36 119.472C190.019 120.112 189.539 120.592 188.92 120.912C188.301 121.243 187.581 121.408 186.76 121.408ZM186.488 117.84C185.763 117.84 185.128 117.675 184.584 117.344C184.051 117.013 183.629 116.555 183.32 115.968C183.021 115.371 182.872 114.683 182.872 113.904C182.872 113.072 183.021 112.352 183.32 111.744C183.629 111.136 184.051 110.661 184.584 110.32C185.128 109.979 185.763 109.808 186.488 109.808C187.139 109.808 187.704 109.979 188.184 110.32C188.675 110.661 189.053 111.141 189.32 111.76C189.587 112.368 189.72 113.088 189.72 113.92C189.72 114.709 189.587 115.397 189.32 115.984C189.053 116.571 188.675 117.029 188.184 117.36C187.704 117.68 187.139 117.84 186.488 117.84ZM186.984 116.32C187.389 116.32 187.741 116.213 188.04 116C188.349 115.787 188.589 115.499 188.76 115.136C188.931 114.763 189.016 114.336 189.016 113.856C189.016 113.365 188.931 112.939 188.76 112.576C188.589 112.203 188.349 111.915 188.04 111.712C187.731 111.499 187.373 111.392 186.968 111.392C186.541 111.392 186.163 111.499 185.832 111.712C185.512 111.915 185.256 112.203 185.064 112.576C184.883 112.939 184.792 113.365 184.792 113.856C184.792 114.336 184.883 114.763 185.064 115.136C185.256 115.499 185.517 115.787 185.848 116C186.179 116.213 186.557 116.32 186.984 116.32ZM196.419 118.192C195.641 118.192 194.947 118.016 194.339 117.664C193.742 117.301 193.267 116.805 192.915 116.176C192.574 115.547 192.403 114.821 192.403 114C192.403 113.179 192.579 112.453 192.931 111.824C193.283 111.195 193.763 110.704 194.371 110.352C194.99 109.989 195.694 109.808 196.483 109.808C197.198 109.808 197.838 109.995 198.403 110.368C198.979 110.731 199.438 111.259 199.779 111.952C200.121 112.645 200.291 113.472 200.291 114.432H198.483C198.483 113.739 198.398 113.168 198.227 112.72C198.067 112.272 197.833 111.941 197.523 111.728C197.225 111.504 196.857 111.392 196.419 111.392C195.961 111.392 195.566 111.493 195.235 111.696C194.905 111.899 194.654 112.197 194.483 112.592C194.313 112.976 194.227 113.461 194.227 114.048C194.227 114.571 194.329 115.019 194.531 115.392C194.745 115.765 195.027 116.053 195.379 116.256C195.742 116.448 196.142 116.544 196.579 116.544C197.059 116.544 197.454 116.437 197.763 116.224C198.073 116 198.313 115.717 198.483 115.376L200.131 116.08C199.907 116.507 199.619 116.88 199.267 117.2C198.926 117.52 198.515 117.765 198.035 117.936C197.566 118.107 197.027 118.192 196.419 118.192ZM193.587 114.432V113.008H199.347V114.432H193.587ZM207.44 118L207.36 116.512V106.8H209.136V118H207.44ZM204.832 118.192C204.107 118.192 203.472 118.021 202.928 117.68C202.395 117.328 201.973 116.837 201.664 116.208C201.365 115.579 201.216 114.843 201.216 114C201.216 113.147 201.365 112.411 201.664 111.792C201.973 111.163 202.395 110.677 202.928 110.336C203.472 109.984 204.107 109.808 204.832 109.808C205.504 109.808 206.08 109.984 206.56 110.336C207.051 110.677 207.424 111.163 207.68 111.792C207.936 112.411 208.064 113.147 208.064 114C208.064 114.843 207.936 115.579 207.68 116.208C207.424 116.837 207.051 117.328 206.56 117.68C206.08 118.021 205.504 118.192 204.832 118.192ZM205.28 116.56C205.685 116.56 206.043 116.453 206.352 116.24C206.672 116.016 206.917 115.712 207.088 115.328C207.269 114.944 207.36 114.501 207.36 114C207.36 113.499 207.269 113.056 207.088 112.672C206.917 112.288 206.672 111.989 206.352 111.776C206.043 111.563 205.68 111.456 205.264 111.456C204.837 111.456 204.459 111.563 204.128 111.776C203.797 111.989 203.536 112.288 203.344 112.672C203.163 113.056 203.067 113.499 203.056 114C203.067 114.501 203.163 114.944 203.344 115.328C203.536 115.712 203.797 116.016 204.128 116.24C204.469 116.453 204.853 116.56 205.28 116.56Z" fill="#21333F"/>
<path d="M336 117.168C335.571 117.168 335.132 117.103 334.684 116.972C334.245 116.832 333.839 116.627 333.466 116.356C333.093 116.076 332.808 115.726 332.612 115.306L334.054 114.774C334.297 115.119 334.581 115.371 334.908 115.53C335.235 115.679 335.571 115.754 335.916 115.754C336.467 115.754 336.915 115.591 337.26 115.264C337.605 114.928 337.778 114.485 337.778 113.934C337.778 113.402 337.61 112.963 337.274 112.618C336.938 112.273 336.499 112.1 335.958 112.1C335.641 112.1 335.342 112.17 335.062 112.31C334.791 112.45 334.581 112.618 334.432 112.814L332.962 112.492L333.508 107.2H338.926V108.67H333.704L333.508 107.256H335.118L334.446 112.618L333.452 112.492C333.564 112.305 333.709 112.119 333.886 111.932C334.073 111.736 334.297 111.554 334.558 111.386C334.819 111.218 335.109 111.083 335.426 110.98C335.743 110.877 336.089 110.831 336.462 110.84C337.022 110.84 337.526 110.971 337.974 111.232C338.422 111.493 338.777 111.853 339.038 112.31C339.299 112.758 339.43 113.276 339.43 113.864C339.43 114.517 339.281 115.091 338.982 115.586C338.693 116.081 338.291 116.468 337.778 116.748C337.265 117.028 336.672 117.168 336 117.168ZM344.951 117V109.258C344.951 108.521 345.133 107.956 345.497 107.564C345.87 107.163 346.43 106.962 347.177 106.962C347.419 106.962 347.676 107.004 347.947 107.088C348.227 107.163 348.493 107.265 348.745 107.396L348.171 108.558C347.993 108.474 347.835 108.413 347.695 108.376C347.564 108.339 347.447 108.32 347.345 108.32C347.065 108.32 346.855 108.413 346.715 108.6C346.584 108.777 346.519 109.071 346.519 109.482V117H344.951ZM343.747 111.288V110H348.353V111.288H343.747ZM349.722 117L349.736 110H351.29L351.276 117H349.722ZM350.506 108.67C350.254 108.67 350.035 108.581 349.848 108.404C349.671 108.217 349.582 107.998 349.582 107.746C349.582 107.494 349.671 107.279 349.848 107.102C350.035 106.925 350.254 106.836 350.506 106.836C350.758 106.836 350.973 106.925 351.15 107.102C351.337 107.279 351.43 107.494 351.43 107.746C351.43 107.998 351.337 108.217 351.15 108.404C350.973 108.581 350.758 108.67 350.506 108.67ZM353.124 117V107.2H354.692V117H353.124ZM359.554 117.168C358.873 117.168 358.266 117.014 357.734 116.706C357.212 116.389 356.796 115.955 356.488 115.404C356.19 114.853 356.04 114.219 356.04 113.5C356.04 112.781 356.194 112.147 356.502 111.596C356.81 111.045 357.23 110.616 357.762 110.308C358.304 109.991 358.92 109.832 359.61 109.832C360.236 109.832 360.796 109.995 361.29 110.322C361.794 110.639 362.196 111.101 362.494 111.708C362.793 112.315 362.942 113.038 362.942 113.878H361.36C361.36 113.271 361.286 112.772 361.136 112.38C360.996 111.988 360.791 111.699 360.52 111.512C360.259 111.316 359.937 111.218 359.554 111.218C359.153 111.218 358.808 111.307 358.518 111.484C358.229 111.661 358.01 111.923 357.86 112.268C357.711 112.604 357.636 113.029 357.636 113.542C357.636 113.999 357.725 114.391 357.902 114.718C358.089 115.045 358.336 115.297 358.644 115.474C358.962 115.642 359.312 115.726 359.694 115.726C360.114 115.726 360.46 115.633 360.73 115.446C361.001 115.25 361.211 115.003 361.36 114.704L362.802 115.32C362.606 115.693 362.354 116.02 362.046 116.3C361.748 116.58 361.388 116.795 360.968 116.944C360.558 117.093 360.086 117.168 359.554 117.168ZM357.076 113.878V112.632H362.116V113.878H357.076ZM370.796 117.168C370.078 117.168 369.443 117.014 368.892 116.706C368.342 116.389 367.908 115.955 367.59 115.404C367.282 114.853 367.128 114.219 367.128 113.5C367.128 112.781 367.282 112.147 367.59 111.596C367.908 111.045 368.337 110.616 368.878 110.308C369.429 109.991 370.059 109.832 370.768 109.832C371.459 109.832 372.084 110 372.644 110.336C373.204 110.663 373.62 111.134 373.89 111.75L372.434 112.31C372.285 112.002 372.056 111.755 371.748 111.568C371.44 111.381 371.09 111.288 370.698 111.288C370.316 111.288 369.975 111.386 369.676 111.582C369.378 111.769 369.144 112.03 368.976 112.366C368.808 112.693 368.724 113.071 368.724 113.5C368.724 113.929 368.808 114.312 368.976 114.648C369.154 114.975 369.392 115.236 369.69 115.432C369.998 115.619 370.344 115.712 370.726 115.712C371.118 115.712 371.468 115.614 371.776 115.418C372.084 115.213 372.313 114.937 372.462 114.592L373.918 115.152C373.648 115.787 373.232 116.281 372.672 116.636C372.122 116.991 371.496 117.168 370.796 117.168ZM375.15 117L375.136 107.074H376.704L376.718 117H375.15ZM379.896 117V113.416L381.464 112.996V117H379.896ZM379.896 113.416C379.896 112.856 379.83 112.427 379.7 112.128C379.569 111.82 379.387 111.605 379.154 111.484C378.93 111.363 378.668 111.302 378.37 111.302C377.838 111.293 377.427 111.465 377.138 111.82C376.858 112.175 376.718 112.683 376.718 113.346H376.116C376.116 112.609 376.223 111.979 376.438 111.456C376.662 110.924 376.974 110.523 377.376 110.252C377.777 109.972 378.253 109.832 378.804 109.832C379.644 109.832 380.297 110.093 380.764 110.616C381.23 111.129 381.464 111.923 381.464 112.996L379.896 113.416ZM387.294 117L387.224 115.684V113.402C387.224 112.926 387.172 112.529 387.07 112.212C386.967 111.895 386.804 111.652 386.58 111.484C386.365 111.316 386.08 111.232 385.726 111.232C385.399 111.232 385.11 111.302 384.858 111.442C384.606 111.582 384.396 111.797 384.228 112.086L382.8 111.582C382.958 111.274 383.164 110.985 383.416 110.714C383.668 110.443 383.985 110.229 384.368 110.07C384.76 109.911 385.222 109.832 385.754 109.832C386.435 109.832 387 109.958 387.448 110.21C387.905 110.462 388.246 110.835 388.47 111.33C388.694 111.825 388.806 112.436 388.806 113.164L388.764 117H387.294ZM385.306 117.168C384.466 117.168 383.812 116.981 383.346 116.608C382.888 116.235 382.66 115.707 382.66 115.026C382.66 114.298 382.902 113.743 383.388 113.36C383.882 112.977 384.568 112.786 385.446 112.786H387.322V113.99H385.95C385.324 113.99 384.886 114.079 384.634 114.256C384.382 114.424 384.256 114.667 384.256 114.984C384.256 115.255 384.363 115.469 384.578 115.628C384.802 115.777 385.11 115.852 385.502 115.852C385.847 115.852 386.146 115.773 386.398 115.614C386.659 115.446 386.86 115.231 387 114.97C387.149 114.699 387.224 114.41 387.224 114.102H387.798C387.798 115.054 387.592 115.805 387.182 116.356C386.78 116.897 386.155 117.168 385.306 117.168ZM390.393 117V110H391.863L391.961 111.288V117H390.393ZM395.139 117V113.416L396.707 112.996V117H395.139ZM395.139 113.416C395.139 112.856 395.074 112.427 394.943 112.128C394.822 111.82 394.645 111.605 394.411 111.484C394.187 111.363 393.921 111.302 393.613 111.302C393.091 111.293 392.685 111.465 392.395 111.82C392.106 112.175 391.961 112.683 391.961 113.346H391.373C391.373 112.609 391.481 111.979 391.695 111.456C391.91 110.924 392.218 110.523 392.619 110.252C393.021 109.972 393.497 109.832 394.047 109.832C394.897 109.832 395.55 110.093 396.007 110.616C396.474 111.129 396.707 111.923 396.707 112.996L395.139 113.416ZM401.306 119.982C400.811 119.982 400.363 119.94 399.962 119.856C399.57 119.772 399.238 119.674 398.968 119.562C398.697 119.45 398.487 119.343 398.338 119.24L398.94 117.98C399.07 118.045 399.243 118.125 399.458 118.218C399.682 118.321 399.943 118.409 400.242 118.484C400.54 118.559 400.876 118.596 401.25 118.596C401.651 118.596 402.01 118.512 402.328 118.344C402.645 118.185 402.892 117.938 403.07 117.602C403.247 117.266 403.336 116.837 403.336 116.314V110H404.904V116.272C404.904 117.065 404.754 117.737 404.456 118.288C404.157 118.848 403.737 119.268 403.196 119.548C402.654 119.837 402.024 119.982 401.306 119.982ZM401.068 116.86C400.433 116.86 399.878 116.715 399.402 116.426C398.935 116.137 398.566 115.735 398.296 115.222C398.034 114.699 397.904 114.097 397.904 113.416C397.904 112.688 398.034 112.058 398.296 111.526C398.566 110.994 398.935 110.579 399.402 110.28C399.878 109.981 400.433 109.832 401.068 109.832C401.637 109.832 402.132 109.981 402.552 110.28C402.981 110.579 403.312 110.999 403.546 111.54C403.779 112.072 403.896 112.702 403.896 113.43C403.896 114.121 403.779 114.723 403.546 115.236C403.312 115.749 402.981 116.151 402.552 116.44C402.132 116.72 401.637 116.86 401.068 116.86ZM401.502 115.53C401.856 115.53 402.164 115.437 402.426 115.25C402.696 115.063 402.906 114.811 403.056 114.494C403.205 114.167 403.28 113.794 403.28 113.374C403.28 112.945 403.205 112.571 403.056 112.254C402.906 111.927 402.696 111.675 402.426 111.498C402.155 111.311 401.842 111.218 401.488 111.218C401.114 111.218 400.783 111.311 400.494 111.498C400.214 111.675 399.99 111.927 399.822 112.254C399.663 112.571 399.584 112.945 399.584 113.374C399.584 113.794 399.663 114.167 399.822 114.494C399.99 114.811 400.218 115.063 400.508 115.25C400.797 115.437 401.128 115.53 401.502 115.53ZM409.758 117.168C409.076 117.168 408.47 117.014 407.938 116.706C407.415 116.389 407 115.955 406.692 115.404C406.393 114.853 406.244 114.219 406.244 113.5C406.244 112.781 406.398 112.147 406.706 111.596C407.014 111.045 407.434 110.616 407.966 110.308C408.507 109.991 409.123 109.832 409.814 109.832C410.439 109.832 410.999 109.995 411.494 110.322C411.998 110.639 412.399 111.101 412.698 111.708C412.996 112.315 413.146 113.038 413.146 113.878H411.564C411.564 113.271 411.489 112.772 411.34 112.38C411.2 111.988 410.994 111.699 410.724 111.512C410.462 111.316 410.14 111.218 409.758 111.218C409.356 111.218 409.011 111.307 408.722 111.484C408.432 111.661 408.213 111.923 408.064 112.268C407.914 112.604 407.84 113.029 407.84 113.542C407.84 113.999 407.928 114.391 408.106 114.718C408.292 115.045 408.54 115.297 408.848 115.474C409.165 115.642 409.515 115.726 409.898 115.726C410.318 115.726 410.663 115.633 410.934 115.446C411.204 115.25 411.414 115.003 411.564 114.704L413.006 115.32C412.81 115.693 412.558 116.02 412.25 116.3C411.951 116.58 411.592 116.795 411.172 116.944C410.761 117.093 410.29 117.168 409.758 117.168ZM407.28 113.878V112.632H412.32V113.878H407.28ZM416.895 117.168C416.428 117.168 415.999 117.098 415.607 116.958C415.215 116.818 414.879 116.622 414.599 116.37C414.319 116.109 414.104 115.805 413.955 115.46L415.313 114.858C415.453 115.119 415.658 115.339 415.929 115.516C416.209 115.693 416.517 115.782 416.853 115.782C417.217 115.782 417.506 115.721 417.721 115.6C417.945 115.469 418.057 115.292 418.057 115.068C418.057 114.853 417.973 114.69 417.805 114.578C417.637 114.457 417.399 114.359 417.091 114.284L416.433 114.102C415.77 113.934 415.252 113.668 414.879 113.304C414.505 112.931 414.319 112.506 414.319 112.03C414.319 111.33 414.543 110.789 414.991 110.406C415.448 110.023 416.101 109.832 416.951 109.832C417.38 109.832 417.772 109.897 418.127 110.028C418.491 110.149 418.803 110.327 419.065 110.56C419.326 110.784 419.508 111.05 419.611 111.358L418.309 111.946C418.215 111.713 418.038 111.535 417.777 111.414C417.515 111.283 417.226 111.218 416.909 111.218C416.591 111.218 416.344 111.288 416.167 111.428C415.989 111.559 415.901 111.745 415.901 111.988C415.901 112.128 415.98 112.259 416.139 112.38C416.297 112.492 416.526 112.585 416.825 112.66L417.651 112.856C418.108 112.968 418.481 113.145 418.771 113.388C419.06 113.621 419.275 113.887 419.415 114.186C419.555 114.475 419.625 114.769 419.625 115.068C419.625 115.488 419.503 115.857 419.261 116.174C419.027 116.491 418.705 116.739 418.295 116.916C417.884 117.084 417.417 117.168 416.895 117.168Z" fill="#006590"/>
<path d="M124 168C124 159.163 131.163 152 140 152H420C428.837 152 436 159.163 436 168V180C436 188.837 428.837 196 420 196H140C131.163 196 124 188.837 124 180V168Z" fill="#F2F8FF"/>
<path fill-rule="evenodd" clip-rule="evenodd" d="M150 168.5H142C141.172 168.5 140.5 169.172 140.5 170V178C140.5 178.828 141.172 179.5 142 179.5H150C150.828 179.5 151.5 178.828 151.5 178V170C151.5 169.172 150.828 168.5 150 168.5ZM142 167C140.343 167 139 168.343 139 170V178C139 179.657 140.343 181 142 181H150C151.657 181 153 179.657 153 178V170C153 168.343 151.657 167 150 167H142Z" fill="#21333F" fill-opacity="0.75"/>
<path d="M171.78 181.968C171.332 181.968 170.921 181.921 170.548 181.828C170.184 181.744 169.871 181.646 169.61 181.534C169.358 181.431 169.176 181.343 169.064 181.268L169.484 180.358C169.605 180.423 169.778 180.503 170.002 180.596C170.226 180.699 170.487 180.783 170.786 180.848C171.094 180.923 171.421 180.96 171.766 180.96C172.214 180.96 172.615 180.867 172.97 180.68C173.334 180.503 173.614 180.218 173.81 179.826C174.015 179.443 174.118 178.949 174.118 178.342V172H175.238V178.328C175.238 179.131 175.089 179.803 174.79 180.344C174.491 180.885 174.081 181.291 173.558 181.562C173.035 181.833 172.443 181.968 171.78 181.968ZM171.738 178.944C171.113 178.944 170.562 178.795 170.086 178.496C169.61 178.197 169.237 177.782 168.966 177.25C168.705 176.709 168.574 176.093 168.574 175.402C168.574 174.693 168.705 174.072 168.966 173.54C169.237 172.999 169.61 172.579 170.086 172.28C170.562 171.981 171.113 171.832 171.738 171.832C172.326 171.832 172.839 171.981 173.278 172.28C173.717 172.579 174.057 172.999 174.3 173.54C174.552 174.072 174.678 174.693 174.678 175.402C174.678 176.102 174.552 176.718 174.3 177.25C174.057 177.782 173.717 178.197 173.278 178.496C172.839 178.795 172.326 178.944 171.738 178.944ZM172.004 177.978C172.415 177.978 172.779 177.866 173.096 177.642C173.413 177.418 173.661 177.115 173.838 176.732C174.015 176.34 174.104 175.887 174.104 175.374C174.104 174.879 174.011 174.441 173.824 174.058C173.647 173.666 173.399 173.363 173.082 173.148C172.774 172.924 172.41 172.812 171.99 172.812C171.551 172.812 171.159 172.924 170.814 173.148C170.478 173.363 170.212 173.666 170.016 174.058C169.829 174.441 169.736 174.879 169.736 175.374C169.736 175.887 169.834 176.34 170.03 176.732C170.226 177.115 170.492 177.418 170.828 177.642C171.173 177.866 171.565 177.978 172.004 177.978ZM177.267 179L177.295 172H178.415L178.387 179H177.267ZM177.841 170.376C177.654 170.376 177.491 170.306 177.351 170.166C177.211 170.026 177.141 169.863 177.141 169.676C177.141 169.48 177.211 169.317 177.351 169.186C177.491 169.046 177.654 168.976 177.841 168.976C178.037 168.976 178.2 169.046 178.331 169.186C178.471 169.317 178.541 169.48 178.541 169.676C178.541 169.863 178.471 170.026 178.331 170.166C178.2 170.306 178.037 170.376 177.841 170.376ZM183.083 179.168C182.401 179.168 181.874 178.991 181.501 178.636C181.127 178.281 180.941 177.782 180.941 177.138V169.816H182.061V177.026C182.061 177.381 182.154 177.656 182.341 177.852C182.537 178.039 182.807 178.132 183.153 178.132C183.265 178.132 183.372 178.118 183.475 178.09C183.587 178.053 183.731 177.969 183.909 177.838L184.343 178.748C184.1 178.907 183.881 179.014 183.685 179.07C183.489 179.135 183.288 179.168 183.083 179.168ZM179.723 172.994V172H184.161V172.994H179.723ZM185.028 180.022V179H190.628V180.022H185.028ZM191.88 179V169.2H193V177.698L192.944 179H191.88ZM195.366 179.168C194.778 179.168 194.26 179.014 193.812 178.706C193.374 178.398 193.033 177.969 192.79 177.418C192.548 176.858 192.426 176.219 192.426 175.5C192.426 174.772 192.548 174.133 192.79 173.582C193.033 173.031 193.374 172.602 193.812 172.294C194.26 171.986 194.778 171.832 195.366 171.832C195.992 171.832 196.542 171.986 197.018 172.294C197.494 172.602 197.863 173.031 198.124 173.582C198.395 174.133 198.53 174.772 198.53 175.5C198.53 176.219 198.395 176.858 198.124 177.418C197.863 177.969 197.494 178.398 197.018 178.706C196.542 179.014 195.992 179.168 195.366 179.168ZM195.114 178.146C195.553 178.146 195.94 178.034 196.276 177.81C196.622 177.586 196.892 177.273 197.088 176.872C197.294 176.471 197.396 176.013 197.396 175.5C197.396 174.987 197.298 174.529 197.102 174.128C196.916 173.727 196.65 173.414 196.304 173.19C195.959 172.966 195.567 172.854 195.128 172.854C194.718 172.854 194.349 172.966 194.022 173.19C193.705 173.414 193.453 173.727 193.266 174.128C193.089 174.529 193 174.987 193 175.5C193 176.013 193.089 176.471 193.266 176.872C193.453 177.273 193.705 177.586 194.022 177.81C194.34 178.034 194.704 178.146 195.114 178.146ZM200.7 175.206C200.7 174.45 200.844 173.839 201.134 173.372C201.423 172.896 201.792 172.546 202.24 172.322C202.697 172.089 203.178 171.972 203.682 171.972V173.022C203.271 173.022 202.874 173.092 202.492 173.232C202.118 173.363 201.81 173.582 201.568 173.89C201.325 174.198 201.204 174.618 201.204 175.15L200.7 175.206ZM200.084 179V172H201.204V179H200.084ZM209.126 179L209.056 177.852V175.304C209.056 174.753 208.991 174.301 208.86 173.946C208.739 173.582 208.547 173.311 208.286 173.134C208.034 172.947 207.698 172.854 207.278 172.854C206.877 172.854 206.527 172.933 206.228 173.092C205.939 173.251 205.701 173.498 205.514 173.834L204.506 173.428C204.693 173.101 204.917 172.817 205.178 172.574C205.439 172.331 205.743 172.149 206.088 172.028C206.443 171.897 206.844 171.832 207.292 171.832C207.936 171.832 208.473 171.958 208.902 172.21C209.331 172.462 209.653 172.84 209.868 173.344C210.083 173.839 210.185 174.459 210.176 175.206L210.162 179H209.126ZM207.026 179.168C206.205 179.168 205.561 178.981 205.094 178.608C204.637 178.225 204.408 177.698 204.408 177.026C204.408 176.317 204.641 175.775 205.108 175.402C205.584 175.019 206.247 174.828 207.096 174.828H209.098V175.766H207.348C206.695 175.766 206.228 175.873 205.948 176.088C205.677 176.303 205.542 176.611 205.542 177.012C205.542 177.376 205.677 177.665 205.948 177.88C206.219 178.085 206.597 178.188 207.082 178.188C207.483 178.188 207.833 178.095 208.132 177.908C208.431 177.721 208.659 177.469 208.818 177.152C208.977 176.825 209.056 176.457 209.056 176.046H209.742C209.742 176.998 209.509 177.759 209.042 178.328C208.575 178.888 207.903 179.168 207.026 179.168ZM211.951 179V172H213.001L213.071 173.288V179H211.951ZM216.865 179V175.416L217.985 174.996V179H216.865ZM216.865 175.416C216.865 174.725 216.785 174.198 216.627 173.834C216.468 173.47 216.249 173.223 215.969 173.092C215.689 172.952 215.371 172.882 215.017 172.882C214.401 172.882 213.92 173.101 213.575 173.54C213.239 173.969 213.071 174.581 213.071 175.374H212.525C212.525 174.637 212.632 174.002 212.847 173.47C213.061 172.938 213.369 172.532 213.771 172.252C214.181 171.972 214.676 171.832 215.255 171.832C216.104 171.832 216.771 172.093 217.257 172.616C217.751 173.139 217.994 173.932 217.985 174.996L216.865 175.416ZM222.879 179.168C222.189 179.168 221.577 179.014 221.045 178.706C220.513 178.389 220.098 177.955 219.799 177.404C219.501 176.853 219.351 176.219 219.351 175.5C219.351 174.781 219.496 174.147 219.785 173.596C220.084 173.045 220.499 172.616 221.031 172.308C221.563 171.991 222.17 171.832 222.851 171.832C223.523 171.832 224.125 171.986 224.657 172.294C225.189 172.602 225.595 173.036 225.875 173.596L224.853 174.058C224.667 173.685 224.396 173.395 224.041 173.19C223.687 172.975 223.281 172.868 222.823 172.868C222.366 172.868 221.96 172.98 221.605 173.204C221.26 173.428 220.985 173.741 220.779 174.142C220.583 174.534 220.485 174.987 220.485 175.5C220.485 176.013 220.583 176.471 220.779 176.872C220.985 177.264 221.265 177.572 221.619 177.796C221.983 178.02 222.394 178.132 222.851 178.132C223.309 178.132 223.715 178.015 224.069 177.782C224.433 177.549 224.709 177.222 224.895 176.802L225.917 177.264C225.637 177.861 225.231 178.328 224.699 178.664C224.167 179 223.561 179.168 222.879 179.168ZM227.332 179V169.018H228.452V179H227.332ZM232.26 179V175.416L233.38 174.996V179H232.26ZM232.26 175.416C232.26 174.725 232.176 174.198 232.008 173.834C231.849 173.47 231.63 173.223 231.35 173.092C231.07 172.952 230.752 172.882 230.398 172.882C229.782 172.882 229.301 173.101 228.956 173.54C228.62 173.969 228.452 174.581 228.452 175.374H227.906C227.906 174.637 228.013 174.002 228.228 173.47C228.442 172.938 228.755 172.532 229.166 172.252C229.576 171.972 230.071 171.832 230.65 171.832C231.49 171.832 232.157 172.093 232.652 172.616C233.146 173.139 233.389 173.932 233.38 174.996L232.26 175.416ZM238.204 179.168C237.523 179.168 236.921 179.014 236.398 178.706C235.876 178.389 235.465 177.955 235.166 177.404C234.877 176.853 234.732 176.219 234.732 175.5C234.732 174.781 234.877 174.147 235.166 173.596C235.465 173.045 235.871 172.616 236.384 172.308C236.907 171.991 237.504 171.832 238.176 171.832C238.82 171.832 239.38 171.995 239.856 172.322C240.342 172.639 240.715 173.087 240.976 173.666C241.238 174.245 241.368 174.926 241.368 175.71H240.248C240.248 175.113 240.169 174.604 240.01 174.184C239.852 173.755 239.614 173.423 239.296 173.19C238.988 172.957 238.61 172.84 238.162 172.84C237.705 172.84 237.299 172.952 236.944 173.176C236.599 173.391 236.333 173.699 236.146 174.1C235.96 174.501 235.866 174.973 235.866 175.514C235.866 176.046 235.969 176.508 236.174 176.9C236.38 177.283 236.664 177.586 237.028 177.81C237.392 178.025 237.803 178.132 238.26 178.132C238.746 178.132 239.156 178.015 239.492 177.782C239.828 177.549 240.094 177.245 240.29 176.872L241.27 177.362C241.093 177.726 240.855 178.043 240.556 178.314C240.267 178.585 239.922 178.795 239.52 178.944C239.128 179.093 238.69 179.168 238.204 179.168ZM235.474 175.71L235.488 174.744H240.682V175.71H235.474ZM245.231 179.168C244.717 179.168 244.269 179.093 243.887 178.944C243.504 178.785 243.182 178.58 242.921 178.328C242.669 178.076 242.487 177.801 242.375 177.502L243.355 177.096C243.513 177.413 243.751 177.67 244.069 177.866C244.386 178.062 244.736 178.16 245.119 178.16C245.557 178.16 245.926 178.076 246.225 177.908C246.523 177.731 246.673 177.483 246.673 177.166C246.673 176.877 246.561 176.643 246.337 176.466C246.122 176.289 245.8 176.144 245.371 176.032L244.699 175.85C244.064 175.682 243.569 175.43 243.215 175.094C242.86 174.749 242.683 174.361 242.683 173.932C242.683 173.269 242.897 172.756 243.327 172.392C243.765 172.019 244.414 171.832 245.273 171.832C245.683 171.832 246.057 171.893 246.393 172.014C246.729 172.135 247.018 172.308 247.261 172.532C247.503 172.747 247.681 173.003 247.793 173.302L246.813 173.736C246.691 173.419 246.491 173.19 246.211 173.05C245.931 172.91 245.59 172.84 245.189 172.84C244.759 172.84 244.423 172.933 244.181 173.12C243.938 173.297 243.817 173.549 243.817 173.876C243.817 174.063 243.915 174.24 244.111 174.408C244.316 174.567 244.615 174.697 245.007 174.8L245.707 174.982C246.164 175.094 246.547 175.262 246.855 175.486C247.163 175.701 247.396 175.948 247.555 176.228C247.713 176.508 247.793 176.807 247.793 177.124C247.793 177.544 247.681 177.908 247.457 178.216C247.233 178.524 246.929 178.762 246.547 178.93C246.164 179.089 245.725 179.168 245.231 179.168ZM249.778 179.196C249.564 179.196 249.377 179.121 249.218 178.972C249.069 178.813 248.994 178.631 248.994 178.426C248.994 178.211 249.069 178.029 249.218 177.88C249.377 177.721 249.564 177.642 249.778 177.642C249.993 177.642 250.175 177.721 250.324 177.88C250.474 178.029 250.548 178.211 250.548 178.426C250.548 178.631 250.474 178.813 250.324 178.972C250.175 179.121 249.993 179.196 249.778 179.196ZM254.664 179.168C254.151 179.168 253.703 179.093 253.32 178.944C252.938 178.785 252.616 178.58 252.354 178.328C252.102 178.076 251.92 177.801 251.808 177.502L252.788 177.096C252.947 177.413 253.185 177.67 253.502 177.866C253.82 178.062 254.17 178.16 254.552 178.16C254.991 178.16 255.36 178.076 255.658 177.908C255.957 177.731 256.106 177.483 256.106 177.166C256.106 176.877 255.994 176.643 255.77 176.466C255.556 176.289 255.234 176.144 254.804 176.032L254.132 175.85C253.498 175.682 253.003 175.43 252.648 175.094C252.294 174.749 252.116 174.361 252.116 173.932C252.116 173.269 252.331 172.756 252.76 172.392C253.199 172.019 253.848 171.832 254.706 171.832C255.117 171.832 255.49 171.893 255.826 172.014C256.162 172.135 256.452 172.308 256.694 172.532C256.937 172.747 257.114 173.003 257.226 173.302L256.246 173.736C256.125 173.419 255.924 173.19 255.644 173.05C255.364 172.91 255.024 172.84 254.622 172.84C254.193 172.84 253.857 172.933 253.614 173.12C253.372 173.297 253.25 173.549 253.25 173.876C253.25 174.063 253.348 174.24 253.544 174.408C253.75 174.567 254.048 174.697 254.44 174.8L255.14 174.982C255.598 175.094 255.98 175.262 256.288 175.486C256.596 175.701 256.83 175.948 256.988 176.228C257.147 176.508 257.226 176.807 257.226 177.124C257.226 177.544 257.114 177.908 256.89 178.216C256.666 178.524 256.363 178.762 255.98 178.93C255.598 179.089 255.159 179.168 254.664 179.168ZM260.878 179L263.734 172H264.91L261.984 179H260.878ZM260.808 179L257.882 172H259.044L261.9 179H260.808ZM268.645 181.968C268.197 181.968 267.787 181.921 267.413 181.828C267.049 181.744 266.737 181.646 266.475 181.534C266.223 181.431 266.041 181.343 265.929 181.268L266.349 180.358C266.471 180.423 266.643 180.503 266.867 180.596C267.091 180.699 267.353 180.783 267.651 180.848C267.959 180.923 268.286 180.96 268.631 180.96C269.079 180.96 269.481 180.867 269.835 180.68C270.199 180.503 270.479 180.218 270.675 179.826C270.881 179.443 270.983 178.949 270.983 178.342V172H272.103V178.328C272.103 179.131 271.954 179.803 271.655 180.344C271.357 180.885 270.946 181.291 270.423 181.562C269.901 181.833 269.308 181.968 268.645 181.968ZM268.603 178.944C267.978 178.944 267.427 178.795 266.951 178.496C266.475 178.197 266.102 177.782 265.831 177.25C265.57 176.709 265.439 176.093 265.439 175.402C265.439 174.693 265.57 174.072 265.831 173.54C266.102 172.999 266.475 172.579 266.951 172.28C267.427 171.981 267.978 171.832 268.603 171.832C269.191 171.832 269.705 171.981 270.143 172.28C270.582 172.579 270.923 172.999 271.165 173.54C271.417 174.072 271.543 174.693 271.543 175.402C271.543 176.102 271.417 176.718 271.165 177.25C270.923 177.782 270.582 178.197 270.143 178.496C269.705 178.795 269.191 178.944 268.603 178.944ZM268.869 177.978C269.28 177.978 269.644 177.866 269.961 177.642C270.279 177.418 270.526 177.115 270.703 176.732C270.881 176.34 270.969 175.887 270.969 175.374C270.969 174.879 270.876 174.441 270.689 174.058C270.512 173.666 270.265 173.363 269.947 173.148C269.639 172.924 269.275 172.812 268.855 172.812C268.417 172.812 268.025 172.924 267.679 173.148C267.343 173.363 267.077 173.666 266.881 174.058C266.695 174.441 266.601 174.879 266.601 175.374C266.601 175.887 266.699 176.34 266.895 176.732C267.091 177.115 267.357 177.418 267.693 177.642C268.039 177.866 268.431 177.978 268.869 177.978Z" fill="#21333F"/>
<mask id="mask0_12203_6327" style="mask-type:alpha" maskUnits="userSpaceOnUse" x="384" y="164" width="20" height="20">
<rect x="384" y="164" width="20" height="20" fill="#D9D9D9"/>
</mask>
<g mask="url(#mask0_12203_6327)">
<path d="M393.166 178.166H394.833V174.833H398.166V173.166H394.833V169.833H393.166V173.166H389.833V174.833H393.166V178.166ZM393.999 182.333C392.847 182.333 391.763 182.114 390.749 181.676C389.735 181.239 388.854 180.645 388.104 179.895C387.354 179.145 386.76 178.263 386.322 177.249C385.885 176.235 385.666 175.152 385.666 173.999C385.666 172.847 385.885 171.763 386.322 170.749C386.76 169.735 387.354 168.854 388.104 168.104C388.854 167.354 389.735 166.76 390.749 166.322C391.763 165.885 392.847 165.666 393.999 165.666C395.152 165.666 396.235 165.885 397.249 166.322C398.263 166.76 399.145 167.354 399.895 168.104C400.645 168.854 401.239 169.735 401.676 170.749C402.114 171.763 402.333 172.847 402.333 173.999C402.333 175.152 402.114 176.235 401.676 177.249C401.239 178.263 400.645 179.145 399.895 179.895C399.145 180.645 398.263 181.239 397.249 181.676C396.235 182.114 395.152 182.333 393.999 182.333Z" fill="#006D3F"/>
</g>
<path fill-rule="evenodd" clip-rule="evenodd" d="M415.232 168.316C415.554 167.974 416.092 167.959 416.434 168.281L420.871 172.472C421.749 173.301 421.749 174.697 420.871 175.526L416.434 179.717C416.092 180.04 415.554 180.024 415.232 179.683C414.91 179.342 414.925 178.804 415.266 178.481L419.704 174.29C419.871 174.132 419.871 173.866 419.704 173.708L415.266 169.517C414.925 169.195 414.91 168.657 415.232 168.316Z" fill="#21333F" fill-opacity="0.5"/>
<path d="M124 220C124 211.163 131.163 204 140 204H420C428.837 204 436 211.163 436 220V232C436 240.837 428.837 248 420 248H140C131.163 248 124 240.837 124 232V220Z" fill="#F2F8FF"/>
<path fill-rule="evenodd" clip-rule="evenodd" d="M150 220.5H142C141.172 220.5 140.5 221.172 140.5 222V230C140.5 230.828 141.172 231.5 142 231.5H150C150.828 231.5 151.5 230.828 151.5 230V222C151.5 221.172 150.828 220.5 150 220.5ZM142 219C140.343 219 139 220.343 139 222V230C139 231.657 140.343 233 142 233H150C151.657 233 153 231.657 153 230V222C153 220.343 151.657 219 150 219H142Z" fill="#21333F" fill-opacity="0.75"/>
<path d="M171.78 233.968C171.332 233.968 170.921 233.921 170.548 233.828C170.184 233.744 169.871 233.646 169.61 233.534C169.358 233.431 169.176 233.343 169.064 233.268L169.484 232.358C169.605 232.423 169.778 232.503 170.002 232.596C170.226 232.699 170.487 232.783 170.786 232.848C171.094 232.923 171.421 232.96 171.766 232.96C172.214 232.96 172.615 232.867 172.97 232.68C173.334 232.503 173.614 232.218 173.81 231.826C174.015 231.443 174.118 230.949 174.118 230.342V224H175.238V230.328C175.238 231.131 175.089 231.803 174.79 232.344C174.491 232.885 174.081 233.291 173.558 233.562C173.035 233.833 172.443 233.968 171.78 233.968ZM171.738 230.944C171.113 230.944 170.562 230.795 170.086 230.496C169.61 230.197 169.237 229.782 168.966 229.25C168.705 228.709 168.574 228.093 168.574 227.402C168.574 226.693 168.705 226.072 168.966 225.54C169.237 224.999 169.61 224.579 170.086 224.28C170.562 223.981 171.113 223.832 171.738 223.832C172.326 223.832 172.839 223.981 173.278 224.28C173.717 224.579 174.057 224.999 174.3 225.54C174.552 226.072 174.678 226.693 174.678 227.402C174.678 228.102 174.552 228.718 174.3 229.25C174.057 229.782 173.717 230.197 173.278 230.496C172.839 230.795 172.326 230.944 171.738 230.944ZM172.004 229.978C172.415 229.978 172.779 229.866 173.096 229.642C173.413 229.418 173.661 229.115 173.838 228.732C174.015 228.34 174.104 227.887 174.104 227.374C174.104 226.879 174.011 226.441 173.824 226.058C173.647 225.666 173.399 225.363 173.082 225.148C172.774 224.924 172.41 224.812 171.99 224.812C171.551 224.812 171.159 224.924 170.814 225.148C170.478 225.363 170.212 225.666 170.016 226.058C169.829 226.441 169.736 226.879 169.736 227.374C169.736 227.887 169.834 228.34 170.03 228.732C170.226 229.115 170.492 229.418 170.828 229.642C171.173 229.866 171.565 229.978 172.004 229.978ZM177.267 231L177.295 224H178.415L178.387 231H177.267ZM177.841 222.376C177.654 222.376 177.491 222.306 177.351 222.166C177.211 222.026 177.141 221.863 177.141 221.676C177.141 221.48 177.211 221.317 177.351 221.186C177.491 221.046 177.654 220.976 177.841 220.976C178.037 220.976 178.2 221.046 178.331 221.186C178.471 221.317 178.541 221.48 178.541 221.676C178.541 221.863 178.471 222.026 178.331 222.166C178.2 222.306 178.037 222.376 177.841 222.376ZM183.083 231.168C182.401 231.168 181.874 230.991 181.501 230.636C181.127 230.281 180.941 229.782 180.941 229.138V221.816H182.061V229.026C182.061 229.381 182.154 229.656 182.341 229.852C182.537 230.039 182.807 230.132 183.153 230.132C183.265 230.132 183.372 230.118 183.475 230.09C183.587 230.053 183.731 229.969 183.909 229.838L184.343 230.748C184.1 230.907 183.881 231.014 183.685 231.07C183.489 231.135 183.288 231.168 183.083 231.168ZM179.723 224.994V224H184.161V224.994H179.723ZM185.028 232.022V231H190.628V232.022H185.028ZM196.682 231L196.612 229.712V224H197.732V231H196.682ZM191.698 228.004V224H192.818V227.584L191.698 228.004ZM192.818 227.584C192.818 228.275 192.898 228.802 193.056 229.166C193.215 229.53 193.434 229.782 193.714 229.922C194.004 230.053 194.326 230.118 194.68 230.118C195.287 230.118 195.758 229.899 196.094 229.46C196.44 229.021 196.612 228.41 196.612 227.626H197.158C197.158 228.363 197.051 228.998 196.836 229.53C196.622 230.062 196.309 230.468 195.898 230.748C195.497 231.028 195.007 231.168 194.428 231.168C193.579 231.168 192.907 230.907 192.412 230.384C191.927 229.861 191.689 229.068 191.698 228.004L192.818 227.584ZM199.757 231L199.785 224H200.905L200.877 231H199.757ZM200.331 222.376C200.144 222.376 199.981 222.306 199.841 222.166C199.701 222.026 199.631 221.863 199.631 221.676C199.631 221.48 199.701 221.317 199.841 221.186C199.981 221.046 200.144 220.976 200.331 220.976C200.527 220.976 200.69 221.046 200.821 221.186C200.961 221.317 201.031 221.48 201.031 221.676C201.031 221.863 200.961 222.026 200.821 222.166C200.69 222.306 200.527 222.376 200.331 222.376ZM203.417 231.196C203.202 231.196 203.016 231.121 202.857 230.972C202.708 230.813 202.633 230.631 202.633 230.426C202.633 230.211 202.708 230.029 202.857 229.88C203.016 229.721 203.202 229.642 203.417 229.642C203.632 229.642 203.814 229.721 203.963 229.88C204.112 230.029 204.187 230.211 204.187 230.426C204.187 230.631 204.112 230.813 203.963 230.972C203.814 231.121 203.632 231.196 203.417 231.196ZM208.303 231.168C207.79 231.168 207.342 231.093 206.959 230.944C206.576 230.785 206.254 230.58 205.993 230.328C205.741 230.076 205.559 229.801 205.447 229.502L206.427 229.096C206.586 229.413 206.824 229.67 207.141 229.866C207.458 230.062 207.808 230.16 208.191 230.16C208.63 230.16 208.998 230.076 209.297 229.908C209.596 229.731 209.745 229.483 209.745 229.166C209.745 228.877 209.633 228.643 209.409 228.466C209.194 228.289 208.872 228.144 208.443 228.032L207.771 227.85C207.136 227.682 206.642 227.43 206.287 227.094C205.932 226.749 205.755 226.361 205.755 225.932C205.755 225.269 205.97 224.756 206.399 224.392C206.838 224.019 207.486 223.832 208.345 223.832C208.756 223.832 209.129 223.893 209.465 224.014C209.801 224.135 210.09 224.308 210.333 224.532C210.576 224.747 210.753 225.003 210.865 225.302L209.885 225.736C209.764 225.419 209.563 225.19 209.283 225.05C209.003 224.91 208.662 224.84 208.261 224.84C207.832 224.84 207.496 224.933 207.253 225.12C207.01 225.297 206.889 225.549 206.889 225.876C206.889 226.063 206.987 226.24 207.183 226.408C207.388 226.567 207.687 226.697 208.079 226.8L208.779 226.982C209.236 227.094 209.619 227.262 209.927 227.486C210.235 227.701 210.468 227.948 210.627 228.228C210.786 228.508 210.865 228.807 210.865 229.124C210.865 229.544 210.753 229.908 210.529 230.216C210.305 230.524 210.002 230.762 209.619 230.93C209.236 231.089 208.798 231.168 208.303 231.168ZM214.517 231L217.373 224H218.549L215.623 231H214.517ZM214.447 231L211.521 224H212.683L215.539 231H214.447ZM222.284 233.968C221.836 233.968 221.425 233.921 221.052 233.828C220.688 233.744 220.375 233.646 220.114 233.534C219.862 233.431 219.68 233.343 219.568 233.268L219.988 232.358C220.109 232.423 220.282 232.503 220.506 232.596C220.73 232.699 220.991 232.783 221.29 232.848C221.598 232.923 221.925 232.96 222.27 232.96C222.718 232.96 223.119 232.867 223.474 232.68C223.838 232.503 224.118 232.218 224.314 231.826C224.519 231.443 224.622 230.949 224.622 230.342V224H225.742V230.328C225.742 231.131 225.593 231.803 225.294 232.344C224.995 232.885 224.585 233.291 224.062 233.562C223.539 233.833 222.947 233.968 222.284 233.968ZM222.242 230.944C221.617 230.944 221.066 230.795 220.59 230.496C220.114 230.197 219.741 229.782 219.47 229.25C219.209 228.709 219.078 228.093 219.078 227.402C219.078 226.693 219.209 226.072 219.47 225.54C219.741 224.999 220.114 224.579 220.59 224.28C221.066 223.981 221.617 223.832 222.242 223.832C222.83 223.832 223.343 223.981 223.782 224.28C224.221 224.579 224.561 224.999 224.804 225.54C225.056 226.072 225.182 226.693 225.182 227.402C225.182 228.102 225.056 228.718 224.804 229.25C224.561 229.782 224.221 230.197 223.782 230.496C223.343 230.795 222.83 230.944 222.242 230.944ZM222.508 229.978C222.919 229.978 223.283 229.866 223.6 229.642C223.917 229.418 224.165 229.115 224.342 228.732C224.519 228.34 224.608 227.887 224.608 227.374C224.608 226.879 224.515 226.441 224.328 226.058C224.151 225.666 223.903 225.363 223.586 225.148C223.278 224.924 222.914 224.812 222.494 224.812C222.055 224.812 221.663 224.924 221.318 225.148C220.982 225.363 220.716 225.666 220.52 226.058C220.333 226.441 220.24 226.879 220.24 227.374C220.24 227.887 220.338 228.34 220.534 228.732C220.73 229.115 220.996 229.418 221.332 229.642C221.677 229.866 222.069 229.978 222.508 229.978Z" fill="#21333F"/>
<mask id="mask1_12203_6327" style="mask-type:alpha" maskUnits="userSpaceOnUse" x="384" y="216" width="20" height="20">
<rect x="384" y="216" width="20" height="20" fill="#D9D9D9"/>
</mask>
<g mask="url(#mask1_12203_6327)">
<path d="M393.166 230.166H394.833V226.833H398.166V225.166H394.833V221.833H393.166V225.166H389.833V226.833H393.166V230.166ZM393.999 234.333C392.847 234.333 391.763 234.114 390.749 233.676C389.735 233.239 388.854 232.645 388.104 231.895C387.354 231.145 386.76 230.263 386.322 229.249C385.885 228.235 385.666 227.152 385.666 225.999C385.666 224.847 385.885 223.763 386.322 222.749C386.76 221.735 387.354 220.854 388.104 220.104C388.854 219.354 389.735 218.76 390.749 218.322C391.763 217.885 392.847 217.666 393.999 217.666C395.152 217.666 396.235 217.885 397.249 218.322C398.263 218.76 399.145 219.354 399.895 220.104C400.645 220.854 401.239 221.735 401.676 222.749C402.114 223.763 402.333 224.847 402.333 225.999C402.333 227.152 402.114 228.235 401.676 229.249C401.239 230.263 400.645 231.145 399.895 231.895C399.145 232.645 398.263 233.239 397.249 233.676C396.235 234.114 395.152 234.333 393.999 234.333Z" fill="#006D3F"/>
</g>
<path fill-rule="evenodd" clip-rule="evenodd" d="M415.232 220.316C415.554 219.974 416.092 219.959 416.434 220.281L420.871 224.472C421.749 225.301 421.749 226.697 420.871 227.526L416.434 231.717C416.092 232.04 415.554 232.024 415.232 231.683C414.91 231.342 414.925 230.804 415.266 230.481L419.704 226.29C419.871 226.132 419.871 225.866 419.704 225.708L415.266 221.517C414.925 221.195 414.91 220.657 415.232 220.316Z" fill="#21333F" fill-opacity="0.5"/>
<path d="M124 272C124 263.163 131.163 256 140 256H420C428.837 256 436 263.163 436 272V284C436 292.837 428.837 300 420 300H140C131.163 300 124 292.837 124 284V272Z" fill="#F2F8FF"/>
<path fill-rule="evenodd" clip-rule="evenodd" d="M150 272.5H142C141.172 272.5 140.5 273.172 140.5 274V282C140.5 282.828 141.172 283.5 142 283.5H150C150.828 283.5 151.5 282.828 151.5 282V274C151.5 273.172 150.828 272.5 150 272.5ZM142 271C140.343 271 139 272.343 139 274V282C139 283.657 140.343 285 142 285H150C151.657 285 153 283.657 153 282V274C153 272.343 151.657 271 150 271H142Z" fill="#21333F" fill-opacity="0.75"/>
<path d="M170.422 279.15V278.058H172.662C173.017 278.058 173.334 277.979 173.614 277.82C173.894 277.652 174.118 277.428 174.286 277.148C174.463 276.859 174.552 276.532 174.552 276.168C174.552 275.608 174.356 275.155 173.964 274.81C173.581 274.455 173.082 274.278 172.466 274.278H170.422V273.2L172.494 273.186C173.129 273.177 173.689 273.303 174.174 273.564C174.669 273.816 175.051 274.171 175.322 274.628C175.602 275.076 175.742 275.589 175.742 276.168C175.742 276.747 175.593 277.26 175.294 277.708C174.995 278.156 174.589 278.511 174.076 278.772C173.563 279.024 172.984 279.15 172.34 279.15H170.422ZM169.302 283V273.2H170.492V283H169.302ZM174.832 283L172.48 278.982L173.418 278.366L176.134 283H174.832ZM178.066 283V273.2H179.256V283H178.066ZM179.116 283V281.922H183.89V283H179.116ZM179.116 278.506V277.442H183.456V278.506H179.116ZM179.116 274.278V273.2H183.862V274.278H179.116ZM193.141 283L189.207 273.2H190.397L194.387 283H193.141ZM185.175 283L189.165 273.2H190.369L186.435 283H185.175ZM187.065 280.214V279.15H192.511V280.214H187.065ZM198.807 283V281.908C199.302 281.908 199.759 281.815 200.179 281.628C200.599 281.432 200.968 281.157 201.285 280.802C201.612 280.447 201.864 280.041 202.041 279.584C202.228 279.117 202.321 278.623 202.321 278.1C202.321 277.577 202.228 277.087 202.041 276.63C201.864 276.163 201.612 275.753 201.285 275.398C200.968 275.043 200.599 274.773 200.179 274.586C199.759 274.39 199.302 274.292 198.807 274.292V273.2C199.731 273.2 200.543 273.41 201.243 273.83C201.953 274.241 202.508 274.815 202.909 275.552C203.311 276.289 203.511 277.139 203.511 278.1C203.511 279.052 203.311 279.897 202.909 280.634C202.508 281.371 201.953 281.95 201.243 282.37C200.543 282.79 199.731 283 198.807 283ZM196.777 283V281.908H198.807V283H196.777ZM195.825 283V273.2H197.015V283H195.825ZM196.777 274.292V273.2H198.807V274.292H196.777ZM210.084 280.214L205.66 273.676L206.136 273.424L206.696 273.2L210.658 279.066L210.084 280.214ZM205.464 283V273.2H206.654V283H205.464ZM210.084 280.214L209.51 279.066L213.472 273.2L214.032 273.424L214.494 273.662L210.084 280.214ZM213.514 283V273.2H214.69V283H213.514ZM217.304 283V273.2H218.494V283H217.304ZM218.354 283V281.922H223.128V283H218.354ZM218.354 278.506V277.442H222.694V278.506H218.354ZM218.354 274.278V273.2H223.1V274.278H218.354ZM225.743 283.196C225.528 283.196 225.342 283.121 225.183 282.972C225.034 282.813 224.959 282.631 224.959 282.426C224.959 282.211 225.034 282.029 225.183 281.88C225.342 281.721 225.528 281.642 225.743 281.642C225.958 281.642 226.14 281.721 226.289 281.88C226.438 282.029 226.513 282.211 226.513 282.426C226.513 282.631 226.438 282.813 226.289 282.972C226.14 283.121 225.958 283.196 225.743 283.196ZM228.179 283V276H229.229L229.299 277.288V283H228.179ZM233.093 283V279.416L234.213 278.996V283H233.093ZM238.021 283V279.416L239.141 278.996V283H238.021ZM233.093 279.416C233.093 278.725 233.014 278.198 232.855 277.834C232.697 277.47 232.477 277.223 232.197 277.092C231.917 276.952 231.6 276.882 231.245 276.882C230.629 276.882 230.149 277.101 229.803 277.54C229.467 277.969 229.299 278.581 229.299 279.374H228.753C228.753 278.637 228.861 278.002 229.075 277.47C229.29 276.938 229.598 276.532 229.999 276.252C230.41 275.972 230.905 275.832 231.483 275.832C232.333 275.832 233 276.093 233.485 276.616C233.98 277.139 234.223 277.932 234.213 278.996L233.093 279.416ZM238.021 279.416C238.021 278.725 237.937 278.198 237.769 277.834C237.611 277.47 237.391 277.223 237.111 277.092C236.831 276.952 236.514 276.882 236.159 276.882C235.543 276.882 235.063 277.101 234.717 277.54C234.381 277.969 234.213 278.581 234.213 279.374H233.667C233.667 278.637 233.775 278.002 233.989 277.47C234.204 276.938 234.517 276.532 234.927 276.252C235.338 275.972 235.833 275.832 236.411 275.832C237.251 275.832 237.914 276.093 238.399 276.616C238.894 277.139 239.141 277.932 239.141 278.996L238.021 279.416ZM246.088 283L246.032 281.698V273.2H247.152V283H246.088ZM243.666 283.168C243.04 283.168 242.49 283.014 242.014 282.706C241.538 282.398 241.164 281.969 240.894 281.418C240.632 280.858 240.502 280.219 240.502 279.5C240.502 278.772 240.632 278.133 240.894 277.582C241.164 277.031 241.538 276.602 242.014 276.294C242.49 275.986 243.04 275.832 243.666 275.832C244.254 275.832 244.767 275.986 245.206 276.294C245.654 276.602 245.999 277.031 246.242 277.582C246.484 278.133 246.606 278.772 246.606 279.5C246.606 280.219 246.484 280.858 246.242 281.418C245.999 281.969 245.654 282.398 245.206 282.706C244.767 283.014 244.254 283.168 243.666 283.168ZM243.918 282.146C244.328 282.146 244.692 282.034 245.01 281.81C245.327 281.586 245.574 281.273 245.752 280.872C245.938 280.471 246.032 280.013 246.032 279.5C246.032 278.987 245.938 278.529 245.752 278.128C245.574 277.727 245.327 277.414 245.01 277.19C244.692 276.966 244.324 276.854 243.904 276.854C243.465 276.854 243.073 276.966 242.728 277.19C242.392 277.414 242.126 277.727 241.93 278.128C241.734 278.529 241.636 278.987 241.636 279.5C241.636 280.013 241.734 280.471 241.93 280.872C242.126 281.273 242.396 281.586 242.742 281.81C243.087 282.034 243.479 282.146 243.918 282.146Z" fill="#21333F"/>
<path fill-rule="evenodd" clip-rule="evenodd" d="M393.999 286.333C398.602 286.333 402.333 282.602 402.333 277.999C402.333 273.397 398.602 269.666 393.999 269.666C389.397 269.666 385.666 273.397 385.666 277.999C385.666 282.602 389.397 286.333 393.999 286.333ZM389.367 278.883C389.612 279.128 389.906 279.25 390.25 279.25C390.594 279.25 390.888 279.128 391.133 278.883C391.378 278.638 391.5 278.344 391.5 278C391.5 277.656 391.378 277.362 391.133 277.117C390.888 276.872 390.594 276.75 390.25 276.75C389.906 276.75 389.612 276.872 389.367 277.117C389.122 277.362 389 277.656 389 278C389 278.344 389.122 278.638 389.367 278.883ZM393.117 278.883C393.362 279.128 393.656 279.25 394 279.25C394.344 279.25 394.638 279.128 394.883 278.883C395.128 278.638 395.25 278.344 395.25 278C395.25 277.656 395.128 277.362 394.883 277.117C394.638 276.872 394.344 276.75 394 276.75C393.656 276.75 393.362 276.872 393.117 277.117C392.872 277.362 392.75 277.656 392.75 278C392.75 278.344 392.872 278.638 393.117 278.883ZM396.867 278.883C397.112 279.128 397.406 279.25 397.75 279.25C398.094 279.25 398.388 279.128 398.633 278.883C398.878 278.638 399 278.344 399 278C399 277.656 398.878 277.362 398.633 277.117C398.388 276.872 398.094 276.75 397.75 276.75C397.406 276.75 397.112 276.872 396.867 277.117C396.622 277.362 396.5 277.656 396.5 278C396.5 278.344 396.622 278.638 396.867 278.883Z" fill="#B26800"/>
<path fill-rule="evenodd" clip-rule="evenodd" d="M415.232 272.316C415.554 271.974 416.092 271.959 416.434 272.281L420.871 276.472C421.749 277.301 421.749 278.697 420.871 279.526L416.434 283.717C416.092 284.04 415.554 284.024 415.232 283.683C414.91 283.342 414.925 282.804 415.266 282.481L419.704 278.29C419.871 278.132 419.871 277.866 419.704 277.708L415.266 273.517C414.925 273.195 414.91 272.657 415.232 272.316Z" fill="#21333F" fill-opacity="0.5"/>
<path d="M124 324C124 315.163 131.163 308 140 308H420C428.837 308 436 315.163 436 324V336C436 344.837 428.837 352 420 352H140C131.163 352 124 344.837 124 336V324Z" fill="#F2F8FF"/>
<path fill-rule="evenodd" clip-rule="evenodd" d="M150 324.5H142C141.172 324.5 140.5 325.172 140.5 326V334C140.5 334.828 141.172 335.5 142 335.5H150C150.828 335.5 151.5 334.828 151.5 334V326C151.5 325.172 150.828 324.5 150 324.5ZM142 323C140.343 323 139 324.343 139 326V334C139 335.657 140.343 337 142 337H150C151.657 337 153 335.657 153 334V326C153 324.343 151.657 323 150 323H142Z" fill="#21333F" fill-opacity="0.75"/>
<path d="M173.432 335.168C172.499 335.168 171.673 334.953 170.954 334.524C170.235 334.085 169.671 333.488 169.26 332.732C168.849 331.967 168.644 331.089 168.644 330.1C168.644 329.111 168.845 328.238 169.246 327.482C169.657 326.717 170.217 326.119 170.926 325.69C171.645 325.251 172.466 325.032 173.39 325.032C173.978 325.032 174.543 325.139 175.084 325.354C175.625 325.559 176.111 325.853 176.54 326.236C176.969 326.609 177.301 327.043 177.534 327.538L176.512 328.056C176.325 327.664 176.069 327.323 175.742 327.034C175.415 326.745 175.051 326.521 174.65 326.362C174.249 326.194 173.829 326.11 173.39 326.11C172.709 326.11 172.097 326.283 171.556 326.628C171.015 326.964 170.59 327.431 170.282 328.028C169.983 328.625 169.834 329.316 169.834 330.1C169.834 330.884 169.988 331.579 170.296 332.186C170.604 332.793 171.029 333.269 171.57 333.614C172.121 333.95 172.741 334.118 173.432 334.118C173.88 334.118 174.305 334.029 174.706 333.852C175.107 333.665 175.467 333.413 175.784 333.096C176.111 332.779 176.367 332.415 176.554 332.004L177.59 332.522C177.347 333.035 177.011 333.493 176.582 333.894C176.162 334.295 175.677 334.608 175.126 334.832C174.585 335.056 174.02 335.168 173.432 335.168ZM179.07 335V325.2H180.19V335H179.07ZM182.216 335L182.244 328H183.364L183.336 335H182.216ZM182.79 326.376C182.603 326.376 182.44 326.306 182.3 326.166C182.16 326.026 182.09 325.863 182.09 325.676C182.09 325.48 182.16 325.317 182.3 325.186C182.44 325.046 182.603 324.976 182.79 324.976C182.986 324.976 183.149 325.046 183.28 325.186C183.42 325.317 183.49 325.48 183.49 325.676C183.49 325.863 183.42 326.026 183.28 326.166C183.149 326.306 182.986 326.376 182.79 326.376ZM188.466 335.168C187.785 335.168 187.183 335.014 186.66 334.706C186.137 334.389 185.727 333.955 185.428 333.404C185.139 332.853 184.994 332.219 184.994 331.5C184.994 330.781 185.139 330.147 185.428 329.596C185.727 329.045 186.133 328.616 186.646 328.308C187.169 327.991 187.766 327.832 188.438 327.832C189.082 327.832 189.642 327.995 190.118 328.322C190.603 328.639 190.977 329.087 191.238 329.666C191.499 330.245 191.63 330.926 191.63 331.71H190.51C190.51 331.113 190.431 330.604 190.272 330.184C190.113 329.755 189.875 329.423 189.558 329.19C189.25 328.957 188.872 328.84 188.424 328.84C187.967 328.84 187.561 328.952 187.206 329.176C186.861 329.391 186.595 329.699 186.408 330.1C186.221 330.501 186.128 330.973 186.128 331.514C186.128 332.046 186.231 332.508 186.436 332.9C186.641 333.283 186.926 333.586 187.29 333.81C187.654 334.025 188.065 334.132 188.522 334.132C189.007 334.132 189.418 334.015 189.754 333.782C190.09 333.549 190.356 333.245 190.552 332.872L191.532 333.362C191.355 333.726 191.117 334.043 190.818 334.314C190.529 334.585 190.183 334.795 189.782 334.944C189.39 335.093 188.951 335.168 188.466 335.168ZM185.736 331.71L185.75 330.744H190.944V331.71H185.736ZM193.043 335V328H194.093L194.163 329.288V335H193.043ZM197.957 335V331.416L199.077 330.996V335H197.957ZM197.957 331.416C197.957 330.725 197.877 330.198 197.719 329.834C197.56 329.47 197.341 329.223 197.061 329.092C196.781 328.952 196.463 328.882 196.109 328.882C195.493 328.882 195.012 329.101 194.667 329.54C194.331 329.969 194.163 330.581 194.163 331.374H193.617C193.617 330.637 193.724 330.002 193.939 329.47C194.153 328.938 194.461 328.532 194.863 328.252C195.273 327.972 195.768 327.832 196.347 327.832C197.196 327.832 197.863 328.093 198.349 328.616C198.843 329.139 199.086 329.932 199.077 330.996L197.957 331.416ZM203.481 335.168C202.8 335.168 202.272 334.991 201.899 334.636C201.526 334.281 201.339 333.782 201.339 333.138V325.816H202.459V333.026C202.459 333.381 202.552 333.656 202.739 333.852C202.935 334.039 203.206 334.132 203.551 334.132C203.663 334.132 203.77 334.118 203.873 334.09C203.985 334.053 204.13 333.969 204.307 333.838L204.741 334.748C204.498 334.907 204.279 335.014 204.083 335.07C203.887 335.135 203.686 335.168 203.481 335.168ZM200.121 328.994V328H204.559V328.994H200.121ZM206.462 335V325.2H207.652V335H206.462ZM207.54 330.702V329.624H211.74V330.702H207.54ZM207.54 326.278V325.2H212.286V326.278H207.54ZM214.221 331.206C214.221 330.45 214.366 329.839 214.655 329.372C214.944 328.896 215.313 328.546 215.761 328.322C216.218 328.089 216.699 327.972 217.203 327.972V329.022C216.792 329.022 216.396 329.092 216.013 329.232C215.64 329.363 215.332 329.582 215.089 329.89C214.846 330.198 214.725 330.618 214.725 331.15L214.221 331.206ZM213.605 335V328H214.725V335H213.605ZM222.647 335L222.577 333.852V331.304C222.577 330.753 222.512 330.301 222.381 329.946C222.26 329.582 222.069 329.311 221.807 329.134C221.555 328.947 221.219 328.854 220.799 328.854C220.398 328.854 220.048 328.933 219.749 329.092C219.46 329.251 219.222 329.498 219.035 329.834L218.027 329.428C218.214 329.101 218.438 328.817 218.699 328.574C218.961 328.331 219.264 328.149 219.609 328.028C219.964 327.897 220.365 327.832 220.813 327.832C221.457 327.832 221.994 327.958 222.423 328.21C222.853 328.462 223.175 328.84 223.389 329.344C223.604 329.839 223.707 330.459 223.697 331.206L223.683 335H222.647ZM220.547 335.168C219.726 335.168 219.082 334.981 218.615 334.608C218.158 334.225 217.929 333.698 217.929 333.026C217.929 332.317 218.163 331.775 218.629 331.402C219.105 331.019 219.768 330.828 220.617 330.828H222.619V331.766H220.869C220.216 331.766 219.749 331.873 219.469 332.088C219.199 332.303 219.063 332.611 219.063 333.012C219.063 333.376 219.199 333.665 219.469 333.88C219.74 334.085 220.118 334.188 220.603 334.188C221.005 334.188 221.355 334.095 221.653 333.908C221.952 333.721 222.181 333.469 222.339 333.152C222.498 332.825 222.577 332.457 222.577 332.046H223.263C223.263 332.998 223.03 333.759 222.563 334.328C222.097 334.888 221.425 335.168 220.547 335.168ZM225.472 335V328H226.522L226.592 329.288V335H225.472ZM230.386 335V331.416L231.506 330.996V335H230.386ZM235.314 335V331.416L236.434 330.996V335H235.314ZM230.386 331.416C230.386 330.725 230.307 330.198 230.148 329.834C229.99 329.47 229.77 329.223 229.49 329.092C229.21 328.952 228.893 328.882 228.538 328.882C227.922 328.882 227.442 329.101 227.096 329.54C226.76 329.969 226.592 330.581 226.592 331.374H226.046C226.046 330.637 226.154 330.002 226.368 329.47C226.583 328.938 226.891 328.532 227.292 328.252C227.703 327.972 228.198 327.832 228.776 327.832C229.626 327.832 230.293 328.093 230.778 328.616C231.273 329.139 231.516 329.932 231.506 330.996L230.386 331.416ZM235.314 331.416C235.314 330.725 235.23 330.198 235.062 329.834C234.904 329.47 234.684 329.223 234.404 329.092C234.124 328.952 233.807 328.882 233.452 328.882C232.836 328.882 232.356 329.101 232.01 329.54C231.674 329.969 231.506 330.581 231.506 331.374H230.96C230.96 330.637 231.068 330.002 231.282 329.47C231.497 328.938 231.81 328.532 232.22 328.252C232.631 327.972 233.126 327.832 233.704 327.832C234.544 327.832 235.207 328.093 235.692 328.616C236.187 329.139 236.434 329.932 236.434 330.996L235.314 331.416ZM241.267 335.168C240.585 335.168 239.983 335.014 239.461 334.706C238.938 334.389 238.527 333.955 238.229 333.404C237.939 332.853 237.795 332.219 237.795 331.5C237.795 330.781 237.939 330.147 238.229 329.596C238.527 329.045 238.933 328.616 239.447 328.308C239.969 327.991 240.567 327.832 241.239 327.832C241.883 327.832 242.443 327.995 242.919 328.322C243.404 328.639 243.777 329.087 244.039 329.666C244.3 330.245 244.431 330.926 244.431 331.71H243.311C243.311 331.113 243.231 330.604 243.073 330.184C242.914 329.755 242.676 329.423 242.359 329.19C242.051 328.957 241.673 328.84 241.225 328.84C240.767 328.84 240.361 328.952 240.007 329.176C239.661 329.391 239.395 329.699 239.209 330.1C239.022 330.501 238.929 330.973 238.929 331.514C238.929 332.046 239.031 332.508 239.237 332.9C239.442 333.283 239.727 333.586 240.091 333.81C240.455 334.025 240.865 334.132 241.323 334.132C241.808 334.132 242.219 334.015 242.555 333.782C242.891 333.549 243.157 333.245 243.353 332.872L244.333 333.362C244.155 333.726 243.917 334.043 243.619 334.314C243.329 334.585 242.984 334.795 242.583 334.944C242.191 335.093 241.752 335.168 241.267 335.168ZM238.537 331.71L238.551 330.744H243.745V331.71H238.537ZM246.319 335.196C246.105 335.196 245.918 335.121 245.759 334.972C245.61 334.813 245.535 334.631 245.535 334.426C245.535 334.211 245.61 334.029 245.759 333.88C245.918 333.721 246.105 333.642 246.319 333.642C246.534 333.642 246.716 333.721 246.865 333.88C247.015 334.029 247.089 334.211 247.089 334.426C247.089 334.631 247.015 334.813 246.865 334.972C246.716 335.121 246.534 335.196 246.319 335.196ZM249.903 326.362C249.717 326.362 249.553 326.292 249.413 326.152C249.273 326.012 249.203 325.849 249.203 325.662C249.203 325.457 249.273 325.289 249.413 325.158C249.553 325.018 249.717 324.948 249.903 324.948C250.099 324.948 250.267 325.018 250.407 325.158C250.547 325.289 250.617 325.457 250.617 325.662C250.617 325.849 250.547 326.012 250.407 326.152C250.267 326.292 250.099 326.362 249.903 326.362ZM248.349 338.01C248.004 338.01 247.565 337.889 247.033 337.646L247.453 336.708C247.677 336.792 247.864 336.857 248.013 336.904C248.172 336.951 248.298 336.974 248.391 336.974C249.026 336.974 249.343 336.568 249.343 335.756V328H250.463V335.784C250.463 336.512 250.286 337.063 249.931 337.436C249.577 337.819 249.049 338.01 248.349 338.01ZM254.965 335.168C254.452 335.168 254.004 335.093 253.621 334.944C253.238 334.785 252.916 334.58 252.655 334.328C252.403 334.076 252.221 333.801 252.109 333.502L253.089 333.096C253.248 333.413 253.486 333.67 253.803 333.866C254.12 334.062 254.47 334.16 254.853 334.16C255.292 334.16 255.66 334.076 255.959 333.908C256.258 333.731 256.407 333.483 256.407 333.166C256.407 332.877 256.295 332.643 256.071 332.466C255.856 332.289 255.534 332.144 255.105 332.032L254.433 331.85C253.798 331.682 253.304 331.43 252.949 331.094C252.594 330.749 252.417 330.361 252.417 329.932C252.417 329.269 252.632 328.756 253.061 328.392C253.5 328.019 254.148 327.832 255.007 327.832C255.418 327.832 255.791 327.893 256.127 328.014C256.463 328.135 256.752 328.308 256.995 328.532C257.238 328.747 257.415 329.003 257.527 329.302L256.547 329.736C256.426 329.419 256.225 329.19 255.945 329.05C255.665 328.91 255.324 328.84 254.923 328.84C254.494 328.84 254.158 328.933 253.915 329.12C253.672 329.297 253.551 329.549 253.551 329.876C253.551 330.063 253.649 330.24 253.845 330.408C254.05 330.567 254.349 330.697 254.741 330.8L255.441 330.982C255.898 331.094 256.281 331.262 256.589 331.486C256.897 331.701 257.13 331.948 257.289 332.228C257.448 332.508 257.527 332.807 257.527 333.124C257.527 333.544 257.415 333.908 257.191 334.216C256.967 334.524 256.664 334.762 256.281 334.93C255.898 335.089 255.46 335.168 254.965 335.168ZM258.197 335L261.053 330.982L263.069 328H264.399L261.739 331.78L259.555 335H258.197ZM263.223 335L261.067 331.78L258.379 328H259.709L261.739 330.982L264.567 335H263.223Z" fill="#21333F"/>
<path fill-rule="evenodd" clip-rule="evenodd" d="M393.999 338.333C398.602 338.333 402.333 334.602 402.333 329.999C402.333 325.397 398.602 321.666 393.999 321.666C389.397 321.666 385.666 325.397 385.666 329.999C385.666 334.602 389.397 338.333 393.999 338.333ZM389.367 330.883C389.612 331.128 389.906 331.25 390.25 331.25C390.594 331.25 390.888 331.128 391.133 330.883C391.378 330.638 391.5 330.344 391.5 330C391.5 329.656 391.378 329.362 391.133 329.117C390.888 328.872 390.594 328.75 390.25 328.75C389.906 328.75 389.612 328.872 389.367 329.117C389.122 329.362 389 329.656 389 330C389 330.344 389.122 330.638 389.367 330.883ZM393.117 330.883C393.362 331.128 393.656 331.25 394 331.25C394.344 331.25 394.638 331.128 394.883 330.883C395.128 330.638 395.25 330.344 395.25 330C395.25 329.656 395.128 329.362 394.883 329.117C394.638 328.872 394.344 328.75 394 328.75C393.656 328.75 393.362 328.872 393.117 329.117C392.872 329.362 392.75 329.656 392.75 330C392.75 330.344 392.872 330.638 393.117 330.883ZM396.867 330.883C397.112 331.128 397.406 331.25 397.75 331.25C398.094 331.25 398.388 331.128 398.633 330.883C398.878 330.638 399 330.344 399 330C399 329.656 398.878 329.362 398.633 329.117C398.388 328.872 398.094 328.75 397.75 328.75C397.406 328.75 397.112 328.872 396.867 329.117C396.622 329.362 396.5 329.656 396.5 330C396.5 330.344 396.622 330.638 396.867 330.883Z" fill="#B26800"/>
<path fill-rule="evenodd" clip-rule="evenodd" d="M415.232 324.316C415.554 323.974 416.092 323.959 416.434 324.281L420.871 328.472C421.749 329.301 421.749 330.697 420.871 331.526L416.434 335.717C416.092 336.04 415.554 336.024 415.232 335.683C414.91 335.342 414.925 334.804 415.266 334.481L419.704 330.29C419.871 330.132 419.871 329.866 419.704 329.708L415.266 325.517C414.925 325.195 414.91 324.657 415.232 324.316Z" fill="#21333F" fill-opacity="0.5"/>
<path d="M124 376C124 367.163 131.163 360 140 360H420C428.837 360 436 367.163 436 376V388C436 396.837 428.837 404 420 404H140C131.163 404 124 396.837 124 388V376Z" fill="#F2F8FF"/>
<path fill-rule="evenodd" clip-rule="evenodd" d="M150 376.5H142C141.172 376.5 140.5 377.172 140.5 378V386C140.5 386.828 141.172 387.5 142 387.5H150C150.828 387.5 151.5 386.828 151.5 386V378C151.5 377.172 150.828 376.5 150 376.5ZM142 375C140.343 375 139 376.343 139 378V386C139 387.657 140.343 389 142 389H150C151.657 389 153 387.657 153 386V378C153 376.343 151.657 375 150 375H142Z" fill="#21333F" fill-opacity="0.75"/>
<path d="M172.284 387V385.908C172.779 385.908 173.236 385.815 173.656 385.628C174.076 385.432 174.445 385.157 174.762 384.802C175.089 384.447 175.341 384.041 175.518 383.584C175.705 383.117 175.798 382.623 175.798 382.1C175.798 381.577 175.705 381.087 175.518 380.63C175.341 380.163 175.089 379.753 174.762 379.398C174.445 379.043 174.076 378.773 173.656 378.586C173.236 378.39 172.779 378.292 172.284 378.292V377.2C173.208 377.2 174.02 377.41 174.72 377.83C175.429 378.241 175.985 378.815 176.386 379.552C176.787 380.289 176.988 381.139 176.988 382.1C176.988 383.052 176.787 383.897 176.386 384.634C175.985 385.371 175.429 385.95 174.72 386.37C174.02 386.79 173.208 387 172.284 387ZM170.254 387V385.908H172.284V387H170.254ZM169.302 387V377.2H170.492V387H169.302ZM170.254 378.292V377.2H172.284V378.292H170.254ZM181.713 387.168C181.031 387.168 180.425 387.014 179.893 386.706C179.37 386.389 178.959 385.955 178.661 385.404C178.362 384.853 178.213 384.219 178.213 383.5C178.213 382.781 178.357 382.147 178.647 381.596C178.945 381.045 179.356 380.616 179.879 380.308C180.411 379.991 181.013 379.832 181.685 379.832C182.375 379.832 182.982 379.991 183.505 380.308C184.037 380.616 184.447 381.045 184.737 381.596C185.035 382.147 185.185 382.781 185.185 383.5C185.185 384.219 185.035 384.853 184.737 385.404C184.447 385.955 184.041 386.389 183.519 386.706C182.996 387.014 182.394 387.168 181.713 387.168ZM181.713 386.132C182.179 386.132 182.585 386.02 182.931 385.796C183.276 385.572 183.547 385.264 183.743 384.872C183.948 384.48 184.051 384.023 184.051 383.5C184.051 382.977 183.948 382.52 183.743 382.128C183.547 381.736 183.271 381.428 182.917 381.204C182.562 380.98 182.151 380.868 181.685 380.868C181.227 380.868 180.821 380.98 180.467 381.204C180.121 381.428 179.846 381.736 179.641 382.128C179.445 382.52 179.347 382.977 179.347 383.5C179.347 384.013 179.445 384.471 179.641 384.872C179.846 385.264 180.126 385.572 180.481 385.796C180.845 386.02 181.255 386.132 181.713 386.132ZM189.862 387.168C189.171 387.168 188.56 387.014 188.028 386.706C187.496 386.389 187.08 385.955 186.782 385.404C186.483 384.853 186.334 384.219 186.334 383.5C186.334 382.781 186.478 382.147 186.768 381.596C187.066 381.045 187.482 380.616 188.014 380.308C188.546 379.991 189.152 379.832 189.834 379.832C190.506 379.832 191.108 379.986 191.64 380.294C192.172 380.602 192.578 381.036 192.858 381.596L191.836 382.058C191.649 381.685 191.378 381.395 191.024 381.19C190.669 380.975 190.263 380.868 189.806 380.868C189.348 380.868 188.942 380.98 188.588 381.204C188.242 381.428 187.967 381.741 187.762 382.142C187.566 382.534 187.468 382.987 187.468 383.5C187.468 384.013 187.566 384.471 187.762 384.872C187.967 385.264 188.247 385.572 188.602 385.796C188.966 386.02 189.376 386.132 189.834 386.132C190.291 386.132 190.697 386.015 191.052 385.782C191.416 385.549 191.691 385.222 191.878 384.802L192.9 385.264C192.62 385.861 192.214 386.328 191.682 386.664C191.15 387 190.543 387.168 189.862 387.168ZM199.116 387L199.046 385.712V380H200.166V387H199.116ZM194.132 384.004V380H195.252V383.584L194.132 384.004ZM195.252 383.584C195.252 384.275 195.331 384.802 195.49 385.166C195.649 385.53 195.868 385.782 196.148 385.922C196.437 386.053 196.759 386.118 197.114 386.118C197.721 386.118 198.192 385.899 198.528 385.46C198.873 385.021 199.046 384.41 199.046 383.626H199.592C199.592 384.363 199.485 384.998 199.27 385.53C199.055 386.062 198.743 386.468 198.332 386.748C197.931 387.028 197.441 387.168 196.862 387.168C196.013 387.168 195.341 386.907 194.846 386.384C194.361 385.861 194.123 385.068 194.132 384.004L195.252 383.584ZM202.121 387V380H203.171L203.241 381.288V387H202.121ZM207.035 387V383.416L208.155 382.996V387H207.035ZM211.963 387V383.416L213.083 382.996V387H211.963ZM207.035 383.416C207.035 382.725 206.955 382.198 206.797 381.834C206.638 381.47 206.419 381.223 206.139 381.092C205.859 380.952 205.541 380.882 205.187 380.882C204.571 380.882 204.09 381.101 203.745 381.54C203.409 381.969 203.241 382.581 203.241 383.374H202.695C202.695 382.637 202.802 382.002 203.017 381.47C203.231 380.938 203.539 380.532 203.941 380.252C204.351 379.972 204.846 379.832 205.425 379.832C206.274 379.832 206.941 380.093 207.427 380.616C207.921 381.139 208.164 381.932 208.155 382.996L207.035 383.416ZM211.963 383.416C211.963 382.725 211.879 382.198 211.711 381.834C211.552 381.47 211.333 381.223 211.053 381.092C210.773 380.952 210.455 380.882 210.101 380.882C209.485 380.882 209.004 381.101 208.659 381.54C208.323 381.969 208.155 382.581 208.155 383.374H207.609C207.609 382.637 207.716 382.002 207.931 381.47C208.145 380.938 208.458 380.532 208.869 380.252C209.279 379.972 209.774 379.832 210.353 379.832C211.193 379.832 211.855 380.093 212.341 380.616C212.835 381.139 213.083 381.932 213.083 382.996L211.963 383.416ZM217.915 387.168C217.234 387.168 216.632 387.014 216.109 386.706C215.586 386.389 215.176 385.955 214.877 385.404C214.588 384.853 214.443 384.219 214.443 383.5C214.443 382.781 214.588 382.147 214.877 381.596C215.176 381.045 215.582 380.616 216.095 380.308C216.618 379.991 217.215 379.832 217.887 379.832C218.531 379.832 219.091 379.995 219.567 380.322C220.052 380.639 220.426 381.087 220.687 381.666C220.948 382.245 221.079 382.926 221.079 383.71H219.959C219.959 383.113 219.88 382.604 219.721 382.184C219.562 381.755 219.324 381.423 219.007 381.19C218.699 380.957 218.321 380.84 217.873 380.84C217.416 380.84 217.01 380.952 216.655 381.176C216.31 381.391 216.044 381.699 215.857 382.1C215.67 382.501 215.577 382.973 215.577 383.514C215.577 384.046 215.68 384.508 215.885 384.9C216.09 385.283 216.375 385.586 216.739 385.81C217.103 386.025 217.514 386.132 217.971 386.132C218.456 386.132 218.867 386.015 219.203 385.782C219.539 385.549 219.805 385.245 220.001 384.872L220.981 385.362C220.804 385.726 220.566 386.043 220.267 386.314C219.978 386.585 219.632 386.795 219.231 386.944C218.839 387.093 218.4 387.168 217.915 387.168ZM215.185 383.71L215.199 382.744H220.393V383.71H215.185ZM222.492 387V380H223.542L223.612 381.288V387H222.492ZM227.406 387V383.416L228.526 382.996V387H227.406ZM227.406 383.416C227.406 382.725 227.326 382.198 227.168 381.834C227.009 381.47 226.79 381.223 226.51 381.092C226.23 380.952 225.912 380.882 225.558 380.882C224.942 380.882 224.461 381.101 224.116 381.54C223.78 381.969 223.612 382.581 223.612 383.374H223.066C223.066 382.637 223.173 382.002 223.388 381.47C223.602 380.938 223.91 380.532 224.312 380.252C224.722 379.972 225.217 379.832 225.796 379.832C226.645 379.832 227.312 380.093 227.798 380.616C228.292 381.139 228.535 381.932 228.526 382.996L227.406 383.416ZM232.93 387.168C232.249 387.168 231.722 386.991 231.348 386.636C230.975 386.281 230.788 385.782 230.788 385.138V377.816H231.908V385.026C231.908 385.381 232.002 385.656 232.188 385.852C232.384 386.039 232.655 386.132 233 386.132C233.112 386.132 233.22 386.118 233.322 386.09C233.434 386.053 233.579 385.969 233.756 385.838L234.19 386.748C233.948 386.907 233.728 387.014 233.532 387.07C233.336 387.135 233.136 387.168 232.93 387.168ZM229.57 380.994V380H234.008V380.994H229.57ZM239.86 387L239.79 385.852V383.304C239.79 382.753 239.725 382.301 239.594 381.946C239.473 381.582 239.282 381.311 239.02 381.134C238.768 380.947 238.432 380.854 238.012 380.854C237.611 380.854 237.261 380.933 236.962 381.092C236.673 381.251 236.435 381.498 236.248 381.834L235.24 381.428C235.427 381.101 235.651 380.817 235.912 380.574C236.174 380.331 236.477 380.149 236.822 380.028C237.177 379.897 237.578 379.832 238.026 379.832C238.67 379.832 239.207 379.958 239.636 380.21C240.066 380.462 240.388 380.84 240.602 381.344C240.817 381.839 240.92 382.459 240.91 383.206L240.896 387H239.86ZM237.76 387.168C236.939 387.168 236.295 386.981 235.828 386.608C235.371 386.225 235.142 385.698 235.142 385.026C235.142 384.317 235.376 383.775 235.842 383.402C236.318 383.019 236.981 382.828 237.83 382.828H239.832V383.766H238.082C237.429 383.766 236.962 383.873 236.682 384.088C236.412 384.303 236.276 384.611 236.276 385.012C236.276 385.376 236.412 385.665 236.682 385.88C236.953 386.085 237.331 386.188 237.816 386.188C238.218 386.188 238.568 386.095 238.866 385.908C239.165 385.721 239.394 385.469 239.552 385.152C239.711 384.825 239.79 384.457 239.79 384.046H240.476C240.476 384.998 240.243 385.759 239.776 386.328C239.31 386.888 238.638 387.168 237.76 387.168ZM245.317 387.168C244.636 387.168 244.108 386.991 243.735 386.636C243.362 386.281 243.175 385.782 243.175 385.138V377.816H244.295V385.026C244.295 385.381 244.388 385.656 244.575 385.852C244.771 386.039 245.042 386.132 245.387 386.132C245.499 386.132 245.606 386.118 245.709 386.09C245.821 386.053 245.966 385.969 246.143 385.838L246.577 386.748C246.334 386.907 246.115 387.014 245.919 387.07C245.723 387.135 245.522 387.168 245.317 387.168ZM241.957 380.994V380H246.395V380.994H241.957ZM248.046 387L248.074 380H249.194L249.166 387H248.046ZM248.62 378.376C248.433 378.376 248.27 378.306 248.13 378.166C247.99 378.026 247.92 377.863 247.92 377.676C247.92 377.48 247.99 377.317 248.13 377.186C248.27 377.046 248.433 376.976 248.62 376.976C248.816 376.976 248.979 377.046 249.11 377.186C249.25 377.317 249.32 377.48 249.32 377.676C249.32 377.863 249.25 378.026 249.11 378.166C248.979 378.306 248.816 378.376 248.62 378.376ZM254.324 387.168C253.643 387.168 253.036 387.014 252.504 386.706C251.981 386.389 251.571 385.955 251.272 385.404C250.973 384.853 250.824 384.219 250.824 383.5C250.824 382.781 250.969 382.147 251.258 381.596C251.557 381.045 251.967 380.616 252.49 380.308C253.022 379.991 253.624 379.832 254.296 379.832C254.987 379.832 255.593 379.991 256.116 380.308C256.648 380.616 257.059 381.045 257.348 381.596C257.647 382.147 257.796 382.781 257.796 383.5C257.796 384.219 257.647 384.853 257.348 385.404C257.059 385.955 256.653 386.389 256.13 386.706C255.607 387.014 255.005 387.168 254.324 387.168ZM254.324 386.132C254.791 386.132 255.197 386.02 255.542 385.796C255.887 385.572 256.158 385.264 256.354 384.872C256.559 384.48 256.662 384.023 256.662 383.5C256.662 382.977 256.559 382.52 256.354 382.128C256.158 381.736 255.883 381.428 255.528 381.204C255.173 380.98 254.763 380.868 254.296 380.868C253.839 380.868 253.433 380.98 253.078 381.204C252.733 381.428 252.457 381.736 252.252 382.128C252.056 382.52 251.958 382.977 251.958 383.5C251.958 384.013 252.056 384.471 252.252 384.872C252.457 385.264 252.737 385.572 253.092 385.796C253.456 386.02 253.867 386.132 254.324 386.132ZM259.351 387V380H260.401L260.471 381.288V387H259.351ZM264.265 387V383.416L265.385 382.996V387H264.265ZM264.265 383.416C264.265 382.725 264.186 382.198 264.027 381.834C263.868 381.47 263.649 381.223 263.369 381.092C263.089 380.952 262.772 380.882 262.417 380.882C261.801 380.882 261.32 381.101 260.975 381.54C260.639 381.969 260.471 382.581 260.471 383.374H259.925C259.925 382.637 260.032 382.002 260.247 381.47C260.462 380.938 260.77 380.532 261.171 380.252C261.582 379.972 262.076 379.832 262.655 379.832C263.504 379.832 264.172 380.093 264.657 380.616C265.152 381.139 265.394 381.932 265.385 382.996L264.265 383.416ZM267.634 387.196C267.419 387.196 267.232 387.121 267.074 386.972C266.924 386.813 266.85 386.631 266.85 386.426C266.85 386.211 266.924 386.029 267.074 385.88C267.232 385.721 267.419 385.642 267.634 385.642C267.848 385.642 268.03 385.721 268.18 385.88C268.329 386.029 268.404 386.211 268.404 386.426C268.404 386.631 268.329 386.813 268.18 386.972C268.03 387.121 267.848 387.196 267.634 387.196ZM270.07 387V380H271.12L271.19 381.288V387H270.07ZM274.984 387V383.416L276.104 382.996V387H274.984ZM279.912 387V383.416L281.032 382.996V387H279.912ZM274.984 383.416C274.984 382.725 274.905 382.198 274.746 381.834C274.587 381.47 274.368 381.223 274.088 381.092C273.808 380.952 273.491 380.882 273.136 380.882C272.52 380.882 272.039 381.101 271.694 381.54C271.358 381.969 271.19 382.581 271.19 383.374H270.644C270.644 382.637 270.751 382.002 270.966 381.47C271.181 380.938 271.489 380.532 271.89 380.252C272.301 379.972 272.795 379.832 273.374 379.832C274.223 379.832 274.891 380.093 275.376 380.616C275.871 381.139 276.113 381.932 276.104 382.996L274.984 383.416ZM279.912 383.416C279.912 382.725 279.828 382.198 279.66 381.834C279.501 381.47 279.282 381.223 279.002 381.092C278.722 380.952 278.405 380.882 278.05 380.882C277.434 380.882 276.953 381.101 276.608 381.54C276.272 381.969 276.104 382.581 276.104 383.374H275.558C275.558 382.637 275.665 382.002 275.88 381.47C276.095 380.938 276.407 380.532 276.818 380.252C277.229 379.972 277.723 379.832 278.302 379.832C279.142 379.832 279.805 380.093 280.29 380.616C280.785 381.139 281.032 381.932 281.032 382.996L279.912 383.416ZM287.978 387L287.922 385.698V377.2H289.042V387H287.978ZM285.556 387.168C284.931 387.168 284.38 387.014 283.904 386.706C283.428 386.398 283.055 385.969 282.784 385.418C282.523 384.858 282.392 384.219 282.392 383.5C282.392 382.772 282.523 382.133 282.784 381.582C283.055 381.031 283.428 380.602 283.904 380.294C284.38 379.986 284.931 379.832 285.556 379.832C286.144 379.832 286.658 379.986 287.096 380.294C287.544 380.602 287.89 381.031 288.132 381.582C288.375 382.133 288.496 382.772 288.496 383.5C288.496 384.219 288.375 384.858 288.132 385.418C287.89 385.969 287.544 386.398 287.096 386.706C286.658 387.014 286.144 387.168 285.556 387.168ZM285.808 386.146C286.219 386.146 286.583 386.034 286.9 385.81C287.218 385.586 287.465 385.273 287.642 384.872C287.829 384.471 287.922 384.013 287.922 383.5C287.922 382.987 287.829 382.529 287.642 382.128C287.465 381.727 287.218 381.414 286.9 381.19C286.583 380.966 286.214 380.854 285.794 380.854C285.356 380.854 284.964 380.966 284.618 381.19C284.282 381.414 284.016 381.727 283.82 382.128C283.624 382.529 283.526 382.987 283.526 383.5C283.526 384.013 283.624 384.471 283.82 384.872C284.016 385.273 284.287 385.586 284.632 385.81C284.978 386.034 285.37 386.146 285.808 386.146Z" fill="#21333F"/>
<mask id="mask2_12203_6327" style="mask-type:alpha" maskUnits="userSpaceOnUse" x="384" y="372" width="20" height="20">
<rect x="384" y="372" width="20" height="20" fill="#D9D9D9"/>
</mask>
<g mask="url(#mask2_12203_6327)">
<path d="M398.166 382.833V381.166H389.833V382.833H398.166ZM393.999 390.333C392.847 390.333 391.763 390.114 390.749 389.676C389.735 389.239 388.854 388.645 388.104 387.895C387.354 387.145 386.76 386.263 386.322 385.249C385.885 384.235 385.666 383.152 385.666 381.999C385.666 380.847 385.885 379.763 386.322 378.749C386.76 377.735 387.354 376.854 388.104 376.104C388.854 375.354 389.735 374.76 390.749 374.322C391.763 373.885 392.847 373.666 393.999 373.666C395.152 373.666 396.235 373.885 397.249 374.322C398.263 374.76 399.145 375.354 399.895 376.104C400.645 376.854 401.239 377.735 401.676 378.749C402.114 379.763 402.333 380.847 402.333 381.999C402.333 383.152 402.114 384.235 401.676 385.249C401.239 386.263 400.645 387.145 399.895 387.895C399.145 388.645 398.263 389.239 397.249 389.676C396.235 390.114 395.152 390.333 393.999 390.333Z" fill="#AC2024"/>
</g>
<path fill-rule="evenodd" clip-rule="evenodd" d="M415.232 376.316C415.554 375.974 416.092 375.959 416.434 376.281L420.871 380.472C421.749 381.301 421.749 382.697 420.871 383.526L416.434 387.717C416.092 388.04 415.554 388.024 415.232 387.683C414.91 387.342 414.925 386.804 415.266 386.481L419.704 382.29C419.871 382.132 419.871 381.866 419.704 381.708L415.266 377.517C414.925 377.195 414.91 376.657 415.232 376.316Z" fill="#21333F" fill-opacity="0.5"/>
</g>
<defs>
<clipPath id="clip0_12203_6327">
<rect width="560" height="440" fill="white"/>
</clipPath>
</defs>
</svg>
