<svg width="720" height="532" viewBox="0 0 720 532" fill="none" xmlns="http://www.w3.org/2000/svg">
<path d="M379 62V454" stroke="#8194A2" stroke-width="2" stroke-dasharray="4 4"/>
<path d="M591 62V454" stroke="#8194A2" stroke-width="2" stroke-dasharray="4 4"/>
<rect x="305" y="54" width="148" height="48" rx="24" fill="#687A87"/>
<path d="M358.008 84.192C357.421 84.192 356.883 84.1227 356.392 83.984C355.912 83.8453 355.485 83.6533 355.112 83.408C354.749 83.1627 354.445 82.8907 354.2 82.592C353.965 82.2827 353.8 81.9627 353.704 81.632L355.528 81.072C355.667 81.4667 355.939 81.8133 356.344 82.112C356.749 82.4107 357.251 82.5653 357.848 82.576C358.541 82.576 359.091 82.432 359.496 82.144C359.901 81.856 360.104 81.4773 360.104 81.008C360.104 80.5813 359.933 80.2347 359.592 79.968C359.251 79.6907 358.792 79.4773 358.216 79.328L356.84 78.976C356.317 78.8373 355.843 78.6347 355.416 78.368C355 78.1013 354.669 77.7653 354.424 77.36C354.189 76.9547 354.072 76.4747 354.072 75.92C354.072 74.8747 354.413 74.064 355.096 73.488C355.779 72.9013 356.755 72.608 358.024 72.608C358.739 72.608 359.363 72.72 359.896 72.944C360.44 73.1573 360.888 73.456 361.24 73.84C361.592 74.2133 361.853 74.64 362.024 75.12L360.232 75.696C360.072 75.2693 359.795 74.9173 359.4 74.64C359.005 74.3627 358.515 74.224 357.928 74.224C357.32 74.224 356.84 74.368 356.488 74.656C356.147 74.944 355.976 75.344 355.976 75.856C355.976 76.272 356.109 76.5973 356.376 76.832C356.653 77.056 357.027 77.2267 357.496 77.344L358.872 77.68C359.875 77.9253 360.653 78.3467 361.208 78.944C361.763 79.5413 362.04 80.2027 362.04 80.928C362.04 81.568 361.885 82.1333 361.576 82.624C361.267 83.1147 360.808 83.4987 360.2 83.776C359.603 84.0533 358.872 84.192 358.008 84.192ZM363.87 84L363.886 76H365.662L365.646 84H363.87ZM364.766 74.48C364.478 74.48 364.227 74.3787 364.014 74.176C363.811 73.9627 363.71 73.712 363.71 73.424C363.71 73.136 363.811 72.8907 364.014 72.688C364.227 72.4853 364.478 72.384 364.766 72.384C365.054 72.384 365.299 72.4853 365.502 72.688C365.715 72.8907 365.822 73.136 365.822 73.424C365.822 73.712 365.715 73.9627 365.502 74.176C365.299 74.3787 365.054 74.48 364.766 74.48ZM371.198 87.408C370.632 87.408 370.12 87.36 369.662 87.264C369.214 87.168 368.835 87.056 368.526 86.928C368.216 86.8 367.976 86.6773 367.806 86.56L368.494 85.12C368.643 85.1947 368.84 85.2853 369.086 85.392C369.342 85.5093 369.64 85.6107 369.982 85.696C370.323 85.7813 370.707 85.824 371.134 85.824C371.592 85.824 372.003 85.728 372.366 85.536C372.728 85.3547 373.011 85.072 373.214 84.688C373.416 84.304 373.518 83.8133 373.518 83.216V76H375.31V83.168C375.31 84.0747 375.139 84.8427 374.798 85.472C374.456 86.112 373.976 86.592 373.358 86.912C372.739 87.2427 372.019 87.408 371.198 87.408ZM370.926 83.84C370.2 83.84 369.566 83.6747 369.022 83.344C368.488 83.0133 368.067 82.5547 367.758 81.968C367.459 81.3707 367.31 80.6827 367.31 79.904C367.31 79.072 367.459 78.352 367.758 77.744C368.067 77.136 368.488 76.6613 369.022 76.32C369.566 75.9787 370.2 75.808 370.926 75.808C371.576 75.808 372.142 75.9787 372.622 76.32C373.112 76.6613 373.491 77.1413 373.758 77.76C374.024 78.368 374.158 79.088 374.158 79.92C374.158 80.7093 374.024 81.3973 373.758 81.984C373.491 82.5707 373.112 83.0293 372.622 83.36C372.142 83.68 371.576 83.84 370.926 83.84ZM371.422 82.32C371.827 82.32 372.179 82.2133 372.478 82C372.787 81.7867 373.027 81.4987 373.198 81.136C373.368 80.7627 373.454 80.336 373.454 79.856C373.454 79.3653 373.368 78.9387 373.198 78.576C373.027 78.2027 372.787 77.9147 372.478 77.712C372.168 77.4987 371.811 77.392 371.406 77.392C370.979 77.392 370.6 77.4987 370.27 77.712C369.95 77.9147 369.694 78.2027 369.502 78.576C369.32 78.9387 369.23 79.3653 369.23 79.856C369.23 80.336 369.32 80.7627 369.502 81.136C369.694 81.4987 369.955 81.7867 370.286 82C370.616 82.2133 370.995 82.32 371.422 82.32ZM377.289 84V76H378.969L379.081 77.472V84H377.289ZM382.713 84V79.904L384.505 79.424V84H382.713ZM382.713 79.904C382.713 79.264 382.638 78.7733 382.489 78.432C382.35 78.08 382.148 77.8347 381.881 77.696C381.625 77.5573 381.321 77.488 380.969 77.488C380.372 77.4773 379.908 77.6747 379.577 78.08C379.246 78.4853 379.081 79.0667 379.081 79.824H378.409C378.409 78.9813 378.532 78.2613 378.777 77.664C379.022 77.056 379.374 76.5973 379.833 76.288C380.292 75.968 380.836 75.808 381.465 75.808C382.436 75.808 383.182 76.1067 383.705 76.704C384.238 77.2907 384.505 78.1973 384.505 79.424L382.713 79.904ZM391.168 84L391.088 82.496V79.888C391.088 79.344 391.029 78.8907 390.912 78.528C390.795 78.1653 390.608 77.888 390.352 77.696C390.107 77.504 389.781 77.408 389.376 77.408C389.003 77.408 388.672 77.488 388.384 77.648C388.096 77.808 387.856 78.0533 387.664 78.384L386.032 77.808C386.213 77.456 386.448 77.1253 386.736 76.816C387.024 76.5067 387.387 76.2613 387.824 76.08C388.272 75.8987 388.8 75.808 389.408 75.808C390.187 75.808 390.832 75.952 391.344 76.24C391.867 76.528 392.256 76.9547 392.512 77.52C392.768 78.0853 392.896 78.784 392.896 79.616L392.848 84H391.168ZM388.896 84.192C387.936 84.192 387.189 83.9787 386.656 83.552C386.133 83.1253 385.872 82.5227 385.872 81.744C385.872 80.912 386.149 80.2773 386.704 79.84C387.269 79.4027 388.053 79.184 389.056 79.184H391.2V80.56H389.632C388.917 80.56 388.416 80.6613 388.128 80.864C387.84 81.056 387.696 81.3333 387.696 81.696C387.696 82.0053 387.819 82.2507 388.064 82.432C388.32 82.6027 388.672 82.688 389.12 82.688C389.515 82.688 389.856 82.5973 390.144 82.416C390.443 82.224 390.672 81.9787 390.832 81.68C391.003 81.3707 391.088 81.04 391.088 80.688H391.744C391.744 81.776 391.509 82.6347 391.04 83.264C390.581 83.8827 389.867 84.192 388.896 84.192ZM394.711 84V72.8H396.503V84H394.711ZM401.404 84.192C400.871 84.192 400.38 84.112 399.932 83.952C399.484 83.792 399.1 83.568 398.78 83.28C398.46 82.9813 398.215 82.6347 398.044 82.24L399.596 81.552C399.756 81.8507 399.991 82.1013 400.3 82.304C400.62 82.5067 400.972 82.608 401.356 82.608C401.772 82.608 402.103 82.5387 402.348 82.4C402.604 82.2507 402.732 82.048 402.732 81.792C402.732 81.5467 402.636 81.36 402.444 81.232C402.252 81.0933 401.98 80.9813 401.628 80.896L400.876 80.688C400.119 80.496 399.527 80.192 399.1 79.776C398.673 79.3493 398.46 78.864 398.46 78.32C398.46 77.52 398.716 76.9013 399.228 76.464C399.751 76.0267 400.497 75.808 401.468 75.808C401.959 75.808 402.407 75.8827 402.812 76.032C403.228 76.1707 403.585 76.3733 403.884 76.64C404.183 76.896 404.391 77.2 404.508 77.552L403.02 78.224C402.913 77.9573 402.711 77.7547 402.412 77.616C402.113 77.4667 401.783 77.392 401.42 77.392C401.057 77.392 400.775 77.472 400.572 77.632C400.369 77.7813 400.268 77.9947 400.268 78.272C400.268 78.432 400.359 78.5813 400.54 78.72C400.721 78.848 400.983 78.9547 401.324 79.04L402.268 79.264C402.791 79.392 403.217 79.5947 403.548 79.872C403.879 80.1387 404.124 80.4427 404.284 80.784C404.444 81.1147 404.524 81.4507 404.524 81.792C404.524 82.272 404.385 82.6933 404.108 83.056C403.841 83.4187 403.473 83.7013 403.004 83.904C402.535 84.096 402.001 84.192 401.404 84.192Z" fill="white"/>
<rect x="306" y="135" width="146" height="58" rx="15" fill="#E6F4FF"/>
<rect x="306" y="135" width="146" height="58" rx="15" stroke="#9AAEBC" stroke-width="2"/>
<path d="M351.364 170L355.748 158.8H357.732L353.204 170H351.364ZM351.172 170L346.644 158.8H348.612L352.996 170H351.172ZM363.074 170L362.994 168.496V165.888C362.994 165.344 362.936 164.891 362.818 164.528C362.701 164.165 362.514 163.888 362.258 163.696C362.013 163.504 361.688 163.408 361.282 163.408C360.909 163.408 360.578 163.488 360.29 163.648C360.002 163.808 359.762 164.053 359.57 164.384L357.938 163.808C358.12 163.456 358.354 163.125 358.642 162.816C358.93 162.507 359.293 162.261 359.73 162.08C360.178 161.899 360.706 161.808 361.314 161.808C362.093 161.808 362.738 161.952 363.25 162.24C363.773 162.528 364.162 162.955 364.418 163.52C364.674 164.085 364.802 164.784 364.802 165.616L364.754 170H363.074ZM360.802 170.192C359.842 170.192 359.096 169.979 358.562 169.552C358.04 169.125 357.778 168.523 357.778 167.744C357.778 166.912 358.056 166.277 358.61 165.84C359.176 165.403 359.96 165.184 360.962 165.184H363.106V166.56H361.538C360.824 166.56 360.322 166.661 360.034 166.864C359.746 167.056 359.602 167.333 359.602 167.696C359.602 168.005 359.725 168.251 359.97 168.432C360.226 168.603 360.578 168.688 361.026 168.688C361.421 168.688 361.762 168.597 362.05 168.416C362.349 168.224 362.578 167.979 362.738 167.68C362.909 167.371 362.994 167.04 362.994 166.688H363.65C363.65 167.776 363.416 168.635 362.946 169.264C362.488 169.883 361.773 170.192 360.802 170.192ZM366.617 170V158.8H368.409V170H366.617ZM375.758 170L375.662 168.528V162H377.438V170H375.758ZM370.222 166.576V162H372.014V166.096L370.222 166.576ZM372.014 166.096C372.014 166.725 372.089 167.216 372.238 167.568C372.388 167.92 372.59 168.165 372.846 168.304C373.113 168.443 373.417 168.512 373.758 168.512C374.366 168.523 374.836 168.325 375.166 167.92C375.497 167.515 375.662 166.933 375.662 166.176H376.334C376.334 167.019 376.206 167.744 375.95 168.352C375.705 168.949 375.353 169.408 374.894 169.728C374.446 170.037 373.908 170.192 373.278 170.192C372.308 170.192 371.556 169.893 371.022 169.296C370.489 168.699 370.222 167.792 370.222 166.576L372.014 166.096ZM382.998 170.192C382.219 170.192 381.526 170.016 380.918 169.664C380.32 169.301 379.846 168.805 379.493 168.176C379.152 167.547 378.982 166.821 378.982 166C378.982 165.179 379.158 164.453 379.51 163.824C379.862 163.195 380.342 162.704 380.95 162.352C381.568 161.989 382.272 161.808 383.062 161.808C383.776 161.808 384.416 161.995 384.982 162.368C385.558 162.731 386.016 163.259 386.358 163.952C386.699 164.645 386.87 165.472 386.87 166.432H385.062C385.062 165.739 384.976 165.168 384.806 164.72C384.646 164.272 384.411 163.941 384.102 163.728C383.803 163.504 383.435 163.392 382.998 163.392C382.539 163.392 382.144 163.493 381.814 163.696C381.483 163.899 381.232 164.197 381.062 164.592C380.891 164.976 380.806 165.461 380.806 166.048C380.806 166.571 380.907 167.019 381.11 167.392C381.323 167.765 381.606 168.053 381.958 168.256C382.32 168.448 382.72 168.544 383.158 168.544C383.638 168.544 384.032 168.437 384.342 168.224C384.651 168 384.891 167.717 385.062 167.376L386.71 168.08C386.486 168.507 386.198 168.88 385.846 169.2C385.504 169.52 385.094 169.765 384.614 169.936C384.144 170.107 383.606 170.192 382.998 170.192ZM380.166 166.432V165.008H385.926V166.432H380.166ZM389.506 164.24C389.197 164.24 388.93 164.128 388.706 163.904C388.482 163.68 388.37 163.413 388.37 163.104C388.37 162.795 388.482 162.533 388.706 162.32C388.93 162.096 389.197 161.984 389.506 161.984C389.805 161.984 390.066 162.096 390.29 162.32C390.514 162.533 390.626 162.795 390.626 163.104C390.626 163.413 390.514 163.68 390.29 163.904C390.066 164.128 389.805 164.24 389.506 164.24ZM389.522 170.032C389.213 170.032 388.946 169.92 388.722 169.696C388.498 169.472 388.386 169.205 388.386 168.896C388.386 168.587 388.498 168.325 388.722 168.112C388.946 167.888 389.213 167.776 389.522 167.776C389.831 167.776 390.093 167.888 390.306 168.112C390.53 168.325 390.642 168.587 390.642 168.896C390.642 169.205 390.53 169.472 390.306 169.696C390.093 169.92 389.831 170.032 389.522 170.032ZM398.873 170L398.889 159.792L399.065 158.8H400.681L400.665 170H398.873ZM396.457 162.08V160.4C396.702 160.411 396.98 160.341 397.289 160.192C397.609 160.032 397.924 159.824 398.233 159.568C398.542 159.312 398.82 159.051 399.065 158.784L400.217 159.984C399.844 160.379 399.454 160.741 399.049 161.072C398.644 161.403 398.222 161.659 397.785 161.84C397.358 162.021 396.916 162.101 396.457 162.08ZM405 169.408L403.192 168.576C403.192 168.245 403.277 167.904 403.448 167.552C403.619 167.189 403.859 166.827 404.168 166.464C404.488 166.101 404.861 165.76 405.288 165.44L407.24 164.032C407.485 163.861 407.709 163.664 407.912 163.44C408.125 163.216 408.296 162.981 408.424 162.736C408.552 162.48 408.616 162.229 408.616 161.984C408.616 161.675 408.536 161.392 408.376 161.136C408.227 160.88 408.008 160.677 407.72 160.528C407.443 160.379 407.101 160.304 406.696 160.304C406.333 160.304 406.008 160.379 405.72 160.528C405.443 160.667 405.213 160.853 405.032 161.088C404.851 161.323 404.723 161.579 404.648 161.856L402.744 161.504C402.851 160.992 403.075 160.517 403.416 160.08C403.768 159.632 404.216 159.275 404.76 159.008C405.315 158.741 405.944 158.608 406.648 158.608C407.437 158.608 408.12 158.752 408.696 159.04C409.283 159.328 409.731 159.728 410.04 160.24C410.36 160.741 410.52 161.317 410.52 161.968C410.52 162.629 410.339 163.227 409.976 163.76C409.624 164.283 409.128 164.784 408.488 165.264L406.696 166.592C406.397 166.805 406.115 167.051 405.848 167.328C405.592 167.595 405.384 167.899 405.224 168.24C405.075 168.581 405 168.971 405 169.408ZM403.192 170V168.576L404.568 168.352H410.664V170H403.192Z" fill="#21333F"/>
<rect x="306" y="227" width="146" height="58" rx="15" fill="#E6F4FF"/>
<rect x="306" y="227" width="146" height="58" rx="15" stroke="#9AAEBC" stroke-width="2"/>
<path d="M349.364 262L353.748 250.8H355.732L351.204 262H349.364ZM349.172 262L344.644 250.8H346.612L350.996 262H349.172ZM361.074 262L360.994 260.496V257.888C360.994 257.344 360.936 256.891 360.818 256.528C360.701 256.165 360.514 255.888 360.258 255.696C360.013 255.504 359.688 255.408 359.282 255.408C358.909 255.408 358.578 255.488 358.29 255.648C358.002 255.808 357.762 256.053 357.57 256.384L355.938 255.808C356.12 255.456 356.354 255.125 356.642 254.816C356.93 254.507 357.293 254.261 357.73 254.08C358.178 253.899 358.706 253.808 359.314 253.808C360.093 253.808 360.738 253.952 361.25 254.24C361.773 254.528 362.162 254.955 362.418 255.52C362.674 256.085 362.802 256.784 362.802 257.616L362.754 262H361.074ZM358.802 262.192C357.842 262.192 357.096 261.979 356.562 261.552C356.04 261.125 355.778 260.523 355.778 259.744C355.778 258.912 356.056 258.277 356.61 257.84C357.176 257.403 357.96 257.184 358.962 257.184H361.106V258.56H359.538C358.824 258.56 358.322 258.661 358.034 258.864C357.746 259.056 357.602 259.333 357.602 259.696C357.602 260.005 357.725 260.251 357.97 260.432C358.226 260.603 358.578 260.688 359.026 260.688C359.421 260.688 359.762 260.597 360.05 260.416C360.349 260.224 360.578 259.979 360.738 259.68C360.909 259.371 360.994 259.04 360.994 258.688H361.65C361.65 259.776 361.416 260.635 360.946 261.264C360.488 261.883 359.773 262.192 358.802 262.192ZM364.617 262V250.8H366.409V262H364.617ZM373.758 262L373.662 260.528V254H375.438V262H373.758ZM368.222 258.576V254H370.014V258.096L368.222 258.576ZM370.014 258.096C370.014 258.725 370.089 259.216 370.238 259.568C370.388 259.92 370.59 260.165 370.846 260.304C371.113 260.443 371.417 260.512 371.758 260.512C372.366 260.523 372.836 260.325 373.166 259.92C373.497 259.515 373.662 258.933 373.662 258.176H374.334C374.334 259.019 374.206 259.744 373.95 260.352C373.705 260.949 373.353 261.408 372.894 261.728C372.446 262.037 371.908 262.192 371.278 262.192C370.308 262.192 369.556 261.893 369.022 261.296C368.489 260.699 368.222 259.792 368.222 258.576L370.014 258.096ZM380.998 262.192C380.219 262.192 379.526 262.016 378.918 261.664C378.32 261.301 377.846 260.805 377.493 260.176C377.152 259.547 376.982 258.821 376.982 258C376.982 257.179 377.158 256.453 377.51 255.824C377.862 255.195 378.342 254.704 378.95 254.352C379.568 253.989 380.272 253.808 381.062 253.808C381.776 253.808 382.416 253.995 382.982 254.368C383.558 254.731 384.016 255.259 384.358 255.952C384.699 256.645 384.87 257.472 384.87 258.432H383.062C383.062 257.739 382.976 257.168 382.806 256.72C382.646 256.272 382.411 255.941 382.102 255.728C381.803 255.504 381.435 255.392 380.998 255.392C380.539 255.392 380.144 255.493 379.814 255.696C379.483 255.899 379.232 256.197 379.062 256.592C378.891 256.976 378.806 257.461 378.806 258.048C378.806 258.571 378.907 259.019 379.11 259.392C379.323 259.765 379.606 260.053 379.958 260.256C380.32 260.448 380.72 260.544 381.158 260.544C381.638 260.544 382.032 260.437 382.342 260.224C382.651 260 382.891 259.717 383.062 259.376L384.71 260.08C384.486 260.507 384.198 260.88 383.846 261.2C383.504 261.52 383.094 261.765 382.614 261.936C382.144 262.107 381.606 262.192 380.998 262.192ZM378.166 258.432V257.008H383.926V258.432H378.166ZM387.506 256.24C387.197 256.24 386.93 256.128 386.706 255.904C386.482 255.68 386.37 255.413 386.37 255.104C386.37 254.795 386.482 254.533 386.706 254.32C386.93 254.096 387.197 253.984 387.506 253.984C387.805 253.984 388.066 254.096 388.29 254.32C388.514 254.533 388.626 254.795 388.626 255.104C388.626 255.413 388.514 255.68 388.29 255.904C388.066 256.128 387.805 256.24 387.506 256.24ZM387.522 262.032C387.213 262.032 386.946 261.92 386.722 261.696C386.498 261.472 386.386 261.205 386.386 260.896C386.386 260.587 386.498 260.325 386.722 260.112C386.946 259.888 387.213 259.776 387.522 259.776C387.831 259.776 388.093 259.888 388.306 260.112C388.53 260.325 388.642 260.587 388.642 260.896C388.642 261.205 388.53 261.472 388.306 261.696C388.093 261.92 387.831 262.032 387.522 262.032ZM396.297 261.408L394.489 260.576C394.489 260.245 394.574 259.904 394.745 259.552C394.916 259.189 395.156 258.827 395.465 258.464C395.785 258.101 396.158 257.76 396.585 257.44L398.537 256.032C398.782 255.861 399.006 255.664 399.209 255.44C399.422 255.216 399.593 254.981 399.721 254.736C399.849 254.48 399.913 254.229 399.913 253.984C399.913 253.675 399.833 253.392 399.673 253.136C399.524 252.88 399.305 252.677 399.017 252.528C398.74 252.379 398.398 252.304 397.993 252.304C397.63 252.304 397.305 252.379 397.017 252.528C396.74 252.667 396.51 252.853 396.329 253.088C396.148 253.323 396.02 253.579 395.945 253.856L394.041 253.504C394.148 252.992 394.372 252.517 394.713 252.08C395.065 251.632 395.513 251.275 396.057 251.008C396.612 250.741 397.241 250.608 397.945 250.608C398.734 250.608 399.417 250.752 399.993 251.04C400.58 251.328 401.028 251.728 401.337 252.24C401.657 252.741 401.817 253.317 401.817 253.968C401.817 254.629 401.636 255.227 401.273 255.76C400.921 256.283 400.425 256.784 399.785 257.264L397.993 258.592C397.694 258.805 397.412 259.051 397.145 259.328C396.889 259.595 396.681 259.899 396.521 260.24C396.372 260.581 396.297 260.971 396.297 261.408ZM394.489 262V260.576L395.865 260.352H401.961V262H394.489ZM404.638 258.896L403.294 258.128L408.302 250.8L409.438 251.84L404.638 258.896ZM403.294 259.6V258.128L404.382 257.984H412.334V259.6H403.294ZM408.478 262V251.872L408.318 250.8H410.254V262H408.478Z" fill="#21333F"/>
<rect x="518" y="181" width="146" height="58" rx="15" fill="#E6F4FF"/>
<rect x="518" y="181" width="146" height="58" rx="15" stroke="#9AAEBC" stroke-width="2"/>
<path d="M561.864 216L566.248 204.8H568.232L563.704 216H561.864ZM561.672 216L557.144 204.8H559.112L563.496 216H561.672ZM573.574 216L573.494 214.496V211.888C573.494 211.344 573.436 210.891 573.318 210.528C573.201 210.165 573.014 209.888 572.758 209.696C572.513 209.504 572.188 209.408 571.782 209.408C571.409 209.408 571.078 209.488 570.79 209.648C570.502 209.808 570.262 210.053 570.07 210.384L568.438 209.808C568.62 209.456 568.854 209.125 569.142 208.816C569.43 208.507 569.793 208.261 570.23 208.08C570.678 207.899 571.206 207.808 571.814 207.808C572.593 207.808 573.238 207.952 573.75 208.24C574.273 208.528 574.662 208.955 574.918 209.52C575.174 210.085 575.302 210.784 575.302 211.616L575.254 216H573.574ZM571.302 216.192C570.342 216.192 569.596 215.979 569.062 215.552C568.54 215.125 568.278 214.523 568.278 213.744C568.278 212.912 568.556 212.277 569.11 211.84C569.676 211.403 570.46 211.184 571.462 211.184H573.606V212.56H572.038C571.324 212.56 570.822 212.661 570.534 212.864C570.246 213.056 570.102 213.333 570.102 213.696C570.102 214.005 570.225 214.251 570.47 214.432C570.726 214.603 571.078 214.688 571.526 214.688C571.921 214.688 572.262 214.597 572.55 214.416C572.849 214.224 573.078 213.979 573.238 213.68C573.409 213.371 573.494 213.04 573.494 212.688H574.15C574.15 213.776 573.916 214.635 573.446 215.264C572.988 215.883 572.273 216.192 571.302 216.192ZM577.117 216V204.8H578.909V216H577.117ZM586.258 216L586.162 214.528V208H587.938V216H586.258ZM580.722 212.576V208H582.514V212.096L580.722 212.576ZM582.514 212.096C582.514 212.725 582.589 213.216 582.738 213.568C582.888 213.92 583.09 214.165 583.346 214.304C583.613 214.443 583.917 214.512 584.258 214.512C584.866 214.523 585.336 214.325 585.666 213.92C585.997 213.515 586.162 212.933 586.162 212.176H586.834C586.834 213.019 586.706 213.744 586.45 214.352C586.205 214.949 585.853 215.408 585.394 215.728C584.946 216.037 584.408 216.192 583.778 216.192C582.808 216.192 582.056 215.893 581.522 215.296C580.989 214.699 580.722 213.792 580.722 212.576L582.514 212.096ZM593.498 216.192C592.719 216.192 592.026 216.016 591.418 215.664C590.82 215.301 590.346 214.805 589.993 214.176C589.652 213.547 589.482 212.821 589.482 212C589.482 211.179 589.658 210.453 590.01 209.824C590.362 209.195 590.842 208.704 591.45 208.352C592.068 207.989 592.772 207.808 593.562 207.808C594.276 207.808 594.916 207.995 595.482 208.368C596.058 208.731 596.516 209.259 596.858 209.952C597.199 210.645 597.37 211.472 597.37 212.432H595.562C595.562 211.739 595.476 211.168 595.306 210.72C595.146 210.272 594.911 209.941 594.602 209.728C594.303 209.504 593.935 209.392 593.498 209.392C593.039 209.392 592.644 209.493 592.314 209.696C591.983 209.899 591.732 210.197 591.562 210.592C591.391 210.976 591.306 211.461 591.306 212.048C591.306 212.571 591.407 213.019 591.61 213.392C591.823 213.765 592.106 214.053 592.458 214.256C592.82 214.448 593.22 214.544 593.658 214.544C594.138 214.544 594.532 214.437 594.842 214.224C595.151 214 595.391 213.717 595.562 213.376L597.21 214.08C596.986 214.507 596.698 214.88 596.346 215.2C596.004 215.52 595.594 215.765 595.114 215.936C594.644 216.107 594.106 216.192 593.498 216.192ZM590.666 212.432V211.008H596.426V212.432H590.666ZM600.006 210.24C599.697 210.24 599.43 210.128 599.206 209.904C598.982 209.68 598.87 209.413 598.87 209.104C598.87 208.795 598.982 208.533 599.206 208.32C599.43 208.096 599.697 207.984 600.006 207.984C600.305 207.984 600.566 208.096 600.79 208.32C601.014 208.533 601.126 208.795 601.126 209.104C601.126 209.413 601.014 209.68 600.79 209.904C600.566 210.128 600.305 210.24 600.006 210.24ZM600.022 216.032C599.713 216.032 599.446 215.92 599.222 215.696C598.998 215.472 598.886 215.205 598.886 214.896C598.886 214.587 598.998 214.325 599.222 214.112C599.446 213.888 599.713 213.776 600.022 213.776C600.331 213.776 600.593 213.888 600.806 214.112C601.03 214.325 601.142 214.587 601.142 214.896C601.142 215.205 601.03 215.472 600.806 215.696C600.593 215.92 600.331 216.032 600.022 216.032ZM610.541 216.192C609.933 216.192 609.378 216.101 608.877 215.92C608.376 215.739 607.954 215.483 607.613 215.152C607.272 214.821 607.026 214.448 606.877 214.032L608.541 213.408C608.626 213.557 608.744 213.723 608.893 213.904C609.042 214.085 609.24 214.245 609.485 214.384C609.73 214.512 610.045 214.576 610.429 214.576C611.037 214.576 611.517 214.405 611.869 214.064C612.232 213.712 612.413 213.269 612.413 212.736C612.413 212.352 612.312 212.021 612.109 211.744C611.917 211.467 611.613 211.253 611.197 211.104C610.792 210.955 610.28 210.88 609.661 210.88H609.149V209.568H609.613C610.264 209.568 610.866 209.643 611.421 209.792C611.986 209.941 612.482 210.165 612.909 210.464C613.346 210.752 613.682 211.104 613.917 211.52C614.162 211.936 614.285 212.405 614.285 212.928C614.285 213.6 614.109 214.181 613.757 214.672C613.416 215.163 612.962 215.541 612.397 215.808C611.832 216.064 611.213 216.192 610.541 216.192ZM609.149 210.592V209.344H609.661C610.482 209.344 611.106 209.205 611.533 208.928C611.96 208.651 612.173 208.261 612.173 207.76C612.173 207.472 612.098 207.216 611.949 206.992C611.81 206.757 611.608 206.571 611.341 206.432C611.074 206.293 610.76 206.224 610.397 206.224C610.162 206.224 609.933 206.261 609.709 206.336C609.485 206.411 609.277 206.528 609.085 206.688C608.893 206.848 608.733 207.056 608.605 207.312L606.989 206.72C607.149 206.272 607.405 205.893 607.757 205.584C608.109 205.264 608.52 205.024 608.989 204.864C609.458 204.693 609.949 204.608 610.461 204.608C611.144 204.608 611.752 204.736 612.285 204.992C612.829 205.248 613.256 205.605 613.565 206.064C613.885 206.512 614.045 207.029 614.045 207.616C614.045 208.107 613.922 208.539 613.677 208.912C613.442 209.285 613.117 209.6 612.701 209.856C612.285 210.101 611.81 210.288 611.277 210.416C610.754 210.533 610.194 210.592 609.597 210.592H609.149ZM619.706 216.192C618.948 216.192 618.303 216.053 617.77 215.776C617.247 215.488 616.826 215.104 616.506 214.624C616.186 214.133 615.951 213.568 615.802 212.928C615.652 212.277 615.578 211.584 615.578 210.848C615.578 209.952 615.668 209.125 615.85 208.368C616.042 207.611 616.324 206.949 616.698 206.384C617.071 205.819 617.535 205.381 618.09 205.072C618.655 204.763 619.311 204.608 620.058 204.608C620.634 204.608 621.199 204.699 621.754 204.88C622.319 205.051 622.82 205.291 623.258 205.6L622.298 206.944C621.967 206.709 621.604 206.533 621.21 206.416C620.826 206.299 620.468 206.24 620.138 206.24C619.21 206.24 618.49 206.64 617.978 207.44C617.476 208.24 617.247 209.483 617.289 211.168L616.906 210.88C617.151 210.272 617.54 209.787 618.074 209.424C618.607 209.051 619.242 208.864 619.978 208.864C620.692 208.864 621.327 209.029 621.882 209.36C622.436 209.68 622.868 210.123 623.178 210.688C623.487 211.243 623.642 211.877 623.642 212.592C623.642 213.285 623.476 213.904 623.146 214.448C622.826 214.992 622.367 215.419 621.77 215.728C621.183 216.037 620.495 216.192 619.706 216.192ZM619.722 214.608C620.116 214.608 620.468 214.517 620.778 214.336C621.098 214.155 621.348 213.909 621.53 213.6C621.711 213.28 621.802 212.917 621.802 212.512C621.802 212.107 621.711 211.744 621.53 211.424C621.348 211.104 621.098 210.859 620.778 210.688C620.468 210.507 620.116 210.416 619.722 210.416C619.316 210.416 618.954 210.507 618.634 210.688C618.324 210.859 618.079 211.104 617.898 211.424C617.716 211.744 617.626 212.107 617.626 212.512C617.626 212.917 617.716 213.28 617.898 213.6C618.079 213.909 618.324 214.155 618.634 214.336C618.954 214.517 619.316 214.608 619.722 214.608Z" fill="#21333F"/>
<rect x="517" y="54" width="148" height="48" rx="24" fill="#687A87"/>
<path d="M557.676 84.192C556.599 84.192 555.639 83.9467 554.796 83.456C553.964 82.9547 553.308 82.272 552.828 81.408C552.359 80.5333 552.124 79.5307 552.124 78.4C552.124 77.2693 552.359 76.272 552.828 75.408C553.308 74.5333 553.964 73.8507 554.796 73.36C555.628 72.8587 556.583 72.608 557.66 72.608C558.385 72.608 559.068 72.7413 559.708 73.008C560.348 73.264 560.913 73.6213 561.404 74.08C561.905 74.5387 562.289 75.072 562.556 75.68L560.86 76.368C560.668 75.9627 560.407 75.6053 560.076 75.296C559.756 74.976 559.388 74.7307 558.972 74.56C558.556 74.3893 558.119 74.304 557.66 74.304C556.956 74.304 556.327 74.48 555.772 74.832C555.228 75.184 554.796 75.6693 554.476 76.288C554.167 76.896 554.012 77.6 554.012 78.4C554.012 79.2 554.167 79.9093 554.476 80.528C554.796 81.1467 555.233 81.632 555.788 81.984C556.353 82.336 556.993 82.512 557.708 82.512C558.177 82.512 558.615 82.4213 559.02 82.24C559.436 82.048 559.804 81.7867 560.124 81.456C560.455 81.1253 560.716 80.7413 560.908 80.304L562.604 80.992C562.337 81.6213 561.959 82.1813 561.468 82.672C560.977 83.152 560.407 83.5253 559.756 83.792C559.105 84.0587 558.412 84.192 557.676 84.192ZM567.735 84.192C566.935 84.192 566.22 84.016 565.591 83.664C564.972 83.3013 564.487 82.8053 564.135 82.176C563.783 81.5467 563.607 80.8213 563.607 80C563.607 79.1787 563.777 78.4533 564.118 77.824C564.471 77.1947 564.956 76.704 565.575 76.352C566.193 75.9893 566.903 75.808 567.703 75.808C568.503 75.808 569.212 75.9893 569.831 76.352C570.449 76.704 570.929 77.1947 571.271 77.824C571.623 78.4533 571.799 79.1787 571.799 80C571.799 80.8213 571.628 81.5467 571.286 82.176C570.945 82.8053 570.465 83.3013 569.847 83.664C569.228 84.016 568.524 84.192 567.735 84.192ZM567.735 82.544C568.172 82.544 568.561 82.4373 568.903 82.224C569.244 82 569.511 81.7013 569.703 81.328C569.895 80.944 569.991 80.5013 569.991 80C569.991 79.4987 569.889 79.0613 569.687 78.688C569.495 78.304 569.228 78.0053 568.887 77.792C568.545 77.568 568.151 77.456 567.703 77.456C567.255 77.456 566.86 77.5627 566.519 77.776C566.177 77.9893 565.911 78.288 565.719 78.672C565.527 79.056 565.431 79.4987 565.431 80C565.431 80.5013 565.527 80.944 565.719 81.328C565.921 81.7013 566.193 82 566.535 82.224C566.887 82.4373 567.287 82.544 567.735 82.544ZM573.351 84V76H575.031L575.143 77.472V84H573.351ZM578.775 84V79.904L580.567 79.424V84H578.775ZM584.215 84V79.904L585.991 79.424V84H584.215ZM578.775 79.904C578.775 79.264 578.701 78.7733 578.551 78.432C578.413 78.08 578.21 77.8347 577.943 77.696C577.687 77.5573 577.383 77.488 577.031 77.488C576.434 77.4773 575.97 77.6747 575.639 78.08C575.309 78.4853 575.143 79.0667 575.143 79.824H574.471C574.471 78.9813 574.594 78.2613 574.839 77.664C575.085 77.056 575.437 76.5973 575.895 76.288C576.354 75.968 576.898 75.808 577.527 75.808C578.498 75.808 579.245 76.1067 579.767 76.704C580.301 77.2907 580.567 78.1973 580.567 79.424L578.775 79.904ZM584.215 79.904C584.215 79.264 584.141 78.7733 583.991 78.432C583.842 78.08 583.634 77.8347 583.367 77.696C583.111 77.5573 582.813 77.488 582.471 77.488C581.863 77.4773 581.394 77.6747 581.063 78.08C580.733 78.4853 580.567 79.0667 580.567 79.824H579.895C579.895 78.9813 580.018 78.2613 580.263 77.664C580.509 77.056 580.861 76.5973 581.319 76.288C581.778 75.968 582.322 75.808 582.951 75.808C583.922 75.808 584.674 76.1067 585.207 76.704C585.741 77.2907 586.002 78.1973 585.991 79.424L584.215 79.904ZM587.9 87.2V76H589.58L589.692 77.472V87.2H587.9ZM592.22 84.192C591.548 84.192 590.967 84.0213 590.476 83.68C589.996 83.328 589.628 82.8373 589.372 82.208C589.116 81.5787 588.988 80.8427 588.988 80C588.988 79.1467 589.116 78.4107 589.372 77.792C589.628 77.1627 589.996 76.6773 590.476 76.336C590.967 75.984 591.548 75.808 592.22 75.808C592.945 75.808 593.575 75.984 594.108 76.336C594.652 76.6773 595.073 77.1627 595.372 77.792C595.681 78.4107 595.836 79.1467 595.836 80C595.836 80.8427 595.681 81.5787 595.372 82.208C595.073 82.8373 594.652 83.328 594.108 83.68C593.575 84.0213 592.945 84.192 592.22 84.192ZM591.772 82.56C592.199 82.56 592.577 82.4533 592.908 82.24C593.239 82.016 593.5 81.712 593.692 81.328C593.895 80.944 593.996 80.5013 593.996 80C593.996 79.4987 593.9 79.056 593.708 78.672C593.527 78.288 593.271 77.9893 592.94 77.776C592.609 77.5627 592.225 77.456 591.788 77.456C591.383 77.456 591.02 77.5627 590.7 77.776C590.38 77.9893 590.129 78.288 589.948 78.672C589.777 79.056 589.692 79.4987 589.692 80C589.692 80.5013 589.777 80.944 589.948 81.328C590.129 81.712 590.375 82.016 590.684 82.24C591.004 82.4533 591.367 82.56 591.772 82.56ZM602.727 84L602.631 82.528V76H604.407V84H602.727ZM597.191 80.576V76H598.983V80.096L597.191 80.576ZM598.983 80.096C598.983 80.7253 599.058 81.216 599.207 81.568C599.356 81.92 599.559 82.1653 599.815 82.304C600.082 82.4427 600.386 82.512 600.727 82.512C601.335 82.5227 601.804 82.3253 602.135 81.92C602.466 81.5147 602.631 80.9333 602.631 80.176H603.303C603.303 81.0187 603.175 81.744 602.919 82.352C602.674 82.9493 602.322 83.408 601.863 83.728C601.415 84.0373 600.876 84.192 600.247 84.192C599.276 84.192 598.524 83.8933 597.991 83.296C597.458 82.6987 597.191 81.792 597.191 80.576L598.983 80.096ZM609.582 84.192C608.74 84.192 608.094 83.984 607.646 83.568C607.209 83.1413 606.99 82.5333 606.99 81.744V73.504H608.766V81.408C608.766 81.7813 608.852 82.064 609.022 82.256C609.204 82.448 609.465 82.544 609.806 82.544C609.913 82.544 610.03 82.5227 610.158 82.48C610.286 82.4373 610.43 82.3573 610.59 82.24L611.246 83.6C610.969 83.792 610.692 83.936 610.414 84.032C610.137 84.1387 609.86 84.192 609.582 84.192ZM605.662 77.536V76H610.926V77.536H605.662ZM616.138 84.192C615.359 84.192 614.666 84.016 614.058 83.664C613.461 83.3013 612.986 82.8053 612.634 82.176C612.293 81.5467 612.122 80.8213 612.122 80C612.122 79.1787 612.298 78.4533 612.65 77.824C613.002 77.1947 613.482 76.704 614.09 76.352C614.709 75.9893 615.413 75.808 616.202 75.808C616.917 75.808 617.557 75.9947 618.122 76.368C618.698 76.7307 619.157 77.2587 619.498 77.952C619.839 78.6453 620.01 79.472 620.01 80.432H618.202C618.202 79.7387 618.117 79.168 617.946 78.72C617.786 78.272 617.551 77.9413 617.242 77.728C616.943 77.504 616.575 77.392 616.138 77.392C615.679 77.392 615.285 77.4933 614.954 77.696C614.623 77.8987 614.373 78.1973 614.202 78.592C614.031 78.976 613.946 79.4613 613.946 80.048C613.946 80.5707 614.047 81.0187 614.25 81.392C614.463 81.7653 614.746 82.0533 615.098 82.256C615.461 82.448 615.861 82.544 616.298 82.544C616.778 82.544 617.173 82.4373 617.482 82.224C617.791 82 618.031 81.7173 618.202 81.376L619.85 82.08C619.626 82.5067 619.338 82.88 618.986 83.2C618.645 83.52 618.234 83.7653 617.754 83.936C617.285 84.1067 616.746 84.192 616.138 84.192ZM613.306 80.432V79.008H619.066V80.432H613.306ZM627.159 84L627.079 82.512V72.8H628.855V84H627.159ZM624.551 84.192C623.825 84.192 623.191 84.0213 622.647 83.68C622.113 83.328 621.692 82.8373 621.383 82.208C621.084 81.5787 620.935 80.8427 620.935 80C620.935 79.1467 621.084 78.4107 621.383 77.792C621.692 77.1627 622.113 76.6773 622.647 76.336C623.191 75.984 623.825 75.808 624.551 75.808C625.223 75.808 625.799 75.984 626.279 76.336C626.769 76.6773 627.143 77.1627 627.399 77.792C627.655 78.4107 627.783 79.1467 627.783 80C627.783 80.8427 627.655 81.5787 627.399 82.208C627.143 82.8373 626.769 83.328 626.279 83.68C625.799 84.0213 625.223 84.192 624.551 84.192ZM624.999 82.56C625.404 82.56 625.761 82.4533 626.071 82.24C626.391 82.016 626.636 81.712 626.807 81.328C626.988 80.944 627.079 80.5013 627.079 80C627.079 79.4987 626.988 79.056 626.807 78.672C626.636 78.288 626.391 77.9893 626.071 77.776C625.761 77.5627 625.399 77.456 624.983 77.456C624.556 77.456 624.177 77.5627 623.847 77.776C623.516 77.9893 623.255 78.288 623.063 78.672C622.881 79.056 622.785 79.4987 622.775 80C622.785 80.5013 622.881 80.944 623.063 81.328C623.255 81.712 623.516 82.016 623.847 82.24C624.188 82.4533 624.572 82.56 624.999 82.56Z" fill="white"/>
<path d="M615 358L257 358" stroke="#8194A2" stroke-width="2" stroke-dasharray="4 4"/>
<path d="M615 454L257 454" stroke="#8194A2" stroke-width="2" stroke-dasharray="4 4"/>
<g filter="url(#filter0_d_8358_7519)">
<rect x="55" y="334" width="202" height="48" rx="24" fill="#E5F2FF"/>
<rect x="56.5" y="335.5" width="199" height="45" rx="22.5" stroke="white" stroke-width="3"/>
<path d="M85.176 364.192C84.0987 364.192 83.1387 363.947 82.296 363.456C81.464 362.955 80.808 362.272 80.328 361.408C79.8587 360.533 79.624 359.531 79.624 358.4C79.624 357.269 79.8587 356.272 80.328 355.408C80.808 354.533 81.464 353.851 82.296 353.36C83.128 352.859 84.0827 352.608 85.16 352.608C85.8853 352.608 86.568 352.741 87.208 353.008C87.848 353.264 88.4133 353.621 88.904 354.08C89.4053 354.539 89.7893 355.072 90.056 355.68L88.36 356.368C88.168 355.963 87.9067 355.605 87.576 355.296C87.256 354.976 86.888 354.731 86.472 354.56C86.056 354.389 85.6187 354.304 85.16 354.304C84.456 354.304 83.8267 354.48 83.272 354.832C82.728 355.184 82.296 355.669 81.976 356.288C81.6667 356.896 81.512 357.6 81.512 358.4C81.512 359.2 81.6667 359.909 81.976 360.528C82.296 361.147 82.7333 361.632 83.288 361.984C83.8533 362.336 84.4933 362.512 85.208 362.512C85.6773 362.512 86.1147 362.421 86.52 362.24C86.936 362.048 87.304 361.787 87.624 361.456C87.9547 361.125 88.216 360.741 88.408 360.304L90.104 360.992C89.8373 361.621 89.4587 362.181 88.968 362.672C88.4773 363.152 87.9067 363.525 87.256 363.792C86.6053 364.059 85.912 364.192 85.176 364.192ZM96.4025 364L96.3225 362.496V359.888C96.3225 359.344 96.2638 358.891 96.1465 358.528C96.0292 358.165 95.8425 357.888 95.5865 357.696C95.3412 357.504 95.0158 357.408 94.6105 357.408C94.2372 357.408 93.9065 357.488 93.6185 357.648C93.3305 357.808 93.0905 358.053 92.8985 358.384L91.2665 357.808C91.4478 357.456 91.6825 357.125 91.9705 356.816C92.2585 356.507 92.6212 356.261 93.0585 356.08C93.5065 355.899 94.0345 355.808 94.6425 355.808C95.4212 355.808 96.0665 355.952 96.5785 356.24C97.1012 356.528 97.4905 356.955 97.7465 357.52C98.0025 358.085 98.1305 358.784 98.1305 359.616L98.0825 364H96.4025ZM94.1305 364.192C93.1705 364.192 92.4238 363.979 91.8905 363.552C91.3678 363.125 91.1065 362.523 91.1065 361.744C91.1065 360.912 91.3838 360.277 91.9385 359.84C92.5038 359.403 93.2878 359.184 94.2905 359.184H96.4345V360.56H94.8665C94.1518 360.56 93.6505 360.661 93.3625 360.864C93.0745 361.056 92.9305 361.333 92.9305 361.696C92.9305 362.005 93.0532 362.251 93.2985 362.432C93.5545 362.603 93.9065 362.688 94.3545 362.688C94.7492 362.688 95.0905 362.597 95.3785 362.416C95.6772 362.224 95.9065 361.979 96.0665 361.68C96.2372 361.371 96.3225 361.04 96.3225 360.688H96.9785C96.9785 361.776 96.7438 362.635 96.2745 363.264C95.8158 363.883 95.1012 364.192 94.1305 364.192ZM99.9451 364V356H101.625L101.737 357.472V364H99.9451ZM105.369 364V359.904L107.161 359.424V364H105.369ZM105.369 359.904C105.369 359.264 105.294 358.773 105.145 358.432C105.006 358.08 104.804 357.835 104.537 357.696C104.281 357.557 103.977 357.488 103.625 357.488C103.028 357.477 102.564 357.675 102.233 358.08C101.902 358.485 101.737 359.067 101.737 359.824H101.065C101.065 358.981 101.188 358.261 101.433 357.664C101.678 357.056 102.03 356.597 102.489 356.288C102.948 355.968 103.492 355.808 104.121 355.808C105.092 355.808 105.838 356.107 106.361 356.704C106.894 357.291 107.161 358.197 107.161 359.424L105.369 359.904ZM113.172 364V352.8H115.028V364H113.172ZM124.123 364.192C123.589 364.192 123.099 364.112 122.651 363.952C122.203 363.792 121.819 363.568 121.499 363.28C121.179 362.981 120.933 362.635 120.763 362.24L122.315 361.552C122.475 361.851 122.709 362.101 123.019 362.304C123.339 362.507 123.691 362.608 124.075 362.608C124.491 362.608 124.821 362.539 125.067 362.4C125.323 362.251 125.451 362.048 125.451 361.792C125.451 361.547 125.355 361.36 125.163 361.232C124.971 361.093 124.699 360.981 124.347 360.896L123.595 360.688C122.837 360.496 122.245 360.192 121.819 359.776C121.392 359.349 121.179 358.864 121.179 358.32C121.179 357.52 121.435 356.901 121.947 356.464C122.469 356.027 123.216 355.808 124.187 355.808C124.677 355.808 125.125 355.883 125.531 356.032C125.947 356.171 126.304 356.373 126.603 356.64C126.901 356.896 127.109 357.2 127.227 357.552L125.739 358.224C125.632 357.957 125.429 357.755 125.131 357.616C124.832 357.467 124.501 357.392 124.139 357.392C123.776 357.392 123.493 357.472 123.291 357.632C123.088 357.781 122.987 357.995 122.987 358.272C122.987 358.432 123.077 358.581 123.259 358.72C123.44 358.848 123.701 358.955 124.043 359.04L124.987 359.264C125.509 359.392 125.936 359.595 126.267 359.872C126.597 360.139 126.843 360.443 127.003 360.784C127.163 361.115 127.243 361.451 127.243 361.792C127.243 362.272 127.104 362.693 126.827 363.056C126.56 363.419 126.192 363.701 125.723 363.904C125.253 364.096 124.72 364.192 124.123 364.192ZM134.024 364L133.928 362.528V356H135.704V364H134.024ZM128.488 360.576V356H130.28V360.096L128.488 360.576ZM130.28 360.096C130.28 360.725 130.355 361.216 130.504 361.568C130.653 361.92 130.856 362.165 131.112 362.304C131.379 362.443 131.683 362.512 132.024 362.512C132.632 362.523 133.101 362.325 133.432 361.92C133.763 361.515 133.928 360.933 133.928 360.176H134.6C134.6 361.019 134.472 361.744 134.216 362.352C133.971 362.949 133.619 363.408 133.16 363.728C132.712 364.037 132.173 364.192 131.544 364.192C130.573 364.192 129.821 363.893 129.288 363.296C128.755 362.699 128.488 361.792 128.488 360.576L130.28 360.096ZM137.695 364V352.8H139.487V362.512L139.391 364H137.695ZM142.015 364.192C141.343 364.192 140.762 364.021 140.271 363.68C139.791 363.328 139.423 362.837 139.167 362.208C138.911 361.579 138.783 360.843 138.783 360C138.783 359.147 138.911 358.411 139.167 357.792C139.423 357.163 139.791 356.677 140.271 356.336C140.762 355.984 141.343 355.808 142.015 355.808C142.74 355.808 143.37 355.984 143.903 356.336C144.447 356.677 144.868 357.163 145.167 357.792C145.476 358.411 145.631 359.147 145.631 360C145.631 360.843 145.476 361.579 145.167 362.208C144.868 362.837 144.447 363.328 143.903 363.68C143.37 364.021 142.74 364.192 142.015 364.192ZM141.567 362.56C141.994 362.56 142.372 362.453 142.703 362.24C143.034 362.016 143.295 361.712 143.487 361.328C143.69 360.944 143.791 360.501 143.791 360C143.791 359.499 143.695 359.056 143.503 358.672C143.322 358.288 143.066 357.989 142.735 357.776C142.404 357.563 142.02 357.456 141.583 357.456C141.178 357.456 140.815 357.563 140.495 357.776C140.175 357.989 139.924 358.288 139.743 358.672C139.572 359.056 139.487 359.499 139.487 360C139.487 360.501 139.572 360.944 139.743 361.328C139.924 361.712 140.17 362.016 140.479 362.24C140.799 362.453 141.162 362.56 141.567 362.56ZM150.076 364.192C149.543 364.192 149.052 364.112 148.604 363.952C148.156 363.792 147.772 363.568 147.452 363.28C147.132 362.981 146.887 362.635 146.716 362.24L148.268 361.552C148.428 361.851 148.663 362.101 148.972 362.304C149.292 362.507 149.644 362.608 150.028 362.608C150.444 362.608 150.775 362.539 151.02 362.4C151.276 362.251 151.404 362.048 151.404 361.792C151.404 361.547 151.308 361.36 151.116 361.232C150.924 361.093 150.652 360.981 150.3 360.896L149.548 360.688C148.791 360.496 148.199 360.192 147.772 359.776C147.345 359.349 147.132 358.864 147.132 358.32C147.132 357.52 147.388 356.901 147.9 356.464C148.423 356.027 149.169 355.808 150.14 355.808C150.631 355.808 151.079 355.883 151.484 356.032C151.9 356.171 152.257 356.373 152.556 356.64C152.855 356.896 153.063 357.2 153.18 357.552L151.692 358.224C151.585 357.957 151.383 357.755 151.084 357.616C150.785 357.467 150.455 357.392 150.092 357.392C149.729 357.392 149.447 357.472 149.244 357.632C149.041 357.781 148.94 357.995 148.94 358.272C148.94 358.432 149.031 358.581 149.212 358.72C149.393 358.848 149.655 358.955 149.996 359.04L150.94 359.264C151.463 359.392 151.889 359.595 152.22 359.872C152.551 360.139 152.796 360.443 152.956 360.784C153.116 361.115 153.196 361.451 153.196 361.792C153.196 362.272 153.057 362.693 152.78 363.056C152.513 363.419 152.145 363.701 151.676 363.904C151.207 364.096 150.673 364.192 150.076 364.192ZM158.361 364.192C157.54 364.192 156.814 364.016 156.185 363.664C155.556 363.301 155.06 362.805 154.697 362.176C154.345 361.547 154.169 360.821 154.169 360C154.169 359.179 154.345 358.453 154.697 357.824C155.06 357.195 155.55 356.704 156.169 356.352C156.798 355.989 157.518 355.808 158.329 355.808C159.118 355.808 159.833 356 160.473 356.384C161.113 356.757 161.588 357.296 161.897 358L160.233 358.64C160.062 358.288 159.801 358.005 159.449 357.792C159.097 357.579 158.697 357.472 158.249 357.472C157.812 357.472 157.422 357.584 157.081 357.808C156.74 358.021 156.473 358.32 156.281 358.704C156.089 359.077 155.993 359.509 155.993 360C155.993 360.491 156.089 360.928 156.281 361.312C156.484 361.685 156.756 361.984 157.097 362.208C157.449 362.421 157.844 362.528 158.281 362.528C158.729 362.528 159.129 362.416 159.481 362.192C159.833 361.957 160.094 361.643 160.265 361.248L161.929 361.888C161.62 362.613 161.145 363.179 160.505 363.584C159.876 363.989 159.161 364.192 158.361 364.192ZM164.504 359.744C164.504 358.88 164.669 358.171 165 357.616C165.331 357.061 165.757 356.651 166.28 356.384C166.813 356.107 167.368 355.968 167.944 355.968V357.68C167.453 357.68 166.989 357.749 166.552 357.888C166.125 358.016 165.779 358.229 165.512 358.528C165.245 358.827 165.112 359.221 165.112 359.712L164.504 359.744ZM163.32 364V356H165.112V364H163.32ZM169.245 364L169.261 356H171.037L171.021 364H169.245ZM170.141 354.48C169.853 354.48 169.602 354.379 169.389 354.176C169.186 353.963 169.085 353.712 169.085 353.424C169.085 353.136 169.186 352.891 169.389 352.688C169.602 352.485 169.853 352.384 170.141 352.384C170.429 352.384 170.674 352.485 170.877 352.688C171.09 352.891 171.197 353.136 171.197 353.424C171.197 353.712 171.09 353.963 170.877 354.176C170.674 354.379 170.429 354.48 170.141 354.48ZM173.133 364V352.8H174.925V362.512L174.829 364H173.133ZM177.453 364.192C176.781 364.192 176.199 364.021 175.709 363.68C175.229 363.328 174.861 362.837 174.605 362.208C174.349 361.579 174.221 360.843 174.221 360C174.221 359.147 174.349 358.411 174.605 357.792C174.861 357.163 175.229 356.677 175.709 356.336C176.199 355.984 176.781 355.808 177.453 355.808C178.178 355.808 178.807 355.984 179.341 356.336C179.885 356.677 180.306 357.163 180.605 357.792C180.914 358.411 181.069 359.147 181.069 360C181.069 360.843 180.914 361.579 180.605 362.208C180.306 362.837 179.885 363.328 179.341 363.68C178.807 364.021 178.178 364.192 177.453 364.192ZM177.005 362.56C177.431 362.56 177.81 362.453 178.141 362.24C178.471 362.016 178.733 361.712 178.925 361.328C179.127 360.944 179.229 360.501 179.229 360C179.229 359.499 179.133 359.056 178.941 358.672C178.759 358.288 178.503 357.989 178.173 357.776C177.842 357.563 177.458 357.456 177.021 357.456C176.615 357.456 176.253 357.563 175.933 357.776C175.613 357.989 175.362 358.288 175.181 358.672C175.01 359.056 174.925 359.499 174.925 360C174.925 360.501 175.01 360.944 175.181 361.328C175.362 361.712 175.607 362.016 175.917 362.24C176.237 362.453 176.599 362.56 177.005 362.56ZM186.169 364.192C185.391 364.192 184.697 364.016 184.089 363.664C183.492 363.301 183.017 362.805 182.665 362.176C182.324 361.547 182.153 360.821 182.153 360C182.153 359.179 182.329 358.453 182.681 357.824C183.033 357.195 183.513 356.704 184.121 356.352C184.74 355.989 185.444 355.808 186.233 355.808C186.948 355.808 187.588 355.995 188.153 356.368C188.729 356.731 189.188 357.259 189.529 357.952C189.871 358.645 190.041 359.472 190.041 360.432H188.233C188.233 359.739 188.148 359.168 187.977 358.72C187.817 358.272 187.583 357.941 187.273 357.728C186.975 357.504 186.607 357.392 186.169 357.392C185.711 357.392 185.316 357.493 184.985 357.696C184.655 357.899 184.404 358.197 184.233 358.592C184.063 358.976 183.977 359.461 183.977 360.048C183.977 360.571 184.079 361.019 184.281 361.392C184.495 361.765 184.777 362.053 185.129 362.256C185.492 362.448 185.892 362.544 186.329 362.544C186.809 362.544 187.204 362.437 187.513 362.224C187.823 362 188.063 361.717 188.233 361.376L189.881 362.08C189.657 362.507 189.369 362.88 189.017 363.2C188.676 363.52 188.265 363.765 187.785 363.936C187.316 364.107 186.777 364.192 186.169 364.192ZM183.337 360.432V359.008H189.097V360.432H183.337ZM198.457 364.192C197.615 364.192 196.969 363.984 196.521 363.568C196.084 363.141 195.865 362.533 195.865 361.744V353.504H197.641V361.408C197.641 361.781 197.727 362.064 197.897 362.256C198.079 362.448 198.34 362.544 198.681 362.544C198.788 362.544 198.905 362.523 199.033 362.48C199.161 362.437 199.305 362.357 199.465 362.24L200.121 363.6C199.844 363.792 199.567 363.936 199.289 364.032C199.012 364.139 198.735 364.192 198.457 364.192ZM194.537 357.536V356H199.801V357.536H194.537ZM205.125 364.192C204.325 364.192 203.61 364.016 202.981 363.664C202.362 363.301 201.877 362.805 201.525 362.176C201.173 361.547 200.997 360.821 200.997 360C200.997 359.179 201.168 358.453 201.509 357.824C201.861 357.195 202.346 356.704 202.965 356.352C203.584 355.989 204.293 355.808 205.093 355.808C205.893 355.808 206.602 355.989 207.221 356.352C207.84 356.704 208.32 357.195 208.661 357.824C209.013 358.453 209.189 359.179 209.189 360C209.189 360.821 209.018 361.547 208.677 362.176C208.336 362.805 207.856 363.301 207.237 363.664C206.618 364.016 205.914 364.192 205.125 364.192ZM205.125 362.544C205.562 362.544 205.952 362.437 206.293 362.224C206.634 362 206.901 361.701 207.093 361.328C207.285 360.944 207.381 360.501 207.381 360C207.381 359.499 207.28 359.061 207.077 358.688C206.885 358.304 206.618 358.005 206.277 357.792C205.936 357.568 205.541 357.456 205.093 357.456C204.645 357.456 204.25 357.563 203.909 357.776C203.568 357.989 203.301 358.288 203.109 358.672C202.917 359.056 202.821 359.499 202.821 360C202.821 360.501 202.917 360.944 203.109 361.328C203.312 361.701 203.584 362 203.925 362.224C204.277 362.437 204.677 362.544 205.125 362.544ZM214.713 364L214.729 356H216.505L216.489 364H214.713ZM215.609 354.48C215.321 354.48 215.071 354.379 214.857 354.176C214.655 353.963 214.553 353.712 214.553 353.424C214.553 353.136 214.655 352.891 214.857 352.688C215.071 352.485 215.321 352.384 215.609 352.384C215.897 352.384 216.143 352.485 216.345 352.688C216.559 352.891 216.665 353.136 216.665 353.424C216.665 353.712 216.559 353.963 216.345 354.176C216.143 354.379 215.897 354.48 215.609 354.48ZM221.785 364.192C220.943 364.192 220.297 363.984 219.849 363.568C219.412 363.141 219.193 362.533 219.193 361.744V353.504H220.969V361.408C220.969 361.781 221.055 362.064 221.225 362.256C221.407 362.448 221.668 362.544 222.009 362.544C222.116 362.544 222.233 362.523 222.361 362.48C222.489 362.437 222.633 362.357 222.793 362.24L223.449 363.6C223.172 363.792 222.895 363.936 222.617 364.032C222.34 364.139 222.063 364.192 221.785 364.192ZM217.865 357.536V356H223.129V357.536H217.865ZM226.563 359.28L226.531 358.032L227.571 357.968C228.179 357.947 228.68 357.776 229.075 357.456C229.469 357.125 229.667 356.661 229.667 356.064C229.667 355.531 229.48 355.093 229.107 354.752C228.744 354.411 228.269 354.24 227.683 354.24C227.267 354.24 226.904 354.341 226.595 354.544C226.285 354.747 226.072 354.997 225.955 355.296L224.307 354.816C224.52 354.155 224.92 353.621 225.507 353.216C226.104 352.811 226.829 352.608 227.683 352.608C228.408 352.608 229.048 352.757 229.603 353.056C230.168 353.344 230.611 353.749 230.931 354.272C231.251 354.784 231.411 355.381 231.411 356.064C231.411 356.704 231.256 357.269 230.947 357.76C230.637 358.24 230.205 358.613 229.651 358.88C229.107 359.147 228.472 359.28 227.747 359.28H226.563ZM227.443 364.224C227.123 364.224 226.851 364.117 226.627 363.904C226.413 363.68 226.307 363.413 226.307 363.104C226.307 362.784 226.413 362.517 226.627 362.304C226.851 362.08 227.123 361.968 227.443 361.968C227.752 361.968 228.013 362.08 228.227 362.304C228.451 362.517 228.563 362.784 228.563 363.104C228.563 363.413 228.451 363.68 228.227 363.904C228.013 364.117 227.752 364.224 227.443 364.224ZM226.579 360.864L226.531 358.352H228.339L228.307 360.864H226.579Z" fill="#004C6D"/>
</g>
<g filter="url(#filter1_d_8358_7519)">
<rect x="55" y="430" width="202" height="48" rx="24" fill="#E5F2FF"/>
<rect x="56.5" y="431.5" width="199" height="45" rx="22.5" stroke="white" stroke-width="3"/>
<path d="M101.676 460.192C100.599 460.192 99.6387 459.947 98.796 459.456C97.964 458.955 97.308 458.272 96.828 457.408C96.3587 456.533 96.124 455.531 96.124 454.4C96.124 453.269 96.3587 452.272 96.828 451.408C97.308 450.533 97.964 449.851 98.796 449.36C99.628 448.859 100.583 448.608 101.66 448.608C102.385 448.608 103.068 448.741 103.708 449.008C104.348 449.264 104.913 449.621 105.404 450.08C105.905 450.539 106.289 451.072 106.556 451.68L104.86 452.368C104.668 451.963 104.407 451.605 104.076 451.296C103.756 450.976 103.388 450.731 102.972 450.56C102.556 450.389 102.119 450.304 101.66 450.304C100.956 450.304 100.327 450.48 99.772 450.832C99.228 451.184 98.796 451.669 98.476 452.288C98.1667 452.896 98.012 453.6 98.012 454.4C98.012 455.2 98.1667 455.909 98.476 456.528C98.796 457.147 99.2333 457.632 99.788 457.984C100.353 458.336 100.993 458.512 101.708 458.512C102.177 458.512 102.615 458.421 103.02 458.24C103.436 458.048 103.804 457.787 104.124 457.456C104.455 457.125 104.716 456.741 104.908 456.304L106.604 456.992C106.337 457.621 105.959 458.181 105.468 458.672C104.977 459.152 104.407 459.525 103.756 459.792C103.105 460.059 102.412 460.192 101.676 460.192ZM112.903 460L112.823 458.496V455.888C112.823 455.344 112.764 454.891 112.647 454.528C112.529 454.165 112.343 453.888 112.087 453.696C111.841 453.504 111.516 453.408 111.111 453.408C110.737 453.408 110.407 453.488 110.119 453.648C109.831 453.808 109.591 454.053 109.399 454.384L107.767 453.808C107.948 453.456 108.183 453.125 108.471 452.816C108.759 452.507 109.121 452.261 109.559 452.08C110.007 451.899 110.535 451.808 111.143 451.808C111.921 451.808 112.567 451.952 113.079 452.24C113.601 452.528 113.991 452.955 114.247 453.52C114.503 454.085 114.631 454.784 114.631 455.616L114.583 460H112.903ZM110.631 460.192C109.671 460.192 108.924 459.979 108.391 459.552C107.868 459.125 107.607 458.523 107.607 457.744C107.607 456.912 107.884 456.277 108.439 455.84C109.004 455.403 109.788 455.184 110.791 455.184H112.935V456.56H111.367C110.652 456.56 110.151 456.661 109.863 456.864C109.575 457.056 109.431 457.333 109.431 457.696C109.431 458.005 109.553 458.251 109.799 458.432C110.055 458.603 110.407 458.688 110.855 458.688C111.249 458.688 111.591 458.597 111.879 458.416C112.177 458.224 112.407 457.979 112.567 457.68C112.737 457.371 112.823 457.04 112.823 456.688H113.479C113.479 457.776 113.244 458.635 112.775 459.264C112.316 459.883 111.601 460.192 110.631 460.192ZM116.445 460V452H118.125L118.237 453.472V460H116.445ZM121.869 460V455.904L123.661 455.424V460H121.869ZM121.869 455.904C121.869 455.264 121.794 454.773 121.645 454.432C121.506 454.08 121.304 453.835 121.037 453.696C120.781 453.557 120.477 453.488 120.125 453.488C119.528 453.477 119.064 453.675 118.733 454.08C118.402 454.485 118.237 455.067 118.237 455.824H117.565C117.565 454.981 117.688 454.261 117.933 453.664C118.178 453.056 118.53 452.597 118.989 452.288C119.448 451.968 119.992 451.808 120.621 451.808C121.592 451.808 122.338 452.107 122.861 452.704C123.394 453.291 123.661 454.197 123.661 455.424L121.869 455.904ZM129.672 460V448.8H131.528V460H129.672ZM145.119 460L147.791 452H149.599L146.879 460H145.119ZM139.759 460L142.367 452H143.951L141.375 460H139.759ZM139.599 460L136.879 452H138.687L141.295 460H139.599ZM145.103 460L142.543 452H144.127L146.735 460H145.103ZM151.942 455.744C151.942 454.88 152.107 454.171 152.438 453.616C152.768 453.061 153.195 452.651 153.718 452.384C154.251 452.107 154.806 451.968 155.382 451.968V453.68C154.891 453.68 154.427 453.749 153.99 453.888C153.563 454.016 153.216 454.229 152.95 454.528C152.683 454.827 152.55 455.221 152.55 455.712L151.942 455.744ZM150.758 460V452H152.55V460H150.758ZM156.682 460L156.698 452H158.474L158.458 460H156.682ZM157.578 450.48C157.29 450.48 157.039 450.379 156.826 450.176C156.623 449.963 156.522 449.712 156.522 449.424C156.522 449.136 156.623 448.891 156.826 448.688C157.039 448.485 157.29 448.384 157.578 448.384C157.866 448.384 158.111 448.485 158.314 448.688C158.527 448.891 158.634 449.136 158.634 449.424C158.634 449.712 158.527 449.963 158.314 450.176C158.111 450.379 157.866 450.48 157.578 450.48ZM163.754 460.192C162.911 460.192 162.266 459.984 161.818 459.568C161.381 459.141 161.162 458.533 161.162 457.744V449.504H162.938V457.408C162.938 457.781 163.023 458.064 163.194 458.256C163.375 458.448 163.637 458.544 163.978 458.544C164.085 458.544 164.202 458.523 164.33 458.48C164.458 458.437 164.602 458.357 164.762 458.24L165.418 459.6C165.141 459.792 164.863 459.936 164.586 460.032C164.309 460.139 164.031 460.192 163.754 460.192ZM159.834 453.536V452H165.098V453.536H159.834ZM170.31 460.192C169.531 460.192 168.838 460.016 168.23 459.664C167.633 459.301 167.158 458.805 166.806 458.176C166.465 457.547 166.294 456.821 166.294 456C166.294 455.179 166.47 454.453 166.822 453.824C167.174 453.195 167.654 452.704 168.262 452.352C168.881 451.989 169.585 451.808 170.374 451.808C171.089 451.808 171.729 451.995 172.294 452.368C172.87 452.731 173.329 453.259 173.67 453.952C174.011 454.645 174.182 455.472 174.182 456.432H172.374C172.374 455.739 172.289 455.168 172.118 454.72C171.958 454.272 171.723 453.941 171.414 453.728C171.115 453.504 170.747 453.392 170.31 453.392C169.851 453.392 169.457 453.493 169.126 453.696C168.795 453.899 168.545 454.197 168.374 454.592C168.203 454.976 168.118 455.461 168.118 456.048C168.118 456.571 168.219 457.019 168.422 457.392C168.635 457.765 168.918 458.053 169.27 458.256C169.633 458.448 170.033 458.544 170.47 458.544C170.95 458.544 171.345 458.437 171.654 458.224C171.963 458 172.203 457.717 172.374 457.376L174.022 458.08C173.798 458.507 173.51 458.88 173.158 459.2C172.817 459.52 172.406 459.765 171.926 459.936C171.457 460.107 170.918 460.192 170.31 460.192ZM167.478 456.432V455.008H173.238V456.432H167.478ZM182.598 460.192C181.755 460.192 181.11 459.984 180.662 459.568C180.225 459.141 180.006 458.533 180.006 457.744V449.504H181.782V457.408C181.782 457.781 181.867 458.064 182.038 458.256C182.219 458.448 182.481 458.544 182.822 458.544C182.929 458.544 183.046 458.523 183.174 458.48C183.302 458.437 183.446 458.357 183.606 458.24L184.262 459.6C183.985 459.792 183.707 459.936 183.43 460.032C183.153 460.139 182.875 460.192 182.598 460.192ZM178.678 453.536V452H183.942V453.536H178.678ZM189.266 460.192C188.466 460.192 187.751 460.016 187.122 459.664C186.503 459.301 186.018 458.805 185.666 458.176C185.314 457.547 185.138 456.821 185.138 456C185.138 455.179 185.308 454.453 185.65 453.824C186.002 453.195 186.487 452.704 187.106 452.352C187.724 451.989 188.434 451.808 189.234 451.808C190.034 451.808 190.743 451.989 191.362 452.352C191.98 452.704 192.46 453.195 192.802 453.824C193.154 454.453 193.33 455.179 193.33 456C193.33 456.821 193.159 457.547 192.818 458.176C192.476 458.805 191.996 459.301 191.378 459.664C190.759 460.016 190.055 460.192 189.266 460.192ZM189.266 458.544C189.703 458.544 190.092 458.437 190.434 458.224C190.775 458 191.042 457.701 191.234 457.328C191.426 456.944 191.522 456.501 191.522 456C191.522 455.499 191.42 455.061 191.218 454.688C191.026 454.304 190.759 454.005 190.418 453.792C190.076 453.568 189.682 453.456 189.234 453.456C188.786 453.456 188.391 453.563 188.05 453.776C187.708 453.989 187.442 454.288 187.25 454.672C187.058 455.056 186.962 455.499 186.962 456C186.962 456.501 187.058 456.944 187.25 457.328C187.452 457.701 187.724 458 188.066 458.224C188.418 458.437 188.818 458.544 189.266 458.544ZM198.854 460L198.87 452H200.646L200.63 460H198.854ZM199.75 450.48C199.462 450.48 199.211 450.379 198.998 450.176C198.795 449.963 198.694 449.712 198.694 449.424C198.694 449.136 198.795 448.891 198.998 448.688C199.211 448.485 199.462 448.384 199.75 448.384C200.038 448.384 200.283 448.485 200.486 448.688C200.699 448.891 200.806 449.136 200.806 449.424C200.806 449.712 200.699 449.963 200.486 450.176C200.283 450.379 200.038 450.48 199.75 450.48ZM205.926 460.192C205.083 460.192 204.438 459.984 203.99 459.568C203.553 459.141 203.334 458.533 203.334 457.744V449.504H205.11V457.408C205.11 457.781 205.195 458.064 205.366 458.256C205.547 458.448 205.809 458.544 206.15 458.544C206.257 458.544 206.374 458.523 206.502 458.48C206.63 458.437 206.774 458.357 206.934 458.24L207.59 459.6C207.313 459.792 207.035 459.936 206.758 460.032C206.481 460.139 206.203 460.192 205.926 460.192ZM202.006 453.536V452H207.27V453.536H202.006ZM210.703 455.28L210.671 454.032L211.711 453.968C212.319 453.947 212.821 453.776 213.215 453.456C213.61 453.125 213.807 452.661 213.807 452.064C213.807 451.531 213.621 451.093 213.247 450.752C212.885 450.411 212.41 450.24 211.823 450.24C211.407 450.24 211.045 450.341 210.735 450.544C210.426 450.747 210.213 450.997 210.095 451.296L208.447 450.816C208.661 450.155 209.061 449.621 209.647 449.216C210.245 448.811 210.97 448.608 211.823 448.608C212.549 448.608 213.189 448.757 213.743 449.056C214.309 449.344 214.751 449.749 215.071 450.272C215.391 450.784 215.551 451.381 215.551 452.064C215.551 452.704 215.397 453.269 215.087 453.76C214.778 454.24 214.346 454.613 213.791 454.88C213.247 455.147 212.613 455.28 211.887 455.28H210.703ZM211.583 460.224C211.263 460.224 210.991 460.117 210.767 459.904C210.554 459.68 210.447 459.413 210.447 459.104C210.447 458.784 210.554 458.517 210.767 458.304C210.991 458.08 211.263 457.968 211.583 457.968C211.893 457.968 212.154 458.08 212.367 458.304C212.591 458.517 212.703 458.784 212.703 459.104C212.703 459.413 212.591 459.68 212.367 459.904C212.154 460.117 211.893 460.224 211.583 460.224ZM210.719 456.864L210.671 454.352H212.479L212.447 456.864H210.719Z" fill="#004C6D"/>
</g>
<g filter="url(#filter2_d_8358_7519)">
<g clip-path="url(#clip0_8358_7519)">
<rect x="355" y="334" width="48" height="48" rx="24" fill="white"/>
<mask id="mask0_8358_7519" style="mask-type:alpha" maskUnits="userSpaceOnUse" x="355" y="334" width="48" height="48">
<rect x="355" y="334" width="48" height="48" fill="#D9D9D9"/>
</mask>
<g mask="url(#mask0_8358_7519)">
<path d="M376.2 361.6L371.9 357.3C371.533 356.933 371.067 356.75 370.5 356.75C369.933 356.75 369.467 356.933 369.1 357.3C368.733 357.667 368.55 358.133 368.55 358.7C368.55 359.267 368.733 359.733 369.1 360.1L374.8 365.8C375.2 366.2 375.667 366.4 376.2 366.4C376.733 366.4 377.2 366.2 377.6 365.8L388.9 354.5C389.267 354.133 389.45 353.667 389.45 353.1C389.45 352.533 389.267 352.067 388.9 351.7C388.533 351.333 388.067 351.15 387.5 351.15C386.933 351.15 386.467 351.333 386.1 351.7L376.2 361.6ZM379 378C376.233 378 373.633 377.475 371.2 376.425C368.767 375.375 366.65 373.95 364.85 372.15C363.05 370.35 361.625 368.233 360.575 365.8C359.525 363.367 359 360.767 359 358C359 355.233 359.525 352.633 360.575 350.2C361.625 347.767 363.05 345.65 364.85 343.85C366.65 342.05 368.767 340.625 371.2 339.575C373.633 338.525 376.233 338 379 338C381.767 338 384.367 338.525 386.8 339.575C389.233 340.625 391.35 342.05 393.15 343.85C394.95 345.65 396.375 347.767 397.425 350.2C398.475 352.633 399 355.233 399 358C399 360.767 398.475 363.367 397.425 365.8C396.375 368.233 394.95 370.35 393.15 372.15C391.35 373.95 389.233 375.375 386.8 376.425C384.367 377.475 381.767 378 379 378Z" fill="#0FA95F"/>
</g>
</g>
</g>
<g filter="url(#filter3_d_8358_7519)">
<g clip-path="url(#clip1_8358_7519)">
<rect x="567" y="334" width="48" height="48" rx="24" fill="white"/>
<mask id="mask1_8358_7519" style="mask-type:alpha" maskUnits="userSpaceOnUse" x="567" y="334" width="48" height="48">
<rect x="567" y="334" width="48" height="48" fill="#D9D9D9"/>
</mask>
<g mask="url(#mask1_8358_7519)">
<path d="M588.2 361.6L583.9 357.3C583.533 356.933 583.067 356.75 582.5 356.75C581.933 356.75 581.467 356.933 581.1 357.3C580.733 357.667 580.55 358.133 580.55 358.7C580.55 359.267 580.733 359.733 581.1 360.1L586.8 365.8C587.2 366.2 587.667 366.4 588.2 366.4C588.733 366.4 589.2 366.2 589.6 365.8L600.9 354.5C601.267 354.133 601.45 353.667 601.45 353.1C601.45 352.533 601.267 352.067 600.9 351.7C600.533 351.333 600.067 351.15 599.5 351.15C598.933 351.15 598.467 351.333 598.1 351.7L588.2 361.6ZM591 378C588.233 378 585.633 377.475 583.2 376.425C580.767 375.375 578.65 373.95 576.85 372.15C575.05 370.35 573.625 368.233 572.575 365.8C571.525 363.367 571 360.767 571 358C571 355.233 571.525 352.633 572.575 350.2C573.625 347.767 575.05 345.65 576.85 343.85C578.65 342.05 580.767 340.625 583.2 339.575C585.633 338.525 588.233 338 591 338C593.767 338 596.367 338.525 598.8 339.575C601.233 340.625 603.35 342.05 605.15 343.85C606.95 345.65 608.375 347.767 609.425 350.2C610.475 352.633 611 355.233 611 358C611 360.767 610.475 363.367 609.425 365.8C608.375 368.233 606.95 370.35 605.15 372.15C603.35 373.95 601.233 375.375 598.8 376.425C596.367 377.475 593.767 378 591 378Z" fill="#0FA95F"/>
</g>
</g>
</g>
<g filter="url(#filter4_d_8358_7519)">
<g clip-path="url(#clip2_8358_7519)">
<rect x="355" y="430" width="48" height="48" rx="24" fill="white"/>
<mask id="mask2_8358_7519" style="mask-type:alpha" maskUnits="userSpaceOnUse" x="355" y="430" width="48" height="48">
<rect x="355" y="430" width="48" height="48" fill="#D9D9D9"/>
</mask>
<g mask="url(#mask2_8358_7519)">
<path d="M376.2 457.6L371.9 453.3C371.533 452.933 371.067 452.75 370.5 452.75C369.933 452.75 369.467 452.933 369.1 453.3C368.733 453.667 368.55 454.133 368.55 454.7C368.55 455.267 368.733 455.733 369.1 456.1L374.8 461.8C375.2 462.2 375.667 462.4 376.2 462.4C376.733 462.4 377.2 462.2 377.6 461.8L388.9 450.5C389.267 450.133 389.45 449.667 389.45 449.1C389.45 448.533 389.267 448.067 388.9 447.7C388.533 447.333 388.067 447.15 387.5 447.15C386.933 447.15 386.467 447.333 386.1 447.7L376.2 457.6ZM379 474C376.233 474 373.633 473.475 371.2 472.425C368.767 471.375 366.65 469.95 364.85 468.15C363.05 466.35 361.625 464.233 360.575 461.8C359.525 459.367 359 456.767 359 454C359 451.233 359.525 448.633 360.575 446.2C361.625 443.767 363.05 441.65 364.85 439.85C366.65 438.05 368.767 436.625 371.2 435.575C373.633 434.525 376.233 434 379 434C381.767 434 384.367 434.525 386.8 435.575C389.233 436.625 391.35 438.05 393.15 439.85C394.95 441.65 396.375 443.767 397.425 446.2C398.475 448.633 399 451.233 399 454C399 456.767 398.475 459.367 397.425 461.8C396.375 464.233 394.95 466.35 393.15 468.15C391.35 469.95 389.233 471.375 386.8 472.425C384.367 473.475 381.767 474 379 474Z" fill="#0FA95F"/>
</g>
</g>
</g>
<g filter="url(#filter5_d_8358_7519)">
<g clip-path="url(#clip3_8358_7519)">
<rect x="567" y="430" width="48" height="48" rx="24" fill="white"/>
<mask id="mask3_8358_7519" style="mask-type:alpha" maskUnits="userSpaceOnUse" x="567" y="430" width="48" height="48">
<rect x="567" y="430" width="48" height="48" fill="#D9D9D9"/>
</mask>
<g mask="url(#mask3_8358_7519)">
<path fill-rule="evenodd" clip-rule="evenodd" d="M591 474C602.046 474 611 465.046 611 454C611 442.954 602.046 434 591 434C579.954 434 571 442.954 571 454C571 465.046 579.954 474 591 474ZM591 456.8L585.8 462L583 459.2L588.2 454L583 448.8L585.8 446L591 451.2L596.2 446L599 448.8L593.8 454L599 459.2L596.2 462L591 456.8Z" fill="#DE3730"/>
</g>
</g>
</g>
<path d="M453 165H461.064C474.284 165 485 175.716 485 188.936V188.936C485 202.009 495.49 212.664 508.562 212.868L517 213L508.562 213.132C495.49 213.336 485 223.991 485 237.064V237.064C485 250.284 474.284 261 461.064 261H453" stroke="#9AAEBC" stroke-width="2"/>
<defs>
<filter id="filter0_d_8358_7519" x="53" y="332" width="206" height="52" filterUnits="userSpaceOnUse" color-interpolation-filters="sRGB">
<feFlood flood-opacity="0" result="BackgroundImageFix"/>
<feColorMatrix in="SourceAlpha" type="matrix" values="0 0 0 0 0 0 0 0 0 0 0 0 0 0 0 0 0 0 127 0" result="hardAlpha"/>
<feMorphology radius="2" operator="dilate" in="SourceAlpha" result="effect1_dropShadow_8358_7519"/>
<feOffset/>
<feComposite in2="hardAlpha" operator="out"/>
<feColorMatrix type="matrix" values="0 0 0 0 0.505882 0 0 0 0 0.580392 0 0 0 0 0.635294 0 0 0 1 0"/>
<feBlend mode="normal" in2="BackgroundImageFix" result="effect1_dropShadow_8358_7519"/>
<feBlend mode="normal" in="SourceGraphic" in2="effect1_dropShadow_8358_7519" result="shape"/>
</filter>
<filter id="filter1_d_8358_7519" x="53" y="428" width="206" height="52" filterUnits="userSpaceOnUse" color-interpolation-filters="sRGB">
<feFlood flood-opacity="0" result="BackgroundImageFix"/>
<feColorMatrix in="SourceAlpha" type="matrix" values="0 0 0 0 0 0 0 0 0 0 0 0 0 0 0 0 0 0 127 0" result="hardAlpha"/>
<feMorphology radius="2" operator="dilate" in="SourceAlpha" result="effect1_dropShadow_8358_7519"/>
<feOffset/>
<feComposite in2="hardAlpha" operator="out"/>
<feColorMatrix type="matrix" values="0 0 0 0 0.505882 0 0 0 0 0.580392 0 0 0 0 0.635294 0 0 0 1 0"/>
<feBlend mode="normal" in2="BackgroundImageFix" result="effect1_dropShadow_8358_7519"/>
<feBlend mode="normal" in="SourceGraphic" in2="effect1_dropShadow_8358_7519" result="shape"/>
</filter>
<filter id="filter2_d_8358_7519" x="353" y="332" width="52" height="52" filterUnits="userSpaceOnUse" color-interpolation-filters="sRGB">
<feFlood flood-opacity="0" result="BackgroundImageFix"/>
<feColorMatrix in="SourceAlpha" type="matrix" values="0 0 0 0 0 0 0 0 0 0 0 0 0 0 0 0 0 0 127 0" result="hardAlpha"/>
<feMorphology radius="2" operator="dilate" in="SourceAlpha" result="effect1_dropShadow_8358_7519"/>
<feOffset/>
<feComposite in2="hardAlpha" operator="out"/>
<feColorMatrix type="matrix" values="0 0 0 0 0.505882 0 0 0 0 0.580392 0 0 0 0 0.635294 0 0 0 1 0"/>
<feBlend mode="normal" in2="BackgroundImageFix" result="effect1_dropShadow_8358_7519"/>
<feBlend mode="normal" in="SourceGraphic" in2="effect1_dropShadow_8358_7519" result="shape"/>
</filter>
<filter id="filter3_d_8358_7519" x="565" y="332" width="52" height="52" filterUnits="userSpaceOnUse" color-interpolation-filters="sRGB">
<feFlood flood-opacity="0" result="BackgroundImageFix"/>
<feColorMatrix in="SourceAlpha" type="matrix" values="0 0 0 0 0 0 0 0 0 0 0 0 0 0 0 0 0 0 127 0" result="hardAlpha"/>
<feMorphology radius="2" operator="dilate" in="SourceAlpha" result="effect1_dropShadow_8358_7519"/>
<feOffset/>
<feComposite in2="hardAlpha" operator="out"/>
<feColorMatrix type="matrix" values="0 0 0 0 0.505882 0 0 0 0 0.580392 0 0 0 0 0.635294 0 0 0 1 0"/>
<feBlend mode="normal" in2="BackgroundImageFix" result="effect1_dropShadow_8358_7519"/>
<feBlend mode="normal" in="SourceGraphic" in2="effect1_dropShadow_8358_7519" result="shape"/>
</filter>
<filter id="filter4_d_8358_7519" x="353" y="428" width="52" height="52" filterUnits="userSpaceOnUse" color-interpolation-filters="sRGB">
<feFlood flood-opacity="0" result="BackgroundImageFix"/>
<feColorMatrix in="SourceAlpha" type="matrix" values="0 0 0 0 0 0 0 0 0 0 0 0 0 0 0 0 0 0 127 0" result="hardAlpha"/>
<feMorphology radius="2" operator="dilate" in="SourceAlpha" result="effect1_dropShadow_8358_7519"/>
<feOffset/>
<feComposite in2="hardAlpha" operator="out"/>
<feColorMatrix type="matrix" values="0 0 0 0 0.505882 0 0 0 0 0.580392 0 0 0 0 0.635294 0 0 0 1 0"/>
<feBlend mode="normal" in2="BackgroundImageFix" result="effect1_dropShadow_8358_7519"/>
<feBlend mode="normal" in="SourceGraphic" in2="effect1_dropShadow_8358_7519" result="shape"/>
</filter>
<filter id="filter5_d_8358_7519" x="565" y="428" width="52" height="52" filterUnits="userSpaceOnUse" color-interpolation-filters="sRGB">
<feFlood flood-opacity="0" result="BackgroundImageFix"/>
<feColorMatrix in="SourceAlpha" type="matrix" values="0 0 0 0 0 0 0 0 0 0 0 0 0 0 0 0 0 0 127 0" result="hardAlpha"/>
<feMorphology radius="2" operator="dilate" in="SourceAlpha" result="effect1_dropShadow_8358_7519"/>
<feOffset/>
<feComposite in2="hardAlpha" operator="out"/>
<feColorMatrix type="matrix" values="0 0 0 0 0.505882 0 0 0 0 0.580392 0 0 0 0 0.635294 0 0 0 1 0"/>
<feBlend mode="normal" in2="BackgroundImageFix" result="effect1_dropShadow_8358_7519"/>
<feBlend mode="normal" in="SourceGraphic" in2="effect1_dropShadow_8358_7519" result="shape"/>
</filter>
<clipPath id="clip0_8358_7519">
<rect x="355" y="334" width="48" height="48" rx="24" fill="white"/>
</clipPath>
<clipPath id="clip1_8358_7519">
<rect x="567" y="334" width="48" height="48" rx="24" fill="white"/>
</clipPath>
<clipPath id="clip2_8358_7519">
<rect x="355" y="430" width="48" height="48" rx="24" fill="white"/>
</clipPath>
<clipPath id="clip3_8358_7519">
<rect x="567" y="430" width="48" height="48" rx="24" fill="white"/>
</clipPath>
</defs>
</svg>
