<svg width="560" height="360" viewBox="0 0 560 360" fill="none" xmlns="http://www.w3.org/2000/svg">
<rect x="89" y="97" width="96" height="94" rx="15" fill="#FFEDEA"/>
<rect x="89" y="97" width="96" height="94" rx="15" stroke="#BA1A1A" stroke-width="2"/>
<path d="M117.008 132.192C116.421 132.192 115.883 132.123 115.392 131.984C114.912 131.845 114.485 131.653 114.112 131.408C113.749 131.163 113.445 130.891 113.2 130.592C112.965 130.283 112.8 129.963 112.704 129.632L114.528 129.072C114.667 129.467 114.939 129.813 115.344 130.112C115.749 130.411 116.251 130.565 116.848 130.576C117.541 130.576 118.091 130.432 118.496 130.144C118.901 129.856 119.104 129.477 119.104 129.008C119.104 128.581 118.933 128.235 118.592 127.968C118.251 127.691 117.792 127.477 117.216 127.328L115.84 126.976C115.317 126.837 114.843 126.635 114.416 126.368C114 126.101 113.669 125.765 113.424 125.36C113.189 124.955 113.072 124.475 113.072 123.92C113.072 122.875 113.413 122.064 114.096 121.488C114.779 120.901 115.755 120.608 117.024 120.608C117.739 120.608 118.363 120.72 118.896 120.944C119.44 121.157 119.888 121.456 120.24 121.84C120.592 122.213 120.853 122.64 121.024 123.12L119.232 123.696C119.072 123.269 118.795 122.917 118.4 122.64C118.005 122.363 117.515 122.224 116.928 122.224C116.32 122.224 115.84 122.368 115.488 122.656C115.147 122.944 114.976 123.344 114.976 123.856C114.976 124.272 115.109 124.597 115.376 124.832C115.653 125.056 116.027 125.227 116.496 125.344L117.872 125.68C118.875 125.925 119.653 126.347 120.208 126.944C120.763 127.541 121.04 128.203 121.04 128.928C121.04 129.568 120.885 130.133 120.576 130.624C120.267 131.115 119.808 131.499 119.2 131.776C118.603 132.053 117.872 132.192 117.008 132.192ZM122.87 132L122.886 124H124.662L124.646 132H122.87ZM123.766 122.48C123.478 122.48 123.227 122.379 123.014 122.176C122.811 121.963 122.71 121.712 122.71 121.424C122.71 121.136 122.811 120.891 123.014 120.688C123.227 120.485 123.478 120.384 123.766 120.384C124.054 120.384 124.299 120.485 124.502 120.688C124.715 120.891 124.822 121.136 124.822 121.424C124.822 121.712 124.715 121.963 124.502 122.176C124.299 122.379 124.054 122.48 123.766 122.48ZM130.198 135.408C129.632 135.408 129.12 135.36 128.662 135.264C128.214 135.168 127.835 135.056 127.526 134.928C127.216 134.8 126.976 134.677 126.806 134.56L127.494 133.12C127.643 133.195 127.84 133.285 128.086 133.392C128.342 133.509 128.64 133.611 128.982 133.696C129.323 133.781 129.707 133.824 130.134 133.824C130.592 133.824 131.003 133.728 131.366 133.536C131.728 133.355 132.011 133.072 132.214 132.688C132.416 132.304 132.518 131.813 132.518 131.216V124H134.31V131.168C134.31 132.075 134.139 132.843 133.798 133.472C133.456 134.112 132.976 134.592 132.358 134.912C131.739 135.243 131.019 135.408 130.198 135.408ZM129.926 131.84C129.2 131.84 128.566 131.675 128.022 131.344C127.488 131.013 127.067 130.555 126.758 129.968C126.459 129.371 126.31 128.683 126.31 127.904C126.31 127.072 126.459 126.352 126.758 125.744C127.067 125.136 127.488 124.661 128.022 124.32C128.566 123.979 129.2 123.808 129.926 123.808C130.576 123.808 131.142 123.979 131.622 124.32C132.112 124.661 132.491 125.141 132.758 125.76C133.024 126.368 133.158 127.088 133.158 127.92C133.158 128.709 133.024 129.397 132.758 129.984C132.491 130.571 132.112 131.029 131.622 131.36C131.142 131.68 130.576 131.84 129.926 131.84ZM130.422 130.32C130.827 130.32 131.179 130.213 131.478 130C131.787 129.787 132.027 129.499 132.198 129.136C132.368 128.763 132.454 128.336 132.454 127.856C132.454 127.365 132.368 126.939 132.198 126.576C132.027 126.203 131.787 125.915 131.478 125.712C131.168 125.499 130.811 125.392 130.406 125.392C129.979 125.392 129.6 125.499 129.27 125.712C128.95 125.915 128.694 126.203 128.502 126.576C128.32 126.939 128.23 127.365 128.23 127.856C128.23 128.336 128.32 128.763 128.502 129.136C128.694 129.499 128.955 129.787 129.286 130C129.616 130.213 129.995 130.32 130.422 130.32ZM136.289 132V124H137.969L138.081 125.472V132H136.289ZM141.713 132V127.904L143.505 127.424V132H141.713ZM141.713 127.904C141.713 127.264 141.638 126.773 141.489 126.432C141.35 126.08 141.148 125.835 140.881 125.696C140.625 125.557 140.321 125.488 139.969 125.488C139.372 125.477 138.908 125.675 138.577 126.08C138.246 126.485 138.081 127.067 138.081 127.824H137.409C137.409 126.981 137.532 126.261 137.777 125.664C138.022 125.056 138.374 124.597 138.833 124.288C139.292 123.968 139.836 123.808 140.465 123.808C141.436 123.808 142.182 124.107 142.705 124.704C143.238 125.291 143.505 126.197 143.505 127.424L141.713 127.904ZM150.168 132L150.088 130.496V127.888C150.088 127.344 150.029 126.891 149.912 126.528C149.795 126.165 149.608 125.888 149.352 125.696C149.107 125.504 148.781 125.408 148.376 125.408C148.003 125.408 147.672 125.488 147.384 125.648C147.096 125.808 146.856 126.053 146.664 126.384L145.032 125.808C145.213 125.456 145.448 125.125 145.736 124.816C146.024 124.507 146.387 124.261 146.824 124.08C147.272 123.899 147.8 123.808 148.408 123.808C149.187 123.808 149.832 123.952 150.344 124.24C150.867 124.528 151.256 124.955 151.512 125.52C151.768 126.085 151.896 126.784 151.896 127.616L151.848 132H150.168ZM147.896 132.192C146.936 132.192 146.189 131.979 145.656 131.552C145.133 131.125 144.872 130.523 144.872 129.744C144.872 128.912 145.149 128.277 145.704 127.84C146.269 127.403 147.053 127.184 148.056 127.184H150.2V128.56H148.632C147.917 128.56 147.416 128.661 147.128 128.864C146.84 129.056 146.696 129.333 146.696 129.696C146.696 130.005 146.819 130.251 147.064 130.432C147.32 130.603 147.672 130.688 148.12 130.688C148.515 130.688 148.856 130.597 149.144 130.416C149.443 130.224 149.672 129.979 149.832 129.68C150.003 129.371 150.088 129.04 150.088 128.688H150.744C150.744 129.776 150.509 130.635 150.04 131.264C149.581 131.883 148.867 132.192 147.896 132.192ZM153.711 132V120.8H155.503V132H153.711ZM158.756 126.24C158.447 126.24 158.18 126.128 157.956 125.904C157.732 125.68 157.62 125.413 157.62 125.104C157.62 124.795 157.732 124.533 157.956 124.32C158.18 124.096 158.447 123.984 158.756 123.984C159.055 123.984 159.316 124.096 159.54 124.32C159.764 124.533 159.876 124.795 159.876 125.104C159.876 125.413 159.764 125.68 159.54 125.904C159.316 126.128 159.055 126.24 158.756 126.24ZM158.772 132.032C158.463 132.032 158.196 131.92 157.972 131.696C157.748 131.472 157.636 131.205 157.636 130.896C157.636 130.587 157.748 130.325 157.972 130.112C158.196 129.888 158.463 129.776 158.772 129.776C159.081 129.776 159.343 129.888 159.556 130.112C159.78 130.325 159.892 130.587 159.892 130.896C159.892 131.205 159.78 131.472 159.556 131.696C159.343 131.92 159.081 132.032 158.772 132.032Z" fill="#410002"/>
<rect x="127" y="148.5" width="20" height="23" rx="5.5" fill="#FFDAD6"/>
<rect x="127" y="148.5" width="20" height="23" rx="5.5" stroke="#BA1A1A"/>
<path d="M137.982 165H136.335V157.07L133.785 158.007V156.564L137.88 155.047H137.982V165Z" fill="#410002"/>
<path d="M140 256L145.774 246H134.226L140 256ZM139 192V247H141V192H139Z" fill="#BA1A1A"/>
<path d="M301 288L311 293.773V282.226L301 288ZM306.437 289H310.062V287H306.437V289ZM313.687 289H317.312V287H313.687V289ZM320.937 289H324.562V287H320.937V289ZM328.187 289H330V287H328.187V289ZM330 289C330.752 289 331.492 288.951 332.219 288.856L331.96 286.873C331.319 286.957 330.665 287 330 287V289ZM336.508 287.71C337.89 287.136 339.18 286.386 340.35 285.487L339.131 283.901C338.099 284.695 336.96 285.357 335.742 285.862L336.508 287.71ZM343.487 282.35C344.386 281.18 345.136 279.89 345.71 278.508L343.862 277.742C343.357 278.96 342.695 280.099 341.901 281.131L343.487 282.35ZM346.856 274.219C346.951 273.492 347 272.752 347 272H345C345 272.665 344.957 273.319 344.873 273.96L346.856 274.219ZM347 272V270H345V272H347ZM347 266V262H345V266H347ZM347 258V254H345V258H347ZM347 250V246H345V250H347ZM347 242V238H345V242H347ZM347 234V230H345V234H347ZM347 226V222H345V226H347ZM347 218V214H345V218H347ZM347 210V206H345V210H347ZM347 202V198H345V202H347ZM347 194V192H345V194H347Z" fill="#9AAEBC"/>
<rect x="283" y="97" width="129" height="94" rx="15" fill="#E6F4FF"/>
<rect x="283" y="97" width="129" height="94" rx="15" stroke="#9AAEBC" stroke-width="2"/>
<path d="M312.176 132.192C311.099 132.192 310.139 131.947 309.296 131.456C308.464 130.955 307.808 130.272 307.328 129.408C306.859 128.533 306.624 127.531 306.624 126.4C306.624 125.269 306.859 124.272 307.328 123.408C307.808 122.533 308.464 121.851 309.296 121.36C310.128 120.859 311.083 120.608 312.16 120.608C312.885 120.608 313.568 120.741 314.208 121.008C314.848 121.264 315.413 121.621 315.904 122.08C316.405 122.539 316.789 123.072 317.056 123.68L315.36 124.368C315.168 123.963 314.907 123.605 314.576 123.296C314.256 122.976 313.888 122.731 313.472 122.56C313.056 122.389 312.619 122.304 312.16 122.304C311.456 122.304 310.827 122.48 310.272 122.832C309.728 123.184 309.296 123.669 308.976 124.288C308.667 124.896 308.512 125.6 308.512 126.4C308.512 127.2 308.667 127.909 308.976 128.528C309.296 129.147 309.733 129.632 310.288 129.984C310.853 130.336 311.493 130.512 312.208 130.512C312.677 130.512 313.115 130.421 313.52 130.24C313.936 130.048 314.304 129.787 314.624 129.456C314.955 129.125 315.216 128.741 315.408 128.304L317.104 128.992C316.837 129.621 316.459 130.181 315.968 130.672C315.477 131.152 314.907 131.525 314.256 131.792C313.605 132.059 312.912 132.192 312.176 132.192ZM322.235 132.192C321.435 132.192 320.72 132.016 320.091 131.664C319.472 131.301 318.987 130.805 318.635 130.176C318.283 129.547 318.107 128.821 318.107 128C318.107 127.179 318.277 126.453 318.618 125.824C318.971 125.195 319.456 124.704 320.075 124.352C320.693 123.989 321.403 123.808 322.203 123.808C323.003 123.808 323.712 123.989 324.331 124.352C324.949 124.704 325.429 125.195 325.771 125.824C326.123 126.453 326.299 127.179 326.299 128C326.299 128.821 326.128 129.547 325.786 130.176C325.445 130.805 324.965 131.301 324.347 131.664C323.728 132.016 323.024 132.192 322.235 132.192ZM322.235 130.544C322.672 130.544 323.061 130.437 323.403 130.224C323.744 130 324.011 129.701 324.203 129.328C324.395 128.944 324.491 128.501 324.491 128C324.491 127.499 324.389 127.061 324.187 126.688C323.995 126.304 323.728 126.005 323.387 125.792C323.045 125.568 322.651 125.456 322.203 125.456C321.755 125.456 321.36 125.563 321.019 125.776C320.677 125.989 320.411 126.288 320.219 126.672C320.027 127.056 319.931 127.499 319.931 128C319.931 128.501 320.027 128.944 320.219 129.328C320.421 129.701 320.693 130 321.035 130.224C321.387 130.437 321.787 130.544 322.235 130.544ZM327.851 132V124H329.531L329.643 125.472V132H327.851ZM333.275 132V127.904L335.067 127.424V132H333.275ZM338.715 132V127.904L340.491 127.424V132H338.715ZM333.275 127.904C333.275 127.264 333.201 126.773 333.051 126.432C332.913 126.08 332.71 125.835 332.443 125.696C332.187 125.557 331.883 125.488 331.531 125.488C330.934 125.477 330.47 125.675 330.139 126.08C329.809 126.485 329.643 127.067 329.643 127.824H328.971C328.971 126.981 329.094 126.261 329.339 125.664C329.585 125.056 329.937 124.597 330.395 124.288C330.854 123.968 331.398 123.808 332.027 123.808C332.998 123.808 333.745 124.107 334.267 124.704C334.801 125.291 335.067 126.197 335.067 127.424L333.275 127.904ZM338.715 127.904C338.715 127.264 338.641 126.773 338.491 126.432C338.342 126.08 338.134 125.835 337.867 125.696C337.611 125.557 337.313 125.488 336.971 125.488C336.363 125.477 335.894 125.675 335.563 126.08C335.233 126.485 335.067 127.067 335.067 127.824H334.395C334.395 126.981 334.518 126.261 334.763 125.664C335.009 125.056 335.361 124.597 335.819 124.288C336.278 123.968 336.822 123.808 337.451 123.808C338.422 123.808 339.174 124.107 339.707 124.704C340.241 125.291 340.502 126.197 340.491 127.424L338.715 127.904ZM342.4 135.2V124H344.08L344.192 125.472V135.2H342.4ZM346.72 132.192C346.048 132.192 345.467 132.021 344.976 131.68C344.496 131.328 344.128 130.837 343.872 130.208C343.616 129.579 343.488 128.843 343.488 128C343.488 127.147 343.616 126.411 343.872 125.792C344.128 125.163 344.496 124.677 344.976 124.336C345.467 123.984 346.048 123.808 346.72 123.808C347.445 123.808 348.075 123.984 348.608 124.336C349.152 124.677 349.573 125.163 349.872 125.792C350.181 126.411 350.336 127.147 350.336 128C350.336 128.843 350.181 129.579 349.872 130.208C349.573 130.837 349.152 131.328 348.608 131.68C348.075 132.021 347.445 132.192 346.72 132.192ZM346.272 130.56C346.699 130.56 347.077 130.453 347.408 130.24C347.739 130.016 348 129.712 348.192 129.328C348.395 128.944 348.496 128.501 348.496 128C348.496 127.499 348.4 127.056 348.208 126.672C348.027 126.288 347.771 125.989 347.44 125.776C347.109 125.563 346.725 125.456 346.288 125.456C345.883 125.456 345.52 125.563 345.2 125.776C344.88 125.989 344.629 126.288 344.448 126.672C344.277 127.056 344.192 127.499 344.192 128C344.192 128.501 344.277 128.944 344.448 129.328C344.629 129.712 344.875 130.016 345.184 130.24C345.504 130.453 345.867 130.56 346.272 130.56ZM357.227 132L357.131 130.528V124H358.907V132H357.227ZM351.691 128.576V124H353.483V128.096L351.691 128.576ZM353.483 128.096C353.483 128.725 353.558 129.216 353.707 129.568C353.856 129.92 354.059 130.165 354.315 130.304C354.582 130.443 354.886 130.512 355.227 130.512C355.835 130.523 356.304 130.325 356.635 129.92C356.966 129.515 357.131 128.933 357.131 128.176H357.803C357.803 129.019 357.675 129.744 357.419 130.352C357.174 130.949 356.822 131.408 356.363 131.728C355.915 132.037 355.376 132.192 354.747 132.192C353.776 132.192 353.024 131.893 352.491 131.296C351.958 130.699 351.691 129.792 351.691 128.576L353.483 128.096ZM364.082 132.192C363.24 132.192 362.594 131.984 362.146 131.568C361.709 131.141 361.49 130.533 361.49 129.744V121.504H363.266V129.408C363.266 129.781 363.352 130.064 363.522 130.256C363.704 130.448 363.965 130.544 364.306 130.544C364.413 130.544 364.53 130.523 364.658 130.48C364.786 130.437 364.93 130.357 365.09 130.24L365.746 131.6C365.469 131.792 365.192 131.936 364.914 132.032C364.637 132.139 364.36 132.192 364.082 132.192ZM360.162 125.536V124H365.426V125.536H360.162ZM370.638 132.192C369.859 132.192 369.166 132.016 368.558 131.664C367.961 131.301 367.486 130.805 367.134 130.176C366.793 129.547 366.622 128.821 366.622 128C366.622 127.179 366.798 126.453 367.15 125.824C367.502 125.195 367.982 124.704 368.59 124.352C369.209 123.989 369.913 123.808 370.702 123.808C371.417 123.808 372.057 123.995 372.622 124.368C373.198 124.731 373.657 125.259 373.998 125.952C374.339 126.645 374.51 127.472 374.51 128.432H372.702C372.702 127.739 372.617 127.168 372.446 126.72C372.286 126.272 372.051 125.941 371.742 125.728C371.443 125.504 371.075 125.392 370.638 125.392C370.179 125.392 369.785 125.493 369.454 125.696C369.123 125.899 368.873 126.197 368.702 126.592C368.531 126.976 368.446 127.461 368.446 128.048C368.446 128.571 368.547 129.019 368.75 129.392C368.963 129.765 369.246 130.053 369.598 130.256C369.961 130.448 370.361 130.544 370.798 130.544C371.278 130.544 371.673 130.437 371.982 130.224C372.291 130 372.531 129.717 372.702 129.376L374.35 130.08C374.126 130.507 373.838 130.88 373.486 131.2C373.145 131.52 372.734 131.765 372.254 131.936C371.785 132.107 371.246 132.192 370.638 132.192ZM367.806 128.432V127.008H373.566V128.432H367.806ZM381.659 132L381.579 130.512V120.8H383.355V132H381.659ZM379.051 132.192C378.325 132.192 377.691 132.021 377.147 131.68C376.613 131.328 376.192 130.837 375.883 130.208C375.584 129.579 375.435 128.843 375.435 128C375.435 127.147 375.584 126.411 375.883 125.792C376.192 125.163 376.613 124.677 377.147 124.336C377.691 123.984 378.325 123.808 379.051 123.808C379.723 123.808 380.299 123.984 380.779 124.336C381.269 124.677 381.643 125.163 381.899 125.792C382.155 126.411 382.283 127.147 382.283 128C382.283 128.843 382.155 129.579 381.899 130.208C381.643 130.837 381.269 131.328 380.779 131.68C380.299 132.021 379.723 132.192 379.051 132.192ZM379.499 130.56C379.904 130.56 380.261 130.453 380.571 130.24C380.891 130.016 381.136 129.712 381.307 129.328C381.488 128.944 381.579 128.501 381.579 128C381.579 127.499 381.488 127.056 381.307 126.672C381.136 126.288 380.891 125.989 380.571 125.776C380.261 125.563 379.899 125.456 379.483 125.456C379.056 125.456 378.677 125.563 378.347 125.776C378.016 125.989 377.755 126.288 377.563 126.672C377.381 127.056 377.285 127.499 377.275 128C377.285 128.501 377.381 128.944 377.563 129.328C377.755 129.712 378.016 130.016 378.347 130.24C378.688 130.453 379.072 130.56 379.499 130.56ZM386.6 126.24C386.29 126.24 386.024 126.128 385.8 125.904C385.576 125.68 385.464 125.413 385.464 125.104C385.464 124.795 385.576 124.533 385.8 124.32C386.024 124.096 386.29 123.984 386.6 123.984C386.898 123.984 387.16 124.096 387.384 124.32C387.608 124.533 387.72 124.795 387.72 125.104C387.72 125.413 387.608 125.68 387.384 125.904C387.16 126.128 386.898 126.24 386.6 126.24ZM386.616 132.032C386.306 132.032 386.04 131.92 385.816 131.696C385.592 131.472 385.48 131.205 385.48 130.896C385.48 130.587 385.592 130.325 385.816 130.112C386.04 129.888 386.306 129.776 386.616 129.776C386.925 129.776 387.186 129.888 387.4 130.112C387.624 130.325 387.736 130.587 387.736 130.896C387.736 131.205 387.624 131.472 387.4 131.696C387.186 131.92 386.925 132.032 386.616 132.032Z" fill="#0B1D28"/>
<rect x="329" y="148.5" width="37" height="23" rx="5.5" fill="#FFEBF7"/>
<rect x="329" y="148.5" width="37" height="23" rx="5.5" stroke="#FFADF3"/>
<path d="M342.266 160.687C342.266 161.088 342.229 161.475 342.156 161.849C342.088 162.222 341.988 162.576 341.855 162.908C341.714 163.241 341.539 163.549 341.329 163.831C341.119 164.109 340.878 164.348 340.604 164.549C340.34 164.731 340.046 164.875 339.723 164.979C339.404 165.084 339.053 165.137 338.67 165.137C338.273 165.137 337.909 165.082 337.576 164.973C337.248 164.859 336.954 164.704 336.694 164.508C336.43 164.307 336.198 164.066 335.997 163.783C335.801 163.501 335.637 163.191 335.505 162.854C335.377 162.53 335.282 162.186 335.218 161.821C335.154 161.452 335.122 161.074 335.122 160.687V159.374C335.122 158.968 335.156 158.576 335.225 158.198C335.293 157.82 335.396 157.462 335.532 157.125C335.664 156.801 335.826 156.505 336.018 156.236C336.214 155.963 336.444 155.726 336.708 155.525C336.963 155.329 337.253 155.179 337.576 155.074C337.904 154.965 338.264 154.91 338.656 154.91C339.053 154.91 339.417 154.965 339.75 155.074C340.083 155.184 340.381 155.336 340.646 155.532C340.91 155.728 341.14 155.958 341.336 156.223C341.532 156.487 341.696 156.776 341.828 157.091C341.974 157.428 342.083 157.79 342.156 158.178C342.229 158.561 342.266 158.959 342.266 159.374V160.687ZM340.611 159.36C340.607 159.11 340.591 158.864 340.563 158.622C340.541 158.381 340.5 158.15 340.44 157.932C340.372 157.681 340.281 157.453 340.167 157.248C340.058 157.038 339.923 156.861 339.764 156.715C339.622 156.587 339.461 156.487 339.278 156.414C339.096 156.341 338.889 156.305 338.656 156.305C338.433 156.305 338.232 156.341 338.055 156.414C337.877 156.482 337.722 156.578 337.59 156.701C337.43 156.852 337.296 157.032 337.187 157.241C337.077 157.446 336.993 157.676 336.934 157.932C336.879 158.15 336.838 158.383 336.811 158.629C336.788 158.87 336.776 159.114 336.776 159.36V160.687C336.776 160.928 336.788 161.167 336.811 161.404C336.833 161.641 336.872 161.869 336.927 162.088C336.986 162.334 337.066 162.564 337.166 162.778C337.271 162.988 337.396 163.166 337.542 163.312C337.683 163.448 337.845 163.558 338.027 163.64C338.214 163.717 338.428 163.756 338.67 163.756C338.902 163.756 339.112 163.717 339.299 163.64C339.49 163.562 339.654 163.457 339.791 163.325C339.951 163.175 340.083 162.997 340.188 162.792C340.297 162.582 340.383 162.352 340.447 162.102C340.502 161.883 340.541 161.655 340.563 161.418C340.591 161.176 340.607 160.933 340.611 160.687V159.36ZM343.749 161.247C343.749 160.687 343.815 160.176 343.947 159.716C344.084 159.251 344.28 158.852 344.535 158.52C344.786 158.187 345.091 157.929 345.451 157.747C345.816 157.56 346.226 157.467 346.682 157.467C347.092 157.467 347.45 157.54 347.755 157.686C348.065 157.827 348.338 158.03 348.575 158.294V154.5H350.209V165H348.726L348.65 164.228C348.413 164.519 348.131 164.745 347.803 164.904C347.475 165.059 347.096 165.137 346.668 165.137C346.217 165.137 345.811 165.043 345.451 164.856C345.091 164.665 344.786 164.401 344.535 164.063C344.285 163.731 344.091 163.337 343.954 162.881C343.817 162.421 343.749 161.924 343.749 161.391V161.247ZM345.383 161.391C345.383 161.719 345.415 162.029 345.479 162.32C345.542 162.612 345.643 162.865 345.779 163.079C345.916 163.302 346.091 163.478 346.306 163.605C346.52 163.729 346.777 163.79 347.078 163.79C347.447 163.79 347.753 163.71 347.994 163.551C348.236 163.387 348.429 163.166 348.575 162.888V159.709C348.429 159.436 348.236 159.219 347.994 159.06C347.757 158.896 347.456 158.813 347.092 158.813C346.786 158.813 346.524 158.877 346.306 159.005C346.091 159.132 345.918 159.308 345.786 159.531C345.645 159.755 345.542 160.014 345.479 160.311C345.415 160.602 345.383 160.914 345.383 161.247V161.391ZM352.157 161.247C352.157 160.687 352.223 160.176 352.355 159.716C352.492 159.251 352.688 158.852 352.943 158.52C353.194 158.187 353.499 157.929 353.859 157.747C354.224 157.56 354.634 157.467 355.09 157.467C355.5 157.467 355.858 157.54 356.163 157.686C356.473 157.827 356.746 158.03 356.983 158.294V154.5H358.617V165H357.134L357.059 164.228C356.822 164.519 356.539 164.745 356.211 164.904C355.883 165.059 355.505 165.137 355.076 165.137C354.625 165.137 354.219 165.043 353.859 164.856C353.499 164.665 353.194 164.401 352.943 164.063C352.693 163.731 352.499 163.337 352.362 162.881C352.226 162.421 352.157 161.924 352.157 161.391V161.247ZM353.791 161.391C353.791 161.719 353.823 162.029 353.887 162.32C353.951 162.612 354.051 162.865 354.188 163.079C354.324 163.302 354.5 163.478 354.714 163.605C354.928 163.729 355.186 163.79 355.486 163.79C355.855 163.79 356.161 163.71 356.402 163.551C356.644 163.387 356.838 163.166 356.983 162.888V159.709C356.838 159.436 356.644 159.219 356.402 159.06C356.165 158.896 355.865 158.813 355.5 158.813C355.195 158.813 354.933 158.877 354.714 159.005C354.5 159.132 354.326 159.308 354.194 159.531C354.053 159.755 353.951 160.014 353.887 160.311C353.823 160.602 353.791 160.914 353.791 161.247V161.391Z" fill="#380037"/>
<rect x="89" y="257" width="211" height="62" rx="15" fill="#FFEDEA"/>
<rect x="89" y="257" width="211" height="62" rx="15" stroke="#BA1A1A" stroke-width="2"/>
<path d="M113.494 294V281.4H115.582V294H113.494ZM115.15 294V292.092H121.306V294H115.15ZM115.15 288.528V286.656H120.586V288.528H115.15ZM115.15 283.308V281.4H121.252V283.308H115.15ZM124.633 294V284.046C124.633 283.098 124.867 282.372 125.335 281.868C125.815 281.352 126.535 281.094 127.495 281.094C127.807 281.094 128.137 281.148 128.485 281.256C128.845 281.352 129.187 281.484 129.511 281.652L128.773 283.146C128.545 283.038 128.341 282.96 128.161 282.912C127.993 282.864 127.843 282.84 127.711 282.84C127.351 282.84 127.081 282.96 126.901 283.2C126.733 283.428 126.649 283.806 126.649 284.334V294H124.633ZM123.085 286.656V285H129.007V286.656H123.085ZM131.541 294V284.046C131.541 283.098 131.775 282.372 132.243 281.868C132.723 281.352 133.443 281.094 134.403 281.094C134.715 281.094 135.045 281.148 135.393 281.256C135.753 281.352 136.095 281.484 136.419 281.652L135.681 283.146C135.453 283.038 135.249 282.96 135.069 282.912C134.901 282.864 134.751 282.84 134.619 282.84C134.259 282.84 133.989 282.96 133.809 283.2C133.641 283.428 133.557 283.806 133.557 284.334V294H131.541ZM129.993 286.656V285H135.915V286.656H129.993ZM141.405 294.216C140.529 294.216 139.749 294.018 139.065 293.622C138.393 293.214 137.859 292.656 137.463 291.948C137.079 291.24 136.887 290.424 136.887 289.5C136.887 288.576 137.085 287.76 137.481 287.052C137.877 286.344 138.417 285.792 139.101 285.396C139.797 284.988 140.589 284.784 141.477 284.784C142.281 284.784 143.001 284.994 143.637 285.414C144.285 285.822 144.801 286.416 145.185 287.196C145.569 287.976 145.761 288.906 145.761 289.986H143.727C143.727 289.206 143.631 288.564 143.439 288.06C143.259 287.556 142.995 287.184 142.647 286.944C142.311 286.692 141.897 286.566 141.405 286.566C140.889 286.566 140.445 286.68 140.073 286.908C139.701 287.136 139.419 287.472 139.227 287.916C139.035 288.348 138.939 288.894 138.939 289.554C138.939 290.142 139.053 290.646 139.281 291.066C139.521 291.486 139.839 291.81 140.235 292.038C140.643 292.254 141.093 292.362 141.585 292.362C142.125 292.362 142.569 292.242 142.917 292.002C143.265 291.75 143.535 291.432 143.727 291.048L145.581 291.84C145.329 292.32 145.005 292.74 144.609 293.1C144.225 293.46 143.763 293.736 143.223 293.928C142.695 294.12 142.089 294.216 141.405 294.216ZM138.219 289.986V288.384H144.699V289.986H138.219ZM151.517 294.216C150.593 294.216 149.777 294.018 149.069 293.622C148.361 293.214 147.803 292.656 147.395 291.948C146.999 291.24 146.801 290.424 146.801 289.5C146.801 288.576 146.999 287.76 147.395 287.052C147.803 286.344 148.355 285.792 149.051 285.396C149.759 284.988 150.569 284.784 151.481 284.784C152.369 284.784 153.173 285 153.893 285.432C154.613 285.852 155.147 286.458 155.495 287.25L153.623 287.97C153.431 287.574 153.137 287.256 152.741 287.016C152.345 286.776 151.895 286.656 151.391 286.656C150.899 286.656 150.461 286.782 150.077 287.034C149.693 287.274 149.393 287.61 149.177 288.042C148.961 288.462 148.853 288.948 148.853 289.5C148.853 290.052 148.961 290.544 149.177 290.976C149.405 291.396 149.711 291.732 150.095 291.984C150.491 292.224 150.935 292.344 151.427 292.344C151.931 292.344 152.381 292.218 152.777 291.966C153.173 291.702 153.467 291.348 153.659 290.904L155.531 291.624C155.183 292.44 154.649 293.076 153.929 293.532C153.221 293.988 152.417 294.216 151.517 294.216ZM160.678 294.216C159.73 294.216 159.004 293.982 158.5 293.514C158.008 293.034 157.762 292.35 157.762 291.462V282.192H159.76V291.084C159.76 291.504 159.856 291.822 160.048 292.038C160.252 292.254 160.546 292.362 160.93 292.362C161.05 292.362 161.182 292.338 161.326 292.29C161.47 292.242 161.632 292.152 161.812 292.02L162.55 293.55C162.238 293.766 161.926 293.928 161.614 294.036C161.302 294.156 160.99 294.216 160.678 294.216ZM156.268 286.728V285H162.19V286.728H156.268ZM165.585 287.52C165.237 287.52 164.937 287.394 164.685 287.142C164.433 286.89 164.307 286.59 164.307 286.242C164.307 285.894 164.433 285.6 164.685 285.36C164.937 285.108 165.237 284.982 165.585 284.982C165.921 284.982 166.215 285.108 166.467 285.36C166.719 285.6 166.845 285.894 166.845 286.242C166.845 286.59 166.719 286.89 166.467 287.142C166.215 287.394 165.921 287.52 165.585 287.52ZM165.603 294.036C165.255 294.036 164.955 293.91 164.703 293.658C164.451 293.406 164.325 293.106 164.325 292.758C164.325 292.41 164.451 292.116 164.703 291.876C164.955 291.624 165.255 291.498 165.603 291.498C165.951 291.498 166.245 291.624 166.485 291.876C166.737 292.116 166.863 292.41 166.863 292.758C166.863 293.106 166.737 293.406 166.485 293.658C166.245 293.91 165.951 294.036 165.603 294.036Z" fill="#410002"/>
<rect x="181.5" y="274.5" width="95" height="27" rx="7.5" fill="#FFDAD6"/>
<rect x="181.5" y="274.5" width="95" height="27" rx="7.5" stroke="#FFB4AB"/>
<path d="M196.482 293H194.835V285.07L192.285 286.007V284.564L196.38 283.047H196.482V293ZM209.252 285.604H213.176V291.646H215.35V293H209.252V291.646H211.528V286.964H209.252V285.604ZM211.378 283.689C211.378 283.557 211.401 283.437 211.446 283.327C211.492 283.213 211.558 283.115 211.645 283.033C211.727 282.956 211.825 282.896 211.938 282.855C212.057 282.81 212.189 282.787 212.335 282.787C212.581 282.787 212.779 282.851 212.93 282.979C213.085 283.102 213.174 283.261 213.196 283.457C213.228 283.658 213.194 283.833 213.094 283.983C212.993 284.129 212.848 284.227 212.656 284.277C212.561 284.364 212.447 284.421 212.314 284.448C212.182 284.476 212.036 284.464 211.877 284.414C211.713 284.364 211.588 284.275 211.501 284.147C211.419 284.015 211.378 283.863 211.378 283.689ZM222.117 290.997C222.117 290.869 222.088 290.756 222.028 290.655C221.974 290.555 221.88 290.459 221.748 290.368C221.607 290.286 221.422 290.209 221.194 290.136C220.966 290.063 220.682 289.994 220.34 289.931C219.911 289.844 219.52 289.737 219.164 289.609C218.813 289.482 218.51 289.327 218.255 289.145C218.004 288.971 217.808 288.766 217.667 288.529C217.526 288.292 217.455 288.017 217.455 287.702C217.455 287.401 217.526 287.117 217.667 286.848C217.813 286.574 218.02 286.335 218.289 286.13C218.553 285.925 218.872 285.763 219.246 285.645C219.624 285.526 220.044 285.467 220.504 285.467C220.996 285.467 221.438 285.528 221.83 285.651C222.222 285.77 222.555 285.934 222.828 286.144C223.097 286.353 223.304 286.602 223.45 286.889C223.596 287.176 223.669 287.486 223.669 287.818H222.035C222.035 287.682 222.006 287.552 221.946 287.429C221.892 287.301 221.81 287.187 221.7 287.087C221.573 286.968 221.409 286.875 221.208 286.807C221.007 286.734 220.773 286.697 220.504 286.697C220.258 286.697 220.041 286.725 219.854 286.779C219.672 286.829 219.522 286.9 219.403 286.991C219.285 287.073 219.196 287.171 219.137 287.285C219.077 287.395 219.048 287.511 219.048 287.634C219.048 287.761 219.073 287.878 219.123 287.982C219.173 288.083 219.262 288.172 219.39 288.249C219.508 288.331 219.672 288.406 219.882 288.475C220.096 288.543 220.365 288.604 220.688 288.659C221.14 288.741 221.552 288.841 221.926 288.96C222.299 289.078 222.618 289.224 222.883 289.397C223.147 289.58 223.352 289.794 223.498 290.04C223.644 290.286 223.717 290.578 223.717 290.915C223.717 291.243 223.639 291.544 223.484 291.817C223.334 292.091 223.12 292.326 222.842 292.521C222.559 292.717 222.222 292.87 221.83 292.979C221.438 293.089 221.003 293.144 220.524 293.144C219.991 293.144 219.517 293.073 219.103 292.932C218.692 292.79 218.348 292.604 218.07 292.371C217.788 292.143 217.574 291.881 217.428 291.585C217.282 291.289 217.209 290.988 217.209 290.683H218.795C218.809 290.91 218.868 291.104 218.973 291.264C219.082 291.419 219.219 291.544 219.383 291.64C219.542 291.74 219.725 291.813 219.93 291.858C220.135 291.899 220.342 291.92 220.552 291.92C220.834 291.92 221.08 291.89 221.29 291.831C221.504 291.772 221.675 291.692 221.803 291.592C221.908 291.51 221.985 291.421 222.035 291.325C222.09 291.225 222.117 291.116 222.117 290.997ZM239.911 288.536H235.796V291.646H240.602V293H234.148V283.047H240.567V284.407H235.796V287.21H239.911V288.536ZM244.929 293L242.017 285.604H243.712L245.544 290.97L245.653 291.462L245.763 290.97L247.574 285.604H249.27L246.371 293H244.929ZM254.369 293.137C253.822 293.137 253.321 293.046 252.865 292.863C252.414 292.681 252.027 292.428 251.703 292.104C251.38 291.785 251.129 291.41 250.951 290.977C250.778 290.539 250.691 290.067 250.691 289.562V289.281C250.691 288.702 250.783 288.178 250.965 287.709C251.147 287.24 251.398 286.839 251.717 286.506C252.036 286.173 252.405 285.918 252.824 285.74C253.248 285.558 253.699 285.467 254.178 285.467C254.711 285.467 255.183 285.558 255.593 285.74C256.003 285.918 256.347 286.166 256.625 286.485C256.903 286.809 257.113 287.194 257.254 287.641C257.395 288.087 257.466 288.575 257.466 289.104V289.808H252.339V289.842C252.389 290.165 252.466 290.437 252.571 290.655C252.676 290.874 252.82 291.07 253.002 291.243C253.184 291.425 253.398 291.567 253.645 291.667C253.895 291.767 254.169 291.817 254.465 291.817C254.87 291.817 255.249 291.74 255.6 291.585C255.951 291.425 256.24 291.2 256.468 290.908L257.343 291.756C257.097 292.111 256.718 292.43 256.208 292.713C255.702 292.995 255.089 293.137 254.369 293.137ZM254.171 286.793C253.938 286.793 253.722 286.836 253.521 286.923C253.326 287.005 253.15 287.123 252.995 287.278C252.84 287.438 252.71 287.629 252.605 287.853C252.501 288.076 252.423 288.329 252.373 288.611H255.853V288.502C255.853 288.288 255.814 288.076 255.736 287.866C255.659 287.652 255.549 287.465 255.408 287.306C255.271 287.151 255.098 287.028 254.889 286.937C254.684 286.841 254.444 286.793 254.171 286.793ZM259.325 293V285.604H260.802L260.904 286.656C261.005 286.515 261.114 286.385 261.232 286.267C261.355 286.144 261.485 286.034 261.622 285.938C261.841 285.788 262.08 285.672 262.34 285.59C262.6 285.508 262.873 285.467 263.16 285.467C263.538 285.467 263.885 285.521 264.199 285.631C264.514 285.74 264.783 285.913 265.006 286.15C265.229 286.387 265.402 286.69 265.525 287.06C265.648 287.424 265.71 287.866 265.71 288.386V293H264.076V288.413C264.076 288.108 264.042 287.853 263.974 287.647C263.905 287.442 263.805 287.278 263.673 287.155C263.541 287.032 263.381 286.946 263.194 286.896C263.007 286.841 262.793 286.813 262.552 286.813C262.351 286.813 262.164 286.841 261.991 286.896C261.818 286.946 261.661 287.019 261.52 287.114C261.41 287.187 261.308 287.276 261.212 287.381C261.116 287.486 261.032 287.6 260.959 287.723V293H259.325Z" fill="black"/>
<path d="M282 144L272 138.227L272 149.774L282 144ZM186 145L273 145L273 143L186 143L186 145Z" fill="#BA1A1A"/>
<path d="M379.451 250V238.444H381.539V250H379.451ZM375.581 239.308V237.4H385.409V239.308H375.581ZM386.781 250L386.763 237.238H388.779L388.797 250H386.781ZM392.883 250V245.392L394.899 244.852V250H392.883ZM392.883 245.392C392.883 244.672 392.799 244.12 392.631 243.736C392.463 243.34 392.229 243.064 391.929 242.908C391.641 242.752 391.305 242.674 390.921 242.674C390.237 242.662 389.709 242.884 389.337 243.34C388.977 243.796 388.797 244.45 388.797 245.302H388.023C388.023 244.354 388.161 243.544 388.437 242.872C388.725 242.188 389.127 241.672 389.643 241.324C390.159 240.964 390.771 240.784 391.479 240.784C392.559 240.784 393.399 241.12 393.999 241.792C394.599 242.452 394.899 243.472 394.899 244.852L392.883 245.392ZM400.955 250.216C400.079 250.216 399.299 250.018 398.615 249.622C397.943 249.214 397.409 248.656 397.013 247.948C396.629 247.24 396.437 246.424 396.437 245.5C396.437 244.576 396.635 243.76 397.031 243.052C397.427 242.344 397.967 241.792 398.651 241.396C399.347 240.988 400.139 240.784 401.027 240.784C401.831 240.784 402.551 240.994 403.187 241.414C403.835 241.822 404.351 242.416 404.735 243.196C405.119 243.976 405.311 244.906 405.311 245.986H403.277C403.277 245.206 403.181 244.564 402.989 244.06C402.809 243.556 402.545 243.184 402.197 242.944C401.861 242.692 401.447 242.566 400.955 242.566C400.439 242.566 399.995 242.68 399.623 242.908C399.251 243.136 398.969 243.472 398.777 243.916C398.585 244.348 398.489 244.894 398.489 245.554C398.489 246.142 398.603 246.646 398.831 247.066C399.071 247.486 399.389 247.81 399.785 248.038C400.193 248.254 400.643 248.362 401.135 248.362C401.675 248.362 402.119 248.242 402.467 248.002C402.815 247.75 403.085 247.432 403.277 247.048L405.131 247.84C404.879 248.32 404.555 248.74 404.159 249.1C403.775 249.46 403.313 249.736 402.773 249.928C402.245 250.12 401.639 250.216 400.955 250.216ZM397.769 245.986V244.384H404.249V245.986H397.769ZM412.529 245.212C412.529 244.24 412.715 243.442 413.087 242.818C413.459 242.194 413.939 241.732 414.527 241.432C415.127 241.12 415.751 240.964 416.399 240.964V242.89C415.847 242.89 415.325 242.968 414.833 243.124C414.353 243.268 413.963 243.508 413.663 243.844C413.363 244.18 413.213 244.624 413.213 245.176L412.529 245.212ZM411.197 250V241H413.213V250H411.197ZM421.75 250.216C420.874 250.216 420.094 250.018 419.41 249.622C418.738 249.214 418.204 248.656 417.808 247.948C417.424 247.24 417.232 246.424 417.232 245.5C417.232 244.576 417.43 243.76 417.826 243.052C418.222 242.344 418.762 241.792 419.446 241.396C420.142 240.988 420.934 240.784 421.822 240.784C422.626 240.784 423.346 240.994 423.982 241.414C424.63 241.822 425.146 242.416 425.53 243.196C425.914 243.976 426.106 244.906 426.106 245.986H424.072C424.072 245.206 423.976 244.564 423.784 244.06C423.604 243.556 423.34 243.184 422.992 242.944C422.656 242.692 422.242 242.566 421.75 242.566C421.234 242.566 420.79 242.68 420.418 242.908C420.046 243.136 419.764 243.472 419.572 243.916C419.38 244.348 419.284 244.894 419.284 245.554C419.284 246.142 419.398 246.646 419.626 247.066C419.866 247.486 420.184 247.81 420.58 248.038C420.988 248.254 421.438 248.362 421.93 248.362C422.47 248.362 422.914 248.242 423.262 248.002C423.61 247.75 423.88 247.432 424.072 247.048L425.926 247.84C425.674 248.32 425.35 248.74 424.954 249.1C424.57 249.46 424.108 249.736 423.568 249.928C423.04 250.12 422.434 250.216 421.75 250.216ZM418.564 245.986V244.384H425.044V245.986H418.564ZM430.926 250.216C430.326 250.216 429.774 250.126 429.27 249.946C428.766 249.766 428.334 249.514 427.974 249.19C427.614 248.854 427.338 248.464 427.146 248.02L428.892 247.246C429.072 247.582 429.336 247.864 429.684 248.092C430.044 248.32 430.44 248.434 430.872 248.434C431.34 248.434 431.712 248.356 431.988 248.2C432.276 248.032 432.42 247.804 432.42 247.516C432.42 247.24 432.312 247.03 432.096 246.886C431.88 246.73 431.574 246.604 431.178 246.508L430.332 246.274C429.48 246.058 428.814 245.716 428.334 245.248C427.854 244.768 427.614 244.222 427.614 243.61C427.614 242.71 427.902 242.014 428.478 241.522C429.066 241.03 429.906 240.784 430.998 240.784C431.55 240.784 432.054 240.868 432.51 241.036C432.978 241.192 433.38 241.42 433.716 241.72C434.052 242.008 434.286 242.35 434.418 242.746L432.744 243.502C432.624 243.202 432.396 242.974 432.06 242.818C431.724 242.65 431.352 242.566 430.944 242.566C430.536 242.566 430.218 242.656 429.99 242.836C429.762 243.004 429.648 243.244 429.648 243.556C429.648 243.736 429.75 243.904 429.954 244.06C430.158 244.204 430.452 244.324 430.836 244.42L431.898 244.672C432.486 244.816 432.966 245.044 433.338 245.356C433.71 245.656 433.986 245.998 434.166 246.382C434.346 246.754 434.436 247.132 434.436 247.516C434.436 248.056 434.28 248.53 433.968 248.938C433.668 249.346 433.254 249.664 432.726 249.892C432.198 250.108 431.598 250.216 430.926 250.216ZM442.065 250L441.957 248.344V241H443.955V250H442.065ZM435.837 246.148V241H437.853V245.608L435.837 246.148ZM437.853 245.608C437.853 246.316 437.937 246.868 438.105 247.264C438.273 247.66 438.501 247.936 438.789 248.092C439.089 248.248 439.431 248.326 439.815 248.326C440.499 248.338 441.027 248.116 441.399 247.66C441.771 247.204 441.957 246.55 441.957 245.698H442.713C442.713 246.646 442.569 247.462 442.281 248.146C442.005 248.818 441.609 249.334 441.093 249.694C440.589 250.042 439.983 250.216 439.275 250.216C438.183 250.216 437.337 249.88 436.737 249.208C436.137 248.536 435.837 247.516 435.837 246.148L437.853 245.608ZM446.195 250V237.4H448.211V250H446.195ZM454.031 250.216C453.083 250.216 452.357 249.982 451.853 249.514C451.361 249.034 451.115 248.35 451.115 247.462V238.192H453.113V247.084C453.113 247.504 453.209 247.822 453.401 248.038C453.605 248.254 453.899 248.362 454.283 248.362C454.403 248.362 454.535 248.338 454.679 248.29C454.823 248.242 454.985 248.152 455.165 248.02L455.903 249.55C455.591 249.766 455.279 249.928 454.967 250.036C454.655 250.156 454.343 250.216 454.031 250.216ZM449.621 242.728V241H455.543V242.728H449.621ZM461.983 250L462.001 241H463.999L463.981 250H461.983ZM462.991 239.29C462.667 239.29 462.385 239.176 462.145 238.948C461.917 238.708 461.803 238.426 461.803 238.102C461.803 237.778 461.917 237.502 462.145 237.274C462.385 237.046 462.667 236.932 462.991 236.932C463.315 236.932 463.591 237.046 463.819 237.274C464.059 237.502 464.179 237.778 464.179 238.102C464.179 238.426 464.059 238.708 463.819 238.948C463.591 239.176 463.315 239.29 462.991 239.29ZM469.633 250.216C469.033 250.216 468.481 250.126 467.977 249.946C467.473 249.766 467.041 249.514 466.681 249.19C466.321 248.854 466.045 248.464 465.853 248.02L467.599 247.246C467.779 247.582 468.043 247.864 468.391 248.092C468.751 248.32 469.147 248.434 469.579 248.434C470.047 248.434 470.419 248.356 470.695 248.2C470.983 248.032 471.127 247.804 471.127 247.516C471.127 247.24 471.019 247.03 470.803 246.886C470.587 246.73 470.281 246.604 469.885 246.508L469.039 246.274C468.187 246.058 467.521 245.716 467.041 245.248C466.561 244.768 466.321 244.222 466.321 243.61C466.321 242.71 466.609 242.014 467.185 241.522C467.773 241.03 468.613 240.784 469.705 240.784C470.257 240.784 470.761 240.868 471.217 241.036C471.685 241.192 472.087 241.42 472.423 241.72C472.759 242.008 472.993 242.35 473.125 242.746L471.451 243.502C471.331 243.202 471.103 242.974 470.767 242.818C470.431 242.65 470.059 242.566 469.651 242.566C469.243 242.566 468.925 242.656 468.697 242.836C468.469 243.004 468.355 243.244 468.355 243.556C468.355 243.736 468.457 243.904 468.661 244.06C468.865 244.204 469.159 244.324 469.543 244.42L470.605 244.672C471.193 244.816 471.673 245.044 472.045 245.356C472.417 245.656 472.693 245.998 472.873 246.382C473.053 246.754 473.143 247.132 473.143 247.516C473.143 248.056 472.987 248.53 472.675 248.938C472.375 249.346 471.961 249.664 471.433 249.892C470.905 250.108 470.305 250.216 469.633 250.216ZM479.084 250V241H480.974L481.1 242.656V250H479.084ZM485.186 250V245.392L487.202 244.852V250H485.186ZM485.186 245.392C485.186 244.672 485.102 244.12 484.934 243.736C484.778 243.34 484.55 243.064 484.25 242.908C483.962 242.752 483.62 242.674 483.224 242.674C482.552 242.662 482.03 242.884 481.658 243.34C481.286 243.796 481.1 244.45 481.1 245.302H480.344C480.344 244.354 480.482 243.544 480.758 242.872C481.034 242.188 481.43 241.672 481.946 241.324C482.462 240.964 483.074 240.784 483.782 240.784C484.874 240.784 485.714 241.12 486.302 241.792C486.902 242.452 487.202 243.472 487.202 244.852L485.186 245.392ZM493.384 250.216C492.484 250.216 491.68 250.018 490.972 249.622C490.276 249.214 489.73 248.656 489.334 247.948C488.938 247.24 488.74 246.424 488.74 245.5C488.74 244.576 488.932 243.76 489.316 243.052C489.712 242.344 490.258 241.792 490.954 241.396C491.65 240.988 492.448 240.784 493.348 240.784C494.248 240.784 495.046 240.988 495.742 241.396C496.438 241.792 496.978 242.344 497.362 243.052C497.758 243.76 497.956 244.576 497.956 245.5C497.956 246.424 497.764 247.24 497.38 247.948C496.996 248.656 496.456 249.214 495.76 249.622C495.064 250.018 494.272 250.216 493.384 250.216ZM493.384 248.362C493.876 248.362 494.314 248.242 494.698 248.002C495.082 247.75 495.382 247.414 495.598 246.994C495.814 246.562 495.922 246.064 495.922 245.5C495.922 244.936 495.808 244.444 495.58 244.024C495.364 243.592 495.064 243.256 494.68 243.016C494.296 242.764 493.852 242.638 493.348 242.638C492.844 242.638 492.4 242.758 492.016 242.998C491.632 243.238 491.332 243.574 491.116 244.006C490.9 244.438 490.792 244.936 490.792 245.5C490.792 246.064 490.9 246.562 491.116 246.994C491.344 247.414 491.65 247.75 492.034 248.002C492.43 248.242 492.88 248.362 493.384 248.362ZM503.285 250.216C502.337 250.216 501.611 249.982 501.107 249.514C500.615 249.034 500.369 248.35 500.369 247.462V238.192H502.367V247.084C502.367 247.504 502.463 247.822 502.655 248.038C502.859 248.254 503.153 248.362 503.537 248.362C503.657 248.362 503.789 248.338 503.933 248.29C504.077 248.242 504.239 248.152 504.419 248.02L505.157 249.55C504.845 249.766 504.533 249.928 504.221 250.036C503.909 250.156 503.597 250.216 503.285 250.216ZM498.875 242.728V241H504.797V242.728H498.875ZM385.706 274.216C385.106 274.216 384.554 274.126 384.05 273.946C383.546 273.766 383.114 273.514 382.754 273.19C382.394 272.854 382.118 272.464 381.926 272.02L383.672 271.246C383.852 271.582 384.116 271.864 384.464 272.092C384.824 272.32 385.22 272.434 385.652 272.434C386.12 272.434 386.492 272.356 386.768 272.2C387.056 272.032 387.2 271.804 387.2 271.516C387.2 271.24 387.092 271.03 386.876 270.886C386.66 270.73 386.354 270.604 385.958 270.508L385.112 270.274C384.26 270.058 383.594 269.716 383.114 269.248C382.634 268.768 382.394 268.222 382.394 267.61C382.394 266.71 382.682 266.014 383.258 265.522C383.846 265.03 384.686 264.784 385.778 264.784C386.33 264.784 386.834 264.868 387.29 265.036C387.758 265.192 388.16 265.42 388.496 265.72C388.832 266.008 389.066 266.35 389.198 266.746L387.524 267.502C387.404 267.202 387.176 266.974 386.84 266.818C386.504 266.65 386.132 266.566 385.724 266.566C385.316 266.566 384.998 266.656 384.77 266.836C384.542 267.004 384.428 267.244 384.428 267.556C384.428 267.736 384.53 267.904 384.734 268.06C384.938 268.204 385.232 268.324 385.616 268.42L386.678 268.672C387.266 268.816 387.746 269.044 388.118 269.356C388.49 269.656 388.766 269.998 388.946 270.382C389.126 270.754 389.216 271.132 389.216 271.516C389.216 272.056 389.06 272.53 388.748 272.938C388.448 273.346 388.034 273.664 387.506 273.892C386.978 274.108 386.378 274.216 385.706 274.216ZM394.829 274.216C393.953 274.216 393.173 274.018 392.489 273.622C391.817 273.214 391.283 272.656 390.887 271.948C390.503 271.24 390.311 270.424 390.311 269.5C390.311 268.576 390.509 267.76 390.905 267.052C391.301 266.344 391.841 265.792 392.525 265.396C393.221 264.988 394.013 264.784 394.901 264.784C395.705 264.784 396.425 264.994 397.061 265.414C397.709 265.822 398.225 266.416 398.609 267.196C398.993 267.976 399.185 268.906 399.185 269.986H397.151C397.151 269.206 397.055 268.564 396.863 268.06C396.683 267.556 396.419 267.184 396.071 266.944C395.735 266.692 395.321 266.566 394.829 266.566C394.313 266.566 393.869 266.68 393.497 266.908C393.125 267.136 392.843 267.472 392.651 267.916C392.459 268.348 392.363 268.894 392.363 269.554C392.363 270.142 392.477 270.646 392.705 271.066C392.945 271.486 393.263 271.81 393.659 272.038C394.067 272.254 394.517 272.362 395.009 272.362C395.549 272.362 395.993 272.242 396.341 272.002C396.689 271.75 396.959 271.432 397.151 271.048L399.005 271.84C398.753 272.32 398.429 272.74 398.033 273.1C397.649 273.46 397.187 273.736 396.647 273.928C396.119 274.12 395.513 274.216 394.829 274.216ZM391.643 269.986V268.384H398.123V269.986H391.643ZM400.729 274V265H402.619L402.745 266.656V274H400.729ZM406.831 274V269.392L408.847 268.852V274H406.831ZM406.831 269.392C406.831 268.672 406.747 268.12 406.579 267.736C406.423 267.34 406.195 267.064 405.895 266.908C405.607 266.752 405.265 266.674 404.869 266.674C404.197 266.662 403.675 266.884 403.303 267.34C402.931 267.796 402.745 268.45 402.745 269.302H401.989C401.989 268.354 402.127 267.544 402.403 266.872C402.679 266.188 403.075 265.672 403.591 265.324C404.107 264.964 404.719 264.784 405.427 264.784C406.519 264.784 407.359 265.12 407.947 265.792C408.547 266.452 408.847 267.472 408.847 268.852L406.831 269.392ZM414.471 274.216C413.523 274.216 412.797 273.982 412.293 273.514C411.801 273.034 411.555 272.35 411.555 271.462V262.192H413.553V271.084C413.553 271.504 413.649 271.822 413.841 272.038C414.045 272.254 414.339 272.362 414.723 272.362C414.843 272.362 414.975 272.338 415.119 272.29C415.263 272.242 415.425 272.152 415.605 272.02L416.343 273.55C416.031 273.766 415.719 273.928 415.407 274.036C415.095 274.156 414.783 274.216 414.471 274.216ZM410.061 266.728V265H415.983V266.728H410.061ZM422.424 274L422.442 265H424.44L424.422 274H422.424ZM423.432 263.29C423.108 263.29 422.826 263.176 422.586 262.948C422.358 262.708 422.244 262.426 422.244 262.102C422.244 261.778 422.358 261.502 422.586 261.274C422.826 261.046 423.108 260.932 423.432 260.932C423.756 260.932 424.032 261.046 424.26 261.274C424.5 261.502 424.62 261.778 424.62 262.102C424.62 262.426 424.5 262.708 424.26 262.948C424.032 263.176 423.756 263.29 423.432 263.29ZM426.798 274V265H428.688L428.814 266.656V274H426.798ZM432.9 274V269.392L434.916 268.852V274H432.9ZM432.9 269.392C432.9 268.672 432.816 268.12 432.648 267.736C432.492 267.34 432.264 267.064 431.964 266.908C431.676 266.752 431.334 266.674 430.938 266.674C430.266 266.662 429.744 266.884 429.372 267.34C429 267.796 428.814 268.45 428.814 269.302H428.058C428.058 268.354 428.196 267.544 428.472 266.872C428.748 266.188 429.144 265.672 429.66 265.324C430.176 264.964 430.788 264.784 431.496 264.784C432.588 264.784 433.428 265.12 434.016 265.792C434.616 266.452 434.916 267.472 434.916 268.852L432.9 269.392ZM444.882 274.216C443.934 274.216 443.208 273.982 442.704 273.514C442.212 273.034 441.966 272.35 441.966 271.462V262.192H443.964V271.084C443.964 271.504 444.06 271.822 444.252 272.038C444.456 272.254 444.75 272.362 445.134 272.362C445.254 272.362 445.386 272.338 445.53 272.29C445.674 272.242 445.836 272.152 446.016 272.02L446.754 273.55C446.442 273.766 446.13 273.928 445.818 274.036C445.506 274.156 445.194 274.216 444.882 274.216ZM440.472 266.728V265H446.394V266.728H440.472ZM448.492 274L448.51 265H450.508L450.49 274H448.492ZM449.5 263.29C449.176 263.29 448.894 263.176 448.654 262.948C448.426 262.708 448.312 262.426 448.312 262.102C448.312 261.778 448.426 261.502 448.654 261.274C448.894 261.046 449.176 260.932 449.5 260.932C449.824 260.932 450.1 261.046 450.328 261.274C450.568 261.502 450.688 261.778 450.688 262.102C450.688 262.426 450.568 262.708 450.328 262.948C450.1 263.176 449.824 263.29 449.5 263.29ZM452.866 274V265H454.756L454.882 266.656V274H452.866ZM458.968 274V269.392L460.984 268.852V274H458.968ZM465.088 274V269.392L467.086 268.852V274H465.088ZM458.968 269.392C458.968 268.672 458.884 268.12 458.716 267.736C458.56 267.34 458.332 267.064 458.032 266.908C457.744 266.752 457.402 266.674 457.006 266.674C456.334 266.662 455.812 266.884 455.44 267.34C455.068 267.796 454.882 268.45 454.882 269.302H454.126C454.126 268.354 454.264 267.544 454.54 266.872C454.816 266.188 455.212 265.672 455.728 265.324C456.244 264.964 456.856 264.784 457.564 264.784C458.656 264.784 459.496 265.12 460.084 265.792C460.684 266.452 460.984 267.472 460.984 268.852L458.968 269.392ZM465.088 269.392C465.088 268.672 465.004 268.12 464.836 267.736C464.668 267.34 464.434 267.064 464.134 266.908C463.846 266.752 463.51 266.674 463.126 266.674C462.442 266.662 461.914 266.884 461.542 267.34C461.17 267.796 460.984 268.45 460.984 269.302H460.228C460.228 268.354 460.366 267.544 460.642 266.872C460.918 266.188 461.314 265.672 461.83 265.324C462.346 264.964 462.958 264.784 463.666 264.784C464.758 264.784 465.604 265.12 466.204 265.792C466.804 266.452 467.098 267.472 467.086 268.852L465.088 269.392ZM473.157 274.216C472.281 274.216 471.501 274.018 470.817 273.622C470.145 273.214 469.611 272.656 469.215 271.948C468.831 271.24 468.639 270.424 468.639 269.5C468.639 268.576 468.837 267.76 469.233 267.052C469.629 266.344 470.169 265.792 470.853 265.396C471.549 264.988 472.341 264.784 473.229 264.784C474.033 264.784 474.753 264.994 475.389 265.414C476.037 265.822 476.553 266.416 476.937 267.196C477.321 267.976 477.513 268.906 477.513 269.986H475.479C475.479 269.206 475.383 268.564 475.191 268.06C475.011 267.556 474.747 267.184 474.399 266.944C474.063 266.692 473.649 266.566 473.157 266.566C472.641 266.566 472.197 266.68 471.825 266.908C471.453 267.136 471.171 267.472 470.979 267.916C470.787 268.348 470.691 268.894 470.691 269.554C470.691 270.142 470.805 270.646 471.033 271.066C471.273 271.486 471.591 271.81 471.987 272.038C472.395 272.254 472.845 272.362 473.337 272.362C473.877 272.362 474.321 272.242 474.669 272.002C475.017 271.75 475.287 271.432 475.479 271.048L477.333 271.84C477.081 272.32 476.757 272.74 476.361 273.1C475.977 273.46 475.515 273.736 474.975 273.928C474.447 274.12 473.841 274.216 473.157 274.216ZM469.971 269.986V268.384H476.451V269.986H469.971ZM486.981 274.216C486.033 274.216 485.307 273.982 484.803 273.514C484.311 273.034 484.065 272.35 484.065 271.462V262.192H486.063V271.084C486.063 271.504 486.159 271.822 486.351 272.038C486.555 272.254 486.849 272.362 487.233 272.362C487.353 272.362 487.485 272.338 487.629 272.29C487.773 272.242 487.935 272.152 488.115 272.02L488.853 273.55C488.541 273.766 488.229 273.928 487.917 274.036C487.605 274.156 487.293 274.216 486.981 274.216ZM482.571 266.728V265H488.493V266.728H482.571ZM494.483 274.216C493.583 274.216 492.779 274.018 492.071 273.622C491.375 273.214 490.829 272.656 490.433 271.948C490.037 271.24 489.839 270.424 489.839 269.5C489.839 268.576 490.031 267.76 490.415 267.052C490.811 266.344 491.357 265.792 492.053 265.396C492.749 264.988 493.547 264.784 494.447 264.784C495.347 264.784 496.145 264.988 496.841 265.396C497.537 265.792 498.077 266.344 498.461 267.052C498.857 267.76 499.055 268.576 499.055 269.5C499.055 270.424 498.863 271.24 498.479 271.948C498.095 272.656 497.555 273.214 496.859 273.622C496.163 274.018 495.371 274.216 494.483 274.216ZM494.483 272.362C494.975 272.362 495.413 272.242 495.797 272.002C496.181 271.75 496.481 271.414 496.697 270.994C496.913 270.562 497.021 270.064 497.021 269.5C497.021 268.936 496.907 268.444 496.679 268.024C496.463 267.592 496.163 267.256 495.779 267.016C495.395 266.764 494.951 266.638 494.447 266.638C493.943 266.638 493.499 266.758 493.115 266.998C492.731 267.238 492.431 267.574 492.215 268.006C491.999 268.438 491.891 268.936 491.891 269.5C491.891 270.064 491.999 270.562 492.215 270.994C492.443 271.414 492.749 271.75 493.133 272.002C493.529 272.242 493.979 272.362 494.483 272.362ZM403.573 298.216C402.625 298.216 401.899 297.982 401.395 297.514C400.903 297.034 400.657 296.35 400.657 295.462V286.192H402.655V295.084C402.655 295.504 402.751 295.822 402.943 296.038C403.147 296.254 403.441 296.362 403.825 296.362C403.945 296.362 404.077 296.338 404.221 296.29C404.365 296.242 404.527 296.152 404.707 296.02L405.445 297.55C405.133 297.766 404.821 297.928 404.509 298.036C404.197 298.156 403.885 298.216 403.573 298.216ZM399.163 290.728V289H405.085V290.728H399.163ZM407.075 298L407.057 285.238H409.073L409.091 298H407.075ZM413.177 298V293.392L415.193 292.852V298H413.177ZM413.177 293.392C413.177 292.672 413.093 292.12 412.925 291.736C412.757 291.34 412.523 291.064 412.223 290.908C411.935 290.752 411.599 290.674 411.215 290.674C410.531 290.662 410.003 290.884 409.631 291.34C409.271 291.796 409.091 292.45 409.091 293.302H408.317C408.317 292.354 408.455 291.544 408.731 290.872C409.019 290.188 409.421 289.672 409.937 289.324C410.453 288.964 411.065 288.784 411.773 288.784C412.853 288.784 413.693 289.12 414.293 289.792C414.893 290.452 415.193 291.472 415.193 292.852L413.177 293.392ZM421.249 298.216C420.373 298.216 419.593 298.018 418.909 297.622C418.237 297.214 417.703 296.656 417.307 295.948C416.923 295.24 416.731 294.424 416.731 293.5C416.731 292.576 416.929 291.76 417.325 291.052C417.721 290.344 418.261 289.792 418.945 289.396C419.641 288.988 420.433 288.784 421.321 288.784C422.125 288.784 422.845 288.994 423.481 289.414C424.129 289.822 424.645 290.416 425.029 291.196C425.413 291.976 425.605 292.906 425.605 293.986H423.571C423.571 293.206 423.475 292.564 423.283 292.06C423.103 291.556 422.839 291.184 422.491 290.944C422.155 290.692 421.741 290.566 421.249 290.566C420.733 290.566 420.289 290.68 419.917 290.908C419.545 291.136 419.263 291.472 419.071 291.916C418.879 292.348 418.783 292.894 418.783 293.554C418.783 294.142 418.897 294.646 419.125 295.066C419.365 295.486 419.683 295.81 420.079 296.038C420.487 296.254 420.937 296.362 421.429 296.362C421.969 296.362 422.413 296.242 422.761 296.002C423.109 295.75 423.379 295.432 423.571 295.048L425.425 295.84C425.173 296.32 424.849 296.74 424.453 297.1C424.069 297.46 423.607 297.736 423.067 297.928C422.539 298.12 421.933 298.216 421.249 298.216ZM418.063 293.986V292.384H424.543V293.986H418.063ZM435.505 298.216C434.629 298.216 433.849 298.018 433.165 297.622C432.493 297.214 431.959 296.656 431.563 295.948C431.179 295.24 430.987 294.424 430.987 293.5C430.987 292.576 431.185 291.76 431.581 291.052C431.977 290.344 432.517 289.792 433.201 289.396C433.897 288.988 434.689 288.784 435.577 288.784C436.381 288.784 437.101 288.994 437.737 289.414C438.385 289.822 438.901 290.416 439.285 291.196C439.669 291.976 439.861 292.906 439.861 293.986H437.827C437.827 293.206 437.731 292.564 437.539 292.06C437.359 291.556 437.095 291.184 436.747 290.944C436.411 290.692 435.997 290.566 435.505 290.566C434.989 290.566 434.545 290.68 434.173 290.908C433.801 291.136 433.519 291.472 433.327 291.916C433.135 292.348 433.039 292.894 433.039 293.554C433.039 294.142 433.153 294.646 433.381 295.066C433.621 295.486 433.939 295.81 434.335 296.038C434.743 296.254 435.193 296.362 435.685 296.362C436.225 296.362 436.669 296.242 437.017 296.002C437.365 295.75 437.635 295.432 437.827 295.048L439.681 295.84C439.429 296.32 439.105 296.74 438.709 297.1C438.325 297.46 437.863 297.736 437.323 297.928C436.795 298.12 436.189 298.216 435.505 298.216ZM432.319 293.986V292.384H438.799V293.986H432.319ZM443.969 298L447.479 289H449.567L445.859 298H443.969ZM443.825 298L440.099 289H442.169L445.697 298H443.825ZM454.595 298.216C453.719 298.216 452.939 298.018 452.255 297.622C451.583 297.214 451.049 296.656 450.653 295.948C450.269 295.24 450.077 294.424 450.077 293.5C450.077 292.576 450.275 291.76 450.671 291.052C451.067 290.344 451.607 289.792 452.291 289.396C452.987 288.988 453.779 288.784 454.667 288.784C455.471 288.784 456.191 288.994 456.827 289.414C457.475 289.822 457.991 290.416 458.375 291.196C458.759 291.976 458.951 292.906 458.951 293.986H456.917C456.917 293.206 456.821 292.564 456.629 292.06C456.449 291.556 456.185 291.184 455.837 290.944C455.501 290.692 455.087 290.566 454.595 290.566C454.079 290.566 453.635 290.68 453.263 290.908C452.891 291.136 452.609 291.472 452.417 291.916C452.225 292.348 452.129 292.894 452.129 293.554C452.129 294.142 452.243 294.646 452.471 295.066C452.711 295.486 453.029 295.81 453.425 296.038C453.833 296.254 454.283 296.362 454.775 296.362C455.315 296.362 455.759 296.242 456.107 296.002C456.455 295.75 456.725 295.432 456.917 295.048L458.771 295.84C458.519 296.32 458.195 296.74 457.799 297.1C457.415 297.46 456.953 297.736 456.413 297.928C455.885 298.12 455.279 298.216 454.595 298.216ZM451.409 293.986V292.384H457.889V293.986H451.409ZM460.495 298V289H462.385L462.511 290.656V298H460.495ZM466.597 298V293.392L468.613 292.852V298H466.597ZM466.597 293.392C466.597 292.672 466.513 292.12 466.345 291.736C466.189 291.34 465.961 291.064 465.661 290.908C465.373 290.752 465.031 290.674 464.635 290.674C463.963 290.662 463.441 290.884 463.069 291.34C462.697 291.796 462.511 292.45 462.511 293.302H461.755C461.755 292.354 461.893 291.544 462.169 290.872C462.445 290.188 462.841 289.672 463.357 289.324C463.873 288.964 464.485 288.784 465.193 288.784C466.285 288.784 467.125 289.12 467.713 289.792C468.313 290.452 468.613 291.472 468.613 292.852L466.597 293.392ZM474.237 298.216C473.289 298.216 472.563 297.982 472.059 297.514C471.567 297.034 471.321 296.35 471.321 295.462V286.192H473.319V295.084C473.319 295.504 473.415 295.822 473.607 296.038C473.811 296.254 474.105 296.362 474.489 296.362C474.609 296.362 474.741 296.338 474.885 296.29C475.029 296.242 475.191 296.152 475.371 296.02L476.109 297.55C475.797 297.766 475.485 297.928 475.173 298.036C474.861 298.156 474.549 298.216 474.237 298.216ZM469.827 290.728V289H475.749V290.728H469.827ZM478.387 294.076L478.261 285.4H480.475L480.349 294.076H478.387ZM479.359 298.27C479.011 298.27 478.711 298.144 478.459 297.892C478.219 297.64 478.099 297.34 478.099 296.992C478.099 296.644 478.219 296.35 478.459 296.11C478.711 295.858 479.011 295.732 479.359 295.732C479.707 295.732 480.007 295.858 480.259 296.11C480.511 296.35 480.637 296.644 480.637 296.992C480.637 297.34 480.511 297.64 480.259 297.892C480.007 298.144 479.707 298.27 479.359 298.27Z" fill="#8194A2"/>
<path d="M94.16 58V40.024H98.64V58H94.16ZM88.448 42.544V38.4H104.352V42.544H88.448ZM106.246 58L106.19 38.316H110.558L110.614 58H106.246ZM115.262 58V50.832L119.63 49.992V58H115.262ZM115.262 50.832C115.262 50.0853 115.178 49.4973 115.01 49.068C114.842 48.62 114.599 48.2933 114.282 48.088C113.964 47.8827 113.591 47.7707 113.162 47.752C112.322 47.7333 111.687 47.9667 111.258 48.452C110.828 48.9187 110.614 49.6373 110.614 50.608H109.298C109.298 49.1333 109.512 47.8827 109.942 46.856C110.39 45.8107 111.006 45.0173 111.79 44.476C112.574 43.9347 113.47 43.664 114.478 43.664C116.195 43.664 117.483 44.1773 118.342 45.204C119.2 46.2307 119.63 47.8267 119.63 49.992L115.262 50.832ZM129.015 58.336C127.559 58.336 126.271 58.028 125.151 57.412C124.031 56.796 123.154 55.9373 122.519 54.836C121.885 53.7347 121.567 52.456 121.567 51C121.567 49.544 121.885 48.2653 122.519 47.164C123.154 46.0627 124.031 45.204 125.151 44.588C126.29 43.972 127.597 43.664 129.071 43.664C130.397 43.664 131.591 43.9813 132.655 44.616C133.719 45.2507 134.559 46.2027 135.175 47.472C135.81 48.7227 136.127 50.272 136.127 52.12H131.759C131.778 51.0187 131.685 50.0947 131.479 49.348C131.293 48.5827 130.985 48.0133 130.555 47.64C130.145 47.248 129.594 47.052 128.903 47.052C128.25 47.052 127.709 47.2107 127.279 47.528C126.85 47.8453 126.533 48.312 126.327 48.928C126.122 49.5253 126.019 50.2813 126.019 51.196C126.019 52.0173 126.159 52.6893 126.439 53.212C126.738 53.716 127.121 54.0893 127.587 54.332C128.054 54.5747 128.567 54.696 129.127 54.696C129.799 54.696 130.359 54.5467 130.807 54.248C131.274 53.9493 131.591 53.5667 131.759 53.1L135.735 54.444C135.362 55.34 134.83 56.0773 134.139 56.656C133.467 57.2347 132.693 57.664 131.815 57.944C130.938 58.2053 130.005 58.336 129.015 58.336ZM124.367 52.12L124.395 49.152H134.055V52.12H124.367ZM144.666 63.6V44H148.782L149.034 46.576V63.6H144.666ZM153.01 58.336C151.852 58.336 150.882 58.0467 150.098 57.468C149.314 56.8707 148.726 56.0213 148.334 54.92C147.942 53.8187 147.746 52.512 147.746 51C147.746 49.4693 147.942 48.1627 148.334 47.08C148.726 45.9787 149.314 45.1387 150.098 44.56C150.882 43.9627 151.852 43.664 153.01 43.664C154.316 43.664 155.446 43.9627 156.398 44.56C157.35 45.1387 158.078 45.9787 158.582 47.08C159.086 48.1627 159.338 49.4693 159.338 51C159.338 52.512 159.086 53.8187 158.582 54.92C158.078 56.0213 157.35 56.8707 156.398 57.468C155.446 58.0467 154.316 58.336 153.01 58.336ZM151.89 54.304C152.45 54.304 152.944 54.164 153.374 53.884C153.803 53.604 154.148 53.2213 154.41 52.736C154.671 52.232 154.802 51.6533 154.802 51C154.802 50.3467 154.68 49.7773 154.438 49.292C154.195 48.788 153.85 48.396 153.402 48.116C152.972 47.836 152.478 47.696 151.918 47.696C151.358 47.696 150.854 47.836 150.406 48.116C149.976 48.396 149.64 48.788 149.398 49.292C149.155 49.796 149.034 50.3653 149.034 51C149.034 51.6533 149.155 52.232 149.398 52.736C149.64 53.2213 149.976 53.604 150.406 53.884C150.835 54.164 151.33 54.304 151.89 54.304ZM164.699 50.748C164.699 49.236 164.997 47.976 165.595 46.968C166.211 45.96 166.976 45.204 167.891 44.7C168.824 44.196 169.795 43.944 170.803 43.944V48.2C169.944 48.2 169.132 48.2933 168.367 48.48C167.62 48.6667 167.013 48.956 166.547 49.348C166.08 49.7213 165.847 50.2067 165.847 50.804L164.699 50.748ZM161.479 58V44H165.847V58H161.479ZM179.411 58.336C177.936 58.336 176.639 58.028 175.519 57.412C174.399 56.7773 173.512 55.9093 172.859 54.808C172.224 53.7067 171.907 52.4373 171.907 51C171.907 49.5627 172.215 48.2933 172.831 47.192C173.466 46.0907 174.343 45.232 175.463 44.616C176.602 43.9813 177.89 43.664 179.327 43.664C180.802 43.664 182.099 43.9813 183.219 44.616C184.358 45.232 185.235 46.0907 185.851 47.192C186.486 48.2933 186.803 49.5627 186.803 51C186.803 52.4373 186.486 53.7067 185.851 54.808C185.235 55.9093 184.367 56.7773 183.247 57.412C182.127 58.028 180.848 58.336 179.411 58.336ZM179.411 54.304C179.971 54.304 180.466 54.164 180.895 53.884C181.343 53.604 181.688 53.2213 181.931 52.736C182.192 52.232 182.323 51.6533 182.323 51C182.323 50.3467 182.192 49.7773 181.931 49.292C181.688 48.788 181.343 48.396 180.895 48.116C180.447 47.836 179.934 47.696 179.355 47.696C178.776 47.696 178.263 47.836 177.815 48.116C177.367 48.396 177.012 48.788 176.751 49.292C176.508 49.7773 176.387 50.3467 176.387 51C176.387 51.6533 176.508 52.232 176.751 52.736C177.012 53.2213 177.367 53.604 177.815 53.884C178.282 54.164 178.814 54.304 179.411 54.304ZM188.932 58V38.4H193.3V55.396L193.076 58H188.932ZM197.276 58.336C196.119 58.336 195.148 58.0467 194.364 57.468C193.58 56.8707 192.992 56.0213 192.6 54.92C192.208 53.8187 192.012 52.512 192.012 51C192.012 49.4693 192.208 48.1627 192.6 47.08C192.992 45.9787 193.58 45.1387 194.364 44.56C195.148 43.9627 196.119 43.664 197.276 43.664C198.583 43.664 199.712 43.9627 200.664 44.56C201.616 45.1387 202.344 45.9787 202.848 47.08C203.352 48.1627 203.604 49.4693 203.604 51C203.604 52.512 203.352 53.8187 202.848 54.92C202.344 56.0213 201.616 56.8707 200.664 57.468C199.712 58.0467 198.583 58.336 197.276 58.336ZM196.156 54.304C196.716 54.304 197.211 54.164 197.64 53.884C198.069 53.604 198.415 53.2213 198.676 52.736C198.937 52.232 199.068 51.6533 199.068 51C199.068 50.3467 198.947 49.7773 198.704 49.292C198.461 48.788 198.116 48.396 197.668 48.116C197.239 47.836 196.744 47.696 196.184 47.696C195.624 47.696 195.12 47.836 194.672 48.116C194.243 48.396 193.907 48.788 193.664 49.292C193.421 49.796 193.3 50.3653 193.3 51C193.3 51.6533 193.421 52.232 193.664 52.736C193.907 53.2213 194.243 53.604 194.672 53.884C195.101 54.164 195.596 54.304 196.156 54.304ZM205.721 58V38.4H210.089V58H205.721ZM219.66 58.336C218.204 58.336 216.916 58.028 215.796 57.412C214.676 56.796 213.798 55.9373 213.164 54.836C212.529 53.7347 212.212 52.456 212.212 51C212.212 49.544 212.529 48.2653 213.164 47.164C213.798 46.0627 214.676 45.204 215.796 44.588C216.934 43.972 218.241 43.664 219.716 43.664C221.041 43.664 222.236 43.9813 223.3 44.616C224.364 45.2507 225.204 46.2027 225.82 47.472C226.454 48.7227 226.772 50.272 226.772 52.12H222.404C222.422 51.0187 222.329 50.0947 222.124 49.348C221.937 48.5827 221.629 48.0133 221.2 47.64C220.789 47.248 220.238 47.052 219.548 47.052C218.894 47.052 218.353 47.2107 217.924 47.528C217.494 47.8453 217.177 48.312 216.972 48.928C216.766 49.5253 216.664 50.2813 216.664 51.196C216.664 52.0173 216.804 52.6893 217.084 53.212C217.382 53.716 217.765 54.0893 218.232 54.332C218.698 54.5747 219.212 54.696 219.772 54.696C220.444 54.696 221.004 54.5467 221.452 54.248C221.918 53.9493 222.236 53.5667 222.404 53.1L226.38 54.444C226.006 55.34 225.474 56.0773 224.784 56.656C224.112 57.2347 223.337 57.664 222.46 57.944C221.582 58.2053 220.649 58.336 219.66 58.336ZM215.012 52.12L215.04 49.152H224.7V52.12H215.012ZM228.608 58V44H232.724L232.976 46.576V58H228.608ZM237.624 58V50.832L241.992 49.992V58H237.624ZM246.64 58V50.832L251.008 49.992V58H246.64ZM237.624 50.832C237.624 50.0853 237.54 49.4973 237.372 49.068C237.204 48.62 236.961 48.2933 236.644 48.088C236.345 47.8827 235.972 47.7707 235.524 47.752C234.684 47.7333 234.049 47.9667 233.62 48.452C233.19 48.9187 232.976 49.6373 232.976 50.608H231.66C231.66 49.1333 231.884 47.8827 232.332 46.856C232.78 45.8107 233.386 45.0173 234.152 44.476C234.936 43.9347 235.841 43.664 236.868 43.664C238.566 43.664 239.845 44.1773 240.704 45.204C241.562 46.2307 241.992 47.8267 241.992 49.992L237.624 50.832ZM246.64 50.832C246.64 50.0853 246.556 49.4973 246.388 49.068C246.22 48.62 245.977 48.2933 245.66 48.088C245.361 47.8827 244.988 47.7707 244.54 47.752C243.718 47.7333 243.084 47.9667 242.636 48.452C242.206 48.9187 241.992 49.6373 241.992 50.608H240.704C240.704 49.1333 240.918 47.8827 241.348 46.856C241.796 45.8107 242.402 45.0173 243.168 44.476C243.952 43.9347 244.857 43.664 245.884 43.664C247.582 43.664 248.861 44.1773 249.72 45.204C250.597 46.2307 251.026 47.8267 251.008 49.992L246.64 50.832ZM252.871 61.192L254.663 54.248H259.087L256.119 61.192H252.871ZM267.902 58L267.846 38.316H272.214L272.27 58H267.902ZM276.918 58V50.832L281.286 49.992V58H276.918ZM276.918 50.832C276.918 50.0853 276.834 49.4973 276.666 49.068C276.498 48.62 276.255 48.2933 275.938 48.088C275.621 47.8827 275.247 47.7707 274.818 47.752C273.978 47.7333 273.343 47.9667 272.914 48.452C272.485 48.9187 272.27 49.6373 272.27 50.608H270.954C270.954 49.1333 271.169 47.8827 271.598 46.856C272.046 45.8107 272.662 45.0173 273.446 44.476C274.23 43.9347 275.126 43.664 276.134 43.664C277.851 43.664 279.139 44.1773 279.998 45.204C280.857 46.2307 281.286 47.8267 281.286 49.992L276.918 50.832ZM290.727 58.336C289.253 58.336 287.955 58.028 286.835 57.412C285.715 56.7773 284.829 55.9093 284.175 54.808C283.541 53.7067 283.223 52.4373 283.223 51C283.223 49.5627 283.531 48.2933 284.147 47.192C284.782 46.0907 285.659 45.232 286.779 44.616C287.918 43.9813 289.206 43.664 290.643 43.664C292.118 43.664 293.415 43.9813 294.535 44.616C295.674 45.232 296.551 46.0907 297.167 47.192C297.802 48.2933 298.119 49.5627 298.119 51C298.119 52.4373 297.802 53.7067 297.167 54.808C296.551 55.9093 295.683 56.7773 294.563 57.412C293.443 58.028 292.165 58.336 290.727 58.336ZM290.727 54.304C291.287 54.304 291.782 54.164 292.211 53.884C292.659 53.604 293.005 53.2213 293.247 52.736C293.509 52.232 293.639 51.6533 293.639 51C293.639 50.3467 293.509 49.7773 293.247 49.292C293.005 48.788 292.659 48.396 292.211 48.116C291.763 47.836 291.25 47.696 290.671 47.696C290.093 47.696 289.579 47.836 289.131 48.116C288.683 48.396 288.329 48.788 288.067 49.292C287.825 49.7773 287.703 50.3467 287.703 51C287.703 51.6533 287.825 52.232 288.067 52.736C288.329 53.2213 288.683 53.604 289.131 53.884C289.598 54.164 290.13 54.304 290.727 54.304ZM312.837 58L317.429 44H321.881L317.093 58H312.837ZM303.625 58L307.993 44H311.717L307.433 58H303.625ZM303.149 58L298.389 44H302.841L307.181 58H303.149ZM312.809 58L308.581 44H312.305L316.645 58H312.809ZM329.828 58.336C328.372 58.336 327.084 58.028 325.964 57.412C324.844 56.796 323.966 55.9373 323.332 54.836C322.697 53.7347 322.38 52.456 322.38 51C322.38 49.544 322.697 48.2653 323.332 47.164C323.966 46.0627 324.844 45.204 325.964 44.588C327.102 43.972 328.409 43.664 329.884 43.664C331.209 43.664 332.404 43.9813 333.468 44.616C334.532 45.2507 335.372 46.2027 335.988 47.472C336.622 48.7227 336.94 50.272 336.94 52.12H332.572C332.59 51.0187 332.497 50.0947 332.292 49.348C332.105 48.5827 331.797 48.0133 331.368 47.64C330.957 47.248 330.406 47.052 329.716 47.052C329.062 47.052 328.521 47.2107 328.092 47.528C327.662 47.8453 327.345 48.312 327.14 48.928C326.934 49.5253 326.832 50.2813 326.832 51.196C326.832 52.0173 326.972 52.6893 327.252 53.212C327.55 53.716 327.933 54.0893 328.4 54.332C328.866 54.5747 329.38 54.696 329.94 54.696C330.612 54.696 331.172 54.5467 331.62 54.248C332.086 53.9493 332.404 53.5667 332.572 53.1L336.548 54.444C336.174 55.34 335.642 56.0773 334.952 56.656C334.28 57.2347 333.505 57.664 332.628 57.944C331.75 58.2053 330.817 58.336 329.828 58.336ZM325.18 52.12L325.208 49.152H334.868V52.12H325.18ZM342.881 58L348.005 44H352.513L346.829 58H342.881ZM342.489 58L336.805 44H341.313L346.437 58H342.489ZM360.343 58.336C358.887 58.336 357.599 58.028 356.479 57.412C355.359 56.796 354.482 55.9373 353.847 54.836C353.213 53.7347 352.895 52.456 352.895 51C352.895 49.544 353.213 48.2653 353.847 47.164C354.482 46.0627 355.359 45.204 356.479 44.588C357.618 43.972 358.925 43.664 360.399 43.664C361.725 43.664 362.919 43.9813 363.983 44.616C365.047 45.2507 365.887 46.2027 366.503 47.472C367.138 48.7227 367.455 50.272 367.455 52.12H363.087C363.106 51.0187 363.013 50.0947 362.807 49.348C362.621 48.5827 362.313 48.0133 361.883 47.64C361.473 47.248 360.922 47.052 360.231 47.052C359.578 47.052 359.037 47.2107 358.607 47.528C358.178 47.8453 357.861 48.312 357.655 48.928C357.45 49.5253 357.347 50.2813 357.347 51.196C357.347 52.0173 357.487 52.6893 357.767 53.212C358.066 53.716 358.449 54.0893 358.915 54.332C359.382 54.5747 359.895 54.696 360.455 54.696C361.127 54.696 361.687 54.5467 362.135 54.248C362.602 53.9493 362.919 53.5667 363.087 53.1L367.063 54.444C366.69 55.34 366.158 56.0773 365.467 56.656C364.795 57.2347 364.021 57.664 363.143 57.944C362.266 58.2053 361.333 58.336 360.343 58.336ZM355.695 52.12L355.723 49.152H365.383V52.12H355.695ZM372.511 50.748C372.511 49.236 372.81 47.976 373.407 46.968C374.023 45.96 374.789 45.204 375.703 44.7C376.637 44.196 377.607 43.944 378.615 43.944V48.2C377.757 48.2 376.945 48.2933 376.179 48.48C375.433 48.6667 374.826 48.956 374.359 49.348C373.893 49.7213 373.659 50.2067 373.659 50.804L372.511 50.748ZM369.291 58V44H373.659V58H369.291ZM382.772 58.42C382.062 58.42 381.456 58.168 380.952 57.664C380.448 57.16 380.196 56.5533 380.196 55.844C380.196 55.1533 380.448 54.556 380.952 54.052C381.456 53.548 382.062 53.296 382.772 53.296C383.462 53.296 384.06 53.548 384.564 54.052C385.068 54.556 385.32 55.1533 385.32 55.844C385.32 56.5533 385.068 57.16 384.564 57.664C384.06 58.168 383.462 58.42 382.772 58.42ZM390.236 58.42C389.527 58.42 388.92 58.168 388.416 57.664C387.912 57.16 387.66 56.5533 387.66 55.844C387.66 55.1533 387.912 54.556 388.416 54.052C388.92 53.548 389.527 53.296 390.236 53.296C390.927 53.296 391.524 53.548 392.028 54.052C392.532 54.556 392.784 55.1533 392.784 55.844C392.784 56.5533 392.532 57.16 392.028 57.664C391.524 58.168 390.927 58.42 390.236 58.42ZM397.701 58.42C396.992 58.42 396.385 58.168 395.881 57.664C395.377 57.16 395.125 56.5533 395.125 55.844C395.125 55.1533 395.377 54.556 395.881 54.052C396.385 53.548 396.992 53.296 397.701 53.296C398.392 53.296 398.989 53.548 399.493 54.052C399.997 54.556 400.249 55.1533 400.249 55.844C400.249 56.5533 399.997 57.16 399.493 57.664C398.989 58.168 398.392 58.42 397.701 58.42Z" fill="#8194A2"/>
</svg>
