<svg version="1.1" viewBox="0.0 0.0 668.0 409.0" fill="none" stroke="none" stroke-linecap="square" stroke-miterlimit="10" width="668" height="409" xmlns:xlink="http://www.w3.org/1999/xlink" xmlns="http://www.w3.org/2000/svg"><path fill="#ffffff" d="M0 0L668.0 0L668.0 409.0L0 409.0L0 0Z" fill-rule="nonzero"/><path stroke="#cccccc" stroke-width="1.0" stroke-linecap="butt" d="M196.5 65.5L196.5 336.5" fill-rule="nonzero"/><path stroke="#cccccc" stroke-width="1.0" stroke-linecap="butt" d="M299.5 65.5L299.5 336.5" fill-rule="nonzero"/><path stroke="#cccccc" stroke-width="1.0" stroke-linecap="butt" d="M403.5 65.5L403.5 336.5" fill-rule="nonzero"/><path stroke="#cccccc" stroke-width="1.0" stroke-linecap="butt" d="M506.5 65.5L506.5 336.5" fill-rule="nonzero"/><path stroke="#cccccc" stroke-width="1.0" stroke-linecap="butt" d="M609.5 65.5L609.5 336.5" fill-rule="nonzero"/><path stroke="#333333" stroke-width="1.0" stroke-linecap="butt" d="M93.5 336.5L647.5 336.5" fill-rule="nonzero"/><path stroke="#cccccc" stroke-width="1.0" stroke-linecap="butt" d="M93.5 282.5L647.5 282.5" fill-rule="nonzero"/><path stroke="#cccccc" stroke-width="1.0" stroke-linecap="butt" d="M93.5 227.5L647.5 227.5" fill-rule="nonzero"/><path stroke="#cccccc" stroke-width="1.0" stroke-linecap="butt" d="M93.5 173.5L647.5 173.5" fill-rule="nonzero"/><path stroke="#cccccc" stroke-width="1.0" stroke-linecap="butt" d="M93.5 119.5L647.5 119.5" fill-rule="nonzero"/><path stroke="#cccccc" stroke-width="1.0" stroke-linecap="butt" d="M93.5 65.5L647.5 65.5" fill-rule="nonzero"/><clipPath id="id_0"><path d="M93.45 65.083336L647.55 65.083336L647.55 336.55L93.45 336.55L93.45 65.083336Z" clip-rule="nonzero"/></clipPath><path stroke="#4285f4" stroke-width="2.0" stroke-linecap="butt" clip-path="url(#id_0)" d="M93.45 336.55L93.450005 336.55L93.450005 336.55L93.450005 336.55L93.45001 336.55L93.450035 336.55L93.450066 336.55L93.450134 336.55L93.450264 336.54996L93.45053 336.5499L93.45106 336.5498L93.45211 336.54956L93.45422 336.54907L93.45845 336.5481L93.46691 336.54587L93.48382 336.54123L93.51764 336.53198L93.58527 336.51212L93.72056 336.46942L93.99111 336.38403L94.53223 336.21112L95.61445 335.824L97.77891 335.04974L102.10781 333.50122L110.765625 330.10983L128.08125 323.18707L162.7125 309.34152L231.975 280.16418L370.5 218.95233L647.55 96.52858" fill-rule="nonzero"/><path stroke="#ea4335" stroke-width="2.0" stroke-linecap="butt" stroke-opacity="0.4" clip-path="url(#id_0)" d="M0 377.1256L647.55 98.31711" fill-rule="nonzero"/><path fill="#000000" fill-opacity="0.0" clip-path="url(#id_0)" d="M96.45 336.55C96.45 338.20685 95.10686 339.55 93.45 339.55C91.793144 339.55 90.45 338.20685 90.45 336.55C90.45 334.89316 91.793144 333.55 93.45 333.55C95.10686 333.55 96.45 334.89316 96.45 336.55Z" fill-rule="nonzero"/><path fill="#000000" fill-opacity="0.0" clip-path="url(#id_0)" d="M96.450005 336.55C96.450005 338.20685 95.10686 339.55 93.450005 339.55C91.793144 339.55 90.450005 338.20685 90.450005 336.55C90.450005 334.89316 91.793144 333.55 93.450005 333.55C95.10686 333.55 96.450005 334.89316 96.450005 336.55Z" fill-rule="nonzero"/><path fill="#000000" fill-opacity="0.0" clip-path="url(#id_0)" d="M96.450005 336.55C96.450005 338.20685 95.10686 339.55 93.450005 339.55C91.79315 339.55 90.450005 338.20685 90.450005 336.55C90.450005 334.89316 91.79315 333.55 93.450005 333.55C95.10686 333.55 96.450005 334.89316 96.450005 336.55Z" fill-rule="nonzero"/><path fill="#000000" fill-opacity="0.0" clip-path="url(#id_0)" d="M96.450005 336.55C96.450005 338.20685 95.106865 339.55 93.450005 339.55C91.79315 339.55 90.450005 338.20685 90.450005 336.55C90.450005 334.89316 91.79315 333.55 93.450005 333.55C95.106865 333.55 96.450005 334.89316 96.450005 336.55Z" fill-rule="nonzero"/><path fill="#000000" fill-opacity="0.0" clip-path="url(#id_0)" d="M96.45001 336.55C96.45001 338.20685 95.10687 339.55 93.45001 339.55C91.79316 339.55 90.45001 338.20685 90.45001 336.55C90.45001 334.89313 91.79316 333.55 93.45001 333.55C95.10687 333.55 96.45001 334.89313 96.45001 336.55Z" fill-rule="nonzero"/><path fill="#000000" fill-opacity="0.0" clip-path="url(#id_0)" d="M96.450035 336.55C96.450035 338.20685 95.10689 339.55 93.450035 339.55C91.793175 339.55 90.450035 338.20685 90.450035 336.55C90.450035 334.89313 91.793175 333.55 93.450035 333.55C95.10689 333.55 96.450035 334.89313 96.450035 336.55Z" fill-rule="nonzero"/><path fill="#000000" fill-opacity="0.0" clip-path="url(#id_0)" d="M96.450066 336.55C96.450066 338.20685 95.10692 339.55 93.450066 339.55C91.79321 339.55 90.450066 338.20685 90.450066 336.55C90.450066 334.89313 91.79321 333.55 93.450066 333.55C95.10692 333.55 96.450066 334.89313 96.450066 336.55Z" fill-rule="nonzero"/><path fill="#000000" fill-opacity="0.0" clip-path="url(#id_0)" d="M96.450134 336.55C96.450134 338.20682 95.10699 339.55 93.450134 339.55C91.793274 339.55 90.450134 338.20682 90.450134 336.55C90.450134 334.89313 91.793274 333.55 93.450134 333.55C95.10699 333.55 96.450134 334.89313 96.450134 336.55Z" fill-rule="nonzero"/><path fill="#000000" fill-opacity="0.0" clip-path="url(#id_0)" d="M96.450264 336.54996C96.450264 338.20682 95.10712 339.54996 93.450264 339.54996C91.79341 339.54996 90.450264 338.20682 90.450264 336.54996C90.450264 334.8931 91.79341 333.54996 93.450264 333.54996C95.10712 333.54996 96.450264 334.8931 96.450264 336.54996Z" fill-rule="nonzero"/><path fill="#000000" fill-opacity="0.0" clip-path="url(#id_0)" d="M96.45053 336.5499C96.45053 338.20676 95.10738 339.5499 93.45053 339.5499C91.79367 339.5499 90.45053 338.20676 90.45053 336.5499C90.45053 334.89304 91.79367 333.5499 93.45053 333.5499C95.10738 333.5499 96.45053 334.89304 96.45053 336.5499Z" fill-rule="nonzero"/><path fill="#000000" fill-opacity="0.0" clip-path="url(#id_0)" d="M96.45106 336.5498C96.45106 338.20667 95.10791 339.5498 93.45106 339.5498C91.794205 339.5498 90.45106 338.20667 90.45106 336.5498C90.45106 334.89294 91.794205 333.5498 93.45106 333.5498C95.10791 333.5498 96.45106 334.89294 96.45106 336.5498Z" fill-rule="nonzero"/><path fill="#000000" fill-opacity="0.0" clip-path="url(#id_0)" d="M96.45211 336.54956C96.45211 338.20642 95.10897 339.54956 93.45211 339.54956C91.79526 339.54956 90.45211 338.20642 90.45211 336.54956C90.45211 334.8927 91.79526 333.54956 93.45211 333.54956C95.10897 333.54956 96.45211 334.8927 96.45211 336.54956Z" fill-rule="nonzero"/><path fill="#000000" fill-opacity="0.0" clip-path="url(#id_0)" d="M96.45422 336.54907C96.45422 338.20593 95.111084 339.54907 93.45422 339.54907C91.79737 339.54907 90.45422 338.20593 90.45422 336.54907C90.45422 334.8922 91.79737 333.54907 93.45422 333.54907C95.111084 333.54907 96.45422 334.8922 96.45422 336.54907Z" fill-rule="nonzero"/><path fill="#000000" fill-opacity="0.0" clip-path="url(#id_0)" d="M96.45845 336.5481C96.45845 338.20496 95.11531 339.5481 93.45845 339.5481C91.8016 339.5481 90.45845 338.20496 90.45845 336.5481C90.45845 334.89124 91.8016 333.5481 93.45845 333.5481C95.11531 333.5481 96.45845 334.89124 96.45845 336.5481Z" fill-rule="nonzero"/><path fill="#000000" fill-opacity="0.0" clip-path="url(#id_0)" d="M96.46691 336.54587C96.46691 338.2027 95.123764 339.54587 93.46691 339.54587C91.81005 339.54587 90.46691 338.2027 90.46691 336.54587C90.46691 334.889 91.81005 333.54587 93.46691 333.54587C95.123764 333.54587 96.46691 334.889 96.46691 336.54587Z" fill-rule="nonzero"/><path fill="#000000" fill-opacity="0.0" clip-path="url(#id_0)" d="M96.48382 336.54123C96.48382 338.1981 95.14067 339.54123 93.48382 339.54123C91.826965 339.54123 90.48382 338.1981 90.48382 336.54123C90.48382 334.88437 91.826965 333.54123 93.48382 333.54123C95.14067 333.54123 96.48382 334.88437 96.48382 336.54123Z" fill-rule="nonzero"/><path fill="#000000" fill-opacity="0.0" clip-path="url(#id_0)" d="M96.51764 336.53198C96.51764 338.18884 95.17449 339.53198 93.51764 339.53198C91.86079 339.53198 90.51764 338.18884 90.51764 336.53198C90.51764 334.87512 91.86079 333.53198 93.51764 333.53198C95.17449 333.53198 96.51764 334.87512 96.51764 336.53198Z" fill-rule="nonzero"/><path fill="#000000" fill-opacity="0.0" clip-path="url(#id_0)" d="M96.58527 336.51212C96.58527 338.16898 95.242134 339.51212 93.58527 339.51212C91.92842 339.51212 90.58527 338.16898 90.58527 336.51212C90.58527 334.8553 91.92842 333.51212 93.58527 333.51212C95.242134 333.51212 96.58527 334.8553 96.58527 336.51212Z" fill-rule="nonzero"/><path fill="#000000" fill-opacity="0.0" clip-path="url(#id_0)" d="M96.72056 336.46942C96.72056 338.12628 95.37741 339.46942 93.72056 339.46942C92.0637 339.46942 90.72056 338.12628 90.72056 336.46942C90.72056 334.81256 92.0637 333.46942 93.72056 333.46942C95.37741 333.46942 96.72056 334.81256 96.72056 336.46942Z" fill-rule="nonzero"/><path fill="#000000" fill-opacity="0.0" clip-path="url(#id_0)" d="M96.99111 336.38403C96.99111 338.0409 95.647964 339.38403 93.99111 339.38403C92.33426 339.38403 90.99111 338.0409 90.99111 336.38403C90.99111 334.72717 92.33426 333.38403 93.99111 333.38403C95.647964 333.38403 96.99111 334.72717 96.99111 336.38403Z" fill-rule="nonzero"/><path fill="#000000" fill-opacity="0.0" clip-path="url(#id_0)" d="M97.53223 336.21112C97.53223 337.86798 96.18908 339.21112 94.53223 339.21112C92.875374 339.21112 91.53223 337.86798 91.53223 336.21112C91.53223 334.5543 92.875374 333.21112 94.53223 333.21112C96.18908 333.21112 97.53223 334.5543 97.53223 336.21112Z" fill-rule="nonzero"/><path fill="#000000" fill-opacity="0.0" clip-path="url(#id_0)" d="M98.61445 335.824C98.61445 337.48087 97.27131 338.824 95.61445 338.824C93.957596 338.824 92.61445 337.48087 92.61445 335.824C92.61445 334.16714 93.957596 332.824 95.61445 332.824C97.27131 332.824 98.61445 334.16714 98.61445 335.824Z" fill-rule="nonzero"/><path fill="#000000" fill-opacity="0.0" clip-path="url(#id_0)" d="M100.77891 335.04974C100.77891 336.7066 99.43576 338.04974 97.77891 338.04974C96.12205 338.04974 94.77891 336.7066 94.77891 335.04974C94.77891 333.39288 96.12205 332.04974 97.77891 332.04974C99.43576 332.04974 100.77891 333.39288 100.77891 335.04974Z" fill-rule="nonzero"/><path fill="#000000" fill-opacity="0.0" clip-path="url(#id_0)" d="M105.10781 333.50122C105.10781 335.15808 103.76466 336.50122 102.10781 336.50122C100.45096 336.50122 99.10781 335.15808 99.10781 333.50122C99.10781 331.84436 100.45096 330.50122 102.10781 330.50122C103.76466 330.50122 105.10781 331.84436 105.10781 333.50122Z" fill-rule="nonzero"/><path fill="#000000" fill-opacity="0.0" clip-path="url(#id_0)" d="M113.765625 330.10983C113.765625 331.7667 112.42248 333.10983 110.765625 333.10983C109.10877 333.10983 107.765625 331.7667 107.765625 330.10983C107.765625 328.45297 109.10877 327.10983 110.765625 327.10983C112.42248 327.10983 113.765625 328.45297 113.765625 330.10983Z" fill-rule="nonzero"/><path fill="#000000" fill-opacity="0.0" clip-path="url(#id_0)" d="M131.08125 323.18707C131.08125 324.8439 129.7381 326.18707 128.08125 326.18707C126.42439 326.18707 125.081245 324.8439 125.081245 323.18707C125.081245 321.5302 126.42439 320.18707 128.08125 320.18707C129.7381 320.18707 131.08125 321.5302 131.08125 323.18707Z" fill-rule="nonzero"/><path fill="#000000" fill-opacity="0.0" clip-path="url(#id_0)" d="M165.7125 309.34152C165.7125 310.99838 164.36935 312.34152 162.7125 312.34152C161.05565 312.34152 159.7125 310.99838 159.7125 309.34152C159.7125 307.68466 161.05565 306.34152 162.7125 306.34152C164.36935 306.34152 165.7125 307.68466 165.7125 309.34152Z" fill-rule="nonzero"/><path fill="#000000" fill-opacity="0.0" clip-path="url(#id_0)" d="M234.975 280.16418C234.975 281.82104 233.63185 283.16418 231.975 283.16418C230.31815 283.16418 228.975 281.82104 228.975 280.16418C228.975 278.50735 230.31815 277.16418 231.975 277.16418C233.63185 277.16418 234.975 278.50735 234.975 280.16418Z" fill-rule="nonzero"/><path fill="#000000" fill-opacity="0.0" clip-path="url(#id_0)" d="M373.5 218.95233C373.5 220.60918 372.15686 221.95233 370.5 221.95233C368.84314 221.95233 367.5 220.60918 367.5 218.95233C367.5 217.29547 368.84314 215.95233 370.5 215.95233C372.15686 215.95233 373.5 217.29547 373.5 218.95233Z" fill-rule="nonzero"/><path fill="#000000" fill-opacity="0.0" clip-path="url(#id_0)" d="M650.55 96.52858C650.55 98.18543 649.20685 99.52858 647.55 99.52858C645.8931 99.52858 644.55 98.18543 644.55 96.52858C644.55 94.87172 645.8931 93.52858 647.55 93.52858C649.20685 93.52858 650.55 94.87172 650.55 96.52858Z" fill-rule="nonzero"/><path fill="#000000" d="M339.9375 385.55L339.9375 376.95624L343.75 376.95624Q344.90625 376.95624 345.5 377.1906Q346.09375 377.425 346.45312 378.01874Q346.8125 378.59686 346.8125 379.3Q346.8125 380.22186 346.21875 380.84686Q345.625 381.47186 344.39062 381.64374Q344.84375 381.8625 345.07812 382.0656Q345.57812 382.51874 346.01562 383.20624L347.51562 385.55L346.07812 385.55L344.95312 383.76874Q344.45312 382.9875 344.125 382.58124Q343.8125 382.175 343.54688 382.01874Q343.29688 381.84686 343.03125 381.76874Q342.84375 381.7375 342.40625 381.7375L341.07812 381.7375L341.07812 385.55L339.9375 385.55ZM341.07812 380.7531L343.53125 380.7531Q344.29688 380.7531 344.73438 380.59686Q345.1875 380.425 345.40625 380.08124Q345.64062 379.72186 345.64062 379.3Q345.64062 378.6906 345.1875 378.3Q344.75 377.90936 343.79688 377.90936L341.07812 377.90936L341.07812 380.7531ZM352.85938 384.78436Q352.26562 385.28436 351.71875 385.4875Q351.1875 385.6906 350.5625 385.6906Q349.53125 385.6906 348.98438 385.1906Q348.4375 384.6906 348.4375 383.90936Q348.4375 383.45624 348.64062 383.08124Q348.84375 382.6906 349.1875 382.47186Q349.53125 382.2375 349.95312 382.1281Q350.25 382.03436 350.89062 381.95624Q352.15625 381.8156 352.76562 381.59686Q352.76562 381.3781 352.76562 381.33124Q352.76562 380.675 352.46875 380.40936Q352.0625 380.0656 351.26562 380.0656Q350.53125 380.0656 350.17188 380.33124Q349.8125 380.58124 349.64062 381.2375L348.60938 381.09686Q348.75 380.4406 349.07812 380.03436Q349.40625 379.6281 350.01562 379.40936Q350.625 379.1906 351.42188 379.1906Q352.21875 379.1906 352.71875 379.3781Q353.21875 379.5656 353.45312 379.84686Q353.6875 380.1281 353.78125 380.5656Q353.82812 380.83124 353.82812 381.53436L353.82812 382.9406Q353.82812 384.40936 353.89062 384.8Q353.96875 385.1906 354.17188 385.55L353.0625 385.55Q352.90625 385.22186 352.85938 384.78436ZM352.76562 382.425Q352.1875 382.65936 351.04688 382.83124Q350.39062 382.925 350.125 383.05Q349.85938 383.15936 349.70312 383.3781Q349.5625 383.59686 349.5625 383.8781Q349.5625 384.3 349.875 384.58124Q350.20312 384.8625 350.8125 384.8625Q351.42188 384.8625 351.89062 384.59686Q352.375 384.33124 352.59375 383.8625Q352.76562 383.5031 352.76562 382.8156L352.76562 382.425ZM355.79688 385.55L355.79688 379.33124L356.73438 379.33124L356.73438 380.20624Q357.42188 379.1906 358.71875 379.1906Q359.28125 379.1906 359.75 379.39374Q360.23438 379.59686 360.46875 379.925Q360.70312 380.2531 360.79688 380.6906Q360.84375 380.9875 360.84375 381.72186L360.84375 385.55L359.79688 385.55L359.79688 381.76874Q359.79688 381.1125 359.67188 380.8Q359.54688 380.4875 359.23438 380.3Q358.92188 380.09686 358.5 380.09686Q357.82812 380.09686 357.32812 380.53436Q356.84375 380.95624 356.84375 382.14374L356.84375 385.55L355.79688 385.55ZM362.59375 386.0656L363.625 386.22186Q363.6875 386.6906 363.98438 386.90936Q364.375 387.20624 365.04688 387.20624Q365.78125 387.20624 366.17188 386.90936Q366.57812 386.6125 366.71875 386.09686Q366.8125 385.76874 366.79688 384.7375Q366.10938 385.55 365.07812 385.55Q363.79688 385.55 363.09375 384.6281Q362.39062 383.6906 362.39062 382.40936Q362.39062 381.51874 362.70312 380.76874Q363.03125 380.0031 363.64062 379.59686Q364.25 379.1906 365.07812 379.1906Q366.1875 379.1906 366.90625 380.08124L366.90625 379.33124L367.875 379.33124L367.875 384.70624Q367.875 386.15936 367.57812 386.76874Q367.28125 387.3781 366.64062 387.72186Q366.0 388.08124 365.0625 388.08124Q363.95312 388.08124 363.26562 387.58124Q362.57812 387.08124 362.59375 386.0656ZM363.46875 382.33124Q363.46875 383.55 363.95312 384.1125Q364.4375 384.675 365.17188 384.675Q365.90625 384.675 366.39062 384.1125Q366.89062 383.55 366.89062 382.3625Q366.89062 381.22186 366.375 380.64374Q365.875 380.0656 365.15625 380.0656Q364.45312 380.0656 363.95312 380.64374Q363.46875 381.20624 363.46875 382.33124ZM374.04688 383.55L375.14062 383.675Q374.89062 384.6281 374.1875 385.15936Q373.48438 385.6906 372.40625 385.6906Q371.04688 385.6906 370.23438 384.84686Q369.4375 384.0031 369.4375 382.4875Q369.4375 380.925 370.25 380.0656Q371.0625 379.1906 372.34375 379.1906Q373.59375 379.1906 374.375 380.03436Q375.17188 380.8781 375.17188 382.425Q375.17188 382.51874 375.17188 382.70624L370.53125 382.70624Q370.59375 383.7375 371.10938 384.28436Q371.625 384.8156 372.40625 384.8156Q372.98438 384.8156 373.39062 384.51874Q373.8125 384.20624 374.04688 383.55ZM370.59375 381.84686L374.0625 381.84686Q374.0 381.05 373.67188 380.65936Q373.15625 380.05 372.35938 380.05Q371.625 380.05 371.125 380.53436Q370.64062 381.01874 370.59375 381.84686ZM379.54688 382.78436L380.60938 382.6906Q380.6875 383.34686 380.96875 383.7531Q381.25 384.15936 381.82812 384.425Q382.42188 384.675 383.15625 384.675Q383.79688 384.675 384.29688 384.4875Q384.79688 384.28436 385.03125 383.95624Q385.28125 383.6125 385.28125 383.22186Q385.28125 382.8156 385.04688 382.51874Q384.8125 382.20624 384.28125 382.0031Q383.92188 381.8625 382.73438 381.58124Q381.5625 381.3 381.09375 381.05Q380.46875 380.72186 380.17188 380.2531Q379.875 379.76874 379.875 379.175Q379.875 378.53436 380.23438 377.97186Q380.60938 377.39374 381.3125 377.1125Q382.03125 376.8156 382.89062 376.8156Q383.84375 376.8156 384.57812 377.1281Q385.3125 377.425 385.70312 378.03436Q386.09375 378.6281 386.125 379.3781L385.03125 379.45624Q384.9375 378.64374 384.42188 378.2375Q383.92188 377.8156 382.9375 377.8156Q381.90625 377.8156 381.4375 378.1906Q380.96875 378.5656 380.96875 379.09686Q380.96875 379.5656 381.29688 379.8625Q381.625 380.15936 383.0 380.47186Q384.39062 380.78436 384.90625 381.01874Q385.65625 381.3781 386.01562 381.90936Q386.375 382.425 386.375 383.1281Q386.375 383.8156 385.98438 384.425Q385.59375 385.01874 384.85938 385.3625Q384.125 385.6906 383.20312 385.6906Q382.03125 385.6906 381.23438 385.3625Q380.45312 385.01874 380.0 384.33124Q379.5625 383.64374 379.54688 382.78436ZM387.79688 378.175L387.79688 376.95624L388.85938 376.95624L388.85938 378.175L387.79688 378.175ZM387.79688 385.55L387.79688 379.33124L388.85938 379.33124L388.85938 385.55L387.79688 385.55ZM390.23438 385.55L390.23438 384.6906L394.20312 380.14374Q393.51562 380.175 393.0 380.175L390.46875 380.175L390.46875 379.33124L395.5625 379.33124L395.5625 380.01874L392.1875 383.97186L391.53125 384.6906Q392.25 384.64374 392.85938 384.64374L395.75 384.64374L395.75 385.55L390.23438 385.55ZM400.04688 383.55L401.14062 383.675Q400.89062 384.6281 400.1875 385.15936Q399.48438 385.6906 398.40625 385.6906Q397.04688 385.6906 396.23438 384.84686Q395.4375 384.0031 395.4375 382.4875Q395.4375 380.925 396.25 380.0656Q397.0625 379.1906 398.34375 379.1906Q399.59375 379.1906 400.375 380.03436Q401.17188 380.8781 401.17188 382.425Q401.17188 382.51874 401.17188 382.70624L396.53125 382.70624Q396.59375 383.7375 397.10938 384.28436Q397.625 384.8156 398.40625 384.8156Q398.98438 384.8156 399.39062 384.51874Q399.8125 384.20624 400.04688 383.55ZM396.59375 381.84686L400.0625 381.84686Q400.0 381.05 399.67188 380.65936Q399.15625 380.05 398.35938 380.05Q397.625 380.05 397.125 380.53436Q396.64062 381.01874 396.59375 381.84686Z" fill-rule="nonzero"/><path fill="#000000" d="M31.449987 239.33229L22.856237 239.33229L22.856237 233.53542L23.871862 233.53542L23.871862 238.19167L26.528112 238.19167L26.528112 234.16042L27.543737 234.16042L27.543737 238.19167L31.449987 238.19167L31.449987 239.33229ZM24.074987 232.51979L22.856237 232.51979L22.856237 231.45729L24.074987 231.45729L24.074987 232.51979ZM31.449987 232.51979L25.231237 232.51979L25.231237 231.45729L31.449987 231.45729L31.449987 232.51979ZM31.449987 229.55104L22.856237 229.55104L22.856237 228.48854L31.449987 228.48854L31.449987 229.55104ZM29.449987 222.26979L29.574987 221.17604Q30.528112 221.42604 31.059362 222.12917Q31.590612 222.83229 31.590612 223.91042Q31.590612 225.26979 30.746862 226.08229Q29.903112 226.87917 28.387487 226.87917Q26.824987 226.87917 25.965612 226.06667Q25.090612 225.25417 25.090612 223.97292Q25.090612 222.72292 25.934362 221.94167Q26.778112 221.14479 28.324987 221.14479Q28.418737 221.14479 28.606237 221.14479L28.606237 225.78542Q29.637487 225.72292 30.184362 225.20729Q30.715612 224.69167 30.715612 223.91042Q30.715612 223.33229 30.418737 222.92604Q30.106237 222.50417 29.449987 222.26979ZM27.746862 225.72292L27.746862 222.25417Q26.949987 222.31667 26.559362 222.64479Q25.949987 223.16042 25.949987 223.95729Q25.949987 224.69167 26.434362 225.19167Q26.918737 225.67604 27.746862 225.72292ZM28.684362 216.76979L28.590612 215.70729Q29.246862 215.62917 29.653112 215.34792Q30.059362 215.06667 30.324987 214.48854Q30.574987 213.89479 30.574987 213.16042Q30.574987 212.51979 30.387487 212.01979Q30.184362 211.51979 29.856237 211.28542Q29.512487 211.03542 29.121862 211.03542Q28.715612 211.03542 28.418737 211.26979Q28.106237 211.50417 27.903112 212.03542Q27.762487 212.39479 27.481237 213.58229Q27.199987 214.75417 26.949987 215.22292Q26.621862 215.84792 26.153112 216.14479Q25.668737 216.44167 25.074987 216.44167Q24.434362 216.44167 23.871862 216.08229Q23.293737 215.70729 23.012487 215.00417Q22.715612 214.28542 22.715612 213.42604Q22.715612 212.47292 23.028112 211.73854Q23.324987 211.00417 23.934362 210.61354Q24.528112 210.22292 25.278112 210.19167L25.356237 211.28542Q24.543737 211.37917 24.137487 211.89479Q23.715612 212.39479 23.715612 213.37917Q23.715612 214.41042 24.090612 214.87917Q24.465612 215.34792 24.996862 215.34792Q25.465612 215.34792 25.762487 215.01979Q26.059362 214.69167 26.371862 213.31667Q26.684362 211.92604 26.918737 211.41042Q27.278112 210.66042 27.809362 210.30104Q28.324987 209.94167 29.028112 209.94167Q29.715612 209.94167 30.324987 210.33229Q30.918737 210.72292 31.262487 211.45729Q31.590612 212.19167 31.590612 213.11354Q31.590612 214.28542 31.262487 215.08229Q30.918737 215.86354 30.231237 216.31667Q29.543737 216.75417 28.684362 216.76979ZM24.074987 208.51979L22.856237 208.51979L22.856237 207.45729L24.074987 207.45729L24.074987 208.51979ZM31.449987 208.51979L25.231237 208.51979L25.231237 207.45729L31.449987 207.45729L31.449987 208.51979ZM31.449987 206.08229L30.590612 206.08229L26.043737 202.11354Q26.074987 202.80104 26.074987 203.31667L26.074987 205.84792L25.231237 205.84792L25.231237 200.75417L25.918737 200.75417L29.871862 204.12917L30.590612 204.78542Q30.543737 204.06667 30.543737 203.45729L30.543737 200.56667L31.449987 200.56667L31.449987 206.08229ZM29.449987 196.26979L29.574987 195.17604Q30.528112 195.42604 31.059362 196.12917Q31.590612 196.83229 31.590612 197.91042Q31.590612 199.26979 30.746862 200.08229Q29.903112 200.87917 28.387487 200.87917Q26.824987 200.87917 25.965612 200.06667Q25.090612 199.25417 25.090612 197.97292Q25.090612 196.72292 25.934362 195.94167Q26.778112 195.14479 28.324987 195.14479Q28.418737 195.14479 28.606237 195.14479L28.606237 199.78542Q29.637487 199.72292 30.184362 199.20729Q30.715612 198.69167 30.715612 197.91042Q30.715612 197.33229 30.418737 196.92604Q30.106237 196.50417 29.449987 196.26979ZM27.746862 199.72292L27.746862 196.25417Q26.949987 196.31667 26.559362 196.64479Q25.949987 197.16042 25.949987 197.95729Q25.949987 198.69167 26.434362 199.19167Q26.918737 199.67604 27.746862 199.72292ZM31.449987 190.42604L22.856237 190.42604L22.856237 188.70729L28.934362 186.67604Q29.793737 186.39479 30.215612 186.26979Q29.746862 186.12917 28.840612 185.81667L22.856237 183.75417L22.856237 182.22292L31.449987 182.22292L31.449987 183.31667L24.262487 183.31667L31.449987 185.81667L31.449987 186.84792L24.137487 189.33229L31.449987 189.33229L31.449987 190.42604ZM31.449987 181.44167L22.856237 181.44167L22.856237 178.20729Q22.856237 177.22292 23.121862 176.62917Q23.387487 176.03542 23.934362 175.70729Q24.465612 175.36354 25.059362 175.36354Q25.606237 175.36354 26.090612 175.66042Q26.574987 175.95729 26.871862 176.56667Q27.106237 175.78542 27.668737 175.37917Q28.215612 174.95729 28.965612 174.95729Q29.559362 174.95729 30.090612 175.20729Q30.606237 175.45729 30.887487 175.83229Q31.168737 176.20729 31.309362 176.78542Q31.449987 177.34792 31.449987 178.16042L31.449987 181.44167ZM26.465612 180.30104L26.465612 178.44167Q26.465612 177.69167 26.371862 177.36354Q26.246862 176.92604 25.949987 176.70729Q25.637487 176.48854 25.184362 176.48854Q24.762487 176.48854 24.434362 176.69167Q24.106237 176.89479 23.996862 177.28542Q23.871862 177.66042 23.871862 178.58229L23.871862 180.30104L26.465612 180.30104ZM30.434362 180.30104L30.434362 178.16042Q30.434362 177.61354 30.387487 177.39479Q30.324987 176.98854 30.168737 176.73854Q29.996862 176.47292 29.684362 176.30104Q29.371862 176.12917 28.965612 176.12917Q28.481237 176.12917 28.121862 176.37917Q27.762487 176.61354 27.621862 177.05104Q27.481237 177.48854 27.481237 178.31667L27.481237 180.30104L30.434362 180.30104Z" fill-rule="nonzero"/><path fill="#000000" d="M80.95 336.3156Q80.95 334.78436 81.2625 333.8625Q81.575 332.925 82.18437 332.425Q82.80937 331.925 83.74687 331.925Q84.43437 331.925 84.95 332.20624Q85.48125 332.4875 85.825 333.01874Q86.16875 333.53436 86.35625 334.28436Q86.54375 335.03436 86.54375 336.3156Q86.54375 337.83124 86.23125 338.7531Q85.93437 339.675 85.30937 340.1906Q84.7 340.6906 83.74687 340.6906Q82.5125 340.6906 81.79375 339.8Q80.95 338.7375 80.95 336.3156ZM82.02812 336.3156Q82.02812 338.425 82.52812 339.1281Q83.02812 339.83124 83.74687 339.83124Q84.48125 339.83124 84.96562 339.1281Q85.46562 338.425 85.46562 336.3156Q85.46562 334.1906 84.96562 333.5031Q84.48125 332.8 83.73125 332.8Q83.0125 332.8 82.575 333.40936Q82.02812 334.1906 82.02812 336.3156Z" fill-rule="nonzero"/><path fill="#000000" d="M65.49687 285.24103L65.49687 286.25665L59.809376 286.25665Q59.809376 285.88165 59.934376 285.52228Q60.153126 284.94415 60.621876 284.38165Q61.10625 283.81915 62.0125 283.08478Q63.41875 281.92853 63.903126 281.25665Q64.40312 280.58478 64.40312 279.99103Q64.40312 279.36603 63.95 278.94415Q63.496876 278.50665 62.778126 278.50665Q62.0125 278.50665 61.559376 278.95978Q61.10625 279.4129 61.090626 280.2254L60.0125 280.11603Q60.121876 278.89728 60.840626 278.27228Q61.575 277.63165 62.809376 277.63165Q64.04375 277.63165 64.7625 278.31915Q65.48125 279.00665 65.48125 280.02228Q65.48125 280.5379 65.2625 281.0379Q65.05937 281.52228 64.55937 282.08478Q64.075 282.63165 62.95 283.58478Q61.996876 284.38165 61.715626 284.67853Q61.45 284.95978 61.278126 285.24103L65.49687 285.24103ZM66.95 284.00665L68.05937 283.9129Q68.18437 284.7254 68.62187 285.13165Q69.075 285.5379 69.71562 285.5379Q70.46562 285.5379 70.99687 284.95978Q71.52812 284.38165 71.52812 283.44415Q71.52812 282.5379 71.0125 282.02228Q70.5125 281.49103 69.68437 281.49103Q69.18437 281.49103 68.7625 281.7254Q68.35625 281.95978 68.12187 282.31915L67.1375 282.19415L67.96562 277.7879L72.24687 277.7879L72.24687 278.7879L68.80937 278.7879L68.35625 281.1004Q69.12187 280.55353 69.96562 280.55353Q71.09062 280.55353 71.85625 281.33478Q72.6375 282.11603 72.6375 283.3504Q72.6375 284.50665 71.96562 285.36603Q71.1375 286.39728 69.71562 286.39728Q68.54375 286.39728 67.79375 285.74103Q67.05937 285.08478 66.95 284.00665ZM73.95 282.02228Q73.95 280.49103 74.2625 279.56915Q74.575 278.63165 75.18437 278.13165Q75.80937 277.63165 76.74687 277.63165Q77.43437 277.63165 77.95 277.9129Q78.48125 278.19415 78.825 278.7254Q79.16875 279.24103 79.35625 279.99103Q79.54375 280.74103 79.54375 282.02228Q79.54375 283.5379 79.23125 284.45978Q78.93437 285.38165 78.30937 285.89728Q77.7 286.39728 76.74687 286.39728Q75.5125 286.39728 74.79375 285.50665Q73.95 284.44415 73.95 282.02228ZM75.02812 282.02228Q75.02812 284.13165 75.52812 284.83478Q76.02812 285.5379 76.74687 285.5379Q77.48125 285.5379 77.96562 284.83478Q78.46562 284.13165 78.46562 282.02228Q78.46562 279.89728 77.96562 279.20978Q77.48125 278.50665 76.73125 278.50665Q76.0125 278.50665 75.575 279.11603Q75.02812 279.89728 75.02812 282.02228ZM80.95 282.02228Q80.95 280.49103 81.2625 279.56915Q81.575 278.63165 82.18437 278.13165Q82.80937 277.63165 83.74687 277.63165Q84.43437 277.63165 84.95 277.9129Q85.48125 278.19415 85.825 278.7254Q86.16875 279.24103 86.35625 279.99103Q86.54375 280.74103 86.54375 282.02228Q86.54375 283.5379 86.23125 284.45978Q85.93437 285.38165 85.30937 285.89728Q84.7 286.39728 83.74687 286.39728Q82.5125 286.39728 81.79375 285.50665Q80.95 284.44415 80.95 282.02228ZM82.02812 282.02228Q82.02812 284.13165 82.52812 284.83478Q83.02812 285.5379 83.74687 285.5379Q84.48125 285.5379 84.96562 284.83478Q85.46562 284.13165 85.46562 282.02228Q85.46562 279.89728 84.96562 279.20978Q84.48125 278.50665 83.73125 278.50665Q83.0125 278.50665 82.575 279.11603Q82.02812 279.89728 82.02812 282.02228Z" fill-rule="nonzero"/><path fill="#000000" d="M59.95 229.71333L61.059376 229.61958Q61.184376 230.43208 61.621876 230.83833Q62.075 231.24458 62.715626 231.24458Q63.465626 231.24458 63.996876 230.66646Q64.52812 230.08833 64.52812 229.15083Q64.52812 228.24458 64.0125 227.72896Q63.5125 227.19771 62.684376 227.19771Q62.184376 227.19771 61.7625 227.43208Q61.35625 227.66646 61.121876 228.02583L60.1375 227.90083L60.965626 223.49458L65.24687 223.49458L65.24687 224.49458L61.809376 224.49458L61.35625 226.80708Q62.121876 226.26021 62.965626 226.26021Q64.09062 226.26021 64.85625 227.04146Q65.6375 227.82271 65.6375 229.05708Q65.6375 230.21333 64.96562 231.07271Q64.1375 232.10396 62.715626 232.10396Q61.54375 232.10396 60.79375 231.44771Q60.059376 230.79146 59.95 229.71333ZM66.95 227.72896Q66.95 226.19771 67.2625 225.27583Q67.575 224.33833 68.18437 223.83833Q68.80937 223.33833 69.74687 223.33833Q70.43437 223.33833 70.95 223.61958Q71.48125 223.90083 71.825 224.43208Q72.16875 224.94771 72.35625 225.69771Q72.54375 226.44771 72.54375 227.72896Q72.54375 229.24458 72.23125 230.16646Q71.93437 231.08833 71.30937 231.60396Q70.7 232.10396 69.74687 232.10396Q68.5125 232.10396 67.79375 231.21333Q66.95 230.15083 66.95 227.72896ZM68.02812 227.72896Q68.02812 229.83833 68.52812 230.54146Q69.02812 231.24458 69.74687 231.24458Q70.48125 231.24458 70.96562 230.54146Q71.46562 229.83833 71.46562 227.72896Q71.46562 225.60396 70.96562 224.91646Q70.48125 224.21333 69.73125 224.21333Q69.0125 224.21333 68.575 224.82271Q68.02812 225.60396 68.02812 227.72896ZM73.95 227.72896Q73.95 226.19771 74.2625 225.27583Q74.575 224.33833 75.18437 223.83833Q75.80937 223.33833 76.74687 223.33833Q77.43437 223.33833 77.95 223.61958Q78.48125 223.90083 78.825 224.43208Q79.16875 224.94771 79.35625 225.69771Q79.54375 226.44771 79.54375 227.72896Q79.54375 229.24458 79.23125 230.16646Q78.93437 231.08833 78.30937 231.60396Q77.7 232.10396 76.74687 232.10396Q75.5125 232.10396 74.79375 231.21333Q73.95 230.15083 73.95 227.72896ZM75.02812 227.72896Q75.02812 229.83833 75.52812 230.54146Q76.02812 231.24458 76.74687 231.24458Q77.48125 231.24458 77.96562 230.54146Q78.46562 229.83833 78.46562 227.72896Q78.46562 225.60396 77.96562 224.91646Q77.48125 224.21333 76.73125 224.21333Q76.0125 224.21333 75.575 224.82271Q75.02812 225.60396 75.02812 227.72896ZM80.95 227.72896Q80.95 226.19771 81.2625 225.27583Q81.575 224.33833 82.18437 223.83833Q82.80937 223.33833 83.74687 223.33833Q84.43437 223.33833 84.95 223.61958Q85.48125 223.90083 85.825 224.43208Q86.16875 224.94771 86.35625 225.69771Q86.54375 226.44771 86.54375 227.72896Q86.54375 229.24458 86.23125 230.16646Q85.93437 231.08833 85.30937 231.60396Q84.7 232.10396 83.74687 232.10396Q82.5125 232.10396 81.79375 231.21333Q80.95 230.15083 80.95 227.72896ZM82.02812 227.72896Q82.02812 229.83833 82.52812 230.54146Q83.02812 231.24458 83.74687 231.24458Q84.48125 231.24458 84.96562 230.54146Q85.46562 229.83833 85.46562 227.72896Q85.46562 225.60396 84.96562 224.91646Q84.48125 224.21333 83.73125 224.21333Q83.0125 224.21333 82.575 224.82271Q82.02812 225.60396 82.02812 227.72896Z" fill-rule="nonzero"/><path fill="#000000" d="M60.0125 170.20125L60.0125 169.18562L65.575 169.18562L65.575 170.01375Q64.7625 170.88875 63.95 172.34187Q63.153126 173.77937 62.715626 175.31062Q62.3875 176.38875 62.309376 177.67L61.215626 177.67Q61.23125 176.65437 61.60625 175.21687Q61.996876 173.77937 62.7 172.45125Q63.41875 171.12312 64.23125 170.20125L60.0125 170.20125ZM66.95 175.42L68.05937 175.32625Q68.18437 176.13875 68.62187 176.545Q69.075 176.95125 69.71562 176.95125Q70.46562 176.95125 70.99687 176.37312Q71.52812 175.795 71.52812 174.8575Q71.52812 173.95125 71.0125 173.43562Q70.5125 172.90437 69.68437 172.90437Q69.18437 172.90437 68.7625 173.13875Q68.35625 173.37312 68.12187 173.7325L67.1375 173.6075L67.96562 169.20125L72.24687 169.20125L72.24687 170.20125L68.80937 170.20125L68.35625 172.51375Q69.12187 171.96687 69.96562 171.96687Q71.09062 171.96687 71.85625 172.74812Q72.6375 173.52937 72.6375 174.76375Q72.6375 175.92 71.96562 176.77937Q71.1375 177.81062 69.71562 177.81062Q68.54375 177.81062 67.79375 177.15437Q67.05937 176.49812 66.95 175.42ZM73.95 173.43562Q73.95 171.90437 74.2625 170.9825Q74.575 170.045 75.18437 169.545Q75.80937 169.045 76.74687 169.045Q77.43437 169.045 77.95 169.32625Q78.48125 169.6075 78.825 170.13875Q79.16875 170.65437 79.35625 171.40437Q79.54375 172.15437 79.54375 173.43562Q79.54375 174.95125 79.23125 175.87312Q78.93437 176.795 78.30937 177.31062Q77.7 177.81062 76.74687 177.81062Q75.5125 177.81062 74.79375 176.92Q73.95 175.8575 73.95 173.43562ZM75.02812 173.43562Q75.02812 175.545 75.52812 176.24812Q76.02812 176.95125 76.74687 176.95125Q77.48125 176.95125 77.96562 176.24812Q78.46562 175.545 78.46562 173.43562Q78.46562 171.31062 77.96562 170.62312Q77.48125 169.92 76.73125 169.92Q76.0125 169.92 75.575 170.52937Q75.02812 171.31062 75.02812 173.43562ZM80.95 173.43562Q80.95 171.90437 81.2625 170.9825Q81.575 170.045 82.18437 169.545Q82.80937 169.045 83.74687 169.045Q84.43437 169.045 84.95 169.32625Q85.48125 169.6075 85.825 170.13875Q86.16875 170.65437 86.35625 171.40437Q86.54375 172.15437 86.54375 173.43562Q86.54375 174.95125 86.23125 175.87312Q85.93437 176.795 85.30937 177.31062Q84.7 177.81062 83.74687 177.81062Q82.5125 177.81062 81.79375 176.92Q80.95 175.8575 80.95 173.43562ZM82.02812 173.43562Q82.02812 175.545 82.52812 176.24812Q83.02812 176.95125 83.74687 176.95125Q84.48125 176.95125 84.96562 176.24812Q85.46562 175.545 85.46562 173.43562Q85.46562 171.31062 84.96562 170.62312Q84.48125 169.92 83.73125 169.92Q83.0125 169.92 82.575 170.52937Q82.02812 171.31062 82.02812 173.43562Z" fill-rule="nonzero"/><path fill="#000000" d="M56.91875 123.37666L55.871876 123.37666L55.871876 116.65791Q55.48125 117.01729 54.85625 117.39229Q54.246876 117.75166 53.7625 117.92354L53.7625 116.90791Q54.6375 116.48604 55.29375 115.90791Q55.965626 115.31416 56.246876 114.75166L56.91875 114.75166L56.91875 123.37666ZM59.95 119.14229Q59.95 117.61104 60.2625 116.68916Q60.575 115.75166 61.184376 115.25166Q61.809376 114.75166 62.746876 114.75166Q63.434376 114.75166 63.95 115.03291Q64.48125 115.31416 64.825 115.84541Q65.16875 116.36104 65.35625 117.11104Q65.54375 117.86104 65.54375 119.14229Q65.54375 120.65791 65.23125 121.57979Q64.93437 122.50166 64.30937 123.01729Q63.7 123.51729 62.746876 123.51729Q61.5125 123.51729 60.79375 122.62666Q59.95 121.56416 59.95 119.14229ZM61.028126 119.14229Q61.028126 121.25166 61.528126 121.95479Q62.028126 122.65791 62.746876 122.65791Q63.48125 122.65791 63.965626 121.95479Q64.46562 121.25166 64.46562 119.14229Q64.46562 117.01729 63.965626 116.32979Q63.48125 115.62666 62.73125 115.62666Q62.0125 115.62666 61.575 116.23604Q61.028126 117.01729 61.028126 119.14229ZM66.95 119.14229Q66.95 117.61104 67.2625 116.68916Q67.575 115.75166 68.18437 115.25166Q68.80937 114.75166 69.74687 114.75166Q70.43437 114.75166 70.95 115.03291Q71.48125 115.31416 71.825 115.84541Q72.16875 116.36104 72.35625 117.11104Q72.54375 117.86104 72.54375 119.14229Q72.54375 120.65791 72.23125 121.57979Q71.93437 122.50166 71.30937 123.01729Q70.7 123.51729 69.74687 123.51729Q68.5125 123.51729 67.79375 122.62666Q66.95 121.56416 66.95 119.14229ZM68.02812 119.14229Q68.02812 121.25166 68.52812 121.95479Q69.02812 122.65791 69.74687 122.65791Q70.48125 122.65791 70.96562 121.95479Q71.46562 121.25166 71.46562 119.14229Q71.46562 117.01729 70.96562 116.32979Q70.48125 115.62666 69.73125 115.62666Q69.0125 115.62666 68.575 116.23604Q68.02812 117.01729 68.02812 119.14229ZM73.95 119.14229Q73.95 117.61104 74.2625 116.68916Q74.575 115.75166 75.18437 115.25166Q75.80937 114.75166 76.74687 114.75166Q77.43437 114.75166 77.95 115.03291Q78.48125 115.31416 78.825 115.84541Q79.16875 116.36104 79.35625 117.11104Q79.54375 117.86104 79.54375 119.14229Q79.54375 120.65791 79.23125 121.57979Q78.93437 122.50166 78.30937 123.01729Q77.7 123.51729 76.74687 123.51729Q75.5125 123.51729 74.79375 122.62666Q73.95 121.56416 73.95 119.14229ZM75.02812 119.14229Q75.02812 121.25166 75.52812 121.95479Q76.02812 122.65791 76.74687 122.65791Q77.48125 122.65791 77.96562 121.95479Q78.46562 121.25166 78.46562 119.14229Q78.46562 117.01729 77.96562 116.32979Q77.48125 115.62666 76.73125 115.62666Q76.0125 115.62666 75.575 116.23604Q75.02812 117.01729 75.02812 119.14229ZM80.95 119.14229Q80.95 117.61104 81.2625 116.68916Q81.575 115.75166 82.18437 115.25166Q82.80937 114.75166 83.74687 114.75166Q84.43437 114.75166 84.95 115.03291Q85.48125 115.31416 85.825 115.84541Q86.16875 116.36104 86.35625 117.11104Q86.54375 117.86104 86.54375 119.14229Q86.54375 120.65791 86.23125 121.57979Q85.93437 122.50166 85.30937 123.01729Q84.7 123.51729 83.74687 123.51729Q82.5125 123.51729 81.79375 122.62666Q80.95 121.56416 80.95 119.14229ZM82.02812 119.14229Q82.02812 121.25166 82.52812 121.95479Q83.02812 122.65791 83.74687 122.65791Q84.48125 122.65791 84.96562 121.95479Q85.46562 121.25166 85.46562 119.14229Q85.46562 117.01729 84.96562 116.32979Q84.48125 115.62666 83.73125 115.62666Q83.0125 115.62666 82.575 116.23604Q82.02812 117.01729 82.02812 119.14229Z" fill-rule="nonzero"/><path fill="#000000" d="M56.91875 69.083336L55.871876 69.083336L55.871876 62.364586Q55.48125 62.72396 54.85625 63.09896Q54.246876 63.458336 53.7625 63.63021L53.7625 62.614586Q54.6375 62.19271 55.29375 61.614586Q55.965626 61.020836 56.246876 60.458336L56.91875 60.458336L56.91875 69.083336ZM65.49687 68.06771L65.49687 69.083336L59.809376 69.083336Q59.809376 68.708336 59.934376 68.34896Q60.153126 67.770836 60.621876 67.208336Q61.10625 66.645836 62.0125 65.91146Q63.41875 64.75521 63.903126 64.083336Q64.40312 63.41146 64.40312 62.81771Q64.40312 62.19271 63.95 61.770836Q63.496876 61.333336 62.778126 61.333336Q62.0125 61.333336 61.559376 61.78646Q61.10625 62.239586 61.090626 63.052086L60.0125 62.94271Q60.121876 61.72396 60.840626 61.09896Q61.575 60.458336 62.809376 60.458336Q64.04375 60.458336 64.7625 61.145836Q65.48125 61.833336 65.48125 62.84896Q65.48125 63.364586 65.2625 63.864586Q65.05937 64.34896 64.55937 64.91146Q64.075 65.458336 62.95 66.41146Q61.996876 67.208336 61.715626 67.50521Q61.45 67.78646 61.278126 68.06771L65.49687 68.06771ZM66.95 66.833336L68.05937 66.739586Q68.18437 67.552086 68.62187 67.958336Q69.075 68.364586 69.71562 68.364586Q70.46562 68.364586 70.99687 67.78646Q71.52812 67.208336 71.52812 66.270836Q71.52812 65.364586 71.0125 64.84896Q70.5125 64.31771 69.68437 64.31771Q69.18437 64.31771 68.7625 64.552086Q68.35625 64.78646 68.12187 65.145836L67.1375 65.020836L67.96562 60.614586L72.24687 60.614586L72.24687 61.614586L68.80937 61.614586L68.35625 63.927086Q69.12187 63.38021 69.96562 63.38021Q71.09062 63.38021 71.85625 64.16146Q72.6375 64.94271 72.6375 66.177086Q72.6375 67.333336 71.96562 68.19271Q71.1375 69.22396 69.71562 69.22396Q68.54375 69.22396 67.79375 68.56771Q67.05937 67.91146 66.95 66.833336ZM73.95 64.84896Q73.95 63.31771 74.2625 62.395836Q74.575 61.458336 75.18437 60.958336Q75.80937 60.458336 76.74687 60.458336Q77.43437 60.458336 77.95 60.739586Q78.48125 61.020836 78.825 61.552086Q79.16875 62.06771 79.35625 62.81771Q79.54375 63.56771 79.54375 64.84896Q79.54375 66.364586 79.23125 67.28646Q78.93437 68.208336 78.30937 68.72396Q77.7 69.22396 76.74687 69.22396Q75.5125 69.22396 74.79375 68.333336Q73.95 67.270836 73.95 64.84896ZM75.02812 64.84896Q75.02812 66.958336 75.52812 67.66146Q76.02812 68.364586 76.74687 68.364586Q77.48125 68.364586 77.96562 67.66146Q78.46562 66.958336 78.46562 64.84896Q78.46562 62.72396 77.96562 62.03646Q77.48125 61.333336 76.73125 61.333336Q76.0125 61.333336 75.575 61.94271Q75.02812 62.72396 75.02812 64.84896ZM80.95 64.84896Q80.95 63.31771 81.2625 62.395836Q81.575 61.458336 82.18437 60.958336Q82.80937 60.458336 83.74687 60.458336Q84.43437 60.458336 84.95 60.739586Q85.48125 61.020836 85.825 61.552086Q86.16875 62.06771 86.35625 62.81771Q86.54375 63.56771 86.54375 64.84896Q86.54375 66.364586 86.23125 67.28646Q85.93437 68.208336 85.30937 68.72396Q84.7 69.22396 83.74687 69.22396Q82.5125 69.22396 81.79375 68.333336Q80.95 67.270836 80.95 64.84896ZM82.02812 64.84896Q82.02812 66.958336 82.52812 67.66146Q83.02812 68.364586 83.74687 68.364586Q84.48125 68.364586 84.96562 67.66146Q85.46562 66.958336 85.46562 64.84896Q85.46562 62.72396 84.96562 62.03646Q84.48125 61.333336 83.73125 61.333336Q83.0125 61.333336 82.575 61.94271Q82.02812 62.72396 82.02812 64.84896Z" fill-rule="nonzero"/><path fill="#000000" d="M183.20604 352.53436L183.20604 353.55L177.51854 353.55Q177.51854 353.175 177.64354 352.8156Q177.86229 352.2375 178.33104 351.675Q178.81541 351.1125 179.72166 350.3781Q181.12791 349.22186 181.61229 348.55Q182.11229 347.8781 182.11229 347.28436Q182.11229 346.65936 181.65916 346.2375Q181.20604 345.8 180.48729 345.8Q179.72166 345.8 179.26854 346.2531Q178.81541 346.70624 178.79979 347.51874L177.72166 347.40936Q177.83104 346.1906 178.54979 345.5656Q179.28416 344.925 180.51854 344.925Q181.75291 344.925 182.47166 345.6125Q183.19041 346.3 183.19041 347.3156Q183.19041 347.83124 182.97166 348.33124Q182.76854 348.8156 182.26854 349.3781Q181.78416 349.925 180.65916 350.8781Q179.70604 351.675 179.42479 351.97186Q179.15916 352.2531 178.98729 352.53436L183.20604 352.53436ZM185.25291 353.55L185.25291 352.34686L186.45604 352.34686L186.45604 353.55L185.25291 353.55ZM187.65916 349.3156Q187.65916 347.78436 187.97166 346.8625Q188.28416 345.925 188.89354 345.425Q189.51854 344.925 190.45604 344.925Q191.14354 344.925 191.65916 345.20624Q192.19041 345.4875 192.53416 346.01874Q192.87791 346.53436 193.06541 347.28436Q193.25291 348.03436 193.25291 349.3156Q193.25291 350.83124 192.94041 351.7531Q192.64354 352.675 192.01854 353.1906Q191.40916 353.6906 190.45604 353.6906Q189.22166 353.6906 188.50291 352.8Q187.65916 351.7375 187.65916 349.3156ZM188.73729 349.3156Q188.73729 351.425 189.23729 352.1281Q189.73729 352.83124 190.45604 352.83124Q191.19041 352.83124 191.67479 352.1281Q192.17479 351.425 192.17479 349.3156Q192.17479 347.1906 191.67479 346.5031Q191.19041 345.8 190.44041 345.8Q189.72166 345.8 189.28416 346.40936Q188.73729 347.1906 188.73729 349.3156ZM195.11229 353.55L195.11229 344.95624L201.31541 344.95624L201.31541 345.97186L196.25291 345.97186L196.25291 348.59686L201.00291 348.59686L201.00291 349.6125L196.25291 349.6125L196.25291 352.53436L201.51854 352.53436L201.51854 353.55L195.11229 353.55ZM205.15916 352.15936L205.15916 349.8L202.83104 349.8L202.83104 348.8156L205.15916 348.8156L205.15916 346.4875L206.15916 346.4875L206.15916 348.8156L208.50291 348.8156L208.50291 349.8L206.15916 349.8L206.15916 352.15936L205.15916 352.15936ZM211.28416 348.89374Q210.62791 348.64374 210.29979 348.20624Q209.98729 347.7531 209.98729 347.14374Q209.98729 346.20624 210.65916 345.5656Q211.34666 344.925 212.45604 344.925Q213.58104 344.925 214.26854 345.58124Q214.95604 346.2375 214.95604 347.175Q214.95604 347.76874 214.64354 348.20624Q214.33104 348.64374 213.69041 348.89374Q214.48729 349.14374 214.89354 349.72186Q215.29979 350.3 215.29979 351.09686Q215.29979 352.1906 214.51854 352.9406Q213.75291 353.6906 212.47166 353.6906Q211.20604 353.6906 210.42479 352.9406Q209.64354 352.1906 209.64354 351.0656Q209.64354 350.22186 210.06541 349.65936Q210.50291 349.09686 211.28416 348.89374ZM211.06541 347.09686Q211.06541 347.70624 211.45604 348.09686Q211.86229 348.4875 212.48729 348.4875Q213.09666 348.4875 213.48729 348.1125Q213.87791 347.72186 213.87791 347.15936Q213.87791 346.58124 213.47166 346.1906Q213.06541 345.78436 212.47166 345.78436Q211.86229 345.78436 211.45604 346.175Q211.06541 346.5656 211.06541 347.09686ZM210.73729 351.0656Q210.73729 351.51874 210.94041 351.9406Q211.15916 352.3625 211.58104 352.59686Q212.00291 352.83124 212.48729 352.83124Q213.23729 352.83124 213.72166 352.34686Q214.22166 351.8625 214.22166 351.1125Q214.22166 350.34686 213.72166 349.84686Q213.22166 349.34686 212.45604 349.34686Q211.70604 349.34686 211.22166 349.84686Q210.73729 350.33124 210.73729 351.0656Z" fill-rule="nonzero"/><path fill="#000000" d="M284.24335 353.55L284.24335 351.4875L280.5246 351.4875L280.5246 350.51874L284.44647 344.95624L285.30585 344.95624L285.30585 350.51874L286.4621 350.51874L286.4621 351.4875L285.30585 351.4875L285.30585 353.55L284.24335 353.55ZM284.24335 350.51874L284.24335 346.65936L281.55585 350.51874L284.24335 350.51874ZM288.4621 353.55L288.4621 352.34686L289.66522 352.34686L289.66522 353.55L288.4621 353.55ZM290.86835 349.3156Q290.86835 347.78436 291.18085 346.8625Q291.49335 345.925 292.10272 345.425Q292.72772 344.925 293.66522 344.925Q294.35272 344.925 294.86835 345.20624Q295.3996 345.4875 295.74335 346.01874Q296.0871 346.53436 296.2746 347.28436Q296.4621 348.03436 296.4621 349.3156Q296.4621 350.83124 296.1496 351.7531Q295.85272 352.675 295.22772 353.1906Q294.61835 353.6906 293.66522 353.6906Q292.43085 353.6906 291.7121 352.8Q290.86835 351.7375 290.86835 349.3156ZM291.94647 349.3156Q291.94647 351.425 292.44647 352.1281Q292.94647 352.83124 293.66522 352.83124Q294.3996 352.83124 294.88397 352.1281Q295.38397 351.425 295.38397 349.3156Q295.38397 347.1906 294.88397 346.5031Q294.3996 345.8 293.6496 345.8Q292.93085 345.8 292.49335 346.40936Q291.94647 347.1906 291.94647 349.3156ZM298.32147 353.55L298.32147 344.95624L304.5246 344.95624L304.5246 345.97186L299.4621 345.97186L299.4621 348.59686L304.2121 348.59686L304.2121 349.6125L299.4621 349.6125L299.4621 352.53436L304.72772 352.53436L304.72772 353.55L298.32147 353.55ZM308.36835 352.15936L308.36835 349.8L306.04022 349.8L306.04022 348.8156L308.36835 348.8156L308.36835 346.4875L309.36835 346.4875L309.36835 348.8156L311.7121 348.8156L311.7121 349.8L309.36835 349.8L309.36835 352.15936L308.36835 352.15936ZM314.49335 348.89374Q313.8371 348.64374 313.50897 348.20624Q313.19647 347.7531 313.19647 347.14374Q313.19647 346.20624 313.86835 345.5656Q314.55585 344.925 315.66522 344.925Q316.79022 344.925 317.47772 345.58124Q318.16522 346.2375 318.16522 347.175Q318.16522 347.76874 317.85272 348.20624Q317.54022 348.64374 316.8996 348.89374Q317.69647 349.14374 318.10272 349.72186Q318.50897 350.3 318.50897 351.09686Q318.50897 352.1906 317.72772 352.9406Q316.9621 353.6906 315.68085 353.6906Q314.41522 353.6906 313.63397 352.9406Q312.85272 352.1906 312.85272 351.0656Q312.85272 350.22186 313.2746 349.65936Q313.7121 349.09686 314.49335 348.89374ZM314.2746 347.09686Q314.2746 347.70624 314.66522 348.09686Q315.07147 348.4875 315.69647 348.4875Q316.30585 348.4875 316.69647 348.1125Q317.0871 347.72186 317.0871 347.15936Q317.0871 346.58124 316.68085 346.1906Q316.2746 345.78436 315.68085 345.78436Q315.07147 345.78436 314.66522 346.175Q314.2746 346.5656 314.2746 347.09686ZM313.94647 351.0656Q313.94647 351.51874 314.1496 351.9406Q314.36835 352.3625 314.79022 352.59686Q315.2121 352.83124 315.69647 352.83124Q316.44647 352.83124 316.93085 352.34686Q317.43085 351.8625 317.43085 351.1125Q317.43085 350.34686 316.93085 349.84686Q316.43085 349.34686 315.66522 349.34686Q314.91522 349.34686 314.43085 349.84686Q313.94647 350.33124 313.94647 351.0656Z" fill-rule="nonzero"/><path fill="#000000" d="M389.54626 347.0656L388.4994 347.14374Q388.35876 346.51874 388.10876 346.2375Q387.67126 345.78436 387.04626 345.78436Q386.54626 345.78436 386.15564 346.0656Q385.67126 346.4406 385.3744 347.14374Q385.09314 347.83124 385.0775 349.1125Q385.4525 348.53436 385.9994 348.2531Q386.5619 347.97186 387.17126 347.97186Q388.21814 347.97186 388.9525 348.7531Q389.7025 349.53436 389.7025 350.7531Q389.7025 351.5656 389.34314 352.26874Q388.9994 352.95624 388.39 353.33124Q387.78064 353.6906 387.015 353.6906Q385.6869 353.6906 384.85876 352.72186Q384.03064 351.7531 384.03064 349.53436Q384.03064 347.03436 384.9525 345.90936Q385.7494 344.925 387.10876 344.925Q388.1244 344.925 388.765 345.5031Q389.42126 346.0656 389.54626 347.0656ZM385.2494 350.76874Q385.2494 351.3156 385.46814 351.8156Q385.7025 352.3 386.10876 352.5656Q386.53064 352.83124 386.9994 352.83124Q387.65564 352.83124 388.14 352.3Q388.6244 351.7531 388.6244 350.83124Q388.6244 349.9406 388.14 349.425Q387.67126 348.90936 386.9525 348.90936Q386.23376 348.90936 385.73376 349.425Q385.2494 349.9406 385.2494 350.76874ZM391.67126 353.55L391.67126 352.34686L392.8744 352.34686L392.8744 353.55L391.67126 353.55ZM394.0775 349.3156Q394.0775 347.78436 394.39 346.8625Q394.7025 345.925 395.3119 345.425Q395.9369 344.925 396.8744 344.925Q397.5619 344.925 398.0775 345.20624Q398.60876 345.4875 398.9525 346.01874Q399.29626 346.53436 399.48376 347.28436Q399.67126 348.03436 399.67126 349.3156Q399.67126 350.83124 399.35876 351.7531Q399.0619 352.675 398.4369 353.1906Q397.8275 353.6906 396.8744 353.6906Q395.64 353.6906 394.92126 352.8Q394.0775 351.7375 394.0775 349.3156ZM395.15564 349.3156Q395.15564 351.425 395.65564 352.1281Q396.15564 352.83124 396.8744 352.83124Q397.60876 352.83124 398.09314 352.1281Q398.59314 351.425 398.59314 349.3156Q398.59314 347.1906 398.09314 346.5031Q397.60876 345.8 396.85876 345.8Q396.14 345.8 395.7025 346.40936Q395.15564 347.1906 395.15564 349.3156ZM401.53064 353.55L401.53064 344.95624L407.73376 344.95624L407.73376 345.97186L402.67126 345.97186L402.67126 348.59686L407.42126 348.59686L407.42126 349.6125L402.67126 349.6125L402.67126 352.53436L407.9369 352.53436L407.9369 353.55L401.53064 353.55ZM411.5775 352.15936L411.5775 349.8L409.2494 349.8L409.2494 348.8156L411.5775 348.8156L411.5775 346.4875L412.5775 346.4875L412.5775 348.8156L414.92126 348.8156L414.92126 349.8L412.5775 349.8L412.5775 352.15936L411.5775 352.15936ZM417.7025 348.89374Q417.04626 348.64374 416.71814 348.20624Q416.40564 347.7531 416.40564 347.14374Q416.40564 346.20624 417.0775 345.5656Q417.765 344.925 418.8744 344.925Q419.9994 344.925 420.6869 345.58124Q421.3744 346.2375 421.3744 347.175Q421.3744 347.76874 421.0619 348.20624Q420.7494 348.64374 420.10876 348.89374Q420.90564 349.14374 421.3119 349.72186Q421.71814 350.3 421.71814 351.09686Q421.71814 352.1906 420.9369 352.9406Q420.17126 353.6906 418.89 353.6906Q417.6244 353.6906 416.84314 352.9406Q416.0619 352.1906 416.0619 351.0656Q416.0619 350.22186 416.48376 349.65936Q416.92126 349.09686 417.7025 348.89374ZM417.48376 347.09686Q417.48376 347.70624 417.8744 348.09686Q418.28064 348.4875 418.90564 348.4875Q419.515 348.4875 419.90564 348.1125Q420.29626 347.72186 420.29626 347.15936Q420.29626 346.58124 419.89 346.1906Q419.48376 345.78436 418.89 345.78436Q418.28064 345.78436 417.8744 346.175Q417.48376 346.5656 417.48376 347.09686ZM417.15564 351.0656Q417.15564 351.51874 417.35876 351.9406Q417.5775 352.3625 417.9994 352.59686Q418.42126 352.83124 418.90564 352.83124Q419.65564 352.83124 420.14 352.34686Q420.64 351.8625 420.64 351.1125Q420.64 350.34686 420.14 349.84686Q419.64 349.34686 418.8744 349.34686Q418.1244 349.34686 417.64 349.84686Q417.15564 350.33124 417.15564 351.0656Z" fill-rule="nonzero"/><path fill="#000000" d="M488.91168 348.89374Q488.25543 348.64374 487.9273 348.20624Q487.6148 347.7531 487.6148 347.14374Q487.6148 346.20624 488.28668 345.5656Q488.97418 344.925 490.08356 344.925Q491.20856 344.925 491.89606 345.58124Q492.58356 346.2375 492.58356 347.175Q492.58356 347.76874 492.27106 348.20624Q491.95856 348.64374 491.31793 348.89374Q492.1148 349.14374 492.52106 349.72186Q492.9273 350.3 492.9273 351.09686Q492.9273 352.1906 492.14606 352.9406Q491.38043 353.6906 490.09918 353.6906Q488.83356 353.6906 488.0523 352.9406Q487.27106 352.1906 487.27106 351.0656Q487.27106 350.22186 487.69293 349.65936Q488.13043 349.09686 488.91168 348.89374ZM488.69293 347.09686Q488.69293 347.70624 489.08356 348.09686Q489.4898 348.4875 490.1148 348.4875Q490.72418 348.4875 491.1148 348.1125Q491.50543 347.72186 491.50543 347.15936Q491.50543 346.58124 491.09918 346.1906Q490.69293 345.78436 490.09918 345.78436Q489.4898 345.78436 489.08356 346.175Q488.69293 346.5656 488.69293 347.09686ZM488.3648 351.0656Q488.3648 351.51874 488.56793 351.9406Q488.78668 352.3625 489.20856 352.59686Q489.63043 352.83124 490.1148 352.83124Q490.8648 352.83124 491.34918 352.34686Q491.84918 351.8625 491.84918 351.1125Q491.84918 350.34686 491.34918 349.84686Q490.84918 349.34686 490.08356 349.34686Q489.33356 349.34686 488.84918 349.84686Q488.3648 350.33124 488.3648 351.0656ZM494.88043 353.55L494.88043 352.34686L496.08356 352.34686L496.08356 353.55L494.88043 353.55ZM497.28668 349.3156Q497.28668 347.78436 497.59918 346.8625Q497.91168 345.925 498.52106 345.425Q499.14606 344.925 500.08356 344.925Q500.77106 344.925 501.28668 345.20624Q501.81793 345.4875 502.16168 346.01874Q502.50543 346.53436 502.69293 347.28436Q502.88043 348.03436 502.88043 349.3156Q502.88043 350.83124 502.56793 351.7531Q502.27106 352.675 501.64606 353.1906Q501.03668 353.6906 500.08356 353.6906Q498.84918 353.6906 498.13043 352.8Q497.28668 351.7375 497.28668 349.3156ZM498.3648 349.3156Q498.3648 351.425 498.8648 352.1281Q499.3648 352.83124 500.08356 352.83124Q500.81793 352.83124 501.3023 352.1281Q501.8023 351.425 501.8023 349.3156Q501.8023 347.1906 501.3023 346.5031Q500.81793 345.8 500.06793 345.8Q499.34918 345.8 498.91168 346.40936Q498.3648 347.1906 498.3648 349.3156ZM504.7398 353.55L504.7398 344.95624L510.94293 344.95624L510.94293 345.97186L505.88043 345.97186L505.88043 348.59686L510.63043 348.59686L510.63043 349.6125L505.88043 349.6125L505.88043 352.53436L511.14606 352.53436L511.14606 353.55L504.7398 353.55ZM514.7867 352.15936L514.7867 349.8L512.45856 349.8L512.45856 348.8156L514.7867 348.8156L514.7867 346.4875L515.7867 346.4875L515.7867 348.8156L518.13043 348.8156L518.13043 349.8L515.7867 349.8L515.7867 352.15936L514.7867 352.15936ZM520.9117 348.89374Q520.25543 348.64374 519.9273 348.20624Q519.6148 347.7531 519.6148 347.14374Q519.6148 346.20624 520.2867 345.5656Q520.9742 344.925 522.08356 344.925Q523.20856 344.925 523.89606 345.58124Q524.58356 346.2375 524.58356 347.175Q524.58356 347.76874 524.27106 348.20624Q523.95856 348.64374 523.31793 348.89374Q524.1148 349.14374 524.52106 349.72186Q524.9273 350.3 524.9273 351.09686Q524.9273 352.1906 524.14606 352.9406Q523.38043 353.6906 522.0992 353.6906Q520.83356 353.6906 520.0523 352.9406Q519.27106 352.1906 519.27106 351.0656Q519.27106 350.22186 519.69293 349.65936Q520.13043 349.09686 520.9117 348.89374ZM520.69293 347.09686Q520.69293 347.70624 521.08356 348.09686Q521.4898 348.4875 522.1148 348.4875Q522.7242 348.4875 523.1148 348.1125Q523.50543 347.72186 523.50543 347.15936Q523.50543 346.58124 523.0992 346.1906Q522.69293 345.78436 522.0992 345.78436Q521.4898 345.78436 521.08356 346.175Q520.69293 346.5656 520.69293 347.09686ZM520.3648 351.0656Q520.3648 351.51874 520.56793 351.9406Q520.7867 352.3625 521.20856 352.59686Q521.63043 352.83124 522.1148 352.83124Q522.8648 352.83124 523.3492 352.34686Q523.8492 351.8625 523.8492 351.1125Q523.8492 350.34686 523.3492 349.84686Q522.8492 349.34686 522.08356 349.34686Q521.33356 349.34686 520.8492 349.84686Q520.3648 350.33124 520.3648 351.0656Z" fill-rule="nonzero"/><path fill="#000000" d="M594.4646 353.55L593.4177 353.55L593.4177 346.83124Q593.0271 347.1906 592.4021 347.5656Q591.7927 347.925 591.30835 348.09686L591.30835 347.08124Q592.18335 346.65936 592.8396 346.08124Q593.5115 345.4875 593.7927 344.925L594.4646 344.925L594.4646 353.55ZM598.0896 353.55L598.0896 352.34686L599.2927 352.34686L599.2927 353.55L598.0896 353.55ZM600.49585 349.3156Q600.49585 347.78436 600.80835 346.8625Q601.12085 345.925 601.7302 345.425Q602.3552 344.925 603.2927 344.925Q603.9802 344.925 604.49585 345.20624Q605.0271 345.4875 605.37085 346.01874Q605.7146 346.53436 605.9021 347.28436Q606.0896 348.03436 606.0896 349.3156Q606.0896 350.83124 605.7771 351.7531Q605.4802 352.675 604.8552 353.1906Q604.24585 353.6906 603.2927 353.6906Q602.05835 353.6906 601.3396 352.8Q600.49585 351.7375 600.49585 349.3156ZM601.574 349.3156Q601.574 351.425 602.074 352.1281Q602.574 352.83124 603.2927 352.83124Q604.0271 352.83124 604.5115 352.1281Q605.0115 351.425 605.0115 349.3156Q605.0115 347.1906 604.5115 346.5031Q604.0271 345.8 603.2771 345.8Q602.55835 345.8 602.12085 346.40936Q601.574 347.1906 601.574 349.3156ZM607.949 353.55L607.949 344.95624L614.1521 344.95624L614.1521 345.97186L609.0896 345.97186L609.0896 348.59686L613.8396 348.59686L613.8396 349.6125L609.0896 349.6125L609.0896 352.53436L614.3552 352.53436L614.3552 353.55L607.949 353.55ZM617.99585 352.15936L617.99585 349.8L615.6677 349.8L615.6677 348.8156L617.99585 348.8156L617.99585 346.4875L618.99585 346.4875L618.99585 348.8156L621.3396 348.8156L621.3396 349.8L618.99585 349.8L618.99585 352.15936L617.99585 352.15936ZM622.6521 351.5656L623.6677 351.47186Q623.7927 352.1906 624.1521 352.51874Q624.5271 352.83124 625.0896 352.83124Q625.574 352.83124 625.93335 352.6125Q626.30835 352.3781 626.5427 352.01874Q626.7771 351.64374 626.93335 351.01874Q627.0896 350.3781 627.0896 349.72186Q627.0896 349.64374 627.0896 349.5031Q626.7771 350.0031 626.2302 350.33124Q625.68335 350.64374 625.0427 350.64374Q623.9646 350.64374 623.2302 349.8781Q622.49585 349.09686 622.49585 347.83124Q622.49585 346.51874 623.2615 345.72186Q624.0427 344.925 625.199 344.925Q626.0271 344.925 626.7146 345.3781Q627.4177 345.83124 627.7771 346.675Q628.1365 347.5031 628.1365 349.08124Q628.1365 350.72186 627.7771 351.70624Q627.43335 352.675 626.7146 353.1906Q626.0115 353.6906 625.074 353.6906Q624.05835 353.6906 623.4177 353.14374Q622.7771 352.58124 622.6521 351.5656ZM626.9646 347.76874Q626.9646 346.8625 626.4802 346.33124Q626.0115 345.8 625.324 345.8Q624.62085 345.8 624.0896 346.3781Q623.574 346.9406 623.574 347.8625Q623.574 348.675 624.074 349.1906Q624.574 349.70624 625.2927 349.70624Q626.0271 349.70624 626.49585 349.1906Q626.9646 348.675 626.9646 347.76874Z" fill-rule="nonzero"/><path fill="#757575" d="M22.090626 37.45L22.090626 23.1375L31.746876 23.1375L31.746876 24.825L23.98125 24.825L23.98125 29.2625L30.7 29.2625L30.7 30.95L23.98125 30.95L23.98125 37.45L22.090626 37.45ZM33.778126 25.153126L33.778126 23.1375L35.54375 23.1375L35.54375 25.153126L33.778126 25.153126ZM33.778126 37.45L33.778126 27.075L35.54375 27.075L35.54375 37.45L33.778126 37.45ZM37.73125 37.45L37.73125 23.1375L39.48125 23.1375L39.48125 37.45L37.73125 37.45ZM48.871876 34.10625L50.684376 34.340626Q50.2625 35.91875 49.090626 36.809376Q47.934376 37.684376 46.121876 37.684376Q43.85625 37.684376 42.5125 36.29375Q41.184376 34.8875 41.184376 32.35625Q41.184376 29.73125 42.528126 28.29375Q43.871876 26.840626 46.028126 26.840626Q48.10625 26.840626 49.41875 28.2625Q50.746876 29.66875 50.746876 32.246876Q50.746876 32.403126 50.73125 32.715626L42.996876 32.715626Q43.090626 34.41875 43.965626 35.325Q44.840626 36.23125 46.1375 36.23125Q47.10625 36.23125 47.778126 35.73125Q48.465626 35.215626 48.871876 34.10625ZM43.090626 31.2625L48.8875 31.2625Q48.778126 29.965626 48.23125 29.309376Q47.3875 28.29375 46.04375 28.29375Q44.840626 28.29375 44.0125 29.10625Q43.184376 29.903126 43.090626 31.2625ZM58.059376 34.35625L59.809376 34.075Q59.95 35.121876 60.621876 35.684376Q61.29375 36.23125 62.496876 36.23125Q63.7 36.23125 64.27812 35.746876Q64.87187 35.246876 64.87187 34.590626Q64.87187 33.996876 64.35625 33.653126Q63.996876 33.41875 62.559376 33.059376Q60.621876 32.559376 59.871876 32.215626Q59.1375 31.85625 58.746876 31.23125Q58.35625 30.590626 58.35625 29.825Q58.35625 29.1375 58.66875 28.54375Q58.996876 27.95 59.54375 27.559376Q59.95 27.2625 60.653126 27.059376Q61.371876 26.840626 62.184376 26.840626Q63.403126 26.840626 64.325 27.2Q65.24687 27.54375 65.68437 28.153126Q66.12187 28.746876 66.29375 29.746876L64.575 29.98125Q64.45 29.184376 63.8875 28.746876Q63.325 28.29375 62.309376 28.29375Q61.090626 28.29375 60.575 28.7Q60.059376 29.090626 60.059376 29.621876Q60.059376 29.965626 60.278126 30.246876Q60.48125 30.528126 60.95 30.715626Q61.215626 30.809376 62.496876 31.153126Q64.37187 31.653126 65.10625 31.98125Q65.84062 32.29375 66.2625 32.903126Q66.68437 33.496876 66.68437 34.403126Q66.68437 35.278126 66.16875 36.059376Q65.65312 36.840626 64.68437 37.2625Q63.715626 37.684376 62.496876 37.684376Q60.48125 37.684376 59.41875 36.840626Q58.35625 35.996876 58.059376 34.35625ZM68.77812 25.153126L68.77812 23.1375L70.54375 23.1375L70.54375 25.153126L68.77812 25.153126ZM68.77812 37.45L68.77812 27.075L70.54375 27.075L70.54375 37.45L68.77812 37.45ZM71.84062 37.45L71.84062 36.028126L78.45 28.45Q77.325 28.496876 76.46562 28.496876L72.23125 28.496876L72.23125 27.075L80.71562 27.075L80.71562 28.246876L75.09062 34.825L74.0125 36.028126Q75.18437 35.934376 76.23125 35.934376L81.02812 35.934376L81.02812 37.45L71.84062 37.45ZM88.87187 34.10625L90.68437 34.340626Q90.2625 35.91875 89.09062 36.809376Q87.93437 37.684376 86.12187 37.684376Q83.85625 37.684376 82.5125 36.29375Q81.18437 34.8875 81.18437 32.35625Q81.18437 29.73125 82.52812 28.29375Q83.87187 26.840626 86.02812 26.840626Q88.10625 26.840626 89.41875 28.2625Q90.74687 29.66875 90.74687 32.246876Q90.74687 32.403126 90.73125 32.715626L82.99687 32.715626Q83.09062 34.41875 83.96562 35.325Q84.84062 36.23125 86.1375 36.23125Q87.10625 36.23125 87.77812 35.73125Q88.46562 35.215626 88.87187 34.10625ZM83.09062 31.2625L88.8875 31.2625Q88.77812 29.965626 88.23125 29.309376Q87.3875 28.29375 86.04375 28.29375Q84.84062 28.29375 84.0125 29.10625Q83.18437 29.903126 83.09062 31.2625ZM101.65312 37.45L97.7 27.075L99.55937 27.075L101.79375 33.29375Q102.15312 34.29375 102.45 35.371876Q102.68437 34.559376 103.10625 33.403126L105.40312 27.075L107.21562 27.075L103.29375 37.45L101.65312 37.45ZM107.05937 34.35625L108.80937 34.075Q108.95 35.121876 109.62187 35.684376Q110.29375 36.23125 111.49687 36.23125Q112.7 36.23125 113.27812 35.746876Q113.87187 35.246876 113.87187 34.590626Q113.87187 33.996876 113.35625 33.653126Q112.99687 33.41875 111.55937 33.059376Q109.62187 32.559376 108.87187 32.215626Q108.1375 31.85625 107.74687 31.23125Q107.35625 30.590626 107.35625 29.825Q107.35625 29.1375 107.66875 28.54375Q107.99687 27.95 108.54375 27.559376Q108.95 27.2625 109.65312 27.059376Q110.37187 26.840626 111.18437 26.840626Q112.40312 26.840626 113.325 27.2Q114.24687 27.54375 114.68437 28.153126Q115.12187 28.746876 115.29375 29.746876L113.575 29.98125Q113.45 29.184376 112.8875 28.746876Q112.325 28.29375 111.30937 28.29375Q110.09062 28.29375 109.575 28.7Q109.05937 29.090626 109.05937 29.621876Q109.05937 29.965626 109.27812 30.246876Q109.48125 30.528126 109.95 30.715626Q110.21562 30.809376 111.49687 31.153126Q113.37187 31.653126 114.10625 31.98125Q114.84062 32.29375 115.2625 32.903126Q115.68437 33.496876 115.68437 34.403126Q115.68437 35.278126 115.16875 36.059376Q114.65312 36.840626 113.68437 37.2625Q112.71562 37.684376 111.49687 37.684376Q109.48125 37.684376 108.41875 36.840626Q107.35625 35.996876 107.05937 34.35625ZM130.55937 37.45L130.55937 35.91875Q129.35625 37.684376 127.27812 37.684376Q126.35625 37.684376 125.55937 37.340626Q124.7625 36.98125 124.37187 36.45Q123.99687 35.91875 123.84062 35.1375Q123.73125 34.621876 123.73125 33.496876L123.73125 27.075L125.48125 27.075L125.48125 32.825Q125.48125 34.2 125.59062 34.684376Q125.7625 35.371876 126.29375 35.778126Q126.84062 36.16875 127.62187 36.16875Q128.41875 36.16875 129.10625 35.7625Q129.80937 35.35625 130.09062 34.66875Q130.3875 33.965626 130.3875 32.6375L130.3875 27.075L132.1375 27.075L132.1375 37.45L130.55937 37.45ZM133.7625 37.45L133.7625 27.075L135.35625 27.075L135.35625 28.559376Q136.49687 26.840626 138.65312 26.840626Q139.59062 26.840626 140.37187 27.184376Q141.16875 27.5125 141.55937 28.059376Q141.95 28.60625 142.10625 29.35625Q142.2 29.85625 142.2 31.075L142.2 37.45L140.43437 37.45L140.43437 31.1375Q140.43437 30.059376 140.23125 29.528126Q140.02812 28.996876 139.49687 28.684376Q138.98125 28.371876 138.27812 28.371876Q137.15312 28.371876 136.34062 29.090626Q135.52812 29.79375 135.52812 31.778126L135.52812 37.45L133.7625 37.45ZM143.77812 25.153126L143.77812 23.1375L145.54375 23.1375L145.54375 25.153126L143.77812 25.153126ZM143.77812 37.45L143.77812 27.075L145.54375 27.075L145.54375 37.45L143.77812 37.45ZM147.12187 32.2625Q147.12187 29.3875 148.71562 27.996876Q150.05937 26.840626 151.98125 26.840626Q154.12187 26.840626 155.46562 28.246876Q156.825 29.653126 156.825 32.121876Q156.825 34.121876 156.23125 35.278126Q155.6375 36.41875 154.48125 37.059376Q153.34062 37.684376 151.98125 37.684376Q149.79375 37.684376 148.45 36.29375Q147.12187 34.8875 147.12187 32.2625ZM148.91875 32.2625Q148.91875 34.2625 149.77812 35.246876Q150.65312 36.23125 151.98125 36.23125Q153.29375 36.23125 154.15312 35.246876Q155.02812 34.246876 155.02812 32.2Q155.02812 30.278126 154.15312 29.29375Q153.27812 28.29375 151.98125 28.29375Q150.65312 28.29375 149.77812 29.29375Q148.91875 30.278126 148.91875 32.2625ZM158.7625 37.45L158.7625 27.075L160.35625 27.075L160.35625 28.559376Q161.49687 26.840626 163.65312 26.840626Q164.59062 26.840626 165.37187 27.184376Q166.16875 27.5125 166.55937 28.059376Q166.95 28.60625 167.10625 29.35625Q167.2 29.85625 167.2 31.075L167.2 37.45L165.43437 37.45L165.43437 31.1375Q165.43437 30.059376 165.23125 29.528126Q165.02812 28.996876 164.49687 28.684376Q163.98125 28.371876 163.27812 28.371876Q162.15312 28.371876 161.34062 29.090626Q160.52812 29.79375 160.52812 31.778126L160.52812 37.45L158.7625 37.45ZM174.05937 34.35625L175.80937 34.075Q175.95 35.121876 176.62187 35.684376Q177.29375 36.23125 178.49687 36.23125Q179.7 36.23125 180.27812 35.746876Q180.87187 35.246876 180.87187 34.590626Q180.87187 33.996876 180.35625 33.653126Q179.99687 33.41875 178.55937 33.059376Q176.62187 32.559376 175.87187 32.215626Q175.1375 31.85625 174.74687 31.23125Q174.35625 30.590626 174.35625 29.825Q174.35625 29.1375 174.66875 28.54375Q174.99687 27.95 175.54375 27.559376Q175.95 27.2625 176.65312 27.059376Q177.37187 26.840626 178.18437 26.840626Q179.40312 26.840626 180.325 27.2Q181.24687 27.54375 181.68437 28.153126Q182.12187 28.746876 182.29375 29.746876L180.575 29.98125Q180.45 29.184376 179.8875 28.746876Q179.325 28.29375 178.30937 28.29375Q177.09062 28.29375 176.575 28.7Q176.05937 29.090626 176.05937 29.621876Q176.05937 29.965626 176.27812 30.246876Q176.48125 30.528126 176.95 30.715626Q177.21562 30.809376 178.49687 31.153126Q180.37187 31.653126 181.10625 31.98125Q181.84062 32.29375 182.2625 32.903126Q182.68437 33.496876 182.68437 34.403126Q182.68437 35.278126 182.16875 36.059376Q181.65312 36.840626 180.68437 37.2625Q179.71562 37.684376 178.49687 37.684376Q176.48125 37.684376 175.41875 36.840626Q174.35625 35.996876 174.05937 34.35625ZM184.77812 25.153126L184.77812 23.1375L186.54375 23.1375L186.54375 25.153126L184.77812 25.153126ZM184.77812 37.45L184.77812 27.075L186.54375 27.075L186.54375 37.45L184.77812 37.45ZM187.84062 37.45L187.84062 36.028126L194.45 28.45Q193.325 28.496876 192.46562 28.496876L188.23125 28.496876L188.23125 27.075L196.71562 27.075L196.71562 28.246876L191.09062 34.825L190.0125 36.028126Q191.18437 35.934376 192.23125 35.934376L197.02812 35.934376L197.02812 37.45L187.84062 37.45ZM204.87187 34.10625L206.68437 34.340626Q206.2625 35.91875 205.09062 36.809376Q203.93437 37.684376 202.12187 37.684376Q199.85625 37.684376 198.5125 36.29375Q197.18437 34.8875 197.18437 32.35625Q197.18437 29.73125 198.52812 28.29375Q199.87187 26.840626 202.02812 26.840626Q204.10625 26.840626 205.41875 28.2625Q206.74687 29.66875 206.74687 32.246876Q206.74687 32.403126 206.73125 32.715626L198.99687 32.715626Q199.09062 34.41875 199.96562 35.325Q200.84062 36.23125 202.1375 36.23125Q203.10625 36.23125 203.77812 35.73125Q204.46562 35.215626 204.87187 34.10625ZM199.09062 31.2625L204.8875 31.2625Q204.77812 29.965626 204.23125 29.309376Q203.3875 28.29375 202.04375 28.29375Q200.84062 28.29375 200.0125 29.10625Q199.18437 29.903126 199.09062 31.2625Z" fill-rule="nonzero"/></svg>