<svg version="1.1" viewBox="0.0 0.0 668.0 409.0" fill="none" stroke="none" stroke-linecap="square" stroke-miterlimit="10" width="668" height="409" xmlns:xlink="http://www.w3.org/1999/xlink" xmlns="http://www.w3.org/2000/svg"><path fill="#ffffff" d="M0 0L668.0 0L668.0 409.0L0 409.0L0 0Z" fill-rule="nonzero"/><path stroke="#333333" stroke-width="1.0" stroke-linecap="butt" d="M79.5 88.5L79.5 336.5" fill-rule="nonzero"/><path stroke="#cccccc" stroke-width="1.0" stroke-linecap="butt" d="M207.5 88.5L207.5 336.5" fill-rule="nonzero"/><path stroke="#cccccc" stroke-width="1.0" stroke-linecap="butt" d="M336.5 88.5L336.5 336.5" fill-rule="nonzero"/><path stroke="#cccccc" stroke-width="1.0" stroke-linecap="butt" d="M464.5 88.5L464.5 336.5" fill-rule="nonzero"/><path stroke="#cccccc" stroke-width="1.0" stroke-linecap="butt" d="M593.5 88.5L593.5 336.5" fill-rule="nonzero"/><path stroke="#333333" stroke-width="1.0" stroke-linecap="butt" d="M79.5 336.5L647.5 336.5" fill-rule="nonzero"/><path stroke="#cccccc" stroke-width="1.0" stroke-linecap="butt" d="M79.5 286.5L647.5 286.5" fill-rule="nonzero"/><path stroke="#cccccc" stroke-width="1.0" stroke-linecap="butt" d="M79.5 237.5L647.5 237.5" fill-rule="nonzero"/><path stroke="#cccccc" stroke-width="1.0" stroke-linecap="butt" d="M79.5 187.5L647.5 187.5" fill-rule="nonzero"/><path stroke="#cccccc" stroke-width="1.0" stroke-linecap="butt" d="M79.5 138.5L647.5 138.5" fill-rule="nonzero"/><path stroke="#cccccc" stroke-width="1.0" stroke-linecap="butt" d="M79.5 88.5L647.5 88.5" fill-rule="nonzero"/><clipPath id="id_0"><path d="M79.45 88.583336L647.55 88.583336L647.55 336.55L79.45 336.55L79.45 88.583336Z" clip-rule="nonzero"/></clipPath><path stroke="#4285f4" stroke-width="2.0" stroke-linecap="butt" clip-path="url(#id_0)" d="M79.450005 336.1136L79.450005 336.07986L79.450005 336.08383L79.450005 336.10168L79.45001 336.10764L79.45001 336.10367L79.45003 336.0997L79.45005 336.06796L79.45011 336.10764L79.45023 336.1136L79.45047 336.1116L79.45105 336.10764L79.45221 336.1136L79.45452 336.10168L79.45981 336.0997L79.47076 336.09772L79.49265 335.64542L79.53964 335.9906L79.6407 335.93304L79.84283 336.04416L80.25206 335.6593L81.16834 335.27048L83.000916 334.65952L86.66605 333.23715L94.69305 330.75156L111.07836 325.10187L143.849 312.70157L212.90797 289.70016L357.78867 245.25264L647.55 128.66467" fill-rule="nonzero"/><path fill="#000000" fill-opacity="0.0" clip-path="url(#id_0)" d="M82.450005 336.1136C82.450005 337.77045 81.10686 339.1136 79.450005 339.1136C77.79315 339.1136 76.450005 337.77045 76.450005 336.1136C76.450005 334.45673 77.79315 333.1136 79.450005 333.1136C81.10686 333.1136 82.450005 334.45673 82.450005 336.1136Z" fill-rule="nonzero"/><path fill="#000000" fill-opacity="0.0" clip-path="url(#id_0)" d="M82.450005 336.07986C82.450005 337.7367 81.10686 339.07986 79.450005 339.07986C77.79315 339.07986 76.450005 337.7367 76.450005 336.07986C76.450005 334.423 77.79315 333.07986 79.450005 333.07986C81.10686 333.07986 82.450005 334.423 82.450005 336.07986Z" fill-rule="nonzero"/><path fill="#000000" fill-opacity="0.0" clip-path="url(#id_0)" d="M82.450005 336.08383C82.450005 337.7407 81.10686 339.08383 79.450005 339.08383C77.79315 339.08383 76.450005 337.7407 76.450005 336.08383C76.450005 334.42697 77.79315 333.08383 79.450005 333.08383C81.10686 333.08383 82.450005 334.42697 82.450005 336.08383Z" fill-rule="nonzero"/><path fill="#000000" fill-opacity="0.0" clip-path="url(#id_0)" d="M82.450005 336.10168C82.450005 337.75854 81.106865 339.10168 79.450005 339.10168C77.79315 339.10168 76.450005 337.75854 76.450005 336.10168C76.450005 334.44482 77.79315 333.10168 79.450005 333.10168C81.106865 333.10168 82.450005 334.44482 82.450005 336.10168Z" fill-rule="nonzero"/><path fill="#000000" fill-opacity="0.0" clip-path="url(#id_0)" d="M82.45001 336.10764C82.45001 337.7645 81.106865 339.10764 79.45001 339.10764C77.79315 339.10764 76.45001 337.7645 76.45001 336.10764C76.45001 334.45078 77.79315 333.10764 79.45001 333.10764C81.106865 333.10764 82.45001 334.45078 82.45001 336.10764Z" fill-rule="nonzero"/><path fill="#000000" fill-opacity="0.0" clip-path="url(#id_0)" d="M82.45001 336.10367C82.45001 337.76053 81.10687 339.10367 79.45001 339.10367C77.79316 339.10367 76.45001 337.76053 76.45001 336.10367C76.45001 334.4468 77.79316 333.10367 79.45001 333.10367C81.10687 333.10367 82.45001 334.4468 82.45001 336.10367Z" fill-rule="nonzero"/><path fill="#000000" fill-opacity="0.0" clip-path="url(#id_0)" d="M82.45003 336.0997C82.45003 337.75656 81.10688 339.0997 79.45003 339.0997C77.793175 339.0997 76.45003 337.75656 76.45003 336.0997C76.45003 334.44284 77.793175 333.0997 79.45003 333.0997C81.10688 333.0997 82.45003 334.44284 82.45003 336.0997Z" fill-rule="nonzero"/><path fill="#000000" fill-opacity="0.0" clip-path="url(#id_0)" d="M82.45005 336.06796C82.45005 337.7248 81.10691 339.06796 79.45005 339.06796C77.7932 339.06796 76.45005 337.7248 76.45005 336.06796C76.45005 334.4111 77.7932 333.06796 79.45005 333.06796C81.10691 333.06796 82.45005 334.4111 82.45005 336.06796Z" fill-rule="nonzero"/><path fill="#000000" fill-opacity="0.0" clip-path="url(#id_0)" d="M82.45011 336.10764C82.45011 337.7645 81.106964 339.10764 79.45011 339.10764C77.79326 339.10764 76.45011 337.7645 76.45011 336.10764C76.45011 334.45078 77.79326 333.10764 79.45011 333.10764C81.106964 333.10764 82.45011 334.45078 82.45011 336.10764Z" fill-rule="nonzero"/><path fill="#000000" fill-opacity="0.0" clip-path="url(#id_0)" d="M82.45023 336.1136C82.45023 337.77045 81.107086 339.1136 79.45023 339.1136C77.79337 339.1136 76.45023 337.77045 76.45023 336.1136C76.45023 334.45673 77.79337 333.1136 79.45023 333.1136C81.107086 333.1136 82.45023 334.45673 82.45023 336.1136Z" fill-rule="nonzero"/><path fill="#000000" fill-opacity="0.0" clip-path="url(#id_0)" d="M82.45047 336.1116C82.45047 337.76846 81.10732 339.1116 79.45047 339.1116C77.79362 339.1116 76.45047 337.76846 76.45047 336.1116C76.45047 334.45474 77.79362 333.1116 79.45047 333.1116C81.10732 333.1116 82.45047 334.45474 82.45047 336.1116Z" fill-rule="nonzero"/><path fill="#000000" fill-opacity="0.0" clip-path="url(#id_0)" d="M82.45105 336.10764C82.45105 337.7645 81.1079 339.10764 79.45105 339.10764C77.7942 339.10764 76.45105 337.7645 76.45105 336.10764C76.45105 334.45078 77.7942 333.10764 79.45105 333.10764C81.1079 333.10764 82.45105 334.45078 82.45105 336.10764Z" fill-rule="nonzero"/><path fill="#000000" fill-opacity="0.0" clip-path="url(#id_0)" d="M82.45221 336.1136C82.45221 337.77045 81.10906 339.1136 79.45221 339.1136C77.79535 339.1136 76.45221 337.77045 76.45221 336.1136C76.45221 334.45673 77.79535 333.1136 79.45221 333.1136C81.10906 333.1136 82.45221 334.45673 82.45221 336.1136Z" fill-rule="nonzero"/><path fill="#000000" fill-opacity="0.0" clip-path="url(#id_0)" d="M82.45452 336.10168C82.45452 337.75854 81.111374 339.10168 79.45452 339.10168C77.79767 339.10168 76.45452 337.75854 76.45452 336.10168C76.45452 334.44482 77.79767 333.10168 79.45452 333.10168C81.111374 333.10168 82.45452 334.44482 82.45452 336.10168Z" fill-rule="nonzero"/><path fill="#000000" fill-opacity="0.0" clip-path="url(#id_0)" d="M82.45981 336.0997C82.45981 337.75656 81.11667 339.0997 79.45981 339.0997C77.802956 339.0997 76.45981 337.75656 76.45981 336.0997C76.45981 334.44284 77.802956 333.0997 79.45981 333.0997C81.11667 333.0997 82.45981 334.44284 82.45981 336.0997Z" fill-rule="nonzero"/><path fill="#000000" fill-opacity="0.0" clip-path="url(#id_0)" d="M82.47076 336.09772C82.47076 337.75458 81.12762 339.09772 79.47076 339.09772C77.8139 339.09772 76.47076 337.75458 76.47076 336.09772C76.47076 334.44086 77.8139 333.09772 79.47076 333.09772C81.12762 333.09772 82.47076 334.44086 82.47076 336.09772Z" fill-rule="nonzero"/><path fill="#000000" fill-opacity="0.0" clip-path="url(#id_0)" d="M82.49265 335.64542C82.49265 337.30228 81.14951 338.64542 79.49265 338.64542C77.8358 338.64542 76.49265 337.30228 76.49265 335.64542C76.49265 333.98856 77.8358 332.64542 79.49265 332.64542C81.14951 332.64542 82.49265 333.98856 82.49265 335.64542Z" fill-rule="nonzero"/><path fill="#000000" fill-opacity="0.0" clip-path="url(#id_0)" d="M82.53964 335.9906C82.53964 337.64743 81.196495 338.9906 79.53964 338.9906C77.88279 338.9906 76.53964 337.64743 76.53964 335.9906C76.53964 334.33374 77.88279 332.9906 79.53964 332.9906C81.196495 332.9906 82.53964 334.33374 82.53964 335.9906Z" fill-rule="nonzero"/><path fill="#000000" fill-opacity="0.0" clip-path="url(#id_0)" d="M82.6407 335.93304C82.6407 337.5899 81.29756 338.93304 79.6407 338.93304C77.98385 338.93304 76.6407 337.5899 76.6407 335.93304C76.6407 334.2762 77.98385 332.93304 79.6407 332.93304C81.29756 332.93304 82.6407 334.2762 82.6407 335.93304Z" fill-rule="nonzero"/><path fill="#000000" fill-opacity="0.0" clip-path="url(#id_0)" d="M82.84283 336.04416C82.84283 337.701 81.49968 339.04416 79.84283 339.04416C78.185974 339.04416 76.84283 337.701 76.84283 336.04416C76.84283 334.3873 78.185974 333.04416 79.84283 333.04416C81.49968 333.04416 82.84283 334.3873 82.84283 336.04416Z" fill-rule="nonzero"/><path fill="#000000" fill-opacity="0.0" clip-path="url(#id_0)" d="M83.25206 335.6593C83.25206 337.31616 81.90891 338.6593 80.25206 338.6593C78.59521 338.6593 77.25206 337.31616 77.25206 335.6593C77.25206 334.00244 78.59521 332.6593 80.25206 332.6593C81.90891 332.6593 83.25206 334.00244 83.25206 335.6593Z" fill-rule="nonzero"/><path fill="#000000" fill-opacity="0.0" clip-path="url(#id_0)" d="M84.16834 335.27048C84.16834 336.92734 82.8252 338.27048 81.16834 338.27048C79.51149 338.27048 78.16834 336.92734 78.16834 335.27048C78.16834 333.61365 79.51149 332.27048 81.16834 332.27048C82.8252 332.27048 84.16834 333.61365 84.16834 335.27048Z" fill-rule="nonzero"/><path fill="#000000" fill-opacity="0.0" clip-path="url(#id_0)" d="M86.000916 334.65952C86.000916 336.31635 84.65777 337.65952 83.000916 337.65952C81.34406 337.65952 80.000916 336.31635 80.000916 334.65952C80.000916 333.00266 81.34406 331.65952 83.000916 331.65952C84.65777 331.65952 86.000916 333.00266 86.000916 334.65952Z" fill-rule="nonzero"/><path fill="#000000" fill-opacity="0.0" clip-path="url(#id_0)" d="M89.66605 333.23715C89.66605 334.894 88.32291 336.23715 86.66605 336.23715C85.00919 336.23715 83.66605 334.894 83.66605 333.23715C83.66605 331.58032 85.00919 330.23715 86.66605 330.23715C88.32291 330.23715 89.66605 331.58032 89.66605 333.23715Z" fill-rule="nonzero"/><path fill="#000000" fill-opacity="0.0" clip-path="url(#id_0)" d="M97.69305 330.75156C97.69305 332.40842 96.34991 333.75156 94.69305 333.75156C93.036194 333.75156 91.69305 332.40842 91.69305 330.75156C91.69305 329.0947 93.036194 327.75156 94.69305 327.75156C96.34991 327.75156 97.69305 329.0947 97.69305 330.75156Z" fill-rule="nonzero"/><path fill="#000000" fill-opacity="0.0" clip-path="url(#id_0)" d="M114.07836 325.10187C114.07836 326.75873 112.735214 328.10187 111.07836 328.10187C109.42151 328.10187 108.07836 326.75873 108.07836 325.10187C108.07836 323.445 109.42151 322.10187 111.07836 322.10187C112.735214 322.10187 114.07836 323.445 114.07836 325.10187Z" fill-rule="nonzero"/><path fill="#000000" fill-opacity="0.0" clip-path="url(#id_0)" d="M146.849 312.70157C146.849 314.3584 145.50584 315.70157 143.849 315.70157C142.19214 315.70157 140.849 314.3584 140.849 312.70157C140.849 311.0447 142.19214 309.70157 143.849 309.70157C145.50584 309.70157 146.849 311.0447 146.849 312.70157Z" fill-rule="nonzero"/><path fill="#000000" fill-opacity="0.0" clip-path="url(#id_0)" d="M215.90797 289.70016C215.90797 291.35703 214.56483 292.70016 212.90797 292.70016C211.25113 292.70016 209.90797 291.35703 209.90797 289.70016C209.90797 288.0433 211.25113 286.70016 212.90797 286.70016C214.56483 286.70016 215.90797 288.0433 215.90797 289.70016Z" fill-rule="nonzero"/><path fill="#000000" fill-opacity="0.0" clip-path="url(#id_0)" d="M360.78867 245.25264C360.78867 246.9095 359.4455 248.25264 357.78867 248.25264C356.1318 248.25264 354.78867 246.9095 354.78867 245.25264C354.78867 243.59578 356.1318 242.25264 357.78867 242.25264C359.4455 242.25264 360.78867 243.59578 360.78867 245.25264Z" fill-rule="nonzero"/><path fill="#000000" fill-opacity="0.0" clip-path="url(#id_0)" d="M650.55 128.66467C650.55 130.32152 649.20685 131.66467 647.55 131.66467C645.8931 131.66467 644.55 130.32152 644.55 128.66467C644.55 127.00781 645.8931 125.664665 647.55 125.664665C649.20685 125.664665 650.55 127.00781 650.55 128.66467Z" fill-rule="nonzero"/><path fill="#000000" d="M327.48438 385.55L327.48438 376.95624L333.28125 376.95624L333.28125 377.97186L328.625 377.97186L328.625 380.6281L332.65625 380.6281L332.65625 381.64374L328.625 381.64374L328.625 385.55L327.48438 385.55ZM334.29688 378.175L334.29688 376.95624L335.35938 376.95624L335.35938 378.175L334.29688 378.175ZM334.29688 385.55L334.29688 379.33124L335.35938 379.33124L335.35938 385.55L334.29688 385.55ZM337.26562 385.55L337.26562 376.95624L338.32812 376.95624L338.32812 385.55L337.26562 385.55ZM344.54688 383.55L345.64062 383.675Q345.39062 384.6281 344.6875 385.15936Q343.98438 385.6906 342.90625 385.6906Q341.54688 385.6906 340.73438 384.84686Q339.9375 384.0031 339.9375 382.4875Q339.9375 380.925 340.75 380.0656Q341.5625 379.1906 342.84375 379.1906Q344.09375 379.1906 344.875 380.03436Q345.67188 380.8781 345.67188 382.425Q345.67188 382.51874 345.67188 382.70624L341.03125 382.70624Q341.09375 383.7375 341.60938 384.28436Q342.125 384.8156 342.90625 384.8156Q343.48438 384.8156 343.89062 384.51874Q344.3125 384.20624 344.54688 383.55ZM341.09375 381.84686L344.5625 381.84686Q344.5 381.05 344.17188 380.65936Q343.65625 380.05 342.85938 380.05Q342.125 380.05 341.625 380.53436Q341.14062 381.01874 341.09375 381.84686ZM350.04688 382.78436L351.10938 382.6906Q351.1875 383.34686 351.46875 383.7531Q351.75 384.15936 352.32812 384.425Q352.92188 384.675 353.65625 384.675Q354.29688 384.675 354.79688 384.4875Q355.29688 384.28436 355.53125 383.95624Q355.78125 383.6125 355.78125 383.22186Q355.78125 382.8156 355.54688 382.51874Q355.3125 382.20624 354.78125 382.0031Q354.42188 381.8625 353.23438 381.58124Q352.0625 381.3 351.59375 381.05Q350.96875 380.72186 350.67188 380.2531Q350.375 379.76874 350.375 379.175Q350.375 378.53436 350.73438 377.97186Q351.10938 377.39374 351.8125 377.1125Q352.53125 376.8156 353.39062 376.8156Q354.34375 376.8156 355.07812 377.1281Q355.8125 377.425 356.20312 378.03436Q356.59375 378.6281 356.625 379.3781L355.53125 379.45624Q355.4375 378.64374 354.92188 378.2375Q354.42188 377.8156 353.4375 377.8156Q352.40625 377.8156 351.9375 378.1906Q351.46875 378.5656 351.46875 379.09686Q351.46875 379.5656 351.79688 379.8625Q352.125 380.15936 353.5 380.47186Q354.89062 380.78436 355.40625 381.01874Q356.15625 381.3781 356.51562 381.90936Q356.875 382.425 356.875 383.1281Q356.875 383.8156 356.48438 384.425Q356.09375 385.01874 355.35938 385.3625Q354.625 385.6906 353.70312 385.6906Q352.53125 385.6906 351.73438 385.3625Q350.95312 385.01874 350.5 384.33124Q350.0625 383.64374 350.04688 382.78436ZM358.29688 378.175L358.29688 376.95624L359.35938 376.95624L359.35938 378.175L358.29688 378.175ZM358.29688 385.55L358.29688 379.33124L359.35938 379.33124L359.35938 385.55L358.29688 385.55ZM360.73438 385.55L360.73438 384.6906L364.70312 380.14374Q364.01562 380.175 363.5 380.175L360.96875 380.175L360.96875 379.33124L366.0625 379.33124L366.0625 380.01874L362.6875 383.97186L362.03125 384.6906Q362.75 384.64374 363.35938 384.64374L366.25 384.64374L366.25 385.55L360.73438 385.55ZM370.54688 383.55L371.64062 383.675Q371.39062 384.6281 370.6875 385.15936Q369.98438 385.6906 368.90625 385.6906Q367.54688 385.6906 366.73438 384.84686Q365.9375 384.0031 365.9375 382.4875Q365.9375 380.925 366.75 380.0656Q367.5625 379.1906 368.84375 379.1906Q370.09375 379.1906 370.875 380.03436Q371.67188 380.8781 371.67188 382.425Q371.67188 382.51874 371.67188 382.70624L367.03125 382.70624Q367.09375 383.7375 367.60938 384.28436Q368.125 384.8156 368.90625 384.8156Q369.48438 384.8156 369.89062 384.51874Q370.3125 384.20624 370.54688 383.55ZM367.09375 381.84686L370.5625 381.84686Q370.5 381.05 370.17188 380.65936Q369.65625 380.05 368.85938 380.05Q368.125 380.05 367.625 380.53436Q367.14062 381.01874 367.09375 381.84686ZM378.3125 388.08124Q377.4375 386.97186 376.82812 385.5031Q376.23438 384.01874 376.23438 382.4406Q376.23438 381.05 376.67188 379.76874Q377.20312 378.28436 378.3125 376.8156L379.0625 376.8156Q378.35938 378.03436 378.125 378.55Q377.76562 379.3625 377.5625 380.2375Q377.3125 381.33124 377.3125 382.4406Q377.3125 385.26874 379.0625 388.08124L378.3125 388.08124ZM380.39062 385.55L380.39062 376.95624L382.10938 376.95624L384.14062 383.03436Q384.42188 383.89374 384.54688 384.3156Q384.6875 383.84686 385.0 382.9406L387.0625 376.95624L388.59375 376.95624L388.59375 385.55L387.5 385.55L387.5 378.3625L385.0 385.55L383.96875 385.55L381.48438 378.2375L381.48438 385.55L380.39062 385.55ZM389.375 385.55L389.375 376.95624L392.60938 376.95624Q393.59375 376.95624 394.1875 377.22186Q394.78125 377.4875 395.10938 378.03436Q395.45312 378.5656 395.45312 379.15936Q395.45312 379.70624 395.15625 380.1906Q394.85938 380.675 394.25 380.97186Q395.03125 381.20624 395.4375 381.76874Q395.85938 382.3156 395.85938 383.0656Q395.85938 383.65936 395.60938 384.1906Q395.35938 384.70624 394.98438 384.9875Q394.60938 385.26874 394.03125 385.40936Q393.46875 385.55 392.65625 385.55L389.375 385.55ZM390.51562 380.5656L392.375 380.5656Q393.125 380.5656 393.45312 380.47186Q393.89062 380.34686 394.10938 380.05Q394.32812 379.7375 394.32812 379.28436Q394.32812 378.8625 394.125 378.53436Q393.92188 378.20624 393.53125 378.09686Q393.15625 377.97186 392.23438 377.97186L390.51562 377.97186L390.51562 380.5656ZM390.51562 384.53436L392.65625 384.53436Q393.20312 384.53436 393.42188 384.4875Q393.82812 384.425 394.07812 384.26874Q394.34375 384.09686 394.51562 383.78436Q394.6875 383.47186 394.6875 383.0656Q394.6875 382.58124 394.4375 382.22186Q394.20312 381.8625 393.76562 381.72186Q393.32812 381.58124 392.5 381.58124L390.51562 381.58124L390.51562 384.53436ZM397.98438 388.08124L397.23438 388.08124Q398.98438 385.26874 398.98438 382.4406Q398.98438 381.34686 398.73438 380.2531Q398.53125 379.3781 398.17188 378.5656Q397.9375 378.05 397.23438 376.8156L397.98438 376.8156Q399.07812 378.28436 399.60938 379.76874Q400.0625 381.05 400.0625 382.4406Q400.0625 384.01874 399.45312 385.5031Q398.84375 386.97186 397.98438 388.08124Z" fill-rule="nonzero"/><path fill="#000000" d="M31.449987 238.95729L23.871862 238.95729L23.871862 241.78542L22.856237 241.78542L22.856237 234.97292L23.871862 234.97292L23.871862 237.81667L31.449987 237.81667L31.449987 238.95729ZM24.074987 234.26979L22.856237 234.26979L22.856237 233.20729L24.074987 233.20729L24.074987 234.26979ZM31.449987 234.26979L25.231237 234.26979L25.231237 233.20729L31.449987 233.20729L31.449987 234.26979ZM31.449987 231.26979L25.231237 231.26979L25.231237 230.33229L26.106237 230.33229Q25.637487 230.03542 25.371862 229.55104Q25.090612 229.06667 25.090612 228.44167Q25.090612 227.75417 25.371862 227.31667Q25.653112 226.86354 26.168737 226.69167Q25.090612 225.94167 25.090612 224.76979Q25.090612 223.83229 25.606237 223.34792Q26.106237 222.84792 27.184362 222.84792L31.449987 222.84792L31.449987 223.89479L27.528112 223.89479Q26.903112 223.89479 26.621862 224.00417Q26.340612 224.09792 26.168737 224.36354Q25.996862 224.62917 25.996862 225.00417Q25.996862 225.66042 26.434362 226.09792Q26.871862 226.51979 27.840612 226.51979L31.449987 226.51979L31.449987 227.58229L27.403112 227.58229Q26.699987 227.58229 26.356237 227.84792Q25.996862 228.09792 25.996862 228.67604Q25.996862 229.12917 26.231237 229.50417Q26.465612 229.87917 26.918737 230.05104Q27.371862 230.22292 28.215612 230.22292L31.449987 230.22292L31.449987 231.26979ZM29.449987 216.01979L29.574987 214.92604Q30.528112 215.17604 31.059362 215.87917Q31.590612 216.58229 31.590612 217.66042Q31.590612 219.01979 30.746862 219.83229Q29.903112 220.62917 28.387487 220.62917Q26.824987 220.62917 25.965612 219.81667Q25.090612 219.00417 25.090612 217.72292Q25.090612 216.47292 25.934362 215.69167Q26.778112 214.89479 28.324987 214.89479Q28.418737 214.89479 28.606237 214.89479L28.606237 219.53542Q29.637487 219.47292 30.184362 218.95729Q30.715612 218.44167 30.715612 217.66042Q30.715612 217.08229 30.418737 216.67604Q30.106237 216.25417 29.449987 216.01979ZM27.746862 219.47292L27.746862 216.00417Q26.949987 216.06667 26.559362 216.39479Q25.949987 216.91042 25.949987 217.70729Q25.949987 218.44167 26.434362 218.94167Q26.918737 219.42604 27.746862 219.47292ZM33.98124 208.25417Q32.871864 209.12917 31.403112 209.73854Q29.918737 210.33229 28.340612 210.33229Q26.949987 210.33229 25.668737 209.89479Q24.184362 209.36354 22.715612 208.25417L22.715612 207.50417Q23.934362 208.20729 24.449987 208.44167Q25.262487 208.80104 26.137487 209.00417Q27.231237 209.25417 28.340612 209.25417Q31.168737 209.25417 33.98124 207.50417L33.98124 208.25417ZM29.590612 206.69167L29.434362 205.66042Q30.059362 205.56667 30.387487 205.17604Q30.715612 204.76979 30.715612 204.03542Q30.715612 203.31667 30.434362 202.97292Q30.137487 202.61354 29.731237 202.61354Q29.371862 202.61354 29.168737 202.92604Q29.028112 203.14479 28.809362 204.00417Q28.512487 205.16042 28.309362 205.61354Q28.090612 206.05104 27.715612 206.28542Q27.340612 206.51979 26.871862 206.51979Q26.465612 206.51979 26.106237 206.33229Q25.746862 206.14479 25.512487 205.81667Q25.340612 205.56667 25.215612 205.14479Q25.090612 204.72292 25.090612 204.22292Q25.090612 203.50417 25.309362 202.95729Q25.512487 202.39479 25.871862 202.12917Q26.231237 201.86354 26.824987 201.76979L26.965612 202.80104Q26.496862 202.86354 26.231237 203.20729Q25.949987 203.53542 25.949987 204.16042Q25.949987 204.87917 26.199987 205.19167Q26.434362 205.50417 26.762487 205.50417Q26.965612 205.50417 27.121862 205.37917Q27.293737 205.23854 27.403112 204.97292Q27.465612 204.81667 27.668737 204.03542Q27.981237 202.91042 28.168737 202.47292Q28.356237 202.03542 28.715612 201.78542Q29.074987 201.53542 29.621862 201.53542Q30.153112 201.53542 30.621862 201.84792Q31.074987 202.14479 31.340612 202.72292Q31.590612 203.30104 31.590612 204.03542Q31.590612 205.25417 31.090612 205.89479Q30.574987 206.51979 29.590612 206.69167ZM33.98124 198.58229L33.98124 199.33229Q31.168737 197.58229 28.340612 197.58229Q27.246862 197.58229 26.153112 197.83229Q25.278112 198.03542 24.465612 198.39479Q23.949987 198.62917 22.715612 199.33229L22.715612 198.58229Q24.184362 197.48854 25.668737 196.95729Q26.949987 196.50417 28.340612 196.50417Q29.918737 196.50417 31.403112 197.11354Q32.871864 197.72292 33.98124 198.58229Z" fill-rule="nonzero"/><path fill="#000000" d="M66.95 336.3156Q66.95 334.78436 67.2625 333.8625Q67.575 332.925 68.18437 332.425Q68.80937 331.925 69.74687 331.925Q70.43437 331.925 70.95 332.20624Q71.48125 332.4875 71.825 333.01874Q72.16875 333.53436 72.35625 334.28436Q72.54375 335.03436 72.54375 336.3156Q72.54375 337.83124 72.23125 338.7531Q71.93437 339.675 71.30937 340.1906Q70.7 340.6906 69.74687 340.6906Q68.5125 340.6906 67.79375 339.8Q66.95 338.7375 66.95 336.3156ZM68.02812 336.3156Q68.02812 338.425 68.52812 339.1281Q69.02812 339.83124 69.74687 339.83124Q70.48125 339.83124 70.96562 339.1281Q71.46562 338.425 71.46562 336.3156Q71.46562 334.1906 70.96562 333.5031Q70.48125 332.8 69.73125 332.8Q69.0125 332.8 68.575 333.40936Q68.02812 334.1906 68.02812 336.3156Z" fill-rule="nonzero"/><path fill="#000000" d="M65.49687 289.94104L65.49687 290.95667L59.809376 290.95667Q59.809376 290.58167 59.934376 290.2223Q60.153126 289.64417 60.621876 289.08167Q61.10625 288.51917 62.0125 287.7848Q63.41875 286.62854 63.903126 285.95667Q64.40312 285.2848 64.40312 284.69104Q64.40312 284.06604 63.95 283.64417Q63.496876 283.20667 62.778126 283.20667Q62.0125 283.20667 61.559376 283.6598Q61.10625 284.1129 61.090626 284.9254L60.0125 284.81604Q60.121876 283.5973 60.840626 282.9723Q61.575 282.33167 62.809376 282.33167Q64.04375 282.33167 64.7625 283.01917Q65.48125 283.70667 65.48125 284.7223Q65.48125 285.2379 65.2625 285.7379Q65.05937 286.2223 64.55937 286.7848Q64.075 287.33167 62.95 288.2848Q61.996876 289.08167 61.715626 289.37854Q61.45 289.6598 61.278126 289.94104L65.49687 289.94104ZM66.95 288.70667L68.05937 288.6129Q68.18437 289.4254 68.62187 289.83167Q69.075 290.2379 69.71562 290.2379Q70.46562 290.2379 70.99687 289.6598Q71.52812 289.08167 71.52812 288.14417Q71.52812 287.2379 71.0125 286.7223Q70.5125 286.19104 69.68437 286.19104Q69.18437 286.19104 68.7625 286.4254Q68.35625 286.6598 68.12187 287.01917L67.1375 286.89417L67.96562 282.4879L72.24687 282.4879L72.24687 283.4879L68.80937 283.4879L68.35625 285.8004Q69.12187 285.25354 69.96562 285.25354Q71.09062 285.25354 71.85625 286.0348Q72.6375 286.81604 72.6375 288.0504Q72.6375 289.20667 71.96562 290.06604Q71.1375 291.0973 69.71562 291.0973Q68.54375 291.0973 67.79375 290.44104Q67.05937 289.7848 66.95 288.70667Z" fill-rule="nonzero"/><path fill="#000000" d="M59.95 239.11333L61.059376 239.01958Q61.184376 239.83208 61.621876 240.23833Q62.075 240.64458 62.715626 240.64458Q63.465626 240.64458 63.996876 240.06645Q64.52812 239.48833 64.52812 238.55083Q64.52812 237.64458 64.0125 237.12895Q63.5125 236.5977 62.684376 236.5977Q62.184376 236.5977 61.7625 236.83208Q61.35625 237.06645 61.121876 237.42583L60.1375 237.30083L60.965626 232.89458L65.24687 232.89458L65.24687 233.89458L61.809376 233.89458L61.35625 236.20708Q62.121876 235.6602 62.965626 235.6602Q64.09062 235.6602 64.85625 236.44145Q65.6375 237.2227 65.6375 238.45708Q65.6375 239.61333 64.96562 240.4727Q64.1375 241.50395 62.715626 241.50395Q61.54375 241.50395 60.79375 240.8477Q60.059376 240.19145 59.95 239.11333ZM66.95 237.12895Q66.95 235.5977 67.2625 234.67583Q67.575 233.73833 68.18437 233.23833Q68.80937 232.73833 69.74687 232.73833Q70.43437 232.73833 70.95 233.01958Q71.48125 233.30083 71.825 233.83208Q72.16875 234.3477 72.35625 235.0977Q72.54375 235.8477 72.54375 237.12895Q72.54375 238.64458 72.23125 239.56645Q71.93437 240.48833 71.30937 241.00395Q70.7 241.50395 69.74687 241.50395Q68.5125 241.50395 67.79375 240.61333Q66.95 239.55083 66.95 237.12895ZM68.02812 237.12895Q68.02812 239.23833 68.52812 239.94145Q69.02812 240.64458 69.74687 240.64458Q70.48125 240.64458 70.96562 239.94145Q71.46562 239.23833 71.46562 237.12895Q71.46562 235.00395 70.96562 234.31645Q70.48125 233.61333 69.73125 233.61333Q69.0125 233.61333 68.575 234.2227Q68.02812 235.00395 68.02812 237.12895Z" fill-rule="nonzero"/><path fill="#000000" d="M60.0125 184.30125L60.0125 183.28563L65.575 183.28563L65.575 184.11375Q64.7625 184.98875 63.95 186.44188Q63.153126 187.87938 62.715626 189.41063Q62.3875 190.48875 62.309376 191.77L61.215626 191.77Q61.23125 190.75438 61.60625 189.31688Q61.996876 187.87938 62.7 186.55125Q63.41875 185.22313 64.23125 184.30125L60.0125 184.30125ZM66.95 189.52L68.05937 189.42625Q68.18437 190.23875 68.62187 190.645Q69.075 191.05125 69.71562 191.05125Q70.46562 191.05125 70.99687 190.47313Q71.52812 189.895 71.52812 188.9575Q71.52812 188.05125 71.0125 187.53563Q70.5125 187.00438 69.68437 187.00438Q69.18437 187.00438 68.7625 187.23875Q68.35625 187.47313 68.12187 187.8325L67.1375 187.7075L67.96562 183.30125L72.24687 183.30125L72.24687 184.30125L68.80937 184.30125L68.35625 186.61375Q69.12187 186.06688 69.96562 186.06688Q71.09062 186.06688 71.85625 186.84813Q72.6375 187.62938 72.6375 188.86375Q72.6375 190.02 71.96562 190.87938Q71.1375 191.91063 69.71562 191.91063Q68.54375 191.91063 67.79375 191.25438Q67.05937 190.59813 66.95 189.52Z" fill-rule="nonzero"/><path fill="#000000" d="M56.91875 142.17667L55.871876 142.17667L55.871876 135.45792Q55.48125 135.81729 54.85625 136.19229Q54.246876 136.55167 53.7625 136.72354L53.7625 135.70792Q54.6375 135.28604 55.29375 134.70792Q55.965626 134.11417 56.246876 133.55167L56.91875 133.55167L56.91875 142.17667ZM59.95 137.94229Q59.95 136.41104 60.2625 135.48917Q60.575 134.55167 61.184376 134.05167Q61.809376 133.55167 62.746876 133.55167Q63.434376 133.55167 63.95 133.83292Q64.48125 134.11417 64.825 134.64542Q65.16875 135.16104 65.35625 135.91104Q65.54375 136.66104 65.54375 137.94229Q65.54375 139.45792 65.23125 140.37979Q64.93437 141.30167 64.30937 141.81729Q63.7 142.31729 62.746876 142.31729Q61.5125 142.31729 60.79375 141.42667Q59.95 140.36417 59.95 137.94229ZM61.028126 137.94229Q61.028126 140.05167 61.528126 140.75479Q62.028126 141.45792 62.746876 141.45792Q63.48125 141.45792 63.965626 140.75479Q64.46562 140.05167 64.46562 137.94229Q64.46562 135.81729 63.965626 135.12979Q63.48125 134.42667 62.73125 134.42667Q62.0125 134.42667 61.575 135.03604Q61.028126 135.81729 61.028126 137.94229ZM66.95 137.94229Q66.95 136.41104 67.2625 135.48917Q67.575 134.55167 68.18437 134.05167Q68.80937 133.55167 69.74687 133.55167Q70.43437 133.55167 70.95 133.83292Q71.48125 134.11417 71.825 134.64542Q72.16875 135.16104 72.35625 135.91104Q72.54375 136.66104 72.54375 137.94229Q72.54375 139.45792 72.23125 140.37979Q71.93437 141.30167 71.30937 141.81729Q70.7 142.31729 69.74687 142.31729Q68.5125 142.31729 67.79375 141.42667Q66.95 140.36417 66.95 137.94229ZM68.02812 137.94229Q68.02812 140.05167 68.52812 140.75479Q69.02812 141.45792 69.74687 141.45792Q70.48125 141.45792 70.96562 140.75479Q71.46562 140.05167 71.46562 137.94229Q71.46562 135.81729 70.96562 135.12979Q70.48125 134.42667 69.73125 134.42667Q69.0125 134.42667 68.575 135.03604Q68.02812 135.81729 68.02812 137.94229Z" fill-rule="nonzero"/><path fill="#000000" d="M56.91875 92.583336L55.871876 92.583336L55.871876 85.864586Q55.48125 86.22396 54.85625 86.59896Q54.246876 86.958336 53.7625 87.13021L53.7625 86.114586Q54.6375 85.69271 55.29375 85.114586Q55.965626 84.520836 56.246876 83.958336L56.91875 83.958336L56.91875 92.583336ZM65.49687 91.56771L65.49687 92.583336L59.809376 92.583336Q59.809376 92.208336 59.934376 91.84896Q60.153126 91.270836 60.621876 90.708336Q61.10625 90.145836 62.0125 89.41146Q63.41875 88.25521 63.903126 87.583336Q64.40312 86.91146 64.40312 86.31771Q64.40312 85.69271 63.95 85.270836Q63.496876 84.833336 62.778126 84.833336Q62.0125 84.833336 61.559376 85.28646Q61.10625 85.739586 61.090626 86.552086L60.0125 86.44271Q60.121876 85.22396 60.840626 84.59896Q61.575 83.958336 62.809376 83.958336Q64.04375 83.958336 64.7625 84.645836Q65.48125 85.333336 65.48125 86.34896Q65.48125 86.864586 65.2625 87.364586Q65.05937 87.84896 64.55937 88.41146Q64.075 88.958336 62.95 89.91146Q61.996876 90.708336 61.715626 91.00521Q61.45 91.28646 61.278126 91.56771L65.49687 91.56771ZM66.95 90.333336L68.05937 90.239586Q68.18437 91.052086 68.62187 91.458336Q69.075 91.864586 69.71562 91.864586Q70.46562 91.864586 70.99687 91.28646Q71.52812 90.708336 71.52812 89.770836Q71.52812 88.864586 71.0125 88.34896Q70.5125 87.81771 69.68437 87.81771Q69.18437 87.81771 68.7625 88.052086Q68.35625 88.28646 68.12187 88.645836L67.1375 88.520836L67.96562 84.114586L72.24687 84.114586L72.24687 85.114586L68.80937 85.114586L68.35625 87.427086Q69.12187 86.88021 69.96562 86.88021Q71.09062 86.88021 71.85625 87.66146Q72.6375 88.44271 72.6375 89.677086Q72.6375 90.833336 71.96562 91.69271Q71.1375 92.72396 69.71562 92.72396Q68.54375 92.72396 67.79375 92.06771Q67.05937 91.41146 66.95 90.333336Z" fill-rule="nonzero"/><path fill="#000000" d="M76.45 349.3156Q76.45 347.78436 76.7625 346.8625Q77.075 345.925 77.68437 345.425Q78.30937 344.925 79.24687 344.925Q79.93437 344.925 80.45 345.20624Q80.98125 345.4875 81.325 346.01874Q81.66875 346.53436 81.85625 347.28436Q82.04375 348.03436 82.04375 349.3156Q82.04375 350.83124 81.73125 351.7531Q81.43437 352.675 80.80937 353.1906Q80.2 353.6906 79.24687 353.6906Q78.0125 353.6906 77.29375 352.8Q76.45 351.7375 76.45 349.3156ZM77.52812 349.3156Q77.52812 351.425 78.02812 352.1281Q78.52812 352.83124 79.24687 352.83124Q79.98125 352.83124 80.46562 352.1281Q80.96562 351.425 80.96562 349.3156Q80.96562 347.1906 80.46562 346.5031Q79.98125 345.8 79.23125 345.8Q78.5125 345.8 78.075 346.40936Q77.52812 347.1906 77.52812 349.3156Z" fill-rule="nonzero"/><path fill="#000000" d="M200.00224 352.53436L200.00224 353.55L194.31474 353.55Q194.31474 353.175 194.43974 352.8156Q194.6585 352.2375 195.12724 351.675Q195.61162 351.1125 196.51787 350.3781Q197.92412 349.22186 198.4085 348.55Q198.9085 347.8781 198.9085 347.28436Q198.9085 346.65936 198.45537 346.2375Q198.00224 345.8 197.2835 345.8Q196.51787 345.8 196.06474 346.2531Q195.61162 346.70624 195.596 347.51874L194.51787 347.40936Q194.62724 346.1906 195.346 345.5656Q196.08037 344.925 197.31474 344.925Q198.54912 344.925 199.26787 345.6125Q199.98662 346.3 199.98662 347.3156Q199.98662 347.83124 199.76787 348.33124Q199.56474 348.8156 199.06474 349.3781Q198.58037 349.925 197.45537 350.8781Q196.50224 351.675 196.221 351.97186Q195.95537 352.2531 195.7835 352.53436L200.00224 352.53436ZM201.45537 351.3L202.56474 351.20624Q202.68974 352.01874 203.12724 352.425Q203.58037 352.83124 204.221 352.83124Q204.971 352.83124 205.50224 352.2531Q206.0335 351.675 206.0335 350.7375Q206.0335 349.83124 205.51787 349.3156Q205.01787 348.78436 204.18974 348.78436Q203.68974 348.78436 203.26787 349.01874Q202.86162 349.2531 202.62724 349.6125L201.64287 349.4875L202.471 345.08124L206.75224 345.08124L206.75224 346.08124L203.31474 346.08124L202.86162 348.39374Q203.62724 347.84686 204.471 347.84686Q205.596 347.84686 206.36162 348.6281Q207.14287 349.40936 207.14287 350.64374Q207.14287 351.8 206.471 352.65936Q205.64287 353.6906 204.221 353.6906Q203.04912 353.6906 202.29912 353.03436Q201.56474 352.3781 201.45537 351.3ZM208.45537 349.3156Q208.45537 347.78436 208.76787 346.8625Q209.08037 345.925 209.68974 345.425Q210.31474 344.925 211.25224 344.925Q211.93974 344.925 212.45537 345.20624Q212.98662 345.4875 213.33037 346.01874Q213.67412 346.53436 213.86162 347.28436Q214.04912 348.03436 214.04912 349.3156Q214.04912 350.83124 213.73662 351.7531Q213.43974 352.675 212.81474 353.1906Q212.20537 353.6906 211.25224 353.6906Q210.01787 353.6906 209.29912 352.8Q208.45537 351.7375 208.45537 349.3156ZM209.5335 349.3156Q209.5335 351.425 210.0335 352.1281Q210.5335 352.83124 211.25224 352.83124Q211.98662 352.83124 212.471 352.1281Q212.971 351.425 212.971 349.3156Q212.971 347.1906 212.471 346.5031Q211.98662 345.8 211.23662 345.8Q210.51787 345.8 210.08037 346.40936Q209.5335 347.1906 209.5335 349.3156ZM215.45537 349.3156Q215.45537 347.78436 215.76787 346.8625Q216.08037 345.925 216.68974 345.425Q217.31474 344.925 218.25224 344.925Q218.93974 344.925 219.45537 345.20624Q219.98662 345.4875 220.33037 346.01874Q220.67412 346.53436 220.86162 347.28436Q221.04912 348.03436 221.04912 349.3156Q221.04912 350.83124 220.73662 351.7531Q220.43974 352.675 219.81474 353.1906Q219.20537 353.6906 218.25224 353.6906Q217.01787 353.6906 216.29912 352.8Q215.45537 351.7375 215.45537 349.3156ZM216.5335 349.3156Q216.5335 351.425 217.0335 352.1281Q217.5335 352.83124 218.25224 352.83124Q218.98662 352.83124 219.471 352.1281Q219.971 351.425 219.971 349.3156Q219.971 347.1906 219.471 346.5031Q218.98662 345.8 218.23662 345.8Q217.51787 345.8 217.08037 346.40936Q216.5335 347.1906 216.5335 349.3156Z" fill-rule="nonzero"/><path fill="#000000" d="M322.96075 351.3L324.07013 351.20624Q324.19513 352.01874 324.63263 352.425Q325.08575 352.83124 325.72638 352.83124Q326.47638 352.83124 327.00763 352.2531Q327.53888 351.675 327.53888 350.7375Q327.53888 349.83124 327.02325 349.3156Q326.52325 348.78436 325.69513 348.78436Q325.19513 348.78436 324.77325 349.01874Q324.367 349.2531 324.13263 349.6125L323.14825 349.4875L323.97638 345.08124L328.25763 345.08124L328.25763 346.08124L324.82013 346.08124L324.367 348.39374Q325.13263 347.84686 325.97638 347.84686Q327.10138 347.84686 327.867 348.6281Q328.64825 349.40936 328.64825 350.64374Q328.64825 351.8 327.97638 352.65936Q327.14825 353.6906 325.72638 353.6906Q324.5545 353.6906 323.8045 353.03436Q323.07013 352.3781 322.96075 351.3ZM329.96075 349.3156Q329.96075 347.78436 330.27325 346.8625Q330.58575 345.925 331.19513 345.425Q331.82013 344.925 332.75763 344.925Q333.44513 344.925 333.96075 345.20624Q334.492 345.4875 334.83575 346.01874Q335.1795 346.53436 335.367 347.28436Q335.5545 348.03436 335.5545 349.3156Q335.5545 350.83124 335.242 351.7531Q334.94513 352.675 334.32013 353.1906Q333.71075 353.6906 332.75763 353.6906Q331.52325 353.6906 330.8045 352.8Q329.96075 351.7375 329.96075 349.3156ZM331.03888 349.3156Q331.03888 351.425 331.53888 352.1281Q332.03888 352.83124 332.75763 352.83124Q333.492 352.83124 333.97638 352.1281Q334.47638 351.425 334.47638 349.3156Q334.47638 347.1906 333.97638 346.5031Q333.492 345.8 332.742 345.8Q332.02325 345.8 331.58575 346.40936Q331.03888 347.1906 331.03888 349.3156ZM336.96075 349.3156Q336.96075 347.78436 337.27325 346.8625Q337.58575 345.925 338.19513 345.425Q338.82013 344.925 339.75763 344.925Q340.44513 344.925 340.96075 345.20624Q341.492 345.4875 341.83575 346.01874Q342.1795 346.53436 342.367 347.28436Q342.5545 348.03436 342.5545 349.3156Q342.5545 350.83124 342.242 351.7531Q341.94513 352.675 341.32013 353.1906Q340.71075 353.6906 339.75763 353.6906Q338.52325 353.6906 337.8045 352.8Q336.96075 351.7375 336.96075 349.3156ZM338.03888 349.3156Q338.03888 351.425 338.53888 352.1281Q339.03888 352.83124 339.75763 352.83124Q340.492 352.83124 340.97638 352.1281Q341.47638 351.425 341.47638 349.3156Q341.47638 347.1906 340.97638 346.5031Q340.492 345.8 339.742 345.8Q339.02325 345.8 338.58575 346.40936Q338.03888 347.1906 338.03888 349.3156ZM343.96075 349.3156Q343.96075 347.78436 344.27325 346.8625Q344.58575 345.925 345.19513 345.425Q345.82013 344.925 346.75763 344.925Q347.44513 344.925 347.96075 345.20624Q348.492 345.4875 348.83575 346.01874Q349.1795 346.53436 349.367 347.28436Q349.5545 348.03436 349.5545 349.3156Q349.5545 350.83124 349.242 351.7531Q348.94513 352.675 348.32013 353.1906Q347.71075 353.6906 346.75763 353.6906Q345.52325 353.6906 344.8045 352.8Q343.96075 351.7375 343.96075 349.3156ZM345.03888 349.3156Q345.03888 351.425 345.53888 352.1281Q346.03888 352.83124 346.75763 352.83124Q347.492 352.83124 347.97638 352.1281Q348.47638 351.425 348.47638 349.3156Q348.47638 347.1906 347.97638 346.5031Q347.492 345.8 346.742 345.8Q346.02325 345.8 345.58575 346.40936Q345.03888 347.1906 345.03888 349.3156Z" fill-rule="nonzero"/><path fill="#000000" d="M451.52863 346.08124L451.52863 345.0656L457.09113 345.0656L457.09113 345.89374Q456.27863 346.76874 455.46613 348.22186Q454.66925 349.65936 454.23175 351.1906Q453.90363 352.26874 453.8255 353.55L452.73175 353.55Q452.74738 352.53436 453.12238 351.09686Q453.513 349.65936 454.21613 348.33124Q454.93488 347.0031 455.74738 346.08124L451.52863 346.08124ZM458.46613 351.3L459.5755 351.20624Q459.7005 352.01874 460.138 352.425Q460.59113 352.83124 461.23175 352.83124Q461.98175 352.83124 462.513 352.2531Q463.04425 351.675 463.04425 350.7375Q463.04425 349.83124 462.52863 349.3156Q462.02863 348.78436 461.2005 348.78436Q460.7005 348.78436 460.27863 349.01874Q459.87238 349.2531 459.638 349.6125L458.65363 349.4875L459.48175 345.08124L463.763 345.08124L463.763 346.08124L460.3255 346.08124L459.87238 348.39374Q460.638 347.84686 461.48175 347.84686Q462.60675 347.84686 463.37238 348.6281Q464.15363 349.40936 464.15363 350.64374Q464.15363 351.8 463.48175 352.65936Q462.65363 353.6906 461.23175 353.6906Q460.05988 353.6906 459.30988 353.03436Q458.5755 352.3781 458.46613 351.3ZM465.46613 349.3156Q465.46613 347.78436 465.77863 346.8625Q466.09113 345.925 466.7005 345.425Q467.3255 344.925 468.263 344.925Q468.9505 344.925 469.46613 345.20624Q469.99738 345.4875 470.34113 346.01874Q470.68488 346.53436 470.87238 347.28436Q471.05988 348.03436 471.05988 349.3156Q471.05988 350.83124 470.74738 351.7531Q470.4505 352.675 469.8255 353.1906Q469.21613 353.6906 468.263 353.6906Q467.02863 353.6906 466.30988 352.8Q465.46613 351.7375 465.46613 349.3156ZM466.54425 349.3156Q466.54425 351.425 467.04425 352.1281Q467.54425 352.83124 468.263 352.83124Q468.99738 352.83124 469.48175 352.1281Q469.98175 351.425 469.98175 349.3156Q469.98175 347.1906 469.48175 346.5031Q468.99738 345.8 468.24738 345.8Q467.52863 345.8 467.09113 346.40936Q466.54425 347.1906 466.54425 349.3156ZM472.46613 349.3156Q472.46613 347.78436 472.77863 346.8625Q473.09113 345.925 473.7005 345.425Q474.3255 344.925 475.263 344.925Q475.9505 344.925 476.46613 345.20624Q476.99738 345.4875 477.34113 346.01874Q477.68488 346.53436 477.87238 347.28436Q478.05988 348.03436 478.05988 349.3156Q478.05988 350.83124 477.74738 351.7531Q477.4505 352.675 476.8255 353.1906Q476.21613 353.6906 475.263 353.6906Q474.02863 353.6906 473.30988 352.8Q472.46613 351.7375 472.46613 349.3156ZM473.54425 349.3156Q473.54425 351.425 474.04425 352.1281Q474.54425 352.83124 475.263 352.83124Q475.99738 352.83124 476.48175 352.1281Q476.98175 351.425 476.98175 349.3156Q476.98175 347.1906 476.48175 346.5031Q475.99738 345.8 475.24738 345.8Q474.52863 345.8 474.09113 346.40936Q473.54425 347.1906 473.54425 349.3156Z" fill-rule="nonzero"/><path fill="#000000" d="M580.44025 353.55L579.3934 353.55L579.3934 346.83124Q579.00275 347.1906 578.37775 347.5656Q577.7684 347.925 577.284 348.09686L577.284 347.08124Q578.159 346.65936 578.81525 346.08124Q579.4871 345.4875 579.7684 344.925L580.44025 344.925L580.44025 353.55ZM583.4715 349.3156Q583.4715 347.78436 583.784 346.8625Q584.0965 345.925 584.7059 345.425Q585.3309 344.925 586.2684 344.925Q586.9559 344.925 587.4715 345.20624Q588.00275 345.4875 588.3465 346.01874Q588.69025 346.53436 588.87775 347.28436Q589.06525 348.03436 589.06525 349.3156Q589.06525 350.83124 588.75275 351.7531Q588.4559 352.675 587.8309 353.1906Q587.2215 353.6906 586.2684 353.6906Q585.034 353.6906 584.31525 352.8Q583.4715 351.7375 583.4715 349.3156ZM584.5496 349.3156Q584.5496 351.425 585.0496 352.1281Q585.5496 352.83124 586.2684 352.83124Q587.00275 352.83124 587.4871 352.1281Q587.9871 351.425 587.9871 349.3156Q587.9871 347.1906 587.4871 346.5031Q587.00275 345.8 586.25275 345.8Q585.534 345.8 585.0965 346.40936Q584.5496 347.1906 584.5496 349.3156ZM590.4715 349.3156Q590.4715 347.78436 590.784 346.8625Q591.0965 345.925 591.7059 345.425Q592.3309 344.925 593.2684 344.925Q593.9559 344.925 594.4715 345.20624Q595.00275 345.4875 595.3465 346.01874Q595.69025 346.53436 595.87775 347.28436Q596.06525 348.03436 596.06525 349.3156Q596.06525 350.83124 595.75275 351.7531Q595.4559 352.675 594.8309 353.1906Q594.2215 353.6906 593.2684 353.6906Q592.034 353.6906 591.31525 352.8Q590.4715 351.7375 590.4715 349.3156ZM591.5496 349.3156Q591.5496 351.425 592.0496 352.1281Q592.5496 352.83124 593.2684 352.83124Q594.00275 352.83124 594.4871 352.1281Q594.9871 351.425 594.9871 349.3156Q594.9871 347.1906 594.4871 346.5031Q594.00275 345.8 593.25275 345.8Q592.534 345.8 592.0965 346.40936Q591.5496 347.1906 591.5496 349.3156ZM597.4715 349.3156Q597.4715 347.78436 597.784 346.8625Q598.0965 345.925 598.7059 345.425Q599.3309 344.925 600.2684 344.925Q600.9559 344.925 601.4715 345.20624Q602.00275 345.4875 602.3465 346.01874Q602.69025 346.53436 602.87775 347.28436Q603.06525 348.03436 603.06525 349.3156Q603.06525 350.83124 602.75275 351.7531Q602.4559 352.675 601.8309 353.1906Q601.2215 353.6906 600.2684 353.6906Q599.034 353.6906 598.31525 352.8Q597.4715 351.7375 597.4715 349.3156ZM598.5496 349.3156Q598.5496 351.425 599.0496 352.1281Q599.5496 352.83124 600.2684 352.83124Q601.00275 352.83124 601.4871 352.1281Q601.9871 351.425 601.9871 349.3156Q601.9871 347.1906 601.4871 346.5031Q601.00275 345.8 600.25275 345.8Q599.534 345.8 599.0965 346.40936Q598.5496 347.1906 598.5496 349.3156ZM604.4715 349.3156Q604.4715 347.78436 604.784 346.8625Q605.0965 345.925 605.7059 345.425Q606.3309 344.925 607.2684 344.925Q607.9559 344.925 608.4715 345.20624Q609.00275 345.4875 609.3465 346.01874Q609.69025 346.53436 609.87775 347.28436Q610.06525 348.03436 610.06525 349.3156Q610.06525 350.83124 609.75275 351.7531Q609.4559 352.675 608.8309 353.1906Q608.2215 353.6906 607.2684 353.6906Q606.034 353.6906 605.31525 352.8Q604.4715 351.7375 604.4715 349.3156ZM605.5496 349.3156Q605.5496 351.425 606.0496 352.1281Q606.5496 352.83124 607.2684 352.83124Q608.00275 352.83124 608.4871 352.1281Q608.9871 351.425 608.9871 349.3156Q608.9871 347.1906 608.4871 346.5031Q608.00275 345.8 607.25275 345.8Q606.534 345.8 606.0965 346.40936Q605.5496 347.1906 605.5496 349.3156Z" fill-rule="nonzero"/><path fill="#999999" d="M20.434376 64.95L24.278126 54.934372L25.7 54.934372L29.809376 64.95L28.29375 64.95L27.121876 61.918747L22.934376 61.918747L21.840626 64.95L20.434376 64.95ZM23.325 60.840622L26.715626 60.840622L25.66875 58.059372Q25.2 56.793747 24.965626 55.981247Q24.778126 56.949997 24.41875 57.887497L23.325 60.840622ZM29.8875 62.778122L31.090626 62.590622Q31.2 63.324997 31.66875 63.715622Q32.1375 64.10625 32.98125 64.10625Q33.825 64.10625 34.23125 63.762497Q34.653126 63.418747 34.653126 62.949997Q34.653126 62.528122 34.278126 62.293747Q34.028126 62.121872 33.028126 61.871872Q31.66875 61.528122 31.1375 61.278122Q30.621876 61.028122 30.35625 60.590622Q30.090626 60.153122 30.090626 59.621872Q30.090626 59.137497 30.309376 58.731247Q30.528126 58.309372 30.91875 58.028122Q31.2 57.824997 31.684376 57.684372Q32.184376 57.528122 32.7625 57.528122Q33.60625 57.528122 34.246876 57.778122Q34.903126 58.012497 35.215626 58.434372Q35.528126 58.856247 35.6375 59.559372L34.434376 59.731247Q34.35625 59.168747 33.95 58.856247Q33.559376 58.543747 32.840626 58.543747Q31.996876 58.543747 31.6375 58.824997Q31.278126 59.090622 31.278126 59.481247Q31.278126 59.715622 31.41875 59.903122Q31.575 60.106247 31.903126 60.231247Q32.075 60.293747 32.98125 60.543747Q34.29375 60.903122 34.809376 61.121872Q35.325 61.340622 35.60625 61.762497Q35.903126 62.184372 35.903126 62.809372Q35.903126 63.434372 35.54375 63.981247Q35.2 64.5125 34.5125 64.825Q33.840626 65.12187 32.98125 65.12187Q31.575 65.12187 30.825 64.52812Q30.090626 63.934372 29.8875 62.778122ZM41.371876 64.95L41.371876 57.684372L42.48125 57.684372L42.48125 58.715622Q42.809376 58.168747 43.371876 57.856247Q43.95 57.528122 44.66875 57.528122Q45.48125 57.528122 45.996876 57.871872Q46.5125 58.199997 46.73125 58.793747Q47.590626 57.528122 48.965626 57.528122Q50.04375 57.528122 50.621876 58.121872Q51.215626 58.715622 51.215626 59.965622L51.215626 64.95L49.98125 64.95L49.98125 60.371872Q49.98125 59.637497 49.85625 59.309372Q49.746876 58.981247 49.434376 58.793747Q49.121876 58.590622 48.7 58.590622Q47.934376 58.590622 47.41875 59.106247Q46.91875 59.606247 46.91875 60.731247L46.91875 64.95L45.684376 64.95L45.684376 60.231247Q45.684376 59.418747 45.3875 59.012497Q45.090626 58.590622 44.403126 58.590622Q43.8875 58.590622 43.434376 58.871872Q42.996876 59.137497 42.79375 59.668747Q42.60625 60.184372 42.60625 61.184372L42.60625 64.95L41.371876 64.95ZM57.340626 62.606247L58.621876 62.762497Q58.309376 63.887497 57.496876 64.5125Q56.684376 65.12187 55.41875 65.12187Q53.825 65.12187 52.8875 64.1375Q51.965626 63.153122 51.965626 61.387497Q51.965626 59.543747 52.903126 58.543747Q53.85625 57.528122 55.35625 57.528122Q56.809376 57.528122 57.73125 58.528122Q58.653126 59.512497 58.653126 61.309372Q58.653126 61.418747 58.653126 61.637497L53.23125 61.637497Q53.309376 62.824997 53.903126 63.465622Q54.5125 64.10625 55.434376 64.10625Q56.10625 64.10625 56.575 63.746872Q57.059376 63.387497 57.340626 62.606247ZM53.309376 60.621872L57.35625 60.621872Q57.278126 59.699997 56.8875 59.246872Q56.309376 58.543747 55.371876 58.543747Q54.5125 58.543747 53.934376 59.106247Q53.371876 59.668747 53.309376 60.621872ZM65.10625 64.05937Q64.43437 64.6375 63.79375 64.8875Q63.16875 65.12187 62.434376 65.12187Q61.246876 65.12187 60.590626 64.54375Q59.95 63.949997 59.95 63.028122Q59.95 62.496872 60.184376 62.059372Q60.434376 61.621872 60.825 61.356247Q61.23125 61.090622 61.715626 60.949997Q62.075 60.856247 62.809376 60.762497Q64.30937 60.590622 65.0125 60.340622Q65.0125 60.090622 65.0125 60.028122Q65.0125 59.262497 64.66875 58.965622Q64.2 58.543747 63.2625 58.543747Q62.403126 58.543747 61.98125 58.856247Q61.575 59.153122 61.371876 59.918747L60.16875 59.762497Q60.325 58.981247 60.7 58.512497Q61.090626 58.043747 61.79375 57.793747Q62.5125 57.528122 63.45 57.528122Q64.37187 57.528122 64.95 57.746872Q65.52812 57.965622 65.79375 58.293747Q66.075 58.621872 66.18437 59.137497Q66.24687 59.449997 66.24687 60.262497L66.24687 61.903122Q66.24687 63.621872 66.325 64.075Q66.40312 64.52812 66.6375 64.95L65.35625 64.95Q65.16875 64.55937 65.10625 64.05937ZM65.0125 61.309372Q64.34062 61.574997 62.996876 61.778122Q62.246876 61.887497 61.91875 62.028122Q61.60625 62.153122 61.434376 62.418747Q61.2625 62.684372 61.2625 62.996872Q61.2625 63.496872 61.6375 63.824997Q62.0125 64.15312 62.73125 64.15312Q63.45 64.15312 63.996876 63.840622Q64.54375 63.528122 64.80937 62.981247Q65.0125 62.574997 65.0125 61.762497L65.0125 61.309372ZM67.8875 62.778122L69.09062 62.590622Q69.2 63.324997 69.66875 63.715622Q70.1375 64.10625 70.98125 64.10625Q71.825 64.10625 72.23125 63.762497Q72.65312 63.418747 72.65312 62.949997Q72.65312 62.528122 72.27812 62.293747Q72.02812 62.121872 71.02812 61.871872Q69.66875 61.528122 69.1375 61.278122Q68.62187 61.028122 68.35625 60.590622Q68.09062 60.153122 68.09062 59.621872Q68.09062 59.137497 68.30937 58.731247Q68.52812 58.309372 68.91875 58.028122Q69.2 57.824997 69.68437 57.684372Q70.18437 57.528122 70.7625 57.528122Q71.60625 57.528122 72.24687 57.778122Q72.90312 58.012497 73.21562 58.434372Q73.52812 58.856247 73.6375 59.559372L72.43437 59.731247Q72.35625 59.168747 71.95 58.856247Q71.55937 58.543747 70.84062 58.543747Q69.99687 58.543747 69.6375 58.824997Q69.27812 59.090622 69.27812 59.481247Q69.27812 59.715622 69.41875 59.903122Q69.575 60.106247 69.90312 60.231247Q70.075 60.293747 70.98125 60.543747Q72.29375 60.903122 72.80937 61.121872Q73.325 61.340622 73.60625 61.762497Q73.90312 62.184372 73.90312 62.809372Q73.90312 63.434372 73.54375 63.981247Q73.2 64.5125 72.5125 64.825Q71.84062 65.12187 70.98125 65.12187Q69.575 65.12187 68.825 64.52812Q68.09062 63.934372 67.8875 62.778122ZM80.1375 64.95L80.1375 63.887497Q79.27812 65.12187 77.825 65.12187Q77.18437 65.12187 76.62187 64.87187Q76.075 64.62187 75.79375 64.24687Q75.52812 63.871872 75.41875 63.340622Q75.34062 62.981247 75.34062 62.184372L75.34062 57.684372L76.575 57.684372L76.575 61.715622Q76.575 62.684372 76.65312 63.012497Q76.7625 63.496872 77.1375 63.778122Q77.5125 64.05937 78.075 64.05937Q78.62187 64.05937 79.10625 63.778122Q79.59062 63.481247 79.79375 62.996872Q79.99687 62.512497 79.99687 61.574997L79.99687 57.684372L81.23125 57.684372L81.23125 64.95L80.1375 64.95ZM83.35625 64.95L83.35625 57.684372L84.46562 57.684372L84.46562 58.793747Q84.8875 58.012497 85.24687 57.778122Q85.60625 57.528122 86.04375 57.528122Q86.66875 57.528122 87.30937 57.918747L86.8875 59.059372Q86.43437 58.793747 85.98125 58.793747Q85.575 58.793747 85.24687 59.043747Q84.93437 59.278122 84.79375 59.715622Q84.59062 60.371872 84.59062 61.153122L84.59062 64.95L83.35625 64.95ZM93.34062 62.606247L94.62187 62.762497Q94.30937 63.887497 93.49687 64.5125Q92.68437 65.12187 91.41875 65.12187Q89.825 65.12187 88.8875 64.1375Q87.96562 63.153122 87.96562 61.387497Q87.96562 59.543747 88.90312 58.543747Q89.85625 57.528122 91.35625 57.528122Q92.80937 57.528122 93.73125 58.528122Q94.65312 59.512497 94.65312 61.309372Q94.65312 61.418747 94.65312 61.637497L89.23125 61.637497Q89.30937 62.824997 89.90312 63.465622Q90.5125 64.10625 91.43437 64.10625Q92.10625 64.10625 92.575 63.746872Q93.05937 63.387497 93.34062 62.606247ZM89.30937 60.621872L93.35625 60.621872Q93.27812 59.699997 92.8875 59.246872Q92.30937 58.543747 91.37187 58.543747Q90.5125 58.543747 89.93437 59.106247Q89.37187 59.668747 89.30937 60.621872ZM101.09062 64.95L101.09062 64.02812Q100.3875 65.12187 99.05937 65.12187Q98.18437 65.12187 97.45 64.6375Q96.73125 64.15312 96.325 63.293747Q95.93437 62.434372 95.93437 61.324997Q95.93437 60.246872 96.29375 59.356247Q96.65312 58.465622 97.37187 57.996872Q98.10625 57.528122 98.99687 57.528122Q99.65312 57.528122 100.16875 57.809372Q100.68437 58.074997 100.99687 58.528122L100.99687 54.934372L102.23125 54.934372L102.23125 64.95L101.09062 64.95ZM97.2 61.324997Q97.2 62.715622 97.77812 63.418747Q98.37187 64.10625 99.16875 64.10625Q99.98125 64.10625 100.54375 63.449997Q101.10625 62.778122 101.10625 61.434372Q101.10625 59.934372 100.52812 59.246872Q99.95 58.543747 99.12187 58.543747Q98.29375 58.543747 97.74687 59.215622Q97.2 59.887497 97.2 61.324997ZM109.5125 64.95L108.37187 64.95L108.37187 54.934372L109.59062 54.934372L109.59062 58.496872Q110.37187 57.528122 111.59062 57.528122Q112.2625 57.528122 112.85625 57.793747Q113.45 58.059372 113.84062 58.559372Q114.23125 59.043747 114.45 59.731247Q114.66875 60.418747 114.66875 61.215622Q114.66875 63.074997 113.73125 64.10625Q112.80937 65.12187 111.52812 65.12187Q110.24687 65.12187 109.5125 64.04375L109.5125 64.95ZM109.49687 61.262497Q109.49687 62.574997 109.85625 63.153122Q110.43437 64.10625 111.41875 64.10625Q112.23125 64.10625 112.80937 63.403122Q113.40312 62.699997 113.40312 61.309372Q113.40312 59.887497 112.84062 59.215622Q112.27812 58.543747 111.48125 58.543747Q110.66875 58.543747 110.075 59.246872Q109.49687 59.934372 109.49687 61.262497ZM116.325 67.74687L116.18437 66.59062Q116.59062 66.7 116.8875 66.7Q117.29375 66.7 117.54375 66.55937Q117.79375 66.43437 117.95 66.18437Q118.05937 65.99687 118.325 65.2625Q118.35625 65.16875 118.43437 64.96562L115.66875 57.684372L116.99687 57.684372L118.5125 61.887497Q118.80937 62.699997 119.04375 63.574997Q119.24687 62.731247 119.54375 61.918747L121.09062 57.684372L122.325 57.684372L119.55937 65.075Q119.12187 66.2625 118.87187 66.71562Q118.54375 67.325 118.12187 67.60625Q117.7 67.90312 117.10625 67.90312Q116.7625 67.90312 116.325 67.74687ZM130.05937 63.856247L130.23125 64.93437Q129.71562 65.04375 129.30937 65.04375Q128.6375 65.04375 128.2625 64.84062Q127.90312 64.62187 127.74687 64.27812Q127.60625 63.934372 127.60625 62.824997L127.60625 58.653122L126.7 58.653122L126.7 57.684372L127.60625 57.684372L127.60625 55.887497L128.825 55.153122L128.825 57.684372L130.05937 57.684372L130.05937 58.653122L128.825 58.653122L128.825 62.887497Q128.825 63.418747 128.8875 63.574997Q128.95 63.715622 129.09062 63.809372Q129.24687 63.903122 129.5125 63.903122Q129.73125 63.903122 130.05937 63.856247ZM131.37187 64.95L131.37187 54.934372L132.60625 54.934372L132.60625 58.528122Q133.46562 57.528122 134.77812 57.528122Q135.59062 57.528122 136.18437 57.856247Q136.77812 58.168747 137.02812 58.731247Q137.29375 59.278122 137.29375 60.356247L137.29375 64.95L136.05937 64.95L136.05937 60.356247Q136.05937 59.418747 135.65312 59.012497Q135.2625 58.590622 134.52812 58.590622Q133.98125 58.590622 133.49687 58.871872Q133.0125 59.153122 132.80937 59.637497Q132.60625 60.121872 132.60625 60.981247L132.60625 64.95L131.37187 64.95ZM144.34062 62.606247L145.62187 62.762497Q145.30937 63.887497 144.49687 64.5125Q143.68437 65.12187 142.41875 65.12187Q140.825 65.12187 139.8875 64.1375Q138.96562 63.153122 138.96562 61.387497Q138.96562 59.543747 139.90312 58.543747Q140.85625 57.528122 142.35625 57.528122Q143.80937 57.528122 144.73125 58.528122Q145.65312 59.512497 145.65312 61.309372Q145.65312 61.418747 145.65312 61.637497L140.23125 61.637497Q140.30937 62.824997 140.90312 63.465622Q141.5125 64.10625 142.43437 64.10625Q143.10625 64.10625 143.575 63.746872Q144.05937 63.387497 144.34062 62.606247ZM140.30937 60.621872L144.35625 60.621872Q144.27812 59.699997 143.8875 59.246872Q143.30937 58.543747 142.37187 58.543747Q141.5125 58.543747 140.93437 59.106247Q140.37187 59.668747 140.30937 60.621872ZM154.05937 63.856247L154.23125 64.93437Q153.71562 65.04375 153.30937 65.04375Q152.6375 65.04375 152.2625 64.84062Q151.90312 64.62187 151.74687 64.27812Q151.60625 63.934372 151.60625 62.824997L151.60625 58.653122L150.7 58.653122L150.7 57.684372L151.60625 57.684372L151.60625 55.887497L152.825 55.153122L152.825 57.684372L154.05937 57.684372L154.05937 58.653122L152.825 58.653122L152.825 62.887497Q152.825 63.418747 152.8875 63.574997Q152.95 63.715622 153.09062 63.809372Q153.24687 63.903122 153.5125 63.903122Q153.73125 63.903122 154.05937 63.856247ZM155.3875 56.340622L155.3875 54.934372L156.60625 54.934372L156.60625 56.340622L155.3875 56.340622ZM155.3875 64.95L155.3875 57.684372L156.60625 57.684372L156.60625 64.95L155.3875 64.95ZM158.37187 64.95L158.37187 57.684372L159.48125 57.684372L159.48125 58.715622Q159.80937 58.168747 160.37187 57.856247Q160.95 57.528122 161.66875 57.528122Q162.48125 57.528122 162.99687 57.871872Q163.5125 58.199997 163.73125 58.793747Q164.59062 57.528122 165.96562 57.528122Q167.04375 57.528122 167.62187 58.121872Q168.21562 58.715622 168.21562 59.965622L168.21562 64.95L166.98125 64.95L166.98125 60.371872Q166.98125 59.637497 166.85625 59.309372Q166.74687 58.981247 166.43437 58.793747Q166.12187 58.590622 165.7 58.590622Q164.93437 58.590622 164.41875 59.106247Q163.91875 59.606247 163.91875 60.731247L163.91875 64.95L162.68437 64.95L162.68437 60.231247Q162.68437 59.418747 162.3875 59.012497Q162.09062 58.590622 161.40312 58.590622Q160.8875 58.590622 160.43437 58.871872Q159.99687 59.137497 159.79375 59.668747Q159.60625 60.184372 159.60625 61.184372L159.60625 64.95L158.37187 64.95ZM174.34062 62.606247L175.62187 62.762497Q175.30937 63.887497 174.49687 64.5125Q173.68437 65.12187 172.41875 65.12187Q170.825 65.12187 169.8875 64.1375Q168.96562 63.153122 168.96562 61.387497Q168.96562 59.543747 169.90312 58.543747Q170.85625 57.528122 172.35625 57.528122Q173.80937 57.528122 174.73125 58.528122Q175.65312 59.512497 175.65312 61.309372Q175.65312 61.418747 175.65312 61.637497L170.23125 61.637497Q170.30937 62.824997 170.90312 63.465622Q171.5125 64.10625 172.43437 64.10625Q173.10625 64.10625 173.575 63.746872Q174.05937 63.387497 174.34062 62.606247ZM170.30937 60.621872L174.35625 60.621872Q174.27812 59.699997 173.8875 59.246872Q173.30937 58.543747 172.37187 58.543747Q171.5125 58.543747 170.93437 59.106247Q170.37187 59.668747 170.30937 60.621872ZM186.10625 62.293747L187.325 62.449997Q187.12187 63.699997 186.29375 64.41875Q185.48125 65.12187 184.29375 65.12187Q182.80937 65.12187 181.90312 64.15312Q180.99687 63.168747 180.99687 61.340622Q180.99687 60.168747 181.3875 59.293747Q181.77812 58.403122 182.575 57.965622Q183.37187 57.528122 184.30937 57.528122Q185.48125 57.528122 186.23125 58.121872Q186.99687 58.715622 187.2 59.824997L186.0125 60.012497Q185.84062 59.278122 185.40312 58.918747Q184.96562 58.543747 184.35625 58.543747Q183.41875 58.543747 182.84062 59.215622Q182.2625 59.871872 182.2625 61.309372Q182.2625 62.778122 182.825 63.449997Q183.3875 64.10625 184.27812 64.10625Q185.0125 64.10625 185.49687 63.668747Q185.98125 63.215622 186.10625 62.293747ZM187.91875 61.324997Q187.91875 59.309372 189.04375 58.324997Q189.96562 57.528122 191.325 57.528122Q192.80937 57.528122 193.7625 58.512497Q194.71562 59.481247 194.71562 61.215622Q194.71562 62.621872 194.29375 63.434372Q193.87187 64.23125 193.05937 64.68437Q192.2625 65.12187 191.325 65.12187Q189.79375 65.12187 188.85625 64.1375Q187.91875 63.153122 187.91875 61.324997ZM189.18437 61.324997Q189.18437 62.715622 189.79375 63.418747Q190.40312 64.10625 191.325 64.10625Q192.23125 64.10625 192.84062 63.403122Q193.45 62.699997 193.45 61.278122Q193.45 59.934372 192.84062 59.246872Q192.23125 58.543747 191.325 58.543747Q190.40312 58.543747 189.79375 59.231247Q189.18437 59.918747 189.18437 61.324997ZM196.37187 64.95L196.37187 57.684372L197.48125 57.684372L197.48125 58.715622Q197.80937 58.168747 198.37187 57.856247Q198.95 57.528122 199.66875 57.528122Q200.48125 57.528122 200.99687 57.871872Q201.5125 58.199997 201.73125 58.793747Q202.59062 57.528122 203.96562 57.528122Q205.04375 57.528122 205.62187 58.121872Q206.21562 58.715622 206.21562 59.965622L206.21562 64.95L204.98125 64.95L204.98125 60.371872Q204.98125 59.637497 204.85625 59.309372Q204.74687 58.981247 204.43437 58.793747Q204.12187 58.590622 203.7 58.590622Q202.93437 58.590622 202.41875 59.106247Q201.91875 59.606247 201.91875 60.731247L201.91875 64.95L200.68437 64.95L200.68437 60.231247Q200.68437 59.418747 200.3875 59.012497Q200.09062 58.590622 199.40312 58.590622Q198.8875 58.590622 198.43437 58.871872Q197.99687 59.137497 197.79375 59.668747Q197.60625 60.184372 197.60625 61.184372L197.60625 64.95L196.37187 64.95ZM207.37187 64.95L207.37187 57.684372L208.48125 57.684372L208.48125 58.715622Q208.80937 58.168747 209.37187 57.856247Q209.95 57.528122 210.66875 57.528122Q211.48125 57.528122 211.99687 57.871872Q212.5125 58.199997 212.73125 58.793747Q213.59062 57.528122 214.96562 57.528122Q216.04375 57.528122 216.62187 58.121872Q217.21562 58.715622 217.21562 59.965622L217.21562 64.95L215.98125 64.95L215.98125 60.371872Q215.98125 59.637497 215.85625 59.309372Q215.74687 58.981247 215.43437 58.793747Q215.12187 58.590622 214.7 58.590622Q213.93437 58.590622 213.41875 59.106247Q212.91875 59.606247 212.91875 60.731247L212.91875 64.95L211.68437 64.95L211.68437 60.231247Q211.68437 59.418747 211.3875 59.012497Q211.09062 58.590622 210.40312 58.590622Q209.8875 58.590622 209.43437 58.871872Q208.99687 59.137497 208.79375 59.668747Q208.60625 60.184372 208.60625 61.184372L208.60625 64.95L207.37187 64.95ZM223.10625 64.05937Q222.43437 64.6375 221.79375 64.8875Q221.16875 65.12187 220.43437 65.12187Q219.24687 65.12187 218.59062 64.54375Q217.95 63.949997 217.95 63.028122Q217.95 62.496872 218.18437 62.059372Q218.43437 61.621872 218.825 61.356247Q219.23125 61.090622 219.71562 60.949997Q220.075 60.856247 220.80937 60.762497Q222.30937 60.590622 223.0125 60.340622Q223.0125 60.090622 223.0125 60.028122Q223.0125 59.262497 222.66875 58.965622Q222.2 58.543747 221.2625 58.543747Q220.40312 58.543747 219.98125 58.856247Q219.575 59.153122 219.37187 59.918747L218.16875 59.762497Q218.325 58.981247 218.7 58.512497Q219.09062 58.043747 219.79375 57.793747Q220.5125 57.528122 221.45 57.528122Q222.37187 57.528122 222.95 57.746872Q223.52812 57.965622 223.79375 58.293747Q224.075 58.621872 224.18437 59.137497Q224.24687 59.449997 224.24687 60.262497L224.24687 61.903122Q224.24687 63.621872 224.325 64.075Q224.40312 64.52812 224.6375 64.95L223.35625 64.95Q223.16875 64.55937 223.10625 64.05937ZM223.0125 61.309372Q222.34062 61.574997 220.99687 61.778122Q220.24687 61.887497 219.91875 62.028122Q219.60625 62.153122 219.43437 62.418747Q219.2625 62.684372 219.2625 62.996872Q219.2625 63.496872 219.6375 63.824997Q220.0125 64.15312 220.73125 64.15312Q221.45 64.15312 221.99687 63.840622Q222.54375 63.528122 222.80937 62.981247Q223.0125 62.574997 223.0125 61.762497L223.0125 61.309372ZM226.37187 64.95L226.37187 57.684372L227.48125 57.684372L227.48125 58.715622Q228.27812 57.528122 229.79375 57.528122Q230.45 57.528122 230.99687 57.762497Q231.54375 57.996872 231.80937 58.387497Q232.09062 58.762497 232.2 59.293747Q232.27812 59.637497 232.27812 60.481247L232.27812 64.95L231.04375 64.95L231.04375 60.528122Q231.04375 59.778122 230.90312 59.418747Q230.7625 59.043747 230.3875 58.824997Q230.02812 58.590622 229.52812 58.590622Q228.74687 58.590622 228.16875 59.090622Q227.60625 59.590622 227.60625 60.981247L227.60625 64.95L226.37187 64.95ZM239.09062 64.95L239.09062 64.02812Q238.3875 65.12187 237.05937 65.12187Q236.18437 65.12187 235.45 64.6375Q234.73125 64.15312 234.325 63.293747Q233.93437 62.434372 233.93437 61.324997Q233.93437 60.246872 234.29375 59.356247Q234.65312 58.465622 235.37187 57.996872Q236.10625 57.528122 236.99687 57.528122Q237.65312 57.528122 238.16875 57.809372Q238.68437 58.074997 238.99687 58.528122L238.99687 54.934372L240.23125 54.934372L240.23125 64.95L239.09062 64.95ZM235.2 61.324997Q235.2 62.715622 235.77812 63.418747Q236.37187 64.10625 237.16875 64.10625Q237.98125 64.10625 238.54375 63.449997Q239.10625 62.778122 239.10625 61.434372Q239.10625 59.934372 238.52812 59.246872Q237.95 58.543747 237.12187 58.543747Q236.29375 58.543747 235.74687 59.215622Q235.2 59.887497 235.2 61.324997ZM242.71562 64.95L242.71562 63.543747L244.12187 63.543747L244.12187 64.95L242.71562 64.95ZM250.54375 64.95L250.54375 54.934372L254.99687 54.934372Q256.34064 54.934372 257.02814 55.199997Q257.73126 55.465622 258.1375 56.153122Q258.5594 56.840622 258.5594 57.668747Q258.5594 58.731247 257.8719 59.465622Q257.1844 60.184372 255.74687 60.387497Q256.2625 60.637497 256.54376 60.887497Q257.1219 61.418747 257.6375 62.215622L259.3875 64.95L257.71564 64.95L256.3875 62.871872Q255.80937 61.965622 255.43437 61.496872Q255.05937 61.012497 254.7625 60.824997Q254.46562 60.621872 254.15312 60.543747Q253.93437 60.496872 253.41875 60.496872L251.87187 60.496872L251.87187 64.95L250.54375 64.95ZM251.87187 59.356247L254.73125 59.356247Q255.6375 59.356247 256.15314 59.168747Q256.66876 58.981247 256.9344 58.574997Q257.2 58.153122 257.2 57.668747Q257.2 56.949997 256.6844 56.496872Q256.16876 56.028122 255.04375 56.028122L251.87187 56.028122L251.87187 59.356247ZM265.1375 64.95L265.1375 63.887497Q264.27814 65.12187 262.825 65.12187Q262.1844 65.12187 261.6219 64.87187Q261.075 64.62187 260.79376 64.24687Q260.52814 63.871872 260.41876 63.340622Q260.34064 62.981247 260.34064 62.184372L260.34064 57.684372L261.575 57.684372L261.575 61.715622Q261.575 62.684372 261.65314 63.012497Q261.7625 63.496872 262.1375 63.778122Q262.5125 64.05937 263.075 64.05937Q263.6219 64.05937 264.10626 63.778122Q264.59064 63.481247 264.79376 62.996872Q264.9969 62.512497 264.9969 61.574997L264.9969 57.684372L266.23126 57.684372L266.23126 64.95L265.1375 64.95ZM267.8875 62.778122L269.09064 62.590622Q269.2 63.324997 269.66876 63.715622Q270.1375 64.10625 270.98126 64.10625Q271.825 64.10625 272.23126 63.762497Q272.65314 63.418747 272.65314 62.949997Q272.65314 62.528122 272.27814 62.293747Q272.02814 62.121872 271.02814 61.871872Q269.66876 61.528122 269.1375 61.278122Q268.6219 61.028122 268.35626 60.590622Q268.09064 60.153122 268.09064 59.621872Q268.09064 59.137497 268.3094 58.731247Q268.52814 58.309372 268.91876 58.028122Q269.2 57.824997 269.6844 57.684372Q270.1844 57.528122 270.7625 57.528122Q271.60626 57.528122 272.2469 57.778122Q272.90314 58.012497 273.21564 58.434372Q273.52814 58.856247 273.6375 59.559372L272.4344 59.731247Q272.35626 59.168747 271.95 58.856247Q271.5594 58.543747 270.84064 58.543747Q269.9969 58.543747 269.6375 58.824997Q269.27814 59.090622 269.27814 59.481247Q269.27814 59.715622 269.41876 59.903122Q269.575 60.106247 269.90314 60.231247Q270.075 60.293747 270.98126 60.543747Q272.29376 60.903122 272.8094 61.121872Q273.325 61.340622 273.60626 61.762497Q273.90314 62.184372 273.90314 62.809372Q273.90314 63.434372 273.54376 63.981247Q273.2 64.5125 272.5125 64.825Q271.84064 65.12187 270.98126 65.12187Q269.575 65.12187 268.825 64.52812Q268.09064 63.934372 267.8875 62.778122ZM278.0594 63.856247L278.23126 64.93437Q277.71564 65.04375 277.3094 65.04375Q276.6375 65.04375 276.2625 64.84062Q275.90314 64.62187 275.7469 64.27812Q275.60626 63.934372 275.60626 62.824997L275.60626 58.653122L274.7 58.653122L274.7 57.684372L275.60626 57.684372L275.60626 55.887497L276.825 55.153122L276.825 57.684372L278.0594 57.684372L278.0594 58.653122L276.825 58.653122L276.825 62.887497Q276.825 63.418747 276.8875 63.574997Q276.95 63.715622 277.09064 63.809372Q277.2469 63.903122 277.5125 63.903122Q277.73126 63.903122 278.0594 63.856247ZM283.3719 67.73125L283.3719 57.684372L284.4969 57.684372L284.4969 58.637497Q284.8875 58.074997 285.3875 57.809372Q285.8875 57.528122 286.60626 57.528122Q287.52814 57.528122 288.23126 58.012497Q288.95 58.481247 289.3094 59.356247Q289.66876 60.231247 289.66876 61.262497Q289.66876 62.371872 289.2625 63.278122Q288.8719 64.16875 288.10626 64.65312Q287.35626 65.12187 286.5125 65.12187Q285.90314 65.12187 285.40314 64.85625Q284.91876 64.59062 284.60626 64.2L284.60626 67.73125L283.3719 67.73125ZM284.48126 61.356247Q284.48126 62.762497 285.04376 63.434372Q285.6219 64.10625 286.4344 64.10625Q287.2469 64.10625 287.825 63.418747Q288.41876 62.715622 288.41876 61.262497Q288.41876 59.871872 287.84064 59.184372Q287.27814 58.496872 286.48126 58.496872Q285.7 58.496872 285.09064 59.231247Q284.48126 59.965622 284.48126 61.356247ZM291.35626 64.95L291.35626 57.684372L292.46564 57.684372L292.46564 58.793747Q292.8875 58.012497 293.2469 57.778122Q293.60626 57.528122 294.04376 57.528122Q294.66876 57.528122 295.3094 57.918747L294.8875 59.059372Q294.4344 58.793747 293.98126 58.793747Q293.575 58.793747 293.2469 59.043747Q292.9344 59.278122 292.79376 59.715622Q292.59064 60.371872 292.59064 61.153122L292.59064 64.95L291.35626 64.95ZM295.91876 61.324997Q295.91876 59.309372 297.04376 58.324997Q297.96564 57.528122 299.325 57.528122Q300.8094 57.528122 301.7625 58.512497Q302.71564 59.481247 302.71564 61.215622Q302.71564 62.621872 302.29376 63.434372Q301.8719 64.23125 301.0594 64.68437Q300.2625 65.12187 299.325 65.12187Q297.79376 65.12187 296.85626 64.1375Q295.91876 63.153122 295.91876 61.324997ZM297.1844 61.324997Q297.1844 62.715622 297.79376 63.418747Q298.40314 64.10625 299.325 64.10625Q300.23126 64.10625 300.84064 63.403122Q301.45 62.699997 301.45 61.278122Q301.45 59.934372 300.84064 59.246872Q300.23126 58.543747 299.325 58.543747Q298.40314 58.543747 297.79376 59.231247Q297.1844 59.918747 297.1844 61.324997ZM304.15314 65.55937L305.34064 65.73125Q305.41876 66.27812 305.7625 66.54375Q306.21564 66.87187 307.0125 66.87187Q307.8719 66.87187 308.325 66.52812Q308.79376 66.2 308.96564 65.575Q309.0594 65.2 309.04376 63.996872Q308.2469 64.95 307.04376 64.95Q305.54376 64.95 304.71564 63.871872Q303.90314 62.793747 303.90314 61.278122Q303.90314 60.246872 304.27814 59.371872Q304.65314 58.481247 305.35626 58.012497Q306.075 57.528122 307.04376 57.528122Q308.325 57.528122 309.16876 58.559372L309.16876 57.684372L310.29376 57.684372L310.29376 63.965622Q310.29376 65.66875 309.95 66.37187Q309.60626 67.075 308.85626 67.48125Q308.10626 67.90312 307.0125 67.90312Q305.71564 67.90312 304.91876 67.30937Q304.1219 66.73125 304.15314 65.55937ZM305.16876 61.184372Q305.16876 62.621872 305.73126 63.278122Q306.29376 63.934372 307.15314 63.934372Q307.9969 63.934372 308.575 63.278122Q309.15314 62.621872 309.15314 61.231247Q309.15314 59.903122 308.5594 59.231247Q307.96564 58.543747 307.1375 58.543747Q306.3094 58.543747 305.73126 59.215622Q305.16876 59.871872 305.16876 61.184372ZM312.35626 64.95L312.35626 57.684372L313.46564 57.684372L313.46564 58.793747Q313.8875 58.012497 314.2469 57.778122Q314.60626 57.528122 315.04376 57.528122Q315.66876 57.528122 316.3094 57.918747L315.8875 59.059372Q315.4344 58.793747 314.98126 58.793747Q314.575 58.793747 314.2469 59.043747Q313.9344 59.278122 313.79376 59.715622Q313.59064 60.371872 313.59064 61.153122L313.59064 64.95L312.35626 64.95ZM322.10626 64.05937Q321.4344 64.6375 320.79376 64.8875Q320.16876 65.12187 319.4344 65.12187Q318.2469 65.12187 317.59064 64.54375Q316.95 63.949997 316.95 63.028122Q316.95 62.496872 317.1844 62.059372Q317.4344 61.621872 317.825 61.356247Q318.23126 61.090622 318.71564 60.949997Q319.075 60.856247 319.8094 60.762497Q321.3094 60.590622 322.0125 60.340622Q322.0125 60.090622 322.0125 60.028122Q322.0125 59.262497 321.66876 58.965622Q321.2 58.543747 320.2625 58.543747Q319.40314 58.543747 318.98126 58.856247Q318.575 59.153122 318.3719 59.918747L317.16876 59.762497Q317.325 58.981247 317.7 58.512497Q318.09064 58.043747 318.79376 57.793747Q319.5125 57.528122 320.45 57.528122Q321.3719 57.528122 321.95 57.746872Q322.52814 57.965622 322.79376 58.293747Q323.075 58.621872 323.1844 59.137497Q323.2469 59.449997 323.2469 60.262497L323.2469 61.903122Q323.2469 63.621872 323.325 64.075Q323.40314 64.52812 323.6375 64.95L322.35626 64.95Q322.16876 64.55937 322.10626 64.05937ZM322.0125 61.309372Q321.34064 61.574997 319.9969 61.778122Q319.2469 61.887497 318.91876 62.028122Q318.60626 62.153122 318.4344 62.418747Q318.2625 62.684372 318.2625 62.996872Q318.2625 63.496872 318.6375 63.824997Q319.0125 64.15312 319.73126 64.15312Q320.45 64.15312 320.9969 63.840622Q321.54376 63.528122 321.8094 62.981247Q322.0125 62.574997 322.0125 61.762497L322.0125 61.309372ZM325.3719 64.95L325.3719 57.684372L326.48126 57.684372L326.48126 58.715622Q326.8094 58.168747 327.3719 57.856247Q327.95 57.528122 328.66876 57.528122Q329.48126 57.528122 329.9969 57.871872Q330.5125 58.199997 330.73126 58.793747Q331.59064 57.528122 332.96564 57.528122Q334.04376 57.528122 334.6219 58.121872Q335.21564 58.715622 335.21564 59.965622L335.21564 64.95L333.98126 64.95L333.98126 60.371872Q333.98126 59.637497 333.85626 59.309372Q333.7469 58.981247 333.4344 58.793747Q333.1219 58.590622 332.7 58.590622Q331.9344 58.590622 331.41876 59.106247Q330.91876 59.606247 330.91876 60.731247L330.91876 64.95L329.6844 64.95L329.6844 60.231247Q329.6844 59.418747 329.3875 59.012497Q329.09064 58.590622 328.40314 58.590622Q327.8875 58.590622 327.4344 58.871872Q326.9969 59.137497 326.79376 59.668747Q326.60626 60.184372 326.60626 61.184372L326.60626 64.95L325.3719 64.95ZM340.35626 64.95L340.35626 57.684372L341.46564 57.684372L341.46564 58.793747Q341.8875 58.012497 342.2469 57.778122Q342.60626 57.528122 343.04376 57.528122Q343.66876 57.528122 344.3094 57.918747L343.8875 59.059372Q343.4344 58.793747 342.98126 58.793747Q342.575 58.793747 342.2469 59.043747Q341.9344 59.278122 341.79376 59.715622Q341.59064 60.371872 341.59064 61.153122L341.59064 64.95L340.35626 64.95ZM350.1375 64.95L350.1375 63.887497Q349.27814 65.12187 347.825 65.12187Q347.1844 65.12187 346.6219 64.87187Q346.075 64.62187 345.79376 64.24687Q345.52814 63.871872 345.41876 63.340622Q345.34064 62.981247 345.34064 62.184372L345.34064 57.684372L346.575 57.684372L346.575 61.715622Q346.575 62.684372 346.65314 63.012497Q346.7625 63.496872 347.1375 63.778122Q347.5125 64.05937 348.075 64.05937Q348.6219 64.05937 349.10626 63.778122Q349.59064 63.481247 349.79376 62.996872Q349.9969 62.512497 349.9969 61.574997L349.9969 57.684372L351.23126 57.684372L351.23126 64.95L350.1375 64.95ZM353.3719 64.95L353.3719 57.684372L354.48126 57.684372L354.48126 58.715622Q355.27814 57.528122 356.79376 57.528122Q357.45 57.528122 357.9969 57.762497Q358.54376 57.996872 358.8094 58.387497Q359.09064 58.762497 359.2 59.293747Q359.27814 59.637497 359.27814 60.481247L359.27814 64.95L358.04376 64.95L358.04376 60.528122Q358.04376 59.778122 357.90314 59.418747Q357.7625 59.043747 357.3875 58.824997Q357.02814 58.590622 356.52814 58.590622Q355.7469 58.590622 355.16876 59.090622Q354.60626 59.590622 354.60626 60.981247L354.60626 64.95L353.3719 64.95ZM365.3875 56.340622L365.3875 54.934372L366.60626 54.934372L366.60626 56.340622L365.3875 56.340622ZM365.3875 64.95L365.3875 57.684372L366.60626 57.684372L366.60626 64.95L365.3875 64.95ZM368.3719 64.95L368.3719 57.684372L369.48126 57.684372L369.48126 58.715622Q370.27814 57.528122 371.79376 57.528122Q372.45 57.528122 372.9969 57.762497Q373.54376 57.996872 373.8094 58.387497Q374.09064 58.762497 374.2 59.293747Q374.27814 59.637497 374.27814 60.481247L374.27814 64.95L373.04376 64.95L373.04376 60.528122Q373.04376 59.778122 372.90314 59.418747Q372.7625 59.043747 372.3875 58.824997Q372.02814 58.590622 371.52814 58.590622Q370.7469 58.590622 370.16876 59.090622Q369.60626 59.590622 369.60626 60.981247L369.60626 64.95L368.3719 64.95ZM385.09064 64.95L385.09064 64.02812Q384.3875 65.12187 383.0594 65.12187Q382.1844 65.12187 381.45 64.6375Q380.73126 64.15312 380.325 63.293747Q379.9344 62.434372 379.9344 61.324997Q379.9344 60.246872 380.29376 59.356247Q380.65314 58.465622 381.3719 57.996872Q382.10626 57.528122 382.9969 57.528122Q383.65314 57.528122 384.16876 57.809372Q384.6844 58.074997 384.9969 58.528122L384.9969 54.934372L386.23126 54.934372L386.23126 64.95L385.09064 64.95ZM381.2 61.324997Q381.2 62.715622 381.77814 63.418747Q382.3719 64.10625 383.16876 64.10625Q383.98126 64.10625 384.54376 63.449997Q385.10626 62.778122 385.10626 61.434372Q385.10626 59.934372 384.52814 59.246872Q383.95 58.543747 383.1219 58.543747Q382.29376 58.543747 381.7469 59.215622Q381.2 59.887497 381.2 61.324997ZM393.34064 62.606247L394.6219 62.762497Q394.3094 63.887497 393.4969 64.5125Q392.6844 65.12187 391.41876 65.12187Q389.825 65.12187 388.8875 64.1375Q387.96564 63.153122 387.96564 61.387497Q387.96564 59.543747 388.90314 58.543747Q389.85626 57.528122 391.35626 57.528122Q392.8094 57.528122 393.73126 58.528122Q394.65314 59.512497 394.65314 61.309372Q394.65314 61.418747 394.65314 61.637497L389.23126 61.637497Q389.3094 62.824997 389.90314 63.465622Q390.5125 64.10625 391.4344 64.10625Q392.10626 64.10625 392.575 63.746872Q393.0594 63.387497 393.34064 62.606247ZM389.3094 60.621872L393.35626 60.621872Q393.27814 59.699997 392.8875 59.246872Q392.3094 58.543747 391.3719 58.543747Q390.5125 58.543747 389.9344 59.106247Q389.3719 59.668747 389.3094 60.621872ZM397.5125 64.95L396.3719 64.95L396.3719 54.934372L397.59064 54.934372L397.59064 58.496872Q398.3719 57.528122 399.59064 57.528122Q400.2625 57.528122 400.85626 57.793747Q401.45 58.059372 401.84064 58.559372Q402.23126 59.043747 402.45 59.731247Q402.66876 60.418747 402.66876 61.215622Q402.66876 63.074997 401.73126 64.10625Q400.8094 65.12187 399.52814 65.12187Q398.2469 65.12187 397.5125 64.04375L397.5125 64.95ZM397.4969 61.262497Q397.4969 62.574997 397.85626 63.153122Q398.4344 64.10625 399.41876 64.10625Q400.23126 64.10625 400.8094 63.403122Q401.40314 62.699997 401.40314 61.309372Q401.40314 59.887497 400.84064 59.215622Q400.27814 58.543747 399.48126 58.543747Q398.66876 58.543747 398.075 59.246872Q397.4969 59.934372 397.4969 61.262497ZM409.1375 64.95L409.1375 63.887497Q408.27814 65.12187 406.825 65.12187Q406.1844 65.12187 405.6219 64.87187Q405.075 64.62187 404.79376 64.24687Q404.52814 63.871872 404.41876 63.340622Q404.34064 62.981247 404.34064 62.184372L404.34064 57.684372L405.575 57.684372L405.575 61.715622Q405.575 62.684372 405.65314 63.012497Q405.7625 63.496872 406.1375 63.778122Q406.5125 64.05937 407.075 64.05937Q407.6219 64.05937 408.10626 63.778122Q408.59064 63.481247 408.79376 62.996872Q408.9969 62.512497 408.9969 61.574997L408.9969 57.684372L410.23126 57.684372L410.23126 64.95L409.1375 64.95ZM412.15314 65.55937L413.34064 65.73125Q413.41876 66.27812 413.7625 66.54375Q414.21564 66.87187 415.0125 66.87187Q415.8719 66.87187 416.325 66.52812Q416.79376 66.2 416.96564 65.575Q417.0594 65.2 417.04376 63.996872Q416.2469 64.95 415.04376 64.95Q413.54376 64.95 412.71564 63.871872Q411.90314 62.793747 411.90314 61.278122Q411.90314 60.246872 412.27814 59.371872Q412.65314 58.481247 413.35626 58.012497Q414.075 57.528122 415.04376 57.528122Q416.325 57.528122 417.16876 58.559372L417.16876 57.684372L418.29376 57.684372L418.29376 63.965622Q418.29376 65.66875 417.95 66.37187Q417.60626 67.075 416.85626 67.48125Q416.10626 67.90312 415.0125 67.90312Q413.71564 67.90312 412.91876 67.30937Q412.1219 66.73125 412.15314 65.55937ZM413.16876 61.184372Q413.16876 62.621872 413.73126 63.278122Q414.29376 63.934372 415.15314 63.934372Q415.9969 63.934372 416.575 63.278122Q417.15314 62.621872 417.15314 61.231247Q417.15314 59.903122 416.5594 59.231247Q415.96564 58.543747 415.1375 58.543747Q414.3094 58.543747 413.73126 59.215622Q413.16876 59.871872 413.16876 61.184372ZM424.3719 64.95L424.3719 57.684372L425.48126 57.684372L425.48126 58.715622Q425.8094 58.168747 426.3719 57.856247Q426.95 57.528122 427.66876 57.528122Q428.48126 57.528122 428.9969 57.871872Q429.5125 58.199997 429.73126 58.793747Q430.59064 57.528122 431.96564 57.528122Q433.04376 57.528122 433.6219 58.121872Q434.21564 58.715622 434.21564 59.965622L434.21564 64.95L432.98126 64.95L432.98126 60.371872Q432.98126 59.637497 432.85626 59.309372Q432.7469 58.981247 432.4344 58.793747Q432.1219 58.590622 431.7 58.590622Q430.9344 58.590622 430.41876 59.106247Q429.91876 59.606247 429.91876 60.731247L429.91876 64.95L428.6844 64.95L428.6844 60.231247Q428.6844 59.418747 428.3875 59.012497Q428.09064 58.590622 427.40314 58.590622Q426.8875 58.590622 426.4344 58.871872Q425.9969 59.137497 425.79376 59.668747Q425.60626 60.184372 425.60626 61.184372L425.60626 64.95L424.3719 64.95ZM434.91876 61.324997Q434.91876 59.309372 436.04376 58.324997Q436.96564 57.528122 438.325 57.528122Q439.8094 57.528122 440.7625 58.512497Q441.71564 59.481247 441.71564 61.215622Q441.71564 62.621872 441.29376 63.434372Q440.8719 64.23125 440.0594 64.68437Q439.2625 65.12187 438.325 65.12187Q436.79376 65.12187 435.85626 64.1375Q434.91876 63.153122 434.91876 61.324997ZM436.1844 61.324997Q436.1844 62.715622 436.79376 63.418747Q437.40314 64.10625 438.325 64.10625Q439.23126 64.10625 439.84064 63.403122Q440.45 62.699997 440.45 61.278122Q440.45 59.934372 439.84064 59.246872Q439.23126 58.543747 438.325 58.543747Q437.40314 58.543747 436.79376 59.231247Q436.1844 59.918747 436.1844 61.324997ZM448.09064 64.95L448.09064 64.02812Q447.3875 65.12187 446.0594 65.12187Q445.1844 65.12187 444.45 64.6375Q443.73126 64.15312 443.325 63.293747Q442.9344 62.434372 442.9344 61.324997Q442.9344 60.246872 443.29376 59.356247Q443.65314 58.465622 444.3719 57.996872Q445.10626 57.528122 445.9969 57.528122Q446.65314 57.528122 447.16876 57.809372Q447.6844 58.074997 447.9969 58.528122L447.9969 54.934372L449.23126 54.934372L449.23126 64.95L448.09064 64.95ZM444.2 61.324997Q444.2 62.715622 444.77814 63.418747Q445.3719 64.10625 446.16876 64.10625Q446.98126 64.10625 447.54376 63.449997Q448.10626 62.778122 448.10626 61.434372Q448.10626 59.934372 447.52814 59.246872Q446.95 58.543747 446.1219 58.543747Q445.29376 58.543747 444.7469 59.215622Q444.2 59.887497 444.2 61.324997ZM456.34064 62.606247L457.6219 62.762497Q457.3094 63.887497 456.4969 64.5125Q455.6844 65.12187 454.41876 65.12187Q452.825 65.12187 451.8875 64.1375Q450.96564 63.153122 450.96564 61.387497Q450.96564 59.543747 451.90314 58.543747Q452.85626 57.528122 454.35626 57.528122Q455.8094 57.528122 456.73126 58.528122Q457.65314 59.512497 457.65314 61.309372Q457.65314 61.418747 457.65314 61.637497L452.23126 61.637497Q452.3094 62.824997 452.90314 63.465622Q453.5125 64.10625 454.4344 64.10625Q455.10626 64.10625 455.575 63.746872Q456.0594 63.387497 456.34064 62.606247ZM452.3094 60.621872L456.35626 60.621872Q456.27814 59.699997 455.8875 59.246872Q455.3094 58.543747 454.3719 58.543747Q453.5125 58.543747 452.9344 59.106247Q452.3719 59.668747 452.3094 60.621872Z" fill-rule="nonzero"/><path fill="#757575" d="M22.090626 39.45L22.090626 25.1375L31.746876 25.1375L31.746876 26.825L23.98125 26.825L23.98125 31.2625L30.7 31.2625L30.7 32.95L23.98125 32.95L23.98125 39.45L22.090626 39.45ZM33.778126 27.153126L33.778126 25.1375L35.54375 25.1375L35.54375 27.153126L33.778126 27.153126ZM33.778126 39.45L33.778126 29.075L35.54375 29.075L35.54375 39.45L33.778126 39.45ZM37.73125 39.45L37.73125 25.1375L39.48125 25.1375L39.48125 39.45L37.73125 39.45ZM48.871876 36.10625L50.684376 36.340626Q50.2625 37.91875 49.090626 38.809376Q47.934376 39.684376 46.121876 39.684376Q43.85625 39.684376 42.5125 38.29375Q41.184376 36.8875 41.184376 34.35625Q41.184376 31.73125 42.528126 30.29375Q43.871876 28.840626 46.028126 28.840626Q48.10625 28.840626 49.41875 30.2625Q50.746876 31.66875 50.746876 34.246876Q50.746876 34.403126 50.73125 34.715626L42.996876 34.715626Q43.090626 36.41875 43.965626 37.325Q44.840626 38.23125 46.1375 38.23125Q47.10625 38.23125 47.778126 37.73125Q48.465626 37.215626 48.871876 36.10625ZM43.090626 33.2625L48.8875 33.2625Q48.778126 31.965626 48.23125 31.309376Q47.3875 30.29375 46.04375 30.29375Q44.840626 30.29375 44.0125 31.10625Q43.184376 31.903126 43.090626 33.2625ZM69.21562 34.434376L71.10625 34.903126Q70.5125 37.246876 68.96562 38.48125Q67.41875 39.7 65.16875 39.7Q62.85625 39.7 61.403126 38.7625Q59.965626 37.809376 59.2 36.028126Q58.45 34.23125 58.45 32.184376Q58.45 29.95 59.29375 28.29375Q60.153126 26.621876 61.73125 25.7625Q63.309376 24.8875 65.2 24.8875Q67.35625 24.8875 68.80937 25.98125Q70.27812 27.075 70.85625 29.059376L68.99687 29.496876Q68.49687 27.934376 67.54375 27.23125Q66.60625 26.5125 65.16875 26.5125Q63.5125 26.5125 62.403126 27.309376Q61.29375 28.090626 60.840626 29.434376Q60.403126 30.7625 60.403126 32.16875Q60.403126 33.996876 60.934376 35.371876Q61.465626 36.73125 62.590626 37.403126Q63.715626 38.075 65.0125 38.075Q66.60625 38.075 67.71562 37.153126Q68.825 36.23125 69.21562 34.434376ZM72.74687 39.45L72.74687 29.075L74.325 29.075L74.325 30.653126Q74.93437 29.54375 75.45 29.2Q75.96562 28.840626 76.575 28.840626Q77.46562 28.840626 78.3875 29.403126L77.77812 31.04375Q77.1375 30.653126 76.49687 30.653126Q75.91875 30.653126 75.45 31.0125Q74.99687 31.35625 74.79375 31.965626Q74.5125 32.903126 74.5125 34.0125L74.5125 39.45L72.74687 39.45ZM86.87187 36.10625L88.68437 36.340626Q88.2625 37.91875 87.09062 38.809376Q85.93437 39.684376 84.12187 39.684376Q81.85625 39.684376 80.5125 38.29375Q79.18437 36.8875 79.18437 34.35625Q79.18437 31.73125 80.52812 30.29375Q81.87187 28.840626 84.02812 28.840626Q86.10625 28.840626 87.41875 30.2625Q88.74687 31.66875 88.74687 34.246876Q88.74687 34.403126 88.73125 34.715626L80.99687 34.715626Q81.09062 36.41875 81.96562 37.325Q82.84062 38.23125 84.1375 38.23125Q85.10625 38.23125 85.77812 37.73125Q86.46562 37.215626 86.87187 36.10625ZM81.09062 33.2625L86.8875 33.2625Q86.77812 31.965626 86.23125 31.309376Q85.3875 30.29375 84.04375 30.29375Q82.84062 30.29375 82.0125 31.10625Q81.18437 31.903126 81.09062 33.2625ZM97.54375 38.16875Q96.55937 38.996876 95.65312 39.340626Q94.74687 39.684376 93.71562 39.684376Q92.0125 39.684376 91.09062 38.85625Q90.16875 38.0125 90.16875 36.715626Q90.16875 35.95 90.5125 35.325Q90.87187 34.7 91.43437 34.325Q91.99687 33.934376 92.7 33.73125Q93.21562 33.60625 94.2625 33.465626Q96.3875 33.215626 97.3875 32.871876Q97.40312 32.5125 97.40312 32.403126Q97.40312 31.340626 96.90312 30.8875Q96.23125 30.29375 94.90312 30.29375Q93.65312 30.29375 93.05937 30.73125Q92.48125 31.16875 92.2 32.278126L90.48125 32.04375Q90.71562 30.934376 91.24687 30.2625Q91.77812 29.575 92.79375 29.215626Q93.80937 28.840626 95.15312 28.840626Q96.48125 28.840626 97.30937 29.153126Q98.1375 29.465626 98.52812 29.95Q98.91875 30.41875 99.075 31.1375Q99.16875 31.590626 99.16875 32.7625L99.16875 35.10625Q99.16875 37.559376 99.27812 38.215626Q99.3875 38.85625 99.73125 39.45L97.8875 39.45Q97.62187 38.903126 97.54375 38.16875ZM97.3875 34.246876Q96.43437 34.6375 94.5125 34.903126Q93.43437 35.059376 92.98125 35.2625Q92.54375 35.45 92.29375 35.825Q92.04375 36.2 92.04375 36.66875Q92.04375 37.371876 92.575 37.840626Q93.10625 38.309376 94.1375 38.309376Q95.15312 38.309376 95.93437 37.871876Q96.73125 37.41875 97.10625 36.653126Q97.3875 36.04375 97.3875 34.8875L97.3875 34.246876ZM105.60625 37.871876L105.85625 39.434376Q105.12187 39.590626 104.52812 39.590626Q103.575 39.590626 103.04375 39.29375Q102.52812 38.98125 102.30937 38.496876Q102.09062 37.996876 102.09062 36.41875L102.09062 30.45L100.80937 30.45L100.80937 29.075L102.09062 29.075L102.09062 26.5125L103.84062 25.45L103.84062 29.075L105.60625 29.075L105.60625 30.45L103.84062 30.45L103.84062 36.5125Q103.84062 37.2625 103.93437 37.48125Q104.02812 37.684376 104.23125 37.825Q104.45 37.95 104.84062 37.95Q105.12187 37.95 105.60625 37.871876ZM107.77812 27.153126L107.77812 25.1375L109.54375 25.1375L109.54375 27.153126L107.77812 27.153126ZM107.77812 39.45L107.77812 29.075L109.54375 29.075L109.54375 39.45L107.77812 39.45ZM111.12187 34.2625Q111.12187 31.3875 112.71562 29.996876Q114.05937 28.840626 115.98125 28.840626Q118.12187 28.840626 119.46562 30.246876Q120.825 31.653126 120.825 34.121876Q120.825 36.121876 120.23125 37.278126Q119.6375 38.41875 118.48125 39.059376Q117.34062 39.684376 115.98125 39.684376Q113.79375 39.684376 112.45 38.29375Q111.12187 36.8875 111.12187 34.2625ZM112.91875 34.2625Q112.91875 36.2625 113.77812 37.246876Q114.65312 38.23125 115.98125 38.23125Q117.29375 38.23125 118.15312 37.246876Q119.02812 36.246876 119.02812 34.2Q119.02812 32.278126 118.15312 31.29375Q117.27812 30.29375 115.98125 30.29375Q114.65312 30.29375 113.77812 31.29375Q112.91875 32.278126 112.91875 34.2625ZM122.7625 39.45L122.7625 29.075L124.35625 29.075L124.35625 30.559376Q125.49687 28.840626 127.65312 28.840626Q128.59062 28.840626 129.37187 29.184376Q130.16875 29.5125 130.55937 30.059376Q130.95 30.60625 131.10625 31.35625Q131.2 31.85625 131.2 33.075L131.2 39.45L129.43437 39.45L129.43437 33.1375Q129.43437 32.059376 129.23125 31.528126Q129.02812 30.996876 128.49687 30.684376Q127.98125 30.371876 127.27812 30.371876Q126.15312 30.371876 125.34062 31.090626Q124.52812 31.79375 124.52812 33.778126L124.52812 39.45L122.7625 39.45ZM142.6375 39.45L142.6375 26.825L137.91875 26.825L137.91875 25.1375L149.2625 25.1375L149.2625 26.825L144.52812 26.825L144.52812 39.45L142.6375 39.45ZM150.77812 27.153126L150.77812 25.1375L152.54375 25.1375L152.54375 27.153126L150.77812 27.153126ZM150.77812 39.45L150.77812 29.075L152.54375 29.075L152.54375 39.45L150.77812 39.45ZM154.7625 39.45L154.7625 29.075L156.34062 29.075L156.34062 30.528126Q156.825 29.778126 157.6375 29.309376Q158.45 28.840626 159.48125 28.840626Q160.6375 28.840626 161.37187 29.325Q162.10625 29.79375 162.41875 30.653126Q163.65312 28.840626 165.62187 28.840626Q167.16875 28.840626 167.99687 29.7Q168.825 30.559376 168.825 32.325L168.825 39.45L167.075 39.45L167.075 32.91875Q167.075 31.85625 166.90312 31.403126Q166.73125 30.934376 166.27812 30.653126Q165.84062 30.371876 165.23125 30.371876Q164.1375 30.371876 163.40312 31.10625Q162.68437 31.825 162.68437 33.41875L162.68437 39.45L160.93437 39.45L160.93437 32.715626Q160.93437 31.54375 160.49687 30.965626Q160.075 30.371876 159.09062 30.371876Q158.35625 30.371876 157.71562 30.7625Q157.09062 31.153126 156.80937 31.903126Q156.52812 32.653126 156.52812 34.075L156.52812 39.45L154.7625 39.45ZM177.87187 36.10625L179.68437 36.340626Q179.2625 37.91875 178.09062 38.809376Q176.93437 39.684376 175.12187 39.684376Q172.85625 39.684376 171.5125 38.29375Q170.18437 36.8875 170.18437 34.35625Q170.18437 31.73125 171.52812 30.29375Q172.87187 28.840626 175.02812 28.840626Q177.10625 28.840626 178.41875 30.2625Q179.74687 31.66875 179.74687 34.246876Q179.74687 34.403126 179.73125 34.715626L171.99687 34.715626Q172.09062 36.41875 172.96562 37.325Q173.84062 38.23125 175.1375 38.23125Q176.10625 38.23125 176.77812 37.73125Q177.46562 37.215626 177.87187 36.10625ZM172.09062 33.2625L177.8875 33.2625Q177.77812 31.965626 177.23125 31.309376Q176.3875 30.29375 175.04375 30.29375Q173.84062 30.29375 173.0125 31.10625Q172.18437 31.903126 172.09062 33.2625ZM190.65312 39.45L186.7 29.075L188.55937 29.075L190.79375 35.29375Q191.15312 36.29375 191.45 37.371876Q191.68437 36.559376 192.10625 35.403126L194.40312 29.075L196.21562 29.075L192.29375 39.45L190.65312 39.45ZM196.05937 36.35625L197.80937 36.075Q197.95 37.121876 198.62187 37.684376Q199.29375 38.23125 200.49687 38.23125Q201.7 38.23125 202.27812 37.746876Q202.87187 37.246876 202.87187 36.590626Q202.87187 35.996876 202.35625 35.653126Q201.99687 35.41875 200.55937 35.059376Q198.62187 34.559376 197.87187 34.215626Q197.1375 33.85625 196.74687 33.23125Q196.35625 32.590626 196.35625 31.825Q196.35625 31.1375 196.66875 30.54375Q196.99687 29.95 197.54375 29.559376Q197.95 29.2625 198.65312 29.059376Q199.37187 28.840626 200.18437 28.840626Q201.40312 28.840626 202.325 29.2Q203.24687 29.54375 203.68437 30.153126Q204.12187 30.746876 204.29375 31.746876L202.575 31.98125Q202.45 31.184376 201.8875 30.746876Q201.325 30.29375 200.30937 30.29375Q199.09062 30.29375 198.575 30.7Q198.05937 31.090626 198.05937 31.621876Q198.05937 31.965626 198.27812 32.246876Q198.48125 32.528126 198.95 32.715626Q199.21562 32.809376 200.49687 33.153126Q202.37187 33.653126 203.10625 33.98125Q203.84062 34.29375 204.2625 34.903126Q204.68437 35.496876 204.68437 36.403126Q204.68437 37.278126 204.16875 38.059376Q203.65312 38.840626 202.68437 39.2625Q201.71562 39.684376 200.49687 39.684376Q198.48125 39.684376 197.41875 38.840626Q196.35625 37.996876 196.05937 36.35625ZM213.09062 39.45L213.09062 25.1375L222.74687 25.1375L222.74687 26.825L214.98125 26.825L214.98125 31.2625L221.7 31.2625L221.7 32.95L214.98125 32.95L214.98125 39.45L213.09062 39.45ZM224.77812 27.153126L224.77812 25.1375L226.54375 25.1375L226.54375 27.153126L224.77812 27.153126ZM224.77812 39.45L224.77812 29.075L226.54375 29.075L226.54375 39.45L224.77812 39.45ZM228.73125 39.45L228.73125 25.1375L230.48125 25.1375L230.48125 39.45L228.73125 39.45ZM239.87187 36.10625L241.68437 36.340626Q241.2625 37.91875 240.09062 38.809376Q238.93437 39.684376 237.12187 39.684376Q234.85625 39.684376 233.5125 38.29375Q232.18437 36.8875 232.18437 34.35625Q232.18437 31.73125 233.52812 30.29375Q234.87187 28.840626 237.02812 28.840626Q239.10625 28.840626 240.41875 30.2625Q241.74687 31.66875 241.74687 34.246876Q241.74687 34.403126 241.73125 34.715626L233.99687 34.715626Q234.09062 36.41875 234.96562 37.325Q235.84062 38.23125 237.1375 38.23125Q238.10625 38.23125 238.77812 37.73125Q239.46562 37.215626 239.87187 36.10625ZM234.09062 33.2625L239.8875 33.2625Q239.77812 31.965626 239.23125 31.309376Q238.3875 30.29375 237.04375 30.29375Q235.84062 30.29375 235.0125 31.10625Q234.18437 31.903126 234.09062 33.2625ZM249.35625 34.85625L251.1375 34.7Q251.2625 35.7625 251.71562 36.45Q252.18437 37.1375 253.15312 37.575Q254.1375 37.996876 255.37187 37.996876Q256.45 37.996876 257.27814 37.684376Q258.10626 37.35625 258.5125 36.79375Q258.91876 36.23125 258.91876 35.559376Q258.91876 34.8875 258.52814 34.3875Q258.1375 33.8875 257.2469 33.54375Q256.66876 33.309376 254.68437 32.840626Q252.71562 32.371876 251.93437 31.95Q250.90312 31.41875 250.40312 30.621876Q249.90312 29.825 249.90312 28.840626Q249.90312 27.746876 250.5125 26.809376Q251.12187 25.871876 252.30937 25.3875Q253.49687 24.8875 254.93437 24.8875Q256.52814 24.8875 257.7469 25.403126Q258.96564 25.91875 259.60626 26.91875Q260.2625 27.903126 260.3094 29.16875L258.4969 29.309376Q258.35626 27.95 257.5125 27.2625Q256.66876 26.559376 255.0125 26.559376Q253.29375 26.559376 252.49687 27.2Q251.71562 27.825 251.71562 28.7Q251.71562 29.48125 252.27812 29.98125Q252.825 30.48125 255.1375 30.996876Q257.45 31.5125 258.3094 31.903126Q259.5594 32.48125 260.15314 33.371876Q260.7469 34.246876 260.7469 35.403126Q260.7469 36.54375 260.09064 37.559376Q259.4344 38.575 258.2 39.1375Q256.98126 39.7 255.45 39.7Q253.5125 39.7 252.2 39.1375Q250.8875 38.559376 250.1375 37.41875Q249.3875 36.278126 249.35625 34.85625ZM262.77814 27.153126L262.77814 25.1375L264.54376 25.1375L264.54376 27.153126L262.77814 27.153126ZM262.77814 39.45L262.77814 29.075L264.54376 29.075L264.54376 39.45L262.77814 39.45ZM265.84064 39.45L265.84064 38.028126L272.45 30.45Q271.325 30.496876 270.46564 30.496876L266.23126 30.496876L266.23126 29.075L274.71564 29.075L274.71564 30.246876L269.09064 36.825L268.0125 38.028126Q269.1844 37.934376 270.23126 37.934376L275.02814 37.934376L275.02814 39.45L265.84064 39.45ZM282.8719 36.10625L284.6844 36.340626Q284.2625 37.91875 283.09064 38.809376Q281.9344 39.684376 280.1219 39.684376Q277.85626 39.684376 276.5125 38.29375Q275.1844 36.8875 275.1844 34.35625Q275.1844 31.73125 276.52814 30.29375Q277.8719 28.840626 280.02814 28.840626Q282.10626 28.840626 283.41876 30.2625Q284.7469 31.66875 284.7469 34.246876Q284.7469 34.403126 284.73126 34.715626L276.9969 34.715626Q277.09064 36.41875 277.96564 37.325Q278.84064 38.23125 280.1375 38.23125Q281.10626 38.23125 281.77814 37.73125Q282.46564 37.215626 282.8719 36.10625ZM277.09064 33.2625L282.8875 33.2625Q282.77814 31.965626 282.23126 31.309376Q281.3875 30.29375 280.04376 30.29375Q278.84064 30.29375 278.0125 31.10625Q277.1844 31.903126 277.09064 33.2625Z" fill-rule="nonzero"/></svg>