<svg version="1.1" viewBox="0.0 0.0 668.0 409.0" fill="none" stroke="none" stroke-linecap="square" stroke-miterlimit="10" width="668" height="409" xmlns:xlink="http://www.w3.org/1999/xlink" xmlns="http://www.w3.org/2000/svg"><path fill="#ffffff" d="M0 0L668.0 0L668.0 409.0L0 409.0L0 0Z" fill-rule="nonzero"/><path stroke="#cccccc" stroke-width="1.0" stroke-linecap="butt" d="M161.5 65.5L161.5 336.5" fill-rule="nonzero"/><path stroke="#cccccc" stroke-width="1.0" stroke-linecap="butt" d="M243.5 65.5L243.5 336.5" fill-rule="nonzero"/><path stroke="#cccccc" stroke-width="1.0" stroke-linecap="butt" d="M326.5 65.5L326.5 336.5" fill-rule="nonzero"/><path stroke="#cccccc" stroke-width="1.0" stroke-linecap="butt" d="M408.5 65.5L408.5 336.5" fill-rule="nonzero"/><path stroke="#cccccc" stroke-width="1.0" stroke-linecap="butt" d="M490.5 65.5L490.5 336.5" fill-rule="nonzero"/><path stroke="#cccccc" stroke-width="1.0" stroke-linecap="butt" d="M572.5 65.5L572.5 336.5" fill-rule="nonzero"/><path stroke="#333333" stroke-width="1.0" stroke-linecap="butt" d="M79.5 336.5L647.5 336.5" fill-rule="nonzero"/><path stroke="#cccccc" stroke-width="1.0" stroke-linecap="butt" d="M79.5 246.5L647.5 246.5" fill-rule="nonzero"/><path stroke="#cccccc" stroke-width="1.0" stroke-linecap="butt" d="M79.5 155.5L647.5 155.5" fill-rule="nonzero"/><path stroke="#cccccc" stroke-width="1.0" stroke-linecap="butt" d="M79.5 65.5L647.5 65.5" fill-rule="nonzero"/><clipPath id="id_0"><path d="M79.45 65.083336L647.55 65.083336L647.55 336.55L79.45 336.55L79.45 65.083336Z" clip-rule="nonzero"/></clipPath><path stroke="#4285f4" stroke-width="2.0" stroke-linecap="butt" clip-path="url(#id_0)" d="M79.45 336.53876L79.45004 336.53964L79.45013 336.5397L79.45029 336.53967L79.450714 336.5396L79.45164 336.53943L79.453476 336.53958L79.45763 336.53818L79.467094 336.5394L79.486046 336.53943L79.52433 336.53928L79.61697 336.53943L79.80223 336.53903L80.17275 336.53864L81.01881 336.53815L82.770386 336.53592L86.273544 336.52176L93.79092 336.49686L109.95934 336.399L142.29619 335.11023L207.76884 324.36768L354.36255 254.22261L647.55 93.32449" fill-rule="nonzero"/><path fill="#000000" fill-opacity="0.0" clip-path="url(#id_0)" d="M82.45 336.53876C82.45 338.19562 81.10686 339.53876 79.45 339.53876C77.793144 339.53876 76.45 338.19562 76.45 336.53876C76.45 334.8819 77.793144 333.53876 79.45 333.53876C81.10686 333.53876 82.45 334.8819 82.45 336.53876Z" fill-rule="nonzero"/><path fill="#000000" fill-opacity="0.0" clip-path="url(#id_0)" d="M82.45004 336.53964C82.45004 338.1965 81.106895 339.53964 79.45004 339.53964C77.79319 339.53964 76.45004 338.1965 76.45004 336.53964C76.45004 334.8828 77.79319 333.53964 79.45004 333.53964C81.106895 333.53964 82.45004 334.8828 82.45004 336.53964Z" fill-rule="nonzero"/><path fill="#000000" fill-opacity="0.0" clip-path="url(#id_0)" d="M82.45013 336.5397C82.45013 338.19656 81.10698 339.5397 79.45013 339.5397C77.79327 339.5397 76.45013 338.19656 76.45013 336.5397C76.45013 334.88284 77.79327 333.5397 79.45013 333.5397C81.10698 333.5397 82.45013 334.88284 82.45013 336.5397Z" fill-rule="nonzero"/><path fill="#000000" fill-opacity="0.0" clip-path="url(#id_0)" d="M82.45029 336.53967C82.45029 338.19653 81.10714 339.53967 79.45029 339.53967C77.793434 339.53967 76.45029 338.19653 76.45029 336.53967C76.45029 334.88284 77.793434 333.53967 79.45029 333.53967C81.10714 333.53967 82.45029 334.88284 82.45029 336.53967Z" fill-rule="nonzero"/><path fill="#000000" fill-opacity="0.0" clip-path="url(#id_0)" d="M82.450714 336.5396C82.450714 338.19647 81.10757 339.5396 79.450714 339.5396C77.79386 339.5396 76.450714 338.19647 76.450714 336.5396C76.450714 334.88278 77.79386 333.5396 79.450714 333.5396C81.10757 333.5396 82.450714 334.88278 82.450714 336.5396Z" fill-rule="nonzero"/><path fill="#000000" fill-opacity="0.0" clip-path="url(#id_0)" d="M82.45164 336.53943C82.45164 338.1963 81.10849 339.53943 79.45164 339.53943C77.794785 339.53943 76.45164 338.1963 76.45164 336.53943C76.45164 334.88257 77.794785 333.53943 79.45164 333.53943C81.10849 333.53943 82.45164 334.88257 82.45164 336.53943Z" fill-rule="nonzero"/><path fill="#000000" fill-opacity="0.0" clip-path="url(#id_0)" d="M82.453476 336.53958C82.453476 338.19644 81.11034 339.53958 79.453476 339.53958C77.79662 339.53958 76.453476 338.19644 76.453476 336.53958C76.453476 334.88275 77.79662 333.53958 79.453476 333.53958C81.11034 333.53958 82.453476 334.88275 82.453476 336.53958Z" fill-rule="nonzero"/><path fill="#000000" fill-opacity="0.0" clip-path="url(#id_0)" d="M82.45763 336.53818C82.45763 338.19504 81.11448 339.53818 79.45763 339.53818C77.800766 339.53818 76.45763 338.19504 76.45763 336.53818C76.45763 334.88132 77.800766 333.53818 79.45763 333.53818C81.11448 333.53818 82.45763 334.88132 82.45763 336.53818Z" fill-rule="nonzero"/><path fill="#000000" fill-opacity="0.0" clip-path="url(#id_0)" d="M82.467094 336.5394C82.467094 338.19626 81.123955 339.5394 79.467094 339.5394C77.81024 339.5394 76.467094 338.19626 76.467094 336.5394C76.467094 334.88254 77.81024 333.5394 79.467094 333.5394C81.123955 333.5394 82.467094 334.88254 82.467094 336.5394Z" fill-rule="nonzero"/><path fill="#000000" fill-opacity="0.0" clip-path="url(#id_0)" d="M82.486046 336.53943C82.486046 338.1963 81.1429 339.53943 79.486046 339.53943C77.82919 339.53943 76.486046 338.1963 76.486046 336.53943C76.486046 334.8826 77.82919 333.53943 79.486046 333.53943C81.1429 333.53943 82.486046 334.8826 82.486046 336.53943Z" fill-rule="nonzero"/><path fill="#000000" fill-opacity="0.0" clip-path="url(#id_0)" d="M82.52433 336.53928C82.52433 338.1961 81.18119 339.53928 79.52433 339.53928C77.86748 339.53928 76.52433 338.1961 76.52433 336.53928C76.52433 334.88242 77.86748 333.53928 79.52433 333.53928C81.18119 333.53928 82.52433 334.88242 82.52433 336.53928Z" fill-rule="nonzero"/><path fill="#000000" fill-opacity="0.0" clip-path="url(#id_0)" d="M82.61697 336.53943C82.61697 338.1963 81.27382 339.53943 79.61697 339.53943C77.96011 339.53943 76.61697 338.1963 76.61697 336.53943C76.61697 334.88257 77.96011 333.53943 79.61697 333.53943C81.27382 333.53943 82.61697 334.88257 82.61697 336.53943Z" fill-rule="nonzero"/><path fill="#000000" fill-opacity="0.0" clip-path="url(#id_0)" d="M82.80223 336.53903C82.80223 338.19586 81.45908 339.53903 79.80223 339.53903C78.14538 339.53903 76.80223 338.19586 76.80223 336.53903C76.80223 334.88217 78.14538 333.53903 79.80223 333.53903C81.45908 333.53903 82.80223 334.88217 82.80223 336.53903Z" fill-rule="nonzero"/><path fill="#000000" fill-opacity="0.0" clip-path="url(#id_0)" d="M83.17275 336.53864C83.17275 338.1955 81.82961 339.53864 80.17275 339.53864C78.5159 339.53864 77.17275 338.1955 77.17275 336.53864C77.17275 334.88177 78.5159 333.53864 80.17275 333.53864C81.82961 333.53864 83.17275 334.88177 83.17275 336.53864Z" fill-rule="nonzero"/><path fill="#000000" fill-opacity="0.0" clip-path="url(#id_0)" d="M84.01881 336.53815C84.01881 338.195 82.67566 339.53815 81.01881 339.53815C79.36195 339.53815 78.01881 338.195 78.01881 336.53815C78.01881 334.8813 79.36195 333.53815 81.01881 333.53815C82.67566 333.53815 84.01881 334.8813 84.01881 336.53815Z" fill-rule="nonzero"/><path fill="#000000" fill-opacity="0.0" clip-path="url(#id_0)" d="M85.770386 336.53592C85.770386 338.19278 84.42724 339.53592 82.770386 339.53592C81.11353 339.53592 79.770386 338.19278 79.770386 336.53592C79.770386 334.8791 81.11353 333.53592 82.770386 333.53592C84.42724 333.53592 85.770386 334.8791 85.770386 336.53592Z" fill-rule="nonzero"/><path fill="#000000" fill-opacity="0.0" clip-path="url(#id_0)" d="M89.273544 336.52176C89.273544 338.17862 87.9304 339.52176 86.273544 339.52176C84.61669 339.52176 83.273544 338.17862 83.273544 336.52176C83.273544 334.8649 84.61669 333.52176 86.273544 333.52176C87.9304 333.52176 89.273544 334.8649 89.273544 336.52176Z" fill-rule="nonzero"/><path fill="#000000" fill-opacity="0.0" clip-path="url(#id_0)" d="M96.79092 336.49686C96.79092 338.15372 95.44777 339.49686 93.79092 339.49686C92.13406 339.49686 90.79092 338.15372 90.79092 336.49686C90.79092 334.84 92.13406 333.49686 93.79092 333.49686C95.44777 333.49686 96.79092 334.84 96.79092 336.49686Z" fill-rule="nonzero"/><path fill="#000000" fill-opacity="0.0" clip-path="url(#id_0)" d="M112.95934 336.399C112.95934 338.05585 111.616196 339.399 109.95934 339.399C108.30249 339.399 106.95934 338.05585 106.95934 336.399C106.95934 334.74213 108.30249 333.399 109.95934 333.399C111.616196 333.399 112.95934 334.74213 112.95934 336.399Z" fill-rule="nonzero"/><path fill="#000000" fill-opacity="0.0" clip-path="url(#id_0)" d="M145.29619 335.11023C145.29619 336.7671 143.95305 338.11023 142.29619 338.11023C140.63934 338.11023 139.29619 336.7671 139.29619 335.11023C139.29619 333.45337 140.63934 332.11023 142.29619 332.11023C143.95305 332.11023 145.29619 333.45337 145.29619 335.11023Z" fill-rule="nonzero"/><path fill="#000000" fill-opacity="0.0" clip-path="url(#id_0)" d="M210.76884 324.36768C210.76884 326.02454 209.42569 327.36768 207.76884 327.36768C206.11198 327.36768 204.76884 326.02454 204.76884 324.36768C204.76884 322.71082 206.11198 321.36768 207.76884 321.36768C209.42569 321.36768 210.76884 322.71082 210.76884 324.36768Z" fill-rule="nonzero"/><path fill="#000000" fill-opacity="0.0" clip-path="url(#id_0)" d="M357.36255 254.22261C357.36255 255.87946 356.0194 257.2226 354.36255 257.2226C352.70572 257.2226 351.36255 255.87946 351.36255 254.22261C351.36255 252.56575 352.70572 251.22261 354.36255 251.22261C356.0194 251.22261 357.36255 252.56575 357.36255 254.22261Z" fill-rule="nonzero"/><path fill="#000000" fill-opacity="0.0" clip-path="url(#id_0)" d="M650.55 93.32449C650.55 94.981346 649.20685 96.32449 647.55 96.32449C645.8931 96.32449 644.55 94.981346 644.55 93.32449C644.55 91.66764 645.8931 90.32449 647.55 90.32449C649.20685 90.32449 650.55 91.66764 650.55 93.32449Z" fill-rule="nonzero"/><path fill="#000000" d="M327.48438 385.55L327.48438 376.95624L333.28125 376.95624L333.28125 377.97186L328.625 377.97186L328.625 380.6281L332.65625 380.6281L332.65625 381.64374L328.625 381.64374L328.625 385.55L327.48438 385.55ZM334.29688 378.175L334.29688 376.95624L335.35938 376.95624L335.35938 378.175L334.29688 378.175ZM334.29688 385.55L334.29688 379.33124L335.35938 379.33124L335.35938 385.55L334.29688 385.55ZM337.26562 385.55L337.26562 376.95624L338.32812 376.95624L338.32812 385.55L337.26562 385.55ZM344.54688 383.55L345.64062 383.675Q345.39062 384.6281 344.6875 385.15936Q343.98438 385.6906 342.90625 385.6906Q341.54688 385.6906 340.73438 384.84686Q339.9375 384.0031 339.9375 382.4875Q339.9375 380.925 340.75 380.0656Q341.5625 379.1906 342.84375 379.1906Q344.09375 379.1906 344.875 380.03436Q345.67188 380.8781 345.67188 382.425Q345.67188 382.51874 345.67188 382.70624L341.03125 382.70624Q341.09375 383.7375 341.60938 384.28436Q342.125 384.8156 342.90625 384.8156Q343.48438 384.8156 343.89062 384.51874Q344.3125 384.20624 344.54688 383.55ZM341.09375 381.84686L344.5625 381.84686Q344.5 381.05 344.17188 380.65936Q343.65625 380.05 342.85938 380.05Q342.125 380.05 341.625 380.53436Q341.14062 381.01874 341.09375 381.84686ZM350.04688 382.78436L351.10938 382.6906Q351.1875 383.34686 351.46875 383.7531Q351.75 384.15936 352.32812 384.425Q352.92188 384.675 353.65625 384.675Q354.29688 384.675 354.79688 384.4875Q355.29688 384.28436 355.53125 383.95624Q355.78125 383.6125 355.78125 383.22186Q355.78125 382.8156 355.54688 382.51874Q355.3125 382.20624 354.78125 382.0031Q354.42188 381.8625 353.23438 381.58124Q352.0625 381.3 351.59375 381.05Q350.96875 380.72186 350.67188 380.2531Q350.375 379.76874 350.375 379.175Q350.375 378.53436 350.73438 377.97186Q351.10938 377.39374 351.8125 377.1125Q352.53125 376.8156 353.39062 376.8156Q354.34375 376.8156 355.07812 377.1281Q355.8125 377.425 356.20312 378.03436Q356.59375 378.6281 356.625 379.3781L355.53125 379.45624Q355.4375 378.64374 354.92188 378.2375Q354.42188 377.8156 353.4375 377.8156Q352.40625 377.8156 351.9375 378.1906Q351.46875 378.5656 351.46875 379.09686Q351.46875 379.5656 351.79688 379.8625Q352.125 380.15936 353.5 380.47186Q354.89062 380.78436 355.40625 381.01874Q356.15625 381.3781 356.51562 381.90936Q356.875 382.425 356.875 383.1281Q356.875 383.8156 356.48438 384.425Q356.09375 385.01874 355.35938 385.3625Q354.625 385.6906 353.70312 385.6906Q352.53125 385.6906 351.73438 385.3625Q350.95312 385.01874 350.5 384.33124Q350.0625 383.64374 350.04688 382.78436ZM358.29688 378.175L358.29688 376.95624L359.35938 376.95624L359.35938 378.175L358.29688 378.175ZM358.29688 385.55L358.29688 379.33124L359.35938 379.33124L359.35938 385.55L358.29688 385.55ZM360.73438 385.55L360.73438 384.6906L364.70312 380.14374Q364.01562 380.175 363.5 380.175L360.96875 380.175L360.96875 379.33124L366.0625 379.33124L366.0625 380.01874L362.6875 383.97186L362.03125 384.6906Q362.75 384.64374 363.35938 384.64374L366.25 384.64374L366.25 385.55L360.73438 385.55ZM370.54688 383.55L371.64062 383.675Q371.39062 384.6281 370.6875 385.15936Q369.98438 385.6906 368.90625 385.6906Q367.54688 385.6906 366.73438 384.84686Q365.9375 384.0031 365.9375 382.4875Q365.9375 380.925 366.75 380.0656Q367.5625 379.1906 368.84375 379.1906Q370.09375 379.1906 370.875 380.03436Q371.67188 380.8781 371.67188 382.425Q371.67188 382.51874 371.67188 382.70624L367.03125 382.70624Q367.09375 383.7375 367.60938 384.28436Q368.125 384.8156 368.90625 384.8156Q369.48438 384.8156 369.89062 384.51874Q370.3125 384.20624 370.54688 383.55ZM367.09375 381.84686L370.5625 381.84686Q370.5 381.05 370.17188 380.65936Q369.65625 380.05 368.85938 380.05Q368.125 380.05 367.625 380.53436Q367.14062 381.01874 367.09375 381.84686ZM378.3125 388.08124Q377.4375 386.97186 376.82812 385.5031Q376.23438 384.01874 376.23438 382.4406Q376.23438 381.05 376.67188 379.76874Q377.20312 378.28436 378.3125 376.8156L379.0625 376.8156Q378.35938 378.03436 378.125 378.55Q377.76562 379.3625 377.5625 380.2375Q377.3125 381.33124 377.3125 382.4406Q377.3125 385.26874 379.0625 388.08124L378.3125 388.08124ZM380.39062 385.55L380.39062 376.95624L382.10938 376.95624L384.14062 383.03436Q384.42188 383.89374 384.54688 384.3156Q384.6875 383.84686 385.0 382.9406L387.0625 376.95624L388.59375 376.95624L388.59375 385.55L387.5 385.55L387.5 378.3625L385.0 385.55L383.96875 385.55L381.48438 378.2375L381.48438 385.55L380.39062 385.55ZM389.375 385.55L389.375 376.95624L392.60938 376.95624Q393.59375 376.95624 394.1875 377.22186Q394.78125 377.4875 395.10938 378.03436Q395.45312 378.5656 395.45312 379.15936Q395.45312 379.70624 395.15625 380.1906Q394.85938 380.675 394.25 380.97186Q395.03125 381.20624 395.4375 381.76874Q395.85938 382.3156 395.85938 383.0656Q395.85938 383.65936 395.60938 384.1906Q395.35938 384.70624 394.98438 384.9875Q394.60938 385.26874 394.03125 385.40936Q393.46875 385.55 392.65625 385.55L389.375 385.55ZM390.51562 380.5656L392.375 380.5656Q393.125 380.5656 393.45312 380.47186Q393.89062 380.34686 394.10938 380.05Q394.32812 379.7375 394.32812 379.28436Q394.32812 378.8625 394.125 378.53436Q393.92188 378.20624 393.53125 378.09686Q393.15625 377.97186 392.23438 377.97186L390.51562 377.97186L390.51562 380.5656ZM390.51562 384.53436L392.65625 384.53436Q393.20312 384.53436 393.42188 384.4875Q393.82812 384.425 394.07812 384.26874Q394.34375 384.09686 394.51562 383.78436Q394.6875 383.47186 394.6875 383.0656Q394.6875 382.58124 394.4375 382.22186Q394.20312 381.8625 393.76562 381.72186Q393.32812 381.58124 392.5 381.58124L390.51562 381.58124L390.51562 384.53436ZM397.98438 388.08124L397.23438 388.08124Q398.98438 385.26874 398.98438 382.4406Q398.98438 381.34686 398.73438 380.2531Q398.53125 379.3781 398.17188 378.5656Q397.9375 378.05 397.23438 376.8156L397.98438 376.8156Q399.07812 378.28436 399.60938 379.76874Q400.0625 381.05 400.0625 382.4406Q400.0625 384.01874 399.45312 385.5031Q398.84375 386.97186 397.98438 388.08124Z" fill-rule="nonzero"/><path fill="#000000" d="M31.449987 229.20729L23.871862 229.20729L23.871862 232.03542L22.856237 232.03542L22.856237 225.22292L23.871862 225.22292L23.871862 228.06667L31.449987 228.06667L31.449987 229.20729ZM24.074987 224.51979L22.856237 224.51979L22.856237 223.45729L24.074987 223.45729L24.074987 224.51979ZM31.449987 224.51979L25.231237 224.51979L25.231237 223.45729L31.449987 223.45729L31.449987 224.51979ZM31.449987 221.51979L25.231237 221.51979L25.231237 220.58229L26.106237 220.58229Q25.637487 220.28542 25.371862 219.80104Q25.090612 219.31667 25.090612 218.69167Q25.090612 218.00417 25.371862 217.56667Q25.653112 217.11354 26.168737 216.94167Q25.090612 216.19167 25.090612 215.01979Q25.090612 214.08229 25.606237 213.59792Q26.106237 213.09792 27.184362 213.09792L31.449987 213.09792L31.449987 214.14479L27.528112 214.14479Q26.903112 214.14479 26.621862 214.25417Q26.340612 214.34792 26.168737 214.61354Q25.996862 214.87917 25.996862 215.25417Q25.996862 215.91042 26.434362 216.34792Q26.871862 216.76979 27.840612 216.76979L31.449987 216.76979L31.449987 217.83229L27.403112 217.83229Q26.699987 217.83229 26.356237 218.09792Q25.996862 218.34792 25.996862 218.92604Q25.996862 219.37917 26.231237 219.75417Q26.465612 220.12917 26.918737 220.30104Q27.371862 220.47292 28.215612 220.47292L31.449987 220.47292L31.449987 221.51979ZM29.449987 206.26979L29.574987 205.17604Q30.528112 205.42604 31.059362 206.12917Q31.590612 206.83229 31.590612 207.91042Q31.590612 209.26979 30.746862 210.08229Q29.903112 210.87917 28.387487 210.87917Q26.824987 210.87917 25.965612 210.06667Q25.090612 209.25417 25.090612 207.97292Q25.090612 206.72292 25.934362 205.94167Q26.778112 205.14479 28.324987 205.14479Q28.418737 205.14479 28.606237 205.14479L28.606237 209.78542Q29.637487 209.72292 30.184362 209.20729Q30.715612 208.69167 30.715612 207.91042Q30.715612 207.33229 30.418737 206.92604Q30.106237 206.50417 29.449987 206.26979ZM27.746862 209.72292L27.746862 206.25417Q26.949987 206.31667 26.559362 206.64479Q25.949987 207.16042 25.949987 207.95729Q25.949987 208.69167 26.434362 209.19167Q26.918737 209.67604 27.746862 209.72292ZM33.98124 198.50417Q32.871864 199.37917 31.403112 199.98854Q29.918737 200.58229 28.340612 200.58229Q26.949987 200.58229 25.668737 200.14479Q24.184362 199.61354 22.715612 198.50417L22.715612 197.75417Q23.934362 198.45729 24.449987 198.69167Q25.262487 199.05104 26.137487 199.25417Q27.231237 199.50417 28.340612 199.50417Q31.168737 199.50417 33.98124 197.75417L33.98124 198.50417ZM31.449987 196.51979L25.231237 196.51979L25.231237 195.58229L26.106237 195.58229Q25.637487 195.28542 25.371862 194.80104Q25.090612 194.31667 25.090612 193.69167Q25.090612 193.00417 25.371862 192.56667Q25.653112 192.11354 26.168737 191.94167Q25.090612 191.19167 25.090612 190.01979Q25.090612 189.08229 25.606237 188.59792Q26.106237 188.09792 27.184362 188.09792L31.449987 188.09792L31.449987 189.14479L27.528112 189.14479Q26.903112 189.14479 26.621862 189.25417Q26.340612 189.34792 26.168737 189.61354Q25.996862 189.87917 25.996862 190.25417Q25.996862 190.91042 26.434362 191.34792Q26.871862 191.76979 27.840612 191.76979L31.449987 191.76979L31.449987 192.83229L27.403112 192.83229Q26.699987 192.83229 26.356237 193.09792Q25.996862 193.34792 25.996862 193.92604Q25.996862 194.37917 26.231237 194.75417Q26.465612 195.12917 26.918737 195.30104Q27.371862 195.47292 28.215612 195.47292L31.449987 195.47292L31.449987 196.51979ZM33.98124 184.83229L33.98124 185.58229Q31.168737 183.83229 28.340612 183.83229Q27.246862 183.83229 26.153112 184.08229Q25.278112 184.28542 24.465612 184.64479Q23.949987 184.87917 22.715612 185.58229L22.715612 184.83229Q24.184362 183.73854 25.668737 183.20729Q26.949987 182.75417 28.340612 182.75417Q29.918737 182.75417 31.403112 183.36354Q32.871864 183.97292 33.98124 184.83229Z" fill-rule="nonzero"/><path fill="#000000" d="M66.95 336.3156Q66.95 334.78436 67.2625 333.8625Q67.575 332.925 68.18437 332.425Q68.80937 331.925 69.74687 331.925Q70.43437 331.925 70.95 332.20624Q71.48125 332.4875 71.825 333.01874Q72.16875 333.53436 72.35625 334.28436Q72.54375 335.03436 72.54375 336.3156Q72.54375 337.83124 72.23125 338.7531Q71.93437 339.675 71.30937 340.1906Q70.7 340.6906 69.74687 340.6906Q68.5125 340.6906 67.79375 339.8Q66.95 338.7375 66.95 336.3156ZM68.02812 336.3156Q68.02812 338.425 68.52812 339.1281Q69.02812 339.83124 69.74687 339.83124Q70.48125 339.83124 70.96562 339.1281Q71.46562 338.425 71.46562 336.3156Q71.46562 334.1906 70.96562 333.5031Q70.48125 332.8 69.73125 332.8Q69.0125 332.8 68.575 333.40936Q68.02812 334.1906 68.02812 336.3156Z" fill-rule="nonzero"/><path fill="#000000" d="M56.91875 250.06111L55.871876 250.06111L55.871876 243.34236Q55.48125 243.70174 54.85625 244.07674Q54.246876 244.43611 53.7625 244.60799L53.7625 243.59236Q54.6375 243.17049 55.29375 242.59236Q55.965626 241.99861 56.246876 241.43611L56.91875 241.43611L56.91875 250.06111ZM59.95 245.82674Q59.95 244.29549 60.2625 243.37361Q60.575 242.43611 61.184376 241.93611Q61.809376 241.43611 62.746876 241.43611Q63.434376 241.43611 63.95 241.71736Q64.48125 241.99861 64.825 242.52986Q65.16875 243.04549 65.35625 243.79549Q65.54375 244.54549 65.54375 245.82674Q65.54375 247.34236 65.23125 248.26424Q64.93437 249.18611 64.30937 249.70174Q63.7 250.20174 62.746876 250.20174Q61.5125 250.20174 60.79375 249.31111Q59.95 248.24861 59.95 245.82674ZM61.028126 245.82674Q61.028126 247.93611 61.528126 248.63924Q62.028126 249.34236 62.746876 249.34236Q63.48125 249.34236 63.965626 248.63924Q64.46562 247.93611 64.46562 245.82674Q64.46562 243.70174 63.965626 243.01424Q63.48125 242.31111 62.73125 242.31111Q62.0125 242.31111 61.575 242.92049Q61.028126 243.70174 61.028126 245.82674ZM66.95 245.82674Q66.95 244.29549 67.2625 243.37361Q67.575 242.43611 68.18437 241.93611Q68.80937 241.43611 69.74687 241.43611Q70.43437 241.43611 70.95 241.71736Q71.48125 241.99861 71.825 242.52986Q72.16875 243.04549 72.35625 243.79549Q72.54375 244.54549 72.54375 245.82674Q72.54375 247.34236 72.23125 248.26424Q71.93437 249.18611 71.30937 249.70174Q70.7 250.20174 69.74687 250.20174Q68.5125 250.20174 67.79375 249.31111Q66.95 248.24861 66.95 245.82674ZM68.02812 245.82674Q68.02812 247.93611 68.52812 248.63924Q69.02812 249.34236 69.74687 249.34236Q70.48125 249.34236 70.96562 248.63924Q71.46562 247.93611 71.46562 245.82674Q71.46562 243.70174 70.96562 243.01424Q70.48125 242.31111 69.73125 242.31111Q69.0125 242.31111 68.575 242.92049Q68.02812 243.70174 68.02812 245.82674Z" fill-rule="nonzero"/><path fill="#000000" d="M58.496876 158.5566L58.496876 159.57222L52.809376 159.57222Q52.809376 159.19722 52.934376 158.83784Q53.153126 158.25972 53.621876 157.69722Q54.10625 157.13472 55.0125 156.40034Q56.41875 155.2441 56.903126 154.57222Q57.403126 153.90034 57.403126 153.3066Q57.403126 152.6816 56.95 152.25972Q56.496876 151.82222 55.778126 151.82222Q55.0125 151.82222 54.559376 152.27534Q54.10625 152.72847 54.090626 153.54097L53.0125 153.4316Q53.121876 152.21284 53.840626 151.58784Q54.575 150.94722 55.809376 150.94722Q57.04375 150.94722 57.7625 151.63472Q58.48125 152.32222 58.48125 153.33784Q58.48125 153.85347 58.2625 154.35347Q58.059376 154.83784 57.559376 155.40034Q57.075 155.94722 55.95 156.90034Q54.996876 157.69722 54.715626 157.9941Q54.45 158.27534 54.278126 158.5566L58.496876 158.5566ZM59.95 155.33784Q59.95 153.8066 60.2625 152.88472Q60.575 151.94722 61.184376 151.44722Q61.809376 150.94722 62.746876 150.94722Q63.434376 150.94722 63.95 151.22847Q64.48125 151.50972 64.825 152.04097Q65.16875 152.5566 65.35625 153.3066Q65.54375 154.0566 65.54375 155.33784Q65.54375 156.85347 65.23125 157.77534Q64.93437 158.69722 64.30937 159.21284Q63.7 159.71284 62.746876 159.71284Q61.5125 159.71284 60.79375 158.82222Q59.95 157.75972 59.95 155.33784ZM61.028126 155.33784Q61.028126 157.44722 61.528126 158.15034Q62.028126 158.85347 62.746876 158.85347Q63.48125 158.85347 63.965626 158.15034Q64.46562 157.44722 64.46562 155.33784Q64.46562 153.21284 63.965626 152.52534Q63.48125 151.82222 62.73125 151.82222Q62.0125 151.82222 61.575 152.4316Q61.028126 153.21284 61.028126 155.33784ZM66.95 155.33784Q66.95 153.8066 67.2625 152.88472Q67.575 151.94722 68.18437 151.44722Q68.80937 150.94722 69.74687 150.94722Q70.43437 150.94722 70.95 151.22847Q71.48125 151.50972 71.825 152.04097Q72.16875 152.5566 72.35625 153.3066Q72.54375 154.0566 72.54375 155.33784Q72.54375 156.85347 72.23125 157.77534Q71.93437 158.69722 71.30937 159.21284Q70.7 159.71284 69.74687 159.71284Q68.5125 159.71284 67.79375 158.82222Q66.95 157.75972 66.95 155.33784ZM68.02812 155.33784Q68.02812 157.44722 68.52812 158.15034Q69.02812 158.85347 69.74687 158.85347Q70.48125 158.85347 70.96562 158.15034Q71.46562 157.44722 71.46562 155.33784Q71.46562 153.21284 70.96562 152.52534Q70.48125 151.82222 69.73125 151.82222Q69.0125 151.82222 68.575 152.4316Q68.02812 153.21284 68.02812 155.33784Z" fill-rule="nonzero"/><path fill="#000000" d="M52.95 66.81771L54.0125 66.677086Q54.184376 67.56771 54.621876 67.97396Q55.059376 68.364586 55.684376 68.364586Q56.434376 68.364586 56.95 67.84896Q57.465626 67.333336 57.465626 66.56771Q57.465626 65.84896 56.98125 65.38021Q56.5125 64.895836 55.778126 64.895836Q55.48125 64.895836 55.028126 65.020836L55.153126 64.083336Q55.2625 64.09896 55.325 64.09896Q55.996876 64.09896 56.528126 63.75521Q57.075 63.395836 57.075 62.66146Q57.075 62.083336 56.684376 61.708336Q56.29375 61.31771 55.66875 61.31771Q55.059376 61.31771 54.6375 61.708336Q54.23125 62.09896 54.121876 62.864586L53.059376 62.677086Q53.246876 61.63021 53.934376 61.052086Q54.621876 60.458336 55.6375 60.458336Q56.340626 60.458336 56.934376 60.770836Q57.528126 61.06771 57.840626 61.583336Q58.153126 62.09896 58.153126 62.69271Q58.153126 63.239586 57.85625 63.708336Q57.559376 64.16146 56.98125 64.427086Q57.73125 64.59896 58.153126 65.16146Q58.575 65.708336 58.575 66.552086Q58.575 67.677086 57.746876 68.458336Q56.934376 69.239586 55.684376 69.239586Q54.559376 69.239586 53.809376 68.56771Q53.059376 67.88021 52.95 66.81771ZM59.95 64.84896Q59.95 63.31771 60.2625 62.395836Q60.575 61.458336 61.184376 60.958336Q61.809376 60.458336 62.746876 60.458336Q63.434376 60.458336 63.95 60.739586Q64.48125 61.020836 64.825 61.552086Q65.16875 62.06771 65.35625 62.81771Q65.54375 63.56771 65.54375 64.84896Q65.54375 66.364586 65.23125 67.28646Q64.93437 68.208336 64.30937 68.72396Q63.7 69.22396 62.746876 69.22396Q61.5125 69.22396 60.79375 68.333336Q59.95 67.270836 59.95 64.84896ZM61.028126 64.84896Q61.028126 66.958336 61.528126 67.66146Q62.028126 68.364586 62.746876 68.364586Q63.48125 68.364586 63.965626 67.66146Q64.46562 66.958336 64.46562 64.84896Q64.46562 62.72396 63.965626 62.03646Q63.48125 61.333336 62.73125 61.333336Q62.0125 61.333336 61.575 61.94271Q61.028126 62.72396 61.028126 64.84896ZM66.95 64.84896Q66.95 63.31771 67.2625 62.395836Q67.575 61.458336 68.18437 60.958336Q68.80937 60.458336 69.74687 60.458336Q70.43437 60.458336 70.95 60.739586Q71.48125 61.020836 71.825 61.552086Q72.16875 62.06771 72.35625 62.81771Q72.54375 63.56771 72.54375 64.84896Q72.54375 66.364586 72.23125 67.28646Q71.93437 68.208336 71.30937 68.72396Q70.7 69.22396 69.74687 69.22396Q68.5125 69.22396 67.79375 68.333336Q66.95 67.270836 66.95 64.84896ZM68.02812 64.84896Q68.02812 66.958336 68.52812 67.66146Q69.02812 68.364586 69.74687 68.364586Q70.48125 68.364586 70.96562 67.66146Q71.46562 66.958336 71.46562 64.84896Q71.46562 62.72396 70.96562 62.03646Q70.48125 61.333336 69.73125 61.333336Q69.0125 61.333336 68.575 61.94271Q68.02812 62.72396 68.02812 64.84896Z" fill-rule="nonzero"/><path fill="#000000" d="M159.15479 353.55L158.10791 353.55L158.10791 346.83124Q157.71729 347.1906 157.09229 347.5656Q156.48291 347.925 155.99854 348.09686L155.99854 347.08124Q156.87354 346.65936 157.52979 346.08124Q158.20166 345.4875 158.48291 344.925L159.15479 344.925L159.15479 353.55ZM162.18604 349.3156Q162.18604 347.78436 162.49854 346.8625Q162.81104 345.925 163.42041 345.425Q164.04541 344.925 164.98291 344.925Q165.67041 344.925 166.18604 345.20624Q166.71729 345.4875 167.06104 346.01874Q167.40479 346.53436 167.59229 347.28436Q167.77979 348.03436 167.77979 349.3156Q167.77979 350.83124 167.46729 351.7531Q167.17041 352.675 166.54541 353.1906Q165.93604 353.6906 164.98291 353.6906Q163.74854 353.6906 163.02979 352.8Q162.18604 351.7375 162.18604 349.3156ZM163.26416 349.3156Q163.26416 351.425 163.76416 352.1281Q164.26416 352.83124 164.98291 352.83124Q165.71729 352.83124 166.20166 352.1281Q166.70166 351.425 166.70166 349.3156Q166.70166 347.1906 166.20166 346.5031Q165.71729 345.8 164.96729 345.8Q164.24854 345.8 163.81104 346.40936Q163.26416 347.1906 163.26416 349.3156Z" fill-rule="nonzero"/><path fill="#000000" d="M242.96977 352.53436L242.96977 353.55L237.28227 353.55Q237.28227 353.175 237.40727 352.8156Q237.62602 352.2375 238.09477 351.675Q238.57915 351.1125 239.4854 350.3781Q240.89165 349.22186 241.37602 348.55Q241.87602 347.8781 241.87602 347.28436Q241.87602 346.65936 241.4229 346.2375Q240.96977 345.8 240.25102 345.8Q239.4854 345.8 239.03227 346.2531Q238.57915 346.70624 238.56352 347.51874L237.4854 347.40936Q237.59477 346.1906 238.31352 345.5656Q239.0479 344.925 240.28227 344.925Q241.51665 344.925 242.2354 345.6125Q242.95415 346.3 242.95415 347.3156Q242.95415 347.83124 242.7354 348.33124Q242.53227 348.8156 242.03227 349.3781Q241.5479 349.925 240.4229 350.8781Q239.46977 351.675 239.18852 351.97186Q238.9229 352.2531 238.75102 352.53436L242.96977 352.53436ZM244.4229 349.3156Q244.4229 347.78436 244.7354 346.8625Q245.0479 345.925 245.65727 345.425Q246.28227 344.925 247.21977 344.925Q247.90727 344.925 248.4229 345.20624Q248.95415 345.4875 249.2979 346.01874Q249.64165 346.53436 249.82915 347.28436Q250.01665 348.03436 250.01665 349.3156Q250.01665 350.83124 249.70415 351.7531Q249.40727 352.675 248.78227 353.1906Q248.1729 353.6906 247.21977 353.6906Q245.9854 353.6906 245.26665 352.8Q244.4229 351.7375 244.4229 349.3156ZM245.50102 349.3156Q245.50102 351.425 246.00102 352.1281Q246.50102 352.83124 247.21977 352.83124Q247.95415 352.83124 248.43852 352.1281Q248.93852 351.425 248.93852 349.3156Q248.93852 347.1906 248.43852 346.5031Q247.95415 345.8 247.20415 345.8Q246.4854 345.8 246.0479 346.40936Q245.50102 347.1906 245.50102 349.3156Z" fill-rule="nonzero"/><path fill="#000000" d="M319.65976 351.28436L320.72226 351.14374Q320.89413 352.03436 321.33163 352.4406Q321.76913 352.83124 322.39413 352.83124Q323.14413 352.83124 323.65976 352.3156Q324.17538 351.8 324.17538 351.03436Q324.17538 350.3156 323.691 349.84686Q323.22226 349.3625 322.48788 349.3625Q322.191 349.3625 321.73788 349.4875L321.86288 348.55Q321.97226 348.5656 322.03476 348.5656Q322.70663 348.5656 323.23788 348.22186Q323.78476 347.8625 323.78476 347.1281Q323.78476 346.55 323.39413 346.175Q323.0035 345.78436 322.3785 345.78436Q321.76913 345.78436 321.34726 346.175Q320.941 346.5656 320.83163 347.33124L319.76913 347.14374Q319.95663 346.09686 320.64413 345.51874Q321.33163 344.925 322.34726 344.925Q323.05038 344.925 323.64413 345.2375Q324.23788 345.53436 324.55038 346.05Q324.86288 346.5656 324.86288 347.15936Q324.86288 347.70624 324.566 348.175Q324.26913 348.6281 323.691 348.89374Q324.441 349.0656 324.86288 349.6281Q325.28476 350.175 325.28476 351.01874Q325.28476 352.14374 324.45663 352.925Q323.64413 353.70624 322.39413 353.70624Q321.26913 353.70624 320.51913 353.03436Q319.76913 352.34686 319.65976 351.28436ZM326.65976 349.3156Q326.65976 347.78436 326.97226 346.8625Q327.28476 345.925 327.89413 345.425Q328.51913 344.925 329.45663 344.925Q330.14413 344.925 330.65976 345.20624Q331.191 345.4875 331.53476 346.01874Q331.8785 346.53436 332.066 347.28436Q332.2535 348.03436 332.2535 349.3156Q332.2535 350.83124 331.941 351.7531Q331.64413 352.675 331.01913 353.1906Q330.40976 353.6906 329.45663 353.6906Q328.22226 353.6906 327.5035 352.8Q326.65976 351.7375 326.65976 349.3156ZM327.73788 349.3156Q327.73788 351.425 328.23788 352.1281Q328.73788 352.83124 329.45663 352.83124Q330.191 352.83124 330.67538 352.1281Q331.17538 351.425 331.17538 349.3156Q331.17538 347.1906 330.67538 346.5031Q330.191 345.8 329.441 345.8Q328.72226 345.8 328.28476 346.40936Q327.73788 347.1906 327.73788 349.3156Z" fill-rule="nonzero"/><path fill="#000000" d="M405.2716 353.55L405.2716 351.4875L401.55286 351.4875L401.55286 350.51874L405.47473 344.95624L406.3341 344.95624L406.3341 350.51874L407.49036 350.51874L407.49036 351.4875L406.3341 351.4875L406.3341 353.55L405.2716 353.55ZM405.2716 350.51874L405.2716 346.65936L402.5841 350.51874L405.2716 350.51874ZM408.8966 349.3156Q408.8966 347.78436 409.2091 346.8625Q409.5216 345.925 410.13098 345.425Q410.75598 344.925 411.69348 344.925Q412.38098 344.925 412.8966 345.20624Q413.42786 345.4875 413.7716 346.01874Q414.11536 346.53436 414.30286 347.28436Q414.49036 348.03436 414.49036 349.3156Q414.49036 350.83124 414.17786 351.7531Q413.88098 352.675 413.25598 353.1906Q412.6466 353.6906 411.69348 353.6906Q410.4591 353.6906 409.74036 352.8Q408.8966 351.7375 408.8966 349.3156ZM409.97473 349.3156Q409.97473 351.425 410.47473 352.1281Q410.97473 352.83124 411.69348 352.83124Q412.42786 352.83124 412.91223 352.1281Q413.41223 351.425 413.41223 349.3156Q413.41223 347.1906 412.91223 346.5031Q412.42786 345.8 411.67786 345.8Q410.9591 345.8 410.5216 346.40936Q409.97473 347.1906 409.97473 349.3156Z" fill-rule="nonzero"/><path fill="#000000" d="M484.13348 351.3L485.24286 351.20624Q485.36786 352.01874 485.80536 352.425Q486.25848 352.83124 486.8991 352.83124Q487.6491 352.83124 488.18036 352.2531Q488.7116 351.675 488.7116 350.7375Q488.7116 349.83124 488.19598 349.3156Q487.69598 348.78436 486.86786 348.78436Q486.36786 348.78436 485.94598 349.01874Q485.53973 349.2531 485.30536 349.6125L484.32098 349.4875L485.1491 345.08124L489.43036 345.08124L489.43036 346.08124L485.99286 346.08124L485.53973 348.39374Q486.30536 347.84686 487.1491 347.84686Q488.2741 347.84686 489.03973 348.6281Q489.82098 349.40936 489.82098 350.64374Q489.82098 351.8 489.1491 352.65936Q488.32098 353.6906 486.8991 353.6906Q485.72723 353.6906 484.97723 353.03436Q484.24286 352.3781 484.13348 351.3ZM491.13348 349.3156Q491.13348 347.78436 491.44598 346.8625Q491.75848 345.925 492.36786 345.425Q492.99286 344.925 493.93036 344.925Q494.61786 344.925 495.13348 345.20624Q495.66473 345.4875 496.00848 346.01874Q496.35223 346.53436 496.53973 347.28436Q496.72723 348.03436 496.72723 349.3156Q496.72723 350.83124 496.41473 351.7531Q496.11786 352.675 495.49286 353.1906Q494.88348 353.6906 493.93036 353.6906Q492.69598 353.6906 491.97723 352.8Q491.13348 351.7375 491.13348 349.3156ZM492.2116 349.3156Q492.2116 351.425 492.7116 352.1281Q493.2116 352.83124 493.93036 352.83124Q494.66473 352.83124 495.1491 352.1281Q495.6491 351.425 495.6491 349.3156Q495.6491 347.1906 495.1491 346.5031Q494.66473 345.8 493.91473 345.8Q493.19598 345.8 492.75848 346.40936Q492.2116 347.1906 492.2116 349.3156Z" fill-rule="nonzero"/><path fill="#000000" d="M571.8391 347.0656L570.79224 347.14374Q570.6516 346.51874 570.4016 346.2375Q569.9641 345.78436 569.3391 345.78436Q568.8391 345.78436 568.4485 346.0656Q567.9641 346.4406 567.66724 347.14374Q567.386 347.83124 567.37036 349.1125Q567.74536 348.53436 568.29224 348.2531Q568.85474 347.97186 569.4641 347.97186Q570.511 347.97186 571.24536 348.7531Q571.99536 349.53436 571.99536 350.7531Q571.99536 351.5656 571.636 352.26874Q571.29224 352.95624 570.68286 353.33124Q570.0735 353.6906 569.30786 353.6906Q567.97974 353.6906 567.1516 352.72186Q566.3235 351.7531 566.3235 349.53436Q566.3235 347.03436 567.24536 345.90936Q568.04224 344.925 569.4016 344.925Q570.41724 344.925 571.05786 345.5031Q571.7141 346.0656 571.8391 347.0656ZM567.54224 350.76874Q567.54224 351.3156 567.761 351.8156Q567.99536 352.3 568.4016 352.5656Q568.8235 352.83124 569.29224 352.83124Q569.9485 352.83124 570.43286 352.3Q570.91724 351.7531 570.91724 350.83124Q570.91724 349.9406 570.43286 349.425Q569.9641 348.90936 569.24536 348.90936Q568.5266 348.90936 568.0266 349.425Q567.54224 349.9406 567.54224 350.76874ZM573.37036 349.3156Q573.37036 347.78436 573.68286 346.8625Q573.99536 345.925 574.60474 345.425Q575.22974 344.925 576.16724 344.925Q576.85474 344.925 577.37036 345.20624Q577.9016 345.4875 578.24536 346.01874Q578.5891 346.53436 578.7766 347.28436Q578.9641 348.03436 578.9641 349.3156Q578.9641 350.83124 578.6516 351.7531Q578.35474 352.675 577.72974 353.1906Q577.12036 353.6906 576.16724 353.6906Q574.93286 353.6906 574.2141 352.8Q573.37036 351.7375 573.37036 349.3156ZM574.4485 349.3156Q574.4485 351.425 574.9485 352.1281Q575.4485 352.83124 576.16724 352.83124Q576.9016 352.83124 577.386 352.1281Q577.886 351.425 577.886 349.3156Q577.886 347.1906 577.386 346.5031Q576.9016 345.8 576.1516 345.8Q575.43286 345.8 574.99536 346.40936Q574.4485 347.1906 574.4485 349.3156Z" fill-rule="nonzero"/><path fill="#757575" d="M25.6375 39.45L25.6375 26.825L20.91875 26.825L20.91875 25.1375L32.2625 25.1375L32.2625 26.825L27.528126 26.825L27.528126 39.45L25.6375 39.45ZM33.35625 34.85625L35.1375 34.7Q35.2625 35.7625 35.715626 36.45Q36.184376 37.1375 37.153126 37.575Q38.1375 37.996876 39.371876 37.996876Q40.45 37.996876 41.278126 37.684376Q42.10625 37.35625 42.5125 36.79375Q42.91875 36.23125 42.91875 35.559376Q42.91875 34.8875 42.528126 34.3875Q42.1375 33.8875 41.246876 33.54375Q40.66875 33.309376 38.684376 32.840626Q36.715626 32.371876 35.934376 31.95Q34.903126 31.41875 34.403126 30.621876Q33.903126 29.825 33.903126 28.840626Q33.903126 27.746876 34.5125 26.809376Q35.121876 25.871876 36.309376 25.3875Q37.496876 24.8875 38.934376 24.8875Q40.528126 24.8875 41.746876 25.403126Q42.965626 25.91875 43.60625 26.91875Q44.2625 27.903126 44.309376 29.16875L42.496876 29.309376Q42.35625 27.95 41.5125 27.2625Q40.66875 26.559376 39.0125 26.559376Q37.29375 26.559376 36.496876 27.2Q35.715626 27.825 35.715626 28.7Q35.715626 29.48125 36.278126 29.98125Q36.825 30.48125 39.1375 30.996876Q41.45 31.5125 42.309376 31.903126Q43.559376 32.48125 44.153126 33.371876Q44.746876 34.246876 44.746876 35.403126Q44.746876 36.54375 44.090626 37.559376Q43.434376 38.575 42.2 39.1375Q40.98125 39.7 39.45 39.7Q37.5125 39.7 36.2 39.1375Q34.8875 38.559376 34.1375 37.41875Q33.3875 36.278126 33.35625 34.85625ZM57.215626 34.434376L59.10625 34.903126Q58.5125 37.246876 56.965626 38.48125Q55.41875 39.7 53.16875 39.7Q50.85625 39.7 49.403126 38.7625Q47.965626 37.809376 47.2 36.028126Q46.45 34.23125 46.45 32.184376Q46.45 29.95 47.29375 28.29375Q48.153126 26.621876 49.73125 25.7625Q51.309376 24.8875 53.2 24.8875Q55.35625 24.8875 56.809376 25.98125Q58.278126 27.075 58.85625 29.059376L56.996876 29.496876Q56.496876 27.934376 55.54375 27.23125Q54.60625 26.5125 53.16875 26.5125Q51.5125 26.5125 50.403126 27.309376Q49.29375 28.090626 48.840626 29.434376Q48.403126 30.7625 48.403126 32.16875Q48.403126 33.996876 48.934376 35.371876Q49.465626 36.73125 50.590626 37.403126Q51.715626 38.075 53.0125 38.075Q54.60625 38.075 55.715626 37.153126Q56.825 36.23125 57.215626 34.434376ZM70.60625 37.871876L70.85625 39.434376Q70.12187 39.590626 69.52812 39.590626Q68.575 39.590626 68.04375 39.29375Q67.52812 38.98125 67.30937 38.496876Q67.09062 37.996876 67.09062 36.41875L67.09062 30.45L65.80937 30.45L65.80937 29.075L67.09062 29.075L67.09062 26.5125L68.84062 25.45L68.84062 29.075L70.60625 29.075L70.60625 30.45L68.84062 30.45L68.84062 36.5125Q68.84062 37.2625 68.93437 37.48125Q69.02812 37.684376 69.23125 37.825Q69.45 37.95 69.84062 37.95Q70.12187 37.95 70.60625 37.871876ZM72.68437 43.45L72.49687 41.79375Q73.075 41.95 73.49687 41.95Q74.09062 41.95 74.43437 41.746876Q74.79375 41.559376 75.0125 41.215626Q75.18437 40.95 75.55937 39.903126Q75.60625 39.746876 75.71562 39.465626L71.77812 29.075L73.66875 29.075L75.825 35.090626Q76.24687 36.23125 76.575 37.48125Q76.8875 36.278126 77.29375 35.121876L79.5125 29.075L81.27812 29.075L77.325 39.621876Q76.7 41.340626 76.34062 41.98125Q75.87187 42.85625 75.2625 43.246876Q74.66875 43.653126 73.825 43.653126Q73.30937 43.653126 72.68437 43.45ZM82.7625 43.41875L82.7625 29.075L84.37187 29.075L84.37187 30.41875Q84.93437 29.6375 85.6375 29.246876Q86.35625 28.840626 87.37187 28.840626Q88.7 28.840626 89.71562 29.528126Q90.73125 30.215626 91.24687 31.465626Q91.77812 32.7 91.77812 34.184376Q91.77812 35.778126 91.2 37.059376Q90.6375 38.325 89.54375 39.0125Q88.45 39.684376 87.24687 39.684376Q86.37187 39.684376 85.66875 39.309376Q84.98125 38.934376 84.52812 38.371876L84.52812 43.41875L82.7625 43.41875ZM84.35625 34.325Q84.35625 36.325 85.16875 37.278126Q85.98125 38.23125 87.1375 38.23125Q88.30937 38.23125 89.1375 37.246876Q89.98125 36.2625 89.98125 34.16875Q89.98125 32.2 89.15312 31.215626Q88.34062 30.215626 87.21562 30.215626Q86.09062 30.215626 85.21562 31.278126Q84.35625 32.325 84.35625 34.325ZM100.87187 36.10625L102.68437 36.340626Q102.2625 37.91875 101.09062 38.809376Q99.93437 39.684376 98.12187 39.684376Q95.85625 39.684376 94.5125 38.29375Q93.18437 36.8875 93.18437 34.35625Q93.18437 31.73125 94.52812 30.29375Q95.87187 28.840626 98.02812 28.840626Q100.10625 28.840626 101.41875 30.2625Q102.74687 31.66875 102.74687 34.246876Q102.74687 34.403126 102.73125 34.715626L94.99687 34.715626Q95.09062 36.41875 95.96562 37.325Q96.84062 38.23125 98.1375 38.23125Q99.10625 38.23125 99.77812 37.73125Q100.46562 37.215626 100.87187 36.10625ZM95.09062 33.2625L100.8875 33.2625Q100.77812 31.965626 100.23125 31.309376Q99.3875 30.29375 98.04375 30.29375Q96.84062 30.29375 96.0125 31.10625Q95.18437 31.903126 95.09062 33.2625ZM111.54375 35.653126L113.2625 35.871876Q112.98125 37.66875 111.80937 38.684376Q110.65312 39.684376 108.95 39.684376Q106.825 39.684376 105.52812 38.29375Q104.23125 36.903126 104.23125 34.309376Q104.23125 32.621876 104.77812 31.371876Q105.34062 30.10625 106.48125 29.48125Q107.62187 28.840626 108.96562 28.840626Q110.65312 28.840626 111.71562 29.7Q112.79375 30.559376 113.10625 32.121876L111.3875 32.3875Q111.15312 31.340626 110.52812 30.825Q109.90312 30.29375 109.02812 30.29375Q107.7 30.29375 106.87187 31.246876Q106.04375 32.2 106.04375 34.246876Q106.04375 36.340626 106.84062 37.29375Q107.6375 38.23125 108.93437 38.23125Q109.96562 38.23125 110.65312 37.60625Q111.35625 36.965626 111.54375 35.653126ZM114.7625 39.45L114.7625 25.1375L116.52812 25.1375L116.52812 30.2625Q117.7625 28.840626 119.6375 28.840626Q120.77812 28.840626 121.62187 29.29375Q122.48125 29.746876 122.84062 30.559376Q123.21562 31.35625 123.21562 32.871876L123.21562 39.45L121.46562 39.45L121.46562 32.871876Q121.46562 31.559376 120.8875 30.965626Q120.30937 30.35625 119.27812 30.35625Q118.49687 30.35625 117.79375 30.7625Q117.10625 31.16875 116.80937 31.871876Q116.52812 32.559376 116.52812 33.778126L116.52812 39.45L114.7625 39.45ZM131.87187 36.10625L133.68437 36.340626Q133.2625 37.91875 132.09062 38.809376Q130.93437 39.684376 129.12187 39.684376Q126.85625 39.684376 125.5125 38.29375Q124.18437 36.8875 124.18437 34.35625Q124.18437 31.73125 125.52812 30.29375Q126.87187 28.840626 129.02812 28.840626Q131.10625 28.840626 132.41875 30.2625Q133.74687 31.66875 133.74687 34.246876Q133.74687 34.403126 133.73125 34.715626L125.99687 34.715626Q126.09062 36.41875 126.96562 37.325Q127.84062 38.23125 129.1375 38.23125Q130.10625 38.23125 130.77812 37.73125Q131.46562 37.215626 131.87187 36.10625ZM126.09062 33.2625L131.8875 33.2625Q131.77812 31.965626 131.23125 31.309376Q130.3875 30.29375 129.04375 30.29375Q127.84062 30.29375 127.0125 31.10625Q126.18437 31.903126 126.09062 33.2625ZM142.54375 35.653126L144.2625 35.871876Q143.98125 37.66875 142.80937 38.684376Q141.65312 39.684376 139.95 39.684376Q137.825 39.684376 136.52812 38.29375Q135.23125 36.903126 135.23125 34.309376Q135.23125 32.621876 135.77812 31.371876Q136.34062 30.10625 137.48125 29.48125Q138.62187 28.840626 139.96562 28.840626Q141.65312 28.840626 142.71562 29.7Q143.79375 30.559376 144.10625 32.121876L142.3875 32.3875Q142.15312 31.340626 141.52812 30.825Q140.90312 30.29375 140.02812 30.29375Q138.7 30.29375 137.87187 31.246876Q137.04375 32.2 137.04375 34.246876Q137.04375 36.340626 137.84062 37.29375Q138.6375 38.23125 139.93437 38.23125Q140.96562 38.23125 141.65312 37.60625Q142.35625 36.965626 142.54375 35.653126ZM145.77812 39.45L145.77812 25.1375L147.54375 25.1375L147.54375 33.29375L151.7 29.075L153.96562 29.075L150.0125 32.91875L154.37187 39.45L152.2 39.45L148.77812 34.153126L147.54375 35.340626L147.54375 39.45L145.77812 39.45ZM155.77812 27.153126L155.77812 25.1375L157.54375 25.1375L157.54375 27.153126L155.77812 27.153126ZM155.77812 39.45L155.77812 29.075L157.54375 29.075L157.54375 39.45L155.77812 39.45ZM159.7625 39.45L159.7625 29.075L161.35625 29.075L161.35625 30.559376Q162.49687 28.840626 164.65312 28.840626Q165.59062 28.840626 166.37187 29.184376Q167.16875 29.5125 167.55937 30.059376Q167.95 30.60625 168.10625 31.35625Q168.2 31.85625 168.2 33.075L168.2 39.45L166.43437 39.45L166.43437 33.1375Q166.43437 32.059376 166.23125 31.528126Q166.02812 30.996876 165.49687 30.684376Q164.98125 30.371876 164.27812 30.371876Q163.15312 30.371876 162.34062 31.090626Q161.52812 31.79375 161.52812 33.778126L161.52812 39.45L159.7625 39.45ZM169.45 40.309376L171.15312 40.559376Q171.2625 41.35625 171.74687 41.715626Q172.40312 42.2 173.54375 42.2Q174.7625 42.2 175.41875 41.715626Q176.09062 41.23125 176.325 40.35625Q176.46562 39.809376 176.45 38.090626Q175.29375 39.45 173.575 39.45Q171.43437 39.45 170.2625 37.903126Q169.09062 36.35625 169.09062 34.2Q169.09062 32.715626 169.62187 31.465626Q170.16875 30.215626 171.18437 29.528126Q172.21562 28.840626 173.59062 28.840626Q175.41875 28.840626 176.62187 30.325L176.62187 29.075L178.23125 29.075L178.23125 38.04375Q178.23125 40.465626 177.73125 41.465626Q177.24687 42.48125 176.16875 43.059376Q175.10625 43.653126 173.54375 43.653126Q171.7 43.653126 170.54375 42.825Q169.40312 41.996876 169.45 40.309376ZM170.90312 34.075Q170.90312 36.121876 171.71562 37.059376Q172.52812 37.996876 173.74687 37.996876Q174.95 37.996876 175.7625 37.059376Q176.59062 36.121876 176.59062 34.1375Q176.59062 32.23125 175.74687 31.2625Q174.90312 30.29375 173.71562 30.29375Q172.54375 30.29375 171.71562 31.246876Q170.90312 32.2 170.90312 34.075ZM190.6375 39.45L190.6375 26.825L185.91875 26.825L185.91875 25.1375L197.2625 25.1375L197.2625 26.825L192.52812 26.825L192.52812 39.45L190.6375 39.45ZM198.77812 27.153126L198.77812 25.1375L200.54375 25.1375L200.54375 27.153126L198.77812 27.153126ZM198.77812 39.45L198.77812 29.075L200.54375 29.075L200.54375 39.45L198.77812 39.45ZM202.7625 39.45L202.7625 29.075L204.34062 29.075L204.34062 30.528126Q204.825 29.778126 205.6375 29.309376Q206.45 28.840626 207.48125 28.840626Q208.6375 28.840626 209.37187 29.325Q210.10625 29.79375 210.41875 30.653126Q211.65312 28.840626 213.62187 28.840626Q215.16875 28.840626 215.99687 29.7Q216.825 30.559376 216.825 32.325L216.825 39.45L215.075 39.45L215.075 32.91875Q215.075 31.85625 214.90312 31.403126Q214.73125 30.934376 214.27812 30.653126Q213.84062 30.371876 213.23125 30.371876Q212.1375 30.371876 211.40312 31.10625Q210.68437 31.825 210.68437 33.41875L210.68437 39.45L208.93437 39.45L208.93437 32.715626Q208.93437 31.54375 208.49687 30.965626Q208.075 30.371876 207.09062 30.371876Q206.35625 30.371876 205.71562 30.7625Q205.09062 31.153126 204.80937 31.903126Q204.52812 32.653126 204.52812 34.075L204.52812 39.45L202.7625 39.45ZM225.87187 36.10625L227.68437 36.340626Q227.2625 37.91875 226.09062 38.809376Q224.93437 39.684376 223.12187 39.684376Q220.85625 39.684376 219.5125 38.29375Q218.18437 36.8875 218.18437 34.35625Q218.18437 31.73125 219.52812 30.29375Q220.87187 28.840626 223.02812 28.840626Q225.10625 28.840626 226.41875 30.2625Q227.74687 31.66875 227.74687 34.246876Q227.74687 34.403126 227.73125 34.715626L219.99687 34.715626Q220.09062 36.41875 220.96562 37.325Q221.84062 38.23125 223.1375 38.23125Q224.10625 38.23125 224.77812 37.73125Q225.46562 37.215626 225.87187 36.10625ZM220.09062 33.2625L225.8875 33.2625Q225.77812 31.965626 225.23125 31.309376Q224.3875 30.29375 223.04375 30.29375Q221.84062 30.29375 221.0125 31.10625Q220.18437 31.903126 220.09062 33.2625ZM238.65312 39.45L234.7 29.075L236.55937 29.075L238.79375 35.29375Q239.15312 36.29375 239.45 37.371876Q239.68437 36.559376 240.10625 35.403126L242.40312 29.075L244.21562 29.075L240.29375 39.45L238.65312 39.45ZM244.05937 36.35625L245.80937 36.075Q245.95 37.121876 246.62187 37.684376Q247.29375 38.23125 248.49687 38.23125Q249.7 38.23125 250.27812 37.746876Q250.87187 37.246876 250.87187 36.590626Q250.87187 35.996876 250.35625 35.653126Q249.99687 35.41875 248.55937 35.059376Q246.62187 34.559376 245.87187 34.215626Q245.1375 33.85625 244.74687 33.23125Q244.35625 32.590626 244.35625 31.825Q244.35625 31.1375 244.66875 30.54375Q244.99687 29.95 245.54375 29.559376Q245.95 29.2625 246.65312 29.059376Q247.37187 28.840626 248.18437 28.840626Q249.40312 28.840626 250.325 29.2Q251.24687 29.54375 251.68437 30.153126Q252.12187 30.746876 252.29375 31.746876L250.575 31.98125Q250.45 31.184376 249.8875 30.746876Q249.325 30.29375 248.30937 30.29375Q247.09062 30.29375 246.575 30.7Q246.05937 31.090626 246.05937 31.621876Q246.05937 31.965626 246.27812 32.246876Q246.48125 32.528126 246.95 32.715626Q247.21562 32.809376 248.49687 33.153126Q250.37187 33.653126 251.10625 33.98125Q251.84062 34.29375 252.2625 34.903126Q252.68437 35.496876 252.68437 36.403126Q252.68437 37.278126 252.16875 38.059376Q251.65312 38.840626 250.68437 39.2625Q249.71562 39.684376 248.49687 39.684376Q246.48125 39.684376 245.41875 38.840626Q244.35625 37.996876 244.05937 36.35625ZM261.09064 39.45L261.09064 25.1375L270.7469 25.1375L270.7469 26.825L262.98126 26.825L262.98126 31.2625L269.7 31.2625L269.7 32.95L262.98126 32.95L262.98126 39.45L261.09064 39.45ZM272.77814 27.153126L272.77814 25.1375L274.54376 25.1375L274.54376 27.153126L272.77814 27.153126ZM272.77814 39.45L272.77814 29.075L274.54376 29.075L274.54376 39.45L272.77814 39.45ZM276.73126 39.45L276.73126 25.1375L278.48126 25.1375L278.48126 39.45L276.73126 39.45ZM287.8719 36.10625L289.6844 36.340626Q289.2625 37.91875 288.09064 38.809376Q286.9344 39.684376 285.1219 39.684376Q282.85626 39.684376 281.5125 38.29375Q280.1844 36.8875 280.1844 34.35625Q280.1844 31.73125 281.52814 30.29375Q282.8719 28.840626 285.02814 28.840626Q287.10626 28.840626 288.41876 30.2625Q289.7469 31.66875 289.7469 34.246876Q289.7469 34.403126 289.73126 34.715626L281.9969 34.715626Q282.09064 36.41875 282.96564 37.325Q283.84064 38.23125 285.1375 38.23125Q286.10626 38.23125 286.77814 37.73125Q287.46564 37.215626 287.8719 36.10625ZM282.09064 33.2625L287.8875 33.2625Q287.77814 31.965626 287.23126 31.309376Q286.3875 30.29375 285.04376 30.29375Q283.84064 30.29375 283.0125 31.10625Q282.1844 31.903126 282.09064 33.2625ZM297.35626 34.85625L299.1375 34.7Q299.2625 35.7625 299.71564 36.45Q300.1844 37.1375 301.15314 37.575Q302.1375 37.996876 303.3719 37.996876Q304.45 37.996876 305.27814 37.684376Q306.10626 37.35625 306.5125 36.79375Q306.91876 36.23125 306.91876 35.559376Q306.91876 34.8875 306.52814 34.3875Q306.1375 33.8875 305.2469 33.54375Q304.66876 33.309376 302.6844 32.840626Q300.71564 32.371876 299.9344 31.95Q298.90314 31.41875 298.40314 30.621876Q297.90314 29.825 297.90314 28.840626Q297.90314 27.746876 298.5125 26.809376Q299.1219 25.871876 300.3094 25.3875Q301.4969 24.8875 302.9344 24.8875Q304.52814 24.8875 305.7469 25.403126Q306.96564 25.91875 307.60626 26.91875Q308.2625 27.903126 308.3094 29.16875L306.4969 29.309376Q306.35626 27.95 305.5125 27.2625Q304.66876 26.559376 303.0125 26.559376Q301.29376 26.559376 300.4969 27.2Q299.71564 27.825 299.71564 28.7Q299.71564 29.48125 300.27814 29.98125Q300.825 30.48125 303.1375 30.996876Q305.45 31.5125 306.3094 31.903126Q307.5594 32.48125 308.15314 33.371876Q308.7469 34.246876 308.7469 35.403126Q308.7469 36.54375 308.09064 37.559376Q307.4344 38.575 306.2 39.1375Q304.98126 39.7 303.45 39.7Q301.5125 39.7 300.2 39.1375Q298.8875 38.559376 298.1375 37.41875Q297.3875 36.278126 297.35626 34.85625ZM310.77814 27.153126L310.77814 25.1375L312.54376 25.1375L312.54376 27.153126L310.77814 27.153126ZM310.77814 39.45L310.77814 29.075L312.54376 29.075L312.54376 39.45L310.77814 39.45ZM313.84064 39.45L313.84064 38.028126L320.45 30.45Q319.325 30.496876 318.46564 30.496876L314.23126 30.496876L314.23126 29.075L322.71564 29.075L322.71564 30.246876L317.09064 36.825L316.0125 38.028126Q317.1844 37.934376 318.23126 37.934376L323.02814 37.934376L323.02814 39.45L313.84064 39.45ZM330.8719 36.10625L332.6844 36.340626Q332.2625 37.91875 331.09064 38.809376Q329.9344 39.684376 328.1219 39.684376Q325.85626 39.684376 324.5125 38.29375Q323.1844 36.8875 323.1844 34.35625Q323.1844 31.73125 324.52814 30.29375Q325.8719 28.840626 328.02814 28.840626Q330.10626 28.840626 331.41876 30.2625Q332.7469 31.66875 332.7469 34.246876Q332.7469 34.403126 332.73126 34.715626L324.9969 34.715626Q325.09064 36.41875 325.96564 37.325Q326.84064 38.23125 328.1375 38.23125Q329.10626 38.23125 329.77814 37.73125Q330.46564 37.215626 330.8719 36.10625ZM325.09064 33.2625L330.8875 33.2625Q330.77814 31.965626 330.23126 31.309376Q329.3875 30.29375 328.04376 30.29375Q326.84064 30.29375 326.0125 31.10625Q325.1844 31.903126 325.09064 33.2625Z" fill-rule="nonzero"/></svg>