<svg version="1.1" viewBox="0.0 0.0 668.0 409.0" fill="none" stroke="none" stroke-linecap="square" stroke-miterlimit="10" width="668" height="409" xmlns:xlink="http://www.w3.org/1999/xlink" xmlns="http://www.w3.org/2000/svg"><path fill="#ffffff" d="M0 0L668.0 0L668.0 409.0L0 409.0L0 0Z" fill-rule="nonzero"/><path stroke="#cccccc" stroke-width="1.0" stroke-linecap="butt" d="M171.5 65.5L171.5 336.5" fill-rule="nonzero"/><path stroke="#cccccc" stroke-width="1.0" stroke-linecap="butt" d="M264.5 65.5L264.5 336.5" fill-rule="nonzero"/><path stroke="#cccccc" stroke-width="1.0" stroke-linecap="butt" d="M356.5 65.5L356.5 336.5" fill-rule="nonzero"/><path stroke="#cccccc" stroke-width="1.0" stroke-linecap="butt" d="M448.5 65.5L448.5 336.5" fill-rule="nonzero"/><path stroke="#cccccc" stroke-width="1.0" stroke-linecap="butt" d="M541.5 65.5L541.5 336.5" fill-rule="nonzero"/><path stroke="#cccccc" stroke-width="1.0" stroke-linecap="butt" d="M633.5 65.5L633.5 336.5" fill-rule="nonzero"/><path stroke="#333333" stroke-width="1.0" stroke-linecap="butt" d="M79.5 336.5L647.5 336.5" fill-rule="nonzero"/><path stroke="#cccccc" stroke-width="1.0" stroke-linecap="butt" d="M79.5 268.5L647.5 268.5" fill-rule="nonzero"/><path stroke="#cccccc" stroke-width="1.0" stroke-linecap="butt" d="M79.5 200.5L647.5 200.5" fill-rule="nonzero"/><path stroke="#cccccc" stroke-width="1.0" stroke-linecap="butt" d="M79.5 132.5L647.5 132.5" fill-rule="nonzero"/><path stroke="#cccccc" stroke-width="1.0" stroke-linecap="butt" d="M79.5 65.5L647.5 65.5" fill-rule="nonzero"/><clipPath id="id_0"><path d="M79.45 65.083336L647.55 65.083336L647.55 336.55L79.45 336.55L79.45 65.083336Z" clip-rule="nonzero"/></clipPath><path stroke="#4285f4" stroke-width="2.0" stroke-linecap="butt" clip-path="url(#id_0)" d="M79.45 336.2672L79.450005 336.55L79.45001 336.55L79.450035 336.55L79.45008 336.55L79.45018 336.28986L79.45039 336.27853L79.45086 336.2672L79.45192 336.27853L79.45405 336.27853L79.45834 336.28986L79.46874 336.27853L79.48955 336.2672L79.53114 336.27853L79.62613 336.2672L79.82278 336.2446L80.21608 336.21066L81.06005 335.55463L82.875275 334.49136L86.50573 332.05948L93.85633 331.8672L110.31438 327.6934L143.23047 317.43423L209.06264 292.13126L353.24142 237.66827L647.55 117.79311" fill-rule="nonzero"/><path fill="#000000" fill-opacity="0.0" clip-path="url(#id_0)" d="M82.45 336.2672C82.45 337.92407 81.10686 339.2672 79.45 339.2672C77.793144 339.2672 76.45 337.92407 76.45 336.2672C76.45 334.61038 77.793144 333.2672 79.45 333.2672C81.10686 333.2672 82.45 334.61038 82.45 336.2672Z" fill-rule="nonzero"/><path fill="#000000" fill-opacity="0.0" clip-path="url(#id_0)" d="M82.450005 336.55C82.450005 338.20685 81.10686 339.55 79.450005 339.55C77.79315 339.55 76.450005 338.20685 76.450005 336.55C76.450005 334.89316 77.79315 333.55 79.450005 333.55C81.10686 333.55 82.450005 334.89316 82.450005 336.55Z" fill-rule="nonzero"/><path fill="#000000" fill-opacity="0.0" clip-path="url(#id_0)" d="M82.45001 336.55C82.45001 338.20685 81.106865 339.55 79.45001 339.55C77.79316 339.55 76.45001 338.20685 76.45001 336.55C76.45001 334.89316 77.79316 333.55 79.45001 333.55C81.106865 333.55 82.45001 334.89316 82.45001 336.55Z" fill-rule="nonzero"/><path fill="#000000" fill-opacity="0.0" clip-path="url(#id_0)" d="M82.450035 336.55C82.450035 338.20685 81.10689 339.55 79.450035 339.55C77.793175 339.55 76.450035 338.20685 76.450035 336.55C76.450035 334.89316 77.793175 333.55 79.450035 333.55C81.10689 333.55 82.450035 334.89316 82.450035 336.55Z" fill-rule="nonzero"/><path fill="#000000" fill-opacity="0.0" clip-path="url(#id_0)" d="M82.45008 336.55C82.45008 338.20685 81.10693 339.55 79.45008 339.55C77.79323 339.55 76.45008 338.20685 76.45008 336.55C76.45008 334.89316 77.79323 333.55 79.45008 333.55C81.10693 333.55 82.45008 334.89316 82.45008 336.55Z" fill-rule="nonzero"/><path fill="#000000" fill-opacity="0.0" clip-path="url(#id_0)" d="M82.45018 336.28986C82.45018 337.9467 81.10704 339.28986 79.45018 339.28986C77.79333 339.28986 76.45018 337.9467 76.45018 336.28986C76.45018 334.633 77.79333 333.28986 79.45018 333.28986C81.10704 333.28986 82.45018 334.633 82.45018 336.28986Z" fill-rule="nonzero"/><path fill="#000000" fill-opacity="0.0" clip-path="url(#id_0)" d="M82.45039 336.27853C82.45039 337.9354 81.10725 339.27853 79.45039 339.27853C77.79353 339.27853 76.45039 337.9354 76.45039 336.27853C76.45039 334.62167 77.79353 333.27853 79.45039 333.27853C81.10725 333.27853 82.45039 334.62167 82.45039 336.27853Z" fill-rule="nonzero"/><path fill="#000000" fill-opacity="0.0" clip-path="url(#id_0)" d="M82.45086 336.2672C82.45086 337.92407 81.10771 339.2672 79.45086 339.2672C77.794 339.2672 76.45086 337.92407 76.45086 336.2672C76.45086 334.61038 77.794 333.2672 79.45086 333.2672C81.10771 333.2672 82.45086 334.61038 82.45086 336.2672Z" fill-rule="nonzero"/><path fill="#000000" fill-opacity="0.0" clip-path="url(#id_0)" d="M82.45192 336.27853C82.45192 337.9354 81.10877 339.27853 79.45192 339.27853C77.79507 339.27853 76.45192 337.9354 76.45192 336.27853C76.45192 334.62167 77.79507 333.27853 79.45192 333.27853C81.10877 333.27853 82.45192 334.62167 82.45192 336.27853Z" fill-rule="nonzero"/><path fill="#000000" fill-opacity="0.0" clip-path="url(#id_0)" d="M82.45405 336.27853C82.45405 337.9354 81.1109 339.27853 79.45405 339.27853C77.797195 339.27853 76.45405 337.9354 76.45405 336.27853C76.45405 334.62167 77.797195 333.27853 79.45405 333.27853C81.1109 333.27853 82.45405 334.62167 82.45405 336.27853Z" fill-rule="nonzero"/><path fill="#000000" fill-opacity="0.0" clip-path="url(#id_0)" d="M82.45834 336.28986C82.45834 337.9467 81.1152 339.28986 79.45834 339.28986C77.80149 339.28986 76.45834 337.9467 76.45834 336.28986C76.45834 334.633 77.80149 333.28986 79.45834 333.28986C81.1152 333.28986 82.45834 334.633 82.45834 336.28986Z" fill-rule="nonzero"/><path fill="#000000" fill-opacity="0.0" clip-path="url(#id_0)" d="M82.46874 336.27853C82.46874 337.9354 81.1256 339.27853 79.46874 339.27853C77.81189 339.27853 76.46874 337.9354 76.46874 336.27853C76.46874 334.62167 77.81189 333.27853 79.46874 333.27853C81.1256 333.27853 82.46874 334.62167 82.46874 336.27853Z" fill-rule="nonzero"/><path fill="#000000" fill-opacity="0.0" clip-path="url(#id_0)" d="M82.48955 336.2672C82.48955 337.92407 81.1464 339.2672 79.48955 339.2672C77.83269 339.2672 76.48955 337.92407 76.48955 336.2672C76.48955 334.61038 77.83269 333.2672 79.48955 333.2672C81.1464 333.2672 82.48955 334.61038 82.48955 336.2672Z" fill-rule="nonzero"/><path fill="#000000" fill-opacity="0.0" clip-path="url(#id_0)" d="M82.53114 336.27853C82.53114 337.9354 81.187996 339.27853 79.53114 339.27853C77.87429 339.27853 76.53114 337.9354 76.53114 336.27853C76.53114 334.62167 77.87429 333.27853 79.53114 333.27853C81.187996 333.27853 82.53114 334.62167 82.53114 336.27853Z" fill-rule="nonzero"/><path fill="#000000" fill-opacity="0.0" clip-path="url(#id_0)" d="M82.62613 336.2672C82.62613 337.92407 81.28298 339.2672 79.62613 339.2672C77.96928 339.2672 76.62613 337.92407 76.62613 336.2672C76.62613 334.61038 77.96928 333.2672 79.62613 333.2672C81.28298 333.2672 82.62613 334.61038 82.62613 336.2672Z" fill-rule="nonzero"/><path fill="#000000" fill-opacity="0.0" clip-path="url(#id_0)" d="M82.82278 336.2446C82.82278 337.90146 81.47964 339.2446 79.82278 339.2446C78.165924 339.2446 76.82278 337.90146 76.82278 336.2446C76.82278 334.58774 78.165924 333.2446 79.82278 333.2446C81.47964 333.2446 82.82278 334.58774 82.82278 336.2446Z" fill-rule="nonzero"/><path fill="#000000" fill-opacity="0.0" clip-path="url(#id_0)" d="M83.21608 336.21066C83.21608 337.86752 81.87293 339.21066 80.21608 339.21066C78.55923 339.21066 77.21608 337.86752 77.21608 336.21066C77.21608 334.5538 78.55923 333.21066 80.21608 333.21066C81.87293 333.21066 83.21608 334.5538 83.21608 336.21066Z" fill-rule="nonzero"/><path fill="#000000" fill-opacity="0.0" clip-path="url(#id_0)" d="M84.06005 335.55463C84.06005 337.2115 82.7169 338.55463 81.06005 338.55463C79.4032 338.55463 78.06005 337.2115 78.06005 335.55463C78.06005 333.89777 79.4032 332.55463 81.06005 332.55463C82.7169 332.55463 84.06005 333.89777 84.06005 335.55463Z" fill-rule="nonzero"/><path fill="#000000" fill-opacity="0.0" clip-path="url(#id_0)" d="M85.875275 334.49136C85.875275 336.14822 84.532135 337.49136 82.875275 337.49136C81.21842 337.49136 79.875275 336.14822 79.875275 334.49136C79.875275 332.83453 81.21842 331.49136 82.875275 331.49136C84.532135 331.49136 85.875275 332.83453 85.875275 334.49136Z" fill-rule="nonzero"/><path fill="#000000" fill-opacity="0.0" clip-path="url(#id_0)" d="M89.50573 332.05948C89.50573 333.71634 88.16258 335.05948 86.50573 335.05948C84.84888 335.05948 83.50573 333.71634 83.50573 332.05948C83.50573 330.40265 84.84888 329.05948 86.50573 329.05948C88.16258 329.05948 89.50573 330.40265 89.50573 332.05948Z" fill-rule="nonzero"/><path fill="#000000" fill-opacity="0.0" clip-path="url(#id_0)" d="M96.85633 331.8672C96.85633 333.52405 95.51318 334.8672 93.85633 334.8672C92.19947 334.8672 90.85633 333.52405 90.85633 331.8672C90.85633 330.21036 92.19947 328.8672 93.85633 328.8672C95.51318 328.8672 96.85633 330.21036 96.85633 331.8672Z" fill-rule="nonzero"/><path fill="#000000" fill-opacity="0.0" clip-path="url(#id_0)" d="M113.31438 327.6934C113.31438 329.35025 111.97123 330.6934 110.31438 330.6934C108.65752 330.6934 107.31438 329.35025 107.31438 327.6934C107.31438 326.03656 108.65752 324.6934 110.31438 324.6934C111.97123 324.6934 113.31438 326.03656 113.31438 327.6934Z" fill-rule="nonzero"/><path fill="#000000" fill-opacity="0.0" clip-path="url(#id_0)" d="M146.23047 317.43423C146.23047 319.09106 144.88731 320.43423 143.23047 320.43423C141.57361 320.43423 140.23047 319.09106 140.23047 317.43423C140.23047 315.77737 141.57361 314.43423 143.23047 314.43423C144.88731 314.43423 146.23047 315.77737 146.23047 317.43423Z" fill-rule="nonzero"/><path fill="#000000" fill-opacity="0.0" clip-path="url(#id_0)" d="M212.06264 292.13126C212.06264 293.78812 210.7195 295.13126 209.06264 295.13126C207.40579 295.13126 206.06264 293.78812 206.06264 292.13126C206.06264 290.47443 207.40579 289.13126 209.06264 289.13126C210.7195 289.13126 212.06264 290.47443 212.06264 292.13126Z" fill-rule="nonzero"/><path fill="#000000" fill-opacity="0.0" clip-path="url(#id_0)" d="M356.24142 237.66827C356.24142 239.32512 354.8983 240.66827 353.24142 240.66827C351.58456 240.66827 350.24142 239.32512 350.24142 237.66827C350.24142 236.01141 351.58456 234.66827 353.24142 234.66827C354.8983 234.66827 356.24142 236.01141 356.24142 237.66827Z" fill-rule="nonzero"/><path fill="#000000" fill-opacity="0.0" clip-path="url(#id_0)" d="M650.55 117.79311C650.55 119.44997 649.20685 120.79311 647.55 120.79311C645.8931 120.79311 644.55 119.44997 644.55 117.79311C644.55 116.13625 645.8931 114.79311 647.55 114.79311C649.20685 114.79311 650.55 116.13625 650.55 117.79311Z" fill-rule="nonzero"/><path fill="#000000" d="M327.48438 385.55L327.48438 376.95624L333.28125 376.95624L333.28125 377.97186L328.625 377.97186L328.625 380.6281L332.65625 380.6281L332.65625 381.64374L328.625 381.64374L328.625 385.55L327.48438 385.55ZM334.29688 378.175L334.29688 376.95624L335.35938 376.95624L335.35938 378.175L334.29688 378.175ZM334.29688 385.55L334.29688 379.33124L335.35938 379.33124L335.35938 385.55L334.29688 385.55ZM337.26562 385.55L337.26562 376.95624L338.32812 376.95624L338.32812 385.55L337.26562 385.55ZM344.54688 383.55L345.64062 383.675Q345.39062 384.6281 344.6875 385.15936Q343.98438 385.6906 342.90625 385.6906Q341.54688 385.6906 340.73438 384.84686Q339.9375 384.0031 339.9375 382.4875Q339.9375 380.925 340.75 380.0656Q341.5625 379.1906 342.84375 379.1906Q344.09375 379.1906 344.875 380.03436Q345.67188 380.8781 345.67188 382.425Q345.67188 382.51874 345.67188 382.70624L341.03125 382.70624Q341.09375 383.7375 341.60938 384.28436Q342.125 384.8156 342.90625 384.8156Q343.48438 384.8156 343.89062 384.51874Q344.3125 384.20624 344.54688 383.55ZM341.09375 381.84686L344.5625 381.84686Q344.5 381.05 344.17188 380.65936Q343.65625 380.05 342.85938 380.05Q342.125 380.05 341.625 380.53436Q341.14062 381.01874 341.09375 381.84686ZM350.04688 382.78436L351.10938 382.6906Q351.1875 383.34686 351.46875 383.7531Q351.75 384.15936 352.32812 384.425Q352.92188 384.675 353.65625 384.675Q354.29688 384.675 354.79688 384.4875Q355.29688 384.28436 355.53125 383.95624Q355.78125 383.6125 355.78125 383.22186Q355.78125 382.8156 355.54688 382.51874Q355.3125 382.20624 354.78125 382.0031Q354.42188 381.8625 353.23438 381.58124Q352.0625 381.3 351.59375 381.05Q350.96875 380.72186 350.67188 380.2531Q350.375 379.76874 350.375 379.175Q350.375 378.53436 350.73438 377.97186Q351.10938 377.39374 351.8125 377.1125Q352.53125 376.8156 353.39062 376.8156Q354.34375 376.8156 355.07812 377.1281Q355.8125 377.425 356.20312 378.03436Q356.59375 378.6281 356.625 379.3781L355.53125 379.45624Q355.4375 378.64374 354.92188 378.2375Q354.42188 377.8156 353.4375 377.8156Q352.40625 377.8156 351.9375 378.1906Q351.46875 378.5656 351.46875 379.09686Q351.46875 379.5656 351.79688 379.8625Q352.125 380.15936 353.5 380.47186Q354.89062 380.78436 355.40625 381.01874Q356.15625 381.3781 356.51562 381.90936Q356.875 382.425 356.875 383.1281Q356.875 383.8156 356.48438 384.425Q356.09375 385.01874 355.35938 385.3625Q354.625 385.6906 353.70312 385.6906Q352.53125 385.6906 351.73438 385.3625Q350.95312 385.01874 350.5 384.33124Q350.0625 383.64374 350.04688 382.78436ZM358.29688 378.175L358.29688 376.95624L359.35938 376.95624L359.35938 378.175L358.29688 378.175ZM358.29688 385.55L358.29688 379.33124L359.35938 379.33124L359.35938 385.55L358.29688 385.55ZM360.73438 385.55L360.73438 384.6906L364.70312 380.14374Q364.01562 380.175 363.5 380.175L360.96875 380.175L360.96875 379.33124L366.0625 379.33124L366.0625 380.01874L362.6875 383.97186L362.03125 384.6906Q362.75 384.64374 363.35938 384.64374L366.25 384.64374L366.25 385.55L360.73438 385.55ZM370.54688 383.55L371.64062 383.675Q371.39062 384.6281 370.6875 385.15936Q369.98438 385.6906 368.90625 385.6906Q367.54688 385.6906 366.73438 384.84686Q365.9375 384.0031 365.9375 382.4875Q365.9375 380.925 366.75 380.0656Q367.5625 379.1906 368.84375 379.1906Q370.09375 379.1906 370.875 380.03436Q371.67188 380.8781 371.67188 382.425Q371.67188 382.51874 371.67188 382.70624L367.03125 382.70624Q367.09375 383.7375 367.60938 384.28436Q368.125 384.8156 368.90625 384.8156Q369.48438 384.8156 369.89062 384.51874Q370.3125 384.20624 370.54688 383.55ZM367.09375 381.84686L370.5625 381.84686Q370.5 381.05 370.17188 380.65936Q369.65625 380.05 368.85938 380.05Q368.125 380.05 367.625 380.53436Q367.14062 381.01874 367.09375 381.84686ZM378.3125 388.08124Q377.4375 386.97186 376.82812 385.5031Q376.23438 384.01874 376.23438 382.4406Q376.23438 381.05 376.67188 379.76874Q377.20312 378.28436 378.3125 376.8156L379.0625 376.8156Q378.35938 378.03436 378.125 378.55Q377.76562 379.3625 377.5625 380.2375Q377.3125 381.33124 377.3125 382.4406Q377.3125 385.26874 379.0625 388.08124L378.3125 388.08124ZM380.39062 385.55L380.39062 376.95624L382.10938 376.95624L384.14062 383.03436Q384.42188 383.89374 384.54688 384.3156Q384.6875 383.84686 385.0 382.9406L387.0625 376.95624L388.59375 376.95624L388.59375 385.55L387.5 385.55L387.5 378.3625L385.0 385.55L383.96875 385.55L381.48438 378.2375L381.48438 385.55L380.39062 385.55ZM389.375 385.55L389.375 376.95624L392.60938 376.95624Q393.59375 376.95624 394.1875 377.22186Q394.78125 377.4875 395.10938 378.03436Q395.45312 378.5656 395.45312 379.15936Q395.45312 379.70624 395.15625 380.1906Q394.85938 380.675 394.25 380.97186Q395.03125 381.20624 395.4375 381.76874Q395.85938 382.3156 395.85938 383.0656Q395.85938 383.65936 395.60938 384.1906Q395.35938 384.70624 394.98438 384.9875Q394.60938 385.26874 394.03125 385.40936Q393.46875 385.55 392.65625 385.55L389.375 385.55ZM390.51562 380.5656L392.375 380.5656Q393.125 380.5656 393.45312 380.47186Q393.89062 380.34686 394.10938 380.05Q394.32812 379.7375 394.32812 379.28436Q394.32812 378.8625 394.125 378.53436Q393.92188 378.20624 393.53125 378.09686Q393.15625 377.97186 392.23438 377.97186L390.51562 377.97186L390.51562 380.5656ZM390.51562 384.53436L392.65625 384.53436Q393.20312 384.53436 393.42188 384.4875Q393.82812 384.425 394.07812 384.26874Q394.34375 384.09686 394.51562 383.78436Q394.6875 383.47186 394.6875 383.0656Q394.6875 382.58124 394.4375 382.22186Q394.20312 381.8625 393.76562 381.72186Q393.32812 381.58124 392.5 381.58124L390.51562 381.58124L390.51562 384.53436ZM397.98438 388.08124L397.23438 388.08124Q398.98438 385.26874 398.98438 382.4406Q398.98438 381.34686 398.73438 380.2531Q398.53125 379.3781 398.17188 378.5656Q397.9375 378.05 397.23438 376.8156L397.98438 376.8156Q399.07812 378.28436 399.60938 379.76874Q400.0625 381.05 400.0625 382.4406Q400.0625 384.01874 399.45312 385.5031Q398.84375 386.97186 397.98438 388.08124Z" fill-rule="nonzero"/><path fill="#000000" d="M31.449987 229.20729L23.871862 229.20729L23.871862 232.03542L22.856237 232.03542L22.856237 225.22292L23.871862 225.22292L23.871862 228.06667L31.449987 228.06667L31.449987 229.20729ZM24.074987 224.51979L22.856237 224.51979L22.856237 223.45729L24.074987 223.45729L24.074987 224.51979ZM31.449987 224.51979L25.231237 224.51979L25.231237 223.45729L31.449987 223.45729L31.449987 224.51979ZM31.449987 221.51979L25.231237 221.51979L25.231237 220.58229L26.106237 220.58229Q25.637487 220.28542 25.371862 219.80104Q25.090612 219.31667 25.090612 218.69167Q25.090612 218.00417 25.371862 217.56667Q25.653112 217.11354 26.168737 216.94167Q25.090612 216.19167 25.090612 215.01979Q25.090612 214.08229 25.606237 213.59792Q26.106237 213.09792 27.184362 213.09792L31.449987 213.09792L31.449987 214.14479L27.528112 214.14479Q26.903112 214.14479 26.621862 214.25417Q26.340612 214.34792 26.168737 214.61354Q25.996862 214.87917 25.996862 215.25417Q25.996862 215.91042 26.434362 216.34792Q26.871862 216.76979 27.840612 216.76979L31.449987 216.76979L31.449987 217.83229L27.403112 217.83229Q26.699987 217.83229 26.356237 218.09792Q25.996862 218.34792 25.996862 218.92604Q25.996862 219.37917 26.231237 219.75417Q26.465612 220.12917 26.918737 220.30104Q27.371862 220.47292 28.215612 220.47292L31.449987 220.47292L31.449987 221.51979ZM29.449987 206.26979L29.574987 205.17604Q30.528112 205.42604 31.059362 206.12917Q31.590612 206.83229 31.590612 207.91042Q31.590612 209.26979 30.746862 210.08229Q29.903112 210.87917 28.387487 210.87917Q26.824987 210.87917 25.965612 210.06667Q25.090612 209.25417 25.090612 207.97292Q25.090612 206.72292 25.934362 205.94167Q26.778112 205.14479 28.324987 205.14479Q28.418737 205.14479 28.606237 205.14479L28.606237 209.78542Q29.637487 209.72292 30.184362 209.20729Q30.715612 208.69167 30.715612 207.91042Q30.715612 207.33229 30.418737 206.92604Q30.106237 206.50417 29.449987 206.26979ZM27.746862 209.72292L27.746862 206.25417Q26.949987 206.31667 26.559362 206.64479Q25.949987 207.16042 25.949987 207.95729Q25.949987 208.69167 26.434362 209.19167Q26.918737 209.67604 27.746862 209.72292ZM33.98124 198.50417Q32.871864 199.37917 31.403112 199.98854Q29.918737 200.58229 28.340612 200.58229Q26.949987 200.58229 25.668737 200.14479Q24.184362 199.61354 22.715612 198.50417L22.715612 197.75417Q23.934362 198.45729 24.449987 198.69167Q25.262487 199.05104 26.137487 199.25417Q27.231237 199.50417 28.340612 199.50417Q31.168737 199.50417 33.98124 197.75417L33.98124 198.50417ZM31.449987 196.51979L25.231237 196.51979L25.231237 195.58229L26.106237 195.58229Q25.637487 195.28542 25.371862 194.80104Q25.090612 194.31667 25.090612 193.69167Q25.090612 193.00417 25.371862 192.56667Q25.653112 192.11354 26.168737 191.94167Q25.090612 191.19167 25.090612 190.01979Q25.090612 189.08229 25.606237 188.59792Q26.106237 188.09792 27.184362 188.09792L31.449987 188.09792L31.449987 189.14479L27.528112 189.14479Q26.903112 189.14479 26.621862 189.25417Q26.340612 189.34792 26.168737 189.61354Q25.996862 189.87917 25.996862 190.25417Q25.996862 190.91042 26.434362 191.34792Q26.871862 191.76979 27.840612 191.76979L31.449987 191.76979L31.449987 192.83229L27.403112 192.83229Q26.699987 192.83229 26.356237 193.09792Q25.996862 193.34792 25.996862 193.92604Q25.996862 194.37917 26.231237 194.75417Q26.465612 195.12917 26.918737 195.30104Q27.371862 195.47292 28.215612 195.47292L31.449987 195.47292L31.449987 196.51979ZM33.98124 184.83229L33.98124 185.58229Q31.168737 183.83229 28.340612 183.83229Q27.246862 183.83229 26.153112 184.08229Q25.278112 184.28542 24.465612 184.64479Q23.949987 184.87917 22.715612 185.58229L22.715612 184.83229Q24.184362 183.73854 25.668737 183.20729Q26.949987 182.75417 28.340612 182.75417Q29.918737 182.75417 31.403112 183.36354Q32.871864 183.97292 33.98124 184.83229Z" fill-rule="nonzero"/><path fill="#000000" d="M66.95 336.3156Q66.95 334.78436 67.2625 333.8625Q67.575 332.925 68.18437 332.425Q68.80937 331.925 69.74687 331.925Q70.43437 331.925 70.95 332.20624Q71.48125 332.4875 71.825 333.01874Q72.16875 333.53436 72.35625 334.28436Q72.54375 335.03436 72.54375 336.3156Q72.54375 337.83124 72.23125 338.7531Q71.93437 339.675 71.30937 340.1906Q70.7 340.6906 69.74687 340.6906Q68.5125 340.6906 67.79375 339.8Q66.95 338.7375 66.95 336.3156ZM68.02812 336.3156Q68.02812 338.425 68.52812 339.1281Q69.02812 339.83124 69.74687 339.83124Q70.48125 339.83124 70.96562 339.1281Q71.46562 338.425 71.46562 336.3156Q71.46562 334.1906 70.96562 333.5031Q70.48125 332.8 69.73125 332.8Q69.0125 332.8 68.575 333.40936Q68.02812 334.1906 68.02812 336.3156Z" fill-rule="nonzero"/><path fill="#000000" d="M70.91875 272.68332L69.87187 272.68332L69.87187 265.96457Q69.48125 266.32394 68.85625 266.69894Q68.24687 267.05832 67.7625 267.2302L67.7625 266.21457Q68.6375 265.7927 69.29375 265.21457Q69.96562 264.62082 70.24687 264.05832L70.91875 264.05832L70.91875 272.68332Z" fill-rule="nonzero"/><path fill="#000000" d="M72.49687 203.80104L72.49687 204.81667L66.80937 204.81667Q66.80937 204.44167 66.93437 204.08229Q67.15312 203.50417 67.62187 202.94167Q68.10625 202.37917 69.0125 201.64479Q70.41875 200.48854 70.90312 199.81667Q71.40312 199.14479 71.40312 198.55104Q71.40312 197.92604 70.95 197.50417Q70.49687 197.06667 69.77812 197.06667Q69.0125 197.06667 68.55937 197.51979Q68.10625 197.97292 68.09062 198.78542L67.0125 198.67604Q67.12187 197.45729 67.84062 196.83229Q68.575 196.19167 69.80937 196.19167Q71.04375 196.19167 71.7625 196.87917Q72.48125 197.56667 72.48125 198.58229Q72.48125 199.09792 72.2625 199.59792Q72.05937 200.08229 71.55937 200.64479Q71.075 201.19167 69.95 202.14479Q68.99687 202.94167 68.71562 203.23854Q68.45 203.51979 68.27812 203.80104L72.49687 203.80104Z" fill-rule="nonzero"/><path fill="#000000" d="M66.95 134.68437L68.0125 134.54375Q68.18437 135.43437 68.62187 135.84062Q69.05937 136.23125 69.68437 136.23125Q70.43437 136.23125 70.95 135.71562Q71.46562 135.2 71.46562 134.43437Q71.46562 133.71562 70.98125 133.24687Q70.5125 132.7625 69.77812 132.7625Q69.48125 132.7625 69.02812 132.8875L69.15312 131.95Q69.2625 131.96562 69.325 131.96562Q69.99687 131.96562 70.52812 131.62187Q71.075 131.2625 71.075 130.52812Q71.075 129.95 70.68437 129.575Q70.29375 129.18437 69.66875 129.18437Q69.05937 129.18437 68.6375 129.575Q68.23125 129.96562 68.12187 130.73125L67.05937 130.54375Q67.24687 129.49687 67.93437 128.91875Q68.62187 128.325 69.6375 128.325Q70.34062 128.325 70.93437 128.6375Q71.52812 128.93437 71.84062 129.45Q72.15312 129.96562 72.15312 130.55937Q72.15312 131.10625 71.85625 131.575Q71.55937 132.02812 70.98125 132.29375Q71.73125 132.46562 72.15312 133.02812Q72.575 133.575 72.575 134.41875Q72.575 135.54375 71.74687 136.325Q70.93437 137.10625 69.68437 137.10625Q68.55937 137.10625 67.80937 136.43437Q67.05937 135.74687 66.95 134.68437Z" fill-rule="nonzero"/><path fill="#000000" d="M70.325 69.083336L70.325 67.020836L66.60625 67.020836L66.60625 66.052086L70.52812 60.489586L71.3875 60.489586L71.3875 66.052086L72.54375 66.052086L72.54375 67.020836L71.3875 67.020836L71.3875 69.083336L70.325 69.083336ZM70.325 66.052086L70.325 62.19271L67.6375 66.052086L70.325 66.052086Z" fill-rule="nonzero"/><path fill="#000000" d="M165.7458 353.55L164.69893 353.55L164.69893 346.83124Q164.3083 347.1906 163.6833 347.5656Q163.07393 347.925 162.58955 348.09686L162.58955 347.08124Q163.46455 346.65936 164.1208 346.08124Q164.79268 345.4875 165.07393 344.925L165.7458 344.925L165.7458 353.55ZM168.77705 349.3156Q168.77705 347.78436 169.08955 346.8625Q169.40205 345.925 170.01143 345.425Q170.63643 344.925 171.57393 344.925Q172.26143 344.925 172.77705 345.20624Q173.3083 345.4875 173.65205 346.01874Q173.9958 346.53436 174.1833 347.28436Q174.3708 348.03436 174.3708 349.3156Q174.3708 350.83124 174.0583 351.7531Q173.76143 352.675 173.13643 353.1906Q172.52705 353.6906 171.57393 353.6906Q170.33955 353.6906 169.6208 352.8Q168.77705 351.7375 168.77705 349.3156ZM169.85518 349.3156Q169.85518 351.425 170.35518 352.1281Q170.85518 352.83124 171.57393 352.83124Q172.3083 352.83124 172.79268 352.1281Q173.29268 351.425 173.29268 349.3156Q173.29268 347.1906 172.79268 346.5031Q172.3083 345.8 171.5583 345.8Q170.83955 345.8 170.40205 346.40936Q169.85518 347.1906 169.85518 349.3156ZM175.77705 349.3156Q175.77705 347.78436 176.08955 346.8625Q176.40205 345.925 177.01143 345.425Q177.63643 344.925 178.57393 344.925Q179.26143 344.925 179.77705 345.20624Q180.3083 345.4875 180.65205 346.01874Q180.9958 346.53436 181.1833 347.28436Q181.3708 348.03436 181.3708 349.3156Q181.3708 350.83124 181.0583 351.7531Q180.76143 352.675 180.13643 353.1906Q179.52705 353.6906 178.57393 353.6906Q177.33955 353.6906 176.6208 352.8Q175.77705 351.7375 175.77705 349.3156ZM176.85518 349.3156Q176.85518 351.425 177.35518 352.1281Q177.85518 352.83124 178.57393 352.83124Q179.3083 352.83124 179.79268 352.1281Q180.29268 351.425 180.29268 349.3156Q180.29268 347.1906 179.79268 346.5031Q179.3083 345.8 178.5583 345.8Q177.83955 345.8 177.40205 346.40936Q176.85518 347.1906 176.85518 349.3156Z" fill-rule="nonzero"/><path fill="#000000" d="M259.65106 352.53436L259.65106 353.55L253.96358 353.55Q253.96358 353.175 254.08858 352.8156Q254.30733 352.2375 254.77608 351.675Q255.26045 351.1125 256.1667 350.3781Q257.57294 349.22186 258.0573 348.55Q258.5573 347.8781 258.5573 347.28436Q258.5573 346.65936 258.1042 346.2375Q257.65106 345.8 256.9323 345.8Q256.1667 345.8 255.71358 346.2531Q255.26045 346.70624 255.24483 347.51874L254.1667 347.40936Q254.27608 346.1906 254.99483 345.5656Q255.7292 344.925 256.96356 344.925Q258.19794 344.925 258.9167 345.6125Q259.63544 346.3 259.63544 347.3156Q259.63544 347.83124 259.4167 348.33124Q259.21356 348.8156 258.71356 349.3781Q258.2292 349.925 257.1042 350.8781Q256.15106 351.675 255.86983 351.97186Q255.6042 352.2531 255.43233 352.53436L259.65106 352.53436ZM261.1042 349.3156Q261.1042 347.78436 261.4167 346.8625Q261.7292 345.925 262.33856 345.425Q262.96356 344.925 263.90106 344.925Q264.58856 344.925 265.1042 345.20624Q265.63544 345.4875 265.9792 346.01874Q266.32294 346.53436 266.51044 347.28436Q266.69794 348.03436 266.69794 349.3156Q266.69794 350.83124 266.38544 351.7531Q266.08856 352.675 265.46356 353.1906Q264.8542 353.6906 263.90106 353.6906Q262.6667 353.6906 261.94794 352.8Q261.1042 351.7375 261.1042 349.3156ZM262.1823 349.3156Q262.1823 351.425 262.6823 352.1281Q263.1823 352.83124 263.90106 352.83124Q264.63544 352.83124 265.1198 352.1281Q265.6198 351.425 265.6198 349.3156Q265.6198 347.1906 265.1198 346.5031Q264.63544 345.8 263.88544 345.8Q263.1667 345.8 262.7292 346.40936Q262.1823 347.1906 262.1823 349.3156ZM268.1042 349.3156Q268.1042 347.78436 268.4167 346.8625Q268.7292 345.925 269.33856 345.425Q269.96356 344.925 270.90106 344.925Q271.58856 344.925 272.1042 345.20624Q272.63544 345.4875 272.9792 346.01874Q273.32294 346.53436 273.51044 347.28436Q273.69794 348.03436 273.69794 349.3156Q273.69794 350.83124 273.38544 351.7531Q273.08856 352.675 272.46356 353.1906Q271.8542 353.6906 270.90106 353.6906Q269.6667 353.6906 268.94794 352.8Q268.1042 351.7375 268.1042 349.3156ZM269.1823 349.3156Q269.1823 351.425 269.6823 352.1281Q270.1823 352.83124 270.90106 352.83124Q271.63544 352.83124 272.1198 352.1281Q272.6198 351.425 272.6198 349.3156Q272.6198 347.1906 272.1198 346.5031Q271.63544 345.8 270.88544 345.8Q270.1667 345.8 269.7292 346.40936Q269.1823 347.1906 269.1823 349.3156Z" fill-rule="nonzero"/><path fill="#000000" d="M346.43134 351.28436L347.49384 351.14374Q347.6657 352.03436 348.1032 352.4406Q348.5407 352.83124 349.1657 352.83124Q349.9157 352.83124 350.43134 352.3156Q350.94696 351.8 350.94696 351.03436Q350.94696 350.3156 350.4626 349.84686Q349.99384 349.3625 349.25946 349.3625Q348.9626 349.3625 348.50946 349.4875L348.63446 348.55Q348.74384 348.5656 348.80634 348.5656Q349.4782 348.5656 350.00946 348.22186Q350.55634 347.8625 350.55634 347.1281Q350.55634 346.55 350.1657 346.175Q349.7751 345.78436 349.1501 345.78436Q348.5407 345.78436 348.11884 346.175Q347.7126 346.5656 347.6032 347.33124L346.5407 347.14374Q346.7282 346.09686 347.4157 345.51874Q348.1032 344.925 349.11884 344.925Q349.82196 344.925 350.4157 345.2375Q351.00946 345.53436 351.32196 346.05Q351.63446 346.5656 351.63446 347.15936Q351.63446 347.70624 351.3376 348.175Q351.0407 348.6281 350.4626 348.89374Q351.2126 349.0656 351.63446 349.6281Q352.05634 350.175 352.05634 351.01874Q352.05634 352.14374 351.2282 352.925Q350.4157 353.70624 349.1657 353.70624Q348.0407 353.70624 347.2907 353.03436Q346.5407 352.34686 346.43134 351.28436ZM353.43134 349.3156Q353.43134 347.78436 353.74384 346.8625Q354.05634 345.925 354.6657 345.425Q355.2907 344.925 356.2282 344.925Q356.9157 344.925 357.43134 345.20624Q357.9626 345.4875 358.30634 346.01874Q358.6501 346.53436 358.8376 347.28436Q359.0251 348.03436 359.0251 349.3156Q359.0251 350.83124 358.7126 351.7531Q358.4157 352.675 357.7907 353.1906Q357.18134 353.6906 356.2282 353.6906Q354.99384 353.6906 354.2751 352.8Q353.43134 351.7375 353.43134 349.3156ZM354.50946 349.3156Q354.50946 351.425 355.00946 352.1281Q355.50946 352.83124 356.2282 352.83124Q356.9626 352.83124 357.44696 352.1281Q357.94696 351.425 357.94696 349.3156Q357.94696 347.1906 357.44696 346.5031Q356.9626 345.8 356.2126 345.8Q355.49384 345.8 355.05634 346.40936Q354.50946 347.1906 354.50946 349.3156ZM360.43134 349.3156Q360.43134 347.78436 360.74384 346.8625Q361.05634 345.925 361.6657 345.425Q362.2907 344.925 363.2282 344.925Q363.9157 344.925 364.43134 345.20624Q364.9626 345.4875 365.30634 346.01874Q365.6501 346.53436 365.8376 347.28436Q366.0251 348.03436 366.0251 349.3156Q366.0251 350.83124 365.7126 351.7531Q365.4157 352.675 364.7907 353.1906Q364.18134 353.6906 363.2282 353.6906Q361.99384 353.6906 361.2751 352.8Q360.43134 351.7375 360.43134 349.3156ZM361.50946 349.3156Q361.50946 351.425 362.00946 352.1281Q362.50946 352.83124 363.2282 352.83124Q363.9626 352.83124 364.44696 352.1281Q364.94696 351.425 364.94696 349.3156Q364.94696 347.1906 364.44696 346.5031Q363.9626 345.8 363.2126 345.8Q362.49384 345.8 362.05634 346.40936Q361.50946 347.1906 361.50946 349.3156Z" fill-rule="nonzero"/><path fill="#000000" d="M442.13348 353.55L442.13348 351.4875L438.41473 351.4875L438.41473 350.51874L442.3366 344.95624L443.19598 344.95624L443.19598 350.51874L444.35223 350.51874L444.35223 351.4875L443.19598 351.4875L443.19598 353.55L442.13348 353.55ZM442.13348 350.51874L442.13348 346.65936L439.44598 350.51874L442.13348 350.51874ZM445.75848 349.3156Q445.75848 347.78436 446.07098 346.8625Q446.38348 345.925 446.99286 345.425Q447.61786 344.925 448.55536 344.925Q449.24286 344.925 449.75848 345.20624Q450.28973 345.4875 450.63348 346.01874Q450.97723 346.53436 451.16473 347.28436Q451.35223 348.03436 451.35223 349.3156Q451.35223 350.83124 451.03973 351.7531Q450.74286 352.675 450.11786 353.1906Q449.50848 353.6906 448.55536 353.6906Q447.32098 353.6906 446.60223 352.8Q445.75848 351.7375 445.75848 349.3156ZM446.8366 349.3156Q446.8366 351.425 447.3366 352.1281Q447.8366 352.83124 448.55536 352.83124Q449.28973 352.83124 449.7741 352.1281Q450.2741 351.425 450.2741 349.3156Q450.2741 347.1906 449.7741 346.5031Q449.28973 345.8 448.53973 345.8Q447.82098 345.8 447.38348 346.40936Q446.8366 347.1906 446.8366 349.3156ZM452.75848 349.3156Q452.75848 347.78436 453.07098 346.8625Q453.38348 345.925 453.99286 345.425Q454.61786 344.925 455.55536 344.925Q456.24286 344.925 456.75848 345.20624Q457.28973 345.4875 457.63348 346.01874Q457.97723 346.53436 458.16473 347.28436Q458.35223 348.03436 458.35223 349.3156Q458.35223 350.83124 458.03973 351.7531Q457.74286 352.675 457.11786 353.1906Q456.50848 353.6906 455.55536 353.6906Q454.32098 353.6906 453.60223 352.8Q452.75848 351.7375 452.75848 349.3156ZM453.8366 349.3156Q453.8366 351.425 454.3366 352.1281Q454.8366 352.83124 455.55536 352.83124Q456.28973 352.83124 456.7741 352.1281Q457.2741 351.425 457.2741 349.3156Q457.2741 347.1906 456.7741 346.5031Q456.28973 345.8 455.53973 345.8Q454.82098 345.8 454.38348 346.40936Q453.8366 347.1906 453.8366 349.3156Z" fill-rule="nonzero"/><path fill="#000000" d="M531.08563 351.3L532.195 351.20624Q532.32 352.01874 532.7575 352.425Q533.21063 352.83124 533.85126 352.83124Q534.60126 352.83124 535.1325 352.2531Q535.66376 351.675 535.66376 350.7375Q535.66376 349.83124 535.14813 349.3156Q534.64813 348.78436 533.82 348.78436Q533.32 348.78436 532.89813 349.01874Q532.4919 349.2531 532.2575 349.6125L531.27313 349.4875L532.10126 345.08124L536.3825 345.08124L536.3825 346.08124L532.945 346.08124L532.4919 348.39374Q533.2575 347.84686 534.10126 347.84686Q535.22626 347.84686 535.9919 348.6281Q536.77313 349.40936 536.77313 350.64374Q536.77313 351.8 536.10126 352.65936Q535.27313 353.6906 533.85126 353.6906Q532.6794 353.6906 531.9294 353.03436Q531.195 352.3781 531.08563 351.3ZM538.08563 349.3156Q538.08563 347.78436 538.39813 346.8625Q538.71063 345.925 539.32 345.425Q539.945 344.925 540.8825 344.925Q541.57 344.925 542.08563 345.20624Q542.6169 345.4875 542.96063 346.01874Q543.3044 346.53436 543.4919 347.28436Q543.6794 348.03436 543.6794 349.3156Q543.6794 350.83124 543.3669 351.7531Q543.07 352.675 542.445 353.1906Q541.83563 353.6906 540.8825 353.6906Q539.64813 353.6906 538.9294 352.8Q538.08563 351.7375 538.08563 349.3156ZM539.16376 349.3156Q539.16376 351.425 539.66376 352.1281Q540.16376 352.83124 540.8825 352.83124Q541.6169 352.83124 542.10126 352.1281Q542.60126 351.425 542.60126 349.3156Q542.60126 347.1906 542.10126 346.5031Q541.6169 345.8 540.8669 345.8Q540.14813 345.8 539.71063 346.40936Q539.16376 347.1906 539.16376 349.3156ZM545.08563 349.3156Q545.08563 347.78436 545.39813 346.8625Q545.71063 345.925 546.32 345.425Q546.945 344.925 547.8825 344.925Q548.57 344.925 549.08563 345.20624Q549.6169 345.4875 549.96063 346.01874Q550.3044 346.53436 550.4919 347.28436Q550.6794 348.03436 550.6794 349.3156Q550.6794 350.83124 550.3669 351.7531Q550.07 352.675 549.445 353.1906Q548.83563 353.6906 547.8825 353.6906Q546.64813 353.6906 545.9294 352.8Q545.08563 351.7375 545.08563 349.3156ZM546.16376 349.3156Q546.16376 351.425 546.66376 352.1281Q547.16376 352.83124 547.8825 352.83124Q548.6169 352.83124 549.10126 352.1281Q549.60126 351.425 549.60126 349.3156Q549.60126 347.1906 549.10126 346.5031Q548.6169 345.8 547.8669 345.8Q547.14813 345.8 546.71063 346.40936Q546.16376 347.1906 546.16376 349.3156Z" fill-rule="nonzero"/><path fill="#000000" d="M628.88153 347.0656L627.83466 347.14374Q627.69403 346.51874 627.44403 346.2375Q627.00653 345.78436 626.38153 345.78436Q625.88153 345.78436 625.4909 346.0656Q625.00653 346.4406 624.70966 347.14374Q624.4284 347.83124 624.4128 349.1125Q624.7878 348.53436 625.33466 348.2531Q625.89716 347.97186 626.50653 347.97186Q627.5534 347.97186 628.2878 348.7531Q629.0378 349.53436 629.0378 350.7531Q629.0378 351.5656 628.6784 352.26874Q628.33466 352.95624 627.7253 353.33124Q627.1159 353.6906 626.3503 353.6906Q625.02216 353.6906 624.19403 352.72186Q623.3659 351.7531 623.3659 349.53436Q623.3659 347.03436 624.2878 345.90936Q625.08466 344.925 626.44403 344.925Q627.45966 344.925 628.1003 345.5031Q628.75653 346.0656 628.88153 347.0656ZM624.58466 350.76874Q624.58466 351.3156 624.8034 351.8156Q625.0378 352.3 625.44403 352.5656Q625.8659 352.83124 626.33466 352.83124Q626.9909 352.83124 627.4753 352.3Q627.95966 351.7531 627.95966 350.83124Q627.95966 349.9406 627.4753 349.425Q627.00653 348.90936 626.2878 348.90936Q625.56903 348.90936 625.06903 349.425Q624.58466 349.9406 624.58466 350.76874ZM630.4128 349.3156Q630.4128 347.78436 630.7253 346.8625Q631.0378 345.925 631.64716 345.425Q632.27216 344.925 633.20966 344.925Q633.89716 344.925 634.4128 345.20624Q634.94403 345.4875 635.2878 346.01874Q635.63153 346.53436 635.81903 347.28436Q636.00653 348.03436 636.00653 349.3156Q636.00653 350.83124 635.69403 351.7531Q635.39716 352.675 634.77216 353.1906Q634.1628 353.6906 633.20966 353.6906Q631.9753 353.6906 631.25653 352.8Q630.4128 351.7375 630.4128 349.3156ZM631.4909 349.3156Q631.4909 351.425 631.9909 352.1281Q632.4909 352.83124 633.20966 352.83124Q633.94403 352.83124 634.4284 352.1281Q634.9284 351.425 634.9284 349.3156Q634.9284 347.1906 634.4284 346.5031Q633.94403 345.8 633.19403 345.8Q632.4753 345.8 632.0378 346.40936Q631.4909 347.1906 631.4909 349.3156ZM637.4128 349.3156Q637.4128 347.78436 637.7253 346.8625Q638.0378 345.925 638.64716 345.425Q639.27216 344.925 640.20966 344.925Q640.89716 344.925 641.4128 345.20624Q641.94403 345.4875 642.2878 346.01874Q642.63153 346.53436 642.81903 347.28436Q643.00653 348.03436 643.00653 349.3156Q643.00653 350.83124 642.69403 351.7531Q642.39716 352.675 641.77216 353.1906Q641.1628 353.6906 640.20966 353.6906Q638.9753 353.6906 638.25653 352.8Q637.4128 351.7375 637.4128 349.3156ZM638.4909 349.3156Q638.4909 351.425 638.9909 352.1281Q639.4909 352.83124 640.20966 352.83124Q640.94403 352.83124 641.4284 352.1281Q641.9284 351.425 641.9284 349.3156Q641.9284 347.1906 641.4284 346.5031Q640.94403 345.8 640.19403 345.8Q639.4753 345.8 639.0378 346.40936Q638.4909 347.1906 638.4909 349.3156Z" fill-rule="nonzero"/><path fill="#757575" d="M25.6375 39.45L25.6375 26.825L20.91875 26.825L20.91875 25.1375L32.2625 25.1375L32.2625 26.825L27.528126 26.825L27.528126 39.45L25.6375 39.45ZM33.35625 34.85625L35.1375 34.7Q35.2625 35.7625 35.715626 36.45Q36.184376 37.1375 37.153126 37.575Q38.1375 37.996876 39.371876 37.996876Q40.45 37.996876 41.278126 37.684376Q42.10625 37.35625 42.5125 36.79375Q42.91875 36.23125 42.91875 35.559376Q42.91875 34.8875 42.528126 34.3875Q42.1375 33.8875 41.246876 33.54375Q40.66875 33.309376 38.684376 32.840626Q36.715626 32.371876 35.934376 31.95Q34.903126 31.41875 34.403126 30.621876Q33.903126 29.825 33.903126 28.840626Q33.903126 27.746876 34.5125 26.809376Q35.121876 25.871876 36.309376 25.3875Q37.496876 24.8875 38.934376 24.8875Q40.528126 24.8875 41.746876 25.403126Q42.965626 25.91875 43.60625 26.91875Q44.2625 27.903126 44.309376 29.16875L42.496876 29.309376Q42.35625 27.95 41.5125 27.2625Q40.66875 26.559376 39.0125 26.559376Q37.29375 26.559376 36.496876 27.2Q35.715626 27.825 35.715626 28.7Q35.715626 29.48125 36.278126 29.98125Q36.825 30.48125 39.1375 30.996876Q41.45 31.5125 42.309376 31.903126Q43.559376 32.48125 44.153126 33.371876Q44.746876 34.246876 44.746876 35.403126Q44.746876 36.54375 44.090626 37.559376Q43.434376 38.575 42.2 39.1375Q40.98125 39.7 39.45 39.7Q37.5125 39.7 36.2 39.1375Q34.8875 38.559376 34.1375 37.41875Q33.3875 36.278126 33.35625 34.85625ZM53.7 33.840626L53.7 32.153126L59.7625 32.1375L59.7625 37.45Q58.35625 38.575 56.871876 39.1375Q55.3875 39.7 53.825 39.7Q51.715626 39.7 49.996876 38.79375Q48.278126 37.8875 47.3875 36.184376Q46.5125 34.465626 46.5125 32.35625Q46.5125 30.2625 47.3875 28.465626Q48.2625 26.653126 49.903126 25.778126Q51.54375 24.8875 53.684376 24.8875Q55.23125 24.8875 56.48125 25.3875Q57.746876 25.8875 58.45 26.79375Q59.16875 27.684376 59.54375 29.1375L57.840626 29.60625Q57.5125 28.5125 57.028126 27.8875Q56.559376 27.2625 55.66875 26.8875Q54.778126 26.5125 53.7 26.5125Q52.3875 26.5125 51.434376 26.903126Q50.496876 27.29375 49.91875 27.95Q49.340626 28.590626 49.0125 29.35625Q48.465626 30.684376 48.465626 32.246876Q48.465626 34.153126 49.121876 35.45Q49.79375 36.73125 51.04375 37.35625Q52.309376 37.98125 53.715626 37.98125Q54.95 37.98125 56.121876 37.5125Q57.29375 37.04375 57.903126 36.496876L57.903126 33.840626L53.7 33.840626ZM62.41875 32.48125Q62.41875 28.91875 64.325 26.903126Q66.24687 24.871876 69.27812 24.871876Q71.2625 24.871876 72.84062 25.825Q74.43437 26.778126 75.2625 28.48125Q76.10625 30.16875 76.10625 32.309376Q76.10625 34.48125 75.23125 36.2Q74.35625 37.91875 72.73125 38.809376Q71.12187 39.7 69.2625 39.7Q67.24687 39.7 65.65312 38.73125Q64.05937 37.746876 63.23125 36.059376Q62.41875 34.35625 62.41875 32.48125ZM64.37187 32.5125Q64.37187 35.090626 65.7625 36.590626Q67.15312 38.075 69.24687 38.075Q71.3875 38.075 72.7625 36.575Q74.15312 35.059376 74.15312 32.29375Q74.15312 30.559376 73.55937 29.2625Q72.98125 27.95 71.84062 27.23125Q70.7 26.5125 69.27812 26.5125Q67.27812 26.5125 65.825 27.903126Q64.37187 29.278126 64.37187 32.5125ZM88.60625 37.871876L88.85625 39.434376Q88.12187 39.590626 87.52812 39.590626Q86.575 39.590626 86.04375 39.29375Q85.52812 38.98125 85.30937 38.496876Q85.09062 37.996876 85.09062 36.41875L85.09062 30.45L83.80937 30.45L83.80937 29.075L85.09062 29.075L85.09062 26.5125L86.84062 25.45L86.84062 29.075L88.60625 29.075L88.60625 30.45L86.84062 30.45L86.84062 36.5125Q86.84062 37.2625 86.93437 37.48125Q87.02812 37.684376 87.23125 37.825Q87.45 37.95 87.84062 37.95Q88.12187 37.95 88.60625 37.871876ZM90.68437 43.45L90.49687 41.79375Q91.075 41.95 91.49687 41.95Q92.09062 41.95 92.43437 41.746876Q92.79375 41.559376 93.0125 41.215626Q93.18437 40.95 93.55937 39.903126Q93.60625 39.746876 93.71562 39.465626L89.77812 29.075L91.66875 29.075L93.825 35.090626Q94.24687 36.23125 94.575 37.48125Q94.8875 36.278126 95.29375 35.121876L97.5125 29.075L99.27812 29.075L95.325 39.621876Q94.7 41.340626 94.34062 41.98125Q93.87187 42.85625 93.2625 43.246876Q92.66875 43.653126 91.825 43.653126Q91.30937 43.653126 90.68437 43.45ZM100.7625 43.41875L100.7625 29.075L102.37187 29.075L102.37187 30.41875Q102.93437 29.6375 103.6375 29.246876Q104.35625 28.840626 105.37187 28.840626Q106.7 28.840626 107.71562 29.528126Q108.73125 30.215626 109.24687 31.465626Q109.77812 32.7 109.77812 34.184376Q109.77812 35.778126 109.2 37.059376Q108.6375 38.325 107.54375 39.0125Q106.45 39.684376 105.24687 39.684376Q104.37187 39.684376 103.66875 39.309376Q102.98125 38.934376 102.52812 38.371876L102.52812 43.41875L100.7625 43.41875ZM102.35625 34.325Q102.35625 36.325 103.16875 37.278126Q103.98125 38.23125 105.1375 38.23125Q106.30937 38.23125 107.1375 37.246876Q107.98125 36.2625 107.98125 34.16875Q107.98125 32.2 107.15312 31.215626Q106.34062 30.215626 105.21562 30.215626Q104.09062 30.215626 103.21562 31.278126Q102.35625 32.325 102.35625 34.325ZM118.87187 36.10625L120.68437 36.340626Q120.2625 37.91875 119.09062 38.809376Q117.93437 39.684376 116.12187 39.684376Q113.85625 39.684376 112.5125 38.29375Q111.18437 36.8875 111.18437 34.35625Q111.18437 31.73125 112.52812 30.29375Q113.87187 28.840626 116.02812 28.840626Q118.10625 28.840626 119.41875 30.2625Q120.74687 31.66875 120.74687 34.246876Q120.74687 34.403126 120.73125 34.715626L112.99687 34.715626Q113.09062 36.41875 113.96562 37.325Q114.84062 38.23125 116.1375 38.23125Q117.10625 38.23125 117.77812 37.73125Q118.46562 37.215626 118.87187 36.10625ZM113.09062 33.2625L118.8875 33.2625Q118.77812 31.965626 118.23125 31.309376Q117.3875 30.29375 116.04375 30.29375Q114.84062 30.29375 114.0125 31.10625Q113.18437 31.903126 113.09062 33.2625ZM129.54375 35.653126L131.2625 35.871876Q130.98125 37.66875 129.80937 38.684376Q128.65312 39.684376 126.95 39.684376Q124.825 39.684376 123.52812 38.29375Q122.23125 36.903126 122.23125 34.309376Q122.23125 32.621876 122.77812 31.371876Q123.34062 30.10625 124.48125 29.48125Q125.62187 28.840626 126.96562 28.840626Q128.65312 28.840626 129.71562 29.7Q130.79375 30.559376 131.10625 32.121876L129.3875 32.3875Q129.15312 31.340626 128.52812 30.825Q127.90312 30.29375 127.02812 30.29375Q125.7 30.29375 124.87187 31.246876Q124.04375 32.2 124.04375 34.246876Q124.04375 36.340626 124.84062 37.29375Q125.6375 38.23125 126.93437 38.23125Q127.96562 38.23125 128.65312 37.60625Q129.35625 36.965626 129.54375 35.653126ZM132.7625 39.45L132.7625 25.1375L134.52812 25.1375L134.52812 30.2625Q135.7625 28.840626 137.6375 28.840626Q138.77812 28.840626 139.62187 29.29375Q140.48125 29.746876 140.84062 30.559376Q141.21562 31.35625 141.21562 32.871876L141.21562 39.45L139.46562 39.45L139.46562 32.871876Q139.46562 31.559376 138.8875 30.965626Q138.30937 30.35625 137.27812 30.35625Q136.49687 30.35625 135.79375 30.7625Q135.10625 31.16875 134.80937 31.871876Q134.52812 32.559376 134.52812 33.778126L134.52812 39.45L132.7625 39.45ZM149.87187 36.10625L151.68437 36.340626Q151.2625 37.91875 150.09062 38.809376Q148.93437 39.684376 147.12187 39.684376Q144.85625 39.684376 143.5125 38.29375Q142.18437 36.8875 142.18437 34.35625Q142.18437 31.73125 143.52812 30.29375Q144.87187 28.840626 147.02812 28.840626Q149.10625 28.840626 150.41875 30.2625Q151.74687 31.66875 151.74687 34.246876Q151.74687 34.403126 151.73125 34.715626L143.99687 34.715626Q144.09062 36.41875 144.96562 37.325Q145.84062 38.23125 147.1375 38.23125Q148.10625 38.23125 148.77812 37.73125Q149.46562 37.215626 149.87187 36.10625ZM144.09062 33.2625L149.8875 33.2625Q149.77812 31.965626 149.23125 31.309376Q148.3875 30.29375 147.04375 30.29375Q145.84062 30.29375 145.0125 31.10625Q144.18437 31.903126 144.09062 33.2625ZM160.54375 35.653126L162.2625 35.871876Q161.98125 37.66875 160.80937 38.684376Q159.65312 39.684376 157.95 39.684376Q155.825 39.684376 154.52812 38.29375Q153.23125 36.903126 153.23125 34.309376Q153.23125 32.621876 153.77812 31.371876Q154.34062 30.10625 155.48125 29.48125Q156.62187 28.840626 157.96562 28.840626Q159.65312 28.840626 160.71562 29.7Q161.79375 30.559376 162.10625 32.121876L160.3875 32.3875Q160.15312 31.340626 159.52812 30.825Q158.90312 30.29375 158.02812 30.29375Q156.7 30.29375 155.87187 31.246876Q155.04375 32.2 155.04375 34.246876Q155.04375 36.340626 155.84062 37.29375Q156.6375 38.23125 157.93437 38.23125Q158.96562 38.23125 159.65312 37.60625Q160.35625 36.965626 160.54375 35.653126ZM163.77812 39.45L163.77812 25.1375L165.54375 25.1375L165.54375 33.29375L169.7 29.075L171.96562 29.075L168.0125 32.91875L172.37187 39.45L170.2 39.45L166.77812 34.153126L165.54375 35.340626L165.54375 39.45L163.77812 39.45ZM173.77812 27.153126L173.77812 25.1375L175.54375 25.1375L175.54375 27.153126L173.77812 27.153126ZM173.77812 39.45L173.77812 29.075L175.54375 29.075L175.54375 39.45L173.77812 39.45ZM177.7625 39.45L177.7625 29.075L179.35625 29.075L179.35625 30.559376Q180.49687 28.840626 182.65312 28.840626Q183.59062 28.840626 184.37187 29.184376Q185.16875 29.5125 185.55937 30.059376Q185.95 30.60625 186.10625 31.35625Q186.2 31.85625 186.2 33.075L186.2 39.45L184.43437 39.45L184.43437 33.1375Q184.43437 32.059376 184.23125 31.528126Q184.02812 30.996876 183.49687 30.684376Q182.98125 30.371876 182.27812 30.371876Q181.15312 30.371876 180.34062 31.090626Q179.52812 31.79375 179.52812 33.778126L179.52812 39.45L177.7625 39.45ZM187.45 40.309376L189.15312 40.559376Q189.2625 41.35625 189.74687 41.715626Q190.40312 42.2 191.54375 42.2Q192.7625 42.2 193.41875 41.715626Q194.09062 41.23125 194.325 40.35625Q194.46562 39.809376 194.45 38.090626Q193.29375 39.45 191.575 39.45Q189.43437 39.45 188.2625 37.903126Q187.09062 36.35625 187.09062 34.2Q187.09062 32.715626 187.62187 31.465626Q188.16875 30.215626 189.18437 29.528126Q190.21562 28.840626 191.59062 28.840626Q193.41875 28.840626 194.62187 30.325L194.62187 29.075L196.23125 29.075L196.23125 38.04375Q196.23125 40.465626 195.73125 41.465626Q195.24687 42.48125 194.16875 43.059376Q193.10625 43.653126 191.54375 43.653126Q189.7 43.653126 188.54375 42.825Q187.40312 41.996876 187.45 40.309376ZM188.90312 34.075Q188.90312 36.121876 189.71562 37.059376Q190.52812 37.996876 191.74687 37.996876Q192.95 37.996876 193.7625 37.059376Q194.59062 36.121876 194.59062 34.1375Q194.59062 32.23125 193.74687 31.2625Q192.90312 30.29375 191.71562 30.29375Q190.54375 30.29375 189.71562 31.246876Q188.90312 32.2 188.90312 34.075ZM208.6375 39.45L208.6375 26.825L203.91875 26.825L203.91875 25.1375L215.2625 25.1375L215.2625 26.825L210.52812 26.825L210.52812 39.45L208.6375 39.45ZM216.77812 27.153126L216.77812 25.1375L218.54375 25.1375L218.54375 27.153126L216.77812 27.153126ZM216.77812 39.45L216.77812 29.075L218.54375 29.075L218.54375 39.45L216.77812 39.45ZM220.7625 39.45L220.7625 29.075L222.34062 29.075L222.34062 30.528126Q222.825 29.778126 223.6375 29.309376Q224.45 28.840626 225.48125 28.840626Q226.6375 28.840626 227.37187 29.325Q228.10625 29.79375 228.41875 30.653126Q229.65312 28.840626 231.62187 28.840626Q233.16875 28.840626 233.99687 29.7Q234.825 30.559376 234.825 32.325L234.825 39.45L233.075 39.45L233.075 32.91875Q233.075 31.85625 232.90312 31.403126Q232.73125 30.934376 232.27812 30.653126Q231.84062 30.371876 231.23125 30.371876Q230.1375 30.371876 229.40312 31.10625Q228.68437 31.825 228.68437 33.41875L228.68437 39.45L226.93437 39.45L226.93437 32.715626Q226.93437 31.54375 226.49687 30.965626Q226.075 30.371876 225.09062 30.371876Q224.35625 30.371876 223.71562 30.7625Q223.09062 31.153126 222.80937 31.903126Q222.52812 32.653126 222.52812 34.075L222.52812 39.45L220.7625 39.45ZM243.87187 36.10625L245.68437 36.340626Q245.2625 37.91875 244.09062 38.809376Q242.93437 39.684376 241.12187 39.684376Q238.85625 39.684376 237.5125 38.29375Q236.18437 36.8875 236.18437 34.35625Q236.18437 31.73125 237.52812 30.29375Q238.87187 28.840626 241.02812 28.840626Q243.10625 28.840626 244.41875 30.2625Q245.74687 31.66875 245.74687 34.246876Q245.74687 34.403126 245.73125 34.715626L237.99687 34.715626Q238.09062 36.41875 238.96562 37.325Q239.84062 38.23125 241.1375 38.23125Q242.10625 38.23125 242.77812 37.73125Q243.46562 37.215626 243.87187 36.10625ZM238.09062 33.2625L243.8875 33.2625Q243.77812 31.965626 243.23125 31.309376Q242.3875 30.29375 241.04375 30.29375Q239.84062 30.29375 239.0125 31.10625Q238.18437 31.903126 238.09062 33.2625ZM256.65314 39.45L252.7 29.075L254.55937 29.075L256.79376 35.29375Q257.15314 36.29375 257.45 37.371876Q257.6844 36.559376 258.10626 35.403126L260.40314 29.075L262.21564 29.075L258.29376 39.45L256.65314 39.45ZM262.0594 36.35625L263.8094 36.075Q263.95 37.121876 264.6219 37.684376Q265.29376 38.23125 266.4969 38.23125Q267.7 38.23125 268.27814 37.746876Q268.8719 37.246876 268.8719 36.590626Q268.8719 35.996876 268.35626 35.653126Q267.9969 35.41875 266.5594 35.059376Q264.6219 34.559376 263.8719 34.215626Q263.1375 33.85625 262.7469 33.23125Q262.35626 32.590626 262.35626 31.825Q262.35626 31.1375 262.66876 30.54375Q262.9969 29.95 263.54376 29.559376Q263.95 29.2625 264.65314 29.059376Q265.3719 28.840626 266.1844 28.840626Q267.40314 28.840626 268.325 29.2Q269.2469 29.54375 269.6844 30.153126Q270.1219 30.746876 270.29376 31.746876L268.575 31.98125Q268.45 31.184376 267.8875 30.746876Q267.325 30.29375 266.3094 30.29375Q265.09064 30.29375 264.575 30.7Q264.0594 31.090626 264.0594 31.621876Q264.0594 31.965626 264.27814 32.246876Q264.48126 32.528126 264.95 32.715626Q265.21564 32.809376 266.4969 33.153126Q268.3719 33.653126 269.10626 33.98125Q269.84064 34.29375 270.2625 34.903126Q270.6844 35.496876 270.6844 36.403126Q270.6844 37.278126 270.16876 38.059376Q269.65314 38.840626 268.6844 39.2625Q267.71564 39.684376 266.4969 39.684376Q264.48126 39.684376 263.41876 38.840626Q262.35626 37.996876 262.0594 36.35625ZM279.09064 39.45L279.09064 25.1375L288.7469 25.1375L288.7469 26.825L280.98126 26.825L280.98126 31.2625L287.7 31.2625L287.7 32.95L280.98126 32.95L280.98126 39.45L279.09064 39.45ZM290.77814 27.153126L290.77814 25.1375L292.54376 25.1375L292.54376 27.153126L290.77814 27.153126ZM290.77814 39.45L290.77814 29.075L292.54376 29.075L292.54376 39.45L290.77814 39.45ZM294.73126 39.45L294.73126 25.1375L296.48126 25.1375L296.48126 39.45L294.73126 39.45ZM305.8719 36.10625L307.6844 36.340626Q307.2625 37.91875 306.09064 38.809376Q304.9344 39.684376 303.1219 39.684376Q300.85626 39.684376 299.5125 38.29375Q298.1844 36.8875 298.1844 34.35625Q298.1844 31.73125 299.52814 30.29375Q300.8719 28.840626 303.02814 28.840626Q305.10626 28.840626 306.41876 30.2625Q307.7469 31.66875 307.7469 34.246876Q307.7469 34.403126 307.73126 34.715626L299.9969 34.715626Q300.09064 36.41875 300.96564 37.325Q301.84064 38.23125 303.1375 38.23125Q304.10626 38.23125 304.77814 37.73125Q305.46564 37.215626 305.8719 36.10625ZM300.09064 33.2625L305.8875 33.2625Q305.77814 31.965626 305.23126 31.309376Q304.3875 30.29375 303.04376 30.29375Q301.84064 30.29375 301.0125 31.10625Q300.1844 31.903126 300.09064 33.2625ZM315.35626 34.85625L317.1375 34.7Q317.2625 35.7625 317.71564 36.45Q318.1844 37.1375 319.15314 37.575Q320.1375 37.996876 321.3719 37.996876Q322.45 37.996876 323.27814 37.684376Q324.10626 37.35625 324.5125 36.79375Q324.91876 36.23125 324.91876 35.559376Q324.91876 34.8875 324.52814 34.3875Q324.1375 33.8875 323.2469 33.54375Q322.66876 33.309376 320.6844 32.840626Q318.71564 32.371876 317.9344 31.95Q316.90314 31.41875 316.40314 30.621876Q315.90314 29.825 315.90314 28.840626Q315.90314 27.746876 316.5125 26.809376Q317.1219 25.871876 318.3094 25.3875Q319.4969 24.8875 320.9344 24.8875Q322.52814 24.8875 323.7469 25.403126Q324.96564 25.91875 325.60626 26.91875Q326.2625 27.903126 326.3094 29.16875L324.4969 29.309376Q324.35626 27.95 323.5125 27.2625Q322.66876 26.559376 321.0125 26.559376Q319.29376 26.559376 318.4969 27.2Q317.71564 27.825 317.71564 28.7Q317.71564 29.48125 318.27814 29.98125Q318.825 30.48125 321.1375 30.996876Q323.45 31.5125 324.3094 31.903126Q325.5594 32.48125 326.15314 33.371876Q326.7469 34.246876 326.7469 35.403126Q326.7469 36.54375 326.09064 37.559376Q325.4344 38.575 324.2 39.1375Q322.98126 39.7 321.45 39.7Q319.5125 39.7 318.2 39.1375Q316.8875 38.559376 316.1375 37.41875Q315.3875 36.278126 315.35626 34.85625ZM328.77814 27.153126L328.77814 25.1375L330.54376 25.1375L330.54376 27.153126L328.77814 27.153126ZM328.77814 39.45L328.77814 29.075L330.54376 29.075L330.54376 39.45L328.77814 39.45ZM331.84064 39.45L331.84064 38.028126L338.45 30.45Q337.325 30.496876 336.46564 30.496876L332.23126 30.496876L332.23126 29.075L340.71564 29.075L340.71564 30.246876L335.09064 36.825L334.0125 38.028126Q335.1844 37.934376 336.23126 37.934376L341.02814 37.934376L341.02814 39.45L331.84064 39.45ZM348.8719 36.10625L350.6844 36.340626Q350.2625 37.91875 349.09064 38.809376Q347.9344 39.684376 346.1219 39.684376Q343.85626 39.684376 342.5125 38.29375Q341.1844 36.8875 341.1844 34.35625Q341.1844 31.73125 342.52814 30.29375Q343.8719 28.840626 346.02814 28.840626Q348.10626 28.840626 349.41876 30.2625Q350.7469 31.66875 350.7469 34.246876Q350.7469 34.403126 350.73126 34.715626L342.9969 34.715626Q343.09064 36.41875 343.96564 37.325Q344.84064 38.23125 346.1375 38.23125Q347.10626 38.23125 347.77814 37.73125Q348.46564 37.215626 348.8719 36.10625ZM343.09064 33.2625L348.8875 33.2625Q348.77814 31.965626 348.23126 31.309376Q347.3875 30.29375 346.04376 30.29375Q344.84064 30.29375 344.0125 31.10625Q343.1844 31.903126 343.09064 33.2625Z" fill-rule="nonzero"/></svg>