<svg width="720" height="256" viewBox="0 0 720 256" fill="none" xmlns="http://www.w3.org/2000/svg">
<rect x="217.5" y="64.5" width="285" height="39" rx="7.5" fill="#E5F2FF"/>
<rect x="217.5" y="64.5" width="285" height="39" rx="7.5" stroke="#87CEFF"/>
<path d="M231.919 89V82.8271H229.937V81.6035H231.919V81.1523C231.919 80.6693 231.992 80.2454 232.138 79.8809C232.288 79.5117 232.5 79.2018 232.773 78.9512C233.047 78.7051 233.375 78.5182 233.758 78.3906C234.145 78.263 234.578 78.1992 235.057 78.1992C235.225 78.1992 235.389 78.2083 235.549 78.2266C235.713 78.2402 235.872 78.2585 236.027 78.2812C236.155 78.2995 236.285 78.3223 236.417 78.3496C236.549 78.3724 236.684 78.3975 236.82 78.4248L236.69 79.7305C236.508 79.6803 236.301 79.637 236.068 79.6006C235.84 79.5641 235.581 79.5459 235.289 79.5459C234.984 79.5459 234.719 79.5824 234.496 79.6553C234.277 79.7282 234.097 79.8353 233.956 79.9766C233.824 80.1087 233.724 80.2728 233.655 80.4688C233.591 80.6647 233.56 80.8926 233.56 81.1523V81.6035H236.301V82.8271H233.56V89H231.919ZM243.314 89L243.219 87.9678C242.968 88.3369 242.663 88.6263 242.303 88.8359C241.943 89.041 241.539 89.1436 241.093 89.1436C240.71 89.1436 240.359 89.0843 240.04 88.9658C239.726 88.8428 239.454 88.6536 239.227 88.3984C239.003 88.1432 238.83 87.8174 238.707 87.4209C238.584 87.0199 238.522 86.5413 238.522 85.9854V81.6035H240.156V85.999C240.156 86.3408 240.181 86.6279 240.231 86.8604C240.282 87.0882 240.361 87.2705 240.471 87.4072C240.58 87.5485 240.719 87.6488 240.888 87.708C241.056 87.7673 241.255 87.7969 241.482 87.7969C241.719 87.7969 241.931 87.7718 242.118 87.7217C242.305 87.667 242.469 87.5941 242.61 87.5029C242.729 87.4209 242.834 87.3252 242.925 87.2158C243.016 87.1019 243.093 86.9766 243.157 86.8398V81.6035H244.798V89H243.314ZM246.876 89V81.6035H248.353L248.455 82.6562C248.555 82.515 248.665 82.3851 248.783 82.2666C248.906 82.1436 249.036 82.0342 249.173 81.9385C249.392 81.7881 249.631 81.6719 249.891 81.5898C250.15 81.5078 250.424 81.4668 250.711 81.4668C251.089 81.4668 251.436 81.5215 251.75 81.6309C252.064 81.7402 252.333 81.9134 252.557 82.1504C252.78 82.3874 252.953 82.6904 253.076 83.0596C253.199 83.4242 253.261 83.8662 253.261 84.3857V89H251.627V84.4131C251.627 84.1077 251.593 83.8525 251.524 83.6475C251.456 83.4424 251.356 83.2783 251.224 83.1553C251.091 83.0322 250.932 82.9456 250.745 82.8955C250.558 82.8408 250.344 82.8135 250.103 82.8135C249.902 82.8135 249.715 82.8408 249.542 82.8955C249.369 82.9456 249.212 83.0186 249.07 83.1143C248.961 83.1872 248.858 83.276 248.763 83.3809C248.667 83.4857 248.583 83.5996 248.51 83.7227V89H246.876ZM258.504 87.8242C258.709 87.8242 258.905 87.7946 259.092 87.7354C259.283 87.6715 259.452 87.5827 259.598 87.4688C259.739 87.3548 259.851 87.2204 259.933 87.0654C260.019 86.9105 260.062 86.7396 260.062 86.5527H261.601C261.605 86.9128 261.523 87.2523 261.354 87.5713C261.19 87.8857 260.967 88.1569 260.685 88.3848C260.397 88.6217 260.067 88.8086 259.693 88.9453C259.324 89.0775 258.935 89.1436 258.524 89.1436C257.955 89.1436 257.456 89.0456 257.027 88.8496C256.604 88.6491 256.25 88.3802 255.968 88.043C255.681 87.7057 255.464 87.3138 255.318 86.8672C255.173 86.416 255.1 85.9352 255.1 85.4248V85.1855C255.1 84.6797 255.17 84.2012 255.312 83.75C255.457 83.2988 255.674 82.9046 255.961 82.5674C256.248 82.2301 256.604 81.9635 257.027 81.7676C257.456 81.5671 257.952 81.4668 258.518 81.4668C258.964 81.4668 259.377 81.5352 259.755 81.6719C260.138 81.8086 260.466 82 260.739 82.2461C261.013 82.4922 261.225 82.7861 261.375 83.1279C261.53 83.4697 261.605 83.8457 261.601 84.2559H260.062C260.062 84.0553 260.024 83.8662 259.946 83.6885C259.873 83.5107 259.769 83.3558 259.632 83.2236C259.491 83.0915 259.322 82.9867 259.126 82.9092C258.935 82.8317 258.727 82.793 258.504 82.793C258.162 82.793 257.877 82.8636 257.649 83.0049C257.426 83.1416 257.248 83.3216 257.116 83.5449C256.975 83.7682 256.875 84.0234 256.815 84.3105C256.761 84.5977 256.733 84.8893 256.733 85.1855V85.4248C256.733 85.7256 256.761 86.0218 256.815 86.3135C256.875 86.6006 256.973 86.8535 257.109 87.0723C257.242 87.3001 257.422 87.4824 257.649 87.6191C257.877 87.7559 258.162 87.8242 258.504 87.8242ZM266.974 79.7988V81.6035H269.756V82.8271H266.974V86.3613C266.974 86.6348 267.006 86.8649 267.069 87.0518C267.138 87.234 267.231 87.3776 267.35 87.4824C267.468 87.5918 267.609 87.6693 267.773 87.7148C267.938 87.7604 268.118 87.7832 268.313 87.7832C268.455 87.7832 268.601 87.7764 268.751 87.7627C268.901 87.749 269.047 87.7308 269.188 87.708C269.325 87.6898 269.453 87.6693 269.571 87.6465C269.694 87.6191 269.797 87.5964 269.879 87.5781L270.057 88.7061C269.938 88.779 269.795 88.8428 269.626 88.8975C269.462 88.9476 269.284 88.9909 269.093 89.0273C268.901 89.0638 268.701 89.0911 268.491 89.1094C268.286 89.1322 268.081 89.1436 267.876 89.1436C267.502 89.1436 267.158 89.0934 266.844 88.9932C266.534 88.8883 266.267 88.7266 266.044 88.5078C265.821 88.2936 265.645 88.0179 265.518 87.6807C265.395 87.3434 265.333 86.9378 265.333 86.4639V82.8271H263.542V81.6035H265.333V79.7988H266.974ZM272.477 81.6035H276.4V87.6465H278.574V89H272.477V87.6465H274.753V82.9639H272.477V81.6035ZM274.603 79.6895C274.603 79.5573 274.625 79.4365 274.671 79.3271C274.716 79.2132 274.783 79.1152 274.869 79.0332C274.951 78.9557 275.049 78.8965 275.163 78.8555C275.282 78.8099 275.414 78.7871 275.56 78.7871C275.806 78.7871 276.004 78.8509 276.154 78.9785C276.309 79.1016 276.398 79.2611 276.421 79.457C276.453 79.6576 276.419 79.833 276.318 79.9834C276.218 80.1292 276.072 80.2272 275.881 80.2773C275.785 80.3639 275.671 80.4209 275.539 80.4482C275.407 80.4756 275.261 80.4642 275.102 80.4141C274.938 80.3639 274.812 80.2751 274.726 80.1475C274.644 80.0153 274.603 79.8626 274.603 79.6895ZM280.208 85.2334C280.208 84.6956 280.285 84.1989 280.44 83.7432C280.595 83.2829 280.821 82.8841 281.117 82.5469C281.409 82.2096 281.767 81.9453 282.19 81.7539C282.614 81.5625 283.097 81.4668 283.64 81.4668C284.182 81.4668 284.665 81.5625 285.089 81.7539C285.517 81.9453 285.88 82.2096 286.176 82.5469C286.467 82.8841 286.691 83.2829 286.846 83.7432C287.001 84.1989 287.078 84.6956 287.078 85.2334V85.377C287.078 85.9193 287.001 86.4183 286.846 86.874C286.691 87.3298 286.467 87.7262 286.176 88.0635C285.884 88.4007 285.524 88.665 285.096 88.8564C284.672 89.0479 284.191 89.1436 283.653 89.1436C283.111 89.1436 282.626 89.0479 282.197 88.8564C281.769 88.665 281.409 88.4007 281.117 88.0635C280.821 87.7262 280.595 87.3298 280.44 86.874C280.285 86.4183 280.208 85.9193 280.208 85.377V85.2334ZM281.842 85.377C281.842 85.7096 281.876 86.0241 281.944 86.3203C282.017 86.6165 282.129 86.8763 282.279 87.0996C282.425 87.3229 282.612 87.5007 282.84 87.6328C283.068 87.7604 283.339 87.8242 283.653 87.8242C283.959 87.8242 284.225 87.7604 284.453 87.6328C284.681 87.5007 284.868 87.3229 285.014 87.0996C285.16 86.8763 285.267 86.6165 285.335 86.3203C285.408 86.0241 285.444 85.7096 285.444 85.377V85.2334C285.444 84.9098 285.408 84.5999 285.335 84.3037C285.262 84.0075 285.155 83.7477 285.014 83.5244C284.863 83.3011 284.674 83.1234 284.446 82.9912C284.223 82.859 283.954 82.793 283.64 82.793C283.33 82.793 283.061 82.859 282.833 82.9912C282.61 83.1234 282.425 83.3011 282.279 83.5244C282.129 83.7477 282.017 84.0075 281.944 84.3037C281.876 84.5999 281.842 84.9098 281.842 85.2334V85.377ZM288.917 89V81.6035H290.394L290.496 82.6562C290.596 82.515 290.706 82.3851 290.824 82.2666C290.947 82.1436 291.077 82.0342 291.214 81.9385C291.433 81.7881 291.672 81.6719 291.932 81.5898C292.191 81.5078 292.465 81.4668 292.752 81.4668C293.13 81.4668 293.477 81.5215 293.791 81.6309C294.105 81.7402 294.374 81.9134 294.598 82.1504C294.821 82.3874 294.994 82.6904 295.117 83.0596C295.24 83.4242 295.302 83.8662 295.302 84.3857V89H293.668V84.4131C293.668 84.1077 293.634 83.8525 293.565 83.6475C293.497 83.4424 293.397 83.2783 293.265 83.1553C293.132 83.0322 292.973 82.9456 292.786 82.8955C292.599 82.8408 292.385 82.8135 292.144 82.8135C291.943 82.8135 291.756 82.8408 291.583 82.8955C291.41 82.9456 291.253 83.0186 291.111 83.1143C291.002 83.1872 290.899 83.276 290.804 83.3809C290.708 83.4857 290.624 83.5996 290.551 83.7227V89H288.917Z" fill="#001E2E"/>
<rect x="305.5" y="72.5" width="112" height="23" rx="5.5" fill="#FFEBF7"/>
<rect x="305.5" y="72.5" width="112" height="23" rx="5.5" stroke="#FFADF3"/>
<path d="M313.919 89V82.8271H311.937V81.6035H313.919V81.1523C313.919 80.6693 313.992 80.2454 314.138 79.8809C314.288 79.5117 314.5 79.2018 314.773 78.9512C315.047 78.7051 315.375 78.5182 315.758 78.3906C316.145 78.263 316.578 78.1992 317.057 78.1992C317.225 78.1992 317.389 78.2083 317.549 78.2266C317.713 78.2402 317.872 78.2585 318.027 78.2812C318.155 78.2995 318.285 78.3223 318.417 78.3496C318.549 78.3724 318.684 78.3975 318.82 78.4248L318.69 79.7305C318.508 79.6803 318.301 79.637 318.068 79.6006C317.84 79.5641 317.581 79.5459 317.289 79.5459C316.984 79.5459 316.719 79.5824 316.496 79.6553C316.277 79.7282 316.097 79.8353 315.956 79.9766C315.824 80.1087 315.724 80.2728 315.655 80.4688C315.591 80.6647 315.56 80.8926 315.56 81.1523V81.6035H318.301V82.8271H315.56V89H313.919ZM325.314 89L325.219 87.9678C324.968 88.3369 324.663 88.6263 324.303 88.8359C323.943 89.041 323.539 89.1436 323.093 89.1436C322.71 89.1436 322.359 89.0843 322.04 88.9658C321.726 88.8428 321.454 88.6536 321.227 88.3984C321.003 88.1432 320.83 87.8174 320.707 87.4209C320.584 87.0199 320.522 86.5413 320.522 85.9854V81.6035H322.156V85.999C322.156 86.3408 322.181 86.6279 322.231 86.8604C322.282 87.0882 322.361 87.2705 322.471 87.4072C322.58 87.5485 322.719 87.6488 322.888 87.708C323.056 87.7673 323.255 87.7969 323.482 87.7969C323.719 87.7969 323.931 87.7718 324.118 87.7217C324.305 87.667 324.469 87.5941 324.61 87.5029C324.729 87.4209 324.834 87.3252 324.925 87.2158C325.016 87.1019 325.093 86.9766 325.157 86.8398V81.6035H326.798V89H325.314ZM328.876 89V81.6035H330.353L330.455 82.6562C330.555 82.515 330.665 82.3851 330.783 82.2666C330.906 82.1436 331.036 82.0342 331.173 81.9385C331.392 81.7881 331.631 81.6719 331.891 81.5898C332.15 81.5078 332.424 81.4668 332.711 81.4668C333.089 81.4668 333.436 81.5215 333.75 81.6309C334.064 81.7402 334.333 81.9134 334.557 82.1504C334.78 82.3874 334.953 82.6904 335.076 83.0596C335.199 83.4242 335.261 83.8662 335.261 84.3857V89H333.627V84.4131C333.627 84.1077 333.593 83.8525 333.524 83.6475C333.456 83.4424 333.356 83.2783 333.224 83.1553C333.091 83.0322 332.932 82.9456 332.745 82.8955C332.558 82.8408 332.344 82.8135 332.103 82.8135C331.902 82.8135 331.715 82.8408 331.542 82.8955C331.369 82.9456 331.212 83.0186 331.07 83.1143C330.961 83.1872 330.858 83.276 330.763 83.3809C330.667 83.4857 330.583 83.5996 330.51 83.7227V89H328.876ZM340.504 87.8242C340.709 87.8242 340.905 87.7946 341.092 87.7354C341.283 87.6715 341.452 87.5827 341.598 87.4688C341.739 87.3548 341.851 87.2204 341.933 87.0654C342.019 86.9105 342.062 86.7396 342.062 86.5527H343.601C343.605 86.9128 343.523 87.2523 343.354 87.5713C343.19 87.8857 342.967 88.1569 342.685 88.3848C342.397 88.6217 342.067 88.8086 341.693 88.9453C341.324 89.0775 340.935 89.1436 340.524 89.1436C339.955 89.1436 339.456 89.0456 339.027 88.8496C338.604 88.6491 338.25 88.3802 337.968 88.043C337.681 87.7057 337.464 87.3138 337.318 86.8672C337.173 86.416 337.1 85.9352 337.1 85.4248V85.1855C337.1 84.6797 337.17 84.2012 337.312 83.75C337.457 83.2988 337.674 82.9046 337.961 82.5674C338.248 82.2301 338.604 81.9635 339.027 81.7676C339.456 81.5671 339.952 81.4668 340.518 81.4668C340.964 81.4668 341.377 81.5352 341.755 81.6719C342.138 81.8086 342.466 82 342.739 82.2461C343.013 82.4922 343.225 82.7861 343.375 83.1279C343.53 83.4697 343.605 83.8457 343.601 84.2559H342.062C342.062 84.0553 342.024 83.8662 341.946 83.6885C341.873 83.5107 341.769 83.3558 341.632 83.2236C341.491 83.0915 341.322 82.9867 341.126 82.9092C340.935 82.8317 340.727 82.793 340.504 82.793C340.162 82.793 339.877 82.8636 339.649 83.0049C339.426 83.1416 339.248 83.3216 339.116 83.5449C338.975 83.7682 338.875 84.0234 338.815 84.3105C338.761 84.5977 338.733 84.8893 338.733 85.1855V85.4248C338.733 85.7256 338.761 86.0218 338.815 86.3135C338.875 86.6006 338.973 86.8535 339.109 87.0723C339.242 87.3001 339.422 87.4824 339.649 87.6191C339.877 87.7559 340.162 87.8242 340.504 87.8242ZM348.974 79.7988V81.6035H351.756V82.8271H348.974V86.3613C348.974 86.6348 349.006 86.8649 349.069 87.0518C349.138 87.234 349.231 87.3776 349.35 87.4824C349.468 87.5918 349.609 87.6693 349.773 87.7148C349.938 87.7604 350.118 87.7832 350.313 87.7832C350.455 87.7832 350.601 87.7764 350.751 87.7627C350.901 87.749 351.047 87.7308 351.188 87.708C351.325 87.6898 351.453 87.6693 351.571 87.6465C351.694 87.6191 351.797 87.5964 351.879 87.5781L352.057 88.7061C351.938 88.779 351.795 88.8428 351.626 88.8975C351.462 88.9476 351.284 88.9909 351.093 89.0273C350.901 89.0638 350.701 89.0911 350.491 89.1094C350.286 89.1322 350.081 89.1436 349.876 89.1436C349.502 89.1436 349.158 89.0934 348.844 88.9932C348.534 88.8883 348.267 88.7266 348.044 88.5078C347.821 88.2936 347.645 88.0179 347.518 87.6807C347.395 87.3434 347.333 86.9378 347.333 86.4639V82.8271H345.542V81.6035H347.333V79.7988H348.974ZM354.477 81.6035H358.4V87.6465H360.574V89H354.477V87.6465H356.753V82.9639H354.477V81.6035ZM356.603 79.6895C356.603 79.5573 356.625 79.4365 356.671 79.3271C356.716 79.2132 356.783 79.1152 356.869 79.0332C356.951 78.9557 357.049 78.8965 357.163 78.8555C357.282 78.8099 357.414 78.7871 357.56 78.7871C357.806 78.7871 358.004 78.8509 358.154 78.9785C358.309 79.1016 358.398 79.2611 358.421 79.457C358.453 79.6576 358.419 79.833 358.318 79.9834C358.218 80.1292 358.072 80.2272 357.881 80.2773C357.785 80.3639 357.671 80.4209 357.539 80.4482C357.407 80.4756 357.261 80.4642 357.102 80.4141C356.938 80.3639 356.812 80.2751 356.726 80.1475C356.644 80.0153 356.603 79.8626 356.603 79.6895ZM362.208 85.2334C362.208 84.6956 362.285 84.1989 362.44 83.7432C362.595 83.2829 362.821 82.8841 363.117 82.5469C363.409 82.2096 363.767 81.9453 364.19 81.7539C364.614 81.5625 365.097 81.4668 365.64 81.4668C366.182 81.4668 366.665 81.5625 367.089 81.7539C367.517 81.9453 367.88 82.2096 368.176 82.5469C368.467 82.8841 368.691 83.2829 368.846 83.7432C369.001 84.1989 369.078 84.6956 369.078 85.2334V85.377C369.078 85.9193 369.001 86.4183 368.846 86.874C368.691 87.3298 368.467 87.7262 368.176 88.0635C367.884 88.4007 367.524 88.665 367.096 88.8564C366.672 89.0479 366.191 89.1436 365.653 89.1436C365.111 89.1436 364.626 89.0479 364.197 88.8564C363.769 88.665 363.409 88.4007 363.117 88.0635C362.821 87.7262 362.595 87.3298 362.44 86.874C362.285 86.4183 362.208 85.9193 362.208 85.377V85.2334ZM363.842 85.377C363.842 85.7096 363.876 86.0241 363.944 86.3203C364.017 86.6165 364.129 86.8763 364.279 87.0996C364.425 87.3229 364.612 87.5007 364.84 87.6328C365.068 87.7604 365.339 87.8242 365.653 87.8242C365.959 87.8242 366.225 87.7604 366.453 87.6328C366.681 87.5007 366.868 87.3229 367.014 87.0996C367.16 86.8763 367.267 86.6165 367.335 86.3203C367.408 86.0241 367.444 85.7096 367.444 85.377V85.2334C367.444 84.9098 367.408 84.5999 367.335 84.3037C367.262 84.0075 367.155 83.7477 367.014 83.5244C366.863 83.3011 366.674 83.1234 366.446 82.9912C366.223 82.859 365.954 82.793 365.64 82.793C365.33 82.793 365.061 82.859 364.833 82.9912C364.61 83.1234 364.425 83.3011 364.279 83.5244C364.129 83.7477 364.017 84.0075 363.944 84.3037C363.876 84.5999 363.842 84.9098 363.842 85.2334V85.377ZM370.917 89V81.6035H372.394L372.496 82.6562C372.596 82.515 372.706 82.3851 372.824 82.2666C372.947 82.1436 373.077 82.0342 373.214 81.9385C373.433 81.7881 373.672 81.6719 373.932 81.5898C374.191 81.5078 374.465 81.4668 374.752 81.4668C375.13 81.4668 375.477 81.5215 375.791 81.6309C376.105 81.7402 376.374 81.9134 376.598 82.1504C376.821 82.3874 376.994 82.6904 377.117 83.0596C377.24 83.4242 377.302 83.8662 377.302 84.3857V89H375.668V84.4131C375.668 84.1077 375.634 83.8525 375.565 83.6475C375.497 83.4424 375.397 83.2783 375.265 83.1553C375.132 83.0322 374.973 82.9456 374.786 82.8955C374.599 82.8408 374.385 82.8135 374.144 82.8135C373.943 82.8135 373.756 82.8408 373.583 82.8955C373.41 82.9456 373.253 83.0186 373.111 83.1143C373.002 83.1872 372.899 83.276 372.804 83.3809C372.708 83.4857 372.624 83.5996 372.551 83.7227V89H370.917ZM385.71 89H384.062L380.829 82.1504L380.822 89H379.161V79.0469H380.829L384.042 85.8691L384.056 79.0469H385.71V89ZM392.457 89C392.407 88.9089 392.366 88.7995 392.334 88.6719C392.307 88.5397 392.282 88.403 392.259 88.2617C392.145 88.3802 392.015 88.4941 391.869 88.6035C391.728 88.7083 391.568 88.7995 391.391 88.877C391.213 88.959 391.021 89.0228 390.816 89.0684C390.611 89.1139 390.39 89.1367 390.153 89.1367C389.771 89.1367 389.42 89.082 389.101 88.9727C388.786 88.8587 388.517 88.7038 388.294 88.5078C388.066 88.3164 387.888 88.0863 387.761 87.8174C387.638 87.5439 387.576 87.25 387.576 86.9355C387.576 86.5299 387.656 86.1722 387.815 85.8623C387.979 85.5479 388.216 85.2881 388.526 85.083C388.813 84.8916 389.167 84.7458 389.586 84.6455C390.01 84.5452 390.488 84.4951 391.021 84.4951H392.211V83.9961C392.211 83.8047 392.177 83.6315 392.108 83.4766C392.045 83.3216 391.951 83.1872 391.828 83.0732C391.696 82.9593 391.534 82.8727 391.343 82.8135C391.156 82.7497 390.939 82.7178 390.693 82.7178C390.47 82.7178 390.274 82.7451 390.105 82.7998C389.941 82.8545 389.805 82.9297 389.695 83.0254C389.586 83.112 389.504 83.2191 389.449 83.3467C389.399 83.4697 389.374 83.6019 389.374 83.7432H387.733C387.738 83.4469 387.809 83.1621 387.945 82.8887C388.082 82.6152 388.283 82.3737 388.547 82.1641C388.802 81.9499 389.117 81.7812 389.49 81.6582C389.868 81.5306 390.299 81.4668 390.782 81.4668C391.215 81.4668 391.618 81.5215 391.992 81.6309C392.37 81.7357 392.696 81.8929 392.97 82.1025C393.243 82.3122 393.457 82.5788 393.612 82.9023C393.767 83.2214 393.845 83.5905 393.845 84.0098V87.2979C393.845 87.6305 393.868 87.9313 393.913 88.2002C393.963 88.4645 394.034 88.6924 394.125 88.8838V89H392.457ZM390.468 87.8242C390.682 87.8242 390.88 87.7969 391.062 87.7422C391.249 87.6875 391.418 87.6169 391.568 87.5303C391.719 87.4437 391.849 87.3457 391.958 87.2363C392.067 87.127 392.152 87.013 392.211 86.8945V85.5273H391.158C390.803 85.5273 390.495 85.5615 390.235 85.6299C389.976 85.6937 389.768 85.7871 389.613 85.9102C389.477 86.015 389.374 86.1403 389.306 86.2861C389.242 86.432 389.21 86.596 389.21 86.7783C389.21 86.9287 389.237 87.07 389.292 87.2021C389.347 87.3298 389.426 87.4391 389.531 87.5303C389.636 87.6214 389.766 87.6943 389.921 87.749C390.076 87.7992 390.258 87.8242 390.468 87.8242ZM397.071 81.6035L397.119 82.417C397.26 82.1208 397.454 81.8883 397.7 81.7197C397.951 81.5511 398.252 81.4668 398.603 81.4668C398.785 81.4668 398.949 81.4873 399.095 81.5283C399.241 81.5693 399.366 81.6331 399.471 81.7197C399.553 81.7835 399.626 81.861 399.689 81.9521C399.753 82.0387 399.808 82.139 399.854 82.2529C399.917 82.1481 399.99 82.0501 400.072 81.959C400.154 81.8678 400.243 81.7904 400.339 81.7266C400.462 81.6445 400.599 81.5807 400.749 81.5352C400.904 81.4896 401.073 81.4668 401.255 81.4668C401.492 81.4668 401.708 81.5078 401.904 81.5898C402.105 81.6673 402.278 81.7881 402.424 81.9521C402.57 82.1253 402.681 82.3509 402.759 82.6289C402.841 82.9023 402.882 83.2327 402.882 83.6201V89H401.378V83.6064C401.378 83.4606 401.362 83.3376 401.33 83.2373C401.298 83.1325 401.253 83.0482 401.193 82.9844C401.134 82.9251 401.061 82.8818 400.975 82.8545C400.893 82.8271 400.801 82.8135 400.701 82.8135C400.596 82.8135 400.505 82.8271 400.428 82.8545C400.35 82.8818 400.282 82.9206 400.223 82.9707C400.168 83.0163 400.122 83.071 400.086 83.1348C400.049 83.194 400.022 83.2624 400.004 83.3398C400.004 83.3581 400.004 83.3809 400.004 83.4082C400.004 83.431 400.004 83.4652 400.004 83.5107V89H398.527V83.5996C398.527 83.4538 398.511 83.3307 398.479 83.2305C398.452 83.1257 398.409 83.0436 398.35 82.9844C398.29 82.9251 398.22 82.8818 398.138 82.8545C398.06 82.8271 397.971 82.8135 397.871 82.8135C397.762 82.8135 397.664 82.8294 397.577 82.8613C397.495 82.8887 397.424 82.932 397.365 82.9912C397.32 83.0322 397.279 83.0801 397.242 83.1348C397.21 83.1895 397.181 83.251 397.153 83.3193V89H395.649V81.6035H397.071ZM408.002 89.1367C407.455 89.1367 406.954 89.0456 406.498 88.8633C406.047 88.681 405.66 88.4281 405.336 88.1045C405.012 87.7855 404.762 87.4095 404.584 86.9766C404.411 86.5391 404.324 86.0674 404.324 85.5615V85.2812C404.324 84.7025 404.415 84.1784 404.598 83.709C404.78 83.2396 405.031 82.8385 405.35 82.5059C405.669 82.1732 406.038 81.918 406.457 81.7402C406.881 81.5579 407.332 81.4668 407.811 81.4668C408.344 81.4668 408.815 81.5579 409.226 81.7402C409.636 81.918 409.98 82.1663 410.258 82.4854C410.536 82.8089 410.745 83.194 410.887 83.6406C411.028 84.0872 411.099 84.5749 411.099 85.1035V85.8076H405.972V85.8418C406.022 86.1654 406.099 86.4365 406.204 86.6553C406.309 86.874 406.452 87.07 406.635 87.2432C406.817 87.4255 407.031 87.5667 407.277 87.667C407.528 87.7673 407.801 87.8174 408.098 87.8174C408.503 87.8174 408.882 87.7399 409.232 87.585C409.583 87.4255 409.873 87.1999 410.101 86.9082L410.976 87.7559C410.729 88.1113 410.351 88.4303 409.841 88.7129C409.335 88.9954 408.722 89.1367 408.002 89.1367ZM407.804 82.793C407.571 82.793 407.355 82.8363 407.154 82.9229C406.958 83.0049 406.783 83.1234 406.628 83.2783C406.473 83.4378 406.343 83.6292 406.238 83.8525C406.133 84.0758 406.056 84.3288 406.006 84.6113H409.485V84.502C409.485 84.2878 409.447 84.0758 409.369 83.8662C409.292 83.652 409.182 83.4652 409.041 83.3057C408.904 83.1507 408.731 83.0277 408.521 82.9365C408.316 82.8408 408.077 82.793 407.804 82.793Z" fill="#380037"/>
<rect x="420.5" y="72.5" width="28" height="23" rx="5.5" fill="#FFEBF7"/>
<rect x="420.5" y="72.5" width="28" height="23" rx="5.5" stroke="#FFADF3"/>
<path d="M428.393 84.9531C428.393 84.3105 428.443 83.7044 428.543 83.1348C428.643 82.5605 428.778 82.0296 428.946 81.542C429.119 81.0635 429.318 80.6237 429.541 80.2227C429.769 79.8216 430.008 79.4661 430.259 79.1562C430.505 78.8464 430.758 78.5843 431.018 78.3701C431.277 78.1514 431.528 77.9827 431.77 77.8643L432.098 78.8145C431.952 78.9238 431.806 79.056 431.66 79.2109C431.514 79.3659 431.371 79.5413 431.229 79.7373C431.034 80.0153 430.849 80.3411 430.676 80.7148C430.507 81.0885 430.361 81.4964 430.238 81.9385C430.124 82.3532 430.033 82.8112 429.965 83.3125C429.901 83.8138 429.869 84.3561 429.869 84.9395V85.083C429.869 85.6527 429.901 86.1836 429.965 86.6758C430.029 87.1634 430.104 87.5781 430.19 87.9199C430.3 88.3301 430.425 88.7106 430.566 89.0615C430.712 89.4124 430.865 89.7223 431.024 89.9912C431.193 90.2646 431.368 90.5062 431.551 90.7158C431.733 90.9255 431.915 91.1009 432.098 91.2422L431.77 92.1582C431.528 92.0397 431.277 91.8711 431.018 91.6523C430.758 91.4382 430.503 91.1761 430.252 90.8662C430.001 90.5563 429.762 90.2008 429.534 89.7998C429.311 89.4033 429.115 88.9613 428.946 88.4736C428.778 87.9906 428.643 87.4665 428.543 86.9014C428.443 86.3317 428.393 85.721 428.393 85.0693V84.9531ZM440.342 85.0693C440.342 85.7074 440.289 86.3089 440.185 86.874C440.084 87.4391 439.948 87.9632 439.774 88.4463C439.601 88.9339 439.401 89.3783 439.173 89.7793C438.945 90.1803 438.703 90.5358 438.448 90.8457C438.193 91.1647 437.933 91.4336 437.669 91.6523C437.405 91.8711 437.149 92.0397 436.903 92.1582L436.582 91.2422C436.755 91.1146 436.928 90.9528 437.102 90.7568C437.275 90.5609 437.443 90.3353 437.607 90.0801C437.781 89.7975 437.942 89.4762 438.093 89.1162C438.248 88.7607 438.378 88.3665 438.482 87.9336C438.583 87.5326 438.66 87.0951 438.715 86.6211C438.774 86.1471 438.804 85.6344 438.804 85.083V84.9395C438.804 84.3698 438.772 83.8457 438.708 83.3672C438.644 82.8887 438.564 82.4603 438.469 82.082C438.341 81.5898 438.186 81.1478 438.004 80.7559C437.826 80.3639 437.639 80.0244 437.443 79.7373C437.307 79.5322 437.163 79.3499 437.013 79.1904C436.867 79.0264 436.723 78.8896 436.582 78.7803L436.903 77.8643C437.149 77.9827 437.405 78.1536 437.669 78.377C437.938 78.5957 438.198 78.86 438.448 79.1699C438.708 79.4889 438.952 79.849 439.18 80.25C439.408 80.6465 439.606 81.0885 439.774 81.5762C439.943 82.0592 440.08 82.5811 440.185 83.1416C440.289 83.6976 440.342 84.3014 440.342 84.9531V85.0693Z" fill="#380037"/>
<path d="M463.535 91.4814C463.089 91.4723 462.701 91.3698 462.373 91.1738C462.045 90.9824 461.776 90.7318 461.566 90.4219C461.352 90.1165 461.195 89.7747 461.095 89.3965C460.994 89.0228 460.944 88.6559 460.944 88.2959V87.1611C460.944 86.5368 460.796 86.0856 460.5 85.8076C460.208 85.5296 459.759 85.3906 459.153 85.3906V84.1807C459.759 84.1807 460.208 84.0417 460.5 83.7637C460.796 83.4857 460.944 83.0299 460.944 82.3965V81.2617C460.944 80.8835 460.997 80.4938 461.102 80.0928C461.206 79.6917 461.373 79.3385 461.601 79.0332C461.797 78.7552 462.054 78.5296 462.373 78.3564C462.697 78.1787 463.084 78.0876 463.535 78.083L463.727 79.0332C463.43 79.0332 463.198 79.1016 463.029 79.2383C462.861 79.3704 462.735 79.5436 462.653 79.7578C462.571 79.972 462.521 80.2113 462.503 80.4756C462.489 80.7399 462.482 81.002 462.482 81.2617V82.3965C462.482 82.9388 462.35 83.4196 462.086 83.8389C461.826 84.2536 461.423 84.5703 460.876 84.7891C461.427 85.0033 461.831 85.3177 462.086 85.7324C462.346 86.1426 462.478 86.6188 462.482 87.1611V88.2959C462.482 88.5557 462.498 88.8177 462.53 89.082C462.567 89.3464 462.633 89.5856 462.729 89.7998C462.824 90.014 462.952 90.1872 463.111 90.3193C463.271 90.4561 463.476 90.5244 463.727 90.5244L463.535 91.4814ZM476.059 90.5244C476.305 90.5244 476.507 90.4561 476.667 90.3193C476.831 90.1872 476.961 90.014 477.057 89.7998C477.152 89.5856 477.218 89.3464 477.255 89.082C477.296 88.8177 477.316 88.5557 477.316 88.2959V87.1611C477.316 86.8604 477.355 86.5778 477.433 86.3135C477.515 86.0446 477.64 85.8031 477.809 85.5889C477.932 85.4202 478.08 85.2699 478.253 85.1377C478.431 85.001 478.633 84.8848 478.861 84.7891C478.661 84.707 478.479 84.609 478.314 84.4951C478.155 84.3766 478.014 84.2467 477.891 84.1055C477.695 83.8776 477.549 83.6201 477.453 83.333C477.362 83.0413 477.316 82.7292 477.316 82.3965V81.2617C477.316 81.002 477.305 80.7399 477.282 80.4756C477.264 80.2113 477.216 79.972 477.139 79.7578C477.057 79.5436 476.931 79.3704 476.763 79.2383C476.594 79.1016 476.362 79.0332 476.065 79.0332L476.257 78.083C476.726 78.0876 477.123 78.1855 477.446 78.377C477.774 78.5638 478.041 78.8122 478.246 79.1221C478.46 79.4274 478.613 79.7715 478.704 80.1543C478.8 80.5326 478.848 80.9017 478.848 81.2617V82.3965C478.848 82.6608 478.87 82.8932 478.916 83.0938C478.966 83.2943 479.044 83.4652 479.148 83.6064C479.285 83.8024 479.479 83.9482 479.729 84.0439C479.98 84.1351 480.283 84.1807 480.639 84.1807V85.3906C480.279 85.3906 479.976 85.4385 479.729 85.5342C479.483 85.6253 479.29 85.7734 479.148 85.9785C479.048 86.1152 478.973 86.2839 478.923 86.4844C478.873 86.6803 478.848 86.9059 478.848 87.1611V88.2959C478.848 88.6559 478.795 89.0251 478.69 89.4033C478.586 89.7816 478.431 90.1211 478.226 90.4219C478.016 90.7318 477.747 90.9847 477.419 91.1807C477.091 91.3766 476.703 91.4769 476.257 91.4814L476.059 90.5244ZM485.649 82.2256C485.649 81.9111 485.75 81.6423 485.95 81.4189C486.155 81.1956 486.449 81.084 486.832 81.084C487.206 81.084 487.497 81.1956 487.707 81.4189C487.917 81.6377 488.021 81.9066 488.021 82.2256C488.021 82.5446 487.914 82.8112 487.7 83.0254C487.491 83.2396 487.201 83.3467 486.832 83.3467C486.458 83.3467 486.167 83.2396 485.957 83.0254C485.752 82.8066 485.649 82.54 485.649 82.2256ZM487.57 88.7881C487.57 89.2803 487.45 89.7793 487.208 90.2852C486.971 90.7956 486.657 91.2262 486.265 91.5771L485.349 91.0918C485.545 90.7682 485.695 90.4264 485.8 90.0664C485.909 89.7064 485.964 89.3008 485.964 88.8496V87.4072H487.57V88.7881Z" fill="#001E2E"/>
<rect x="206" y="168.5" width="308" height="39" rx="7.5" fill="#E5F2FF"/>
<rect x="206" y="168.5" width="308" height="39" rx="7.5" stroke="#87CEFF"/>
<path d="M221.779 191.824C221.984 191.824 222.18 191.795 222.367 191.735C222.559 191.672 222.727 191.583 222.873 191.469C223.014 191.355 223.126 191.22 223.208 191.065C223.295 190.91 223.338 190.74 223.338 190.553H224.876C224.881 190.913 224.799 191.252 224.63 191.571C224.466 191.886 224.243 192.157 223.96 192.385C223.673 192.622 223.342 192.809 222.969 192.945C222.6 193.077 222.21 193.144 221.8 193.144C221.23 193.144 220.731 193.046 220.303 192.85C219.879 192.649 219.526 192.38 219.243 192.043C218.956 191.706 218.74 191.314 218.594 190.867C218.448 190.416 218.375 189.935 218.375 189.425V189.186C218.375 188.68 218.446 188.201 218.587 187.75C218.733 187.299 218.949 186.905 219.236 186.567C219.523 186.23 219.879 185.964 220.303 185.768C220.731 185.567 221.228 185.467 221.793 185.467C222.24 185.467 222.652 185.535 223.03 185.672C223.413 185.809 223.741 186 224.015 186.246C224.288 186.492 224.5 186.786 224.65 187.128C224.805 187.47 224.881 187.846 224.876 188.256H223.338C223.338 188.055 223.299 187.866 223.222 187.688C223.149 187.511 223.044 187.356 222.907 187.224C222.766 187.091 222.597 186.987 222.401 186.909C222.21 186.832 222.003 186.793 221.779 186.793C221.438 186.793 221.153 186.864 220.925 187.005C220.701 187.142 220.524 187.322 220.392 187.545C220.25 187.768 220.15 188.023 220.091 188.311C220.036 188.598 220.009 188.889 220.009 189.186V189.425C220.009 189.726 220.036 190.022 220.091 190.313C220.15 190.601 220.248 190.854 220.385 191.072C220.517 191.3 220.697 191.482 220.925 191.619C221.153 191.756 221.438 191.824 221.779 191.824ZM226.667 189.233C226.667 188.696 226.744 188.199 226.899 187.743C227.054 187.283 227.28 186.884 227.576 186.547C227.868 186.21 228.226 185.945 228.649 185.754C229.073 185.562 229.556 185.467 230.099 185.467C230.641 185.467 231.124 185.562 231.548 185.754C231.976 185.945 232.339 186.21 232.635 186.547C232.926 186.884 233.15 187.283 233.305 187.743C233.46 188.199 233.537 188.696 233.537 189.233V189.377C233.537 189.919 233.46 190.418 233.305 190.874C233.15 191.33 232.926 191.726 232.635 192.063C232.343 192.401 231.983 192.665 231.555 192.856C231.131 193.048 230.65 193.144 230.112 193.144C229.57 193.144 229.085 193.048 228.656 192.856C228.228 192.665 227.868 192.401 227.576 192.063C227.28 191.726 227.054 191.33 226.899 190.874C226.744 190.418 226.667 189.919 226.667 189.377V189.233ZM228.301 189.377C228.301 189.71 228.335 190.024 228.403 190.32C228.476 190.617 228.588 190.876 228.738 191.1C228.884 191.323 229.071 191.501 229.299 191.633C229.527 191.76 229.798 191.824 230.112 191.824C230.418 191.824 230.684 191.76 230.912 191.633C231.14 191.501 231.327 191.323 231.473 191.1C231.618 190.876 231.726 190.617 231.794 190.32C231.867 190.024 231.903 189.71 231.903 189.377V189.233C231.903 188.91 231.867 188.6 231.794 188.304C231.721 188.007 231.614 187.748 231.473 187.524C231.322 187.301 231.133 187.123 230.905 186.991C230.682 186.859 230.413 186.793 230.099 186.793C229.789 186.793 229.52 186.859 229.292 186.991C229.069 187.123 228.884 187.301 228.738 187.524C228.588 187.748 228.476 188.007 228.403 188.304C228.335 188.6 228.301 188.91 228.301 189.233V189.377ZM235.376 193V185.604H236.853L236.955 186.656C237.055 186.515 237.165 186.385 237.283 186.267C237.406 186.144 237.536 186.034 237.673 185.938C237.892 185.788 238.131 185.672 238.391 185.59C238.65 185.508 238.924 185.467 239.211 185.467C239.589 185.467 239.936 185.521 240.25 185.631C240.564 185.74 240.833 185.913 241.057 186.15C241.28 186.387 241.453 186.69 241.576 187.06C241.699 187.424 241.761 187.866 241.761 188.386V193H240.127V188.413C240.127 188.108 240.093 187.853 240.024 187.647C239.956 187.442 239.856 187.278 239.724 187.155C239.591 187.032 239.432 186.946 239.245 186.896C239.058 186.841 238.844 186.813 238.603 186.813C238.402 186.813 238.215 186.841 238.042 186.896C237.869 186.946 237.712 187.019 237.57 187.114C237.461 187.187 237.358 187.276 237.263 187.381C237.167 187.486 237.083 187.6 237.01 187.723V193H235.376ZM248.617 190.997C248.617 190.869 248.588 190.756 248.528 190.655C248.474 190.555 248.38 190.459 248.248 190.368C248.107 190.286 247.922 190.209 247.694 190.136C247.466 190.063 247.182 189.994 246.84 189.931C246.411 189.844 246.02 189.737 245.664 189.609C245.313 189.482 245.01 189.327 244.755 189.145C244.504 188.971 244.308 188.766 244.167 188.529C244.026 188.292 243.955 188.017 243.955 187.702C243.955 187.401 244.026 187.117 244.167 186.848C244.313 186.574 244.52 186.335 244.789 186.13C245.053 185.925 245.372 185.763 245.746 185.645C246.124 185.526 246.544 185.467 247.004 185.467C247.496 185.467 247.938 185.528 248.33 185.651C248.722 185.77 249.055 185.934 249.328 186.144C249.597 186.353 249.804 186.602 249.95 186.889C250.096 187.176 250.169 187.486 250.169 187.818H248.535C248.535 187.682 248.506 187.552 248.446 187.429C248.392 187.301 248.31 187.187 248.2 187.087C248.073 186.968 247.909 186.875 247.708 186.807C247.507 186.734 247.273 186.697 247.004 186.697C246.758 186.697 246.541 186.725 246.354 186.779C246.172 186.829 246.022 186.9 245.903 186.991C245.785 187.073 245.696 187.171 245.637 187.285C245.577 187.395 245.548 187.511 245.548 187.634C245.548 187.761 245.573 187.878 245.623 187.982C245.673 188.083 245.762 188.172 245.89 188.249C246.008 188.331 246.172 188.406 246.382 188.475C246.596 188.543 246.865 188.604 247.188 188.659C247.64 188.741 248.052 188.841 248.426 188.96C248.799 189.078 249.118 189.224 249.383 189.397C249.647 189.58 249.852 189.794 249.998 190.04C250.144 190.286 250.217 190.578 250.217 190.915C250.217 191.243 250.139 191.544 249.984 191.817C249.834 192.091 249.62 192.326 249.342 192.521C249.059 192.717 248.722 192.87 248.33 192.979C247.938 193.089 247.503 193.144 247.024 193.144C246.491 193.144 246.017 193.073 245.603 192.932C245.192 192.79 244.848 192.604 244.57 192.371C244.288 192.143 244.074 191.881 243.928 191.585C243.782 191.289 243.709 190.988 243.709 190.683H245.295C245.309 190.91 245.368 191.104 245.473 191.264C245.582 191.419 245.719 191.544 245.883 191.64C246.042 191.74 246.225 191.813 246.43 191.858C246.635 191.899 246.842 191.92 247.052 191.92C247.334 191.92 247.58 191.89 247.79 191.831C248.004 191.772 248.175 191.692 248.303 191.592C248.408 191.51 248.485 191.421 248.535 191.325C248.59 191.225 248.617 191.116 248.617 190.997ZM255.474 183.799V185.604H258.256V186.827H255.474V190.361C255.474 190.635 255.506 190.865 255.569 191.052C255.638 191.234 255.731 191.378 255.85 191.482C255.968 191.592 256.109 191.669 256.273 191.715C256.438 191.76 256.618 191.783 256.813 191.783C256.955 191.783 257.101 191.776 257.251 191.763C257.401 191.749 257.547 191.731 257.688 191.708C257.825 191.69 257.953 191.669 258.071 191.646C258.194 191.619 258.297 191.596 258.379 191.578L258.557 192.706C258.438 192.779 258.295 192.843 258.126 192.897C257.962 192.948 257.784 192.991 257.593 193.027C257.401 193.064 257.201 193.091 256.991 193.109C256.786 193.132 256.581 193.144 256.376 193.144C256.002 193.144 255.658 193.093 255.344 192.993C255.034 192.888 254.767 192.727 254.544 192.508C254.321 192.294 254.145 192.018 254.018 191.681C253.895 191.343 253.833 190.938 253.833 190.464V186.827H252.042V185.604H253.833V183.799H255.474Z" fill="#006590"/>
<rect x="269" y="176.5" width="112" height="23" rx="5.5" fill="#FFEBF7"/>
<rect x="269" y="176.5" width="112" height="23" rx="5.5" stroke="#FFADF3"/>
<path d="M277.419 193V186.827H275.437V185.604H277.419V185.152C277.419 184.669 277.492 184.245 277.638 183.881C277.788 183.512 278 183.202 278.273 182.951C278.547 182.705 278.875 182.518 279.258 182.391C279.645 182.263 280.078 182.199 280.557 182.199C280.725 182.199 280.889 182.208 281.049 182.227C281.213 182.24 281.372 182.258 281.527 182.281C281.655 182.299 281.785 182.322 281.917 182.35C282.049 182.372 282.184 182.397 282.32 182.425L282.19 183.73C282.008 183.68 281.801 183.637 281.568 183.601C281.34 183.564 281.081 183.546 280.789 183.546C280.484 183.546 280.219 183.582 279.996 183.655C279.777 183.728 279.597 183.835 279.456 183.977C279.324 184.109 279.224 184.273 279.155 184.469C279.091 184.665 279.06 184.893 279.06 185.152V185.604H281.801V186.827H279.06V193H277.419ZM288.814 193L288.719 191.968C288.468 192.337 288.163 192.626 287.803 192.836C287.443 193.041 287.039 193.144 286.593 193.144C286.21 193.144 285.859 193.084 285.54 192.966C285.226 192.843 284.954 192.654 284.727 192.398C284.503 192.143 284.33 191.817 284.207 191.421C284.084 191.02 284.022 190.541 284.022 189.985V185.604H285.656V189.999C285.656 190.341 285.681 190.628 285.731 190.86C285.782 191.088 285.861 191.271 285.971 191.407C286.08 191.549 286.219 191.649 286.388 191.708C286.556 191.767 286.755 191.797 286.982 191.797C287.219 191.797 287.431 191.772 287.618 191.722C287.805 191.667 287.969 191.594 288.11 191.503C288.229 191.421 288.334 191.325 288.425 191.216C288.516 191.102 288.593 190.977 288.657 190.84V185.604H290.298V193H288.814ZM292.376 193V185.604H293.853L293.955 186.656C294.055 186.515 294.165 186.385 294.283 186.267C294.406 186.144 294.536 186.034 294.673 185.938C294.892 185.788 295.131 185.672 295.391 185.59C295.65 185.508 295.924 185.467 296.211 185.467C296.589 185.467 296.936 185.521 297.25 185.631C297.564 185.74 297.833 185.913 298.057 186.15C298.28 186.387 298.453 186.69 298.576 187.06C298.699 187.424 298.761 187.866 298.761 188.386V193H297.127V188.413C297.127 188.108 297.093 187.853 297.024 187.647C296.956 187.442 296.856 187.278 296.724 187.155C296.591 187.032 296.432 186.946 296.245 186.896C296.058 186.841 295.844 186.813 295.603 186.813C295.402 186.813 295.215 186.841 295.042 186.896C294.869 186.946 294.712 187.019 294.57 187.114C294.461 187.187 294.358 187.276 294.263 187.381C294.167 187.486 294.083 187.6 294.01 187.723V193H292.376ZM304.004 191.824C304.209 191.824 304.405 191.795 304.592 191.735C304.783 191.672 304.952 191.583 305.098 191.469C305.239 191.355 305.351 191.22 305.433 191.065C305.519 190.91 305.562 190.74 305.562 190.553H307.101C307.105 190.913 307.023 191.252 306.854 191.571C306.69 191.886 306.467 192.157 306.185 192.385C305.897 192.622 305.567 192.809 305.193 192.945C304.824 193.077 304.435 193.144 304.024 193.144C303.455 193.144 302.956 193.046 302.527 192.85C302.104 192.649 301.75 192.38 301.468 192.043C301.181 191.706 300.964 191.314 300.818 190.867C300.673 190.416 300.6 189.935 300.6 189.425V189.186C300.6 188.68 300.67 188.201 300.812 187.75C300.957 187.299 301.174 186.905 301.461 186.567C301.748 186.23 302.104 185.964 302.527 185.768C302.956 185.567 303.452 185.467 304.018 185.467C304.464 185.467 304.877 185.535 305.255 185.672C305.638 185.809 305.966 186 306.239 186.246C306.513 186.492 306.725 186.786 306.875 187.128C307.03 187.47 307.105 187.846 307.101 188.256H305.562C305.562 188.055 305.524 187.866 305.446 187.688C305.373 187.511 305.269 187.356 305.132 187.224C304.991 187.091 304.822 186.987 304.626 186.909C304.435 186.832 304.227 186.793 304.004 186.793C303.662 186.793 303.377 186.864 303.149 187.005C302.926 187.142 302.748 187.322 302.616 187.545C302.475 187.768 302.375 188.023 302.315 188.311C302.261 188.598 302.233 188.889 302.233 189.186V189.425C302.233 189.726 302.261 190.022 302.315 190.313C302.375 190.601 302.473 190.854 302.609 191.072C302.742 191.3 302.922 191.482 303.149 191.619C303.377 191.756 303.662 191.824 304.004 191.824ZM312.474 183.799V185.604H315.256V186.827H312.474V190.361C312.474 190.635 312.506 190.865 312.569 191.052C312.638 191.234 312.731 191.378 312.85 191.482C312.968 191.592 313.109 191.669 313.273 191.715C313.438 191.76 313.618 191.783 313.813 191.783C313.955 191.783 314.101 191.776 314.251 191.763C314.401 191.749 314.547 191.731 314.688 191.708C314.825 191.69 314.953 191.669 315.071 191.646C315.194 191.619 315.297 191.596 315.379 191.578L315.557 192.706C315.438 192.779 315.295 192.843 315.126 192.897C314.962 192.948 314.784 192.991 314.593 193.027C314.401 193.064 314.201 193.091 313.991 193.109C313.786 193.132 313.581 193.144 313.376 193.144C313.002 193.144 312.658 193.093 312.344 192.993C312.034 192.888 311.767 192.727 311.544 192.508C311.321 192.294 311.145 192.018 311.018 191.681C310.895 191.343 310.833 190.938 310.833 190.464V186.827H309.042V185.604H310.833V183.799H312.474ZM317.977 185.604H321.9V191.646H324.074V193H317.977V191.646H320.253V186.964H317.977V185.604ZM320.103 183.689C320.103 183.557 320.125 183.437 320.171 183.327C320.216 183.213 320.283 183.115 320.369 183.033C320.451 182.956 320.549 182.896 320.663 182.855C320.782 182.81 320.914 182.787 321.06 182.787C321.306 182.787 321.504 182.851 321.654 182.979C321.809 183.102 321.898 183.261 321.921 183.457C321.953 183.658 321.919 183.833 321.818 183.983C321.718 184.129 321.572 184.227 321.381 184.277C321.285 184.364 321.171 184.421 321.039 184.448C320.907 184.476 320.761 184.464 320.602 184.414C320.438 184.364 320.312 184.275 320.226 184.147C320.144 184.015 320.103 183.863 320.103 183.689ZM325.708 189.233C325.708 188.696 325.785 188.199 325.94 187.743C326.095 187.283 326.321 186.884 326.617 186.547C326.909 186.21 327.267 185.945 327.69 185.754C328.114 185.562 328.597 185.467 329.14 185.467C329.682 185.467 330.165 185.562 330.589 185.754C331.017 185.945 331.38 186.21 331.676 186.547C331.967 186.884 332.191 187.283 332.346 187.743C332.501 188.199 332.578 188.696 332.578 189.233V189.377C332.578 189.919 332.501 190.418 332.346 190.874C332.191 191.33 331.967 191.726 331.676 192.063C331.384 192.401 331.024 192.665 330.596 192.856C330.172 193.048 329.691 193.144 329.153 193.144C328.611 193.144 328.126 193.048 327.697 192.856C327.269 192.665 326.909 192.401 326.617 192.063C326.321 191.726 326.095 191.33 325.94 190.874C325.785 190.418 325.708 189.919 325.708 189.377V189.233ZM327.342 189.377C327.342 189.71 327.376 190.024 327.444 190.32C327.517 190.617 327.629 190.876 327.779 191.1C327.925 191.323 328.112 191.501 328.34 191.633C328.568 191.76 328.839 191.824 329.153 191.824C329.459 191.824 329.725 191.76 329.953 191.633C330.181 191.501 330.368 191.323 330.514 191.1C330.66 190.876 330.767 190.617 330.835 190.32C330.908 190.024 330.944 189.71 330.944 189.377V189.233C330.944 188.91 330.908 188.6 330.835 188.304C330.762 188.007 330.655 187.748 330.514 187.524C330.363 187.301 330.174 187.123 329.946 186.991C329.723 186.859 329.454 186.793 329.14 186.793C328.83 186.793 328.561 186.859 328.333 186.991C328.11 187.123 327.925 187.301 327.779 187.524C327.629 187.748 327.517 188.007 327.444 188.304C327.376 188.6 327.342 188.91 327.342 189.233V189.377ZM334.417 193V185.604H335.894L335.996 186.656C336.096 186.515 336.206 186.385 336.324 186.267C336.447 186.144 336.577 186.034 336.714 185.938C336.933 185.788 337.172 185.672 337.432 185.59C337.691 185.508 337.965 185.467 338.252 185.467C338.63 185.467 338.977 185.521 339.291 185.631C339.605 185.74 339.874 185.913 340.098 186.15C340.321 186.387 340.494 186.69 340.617 187.06C340.74 187.424 340.802 187.866 340.802 188.386V193H339.168V188.413C339.168 188.108 339.134 187.853 339.065 187.647C338.997 187.442 338.897 187.278 338.765 187.155C338.632 187.032 338.473 186.946 338.286 186.896C338.099 186.841 337.885 186.813 337.644 186.813C337.443 186.813 337.256 186.841 337.083 186.896C336.91 186.946 336.753 187.019 336.611 187.114C336.502 187.187 336.399 187.276 336.304 187.381C336.208 187.486 336.124 187.6 336.051 187.723V193H334.417ZM349.21 193H347.562L344.329 186.15L344.322 193H342.661V183.047H344.329L347.542 189.869L347.556 183.047H349.21V193ZM355.957 193C355.907 192.909 355.866 192.799 355.834 192.672C355.807 192.54 355.782 192.403 355.759 192.262C355.645 192.38 355.515 192.494 355.369 192.604C355.228 192.708 355.068 192.799 354.891 192.877C354.713 192.959 354.521 193.023 354.316 193.068C354.111 193.114 353.89 193.137 353.653 193.137C353.271 193.137 352.92 193.082 352.601 192.973C352.286 192.859 352.017 192.704 351.794 192.508C351.566 192.316 351.388 192.086 351.261 191.817C351.138 191.544 351.076 191.25 351.076 190.936C351.076 190.53 351.156 190.172 351.315 189.862C351.479 189.548 351.716 189.288 352.026 189.083C352.313 188.892 352.667 188.746 353.086 188.646C353.51 188.545 353.988 188.495 354.521 188.495H355.711V187.996C355.711 187.805 355.677 187.632 355.608 187.477C355.545 187.322 355.451 187.187 355.328 187.073C355.196 186.959 355.034 186.873 354.843 186.813C354.656 186.75 354.439 186.718 354.193 186.718C353.97 186.718 353.774 186.745 353.605 186.8C353.441 186.854 353.305 186.93 353.195 187.025C353.086 187.112 353.004 187.219 352.949 187.347C352.899 187.47 352.874 187.602 352.874 187.743H351.233C351.238 187.447 351.309 187.162 351.445 186.889C351.582 186.615 351.783 186.374 352.047 186.164C352.302 185.95 352.617 185.781 352.99 185.658C353.368 185.531 353.799 185.467 354.282 185.467C354.715 185.467 355.118 185.521 355.492 185.631C355.87 185.736 356.196 185.893 356.47 186.103C356.743 186.312 356.957 186.579 357.112 186.902C357.267 187.221 357.345 187.59 357.345 188.01V191.298C357.345 191.631 357.368 191.931 357.413 192.2C357.463 192.465 357.534 192.692 357.625 192.884V193H355.957ZM353.968 191.824C354.182 191.824 354.38 191.797 354.562 191.742C354.749 191.688 354.918 191.617 355.068 191.53C355.219 191.444 355.349 191.346 355.458 191.236C355.567 191.127 355.652 191.013 355.711 190.895V189.527H354.658C354.303 189.527 353.995 189.562 353.735 189.63C353.476 189.694 353.268 189.787 353.113 189.91C352.977 190.015 352.874 190.14 352.806 190.286C352.742 190.432 352.71 190.596 352.71 190.778C352.71 190.929 352.737 191.07 352.792 191.202C352.847 191.33 352.926 191.439 353.031 191.53C353.136 191.621 353.266 191.694 353.421 191.749C353.576 191.799 353.758 191.824 353.968 191.824ZM360.571 185.604L360.619 186.417C360.76 186.121 360.954 185.888 361.2 185.72C361.451 185.551 361.752 185.467 362.103 185.467C362.285 185.467 362.449 185.487 362.595 185.528C362.741 185.569 362.866 185.633 362.971 185.72C363.053 185.784 363.126 185.861 363.189 185.952C363.253 186.039 363.308 186.139 363.354 186.253C363.417 186.148 363.49 186.05 363.572 185.959C363.654 185.868 363.743 185.79 363.839 185.727C363.962 185.645 364.099 185.581 364.249 185.535C364.404 185.49 364.573 185.467 364.755 185.467C364.992 185.467 365.208 185.508 365.404 185.59C365.605 185.667 365.778 185.788 365.924 185.952C366.07 186.125 366.181 186.351 366.259 186.629C366.341 186.902 366.382 187.233 366.382 187.62V193H364.878V187.606C364.878 187.461 364.862 187.338 364.83 187.237C364.798 187.132 364.753 187.048 364.693 186.984C364.634 186.925 364.561 186.882 364.475 186.854C364.393 186.827 364.301 186.813 364.201 186.813C364.096 186.813 364.005 186.827 363.928 186.854C363.85 186.882 363.782 186.921 363.723 186.971C363.668 187.016 363.622 187.071 363.586 187.135C363.549 187.194 363.522 187.262 363.504 187.34C363.504 187.358 363.504 187.381 363.504 187.408C363.504 187.431 363.504 187.465 363.504 187.511V193H362.027V187.6C362.027 187.454 362.011 187.331 361.979 187.23C361.952 187.126 361.909 187.044 361.85 186.984C361.79 186.925 361.72 186.882 361.638 186.854C361.56 186.827 361.471 186.813 361.371 186.813C361.262 186.813 361.164 186.829 361.077 186.861C360.995 186.889 360.924 186.932 360.865 186.991C360.82 187.032 360.779 187.08 360.742 187.135C360.71 187.189 360.681 187.251 360.653 187.319V193H359.149V185.604H360.571ZM371.502 193.137C370.955 193.137 370.454 193.046 369.998 192.863C369.547 192.681 369.16 192.428 368.836 192.104C368.512 191.785 368.262 191.41 368.084 190.977C367.911 190.539 367.824 190.067 367.824 189.562V189.281C367.824 188.702 367.915 188.178 368.098 187.709C368.28 187.24 368.531 186.839 368.85 186.506C369.169 186.173 369.538 185.918 369.957 185.74C370.381 185.558 370.832 185.467 371.311 185.467C371.844 185.467 372.315 185.558 372.726 185.74C373.136 185.918 373.48 186.166 373.758 186.485C374.036 186.809 374.245 187.194 374.387 187.641C374.528 188.087 374.599 188.575 374.599 189.104V189.808H369.472V189.842C369.522 190.165 369.599 190.437 369.704 190.655C369.809 190.874 369.952 191.07 370.135 191.243C370.317 191.425 370.531 191.567 370.777 191.667C371.028 191.767 371.301 191.817 371.598 191.817C372.003 191.817 372.382 191.74 372.732 191.585C373.083 191.425 373.373 191.2 373.601 190.908L374.476 191.756C374.229 192.111 373.851 192.43 373.341 192.713C372.835 192.995 372.222 193.137 371.502 193.137ZM371.304 186.793C371.071 186.793 370.855 186.836 370.654 186.923C370.458 187.005 370.283 187.123 370.128 187.278C369.973 187.438 369.843 187.629 369.738 187.853C369.633 188.076 369.556 188.329 369.506 188.611H372.985V188.502C372.985 188.288 372.947 188.076 372.869 187.866C372.792 187.652 372.682 187.465 372.541 187.306C372.404 187.151 372.231 187.028 372.021 186.937C371.816 186.841 371.577 186.793 371.304 186.793Z" fill="#380037"/>
<path d="M396.938 187.921H390.621V186.554H396.938V187.921ZM396.938 190.819H390.621V189.459H396.938V190.819Z" fill="#001E2E"/>
<rect x="407" y="176.5" width="28" height="23" rx="5.5" fill="#FFEBF7"/>
<rect x="407" y="176.5" width="28" height="23" rx="5.5" stroke="#FFADF3"/>
<path d="M414.893 188.953C414.893 188.311 414.943 187.704 415.043 187.135C415.143 186.561 415.278 186.03 415.446 185.542C415.619 185.063 415.818 184.624 416.041 184.223C416.269 183.822 416.508 183.466 416.759 183.156C417.005 182.846 417.258 182.584 417.518 182.37C417.777 182.151 418.028 181.983 418.27 181.864L418.598 182.814C418.452 182.924 418.306 183.056 418.16 183.211C418.014 183.366 417.871 183.541 417.729 183.737C417.534 184.015 417.349 184.341 417.176 184.715C417.007 185.089 416.861 185.496 416.738 185.938C416.624 186.353 416.533 186.811 416.465 187.312C416.401 187.814 416.369 188.356 416.369 188.939V189.083C416.369 189.653 416.401 190.184 416.465 190.676C416.529 191.163 416.604 191.578 416.69 191.92C416.8 192.33 416.925 192.711 417.066 193.062C417.212 193.412 417.365 193.722 417.524 193.991C417.693 194.265 417.868 194.506 418.051 194.716C418.233 194.925 418.415 195.101 418.598 195.242L418.27 196.158C418.028 196.04 417.777 195.871 417.518 195.652C417.258 195.438 417.003 195.176 416.752 194.866C416.501 194.556 416.262 194.201 416.034 193.8C415.811 193.403 415.615 192.961 415.446 192.474C415.278 191.991 415.143 191.466 415.043 190.901C414.943 190.332 414.893 189.721 414.893 189.069V188.953ZM426.842 189.069C426.842 189.707 426.789 190.309 426.685 190.874C426.584 191.439 426.448 191.963 426.274 192.446C426.101 192.934 425.901 193.378 425.673 193.779C425.445 194.18 425.203 194.536 424.948 194.846C424.693 195.165 424.433 195.434 424.169 195.652C423.905 195.871 423.649 196.04 423.403 196.158L423.082 195.242C423.255 195.115 423.428 194.953 423.602 194.757C423.775 194.561 423.943 194.335 424.107 194.08C424.281 193.798 424.442 193.476 424.593 193.116C424.748 192.761 424.878 192.367 424.982 191.934C425.083 191.533 425.16 191.095 425.215 190.621C425.274 190.147 425.304 189.634 425.304 189.083V188.939C425.304 188.37 425.272 187.846 425.208 187.367C425.144 186.889 425.064 186.46 424.969 186.082C424.841 185.59 424.686 185.148 424.504 184.756C424.326 184.364 424.139 184.024 423.943 183.737C423.807 183.532 423.663 183.35 423.513 183.19C423.367 183.026 423.223 182.89 423.082 182.78L423.403 181.864C423.649 181.983 423.905 182.154 424.169 182.377C424.438 182.596 424.698 182.86 424.948 183.17C425.208 183.489 425.452 183.849 425.68 184.25C425.908 184.646 426.106 185.089 426.274 185.576C426.443 186.059 426.58 186.581 426.685 187.142C426.789 187.698 426.842 188.301 426.842 188.953V189.069Z" fill="#380037"/>
<path d="M450.938 187.921H444.621V186.554H450.938V187.921ZM450.938 190.819H444.621V189.459H450.938V190.819ZM453.057 191.865V190.245L457.186 188.782L457.603 188.659L457.192 188.522L453.057 187.087V185.467L459.161 188.003V189.322L453.057 191.865Z" fill="#001E2E"/>
<path d="M475.035 195.481C474.589 195.472 474.201 195.37 473.873 195.174C473.545 194.982 473.276 194.732 473.066 194.422C472.852 194.117 472.695 193.775 472.595 193.396C472.494 193.023 472.444 192.656 472.444 192.296V191.161C472.444 190.537 472.296 190.086 472 189.808C471.708 189.53 471.259 189.391 470.653 189.391V188.181C471.259 188.181 471.708 188.042 472 187.764C472.296 187.486 472.444 187.03 472.444 186.396V185.262C472.444 184.883 472.497 184.494 472.602 184.093C472.706 183.692 472.873 183.339 473.101 183.033C473.297 182.755 473.554 182.53 473.873 182.356C474.197 182.179 474.584 182.088 475.035 182.083L475.227 183.033C474.93 183.033 474.698 183.102 474.529 183.238C474.361 183.37 474.235 183.544 474.153 183.758C474.071 183.972 474.021 184.211 474.003 184.476C473.989 184.74 473.982 185.002 473.982 185.262V186.396C473.982 186.939 473.85 187.42 473.586 187.839C473.326 188.254 472.923 188.57 472.376 188.789C472.927 189.003 473.331 189.318 473.586 189.732C473.846 190.143 473.978 190.619 473.982 191.161V192.296C473.982 192.556 473.998 192.818 474.03 193.082C474.067 193.346 474.133 193.586 474.229 193.8C474.324 194.014 474.452 194.187 474.611 194.319C474.771 194.456 474.976 194.524 475.227 194.524L475.035 195.481ZM487.559 194.524C487.805 194.524 488.007 194.456 488.167 194.319C488.331 194.187 488.461 194.014 488.557 193.8C488.652 193.586 488.718 193.346 488.755 193.082C488.796 192.818 488.816 192.556 488.816 192.296V191.161C488.816 190.86 488.855 190.578 488.933 190.313C489.015 190.045 489.14 189.803 489.309 189.589C489.432 189.42 489.58 189.27 489.753 189.138C489.931 189.001 490.133 188.885 490.361 188.789C490.161 188.707 489.979 188.609 489.814 188.495C489.655 188.377 489.514 188.247 489.391 188.105C489.195 187.878 489.049 187.62 488.953 187.333C488.862 187.041 488.816 186.729 488.816 186.396V185.262C488.816 185.002 488.805 184.74 488.782 184.476C488.764 184.211 488.716 183.972 488.639 183.758C488.557 183.544 488.431 183.37 488.263 183.238C488.094 183.102 487.862 183.033 487.565 183.033L487.757 182.083C488.226 182.088 488.623 182.186 488.946 182.377C489.274 182.564 489.541 182.812 489.746 183.122C489.96 183.427 490.113 183.771 490.204 184.154C490.3 184.533 490.348 184.902 490.348 185.262V186.396C490.348 186.661 490.37 186.893 490.416 187.094C490.466 187.294 490.544 187.465 490.648 187.606C490.785 187.802 490.979 187.948 491.229 188.044C491.48 188.135 491.783 188.181 492.139 188.181V189.391C491.779 189.391 491.476 189.438 491.229 189.534C490.983 189.625 490.79 189.773 490.648 189.979C490.548 190.115 490.473 190.284 490.423 190.484C490.373 190.68 490.348 190.906 490.348 191.161V192.296C490.348 192.656 490.295 193.025 490.19 193.403C490.086 193.782 489.931 194.121 489.726 194.422C489.516 194.732 489.247 194.985 488.919 195.181C488.591 195.377 488.203 195.477 487.757 195.481L487.559 194.524ZM497.149 186.226C497.149 185.911 497.25 185.642 497.45 185.419C497.655 185.196 497.949 185.084 498.332 185.084C498.706 185.084 498.997 185.196 499.207 185.419C499.417 185.638 499.521 185.907 499.521 186.226C499.521 186.545 499.414 186.811 499.2 187.025C498.991 187.24 498.701 187.347 498.332 187.347C497.958 187.347 497.667 187.24 497.457 187.025C497.252 186.807 497.149 186.54 497.149 186.226ZM499.07 192.788C499.07 193.28 498.95 193.779 498.708 194.285C498.471 194.796 498.157 195.226 497.765 195.577L496.849 195.092C497.045 194.768 497.195 194.426 497.3 194.066C497.409 193.706 497.464 193.301 497.464 192.85V191.407H499.07V192.788Z" fill="#001E2E"/>
<g filter="url(#filter0_b_8619_34332)">
<g clip-path="url(#clip0_8619_34332)">
<rect x="385.5" y="32" width="98" height="20.0001" rx="4" fill="#8194A2"/>
<rect width="98" height="20.0001" transform="translate(385.5 32)" fill="#8194A2"/>
<path d="M395.946 46C395.91 45.9284 395.88 45.846 395.855 45.7529C395.83 45.6598 395.808 45.5614 395.791 45.4575C395.708 45.547 395.613 45.6312 395.506 45.71C395.398 45.7887 395.28 45.8568 395.151 45.9141C395.019 45.9749 394.874 46.0215 394.716 46.0537C394.559 46.0895 394.389 46.1074 394.206 46.1074C393.909 46.1074 393.635 46.0645 393.384 45.9785C393.137 45.8926 392.924 45.7726 392.745 45.6187C392.566 45.4647 392.426 45.2821 392.326 45.0708C392.226 44.856 392.176 44.6232 392.176 44.3726C392.176 44.0503 392.238 43.7656 392.364 43.5186C392.489 43.2679 392.677 43.062 392.928 42.9009C393.153 42.7541 393.431 42.6431 393.76 42.5679C394.093 42.4891 394.475 42.4497 394.904 42.4497H395.737V42.106C395.737 41.9699 395.715 41.8481 395.672 41.7407C395.629 41.6297 395.565 41.5348 395.479 41.4561C395.389 41.3737 395.277 41.311 395.141 41.2681C395.008 41.2215 394.852 41.1982 394.673 41.1982C394.516 41.1982 394.38 41.2179 394.265 41.2573C394.151 41.2931 394.057 41.3451 393.986 41.4131C393.921 41.474 393.873 41.5474 393.841 41.6333C393.812 41.7192 393.798 41.8141 393.798 41.918H392.305C392.305 41.6709 392.358 41.4364 392.466 41.2144C392.577 40.9924 392.738 40.7972 392.949 40.6289C393.157 40.4606 393.411 40.3281 393.712 40.2314C394.016 40.1312 394.364 40.0811 394.754 40.0811C395.105 40.0811 395.431 40.124 395.731 40.21C396.036 40.2959 396.299 40.423 396.521 40.5913C396.743 40.7596 396.917 40.9727 397.042 41.2305C397.167 41.4847 397.23 41.7801 397.23 42.1167V44.6089C397.23 44.9204 397.25 45.1782 397.289 45.3823C397.328 45.5864 397.386 45.7619 397.461 45.9087V46H395.946ZM394.523 44.9526C394.673 44.9526 394.813 44.9347 394.942 44.8989C395.071 44.8631 395.187 44.8166 395.291 44.7593C395.395 44.702 395.484 44.6375 395.56 44.5659C395.635 44.4907 395.694 44.4155 395.737 44.3403V43.3413H394.974C394.741 43.3413 394.543 43.3646 394.378 43.4111C394.213 43.4541 394.079 43.515 393.975 43.5938C393.871 43.6761 393.794 43.7746 393.744 43.8892C393.694 44.0002 393.669 44.1219 393.669 44.2544C393.669 44.3582 393.687 44.4549 393.723 44.5444C393.762 44.6304 393.818 44.7038 393.889 44.7646C393.961 44.8219 394.049 44.8685 394.152 44.9043C394.26 44.9365 394.383 44.9526 394.523 44.9526ZM403.095 40.0811C403.321 40.0811 403.528 40.0972 403.718 40.1294C403.912 40.158 404.067 40.1903 404.186 40.2261L403.965 41.7139C403.768 41.6673 403.566 41.6333 403.358 41.6118C403.154 41.5868 402.959 41.5742 402.773 41.5742C402.58 41.5742 402.404 41.5921 402.247 41.6279C402.093 41.6602 401.955 41.7103 401.833 41.7783C401.686 41.8571 401.561 41.9574 401.457 42.0791C401.353 42.2008 401.267 42.3441 401.199 42.5088V46H399.706V40.1885H401.097L401.156 41.0103L401.167 41.1392C401.403 40.8097 401.686 40.5519 402.016 40.3657C402.345 40.1759 402.705 40.0811 403.095 40.0811ZM405.378 43.0513C405.378 42.6108 405.432 42.208 405.539 41.8428C405.65 41.4775 405.808 41.1642 406.012 40.9028C406.216 40.6414 406.463 40.4391 406.753 40.2959C407.043 40.1527 407.371 40.0811 407.736 40.0811C407.933 40.0811 408.112 40.1007 408.273 40.1401C408.438 40.1759 408.586 40.2314 408.719 40.3066C408.819 40.3604 408.912 40.4248 408.998 40.5C409.084 40.5716 409.163 40.6522 409.234 40.7417L409.293 40.1885H410.652V45.812C410.652 46.2059 410.584 46.5568 410.448 46.8647C410.316 47.1727 410.13 47.4323 409.89 47.6436C409.646 47.8548 409.354 48.0142 409.014 48.1216C408.678 48.2326 408.305 48.2881 407.897 48.2881C407.722 48.2881 407.534 48.2702 407.333 48.2344C407.132 48.1986 406.934 48.1431 406.737 48.0679C406.54 47.9927 406.354 47.896 406.178 47.7778C406.003 47.6632 405.852 47.5254 405.727 47.3643L406.398 46.4565C406.495 46.5675 406.599 46.6642 406.71 46.7466C406.821 46.8325 406.937 46.9023 407.059 46.9561C407.177 47.0098 407.299 47.0492 407.424 47.0742C407.553 47.1029 407.686 47.1172 407.822 47.1172C408.04 47.1172 408.234 47.0868 408.402 47.0259C408.574 46.965 408.717 46.8755 408.832 46.7573C408.935 46.6499 409.014 46.5174 409.068 46.3599C409.125 46.2023 409.154 46.0251 409.154 45.8281V45.4951C409.082 45.5739 409.007 45.6455 408.928 45.71C408.849 45.7744 408.765 45.8317 408.676 45.8818C408.543 45.9535 408.396 46.009 408.235 46.0483C408.078 46.0877 407.908 46.1074 407.725 46.1074C407.363 46.1074 407.038 46.034 406.748 45.8872C406.461 45.7368 406.216 45.5309 406.012 45.2695C405.808 45.0081 405.65 44.6984 405.539 44.3403C405.432 43.9787 405.378 43.5866 405.378 43.1641V43.0513ZM406.876 43.1641C406.876 43.4076 406.9 43.6349 406.946 43.8462C406.996 44.0539 407.072 44.2347 407.172 44.3887C407.272 44.5462 407.399 44.6698 407.553 44.7593C407.707 44.8488 407.89 44.8936 408.101 44.8936C408.23 44.8936 408.346 44.881 408.45 44.856C408.558 44.8309 408.654 44.7951 408.74 44.7485C408.83 44.6984 408.909 44.6375 408.977 44.5659C409.045 44.4943 409.104 44.4137 409.154 44.3242V41.8643C409.1 41.764 409.036 41.6763 408.96 41.6011C408.885 41.5259 408.799 41.465 408.703 41.4185C408.62 41.3791 408.529 41.3486 408.429 41.3271C408.332 41.3057 408.226 41.2949 408.112 41.2949C407.901 41.2949 407.718 41.3415 407.564 41.4346C407.41 41.5241 407.283 41.6476 407.183 41.8052C407.079 41.9663 407.002 42.1543 406.952 42.3691C406.902 42.5804 406.876 42.8078 406.876 43.0513V43.1641ZM415.927 46L415.841 45.1836C415.644 45.4736 415.406 45.701 415.126 45.8657C414.851 46.0304 414.548 46.1128 414.219 46.1128C413.918 46.1128 413.642 46.0662 413.392 45.9731C413.141 45.88 412.926 45.7314 412.747 45.5273C412.568 45.3268 412.428 45.0708 412.328 44.7593C412.231 44.4442 412.183 44.0664 412.183 43.626V40.1885H413.676V43.6367C413.676 43.873 413.692 44.0718 413.725 44.2329C413.76 44.394 413.816 44.5229 413.891 44.6196C413.966 44.7199 414.065 44.7915 414.187 44.8345C414.308 44.8774 414.457 44.8989 414.632 44.8989C414.79 44.8989 414.931 44.8828 415.057 44.8506C415.186 44.8184 415.298 44.7718 415.395 44.7109C415.477 44.6572 415.551 44.5928 415.615 44.5176C415.68 44.4424 415.735 44.3582 415.782 44.2651V40.1885H417.28V46H415.927ZM419.67 40.1885L419.713 40.8921C419.824 40.6414 419.977 40.4445 420.17 40.3013C420.367 40.1545 420.605 40.0811 420.884 40.0811C421.02 40.0811 421.142 40.0972 421.25 40.1294C421.357 40.1616 421.45 40.2118 421.529 40.2798C421.59 40.3299 421.642 40.3908 421.685 40.4624C421.731 40.5304 421.771 40.6092 421.803 40.6987C421.853 40.6128 421.908 40.5358 421.969 40.4678C422.034 40.3962 422.104 40.3353 422.179 40.2852C422.272 40.2207 422.377 40.1706 422.496 40.1348C422.614 40.099 422.743 40.0811 422.882 40.0811C423.058 40.0811 423.221 40.1133 423.371 40.1777C423.525 40.2422 423.659 40.3442 423.774 40.4839C423.885 40.6271 423.971 40.8115 424.032 41.0371C424.096 41.2591 424.128 41.5312 424.128 41.8535V46H422.77V41.8481C422.77 41.7371 422.757 41.6458 422.732 41.5742C422.71 41.5026 422.68 41.4453 422.641 41.4023C422.601 41.363 422.555 41.3361 422.501 41.3218C422.451 41.3039 422.399 41.2949 422.345 41.2949C422.288 41.2949 422.236 41.3021 422.189 41.3164C422.146 41.3307 422.105 41.3504 422.066 41.3755C422.034 41.4006 422.005 41.4292 421.98 41.4614C421.955 41.4901 421.933 41.5241 421.916 41.5635C421.916 41.5706 421.916 41.5868 421.916 41.6118C421.916 41.6369 421.916 41.6709 421.916 41.7139V46H420.6V41.8428C420.6 41.7318 420.589 41.6405 420.567 41.5688C420.546 41.4972 420.517 41.4417 420.481 41.4023C420.442 41.363 420.397 41.3361 420.347 41.3218C420.297 41.3039 420.243 41.2949 420.186 41.2949C420.122 41.2949 420.064 41.3057 420.014 41.3271C419.964 41.3486 419.919 41.3791 419.88 41.4185C419.851 41.4471 419.826 41.4811 419.805 41.5205C419.783 41.5599 419.764 41.6029 419.746 41.6494V46H418.387V40.1885H419.67ZM428.167 46.1074C427.72 46.1074 427.313 46.034 426.948 45.8872C426.583 45.7404 426.27 45.5399 426.008 45.2856C425.747 45.035 425.545 44.7396 425.401 44.3994C425.262 44.0557 425.192 43.6886 425.192 43.2983V43.0835C425.192 42.6395 425.262 42.2349 425.401 41.8696C425.541 41.5008 425.736 41.1839 425.987 40.9189C426.237 40.654 426.535 40.4481 426.878 40.3013C427.222 40.1545 427.596 40.0811 428.001 40.0811C428.42 40.0811 428.792 40.1509 429.118 40.2905C429.448 40.4266 429.727 40.62 429.956 40.8706C430.182 41.1213 430.354 41.4238 430.472 41.7783C430.59 42.1292 430.649 42.5177 430.649 42.9438V43.5776H426.707V43.5938C426.757 43.8265 426.821 44.0145 426.9 44.1577C426.979 44.2974 427.084 44.4245 427.217 44.5391C427.353 44.6572 427.509 44.7485 427.684 44.813C427.86 44.8774 428.051 44.9097 428.259 44.9097C428.552 44.9097 428.837 44.8542 429.113 44.7432C429.389 44.6322 429.612 44.4657 429.784 44.2437L430.531 45.0493C430.341 45.3179 430.04 45.5614 429.628 45.7798C429.217 45.9982 428.73 46.1074 428.167 46.1074ZM427.99 41.2896C427.822 41.2896 427.668 41.32 427.528 41.3809C427.389 41.4382 427.267 41.5223 427.163 41.6333C427.056 41.7443 426.966 41.8768 426.895 42.0308C426.823 42.1847 426.769 42.3566 426.733 42.5464H429.183V42.4282C429.183 42.2707 429.154 42.1221 429.097 41.9824C429.039 41.8428 428.961 41.721 428.86 41.6172C428.76 41.5169 428.637 41.4382 428.49 41.3809C428.347 41.32 428.18 41.2896 427.99 41.2896ZM431.954 46V40.1885H433.308L433.399 40.9941C433.474 40.8867 433.556 40.7882 433.646 40.6987C433.736 40.6092 433.83 40.5286 433.931 40.457C434.103 40.3353 434.291 40.2422 434.495 40.1777C434.699 40.1133 434.915 40.0811 435.145 40.0811C435.438 40.0811 435.707 40.124 435.95 40.21C436.194 40.2959 436.405 40.432 436.584 40.6182C436.759 40.8079 436.896 41.0514 436.992 41.3486C437.092 41.6423 437.143 42.0003 437.143 42.4229V46H435.649V42.4443C435.649 42.2152 435.623 42.0272 435.569 41.8804C435.519 41.73 435.445 41.6118 435.349 41.5259C435.252 41.4399 435.136 41.3809 435 41.3486C434.863 41.3128 434.709 41.2949 434.538 41.2949C434.394 41.2949 434.262 41.311 434.14 41.3433C434.022 41.3755 433.916 41.4238 433.823 41.4883C433.748 41.5348 433.68 41.5903 433.619 41.6548C433.558 41.7192 433.503 41.7909 433.453 41.8696V46H431.954ZM441.3 38.7651V40.1885H443.47V41.2896H441.3V43.7871C441.3 43.9984 441.323 44.1756 441.37 44.3188C441.42 44.4585 441.49 44.5695 441.579 44.6519C441.669 44.7378 441.776 44.7987 441.901 44.8345C442.03 44.8703 442.174 44.8882 442.331 44.8882C442.446 44.8882 442.562 44.8828 442.68 44.8721C442.802 44.8613 442.918 44.847 443.029 44.8291C443.137 44.8148 443.237 44.7987 443.33 44.7808C443.427 44.7629 443.509 44.745 443.577 44.7271L443.722 45.7529C443.618 45.8138 443.497 45.8675 443.357 45.9141C443.217 45.957 443.069 45.9928 442.911 46.0215C442.754 46.0501 442.589 46.0716 442.417 46.0859C442.249 46.1038 442.082 46.1128 441.917 46.1128C441.599 46.1128 441.309 46.0716 441.047 45.9893C440.79 45.9033 440.569 45.7708 440.387 45.5918C440.201 45.4163 440.057 45.1925 439.957 44.9204C439.857 44.6447 439.807 44.3153 439.807 43.9321V41.2896H438.48V40.1885H439.807V38.7651H441.3ZM455.522 44.4048C455.522 44.3153 455.501 44.2365 455.458 44.1685C455.419 44.1004 455.347 44.036 455.243 43.9751C455.136 43.9178 454.994 43.8641 454.819 43.814C454.643 43.7638 454.421 43.7137 454.153 43.6636C453.813 43.5955 453.501 43.5114 453.218 43.4111C452.939 43.3073 452.699 43.182 452.499 43.0352C452.298 42.8919 452.14 42.7254 452.026 42.5356C451.915 42.3459 451.859 42.1274 451.859 41.8804C451.859 41.6405 451.917 41.4113 452.031 41.1929C452.146 40.9744 452.311 40.7829 452.525 40.6182C452.74 40.4535 453.002 40.3228 453.31 40.2261C453.618 40.1294 453.965 40.0811 454.352 40.0811C454.756 40.0811 455.12 40.1294 455.442 40.2261C455.764 40.3192 456.038 40.4481 456.264 40.6128C456.486 40.7811 456.656 40.9798 456.774 41.209C456.892 41.4382 456.951 41.687 456.951 41.9556H455.458C455.458 41.8589 455.442 41.7694 455.41 41.687C455.377 41.6011 455.329 41.5241 455.265 41.4561C455.175 41.3665 455.053 41.2949 454.899 41.2412C454.749 41.1875 454.566 41.1606 454.352 41.1606C454.169 41.1606 454.01 41.1785 453.874 41.2144C453.737 41.2502 453.626 41.3003 453.541 41.3647C453.462 41.422 453.401 41.4901 453.358 41.5688C453.319 41.644 453.299 41.7246 453.299 41.8105C453.299 41.8965 453.317 41.9771 453.353 42.0522C453.388 42.1239 453.453 42.1883 453.546 42.2456C453.635 42.3065 453.759 42.362 453.917 42.4121C454.074 42.4587 454.275 42.4998 454.518 42.5356C454.869 42.5929 455.195 42.6663 455.496 42.7559C455.796 42.8454 456.056 42.96 456.274 43.0996C456.493 43.2428 456.663 43.4165 456.785 43.6206C456.91 43.8211 456.973 44.061 456.973 44.3403C456.973 44.5981 456.91 44.8363 456.785 45.0547C456.663 45.2695 456.489 45.4557 456.264 45.6133C456.035 45.7708 455.759 45.8944 455.437 45.9839C455.114 46.0698 454.754 46.1128 454.357 46.1128C453.92 46.1128 453.533 46.0555 453.197 45.9409C452.864 45.8263 452.584 45.6759 452.359 45.4897C452.133 45.3071 451.961 45.0994 451.843 44.8667C451.729 44.6304 451.671 44.394 451.671 44.1577H453.095C453.105 44.3153 453.148 44.4513 453.224 44.5659C453.299 44.6769 453.396 44.7664 453.514 44.8345C453.632 44.9061 453.766 44.958 453.917 44.9902C454.07 45.0225 454.228 45.0386 454.389 45.0386C454.583 45.0386 454.751 45.0225 454.894 44.9902C455.041 44.9544 455.161 44.9079 455.254 44.8506C455.343 44.7933 455.41 44.7271 455.453 44.6519C455.499 44.5767 455.522 44.4943 455.522 44.4048ZM458.691 37.75H461.941V44.7861H463.606V46H458.691V44.7861H460.432V38.9692H458.691V37.75ZM464.782 43.0405C464.782 42.618 464.843 42.2277 464.965 41.8696C465.087 41.508 465.266 41.1947 465.502 40.9297C465.735 40.6647 466.019 40.457 466.356 40.3066C466.696 40.1562 467.085 40.0811 467.521 40.0811C467.958 40.0811 468.347 40.1562 468.687 40.3066C469.027 40.457 469.315 40.6647 469.552 40.9297C469.785 41.1947 469.962 41.508 470.083 41.8696C470.205 42.2277 470.266 42.618 470.266 43.0405V43.1533C470.266 43.5794 470.205 43.9733 470.083 44.335C469.962 44.693 469.785 45.0046 469.552 45.2695C469.319 45.5345 469.033 45.7422 468.692 45.8926C468.352 46.0394 467.965 46.1128 467.532 46.1128C467.095 46.1128 466.705 46.0394 466.361 45.8926C466.021 45.7422 465.735 45.5345 465.502 45.2695C465.266 45.0046 465.087 44.693 464.965 44.335C464.843 43.9733 464.782 43.5794 464.782 43.1533V43.0405ZM466.275 43.1533C466.275 43.3968 466.299 43.626 466.345 43.8408C466.392 44.0521 466.465 44.2365 466.565 44.394C466.666 44.5552 466.795 44.6823 466.952 44.7754C467.113 44.8685 467.307 44.915 467.532 44.915C467.751 44.915 467.939 44.8685 468.096 44.7754C468.254 44.6823 468.383 44.5552 468.483 44.394C468.58 44.2365 468.651 44.0521 468.698 43.8408C468.744 43.626 468.768 43.3968 468.768 43.1533V43.0405C468.768 42.8042 468.744 42.5804 468.698 42.3691C468.651 42.1579 468.58 41.9717 468.483 41.8105C468.383 41.6494 468.254 41.5223 468.096 41.4292C467.939 41.3361 467.747 41.2896 467.521 41.2896C467.299 41.2896 467.11 41.3361 466.952 41.4292C466.795 41.5223 466.666 41.6494 466.565 41.8105C466.465 41.9717 466.392 42.1579 466.345 42.3691C466.299 42.5804 466.275 42.8042 466.275 43.0405V43.1533ZM474.332 38.7651V40.1885H476.502V41.2896H474.332V43.7871C474.332 43.9984 474.355 44.1756 474.402 44.3188C474.452 44.4585 474.522 44.5695 474.611 44.6519C474.701 44.7378 474.808 44.7987 474.934 44.8345C475.062 44.8703 475.206 44.8882 475.363 44.8882C475.478 44.8882 475.594 44.8828 475.712 44.8721C475.834 44.8613 475.951 44.847 476.062 44.8291C476.169 44.8148 476.269 44.7987 476.362 44.7808C476.459 44.7629 476.541 44.745 476.609 44.7271L476.754 45.7529C476.651 45.8138 476.529 45.8675 476.389 45.9141C476.25 45.957 476.101 45.9928 475.943 46.0215C475.786 46.0501 475.621 46.0716 475.449 46.0859C475.281 46.1038 475.114 46.1128 474.95 46.1128C474.631 46.1128 474.341 46.0716 474.08 45.9893C473.822 45.9033 473.602 45.7708 473.419 45.5918C473.233 45.4163 473.09 45.1925 472.989 44.9204C472.889 44.6447 472.839 44.3153 472.839 43.9321V41.2896H471.512V40.1885H472.839V38.7651H474.332Z" fill="white"/>
</g>
</g>
<path d="M434.5 52V69.9999" stroke="#8194A2" stroke-linejoin="round"/>
<circle cx="434.5" cy="72" r="2" fill="#8194A2"/>
<g filter="url(#filter1_b_8619_34332)">
<g clip-path="url(#clip1_8619_34332)">
<rect x="372" y="136" width="98" height="20.0001" rx="4" fill="#8194A2"/>
<rect width="98" height="20.0001" transform="translate(372 136)" fill="#8194A2"/>
<path d="M382.446 150C382.41 149.928 382.38 149.846 382.355 149.753C382.33 149.66 382.308 149.561 382.291 149.458C382.208 149.547 382.113 149.631 382.006 149.71C381.898 149.789 381.78 149.857 381.651 149.914C381.519 149.975 381.374 150.021 381.216 150.054C381.059 150.09 380.889 150.107 380.706 150.107C380.409 150.107 380.135 150.064 379.884 149.979C379.637 149.893 379.424 149.773 379.245 149.619C379.066 149.465 378.926 149.282 378.826 149.071C378.726 148.856 378.676 148.623 378.676 148.373C378.676 148.05 378.738 147.766 378.864 147.519C378.989 147.268 379.177 147.062 379.428 146.901C379.653 146.754 379.931 146.643 380.26 146.568C380.593 146.489 380.975 146.45 381.404 146.45H382.237V146.106C382.237 145.97 382.215 145.848 382.172 145.741C382.129 145.63 382.065 145.535 381.979 145.456C381.889 145.374 381.777 145.311 381.641 145.268C381.508 145.222 381.352 145.198 381.173 145.198C381.016 145.198 380.88 145.218 380.765 145.257C380.651 145.293 380.557 145.345 380.486 145.413C380.421 145.474 380.373 145.547 380.341 145.633C380.312 145.719 380.298 145.814 380.298 145.918H378.805C378.805 145.671 378.858 145.436 378.966 145.214C379.077 144.992 379.238 144.797 379.449 144.629C379.657 144.461 379.911 144.328 380.212 144.231C380.516 144.131 380.864 144.081 381.254 144.081C381.605 144.081 381.931 144.124 382.231 144.21C382.536 144.296 382.799 144.423 383.021 144.591C383.243 144.76 383.417 144.973 383.542 145.23C383.667 145.485 383.73 145.78 383.73 146.117V148.609C383.73 148.92 383.75 149.178 383.789 149.382C383.828 149.586 383.886 149.762 383.961 149.909V150H382.446ZM381.023 148.953C381.173 148.953 381.313 148.935 381.442 148.899C381.571 148.863 381.687 148.817 381.791 148.759C381.895 148.702 381.984 148.638 382.06 148.566C382.135 148.491 382.194 148.416 382.237 148.34V147.341H381.474C381.241 147.341 381.043 147.365 380.878 147.411C380.713 147.454 380.579 147.515 380.475 147.594C380.371 147.676 380.294 147.775 380.244 147.889C380.194 148 380.169 148.122 380.169 148.254C380.169 148.358 380.187 148.455 380.223 148.544C380.262 148.63 380.318 148.704 380.389 148.765C380.461 148.822 380.549 148.868 380.652 148.904C380.76 148.937 380.883 148.953 381.023 148.953ZM389.595 144.081C389.821 144.081 390.028 144.097 390.218 144.129C390.412 144.158 390.567 144.19 390.686 144.226L390.465 145.714C390.268 145.667 390.066 145.633 389.858 145.612C389.654 145.587 389.459 145.574 389.273 145.574C389.08 145.574 388.904 145.592 388.747 145.628C388.593 145.66 388.455 145.71 388.333 145.778C388.186 145.857 388.061 145.957 387.957 146.079C387.853 146.201 387.767 146.344 387.699 146.509V150H386.206V144.188H387.597L387.656 145.01L387.667 145.139C387.903 144.81 388.186 144.552 388.516 144.366C388.845 144.176 389.205 144.081 389.595 144.081ZM391.878 147.051C391.878 146.611 391.932 146.208 392.039 145.843C392.15 145.478 392.308 145.164 392.512 144.903C392.716 144.641 392.963 144.439 393.253 144.296C393.543 144.153 393.871 144.081 394.236 144.081C394.433 144.081 394.612 144.101 394.773 144.14C394.938 144.176 395.086 144.231 395.219 144.307C395.319 144.36 395.412 144.425 395.498 144.5C395.584 144.572 395.663 144.652 395.734 144.742L395.793 144.188H397.152V149.812C397.152 150.206 397.084 150.557 396.948 150.865C396.816 151.173 396.63 151.432 396.39 151.644C396.146 151.855 395.854 152.014 395.514 152.122C395.178 152.233 394.805 152.288 394.397 152.288C394.222 152.288 394.034 152.27 393.833 152.234C393.632 152.199 393.434 152.143 393.237 152.068C393.04 151.993 392.854 151.896 392.678 151.778C392.503 151.663 392.352 151.525 392.227 151.364L392.898 150.457C392.995 150.568 393.099 150.664 393.21 150.747C393.321 150.833 393.437 150.902 393.559 150.956C393.677 151.01 393.799 151.049 393.924 151.074C394.053 151.103 394.186 151.117 394.322 151.117C394.54 151.117 394.734 151.087 394.902 151.026C395.074 150.965 395.217 150.875 395.332 150.757C395.435 150.65 395.514 150.517 395.568 150.36C395.625 150.202 395.654 150.025 395.654 149.828V149.495C395.582 149.574 395.507 149.646 395.428 149.71C395.349 149.774 395.265 149.832 395.176 149.882C395.043 149.953 394.896 150.009 394.735 150.048C394.578 150.088 394.408 150.107 394.225 150.107C393.863 150.107 393.538 150.034 393.248 149.887C392.961 149.737 392.716 149.531 392.512 149.27C392.308 149.008 392.15 148.698 392.039 148.34C391.932 147.979 391.878 147.587 391.878 147.164V147.051ZM393.376 147.164C393.376 147.408 393.4 147.635 393.446 147.846C393.496 148.054 393.572 148.235 393.672 148.389C393.772 148.546 393.899 148.67 394.053 148.759C394.207 148.849 394.39 148.894 394.601 148.894C394.73 148.894 394.846 148.881 394.95 148.856C395.058 148.831 395.154 148.795 395.24 148.749C395.33 148.698 395.409 148.638 395.477 148.566C395.545 148.494 395.604 148.414 395.654 148.324V145.864C395.6 145.764 395.536 145.676 395.46 145.601C395.385 145.526 395.299 145.465 395.203 145.418C395.12 145.379 395.029 145.349 394.929 145.327C394.832 145.306 394.726 145.295 394.612 145.295C394.401 145.295 394.218 145.341 394.064 145.435C393.91 145.524 393.783 145.648 393.683 145.805C393.579 145.966 393.502 146.154 393.452 146.369C393.402 146.58 393.376 146.808 393.376 147.051V147.164ZM402.427 150L402.341 149.184C402.144 149.474 401.906 149.701 401.626 149.866C401.351 150.03 401.048 150.113 400.719 150.113C400.418 150.113 400.142 150.066 399.892 149.973C399.641 149.88 399.426 149.731 399.247 149.527C399.068 149.327 398.928 149.071 398.828 148.759C398.731 148.444 398.683 148.066 398.683 147.626V144.188H400.176V147.637C400.176 147.873 400.192 148.072 400.225 148.233C400.26 148.394 400.316 148.523 400.391 148.62C400.466 148.72 400.565 148.792 400.687 148.834C400.808 148.877 400.957 148.899 401.132 148.899C401.29 148.899 401.431 148.883 401.557 148.851C401.686 148.818 401.798 148.772 401.895 148.711C401.977 148.657 402.051 148.593 402.115 148.518C402.18 148.442 402.235 148.358 402.282 148.265V144.188H403.78V150H402.427ZM406.17 144.188L406.213 144.892C406.324 144.641 406.477 144.444 406.67 144.301C406.867 144.154 407.105 144.081 407.384 144.081C407.52 144.081 407.642 144.097 407.75 144.129C407.857 144.162 407.95 144.212 408.029 144.28C408.09 144.33 408.142 144.391 408.185 144.462C408.231 144.53 408.271 144.609 408.303 144.699C408.353 144.613 408.408 144.536 408.469 144.468C408.534 144.396 408.604 144.335 408.679 144.285C408.772 144.221 408.877 144.171 408.996 144.135C409.114 144.099 409.243 144.081 409.382 144.081C409.558 144.081 409.721 144.113 409.871 144.178C410.025 144.242 410.159 144.344 410.274 144.484C410.385 144.627 410.471 144.812 410.532 145.037C410.596 145.259 410.628 145.531 410.628 145.854V150H409.27V145.848C409.27 145.737 409.257 145.646 409.232 145.574C409.21 145.503 409.18 145.445 409.141 145.402C409.101 145.363 409.055 145.336 409.001 145.322C408.951 145.304 408.899 145.295 408.845 145.295C408.788 145.295 408.736 145.302 408.689 145.316C408.646 145.331 408.605 145.35 408.566 145.375C408.534 145.401 408.505 145.429 408.48 145.461C408.455 145.49 408.433 145.524 408.416 145.563C408.416 145.571 408.416 145.587 408.416 145.612C408.416 145.637 408.416 145.671 408.416 145.714V150H407.1V145.843C407.1 145.732 407.089 145.64 407.067 145.569C407.046 145.497 407.017 145.442 406.981 145.402C406.942 145.363 406.897 145.336 406.847 145.322C406.797 145.304 406.743 145.295 406.686 145.295C406.622 145.295 406.564 145.306 406.514 145.327C406.464 145.349 406.419 145.379 406.38 145.418C406.351 145.447 406.326 145.481 406.305 145.521C406.283 145.56 406.264 145.603 406.246 145.649V150H404.887V144.188H406.17ZM414.667 150.107C414.22 150.107 413.813 150.034 413.448 149.887C413.083 149.74 412.77 149.54 412.508 149.286C412.247 149.035 412.045 148.74 411.901 148.399C411.762 148.056 411.692 147.689 411.692 147.298V147.083C411.692 146.639 411.762 146.235 411.901 145.87C412.041 145.501 412.236 145.184 412.487 144.919C412.737 144.654 413.035 144.448 413.378 144.301C413.722 144.154 414.096 144.081 414.501 144.081C414.92 144.081 415.292 144.151 415.618 144.291C415.948 144.427 416.227 144.62 416.456 144.871C416.682 145.121 416.854 145.424 416.972 145.778C417.09 146.129 417.149 146.518 417.149 146.944V147.578H413.207V147.594C413.257 147.826 413.321 148.014 413.4 148.158C413.479 148.297 413.584 148.424 413.717 148.539C413.853 148.657 414.009 148.749 414.184 148.813C414.36 148.877 414.551 148.91 414.759 148.91C415.052 148.91 415.337 148.854 415.613 148.743C415.889 148.632 416.112 148.466 416.284 148.244L417.031 149.049C416.841 149.318 416.54 149.561 416.128 149.78C415.717 149.998 415.23 150.107 414.667 150.107ZM414.49 145.29C414.322 145.29 414.168 145.32 414.028 145.381C413.889 145.438 413.767 145.522 413.663 145.633C413.556 145.744 413.466 145.877 413.395 146.031C413.323 146.185 413.269 146.357 413.233 146.546H415.683V146.428C415.683 146.271 415.654 146.122 415.597 145.982C415.539 145.843 415.461 145.721 415.36 145.617C415.26 145.517 415.137 145.438 414.99 145.381C414.847 145.32 414.68 145.29 414.49 145.29ZM418.454 150V144.188H419.808L419.899 144.994C419.974 144.887 420.056 144.788 420.146 144.699C420.236 144.609 420.33 144.529 420.431 144.457C420.603 144.335 420.791 144.242 420.995 144.178C421.199 144.113 421.415 144.081 421.645 144.081C421.938 144.081 422.207 144.124 422.45 144.21C422.694 144.296 422.905 144.432 423.084 144.618C423.259 144.808 423.396 145.051 423.492 145.349C423.592 145.642 423.643 146 423.643 146.423V150H422.149V146.444C422.149 146.215 422.123 146.027 422.069 145.88C422.019 145.73 421.945 145.612 421.849 145.526C421.752 145.44 421.636 145.381 421.5 145.349C421.363 145.313 421.209 145.295 421.038 145.295C420.894 145.295 420.762 145.311 420.64 145.343C420.522 145.375 420.416 145.424 420.323 145.488C420.248 145.535 420.18 145.59 420.119 145.655C420.058 145.719 420.003 145.791 419.953 145.87V150H418.454ZM427.8 142.765V144.188H429.97V145.29H427.8V147.787C427.8 147.998 427.823 148.176 427.87 148.319C427.92 148.458 427.99 148.569 428.079 148.652C428.169 148.738 428.276 148.799 428.401 148.834C428.53 148.87 428.674 148.888 428.831 148.888C428.946 148.888 429.062 148.883 429.18 148.872C429.302 148.861 429.418 148.847 429.529 148.829C429.637 148.815 429.737 148.799 429.83 148.781C429.927 148.763 430.009 148.745 430.077 148.727L430.222 149.753C430.118 149.814 429.997 149.868 429.857 149.914C429.717 149.957 429.569 149.993 429.411 150.021C429.254 150.05 429.089 150.072 428.917 150.086C428.749 150.104 428.582 150.113 428.417 150.113C428.099 150.113 427.809 150.072 427.547 149.989C427.29 149.903 427.069 149.771 426.887 149.592C426.701 149.416 426.557 149.193 426.457 148.92C426.357 148.645 426.307 148.315 426.307 147.932V145.29H424.98V144.188H426.307V142.765H427.8ZM442.022 148.405C442.022 148.315 442.001 148.236 441.958 148.168C441.919 148.1 441.847 148.036 441.743 147.975C441.636 147.918 441.494 147.864 441.319 147.814C441.143 147.764 440.921 147.714 440.653 147.664C440.313 147.596 440.001 147.511 439.718 147.411C439.439 147.307 439.199 147.182 438.999 147.035C438.798 146.892 438.64 146.725 438.526 146.536C438.415 146.346 438.359 146.127 438.359 145.88C438.359 145.64 438.417 145.411 438.531 145.193C438.646 144.974 438.811 144.783 439.025 144.618C439.24 144.453 439.502 144.323 439.81 144.226C440.118 144.129 440.465 144.081 440.852 144.081C441.256 144.081 441.62 144.129 441.942 144.226C442.264 144.319 442.538 144.448 442.764 144.613C442.986 144.781 443.156 144.98 443.274 145.209C443.392 145.438 443.451 145.687 443.451 145.956H441.958C441.958 145.859 441.942 145.769 441.91 145.687C441.877 145.601 441.829 145.524 441.765 145.456C441.675 145.367 441.553 145.295 441.399 145.241C441.249 145.188 441.066 145.161 440.852 145.161C440.669 145.161 440.51 145.179 440.374 145.214C440.237 145.25 440.126 145.3 440.041 145.365C439.962 145.422 439.901 145.49 439.858 145.569C439.819 145.644 439.799 145.725 439.799 145.811C439.799 145.896 439.817 145.977 439.853 146.052C439.888 146.124 439.953 146.188 440.046 146.246C440.135 146.306 440.259 146.362 440.417 146.412C440.574 146.459 440.775 146.5 441.018 146.536C441.369 146.593 441.695 146.666 441.996 146.756C442.296 146.845 442.556 146.96 442.774 147.1C442.993 147.243 443.163 147.417 443.285 147.621C443.41 147.821 443.473 148.061 443.473 148.34C443.473 148.598 443.41 148.836 443.285 149.055C443.163 149.27 442.989 149.456 442.764 149.613C442.535 149.771 442.259 149.894 441.937 149.984C441.614 150.07 441.254 150.113 440.857 150.113C440.42 150.113 440.033 150.056 439.697 149.941C439.364 149.826 439.084 149.676 438.859 149.49C438.633 149.307 438.461 149.099 438.343 148.867C438.229 148.63 438.171 148.394 438.171 148.158H439.595C439.605 148.315 439.648 148.451 439.724 148.566C439.799 148.677 439.896 148.766 440.014 148.834C440.132 148.906 440.266 148.958 440.417 148.99C440.57 149.022 440.728 149.039 440.889 149.039C441.083 149.039 441.251 149.022 441.394 148.99C441.541 148.954 441.661 148.908 441.754 148.851C441.843 148.793 441.91 148.727 441.953 148.652C441.999 148.577 442.022 148.494 442.022 148.405ZM445.191 141.75H448.441V148.786H450.106V150H445.191V148.786H446.932V142.969H445.191V141.75ZM451.282 147.041C451.282 146.618 451.343 146.228 451.465 145.87C451.587 145.508 451.766 145.195 452.002 144.93C452.235 144.665 452.519 144.457 452.856 144.307C453.196 144.156 453.585 144.081 454.021 144.081C454.458 144.081 454.847 144.156 455.187 144.307C455.527 144.457 455.815 144.665 456.052 144.93C456.285 145.195 456.462 145.508 456.583 145.87C456.705 146.228 456.766 146.618 456.766 147.041V147.153C456.766 147.579 456.705 147.973 456.583 148.335C456.462 148.693 456.285 149.005 456.052 149.27C455.819 149.535 455.533 149.742 455.192 149.893C454.852 150.039 454.465 150.113 454.032 150.113C453.595 150.113 453.205 150.039 452.861 149.893C452.521 149.742 452.235 149.535 452.002 149.27C451.766 149.005 451.587 148.693 451.465 148.335C451.343 147.973 451.282 147.579 451.282 147.153V147.041ZM452.775 147.153C452.775 147.397 452.799 147.626 452.845 147.841C452.892 148.052 452.965 148.236 453.065 148.394C453.166 148.555 453.295 148.682 453.452 148.775C453.613 148.868 453.807 148.915 454.032 148.915C454.251 148.915 454.439 148.868 454.596 148.775C454.754 148.682 454.883 148.555 454.983 148.394C455.08 148.236 455.151 148.052 455.198 147.841C455.244 147.626 455.268 147.397 455.268 147.153V147.041C455.268 146.804 455.244 146.58 455.198 146.369C455.151 146.158 455.08 145.972 454.983 145.811C454.883 145.649 454.754 145.522 454.596 145.429C454.439 145.336 454.247 145.29 454.021 145.29C453.799 145.29 453.61 145.336 453.452 145.429C453.295 145.522 453.166 145.649 453.065 145.811C452.965 145.972 452.892 146.158 452.845 146.369C452.799 146.58 452.775 146.804 452.775 147.041V147.153ZM460.832 142.765V144.188H463.002V145.29H460.832V147.787C460.832 147.998 460.855 148.176 460.902 148.319C460.952 148.458 461.022 148.569 461.111 148.652C461.201 148.738 461.308 148.799 461.434 148.834C461.562 148.87 461.706 148.888 461.863 148.888C461.978 148.888 462.094 148.883 462.212 148.872C462.334 148.861 462.451 148.847 462.562 148.829C462.669 148.815 462.769 148.799 462.862 148.781C462.959 148.763 463.041 148.745 463.109 148.727L463.254 149.753C463.151 149.814 463.029 149.868 462.889 149.914C462.75 149.957 462.601 149.993 462.443 150.021C462.286 150.05 462.121 150.072 461.949 150.086C461.781 150.104 461.614 150.113 461.45 150.113C461.131 150.113 460.841 150.072 460.58 149.989C460.322 149.903 460.102 149.771 459.919 149.592C459.733 149.416 459.59 149.193 459.489 148.92C459.389 148.645 459.339 148.315 459.339 147.932V145.29H458.012V144.188H459.339V142.765H460.832Z" fill="white"/>
</g>
</g>
<path d="M421 156V174" stroke="#8194A2" stroke-linejoin="round"/>
<circle cx="421" cy="176" r="2" fill="#8194A2"/>
<defs>
<filter id="filter0_b_8619_34332" x="135.5" y="-218" width="598" height="520" filterUnits="userSpaceOnUse" color-interpolation-filters="sRGB">
<feFlood flood-opacity="0" result="BackgroundImageFix"/>
<feGaussianBlur in="BackgroundImageFix" stdDeviation="125"/>
<feComposite in2="SourceAlpha" operator="in" result="effect1_backgroundBlur_8619_34332"/>
<feBlend mode="normal" in="SourceGraphic" in2="effect1_backgroundBlur_8619_34332" result="shape"/>
</filter>
<filter id="filter1_b_8619_34332" x="122" y="-114" width="598" height="520" filterUnits="userSpaceOnUse" color-interpolation-filters="sRGB">
<feFlood flood-opacity="0" result="BackgroundImageFix"/>
<feGaussianBlur in="BackgroundImageFix" stdDeviation="125"/>
<feComposite in2="SourceAlpha" operator="in" result="effect1_backgroundBlur_8619_34332"/>
<feBlend mode="normal" in="SourceGraphic" in2="effect1_backgroundBlur_8619_34332" result="shape"/>
</filter>
<clipPath id="clip0_8619_34332">
<rect x="385.5" y="32" width="98" height="20.0001" rx="4" fill="white"/>
</clipPath>
<clipPath id="clip1_8619_34332">
<rect x="372" y="136" width="98" height="20.0001" rx="4" fill="white"/>
</clipPath>
</defs>
</svg>
