<svg width="560" height="176" viewBox="0 0 560 176" fill="none" xmlns="http://www.w3.org/2000/svg">
<rect width="560" height="176" fill="#87CEFF" fill-opacity="0.16"/>
<rect x="173.5" y="24.5" width="213" height="39" rx="7.5" fill="#E5F2FF"/>
<rect x="173.5" y="24.5" width="213" height="39" rx="7.5" stroke="#87CEFF"/>
<path d="M192.561 45.377C192.561 45.7188 192.535 46.0446 192.485 46.3545C192.435 46.6644 192.362 46.9515 192.267 47.2158C192.157 47.5303 192.011 47.8151 191.829 48.0703C191.647 48.3255 191.428 48.5374 191.173 48.7061C190.968 48.8428 190.738 48.9476 190.482 49.0205C190.232 49.098 189.958 49.1367 189.662 49.1367C189.361 49.1367 189.088 49.1003 188.842 49.0273C188.596 48.9544 188.375 48.8473 188.179 48.7061C188.078 48.6331 187.983 48.5557 187.892 48.4736C187.805 48.387 187.721 48.2936 187.639 48.1934L187.563 49H186.087V38.5H187.721V42.3281C187.816 42.2096 187.921 42.1025 188.035 42.0068C188.149 41.9111 188.272 41.8268 188.404 41.7539C188.577 41.6582 188.767 41.5876 188.972 41.542C189.181 41.4919 189.407 41.4668 189.648 41.4668C189.967 41.4668 190.259 41.5101 190.523 41.5967C190.792 41.6787 191.034 41.7972 191.248 41.9521C191.43 42.0798 191.592 42.237 191.733 42.4238C191.879 42.6061 192.007 42.8066 192.116 43.0254C192.262 43.3307 192.371 43.6702 192.444 44.0439C192.522 44.4176 192.561 44.8141 192.561 45.2334V45.377ZM190.927 45.2334C190.927 45.0238 190.913 44.821 190.886 44.625C190.863 44.4245 190.829 44.2376 190.783 44.0645C190.719 43.8548 190.635 43.6657 190.53 43.4971C190.43 43.3239 190.293 43.1781 190.12 43.0596C190.006 42.9775 189.876 42.916 189.73 42.875C189.585 42.834 189.421 42.8135 189.238 42.8135C189.015 42.8135 188.814 42.8454 188.637 42.9092C188.459 42.9684 188.304 43.055 188.172 43.1689C188.076 43.2464 187.99 43.3376 187.912 43.4424C187.839 43.5426 187.775 43.652 187.721 43.7705V46.833C187.785 46.9697 187.86 47.0951 187.946 47.209C188.037 47.3184 188.14 47.4163 188.254 47.5029C188.382 47.5941 188.527 47.667 188.691 47.7217C188.86 47.7718 189.047 47.7969 189.252 47.7969C189.439 47.7969 189.607 47.7741 189.758 47.7285C189.908 47.6784 190.043 47.6123 190.161 47.5303C190.321 47.4163 190.451 47.2728 190.551 47.0996C190.656 46.9219 190.735 46.7236 190.79 46.5049C190.836 46.3408 190.87 46.1631 190.893 45.9717C190.915 45.7803 190.927 45.582 190.927 45.377V45.2334ZM194.167 45.2334C194.167 44.6956 194.244 44.1989 194.399 43.7432C194.554 43.2829 194.78 42.8841 195.076 42.5469C195.368 42.2096 195.726 41.9453 196.149 41.7539C196.573 41.5625 197.056 41.4668 197.599 41.4668C198.141 41.4668 198.624 41.5625 199.048 41.7539C199.476 41.9453 199.839 42.2096 200.135 42.5469C200.426 42.8841 200.65 43.2829 200.805 43.7432C200.96 44.1989 201.037 44.6956 201.037 45.2334V45.377C201.037 45.9193 200.96 46.4183 200.805 46.874C200.65 47.3298 200.426 47.7262 200.135 48.0635C199.843 48.4007 199.483 48.665 199.055 48.8564C198.631 49.0479 198.15 49.1436 197.612 49.1436C197.07 49.1436 196.585 49.0479 196.156 48.8564C195.728 48.665 195.368 48.4007 195.076 48.0635C194.78 47.7262 194.554 47.3298 194.399 46.874C194.244 46.4183 194.167 45.9193 194.167 45.377V45.2334ZM195.801 45.377C195.801 45.7096 195.835 46.0241 195.903 46.3203C195.976 46.6165 196.088 46.8763 196.238 47.0996C196.384 47.3229 196.571 47.5007 196.799 47.6328C197.027 47.7604 197.298 47.8242 197.612 47.8242C197.918 47.8242 198.184 47.7604 198.412 47.6328C198.64 47.5007 198.827 47.3229 198.973 47.0996C199.118 46.8763 199.226 46.6165 199.294 46.3203C199.367 46.0241 199.403 45.7096 199.403 45.377V45.2334C199.403 44.9098 199.367 44.5999 199.294 44.3037C199.221 44.0075 199.114 43.7477 198.973 43.5244C198.822 43.3011 198.633 43.1234 198.405 42.9912C198.182 42.859 197.913 42.793 197.599 42.793C197.289 42.793 197.02 42.859 196.792 42.9912C196.569 43.1234 196.384 43.3011 196.238 43.5244C196.088 43.7477 195.976 44.0075 195.903 44.3037C195.835 44.5999 195.801 44.9098 195.801 45.2334V45.377ZM207.989 41.4668C208.254 41.4668 208.509 41.485 208.755 41.5215C209.006 41.5579 209.201 41.6012 209.343 41.6514L209.11 43.2646C208.86 43.21 208.611 43.1689 208.365 43.1416C208.124 43.1143 207.882 43.1006 207.641 43.1006C207.367 43.1006 207.121 43.1279 206.902 43.1826C206.684 43.2373 206.49 43.3216 206.321 43.4355C206.139 43.5449 205.984 43.6839 205.856 43.8525C205.729 44.0212 205.622 44.2148 205.535 44.4336V49H203.901V41.6035H205.433L205.501 42.6289L205.508 42.7998C205.809 42.3851 206.169 42.0592 206.588 41.8223C207.012 41.5853 207.479 41.4668 207.989 41.4668ZM211.065 45.2471C211.065 44.6865 211.132 44.1761 211.264 43.7158C211.4 43.251 211.596 42.8522 211.852 42.5195C212.102 42.1868 212.408 41.9294 212.768 41.7471C213.132 41.5602 213.542 41.4668 213.998 41.4668C214.408 41.4668 214.766 41.5397 215.071 41.6855C215.381 41.8268 215.655 42.0296 215.892 42.2939V38.5H217.525V49H216.042L215.967 48.2275C215.73 48.5192 215.447 48.7448 215.119 48.9043C214.791 49.0592 214.413 49.1367 213.984 49.1367C213.533 49.1367 213.128 49.0433 212.768 48.8564C212.408 48.665 212.102 48.4007 211.852 48.0635C211.601 47.7308 211.407 47.3366 211.271 46.8809C211.134 46.4206 211.065 45.9238 211.065 45.3906V45.2471ZM212.699 45.3906C212.699 45.7188 212.731 46.0286 212.795 46.3203C212.859 46.612 212.959 46.8649 213.096 47.0791C213.232 47.3024 213.408 47.4779 213.622 47.6055C213.836 47.7285 214.094 47.79 214.395 47.79C214.764 47.79 215.069 47.7103 215.311 47.5508C215.552 47.3867 215.746 47.1657 215.892 46.8877V43.709C215.746 43.4355 215.552 43.2191 215.311 43.0596C215.074 42.8955 214.773 42.8135 214.408 42.8135C214.103 42.8135 213.841 42.8773 213.622 43.0049C213.408 43.1325 213.235 43.3079 213.103 43.5312C212.961 43.7546 212.859 44.0143 212.795 44.3105C212.731 44.6022 212.699 44.9144 212.699 45.2471V45.3906ZM223.145 49.1367C222.598 49.1367 222.096 49.0456 221.641 48.8633C221.189 48.681 220.802 48.4281 220.479 48.1045C220.155 47.7855 219.904 47.4095 219.727 46.9766C219.553 46.5391 219.467 46.0674 219.467 45.5615V45.2812C219.467 44.7025 219.558 44.1784 219.74 43.709C219.923 43.2396 220.173 42.8385 220.492 42.5059C220.811 42.1732 221.18 41.918 221.6 41.7402C222.023 41.5579 222.475 41.4668 222.953 41.4668C223.486 41.4668 223.958 41.5579 224.368 41.7402C224.778 41.918 225.122 42.1663 225.4 42.4854C225.678 42.8089 225.888 43.194 226.029 43.6406C226.171 44.0872 226.241 44.5749 226.241 45.1035V45.8076H221.114V45.8418C221.164 46.1654 221.242 46.4365 221.347 46.6553C221.451 46.874 221.595 47.07 221.777 47.2432C221.96 47.4255 222.174 47.5667 222.42 47.667C222.671 47.7673 222.944 47.8174 223.24 47.8174C223.646 47.8174 224.024 47.7399 224.375 47.585C224.726 47.4255 225.015 47.1999 225.243 46.9082L226.118 47.7559C225.872 48.1113 225.494 48.4303 224.983 48.7129C224.478 48.9954 223.865 49.1367 223.145 49.1367ZM222.946 42.793C222.714 42.793 222.497 42.8363 222.297 42.9229C222.101 43.0049 221.925 43.1234 221.771 43.2783C221.616 43.4378 221.486 43.6292 221.381 43.8525C221.276 44.0758 221.199 44.3288 221.148 44.6113H224.628V44.502C224.628 44.2878 224.589 44.0758 224.512 43.8662C224.434 43.652 224.325 43.4652 224.184 43.3057C224.047 43.1507 223.874 43.0277 223.664 42.9365C223.459 42.8408 223.22 42.793 222.946 42.793ZM233.214 41.4668C233.478 41.4668 233.733 41.485 233.979 41.5215C234.23 41.5579 234.426 41.6012 234.567 41.6514L234.335 43.2646C234.084 43.21 233.836 43.1689 233.59 43.1416C233.348 43.1143 233.107 43.1006 232.865 43.1006C232.592 43.1006 232.346 43.1279 232.127 43.1826C231.908 43.2373 231.715 43.3216 231.546 43.4355C231.364 43.5449 231.209 43.6839 231.081 43.8525C230.953 44.0212 230.846 44.2148 230.76 44.4336V49H229.126V41.6035H230.657L230.726 42.6289L230.732 42.7998C231.033 42.3851 231.393 42.0592 231.812 41.8223C232.236 41.5853 232.703 41.4668 233.214 41.4668ZM242.695 45.2881H237.192V43.9619H242.695V45.2881ZM249.75 46.9971C249.75 46.8695 249.72 46.7555 249.661 46.6553C249.606 46.555 249.513 46.4593 249.381 46.3682C249.24 46.2861 249.055 46.2087 248.827 46.1357C248.599 46.0628 248.314 45.9945 247.973 45.9307C247.544 45.8441 247.152 45.737 246.797 45.6094C246.446 45.4818 246.143 45.3268 245.888 45.1445C245.637 44.9714 245.441 44.7663 245.3 44.5293C245.159 44.2923 245.088 44.0166 245.088 43.7021C245.088 43.4014 245.159 43.1165 245.3 42.8477C245.446 42.5742 245.653 42.335 245.922 42.1299C246.186 41.9248 246.505 41.763 246.879 41.6445C247.257 41.526 247.676 41.4668 248.137 41.4668C248.629 41.4668 249.071 41.5283 249.463 41.6514C249.855 41.7699 250.188 41.9339 250.461 42.1436C250.73 42.3532 250.937 42.6016 251.083 42.8887C251.229 43.1758 251.302 43.4857 251.302 43.8184H249.668C249.668 43.6816 249.638 43.5518 249.579 43.4287C249.524 43.3011 249.442 43.1872 249.333 43.0869C249.205 42.9684 249.041 42.875 248.841 42.8066C248.64 42.7337 248.406 42.6973 248.137 42.6973C247.891 42.6973 247.674 42.7246 247.487 42.7793C247.305 42.8294 247.155 42.9001 247.036 42.9912C246.918 43.0732 246.829 43.1712 246.77 43.2852C246.71 43.3945 246.681 43.5107 246.681 43.6338C246.681 43.7614 246.706 43.8776 246.756 43.9824C246.806 44.0827 246.895 44.1715 247.022 44.249C247.141 44.3311 247.305 44.4062 247.515 44.4746C247.729 44.543 247.998 44.6045 248.321 44.6592C248.772 44.7412 249.185 44.8415 249.559 44.96C249.932 45.0785 250.251 45.2243 250.516 45.3975C250.78 45.5798 250.985 45.7939 251.131 46.04C251.277 46.2861 251.35 46.5778 251.35 46.915C251.35 47.2432 251.272 47.5439 251.117 47.8174C250.967 48.0908 250.753 48.3255 250.475 48.5215C250.192 48.7174 249.855 48.8701 249.463 48.9795C249.071 49.0889 248.636 49.1436 248.157 49.1436C247.624 49.1436 247.15 49.0729 246.735 48.9316C246.325 48.7904 245.981 48.6035 245.703 48.3711C245.421 48.1432 245.206 47.8812 245.061 47.585C244.915 47.2887 244.842 46.988 244.842 46.6826H246.428C246.441 46.9105 246.501 47.1042 246.605 47.2637C246.715 47.4186 246.852 47.5439 247.016 47.6396C247.175 47.7399 247.357 47.8128 247.562 47.8584C247.768 47.8994 247.975 47.9199 248.185 47.9199C248.467 47.9199 248.713 47.8903 248.923 47.8311C249.137 47.7718 249.308 47.6921 249.436 47.5918C249.54 47.5098 249.618 47.4209 249.668 47.3252C249.723 47.2249 249.75 47.1156 249.75 46.9971ZM256.606 39.7988V41.6035H259.389V42.8271H256.606V46.3613C256.606 46.6348 256.638 46.8649 256.702 47.0518C256.771 47.234 256.864 47.3776 256.982 47.4824C257.101 47.5918 257.242 47.6693 257.406 47.7148C257.57 47.7604 257.75 47.7832 257.946 47.7832C258.088 47.7832 258.233 47.7764 258.384 47.7627C258.534 47.749 258.68 47.7308 258.821 47.708C258.958 47.6898 259.086 47.6693 259.204 47.6465C259.327 47.6191 259.43 47.5964 259.512 47.5781L259.689 48.7061C259.571 48.779 259.427 48.8428 259.259 48.8975C259.095 48.9476 258.917 48.9909 258.726 49.0273C258.534 49.0638 258.334 49.0911 258.124 49.1094C257.919 49.1322 257.714 49.1436 257.509 49.1436C257.135 49.1436 256.791 49.0934 256.477 48.9932C256.167 48.8883 255.9 48.7266 255.677 48.5078C255.453 48.2936 255.278 48.0179 255.15 47.6807C255.027 47.3434 254.966 46.9378 254.966 46.4639V42.8271H253.175V41.6035H254.966V39.7988H256.606ZM262.663 51.9873C262.504 51.9873 262.351 51.9736 262.205 51.9463C262.064 51.9235 261.927 51.8962 261.795 51.8643L262.021 50.5859C262.112 50.5905 262.214 50.5951 262.328 50.5996C262.447 50.6087 262.542 50.6133 262.615 50.6133C262.775 50.6133 262.918 50.5654 263.046 50.4697C263.174 50.3786 263.285 50.2738 263.381 50.1553C263.472 50.0368 263.545 49.932 263.6 49.8408C263.659 49.7497 263.714 49.654 263.764 49.5537L264.229 48.6719L261.077 41.6035H262.875L264.714 46.1221L264.967 46.9355L265.274 46.1426L267.059 41.6035H268.87L265.117 50.1211C265.031 50.3125 264.921 50.5153 264.789 50.7295C264.661 50.9482 264.5 51.1488 264.304 51.3311C264.108 51.5179 263.875 51.6729 263.606 51.7959C263.338 51.9235 263.023 51.9873 262.663 51.9873ZM270.456 38.5H274.441V47.6465H276.684V49H270.456V47.6465H272.794V39.8604H270.456V38.5ZM282.002 49.1367C281.455 49.1367 280.954 49.0456 280.498 48.8633C280.047 48.681 279.66 48.4281 279.336 48.1045C279.012 47.7855 278.762 47.4095 278.584 46.9766C278.411 46.5391 278.324 46.0674 278.324 45.5615V45.2812C278.324 44.7025 278.415 44.1784 278.598 43.709C278.78 43.2396 279.031 42.8385 279.35 42.5059C279.669 42.1732 280.038 41.918 280.457 41.7402C280.881 41.5579 281.332 41.4668 281.811 41.4668C282.344 41.4668 282.815 41.5579 283.226 41.7402C283.636 41.918 283.98 42.1663 284.258 42.4854C284.536 42.8089 284.745 43.194 284.887 43.6406C285.028 44.0872 285.099 44.5749 285.099 45.1035V45.8076H279.972V45.8418C280.022 46.1654 280.099 46.4365 280.204 46.6553C280.309 46.874 280.452 47.07 280.635 47.2432C280.817 47.4255 281.031 47.5667 281.277 47.667C281.528 47.7673 281.801 47.8174 282.098 47.8174C282.503 47.8174 282.882 47.7399 283.232 47.585C283.583 47.4255 283.873 47.1999 284.101 46.9082L284.976 47.7559C284.729 48.1113 284.351 48.4303 283.841 48.7129C283.335 48.9954 282.722 49.1367 282.002 49.1367ZM281.804 42.793C281.571 42.793 281.355 42.8363 281.154 42.9229C280.958 43.0049 280.783 43.1234 280.628 43.2783C280.473 43.4378 280.343 43.6292 280.238 43.8525C280.133 44.0758 280.056 44.3288 280.006 44.6113H283.485V44.502C283.485 44.2878 283.447 44.0758 283.369 43.8662C283.292 43.652 283.182 43.4652 283.041 43.3057C282.904 43.1507 282.731 43.0277 282.521 42.9365C282.316 42.8408 282.077 42.793 281.804 42.793ZM289.193 48.0156C289.193 47.7012 289.294 47.4323 289.494 47.209C289.699 46.9857 289.993 46.874 290.376 46.874C290.75 46.874 291.041 46.9857 291.251 47.209C291.461 47.4277 291.565 47.6966 291.565 48.0156C291.565 48.3346 291.458 48.6012 291.244 48.8154C291.035 49.0296 290.745 49.1367 290.376 49.1367C290.002 49.1367 289.711 49.0296 289.501 48.8154C289.296 48.5967 289.193 48.3301 289.193 48.0156ZM289.193 42.2256C289.193 41.9111 289.294 41.6423 289.494 41.4189C289.699 41.1956 289.993 41.084 290.376 41.084C290.75 41.084 291.041 41.1956 291.251 41.4189C291.461 41.6377 291.565 41.9066 291.565 42.2256C291.565 42.5446 291.458 42.8112 291.244 43.0254C291.035 43.2396 290.745 43.3467 290.376 43.3467C290.002 43.3467 289.711 43.2396 289.501 43.0254C289.296 42.8066 289.193 42.54 289.193 42.2256Z" fill="#001E2E"/>
<rect x="303.5" y="32.5" width="54" height="23" rx="5.5" fill="#FFEBF7"/>
<rect x="303.5" y="32.5" width="54" height="23" rx="5.5" stroke="#FFADF3"/>
<path d="M314.893 46.9971C314.893 46.8695 314.863 46.7555 314.804 46.6553C314.749 46.555 314.656 46.4593 314.523 46.3682C314.382 46.2861 314.198 46.2087 313.97 46.1357C313.742 46.0628 313.457 45.9945 313.115 45.9307C312.687 45.8441 312.295 45.737 311.939 45.6094C311.589 45.4818 311.285 45.3268 311.03 45.1445C310.78 44.9714 310.584 44.7663 310.442 44.5293C310.301 44.2923 310.23 44.0166 310.23 43.7021C310.23 43.4014 310.301 43.1165 310.442 42.8477C310.588 42.5742 310.796 42.335 311.064 42.1299C311.329 41.9248 311.648 41.763 312.021 41.6445C312.4 41.526 312.819 41.4668 313.279 41.4668C313.771 41.4668 314.214 41.5283 314.605 41.6514C314.997 41.7699 315.33 41.9339 315.604 42.1436C315.872 42.3532 316.08 42.6016 316.226 42.8887C316.371 43.1758 316.444 43.4857 316.444 43.8184H314.811C314.811 43.6816 314.781 43.5518 314.722 43.4287C314.667 43.3011 314.585 43.1872 314.476 43.0869C314.348 42.9684 314.184 42.875 313.983 42.8066C313.783 42.7337 313.548 42.6973 313.279 42.6973C313.033 42.6973 312.817 42.7246 312.63 42.7793C312.448 42.8294 312.297 42.9001 312.179 42.9912C312.06 43.0732 311.971 43.1712 311.912 43.2852C311.853 43.3945 311.823 43.5107 311.823 43.6338C311.823 43.7614 311.848 43.8776 311.898 43.9824C311.949 44.0827 312.037 44.1715 312.165 44.249C312.284 44.3311 312.448 44.4062 312.657 44.4746C312.871 44.543 313.14 44.6045 313.464 44.6592C313.915 44.7412 314.327 44.8415 314.701 44.96C315.075 45.0785 315.394 45.2243 315.658 45.3975C315.923 45.5798 316.128 45.7939 316.273 46.04C316.419 46.2861 316.492 46.5778 316.492 46.915C316.492 47.2432 316.415 47.5439 316.26 47.8174C316.109 48.0908 315.895 48.3255 315.617 48.5215C315.335 48.7174 314.997 48.8701 314.605 48.9795C314.214 49.0889 313.778 49.1436 313.3 49.1436C312.767 49.1436 312.293 49.0729 311.878 48.9316C311.468 48.7904 311.124 48.6035 310.846 48.3711C310.563 48.1432 310.349 47.8812 310.203 47.585C310.057 47.2887 309.984 46.988 309.984 46.6826H311.57C311.584 46.9105 311.643 47.1042 311.748 47.2637C311.857 47.4186 311.994 47.5439 312.158 47.6396C312.318 47.7399 312.5 47.8128 312.705 47.8584C312.91 47.8994 313.118 47.9199 313.327 47.9199C313.61 47.9199 313.856 47.8903 314.065 47.8311C314.28 47.7718 314.451 47.6921 314.578 47.5918C314.683 47.5098 314.76 47.4209 314.811 47.3252C314.865 47.2249 314.893 47.1156 314.893 46.9971ZM318.167 45.2334C318.167 44.6956 318.244 44.1989 318.399 43.7432C318.554 43.2829 318.78 42.8841 319.076 42.5469C319.368 42.2096 319.726 41.9453 320.149 41.7539C320.573 41.5625 321.056 41.4668 321.599 41.4668C322.141 41.4668 322.624 41.5625 323.048 41.7539C323.476 41.9453 323.839 42.2096 324.135 42.5469C324.426 42.8841 324.65 43.2829 324.805 43.7432C324.96 44.1989 325.037 44.6956 325.037 45.2334V45.377C325.037 45.9193 324.96 46.4183 324.805 46.874C324.65 47.3298 324.426 47.7262 324.135 48.0635C323.843 48.4007 323.483 48.665 323.055 48.8564C322.631 49.0479 322.15 49.1436 321.612 49.1436C321.07 49.1436 320.585 49.0479 320.156 48.8564C319.728 48.665 319.368 48.4007 319.076 48.0635C318.78 47.7262 318.554 47.3298 318.399 46.874C318.244 46.4183 318.167 45.9193 318.167 45.377V45.2334ZM319.801 45.377C319.801 45.7096 319.835 46.0241 319.903 46.3203C319.976 46.6165 320.088 46.8763 320.238 47.0996C320.384 47.3229 320.571 47.5007 320.799 47.6328C321.027 47.7604 321.298 47.8242 321.612 47.8242C321.918 47.8242 322.184 47.7604 322.412 47.6328C322.64 47.5007 322.827 47.3229 322.973 47.0996C323.118 46.8763 323.226 46.6165 323.294 46.3203C323.367 46.0241 323.403 45.7096 323.403 45.377V45.2334C323.403 44.9098 323.367 44.5999 323.294 44.3037C323.221 44.0075 323.114 43.7477 322.973 43.5244C322.822 43.3011 322.633 43.1234 322.405 42.9912C322.182 42.859 321.913 42.793 321.599 42.793C321.289 42.793 321.02 42.859 320.792 42.9912C320.569 43.1234 320.384 43.3011 320.238 43.5244C320.088 43.7477 319.976 44.0075 319.903 44.3037C319.835 44.5999 319.801 44.9098 319.801 45.2334V45.377ZM327.19 38.5H331.176V47.6465H333.418V49H327.19V47.6465H329.528V39.8604H327.19V38.5ZM335.66 41.6035H339.584V47.6465H341.758V49H335.66V47.6465H337.937V42.9639H335.66V41.6035ZM337.786 39.6895C337.786 39.5573 337.809 39.4365 337.854 39.3271C337.9 39.2132 337.966 39.1152 338.053 39.0332C338.135 38.9557 338.233 38.8965 338.347 38.8555C338.465 38.8099 338.597 38.7871 338.743 38.7871C338.989 38.7871 339.188 38.8509 339.338 38.9785C339.493 39.1016 339.582 39.2611 339.604 39.457C339.636 39.6576 339.602 39.833 339.502 39.9834C339.402 40.1292 339.256 40.2272 339.064 40.2773C338.969 40.3639 338.855 40.4209 338.723 40.4482C338.59 40.4756 338.445 40.4642 338.285 40.4141C338.121 40.3639 337.996 40.2751 337.909 40.1475C337.827 40.0153 337.786 39.8626 337.786 39.6895ZM343.474 45.2471C343.474 44.6865 343.54 44.1761 343.672 43.7158C343.809 43.251 344.005 42.8522 344.26 42.5195C344.51 42.1868 344.816 41.9294 345.176 41.7471C345.54 41.5602 345.951 41.4668 346.406 41.4668C346.816 41.4668 347.174 41.5397 347.479 41.6855C347.789 41.8268 348.063 42.0296 348.3 42.2939V38.5H349.934V49H348.45L348.375 48.2275C348.138 48.5192 347.855 48.7448 347.527 48.9043C347.199 49.0592 346.821 49.1367 346.393 49.1367C345.941 49.1367 345.536 49.0433 345.176 48.8564C344.816 48.665 344.51 48.4007 344.26 48.0635C344.009 47.7308 343.815 47.3366 343.679 46.8809C343.542 46.4206 343.474 45.9238 343.474 45.3906V45.2471ZM345.107 45.3906C345.107 45.7188 345.139 46.0286 345.203 46.3203C345.267 46.612 345.367 46.8649 345.504 47.0791C345.641 47.3024 345.816 47.4779 346.03 47.6055C346.244 47.7285 346.502 47.79 346.803 47.79C347.172 47.79 347.477 47.7103 347.719 47.5508C347.96 47.3867 348.154 47.1657 348.3 46.8877V43.709C348.154 43.4355 347.96 43.2191 347.719 43.0596C347.482 42.8955 347.181 42.8135 346.816 42.8135C346.511 42.8135 346.249 42.8773 346.03 43.0049C345.816 43.1325 345.643 43.3079 345.511 43.5312C345.369 43.7546 345.267 44.0143 345.203 44.3105C345.139 44.6022 345.107 44.9144 345.107 45.2471V45.3906Z" fill="#380037"/>
<path d="M369.425 42.2256C369.425 41.9111 369.525 41.6423 369.726 41.4189C369.931 41.1956 370.225 41.084 370.607 41.084C370.981 41.084 371.273 41.1956 371.482 41.4189C371.692 41.6377 371.797 41.9066 371.797 42.2256C371.797 42.5446 371.69 42.8112 371.476 43.0254C371.266 43.2396 370.977 43.3467 370.607 43.3467C370.234 43.3467 369.942 43.2396 369.732 43.0254C369.527 42.8066 369.425 42.54 369.425 42.2256ZM371.346 48.7881C371.346 49.2803 371.225 49.7793 370.983 50.2852C370.746 50.7956 370.432 51.2262 370.04 51.5771L369.124 51.0918C369.32 50.7682 369.47 50.4264 369.575 50.0664C369.685 49.7064 369.739 49.3008 369.739 48.8496V47.4072H371.346V48.7881Z" fill="#001E2E"/>
<g filter="url(#filter0_b_7655_3251)">
<g clip-path="url(#clip0_7655_3251)">
<rect x="395" y="34" width="65" height="20.0001" rx="4" fill="#8194A2"/>
<rect width="65" height="20.0001" transform="translate(395 34)" fill="#8194A2"/>
<path d="M406.005 42.0811C406.23 42.0811 406.438 42.0972 406.628 42.1294C406.821 42.158 406.977 42.1903 407.095 42.2261L406.875 43.7139C406.678 43.6673 406.476 43.6333 406.268 43.6118C406.064 43.5868 405.869 43.5742 405.683 43.5742C405.489 43.5742 405.314 43.5921 405.156 43.6279C405.002 43.6602 404.864 43.7103 404.743 43.7783C404.596 43.8571 404.471 43.9574 404.367 44.0791C404.263 44.2008 404.177 44.3441 404.109 44.5088V48H402.616V42.1885H404.007L404.066 43.0103L404.077 43.1392C404.313 42.8097 404.596 42.5519 404.925 42.3657C405.255 42.1759 405.615 42.0811 406.005 42.0811ZM411.258 48.1074C410.81 48.1074 410.404 48.034 410.039 47.8872C409.673 47.7404 409.36 47.5399 409.099 47.2856C408.837 47.035 408.635 46.7396 408.492 46.3994C408.352 46.0557 408.282 45.6886 408.282 45.2983V45.0835C408.282 44.6395 408.352 44.2349 408.492 43.8696C408.631 43.5008 408.826 43.1839 409.077 42.9189C409.328 42.654 409.625 42.4481 409.969 42.3013C410.312 42.1545 410.687 42.0811 411.091 42.0811C411.51 42.0811 411.883 42.1509 412.208 42.2905C412.538 42.4266 412.817 42.62 413.046 42.8706C413.272 43.1213 413.444 43.4238 413.562 43.7783C413.68 44.1292 413.739 44.5177 413.739 44.9438V45.5776H409.797V45.5938C409.847 45.8265 409.911 46.0145 409.99 46.1577C410.069 46.2974 410.175 46.4245 410.307 46.5391C410.443 46.6572 410.599 46.7485 410.774 46.813C410.95 46.8774 411.141 46.9097 411.349 46.9097C411.643 46.9097 411.927 46.8542 412.203 46.7432C412.479 46.6322 412.703 46.4657 412.875 46.2437L413.621 47.0493C413.431 47.3179 413.131 47.5614 412.719 47.7798C412.307 47.9982 411.82 48.1074 411.258 48.1074ZM411.081 43.2896C410.912 43.2896 410.758 43.32 410.619 43.3809C410.479 43.4382 410.357 43.5223 410.253 43.6333C410.146 43.7443 410.056 43.8768 409.985 44.0308C409.913 44.1847 409.86 44.3566 409.824 44.5464H412.273V44.4282C412.273 44.2707 412.244 44.1221 412.187 43.9824C412.13 43.8428 412.051 43.721 411.951 43.6172C411.85 43.5169 411.727 43.4382 411.58 43.3809C411.437 43.32 411.27 43.2896 411.081 43.2896ZM414.894 45.0459C414.894 44.6055 414.944 44.2026 415.044 43.8374C415.145 43.4722 415.293 43.1589 415.49 42.8975C415.684 42.6396 415.922 42.4391 416.205 42.2959C416.491 42.1527 416.819 42.0811 417.188 42.0811C417.381 42.0811 417.558 42.1025 417.719 42.1455C417.884 42.1885 418.034 42.2493 418.17 42.3281C418.267 42.3854 418.358 42.4517 418.444 42.5269C418.53 42.6021 418.611 42.6862 418.686 42.7793L418.777 42.1885H420.093V50.2344H418.595V47.5059C418.52 47.5918 418.437 47.6688 418.348 47.7368C418.258 47.8049 418.165 47.8639 418.068 47.9141C417.943 47.9749 417.805 48.0215 417.655 48.0537C417.508 48.0895 417.349 48.1074 417.177 48.1074C416.812 48.1074 416.487 48.034 416.205 47.8872C415.922 47.7368 415.684 47.5291 415.49 47.2642C415.297 47.0028 415.148 46.693 415.044 46.335C414.944 45.9733 414.894 45.5812 414.894 45.1587V45.0459ZM416.387 45.1587C416.387 45.3986 416.409 45.6242 416.452 45.8354C416.495 46.0467 416.563 46.2311 416.656 46.3887C416.749 46.5498 416.869 46.6769 417.016 46.77C417.166 46.8631 417.347 46.9097 417.558 46.9097C417.687 46.9097 417.803 46.8971 417.907 46.8721C418.015 46.8434 418.111 46.8058 418.197 46.7593C418.283 46.7091 418.358 46.6483 418.423 46.5767C418.487 46.5015 418.545 46.4173 418.595 46.3242V43.8535C418.545 43.764 418.487 43.6852 418.423 43.6172C418.358 43.5456 418.283 43.4847 418.197 43.4346C418.115 43.388 418.02 43.3522 417.913 43.3271C417.809 43.3021 417.694 43.2896 417.569 43.2896C417.358 43.2896 417.177 43.3361 417.026 43.4292C416.88 43.5187 416.76 43.6423 416.667 43.7998C416.57 43.9574 416.498 44.1436 416.452 44.3584C416.409 44.5697 416.387 44.7988 416.387 45.0459V45.1587ZM425.443 48L425.357 47.1836C425.16 47.4736 424.922 47.701 424.643 47.8657C424.367 48.0304 424.064 48.1128 423.735 48.1128C423.434 48.1128 423.158 48.0662 422.908 47.9731C422.657 47.88 422.442 47.7314 422.263 47.5273C422.084 47.3268 421.944 47.0708 421.844 46.7593C421.748 46.4442 421.699 46.0664 421.699 45.626V42.1885H423.192V45.6367C423.192 45.873 423.208 46.0718 423.241 46.2329C423.277 46.394 423.332 46.5229 423.407 46.6196C423.482 46.7199 423.581 46.7915 423.703 46.8345C423.824 46.8774 423.973 46.8989 424.148 46.8989C424.306 46.8989 424.447 46.8828 424.573 46.8506C424.702 46.8184 424.814 46.7718 424.911 46.7109C424.993 46.6572 425.067 46.5928 425.131 46.5176C425.196 46.4424 425.251 46.3582 425.298 46.2651V42.1885H426.796V48H425.443ZM428.655 42.1885H431.818V46.7861H433.392V48H428.655V46.7861H430.309V43.4077H428.655V42.1885ZM430.202 40.7007C430.202 40.5861 430.221 40.4805 430.261 40.3838C430.304 40.2835 430.363 40.1976 430.438 40.126C430.513 40.0579 430.603 40.0042 430.707 39.9648C430.814 39.9255 430.932 39.9058 431.061 39.9058C431.326 39.9058 431.535 39.981 431.689 40.1313C431.847 40.2782 431.926 40.4679 431.926 40.7007C431.926 40.9334 431.847 41.125 431.689 41.2754C431.535 41.4222 431.326 41.4956 431.061 41.4956C430.932 41.4956 430.814 41.4759 430.707 41.4365C430.603 41.3971 430.513 41.3416 430.438 41.27C430.363 41.202 430.304 41.1196 430.261 41.0229C430.221 40.9227 430.202 40.8153 430.202 40.7007ZM439.037 42.0811C439.263 42.0811 439.47 42.0972 439.66 42.1294C439.854 42.158 440.009 42.1903 440.127 42.2261L439.907 43.7139C439.71 43.6673 439.508 43.6333 439.3 43.6118C439.096 43.5868 438.901 43.5742 438.715 43.5742C438.521 43.5742 438.346 43.5921 438.188 43.6279C438.035 43.6602 437.897 43.7103 437.775 43.7783C437.628 43.8571 437.503 43.9574 437.399 44.0791C437.295 44.2008 437.209 44.3441 437.141 44.5088V48H435.648V42.1885H437.039L437.098 43.0103L437.109 43.1392C437.345 42.8097 437.628 42.5519 437.958 42.3657C438.287 42.1759 438.647 42.0811 439.037 42.0811ZM444.29 48.1074C443.842 48.1074 443.436 48.034 443.071 47.8872C442.706 47.7404 442.392 47.5399 442.131 47.2856C441.869 47.035 441.667 46.7396 441.524 46.3994C441.384 46.0557 441.314 45.6886 441.314 45.2983V45.0835C441.314 44.6395 441.384 44.2349 441.524 43.8696C441.664 43.5008 441.859 43.1839 442.109 42.9189C442.36 42.654 442.657 42.4481 443.001 42.3013C443.345 42.1545 443.719 42.0811 444.124 42.0811C444.542 42.0811 444.915 42.1509 445.241 42.2905C445.57 42.4266 445.849 42.62 446.079 42.8706C446.304 43.1213 446.476 43.4238 446.594 43.7783C446.712 44.1292 446.771 44.5177 446.771 44.9438V45.5776H442.829V45.5938C442.879 45.8265 442.944 46.0145 443.022 46.1577C443.101 46.2974 443.207 46.4245 443.339 46.5391C443.475 46.6572 443.631 46.7485 443.807 46.813C443.982 46.8774 444.174 46.9097 444.381 46.9097C444.675 46.9097 444.96 46.8542 445.235 46.7432C445.511 46.6322 445.735 46.4657 445.907 46.2437L446.653 47.0493C446.464 47.3179 446.163 47.5614 445.751 47.7798C445.339 47.9982 444.852 48.1074 444.29 48.1074ZM444.113 43.2896C443.944 43.2896 443.791 43.32 443.651 43.3809C443.511 43.4382 443.389 43.5223 443.286 43.6333C443.178 43.7443 443.089 43.8768 443.017 44.0308C442.945 44.1847 442.892 44.3566 442.856 44.5464H445.305V44.4282C445.305 44.2707 445.277 44.1221 445.219 43.9824C445.162 43.8428 445.083 43.721 444.983 43.6172C444.883 43.5169 444.759 43.4382 444.612 43.3809C444.469 43.32 444.303 43.2896 444.113 43.2896ZM447.921 45.0513C447.921 44.6108 447.971 44.208 448.071 43.8428C448.175 43.4775 448.326 43.1642 448.522 42.9028C448.719 42.6414 448.958 42.4391 449.237 42.2959C449.52 42.1527 449.842 42.0811 450.204 42.0811C450.508 42.0811 450.775 42.1366 451.004 42.2476C451.237 42.355 451.443 42.509 451.622 42.7095V39.75H453.12V48H451.772L451.697 47.3931C451.514 47.6187 451.299 47.7941 451.052 47.9194C450.805 48.0448 450.519 48.1074 450.193 48.1074C449.838 48.1074 449.52 48.034 449.237 47.8872C448.958 47.7368 448.721 47.5309 448.528 47.2695C448.331 47.0081 448.181 46.6984 448.077 46.3403C447.973 45.9787 447.921 45.5866 447.921 45.1641V45.0513ZM449.414 45.1641C449.414 45.4076 449.434 45.6349 449.473 45.8462C449.516 46.0539 449.584 46.2347 449.677 46.3887C449.77 46.5462 449.89 46.6698 450.037 46.7593C450.184 46.8488 450.363 46.8936 450.574 46.8936C450.832 46.8936 451.045 46.8381 451.213 46.7271C451.385 46.616 451.521 46.4639 451.622 46.2705V43.918C451.521 43.721 451.387 43.5688 451.219 43.4614C451.05 43.3504 450.839 43.2949 450.585 43.2949C450.374 43.2949 450.193 43.3415 450.042 43.4346C449.896 43.5241 449.776 43.6476 449.683 43.8052C449.59 43.9663 449.521 44.1543 449.479 44.3691C449.436 44.5804 449.414 44.8078 449.414 45.0513V45.1641Z" fill="white"/>
</g>
</g>
<rect x="182" y="68.5" width="196" height="39" rx="7.5" fill="#E5F2FF"/>
<rect x="182" y="68.5" width="196" height="39" rx="7.5" stroke="#87CEFF"/>
<path d="M201.061 89.377C201.061 89.7188 201.035 90.0446 200.985 90.3545C200.935 90.6644 200.862 90.9515 200.767 91.2158C200.657 91.5303 200.511 91.8151 200.329 92.0703C200.147 92.3255 199.928 92.5374 199.673 92.7061C199.468 92.8428 199.238 92.9476 198.982 93.0205C198.732 93.098 198.458 93.1367 198.162 93.1367C197.861 93.1367 197.588 93.1003 197.342 93.0273C197.096 92.9544 196.875 92.8473 196.679 92.7061C196.578 92.6331 196.483 92.5557 196.392 92.4736C196.305 92.387 196.221 92.2936 196.139 92.1934L196.063 93H194.587V82.5H196.221V86.3281C196.316 86.2096 196.421 86.1025 196.535 86.0068C196.649 85.9111 196.772 85.8268 196.904 85.7539C197.077 85.6582 197.267 85.5876 197.472 85.542C197.681 85.4919 197.907 85.4668 198.148 85.4668C198.467 85.4668 198.759 85.5101 199.023 85.5967C199.292 85.6787 199.534 85.7972 199.748 85.9521C199.93 86.0798 200.092 86.237 200.233 86.4238C200.379 86.6061 200.507 86.8066 200.616 87.0254C200.762 87.3307 200.871 87.6702 200.944 88.0439C201.022 88.4176 201.061 88.8141 201.061 89.2334V89.377ZM199.427 89.2334C199.427 89.0238 199.413 88.821 199.386 88.625C199.363 88.4245 199.329 88.2376 199.283 88.0645C199.219 87.8548 199.135 87.6657 199.03 87.4971C198.93 87.3239 198.793 87.1781 198.62 87.0596C198.506 86.9775 198.376 86.916 198.23 86.875C198.085 86.834 197.921 86.8135 197.738 86.8135C197.515 86.8135 197.314 86.8454 197.137 86.9092C196.959 86.9684 196.804 87.055 196.672 87.1689C196.576 87.2464 196.49 87.3376 196.412 87.4424C196.339 87.5426 196.275 87.652 196.221 87.7705V90.833C196.285 90.9697 196.36 91.0951 196.446 91.209C196.537 91.3184 196.64 91.4163 196.754 91.5029C196.882 91.5941 197.027 91.667 197.191 91.7217C197.36 91.7718 197.547 91.7969 197.752 91.7969C197.939 91.7969 198.107 91.7741 198.258 91.7285C198.408 91.6784 198.543 91.6123 198.661 91.5303C198.821 91.4163 198.951 91.2728 199.051 91.0996C199.156 90.9219 199.235 90.7236 199.29 90.5049C199.336 90.3408 199.37 90.1631 199.393 89.9717C199.415 89.7803 199.427 89.582 199.427 89.377V89.2334ZM202.667 89.2334C202.667 88.6956 202.744 88.1989 202.899 87.7432C203.054 87.2829 203.28 86.8841 203.576 86.5469C203.868 86.2096 204.226 85.9453 204.649 85.7539C205.073 85.5625 205.556 85.4668 206.099 85.4668C206.641 85.4668 207.124 85.5625 207.548 85.7539C207.976 85.9453 208.339 86.2096 208.635 86.5469C208.926 86.8841 209.15 87.2829 209.305 87.7432C209.46 88.1989 209.537 88.6956 209.537 89.2334V89.377C209.537 89.9193 209.46 90.4183 209.305 90.874C209.15 91.3298 208.926 91.7262 208.635 92.0635C208.343 92.4007 207.983 92.665 207.555 92.8564C207.131 93.0479 206.65 93.1436 206.112 93.1436C205.57 93.1436 205.085 93.0479 204.656 92.8564C204.228 92.665 203.868 92.4007 203.576 92.0635C203.28 91.7262 203.054 91.3298 202.899 90.874C202.744 90.4183 202.667 89.9193 202.667 89.377V89.2334ZM204.301 89.377C204.301 89.7096 204.335 90.0241 204.403 90.3203C204.476 90.6165 204.588 90.8763 204.738 91.0996C204.884 91.3229 205.071 91.5007 205.299 91.6328C205.527 91.7604 205.798 91.8242 206.112 91.8242C206.418 91.8242 206.684 91.7604 206.912 91.6328C207.14 91.5007 207.327 91.3229 207.473 91.0996C207.618 90.8763 207.726 90.6165 207.794 90.3203C207.867 90.0241 207.903 89.7096 207.903 89.377V89.2334C207.903 88.9098 207.867 88.5999 207.794 88.3037C207.721 88.0075 207.614 87.7477 207.473 87.5244C207.322 87.3011 207.133 87.1234 206.905 86.9912C206.682 86.859 206.413 86.793 206.099 86.793C205.789 86.793 205.52 86.859 205.292 86.9912C205.069 87.1234 204.884 87.3011 204.738 87.5244C204.588 87.7477 204.476 88.0075 204.403 88.3037C204.335 88.5999 204.301 88.9098 204.301 89.2334V89.377ZM216.489 85.4668C216.754 85.4668 217.009 85.485 217.255 85.5215C217.506 85.5579 217.701 85.6012 217.843 85.6514L217.61 87.2646C217.36 87.21 217.111 87.1689 216.865 87.1416C216.624 87.1143 216.382 87.1006 216.141 87.1006C215.867 87.1006 215.621 87.1279 215.402 87.1826C215.184 87.2373 214.99 87.3216 214.821 87.4355C214.639 87.5449 214.484 87.6839 214.356 87.8525C214.229 88.0212 214.122 88.2148 214.035 88.4336V93H212.401V85.6035H213.933L214.001 86.6289L214.008 86.7998C214.309 86.3851 214.669 86.0592 215.088 85.8223C215.512 85.5853 215.979 85.4668 216.489 85.4668ZM219.565 89.2471C219.565 88.6865 219.632 88.1761 219.764 87.7158C219.9 87.251 220.096 86.8522 220.352 86.5195C220.602 86.1868 220.908 85.9294 221.268 85.7471C221.632 85.5602 222.042 85.4668 222.498 85.4668C222.908 85.4668 223.266 85.5397 223.571 85.6855C223.881 85.8268 224.155 86.0296 224.392 86.2939V82.5H226.025V93H224.542L224.467 92.2275C224.23 92.5192 223.947 92.7448 223.619 92.9043C223.291 93.0592 222.913 93.1367 222.484 93.1367C222.033 93.1367 221.628 93.0433 221.268 92.8564C220.908 92.665 220.602 92.4007 220.352 92.0635C220.101 91.7308 219.907 91.3366 219.771 90.8809C219.634 90.4206 219.565 89.9238 219.565 89.3906V89.2471ZM221.199 89.3906C221.199 89.7188 221.231 90.0286 221.295 90.3203C221.359 90.612 221.459 90.8649 221.596 91.0791C221.732 91.3024 221.908 91.4779 222.122 91.6055C222.336 91.7285 222.594 91.79 222.895 91.79C223.264 91.79 223.569 91.7103 223.811 91.5508C224.052 91.3867 224.246 91.1657 224.392 90.8877V87.709C224.246 87.4355 224.052 87.2191 223.811 87.0596C223.574 86.8955 223.273 86.8135 222.908 86.8135C222.603 86.8135 222.341 86.8773 222.122 87.0049C221.908 87.1325 221.735 87.3079 221.603 87.5312C221.461 87.7546 221.359 88.0143 221.295 88.3105C221.231 88.6022 221.199 88.9144 221.199 89.2471V89.3906ZM231.645 93.1367C231.098 93.1367 230.596 93.0456 230.141 92.8633C229.689 92.681 229.302 92.4281 228.979 92.1045C228.655 91.7855 228.404 91.4095 228.227 90.9766C228.053 90.5391 227.967 90.0674 227.967 89.5615V89.2812C227.967 88.7025 228.058 88.1784 228.24 87.709C228.423 87.2396 228.673 86.8385 228.992 86.5059C229.311 86.1732 229.68 85.918 230.1 85.7402C230.523 85.5579 230.975 85.4668 231.453 85.4668C231.986 85.4668 232.458 85.5579 232.868 85.7402C233.278 85.918 233.622 86.1663 233.9 86.4854C234.178 86.8089 234.388 87.194 234.529 87.6406C234.671 88.0872 234.741 88.5749 234.741 89.1035V89.8076H229.614V89.8418C229.664 90.1654 229.742 90.4365 229.847 90.6553C229.951 90.874 230.095 91.07 230.277 91.2432C230.46 91.4255 230.674 91.5667 230.92 91.667C231.171 91.7673 231.444 91.8174 231.74 91.8174C232.146 91.8174 232.524 91.7399 232.875 91.585C233.226 91.4255 233.515 91.1999 233.743 90.9082L234.618 91.7559C234.372 92.1113 233.994 92.4303 233.483 92.7129C232.978 92.9954 232.365 93.1367 231.645 93.1367ZM231.446 86.793C231.214 86.793 230.997 86.8363 230.797 86.9229C230.601 87.0049 230.425 87.1234 230.271 87.2783C230.116 87.4378 229.986 87.6292 229.881 87.8525C229.776 88.0758 229.699 88.3288 229.648 88.6113H233.128V88.502C233.128 88.2878 233.089 88.0758 233.012 87.8662C232.934 87.652 232.825 87.4652 232.684 87.3057C232.547 87.1507 232.374 87.0277 232.164 86.9365C231.959 86.8408 231.72 86.793 231.446 86.793ZM241.714 85.4668C241.978 85.4668 242.233 85.485 242.479 85.5215C242.73 85.5579 242.926 85.6012 243.067 85.6514L242.835 87.2646C242.584 87.21 242.336 87.1689 242.09 87.1416C241.848 87.1143 241.607 87.1006 241.365 87.1006C241.092 87.1006 240.846 87.1279 240.627 87.1826C240.408 87.2373 240.215 87.3216 240.046 87.4355C239.864 87.5449 239.709 87.6839 239.581 87.8525C239.453 88.0212 239.346 88.2148 239.26 88.4336V93H237.626V85.6035H239.157L239.226 86.6289L239.232 86.7998C239.533 86.3851 239.893 86.0592 240.312 85.8223C240.736 85.5853 241.203 85.4668 241.714 85.4668ZM251.195 89.2881H245.692V87.9619H251.195V89.2881ZM254.032 93L252.604 85.6035H254.08L254.764 90.1357L254.88 90.9902L255.03 90.1357L255.994 85.6035H257.067L258.031 90.1221L258.188 91.0176L258.318 90.1152L258.981 85.6035H260.465L259.036 93H257.648L256.691 88.8027L256.521 87.8867L256.356 88.8027L255.42 93H254.032ZM262.201 85.6035H266.125V91.6465H268.299V93H262.201V91.6465H264.478V86.9639H262.201V85.6035ZM264.327 83.6895C264.327 83.5573 264.35 83.4365 264.396 83.3271C264.441 83.2132 264.507 83.1152 264.594 83.0332C264.676 82.9557 264.774 82.8965 264.888 82.8555C265.006 82.8099 265.138 82.7871 265.284 82.7871C265.53 82.7871 265.729 82.8509 265.879 82.9785C266.034 83.1016 266.123 83.2611 266.146 83.457C266.177 83.6576 266.143 83.833 266.043 83.9834C265.943 84.1292 265.797 84.2272 265.605 84.2773C265.51 84.3639 265.396 84.4209 265.264 84.4482C265.132 84.4756 264.986 84.4642 264.826 84.4141C264.662 84.3639 264.537 84.2751 264.45 84.1475C264.368 84.0153 264.327 83.8626 264.327 83.6895ZM270.015 89.2471C270.015 88.6865 270.081 88.1761 270.213 87.7158C270.35 87.251 270.546 86.8522 270.801 86.5195C271.051 86.1868 271.357 85.9294 271.717 85.7471C272.081 85.5602 272.492 85.4668 272.947 85.4668C273.357 85.4668 273.715 85.5397 274.021 85.6855C274.33 85.8268 274.604 86.0296 274.841 86.2939V82.5H276.475V93H274.991L274.916 92.2275C274.679 92.5192 274.396 92.7448 274.068 92.9043C273.74 93.0592 273.362 93.1367 272.934 93.1367C272.482 93.1367 272.077 93.0433 271.717 92.8564C271.357 92.665 271.051 92.4007 270.801 92.0635C270.55 91.7308 270.356 91.3366 270.22 90.8809C270.083 90.4206 270.015 89.9238 270.015 89.3906V89.2471ZM271.648 89.3906C271.648 89.7188 271.68 90.0286 271.744 90.3203C271.808 90.612 271.908 90.8649 272.045 91.0791C272.182 91.3024 272.357 91.4779 272.571 91.6055C272.785 91.7285 273.043 91.79 273.344 91.79C273.713 91.79 274.018 91.7103 274.26 91.5508C274.501 91.3867 274.695 91.1657 274.841 90.8877V87.709C274.695 87.4355 274.501 87.2191 274.26 87.0596C274.023 86.8955 273.722 86.8135 273.357 86.8135C273.052 86.8135 272.79 86.8773 272.571 87.0049C272.357 87.1325 272.184 87.3079 272.052 87.5312C271.91 87.7546 271.808 88.0143 271.744 88.3105C271.68 88.6022 271.648 88.9144 271.648 89.2471V89.3906ZM281.923 83.7988V85.6035H284.705V86.8271H281.923V90.3613C281.923 90.6348 281.955 90.8649 282.019 91.0518C282.087 91.234 282.18 91.3776 282.299 91.4824C282.417 91.5918 282.559 91.6693 282.723 91.7148C282.887 91.7604 283.067 91.7832 283.263 91.7832C283.404 91.7832 283.55 91.7764 283.7 91.7627C283.851 91.749 283.996 91.7308 284.138 91.708C284.274 91.6898 284.402 91.6693 284.521 91.6465C284.644 91.6191 284.746 91.5964 284.828 91.5781L285.006 92.7061C284.887 92.779 284.744 92.8428 284.575 92.8975C284.411 92.9476 284.233 92.9909 284.042 93.0273C283.851 93.0638 283.65 93.0911 283.44 93.1094C283.235 93.1322 283.03 93.1436 282.825 93.1436C282.451 93.1436 282.107 93.0934 281.793 92.9932C281.483 92.8883 281.216 92.7266 280.993 92.5078C280.77 92.2936 280.594 92.0179 280.467 91.6807C280.344 91.3434 280.282 90.9378 280.282 90.4639V86.8271H278.491V85.6035H280.282V83.7988H281.923ZM288.684 86.6562C288.779 86.5104 288.886 86.376 289.005 86.2529C289.123 86.1299 289.249 86.0228 289.381 85.9316C289.586 85.7812 289.812 85.6673 290.058 85.5898C290.308 85.5078 290.573 85.4668 290.851 85.4668C291.238 85.4668 291.591 85.5238 291.91 85.6377C292.234 85.7516 292.509 85.9294 292.737 86.1709C292.965 86.4124 293.141 86.7223 293.264 87.1006C293.391 87.4743 293.455 87.9232 293.455 88.4473V93H291.821V88.4336C291.821 88.1602 291.787 87.9209 291.719 87.7158C291.655 87.5107 291.559 87.3444 291.432 87.2168C291.299 87.0801 291.138 86.9798 290.946 86.916C290.759 86.8477 290.543 86.8135 290.297 86.8135C290.105 86.8135 289.923 86.8363 289.75 86.8818C289.581 86.9274 289.426 86.9935 289.285 87.0801C289.167 87.1484 289.055 87.2305 288.95 87.3262C288.85 87.4219 288.761 87.529 288.684 87.6475V93H287.05V82.5H288.684V86.6562ZM297.693 92.0156C297.693 91.7012 297.794 91.4323 297.994 91.209C298.199 90.9857 298.493 90.874 298.876 90.874C299.25 90.874 299.541 90.9857 299.751 91.209C299.961 91.4277 300.065 91.6966 300.065 92.0156C300.065 92.3346 299.958 92.6012 299.744 92.8154C299.535 93.0296 299.245 93.1367 298.876 93.1367C298.502 93.1367 298.211 93.0296 298.001 92.8154C297.796 92.5967 297.693 92.3301 297.693 92.0156ZM297.693 86.2256C297.693 85.9111 297.794 85.6423 297.994 85.4189C298.199 85.1956 298.493 85.084 298.876 85.084C299.25 85.084 299.541 85.1956 299.751 85.4189C299.961 85.6377 300.065 85.9066 300.065 86.2256C300.065 86.5446 299.958 86.8112 299.744 87.0254C299.535 87.2396 299.245 87.3467 298.876 87.3467C298.502 87.3467 298.211 87.2396 298.001 87.0254C297.796 86.8066 297.693 86.54 297.693 86.2256Z" fill="#001E2E"/>
<rect x="312" y="76.5" width="37" height="23" rx="5.5" fill="#FFEBF7"/>
<rect x="312" y="76.5" width="37" height="23" rx="5.5" stroke="#FFADF3"/>
<path d="M324.896 93H318.218V91.8652L321.458 88.3379C321.727 88.0417 321.952 87.7773 322.135 87.5449C322.317 87.3079 322.465 87.0915 322.579 86.8955C322.688 86.6995 322.766 86.5173 322.812 86.3486C322.862 86.1755 322.887 86.0023 322.887 85.8291C322.887 85.5967 322.853 85.3848 322.784 85.1934C322.716 85.002 322.616 84.8379 322.483 84.7012C322.351 84.5645 322.192 84.4574 322.005 84.3799C321.823 84.3024 321.618 84.2637 321.39 84.2637C321.098 84.2637 320.845 84.3047 320.631 84.3867C320.417 84.4688 320.239 84.585 320.098 84.7354C319.952 84.8949 319.842 85.0885 319.77 85.3164C319.697 85.5397 319.66 85.7949 319.66 86.082H318.02C318.02 85.6491 318.099 85.2412 318.259 84.8584C318.418 84.471 318.646 84.1338 318.942 83.8467C319.234 83.5596 319.59 83.3317 320.009 83.1631C320.433 82.9945 320.904 82.9102 321.424 82.9102C321.911 82.9102 322.347 82.9808 322.729 83.1221C323.117 83.2633 323.443 83.4593 323.707 83.71C323.967 83.9606 324.165 84.2614 324.302 84.6123C324.438 84.9587 324.507 85.3415 324.507 85.7607C324.507 86.0752 324.454 86.3805 324.35 86.6768C324.249 86.9684 324.11 87.2578 323.933 87.5449C323.75 87.832 323.534 88.1214 323.283 88.4131C323.037 88.7048 322.768 89.0055 322.477 89.3154L320.262 91.6807H324.896V93ZM326.981 95.8438V85.6035H328.485L328.547 86.3623C328.647 86.2393 328.757 86.1276 328.875 86.0273C328.993 85.9271 329.121 85.8405 329.258 85.7676C329.436 85.6719 329.632 85.599 329.846 85.5488C330.06 85.4941 330.288 85.4668 330.529 85.4668C331.003 85.4668 331.42 85.5579 331.78 85.7402C332.145 85.9225 332.45 86.18 332.696 86.5127C332.938 86.8454 333.122 87.2441 333.25 87.709C333.378 88.1693 333.441 88.6774 333.441 89.2334V89.377C333.441 89.9102 333.378 90.4069 333.25 90.8672C333.127 91.3275 332.942 91.724 332.696 92.0566C332.45 92.3939 332.147 92.6582 331.787 92.8496C331.427 93.041 331.015 93.1367 330.55 93.1367C330.285 93.1367 330.042 93.1094 329.818 93.0547C329.6 93 329.397 92.9202 329.21 92.8154C329.101 92.7516 328.996 92.6787 328.896 92.5967C328.795 92.5146 328.702 92.4258 328.615 92.3301V95.8438H326.981ZM331.808 89.2334C331.808 88.9007 331.773 88.5885 331.705 88.2969C331.641 88.0007 331.541 87.7432 331.404 87.5244C331.263 87.3057 331.083 87.1325 330.864 87.0049C330.646 86.8773 330.383 86.8135 330.078 86.8135C329.91 86.8135 329.752 86.8317 329.606 86.8682C329.461 86.9046 329.331 86.957 329.217 87.0254C329.085 87.0983 328.968 87.1895 328.868 87.2988C328.772 87.4082 328.688 87.5312 328.615 87.668V90.9561C328.679 91.0837 328.757 91.1999 328.848 91.3047C328.939 91.4095 329.044 91.5007 329.162 91.5781C329.285 91.651 329.424 91.7103 329.579 91.7559C329.734 91.7969 329.905 91.8174 330.092 91.8174C330.397 91.8174 330.657 91.7536 330.871 91.626C331.09 91.4938 331.268 91.3161 331.404 91.0928C331.546 90.8649 331.648 90.6051 331.712 90.3135C331.776 90.0173 331.808 89.7051 331.808 89.377V89.2334ZM338.623 88.0918L340.394 85.6035H342.205L339.607 89.2471L342.287 93H340.482L338.637 90.416L336.798 93H334.986L337.666 89.2471L335.075 85.6035H336.873L338.623 88.0918Z" fill="#380037"/>
<path d="M360.925 86.2256C360.925 85.9111 361.025 85.6423 361.226 85.4189C361.431 85.1956 361.725 85.084 362.107 85.084C362.481 85.084 362.773 85.1956 362.982 85.4189C363.192 85.6377 363.297 85.9066 363.297 86.2256C363.297 86.5446 363.19 86.8112 362.976 87.0254C362.766 87.2396 362.477 87.3467 362.107 87.3467C361.734 87.3467 361.442 87.2396 361.232 87.0254C361.027 86.8066 360.925 86.54 360.925 86.2256ZM362.846 92.7881C362.846 93.2803 362.725 93.7793 362.483 94.2852C362.246 94.7956 361.932 95.2262 361.54 95.5771L360.624 95.0918C360.82 94.7682 360.97 94.4264 361.075 94.0664C361.185 93.7064 361.239 93.3008 361.239 92.8496V91.4072H362.846V92.7881Z" fill="#001E2E"/>
<rect x="182" y="112.5" width="196" height="39" rx="7.5" fill="#E5F2FF"/>
<rect x="182" y="112.5" width="196" height="39" rx="7.5" stroke="#87CEFF"/>
<path d="M201.061 133.377C201.061 133.719 201.035 134.045 200.985 134.354C200.935 134.664 200.862 134.951 200.767 135.216C200.657 135.53 200.511 135.815 200.329 136.07C200.147 136.326 199.928 136.537 199.673 136.706C199.468 136.843 199.238 136.948 198.982 137.021C198.732 137.098 198.458 137.137 198.162 137.137C197.861 137.137 197.588 137.1 197.342 137.027C197.096 136.954 196.875 136.847 196.679 136.706C196.578 136.633 196.483 136.556 196.392 136.474C196.305 136.387 196.221 136.294 196.139 136.193L196.063 137H194.587V126.5H196.221V130.328C196.316 130.21 196.421 130.103 196.535 130.007C196.649 129.911 196.772 129.827 196.904 129.754C197.077 129.658 197.267 129.588 197.472 129.542C197.681 129.492 197.907 129.467 198.148 129.467C198.467 129.467 198.759 129.51 199.023 129.597C199.292 129.679 199.534 129.797 199.748 129.952C199.93 130.08 200.092 130.237 200.233 130.424C200.379 130.606 200.507 130.807 200.616 131.025C200.762 131.331 200.871 131.67 200.944 132.044C201.022 132.418 201.061 132.814 201.061 133.233V133.377ZM199.427 133.233C199.427 133.024 199.413 132.821 199.386 132.625C199.363 132.424 199.329 132.238 199.283 132.064C199.219 131.855 199.135 131.666 199.03 131.497C198.93 131.324 198.793 131.178 198.62 131.06C198.506 130.978 198.376 130.916 198.23 130.875C198.085 130.834 197.921 130.813 197.738 130.813C197.515 130.813 197.314 130.845 197.137 130.909C196.959 130.968 196.804 131.055 196.672 131.169C196.576 131.246 196.49 131.338 196.412 131.442C196.339 131.543 196.275 131.652 196.221 131.771V134.833C196.285 134.97 196.36 135.095 196.446 135.209C196.537 135.318 196.64 135.416 196.754 135.503C196.882 135.594 197.027 135.667 197.191 135.722C197.36 135.772 197.547 135.797 197.752 135.797C197.939 135.797 198.107 135.774 198.258 135.729C198.408 135.678 198.543 135.612 198.661 135.53C198.821 135.416 198.951 135.273 199.051 135.1C199.156 134.922 199.235 134.724 199.29 134.505C199.336 134.341 199.37 134.163 199.393 133.972C199.415 133.78 199.427 133.582 199.427 133.377V133.233ZM202.667 133.233C202.667 132.696 202.744 132.199 202.899 131.743C203.054 131.283 203.28 130.884 203.576 130.547C203.868 130.21 204.226 129.945 204.649 129.754C205.073 129.562 205.556 129.467 206.099 129.467C206.641 129.467 207.124 129.562 207.548 129.754C207.976 129.945 208.339 130.21 208.635 130.547C208.926 130.884 209.15 131.283 209.305 131.743C209.46 132.199 209.537 132.696 209.537 133.233V133.377C209.537 133.919 209.46 134.418 209.305 134.874C209.15 135.33 208.926 135.726 208.635 136.063C208.343 136.401 207.983 136.665 207.555 136.856C207.131 137.048 206.65 137.144 206.112 137.144C205.57 137.144 205.085 137.048 204.656 136.856C204.228 136.665 203.868 136.401 203.576 136.063C203.28 135.726 203.054 135.33 202.899 134.874C202.744 134.418 202.667 133.919 202.667 133.377V133.233ZM204.301 133.377C204.301 133.71 204.335 134.024 204.403 134.32C204.476 134.617 204.588 134.876 204.738 135.1C204.884 135.323 205.071 135.501 205.299 135.633C205.527 135.76 205.798 135.824 206.112 135.824C206.418 135.824 206.684 135.76 206.912 135.633C207.14 135.501 207.327 135.323 207.473 135.1C207.618 134.876 207.726 134.617 207.794 134.32C207.867 134.024 207.903 133.71 207.903 133.377V133.233C207.903 132.91 207.867 132.6 207.794 132.304C207.721 132.007 207.614 131.748 207.473 131.524C207.322 131.301 207.133 131.123 206.905 130.991C206.682 130.859 206.413 130.793 206.099 130.793C205.789 130.793 205.52 130.859 205.292 130.991C205.069 131.123 204.884 131.301 204.738 131.524C204.588 131.748 204.476 132.007 204.403 132.304C204.335 132.6 204.301 132.91 204.301 133.233V133.377ZM216.489 129.467C216.754 129.467 217.009 129.485 217.255 129.521C217.506 129.558 217.701 129.601 217.843 129.651L217.61 131.265C217.36 131.21 217.111 131.169 216.865 131.142C216.624 131.114 216.382 131.101 216.141 131.101C215.867 131.101 215.621 131.128 215.402 131.183C215.184 131.237 214.99 131.322 214.821 131.436C214.639 131.545 214.484 131.684 214.356 131.853C214.229 132.021 214.122 132.215 214.035 132.434V137H212.401V129.604H213.933L214.001 130.629L214.008 130.8C214.309 130.385 214.669 130.059 215.088 129.822C215.512 129.585 215.979 129.467 216.489 129.467ZM219.565 133.247C219.565 132.687 219.632 132.176 219.764 131.716C219.9 131.251 220.096 130.852 220.352 130.52C220.602 130.187 220.908 129.929 221.268 129.747C221.632 129.56 222.042 129.467 222.498 129.467C222.908 129.467 223.266 129.54 223.571 129.686C223.881 129.827 224.155 130.03 224.392 130.294V126.5H226.025V137H224.542L224.467 136.228C224.23 136.519 223.947 136.745 223.619 136.904C223.291 137.059 222.913 137.137 222.484 137.137C222.033 137.137 221.628 137.043 221.268 136.856C220.908 136.665 220.602 136.401 220.352 136.063C220.101 135.731 219.907 135.337 219.771 134.881C219.634 134.421 219.565 133.924 219.565 133.391V133.247ZM221.199 133.391C221.199 133.719 221.231 134.029 221.295 134.32C221.359 134.612 221.459 134.865 221.596 135.079C221.732 135.302 221.908 135.478 222.122 135.605C222.336 135.729 222.594 135.79 222.895 135.79C223.264 135.79 223.569 135.71 223.811 135.551C224.052 135.387 224.246 135.166 224.392 134.888V131.709C224.246 131.436 224.052 131.219 223.811 131.06C223.574 130.896 223.273 130.813 222.908 130.813C222.603 130.813 222.341 130.877 222.122 131.005C221.908 131.132 221.735 131.308 221.603 131.531C221.461 131.755 221.359 132.014 221.295 132.311C221.231 132.602 221.199 132.914 221.199 133.247V133.391ZM231.645 137.137C231.098 137.137 230.596 137.046 230.141 136.863C229.689 136.681 229.302 136.428 228.979 136.104C228.655 135.785 228.404 135.41 228.227 134.977C228.053 134.539 227.967 134.067 227.967 133.562V133.281C227.967 132.702 228.058 132.178 228.24 131.709C228.423 131.24 228.673 130.839 228.992 130.506C229.311 130.173 229.68 129.918 230.1 129.74C230.523 129.558 230.975 129.467 231.453 129.467C231.986 129.467 232.458 129.558 232.868 129.74C233.278 129.918 233.622 130.166 233.9 130.485C234.178 130.809 234.388 131.194 234.529 131.641C234.671 132.087 234.741 132.575 234.741 133.104V133.808H229.614V133.842C229.664 134.165 229.742 134.437 229.847 134.655C229.951 134.874 230.095 135.07 230.277 135.243C230.46 135.425 230.674 135.567 230.92 135.667C231.171 135.767 231.444 135.817 231.74 135.817C232.146 135.817 232.524 135.74 232.875 135.585C233.226 135.425 233.515 135.2 233.743 134.908L234.618 135.756C234.372 136.111 233.994 136.43 233.483 136.713C232.978 136.995 232.365 137.137 231.645 137.137ZM231.446 130.793C231.214 130.793 230.997 130.836 230.797 130.923C230.601 131.005 230.425 131.123 230.271 131.278C230.116 131.438 229.986 131.629 229.881 131.853C229.776 132.076 229.699 132.329 229.648 132.611H233.128V132.502C233.128 132.288 233.089 132.076 233.012 131.866C232.934 131.652 232.825 131.465 232.684 131.306C232.547 131.151 232.374 131.028 232.164 130.937C231.959 130.841 231.72 130.793 231.446 130.793ZM241.714 129.467C241.978 129.467 242.233 129.485 242.479 129.521C242.73 129.558 242.926 129.601 243.067 129.651L242.835 131.265C242.584 131.21 242.336 131.169 242.09 131.142C241.848 131.114 241.607 131.101 241.365 131.101C241.092 131.101 240.846 131.128 240.627 131.183C240.408 131.237 240.215 131.322 240.046 131.436C239.864 131.545 239.709 131.684 239.581 131.853C239.453 132.021 239.346 132.215 239.26 132.434V137H237.626V129.604H239.157L239.226 130.629L239.232 130.8C239.533 130.385 239.893 130.059 240.312 129.822C240.736 129.585 241.203 129.467 241.714 129.467ZM251.195 133.288H245.692V131.962H251.195V133.288ZM256.637 135.824C256.842 135.824 257.038 135.795 257.225 135.735C257.416 135.672 257.585 135.583 257.73 135.469C257.872 135.355 257.983 135.22 258.065 135.065C258.152 134.91 258.195 134.74 258.195 134.553H259.733C259.738 134.913 259.656 135.252 259.487 135.571C259.323 135.886 259.1 136.157 258.817 136.385C258.53 136.622 258.2 136.809 257.826 136.945C257.457 137.077 257.067 137.144 256.657 137.144C256.088 137.144 255.589 137.046 255.16 136.85C254.736 136.649 254.383 136.38 254.101 136.043C253.813 135.706 253.597 135.314 253.451 134.867C253.305 134.416 253.232 133.935 253.232 133.425V133.186C253.232 132.68 253.303 132.201 253.444 131.75C253.59 131.299 253.807 130.905 254.094 130.567C254.381 130.23 254.736 129.964 255.16 129.768C255.589 129.567 256.085 129.467 256.65 129.467C257.097 129.467 257.509 129.535 257.888 129.672C258.271 129.809 258.599 130 258.872 130.246C259.146 130.492 259.357 130.786 259.508 131.128C259.663 131.47 259.738 131.846 259.733 132.256H258.195C258.195 132.055 258.157 131.866 258.079 131.688C258.006 131.511 257.901 131.356 257.765 131.224C257.623 131.091 257.455 130.987 257.259 130.909C257.067 130.832 256.86 130.793 256.637 130.793C256.295 130.793 256.01 130.864 255.782 131.005C255.559 131.142 255.381 131.322 255.249 131.545C255.108 131.768 255.007 132.023 254.948 132.311C254.894 132.598 254.866 132.889 254.866 133.186V133.425C254.866 133.726 254.894 134.022 254.948 134.313C255.007 134.601 255.105 134.854 255.242 135.072C255.374 135.3 255.554 135.482 255.782 135.619C256.01 135.756 256.295 135.824 256.637 135.824ZM261.524 133.233C261.524 132.696 261.602 132.199 261.757 131.743C261.912 131.283 262.137 130.884 262.434 130.547C262.725 130.21 263.083 129.945 263.507 129.754C263.931 129.562 264.414 129.467 264.956 129.467C265.498 129.467 265.981 129.562 266.405 129.754C266.834 129.945 267.196 130.21 267.492 130.547C267.784 130.884 268.007 131.283 268.162 131.743C268.317 132.199 268.395 132.696 268.395 133.233V133.377C268.395 133.919 268.317 134.418 268.162 134.874C268.007 135.33 267.784 135.726 267.492 136.063C267.201 136.401 266.84 136.665 266.412 136.856C265.988 137.048 265.507 137.144 264.97 137.144C264.427 137.144 263.942 137.048 263.514 136.856C263.085 136.665 262.725 136.401 262.434 136.063C262.137 135.726 261.912 135.33 261.757 134.874C261.602 134.418 261.524 133.919 261.524 133.377V133.233ZM263.158 133.377C263.158 133.71 263.192 134.024 263.261 134.32C263.334 134.617 263.445 134.876 263.596 135.1C263.742 135.323 263.928 135.501 264.156 135.633C264.384 135.76 264.655 135.824 264.97 135.824C265.275 135.824 265.542 135.76 265.77 135.633C265.997 135.501 266.184 135.323 266.33 135.1C266.476 134.876 266.583 134.617 266.651 134.32C266.724 134.024 266.761 133.71 266.761 133.377V133.233C266.761 132.91 266.724 132.6 266.651 132.304C266.578 132.007 266.471 131.748 266.33 131.524C266.18 131.301 265.991 131.123 265.763 130.991C265.539 130.859 265.271 130.793 264.956 130.793C264.646 130.793 264.377 130.859 264.149 130.991C263.926 131.123 263.742 131.301 263.596 131.524C263.445 131.748 263.334 132.007 263.261 132.304C263.192 132.6 263.158 132.91 263.158 133.233V133.377ZM270.548 126.5H274.533V135.646H276.775V137H270.548V135.646H272.886V127.86H270.548V126.5ZM278.341 133.233C278.341 132.696 278.418 132.199 278.573 131.743C278.728 131.283 278.954 130.884 279.25 130.547C279.542 130.21 279.899 129.945 280.323 129.754C280.747 129.562 281.23 129.467 281.772 129.467C282.315 129.467 282.798 129.562 283.222 129.754C283.65 129.945 284.012 130.21 284.309 130.547C284.6 130.884 284.824 131.283 284.979 131.743C285.133 132.199 285.211 132.696 285.211 133.233V133.377C285.211 133.919 285.133 134.418 284.979 134.874C284.824 135.33 284.6 135.726 284.309 136.063C284.017 136.401 283.657 136.665 283.229 136.856C282.805 137.048 282.324 137.144 281.786 137.144C281.244 137.144 280.758 137.048 280.33 136.856C279.902 136.665 279.542 136.401 279.25 136.063C278.954 135.726 278.728 135.33 278.573 134.874C278.418 134.418 278.341 133.919 278.341 133.377V133.233ZM279.975 133.377C279.975 133.71 280.009 134.024 280.077 134.32C280.15 134.617 280.262 134.876 280.412 135.1C280.558 135.323 280.745 135.501 280.973 135.633C281.201 135.76 281.472 135.824 281.786 135.824C282.091 135.824 282.358 135.76 282.586 135.633C282.814 135.501 283.001 135.323 283.146 135.1C283.292 134.876 283.399 134.617 283.468 134.32C283.541 134.024 283.577 133.71 283.577 133.377V133.233C283.577 132.91 283.541 132.6 283.468 132.304C283.395 132.007 283.288 131.748 283.146 131.524C282.996 131.301 282.807 131.123 282.579 130.991C282.356 130.859 282.087 130.793 281.772 130.793C281.463 130.793 281.194 130.859 280.966 130.991C280.743 131.123 280.558 131.301 280.412 131.524C280.262 131.748 280.15 132.007 280.077 132.304C280.009 132.6 279.975 132.91 279.975 133.233V133.377ZM292.163 129.467C292.427 129.467 292.683 129.485 292.929 129.521C293.179 129.558 293.375 129.601 293.517 129.651L293.284 131.265C293.034 131.21 292.785 131.169 292.539 131.142C292.298 131.114 292.056 131.101 291.814 131.101C291.541 131.101 291.295 131.128 291.076 131.183C290.857 131.237 290.664 131.322 290.495 131.436C290.313 131.545 290.158 131.684 290.03 131.853C289.903 132.021 289.796 132.215 289.709 132.434V137H288.075V129.604H289.606L289.675 130.629L289.682 130.8C289.982 130.385 290.342 130.059 290.762 129.822C291.186 129.585 291.653 129.467 292.163 129.467ZM297.693 136.016C297.693 135.701 297.794 135.432 297.994 135.209C298.199 134.986 298.493 134.874 298.876 134.874C299.25 134.874 299.541 134.986 299.751 135.209C299.961 135.428 300.065 135.697 300.065 136.016C300.065 136.335 299.958 136.601 299.744 136.815C299.535 137.03 299.245 137.137 298.876 137.137C298.502 137.137 298.211 137.03 298.001 136.815C297.796 136.597 297.693 136.33 297.693 136.016ZM297.693 130.226C297.693 129.911 297.794 129.642 297.994 129.419C298.199 129.196 298.493 129.084 298.876 129.084C299.25 129.084 299.541 129.196 299.751 129.419C299.961 129.638 300.065 129.907 300.065 130.226C300.065 130.545 299.958 130.811 299.744 131.025C299.535 131.24 299.245 131.347 298.876 131.347C298.502 131.347 298.211 131.24 298.001 131.025C297.796 130.807 297.693 130.54 297.693 130.226Z" fill="#001E2E"/>
<rect x="312" y="120.5" width="37" height="23" rx="5.5" fill="#FFEBF7"/>
<rect x="312" y="120.5" width="37" height="23" rx="5.5" stroke="#FFADF3"/>
<path d="M323.673 129.467C323.937 129.467 324.192 129.485 324.438 129.521C324.689 129.558 324.885 129.601 325.026 129.651L324.794 131.265C324.543 131.21 324.295 131.169 324.049 131.142C323.807 131.114 323.566 131.101 323.324 131.101C323.051 131.101 322.805 131.128 322.586 131.183C322.367 131.237 322.174 131.322 322.005 131.436C321.823 131.545 321.668 131.684 321.54 131.853C321.412 132.021 321.305 132.215 321.219 132.434V137H319.585V129.604H321.116L321.185 130.629L321.191 130.8C321.492 130.385 321.852 130.059 322.271 129.822C322.695 129.585 323.162 129.467 323.673 129.467ZM330.42 137.137C329.873 137.137 329.372 137.046 328.916 136.863C328.465 136.681 328.077 136.428 327.754 136.104C327.43 135.785 327.18 135.41 327.002 134.977C326.829 134.539 326.742 134.067 326.742 133.562V133.281C326.742 132.702 326.833 132.178 327.016 131.709C327.198 131.24 327.449 130.839 327.768 130.506C328.087 130.173 328.456 129.918 328.875 129.74C329.299 129.558 329.75 129.467 330.229 129.467C330.762 129.467 331.233 129.558 331.644 129.74C332.054 129.918 332.398 130.166 332.676 130.485C332.954 130.809 333.163 131.194 333.305 131.641C333.446 132.087 333.517 132.575 333.517 133.104V133.808H328.39V133.842C328.44 134.165 328.517 134.437 328.622 134.655C328.727 134.874 328.87 135.07 329.053 135.243C329.235 135.425 329.449 135.567 329.695 135.667C329.946 135.767 330.219 135.817 330.516 135.817C330.921 135.817 331.299 135.74 331.65 135.585C332.001 135.425 332.291 135.2 332.519 134.908L333.394 135.756C333.147 136.111 332.769 136.43 332.259 136.713C331.753 136.995 331.14 137.137 330.42 137.137ZM330.222 130.793C329.989 130.793 329.773 130.836 329.572 130.923C329.376 131.005 329.201 131.123 329.046 131.278C328.891 131.438 328.761 131.629 328.656 131.853C328.551 132.076 328.474 132.329 328.424 132.611H331.903V132.502C331.903 132.288 331.865 132.076 331.787 131.866C331.71 131.652 331.6 131.465 331.459 131.306C331.322 131.151 331.149 131.028 330.939 130.937C330.734 130.841 330.495 130.793 330.222 130.793ZM335.157 133.247C335.157 132.687 335.223 132.176 335.355 131.716C335.492 131.251 335.688 130.852 335.943 130.52C336.194 130.187 336.499 129.929 336.859 129.747C337.224 129.56 337.634 129.467 338.09 129.467C338.5 129.467 338.858 129.54 339.163 129.686C339.473 129.827 339.746 130.03 339.983 130.294V126.5H341.617V137H340.134L340.059 136.228C339.822 136.519 339.539 136.745 339.211 136.904C338.883 137.059 338.505 137.137 338.076 137.137C337.625 137.137 337.219 137.043 336.859 136.856C336.499 136.665 336.194 136.401 335.943 136.063C335.693 135.731 335.499 135.337 335.362 134.881C335.226 134.421 335.157 133.924 335.157 133.391V133.247ZM336.791 133.391C336.791 133.719 336.823 134.029 336.887 134.32C336.951 134.612 337.051 134.865 337.188 135.079C337.324 135.302 337.5 135.478 337.714 135.605C337.928 135.729 338.186 135.79 338.486 135.79C338.855 135.79 339.161 135.71 339.402 135.551C339.644 135.387 339.838 135.166 339.983 134.888V131.709C339.838 131.436 339.644 131.219 339.402 131.06C339.165 130.896 338.865 130.813 338.5 130.813C338.195 130.813 337.933 130.877 337.714 131.005C337.5 131.132 337.326 131.308 337.194 131.531C337.053 131.755 336.951 132.014 336.887 132.311C336.823 132.602 336.791 132.914 336.791 133.247V133.391Z" fill="#380037"/>
<path d="M360.925 130.226C360.925 129.911 361.025 129.642 361.226 129.419C361.431 129.196 361.725 129.084 362.107 129.084C362.481 129.084 362.773 129.196 362.982 129.419C363.192 129.638 363.297 129.907 363.297 130.226C363.297 130.545 363.19 130.811 362.976 131.025C362.766 131.24 362.477 131.347 362.107 131.347C361.734 131.347 361.442 131.24 361.232 131.025C361.027 130.807 360.925 130.54 360.925 130.226ZM362.846 136.788C362.846 137.28 362.725 137.779 362.483 138.285C362.246 138.796 361.932 139.226 361.54 139.577L360.624 139.092C360.82 138.768 360.97 138.426 361.075 138.066C361.185 137.706 361.239 137.301 361.239 136.85V135.407H362.846V136.788Z" fill="#001E2E"/>
<defs>
<filter id="filter0_b_7655_3251" x="145" y="-216" width="565" height="520" filterUnits="userSpaceOnUse" color-interpolation-filters="sRGB">
<feFlood flood-opacity="0" result="BackgroundImageFix"/>
<feGaussianBlur in="BackgroundImageFix" stdDeviation="125"/>
<feComposite in2="SourceAlpha" operator="in" result="effect1_backgroundBlur_7655_3251"/>
<feBlend mode="normal" in="SourceGraphic" in2="effect1_backgroundBlur_7655_3251" result="shape"/>
</filter>
<clipPath id="clip0_7655_3251">
<rect x="395" y="34" width="65" height="20.0001" rx="4" fill="white"/>
</clipPath>
</defs>
</svg>
