<svg width="560" height="184" viewBox="0 0 560 184" fill="none" xmlns="http://www.w3.org/2000/svg">
<rect width="560" height="184" fill="#87CEFF" fill-opacity="0.16"/>
<rect x="153" y="72.5" width="254" height="39" rx="7.5" fill="#E5F2FF"/>
<rect x="153" y="72.5" width="254" height="39" rx="7.5" stroke="#87CEFF"/>
<path d="M172.061 93.377C172.061 93.7188 172.035 94.0446 171.985 94.3545C171.935 94.6644 171.862 94.9515 171.767 95.2158C171.657 95.5303 171.511 95.8151 171.329 96.0703C171.147 96.3255 170.928 96.5374 170.673 96.7061C170.468 96.8428 170.238 96.9476 169.982 97.0205C169.732 97.098 169.458 97.1367 169.162 97.1367C168.861 97.1367 168.588 97.1003 168.342 97.0273C168.096 96.9544 167.875 96.8473 167.679 96.7061C167.578 96.6331 167.483 96.5557 167.392 96.4736C167.305 96.387 167.221 96.2936 167.139 96.1934L167.063 97H165.587V86.5H167.221V90.3281C167.316 90.2096 167.421 90.1025 167.535 90.0068C167.649 89.9111 167.772 89.8268 167.904 89.7539C168.077 89.6582 168.267 89.5876 168.472 89.542C168.681 89.4919 168.907 89.4668 169.148 89.4668C169.467 89.4668 169.759 89.5101 170.023 89.5967C170.292 89.6787 170.534 89.7972 170.748 89.9521C170.93 90.0798 171.092 90.237 171.233 90.4238C171.379 90.6061 171.507 90.8066 171.616 91.0254C171.762 91.3307 171.871 91.6702 171.944 92.0439C172.022 92.4176 172.061 92.8141 172.061 93.2334V93.377ZM170.427 93.2334C170.427 93.0238 170.413 92.821 170.386 92.625C170.363 92.4245 170.329 92.2376 170.283 92.0645C170.219 91.8548 170.135 91.6657 170.03 91.4971C169.93 91.3239 169.793 91.1781 169.62 91.0596C169.506 90.9775 169.376 90.916 169.23 90.875C169.085 90.834 168.921 90.8135 168.738 90.8135C168.515 90.8135 168.314 90.8454 168.137 90.9092C167.959 90.9684 167.804 91.055 167.672 91.1689C167.576 91.2464 167.49 91.3376 167.412 91.4424C167.339 91.5426 167.275 91.652 167.221 91.7705V94.833C167.285 94.9697 167.36 95.0951 167.446 95.209C167.537 95.3184 167.64 95.4163 167.754 95.5029C167.882 95.5941 168.027 95.667 168.191 95.7217C168.36 95.7718 168.547 95.7969 168.752 95.7969C168.939 95.7969 169.107 95.7741 169.258 95.7285C169.408 95.6784 169.543 95.6123 169.661 95.5303C169.821 95.4163 169.951 95.2728 170.051 95.0996C170.156 94.9219 170.235 94.7236 170.29 94.5049C170.336 94.3408 170.37 94.1631 170.393 93.9717C170.415 93.7803 170.427 93.582 170.427 93.377V93.2334ZM173.667 93.2334C173.667 92.6956 173.744 92.1989 173.899 91.7432C174.054 91.2829 174.28 90.8841 174.576 90.5469C174.868 90.2096 175.226 89.9453 175.649 89.7539C176.073 89.5625 176.556 89.4668 177.099 89.4668C177.641 89.4668 178.124 89.5625 178.548 89.7539C178.976 89.9453 179.339 90.2096 179.635 90.5469C179.926 90.8841 180.15 91.2829 180.305 91.7432C180.46 92.1989 180.537 92.6956 180.537 93.2334V93.377C180.537 93.9193 180.46 94.4183 180.305 94.874C180.15 95.3298 179.926 95.7262 179.635 96.0635C179.343 96.4007 178.983 96.665 178.555 96.8564C178.131 97.0479 177.65 97.1436 177.112 97.1436C176.57 97.1436 176.085 97.0479 175.656 96.8564C175.228 96.665 174.868 96.4007 174.576 96.0635C174.28 95.7262 174.054 95.3298 173.899 94.874C173.744 94.4183 173.667 93.9193 173.667 93.377V93.2334ZM175.301 93.377C175.301 93.7096 175.335 94.0241 175.403 94.3203C175.476 94.6165 175.588 94.8763 175.738 95.0996C175.884 95.3229 176.071 95.5007 176.299 95.6328C176.527 95.7604 176.798 95.8242 177.112 95.8242C177.418 95.8242 177.684 95.7604 177.912 95.6328C178.14 95.5007 178.327 95.3229 178.473 95.0996C178.618 94.8763 178.726 94.6165 178.794 94.3203C178.867 94.0241 178.903 93.7096 178.903 93.377V93.2334C178.903 92.9098 178.867 92.5999 178.794 92.3037C178.721 92.0075 178.614 91.7477 178.473 91.5244C178.322 91.3011 178.133 91.1234 177.905 90.9912C177.682 90.859 177.413 90.793 177.099 90.793C176.789 90.793 176.52 90.859 176.292 90.9912C176.069 91.1234 175.884 91.3011 175.738 91.5244C175.588 91.7477 175.476 92.0075 175.403 92.3037C175.335 92.5999 175.301 92.9098 175.301 93.2334V93.377ZM187.489 89.4668C187.754 89.4668 188.009 89.485 188.255 89.5215C188.506 89.5579 188.701 89.6012 188.843 89.6514L188.61 91.2646C188.36 91.21 188.111 91.1689 187.865 91.1416C187.624 91.1143 187.382 91.1006 187.141 91.1006C186.867 91.1006 186.621 91.1279 186.402 91.1826C186.184 91.2373 185.99 91.3216 185.821 91.4355C185.639 91.5449 185.484 91.6839 185.356 91.8525C185.229 92.0212 185.122 92.2148 185.035 92.4336V97H183.401V89.6035H184.933L185.001 90.6289L185.008 90.7998C185.309 90.3851 185.669 90.0592 186.088 89.8223C186.512 89.5853 186.979 89.4668 187.489 89.4668ZM190.565 93.2471C190.565 92.6865 190.632 92.1761 190.764 91.7158C190.9 91.251 191.096 90.8522 191.352 90.5195C191.602 90.1868 191.908 89.9294 192.268 89.7471C192.632 89.5602 193.042 89.4668 193.498 89.4668C193.908 89.4668 194.266 89.5397 194.571 89.6855C194.881 89.8268 195.155 90.0296 195.392 90.2939V86.5H197.025V97H195.542L195.467 96.2275C195.23 96.5192 194.947 96.7448 194.619 96.9043C194.291 97.0592 193.913 97.1367 193.484 97.1367C193.033 97.1367 192.628 97.0433 192.268 96.8564C191.908 96.665 191.602 96.4007 191.352 96.0635C191.101 95.7308 190.907 95.3366 190.771 94.8809C190.634 94.4206 190.565 93.9238 190.565 93.3906V93.2471ZM192.199 93.3906C192.199 93.7188 192.231 94.0286 192.295 94.3203C192.359 94.612 192.459 94.8649 192.596 95.0791C192.732 95.3024 192.908 95.4779 193.122 95.6055C193.336 95.7285 193.594 95.79 193.895 95.79C194.264 95.79 194.569 95.7103 194.811 95.5508C195.052 95.3867 195.246 95.1657 195.392 94.8877V91.709C195.246 91.4355 195.052 91.2191 194.811 91.0596C194.574 90.8955 194.273 90.8135 193.908 90.8135C193.603 90.8135 193.341 90.8773 193.122 91.0049C192.908 91.1325 192.735 91.3079 192.603 91.5312C192.461 91.7546 192.359 92.0143 192.295 92.3105C192.231 92.6022 192.199 92.9144 192.199 93.2471V93.3906ZM202.645 97.1367C202.098 97.1367 201.596 97.0456 201.141 96.8633C200.689 96.681 200.302 96.4281 199.979 96.1045C199.655 95.7855 199.404 95.4095 199.227 94.9766C199.053 94.5391 198.967 94.0674 198.967 93.5615V93.2812C198.967 92.7025 199.058 92.1784 199.24 91.709C199.423 91.2396 199.673 90.8385 199.992 90.5059C200.311 90.1732 200.68 89.918 201.1 89.7402C201.523 89.5579 201.975 89.4668 202.453 89.4668C202.986 89.4668 203.458 89.5579 203.868 89.7402C204.278 89.918 204.622 90.1663 204.9 90.4854C205.178 90.8089 205.388 91.194 205.529 91.6406C205.671 92.0872 205.741 92.5749 205.741 93.1035V93.8076H200.614V93.8418C200.664 94.1654 200.742 94.4365 200.847 94.6553C200.951 94.874 201.095 95.07 201.277 95.2432C201.46 95.4255 201.674 95.5667 201.92 95.667C202.171 95.7673 202.444 95.8174 202.74 95.8174C203.146 95.8174 203.524 95.7399 203.875 95.585C204.226 95.4255 204.515 95.1999 204.743 94.9082L205.618 95.7559C205.372 96.1113 204.994 96.4303 204.483 96.7129C203.978 96.9954 203.365 97.1367 202.645 97.1367ZM202.446 90.793C202.214 90.793 201.997 90.8363 201.797 90.9229C201.601 91.0049 201.425 91.1234 201.271 91.2783C201.116 91.4378 200.986 91.6292 200.881 91.8525C200.776 92.0758 200.699 92.3288 200.648 92.6113H204.128V92.502C204.128 92.2878 204.089 92.0758 204.012 91.8662C203.934 91.652 203.825 91.4652 203.684 91.3057C203.547 91.1507 203.374 91.0277 203.164 90.9365C202.959 90.8408 202.72 90.793 202.446 90.793ZM212.714 89.4668C212.978 89.4668 213.233 89.485 213.479 89.5215C213.73 89.5579 213.926 89.6012 214.067 89.6514L213.835 91.2646C213.584 91.21 213.336 91.1689 213.09 91.1416C212.848 91.1143 212.607 91.1006 212.365 91.1006C212.092 91.1006 211.846 91.1279 211.627 91.1826C211.408 91.2373 211.215 91.3216 211.046 91.4355C210.864 91.5449 210.709 91.6839 210.581 91.8525C210.453 92.0212 210.346 92.2148 210.26 92.4336V97H208.626V89.6035H210.157L210.226 90.6289L210.232 90.7998C210.533 90.3851 210.893 90.0592 211.312 89.8223C211.736 89.5853 212.203 89.4668 212.714 89.4668ZM218.244 96.0156C218.244 95.7012 218.344 95.4323 218.545 95.209C218.75 94.9857 219.044 94.874 219.427 94.874C219.8 94.874 220.092 94.9857 220.302 95.209C220.511 95.4277 220.616 95.6966 220.616 96.0156C220.616 96.3346 220.509 96.6012 220.295 96.8154C220.085 97.0296 219.796 97.1367 219.427 97.1367C219.053 97.1367 218.761 97.0296 218.552 96.8154C218.347 96.5967 218.244 96.3301 218.244 96.0156ZM218.244 90.2256C218.244 89.9111 218.344 89.6423 218.545 89.4189C218.75 89.1956 219.044 89.084 219.427 89.084C219.8 89.084 220.092 89.1956 220.302 89.4189C220.511 89.6377 220.616 89.9066 220.616 90.2256C220.616 90.5446 220.509 90.8112 220.295 91.0254C220.085 91.2396 219.796 91.3467 219.427 91.3467C219.053 91.3467 218.761 91.2396 218.552 91.0254C218.347 90.8066 218.244 90.54 218.244 90.2256Z" fill="#001E2E"/>
<rect x="232" y="80.5" width="37" height="23" rx="5.5" fill="#FFEBF7"/>
<rect x="232" y="80.5" width="37" height="23" rx="5.5" stroke="#FFADF3"/>
<path d="M244.896 97H238.218V95.8652L241.458 92.3379C241.727 92.0417 241.952 91.7773 242.135 91.5449C242.317 91.3079 242.465 91.0915 242.579 90.8955C242.688 90.6995 242.766 90.5173 242.812 90.3486C242.862 90.1755 242.887 90.0023 242.887 89.8291C242.887 89.5967 242.853 89.3848 242.784 89.1934C242.716 89.002 242.616 88.8379 242.483 88.7012C242.351 88.5645 242.192 88.4574 242.005 88.3799C241.823 88.3024 241.618 88.2637 241.39 88.2637C241.098 88.2637 240.845 88.3047 240.631 88.3867C240.417 88.4688 240.239 88.585 240.098 88.7354C239.952 88.8949 239.842 89.0885 239.77 89.3164C239.697 89.5397 239.66 89.7949 239.66 90.082H238.02C238.02 89.6491 238.099 89.2412 238.259 88.8584C238.418 88.471 238.646 88.1338 238.942 87.8467C239.234 87.5596 239.59 87.3317 240.009 87.1631C240.433 86.9945 240.904 86.9102 241.424 86.9102C241.911 86.9102 242.347 86.9808 242.729 87.1221C243.117 87.2633 243.443 87.4593 243.707 87.71C243.967 87.9606 244.165 88.2614 244.302 88.6123C244.438 88.9587 244.507 89.3415 244.507 89.7607C244.507 90.0752 244.454 90.3805 244.35 90.6768C244.249 90.9684 244.11 91.2578 243.933 91.5449C243.75 91.832 243.534 92.1214 243.283 92.4131C243.037 92.7048 242.768 93.0055 242.477 93.3154L240.262 95.6807H244.896V97ZM246.981 99.8438V89.6035H248.485L248.547 90.3623C248.647 90.2393 248.757 90.1276 248.875 90.0273C248.993 89.9271 249.121 89.8405 249.258 89.7676C249.436 89.6719 249.632 89.599 249.846 89.5488C250.06 89.4941 250.288 89.4668 250.529 89.4668C251.003 89.4668 251.42 89.5579 251.78 89.7402C252.145 89.9225 252.45 90.18 252.696 90.5127C252.938 90.8454 253.122 91.2441 253.25 91.709C253.378 92.1693 253.441 92.6774 253.441 93.2334V93.377C253.441 93.9102 253.378 94.4069 253.25 94.8672C253.127 95.3275 252.942 95.724 252.696 96.0566C252.45 96.3939 252.147 96.6582 251.787 96.8496C251.427 97.041 251.015 97.1367 250.55 97.1367C250.285 97.1367 250.042 97.1094 249.818 97.0547C249.6 97 249.397 96.9202 249.21 96.8154C249.101 96.7516 248.996 96.6787 248.896 96.5967C248.795 96.5146 248.702 96.4258 248.615 96.3301V99.8438H246.981ZM251.808 93.2334C251.808 92.9007 251.773 92.5885 251.705 92.2969C251.641 92.0007 251.541 91.7432 251.404 91.5244C251.263 91.3057 251.083 91.1325 250.864 91.0049C250.646 90.8773 250.383 90.8135 250.078 90.8135C249.91 90.8135 249.752 90.8317 249.606 90.8682C249.461 90.9046 249.331 90.957 249.217 91.0254C249.085 91.0983 248.968 91.1895 248.868 91.2988C248.772 91.4082 248.688 91.5312 248.615 91.668V94.9561C248.679 95.0837 248.757 95.1999 248.848 95.3047C248.939 95.4095 249.044 95.5007 249.162 95.5781C249.285 95.651 249.424 95.7103 249.579 95.7559C249.734 95.7969 249.905 95.8174 250.092 95.8174C250.397 95.8174 250.657 95.7536 250.871 95.626C251.09 95.4938 251.268 95.3161 251.404 95.0928C251.546 94.8649 251.648 94.6051 251.712 94.3135C251.776 94.0173 251.808 93.7051 251.808 93.377V93.2334ZM258.623 92.0918L260.394 89.6035H262.205L259.607 93.2471L262.287 97H260.482L258.637 94.416L256.798 97H254.986L257.666 93.2471L255.075 89.6035H256.873L258.623 92.0918Z" fill="#380037"/>
<rect x="278" y="80.5" width="54" height="23" rx="5.5" fill="#FFEBF7"/>
<rect x="278" y="80.5" width="54" height="23" rx="5.5" stroke="#FFADF3"/>
<path d="M289.393 94.9971C289.393 94.8695 289.363 94.7555 289.304 94.6553C289.249 94.555 289.156 94.4593 289.023 94.3682C288.882 94.2861 288.698 94.2087 288.47 94.1357C288.242 94.0628 287.957 93.9945 287.615 93.9307C287.187 93.8441 286.795 93.737 286.439 93.6094C286.089 93.4818 285.785 93.3268 285.53 93.1445C285.28 92.9714 285.084 92.7663 284.942 92.5293C284.801 92.2923 284.73 92.0166 284.73 91.7021C284.73 91.4014 284.801 91.1165 284.942 90.8477C285.088 90.5742 285.296 90.335 285.564 90.1299C285.829 89.9248 286.148 89.763 286.521 89.6445C286.9 89.526 287.319 89.4668 287.779 89.4668C288.271 89.4668 288.714 89.5283 289.105 89.6514C289.497 89.7699 289.83 89.9339 290.104 90.1436C290.372 90.3532 290.58 90.6016 290.726 90.8887C290.871 91.1758 290.944 91.4857 290.944 91.8184H289.311C289.311 91.6816 289.281 91.5518 289.222 91.4287C289.167 91.3011 289.085 91.1872 288.976 91.0869C288.848 90.9684 288.684 90.875 288.483 90.8066C288.283 90.7337 288.048 90.6973 287.779 90.6973C287.533 90.6973 287.317 90.7246 287.13 90.7793C286.948 90.8294 286.797 90.9001 286.679 90.9912C286.56 91.0732 286.471 91.1712 286.412 91.2852C286.353 91.3945 286.323 91.5107 286.323 91.6338C286.323 91.7614 286.348 91.8776 286.398 91.9824C286.449 92.0827 286.537 92.1715 286.665 92.249C286.784 92.3311 286.948 92.4062 287.157 92.4746C287.371 92.543 287.64 92.6045 287.964 92.6592C288.415 92.7412 288.827 92.8415 289.201 92.96C289.575 93.0785 289.894 93.2243 290.158 93.3975C290.423 93.5798 290.628 93.7939 290.773 94.04C290.919 94.2861 290.992 94.5778 290.992 94.915C290.992 95.2432 290.915 95.5439 290.76 95.8174C290.609 96.0908 290.395 96.3255 290.117 96.5215C289.835 96.7174 289.497 96.8701 289.105 96.9795C288.714 97.0889 288.278 97.1436 287.8 97.1436C287.267 97.1436 286.793 97.0729 286.378 96.9316C285.968 96.7904 285.624 96.6035 285.346 96.3711C285.063 96.1432 284.849 95.8812 284.703 95.585C284.557 95.2887 284.484 94.988 284.484 94.6826H286.07C286.084 94.9105 286.143 95.1042 286.248 95.2637C286.357 95.4186 286.494 95.5439 286.658 95.6396C286.818 95.7399 287 95.8128 287.205 95.8584C287.41 95.8994 287.618 95.9199 287.827 95.9199C288.11 95.9199 288.356 95.8903 288.565 95.8311C288.78 95.7718 288.951 95.6921 289.078 95.5918C289.183 95.5098 289.26 95.4209 289.311 95.3252C289.365 95.2249 289.393 95.1156 289.393 94.9971ZM292.667 93.2334C292.667 92.6956 292.744 92.1989 292.899 91.7432C293.054 91.2829 293.28 90.8841 293.576 90.5469C293.868 90.2096 294.226 89.9453 294.649 89.7539C295.073 89.5625 295.556 89.4668 296.099 89.4668C296.641 89.4668 297.124 89.5625 297.548 89.7539C297.976 89.9453 298.339 90.2096 298.635 90.5469C298.926 90.8841 299.15 91.2829 299.305 91.7432C299.46 92.1989 299.537 92.6956 299.537 93.2334V93.377C299.537 93.9193 299.46 94.4183 299.305 94.874C299.15 95.3298 298.926 95.7262 298.635 96.0635C298.343 96.4007 297.983 96.665 297.555 96.8564C297.131 97.0479 296.65 97.1436 296.112 97.1436C295.57 97.1436 295.085 97.0479 294.656 96.8564C294.228 96.665 293.868 96.4007 293.576 96.0635C293.28 95.7262 293.054 95.3298 292.899 94.874C292.744 94.4183 292.667 93.9193 292.667 93.377V93.2334ZM294.301 93.377C294.301 93.7096 294.335 94.0241 294.403 94.3203C294.476 94.6165 294.588 94.8763 294.738 95.0996C294.884 95.3229 295.071 95.5007 295.299 95.6328C295.527 95.7604 295.798 95.8242 296.112 95.8242C296.418 95.8242 296.684 95.7604 296.912 95.6328C297.14 95.5007 297.327 95.3229 297.473 95.0996C297.618 94.8763 297.726 94.6165 297.794 94.3203C297.867 94.0241 297.903 93.7096 297.903 93.377V93.2334C297.903 92.9098 297.867 92.5999 297.794 92.3037C297.721 92.0075 297.614 91.7477 297.473 91.5244C297.322 91.3011 297.133 91.1234 296.905 90.9912C296.682 90.859 296.413 90.793 296.099 90.793C295.789 90.793 295.52 90.859 295.292 90.9912C295.069 91.1234 294.884 91.3011 294.738 91.5244C294.588 91.7477 294.476 92.0075 294.403 92.3037C294.335 92.5999 294.301 92.9098 294.301 93.2334V93.377ZM301.69 86.5H305.676V95.6465H307.918V97H301.69V95.6465H304.028V87.8604H301.69V86.5ZM310.16 89.6035H314.084V95.6465H316.258V97H310.16V95.6465H312.437V90.9639H310.16V89.6035ZM312.286 87.6895C312.286 87.5573 312.309 87.4365 312.354 87.3271C312.4 87.2132 312.466 87.1152 312.553 87.0332C312.635 86.9557 312.733 86.8965 312.847 86.8555C312.965 86.8099 313.097 86.7871 313.243 86.7871C313.489 86.7871 313.688 86.8509 313.838 86.9785C313.993 87.1016 314.082 87.2611 314.104 87.457C314.136 87.6576 314.102 87.833 314.002 87.9834C313.902 88.1292 313.756 88.2272 313.564 88.2773C313.469 88.3639 313.355 88.4209 313.223 88.4482C313.09 88.4756 312.945 88.4642 312.785 88.4141C312.621 88.3639 312.496 88.2751 312.409 88.1475C312.327 88.0153 312.286 87.8626 312.286 87.6895ZM317.974 93.2471C317.974 92.6865 318.04 92.1761 318.172 91.7158C318.309 91.251 318.505 90.8522 318.76 90.5195C319.01 90.1868 319.316 89.9294 319.676 89.7471C320.04 89.5602 320.451 89.4668 320.906 89.4668C321.316 89.4668 321.674 89.5397 321.979 89.6855C322.289 89.8268 322.563 90.0296 322.8 90.2939V86.5H324.434V97H322.95L322.875 96.2275C322.638 96.5192 322.355 96.7448 322.027 96.9043C321.699 97.0592 321.321 97.1367 320.893 97.1367C320.441 97.1367 320.036 97.0433 319.676 96.8564C319.316 96.665 319.01 96.4007 318.76 96.0635C318.509 95.7308 318.315 95.3366 318.179 94.8809C318.042 94.4206 317.974 93.9238 317.974 93.3906V93.2471ZM319.607 93.3906C319.607 93.7188 319.639 94.0286 319.703 94.3203C319.767 94.612 319.867 94.8649 320.004 95.0791C320.141 95.3024 320.316 95.4779 320.53 95.6055C320.744 95.7285 321.002 95.79 321.303 95.79C321.672 95.79 321.977 95.7103 322.219 95.5508C322.46 95.3867 322.654 95.1657 322.8 94.8877V91.709C322.654 91.4355 322.46 91.2191 322.219 91.0596C321.982 90.8955 321.681 90.8135 321.316 90.8135C321.011 90.8135 320.749 90.8773 320.53 91.0049C320.316 91.1325 320.143 91.3079 320.011 91.5312C319.869 91.7546 319.767 92.0143 319.703 92.3105C319.639 92.6022 319.607 92.9144 319.607 93.2471V93.3906Z" fill="#380037"/>
<rect x="341" y="80.5" width="37" height="23" rx="5.5" fill="#FFEBF7"/>
<rect x="341" y="80.5" width="37" height="23" rx="5.5" stroke="#FFADF3"/>
<path d="M352.673 89.4668C352.937 89.4668 353.192 89.485 353.438 89.5215C353.689 89.5579 353.885 89.6012 354.026 89.6514L353.794 91.2646C353.543 91.21 353.295 91.1689 353.049 91.1416C352.807 91.1143 352.566 91.1006 352.324 91.1006C352.051 91.1006 351.805 91.1279 351.586 91.1826C351.367 91.2373 351.174 91.3216 351.005 91.4355C350.823 91.5449 350.668 91.6839 350.54 91.8525C350.412 92.0212 350.305 92.2148 350.219 92.4336V97H348.585V89.6035H350.116L350.185 90.6289L350.191 90.7998C350.492 90.3851 350.852 90.0592 351.271 89.8223C351.695 89.5853 352.162 89.4668 352.673 89.4668ZM359.42 97.1367C358.873 97.1367 358.372 97.0456 357.916 96.8633C357.465 96.681 357.077 96.4281 356.754 96.1045C356.43 95.7855 356.18 95.4095 356.002 94.9766C355.829 94.5391 355.742 94.0674 355.742 93.5615V93.2812C355.742 92.7025 355.833 92.1784 356.016 91.709C356.198 91.2396 356.449 90.8385 356.768 90.5059C357.087 90.1732 357.456 89.918 357.875 89.7402C358.299 89.5579 358.75 89.4668 359.229 89.4668C359.762 89.4668 360.233 89.5579 360.644 89.7402C361.054 89.918 361.398 90.1663 361.676 90.4854C361.954 90.8089 362.163 91.194 362.305 91.6406C362.446 92.0872 362.517 92.5749 362.517 93.1035V93.8076H357.39V93.8418C357.44 94.1654 357.517 94.4365 357.622 94.6553C357.727 94.874 357.87 95.07 358.053 95.2432C358.235 95.4255 358.449 95.5667 358.695 95.667C358.946 95.7673 359.219 95.8174 359.516 95.8174C359.921 95.8174 360.299 95.7399 360.65 95.585C361.001 95.4255 361.291 95.1999 361.519 94.9082L362.394 95.7559C362.147 96.1113 361.769 96.4303 361.259 96.7129C360.753 96.9954 360.14 97.1367 359.42 97.1367ZM359.222 90.793C358.989 90.793 358.773 90.8363 358.572 90.9229C358.376 91.0049 358.201 91.1234 358.046 91.2783C357.891 91.4378 357.761 91.6292 357.656 91.8525C357.551 92.0758 357.474 92.3288 357.424 92.6113H360.903V92.502C360.903 92.2878 360.865 92.0758 360.787 91.8662C360.71 91.652 360.6 91.4652 360.459 91.3057C360.322 91.1507 360.149 91.0277 359.939 90.9365C359.734 90.8408 359.495 90.793 359.222 90.793ZM364.157 93.2471C364.157 92.6865 364.223 92.1761 364.355 91.7158C364.492 91.251 364.688 90.8522 364.943 90.5195C365.194 90.1868 365.499 89.9294 365.859 89.7471C366.224 89.5602 366.634 89.4668 367.09 89.4668C367.5 89.4668 367.858 89.5397 368.163 89.6855C368.473 89.8268 368.746 90.0296 368.983 90.2939V86.5H370.617V97H369.134L369.059 96.2275C368.822 96.5192 368.539 96.7448 368.211 96.9043C367.883 97.0592 367.505 97.1367 367.076 97.1367C366.625 97.1367 366.219 97.0433 365.859 96.8564C365.499 96.665 365.194 96.4007 364.943 96.0635C364.693 95.7308 364.499 95.3366 364.362 94.8809C364.226 94.4206 364.157 93.9238 364.157 93.3906V93.2471ZM365.791 93.3906C365.791 93.7188 365.823 94.0286 365.887 94.3203C365.951 94.612 366.051 94.8649 366.188 95.0791C366.324 95.3024 366.5 95.4779 366.714 95.6055C366.928 95.7285 367.186 95.79 367.486 95.79C367.855 95.79 368.161 95.7103 368.402 95.5508C368.644 95.3867 368.838 95.1657 368.983 94.8877V91.709C368.838 91.4355 368.644 91.2191 368.402 91.0596C368.165 90.8955 367.865 90.8135 367.5 90.8135C367.195 90.8135 366.933 90.8773 366.714 91.0049C366.5 91.1325 366.326 91.3079 366.194 91.5312C366.053 91.7546 365.951 92.0143 365.887 92.3105C365.823 92.6022 365.791 92.9144 365.791 93.2471V93.3906Z" fill="#380037"/>
<path d="M389.925 90.2256C389.925 89.9111 390.025 89.6423 390.226 89.4189C390.431 89.1956 390.725 89.084 391.107 89.084C391.481 89.084 391.773 89.1956 391.982 89.4189C392.192 89.6377 392.297 89.9066 392.297 90.2256C392.297 90.5446 392.19 90.8112 391.976 91.0254C391.766 91.2396 391.477 91.3467 391.107 91.3467C390.734 91.3467 390.442 91.2396 390.232 91.0254C390.027 90.8066 389.925 90.54 389.925 90.2256ZM391.846 96.7881C391.846 97.2803 391.725 97.7793 391.483 98.2852C391.246 98.7956 390.932 99.2262 390.54 99.5771L389.624 99.0918C389.82 98.7682 389.97 98.4264 390.075 98.0664C390.185 97.7064 390.239 97.3008 390.239 96.8496V95.4072H391.846V96.7881Z" fill="#001E2E"/>
<g filter="url(#filter0_b_7656_3320)">
<g clip-path="url(#clip0_7656_3320)">
<rect x="228" y="24" width="46" height="20.0001" rx="4" fill="#8194A2"/>
<rect width="46" height="20.0001" transform="translate(228 24)" fill="#8194A2"/>
<path d="M235.671 38L234.629 32.1885H235.993L236.428 35.6421L236.498 36.1953L236.6 35.6421L237.229 32.1885H238.228L238.856 35.626L238.958 36.1792L239.033 35.6152L239.463 32.1885H240.833L239.791 38H238.48L237.841 34.8955L237.717 34.3047L237.599 34.8955L236.981 38H235.671ZM242.245 32.1885H245.409V36.7861H246.982V38H242.245V36.7861H243.899V33.4077H242.245V32.1885ZM243.792 30.7007C243.792 30.5861 243.812 30.4805 243.851 30.3838C243.894 30.2835 243.953 30.1976 244.028 30.126C244.104 30.0579 244.193 30.0042 244.297 29.9648C244.404 29.9255 244.522 29.9058 244.651 29.9058C244.916 29.9058 245.126 29.981 245.28 30.1313C245.437 30.2782 245.516 30.4679 245.516 30.7007C245.516 30.9334 245.437 31.125 245.28 31.2754C245.126 31.4222 244.916 31.4956 244.651 31.4956C244.522 31.4956 244.404 31.4759 244.297 31.4365C244.193 31.3971 244.104 31.3416 244.028 31.27C243.953 31.202 243.894 31.1196 243.851 31.0229C243.812 30.9227 243.792 30.8153 243.792 30.7007ZM248.298 35.0513C248.298 34.6108 248.348 34.208 248.449 33.8428C248.553 33.4775 248.703 33.1642 248.9 32.9028C249.097 32.6414 249.335 32.4391 249.614 32.2959C249.897 32.1527 250.219 32.0811 250.581 32.0811C250.885 32.0811 251.152 32.1366 251.381 32.2476C251.614 32.355 251.82 32.509 251.999 32.7095V29.75H253.498V38H252.149L252.074 37.3931C251.892 37.6187 251.677 37.7941 251.43 37.9194C251.183 38.0448 250.896 38.1074 250.57 38.1074C250.216 38.1074 249.897 38.034 249.614 37.8872C249.335 37.7368 249.099 37.5309 248.905 37.2695C248.708 37.0081 248.558 36.6984 248.454 36.3403C248.35 35.9787 248.298 35.5866 248.298 35.1641V35.0513ZM249.792 35.1641C249.792 35.4076 249.811 35.6349 249.851 35.8462C249.894 36.0539 249.962 36.2347 250.055 36.3887C250.148 36.5462 250.268 36.6698 250.415 36.7593C250.561 36.8488 250.74 36.8936 250.952 36.8936C251.209 36.8936 251.423 36.8381 251.591 36.7271C251.763 36.616 251.899 36.4639 251.999 36.2705V33.918C251.899 33.721 251.764 33.5688 251.596 33.4614C251.428 33.3504 251.217 33.2949 250.962 33.2949C250.751 33.2949 250.57 33.3415 250.42 33.4346C250.273 33.5241 250.153 33.6476 250.06 33.8052C249.967 33.9663 249.899 34.1543 249.856 34.3691C249.813 34.5804 249.792 34.8078 249.792 35.0513V35.1641ZM257.8 30.7651V32.1885H259.97V33.2896H257.8V35.7871C257.8 35.9984 257.823 36.1756 257.87 36.3188C257.92 36.4585 257.99 36.5695 258.079 36.6519C258.169 36.7378 258.276 36.7987 258.401 36.8345C258.53 36.8703 258.674 36.8882 258.831 36.8882C258.946 36.8882 259.062 36.8828 259.18 36.8721C259.302 36.8613 259.418 36.847 259.529 36.8291C259.637 36.8148 259.737 36.7987 259.83 36.7808C259.927 36.7629 260.009 36.745 260.077 36.7271L260.222 37.7529C260.118 37.8138 259.997 37.8675 259.857 37.9141C259.717 37.957 259.569 37.9928 259.411 38.0215C259.254 38.0501 259.089 38.0716 258.917 38.0859C258.749 38.1038 258.582 38.1128 258.417 38.1128C258.099 38.1128 257.809 38.0716 257.547 37.9893C257.29 37.9033 257.069 37.7708 256.887 37.5918C256.701 37.4163 256.557 37.1925 256.457 36.9204C256.357 36.6447 256.307 36.3153 256.307 35.9321V33.2896H254.98V32.1885H256.307V30.7651H257.8ZM263.16 32.9888C263.235 32.8778 263.318 32.7757 263.407 32.6826C263.5 32.5859 263.597 32.5018 263.697 32.4302C263.851 32.3192 264.021 32.2332 264.208 32.1724C264.394 32.1115 264.591 32.0811 264.798 32.0811C265.103 32.0811 265.382 32.1276 265.636 32.2207C265.89 32.3102 266.109 32.4517 266.292 32.645C266.474 32.8384 266.616 33.0872 266.716 33.3916C266.82 33.6924 266.872 34.0558 266.872 34.4819V38H265.378V34.4712C265.378 34.2635 265.352 34.0845 265.298 33.9341C265.248 33.7837 265.174 33.6619 265.078 33.5688C264.981 33.4757 264.865 33.4077 264.729 33.3647C264.592 33.3182 264.438 33.2949 264.267 33.2949C264.134 33.2949 264.011 33.3075 263.896 33.3325C263.781 33.3576 263.678 33.3952 263.584 33.4453C263.499 33.4883 263.42 33.5402 263.348 33.6011C263.28 33.6619 263.217 33.73 263.16 33.8052V38H261.667V29.75H263.16V32.9888Z" fill="white"/>
</g>
</g>
<path d="M251 44V77.9999" stroke="#8194A2" stroke-linejoin="round"/>
<circle cx="251" cy="80" r="2" fill="#8194A2"/>
<circle cx="305" cy="104" r="2" fill="#8194A2"/>
<path d="M305 106V140" stroke="#8194A2" stroke-linejoin="round"/>
<g filter="url(#filter1_b_7656_3320)">
<g clip-path="url(#clip1_7656_3320)">
<rect x="282" y="140" width="46" height="20.0001" rx="4" fill="#8194A2"/>
<rect width="46" height="20.0001" transform="translate(282 140)" fill="#8194A2"/>
<path d="M292.99 152.405C292.99 152.315 292.969 152.236 292.926 152.168C292.886 152.1 292.815 152.036 292.711 151.975C292.604 151.918 292.462 151.864 292.287 151.814C292.111 151.764 291.889 151.714 291.621 151.664C291.28 151.596 290.969 151.511 290.686 151.411C290.407 151.307 290.167 151.182 289.966 151.035C289.766 150.892 289.608 150.725 289.494 150.536C289.383 150.346 289.327 150.127 289.327 149.88C289.327 149.64 289.384 149.411 289.499 149.193C289.614 148.974 289.778 148.783 289.993 148.618C290.208 148.453 290.469 148.323 290.777 148.226C291.085 148.129 291.433 148.081 291.819 148.081C292.224 148.081 292.587 148.129 292.91 148.226C293.232 148.319 293.506 148.448 293.731 148.613C293.953 148.781 294.124 148.98 294.242 149.209C294.36 149.438 294.419 149.687 294.419 149.956H292.926C292.926 149.859 292.91 149.769 292.877 149.687C292.845 149.601 292.797 149.524 292.732 149.456C292.643 149.367 292.521 149.295 292.367 149.241C292.217 149.188 292.034 149.161 291.819 149.161C291.637 149.161 291.477 149.179 291.341 149.214C291.205 149.25 291.094 149.3 291.008 149.365C290.93 149.422 290.869 149.49 290.826 149.569C290.786 149.644 290.767 149.725 290.767 149.811C290.767 149.896 290.785 149.977 290.82 150.052C290.856 150.124 290.921 150.188 291.014 150.246C291.103 150.306 291.227 150.362 291.384 150.412C291.542 150.459 291.742 150.5 291.986 150.536C292.337 150.593 292.663 150.666 292.963 150.756C293.264 150.845 293.524 150.96 293.742 151.1C293.961 151.243 294.131 151.417 294.252 151.621C294.378 151.821 294.44 152.061 294.44 152.34C294.44 152.598 294.378 152.836 294.252 153.055C294.131 153.27 293.957 153.456 293.731 153.613C293.502 153.771 293.227 153.894 292.904 153.984C292.582 154.07 292.222 154.113 291.825 154.113C291.388 154.113 291.001 154.056 290.665 153.941C290.332 153.826 290.052 153.676 289.827 153.49C289.601 153.307 289.429 153.099 289.311 152.867C289.196 152.63 289.139 152.394 289.139 152.158H290.562C290.573 152.315 290.616 152.451 290.691 152.566C290.767 152.677 290.863 152.766 290.981 152.834C291.1 152.906 291.234 152.958 291.384 152.99C291.538 153.022 291.696 153.039 291.857 153.039C292.05 153.039 292.219 153.022 292.362 152.99C292.509 152.954 292.629 152.908 292.722 152.851C292.811 152.793 292.877 152.727 292.92 152.652C292.967 152.577 292.99 152.494 292.99 152.405ZM298.587 146.765V148.188H300.757V149.29H298.587V151.787C298.587 151.998 298.61 152.176 298.657 152.319C298.707 152.458 298.777 152.569 298.866 152.652C298.956 152.738 299.063 152.799 299.188 152.834C299.317 152.87 299.461 152.888 299.618 152.888C299.733 152.888 299.849 152.883 299.967 152.872C300.089 152.861 300.205 152.847 300.316 152.829C300.424 152.815 300.524 152.799 300.617 152.781C300.714 152.763 300.796 152.745 300.864 152.727L301.009 153.753C300.905 153.814 300.784 153.868 300.644 153.914C300.504 153.957 300.356 153.993 300.198 154.021C300.041 154.05 299.876 154.072 299.704 154.086C299.536 154.104 299.369 154.113 299.205 154.113C298.886 154.113 298.596 154.072 298.334 153.989C298.077 153.903 297.856 153.771 297.674 153.592C297.488 153.416 297.344 153.193 297.244 152.92C297.144 152.645 297.094 152.315 297.094 151.932V149.29H295.767V148.188H297.094V146.765H298.587ZM303.373 156.347C303.229 156.347 303.104 156.338 302.997 156.32C302.893 156.302 302.776 156.276 302.647 156.24L302.83 155.101C302.891 155.101 302.968 155.103 303.061 155.106C303.158 155.114 303.235 155.117 303.292 155.117C303.41 155.117 303.514 155.08 303.604 155.004C303.697 154.933 303.775 154.854 303.84 154.768C303.904 154.682 303.951 154.618 303.979 154.575C304.012 154.532 304.049 154.471 304.092 154.392L304.436 153.753L301.976 148.188H303.609L304.941 151.594L305.102 152.185L305.322 151.604L306.649 148.188H308.298L305.349 154.87C305.285 155.017 305.201 155.176 305.097 155.348C304.996 155.52 304.869 155.679 304.715 155.826C304.561 155.973 304.373 156.097 304.151 156.197C303.933 156.297 303.673 156.347 303.373 156.347ZM309.372 145.75H312.622V152.786H314.287V154H309.372V152.786H311.112V146.969H309.372V145.75ZM318.487 154.107C318.039 154.107 317.633 154.034 317.268 153.887C316.902 153.74 316.589 153.54 316.328 153.286C316.066 153.035 315.864 152.74 315.721 152.399C315.581 152.056 315.511 151.689 315.511 151.298V151.083C315.511 150.639 315.581 150.235 315.721 149.87C315.86 149.501 316.056 149.184 316.306 148.919C316.557 148.654 316.854 148.448 317.198 148.301C317.542 148.154 317.916 148.081 318.32 148.081C318.739 148.081 319.112 148.151 319.438 148.291C319.767 148.427 320.046 148.62 320.275 148.871C320.501 149.121 320.673 149.424 320.791 149.778C320.909 150.129 320.968 150.518 320.968 150.944V151.578H317.026V151.594C317.076 151.826 317.14 152.014 317.219 152.158C317.298 152.297 317.404 152.424 317.536 152.539C317.672 152.657 317.828 152.749 318.003 152.813C318.179 152.877 318.37 152.91 318.578 152.91C318.872 152.91 319.156 152.854 319.432 152.743C319.708 152.632 319.932 152.466 320.104 152.244L320.85 153.049C320.66 153.318 320.36 153.561 319.948 153.78C319.536 153.998 319.049 154.107 318.487 154.107ZM318.31 149.29C318.141 149.29 317.987 149.32 317.848 149.381C317.708 149.438 317.586 149.522 317.482 149.633C317.375 149.744 317.285 149.877 317.214 150.031C317.142 150.185 317.089 150.357 317.053 150.546H319.502V150.428C319.502 150.271 319.473 150.122 319.416 149.982C319.359 149.843 319.28 149.721 319.18 149.617C319.079 149.517 318.956 149.438 318.809 149.381C318.666 149.32 318.499 149.29 318.31 149.29Z" fill="white"/>
</g>
</g>
<g filter="url(#filter2_b_7656_3320)">
<g clip-path="url(#clip2_7656_3320)">
<rect x="337" y="24" width="46" height="20.0001" rx="4" fill="#8194A2"/>
<rect width="46" height="20.0001" transform="translate(337 24)" fill="#8194A2"/>
<path d="M346.814 36.915C346.961 36.915 347.1 36.8936 347.233 36.8506C347.365 36.8076 347.482 36.7467 347.582 36.668C347.682 36.5892 347.759 36.4943 347.813 36.3833C347.87 36.2723 347.895 36.1488 347.888 36.0127H349.295C349.303 36.3135 349.24 36.5928 349.107 36.8506C348.979 37.1084 348.801 37.3304 348.576 37.5166C348.35 37.7028 348.087 37.8496 347.786 37.957C347.489 38.0609 347.174 38.1128 346.841 38.1128C346.39 38.1128 345.994 38.0376 345.654 37.8872C345.314 37.7332 345.031 37.5238 344.805 37.2588C344.576 36.9938 344.402 36.6841 344.284 36.3296C344.17 35.9715 344.112 35.5884 344.112 35.1802V35.019C344.112 34.6108 344.17 34.2295 344.284 33.875C344.399 33.5169 344.571 33.2054 344.8 32.9404C345.029 32.6755 345.312 32.466 345.648 32.312C345.989 32.158 346.382 32.0811 346.83 32.0811C347.188 32.0811 347.519 32.1348 347.824 32.2422C348.128 32.3496 348.391 32.5 348.613 32.6934C348.832 32.8903 349.002 33.1284 349.124 33.4077C349.245 33.6834 349.303 33.9932 349.295 34.3369H347.888C347.895 34.1937 347.874 34.0576 347.824 33.9287C347.774 33.7998 347.7 33.6888 347.604 33.5957C347.507 33.5026 347.39 33.4292 347.254 33.3755C347.118 33.3182 346.97 33.2896 346.809 33.2896C346.572 33.2896 346.377 33.3379 346.223 33.4346C346.069 33.5312 345.947 33.6602 345.858 33.8213C345.765 33.9824 345.699 34.1668 345.659 34.3745C345.623 34.5822 345.605 34.797 345.605 35.019V35.1802C345.605 35.4058 345.623 35.6242 345.659 35.8354C345.695 36.0431 345.759 36.2257 345.853 36.3833C345.942 36.5444 346.064 36.6733 346.218 36.77C346.375 36.8667 346.574 36.915 346.814 36.915ZM350.644 35.0405C350.644 34.618 350.704 34.2277 350.826 33.8696C350.948 33.508 351.127 33.1947 351.363 32.9297C351.596 32.6647 351.881 32.457 352.217 32.3066C352.557 32.1562 352.946 32.0811 353.383 32.0811C353.82 32.0811 354.208 32.1562 354.548 32.3066C354.889 32.457 355.177 32.6647 355.413 32.9297C355.646 33.1947 355.823 33.508 355.945 33.8696C356.067 34.2277 356.127 34.618 356.127 35.0405V35.1533C356.127 35.5794 356.067 35.9733 355.945 36.335C355.823 36.693 355.646 37.0046 355.413 37.2695C355.18 37.5345 354.894 37.7422 354.554 37.8926C354.214 38.0394 353.827 38.1128 353.394 38.1128C352.957 38.1128 352.566 38.0394 352.223 37.8926C351.882 37.7422 351.596 37.5345 351.363 37.2695C351.127 37.0046 350.948 36.693 350.826 36.335C350.704 35.9733 350.644 35.5794 350.644 35.1533V35.0405ZM352.137 35.1533C352.137 35.3968 352.16 35.626 352.207 35.8408C352.253 36.0521 352.326 36.2365 352.427 36.394C352.527 36.5552 352.656 36.6823 352.813 36.7754C352.975 36.8685 353.168 36.915 353.394 36.915C353.612 36.915 353.8 36.8685 353.958 36.7754C354.115 36.6823 354.244 36.5552 354.344 36.394C354.441 36.2365 354.513 36.0521 354.559 35.8408C354.606 35.626 354.629 35.3968 354.629 35.1533V35.0405C354.629 34.8042 354.606 34.5804 354.559 34.3691C354.513 34.1579 354.441 33.9717 354.344 33.8105C354.244 33.6494 354.115 33.5223 353.958 33.4292C353.8 33.3361 353.608 33.2896 353.383 33.2896C353.161 33.2896 352.971 33.3361 352.813 33.4292C352.656 33.5223 352.527 33.6494 352.427 33.8105C352.326 33.9717 352.253 34.1579 352.207 34.3691C352.16 34.5804 352.137 34.8042 352.137 35.0405V35.1533ZM357.766 29.75H361.015V36.7861H362.68V38H357.766V36.7861H359.506V30.9692H357.766V29.75ZM363.856 35.0405C363.856 34.618 363.917 34.2277 364.039 33.8696C364.161 33.508 364.34 33.1947 364.576 32.9297C364.809 32.6647 365.094 32.457 365.43 32.3066C365.77 32.1562 366.159 32.0811 366.596 32.0811C367.033 32.0811 367.421 32.1562 367.761 32.3066C368.101 32.457 368.39 32.6647 368.626 32.9297C368.859 33.1947 369.036 33.508 369.158 33.8696C369.279 34.2277 369.34 34.618 369.34 35.0405V35.1533C369.34 35.5794 369.279 35.9733 369.158 36.335C369.036 36.693 368.859 37.0046 368.626 37.2695C368.393 37.5345 368.107 37.7422 367.767 37.8926C367.426 38.0394 367.04 38.1128 366.606 38.1128C366.17 38.1128 365.779 38.0394 365.436 37.8926C365.095 37.7422 364.809 37.5345 364.576 37.2695C364.34 37.0046 364.161 36.693 364.039 36.335C363.917 35.9733 363.856 35.5794 363.856 35.1533V35.0405ZM365.35 35.1533C365.35 35.3968 365.373 35.626 365.419 35.8408C365.466 36.0521 365.539 36.2365 365.64 36.394C365.74 36.5552 365.869 36.6823 366.026 36.7754C366.188 36.8685 366.381 36.915 366.606 36.915C366.825 36.915 367.013 36.8685 367.17 36.7754C367.328 36.6823 367.457 36.5552 367.557 36.394C367.654 36.2365 367.725 36.0521 367.772 35.8408C367.819 35.626 367.842 35.3968 367.842 35.1533V35.0405C367.842 34.8042 367.819 34.5804 367.772 34.3691C367.725 34.1579 367.654 33.9717 367.557 33.8105C367.457 33.6494 367.328 33.5223 367.17 33.4292C367.013 33.3361 366.821 33.2896 366.596 33.2896C366.374 33.2896 366.184 33.3361 366.026 33.4292C365.869 33.5223 365.74 33.6494 365.64 33.8105C365.539 33.9717 365.466 34.1579 365.419 34.3691C365.373 34.5804 365.35 34.8042 365.35 35.0405V35.1533ZM374.84 32.0811C375.066 32.0811 375.274 32.0972 375.463 32.1294C375.657 32.158 375.812 32.1903 375.931 32.2261L375.71 33.7139C375.514 33.6673 375.311 33.6333 375.104 33.6118C374.899 33.5868 374.704 33.5742 374.518 33.5742C374.325 33.5742 374.149 33.5921 373.992 33.6279C373.838 33.6602 373.7 33.7103 373.578 33.7783C373.431 33.8571 373.306 33.9574 373.202 34.0791C373.098 34.2008 373.012 34.3441 372.944 34.5088V38H371.451V32.1885H372.842L372.901 33.0103L372.912 33.1392C373.148 32.8097 373.431 32.5519 373.761 32.3657C374.09 32.1759 374.45 32.0811 374.84 32.0811Z" fill="white"/>
</g>
</g>
<path d="M360 44V77.9999" stroke="#8194A2" stroke-linejoin="round"/>
<circle cx="360" cy="80" r="2" fill="#8194A2"/>
<defs>
<filter id="filter0_b_7656_3320" x="-22" y="-226" width="546" height="520" filterUnits="userSpaceOnUse" color-interpolation-filters="sRGB">
<feFlood flood-opacity="0" result="BackgroundImageFix"/>
<feGaussianBlur in="BackgroundImageFix" stdDeviation="125"/>
<feComposite in2="SourceAlpha" operator="in" result="effect1_backgroundBlur_7656_3320"/>
<feBlend mode="normal" in="SourceGraphic" in2="effect1_backgroundBlur_7656_3320" result="shape"/>
</filter>
<filter id="filter1_b_7656_3320" x="32" y="-110" width="546" height="520" filterUnits="userSpaceOnUse" color-interpolation-filters="sRGB">
<feFlood flood-opacity="0" result="BackgroundImageFix"/>
<feGaussianBlur in="BackgroundImageFix" stdDeviation="125"/>
<feComposite in2="SourceAlpha" operator="in" result="effect1_backgroundBlur_7656_3320"/>
<feBlend mode="normal" in="SourceGraphic" in2="effect1_backgroundBlur_7656_3320" result="shape"/>
</filter>
<filter id="filter2_b_7656_3320" x="87" y="-226" width="546" height="520" filterUnits="userSpaceOnUse" color-interpolation-filters="sRGB">
<feFlood flood-opacity="0" result="BackgroundImageFix"/>
<feGaussianBlur in="BackgroundImageFix" stdDeviation="125"/>
<feComposite in2="SourceAlpha" operator="in" result="effect1_backgroundBlur_7656_3320"/>
<feBlend mode="normal" in="SourceGraphic" in2="effect1_backgroundBlur_7656_3320" result="shape"/>
</filter>
<clipPath id="clip0_7656_3320">
<rect x="228" y="24" width="46" height="20.0001" rx="4" fill="white"/>
</clipPath>
<clipPath id="clip1_7656_3320">
<rect x="282" y="140" width="46" height="20.0001" rx="4" fill="white"/>
</clipPath>
<clipPath id="clip2_7656_3320">
<rect x="337" y="24" width="46" height="20.0001" rx="4" fill="white"/>
</clipPath>
</defs>
</svg>
