<svg width="560" height="224" viewBox="0 0 560 224" fill="none" xmlns="http://www.w3.org/2000/svg">
<rect width="560" height="224" fill="#87CEFF" fill-opacity="0.16"/>
<rect x="59.5" y="48.5" width="237" height="39" rx="7.5" fill="#E5F2FF"/>
<rect x="59.5" y="48.5" width="237" height="39" rx="7.5" stroke="#87CEFF"/>
<path d="M78.2461 69.2881H72.7432V67.9619H78.2461V69.2881ZM86.6543 69.2881H81.1514V67.9619H86.6543V69.2881ZM88.5752 69.2334C88.5752 68.6956 88.6527 68.1989 88.8076 67.7432C88.9626 67.2829 89.1882 66.8841 89.4844 66.5469C89.776 66.2096 90.1338 65.9453 90.5576 65.7539C90.9814 65.5625 91.4645 65.4668 92.0068 65.4668C92.5492 65.4668 93.0322 65.5625 93.4561 65.7539C93.8844 65.9453 94.2467 66.2096 94.543 66.5469C94.8346 66.8841 95.0579 67.2829 95.2129 67.7432C95.3678 68.1989 95.4453 68.6956 95.4453 69.2334V69.377C95.4453 69.9193 95.3678 70.4183 95.2129 70.874C95.0579 71.3298 94.8346 71.7262 94.543 72.0635C94.2513 72.4007 93.8913 72.665 93.4629 72.8564C93.0391 73.0479 92.5583 73.1436 92.0205 73.1436C91.4782 73.1436 90.9928 73.0479 90.5645 72.8564C90.1361 72.665 89.776 72.4007 89.4844 72.0635C89.1882 71.7262 88.9626 71.3298 88.8076 70.874C88.6527 70.4183 88.5752 69.9193 88.5752 69.377V69.2334ZM90.209 69.377C90.209 69.7096 90.2432 70.0241 90.3115 70.3203C90.3844 70.6165 90.4961 70.8763 90.6465 71.0996C90.7923 71.3229 90.9792 71.5007 91.207 71.6328C91.4349 71.7604 91.7061 71.8242 92.0205 71.8242C92.3258 71.8242 92.5924 71.7604 92.8203 71.6328C93.0482 71.5007 93.235 71.3229 93.3809 71.0996C93.5267 70.8763 93.6338 70.6165 93.7021 70.3203C93.7751 70.0241 93.8115 69.7096 93.8115 69.377V69.2334C93.8115 68.9098 93.7751 68.5999 93.7021 68.3037C93.6292 68.0075 93.5221 67.7477 93.3809 67.5244C93.2305 67.3011 93.0413 67.1234 92.8135 66.9912C92.5902 66.859 92.3213 66.793 92.0068 66.793C91.6969 66.793 91.4281 66.859 91.2002 66.9912C90.9769 67.1234 90.7923 67.3011 90.6465 67.5244C90.4961 67.7477 90.3844 68.0075 90.3115 68.3037C90.2432 68.5999 90.209 68.9098 90.209 69.2334V69.377ZM102.397 65.4668C102.662 65.4668 102.917 65.485 103.163 65.5215C103.414 65.5579 103.61 65.6012 103.751 65.6514L103.519 67.2646C103.268 67.21 103.02 67.1689 102.773 67.1416C102.532 67.1143 102.29 67.1006 102.049 67.1006C101.775 67.1006 101.529 67.1279 101.311 67.1826C101.092 67.2373 100.898 67.3216 100.729 67.4355C100.547 67.5449 100.392 67.6839 100.265 67.8525C100.137 68.0212 100.03 68.2148 99.9434 68.4336V73H98.3096V65.6035H99.8408L99.9092 66.6289L99.916 66.7998C100.217 66.3851 100.577 66.0592 100.996 65.8223C101.42 65.5853 101.887 65.4668 102.397 65.4668ZM110.416 73C110.366 72.9089 110.325 72.7995 110.293 72.6719C110.266 72.5397 110.241 72.403 110.218 72.2617C110.104 72.3802 109.974 72.4941 109.828 72.6035C109.687 72.7083 109.527 72.7995 109.35 72.877C109.172 72.959 108.98 73.0228 108.775 73.0684C108.57 73.1139 108.349 73.1367 108.112 73.1367C107.729 73.1367 107.379 73.082 107.06 72.9727C106.745 72.8587 106.476 72.7038 106.253 72.5078C106.025 72.3164 105.847 72.0863 105.72 71.8174C105.597 71.5439 105.535 71.25 105.535 70.9355C105.535 70.5299 105.615 70.1722 105.774 69.8623C105.938 69.5479 106.175 69.2881 106.485 69.083C106.772 68.8916 107.126 68.7458 107.545 68.6455C107.969 68.5452 108.447 68.4951 108.98 68.4951H110.17V67.9961C110.17 67.8047 110.136 67.6315 110.067 67.4766C110.004 67.3216 109.91 67.1872 109.787 67.0732C109.655 66.9593 109.493 66.8727 109.302 66.8135C109.115 66.7497 108.898 66.7178 108.652 66.7178C108.429 66.7178 108.233 66.7451 108.064 66.7998C107.9 66.8545 107.764 66.9297 107.654 67.0254C107.545 67.112 107.463 67.2191 107.408 67.3467C107.358 67.4697 107.333 67.6019 107.333 67.7432H105.692C105.697 67.4469 105.768 67.1621 105.904 66.8887C106.041 66.6152 106.242 66.3737 106.506 66.1641C106.761 65.9499 107.076 65.7812 107.449 65.6582C107.827 65.5306 108.258 65.4668 108.741 65.4668C109.174 65.4668 109.577 65.5215 109.951 65.6309C110.329 65.7357 110.655 65.8929 110.929 66.1025C111.202 66.3122 111.416 66.5788 111.571 66.9023C111.726 67.2214 111.804 67.5905 111.804 68.0098V71.2979C111.804 71.6305 111.826 71.9313 111.872 72.2002C111.922 72.4645 111.993 72.6924 112.084 72.8838V73H110.416ZM108.427 71.8242C108.641 71.8242 108.839 71.7969 109.021 71.7422C109.208 71.6875 109.377 71.6169 109.527 71.5303C109.678 71.4437 109.808 71.3457 109.917 71.2363C110.026 71.127 110.111 71.013 110.17 70.8945V69.5273H109.117C108.762 69.5273 108.454 69.5615 108.194 69.6299C107.935 69.6937 107.727 69.7871 107.572 69.9102C107.436 70.015 107.333 70.1403 107.265 70.2861C107.201 70.432 107.169 70.596 107.169 70.7783C107.169 70.9287 107.196 71.07 107.251 71.2021C107.306 71.3298 107.385 71.4391 107.49 71.5303C107.595 71.6214 107.725 71.6943 107.88 71.749C108.035 71.7992 108.217 71.8242 108.427 71.8242ZM114.101 73V65.6035H115.577L115.68 66.6562C115.78 66.515 115.889 66.3851 116.008 66.2666C116.131 66.1436 116.261 66.0342 116.397 65.9385C116.616 65.7881 116.855 65.6719 117.115 65.5898C117.375 65.5078 117.648 65.4668 117.936 65.4668C118.314 65.4668 118.66 65.5215 118.975 65.6309C119.289 65.7402 119.558 65.9134 119.781 66.1504C120.005 66.3874 120.178 66.6904 120.301 67.0596C120.424 67.4242 120.485 67.8662 120.485 68.3857V73H118.852V68.4131C118.852 68.1077 118.817 67.8525 118.749 67.6475C118.681 67.4424 118.58 67.2783 118.448 67.1553C118.316 67.0322 118.157 66.9456 117.97 66.8955C117.783 66.8408 117.569 66.8135 117.327 66.8135C117.127 66.8135 116.94 66.8408 116.767 66.8955C116.593 66.9456 116.436 67.0186 116.295 67.1143C116.186 67.1872 116.083 67.276 115.987 67.3809C115.892 67.4857 115.807 67.5996 115.734 67.7227V73H114.101ZM122.297 69.2471C122.297 68.6865 122.365 68.1761 122.502 67.7158C122.639 67.251 122.837 66.8522 123.097 66.5195C123.356 66.1868 123.669 65.9294 124.033 65.7471C124.402 65.5602 124.817 65.4668 125.277 65.4668C125.551 65.4668 125.799 65.4964 126.022 65.5557C126.246 65.6104 126.449 65.6924 126.631 65.8018C126.749 65.8701 126.861 65.9521 126.966 66.0479C127.071 66.139 127.169 66.2393 127.26 66.3486L127.328 65.6035H128.812V72.7949C128.812 73.2917 128.729 73.7314 128.565 74.1143C128.406 74.5016 128.18 74.8298 127.889 75.0986C127.592 75.363 127.237 75.5635 126.822 75.7002C126.412 75.8415 125.959 75.9121 125.462 75.9121C125.252 75.9121 125.022 75.8893 124.771 75.8438C124.521 75.7982 124.27 75.7275 124.02 75.6318C123.769 75.5361 123.53 75.4108 123.302 75.2559C123.074 75.1009 122.878 74.9141 122.714 74.6953L123.486 73.7041C123.618 73.8636 123.76 74.0003 123.91 74.1143C124.065 74.2327 124.222 74.3285 124.382 74.4014C124.541 74.4743 124.703 74.5267 124.867 74.5586C125.031 74.5951 125.198 74.6133 125.366 74.6133C125.658 74.6133 125.915 74.5723 126.139 74.4902C126.367 74.4082 126.56 74.2897 126.72 74.1348C126.866 73.9844 126.977 73.7998 127.055 73.5811C127.137 73.3623 127.178 73.1139 127.178 72.8359V72.3232C127.082 72.4235 126.982 72.5169 126.877 72.6035C126.777 72.6901 126.667 72.7653 126.549 72.8291C126.371 72.9294 126.175 73.0046 125.961 73.0547C125.747 73.1094 125.514 73.1367 125.264 73.1367C124.808 73.1367 124.398 73.0433 124.033 72.8564C123.669 72.665 123.356 72.4007 123.097 72.0635C122.841 71.7308 122.643 71.3366 122.502 70.8809C122.365 70.4206 122.297 69.9238 122.297 69.3906V69.2471ZM123.938 69.3906C123.938 69.7188 123.969 70.0286 124.033 70.3203C124.102 70.612 124.209 70.8649 124.354 71.0791C124.496 71.3024 124.676 71.4779 124.895 71.6055C125.113 71.7285 125.373 71.79 125.674 71.79C125.861 71.79 126.029 71.7695 126.18 71.7285C126.335 71.6875 126.474 71.6305 126.597 71.5576C126.72 71.4801 126.829 71.3867 126.925 71.2773C127.021 71.168 127.105 71.0472 127.178 70.915V67.6748C127.105 67.5381 127.016 67.415 126.911 67.3057C126.811 67.1963 126.695 67.1029 126.562 67.0254C126.444 66.9616 126.312 66.9115 126.166 66.875C126.02 66.834 125.861 66.8135 125.688 66.8135C125.382 66.8135 125.12 66.8773 124.901 67.0049C124.683 67.1325 124.503 67.3079 124.361 67.5312C124.215 67.7546 124.108 68.0143 124.04 68.3105C123.972 68.6022 123.938 68.9144 123.938 69.2471V69.3906ZM134.369 73.1367C133.822 73.1367 133.321 73.0456 132.865 72.8633C132.414 72.681 132.027 72.4281 131.703 72.1045C131.38 71.7855 131.129 71.4095 130.951 70.9766C130.778 70.5391 130.691 70.0674 130.691 69.5615V69.2812C130.691 68.7025 130.783 68.1784 130.965 67.709C131.147 67.2396 131.398 66.8385 131.717 66.5059C132.036 66.1732 132.405 65.918 132.824 65.7402C133.248 65.5579 133.699 65.4668 134.178 65.4668C134.711 65.4668 135.183 65.5579 135.593 65.7402C136.003 65.918 136.347 66.1663 136.625 66.4854C136.903 66.8089 137.113 67.194 137.254 67.6406C137.395 68.0872 137.466 68.5749 137.466 69.1035V69.8076H132.339V69.8418C132.389 70.1654 132.466 70.4365 132.571 70.6553C132.676 70.874 132.82 71.07 133.002 71.2432C133.184 71.4255 133.398 71.5667 133.645 71.667C133.895 71.7673 134.169 71.8174 134.465 71.8174C134.87 71.8174 135.249 71.7399 135.6 71.585C135.951 71.4255 136.24 71.1999 136.468 70.9082L137.343 71.7559C137.097 72.1113 136.718 72.4303 136.208 72.7129C135.702 72.9954 135.089 73.1367 134.369 73.1367ZM134.171 66.793C133.938 66.793 133.722 66.8363 133.521 66.9229C133.326 67.0049 133.15 67.1234 132.995 67.2783C132.84 67.4378 132.71 67.6292 132.605 67.8525C132.501 68.0758 132.423 68.3288 132.373 68.6113H135.853V68.502C135.853 68.2878 135.814 68.0758 135.736 67.8662C135.659 67.652 135.549 67.4652 135.408 67.3057C135.271 67.1507 135.098 67.0277 134.889 66.9365C134.684 66.8408 134.444 66.793 134.171 66.793ZM141.561 72.0156C141.561 71.7012 141.661 71.4323 141.861 71.209C142.066 70.9857 142.36 70.874 142.743 70.874C143.117 70.874 143.409 70.9857 143.618 71.209C143.828 71.4277 143.933 71.6966 143.933 72.0156C143.933 72.3346 143.826 72.6012 143.611 72.8154C143.402 73.0296 143.112 73.1367 142.743 73.1367C142.369 73.1367 142.078 73.0296 141.868 72.8154C141.663 72.5967 141.561 72.3301 141.561 72.0156ZM141.561 66.2256C141.561 65.9111 141.661 65.6423 141.861 65.4189C142.066 65.1956 142.36 65.084 142.743 65.084C143.117 65.084 143.409 65.1956 143.618 65.4189C143.828 65.6377 143.933 65.9066 143.933 66.2256C143.933 66.5446 143.826 66.8112 143.611 67.0254C143.402 67.2396 143.112 67.3467 142.743 67.3467C142.369 67.3467 142.078 67.2396 141.868 67.0254C141.663 66.8066 141.561 66.54 141.561 66.2256Z" fill="#001E2E"/>
<rect x="155.5" y="56.5" width="112" height="23" rx="5.5" fill="#FFEBF7"/>
<rect x="155.5" y="56.5" width="112" height="23" rx="5.5" stroke="#FFADF3"/>
<path d="M168.396 73H161.718V71.8652L164.958 68.3379C165.227 68.0417 165.452 67.7773 165.635 67.5449C165.817 67.3079 165.965 67.0915 166.079 66.8955C166.188 66.6995 166.266 66.5173 166.312 66.3486C166.362 66.1755 166.387 66.0023 166.387 65.8291C166.387 65.5967 166.353 65.3848 166.284 65.1934C166.216 65.002 166.116 64.8379 165.983 64.7012C165.851 64.5645 165.692 64.4574 165.505 64.3799C165.323 64.3024 165.118 64.2637 164.89 64.2637C164.598 64.2637 164.345 64.3047 164.131 64.3867C163.917 64.4688 163.739 64.585 163.598 64.7354C163.452 64.8949 163.342 65.0885 163.27 65.3164C163.197 65.5397 163.16 65.7949 163.16 66.082H161.52C161.52 65.6491 161.599 65.2412 161.759 64.8584C161.918 64.471 162.146 64.1338 162.442 63.8467C162.734 63.5596 163.09 63.3317 163.509 63.1631C163.933 62.9945 164.404 62.9102 164.924 62.9102C165.411 62.9102 165.847 62.9808 166.229 63.1221C166.617 63.2633 166.943 63.4593 167.207 63.71C167.467 63.9606 167.665 64.2614 167.802 64.6123C167.938 64.9587 168.007 65.3415 168.007 65.7607C168.007 66.0752 167.954 66.3805 167.85 66.6768C167.749 66.9684 167.61 67.2578 167.433 67.5449C167.25 67.832 167.034 68.1214 166.783 68.4131C166.537 68.7048 166.268 69.0055 165.977 69.3154L163.762 71.6807H168.396V73ZM170.714 68.0645L171.247 63.0469H176.6V64.4961H172.607L172.348 66.8818C172.512 66.7861 172.726 66.695 172.99 66.6084C173.259 66.5218 173.567 66.4785 173.913 66.4785C174.382 66.4785 174.802 66.556 175.171 66.7109C175.545 66.8659 175.861 67.0869 176.121 67.374C176.376 67.6657 176.572 68.0189 176.709 68.4336C176.846 68.8438 176.914 69.3063 176.914 69.8213C176.914 70.277 176.848 70.7077 176.716 71.1133C176.588 71.5143 176.39 71.8652 176.121 72.166C175.857 72.4668 175.522 72.7038 175.116 72.877C174.711 73.0501 174.232 73.1367 173.681 73.1367C173.261 73.1367 172.86 73.0775 172.478 72.959C172.095 72.8359 171.755 72.6536 171.459 72.4121C171.163 72.1751 170.919 71.8812 170.728 71.5303C170.541 71.1748 170.434 70.7669 170.406 70.3066H171.999C172.058 70.7943 172.236 71.168 172.532 71.4277C172.833 71.6875 173.216 71.8174 173.681 71.8174C173.954 71.8174 174.191 71.7673 174.392 71.667C174.592 71.5667 174.761 71.4255 174.897 71.2432C175.025 71.0654 175.121 70.8512 175.185 70.6006C175.248 70.3454 175.28 70.0697 175.28 69.7734C175.28 69.4863 175.242 69.2243 175.164 68.9873C175.091 68.7458 174.979 68.5361 174.829 68.3584C174.679 68.1807 174.492 68.0439 174.269 67.9482C174.045 67.848 173.785 67.7979 173.489 67.7979C173.293 67.7979 173.122 67.8138 172.977 67.8457C172.835 67.8776 172.71 67.9186 172.601 67.9688C172.487 68.0234 172.382 68.0872 172.286 68.1602C172.195 68.2285 172.106 68.3037 172.02 68.3857L170.714 68.0645ZM180.605 67.2852H181.583C181.875 67.2852 182.13 67.2464 182.349 67.1689C182.567 67.0869 182.747 66.973 182.889 66.8271C183.021 66.6995 183.121 66.5423 183.189 66.3555C183.262 66.1641 183.299 65.959 183.299 65.7402C183.299 65.5033 183.265 65.2913 183.196 65.1045C183.132 64.9176 183.037 64.7581 182.909 64.626C182.782 64.5029 182.62 64.4072 182.424 64.3389C182.232 64.2705 182.011 64.2363 181.761 64.2363C181.537 64.2363 181.33 64.2705 181.139 64.3389C180.952 64.4027 180.79 64.4961 180.653 64.6191C180.512 64.7422 180.4 64.8903 180.318 65.0635C180.241 65.2367 180.202 65.4303 180.202 65.6445H178.568C178.568 65.248 178.648 64.8835 178.808 64.5508C178.967 64.2181 179.188 63.9287 179.471 63.6826C179.753 63.4411 180.086 63.252 180.469 63.1152C180.856 62.9785 181.28 62.9102 181.74 62.9102C182.21 62.9102 182.64 62.9717 183.032 63.0947C183.429 63.2132 183.766 63.391 184.044 63.6279C184.326 63.8695 184.545 64.1657 184.7 64.5166C184.855 64.8675 184.933 65.2754 184.933 65.7402C184.933 65.9453 184.901 66.1504 184.837 66.3555C184.778 66.5605 184.687 66.7588 184.563 66.9502C184.44 67.137 184.285 67.3125 184.099 67.4766C183.912 67.6406 183.693 67.7796 183.442 67.8936C183.739 67.9938 183.989 68.126 184.194 68.29C184.404 68.4495 184.575 68.6296 184.707 68.8301C184.839 69.0352 184.935 69.2562 184.994 69.4932C185.053 69.7256 185.083 69.9671 185.083 70.2178C185.083 70.6826 184.996 71.0973 184.823 71.4619C184.655 71.8219 184.422 72.125 184.126 72.3711C183.825 72.6217 183.47 72.8132 183.06 72.9453C182.654 73.0729 182.214 73.1367 181.74 73.1367C181.312 73.1367 180.899 73.0775 180.503 72.959C180.106 72.8405 179.758 72.6628 179.457 72.4258C179.156 72.1888 178.915 71.8971 178.732 71.5508C178.555 71.1999 178.466 70.792 178.466 70.3271H180.1C180.1 70.5459 180.138 70.7487 180.216 70.9355C180.298 71.1178 180.414 71.2728 180.564 71.4004C180.71 71.5326 180.883 71.6351 181.084 71.708C181.289 71.7809 181.515 71.8174 181.761 71.8174C182.025 71.8174 182.262 71.7832 182.472 71.7148C182.686 71.6419 182.866 71.5348 183.012 71.3936C183.153 71.2614 183.26 71.0973 183.333 70.9014C183.41 70.7008 183.449 70.473 183.449 70.2178C183.449 69.9307 183.406 69.6846 183.319 69.4795C183.233 69.2744 183.107 69.1035 182.943 68.9668C182.779 68.8346 182.581 68.7367 182.349 68.6729C182.121 68.6045 181.866 68.5703 181.583 68.5703H180.605V67.2852ZM190.887 72.7881C190.887 73.2803 190.766 73.7793 190.524 74.2852C190.287 74.7956 189.973 75.2262 189.581 75.5771L188.665 75.0918C188.861 74.7682 189.011 74.4264 189.116 74.0664C189.226 73.7064 189.28 73.3008 189.28 72.8496V71.4072H190.887V72.7881ZM208.523 73H206.876V65.0703L204.326 66.0068V64.5645L208.421 63.0469H208.523V73ZM217.39 62.999V64.3867H217.28C216.738 64.3867 216.266 64.4619 215.865 64.6123C215.469 64.7581 215.134 64.9632 214.86 65.2275C214.582 65.4919 214.366 65.8086 214.211 66.1777C214.061 66.5469 213.967 66.9434 213.931 67.3672C214.04 67.2441 214.168 67.1257 214.313 67.0117C214.459 66.8932 214.621 66.7884 214.799 66.6973C214.967 66.6107 215.154 66.5423 215.359 66.4922C215.564 66.4375 215.781 66.4102 216.009 66.4102C216.492 66.4102 216.911 66.5013 217.267 66.6836C217.627 66.8659 217.923 67.112 218.155 67.4219C218.392 67.7318 218.565 68.0872 218.675 68.4883C218.789 68.8893 218.846 69.3063 218.846 69.7393C218.846 70.2132 218.773 70.6576 218.627 71.0723C218.486 71.4824 218.278 71.8402 218.005 72.1455C217.727 72.4554 217.387 72.6992 216.986 72.877C216.59 73.0501 216.136 73.1367 215.626 73.1367C215.102 73.1367 214.635 73.0365 214.225 72.8359C213.814 72.6354 213.468 72.3643 213.186 72.0225C212.885 71.667 212.657 71.25 212.502 70.7715C212.347 70.2884 212.27 69.7803 212.27 69.2471V68.5703C212.27 67.7682 212.372 67.0049 212.577 66.2803C212.787 65.5511 213.133 64.9245 213.616 64.4004C214.026 63.9492 214.532 63.6029 215.134 63.3613C215.735 63.1198 216.424 62.999 217.198 62.999H217.39ZM215.605 67.7363C215.41 67.7363 215.223 67.766 215.045 67.8252C214.867 67.8844 214.703 67.9665 214.553 68.0713C214.416 68.1761 214.293 68.2969 214.184 68.4336C214.074 68.5703 213.983 68.723 213.91 68.8916V69.3975C213.91 69.7939 213.953 70.1426 214.04 70.4434C214.131 70.7441 214.254 70.9948 214.409 71.1953C214.564 71.3958 214.744 71.5485 214.949 71.6533C215.154 71.7581 215.373 71.8105 215.605 71.8105C215.861 71.8105 216.089 71.7604 216.289 71.6602C216.49 71.5553 216.66 71.4141 216.802 71.2363C216.943 71.054 217.05 70.8398 217.123 70.5938C217.196 70.3431 217.232 70.0719 217.232 69.7803C217.232 69.5023 217.196 69.2402 217.123 68.9941C217.055 68.7435 216.952 68.5247 216.815 68.3379C216.679 68.151 216.508 68.0052 216.303 67.9004C216.102 67.791 215.87 67.7363 215.605 67.7363ZM225.798 62.999V64.3867H225.688C225.146 64.3867 224.674 64.4619 224.273 64.6123C223.877 64.7581 223.542 64.9632 223.269 65.2275C222.991 65.4919 222.774 65.8086 222.619 66.1777C222.469 66.5469 222.375 66.9434 222.339 67.3672C222.448 67.2441 222.576 67.1257 222.722 67.0117C222.868 66.8932 223.029 66.7884 223.207 66.6973C223.376 66.6107 223.562 66.5423 223.768 66.4922C223.973 66.4375 224.189 66.4102 224.417 66.4102C224.9 66.4102 225.319 66.5013 225.675 66.6836C226.035 66.8659 226.331 67.112 226.563 67.4219C226.8 67.7318 226.974 68.0872 227.083 68.4883C227.197 68.8893 227.254 69.3063 227.254 69.7393C227.254 70.2132 227.181 70.6576 227.035 71.0723C226.894 71.4824 226.687 71.8402 226.413 72.1455C226.135 72.4554 225.796 72.6992 225.395 72.877C224.998 73.0501 224.545 73.1367 224.034 73.1367C223.51 73.1367 223.043 73.0365 222.633 72.8359C222.223 72.6354 221.876 72.3643 221.594 72.0225C221.293 71.667 221.065 71.25 220.91 70.7715C220.755 70.2884 220.678 69.7803 220.678 69.2471V68.5703C220.678 67.7682 220.78 67.0049 220.985 66.2803C221.195 65.5511 221.541 64.9245 222.024 64.4004C222.435 63.9492 222.94 63.6029 223.542 63.3613C224.144 63.1198 224.832 62.999 225.606 62.999H225.798ZM224.014 67.7363C223.818 67.7363 223.631 67.766 223.453 67.8252C223.275 67.8844 223.111 67.9665 222.961 68.0713C222.824 68.1761 222.701 68.2969 222.592 68.4336C222.482 68.5703 222.391 68.723 222.318 68.8916V69.3975C222.318 69.7939 222.362 70.1426 222.448 70.4434C222.539 70.7441 222.662 70.9948 222.817 71.1953C222.972 71.3958 223.152 71.5485 223.357 71.6533C223.562 71.7581 223.781 71.8105 224.014 71.8105C224.269 71.8105 224.497 71.7604 224.697 71.6602C224.898 71.5553 225.069 71.4141 225.21 71.2363C225.351 71.054 225.458 70.8398 225.531 70.5938C225.604 70.3431 225.641 70.0719 225.641 69.7803C225.641 69.5023 225.604 69.2402 225.531 68.9941C225.463 68.7435 225.36 68.5247 225.224 68.3379C225.087 68.151 224.916 68.0052 224.711 67.9004C224.51 67.791 224.278 67.7363 224.014 67.7363ZM232.928 72.7881C232.928 73.2803 232.807 73.7793 232.565 74.2852C232.328 74.7956 232.014 75.2262 231.622 75.5771L230.706 75.0918C230.902 74.7682 231.052 74.4264 231.157 74.0664C231.267 73.7064 231.321 73.3008 231.321 72.8496V71.4072H232.928V72.7881ZM251.022 62.999V64.3867H250.913C250.371 64.3867 249.899 64.4619 249.498 64.6123C249.102 64.7581 248.767 64.9632 248.493 65.2275C248.215 65.4919 247.999 65.8086 247.844 66.1777C247.693 66.5469 247.6 66.9434 247.563 67.3672C247.673 67.2441 247.8 67.1257 247.946 67.0117C248.092 66.8932 248.254 66.7884 248.432 66.6973C248.6 66.6107 248.787 66.5423 248.992 66.4922C249.197 66.4375 249.414 66.4102 249.642 66.4102C250.125 66.4102 250.544 66.5013 250.899 66.6836C251.259 66.8659 251.556 67.112 251.788 67.4219C252.025 67.7318 252.198 68.0872 252.308 68.4883C252.422 68.8893 252.479 69.3063 252.479 69.7393C252.479 70.2132 252.406 70.6576 252.26 71.0723C252.118 71.4824 251.911 71.8402 251.638 72.1455C251.36 72.4554 251.02 72.6992 250.619 72.877C250.223 73.0501 249.769 73.1367 249.259 73.1367C248.735 73.1367 248.268 73.0365 247.857 72.8359C247.447 72.6354 247.101 72.3643 246.818 72.0225C246.518 71.667 246.29 71.25 246.135 70.7715C245.98 70.2884 245.902 69.7803 245.902 69.2471V68.5703C245.902 67.7682 246.005 67.0049 246.21 66.2803C246.42 65.5511 246.766 64.9245 247.249 64.4004C247.659 63.9492 248.165 63.6029 248.767 63.3613C249.368 63.1198 250.056 62.999 250.831 62.999H251.022ZM249.238 67.7363C249.042 67.7363 248.855 67.766 248.678 67.8252C248.5 67.8844 248.336 67.9665 248.186 68.0713C248.049 68.1761 247.926 68.2969 247.816 68.4336C247.707 68.5703 247.616 68.723 247.543 68.8916V69.3975C247.543 69.7939 247.586 70.1426 247.673 70.4434C247.764 70.7441 247.887 70.9948 248.042 71.1953C248.197 71.3958 248.377 71.5485 248.582 71.6533C248.787 71.7581 249.006 71.8105 249.238 71.8105C249.493 71.8105 249.721 71.7604 249.922 71.6602C250.122 71.5553 250.293 71.4141 250.435 71.2363C250.576 71.054 250.683 70.8398 250.756 70.5938C250.829 70.3431 250.865 70.0719 250.865 69.7803C250.865 69.5023 250.829 69.2402 250.756 68.9941C250.688 68.7435 250.585 68.5247 250.448 68.3379C250.312 68.151 250.141 68.0052 249.936 67.9004C249.735 67.791 249.503 67.7363 249.238 67.7363ZM260.935 69.2061C260.935 69.8441 260.859 70.4092 260.709 70.9014C260.563 71.389 260.351 71.7969 260.073 72.125C259.8 72.4622 259.463 72.7174 259.062 72.8906C258.665 73.0592 258.214 73.1436 257.708 73.1436C257.207 73.1436 256.756 73.0592 256.354 72.8906C255.953 72.7174 255.614 72.4622 255.336 72.125C255.053 71.7969 254.837 71.389 254.687 70.9014C254.541 70.4092 254.468 69.8441 254.468 69.2061V66.8477C254.468 66.2096 254.541 65.6468 254.687 65.1592C254.837 64.667 255.051 64.2523 255.329 63.915C255.607 63.5824 255.944 63.3317 256.341 63.1631C256.742 62.9899 257.193 62.9033 257.694 62.9033C258.2 62.9033 258.651 62.9899 259.048 63.1631C259.449 63.3317 259.791 63.5824 260.073 63.915C260.347 64.2523 260.559 64.667 260.709 65.1592C260.859 65.6468 260.935 66.2096 260.935 66.8477V69.2061ZM256.108 68.625L259.273 66.2256C259.255 65.8701 259.205 65.5625 259.123 65.3027C259.046 65.043 258.934 64.8311 258.788 64.667C258.66 64.5212 258.503 64.4118 258.316 64.3389C258.134 64.266 257.927 64.2295 257.694 64.2295C257.444 64.2295 257.223 64.2728 257.031 64.3594C256.84 64.446 256.68 64.5736 256.553 64.7422C256.402 64.9336 256.291 65.182 256.218 65.4873C256.145 65.7881 256.108 66.1436 256.108 66.5537V67.8936C256.108 68.0667 256.108 68.1989 256.108 68.29C256.108 68.3812 256.108 68.4928 256.108 68.625ZM259.287 69.4795V68.2217C259.287 68.1077 259.287 67.9893 259.287 67.8662C259.287 67.7432 259.287 67.6156 259.287 67.4834L256.122 69.8691C256.145 70.1836 256.193 70.4616 256.266 70.7031C256.343 70.9447 256.446 71.1452 256.573 71.3047C256.701 71.4779 256.858 71.6077 257.045 71.6943C257.236 71.7809 257.457 71.8242 257.708 71.8242C257.954 71.8242 258.171 71.7832 258.357 71.7012C258.544 71.6146 258.704 71.4893 258.836 71.3252C258.986 71.1338 259.098 70.8831 259.171 70.5732C259.248 70.2633 259.287 69.8988 259.287 69.4795Z" fill="#380037"/>
<path d="M279.425 66.2256C279.425 65.9111 279.525 65.6423 279.726 65.4189C279.931 65.1956 280.225 65.084 280.607 65.084C280.981 65.084 281.273 65.1956 281.482 65.4189C281.692 65.6377 281.797 65.9066 281.797 66.2256C281.797 66.5446 281.69 66.8112 281.476 67.0254C281.266 67.2396 280.977 67.3467 280.607 67.3467C280.234 67.3467 279.942 67.2396 279.732 67.0254C279.527 66.8066 279.425 66.54 279.425 66.2256ZM281.346 72.7881C281.346 73.2803 281.225 73.7793 280.983 74.2852C280.746 74.7956 280.432 75.2262 280.04 75.5771L279.124 75.0918C279.32 74.7682 279.47 74.4264 279.575 74.0664C279.685 73.7064 279.739 73.3008 279.739 72.8496V71.4072H281.346V72.7881Z" fill="#001E2E"/>
<rect x="313.5" y="48.5" width="187" height="39" rx="7.5" fill="#E5F2FF"/>
<rect x="313.5" y="48.5" width="187" height="39" rx="7.5" stroke="#87CEFF"/>
<path d="M332.246 69.2881H326.743V67.9619H332.246V69.2881ZM340.654 69.2881H335.151V67.9619H340.654V69.2881ZM347.6 73C347.549 72.9089 347.508 72.7995 347.477 72.6719C347.449 72.5397 347.424 72.403 347.401 72.2617C347.287 72.3802 347.158 72.4941 347.012 72.6035C346.87 72.7083 346.711 72.7995 346.533 72.877C346.355 72.959 346.164 73.0228 345.959 73.0684C345.754 73.1139 345.533 73.1367 345.296 73.1367C344.913 73.1367 344.562 73.082 344.243 72.9727C343.929 72.8587 343.66 72.7038 343.437 72.5078C343.209 72.3164 343.031 72.0863 342.903 71.8174C342.78 71.5439 342.719 71.25 342.719 70.9355C342.719 70.5299 342.799 70.1722 342.958 69.8623C343.122 69.5479 343.359 69.2881 343.669 69.083C343.956 68.8916 344.309 68.7458 344.729 68.6455C345.152 68.5452 345.631 68.4951 346.164 68.4951H347.354V67.9961C347.354 67.8047 347.319 67.6315 347.251 67.4766C347.187 67.3216 347.094 67.1872 346.971 67.0732C346.839 66.9593 346.677 66.8727 346.485 66.8135C346.299 66.7497 346.082 66.7178 345.836 66.7178C345.613 66.7178 345.417 66.7451 345.248 66.7998C345.084 66.8545 344.947 66.9297 344.838 67.0254C344.729 67.112 344.646 67.2191 344.592 67.3467C344.542 67.4697 344.517 67.6019 344.517 67.7432H342.876C342.881 67.4469 342.951 67.1621 343.088 66.8887C343.225 66.6152 343.425 66.3737 343.689 66.1641C343.945 65.9499 344.259 65.7812 344.633 65.6582C345.011 65.5306 345.442 65.4668 345.925 65.4668C346.358 65.4668 346.761 65.5215 347.135 65.6309C347.513 65.7357 347.839 65.8929 348.112 66.1025C348.386 66.3122 348.6 66.5788 348.755 66.9023C348.91 67.2214 348.987 67.5905 348.987 68.0098V71.2979C348.987 71.6305 349.01 71.9313 349.056 72.2002C349.106 72.4645 349.176 72.6924 349.268 72.8838V73H347.6ZM345.61 71.8242C345.825 71.8242 346.023 71.7969 346.205 71.7422C346.392 71.6875 346.561 71.6169 346.711 71.5303C346.861 71.4437 346.991 71.3457 347.101 71.2363C347.21 71.127 347.294 71.013 347.354 70.8945V69.5273H346.301C345.945 69.5273 345.638 69.5615 345.378 69.6299C345.118 69.6937 344.911 69.7871 344.756 69.9102C344.619 70.015 344.517 70.1403 344.448 70.2861C344.384 70.432 344.353 70.596 344.353 70.7783C344.353 70.9287 344.38 71.07 344.435 71.2021C344.489 71.3298 344.569 71.4391 344.674 71.5303C344.779 71.6214 344.909 71.6943 345.063 71.749C345.218 71.7992 345.401 71.8242 345.61 71.8242ZM351.599 62.5H355.584V71.6465H357.826V73H351.599V71.6465H353.937V63.8604H351.599V62.5ZM359.706 75.8438V65.6035H361.21L361.271 66.3623C361.372 66.2393 361.481 66.1276 361.6 66.0273C361.718 65.9271 361.846 65.8405 361.982 65.7676C362.16 65.6719 362.356 65.599 362.57 65.5488C362.785 65.4941 363.012 65.4668 363.254 65.4668C363.728 65.4668 364.145 65.5579 364.505 65.7402C364.869 65.9225 365.175 66.18 365.421 66.5127C365.662 66.8454 365.847 67.2441 365.975 67.709C366.102 68.1693 366.166 68.6774 366.166 69.2334V69.377C366.166 69.9102 366.102 70.4069 365.975 70.8672C365.852 71.3275 365.667 71.724 365.421 72.0566C365.175 72.3939 364.872 72.6582 364.512 72.8496C364.152 73.041 363.739 73.1367 363.274 73.1367C363.01 73.1367 362.766 73.1094 362.543 73.0547C362.324 73 362.121 72.9202 361.935 72.8154C361.825 72.7516 361.72 72.6787 361.62 72.5967C361.52 72.5146 361.426 72.4258 361.34 72.3301V75.8438H359.706ZM364.532 69.2334C364.532 68.9007 364.498 68.5885 364.43 68.2969C364.366 68.0007 364.266 67.7432 364.129 67.5244C363.988 67.3057 363.808 67.1325 363.589 67.0049C363.37 66.8773 363.108 66.8135 362.803 66.8135C362.634 66.8135 362.477 66.8317 362.331 66.8682C362.185 66.9046 362.055 66.957 361.941 67.0254C361.809 67.0983 361.693 67.1895 361.593 67.2988C361.497 67.4082 361.413 67.5312 361.34 67.668V70.9561C361.404 71.0837 361.481 71.1999 361.572 71.3047C361.663 71.4095 361.768 71.5007 361.887 71.5781C362.01 71.651 362.149 71.7103 362.304 71.7559C362.459 71.7969 362.63 71.8174 362.816 71.8174C363.122 71.8174 363.382 71.7536 363.596 71.626C363.814 71.4938 363.992 71.3161 364.129 71.0928C364.27 70.8649 364.373 70.6051 364.437 70.3135C364.5 70.0173 364.532 69.7051 364.532 69.377V69.2334ZM369.734 66.6562C369.83 66.5104 369.937 66.376 370.056 66.2529C370.174 66.1299 370.299 66.0228 370.432 65.9316C370.637 65.7812 370.862 65.6673 371.108 65.5898C371.359 65.5078 371.623 65.4668 371.901 65.4668C372.289 65.4668 372.642 65.5238 372.961 65.6377C373.285 65.7516 373.56 65.9294 373.788 66.1709C374.016 66.4124 374.191 66.7223 374.314 67.1006C374.442 67.4743 374.506 67.9232 374.506 68.4473V73H372.872V68.4336C372.872 68.1602 372.838 67.9209 372.77 67.7158C372.706 67.5107 372.61 67.3444 372.482 67.2168C372.35 67.0801 372.188 66.9798 371.997 66.916C371.81 66.8477 371.594 66.8135 371.348 66.8135C371.156 66.8135 370.974 66.8363 370.801 66.8818C370.632 66.9274 370.477 66.9935 370.336 67.0801C370.217 67.1484 370.106 67.2305 370.001 67.3262C369.901 67.4219 369.812 67.529 369.734 67.6475V73H368.101V62.5H369.734V66.6562ZM381.232 73C381.182 72.9089 381.141 72.7995 381.109 72.6719C381.082 72.5397 381.057 72.403 381.034 72.2617C380.92 72.3802 380.79 72.4941 380.645 72.6035C380.503 72.7083 380.344 72.7995 380.166 72.877C379.988 72.959 379.797 73.0228 379.592 73.0684C379.387 73.1139 379.166 73.1367 378.929 73.1367C378.546 73.1367 378.195 73.082 377.876 72.9727C377.562 72.8587 377.293 72.7038 377.069 72.5078C376.841 72.3164 376.664 72.0863 376.536 71.8174C376.413 71.5439 376.352 71.25 376.352 70.9355C376.352 70.5299 376.431 70.1722 376.591 69.8623C376.755 69.5479 376.992 69.2881 377.302 69.083C377.589 68.8916 377.942 68.7458 378.361 68.6455C378.785 68.5452 379.264 68.4951 379.797 68.4951H380.986V67.9961C380.986 67.8047 380.952 67.6315 380.884 67.4766C380.82 67.3216 380.727 67.1872 380.604 67.0732C380.471 66.9593 380.31 66.8727 380.118 66.8135C379.931 66.7497 379.715 66.7178 379.469 66.7178C379.245 66.7178 379.049 66.7451 378.881 66.7998C378.717 66.8545 378.58 66.9297 378.471 67.0254C378.361 67.112 378.279 67.2191 378.225 67.3467C378.174 67.4697 378.149 67.6019 378.149 67.7432H376.509C376.513 67.4469 376.584 67.1621 376.721 66.8887C376.857 66.6152 377.058 66.3737 377.322 66.1641C377.577 65.9499 377.892 65.7812 378.266 65.6582C378.644 65.5306 379.075 65.4668 379.558 65.4668C379.991 65.4668 380.394 65.5215 380.768 65.6309C381.146 65.7357 381.472 65.8929 381.745 66.1025C382.019 66.3122 382.233 66.5788 382.388 66.9023C382.543 67.2214 382.62 67.5905 382.62 68.0098V71.2979C382.62 71.6305 382.643 71.9313 382.688 72.2002C382.739 72.4645 382.809 72.6924 382.9 72.8838V73H381.232ZM379.243 71.8242C379.457 71.8242 379.656 71.7969 379.838 71.7422C380.025 71.6875 380.193 71.6169 380.344 71.5303C380.494 71.4437 380.624 71.3457 380.733 71.2363C380.843 71.127 380.927 71.013 380.986 70.8945V69.5273H379.934C379.578 69.5273 379.271 69.5615 379.011 69.6299C378.751 69.6937 378.544 69.7871 378.389 69.9102C378.252 70.015 378.149 70.1403 378.081 70.2861C378.017 70.432 377.985 70.596 377.985 70.7783C377.985 70.9287 378.013 71.07 378.067 71.2021C378.122 71.3298 378.202 71.4391 378.307 71.5303C378.411 71.6214 378.541 71.6943 378.696 71.749C378.851 71.7992 379.034 71.8242 379.243 71.8242ZM391.104 69.2881H385.601V67.9619H391.104V69.2881ZM394.255 65.6035L394.303 66.417C394.444 66.1208 394.638 65.8883 394.884 65.7197C395.134 65.5511 395.435 65.4668 395.786 65.4668C395.968 65.4668 396.132 65.4873 396.278 65.5283C396.424 65.5693 396.549 65.6331 396.654 65.7197C396.736 65.7835 396.809 65.861 396.873 65.9521C396.937 66.0387 396.992 66.139 397.037 66.2529C397.101 66.1481 397.174 66.0501 397.256 65.959C397.338 65.8678 397.427 65.7904 397.522 65.7266C397.646 65.6445 397.782 65.5807 397.933 65.5352C398.088 65.4896 398.256 65.4668 398.438 65.4668C398.675 65.4668 398.892 65.5078 399.088 65.5898C399.288 65.6673 399.462 65.7881 399.607 65.9521C399.753 66.1253 399.865 66.3509 399.942 66.6289C400.024 66.9023 400.065 67.2327 400.065 67.6201V73H398.562V67.6064C398.562 67.4606 398.546 67.3376 398.514 67.2373C398.482 67.1325 398.436 67.0482 398.377 66.9844C398.318 66.9251 398.245 66.8818 398.158 66.8545C398.076 66.8271 397.985 66.8135 397.885 66.8135C397.78 66.8135 397.689 66.8271 397.611 66.8545C397.534 66.8818 397.465 66.9206 397.406 66.9707C397.352 67.0163 397.306 67.071 397.27 67.1348C397.233 67.194 397.206 67.2624 397.188 67.3398C397.188 67.3581 397.188 67.3809 397.188 67.4082C397.188 67.431 397.188 67.4652 397.188 67.5107V73H395.711V67.5996C395.711 67.4538 395.695 67.3307 395.663 67.2305C395.636 67.1257 395.592 67.0436 395.533 66.9844C395.474 66.9251 395.403 66.8818 395.321 66.8545C395.244 66.8271 395.155 66.8135 395.055 66.8135C394.945 66.8135 394.847 66.8294 394.761 66.8613C394.679 66.8887 394.608 66.932 394.549 66.9912C394.503 67.0322 394.462 67.0801 394.426 67.1348C394.394 67.1895 394.364 67.251 394.337 67.3193V73H392.833V65.6035H394.255ZM402.109 65.6035H406.033V71.6465H408.207V73H402.109V71.6465H404.386V66.9639H402.109V65.6035ZM404.235 63.6895C404.235 63.5573 404.258 63.4365 404.304 63.3271C404.349 63.2132 404.415 63.1152 404.502 63.0332C404.584 62.9557 404.682 62.8965 404.796 62.8555C404.914 62.8099 405.047 62.7871 405.192 62.7871C405.438 62.7871 405.637 62.8509 405.787 62.9785C405.942 63.1016 406.031 63.2611 406.054 63.457C406.086 63.6576 406.051 63.833 405.951 63.9834C405.851 64.1292 405.705 64.2272 405.514 64.2773C405.418 64.3639 405.304 64.4209 405.172 64.4482C405.04 64.4756 404.894 64.4642 404.734 64.4141C404.57 64.3639 404.445 64.2751 404.358 64.1475C404.276 64.0153 404.235 63.8626 404.235 63.6895ZM409.923 69.2471C409.923 68.6865 409.989 68.1761 410.121 67.7158C410.258 67.251 410.454 66.8522 410.709 66.5195C410.96 66.1868 411.265 65.9294 411.625 65.7471C411.99 65.5602 412.4 65.4668 412.855 65.4668C413.266 65.4668 413.623 65.5397 413.929 65.6855C414.239 65.8268 414.512 66.0296 414.749 66.2939V62.5H416.383V73H414.899L414.824 72.2275C414.587 72.5192 414.305 72.7448 413.977 72.9043C413.648 73.0592 413.27 73.1367 412.842 73.1367C412.391 73.1367 411.985 73.0433 411.625 72.8564C411.265 72.665 410.96 72.4007 410.709 72.0635C410.458 71.7308 410.265 71.3366 410.128 70.8809C409.991 70.4206 409.923 69.9238 409.923 69.3906V69.2471ZM411.557 69.3906C411.557 69.7188 411.589 70.0286 411.652 70.3203C411.716 70.612 411.816 70.8649 411.953 71.0791C412.09 71.3024 412.265 71.4779 412.479 71.6055C412.694 71.7285 412.951 71.79 413.252 71.79C413.621 71.79 413.926 71.7103 414.168 71.5508C414.41 71.3867 414.603 71.1657 414.749 70.8877V67.709C414.603 67.4355 414.41 67.2191 414.168 67.0596C413.931 66.8955 413.63 66.8135 413.266 66.8135C412.96 66.8135 412.698 66.8773 412.479 67.0049C412.265 67.1325 412.092 67.3079 411.96 67.5312C411.819 67.7546 411.716 68.0143 411.652 68.3105C411.589 68.6022 411.557 68.9144 411.557 69.2471V69.3906ZM420.785 72.0156C420.785 71.7012 420.885 71.4323 421.086 71.209C421.291 70.9857 421.585 70.874 421.968 70.874C422.341 70.874 422.633 70.9857 422.843 71.209C423.052 71.4277 423.157 71.6966 423.157 72.0156C423.157 72.3346 423.05 72.6012 422.836 72.8154C422.626 73.0296 422.337 73.1367 421.968 73.1367C421.594 73.1367 421.302 73.0296 421.093 72.8154C420.888 72.5967 420.785 72.3301 420.785 72.0156ZM420.785 66.2256C420.785 65.9111 420.885 65.6423 421.086 65.4189C421.291 65.1956 421.585 65.084 421.968 65.084C422.341 65.084 422.633 65.1956 422.843 65.4189C423.052 65.6377 423.157 65.9066 423.157 66.2256C423.157 66.5446 423.05 66.8112 422.836 67.0254C422.626 67.2396 422.337 67.3467 421.968 67.3467C421.594 67.3467 421.302 67.2396 421.093 67.0254C420.888 66.8066 420.785 66.54 420.785 66.2256Z" fill="#001E2E"/>
<rect x="434.5" y="56.5" width="37" height="23" rx="5.5" fill="#FFEBF7"/>
<rect x="434.5" y="56.5" width="37" height="23" rx="5.5" stroke="#FFADF3"/>
<path d="M447.444 69.2061C447.444 69.8441 447.369 70.4092 447.219 70.9014C447.073 71.389 446.861 71.7969 446.583 72.125C446.31 72.4622 445.972 72.7174 445.571 72.8906C445.175 73.0592 444.724 73.1436 444.218 73.1436C443.716 73.1436 443.265 73.0592 442.864 72.8906C442.463 72.7174 442.124 72.4622 441.846 72.125C441.563 71.7969 441.347 71.389 441.196 70.9014C441.05 70.4092 440.978 69.8441 440.978 69.2061V66.8477C440.978 66.2096 441.05 65.6468 441.196 65.1592C441.347 64.667 441.561 64.2523 441.839 63.915C442.117 63.5824 442.454 63.3317 442.851 63.1631C443.252 62.9899 443.703 62.9033 444.204 62.9033C444.71 62.9033 445.161 62.9899 445.558 63.1631C445.959 63.3317 446.3 63.5824 446.583 63.915C446.856 64.2523 447.068 64.667 447.219 65.1592C447.369 65.6468 447.444 66.2096 447.444 66.8477V69.2061ZM442.618 68.625L445.783 66.2256C445.765 65.8701 445.715 65.5625 445.633 65.3027C445.555 65.043 445.444 64.8311 445.298 64.667C445.17 64.5212 445.013 64.4118 444.826 64.3389C444.644 64.266 444.437 64.2295 444.204 64.2295C443.953 64.2295 443.732 64.2728 443.541 64.3594C443.35 64.446 443.19 64.5736 443.062 64.7422C442.912 64.9336 442.8 65.182 442.728 65.4873C442.655 65.7881 442.618 66.1436 442.618 66.5537V67.8936C442.618 68.0667 442.618 68.1989 442.618 68.29C442.618 68.3812 442.618 68.4928 442.618 68.625ZM445.797 69.4795V68.2217C445.797 68.1077 445.797 67.9893 445.797 67.8662C445.797 67.7432 445.797 67.6156 445.797 67.4834L442.632 69.8691C442.655 70.1836 442.702 70.4616 442.775 70.7031C442.853 70.9447 442.955 71.1452 443.083 71.3047C443.211 71.4779 443.368 71.6077 443.555 71.6943C443.746 71.7809 443.967 71.8242 444.218 71.8242C444.464 71.8242 444.68 71.7832 444.867 71.7012C445.054 71.6146 445.214 71.4893 445.346 71.3252C445.496 71.1338 445.608 70.8831 445.681 70.5732C445.758 70.2633 445.797 69.8988 445.797 69.4795ZM451.505 72.0156C451.505 71.7012 451.605 71.4323 451.806 71.209C452.011 70.9857 452.305 70.874 452.688 70.874C453.061 70.874 453.353 70.9857 453.562 71.209C453.772 71.4277 453.877 71.6966 453.877 72.0156C453.877 72.3346 453.77 72.6012 453.556 72.8154C453.346 73.0296 453.057 73.1367 452.688 73.1367C452.314 73.1367 452.022 73.0296 451.812 72.8154C451.607 72.5967 451.505 72.3301 451.505 72.0156ZM458.122 68.0645L458.655 63.0469H464.008V64.4961H460.016L459.756 66.8818C459.92 66.7861 460.134 66.695 460.398 66.6084C460.667 66.5218 460.975 66.4785 461.321 66.4785C461.791 66.4785 462.21 66.556 462.579 66.7109C462.953 66.8659 463.27 67.0869 463.529 67.374C463.785 67.6657 463.98 68.0189 464.117 68.4336C464.254 68.8438 464.322 69.3063 464.322 69.8213C464.322 70.277 464.256 70.7077 464.124 71.1133C463.996 71.5143 463.798 71.8652 463.529 72.166C463.265 72.4668 462.93 72.7038 462.524 72.877C462.119 73.0501 461.64 73.1367 461.089 73.1367C460.67 73.1367 460.269 73.0775 459.886 72.959C459.503 72.8359 459.163 72.6536 458.867 72.4121C458.571 72.1751 458.327 71.8812 458.136 71.5303C457.949 71.1748 457.842 70.7669 457.814 70.3066H459.407C459.466 70.7943 459.644 71.168 459.94 71.4277C460.241 71.6875 460.624 71.8174 461.089 71.8174C461.362 71.8174 461.599 71.7673 461.8 71.667C462 71.5667 462.169 71.4255 462.306 71.2432C462.433 71.0654 462.529 70.8512 462.593 70.6006C462.657 70.3454 462.688 70.0697 462.688 69.7734C462.688 69.4863 462.65 69.2243 462.572 68.9873C462.499 68.7458 462.388 68.5361 462.237 68.3584C462.087 68.1807 461.9 68.0439 461.677 67.9482C461.453 67.848 461.194 67.7979 460.897 67.7979C460.701 67.7979 460.531 67.8138 460.385 67.8457C460.243 67.8776 460.118 67.9186 460.009 67.9688C459.895 68.0234 459.79 68.0872 459.694 68.1602C459.603 68.2285 459.514 68.3037 459.428 68.3857L458.122 68.0645Z" fill="#380037"/>
<path d="M483.425 66.2256C483.425 65.9111 483.525 65.6423 483.726 65.4189C483.931 65.1956 484.225 65.084 484.607 65.084C484.981 65.084 485.273 65.1956 485.482 65.4189C485.692 65.6377 485.797 65.9066 485.797 66.2256C485.797 66.5446 485.69 66.8112 485.476 67.0254C485.266 67.2396 484.977 67.3467 484.607 67.3467C484.234 67.3467 483.942 67.2396 483.732 67.0254C483.527 66.8066 483.425 66.54 483.425 66.2256ZM485.346 72.7881C485.346 73.2803 485.225 73.7793 484.983 74.2852C484.746 74.7956 484.432 75.2262 484.04 75.5771L483.124 75.0918C483.32 74.7682 483.47 74.4264 483.575 74.0664C483.685 73.7064 483.739 73.3008 483.739 72.8496V71.4072H485.346V72.7881Z" fill="#001E2E"/>
<rect x="59" y="136.5" width="442" height="39" rx="7.5" fill="#E5F2FF"/>
<rect x="59" y="136.5" width="442" height="39" rx="7.5" stroke="#87CEFF"/>
<path d="M74.7793 159.824C74.9844 159.824 75.1803 159.795 75.3672 159.735C75.5586 159.672 75.7272 159.583 75.873 159.469C76.0143 159.355 76.126 159.22 76.208 159.065C76.2946 158.91 76.3379 158.74 76.3379 158.553H77.876C77.8805 158.913 77.7985 159.252 77.6299 159.571C77.4658 159.886 77.2425 160.157 76.96 160.385C76.6729 160.622 76.3424 160.809 75.9688 160.945C75.5996 161.077 75.21 161.144 74.7998 161.144C74.2301 161.144 73.7311 161.046 73.3027 160.85C72.8789 160.649 72.5257 160.38 72.2432 160.043C71.9561 159.706 71.7396 159.314 71.5938 158.867C71.4479 158.416 71.375 157.935 71.375 157.425V157.186C71.375 156.68 71.4456 156.201 71.5869 155.75C71.7327 155.299 71.9492 154.905 72.2363 154.567C72.5234 154.23 72.8789 153.964 73.3027 153.768C73.7311 153.567 74.2279 153.467 74.793 153.467C75.2396 153.467 75.652 153.535 76.0303 153.672C76.4131 153.809 76.7412 154 77.0146 154.246C77.2881 154.492 77.5 154.786 77.6504 155.128C77.8053 155.47 77.8805 155.846 77.876 156.256H76.3379C76.3379 156.055 76.2992 155.866 76.2217 155.688C76.1488 155.511 76.0439 155.356 75.9072 155.224C75.766 155.091 75.5973 154.987 75.4014 154.909C75.21 154.832 75.0026 154.793 74.7793 154.793C74.4375 154.793 74.1527 154.864 73.9248 155.005C73.7015 155.142 73.5238 155.322 73.3916 155.545C73.2503 155.768 73.1501 156.023 73.0908 156.311C73.0361 156.598 73.0088 156.889 73.0088 157.186V157.425C73.0088 157.726 73.0361 158.022 73.0908 158.313C73.1501 158.601 73.248 158.854 73.3848 159.072C73.5169 159.3 73.6969 159.482 73.9248 159.619C74.1527 159.756 74.4375 159.824 74.7793 159.824ZM79.667 157.233C79.667 156.696 79.7445 156.199 79.8994 155.743C80.0544 155.283 80.2799 154.884 80.5762 154.547C80.8678 154.21 81.2256 153.945 81.6494 153.754C82.0732 153.562 82.5563 153.467 83.0986 153.467C83.641 153.467 84.124 153.562 84.5479 153.754C84.9762 153.945 85.3385 154.21 85.6348 154.547C85.9264 154.884 86.1497 155.283 86.3047 155.743C86.4596 156.199 86.5371 156.696 86.5371 157.233V157.377C86.5371 157.919 86.4596 158.418 86.3047 158.874C86.1497 159.33 85.9264 159.726 85.6348 160.063C85.3431 160.401 84.9831 160.665 84.5547 160.856C84.1309 161.048 83.6501 161.144 83.1123 161.144C82.57 161.144 82.0846 161.048 81.6562 160.856C81.2279 160.665 80.8678 160.401 80.5762 160.063C80.2799 159.726 80.0544 159.33 79.8994 158.874C79.7445 158.418 79.667 157.919 79.667 157.377V157.233ZM81.3008 157.377C81.3008 157.71 81.335 158.024 81.4033 158.32C81.4762 158.617 81.5879 158.876 81.7383 159.1C81.8841 159.323 82.071 159.501 82.2988 159.633C82.5267 159.76 82.7979 159.824 83.1123 159.824C83.4176 159.824 83.6842 159.76 83.9121 159.633C84.14 159.501 84.3268 159.323 84.4727 159.1C84.6185 158.876 84.7256 158.617 84.7939 158.32C84.8669 158.024 84.9033 157.71 84.9033 157.377V157.233C84.9033 156.91 84.8669 156.6 84.7939 156.304C84.721 156.007 84.6139 155.748 84.4727 155.524C84.3223 155.301 84.1331 155.123 83.9053 154.991C83.682 154.859 83.4131 154.793 83.0986 154.793C82.7887 154.793 82.5199 154.859 82.292 154.991C82.0687 155.123 81.8841 155.301 81.7383 155.524C81.5879 155.748 81.4762 156.007 81.4033 156.304C81.335 156.6 81.3008 156.91 81.3008 157.233V157.377ZM88.6904 150.5H92.6758V159.646H94.918V161H88.6904V159.646H91.0283V151.86H88.6904V150.5ZM96.4834 157.233C96.4834 156.696 96.5609 156.199 96.7158 155.743C96.8708 155.283 97.0964 154.884 97.3926 154.547C97.6842 154.21 98.042 153.945 98.4658 153.754C98.8896 153.562 99.3727 153.467 99.915 153.467C100.457 153.467 100.94 153.562 101.364 153.754C101.793 153.945 102.155 154.21 102.451 154.547C102.743 154.884 102.966 155.283 103.121 155.743C103.276 156.199 103.354 156.696 103.354 157.233V157.377C103.354 157.919 103.276 158.418 103.121 158.874C102.966 159.33 102.743 159.726 102.451 160.063C102.16 160.401 101.799 160.665 101.371 160.856C100.947 161.048 100.466 161.144 99.9287 161.144C99.3864 161.144 98.901 161.048 98.4727 160.856C98.0443 160.665 97.6842 160.401 97.3926 160.063C97.0964 159.726 96.8708 159.33 96.7158 158.874C96.5609 158.418 96.4834 157.919 96.4834 157.377V157.233ZM98.1172 157.377C98.1172 157.71 98.1514 158.024 98.2197 158.32C98.2926 158.617 98.4043 158.876 98.5547 159.1C98.7005 159.323 98.8874 159.501 99.1152 159.633C99.3431 159.76 99.6143 159.824 99.9287 159.824C100.234 159.824 100.501 159.76 100.729 159.633C100.956 159.501 101.143 159.323 101.289 159.1C101.435 158.876 101.542 158.617 101.61 158.32C101.683 158.024 101.72 157.71 101.72 157.377V157.233C101.72 156.91 101.683 156.6 101.61 156.304C101.537 156.007 101.43 155.748 101.289 155.524C101.139 155.301 100.95 155.123 100.722 154.991C100.498 154.859 100.229 154.793 99.915 154.793C99.6051 154.793 99.3363 154.859 99.1084 154.991C98.8851 155.123 98.7005 155.301 98.5547 155.524C98.4043 155.748 98.2926 156.007 98.2197 156.304C98.1514 156.6 98.1172 156.91 98.1172 157.233V157.377ZM110.306 153.467C110.57 153.467 110.825 153.485 111.071 153.521C111.322 153.558 111.518 153.601 111.659 153.651L111.427 155.265C111.176 155.21 110.928 155.169 110.682 155.142C110.44 155.114 110.199 155.101 109.957 155.101C109.684 155.101 109.438 155.128 109.219 155.183C109 155.237 108.806 155.322 108.638 155.436C108.455 155.545 108.3 155.684 108.173 155.853C108.045 156.021 107.938 156.215 107.852 156.434V161H106.218V153.604H107.749L107.817 154.629L107.824 154.8C108.125 154.385 108.485 154.059 108.904 153.822C109.328 153.585 109.795 153.467 110.306 153.467ZM115.836 160.016C115.836 159.701 115.936 159.432 116.137 159.209C116.342 158.986 116.636 158.874 117.019 158.874C117.392 158.874 117.684 158.986 117.894 159.209C118.103 159.428 118.208 159.697 118.208 160.016C118.208 160.335 118.101 160.601 117.887 160.815C117.677 161.03 117.388 161.137 117.019 161.137C116.645 161.137 116.353 161.03 116.144 160.815C115.938 160.597 115.836 160.33 115.836 160.016ZM115.836 154.226C115.836 153.911 115.936 153.642 116.137 153.419C116.342 153.196 116.636 153.084 117.019 153.084C117.392 153.084 117.684 153.196 117.894 153.419C118.103 153.638 118.208 153.907 118.208 154.226C118.208 154.545 118.101 154.811 117.887 155.025C117.677 155.24 117.388 155.347 117.019 155.347C116.645 155.347 116.353 155.24 116.144 155.025C115.938 154.807 115.836 154.54 115.836 154.226ZM135.53 153.467C135.795 153.467 136.05 153.485 136.296 153.521C136.547 153.558 136.743 153.601 136.884 153.651L136.651 155.265C136.401 155.21 136.152 155.169 135.906 155.142C135.665 155.114 135.423 155.101 135.182 155.101C134.908 155.101 134.662 155.128 134.443 155.183C134.225 155.237 134.031 155.322 133.862 155.436C133.68 155.545 133.525 155.684 133.397 155.853C133.27 156.021 133.163 156.215 133.076 156.434V161H131.442V153.604H132.974L133.042 154.629L133.049 154.8C133.35 154.385 133.71 154.059 134.129 153.822C134.553 153.585 135.02 153.467 135.53 153.467ZM138.613 157.247C138.613 156.687 138.682 156.176 138.818 155.716C138.955 155.251 139.153 154.852 139.413 154.52C139.673 154.187 139.985 153.929 140.35 153.747C140.719 153.56 141.133 153.467 141.594 153.467C141.867 153.467 142.116 153.496 142.339 153.556C142.562 153.61 142.765 153.692 142.947 153.802C143.066 153.87 143.177 153.952 143.282 154.048C143.387 154.139 143.485 154.239 143.576 154.349L143.645 153.604H145.128V160.795C145.128 161.292 145.046 161.731 144.882 162.114C144.722 162.502 144.497 162.83 144.205 163.099C143.909 163.363 143.553 163.563 143.139 163.7C142.729 163.841 142.275 163.912 141.778 163.912C141.569 163.912 141.339 163.889 141.088 163.844C140.837 163.798 140.587 163.728 140.336 163.632C140.085 163.536 139.846 163.411 139.618 163.256C139.39 163.101 139.194 162.914 139.03 162.695L139.803 161.704C139.935 161.864 140.076 162 140.227 162.114C140.382 162.233 140.539 162.328 140.698 162.401C140.858 162.474 141.02 162.527 141.184 162.559C141.348 162.595 141.514 162.613 141.683 162.613C141.974 162.613 142.232 162.572 142.455 162.49C142.683 162.408 142.877 162.29 143.036 162.135C143.182 161.984 143.294 161.8 143.371 161.581C143.453 161.362 143.494 161.114 143.494 160.836V160.323C143.398 160.424 143.298 160.517 143.193 160.604C143.093 160.69 142.984 160.765 142.865 160.829C142.688 160.929 142.492 161.005 142.277 161.055C142.063 161.109 141.831 161.137 141.58 161.137C141.124 161.137 140.714 161.043 140.35 160.856C139.985 160.665 139.673 160.401 139.413 160.063C139.158 159.731 138.96 159.337 138.818 158.881C138.682 158.421 138.613 157.924 138.613 157.391V157.247ZM140.254 157.391C140.254 157.719 140.286 158.029 140.35 158.32C140.418 158.612 140.525 158.865 140.671 159.079C140.812 159.302 140.992 159.478 141.211 159.605C141.43 159.729 141.689 159.79 141.99 159.79C142.177 159.79 142.346 159.77 142.496 159.729C142.651 159.688 142.79 159.631 142.913 159.558C143.036 159.48 143.146 159.387 143.241 159.277C143.337 159.168 143.421 159.047 143.494 158.915V155.675C143.421 155.538 143.332 155.415 143.228 155.306C143.127 155.196 143.011 155.103 142.879 155.025C142.76 154.962 142.628 154.911 142.482 154.875C142.337 154.834 142.177 154.813 142.004 154.813C141.699 154.813 141.437 154.877 141.218 155.005C140.999 155.132 140.819 155.308 140.678 155.531C140.532 155.755 140.425 156.014 140.356 156.311C140.288 156.602 140.254 156.914 140.254 157.247V157.391ZM153.734 157.377C153.734 157.719 153.709 158.045 153.659 158.354C153.609 158.664 153.536 158.951 153.44 159.216C153.331 159.53 153.185 159.815 153.003 160.07C152.821 160.326 152.602 160.537 152.347 160.706C152.142 160.843 151.911 160.948 151.656 161.021C151.406 161.098 151.132 161.137 150.836 161.137C150.535 161.137 150.262 161.1 150.016 161.027C149.77 160.954 149.549 160.847 149.353 160.706C149.252 160.633 149.157 160.556 149.065 160.474C148.979 160.387 148.895 160.294 148.812 160.193L148.737 161H147.261V150.5H148.895V154.328C148.99 154.21 149.095 154.103 149.209 154.007C149.323 153.911 149.446 153.827 149.578 153.754C149.751 153.658 149.94 153.588 150.146 153.542C150.355 153.492 150.581 153.467 150.822 153.467C151.141 153.467 151.433 153.51 151.697 153.597C151.966 153.679 152.208 153.797 152.422 153.952C152.604 154.08 152.766 154.237 152.907 154.424C153.053 154.606 153.181 154.807 153.29 155.025C153.436 155.331 153.545 155.67 153.618 156.044C153.696 156.418 153.734 156.814 153.734 157.233V157.377ZM152.101 157.233C152.101 157.024 152.087 156.821 152.06 156.625C152.037 156.424 152.003 156.238 151.957 156.064C151.893 155.855 151.809 155.666 151.704 155.497C151.604 155.324 151.467 155.178 151.294 155.06C151.18 154.978 151.05 154.916 150.904 154.875C150.758 154.834 150.594 154.813 150.412 154.813C150.189 154.813 149.988 154.845 149.811 154.909C149.633 154.968 149.478 155.055 149.346 155.169C149.25 155.246 149.163 155.338 149.086 155.442C149.013 155.543 148.949 155.652 148.895 155.771V158.833C148.958 158.97 149.034 159.095 149.12 159.209C149.211 159.318 149.314 159.416 149.428 159.503C149.555 159.594 149.701 159.667 149.865 159.722C150.034 159.772 150.221 159.797 150.426 159.797C150.613 159.797 150.781 159.774 150.932 159.729C151.082 159.678 151.216 159.612 151.335 159.53C151.494 159.416 151.624 159.273 151.725 159.1C151.829 158.922 151.909 158.724 151.964 158.505C152.009 158.341 152.044 158.163 152.066 157.972C152.089 157.78 152.101 157.582 152.101 157.377V157.233ZM160.365 161C160.315 160.909 160.274 160.799 160.242 160.672C160.215 160.54 160.19 160.403 160.167 160.262C160.053 160.38 159.923 160.494 159.777 160.604C159.636 160.708 159.477 160.799 159.299 160.877C159.121 160.959 158.93 161.023 158.725 161.068C158.52 161.114 158.299 161.137 158.062 161.137C157.679 161.137 157.328 161.082 157.009 160.973C156.694 160.859 156.425 160.704 156.202 160.508C155.974 160.316 155.797 160.086 155.669 159.817C155.546 159.544 155.484 159.25 155.484 158.936C155.484 158.53 155.564 158.172 155.724 157.862C155.888 157.548 156.125 157.288 156.435 157.083C156.722 156.892 157.075 156.746 157.494 156.646C157.918 156.545 158.396 156.495 158.93 156.495H160.119V155.996C160.119 155.805 160.085 155.632 160.017 155.477C159.953 155.322 159.859 155.187 159.736 155.073C159.604 154.959 159.442 154.873 159.251 154.813C159.064 154.75 158.848 154.718 158.602 154.718C158.378 154.718 158.182 154.745 158.014 154.8C157.85 154.854 157.713 154.93 157.604 155.025C157.494 155.112 157.412 155.219 157.357 155.347C157.307 155.47 157.282 155.602 157.282 155.743H155.642C155.646 155.447 155.717 155.162 155.854 154.889C155.99 154.615 156.191 154.374 156.455 154.164C156.71 153.95 157.025 153.781 157.398 153.658C157.777 153.531 158.207 153.467 158.69 153.467C159.123 153.467 159.527 153.521 159.9 153.631C160.279 153.736 160.604 153.893 160.878 154.103C161.151 154.312 161.366 154.579 161.521 154.902C161.675 155.221 161.753 155.59 161.753 156.01V159.298C161.753 159.631 161.776 159.931 161.821 160.2C161.871 160.465 161.942 160.692 162.033 160.884V161H160.365ZM158.376 159.824C158.59 159.824 158.788 159.797 158.971 159.742C159.158 159.688 159.326 159.617 159.477 159.53C159.627 159.444 159.757 159.346 159.866 159.236C159.976 159.127 160.06 159.013 160.119 158.895V157.527H159.066C158.711 157.527 158.403 157.562 158.144 157.63C157.884 157.694 157.676 157.787 157.521 157.91C157.385 158.015 157.282 158.14 157.214 158.286C157.15 158.432 157.118 158.596 157.118 158.778C157.118 158.929 157.146 159.07 157.2 159.202C157.255 159.33 157.335 159.439 157.439 159.53C157.544 159.621 157.674 159.694 157.829 159.749C157.984 159.799 158.166 159.824 158.376 159.824ZM165.383 156.953C165.383 156.311 165.433 155.704 165.533 155.135C165.633 154.561 165.768 154.03 165.937 153.542C166.11 153.063 166.308 152.624 166.531 152.223C166.759 151.822 166.998 151.466 167.249 151.156C167.495 150.846 167.748 150.584 168.008 150.37C168.268 150.151 168.518 149.983 168.76 149.864L169.088 150.814C168.942 150.924 168.796 151.056 168.65 151.211C168.505 151.366 168.361 151.541 168.22 151.737C168.024 152.015 167.839 152.341 167.666 152.715C167.497 153.089 167.352 153.496 167.229 153.938C167.115 154.353 167.023 154.811 166.955 155.312C166.891 155.814 166.859 156.356 166.859 156.939V157.083C166.859 157.653 166.891 158.184 166.955 158.676C167.019 159.163 167.094 159.578 167.181 159.92C167.29 160.33 167.415 160.711 167.557 161.062C167.702 161.412 167.855 161.722 168.015 161.991C168.183 162.265 168.359 162.506 168.541 162.716C168.723 162.925 168.906 163.101 169.088 163.242L168.76 164.158C168.518 164.04 168.268 163.871 168.008 163.652C167.748 163.438 167.493 163.176 167.242 162.866C166.992 162.556 166.752 162.201 166.524 161.8C166.301 161.403 166.105 160.961 165.937 160.474C165.768 159.991 165.633 159.466 165.533 158.901C165.433 158.332 165.383 157.721 165.383 157.069V156.953Z" fill="#001E2E"/>
<rect x="180" y="144.5" width="112" height="23" rx="5.5" fill="#FFEBF7"/>
<rect x="180" y="144.5" width="112" height="23" rx="5.5" stroke="#FFADF3"/>
<path d="M188.979 161L186.067 153.604H187.763L189.595 158.97L189.704 159.462L189.813 158.97L191.625 153.604H193.32L190.422 161H188.979ZM199.691 161C199.641 160.909 199.6 160.799 199.568 160.672C199.541 160.54 199.516 160.403 199.493 160.262C199.379 160.38 199.249 160.494 199.104 160.604C198.962 160.708 198.803 160.799 198.625 160.877C198.447 160.959 198.256 161.023 198.051 161.068C197.846 161.114 197.625 161.137 197.388 161.137C197.005 161.137 196.654 161.082 196.335 160.973C196.021 160.859 195.752 160.704 195.528 160.508C195.3 160.316 195.123 160.086 194.995 159.817C194.872 159.544 194.811 159.25 194.811 158.936C194.811 158.53 194.89 158.172 195.05 157.862C195.214 157.548 195.451 157.288 195.761 157.083C196.048 156.892 196.401 156.746 196.82 156.646C197.244 156.545 197.723 156.495 198.256 156.495H199.445V155.996C199.445 155.805 199.411 155.632 199.343 155.477C199.279 155.322 199.186 155.187 199.062 155.073C198.93 154.959 198.769 154.873 198.577 154.813C198.39 154.75 198.174 154.718 197.928 154.718C197.704 154.718 197.508 154.745 197.34 154.8C197.176 154.854 197.039 154.93 196.93 155.025C196.82 155.112 196.738 155.219 196.684 155.347C196.633 155.47 196.608 155.602 196.608 155.743H194.968C194.972 155.447 195.043 155.162 195.18 154.889C195.316 154.615 195.517 154.374 195.781 154.164C196.036 153.95 196.351 153.781 196.725 153.658C197.103 153.531 197.534 153.467 198.017 153.467C198.45 153.467 198.853 153.521 199.227 153.631C199.605 153.736 199.931 153.893 200.204 154.103C200.478 154.312 200.692 154.579 200.847 154.902C201.002 155.221 201.079 155.59 201.079 156.01V159.298C201.079 159.631 201.102 159.931 201.147 160.2C201.198 160.465 201.268 160.692 201.359 160.884V161H199.691ZM197.702 159.824C197.916 159.824 198.115 159.797 198.297 159.742C198.484 159.688 198.652 159.617 198.803 159.53C198.953 159.444 199.083 159.346 199.192 159.236C199.302 159.127 199.386 159.013 199.445 158.895V157.527H198.393C198.037 157.527 197.729 157.562 197.47 157.63C197.21 157.694 197.003 157.787 196.848 157.91C196.711 158.015 196.608 158.14 196.54 158.286C196.476 158.432 196.444 158.596 196.444 158.778C196.444 158.929 196.472 159.07 196.526 159.202C196.581 159.33 196.661 159.439 196.766 159.53C196.87 159.621 197 159.694 197.155 159.749C197.31 159.799 197.493 159.824 197.702 159.824ZM208.489 153.467C208.754 153.467 209.009 153.485 209.255 153.521C209.506 153.558 209.701 153.601 209.843 153.651L209.61 155.265C209.36 155.21 209.111 155.169 208.865 155.142C208.624 155.114 208.382 155.101 208.141 155.101C207.867 155.101 207.621 155.128 207.402 155.183C207.184 155.237 206.99 155.322 206.821 155.436C206.639 155.545 206.484 155.684 206.356 155.853C206.229 156.021 206.122 156.215 206.035 156.434V161H204.401V153.604H205.933L206.001 154.629L206.008 154.8C206.309 154.385 206.669 154.059 207.088 153.822C207.512 153.585 207.979 153.467 208.489 153.467ZM213.117 156.953C213.117 156.311 213.167 155.704 213.268 155.135C213.368 154.561 213.502 154.03 213.671 153.542C213.844 153.063 214.042 152.624 214.266 152.223C214.493 151.822 214.733 151.466 214.983 151.156C215.229 150.846 215.482 150.584 215.742 150.37C216.002 150.151 216.253 149.983 216.494 149.864L216.822 150.814C216.676 150.924 216.531 151.056 216.385 151.211C216.239 151.366 216.095 151.541 215.954 151.737C215.758 152.015 215.574 152.341 215.4 152.715C215.232 153.089 215.086 153.496 214.963 153.938C214.849 154.353 214.758 154.811 214.689 155.312C214.626 155.814 214.594 156.356 214.594 156.939V157.083C214.594 157.653 214.626 158.184 214.689 158.676C214.753 159.163 214.828 159.578 214.915 159.92C215.024 160.33 215.15 160.711 215.291 161.062C215.437 161.412 215.59 161.722 215.749 161.991C215.918 162.265 216.093 162.506 216.275 162.716C216.458 162.925 216.64 163.101 216.822 163.242L216.494 164.158C216.253 164.04 216.002 163.871 215.742 163.652C215.482 163.438 215.227 163.176 214.977 162.866C214.726 162.556 214.487 162.201 214.259 161.8C214.035 161.403 213.84 160.961 213.671 160.474C213.502 159.991 213.368 159.466 213.268 158.901C213.167 158.332 213.117 157.721 213.117 157.069V156.953ZM226.379 157.288H220.876V155.962H226.379V157.288ZM234.787 157.288H229.284V155.962H234.787V157.288ZM243.51 157.377C243.51 157.719 243.485 158.045 243.435 158.354C243.384 158.664 243.312 158.951 243.216 159.216C243.106 159.53 242.961 159.815 242.778 160.07C242.596 160.326 242.377 160.537 242.122 160.706C241.917 160.843 241.687 160.948 241.432 161.021C241.181 161.098 240.908 161.137 240.611 161.137C240.311 161.137 240.037 161.1 239.791 161.027C239.545 160.954 239.324 160.847 239.128 160.706C239.028 160.633 238.932 160.556 238.841 160.474C238.754 160.387 238.67 160.294 238.588 160.193L238.513 161H237.036V150.5H238.67V154.328C238.766 154.21 238.87 154.103 238.984 154.007C239.098 153.911 239.221 153.827 239.354 153.754C239.527 153.658 239.716 153.588 239.921 153.542C240.131 153.492 240.356 153.467 240.598 153.467C240.917 153.467 241.208 153.51 241.473 153.597C241.742 153.679 241.983 153.797 242.197 153.952C242.38 154.08 242.541 154.237 242.683 154.424C242.828 154.606 242.956 154.807 243.065 155.025C243.211 155.331 243.321 155.67 243.394 156.044C243.471 156.418 243.51 156.814 243.51 157.233V157.377ZM241.876 157.233C241.876 157.024 241.862 156.821 241.835 156.625C241.812 156.424 241.778 156.238 241.732 156.064C241.669 155.855 241.584 155.666 241.479 155.497C241.379 155.324 241.243 155.178 241.069 155.06C240.955 154.978 240.826 154.916 240.68 154.875C240.534 154.834 240.37 154.813 240.188 154.813C239.964 154.813 239.764 154.845 239.586 154.909C239.408 154.968 239.253 155.055 239.121 155.169C239.025 155.246 238.939 155.338 238.861 155.442C238.788 155.543 238.725 155.652 238.67 155.771V158.833C238.734 158.97 238.809 159.095 238.896 159.209C238.987 159.318 239.089 159.416 239.203 159.503C239.331 159.594 239.477 159.667 239.641 159.722C239.809 159.772 239.996 159.797 240.201 159.797C240.388 159.797 240.557 159.774 240.707 159.729C240.857 159.678 240.992 159.612 241.11 159.53C241.27 159.416 241.4 159.273 241.5 159.1C241.605 158.922 241.685 158.724 241.739 158.505C241.785 158.341 241.819 158.163 241.842 157.972C241.865 157.78 241.876 157.582 241.876 157.377V157.233ZM250.53 153.467C250.795 153.467 251.05 153.485 251.296 153.521C251.547 153.558 251.743 153.601 251.884 153.651L251.651 155.265C251.401 155.21 251.152 155.169 250.906 155.142C250.665 155.114 250.423 155.101 250.182 155.101C249.908 155.101 249.662 155.128 249.443 155.183C249.225 155.237 249.031 155.322 248.862 155.436C248.68 155.545 248.525 155.684 248.397 155.853C248.27 156.021 248.163 156.215 248.076 156.434V161H246.442V153.604H247.974L248.042 154.629L248.049 154.8C248.35 154.385 248.71 154.059 249.129 153.822C249.553 153.585 250.02 153.467 250.53 153.467ZM258.549 161C258.499 160.909 258.458 160.799 258.426 160.672C258.398 160.54 258.373 160.403 258.351 160.262C258.237 160.38 258.107 160.494 257.961 160.604C257.82 160.708 257.66 160.799 257.482 160.877C257.305 160.959 257.113 161.023 256.908 161.068C256.703 161.114 256.482 161.137 256.245 161.137C255.862 161.137 255.511 161.082 255.192 160.973C254.878 160.859 254.609 160.704 254.386 160.508C254.158 160.316 253.98 160.086 253.853 159.817C253.729 159.544 253.668 159.25 253.668 158.936C253.668 158.53 253.748 158.172 253.907 157.862C254.071 157.548 254.308 157.288 254.618 157.083C254.905 156.892 255.258 156.746 255.678 156.646C256.102 156.545 256.58 156.495 257.113 156.495H258.303V155.996C258.303 155.805 258.269 155.632 258.2 155.477C258.136 155.322 258.043 155.187 257.92 155.073C257.788 154.959 257.626 154.873 257.435 154.813C257.248 154.75 257.031 154.718 256.785 154.718C256.562 154.718 256.366 154.745 256.197 154.8C256.033 154.854 255.896 154.93 255.787 155.025C255.678 155.112 255.596 155.219 255.541 155.347C255.491 155.47 255.466 155.602 255.466 155.743H253.825C253.83 155.447 253.9 155.162 254.037 154.889C254.174 154.615 254.374 154.374 254.639 154.164C254.894 153.95 255.208 153.781 255.582 153.658C255.96 153.531 256.391 153.467 256.874 153.467C257.307 153.467 257.71 153.521 258.084 153.631C258.462 153.736 258.788 153.893 259.062 154.103C259.335 154.312 259.549 154.579 259.704 154.902C259.859 155.221 259.937 155.59 259.937 156.01V159.298C259.937 159.631 259.959 159.931 260.005 160.2C260.055 160.465 260.126 160.692 260.217 160.884V161H258.549ZM256.56 159.824C256.774 159.824 256.972 159.797 257.154 159.742C257.341 159.688 257.51 159.617 257.66 159.53C257.811 159.444 257.94 159.346 258.05 159.236C258.159 159.127 258.243 159.013 258.303 158.895V157.527H257.25C256.895 157.527 256.587 157.562 256.327 157.63C256.067 157.694 255.86 157.787 255.705 157.91C255.568 158.015 255.466 158.14 255.397 158.286C255.334 158.432 255.302 158.596 255.302 158.778C255.302 158.929 255.329 159.07 255.384 159.202C255.438 159.33 255.518 159.439 255.623 159.53C255.728 159.621 255.858 159.694 256.013 159.749C256.168 159.799 256.35 159.824 256.56 159.824ZM262.233 161V153.604H263.71L263.812 154.656C263.913 154.515 264.022 154.385 264.141 154.267C264.264 154.144 264.394 154.034 264.53 153.938C264.749 153.788 264.988 153.672 265.248 153.59C265.508 153.508 265.781 153.467 266.068 153.467C266.447 153.467 266.793 153.521 267.107 153.631C267.422 153.74 267.691 153.913 267.914 154.15C268.137 154.387 268.311 154.69 268.434 155.06C268.557 155.424 268.618 155.866 268.618 156.386V161H266.984V156.413C266.984 156.108 266.95 155.853 266.882 155.647C266.813 155.442 266.713 155.278 266.581 155.155C266.449 155.032 266.289 154.946 266.103 154.896C265.916 154.841 265.701 154.813 265.46 154.813C265.259 154.813 265.073 154.841 264.899 154.896C264.726 154.946 264.569 155.019 264.428 155.114C264.318 155.187 264.216 155.276 264.12 155.381C264.024 155.486 263.94 155.6 263.867 155.723V161H262.233ZM270.423 157.247C270.423 156.687 270.489 156.176 270.621 155.716C270.758 155.251 270.954 154.852 271.209 154.52C271.46 154.187 271.765 153.929 272.125 153.747C272.49 153.56 272.9 153.467 273.355 153.467C273.766 153.467 274.123 153.54 274.429 153.686C274.739 153.827 275.012 154.03 275.249 154.294V150.5H276.883V161H275.399L275.324 160.228C275.087 160.519 274.805 160.745 274.477 160.904C274.148 161.059 273.77 161.137 273.342 161.137C272.891 161.137 272.485 161.043 272.125 160.856C271.765 160.665 271.46 160.401 271.209 160.063C270.958 159.731 270.765 159.337 270.628 158.881C270.491 158.421 270.423 157.924 270.423 157.391V157.247ZM272.057 157.391C272.057 157.719 272.089 158.029 272.152 158.32C272.216 158.612 272.316 158.865 272.453 159.079C272.59 159.302 272.765 159.478 272.979 159.605C273.194 159.729 273.451 159.79 273.752 159.79C274.121 159.79 274.426 159.71 274.668 159.551C274.91 159.387 275.103 159.166 275.249 158.888V155.709C275.103 155.436 274.91 155.219 274.668 155.06C274.431 154.896 274.13 154.813 273.766 154.813C273.46 154.813 273.198 154.877 272.979 155.005C272.765 155.132 272.592 155.308 272.46 155.531C272.319 155.755 272.216 156.014 272.152 156.311C272.089 156.602 272.057 156.914 272.057 157.247V157.391ZM283.924 157.069C283.924 157.707 283.871 158.309 283.767 158.874C283.666 159.439 283.53 159.963 283.356 160.446C283.183 160.934 282.983 161.378 282.755 161.779C282.527 162.18 282.285 162.536 282.03 162.846C281.775 163.165 281.515 163.434 281.251 163.652C280.987 163.871 280.731 164.04 280.485 164.158L280.164 163.242C280.337 163.115 280.51 162.953 280.684 162.757C280.857 162.561 281.025 162.335 281.189 162.08C281.363 161.798 281.524 161.476 281.675 161.116C281.83 160.761 281.96 160.367 282.064 159.934C282.165 159.533 282.242 159.095 282.297 158.621C282.356 158.147 282.386 157.634 282.386 157.083V156.939C282.386 156.37 282.354 155.846 282.29 155.367C282.226 154.889 282.146 154.46 282.051 154.082C281.923 153.59 281.768 153.148 281.586 152.756C281.408 152.364 281.221 152.024 281.025 151.737C280.889 151.532 280.745 151.35 280.595 151.19C280.449 151.026 280.305 150.89 280.164 150.78L280.485 149.864C280.731 149.983 280.987 150.154 281.251 150.377C281.52 150.596 281.78 150.86 282.03 151.17C282.29 151.489 282.534 151.849 282.762 152.25C282.99 152.646 283.188 153.089 283.356 153.576C283.525 154.059 283.662 154.581 283.767 155.142C283.871 155.698 283.924 156.301 283.924 156.953V157.069Z" fill="#380037"/>
<path d="M305.162 160.788C305.162 161.28 305.041 161.779 304.8 162.285C304.563 162.796 304.248 163.226 303.856 163.577L302.94 163.092C303.136 162.768 303.287 162.426 303.392 162.066C303.501 161.706 303.556 161.301 303.556 160.85V159.407H305.162V160.788Z" fill="#001E2E"/>
<rect x="318" y="144.5" width="146" height="23" rx="5.5" fill="#FFEBF7"/>
<rect x="318" y="144.5" width="146" height="23" rx="5.5" stroke="#FFADF3"/>
<path d="M326.979 161L324.067 153.604H325.763L327.595 158.97L327.704 159.462L327.813 158.97L329.625 153.604H331.32L328.422 161H326.979ZM337.691 161C337.641 160.909 337.6 160.799 337.568 160.672C337.541 160.54 337.516 160.403 337.493 160.262C337.379 160.38 337.249 160.494 337.104 160.604C336.962 160.708 336.803 160.799 336.625 160.877C336.447 160.959 336.256 161.023 336.051 161.068C335.846 161.114 335.625 161.137 335.388 161.137C335.005 161.137 334.654 161.082 334.335 160.973C334.021 160.859 333.752 160.704 333.528 160.508C333.3 160.316 333.123 160.086 332.995 159.817C332.872 159.544 332.811 159.25 332.811 158.936C332.811 158.53 332.89 158.172 333.05 157.862C333.214 157.548 333.451 157.288 333.761 157.083C334.048 156.892 334.401 156.746 334.82 156.646C335.244 156.545 335.723 156.495 336.256 156.495H337.445V155.996C337.445 155.805 337.411 155.632 337.343 155.477C337.279 155.322 337.186 155.187 337.062 155.073C336.93 154.959 336.769 154.873 336.577 154.813C336.39 154.75 336.174 154.718 335.928 154.718C335.704 154.718 335.508 154.745 335.34 154.8C335.176 154.854 335.039 154.93 334.93 155.025C334.82 155.112 334.738 155.219 334.684 155.347C334.633 155.47 334.608 155.602 334.608 155.743H332.968C332.972 155.447 333.043 155.162 333.18 154.889C333.316 154.615 333.517 154.374 333.781 154.164C334.036 153.95 334.351 153.781 334.725 153.658C335.103 153.531 335.534 153.467 336.017 153.467C336.45 153.467 336.853 153.521 337.227 153.631C337.605 153.736 337.931 153.893 338.204 154.103C338.478 154.312 338.692 154.579 338.847 154.902C339.002 155.221 339.079 155.59 339.079 156.01V159.298C339.079 159.631 339.102 159.931 339.147 160.2C339.198 160.465 339.268 160.692 339.359 160.884V161H337.691ZM335.702 159.824C335.916 159.824 336.115 159.797 336.297 159.742C336.484 159.688 336.652 159.617 336.803 159.53C336.953 159.444 337.083 159.346 337.192 159.236C337.302 159.127 337.386 159.013 337.445 158.895V157.527H336.393C336.037 157.527 335.729 157.562 335.47 157.63C335.21 157.694 335.003 157.787 334.848 157.91C334.711 158.015 334.608 158.14 334.54 158.286C334.476 158.432 334.444 158.596 334.444 158.778C334.444 158.929 334.472 159.07 334.526 159.202C334.581 159.33 334.661 159.439 334.766 159.53C334.87 159.621 335 159.694 335.155 159.749C335.31 159.799 335.493 159.824 335.702 159.824ZM346.489 153.467C346.754 153.467 347.009 153.485 347.255 153.521C347.506 153.558 347.701 153.601 347.843 153.651L347.61 155.265C347.36 155.21 347.111 155.169 346.865 155.142C346.624 155.114 346.382 155.101 346.141 155.101C345.867 155.101 345.621 155.128 345.402 155.183C345.184 155.237 344.99 155.322 344.821 155.436C344.639 155.545 344.484 155.684 344.356 155.853C344.229 156.021 344.122 156.215 344.035 156.434V161H342.401V153.604H343.933L344.001 154.629L344.008 154.8C344.309 154.385 344.669 154.059 345.088 153.822C345.512 153.585 345.979 153.467 346.489 153.467ZM351.117 156.953C351.117 156.311 351.167 155.704 351.268 155.135C351.368 154.561 351.502 154.03 351.671 153.542C351.844 153.063 352.042 152.624 352.266 152.223C352.493 151.822 352.733 151.466 352.983 151.156C353.229 150.846 353.482 150.584 353.742 150.37C354.002 150.151 354.253 149.983 354.494 149.864L354.822 150.814C354.676 150.924 354.531 151.056 354.385 151.211C354.239 151.366 354.095 151.541 353.954 151.737C353.758 152.015 353.574 152.341 353.4 152.715C353.232 153.089 353.086 153.496 352.963 153.938C352.849 154.353 352.758 154.811 352.689 155.312C352.626 155.814 352.594 156.356 352.594 156.939V157.083C352.594 157.653 352.626 158.184 352.689 158.676C352.753 159.163 352.828 159.578 352.915 159.92C353.024 160.33 353.15 160.711 353.291 161.062C353.437 161.412 353.59 161.722 353.749 161.991C353.918 162.265 354.093 162.506 354.275 162.716C354.458 162.925 354.64 163.101 354.822 163.242L354.494 164.158C354.253 164.04 354.002 163.871 353.742 163.652C353.482 163.438 353.227 163.176 352.977 162.866C352.726 162.556 352.487 162.201 352.259 161.8C352.035 161.403 351.84 160.961 351.671 160.474C351.502 159.991 351.368 159.466 351.268 158.901C351.167 158.332 351.117 157.721 351.117 157.069V156.953ZM364.379 157.288H358.876V155.962H364.379V157.288ZM372.787 157.288H367.284V155.962H372.787V157.288ZM379.732 161C379.682 160.909 379.641 160.799 379.609 160.672C379.582 160.54 379.557 160.403 379.534 160.262C379.42 160.38 379.29 160.494 379.145 160.604C379.003 160.708 378.844 160.799 378.666 160.877C378.488 160.959 378.297 161.023 378.092 161.068C377.887 161.114 377.666 161.137 377.429 161.137C377.046 161.137 376.695 161.082 376.376 160.973C376.062 160.859 375.793 160.704 375.569 160.508C375.341 160.316 375.164 160.086 375.036 159.817C374.913 159.544 374.852 159.25 374.852 158.936C374.852 158.53 374.931 158.172 375.091 157.862C375.255 157.548 375.492 157.288 375.802 157.083C376.089 156.892 376.442 156.746 376.861 156.646C377.285 156.545 377.764 156.495 378.297 156.495H379.486V155.996C379.486 155.805 379.452 155.632 379.384 155.477C379.32 155.322 379.227 155.187 379.104 155.073C378.971 154.959 378.81 154.873 378.618 154.813C378.431 154.75 378.215 154.718 377.969 154.718C377.745 154.718 377.549 154.745 377.381 154.8C377.217 154.854 377.08 154.93 376.971 155.025C376.861 155.112 376.779 155.219 376.725 155.347C376.674 155.47 376.649 155.602 376.649 155.743H375.009C375.013 155.447 375.084 155.162 375.221 154.889C375.357 154.615 375.558 154.374 375.822 154.164C376.077 153.95 376.392 153.781 376.766 153.658C377.144 153.531 377.575 153.467 378.058 153.467C378.491 153.467 378.894 153.521 379.268 153.631C379.646 153.736 379.972 153.893 380.245 154.103C380.519 154.312 380.733 154.579 380.888 154.902C381.043 155.221 381.12 155.59 381.12 156.01V159.298C381.12 159.631 381.143 159.931 381.188 160.2C381.239 160.465 381.309 160.692 381.4 160.884V161H379.732ZM377.743 159.824C377.957 159.824 378.156 159.797 378.338 159.742C378.525 159.688 378.693 159.617 378.844 159.53C378.994 159.444 379.124 159.346 379.233 159.236C379.343 159.127 379.427 159.013 379.486 158.895V157.527H378.434C378.078 157.527 377.771 157.562 377.511 157.63C377.251 157.694 377.044 157.787 376.889 157.91C376.752 158.015 376.649 158.14 376.581 158.286C376.517 158.432 376.485 158.596 376.485 158.778C376.485 158.929 376.513 159.07 376.567 159.202C376.622 159.33 376.702 159.439 376.807 159.53C376.911 159.621 377.041 159.694 377.196 159.749C377.351 159.799 377.534 159.824 377.743 159.824ZM383.731 150.5H387.717V159.646H389.959V161H383.731V159.646H386.069V151.86H383.731V150.5ZM391.839 163.844V153.604H393.343L393.404 154.362C393.505 154.239 393.614 154.128 393.732 154.027C393.851 153.927 393.979 153.84 394.115 153.768C394.293 153.672 394.489 153.599 394.703 153.549C394.917 153.494 395.145 153.467 395.387 153.467C395.861 153.467 396.278 153.558 396.638 153.74C397.002 153.923 397.308 154.18 397.554 154.513C397.795 154.845 397.98 155.244 398.107 155.709C398.235 156.169 398.299 156.677 398.299 157.233V157.377C398.299 157.91 398.235 158.407 398.107 158.867C397.984 159.327 397.8 159.724 397.554 160.057C397.308 160.394 397.005 160.658 396.645 160.85C396.285 161.041 395.872 161.137 395.407 161.137C395.143 161.137 394.899 161.109 394.676 161.055C394.457 161 394.254 160.92 394.067 160.815C393.958 160.752 393.853 160.679 393.753 160.597C393.653 160.515 393.559 160.426 393.473 160.33V163.844H391.839ZM396.665 157.233C396.665 156.901 396.631 156.589 396.562 156.297C396.499 156.001 396.398 155.743 396.262 155.524C396.12 155.306 395.94 155.132 395.722 155.005C395.503 154.877 395.241 154.813 394.936 154.813C394.767 154.813 394.61 154.832 394.464 154.868C394.318 154.905 394.188 154.957 394.074 155.025C393.942 155.098 393.826 155.189 393.726 155.299C393.63 155.408 393.546 155.531 393.473 155.668V158.956C393.536 159.084 393.614 159.2 393.705 159.305C393.796 159.41 393.901 159.501 394.02 159.578C394.143 159.651 394.282 159.71 394.437 159.756C394.591 159.797 394.762 159.817 394.949 159.817C395.255 159.817 395.514 159.754 395.729 159.626C395.947 159.494 396.125 159.316 396.262 159.093C396.403 158.865 396.506 158.605 396.569 158.313C396.633 158.017 396.665 157.705 396.665 157.377V157.233ZM401.867 154.656C401.963 154.51 402.07 154.376 402.188 154.253C402.307 154.13 402.432 154.023 402.564 153.932C402.77 153.781 402.995 153.667 403.241 153.59C403.492 153.508 403.756 153.467 404.034 153.467C404.422 153.467 404.775 153.524 405.094 153.638C405.417 153.752 405.693 153.929 405.921 154.171C406.149 154.412 406.324 154.722 406.447 155.101C406.575 155.474 406.639 155.923 406.639 156.447V161H405.005V156.434C405.005 156.16 404.971 155.921 404.902 155.716C404.839 155.511 404.743 155.344 404.615 155.217C404.483 155.08 404.321 154.98 404.13 154.916C403.943 154.848 403.727 154.813 403.48 154.813C403.289 154.813 403.107 154.836 402.934 154.882C402.765 154.927 402.61 154.993 402.469 155.08C402.35 155.148 402.239 155.23 402.134 155.326C402.034 155.422 401.945 155.529 401.867 155.647V161H400.233V150.5H401.867V154.656ZM413.365 161C413.315 160.909 413.274 160.799 413.242 160.672C413.215 160.54 413.19 160.403 413.167 160.262C413.053 160.38 412.923 160.494 412.777 160.604C412.636 160.708 412.477 160.799 412.299 160.877C412.121 160.959 411.93 161.023 411.725 161.068C411.52 161.114 411.299 161.137 411.062 161.137C410.679 161.137 410.328 161.082 410.009 160.973C409.694 160.859 409.425 160.704 409.202 160.508C408.974 160.316 408.797 160.086 408.669 159.817C408.546 159.544 408.484 159.25 408.484 158.936C408.484 158.53 408.564 158.172 408.724 157.862C408.888 157.548 409.125 157.288 409.435 157.083C409.722 156.892 410.075 156.746 410.494 156.646C410.918 156.545 411.396 156.495 411.93 156.495H413.119V155.996C413.119 155.805 413.085 155.632 413.017 155.477C412.953 155.322 412.859 155.187 412.736 155.073C412.604 154.959 412.442 154.873 412.251 154.813C412.064 154.75 411.848 154.718 411.602 154.718C411.378 154.718 411.182 154.745 411.014 154.8C410.85 154.854 410.713 154.93 410.604 155.025C410.494 155.112 410.412 155.219 410.357 155.347C410.307 155.47 410.282 155.602 410.282 155.743H408.642C408.646 155.447 408.717 155.162 408.854 154.889C408.99 154.615 409.191 154.374 409.455 154.164C409.71 153.95 410.025 153.781 410.398 153.658C410.777 153.531 411.207 153.467 411.69 153.467C412.123 153.467 412.527 153.521 412.9 153.631C413.279 153.736 413.604 153.893 413.878 154.103C414.151 154.312 414.366 154.579 414.521 154.902C414.675 155.221 414.753 155.59 414.753 156.01V159.298C414.753 159.631 414.776 159.931 414.821 160.2C414.871 160.465 414.942 160.692 415.033 160.884V161H413.365ZM411.376 159.824C411.59 159.824 411.788 159.797 411.971 159.742C412.158 159.688 412.326 159.617 412.477 159.53C412.627 159.444 412.757 159.346 412.866 159.236C412.976 159.127 413.06 159.013 413.119 158.895V157.527H412.066C411.711 157.527 411.403 157.562 411.144 157.63C410.884 157.694 410.676 157.787 410.521 157.91C410.385 158.015 410.282 158.14 410.214 158.286C410.15 158.432 410.118 158.596 410.118 158.778C410.118 158.929 410.146 159.07 410.2 159.202C410.255 159.33 410.335 159.439 410.439 159.53C410.544 159.621 410.674 159.694 410.829 159.749C410.984 159.799 411.166 159.824 411.376 159.824ZM423.236 157.288H417.733V155.962H423.236V157.288ZM426.388 153.604L426.436 154.417C426.577 154.121 426.771 153.888 427.017 153.72C427.267 153.551 427.568 153.467 427.919 153.467C428.101 153.467 428.265 153.487 428.411 153.528C428.557 153.569 428.682 153.633 428.787 153.72C428.869 153.784 428.942 153.861 429.006 153.952C429.07 154.039 429.124 154.139 429.17 154.253C429.234 154.148 429.307 154.05 429.389 153.959C429.471 153.868 429.56 153.79 429.655 153.727C429.778 153.645 429.915 153.581 430.065 153.535C430.22 153.49 430.389 153.467 430.571 153.467C430.808 153.467 431.025 153.508 431.221 153.59C431.421 153.667 431.594 153.788 431.74 153.952C431.886 154.125 431.998 154.351 432.075 154.629C432.157 154.902 432.198 155.233 432.198 155.62V161H430.694V155.606C430.694 155.461 430.678 155.338 430.646 155.237C430.615 155.132 430.569 155.048 430.51 154.984C430.451 154.925 430.378 154.882 430.291 154.854C430.209 154.827 430.118 154.813 430.018 154.813C429.913 154.813 429.822 154.827 429.744 154.854C429.667 154.882 429.598 154.921 429.539 154.971C429.484 155.016 429.439 155.071 429.402 155.135C429.366 155.194 429.339 155.262 429.32 155.34C429.32 155.358 429.32 155.381 429.32 155.408C429.32 155.431 429.32 155.465 429.32 155.511V161H427.844V155.6C427.844 155.454 427.828 155.331 427.796 155.23C427.769 155.126 427.725 155.044 427.666 154.984C427.607 154.925 427.536 154.882 427.454 154.854C427.377 154.827 427.288 154.813 427.188 154.813C427.078 154.813 426.98 154.829 426.894 154.861C426.812 154.889 426.741 154.932 426.682 154.991C426.636 155.032 426.595 155.08 426.559 155.135C426.527 155.189 426.497 155.251 426.47 155.319V161H424.966V153.604H426.388ZM434.242 153.604H438.166V159.646H440.34V161H434.242V159.646H436.519V154.964H434.242V153.604ZM436.368 151.689C436.368 151.557 436.391 151.437 436.437 151.327C436.482 151.213 436.548 151.115 436.635 151.033C436.717 150.956 436.815 150.896 436.929 150.855C437.047 150.81 437.179 150.787 437.325 150.787C437.571 150.787 437.77 150.851 437.92 150.979C438.075 151.102 438.164 151.261 438.187 151.457C438.218 151.658 438.184 151.833 438.084 151.983C437.984 152.129 437.838 152.227 437.646 152.277C437.551 152.364 437.437 152.421 437.305 152.448C437.173 152.476 437.027 152.464 436.867 152.414C436.703 152.364 436.578 152.275 436.491 152.147C436.409 152.015 436.368 151.863 436.368 151.689ZM442.056 157.247C442.056 156.687 442.122 156.176 442.254 155.716C442.391 155.251 442.587 154.852 442.842 154.52C443.092 154.187 443.398 153.929 443.758 153.747C444.122 153.56 444.533 153.467 444.988 153.467C445.398 153.467 445.756 153.54 446.062 153.686C446.371 153.827 446.645 154.03 446.882 154.294V150.5H448.516V161H447.032L446.957 160.228C446.72 160.519 446.438 160.745 446.109 160.904C445.781 161.059 445.403 161.137 444.975 161.137C444.523 161.137 444.118 161.043 443.758 160.856C443.398 160.665 443.092 160.401 442.842 160.063C442.591 159.731 442.397 159.337 442.261 158.881C442.124 158.421 442.056 157.924 442.056 157.391V157.247ZM443.689 157.391C443.689 157.719 443.721 158.029 443.785 158.32C443.849 158.612 443.949 158.865 444.086 159.079C444.223 159.302 444.398 159.478 444.612 159.605C444.826 159.729 445.084 159.79 445.385 159.79C445.754 159.79 446.059 159.71 446.301 159.551C446.542 159.387 446.736 159.166 446.882 158.888V155.709C446.736 155.436 446.542 155.219 446.301 155.06C446.064 154.896 445.763 154.813 445.398 154.813C445.093 154.813 444.831 154.877 444.612 155.005C444.398 155.132 444.225 155.308 444.093 155.531C443.951 155.755 443.849 156.014 443.785 156.311C443.721 156.602 443.689 156.914 443.689 157.247V157.391ZM455.557 157.069C455.557 157.707 455.504 158.309 455.399 158.874C455.299 159.439 455.162 159.963 454.989 160.446C454.816 160.934 454.616 161.378 454.388 161.779C454.16 162.18 453.918 162.536 453.663 162.846C453.408 163.165 453.148 163.434 452.884 163.652C452.619 163.871 452.364 164.04 452.118 164.158L451.797 163.242C451.97 163.115 452.143 162.953 452.316 162.757C452.49 162.561 452.658 162.335 452.822 162.08C452.995 161.798 453.157 161.476 453.308 161.116C453.463 160.761 453.592 160.367 453.697 159.934C453.798 159.533 453.875 159.095 453.93 158.621C453.989 158.147 454.019 157.634 454.019 157.083V156.939C454.019 156.37 453.987 155.846 453.923 155.367C453.859 154.889 453.779 154.46 453.684 154.082C453.556 153.59 453.401 153.148 453.219 152.756C453.041 152.364 452.854 152.024 452.658 151.737C452.521 151.532 452.378 151.35 452.228 151.19C452.082 151.026 451.938 150.89 451.797 150.78L452.118 149.864C452.364 149.983 452.619 150.154 452.884 150.377C453.153 150.596 453.412 150.86 453.663 151.17C453.923 151.489 454.167 151.849 454.395 152.25C454.622 152.646 454.821 153.089 454.989 153.576C455.158 154.059 455.295 154.581 455.399 155.142C455.504 155.698 455.557 156.301 455.557 156.953V157.069Z" fill="#380037"/>
<path d="M478.434 157.069C478.434 157.707 478.381 158.309 478.276 158.874C478.176 159.439 478.039 159.963 477.866 160.446C477.693 160.934 477.493 161.378 477.265 161.779C477.037 162.18 476.795 162.536 476.54 162.846C476.285 163.165 476.025 163.434 475.761 163.652C475.496 163.871 475.241 164.04 474.995 164.158L474.674 163.242C474.847 163.115 475.02 162.953 475.193 162.757C475.367 162.561 475.535 162.335 475.699 162.08C475.872 161.798 476.034 161.476 476.185 161.116C476.34 160.761 476.469 160.367 476.574 159.934C476.674 159.533 476.752 159.095 476.807 158.621C476.866 158.147 476.896 157.634 476.896 157.083V156.939C476.896 156.37 476.864 155.846 476.8 155.367C476.736 154.889 476.656 154.46 476.561 154.082C476.433 153.59 476.278 153.148 476.096 152.756C475.918 152.364 475.731 152.024 475.535 151.737C475.398 151.532 475.255 151.35 475.104 151.19C474.959 151.026 474.815 150.89 474.674 150.78L474.995 149.864C475.241 149.983 475.496 150.154 475.761 150.377C476.03 150.596 476.289 150.86 476.54 151.17C476.8 151.489 477.044 151.849 477.271 152.25C477.499 152.646 477.698 153.089 477.866 153.576C478.035 154.059 478.172 154.581 478.276 155.142C478.381 155.698 478.434 156.301 478.434 156.953V157.069ZM484.333 154.226C484.333 153.911 484.433 153.642 484.634 153.419C484.839 153.196 485.133 153.084 485.516 153.084C485.889 153.084 486.181 153.196 486.391 153.419C486.6 153.638 486.705 153.907 486.705 154.226C486.705 154.545 486.598 154.811 486.384 155.025C486.174 155.24 485.885 155.347 485.516 155.347C485.142 155.347 484.85 155.24 484.641 155.025C484.436 154.807 484.333 154.54 484.333 154.226ZM486.254 160.788C486.254 161.28 486.133 161.779 485.892 162.285C485.655 162.796 485.34 163.226 484.948 163.577L484.032 163.092C484.228 162.768 484.379 162.426 484.483 162.066C484.593 161.706 484.647 161.301 484.647 160.85V159.407H486.254V160.788Z" fill="#001E2E"/>
</svg>
