<svg width="720" height="224" viewBox="0 0 720 224" fill="none" xmlns="http://www.w3.org/2000/svg">
<rect width="720" height="224" fill="#87CEFF" fill-opacity="0.16"/>
<rect x="96.5" y="48.5" width="527" height="39" rx="7.5" fill="#E5F2FF"/>
<rect x="96.5" y="48.5" width="527" height="39" rx="7.5" stroke="#87CEFF"/>
<path d="M115.246 69.2881H109.743V67.9619H115.246V69.2881ZM123.654 69.2881H118.151V67.9619H123.654V69.2881ZM125.575 69.2334C125.575 68.6956 125.653 68.1989 125.808 67.7432C125.963 67.2829 126.188 66.8841 126.484 66.5469C126.776 66.2096 127.134 65.9453 127.558 65.7539C127.981 65.5625 128.465 65.4668 129.007 65.4668C129.549 65.4668 130.032 65.5625 130.456 65.7539C130.884 65.9453 131.247 66.2096 131.543 66.5469C131.835 66.8841 132.058 67.2829 132.213 67.7432C132.368 68.1989 132.445 68.6956 132.445 69.2334V69.377C132.445 69.9193 132.368 70.4183 132.213 70.874C132.058 71.3298 131.835 71.7262 131.543 72.0635C131.251 72.4007 130.891 72.665 130.463 72.8564C130.039 73.0479 129.558 73.1436 129.021 73.1436C128.478 73.1436 127.993 73.0479 127.564 72.8564C127.136 72.665 126.776 72.4007 126.484 72.0635C126.188 71.7262 125.963 71.3298 125.808 70.874C125.653 70.4183 125.575 69.9193 125.575 69.377V69.2334ZM127.209 69.377C127.209 69.7096 127.243 70.0241 127.312 70.3203C127.384 70.6165 127.496 70.8763 127.646 71.0996C127.792 71.3229 127.979 71.5007 128.207 71.6328C128.435 71.7604 128.706 71.8242 129.021 71.8242C129.326 71.8242 129.592 71.7604 129.82 71.6328C130.048 71.5007 130.235 71.3229 130.381 71.0996C130.527 70.8763 130.634 70.6165 130.702 70.3203C130.775 70.0241 130.812 69.7096 130.812 69.377V69.2334C130.812 68.9098 130.775 68.5999 130.702 68.3037C130.629 68.0075 130.522 67.7477 130.381 67.5244C130.23 67.3011 130.041 67.1234 129.813 66.9912C129.59 66.859 129.321 66.793 129.007 66.793C128.697 66.793 128.428 66.859 128.2 66.9912C127.977 67.1234 127.792 67.3011 127.646 67.5244C127.496 67.7477 127.384 68.0075 127.312 68.3037C127.243 68.5999 127.209 68.9098 127.209 69.2334V69.377ZM136.704 73L133.792 65.6035H135.487L137.319 70.9697L137.429 71.4619L137.538 70.9697L139.35 65.6035H141.045L138.146 73H136.704ZM146.145 73.1367C145.598 73.1367 145.096 73.0456 144.641 72.8633C144.189 72.681 143.802 72.4281 143.479 72.1045C143.155 71.7855 142.904 71.4095 142.727 70.9766C142.553 70.5391 142.467 70.0674 142.467 69.5615V69.2812C142.467 68.7025 142.558 68.1784 142.74 67.709C142.923 67.2396 143.173 66.8385 143.492 66.5059C143.811 66.1732 144.18 65.918 144.6 65.7402C145.023 65.5579 145.475 65.4668 145.953 65.4668C146.486 65.4668 146.958 65.5579 147.368 65.7402C147.778 65.918 148.122 66.1663 148.4 66.4854C148.678 66.8089 148.888 67.194 149.029 67.6406C149.171 68.0872 149.241 68.5749 149.241 69.1035V69.8076H144.114V69.8418C144.164 70.1654 144.242 70.4365 144.347 70.6553C144.451 70.874 144.595 71.07 144.777 71.2432C144.96 71.4255 145.174 71.5667 145.42 71.667C145.671 71.7673 145.944 71.8174 146.24 71.8174C146.646 71.8174 147.024 71.7399 147.375 71.585C147.726 71.4255 148.015 71.1999 148.243 70.9082L149.118 71.7559C148.872 72.1113 148.494 72.4303 147.983 72.7129C147.478 72.9954 146.865 73.1367 146.145 73.1367ZM145.946 66.793C145.714 66.793 145.497 66.8363 145.297 66.9229C145.101 67.0049 144.925 67.1234 144.771 67.2783C144.616 67.4378 144.486 67.6292 144.381 67.8525C144.276 68.0758 144.199 68.3288 144.148 68.6113H147.628V68.502C147.628 68.2878 147.589 68.0758 147.512 67.8662C147.434 67.652 147.325 67.4652 147.184 67.3057C147.047 67.1507 146.874 67.0277 146.664 66.9365C146.459 66.8408 146.22 66.793 145.946 66.793ZM156.214 65.4668C156.478 65.4668 156.733 65.485 156.979 65.5215C157.23 65.5579 157.426 65.6012 157.567 65.6514L157.335 67.2646C157.084 67.21 156.836 67.1689 156.59 67.1416C156.348 67.1143 156.107 67.1006 155.865 67.1006C155.592 67.1006 155.346 67.1279 155.127 67.1826C154.908 67.2373 154.715 67.3216 154.546 67.4355C154.364 67.5449 154.209 67.6839 154.081 67.8525C153.953 68.0212 153.846 68.2148 153.76 68.4336V73H152.126V65.6035H153.657L153.726 66.6289L153.732 66.7998C154.033 66.3851 154.393 66.0592 154.812 65.8223C155.236 65.5853 155.703 65.4668 156.214 65.4668ZM159.823 62.5H163.809V71.6465H166.051V73H159.823V71.6465H162.161V63.8604H159.823V62.5ZM172.641 73C172.59 72.9089 172.549 72.7995 172.518 72.6719C172.49 72.5397 172.465 72.403 172.442 72.2617C172.328 72.3802 172.199 72.4941 172.053 72.6035C171.911 72.7083 171.752 72.7995 171.574 72.877C171.396 72.959 171.205 73.0228 171 73.0684C170.795 73.1139 170.574 73.1367 170.337 73.1367C169.954 73.1367 169.603 73.082 169.284 72.9727C168.97 72.8587 168.701 72.7038 168.478 72.5078C168.25 72.3164 168.072 72.0863 167.944 71.8174C167.821 71.5439 167.76 71.25 167.76 70.9355C167.76 70.5299 167.84 70.1722 167.999 69.8623C168.163 69.5479 168.4 69.2881 168.71 69.083C168.997 68.8916 169.35 68.7458 169.77 68.6455C170.193 68.5452 170.672 68.4951 171.205 68.4951H172.395V67.9961C172.395 67.8047 172.36 67.6315 172.292 67.4766C172.228 67.3216 172.135 67.1872 172.012 67.0732C171.88 66.9593 171.718 66.8727 171.526 66.8135C171.34 66.7497 171.123 66.7178 170.877 66.7178C170.654 66.7178 170.458 66.7451 170.289 66.7998C170.125 66.8545 169.988 66.9297 169.879 67.0254C169.77 67.112 169.688 67.2191 169.633 67.3467C169.583 67.4697 169.558 67.6019 169.558 67.7432H167.917C167.922 67.4469 167.992 67.1621 168.129 66.8887C168.266 66.6152 168.466 66.3737 168.73 66.1641C168.986 65.9499 169.3 65.7812 169.674 65.6582C170.052 65.5306 170.483 65.4668 170.966 65.4668C171.399 65.4668 171.802 65.5215 172.176 65.6309C172.554 65.7357 172.88 65.8929 173.153 66.1025C173.427 66.3122 173.641 66.5788 173.796 66.9023C173.951 67.2214 174.028 67.5905 174.028 68.0098V71.2979C174.028 71.6305 174.051 71.9313 174.097 72.2002C174.147 72.4645 174.217 72.6924 174.309 72.8838V73H172.641ZM170.651 71.8242C170.866 71.8242 171.064 71.7969 171.246 71.7422C171.433 71.6875 171.602 71.6169 171.752 71.5303C171.902 71.4437 172.032 71.3457 172.142 71.2363C172.251 71.127 172.335 71.013 172.395 70.8945V69.5273H171.342C170.986 69.5273 170.679 69.5615 170.419 69.6299C170.159 69.6937 169.952 69.7871 169.797 69.9102C169.66 70.015 169.558 70.1403 169.489 70.2861C169.425 70.432 169.394 70.596 169.394 70.7783C169.394 70.9287 169.421 71.07 169.476 71.2021C169.53 71.3298 169.61 71.4391 169.715 71.5303C169.82 71.6214 169.95 71.6943 170.104 71.749C170.259 71.7992 170.442 71.8242 170.651 71.8242ZM177.255 75.9873C177.095 75.9873 176.943 75.9736 176.797 75.9463C176.656 75.9235 176.519 75.8962 176.387 75.8643L176.612 74.5859C176.703 74.5905 176.806 74.5951 176.92 74.5996C177.038 74.6087 177.134 74.6133 177.207 74.6133C177.367 74.6133 177.51 74.5654 177.638 74.4697C177.765 74.3786 177.877 74.2738 177.973 74.1553C178.064 74.0368 178.137 73.932 178.191 73.8408C178.251 73.7497 178.305 73.654 178.355 73.5537L178.82 72.6719L175.669 65.6035H177.467L179.306 70.1221L179.559 70.9355L179.866 70.1426L181.65 65.6035H183.462L179.709 74.1211C179.622 74.3125 179.513 74.5153 179.381 74.7295C179.253 74.9482 179.091 75.1488 178.896 75.3311C178.7 75.5179 178.467 75.6729 178.198 75.7959C177.929 75.9235 177.615 75.9873 177.255 75.9873ZM190.92 69.2881H185.417V67.9619H190.92V69.2881ZM199.643 69.377C199.643 69.7188 199.618 70.0446 199.567 70.3545C199.517 70.6644 199.444 70.9515 199.349 71.2158C199.239 71.5303 199.093 71.8151 198.911 72.0703C198.729 72.3255 198.51 72.5374 198.255 72.7061C198.05 72.8428 197.82 72.9476 197.564 73.0205C197.314 73.098 197.04 73.1367 196.744 73.1367C196.443 73.1367 196.17 73.1003 195.924 73.0273C195.678 72.9544 195.457 72.8473 195.261 72.7061C195.16 72.6331 195.065 72.5557 194.974 72.4736C194.887 72.387 194.803 72.2936 194.721 72.1934L194.646 73H193.169V62.5H194.803V66.3281C194.898 66.2096 195.003 66.1025 195.117 66.0068C195.231 65.9111 195.354 65.8268 195.486 65.7539C195.66 65.6582 195.849 65.5876 196.054 65.542C196.263 65.4919 196.489 65.4668 196.73 65.4668C197.049 65.4668 197.341 65.5101 197.605 65.5967C197.874 65.6787 198.116 65.7972 198.33 65.9521C198.512 66.0798 198.674 66.237 198.815 66.4238C198.961 66.6061 199.089 66.8066 199.198 67.0254C199.344 67.3307 199.453 67.6702 199.526 68.0439C199.604 68.4176 199.643 68.8141 199.643 69.2334V69.377ZM198.009 69.2334C198.009 69.0238 197.995 68.821 197.968 68.625C197.945 68.4245 197.911 68.2376 197.865 68.0645C197.801 67.8548 197.717 67.6657 197.612 67.4971C197.512 67.3239 197.375 67.1781 197.202 67.0596C197.088 66.9775 196.958 66.916 196.812 66.875C196.667 66.834 196.503 66.8135 196.32 66.8135C196.097 66.8135 195.896 66.8454 195.719 66.9092C195.541 66.9684 195.386 67.055 195.254 67.1689C195.158 67.2464 195.072 67.3376 194.994 67.4424C194.921 67.5426 194.857 67.652 194.803 67.7705V70.833C194.867 70.9697 194.942 71.0951 195.028 71.209C195.119 71.3184 195.222 71.4163 195.336 71.5029C195.464 71.5941 195.609 71.667 195.773 71.7217C195.942 71.7718 196.129 71.7969 196.334 71.7969C196.521 71.7969 196.689 71.7741 196.84 71.7285C196.99 71.6784 197.125 71.6123 197.243 71.5303C197.403 71.4163 197.533 71.2728 197.633 71.0996C197.738 70.9219 197.817 70.7236 197.872 70.5049C197.918 70.3408 197.952 70.1631 197.975 69.9717C197.997 69.7803 198.009 69.582 198.009 69.377V69.2334ZM206.663 65.4668C206.927 65.4668 207.183 65.485 207.429 65.5215C207.679 65.5579 207.875 65.6012 208.017 65.6514L207.784 67.2646C207.534 67.21 207.285 67.1689 207.039 67.1416C206.798 67.1143 206.556 67.1006 206.314 67.1006C206.041 67.1006 205.795 67.1279 205.576 67.1826C205.357 67.2373 205.164 67.3216 204.995 67.4355C204.813 67.5449 204.658 67.6839 204.53 67.8525C204.403 68.0212 204.296 68.2148 204.209 68.4336V73H202.575V65.6035H204.106L204.175 66.6289L204.182 66.7998C204.482 66.3851 204.842 66.0592 205.262 65.8223C205.686 65.5853 206.153 65.4668 206.663 65.4668ZM214.682 73C214.632 72.9089 214.59 72.7995 214.559 72.6719C214.531 72.5397 214.506 72.403 214.483 72.2617C214.369 72.3802 214.24 72.4941 214.094 72.6035C213.952 72.7083 213.793 72.7995 213.615 72.877C213.438 72.959 213.246 73.0228 213.041 73.0684C212.836 73.1139 212.615 73.1367 212.378 73.1367C211.995 73.1367 211.644 73.082 211.325 72.9727C211.011 72.8587 210.742 72.7038 210.519 72.5078C210.291 72.3164 210.113 72.0863 209.985 71.8174C209.862 71.5439 209.801 71.25 209.801 70.9355C209.801 70.5299 209.881 70.1722 210.04 69.8623C210.204 69.5479 210.441 69.2881 210.751 69.083C211.038 68.8916 211.391 68.7458 211.811 68.6455C212.234 68.5452 212.713 68.4951 213.246 68.4951H214.436V67.9961C214.436 67.8047 214.401 67.6315 214.333 67.4766C214.269 67.3216 214.176 67.1872 214.053 67.0732C213.921 66.9593 213.759 66.8727 213.567 66.8135C213.381 66.7497 213.164 66.7178 212.918 66.7178C212.695 66.7178 212.499 66.7451 212.33 66.7998C212.166 66.8545 212.029 66.9297 211.92 67.0254C211.811 67.112 211.729 67.2191 211.674 67.3467C211.624 67.4697 211.599 67.6019 211.599 67.7432H209.958C209.963 67.4469 210.033 67.1621 210.17 66.8887C210.307 66.6152 210.507 66.3737 210.771 66.1641C211.027 65.9499 211.341 65.7812 211.715 65.6582C212.093 65.5306 212.524 65.4668 213.007 65.4668C213.44 65.4668 213.843 65.5215 214.217 65.6309C214.595 65.7357 214.921 65.8929 215.194 66.1025C215.468 66.3122 215.682 66.5788 215.837 66.9023C215.992 67.2214 216.069 67.5905 216.069 68.0098V71.2979C216.069 71.6305 216.092 71.9313 216.138 72.2002C216.188 72.4645 216.258 72.6924 216.35 72.8838V73H214.682ZM212.692 71.8242C212.907 71.8242 213.105 71.7969 213.287 71.7422C213.474 71.6875 213.643 71.6169 213.793 71.5303C213.943 71.4437 214.073 71.3457 214.183 71.2363C214.292 71.127 214.376 71.013 214.436 70.8945V69.5273H213.383C213.027 69.5273 212.72 69.5615 212.46 69.6299C212.2 69.6937 211.993 69.7871 211.838 69.9102C211.701 70.015 211.599 70.1403 211.53 70.2861C211.466 70.432 211.435 70.596 211.435 70.7783C211.435 70.9287 211.462 71.07 211.517 71.2021C211.571 71.3298 211.651 71.4391 211.756 71.5303C211.861 71.6214 211.991 71.6943 212.146 71.749C212.3 71.7992 212.483 71.8242 212.692 71.8242ZM218.366 73V65.6035H219.843L219.945 66.6562C220.046 66.515 220.155 66.3851 220.273 66.2666C220.396 66.1436 220.526 66.0342 220.663 65.9385C220.882 65.7881 221.121 65.6719 221.381 65.5898C221.641 65.5078 221.914 65.4668 222.201 65.4668C222.579 65.4668 222.926 65.5215 223.24 65.6309C223.555 65.7402 223.824 65.9134 224.047 66.1504C224.27 66.3874 224.443 66.6904 224.566 67.0596C224.689 67.4242 224.751 67.8662 224.751 68.3857V73H223.117V68.4131C223.117 68.1077 223.083 67.8525 223.015 67.6475C222.946 67.4424 222.846 67.2783 222.714 67.1553C222.582 67.0322 222.422 66.9456 222.235 66.8955C222.049 66.8408 221.834 66.8135 221.593 66.8135C221.392 66.8135 221.205 66.8408 221.032 66.8955C220.859 66.9456 220.702 67.0186 220.561 67.1143C220.451 67.1872 220.349 67.276 220.253 67.3809C220.157 67.4857 220.073 67.5996 220 67.7227V73H218.366ZM226.556 69.2471C226.556 68.6865 226.622 68.1761 226.754 67.7158C226.891 67.251 227.087 66.8522 227.342 66.5195C227.592 66.1868 227.898 65.9294 228.258 65.7471C228.622 65.5602 229.033 65.4668 229.488 65.4668C229.898 65.4668 230.256 65.5397 230.562 65.6855C230.871 65.8268 231.145 66.0296 231.382 66.2939V62.5H233.016V73H231.532L231.457 72.2275C231.22 72.5192 230.938 72.7448 230.609 72.9043C230.281 73.0592 229.903 73.1367 229.475 73.1367C229.023 73.1367 228.618 73.0433 228.258 72.8564C227.898 72.665 227.592 72.4007 227.342 72.0635C227.091 71.7308 226.897 71.3366 226.761 70.8809C226.624 70.4206 226.556 69.9238 226.556 69.3906V69.2471ZM228.189 69.3906C228.189 69.7188 228.221 70.0286 228.285 70.3203C228.349 70.612 228.449 70.8649 228.586 71.0791C228.723 71.3024 228.898 71.4779 229.112 71.6055C229.326 71.7285 229.584 71.79 229.885 71.79C230.254 71.79 230.559 71.7103 230.801 71.5508C231.042 71.3867 231.236 71.1657 231.382 70.8877V67.709C231.236 67.4355 231.042 67.2191 230.801 67.0596C230.564 66.8955 230.263 66.8135 229.898 66.8135C229.593 66.8135 229.331 66.8773 229.112 67.0049C228.898 67.1325 228.725 67.3079 228.593 67.5312C228.451 67.7546 228.349 68.0143 228.285 68.3105C228.221 68.6022 228.189 68.9144 228.189 69.2471V69.3906ZM237.418 72.0156C237.418 71.7012 237.518 71.4323 237.719 71.209C237.924 70.9857 238.218 70.874 238.601 70.874C238.974 70.874 239.266 70.9857 239.476 71.209C239.685 71.4277 239.79 71.6966 239.79 72.0156C239.79 72.3346 239.683 72.6012 239.469 72.8154C239.259 73.0296 238.97 73.1367 238.601 73.1367C238.227 73.1367 237.935 73.0296 237.726 72.8154C237.521 72.5967 237.418 72.3301 237.418 72.0156ZM237.418 66.2256C237.418 65.9111 237.518 65.6423 237.719 65.4189C237.924 65.1956 238.218 65.084 238.601 65.084C238.974 65.084 239.266 65.1956 239.476 65.4189C239.685 65.6377 239.79 65.9066 239.79 66.2256C239.79 66.5446 239.683 66.8112 239.469 67.0254C239.259 67.2396 238.97 67.3467 238.601 67.3467C238.227 67.3467 237.935 67.2396 237.726 67.0254C237.521 66.8066 237.418 66.54 237.418 66.2256Z" fill="#001E2E"/>
<path d="M257.173 65.4668C257.437 65.4668 257.692 65.485 257.938 65.5215C258.189 65.5579 258.385 65.6012 258.526 65.6514L258.294 67.2646C258.043 67.21 257.795 67.1689 257.549 67.1416C257.307 67.1143 257.066 67.1006 256.824 67.1006C256.551 67.1006 256.305 67.1279 256.086 67.1826C255.867 67.2373 255.674 67.3216 255.505 67.4355C255.323 67.5449 255.168 67.6839 255.04 67.8525C254.912 68.0212 254.805 68.2148 254.719 68.4336V73H253.085V65.6035H254.616L254.685 66.6289L254.691 66.7998C254.992 66.3851 255.352 66.0592 255.771 65.8223C256.195 65.5853 256.662 65.4668 257.173 65.4668ZM260.256 69.2471C260.256 68.6865 260.324 68.1761 260.461 67.7158C260.598 67.251 260.796 66.8522 261.056 66.5195C261.315 66.1868 261.628 65.9294 261.992 65.7471C262.361 65.5602 262.776 65.4668 263.236 65.4668C263.51 65.4668 263.758 65.4964 263.981 65.5557C264.205 65.6104 264.408 65.6924 264.59 65.8018C264.708 65.8701 264.82 65.9521 264.925 66.0479C265.03 66.139 265.128 66.2393 265.219 66.3486L265.287 65.6035H266.771V72.7949C266.771 73.2917 266.688 73.7314 266.524 74.1143C266.365 74.5016 266.139 74.8298 265.848 75.0986C265.551 75.363 265.196 75.5635 264.781 75.7002C264.371 75.8415 263.918 75.9121 263.421 75.9121C263.211 75.9121 262.981 75.8893 262.73 75.8438C262.48 75.7982 262.229 75.7275 261.979 75.6318C261.728 75.5361 261.489 75.4108 261.261 75.2559C261.033 75.1009 260.837 74.9141 260.673 74.6953L261.445 73.7041C261.577 73.8636 261.719 74.0003 261.869 74.1143C262.024 74.2327 262.181 74.3285 262.341 74.4014C262.5 74.4743 262.662 74.5267 262.826 74.5586C262.99 74.5951 263.157 74.6133 263.325 74.6133C263.617 74.6133 263.874 74.5723 264.098 74.4902C264.326 74.4082 264.519 74.2897 264.679 74.1348C264.825 73.9844 264.936 73.7998 265.014 73.5811C265.096 73.3623 265.137 73.1139 265.137 72.8359V72.3232C265.041 72.4235 264.941 72.5169 264.836 72.6035C264.736 72.6901 264.626 72.7653 264.508 72.8291C264.33 72.9294 264.134 73.0046 263.92 73.0547C263.706 73.1094 263.473 73.1367 263.223 73.1367C262.767 73.1367 262.357 73.0433 261.992 72.8564C261.628 72.665 261.315 72.4007 261.056 72.0635C260.8 71.7308 260.602 71.3366 260.461 70.8809C260.324 70.4206 260.256 69.9238 260.256 69.3906V69.2471ZM261.896 69.3906C261.896 69.7188 261.928 70.0286 261.992 70.3203C262.061 70.612 262.168 70.8649 262.313 71.0791C262.455 71.3024 262.635 71.4779 262.854 71.6055C263.072 71.7285 263.332 71.79 263.633 71.79C263.82 71.79 263.988 71.7695 264.139 71.7285C264.294 71.6875 264.433 71.6305 264.556 71.5576C264.679 71.4801 264.788 71.3867 264.884 71.2773C264.979 71.168 265.064 71.0472 265.137 70.915V67.6748C265.064 67.5381 264.975 67.415 264.87 67.3057C264.77 67.1963 264.654 67.1029 264.521 67.0254C264.403 66.9616 264.271 66.9115 264.125 66.875C263.979 66.834 263.82 66.8135 263.646 66.8135C263.341 66.8135 263.079 66.8773 262.86 67.0049C262.642 67.1325 262.462 67.3079 262.32 67.5312C262.174 67.7546 262.067 68.0143 261.999 68.3105C261.931 68.6022 261.896 68.9144 261.896 69.2471V69.3906ZM275.377 69.377C275.377 69.7188 275.352 70.0446 275.302 70.3545C275.252 70.6644 275.179 70.9515 275.083 71.2158C274.974 71.5303 274.828 71.8151 274.646 72.0703C274.463 72.3255 274.244 72.5374 273.989 72.7061C273.784 72.8428 273.554 72.9476 273.299 73.0205C273.048 73.098 272.775 73.1367 272.479 73.1367C272.178 73.1367 271.904 73.1003 271.658 73.0273C271.412 72.9544 271.191 72.8473 270.995 72.7061C270.895 72.6331 270.799 72.5557 270.708 72.4736C270.621 72.387 270.537 72.2936 270.455 72.1934L270.38 73H268.903V62.5H270.537V66.3281C270.633 66.2096 270.738 66.1025 270.852 66.0068C270.965 65.9111 271.089 65.8268 271.221 65.7539C271.394 65.6582 271.583 65.5876 271.788 65.542C271.998 65.4919 272.223 65.4668 272.465 65.4668C272.784 65.4668 273.076 65.5101 273.34 65.5967C273.609 65.6787 273.85 65.7972 274.064 65.9521C274.247 66.0798 274.409 66.237 274.55 66.4238C274.696 66.6061 274.823 66.8066 274.933 67.0254C275.078 67.3307 275.188 67.6702 275.261 68.0439C275.338 68.4176 275.377 68.8141 275.377 69.2334V69.377ZM273.743 69.2334C273.743 69.0238 273.729 68.821 273.702 68.625C273.679 68.4245 273.645 68.2376 273.6 68.0645C273.536 67.8548 273.451 67.6657 273.347 67.4971C273.246 67.3239 273.11 67.1781 272.937 67.0596C272.823 66.9775 272.693 66.916 272.547 66.875C272.401 66.834 272.237 66.8135 272.055 66.8135C271.831 66.8135 271.631 66.8454 271.453 66.9092C271.275 66.9684 271.12 67.055 270.988 67.1689C270.893 67.2464 270.806 67.3376 270.729 67.4424C270.656 67.5426 270.592 67.652 270.537 67.7705V70.833C270.601 70.9697 270.676 71.0951 270.763 71.209C270.854 71.3184 270.956 71.4163 271.07 71.5029C271.198 71.5941 271.344 71.667 271.508 71.7217C271.676 71.7718 271.863 71.7969 272.068 71.7969C272.255 71.7969 272.424 71.7741 272.574 71.7285C272.725 71.6784 272.859 71.6123 272.978 71.5303C273.137 71.4163 273.267 71.2728 273.367 71.0996C273.472 70.9219 273.552 70.7236 273.606 70.5049C273.652 70.3408 273.686 70.1631 273.709 69.9717C273.732 69.7803 273.743 69.582 273.743 69.377V69.2334ZM282.008 73C281.958 72.9089 281.917 72.7995 281.885 72.6719C281.857 72.5397 281.832 72.403 281.81 72.2617C281.696 72.3802 281.566 72.4941 281.42 72.6035C281.279 72.7083 281.119 72.7995 280.941 72.877C280.764 72.959 280.572 73.0228 280.367 73.0684C280.162 73.1139 279.941 73.1367 279.704 73.1367C279.321 73.1367 278.97 73.082 278.651 72.9727C278.337 72.8587 278.068 72.7038 277.845 72.5078C277.617 72.3164 277.439 72.0863 277.312 71.8174C277.188 71.5439 277.127 71.25 277.127 70.9355C277.127 70.5299 277.207 70.1722 277.366 69.8623C277.53 69.5479 277.767 69.2881 278.077 69.083C278.364 68.8916 278.717 68.7458 279.137 68.6455C279.561 68.5452 280.039 68.4951 280.572 68.4951H281.762V67.9961C281.762 67.8047 281.728 67.6315 281.659 67.4766C281.595 67.3216 281.502 67.1872 281.379 67.0732C281.247 66.9593 281.085 66.8727 280.894 66.8135C280.707 66.7497 280.49 66.7178 280.244 66.7178C280.021 66.7178 279.825 66.7451 279.656 66.7998C279.492 66.8545 279.355 66.9297 279.246 67.0254C279.137 67.112 279.055 67.2191 279 67.3467C278.95 67.4697 278.925 67.6019 278.925 67.7432H277.284C277.289 67.4469 277.359 67.1621 277.496 66.8887C277.633 66.6152 277.833 66.3737 278.098 66.1641C278.353 65.9499 278.667 65.7812 279.041 65.6582C279.419 65.5306 279.85 65.4668 280.333 65.4668C280.766 65.4668 281.169 65.5215 281.543 65.6309C281.921 65.7357 282.247 65.8929 282.521 66.1025C282.794 66.3122 283.008 66.5788 283.163 66.9023C283.318 67.2214 283.396 67.5905 283.396 68.0098V71.2979C283.396 71.6305 283.418 71.9313 283.464 72.2002C283.514 72.4645 283.585 72.6924 283.676 72.8838V73H282.008ZM280.019 71.8242C280.233 71.8242 280.431 71.7969 280.613 71.7422C280.8 71.6875 280.969 71.6169 281.119 71.5303C281.27 71.4437 281.399 71.3457 281.509 71.2363C281.618 71.127 281.702 71.013 281.762 70.8945V69.5273H280.709C280.354 69.5273 280.046 69.5615 279.786 69.6299C279.526 69.6937 279.319 69.7871 279.164 69.9102C279.027 70.015 278.925 70.1403 278.856 70.2861C278.793 70.432 278.761 70.596 278.761 70.7783C278.761 70.9287 278.788 71.07 278.843 71.2021C278.897 71.3298 278.977 71.4391 279.082 71.5303C279.187 71.6214 279.317 71.6943 279.472 71.749C279.627 71.7992 279.809 71.8242 280.019 71.8242ZM287.025 68.9531C287.025 68.3105 287.076 67.7044 287.176 67.1348C287.276 66.5605 287.41 66.0296 287.579 65.542C287.752 65.0635 287.951 64.6237 288.174 64.2227C288.402 63.8216 288.641 63.4661 288.892 63.1562C289.138 62.8464 289.391 62.5843 289.65 62.3701C289.91 62.1514 290.161 61.9827 290.402 61.8643L290.73 62.8145C290.585 62.9238 290.439 63.056 290.293 63.2109C290.147 63.3659 290.004 63.5413 289.862 63.7373C289.666 64.0153 289.482 64.3411 289.309 64.7148C289.14 65.0885 288.994 65.4964 288.871 65.9385C288.757 66.3532 288.666 66.8112 288.598 67.3125C288.534 67.8138 288.502 68.3561 288.502 68.9395V69.083C288.502 69.6527 288.534 70.1836 288.598 70.6758C288.661 71.1634 288.737 71.5781 288.823 71.9199C288.933 72.3301 289.058 72.7106 289.199 73.0615C289.345 73.4124 289.498 73.7223 289.657 73.9912C289.826 74.2646 290.001 74.5062 290.184 74.7158C290.366 74.9255 290.548 75.1009 290.73 75.2422L290.402 76.1582C290.161 76.0397 289.91 75.8711 289.65 75.6523C289.391 75.4382 289.135 75.1761 288.885 74.8662C288.634 74.5563 288.395 74.2008 288.167 73.7998C287.944 73.4033 287.748 72.9613 287.579 72.4736C287.41 71.9906 287.276 71.4665 287.176 70.9014C287.076 70.3317 287.025 69.721 287.025 69.0693V68.9531Z" fill="#001E2E"/>
<rect x="302.5" y="56.5" width="112" height="23" rx="5.5" fill="#FFEBF7"/>
<rect x="302.5" y="56.5" width="112" height="23" rx="5.5" stroke="#FFADF3"/>
<path d="M311.479 73L308.567 65.6035H310.263L312.095 70.9697L312.204 71.4619L312.313 70.9697L314.125 65.6035H315.82L312.922 73H311.479ZM322.191 73C322.141 72.9089 322.1 72.7995 322.068 72.6719C322.041 72.5397 322.016 72.403 321.993 72.2617C321.879 72.3802 321.749 72.4941 321.604 72.6035C321.462 72.7083 321.303 72.7995 321.125 72.877C320.947 72.959 320.756 73.0228 320.551 73.0684C320.346 73.1139 320.125 73.1367 319.888 73.1367C319.505 73.1367 319.154 73.082 318.835 72.9727C318.521 72.8587 318.252 72.7038 318.028 72.5078C317.8 72.3164 317.623 72.0863 317.495 71.8174C317.372 71.5439 317.311 71.25 317.311 70.9355C317.311 70.5299 317.39 70.1722 317.55 69.8623C317.714 69.5479 317.951 69.2881 318.261 69.083C318.548 68.8916 318.901 68.7458 319.32 68.6455C319.744 68.5452 320.223 68.4951 320.756 68.4951H321.945V67.9961C321.945 67.8047 321.911 67.6315 321.843 67.4766C321.779 67.3216 321.686 67.1872 321.562 67.0732C321.43 66.9593 321.269 66.8727 321.077 66.8135C320.89 66.7497 320.674 66.7178 320.428 66.7178C320.204 66.7178 320.008 66.7451 319.84 66.7998C319.676 66.8545 319.539 66.9297 319.43 67.0254C319.32 67.112 319.238 67.2191 319.184 67.3467C319.133 67.4697 319.108 67.6019 319.108 67.7432H317.468C317.472 67.4469 317.543 67.1621 317.68 66.8887C317.816 66.6152 318.017 66.3737 318.281 66.1641C318.536 65.9499 318.851 65.7812 319.225 65.6582C319.603 65.5306 320.034 65.4668 320.517 65.4668C320.95 65.4668 321.353 65.5215 321.727 65.6309C322.105 65.7357 322.431 65.8929 322.704 66.1025C322.978 66.3122 323.192 66.5788 323.347 66.9023C323.502 67.2214 323.579 67.5905 323.579 68.0098V71.2979C323.579 71.6305 323.602 71.9313 323.647 72.2002C323.698 72.4645 323.768 72.6924 323.859 72.8838V73H322.191ZM320.202 71.8242C320.416 71.8242 320.615 71.7969 320.797 71.7422C320.984 71.6875 321.152 71.6169 321.303 71.5303C321.453 71.4437 321.583 71.3457 321.692 71.2363C321.802 71.127 321.886 71.013 321.945 70.8945V69.5273H320.893C320.537 69.5273 320.229 69.5615 319.97 69.6299C319.71 69.6937 319.503 69.7871 319.348 69.9102C319.211 70.015 319.108 70.1403 319.04 70.2861C318.976 70.432 318.944 70.596 318.944 70.7783C318.944 70.9287 318.972 71.07 319.026 71.2021C319.081 71.3298 319.161 71.4391 319.266 71.5303C319.37 71.6214 319.5 71.6943 319.655 71.749C319.81 71.7992 319.993 71.8242 320.202 71.8242ZM330.989 65.4668C331.254 65.4668 331.509 65.485 331.755 65.5215C332.006 65.5579 332.201 65.6012 332.343 65.6514L332.11 67.2646C331.86 67.21 331.611 67.1689 331.365 67.1416C331.124 67.1143 330.882 67.1006 330.641 67.1006C330.367 67.1006 330.121 67.1279 329.902 67.1826C329.684 67.2373 329.49 67.3216 329.321 67.4355C329.139 67.5449 328.984 67.6839 328.856 67.8525C328.729 68.0212 328.622 68.2148 328.535 68.4336V73H326.901V65.6035H328.433L328.501 66.6289L328.508 66.7998C328.809 66.3851 329.169 66.0592 329.588 65.8223C330.012 65.5853 330.479 65.4668 330.989 65.4668ZM335.617 68.9531C335.617 68.3105 335.667 67.7044 335.768 67.1348C335.868 66.5605 336.002 66.0296 336.171 65.542C336.344 65.0635 336.542 64.6237 336.766 64.2227C336.993 63.8216 337.233 63.4661 337.483 63.1562C337.729 62.8464 337.982 62.5843 338.242 62.3701C338.502 62.1514 338.753 61.9827 338.994 61.8643L339.322 62.8145C339.176 62.9238 339.031 63.056 338.885 63.2109C338.739 63.3659 338.595 63.5413 338.454 63.7373C338.258 64.0153 338.074 64.3411 337.9 64.7148C337.732 65.0885 337.586 65.4964 337.463 65.9385C337.349 66.3532 337.258 66.8112 337.189 67.3125C337.126 67.8138 337.094 68.3561 337.094 68.9395V69.083C337.094 69.6527 337.126 70.1836 337.189 70.6758C337.253 71.1634 337.328 71.5781 337.415 71.9199C337.524 72.3301 337.65 72.7106 337.791 73.0615C337.937 73.4124 338.09 73.7223 338.249 73.9912C338.418 74.2646 338.593 74.5062 338.775 74.7158C338.958 74.9255 339.14 75.1009 339.322 75.2422L338.994 76.1582C338.753 76.0397 338.502 75.8711 338.242 75.6523C337.982 75.4382 337.727 75.1761 337.477 74.8662C337.226 74.5563 336.987 74.2008 336.759 73.7998C336.535 73.4033 336.34 72.9613 336.171 72.4736C336.002 71.9906 335.868 71.4665 335.768 70.9014C335.667 70.3317 335.617 69.721 335.617 69.0693V68.9531ZM348.879 69.2881H343.376V67.9619H348.879V69.2881ZM357.287 69.2881H351.784V67.9619H357.287V69.2881ZM366.01 69.377C366.01 69.7188 365.985 70.0446 365.935 70.3545C365.884 70.6644 365.812 70.9515 365.716 71.2158C365.606 71.5303 365.461 71.8151 365.278 72.0703C365.096 72.3255 364.877 72.5374 364.622 72.7061C364.417 72.8428 364.187 72.9476 363.932 73.0205C363.681 73.098 363.408 73.1367 363.111 73.1367C362.811 73.1367 362.537 73.1003 362.291 73.0273C362.045 72.9544 361.824 72.8473 361.628 72.7061C361.528 72.6331 361.432 72.5557 361.341 72.4736C361.254 72.387 361.17 72.2936 361.088 72.1934L361.013 73H359.536V62.5H361.17V66.3281C361.266 66.2096 361.37 66.1025 361.484 66.0068C361.598 65.9111 361.721 65.8268 361.854 65.7539C362.027 65.6582 362.216 65.5876 362.421 65.542C362.631 65.4919 362.856 65.4668 363.098 65.4668C363.417 65.4668 363.708 65.5101 363.973 65.5967C364.242 65.6787 364.483 65.7972 364.697 65.9521C364.88 66.0798 365.041 66.237 365.183 66.4238C365.328 66.6061 365.456 66.8066 365.565 67.0254C365.711 67.3307 365.821 67.6702 365.894 68.0439C365.971 68.4176 366.01 68.8141 366.01 69.2334V69.377ZM364.376 69.2334C364.376 69.0238 364.362 68.821 364.335 68.625C364.312 68.4245 364.278 68.2376 364.232 68.0645C364.169 67.8548 364.084 67.6657 363.979 67.4971C363.879 67.3239 363.743 67.1781 363.569 67.0596C363.455 66.9775 363.326 66.916 363.18 66.875C363.034 66.834 362.87 66.8135 362.688 66.8135C362.464 66.8135 362.264 66.8454 362.086 66.9092C361.908 66.9684 361.753 67.055 361.621 67.1689C361.525 67.2464 361.439 67.3376 361.361 67.4424C361.288 67.5426 361.225 67.652 361.17 67.7705V70.833C361.234 70.9697 361.309 71.0951 361.396 71.209C361.487 71.3184 361.589 71.4163 361.703 71.5029C361.831 71.5941 361.977 71.667 362.141 71.7217C362.309 71.7718 362.496 71.7969 362.701 71.7969C362.888 71.7969 363.057 71.7741 363.207 71.7285C363.357 71.6784 363.492 71.6123 363.61 71.5303C363.77 71.4163 363.9 71.2728 364 71.0996C364.105 70.9219 364.185 70.7236 364.239 70.5049C364.285 70.3408 364.319 70.1631 364.342 69.9717C364.365 69.7803 364.376 69.582 364.376 69.377V69.2334ZM373.03 65.4668C373.295 65.4668 373.55 65.485 373.796 65.5215C374.047 65.5579 374.243 65.6012 374.384 65.6514L374.151 67.2646C373.901 67.21 373.652 67.1689 373.406 67.1416C373.165 67.1143 372.923 67.1006 372.682 67.1006C372.408 67.1006 372.162 67.1279 371.943 67.1826C371.725 67.2373 371.531 67.3216 371.362 67.4355C371.18 67.5449 371.025 67.6839 370.897 67.8525C370.77 68.0212 370.663 68.2148 370.576 68.4336V73H368.942V65.6035H370.474L370.542 66.6289L370.549 66.7998C370.85 66.3851 371.21 66.0592 371.629 65.8223C372.053 65.5853 372.52 65.4668 373.03 65.4668ZM381.049 73C380.999 72.9089 380.958 72.7995 380.926 72.6719C380.898 72.5397 380.873 72.403 380.851 72.2617C380.737 72.3802 380.607 72.4941 380.461 72.6035C380.32 72.7083 380.16 72.7995 379.982 72.877C379.805 72.959 379.613 73.0228 379.408 73.0684C379.203 73.1139 378.982 73.1367 378.745 73.1367C378.362 73.1367 378.011 73.082 377.692 72.9727C377.378 72.8587 377.109 72.7038 376.886 72.5078C376.658 72.3164 376.48 72.0863 376.353 71.8174C376.229 71.5439 376.168 71.25 376.168 70.9355C376.168 70.5299 376.248 70.1722 376.407 69.8623C376.571 69.5479 376.808 69.2881 377.118 69.083C377.405 68.8916 377.758 68.7458 378.178 68.6455C378.602 68.5452 379.08 68.4951 379.613 68.4951H380.803V67.9961C380.803 67.8047 380.769 67.6315 380.7 67.4766C380.636 67.3216 380.543 67.1872 380.42 67.0732C380.288 66.9593 380.126 66.8727 379.935 66.8135C379.748 66.7497 379.531 66.7178 379.285 66.7178C379.062 66.7178 378.866 66.7451 378.697 66.7998C378.533 66.8545 378.396 66.9297 378.287 67.0254C378.178 67.112 378.096 67.2191 378.041 67.3467C377.991 67.4697 377.966 67.6019 377.966 67.7432H376.325C376.33 67.4469 376.4 67.1621 376.537 66.8887C376.674 66.6152 376.874 66.3737 377.139 66.1641C377.394 65.9499 377.708 65.7812 378.082 65.6582C378.46 65.5306 378.891 65.4668 379.374 65.4668C379.807 65.4668 380.21 65.5215 380.584 65.6309C380.962 65.7357 381.288 65.8929 381.562 66.1025C381.835 66.3122 382.049 66.5788 382.204 66.9023C382.359 67.2214 382.437 67.5905 382.437 68.0098V71.2979C382.437 71.6305 382.459 71.9313 382.505 72.2002C382.555 72.4645 382.626 72.6924 382.717 72.8838V73H381.049ZM379.06 71.8242C379.274 71.8242 379.472 71.7969 379.654 71.7422C379.841 71.6875 380.01 71.6169 380.16 71.5303C380.311 71.4437 380.44 71.3457 380.55 71.2363C380.659 71.127 380.743 71.013 380.803 70.8945V69.5273H379.75C379.395 69.5273 379.087 69.5615 378.827 69.6299C378.567 69.6937 378.36 69.7871 378.205 69.9102C378.068 70.015 377.966 70.1403 377.897 70.2861C377.834 70.432 377.802 70.596 377.802 70.7783C377.802 70.9287 377.829 71.07 377.884 71.2021C377.938 71.3298 378.018 71.4391 378.123 71.5303C378.228 71.6214 378.358 71.6943 378.513 71.749C378.668 71.7992 378.85 71.8242 379.06 71.8242ZM384.733 73V65.6035H386.21L386.312 66.6562C386.413 66.515 386.522 66.3851 386.641 66.2666C386.764 66.1436 386.894 66.0342 387.03 65.9385C387.249 65.7881 387.488 65.6719 387.748 65.5898C388.008 65.5078 388.281 65.4668 388.568 65.4668C388.947 65.4668 389.293 65.5215 389.607 65.6309C389.922 65.7402 390.191 65.9134 390.414 66.1504C390.637 66.3874 390.811 66.6904 390.934 67.0596C391.057 67.4242 391.118 67.8662 391.118 68.3857V73H389.484V68.4131C389.484 68.1077 389.45 67.8525 389.382 67.6475C389.313 67.4424 389.213 67.2783 389.081 67.1553C388.949 67.0322 388.789 66.9456 388.603 66.8955C388.416 66.8408 388.201 66.8135 387.96 66.8135C387.759 66.8135 387.573 66.8408 387.399 66.8955C387.226 66.9456 387.069 67.0186 386.928 67.1143C386.818 67.1872 386.716 67.276 386.62 67.3809C386.524 67.4857 386.44 67.5996 386.367 67.7227V73H384.733ZM392.923 69.2471C392.923 68.6865 392.989 68.1761 393.121 67.7158C393.258 67.251 393.454 66.8522 393.709 66.5195C393.96 66.1868 394.265 65.9294 394.625 65.7471C394.99 65.5602 395.4 65.4668 395.855 65.4668C396.266 65.4668 396.623 65.5397 396.929 65.6855C397.239 65.8268 397.512 66.0296 397.749 66.2939V62.5H399.383V73H397.899L397.824 72.2275C397.587 72.5192 397.305 72.7448 396.977 72.9043C396.648 73.0592 396.27 73.1367 395.842 73.1367C395.391 73.1367 394.985 73.0433 394.625 72.8564C394.265 72.665 393.96 72.4007 393.709 72.0635C393.458 71.7308 393.265 71.3366 393.128 70.8809C392.991 70.4206 392.923 69.9238 392.923 69.3906V69.2471ZM394.557 69.3906C394.557 69.7188 394.589 70.0286 394.652 70.3203C394.716 70.612 394.816 70.8649 394.953 71.0791C395.09 71.3024 395.265 71.4779 395.479 71.6055C395.694 71.7285 395.951 71.79 396.252 71.79C396.621 71.79 396.926 71.7103 397.168 71.5508C397.41 71.3867 397.603 71.1657 397.749 70.8877V67.709C397.603 67.4355 397.41 67.2191 397.168 67.0596C396.931 66.8955 396.63 66.8135 396.266 66.8135C395.96 66.8135 395.698 66.8773 395.479 67.0049C395.265 67.1325 395.092 67.3079 394.96 67.5312C394.819 67.7546 394.716 68.0143 394.652 68.3105C394.589 68.6022 394.557 68.9144 394.557 69.2471V69.3906ZM406.424 69.0693C406.424 69.7074 406.371 70.3089 406.267 70.874C406.166 71.4391 406.03 71.9632 405.856 72.4463C405.683 72.9339 405.483 73.3783 405.255 73.7793C405.027 74.1803 404.785 74.5358 404.53 74.8457C404.275 75.1647 404.015 75.4336 403.751 75.6523C403.487 75.8711 403.231 76.0397 402.985 76.1582L402.664 75.2422C402.837 75.1146 403.01 74.9528 403.184 74.7568C403.357 74.5609 403.525 74.3353 403.689 74.0801C403.863 73.7975 404.024 73.4762 404.175 73.1162C404.33 72.7607 404.46 72.3665 404.564 71.9336C404.665 71.5326 404.742 71.0951 404.797 70.6211C404.856 70.1471 404.886 69.6344 404.886 69.083V68.9395C404.886 68.3698 404.854 67.8457 404.79 67.3672C404.726 66.8887 404.646 66.4603 404.551 66.082C404.423 65.5898 404.268 65.1478 404.086 64.7559C403.908 64.3639 403.721 64.0244 403.525 63.7373C403.389 63.5322 403.245 63.3499 403.095 63.1904C402.949 63.0264 402.805 62.8896 402.664 62.7803L402.985 61.8643C403.231 61.9827 403.487 62.1536 403.751 62.377C404.02 62.5957 404.28 62.86 404.53 63.1699C404.79 63.4889 405.034 63.849 405.262 64.25C405.49 64.6465 405.688 65.0885 405.856 65.5762C406.025 66.0592 406.162 66.5811 406.267 67.1416C406.371 67.6976 406.424 68.3014 406.424 68.9531V69.0693Z" fill="#380037"/>
<path d="M427.662 72.7881C427.662 73.2803 427.541 73.7793 427.3 74.2852C427.063 74.7956 426.748 75.2262 426.356 75.5771L425.44 75.0918C425.636 74.7682 425.787 74.4264 425.892 74.0664C426.001 73.7064 426.056 73.3008 426.056 72.8496V71.4072H427.662V72.7881Z" fill="#001E2E"/>
<rect x="440.5" y="56.5" width="146" height="23" rx="5.5" fill="#FFEBF7"/>
<rect x="440.5" y="56.5" width="146" height="23" rx="5.5" stroke="#FFADF3"/>
<path d="M449.479 73L446.567 65.6035H448.263L450.095 70.9697L450.204 71.4619L450.313 70.9697L452.125 65.6035H453.82L450.922 73H449.479ZM460.191 73C460.141 72.9089 460.1 72.7995 460.068 72.6719C460.041 72.5397 460.016 72.403 459.993 72.2617C459.879 72.3802 459.749 72.4941 459.604 72.6035C459.462 72.7083 459.303 72.7995 459.125 72.877C458.947 72.959 458.756 73.0228 458.551 73.0684C458.346 73.1139 458.125 73.1367 457.888 73.1367C457.505 73.1367 457.154 73.082 456.835 72.9727C456.521 72.8587 456.252 72.7038 456.028 72.5078C455.8 72.3164 455.623 72.0863 455.495 71.8174C455.372 71.5439 455.311 71.25 455.311 70.9355C455.311 70.5299 455.39 70.1722 455.55 69.8623C455.714 69.5479 455.951 69.2881 456.261 69.083C456.548 68.8916 456.901 68.7458 457.32 68.6455C457.744 68.5452 458.223 68.4951 458.756 68.4951H459.945V67.9961C459.945 67.8047 459.911 67.6315 459.843 67.4766C459.779 67.3216 459.686 67.1872 459.562 67.0732C459.43 66.9593 459.269 66.8727 459.077 66.8135C458.89 66.7497 458.674 66.7178 458.428 66.7178C458.204 66.7178 458.008 66.7451 457.84 66.7998C457.676 66.8545 457.539 66.9297 457.43 67.0254C457.32 67.112 457.238 67.2191 457.184 67.3467C457.133 67.4697 457.108 67.6019 457.108 67.7432H455.468C455.472 67.4469 455.543 67.1621 455.68 66.8887C455.816 66.6152 456.017 66.3737 456.281 66.1641C456.536 65.9499 456.851 65.7812 457.225 65.6582C457.603 65.5306 458.034 65.4668 458.517 65.4668C458.95 65.4668 459.353 65.5215 459.727 65.6309C460.105 65.7357 460.431 65.8929 460.704 66.1025C460.978 66.3122 461.192 66.5788 461.347 66.9023C461.502 67.2214 461.579 67.5905 461.579 68.0098V71.2979C461.579 71.6305 461.602 71.9313 461.647 72.2002C461.698 72.4645 461.768 72.6924 461.859 72.8838V73H460.191ZM458.202 71.8242C458.416 71.8242 458.615 71.7969 458.797 71.7422C458.984 71.6875 459.152 71.6169 459.303 71.5303C459.453 71.4437 459.583 71.3457 459.692 71.2363C459.802 71.127 459.886 71.013 459.945 70.8945V69.5273H458.893C458.537 69.5273 458.229 69.5615 457.97 69.6299C457.71 69.6937 457.503 69.7871 457.348 69.9102C457.211 70.015 457.108 70.1403 457.04 70.2861C456.976 70.432 456.944 70.596 456.944 70.7783C456.944 70.9287 456.972 71.07 457.026 71.2021C457.081 71.3298 457.161 71.4391 457.266 71.5303C457.37 71.6214 457.5 71.6943 457.655 71.749C457.81 71.7992 457.993 71.8242 458.202 71.8242ZM468.989 65.4668C469.254 65.4668 469.509 65.485 469.755 65.5215C470.006 65.5579 470.201 65.6012 470.343 65.6514L470.11 67.2646C469.86 67.21 469.611 67.1689 469.365 67.1416C469.124 67.1143 468.882 67.1006 468.641 67.1006C468.367 67.1006 468.121 67.1279 467.902 67.1826C467.684 67.2373 467.49 67.3216 467.321 67.4355C467.139 67.5449 466.984 67.6839 466.856 67.8525C466.729 68.0212 466.622 68.2148 466.535 68.4336V73H464.901V65.6035H466.433L466.501 66.6289L466.508 66.7998C466.809 66.3851 467.169 66.0592 467.588 65.8223C468.012 65.5853 468.479 65.4668 468.989 65.4668ZM473.617 68.9531C473.617 68.3105 473.667 67.7044 473.768 67.1348C473.868 66.5605 474.002 66.0296 474.171 65.542C474.344 65.0635 474.542 64.6237 474.766 64.2227C474.993 63.8216 475.233 63.4661 475.483 63.1562C475.729 62.8464 475.982 62.5843 476.242 62.3701C476.502 62.1514 476.753 61.9827 476.994 61.8643L477.322 62.8145C477.176 62.9238 477.031 63.056 476.885 63.2109C476.739 63.3659 476.595 63.5413 476.454 63.7373C476.258 64.0153 476.074 64.3411 475.9 64.7148C475.732 65.0885 475.586 65.4964 475.463 65.9385C475.349 66.3532 475.258 66.8112 475.189 67.3125C475.126 67.8138 475.094 68.3561 475.094 68.9395V69.083C475.094 69.6527 475.126 70.1836 475.189 70.6758C475.253 71.1634 475.328 71.5781 475.415 71.9199C475.524 72.3301 475.65 72.7106 475.791 73.0615C475.937 73.4124 476.09 73.7223 476.249 73.9912C476.418 74.2646 476.593 74.5062 476.775 74.7158C476.958 74.9255 477.14 75.1009 477.322 75.2422L476.994 76.1582C476.753 76.0397 476.502 75.8711 476.242 75.6523C475.982 75.4382 475.727 75.1761 475.477 74.8662C475.226 74.5563 474.987 74.2008 474.759 73.7998C474.535 73.4033 474.34 72.9613 474.171 72.4736C474.002 71.9906 473.868 71.4665 473.768 70.9014C473.667 70.3317 473.617 69.721 473.617 69.0693V68.9531ZM486.879 69.2881H481.376V67.9619H486.879V69.2881ZM495.287 69.2881H489.784V67.9619H495.287V69.2881ZM502.232 73C502.182 72.9089 502.141 72.7995 502.109 72.6719C502.082 72.5397 502.057 72.403 502.034 72.2617C501.92 72.3802 501.79 72.4941 501.645 72.6035C501.503 72.7083 501.344 72.7995 501.166 72.877C500.988 72.959 500.797 73.0228 500.592 73.0684C500.387 73.1139 500.166 73.1367 499.929 73.1367C499.546 73.1367 499.195 73.082 498.876 72.9727C498.562 72.8587 498.293 72.7038 498.069 72.5078C497.841 72.3164 497.664 72.0863 497.536 71.8174C497.413 71.5439 497.352 71.25 497.352 70.9355C497.352 70.5299 497.431 70.1722 497.591 69.8623C497.755 69.5479 497.992 69.2881 498.302 69.083C498.589 68.8916 498.942 68.7458 499.361 68.6455C499.785 68.5452 500.264 68.4951 500.797 68.4951H501.986V67.9961C501.986 67.8047 501.952 67.6315 501.884 67.4766C501.82 67.3216 501.727 67.1872 501.604 67.0732C501.471 66.9593 501.31 66.8727 501.118 66.8135C500.931 66.7497 500.715 66.7178 500.469 66.7178C500.245 66.7178 500.049 66.7451 499.881 66.7998C499.717 66.8545 499.58 66.9297 499.471 67.0254C499.361 67.112 499.279 67.2191 499.225 67.3467C499.174 67.4697 499.149 67.6019 499.149 67.7432H497.509C497.513 67.4469 497.584 67.1621 497.721 66.8887C497.857 66.6152 498.058 66.3737 498.322 66.1641C498.577 65.9499 498.892 65.7812 499.266 65.6582C499.644 65.5306 500.075 65.4668 500.558 65.4668C500.991 65.4668 501.394 65.5215 501.768 65.6309C502.146 65.7357 502.472 65.8929 502.745 66.1025C503.019 66.3122 503.233 66.5788 503.388 66.9023C503.543 67.2214 503.62 67.5905 503.62 68.0098V71.2979C503.62 71.6305 503.643 71.9313 503.688 72.2002C503.739 72.4645 503.809 72.6924 503.9 72.8838V73H502.232ZM500.243 71.8242C500.457 71.8242 500.656 71.7969 500.838 71.7422C501.025 71.6875 501.193 71.6169 501.344 71.5303C501.494 71.4437 501.624 71.3457 501.733 71.2363C501.843 71.127 501.927 71.013 501.986 70.8945V69.5273H500.934C500.578 69.5273 500.271 69.5615 500.011 69.6299C499.751 69.6937 499.544 69.7871 499.389 69.9102C499.252 70.015 499.149 70.1403 499.081 70.2861C499.017 70.432 498.985 70.596 498.985 70.7783C498.985 70.9287 499.013 71.07 499.067 71.2021C499.122 71.3298 499.202 71.4391 499.307 71.5303C499.411 71.6214 499.541 71.6943 499.696 71.749C499.851 71.7992 500.034 71.8242 500.243 71.8242ZM506.231 62.5H510.217V71.6465H512.459V73H506.231V71.6465H508.569V63.8604H506.231V62.5ZM514.339 75.8438V65.6035H515.843L515.904 66.3623C516.005 66.2393 516.114 66.1276 516.232 66.0273C516.351 65.9271 516.479 65.8405 516.615 65.7676C516.793 65.6719 516.989 65.599 517.203 65.5488C517.417 65.4941 517.645 65.4668 517.887 65.4668C518.361 65.4668 518.778 65.5579 519.138 65.7402C519.502 65.9225 519.808 66.18 520.054 66.5127C520.295 66.8454 520.48 67.2441 520.607 67.709C520.735 68.1693 520.799 68.6774 520.799 69.2334V69.377C520.799 69.9102 520.735 70.4069 520.607 70.8672C520.484 71.3275 520.3 71.724 520.054 72.0566C519.808 72.3939 519.505 72.6582 519.145 72.8496C518.785 73.041 518.372 73.1367 517.907 73.1367C517.643 73.1367 517.399 73.1094 517.176 73.0547C516.957 73 516.754 72.9202 516.567 72.8154C516.458 72.7516 516.353 72.6787 516.253 72.5967C516.153 72.5146 516.059 72.4258 515.973 72.3301V75.8438H514.339ZM519.165 69.2334C519.165 68.9007 519.131 68.5885 519.062 68.2969C518.999 68.0007 518.898 67.7432 518.762 67.5244C518.62 67.3057 518.44 67.1325 518.222 67.0049C518.003 66.8773 517.741 66.8135 517.436 66.8135C517.267 66.8135 517.11 66.8317 516.964 66.8682C516.818 66.9046 516.688 66.957 516.574 67.0254C516.442 67.0983 516.326 67.1895 516.226 67.2988C516.13 67.4082 516.046 67.5312 515.973 67.668V70.9561C516.036 71.0837 516.114 71.1999 516.205 71.3047C516.296 71.4095 516.401 71.5007 516.52 71.5781C516.643 71.651 516.782 71.7103 516.937 71.7559C517.091 71.7969 517.262 71.8174 517.449 71.8174C517.755 71.8174 518.014 71.7536 518.229 71.626C518.447 71.4938 518.625 71.3161 518.762 71.0928C518.903 70.8649 519.006 70.6051 519.069 70.3135C519.133 70.0173 519.165 69.7051 519.165 69.377V69.2334ZM524.367 66.6562C524.463 66.5104 524.57 66.376 524.688 66.2529C524.807 66.1299 524.932 66.0228 525.064 65.9316C525.27 65.7812 525.495 65.6673 525.741 65.5898C525.992 65.5078 526.256 65.4668 526.534 65.4668C526.922 65.4668 527.275 65.5238 527.594 65.6377C527.917 65.7516 528.193 65.9294 528.421 66.1709C528.649 66.4124 528.824 66.7223 528.947 67.1006C529.075 67.4743 529.139 67.9232 529.139 68.4473V73H527.505V68.4336C527.505 68.1602 527.471 67.9209 527.402 67.7158C527.339 67.5107 527.243 67.3444 527.115 67.2168C526.983 67.0801 526.821 66.9798 526.63 66.916C526.443 66.8477 526.227 66.8135 525.98 66.8135C525.789 66.8135 525.607 66.8363 525.434 66.8818C525.265 66.9274 525.11 66.9935 524.969 67.0801C524.85 67.1484 524.739 67.2305 524.634 67.3262C524.534 67.4219 524.445 67.529 524.367 67.6475V73H522.733V62.5H524.367V66.6562ZM535.865 73C535.815 72.9089 535.774 72.7995 535.742 72.6719C535.715 72.5397 535.69 72.403 535.667 72.2617C535.553 72.3802 535.423 72.4941 535.277 72.6035C535.136 72.7083 534.977 72.7995 534.799 72.877C534.621 72.959 534.43 73.0228 534.225 73.0684C534.02 73.1139 533.799 73.1367 533.562 73.1367C533.179 73.1367 532.828 73.082 532.509 72.9727C532.194 72.8587 531.925 72.7038 531.702 72.5078C531.474 72.3164 531.297 72.0863 531.169 71.8174C531.046 71.5439 530.984 71.25 530.984 70.9355C530.984 70.5299 531.064 70.1722 531.224 69.8623C531.388 69.5479 531.625 69.2881 531.935 69.083C532.222 68.8916 532.575 68.7458 532.994 68.6455C533.418 68.5452 533.896 68.4951 534.43 68.4951H535.619V67.9961C535.619 67.8047 535.585 67.6315 535.517 67.4766C535.453 67.3216 535.359 67.1872 535.236 67.0732C535.104 66.9593 534.942 66.8727 534.751 66.8135C534.564 66.7497 534.348 66.7178 534.102 66.7178C533.878 66.7178 533.682 66.7451 533.514 66.7998C533.35 66.8545 533.213 66.9297 533.104 67.0254C532.994 67.112 532.912 67.2191 532.857 67.3467C532.807 67.4697 532.782 67.6019 532.782 67.7432H531.142C531.146 67.4469 531.217 67.1621 531.354 66.8887C531.49 66.6152 531.691 66.3737 531.955 66.1641C532.21 65.9499 532.525 65.7812 532.898 65.6582C533.277 65.5306 533.707 65.4668 534.19 65.4668C534.623 65.4668 535.027 65.5215 535.4 65.6309C535.779 65.7357 536.104 65.8929 536.378 66.1025C536.651 66.3122 536.866 66.5788 537.021 66.9023C537.175 67.2214 537.253 67.5905 537.253 68.0098V71.2979C537.253 71.6305 537.276 71.9313 537.321 72.2002C537.371 72.4645 537.442 72.6924 537.533 72.8838V73H535.865ZM533.876 71.8242C534.09 71.8242 534.288 71.7969 534.471 71.7422C534.658 71.6875 534.826 71.6169 534.977 71.5303C535.127 71.4437 535.257 71.3457 535.366 71.2363C535.476 71.127 535.56 71.013 535.619 70.8945V69.5273H534.566C534.211 69.5273 533.903 69.5615 533.644 69.6299C533.384 69.6937 533.176 69.7871 533.021 69.9102C532.885 70.015 532.782 70.1403 532.714 70.2861C532.65 70.432 532.618 70.596 532.618 70.7783C532.618 70.9287 532.646 71.07 532.7 71.2021C532.755 71.3298 532.835 71.4391 532.939 71.5303C533.044 71.6214 533.174 71.6943 533.329 71.749C533.484 71.7992 533.666 71.8242 533.876 71.8242ZM545.736 69.2881H540.233V67.9619H545.736V69.2881ZM548.888 65.6035L548.936 66.417C549.077 66.1208 549.271 65.8883 549.517 65.7197C549.767 65.5511 550.068 65.4668 550.419 65.4668C550.601 65.4668 550.765 65.4873 550.911 65.5283C551.057 65.5693 551.182 65.6331 551.287 65.7197C551.369 65.7835 551.442 65.861 551.506 65.9521C551.57 66.0387 551.624 66.139 551.67 66.2529C551.734 66.1481 551.807 66.0501 551.889 65.959C551.971 65.8678 552.06 65.7904 552.155 65.7266C552.278 65.6445 552.415 65.5807 552.565 65.5352C552.72 65.4896 552.889 65.4668 553.071 65.4668C553.308 65.4668 553.525 65.5078 553.721 65.5898C553.921 65.6673 554.094 65.7881 554.24 65.9521C554.386 66.1253 554.498 66.3509 554.575 66.6289C554.657 66.9023 554.698 67.2327 554.698 67.6201V73H553.194V67.6064C553.194 67.4606 553.178 67.3376 553.146 67.2373C553.115 67.1325 553.069 67.0482 553.01 66.9844C552.951 66.9251 552.878 66.8818 552.791 66.8545C552.709 66.8271 552.618 66.8135 552.518 66.8135C552.413 66.8135 552.322 66.8271 552.244 66.8545C552.167 66.8818 552.098 66.9206 552.039 66.9707C551.984 67.0163 551.939 67.071 551.902 67.1348C551.866 67.194 551.839 67.2624 551.82 67.3398C551.82 67.3581 551.82 67.3809 551.82 67.4082C551.82 67.431 551.82 67.4652 551.82 67.5107V73H550.344V67.5996C550.344 67.4538 550.328 67.3307 550.296 67.2305C550.269 67.1257 550.225 67.0436 550.166 66.9844C550.107 66.9251 550.036 66.8818 549.954 66.8545C549.877 66.8271 549.788 66.8135 549.688 66.8135C549.578 66.8135 549.48 66.8294 549.394 66.8613C549.312 66.8887 549.241 66.932 549.182 66.9912C549.136 67.0322 549.095 67.0801 549.059 67.1348C549.027 67.1895 548.997 67.251 548.97 67.3193V73H547.466V65.6035H548.888ZM556.742 65.6035H560.666V71.6465H562.84V73H556.742V71.6465H559.019V66.9639H556.742V65.6035ZM558.868 63.6895C558.868 63.5573 558.891 63.4365 558.937 63.3271C558.982 63.2132 559.048 63.1152 559.135 63.0332C559.217 62.9557 559.315 62.8965 559.429 62.8555C559.547 62.8099 559.679 62.7871 559.825 62.7871C560.071 62.7871 560.27 62.8509 560.42 62.9785C560.575 63.1016 560.664 63.2611 560.687 63.457C560.718 63.6576 560.684 63.833 560.584 63.9834C560.484 64.1292 560.338 64.2272 560.146 64.2773C560.051 64.3639 559.937 64.4209 559.805 64.4482C559.673 64.4756 559.527 64.4642 559.367 64.4141C559.203 64.3639 559.078 64.2751 558.991 64.1475C558.909 64.0153 558.868 63.8626 558.868 63.6895ZM564.556 69.2471C564.556 68.6865 564.622 68.1761 564.754 67.7158C564.891 67.251 565.087 66.8522 565.342 66.5195C565.592 66.1868 565.898 65.9294 566.258 65.7471C566.622 65.5602 567.033 65.4668 567.488 65.4668C567.898 65.4668 568.256 65.5397 568.562 65.6855C568.871 65.8268 569.145 66.0296 569.382 66.2939V62.5H571.016V73H569.532L569.457 72.2275C569.22 72.5192 568.938 72.7448 568.609 72.9043C568.281 73.0592 567.903 73.1367 567.475 73.1367C567.023 73.1367 566.618 73.0433 566.258 72.8564C565.898 72.665 565.592 72.4007 565.342 72.0635C565.091 71.7308 564.897 71.3366 564.761 70.8809C564.624 70.4206 564.556 69.9238 564.556 69.3906V69.2471ZM566.189 69.3906C566.189 69.7188 566.221 70.0286 566.285 70.3203C566.349 70.612 566.449 70.8649 566.586 71.0791C566.723 71.3024 566.898 71.4779 567.112 71.6055C567.326 71.7285 567.584 71.79 567.885 71.79C568.254 71.79 568.559 71.7103 568.801 71.5508C569.042 71.3867 569.236 71.1657 569.382 70.8877V67.709C569.236 67.4355 569.042 67.2191 568.801 67.0596C568.564 66.8955 568.263 66.8135 567.898 66.8135C567.593 66.8135 567.331 66.8773 567.112 67.0049C566.898 67.1325 566.725 67.3079 566.593 67.5312C566.451 67.7546 566.349 68.0143 566.285 68.3105C566.221 68.6022 566.189 68.9144 566.189 69.2471V69.3906ZM578.057 69.0693C578.057 69.7074 578.004 70.3089 577.899 70.874C577.799 71.4391 577.662 71.9632 577.489 72.4463C577.316 72.9339 577.116 73.3783 576.888 73.7793C576.66 74.1803 576.418 74.5358 576.163 74.8457C575.908 75.1647 575.648 75.4336 575.384 75.6523C575.119 75.8711 574.864 76.0397 574.618 76.1582L574.297 75.2422C574.47 75.1146 574.643 74.9528 574.816 74.7568C574.99 74.5609 575.158 74.3353 575.322 74.0801C575.495 73.7975 575.657 73.4762 575.808 73.1162C575.963 72.7607 576.092 72.3665 576.197 71.9336C576.298 71.5326 576.375 71.0951 576.43 70.6211C576.489 70.1471 576.519 69.6344 576.519 69.083V68.9395C576.519 68.3698 576.487 67.8457 576.423 67.3672C576.359 66.8887 576.279 66.4603 576.184 66.082C576.056 65.5898 575.901 65.1478 575.719 64.7559C575.541 64.3639 575.354 64.0244 575.158 63.7373C575.021 63.5322 574.878 63.3499 574.728 63.1904C574.582 63.0264 574.438 62.8896 574.297 62.7803L574.618 61.8643C574.864 61.9827 575.119 62.1536 575.384 62.377C575.653 62.5957 575.912 62.86 576.163 63.1699C576.423 63.4889 576.667 63.849 576.895 64.25C577.122 64.6465 577.321 65.0885 577.489 65.5762C577.658 66.0592 577.795 66.5811 577.899 67.1416C578.004 67.6976 578.057 68.3014 578.057 68.9531V69.0693Z" fill="#380037"/>
<path d="M600.934 69.0693C600.934 69.7074 600.881 70.3089 600.776 70.874C600.676 71.4391 600.539 71.9632 600.366 72.4463C600.193 72.9339 599.993 73.3783 599.765 73.7793C599.537 74.1803 599.295 74.5358 599.04 74.8457C598.785 75.1647 598.525 75.4336 598.261 75.6523C597.996 75.8711 597.741 76.0397 597.495 76.1582L597.174 75.2422C597.347 75.1146 597.52 74.9528 597.693 74.7568C597.867 74.5609 598.035 74.3353 598.199 74.0801C598.372 73.7975 598.534 73.4762 598.685 73.1162C598.84 72.7607 598.969 72.3665 599.074 71.9336C599.174 71.5326 599.252 71.0951 599.307 70.6211C599.366 70.1471 599.396 69.6344 599.396 69.083V68.9395C599.396 68.3698 599.364 67.8457 599.3 67.3672C599.236 66.8887 599.156 66.4603 599.061 66.082C598.933 65.5898 598.778 65.1478 598.596 64.7559C598.418 64.3639 598.231 64.0244 598.035 63.7373C597.898 63.5322 597.755 63.3499 597.604 63.1904C597.459 63.0264 597.315 62.8896 597.174 62.7803L597.495 61.8643C597.741 61.9827 597.996 62.1536 598.261 62.377C598.53 62.5957 598.789 62.86 599.04 63.1699C599.3 63.4889 599.544 63.849 599.771 64.25C599.999 64.6465 600.198 65.0885 600.366 65.5762C600.535 66.0592 600.672 66.5811 600.776 67.1416C600.881 67.6976 600.934 68.3014 600.934 68.9531V69.0693ZM606.833 66.2256C606.833 65.9111 606.933 65.6423 607.134 65.4189C607.339 65.1956 607.633 65.084 608.016 65.084C608.389 65.084 608.681 65.1956 608.891 65.4189C609.1 65.6377 609.205 65.9066 609.205 66.2256C609.205 66.5446 609.098 66.8112 608.884 67.0254C608.674 67.2396 608.385 67.3467 608.016 67.3467C607.642 67.3467 607.35 67.2396 607.141 67.0254C606.936 66.8066 606.833 66.54 606.833 66.2256ZM608.754 72.7881C608.754 73.2803 608.633 73.7793 608.392 74.2852C608.155 74.7956 607.84 75.2262 607.448 75.5771L606.532 75.0918C606.728 74.7682 606.879 74.4264 606.983 74.0664C607.093 73.7064 607.147 73.3008 607.147 72.8496V71.4072H608.754V72.7881Z" fill="#001E2E"/>
<rect x="220" y="136.5" width="280" height="39" rx="7.5" fill="#E5F2FF"/>
<rect x="220" y="136.5" width="280" height="39" rx="7.5" stroke="#87CEFF"/>
<path d="M235.779 159.824C235.984 159.824 236.18 159.795 236.367 159.735C236.559 159.672 236.727 159.583 236.873 159.469C237.014 159.355 237.126 159.22 237.208 159.065C237.295 158.91 237.338 158.74 237.338 158.553H238.876C238.881 158.913 238.799 159.252 238.63 159.571C238.466 159.886 238.243 160.157 237.96 160.385C237.673 160.622 237.342 160.809 236.969 160.945C236.6 161.077 236.21 161.144 235.8 161.144C235.23 161.144 234.731 161.046 234.303 160.85C233.879 160.649 233.526 160.38 233.243 160.043C232.956 159.706 232.74 159.314 232.594 158.867C232.448 158.416 232.375 157.935 232.375 157.425V157.186C232.375 156.68 232.446 156.201 232.587 155.75C232.733 155.299 232.949 154.905 233.236 154.567C233.523 154.23 233.879 153.964 234.303 153.768C234.731 153.567 235.228 153.467 235.793 153.467C236.24 153.467 236.652 153.535 237.03 153.672C237.413 153.809 237.741 154 238.015 154.246C238.288 154.492 238.5 154.786 238.65 155.128C238.805 155.47 238.881 155.846 238.876 156.256H237.338C237.338 156.055 237.299 155.866 237.222 155.688C237.149 155.511 237.044 155.356 236.907 155.224C236.766 155.091 236.597 154.987 236.401 154.909C236.21 154.832 236.003 154.793 235.779 154.793C235.438 154.793 235.153 154.864 234.925 155.005C234.701 155.142 234.524 155.322 234.392 155.545C234.25 155.768 234.15 156.023 234.091 156.311C234.036 156.598 234.009 156.889 234.009 157.186V157.425C234.009 157.726 234.036 158.022 234.091 158.313C234.15 158.601 234.248 158.854 234.385 159.072C234.517 159.3 234.697 159.482 234.925 159.619C235.153 159.756 235.438 159.824 235.779 159.824ZM240.667 157.233C240.667 156.696 240.744 156.199 240.899 155.743C241.054 155.283 241.28 154.884 241.576 154.547C241.868 154.21 242.226 153.945 242.649 153.754C243.073 153.562 243.556 153.467 244.099 153.467C244.641 153.467 245.124 153.562 245.548 153.754C245.976 153.945 246.339 154.21 246.635 154.547C246.926 154.884 247.15 155.283 247.305 155.743C247.46 156.199 247.537 156.696 247.537 157.233V157.377C247.537 157.919 247.46 158.418 247.305 158.874C247.15 159.33 246.926 159.726 246.635 160.063C246.343 160.401 245.983 160.665 245.555 160.856C245.131 161.048 244.65 161.144 244.112 161.144C243.57 161.144 243.085 161.048 242.656 160.856C242.228 160.665 241.868 160.401 241.576 160.063C241.28 159.726 241.054 159.33 240.899 158.874C240.744 158.418 240.667 157.919 240.667 157.377V157.233ZM242.301 157.377C242.301 157.71 242.335 158.024 242.403 158.32C242.476 158.617 242.588 158.876 242.738 159.1C242.884 159.323 243.071 159.501 243.299 159.633C243.527 159.76 243.798 159.824 244.112 159.824C244.418 159.824 244.684 159.76 244.912 159.633C245.14 159.501 245.327 159.323 245.473 159.1C245.618 158.876 245.726 158.617 245.794 158.32C245.867 158.024 245.903 157.71 245.903 157.377V157.233C245.903 156.91 245.867 156.6 245.794 156.304C245.721 156.007 245.614 155.748 245.473 155.524C245.322 155.301 245.133 155.123 244.905 154.991C244.682 154.859 244.413 154.793 244.099 154.793C243.789 154.793 243.52 154.859 243.292 154.991C243.069 155.123 242.884 155.301 242.738 155.524C242.588 155.748 242.476 156.007 242.403 156.304C242.335 156.6 242.301 156.91 242.301 157.233V157.377ZM249.69 150.5H253.676V159.646H255.918V161H249.69V159.646H252.028V151.86H249.69V150.5ZM257.483 157.233C257.483 156.696 257.561 156.199 257.716 155.743C257.871 155.283 258.096 154.884 258.393 154.547C258.684 154.21 259.042 153.945 259.466 153.754C259.89 153.562 260.373 153.467 260.915 153.467C261.457 153.467 261.94 153.562 262.364 153.754C262.793 153.945 263.155 154.21 263.451 154.547C263.743 154.884 263.966 155.283 264.121 155.743C264.276 156.199 264.354 156.696 264.354 157.233V157.377C264.354 157.919 264.276 158.418 264.121 158.874C263.966 159.33 263.743 159.726 263.451 160.063C263.16 160.401 262.799 160.665 262.371 160.856C261.947 161.048 261.466 161.144 260.929 161.144C260.386 161.144 259.901 161.048 259.473 160.856C259.044 160.665 258.684 160.401 258.393 160.063C258.096 159.726 257.871 159.33 257.716 158.874C257.561 158.418 257.483 157.919 257.483 157.377V157.233ZM259.117 157.377C259.117 157.71 259.151 158.024 259.22 158.32C259.293 158.617 259.404 158.876 259.555 159.1C259.701 159.323 259.887 159.501 260.115 159.633C260.343 159.76 260.614 159.824 260.929 159.824C261.234 159.824 261.501 159.76 261.729 159.633C261.956 159.501 262.143 159.323 262.289 159.1C262.435 158.876 262.542 158.617 262.61 158.32C262.683 158.024 262.72 157.71 262.72 157.377V157.233C262.72 156.91 262.683 156.6 262.61 156.304C262.537 156.007 262.43 155.748 262.289 155.524C262.139 155.301 261.95 155.123 261.722 154.991C261.498 154.859 261.229 154.793 260.915 154.793C260.605 154.793 260.336 154.859 260.108 154.991C259.885 155.123 259.701 155.301 259.555 155.524C259.404 155.748 259.293 156.007 259.22 156.304C259.151 156.6 259.117 156.91 259.117 157.233V157.377ZM271.306 153.467C271.57 153.467 271.825 153.485 272.071 153.521C272.322 153.558 272.518 153.601 272.659 153.651L272.427 155.265C272.176 155.21 271.928 155.169 271.682 155.142C271.44 155.114 271.199 155.101 270.957 155.101C270.684 155.101 270.438 155.128 270.219 155.183C270 155.237 269.806 155.322 269.638 155.436C269.455 155.545 269.3 155.684 269.173 155.853C269.045 156.021 268.938 156.215 268.852 156.434V161H267.218V153.604H268.749L268.817 154.629L268.824 154.8C269.125 154.385 269.485 154.059 269.904 153.822C270.328 153.585 270.795 153.467 271.306 153.467ZM276.836 160.016C276.836 159.701 276.936 159.432 277.137 159.209C277.342 158.986 277.636 158.874 278.019 158.874C278.392 158.874 278.684 158.986 278.894 159.209C279.103 159.428 279.208 159.697 279.208 160.016C279.208 160.335 279.101 160.601 278.887 160.815C278.677 161.03 278.388 161.137 278.019 161.137C277.645 161.137 277.353 161.03 277.144 160.815C276.938 160.597 276.836 160.33 276.836 160.016ZM276.836 154.226C276.836 153.911 276.936 153.642 277.137 153.419C277.342 153.196 277.636 153.084 278.019 153.084C278.392 153.084 278.684 153.196 278.894 153.419C279.103 153.638 279.208 153.907 279.208 154.226C279.208 154.545 279.101 154.811 278.887 155.025C278.677 155.24 278.388 155.347 278.019 155.347C277.645 155.347 277.353 155.24 277.144 155.025C276.938 154.807 276.836 154.54 276.836 154.226Z" fill="#001E2E"/>
<rect x="291" y="144.5" width="180" height="23" rx="5.5" fill="#FFEBF7"/>
<rect x="291" y="144.5" width="180" height="23" rx="5.5" stroke="#FFADF3"/>
<path d="M299.979 161L297.067 153.604H298.763L300.595 158.97L300.704 159.462L300.813 158.97L302.625 153.604H304.32L301.422 161H299.979ZM310.691 161C310.641 160.909 310.6 160.799 310.568 160.672C310.541 160.54 310.516 160.403 310.493 160.262C310.379 160.38 310.249 160.494 310.104 160.604C309.962 160.708 309.803 160.799 309.625 160.877C309.447 160.959 309.256 161.023 309.051 161.068C308.846 161.114 308.625 161.137 308.388 161.137C308.005 161.137 307.654 161.082 307.335 160.973C307.021 160.859 306.752 160.704 306.528 160.508C306.3 160.316 306.123 160.086 305.995 159.817C305.872 159.544 305.811 159.25 305.811 158.936C305.811 158.53 305.89 158.172 306.05 157.862C306.214 157.548 306.451 157.288 306.761 157.083C307.048 156.892 307.401 156.746 307.82 156.646C308.244 156.545 308.723 156.495 309.256 156.495H310.445V155.996C310.445 155.805 310.411 155.632 310.343 155.477C310.279 155.322 310.186 155.187 310.062 155.073C309.93 154.959 309.769 154.873 309.577 154.813C309.39 154.75 309.174 154.718 308.928 154.718C308.704 154.718 308.508 154.745 308.34 154.8C308.176 154.854 308.039 154.93 307.93 155.025C307.82 155.112 307.738 155.219 307.684 155.347C307.633 155.47 307.608 155.602 307.608 155.743H305.968C305.972 155.447 306.043 155.162 306.18 154.889C306.316 154.615 306.517 154.374 306.781 154.164C307.036 153.95 307.351 153.781 307.725 153.658C308.103 153.531 308.534 153.467 309.017 153.467C309.45 153.467 309.853 153.521 310.227 153.631C310.605 153.736 310.931 153.893 311.204 154.103C311.478 154.312 311.692 154.579 311.847 154.902C312.002 155.221 312.079 155.59 312.079 156.01V159.298C312.079 159.631 312.102 159.931 312.147 160.2C312.198 160.465 312.268 160.692 312.359 160.884V161H310.691ZM308.702 159.824C308.916 159.824 309.115 159.797 309.297 159.742C309.484 159.688 309.652 159.617 309.803 159.53C309.953 159.444 310.083 159.346 310.192 159.236C310.302 159.127 310.386 159.013 310.445 158.895V157.527H309.393C309.037 157.527 308.729 157.562 308.47 157.63C308.21 157.694 308.003 157.787 307.848 157.91C307.711 158.015 307.608 158.14 307.54 158.286C307.476 158.432 307.444 158.596 307.444 158.778C307.444 158.929 307.472 159.07 307.526 159.202C307.581 159.33 307.661 159.439 307.766 159.53C307.87 159.621 308 159.694 308.155 159.749C308.31 159.799 308.493 159.824 308.702 159.824ZM319.489 153.467C319.754 153.467 320.009 153.485 320.255 153.521C320.506 153.558 320.701 153.601 320.843 153.651L320.61 155.265C320.36 155.21 320.111 155.169 319.865 155.142C319.624 155.114 319.382 155.101 319.141 155.101C318.867 155.101 318.621 155.128 318.402 155.183C318.184 155.237 317.99 155.322 317.821 155.436C317.639 155.545 317.484 155.684 317.356 155.853C317.229 156.021 317.122 156.215 317.035 156.434V161H315.401V153.604H316.933L317.001 154.629L317.008 154.8C317.309 154.385 317.669 154.059 318.088 153.822C318.512 153.585 318.979 153.467 319.489 153.467ZM324.117 156.953C324.117 156.311 324.167 155.704 324.268 155.135C324.368 154.561 324.502 154.03 324.671 153.542C324.844 153.063 325.042 152.624 325.266 152.223C325.493 151.822 325.733 151.466 325.983 151.156C326.229 150.846 326.482 150.584 326.742 150.37C327.002 150.151 327.253 149.983 327.494 149.864L327.822 150.814C327.676 150.924 327.531 151.056 327.385 151.211C327.239 151.366 327.095 151.541 326.954 151.737C326.758 152.015 326.574 152.341 326.4 152.715C326.232 153.089 326.086 153.496 325.963 153.938C325.849 154.353 325.758 154.811 325.689 155.312C325.626 155.814 325.594 156.356 325.594 156.939V157.083C325.594 157.653 325.626 158.184 325.689 158.676C325.753 159.163 325.828 159.578 325.915 159.92C326.024 160.33 326.15 160.711 326.291 161.062C326.437 161.412 326.59 161.722 326.749 161.991C326.918 162.265 327.093 162.506 327.275 162.716C327.458 162.925 327.64 163.101 327.822 163.242L327.494 164.158C327.253 164.04 327.002 163.871 326.742 163.652C326.482 163.438 326.227 163.176 325.977 162.866C325.726 162.556 325.487 162.201 325.259 161.8C325.035 161.403 324.84 160.961 324.671 160.474C324.502 159.991 324.368 159.466 324.268 158.901C324.167 158.332 324.117 157.721 324.117 157.069V156.953ZM337.379 157.288H331.876V155.962H337.379V157.288ZM345.787 157.288H340.284V155.962H345.787V157.288ZM347.708 157.233C347.708 156.696 347.785 156.199 347.94 155.743C348.095 155.283 348.321 154.884 348.617 154.547C348.909 154.21 349.267 153.945 349.69 153.754C350.114 153.562 350.597 153.467 351.14 153.467C351.682 153.467 352.165 153.562 352.589 153.754C353.017 153.945 353.38 154.21 353.676 154.547C353.967 154.884 354.191 155.283 354.346 155.743C354.501 156.199 354.578 156.696 354.578 157.233V157.377C354.578 157.919 354.501 158.418 354.346 158.874C354.191 159.33 353.967 159.726 353.676 160.063C353.384 160.401 353.024 160.665 352.596 160.856C352.172 161.048 351.691 161.144 351.153 161.144C350.611 161.144 350.126 161.048 349.697 160.856C349.269 160.665 348.909 160.401 348.617 160.063C348.321 159.726 348.095 159.33 347.94 158.874C347.785 158.418 347.708 157.919 347.708 157.377V157.233ZM349.342 157.377C349.342 157.71 349.376 158.024 349.444 158.32C349.517 158.617 349.629 158.876 349.779 159.1C349.925 159.323 350.112 159.501 350.34 159.633C350.568 159.76 350.839 159.824 351.153 159.824C351.459 159.824 351.725 159.76 351.953 159.633C352.181 159.501 352.368 159.323 352.514 159.1C352.66 158.876 352.767 158.617 352.835 158.32C352.908 158.024 352.944 157.71 352.944 157.377V157.233C352.944 156.91 352.908 156.6 352.835 156.304C352.762 156.007 352.655 155.748 352.514 155.524C352.363 155.301 352.174 155.123 351.946 154.991C351.723 154.859 351.454 154.793 351.14 154.793C350.83 154.793 350.561 154.859 350.333 154.991C350.11 155.123 349.925 155.301 349.779 155.524C349.629 155.748 349.517 156.007 349.444 156.304C349.376 156.6 349.342 156.91 349.342 157.233V157.377ZM358.837 161L355.925 153.604H357.62L359.452 158.97L359.562 159.462L359.671 158.97L361.482 153.604H363.178L360.279 161H358.837ZM368.277 161.137C367.73 161.137 367.229 161.046 366.773 160.863C366.322 160.681 365.935 160.428 365.611 160.104C365.288 159.785 365.037 159.41 364.859 158.977C364.686 158.539 364.6 158.067 364.6 157.562V157.281C364.6 156.702 364.691 156.178 364.873 155.709C365.055 155.24 365.306 154.839 365.625 154.506C365.944 154.173 366.313 153.918 366.732 153.74C367.156 153.558 367.607 153.467 368.086 153.467C368.619 153.467 369.091 153.558 369.501 153.74C369.911 153.918 370.255 154.166 370.533 154.485C370.811 154.809 371.021 155.194 371.162 155.641C371.303 156.087 371.374 156.575 371.374 157.104V157.808H366.247V157.842C366.297 158.165 366.375 158.437 366.479 158.655C366.584 158.874 366.728 159.07 366.91 159.243C367.092 159.425 367.307 159.567 367.553 159.667C367.803 159.767 368.077 159.817 368.373 159.817C368.779 159.817 369.157 159.74 369.508 159.585C369.859 159.425 370.148 159.2 370.376 158.908L371.251 159.756C371.005 160.111 370.627 160.43 370.116 160.713C369.61 160.995 368.997 161.137 368.277 161.137ZM368.079 154.793C367.847 154.793 367.63 154.836 367.43 154.923C367.234 155.005 367.058 155.123 366.903 155.278C366.748 155.438 366.618 155.629 366.514 155.853C366.409 156.076 366.331 156.329 366.281 156.611H369.761V156.502C369.761 156.288 369.722 156.076 369.645 155.866C369.567 155.652 369.458 155.465 369.316 155.306C369.18 155.151 369.007 155.028 368.797 154.937C368.592 154.841 368.353 154.793 368.079 154.793ZM378.347 153.467C378.611 153.467 378.866 153.485 379.112 153.521C379.363 153.558 379.559 153.601 379.7 153.651L379.468 155.265C379.217 155.21 378.969 155.169 378.723 155.142C378.481 155.114 378.24 155.101 377.998 155.101C377.725 155.101 377.479 155.128 377.26 155.183C377.041 155.237 376.847 155.322 376.679 155.436C376.496 155.545 376.341 155.684 376.214 155.853C376.086 156.021 375.979 156.215 375.893 156.434V161H374.259V153.604H375.79L375.858 154.629L375.865 154.8C376.166 154.385 376.526 154.059 376.945 153.822C377.369 153.585 377.836 153.467 378.347 153.467ZM381.956 150.5H385.941V159.646H388.184V161H381.956V159.646H384.294V151.86H381.956V150.5ZM394.773 161C394.723 160.909 394.682 160.799 394.65 160.672C394.623 160.54 394.598 160.403 394.575 160.262C394.461 160.38 394.331 160.494 394.186 160.604C394.044 160.708 393.885 160.799 393.707 160.877C393.529 160.959 393.338 161.023 393.133 161.068C392.928 161.114 392.707 161.137 392.47 161.137C392.087 161.137 391.736 161.082 391.417 160.973C391.103 160.859 390.834 160.704 390.61 160.508C390.382 160.316 390.205 160.086 390.077 159.817C389.954 159.544 389.893 159.25 389.893 158.936C389.893 158.53 389.972 158.172 390.132 157.862C390.296 157.548 390.533 157.288 390.843 157.083C391.13 156.892 391.483 156.746 391.902 156.646C392.326 156.545 392.805 156.495 393.338 156.495H394.527V155.996C394.527 155.805 394.493 155.632 394.425 155.477C394.361 155.322 394.268 155.187 394.145 155.073C394.012 154.959 393.851 154.873 393.659 154.813C393.472 154.75 393.256 154.718 393.01 154.718C392.786 154.718 392.59 154.745 392.422 154.8C392.258 154.854 392.121 154.93 392.012 155.025C391.902 155.112 391.82 155.219 391.766 155.347C391.715 155.47 391.69 155.602 391.69 155.743H390.05C390.054 155.447 390.125 155.162 390.262 154.889C390.398 154.615 390.599 154.374 390.863 154.164C391.118 153.95 391.433 153.781 391.807 153.658C392.185 153.531 392.616 153.467 393.099 153.467C393.532 153.467 393.935 153.521 394.309 153.631C394.687 153.736 395.013 153.893 395.286 154.103C395.56 154.312 395.774 154.579 395.929 154.902C396.084 155.221 396.161 155.59 396.161 156.01V159.298C396.161 159.631 396.184 159.931 396.229 160.2C396.28 160.465 396.35 160.692 396.441 160.884V161H394.773ZM392.784 159.824C392.998 159.824 393.197 159.797 393.379 159.742C393.566 159.688 393.734 159.617 393.885 159.53C394.035 159.444 394.165 159.346 394.274 159.236C394.384 159.127 394.468 159.013 394.527 158.895V157.527H393.475C393.119 157.527 392.812 157.562 392.552 157.63C392.292 157.694 392.085 157.787 391.93 157.91C391.793 158.015 391.69 158.14 391.622 158.286C391.558 158.432 391.526 158.596 391.526 158.778C391.526 158.929 391.554 159.07 391.608 159.202C391.663 159.33 391.743 159.439 391.848 159.53C391.952 159.621 392.082 159.694 392.237 159.749C392.392 159.799 392.575 159.824 392.784 159.824ZM399.388 163.987C399.228 163.987 399.076 163.974 398.93 163.946C398.788 163.924 398.652 163.896 398.52 163.864L398.745 162.586C398.836 162.59 398.939 162.595 399.053 162.6C399.171 162.609 399.267 162.613 399.34 162.613C399.499 162.613 399.643 162.565 399.771 162.47C399.898 162.379 400.01 162.274 400.105 162.155C400.197 162.037 400.27 161.932 400.324 161.841C400.383 161.75 400.438 161.654 400.488 161.554L400.953 160.672L397.802 153.604H399.6L401.438 158.122L401.691 158.936L401.999 158.143L403.783 153.604H405.595L401.842 162.121C401.755 162.312 401.646 162.515 401.514 162.729C401.386 162.948 401.224 163.149 401.028 163.331C400.832 163.518 400.6 163.673 400.331 163.796C400.062 163.924 399.748 163.987 399.388 163.987ZM413.053 157.288H407.55V155.962H413.053V157.288ZM421.775 157.377C421.775 157.719 421.75 158.045 421.7 158.354C421.65 158.664 421.577 158.951 421.481 159.216C421.372 159.53 421.226 159.815 421.044 160.07C420.862 160.326 420.643 160.537 420.388 160.706C420.183 160.843 419.952 160.948 419.697 161.021C419.447 161.098 419.173 161.137 418.877 161.137C418.576 161.137 418.303 161.1 418.057 161.027C417.811 160.954 417.59 160.847 417.394 160.706C417.293 160.633 417.198 160.556 417.106 160.474C417.02 160.387 416.936 160.294 416.854 160.193L416.778 161H415.302V150.5H416.936V154.328C417.031 154.21 417.136 154.103 417.25 154.007C417.364 153.911 417.487 153.827 417.619 153.754C417.792 153.658 417.981 153.588 418.187 153.542C418.396 153.492 418.622 153.467 418.863 153.467C419.182 153.467 419.474 153.51 419.738 153.597C420.007 153.679 420.249 153.797 420.463 153.952C420.645 154.08 420.807 154.237 420.948 154.424C421.094 154.606 421.222 154.807 421.331 155.025C421.477 155.331 421.586 155.67 421.659 156.044C421.737 156.418 421.775 156.814 421.775 157.233V157.377ZM420.142 157.233C420.142 157.024 420.128 156.821 420.101 156.625C420.078 156.424 420.044 156.238 419.998 156.064C419.934 155.855 419.85 155.666 419.745 155.497C419.645 155.324 419.508 155.178 419.335 155.06C419.221 154.978 419.091 154.916 418.945 154.875C418.799 154.834 418.635 154.813 418.453 154.813C418.23 154.813 418.029 154.845 417.852 154.909C417.674 154.968 417.519 155.055 417.387 155.169C417.291 155.246 417.204 155.338 417.127 155.442C417.054 155.543 416.99 155.652 416.936 155.771V158.833C416.999 158.97 417.075 159.095 417.161 159.209C417.252 159.318 417.355 159.416 417.469 159.503C417.596 159.594 417.742 159.667 417.906 159.722C418.075 159.772 418.262 159.797 418.467 159.797C418.654 159.797 418.822 159.774 418.973 159.729C419.123 159.678 419.257 159.612 419.376 159.53C419.535 159.416 419.665 159.273 419.766 159.1C419.87 158.922 419.95 158.724 420.005 158.505C420.05 158.341 420.085 158.163 420.107 157.972C420.13 157.78 420.142 157.582 420.142 157.377V157.233ZM428.796 153.467C429.06 153.467 429.315 153.485 429.562 153.521C429.812 153.558 430.008 153.601 430.149 153.651L429.917 155.265C429.666 155.21 429.418 155.169 429.172 155.142C428.93 155.114 428.689 155.101 428.447 155.101C428.174 155.101 427.928 155.128 427.709 155.183C427.49 155.237 427.297 155.322 427.128 155.436C426.946 155.545 426.791 155.684 426.663 155.853C426.535 156.021 426.428 156.215 426.342 156.434V161H424.708V153.604H426.239L426.308 154.629L426.314 154.8C426.615 154.385 426.975 154.059 427.395 153.822C427.818 153.585 428.285 153.467 428.796 153.467ZM436.814 161C436.764 160.909 436.723 160.799 436.691 160.672C436.664 160.54 436.639 160.403 436.616 160.262C436.502 160.38 436.372 160.494 436.227 160.604C436.085 160.708 435.926 160.799 435.748 160.877C435.57 160.959 435.379 161.023 435.174 161.068C434.969 161.114 434.748 161.137 434.511 161.137C434.128 161.137 433.777 161.082 433.458 160.973C433.144 160.859 432.875 160.704 432.651 160.508C432.424 160.316 432.246 160.086 432.118 159.817C431.995 159.544 431.934 159.25 431.934 158.936C431.934 158.53 432.013 158.172 432.173 157.862C432.337 157.548 432.574 157.288 432.884 157.083C433.171 156.892 433.524 156.746 433.943 156.646C434.367 156.545 434.846 156.495 435.379 156.495H436.568V155.996C436.568 155.805 436.534 155.632 436.466 155.477C436.402 155.322 436.309 155.187 436.186 155.073C436.053 154.959 435.892 154.873 435.7 154.813C435.513 154.75 435.297 154.718 435.051 154.718C434.827 154.718 434.632 154.745 434.463 154.8C434.299 154.854 434.162 154.93 434.053 155.025C433.943 155.112 433.861 155.219 433.807 155.347C433.757 155.47 433.731 155.602 433.731 155.743H432.091C432.095 155.447 432.166 155.162 432.303 154.889C432.439 154.615 432.64 154.374 432.904 154.164C433.16 153.95 433.474 153.781 433.848 153.658C434.226 153.531 434.657 153.467 435.14 153.467C435.573 153.467 435.976 153.521 436.35 153.631C436.728 153.736 437.054 153.893 437.327 154.103C437.601 154.312 437.815 154.579 437.97 154.902C438.125 155.221 438.202 155.59 438.202 156.01V159.298C438.202 159.631 438.225 159.931 438.271 160.2C438.321 160.465 438.391 160.692 438.482 160.884V161H436.814ZM434.825 159.824C435.039 159.824 435.238 159.797 435.42 159.742C435.607 159.688 435.775 159.617 435.926 159.53C436.076 159.444 436.206 159.346 436.315 159.236C436.425 159.127 436.509 159.013 436.568 158.895V157.527H435.516C435.16 157.527 434.853 157.562 434.593 157.63C434.333 157.694 434.126 157.787 433.971 157.91C433.834 158.015 433.731 158.14 433.663 158.286C433.599 158.432 433.567 158.596 433.567 158.778C433.567 158.929 433.595 159.07 433.649 159.202C433.704 159.33 433.784 159.439 433.889 159.53C433.993 159.621 434.123 159.694 434.278 159.749C434.433 159.799 434.616 159.824 434.825 159.824ZM440.499 161V153.604H441.976L442.078 154.656C442.178 154.515 442.288 154.385 442.406 154.267C442.529 154.144 442.659 154.034 442.796 153.938C443.015 153.788 443.254 153.672 443.514 153.59C443.773 153.508 444.047 153.467 444.334 153.467C444.712 153.467 445.059 153.521 445.373 153.631C445.688 153.74 445.956 153.913 446.18 154.15C446.403 154.387 446.576 154.69 446.699 155.06C446.822 155.424 446.884 155.866 446.884 156.386V161H445.25V156.413C445.25 156.108 445.216 155.853 445.147 155.647C445.079 155.442 444.979 155.278 444.847 155.155C444.715 155.032 444.555 154.946 444.368 154.896C444.181 154.841 443.967 154.813 443.726 154.813C443.525 154.813 443.338 154.841 443.165 154.896C442.992 154.946 442.835 155.019 442.693 155.114C442.584 155.187 442.481 155.276 442.386 155.381C442.29 155.486 442.206 155.6 442.133 155.723V161H440.499ZM448.688 157.247C448.688 156.687 448.755 156.176 448.887 155.716C449.023 155.251 449.219 154.852 449.475 154.52C449.725 154.187 450.031 153.929 450.391 153.747C450.755 153.56 451.165 153.467 451.621 153.467C452.031 153.467 452.389 153.54 452.694 153.686C453.004 153.827 453.278 154.03 453.515 154.294V150.5H455.148V161H453.665L453.59 160.228C453.353 160.519 453.07 160.745 452.742 160.904C452.414 161.059 452.036 161.137 451.607 161.137C451.156 161.137 450.751 161.043 450.391 160.856C450.031 160.665 449.725 160.401 449.475 160.063C449.224 159.731 449.03 159.337 448.894 158.881C448.757 158.421 448.688 157.924 448.688 157.391V157.247ZM450.322 157.391C450.322 157.719 450.354 158.029 450.418 158.32C450.482 158.612 450.582 158.865 450.719 159.079C450.855 159.302 451.031 159.478 451.245 159.605C451.459 159.729 451.717 159.79 452.018 159.79C452.387 159.79 452.692 159.71 452.934 159.551C453.175 159.387 453.369 159.166 453.515 158.888V155.709C453.369 155.436 453.175 155.219 452.934 155.06C452.697 154.896 452.396 154.813 452.031 154.813C451.726 154.813 451.464 154.877 451.245 155.005C451.031 155.132 450.858 155.308 450.726 155.531C450.584 155.755 450.482 156.014 450.418 156.311C450.354 156.602 450.322 156.914 450.322 157.247V157.391ZM462.189 157.069C462.189 157.707 462.137 158.309 462.032 158.874C461.932 159.439 461.795 159.963 461.622 160.446C461.449 160.934 461.248 161.378 461.021 161.779C460.793 162.18 460.551 162.536 460.296 162.846C460.041 163.165 459.781 163.434 459.517 163.652C459.252 163.871 458.997 164.04 458.751 164.158L458.43 163.242C458.603 163.115 458.776 162.953 458.949 162.757C459.122 162.561 459.291 162.335 459.455 162.08C459.628 161.798 459.79 161.476 459.94 161.116C460.095 160.761 460.225 160.367 460.33 159.934C460.43 159.533 460.508 159.095 460.562 158.621C460.622 158.147 460.651 157.634 460.651 157.083V156.939C460.651 156.37 460.619 155.846 460.556 155.367C460.492 154.889 460.412 154.46 460.316 154.082C460.189 153.59 460.034 153.148 459.852 152.756C459.674 152.364 459.487 152.024 459.291 151.737C459.154 151.532 459.011 151.35 458.86 151.19C458.715 151.026 458.571 150.89 458.43 150.78L458.751 149.864C458.997 149.983 459.252 150.154 459.517 150.377C459.785 150.596 460.045 150.86 460.296 151.17C460.556 151.489 460.799 151.849 461.027 152.25C461.255 152.646 461.453 153.089 461.622 153.576C461.791 154.059 461.927 154.581 462.032 155.142C462.137 155.698 462.189 156.301 462.189 156.953V157.069Z" fill="#380037"/>
<path d="M482.925 154.226C482.925 153.911 483.025 153.642 483.226 153.419C483.431 153.196 483.725 153.084 484.107 153.084C484.481 153.084 484.773 153.196 484.982 153.419C485.192 153.638 485.297 153.907 485.297 154.226C485.297 154.545 485.19 154.811 484.976 155.025C484.766 155.24 484.477 155.347 484.107 155.347C483.734 155.347 483.442 155.24 483.232 155.025C483.027 154.807 482.925 154.54 482.925 154.226ZM484.846 160.788C484.846 161.28 484.725 161.779 484.483 162.285C484.246 162.796 483.932 163.226 483.54 163.577L482.624 163.092C482.82 162.768 482.97 162.426 483.075 162.066C483.185 161.706 483.239 161.301 483.239 160.85V159.407H484.846V160.788Z" fill="#001E2E"/>
<path d="M174.667 88C174.667 90.9455 177.054 93.3333 180 93.3333C182.946 93.3333 185.333 90.9455 185.333 88C185.333 85.0545 182.946 82.6667 180 82.6667C177.054 82.6667 174.667 85.0545 174.667 88ZM212.707 156.707C213.098 156.317 213.098 155.683 212.707 155.293L206.343 148.929C205.953 148.538 205.319 148.538 204.929 148.929C204.538 149.319 204.538 149.953 204.929 150.343L210.586 156L204.929 161.657C204.538 162.047 204.538 162.681 204.929 163.071C205.319 163.462 205.953 163.462 206.343 163.071L212.707 156.707ZM179 88V144H181V88H179ZM192 157H212V155H192V157ZM179 144C179 151.18 184.82 157 192 157V155C185.925 155 181 150.075 181 144H179Z" fill="#8194A2"/>
</svg>
