<svg width="1214" height="920" viewBox="0 0 1214 920" fill="none" xmlns="http://www.w3.org/2000/svg">
<rect x="99" y="290" width="361" height="88" rx="44" fill="#FFE0E8"/>
<rect x="99" y="290" width="361" height="88" rx="44" stroke="#B21F70" stroke-width="6"/>
<path d="M162.358 342.296L151.862 335.944V333.064L162.358 326.696V330.232L153.542 334.968V334.04L162.358 338.744V342.296ZM178.852 343.352C177.529 343.352 176.303 343.011 175.172 342.328C174.052 341.635 173.145 340.691 172.452 339.496C171.769 338.301 171.428 336.957 171.428 335.464C171.428 335.421 171.428 335.384 171.428 335.352C171.428 335.309 171.428 335.272 171.428 335.24L173.508 335.192C173.508 335.213 173.508 335.24 173.508 335.272C173.508 335.304 173.508 335.331 173.508 335.352C173.508 336.184 173.716 336.925 174.132 337.576C174.548 338.216 175.087 338.723 175.748 339.096C176.42 339.459 177.135 339.64 177.892 339.64C179.119 339.64 180.164 339.219 181.028 338.376C181.892 337.533 182.324 336.227 182.324 334.456C182.324 332.675 181.892 331.373 181.028 330.552C180.175 329.72 179.129 329.304 177.892 329.304C177.145 329.304 176.436 329.485 175.764 329.848C175.103 330.2 174.559 330.691 174.132 331.32C173.716 331.949 173.508 332.685 173.508 333.528L171.428 333.432C171.428 331.928 171.769 330.595 172.452 329.432C173.145 328.269 174.052 327.363 175.172 326.712C176.303 326.051 177.529 325.72 178.852 325.72C180.228 325.72 181.508 326.061 182.692 326.744C183.887 327.416 184.847 328.403 185.572 329.704C186.308 330.995 186.676 332.579 186.676 334.456C186.676 336.387 186.319 338.013 185.604 339.336C184.889 340.659 183.94 341.661 182.756 342.344C181.572 343.016 180.271 343.352 178.852 343.352ZM169.284 343V317.992H173.508V343H169.284ZM196.271 343.32C195.066 343.32 194.063 343.117 193.263 342.712C192.474 342.307 191.85 341.773 191.391 341.112C190.943 340.451 190.623 339.72 190.431 338.92C190.25 338.12 190.159 337.32 190.159 336.52C190.159 336.125 190.159 335.715 190.159 335.288C190.159 334.861 190.159 334.429 190.159 333.992V326.008H194.383V333.336C194.383 333.72 194.383 334.088 194.383 334.44C194.383 334.792 194.383 335.123 194.383 335.432C194.383 336.189 194.474 336.893 194.655 337.544C194.836 338.184 195.167 338.701 195.647 339.096C196.138 339.491 196.826 339.688 197.711 339.688C198.554 339.688 199.279 339.443 199.887 338.952C200.495 338.451 200.964 337.821 201.295 337.064C201.636 336.307 201.807 335.539 201.807 334.76L203.247 335.72C203.247 336.755 203.087 337.731 202.767 338.648C202.447 339.555 201.983 340.36 201.375 341.064C200.767 341.768 200.031 342.323 199.167 342.728C198.314 343.123 197.348 343.32 196.271 343.32ZM201.807 343V326.008H206.015V343H201.807ZM217.873 343.32C217.265 343.32 216.646 343.261 216.017 343.144C215.388 343.027 214.812 342.808 214.289 342.488C213.766 342.168 213.345 341.699 213.025 341.08C212.705 340.461 212.545 339.645 212.545 338.632C212.545 338.397 212.545 338.163 212.545 337.928C212.545 337.683 212.545 337.432 212.545 337.176V329.368H208.529V326.008H210.161C210.716 326.008 211.153 325.987 211.473 325.944C211.793 325.891 212.028 325.773 212.177 325.592C212.326 325.411 212.422 325.128 212.465 324.744C212.518 324.349 212.545 323.805 212.545 323.112V320.408H216.769V326.008H221.825V329.368H216.769V336.184C216.769 336.387 216.769 336.589 216.769 336.792C216.769 336.984 216.769 337.171 216.769 337.352C216.769 338.141 216.865 338.776 217.057 339.256C217.249 339.736 217.702 339.976 218.417 339.976C218.758 339.976 219.078 339.944 219.377 339.88C219.686 339.816 219.916 339.752 220.065 339.688V342.984C219.862 343.059 219.569 343.133 219.185 343.208C218.801 343.283 218.364 343.32 217.873 343.32ZM231.467 343.32C230.859 343.32 230.24 343.261 229.611 343.144C228.982 343.027 228.406 342.808 227.883 342.488C227.36 342.168 226.939 341.699 226.619 341.08C226.299 340.461 226.139 339.645 226.139 338.632C226.139 338.397 226.139 338.163 226.139 337.928C226.139 337.683 226.139 337.432 226.139 337.176V329.368H222.123V326.008H223.755C224.31 326.008 224.747 325.987 225.067 325.944C225.387 325.891 225.622 325.773 225.771 325.592C225.92 325.411 226.016 325.128 226.059 324.744C226.112 324.349 226.139 323.805 226.139 323.112V320.408H230.363V326.008H235.419V329.368H230.363V336.184C230.363 336.387 230.363 336.589 230.363 336.792C230.363 336.984 230.363 337.171 230.363 337.352C230.363 338.141 230.459 338.776 230.651 339.256C230.843 339.736 231.296 339.976 232.011 339.976C232.352 339.976 232.672 339.944 232.971 339.88C233.28 339.816 233.51 339.752 233.659 339.688V342.984C233.456 343.059 233.163 343.133 232.779 343.208C232.395 343.283 231.958 343.32 231.467 343.32ZM246.48 343.336C244.688 343.336 243.109 342.963 241.744 342.216C240.378 341.459 239.306 340.413 238.528 339.08C237.76 337.747 237.376 336.221 237.376 334.504C237.376 332.776 237.76 331.256 238.528 329.944C239.306 328.621 240.378 327.587 241.744 326.84C243.109 326.093 244.688 325.72 246.48 325.72C248.272 325.72 249.85 326.093 251.216 326.84C252.581 327.587 253.648 328.621 254.416 329.944C255.194 331.256 255.584 332.776 255.584 334.504C255.584 336.221 255.194 337.747 254.416 339.08C253.648 340.413 252.581 341.459 251.216 342.216C249.85 342.963 248.272 343.336 246.48 343.336ZM246.48 339.896C247.45 339.896 248.298 339.672 249.024 339.224C249.749 338.776 250.314 338.152 250.72 337.352C251.125 336.541 251.328 335.592 251.328 334.504C251.328 333.416 251.125 332.477 250.72 331.688C250.314 330.888 249.749 330.269 249.024 329.832C248.298 329.395 247.45 329.176 246.48 329.176C245.52 329.176 244.672 329.395 243.936 329.832C243.21 330.269 242.645 330.888 242.24 331.688C241.834 332.477 241.632 333.416 241.632 334.504C241.632 335.592 241.834 336.541 242.24 337.352C242.645 338.152 243.21 338.776 243.936 339.224C244.672 339.672 245.52 339.896 246.48 339.896ZM271.081 343V335.464C271.081 335.037 271.081 334.664 271.081 334.344C271.081 334.013 271.081 333.715 271.081 333.448C271.081 332.68 270.969 331.992 270.745 331.384C270.532 330.765 270.158 330.28 269.625 329.928C269.102 329.576 268.377 329.4 267.449 329.4C266.638 329.4 265.918 329.597 265.289 329.992C264.66 330.376 264.164 330.909 263.801 331.592C263.449 332.264 263.273 333.043 263.273 333.928L261.849 333.048C261.849 331.629 262.169 330.371 262.809 329.272C263.46 328.163 264.329 327.293 265.417 326.664C266.505 326.035 267.71 325.72 269.033 325.72C270.398 325.72 271.545 325.987 272.473 326.52C273.412 327.053 274.116 327.811 274.585 328.792C275.065 329.773 275.305 330.925 275.305 332.248C275.305 332.76 275.305 333.336 275.305 333.976C275.305 334.616 275.305 335.245 275.305 335.864V343H271.081ZM259.065 343V326.008H263.273V343H259.065ZM310.354 341.208C309.608 341.624 308.637 341.992 307.442 342.312C306.258 342.621 304.957 342.861 303.538 343.032C302.12 343.203 300.674 343.288 299.202 343.288C296.61 343.288 294.354 342.872 292.434 342.04C290.525 341.208 289.053 339.997 288.018 338.408C286.984 336.819 286.466 334.877 286.466 332.584C286.466 330.621 286.85 328.819 287.618 327.176C288.397 325.533 289.485 324.109 290.882 322.904C292.29 321.699 293.944 320.765 295.842 320.104C297.741 319.443 299.805 319.112 302.034 319.112C304.05 319.112 305.821 319.373 307.346 319.896C308.882 320.419 310.162 321.133 311.186 322.04C312.221 322.947 313 323.987 313.522 325.16C314.045 326.323 314.306 327.549 314.306 328.84C314.306 330.141 314.082 331.357 313.634 332.488C313.197 333.619 312.568 334.611 311.746 335.464C310.925 336.307 309.938 336.968 308.786 337.448C307.634 337.917 306.344 338.152 304.914 338.152C304.488 338.152 304.056 338.104 303.618 338.008C303.181 337.912 302.818 337.736 302.53 337.48C302.242 337.224 302.088 336.861 302.066 336.392C302.066 336.381 302.066 336.365 302.066 336.344C302.066 336.323 302.066 336.307 302.066 336.296C301.832 336.808 301.4 337.229 300.77 337.56C300.152 337.88 299.389 338.04 298.482 338.04C297.33 338.04 296.381 337.805 295.634 337.336C294.888 336.867 294.333 336.221 293.97 335.4C293.608 334.579 293.426 333.635 293.426 332.568C293.426 331.032 293.736 329.667 294.354 328.472C294.984 327.277 295.842 326.333 296.93 325.64C298.018 324.947 299.261 324.6 300.658 324.6C301.554 324.6 302.285 324.771 302.85 325.112C303.416 325.443 303.698 325.827 303.698 326.264L304.05 324.952H306.898L304.594 334.328C304.584 334.392 304.568 334.477 304.546 334.584C304.536 334.68 304.53 334.739 304.53 334.76C304.53 335.208 304.648 335.523 304.882 335.704C305.128 335.875 305.453 335.96 305.858 335.96C306.872 335.96 307.725 335.757 308.418 335.352C309.112 334.936 309.666 334.381 310.082 333.688C310.498 332.995 310.797 332.227 310.978 331.384C311.17 330.541 311.266 329.683 311.266 328.808C311.266 327.293 310.893 325.971 310.146 324.84C309.41 323.709 308.338 322.835 306.93 322.216C305.533 321.587 303.832 321.272 301.826 321.272C299.97 321.272 298.285 321.549 296.77 322.104C295.266 322.659 293.97 323.443 292.882 324.456C291.805 325.469 290.973 326.669 290.386 328.056C289.81 329.443 289.522 330.968 289.522 332.632C289.522 334.552 289.938 336.141 290.77 337.4C291.602 338.659 292.754 339.597 294.226 340.216C295.698 340.824 297.405 341.128 299.346 341.128C300.53 341.128 301.709 341.053 302.882 340.904C304.056 340.755 305.149 340.547 306.162 340.28C307.186 340.013 308.056 339.699 308.77 339.336L310.354 341.208ZM298.962 335.896C299.72 335.896 300.312 335.741 300.738 335.432C301.176 335.123 301.464 334.691 301.602 334.136C301.624 334.104 301.672 333.923 301.746 333.592C301.832 333.261 301.933 332.861 302.05 332.392C302.168 331.923 302.285 331.443 302.402 330.952C302.53 330.451 302.637 330.008 302.722 329.624C302.818 329.229 302.882 328.963 302.914 328.824C302.968 328.579 302.994 328.381 302.994 328.232C302.994 327.837 302.861 327.48 302.594 327.16C302.328 326.829 301.816 326.664 301.058 326.664C300.152 326.664 299.352 326.947 298.658 327.512C297.965 328.077 297.426 328.819 297.042 329.736C296.658 330.643 296.466 331.624 296.466 332.68C296.466 333.704 296.68 334.499 297.106 335.064C297.544 335.619 298.162 335.896 298.962 335.896ZM327.215 343.352C325.423 343.352 323.839 342.984 322.463 342.248C321.087 341.512 320.01 340.477 319.231 339.144C318.452 337.811 318.063 336.248 318.063 334.456C318.063 332.675 318.452 331.128 319.231 329.816C320.01 328.504 321.087 327.496 322.463 326.792C323.839 326.077 325.423 325.72 327.215 325.72C328.559 325.72 329.748 325.917 330.783 326.312C331.818 326.707 332.687 327.235 333.391 327.896C334.106 328.547 334.65 329.267 335.023 330.056C335.396 330.835 335.583 331.613 335.583 332.392C335.583 332.413 335.583 332.435 335.583 332.456C335.583 332.477 335.583 332.499 335.583 332.52H331.407C331.407 332.467 331.402 332.408 331.391 332.344C331.38 332.28 331.37 332.216 331.359 332.152C331.274 331.608 331.055 331.117 330.703 330.68C330.351 330.232 329.882 329.875 329.295 329.608C328.708 329.341 327.999 329.208 327.167 329.208C326.282 329.208 325.471 329.405 324.735 329.8C324.01 330.184 323.428 330.765 322.991 331.544C322.564 332.323 322.351 333.293 322.351 334.456C322.351 335.608 322.564 336.589 322.991 337.4C323.418 338.2 323.994 338.813 324.719 339.24C325.455 339.656 326.271 339.864 327.167 339.864C328.116 339.864 328.89 339.72 329.487 339.432C330.095 339.133 330.554 338.739 330.863 338.248C331.172 337.747 331.348 337.203 331.391 336.616H335.583C335.583 337.405 335.402 338.2 335.039 339C334.676 339.789 334.143 340.515 333.439 341.176C332.735 341.837 331.86 342.365 330.815 342.76C329.78 343.155 328.58 343.352 327.215 343.352ZM343.449 317.992V343H339.305V317.992H343.449ZM347.673 343V326.008H351.833V343H347.673ZM349.769 322.872C349.086 322.872 348.489 322.691 347.977 322.328C347.475 321.955 347.225 321.437 347.225 320.776C347.225 320.125 347.475 319.619 347.977 319.256C348.489 318.893 349.086 318.712 349.769 318.712C350.441 318.712 351.027 318.893 351.529 319.256C352.03 319.619 352.281 320.125 352.281 320.776C352.281 321.437 352.03 321.955 351.529 322.328C351.027 322.691 350.441 322.872 349.769 322.872ZM364.403 343.352C362.611 343.352 361.027 342.984 359.651 342.248C358.275 341.512 357.197 340.477 356.419 339.144C355.64 337.811 355.251 336.248 355.251 334.456C355.251 332.675 355.64 331.128 356.419 329.816C357.197 328.504 358.275 327.496 359.651 326.792C361.027 326.077 362.611 325.72 364.403 325.72C365.747 325.72 366.936 325.917 367.971 326.312C369.005 326.707 369.875 327.235 370.579 327.896C371.293 328.547 371.837 329.267 372.211 330.056C372.584 330.835 372.771 331.613 372.771 332.392C372.771 332.413 372.771 332.435 372.771 332.456C372.771 332.477 372.771 332.499 372.771 332.52H368.595C368.595 332.467 368.589 332.408 368.579 332.344C368.568 332.28 368.557 332.216 368.547 332.152C368.461 331.608 368.243 331.117 367.891 330.68C367.539 330.232 367.069 329.875 366.483 329.608C365.896 329.341 365.187 329.208 364.355 329.208C363.469 329.208 362.659 329.405 361.923 329.8C361.197 330.184 360.616 330.765 360.179 331.544C359.752 332.323 359.539 333.293 359.539 334.456C359.539 335.608 359.752 336.589 360.179 337.4C360.605 338.2 361.181 338.813 361.907 339.24C362.643 339.656 363.459 339.864 364.355 339.864C365.304 339.864 366.077 339.72 366.675 339.432C367.283 339.133 367.741 338.739 368.051 338.248C368.36 337.747 368.536 337.203 368.579 336.616H372.771C372.771 337.405 372.589 338.2 372.227 339C371.864 339.789 371.331 340.515 370.627 341.176C369.923 341.837 369.048 342.365 368.003 342.76C366.968 343.155 365.768 343.352 364.403 343.352ZM376.253 343V317.992H380.253V332.648L379.341 332.2L386.365 326.008H391.597L383.277 333.416L384.221 331.688L391.517 343H387.069L381.469 333.928L382.493 334.104L379.773 336.536L380.253 334.664V343H376.253ZM396.628 326.696L407.108 333.064V335.944L396.628 342.296V338.744L405.444 334.04V334.968L396.628 330.232V326.696Z" fill="#DA2F84"/>
<rect x="477" y="628" width="228" height="228" rx="114" fill="#1B2437"/>
<rect x="477" y="628" width="228" height="228" rx="114" stroke="#BAC6DE" stroke-width="6"/>
<path d="M578.367 705.44C576.087 705.44 574.247 705.027 572.847 704.2C571.46 703.36 570.453 702.2 569.827 700.72C569.2 699.227 568.887 697.487 568.887 695.5C568.887 695.287 568.887 695.073 568.887 694.86C568.887 694.647 568.887 694.433 568.887 694.22H574.107C574.107 694.327 574.107 694.453 574.107 694.6C574.107 694.747 574.107 694.887 574.107 695.02C574.107 696.127 574.233 697.14 574.487 698.06C574.753 698.98 575.193 699.72 575.807 700.28C576.42 700.84 577.273 701.12 578.367 701.12C579.447 701.12 580.287 700.84 580.887 700.28C581.487 699.72 581.907 698.953 582.147 697.98C582.4 696.993 582.527 695.88 582.527 694.64V675.5H587.787V695.36C587.787 696.773 587.627 698.087 587.307 699.3C587 700.513 586.487 701.58 585.767 702.5C585.06 703.42 584.1 704.14 582.887 704.66C581.673 705.18 580.167 705.44 578.367 705.44ZM602.16 705.44C600.067 705.44 598.24 705.107 596.68 704.44C595.12 703.773 593.907 702.773 593.04 701.44C592.173 700.093 591.74 698.427 591.74 696.44C591.74 696.213 591.74 696.013 591.74 695.84C591.74 695.653 591.74 695.447 591.74 695.22H597C597 695.42 597 695.607 597 695.78C597 695.94 597 696.127 597 696.34C597 697.94 597.433 699.14 598.3 699.94C599.18 700.727 600.473 701.12 602.18 701.12C603.9 701.12 605.213 700.833 606.12 700.26C607.04 699.687 607.5 698.767 607.5 697.5C607.5 696.58 607.187 695.8 606.56 695.16C605.947 694.507 605.1 693.933 604.02 693.44C602.94 692.947 601.713 692.487 600.34 692.06C598.793 691.58 597.387 690.96 596.12 690.2C594.853 689.44 593.84 688.48 593.08 687.32C592.32 686.16 591.94 684.733 591.94 683.04C591.94 681.347 592.373 679.907 593.24 678.72C594.12 677.533 595.32 676.633 596.84 676.02C598.373 675.393 600.113 675.08 602.06 675.08C604.1 675.08 605.893 675.4 607.44 676.04C609 676.68 610.22 677.633 611.1 678.9C611.98 680.167 612.42 681.747 612.42 683.64C612.42 683.893 612.42 684.113 612.42 684.3C612.42 684.487 612.42 684.7 612.42 684.94H607.14C607.14 684.767 607.14 684.593 607.14 684.42C607.14 684.233 607.14 684.053 607.14 683.88C607.14 682.36 606.727 681.24 605.9 680.52C605.073 679.787 603.82 679.42 602.14 679.42C600.5 679.42 599.24 679.707 598.36 680.28C597.48 680.853 597.04 681.767 597.04 683.02C597.04 683.953 597.34 684.733 597.94 685.36C598.54 685.987 599.36 686.533 600.4 687C601.453 687.453 602.647 687.913 603.98 688.38C605.753 688.967 607.287 689.633 608.58 690.38C609.873 691.113 610.873 692.033 611.58 693.14C612.287 694.233 612.64 695.627 612.64 697.32C612.64 699.053 612.2 700.527 611.32 701.74C610.453 702.94 609.233 703.86 607.66 704.5C606.1 705.127 604.267 705.44 602.16 705.44ZM551.161 742.38C551.161 743.633 550.928 744.907 550.461 746.2C549.995 747.493 549.281 748.693 548.321 749.8C547.375 750.893 546.175 751.773 544.721 752.44C543.268 753.107 541.561 753.44 539.601 753.44C536.948 753.44 534.681 752.793 532.801 751.5C530.935 750.193 529.508 748.4 528.521 746.12C527.548 743.84 527.061 741.22 527.061 738.26C527.061 735.287 527.548 732.66 528.521 730.38C529.508 728.1 530.935 726.313 532.801 725.02C534.681 723.727 536.948 723.08 539.601 723.08C541.801 723.08 543.681 723.5 545.241 724.34C546.801 725.18 548.048 726.26 548.981 727.58C549.915 728.9 550.541 730.28 550.861 731.72C551.061 732.56 551.161 733.36 551.161 734.12H545.861C545.861 733.733 545.835 733.333 545.781 732.92C545.635 731.907 545.295 730.987 544.761 730.16C544.241 729.32 543.548 728.66 542.681 728.18C541.815 727.687 540.788 727.44 539.601 727.44C538.188 727.44 536.941 727.833 535.861 728.62C534.795 729.407 533.955 730.6 533.341 732.2C532.728 733.8 532.421 735.82 532.421 738.26C532.421 740.673 532.728 742.687 533.341 744.3C533.955 745.913 534.795 747.12 535.861 747.92C536.941 748.72 538.188 749.12 539.601 749.12C540.615 749.12 541.508 748.933 542.281 748.56C543.055 748.187 543.708 747.687 544.241 747.06C544.775 746.42 545.175 745.7 545.441 744.9C545.721 744.1 545.861 743.26 545.861 742.38H551.161ZM565.618 753.42C563.378 753.42 561.404 752.953 559.698 752.02C557.991 751.073 556.651 749.767 555.678 748.1C554.718 746.433 554.238 744.527 554.238 742.38C554.238 740.22 554.718 738.32 555.678 736.68C556.651 735.027 557.991 733.733 559.698 732.8C561.404 731.867 563.378 731.4 565.618 731.4C567.858 731.4 569.831 731.867 571.538 732.8C573.244 733.733 574.578 735.027 575.538 736.68C576.511 738.32 576.998 740.22 576.998 742.38C576.998 744.527 576.511 746.433 575.538 748.1C574.578 749.767 573.244 751.073 571.538 752.02C569.831 752.953 567.858 753.42 565.618 753.42ZM565.618 749.12C566.831 749.12 567.891 748.84 568.798 748.28C569.704 747.72 570.411 746.94 570.918 745.94C571.424 744.927 571.678 743.74 571.678 742.38C571.678 741.02 571.424 739.847 570.918 738.86C570.411 737.86 569.704 737.087 568.798 736.54C567.891 735.993 566.831 735.72 565.618 735.72C564.418 735.72 563.358 735.993 562.438 736.54C561.531 737.087 560.824 737.86 560.318 738.86C559.811 739.847 559.558 741.02 559.558 742.38C559.558 743.74 559.811 744.927 560.318 745.94C560.824 746.94 561.531 747.72 562.438 748.28C563.358 748.84 564.418 749.12 565.618 749.12ZM588.589 753.4C587.083 753.4 585.829 753.147 584.829 752.64C583.843 752.133 583.063 751.467 582.489 750.64C581.929 749.813 581.529 748.9 581.289 747.9C581.063 746.9 580.949 745.9 580.949 744.9C580.949 744.407 580.949 743.893 580.949 743.36C580.949 742.827 580.949 742.287 580.949 741.74V731.76H586.229V740.92C586.229 741.4 586.229 741.86 586.229 742.3C586.229 742.74 586.229 743.153 586.229 743.54C586.229 744.487 586.343 745.367 586.569 746.18C586.796 746.98 587.209 747.627 587.809 748.12C588.423 748.613 589.283 748.86 590.389 748.86C591.443 748.86 592.349 748.553 593.109 747.94C593.869 747.313 594.456 746.527 594.869 745.58C595.296 744.633 595.509 743.673 595.509 742.7L597.309 743.9C597.309 745.193 597.109 746.413 596.709 747.56C596.309 748.693 595.729 749.7 594.969 750.58C594.209 751.46 593.289 752.153 592.209 752.66C591.143 753.153 589.936 753.4 588.589 753.4ZM595.509 753V731.76H600.769V753H595.509ZM620.452 753V743.58C620.452 743.047 620.452 742.58 620.452 742.18C620.452 741.767 620.452 741.393 620.452 741.06C620.452 740.1 620.312 739.24 620.032 738.48C619.766 737.707 619.299 737.1 618.632 736.66C617.979 736.22 617.072 736 615.912 736C614.899 736 613.999 736.247 613.212 736.74C612.426 737.22 611.806 737.887 611.352 738.74C610.912 739.58 610.692 740.553 610.692 741.66L608.912 740.56C608.912 738.787 609.312 737.213 610.112 735.84C610.926 734.453 612.012 733.367 613.372 732.58C614.732 731.793 616.239 731.4 617.892 731.4C619.599 731.4 621.032 731.733 622.192 732.4C623.366 733.067 624.246 734.013 624.832 735.24C625.432 736.467 625.732 737.907 625.732 739.56C625.732 740.2 625.732 740.92 625.732 741.72C625.732 742.52 625.732 743.307 625.732 744.08V753H620.452ZM605.432 753V731.76H610.692V753H605.432ZM639.636 753.4C638.876 753.4 638.103 753.327 637.316 753.18C636.529 753.033 635.809 752.76 635.156 752.36C634.503 751.96 633.976 751.373 633.576 750.6C633.176 749.827 632.976 748.807 632.976 747.54C632.976 747.247 632.976 746.953 632.976 746.66C632.976 746.353 632.976 746.04 632.976 745.72V735.96H627.956V731.76H629.996C630.689 731.76 631.236 731.733 631.636 731.68C632.036 731.613 632.329 731.467 632.516 731.24C632.703 731.013 632.823 730.66 632.876 730.18C632.943 729.687 632.976 729.007 632.976 728.14V724.76H638.256V731.76H644.576V735.96H638.256V744.48C638.256 744.733 638.256 744.987 638.256 745.24C638.256 745.48 638.256 745.713 638.256 745.94C638.256 746.927 638.376 747.72 638.616 748.32C638.856 748.92 639.423 749.22 640.316 749.22C640.743 749.22 641.143 749.18 641.516 749.1C641.903 749.02 642.189 748.94 642.376 748.86V752.98C642.123 753.073 641.756 753.167 641.276 753.26C640.796 753.353 640.249 753.4 639.636 753.4ZM651.108 753.56C650.281 753.56 649.581 753.273 649.008 752.7C648.434 752.127 648.148 751.427 648.148 750.6C648.148 749.787 648.434 749.093 649.008 748.52C649.581 747.933 650.281 747.64 651.108 747.64C651.921 747.64 652.614 747.933 653.188 748.52C653.774 749.093 654.068 749.787 654.068 750.6C654.068 751.427 653.774 752.127 653.188 752.7C652.614 753.273 651.921 753.56 651.108 753.56ZM651.128 738.12C650.301 738.12 649.601 737.833 649.028 737.26C648.454 736.687 648.168 735.987 648.168 735.16C648.168 734.347 648.454 733.653 649.028 733.08C649.601 732.493 650.301 732.2 651.128 732.2C651.941 732.2 652.634 732.493 653.208 733.08C653.794 733.653 654.088 734.347 654.088 735.16C654.088 735.987 653.794 736.687 653.208 737.26C652.634 737.833 651.941 738.12 651.128 738.12ZM595.391 771.44V801H590.151V776.54C590.018 776.673 589.664 776.853 589.091 777.08C588.531 777.293 587.851 777.5 587.051 777.7C586.264 777.887 585.444 778.02 584.591 778.1V773.82C585.444 773.713 586.264 773.527 587.051 773.26C587.851 772.993 588.538 772.7 589.111 772.38C589.684 772.047 590.071 771.733 590.271 771.44H595.391Z" fill="white"/>
<path d="M279 400V450" stroke="#2A3751" stroke-width="6" stroke-linecap="round" stroke-linejoin="round"/>
<rect x="144" y="462" width="270" height="144" rx="16" fill="#EDF1F7"/>
<rect x="144" y="462" width="270" height="144" rx="16" stroke="#2A3751" stroke-width="6"/>
<path d="M239.161 510.38C239.161 511.633 238.928 512.907 238.461 514.2C237.995 515.493 237.281 516.693 236.321 517.8C235.375 518.893 234.175 519.773 232.721 520.44C231.268 521.107 229.561 521.44 227.601 521.44C224.948 521.44 222.681 520.793 220.801 519.5C218.935 518.193 217.508 516.4 216.521 514.12C215.548 511.84 215.061 509.22 215.061 506.26C215.061 503.287 215.548 500.66 216.521 498.38C217.508 496.1 218.935 494.313 220.801 493.02C222.681 491.727 224.948 491.08 227.601 491.08C229.801 491.08 231.681 491.5 233.241 492.34C234.801 493.18 236.048 494.26 236.981 495.58C237.915 496.9 238.541 498.28 238.861 499.72C239.061 500.56 239.161 501.36 239.161 502.12H233.861C233.861 501.733 233.835 501.333 233.781 500.92C233.635 499.907 233.295 498.987 232.761 498.16C232.241 497.32 231.548 496.66 230.681 496.18C229.815 495.687 228.788 495.44 227.601 495.44C226.188 495.44 224.941 495.833 223.861 496.62C222.795 497.407 221.955 498.6 221.341 500.2C220.728 501.8 220.421 503.82 220.421 506.26C220.421 508.673 220.728 510.687 221.341 512.3C221.955 513.913 222.795 515.12 223.861 515.92C224.941 516.72 226.188 517.12 227.601 517.12C228.615 517.12 229.508 516.933 230.281 516.56C231.055 516.187 231.708 515.687 232.241 515.06C232.775 514.42 233.175 513.7 233.441 512.9C233.721 512.1 233.861 511.26 233.861 510.38H239.161ZM253.617 521.42C251.377 521.42 249.404 520.953 247.697 520.02C245.991 519.073 244.651 517.767 243.677 516.1C242.717 514.433 242.237 512.527 242.237 510.38C242.237 508.22 242.717 506.32 243.677 504.68C244.651 503.027 245.991 501.733 247.697 500.8C249.404 499.867 251.377 499.4 253.617 499.4C255.857 499.4 257.831 499.867 259.537 500.8C261.244 501.733 262.578 503.027 263.538 504.68C264.511 506.32 264.997 508.22 264.997 510.38C264.997 512.527 264.511 514.433 263.538 516.1C262.578 517.767 261.244 519.073 259.537 520.02C257.831 520.953 255.857 521.42 253.617 521.42ZM253.617 517.12C254.831 517.12 255.891 516.84 256.797 516.28C257.704 515.72 258.411 514.94 258.917 513.94C259.424 512.927 259.677 511.74 259.677 510.38C259.677 509.02 259.424 507.847 258.917 506.86C258.411 505.86 257.704 505.087 256.797 504.54C255.891 503.993 254.831 503.72 253.617 503.72C252.417 503.72 251.357 503.993 250.437 504.54C249.531 505.087 248.824 505.86 248.317 506.86C247.811 507.847 247.557 509.02 247.557 510.38C247.557 511.74 247.811 512.927 248.317 513.94C248.824 514.94 249.531 515.72 250.437 516.28C251.357 516.84 252.417 517.12 253.617 517.12ZM276.589 521.4C275.083 521.4 273.829 521.147 272.829 520.64C271.843 520.133 271.063 519.467 270.489 518.64C269.929 517.813 269.529 516.9 269.289 515.9C269.063 514.9 268.949 513.9 268.949 512.9C268.949 512.407 268.949 511.893 268.949 511.36C268.949 510.827 268.949 510.287 268.949 509.74V499.76H274.229V508.92C274.229 509.4 274.229 509.86 274.229 510.3C274.229 510.74 274.229 511.153 274.229 511.54C274.229 512.487 274.343 513.367 274.569 514.18C274.796 514.98 275.209 515.627 275.809 516.12C276.423 516.613 277.283 516.86 278.389 516.86C279.443 516.86 280.349 516.553 281.109 515.94C281.869 515.313 282.456 514.527 282.869 513.58C283.296 512.633 283.509 511.673 283.509 510.7L285.309 511.9C285.309 513.193 285.109 514.413 284.709 515.56C284.309 516.693 283.729 517.7 282.969 518.58C282.209 519.46 281.289 520.153 280.209 520.66C279.143 521.153 277.936 521.4 276.589 521.4ZM283.509 521V499.76H288.769V521H283.509ZM308.452 521V511.58C308.452 511.047 308.452 510.58 308.452 510.18C308.452 509.767 308.452 509.393 308.452 509.06C308.452 508.1 308.312 507.24 308.032 506.48C307.766 505.707 307.299 505.1 306.632 504.66C305.979 504.22 305.072 504 303.912 504C302.899 504 301.999 504.247 301.212 504.74C300.426 505.22 299.806 505.887 299.352 506.74C298.912 507.58 298.692 508.553 298.692 509.66L296.912 508.56C296.912 506.787 297.312 505.213 298.112 503.84C298.926 502.453 300.012 501.367 301.372 500.58C302.732 499.793 304.239 499.4 305.892 499.4C307.599 499.4 309.032 499.733 310.192 500.4C311.366 501.067 312.246 502.013 312.832 503.24C313.432 504.467 313.732 505.907 313.732 507.56C313.732 508.2 313.732 508.92 313.732 509.72C313.732 510.52 313.732 511.307 313.732 512.08V521H308.452ZM293.432 521V499.76H298.692V521H293.432ZM327.636 521.4C326.876 521.4 326.103 521.327 325.316 521.18C324.529 521.033 323.809 520.76 323.156 520.36C322.503 519.96 321.976 519.373 321.576 518.6C321.176 517.827 320.976 516.807 320.976 515.54C320.976 515.247 320.976 514.953 320.976 514.66C320.976 514.353 320.976 514.04 320.976 513.72V503.96H315.956V499.76H317.996C318.689 499.76 319.236 499.733 319.636 499.68C320.036 499.613 320.329 499.467 320.516 499.24C320.703 499.013 320.823 498.66 320.876 498.18C320.943 497.687 320.976 497.007 320.976 496.14V492.76H326.256V499.76H332.576V503.96H326.256V512.48C326.256 512.733 326.256 512.987 326.256 513.24C326.256 513.48 326.256 513.713 326.256 513.94C326.256 514.927 326.376 515.72 326.616 516.32C326.856 516.92 327.423 517.22 328.316 517.22C328.743 517.22 329.143 517.18 329.516 517.1C329.903 517.02 330.189 516.94 330.376 516.86V520.98C330.123 521.073 329.756 521.167 329.276 521.26C328.796 521.353 328.249 521.4 327.636 521.4ZM339.108 521.56C338.281 521.56 337.581 521.273 337.008 520.7C336.434 520.127 336.148 519.427 336.148 518.6C336.148 517.787 336.434 517.093 337.008 516.52C337.581 515.933 338.281 515.64 339.108 515.64C339.921 515.64 340.614 515.933 341.188 516.52C341.774 517.093 342.068 517.787 342.068 518.6C342.068 519.427 341.774 520.127 341.188 520.7C340.614 521.273 339.921 521.56 339.108 521.56ZM339.128 506.12C338.301 506.12 337.601 505.833 337.028 505.26C336.454 504.687 336.168 503.987 336.168 503.16C336.168 502.347 336.454 501.653 337.028 501.08C337.601 500.493 338.301 500.2 339.128 500.2C339.941 500.2 340.634 500.493 341.208 501.08C341.794 501.653 342.088 502.347 342.088 503.16C342.088 503.987 341.794 504.687 341.208 505.26C340.634 505.833 339.941 506.12 339.128 506.12ZM202.235 539.5H204.835V569H202.235V539.5ZM203.575 565.06C202.308 565.06 201.102 564.92 199.955 564.64C198.808 564.36 197.788 563.94 196.895 563.38C196.015 562.82 195.322 562.127 194.815 561.3C194.308 560.46 194.055 559.493 194.055 558.4C194.055 558.32 194.055 558.24 194.055 558.16C194.055 558.08 194.055 558.007 194.055 557.94H199.295C199.295 558.007 199.295 558.067 199.295 558.12C199.295 558.16 199.295 558.22 199.295 558.3C199.295 559.167 199.688 559.82 200.475 560.26C201.275 560.687 202.355 560.9 203.715 560.9C204.475 560.9 205.182 560.82 205.835 560.66C206.502 560.5 207.035 560.253 207.435 559.92C207.848 559.587 208.055 559.16 208.055 558.64C208.055 557.8 207.622 557.2 206.755 556.84C205.888 556.48 204.542 556.153 202.715 555.86C201.702 555.687 200.695 555.453 199.695 555.16C198.708 554.867 197.808 554.473 196.995 553.98C196.195 553.487 195.548 552.873 195.055 552.14C194.575 551.407 194.335 550.513 194.335 549.46C194.335 548.06 194.755 546.887 195.595 545.94C196.435 544.98 197.555 544.253 198.955 543.76C200.368 543.267 201.922 543.02 203.615 543.02C205.242 543.02 206.748 543.287 208.135 543.82C209.535 544.353 210.662 545.12 211.515 546.12C212.382 547.12 212.815 548.327 212.815 549.74C212.815 549.793 212.815 549.853 212.815 549.92C212.815 549.973 212.815 550.02 212.815 550.06H207.615C207.615 550.02 207.615 549.98 207.615 549.94C207.615 549.9 207.615 549.853 207.615 549.8C207.615 549.187 207.422 548.687 207.035 548.3C206.648 547.913 206.148 547.627 205.535 547.44C204.922 547.253 204.282 547.16 203.615 547.16C203.002 547.16 202.375 547.227 201.735 547.36C201.108 547.48 200.582 547.7 200.155 548.02C199.728 548.327 199.515 548.76 199.515 549.32C199.515 549.853 199.728 550.287 200.155 550.62C200.595 550.953 201.208 551.233 201.995 551.46C202.782 551.673 203.695 551.867 204.735 552.04C205.695 552.2 206.668 552.42 207.655 552.7C208.655 552.98 209.568 553.353 210.395 553.82C211.235 554.287 211.908 554.9 212.415 555.66C212.922 556.407 213.175 557.333 213.175 558.44C213.175 559.613 212.908 560.613 212.375 561.44C211.842 562.267 211.115 562.953 210.195 563.5C209.288 564.033 208.262 564.427 207.115 564.68C205.982 564.933 204.802 565.06 203.575 565.06ZM229.31 539.74C228.11 539.74 227.197 540.08 226.57 540.76C225.944 541.44 225.63 542.493 225.63 543.92V552.06C225.63 553.233 225.404 554.173 224.95 554.88C224.51 555.573 223.93 556.087 223.21 556.42C222.504 556.753 221.757 556.967 220.97 557.06V556.82C221.757 556.9 222.504 557.113 223.21 557.46C223.93 557.793 224.51 558.313 224.95 559.02C225.404 559.713 225.63 560.653 225.63 561.84C225.63 562.507 225.63 563.28 225.63 564.16C225.63 565.027 225.63 565.913 225.63 566.82C225.63 567.513 225.63 568.193 225.63 568.86C225.63 569.513 225.63 570.1 225.63 570.62C225.63 572.047 225.944 573.047 226.57 573.62C227.197 574.193 228.11 574.48 229.31 574.48V578.34C227.657 578.34 226.177 578.153 224.87 577.78C223.577 577.407 222.557 576.767 221.81 575.86C221.064 574.967 220.69 573.733 220.69 572.16C220.69 571.587 220.69 570.927 220.69 570.18C220.69 569.447 220.69 568.693 220.69 567.92C220.69 567.053 220.69 566.207 220.69 565.38C220.69 564.54 220.69 563.8 220.69 563.16C220.69 562.2 220.59 561.42 220.39 560.82C220.19 560.22 219.844 559.747 219.35 559.4C218.87 559.053 218.197 558.787 217.33 558.6V555.3C218.197 555.113 218.87 554.847 219.35 554.5C219.844 554.153 220.19 553.68 220.39 553.08C220.59 552.48 220.69 551.7 220.69 550.74V542.34C220.69 540.767 221.064 539.507 221.81 538.56C222.557 537.613 223.577 536.933 224.87 536.52C226.177 536.093 227.657 535.88 229.31 535.88V539.74ZM244.146 569.44C241.906 569.44 239.926 568.98 238.206 568.06C236.486 567.14 235.14 565.847 234.166 564.18C233.193 562.513 232.706 560.56 232.706 558.32C232.706 556.093 233.193 554.16 234.166 552.52C235.14 550.88 236.486 549.62 238.206 548.74C239.926 547.847 241.906 547.4 244.146 547.4C245.826 547.4 247.313 547.647 248.606 548.14C249.9 548.633 250.986 549.293 251.866 550.12C252.76 550.933 253.44 551.833 253.906 552.82C254.373 553.793 254.606 554.767 254.606 555.74C254.606 555.767 254.606 555.793 254.606 555.82C254.606 555.847 254.606 555.873 254.606 555.9H249.386C249.386 555.833 249.38 555.76 249.366 555.68C249.353 555.6 249.34 555.52 249.326 555.44C249.22 554.76 248.946 554.147 248.506 553.6C248.066 553.04 247.48 552.593 246.746 552.26C246.013 551.927 245.126 551.76 244.086 551.76C242.98 551.76 241.966 552.007 241.046 552.5C240.14 552.98 239.413 553.707 238.866 554.68C238.333 555.653 238.066 556.867 238.066 558.32C238.066 559.76 238.333 560.987 238.866 562C239.4 563 240.12 563.767 241.026 564.3C241.946 564.82 242.966 565.08 244.086 565.08C245.273 565.08 246.24 564.9 246.986 564.54C247.746 564.167 248.32 563.673 248.706 563.06C249.093 562.433 249.313 561.753 249.366 561.02H254.606C254.606 562.007 254.38 563 253.926 564C253.473 564.987 252.806 565.893 251.926 566.72C251.046 567.547 249.953 568.207 248.646 568.7C247.353 569.193 245.853 569.44 244.146 569.44ZM268.999 569.42C266.759 569.42 264.785 568.953 263.079 568.02C261.372 567.073 260.032 565.767 259.059 564.1C258.099 562.433 257.619 560.527 257.619 558.38C257.619 556.22 258.099 554.32 259.059 552.68C260.032 551.027 261.372 549.733 263.079 548.8C264.785 547.867 266.759 547.4 268.999 547.4C271.239 547.4 273.212 547.867 274.919 548.8C276.625 549.733 277.959 551.027 278.919 552.68C279.892 554.32 280.379 556.22 280.379 558.38C280.379 560.527 279.892 562.433 278.919 564.1C277.959 565.767 276.625 567.073 274.919 568.02C273.212 568.953 271.239 569.42 268.999 569.42ZM268.999 565.12C270.212 565.12 271.272 564.84 272.179 564.28C273.085 563.72 273.792 562.94 274.299 561.94C274.805 560.927 275.059 559.74 275.059 558.38C275.059 557.02 274.805 555.847 274.299 554.86C273.792 553.86 273.085 553.087 272.179 552.54C271.272 551.993 270.212 551.72 268.999 551.72C267.799 551.72 266.739 551.993 265.819 552.54C264.912 553.087 264.205 553.86 263.699 554.86C263.192 555.847 262.939 557.02 262.939 558.38C262.939 559.74 263.192 560.927 263.699 561.94C264.205 562.94 264.912 563.72 265.819 564.28C266.739 564.84 267.799 565.12 268.999 565.12ZM291.971 569.4C290.464 569.4 289.211 569.147 288.211 568.64C287.224 568.133 286.444 567.467 285.871 566.64C285.311 565.813 284.911 564.9 284.671 563.9C284.444 562.9 284.331 561.9 284.331 560.9C284.331 560.407 284.331 559.893 284.331 559.36C284.331 558.827 284.331 558.287 284.331 557.74V547.76H289.611V556.92C289.611 557.4 289.611 557.86 289.611 558.3C289.611 558.74 289.611 559.153 289.611 559.54C289.611 560.487 289.724 561.367 289.951 562.18C290.177 562.98 290.591 563.627 291.191 564.12C291.804 564.613 292.664 564.86 293.771 564.86C294.824 564.86 295.731 564.553 296.491 563.94C297.251 563.313 297.837 562.527 298.251 561.58C298.677 560.633 298.891 559.673 298.891 558.7L300.691 559.9C300.691 561.193 300.491 562.413 300.091 563.56C299.691 564.693 299.111 565.7 298.351 566.58C297.591 567.46 296.671 568.153 295.591 568.66C294.524 569.153 293.317 569.4 291.971 569.4ZM298.891 569V547.76H304.151V569H298.891ZM323.833 569V559.58C323.833 559.047 323.833 558.58 323.833 558.18C323.833 557.767 323.833 557.393 323.833 557.06C323.833 556.1 323.693 555.24 323.413 554.48C323.147 553.707 322.68 553.1 322.013 552.66C321.36 552.22 320.453 552 319.293 552C318.28 552 317.38 552.247 316.593 552.74C315.807 553.22 315.187 553.887 314.733 554.74C314.293 555.58 314.073 556.553 314.073 557.66L312.293 556.56C312.293 554.787 312.693 553.213 313.493 551.84C314.307 550.453 315.393 549.367 316.753 548.58C318.113 547.793 319.62 547.4 321.273 547.4C322.98 547.4 324.413 547.733 325.573 548.4C326.747 549.067 327.627 550.013 328.213 551.24C328.813 552.467 329.113 553.907 329.113 555.56C329.113 556.2 329.113 556.92 329.113 557.72C329.113 558.52 329.113 559.307 329.113 560.08V569H323.833ZM308.813 569V547.76H314.073V569H308.813ZM343.017 569.4C342.257 569.4 341.484 569.327 340.697 569.18C339.911 569.033 339.191 568.76 338.537 568.36C337.884 567.96 337.357 567.373 336.957 566.6C336.557 565.827 336.357 564.807 336.357 563.54C336.357 563.247 336.357 562.953 336.357 562.66C336.357 562.353 336.357 562.04 336.357 561.72V551.96H331.337V547.76H333.377C334.071 547.76 334.617 547.733 335.017 547.68C335.417 547.613 335.711 547.467 335.897 547.24C336.084 547.013 336.204 546.66 336.257 546.18C336.324 545.687 336.357 545.007 336.357 544.14V540.76H341.637V547.76H347.957V551.96H341.637V560.48C341.637 560.733 341.637 560.987 341.637 561.24C341.637 561.48 341.637 561.713 341.637 561.94C341.637 562.927 341.757 563.72 341.997 564.32C342.237 564.92 342.804 565.22 343.697 565.22C344.124 565.22 344.524 565.18 344.897 565.1C345.284 565.02 345.571 564.94 345.757 564.86V568.98C345.504 569.073 345.137 569.167 344.657 569.26C344.177 569.353 343.631 569.4 343.017 569.4ZM351.049 539.74V535.88C352.702 535.88 354.176 536.093 355.469 536.52C356.776 536.933 357.802 537.613 358.549 538.56C359.309 539.507 359.689 540.767 359.689 542.34C359.689 543.02 359.689 543.707 359.689 544.4C359.689 545.093 359.689 545.793 359.689 546.5C359.689 547.207 359.689 547.913 359.689 548.62C359.689 549.327 359.689 550.033 359.689 550.74C359.689 551.7 359.789 552.48 359.989 553.08C360.189 553.68 360.529 554.153 361.009 554.5C361.502 554.847 362.176 555.113 363.029 555.3V558.6C362.176 558.787 361.502 559.053 361.009 559.4C360.529 559.747 360.189 560.22 359.989 560.82C359.789 561.42 359.689 562.2 359.689 563.16V572.16C359.689 573.733 359.309 574.967 358.549 575.86C357.802 576.767 356.776 577.407 355.469 577.78C354.176 578.153 352.702 578.34 351.049 578.34V574.48C352.249 574.48 353.162 574.193 353.789 573.62C354.429 573.047 354.749 572.047 354.749 570.62V561.84C354.749 560.653 354.969 559.713 355.409 559.02C355.862 558.313 356.442 557.793 357.149 557.46C357.856 557.113 358.609 556.9 359.409 556.82V557.06C358.609 556.967 357.856 556.753 357.149 556.42C356.442 556.087 355.862 555.573 355.409 554.88C354.969 554.173 354.749 553.233 354.749 552.06C354.749 551.313 354.749 550.573 354.749 549.84C354.749 549.107 354.749 548.373 354.749 547.64C354.749 547.027 354.749 546.413 354.749 545.8C354.749 545.173 354.749 544.547 354.749 543.92C354.749 542.493 354.429 541.44 353.789 540.76C353.162 540.08 352.249 539.74 351.049 539.74Z" fill="#2A3751"/>
<path d="M919 400V450" stroke="#2A3751" stroke-width="6" stroke-linecap="round" stroke-linejoin="round"/>
<rect x="723" y="462" width="391" height="88" rx="44" fill="#FFE0E8"/>
<rect x="723" y="462" width="391" height="88" rx="44" stroke="#B21F70" stroke-width="6"/>
<path d="M783.136 491.592C782.176 491.592 781.445 491.864 780.944 492.408C780.442 492.952 780.192 493.795 780.192 494.936V501.448C780.192 502.387 780.01 503.139 779.648 503.704C779.296 504.259 778.832 504.669 778.256 504.936C777.69 505.203 777.093 505.373 776.464 505.448V505.256C777.093 505.32 777.69 505.491 778.256 505.768C778.832 506.035 779.296 506.451 779.648 507.016C780.01 507.571 780.192 508.323 780.192 509.272C780.192 509.805 780.192 510.424 780.192 511.128C780.192 511.821 780.192 512.531 780.192 513.256C780.192 513.811 780.192 514.355 780.192 514.888C780.192 515.411 780.192 515.88 780.192 516.296C780.192 517.437 780.442 518.237 780.944 518.696C781.445 519.155 782.176 519.384 783.136 519.384V522.472C781.813 522.472 780.629 522.323 779.584 522.024C778.549 521.725 777.733 521.213 777.136 520.488C776.538 519.773 776.24 518.787 776.24 517.528C776.24 517.069 776.24 516.541 776.24 515.944C776.24 515.357 776.24 514.755 776.24 514.136C776.24 513.443 776.24 512.765 776.24 512.104C776.24 511.432 776.24 510.84 776.24 510.328C776.24 509.56 776.16 508.936 776 508.456C775.84 507.976 775.562 507.597 775.168 507.32C774.784 507.043 774.245 506.829 773.552 506.68V504.04C774.245 503.891 774.784 503.677 775.168 503.4C775.562 503.123 775.84 502.744 776 502.264C776.16 501.784 776.24 501.16 776.24 500.392V493.672C776.24 492.413 776.538 491.405 777.136 490.648C777.733 489.891 778.549 489.347 779.584 489.016C780.629 488.675 781.813 488.504 783.136 488.504V491.592ZM809.933 513.208C809.186 513.624 808.215 513.992 807.021 514.312C805.837 514.621 804.535 514.861 803.117 515.032C801.698 515.203 800.253 515.288 798.781 515.288C796.189 515.288 793.933 514.872 792.013 514.04C790.103 513.208 788.631 511.997 787.597 510.408C786.562 508.819 786.045 506.877 786.045 504.584C786.045 502.621 786.429 500.819 787.197 499.176C787.975 497.533 789.063 496.109 790.461 494.904C791.869 493.699 793.522 492.765 795.421 492.104C797.319 491.443 799.383 491.112 801.613 491.112C803.629 491.112 805.399 491.373 806.925 491.896C808.461 492.419 809.741 493.133 810.765 494.04C811.799 494.947 812.578 495.987 813.101 497.16C813.623 498.323 813.885 499.549 813.885 500.84C813.885 502.141 813.661 503.357 813.213 504.488C812.775 505.619 812.146 506.611 811.325 507.464C810.503 508.307 809.517 508.968 808.365 509.448C807.213 509.917 805.922 510.152 804.493 510.152C804.066 510.152 803.634 510.104 803.197 510.008C802.759 509.912 802.397 509.736 802.109 509.48C801.821 509.224 801.666 508.861 801.645 508.392C801.645 508.381 801.645 508.365 801.645 508.344C801.645 508.323 801.645 508.307 801.645 508.296C801.41 508.808 800.978 509.229 800.349 509.56C799.73 509.88 798.967 510.04 798.061 510.04C796.909 510.04 795.959 509.805 795.213 509.336C794.466 508.867 793.911 508.221 793.549 507.4C793.186 506.579 793.005 505.635 793.005 504.568C793.005 503.032 793.314 501.667 793.933 500.472C794.562 499.277 795.421 498.333 796.509 497.64C797.597 496.947 798.839 496.6 800.237 496.6C801.133 496.6 801.863 496.771 802.429 497.112C802.994 497.443 803.277 497.827 803.277 498.264L803.628 496.952H806.477L804.173 506.328C804.162 506.392 804.146 506.477 804.125 506.584C804.114 506.68 804.109 506.739 804.109 506.76C804.109 507.208 804.226 507.523 804.461 507.704C804.706 507.875 805.031 507.96 805.437 507.96C806.45 507.96 807.303 507.757 807.997 507.352C808.69 506.936 809.245 506.381 809.661 505.688C810.077 504.995 810.375 504.227 810.557 503.384C810.749 502.541 810.845 501.683 810.845 500.808C810.845 499.293 810.471 497.971 809.725 496.84C808.989 495.709 807.917 494.835 806.509 494.216C805.111 493.587 803.41 493.272 801.405 493.272C799.549 493.272 797.863 493.549 796.349 494.104C794.845 494.659 793.549 495.443 792.461 496.456C791.383 497.469 790.551 498.669 789.965 500.056C789.389 501.443 789.101 502.968 789.101 504.632C789.101 506.552 789.517 508.141 790.349 509.4C791.181 510.659 792.333 511.597 793.805 512.216C795.277 512.824 796.983 513.128 798.925 513.128C800.109 513.128 801.287 513.053 802.461 512.904C803.634 512.755 804.727 512.547 805.741 512.28C806.765 512.013 807.634 511.699 808.349 511.336L809.933 513.208ZM798.541 507.896C799.298 507.896 799.89 507.741 800.317 507.432C800.754 507.123 801.042 506.691 801.181 506.136C801.202 506.104 801.25 505.923 801.325 505.592C801.41 505.261 801.511 504.861 801.628 504.392C801.746 503.923 801.863 503.443 801.981 502.952C802.109 502.451 802.215 502.008 802.301 501.624C802.397 501.229 802.461 500.963 802.493 500.824C802.546 500.579 802.573 500.381 802.573 500.232C802.573 499.837 802.439 499.48 802.173 499.16C801.906 498.829 801.394 498.664 800.637 498.664C799.73 498.664 798.93 498.947 798.237 499.512C797.543 500.077 797.005 500.819 796.621 501.736C796.237 502.643 796.045 503.624 796.045 504.68C796.045 505.704 796.258 506.499 796.685 507.064C797.122 507.619 797.741 507.896 798.541 507.896ZM820.457 515V501.368H816.857V498.008H820.457V496.488C820.457 495.496 820.591 494.627 820.857 493.88C821.124 493.123 821.487 492.483 821.945 491.96C822.404 491.437 822.927 491.016 823.513 490.696C824.111 490.365 824.745 490.125 825.417 489.976C826.1 489.827 826.777 489.752 827.449 489.752C828.089 489.752 828.575 489.789 828.905 489.864C829.247 489.939 829.476 490.003 829.593 490.056V493.448C829.465 493.405 829.241 493.357 828.921 493.304C828.612 493.24 828.276 493.208 827.913 493.208C827.263 493.208 826.724 493.304 826.297 493.496C825.871 493.677 825.54 493.933 825.305 494.264C825.071 494.595 824.905 494.979 824.809 495.416C824.713 495.843 824.665 496.312 824.665 496.824V498.008H829.369V501.368H824.665V515H820.457ZM839.745 515.336C837.953 515.336 836.375 514.963 835.009 514.216C833.644 513.459 832.572 512.413 831.793 511.08C831.025 509.747 830.641 508.221 830.641 506.504C830.641 504.776 831.025 503.256 831.793 501.944C832.572 500.621 833.644 499.587 835.009 498.84C836.375 498.093 837.953 497.72 839.745 497.72C841.537 497.72 843.116 498.093 844.481 498.84C845.847 499.587 846.913 500.621 847.681 501.944C848.46 503.256 848.849 504.776 848.849 506.504C848.849 508.221 848.46 509.747 847.681 511.08C846.913 512.413 845.847 513.459 844.481 514.216C843.116 514.963 841.537 515.336 839.745 515.336ZM839.745 511.896C840.716 511.896 841.564 511.672 842.289 511.224C843.015 510.776 843.58 510.152 843.985 509.352C844.391 508.541 844.593 507.592 844.593 506.504C844.593 505.416 844.391 504.477 843.985 503.688C843.58 502.888 843.015 502.269 842.289 501.832C841.564 501.395 840.716 501.176 839.745 501.176C838.785 501.176 837.937 501.395 837.201 501.832C836.476 502.269 835.911 502.888 835.505 503.688C835.1 504.477 834.897 505.416 834.897 506.504C834.897 507.592 835.1 508.541 835.505 509.352C835.911 510.152 836.476 510.776 837.201 511.224C837.937 511.672 838.785 511.896 839.745 511.896ZM852.331 515V498.008H856.539V503.656L855.563 503.112C855.669 502.376 855.867 501.683 856.155 501.032C856.443 500.371 856.827 499.795 857.307 499.304C857.787 498.803 858.368 498.413 859.051 498.136C859.733 497.859 860.512 497.72 861.387 497.72C862.08 497.72 862.624 497.773 863.019 497.88C863.424 497.976 863.675 498.056 863.771 498.12L863.003 501.976C862.896 501.901 862.677 501.811 862.347 501.704C862.027 501.587 861.595 501.528 861.051 501.528C860.187 501.528 859.461 501.677 858.875 501.976C858.299 502.264 857.84 502.659 857.499 503.16C857.157 503.651 856.912 504.195 856.763 504.792C856.613 505.379 856.539 505.965 856.539 506.552V515H852.331ZM874.425 522.472C874.158 522.269 873.742 521.907 873.177 521.384C872.622 520.872 872.014 520.173 871.353 519.288C870.691 518.403 870.051 517.309 869.433 516.008C868.825 514.717 868.318 513.203 867.913 511.464C867.518 509.725 867.321 507.741 867.321 505.512C867.321 503.272 867.518 501.283 867.913 499.544C868.318 497.795 868.825 496.275 869.433 494.984C870.051 493.683 870.691 492.589 871.353 491.704C872.014 490.819 872.622 490.12 873.177 489.608C873.742 489.085 874.158 488.733 874.425 488.552L876.649 490.872C876.318 491.139 875.843 491.613 875.225 492.296C874.606 492.968 873.971 493.891 873.321 495.064C872.681 496.227 872.137 497.672 871.689 499.4C871.241 501.117 871.017 503.155 871.017 505.512C871.017 507.869 871.241 509.907 871.689 511.624C872.137 513.341 872.681 514.781 873.321 515.944C873.971 517.117 874.606 518.04 875.225 518.712C875.843 519.395 876.318 519.875 876.649 520.152L874.425 522.472ZM888.137 515.352C886.345 515.352 884.761 514.984 883.385 514.248C882.009 513.512 880.932 512.477 880.153 511.144C879.374 509.811 878.985 508.248 878.985 506.456C878.985 504.675 879.374 503.128 880.153 501.816C880.932 500.504 882.009 499.496 883.385 498.792C884.761 498.077 886.345 497.72 888.137 497.72C889.481 497.72 890.67 497.917 891.705 498.312C892.74 498.707 893.609 499.235 894.313 499.896C895.028 500.547 895.572 501.267 895.945 502.056C896.318 502.835 896.505 503.613 896.505 504.392C896.505 504.413 896.505 504.435 896.505 504.456C896.505 504.477 896.505 504.499 896.505 504.52H892.329C892.329 504.467 892.324 504.408 892.313 504.344C892.302 504.28 892.292 504.216 892.281 504.152C892.196 503.608 891.977 503.117 891.625 502.68C891.273 502.232 890.804 501.875 890.217 501.608C889.63 501.341 888.921 501.208 888.089 501.208C887.204 501.208 886.393 501.405 885.657 501.8C884.932 502.184 884.35 502.765 883.913 503.544C883.486 504.323 883.273 505.293 883.273 506.456C883.273 507.608 883.486 508.589 883.913 509.4C884.34 510.2 884.916 510.813 885.641 511.24C886.377 511.656 887.193 511.864 888.089 511.864C889.038 511.864 889.812 511.72 890.409 511.432C891.017 511.133 891.476 510.739 891.785 510.248C892.094 509.747 892.27 509.203 892.313 508.616H896.505C896.505 509.405 896.324 510.2 895.961 511C895.598 511.789 895.065 512.515 894.361 513.176C893.657 513.837 892.782 514.365 891.737 514.76C890.702 515.155 889.502 515.352 888.137 515.352ZM908.339 515.336C906.547 515.336 904.968 514.963 903.603 514.216C902.238 513.459 901.166 512.413 900.387 511.08C899.619 509.747 899.235 508.221 899.235 506.504C899.235 504.776 899.619 503.256 900.387 501.944C901.166 500.621 902.238 499.587 903.603 498.84C904.968 498.093 906.547 497.72 908.339 497.72C910.131 497.72 911.71 498.093 913.075 498.84C914.44 499.587 915.507 500.621 916.275 501.944C917.054 503.256 917.443 504.776 917.443 506.504C917.443 508.221 917.054 509.747 916.275 511.08C915.507 512.413 914.44 513.459 913.075 514.216C911.71 514.963 910.131 515.336 908.339 515.336ZM908.339 511.896C909.31 511.896 910.158 511.672 910.883 511.224C911.608 510.776 912.174 510.152 912.579 509.352C912.984 508.541 913.187 507.592 913.187 506.504C913.187 505.416 912.984 504.477 912.579 503.688C912.174 502.888 911.608 502.269 910.883 501.832C910.158 501.395 909.31 501.176 908.339 501.176C907.379 501.176 906.531 501.395 905.795 501.832C905.07 502.269 904.504 502.888 904.099 503.688C903.694 504.477 903.491 505.416 903.491 506.504C903.491 507.592 903.694 508.541 904.099 509.352C904.504 510.152 905.07 510.776 905.795 511.224C906.531 511.672 907.379 511.896 908.339 511.896ZM927.036 515.32C925.831 515.32 924.829 515.117 924.029 514.712C923.239 514.307 922.615 513.773 922.157 513.112C921.709 512.451 921.389 511.72 921.197 510.92C921.015 510.12 920.924 509.32 920.924 508.52C920.924 508.125 920.924 507.715 920.924 507.288C920.924 506.861 920.924 506.429 920.924 505.992V498.008H925.149V505.336C925.149 505.72 925.149 506.088 925.149 506.44C925.149 506.792 925.149 507.123 925.149 507.432C925.149 508.189 925.239 508.893 925.421 509.544C925.602 510.184 925.933 510.701 926.413 511.096C926.903 511.491 927.591 511.688 928.477 511.688C929.319 511.688 930.045 511.443 930.653 510.952C931.261 510.451 931.73 509.821 932.061 509.064C932.402 508.307 932.573 507.539 932.573 506.76L934.013 507.72C934.013 508.755 933.853 509.731 933.533 510.648C933.213 511.555 932.749 512.36 932.141 513.064C931.533 513.768 930.797 514.323 929.933 514.728C929.079 515.123 928.114 515.32 927.036 515.32ZM932.573 515V498.008H936.781V515H932.573ZM952.847 515V507.464C952.847 507.037 952.847 506.664 952.847 506.344C952.847 506.013 952.847 505.715 952.847 505.448C952.847 504.68 952.735 503.992 952.511 503.384C952.297 502.765 951.924 502.28 951.391 501.928C950.868 501.576 950.143 501.4 949.215 501.4C948.404 501.4 947.684 501.597 947.055 501.992C946.425 502.376 945.929 502.909 945.567 503.592C945.215 504.264 945.039 505.043 945.039 505.928L943.615 505.048C943.615 503.629 943.935 502.371 944.575 501.272C945.225 500.163 946.095 499.293 947.183 498.664C948.271 498.035 949.476 497.72 950.799 497.72C952.164 497.72 953.311 497.987 954.239 498.52C955.177 499.053 955.881 499.811 956.351 500.792C956.831 501.773 957.071 502.925 957.071 504.248C957.071 504.76 957.071 505.336 957.071 505.976C957.071 506.616 957.071 507.245 957.071 507.864V515H952.847ZM940.831 515V498.008H945.039V515H940.831ZM968.514 515.32C967.906 515.32 967.287 515.261 966.658 515.144C966.028 515.027 965.452 514.808 964.93 514.488C964.407 514.168 963.986 513.699 963.666 513.08C963.346 512.461 963.186 511.645 963.186 510.632C963.186 510.397 963.186 510.163 963.186 509.928C963.186 509.683 963.186 509.432 963.186 509.176V501.368H959.17V498.008H960.802C961.356 498.008 961.794 497.987 962.114 497.944C962.434 497.891 962.668 497.773 962.818 497.592C962.967 497.411 963.063 497.128 963.106 496.744C963.159 496.349 963.186 495.805 963.186 495.112V492.408H967.41V498.008H972.466V501.368H967.41V508.184C967.41 508.387 967.41 508.589 967.41 508.792C967.41 508.984 967.41 509.171 967.41 509.352C967.41 510.141 967.506 510.776 967.698 511.256C967.89 511.736 968.343 511.976 969.058 511.976C969.399 511.976 969.719 511.944 970.018 511.88C970.327 511.816 970.556 511.752 970.706 511.688V514.984C970.503 515.059 970.21 515.133 969.826 515.208C969.442 515.283 969.004 515.32 968.514 515.32ZM977.019 522.472L974.811 520.152C975.142 519.875 975.611 519.395 976.219 518.712C976.838 518.04 977.467 517.117 978.107 515.944C978.758 514.781 979.307 513.341 979.755 511.624C980.203 509.907 980.427 507.869 980.427 505.512C980.427 503.155 980.203 501.117 979.755 499.4C979.307 497.672 978.758 496.227 978.107 495.064C977.467 493.891 976.838 492.968 976.219 492.296C975.611 491.613 975.142 491.139 974.811 490.872L977.019 488.552C977.286 488.733 977.697 489.085 978.251 489.608C978.817 490.12 979.43 490.819 980.091 491.704C980.753 492.589 981.387 493.683 981.995 494.984C982.614 496.275 983.121 497.795 983.515 499.544C983.921 501.283 984.123 503.272 984.123 505.512C984.123 507.741 983.921 509.725 983.515 511.464C983.121 513.203 982.614 514.717 981.995 516.008C981.387 517.309 980.753 518.403 980.091 519.288C979.43 520.173 978.817 520.872 978.251 521.384C977.697 521.907 977.286 522.269 977.019 522.472ZM1010.34 514.296L999.847 507.944V505.064L1010.34 498.696V502.232L1001.53 506.968V506.04L1010.34 510.744V514.296ZM1021.65 489.992V515H1017.51V489.992H1021.65ZM1025.88 515V498.008H1030.04V515H1025.88ZM1027.97 494.872C1027.29 494.872 1026.69 494.691 1026.18 494.328C1025.68 493.955 1025.43 493.437 1025.43 492.776C1025.43 492.125 1025.68 491.619 1026.18 491.256C1026.69 490.893 1027.29 490.712 1027.97 490.712C1028.64 490.712 1029.23 490.893 1029.73 491.256C1030.23 491.619 1030.48 492.125 1030.48 492.776C1030.48 493.437 1030.23 493.955 1029.73 494.328C1029.23 494.691 1028.64 494.872 1027.97 494.872ZM1036.89 498.696L1047.37 505.064V507.944L1036.89 514.296V510.744L1045.71 506.04V506.968L1036.89 502.232V498.696ZM1053.92 491.592V488.504C1055.24 488.504 1056.42 488.675 1057.45 489.016C1058.5 489.347 1059.32 489.891 1059.92 490.648C1060.52 491.405 1060.83 492.413 1060.83 493.672C1060.83 494.216 1060.83 494.765 1060.83 495.32C1060.83 495.875 1060.83 496.435 1060.83 497C1060.83 497.565 1060.83 498.131 1060.83 498.696C1060.83 499.261 1060.83 499.827 1060.83 500.392C1060.83 501.16 1060.91 501.784 1061.07 502.264C1061.23 502.744 1061.5 503.123 1061.88 503.4C1062.28 503.677 1062.82 503.891 1063.5 504.04V506.68C1062.82 506.829 1062.28 507.043 1061.88 507.32C1061.5 507.597 1061.23 507.976 1061.07 508.456C1060.91 508.936 1060.83 509.56 1060.83 510.328V517.528C1060.83 518.787 1060.52 519.773 1059.92 520.488C1059.32 521.213 1058.5 521.725 1057.45 522.024C1056.42 522.323 1055.24 522.472 1053.92 522.472V519.384C1054.88 519.384 1055.61 519.155 1056.11 518.696C1056.62 518.237 1056.88 517.437 1056.88 516.296V509.272C1056.88 508.323 1057.05 507.571 1057.4 507.016C1057.77 506.451 1058.23 506.035 1058.8 505.768C1059.36 505.491 1059.96 505.32 1060.6 505.256V505.448C1059.96 505.373 1059.36 505.203 1058.8 504.936C1058.23 504.669 1057.77 504.259 1057.4 503.704C1057.05 503.139 1056.88 502.387 1056.88 501.448C1056.88 500.851 1056.88 500.259 1056.88 499.672C1056.88 499.085 1056.88 498.499 1056.88 497.912C1056.88 497.421 1056.88 496.931 1056.88 496.44C1056.88 495.939 1056.88 495.437 1056.88 494.936C1056.88 493.795 1056.62 492.952 1056.11 492.408C1055.61 491.864 1054.88 491.592 1053.92 491.592Z" fill="#DA2F84"/>
<path d="M919 570V620" stroke="#2A3751" stroke-width="6" stroke-linecap="round" stroke-linejoin="round"/>
<rect x="781" y="632" width="277" height="144" rx="16" fill="#EDF1F7"/>
<rect x="781" y="632" width="277" height="144" rx="16" stroke="#2A3751" stroke-width="6"/>
<path d="M831.81 691V661.5H837.09V689.42L834.71 686.64H848.27V691H831.81ZM851.995 691V669.76H857.195V691H851.995ZM854.615 665.84C853.761 665.84 853.015 665.613 852.375 665.16C851.748 664.693 851.435 664.047 851.435 663.22C851.435 662.407 851.748 661.773 852.375 661.32C853.015 660.867 853.761 660.64 854.615 660.64C855.455 660.64 856.188 660.867 856.815 661.32C857.441 661.773 857.755 662.407 857.755 663.22C857.755 664.047 857.441 664.693 856.815 665.16C856.188 665.613 855.455 665.84 854.615 665.84ZM870.587 691.44C869.321 691.44 868.114 691.3 866.967 691.02C865.834 690.74 864.821 690.32 863.927 689.76C863.047 689.2 862.347 688.507 861.827 687.68C861.321 686.84 861.067 685.873 861.067 684.78C861.067 684.7 861.067 684.62 861.067 684.54C861.067 684.46 861.067 684.387 861.067 684.32H866.307C866.307 684.387 866.307 684.447 866.307 684.5C866.307 684.54 866.307 684.6 866.307 684.68C866.307 685.547 866.701 686.2 867.487 686.64C868.287 687.067 869.374 687.28 870.747 687.28C871.494 687.28 872.194 687.2 872.847 687.04C873.514 686.88 874.047 686.633 874.447 686.3C874.861 685.967 875.067 685.54 875.067 685.02C875.067 684.18 874.634 683.58 873.767 683.22C872.914 682.86 871.567 682.533 869.727 682.24C868.714 682.067 867.714 681.833 866.727 681.54C865.741 681.247 864.841 680.853 864.027 680.36C863.227 679.867 862.581 679.253 862.087 678.52C861.607 677.787 861.367 676.893 861.367 675.84C861.367 674.44 861.781 673.267 862.607 672.32C863.447 671.36 864.567 670.633 865.967 670.14C867.381 669.647 868.934 669.4 870.627 669.4C872.254 669.4 873.767 669.667 875.167 670.2C876.567 670.733 877.694 671.5 878.547 672.5C879.414 673.5 879.847 674.707 879.847 676.12C879.847 676.173 879.847 676.233 879.847 676.3C879.847 676.353 879.847 676.4 879.847 676.44H874.647C874.647 676.4 874.647 676.36 874.647 676.32C874.647 676.28 874.647 676.233 874.647 676.18C874.647 675.567 874.454 675.067 874.067 674.68C873.681 674.293 873.181 674.007 872.567 673.82C871.954 673.633 871.307 673.54 870.627 673.54C870.027 673.54 869.407 673.607 868.767 673.74C868.127 673.86 867.594 674.08 867.167 674.4C866.741 674.707 866.527 675.14 866.527 675.7C866.527 676.233 866.747 676.667 867.187 677C867.627 677.333 868.241 677.613 869.027 677.84C869.814 678.053 870.721 678.247 871.747 678.42C872.721 678.58 873.701 678.8 874.687 679.08C875.687 679.36 876.601 679.733 877.427 680.2C878.254 680.667 878.921 681.28 879.427 682.04C879.947 682.787 880.207 683.713 880.207 684.82C880.207 685.993 879.941 686.993 879.407 687.82C878.874 688.647 878.147 689.333 877.227 689.88C876.321 690.413 875.294 690.807 874.147 691.06C873.001 691.313 871.814 691.44 870.587 691.44ZM893.672 691.4C892.912 691.4 892.139 691.327 891.352 691.18C890.565 691.033 889.845 690.76 889.192 690.36C888.539 689.96 888.012 689.373 887.612 688.6C887.212 687.827 887.012 686.807 887.012 685.54C887.012 685.247 887.012 684.953 887.012 684.66C887.012 684.353 887.012 684.04 887.012 683.72V673.96H881.992V669.76H884.032C884.725 669.76 885.272 669.733 885.672 669.68C886.072 669.613 886.365 669.467 886.552 669.24C886.739 669.013 886.859 668.66 886.912 668.18C886.979 667.687 887.012 667.007 887.012 666.14V662.76H892.292V669.76H898.612V673.96H892.292V682.48C892.292 682.733 892.292 682.987 892.292 683.24C892.292 683.48 892.292 683.713 892.292 683.94C892.292 684.927 892.412 685.72 892.652 686.32C892.892 686.92 893.459 687.22 894.352 687.22C894.779 687.22 895.179 687.18 895.552 687.1C895.939 687.02 896.225 686.94 896.412 686.86V690.98C896.159 691.073 895.792 691.167 895.312 691.26C894.832 691.353 894.285 691.4 893.672 691.4ZM911.684 691V669.76H916.884V691H911.684ZM914.304 665.84C913.45 665.84 912.704 665.613 912.064 665.16C911.437 664.693 911.124 664.047 911.124 663.22C911.124 662.407 911.437 661.773 912.064 661.32C912.704 660.867 913.45 660.64 914.304 660.64C915.144 660.64 915.877 660.867 916.504 661.32C917.13 661.773 917.444 662.407 917.444 663.22C917.444 664.047 917.13 664.693 916.504 665.16C915.877 665.613 915.144 665.84 914.304 665.84ZM931.456 691.4C930.696 691.4 929.923 691.327 929.136 691.18C928.35 691.033 927.63 690.76 926.976 690.36C926.323 689.96 925.796 689.373 925.396 688.6C924.996 687.827 924.796 686.807 924.796 685.54C924.796 685.247 924.796 684.953 924.796 684.66C924.796 684.353 924.796 684.04 924.796 683.72V673.96H919.776V669.76H921.816C922.51 669.76 923.056 669.733 923.456 669.68C923.856 669.613 924.15 669.467 924.336 669.24C924.523 669.013 924.643 668.66 924.696 668.18C924.763 667.687 924.796 667.007 924.796 666.14V662.76H930.076V669.76H936.396V673.96H930.076V682.48C930.076 682.733 930.076 682.987 930.076 683.24C930.076 683.48 930.076 683.713 930.076 683.94C930.076 684.927 930.196 685.72 930.436 686.32C930.676 686.92 931.243 687.22 932.136 687.22C932.563 687.22 932.963 687.18 933.336 687.1C933.723 687.02 934.01 686.94 934.196 686.86V690.98C933.943 691.073 933.576 691.167 933.096 691.26C932.616 691.353 932.07 691.4 931.456 691.4ZM941.342 682.08V678.34H956.202L955.602 679.34C955.602 679.26 955.602 679.173 955.602 679.08C955.602 678.973 955.602 678.887 955.602 678.82C955.602 677.9 955.396 677.04 954.982 676.24C954.569 675.427 953.942 674.773 953.102 674.28C952.262 673.773 951.196 673.52 949.902 673.52C948.622 673.52 947.509 673.793 946.562 674.34C945.629 674.873 944.902 675.647 944.382 676.66C943.876 677.673 943.622 678.887 943.622 680.3C943.622 681.753 943.869 683.007 944.362 684.06C944.856 685.1 945.576 685.9 946.522 686.46C947.482 687.007 948.649 687.28 950.022 687.28C950.956 687.28 951.762 687.193 952.442 687.02C953.122 686.847 953.676 686.613 954.102 686.32C954.542 686.013 954.869 685.687 955.082 685.34C955.309 684.993 955.442 684.647 955.482 684.3H960.722C960.642 685.193 960.342 686.067 959.822 686.92C959.316 687.76 958.602 688.527 957.682 689.22C956.762 689.9 955.642 690.447 954.322 690.86C953.016 691.26 951.522 691.46 949.842 691.46C947.562 691.46 945.569 690.993 943.862 690.06C942.156 689.127 940.822 687.827 939.862 686.16C938.916 684.493 938.442 682.587 938.442 680.44C938.442 678.24 938.922 676.313 939.882 674.66C940.856 673.007 942.202 671.72 943.922 670.8C945.642 669.867 947.616 669.4 949.842 669.4C952.136 669.4 954.116 669.867 955.782 670.8C957.462 671.733 958.756 673.033 959.662 674.7C960.569 676.353 961.022 678.28 961.022 680.48C961.022 680.76 961.016 681.06 961.002 681.38C960.989 681.7 960.969 681.933 960.942 682.08H941.342ZM978.159 691V682.38C978.159 681.593 978.159 680.907 978.159 680.32C978.159 679.72 978.159 679.22 978.159 678.82C978.159 678.3 978.125 677.76 978.059 677.2C977.992 676.627 977.845 676.1 977.619 675.62C977.392 675.14 977.039 674.753 976.559 674.46C976.092 674.153 975.445 674 974.619 674C973.819 674 973.139 674.167 972.579 674.5C972.032 674.82 971.579 675.253 971.219 675.8C970.872 676.333 970.619 676.947 970.459 677.64C970.299 678.32 970.219 679.02 970.219 679.74L968.459 678.56C968.459 676.813 968.785 675.253 969.439 673.88C970.092 672.507 971.019 671.42 972.219 670.62C973.432 669.807 974.865 669.4 976.519 669.4C978.225 669.4 979.579 669.76 980.579 670.48C981.579 671.187 982.292 672.147 982.719 673.36C983.159 674.573 983.379 675.933 983.379 677.44C983.379 678 983.379 678.747 983.379 679.68C983.379 680.6 983.379 681.687 983.379 682.94V691H978.159ZM964.959 691V669.76H970.219V691H964.959ZM991.279 691V682.4C991.279 681.56 991.279 680.847 991.279 680.26C991.279 679.673 991.279 679.18 991.279 678.78C991.279 678.22 991.245 677.66 991.179 677.1C991.112 676.527 990.965 676.013 990.739 675.56C990.512 675.093 990.159 674.72 989.679 674.44C989.199 674.147 988.545 674 987.719 674C986.905 674 986.219 674.16 985.659 674.48C985.112 674.8 984.672 675.227 984.339 675.76C984.005 676.293 983.759 676.893 983.599 677.56C983.452 678.227 983.379 678.893 983.379 679.56L981.619 678.4C981.619 676.707 981.939 675.18 982.579 673.82C983.219 672.46 984.139 671.387 985.339 670.6C986.539 669.8 987.965 669.4 989.619 669.4C991.285 669.4 992.625 669.74 993.639 670.42C994.652 671.1 995.385 672.033 995.839 673.22C996.305 674.393 996.539 675.733 996.539 677.24C996.539 677.827 996.539 678.573 996.539 679.48C996.539 680.387 996.539 681.46 996.539 682.7V691H991.279ZM1004.16 691.56C1003.33 691.56 1002.63 691.273 1002.06 690.7C1001.49 690.127 1001.2 689.427 1001.2 688.6C1001.2 687.787 1001.49 687.093 1002.06 686.52C1002.63 685.933 1003.33 685.64 1004.16 685.64C1004.97 685.64 1005.67 685.933 1006.24 686.52C1006.83 687.093 1007.12 687.787 1007.12 688.6C1007.12 689.427 1006.83 690.127 1006.24 690.7C1005.67 691.273 1004.97 691.56 1004.16 691.56ZM1004.18 676.12C1003.35 676.12 1002.65 675.833 1002.08 675.26C1001.51 674.687 1001.22 673.987 1001.22 673.16C1001.22 672.347 1001.51 671.653 1002.08 671.08C1002.65 670.493 1003.35 670.2 1004.18 670.2C1004.99 670.2 1005.69 670.493 1006.26 671.08C1006.85 671.653 1007.14 672.347 1007.14 673.16C1007.14 673.987 1006.85 674.687 1006.26 675.26C1005.69 675.833 1004.99 676.12 1004.18 676.12ZM848.087 709.5H850.687V739H848.087V709.5ZM849.427 735.06C848.16 735.06 846.953 734.92 845.807 734.64C844.66 734.36 843.64 733.94 842.747 733.38C841.867 732.82 841.173 732.127 840.667 731.3C840.16 730.46 839.907 729.493 839.907 728.4C839.907 728.32 839.907 728.24 839.907 728.16C839.907 728.08 839.907 728.007 839.907 727.94H845.147C845.147 728.007 845.147 728.067 845.147 728.12C845.147 728.16 845.147 728.22 845.147 728.3C845.147 729.167 845.54 729.82 846.327 730.26C847.127 730.687 848.207 730.9 849.567 730.9C850.327 730.9 851.033 730.82 851.687 730.66C852.353 730.5 852.887 730.253 853.287 729.92C853.7 729.587 853.907 729.16 853.907 728.64C853.907 727.8 853.473 727.2 852.607 726.84C851.74 726.48 850.393 726.153 848.567 725.86C847.553 725.687 846.547 725.453 845.547 725.16C844.56 724.867 843.66 724.473 842.847 723.98C842.047 723.487 841.4 722.873 840.907 722.14C840.427 721.407 840.187 720.513 840.187 719.46C840.187 718.06 840.607 716.887 841.447 715.94C842.287 714.98 843.407 714.253 844.807 713.76C846.22 713.267 847.773 713.02 849.467 713.02C851.093 713.02 852.6 713.287 853.987 713.82C855.387 714.353 856.513 715.12 857.367 716.12C858.233 717.12 858.667 718.327 858.667 719.74C858.667 719.793 858.667 719.853 858.667 719.92C858.667 719.973 858.667 720.02 858.667 720.06H853.467C853.467 720.02 853.467 719.98 853.467 719.94C853.467 719.9 853.467 719.853 853.467 719.8C853.467 719.187 853.273 718.687 852.887 718.3C852.5 717.913 852 717.627 851.387 717.44C850.773 717.253 850.133 717.16 849.467 717.16C848.853 717.16 848.227 717.227 847.587 717.36C846.96 717.48 846.433 717.7 846.007 718.02C845.58 718.327 845.367 718.76 845.367 719.32C845.367 719.853 845.58 720.287 846.007 720.62C846.447 720.953 847.06 721.233 847.847 721.46C848.633 721.673 849.547 721.867 850.587 722.04C851.547 722.2 852.52 722.42 853.507 722.7C854.507 722.98 855.42 723.353 856.247 723.82C857.087 724.287 857.76 724.9 858.267 725.66C858.773 726.407 859.027 727.333 859.027 728.44C859.027 729.613 858.76 730.613 858.227 731.44C857.693 732.267 856.967 732.953 856.047 733.5C855.14 734.033 854.113 734.427 852.967 734.68C851.833 734.933 850.653 735.06 849.427 735.06ZM875.162 709.74C873.962 709.74 873.049 710.08 872.422 710.76C871.795 711.44 871.482 712.493 871.482 713.92V722.06C871.482 723.233 871.255 724.173 870.802 724.88C870.362 725.573 869.782 726.087 869.062 726.42C868.355 726.753 867.609 726.967 866.822 727.06V726.82C867.609 726.9 868.355 727.113 869.062 727.46C869.782 727.793 870.362 728.313 870.802 729.02C871.255 729.713 871.482 730.653 871.482 731.84C871.482 732.507 871.482 733.28 871.482 734.16C871.482 735.027 871.482 735.913 871.482 736.82C871.482 737.513 871.482 738.193 871.482 738.86C871.482 739.513 871.482 740.1 871.482 740.62C871.482 742.047 871.795 743.047 872.422 743.62C873.049 744.193 873.962 744.48 875.162 744.48V748.34C873.509 748.34 872.029 748.153 870.722 747.78C869.429 747.407 868.409 746.767 867.662 745.86C866.915 744.967 866.542 743.733 866.542 742.16C866.542 741.587 866.542 740.927 866.542 740.18C866.542 739.447 866.542 738.693 866.542 737.92C866.542 737.053 866.542 736.207 866.542 735.38C866.542 734.54 866.542 733.8 866.542 733.16C866.542 732.2 866.442 731.42 866.242 730.82C866.042 730.22 865.695 729.747 865.202 729.4C864.722 729.053 864.049 728.787 863.182 728.6V725.3C864.049 725.113 864.722 724.847 865.202 724.5C865.695 724.153 866.042 723.68 866.242 723.08C866.442 722.48 866.542 721.7 866.542 720.74V712.34C866.542 710.767 866.915 709.507 867.662 708.56C868.409 707.613 869.429 706.933 870.722 706.52C872.029 706.093 873.509 705.88 875.162 705.88V709.74ZM879.398 739V717.76H884.598V739H879.398ZM882.018 713.84C881.164 713.84 880.418 713.613 879.778 713.16C879.151 712.693 878.838 712.047 878.838 711.22C878.838 710.407 879.151 709.773 879.778 709.32C880.418 708.867 881.164 708.64 882.018 708.64C882.858 708.64 883.591 708.867 884.218 709.32C884.844 709.773 885.158 710.407 885.158 711.22C885.158 712.047 884.844 712.693 884.218 713.16C883.591 713.613 882.858 713.84 882.018 713.84ZM904.43 739V729.58C904.43 729.047 904.43 728.58 904.43 728.18C904.43 727.767 904.43 727.393 904.43 727.06C904.43 726.1 904.29 725.24 904.01 724.48C903.744 723.707 903.277 723.1 902.61 722.66C901.957 722.22 901.05 722 899.89 722C898.877 722 897.977 722.247 897.19 722.74C896.404 723.22 895.784 723.887 895.33 724.74C894.89 725.58 894.67 726.553 894.67 727.66L892.89 726.56C892.89 724.787 893.29 723.213 894.09 721.84C894.904 720.453 895.99 719.367 897.35 718.58C898.71 717.793 900.217 717.4 901.87 717.4C903.577 717.4 905.01 717.733 906.17 718.4C907.344 719.067 908.224 720.013 908.81 721.24C909.41 722.467 909.71 723.907 909.71 725.56C909.71 726.2 909.71 726.92 909.71 727.72C909.71 728.52 909.71 729.307 909.71 730.08V739H904.43ZM889.41 739V717.76H894.67V739H889.41ZM923.182 739.44C921.435 739.44 919.815 739.02 918.322 738.18C916.842 737.327 915.655 736.073 914.762 734.42C913.869 732.767 913.422 730.733 913.422 728.32C913.422 725.973 913.875 723.987 914.782 722.36C915.702 720.733 916.902 719.5 918.382 718.66C919.875 717.82 921.475 717.4 923.182 717.4C924.849 717.4 926.389 717.813 927.802 718.64C929.215 719.453 930.349 720.587 931.202 722.04C932.055 723.493 932.482 725.16 932.482 727.04C932.482 727.093 932.482 727.147 932.482 727.2C932.482 727.253 932.482 727.307 932.482 727.36L929.882 727.42C929.882 727.38 929.882 727.34 929.882 727.3C929.882 727.247 929.882 727.2 929.882 727.16C929.882 726.107 929.615 725.187 929.082 724.4C928.562 723.613 927.882 723 927.042 722.56C926.215 722.107 925.335 721.88 924.402 721.88C922.869 721.88 921.562 722.4 920.482 723.44C919.402 724.467 918.862 726.093 918.862 728.32C918.862 730.533 919.402 732.167 920.482 733.22C921.562 734.273 922.869 734.8 924.402 734.8C925.375 734.8 926.275 734.567 927.102 734.1C927.929 733.633 928.595 732.993 929.102 732.18C929.622 731.353 929.882 730.407 929.882 729.34L932.482 729.46C932.482 731.327 932.062 733.02 931.222 734.54C930.395 736.047 929.282 737.24 927.882 738.12C926.482 739 924.915 739.44 923.182 739.44ZM929.882 739V707.74H935.162V739H929.882ZM941.898 730.08V726.34H956.758L956.158 727.34C956.158 727.26 956.158 727.173 956.158 727.08C956.158 726.973 956.158 726.887 956.158 726.82C956.158 725.9 955.952 725.04 955.538 724.24C955.125 723.427 954.498 722.773 953.658 722.28C952.818 721.773 951.752 721.52 950.458 721.52C949.178 721.52 948.065 721.793 947.118 722.34C946.185 722.873 945.458 723.647 944.938 724.66C944.432 725.673 944.178 726.887 944.178 728.3C944.178 729.753 944.425 731.007 944.918 732.06C945.412 733.1 946.132 733.9 947.078 734.46C948.038 735.007 949.205 735.28 950.578 735.28C951.512 735.28 952.318 735.193 952.998 735.02C953.678 734.847 954.232 734.613 954.658 734.32C955.098 734.013 955.425 733.687 955.638 733.34C955.865 732.993 955.998 732.647 956.038 732.3H961.278C961.198 733.193 960.898 734.067 960.378 734.92C959.872 735.76 959.158 736.527 958.238 737.22C957.318 737.9 956.198 738.447 954.878 738.86C953.572 739.26 952.078 739.46 950.398 739.46C948.118 739.46 946.125 738.993 944.418 738.06C942.712 737.127 941.378 735.827 940.418 734.16C939.472 732.493 938.998 730.587 938.998 728.44C938.998 726.24 939.478 724.313 940.438 722.66C941.412 721.007 942.758 719.72 944.478 718.8C946.198 717.867 948.172 717.4 950.398 717.4C952.692 717.4 954.672 717.867 956.338 718.8C958.018 719.733 959.312 721.033 960.218 722.7C961.125 724.353 961.578 726.28 961.578 728.48C961.578 728.76 961.572 729.06 961.558 729.38C961.545 729.7 961.525 729.933 961.498 730.08H941.898ZM971.109 727.42L971.069 729.82L962.409 717.76H968.169L974.689 727.22L971.529 727.2L977.929 717.76H983.569L975.269 729.14L975.129 726.94L983.689 739H977.929L971.309 729.56L974.869 729.24L967.729 739H962.089L971.109 727.42ZM986.198 709.74V705.88C987.851 705.88 989.324 706.093 990.618 706.52C991.924 706.933 992.951 707.613 993.698 708.56C994.458 709.507 994.838 710.767 994.838 712.34C994.838 713.02 994.838 713.707 994.838 714.4C994.838 715.093 994.838 715.793 994.838 716.5C994.838 717.207 994.838 717.913 994.838 718.62C994.838 719.327 994.838 720.033 994.838 720.74C994.838 721.7 994.938 722.48 995.138 723.08C995.338 723.68 995.678 724.153 996.158 724.5C996.651 724.847 997.324 725.113 998.178 725.3V728.6C997.324 728.787 996.651 729.053 996.158 729.4C995.678 729.747 995.338 730.22 995.138 730.82C994.938 731.42 994.838 732.2 994.838 733.16V742.16C994.838 743.733 994.458 744.967 993.698 745.86C992.951 746.767 991.924 747.407 990.618 747.78C989.324 748.153 987.851 748.34 986.198 748.34V744.48C987.398 744.48 988.311 744.193 988.938 743.62C989.578 743.047 989.898 742.047 989.898 740.62V731.84C989.898 730.653 990.118 729.713 990.558 729.02C991.011 728.313 991.591 727.793 992.298 727.46C993.004 727.113 993.758 726.9 994.558 726.82V727.06C993.758 726.967 993.004 726.753 992.298 726.42C991.591 726.087 991.011 725.573 990.558 724.88C990.118 724.173 989.898 723.233 989.898 722.06C989.898 721.313 989.898 720.573 989.898 719.84C989.898 719.107 989.898 718.373 989.898 717.64C989.898 717.027 989.898 716.413 989.898 715.8C989.898 715.173 989.898 714.547 989.898 713.92C989.898 712.493 989.578 711.44 988.938 710.76C988.311 710.08 987.398 709.74 986.198 709.74Z" fill="#2A3751"/>
<path d="M591 172V222" stroke="#2A3751" stroke-width="6" stroke-linecap="round" stroke-linejoin="round"/>
<path d="M618 234H609C595.4 234 591.333 226 591 222C590.667 226 586.6 234 573 234H564" stroke="#2A3751" stroke-width="6" stroke-linecap="round" stroke-linejoin="round"/>
<path d="M916 274V274C916 251.909 898.091 234 876 234L606 234" stroke="#2A3751" stroke-width="6" stroke-linecap="round" stroke-linejoin="round"/>
<path d="M274 274V274C274 251.909 291.909 234 314 234H564" stroke="#2A3751" stroke-width="6" stroke-linecap="round" stroke-linejoin="round"/>
<rect x="470" y="64" width="242" height="96" rx="48" fill="#FFF5CB"/>
<rect x="470" y="64" width="242" height="96" rx="48" stroke="#D17805" stroke-width="6"/>
<path d="M537.409 122.12L524.289 114.18V110.58L537.409 102.62V107.04L526.389 112.96V111.8L537.409 117.68V122.12ZM558.866 123V114.38C558.866 113.593 558.866 112.907 558.866 112.32C558.866 111.72 558.866 111.22 558.866 110.82C558.866 110.3 558.832 109.76 558.766 109.2C558.699 108.627 558.552 108.1 558.326 107.62C558.099 107.14 557.746 106.753 557.266 106.46C556.799 106.153 556.152 106 555.326 106C554.526 106 553.846 106.167 553.286 106.5C552.739 106.82 552.286 107.253 551.926 107.8C551.579 108.333 551.326 108.947 551.166 109.64C551.006 110.32 550.926 111.02 550.926 111.74L549.166 110.56C549.166 108.813 549.492 107.253 550.146 105.88C550.799 104.507 551.726 103.42 552.926 102.62C554.139 101.807 555.572 101.4 557.226 101.4C558.932 101.4 560.286 101.76 561.286 102.48C562.286 103.187 562.999 104.147 563.426 105.36C563.866 106.573 564.086 107.933 564.086 109.44C564.086 110 564.086 110.747 564.086 111.68C564.086 112.6 564.086 113.687 564.086 114.94V123H558.866ZM545.666 123V101.76H550.926V123H545.666ZM571.986 123V114.4C571.986 113.56 571.986 112.847 571.986 112.26C571.986 111.673 571.986 111.18 571.986 110.78C571.986 110.22 571.952 109.66 571.886 109.1C571.819 108.527 571.672 108.013 571.446 107.56C571.219 107.093 570.866 106.72 570.386 106.44C569.906 106.147 569.252 106 568.426 106C567.612 106 566.926 106.16 566.366 106.48C565.819 106.8 565.379 107.227 565.046 107.76C564.712 108.293 564.466 108.893 564.306 109.56C564.159 110.227 564.086 110.893 564.086 111.56L562.326 110.4C562.326 108.707 562.646 107.18 563.286 105.82C563.926 104.46 564.846 103.387 566.046 102.6C567.246 101.8 568.672 101.4 570.326 101.4C571.992 101.4 573.332 101.74 574.346 102.42C575.359 103.1 576.092 104.033 576.546 105.22C577.012 106.393 577.246 107.733 577.246 109.24C577.246 109.827 577.246 110.573 577.246 111.48C577.246 112.387 577.246 113.46 577.246 114.7V123H571.986ZM589.186 123.44C587.6 123.44 586.206 123.193 585.006 122.7C583.806 122.193 582.866 121.467 582.186 120.52C581.506 119.573 581.166 118.433 581.166 117.1C581.166 115.647 581.56 114.453 582.346 113.52C583.146 112.573 584.22 111.847 585.566 111.34C586.913 110.82 588.406 110.487 590.046 110.34C592.473 110.1 594.166 109.873 595.126 109.66C596.1 109.433 596.586 109.073 596.586 108.58C596.586 108.567 596.586 108.56 596.586 108.56C596.586 108.547 596.586 108.54 596.586 108.54C596.586 107.607 596.166 106.887 595.326 106.38C594.486 105.873 593.3 105.62 591.766 105.62C590.153 105.62 588.913 105.907 588.046 106.48C587.193 107.04 586.766 107.933 586.766 109.16H581.566C581.566 107.493 582.006 106.087 582.886 104.94C583.78 103.78 585 102.9 586.546 102.3C588.093 101.7 589.846 101.4 591.806 101.4C593.633 101.4 595.306 101.673 596.826 102.22C598.346 102.767 599.566 103.593 600.486 104.7C601.406 105.807 601.866 107.187 601.866 108.84C601.866 109.12 601.866 109.4 601.866 109.68C601.866 109.96 601.866 110.24 601.866 110.52V118.52C601.866 119.027 601.88 119.527 601.906 120.02C601.946 120.5 602.02 120.933 602.126 121.32C602.26 121.747 602.42 122.107 602.606 122.4C602.793 122.693 602.94 122.893 603.046 123H597.846C597.753 122.907 597.62 122.727 597.446 122.46C597.286 122.18 597.14 121.86 597.006 121.5C596.873 121.1 596.773 120.673 596.706 120.22C596.64 119.753 596.606 119.24 596.606 118.68L597.646 119.4C597.246 120.213 596.633 120.927 595.806 121.54C594.993 122.14 594.02 122.607 592.886 122.94C591.753 123.273 590.52 123.44 589.186 123.44ZM590.466 119.3C591.56 119.3 592.573 119.113 593.506 118.74C594.44 118.367 595.193 117.793 595.766 117.02C596.34 116.233 596.626 115.227 596.626 114V111.16L597.906 112.6C597.053 112.92 596.026 113.187 594.826 113.4C593.626 113.6 592.413 113.76 591.186 113.88C589.613 114.027 588.426 114.3 587.626 114.7C586.84 115.1 586.446 115.753 586.446 116.66C586.446 117.54 586.78 118.2 587.446 118.64C588.113 119.08 589.12 119.3 590.466 119.3ZM606.25 123V101.76H611.45V123H606.25ZM608.87 97.84C608.017 97.84 607.27 97.6133 606.63 97.16C606.003 96.6933 605.69 96.0467 605.69 95.22C605.69 94.4067 606.003 93.7733 606.63 93.32C607.27 92.8667 608.017 92.64 608.87 92.64C609.71 92.64 610.443 92.8667 611.07 93.32C611.697 93.7733 612.01 94.4067 612.01 95.22C612.01 96.0467 611.697 96.6933 611.07 97.16C610.443 97.6133 609.71 97.84 608.87 97.84ZM631.283 123V113.58C631.283 113.047 631.283 112.58 631.283 112.18C631.283 111.767 631.283 111.393 631.283 111.06C631.283 110.1 631.143 109.24 630.863 108.48C630.596 107.707 630.129 107.1 629.463 106.66C628.809 106.22 627.903 106 626.743 106C625.729 106 624.829 106.247 624.043 106.74C623.256 107.22 622.636 107.887 622.183 108.74C621.743 109.58 621.523 110.553 621.523 111.66L619.743 110.56C619.743 108.787 620.143 107.213 620.943 105.84C621.756 104.453 622.843 103.367 624.203 102.58C625.563 101.793 627.069 101.4 628.723 101.4C630.429 101.4 631.863 101.733 633.023 102.4C634.196 103.067 635.076 104.013 635.663 105.24C636.263 106.467 636.563 107.907 636.563 109.56C636.563 110.2 636.563 110.92 636.563 111.72C636.563 112.52 636.563 113.307 636.563 114.08V123H631.283ZM616.263 123V101.76H621.523V123H616.263ZM644.574 102.62L657.674 110.58V114.18L644.574 122.12V117.68L655.594 111.8V112.96L644.574 107.04V102.62Z" fill="#D17805"/>
<rect x="828" y="288" width="181" height="96" rx="48" fill="#FFF5CB"/>
<rect x="828" y="288" width="181" height="96" rx="48" stroke="#D17805" stroke-width="6"/>
<path d="M895.212 346.12L882.092 338.18V334.58L895.212 326.62V331.04L884.192 336.96V335.8L895.212 341.68V346.12ZM911.109 347.4C909.602 347.4 908.349 347.147 907.349 346.64C906.362 346.133 905.582 345.467 905.009 344.64C904.449 343.813 904.049 342.9 903.809 341.9C903.582 340.9 903.469 339.9 903.469 338.9C903.469 338.407 903.469 337.893 903.469 337.36C903.469 336.827 903.469 336.287 903.469 335.74V325.76H908.749V334.92C908.749 335.4 908.749 335.86 908.749 336.3C908.749 336.74 908.749 337.153 908.749 337.54C908.749 338.487 908.862 339.367 909.089 340.18C909.316 340.98 909.729 341.627 910.329 342.12C910.942 342.613 911.802 342.86 912.909 342.86C913.962 342.86 914.869 342.553 915.629 341.94C916.389 341.313 916.976 340.527 917.389 339.58C917.816 338.633 918.029 337.673 918.029 336.7L919.829 337.9C919.829 339.193 919.629 340.413 919.229 341.56C918.829 342.693 918.249 343.7 917.489 344.58C916.729 345.46 915.809 346.153 914.729 346.66C913.662 347.153 912.456 347.4 911.109 347.4ZM918.029 347V325.76H923.289V347H918.029ZM933.432 315.74V347H928.252V315.74H933.432ZM941.771 326.62L954.871 334.58V338.18L941.771 346.12V341.68L952.791 335.8V336.96L941.771 331.04V326.62Z" fill="#D17805"/>
<mask id="path-22-outside-1_820_120" maskUnits="userSpaceOnUse" x="475" y="312" width="108" height="287" fill="black">
<rect fill="white" x="475" y="312" width="108" height="287"/>
<path fill-rule="evenodd" clip-rule="evenodd" d="M547 534L547 361C547 337.252 545 318 484 318C482.343 318 481 319.343 481 321C481 322.657 482.343 324 484 324C539 324 541 340.565 541 361L541 534H518.818C512.66 534 508.811 540.667 511.89 546L536.572 588.75C539.651 594.083 547.349 594.083 550.428 588.75L575.11 546C578.189 540.667 574.34 534 568.182 534H547Z"/>
</mask>
<path fill-rule="evenodd" clip-rule="evenodd" d="M547 534L547 361C547 337.252 545 318 484 318C482.343 318 481 319.343 481 321C481 322.657 482.343 324 484 324C539 324 541 340.565 541 361L541 534H518.818C512.66 534 508.811 540.667 511.89 546L536.572 588.75C539.651 594.083 547.349 594.083 550.428 588.75L575.11 546C578.189 540.667 574.34 534 568.182 534H547Z" fill="#3ED1AA"/>
<path d="M547 361L541 361V361L547 361ZM547 534L541 534L541 540H547V534ZM541 361L547 361L547 361L541 361ZM541 534V540H547L547 534L541 534ZM511.89 546L517.086 543L517.086 543L511.89 546ZM536.572 588.75L541.768 585.75L541.768 585.75L536.572 588.75ZM550.428 588.75L555.624 591.75L555.624 591.75L550.428 588.75ZM575.11 546L569.914 543L569.914 543L575.11 546ZM541 361L541 534L553 534L553 361L541 361ZM484 324C514.35 324 527.928 328.897 534.225 334.928C540.263 340.71 541 348.811 541 361H553C553 349.441 552.737 336.042 542.525 326.261C532.572 316.729 514.65 312 484 312V324ZM487 321C487 322.657 485.657 324 484 324V312C479.029 312 475 316.029 475 321H487ZM484 318C485.657 318 487 319.343 487 321H475C475 325.971 479.029 330 484 330V318ZM547 361C547 351.032 546.726 339.081 537.158 330.395C527.968 322.051 511.618 318 484 318V330C511.382 330 523.532 334.232 529.092 339.279C534.274 343.984 535 350.533 535 361L547 361ZM547 534L547 361L535 361L535 534L547 534ZM518.818 540H541V528H518.818V540ZM517.086 543C516.316 541.667 517.279 540 518.818 540V528C508.041 528 501.305 539.667 506.694 549L517.086 543ZM541.768 585.75L517.086 543L506.694 549L531.376 591.75L541.768 585.75ZM545.232 585.75C544.462 587.083 542.538 587.083 541.768 585.75L531.376 591.75C536.764 601.083 550.236 601.083 555.624 591.75L545.232 585.75ZM569.914 543L545.232 585.75L555.624 591.75L580.306 549L569.914 543ZM568.182 540C569.721 540 570.684 541.667 569.914 543L580.306 549C585.695 539.667 578.959 528 568.182 528V540ZM547 540H568.182V528H547V540Z" fill="#00615A" mask="url(#path-22-outside-1_820_120)"/>
<mask id="path-24-outside-2_820_120" maskUnits="userSpaceOnUse" x="603" y="466" width="108" height="128" fill="black">
<rect fill="white" x="603" y="466" width="108" height="128"/>
<path fill-rule="evenodd" clip-rule="evenodd" d="M700.75 512.622C706.083 509.543 706.083 501.845 700.75 498.765L658 474.084C652.667 471.005 646 474.854 646 481.012L646 503.517C625.092 506.498 609 524.83 609 547L609 584.81C609 586.502 610.343 587.873 612 587.873C613.657 587.873 615 586.502 615 584.81L615 547C615 528.22 628.419 512.641 646 509.714L646 530.375C646 536.534 652.667 540.383 658 537.304L700.75 512.622Z"/>
</mask>
<path fill-rule="evenodd" clip-rule="evenodd" d="M700.75 512.622C706.083 509.543 706.083 501.845 700.75 498.765L658 474.084C652.667 471.005 646 474.854 646 481.012L646 503.517C625.092 506.498 609 524.83 609 547L609 584.81C609 586.502 610.343 587.873 612 587.873C613.657 587.873 615 586.502 615 584.81L615 547C615 528.22 628.419 512.641 646 509.714L646 530.375C646 536.534 652.667 540.383 658 537.304L700.75 512.622Z" fill="#3ED1AA"/>
<path d="M700.75 498.765L703.75 493.569L703.75 493.569L700.75 498.765ZM700.75 512.622L703.75 517.818L703.75 517.818L700.75 512.622ZM658 474.084L661 468.888L661 468.888L658 474.084ZM646 481.012L640 481.012L640 481.012L646 481.012ZM646 503.517L646.847 509.457L652 508.722L652 503.517L646 503.517ZM609 547L615 547L615 547L609 547ZM609 584.81L603 584.81V584.81H609ZM615 584.81L609 584.81V584.81H615ZM615 547L621 547V547H615ZM646 509.714L652 509.714L652 502.632L645.015 503.795L646 509.714ZM646 530.375L652 530.375L652 530.375L646 530.375ZM658 537.304L661 542.5L661 542.5L658 537.304ZM697.75 503.962C699.083 504.731 699.083 506.656 697.75 507.426L703.75 517.818C713.083 512.429 713.083 498.958 703.75 493.569L697.75 503.962ZM655 479.28L697.75 503.962L703.75 493.569L661 468.888L655 479.28ZM652 481.012C652 479.472 653.667 478.51 655 479.28L661 468.888C651.667 463.499 640 470.235 640 481.012H652ZM652 503.517L652 481.012L640 481.012L640 503.517L652 503.517ZM645.153 497.577C621.237 500.987 603 521.896 603 547L615 547C615 527.764 628.948 512.009 646.847 509.457L645.153 497.577ZM603 547L603 584.81L615 584.81L615 547L603 547ZM603 584.81C603 589.697 606.912 593.873 612 593.873V581.873C613.775 581.873 615 583.307 615 584.81H603ZM612 593.873C617.088 593.873 621 589.697 621 584.81H609C609 583.307 610.226 581.873 612 581.873V593.873ZM621 584.81L621 547L609 547L609 584.81L621 584.81ZM621 547C621 531.11 632.34 518.071 646.985 515.632L645.015 503.795C624.497 507.211 609 525.33 609 547H621ZM652 530.375L652 509.714L640 509.714L640 530.375L652 530.375ZM655 532.107C653.667 532.877 652 531.915 652 530.375H640C640 541.153 651.667 547.888 661 542.5L655 532.107ZM697.75 507.426L655 532.107L661 542.5L703.75 517.818L697.75 507.426Z" fill="#00615A" mask="url(#path-24-outside-2_820_120)"/>
<mask id="path-26-outside-3_820_120" maskUnits="userSpaceOnUse" x="235" y="639.969" width="226" height="116" fill="black">
<rect fill="white" x="235" y="639.969" width="226" height="116"/>
<path fill-rule="evenodd" clip-rule="evenodd" d="M281.622 650C278.543 644.667 270.845 644.667 267.766 650L243.084 692.75C240.005 698.083 243.854 704.75 250.012 704.75L271.865 704.75C271.83 704.932 271.812 705.119 271.812 705.31C271.812 729.059 291.47 748.31 315.719 748.31L451.437 749.969C453.129 749.969 454.5 748.625 454.5 746.969C454.5 745.312 453.129 743.969 451.437 743.969L315.719 742.31C294.853 742.31 277.938 725.745 277.938 705.31C277.938 705.119 277.92 704.932 277.885 704.75L299.375 704.75C305.534 704.75 309.383 698.083 306.304 692.75L281.622 650Z"/>
</mask>
<path fill-rule="evenodd" clip-rule="evenodd" d="M281.622 650C278.543 644.667 270.845 644.667 267.766 650L243.084 692.75C240.005 698.083 243.854 704.75 250.012 704.75L271.865 704.75C271.83 704.932 271.812 705.119 271.812 705.31C271.812 729.059 291.47 748.31 315.719 748.31L451.437 749.969C453.129 749.969 454.5 748.625 454.5 746.969C454.5 745.312 453.129 743.969 451.437 743.969L315.719 742.31C294.853 742.31 277.938 725.745 277.938 705.31C277.938 705.119 277.92 704.932 277.885 704.75L299.375 704.75C305.534 704.75 309.383 698.083 306.304 692.75L281.622 650Z" fill="#3ED1AA"/>
<path d="M267.766 650L262.569 647L262.569 647L267.766 650ZM281.622 650L286.818 647L286.818 647L281.622 650ZM243.084 692.75L237.888 689.75L237.888 689.75L243.084 692.75ZM250.012 704.75L250.012 710.75L250.012 710.75L250.012 704.75ZM271.865 704.75L277.756 705.887L279.133 698.75L271.865 698.75L271.865 704.75ZM271.812 705.31L265.812 705.31L265.812 705.31L271.812 705.31ZM315.719 748.31L315.792 742.311L315.756 742.31L315.719 742.31L315.719 748.31ZM451.437 749.969L451.363 755.968L451.4 755.969L451.437 755.969L451.437 749.969ZM451.437 743.969L451.363 749.968L451.4 749.969L451.437 749.969L451.437 743.969ZM315.719 742.31L315.792 736.311L315.756 736.31L315.719 736.31L315.719 742.31ZM277.885 704.75L277.885 698.75L270.617 698.75L271.994 705.887L277.885 704.75ZM299.375 704.75L299.375 698.75L299.375 698.75L299.375 704.75ZM306.304 692.75L311.5 689.75L311.5 689.75L306.304 692.75ZM272.962 653C273.731 651.667 275.656 651.667 276.426 653L286.818 647C281.429 637.667 267.958 637.667 262.569 647L272.962 653ZM248.28 695.75L272.962 653L262.569 647L237.888 689.75L248.28 695.75ZM250.012 698.75C248.472 698.75 247.51 697.083 248.28 695.75L237.888 689.75C232.499 699.083 239.235 710.75 250.012 710.75L250.012 698.75ZM271.865 698.75L250.012 698.75L250.012 710.75L271.865 710.75L271.865 698.75ZM265.974 703.613C265.867 704.167 265.812 704.735 265.812 705.31L277.812 705.31C277.812 705.503 277.793 705.696 277.756 705.887L265.974 703.613ZM265.812 705.31C265.812 732.49 288.275 754.31 315.719 754.31L315.719 742.31C294.665 742.31 277.812 725.627 277.812 705.31L265.812 705.31ZM315.646 754.31L451.363 755.968L451.51 743.969L315.792 742.311L315.646 754.31ZM451.437 755.969C456.324 755.969 460.5 752.057 460.5 746.969L448.5 746.969C448.5 745.194 449.934 743.969 451.437 743.969L451.437 755.969ZM460.5 746.969C460.5 741.881 456.324 737.969 451.437 737.969L451.437 749.969C449.934 749.969 448.5 748.743 448.5 746.969L460.5 746.969ZM451.51 737.969L315.792 736.311L315.646 748.31L451.363 749.968L451.51 737.969ZM315.719 736.31C298.048 736.31 283.938 722.314 283.938 705.31L271.938 705.31C271.938 729.176 291.658 748.31 315.719 748.31L315.719 736.31ZM283.938 705.31C283.938 704.735 283.883 704.167 283.776 703.613L271.994 705.887C271.957 705.696 271.938 705.502 271.938 705.31L283.938 705.31ZM299.375 698.75L277.885 698.75L277.885 710.75L299.375 710.75L299.375 698.75ZM301.107 695.75C301.877 697.083 300.915 698.75 299.375 698.75L299.375 710.75C310.153 710.75 316.888 699.083 311.5 689.75L301.107 695.75ZM276.426 653L301.107 695.75L311.5 689.75L286.818 647L276.426 653Z" fill="#00615A" mask="url(#path-26-outside-3_820_120)"/>
</svg>
