<svg width="553" height="291" viewBox="0 0 553 291" fill="none" xmlns="http://www.w3.org/2000/svg">
<rect x="0.476562" y="2.69531" width="551.935" height="285.023" rx="19.0651" fill="#F1DCEE"/>
<g clip-path="url(#clip0_11226_13244)">
<path d="M158.139 136.078C159.831 132.966 162.189 130.531 165.214 128.792C168.239 127.053 171.673 126.184 175.501 126.184C180.2 126.184 184.215 127.453 187.565 129.975C190.915 132.496 193.135 135.939 194.264 140.304H183.669C182.883 138.617 181.755 137.348 180.319 136.461C178.867 135.574 177.227 135.139 175.381 135.139C172.408 135.139 170.016 136.183 168.17 138.287C166.325 140.391 165.402 143.208 165.402 146.721C165.402 150.234 166.325 153.051 168.17 155.155C170.016 157.259 172.408 158.303 175.381 158.303C177.227 158.303 178.867 157.868 180.319 156.981C181.772 156.094 182.883 154.825 183.669 153.138H194.264C193.135 157.503 190.897 160.929 187.565 163.433C184.215 165.937 180.2 167.189 175.501 167.189C171.673 167.189 168.239 166.319 165.214 164.58C162.189 162.841 159.831 160.424 158.139 157.329C156.448 154.233 155.61 150.703 155.61 146.721C155.61 142.739 156.448 139.191 158.139 136.078Z" fill="#171717"/>
<path d="M205.063 165.365C202.603 164.026 200.672 162.113 199.253 159.626C197.852 157.139 197.134 154.235 197.134 150.914C197.134 147.592 197.852 144.723 199.271 142.219C200.705 139.715 202.654 137.802 205.132 136.463C207.609 135.124 210.395 134.463 213.47 134.463C216.547 134.463 219.332 135.124 221.81 136.463C224.288 137.802 226.235 139.715 227.671 142.219C229.107 144.723 229.807 147.627 229.807 150.914C229.807 154.2 229.089 157.104 227.636 159.608C226.184 162.113 224.219 164.026 221.724 165.365C219.229 166.704 216.445 167.364 213.351 167.364C210.258 167.364 207.506 166.704 205.046 165.365H205.063ZM218.084 156.826C219.383 155.452 220.033 153.487 220.033 150.914C220.033 148.34 219.401 146.392 218.153 145.001C216.888 143.627 215.351 142.932 213.505 142.932C211.659 142.932 210.07 143.61 208.823 144.966C207.576 146.323 206.96 148.305 206.96 150.896C206.96 153.487 207.576 155.435 208.788 156.809C210.001 158.183 211.54 158.878 213.386 158.878C215.23 158.878 216.803 158.183 218.084 156.809V156.826Z" fill="#171717"/>
<path d="M233.737 142.183C234.95 139.696 236.626 137.784 238.727 136.444C240.829 135.105 243.17 134.445 245.768 134.445C247.836 134.445 249.715 134.879 251.424 135.766C253.133 136.653 254.483 137.836 255.456 139.314V124.463H265.094V166.894H255.456V162.303C254.551 163.834 253.269 165.051 251.594 165.972C249.92 166.894 247.972 167.346 245.768 167.346C243.17 167.346 240.829 166.668 238.727 165.312C236.626 163.955 234.968 162.025 233.737 159.521C232.525 157.017 231.909 154.13 231.909 150.826C231.909 147.522 232.525 144.653 233.737 142.166V142.183ZM253.457 145.105C252.124 143.696 250.501 142.983 248.587 142.983C246.673 142.983 245.05 143.679 243.717 145.07C242.384 146.461 241.718 148.391 241.718 150.826C241.718 153.26 242.384 155.208 243.717 156.651C245.05 158.077 246.673 158.808 248.587 158.808C250.501 158.808 252.124 158.095 253.457 156.686C254.79 155.278 255.456 153.347 255.456 150.895C255.456 148.443 254.79 146.513 253.457 145.105Z" fill="#171717"/>
<path d="M300.432 153.261H278.628C278.782 155.244 279.414 156.774 280.509 157.817C281.618 158.861 282.987 159.4 284.592 159.4C287.001 159.4 288.676 158.374 289.618 156.305H299.868C299.339 158.409 298.399 160.304 297.014 161.974C295.649 163.661 293.922 164.982 291.854 165.938C289.787 166.895 287.48 167.364 284.916 167.364C281.841 167.364 279.091 166.704 276.699 165.365C274.289 164.026 272.408 162.113 271.058 159.626C269.708 157.139 269.025 154.235 269.025 150.914C269.025 147.592 269.693 144.688 271.023 142.201C272.357 139.715 274.221 137.802 276.629 136.463C279.038 135.124 281.791 134.463 284.916 134.463C288.044 134.463 290.658 135.106 293.033 136.411C295.392 137.715 297.256 139.558 298.586 141.975C299.92 144.375 300.588 147.192 300.588 150.409C300.588 151.331 300.535 152.287 300.416 153.279L300.432 153.261ZM290.744 147.818C290.744 146.131 290.18 144.792 289.053 143.801C287.925 142.81 286.523 142.306 284.831 142.306C283.141 142.306 281.859 142.775 280.748 143.732C279.636 144.688 278.953 146.044 278.696 147.801H290.761L290.744 147.818Z" fill="#171717"/>
<path d="M325.279 166.91L317.06 151.711H314.753V166.91H305.115V126.652H321.28C324.408 126.652 327.055 127.209 329.261 128.322C331.465 129.435 333.106 130.948 334.199 132.878C335.293 134.808 335.839 136.965 335.839 139.329C335.839 142.008 335.104 144.39 333.618 146.494C332.132 148.598 329.944 150.094 327.055 150.963L336.181 166.91H325.295H325.279ZM314.735 144.772H320.716C322.477 144.772 323.809 144.338 324.68 143.451C325.569 142.564 326.013 141.329 326.013 139.729C326.013 138.13 325.569 136.999 324.68 136.112C323.791 135.225 322.477 134.791 320.716 134.791H314.735V144.772Z" fill="#171717"/>
<path d="M340.642 142.182C341.856 139.695 343.53 137.782 345.633 136.443C347.733 135.104 350.093 134.635 352.672 134.635H372V166.893H362.362V162.372C361.421 163.867 360.123 165.067 358.449 165.989C356.772 166.91 354.825 167.363 352.621 167.363C350.058 167.363 347.733 166.684 345.633 165.328C343.53 163.971 341.873 162.041 340.642 159.537C339.428 157.033 338.813 154.146 338.813 150.842C338.813 147.538 339.428 144.669 340.642 142.182ZM360.361 145.104C359.028 143.695 357.404 142.982 355.492 142.982C353.578 142.982 351.954 143.678 350.622 145.069C349.289 146.46 348.622 148.39 348.622 150.825C348.622 153.259 349.289 155.207 350.622 156.65C351.954 158.076 353.578 158.807 355.492 158.807C357.404 158.807 359.028 158.094 360.361 156.685C361.695 155.276 362.362 153.346 362.362 150.894C362.362 148.442 361.695 146.512 360.361 145.104Z" fill="#171717"/>
<path d="M391.393 135.819C393.085 134.897 395.015 134.445 397.203 134.445C399.799 134.445 402.141 135.105 404.244 136.444C406.344 137.784 408.002 139.696 409.233 142.183C410.447 144.67 411.061 147.556 411.061 150.843C411.061 154.13 410.447 157.034 409.233 159.538C408.019 162.042 406.344 163.973 404.244 165.329C402.141 166.685 399.799 167.364 397.203 167.364C394.982 167.364 393.05 166.912 391.393 166.025C389.736 165.12 388.437 163.938 387.497 162.442V166.912H377.859V124.463H387.497V139.436C388.403 137.94 389.701 136.74 391.393 135.819ZM399.253 145.087C397.921 143.696 396.279 143 394.316 143C392.35 143 390.776 143.713 389.446 145.122C388.112 146.53 387.445 148.461 387.445 150.913C387.445 153.365 388.112 155.295 389.446 156.704C390.776 158.112 392.4 158.825 394.316 158.825C396.228 158.825 397.87 158.112 399.22 156.669C400.57 155.243 401.252 153.295 401.252 150.843C401.252 148.391 400.585 146.478 399.253 145.087Z" fill="#171717"/>
<path d="M428.528 135.819C430.218 134.897 432.149 134.445 434.338 134.445C436.934 134.445 439.276 135.105 441.379 136.444C443.479 137.784 445.136 139.696 446.368 142.183C447.579 144.67 448.196 147.556 448.196 150.843C448.196 154.13 447.579 157.034 446.368 159.538C445.154 162.042 443.479 163.973 441.379 165.329C439.276 166.685 436.934 167.364 434.338 167.364C432.114 167.364 430.185 166.912 428.528 166.025C426.869 165.12 425.571 163.938 424.632 162.442V166.912H414.992V124.463H424.632V139.436C425.536 137.94 426.836 136.74 428.528 135.819ZM436.388 145.087C435.055 143.696 433.414 143 431.449 143C429.483 143 427.911 143.713 426.579 145.122C425.246 146.53 424.579 148.461 424.579 150.913C424.579 153.365 425.246 155.295 426.579 156.704C427.911 158.112 429.535 158.825 431.449 158.825C433.363 158.825 435.003 158.112 436.353 156.669C437.702 155.243 438.387 153.295 438.387 150.843C438.387 148.391 437.72 146.478 436.388 145.087Z" fill="#171717"/>
<path d="M452.843 130.062C451.767 129.053 451.236 127.801 451.236 126.306C451.236 124.81 451.767 123.506 452.843 122.497C453.919 121.489 455.286 120.984 456.978 120.984C458.67 120.984 459.985 121.489 461.063 122.497C462.138 123.506 462.669 124.775 462.669 126.306C462.669 127.836 462.138 129.053 461.063 130.062C459.985 131.071 458.635 131.575 456.978 131.575C455.321 131.575 453.903 131.071 452.843 130.062ZM461.78 134.914V166.911H452.143V134.896H461.78V134.914Z" fill="#171717"/>
<path d="M485.158 158.581V166.893H480.252C476.767 166.893 474.032 166.024 472.085 164.285C470.136 162.546 469.162 159.711 469.162 155.764V143.034H465.334V134.896H469.162V127.105H478.799V134.896H485.105V143.034H478.799V155.886C478.799 156.842 479.023 157.538 479.484 157.955C479.928 158.372 480.68 158.581 481.738 158.581H485.173H485.158Z" fill="#171717"/>
<path d="M97.0463 176.11C113.858 176.11 127.486 162.482 127.486 145.67C127.486 128.859 113.858 115.23 97.0463 115.23C80.2348 115.23 66.6064 128.859 66.6064 145.67C66.6064 162.482 80.2348 176.11 97.0463 176.11Z" fill="#171717"/>
<path d="M117.717 140.628C117.717 140.628 113.476 135.207 108.144 134.896C104.704 134.693 103.87 135.153 103.721 135.495C103.507 133.72 101.99 125.497 91.5093 123.754C92.8473 133.372 98.3729 130.866 101.627 137.495C101.627 137.495 96.1357 130.031 87.1076 132.779C87.1076 132.779 90.3983 139.687 100.131 141.099C100.131 141.099 100.911 143.772 101.146 144.243C101.146 144.243 86.1567 136.426 81.6054 151.429C78.2181 150.661 77.082 154.338 80.9751 156.85C80.9751 156.85 81.6376 154.22 83.2506 153.439C83.2506 153.439 79.789 157.3 83.8596 161.923H98.4696C98.8226 161.338 100.385 158.262 96.521 155.933C99.2486 155.894 101.469 161.039 103.858 161.958H107.332C107.45 161.673 107.695 160.817 107.118 160.048C106.228 159.027 104.28 159.165 104.298 157.278C104.97 148.498 118.135 151.194 117.717 140.628H117.717Z" fill="#F1DCEE"/>
</g>
<defs>
<clipPath id="clip0_11226_13244">
<rect width="418.767" height="61.0742" fill="white" transform="translate(66.584 115.146)"/>
</clipPath>
</defs>
</svg>
