<svg width="508" height="206" viewBox="0 0 508 206" fill="none" xmlns="http://www.w3.org/2000/svg">
<rect width="507.333" height="206" rx="16" fill="white"/>
<mask id="mask0" mask-type="alpha" maskUnits="userSpaceOnUse" x="30" y="47" width="99" height="112">
<path d="M77.7698 47.8198C78.8452 47.2196 80.1548 47.2196 81.2301 47.8198L126.951 73.3384C128.075 73.9655 128.771 75.1515 128.771 76.4383V128.458C128.771 129.722 128.098 130.891 127.005 131.527L81.2843 158.108C80.1812 158.75 78.8188 158.75 77.7157 158.108L31.9948 131.527C30.9017 130.891 30.2291 129.722 30.2291 128.458V76.4383C30.2291 75.1515 30.9254 73.9655 32.049 73.3384L77.7698 47.8198Z" fill="#B3D2FF"/>
</mask>
<g mask="url(#mask0)">
<rect x="24.5" y="48" width="110" height="110" fill="#9ECCFA"/>
<path fill-rule="evenodd" clip-rule="evenodd" d="M84.4773 69.3132C90.6406 65.5532 99.3151 69.4549 104.708 76.6458C111.152 85.2375 116.101 87.8741 120.197 88.1583C123.43 87.4247 126.309 85.7654 128.244 83.1491C128.771 81.5037 128.771 80.0833 128.771 80.0833V82.375V128.208V130.5L79.5 159.146L30.2291 130.5V116.75C30.2291 105.292 32.5208 98.9896 37.1373 96.125L84.4729 69.3125C84.4729 69.3125 84.4744 69.3127 84.4773 69.3132Z" fill="#0659FF"/>
<path fill-rule="evenodd" clip-rule="evenodd" d="M84.4773 69.3132C90.6406 65.5532 99.3151 69.4549 104.708 76.6458C111.152 85.2375 116.101 87.8741 120.197 88.1583C123.43 87.4247 126.309 85.7654 128.244 83.1491C128.771 81.5037 128.771 80.0833 128.771 80.0833V82.375V128.208V130.5L79.5 159.146L30.2291 130.5V116.75C30.2291 105.292 32.5208 98.9896 37.1373 96.125L84.4729 69.3125C84.4729 69.3125 84.4744 69.3127 84.4773 69.3132Z" fill="url(#paint0_linear)"/>
<path d="M55.4375 104.146C46.3477 92.0262 30.2291 89.25 30.2291 116.75V130.5L79.5 159.146L128.771 130.5L86.375 98.0729L81.0542 100.999C80.0956 101.527 79.5022 102.536 79.4975 103.63C79.4674 110.552 79.0728 114.525 73.9035 115.476C69.2572 116.332 63.5242 114.928 55.4375 104.146Z" fill="#0F2CBD"/>
<g style="mix-blend-mode:soft-light">
<path d="M31.7936 75.2274L77.9621 100.996C78.9116 101.526 79.5 102.528 79.5 103.615V157.408C79.5 158.179 80.3359 158.66 81.0026 158.272L128.771 130.5V74.3542L79.5 46.8542L31.7936 73.481C31.1101 73.8625 31.1101 74.8459 31.7936 75.2274Z" fill="white"/>
<path d="M31.7936 75.2274L77.9621 100.996C78.9116 101.526 79.5 102.528 79.5 103.615V157.408C79.5 158.179 80.3359 158.66 81.0026 158.272L128.771 130.5V74.3542L79.5 46.8542L31.7936 73.481C31.1101 73.8625 31.1101 74.8459 31.7936 75.2274Z" fill="#002BFF" fill-opacity="0.2"/>
</g>
<path d="M126.912 75.3919L81.0379 100.996C80.0884 101.526 79.5 102.528 79.5 103.615V157.408C79.5 158.179 80.336 158.66 81.0026 158.272L128.771 130.5V76.4834C128.771 75.5292 127.745 74.9268 126.912 75.3919Z" fill="#0F2CBD"/>
<path d="M126.912 75.3919L81.0379 100.996C80.0884 101.526 79.5 102.528 79.5 103.615V157.408C79.5 158.179 80.336 158.66 81.0026 158.272L128.771 130.5V76.4834C128.771 75.5292 127.745 74.9268 126.912 75.3919Z" fill="url(#paint1_linear)"/>
</g>
<path d="M171.02 129.091C166.547 129.091 162.464 128.015 158.773 125.864C155.107 123.688 152.173 120.523 149.973 116.367C147.773 112.212 146.673 107.127 146.673 101.114C146.673 95.1006 147.761 90.0284 149.937 85.8973C152.137 81.7661 155.07 78.6372 158.737 76.5105C162.403 74.3839 166.498 73.3205 171.02 73.3205C175.542 73.3205 179.637 74.3839 183.303 76.5105C186.97 78.6372 189.891 81.7661 192.067 85.8973C194.242 90.0284 195.33 95.1006 195.33 101.114C195.33 107.127 194.23 112.212 192.03 116.367C189.83 120.523 186.884 123.688 183.193 125.864C179.527 128.015 175.469 129.091 171.02 129.091ZM171.02 119.961C173.293 119.961 175.396 119.337 177.327 118.091C179.282 116.844 180.847 114.84 182.02 112.077C183.193 109.315 183.78 105.661 183.78 101.114C183.78 96.5673 183.181 92.9251 181.983 90.1873C180.81 87.4495 179.258 85.4817 177.327 84.2839C175.396 83.0617 173.293 82.4506 171.02 82.4506C168.747 82.4506 166.632 83.0617 164.677 84.2839C162.746 85.4817 161.193 87.4495 160.02 90.1873C158.847 92.9251 158.26 96.5673 158.26 101.114C158.26 105.661 158.847 109.315 160.02 112.077C161.193 114.84 162.746 116.844 164.677 118.091C166.632 119.337 168.747 119.961 171.02 119.961Z" fill="#899BBD"/>
<path d="M220.967 129.091C216.689 129.091 212.937 128.235 209.71 126.524C206.508 124.789 204.015 122.393 202.23 119.337C200.446 116.257 199.554 112.688 199.554 108.631C199.554 104.573 200.446 101.041 202.23 98.034C204.015 95.0273 206.508 92.6928 209.71 91.0306C212.937 89.3684 216.689 88.5373 220.967 88.5373C224.169 88.5373 226.992 89.0139 229.437 89.9673C231.906 90.8962 233.971 92.1306 235.634 93.6706C237.32 95.1862 238.591 96.8728 239.447 98.7306C240.302 100.564 240.73 102.385 240.73 104.194V104.487H229.474C229.474 104.292 229.437 104.011 229.364 103.644C229.07 102.104 228.239 100.723 226.87 99.5006C225.526 98.2784 223.534 97.6673 220.894 97.6673C218.082 97.6673 215.736 98.6084 213.854 100.491C211.996 102.348 211.067 105.062 211.067 108.631C211.067 112.151 211.996 114.925 213.854 116.954C215.736 118.958 218.082 119.961 220.894 119.961C223.778 119.961 225.88 119.313 227.2 118.017C228.52 116.697 229.278 115.121 229.474 113.287H240.73C240.73 115.121 240.302 116.966 239.447 118.824C238.616 120.682 237.369 122.381 235.707 123.921C234.045 125.461 231.979 126.707 229.51 127.661C227.066 128.614 224.218 129.091 220.967 129.091Z" fill="#899BBD"/>
<path d="M286.475 115.927C286.279 118.127 285.35 120.242 283.688 122.271C282.05 124.275 279.728 125.913 276.721 127.184C273.739 128.455 270.134 129.091 265.905 129.091C261.603 129.091 257.85 128.235 254.648 126.524C251.446 124.789 248.965 122.405 247.205 119.374C245.445 116.318 244.565 112.798 244.565 108.814C244.565 104.781 245.457 101.248 247.241 98.2173C249.05 95.1617 251.556 92.7906 254.758 91.1039C257.985 89.3928 261.713 88.5373 265.941 88.5373C270.268 88.5373 274.008 89.405 277.161 91.1406C280.315 92.8517 282.747 95.2595 284.458 98.364C286.169 101.444 287.025 105.037 287.025 109.144C287.025 110.415 286.976 111.417 286.878 112.151H256.078C256.591 114.791 257.704 116.844 259.415 118.311C261.126 119.753 263.448 120.474 266.381 120.474C269.437 120.474 271.637 119.985 272.981 119.007C274.35 118.005 275.108 116.978 275.255 115.927H286.475ZM266.088 97.044C263.473 97.044 261.309 97.704 259.598 99.024C257.911 100.344 256.775 102.214 256.188 104.634H275.401C275.23 102.703 274.387 100.955 272.871 99.3906C271.38 97.8262 269.119 97.044 266.088 97.044Z" fill="#899BBD"/>
<path d="M305.862 129.017C301.584 129.017 298.076 128.015 295.338 126.011C292.601 124.006 291.232 121.171 291.232 117.504C291.232 114.742 291.989 112.493 293.505 110.757C295.021 109.022 297.025 107.702 299.518 106.797C302.036 105.868 304.762 105.257 307.695 104.964C311.948 104.573 314.894 104.206 316.532 103.864C318.169 103.497 318.988 102.886 318.988 102.031V101.957C318.988 100.515 318.292 99.3784 316.898 98.5473C315.529 97.7162 313.611 97.3006 311.142 97.3006C305.764 97.3006 303.075 99.2073 303.075 103.021H291.892C291.892 99.9162 292.735 97.2884 294.422 95.1373C296.133 92.9617 298.443 91.3239 301.352 90.2239C304.261 89.0995 307.548 88.5373 311.215 88.5373C314.637 88.5373 317.803 89.0628 320.712 90.1139C323.621 91.1406 325.955 92.7051 327.715 94.8073C329.499 96.8851 330.392 99.5129 330.392 102.691V119.521C330.392 120.523 330.416 121.488 330.465 122.417C330.538 123.346 330.685 124.177 330.905 124.911C331.149 125.766 331.455 126.475 331.822 127.037C332.188 127.6 332.494 127.991 332.738 128.211H321.555C321.384 128.015 321.115 127.661 320.748 127.147C320.406 126.61 320.113 125.986 319.868 125.277C319.722 124.862 319.599 124.458 319.502 124.067C318.035 125.632 316.104 126.854 313.708 127.734C311.313 128.59 308.697 129.017 305.862 129.017ZM308.905 120.511C310.665 120.511 312.327 120.193 313.892 119.557C315.456 118.897 316.727 117.871 317.705 116.477C318.683 115.084 319.172 113.263 319.172 111.014V110.684C317.778 111.051 316.299 111.356 314.735 111.601C313.171 111.821 311.618 112.016 310.078 112.187C307.585 112.432 305.715 112.86 304.468 113.471C303.246 114.057 302.635 115.06 302.635 116.477C302.635 119.166 304.725 120.511 308.905 120.511Z" fill="#899BBD"/>
<path d="M337.243 128.211V89.2706H348.61V95.2473C350.101 93.1451 352.008 91.5073 354.33 90.3339C356.652 89.1362 359.194 88.5373 361.957 88.5373C366.748 88.5373 370.28 89.9428 372.553 92.7539C374.851 95.5651 376 99.2562 376 103.827V128.211H364.67V107.091C364.67 105.477 364.462 104.011 364.047 102.691C363.631 101.346 362.873 100.271 361.773 99.464C360.698 98.6573 359.158 98.254 357.153 98.254C354.513 98.254 352.423 99.1462 350.883 100.931C349.368 102.691 348.61 104.988 348.61 107.824V128.211H337.243Z" fill="#899BBD"/>
<path d="M404.456 74.1272C410.102 74.1272 414.258 75.3005 416.922 77.6472C419.611 79.9939 420.955 83.1717 420.955 87.1806C420.955 89.845 420.43 92.1184 419.379 94.0006C418.328 95.8584 416.995 97.3006 415.382 98.3273C413.769 99.354 412.131 99.9162 410.469 100.014C412.204 100.063 413.989 100.515 415.822 101.371C417.655 102.202 419.195 103.558 420.442 105.441C421.689 107.298 422.312 109.78 422.312 112.884C422.312 115.842 421.713 118.482 420.515 120.804C419.342 123.102 417.435 124.911 414.796 126.231C412.18 127.551 408.697 128.211 404.345 128.211H383.079V74.1272H404.456ZM401.559 82.9272H393.969V95.9806H400.972C403.857 95.9806 406.02 95.3695 407.462 94.1473C408.904 92.9006 409.625 91.2262 409.625 89.1239C409.625 84.9928 406.937 82.9272 401.559 82.9272ZM402.145 119.374C404.957 119.374 407.083 118.738 408.526 117.467C409.968 116.172 410.689 114.424 410.689 112.224C410.689 109.755 409.87 107.885 408.232 106.614C406.594 105.343 404.419 104.707 401.705 104.707H393.969V119.374H402.145Z" fill="#899BBD"/>
<path d="M433.725 82.9272C431.965 82.9272 430.425 82.4628 429.105 81.5339C427.809 80.605 427.161 79.2972 427.161 77.6106C427.161 75.8994 427.809 74.5794 429.105 73.6505C430.425 72.7216 431.965 72.2572 433.725 72.2572C435.485 72.2572 437.025 72.7216 438.345 73.6505C439.665 74.5794 440.325 75.8994 440.325 77.6106C440.325 79.3217 439.665 80.6417 438.345 81.5706C437.025 82.475 435.485 82.9272 433.725 82.9272ZM428.115 128.211V89.2706H439.371V128.211H428.115Z" fill="#899BBD"/>
<path d="M465.421 129.017C463.93 129.017 462.39 128.883 460.801 128.614C459.236 128.37 457.782 127.869 456.437 127.111C455.093 126.329 453.993 125.192 453.137 123.701C452.306 122.21 451.891 120.242 451.891 117.797V98.0706H442.907V89.2706H445.437C447.417 89.2706 448.86 89.1362 449.764 88.8673C450.693 88.5984 451.28 87.9139 451.524 86.8139C451.768 85.6895 451.891 83.8684 451.891 81.3506V76.4372H463.294V89.2706H474.624V98.0706H463.294V114.571C463.294 116.257 463.49 117.626 463.881 118.677C464.296 119.728 465.311 120.254 466.924 120.254C467.731 120.254 468.488 120.181 469.197 120.034C469.931 119.887 470.481 119.741 470.847 119.594V128.137C470.334 128.357 469.613 128.553 468.684 128.724C467.755 128.92 466.667 129.017 465.421 129.017Z" fill="#899BBD"/>
<defs>
<linearGradient id="paint0_linear" x1="63.4583" y1="81.2291" x2="80.6458" y2="111.021" gradientUnits="userSpaceOnUse">
<stop stop-color="#33BBFF"/>
<stop offset="0.0001" stop-color="#32B9FE" stop-opacity="0.984375"/>
<stop offset="1" stop-color="#33BBFF" stop-opacity="0"/>
</linearGradient>
<linearGradient id="paint1_linear" x1="94.3958" y1="93.8334" x2="116.709" y2="138.254" gradientUnits="userSpaceOnUse">
<stop stop-color="#33BBFF"/>
<stop offset="0.9999" stop-color="#3355FF" stop-opacity="0.01"/>
<stop offset="1" stop-color="#3377FF" stop-opacity="0"/>
</linearGradient>
</defs>
</svg>
