<?xml version="1.0" encoding="UTF-8" standalone="no"?>
<!DOCTYPE svg PUBLIC "-//W3C//DTD SVG 1.1//EN" "http://www.w3.org/Graphics/SVG/1.1/DTD/svg11.dtd">
<svg width="100%" height="100%" viewBox="0 0 5625 2292" version="1.1" xmlns="http://www.w3.org/2000/svg" xmlns:xlink="http://www.w3.org/1999/xlink" xml:space="preserve" xmlns:serif="http://www.serif.com/" style="fill-rule:evenodd;clip-rule:evenodd;stroke-linejoin:round;stroke-miterlimit:2;">
    <g id="Layer-1" serif:id="Layer 1" transform="matrix(4.16667,0,0,4.16667,-312.5,-937.5)">
        <g transform="matrix(0.9,0,0,0.55,75,225)">
            <rect x="0" y="0" width="1500" height="1000" style="fill:rgb(147,28,34);"/>
        </g>
        <g id="Icon">
            <g transform="matrix(1,0,0,1,178.353,395.938)">
                <path d="M0,52.311C0,52.311 -18.562,0 89.997,10.688L83.81,40.499L75.373,30.937C75.373,30.937 15.187,22.499 0,52.311" style="fill:white;fill-rule:nonzero;"/>
            </g>
            <g transform="matrix(1,0,0,1,585.589,521.372)">
                <path d="M0,69.186C0,69.186 -13.5,39.936 -43.311,19.687L-41.061,0L-34.874,3.938C-34.874,3.938 8.437,39.936 0,69.186" style="fill:white;fill-rule:nonzero;"/>
            </g>
            <g transform="matrix(1,0,0,1,590.089,661.431)">
                <path d="M0,-65.248C0,-65.248 -9,-33.75 -91.685,-44.436L-118.684,-43.874L-122.059,-34.312L-114.747,-25.312C-114.747,-25.312 18.562,0 0,-65.248" style="fill:white;fill-rule:nonzero;"/>
            </g>
            <g transform="matrix(1,0,0,1,168.79,542.747)">
                <path d="M0,-99.559C0,-99.559 -20.249,-65.811 71.435,-2.249L87.748,0L78.185,-21.374C78.185,-21.374 15.188,-60.748 0,-99.559" style="fill:white;fill-rule:nonzero;"/>
            </g>
            <g transform="matrix(1,0,0,1,505.326,341.38)">
                <path d="M0,271.549C29.17,242.786 47.266,202.823 47.266,158.62C47.266,71.016 -23.754,0 -111.358,0C-198.961,0 -269.978,71.016 -269.978,158.62C-269.978,161.361 -269.908,164.082 -269.771,166.789C-262.591,172.179 -135.729,259.305 0,271.549" style="fill:white;fill-rule:nonzero;"/>
            </g>
            <g transform="matrix(-0.370249,-0.928932,-0.928932,0.370249,348.772,454.464)">
                <path d="M-206.381,-78.823C-206.381,-78.823 -150.413,36.498 -13.818,126.885C-91.651,150.132 -175.729,110.508 -206.381,33.604C-221.65,-4.704 -220.93,-45.42 -207.411,-81.177L-206.381,-78.823Z" style="fill:white;fill-rule:nonzero;"/>
            </g>
            <g transform="matrix(1,0,0,1,356.523,549.903)">
                <path d="M0,-113.511L-102.021,-69.394L-102.48,-43.656L0,0L0.458,-28.952L-70.313,-56.985L0.458,-84.099L0,-113.511Z" style="fill:rgb(147,28,34);fill-rule:nonzero;"/>
            </g>
            <g transform="matrix(1,0,0,1,433.728,549.903)">
                <path d="M0,-113.511L102.022,-69.394L102.479,-43.656L0,0L-0.459,-28.952L70.313,-56.985L-0.459,-84.099L0,-113.511Z" style="fill:rgb(147,28,34);fill-rule:nonzero;"/>
            </g>
            <g transform="matrix(-0.229508,0.973307,0.973307,0.229508,469.091,517.391)">
                <path d="M-84.124,-88.277L74.049,-88.277L70.094,-67.493L-89.187,-66.806L-84.124,-88.277Z" style="fill:rgb(147,28,34);fill-rule:nonzero;"/>
            </g>
        </g>
        <g id="Text">
            <g transform="matrix(1,0,0,1,648.814,437.279)">
                <path d="M0,88.073L-17.564,88.073L-17.564,17.626L-44.037,17.626L-44.037,0L26.41,0L26.41,17.626L0,17.626L0,88.073Z" style="fill:white;fill-rule:nonzero;"/>
            </g>
            <g transform="matrix(1,0,0,1,699.544,433.408)">
                <path d="M0,91.944L-16.767,91.944L-16.767,0L0,0L0,29.051C2.006,27.537 4.074,26.463 6.203,25.826C8.332,25.193 10.503,24.877 12.713,24.877C16.767,24.877 20.575,25.643 24.136,27.179C27.7,28.713 30.8,30.822 33.441,33.505C36.083,36.187 38.169,39.321 39.706,42.902C41.242,46.484 42.01,50.302 42.01,54.354L42.01,91.944L25.121,91.944L25.121,54.354L25.244,54.354C25.244,52.636 24.914,51.009 24.259,49.472C23.604,47.938 22.704,46.597 21.557,45.451C20.41,44.303 19.081,43.403 17.564,42.749C16.05,42.093 14.433,41.764 12.713,41.764C10.953,41.764 9.294,42.093 7.739,42.749C6.183,43.403 4.832,44.303 3.685,45.451C2.538,46.597 1.637,47.938 0.982,49.472C0.327,51.009 0,52.636 0,54.354L0,91.944Z" style="fill:white;fill-rule:nonzero;"/>
            </g>
            <g transform="matrix(1,0,0,1,788.23,508.952)">
                <path d="M0,-34.272C-0.777,-34.558 -1.544,-34.743 -2.303,-34.822C-3.062,-34.905 -3.85,-34.945 -4.667,-34.945C-6.961,-34.945 -9.12,-34.527 -11.146,-33.688C-13.175,-32.848 -14.935,-31.649 -16.429,-30.093C-17.925,-28.538 -19.101,-26.666 -19.959,-24.472C-20.821,-22.284 -21.249,-19.815 -21.249,-17.073C-21.249,-16.461 -21.219,-15.763 -21.157,-14.985C-21.098,-14.208 -20.995,-13.42 -20.852,-12.621C-20.709,-11.821 -20.535,-11.056 -20.328,-10.319C-20.125,-9.581 -19.858,-8.925 -19.53,-8.354L0,-34.272ZM-8.598,0.307C-7.943,0.514 -7.288,0.645 -6.634,0.707C-5.979,0.769 -5.324,0.799 -4.667,0.799C-3.03,0.799 -1.454,0.575 0.062,0.123C1.575,-0.326 2.999,-0.972 4.331,-1.811C5.659,-2.65 6.849,-3.673 7.893,-4.882C8.936,-6.09 9.786,-7.43 10.441,-8.903L22.726,3.44C21.168,5.651 19.377,7.637 17.351,9.395C15.322,11.157 13.132,12.651 10.779,13.881C8.424,15.108 5.948,16.039 3.348,16.676C0.747,17.309 -1.925,17.626 -4.667,17.626C-9.294,17.626 -13.646,16.768 -17.719,15.046C-21.795,13.328 -25.356,10.932 -28.405,7.862C-31.456,4.79 -33.861,1.138 -35.621,-3.102C-37.383,-7.338 -38.262,-11.997 -38.262,-17.073C-38.262,-22.271 -37.383,-27.022 -35.621,-31.324C-33.861,-35.622 -31.456,-39.287 -28.405,-42.316C-25.356,-45.346 -21.795,-47.7 -17.719,-49.38C-13.646,-51.059 -9.294,-51.898 -4.667,-51.898C-1.925,-51.898 0.758,-51.569 3.379,-50.914C5.998,-50.258 8.485,-49.319 10.842,-48.088C13.194,-46.863 15.396,-45.355 17.444,-43.575C19.488,-41.795 21.291,-39.798 22.846,-37.585L-8.598,0.307Z" style="fill:white;fill-rule:nonzero;"/>
            </g>
            <g transform="matrix(1,0,0,1,874.089,507.725)">
                <path d="M0,-52.821L0,-17.569L17.626,-17.569C20.043,-17.569 22.314,-18.026 24.444,-18.949C26.572,-19.872 28.437,-21.129 30.033,-22.728C31.631,-24.323 32.891,-26.195 33.811,-28.343C34.731,-30.497 35.192,-32.778 35.192,-35.195C35.192,-37.607 34.731,-39.892 33.811,-42.042C32.891,-44.19 31.631,-46.064 30.033,-47.662C28.437,-49.257 26.572,-50.518 24.444,-51.439C22.314,-52.359 20.043,-52.821 17.626,-52.821L0,-52.821ZM0,17.626L-17.625,17.626L-17.625,-70.447L17.626,-70.447C20.861,-70.447 23.973,-70.027 26.961,-69.187C29.949,-68.348 32.744,-67.162 35.346,-65.626C37.946,-64.091 40.321,-62.247 42.47,-60.097C44.619,-57.949 46.462,-55.562 47.997,-52.944C49.534,-50.322 50.72,-47.516 51.56,-44.528C52.398,-41.54 52.818,-38.429 52.818,-35.195C52.818,-30.361 51.898,-25.808 50.055,-21.528C48.214,-17.248 45.695,-13.512 42.501,-10.318C39.308,-7.128 35.57,-4.61 31.293,-2.763C27.013,-0.923 22.457,0 17.626,0L0,0L0,17.626Z" style="fill:white;fill-rule:nonzero;"/>
            </g>
            <g transform="matrix(1,0,0,1,982.122,491.753)">
                <path d="M0,0.126C0,-2.576 -0.439,-5.024 -1.318,-7.213C-2.201,-9.405 -3.396,-11.286 -4.912,-12.864C-6.429,-14.441 -8.2,-15.649 -10.225,-16.489C-12.253,-17.328 -14.413,-17.746 -16.705,-17.746C-18.998,-17.746 -21.158,-17.328 -23.185,-16.489C-25.213,-15.649 -26.973,-14.441 -28.467,-12.864C-29.963,-11.286 -31.139,-9.405 -31.997,-7.213C-32.858,-5.024 -33.286,-2.576 -33.286,0.126C-33.286,2.666 -32.858,5.017 -31.997,7.188C-31.139,9.358 -29.963,11.239 -28.467,12.839C-26.973,14.435 -25.213,15.696 -23.185,16.614C-21.158,17.537 -18.998,17.998 -16.705,17.998C-14.413,17.998 -12.253,17.567 -10.225,16.706C-8.2,15.85 -6.429,14.641 -4.912,13.085C-3.396,11.53 -2.201,9.644 -1.318,7.434C-0.439,5.224 0,2.784 0,0.126M16.892,0.126C16.892,5.039 16.01,9.614 14.251,13.85C12.489,18.09 10.094,21.756 7.062,24.845C4.034,27.938 0.483,30.372 -3.59,32.152C-7.668,33.937 -12.037,34.825 -16.705,34.825C-21.332,34.825 -25.683,33.937 -29.756,32.152C-33.832,30.372 -37.394,27.938 -40.443,24.845C-43.493,21.756 -45.898,18.09 -47.658,13.85C-49.421,9.614 -50.299,5.039 -50.299,0.126C-50.299,-4.87 -49.421,-9.497 -47.658,-13.756C-45.898,-18.014 -43.493,-21.687 -40.443,-24.781C-37.394,-27.87 -33.832,-30.296 -29.756,-32.059C-25.683,-33.816 -21.332,-34.699 -16.705,-34.699C-12.037,-34.699 -7.668,-33.869 -3.59,-32.212C0.483,-30.554 4.034,-28.198 7.062,-25.148C10.094,-22.096 12.489,-18.432 14.251,-14.155C16.01,-9.876 16.892,-5.116 16.892,0.126" style="fill:white;fill-rule:nonzero;"/>
            </g>
            <g transform="matrix(-1,0,0,1,2033.46,-41.24)">
                <rect x="1008.29" y="474.648" width="16.889" height="91.944" style="fill:white;"/>
            </g>
            <g transform="matrix(1,0,0,1,1053.79,459.694)">
                <path d="M0,90.714L0,73.826L9.339,73.949C10.974,73.949 12.551,73.682 14.066,73.15C15.578,72.618 16.984,71.879 18.272,70.939C19.563,69.994 20.697,68.883 21.682,67.59C22.662,66.303 23.462,64.897 24.077,63.385C22.235,64.163 20.359,64.941 18.457,65.719C16.554,66.496 14.638,66.884 12.713,66.884C8.662,66.884 4.851,66.166 1.292,64.735C-2.272,63.302 -5.396,61.263 -8.077,58.621C-10.758,55.981 -12.866,52.768 -14.4,48.98C-15.938,45.193 -16.703,40.947 -16.703,36.236L-16.703,-0.123L0,-0.123L0,36.236C0,38.569 0.339,40.609 1.016,42.35C1.687,44.09 2.602,45.544 3.749,46.708C4.892,47.878 6.235,48.747 7.769,49.319C9.308,49.895 10.951,50.18 12.713,50.18C14.436,50.18 16.062,49.779 17.596,48.98C19.133,48.186 20.474,47.13 21.621,45.817C22.768,44.507 23.669,43.026 24.323,41.364C24.978,39.708 25.304,37.998 25.304,36.236L25.304,-0.123L42.195,-0.123L42.195,57.365C42.151,61.992 41.25,66.329 39.492,70.385C37.73,74.437 35.326,77.979 32.277,81.011C29.223,84.039 25.673,86.434 21.621,88.195C17.564,89.958 13.227,90.837 8.6,90.837L0,90.714Z" style="fill:white;fill-rule:nonzero;"/>
            </g>
            <g transform="matrix(1,0,0,1,1155.56,515.706)">
                <path d="M0,-23.827C0,-26.121 -0.439,-28.345 -1.318,-30.493C-2.201,-32.641 -3.396,-34.545 -4.912,-36.201C-6.429,-37.862 -8.2,-39.194 -10.226,-40.196C-12.252,-41.198 -14.413,-41.699 -16.703,-41.699C-18.997,-41.699 -21.158,-41.312 -23.185,-40.534C-25.21,-39.757 -26.973,-38.609 -28.467,-37.094C-29.961,-35.577 -31.139,-33.706 -31.995,-31.473C-32.856,-29.241 -33.287,-26.692 -33.287,-23.827C-33.287,-21.085 -32.856,-18.615 -31.995,-16.427C-31.139,-14.239 -29.961,-12.362 -28.467,-10.806C-26.973,-9.25 -25.21,-8.056 -23.185,-7.216C-21.158,-6.377 -18.997,-5.955 -16.703,-5.955C-14.413,-5.955 -12.252,-6.456 -10.226,-7.463C-8.2,-8.464 -6.429,-9.796 -4.912,-11.452C-3.396,-13.108 -2.201,-15.015 -1.318,-17.165C-0.439,-19.313 0,-21.533 0,-23.827M16.892,1.354C16.892,5.981 16.009,10.318 14.251,14.373C12.489,18.425 10.08,21.967 7.031,24.999C3.982,28.027 0.423,30.422 -3.651,32.184C-7.729,33.946 -12.08,34.825 -16.703,34.825L-25.118,34.702L-25.118,17.938L-16.826,18.056C-14.206,18.056 -11.975,17.722 -10.134,17.046C-8.292,16.368 -6.736,15.45 -5.466,14.281C-4.196,13.112 -3.182,11.773 -2.425,10.26C-1.67,8.744 -1.063,7.149 -0.615,5.466C-1.271,6.534 -2.21,7.404 -3.441,8.077C-4.666,8.753 -6.028,9.308 -7.522,9.737C-9.017,10.168 -10.572,10.463 -12.189,10.625C-13.807,10.788 -15.314,10.872 -16.703,10.872C-21.33,10.872 -25.681,10.076 -29.754,8.477C-33.832,6.881 -37.392,4.601 -40.441,1.63C-43.49,-1.341 -45.899,-4.974 -47.656,-9.272C-49.419,-13.57 -50.298,-18.422 -50.298,-23.827C-50.298,-28.784 -49.419,-33.389 -47.656,-37.647C-45.899,-41.906 -43.49,-45.588 -40.441,-48.704C-37.392,-51.814 -33.832,-54.249 -29.754,-56.012C-25.681,-57.769 -21.33,-58.652 -16.703,-58.652C-14.575,-58.652 -12.467,-58.385 -10.38,-57.852C-8.292,-57.321 -6.262,-56.583 -4.298,-55.642C-2.333,-54.699 -0.461,-53.595 1.322,-52.325C3.103,-51.055 4.769,-49.683 6.327,-48.212L12.836,-56.012L16.892,-56.012L16.892,1.354Z" style="fill:white;fill-rule:nonzero;"/>
            </g>
            <g transform="matrix(-1,0,0,1,2387.35,-41.24)">
                <rect x="1185.23" y="474.648" width="16.892" height="91.944" style="fill:white;"/>
            </g>
            <g transform="matrix(1,0,0,1,1261.57,491.753)">
                <path d="M0,0.126C0,-2.576 -0.443,-5.024 -1.323,-7.213C-2.202,-9.405 -3.4,-11.286 -4.913,-12.864C-6.429,-14.441 -8.2,-15.649 -10.226,-16.489C-12.256,-17.328 -14.413,-17.746 -16.707,-17.746C-19.001,-17.746 -21.158,-17.328 -23.185,-16.489C-25.215,-15.649 -26.973,-14.441 -28.467,-12.864C-29.965,-11.286 -31.139,-9.405 -31.999,-7.213C-32.861,-5.024 -33.287,-2.576 -33.287,0.126C-33.287,2.666 -32.861,5.017 -31.999,7.188C-31.139,9.358 -29.965,11.239 -28.467,12.839C-26.973,14.435 -25.215,15.696 -23.185,16.614C-21.158,17.537 -19.001,17.998 -16.707,17.998C-14.413,17.998 -12.256,17.567 -10.226,16.706C-8.2,15.85 -6.429,14.641 -4.913,13.085C-3.4,11.53 -2.202,9.644 -1.323,7.434C-0.443,5.224 0,2.784 0,0.126M16.888,0.126C16.888,5.039 16.008,9.614 14.246,13.85C12.484,18.09 10.09,21.756 7.062,24.845C4.029,27.938 0.479,30.372 -3.595,32.152C-7.668,33.937 -12.041,34.825 -16.707,34.825C-21.334,34.825 -25.685,33.937 -29.759,32.152C-33.832,30.372 -37.396,27.938 -40.445,24.845C-43.495,21.756 -45.899,18.09 -47.661,13.85C-49.423,9.614 -50.303,5.039 -50.303,0.126C-50.303,-4.87 -49.423,-9.497 -47.661,-13.756C-45.899,-18.014 -43.495,-21.687 -40.445,-24.781C-37.396,-27.87 -33.832,-30.296 -29.759,-32.059C-25.685,-33.816 -21.334,-34.699 -16.707,-34.699C-12.041,-34.699 -7.668,-33.869 -3.595,-32.212C0.479,-30.554 4.029,-28.198 7.062,-25.148C10.09,-22.096 12.484,-18.432 14.246,-14.155C16.008,-9.876 16.888,-5.116 16.888,0.126" style="fill:white;fill-rule:nonzero;"/>
            </g>
            <g transform="matrix(1,0,0,1,1320.22,433.408)">
                <path d="M0,91.944C-4.052,91.944 -7.862,91.174 -11.426,89.64C-14.985,88.103 -18.11,85.994 -20.79,83.313C-23.471,80.632 -25.58,77.507 -27.114,73.948C-28.651,70.384 -29.421,66.579 -29.421,62.523L-29.421,42.995L-37.585,42.995L-37.585,26.287L-29.421,26.287L-29.421,0L-12.714,0L-12.714,26.287L12.712,26.287L12.712,42.995L-12.714,42.995L-12.714,62.523C-12.714,64.285 -12.388,65.933 -11.729,67.466C-11.079,69.006 -10.174,70.345 -9.031,71.492C-7.884,72.639 -6.53,73.548 -4.976,74.225C-3.419,74.898 -1.762,75.237 0,75.237L12.712,75.237L12.712,91.944L0,91.944Z" style="fill:white;fill-rule:nonzero;"/>
            </g>
            <g transform="matrix(1,0,0,1,775.507,562.344)">
                <path d="M0,46.176L6.575,46.176C14.443,46.176 19.917,45.693 22.992,44.717C27.274,43.332 30.645,40.828 33.106,37.198C35.566,33.572 36.797,29.129 36.797,23.874C36.797,18.364 35.471,13.661 32.818,9.764C30.163,5.866 26.455,3.202 21.687,1.767C18.097,0.663 12.213,0.114 4.037,0.114L0,0.114L0,46.176ZM-5.462,51.599L-5.462,-5.423L6.345,-5.423C14.881,-5.423 21.083,-4.733 24.955,-3.349C30.465,-1.425 34.778,1.929 37.894,6.705C41.007,11.487 42.564,17.186 42.564,23.8C42.564,29.49 41.328,34.513 38.854,38.872C36.38,43.232 33.177,46.44 29.241,48.505C25.307,50.566 19.788,51.599 12.688,51.599L-5.462,51.599Z" style="fill:white;fill-rule:nonzero;"/>
            </g>
            <g transform="matrix(1,0,0,1,863.675,596.29)">
                <path d="M0,-8.455C-0.719,-11.351 -1.769,-13.667 -3.153,-15.397C-4.538,-17.125 -6.37,-18.522 -8.652,-19.587C-10.934,-20.649 -13.331,-21.186 -15.842,-21.186C-19.971,-21.186 -23.52,-19.85 -26.494,-17.186C-28.647,-15.235 -30.275,-12.327 -31.376,-8.455L0,-8.455ZM0,2.887L4.537,5.308C3.076,8.257 1.357,10.63 -0.616,12.423C-2.592,14.216 -4.808,15.582 -7.27,16.518C-9.729,17.454 -12.511,17.92 -15.611,17.92C-22.481,17.92 -27.852,15.671 -31.724,11.175C-35.593,6.675 -37.528,1.596 -37.528,-4.074C-37.528,-9.431 -35.89,-14.198 -32.606,-18.378C-28.454,-23.708 -22.878,-26.375 -15.881,-26.375C-8.728,-26.375 -3,-23.646 1.307,-18.184C4.356,-14.34 5.895,-9.545 5.921,-3.806L-31.951,-3.806C-31.851,1.116 -30.286,5.149 -27.263,8.288C-24.237,11.43 -20.51,12.999 -16.072,12.999C-13.919,12.999 -11.83,12.62 -9.805,11.864C-7.78,11.108 -6.056,10.116 -4.634,8.885C-3.21,7.654 -1.668,5.655 0,2.887" style="fill:white;fill-rule:nonzero;"/>
            </g>
            <g transform="matrix(1,0,0,1,875.71,614.249)">
                <path d="M0,-42.181L5.766,-42.181L19.878,-11.495L33.875,-42.181L39.682,-42.181L20.377,0L19.418,0L0,-42.181Z" style="fill:white;fill-rule:nonzero;"/>
            </g>
            <g transform="matrix(1,0,0,1,959.148,596.29)">
                <path d="M0,-8.455C-0.718,-11.351 -1.769,-13.667 -3.152,-15.397C-4.537,-17.125 -6.369,-18.522 -8.652,-19.587C-10.933,-20.649 -13.33,-21.186 -15.842,-21.186C-19.97,-21.186 -23.518,-19.85 -26.493,-17.186C-28.646,-15.235 -30.274,-12.327 -31.376,-8.455L0,-8.455ZM0,2.887L4.537,5.308C3.076,8.257 1.358,10.63 -0.614,12.423C-2.59,14.216 -4.807,15.582 -7.268,16.518C-9.729,17.454 -12.511,17.92 -15.61,17.92C-22.481,17.92 -27.852,15.671 -31.724,11.175C-35.592,6.675 -37.528,1.596 -37.528,-4.074C-37.528,-9.431 -35.889,-14.198 -32.605,-18.378C-28.453,-23.708 -22.876,-26.375 -15.881,-26.375C-8.727,-26.375 -2.998,-23.646 1.309,-18.184C4.357,-14.34 5.896,-9.545 5.922,-3.806L-31.951,-3.806C-31.851,1.116 -30.286,5.149 -27.263,8.288C-24.237,11.43 -20.508,12.999 -16.072,12.999C-13.919,12.999 -11.829,12.62 -9.804,11.864C-7.78,11.108 -6.055,10.116 -4.633,8.885C-3.209,7.654 -1.668,5.655 0,2.887" style="fill:white;fill-rule:nonzero;"/>
            </g>
            <g transform="matrix(1,0,0,1,0,169.859)">
                <rect x="974.336" y="385.83" width="5.463" height="58.481" style="fill:white;"/>
            </g>
            <g transform="matrix(1,0,0,1,1010.94,608.902)">
                <path d="M0,-33.679C-4.482,-33.679 -8.341,-32.013 -11.571,-28.682C-14.801,-25.347 -16.418,-21.322 -16.418,-16.606C-16.418,-13.557 -15.681,-10.704 -14.208,-8.051C-12.731,-5.401 -10.74,-3.362 -8.227,-1.938C-5.713,-0.514 -2.971,0.194 0,0.194C3.027,0.194 5.787,-0.514 8.287,-1.938C10.788,-3.362 12.766,-5.401 14.229,-8.051C15.688,-10.704 16.421,-13.557 16.421,-16.606C16.421,-21.322 14.805,-25.347 11.574,-28.682C8.345,-32.013 4.486,-33.679 0,-33.679M0,-38.987C6.485,-38.987 11.869,-36.64 16.148,-31.951C20.021,-27.646 21.959,-22.552 21.959,-16.686C21.959,-10.815 19.906,-5.683 15.807,-1.283C11.701,3.112 6.438,5.308 0,5.308C-6.46,5.308 -11.733,3.112 -15.82,-1.283C-19.911,-5.683 -21.954,-10.815 -21.954,-16.686C-21.954,-22.53 -20.017,-27.606 -16.149,-31.912C-11.865,-36.626 -6.482,-38.987 0,-38.987" style="fill:white;fill-rule:nonzero;"/>
            </g>
            <g transform="matrix(1,0,0,1,1051.97,619.48)">
                <path d="M0,-39.3C-3.229,-36.017 -4.846,-31.926 -4.846,-27.03C-4.846,-23.853 -4.13,-20.976 -2.693,-18.401C-1.256,-15.824 0.792,-13.786 3.46,-12.287C6.127,-10.784 8.943,-10.037 11.918,-10.037C14.84,-10.037 17.592,-10.784 20.167,-12.287C22.741,-13.786 24.794,-15.9 26.318,-18.629C27.844,-21.362 28.608,-24.209 28.608,-27.184C28.608,-30.207 27.848,-33.055 26.336,-35.723C24.824,-38.386 22.794,-40.469 20.241,-41.971C17.692,-43.471 14.894,-44.222 11.844,-44.222C7.177,-44.222 3.23,-42.577 0,-39.3M2.633,-47.429C5.644,-48.747 8.869,-49.41 12.305,-49.41C18.304,-49.41 23.427,-47.259 27.686,-42.952C31.938,-38.646 34.066,-33.455 34.066,-27.377C34.066,-21.199 31.952,-15.944 27.721,-11.614C23.493,-7.282 18.405,-5.115 12.458,-5.115C9.097,-5.115 6.008,-5.802 3.191,-7.172C0.37,-8.543 -2.179,-10.626 -4.459,-13.421L-4.459,10.11L-9.843,10.11L-9.843,-29.839C-9.382,-33.556 -7.997,-37.335 -5.689,-41.181C-3.154,-44.029 -0.382,-46.112 2.633,-47.429" style="fill:white;fill-rule:nonzero;"/>
            </g>
            <g transform="matrix(1,0,0,1,1132.41,596.29)">
                <path d="M0,-8.455C-0.718,-11.351 -1.768,-13.667 -3.152,-15.397C-4.537,-17.125 -6.368,-18.522 -8.653,-19.587C-10.935,-20.649 -13.33,-21.186 -15.843,-21.186C-19.97,-21.186 -23.52,-19.85 -26.494,-17.186C-28.647,-15.235 -30.274,-12.327 -31.377,-8.455L0,-8.455ZM0,2.887L4.539,5.308C3.074,8.257 1.357,10.63 -0.616,12.423C-2.59,14.216 -4.809,15.582 -7.27,16.518C-9.729,17.454 -12.512,17.92 -15.61,17.92C-22.482,17.92 -27.853,15.671 -31.724,11.175C-35.592,6.675 -37.529,1.596 -37.529,-4.074C-37.529,-9.431 -35.89,-14.198 -32.607,-18.378C-28.455,-23.708 -22.878,-26.375 -15.882,-26.375C-8.729,-26.375 -2.998,-23.646 1.309,-18.184C4.357,-14.34 5.896,-9.545 5.922,-3.806L-31.952,-3.806C-31.852,1.116 -30.287,5.149 -27.265,8.288C-24.236,11.43 -20.51,12.999 -16.071,12.999C-13.919,12.999 -11.83,12.62 -9.805,11.864C-7.779,11.108 -6.057,10.116 -4.633,8.885C-3.209,7.654 -1.666,5.655 0,2.887" style="fill:white;fill-rule:nonzero;"/>
            </g>
            <g transform="matrix(1,0,0,1,1146.36,590.064)">
                <path d="M0,4.806L0,-0.269C0.412,-2.809 1.001,-4.871 1.771,-6.461C3.563,-10.869 5.977,-14.098 8.999,-16.15C12.022,-18.199 14.537,-19.226 16.535,-19.226C18.021,-19.226 19.612,-18.739 21.304,-17.763L18.495,-13.228C16.113,-14.098 13.749,-13.396 11.403,-11.114C9.057,-8.83 7.435,-6.347 6.538,-3.653C5.871,-1.271 5.537,3.206 5.537,9.768L5.537,24.032L0,24.032L0,4.806Z" style="fill:white;fill-rule:nonzero;"/>
            </g>
            <g transform="matrix(-1,0,0,1,1361,176)">
                <rect x="604" y="410" width="153" height="4" style="fill:white;"/>
            </g>
            <g transform="matrix(-1,0,0,1,2513,176)">
                <rect x="1180" y="410" width="153" height="4" style="fill:white;"/>
            </g>
        </g>
    </g>
</svg>
