<svg width="618" height="592" viewBox="0 0 618 592" fill="none" xmlns="http://www.w3.org/2000/svg">
<g clip-path="url(#clip0_1801_5212)">
<rect x="2" y="2" width="614" height="588" rx="24" fill="#EDF1F7"/>
<rect x="2" y="2" width="614" height="588" rx="24" stroke="#2A3751" stroke-width="4"/>
<path d="M73.36 60.8C76.7733 60.8 79.5573 61.28 81.712 62.24C83.8667 63.2 85.4453 64.544 86.448 66.272C87.472 68 87.984 69.9947 87.984 72.256C87.984 74.5387 87.536 76.5013 86.64 78.144C85.744 79.7653 84.6133 81.0347 83.248 81.952C81.904 82.848 80.528 83.3493 79.12 83.456C80.5493 83.4987 82.0427 83.8827 83.6 84.608C85.1573 85.3333 86.48 86.496 87.568 88.096C88.656 89.696 89.2 91.84 89.2 94.528C89.2 97.024 88.6987 99.296 87.696 101.344C86.6933 103.371 85.0293 104.992 82.704 106.208C80.4 107.403 77.2747 108 73.328 108H53.712V60.8H73.36ZM64.592 82.56L60.848 79.488H70.16C72.3787 79.488 74 78.9973 75.024 78.016C76.0693 77.0347 76.592 75.7653 76.592 74.208C76.592 73.1627 76.368 72.288 75.92 71.584C75.4933 70.88 74.8213 70.3467 73.904 69.984C72.9867 69.6213 71.824 69.44 70.416 69.44H59.44L64.592 64.16V82.56ZM71.088 99.328C73.264 99.328 74.8853 98.816 75.952 97.792C77.0187 96.768 77.552 95.4453 77.552 93.824C77.552 92.9707 77.4027 92.192 77.104 91.488C76.8267 90.784 76.4 90.176 75.824 89.664C75.2693 89.152 74.576 88.7573 73.744 88.48C72.912 88.2027 71.9627 88.064 70.896 88.064H60.848L64.592 84.992V104.608L59.44 99.328H71.088ZM105.414 108.736C102.961 108.736 100.774 108.352 98.854 107.584C96.934 106.795 95.4193 105.653 94.31 104.16C93.2007 102.667 92.646 100.853 92.646 98.72C92.646 96.2667 93.3393 94.2827 94.726 92.768C96.1127 91.232 97.9153 90.0693 100.134 89.28C102.353 88.4693 104.699 87.9467 107.174 87.712C110.758 87.3707 113.201 87.072 114.502 86.816C115.825 86.5387 116.486 86.0693 116.486 85.408C116.486 85.3867 116.486 85.376 116.486 85.376C116.486 85.3547 116.486 85.344 116.486 85.344C116.486 84.32 115.942 83.488 114.854 82.848C113.787 82.208 112.315 81.888 110.438 81.888C108.454 81.888 106.95 82.2507 105.926 82.976C104.923 83.68 104.422 84.7573 104.422 86.208H93.158C93.158 83.4133 93.926 81.0667 95.462 79.168C97.0193 77.248 99.11 75.7973 101.734 74.816C104.358 73.8347 107.291 73.344 110.534 73.344C113.606 73.344 116.454 73.8027 119.078 74.72C121.723 75.6373 123.857 77.0347 125.478 78.912C127.121 80.7893 127.942 83.1787 127.942 86.08C127.942 86.528 127.942 86.976 127.942 87.424C127.942 87.872 127.942 88.32 127.942 88.768V100.032C127.942 100.928 127.963 101.803 128.006 102.656C128.049 103.488 128.166 104.256 128.358 104.96C128.593 105.728 128.881 106.379 129.222 106.912C129.585 107.445 129.873 107.808 130.086 108H118.918C118.747 107.829 118.491 107.499 118.15 107.008C117.83 106.517 117.553 105.952 117.318 105.312C117.041 104.459 116.838 103.637 116.71 102.848C116.582 102.037 116.518 101.077 116.518 99.968L118.95 101.632C118.353 103.104 117.371 104.373 116.006 105.44C114.662 106.507 113.073 107.328 111.238 107.904C109.403 108.459 107.462 108.736 105.414 108.736ZM108.678 100.448C110.001 100.448 111.27 100.181 112.486 99.648C113.702 99.1147 114.705 98.2613 115.494 97.088C116.283 95.9147 116.678 94.3467 116.678 92.384V90.048L119.558 92.608C118.15 93.0987 116.55 93.5147 114.758 93.856C112.966 94.176 111.217 94.4213 109.51 94.592C107.697 94.784 106.342 95.0933 105.446 95.52C104.55 95.9467 104.102 96.6507 104.102 97.632C104.102 98.5707 104.486 99.2747 105.254 99.744C106.043 100.213 107.185 100.448 108.678 100.448ZM147.801 108.8C145.774 108.8 143.801 108.565 141.881 108.096C139.982 107.627 138.254 106.923 136.697 105.984C135.161 105.024 133.923 103.829 132.985 102.4C132.067 100.971 131.609 99.3067 131.609 97.408C131.609 97.344 131.609 97.2693 131.609 97.184C131.609 97.0987 131.609 97.024 131.609 96.96H142.937C142.937 97.024 142.937 97.088 142.937 97.152C142.937 97.216 142.937 97.28 142.937 97.344C142.937 98.4107 143.395 99.1787 144.313 99.648C145.251 100.117 146.521 100.352 148.121 100.352C148.846 100.352 149.582 100.277 150.329 100.128C151.097 99.9573 151.737 99.6907 152.249 99.328C152.782 98.944 153.049 98.464 153.049 97.888C153.049 96.9707 152.494 96.32 151.385 95.936C150.297 95.552 148.451 95.1467 145.849 94.72C144.355 94.4853 142.798 94.1333 141.177 93.664C139.577 93.1947 138.083 92.5653 136.697 91.776C135.31 90.9867 134.19 89.984 133.337 88.768C132.483 87.552 132.057 86.0587 132.057 84.288C132.057 81.8773 132.782 79.872 134.233 78.272C135.683 76.6507 137.603 75.424 139.993 74.592C142.403 73.76 145.049 73.344 147.929 73.344C150.659 73.344 153.209 73.8027 155.577 74.72C157.966 75.6373 159.897 76.9493 161.369 78.656C162.862 80.3627 163.609 82.3893 163.609 84.736C163.609 84.7787 163.609 84.8427 163.609 84.928C163.609 84.992 163.609 85.056 163.609 85.12H152.409C152.409 85.056 152.409 84.992 152.409 84.928C152.409 84.864 152.409 84.8107 152.409 84.768C152.409 84.0427 152.174 83.456 151.705 83.008C151.257 82.56 150.681 82.2293 149.977 82.016C149.294 81.8027 148.59 81.696 147.865 81.696C147.246 81.696 146.574 81.7707 145.849 81.92C145.123 82.048 144.505 82.2827 143.993 82.624C143.481 82.944 143.225 83.424 143.225 84.064C143.225 84.6187 143.523 85.088 144.121 85.472C144.718 85.856 145.539 86.176 146.585 86.432C147.63 86.6667 148.825 86.8907 150.169 87.104C151.491 87.296 152.953 87.5947 154.553 88C156.153 88.4053 157.678 88.992 159.129 89.76C160.579 90.5067 161.763 91.5093 162.681 92.768C163.619 94.0267 164.089 95.6267 164.089 97.568C164.089 99.616 163.619 101.355 162.681 102.784C161.742 104.213 160.473 105.376 158.873 106.272C157.294 107.147 155.545 107.787 153.625 108.192C151.705 108.597 149.763 108.8 147.801 108.8ZM167.635 108V74.016H178.931V108H167.635ZM173.267 69.248C171.56 69.248 170.056 68.8 168.755 67.904C167.475 67.008 166.835 65.7387 166.835 64.096C166.835 62.432 167.475 61.1627 168.755 60.288C170.056 59.392 171.56 58.944 173.267 58.944C174.995 58.944 176.499 59.392 177.779 60.288C179.059 61.1627 179.699 62.432 179.699 64.096C179.699 65.76 179.059 67.04 177.779 67.936C176.499 68.8107 174.995 69.248 173.267 69.248ZM201.497 108.8C197.593 108.8 194.201 108.032 191.321 106.496C188.462 104.96 186.254 102.848 184.697 100.16C183.14 97.472 182.361 94.3787 182.361 90.88C182.361 87.36 183.14 84.288 184.697 81.664C186.254 79.04 188.462 77.0027 191.321 75.552C194.201 74.08 197.593 73.344 201.497 73.344C204.398 73.344 206.958 73.76 209.177 74.592C211.396 75.424 213.241 76.5333 214.713 77.92C216.206 79.2853 217.337 80.7893 218.105 82.432C218.873 84.0533 219.257 85.664 219.257 87.264C219.257 87.3067 219.257 87.36 219.257 87.424C219.257 87.4667 219.257 87.5093 219.257 87.552H207.961C207.961 87.424 207.95 87.3067 207.929 87.2C207.929 87.0933 207.908 86.976 207.865 86.848C207.694 86.1227 207.374 85.4187 206.905 84.736C206.436 84.032 205.753 83.456 204.857 83.008C203.982 82.5387 202.83 82.304 201.401 82.304C199.929 82.304 198.628 82.6347 197.497 83.296C196.388 83.9573 195.513 84.928 194.873 86.208C194.254 87.4667 193.945 89.024 193.945 90.88C193.945 92.672 194.254 94.2507 194.873 95.616C195.513 96.96 196.388 98.0053 197.497 98.752C198.628 99.4773 199.929 99.84 201.401 99.84C202.873 99.84 204.068 99.616 204.985 99.168C205.924 98.6987 206.628 98.08 207.097 97.312C207.566 96.5227 207.844 95.648 207.929 94.688H219.257C219.257 96.3093 218.873 97.952 218.105 99.616C217.358 101.259 216.238 102.773 214.745 104.16C213.273 105.547 211.428 106.667 209.209 107.52C206.99 108.373 204.42 108.8 201.497 108.8ZM243.37 108L236.65 60.8H248.394L252.938 105.92L251.338 105.824L258.634 60.8H272.714L279.978 105.824L278.378 105.92L282.922 60.8H294.666L287.946 108H270.474L265.098 68.416H266.25L260.874 108H243.37ZM301.759 94.272V87.136H323.039L322.079 88.8C322.079 88.6293 322.079 88.4587 322.079 88.288C322.079 88.096 322.079 87.9253 322.079 87.776C322.079 86.816 321.834 85.8667 321.343 84.928C320.853 83.968 320.074 83.1787 319.007 82.56C317.941 81.92 316.543 81.6 314.815 81.6C313.109 81.6 311.658 81.9627 310.463 82.688C309.29 83.392 308.394 84.4373 307.775 85.824C307.178 87.1893 306.879 88.8427 306.879 90.784C306.879 92.8107 307.167 94.5493 307.743 96C308.341 97.4293 309.247 98.528 310.463 99.296C311.679 100.043 313.237 100.416 315.135 100.416C316.309 100.416 317.311 100.32 318.143 100.128C318.997 99.936 319.679 99.6907 320.191 99.392C320.725 99.072 321.119 98.7307 321.375 98.368C321.653 97.984 321.823 97.6107 321.887 97.248H333.151C333.023 98.72 332.511 100.149 331.615 101.536C330.719 102.901 329.482 104.139 327.903 105.248C326.346 106.336 324.447 107.2 322.207 107.84C319.989 108.48 317.471 108.8 314.655 108.8C310.794 108.8 307.434 108.053 304.575 106.56C301.717 105.045 299.498 102.955 297.919 100.288C296.362 97.6213 295.583 94.5493 295.583 91.072C295.583 87.5307 296.383 84.4373 297.983 81.792C299.583 79.1253 301.813 77.056 304.671 75.584C307.551 74.0907 310.879 73.344 314.655 73.344C318.559 73.344 321.93 74.1013 324.767 75.616C327.605 77.1093 329.791 79.2213 331.327 81.952C332.863 84.6827 333.631 87.8933 333.631 91.584C333.631 92.16 333.621 92.6827 333.599 93.152C333.578 93.6213 333.546 93.9947 333.503 94.272H301.759ZM359.446 108.768C356.758 108.768 354.294 108.032 352.054 106.56C349.835 105.088 348.064 103.104 346.742 100.608C345.419 98.0907 344.758 95.2853 344.758 92.192C344.758 92.1067 344.758 92.0213 344.758 91.936C344.758 91.8293 344.758 91.7227 344.758 91.616L349.174 91.52C349.174 91.584 349.174 91.6587 349.174 91.744C349.174 91.808 349.174 91.8613 349.174 91.904C349.174 93.3973 349.515 94.688 350.198 95.776C350.902 96.8427 351.798 97.664 352.886 98.24C353.995 98.7947 355.136 99.072 356.31 99.072C358.208 99.072 359.894 98.4107 361.366 97.088C362.838 95.7653 363.574 93.6747 363.574 90.816C363.574 87.9573 362.838 85.8987 361.366 84.64C359.915 83.36 358.23 82.72 356.31 82.72C355.158 82.72 354.027 82.9973 352.918 83.552C351.83 84.0853 350.934 84.8747 350.23 85.92C349.526 86.944 349.174 88.2133 349.174 89.728L344.758 89.44C344.758 86.3253 345.419 83.5627 346.742 81.152C348.064 78.7413 349.835 76.8427 352.054 75.456C354.294 74.0693 356.758 73.376 359.446 73.376C362.198 73.376 364.779 74.048 367.19 75.392C369.622 76.736 371.584 78.7093 373.078 81.312C374.592 83.8933 375.35 87.0613 375.35 90.816C375.35 94.7627 374.614 98.0693 373.142 100.736C371.67 103.381 369.728 105.387 367.318 106.752C364.907 108.096 362.283 108.768 359.446 108.768ZM337.75 108V57.984H349.174V108H337.75ZM394.028 108.8C392.001 108.8 390.028 108.565 388.108 108.096C386.209 107.627 384.481 106.923 382.924 105.984C381.388 105.024 380.151 103.829 379.212 102.4C378.295 100.971 377.836 99.3067 377.836 97.408C377.836 97.344 377.836 97.2693 377.836 97.184C377.836 97.0987 377.836 97.024 377.836 96.96H389.164C389.164 97.024 389.164 97.088 389.164 97.152C389.164 97.216 389.164 97.28 389.164 97.344C389.164 98.4107 389.623 99.1787 390.54 99.648C391.479 100.117 392.748 100.352 394.348 100.352C395.073 100.352 395.809 100.277 396.556 100.128C397.324 99.9573 397.964 99.6907 398.476 99.328C399.009 98.944 399.276 98.464 399.276 97.888C399.276 96.9707 398.721 96.32 397.612 95.936C396.524 95.552 394.679 95.1467 392.076 94.72C390.583 94.4853 389.025 94.1333 387.404 93.664C385.804 93.1947 384.311 92.5653 382.924 91.776C381.537 90.9867 380.417 89.984 379.564 88.768C378.711 87.552 378.284 86.0587 378.284 84.288C378.284 81.8773 379.009 79.872 380.46 78.272C381.911 76.6507 383.831 75.424 386.22 74.592C388.631 73.76 391.276 73.344 394.156 73.344C396.887 73.344 399.436 73.8027 401.804 74.72C404.193 75.6373 406.124 76.9493 407.596 78.656C409.089 80.3627 409.836 82.3893 409.836 84.736C409.836 84.7787 409.836 84.8427 409.836 84.928C409.836 84.992 409.836 85.056 409.836 85.12H398.636C398.636 85.056 398.636 84.992 398.636 84.928C398.636 84.864 398.636 84.8107 398.636 84.768C398.636 84.0427 398.401 83.456 397.932 83.008C397.484 82.56 396.908 82.2293 396.204 82.016C395.521 81.8027 394.817 81.696 394.092 81.696C393.473 81.696 392.801 81.7707 392.076 81.92C391.351 82.048 390.732 82.2827 390.22 82.624C389.708 82.944 389.452 83.424 389.452 84.064C389.452 84.6187 389.751 85.088 390.348 85.472C390.945 85.856 391.767 86.176 392.812 86.432C393.857 86.6667 395.052 86.8907 396.396 87.104C397.719 87.296 399.18 87.5947 400.78 88C402.38 88.4053 403.905 88.992 405.356 89.76C406.807 90.5067 407.991 91.5093 408.908 92.768C409.847 94.0267 410.316 95.6267 410.316 97.568C410.316 99.616 409.847 101.355 408.908 102.784C407.969 104.213 406.7 105.376 405.1 106.272C403.521 107.147 401.772 107.787 399.852 108.192C397.932 108.597 395.991 108.8 394.028 108.8ZM413.862 108V74.016H425.158V108H413.862ZM419.494 69.248C417.787 69.248 416.283 68.8 414.982 67.904C413.702 67.008 413.062 65.7387 413.062 64.096C413.062 62.432 413.702 61.1627 414.982 60.288C416.283 59.392 417.787 58.944 419.494 58.944C421.222 58.944 422.726 59.392 424.006 60.288C425.286 61.1627 425.926 62.432 425.926 64.096C425.926 65.76 425.286 67.04 424.006 67.936C422.726 68.8107 421.222 69.248 419.494 69.248ZM448.077 108.768C446.69 108.768 445.239 108.651 443.725 108.416C442.21 108.203 440.802 107.755 439.501 107.072C438.199 106.389 437.143 105.365 436.333 104C435.522 102.635 435.117 100.821 435.117 98.56C435.117 98.0693 435.117 97.5893 435.117 97.12C435.117 96.6293 435.117 96.1387 435.117 95.648V82.656H427.405V74.016H428.589C430.061 74.016 431.234 73.952 432.109 73.824C432.983 73.696 433.634 73.376 434.061 72.864C434.487 72.352 434.765 71.5627 434.893 70.496C435.042 69.408 435.117 67.904 435.117 65.984V62.848H446.573V74.016H456.173V82.656H446.573V93.44C446.573 93.8027 446.573 94.1547 446.573 94.496C446.573 94.816 446.573 95.1467 446.573 95.488C446.573 96.832 446.733 97.952 447.053 98.848C447.373 99.744 448.205 100.192 449.549 100.192C450.295 100.192 450.999 100.117 451.661 99.968C452.322 99.8187 452.813 99.68 453.133 99.552V107.936C452.663 108.128 451.991 108.309 451.117 108.48C450.242 108.672 449.229 108.768 448.077 108.768ZM464.297 94.272V87.136H485.577L484.617 88.8C484.617 88.6293 484.617 88.4587 484.617 88.288C484.617 88.096 484.617 87.9253 484.617 87.776C484.617 86.816 484.372 85.8667 483.881 84.928C483.39 83.968 482.612 83.1787 481.545 82.56C480.478 81.92 479.081 81.6 477.353 81.6C475.646 81.6 474.196 81.9627 473.001 82.688C471.828 83.392 470.932 84.4373 470.313 85.824C469.716 87.1893 469.417 88.8427 469.417 90.784C469.417 92.8107 469.705 94.5493 470.281 96C470.878 97.4293 471.785 98.528 473.001 99.296C474.217 100.043 475.774 100.416 477.673 100.416C478.846 100.416 479.849 100.32 480.681 100.128C481.534 99.936 482.217 99.6907 482.729 99.392C483.262 99.072 483.657 98.7307 483.913 98.368C484.19 97.984 484.361 97.6107 484.425 97.248H495.689C495.561 98.72 495.049 100.149 494.153 101.536C493.257 102.901 492.02 104.139 490.441 105.248C488.884 106.336 486.985 107.2 484.745 107.84C482.526 108.48 480.009 108.8 477.193 108.8C473.332 108.8 469.972 108.053 467.113 106.56C464.254 105.045 462.036 102.955 460.457 100.288C458.9 97.6213 458.121 94.5493 458.121 91.072C458.121 87.5307 458.921 84.4373 460.521 81.792C462.121 79.1253 464.35 77.056 467.209 75.584C470.089 74.0907 473.417 73.344 477.193 73.344C481.097 73.344 484.468 74.1013 487.305 75.616C490.142 77.1093 492.329 79.2213 493.865 81.952C495.401 84.6827 496.169 87.8933 496.169 91.584C496.169 92.16 496.158 92.6827 496.137 93.152C496.116 93.6213 496.084 93.9947 496.041 94.272H464.297Z" fill="#2A3751"/>
<rect x="50" y="178" width="518" height="136" rx="12" fill="#E9D6FF"/>
<rect x="50" y="178" width="518" height="136" rx="12" stroke="#5F00B2" stroke-width="4"/>
<path d="M100.032 255V238.008H104.192V255H100.032ZM102.128 234.872C101.445 234.872 100.848 234.691 100.336 234.328C99.8347 233.955 99.584 233.437 99.584 232.776C99.584 232.125 99.8347 231.619 100.336 231.256C100.848 230.893 101.445 230.712 102.128 230.712C102.8 230.712 103.387 230.893 103.888 231.256C104.389 231.619 104.64 232.125 104.64 232.776C104.64 233.437 104.389 233.955 103.888 234.328C103.387 234.691 102.8 234.872 102.128 234.872ZM120.378 255V247.464C120.378 247.037 120.378 246.664 120.378 246.344C120.378 246.013 120.378 245.715 120.378 245.448C120.378 244.68 120.266 243.992 120.042 243.384C119.829 242.765 119.455 242.28 118.922 241.928C118.399 241.576 117.674 241.4 116.746 241.4C115.935 241.4 115.215 241.597 114.586 241.992C113.957 242.376 113.461 242.909 113.098 243.592C112.746 244.264 112.57 245.043 112.57 245.928L111.146 245.048C111.146 243.629 111.466 242.371 112.106 241.272C112.757 240.163 113.626 239.293 114.714 238.664C115.802 238.035 117.007 237.72 118.33 237.72C119.695 237.72 120.842 237.987 121.77 238.52C122.709 239.053 123.413 239.811 123.882 240.792C124.362 241.773 124.602 242.925 124.602 244.248C124.602 244.76 124.602 245.336 124.602 245.976C124.602 246.616 124.602 247.245 124.602 247.864V255H120.378ZM108.362 255V238.008H112.57V255H108.362ZM135.699 255.352C134.302 255.352 133.006 255.016 131.811 254.344C130.627 253.661 129.678 252.659 128.963 251.336C128.249 250.013 127.891 248.387 127.891 246.456C127.891 244.579 128.254 242.989 128.979 241.688C129.715 240.387 130.675 239.4 131.859 238.728C133.054 238.056 134.334 237.72 135.699 237.72C137.033 237.72 138.265 238.051 139.395 238.712C140.526 239.363 141.433 240.269 142.115 241.432C142.798 242.595 143.139 243.928 143.139 245.432C143.139 245.475 143.139 245.517 143.139 245.56C143.139 245.603 143.139 245.645 143.139 245.688L141.059 245.736C141.059 245.704 141.059 245.672 141.059 245.64C141.059 245.597 141.059 245.56 141.059 245.528C141.059 244.685 140.846 243.949 140.419 243.32C140.003 242.691 139.459 242.2 138.787 241.848C138.126 241.485 137.422 241.304 136.675 241.304C135.449 241.304 134.403 241.72 133.539 242.552C132.675 243.373 132.243 244.675 132.243 246.456C132.243 248.227 132.675 249.533 133.539 250.376C134.403 251.219 135.449 251.64 136.675 251.64C137.454 251.64 138.174 251.453 138.835 251.08C139.497 250.707 140.03 250.195 140.435 249.544C140.851 248.883 141.059 248.125 141.059 247.272L143.139 247.368C143.139 248.861 142.803 250.216 142.131 251.432C141.47 252.637 140.579 253.592 139.459 254.296C138.339 255 137.086 255.352 135.699 255.352ZM141.059 255V229.992H145.283V255H141.059ZM150.993 247.864V244.872H162.881L162.401 245.672C162.401 245.608 162.401 245.539 162.401 245.464C162.401 245.379 162.401 245.309 162.401 245.256C162.401 244.52 162.235 243.832 161.905 243.192C161.574 242.541 161.073 242.019 160.401 241.624C159.729 241.219 158.875 241.016 157.841 241.016C156.817 241.016 155.926 241.235 155.169 241.672C154.422 242.099 153.841 242.717 153.425 243.528C153.019 244.339 152.817 245.309 152.817 246.44C152.817 247.603 153.014 248.605 153.409 249.448C153.803 250.28 154.379 250.92 155.137 251.368C155.905 251.805 156.838 252.024 157.937 252.024C158.683 252.024 159.329 251.955 159.873 251.816C160.417 251.677 160.859 251.491 161.201 251.256C161.553 251.011 161.814 250.749 161.985 250.472C162.166 250.195 162.273 249.917 162.305 249.64H166.497C166.433 250.355 166.193 251.053 165.777 251.736C165.371 252.408 164.801 253.021 164.065 253.576C163.329 254.12 162.433 254.557 161.377 254.888C160.331 255.208 159.137 255.368 157.793 255.368C155.969 255.368 154.374 254.995 153.009 254.248C151.643 253.501 150.577 252.461 149.809 251.128C149.051 249.795 148.673 248.269 148.673 246.552C148.673 244.792 149.057 243.251 149.825 241.928C150.603 240.605 151.681 239.576 153.057 238.84C154.433 238.093 156.011 237.72 157.793 237.72C159.627 237.72 161.211 238.093 162.545 238.84C163.889 239.587 164.923 240.627 165.649 241.96C166.374 243.283 166.737 244.824 166.737 246.584C166.737 246.808 166.731 247.048 166.721 247.304C166.71 247.56 166.694 247.747 166.673 247.864H150.993ZM174.681 245.736L174.649 247.656L167.721 238.008H172.329L177.545 245.576L175.017 245.56L180.137 238.008H184.649L178.009 247.112L177.897 245.352L184.745 255H180.137L174.841 247.448L177.689 247.192L171.977 255H167.465L174.681 245.736ZM189.824 255.448C189.162 255.448 188.602 255.219 188.144 254.76C187.685 254.301 187.456 253.741 187.456 253.08C187.456 252.429 187.685 251.875 188.144 251.416C188.602 250.947 189.162 250.712 189.824 250.712C190.474 250.712 191.029 250.947 191.488 251.416C191.957 251.875 192.192 252.429 192.192 253.08C192.192 253.741 191.957 254.301 191.488 254.76C191.029 255.219 190.474 255.448 189.824 255.448ZM208.457 255V248.872C208.457 248.616 208.457 248.296 208.457 247.912C208.457 247.528 208.457 247.139 208.457 246.744C208.457 246.349 208.457 246.024 208.457 245.768C208.457 244.36 208.179 243.283 207.625 242.536C207.081 241.779 206.147 241.4 204.825 241.4C203.939 241.4 203.182 241.576 202.553 241.928C201.934 242.269 201.459 242.749 201.129 243.368C200.798 243.987 200.633 244.701 200.633 245.512L199.097 244.696C199.097 243.341 199.401 242.141 200.009 241.096C200.627 240.04 201.481 239.213 202.569 238.616C203.657 238.019 204.905 237.72 206.313 237.72C208.371 237.72 209.945 238.333 211.033 239.56C212.121 240.776 212.665 242.472 212.665 244.648C212.665 245.203 212.665 245.864 212.665 246.632C212.665 247.389 212.665 248.243 212.665 249.192V255H208.457ZM196.424 255V229.992H200.633V255H196.424ZM224.139 255.32C223.531 255.32 222.912 255.261 222.283 255.144C221.653 255.027 221.077 254.808 220.555 254.488C220.032 254.168 219.611 253.699 219.291 253.08C218.971 252.461 218.811 251.645 218.811 250.632C218.811 250.397 218.811 250.163 218.811 249.928C218.811 249.683 218.811 249.432 218.811 249.176V241.368H214.795V238.008H216.427C216.981 238.008 217.419 237.987 217.739 237.944C218.059 237.891 218.293 237.773 218.443 237.592C218.592 237.411 218.688 237.128 218.731 236.744C218.784 236.349 218.811 235.805 218.811 235.112V232.408H223.035V238.008H228.091V241.368H223.035V248.184C223.035 248.387 223.035 248.589 223.035 248.792C223.035 248.984 223.035 249.171 223.035 249.352C223.035 250.141 223.131 250.776 223.323 251.256C223.515 251.736 223.968 251.976 224.683 251.976C225.024 251.976 225.344 251.944 225.643 251.88C225.952 251.816 226.181 251.752 226.331 251.688V254.984C226.128 255.059 225.835 255.133 225.451 255.208C225.067 255.283 224.629 255.32 224.139 255.32ZM241.828 255V248.104C241.828 247.475 241.828 246.925 241.828 246.456C241.828 245.976 241.828 245.576 241.828 245.256C241.828 244.84 241.802 244.408 241.748 243.96C241.695 243.501 241.578 243.08 241.396 242.696C241.215 242.312 240.932 242.003 240.548 241.768C240.175 241.523 239.658 241.4 238.996 241.4C238.356 241.4 237.812 241.533 237.364 241.8C236.927 242.056 236.564 242.403 236.276 242.84C235.999 243.267 235.796 243.757 235.668 244.312C235.54 244.856 235.476 245.416 235.476 245.992L234.068 245.048C234.068 243.651 234.33 242.403 234.852 241.304C235.375 240.205 236.116 239.336 237.076 238.696C238.047 238.045 239.194 237.72 240.516 237.72C241.882 237.72 242.964 238.008 243.764 238.584C244.564 239.149 245.135 239.917 245.476 240.888C245.828 241.859 246.004 242.947 246.004 244.152C246.004 244.6 246.004 245.197 246.004 245.944C246.004 246.68 246.004 247.549 246.004 248.552V255H241.828ZM231.268 255V238.008H235.476V255H231.268ZM252.324 255V248.12C252.324 247.448 252.324 246.877 252.324 246.408C252.324 245.939 252.324 245.544 252.324 245.224C252.324 244.776 252.298 244.328 252.244 243.88C252.191 243.421 252.074 243.011 251.892 242.648C251.711 242.275 251.428 241.976 251.044 241.752C250.66 241.517 250.138 241.4 249.476 241.4C248.826 241.4 248.276 241.528 247.828 241.784C247.391 242.04 247.039 242.381 246.772 242.808C246.506 243.235 246.308 243.715 246.18 244.248C246.063 244.781 246.004 245.315 246.004 245.848L244.596 244.92C244.596 243.565 244.852 242.344 245.364 241.256C245.876 240.168 246.612 239.309 247.572 238.68C248.532 238.04 249.674 237.72 250.996 237.72C252.33 237.72 253.402 237.992 254.212 238.536C255.023 239.08 255.61 239.827 255.972 240.776C256.346 241.715 256.532 242.787 256.532 243.992C256.532 244.461 256.532 245.059 256.532 245.784C256.532 246.509 256.532 247.368 256.532 248.36V255H252.324ZM264.965 229.992V255H260.821V229.992H264.965Z" fill="#5F00B2"/>
<rect x="50" y="406" width="242" height="136" rx="12" fill="#B3F5FF"/>
<rect x="50" y="406" width="242" height="136" rx="12" stroke="#0087B8" stroke-width="4"/>
<path d="M106.976 483.352C105.963 483.352 104.997 483.24 104.08 483.016C103.173 482.792 102.363 482.456 101.648 482.008C100.944 481.56 100.384 481.005 99.968 480.344C99.5627 479.672 99.36 478.899 99.36 478.024C99.36 477.96 99.36 477.896 99.36 477.832C99.36 477.768 99.36 477.709 99.36 477.656H103.552C103.552 477.709 103.552 477.757 103.552 477.8C103.552 477.832 103.552 477.88 103.552 477.944C103.552 478.637 103.867 479.16 104.496 479.512C105.136 479.853 106.005 480.024 107.104 480.024C107.701 480.024 108.261 479.96 108.784 479.832C109.317 479.704 109.744 479.507 110.064 479.24C110.395 478.973 110.56 478.632 110.56 478.216C110.56 477.544 110.213 477.064 109.52 476.776C108.837 476.488 107.76 476.227 106.288 475.992C105.477 475.853 104.677 475.667 103.888 475.432C103.099 475.197 102.379 474.883 101.728 474.488C101.088 474.093 100.571 473.603 100.176 473.016C99.792 472.429 99.6 471.715 99.6 470.872C99.6 469.752 99.9307 468.813 100.592 468.056C101.264 467.288 102.16 466.707 103.28 466.312C104.411 465.917 105.653 465.72 107.008 465.72C108.309 465.72 109.52 465.933 110.64 466.36C111.76 466.787 112.661 467.4 113.344 468.2C114.037 469 114.384 469.965 114.384 471.096C114.384 471.139 114.384 471.187 114.384 471.24C114.384 471.283 114.384 471.32 114.384 471.352H110.224C110.224 471.32 110.224 471.288 110.224 471.256C110.224 471.224 110.224 471.187 110.224 471.144C110.224 470.653 110.069 470.253 109.76 469.944C109.451 469.635 109.051 469.405 108.56 469.256C108.069 469.107 107.552 469.032 107.008 469.032C106.528 469.032 106.032 469.085 105.52 469.192C105.008 469.288 104.581 469.464 104.24 469.72C103.899 469.965 103.728 470.312 103.728 470.76C103.728 471.187 103.904 471.533 104.256 471.8C104.608 472.067 105.099 472.291 105.728 472.472C106.357 472.643 107.083 472.797 107.904 472.936C108.683 473.064 109.467 473.24 110.256 473.464C111.056 473.688 111.787 473.987 112.448 474.36C113.109 474.733 113.643 475.224 114.048 475.832C114.464 476.429 114.672 477.171 114.672 478.056C114.672 478.995 114.459 479.795 114.032 480.456C113.605 481.117 113.024 481.667 112.288 482.104C111.563 482.531 110.741 482.845 109.824 483.048C108.907 483.251 107.957 483.352 106.976 483.352ZM125.764 483.32C125.156 483.32 124.537 483.261 123.908 483.144C123.278 483.027 122.702 482.808 122.18 482.488C121.657 482.168 121.236 481.699 120.916 481.08C120.596 480.461 120.436 479.645 120.436 478.632C120.436 478.397 120.436 478.163 120.436 477.928C120.436 477.683 120.436 477.432 120.436 477.176V469.368H116.42V466.008H118.052C118.606 466.008 119.044 465.987 119.364 465.944C119.684 465.891 119.918 465.773 120.068 465.592C120.217 465.411 120.313 465.128 120.356 464.744C120.409 464.349 120.436 463.805 120.436 463.112V460.408H124.66V466.008H129.716V469.368H124.66V476.184C124.66 476.387 124.66 476.589 124.66 476.792C124.66 476.984 124.66 477.171 124.66 477.352C124.66 478.141 124.756 478.776 124.948 479.256C125.14 479.736 125.593 479.976 126.308 479.976C126.649 479.976 126.969 479.944 127.268 479.88C127.577 479.816 127.806 479.752 127.956 479.688V482.984C127.753 483.059 127.46 483.133 127.076 483.208C126.692 483.283 126.254 483.32 125.764 483.32ZM133.997 490.296C133.496 490.296 133.048 490.269 132.653 490.216C132.259 490.173 132.013 490.131 131.917 490.088V486.808C132.056 486.872 132.291 486.92 132.621 486.952C132.963 486.995 133.315 487.016 133.677 487.016C134.264 487.016 134.771 486.899 135.197 486.664C135.635 486.429 136.008 486.104 136.317 485.688C136.627 485.283 136.872 484.808 137.053 484.264L137.421 483.192L131.565 466.008H135.965L139.981 480.184H139.469L143.389 466.008H147.709L141.757 484.04C141.341 485.288 140.835 486.381 140.237 487.32C139.651 488.259 138.867 488.989 137.885 489.512C136.904 490.035 135.608 490.296 133.997 490.296ZM154.809 457.992V483H150.664V457.992H154.809ZM160.68 475.864V472.872H172.568L172.088 473.672C172.088 473.608 172.088 473.539 172.088 473.464C172.088 473.379 172.088 473.309 172.088 473.256C172.088 472.52 171.923 471.832 171.592 471.192C171.261 470.541 170.76 470.019 170.088 469.624C169.416 469.219 168.563 469.016 167.528 469.016C166.504 469.016 165.613 469.235 164.856 469.672C164.109 470.099 163.528 470.717 163.112 471.528C162.707 472.339 162.504 473.309 162.504 474.44C162.504 475.603 162.701 476.605 163.096 477.448C163.491 478.28 164.067 478.92 164.824 479.368C165.592 479.805 166.525 480.024 167.624 480.024C168.371 480.024 169.016 479.955 169.56 479.816C170.104 479.677 170.547 479.491 170.888 479.256C171.24 479.011 171.501 478.749 171.672 478.472C171.853 478.195 171.96 477.917 171.992 477.64H176.184C176.12 478.355 175.88 479.053 175.464 479.736C175.059 480.408 174.488 481.021 173.752 481.576C173.016 482.12 172.12 482.557 171.064 482.888C170.019 483.208 168.824 483.368 167.48 483.368C165.656 483.368 164.061 482.995 162.696 482.248C161.331 481.501 160.264 480.461 159.496 479.128C158.739 477.795 158.36 476.269 158.36 474.552C158.36 472.792 158.744 471.251 159.512 469.928C160.291 468.605 161.368 467.576 162.744 466.84C164.12 466.093 165.699 465.72 167.48 465.72C169.315 465.72 170.899 466.093 172.232 466.84C173.576 467.587 174.611 468.627 175.336 469.96C176.061 471.283 176.424 472.824 176.424 474.584C176.424 474.808 176.419 475.048 176.408 475.304C176.397 475.56 176.381 475.747 176.36 475.864H160.68ZM182.261 483.448C181.6 483.448 181.04 483.219 180.581 482.76C180.123 482.301 179.893 481.741 179.893 481.08C179.893 480.429 180.123 479.875 180.581 479.416C181.04 478.947 181.6 478.712 182.261 478.712C182.912 478.712 183.467 478.947 183.925 479.416C184.395 479.875 184.629 480.429 184.629 481.08C184.629 481.741 184.395 482.301 183.925 482.76C183.467 483.219 182.912 483.448 182.261 483.448ZM197.262 483.352C195.47 483.352 193.886 482.984 192.51 482.248C191.134 481.512 190.057 480.477 189.278 479.144C188.499 477.811 188.11 476.248 188.11 474.456C188.11 472.675 188.499 471.128 189.278 469.816C190.057 468.504 191.134 467.496 192.51 466.792C193.886 466.077 195.47 465.72 197.262 465.72C198.606 465.72 199.795 465.917 200.83 466.312C201.865 466.707 202.734 467.235 203.438 467.896C204.153 468.547 204.697 469.267 205.07 470.056C205.443 470.835 205.63 471.613 205.63 472.392C205.63 472.413 205.63 472.435 205.63 472.456C205.63 472.477 205.63 472.499 205.63 472.52H201.454C201.454 472.467 201.449 472.408 201.438 472.344C201.427 472.28 201.417 472.216 201.406 472.152C201.321 471.608 201.102 471.117 200.75 470.68C200.398 470.232 199.929 469.875 199.342 469.608C198.755 469.341 198.046 469.208 197.214 469.208C196.329 469.208 195.518 469.405 194.782 469.8C194.057 470.184 193.475 470.765 193.038 471.544C192.611 472.323 192.398 473.293 192.398 474.456C192.398 475.608 192.611 476.589 193.038 477.4C193.465 478.2 194.041 478.813 194.766 479.24C195.502 479.656 196.318 479.864 197.214 479.864C198.163 479.864 198.937 479.72 199.534 479.432C200.142 479.133 200.601 478.739 200.91 478.248C201.219 477.747 201.395 477.203 201.438 476.616H205.63C205.63 477.405 205.449 478.2 205.086 479C204.723 479.789 204.19 480.515 203.486 481.176C202.782 481.837 201.907 482.365 200.862 482.76C199.827 483.155 198.627 483.352 197.262 483.352ZM215.976 483.352C214.963 483.352 213.997 483.24 213.08 483.016C212.173 482.792 211.363 482.456 210.648 482.008C209.944 481.56 209.384 481.005 208.968 480.344C208.563 479.672 208.36 478.899 208.36 478.024C208.36 477.96 208.36 477.896 208.36 477.832C208.36 477.768 208.36 477.709 208.36 477.656H212.552C212.552 477.709 212.552 477.757 212.552 477.8C212.552 477.832 212.552 477.88 212.552 477.944C212.552 478.637 212.867 479.16 213.496 479.512C214.136 479.853 215.005 480.024 216.104 480.024C216.701 480.024 217.261 479.96 217.784 479.832C218.317 479.704 218.744 479.507 219.064 479.24C219.395 478.973 219.56 478.632 219.56 478.216C219.56 477.544 219.213 477.064 218.52 476.776C217.837 476.488 216.76 476.227 215.288 475.992C214.477 475.853 213.677 475.667 212.888 475.432C212.099 475.197 211.379 474.883 210.728 474.488C210.088 474.093 209.571 473.603 209.176 473.016C208.792 472.429 208.6 471.715 208.6 470.872C208.6 469.752 208.931 468.813 209.592 468.056C210.264 467.288 211.16 466.707 212.28 466.312C213.411 465.917 214.653 465.72 216.008 465.72C217.309 465.72 218.52 465.933 219.64 466.36C220.76 466.787 221.661 467.4 222.344 468.2C223.037 469 223.384 469.965 223.384 471.096C223.384 471.139 223.384 471.187 223.384 471.24C223.384 471.283 223.384 471.32 223.384 471.352H219.224C219.224 471.32 219.224 471.288 219.224 471.256C219.224 471.224 219.224 471.187 219.224 471.144C219.224 470.653 219.069 470.253 218.76 469.944C218.451 469.635 218.051 469.405 217.56 469.256C217.069 469.107 216.552 469.032 216.008 469.032C215.528 469.032 215.032 469.085 214.52 469.192C214.008 469.288 213.581 469.464 213.24 469.72C212.899 469.965 212.728 470.312 212.728 470.76C212.728 471.187 212.904 471.533 213.256 471.8C213.608 472.067 214.099 472.291 214.728 472.472C215.357 472.643 216.083 472.797 216.904 472.936C217.683 473.064 218.467 473.24 219.256 473.464C220.056 473.688 220.787 473.987 221.448 474.36C222.109 474.733 222.643 475.224 223.048 475.832C223.464 476.429 223.672 477.171 223.672 478.056C223.672 478.995 223.459 479.795 223.032 480.456C222.605 481.117 222.024 481.667 221.288 482.104C220.563 482.531 219.741 482.845 218.824 483.048C217.907 483.251 216.957 483.352 215.976 483.352ZM234.007 483.352C232.994 483.352 232.029 483.24 231.111 483.016C230.205 482.792 229.394 482.456 228.679 482.008C227.975 481.56 227.415 481.005 226.999 480.344C226.594 479.672 226.391 478.899 226.391 478.024C226.391 477.96 226.391 477.896 226.391 477.832C226.391 477.768 226.391 477.709 226.391 477.656H230.583C230.583 477.709 230.583 477.757 230.583 477.8C230.583 477.832 230.583 477.88 230.583 477.944C230.583 478.637 230.898 479.16 231.527 479.512C232.167 479.853 233.037 480.024 234.135 480.024C234.733 480.024 235.293 479.96 235.815 479.832C236.349 479.704 236.775 479.507 237.095 479.24C237.426 478.973 237.591 478.632 237.591 478.216C237.591 477.544 237.245 477.064 236.551 476.776C235.869 476.488 234.791 476.227 233.319 475.992C232.509 475.853 231.709 475.667 230.919 475.432C230.13 475.197 229.41 474.883 228.759 474.488C228.119 474.093 227.602 473.603 227.207 473.016C226.823 472.429 226.631 471.715 226.631 470.872C226.631 469.752 226.962 468.813 227.623 468.056C228.295 467.288 229.191 466.707 230.311 466.312C231.442 465.917 232.685 465.72 234.039 465.72C235.341 465.72 236.551 465.933 237.671 466.36C238.791 466.787 239.693 467.4 240.375 468.2C241.069 469 241.415 469.965 241.415 471.096C241.415 471.139 241.415 471.187 241.415 471.24C241.415 471.283 241.415 471.32 241.415 471.352H237.255C237.255 471.32 237.255 471.288 237.255 471.256C237.255 471.224 237.255 471.187 237.255 471.144C237.255 470.653 237.101 470.253 236.791 469.944C236.482 469.635 236.082 469.405 235.591 469.256C235.101 469.107 234.583 469.032 234.039 469.032C233.559 469.032 233.063 469.085 232.551 469.192C232.039 469.288 231.613 469.464 231.271 469.72C230.93 469.965 230.759 470.312 230.759 470.76C230.759 471.187 230.935 471.533 231.287 471.8C231.639 472.067 232.13 472.291 232.759 472.472C233.389 472.643 234.114 472.797 234.935 472.936C235.714 473.064 236.498 473.24 237.287 473.464C238.087 473.688 238.818 473.987 239.479 474.36C240.141 474.733 240.674 475.224 241.079 475.832C241.495 476.429 241.703 477.171 241.703 478.056C241.703 478.995 241.49 479.795 241.063 480.456C240.637 481.117 240.055 481.667 239.319 482.104C238.594 482.531 237.773 482.845 236.855 483.048C235.938 483.251 234.989 483.352 234.007 483.352Z" fill="#005885"/>
<rect x="340" y="406" width="228" height="136" rx="12" fill="#F9F89D"/>
<rect x="340" y="406" width="228" height="136" rx="12" stroke="#675F11" stroke-width="4"/>
<path d="M396.976 483.352C395.963 483.352 394.997 483.24 394.08 483.016C393.173 482.792 392.363 482.456 391.648 482.008C390.944 481.56 390.384 481.005 389.968 480.344C389.563 479.672 389.36 478.899 389.36 478.024C389.36 477.96 389.36 477.896 389.36 477.832C389.36 477.768 389.36 477.709 389.36 477.656H393.552C393.552 477.709 393.552 477.757 393.552 477.8C393.552 477.832 393.552 477.88 393.552 477.944C393.552 478.637 393.867 479.16 394.496 479.512C395.136 479.853 396.005 480.024 397.104 480.024C397.701 480.024 398.261 479.96 398.784 479.832C399.317 479.704 399.744 479.507 400.064 479.24C400.395 478.973 400.56 478.632 400.56 478.216C400.56 477.544 400.213 477.064 399.52 476.776C398.837 476.488 397.76 476.227 396.288 475.992C395.477 475.853 394.677 475.667 393.888 475.432C393.099 475.197 392.379 474.883 391.728 474.488C391.088 474.093 390.571 473.603 390.176 473.016C389.792 472.429 389.6 471.715 389.6 470.872C389.6 469.752 389.931 468.813 390.592 468.056C391.264 467.288 392.16 466.707 393.28 466.312C394.411 465.917 395.653 465.72 397.008 465.72C398.309 465.72 399.52 465.933 400.64 466.36C401.76 466.787 402.661 467.4 403.344 468.2C404.037 469 404.384 469.965 404.384 471.096C404.384 471.139 404.384 471.187 404.384 471.24C404.384 471.283 404.384 471.32 404.384 471.352H400.224C400.224 471.32 400.224 471.288 400.224 471.256C400.224 471.224 400.224 471.187 400.224 471.144C400.224 470.653 400.069 470.253 399.76 469.944C399.451 469.635 399.051 469.405 398.56 469.256C398.069 469.107 397.552 469.032 397.008 469.032C396.528 469.032 396.032 469.085 395.52 469.192C395.008 469.288 394.581 469.464 394.24 469.72C393.899 469.965 393.728 470.312 393.728 470.76C393.728 471.187 393.904 471.533 394.256 471.8C394.608 472.067 395.099 472.291 395.728 472.472C396.357 472.643 397.083 472.797 397.904 472.936C398.683 473.064 399.467 473.24 400.256 473.464C401.056 473.688 401.787 473.987 402.448 474.36C403.109 474.733 403.643 475.224 404.048 475.832C404.464 476.429 404.672 477.171 404.672 478.056C404.672 478.995 404.459 479.795 404.032 480.456C403.605 481.117 403.024 481.667 402.288 482.104C401.563 482.531 400.741 482.845 399.824 483.048C398.907 483.251 397.957 483.352 396.976 483.352ZM416.543 483.352C414.751 483.352 413.167 482.984 411.791 482.248C410.415 481.512 409.338 480.477 408.559 479.144C407.781 477.811 407.391 476.248 407.391 474.456C407.391 472.675 407.781 471.128 408.559 469.816C409.338 468.504 410.415 467.496 411.791 466.792C413.167 466.077 414.751 465.72 416.543 465.72C417.887 465.72 419.077 465.917 420.111 466.312C421.146 466.707 422.015 467.235 422.719 467.896C423.434 468.547 423.978 469.267 424.351 470.056C424.725 470.835 424.911 471.613 424.911 472.392C424.911 472.413 424.911 472.435 424.911 472.456C424.911 472.477 424.911 472.499 424.911 472.52H420.735C420.735 472.467 420.73 472.408 420.719 472.344C420.709 472.28 420.698 472.216 420.687 472.152C420.602 471.608 420.383 471.117 420.031 470.68C419.679 470.232 419.21 469.875 418.623 469.608C418.037 469.341 417.327 469.208 416.495 469.208C415.61 469.208 414.799 469.405 414.063 469.8C413.338 470.184 412.757 470.765 412.319 471.544C411.893 472.323 411.679 473.293 411.679 474.456C411.679 475.608 411.893 476.589 412.319 477.4C412.746 478.2 413.322 478.813 414.047 479.24C414.783 479.656 415.599 479.864 416.495 479.864C417.445 479.864 418.218 479.72 418.815 479.432C419.423 479.133 419.882 478.739 420.191 478.248C420.501 477.747 420.677 477.203 420.719 476.616H424.911C424.911 477.405 424.73 478.2 424.367 479C424.005 479.789 423.471 480.515 422.767 481.176C422.063 481.837 421.189 482.365 420.143 482.76C419.109 483.155 417.909 483.352 416.543 483.352ZM428.393 483V466.008H432.601V471.656L431.625 471.112C431.732 470.376 431.929 469.683 432.217 469.032C432.505 468.371 432.889 467.795 433.369 467.304C433.849 466.803 434.431 466.413 435.113 466.136C435.796 465.859 436.575 465.72 437.449 465.72C438.143 465.72 438.687 465.773 439.081 465.88C439.487 465.976 439.737 466.056 439.833 466.12L439.065 469.976C438.959 469.901 438.74 469.811 438.409 469.704C438.089 469.587 437.657 469.528 437.113 469.528C436.249 469.528 435.524 469.677 434.937 469.976C434.361 470.264 433.903 470.659 433.561 471.16C433.22 471.651 432.975 472.195 432.825 472.792C432.676 473.379 432.601 473.965 432.601 474.552V483H428.393ZM442.407 483V466.008H446.567V483H442.407ZM444.503 462.872C443.82 462.872 443.223 462.691 442.711 462.328C442.21 461.955 441.959 461.437 441.959 460.776C441.959 460.125 442.21 459.619 442.711 459.256C443.223 458.893 443.82 458.712 444.503 458.712C445.175 458.712 445.762 458.893 446.263 459.256C446.764 459.619 447.015 460.125 447.015 460.776C447.015 461.437 446.764 461.955 446.263 462.328C445.762 462.691 445.175 462.872 444.503 462.872ZM450.737 489.992V466.008H454.945V489.992H450.737ZM460.305 483.352C458.982 483.352 457.756 483.011 456.625 482.328C455.505 481.635 454.598 480.691 453.905 479.496C453.222 478.301 452.881 476.957 452.881 475.464C452.881 475.421 452.881 475.384 452.881 475.352C452.881 475.309 452.881 475.272 452.881 475.24L454.961 475.192C454.961 475.213 454.961 475.24 454.961 475.272C454.961 475.304 454.961 475.331 454.961 475.352C454.961 476.184 455.169 476.925 455.585 477.576C456.001 478.216 456.54 478.723 457.201 479.096C457.873 479.459 458.588 479.64 459.345 479.64C460.572 479.64 461.617 479.219 462.481 478.376C463.345 477.533 463.777 476.227 463.777 474.456C463.777 472.675 463.345 471.373 462.481 470.552C461.628 469.72 460.582 469.304 459.345 469.304C458.598 469.304 457.889 469.485 457.217 469.848C456.556 470.2 456.012 470.691 455.585 471.32C455.169 471.949 454.961 472.685 454.961 473.528L452.881 473.432C452.881 471.928 453.222 470.595 453.905 469.432C454.598 468.269 455.505 467.363 456.625 466.712C457.756 466.051 458.982 465.72 460.305 465.72C461.681 465.72 462.961 466.056 464.145 466.728C465.34 467.4 466.3 468.387 467.025 469.688C467.761 470.989 468.129 472.579 468.129 474.456C468.129 476.387 467.772 478.013 467.057 479.336C466.342 480.659 465.393 481.661 464.209 482.344C463.025 483.016 461.724 483.352 460.305 483.352ZM479.233 483.32C478.625 483.32 478.006 483.261 477.377 483.144C476.747 483.027 476.171 482.808 475.649 482.488C475.126 482.168 474.705 481.699 474.385 481.08C474.065 480.461 473.905 479.645 473.905 478.632C473.905 478.397 473.905 478.163 473.905 477.928C473.905 477.683 473.905 477.432 473.905 477.176V469.368H469.889V466.008H471.521C472.075 466.008 472.513 465.987 472.833 465.944C473.153 465.891 473.387 465.773 473.536 465.592C473.686 465.411 473.782 465.128 473.825 464.744C473.878 464.349 473.905 463.805 473.905 463.112V460.408H478.128V466.008H483.185V469.368H478.128V476.184C478.128 476.387 478.128 476.589 478.128 476.792C478.128 476.984 478.128 477.171 478.128 477.352C478.128 478.141 478.225 478.776 478.417 479.256C478.609 479.736 479.062 479.976 479.777 479.976C480.118 479.976 480.438 479.944 480.737 479.88C481.046 479.816 481.275 479.752 481.425 479.688V482.984C481.222 483.059 480.929 483.133 480.545 483.208C480.161 483.283 479.723 483.32 479.233 483.32ZM488.73 483.448C488.069 483.448 487.509 483.219 487.05 482.76C486.591 482.301 486.362 481.741 486.362 481.08C486.362 480.429 486.591 479.875 487.05 479.416C487.509 478.947 488.069 478.712 488.73 478.712C489.381 478.712 489.935 478.947 490.394 479.416C490.863 479.875 491.098 480.429 491.098 481.08C491.098 481.741 490.863 482.301 490.394 482.76C489.935 483.219 489.381 483.448 488.73 483.448ZM492.755 490.248C492.445 490.248 492.152 490.237 491.875 490.216C491.597 490.205 491.368 490.184 491.187 490.152V487.016C491.357 487.059 491.587 487.096 491.875 487.128C492.152 487.16 492.445 487.176 492.755 487.176C493.352 487.176 493.827 487.091 494.179 486.92C494.531 486.749 494.792 486.525 494.963 486.248C495.144 485.971 495.267 485.667 495.331 485.336C495.395 485.016 495.427 484.696 495.427 484.376V466.008H499.635V484.504C499.635 485.208 499.549 485.896 499.379 486.568C499.219 487.251 498.904 487.869 498.435 488.424C497.976 488.979 497.288 489.421 496.371 489.752C495.464 490.083 494.259 490.248 492.755 490.248ZM497.587 462.872C496.904 462.872 496.307 462.691 495.795 462.328C495.293 461.955 495.043 461.437 495.043 460.776C495.043 460.125 495.293 459.619 495.795 459.256C496.307 458.893 496.904 458.712 497.587 458.712C498.269 458.712 498.861 458.893 499.363 459.256C499.864 459.619 500.115 460.125 500.115 460.776C500.115 461.437 499.864 461.955 499.363 462.328C498.861 462.691 498.269 462.872 497.587 462.872ZM510.695 483.352C509.681 483.352 508.716 483.24 507.799 483.016C506.892 482.792 506.081 482.456 505.367 482.008C504.663 481.56 504.103 481.005 503.687 480.344C503.281 479.672 503.079 478.899 503.079 478.024C503.079 477.96 503.079 477.896 503.079 477.832C503.079 477.768 503.079 477.709 503.079 477.656H507.271C507.271 477.709 507.271 477.757 507.271 477.8C507.271 477.832 507.271 477.88 507.271 477.944C507.271 478.637 507.585 479.16 508.215 479.512C508.855 479.853 509.724 480.024 510.823 480.024C511.42 480.024 511.98 479.96 512.503 479.832C513.036 479.704 513.463 479.507 513.783 479.24C514.113 478.973 514.279 478.632 514.279 478.216C514.279 477.544 513.932 477.064 513.239 476.776C512.556 476.488 511.479 476.227 510.007 475.992C509.196 475.853 508.396 475.667 507.607 475.432C506.817 475.197 506.097 474.883 505.447 474.488C504.807 474.093 504.289 473.603 503.895 473.016C503.511 472.429 503.319 471.715 503.319 470.872C503.319 469.752 503.649 468.813 504.311 468.056C504.983 467.288 505.879 466.707 506.999 466.312C508.129 465.917 509.372 465.72 510.727 465.72C512.028 465.72 513.239 465.933 514.359 466.36C515.479 466.787 516.38 467.4 517.063 468.2C517.756 469 518.103 469.965 518.103 471.096C518.103 471.139 518.103 471.187 518.103 471.24C518.103 471.283 518.103 471.32 518.103 471.352H513.943C513.943 471.32 513.943 471.288 513.943 471.256C513.943 471.224 513.943 471.187 513.943 471.144C513.943 470.653 513.788 470.253 513.479 469.944C513.169 469.635 512.769 469.405 512.279 469.256C511.788 469.107 511.271 469.032 510.727 469.032C510.247 469.032 509.751 469.085 509.239 469.192C508.727 469.288 508.3 469.464 507.959 469.72C507.617 469.965 507.447 470.312 507.447 470.76C507.447 471.187 507.623 471.533 507.975 471.8C508.327 472.067 508.817 472.291 509.447 472.472C510.076 472.643 510.801 472.797 511.623 472.936C512.401 473.064 513.185 473.24 513.975 473.464C514.775 473.688 515.505 473.987 516.167 474.36C516.828 474.733 517.361 475.224 517.767 475.832C518.183 476.429 518.391 477.171 518.391 478.056C518.391 478.995 518.177 479.795 517.751 480.456C517.324 481.117 516.743 481.667 516.007 482.104C515.281 482.531 514.46 482.845 513.543 483.048C512.625 483.251 511.676 483.352 510.695 483.352Z" fill="#675F11"/>
<path d="M175 331C175 328.791 173.209 327 171 327C168.791 327 167 328.791 167 331L175 331ZM168.172 391.828C169.734 393.391 172.266 393.391 173.828 391.828L199.284 366.373C200.846 364.81 200.846 362.278 199.284 360.716C197.722 359.154 195.19 359.154 193.627 360.716L171 383.343L148.373 360.716C146.81 359.154 144.278 359.154 142.716 360.716C141.154 362.278 141.154 364.81 142.716 366.373L168.172 391.828ZM167 331L167 389L175 389L175 331L167 331Z" fill="#2A3751"/>
<path d="M458 331C458 328.791 456.209 327 454 327C451.791 327 450 328.791 450 331L458 331ZM451.172 391.828C452.734 393.391 455.266 393.391 456.828 391.828L482.284 366.373C483.846 364.81 483.846 362.278 482.284 360.716C480.722 359.154 478.19 359.154 476.627 360.716L454 383.343L431.373 360.716C429.81 359.154 427.278 359.154 425.716 360.716C424.154 362.278 424.154 364.81 425.716 366.373L451.172 391.828ZM450 331L450 389L458 389L458 331L450 331Z" fill="#2A3751"/>
</g>
<defs>
<clipPath id="clip0_1801_5212">
<rect width="618" height="592" fill="white"/>
</clipPath>
</defs>
</svg>
