<svg width="716" height="560" viewBox="0 0 716 560" fill="none" xmlns="http://www.w3.org/2000/svg">
<rect width="716" height="560" fill="white"/>
<path d="M302 65H414C422.284 65 429 71.7157 429 80V144C429 152.284 422.284 159 414 159H302C293.716 159 287 152.284 287 144V80C287 71.7157 293.716 65 302 65Z" fill="#FFEBF7"/>
<path d="M302 65H414C422.284 65 429 71.7157 429 80V144C429 152.284 422.284 159 414 159H302C293.716 159 287 152.284 287 144V80C287 71.7157 293.716 65 302 65Z" stroke="#FFADF3" stroke-width="2"/>
<path d="M348.857 117.168C347.914 117.168 347.074 116.953 346.337 116.524C345.609 116.085 345.035 115.488 344.615 114.732C344.204 113.967 343.999 113.089 343.999 112.1C343.999 111.111 344.204 110.238 344.615 109.482C345.035 108.717 345.609 108.119 346.337 107.69C347.065 107.251 347.9 107.032 348.843 107.032C349.478 107.032 350.075 107.149 350.635 107.382C351.195 107.606 351.69 107.919 352.119 108.32C352.558 108.721 352.894 109.188 353.127 109.72L351.643 110.322C351.475 109.967 351.246 109.655 350.957 109.384C350.677 109.104 350.355 108.889 349.991 108.74C349.627 108.591 349.244 108.516 348.843 108.516C348.227 108.516 347.676 108.67 347.191 108.978C346.715 109.286 346.337 109.711 346.057 110.252C345.786 110.784 345.651 111.4 345.651 112.1C345.651 112.8 345.786 113.421 346.057 113.962C346.337 114.503 346.72 114.928 347.205 115.236C347.7 115.544 348.26 115.698 348.885 115.698C349.296 115.698 349.678 115.619 350.033 115.46C350.397 115.292 350.719 115.063 350.999 114.774C351.288 114.485 351.517 114.149 351.685 113.766L353.169 114.368C352.936 114.919 352.604 115.409 352.175 115.838C351.746 116.258 351.246 116.585 350.677 116.818C350.108 117.051 349.501 117.168 348.857 117.168ZM356.762 117V108.684H353.752V107.2H361.396V108.684H358.386V117H356.762ZM367.098 117.168C366.127 117.168 365.269 116.953 364.522 116.524C363.775 116.095 363.187 115.497 362.758 114.732C362.338 113.967 362.128 113.089 362.128 112.1C362.128 111.111 362.338 110.238 362.758 109.482C363.187 108.717 363.771 108.119 364.508 107.69C365.245 107.251 366.095 107.032 367.056 107.032C368.027 107.032 368.881 107.251 369.618 107.69C370.365 108.119 370.943 108.717 371.354 109.482C371.774 110.238 371.984 111.111 371.984 112.1C371.984 113.089 371.774 113.967 371.354 114.732C370.943 115.497 370.369 116.095 369.632 116.524C368.904 116.953 368.059 117.168 367.098 117.168ZM367.098 115.684C367.733 115.684 368.293 115.53 368.778 115.222C369.263 114.914 369.641 114.494 369.912 113.962C370.192 113.421 370.332 112.8 370.332 112.1C370.332 111.409 370.192 110.793 369.912 110.252C369.632 109.711 369.245 109.291 368.75 108.992C368.265 108.684 367.7 108.53 367.056 108.53C366.421 108.53 365.857 108.684 365.362 108.992C364.877 109.291 364.489 109.711 364.2 110.252C363.92 110.784 363.78 111.4 363.78 112.1C363.78 112.8 363.92 113.421 364.2 113.962C364.489 114.494 364.881 114.914 365.376 115.222C365.88 115.53 366.454 115.684 367.098 115.684Z" fill="#531350"/>
<path d="M195 233H306C314.284 233 321 239.716 321 248V312C321 320.284 314.284 327 306 327H195C186.716 327 180 320.284 180 312V248C180 239.716 186.716 233 195 233Z" fill="#FFEBF7"/>
<path d="M195 233H306C314.284 233 321 239.716 321 248V312C321 320.284 314.284 327 306 327H195C186.716 327 180 320.284 180 312V248C180 239.716 186.716 233 195 233Z" stroke="#FFADF3" stroke-width="2"/>
<path d="M217.086 275V265.2H220.166C221.127 265.2 221.976 265.41 222.714 265.83C223.46 266.241 224.044 266.815 224.464 267.552C224.893 268.289 225.108 269.139 225.108 270.1C225.108 271.052 224.893 271.897 224.464 272.634C224.044 273.371 223.46 273.95 222.714 274.37C221.976 274.79 221.127 275 220.166 275H217.086ZM218.71 273.488H220.166C220.623 273.488 221.052 273.404 221.454 273.236C221.855 273.059 222.205 272.816 222.504 272.508C222.802 272.2 223.036 271.841 223.204 271.43C223.372 271.019 223.456 270.576 223.456 270.1C223.456 269.624 223.372 269.181 223.204 268.77C223.036 268.359 222.802 268 222.504 267.692C222.205 267.384 221.855 267.146 221.454 266.978C221.052 266.801 220.623 266.712 220.166 266.712H218.71V273.488ZM226.624 275V268H228.178V275H226.624ZM227.408 266.67C227.156 266.67 226.937 266.581 226.75 266.404C226.573 266.217 226.484 265.998 226.484 265.746C226.484 265.494 226.573 265.279 226.75 265.102C226.937 264.925 227.156 264.836 227.408 264.836C227.66 264.836 227.875 264.925 228.052 265.102C228.239 265.279 228.332 265.494 228.332 265.746C228.332 265.998 228.239 266.217 228.052 266.404C227.875 266.581 227.66 266.67 227.408 266.67ZM231.062 271.276C231.062 270.52 231.207 269.899 231.496 269.414C231.786 268.929 232.159 268.569 232.616 268.336C233.083 268.093 233.568 267.972 234.072 267.972V269.47C233.643 269.47 233.237 269.531 232.854 269.652C232.481 269.764 232.178 269.951 231.944 270.212C231.711 270.473 231.594 270.819 231.594 271.248L231.062 271.276ZM230.026 275V268H231.594V275H230.026ZM238.234 275.168C237.553 275.168 236.946 275.014 236.414 274.706C235.891 274.389 235.476 273.955 235.168 273.404C234.869 272.853 234.72 272.219 234.72 271.5C234.72 270.781 234.874 270.147 235.182 269.596C235.49 269.045 235.91 268.616 236.442 268.308C236.983 267.991 237.599 267.832 238.29 267.832C238.915 267.832 239.48 267.995 239.984 268.322C240.488 268.639 240.885 269.101 241.174 269.708C241.473 270.315 241.622 271.038 241.622 271.878H236.12L236.33 271.682C236.33 272.111 236.423 272.485 236.61 272.802C236.797 273.11 237.044 273.348 237.352 273.516C237.66 273.684 238.001 273.768 238.374 273.768C238.803 273.768 239.158 273.675 239.438 273.488C239.718 273.292 239.937 273.04 240.096 272.732L241.482 273.32C241.286 273.693 241.034 274.02 240.726 274.3C240.427 274.58 240.068 274.795 239.648 274.944C239.237 275.093 238.766 275.168 238.234 275.168ZM236.428 270.87L236.204 270.674H240.152L239.942 270.87C239.942 270.487 239.858 270.175 239.69 269.932C239.522 269.68 239.307 269.493 239.046 269.372C238.794 269.241 238.528 269.176 238.248 269.176C237.968 269.176 237.688 269.241 237.408 269.372C237.128 269.493 236.895 269.68 236.708 269.932C236.521 270.175 236.428 270.487 236.428 270.87ZM246.099 275.168C245.38 275.168 244.746 275.014 244.195 274.706C243.644 274.389 243.21 273.955 242.893 273.404C242.585 272.853 242.431 272.219 242.431 271.5C242.431 270.781 242.585 270.147 242.893 269.596C243.21 269.045 243.64 268.616 244.181 268.308C244.732 267.991 245.362 267.832 246.071 267.832C246.762 267.832 247.387 268 247.947 268.336C248.507 268.663 248.922 269.134 249.193 269.75L247.737 270.31C247.588 270.002 247.359 269.755 247.051 269.568C246.743 269.381 246.393 269.288 246.001 269.288C245.618 269.288 245.278 269.386 244.979 269.582C244.68 269.769 244.447 270.03 244.279 270.366C244.111 270.693 244.027 271.071 244.027 271.5C244.027 271.929 244.111 272.312 244.279 272.648C244.456 272.975 244.694 273.236 244.993 273.432C245.301 273.619 245.646 273.712 246.029 273.712C246.421 273.712 246.771 273.614 247.079 273.418C247.387 273.213 247.616 272.937 247.765 272.592L249.221 273.152C248.95 273.787 248.535 274.281 247.975 274.636C247.424 274.991 246.799 275.168 246.099 275.168ZM253.224 275.168C252.487 275.168 251.922 274.986 251.53 274.622C251.148 274.249 250.956 273.717 250.956 273.026V265.816H252.51V272.732C252.51 273.059 252.585 273.306 252.734 273.474C252.893 273.642 253.122 273.726 253.42 273.726C253.514 273.726 253.616 273.707 253.728 273.67C253.84 273.633 253.966 273.563 254.106 273.46L254.68 274.65C254.438 274.818 254.195 274.944 253.952 275.028C253.71 275.121 253.467 275.168 253.224 275.168ZM249.794 269.344V268H254.4V269.344H249.794ZM259.059 275.168C258.359 275.168 257.733 275.014 257.183 274.706C256.641 274.389 256.217 273.955 255.909 273.404C255.601 272.853 255.447 272.219 255.447 271.5C255.447 270.781 255.596 270.147 255.895 269.596C256.203 269.045 256.627 268.616 257.169 268.308C257.71 267.991 258.331 267.832 259.031 267.832C259.731 267.832 260.351 267.991 260.893 268.308C261.434 268.616 261.854 269.045 262.153 269.596C262.461 270.147 262.615 270.781 262.615 271.5C262.615 272.219 262.465 272.853 262.167 273.404C261.868 273.955 261.448 274.389 260.907 274.706C260.365 275.014 259.749 275.168 259.059 275.168ZM259.059 273.726C259.441 273.726 259.782 273.633 260.081 273.446C260.379 273.25 260.613 272.989 260.781 272.662C260.949 272.326 261.033 271.939 261.033 271.5C261.033 271.061 260.944 270.679 260.767 270.352C260.599 270.016 260.365 269.755 260.067 269.568C259.768 269.372 259.423 269.274 259.031 269.274C258.639 269.274 258.293 269.367 257.995 269.554C257.696 269.741 257.463 270.002 257.295 270.338C257.127 270.674 257.043 271.061 257.043 271.5C257.043 271.939 257.127 272.326 257.295 272.662C257.472 272.989 257.71 273.25 258.009 273.446C258.317 273.633 258.667 273.726 259.059 273.726ZM265.009 271.276C265.009 270.52 265.154 269.899 265.443 269.414C265.733 268.929 266.106 268.569 266.563 268.336C267.03 268.093 267.515 267.972 268.019 267.972V269.47C267.59 269.47 267.184 269.531 266.801 269.652C266.428 269.764 266.125 269.951 265.891 270.212C265.658 270.473 265.541 270.819 265.541 271.248L265.009 271.276ZM263.973 275V268H265.541V275H263.973ZM275.656 275.168C274.956 275.168 274.331 275.014 273.78 274.706C273.239 274.389 272.814 273.955 272.506 273.404C272.198 272.853 272.044 272.219 272.044 271.5C272.044 270.781 272.194 270.147 272.492 269.596C272.8 269.045 273.225 268.616 273.766 268.308C274.308 267.991 274.928 267.832 275.628 267.832C276.328 267.832 276.949 267.991 277.49 268.308C278.032 268.616 278.452 269.045 278.75 269.596C279.058 270.147 279.212 270.781 279.212 271.5C279.212 272.219 279.063 272.853 278.764 273.404C278.466 273.955 278.046 274.389 277.504 274.706C276.963 275.014 276.347 275.168 275.656 275.168ZM275.656 273.726C276.039 273.726 276.38 273.633 276.678 273.446C276.977 273.25 277.21 272.989 277.378 272.662C277.546 272.326 277.63 271.939 277.63 271.5C277.63 271.061 277.542 270.679 277.364 270.352C277.196 270.016 276.963 269.755 276.664 269.568C276.366 269.372 276.02 269.274 275.628 269.274C275.236 269.274 274.891 269.367 274.592 269.554C274.294 269.741 274.06 270.002 273.892 270.338C273.724 270.674 273.64 271.061 273.64 271.5C273.64 271.939 273.724 272.326 273.892 272.662C274.07 272.989 274.308 273.25 274.606 273.446C274.914 273.633 275.264 273.726 275.656 273.726ZM281.271 275V267.258C281.271 266.521 281.453 265.956 281.817 265.564C282.19 265.163 282.75 264.962 283.497 264.962C283.74 264.962 283.996 265.004 284.267 265.088C284.547 265.163 284.813 265.265 285.065 265.396L284.491 266.558C284.314 266.474 284.155 266.413 284.015 266.376C283.884 266.339 283.768 266.32 283.665 266.32C283.385 266.32 283.175 266.413 283.035 266.6C282.904 266.777 282.839 267.071 282.839 267.482V275H281.271ZM280.067 269.288V268H284.673V269.288H280.067ZM216.71 295V286.684H213.7V285.2H221.344V286.684H218.334V295H216.71ZM224.631 295.168C223.949 295.168 223.343 295.014 222.811 294.706C222.288 294.389 221.873 293.955 221.565 293.404C221.266 292.853 221.117 292.219 221.117 291.5C221.117 290.781 221.271 290.147 221.579 289.596C221.887 289.045 222.307 288.616 222.839 288.308C223.38 287.991 223.996 287.832 224.687 287.832C225.312 287.832 225.877 287.995 226.381 288.322C226.885 288.639 227.281 289.101 227.571 289.708C227.869 290.315 228.019 291.038 228.019 291.878H222.517L222.727 291.682C222.727 292.111 222.82 292.485 223.007 292.802C223.193 293.11 223.441 293.348 223.749 293.516C224.057 293.684 224.397 293.768 224.771 293.768C225.2 293.768 225.555 293.675 225.835 293.488C226.115 293.292 226.334 293.04 226.493 292.732L227.879 293.32C227.683 293.693 227.431 294.02 227.123 294.3C226.824 294.58 226.465 294.795 226.045 294.944C225.634 295.093 225.163 295.168 224.631 295.168ZM222.825 290.87L222.601 290.674H226.549L226.339 290.87C226.339 290.487 226.255 290.175 226.087 289.932C225.919 289.68 225.704 289.493 225.443 289.372C225.191 289.241 224.925 289.176 224.645 289.176C224.365 289.176 224.085 289.241 223.805 289.372C223.525 289.493 223.291 289.68 223.105 289.932C222.918 290.175 222.825 290.487 222.825 290.87ZM232.496 295.168C231.777 295.168 231.142 295.014 230.592 294.706C230.041 294.389 229.607 293.955 229.29 293.404C228.982 292.853 228.828 292.219 228.828 291.5C228.828 290.781 228.982 290.147 229.29 289.596C229.607 289.045 230.036 288.616 230.578 288.308C231.128 287.991 231.758 287.832 232.468 287.832C233.158 287.832 233.784 288 234.344 288.336C234.904 288.663 235.319 289.134 235.59 289.75L234.134 290.31C233.984 290.002 233.756 289.755 233.448 289.568C233.14 289.381 232.79 289.288 232.398 289.288C232.015 289.288 231.674 289.386 231.376 289.582C231.077 289.769 230.844 290.03 230.676 290.366C230.508 290.693 230.424 291.071 230.424 291.5C230.424 291.929 230.508 292.312 230.676 292.648C230.853 292.975 231.091 293.236 231.39 293.432C231.698 293.619 232.043 293.712 232.426 293.712C232.818 293.712 233.168 293.614 233.476 293.418C233.784 293.213 234.012 292.937 234.162 292.592L235.618 293.152C235.347 293.787 234.932 294.281 234.372 294.636C233.821 294.991 233.196 295.168 232.496 295.168ZM236.849 295V285.2H238.417V295H236.849ZM241.595 295V291.416H243.163V295H241.595ZM241.595 291.416C241.595 290.856 241.529 290.427 241.399 290.128C241.268 289.82 241.086 289.605 240.853 289.484C240.629 289.363 240.367 289.302 240.069 289.302C239.537 289.293 239.126 289.465 238.837 289.82C238.557 290.175 238.417 290.683 238.417 291.346H237.815C237.815 290.609 237.922 289.979 238.137 289.456C238.361 288.924 238.673 288.523 239.075 288.252C239.476 287.972 239.952 287.832 240.503 287.832C241.053 287.832 241.529 287.944 241.931 288.168C242.332 288.392 242.635 288.742 242.841 289.218C243.055 289.685 243.163 290.296 243.163 291.052V291.416H241.595ZM244.751 295V288H246.221L246.319 289.288V295H244.751ZM249.497 295V291.416H251.065V295H249.497ZM249.497 291.416C249.497 290.856 249.431 290.427 249.301 290.128C249.179 289.82 249.002 289.605 248.769 289.484C248.545 289.363 248.279 289.302 247.971 289.302C247.448 289.293 247.042 289.465 246.753 289.82C246.463 290.175 246.319 290.683 246.319 291.346H245.731C245.731 290.609 245.838 289.979 246.053 289.456C246.267 288.924 246.575 288.523 246.977 288.252C247.378 287.972 247.854 287.832 248.405 287.832C248.965 287.832 249.441 287.944 249.833 288.168C250.234 288.392 250.537 288.742 250.743 289.218C250.957 289.685 251.065 290.296 251.065 291.052V291.416H249.497ZM255.873 295.168C255.173 295.168 254.548 295.014 253.997 294.706C253.456 294.389 253.031 293.955 252.723 293.404C252.415 292.853 252.261 292.219 252.261 291.5C252.261 290.781 252.41 290.147 252.709 289.596C253.017 289.045 253.442 288.616 253.983 288.308C254.524 287.991 255.145 287.832 255.845 287.832C256.545 287.832 257.166 287.991 257.707 288.308C258.248 288.616 258.668 289.045 258.967 289.596C259.275 290.147 259.429 290.781 259.429 291.5C259.429 292.219 259.28 292.853 258.981 293.404C258.682 293.955 258.262 294.389 257.721 294.706C257.18 295.014 256.564 295.168 255.873 295.168ZM255.873 293.726C256.256 293.726 256.596 293.633 256.895 293.446C257.194 293.25 257.427 292.989 257.595 292.662C257.763 292.326 257.847 291.939 257.847 291.5C257.847 291.061 257.758 290.679 257.581 290.352C257.413 290.016 257.18 289.755 256.881 289.568C256.582 289.372 256.237 289.274 255.845 289.274C255.453 289.274 255.108 289.367 254.809 289.554C254.51 289.741 254.277 290.002 254.109 290.338C253.941 290.674 253.857 291.061 253.857 291.5C253.857 291.939 253.941 292.326 254.109 292.662C254.286 292.989 254.524 293.25 254.823 293.446C255.131 293.633 255.481 293.726 255.873 293.726ZM260.788 295V285.2H262.356V295H260.788ZM267.317 295.168C266.617 295.168 265.991 295.014 265.441 294.706C264.899 294.389 264.475 293.955 264.167 293.404C263.859 292.853 263.705 292.219 263.705 291.5C263.705 290.781 263.854 290.147 264.153 289.596C264.461 289.045 264.885 288.616 265.427 288.308C265.968 287.991 266.589 287.832 267.289 287.832C267.989 287.832 268.609 287.991 269.151 288.308C269.692 288.616 270.112 289.045 270.411 289.596C270.719 290.147 270.873 290.781 270.873 291.5C270.873 292.219 270.723 292.853 270.425 293.404C270.126 293.955 269.706 294.389 269.165 294.706C268.623 295.014 268.007 295.168 267.317 295.168ZM267.317 293.726C267.699 293.726 268.04 293.633 268.339 293.446C268.637 293.25 268.871 292.989 269.039 292.662C269.207 292.326 269.291 291.939 269.291 291.5C269.291 291.061 269.202 290.679 269.025 290.352C268.857 290.016 268.623 289.755 268.325 289.568C268.026 289.372 267.681 289.274 267.289 289.274C266.897 289.274 266.551 289.367 266.253 289.554C265.954 289.741 265.721 290.002 265.553 290.338C265.385 290.674 265.301 291.061 265.301 291.5C265.301 291.939 265.385 292.326 265.553 292.662C265.73 292.989 265.968 293.25 266.267 293.446C266.575 293.633 266.925 293.726 267.317 293.726ZM275.241 297.982C274.747 297.982 274.299 297.94 273.897 297.856C273.505 297.772 273.174 297.674 272.903 297.562C272.633 297.45 272.423 297.343 272.273 297.24L272.875 295.98C273.006 296.045 273.179 296.125 273.393 296.218C273.617 296.321 273.879 296.409 274.177 296.484C274.476 296.559 274.812 296.596 275.185 296.596C275.587 296.596 275.946 296.512 276.263 296.344C276.581 296.185 276.828 295.938 277.005 295.602C277.183 295.266 277.271 294.837 277.271 294.314V288H278.839V294.272C278.839 295.065 278.69 295.737 278.391 296.288C278.093 296.848 277.673 297.268 277.131 297.548C276.59 297.837 275.96 297.982 275.241 297.982ZM275.003 294.86C274.369 294.86 273.813 294.715 273.337 294.426C272.871 294.137 272.502 293.735 272.231 293.222C271.97 292.699 271.839 292.097 271.839 291.416C271.839 290.688 271.97 290.058 272.231 289.526C272.502 288.994 272.871 288.579 273.337 288.28C273.813 287.981 274.369 287.832 275.003 287.832C275.573 287.832 276.067 287.981 276.487 288.28C276.917 288.579 277.248 288.999 277.481 289.54C277.715 290.072 277.831 290.702 277.831 291.43C277.831 292.121 277.715 292.723 277.481 293.236C277.248 293.749 276.917 294.151 276.487 294.44C276.067 294.72 275.573 294.86 275.003 294.86ZM275.437 293.53C275.792 293.53 276.1 293.437 276.361 293.25C276.632 293.063 276.842 292.811 276.991 292.494C277.141 292.167 277.215 291.794 277.215 291.374C277.215 290.945 277.141 290.571 276.991 290.254C276.842 289.927 276.632 289.675 276.361 289.498C276.091 289.311 275.778 289.218 275.423 289.218C275.05 289.218 274.719 289.311 274.429 289.498C274.149 289.675 273.925 289.927 273.757 290.254C273.599 290.571 273.519 290.945 273.519 291.374C273.519 291.794 273.599 292.167 273.757 292.494C273.925 292.811 274.154 293.063 274.443 293.25C274.733 293.437 275.064 293.53 275.437 293.53ZM281.677 297.968C281.453 297.968 281.201 297.926 280.921 297.842C280.65 297.758 280.389 297.651 280.137 297.52L280.725 296.246C280.902 296.33 281.066 296.395 281.215 296.442C281.364 296.498 281.486 296.526 281.579 296.526C281.803 296.526 281.99 296.465 282.139 296.344C282.298 296.232 282.424 296.064 282.517 295.84L283.343 293.908L285.709 288H287.417L284.169 295.742C283.973 296.19 283.772 296.582 283.567 296.918C283.371 297.254 283.124 297.511 282.825 297.688C282.526 297.875 282.144 297.968 281.677 297.968ZM282.923 295L279.787 288H281.495L283.931 293.894L284.435 295H282.923Z" fill="#531350"/>
<path d="M410 233H521C529.284 233 536 239.716 536 248V312C536 320.284 529.284 327 521 327H410C401.716 327 395 320.284 395 312V248C395 239.716 401.716 233 410 233Z" fill="#FFEBF7"/>
<path d="M410 233H521C529.284 233 536 239.716 536 248V312C536 320.284 529.284 327 521 327H410C401.716 327 395 320.284 395 312V248C395 239.716 401.716 233 410 233Z" stroke="#FFADF3" stroke-width="2"/>
<path d="M420.574 275.168C420.061 275.168 419.59 275.107 419.16 274.986C418.74 274.865 418.367 274.697 418.04 274.482C417.723 274.267 417.457 274.029 417.242 273.768C417.037 273.497 416.892 273.217 416.808 272.928L418.404 272.438C418.526 272.783 418.764 273.087 419.118 273.348C419.473 273.609 419.912 273.745 420.434 273.754C421.041 273.754 421.522 273.628 421.876 273.376C422.231 273.124 422.408 272.793 422.408 272.382C422.408 272.009 422.259 271.705 421.96 271.472C421.662 271.229 421.26 271.043 420.756 270.912L419.552 270.604C419.095 270.483 418.68 270.305 418.306 270.072C417.942 269.839 417.653 269.545 417.438 269.19C417.233 268.835 417.13 268.415 417.13 267.93C417.13 267.015 417.429 266.306 418.026 265.802C418.624 265.289 419.478 265.032 420.588 265.032C421.214 265.032 421.76 265.13 422.226 265.326C422.702 265.513 423.094 265.774 423.402 266.11C423.71 266.437 423.939 266.81 424.088 267.23L422.52 267.734C422.38 267.361 422.138 267.053 421.792 266.81C421.447 266.567 421.018 266.446 420.504 266.446C419.972 266.446 419.552 266.572 419.244 266.824C418.946 267.076 418.796 267.426 418.796 267.874C418.796 268.238 418.913 268.523 419.146 268.728C419.389 268.924 419.716 269.073 420.126 269.176L421.33 269.47C422.208 269.685 422.889 270.053 423.374 270.576C423.86 271.099 424.102 271.677 424.102 272.312C424.102 272.872 423.967 273.367 423.696 273.796C423.426 274.225 423.024 274.561 422.492 274.804C421.97 275.047 421.33 275.168 420.574 275.168ZM428.727 275.168C428.046 275.168 427.439 275.014 426.907 274.706C426.385 274.389 425.969 273.955 425.661 273.404C425.363 272.853 425.213 272.219 425.213 271.5C425.213 270.781 425.367 270.147 425.675 269.596C425.983 269.045 426.403 268.616 426.935 268.308C427.477 267.991 428.093 267.832 428.783 267.832C429.409 267.832 429.973 267.995 430.477 268.322C430.981 268.639 431.378 269.101 431.667 269.708C431.966 270.315 432.115 271.038 432.115 271.878H426.613L426.823 271.682C426.823 272.111 426.917 272.485 427.103 272.802C427.29 273.11 427.537 273.348 427.845 273.516C428.153 273.684 428.494 273.768 428.867 273.768C429.297 273.768 429.651 273.675 429.931 273.488C430.211 273.292 430.431 273.04 430.589 272.732L431.975 273.32C431.779 273.693 431.527 274.02 431.219 274.3C430.921 274.58 430.561 274.795 430.141 274.944C429.731 275.093 429.259 275.168 428.727 275.168ZM426.921 270.87L426.697 270.674H430.645L430.435 270.87C430.435 270.487 430.351 270.175 430.183 269.932C430.015 269.68 429.801 269.493 429.539 269.372C429.287 269.241 429.021 269.176 428.741 269.176C428.461 269.176 428.181 269.241 427.901 269.372C427.621 269.493 427.388 269.68 427.201 269.932C427.015 270.175 426.921 270.487 426.921 270.87ZM433.316 275V268H434.786L434.884 269.288V275H433.316ZM438.062 275V271.416H439.63V275H438.062ZM438.062 271.416C438.062 270.856 437.997 270.427 437.866 270.128C437.745 269.82 437.568 269.605 437.334 269.484C437.11 269.363 436.844 269.302 436.536 269.302C436.014 269.293 435.608 269.465 435.318 269.82C435.029 270.175 434.884 270.683 434.884 271.346H434.296C434.296 270.609 434.404 269.979 434.618 269.456C434.833 268.924 435.141 268.523 435.542 268.252C435.944 267.972 436.42 267.832 436.97 267.832C437.53 267.832 438.006 267.944 438.398 268.168C438.8 268.392 439.103 268.742 439.308 269.218C439.523 269.685 439.63 270.296 439.63 271.052V271.416H438.062ZM441.317 275V268H442.871V275H441.317ZM442.101 266.67C441.849 266.67 441.629 266.581 441.443 266.404C441.265 266.217 441.177 265.998 441.177 265.746C441.177 265.494 441.265 265.279 441.443 265.102C441.629 264.925 441.849 264.836 442.101 264.836C442.353 264.836 442.567 264.925 442.745 265.102C442.931 265.279 443.025 265.494 443.025 265.746C443.025 265.998 442.931 266.217 442.745 266.404C442.567 266.581 442.353 266.67 442.101 266.67ZM447.939 275.168C447.239 275.168 446.613 275.014 446.063 274.706C445.521 274.389 445.097 273.955 444.789 273.404C444.481 272.853 444.327 272.219 444.327 271.5C444.327 270.781 444.476 270.147 444.775 269.596C445.083 269.045 445.507 268.616 446.049 268.308C446.59 267.991 447.211 267.832 447.911 267.832C448.611 267.832 449.231 267.991 449.773 268.308C450.314 268.616 450.734 269.045 451.033 269.596C451.341 270.147 451.495 270.781 451.495 271.5C451.495 272.219 451.345 272.853 451.047 273.404C450.748 273.955 450.328 274.389 449.787 274.706C449.245 275.014 448.629 275.168 447.939 275.168ZM447.939 273.726C448.321 273.726 448.662 273.633 448.961 273.446C449.259 273.25 449.493 272.989 449.661 272.662C449.829 272.326 449.913 271.939 449.913 271.5C449.913 271.061 449.824 270.679 449.647 270.352C449.479 270.016 449.245 269.755 448.947 269.568C448.648 269.372 448.303 269.274 447.911 269.274C447.519 269.274 447.173 269.367 446.875 269.554C446.576 269.741 446.343 270.002 446.175 270.338C446.007 270.674 445.923 271.061 445.923 271.5C445.923 271.939 446.007 272.326 446.175 272.662C446.352 272.989 446.59 273.25 446.889 273.446C447.197 273.633 447.547 273.726 447.939 273.726ZM453.889 271.276C453.889 270.52 454.034 269.899 454.323 269.414C454.613 268.929 454.986 268.569 455.443 268.336C455.91 268.093 456.395 267.972 456.899 267.972V269.47C456.47 269.47 456.064 269.531 455.681 269.652C455.308 269.764 455.005 269.951 454.771 270.212C454.538 270.473 454.421 270.819 454.421 271.248L453.889 271.276ZM452.853 275V268H454.421V275H452.853ZM461.61 275V265.2H465.068C465.74 265.2 466.333 265.335 466.846 265.606C467.36 265.877 467.761 266.255 468.05 266.74C468.34 267.216 468.484 267.771 468.484 268.406C468.484 269.022 468.349 269.573 468.078 270.058C467.808 270.543 467.43 270.926 466.944 271.206C466.468 271.477 465.913 271.612 465.278 271.612H463.234V275H461.61ZM463.234 270.114H465.25C465.717 270.114 466.1 269.955 466.398 269.638C466.697 269.321 466.846 268.91 466.846 268.406C466.846 267.893 466.678 267.477 466.342 267.16C466.006 266.843 465.572 266.684 465.04 266.684H463.234V270.114ZM470.624 271.276C470.624 270.52 470.768 269.899 471.058 269.414C471.347 268.929 471.72 268.569 472.178 268.336C472.644 268.093 473.13 267.972 473.634 267.972V269.47C473.204 269.47 472.798 269.531 472.416 269.652C472.042 269.764 471.739 269.951 471.506 270.212C471.272 270.473 471.156 270.819 471.156 271.248L470.624 271.276ZM469.588 275V268H471.156V275H469.588ZM477.894 275.168C477.194 275.168 476.568 275.014 476.018 274.706C475.476 274.389 475.052 273.955 474.744 273.404C474.436 272.853 474.282 272.219 474.282 271.5C474.282 270.781 474.431 270.147 474.73 269.596C475.038 269.045 475.462 268.616 476.004 268.308C476.545 267.991 477.166 267.832 477.866 267.832C478.566 267.832 479.186 267.991 479.728 268.308C480.269 268.616 480.689 269.045 480.988 269.596C481.296 270.147 481.45 270.781 481.45 271.5C481.45 272.219 481.3 272.853 481.002 273.404C480.703 273.955 480.283 274.389 479.742 274.706C479.2 275.014 478.584 275.168 477.894 275.168ZM477.894 273.726C478.276 273.726 478.617 273.633 478.916 273.446C479.214 273.25 479.448 272.989 479.616 272.662C479.784 272.326 479.868 271.939 479.868 271.5C479.868 271.061 479.779 270.679 479.602 270.352C479.434 270.016 479.2 269.755 478.902 269.568C478.603 269.372 478.258 269.274 477.866 269.274C477.474 269.274 477.128 269.367 476.83 269.554C476.531 269.741 476.298 270.002 476.13 270.338C475.962 270.674 475.878 271.061 475.878 271.5C475.878 271.939 475.962 272.326 476.13 272.662C476.307 272.989 476.545 273.25 476.844 273.446C477.152 273.633 477.502 273.726 477.894 273.726ZM485.818 277.982C485.324 277.982 484.876 277.94 484.474 277.856C484.082 277.772 483.751 277.674 483.48 277.562C483.21 277.45 483 277.343 482.85 277.24L483.452 275.98C483.583 276.045 483.756 276.125 483.97 276.218C484.194 276.321 484.456 276.409 484.754 276.484C485.053 276.559 485.389 276.596 485.762 276.596C486.164 276.596 486.523 276.512 486.84 276.344C487.158 276.185 487.405 275.938 487.582 275.602C487.76 275.266 487.848 274.837 487.848 274.314V268H489.416V274.272C489.416 275.065 489.267 275.737 488.968 276.288C488.67 276.848 488.25 277.268 487.708 277.548C487.167 277.837 486.537 277.982 485.818 277.982ZM485.58 274.86C484.946 274.86 484.39 274.715 483.914 274.426C483.448 274.137 483.079 273.735 482.808 273.222C482.547 272.699 482.416 272.097 482.416 271.416C482.416 270.688 482.547 270.058 482.808 269.526C483.079 268.994 483.448 268.579 483.914 268.28C484.39 267.981 484.946 267.832 485.58 267.832C486.15 267.832 486.644 267.981 487.064 268.28C487.494 268.579 487.825 268.999 488.058 269.54C488.292 270.072 488.408 270.702 488.408 271.43C488.408 272.121 488.292 272.723 488.058 273.236C487.825 273.749 487.494 274.151 487.064 274.44C486.644 274.72 486.15 274.86 485.58 274.86ZM486.014 273.53C486.369 273.53 486.677 273.437 486.938 273.25C487.209 273.063 487.419 272.811 487.568 272.494C487.718 272.167 487.792 271.794 487.792 271.374C487.792 270.945 487.718 270.571 487.568 270.254C487.419 269.927 487.209 269.675 486.938 269.498C486.668 269.311 486.355 269.218 486 269.218C485.627 269.218 485.296 269.311 485.006 269.498C484.726 269.675 484.502 269.927 484.334 270.254C484.176 270.571 484.096 270.945 484.096 271.374C484.096 271.794 484.176 272.167 484.334 272.494C484.502 272.811 484.731 273.063 485.02 273.25C485.31 273.437 485.641 273.53 486.014 273.53ZM492.184 271.276C492.184 270.52 492.329 269.899 492.618 269.414C492.908 268.929 493.281 268.569 493.738 268.336C494.205 268.093 494.69 267.972 495.194 267.972V269.47C494.765 269.47 494.359 269.531 493.976 269.652C493.603 269.764 493.3 269.951 493.066 270.212C492.833 270.473 492.716 270.819 492.716 271.248L492.184 271.276ZM491.148 275V268H492.716V275H491.148ZM500.504 275L500.434 273.684V271.402C500.434 270.926 500.383 270.529 500.28 270.212C500.187 269.885 500.028 269.638 499.804 269.47C499.59 269.293 499.3 269.204 498.936 269.204C498.6 269.204 498.306 269.274 498.054 269.414C497.802 269.554 497.588 269.773 497.41 270.072L496.038 269.568C496.188 269.26 496.384 268.975 496.626 268.714C496.878 268.443 497.191 268.229 497.564 268.07C497.947 267.911 498.404 267.832 498.936 267.832C499.618 267.832 500.187 267.967 500.644 268.238C501.102 268.499 501.438 268.877 501.652 269.372C501.876 269.867 501.988 270.464 501.988 271.164L501.946 275H500.504ZM498.488 275.168C497.648 275.168 496.995 274.981 496.528 274.608C496.071 274.235 495.842 273.707 495.842 273.026C495.842 272.298 496.085 271.743 496.57 271.36C497.065 270.977 497.751 270.786 498.628 270.786H500.504V271.99H499.132C498.507 271.99 498.068 272.079 497.816 272.256C497.564 272.424 497.438 272.667 497.438 272.984C497.438 273.255 497.546 273.469 497.76 273.628C497.984 273.777 498.292 273.852 498.684 273.852C499.039 273.852 499.347 273.773 499.608 273.614C499.87 273.455 500.07 273.245 500.21 272.984C500.36 272.723 500.434 272.429 500.434 272.102H500.896C500.896 273.054 500.705 273.805 500.322 274.356C499.94 274.897 499.328 275.168 498.488 275.168ZM503.576 275V268H505.046L505.116 268.938C505.331 268.574 505.606 268.299 505.942 268.112C506.278 267.925 506.661 267.832 507.09 267.832C507.65 267.832 508.126 267.958 508.518 268.21C508.91 268.462 509.195 268.845 509.372 269.358C509.577 268.863 509.867 268.485 510.24 268.224C510.613 267.963 511.052 267.832 511.556 267.832C512.368 267.832 512.993 268.093 513.432 268.616C513.871 269.129 514.085 269.923 514.076 270.996V275H512.522V271.416C512.522 270.856 512.461 270.427 512.34 270.128C512.219 269.82 512.055 269.605 511.85 269.484C511.645 269.363 511.407 269.302 511.136 269.302C510.651 269.293 510.273 269.465 510.002 269.82C509.741 270.175 509.61 270.683 509.61 271.346V275H508.042V271.416C508.042 270.856 507.981 270.427 507.86 270.128C507.748 269.82 507.589 269.605 507.384 269.484C507.179 269.363 506.941 269.302 506.67 269.302C506.185 269.293 505.807 269.465 505.536 269.82C505.275 270.175 505.144 270.683 505.144 271.346V275H503.576ZM438.833 295V285.2H440.569L443.649 289.736L446.701 285.2H448.451V295H446.827V287.762L443.635 292.48L440.457 287.79V295H438.833ZM454.744 295L454.674 293.684V291.402C454.674 290.926 454.623 290.529 454.52 290.212C454.427 289.885 454.268 289.638 454.044 289.47C453.83 289.293 453.54 289.204 453.176 289.204C452.84 289.204 452.546 289.274 452.294 289.414C452.042 289.554 451.828 289.773 451.65 290.072L450.278 289.568C450.428 289.26 450.624 288.975 450.866 288.714C451.118 288.443 451.431 288.229 451.804 288.07C452.187 287.911 452.644 287.832 453.176 287.832C453.858 287.832 454.427 287.967 454.884 288.238C455.342 288.499 455.678 288.877 455.892 289.372C456.116 289.867 456.228 290.464 456.228 291.164L456.186 295H454.744ZM452.728 295.168C451.888 295.168 451.235 294.981 450.768 294.608C450.311 294.235 450.082 293.707 450.082 293.026C450.082 292.298 450.325 291.743 450.81 291.36C451.305 290.977 451.991 290.786 452.868 290.786H454.744V291.99H453.372C452.747 291.99 452.308 292.079 452.056 292.256C451.804 292.424 451.678 292.667 451.678 292.984C451.678 293.255 451.786 293.469 452 293.628C452.224 293.777 452.532 293.852 452.924 293.852C453.279 293.852 453.587 293.773 453.848 293.614C454.11 293.455 454.31 293.245 454.45 292.984C454.6 292.723 454.674 292.429 454.674 292.102H455.136C455.136 293.054 454.945 293.805 454.562 294.356C454.18 294.897 453.568 295.168 452.728 295.168ZM457.816 295V288H459.286L459.384 289.288V295H457.816ZM462.562 295V291.416H464.13V295H462.562ZM462.562 291.416C462.562 290.856 462.497 290.427 462.366 290.128C462.245 289.82 462.068 289.605 461.834 289.484C461.61 289.363 461.344 289.302 461.036 289.302C460.514 289.293 460.108 289.465 459.818 289.82C459.529 290.175 459.384 290.683 459.384 291.346H458.796C458.796 290.609 458.904 289.979 459.118 289.456C459.333 288.924 459.641 288.523 460.042 288.252C460.444 287.972 460.92 287.832 461.47 287.832C462.03 287.832 462.506 287.944 462.898 288.168C463.3 288.392 463.603 288.742 463.808 289.218C464.023 289.685 464.13 290.296 464.13 291.052V291.416H462.562ZM469.989 295L469.919 293.684V291.402C469.919 290.926 469.867 290.529 469.765 290.212C469.671 289.885 469.513 289.638 469.289 289.47C469.074 289.293 468.785 289.204 468.421 289.204C468.085 289.204 467.791 289.274 467.539 289.414C467.287 289.554 467.072 289.773 466.895 290.072L465.523 289.568C465.672 289.26 465.868 288.975 466.111 288.714C466.363 288.443 466.675 288.229 467.049 288.07C467.431 287.911 467.889 287.832 468.421 287.832C469.102 287.832 469.671 287.967 470.129 288.238C470.586 288.499 470.922 288.877 471.137 289.372C471.361 289.867 471.473 290.464 471.473 291.164L471.431 295H469.989ZM467.973 295.168C467.133 295.168 466.479 294.981 466.013 294.608C465.555 294.235 465.327 293.707 465.327 293.026C465.327 292.298 465.569 291.743 466.055 291.36C466.549 290.977 467.235 290.786 468.113 290.786H469.989V291.99H468.617C467.991 291.99 467.553 292.079 467.301 292.256C467.049 292.424 466.923 292.667 466.923 292.984C466.923 293.255 467.03 293.469 467.245 293.628C467.469 293.777 467.777 293.852 468.169 293.852C468.523 293.852 468.831 293.773 469.093 293.614C469.354 293.455 469.555 293.245 469.695 292.984C469.844 292.723 469.919 292.429 469.919 292.102H470.381C470.381 293.054 470.189 293.805 469.807 294.356C469.424 294.897 468.813 295.168 467.973 295.168ZM476.07 297.982C475.576 297.982 475.128 297.94 474.726 297.856C474.334 297.772 474.003 297.674 473.732 297.562C473.462 297.45 473.252 297.343 473.102 297.24L473.704 295.98C473.835 296.045 474.008 296.125 474.222 296.218C474.446 296.321 474.708 296.409 475.006 296.484C475.305 296.559 475.641 296.596 476.014 296.596C476.416 296.596 476.775 296.512 477.092 296.344C477.41 296.185 477.657 295.938 477.834 295.602C478.012 295.266 478.1 294.837 478.1 294.314V288H479.668V294.272C479.668 295.065 479.519 295.737 479.22 296.288C478.922 296.848 478.502 297.268 477.96 297.548C477.419 297.837 476.789 297.982 476.07 297.982ZM475.832 294.86C475.198 294.86 474.642 294.715 474.166 294.426C473.7 294.137 473.331 293.735 473.06 293.222C472.799 292.699 472.668 292.097 472.668 291.416C472.668 290.688 472.799 290.058 473.06 289.526C473.331 288.994 473.7 288.579 474.166 288.28C474.642 287.981 475.198 287.832 475.832 287.832C476.402 287.832 476.896 287.981 477.316 288.28C477.746 288.579 478.077 288.999 478.31 289.54C478.544 290.072 478.66 290.702 478.66 291.43C478.66 292.121 478.544 292.723 478.31 293.236C478.077 293.749 477.746 294.151 477.316 294.44C476.896 294.72 476.402 294.86 475.832 294.86ZM476.266 293.53C476.621 293.53 476.929 293.437 477.19 293.25C477.461 293.063 477.671 292.811 477.82 292.494C477.97 292.167 478.044 291.794 478.044 291.374C478.044 290.945 477.97 290.571 477.82 290.254C477.671 289.927 477.461 289.675 477.19 289.498C476.92 289.311 476.607 289.218 476.252 289.218C475.879 289.218 475.548 289.311 475.258 289.498C474.978 289.675 474.754 289.927 474.586 290.254C474.428 290.571 474.348 290.945 474.348 291.374C474.348 291.794 474.428 292.167 474.586 292.494C474.754 292.811 474.983 293.063 475.272 293.25C475.562 293.437 475.893 293.53 476.266 293.53ZM484.522 295.168C483.841 295.168 483.234 295.014 482.702 294.706C482.18 294.389 481.764 293.955 481.456 293.404C481.158 292.853 481.008 292.219 481.008 291.5C481.008 290.781 481.162 290.147 481.47 289.596C481.778 289.045 482.198 288.616 482.73 288.308C483.272 287.991 483.888 287.832 484.578 287.832C485.204 287.832 485.768 287.995 486.272 288.322C486.776 288.639 487.173 289.101 487.462 289.708C487.761 290.315 487.91 291.038 487.91 291.878H482.408L482.618 291.682C482.618 292.111 482.712 292.485 482.898 292.802C483.085 293.11 483.332 293.348 483.64 293.516C483.948 293.684 484.289 293.768 484.662 293.768C485.092 293.768 485.446 293.675 485.726 293.488C486.006 293.292 486.226 293.04 486.384 292.732L487.77 293.32C487.574 293.693 487.322 294.02 487.014 294.3C486.716 294.58 486.356 294.795 485.936 294.944C485.526 295.093 485.054 295.168 484.522 295.168ZM482.716 290.87L482.492 290.674H486.44L486.23 290.87C486.23 290.487 486.146 290.175 485.978 289.932C485.81 289.68 485.596 289.493 485.334 289.372C485.082 289.241 484.816 289.176 484.536 289.176C484.256 289.176 483.976 289.241 483.696 289.372C483.416 289.493 483.183 289.68 482.996 289.932C482.81 290.175 482.716 290.487 482.716 290.87ZM490.147 291.276C490.147 290.52 490.292 289.899 490.581 289.414C490.87 288.929 491.244 288.569 491.701 288.336C492.168 288.093 492.653 287.972 493.157 287.972V289.47C492.728 289.47 492.322 289.531 491.939 289.652C491.566 289.764 491.262 289.951 491.029 290.212C490.796 290.473 490.679 290.819 490.679 291.248L490.147 291.276ZM489.111 295V288H490.679V295H489.111Z" fill="#531350"/>
<path d="M87 401H199C207.284 401 214 407.716 214 416V480C214 488.284 207.284 495 199 495H87C78.7157 495 72 488.284 72 480V416C72 407.716 78.7157 401 87 401Z" fill="#FFEBF7"/>
<path d="M87 401H199C207.284 401 214 407.716 214 416V480C214 488.284 207.284 495 199 495H87C78.7157 495 72 488.284 72 480V416C72 407.716 78.7157 401 87 401Z" stroke="#FFADF3" stroke-width="2"/>
<path d="M104.732 444.4V431.8H107.392V433.228H106.146V442.972H107.392V444.4H104.732ZM116.225 443L112.403 433.2H114.027L117.947 443H116.225ZM108.399 443L112.305 433.2H113.943L110.121 443H108.399ZM110.233 440.592V439.15H116.099V440.592H110.233ZM118.931 443V433.2H120.499V443H118.931ZM122.239 443V433.2H123.807V443H122.239ZM129.219 443V433.2H132.453C133.125 433.2 133.703 433.303 134.189 433.508C134.683 433.713 135.066 434.021 135.337 434.432C135.607 434.833 135.743 435.337 135.743 435.944C135.743 436.364 135.64 436.742 135.435 437.078C135.239 437.414 134.959 437.694 134.595 437.918C135.071 438.151 135.435 438.464 135.687 438.856C135.939 439.248 136.065 439.715 136.065 440.256C136.065 440.835 135.934 441.329 135.673 441.74C135.411 442.151 135.043 442.463 134.567 442.678C134.091 442.893 133.526 443 132.873 443H129.219ZM130.815 441.544H132.747C133.26 441.544 133.666 441.418 133.965 441.166C134.263 440.914 134.413 440.573 134.413 440.144C134.413 439.677 134.245 439.313 133.909 439.052C133.582 438.791 133.12 438.66 132.523 438.66H130.815V441.544ZM130.815 437.316H132.593C133.059 437.316 133.423 437.195 133.685 436.952C133.955 436.7 134.091 436.355 134.091 435.916C134.091 435.468 133.937 435.127 133.629 434.894C133.33 434.651 132.91 434.53 132.369 434.53H130.815V437.316ZM141.767 443L141.697 441.684V439.402C141.697 438.926 141.646 438.529 141.543 438.212C141.45 437.885 141.291 437.638 141.067 437.47C140.852 437.293 140.563 437.204 140.199 437.204C139.863 437.204 139.569 437.274 139.317 437.414C139.065 437.554 138.85 437.773 138.673 438.072L137.301 437.568C137.45 437.26 137.646 436.975 137.889 436.714C138.141 436.443 138.454 436.229 138.827 436.07C139.21 435.911 139.667 435.832 140.199 435.832C140.88 435.832 141.45 435.967 141.907 436.238C142.364 436.499 142.7 436.877 142.915 437.372C143.139 437.867 143.251 438.464 143.251 439.164L143.209 443H141.767ZM139.751 443.168C138.911 443.168 138.258 442.981 137.791 442.608C137.334 442.235 137.105 441.707 137.105 441.026C137.105 440.298 137.348 439.743 137.833 439.36C138.328 438.977 139.014 438.786 139.891 438.786H141.767V439.99H140.395C139.77 439.99 139.331 440.079 139.079 440.256C138.827 440.424 138.701 440.667 138.701 440.984C138.701 441.255 138.808 441.469 139.023 441.628C139.247 441.777 139.555 441.852 139.947 441.852C140.302 441.852 140.61 441.773 140.871 441.614C141.132 441.455 141.333 441.245 141.473 440.984C141.622 440.723 141.697 440.429 141.697 440.102H142.159C142.159 441.054 141.968 441.805 141.585 442.356C141.202 442.897 140.591 443.168 139.751 443.168ZM148.115 443.168C147.396 443.168 146.761 443.014 146.211 442.706C145.66 442.389 145.226 441.955 144.909 441.404C144.601 440.853 144.447 440.219 144.447 439.5C144.447 438.781 144.601 438.147 144.909 437.596C145.226 437.045 145.655 436.616 146.197 436.308C146.747 435.991 147.377 435.832 148.087 435.832C148.777 435.832 149.403 436 149.963 436.336C150.523 436.663 150.938 437.134 151.209 437.75L149.753 438.31C149.603 438.002 149.375 437.755 149.067 437.568C148.759 437.381 148.409 437.288 148.017 437.288C147.634 437.288 147.293 437.386 146.995 437.582C146.696 437.769 146.463 438.03 146.295 438.366C146.127 438.693 146.043 439.071 146.043 439.5C146.043 439.929 146.127 440.312 146.295 440.648C146.472 440.975 146.71 441.236 147.009 441.432C147.317 441.619 147.662 441.712 148.045 441.712C148.437 441.712 148.787 441.614 149.095 441.418C149.403 441.213 149.631 440.937 149.781 440.592L151.237 441.152C150.966 441.787 150.551 442.281 149.991 442.636C149.44 442.991 148.815 443.168 148.115 443.168ZM153.952 441.04L153 439.962L156.64 436H158.53L153.952 441.04ZM152.454 443V433.2H154.022V443H152.454ZM156.906 443L154.442 439.374L155.464 438.282L158.768 443H156.906ZM162.535 443.168C161.854 443.168 161.247 443.014 160.715 442.706C160.192 442.389 159.777 441.955 159.469 441.404C159.17 440.853 159.021 440.219 159.021 439.5C159.021 438.781 159.175 438.147 159.483 437.596C159.791 437.045 160.211 436.616 160.743 436.308C161.284 435.991 161.9 435.832 162.591 435.832C163.216 435.832 163.781 435.995 164.285 436.322C164.789 436.639 165.186 437.101 165.475 437.708C165.774 438.315 165.923 439.038 165.923 439.878H160.421L160.631 439.682C160.631 440.111 160.724 440.485 160.911 440.802C161.098 441.11 161.345 441.348 161.653 441.516C161.961 441.684 162.302 441.768 162.675 441.768C163.104 441.768 163.459 441.675 163.739 441.488C164.019 441.292 164.238 441.04 164.397 440.732L165.783 441.32C165.587 441.693 165.335 442.02 165.027 442.3C164.728 442.58 164.369 442.795 163.949 442.944C163.538 443.093 163.067 443.168 162.535 443.168ZM160.729 438.87L160.505 438.674H164.453L164.243 438.87C164.243 438.487 164.159 438.175 163.991 437.932C163.823 437.68 163.608 437.493 163.347 437.372C163.095 437.241 162.829 437.176 162.549 437.176C162.269 437.176 161.989 437.241 161.709 437.372C161.429 437.493 161.196 437.68 161.009 437.932C160.822 438.175 160.729 438.487 160.729 438.87ZM167.124 443V436H168.594L168.692 437.288V443H167.124ZM171.87 443V439.416H173.438V443H171.87ZM171.87 439.416C171.87 438.856 171.805 438.427 171.674 438.128C171.553 437.82 171.375 437.605 171.142 437.484C170.918 437.363 170.652 437.302 170.344 437.302C169.821 437.293 169.415 437.465 169.126 437.82C168.837 438.175 168.692 438.683 168.692 439.346H168.104C168.104 438.609 168.211 437.979 168.426 437.456C168.641 436.924 168.949 436.523 169.35 436.252C169.751 435.972 170.227 435.832 170.778 435.832C171.338 435.832 171.814 435.944 172.206 436.168C172.607 436.392 172.911 436.742 173.116 437.218C173.331 437.685 173.438 438.296 173.438 439.052V439.416H171.87ZM180.08 443L180.01 441.698V433.2H181.564V443H180.08ZM177.798 443.168C177.164 443.168 176.608 443.019 176.132 442.72C175.666 442.412 175.297 441.983 175.026 441.432C174.765 440.881 174.634 440.237 174.634 439.5C174.634 438.753 174.765 438.109 175.026 437.568C175.297 437.017 175.666 436.593 176.132 436.294C176.608 435.986 177.164 435.832 177.798 435.832C178.386 435.832 178.89 435.986 179.31 436.294C179.74 436.593 180.066 437.017 180.29 437.568C180.514 438.109 180.626 438.753 180.626 439.5C180.626 440.237 180.514 440.881 180.29 441.432C180.066 441.983 179.74 442.412 179.31 442.72C178.89 443.019 178.386 443.168 177.798 443.168ZM178.19 441.74C178.545 441.74 178.858 441.647 179.128 441.46C179.408 441.264 179.623 440.998 179.772 440.662C179.931 440.326 180.01 439.939 180.01 439.5C180.01 439.061 179.931 438.674 179.772 438.338C179.623 438.002 179.408 437.741 179.128 437.554C178.858 437.367 178.54 437.274 178.176 437.274C177.803 437.274 177.472 437.367 177.182 437.554C176.893 437.741 176.664 438.002 176.496 438.338C176.338 438.674 176.254 439.061 176.244 439.5C176.254 439.939 176.338 440.326 176.496 440.662C176.664 440.998 176.893 441.264 177.182 441.46C177.481 441.647 177.817 441.74 178.19 441.74ZM95.3395 463V454.684H92.3295V453.2H99.9735V454.684H96.9635V463H95.3395ZM103.261 463.168C102.579 463.168 101.973 463.014 101.441 462.706C100.918 462.389 100.503 461.955 100.195 461.404C99.8958 460.853 99.7465 460.219 99.7465 459.5C99.7465 458.781 99.9005 458.147 100.209 457.596C100.517 457.045 100.937 456.616 101.469 456.308C102.01 455.991 102.626 455.832 103.317 455.832C103.942 455.832 104.507 455.995 105.011 456.322C105.515 456.639 105.911 457.101 106.201 457.708C106.499 458.315 106.649 459.038 106.649 459.878H101.147L101.357 459.682C101.357 460.111 101.45 460.485 101.637 460.802C101.823 461.11 102.071 461.348 102.379 461.516C102.687 461.684 103.027 461.768 103.401 461.768C103.83 461.768 104.185 461.675 104.465 461.488C104.745 461.292 104.964 461.04 105.123 460.732L106.509 461.32C106.313 461.693 106.061 462.02 105.753 462.3C105.454 462.58 105.095 462.795 104.675 462.944C104.264 463.093 103.793 463.168 103.261 463.168ZM101.455 458.87L101.231 458.674H105.179L104.969 458.87C104.969 458.487 104.885 458.175 104.717 457.932C104.549 457.68 104.334 457.493 104.073 457.372C103.821 457.241 103.555 457.176 103.275 457.176C102.995 457.176 102.715 457.241 102.435 457.372C102.155 457.493 101.921 457.68 101.735 457.932C101.548 458.175 101.455 458.487 101.455 458.87ZM112.119 463L112.049 461.684V459.402C112.049 458.926 111.998 458.529 111.895 458.212C111.802 457.885 111.643 457.638 111.419 457.47C111.205 457.293 110.915 457.204 110.551 457.204C110.215 457.204 109.921 457.274 109.669 457.414C109.417 457.554 109.203 457.773 109.025 458.072L107.653 457.568C107.803 457.26 107.999 456.975 108.241 456.714C108.493 456.443 108.806 456.229 109.179 456.07C109.562 455.911 110.019 455.832 110.551 455.832C111.233 455.832 111.802 455.967 112.259 456.238C112.717 456.499 113.053 456.877 113.267 457.372C113.491 457.867 113.603 458.464 113.603 459.164L113.561 463H112.119ZM110.103 463.168C109.263 463.168 108.61 462.981 108.143 462.608C107.686 462.235 107.457 461.707 107.457 461.026C107.457 460.298 107.7 459.743 108.185 459.36C108.68 458.977 109.366 458.786 110.243 458.786H112.119V459.99H110.747C110.122 459.99 109.683 460.079 109.431 460.256C109.179 460.424 109.053 460.667 109.053 460.984C109.053 461.255 109.161 461.469 109.375 461.628C109.599 461.777 109.907 461.852 110.299 461.852C110.654 461.852 110.962 461.773 111.223 461.614C111.485 461.455 111.685 461.245 111.825 460.984C111.975 460.723 112.049 460.429 112.049 460.102H112.511C112.511 461.054 112.32 461.805 111.937 462.356C111.555 462.897 110.943 463.168 110.103 463.168ZM115.191 463V456H116.661L116.731 456.938C116.946 456.574 117.221 456.299 117.557 456.112C117.893 455.925 118.276 455.832 118.705 455.832C119.265 455.832 119.741 455.958 120.133 456.21C120.525 456.462 120.81 456.845 120.987 457.358C121.193 456.863 121.482 456.485 121.855 456.224C122.229 455.963 122.667 455.832 123.171 455.832C123.983 455.832 124.609 456.093 125.047 456.616C125.486 457.129 125.701 457.923 125.691 458.996V463H124.137V459.416C124.137 458.856 124.077 458.427 123.955 458.128C123.834 457.82 123.671 457.605 123.465 457.484C123.26 457.363 123.022 457.302 122.751 457.302C122.266 457.293 121.888 457.465 121.617 457.82C121.356 458.175 121.225 458.683 121.225 459.346V463H119.657V459.416C119.657 458.856 119.597 458.427 119.475 458.128C119.363 457.82 119.205 457.605 118.999 457.484C118.794 457.363 118.556 457.302 118.285 457.302C117.8 457.293 117.422 457.465 117.151 457.82C116.89 458.175 116.759 458.683 116.759 459.346V463H115.191ZM130.962 463V453.2H132.698L135.778 457.736L138.83 453.2H140.58V463H138.956V455.762L135.764 460.48L132.586 455.79V463H130.962ZM145.725 463.168C145.044 463.168 144.437 463.014 143.905 462.706C143.383 462.389 142.967 461.955 142.659 461.404C142.361 460.853 142.211 460.219 142.211 459.5C142.211 458.781 142.365 458.147 142.673 457.596C142.981 457.045 143.401 456.616 143.933 456.308C144.475 455.991 145.091 455.832 145.781 455.832C146.407 455.832 146.971 455.995 147.475 456.322C147.979 456.639 148.376 457.101 148.665 457.708C148.964 458.315 149.113 459.038 149.113 459.878H143.611L143.821 459.682C143.821 460.111 143.915 460.485 144.101 460.802C144.288 461.11 144.535 461.348 144.843 461.516C145.151 461.684 145.492 461.768 145.865 461.768C146.295 461.768 146.649 461.675 146.929 461.488C147.209 461.292 147.429 461.04 147.587 460.732L148.973 461.32C148.777 461.693 148.525 462.02 148.217 462.3C147.919 462.58 147.559 462.795 147.139 462.944C146.729 463.093 146.257 463.168 145.725 463.168ZM143.919 458.87L143.695 458.674H147.643L147.433 458.87C147.433 458.487 147.349 458.175 147.181 457.932C147.013 457.68 146.799 457.493 146.537 457.372C146.285 457.241 146.019 457.176 145.739 457.176C145.459 457.176 145.179 457.241 144.899 457.372C144.619 457.493 144.386 457.68 144.199 457.932C144.013 458.175 143.919 458.487 143.919 458.87ZM150.314 463V456H151.784L151.854 456.938C152.069 456.574 152.344 456.299 152.68 456.112C153.016 455.925 153.399 455.832 153.828 455.832C154.388 455.832 154.864 455.958 155.256 456.21C155.648 456.462 155.933 456.845 156.11 457.358C156.316 456.863 156.605 456.485 156.978 456.224C157.352 455.963 157.79 455.832 158.294 455.832C159.106 455.832 159.732 456.093 160.17 456.616C160.609 457.129 160.824 457.923 160.814 458.996V463H159.26V459.416C159.26 458.856 159.2 458.427 159.078 458.128C158.957 457.82 158.794 457.605 158.588 457.484C158.383 457.363 158.145 457.302 157.874 457.302C157.389 457.293 157.011 457.465 156.74 457.82C156.479 458.175 156.348 458.683 156.348 459.346V463H154.78V459.416C154.78 458.856 154.72 458.427 154.598 458.128C154.486 457.82 154.328 457.605 154.122 457.484C153.917 457.363 153.679 457.302 153.408 457.302C152.923 457.293 152.545 457.465 152.274 457.82C152.013 458.175 151.882 458.683 151.882 459.346V463H150.314ZM162.414 463V453.2H163.982V461.698L163.898 463H162.414ZM166.194 463.168C165.606 463.168 165.097 463.019 164.668 462.72C164.248 462.412 163.926 461.983 163.702 461.432C163.478 460.881 163.366 460.237 163.366 459.5C163.366 458.753 163.478 458.109 163.702 457.568C163.926 457.017 164.248 456.593 164.668 456.294C165.097 455.986 165.606 455.832 166.194 455.832C166.829 455.832 167.379 455.986 167.846 456.294C168.322 456.593 168.691 457.017 168.952 457.568C169.223 458.109 169.358 458.753 169.358 459.5C169.358 460.237 169.223 460.881 168.952 461.432C168.691 461.983 168.322 462.412 167.846 462.72C167.379 463.019 166.829 463.168 166.194 463.168ZM165.802 461.74C166.175 461.74 166.507 461.647 166.796 461.46C167.085 461.264 167.314 460.998 167.482 460.662C167.659 460.326 167.748 459.939 167.748 459.5C167.748 459.061 167.664 458.674 167.496 458.338C167.337 458.002 167.113 457.741 166.824 457.554C166.535 457.367 166.199 457.274 165.816 457.274C165.461 457.274 165.144 457.367 164.864 457.554C164.584 457.741 164.365 458.002 164.206 458.338C164.057 458.674 163.982 459.061 163.982 459.5C163.982 459.939 164.057 460.326 164.206 460.662C164.365 460.998 164.579 461.264 164.85 461.46C165.13 461.647 165.447 461.74 165.802 461.74ZM173.821 463.168C173.14 463.168 172.533 463.014 172.001 462.706C171.478 462.389 171.063 461.955 170.755 461.404C170.456 460.853 170.307 460.219 170.307 459.5C170.307 458.781 170.461 458.147 170.769 457.596C171.077 457.045 171.497 456.616 172.029 456.308C172.57 455.991 173.186 455.832 173.877 455.832C174.502 455.832 175.067 455.995 175.571 456.322C176.075 456.639 176.472 457.101 176.761 457.708C177.06 458.315 177.209 459.038 177.209 459.878H171.707L171.917 459.682C171.917 460.111 172.01 460.485 172.197 460.802C172.384 461.11 172.631 461.348 172.939 461.516C173.247 461.684 173.588 461.768 173.961 461.768C174.39 461.768 174.745 461.675 175.025 461.488C175.305 461.292 175.524 461.04 175.683 460.732L177.069 461.32C176.873 461.693 176.621 462.02 176.313 462.3C176.014 462.58 175.655 462.795 175.235 462.944C174.824 463.093 174.353 463.168 173.821 463.168ZM172.015 458.87L171.791 458.674H175.739L175.529 458.87C175.529 458.487 175.445 458.175 175.277 457.932C175.109 457.68 174.894 457.493 174.633 457.372C174.381 457.241 174.115 457.176 173.835 457.176C173.555 457.176 173.275 457.241 172.995 457.372C172.715 457.493 172.482 457.68 172.295 457.932C172.108 458.175 172.015 458.487 172.015 458.87ZM179.446 459.276C179.446 458.52 179.591 457.899 179.88 457.414C180.169 456.929 180.543 456.569 181 456.336C181.467 456.093 181.952 455.972 182.456 455.972V457.47C182.027 457.47 181.621 457.531 181.238 457.652C180.865 457.764 180.561 457.951 180.328 458.212C180.095 458.473 179.978 458.819 179.978 459.248L179.446 459.276ZM178.41 463V456H179.978V463H178.41ZM186.044 463.168C185.577 463.168 185.148 463.098 184.756 462.958C184.364 462.818 184.028 462.622 183.748 462.37C183.468 462.109 183.253 461.805 183.104 461.46L184.462 460.858C184.602 461.119 184.807 461.339 185.078 461.516C185.358 461.693 185.666 461.782 186.002 461.782C186.366 461.782 186.655 461.721 186.87 461.6C187.094 461.469 187.206 461.292 187.206 461.068C187.206 460.853 187.122 460.69 186.954 460.578C186.786 460.457 186.548 460.359 186.24 460.284L185.582 460.102C184.919 459.934 184.401 459.668 184.028 459.304C183.655 458.931 183.468 458.506 183.468 458.03C183.468 457.33 183.692 456.789 184.14 456.406C184.597 456.023 185.251 455.832 186.1 455.832C186.529 455.832 186.921 455.897 187.276 456.028C187.64 456.149 187.953 456.327 188.214 456.56C188.475 456.784 188.657 457.05 188.76 457.358L187.458 457.946C187.365 457.713 187.187 457.535 186.926 457.414C186.665 457.283 186.375 457.218 186.058 457.218C185.741 457.218 185.493 457.288 185.316 457.428C185.139 457.559 185.05 457.745 185.05 457.988C185.05 458.128 185.129 458.259 185.288 458.38C185.447 458.492 185.675 458.585 185.974 458.66L186.8 458.856C187.257 458.968 187.631 459.145 187.92 459.388C188.209 459.621 188.424 459.887 188.564 460.186C188.704 460.475 188.774 460.769 188.774 461.068C188.774 461.488 188.653 461.857 188.41 462.174C188.177 462.491 187.855 462.739 187.444 462.916C187.033 463.084 186.567 463.168 186.044 463.168ZM192.691 464.4H190.031V462.972H191.277V453.228H190.031V451.8H192.691V464.4Z" fill="#531350"/>
<path d="M302 401H414C422.284 401 429 407.716 429 416V480C429 488.284 422.284 495 414 495H302C293.716 495 287 488.284 287 480V416C287 407.716 293.716 401 302 401Z" fill="#FFEBF7"/>
<path d="M302 401H414C422.284 401 429 407.716 429 416V480C429 488.284 422.284 495 414 495H302C293.716 495 287 488.284 287 480V416C287 407.716 293.716 401 302 401Z" stroke="#FFADF3" stroke-width="2"/>
<path d="M317.934 444.4V431.8H320.594V433.228H319.348V442.972H320.594V444.4H317.934ZM329.428 443L325.606 433.2H327.23L331.15 443H329.428ZM321.602 443L325.508 433.2H327.146L323.324 443H321.602ZM323.436 440.592V439.15H329.302V440.592H323.436ZM332.133 443V433.2H333.701V443H332.133ZM335.441 443V433.2H337.009V443H335.441ZM342.421 443V433.2H348.511V434.684H344.045V437.428H347.867V438.912H344.045V443H342.421ZM350.723 439.276C350.723 438.52 350.868 437.899 351.157 437.414C351.447 436.929 351.82 436.569 352.277 436.336C352.744 436.093 353.229 435.972 353.733 435.972V437.47C353.304 437.47 352.898 437.531 352.515 437.652C352.142 437.764 351.839 437.951 351.605 438.212C351.372 438.473 351.255 438.819 351.255 439.248L350.723 439.276ZM349.687 443V436H351.255V443H349.687ZM357.993 443.168C357.293 443.168 356.668 443.014 356.117 442.706C355.576 442.389 355.151 441.955 354.843 441.404C354.535 440.853 354.381 440.219 354.381 439.5C354.381 438.781 354.531 438.147 354.829 437.596C355.137 437.045 355.562 436.616 356.103 436.308C356.645 435.991 357.265 435.832 357.965 435.832C358.665 435.832 359.286 435.991 359.827 436.308C360.369 436.616 360.789 437.045 361.087 437.596C361.395 438.147 361.549 438.781 361.549 439.5C361.549 440.219 361.4 440.853 361.101 441.404C360.803 441.955 360.383 442.389 359.841 442.706C359.3 443.014 358.684 443.168 357.993 443.168ZM357.993 441.726C358.376 441.726 358.717 441.633 359.015 441.446C359.314 441.25 359.547 440.989 359.715 440.662C359.883 440.326 359.967 439.939 359.967 439.5C359.967 439.061 359.879 438.679 359.701 438.352C359.533 438.016 359.3 437.755 359.001 437.568C358.703 437.372 358.357 437.274 357.965 437.274C357.573 437.274 357.228 437.367 356.929 437.554C356.631 437.741 356.397 438.002 356.229 438.338C356.061 438.674 355.977 439.061 355.977 439.5C355.977 439.939 356.061 440.326 356.229 440.662C356.407 440.989 356.645 441.25 356.943 441.446C357.251 441.633 357.601 441.726 357.993 441.726ZM362.908 443V436H364.378L364.476 437.288V443H362.908ZM367.654 443V439.416H369.222V443H367.654ZM367.654 439.416C367.654 438.856 367.589 438.427 367.458 438.128C367.337 437.82 367.159 437.605 366.926 437.484C366.702 437.363 366.436 437.302 366.128 437.302C365.605 437.293 365.199 437.465 364.91 437.82C364.621 438.175 364.476 438.683 364.476 439.346H363.888C363.888 438.609 363.995 437.979 364.21 437.456C364.425 436.924 364.733 436.523 365.134 436.252C365.535 435.972 366.011 435.832 366.562 435.832C367.122 435.832 367.598 435.944 367.99 436.168C368.391 436.392 368.695 436.742 368.9 437.218C369.115 437.685 369.222 438.296 369.222 439.052V439.416H367.654ZM373.596 443.168C372.859 443.168 372.294 442.986 371.902 442.622C371.52 442.249 371.328 441.717 371.328 441.026V433.816H372.882V440.732C372.882 441.059 372.957 441.306 373.106 441.474C373.265 441.642 373.494 441.726 373.792 441.726C373.886 441.726 373.988 441.707 374.1 441.67C374.212 441.633 374.338 441.563 374.478 441.46L375.052 442.65C374.81 442.818 374.567 442.944 374.324 443.028C374.082 443.121 373.839 443.168 373.596 443.168ZM370.166 437.344V436H374.772V437.344H370.166ZM379.333 443.168C378.651 443.168 378.045 443.014 377.513 442.706C376.99 442.389 376.575 441.955 376.267 441.404C375.968 440.853 375.819 440.219 375.819 439.5C375.819 438.781 375.973 438.147 376.281 437.596C376.589 437.045 377.009 436.616 377.541 436.308C378.082 435.991 378.698 435.832 379.389 435.832C380.014 435.832 380.579 435.995 381.083 436.322C381.587 436.639 381.983 437.101 382.273 437.708C382.571 438.315 382.721 439.038 382.721 439.878H377.219L377.429 439.682C377.429 440.111 377.522 440.485 377.709 440.802C377.895 441.11 378.143 441.348 378.451 441.516C378.759 441.684 379.099 441.768 379.473 441.768C379.902 441.768 380.257 441.675 380.537 441.488C380.817 441.292 381.036 441.04 381.195 440.732L382.581 441.32C382.385 441.693 382.133 442.02 381.825 442.3C381.526 442.58 381.167 442.795 380.747 442.944C380.336 443.093 379.865 443.168 379.333 443.168ZM377.527 438.87L377.303 438.674H381.251L381.041 438.87C381.041 438.487 380.957 438.175 380.789 437.932C380.621 437.68 380.406 437.493 380.145 437.372C379.893 437.241 379.627 437.176 379.347 437.176C379.067 437.176 378.787 437.241 378.507 437.372C378.227 437.493 377.993 437.68 377.807 437.932C377.62 438.175 377.527 438.487 377.527 438.87ZM383.922 443V436H385.392L385.49 437.288V443H383.922ZM388.668 443V439.416H390.236V443H388.668ZM388.668 439.416C388.668 438.856 388.602 438.427 388.472 438.128C388.35 437.82 388.173 437.605 387.94 437.484C387.716 437.363 387.45 437.302 387.142 437.302C386.619 437.293 386.213 437.465 385.924 437.82C385.634 438.175 385.49 438.683 385.49 439.346H384.902C384.902 438.609 385.009 437.979 385.224 437.456C385.438 436.924 385.746 436.523 386.148 436.252C386.549 435.972 387.025 435.832 387.576 435.832C388.136 435.832 388.612 435.944 389.004 436.168C389.405 436.392 389.708 436.742 389.914 437.218C390.128 437.685 390.236 438.296 390.236 439.052V439.416H388.668ZM396.878 443L396.808 441.698V433.2H398.362V443H396.878ZM394.596 443.168C393.961 443.168 393.406 443.019 392.93 442.72C392.463 442.412 392.095 441.983 391.824 441.432C391.563 440.881 391.432 440.237 391.432 439.5C391.432 438.753 391.563 438.109 391.824 437.568C392.095 437.017 392.463 436.593 392.93 436.294C393.406 435.986 393.961 435.832 394.596 435.832C395.184 435.832 395.688 435.986 396.108 436.294C396.537 436.593 396.864 437.017 397.088 437.568C397.312 438.109 397.424 438.753 397.424 439.5C397.424 440.237 397.312 440.881 397.088 441.432C396.864 441.983 396.537 442.412 396.108 442.72C395.688 443.019 395.184 443.168 394.596 443.168ZM394.988 441.74C395.343 441.74 395.655 441.647 395.926 441.46C396.206 441.264 396.421 440.998 396.57 440.662C396.729 440.326 396.808 439.939 396.808 439.5C396.808 439.061 396.729 438.674 396.57 438.338C396.421 438.002 396.206 437.741 395.926 437.554C395.655 437.367 395.338 437.274 394.974 437.274C394.601 437.274 394.269 437.367 393.98 437.554C393.691 437.741 393.462 438.002 393.294 438.338C393.135 438.674 393.051 439.061 393.042 439.5C393.051 439.939 393.135 440.326 393.294 440.662C393.462 440.998 393.691 441.264 393.98 441.46C394.279 441.647 394.615 441.74 394.988 441.74ZM310.339 463V454.684H307.329V453.2H314.973V454.684H311.963V463H310.339ZM318.261 463.168C317.579 463.168 316.973 463.014 316.441 462.706C315.918 462.389 315.503 461.955 315.195 461.404C314.896 460.853 314.747 460.219 314.747 459.5C314.747 458.781 314.901 458.147 315.209 457.596C315.517 457.045 315.937 456.616 316.469 456.308C317.01 455.991 317.626 455.832 318.317 455.832C318.942 455.832 319.507 455.995 320.011 456.322C320.515 456.639 320.911 457.101 321.201 457.708C321.499 458.315 321.649 459.038 321.649 459.878H316.147L316.357 459.682C316.357 460.111 316.45 460.485 316.637 460.802C316.823 461.11 317.071 461.348 317.379 461.516C317.687 461.684 318.027 461.768 318.401 461.768C318.83 461.768 319.185 461.675 319.465 461.488C319.745 461.292 319.964 461.04 320.123 460.732L321.509 461.32C321.313 461.693 321.061 462.02 320.753 462.3C320.454 462.58 320.095 462.795 319.675 462.944C319.264 463.093 318.793 463.168 318.261 463.168ZM316.455 458.87L316.231 458.674H320.179L319.969 458.87C319.969 458.487 319.885 458.175 319.717 457.932C319.549 457.68 319.334 457.493 319.073 457.372C318.821 457.241 318.555 457.176 318.275 457.176C317.995 457.176 317.715 457.241 317.435 457.372C317.155 457.493 316.921 457.68 316.735 457.932C316.548 458.175 316.455 458.487 316.455 458.87ZM327.119 463L327.049 461.684V459.402C327.049 458.926 326.998 458.529 326.895 458.212C326.802 457.885 326.643 457.638 326.419 457.47C326.205 457.293 325.915 457.204 325.551 457.204C325.215 457.204 324.921 457.274 324.669 457.414C324.417 457.554 324.203 457.773 324.025 458.072L322.653 457.568C322.803 457.26 322.999 456.975 323.241 456.714C323.493 456.443 323.806 456.229 324.179 456.07C324.562 455.911 325.019 455.832 325.551 455.832C326.233 455.832 326.802 455.967 327.259 456.238C327.717 456.499 328.053 456.877 328.267 457.372C328.491 457.867 328.603 458.464 328.603 459.164L328.561 463H327.119ZM325.103 463.168C324.263 463.168 323.61 462.981 323.143 462.608C322.686 462.235 322.457 461.707 322.457 461.026C322.457 460.298 322.7 459.743 323.185 459.36C323.68 458.977 324.366 458.786 325.243 458.786H327.119V459.99H325.747C325.122 459.99 324.683 460.079 324.431 460.256C324.179 460.424 324.053 460.667 324.053 460.984C324.053 461.255 324.161 461.469 324.375 461.628C324.599 461.777 324.907 461.852 325.299 461.852C325.654 461.852 325.962 461.773 326.223 461.614C326.485 461.455 326.685 461.245 326.825 460.984C326.975 460.723 327.049 460.429 327.049 460.102H327.511C327.511 461.054 327.32 461.805 326.937 462.356C326.555 462.897 325.943 463.168 325.103 463.168ZM330.191 463V456H331.661L331.731 456.938C331.946 456.574 332.221 456.299 332.557 456.112C332.893 455.925 333.276 455.832 333.705 455.832C334.265 455.832 334.741 455.958 335.133 456.21C335.525 456.462 335.81 456.845 335.987 457.358C336.193 456.863 336.482 456.485 336.855 456.224C337.229 455.963 337.667 455.832 338.171 455.832C338.983 455.832 339.609 456.093 340.047 456.616C340.486 457.129 340.701 457.923 340.691 458.996V463H339.137V459.416C339.137 458.856 339.077 458.427 338.955 458.128C338.834 457.82 338.671 457.605 338.465 457.484C338.26 457.363 338.022 457.302 337.751 457.302C337.266 457.293 336.888 457.465 336.617 457.82C336.356 458.175 336.225 458.683 336.225 459.346V463H334.657V459.416C334.657 458.856 334.597 458.427 334.475 458.128C334.363 457.82 334.205 457.605 333.999 457.484C333.794 457.363 333.556 457.302 333.285 457.302C332.8 457.293 332.422 457.465 332.151 457.82C331.89 458.175 331.759 458.683 331.759 459.346V463H330.191ZM345.962 463V453.2H347.698L350.778 457.736L353.83 453.2H355.58V463H353.956V455.762L350.764 460.48L347.586 455.79V463H345.962ZM360.725 463.168C360.044 463.168 359.437 463.014 358.905 462.706C358.383 462.389 357.967 461.955 357.659 461.404C357.361 460.853 357.211 460.219 357.211 459.5C357.211 458.781 357.365 458.147 357.673 457.596C357.981 457.045 358.401 456.616 358.933 456.308C359.475 455.991 360.091 455.832 360.781 455.832C361.407 455.832 361.971 455.995 362.475 456.322C362.979 456.639 363.376 457.101 363.665 457.708C363.964 458.315 364.113 459.038 364.113 459.878H358.611L358.821 459.682C358.821 460.111 358.915 460.485 359.101 460.802C359.288 461.11 359.535 461.348 359.843 461.516C360.151 461.684 360.492 461.768 360.865 461.768C361.295 461.768 361.649 461.675 361.929 461.488C362.209 461.292 362.429 461.04 362.587 460.732L363.973 461.32C363.777 461.693 363.525 462.02 363.217 462.3C362.919 462.58 362.559 462.795 362.139 462.944C361.729 463.093 361.257 463.168 360.725 463.168ZM358.919 458.87L358.695 458.674H362.643L362.433 458.87C362.433 458.487 362.349 458.175 362.181 457.932C362.013 457.68 361.799 457.493 361.537 457.372C361.285 457.241 361.019 457.176 360.739 457.176C360.459 457.176 360.179 457.241 359.899 457.372C359.619 457.493 359.386 457.68 359.199 457.932C359.013 458.175 358.919 458.487 358.919 458.87ZM365.314 463V456H366.784L366.854 456.938C367.069 456.574 367.344 456.299 367.68 456.112C368.016 455.925 368.399 455.832 368.828 455.832C369.388 455.832 369.864 455.958 370.256 456.21C370.648 456.462 370.933 456.845 371.11 457.358C371.316 456.863 371.605 456.485 371.978 456.224C372.352 455.963 372.79 455.832 373.294 455.832C374.106 455.832 374.732 456.093 375.17 456.616C375.609 457.129 375.824 457.923 375.814 458.996V463H374.26V459.416C374.26 458.856 374.2 458.427 374.078 458.128C373.957 457.82 373.794 457.605 373.588 457.484C373.383 457.363 373.145 457.302 372.874 457.302C372.389 457.293 372.011 457.465 371.74 457.82C371.479 458.175 371.348 458.683 371.348 459.346V463H369.78V459.416C369.78 458.856 369.72 458.427 369.598 458.128C369.486 457.82 369.328 457.605 369.122 457.484C368.917 457.363 368.679 457.302 368.408 457.302C367.923 457.293 367.545 457.465 367.274 457.82C367.013 458.175 366.882 458.683 366.882 459.346V463H365.314ZM377.414 463V453.2H378.982V461.698L378.898 463H377.414ZM381.194 463.168C380.606 463.168 380.097 463.019 379.668 462.72C379.248 462.412 378.926 461.983 378.702 461.432C378.478 460.881 378.366 460.237 378.366 459.5C378.366 458.753 378.478 458.109 378.702 457.568C378.926 457.017 379.248 456.593 379.668 456.294C380.097 455.986 380.606 455.832 381.194 455.832C381.829 455.832 382.379 455.986 382.846 456.294C383.322 456.593 383.691 457.017 383.952 457.568C384.223 458.109 384.358 458.753 384.358 459.5C384.358 460.237 384.223 460.881 383.952 461.432C383.691 461.983 383.322 462.412 382.846 462.72C382.379 463.019 381.829 463.168 381.194 463.168ZM380.802 461.74C381.175 461.74 381.507 461.647 381.796 461.46C382.085 461.264 382.314 460.998 382.482 460.662C382.659 460.326 382.748 459.939 382.748 459.5C382.748 459.061 382.664 458.674 382.496 458.338C382.337 458.002 382.113 457.741 381.824 457.554C381.535 457.367 381.199 457.274 380.816 457.274C380.461 457.274 380.144 457.367 379.864 457.554C379.584 457.741 379.365 458.002 379.206 458.338C379.057 458.674 378.982 459.061 378.982 459.5C378.982 459.939 379.057 460.326 379.206 460.662C379.365 460.998 379.579 461.264 379.85 461.46C380.13 461.647 380.447 461.74 380.802 461.74ZM388.821 463.168C388.14 463.168 387.533 463.014 387.001 462.706C386.478 462.389 386.063 461.955 385.755 461.404C385.456 460.853 385.307 460.219 385.307 459.5C385.307 458.781 385.461 458.147 385.769 457.596C386.077 457.045 386.497 456.616 387.029 456.308C387.57 455.991 388.186 455.832 388.877 455.832C389.502 455.832 390.067 455.995 390.571 456.322C391.075 456.639 391.472 457.101 391.761 457.708C392.06 458.315 392.209 459.038 392.209 459.878H386.707L386.917 459.682C386.917 460.111 387.01 460.485 387.197 460.802C387.384 461.11 387.631 461.348 387.939 461.516C388.247 461.684 388.588 461.768 388.961 461.768C389.39 461.768 389.745 461.675 390.025 461.488C390.305 461.292 390.524 461.04 390.683 460.732L392.069 461.32C391.873 461.693 391.621 462.02 391.313 462.3C391.014 462.58 390.655 462.795 390.235 462.944C389.824 463.093 389.353 463.168 388.821 463.168ZM387.015 458.87L386.791 458.674H390.739L390.529 458.87C390.529 458.487 390.445 458.175 390.277 457.932C390.109 457.68 389.894 457.493 389.633 457.372C389.381 457.241 389.115 457.176 388.835 457.176C388.555 457.176 388.275 457.241 387.995 457.372C387.715 457.493 387.482 457.68 387.295 457.932C387.108 458.175 387.015 458.487 387.015 458.87ZM394.446 459.276C394.446 458.52 394.591 457.899 394.88 457.414C395.169 456.929 395.543 456.569 396 456.336C396.467 456.093 396.952 455.972 397.456 455.972V457.47C397.027 457.47 396.621 457.531 396.238 457.652C395.865 457.764 395.561 457.951 395.328 458.212C395.095 458.473 394.978 458.819 394.978 459.248L394.446 459.276ZM393.41 463V456H394.978V463H393.41ZM401.044 463.168C400.577 463.168 400.148 463.098 399.756 462.958C399.364 462.818 399.028 462.622 398.748 462.37C398.468 462.109 398.253 461.805 398.104 461.46L399.462 460.858C399.602 461.119 399.807 461.339 400.078 461.516C400.358 461.693 400.666 461.782 401.002 461.782C401.366 461.782 401.655 461.721 401.87 461.6C402.094 461.469 402.206 461.292 402.206 461.068C402.206 460.853 402.122 460.69 401.954 460.578C401.786 460.457 401.548 460.359 401.24 460.284L400.582 460.102C399.919 459.934 399.401 459.668 399.028 459.304C398.655 458.931 398.468 458.506 398.468 458.03C398.468 457.33 398.692 456.789 399.14 456.406C399.597 456.023 400.251 455.832 401.1 455.832C401.529 455.832 401.921 455.897 402.276 456.028C402.64 456.149 402.953 456.327 403.214 456.56C403.475 456.784 403.657 457.05 403.76 457.358L402.458 457.946C402.365 457.713 402.187 457.535 401.926 457.414C401.665 457.283 401.375 457.218 401.058 457.218C400.741 457.218 400.493 457.288 400.316 457.428C400.139 457.559 400.05 457.745 400.05 457.988C400.05 458.128 400.129 458.259 400.288 458.38C400.447 458.492 400.675 458.585 400.974 458.66L401.8 458.856C402.257 458.968 402.631 459.145 402.92 459.388C403.209 459.621 403.424 459.887 403.564 460.186C403.704 460.475 403.774 460.769 403.774 461.068C403.774 461.488 403.653 461.857 403.41 462.174C403.177 462.491 402.855 462.739 402.444 462.916C402.033 463.084 401.567 463.168 401.044 463.168ZM407.691 464.4H405.031V462.972H406.277V453.228H405.031V451.8H407.691V464.4Z" fill="#531350"/>
<path d="M358.5 160L359.5 159.975C359.486 159.432 359.042 159 358.5 159C357.958 159 357.514 159.432 357.5 159.975L358.5 160ZM466 224L471.773 214L460.227 214L466 224ZM251 224L256.774 214L245.226 214L251 224ZM358.306 167.612L359.306 167.638L358.306 167.612ZM358.5 160L357.5 160.025L357.695 167.637L358.694 167.612L359.694 167.586L359.5 159.975L358.5 160ZM382.686 191L382.686 192L442 192L442 191L442 190L382.686 190L382.686 191ZM334.314 191L334.314 190L275 190L275 191L275 192L334.314 192L334.314 191ZM358.306 167.612L359.306 167.638L359.5 160.026L358.5 160L357.5 159.975L357.306 167.587L358.306 167.612ZM275 191L275 190C261.193 190 250 201.193 250 215L251 215L252 215C252 202.298 262.297 192 275 192L275 191ZM334.314 191L334.314 192C347.873 192 358.96 181.192 359.306 167.638L358.306 167.612L357.306 167.587C356.988 180.057 346.788 190 334.314 190L334.314 191ZM442 191L442 192C454.703 192 465 202.298 465 215L466 215L467 215C467 201.193 455.807 190 442 190L442 191ZM358.694 167.612L357.695 167.637C358.04 181.192 369.128 192 382.686 192L382.686 191L382.686 190C370.212 190 360.012 180.057 359.694 167.586L358.694 167.612Z" fill="#FFADF3"/>
<path d="M250.5 328L251.5 327.975C251.486 327.432 251.042 327 250.5 327C249.958 327 249.514 327.432 249.5 327.975L250.5 328ZM358 392L363.773 382L352.227 382L358 392ZM143 392L148.774 382L137.226 382L143 392ZM250.306 335.612L251.306 335.638L250.306 335.612ZM250.5 328L249.5 328.025L249.695 335.637L250.694 335.612L251.694 335.586L251.5 327.975L250.5 328ZM274.686 359L274.686 360L334 360L334 359L334 358L274.686 358L274.686 359ZM226.314 359L226.314 358L167 358L167 359L167 360L226.314 360L226.314 359ZM250.306 335.612L251.306 335.638L251.5 328.026L250.5 328L249.5 327.975L249.306 335.587L250.306 335.612ZM167 359L167 358C153.193 358 142 369.193 142 383L143 383L144 383C144 370.298 154.297 360 167 360L167 359ZM226.314 359L226.314 360C239.873 360 250.96 349.192 251.306 335.638L250.306 335.612L249.306 335.587C248.988 348.057 238.788 358 226.314 358L226.314 359ZM334 359L334 360C346.703 360 357 370.298 357 383L358 383L359 383C359 369.193 347.807 358 334 358L334 359ZM250.694 335.612L249.695 335.637C250.04 349.192 261.128 360 274.686 360L274.686 359L274.686 358C262.212 358 252.012 348.057 251.694 335.586L250.694 335.612Z" fill="#FFADF3"/>
</svg>
