<svg width="691" height="502" viewBox="0 0 691 502" fill="none" xmlns="http://www.w3.org/2000/svg">
<path fill-rule="evenodd" clip-rule="evenodd" d="M447.688 188C447.688 175.573 457.762 165.5 470.188 165.5H581.591C587.558 165.5 593.281 167.87 597.5 172.09C601.72 176.31 604.091 182.033 604.091 188C604.091 200.426 594.017 210.5 581.591 210.5H470.188C457.762 210.5 447.688 200.426 447.688 188Z" fill="#C6E7FF" stroke="#1C4587" stroke-miterlimit="8" stroke-linejoin="round"/>
<path fill-rule="evenodd" clip-rule="evenodd" d="M87.4119 260.647C87.4119 248.221 97.4855 238.147 109.912 238.147H221.314C227.282 238.147 233.005 240.518 237.224 244.737C241.444 248.957 243.814 254.68 243.814 260.647C243.814 273.073 233.741 283.147 221.314 283.147H109.912C97.4855 283.147 87.4119 273.073 87.4119 260.647Z" fill="#82FDE4" stroke="#134F5C" stroke-miterlimit="8" stroke-linejoin="round"/>
<path fill-rule="evenodd" clip-rule="evenodd" d="M181.191 333.283C181.191 320.857 191.265 310.783 203.691 310.783H315.093C321.061 310.783 326.784 313.153 331.003 317.373C335.223 321.593 337.593 327.316 337.593 333.283C337.593 345.709 327.52 355.783 315.093 355.783H203.691C191.265 355.783 181.191 345.709 181.191 333.283Z" fill="#F4CCCC" stroke="#5B0F00" stroke-miterlimit="8" stroke-linejoin="round"/>
<path fill-rule="evenodd" clip-rule="evenodd" d="M1.40283 333.282C1.40283 320.855 11.4764 310.782 23.9028 310.782H135.305C141.273 310.782 146.996 313.152 151.215 317.372C155.435 321.591 157.805 327.314 157.805 333.282C157.805 345.708 147.732 355.782 135.305 355.782H23.9028C11.4764 355.782 1.40283 345.708 1.40283 333.282Z" fill="#D9D2E9" stroke="#351C75" stroke-miterlimit="8" stroke-linejoin="round"/>
<path d="M345.81 118.974V142.237H525.952V165.511" stroke="#666666" stroke-miterlimit="8" stroke-linejoin="round"/>
<path d="M165.675 283.182V296.982H79.668V310.79" stroke="#666666" stroke-miterlimit="8" stroke-linejoin="round"/>
<path d="M259.453 310.783V296.983H165.685V283.176" stroke="#666666" stroke-miterlimit="8" stroke-linejoin="round"/>
<path d="M165.675 383.419V369.619H259.444V355.812" stroke="#666666" stroke-miterlimit="8" stroke-linejoin="round"/>
<path fill-rule="evenodd" clip-rule="evenodd" d="M447.689 259.252C447.689 246.826 457.763 236.752 470.189 236.752H581.591C587.559 236.752 593.282 239.123 597.501 243.342C601.721 247.562 604.091 253.285 604.091 259.252C604.091 271.678 594.018 281.752 581.591 281.752H470.189C457.763 281.752 447.689 271.678 447.689 259.252Z" fill="#F4CCCC" stroke="#990000" stroke-miterlimit="8" stroke-linejoin="round"/>
<path d="M525.951 210.535V225.998" stroke="#666666" stroke-miterlimit="8" stroke-linejoin="round"/>
<path fill-rule="evenodd" clip-rule="evenodd" d="M522.655 225.998L525.951 235.051L529.246 225.998H522.655Z" fill="#666666" stroke="#666666" stroke-miterlimit="10"/>
<path fill-rule="evenodd" clip-rule="evenodd" d="M362 404.536C362 392.11 372.074 382.036 384.5 382.036H495.902C501.87 382.036 507.593 384.407 511.812 388.626C516.032 392.846 518.402 398.569 518.402 404.536C518.402 416.963 508.329 427.036 495.902 427.036H384.5C372.074 427.036 362 416.963 362 404.536Z" fill="#D9D2E9" stroke="#351C75" stroke-miterlimit="8" stroke-linejoin="round"/>
<path d="M164.891 165.51V142.242H345.802V118.974" stroke="#666666" stroke-miterlimit="8" stroke-linejoin="round"/>
<path d="M164.891 210.546L165.361 227.404" stroke="#666666" stroke-miterlimit="8" stroke-linejoin="round"/>
<path fill-rule="evenodd" clip-rule="evenodd" d="M162.066 227.496L165.613 236.454L168.655 227.312L162.066 227.496Z" fill="#666666" stroke="#666666" stroke-miterlimit="10"/>
<path fill-rule="evenodd" clip-rule="evenodd" d="M447.689 331.895C447.689 319.469 457.763 309.395 470.189 309.395H581.592C587.559 309.395 593.282 311.766 597.502 315.985C601.721 320.205 604.092 325.928 604.092 331.895C604.092 344.322 594.018 354.395 581.592 354.395H470.189C457.763 354.395 447.689 344.322 447.689 331.895Z" fill="#82FDE4" stroke="#134F5C" stroke-miterlimit="8" stroke-linejoin="round"/>
<path d="M525.952 281.787V298.641" stroke="#666666" stroke-miterlimit="8" stroke-linejoin="round"/>
<path fill-rule="evenodd" clip-rule="evenodd" d="M522.656 298.641L525.952 307.695L529.247 298.641H522.656Z" fill="#666666" stroke="#666666" stroke-miterlimit="10"/>
<path d="M526 354V368.499H612V383" stroke="#666666" stroke-miterlimit="8" stroke-linejoin="round"/>
<path d="M526 354V368.499H440V383" stroke="#666666" stroke-miterlimit="8" stroke-linejoin="round"/>
<path fill-rule="evenodd" clip-rule="evenodd" d="M267.547 23.7954C267.547 11.369 277.621 1.29541 290.047 1.29541H401.45C407.417 1.29541 413.14 3.66594 417.36 7.8855C421.579 12.1051 423.95 17.828 423.95 23.7954C423.95 36.2218 413.876 46.2954 401.45 46.2954H290.047C277.621 46.2954 267.547 36.2218 267.547 23.7954Z" fill="#F4CCCC" stroke="#990000" stroke-miterlimit="8" stroke-linejoin="round"/>
<path fill-rule="evenodd" clip-rule="evenodd" d="M267.547 96.4385C267.547 84.0121 277.621 73.9385 290.047 73.9385H401.45C407.417 73.9385 413.14 76.3091 417.36 80.5286C421.579 84.7482 423.95 90.4712 423.95 96.4385C423.95 108.865 413.876 118.939 401.45 118.939H290.047C277.621 118.939 267.547 108.865 267.547 96.4385Z" fill="#82FDE4" stroke="#134F5C" stroke-miterlimit="8" stroke-linejoin="round"/>
<path d="M345.81 46.3308V63.1848" stroke="#666666" stroke-miterlimit="8" stroke-linejoin="round"/>
<path fill-rule="evenodd" clip-rule="evenodd" d="M342.515 63.1848L345.81 72.2384L349.106 63.1848H342.515Z" fill="#666666" stroke="#666666" stroke-miterlimit="10"/>
<path fill-rule="evenodd" clip-rule="evenodd" d="M171 478.5C171 466.074 181.082 456 193.518 456H305.008C310.98 456 316.707 458.371 320.93 462.59C325.153 466.81 327.526 472.533 327.526 478.5C327.526 490.926 317.444 501 305.008 501H193.518C181.082 501 171 490.926 171 478.5Z" fill="#FCE5CD" stroke="#783F04" stroke-miterlimit="8" stroke-linejoin="round"/>
<path fill-rule="evenodd" clip-rule="evenodd" d="M2 478.5C2 466.074 12.0815 456 24.5177 456H136.008C141.98 456 147.707 458.371 151.93 462.59C156.153 466.81 158.526 472.533 158.526 478.5C158.526 490.926 148.444 501 136.008 501H24.5177C12.0815 501 2 490.926 2 478.5Z" fill="#FCE5CD" stroke="#783F04" stroke-miterlimit="8" stroke-linejoin="round"/>
<path d="M165.675 428.454V442.255H249.887V456.061" stroke="#666666" stroke-miterlimit="8" stroke-linejoin="round"/>
<path d="M79.6653 456.055V442.255H165.672V428.448" stroke="#666666" stroke-miterlimit="8" stroke-linejoin="round"/>
<path d="M181.191 333.301H168.694" stroke="#666666" stroke-miterlimit="8" stroke-linejoin="round"/>
<path fill-rule="evenodd" clip-rule="evenodd" d="M168.694 330.005L159.64 333.301L168.694 336.596V330.005Z" fill="#666666" stroke="#666666" stroke-miterlimit="10"/>
<path d="M225.567 479.085H220.021V483.62H226.464V485H218.334V472.203H226.376V473.592H220.021V477.705H225.567V479.085ZM230.076 485H228.45V471.5H230.076V485ZM236.633 485.176C235.344 485.176 234.295 484.754 233.486 483.91C232.678 483.061 232.273 481.927 232.273 480.509V480.21C232.273 479.267 232.452 478.426 232.81 477.688C233.173 476.943 233.677 476.363 234.321 475.947C234.972 475.525 235.675 475.314 236.431 475.314C237.667 475.314 238.628 475.722 239.313 476.536C239.999 477.351 240.342 478.517 240.342 480.034V480.711H233.899C233.923 481.648 234.195 482.407 234.717 482.987C235.244 483.562 235.912 483.849 236.721 483.849C237.295 483.849 237.781 483.731 238.18 483.497C238.578 483.263 238.927 482.952 239.226 482.565L240.219 483.339C239.422 484.563 238.227 485.176 236.633 485.176ZM236.431 476.65C235.774 476.65 235.224 476.891 234.778 477.371C234.333 477.846 234.058 478.514 233.952 479.375H238.716V479.252C238.669 478.426 238.446 477.787 238.048 477.336C237.649 476.879 237.11 476.65 236.431 476.65ZM243.761 475.49L243.805 476.545C244.502 475.725 245.442 475.314 246.626 475.314C247.956 475.314 248.861 475.824 249.342 476.844C249.658 476.387 250.068 476.018 250.572 475.736C251.082 475.455 251.683 475.314 252.374 475.314C254.46 475.314 255.521 476.419 255.556 478.628V485H253.93V478.725C253.93 478.045 253.774 477.538 253.464 477.204C253.153 476.864 252.632 476.694 251.899 476.694C251.296 476.694 250.795 476.876 250.396 477.239C249.998 477.597 249.767 478.08 249.702 478.689V485H248.067V478.769C248.067 477.386 247.391 476.694 246.037 476.694C244.971 476.694 244.241 477.148 243.849 478.057V485H242.223V475.49H243.761ZM261.963 485.176C260.674 485.176 259.625 484.754 258.816 483.91C258.008 483.061 257.604 481.927 257.604 480.509V480.21C257.604 479.267 257.782 478.426 258.14 477.688C258.503 476.943 259.007 476.363 259.651 475.947C260.302 475.525 261.005 475.314 261.761 475.314C262.997 475.314 263.958 475.722 264.644 476.536C265.329 477.351 265.672 478.517 265.672 480.034V480.711H259.229C259.253 481.648 259.525 482.407 260.047 482.987C260.574 483.562 261.242 483.849 262.051 483.849C262.625 483.849 263.111 483.731 263.51 483.497C263.908 483.263 264.257 482.952 264.556 482.565L265.549 483.339C264.752 484.563 263.557 485.176 261.963 485.176ZM261.761 476.65C261.104 476.65 260.554 476.891 260.108 477.371C259.663 477.846 259.388 478.514 259.282 479.375H264.046V479.252C263.999 478.426 263.776 477.787 263.378 477.336C262.979 476.879 262.44 476.65 261.761 476.65ZM269.1 475.49L269.152 476.686C269.879 475.771 270.828 475.314 272 475.314C274.01 475.314 275.023 476.448 275.041 478.716V485H273.415V478.707C273.409 478.021 273.251 477.515 272.94 477.187C272.636 476.858 272.158 476.694 271.508 476.694C270.98 476.694 270.518 476.835 270.119 477.116C269.721 477.397 269.41 477.767 269.188 478.224V485H267.562V475.49H269.1ZM279.699 473.188V475.49H281.475V476.747H279.699V482.645C279.699 483.025 279.778 483.312 279.937 483.506C280.095 483.693 280.364 483.787 280.745 483.787C280.933 483.787 281.19 483.752 281.519 483.682V485C281.091 485.117 280.675 485.176 280.271 485.176C279.544 485.176 278.996 484.956 278.627 484.517C278.258 484.077 278.073 483.453 278.073 482.645V476.747H276.342V475.49H278.073V473.188H279.699Z" fill="black"/>
<path fill-rule="evenodd" clip-rule="evenodd" d="M534 405.5C534 393.074 544.074 383 556.5 383H667.902C673.87 383 679.593 385.371 683.812 389.59C688.032 393.81 690.402 399.533 690.402 405.5C690.402 417.926 680.329 428 667.902 428H556.5C544.074 428 534 417.926 534 405.5Z" fill="#FCE5CD" stroke="#783F04" stroke-miterlimit="8" stroke-linejoin="round"/>
<path d="M588.567 406.085H583.021V410.62H589.464V412H581.334V399.203H589.376V400.592H583.021V404.705H588.567V406.085ZM593.076 412H591.45V398.5H593.076V412ZM599.633 412.176C598.344 412.176 597.295 411.754 596.486 410.91C595.678 410.061 595.273 408.927 595.273 407.509V407.21C595.273 406.267 595.452 405.426 595.81 404.688C596.173 403.943 596.677 403.363 597.321 402.947C597.972 402.525 598.675 402.314 599.431 402.314C600.667 402.314 601.628 402.722 602.313 403.536C602.999 404.351 603.342 405.517 603.342 407.034V407.711H596.899C596.923 408.648 597.195 409.407 597.717 409.987C598.244 410.562 598.912 410.849 599.721 410.849C600.295 410.849 600.781 410.731 601.18 410.497C601.578 410.263 601.927 409.952 602.226 409.565L603.219 410.339C602.422 411.563 601.227 412.176 599.633 412.176ZM599.431 403.65C598.774 403.65 598.224 403.891 597.778 404.371C597.333 404.846 597.058 405.514 596.952 406.375H601.716V406.252C601.669 405.426 601.446 404.787 601.048 404.336C600.649 403.879 600.11 403.65 599.431 403.65ZM606.761 402.49L606.805 403.545C607.502 402.725 608.442 402.314 609.626 402.314C610.956 402.314 611.861 402.824 612.342 403.844C612.658 403.387 613.068 403.018 613.572 402.736C614.082 402.455 614.683 402.314 615.374 402.314C617.46 402.314 618.521 403.419 618.556 405.628V412H616.93V405.725C616.93 405.045 616.774 404.538 616.464 404.204C616.153 403.864 615.632 403.694 614.899 403.694C614.296 403.694 613.795 403.876 613.396 404.239C612.998 404.597 612.767 405.08 612.702 405.689V412H611.067V405.769C611.067 404.386 610.391 403.694 609.037 403.694C607.971 403.694 607.241 404.148 606.849 405.057V412H605.223V402.49H606.761ZM624.963 412.176C623.674 412.176 622.625 411.754 621.816 410.91C621.008 410.061 620.604 408.927 620.604 407.509V407.21C620.604 406.267 620.782 405.426 621.14 404.688C621.503 403.943 622.007 403.363 622.651 402.947C623.302 402.525 624.005 402.314 624.761 402.314C625.997 402.314 626.958 402.722 627.644 403.536C628.329 404.351 628.672 405.517 628.672 407.034V407.711H622.229C622.253 408.648 622.525 409.407 623.047 409.987C623.574 410.562 624.242 410.849 625.051 410.849C625.625 410.849 626.111 410.731 626.51 410.497C626.908 410.263 627.257 409.952 627.556 409.565L628.549 410.339C627.752 411.563 626.557 412.176 624.963 412.176ZM624.761 403.65C624.104 403.65 623.554 403.891 623.108 404.371C622.663 404.846 622.388 405.514 622.282 406.375H627.046V406.252C626.999 405.426 626.776 404.787 626.378 404.336C625.979 403.879 625.44 403.65 624.761 403.65ZM632.1 402.49L632.152 403.686C632.879 402.771 633.828 402.314 635 402.314C637.01 402.314 638.023 403.448 638.041 405.716V412H636.415V405.707C636.409 405.021 636.251 404.515 635.94 404.187C635.636 403.858 635.158 403.694 634.508 403.694C633.98 403.694 633.518 403.835 633.119 404.116C632.721 404.397 632.41 404.767 632.188 405.224V412H630.562V402.49H632.1ZM642.699 400.188V402.49H644.475V403.747H642.699V409.645C642.699 410.025 642.778 410.312 642.937 410.506C643.095 410.693 643.364 410.787 643.745 410.787C643.933 410.787 644.19 410.752 644.519 410.682V412C644.091 412.117 643.675 412.176 643.271 412.176C642.544 412.176 641.996 411.956 641.627 411.517C641.258 411.077 641.073 410.453 641.073 409.645V403.747H639.342V402.49H641.073V400.188H642.699Z" fill="black"/>
<path fill-rule="evenodd" clip-rule="evenodd" d="M88 405.5C88 393.074 98.0736 383 110.5 383H221.902C227.87 383 233.593 385.371 237.812 389.59C242.032 393.81 244.402 399.533 244.402 405.5C244.402 417.926 234.329 428 221.902 428H110.5C98.0736 428 88 417.926 88 405.5Z" fill="#FCE5CD" stroke="#783F04" stroke-miterlimit="8" stroke-linejoin="round"/>
<path d="M142.567 406.085H137.021V410.62H143.464V412H135.334V399.203H143.376V400.592H137.021V404.705H142.567V406.085ZM147.076 412H145.45V398.5H147.076V412ZM153.633 412.176C152.344 412.176 151.295 411.754 150.486 410.91C149.678 410.061 149.273 408.927 149.273 407.509V407.21C149.273 406.267 149.452 405.426 149.81 404.688C150.173 403.943 150.677 403.363 151.321 402.947C151.972 402.525 152.675 402.314 153.431 402.314C154.667 402.314 155.628 402.722 156.313 403.536C156.999 404.351 157.342 405.517 157.342 407.034V407.711H150.899C150.923 408.648 151.195 409.407 151.717 409.987C152.244 410.562 152.912 410.849 153.721 410.849C154.295 410.849 154.781 410.731 155.18 410.497C155.578 410.263 155.927 409.952 156.226 409.565L157.219 410.339C156.422 411.563 155.227 412.176 153.633 412.176ZM153.431 403.65C152.774 403.65 152.224 403.891 151.778 404.371C151.333 404.846 151.058 405.514 150.952 406.375H155.716V406.252C155.669 405.426 155.446 404.787 155.048 404.336C154.649 403.879 154.11 403.65 153.431 403.65ZM160.761 402.49L160.805 403.545C161.502 402.725 162.442 402.314 163.626 402.314C164.956 402.314 165.861 402.824 166.342 403.844C166.658 403.387 167.068 403.018 167.572 402.736C168.082 402.455 168.683 402.314 169.374 402.314C171.46 402.314 172.521 403.419 172.556 405.628V412H170.93V405.725C170.93 405.045 170.774 404.538 170.464 404.204C170.153 403.864 169.632 403.694 168.899 403.694C168.296 403.694 167.795 403.876 167.396 404.239C166.998 404.597 166.767 405.08 166.702 405.689V412H165.067V405.769C165.067 404.386 164.391 403.694 163.037 403.694C161.971 403.694 161.241 404.148 160.849 405.057V412H159.223V402.49H160.761ZM178.963 412.176C177.674 412.176 176.625 411.754 175.816 410.91C175.008 410.061 174.604 408.927 174.604 407.509V407.21C174.604 406.267 174.782 405.426 175.14 404.688C175.503 403.943 176.007 403.363 176.651 402.947C177.302 402.525 178.005 402.314 178.761 402.314C179.997 402.314 180.958 402.722 181.644 403.536C182.329 404.351 182.672 405.517 182.672 407.034V407.711H176.229C176.253 408.648 176.525 409.407 177.047 409.987C177.574 410.562 178.242 410.849 179.051 410.849C179.625 410.849 180.111 410.731 180.51 410.497C180.908 410.263 181.257 409.952 181.556 409.565L182.549 410.339C181.752 411.563 180.557 412.176 178.963 412.176ZM178.761 403.65C178.104 403.65 177.554 403.891 177.108 404.371C176.663 404.846 176.388 405.514 176.282 406.375H181.046V406.252C180.999 405.426 180.776 404.787 180.378 404.336C179.979 403.879 179.44 403.65 178.761 403.65ZM186.1 402.49L186.152 403.686C186.879 402.771 187.828 402.314 189 402.314C191.01 402.314 192.023 403.448 192.041 405.716V412H190.415V405.707C190.409 405.021 190.251 404.515 189.94 404.187C189.636 403.858 189.158 403.694 188.508 403.694C187.98 403.694 187.518 403.835 187.119 404.116C186.721 404.397 186.41 404.767 186.188 405.224V412H184.562V402.49H186.1ZM196.699 400.188V402.49H198.475V403.747H196.699V409.645C196.699 410.025 196.778 410.312 196.937 410.506C197.095 410.693 197.364 410.787 197.745 410.787C197.933 410.787 198.19 410.752 198.519 410.682V412C198.091 412.117 197.675 412.176 197.271 412.176C196.544 412.176 195.996 411.956 195.627 411.517C195.258 411.077 195.073 410.453 195.073 409.645V403.747H193.342V402.49H195.073V400.188H196.699Z" fill="black"/>
<path fill-rule="evenodd" clip-rule="evenodd" d="M88 187.5C88 175.074 98.0736 165 110.5 165H221.902C227.87 165 233.593 167.371 237.812 171.59C242.032 175.81 244.402 181.533 244.402 187.5C244.402 199.926 234.329 210 221.902 210H110.5C98.0736 210 88 199.926 88 187.5Z" fill="#FCE5CD" stroke="#783F04" stroke-miterlimit="8" stroke-linejoin="round"/>
<path d="M142.567 188.085H137.021V192.62H143.464V194H135.334V181.203H143.376V182.592H137.021V186.705H142.567V188.085ZM147.076 194H145.45V180.5H147.076V194ZM153.633 194.176C152.344 194.176 151.295 193.754 150.486 192.91C149.678 192.061 149.273 190.927 149.273 189.509V189.21C149.273 188.267 149.452 187.426 149.81 186.688C150.173 185.943 150.677 185.363 151.321 184.947C151.972 184.525 152.675 184.314 153.431 184.314C154.667 184.314 155.628 184.722 156.313 185.536C156.999 186.351 157.342 187.517 157.342 189.034V189.711H150.899C150.923 190.648 151.195 191.407 151.717 191.987C152.244 192.562 152.912 192.849 153.721 192.849C154.295 192.849 154.781 192.731 155.18 192.497C155.578 192.263 155.927 191.952 156.226 191.565L157.219 192.339C156.422 193.563 155.227 194.176 153.633 194.176ZM153.431 185.65C152.774 185.65 152.224 185.891 151.778 186.371C151.333 186.846 151.058 187.514 150.952 188.375H155.716V188.252C155.669 187.426 155.446 186.787 155.048 186.336C154.649 185.879 154.11 185.65 153.431 185.65ZM160.761 184.49L160.805 185.545C161.502 184.725 162.442 184.314 163.626 184.314C164.956 184.314 165.861 184.824 166.342 185.844C166.658 185.387 167.068 185.018 167.572 184.736C168.082 184.455 168.683 184.314 169.374 184.314C171.46 184.314 172.521 185.419 172.556 187.628V194H170.93V187.725C170.93 187.045 170.774 186.538 170.464 186.204C170.153 185.864 169.632 185.694 168.899 185.694C168.296 185.694 167.795 185.876 167.396 186.239C166.998 186.597 166.767 187.08 166.702 187.689V194H165.067V187.769C165.067 186.386 164.391 185.694 163.037 185.694C161.971 185.694 161.241 186.148 160.849 187.057V194H159.223V184.49H160.761ZM178.963 194.176C177.674 194.176 176.625 193.754 175.816 192.91C175.008 192.061 174.604 190.927 174.604 189.509V189.21C174.604 188.267 174.782 187.426 175.14 186.688C175.503 185.943 176.007 185.363 176.651 184.947C177.302 184.525 178.005 184.314 178.761 184.314C179.997 184.314 180.958 184.722 181.644 185.536C182.329 186.351 182.672 187.517 182.672 189.034V189.711H176.229C176.253 190.648 176.525 191.407 177.047 191.987C177.574 192.562 178.242 192.849 179.051 192.849C179.625 192.849 180.111 192.731 180.51 192.497C180.908 192.263 181.257 191.952 181.556 191.565L182.549 192.339C181.752 193.563 180.557 194.176 178.963 194.176ZM178.761 185.65C178.104 185.65 177.554 185.891 177.108 186.371C176.663 186.846 176.388 187.514 176.282 188.375H181.046V188.252C180.999 187.426 180.776 186.787 180.378 186.336C179.979 185.879 179.44 185.65 178.761 185.65ZM186.1 184.49L186.152 185.686C186.879 184.771 187.828 184.314 189 184.314C191.01 184.314 192.023 185.448 192.041 187.716V194H190.415V187.707C190.409 187.021 190.251 186.515 189.94 186.187C189.636 185.858 189.158 185.694 188.508 185.694C187.98 185.694 187.518 185.835 187.119 186.116C186.721 186.397 186.41 186.767 186.188 187.224V194H184.562V184.49H186.1ZM196.699 182.188V184.49H198.475V185.747H196.699V191.645C196.699 192.025 196.778 192.312 196.937 192.506C197.095 192.693 197.364 192.787 197.745 192.787C197.933 192.787 198.19 192.752 198.519 192.682V194C198.091 194.117 197.675 194.176 197.271 194.176C196.544 194.176 195.996 193.956 195.627 193.517C195.258 193.077 195.073 192.453 195.073 191.645V185.747H193.342V184.49H195.073V182.188H196.699Z" fill="black"/>
<path d="M56.5674 479.085H51.0215V483.62H57.4639V485H49.334V472.203H57.376V473.592H51.0215V477.705H56.5674V479.085ZM61.0762 485H59.4502V471.5H61.0762V485ZM67.6328 485.176C66.3438 485.176 65.2949 484.754 64.4863 483.91C63.6777 483.061 63.2734 481.927 63.2734 480.509V480.21C63.2734 479.267 63.4521 478.426 63.8096 477.688C64.1729 476.943 64.6768 476.363 65.3213 475.947C65.9717 475.525 66.6748 475.314 67.4307 475.314C68.667 475.314 69.6279 475.722 70.3135 476.536C70.999 477.351 71.3418 478.517 71.3418 480.034V480.711H64.8994C64.9229 481.648 65.1953 482.407 65.7168 482.987C66.2441 483.562 66.9121 483.849 67.7207 483.849C68.2949 483.849 68.7812 483.731 69.1797 483.497C69.5781 483.263 69.9268 482.952 70.2256 482.565L71.2188 483.339C70.4219 484.563 69.2266 485.176 67.6328 485.176ZM67.4307 476.65C66.7744 476.65 66.2236 476.891 65.7783 477.371C65.333 477.846 65.0576 478.514 64.9521 479.375H69.7158V479.252C69.6689 478.426 69.4463 477.787 69.0479 477.336C68.6494 476.879 68.1104 476.65 67.4307 476.65ZM74.7607 475.49L74.8047 476.545C75.502 475.725 76.4424 475.314 77.626 475.314C78.9561 475.314 79.8613 475.824 80.3418 476.844C80.6582 476.387 81.0684 476.018 81.5723 475.736C82.082 475.455 82.6826 475.314 83.374 475.314C85.46 475.314 86.5205 476.419 86.5557 478.628V485H84.9297V478.725C84.9297 478.045 84.7744 477.538 84.4639 477.204C84.1533 476.864 83.6318 476.694 82.8994 476.694C82.2959 476.694 81.7949 476.876 81.3965 477.239C80.998 477.597 80.7666 478.08 80.7021 478.689V485H79.0674V478.769C79.0674 477.386 78.3906 476.694 77.0371 476.694C75.9707 476.694 75.2412 477.148 74.8486 478.057V485H73.2227V475.49H74.7607ZM92.9629 485.176C91.6738 485.176 90.625 484.754 89.8164 483.91C89.0078 483.061 88.6035 481.927 88.6035 480.509V480.21C88.6035 479.267 88.7822 478.426 89.1396 477.688C89.5029 476.943 90.0068 476.363 90.6514 475.947C91.3018 475.525 92.0049 475.314 92.7607 475.314C93.9971 475.314 94.958 475.722 95.6436 476.536C96.3291 477.351 96.6719 478.517 96.6719 480.034V480.711H90.2295C90.2529 481.648 90.5254 482.407 91.0469 482.987C91.5742 483.562 92.2422 483.849 93.0508 483.849C93.625 483.849 94.1113 483.731 94.5098 483.497C94.9082 483.263 95.2568 482.952 95.5557 482.565L96.5488 483.339C95.752 484.563 94.5566 485.176 92.9629 485.176ZM92.7607 476.65C92.1045 476.65 91.5537 476.891 91.1084 477.371C90.6631 477.846 90.3877 478.514 90.2822 479.375H95.0459V479.252C94.999 478.426 94.7764 477.787 94.3779 477.336C93.9795 476.879 93.4404 476.65 92.7607 476.65ZM100.1 475.49L100.152 476.686C100.879 475.771 101.828 475.314 103 475.314C105.01 475.314 106.023 476.448 106.041 478.716V485H104.415V478.707C104.409 478.021 104.251 477.515 103.94 477.187C103.636 476.858 103.158 476.694 102.508 476.694C101.98 476.694 101.518 476.835 101.119 477.116C100.721 477.397 100.41 477.767 100.188 478.224V485H98.5615V475.49H100.1ZM110.699 473.188V475.49H112.475V476.747H110.699V482.645C110.699 483.025 110.778 483.312 110.937 483.506C111.095 483.693 111.364 483.787 111.745 483.787C111.933 483.787 112.19 483.752 112.519 483.682V485C112.091 485.117 111.675 485.176 111.271 485.176C110.544 485.176 109.996 484.956 109.627 484.517C109.258 484.077 109.073 483.453 109.073 482.645V476.747H107.342V475.49H109.073V473.188H110.699Z" fill="black"/>
<path d="M412.877 399.592H408.764V411H407.085V399.592H402.98V398.203H412.877V399.592ZM417.588 411.176C416.299 411.176 415.25 410.754 414.441 409.91C413.633 409.061 413.229 407.927 413.229 406.509V406.21C413.229 405.267 413.407 404.426 413.765 403.688C414.128 402.943 414.632 402.363 415.276 401.947C415.927 401.525 416.63 401.314 417.386 401.314C418.622 401.314 419.583 401.722 420.269 402.536C420.954 403.351 421.297 404.517 421.297 406.034V406.711H414.854C414.878 407.648 415.15 408.407 415.672 408.987C416.199 409.562 416.867 409.849 417.676 409.849C418.25 409.849 418.736 409.731 419.135 409.497C419.533 409.263 419.882 408.952 420.181 408.565L421.174 409.339C420.377 410.563 419.182 411.176 417.588 411.176ZM417.386 402.65C416.729 402.65 416.179 402.891 415.733 403.371C415.288 403.846 415.013 404.514 414.907 405.375H419.671V405.252C419.624 404.426 419.401 403.787 419.003 403.336C418.604 402.879 418.065 402.65 417.386 402.65ZM424.716 401.49L424.76 402.545C425.457 401.725 426.397 401.314 427.581 401.314C428.911 401.314 429.816 401.824 430.297 402.844C430.613 402.387 431.023 402.018 431.527 401.736C432.037 401.455 432.638 401.314 433.329 401.314C435.415 401.314 436.476 402.419 436.511 404.628V411H434.885V404.725C434.885 404.045 434.729 403.538 434.419 403.204C434.108 402.864 433.587 402.694 432.854 402.694C432.251 402.694 431.75 402.876 431.352 403.239C430.953 403.597 430.722 404.08 430.657 404.689V411H429.022V404.769C429.022 403.386 428.346 402.694 426.992 402.694C425.926 402.694 425.196 403.148 424.804 404.057V411H423.178V401.49H424.716ZM447.005 406.351C447.005 407.798 446.674 408.964 446.012 409.849C445.35 410.733 444.453 411.176 443.322 411.176C442.168 411.176 441.26 410.81 440.598 410.077V414.656H438.972V401.49H440.457L440.536 402.545C441.198 401.725 442.118 401.314 443.296 401.314C444.438 401.314 445.341 401.745 446.003 402.606C446.671 403.468 447.005 404.666 447.005 406.201V406.351ZM445.379 406.166C445.379 405.094 445.15 404.247 444.693 403.626C444.236 403.005 443.609 402.694 442.812 402.694C441.828 402.694 441.09 403.131 440.598 404.004V408.548C441.084 409.415 441.828 409.849 442.83 409.849C443.609 409.849 444.228 409.541 444.685 408.926C445.147 408.305 445.379 407.385 445.379 406.166ZM450.846 411H449.22V397.5H450.846V411ZM459.327 411C459.233 410.812 459.157 410.479 459.099 409.998C458.343 410.783 457.44 411.176 456.392 411.176C455.454 411.176 454.684 410.912 454.08 410.385C453.482 409.852 453.184 409.178 453.184 408.363C453.184 407.373 453.559 406.605 454.309 406.061C455.064 405.51 456.125 405.234 457.49 405.234H459.072V404.487C459.072 403.919 458.902 403.468 458.562 403.134C458.223 402.794 457.722 402.624 457.06 402.624C456.479 402.624 455.993 402.771 455.601 403.063C455.208 403.356 455.012 403.711 455.012 404.127H453.377C453.377 403.652 453.544 403.195 453.878 402.756C454.218 402.311 454.675 401.959 455.249 401.701C455.829 401.443 456.465 401.314 457.156 401.314C458.252 401.314 459.11 401.59 459.731 402.141C460.353 402.686 460.675 403.438 460.698 404.399V408.776C460.698 409.649 460.81 410.344 461.032 410.859V411H459.327ZM456.629 409.761C457.139 409.761 457.622 409.629 458.079 409.365C458.536 409.102 458.867 408.759 459.072 408.337V406.386H457.798C455.806 406.386 454.81 406.969 454.81 408.135C454.81 408.645 454.979 409.043 455.319 409.33C455.659 409.617 456.096 409.761 456.629 409.761ZM465.453 399.188V401.49H467.229V402.747H465.453V408.645C465.453 409.025 465.532 409.312 465.69 409.506C465.849 409.693 466.118 409.787 466.499 409.787C466.687 409.787 466.944 409.752 467.272 409.682V411C466.845 411.117 466.429 411.176 466.024 411.176C465.298 411.176 464.75 410.956 464.381 410.517C464.012 410.077 463.827 409.453 463.827 408.645V402.747H462.096V401.49H463.827V399.188H465.453ZM473.082 411.176C471.793 411.176 470.744 410.754 469.936 409.91C469.127 409.061 468.723 407.927 468.723 406.509V406.21C468.723 405.267 468.901 404.426 469.259 403.688C469.622 402.943 470.126 402.363 470.771 401.947C471.421 401.525 472.124 401.314 472.88 401.314C474.116 401.314 475.077 401.722 475.763 402.536C476.448 403.351 476.791 404.517 476.791 406.034V406.711H470.349C470.372 407.648 470.645 408.407 471.166 408.987C471.693 409.562 472.361 409.849 473.17 409.849C473.744 409.849 474.23 409.731 474.629 409.497C475.027 409.263 475.376 408.952 475.675 408.565L476.668 409.339C475.871 410.563 474.676 411.176 473.082 411.176ZM472.88 402.65C472.224 402.65 471.673 402.891 471.228 403.371C470.782 403.846 470.507 404.514 470.401 405.375H475.165V405.252C475.118 404.426 474.896 403.787 474.497 403.336C474.099 402.879 473.56 402.65 472.88 402.65Z" fill="black"/>
<path d="M52.877 328.592H48.7637V340H47.085V328.592H42.9805V327.203H52.877V328.592ZM57.5879 340.176C56.2988 340.176 55.25 339.754 54.4414 338.91C53.6328 338.061 53.2285 336.927 53.2285 335.509V335.21C53.2285 334.267 53.4072 333.426 53.7646 332.688C54.1279 331.943 54.6318 331.363 55.2764 330.947C55.9268 330.525 56.6299 330.314 57.3857 330.314C58.6221 330.314 59.583 330.722 60.2686 331.536C60.9541 332.351 61.2969 333.517 61.2969 335.034V335.711H54.8545C54.8779 336.648 55.1504 337.407 55.6719 337.987C56.1992 338.562 56.8672 338.849 57.6758 338.849C58.25 338.849 58.7363 338.731 59.1348 338.497C59.5332 338.263 59.8818 337.952 60.1807 337.565L61.1738 338.339C60.377 339.563 59.1816 340.176 57.5879 340.176ZM57.3857 331.65C56.7295 331.65 56.1787 331.891 55.7334 332.371C55.2881 332.846 55.0127 333.514 54.9072 334.375H59.6709V334.252C59.624 333.426 59.4014 332.787 59.0029 332.336C58.6045 331.879 58.0654 331.65 57.3857 331.65ZM64.7158 330.49L64.7598 331.545C65.457 330.725 66.3975 330.314 67.5811 330.314C68.9111 330.314 69.8164 330.824 70.2969 331.844C70.6133 331.387 71.0234 331.018 71.5273 330.736C72.0371 330.455 72.6377 330.314 73.3291 330.314C75.415 330.314 76.4756 331.419 76.5107 333.628V340H74.8848V333.725C74.8848 333.045 74.7295 332.538 74.4189 332.204C74.1084 331.864 73.5869 331.694 72.8545 331.694C72.251 331.694 71.75 331.876 71.3516 332.239C70.9531 332.597 70.7217 333.08 70.6572 333.689V340H69.0225V333.769C69.0225 332.386 68.3457 331.694 66.9922 331.694C65.9258 331.694 65.1963 332.148 64.8037 333.057V340H63.1777V330.49H64.7158ZM87.0049 335.351C87.0049 336.798 86.6738 337.964 86.0117 338.849C85.3496 339.733 84.4531 340.176 83.3223 340.176C82.168 340.176 81.2598 339.81 80.5977 339.077V343.656H78.9717V330.49H80.457L80.5361 331.545C81.1982 330.725 82.1182 330.314 83.2959 330.314C84.4385 330.314 85.3408 330.745 86.0029 331.606C86.6709 332.468 87.0049 333.666 87.0049 335.201V335.351ZM85.3789 335.166C85.3789 334.094 85.1504 333.247 84.6934 332.626C84.2363 332.005 83.6094 331.694 82.8125 331.694C81.8281 331.694 81.0898 332.131 80.5977 333.004V337.548C81.084 338.415 81.8281 338.849 82.8301 338.849C83.6094 338.849 84.2275 338.541 84.6846 337.926C85.1475 337.305 85.3789 336.385 85.3789 335.166ZM90.8457 340H89.2197V326.5H90.8457V340ZM99.3271 340C99.2334 339.812 99.1572 339.479 99.0986 338.998C98.3428 339.783 97.4404 340.176 96.3916 340.176C95.4541 340.176 94.6836 339.912 94.0801 339.385C93.4824 338.852 93.1836 338.178 93.1836 337.363C93.1836 336.373 93.5586 335.605 94.3086 335.061C95.0645 334.51 96.125 334.234 97.4902 334.234H99.0723V333.487C99.0723 332.919 98.9023 332.468 98.5625 332.134C98.2227 331.794 97.7217 331.624 97.0596 331.624C96.4795 331.624 95.9932 331.771 95.6006 332.063C95.208 332.356 95.0117 332.711 95.0117 333.127H93.377C93.377 332.652 93.5439 332.195 93.8779 331.756C94.2178 331.311 94.6748 330.959 95.249 330.701C95.8291 330.443 96.4648 330.314 97.1562 330.314C98.252 330.314 99.1104 330.59 99.7314 331.141C100.353 331.686 100.675 332.438 100.698 333.399V337.776C100.698 338.649 100.81 339.344 101.032 339.859V340H99.3271ZM96.6289 338.761C97.1387 338.761 97.6221 338.629 98.0791 338.365C98.5361 338.102 98.8672 337.759 99.0723 337.337V335.386H97.7979C95.8057 335.386 94.8096 335.969 94.8096 337.135C94.8096 337.645 94.9795 338.043 95.3193 338.33C95.6592 338.617 96.0957 338.761 96.6289 338.761ZM105.453 328.188V330.49H107.229V331.747H105.453V337.645C105.453 338.025 105.532 338.312 105.69 338.506C105.849 338.693 106.118 338.787 106.499 338.787C106.687 338.787 106.944 338.752 107.272 338.682V340C106.845 340.117 106.429 340.176 106.024 340.176C105.298 340.176 104.75 339.956 104.381 339.517C104.012 339.077 103.827 338.453 103.827 337.645V331.747H102.096V330.49H103.827V328.188H105.453ZM113.082 340.176C111.793 340.176 110.744 339.754 109.936 338.91C109.127 338.061 108.723 336.927 108.723 335.509V335.21C108.723 334.267 108.901 333.426 109.259 332.688C109.622 331.943 110.126 331.363 110.771 330.947C111.421 330.525 112.124 330.314 112.88 330.314C114.116 330.314 115.077 330.722 115.763 331.536C116.448 332.351 116.791 333.517 116.791 335.034V335.711H110.349C110.372 336.648 110.645 337.407 111.166 337.987C111.693 338.562 112.361 338.849 113.17 338.849C113.744 338.849 114.23 338.731 114.629 338.497C115.027 338.263 115.376 337.952 115.675 337.565L116.668 338.339C115.871 339.563 114.676 340.176 113.082 340.176ZM112.88 331.65C112.224 331.65 111.673 331.891 111.228 332.371C110.782 332.846 110.507 333.514 110.401 334.375H115.165V334.252C115.118 333.426 114.896 332.787 114.497 332.336C114.099 331.879 113.56 331.65 112.88 331.65Z" fill="black"/>
<path d="M471.253 335.759L474.909 325.203H476.755L472.009 338H470.515L465.777 325.203H467.614L471.253 335.759ZM479.989 338H478.363V328.49H479.989V338ZM478.231 325.968C478.231 325.704 478.311 325.481 478.469 325.3C478.633 325.118 478.873 325.027 479.189 325.027C479.506 325.027 479.746 325.118 479.91 325.3C480.074 325.481 480.156 325.704 480.156 325.968C480.156 326.231 480.074 326.451 479.91 326.627C479.746 326.803 479.506 326.891 479.189 326.891C478.873 326.891 478.633 326.803 478.469 326.627C478.311 326.451 478.231 326.231 478.231 325.968ZM486.546 338.176C485.257 338.176 484.208 337.754 483.399 336.91C482.591 336.061 482.187 334.927 482.187 333.509V333.21C482.187 332.267 482.365 331.426 482.723 330.688C483.086 329.943 483.59 329.363 484.234 328.947C484.885 328.525 485.588 328.314 486.344 328.314C487.58 328.314 488.541 328.722 489.227 329.536C489.912 330.351 490.255 331.517 490.255 333.034V333.711H483.812C483.836 334.648 484.108 335.407 484.63 335.987C485.157 336.562 485.825 336.849 486.634 336.849C487.208 336.849 487.694 336.731 488.093 336.497C488.491 336.263 488.84 335.952 489.139 335.565L490.132 336.339C489.335 337.563 488.14 338.176 486.546 338.176ZM486.344 329.65C485.688 329.65 485.137 329.891 484.691 330.371C484.246 330.846 483.971 331.514 483.865 332.375H488.629V332.252C488.582 331.426 488.359 330.787 487.961 330.336C487.562 329.879 487.023 329.65 486.344 329.65ZM500.564 335.759L502.393 328.49H504.019L501.25 338H499.932L497.62 330.793L495.37 338H494.052L491.292 328.49H492.909L494.781 335.609L496.996 328.49H498.306L500.564 335.759ZM519.812 333.939C519.654 335.293 519.153 336.339 518.31 337.077C517.472 337.81 516.355 338.176 514.961 338.176C513.449 338.176 512.236 337.634 511.322 336.55C510.414 335.466 509.96 334.016 509.96 332.199V330.969C509.96 329.779 510.171 328.733 510.593 327.831C511.021 326.929 511.624 326.237 512.403 325.757C513.183 325.271 514.085 325.027 515.11 325.027C516.47 325.027 517.56 325.408 518.38 326.17C519.2 326.926 519.678 327.975 519.812 329.316H518.116C517.97 328.297 517.65 327.559 517.158 327.102C516.672 326.645 515.989 326.416 515.11 326.416C514.032 326.416 513.186 326.814 512.57 327.611C511.961 328.408 511.656 329.542 511.656 331.013V332.252C511.656 333.641 511.946 334.745 512.526 335.565C513.106 336.386 513.918 336.796 514.961 336.796C515.898 336.796 516.616 336.585 517.114 336.163C517.618 335.735 517.952 334.994 518.116 333.939H519.812ZM521.438 333.157C521.438 332.226 521.62 331.388 521.983 330.644C522.353 329.899 522.862 329.325 523.513 328.921C524.169 328.517 524.916 328.314 525.754 328.314C527.049 328.314 528.095 328.763 528.892 329.659C529.694 330.556 530.096 331.748 530.096 333.236V333.351C530.096 334.276 529.917 335.108 529.56 335.847C529.208 336.579 528.701 337.15 528.039 337.561C527.383 337.971 526.627 338.176 525.771 338.176C524.482 338.176 523.437 337.728 522.634 336.831C521.837 335.935 521.438 334.748 521.438 333.271V333.157ZM523.073 333.351C523.073 334.405 523.316 335.252 523.803 335.891C524.295 336.529 524.951 336.849 525.771 336.849C526.598 336.849 527.254 336.526 527.74 335.882C528.227 335.231 528.47 334.323 528.47 333.157C528.47 332.114 528.221 331.271 527.723 330.626C527.23 329.976 526.574 329.65 525.754 329.65C524.951 329.65 524.304 329.97 523.812 330.608C523.319 331.247 523.073 332.161 523.073 333.351ZM533.673 328.49L533.726 329.686C534.452 328.771 535.401 328.314 536.573 328.314C538.583 328.314 539.597 329.448 539.614 331.716V338H537.988V331.707C537.982 331.021 537.824 330.515 537.514 330.187C537.209 329.858 536.731 329.694 536.081 329.694C535.554 329.694 535.091 329.835 534.692 330.116C534.294 330.397 533.983 330.767 533.761 331.224V338H532.135V328.49H533.673ZM544.272 326.188V328.49H546.048V329.747H544.272V335.645C544.272 336.025 544.352 336.312 544.51 336.506C544.668 336.693 544.938 336.787 545.318 336.787C545.506 336.787 545.764 336.752 546.092 336.682V338C545.664 338.117 545.248 338.176 544.844 338.176C544.117 338.176 543.569 337.956 543.2 337.517C542.831 337.077 542.646 336.453 542.646 335.645V329.747H540.915V328.49H542.646V326.188H544.272ZM553.826 338C553.732 337.812 553.656 337.479 553.598 336.998C552.842 337.783 551.939 338.176 550.891 338.176C549.953 338.176 549.183 337.912 548.579 337.385C547.981 336.852 547.683 336.178 547.683 335.363C547.683 334.373 548.058 333.605 548.808 333.061C549.563 332.51 550.624 332.234 551.989 332.234H553.571V331.487C553.571 330.919 553.401 330.468 553.062 330.134C552.722 329.794 552.221 329.624 551.559 329.624C550.979 329.624 550.492 329.771 550.1 330.063C549.707 330.356 549.511 330.711 549.511 331.127H547.876C547.876 330.652 548.043 330.195 548.377 329.756C548.717 329.311 549.174 328.959 549.748 328.701C550.328 328.443 550.964 328.314 551.655 328.314C552.751 328.314 553.609 328.59 554.23 329.141C554.852 329.686 555.174 330.438 555.197 331.399V335.776C555.197 336.649 555.309 337.344 555.531 337.859V338H553.826ZM551.128 336.761C551.638 336.761 552.121 336.629 552.578 336.365C553.035 336.102 553.366 335.759 553.571 335.337V333.386H552.297C550.305 333.386 549.309 333.969 549.309 335.135C549.309 335.645 549.479 336.043 549.818 336.33C550.158 336.617 550.595 336.761 551.128 336.761ZM559.513 338H557.887V328.49H559.513V338ZM557.755 325.968C557.755 325.704 557.834 325.481 557.992 325.3C558.156 325.118 558.396 325.027 558.713 325.027C559.029 325.027 559.27 325.118 559.434 325.3C559.598 325.481 559.68 325.704 559.68 325.968C559.68 326.231 559.598 326.451 559.434 326.627C559.27 326.803 559.029 326.891 558.713 326.891C558.396 326.891 558.156 326.803 557.992 326.627C557.834 326.451 557.755 326.231 557.755 325.968ZM563.661 328.49L563.714 329.686C564.44 328.771 565.39 328.314 566.562 328.314C568.571 328.314 569.585 329.448 569.603 331.716V338H567.977V331.707C567.971 331.021 567.812 330.515 567.502 330.187C567.197 329.858 566.72 329.694 566.069 329.694C565.542 329.694 565.079 329.835 564.681 330.116C564.282 330.397 563.972 330.767 563.749 331.224V338H562.123V328.49H563.661ZM576.001 338.176C574.712 338.176 573.663 337.754 572.854 336.91C572.046 336.061 571.642 334.927 571.642 333.509V333.21C571.642 332.267 571.82 331.426 572.178 330.688C572.541 329.943 573.045 329.363 573.689 328.947C574.34 328.525 575.043 328.314 575.799 328.314C577.035 328.314 577.996 328.722 578.682 329.536C579.367 330.351 579.71 331.517 579.71 333.034V333.711H573.268C573.291 334.648 573.563 335.407 574.085 335.987C574.612 336.562 575.28 336.849 576.089 336.849C576.663 336.849 577.149 336.731 577.548 336.497C577.946 336.263 578.295 335.952 578.594 335.565L579.587 336.339C578.79 337.563 577.595 338.176 576.001 338.176ZM575.799 329.65C575.143 329.65 574.592 329.891 574.146 330.371C573.701 330.846 573.426 331.514 573.32 332.375H578.084V332.252C578.037 331.426 577.814 330.787 577.416 330.336C577.018 329.879 576.479 329.65 575.799 329.65ZM586.196 329.949C585.95 329.908 585.684 329.888 585.396 329.888C584.33 329.888 583.606 330.342 583.226 331.25V338H581.6V328.49H583.182L583.208 329.589C583.741 328.739 584.497 328.314 585.476 328.314C585.792 328.314 586.032 328.355 586.196 328.438V329.949Z" fill="black"/>
<path d="M496.495 266H494.799V260.085H488.348V266H486.66V253.203H488.348V258.705H494.799V253.203H496.495V266ZM498.807 261.157C498.807 260.226 498.988 259.388 499.352 258.644C499.721 257.899 500.23 257.325 500.881 256.921C501.537 256.517 502.284 256.314 503.122 256.314C504.417 256.314 505.463 256.763 506.26 257.659C507.062 258.556 507.464 259.748 507.464 261.236V261.351C507.464 262.276 507.285 263.108 506.928 263.847C506.576 264.579 506.069 265.15 505.407 265.561C504.751 265.971 503.995 266.176 503.14 266.176C501.851 266.176 500.805 265.728 500.002 264.831C499.205 263.935 498.807 262.748 498.807 261.271V261.157ZM500.441 261.351C500.441 262.405 500.685 263.252 501.171 263.891C501.663 264.529 502.319 264.849 503.14 264.849C503.966 264.849 504.622 264.526 505.108 263.882C505.595 263.231 505.838 262.323 505.838 261.157C505.838 260.114 505.589 259.271 505.091 258.626C504.599 257.976 503.942 257.65 503.122 257.65C502.319 257.65 501.672 257.97 501.18 258.608C500.688 259.247 500.441 260.161 500.441 261.351ZM515.04 263.478C515.04 263.038 514.873 262.698 514.539 262.458C514.211 262.212 513.634 262.001 512.808 261.825C511.987 261.649 511.334 261.438 510.848 261.192C510.367 260.946 510.01 260.653 509.775 260.313C509.547 259.974 509.433 259.569 509.433 259.101C509.433 258.321 509.761 257.662 510.417 257.123C511.079 256.584 511.923 256.314 512.948 256.314C514.026 256.314 514.899 256.593 515.567 257.149C516.241 257.706 516.578 258.418 516.578 259.285H514.943C514.943 258.84 514.753 258.456 514.372 258.134C513.997 257.812 513.522 257.65 512.948 257.65C512.356 257.65 511.894 257.779 511.56 258.037C511.226 258.295 511.059 258.632 511.059 259.048C511.059 259.44 511.214 259.736 511.524 259.936C511.835 260.135 512.395 260.325 513.203 260.507C514.018 260.688 514.677 260.905 515.181 261.157C515.685 261.409 516.057 261.714 516.297 262.071C516.543 262.423 516.666 262.854 516.666 263.363C516.666 264.213 516.326 264.896 515.646 265.411C514.967 265.921 514.085 266.176 513.001 266.176C512.239 266.176 511.565 266.041 510.979 265.771C510.394 265.502 509.934 265.127 509.6 264.646C509.271 264.16 509.107 263.636 509.107 263.073H510.733C510.763 263.618 510.979 264.052 511.384 264.374C511.794 264.69 512.333 264.849 513.001 264.849C513.616 264.849 514.108 264.726 514.478 264.479C514.853 264.228 515.04 263.894 515.04 263.478ZM520.99 254.188V256.49H522.766V257.747H520.99V263.645C520.99 264.025 521.069 264.312 521.228 264.506C521.386 264.693 521.655 264.787 522.036 264.787C522.224 264.787 522.481 264.752 522.81 264.682V266C522.382 266.117 521.966 266.176 521.562 266.176C520.835 266.176 520.287 265.956 519.918 265.517C519.549 265.077 519.364 264.453 519.364 263.645V257.747H517.633V256.49H519.364V254.188H520.99ZM533.629 263.759L537.285 253.203H539.131L534.385 266H532.891L528.153 253.203H529.99L533.629 263.759ZM542.365 266H540.739V256.49H542.365V266ZM540.607 253.968C540.607 253.704 540.687 253.481 540.845 253.3C541.009 253.118 541.249 253.027 541.565 253.027C541.882 253.027 542.122 253.118 542.286 253.3C542.45 253.481 542.532 253.704 542.532 253.968C542.532 254.231 542.45 254.451 542.286 254.627C542.122 254.803 541.882 254.891 541.565 254.891C541.249 254.891 541.009 254.803 540.845 254.627C540.687 254.451 540.607 254.231 540.607 253.968ZM548.922 266.176C547.633 266.176 546.584 265.754 545.775 264.91C544.967 264.061 544.562 262.927 544.562 261.509V261.21C544.562 260.267 544.741 259.426 545.099 258.688C545.462 257.943 545.966 257.363 546.61 256.947C547.261 256.525 547.964 256.314 548.72 256.314C549.956 256.314 550.917 256.722 551.603 257.536C552.288 258.351 552.631 259.517 552.631 261.034V261.711H546.188C546.212 262.648 546.484 263.407 547.006 263.987C547.533 264.562 548.201 264.849 549.01 264.849C549.584 264.849 550.07 264.731 550.469 264.497C550.867 264.263 551.216 263.952 551.515 263.565L552.508 264.339C551.711 265.563 550.516 266.176 548.922 266.176ZM548.72 257.65C548.063 257.65 547.513 257.891 547.067 258.371C546.622 258.846 546.347 259.514 546.241 260.375H551.005V260.252C550.958 259.426 550.735 258.787 550.337 258.336C549.938 257.879 549.399 257.65 548.72 257.65ZM562.94 263.759L564.769 256.49H566.395L563.626 266H562.308L559.996 258.793L557.746 266H556.428L553.668 256.49H555.285L557.157 263.609L559.372 256.49H560.682L562.94 263.759Z" fill="black"/>
<path d="M316.495 31H314.799V25.085H308.348V31H306.66V18.2031H308.348V23.7051H314.799V18.2031H316.495V31ZM318.807 26.1572C318.807 25.2256 318.988 24.3877 319.352 23.6436C319.721 22.8994 320.23 22.3252 320.881 21.9209C321.537 21.5166 322.284 21.3145 323.122 21.3145C324.417 21.3145 325.463 21.7627 326.26 22.6592C327.062 23.5557 327.464 24.748 327.464 26.2363V26.3506C327.464 27.2764 327.285 28.1084 326.928 28.8467C326.576 29.5791 326.069 30.1504 325.407 30.5605C324.751 30.9707 323.995 31.1758 323.14 31.1758C321.851 31.1758 320.805 30.7275 320.002 29.8311C319.205 28.9346 318.807 27.748 318.807 26.2715V26.1572ZM320.441 26.3506C320.441 27.4053 320.685 28.252 321.171 28.8906C321.663 29.5293 322.319 29.8486 323.14 29.8486C323.966 29.8486 324.622 29.5264 325.108 28.8818C325.595 28.2314 325.838 27.3232 325.838 26.1572C325.838 25.1143 325.589 24.2705 325.091 23.626C324.599 22.9756 323.942 22.6504 323.122 22.6504C322.319 22.6504 321.672 22.9697 321.18 23.6084C320.688 24.2471 320.441 25.1611 320.441 26.3506ZM335.04 28.4775C335.04 28.0381 334.873 27.6982 334.539 27.458C334.211 27.2119 333.634 27.001 332.808 26.8252C331.987 26.6494 331.334 26.4385 330.848 26.1924C330.367 25.9463 330.01 25.6533 329.775 25.3135C329.547 24.9736 329.433 24.5693 329.433 24.1006C329.433 23.3213 329.761 22.6621 330.417 22.123C331.079 21.584 331.923 21.3145 332.948 21.3145C334.026 21.3145 334.899 21.5928 335.567 22.1494C336.241 22.7061 336.578 23.418 336.578 24.2852H334.943C334.943 23.8398 334.753 23.4561 334.372 23.1338C333.997 22.8115 333.522 22.6504 332.948 22.6504C332.356 22.6504 331.894 22.7793 331.56 23.0371C331.226 23.2949 331.059 23.6318 331.059 24.0479C331.059 24.4404 331.214 24.7363 331.524 24.9355C331.835 25.1348 332.395 25.3252 333.203 25.5068C334.018 25.6885 334.677 25.9053 335.181 26.1572C335.685 26.4092 336.057 26.7139 336.297 27.0713C336.543 27.4229 336.666 27.8535 336.666 28.3633C336.666 29.2129 336.326 29.8955 335.646 30.4111C334.967 30.9209 334.085 31.1758 333.001 31.1758C332.239 31.1758 331.565 31.041 330.979 30.7715C330.394 30.502 329.934 30.127 329.6 29.6465C329.271 29.1602 329.107 28.6357 329.107 28.0732H330.733C330.763 28.6182 330.979 29.0518 331.384 29.374C331.794 29.6904 332.333 29.8486 333.001 29.8486C333.616 29.8486 334.108 29.7256 334.478 29.4795C334.853 29.2275 335.04 28.8936 335.04 28.4775ZM340.99 19.1875V21.4902H342.766V22.7471H340.99V28.6445C340.99 29.0254 341.069 29.3125 341.228 29.5059C341.386 29.6934 341.655 29.7871 342.036 29.7871C342.224 29.7871 342.481 29.752 342.81 29.6816V31C342.382 31.1172 341.966 31.1758 341.562 31.1758C340.835 31.1758 340.287 30.9561 339.918 30.5166C339.549 30.0771 339.364 29.4531 339.364 28.6445V22.7471H337.633V21.4902H339.364V19.1875H340.99ZM353.629 28.7588L357.285 18.2031H359.131L354.385 31H352.891L348.153 18.2031H349.99L353.629 28.7588ZM362.365 31H360.739V21.4902H362.365V31ZM360.607 18.9678C360.607 18.7041 360.687 18.4814 360.845 18.2998C361.009 18.1182 361.249 18.0273 361.565 18.0273C361.882 18.0273 362.122 18.1182 362.286 18.2998C362.45 18.4814 362.532 18.7041 362.532 18.9678C362.532 19.2314 362.45 19.4512 362.286 19.627C362.122 19.8027 361.882 19.8906 361.565 19.8906C361.249 19.8906 361.009 19.8027 360.845 19.627C360.687 19.4512 360.607 19.2314 360.607 18.9678ZM368.922 31.1758C367.633 31.1758 366.584 30.7539 365.775 29.9102C364.967 29.0605 364.562 27.9268 364.562 26.5088V26.21C364.562 25.2666 364.741 24.4258 365.099 23.6875C365.462 22.9434 365.966 22.3633 366.61 21.9473C367.261 21.5254 367.964 21.3145 368.72 21.3145C369.956 21.3145 370.917 21.7217 371.603 22.5361C372.288 23.3506 372.631 24.5166 372.631 26.0342V26.7109H366.188C366.212 27.6484 366.484 28.4072 367.006 28.9873C367.533 29.5615 368.201 29.8486 369.01 29.8486C369.584 29.8486 370.07 29.7314 370.469 29.4971C370.867 29.2627 371.216 28.9521 371.515 28.5654L372.508 29.3389C371.711 30.5635 370.516 31.1758 368.922 31.1758ZM368.72 22.6504C368.063 22.6504 367.513 22.8906 367.067 23.3711C366.622 23.8457 366.347 24.5137 366.241 25.375H371.005V25.252C370.958 24.4258 370.735 23.7871 370.337 23.3359C369.938 22.8789 369.399 22.6504 368.72 22.6504ZM382.94 28.7588L384.769 21.4902H386.395L383.626 31H382.308L379.996 23.793L377.746 31H376.428L373.668 21.4902H375.285L377.157 28.6094L379.372 21.4902H380.682L382.94 28.7588Z" fill="black"/>
<path d="M490.176 189.939C490.018 191.293 489.517 192.339 488.673 193.077C487.835 193.81 486.719 194.176 485.324 194.176C483.812 194.176 482.6 193.634 481.686 192.55C480.777 191.466 480.323 190.016 480.323 188.199V186.969C480.323 185.779 480.534 184.733 480.956 183.831C481.384 182.929 481.987 182.237 482.767 181.757C483.546 181.271 484.448 181.027 485.474 181.027C486.833 181.027 487.923 181.408 488.743 182.17C489.563 182.926 490.041 183.975 490.176 185.316H488.479C488.333 184.297 488.014 183.559 487.521 183.102C487.035 182.645 486.353 182.416 485.474 182.416C484.396 182.416 483.549 182.814 482.934 183.611C482.324 184.408 482.02 185.542 482.02 187.013V188.252C482.02 189.641 482.31 190.745 482.89 191.565C483.47 192.386 484.281 192.796 485.324 192.796C486.262 192.796 486.979 192.585 487.478 192.163C487.981 191.735 488.315 190.994 488.479 189.939H490.176ZM491.802 189.157C491.802 188.226 491.983 187.388 492.347 186.644C492.716 185.899 493.226 185.325 493.876 184.921C494.532 184.517 495.279 184.314 496.117 184.314C497.412 184.314 498.458 184.763 499.255 185.659C500.058 186.556 500.459 187.748 500.459 189.236V189.351C500.459 190.276 500.28 191.108 499.923 191.847C499.571 192.579 499.064 193.15 498.402 193.561C497.746 193.971 496.99 194.176 496.135 194.176C494.846 194.176 493.8 193.728 492.997 192.831C492.2 191.935 491.802 190.748 491.802 189.271V189.157ZM493.437 189.351C493.437 190.405 493.68 191.252 494.166 191.891C494.658 192.529 495.314 192.849 496.135 192.849C496.961 192.849 497.617 192.526 498.104 191.882C498.59 191.231 498.833 190.323 498.833 189.157C498.833 188.114 498.584 187.271 498.086 186.626C497.594 185.976 496.938 185.65 496.117 185.65C495.314 185.65 494.667 185.97 494.175 186.608C493.683 187.247 493.437 188.161 493.437 189.351ZM504.027 184.49L504.071 185.545C504.769 184.725 505.709 184.314 506.893 184.314C508.223 184.314 509.128 184.824 509.608 185.844C509.925 185.387 510.335 185.018 510.839 184.736C511.349 184.455 511.949 184.314 512.641 184.314C514.727 184.314 515.787 185.419 515.822 187.628V194H514.196V187.725C514.196 187.045 514.041 186.538 513.73 186.204C513.42 185.864 512.898 185.694 512.166 185.694C511.562 185.694 511.062 185.876 510.663 186.239C510.265 186.597 510.033 187.08 509.969 187.689V194H508.334V187.769C508.334 186.386 507.657 185.694 506.304 185.694C505.237 185.694 504.508 186.148 504.115 187.057V194H502.489V184.49H504.027ZM526.316 189.351C526.316 190.798 525.985 191.964 525.323 192.849C524.661 193.733 523.765 194.176 522.634 194.176C521.479 194.176 520.571 193.81 519.909 193.077V197.656H518.283V184.49H519.769L519.848 185.545C520.51 184.725 521.43 184.314 522.607 184.314C523.75 184.314 524.652 184.745 525.314 185.606C525.982 186.468 526.316 187.666 526.316 189.201V189.351ZM524.69 189.166C524.69 188.094 524.462 187.247 524.005 186.626C523.548 186.005 522.921 185.694 522.124 185.694C521.14 185.694 520.401 186.131 519.909 187.004V191.548C520.396 192.415 521.14 192.849 522.142 192.849C522.921 192.849 523.539 192.541 523.996 191.926C524.459 191.305 524.69 190.385 524.69 189.166ZM527.96 189.157C527.96 188.226 528.142 187.388 528.505 186.644C528.874 185.899 529.384 185.325 530.034 184.921C530.69 184.517 531.438 184.314 532.275 184.314C533.57 184.314 534.616 184.763 535.413 185.659C536.216 186.556 536.617 187.748 536.617 189.236V189.351C536.617 190.276 536.438 191.108 536.081 191.847C535.729 192.579 535.223 193.15 534.561 193.561C533.904 193.971 533.148 194.176 532.293 194.176C531.004 194.176 529.958 193.728 529.155 192.831C528.358 191.935 527.96 190.748 527.96 189.271V189.157ZM529.595 189.351C529.595 190.405 529.838 191.252 530.324 191.891C530.816 192.529 531.473 192.849 532.293 192.849C533.119 192.849 533.775 192.526 534.262 191.882C534.748 191.231 534.991 190.323 534.991 189.157C534.991 188.114 534.742 187.271 534.244 186.626C533.752 185.976 533.096 185.65 532.275 185.65C531.473 185.65 530.825 185.97 530.333 186.608C529.841 187.247 529.595 188.161 529.595 189.351ZM540.194 184.49L540.247 185.686C540.974 184.771 541.923 184.314 543.095 184.314C545.104 184.314 546.118 185.448 546.136 187.716V194H544.51V187.707C544.504 187.021 544.346 186.515 544.035 186.187C543.73 185.858 543.253 185.694 542.603 185.694C542.075 185.694 541.612 185.835 541.214 186.116C540.815 186.397 540.505 186.767 540.282 187.224V194H538.656V184.49H540.194ZM552.534 194.176C551.245 194.176 550.196 193.754 549.388 192.91C548.579 192.061 548.175 190.927 548.175 189.509V189.21C548.175 188.267 548.354 187.426 548.711 186.688C549.074 185.943 549.578 185.363 550.223 184.947C550.873 184.525 551.576 184.314 552.332 184.314C553.568 184.314 554.529 184.722 555.215 185.536C555.9 186.351 556.243 187.517 556.243 189.034V189.711H549.801C549.824 190.648 550.097 191.407 550.618 191.987C551.146 192.562 551.813 192.849 552.622 192.849C553.196 192.849 553.683 192.731 554.081 192.497C554.479 192.263 554.828 191.952 555.127 191.565L556.12 192.339C555.323 193.563 554.128 194.176 552.534 194.176ZM552.332 185.65C551.676 185.65 551.125 185.891 550.68 186.371C550.234 186.846 549.959 187.514 549.854 188.375H554.617V188.252C554.57 187.426 554.348 186.787 553.949 186.336C553.551 185.879 553.012 185.65 552.332 185.65ZM559.671 184.49L559.724 185.686C560.45 184.771 561.399 184.314 562.571 184.314C564.581 184.314 565.595 185.448 565.612 187.716V194H563.986V187.707C563.98 187.021 563.822 186.515 563.512 186.187C563.207 185.858 562.729 185.694 562.079 185.694C561.552 185.694 561.089 185.835 560.69 186.116C560.292 186.397 559.981 186.767 559.759 187.224V194H558.133V184.49H559.671ZM570.271 182.188V184.49H572.046V185.747H570.271V191.645C570.271 192.025 570.35 192.312 570.508 192.506C570.666 192.693 570.936 192.787 571.316 192.787C571.504 192.787 571.762 192.752 572.09 192.682V194C571.662 194.117 571.246 194.176 570.842 194.176C570.115 194.176 569.567 193.956 569.198 193.517C568.829 193.077 568.645 192.453 568.645 191.645V185.747H566.913V184.49H568.645V182.188H570.271Z" fill="black"/>
<path d="M229.495 339H227.799V333.085H221.348V339H219.66V326.203H221.348V331.705H227.799V326.203H229.495V339ZM231.807 334.157C231.807 333.226 231.988 332.388 232.352 331.644C232.721 330.899 233.23 330.325 233.881 329.921C234.537 329.517 235.284 329.314 236.122 329.314C237.417 329.314 238.463 329.763 239.26 330.659C240.062 331.556 240.464 332.748 240.464 334.236V334.351C240.464 335.276 240.285 336.108 239.928 336.847C239.576 337.579 239.069 338.15 238.407 338.561C237.751 338.971 236.995 339.176 236.14 339.176C234.851 339.176 233.805 338.728 233.002 337.831C232.205 336.935 231.807 335.748 231.807 334.271V334.157ZM233.441 334.351C233.441 335.405 233.685 336.252 234.171 336.891C234.663 337.529 235.319 337.849 236.14 337.849C236.966 337.849 237.622 337.526 238.108 336.882C238.595 336.231 238.838 335.323 238.838 334.157C238.838 333.114 238.589 332.271 238.091 331.626C237.599 330.976 236.942 330.65 236.122 330.65C235.319 330.65 234.672 330.97 234.18 331.608C233.688 332.247 233.441 333.161 233.441 334.351ZM248.04 336.478C248.04 336.038 247.873 335.698 247.539 335.458C247.211 335.212 246.634 335.001 245.808 334.825C244.987 334.649 244.334 334.438 243.848 334.192C243.367 333.946 243.01 333.653 242.775 333.313C242.547 332.974 242.433 332.569 242.433 332.101C242.433 331.321 242.761 330.662 243.417 330.123C244.079 329.584 244.923 329.314 245.948 329.314C247.026 329.314 247.899 329.593 248.567 330.149C249.241 330.706 249.578 331.418 249.578 332.285H247.943C247.943 331.84 247.753 331.456 247.372 331.134C246.997 330.812 246.522 330.65 245.948 330.65C245.356 330.65 244.894 330.779 244.56 331.037C244.226 331.295 244.059 331.632 244.059 332.048C244.059 332.44 244.214 332.736 244.524 332.936C244.835 333.135 245.395 333.325 246.203 333.507C247.018 333.688 247.677 333.905 248.181 334.157C248.685 334.409 249.057 334.714 249.297 335.071C249.543 335.423 249.666 335.854 249.666 336.363C249.666 337.213 249.326 337.896 248.646 338.411C247.967 338.921 247.085 339.176 246.001 339.176C245.239 339.176 244.565 339.041 243.979 338.771C243.394 338.502 242.934 338.127 242.6 337.646C242.271 337.16 242.107 336.636 242.107 336.073H243.733C243.763 336.618 243.979 337.052 244.384 337.374C244.794 337.69 245.333 337.849 246.001 337.849C246.616 337.849 247.108 337.726 247.478 337.479C247.853 337.228 248.04 336.894 248.04 336.478ZM253.99 327.188V329.49H255.766V330.747H253.99V336.645C253.99 337.025 254.069 337.312 254.228 337.506C254.386 337.693 254.655 337.787 255.036 337.787C255.224 337.787 255.481 337.752 255.81 337.682V339C255.382 339.117 254.966 339.176 254.562 339.176C253.835 339.176 253.287 338.956 252.918 338.517C252.549 338.077 252.364 337.453 252.364 336.645V330.747H250.633V329.49H252.364V327.188H253.99ZM266.629 336.759L270.285 326.203H272.131L267.385 339H265.891L261.153 326.203H262.99L266.629 336.759ZM275.365 339H273.739V329.49H275.365V339ZM273.607 326.968C273.607 326.704 273.687 326.481 273.845 326.3C274.009 326.118 274.249 326.027 274.565 326.027C274.882 326.027 275.122 326.118 275.286 326.3C275.45 326.481 275.532 326.704 275.532 326.968C275.532 327.231 275.45 327.451 275.286 327.627C275.122 327.803 274.882 327.891 274.565 327.891C274.249 327.891 274.009 327.803 273.845 327.627C273.687 327.451 273.607 327.231 273.607 326.968ZM281.922 339.176C280.633 339.176 279.584 338.754 278.775 337.91C277.967 337.061 277.562 335.927 277.562 334.509V334.21C277.562 333.267 277.741 332.426 278.099 331.688C278.462 330.943 278.966 330.363 279.61 329.947C280.261 329.525 280.964 329.314 281.72 329.314C282.956 329.314 283.917 329.722 284.603 330.536C285.288 331.351 285.631 332.517 285.631 334.034V334.711H279.188C279.212 335.648 279.484 336.407 280.006 336.987C280.533 337.562 281.201 337.849 282.01 337.849C282.584 337.849 283.07 337.731 283.469 337.497C283.867 337.263 284.216 336.952 284.515 336.565L285.508 337.339C284.711 338.563 283.516 339.176 281.922 339.176ZM281.72 330.65C281.063 330.65 280.513 330.891 280.067 331.371C279.622 331.846 279.347 332.514 279.241 333.375H284.005V333.252C283.958 332.426 283.735 331.787 283.337 331.336C282.938 330.879 282.399 330.65 281.72 330.65ZM295.94 336.759L297.769 329.49H299.395L296.626 339H295.308L292.996 331.793L290.746 339H289.428L286.668 329.49H288.285L290.157 336.609L292.372 329.49H293.682L295.94 336.759Z" fill="black"/>
<path d="M110.253 264.759L113.909 254.203H115.755L111.009 267H109.515L104.777 254.203H106.614L110.253 264.759ZM118.989 267H117.363V257.49H118.989V267ZM117.231 254.968C117.231 254.704 117.311 254.481 117.469 254.3C117.633 254.118 117.873 254.027 118.189 254.027C118.506 254.027 118.746 254.118 118.91 254.3C119.074 254.481 119.156 254.704 119.156 254.968C119.156 255.231 119.074 255.451 118.91 255.627C118.746 255.803 118.506 255.891 118.189 255.891C117.873 255.891 117.633 255.803 117.469 255.627C117.311 255.451 117.231 255.231 117.231 254.968ZM125.546 267.176C124.257 267.176 123.208 266.754 122.399 265.91C121.591 265.061 121.187 263.927 121.187 262.509V262.21C121.187 261.267 121.365 260.426 121.723 259.688C122.086 258.943 122.59 258.363 123.234 257.947C123.885 257.525 124.588 257.314 125.344 257.314C126.58 257.314 127.541 257.722 128.227 258.536C128.912 259.351 129.255 260.517 129.255 262.034V262.711H122.812C122.836 263.648 123.108 264.407 123.63 264.987C124.157 265.562 124.825 265.849 125.634 265.849C126.208 265.849 126.694 265.731 127.093 265.497C127.491 265.263 127.84 264.952 128.139 264.565L129.132 265.339C128.335 266.563 127.14 267.176 125.546 267.176ZM125.344 258.65C124.688 258.65 124.137 258.891 123.691 259.371C123.246 259.846 122.971 260.514 122.865 261.375H127.629V261.252C127.582 260.426 127.359 259.787 126.961 259.336C126.562 258.879 126.023 258.65 125.344 258.65ZM139.564 264.759L141.393 257.49H143.019L140.25 267H138.932L136.62 259.793L134.37 267H133.052L130.292 257.49H131.909L133.781 264.609L135.996 257.49H137.306L139.564 264.759ZM158.812 262.939C158.654 264.293 158.153 265.339 157.31 266.077C156.472 266.81 155.355 267.176 153.961 267.176C152.449 267.176 151.236 266.634 150.322 265.55C149.414 264.466 148.96 263.016 148.96 261.199V259.969C148.96 258.779 149.171 257.733 149.593 256.831C150.021 255.929 150.624 255.237 151.403 254.757C152.183 254.271 153.085 254.027 154.11 254.027C155.47 254.027 156.56 254.408 157.38 255.17C158.2 255.926 158.678 256.975 158.812 258.316H157.116C156.97 257.297 156.65 256.559 156.158 256.102C155.672 255.645 154.989 255.416 154.11 255.416C153.032 255.416 152.186 255.814 151.57 256.611C150.961 257.408 150.656 258.542 150.656 260.013V261.252C150.656 262.641 150.946 263.745 151.526 264.565C152.106 265.386 152.918 265.796 153.961 265.796C154.898 265.796 155.616 265.585 156.114 265.163C156.618 264.735 156.952 263.994 157.116 262.939H158.812ZM160.438 262.157C160.438 261.226 160.62 260.388 160.983 259.644C161.353 258.899 161.862 258.325 162.513 257.921C163.169 257.517 163.916 257.314 164.754 257.314C166.049 257.314 167.095 257.763 167.892 258.659C168.694 259.556 169.096 260.748 169.096 262.236V262.351C169.096 263.276 168.917 264.108 168.56 264.847C168.208 265.579 167.701 266.15 167.039 266.561C166.383 266.971 165.627 267.176 164.771 267.176C163.482 267.176 162.437 266.728 161.634 265.831C160.837 264.935 160.438 263.748 160.438 262.271V262.157ZM162.073 262.351C162.073 263.405 162.316 264.252 162.803 264.891C163.295 265.529 163.951 265.849 164.771 265.849C165.598 265.849 166.254 265.526 166.74 264.882C167.227 264.231 167.47 263.323 167.47 262.157C167.47 261.114 167.221 260.271 166.723 259.626C166.23 258.976 165.574 258.65 164.754 258.65C163.951 258.65 163.304 258.97 162.812 259.608C162.319 260.247 162.073 261.161 162.073 262.351ZM172.673 257.49L172.726 258.686C173.452 257.771 174.401 257.314 175.573 257.314C177.583 257.314 178.597 258.448 178.614 260.716V267H176.988V260.707C176.982 260.021 176.824 259.515 176.514 259.187C176.209 258.858 175.731 258.694 175.081 258.694C174.554 258.694 174.091 258.835 173.692 259.116C173.294 259.397 172.983 259.767 172.761 260.224V267H171.135V257.49H172.673ZM183.272 255.188V257.49H185.048V258.747H183.272V264.645C183.272 265.025 183.352 265.312 183.51 265.506C183.668 265.693 183.938 265.787 184.318 265.787C184.506 265.787 184.764 265.752 185.092 265.682V267C184.664 267.117 184.248 267.176 183.844 267.176C183.117 267.176 182.569 266.956 182.2 266.517C181.831 266.077 181.646 265.453 181.646 264.645V258.747H179.915V257.49H181.646V255.188H183.272ZM192.826 267C192.732 266.812 192.656 266.479 192.598 265.998C191.842 266.783 190.939 267.176 189.891 267.176C188.953 267.176 188.183 266.912 187.579 266.385C186.981 265.852 186.683 265.178 186.683 264.363C186.683 263.373 187.058 262.605 187.808 262.061C188.563 261.51 189.624 261.234 190.989 261.234H192.571V260.487C192.571 259.919 192.401 259.468 192.062 259.134C191.722 258.794 191.221 258.624 190.559 258.624C189.979 258.624 189.492 258.771 189.1 259.063C188.707 259.356 188.511 259.711 188.511 260.127H186.876C186.876 259.652 187.043 259.195 187.377 258.756C187.717 258.311 188.174 257.959 188.748 257.701C189.328 257.443 189.964 257.314 190.655 257.314C191.751 257.314 192.609 257.59 193.23 258.141C193.852 258.686 194.174 259.438 194.197 260.399V264.776C194.197 265.649 194.309 266.344 194.531 266.859V267H192.826ZM190.128 265.761C190.638 265.761 191.121 265.629 191.578 265.365C192.035 265.102 192.366 264.759 192.571 264.337V262.386H191.297C189.305 262.386 188.309 262.969 188.309 264.135C188.309 264.645 188.479 265.043 188.818 265.33C189.158 265.617 189.595 265.761 190.128 265.761ZM198.513 267H196.887V257.49H198.513V267ZM196.755 254.968C196.755 254.704 196.834 254.481 196.992 254.3C197.156 254.118 197.396 254.027 197.713 254.027C198.029 254.027 198.27 254.118 198.434 254.3C198.598 254.481 198.68 254.704 198.68 254.968C198.68 255.231 198.598 255.451 198.434 255.627C198.27 255.803 198.029 255.891 197.713 255.891C197.396 255.891 197.156 255.803 196.992 255.627C196.834 255.451 196.755 255.231 196.755 254.968ZM202.661 257.49L202.714 258.686C203.44 257.771 204.39 257.314 205.562 257.314C207.571 257.314 208.585 258.448 208.603 260.716V267H206.977V260.707C206.971 260.021 206.812 259.515 206.502 259.187C206.197 258.858 205.72 258.694 205.069 258.694C204.542 258.694 204.079 258.835 203.681 259.116C203.282 259.397 202.972 259.767 202.749 260.224V267H201.123V257.49H202.661ZM215.001 267.176C213.712 267.176 212.663 266.754 211.854 265.91C211.046 265.061 210.642 263.927 210.642 262.509V262.21C210.642 261.267 210.82 260.426 211.178 259.688C211.541 258.943 212.045 258.363 212.689 257.947C213.34 257.525 214.043 257.314 214.799 257.314C216.035 257.314 216.996 257.722 217.682 258.536C218.367 259.351 218.71 260.517 218.71 262.034V262.711H212.268C212.291 263.648 212.563 264.407 213.085 264.987C213.612 265.562 214.28 265.849 215.089 265.849C215.663 265.849 216.149 265.731 216.548 265.497C216.946 265.263 217.295 264.952 217.594 264.565L218.587 265.339C217.79 266.563 216.595 267.176 215.001 267.176ZM214.799 258.65C214.143 258.65 213.592 258.891 213.146 259.371C212.701 259.846 212.426 260.514 212.32 261.375H217.084V261.252C217.037 260.426 216.814 259.787 216.416 259.336C216.018 258.879 215.479 258.65 214.799 258.65ZM225.196 258.949C224.95 258.908 224.684 258.888 224.396 258.888C223.33 258.888 222.606 259.342 222.226 260.25V267H220.6V257.49H222.182L222.208 258.589C222.741 257.739 223.497 257.314 224.476 257.314C224.792 257.314 225.032 257.355 225.196 257.438V258.949Z" fill="black"/>
<path d="M291.253 99.7588L294.909 89.2031H296.755L292.009 102H290.515L285.777 89.2031H287.614L291.253 99.7588ZM299.989 102H298.363V92.4902H299.989V102ZM298.231 89.9678C298.231 89.7041 298.311 89.4814 298.469 89.2998C298.633 89.1182 298.873 89.0273 299.189 89.0273C299.506 89.0273 299.746 89.1182 299.91 89.2998C300.074 89.4814 300.156 89.7041 300.156 89.9678C300.156 90.2314 300.074 90.4512 299.91 90.627C299.746 90.8027 299.506 90.8906 299.189 90.8906C298.873 90.8906 298.633 90.8027 298.469 90.627C298.311 90.4512 298.231 90.2314 298.231 89.9678ZM306.546 102.176C305.257 102.176 304.208 101.754 303.399 100.91C302.591 100.061 302.187 98.9268 302.187 97.5088V97.21C302.187 96.2666 302.365 95.4258 302.723 94.6875C303.086 93.9434 303.59 93.3633 304.234 92.9473C304.885 92.5254 305.588 92.3145 306.344 92.3145C307.58 92.3145 308.541 92.7217 309.227 93.5361C309.912 94.3506 310.255 95.5166 310.255 97.0342V97.7109H303.812C303.836 98.6484 304.108 99.4072 304.63 99.9873C305.157 100.562 305.825 100.849 306.634 100.849C307.208 100.849 307.694 100.731 308.093 100.497C308.491 100.263 308.84 99.9521 309.139 99.5654L310.132 100.339C309.335 101.563 308.14 102.176 306.546 102.176ZM306.344 93.6504C305.688 93.6504 305.137 93.8906 304.691 94.3711C304.246 94.8457 303.971 95.5137 303.865 96.375H308.629V96.252C308.582 95.4258 308.359 94.7871 307.961 94.3359C307.562 93.8789 307.023 93.6504 306.344 93.6504ZM320.564 99.7588L322.393 92.4902H324.019L321.25 102H319.932L317.62 94.793L315.37 102H314.052L311.292 92.4902H312.909L314.781 99.6094L316.996 92.4902H318.306L320.564 99.7588ZM339.812 97.9395C339.654 99.293 339.153 100.339 338.31 101.077C337.472 101.81 336.355 102.176 334.961 102.176C333.449 102.176 332.236 101.634 331.322 100.55C330.414 99.4658 329.96 98.0156 329.96 96.1992V94.9688C329.96 93.7793 330.171 92.7334 330.593 91.8311C331.021 90.9287 331.624 90.2373 332.403 89.7568C333.183 89.2705 334.085 89.0273 335.11 89.0273C336.47 89.0273 337.56 89.4082 338.38 90.1699C339.2 90.9258 339.678 91.9746 339.812 93.3164H338.116C337.97 92.2969 337.65 91.5586 337.158 91.1016C336.672 90.6445 335.989 90.416 335.11 90.416C334.032 90.416 333.186 90.8145 332.57 91.6113C331.961 92.4082 331.656 93.542 331.656 95.0127V96.252C331.656 97.6406 331.946 98.7451 332.526 99.5654C333.106 100.386 333.918 100.796 334.961 100.796C335.898 100.796 336.616 100.585 337.114 100.163C337.618 99.7354 337.952 98.9941 338.116 97.9395H339.812ZM341.438 97.1572C341.438 96.2256 341.62 95.3877 341.983 94.6436C342.353 93.8994 342.862 93.3252 343.513 92.9209C344.169 92.5166 344.916 92.3145 345.754 92.3145C347.049 92.3145 348.095 92.7627 348.892 93.6592C349.694 94.5557 350.096 95.748 350.096 97.2363V97.3506C350.096 98.2764 349.917 99.1084 349.56 99.8467C349.208 100.579 348.701 101.15 348.039 101.561C347.383 101.971 346.627 102.176 345.771 102.176C344.482 102.176 343.437 101.728 342.634 100.831C341.837 99.9346 341.438 98.748 341.438 97.2715V97.1572ZM343.073 97.3506C343.073 98.4053 343.316 99.252 343.803 99.8906C344.295 100.529 344.951 100.849 345.771 100.849C346.598 100.849 347.254 100.526 347.74 99.8818C348.227 99.2314 348.47 98.3232 348.47 97.1572C348.47 96.1143 348.221 95.2705 347.723 94.626C347.23 93.9756 346.574 93.6504 345.754 93.6504C344.951 93.6504 344.304 93.9697 343.812 94.6084C343.319 95.2471 343.073 96.1611 343.073 97.3506ZM353.673 92.4902L353.726 93.6855C354.452 92.7715 355.401 92.3145 356.573 92.3145C358.583 92.3145 359.597 93.4482 359.614 95.7158V102H357.988V95.707C357.982 95.0215 357.824 94.5146 357.514 94.1865C357.209 93.8584 356.731 93.6943 356.081 93.6943C355.554 93.6943 355.091 93.835 354.692 94.1162C354.294 94.3975 353.983 94.7666 353.761 95.2236V102H352.135V92.4902H353.673ZM364.272 90.1875V92.4902H366.048V93.7471H364.272V99.6445C364.272 100.025 364.352 100.312 364.51 100.506C364.668 100.693 364.938 100.787 365.318 100.787C365.506 100.787 365.764 100.752 366.092 100.682V102C365.664 102.117 365.248 102.176 364.844 102.176C364.117 102.176 363.569 101.956 363.2 101.517C362.831 101.077 362.646 100.453 362.646 99.6445V93.7471H360.915V92.4902H362.646V90.1875H364.272ZM373.826 102C373.732 101.812 373.656 101.479 373.598 100.998C372.842 101.783 371.939 102.176 370.891 102.176C369.953 102.176 369.183 101.912 368.579 101.385C367.981 100.852 367.683 100.178 367.683 99.3633C367.683 98.373 368.058 97.6055 368.808 97.0605C369.563 96.5098 370.624 96.2344 371.989 96.2344H373.571V95.4873C373.571 94.9189 373.401 94.4678 373.062 94.1338C372.722 93.7939 372.221 93.624 371.559 93.624C370.979 93.624 370.492 93.7705 370.1 94.0635C369.707 94.3564 369.511 94.7109 369.511 95.127H367.876C367.876 94.6523 368.043 94.1953 368.377 93.7559C368.717 93.3105 369.174 92.959 369.748 92.7012C370.328 92.4434 370.964 92.3145 371.655 92.3145C372.751 92.3145 373.609 92.5898 374.23 93.1406C374.852 93.6855 375.174 94.4385 375.197 95.3994V99.7764C375.197 100.649 375.309 101.344 375.531 101.859V102H373.826ZM371.128 100.761C371.638 100.761 372.121 100.629 372.578 100.365C373.035 100.102 373.366 99.7588 373.571 99.3369V97.3857H372.297C370.305 97.3857 369.309 97.9688 369.309 99.1348C369.309 99.6445 369.479 100.043 369.818 100.33C370.158 100.617 370.595 100.761 371.128 100.761ZM379.513 102H377.887V92.4902H379.513V102ZM377.755 89.9678C377.755 89.7041 377.834 89.4814 377.992 89.2998C378.156 89.1182 378.396 89.0273 378.713 89.0273C379.029 89.0273 379.27 89.1182 379.434 89.2998C379.598 89.4814 379.68 89.7041 379.68 89.9678C379.68 90.2314 379.598 90.4512 379.434 90.627C379.27 90.8027 379.029 90.8906 378.713 90.8906C378.396 90.8906 378.156 90.8027 377.992 90.627C377.834 90.4512 377.755 90.2314 377.755 89.9678ZM383.661 92.4902L383.714 93.6855C384.44 92.7715 385.39 92.3145 386.562 92.3145C388.571 92.3145 389.585 93.4482 389.603 95.7158V102H387.977V95.707C387.971 95.0215 387.812 94.5146 387.502 94.1865C387.197 93.8584 386.72 93.6943 386.069 93.6943C385.542 93.6943 385.079 93.835 384.681 94.1162C384.282 94.3975 383.972 94.7666 383.749 95.2236V102H382.123V92.4902H383.661ZM396.001 102.176C394.712 102.176 393.663 101.754 392.854 100.91C392.046 100.061 391.642 98.9268 391.642 97.5088V97.21C391.642 96.2666 391.82 95.4258 392.178 94.6875C392.541 93.9434 393.045 93.3633 393.689 92.9473C394.34 92.5254 395.043 92.3145 395.799 92.3145C397.035 92.3145 397.996 92.7217 398.682 93.5361C399.367 94.3506 399.71 95.5166 399.71 97.0342V97.7109H393.268C393.291 98.6484 393.563 99.4072 394.085 99.9873C394.612 100.562 395.28 100.849 396.089 100.849C396.663 100.849 397.149 100.731 397.548 100.497C397.946 100.263 398.295 99.9521 398.594 99.5654L399.587 100.339C398.79 101.563 397.595 102.176 396.001 102.176ZM395.799 93.6504C395.143 93.6504 394.592 93.8906 394.146 94.3711C393.701 94.8457 393.426 95.5137 393.32 96.375H398.084V96.252C398.037 95.4258 397.814 94.7871 397.416 94.3359C397.018 93.8789 396.479 93.6504 395.799 93.6504ZM406.196 93.9492C405.95 93.9082 405.684 93.8877 405.396 93.8877C404.33 93.8877 403.606 94.3418 403.226 95.25V102H401.6V92.4902H403.182L403.208 93.5889C403.741 92.7393 404.497 92.3145 405.476 92.3145C405.792 92.3145 406.032 92.3555 406.196 92.4375V93.9492Z" fill="black"/>
</svg>
