<svg width="796" height="920" viewBox="0 0 796 920" fill="none" xmlns="http://www.w3.org/2000/svg">
<rect x="95" y="262" width="361" height="88" rx="44" fill="#FFE0E8"/>
<rect x="95" y="262" width="361" height="88" rx="44" stroke="#B21F70" stroke-width="6"/>
<path d="M158.358 314.296L147.862 307.944V305.064L158.358 298.696V302.232L149.542 306.968V306.04L158.358 310.744V314.296ZM174.852 315.352C173.529 315.352 172.303 315.011 171.172 314.328C170.052 313.635 169.145 312.691 168.452 311.496C167.769 310.301 167.428 308.957 167.428 307.464C167.428 307.421 167.428 307.384 167.428 307.352C167.428 307.309 167.428 307.272 167.428 307.24L169.508 307.192C169.508 307.213 169.508 307.24 169.508 307.272C169.508 307.304 169.508 307.331 169.508 307.352C169.508 308.184 169.716 308.925 170.132 309.576C170.548 310.216 171.087 310.723 171.748 311.096C172.42 311.459 173.135 311.64 173.892 311.64C175.119 311.64 176.164 311.219 177.028 310.376C177.892 309.533 178.324 308.227 178.324 306.456C178.324 304.675 177.892 303.373 177.028 302.552C176.175 301.72 175.129 301.304 173.892 301.304C173.145 301.304 172.436 301.485 171.764 301.848C171.103 302.2 170.559 302.691 170.132 303.32C169.716 303.949 169.508 304.685 169.508 305.528L167.428 305.432C167.428 303.928 167.769 302.595 168.452 301.432C169.145 300.269 170.052 299.363 171.172 298.712C172.303 298.051 173.529 297.72 174.852 297.72C176.228 297.72 177.508 298.061 178.692 298.744C179.887 299.416 180.847 300.403 181.572 301.704C182.308 302.995 182.676 304.579 182.676 306.456C182.676 308.387 182.319 310.013 181.604 311.336C180.889 312.659 179.94 313.661 178.756 314.344C177.572 315.016 176.271 315.352 174.852 315.352ZM165.284 315V289.992H169.508V315H165.284ZM192.271 315.32C191.066 315.32 190.063 315.117 189.263 314.712C188.474 314.307 187.85 313.773 187.391 313.112C186.943 312.451 186.623 311.72 186.431 310.92C186.25 310.12 186.159 309.32 186.159 308.52C186.159 308.125 186.159 307.715 186.159 307.288C186.159 306.861 186.159 306.429 186.159 305.992V298.008H190.383V305.336C190.383 305.72 190.383 306.088 190.383 306.44C190.383 306.792 190.383 307.123 190.383 307.432C190.383 308.189 190.474 308.893 190.655 309.544C190.836 310.184 191.167 310.701 191.647 311.096C192.138 311.491 192.826 311.688 193.711 311.688C194.554 311.688 195.279 311.443 195.887 310.952C196.495 310.451 196.964 309.821 197.295 309.064C197.636 308.307 197.807 307.539 197.807 306.76L199.247 307.72C199.247 308.755 199.087 309.731 198.767 310.648C198.447 311.555 197.983 312.36 197.375 313.064C196.767 313.768 196.031 314.323 195.167 314.728C194.314 315.123 193.348 315.32 192.271 315.32ZM197.807 315V298.008H202.015V315H197.807ZM213.873 315.32C213.265 315.32 212.646 315.261 212.017 315.144C211.388 315.027 210.812 314.808 210.289 314.488C209.766 314.168 209.345 313.699 209.025 313.08C208.705 312.461 208.545 311.645 208.545 310.632C208.545 310.397 208.545 310.163 208.545 309.928C208.545 309.683 208.545 309.432 208.545 309.176V301.368H204.529V298.008H206.161C206.716 298.008 207.153 297.987 207.473 297.944C207.793 297.891 208.028 297.773 208.177 297.592C208.326 297.411 208.422 297.128 208.465 296.744C208.518 296.349 208.545 295.805 208.545 295.112V292.408H212.769V298.008H217.825V301.368H212.769V308.184C212.769 308.387 212.769 308.589 212.769 308.792C212.769 308.984 212.769 309.171 212.769 309.352C212.769 310.141 212.865 310.776 213.057 311.256C213.249 311.736 213.702 311.976 214.417 311.976C214.758 311.976 215.078 311.944 215.377 311.88C215.686 311.816 215.916 311.752 216.065 311.688V314.984C215.862 315.059 215.569 315.133 215.185 315.208C214.801 315.283 214.364 315.32 213.873 315.32ZM227.467 315.32C226.859 315.32 226.24 315.261 225.611 315.144C224.982 315.027 224.406 314.808 223.883 314.488C223.36 314.168 222.939 313.699 222.619 313.08C222.299 312.461 222.139 311.645 222.139 310.632C222.139 310.397 222.139 310.163 222.139 309.928C222.139 309.683 222.139 309.432 222.139 309.176V301.368H218.123V298.008H219.755C220.31 298.008 220.747 297.987 221.067 297.944C221.387 297.891 221.622 297.773 221.771 297.592C221.92 297.411 222.016 297.128 222.059 296.744C222.112 296.349 222.139 295.805 222.139 295.112V292.408H226.363V298.008H231.419V301.368H226.363V308.184C226.363 308.387 226.363 308.589 226.363 308.792C226.363 308.984 226.363 309.171 226.363 309.352C226.363 310.141 226.459 310.776 226.651 311.256C226.843 311.736 227.296 311.976 228.011 311.976C228.352 311.976 228.672 311.944 228.971 311.88C229.28 311.816 229.51 311.752 229.659 311.688V314.984C229.456 315.059 229.163 315.133 228.779 315.208C228.395 315.283 227.958 315.32 227.467 315.32ZM242.48 315.336C240.688 315.336 239.109 314.963 237.744 314.216C236.378 313.459 235.306 312.413 234.528 311.08C233.76 309.747 233.376 308.221 233.376 306.504C233.376 304.776 233.76 303.256 234.528 301.944C235.306 300.621 236.378 299.587 237.744 298.84C239.109 298.093 240.688 297.72 242.48 297.72C244.272 297.72 245.85 298.093 247.216 298.84C248.581 299.587 249.648 300.621 250.416 301.944C251.194 303.256 251.584 304.776 251.584 306.504C251.584 308.221 251.194 309.747 250.416 311.08C249.648 312.413 248.581 313.459 247.216 314.216C245.85 314.963 244.272 315.336 242.48 315.336ZM242.48 311.896C243.45 311.896 244.298 311.672 245.024 311.224C245.749 310.776 246.314 310.152 246.72 309.352C247.125 308.541 247.328 307.592 247.328 306.504C247.328 305.416 247.125 304.477 246.72 303.688C246.314 302.888 245.749 302.269 245.024 301.832C244.298 301.395 243.45 301.176 242.48 301.176C241.52 301.176 240.672 301.395 239.936 301.832C239.21 302.269 238.645 302.888 238.24 303.688C237.834 304.477 237.632 305.416 237.632 306.504C237.632 307.592 237.834 308.541 238.24 309.352C238.645 310.152 239.21 310.776 239.936 311.224C240.672 311.672 241.52 311.896 242.48 311.896ZM267.081 315V307.464C267.081 307.037 267.081 306.664 267.081 306.344C267.081 306.013 267.081 305.715 267.081 305.448C267.081 304.68 266.969 303.992 266.745 303.384C266.532 302.765 266.158 302.28 265.625 301.928C265.102 301.576 264.377 301.4 263.449 301.4C262.638 301.4 261.918 301.597 261.289 301.992C260.66 302.376 260.164 302.909 259.801 303.592C259.449 304.264 259.273 305.043 259.273 305.928L257.849 305.048C257.849 303.629 258.169 302.371 258.809 301.272C259.46 300.163 260.329 299.293 261.417 298.664C262.505 298.035 263.71 297.72 265.033 297.72C266.398 297.72 267.545 297.987 268.473 298.52C269.412 299.053 270.116 299.811 270.585 300.792C271.065 301.773 271.305 302.925 271.305 304.248C271.305 304.76 271.305 305.336 271.305 305.976C271.305 306.616 271.305 307.245 271.305 307.864V315H267.081ZM255.065 315V298.008H259.273V315H255.065ZM306.354 313.208C305.608 313.624 304.637 313.992 303.442 314.312C302.258 314.621 300.957 314.861 299.538 315.032C298.12 315.203 296.674 315.288 295.202 315.288C292.61 315.288 290.354 314.872 288.434 314.04C286.525 313.208 285.053 311.997 284.018 310.408C282.984 308.819 282.466 306.877 282.466 304.584C282.466 302.621 282.85 300.819 283.618 299.176C284.397 297.533 285.485 296.109 286.882 294.904C288.29 293.699 289.944 292.765 291.842 292.104C293.741 291.443 295.805 291.112 298.034 291.112C300.05 291.112 301.821 291.373 303.346 291.896C304.882 292.419 306.162 293.133 307.186 294.04C308.221 294.947 309 295.987 309.522 297.16C310.045 298.323 310.306 299.549 310.306 300.84C310.306 302.141 310.082 303.357 309.634 304.488C309.197 305.619 308.568 306.611 307.746 307.464C306.925 308.307 305.938 308.968 304.786 309.448C303.634 309.917 302.344 310.152 300.914 310.152C300.488 310.152 300.056 310.104 299.618 310.008C299.181 309.912 298.818 309.736 298.53 309.48C298.242 309.224 298.088 308.861 298.066 308.392C298.066 308.381 298.066 308.365 298.066 308.344C298.066 308.323 298.066 308.307 298.066 308.296C297.832 308.808 297.4 309.229 296.77 309.56C296.152 309.88 295.389 310.04 294.482 310.04C293.33 310.04 292.381 309.805 291.634 309.336C290.888 308.867 290.333 308.221 289.97 307.4C289.608 306.579 289.426 305.635 289.426 304.568C289.426 303.032 289.736 301.667 290.354 300.472C290.984 299.277 291.842 298.333 292.93 297.64C294.018 296.947 295.261 296.6 296.658 296.6C297.554 296.6 298.285 296.771 298.85 297.112C299.416 297.443 299.698 297.827 299.698 298.264L300.05 296.952H302.898L300.594 306.328C300.584 306.392 300.568 306.477 300.546 306.584C300.536 306.68 300.53 306.739 300.53 306.76C300.53 307.208 300.648 307.523 300.882 307.704C301.128 307.875 301.453 307.96 301.858 307.96C302.872 307.96 303.725 307.757 304.418 307.352C305.112 306.936 305.666 306.381 306.082 305.688C306.498 304.995 306.797 304.227 306.978 303.384C307.17 302.541 307.266 301.683 307.266 300.808C307.266 299.293 306.893 297.971 306.146 296.84C305.41 295.709 304.338 294.835 302.93 294.216C301.533 293.587 299.832 293.272 297.826 293.272C295.97 293.272 294.285 293.549 292.77 294.104C291.266 294.659 289.97 295.443 288.882 296.456C287.805 297.469 286.973 298.669 286.386 300.056C285.81 301.443 285.522 302.968 285.522 304.632C285.522 306.552 285.938 308.141 286.77 309.4C287.602 310.659 288.754 311.597 290.226 312.216C291.698 312.824 293.405 313.128 295.346 313.128C296.53 313.128 297.709 313.053 298.882 312.904C300.056 312.755 301.149 312.547 302.162 312.28C303.186 312.013 304.056 311.699 304.77 311.336L306.354 313.208ZM294.962 307.896C295.72 307.896 296.312 307.741 296.738 307.432C297.176 307.123 297.464 306.691 297.602 306.136C297.624 306.104 297.672 305.923 297.746 305.592C297.832 305.261 297.933 304.861 298.05 304.392C298.168 303.923 298.285 303.443 298.402 302.952C298.53 302.451 298.637 302.008 298.722 301.624C298.818 301.229 298.882 300.963 298.914 300.824C298.968 300.579 298.994 300.381 298.994 300.232C298.994 299.837 298.861 299.48 298.594 299.16C298.328 298.829 297.816 298.664 297.058 298.664C296.152 298.664 295.352 298.947 294.658 299.512C293.965 300.077 293.426 300.819 293.042 301.736C292.658 302.643 292.466 303.624 292.466 304.68C292.466 305.704 292.68 306.499 293.106 307.064C293.544 307.619 294.162 307.896 294.962 307.896ZM323.215 315.352C321.423 315.352 319.839 314.984 318.463 314.248C317.087 313.512 316.01 312.477 315.231 311.144C314.452 309.811 314.063 308.248 314.063 306.456C314.063 304.675 314.452 303.128 315.231 301.816C316.01 300.504 317.087 299.496 318.463 298.792C319.839 298.077 321.423 297.72 323.215 297.72C324.559 297.72 325.748 297.917 326.783 298.312C327.818 298.707 328.687 299.235 329.391 299.896C330.106 300.547 330.65 301.267 331.023 302.056C331.396 302.835 331.583 303.613 331.583 304.392C331.583 304.413 331.583 304.435 331.583 304.456C331.583 304.477 331.583 304.499 331.583 304.52H327.407C327.407 304.467 327.402 304.408 327.391 304.344C327.38 304.28 327.37 304.216 327.359 304.152C327.274 303.608 327.055 303.117 326.703 302.68C326.351 302.232 325.882 301.875 325.295 301.608C324.708 301.341 323.999 301.208 323.167 301.208C322.282 301.208 321.471 301.405 320.735 301.8C320.01 302.184 319.428 302.765 318.991 303.544C318.564 304.323 318.351 305.293 318.351 306.456C318.351 307.608 318.564 308.589 318.991 309.4C319.418 310.2 319.994 310.813 320.719 311.24C321.455 311.656 322.271 311.864 323.167 311.864C324.116 311.864 324.89 311.72 325.487 311.432C326.095 311.133 326.554 310.739 326.863 310.248C327.172 309.747 327.348 309.203 327.391 308.616H331.583C331.583 309.405 331.402 310.2 331.039 311C330.676 311.789 330.143 312.515 329.439 313.176C328.735 313.837 327.86 314.365 326.815 314.76C325.78 315.155 324.58 315.352 323.215 315.352ZM339.449 289.992V315H335.305V289.992H339.449ZM343.673 315V298.008H347.833V315H343.673ZM345.769 294.872C345.086 294.872 344.489 294.691 343.977 294.328C343.475 293.955 343.225 293.437 343.225 292.776C343.225 292.125 343.475 291.619 343.977 291.256C344.489 290.893 345.086 290.712 345.769 290.712C346.441 290.712 347.027 290.893 347.529 291.256C348.03 291.619 348.281 292.125 348.281 292.776C348.281 293.437 348.03 293.955 347.529 294.328C347.027 294.691 346.441 294.872 345.769 294.872ZM360.403 315.352C358.611 315.352 357.027 314.984 355.651 314.248C354.275 313.512 353.197 312.477 352.419 311.144C351.64 309.811 351.251 308.248 351.251 306.456C351.251 304.675 351.64 303.128 352.419 301.816C353.197 300.504 354.275 299.496 355.651 298.792C357.027 298.077 358.611 297.72 360.403 297.72C361.747 297.72 362.936 297.917 363.971 298.312C365.005 298.707 365.875 299.235 366.579 299.896C367.293 300.547 367.837 301.267 368.211 302.056C368.584 302.835 368.771 303.613 368.771 304.392C368.771 304.413 368.771 304.435 368.771 304.456C368.771 304.477 368.771 304.499 368.771 304.52H364.595C364.595 304.467 364.589 304.408 364.579 304.344C364.568 304.28 364.557 304.216 364.547 304.152C364.461 303.608 364.243 303.117 363.891 302.68C363.539 302.232 363.069 301.875 362.483 301.608C361.896 301.341 361.187 301.208 360.355 301.208C359.469 301.208 358.659 301.405 357.923 301.8C357.197 302.184 356.616 302.765 356.179 303.544C355.752 304.323 355.539 305.293 355.539 306.456C355.539 307.608 355.752 308.589 356.179 309.4C356.605 310.2 357.181 310.813 357.907 311.24C358.643 311.656 359.459 311.864 360.355 311.864C361.304 311.864 362.077 311.72 362.675 311.432C363.283 311.133 363.741 310.739 364.051 310.248C364.36 309.747 364.536 309.203 364.579 308.616H368.771C368.771 309.405 368.589 310.2 368.227 311C367.864 311.789 367.331 312.515 366.627 313.176C365.923 313.837 365.048 314.365 364.003 314.76C362.968 315.155 361.768 315.352 360.403 315.352ZM372.253 315V289.992H376.253V304.648L375.341 304.2L382.365 298.008H387.597L379.277 305.416L380.221 303.688L387.517 315H383.069L377.469 305.928L378.493 306.104L375.773 308.536L376.253 306.664V315H372.253ZM392.628 298.696L403.108 305.064V307.944L392.628 314.296V310.744L401.444 306.04V306.968L392.628 302.232V298.696Z" fill="#DA2F84"/>
<rect x="473" y="600" width="228" height="228" rx="114" fill="#1B2437"/>
<rect x="473" y="600" width="228" height="228" rx="114" stroke="#BAC6DE" stroke-width="6"/>
<path d="M574.367 677.44C572.087 677.44 570.247 677.027 568.847 676.2C567.46 675.36 566.453 674.2 565.827 672.72C565.2 671.227 564.887 669.487 564.887 667.5C564.887 667.287 564.887 667.073 564.887 666.86C564.887 666.647 564.887 666.433 564.887 666.22H570.107C570.107 666.327 570.107 666.453 570.107 666.6C570.107 666.747 570.107 666.887 570.107 667.02C570.107 668.127 570.233 669.14 570.487 670.06C570.753 670.98 571.193 671.72 571.807 672.28C572.42 672.84 573.273 673.12 574.367 673.12C575.447 673.12 576.287 672.84 576.887 672.28C577.487 671.72 577.907 670.953 578.147 669.98C578.4 668.993 578.527 667.88 578.527 666.64V647.5H583.787V667.36C583.787 668.773 583.627 670.087 583.307 671.3C583 672.513 582.487 673.58 581.767 674.5C581.06 675.42 580.1 676.14 578.887 676.66C577.673 677.18 576.167 677.44 574.367 677.44ZM598.16 677.44C596.067 677.44 594.24 677.107 592.68 676.44C591.12 675.773 589.907 674.773 589.04 673.44C588.173 672.093 587.74 670.427 587.74 668.44C587.74 668.213 587.74 668.013 587.74 667.84C587.74 667.653 587.74 667.447 587.74 667.22H593C593 667.42 593 667.607 593 667.78C593 667.94 593 668.127 593 668.34C593 669.94 593.433 671.14 594.3 671.94C595.18 672.727 596.473 673.12 598.18 673.12C599.9 673.12 601.213 672.833 602.12 672.26C603.04 671.687 603.5 670.767 603.5 669.5C603.5 668.58 603.187 667.8 602.56 667.16C601.947 666.507 601.1 665.933 600.02 665.44C598.94 664.947 597.713 664.487 596.34 664.06C594.793 663.58 593.387 662.96 592.12 662.2C590.853 661.44 589.84 660.48 589.08 659.32C588.32 658.16 587.94 656.733 587.94 655.04C587.94 653.347 588.373 651.907 589.24 650.72C590.12 649.533 591.32 648.633 592.84 648.02C594.373 647.393 596.113 647.08 598.06 647.08C600.1 647.08 601.893 647.4 603.44 648.04C605 648.68 606.22 649.633 607.1 650.9C607.98 652.167 608.42 653.747 608.42 655.64C608.42 655.893 608.42 656.113 608.42 656.3C608.42 656.487 608.42 656.7 608.42 656.94H603.14C603.14 656.767 603.14 656.593 603.14 656.42C603.14 656.233 603.14 656.053 603.14 655.88C603.14 654.36 602.727 653.24 601.9 652.52C601.073 651.787 599.82 651.42 598.14 651.42C596.5 651.42 595.24 651.707 594.36 652.28C593.48 652.853 593.04 653.767 593.04 655.02C593.04 655.953 593.34 656.733 593.94 657.36C594.54 657.987 595.36 658.533 596.4 659C597.453 659.453 598.647 659.913 599.98 660.38C601.753 660.967 603.287 661.633 604.58 662.38C605.873 663.113 606.873 664.033 607.58 665.14C608.287 666.233 608.64 667.627 608.64 669.32C608.64 671.053 608.2 672.527 607.32 673.74C606.453 674.94 605.233 675.86 603.66 676.5C602.1 677.127 600.267 677.44 598.16 677.44ZM547.161 714.38C547.161 715.633 546.928 716.907 546.461 718.2C545.995 719.493 545.281 720.693 544.321 721.8C543.375 722.893 542.175 723.773 540.721 724.44C539.268 725.107 537.561 725.44 535.601 725.44C532.948 725.44 530.681 724.793 528.801 723.5C526.935 722.193 525.508 720.4 524.521 718.12C523.548 715.84 523.061 713.22 523.061 710.26C523.061 707.287 523.548 704.66 524.521 702.38C525.508 700.1 526.935 698.313 528.801 697.02C530.681 695.727 532.948 695.08 535.601 695.08C537.801 695.08 539.681 695.5 541.241 696.34C542.801 697.18 544.048 698.26 544.981 699.58C545.915 700.9 546.541 702.28 546.861 703.72C547.061 704.56 547.161 705.36 547.161 706.12H541.861C541.861 705.733 541.835 705.333 541.781 704.92C541.635 703.907 541.295 702.987 540.761 702.16C540.241 701.32 539.548 700.66 538.681 700.18C537.815 699.687 536.788 699.44 535.601 699.44C534.188 699.44 532.941 699.833 531.861 700.62C530.795 701.407 529.955 702.6 529.341 704.2C528.728 705.8 528.421 707.82 528.421 710.26C528.421 712.673 528.728 714.687 529.341 716.3C529.955 717.913 530.795 719.12 531.861 719.92C532.941 720.72 534.188 721.12 535.601 721.12C536.615 721.12 537.508 720.933 538.281 720.56C539.055 720.187 539.708 719.687 540.241 719.06C540.775 718.42 541.175 717.7 541.441 716.9C541.721 716.1 541.861 715.26 541.861 714.38H547.161ZM561.618 725.42C559.378 725.42 557.404 724.953 555.698 724.02C553.991 723.073 552.651 721.767 551.678 720.1C550.718 718.433 550.238 716.527 550.238 714.38C550.238 712.22 550.718 710.32 551.678 708.68C552.651 707.027 553.991 705.733 555.698 704.8C557.404 703.867 559.378 703.4 561.618 703.4C563.858 703.4 565.831 703.867 567.538 704.8C569.244 705.733 570.578 707.027 571.538 708.68C572.511 710.32 572.998 712.22 572.998 714.38C572.998 716.527 572.511 718.433 571.538 720.1C570.578 721.767 569.244 723.073 567.538 724.02C565.831 724.953 563.858 725.42 561.618 725.42ZM561.618 721.12C562.831 721.12 563.891 720.84 564.798 720.28C565.704 719.72 566.411 718.94 566.918 717.94C567.424 716.927 567.678 715.74 567.678 714.38C567.678 713.02 567.424 711.847 566.918 710.86C566.411 709.86 565.704 709.087 564.798 708.54C563.891 707.993 562.831 707.72 561.618 707.72C560.418 707.72 559.358 707.993 558.438 708.54C557.531 709.087 556.824 709.86 556.318 710.86C555.811 711.847 555.558 713.02 555.558 714.38C555.558 715.74 555.811 716.927 556.318 717.94C556.824 718.94 557.531 719.72 558.438 720.28C559.358 720.84 560.418 721.12 561.618 721.12ZM584.589 725.4C583.083 725.4 581.829 725.147 580.829 724.64C579.843 724.133 579.063 723.467 578.489 722.64C577.929 721.813 577.529 720.9 577.289 719.9C577.063 718.9 576.949 717.9 576.949 716.9C576.949 716.407 576.949 715.893 576.949 715.36C576.949 714.827 576.949 714.287 576.949 713.74V703.76H582.229V712.92C582.229 713.4 582.229 713.86 582.229 714.3C582.229 714.74 582.229 715.153 582.229 715.54C582.229 716.487 582.343 717.367 582.569 718.18C582.796 718.98 583.209 719.627 583.809 720.12C584.423 720.613 585.283 720.86 586.389 720.86C587.443 720.86 588.349 720.553 589.109 719.94C589.869 719.313 590.456 718.527 590.869 717.58C591.296 716.633 591.509 715.673 591.509 714.7L593.309 715.9C593.309 717.193 593.109 718.413 592.709 719.56C592.309 720.693 591.729 721.7 590.969 722.58C590.209 723.46 589.289 724.153 588.209 724.66C587.143 725.153 585.936 725.4 584.589 725.4ZM591.509 725V703.76H596.769V725H591.509ZM616.452 725V715.58C616.452 715.047 616.452 714.58 616.452 714.18C616.452 713.767 616.452 713.393 616.452 713.06C616.452 712.1 616.312 711.24 616.032 710.48C615.766 709.707 615.299 709.1 614.632 708.66C613.979 708.22 613.072 708 611.912 708C610.899 708 609.999 708.247 609.212 708.74C608.426 709.22 607.806 709.887 607.352 710.74C606.912 711.58 606.692 712.553 606.692 713.66L604.912 712.56C604.912 710.787 605.312 709.213 606.112 707.84C606.926 706.453 608.012 705.367 609.372 704.58C610.732 703.793 612.239 703.4 613.892 703.4C615.599 703.4 617.032 703.733 618.192 704.4C619.366 705.067 620.246 706.013 620.832 707.24C621.432 708.467 621.732 709.907 621.732 711.56C621.732 712.2 621.732 712.92 621.732 713.72C621.732 714.52 621.732 715.307 621.732 716.08V725H616.452ZM601.432 725V703.76H606.692V725H601.432ZM635.636 725.4C634.876 725.4 634.103 725.327 633.316 725.18C632.529 725.033 631.809 724.76 631.156 724.36C630.503 723.96 629.976 723.373 629.576 722.6C629.176 721.827 628.976 720.807 628.976 719.54C628.976 719.247 628.976 718.953 628.976 718.66C628.976 718.353 628.976 718.04 628.976 717.72V707.96H623.956V703.76H625.996C626.689 703.76 627.236 703.733 627.636 703.68C628.036 703.613 628.329 703.467 628.516 703.24C628.703 703.013 628.823 702.66 628.876 702.18C628.943 701.687 628.976 701.007 628.976 700.14V696.76H634.256V703.76H640.576V707.96H634.256V716.48C634.256 716.733 634.256 716.987 634.256 717.24C634.256 717.48 634.256 717.713 634.256 717.94C634.256 718.927 634.376 719.72 634.616 720.32C634.856 720.92 635.423 721.22 636.316 721.22C636.743 721.22 637.143 721.18 637.516 721.1C637.903 721.02 638.189 720.94 638.376 720.86V724.98C638.123 725.073 637.756 725.167 637.276 725.26C636.796 725.353 636.249 725.4 635.636 725.4ZM647.108 725.56C646.281 725.56 645.581 725.273 645.008 724.7C644.434 724.127 644.148 723.427 644.148 722.6C644.148 721.787 644.434 721.093 645.008 720.52C645.581 719.933 646.281 719.64 647.108 719.64C647.921 719.64 648.614 719.933 649.188 720.52C649.774 721.093 650.068 721.787 650.068 722.6C650.068 723.427 649.774 724.127 649.188 724.7C648.614 725.273 647.921 725.56 647.108 725.56ZM647.128 710.12C646.301 710.12 645.601 709.833 645.028 709.26C644.454 708.687 644.168 707.987 644.168 707.16C644.168 706.347 644.454 705.653 645.028 705.08C645.601 704.493 646.301 704.2 647.128 704.2C647.941 704.2 648.634 704.493 649.208 705.08C649.794 705.653 650.088 706.347 650.088 707.16C650.088 707.987 649.794 708.687 649.208 709.26C648.634 709.833 647.941 710.12 647.128 710.12ZM591.391 743.44V773H586.151V748.54C586.018 748.673 585.664 748.853 585.091 749.08C584.531 749.293 583.851 749.5 583.051 749.7C582.264 749.887 581.444 750.02 580.591 750.1V745.82C581.444 745.713 582.264 745.527 583.051 745.26C583.851 744.993 584.538 744.7 585.111 744.38C585.684 744.047 586.071 743.733 586.271 743.44H591.391Z" fill="white"/>
<path d="M275 372V422" stroke="#2A3751" stroke-width="6" stroke-linecap="round" stroke-linejoin="round"/>
<rect x="140" y="434" width="270" height="144" rx="16" fill="#EDF1F7"/>
<rect x="140" y="434" width="270" height="144" rx="16" stroke="#2A3751" stroke-width="6"/>
<path d="M235.161 482.38C235.161 483.633 234.928 484.907 234.461 486.2C233.995 487.493 233.281 488.693 232.321 489.8C231.375 490.893 230.175 491.773 228.721 492.44C227.268 493.107 225.561 493.44 223.601 493.44C220.948 493.44 218.681 492.793 216.801 491.5C214.935 490.193 213.508 488.4 212.521 486.12C211.548 483.84 211.061 481.22 211.061 478.26C211.061 475.287 211.548 472.66 212.521 470.38C213.508 468.1 214.935 466.313 216.801 465.02C218.681 463.727 220.948 463.08 223.601 463.08C225.801 463.08 227.681 463.5 229.241 464.34C230.801 465.18 232.048 466.26 232.981 467.58C233.915 468.9 234.541 470.28 234.861 471.72C235.061 472.56 235.161 473.36 235.161 474.12H229.861C229.861 473.733 229.835 473.333 229.781 472.92C229.635 471.907 229.295 470.987 228.761 470.16C228.241 469.32 227.548 468.66 226.681 468.18C225.815 467.687 224.788 467.44 223.601 467.44C222.188 467.44 220.941 467.833 219.861 468.62C218.795 469.407 217.955 470.6 217.341 472.2C216.728 473.8 216.421 475.82 216.421 478.26C216.421 480.673 216.728 482.687 217.341 484.3C217.955 485.913 218.795 487.12 219.861 487.92C220.941 488.72 222.188 489.12 223.601 489.12C224.615 489.12 225.508 488.933 226.281 488.56C227.055 488.187 227.708 487.687 228.241 487.06C228.775 486.42 229.175 485.7 229.441 484.9C229.721 484.1 229.861 483.26 229.861 482.38H235.161ZM249.617 493.42C247.377 493.42 245.404 492.953 243.697 492.02C241.991 491.073 240.651 489.767 239.677 488.1C238.717 486.433 238.237 484.527 238.237 482.38C238.237 480.22 238.717 478.32 239.677 476.68C240.651 475.027 241.991 473.733 243.697 472.8C245.404 471.867 247.377 471.4 249.617 471.4C251.857 471.4 253.831 471.867 255.537 472.8C257.244 473.733 258.578 475.027 259.538 476.68C260.511 478.32 260.997 480.22 260.997 482.38C260.997 484.527 260.511 486.433 259.538 488.1C258.578 489.767 257.244 491.073 255.537 492.02C253.831 492.953 251.857 493.42 249.617 493.42ZM249.617 489.12C250.831 489.12 251.891 488.84 252.797 488.28C253.704 487.72 254.411 486.94 254.917 485.94C255.424 484.927 255.677 483.74 255.677 482.38C255.677 481.02 255.424 479.847 254.917 478.86C254.411 477.86 253.704 477.087 252.797 476.54C251.891 475.993 250.831 475.72 249.617 475.72C248.417 475.72 247.357 475.993 246.437 476.54C245.531 477.087 244.824 477.86 244.317 478.86C243.811 479.847 243.557 481.02 243.557 482.38C243.557 483.74 243.811 484.927 244.317 485.94C244.824 486.94 245.531 487.72 246.437 488.28C247.357 488.84 248.417 489.12 249.617 489.12ZM272.589 493.4C271.083 493.4 269.829 493.147 268.829 492.64C267.843 492.133 267.063 491.467 266.489 490.64C265.929 489.813 265.529 488.9 265.289 487.9C265.063 486.9 264.949 485.9 264.949 484.9C264.949 484.407 264.949 483.893 264.949 483.36C264.949 482.827 264.949 482.287 264.949 481.74V471.76H270.229V480.92C270.229 481.4 270.229 481.86 270.229 482.3C270.229 482.74 270.229 483.153 270.229 483.54C270.229 484.487 270.343 485.367 270.569 486.18C270.796 486.98 271.209 487.627 271.809 488.12C272.423 488.613 273.283 488.86 274.389 488.86C275.443 488.86 276.349 488.553 277.109 487.94C277.869 487.313 278.456 486.527 278.869 485.58C279.296 484.633 279.509 483.673 279.509 482.7L281.309 483.9C281.309 485.193 281.109 486.413 280.709 487.56C280.309 488.693 279.729 489.7 278.969 490.58C278.209 491.46 277.289 492.153 276.209 492.66C275.143 493.153 273.936 493.4 272.589 493.4ZM279.509 493V471.76H284.769V493H279.509ZM304.452 493V483.58C304.452 483.047 304.452 482.58 304.452 482.18C304.452 481.767 304.452 481.393 304.452 481.06C304.452 480.1 304.312 479.24 304.032 478.48C303.766 477.707 303.299 477.1 302.632 476.66C301.979 476.22 301.072 476 299.912 476C298.899 476 297.999 476.247 297.212 476.74C296.426 477.22 295.806 477.887 295.352 478.74C294.912 479.58 294.692 480.553 294.692 481.66L292.912 480.56C292.912 478.787 293.312 477.213 294.112 475.84C294.926 474.453 296.012 473.367 297.372 472.58C298.732 471.793 300.239 471.4 301.892 471.4C303.599 471.4 305.032 471.733 306.192 472.4C307.366 473.067 308.246 474.013 308.832 475.24C309.432 476.467 309.732 477.907 309.732 479.56C309.732 480.2 309.732 480.92 309.732 481.72C309.732 482.52 309.732 483.307 309.732 484.08V493H304.452ZM289.432 493V471.76H294.692V493H289.432ZM323.636 493.4C322.876 493.4 322.103 493.327 321.316 493.18C320.529 493.033 319.809 492.76 319.156 492.36C318.503 491.96 317.976 491.373 317.576 490.6C317.176 489.827 316.976 488.807 316.976 487.54C316.976 487.247 316.976 486.953 316.976 486.66C316.976 486.353 316.976 486.04 316.976 485.72V475.96H311.956V471.76H313.996C314.689 471.76 315.236 471.733 315.636 471.68C316.036 471.613 316.329 471.467 316.516 471.24C316.703 471.013 316.823 470.66 316.876 470.18C316.943 469.687 316.976 469.007 316.976 468.14V464.76H322.256V471.76H328.576V475.96H322.256V484.48C322.256 484.733 322.256 484.987 322.256 485.24C322.256 485.48 322.256 485.713 322.256 485.94C322.256 486.927 322.376 487.72 322.616 488.32C322.856 488.92 323.423 489.22 324.316 489.22C324.743 489.22 325.143 489.18 325.516 489.1C325.903 489.02 326.189 488.94 326.376 488.86V492.98C326.123 493.073 325.756 493.167 325.276 493.26C324.796 493.353 324.249 493.4 323.636 493.4ZM335.108 493.56C334.281 493.56 333.581 493.273 333.008 492.7C332.434 492.127 332.148 491.427 332.148 490.6C332.148 489.787 332.434 489.093 333.008 488.52C333.581 487.933 334.281 487.64 335.108 487.64C335.921 487.64 336.614 487.933 337.188 488.52C337.774 489.093 338.068 489.787 338.068 490.6C338.068 491.427 337.774 492.127 337.188 492.7C336.614 493.273 335.921 493.56 335.108 493.56ZM335.128 478.12C334.301 478.12 333.601 477.833 333.028 477.26C332.454 476.687 332.168 475.987 332.168 475.16C332.168 474.347 332.454 473.653 333.028 473.08C333.601 472.493 334.301 472.2 335.128 472.2C335.941 472.2 336.634 472.493 337.208 473.08C337.794 473.653 338.088 474.347 338.088 475.16C338.088 475.987 337.794 476.687 337.208 477.26C336.634 477.833 335.941 478.12 335.128 478.12ZM198.235 511.5H200.835V541H198.235V511.5ZM199.575 537.06C198.308 537.06 197.102 536.92 195.955 536.64C194.808 536.36 193.788 535.94 192.895 535.38C192.015 534.82 191.322 534.127 190.815 533.3C190.308 532.46 190.055 531.493 190.055 530.4C190.055 530.32 190.055 530.24 190.055 530.16C190.055 530.08 190.055 530.007 190.055 529.94H195.295C195.295 530.007 195.295 530.067 195.295 530.12C195.295 530.16 195.295 530.22 195.295 530.3C195.295 531.167 195.688 531.82 196.475 532.26C197.275 532.687 198.355 532.9 199.715 532.9C200.475 532.9 201.182 532.82 201.835 532.66C202.502 532.5 203.035 532.253 203.435 531.92C203.848 531.587 204.055 531.16 204.055 530.64C204.055 529.8 203.622 529.2 202.755 528.84C201.888 528.48 200.542 528.153 198.715 527.86C197.702 527.687 196.695 527.453 195.695 527.16C194.708 526.867 193.808 526.473 192.995 525.98C192.195 525.487 191.548 524.873 191.055 524.14C190.575 523.407 190.335 522.513 190.335 521.46C190.335 520.06 190.755 518.887 191.595 517.94C192.435 516.98 193.555 516.253 194.955 515.76C196.368 515.267 197.922 515.02 199.615 515.02C201.242 515.02 202.748 515.287 204.135 515.82C205.535 516.353 206.662 517.12 207.515 518.12C208.382 519.12 208.815 520.327 208.815 521.74C208.815 521.793 208.815 521.853 208.815 521.92C208.815 521.973 208.815 522.02 208.815 522.06H203.615C203.615 522.02 203.615 521.98 203.615 521.94C203.615 521.9 203.615 521.853 203.615 521.8C203.615 521.187 203.422 520.687 203.035 520.3C202.648 519.913 202.148 519.627 201.535 519.44C200.922 519.253 200.282 519.16 199.615 519.16C199.002 519.16 198.375 519.227 197.735 519.36C197.108 519.48 196.582 519.7 196.155 520.02C195.728 520.327 195.515 520.76 195.515 521.32C195.515 521.853 195.728 522.287 196.155 522.62C196.595 522.953 197.208 523.233 197.995 523.46C198.782 523.673 199.695 523.867 200.735 524.04C201.695 524.2 202.668 524.42 203.655 524.7C204.655 524.98 205.568 525.353 206.395 525.82C207.235 526.287 207.908 526.9 208.415 527.66C208.922 528.407 209.175 529.333 209.175 530.44C209.175 531.613 208.908 532.613 208.375 533.44C207.842 534.267 207.115 534.953 206.195 535.5C205.288 536.033 204.262 536.427 203.115 536.68C201.982 536.933 200.802 537.06 199.575 537.06ZM225.31 511.74C224.11 511.74 223.197 512.08 222.57 512.76C221.944 513.44 221.63 514.493 221.63 515.92V524.06C221.63 525.233 221.404 526.173 220.95 526.88C220.51 527.573 219.93 528.087 219.21 528.42C218.504 528.753 217.757 528.967 216.97 529.06V528.82C217.757 528.9 218.504 529.113 219.21 529.46C219.93 529.793 220.51 530.313 220.95 531.02C221.404 531.713 221.63 532.653 221.63 533.84C221.63 534.507 221.63 535.28 221.63 536.16C221.63 537.027 221.63 537.913 221.63 538.82C221.63 539.513 221.63 540.193 221.63 540.86C221.63 541.513 221.63 542.1 221.63 542.62C221.63 544.047 221.944 545.047 222.57 545.62C223.197 546.193 224.11 546.48 225.31 546.48V550.34C223.657 550.34 222.177 550.153 220.87 549.78C219.577 549.407 218.557 548.767 217.81 547.86C217.064 546.967 216.69 545.733 216.69 544.16C216.69 543.587 216.69 542.927 216.69 542.18C216.69 541.447 216.69 540.693 216.69 539.92C216.69 539.053 216.69 538.207 216.69 537.38C216.69 536.54 216.69 535.8 216.69 535.16C216.69 534.2 216.59 533.42 216.39 532.82C216.19 532.22 215.844 531.747 215.35 531.4C214.87 531.053 214.197 530.787 213.33 530.6V527.3C214.197 527.113 214.87 526.847 215.35 526.5C215.844 526.153 216.19 525.68 216.39 525.08C216.59 524.48 216.69 523.7 216.69 522.74V514.34C216.69 512.767 217.064 511.507 217.81 510.56C218.557 509.613 219.577 508.933 220.87 508.52C222.177 508.093 223.657 507.88 225.31 507.88V511.74ZM240.146 541.44C237.906 541.44 235.926 540.98 234.206 540.06C232.486 539.14 231.14 537.847 230.166 536.18C229.193 534.513 228.706 532.56 228.706 530.32C228.706 528.093 229.193 526.16 230.166 524.52C231.14 522.88 232.486 521.62 234.206 520.74C235.926 519.847 237.906 519.4 240.146 519.4C241.826 519.4 243.313 519.647 244.606 520.14C245.9 520.633 246.986 521.293 247.866 522.12C248.76 522.933 249.44 523.833 249.906 524.82C250.373 525.793 250.606 526.767 250.606 527.74C250.606 527.767 250.606 527.793 250.606 527.82C250.606 527.847 250.606 527.873 250.606 527.9H245.386C245.386 527.833 245.38 527.76 245.366 527.68C245.353 527.6 245.34 527.52 245.326 527.44C245.22 526.76 244.946 526.147 244.506 525.6C244.066 525.04 243.48 524.593 242.746 524.26C242.013 523.927 241.126 523.76 240.086 523.76C238.98 523.76 237.966 524.007 237.046 524.5C236.14 524.98 235.413 525.707 234.866 526.68C234.333 527.653 234.066 528.867 234.066 530.32C234.066 531.76 234.333 532.987 234.866 534C235.4 535 236.12 535.767 237.026 536.3C237.946 536.82 238.966 537.08 240.086 537.08C241.273 537.08 242.24 536.9 242.986 536.54C243.746 536.167 244.32 535.673 244.706 535.06C245.093 534.433 245.313 533.753 245.366 533.02H250.606C250.606 534.007 250.38 535 249.926 536C249.473 536.987 248.806 537.893 247.926 538.72C247.046 539.547 245.953 540.207 244.646 540.7C243.353 541.193 241.853 541.44 240.146 541.44ZM264.999 541.42C262.759 541.42 260.785 540.953 259.079 540.02C257.372 539.073 256.032 537.767 255.059 536.1C254.099 534.433 253.619 532.527 253.619 530.38C253.619 528.22 254.099 526.32 255.059 524.68C256.032 523.027 257.372 521.733 259.079 520.8C260.785 519.867 262.759 519.4 264.999 519.4C267.239 519.4 269.212 519.867 270.919 520.8C272.625 521.733 273.959 523.027 274.919 524.68C275.892 526.32 276.379 528.22 276.379 530.38C276.379 532.527 275.892 534.433 274.919 536.1C273.959 537.767 272.625 539.073 270.919 540.02C269.212 540.953 267.239 541.42 264.999 541.42ZM264.999 537.12C266.212 537.12 267.272 536.84 268.179 536.28C269.085 535.72 269.792 534.94 270.299 533.94C270.805 532.927 271.059 531.74 271.059 530.38C271.059 529.02 270.805 527.847 270.299 526.86C269.792 525.86 269.085 525.087 268.179 524.54C267.272 523.993 266.212 523.72 264.999 523.72C263.799 523.72 262.739 523.993 261.819 524.54C260.912 525.087 260.205 525.86 259.699 526.86C259.192 527.847 258.939 529.02 258.939 530.38C258.939 531.74 259.192 532.927 259.699 533.94C260.205 534.94 260.912 535.72 261.819 536.28C262.739 536.84 263.799 537.12 264.999 537.12ZM287.971 541.4C286.464 541.4 285.211 541.147 284.211 540.64C283.224 540.133 282.444 539.467 281.871 538.64C281.311 537.813 280.911 536.9 280.671 535.9C280.444 534.9 280.331 533.9 280.331 532.9C280.331 532.407 280.331 531.893 280.331 531.36C280.331 530.827 280.331 530.287 280.331 529.74V519.76H285.611V528.92C285.611 529.4 285.611 529.86 285.611 530.3C285.611 530.74 285.611 531.153 285.611 531.54C285.611 532.487 285.724 533.367 285.951 534.18C286.177 534.98 286.591 535.627 287.191 536.12C287.804 536.613 288.664 536.86 289.771 536.86C290.824 536.86 291.731 536.553 292.491 535.94C293.251 535.313 293.837 534.527 294.251 533.58C294.677 532.633 294.891 531.673 294.891 530.7L296.691 531.9C296.691 533.193 296.491 534.413 296.091 535.56C295.691 536.693 295.111 537.7 294.351 538.58C293.591 539.46 292.671 540.153 291.591 540.66C290.524 541.153 289.317 541.4 287.971 541.4ZM294.891 541V519.76H300.151V541H294.891ZM319.833 541V531.58C319.833 531.047 319.833 530.58 319.833 530.18C319.833 529.767 319.833 529.393 319.833 529.06C319.833 528.1 319.693 527.24 319.413 526.48C319.147 525.707 318.68 525.1 318.013 524.66C317.36 524.22 316.453 524 315.293 524C314.28 524 313.38 524.247 312.593 524.74C311.807 525.22 311.187 525.887 310.733 526.74C310.293 527.58 310.073 528.553 310.073 529.66L308.293 528.56C308.293 526.787 308.693 525.213 309.493 523.84C310.307 522.453 311.393 521.367 312.753 520.58C314.113 519.793 315.62 519.4 317.273 519.4C318.98 519.4 320.413 519.733 321.573 520.4C322.747 521.067 323.627 522.013 324.213 523.24C324.813 524.467 325.113 525.907 325.113 527.56C325.113 528.2 325.113 528.92 325.113 529.72C325.113 530.52 325.113 531.307 325.113 532.08V541H319.833ZM304.813 541V519.76H310.073V541H304.813ZM339.017 541.4C338.257 541.4 337.484 541.327 336.697 541.18C335.911 541.033 335.191 540.76 334.537 540.36C333.884 539.96 333.357 539.373 332.957 538.6C332.557 537.827 332.357 536.807 332.357 535.54C332.357 535.247 332.357 534.953 332.357 534.66C332.357 534.353 332.357 534.04 332.357 533.72V523.96H327.337V519.76H329.377C330.071 519.76 330.617 519.733 331.017 519.68C331.417 519.613 331.711 519.467 331.897 519.24C332.084 519.013 332.204 518.66 332.257 518.18C332.324 517.687 332.357 517.007 332.357 516.14V512.76H337.637V519.76H343.957V523.96H337.637V532.48C337.637 532.733 337.637 532.987 337.637 533.24C337.637 533.48 337.637 533.713 337.637 533.94C337.637 534.927 337.757 535.72 337.997 536.32C338.237 536.92 338.804 537.22 339.697 537.22C340.124 537.22 340.524 537.18 340.897 537.1C341.284 537.02 341.571 536.94 341.757 536.86V540.98C341.504 541.073 341.137 541.167 340.657 541.26C340.177 541.353 339.631 541.4 339.017 541.4ZM347.049 511.74V507.88C348.702 507.88 350.176 508.093 351.469 508.52C352.776 508.933 353.802 509.613 354.549 510.56C355.309 511.507 355.689 512.767 355.689 514.34C355.689 515.02 355.689 515.707 355.689 516.4C355.689 517.093 355.689 517.793 355.689 518.5C355.689 519.207 355.689 519.913 355.689 520.62C355.689 521.327 355.689 522.033 355.689 522.74C355.689 523.7 355.789 524.48 355.989 525.08C356.189 525.68 356.529 526.153 357.009 526.5C357.502 526.847 358.176 527.113 359.029 527.3V530.6C358.176 530.787 357.502 531.053 357.009 531.4C356.529 531.747 356.189 532.22 355.989 532.82C355.789 533.42 355.689 534.2 355.689 535.16V544.16C355.689 545.733 355.309 546.967 354.549 547.86C353.802 548.767 352.776 549.407 351.469 549.78C350.176 550.153 348.702 550.34 347.049 550.34V546.48C348.249 546.48 349.162 546.193 349.789 545.62C350.429 545.047 350.749 544.047 350.749 542.62V533.84C350.749 532.653 350.969 531.713 351.409 531.02C351.862 530.313 352.442 529.793 353.149 529.46C353.856 529.113 354.609 528.9 355.409 528.82V529.06C354.609 528.967 353.856 528.753 353.149 528.42C352.442 528.087 351.862 527.573 351.409 526.88C350.969 526.173 350.749 525.233 350.749 524.06C350.749 523.313 350.749 522.573 350.749 521.84C350.749 521.107 350.749 520.373 350.749 519.64C350.749 519.027 350.749 518.413 350.749 517.8C350.749 517.173 350.749 516.547 350.749 515.92C350.749 514.493 350.429 513.44 349.789 512.76C349.162 512.08 348.249 511.74 347.049 511.74Z" fill="#2A3751"/>
<path d="M275 200V250" stroke="#2A3751" stroke-width="6" stroke-linecap="round" stroke-linejoin="round"/>
<rect x="154" y="92" width="242" height="96" rx="48" fill="#FFF5CB"/>
<rect x="154" y="92" width="242" height="96" rx="48" stroke="#D17805" stroke-width="6"/>
<path d="M221.409 150.12L208.289 142.18V138.58L221.409 130.62V135.04L210.389 140.96V139.8L221.409 145.68V150.12ZM242.866 151V142.38C242.866 141.593 242.866 140.907 242.866 140.32C242.866 139.72 242.866 139.22 242.866 138.82C242.866 138.3 242.832 137.76 242.766 137.2C242.699 136.627 242.552 136.1 242.326 135.62C242.099 135.14 241.746 134.753 241.266 134.46C240.799 134.153 240.152 134 239.326 134C238.526 134 237.846 134.167 237.286 134.5C236.739 134.82 236.286 135.253 235.926 135.8C235.579 136.333 235.326 136.947 235.166 137.64C235.006 138.32 234.926 139.02 234.926 139.74L233.166 138.56C233.166 136.813 233.492 135.253 234.146 133.88C234.799 132.507 235.726 131.42 236.926 130.62C238.139 129.807 239.572 129.4 241.226 129.4C242.932 129.4 244.286 129.76 245.286 130.48C246.286 131.187 246.999 132.147 247.426 133.36C247.866 134.573 248.086 135.933 248.086 137.44C248.086 138 248.086 138.747 248.086 139.68C248.086 140.6 248.086 141.687 248.086 142.94V151H242.866ZM229.666 151V129.76H234.926V151H229.666ZM255.986 151V142.4C255.986 141.56 255.986 140.847 255.986 140.26C255.986 139.673 255.986 139.18 255.986 138.78C255.986 138.22 255.952 137.66 255.886 137.1C255.819 136.527 255.672 136.013 255.446 135.56C255.219 135.093 254.866 134.72 254.386 134.44C253.906 134.147 253.252 134 252.426 134C251.612 134 250.926 134.16 250.366 134.48C249.819 134.8 249.379 135.227 249.046 135.76C248.712 136.293 248.466 136.893 248.306 137.56C248.159 138.227 248.086 138.893 248.086 139.56L246.326 138.4C246.326 136.707 246.646 135.18 247.286 133.82C247.926 132.46 248.846 131.387 250.046 130.6C251.246 129.8 252.672 129.4 254.326 129.4C255.992 129.4 257.332 129.74 258.346 130.42C259.359 131.1 260.092 132.033 260.546 133.22C261.012 134.393 261.246 135.733 261.246 137.24C261.246 137.827 261.246 138.573 261.246 139.48C261.246 140.387 261.246 141.46 261.246 142.7V151H255.986ZM273.186 151.44C271.6 151.44 270.206 151.193 269.006 150.7C267.806 150.193 266.866 149.467 266.186 148.52C265.506 147.573 265.166 146.433 265.166 145.1C265.166 143.647 265.56 142.453 266.346 141.52C267.146 140.573 268.22 139.847 269.566 139.34C270.913 138.82 272.406 138.487 274.046 138.34C276.473 138.1 278.166 137.873 279.126 137.66C280.1 137.433 280.586 137.073 280.586 136.58C280.586 136.567 280.586 136.56 280.586 136.56C280.586 136.547 280.586 136.54 280.586 136.54C280.586 135.607 280.166 134.887 279.326 134.38C278.486 133.873 277.3 133.62 275.766 133.62C274.153 133.62 272.913 133.907 272.046 134.48C271.193 135.04 270.766 135.933 270.766 137.16H265.566C265.566 135.493 266.006 134.087 266.886 132.94C267.78 131.78 269 130.9 270.546 130.3C272.093 129.7 273.846 129.4 275.806 129.4C277.633 129.4 279.306 129.673 280.826 130.22C282.346 130.767 283.566 131.593 284.486 132.7C285.406 133.807 285.866 135.187 285.866 136.84C285.866 137.12 285.866 137.4 285.866 137.68C285.866 137.96 285.866 138.24 285.866 138.52V146.52C285.866 147.027 285.88 147.527 285.906 148.02C285.946 148.5 286.02 148.933 286.126 149.32C286.26 149.747 286.42 150.107 286.606 150.4C286.793 150.693 286.94 150.893 287.046 151H281.846C281.753 150.907 281.62 150.727 281.446 150.46C281.286 150.18 281.14 149.86 281.006 149.5C280.873 149.1 280.773 148.673 280.706 148.22C280.64 147.753 280.606 147.24 280.606 146.68L281.646 147.4C281.246 148.213 280.633 148.927 279.806 149.54C278.993 150.14 278.02 150.607 276.886 150.94C275.753 151.273 274.52 151.44 273.186 151.44ZM274.466 147.3C275.56 147.3 276.573 147.113 277.506 146.74C278.44 146.367 279.193 145.793 279.766 145.02C280.34 144.233 280.626 143.227 280.626 142V139.16L281.906 140.6C281.053 140.92 280.026 141.187 278.826 141.4C277.626 141.6 276.413 141.76 275.186 141.88C273.613 142.027 272.426 142.3 271.626 142.7C270.84 143.1 270.446 143.753 270.446 144.66C270.446 145.54 270.78 146.2 271.446 146.64C272.113 147.08 273.12 147.3 274.466 147.3ZM290.25 151V129.76H295.45V151H290.25ZM292.87 125.84C292.017 125.84 291.27 125.613 290.63 125.16C290.003 124.693 289.69 124.047 289.69 123.22C289.69 122.407 290.003 121.773 290.63 121.32C291.27 120.867 292.017 120.64 292.87 120.64C293.71 120.64 294.443 120.867 295.07 121.32C295.697 121.773 296.01 122.407 296.01 123.22C296.01 124.047 295.697 124.693 295.07 125.16C294.443 125.613 293.71 125.84 292.87 125.84ZM315.283 151V141.58C315.283 141.047 315.283 140.58 315.283 140.18C315.283 139.767 315.283 139.393 315.283 139.06C315.283 138.1 315.143 137.24 314.863 136.48C314.596 135.707 314.129 135.1 313.463 134.66C312.809 134.22 311.903 134 310.743 134C309.729 134 308.829 134.247 308.043 134.74C307.256 135.22 306.636 135.887 306.183 136.74C305.743 137.58 305.523 138.553 305.523 139.66L303.743 138.56C303.743 136.787 304.143 135.213 304.943 133.84C305.756 132.453 306.843 131.367 308.203 130.58C309.563 129.793 311.069 129.4 312.723 129.4C314.429 129.4 315.863 129.733 317.023 130.4C318.196 131.067 319.076 132.013 319.663 133.24C320.263 134.467 320.563 135.907 320.563 137.56C320.563 138.2 320.563 138.92 320.563 139.72C320.563 140.52 320.563 141.307 320.563 142.08V151H315.283ZM300.263 151V129.76H305.523V151H300.263ZM328.574 130.62L341.674 138.58V142.18L328.574 150.12V145.68L339.594 139.8V140.96L328.574 135.04V130.62Z" fill="#D17805"/>
<mask id="path-11-outside-1_820_160" maskUnits="userSpaceOnUse" x="470.157" y="284" width="157" height="287" fill="black">
<rect fill="white" x="470.157" y="284" width="157" height="287"/>
<path fill-rule="evenodd" clip-rule="evenodd" d="M591 506L591 333C591 309.252 585 290 479.157 290C477.5 290 476.157 291.343 476.157 293C476.157 294.657 477.5 296 479.157 296C570.5 296 585 312.565 585 333L585 506H562.818C556.66 506 552.811 512.667 555.89 518L580.572 560.75C583.651 566.083 591.349 566.083 594.428 560.75L619.11 518C622.189 512.667 618.34 506 612.182 506H591Z"/>
</mask>
<path fill-rule="evenodd" clip-rule="evenodd" d="M591 506L591 333C591 309.252 585 290 479.157 290C477.5 290 476.157 291.343 476.157 293C476.157 294.657 477.5 296 479.157 296C570.5 296 585 312.565 585 333L585 506H562.818C556.66 506 552.811 512.667 555.89 518L580.572 560.75C583.651 566.083 591.349 566.083 594.428 560.75L619.11 518C622.189 512.667 618.34 506 612.182 506H591Z" fill="#3ED1AA"/>
<path d="M591 333L585 333V333L591 333ZM591 506L585 506L585 512H591V506ZM585 333L579 333V333L585 333ZM585 506V512H591L591 506L585 506ZM555.89 518L561.086 515L561.086 515L555.89 518ZM580.572 560.75L585.768 557.75L585.768 557.75L580.572 560.75ZM594.428 560.75L599.624 563.75L599.624 563.75L594.428 560.75ZM619.11 518L624.306 521L624.306 521L619.11 518ZM585 333L585 506L597 506L597 333L585 333ZM479.157 296C532.126 296 558.694 300.888 571.967 307.9C578.298 311.244 581.298 314.921 582.898 318.636C584.6 322.587 585 327.192 585 333H597C597 326.933 596.65 320.226 593.919 313.888C591.087 307.314 585.971 301.726 577.572 297.289C561.384 288.738 532.031 284 479.157 284V296ZM482.157 293C482.157 294.657 480.814 296 479.157 296V284C474.186 284 470.157 288.029 470.157 293H482.157ZM479.157 290C480.814 290 482.157 291.343 482.157 293H470.157C470.157 297.971 474.186 302 479.157 302V290ZM591 333C591 327.179 589.964 321.087 586.385 315.401C582.806 309.716 577.071 305.049 568.772 301.355C552.484 294.106 524.911 290 479.157 290V302C524.746 302 550.094 306.177 563.892 312.318C570.636 315.32 574.235 318.626 576.229 321.794C578.223 324.962 579 328.603 579 333H591ZM591 506L591 333L579 333L579 506L591 506ZM562.818 512H585V500H562.818V512ZM561.086 515C560.316 513.667 561.279 512 562.818 512V500C552.041 500 545.305 511.667 550.694 521L561.086 515ZM585.768 557.75L561.086 515L550.694 521L575.376 563.75L585.768 557.75ZM589.232 557.75C588.462 559.083 586.538 559.083 585.768 557.75L575.376 563.75C580.764 573.083 594.236 573.083 599.624 563.75L589.232 557.75ZM613.914 515L589.232 557.75L599.624 563.75L624.306 521L613.914 515ZM612.182 512C613.721 512 614.684 513.667 613.914 515L624.306 521C629.695 511.667 622.959 500 612.182 500V512ZM591 512H612.182V500H591V512Z" fill="#00615A" mask="url(#path-11-outside-1_820_160)"/>
<mask id="path-13-outside-2_820_160" maskUnits="userSpaceOnUse" x="231" y="611.969" width="226" height="116" fill="black">
<rect fill="white" x="231" y="611.969" width="226" height="116"/>
<path fill-rule="evenodd" clip-rule="evenodd" d="M277.622 622C274.543 616.667 266.845 616.667 263.765 622L239.084 664.75C236.005 670.083 239.854 676.75 246.012 676.75L267.865 676.75C267.83 676.932 267.812 677.119 267.812 677.31C267.812 701.059 287.47 720.31 311.719 720.31L447.437 721.969C449.128 721.969 450.5 720.625 450.5 718.969C450.5 717.312 449.128 715.969 447.437 715.969L311.719 714.31C290.853 714.31 273.938 697.745 273.938 677.31C273.938 677.119 273.92 676.932 273.885 676.75L295.375 676.75C301.534 676.75 305.383 670.083 302.304 664.75L277.622 622Z"/>
</mask>
<path fill-rule="evenodd" clip-rule="evenodd" d="M277.622 622C274.543 616.667 266.845 616.667 263.765 622L239.084 664.75C236.005 670.083 239.854 676.75 246.012 676.75L267.865 676.75C267.83 676.932 267.812 677.119 267.812 677.31C267.812 701.059 287.47 720.31 311.719 720.31L447.437 721.969C449.128 721.969 450.5 720.625 450.5 718.969C450.5 717.312 449.128 715.969 447.437 715.969L311.719 714.31C290.853 714.31 273.938 697.745 273.938 677.31C273.938 677.119 273.92 676.932 273.885 676.75L295.375 676.75C301.534 676.75 305.383 670.083 302.304 664.75L277.622 622Z" fill="#3ED1AA"/>
<path d="M263.765 622L258.569 619L258.569 619L263.765 622ZM277.622 622L282.818 619L282.818 619L277.622 622ZM239.084 664.75L233.888 661.75L233.888 661.75L239.084 664.75ZM246.012 676.75L246.012 682.75L246.012 682.75L246.012 676.75ZM267.865 676.75L273.756 677.887L275.133 670.75L267.865 670.75L267.865 676.75ZM267.812 677.31L261.812 677.31L261.812 677.31L267.812 677.31ZM311.719 720.31L311.792 714.311L311.756 714.31L311.719 714.31L311.719 720.31ZM447.437 721.969L447.363 727.968L447.4 727.969L447.437 727.969L447.437 721.969ZM447.437 715.969L447.363 721.968L447.4 721.969L447.437 721.969L447.437 715.969ZM311.719 714.31L311.792 708.311L311.756 708.31L311.719 708.31L311.719 714.31ZM273.885 676.75L273.885 670.75L266.617 670.75L267.994 677.887L273.885 676.75ZM295.375 676.75L295.375 670.75L295.375 670.75L295.375 676.75ZM302.304 664.75L307.5 661.75L307.5 661.75L302.304 664.75ZM268.962 625C269.731 623.667 271.656 623.667 272.426 625L282.818 619C277.429 609.667 263.958 609.667 258.569 619L268.962 625ZM244.28 667.75L268.962 625L258.569 619L233.888 661.75L244.28 667.75ZM246.012 670.75C244.472 670.75 243.51 669.083 244.28 667.75L233.888 661.75C228.499 671.083 235.235 682.75 246.012 682.75L246.012 670.75ZM267.865 670.75L246.012 670.75L246.012 682.75L267.865 682.75L267.865 670.75ZM261.974 675.613C261.867 676.167 261.812 676.735 261.812 677.31L273.812 677.31C273.812 677.503 273.793 677.696 273.756 677.887L261.974 675.613ZM261.812 677.31C261.812 704.49 284.275 726.31 311.719 726.31L311.719 714.31C290.665 714.31 273.812 697.627 273.812 677.31L261.812 677.31ZM311.646 726.31L447.363 727.968L447.51 715.969L311.792 714.311L311.646 726.31ZM447.437 727.969C452.323 727.969 456.5 724.057 456.5 718.969L444.5 718.969C444.5 717.194 445.933 715.969 447.437 715.969L447.437 727.969ZM456.5 718.969C456.5 713.881 452.323 709.969 447.437 709.969L447.437 721.969C445.933 721.969 444.5 720.743 444.5 718.969L456.5 718.969ZM447.51 709.969L311.792 708.311L311.646 720.31L447.363 721.968L447.51 709.969ZM311.719 708.31C294.048 708.31 279.938 694.314 279.938 677.31L267.938 677.31C267.938 701.176 287.658 720.31 311.719 720.31L311.719 708.31ZM279.938 677.31C279.938 676.735 279.883 676.167 279.776 675.613L267.994 677.887C267.957 677.696 267.938 677.502 267.938 677.31L279.938 677.31ZM295.375 670.75L273.885 670.75L273.885 682.75L295.375 682.75L295.375 670.75ZM297.107 667.75C297.877 669.083 296.915 670.75 295.375 670.75L295.375 682.75C306.153 682.75 312.888 671.083 307.5 661.75L297.107 667.75ZM272.426 625L297.107 667.75L307.5 661.75L282.818 619L272.426 625Z" fill="#00615A" mask="url(#path-13-outside-2_820_160)"/>
</svg>
