<svg width="1694" height="1197" viewBox="0 0 1694 1197" fill="none" xmlns="http://www.w3.org/2000/svg">
<rect x="63" y="88" width="1599" height="743" rx="60" fill="#8AB0FC" fill-opacity="0.32" stroke="#8AB0FC" stroke-width="6"/>
<rect x="411" y="241" width="1181" height="521" rx="60" fill="#DAE2F1" stroke="#607090" stroke-width="6"/>
<path d="M56.7704 188L47.7704 188C42.3704 188 38.2388 192.189 35.7433 195.815C33.2478 199.442 32.0001 204.269 32.0001 210.296L32 995.027L32 989C32 995.027 33.2477 999.854 35.7432 1003.48C38.2387 1007.11 42.3703 1011.3 47.7703 1011.3L56.7703 1011.3" stroke="#2A3751" stroke-width="6" stroke-linecap="round" stroke-linejoin="round"/>
<path d="M250.23 241.5L250.23 321C250.23 327.027 251.477 331.854 253.973 335.481C256.468 339.108 260.6 343.296 266 343.296L403.5 343.296" stroke="#2A3751" stroke-width="6" stroke-linecap="round" stroke-linejoin="round"/>
<rect x="94" y="140" width="290" height="96" rx="48" fill="#FFF5CB"/>
<path d="M161.492 198.12L148.372 190.18V186.58L161.492 178.62V183.04L150.472 188.96V187.8L161.492 193.68V198.12ZM184.789 199V191.34C184.789 191.02 184.789 190.62 184.789 190.14C184.789 189.66 184.789 189.173 184.789 188.68C184.789 188.187 184.789 187.78 184.789 187.46C184.789 185.7 184.443 184.353 183.749 183.42C183.069 182.473 181.903 182 180.249 182C179.143 182 178.196 182.22 177.409 182.66C176.636 183.087 176.043 183.687 175.629 184.46C175.216 185.233 175.009 186.127 175.009 187.14L173.089 186.12C173.089 184.427 173.469 182.927 174.229 181.62C175.003 180.3 176.069 179.267 177.429 178.52C178.789 177.773 180.349 177.4 182.109 177.4C184.683 177.4 186.649 178.167 188.009 179.7C189.369 181.22 190.049 183.34 190.049 186.06C190.049 186.753 190.049 187.58 190.049 188.54C190.049 189.487 190.049 190.553 190.049 191.74V199H184.789ZM169.749 199V167.74H175.009V199H169.749ZM196.7 190.08V186.34H211.56L210.96 187.34C210.96 187.26 210.96 187.173 210.96 187.08C210.96 186.973 210.96 186.887 210.96 186.82C210.96 185.9 210.753 185.04 210.34 184.24C209.927 183.427 209.3 182.773 208.46 182.28C207.62 181.773 206.553 181.52 205.26 181.52C203.98 181.52 202.867 181.793 201.92 182.34C200.987 182.873 200.26 183.647 199.74 184.66C199.233 185.673 198.98 186.887 198.98 188.3C198.98 189.753 199.227 191.007 199.72 192.06C200.213 193.1 200.933 193.9 201.88 194.46C202.84 195.007 204.007 195.28 205.38 195.28C206.313 195.28 207.12 195.193 207.8 195.02C208.48 194.847 209.033 194.613 209.46 194.32C209.9 194.013 210.227 193.687 210.44 193.34C210.667 192.993 210.8 192.647 210.84 192.3H216.08C216 193.193 215.7 194.067 215.18 194.92C214.673 195.76 213.96 196.527 213.04 197.22C212.12 197.9 211 198.447 209.68 198.86C208.373 199.26 206.88 199.46 205.2 199.46C202.92 199.46 200.927 198.993 199.22 198.06C197.513 197.127 196.18 195.827 195.22 194.16C194.273 192.493 193.8 190.587 193.8 188.44C193.8 186.24 194.28 184.313 195.24 182.66C196.213 181.007 197.56 179.72 199.28 178.8C201 177.867 202.973 177.4 205.2 177.4C207.493 177.4 209.473 177.867 211.14 178.8C212.82 179.733 214.113 181.033 215.02 182.7C215.927 184.353 216.38 186.28 216.38 188.48C216.38 188.76 216.373 189.06 216.36 189.38C216.347 189.7 216.327 189.933 216.3 190.08H196.7ZM227.597 199.44C226.01 199.44 224.617 199.193 223.417 198.7C222.217 198.193 221.277 197.467 220.597 196.52C219.917 195.573 219.577 194.433 219.577 193.1C219.577 191.647 219.97 190.453 220.757 189.52C221.557 188.573 222.63 187.847 223.977 187.34C225.323 186.82 226.817 186.487 228.457 186.34C230.883 186.1 232.577 185.873 233.537 185.66C234.51 185.433 234.997 185.073 234.997 184.58C234.997 184.567 234.997 184.56 234.997 184.56C234.997 184.547 234.997 184.54 234.997 184.54C234.997 183.607 234.577 182.887 233.737 182.38C232.897 181.873 231.71 181.62 230.177 181.62C228.563 181.62 227.323 181.907 226.457 182.48C225.603 183.04 225.177 183.933 225.177 185.16H219.977C219.977 183.493 220.417 182.087 221.297 180.94C222.19 179.78 223.41 178.9 224.957 178.3C226.503 177.7 228.257 177.4 230.217 177.4C232.043 177.4 233.717 177.673 235.237 178.22C236.757 178.767 237.977 179.593 238.897 180.7C239.817 181.807 240.277 183.187 240.277 184.84C240.277 185.12 240.277 185.4 240.277 185.68C240.277 185.96 240.277 186.24 240.277 186.52V194.52C240.277 195.027 240.29 195.527 240.317 196.02C240.357 196.5 240.43 196.933 240.537 197.32C240.67 197.747 240.83 198.107 241.017 198.4C241.203 198.693 241.35 198.893 241.457 199H236.257C236.163 198.907 236.03 198.727 235.857 198.46C235.697 198.18 235.55 197.86 235.417 197.5C235.283 197.1 235.183 196.673 235.117 196.22C235.05 195.753 235.017 195.24 235.017 194.68L236.057 195.4C235.657 196.213 235.043 196.927 234.217 197.54C233.403 198.14 232.43 198.607 231.297 198.94C230.163 199.273 228.93 199.44 227.597 199.44ZM228.877 195.3C229.97 195.3 230.983 195.113 231.917 194.74C232.85 194.367 233.603 193.793 234.177 193.02C234.75 192.233 235.037 191.227 235.037 190V187.16L236.317 188.6C235.463 188.92 234.437 189.187 233.237 189.4C232.037 189.6 230.823 189.76 229.597 189.88C228.023 190.027 226.837 190.3 226.037 190.7C225.25 191.1 224.857 191.753 224.857 192.66C224.857 193.54 225.19 194.2 225.857 194.64C226.523 195.08 227.53 195.3 228.877 195.3ZM253.58 199.44C251.834 199.44 250.214 199.02 248.72 198.18C247.24 197.327 246.054 196.073 245.16 194.42C244.267 192.767 243.82 190.733 243.82 188.32C243.82 185.973 244.274 183.987 245.18 182.36C246.1 180.733 247.3 179.5 248.78 178.66C250.274 177.82 251.874 177.4 253.58 177.4C255.247 177.4 256.787 177.813 258.2 178.64C259.614 179.453 260.747 180.587 261.6 182.04C262.454 183.493 262.88 185.16 262.88 187.04C262.88 187.093 262.88 187.147 262.88 187.2C262.88 187.253 262.88 187.307 262.88 187.36L260.28 187.42C260.28 187.38 260.28 187.34 260.28 187.3C260.28 187.247 260.28 187.2 260.28 187.16C260.28 186.107 260.014 185.187 259.48 184.4C258.96 183.613 258.28 183 257.44 182.56C256.614 182.107 255.734 181.88 254.8 181.88C253.267 181.88 251.96 182.4 250.88 183.44C249.8 184.467 249.26 186.093 249.26 188.32C249.26 190.533 249.8 192.167 250.88 193.22C251.96 194.273 253.267 194.8 254.8 194.8C255.774 194.8 256.674 194.567 257.5 194.1C258.327 193.633 258.994 192.993 259.5 192.18C260.02 191.353 260.28 190.407 260.28 189.34L262.88 189.46C262.88 191.327 262.46 193.02 261.62 194.54C260.794 196.047 259.68 197.24 258.28 198.12C256.88 199 255.314 199.44 253.58 199.44ZM260.28 199V167.74H265.56V199H260.28ZM272.297 190.08V186.34H287.157L286.557 187.34C286.557 187.26 286.557 187.173 286.557 187.08C286.557 186.973 286.557 186.887 286.557 186.82C286.557 185.9 286.35 185.04 285.937 184.24C285.524 183.427 284.897 182.773 284.057 182.28C283.217 181.773 282.15 181.52 280.857 181.52C279.577 181.52 278.464 181.793 277.517 182.34C276.584 182.873 275.857 183.647 275.337 184.66C274.83 185.673 274.577 186.887 274.577 188.3C274.577 189.753 274.824 191.007 275.317 192.06C275.81 193.1 276.53 193.9 277.477 194.46C278.437 195.007 279.604 195.28 280.977 195.28C281.91 195.28 282.717 195.193 283.397 195.02C284.077 194.847 284.63 194.613 285.057 194.32C285.497 194.013 285.824 193.687 286.037 193.34C286.264 192.993 286.397 192.647 286.437 192.3H291.677C291.597 193.193 291.297 194.067 290.777 194.92C290.27 195.76 289.557 196.527 288.637 197.22C287.717 197.9 286.597 198.447 285.277 198.86C283.97 199.26 282.477 199.46 280.797 199.46C278.517 199.46 276.524 198.993 274.817 198.06C273.11 197.127 271.777 195.827 270.817 194.16C269.87 192.493 269.397 190.587 269.397 188.44C269.397 186.24 269.877 184.313 270.837 182.66C271.81 181.007 273.157 179.72 274.877 178.8C276.597 177.867 278.57 177.4 280.797 177.4C283.09 177.4 285.07 177.867 286.737 178.8C288.417 179.733 289.71 181.033 290.617 182.7C291.524 184.353 291.977 186.28 291.977 188.48C291.977 188.76 291.97 189.06 291.957 189.38C291.944 189.7 291.924 189.933 291.897 190.08H272.297ZM295.913 199V177.76H301.173V184.82L299.953 184.14C300.087 183.22 300.333 182.353 300.693 181.54C301.053 180.713 301.533 179.993 302.133 179.38C302.733 178.753 303.46 178.267 304.313 177.92C305.167 177.573 306.14 177.4 307.233 177.4C308.1 177.4 308.78 177.467 309.273 177.6C309.78 177.72 310.093 177.82 310.213 177.9L309.253 182.72C309.12 182.627 308.847 182.513 308.433 182.38C308.033 182.233 307.493 182.16 306.813 182.16C305.733 182.16 304.827 182.347 304.093 182.72C303.373 183.08 302.8 183.573 302.373 184.2C301.947 184.813 301.64 185.493 301.453 186.24C301.267 186.973 301.173 187.707 301.173 188.44V199H295.913ZM316.491 178.62L329.591 186.58V190.18L316.491 198.12V193.68L327.511 187.8V188.96L316.491 183.04V178.62Z" fill="#D17805"/>
<rect x="94" y="140" width="290" height="96" rx="48" stroke="#D17805" stroke-width="6"/>
<rect x="443" y="293" width="428" height="96" rx="48" fill="#C9FBE2"/>
<path d="M510.545 351.12L497.425 343.18V339.58L510.545 331.62V336.04L499.525 341.96V340.8L510.545 346.68V351.12ZM527.623 352.44C525.876 352.44 524.256 352.02 522.763 351.18C521.283 350.327 520.096 349.073 519.203 347.42C518.309 345.767 517.863 343.733 517.863 341.32C517.863 338.973 518.316 336.987 519.223 335.36C520.143 333.733 521.343 332.5 522.823 331.66C524.316 330.82 525.916 330.4 527.623 330.4C529.289 330.4 530.829 330.813 532.243 331.64C533.656 332.453 534.789 333.587 535.643 335.04C536.496 336.493 536.923 338.16 536.923 340.04C536.923 340.093 536.923 340.147 536.923 340.2C536.923 340.253 536.923 340.307 536.923 340.36L534.323 340.42C534.323 340.38 534.323 340.34 534.323 340.3C534.323 340.247 534.323 340.2 534.323 340.16C534.323 339.107 534.056 338.187 533.523 337.4C533.003 336.613 532.323 336 531.483 335.56C530.656 335.107 529.776 334.88 528.843 334.88C527.309 334.88 526.003 335.4 524.923 336.44C523.843 337.467 523.303 339.093 523.303 341.32C523.303 343.533 523.843 345.167 524.923 346.22C526.003 347.273 527.309 347.8 528.843 347.8C529.816 347.8 530.716 347.567 531.543 347.1C532.369 346.633 533.036 345.993 533.543 345.18C534.063 344.353 534.323 343.407 534.323 342.34L536.923 342.46C536.923 344.327 536.503 346.02 535.663 347.54C534.836 349.047 533.723 350.24 532.323 351.12C530.923 352 529.356 352.44 527.623 352.44ZM534.323 352V320.74H539.603V352H534.323ZM544.279 352V330.76H549.479V352H544.279ZM546.899 326.84C546.046 326.84 545.299 326.613 544.659 326.16C544.032 325.693 543.719 325.047 543.719 324.22C543.719 323.407 544.032 322.773 544.659 322.32C545.299 321.867 546.046 321.64 546.899 321.64C547.739 321.64 548.472 321.867 549.099 322.32C549.726 322.773 550.039 323.407 550.039 324.22C550.039 325.047 549.726 325.693 549.099 326.16C548.472 326.613 547.739 326.84 546.899 326.84ZM572.932 330.76L566.272 352H559.212L552.392 330.76H557.832L563.172 350.16H562.332L567.492 330.76H572.932ZM585.423 352V330.76H590.623V352H585.423ZM588.043 326.84C587.189 326.84 586.443 326.613 585.803 326.16C585.176 325.693 584.863 325.047 584.863 324.22C584.863 323.407 585.176 322.773 585.803 322.32C586.443 321.867 587.189 321.64 588.043 321.64C588.883 321.64 589.616 321.867 590.243 322.32C590.869 322.773 591.183 323.407 591.183 324.22C591.183 325.047 590.869 325.693 590.243 326.16C589.616 326.613 588.883 326.84 588.043 326.84ZM604.255 352.44C602.509 352.44 600.889 352.02 599.395 351.18C597.915 350.327 596.729 349.073 595.835 347.42C594.942 345.767 594.495 343.733 594.495 341.32C594.495 338.973 594.949 336.987 595.855 335.36C596.775 333.733 597.975 332.5 599.455 331.66C600.949 330.82 602.549 330.4 604.255 330.4C605.922 330.4 607.462 330.813 608.875 331.64C610.289 332.453 611.422 333.587 612.275 335.04C613.129 336.493 613.555 338.16 613.555 340.04C613.555 340.093 613.555 340.147 613.555 340.2C613.555 340.253 613.555 340.307 613.555 340.36L610.955 340.42C610.955 340.38 610.955 340.34 610.955 340.3C610.955 340.247 610.955 340.2 610.955 340.16C610.955 339.107 610.689 338.187 610.155 337.4C609.635 336.613 608.955 336 608.115 335.56C607.289 335.107 606.409 334.88 605.475 334.88C603.942 334.88 602.635 335.4 601.555 336.44C600.475 337.467 599.935 339.093 599.935 341.32C599.935 343.533 600.475 345.167 601.555 346.22C602.635 347.273 603.942 347.8 605.475 347.8C606.449 347.8 607.349 347.567 608.175 347.1C609.002 346.633 609.669 345.993 610.175 345.18C610.695 344.353 610.955 343.407 610.955 342.34L613.555 342.46C613.555 344.327 613.135 346.02 612.295 347.54C611.469 349.047 610.355 350.24 608.955 351.12C607.555 352 605.989 352.44 604.255 352.44ZM610.955 352V320.74H616.235V352H610.955ZM638.352 339.54H623.432V336.24H638.352V339.54ZM638.352 346.58H623.432V343.28H638.352V346.58ZM649.269 322.5L648.789 331.9H645.849L645.389 322.5H649.269ZM656.169 322.5L655.689 331.9H652.769L652.289 322.5H656.169ZM674.857 352V343.38C674.857 342.593 674.857 341.907 674.857 341.32C674.857 340.72 674.857 340.22 674.857 339.82C674.857 339.3 674.824 338.76 674.757 338.2C674.691 337.627 674.544 337.1 674.317 336.62C674.091 336.14 673.737 335.753 673.257 335.46C672.791 335.153 672.144 335 671.317 335C670.517 335 669.837 335.167 669.277 335.5C668.731 335.82 668.277 336.253 667.917 336.8C667.571 337.333 667.317 337.947 667.157 338.64C666.997 339.32 666.917 340.02 666.917 340.74L665.157 339.56C665.157 337.813 665.484 336.253 666.137 334.88C666.791 333.507 667.717 332.42 668.917 331.62C670.131 330.807 671.564 330.4 673.217 330.4C674.924 330.4 676.277 330.76 677.277 331.48C678.277 332.187 678.991 333.147 679.417 334.36C679.857 335.573 680.077 336.933 680.077 338.44C680.077 339 680.077 339.747 680.077 340.68C680.077 341.6 680.077 342.687 680.077 343.94V352H674.857ZM661.657 352V330.76H666.917V352H661.657ZM687.977 352V343.4C687.977 342.56 687.977 341.847 687.977 341.26C687.977 340.673 687.977 340.18 687.977 339.78C687.977 339.22 687.944 338.66 687.877 338.1C687.811 337.527 687.664 337.013 687.437 336.56C687.211 336.093 686.857 335.72 686.377 335.44C685.897 335.147 685.244 335 684.417 335C683.604 335 682.917 335.16 682.357 335.48C681.811 335.8 681.371 336.227 681.037 336.76C680.704 337.293 680.457 337.893 680.297 338.56C680.151 339.227 680.077 339.893 680.077 340.56L678.317 339.4C678.317 337.707 678.637 336.18 679.277 334.82C679.917 333.46 680.837 332.387 682.037 331.6C683.237 330.8 684.664 330.4 686.317 330.4C687.984 330.4 689.324 330.74 690.337 331.42C691.351 332.1 692.084 333.033 692.537 334.22C693.004 335.393 693.237 336.733 693.237 338.24C693.237 338.827 693.237 339.573 693.237 340.48C693.237 341.387 693.237 342.46 693.237 343.7V352H687.977ZM708.338 352.42C706.098 352.42 704.124 351.953 702.418 351.02C700.711 350.073 699.371 348.767 698.398 347.1C697.438 345.433 696.958 343.527 696.958 341.38C696.958 339.22 697.438 337.32 698.398 335.68C699.371 334.027 700.711 332.733 702.418 331.8C704.124 330.867 706.098 330.4 708.338 330.4C710.578 330.4 712.551 330.867 714.258 331.8C715.964 332.733 717.298 334.027 718.258 335.68C719.231 337.32 719.718 339.22 719.718 341.38C719.718 343.527 719.231 345.433 718.258 347.1C717.298 348.767 715.964 350.073 714.258 351.02C712.551 351.953 710.578 352.42 708.338 352.42ZM708.338 348.12C709.551 348.12 710.611 347.84 711.518 347.28C712.424 346.72 713.131 345.94 713.638 344.94C714.144 343.927 714.398 342.74 714.398 341.38C714.398 340.02 714.144 338.847 713.638 337.86C713.131 336.86 712.424 336.087 711.518 335.54C710.611 334.993 709.551 334.72 708.338 334.72C707.138 334.72 706.078 334.993 705.158 335.54C704.251 336.087 703.544 336.86 703.038 337.86C702.531 338.847 702.278 340.02 702.278 341.38C702.278 342.74 702.531 343.927 703.038 344.94C703.544 345.94 704.251 346.72 705.158 347.28C706.078 347.84 707.138 348.12 708.338 348.12ZM732.49 352.44C730.743 352.44 729.123 352.02 727.63 351.18C726.15 350.327 724.963 349.073 724.07 347.42C723.176 345.767 722.73 343.733 722.73 341.32C722.73 338.973 723.183 336.987 724.09 335.36C725.01 333.733 726.21 332.5 727.69 331.66C729.183 330.82 730.783 330.4 732.49 330.4C734.156 330.4 735.696 330.813 737.11 331.64C738.523 332.453 739.656 333.587 740.51 335.04C741.363 336.493 741.79 338.16 741.79 340.04C741.79 340.093 741.79 340.147 741.79 340.2C741.79 340.253 741.79 340.307 741.79 340.36L739.19 340.42C739.19 340.38 739.19 340.34 739.19 340.3C739.19 340.247 739.19 340.2 739.19 340.16C739.19 339.107 738.923 338.187 738.39 337.4C737.87 336.613 737.19 336 736.35 335.56C735.523 335.107 734.643 334.88 733.71 334.88C732.176 334.88 730.87 335.4 729.79 336.44C728.71 337.467 728.17 339.093 728.17 341.32C728.17 343.533 728.71 345.167 729.79 346.22C730.87 347.273 732.176 347.8 733.71 347.8C734.683 347.8 735.583 347.567 736.41 347.1C737.236 346.633 737.903 345.993 738.41 345.18C738.93 344.353 739.19 343.407 739.19 342.34L741.79 342.46C741.79 344.327 741.37 346.02 740.53 347.54C739.703 349.047 738.59 350.24 737.19 351.12C735.79 352 734.223 352.44 732.49 352.44ZM739.19 352V320.74H744.47V352H739.19ZM756.526 352.44C754.94 352.44 753.546 352.193 752.346 351.7C751.146 351.193 750.206 350.467 749.526 349.52C748.846 348.573 748.506 347.433 748.506 346.1C748.506 344.647 748.9 343.453 749.686 342.52C750.486 341.573 751.56 340.847 752.906 340.34C754.253 339.82 755.746 339.487 757.386 339.34C759.813 339.1 761.506 338.873 762.466 338.66C763.44 338.433 763.926 338.073 763.926 337.58C763.926 337.567 763.926 337.56 763.926 337.56C763.926 337.547 763.926 337.54 763.926 337.54C763.926 336.607 763.506 335.887 762.666 335.38C761.826 334.873 760.64 334.62 759.106 334.62C757.493 334.62 756.253 334.907 755.386 335.48C754.533 336.04 754.106 336.933 754.106 338.16H748.906C748.906 336.493 749.346 335.087 750.226 333.94C751.12 332.78 752.34 331.9 753.886 331.3C755.433 330.7 757.186 330.4 759.146 330.4C760.973 330.4 762.646 330.673 764.166 331.22C765.686 331.767 766.906 332.593 767.826 333.7C768.746 334.807 769.206 336.187 769.206 337.84C769.206 338.12 769.206 338.4 769.206 338.68C769.206 338.96 769.206 339.24 769.206 339.52V347.52C769.206 348.027 769.22 348.527 769.246 349.02C769.286 349.5 769.36 349.933 769.466 350.32C769.6 350.747 769.76 351.107 769.946 351.4C770.133 351.693 770.28 351.893 770.386 352H765.186C765.093 351.907 764.96 351.727 764.786 351.46C764.626 351.18 764.48 350.86 764.346 350.5C764.213 350.1 764.113 349.673 764.046 349.22C763.98 348.753 763.946 348.24 763.946 347.68L764.986 348.4C764.586 349.213 763.973 349.927 763.146 350.54C762.333 351.14 761.36 351.607 760.226 351.94C759.093 352.273 757.86 352.44 756.526 352.44ZM757.806 348.3C758.9 348.3 759.913 348.113 760.846 347.74C761.78 347.367 762.533 346.793 763.106 346.02C763.68 345.233 763.966 344.227 763.966 343V340.16L765.246 341.6C764.393 341.92 763.366 342.187 762.166 342.4C760.966 342.6 759.753 342.76 758.526 342.88C756.953 343.027 755.766 343.3 754.966 343.7C754.18 344.1 753.786 344.753 753.786 345.66C753.786 346.54 754.12 347.2 754.786 347.64C755.453 348.08 756.46 348.3 757.806 348.3ZM779.17 320.74V352H773.99V320.74H779.17ZM787.689 322.5L787.209 331.9H784.269L783.809 322.5H787.689ZM794.589 322.5L794.109 331.9H791.189L790.709 322.5H794.589ZM803.438 331.62L816.538 339.58V343.18L803.438 351.12V346.68L814.458 340.8V341.96L803.438 336.04V331.62Z" fill="#009483"/>
<rect x="443" y="293" width="428" height="96" rx="48" stroke="#009483" stroke-width="6"/>
<rect x="63" y="959" width="290" height="96" rx="48" fill="#FED9D2"/>
<path d="M138.363 1017.12L125.243 1009.18V1005.58L138.363 997.62V1002.04L127.343 1007.96V1006.8L138.363 1012.68V1017.12ZM149.2 1018V1000.96H144.7V996.76H149.2V994.86C149.2 993.62 149.367 992.533 149.7 991.6C150.034 990.653 150.487 989.853 151.06 989.2C151.634 988.547 152.287 988.02 153.02 987.62C153.767 987.207 154.56 986.907 155.4 986.72C156.254 986.533 157.1 986.44 157.94 986.44C158.74 986.44 159.347 986.487 159.76 986.58C160.187 986.673 160.474 986.753 160.62 986.82V991.06C160.46 991.007 160.18 990.947 159.78 990.88C159.394 990.8 158.974 990.76 158.52 990.76C157.707 990.76 157.034 990.88 156.5 991.12C155.967 991.347 155.554 991.667 155.26 992.08C154.967 992.493 154.76 992.973 154.64 993.52C154.52 994.053 154.46 994.64 154.46 995.28V996.76H160.34V1000.96H154.46V1018H149.2ZM172.91 1018.42C170.67 1018.42 168.697 1017.95 166.99 1017.02C165.284 1016.07 163.944 1014.77 162.97 1013.1C162.01 1011.43 161.53 1009.53 161.53 1007.38C161.53 1005.22 162.01 1003.32 162.97 1001.68C163.944 1000.03 165.284 998.733 166.99 997.8C168.697 996.867 170.67 996.4 172.91 996.4C175.15 996.4 177.124 996.867 178.83 997.8C180.537 998.733 181.87 1000.03 182.83 1001.68C183.804 1003.32 184.29 1005.22 184.29 1007.38C184.29 1009.53 183.804 1011.43 182.83 1013.1C181.87 1014.77 180.537 1016.07 178.83 1017.02C177.124 1017.95 175.15 1018.42 172.91 1018.42ZM172.91 1014.12C174.124 1014.12 175.184 1013.84 176.09 1013.28C176.997 1012.72 177.704 1011.94 178.21 1010.94C178.717 1009.93 178.97 1008.74 178.97 1007.38C178.97 1006.02 178.717 1004.85 178.21 1003.86C177.704 1002.86 176.997 1002.09 176.09 1001.54C175.184 1000.99 174.124 1000.72 172.91 1000.72C171.71 1000.72 170.65 1000.99 169.73 1001.54C168.824 1002.09 168.117 1002.86 167.61 1003.86C167.104 1004.85 166.85 1006.02 166.85 1007.38C166.85 1008.74 167.104 1009.93 167.61 1010.94C168.117 1011.94 168.824 1012.72 169.73 1013.28C170.65 1013.84 171.71 1014.12 172.91 1014.12ZM198.682 1018.42C196.442 1018.42 194.469 1017.95 192.762 1017.02C191.056 1016.07 189.716 1014.77 188.742 1013.1C187.782 1011.43 187.302 1009.53 187.302 1007.38C187.302 1005.22 187.782 1003.32 188.742 1001.68C189.716 1000.03 191.056 998.733 192.762 997.8C194.469 996.867 196.442 996.4 198.682 996.4C200.922 996.4 202.896 996.867 204.602 997.8C206.309 998.733 207.642 1000.03 208.602 1001.68C209.576 1003.32 210.062 1005.22 210.062 1007.38C210.062 1009.53 209.576 1011.43 208.602 1013.1C207.642 1014.77 206.309 1016.07 204.602 1017.02C202.896 1017.95 200.922 1018.42 198.682 1018.42ZM198.682 1014.12C199.896 1014.12 200.956 1013.84 201.862 1013.28C202.769 1012.72 203.476 1011.94 203.982 1010.94C204.489 1009.93 204.742 1008.74 204.742 1007.38C204.742 1006.02 204.489 1004.85 203.982 1003.86C203.476 1002.86 202.769 1002.09 201.862 1001.54C200.956 1000.99 199.896 1000.72 198.682 1000.72C197.482 1000.72 196.422 1000.99 195.502 1001.54C194.596 1002.09 193.889 1002.86 193.382 1003.86C192.876 1004.85 192.622 1006.02 192.622 1007.38C192.622 1008.74 192.876 1009.93 193.382 1010.94C193.889 1011.94 194.596 1012.72 195.502 1013.28C196.422 1013.84 197.482 1014.12 198.682 1014.12ZM223.54 1018.4C222.78 1018.4 222.007 1018.33 221.22 1018.18C220.433 1018.03 219.713 1017.76 219.06 1017.36C218.407 1016.96 217.88 1016.37 217.48 1015.6C217.08 1014.83 216.88 1013.81 216.88 1012.54C216.88 1012.25 216.88 1011.95 216.88 1011.66C216.88 1011.35 216.88 1011.04 216.88 1010.72V1000.96H211.86V996.76H213.9C214.593 996.76 215.14 996.733 215.54 996.68C215.94 996.613 216.233 996.467 216.42 996.24C216.607 996.013 216.727 995.66 216.78 995.18C216.847 994.687 216.88 994.007 216.88 993.14V989.76H222.16V996.76H228.48V1000.96H222.16V1009.48C222.16 1009.73 222.16 1009.99 222.16 1010.24C222.16 1010.48 222.16 1010.71 222.16 1010.94C222.16 1011.93 222.28 1012.72 222.52 1013.32C222.76 1013.92 223.327 1014.22 224.22 1014.22C224.647 1014.22 225.047 1014.18 225.42 1014.1C225.807 1014.02 226.093 1013.94 226.28 1013.86V1017.98C226.027 1018.07 225.66 1018.17 225.18 1018.26C224.7 1018.35 224.153 1018.4 223.54 1018.4ZM233.426 1009.08V1005.34H248.286L247.686 1006.34C247.686 1006.26 247.686 1006.17 247.686 1006.08C247.686 1005.97 247.686 1005.89 247.686 1005.82C247.686 1004.9 247.479 1004.04 247.066 1003.24C246.652 1002.43 246.026 1001.77 245.186 1001.28C244.346 1000.77 243.279 1000.52 241.986 1000.52C240.706 1000.52 239.592 1000.79 238.646 1001.34C237.712 1001.87 236.986 1002.65 236.466 1003.66C235.959 1004.67 235.706 1005.89 235.706 1007.3C235.706 1008.75 235.952 1010.01 236.446 1011.06C236.939 1012.1 237.659 1012.9 238.606 1013.46C239.566 1014.01 240.732 1014.28 242.106 1014.28C243.039 1014.28 243.846 1014.19 244.526 1014.02C245.206 1013.85 245.759 1013.61 246.186 1013.32C246.626 1013.01 246.952 1012.69 247.166 1012.34C247.392 1011.99 247.526 1011.65 247.566 1011.3H252.806C252.726 1012.19 252.426 1013.07 251.906 1013.92C251.399 1014.76 250.686 1015.53 249.766 1016.22C248.846 1016.9 247.726 1017.45 246.406 1017.86C245.099 1018.26 243.606 1018.46 241.926 1018.46C239.646 1018.46 237.652 1017.99 235.946 1017.06C234.239 1016.13 232.906 1014.83 231.946 1013.16C230.999 1011.49 230.526 1009.59 230.526 1007.44C230.526 1005.24 231.006 1003.31 231.966 1001.66C232.939 1000.01 234.286 998.72 236.006 997.8C237.726 996.867 239.699 996.4 241.926 996.4C244.219 996.4 246.199 996.867 247.866 997.8C249.546 998.733 250.839 1000.03 251.746 1001.7C252.652 1003.35 253.106 1005.28 253.106 1007.48C253.106 1007.76 253.099 1008.06 253.086 1008.38C253.072 1008.7 253.052 1008.93 253.026 1009.08H233.426ZM257.042 1018V996.76H262.302V1003.82L261.082 1003.14C261.216 1002.22 261.462 1001.35 261.822 1000.54C262.182 999.713 262.662 998.993 263.262 998.38C263.862 997.753 264.589 997.267 265.442 996.92C266.296 996.573 267.269 996.4 268.362 996.4C269.229 996.4 269.909 996.467 270.402 996.6C270.909 996.72 271.222 996.82 271.342 996.9L270.382 1001.72C270.249 1001.63 269.976 1001.51 269.562 1001.38C269.162 1001.23 268.622 1001.16 267.942 1001.16C266.862 1001.16 265.956 1001.35 265.222 1001.72C264.502 1002.08 263.929 1002.57 263.502 1003.2C263.076 1003.81 262.769 1004.49 262.582 1005.24C262.396 1005.97 262.302 1006.71 262.302 1007.44V1018H257.042ZM277.62 997.62L290.72 1005.58V1009.18L277.62 1017.12V1012.68L288.64 1006.8V1007.96L277.62 1002.04V997.62Z" fill="#DA2F84"/>
<rect x="63" y="959" width="290" height="96" rx="48" stroke="#DA2F84" stroke-opacity="0.64" stroke-width="6"/>
<path d="M1451.87 67.168H1465.69V73H1443.9V67.48L1457.39 53.056L1457.56 53.32H1444.38V47.512H1465.4V53.032L1452.04 67.408L1451.87 67.168ZM1468 61.696V57.136H1485.5V61.696H1468ZM1490.03 73V47.512H1497.4V73H1490.03ZM1493.7 43.36C1492.55 43.36 1491.54 43.056 1490.68 42.448C1489.83 41.84 1489.41 40.984 1489.41 39.88C1489.41 38.76 1489.83 37.896 1490.68 37.288C1491.54 36.68 1492.55 36.376 1493.7 36.376C1494.87 36.376 1495.88 36.68 1496.73 37.288C1497.59 37.896 1498.02 38.76 1498.02 39.88C1498.02 41 1497.59 41.864 1496.73 42.472C1495.88 43.064 1494.87 43.36 1493.7 43.36ZM1519.87 73V62.176C1519.87 61.568 1519.87 61.016 1519.87 60.52C1519.87 60.024 1519.87 59.576 1519.87 59.176C1519.87 58.12 1519.74 57.16 1519.47 56.296C1519.19 55.416 1518.71 54.712 1518 54.184C1517.3 53.656 1516.28 53.392 1514.95 53.392C1513.8 53.392 1512.8 53.656 1511.95 54.184C1511.12 54.712 1510.48 55.448 1510.03 56.392C1509.59 57.336 1509.36 58.424 1509.36 59.656L1507.3 58.168C1507.3 55.96 1507.78 54.024 1508.74 52.36C1509.7 50.696 1510.99 49.392 1512.63 48.448C1514.27 47.504 1516.1 47.032 1518.1 47.032C1520.19 47.032 1521.91 47.456 1523.26 48.304C1524.62 49.136 1525.63 50.304 1526.28 51.808C1526.95 53.296 1527.29 55.04 1527.29 57.04C1527.29 57.856 1527.29 58.768 1527.29 59.776C1527.29 60.784 1527.29 61.816 1527.29 62.872V73H1519.87ZM1501.92 73V47.512H1509.36V73H1501.92ZM1542.56 73.576C1540.43 73.576 1538.47 73.072 1536.68 72.064C1534.88 71.04 1533.44 69.528 1532.36 67.528C1531.27 65.528 1530.72 63.064 1530.72 60.136C1530.72 57.336 1531.28 54.96 1532.38 53.008C1533.5 51.056 1534.96 49.576 1536.75 48.568C1538.56 47.544 1540.49 47.032 1542.56 47.032C1544.57 47.032 1546.41 47.544 1548.08 48.568C1549.76 49.592 1551.1 50.992 1552.11 52.768C1553.12 54.528 1553.62 56.56 1553.62 58.864C1553.62 58.944 1553.62 59.024 1553.62 59.104C1553.62 59.168 1553.62 59.24 1553.62 59.32L1550.4 59.368C1550.4 59.32 1550.4 59.272 1550.4 59.224C1550.4 59.16 1550.4 59.104 1550.4 59.056C1550.4 57.856 1550.12 56.824 1549.54 55.96C1548.96 55.096 1548.22 54.432 1547.31 53.968C1546.4 53.488 1545.44 53.248 1544.45 53.248C1542.8 53.248 1541.38 53.8 1540.18 54.904C1538.98 55.992 1538.38 57.736 1538.38 60.136C1538.38 62.536 1538.98 64.304 1540.18 65.44C1541.4 66.56 1542.82 67.12 1544.45 67.12C1545.48 67.12 1546.44 66.88 1547.36 66.4C1548.27 65.904 1549 65.208 1549.56 64.312C1550.12 63.416 1550.4 62.36 1550.4 61.144L1553.62 61.312C1553.62 63.6 1553.12 65.672 1552.13 67.528C1551.16 69.368 1549.83 70.84 1548.15 71.944C1546.48 73.032 1544.62 73.576 1542.56 73.576ZM1550.4 73V35.488H1557.87V73H1550.4ZM1565.44 62.488V57.568H1582.33L1581.61 58.816C1581.61 58.688 1581.61 58.568 1581.61 58.456C1581.61 58.328 1581.61 58.208 1581.61 58.096C1581.61 57.184 1581.4 56.312 1580.96 55.48C1580.53 54.632 1579.86 53.944 1578.95 53.416C1578.05 52.872 1576.9 52.6 1575.49 52.6C1574.08 52.6 1572.87 52.904 1571.84 53.512C1570.84 54.104 1570.06 54.96 1569.52 56.08C1568.99 57.2 1568.72 58.552 1568.72 60.136C1568.72 61.768 1568.98 63.168 1569.49 64.336C1570.02 65.488 1570.8 66.376 1571.82 67C1572.86 67.624 1574.15 67.936 1575.68 67.936C1576.68 67.936 1577.53 67.848 1578.25 67.672C1578.97 67.48 1579.56 67.24 1580 66.952C1580.47 66.664 1580.82 66.344 1581.06 65.992C1581.3 65.64 1581.44 65.296 1581.49 64.96H1588.84C1588.74 66.032 1588.37 67.088 1587.73 68.128C1587.09 69.152 1586.2 70.08 1585.07 70.912C1583.93 71.728 1582.55 72.376 1580.92 72.856C1579.3 73.336 1577.45 73.576 1575.37 73.576C1572.56 73.576 1570.1 73.016 1568 71.896C1565.91 70.76 1564.28 69.2 1563.13 67.216C1561.98 65.216 1561.4 62.912 1561.4 60.304C1561.4 57.664 1561.99 55.352 1563.16 53.368C1564.34 51.368 1565.98 49.816 1568.08 48.712C1570.19 47.592 1572.63 47.032 1575.4 47.032C1578.23 47.032 1580.68 47.6 1582.74 48.736C1584.8 49.856 1586.4 51.432 1587.52 53.464C1588.64 55.48 1589.2 57.832 1589.2 60.52C1589.2 60.92 1589.19 61.304 1589.17 61.672C1589.16 62.04 1589.13 62.312 1589.1 62.488H1565.44ZM1599.81 58.96L1599.74 62.296L1589.16 47.512H1597.25L1604.85 58.84L1600.39 58.792L1607.95 47.512H1615.89L1605.74 61.36L1605.38 57.976L1615.99 73H1607.85L1600.08 61.624L1605.12 61.384L1596.67 73H1588.73L1599.81 58.96ZM1622.7 73.72C1621.6 73.72 1620.66 73.336 1619.89 72.568C1619.13 71.8 1618.74 70.864 1618.74 69.76C1618.74 68.672 1619.13 67.744 1619.89 66.976C1620.66 66.208 1621.6 65.824 1622.7 65.824C1623.79 65.824 1624.72 66.208 1625.49 66.976C1626.25 67.744 1626.64 68.672 1626.64 69.76C1626.64 70.864 1626.25 71.8 1625.49 72.568C1624.72 73.336 1623.79 73.72 1622.7 73.72ZM1622.73 55.6C1621.62 55.6 1620.69 55.216 1619.92 54.448C1619.15 53.68 1618.77 52.744 1618.77 51.64C1618.77 50.552 1619.15 49.624 1619.92 48.856C1620.69 48.088 1621.62 47.704 1622.73 47.704C1623.81 47.704 1624.74 48.088 1625.51 48.856C1626.28 49.624 1626.66 50.552 1626.66 51.64C1626.66 52.744 1626.28 53.68 1625.51 54.448C1624.74 55.216 1623.81 55.6 1622.73 55.6ZM1656.61 37.552V73H1649.22V44.512C1649.01 44.672 1648.57 44.88 1647.88 45.136C1647.21 45.376 1646.4 45.608 1645.45 45.832C1644.51 46.056 1643.53 46.208 1642.53 46.288V40.432C1643.53 40.304 1644.52 40.088 1645.48 39.784C1646.44 39.464 1647.26 39.104 1647.95 38.704C1648.65 38.304 1649.12 37.92 1649.34 37.552H1656.61Z" fill="black"/>
<path d="M135.431 938.168H149.255V944H127.463V938.48L140.951 924.056L141.119 924.32H127.943V918.512H148.967V924.032L135.599 938.408L135.431 938.168ZM151.566 932.696V928.136H169.062V932.696H151.566ZM173.594 944V918.512H180.962V944H173.594ZM177.266 914.36C176.114 914.36 175.106 914.056 174.242 913.448C173.394 912.84 172.97 911.984 172.97 910.88C172.97 909.76 173.394 908.896 174.242 908.288C175.106 907.68 176.114 907.376 177.266 907.376C178.434 907.376 179.442 907.68 180.29 908.288C181.154 908.896 181.586 909.76 181.586 910.88C181.586 912 181.154 912.864 180.29 913.472C179.442 914.064 178.434 914.36 177.266 914.36ZM203.437 944V933.176C203.437 932.568 203.437 932.016 203.437 931.52C203.437 931.024 203.437 930.576 203.437 930.176C203.437 929.12 203.301 928.16 203.029 927.296C202.757 926.416 202.269 925.712 201.565 925.184C200.861 924.656 199.845 924.392 198.517 924.392C197.365 924.392 196.365 924.656 195.517 925.184C194.685 925.712 194.045 926.448 193.597 927.392C193.149 928.336 192.925 929.424 192.925 930.656L190.861 929.168C190.861 926.96 191.341 925.024 192.301 923.36C193.261 921.696 194.557 920.392 196.189 919.448C197.837 918.504 199.661 918.032 201.661 918.032C203.757 918.032 205.477 918.456 206.821 919.304C208.181 920.136 209.189 921.304 209.845 922.808C210.517 924.296 210.853 926.04 210.853 928.04C210.853 928.856 210.853 929.768 210.853 930.776C210.853 931.784 210.853 932.816 210.853 933.872V944H203.437ZM185.485 944V918.512H192.925V944H185.485ZM226.118 944.576C223.99 944.576 222.03 944.072 220.238 943.064C218.446 942.04 217.006 940.528 215.918 938.528C214.83 936.528 214.286 934.064 214.286 931.136C214.286 928.336 214.838 925.96 215.942 924.008C217.062 922.056 218.518 920.576 220.31 919.568C222.118 918.544 224.054 918.032 226.118 918.032C228.134 918.032 229.974 918.544 231.638 919.568C233.318 920.592 234.662 921.992 235.67 923.768C236.678 925.528 237.182 927.56 237.182 929.864C237.182 929.944 237.182 930.024 237.182 930.104C237.182 930.168 237.182 930.24 237.182 930.32L233.966 930.368C233.966 930.32 233.966 930.272 233.966 930.224C233.966 930.16 233.966 930.104 233.966 930.056C233.966 928.856 233.678 927.824 233.102 926.96C232.526 926.096 231.782 925.432 230.87 924.968C229.958 924.488 229.006 924.248 228.014 924.248C226.366 924.248 224.942 924.8 223.742 925.904C222.542 926.992 221.942 928.736 221.942 931.136C221.942 933.536 222.542 935.304 223.742 936.44C224.958 937.56 226.382 938.12 228.014 938.12C229.038 938.12 230.006 937.88 230.918 937.4C231.83 936.904 232.566 936.208 233.126 935.312C233.686 934.416 233.966 933.36 233.966 932.144L237.182 932.312C237.182 934.6 236.686 936.672 235.694 938.528C234.718 940.368 233.39 941.84 231.71 942.944C230.046 944.032 228.182 944.576 226.118 944.576ZM233.966 944V906.488H241.43V944H233.966ZM248.999 933.488V928.568H265.895L265.175 929.816C265.175 929.688 265.175 929.568 265.175 929.456C265.175 929.328 265.175 929.208 265.175 929.096C265.175 928.184 264.959 927.312 264.527 926.48C264.095 925.632 263.423 924.944 262.511 924.416C261.615 923.872 260.463 923.6 259.055 923.6C257.647 923.6 256.431 923.904 255.407 924.512C254.399 925.104 253.623 925.96 253.079 927.08C252.551 928.2 252.287 929.552 252.287 931.136C252.287 932.768 252.543 934.168 253.055 935.336C253.583 936.488 254.359 937.376 255.383 938C256.423 938.624 257.711 938.936 259.247 938.936C260.239 938.936 261.095 938.848 261.815 938.672C262.535 938.48 263.119 938.24 263.567 937.952C264.031 937.664 264.383 937.344 264.623 936.992C264.863 936.64 265.007 936.296 265.055 935.96H272.399C272.303 937.032 271.935 938.088 271.295 939.128C270.655 940.152 269.767 941.08 268.631 941.912C267.495 942.728 266.111 943.376 264.479 943.856C262.863 944.336 261.015 944.576 258.935 944.576C256.119 944.576 253.663 944.016 251.567 942.896C249.471 941.76 247.847 940.2 246.695 938.216C245.543 936.216 244.967 933.912 244.967 931.304C244.967 928.664 245.551 926.352 246.719 924.368C247.903 922.368 249.543 920.816 251.639 919.712C253.751 918.592 256.191 918.032 258.959 918.032C261.791 918.032 264.239 918.6 266.303 919.736C268.367 920.856 269.959 922.432 271.079 924.464C272.199 926.48 272.759 928.832 272.759 931.52C272.759 931.92 272.751 932.304 272.735 932.672C272.719 933.04 272.695 933.312 272.663 933.488H248.999ZM283.377 929.96L283.305 933.296L272.721 918.512H280.809L288.417 929.84L283.953 929.792L291.513 918.512H299.457L289.305 932.36L288.945 928.976L299.553 944H291.417L283.641 932.624L288.681 932.384L280.233 944H272.289L283.377 929.96ZM306.264 944.72C305.16 944.72 304.224 944.336 303.456 943.568C302.688 942.8 302.304 941.864 302.304 940.76C302.304 939.672 302.688 938.744 303.456 937.976C304.224 937.208 305.16 936.824 306.264 936.824C307.352 936.824 308.28 937.208 309.048 937.976C309.816 938.744 310.2 939.672 310.2 940.76C310.2 941.864 309.816 942.8 309.048 943.568C308.28 944.336 307.352 944.72 306.264 944.72ZM306.288 926.6C305.184 926.6 304.248 926.216 303.48 925.448C302.712 924.68 302.328 923.744 302.328 922.64C302.328 921.552 302.712 920.624 303.48 919.856C304.248 919.088 305.184 918.704 306.288 918.704C307.376 918.704 308.304 919.088 309.072 919.856C309.84 920.624 310.224 921.552 310.224 922.64C310.224 923.744 309.84 924.68 309.072 925.448C308.304 926.216 307.376 926.6 306.288 926.6ZM325.512 944V937.904C325.656 937.552 326.08 937.032 326.784 936.344C327.488 935.64 328.344 934.848 329.352 933.968C330.36 933.088 331.416 932.192 332.52 931.28C333.64 930.352 334.672 929.496 335.616 928.712C336.736 927.784 337.824 926.824 338.88 925.832C339.936 924.824 340.808 923.76 341.496 922.64C342.2 921.504 342.552 920.312 342.552 919.064C342.552 917.496 342.176 916.24 341.424 915.296C340.688 914.352 339.512 913.88 337.896 913.88C336.6 913.88 335.568 914.168 334.8 914.744C334.048 915.304 333.512 916.096 333.192 917.12C332.872 918.128 332.712 919.312 332.712 920.672H325.272C325.272 918.08 325.76 915.84 326.736 913.952C327.728 912.064 329.168 910.616 331.056 909.608C332.96 908.584 335.28 908.072 338.016 908.072C340.672 908.072 342.888 908.56 344.664 909.536C346.456 910.512 347.8 911.832 348.696 913.496C349.592 915.16 350.04 917.04 350.04 919.136C350.04 920.544 349.768 921.864 349.224 923.096C348.696 924.312 348 925.44 347.136 926.48C346.288 927.52 345.376 928.472 344.4 929.336C343.424 930.184 342.504 930.952 341.64 931.64C340.184 932.792 338.92 933.808 337.848 934.688C336.776 935.568 335.92 936.312 335.28 936.92C334.656 937.528 334.272 937.992 334.128 938.312H349.824V944H325.512Z" fill="black"/>
<path d="M1386 223.72H1397.9V228H1380.32V223.94L1391.98 210.86L1392.08 211.04H1380.76V206.76H1397.68V210.82L1386.1 223.86L1386 223.72ZM1400.42 218.3V215.04H1414.76V218.3H1400.42ZM1419.59 228V206.76H1424.79V228H1419.59ZM1422.21 202.84C1421.36 202.84 1420.61 202.613 1419.97 202.16C1419.34 201.693 1419.03 201.047 1419.03 200.22C1419.03 199.407 1419.34 198.773 1419.97 198.32C1420.61 197.867 1421.36 197.64 1422.21 197.64C1423.05 197.64 1423.78 197.867 1424.41 198.32C1425.04 198.773 1425.35 199.407 1425.35 200.22C1425.35 201.047 1425.04 201.693 1424.41 202.16C1423.78 202.613 1423.05 202.84 1422.21 202.84ZM1444.62 228V218.58C1444.62 218.047 1444.62 217.58 1444.62 217.18C1444.62 216.767 1444.62 216.393 1444.62 216.06C1444.62 215.1 1444.48 214.24 1444.2 213.48C1443.94 212.707 1443.47 212.1 1442.8 211.66C1442.15 211.22 1441.24 211 1440.08 211C1439.07 211 1438.17 211.247 1437.38 211.74C1436.6 212.22 1435.98 212.887 1435.52 213.74C1435.08 214.58 1434.86 215.553 1434.86 216.66L1433.08 215.56C1433.08 213.787 1433.48 212.213 1434.28 210.84C1435.1 209.453 1436.18 208.367 1437.54 207.58C1438.9 206.793 1440.41 206.4 1442.06 206.4C1443.77 206.4 1445.2 206.733 1446.36 207.4C1447.54 208.067 1448.42 209.013 1449 210.24C1449.6 211.467 1449.9 212.907 1449.9 214.56C1449.9 215.2 1449.9 215.92 1449.9 216.72C1449.9 217.52 1449.9 218.307 1449.9 219.08V228H1444.62ZM1429.6 228V206.76H1434.86V228H1429.6ZM1463.38 228.44C1461.63 228.44 1460.01 228.02 1458.52 227.18C1457.04 226.327 1455.85 225.073 1454.96 223.42C1454.06 221.767 1453.62 219.733 1453.62 217.32C1453.62 214.973 1454.07 212.987 1454.98 211.36C1455.9 209.733 1457.1 208.5 1458.58 207.66C1460.07 206.82 1461.67 206.4 1463.38 206.4C1465.04 206.4 1466.58 206.813 1468 207.64C1469.41 208.453 1470.54 209.587 1471.4 211.04C1472.25 212.493 1472.68 214.16 1472.68 216.04C1472.68 216.093 1472.68 216.147 1472.68 216.2C1472.68 216.253 1472.68 216.307 1472.68 216.36L1470.08 216.42C1470.08 216.38 1470.08 216.34 1470.08 216.3C1470.08 216.247 1470.08 216.2 1470.08 216.16C1470.08 215.107 1469.81 214.187 1469.28 213.4C1468.76 212.613 1468.08 212 1467.24 211.56C1466.41 211.107 1465.53 210.88 1464.6 210.88C1463.06 210.88 1461.76 211.4 1460.68 212.44C1459.6 213.467 1459.06 215.093 1459.06 217.32C1459.06 219.533 1459.6 221.167 1460.68 222.22C1461.76 223.273 1463.06 223.8 1464.6 223.8C1465.57 223.8 1466.47 223.567 1467.3 223.1C1468.12 222.633 1468.79 221.993 1469.3 221.18C1469.82 220.353 1470.08 219.407 1470.08 218.34L1472.68 218.46C1472.68 220.327 1472.26 222.02 1471.42 223.54C1470.59 225.047 1469.48 226.24 1468.08 227.12C1466.68 228 1465.11 228.44 1463.38 228.44ZM1470.08 228V196.74H1475.36V228H1470.08ZM1482.09 219.08V215.34H1496.95L1496.35 216.34C1496.35 216.26 1496.35 216.173 1496.35 216.08C1496.35 215.973 1496.35 215.887 1496.35 215.82C1496.35 214.9 1496.15 214.04 1495.73 213.24C1495.32 212.427 1494.69 211.773 1493.85 211.28C1493.01 210.773 1491.95 210.52 1490.65 210.52C1489.37 210.52 1488.26 210.793 1487.31 211.34C1486.38 211.873 1485.65 212.647 1485.13 213.66C1484.63 214.673 1484.37 215.887 1484.37 217.3C1484.37 218.753 1484.62 220.007 1485.11 221.06C1485.61 222.1 1486.33 222.9 1487.27 223.46C1488.23 224.007 1489.4 224.28 1490.77 224.28C1491.71 224.28 1492.51 224.193 1493.19 224.02C1493.87 223.847 1494.43 223.613 1494.85 223.32C1495.29 223.013 1495.62 222.687 1495.83 222.34C1496.06 221.993 1496.19 221.647 1496.23 221.3H1501.47C1501.39 222.193 1501.09 223.067 1500.57 223.92C1500.07 224.76 1499.35 225.527 1498.43 226.22C1497.51 226.9 1496.39 227.447 1495.07 227.86C1493.77 228.26 1492.27 228.46 1490.59 228.46C1488.31 228.46 1486.32 227.993 1484.61 227.06C1482.91 226.127 1481.57 224.827 1480.61 223.16C1479.67 221.493 1479.19 219.587 1479.19 217.44C1479.19 215.24 1479.67 213.313 1480.63 211.66C1481.61 210.007 1482.95 208.72 1484.67 207.8C1486.39 206.867 1488.37 206.4 1490.59 206.4C1492.89 206.4 1494.87 206.867 1496.53 207.8C1498.21 208.733 1499.51 210.033 1500.41 211.7C1501.32 213.353 1501.77 215.28 1501.77 217.48C1501.77 217.76 1501.77 218.06 1501.75 218.38C1501.74 218.7 1501.72 218.933 1501.69 219.08H1482.09ZM1511.3 216.42L1511.26 218.82L1502.6 206.76H1508.36L1514.88 216.22L1511.72 216.2L1518.12 206.76H1523.76L1515.46 218.14L1515.32 215.94L1523.88 228H1518.12L1511.5 218.56L1515.06 218.24L1507.92 228H1502.28L1511.3 216.42ZM1529.83 228.56C1529 228.56 1528.3 228.273 1527.73 227.7C1527.16 227.127 1526.87 226.427 1526.87 225.6C1526.87 224.787 1527.16 224.093 1527.73 223.52C1528.3 222.933 1529 222.64 1529.83 222.64C1530.64 222.64 1531.34 222.933 1531.91 223.52C1532.5 224.093 1532.79 224.787 1532.79 225.6C1532.79 226.427 1532.5 227.127 1531.91 227.7C1531.34 228.273 1530.64 228.56 1529.83 228.56ZM1529.85 213.12C1529.02 213.12 1528.32 212.833 1527.75 212.26C1527.18 211.687 1526.89 210.987 1526.89 210.16C1526.89 209.347 1527.18 208.653 1527.75 208.08C1528.32 207.493 1529.02 207.2 1529.85 207.2C1530.66 207.2 1531.36 207.493 1531.93 208.08C1532.52 208.653 1532.81 209.347 1532.81 210.16C1532.81 210.987 1532.52 211.687 1531.93 212.26C1531.36 212.833 1530.66 213.12 1529.85 213.12ZM1556.24 228.46C1554.55 228.46 1553.16 228.173 1552.08 227.6C1551 227.013 1550.16 226.287 1549.54 225.42C1548.94 224.553 1548.52 223.667 1548.28 222.76C1548.04 221.853 1547.92 221.067 1547.92 220.4C1547.92 220.373 1547.92 220.353 1547.92 220.34C1547.92 220.327 1547.92 220.307 1547.92 220.28H1552.84C1552.84 220.307 1552.84 220.327 1552.84 220.34C1552.84 220.353 1552.84 220.373 1552.84 220.4C1552.84 220.787 1552.89 221.207 1552.98 221.66C1553.08 222.1 1553.24 222.52 1553.48 222.92C1553.74 223.307 1554.09 223.627 1554.54 223.88C1555 224.12 1555.57 224.24 1556.26 224.24C1557.26 224.24 1558.11 223.82 1558.8 222.98C1559.51 222.127 1560.05 220.773 1560.42 218.92C1560.81 217.067 1561 214.633 1561 211.62L1562.3 211.6C1562.28 212.627 1561.96 213.58 1561.36 214.46C1560.76 215.327 1559.93 216.027 1558.86 216.56C1557.8 217.08 1556.54 217.34 1555.08 217.34C1553.31 217.34 1551.82 216.933 1550.6 216.12C1549.39 215.293 1548.47 214.187 1547.84 212.8C1547.23 211.413 1546.92 209.867 1546.92 208.16C1546.92 206.213 1547.28 204.487 1548 202.98C1548.72 201.46 1549.8 200.267 1551.22 199.4C1552.66 198.533 1554.44 198.1 1556.54 198.1C1558.76 198.1 1560.57 198.667 1561.98 199.8C1563.41 200.92 1564.46 202.507 1565.12 204.56C1565.8 206.613 1566.14 209.033 1566.14 211.82C1566.14 214.633 1565.92 217.08 1565.46 219.16C1565.01 221.24 1564.35 222.973 1563.48 224.36C1562.63 225.733 1561.59 226.76 1560.36 227.44C1559.15 228.12 1557.78 228.46 1556.24 228.46ZM1556.22 213.38C1557.1 213.38 1557.88 213.173 1558.56 212.76C1559.24 212.347 1559.77 211.753 1560.14 210.98C1560.53 210.193 1560.72 209.26 1560.72 208.18C1560.72 207.047 1560.55 206.04 1560.2 205.16C1559.86 204.267 1559.36 203.567 1558.72 203.06C1558.1 202.553 1557.35 202.3 1556.48 202.3C1555.55 202.3 1554.76 202.513 1554.12 202.94C1553.5 203.367 1553.02 203.993 1552.7 204.82C1552.38 205.633 1552.22 206.633 1552.22 207.82C1552.22 208.94 1552.38 209.92 1552.68 210.76C1553 211.587 1553.46 212.233 1554.06 212.7C1554.66 213.153 1555.38 213.38 1556.22 213.38ZM1579.71 228.46C1578.02 228.46 1576.63 228.173 1575.55 227.6C1574.47 227.013 1573.62 226.287 1573.01 225.42C1572.41 224.553 1571.99 223.667 1571.75 222.76C1571.51 221.853 1571.39 221.067 1571.39 220.4C1571.39 220.373 1571.39 220.353 1571.39 220.34C1571.39 220.327 1571.39 220.307 1571.39 220.28H1576.31C1576.31 220.307 1576.31 220.327 1576.31 220.34C1576.31 220.353 1576.31 220.373 1576.31 220.4C1576.31 220.787 1576.36 221.207 1576.45 221.66C1576.54 222.1 1576.71 222.52 1576.95 222.92C1577.2 223.307 1577.56 223.627 1578.01 223.88C1578.46 224.12 1579.04 224.24 1579.73 224.24C1580.73 224.24 1581.58 223.82 1582.27 222.98C1582.98 222.127 1583.52 220.773 1583.89 218.92C1584.28 217.067 1584.47 214.633 1584.47 211.62L1585.77 211.6C1585.74 212.627 1585.43 213.58 1584.83 214.46C1584.23 215.327 1583.4 216.027 1582.33 216.56C1581.26 217.08 1580 217.34 1578.55 217.34C1576.78 217.34 1575.28 216.933 1574.07 216.12C1572.86 215.293 1571.94 214.187 1571.31 212.8C1570.7 211.413 1570.39 209.867 1570.39 208.16C1570.39 206.213 1570.75 204.487 1571.47 202.98C1572.19 201.46 1573.26 200.267 1574.69 199.4C1576.13 198.533 1577.9 198.1 1580.01 198.1C1582.22 198.1 1584.04 198.667 1585.45 199.8C1586.88 200.92 1587.92 202.507 1588.59 204.56C1589.27 206.613 1589.61 209.033 1589.61 211.82C1589.61 214.633 1589.38 217.08 1588.93 219.16C1588.48 221.24 1587.82 222.973 1586.95 224.36C1586.1 225.733 1585.06 226.76 1583.83 227.44C1582.62 228.12 1581.24 228.46 1579.71 228.46ZM1579.69 213.38C1580.57 213.38 1581.35 213.173 1582.03 212.76C1582.71 212.347 1583.24 211.753 1583.61 210.98C1584 210.193 1584.19 209.26 1584.19 208.18C1584.19 207.047 1584.02 206.04 1583.67 205.16C1583.32 204.267 1582.83 203.567 1582.19 203.06C1581.56 202.553 1580.82 202.3 1579.95 202.3C1579.02 202.3 1578.23 202.513 1577.59 202.94C1576.96 203.367 1576.49 203.993 1576.17 204.82C1575.85 205.633 1575.69 206.633 1575.69 207.82C1575.69 208.94 1575.84 209.92 1576.15 210.76C1576.47 211.587 1576.93 212.233 1577.53 212.7C1578.13 213.153 1578.85 213.38 1579.69 213.38Z" fill="black"/>
<path d="M598.23 394.5V474C598.23 480.027 599.477 484.854 601.973 488.481C604.468 492.108 608.6 496.296 614 496.296L785.5 496.296" stroke="#2A3751" stroke-width="6" stroke-linecap="round" stroke-linejoin="round"/>
<path d="M598.23 472L598.23 624.5C598.23 630.527 599.477 635.354 601.973 638.981C604.468 642.608 608.6 646.796 614 646.796L785.5 646.796" stroke="#2A3751" stroke-width="6" stroke-linecap="round" stroke-linejoin="round"/>
<rect x="711" y="448" width="627" height="96" rx="48" fill="#E9D6FF"/>
<path d="M797.238 506.12L784.118 498.18V494.58L797.238 486.62V491.04L786.218 496.96V495.8L797.238 501.68V506.12ZM814.315 507.44C812.569 507.44 810.949 507.02 809.455 506.18C807.975 505.327 806.789 504.073 805.895 502.42C805.002 500.767 804.555 498.733 804.555 496.32C804.555 493.973 805.009 491.987 805.915 490.36C806.835 488.733 808.035 487.5 809.515 486.66C811.009 485.82 812.609 485.4 814.315 485.4C815.982 485.4 817.522 485.813 818.935 486.64C820.349 487.453 821.482 488.587 822.335 490.04C823.189 491.493 823.615 493.16 823.615 495.04C823.615 495.093 823.615 495.147 823.615 495.2C823.615 495.253 823.615 495.307 823.615 495.36L821.015 495.42C821.015 495.38 821.015 495.34 821.015 495.3C821.015 495.247 821.015 495.2 821.015 495.16C821.015 494.107 820.749 493.187 820.215 492.4C819.695 491.613 819.015 491 818.175 490.56C817.349 490.107 816.469 489.88 815.535 489.88C814.002 489.88 812.695 490.4 811.615 491.44C810.535 492.467 809.995 494.093 809.995 496.32C809.995 498.533 810.535 500.167 811.615 501.22C812.695 502.273 814.002 502.8 815.535 502.8C816.509 502.8 817.409 502.567 818.235 502.1C819.062 501.633 819.729 500.993 820.235 500.18C820.755 499.353 821.015 498.407 821.015 497.34L823.615 497.46C823.615 499.327 823.195 501.02 822.355 502.54C821.529 504.047 820.415 505.24 819.015 506.12C817.615 507 816.049 507.44 814.315 507.44ZM821.015 507V475.74H826.295V507H821.015ZM830.972 507V485.76H836.172V507H830.972ZM833.592 481.84C832.739 481.84 831.992 481.613 831.352 481.16C830.725 480.693 830.412 480.047 830.412 479.22C830.412 478.407 830.725 477.773 831.352 477.32C831.992 476.867 832.739 476.64 833.592 476.64C834.432 476.64 835.165 476.867 835.792 477.32C836.419 477.773 836.732 478.407 836.732 479.22C836.732 480.047 836.419 480.693 835.792 481.16C835.165 481.613 834.432 481.84 833.592 481.84ZM859.625 485.76L852.965 507H845.905L839.085 485.76H844.525L849.865 505.16H849.025L854.185 485.76H859.625ZM872.116 507V485.76H877.316V507H872.116ZM874.736 481.84C873.882 481.84 873.136 481.613 872.496 481.16C871.869 480.693 871.556 480.047 871.556 479.22C871.556 478.407 871.869 477.773 872.496 477.32C873.136 476.867 873.882 476.64 874.736 476.64C875.576 476.64 876.309 476.867 876.936 477.32C877.562 477.773 877.876 478.407 877.876 479.22C877.876 480.047 877.562 480.693 876.936 481.16C876.309 481.613 875.576 481.84 874.736 481.84ZM890.948 507.44C889.202 507.44 887.582 507.02 886.088 506.18C884.608 505.327 883.422 504.073 882.528 502.42C881.635 500.767 881.188 498.733 881.188 496.32C881.188 493.973 881.642 491.987 882.548 490.36C883.468 488.733 884.668 487.5 886.148 486.66C887.642 485.82 889.242 485.4 890.948 485.4C892.615 485.4 894.155 485.813 895.568 486.64C896.982 487.453 898.115 488.587 898.968 490.04C899.822 491.493 900.248 493.16 900.248 495.04C900.248 495.093 900.248 495.147 900.248 495.2C900.248 495.253 900.248 495.307 900.248 495.36L897.648 495.42C897.648 495.38 897.648 495.34 897.648 495.3C897.648 495.247 897.648 495.2 897.648 495.16C897.648 494.107 897.382 493.187 896.848 492.4C896.328 491.613 895.648 491 894.808 490.56C893.982 490.107 893.102 489.88 892.168 489.88C890.635 489.88 889.328 490.4 888.248 491.44C887.168 492.467 886.628 494.093 886.628 496.32C886.628 498.533 887.168 500.167 888.248 501.22C889.328 502.273 890.635 502.8 892.168 502.8C893.142 502.8 894.042 502.567 894.868 502.1C895.695 501.633 896.362 500.993 896.868 500.18C897.388 499.353 897.648 498.407 897.648 497.34L900.248 497.46C900.248 499.327 899.828 501.02 898.988 502.54C898.162 504.047 897.048 505.24 895.648 506.12C894.248 507 892.682 507.44 890.948 507.44ZM897.648 507V475.74H902.928V507H897.648ZM925.045 494.54H910.125V491.24H925.045V494.54ZM925.045 501.58H910.125V498.28H925.045V501.58ZM935.962 477.5L935.482 486.9H932.542L932.082 477.5H935.962ZM942.862 477.5L942.382 486.9H939.462L938.982 477.5H942.862ZM961.55 507V498.38C961.55 497.593 961.55 496.907 961.55 496.32C961.55 495.72 961.55 495.22 961.55 494.82C961.55 494.3 961.517 493.76 961.45 493.2C961.383 492.627 961.237 492.1 961.01 491.62C960.783 491.14 960.43 490.753 959.95 490.46C959.483 490.153 958.837 490 958.01 490C957.21 490 956.53 490.167 955.97 490.5C955.423 490.82 954.97 491.253 954.61 491.8C954.263 492.333 954.01 492.947 953.85 493.64C953.69 494.32 953.61 495.02 953.61 495.74L951.85 494.56C951.85 492.813 952.177 491.253 952.83 489.88C953.483 488.507 954.41 487.42 955.61 486.62C956.823 485.807 958.257 485.4 959.91 485.4C961.617 485.4 962.97 485.76 963.97 486.48C964.97 487.187 965.683 488.147 966.11 489.36C966.55 490.573 966.77 491.933 966.77 493.44C966.77 494 966.77 494.747 966.77 495.68C966.77 496.6 966.77 497.687 966.77 498.94V507H961.55ZM948.35 507V485.76H953.61V507H948.35ZM974.67 507V498.4C974.67 497.56 974.67 496.847 974.67 496.26C974.67 495.673 974.67 495.18 974.67 494.78C974.67 494.22 974.637 493.66 974.57 493.1C974.503 492.527 974.357 492.013 974.13 491.56C973.903 491.093 973.55 490.72 973.07 490.44C972.59 490.147 971.937 490 971.11 490C970.297 490 969.61 490.16 969.05 490.48C968.503 490.8 968.063 491.227 967.73 491.76C967.397 492.293 967.15 492.893 966.99 493.56C966.843 494.227 966.77 494.893 966.77 495.56L965.01 494.4C965.01 492.707 965.33 491.18 965.97 489.82C966.61 488.46 967.53 487.387 968.73 486.6C969.93 485.8 971.357 485.4 973.01 485.4C974.677 485.4 976.017 485.74 977.03 486.42C978.043 487.1 978.777 488.033 979.23 489.22C979.697 490.393 979.93 491.733 979.93 493.24C979.93 493.827 979.93 494.573 979.93 495.48C979.93 496.387 979.93 497.46 979.93 498.7V507H974.67ZM995.031 507.42C992.791 507.42 990.817 506.953 989.111 506.02C987.404 505.073 986.064 503.767 985.091 502.1C984.131 500.433 983.651 498.527 983.651 496.38C983.651 494.22 984.131 492.32 985.091 490.68C986.064 489.027 987.404 487.733 989.111 486.8C990.817 485.867 992.791 485.4 995.031 485.4C997.271 485.4 999.244 485.867 1000.95 486.8C1002.66 487.733 1003.99 489.027 1004.95 490.68C1005.92 492.32 1006.41 494.22 1006.41 496.38C1006.41 498.527 1005.92 500.433 1004.95 502.1C1003.99 503.767 1002.66 505.073 1000.95 506.02C999.244 506.953 997.271 507.42 995.031 507.42ZM995.031 503.12C996.244 503.12 997.304 502.84 998.211 502.28C999.117 501.72 999.824 500.94 1000.33 499.94C1000.84 498.927 1001.09 497.74 1001.09 496.38C1001.09 495.02 1000.84 493.847 1000.33 492.86C999.824 491.86 999.117 491.087 998.211 490.54C997.304 489.993 996.244 489.72 995.031 489.72C993.831 489.72 992.771 489.993 991.851 490.54C990.944 491.087 990.237 491.86 989.731 492.86C989.224 493.847 988.971 495.02 988.971 496.38C988.971 497.74 989.224 498.927 989.731 499.94C990.237 500.94 990.944 501.72 991.851 502.28C992.771 502.84 993.831 503.12 995.031 503.12ZM1019.18 507.44C1017.44 507.44 1015.82 507.02 1014.32 506.18C1012.84 505.327 1011.66 504.073 1010.76 502.42C1009.87 500.767 1009.42 498.733 1009.42 496.32C1009.42 493.973 1009.88 491.987 1010.78 490.36C1011.7 488.733 1012.9 487.5 1014.38 486.66C1015.88 485.82 1017.48 485.4 1019.18 485.4C1020.85 485.4 1022.39 485.813 1023.8 486.64C1025.22 487.453 1026.35 488.587 1027.2 490.04C1028.06 491.493 1028.48 493.16 1028.48 495.04C1028.48 495.093 1028.48 495.147 1028.48 495.2C1028.48 495.253 1028.48 495.307 1028.48 495.36L1025.88 495.42C1025.88 495.38 1025.88 495.34 1025.88 495.3C1025.88 495.247 1025.88 495.2 1025.88 495.16C1025.88 494.107 1025.62 493.187 1025.08 492.4C1024.56 491.613 1023.88 491 1023.04 490.56C1022.22 490.107 1021.34 489.88 1020.4 489.88C1018.87 489.88 1017.56 490.4 1016.48 491.44C1015.4 492.467 1014.86 494.093 1014.86 496.32C1014.86 498.533 1015.4 500.167 1016.48 501.22C1017.56 502.273 1018.87 502.8 1020.4 502.8C1021.38 502.8 1022.28 502.567 1023.1 502.1C1023.93 501.633 1024.6 500.993 1025.1 500.18C1025.62 499.353 1025.88 498.407 1025.88 497.34L1028.48 497.46C1028.48 499.327 1028.06 501.02 1027.22 502.54C1026.4 504.047 1025.28 505.24 1023.88 506.12C1022.48 507 1020.92 507.44 1019.18 507.44ZM1025.88 507V475.74H1031.16V507H1025.88ZM1043.22 507.44C1041.63 507.44 1040.24 507.193 1039.04 506.7C1037.84 506.193 1036.9 505.467 1036.22 504.52C1035.54 503.573 1035.2 502.433 1035.2 501.1C1035.2 499.647 1035.59 498.453 1036.38 497.52C1037.18 496.573 1038.25 495.847 1039.6 495.34C1040.95 494.82 1042.44 494.487 1044.08 494.34C1046.51 494.1 1048.2 493.873 1049.16 493.66C1050.13 493.433 1050.62 493.073 1050.62 492.58C1050.62 492.567 1050.62 492.56 1050.62 492.56C1050.62 492.547 1050.62 492.54 1050.62 492.54C1050.62 491.607 1050.2 490.887 1049.36 490.38C1048.52 489.873 1047.33 489.62 1045.8 489.62C1044.19 489.62 1042.95 489.907 1042.08 490.48C1041.23 491.04 1040.8 491.933 1040.8 493.16H1035.6C1035.6 491.493 1036.04 490.087 1036.92 488.94C1037.81 487.78 1039.03 486.9 1040.58 486.3C1042.13 485.7 1043.88 485.4 1045.84 485.4C1047.67 485.4 1049.34 485.673 1050.86 486.22C1052.38 486.767 1053.6 487.593 1054.52 488.7C1055.44 489.807 1055.9 491.187 1055.9 492.84C1055.9 493.12 1055.9 493.4 1055.9 493.68C1055.9 493.96 1055.9 494.24 1055.9 494.52V502.52C1055.9 503.027 1055.91 503.527 1055.94 504.02C1055.98 504.5 1056.05 504.933 1056.16 505.32C1056.29 505.747 1056.45 506.107 1056.64 506.4C1056.83 506.693 1056.97 506.893 1057.08 507H1051.88C1051.79 506.907 1051.65 506.727 1051.48 506.46C1051.32 506.18 1051.17 505.86 1051.04 505.5C1050.91 505.1 1050.81 504.673 1050.74 504.22C1050.67 503.753 1050.64 503.24 1050.64 502.68L1051.68 503.4C1051.28 504.213 1050.67 504.927 1049.84 505.54C1049.03 506.14 1048.05 506.607 1046.92 506.94C1045.79 507.273 1044.55 507.44 1043.22 507.44ZM1044.5 503.3C1045.59 503.3 1046.61 503.113 1047.54 502.74C1048.47 502.367 1049.23 501.793 1049.8 501.02C1050.37 500.233 1050.66 499.227 1050.66 498V495.16L1051.94 496.6C1051.09 496.92 1050.06 497.187 1048.86 497.4C1047.66 497.6 1046.45 497.76 1045.22 497.88C1043.65 498.027 1042.46 498.3 1041.66 498.7C1040.87 499.1 1040.48 499.753 1040.48 500.66C1040.48 501.54 1040.81 502.2 1041.48 502.64C1042.15 503.08 1043.15 503.3 1044.5 503.3ZM1065.86 475.74V507H1060.68V475.74H1065.86ZM1069.8 497.3V494.04H1084.14V497.3H1069.8ZM1104.12 507V499.34C1104.12 499.02 1104.12 498.62 1104.12 498.14C1104.12 497.66 1104.12 497.173 1104.12 496.68C1104.12 496.187 1104.12 495.78 1104.12 495.46C1104.12 493.7 1103.77 492.353 1103.08 491.42C1102.4 490.473 1101.23 490 1099.58 490C1098.47 490 1097.52 490.22 1096.74 490.66C1095.96 491.087 1095.37 491.687 1094.96 492.46C1094.54 493.233 1094.34 494.127 1094.34 495.14L1092.42 494.12C1092.42 492.427 1092.8 490.927 1093.56 489.62C1094.33 488.3 1095.4 487.267 1096.76 486.52C1098.12 485.773 1099.68 485.4 1101.44 485.4C1104.01 485.4 1105.98 486.167 1107.34 487.7C1108.7 489.22 1109.38 491.34 1109.38 494.06C1109.38 494.753 1109.38 495.58 1109.38 496.54C1109.38 497.487 1109.38 498.553 1109.38 499.74V507H1104.12ZM1089.08 507V475.74H1094.34V507H1089.08ZM1116.03 498.08V494.34H1130.89L1130.29 495.34C1130.29 495.26 1130.29 495.173 1130.29 495.08C1130.29 494.973 1130.29 494.887 1130.29 494.82C1130.29 493.9 1130.08 493.04 1129.67 492.24C1129.25 491.427 1128.63 490.773 1127.79 490.28C1126.95 489.773 1125.88 489.52 1124.59 489.52C1123.31 489.52 1122.19 489.793 1121.25 490.34C1120.31 490.873 1119.59 491.647 1119.07 492.66C1118.56 493.673 1118.31 494.887 1118.31 496.3C1118.31 497.753 1118.55 499.007 1119.05 500.06C1119.54 501.1 1120.26 501.9 1121.21 502.46C1122.17 503.007 1123.33 503.28 1124.71 503.28C1125.64 503.28 1126.45 503.193 1127.13 503.02C1127.81 502.847 1128.36 502.613 1128.79 502.32C1129.23 502.013 1129.55 501.687 1129.77 501.34C1129.99 500.993 1130.13 500.647 1130.17 500.3H1135.41C1135.33 501.193 1135.03 502.067 1134.51 502.92C1134 503.76 1133.29 504.527 1132.37 505.22C1131.45 505.9 1130.33 506.447 1129.01 506.86C1127.7 507.26 1126.21 507.46 1124.53 507.46C1122.25 507.46 1120.25 506.993 1118.55 506.06C1116.84 505.127 1115.51 503.827 1114.55 502.16C1113.6 500.493 1113.13 498.587 1113.13 496.44C1113.13 494.24 1113.61 492.313 1114.57 490.66C1115.54 489.007 1116.89 487.72 1118.61 486.8C1120.33 485.867 1122.3 485.4 1124.53 485.4C1126.82 485.4 1128.8 485.867 1130.47 486.8C1132.15 487.733 1133.44 489.033 1134.35 490.7C1135.25 492.353 1135.71 494.28 1135.71 496.48C1135.71 496.76 1135.7 497.06 1135.69 497.38C1135.67 497.7 1135.65 497.933 1135.63 498.08H1116.03ZM1146.92 507.44C1145.34 507.44 1143.94 507.193 1142.74 506.7C1141.54 506.193 1140.6 505.467 1139.92 504.52C1139.24 503.573 1138.9 502.433 1138.9 501.1C1138.9 499.647 1139.3 498.453 1140.08 497.52C1140.88 496.573 1141.96 495.847 1143.3 495.34C1144.65 494.82 1146.14 494.487 1147.78 494.34C1150.21 494.1 1151.9 493.873 1152.86 493.66C1153.84 493.433 1154.32 493.073 1154.32 492.58C1154.32 492.567 1154.32 492.56 1154.32 492.56C1154.32 492.547 1154.32 492.54 1154.32 492.54C1154.32 491.607 1153.9 490.887 1153.06 490.38C1152.22 489.873 1151.04 489.62 1149.5 489.62C1147.89 489.62 1146.65 489.907 1145.78 490.48C1144.93 491.04 1144.5 491.933 1144.5 493.16H1139.3C1139.3 491.493 1139.74 490.087 1140.62 488.94C1141.52 487.78 1142.74 486.9 1144.28 486.3C1145.83 485.7 1147.58 485.4 1149.54 485.4C1151.37 485.4 1153.04 485.673 1154.56 486.22C1156.08 486.767 1157.3 487.593 1158.22 488.7C1159.14 489.807 1159.6 491.187 1159.6 492.84C1159.6 493.12 1159.6 493.4 1159.6 493.68C1159.6 493.96 1159.6 494.24 1159.6 494.52V502.52C1159.6 503.027 1159.62 503.527 1159.64 504.02C1159.68 504.5 1159.76 504.933 1159.86 505.32C1160 505.747 1160.16 506.107 1160.34 506.4C1160.53 506.693 1160.68 506.893 1160.78 507H1155.58C1155.49 506.907 1155.36 506.727 1155.18 506.46C1155.02 506.18 1154.88 505.86 1154.74 505.5C1154.61 505.1 1154.51 504.673 1154.44 504.22C1154.38 503.753 1154.34 503.24 1154.34 502.68L1155.38 503.4C1154.98 504.213 1154.37 504.927 1153.54 505.54C1152.73 506.14 1151.76 506.607 1150.62 506.94C1149.49 507.273 1148.26 507.44 1146.92 507.44ZM1148.2 503.3C1149.3 503.3 1150.31 503.113 1151.24 502.74C1152.18 502.367 1152.93 501.793 1153.5 501.02C1154.08 500.233 1154.36 499.227 1154.36 498V495.16L1155.64 496.6C1154.79 496.92 1153.76 497.187 1152.56 497.4C1151.36 497.6 1150.15 497.76 1148.92 497.88C1147.35 498.027 1146.16 498.3 1145.36 498.7C1144.58 499.1 1144.18 499.753 1144.18 500.66C1144.18 501.54 1144.52 502.2 1145.18 502.64C1145.85 503.08 1146.86 503.3 1148.2 503.3ZM1172.91 507.44C1171.16 507.44 1169.54 507.02 1168.05 506.18C1166.57 505.327 1165.38 504.073 1164.49 502.42C1163.59 500.767 1163.15 498.733 1163.15 496.32C1163.15 493.973 1163.6 491.987 1164.51 490.36C1165.43 488.733 1166.63 487.5 1168.11 486.66C1169.6 485.82 1171.2 485.4 1172.91 485.4C1174.57 485.4 1176.11 485.813 1177.53 486.64C1178.94 487.453 1180.07 488.587 1180.93 490.04C1181.78 491.493 1182.21 493.16 1182.21 495.04C1182.21 495.093 1182.21 495.147 1182.21 495.2C1182.21 495.253 1182.21 495.307 1182.21 495.36L1179.61 495.42C1179.61 495.38 1179.61 495.34 1179.61 495.3C1179.61 495.247 1179.61 495.2 1179.61 495.16C1179.61 494.107 1179.34 493.187 1178.81 492.4C1178.29 491.613 1177.61 491 1176.77 490.56C1175.94 490.107 1175.06 489.88 1174.13 489.88C1172.59 489.88 1171.29 490.4 1170.21 491.44C1169.13 492.467 1168.59 494.093 1168.59 496.32C1168.59 498.533 1169.13 500.167 1170.21 501.22C1171.29 502.273 1172.59 502.8 1174.13 502.8C1175.1 502.8 1176 502.567 1176.83 502.1C1177.65 501.633 1178.32 500.993 1178.83 500.18C1179.35 499.353 1179.61 498.407 1179.61 497.34L1182.21 497.46C1182.21 499.327 1181.79 501.02 1180.95 502.54C1180.12 504.047 1179.01 505.24 1177.61 506.12C1176.21 507 1174.64 507.44 1172.91 507.44ZM1179.61 507V475.74H1184.89V507H1179.61ZM1191.62 498.08V494.34H1206.48L1205.88 495.34C1205.88 495.26 1205.88 495.173 1205.88 495.08C1205.88 494.973 1205.88 494.887 1205.88 494.82C1205.88 493.9 1205.68 493.04 1205.26 492.24C1204.85 491.427 1204.22 490.773 1203.38 490.28C1202.54 489.773 1201.48 489.52 1200.18 489.52C1198.9 489.52 1197.79 489.793 1196.84 490.34C1195.91 490.873 1195.18 491.647 1194.66 492.66C1194.16 493.673 1193.9 494.887 1193.9 496.3C1193.9 497.753 1194.15 499.007 1194.64 500.06C1195.14 501.1 1195.86 501.9 1196.8 502.46C1197.76 503.007 1198.93 503.28 1200.3 503.28C1201.24 503.28 1202.04 503.193 1202.72 503.02C1203.4 502.847 1203.96 502.613 1204.38 502.32C1204.82 502.013 1205.15 501.687 1205.36 501.34C1205.59 500.993 1205.72 500.647 1205.76 500.3H1211C1210.92 501.193 1210.62 502.067 1210.1 502.92C1209.6 503.76 1208.88 504.527 1207.96 505.22C1207.04 505.9 1205.92 506.447 1204.6 506.86C1203.3 507.26 1201.8 507.46 1200.12 507.46C1197.84 507.46 1195.85 506.993 1194.14 506.06C1192.44 505.127 1191.1 503.827 1190.14 502.16C1189.2 500.493 1188.72 498.587 1188.72 496.44C1188.72 494.24 1189.2 492.313 1190.16 490.66C1191.14 489.007 1192.48 487.72 1194.2 486.8C1195.92 485.867 1197.9 485.4 1200.12 485.4C1202.42 485.4 1204.4 485.867 1206.06 486.8C1207.74 487.733 1209.04 489.033 1209.94 490.7C1210.85 492.353 1211.3 494.28 1211.3 496.48C1211.3 496.76 1211.3 497.06 1211.28 497.38C1211.27 497.7 1211.25 497.933 1211.22 498.08H1191.62ZM1215.24 507V485.76H1220.5V492.82L1219.28 492.14C1219.41 491.22 1219.66 490.353 1220.02 489.54C1220.38 488.713 1220.86 487.993 1221.46 487.38C1222.06 486.753 1222.79 486.267 1223.64 485.92C1224.49 485.573 1225.47 485.4 1226.56 485.4C1227.43 485.4 1228.11 485.467 1228.6 485.6C1229.11 485.72 1229.42 485.82 1229.54 485.9L1228.58 490.72C1228.45 490.627 1228.17 490.513 1227.76 490.38C1227.36 490.233 1226.82 490.16 1226.14 490.16C1225.06 490.16 1224.15 490.347 1223.42 490.72C1222.7 491.08 1222.13 491.573 1221.7 492.2C1221.27 492.813 1220.97 493.493 1220.78 494.24C1220.59 494.973 1220.5 495.707 1220.5 496.44V507H1215.24ZM1236 477.5L1235.52 486.9H1232.58L1232.12 477.5H1236ZM1242.9 477.5L1242.42 486.9H1239.5L1239.02 477.5H1242.9ZM1251.74 486.62L1264.84 494.58V498.18L1251.74 506.12V501.68L1262.76 495.8V496.96L1251.74 491.04V486.62Z" fill="#3B0076"/>
<rect x="711" y="448" width="627" height="96" rx="48" stroke="#A75EFA" stroke-width="6"/>
<rect x="711" y="599" width="627" height="96" rx="48" fill="#E9D6FF"/>
<path d="M778.185 657.12L765.065 649.18V645.58L778.185 637.62V642.04L767.165 647.96V646.8L778.185 652.68V657.12ZM795.262 658.44C793.516 658.44 791.896 658.02 790.402 657.18C788.922 656.327 787.736 655.073 786.842 653.42C785.949 651.767 785.502 649.733 785.502 647.32C785.502 644.973 785.956 642.987 786.862 641.36C787.782 639.733 788.982 638.5 790.462 637.66C791.956 636.82 793.556 636.4 795.262 636.4C796.929 636.4 798.469 636.813 799.882 637.64C801.296 638.453 802.429 639.587 803.282 641.04C804.136 642.493 804.562 644.16 804.562 646.04C804.562 646.093 804.562 646.147 804.562 646.2C804.562 646.253 804.562 646.307 804.562 646.36L801.962 646.42C801.962 646.38 801.962 646.34 801.962 646.3C801.962 646.247 801.962 646.2 801.962 646.16C801.962 645.107 801.696 644.187 801.162 643.4C800.642 642.613 799.962 642 799.122 641.56C798.296 641.107 797.416 640.88 796.482 640.88C794.949 640.88 793.642 641.4 792.562 642.44C791.482 643.467 790.942 645.093 790.942 647.32C790.942 649.533 791.482 651.167 792.562 652.22C793.642 653.273 794.949 653.8 796.482 653.8C797.456 653.8 798.356 653.567 799.182 653.1C800.009 652.633 800.676 651.993 801.182 651.18C801.702 650.353 801.962 649.407 801.962 648.34L804.562 648.46C804.562 650.327 804.142 652.02 803.302 653.54C802.476 655.047 801.362 656.24 799.962 657.12C798.562 658 796.996 658.44 795.262 658.44ZM801.962 658V626.74H807.242V658H801.962ZM811.919 658V636.76H817.119V658H811.919ZM814.539 632.84C813.686 632.84 812.939 632.613 812.299 632.16C811.672 631.693 811.359 631.047 811.359 630.22C811.359 629.407 811.672 628.773 812.299 628.32C812.939 627.867 813.686 627.64 814.539 627.64C815.379 627.64 816.112 627.867 816.739 628.32C817.366 628.773 817.679 629.407 817.679 630.22C817.679 631.047 817.366 631.693 816.739 632.16C816.112 632.613 815.379 632.84 814.539 632.84ZM840.571 636.76L833.911 658H826.851L820.031 636.76H825.471L830.811 656.16H829.971L835.131 636.76H840.571ZM853.063 658V636.76H858.263V658H853.063ZM855.683 632.84C854.829 632.84 854.083 632.613 853.443 632.16C852.816 631.693 852.503 631.047 852.503 630.22C852.503 629.407 852.816 628.773 853.443 628.32C854.083 627.867 854.829 627.64 855.683 627.64C856.523 627.64 857.256 627.867 857.883 628.32C858.509 628.773 858.823 629.407 858.823 630.22C858.823 631.047 858.509 631.693 857.883 632.16C857.256 632.613 856.523 632.84 855.683 632.84ZM871.895 658.44C870.148 658.44 868.528 658.02 867.035 657.18C865.555 656.327 864.368 655.073 863.475 653.42C862.582 651.767 862.135 649.733 862.135 647.32C862.135 644.973 862.588 642.987 863.495 641.36C864.415 639.733 865.615 638.5 867.095 637.66C868.588 636.82 870.188 636.4 871.895 636.4C873.562 636.4 875.102 636.813 876.515 637.64C877.928 638.453 879.062 639.587 879.915 641.04C880.768 642.493 881.195 644.16 881.195 646.04C881.195 646.093 881.195 646.147 881.195 646.2C881.195 646.253 881.195 646.307 881.195 646.36L878.595 646.42C878.595 646.38 878.595 646.34 878.595 646.3C878.595 646.247 878.595 646.2 878.595 646.16C878.595 645.107 878.328 644.187 877.795 643.4C877.275 642.613 876.595 642 875.755 641.56C874.928 641.107 874.048 640.88 873.115 640.88C871.582 640.88 870.275 641.4 869.195 642.44C868.115 643.467 867.575 645.093 867.575 647.32C867.575 649.533 868.115 651.167 869.195 652.22C870.275 653.273 871.582 653.8 873.115 653.8C874.088 653.8 874.988 653.567 875.815 653.1C876.642 652.633 877.308 651.993 877.815 651.18C878.335 650.353 878.595 649.407 878.595 648.34L881.195 648.46C881.195 650.327 880.775 652.02 879.935 653.54C879.108 655.047 877.995 656.24 876.595 657.12C875.195 658 873.628 658.44 871.895 658.44ZM878.595 658V626.74H883.875V658H878.595ZM905.992 645.54H891.072V642.24H905.992V645.54ZM905.992 652.58H891.072V649.28H905.992V652.58ZM916.909 628.5L916.429 637.9H913.489L913.029 628.5H916.909ZM923.809 628.5L923.329 637.9H920.409L919.929 628.5H923.809ZM942.497 658V649.38C942.497 648.593 942.497 647.907 942.497 647.32C942.497 646.72 942.497 646.22 942.497 645.82C942.497 645.3 942.464 644.76 942.397 644.2C942.33 643.627 942.184 643.1 941.957 642.62C941.73 642.14 941.377 641.753 940.897 641.46C940.43 641.153 939.784 641 938.957 641C938.157 641 937.477 641.167 936.917 641.5C936.37 641.82 935.917 642.253 935.557 642.8C935.21 643.333 934.957 643.947 934.797 644.64C934.637 645.32 934.557 646.02 934.557 646.74L932.797 645.56C932.797 643.813 933.124 642.253 933.777 640.88C934.43 639.507 935.357 638.42 936.557 637.62C937.77 636.807 939.204 636.4 940.857 636.4C942.564 636.4 943.917 636.76 944.917 637.48C945.917 638.187 946.63 639.147 947.057 640.36C947.497 641.573 947.717 642.933 947.717 644.44C947.717 645 947.717 645.747 947.717 646.68C947.717 647.6 947.717 648.687 947.717 649.94V658H942.497ZM929.297 658V636.76H934.557V658H929.297ZM955.617 658V649.4C955.617 648.56 955.617 647.847 955.617 647.26C955.617 646.673 955.617 646.18 955.617 645.78C955.617 645.22 955.584 644.66 955.517 644.1C955.45 643.527 955.304 643.013 955.077 642.56C954.85 642.093 954.497 641.72 954.017 641.44C953.537 641.147 952.884 641 952.057 641C951.244 641 950.557 641.16 949.997 641.48C949.45 641.8 949.01 642.227 948.677 642.76C948.344 643.293 948.097 643.893 947.937 644.56C947.79 645.227 947.717 645.893 947.717 646.56L945.957 645.4C945.957 643.707 946.277 642.18 946.917 640.82C947.557 639.46 948.477 638.387 949.677 637.6C950.877 636.8 952.304 636.4 953.957 636.4C955.624 636.4 956.964 636.74 957.977 637.42C958.99 638.1 959.724 639.033 960.177 640.22C960.644 641.393 960.877 642.733 960.877 644.24C960.877 644.827 960.877 645.573 960.877 646.48C960.877 647.387 960.877 648.46 960.877 649.7V658H955.617ZM975.978 658.42C973.738 658.42 971.764 657.953 970.058 657.02C968.351 656.073 967.011 654.767 966.038 653.1C965.078 651.433 964.598 649.527 964.598 647.38C964.598 645.22 965.078 643.32 966.038 641.68C967.011 640.027 968.351 638.733 970.058 637.8C971.764 636.867 973.738 636.4 975.978 636.4C978.218 636.4 980.191 636.867 981.898 637.8C983.604 638.733 984.938 640.027 985.898 641.68C986.871 643.32 987.358 645.22 987.358 647.38C987.358 649.527 986.871 651.433 985.898 653.1C984.938 654.767 983.604 656.073 981.898 657.02C980.191 657.953 978.218 658.42 975.978 658.42ZM975.978 654.12C977.191 654.12 978.251 653.84 979.158 653.28C980.064 652.72 980.771 651.94 981.278 650.94C981.784 649.927 982.038 648.74 982.038 647.38C982.038 646.02 981.784 644.847 981.278 643.86C980.771 642.86 980.064 642.087 979.158 641.54C978.251 640.993 977.191 640.72 975.978 640.72C974.778 640.72 973.718 640.993 972.798 641.54C971.891 642.087 971.184 642.86 970.678 643.86C970.171 644.847 969.918 646.02 969.918 647.38C969.918 648.74 970.171 649.927 970.678 650.94C971.184 651.94 971.891 652.72 972.798 653.28C973.718 653.84 974.778 654.12 975.978 654.12ZM1000.13 658.44C998.383 658.44 996.763 658.02 995.27 657.18C993.79 656.327 992.603 655.073 991.71 653.42C990.816 651.767 990.37 649.733 990.37 647.32C990.37 644.973 990.823 642.987 991.73 641.36C992.65 639.733 993.85 638.5 995.33 637.66C996.823 636.82 998.423 636.4 1000.13 636.4C1001.8 636.4 1003.34 636.813 1004.75 637.64C1006.16 638.453 1007.3 639.587 1008.15 641.04C1009 642.493 1009.43 644.16 1009.43 646.04C1009.43 646.093 1009.43 646.147 1009.43 646.2C1009.43 646.253 1009.43 646.307 1009.43 646.36L1006.83 646.42C1006.83 646.38 1006.83 646.34 1006.83 646.3C1006.83 646.247 1006.83 646.2 1006.83 646.16C1006.83 645.107 1006.56 644.187 1006.03 643.4C1005.51 642.613 1004.83 642 1003.99 641.56C1003.16 641.107 1002.28 640.88 1001.35 640.88C999.816 640.88 998.51 641.4 997.43 642.44C996.35 643.467 995.81 645.093 995.81 647.32C995.81 649.533 996.35 651.167 997.43 652.22C998.51 653.273 999.816 653.8 1001.35 653.8C1002.32 653.8 1003.22 653.567 1004.05 653.1C1004.88 652.633 1005.54 651.993 1006.05 651.18C1006.57 650.353 1006.83 649.407 1006.83 648.34L1009.43 648.46C1009.43 650.327 1009.01 652.02 1008.17 653.54C1007.34 655.047 1006.23 656.24 1004.83 657.12C1003.43 658 1001.86 658.44 1000.13 658.44ZM1006.83 658V626.74H1012.11V658H1006.83ZM1024.17 658.44C1022.58 658.44 1021.19 658.193 1019.99 657.7C1018.79 657.193 1017.85 656.467 1017.17 655.52C1016.49 654.573 1016.15 653.433 1016.15 652.1C1016.15 650.647 1016.54 649.453 1017.33 648.52C1018.13 647.573 1019.2 646.847 1020.55 646.34C1021.89 645.82 1023.39 645.487 1025.03 645.34C1027.45 645.1 1029.15 644.873 1030.11 644.66C1031.08 644.433 1031.57 644.073 1031.57 643.58C1031.57 643.567 1031.57 643.56 1031.57 643.56C1031.57 643.547 1031.57 643.54 1031.57 643.54C1031.57 642.607 1031.15 641.887 1030.31 641.38C1029.47 640.873 1028.28 640.62 1026.75 640.62C1025.13 640.62 1023.89 640.907 1023.03 641.48C1022.17 642.04 1021.75 642.933 1021.75 644.16H1016.55C1016.55 642.493 1016.99 641.087 1017.87 639.94C1018.76 638.78 1019.98 637.9 1021.53 637.3C1023.07 636.7 1024.83 636.4 1026.79 636.4C1028.61 636.4 1030.29 636.673 1031.81 637.22C1033.33 637.767 1034.55 638.593 1035.47 639.7C1036.39 640.807 1036.85 642.187 1036.85 643.84C1036.85 644.12 1036.85 644.4 1036.85 644.68C1036.85 644.96 1036.85 645.24 1036.85 645.52V653.52C1036.85 654.027 1036.86 654.527 1036.89 655.02C1036.93 655.5 1037 655.933 1037.11 656.32C1037.24 656.747 1037.4 657.107 1037.59 657.4C1037.77 657.693 1037.92 657.893 1038.03 658H1032.83C1032.73 657.907 1032.6 657.727 1032.43 657.46C1032.27 657.18 1032.12 656.86 1031.99 656.5C1031.85 656.1 1031.75 655.673 1031.69 655.22C1031.62 654.753 1031.59 654.24 1031.59 653.68L1032.63 654.4C1032.23 655.213 1031.61 655.927 1030.79 656.54C1029.97 657.14 1029 657.607 1027.87 657.94C1026.73 658.273 1025.5 658.44 1024.17 658.44ZM1025.45 654.3C1026.54 654.3 1027.55 654.113 1028.49 653.74C1029.42 653.367 1030.17 652.793 1030.75 652.02C1031.32 651.233 1031.61 650.227 1031.61 649V646.16L1032.89 647.6C1032.03 647.92 1031.01 648.187 1029.81 648.4C1028.61 648.6 1027.39 648.76 1026.17 648.88C1024.59 649.027 1023.41 649.3 1022.61 649.7C1021.82 650.1 1021.43 650.753 1021.43 651.66C1021.43 652.54 1021.76 653.2 1022.43 653.64C1023.09 654.08 1024.1 654.3 1025.45 654.3ZM1046.81 626.74V658H1041.63V626.74H1046.81ZM1050.75 648.3V645.04H1065.09V648.3H1050.75ZM1080.52 658.44C1078.28 658.44 1076.3 657.98 1074.58 657.06C1072.86 656.14 1071.52 654.847 1070.54 653.18C1069.57 651.513 1069.08 649.56 1069.08 647.32C1069.08 645.093 1069.57 643.16 1070.54 641.52C1071.52 639.88 1072.86 638.62 1074.58 637.74C1076.3 636.847 1078.28 636.4 1080.52 636.4C1082.2 636.4 1083.69 636.647 1084.98 637.14C1086.28 637.633 1087.36 638.293 1088.24 639.12C1089.14 639.933 1089.82 640.833 1090.28 641.82C1090.75 642.793 1090.98 643.767 1090.98 644.74C1090.98 644.767 1090.98 644.793 1090.98 644.82C1090.98 644.847 1090.98 644.873 1090.98 644.9H1085.76C1085.76 644.833 1085.76 644.76 1085.74 644.68C1085.73 644.6 1085.72 644.52 1085.7 644.44C1085.6 643.76 1085.32 643.147 1084.88 642.6C1084.44 642.04 1083.86 641.593 1083.12 641.26C1082.39 640.927 1081.5 640.76 1080.46 640.76C1079.36 640.76 1078.34 641.007 1077.42 641.5C1076.52 641.98 1075.79 642.707 1075.24 643.68C1074.71 644.653 1074.44 645.867 1074.44 647.32C1074.44 648.76 1074.71 649.987 1075.24 651C1075.78 652 1076.5 652.767 1077.4 653.3C1078.32 653.82 1079.34 654.08 1080.46 654.08C1081.65 654.08 1082.62 653.9 1083.36 653.54C1084.12 653.167 1084.7 652.673 1085.08 652.06C1085.47 651.433 1085.69 650.753 1085.74 650.02H1090.98C1090.98 651.007 1090.76 652 1090.3 653C1089.85 653.987 1089.18 654.893 1088.3 655.72C1087.42 656.547 1086.33 657.207 1085.02 657.7C1083.73 658.193 1082.23 658.44 1080.52 658.44ZM1105.37 658.42C1103.13 658.42 1101.16 657.953 1099.45 657.02C1097.75 656.073 1096.41 654.767 1095.43 653.1C1094.47 651.433 1093.99 649.527 1093.99 647.38C1093.99 645.22 1094.47 643.32 1095.43 641.68C1096.41 640.027 1097.75 638.733 1099.45 637.8C1101.16 636.867 1103.13 636.4 1105.37 636.4C1107.61 636.4 1109.59 636.867 1111.29 637.8C1113 638.733 1114.33 640.027 1115.29 641.68C1116.27 643.32 1116.75 645.22 1116.75 647.38C1116.75 649.527 1116.27 651.433 1115.29 653.1C1114.33 654.767 1113 656.073 1111.29 657.02C1109.59 657.953 1107.61 658.42 1105.37 658.42ZM1105.37 654.12C1106.59 654.12 1107.65 653.84 1108.55 653.28C1109.46 652.72 1110.17 651.94 1110.67 650.94C1111.18 649.927 1111.43 648.74 1111.43 647.38C1111.43 646.02 1111.18 644.847 1110.67 643.86C1110.17 642.86 1109.46 642.087 1108.55 641.54C1107.65 640.993 1106.59 640.72 1105.37 640.72C1104.17 640.72 1103.11 640.993 1102.19 641.54C1101.29 642.087 1100.58 642.86 1100.07 643.86C1099.57 644.847 1099.31 646.02 1099.31 647.38C1099.31 648.74 1099.57 649.927 1100.07 650.94C1100.58 651.94 1101.29 652.72 1102.19 653.28C1103.11 653.84 1104.17 654.12 1105.37 654.12ZM1135.73 658V648.58C1135.73 648.047 1135.73 647.58 1135.73 647.18C1135.73 646.767 1135.73 646.393 1135.73 646.06C1135.73 645.1 1135.59 644.24 1135.31 643.48C1135.04 642.707 1134.57 642.1 1133.91 641.66C1133.25 641.22 1132.35 641 1131.19 641C1130.17 641 1129.27 641.247 1128.49 641.74C1127.7 642.22 1127.08 642.887 1126.63 643.74C1126.19 644.58 1125.97 645.553 1125.97 646.66L1124.19 645.56C1124.19 643.787 1124.59 642.213 1125.39 640.84C1126.2 639.453 1127.29 638.367 1128.65 637.58C1130.01 636.793 1131.51 636.4 1133.17 636.4C1134.87 636.4 1136.31 636.733 1137.47 637.4C1138.64 638.067 1139.52 639.013 1140.11 640.24C1140.71 641.467 1141.01 642.907 1141.01 644.56C1141.01 645.2 1141.01 645.92 1141.01 646.72C1141.01 647.52 1141.01 648.307 1141.01 649.08V658H1135.73ZM1120.71 658V636.76H1125.97V658H1120.71ZM1154.91 658.4C1154.15 658.4 1153.38 658.327 1152.59 658.18C1151.8 658.033 1151.08 657.76 1150.43 657.36C1149.78 656.96 1149.25 656.373 1148.85 655.6C1148.45 654.827 1148.25 653.807 1148.25 652.54C1148.25 652.247 1148.25 651.953 1148.25 651.66C1148.25 651.353 1148.25 651.04 1148.25 650.72V640.96H1143.23V636.76H1145.27C1145.96 636.76 1146.51 636.733 1146.91 636.68C1147.31 636.613 1147.6 636.467 1147.79 636.24C1147.98 636.013 1148.1 635.66 1148.15 635.18C1148.22 634.687 1148.25 634.007 1148.25 633.14V629.76H1153.53V636.76H1159.85V640.96H1153.53V649.48C1153.53 649.733 1153.53 649.987 1153.53 650.24C1153.53 650.48 1153.53 650.713 1153.53 650.94C1153.53 651.927 1153.65 652.72 1153.89 653.32C1154.13 653.92 1154.7 654.22 1155.59 654.22C1156.02 654.22 1156.42 654.18 1156.79 654.1C1157.18 654.02 1157.46 653.94 1157.65 653.86V657.98C1157.4 658.073 1157.03 658.167 1156.55 658.26C1156.07 658.353 1155.52 658.4 1154.91 658.4ZM1164.8 649.08V645.34H1179.66L1179.06 646.34C1179.06 646.26 1179.06 646.173 1179.06 646.08C1179.06 645.973 1179.06 645.887 1179.06 645.82C1179.06 644.9 1178.85 644.04 1178.44 643.24C1178.02 642.427 1177.4 641.773 1176.56 641.28C1175.72 640.773 1174.65 640.52 1173.36 640.52C1172.08 640.52 1170.96 640.793 1170.02 641.34C1169.08 641.873 1168.36 642.647 1167.84 643.66C1167.33 644.673 1167.08 645.887 1167.08 647.3C1167.08 648.753 1167.32 650.007 1167.82 651.06C1168.31 652.1 1169.03 652.9 1169.98 653.46C1170.94 654.007 1172.1 654.28 1173.48 654.28C1174.41 654.28 1175.22 654.193 1175.9 654.02C1176.58 653.847 1177.13 653.613 1177.56 653.32C1178 653.013 1178.32 652.687 1178.54 652.34C1178.76 651.993 1178.9 651.647 1178.94 651.3H1184.18C1184.1 652.193 1183.8 653.067 1183.28 653.92C1182.77 654.76 1182.06 655.527 1181.14 656.22C1180.22 656.9 1179.1 657.447 1177.78 657.86C1176.47 658.26 1174.98 658.46 1173.3 658.46C1171.02 658.46 1169.02 657.993 1167.32 657.06C1165.61 656.127 1164.28 654.827 1163.32 653.16C1162.37 651.493 1161.9 649.587 1161.9 647.44C1161.9 645.24 1162.38 643.313 1163.34 641.66C1164.31 640.007 1165.66 638.72 1167.38 637.8C1169.1 636.867 1171.07 636.4 1173.3 636.4C1175.59 636.4 1177.57 636.867 1179.24 637.8C1180.92 638.733 1182.21 640.033 1183.12 641.7C1184.02 643.353 1184.48 645.28 1184.48 647.48C1184.48 647.76 1184.47 648.06 1184.46 648.38C1184.44 648.7 1184.42 648.933 1184.4 649.08H1164.8ZM1203.43 658V648.58C1203.43 648.047 1203.43 647.58 1203.43 647.18C1203.43 646.767 1203.43 646.393 1203.43 646.06C1203.43 645.1 1203.29 644.24 1203.01 643.48C1202.75 642.707 1202.28 642.1 1201.61 641.66C1200.96 641.22 1200.05 641 1198.89 641C1197.88 641 1196.98 641.247 1196.19 641.74C1195.41 642.22 1194.79 642.887 1194.33 643.74C1193.89 644.58 1193.67 645.553 1193.67 646.66L1191.89 645.56C1191.89 643.787 1192.29 642.213 1193.09 640.84C1193.91 639.453 1194.99 638.367 1196.35 637.58C1197.71 636.793 1199.22 636.4 1200.87 636.4C1202.58 636.4 1204.01 636.733 1205.17 637.4C1206.35 638.067 1207.23 639.013 1207.81 640.24C1208.41 641.467 1208.71 642.907 1208.71 644.56C1208.71 645.2 1208.71 645.92 1208.71 646.72C1208.71 647.52 1208.71 648.307 1208.71 649.08V658H1203.43ZM1188.41 658V636.76H1193.67V658H1188.41ZM1222.62 658.4C1221.86 658.4 1221.08 658.327 1220.3 658.18C1219.51 658.033 1218.79 657.76 1218.14 657.36C1217.48 656.96 1216.96 656.373 1216.56 655.6C1216.16 654.827 1215.96 653.807 1215.96 652.54C1215.96 652.247 1215.96 651.953 1215.96 651.66C1215.96 651.353 1215.96 651.04 1215.96 650.72V640.96H1210.94V636.76H1212.98C1213.67 636.76 1214.22 636.733 1214.62 636.68C1215.02 636.613 1215.31 636.467 1215.5 636.24C1215.68 636.013 1215.8 635.66 1215.86 635.18C1215.92 634.687 1215.96 634.007 1215.96 633.14V629.76H1221.24V636.76H1227.56V640.96H1221.24V649.48C1221.24 649.733 1221.24 649.987 1221.24 650.24C1221.24 650.48 1221.24 650.713 1221.24 650.94C1221.24 651.927 1221.36 652.72 1221.6 653.32C1221.84 653.92 1222.4 654.22 1223.3 654.22C1223.72 654.22 1224.12 654.18 1224.5 654.1C1224.88 654.02 1225.17 653.94 1225.36 653.86V657.98C1225.1 658.073 1224.74 658.167 1224.26 658.26C1223.78 658.353 1223.23 658.4 1222.62 658.4ZM1239.12 658.44C1237.86 658.44 1236.65 658.3 1235.5 658.02C1234.37 657.74 1233.36 657.32 1232.46 656.76C1231.58 656.2 1230.88 655.507 1230.36 654.68C1229.86 653.84 1229.6 652.873 1229.6 651.78C1229.6 651.7 1229.6 651.62 1229.6 651.54C1229.6 651.46 1229.6 651.387 1229.6 651.32H1234.84C1234.84 651.387 1234.84 651.447 1234.84 651.5C1234.84 651.54 1234.84 651.6 1234.84 651.68C1234.84 652.547 1235.24 653.2 1236.02 653.64C1236.82 654.067 1237.91 654.28 1239.28 654.28C1240.03 654.28 1240.73 654.2 1241.38 654.04C1242.05 653.88 1242.58 653.633 1242.98 653.3C1243.4 652.967 1243.6 652.54 1243.6 652.02C1243.6 651.18 1243.17 650.58 1242.3 650.22C1241.45 649.86 1240.1 649.533 1238.26 649.24C1237.25 649.067 1236.25 648.833 1235.26 648.54C1234.28 648.247 1233.38 647.853 1232.56 647.36C1231.76 646.867 1231.12 646.253 1230.62 645.52C1230.14 644.787 1229.9 643.893 1229.9 642.84C1229.9 641.44 1230.32 640.267 1231.14 639.32C1231.98 638.36 1233.1 637.633 1234.5 637.14C1235.92 636.647 1237.47 636.4 1239.16 636.4C1240.79 636.4 1242.3 636.667 1243.7 637.2C1245.1 637.733 1246.23 638.5 1247.08 639.5C1247.95 640.5 1248.38 641.707 1248.38 643.12C1248.38 643.173 1248.38 643.233 1248.38 643.3C1248.38 643.353 1248.38 643.4 1248.38 643.44H1243.18C1243.18 643.4 1243.18 643.36 1243.18 643.32C1243.18 643.28 1243.18 643.233 1243.18 643.18C1243.18 642.567 1242.99 642.067 1242.6 641.68C1242.22 641.293 1241.72 641.007 1241.1 640.82C1240.49 640.633 1239.84 640.54 1239.16 640.54C1238.56 640.54 1237.94 640.607 1237.3 640.74C1236.66 640.86 1236.13 641.08 1235.7 641.4C1235.28 641.707 1235.06 642.14 1235.06 642.7C1235.06 643.233 1235.28 643.667 1235.72 644C1236.16 644.333 1236.78 644.613 1237.56 644.84C1238.35 645.053 1239.26 645.247 1240.28 645.42C1241.26 645.58 1242.24 645.8 1243.22 646.08C1244.22 646.36 1245.14 646.733 1245.96 647.2C1246.79 647.667 1247.46 648.28 1247.96 649.04C1248.48 649.787 1248.74 650.713 1248.74 651.82C1248.74 652.993 1248.48 653.993 1247.94 654.82C1247.41 655.647 1246.68 656.333 1245.76 656.88C1244.86 657.413 1243.83 657.807 1242.68 658.06C1241.54 658.313 1240.35 658.44 1239.12 658.44ZM1255.05 628.5L1254.57 637.9H1251.63L1251.17 628.5H1255.05ZM1261.95 628.5L1261.47 637.9H1258.55L1258.07 628.5H1261.95ZM1270.8 637.62L1283.9 645.58V649.18L1270.8 657.12V652.68L1281.82 646.8V647.96L1270.8 642.04V637.62Z" fill="#3B0076"/>
<rect x="711" y="599" width="627" height="96" rx="48" stroke="#A75EFA" stroke-width="6"/>
<path d="M1172.96 430.576H1182.48V434H1168.42V430.752L1177.74 420.288L1177.82 420.432H1168.77V417.008H1182.3V420.256L1173.04 430.688L1172.96 430.576ZM1184.81 426.24V423.632H1196.28V426.24H1184.81ZM1200.47 434V417.008H1204.63V434H1200.47ZM1202.57 413.872C1201.88 413.872 1201.29 413.691 1200.77 413.328C1200.27 412.955 1200.02 412.437 1200.02 411.776C1200.02 411.125 1200.27 410.619 1200.77 410.256C1201.29 409.893 1201.88 409.712 1202.57 409.712C1203.24 409.712 1203.82 409.893 1204.33 410.256C1204.83 410.619 1205.08 411.125 1205.08 411.776C1205.08 412.437 1204.83 412.955 1204.33 413.328C1203.82 413.691 1203.24 413.872 1202.57 413.872ZM1220.82 434V426.464C1220.82 426.037 1220.82 425.664 1220.82 425.344C1220.82 425.013 1220.82 424.715 1220.82 424.448C1220.82 423.68 1220.7 422.992 1220.48 422.384C1220.27 421.765 1219.89 421.28 1219.36 420.928C1218.84 420.576 1218.11 420.4 1217.18 420.4C1216.37 420.4 1215.65 420.597 1215.02 420.992C1214.39 421.376 1213.9 421.909 1213.54 422.592C1213.18 423.264 1213.01 424.043 1213.01 424.928L1211.58 424.048C1211.58 422.629 1211.9 421.371 1212.54 420.272C1213.19 419.163 1214.06 418.293 1215.15 417.664C1216.24 417.035 1217.44 416.72 1218.77 416.72C1220.13 416.72 1221.28 416.987 1222.21 417.52C1223.15 418.053 1223.85 418.811 1224.32 419.792C1224.8 420.773 1225.04 421.925 1225.04 423.248C1225.04 423.76 1225.04 424.336 1225.04 424.976C1225.04 425.616 1225.04 426.245 1225.04 426.864V434H1220.82ZM1208.8 434V417.008H1213.01V434H1208.8ZM1236.14 434.352C1234.74 434.352 1233.44 434.016 1232.25 433.344C1231.06 432.661 1230.12 431.659 1229.4 430.336C1228.69 429.013 1228.33 427.387 1228.33 425.456C1228.33 423.579 1228.69 421.989 1229.42 420.688C1230.15 419.387 1231.11 418.4 1232.3 417.728C1233.49 417.056 1234.77 416.72 1236.14 416.72C1237.47 416.72 1238.7 417.051 1239.83 417.712C1240.96 418.363 1241.87 419.269 1242.55 420.432C1243.24 421.595 1243.58 422.928 1243.58 424.432C1243.58 424.475 1243.58 424.517 1243.58 424.56C1243.58 424.603 1243.58 424.645 1243.58 424.688L1241.5 424.736C1241.5 424.704 1241.5 424.672 1241.5 424.64C1241.5 424.597 1241.5 424.56 1241.5 424.528C1241.5 423.685 1241.28 422.949 1240.86 422.32C1240.44 421.691 1239.9 421.2 1239.22 420.848C1238.56 420.485 1237.86 420.304 1237.11 420.304C1235.89 420.304 1234.84 420.72 1233.98 421.552C1233.11 422.373 1232.68 423.675 1232.68 425.456C1232.68 427.227 1233.11 428.533 1233.98 429.376C1234.84 430.219 1235.89 430.64 1237.11 430.64C1237.89 430.64 1238.61 430.453 1239.27 430.08C1239.93 429.707 1240.47 429.195 1240.87 428.544C1241.29 427.883 1241.5 427.125 1241.5 426.272L1243.58 426.368C1243.58 427.861 1243.24 429.216 1242.57 430.432C1241.91 431.637 1241.02 432.592 1239.9 433.296C1238.78 434 1237.52 434.352 1236.14 434.352ZM1241.5 434V408.992H1245.72V434H1241.5ZM1251.43 426.864V423.872H1263.32L1262.84 424.672C1262.84 424.608 1262.84 424.539 1262.84 424.464C1262.84 424.379 1262.84 424.309 1262.84 424.256C1262.84 423.52 1262.67 422.832 1262.34 422.192C1262.01 421.541 1261.51 421.019 1260.84 420.624C1260.17 420.219 1259.31 420.016 1258.28 420.016C1257.25 420.016 1256.36 420.235 1255.61 420.672C1254.86 421.099 1254.28 421.717 1253.86 422.528C1253.46 423.339 1253.25 424.309 1253.25 425.44C1253.25 426.603 1253.45 427.605 1253.85 428.448C1254.24 429.28 1254.82 429.92 1255.57 430.368C1256.34 430.805 1257.28 431.024 1258.37 431.024C1259.12 431.024 1259.77 430.955 1260.31 430.816C1260.85 430.677 1261.3 430.491 1261.64 430.256C1261.99 430.011 1262.25 429.749 1262.42 429.472C1262.6 429.195 1262.71 428.917 1262.74 428.64H1266.93C1266.87 429.355 1266.63 430.053 1266.21 430.736C1265.81 431.408 1265.24 432.021 1264.5 432.576C1263.77 433.12 1262.87 433.557 1261.81 433.888C1260.77 434.208 1259.57 434.368 1258.23 434.368C1256.41 434.368 1254.81 433.995 1253.45 433.248C1252.08 432.501 1251.01 431.461 1250.25 430.128C1249.49 428.795 1249.11 427.269 1249.11 425.552C1249.11 423.792 1249.49 422.251 1250.26 420.928C1251.04 419.605 1252.12 418.576 1253.49 417.84C1254.87 417.093 1256.45 416.72 1258.23 416.72C1260.06 416.72 1261.65 417.093 1262.98 417.84C1264.33 418.587 1265.36 419.627 1266.09 420.96C1266.81 422.283 1267.17 423.824 1267.17 425.584C1267.17 425.808 1267.17 426.048 1267.16 426.304C1267.15 426.56 1267.13 426.747 1267.11 426.864H1251.43ZM1275.12 424.736L1275.09 426.656L1268.16 417.008H1272.77L1277.98 424.576L1275.45 424.56L1280.57 417.008H1285.09L1278.45 426.112L1278.33 424.352L1285.18 434H1280.57L1275.28 426.448L1278.13 426.192L1272.41 434H1267.9L1275.12 424.736ZM1290.26 434.448C1289.6 434.448 1289.04 434.219 1288.58 433.76C1288.12 433.301 1287.89 432.741 1287.89 432.08C1287.89 431.429 1288.12 430.875 1288.58 430.416C1289.04 429.947 1289.6 429.712 1290.26 429.712C1290.91 429.712 1291.47 429.947 1291.93 430.416C1292.39 430.875 1292.63 431.429 1292.63 432.08C1292.63 432.741 1292.39 433.301 1291.93 433.76C1291.47 434.219 1290.91 434.448 1290.26 434.448ZM1290.28 422.096C1289.62 422.096 1289.06 421.867 1288.6 421.408C1288.14 420.949 1287.91 420.389 1287.91 419.728C1287.91 419.077 1288.14 418.523 1288.6 418.064C1289.06 417.595 1289.62 417.36 1290.28 417.36C1290.93 417.36 1291.48 417.595 1291.94 418.064C1292.41 418.523 1292.65 419.077 1292.65 419.728C1292.65 420.389 1292.41 420.949 1291.94 421.408C1291.48 421.867 1290.93 422.096 1290.28 422.096ZM1313.29 410.352V434H1309.1V414.432C1309 414.539 1308.71 414.683 1308.25 414.864C1307.81 415.035 1307.26 415.2 1306.62 415.36C1305.99 415.509 1305.34 415.616 1304.65 415.68V412.256C1305.34 412.171 1305.99 412.021 1306.62 411.808C1307.26 411.595 1307.81 411.36 1308.27 411.104C1308.73 410.837 1309.04 410.587 1309.2 410.352H1313.29ZM1326.09 434.352C1324.66 434.352 1323.44 434.032 1322.43 433.392C1321.43 432.752 1320.61 431.872 1319.98 430.752C1319.36 429.632 1318.91 428.347 1318.62 426.896C1318.33 425.435 1318.19 423.888 1318.19 422.256C1318.19 420.624 1318.33 419.077 1318.62 417.616C1318.91 416.144 1319.36 414.843 1319.98 413.712C1320.61 412.581 1321.43 411.691 1322.43 411.04C1323.44 410.389 1324.66 410.064 1326.09 410.064C1327.52 410.064 1328.74 410.389 1329.74 411.04C1330.75 411.691 1331.57 412.581 1332.19 413.712C1332.81 414.843 1333.26 416.144 1333.55 417.616C1333.85 419.077 1334 420.624 1334 422.256C1334 423.888 1333.85 425.435 1333.55 426.896C1333.26 428.347 1332.81 429.632 1332.19 430.752C1331.57 431.872 1330.75 432.752 1329.74 433.392C1328.74 434.032 1327.52 434.352 1326.09 434.352ZM1326.09 430.992C1326.9 430.992 1327.58 430.688 1328.11 430.08C1328.64 429.461 1329.05 428.507 1329.32 427.216C1329.6 425.925 1329.74 424.272 1329.74 422.256C1329.74 420.229 1329.6 418.571 1329.32 417.28C1329.05 415.989 1328.64 415.04 1328.11 414.432C1327.58 413.813 1326.9 413.504 1326.09 413.504C1325.29 413.504 1324.62 413.813 1324.08 414.432C1323.53 415.04 1323.12 415.989 1322.84 417.28C1322.57 418.571 1322.43 420.229 1322.43 422.256C1322.43 424.283 1322.57 425.941 1322.84 427.232C1323.12 428.512 1323.53 429.461 1324.08 430.08C1324.62 430.688 1325.29 430.992 1326.09 430.992Z" fill="black"/>
</svg>
