<svg width="768" height="480" viewBox="0 0 768 480" fill="none" xmlns="http://www.w3.org/2000/svg">
<g filter="url(#filter0_d)">
<mask id="path-1-inside-1" fill="white">
<path fill-rule="evenodd" clip-rule="evenodd" d="M640 120H160V360H640V120ZM192 144C192 148.418 188.418 152 184 152C179.582 152 176 148.418 176 144C176 139.582 179.582 136 184 136C188.418 136 192 139.582 192 144ZM624 144C624 148.418 620.418 152 616 152C611.582 152 608 148.418 608 144C608 139.582 611.582 136 616 136C620.418 136 624 139.582 624 144Z"/>
</mask>
<path fill-rule="evenodd" clip-rule="evenodd" d="M640 120H160V360H640V120ZM192 144C192 148.418 188.418 152 184 152C179.582 152 176 148.418 176 144C176 139.582 179.582 136 184 136C188.418 136 192 139.582 192 144ZM624 144C624 148.418 620.418 152 616 152C611.582 152 608 148.418 608 144C608 139.582 611.582 136 616 136C620.418 136 624 139.582 624 144Z" fill="#99DBFF"/>
<path d="M160 120V118H158V120H160ZM640 120H642V118H640V120ZM160 360H158V362H160V360ZM640 360V362H642V360H640ZM160 122H640V118H160V122ZM162 360V120H158V360H162ZM640 358H160V362H640V358ZM638 120V360H642V120H638ZM184 154C189.523 154 194 149.523 194 144H190C190 147.314 187.314 150 184 150V154ZM174 144C174 149.523 178.477 154 184 154V150C180.686 150 178 147.314 178 144H174ZM184 134C178.477 134 174 138.477 174 144H178C178 140.686 180.686 138 184 138V134ZM194 144C194 138.477 189.523 134 184 134V138C187.314 138 190 140.686 190 144H194ZM616 154C621.523 154 626 149.523 626 144H622C622 147.314 619.314 150 616 150V154ZM606 144C606 149.523 610.477 154 616 154V150C612.686 150 610 147.314 610 144H606ZM616 134C610.477 134 606 138.477 606 144H610C610 140.686 612.686 138 616 138V134ZM626 144C626 138.477 621.523 134 616 134V138C619.314 138 622 140.686 622 144H626Z" fill="black" mask="url(#path-1-inside-1)"/>
<path d="M321.279 150.838L327.041 153.025V155.398L318.867 151.756V149.871L327.041 146.238V148.611L321.279 150.838ZM337.832 153.689H332.324L331.172 157H328.604L333.975 142.781H336.191L341.572 157H338.994L337.832 153.689ZM333.018 151.697H337.139L335.078 145.799L333.018 151.697ZM351.748 151.824C351.748 153.458 351.377 154.764 350.635 155.74C349.893 156.71 348.896 157.195 347.646 157.195C346.488 157.195 345.56 156.814 344.863 156.053V161.062H342.49V146.434H344.678L344.775 147.508C345.472 146.661 346.419 146.238 347.617 146.238C348.906 146.238 349.915 146.72 350.645 147.684C351.38 148.641 351.748 149.972 351.748 151.678V151.824ZM349.385 151.619C349.385 150.564 349.173 149.728 348.75 149.109C348.333 148.491 347.734 148.182 346.953 148.182C345.983 148.182 345.286 148.582 344.863 149.383V154.07C345.293 154.891 345.996 155.301 346.973 155.301C347.728 155.301 348.317 154.998 348.74 154.393C349.17 153.781 349.385 152.856 349.385 151.619ZM363.018 151.824C363.018 153.458 362.646 154.764 361.904 155.74C361.162 156.71 360.166 157.195 358.916 157.195C357.757 157.195 356.829 156.814 356.133 156.053V161.062H353.76V146.434H355.947L356.045 147.508C356.742 146.661 357.689 146.238 358.887 146.238C360.176 146.238 361.185 146.72 361.914 147.684C362.65 148.641 363.018 149.972 363.018 151.678V151.824ZM360.654 151.619C360.654 150.564 360.443 149.728 360.02 149.109C359.603 148.491 359.004 148.182 358.223 148.182C357.253 148.182 356.556 148.582 356.133 149.383V154.07C356.562 154.891 357.266 155.301 358.242 155.301C358.997 155.301 359.587 154.998 360.01 154.393C360.439 153.781 360.654 152.856 360.654 151.619ZM365.703 158.221H363.838L369.434 142.781H371.299L365.703 158.221ZM379.014 150.789L372.979 148.572V146.238L381.416 149.871V151.756L372.979 155.389V153.055L379.014 150.789Z" fill="black"/>
</g>
<g filter="url(#filter1_d)">
<path d="M77.7071 240.707L123.293 286.293C123.746 286.746 124 287.36 124 288C124 288.64 123.746 289.254 123.293 289.707L77.7071 335.293C77.2544 335.746 76.6403 336 76 336C75.3597 336 74.7456 335.746 74.2929 335.293L28.7071 289.707C28.2544 289.254 28 288.64 28 288C28 287.36 28.2544 286.746 28.7071 286.293L74.2929 240.707C74.7456 240.254 75.3597 240 76 240C76.6403 240 77.2544 240.254 77.7071 240.707Z" fill="white"/>
<path d="M77 241.414L122.586 287C122.851 287.265 123 287.625 123 288C123 288.375 122.851 288.735 122.586 289L77 334.586C76.7348 334.851 76.3751 335 76 335C75.6249 335 75.2652 334.851 75 334.586L29.4142 289C29.149 288.735 29 288.375 29 288C29 287.625 29.149 287.265 29.4142 287L75 241.414C75.2652 241.149 75.6249 241 76 241C76.3751 241 76.7348 241.149 77 241.414Z" stroke="black" stroke-width="2"/>
</g>
<path d="M69.8682 267.047V273.603C69.8682 274.692 69.5264 275.553 68.8428 276.187C68.1637 276.82 67.234 277.137 66.0537 277.137C64.8916 277.137 63.9687 276.829 63.2852 276.214C62.6016 275.599 62.2529 274.753 62.2393 273.678V267.047H64.29V273.616C64.29 274.268 64.445 274.744 64.7549 275.045C65.0693 275.341 65.5023 275.489 66.0537 275.489C67.2067 275.489 67.7923 274.883 67.8105 273.671V267.047H69.8682ZM75.4258 274.956C75.4258 274.715 75.305 274.525 75.0635 274.389C74.8265 274.247 74.4437 274.122 73.915 274.013C72.1559 273.644 71.2764 272.896 71.2764 271.771C71.2764 271.114 71.5475 270.567 72.0898 270.13C72.6367 269.688 73.3499 269.467 74.2295 269.467C75.1683 269.467 75.918 269.688 76.4785 270.13C77.0436 270.572 77.3262 271.146 77.3262 271.853H75.3506C75.3506 271.57 75.2594 271.338 75.0771 271.155C74.8949 270.968 74.61 270.875 74.2227 270.875C73.89 270.875 73.6325 270.95 73.4502 271.101C73.2679 271.251 73.1768 271.442 73.1768 271.675C73.1768 271.894 73.2793 272.071 73.4844 272.208C73.694 272.34 74.0449 272.456 74.5371 272.557C75.0293 272.652 75.444 272.762 75.7812 272.885C76.8249 273.268 77.3467 273.931 77.3467 274.874C77.3467 275.549 77.0573 276.095 76.4785 276.515C75.8997 276.929 75.1523 277.137 74.2363 277.137C73.6165 277.137 73.0651 277.027 72.582 276.809C72.1035 276.585 71.7275 276.282 71.4541 275.899C71.1807 275.512 71.0439 275.095 71.0439 274.648H72.917C72.9352 274.999 73.0651 275.268 73.3066 275.455C73.5482 275.642 73.8717 275.735 74.2773 275.735C74.6556 275.735 74.9404 275.665 75.1318 275.523C75.3278 275.378 75.4258 275.188 75.4258 274.956ZM82.0293 277.137C80.9447 277.137 80.0605 276.804 79.377 276.139C78.6979 275.473 78.3584 274.587 78.3584 273.479V273.288C78.3584 272.545 78.502 271.882 78.7891 271.299C79.0762 270.711 79.4818 270.26 80.0059 269.945C80.5345 269.626 81.1361 269.467 81.8105 269.467C82.8223 269.467 83.6175 269.786 84.1963 270.424C84.7796 271.062 85.0713 271.966 85.0713 273.138V273.944H80.3613C80.4251 274.427 80.6165 274.815 80.9355 275.106C81.2591 275.398 81.667 275.544 82.1592 275.544C82.9202 275.544 83.515 275.268 83.9434 274.717L84.9141 275.804C84.6178 276.223 84.2168 276.551 83.7109 276.788C83.2051 277.021 82.6445 277.137 82.0293 277.137ZM81.8037 271.066C81.4118 271.066 81.0928 271.199 80.8467 271.463C80.6051 271.727 80.4502 272.105 80.3818 272.598H83.1299V272.44C83.1208 272.003 83.0023 271.666 82.7744 271.429C82.5465 271.187 82.223 271.066 81.8037 271.066ZM90.3555 271.456C90.0866 271.42 89.8496 271.401 89.6445 271.401C88.8971 271.401 88.4072 271.654 88.1748 272.16V277H86.1992V269.604H88.0654L88.1201 270.485C88.5166 269.806 89.0658 269.467 89.7676 269.467C89.9863 269.467 90.1914 269.496 90.3828 269.556L90.3555 271.456ZM53.2021 291.544C53.5667 291.544 53.863 291.444 54.0908 291.243C54.3187 291.043 54.4372 290.776 54.4463 290.443H56.2988C56.2943 290.945 56.1576 291.405 55.8887 291.824C55.6198 292.239 55.2507 292.562 54.7812 292.795C54.3164 293.023 53.8014 293.137 53.2363 293.137C52.179 293.137 51.3451 292.802 50.7344 292.132C50.1237 291.457 49.8184 290.528 49.8184 289.343V289.213C49.8184 288.074 50.1214 287.164 50.7275 286.485C51.3337 285.806 52.1654 285.467 53.2227 285.467C54.1478 285.467 54.8883 285.731 55.4443 286.26C56.0049 286.784 56.2897 287.483 56.2988 288.358H54.4463C54.4372 287.976 54.3187 287.666 54.0908 287.429C53.863 287.187 53.5622 287.066 53.1885 287.066C52.7282 287.066 52.3796 287.235 52.1426 287.572C51.9102 287.905 51.7939 288.447 51.7939 289.199V289.404C51.7939 290.165 51.9102 290.712 52.1426 291.045C52.375 291.378 52.7282 291.544 53.2021 291.544ZM59.3545 286.41C59.8786 285.781 60.5371 285.467 61.3301 285.467C62.9342 285.467 63.7477 286.399 63.7705 288.263V293H61.7949V288.317C61.7949 287.894 61.7038 287.581 61.5215 287.381C61.3392 287.176 61.0361 287.073 60.6123 287.073C60.0335 287.073 59.6143 287.297 59.3545 287.743V293H57.3789V282.5H59.3545V286.41ZM69.5469 293C69.4557 292.822 69.3896 292.601 69.3486 292.337C68.8701 292.87 68.248 293.137 67.4824 293.137C66.7578 293.137 66.1562 292.927 65.6777 292.508C65.2038 292.089 64.9668 291.56 64.9668 290.922C64.9668 290.138 65.2562 289.536 65.835 289.117C66.4183 288.698 67.2591 288.486 68.3574 288.481H69.2666V288.058C69.2666 287.716 69.1777 287.442 69 287.237C68.8268 287.032 68.5511 286.93 68.1729 286.93C67.8402 286.93 67.5781 287.009 67.3867 287.169C67.1999 287.328 67.1064 287.547 67.1064 287.825H65.1309C65.1309 287.397 65.263 287 65.5273 286.636C65.7917 286.271 66.1654 285.986 66.6484 285.781C67.1315 285.572 67.6738 285.467 68.2754 285.467C69.1868 285.467 69.9092 285.697 70.4424 286.157C70.9801 286.613 71.249 287.256 71.249 288.085V291.291C71.2536 291.993 71.3516 292.524 71.543 292.884V293H69.5469ZM67.9131 291.626C68.2048 291.626 68.4736 291.562 68.7197 291.435C68.9658 291.302 69.1481 291.127 69.2666 290.908V289.637H68.5283C67.5394 289.637 67.013 289.979 66.9492 290.662L66.9424 290.778C66.9424 291.024 67.029 291.227 67.2021 291.387C67.3753 291.546 67.6123 291.626 67.9131 291.626ZM74.585 285.604L74.6465 286.458C75.1751 285.797 75.8838 285.467 76.7725 285.467C77.5563 285.467 78.1396 285.697 78.5225 286.157C78.9053 286.618 79.1012 287.306 79.1103 288.222V293H77.1348V288.27C77.1348 287.85 77.0436 287.547 76.8613 287.36C76.679 287.169 76.376 287.073 75.9521 287.073C75.3962 287.073 74.9792 287.31 74.7012 287.784V293H72.7256V285.604H74.585ZM80.3271 289.247C80.3271 288.112 80.596 287.199 81.1338 286.506C81.6761 285.813 82.4053 285.467 83.3213 285.467C84.1325 285.467 84.7637 285.745 85.2148 286.301L85.2969 285.604H87.0879V292.754C87.0879 293.401 86.9398 293.964 86.6436 294.442C86.3519 294.921 85.9395 295.285 85.4062 295.536C84.873 295.787 84.2487 295.912 83.5332 295.912C82.9909 295.912 82.4622 295.803 81.9473 295.584C81.4323 295.37 81.0426 295.092 80.7783 294.75L81.6533 293.547C82.1455 294.098 82.7425 294.374 83.4443 294.374C83.9684 294.374 84.3763 294.233 84.668 293.95C84.9596 293.672 85.1055 293.276 85.1055 292.761V292.364C84.6497 292.879 84.0505 293.137 83.3076 293.137C82.4189 293.137 81.6989 292.79 81.1475 292.098C80.6006 291.4 80.3271 290.478 80.3271 289.329V289.247ZM82.3027 289.391C82.3027 290.061 82.4372 290.587 82.7061 290.97C82.9749 291.348 83.3441 291.537 83.8135 291.537C84.415 291.537 84.8457 291.312 85.1055 290.86V287.75C84.8411 287.299 84.415 287.073 83.8271 287.073C83.3532 287.073 82.9795 287.267 82.7061 287.654C82.4372 288.042 82.3027 288.62 82.3027 289.391ZM92.0166 293.137C90.932 293.137 90.0478 292.804 89.3643 292.139C88.6852 291.473 88.3457 290.587 88.3457 289.479V289.288C88.3457 288.545 88.4893 287.882 88.7764 287.299C89.0635 286.711 89.4691 286.26 89.9932 285.945C90.5218 285.626 91.1234 285.467 91.7978 285.467C92.8096 285.467 93.6048 285.786 94.1836 286.424C94.7669 287.062 95.0586 287.966 95.0586 289.138V289.944H90.3486C90.4124 290.427 90.6038 290.815 90.9228 291.106C91.2464 291.398 91.6543 291.544 92.1465 291.544C92.9075 291.544 93.5023 291.268 93.9307 290.717L94.9014 291.804C94.6051 292.223 94.2041 292.551 93.6982 292.788C93.1924 293.021 92.6318 293.137 92.0166 293.137ZM91.791 287.066C91.3991 287.066 91.0801 287.199 90.834 287.463C90.5924 287.727 90.4375 288.105 90.3691 288.598H93.1172V288.44C93.1081 288.003 92.9896 287.666 92.7617 287.429C92.5339 287.187 92.2103 287.066 91.791 287.066ZM100.192 290.956C100.192 290.715 100.072 290.525 99.8301 290.389C99.5931 290.247 99.2103 290.122 98.6816 290.013C96.9225 289.644 96.043 288.896 96.043 287.771C96.043 287.114 96.3141 286.567 96.8564 286.13C97.4033 285.688 98.1165 285.467 98.9961 285.467C99.9349 285.467 100.685 285.688 101.245 286.13C101.81 286.572 102.093 287.146 102.093 287.853H100.117C100.117 287.57 100.026 287.338 99.8437 287.155C99.6615 286.968 99.3766 286.875 98.9893 286.875C98.6566 286.875 98.3991 286.95 98.2168 287.101C98.0345 287.251 97.9434 287.442 97.9434 287.675C97.9434 287.894 98.0459 288.071 98.251 288.208C98.4606 288.34 98.8115 288.456 99.3037 288.557C99.7959 288.652 100.211 288.762 100.548 288.885C101.591 289.268 102.113 289.931 102.113 290.874C102.113 291.549 101.824 292.095 101.245 292.515C100.666 292.929 99.9189 293.137 99.0029 293.137C98.3831 293.137 97.8317 293.027 97.3486 292.809C96.8701 292.585 96.4941 292.282 96.2207 291.899C95.9473 291.512 95.8105 291.095 95.8105 290.648H97.6836C97.7018 290.999 97.8317 291.268 98.0732 291.455C98.3148 291.642 98.6383 291.735 99.0439 291.735C99.4222 291.735 99.707 291.665 99.8984 291.523C100.094 291.378 100.192 291.188 100.192 290.956ZM62.2119 309V303.053H61.1113V301.604H62.2119V300.975C62.2119 300.145 62.4489 299.503 62.9229 299.047C63.4014 298.587 64.069 298.356 64.9258 298.356C65.1992 298.356 65.5342 298.402 65.9307 298.493L65.9102 300.024C65.7461 299.983 65.5456 299.963 65.3086 299.963C64.5658 299.963 64.1943 300.312 64.1943 301.009V301.604H65.6641V303.053H64.1943V309H62.2119ZM66.3818 305.233C66.3818 304.5 66.5231 303.846 66.8057 303.271C67.0882 302.697 67.4938 302.253 68.0225 301.938C68.5557 301.624 69.1732 301.467 69.875 301.467C70.873 301.467 71.6865 301.772 72.3154 302.383C72.9489 302.993 73.3021 303.823 73.375 304.871L73.3887 305.377C73.3887 306.512 73.0719 307.423 72.4385 308.111C71.805 308.795 70.9551 309.137 69.8887 309.137C68.8223 309.137 67.9701 308.795 67.332 308.111C66.6986 307.428 66.3818 306.498 66.3818 305.322V305.233ZM68.3574 305.377C68.3574 306.079 68.4896 306.617 68.7539 306.99C69.0182 307.359 69.3965 307.544 69.8887 307.544C70.3672 307.544 70.7409 307.362 71.0098 306.997C71.2786 306.628 71.4131 306.04 71.4131 305.233C71.4131 304.545 71.2786 304.012 71.0098 303.634C70.7409 303.256 70.3626 303.066 69.875 303.066C69.3919 303.066 69.0182 303.256 68.7539 303.634C68.4896 304.007 68.3574 304.589 68.3574 305.377ZM78.7617 303.456C78.4928 303.42 78.2559 303.401 78.0508 303.401C77.3034 303.401 76.8135 303.654 76.5811 304.16V309H74.6055V301.604H76.4717L76.5264 302.485C76.9228 301.806 77.472 301.467 78.1738 301.467C78.3926 301.467 78.5977 301.496 78.7891 301.556L78.7617 303.456ZM81.5713 301.604L81.6328 302.431C82.1569 301.788 82.8656 301.467 83.7588 301.467C84.7113 301.467 85.3652 301.843 85.7207 302.595C86.2402 301.843 86.9808 301.467 87.9424 301.467C88.7445 301.467 89.3415 301.701 89.7334 302.171C90.1253 302.636 90.3213 303.338 90.3213 304.276V309H88.3389V304.283C88.3389 303.864 88.2568 303.559 88.0928 303.367C87.9287 303.171 87.6393 303.073 87.2246 303.073C86.6322 303.073 86.222 303.356 85.9941 303.921L86.001 309H84.0254V304.29C84.0254 303.862 83.9411 303.552 83.7725 303.36C83.6038 303.169 83.3167 303.073 82.9111 303.073C82.3506 303.073 81.945 303.306 81.6943 303.771V309H79.7187V301.604H81.5713Z" fill="black"/>
<g filter="url(#filter2_d)">
<path d="M569.707 240.707L615.293 286.293C615.746 286.746 616 287.36 616 288C616 288.64 615.746 289.254 615.293 289.707L569.707 335.293C569.254 335.746 568.64 336 568 336C567.36 336 566.746 335.746 566.293 335.293L520.707 289.707C520.254 289.254 520 288.64 520 288C520 287.36 520.254 286.746 520.707 286.293L566.293 240.707C566.746 240.254 567.36 240 568 240C568.64 240 569.254 240.254 569.707 240.707Z" fill="#B4FF99"/>
<path d="M569 241.414L614.586 287C614.851 287.265 615 287.625 615 288C615 288.375 614.851 288.735 614.586 289L569 334.586C568.735 334.851 568.375 335 568 335C567.625 335 567.265 334.851 567 334.586L521.414 289C521.149 288.735 521 288.375 521 288C521 287.625 521.149 287.265 521.414 287L567 241.414C567.265 241.149 567.625 241 568 241C568.375 241 568.735 241.149 569 241.414Z" stroke="black" stroke-width="2"/>
</g>
<path d="M544.348 289.233C544.348 288.5 544.489 287.846 544.771 287.271C545.054 286.697 545.46 286.253 545.988 285.938C546.521 285.624 547.139 285.467 547.841 285.467C548.839 285.467 549.652 285.772 550.281 286.383C550.915 286.993 551.268 287.823 551.341 288.871L551.354 289.377C551.354 290.512 551.038 291.423 550.404 292.111C549.771 292.795 548.921 293.137 547.854 293.137C546.788 293.137 545.936 292.795 545.298 292.111C544.664 291.428 544.348 290.498 544.348 289.322V289.233ZM546.323 289.377C546.323 290.079 546.455 290.617 546.72 290.99C546.984 291.359 547.362 291.544 547.854 291.544C548.333 291.544 548.707 291.362 548.976 290.997C549.244 290.628 549.379 290.04 549.379 289.233C549.379 288.545 549.244 288.012 548.976 287.634C548.707 287.256 548.328 287.066 547.841 287.066C547.358 287.066 546.984 287.256 546.72 287.634C546.455 288.007 546.323 288.589 546.323 289.377ZM554.39 285.604L554.451 286.458C554.98 285.797 555.688 285.467 556.577 285.467C557.361 285.467 557.944 285.697 558.327 286.157C558.71 286.618 558.906 287.306 558.915 288.222V293H556.939V288.27C556.939 287.85 556.848 287.547 556.666 287.36C556.484 287.169 556.181 287.073 555.757 287.073C555.201 287.073 554.784 287.31 554.506 287.784V293H552.53V285.604H554.39ZM560.549 293V283.047H563.611C564.486 283.047 565.268 283.245 565.956 283.642C566.649 284.034 567.189 284.594 567.576 285.323C567.964 286.048 568.157 286.873 568.157 287.798V288.256C568.157 289.181 567.966 290.004 567.583 290.724C567.205 291.444 566.669 292.002 565.977 292.398C565.284 292.795 564.502 292.995 563.632 293H560.549ZM562.6 284.708V291.353H563.591C564.393 291.353 565.006 291.09 565.43 290.566C565.854 290.042 566.07 289.293 566.079 288.317V287.791C566.079 286.779 565.869 286.014 565.45 285.494C565.031 284.97 564.418 284.708 563.611 284.708H562.6ZM569.217 289.233C569.217 288.5 569.358 287.846 569.641 287.271C569.923 286.697 570.329 286.253 570.857 285.938C571.391 285.624 572.008 285.467 572.71 285.467C573.708 285.467 574.521 285.772 575.15 286.383C575.784 286.993 576.137 287.823 576.21 288.871L576.224 289.377C576.224 290.512 575.907 291.423 575.273 292.111C574.64 292.795 573.79 293.137 572.724 293.137C571.657 293.137 570.805 292.795 570.167 292.111C569.534 291.428 569.217 290.498 569.217 289.322V289.233ZM571.192 289.377C571.192 290.079 571.325 290.617 571.589 290.99C571.853 291.359 572.231 291.544 572.724 291.544C573.202 291.544 573.576 291.362 573.845 290.997C574.114 290.628 574.248 290.04 574.248 289.233C574.248 288.545 574.114 288.012 573.845 287.634C573.576 287.256 573.198 287.066 572.71 287.066C572.227 287.066 571.853 287.256 571.589 287.634C571.325 288.007 571.192 288.589 571.192 289.377ZM579.259 285.604L579.32 286.458C579.849 285.797 580.558 285.467 581.446 285.467C582.23 285.467 582.813 285.697 583.196 286.157C583.579 286.618 583.775 287.306 583.784 288.222V293H581.809V288.27C581.809 287.85 581.717 287.547 581.535 287.36C581.353 287.169 581.05 287.073 580.626 287.073C580.07 287.073 579.653 287.31 579.375 287.784V293H577.399V285.604H579.259ZM588.692 293.137C587.608 293.137 586.724 292.804 586.04 292.139C585.361 291.473 585.021 290.587 585.021 289.479V289.288C585.021 288.545 585.165 287.882 585.452 287.299C585.739 286.711 586.145 286.26 586.669 285.945C587.198 285.626 587.799 285.467 588.474 285.467C589.485 285.467 590.281 285.786 590.859 286.424C591.443 287.062 591.734 287.966 591.734 289.138V289.944H587.024C587.088 290.427 587.28 290.815 587.599 291.106C587.922 291.398 588.33 291.544 588.822 291.544C589.583 291.544 590.178 291.268 590.606 290.717L591.577 291.804C591.281 292.223 590.88 292.551 590.374 292.788C589.868 293.021 589.308 293.137 588.692 293.137ZM588.467 287.066C588.075 287.066 587.756 287.199 587.51 287.463C587.268 287.727 587.113 288.105 587.045 288.598H589.793V288.44C589.784 288.003 589.665 287.666 589.437 287.429C589.21 287.187 588.886 287.066 588.467 287.066Z" fill="black"/>
<path d="M76 240V152C76 147.582 79.5817 144 84 144H224M224 144L216 136M224 144L216 152" stroke="black" stroke-width="2" stroke-linecap="square"/>
<path d="M448 256V148C448 145.791 449.791 144 452 144H676C680.418 144 684 147.582 684 152V288H616M448 256L440 248M448 256L456 248" stroke="black" stroke-width="2" stroke-linecap="square"/>
<g filter="url(#filter3_d)">
<mask id="path-12-inside-2" fill="white">
<path d="M184 264H496V312H184V264Z"/>
</mask>
<path d="M184 264H496V312H184V264Z" fill="#FFC2C2"/>
<path d="M184 264V262H182V264H184ZM496 264H498V262H496V264ZM496 312V314H498V312H496ZM184 312H182V314H184V312ZM184 266H496V262H184V266ZM494 264V312H498V264H494ZM496 310H184V314H496V310ZM186 312V264H182V312H186Z" fill="black" mask="url(#path-12-inside-2)"/>
<path d="M294.404 288.775L298.301 290.149V292.063L292.415 289.568V287.955L298.301 285.46V287.374L294.404 288.775ZM305.219 290.389C305.219 290.001 305.082 289.705 304.809 289.5C304.535 289.29 304.043 289.072 303.332 288.844C302.621 288.611 302.058 288.383 301.644 288.16C300.513 287.549 299.948 286.727 299.948 285.692C299.948 285.155 300.099 284.676 300.399 284.257C300.705 283.833 301.14 283.503 301.705 283.266C302.275 283.029 302.913 282.91 303.619 282.91C304.33 282.91 304.964 283.04 305.52 283.3C306.076 283.555 306.506 283.917 306.812 284.387C307.121 284.856 307.276 285.389 307.276 285.986H305.226C305.226 285.531 305.082 285.177 304.795 284.927C304.508 284.672 304.104 284.544 303.585 284.544C303.084 284.544 302.694 284.651 302.416 284.865C302.138 285.075 301.999 285.353 301.999 285.699C301.999 286.023 302.161 286.294 302.484 286.513C302.812 286.731 303.293 286.937 303.927 287.128C305.093 287.479 305.943 287.914 306.477 288.434C307.01 288.953 307.276 289.6 307.276 290.375C307.276 291.236 306.951 291.913 306.299 292.405C305.647 292.893 304.77 293.137 303.667 293.137C302.901 293.137 302.204 292.998 301.575 292.72C300.946 292.437 300.465 292.052 300.133 291.564C299.805 291.077 299.641 290.512 299.641 289.869H301.698C301.698 290.967 302.354 291.517 303.667 291.517C304.155 291.517 304.535 291.419 304.809 291.223C305.082 291.022 305.219 290.744 305.219 290.389ZM310.626 293H308.644V285.604H310.626V293ZM308.527 283.689C308.527 283.393 308.625 283.149 308.821 282.958C309.022 282.767 309.293 282.671 309.635 282.671C309.972 282.671 310.241 282.767 310.441 282.958C310.642 283.149 310.742 283.393 310.742 283.689C310.742 283.99 310.64 284.236 310.435 284.428C310.234 284.619 309.967 284.715 309.635 284.715C309.302 284.715 309.033 284.619 308.828 284.428C308.628 284.236 308.527 283.99 308.527 283.689ZM314.112 285.604L314.174 286.431C314.698 285.788 315.407 285.467 316.3 285.467C317.252 285.467 317.906 285.843 318.262 286.595C318.781 285.843 319.522 285.467 320.483 285.467C321.285 285.467 321.882 285.701 322.274 286.171C322.666 286.636 322.862 287.338 322.862 288.276V293H320.88V288.283C320.88 287.864 320.798 287.559 320.634 287.367C320.47 287.171 320.18 287.073 319.766 287.073C319.173 287.073 318.763 287.356 318.535 287.921L318.542 293H316.566V288.29C316.566 287.862 316.482 287.552 316.313 287.36C316.145 287.169 315.858 287.073 315.452 287.073C314.892 287.073 314.486 287.306 314.235 287.771V293H312.26V285.604H314.112ZM331.045 289.37C331.045 290.509 330.785 291.423 330.266 292.111C329.751 292.795 329.053 293.137 328.174 293.137C327.426 293.137 326.823 292.877 326.362 292.357V295.844H324.387V285.604H326.219L326.287 286.328C326.766 285.754 327.39 285.467 328.16 285.467C329.072 285.467 329.78 285.804 330.286 286.479C330.792 287.153 331.045 288.083 331.045 289.268V289.37ZM329.069 289.227C329.069 288.538 328.946 288.007 328.7 287.634C328.459 287.26 328.105 287.073 327.641 287.073C327.021 287.073 326.595 287.31 326.362 287.784V290.812C326.604 291.3 327.035 291.544 327.654 291.544C328.598 291.544 329.069 290.771 329.069 289.227ZM334.36 293H332.378V282.5H334.36V293ZM339.398 293.137C338.314 293.137 337.43 292.804 336.746 292.139C336.067 291.473 335.728 290.587 335.728 289.479V289.288C335.728 288.545 335.871 287.882 336.158 287.299C336.445 286.711 336.851 286.26 337.375 285.945C337.904 285.626 338.505 285.467 339.18 285.467C340.191 285.467 340.987 285.786 341.565 286.424C342.149 287.062 342.44 287.966 342.44 289.138V289.944H337.73C337.794 290.427 337.986 290.815 338.305 291.106C338.628 291.398 339.036 291.544 339.528 291.544C340.289 291.544 340.884 291.268 341.312 290.717L342.283 291.804C341.987 292.223 341.586 292.551 341.08 292.788C340.574 293.021 340.014 293.137 339.398 293.137ZM339.173 287.066C338.781 287.066 338.462 287.199 338.216 287.463C337.974 287.727 337.819 288.105 337.751 288.598H340.499V288.44C340.49 288.003 340.371 287.666 340.144 287.429C339.916 287.187 339.592 287.066 339.173 287.066ZM349.687 288.933H345.749V293H343.698V283.047H350.179V284.708H345.749V287.278H349.687V288.933ZM350.78 289.233C350.78 288.5 350.922 287.846 351.204 287.271C351.487 286.697 351.892 286.253 352.421 285.938C352.954 285.624 353.572 285.467 354.273 285.467C355.271 285.467 356.085 285.772 356.714 286.383C357.347 286.993 357.701 287.823 357.773 288.871L357.787 289.377C357.787 290.512 357.47 291.423 356.837 292.111C356.203 292.795 355.354 293.137 354.287 293.137C353.221 293.137 352.368 292.795 351.73 292.111C351.097 291.428 350.78 290.498 350.78 289.322V289.233ZM352.756 289.377C352.756 290.079 352.888 290.617 353.152 290.99C353.417 291.359 353.795 291.544 354.287 291.544C354.766 291.544 355.139 291.362 355.408 290.997C355.677 290.628 355.812 290.04 355.812 289.233C355.812 288.545 355.677 288.012 355.408 287.634C355.139 287.256 354.761 287.066 354.273 287.066C353.79 287.066 353.417 287.256 353.152 287.634C352.888 288.007 352.756 288.589 352.756 289.377ZM363.16 287.456C362.891 287.42 362.654 287.401 362.449 287.401C361.702 287.401 361.212 287.654 360.979 288.16V293H359.004V285.604H360.87L360.925 286.485C361.321 285.806 361.87 285.467 362.572 285.467C362.791 285.467 362.996 285.496 363.188 285.556L363.16 287.456ZM365.97 285.604L366.031 286.431C366.555 285.788 367.264 285.467 368.157 285.467C369.11 285.467 369.764 285.843 370.119 286.595C370.639 285.843 371.379 285.467 372.341 285.467C373.143 285.467 373.74 285.701 374.132 286.171C374.524 286.636 374.72 287.338 374.72 288.276V293H372.737V288.283C372.737 287.864 372.655 287.559 372.491 287.367C372.327 287.171 372.038 287.073 371.623 287.073C371.031 287.073 370.62 287.356 370.393 287.921L370.399 293H368.424V288.29C368.424 287.862 368.34 287.552 368.171 287.36C368.002 287.169 367.715 287.073 367.31 287.073C366.749 287.073 366.343 287.306 366.093 287.771V293H364.117V285.604H365.97ZM376.866 293.854H375.396L379.061 283.047H380.53L376.866 293.854ZM385.514 288.755L381.542 287.367V285.467L387.496 287.962V289.568L381.542 292.07V290.163L385.514 288.755Z" fill="black"/>
</g>
<path d="M520 288H496" stroke="black" stroke-width="2" stroke-linecap="square"/>
<path d="M124 288H184" stroke="black" stroke-width="2" stroke-linecap="square"/>
<path d="M184 134H162V154H184C184 154 174 154 174 144C174 134 184 134 184 134Z" fill="#99DBFF"/>
<path d="M616 154H638V134H616C616 134 626 134 626 144C626 154 616 154 616 154Z" fill="#99DBFF"/>
<g filter="url(#filter4_d)">
<mask id="path-19-inside-3" fill="white">
<path d="M624 208C624 216.837 631.163 224 640 224H744C752.837 224 760 216.837 760 208C760 199.163 752.837 192 744 192H640C631.163 192 624 199.163 624 208Z"/>
</mask>
<path d="M624 208C624 216.837 631.163 224 640 224H744C752.837 224 760 216.837 760 208C760 199.163 752.837 192 744 192H640C631.163 192 624 199.163 624 208Z" fill="white"/>
<path d="M640 222H744V226H640V222ZM744 194H640V190H744V194ZM640 194C632.268 194 626 200.268 626 208H622C622 198.059 630.059 190 640 190V194ZM758 208C758 200.268 751.732 194 744 194V190C753.941 190 762 198.059 762 208H758ZM744 222C751.732 222 758 215.732 758 208H762C762 217.941 753.941 226 744 226V222ZM640 226C630.059 226 622 217.941 622 208H626C626 215.732 632.268 222 640 222V226Z" fill="black" mask="url(#path-19-inside-3)"/>
<path d="M643.369 208.249C643.369 209.229 643.196 210.088 642.85 210.826C642.503 211.564 642.007 212.134 641.359 212.535C640.717 212.936 639.979 213.137 639.145 213.137C638.32 213.137 637.584 212.938 636.937 212.542C636.289 212.146 635.788 211.58 635.433 210.847C635.077 210.108 634.897 209.261 634.893 208.304V207.812C634.893 206.832 635.068 205.97 635.419 205.228C635.774 204.48 636.273 203.908 636.916 203.512C637.563 203.111 638.301 202.91 639.131 202.91C639.96 202.91 640.696 203.111 641.339 203.512C641.986 203.908 642.485 204.48 642.836 205.228C643.191 205.97 643.369 206.829 643.369 207.805V208.249ZM641.291 207.798C641.291 206.754 641.104 205.961 640.73 205.419C640.357 204.877 639.824 204.605 639.131 204.605C638.443 204.605 637.912 204.874 637.538 205.412C637.164 205.945 636.975 206.729 636.971 207.764V208.249C636.971 209.265 637.158 210.054 637.531 210.614C637.905 211.175 638.443 211.455 639.145 211.455C639.833 211.455 640.361 211.186 640.73 210.648C641.1 210.106 641.286 209.318 641.291 208.283V207.798ZM646.548 205.604L646.609 206.458C647.138 205.797 647.847 205.467 648.735 205.467C649.519 205.467 650.103 205.697 650.485 206.157C650.868 206.618 651.064 207.306 651.073 208.222V213H649.098V208.27C649.098 207.85 649.007 207.547 648.824 207.36C648.642 207.169 648.339 207.073 647.915 207.073C647.359 207.073 646.942 207.31 646.664 207.784V213H644.688V205.604H646.548ZM652.707 213V203.047H655.77C656.645 203.047 657.426 203.245 658.114 203.642C658.807 204.034 659.347 204.594 659.734 205.323C660.122 206.048 660.315 206.873 660.315 207.798V208.256C660.315 209.181 660.124 210.004 659.741 210.724C659.363 211.444 658.827 212.002 658.135 212.398C657.442 212.795 656.66 212.995 655.79 213H652.707ZM654.758 204.708V211.353H655.749C656.551 211.353 657.164 211.09 657.588 210.566C658.012 210.042 658.228 209.293 658.237 208.317V207.791C658.237 206.779 658.028 206.014 657.608 205.494C657.189 204.97 656.576 204.708 655.77 204.708H654.758ZM661.375 209.233C661.375 208.5 661.516 207.846 661.799 207.271C662.081 206.697 662.487 206.253 663.016 205.938C663.549 205.624 664.166 205.467 664.868 205.467C665.866 205.467 666.68 205.772 667.309 206.383C667.942 206.993 668.295 207.823 668.368 208.871L668.382 209.377C668.382 210.512 668.065 211.423 667.432 212.111C666.798 212.795 665.948 213.137 664.882 213.137C663.815 213.137 662.963 212.795 662.325 212.111C661.692 211.428 661.375 210.498 661.375 209.322V209.233ZM663.351 209.377C663.351 210.079 663.483 210.617 663.747 210.99C664.011 211.359 664.39 211.544 664.882 211.544C665.36 211.544 665.734 211.362 666.003 210.997C666.272 210.628 666.406 210.04 666.406 209.233C666.406 208.545 666.272 208.012 666.003 207.634C665.734 207.256 665.356 207.066 664.868 207.066C664.385 207.066 664.011 207.256 663.747 207.634C663.483 208.007 663.351 208.589 663.351 209.377ZM671.417 205.604L671.479 206.458C672.007 205.797 672.716 205.467 673.604 205.467C674.388 205.467 674.972 205.697 675.354 206.157C675.737 206.618 675.933 207.306 675.942 208.222V213H673.967V208.27C673.967 207.85 673.876 207.547 673.693 207.36C673.511 207.169 673.208 207.073 672.784 207.073C672.228 207.073 671.811 207.31 671.533 207.784V213H669.558V205.604H671.417ZM680.851 213.137C679.766 213.137 678.882 212.804 678.198 212.139C677.519 211.473 677.18 210.587 677.18 209.479V209.288C677.18 208.545 677.323 207.882 677.61 207.299C677.897 206.711 678.303 206.26 678.827 205.945C679.356 205.626 679.957 205.467 680.632 205.467C681.644 205.467 682.439 205.786 683.018 206.424C683.601 207.062 683.893 207.966 683.893 209.138V209.944H679.183C679.246 210.427 679.438 210.815 679.757 211.106C680.08 211.398 680.488 211.544 680.98 211.544C681.742 211.544 682.336 211.268 682.765 210.717L683.735 211.804C683.439 212.223 683.038 212.551 682.532 212.788C682.026 213.021 681.466 213.137 680.851 213.137ZM680.625 207.066C680.233 207.066 679.914 207.199 679.668 207.463C679.426 207.727 679.271 208.105 679.203 208.598H681.951V208.44C681.942 208.003 681.824 207.666 681.596 207.429C681.368 207.187 681.044 207.066 680.625 207.066ZM692.513 210.956C692.513 210.715 692.392 210.525 692.15 210.389C691.913 210.247 691.531 210.122 691.002 210.013C689.243 209.644 688.363 208.896 688.363 207.771C688.363 207.114 688.634 206.567 689.177 206.13C689.724 205.688 690.437 205.467 691.316 205.467C692.255 205.467 693.005 205.688 693.565 206.13C694.131 206.572 694.413 207.146 694.413 207.853H692.438C692.438 207.57 692.346 207.338 692.164 207.155C691.982 206.968 691.697 206.875 691.31 206.875C690.977 206.875 690.719 206.95 690.537 207.101C690.355 207.251 690.264 207.442 690.264 207.675C690.264 207.894 690.366 208.071 690.571 208.208C690.781 208.34 691.132 208.456 691.624 208.557C692.116 208.652 692.531 208.762 692.868 208.885C693.912 209.268 694.434 209.931 694.434 210.874C694.434 211.549 694.144 212.095 693.565 212.515C692.987 212.929 692.239 213.137 691.323 213.137C690.703 213.137 690.152 213.027 689.669 212.809C689.19 212.585 688.814 212.282 688.541 211.899C688.268 211.512 688.131 211.095 688.131 210.648H690.004C690.022 210.999 690.152 211.268 690.394 211.455C690.635 211.642 690.959 211.735 691.364 211.735C691.743 211.735 692.027 211.665 692.219 211.523C692.415 211.378 692.513 211.188 692.513 210.956ZM699.116 213.137C698.032 213.137 697.147 212.804 696.464 212.139C695.785 211.473 695.445 210.587 695.445 209.479V209.288C695.445 208.545 695.589 207.882 695.876 207.299C696.163 206.711 696.569 206.26 697.093 205.945C697.621 205.626 698.223 205.467 698.897 205.467C699.909 205.467 700.704 205.786 701.283 206.424C701.867 207.062 702.158 207.966 702.158 209.138V209.944H697.448C697.512 210.427 697.703 210.815 698.022 211.106C698.346 211.398 698.754 211.544 699.246 211.544C700.007 211.544 700.602 211.268 701.03 210.717L702.001 211.804C701.705 212.223 701.304 212.551 700.798 212.788C700.292 213.021 699.731 213.137 699.116 213.137ZM698.891 207.066C698.499 207.066 698.18 207.199 697.934 207.463C697.692 207.727 697.537 208.105 697.469 208.598H700.217V208.44C700.208 208.003 700.089 207.666 699.861 207.429C699.633 207.187 699.31 207.066 698.891 207.066ZM705.651 203.785V205.604H706.916V207.053H705.651V210.744C705.651 211.018 705.704 211.214 705.809 211.332C705.913 211.451 706.114 211.51 706.41 211.51C706.629 211.51 706.823 211.494 706.991 211.462V212.959C706.604 213.077 706.205 213.137 705.795 213.137C704.41 213.137 703.703 212.437 703.676 211.038V207.053H702.596V205.604H703.676V203.785H705.651ZM712.022 210.956C712.022 210.715 711.902 210.525 711.66 210.389C711.423 210.247 711.04 210.122 710.512 210.013C708.753 209.644 707.873 208.896 707.873 207.771C707.873 207.114 708.144 206.567 708.687 206.13C709.233 205.688 709.947 205.467 710.826 205.467C711.765 205.467 712.515 205.688 713.075 206.13C713.64 206.572 713.923 207.146 713.923 207.853H711.947C711.947 207.57 711.856 207.338 711.674 207.155C711.492 206.968 711.207 206.875 710.819 206.875C710.487 206.875 710.229 206.95 710.047 207.101C709.865 207.251 709.773 207.442 709.773 207.675C709.773 207.894 709.876 208.071 710.081 208.208C710.291 208.34 710.642 208.456 711.134 208.557C711.626 208.652 712.041 208.762 712.378 208.885C713.422 209.268 713.943 209.931 713.943 210.874C713.943 211.549 713.654 212.095 713.075 212.515C712.496 212.929 711.749 213.137 710.833 213.137C710.213 213.137 709.662 213.027 709.179 212.809C708.7 212.585 708.324 212.282 708.051 211.899C707.777 211.512 707.641 211.095 707.641 210.648H709.514C709.532 210.999 709.662 211.268 709.903 211.455C710.145 211.642 710.468 211.735 710.874 211.735C711.252 211.735 711.537 211.665 711.729 211.523C711.924 211.378 712.022 211.188 712.022 210.956ZM722.714 210.956C722.714 210.715 722.593 210.525 722.352 210.389C722.115 210.247 721.732 210.122 721.203 210.013C719.444 209.644 718.564 208.896 718.564 207.771C718.564 207.114 718.836 206.567 719.378 206.13C719.925 205.688 720.638 205.467 721.518 205.467C722.456 205.467 723.206 205.688 723.767 206.13C724.332 206.572 724.614 207.146 724.614 207.853H722.639C722.639 207.57 722.548 207.338 722.365 207.155C722.183 206.968 721.898 206.875 721.511 206.875C721.178 206.875 720.921 206.95 720.738 207.101C720.556 207.251 720.465 207.442 720.465 207.675C720.465 207.894 720.567 208.071 720.772 208.208C720.982 208.34 721.333 208.456 721.825 208.557C722.317 208.652 722.732 208.762 723.069 208.885C724.113 209.268 724.635 209.931 724.635 210.874C724.635 211.549 724.345 212.095 723.767 212.515C723.188 212.929 722.44 213.137 721.524 213.137C720.905 213.137 720.353 213.027 719.87 212.809C719.392 212.585 719.016 212.282 718.742 211.899C718.469 211.512 718.332 211.095 718.332 210.648H720.205C720.223 210.999 720.353 211.268 720.595 211.455C720.836 211.642 721.16 211.735 721.565 211.735C721.944 211.735 722.229 211.665 722.42 211.523C722.616 211.378 722.714 211.188 722.714 210.956ZM728.278 203.785V205.604H729.543V207.053H728.278V210.744C728.278 211.018 728.331 211.214 728.436 211.332C728.54 211.451 728.741 211.51 729.037 211.51C729.256 211.51 729.45 211.494 729.618 211.462V212.959C729.231 213.077 728.832 213.137 728.422 213.137C727.036 213.137 726.33 212.437 726.303 211.038V207.053H725.223V205.604H726.303V203.785H728.278ZM734.93 213C734.839 212.822 734.772 212.601 734.731 212.337C734.253 212.87 733.631 213.137 732.865 213.137C732.141 213.137 731.539 212.927 731.061 212.508C730.587 212.089 730.35 211.56 730.35 210.922C730.35 210.138 730.639 209.536 731.218 209.117C731.801 208.698 732.642 208.486 733.74 208.481H734.649V208.058C734.649 207.716 734.561 207.442 734.383 207.237C734.21 207.032 733.934 206.93 733.556 206.93C733.223 206.93 732.961 207.009 732.77 207.169C732.583 207.328 732.489 207.547 732.489 207.825H730.514C730.514 207.397 730.646 207 730.91 206.636C731.174 206.271 731.548 205.986 732.031 205.781C732.514 205.572 733.057 205.467 733.658 205.467C734.57 205.467 735.292 205.697 735.825 206.157C736.363 206.613 736.632 207.256 736.632 208.085V211.291C736.636 211.993 736.734 212.524 736.926 212.884V213H734.93ZM733.296 211.626C733.588 211.626 733.856 211.562 734.103 211.435C734.349 211.302 734.531 211.127 734.649 210.908V209.637H733.911C732.922 209.637 732.396 209.979 732.332 210.662L732.325 210.778C732.325 211.024 732.412 211.227 732.585 211.387C732.758 211.546 732.995 211.626 733.296 211.626ZM740.515 203.785V205.604H741.779V207.053H740.515V210.744C740.515 211.018 740.567 211.214 740.672 211.332C740.777 211.451 740.977 211.51 741.273 211.51C741.492 211.51 741.686 211.494 741.854 211.462V212.959C741.467 213.077 741.068 213.137 740.658 213.137C739.273 213.137 738.566 212.437 738.539 211.038V207.053H737.459V205.604H738.539V203.785H740.515ZM746.284 213.137C745.2 213.137 744.315 212.804 743.632 212.139C742.953 211.473 742.613 210.587 742.613 209.479V209.288C742.613 208.545 742.757 207.882 743.044 207.299C743.331 206.711 743.737 206.26 744.261 205.945C744.789 205.626 745.391 205.467 746.065 205.467C747.077 205.467 747.872 205.786 748.451 206.424C749.035 207.062 749.326 207.966 749.326 209.138V209.944H744.616C744.68 210.427 744.871 210.815 745.19 211.106C745.514 211.398 745.922 211.544 746.414 211.544C747.175 211.544 747.77 211.268 748.198 210.717L749.169 211.804C748.873 212.223 748.472 212.551 747.966 212.788C747.46 213.021 746.899 213.137 746.284 213.137ZM746.059 207.066C745.667 207.066 745.348 207.199 745.102 207.463C744.86 207.727 744.705 208.105 744.637 208.598H747.385V208.44C747.376 208.003 747.257 207.666 747.029 207.429C746.801 207.187 746.478 207.066 746.059 207.066Z" fill="black"/>
</g>
<g filter="url(#filter5_d)">
<mask id="path-22-inside-4" fill="white">
<path d="M8 144C8 152.837 15.1634 160 24 160H128C136.837 160 144 152.837 144 144C144 135.163 136.837 128 128 128H24C15.1634 128 8 135.163 8 144Z"/>
</mask>
<path d="M8 144C8 152.837 15.1634 160 24 160H128C136.837 160 144 152.837 144 144C144 135.163 136.837 128 128 128H24C15.1634 128 8 135.163 8 144Z" fill="white"/>
<path d="M24 158H128V162H24V158ZM128 130H24V126H128V130ZM24 130C16.268 130 10 136.268 10 144H6C6 134.059 14.0589 126 24 126V130ZM142 144C142 136.268 135.732 130 128 130V126C137.941 126 146 134.059 146 144H142ZM128 158C135.732 158 142 151.732 142 144H146C146 153.941 137.941 162 128 162V158ZM24 162C14.0589 162 6 153.941 6 144H10C10 151.732 16.268 158 24 158V162Z" fill="black" mask="url(#path-22-inside-4)"/>
<path d="M18.1963 149V139.047H21.2588C22.1338 139.047 22.9154 139.245 23.6035 139.642C24.2962 140.034 24.8363 140.594 25.2236 141.323C25.611 142.048 25.8047 142.873 25.8047 143.798V144.256C25.8047 145.181 25.6133 146.004 25.2305 146.724C24.8522 147.444 24.3167 148.002 23.624 148.398C22.9313 148.795 22.1497 148.995 21.2793 149H18.1963ZM20.2471 140.708V147.353H21.2383C22.0404 147.353 22.6533 147.09 23.0771 146.566C23.501 146.042 23.7174 145.293 23.7266 144.317V143.791C23.7266 142.779 23.5169 142.014 23.0977 141.494C22.6784 140.97 22.0654 140.708 21.2588 140.708H20.2471ZM31.458 149C31.3669 148.822 31.3008 148.601 31.2598 148.337C30.7812 148.87 30.1592 149.137 29.3936 149.137C28.6689 149.137 28.0674 148.927 27.5889 148.508C27.1149 148.089 26.8779 147.56 26.8779 146.922C26.8779 146.138 27.1673 145.536 27.7461 145.117C28.3294 144.698 29.1702 144.486 30.2686 144.481H31.1777V144.058C31.1777 143.716 31.0889 143.442 30.9111 143.237C30.738 143.032 30.4622 142.93 30.084 142.93C29.7513 142.93 29.4893 143.009 29.2979 143.169C29.111 143.328 29.0176 143.547 29.0176 143.825H27.042C27.042 143.397 27.1742 143 27.4385 142.636C27.7028 142.271 28.0765 141.986 28.5596 141.781C29.0426 141.572 29.585 141.467 30.1865 141.467C31.098 141.467 31.8203 141.697 32.3535 142.157C32.8913 142.613 33.1602 143.256 33.1602 144.085V147.291C33.1647 147.993 33.2627 148.524 33.4541 148.884V149H31.458ZM29.8242 147.626C30.1159 147.626 30.3848 147.562 30.6309 147.435C30.877 147.302 31.0592 147.127 31.1777 146.908V145.637H30.4395C29.4505 145.637 28.9242 145.979 28.8604 146.662L28.8535 146.778C28.8535 147.024 28.9401 147.227 29.1133 147.387C29.2865 147.546 29.5234 147.626 29.8242 147.626ZM37.043 139.785V141.604H38.3076V143.053H37.043V146.744C37.043 147.018 37.0954 147.214 37.2002 147.332C37.305 147.451 37.5055 147.51 37.8018 147.51C38.0205 147.51 38.2142 147.494 38.3828 147.462V148.959C37.9954 149.077 37.5967 149.137 37.1865 149.137C35.8011 149.137 35.0947 148.437 35.0674 147.038V143.053H33.9873V141.604H35.0674V139.785H37.043ZM43.6943 149C43.6032 148.822 43.5371 148.601 43.4961 148.337C43.0176 148.87 42.3955 149.137 41.6299 149.137C40.9053 149.137 40.3037 148.927 39.8252 148.508C39.3512 148.089 39.1143 147.56 39.1143 146.922C39.1143 146.138 39.4036 145.536 39.9824 145.117C40.5658 144.698 41.4066 144.486 42.5049 144.481H43.4141V144.058C43.4141 143.716 43.3252 143.442 43.1475 143.237C42.9743 143.032 42.6986 142.93 42.3203 142.93C41.9876 142.93 41.7256 143.009 41.5342 143.169C41.3473 143.328 41.2539 143.547 41.2539 143.825H39.2783C39.2783 143.397 39.4105 143 39.6748 142.636C39.9391 142.271 40.3128 141.986 40.7959 141.781C41.279 141.572 41.8213 141.467 42.4229 141.467C43.3343 141.467 44.0566 141.697 44.5898 142.157C45.1276 142.613 45.3965 143.256 45.3965 144.085V147.291C45.401 147.993 45.499 148.524 45.6904 148.884V149H43.6943ZM42.0605 147.626C42.3522 147.626 42.6211 147.562 42.8672 147.435C43.1133 147.302 43.2956 147.127 43.4141 146.908V145.637H42.6758C41.6868 145.637 41.1605 145.979 41.0967 146.662L41.0898 146.778C41.0898 147.024 41.1764 147.227 41.3496 147.387C41.5228 147.546 41.7598 147.626 42.0605 147.626ZM52.4854 149H50.5029V141.604H52.4854V149ZM50.3867 139.689C50.3867 139.393 50.4847 139.149 50.6807 138.958C50.8812 138.767 51.1523 138.671 51.4941 138.671C51.8314 138.671 52.1003 138.767 52.3008 138.958C52.5013 139.149 52.6016 139.393 52.6016 139.689C52.6016 139.99 52.499 140.236 52.2939 140.428C52.0934 140.619 51.8268 140.715 51.4941 140.715C51.1615 140.715 50.8926 140.619 50.6875 140.428C50.487 140.236 50.3867 139.99 50.3867 139.689ZM58.125 146.956C58.125 146.715 58.0042 146.525 57.7627 146.389C57.5257 146.247 57.1429 146.122 56.6143 146.013C54.8551 145.644 53.9756 144.896 53.9756 143.771C53.9756 143.114 54.2467 142.567 54.7891 142.13C55.3359 141.688 56.0492 141.467 56.9287 141.467C57.8675 141.467 58.6172 141.688 59.1777 142.13C59.7428 142.572 60.0254 143.146 60.0254 143.853H58.0498C58.0498 143.57 57.9587 143.338 57.7764 143.155C57.5941 142.968 57.3092 142.875 56.9219 142.875C56.5892 142.875 56.3317 142.95 56.1494 143.101C55.9671 143.251 55.876 143.442 55.876 143.675C55.876 143.894 55.9785 144.071 56.1836 144.208C56.3932 144.34 56.7441 144.456 57.2363 144.557C57.7285 144.652 58.1432 144.762 58.4805 144.885C59.5241 145.268 60.0459 145.931 60.0459 146.874C60.0459 147.549 59.7565 148.095 59.1777 148.515C58.599 148.929 57.8516 149.137 56.9355 149.137C56.3158 149.137 55.7643 149.027 55.2812 148.809C54.8027 148.585 54.4268 148.282 54.1533 147.899C53.8799 147.512 53.7432 147.095 53.7432 146.648H55.6162C55.6344 146.999 55.7643 147.268 56.0059 147.455C56.2474 147.642 56.571 147.735 56.9766 147.735C57.3548 147.735 57.6396 147.665 57.8311 147.523C58.027 147.378 58.125 147.188 58.125 146.956ZM68.8164 146.956C68.8164 146.715 68.6956 146.525 68.4541 146.389C68.2171 146.247 67.8343 146.122 67.3057 146.013C65.5465 145.644 64.667 144.896 64.667 143.771C64.667 143.114 64.9382 142.567 65.4805 142.13C66.0273 141.688 66.7406 141.467 67.6201 141.467C68.5589 141.467 69.3086 141.688 69.8691 142.13C70.4342 142.572 70.7168 143.146 70.7168 143.853H68.7412C68.7412 143.57 68.6501 143.338 68.4678 143.155C68.2855 142.968 68.0007 142.875 67.6133 142.875C67.2806 142.875 67.0231 142.95 66.8408 143.101C66.6585 143.251 66.5674 143.442 66.5674 143.675C66.5674 143.894 66.6699 144.071 66.875 144.208C67.0846 144.34 67.4355 144.456 67.9277 144.557C68.4199 144.652 68.8346 144.762 69.1719 144.885C70.2155 145.268 70.7373 145.931 70.7373 146.874C70.7373 147.549 70.4479 148.095 69.8691 148.515C69.2904 148.929 68.543 149.137 67.627 149.137C67.0072 149.137 66.4557 149.027 65.9727 148.809C65.4941 148.585 65.1182 148.282 64.8447 147.899C64.5713 147.512 64.4346 147.095 64.4346 146.648H66.3076C66.3258 146.999 66.4557 147.268 66.6973 147.455C66.9388 147.642 67.2624 147.735 67.668 147.735C68.0462 147.735 68.3311 147.665 68.5225 147.523C68.7184 147.378 68.8164 147.188 68.8164 146.956ZM75.4199 149.137C74.3353 149.137 73.4512 148.804 72.7676 148.139C72.0885 147.473 71.749 146.587 71.749 145.479V145.288C71.749 144.545 71.8926 143.882 72.1797 143.299C72.4668 142.711 72.8724 142.26 73.3965 141.945C73.9251 141.626 74.5267 141.467 75.2012 141.467C76.2129 141.467 77.0081 141.786 77.5869 142.424C78.1702 143.062 78.4619 143.966 78.4619 145.138V145.944H73.752C73.8158 146.427 74.0072 146.815 74.3262 147.106C74.6497 147.398 75.0576 147.544 75.5498 147.544C76.3109 147.544 76.9056 147.268 77.334 146.717L78.3047 147.804C78.0085 148.223 77.6074 148.551 77.1016 148.788C76.5957 149.021 76.0352 149.137 75.4199 149.137ZM75.1943 143.066C74.8024 143.066 74.4834 143.199 74.2373 143.463C73.9958 143.727 73.8408 144.105 73.7725 144.598H76.5205V144.44C76.5114 144.003 76.3929 143.666 76.165 143.429C75.9372 143.187 75.6136 143.066 75.1943 143.066ZM81.4082 141.604L81.4697 142.458C81.9984 141.797 82.707 141.467 83.5957 141.467C84.3796 141.467 84.9629 141.697 85.3457 142.157C85.7285 142.618 85.9245 143.306 85.9336 144.222V149H83.958V144.27C83.958 143.85 83.8669 143.547 83.6846 143.36C83.5023 143.169 83.1992 143.073 82.7754 143.073C82.2194 143.073 81.8024 143.31 81.5244 143.784V149H79.5488V141.604H81.4082ZM89.8027 139.785V141.604H91.0674V143.053H89.8027V146.744C89.8027 147.018 89.8551 147.214 89.96 147.332C90.0648 147.451 90.2653 147.51 90.5615 147.51C90.7803 147.51 90.974 147.494 91.1426 147.462V148.959C90.7552 149.077 90.3564 149.137 89.9463 149.137C88.5609 149.137 87.8545 148.437 87.8271 147.038V143.053H86.7471V141.604H87.8271V139.785H89.8027ZM98.0195 139.785V141.604H99.2842V143.053H98.0195V146.744C98.0195 147.018 98.0719 147.214 98.1768 147.332C98.2816 147.451 98.4821 147.51 98.7783 147.51C98.9971 147.51 99.1908 147.494 99.3594 147.462V148.959C98.972 149.077 98.5732 149.137 98.1631 149.137C96.7777 149.137 96.0713 148.437 96.0439 147.038V143.053H94.9639V141.604H96.0439V139.785H98.0195ZM99.8721 145.233C99.8721 144.5 100.013 143.846 100.296 143.271C100.578 142.697 100.984 142.253 101.513 141.938C102.046 141.624 102.663 141.467 103.365 141.467C104.363 141.467 105.177 141.772 105.806 142.383C106.439 142.993 106.792 143.823 106.865 144.871L106.879 145.377C106.879 146.512 106.562 147.423 105.929 148.111C105.295 148.795 104.445 149.137 103.379 149.137C102.312 149.137 101.46 148.795 100.822 148.111C100.189 147.428 99.8721 146.498 99.8721 145.322V145.233ZM101.848 145.377C101.848 146.079 101.98 146.617 102.244 146.99C102.508 147.359 102.887 147.544 103.379 147.544C103.857 147.544 104.231 147.362 104.5 146.997C104.769 146.628 104.903 146.04 104.903 145.233C104.903 144.545 104.769 144.012 104.5 143.634C104.231 143.256 103.853 143.066 103.365 143.066C102.882 143.066 102.508 143.256 102.244 143.634C101.98 144.007 101.848 144.589 101.848 145.377ZM117.331 146.949H113.735L113.052 149H110.871L114.576 139.047H116.477L120.202 149H118.021L117.331 146.949ZM114.289 145.288H116.777L115.526 141.562L114.289 145.288ZM127.332 145.37C127.332 146.509 127.072 147.423 126.553 148.111C126.038 148.795 125.34 149.137 124.461 149.137C123.714 149.137 123.11 148.877 122.649 148.357V151.844H120.674V141.604H122.506L122.574 142.328C123.053 141.754 123.677 141.467 124.447 141.467C125.359 141.467 126.067 141.804 126.573 142.479C127.079 143.153 127.332 144.083 127.332 145.268V145.37ZM125.356 145.227C125.356 144.538 125.233 144.007 124.987 143.634C124.746 143.26 124.393 143.073 123.928 143.073C123.308 143.073 122.882 143.31 122.649 143.784V146.812C122.891 147.3 123.322 147.544 123.941 147.544C124.885 147.544 125.356 146.771 125.356 145.227ZM135.221 145.37C135.221 146.509 134.961 147.423 134.441 148.111C133.926 148.795 133.229 149.137 132.35 149.137C131.602 149.137 130.998 148.877 130.538 148.357V151.844H128.562V141.604H130.395L130.463 142.328C130.941 141.754 131.566 141.467 132.336 141.467C133.247 141.467 133.956 141.804 134.462 142.479C134.968 143.153 135.221 144.083 135.221 145.268V145.37ZM133.245 145.227C133.245 144.538 133.122 144.007 132.876 143.634C132.634 143.26 132.281 143.073 131.816 143.073C131.197 143.073 130.771 143.31 130.538 143.784V146.812C130.78 147.3 131.21 147.544 131.83 147.544C132.773 147.544 133.245 146.771 133.245 145.227Z" fill="black"/>
</g>
<g filter="url(#filter6_d)">
<mask id="path-25-inside-5" fill="white">
<path d="M352 208C352 216.837 359.163 224 368 224H528C536.837 224 544 216.837 544 208C544 199.163 536.837 192 528 192H368C359.163 192 352 199.163 352 208Z"/>
</mask>
<path d="M352 208C352 216.837 359.163 224 368 224H528C536.837 224 544 216.837 544 208C544 199.163 536.837 192 528 192H368C359.163 192 352 199.163 352 208Z" fill="white"/>
<path d="M368 222H528V226H368V222ZM528 194H368V190H528V194ZM368 194C360.268 194 354 200.268 354 208H350C350 198.059 358.059 190 368 190V194ZM542 208C542 200.268 535.732 194 528 194V190C537.941 190 546 198.059 546 208H542ZM528 222C535.732 222 542 215.732 542 208H546C546 217.941 537.941 226 528 226V222ZM368 226C358.059 226 350 217.941 350 208H354C354 215.732 360.268 222 368 222V226Z" fill="black" mask="url(#path-25-inside-5)"/>
<path d="M370.214 213H368.163L364.171 206.451V213H362.12V203.047H364.171L368.17 209.609V203.047H370.214V213ZM375.279 213.137C374.195 213.137 373.311 212.804 372.627 212.139C371.948 211.473 371.608 210.587 371.608 209.479V209.288C371.608 208.545 371.752 207.882 372.039 207.299C372.326 206.711 372.732 206.26 373.256 205.945C373.785 205.626 374.386 205.467 375.061 205.467C376.072 205.467 376.868 205.786 377.446 206.424C378.03 207.062 378.321 207.966 378.321 209.138V209.944H373.611C373.675 210.427 373.867 210.815 374.186 211.106C374.509 211.398 374.917 211.544 375.409 211.544C376.17 211.544 376.765 211.268 377.193 210.717L378.164 211.804C377.868 212.223 377.467 212.551 376.961 212.788C376.455 213.021 375.895 213.137 375.279 213.137ZM375.054 207.066C374.662 207.066 374.343 207.199 374.097 207.463C373.855 207.727 373.7 208.105 373.632 208.598H376.38V208.44C376.371 208.003 376.252 207.666 376.024 207.429C375.797 207.187 375.473 207.066 375.054 207.066ZM385.882 210.313L386.853 205.604H388.76L386.873 213H385.219L383.817 208.345L382.416 213H380.769L378.882 205.604H380.789L381.753 210.307L383.106 205.604H384.535L385.882 210.313ZM397.236 210.956C397.236 210.715 397.116 210.525 396.874 210.389C396.637 210.247 396.254 210.122 395.726 210.013C393.966 209.644 393.087 208.896 393.087 207.771C393.087 207.114 393.358 206.567 393.9 206.13C394.447 205.688 395.16 205.467 396.04 205.467C396.979 205.467 397.729 205.688 398.289 206.13C398.854 206.572 399.137 207.146 399.137 207.853H397.161C397.161 207.57 397.07 207.338 396.888 207.155C396.705 206.968 396.421 206.875 396.033 206.875C395.701 206.875 395.443 206.95 395.261 207.101C395.078 207.251 394.987 207.442 394.987 207.675C394.987 207.894 395.09 208.071 395.295 208.208C395.505 208.34 395.855 208.456 396.348 208.557C396.84 208.652 397.255 208.762 397.592 208.885C398.635 209.268 399.157 209.931 399.157 210.874C399.157 211.549 398.868 212.095 398.289 212.515C397.71 212.929 396.963 213.137 396.047 213.137C395.427 213.137 394.876 213.027 394.393 212.809C393.914 212.585 393.538 212.282 393.265 211.899C392.991 211.512 392.854 211.095 392.854 210.648H394.728C394.746 210.999 394.876 211.268 395.117 211.455C395.359 211.642 395.682 211.735 396.088 211.735C396.466 211.735 396.751 211.665 396.942 211.523C397.138 211.378 397.236 211.188 397.236 210.956ZM402.801 203.785V205.604H404.065V207.053H402.801V210.744C402.801 211.018 402.853 211.214 402.958 211.332C403.063 211.451 403.263 211.51 403.56 211.51C403.778 211.51 403.972 211.494 404.141 211.462V212.959C403.753 213.077 403.354 213.137 402.944 213.137C401.559 213.137 400.853 212.437 400.825 211.038V207.053H399.745V205.604H400.825V203.785H402.801ZM409.452 213C409.361 212.822 409.295 212.601 409.254 212.337C408.775 212.87 408.153 213.137 407.388 213.137C406.663 213.137 406.062 212.927 405.583 212.508C405.109 212.089 404.872 211.56 404.872 210.922C404.872 210.138 405.161 209.536 405.74 209.117C406.324 208.698 407.164 208.486 408.263 208.481H409.172V208.058C409.172 207.716 409.083 207.442 408.905 207.237C408.732 207.032 408.456 206.93 408.078 206.93C407.745 206.93 407.483 207.009 407.292 207.169C407.105 207.328 407.012 207.547 407.012 207.825H405.036C405.036 207.397 405.168 207 405.433 206.636C405.697 206.271 406.071 205.986 406.554 205.781C407.037 205.572 407.579 205.467 408.181 205.467C409.092 205.467 409.814 205.697 410.348 206.157C410.885 206.613 411.154 207.256 411.154 208.085V211.291C411.159 211.993 411.257 212.524 411.448 212.884V213H409.452ZM407.818 211.626C408.11 211.626 408.379 211.562 408.625 211.435C408.871 211.302 409.053 211.127 409.172 210.908V209.637H408.434C407.445 209.637 406.918 209.979 406.854 210.662L406.848 210.778C406.848 211.024 406.934 211.227 407.107 211.387C407.281 211.546 407.518 211.626 407.818 211.626ZM415.037 203.785V205.604H416.302V207.053H415.037V210.744C415.037 211.018 415.09 211.214 415.194 211.332C415.299 211.451 415.5 211.51 415.796 211.51C416.015 211.51 416.208 211.494 416.377 211.462V212.959C415.99 213.077 415.591 213.137 415.181 213.137C413.795 213.137 413.089 212.437 413.062 211.038V207.053H411.981V205.604H413.062V203.785H415.037ZM420.807 213.137C419.722 213.137 418.838 212.804 418.154 212.139C417.475 211.473 417.136 210.587 417.136 209.479V209.288C417.136 208.545 417.279 207.882 417.566 207.299C417.854 206.711 418.259 206.26 418.783 205.945C419.312 205.626 419.913 205.467 420.588 205.467C421.6 205.467 422.395 205.786 422.974 206.424C423.557 207.062 423.849 207.966 423.849 209.138V209.944H419.139C419.202 210.427 419.394 210.815 419.713 211.106C420.036 211.398 420.444 211.544 420.937 211.544C421.698 211.544 422.292 211.268 422.721 210.717L423.691 211.804C423.395 212.223 422.994 212.551 422.488 212.788C421.982 213.021 421.422 213.137 420.807 213.137ZM420.581 207.066C420.189 207.066 419.87 207.199 419.624 207.463C419.382 207.727 419.228 208.105 419.159 208.598H421.907V208.44C421.898 208.003 421.78 207.666 421.552 207.429C421.324 207.187 421 207.066 420.581 207.066ZM431.539 211.544C431.904 211.544 432.2 211.444 432.428 211.243C432.656 211.043 432.774 210.776 432.783 210.443H434.636C434.631 210.945 434.494 211.405 434.226 211.824C433.957 212.239 433.588 212.562 433.118 212.795C432.653 213.023 432.138 213.137 431.573 213.137C430.516 213.137 429.682 212.802 429.071 212.132C428.461 211.457 428.155 210.528 428.155 209.343V209.213C428.155 208.074 428.458 207.164 429.064 206.485C429.671 205.806 430.502 205.467 431.56 205.467C432.485 205.467 433.225 205.731 433.781 206.26C434.342 206.784 434.627 207.483 434.636 208.358H432.783C432.774 207.976 432.656 207.666 432.428 207.429C432.2 207.187 431.899 207.066 431.525 207.066C431.065 207.066 430.716 207.235 430.479 207.572C430.247 207.905 430.131 208.447 430.131 209.199V209.404C430.131 210.165 430.247 210.712 430.479 211.045C430.712 211.378 431.065 211.544 431.539 211.544ZM440.05 213C439.959 212.822 439.893 212.601 439.852 212.337C439.373 212.87 438.751 213.137 437.985 213.137C437.261 213.137 436.659 212.927 436.181 212.508C435.707 212.089 435.47 211.56 435.47 210.922C435.47 210.138 435.759 209.536 436.338 209.117C436.921 208.698 437.762 208.486 438.86 208.481H439.77V208.058C439.77 207.716 439.681 207.442 439.503 207.237C439.33 207.032 439.054 206.93 438.676 206.93C438.343 206.93 438.081 207.009 437.89 207.169C437.703 207.328 437.609 207.547 437.609 207.825H435.634C435.634 207.397 435.766 207 436.03 206.636C436.295 206.271 436.668 205.986 437.151 205.781C437.634 205.572 438.177 205.467 438.778 205.467C439.69 205.467 440.412 205.697 440.945 206.157C441.483 206.613 441.752 207.256 441.752 208.085V211.291C441.757 211.993 441.854 212.524 442.046 212.884V213H440.05ZM438.416 211.626C438.708 211.626 438.977 211.562 439.223 211.435C439.469 211.302 439.651 211.127 439.77 210.908V209.637H439.031C438.042 209.637 437.516 209.979 437.452 210.662L437.445 210.778C437.445 211.024 437.532 211.227 437.705 211.387C437.878 211.546 438.115 211.626 438.416 211.626ZM447.699 212.248C447.212 212.84 446.537 213.137 445.676 213.137C444.883 213.137 444.277 212.909 443.857 212.453C443.443 211.997 443.231 211.33 443.222 210.45V205.604H445.197V210.382C445.197 211.152 445.548 211.537 446.25 211.537C446.92 211.537 447.38 211.305 447.631 210.84V205.604H449.613V213H447.754L447.699 212.248ZM455.109 210.956C455.109 210.715 454.989 210.525 454.747 210.389C454.51 210.247 454.127 210.122 453.599 210.013C451.84 209.644 450.96 208.896 450.96 207.771C450.96 207.114 451.231 206.567 451.773 206.13C452.32 205.688 453.034 205.467 453.913 205.467C454.852 205.467 455.602 205.688 456.162 206.13C456.727 206.572 457.01 207.146 457.01 207.853H455.034C455.034 207.57 454.943 207.338 454.761 207.155C454.578 206.968 454.294 206.875 453.906 206.875C453.574 206.875 453.316 206.95 453.134 207.101C452.951 207.251 452.86 207.442 452.86 207.675C452.86 207.894 452.963 208.071 453.168 208.208C453.378 208.34 453.729 208.456 454.221 208.557C454.713 208.652 455.128 208.762 455.465 208.885C456.508 209.268 457.03 209.931 457.03 210.874C457.03 211.549 456.741 212.095 456.162 212.515C455.583 212.929 454.836 213.137 453.92 213.137C453.3 213.137 452.749 213.027 452.266 212.809C451.787 212.585 451.411 212.282 451.138 211.899C450.864 211.512 450.728 211.095 450.728 210.648H452.601C452.619 210.999 452.749 211.268 452.99 211.455C453.232 211.642 453.555 211.735 453.961 211.735C454.339 211.735 454.624 211.665 454.815 211.523C455.011 211.378 455.109 211.188 455.109 210.956ZM461.713 213.137C460.628 213.137 459.744 212.804 459.061 212.139C458.382 211.473 458.042 210.587 458.042 209.479V209.288C458.042 208.545 458.186 207.882 458.473 207.299C458.76 206.711 459.165 206.26 459.689 205.945C460.218 205.626 460.82 205.467 461.494 205.467C462.506 205.467 463.301 205.786 463.88 206.424C464.463 207.062 464.755 207.966 464.755 209.138V209.944H460.045C460.109 210.427 460.3 210.815 460.619 211.106C460.943 211.398 461.351 211.544 461.843 211.544C462.604 211.544 463.199 211.268 463.627 210.717L464.598 211.804C464.301 212.223 463.9 212.551 463.395 212.788C462.889 213.021 462.328 213.137 461.713 213.137ZM461.487 207.066C461.095 207.066 460.776 207.199 460.53 207.463C460.289 207.727 460.134 208.105 460.065 208.598H462.813V208.44C462.804 208.003 462.686 207.666 462.458 207.429C462.23 207.187 461.907 207.066 461.487 207.066ZM469.889 210.956C469.889 210.715 469.768 210.525 469.526 210.389C469.289 210.247 468.907 210.122 468.378 210.013C466.619 209.644 465.739 208.896 465.739 207.771C465.739 207.114 466.01 206.567 466.553 206.13C467.1 205.688 467.813 205.467 468.692 205.467C469.631 205.467 470.381 205.688 470.941 206.13C471.507 206.572 471.789 207.146 471.789 207.853H469.813C469.813 207.57 469.722 207.338 469.54 207.155C469.358 206.968 469.073 206.875 468.686 206.875C468.353 206.875 468.095 206.95 467.913 207.101C467.731 207.251 467.64 207.442 467.64 207.675C467.64 207.894 467.742 208.071 467.947 208.208C468.157 208.34 468.508 208.456 469 208.557C469.492 208.652 469.907 208.762 470.244 208.885C471.288 209.268 471.81 209.931 471.81 210.874C471.81 211.549 471.52 212.095 470.941 212.515C470.363 212.929 469.615 213.137 468.699 213.137C468.079 213.137 467.528 213.027 467.045 212.809C466.566 212.585 466.19 212.282 465.917 211.899C465.644 211.512 465.507 211.095 465.507 210.648H467.38C467.398 210.999 467.528 211.268 467.77 211.455C468.011 211.642 468.335 211.735 468.74 211.735C469.118 211.735 469.403 211.665 469.595 211.523C469.791 211.378 469.889 211.188 469.889 210.956ZM480.73 207.456C480.462 207.42 480.225 207.401 480.02 207.401C479.272 207.401 478.782 207.654 478.55 208.16V213H476.574V205.604H478.44L478.495 206.485C478.892 205.806 479.441 205.467 480.143 205.467C480.361 205.467 480.566 205.496 480.758 205.556L480.73 207.456ZM484.955 213.137C483.87 213.137 482.986 212.804 482.303 212.139C481.624 211.473 481.284 210.587 481.284 209.479V209.288C481.284 208.545 481.428 207.882 481.715 207.299C482.002 206.711 482.408 206.26 482.932 205.945C483.46 205.626 484.062 205.467 484.736 205.467C485.748 205.467 486.543 205.786 487.122 206.424C487.705 207.062 487.997 207.966 487.997 209.138V209.944H483.287C483.351 210.427 483.542 210.815 483.861 211.106C484.185 211.398 484.593 211.544 485.085 211.544C485.846 211.544 486.441 211.268 486.869 210.717L487.84 211.804C487.544 212.223 487.143 212.551 486.637 212.788C486.131 213.021 485.57 213.137 484.955 213.137ZM484.729 207.066C484.338 207.066 484.019 207.199 483.772 207.463C483.531 207.727 483.376 208.105 483.308 208.598H486.056V208.44C486.047 208.003 485.928 207.666 485.7 207.429C485.472 207.187 485.149 207.066 484.729 207.066ZM492.967 209.534H489.118V207.941H492.967V209.534ZM498.709 207.456C498.44 207.42 498.203 207.401 497.998 207.401C497.251 207.401 496.761 207.654 496.528 208.16V213H494.553V205.604H496.419L496.474 206.485C496.87 205.806 497.419 205.467 498.121 205.467C498.34 205.467 498.545 205.496 498.736 205.556L498.709 207.456ZM502.934 213.137C501.849 213.137 500.965 212.804 500.281 212.139C499.602 211.473 499.263 210.587 499.263 209.479V209.288C499.263 208.545 499.406 207.882 499.693 207.299C499.98 206.711 500.386 206.26 500.91 205.945C501.439 205.626 502.04 205.467 502.715 205.467C503.727 205.467 504.522 205.786 505.101 206.424C505.684 207.062 505.976 207.966 505.976 209.138V209.944H501.266C501.329 210.427 501.521 210.815 501.84 211.106C502.163 211.398 502.571 211.544 503.063 211.544C503.825 211.544 504.419 211.268 504.848 210.717L505.818 211.804C505.522 212.223 505.121 212.551 504.615 212.788C504.109 213.021 503.549 213.137 502.934 213.137ZM502.708 207.066C502.316 207.066 501.997 207.199 501.751 207.463C501.509 207.727 501.354 208.105 501.286 208.598H504.034V208.44C504.025 208.003 503.907 207.666 503.679 207.429C503.451 207.187 503.127 207.066 502.708 207.066ZM508.922 205.604L508.983 206.458C509.512 205.797 510.221 205.467 511.109 205.467C511.893 205.467 512.477 205.697 512.859 206.157C513.242 206.618 513.438 207.306 513.447 208.222V213H511.472V208.27C511.472 207.85 511.381 207.547 511.198 207.36C511.016 207.169 510.713 207.073 510.289 207.073C509.733 207.073 509.316 207.31 509.038 207.784V213H507.062V205.604H508.922ZM514.644 209.247C514.644 208.094 514.901 207.176 515.416 206.492C515.936 205.809 516.644 205.467 517.542 205.467C518.262 205.467 518.857 205.736 519.326 206.273V202.5H521.309V213H519.524L519.429 212.214C518.937 212.829 518.303 213.137 517.528 213.137C516.658 213.137 515.958 212.795 515.43 212.111C514.906 211.423 514.644 210.468 514.644 209.247ZM516.619 209.391C516.619 210.083 516.74 210.614 516.981 210.983C517.223 211.353 517.574 211.537 518.034 211.537C518.645 211.537 519.076 211.28 519.326 210.765V207.846C519.08 207.331 518.654 207.073 518.048 207.073C517.095 207.073 516.619 207.846 516.619 209.391ZM526.244 213.137C525.16 213.137 524.275 212.804 523.592 212.139C522.913 211.473 522.573 210.587 522.573 209.479V209.288C522.573 208.545 522.717 207.882 523.004 207.299C523.291 206.711 523.697 206.26 524.221 205.945C524.749 205.626 525.351 205.467 526.025 205.467C527.037 205.467 527.832 205.786 528.411 206.424C528.994 207.062 529.286 207.966 529.286 209.138V209.944H524.576C524.64 210.427 524.831 210.815 525.15 211.106C525.474 211.398 525.882 211.544 526.374 211.544C527.135 211.544 527.73 211.268 528.158 210.717L529.129 211.804C528.833 212.223 528.432 212.551 527.926 212.788C527.42 213.021 526.859 213.137 526.244 213.137ZM526.019 207.066C525.627 207.066 525.308 207.199 525.062 207.463C524.82 207.727 524.665 208.105 524.597 208.598H527.345V208.44C527.336 208.003 527.217 207.666 526.989 207.429C526.761 207.187 526.438 207.066 526.019 207.066ZM534.57 207.456C534.301 207.42 534.064 207.401 533.859 207.401C533.112 207.401 532.622 207.654 532.39 208.16V213H530.414V205.604H532.28L532.335 206.485C532.731 205.806 533.281 205.467 533.982 205.467C534.201 205.467 534.406 205.496 534.598 205.556L534.57 207.456Z" fill="black"/>
</g>
<defs>
<filter id="filter0_d" x="160" y="120" width="480" height="244" filterUnits="userSpaceOnUse" color-interpolation-filters="sRGB">
<feFlood flood-opacity="0" result="BackgroundImageFix"/>
<feColorMatrix in="SourceAlpha" type="matrix" values="0 0 0 0 0 0 0 0 0 0 0 0 0 0 0 0 0 0 127 0"/>
<feOffset dy="4"/>
<feColorMatrix type="matrix" values="0 0 0 0 0 0 0 0 0 0 0 0 0 0 0 0 0 0 1 0"/>
<feBlend mode="normal" in2="BackgroundImageFix" result="effect1_dropShadow"/>
<feBlend mode="normal" in="SourceGraphic" in2="effect1_dropShadow" result="shape"/>
</filter>
<filter id="filter1_d" x="28" y="240" width="96" height="100" filterUnits="userSpaceOnUse" color-interpolation-filters="sRGB">
<feFlood flood-opacity="0" result="BackgroundImageFix"/>
<feColorMatrix in="SourceAlpha" type="matrix" values="0 0 0 0 0 0 0 0 0 0 0 0 0 0 0 0 0 0 127 0"/>
<feOffset dy="4"/>
<feColorMatrix type="matrix" values="0 0 0 0 0 0 0 0 0 0 0 0 0 0 0 0 0 0 1 0"/>
<feBlend mode="normal" in2="BackgroundImageFix" result="effect1_dropShadow"/>
<feBlend mode="normal" in="SourceGraphic" in2="effect1_dropShadow" result="shape"/>
</filter>
<filter id="filter2_d" x="520" y="240" width="96" height="100" filterUnits="userSpaceOnUse" color-interpolation-filters="sRGB">
<feFlood flood-opacity="0" result="BackgroundImageFix"/>
<feColorMatrix in="SourceAlpha" type="matrix" values="0 0 0 0 0 0 0 0 0 0 0 0 0 0 0 0 0 0 127 0"/>
<feOffset dy="4"/>
<feColorMatrix type="matrix" values="0 0 0 0 0 0 0 0 0 0 0 0 0 0 0 0 0 0 1 0"/>
<feBlend mode="normal" in2="BackgroundImageFix" result="effect1_dropShadow"/>
<feBlend mode="normal" in="SourceGraphic" in2="effect1_dropShadow" result="shape"/>
</filter>
<filter id="filter3_d" x="184" y="264" width="312" height="52" filterUnits="userSpaceOnUse" color-interpolation-filters="sRGB">
<feFlood flood-opacity="0" result="BackgroundImageFix"/>
<feColorMatrix in="SourceAlpha" type="matrix" values="0 0 0 0 0 0 0 0 0 0 0 0 0 0 0 0 0 0 127 0"/>
<feOffset dy="4"/>
<feColorMatrix type="matrix" values="0 0 0 0 0 0 0 0 0 0 0 0 0 0 0 0 0 0 1 0"/>
<feBlend mode="normal" in2="BackgroundImageFix" result="effect1_dropShadow"/>
<feBlend mode="normal" in="SourceGraphic" in2="effect1_dropShadow" result="shape"/>
</filter>
<filter id="filter4_d" x="624" y="192" width="136" height="36" filterUnits="userSpaceOnUse" color-interpolation-filters="sRGB">
<feFlood flood-opacity="0" result="BackgroundImageFix"/>
<feColorMatrix in="SourceAlpha" type="matrix" values="0 0 0 0 0 0 0 0 0 0 0 0 0 0 0 0 0 0 127 0"/>
<feOffset dy="4"/>
<feColorMatrix type="matrix" values="0 0 0 0 0 0 0 0 0 0 0 0 0 0 0 0 0 0 1 0"/>
<feBlend mode="normal" in2="BackgroundImageFix" result="effect1_dropShadow"/>
<feBlend mode="normal" in="SourceGraphic" in2="effect1_dropShadow" result="shape"/>
</filter>
<filter id="filter5_d" x="8" y="128" width="136" height="36" filterUnits="userSpaceOnUse" color-interpolation-filters="sRGB">
<feFlood flood-opacity="0" result="BackgroundImageFix"/>
<feColorMatrix in="SourceAlpha" type="matrix" values="0 0 0 0 0 0 0 0 0 0 0 0 0 0 0 0 0 0 127 0"/>
<feOffset dy="4"/>
<feColorMatrix type="matrix" values="0 0 0 0 0 0 0 0 0 0 0 0 0 0 0 0 0 0 1 0"/>
<feBlend mode="normal" in2="BackgroundImageFix" result="effect1_dropShadow"/>
<feBlend mode="normal" in="SourceGraphic" in2="effect1_dropShadow" result="shape"/>
</filter>
<filter id="filter6_d" x="352" y="192" width="192" height="36" filterUnits="userSpaceOnUse" color-interpolation-filters="sRGB">
<feFlood flood-opacity="0" result="BackgroundImageFix"/>
<feColorMatrix in="SourceAlpha" type="matrix" values="0 0 0 0 0 0 0 0 0 0 0 0 0 0 0 0 0 0 127 0"/>
<feOffset dy="4"/>
<feColorMatrix type="matrix" values="0 0 0 0 0 0 0 0 0 0 0 0 0 0 0 0 0 0 1 0"/>
<feBlend mode="normal" in2="BackgroundImageFix" result="effect1_dropShadow"/>
<feBlend mode="normal" in="SourceGraphic" in2="effect1_dropShadow" result="shape"/>
</filter>
</defs>
</svg>
