<svg width="718" height="382" viewBox="0 0 718 382" fill="none" xmlns="http://www.w3.org/2000/svg">
<rect x="0.5" y="30.5" width="73" height="73" rx="4.5" fill="white" stroke="black"/>
<mask id="path-2-outside-1" maskUnits="userSpaceOnUse" x="281.812" y="42.7719" width="366" height="63" fill="black">
<rect fill="white" x="281.812" y="42.7719" width="366" height="63"/>
<path fill-rule="evenodd" clip-rule="evenodd" d="M645.995 73.2444V73.7719L645.995 103.322L643.601 103.778L643.601 74.7556L465 75.2495V104.5H463V75.2551L462.803 75.2556V75.2532L285.211 75.7465L285.211 89.9492L285.211 102.725L282.812 102.275L282.812 89.4994L282.812 74.7751L282.812 74.2534L283.646 74.2511L462.8 73.7535V45.7751L462.803 45.7756V45.2282L463 45.1906V45H464L465.197 44.7719V46.2244L465.2 46.2249V73.7444L645.156 73.2467L645.995 73.2444Z"/>
</mask>
<path fill-rule="evenodd" clip-rule="evenodd" d="M645.995 73.2444V73.7719L645.995 103.322L643.601 103.778L643.601 74.7556L465 75.2495V104.5H463V75.2551L462.803 75.2556V75.2532L285.211 75.7465L285.211 89.9492L285.211 102.725L282.812 102.275L282.812 89.4994L282.812 74.7751L282.812 74.2534L283.646 74.2511L462.8 73.7535V45.7751L462.803 45.7756V45.2282L463 45.1906V45H464L465.197 44.7719V46.2244L465.2 46.2249V73.7444L645.156 73.2467L645.995 73.2444Z" fill="black"/>
<path d="M645.995 73.7719L644.995 73.7719L644.995 73.7719L645.995 73.7719ZM645.995 73.2444H646.995V72.2416L645.992 72.2444L645.995 73.2444ZM645.995 103.322L646.182 104.304L646.995 104.149L646.995 103.322L645.995 103.322ZM643.601 103.778L642.601 103.778L642.601 104.987L643.789 104.76L643.601 103.778ZM643.601 74.7556L644.601 74.7556L644.601 73.7528L643.598 73.7556L643.601 74.7556ZM465 75.2495L464.997 74.2495L464 74.2523V75.2495H465ZM465 104.5V105.5H466V104.5H465ZM463 104.5H462V105.5H463V104.5ZM463 75.2551H464V74.2523L462.997 74.2551L463 75.2551ZM462.803 75.2556H461.803V76.2584L462.806 76.2556L462.803 75.2556ZM462.803 75.2532H463.803V74.2504L462.8 74.2532L462.803 75.2532ZM285.211 75.7465L285.208 74.7465L284.211 74.7493L284.211 75.7465L285.211 75.7465ZM285.211 89.9492L284.211 89.9492L284.211 89.9492L285.211 89.9492ZM285.211 102.725L285.027 103.708L286.211 103.93L286.211 102.725L285.211 102.725ZM282.812 102.275L281.812 102.275L281.812 103.105L282.628 103.258L282.812 102.275ZM282.812 89.4994L281.812 89.4994L281.812 89.4994L282.812 89.4994ZM282.812 74.7751L281.812 74.7751L281.812 74.7751L282.812 74.7751ZM282.812 74.2534L282.809 73.2534L281.812 73.2562L281.812 74.2534L282.812 74.2534ZM283.646 74.2511L283.649 75.2511L283.649 75.2511L283.646 74.2511ZM462.8 73.7535L462.803 74.7535L463.8 74.7507V73.7535H462.8ZM462.8 45.7751L462.985 44.7922L461.8 44.5702V45.7751H462.8ZM462.803 45.7756L462.619 46.7585L463.803 46.9805V45.7756H462.803ZM462.803 45.2282L462.616 44.2459L461.803 44.4008V45.2282H462.803ZM463 45.1906L463.187 46.173L464 46.018V45.1906H463ZM463 45V44H462V45H463ZM464 45V46H464.095L464.187 45.9823L464 45ZM465.197 44.7719H466.197V43.5633L465.01 43.7896L465.197 44.7719ZM465.197 46.2244H464.197V47.0544L465.013 47.2073L465.197 46.2244ZM465.2 46.2249H466.2V45.3949L465.384 45.242L465.2 46.2249ZM465.2 73.7444H464.2V74.7472L465.202 74.7444L465.2 73.7444ZM645.156 73.2467L645.159 74.2467L645.159 74.2467L645.156 73.2467ZM646.995 73.7719V73.2444H644.995V73.7719H646.995ZM646.995 103.322L646.995 73.7718L644.995 73.7719L644.995 103.322L646.995 103.322ZM643.789 104.76L646.182 104.304L645.808 102.339L643.414 102.796L643.789 104.76ZM642.601 74.7556L642.601 103.778L644.601 103.778L644.601 74.7556L642.601 74.7556ZM465.003 76.2495L643.604 75.7556L643.598 73.7556L464.997 74.2495L465.003 76.2495ZM466 104.5V75.2495H464V104.5H466ZM463 105.5H465V103.5H463V105.5ZM462 75.2551V104.5H464V75.2551H462ZM462.806 76.2556L463.003 76.2551L462.997 74.2551L462.8 74.2556L462.806 76.2556ZM461.803 75.2532V75.2556H463.803V75.2532H461.803ZM462.8 74.2532L285.208 74.7465L285.214 76.7465L462.806 76.2532L462.8 74.2532ZM284.211 75.7465L284.211 89.9492L286.211 89.9492L286.211 75.7465L284.211 75.7465ZM284.211 89.9492L284.211 102.725L286.211 102.725L286.211 89.9492L284.211 89.9492ZM285.396 101.742L282.996 101.292L282.628 103.258L285.027 103.708L285.396 101.742ZM283.812 102.275L283.812 89.4994L281.812 89.4994L281.812 102.275L283.812 102.275ZM283.812 89.4994L283.812 74.7751L281.812 74.7751L281.812 89.4994L283.812 89.4994ZM283.812 74.7751L283.812 74.2534L281.812 74.2534L281.812 74.7751L283.812 74.7751ZM282.815 75.2534L283.649 75.2511L283.644 73.2511L282.809 73.2534L282.815 75.2534ZM283.649 75.2511L462.803 74.7535L462.798 72.7535L283.644 73.2511L283.649 75.2511ZM463.8 73.7535V45.7751H461.8V73.7535H463.8ZM462.616 46.758L462.619 46.7585L462.987 44.7928L462.985 44.7922L462.616 46.758ZM461.803 45.2282V45.7756H463.803V45.2282H461.803ZM462.813 44.2083L462.616 44.2459L462.99 46.2105L463.187 46.173L462.813 44.2083ZM462 45V45.1906H464V45H462ZM464 44H463V46H464V44ZM465.01 43.7896L463.813 44.0177L464.187 45.9823L465.384 45.7542L465.01 43.7896ZM466.197 46.2244V44.7719H464.197V46.2244H466.197ZM465.013 47.2073L465.015 47.2078L465.384 45.242L465.381 45.2415L465.013 47.2073ZM464.2 46.2249V73.7444H466.2V46.2249H464.2ZM645.153 72.2467L465.197 72.7444L465.202 74.7444L645.159 74.2467L645.153 72.2467ZM645.992 72.2444L645.153 72.2467L645.159 74.2467L645.998 74.2444L645.992 72.2444Z" fill="white" mask="url(#path-2-outside-1)"/>
<path fill-rule="evenodd" clip-rule="evenodd" d="M205 126.257C205 113.83 215.074 103.757 227.5 103.757H338.902C344.87 103.757 350.593 106.127 354.812 110.347C359.032 114.566 361.402 120.289 361.402 126.257C361.402 138.683 351.329 148.757 338.902 148.757H227.5C215.074 148.757 205 138.683 205 126.257Z" fill="#FCE5CD" stroke="#783F04" stroke-miterlimit="8" stroke-linejoin="round"/>
<path d="M262.934 132.757H261.308V123.247H262.934V132.757ZM261.176 120.725C261.176 120.461 261.255 120.238 261.413 120.057C261.577 119.875 261.817 119.784 262.134 119.784C262.45 119.784 262.69 119.875 262.854 120.057C263.019 120.238 263.101 120.461 263.101 120.725C263.101 120.988 263.019 121.208 262.854 121.384C262.69 121.559 262.45 121.647 262.134 121.647C261.817 121.647 261.577 121.559 261.413 121.384C261.255 121.208 261.176 120.988 261.176 120.725ZM265.148 127.923C265.148 126.464 265.494 125.292 266.186 124.407C266.877 123.517 267.782 123.071 268.901 123.071C270.015 123.071 270.896 123.452 271.547 124.214V119.257H273.173V132.757H271.679L271.6 131.737C270.949 132.534 270.044 132.933 268.884 132.933C267.782 132.933 266.883 132.481 266.186 131.579C265.494 130.677 265.148 129.499 265.148 128.046V127.923ZM266.774 128.107C266.774 129.185 266.997 130.029 267.442 130.639C267.888 131.248 268.503 131.553 269.288 131.553C270.319 131.553 271.072 131.09 271.547 130.164V125.796C271.061 124.899 270.313 124.451 269.306 124.451C268.509 124.451 267.888 124.759 267.442 125.374C266.997 125.989 266.774 126.9 266.774 128.107ZM283.14 125.602H275.81V124.187H283.14V125.602ZM283.14 129.25H275.81V127.844H283.14V129.25ZM285.803 123.563L284.88 122.931C285.425 122.169 285.706 121.366 285.724 120.522V119.257H287.332V120.399C287.326 120.985 287.18 121.571 286.893 122.157C286.611 122.737 286.248 123.206 285.803 123.563ZM288.501 123.563L287.578 122.931C288.123 122.169 288.404 121.366 288.422 120.522V119.257H290.03V120.399C290.024 120.985 289.878 121.571 289.591 122.157C289.31 122.737 288.946 123.206 288.501 123.563ZM300.067 128.107C300.067 129.56 299.733 130.729 299.065 131.614C298.397 132.493 297.501 132.933 296.376 132.933C295.175 132.933 294.246 132.508 293.59 131.658L293.511 132.757H292.017V119.257H293.643V124.293C294.299 123.478 295.204 123.071 296.358 123.071C297.513 123.071 298.418 123.508 299.074 124.381C299.736 125.254 300.067 126.449 300.067 127.967V128.107ZM298.441 127.923C298.441 126.815 298.228 125.96 297.8 125.356C297.372 124.753 296.757 124.451 295.954 124.451C294.882 124.451 294.111 124.949 293.643 125.945V130.059C294.141 131.055 294.917 131.553 295.972 131.553C296.751 131.553 297.357 131.251 297.791 130.647C298.225 130.044 298.441 129.136 298.441 127.923ZM302.08 123.563L301.157 122.931C301.702 122.169 301.983 121.366 302.001 120.522V119.257H303.609V120.399C303.604 120.985 303.457 121.571 303.17 122.157C302.889 122.737 302.525 123.206 302.08 123.563ZM304.778 123.563L303.855 122.931C304.4 122.169 304.682 121.366 304.699 120.522V119.257H306.308V120.399C306.302 120.985 306.155 121.571 305.868 122.157C305.587 122.737 305.224 123.206 304.778 123.563Z" fill="black"/>
<path fill-rule="evenodd" clip-rule="evenodd" d="M383 126.5C383 114.074 393.074 104 405.5 104H516.902C522.87 104 528.593 106.371 532.812 110.59C537.032 114.81 539.402 120.533 539.402 126.5C539.402 138.926 529.329 149 516.902 149H405.5C393.074 149 383 138.926 383 126.5Z" fill="#D6FCCD" stroke="#297804" stroke-miterlimit="8" stroke-linejoin="round"/>
<path d="M441.461 133H439.835V123.49H441.461V133ZM439.703 120.968C439.703 120.704 439.782 120.481 439.94 120.3C440.104 120.118 440.345 120.027 440.661 120.027C440.978 120.027 441.218 120.118 441.382 120.3C441.546 120.481 441.628 120.704 441.628 120.968C441.628 121.231 441.546 121.451 441.382 121.627C441.218 121.803 440.978 121.891 440.661 121.891C440.345 121.891 440.104 121.803 439.94 121.627C439.782 121.451 439.703 121.231 439.703 120.968ZM443.676 128.166C443.676 126.707 444.021 125.535 444.713 124.65C445.404 123.76 446.31 123.314 447.429 123.314C448.542 123.314 449.424 123.695 450.074 124.457V119.5H451.7V133H450.206L450.127 131.98C449.477 132.777 448.571 133.176 447.411 133.176C446.31 133.176 445.41 132.725 444.713 131.822C444.021 130.92 443.676 129.742 443.676 128.289V128.166ZM445.302 128.351C445.302 129.429 445.524 130.272 445.97 130.882C446.415 131.491 447.03 131.796 447.815 131.796C448.847 131.796 449.6 131.333 450.074 130.407V126.039C449.588 125.143 448.841 124.694 447.833 124.694C447.036 124.694 446.415 125.002 445.97 125.617C445.524 126.232 445.302 127.144 445.302 128.351ZM461.667 125.846H454.337V124.431H461.667V125.846ZM461.667 129.493H454.337V128.087H461.667V129.493ZM464.33 123.807L463.407 123.174C463.952 122.412 464.233 121.609 464.251 120.766V119.5H465.859V120.643C465.854 121.229 465.707 121.814 465.42 122.4C465.139 122.98 464.775 123.449 464.33 123.807ZM467.028 123.807L466.105 123.174C466.65 122.412 466.932 121.609 466.949 120.766V119.5H468.558V120.643C468.552 121.229 468.405 121.814 468.118 122.4C467.837 122.98 467.474 123.449 467.028 123.807ZM473.831 131.849C474.411 131.849 474.918 131.673 475.352 131.321C475.785 130.97 476.025 130.53 476.072 130.003H477.61C477.581 130.548 477.394 131.066 477.048 131.559C476.702 132.051 476.239 132.443 475.659 132.736C475.085 133.029 474.476 133.176 473.831 133.176C472.536 133.176 471.505 132.745 470.737 131.884C469.976 131.017 469.595 129.833 469.595 128.333V128.061C469.595 127.135 469.765 126.312 470.104 125.591C470.444 124.87 470.931 124.311 471.563 123.912C472.202 123.514 472.955 123.314 473.822 123.314C474.889 123.314 475.773 123.634 476.477 124.272C477.186 124.911 477.563 125.74 477.61 126.76H476.072C476.025 126.145 475.791 125.641 475.369 125.248C474.953 124.85 474.438 124.65 473.822 124.65C472.996 124.65 472.354 124.949 471.897 125.547C471.446 126.139 471.221 126.997 471.221 128.122V128.43C471.221 129.525 471.446 130.369 471.897 130.961C472.349 131.553 472.993 131.849 473.831 131.849ZM479.553 123.807L478.63 123.174C479.175 122.412 479.456 121.609 479.474 120.766V119.5H481.082V120.643C481.076 121.229 480.93 121.814 480.643 122.4C480.361 122.98 479.998 123.449 479.553 123.807ZM482.251 123.807L481.328 123.174C481.873 122.412 482.154 121.609 482.172 120.766V119.5H483.78V120.643C483.774 121.229 483.628 121.814 483.341 122.4C483.06 122.98 482.696 123.449 482.251 123.807Z" fill="black"/>
<path fill-rule="evenodd" clip-rule="evenodd" d="M561 126.5C561 114.074 571.074 104 583.5 104H694.902C700.87 104 706.593 106.371 710.812 110.59C715.032 114.81 717.402 120.533 717.402 126.5C717.402 138.926 707.329 149 694.902 149H583.5C571.074 149 561 138.926 561 126.5Z" fill="#FCE5CD" stroke="#783F04" stroke-miterlimit="8" stroke-linejoin="round"/>
<path d="M619.461 133H617.835V123.49H619.461V133ZM617.703 120.968C617.703 120.704 617.782 120.481 617.94 120.3C618.104 120.118 618.345 120.027 618.661 120.027C618.978 120.027 619.218 120.118 619.382 120.3C619.546 120.481 619.628 120.704 619.628 120.968C619.628 121.231 619.546 121.451 619.382 121.627C619.218 121.803 618.978 121.891 618.661 121.891C618.345 121.891 618.104 121.803 617.94 121.627C617.782 121.451 617.703 121.231 617.703 120.968ZM621.676 128.166C621.676 126.707 622.021 125.535 622.713 124.65C623.404 123.76 624.31 123.314 625.429 123.314C626.542 123.314 627.424 123.695 628.074 124.457V119.5H629.7V133H628.206L628.127 131.98C627.477 132.777 626.571 133.176 625.411 133.176C624.31 133.176 623.41 132.725 622.713 131.822C622.021 130.92 621.676 129.742 621.676 128.289V128.166ZM623.302 128.351C623.302 129.429 623.524 130.272 623.97 130.882C624.415 131.491 625.03 131.796 625.815 131.796C626.847 131.796 627.6 131.333 628.074 130.407V126.039C627.588 125.143 626.841 124.694 625.833 124.694C625.036 124.694 624.415 125.002 623.97 125.617C623.524 126.232 623.302 127.144 623.302 128.351ZM639.667 125.846H632.337V124.431H639.667V125.846ZM639.667 129.493H632.337V128.087H639.667V129.493ZM642.33 123.807L641.407 123.174C641.952 122.412 642.233 121.609 642.251 120.766V119.5H643.859V120.643C643.854 121.229 643.707 121.814 643.42 122.4C643.139 122.98 642.775 123.449 642.33 123.807ZM645.028 123.807L644.105 123.174C644.65 122.412 644.932 121.609 644.949 120.766V119.5H646.558V120.643C646.552 121.229 646.405 121.814 646.118 122.4C645.837 122.98 645.474 123.449 645.028 123.807ZM651.831 131.849C652.411 131.849 652.918 131.673 653.352 131.321C653.785 130.97 654.025 130.53 654.072 130.003H655.61C655.581 130.548 655.394 131.066 655.048 131.559C654.702 132.051 654.239 132.443 653.659 132.736C653.085 133.029 652.476 133.176 651.831 133.176C650.536 133.176 649.505 132.745 648.737 131.884C647.976 131.017 647.595 129.833 647.595 128.333V128.061C647.595 127.135 647.765 126.312 648.104 125.591C648.444 124.87 648.931 124.311 649.563 123.912C650.202 123.514 650.955 123.314 651.822 123.314C652.889 123.314 653.773 123.634 654.477 124.272C655.186 124.911 655.563 125.74 655.61 126.76H654.072C654.025 126.145 653.791 125.641 653.369 125.248C652.953 124.85 652.438 124.65 651.822 124.65C650.996 124.65 650.354 124.949 649.897 125.547C649.446 126.139 649.221 126.997 649.221 128.122V128.43C649.221 129.525 649.446 130.369 649.897 130.961C650.349 131.553 650.993 131.849 651.831 131.849ZM657.553 123.807L656.63 123.174C657.175 122.412 657.456 121.609 657.474 120.766V119.5H659.082V120.643C659.076 121.229 658.93 121.814 658.643 122.4C658.361 122.98 657.998 123.449 657.553 123.807ZM660.251 123.807L659.328 123.174C659.873 122.412 660.154 121.609 660.172 120.766V119.5H661.78V120.643C661.774 121.229 661.628 121.814 661.341 122.4C661.06 122.98 660.696 123.449 660.251 123.807Z" fill="black"/>
<path fill-rule="evenodd" clip-rule="evenodd" d="M385 23.5C385 11.0736 395.074 1 407.5 1H518.902C524.87 1 530.593 3.37056 534.812 7.59013C539.032 11.8097 541.402 17.5326 541.402 23.5C541.402 35.9264 531.329 46 518.902 46H407.5C395.074 46 385 35.9264 385 23.5Z" fill="#FCE5CD" stroke="#783F04" stroke-miterlimit="8" stroke-linejoin="round"/>
<path d="M450.923 24.8232H447.917V30H446.221V17.2031H450.457C451.898 17.2031 453.006 17.5312 453.779 18.1875C454.559 18.8438 454.948 19.7988 454.948 21.0527C454.948 21.8496 454.731 22.5439 454.298 23.1357C453.87 23.7275 453.272 24.1699 452.505 24.4629L455.511 29.8945V30H453.7L450.923 24.8232ZM447.917 23.4434H450.51C451.348 23.4434 452.013 23.2266 452.505 22.793C453.003 22.3594 453.252 21.7793 453.252 21.0527C453.252 20.2617 453.015 19.6553 452.54 19.2334C452.071 18.8115 451.392 18.5977 450.501 18.5918H447.917V23.4434ZM456.636 25.1572C456.636 24.2256 456.817 23.3877 457.181 22.6436C457.55 21.8994 458.06 21.3252 458.71 20.9209C459.366 20.5166 460.113 20.3145 460.951 20.3145C462.246 20.3145 463.292 20.7627 464.089 21.6592C464.892 22.5557 465.293 23.748 465.293 25.2363V25.3506C465.293 26.2764 465.114 27.1084 464.757 27.8467C464.405 28.5791 463.898 29.1504 463.236 29.5605C462.58 29.9707 461.824 30.1758 460.969 30.1758C459.68 30.1758 458.634 29.7275 457.831 28.8311C457.034 27.9346 456.636 26.748 456.636 25.2715V25.1572ZM458.271 25.3506C458.271 26.4053 458.514 27.252 459 27.8906C459.492 28.5293 460.148 28.8486 460.969 28.8486C461.795 28.8486 462.451 28.5264 462.938 27.8818C463.424 27.2314 463.667 26.3232 463.667 25.1572C463.667 24.1143 463.418 23.2705 462.92 22.626C462.428 21.9756 461.771 21.6504 460.951 21.6504C460.148 21.6504 459.501 21.9697 459.009 22.6084C458.517 23.2471 458.271 24.1611 458.271 25.3506ZM466.901 25.1572C466.901 24.2256 467.083 23.3877 467.446 22.6436C467.815 21.8994 468.325 21.3252 468.976 20.9209C469.632 20.5166 470.379 20.3145 471.217 20.3145C472.512 20.3145 473.558 20.7627 474.354 21.6592C475.157 22.5557 475.559 23.748 475.559 25.2363V25.3506C475.559 26.2764 475.38 27.1084 475.022 27.8467C474.671 28.5791 474.164 29.1504 473.502 29.5605C472.846 29.9707 472.09 30.1758 471.234 30.1758C469.945 30.1758 468.899 29.7275 468.097 28.8311C467.3 27.9346 466.901 26.748 466.901 25.2715V25.1572ZM468.536 25.3506C468.536 26.4053 468.779 27.252 469.266 27.8906C469.758 28.5293 470.414 28.8486 471.234 28.8486C472.061 28.8486 472.717 28.5264 473.203 27.8818C473.689 27.2314 473.933 26.3232 473.933 25.1572C473.933 24.1143 473.684 23.2705 473.186 22.626C472.693 21.9756 472.037 21.6504 471.217 21.6504C470.414 21.6504 469.767 21.9697 469.274 22.6084C468.782 23.2471 468.536 24.1611 468.536 25.3506ZM479.804 18.1875V20.4902H481.579V21.7471H479.804V27.6445C479.804 28.0254 479.883 28.3125 480.041 28.5059C480.199 28.6934 480.469 28.7871 480.85 28.7871C481.037 28.7871 481.295 28.752 481.623 28.6816V30C481.195 30.1172 480.779 30.1758 480.375 30.1758C479.648 30.1758 479.101 29.9561 478.731 29.5166C478.362 29.0771 478.178 28.4531 478.178 27.6445V21.7471H476.446V20.4902H478.178V18.1875H479.804Z" fill="black"/>
<mask id="path-12-outside-2" maskUnits="userSpaceOnUse" x="281.812" y="274.772" width="366" height="63" fill="black">
<rect fill="white" x="281.812" y="274.772" width="366" height="63"/>
<path fill-rule="evenodd" clip-rule="evenodd" d="M645.995 305.244V305.772L645.995 335.322L643.601 335.778L643.601 306.756L465 307.25V336.5H463V307.255L462.803 307.256V307.253L285.211 307.746L285.211 321.949L285.211 334.725L282.812 334.275L282.812 321.499L282.812 306.775L282.812 306.253L283.646 306.251L462.8 305.753V277.775L462.803 277.776V277.228L463 277.191V277H464L465.197 276.772V278.224L465.2 278.225V305.744L645.156 305.247L645.995 305.244Z"/>
</mask>
<path fill-rule="evenodd" clip-rule="evenodd" d="M645.995 305.244V305.772L645.995 335.322L643.601 335.778L643.601 306.756L465 307.25V336.5H463V307.255L462.803 307.256V307.253L285.211 307.746L285.211 321.949L285.211 334.725L282.812 334.275L282.812 321.499L282.812 306.775L282.812 306.253L283.646 306.251L462.8 305.753V277.775L462.803 277.776V277.228L463 277.191V277H464L465.197 276.772V278.224L465.2 278.225V305.744L645.156 305.247L645.995 305.244Z" fill="black"/>
<path d="M645.995 305.772L644.995 305.772L644.995 305.772L645.995 305.772ZM645.995 305.244H646.995V304.242L645.992 304.244L645.995 305.244ZM645.995 335.322L646.182 336.304L646.995 336.149L646.995 335.322L645.995 335.322ZM643.601 335.778L642.601 335.778L642.601 336.987L643.789 336.76L643.601 335.778ZM643.601 306.756L644.601 306.756L644.601 305.753L643.598 305.756L643.601 306.756ZM465 307.25L464.997 306.25L464 306.252V307.25H465ZM465 336.5V337.5H466V336.5H465ZM463 336.5H462V337.5H463V336.5ZM463 307.255H464V306.252L462.997 306.255L463 307.255ZM462.803 307.256H461.803V308.258L462.806 308.256L462.803 307.256ZM462.803 307.253H463.803V306.25L462.8 306.253L462.803 307.253ZM285.211 307.746L285.208 306.746L284.211 306.749L284.211 307.746L285.211 307.746ZM285.211 321.949L284.211 321.949L284.211 321.949L285.211 321.949ZM285.211 334.725L285.027 335.708L286.211 335.93L286.211 334.725L285.211 334.725ZM282.812 334.275L281.812 334.275L281.812 335.105L282.628 335.258L282.812 334.275ZM282.812 321.499L281.812 321.499L281.812 321.499L282.812 321.499ZM282.812 306.775L281.812 306.775L281.812 306.775L282.812 306.775ZM282.812 306.253L282.809 305.253L281.812 305.256L281.812 306.253L282.812 306.253ZM283.646 306.251L283.649 307.251L283.649 307.251L283.646 306.251ZM462.8 305.753L462.803 306.753L463.8 306.751V305.753H462.8ZM462.8 277.775L462.985 276.792L461.8 276.57V277.775H462.8ZM462.803 277.776L462.619 278.758L463.803 278.981V277.776H462.803ZM462.803 277.228L462.616 276.246L461.803 276.401V277.228H462.803ZM463 277.191L463.187 278.173L464 278.018V277.191H463ZM463 277V276H462V277H463ZM464 277V278H464.095L464.187 277.982L464 277ZM465.197 276.772H466.197V275.563L465.01 275.79L465.197 276.772ZM465.197 278.224H464.197V279.054L465.013 279.207L465.197 278.224ZM465.2 278.225H466.2V277.395L465.384 277.242L465.2 278.225ZM465.2 305.744H464.2V306.747L465.202 306.744L465.2 305.744ZM645.156 305.247L645.159 306.247L645.159 306.247L645.156 305.247ZM646.995 305.772V305.244H644.995V305.772H646.995ZM646.995 335.322L646.995 305.772L644.995 305.772L644.995 335.322L646.995 335.322ZM643.789 336.76L646.182 336.304L645.808 334.339L643.414 334.796L643.789 336.76ZM642.601 306.756L642.601 335.778L644.601 335.778L644.601 306.756L642.601 306.756ZM465.003 308.25L643.604 307.756L643.598 305.756L464.997 306.25L465.003 308.25ZM466 336.5V307.25H464V336.5H466ZM463 337.5H465V335.5H463V337.5ZM462 307.255V336.5H464V307.255H462ZM462.806 308.256L463.003 308.255L462.997 306.255L462.8 306.256L462.806 308.256ZM461.803 307.253V307.256H463.803V307.253H461.803ZM462.8 306.253L285.208 306.746L285.214 308.746L462.806 308.253L462.8 306.253ZM284.211 307.746L284.211 321.949L286.211 321.949L286.211 307.746L284.211 307.746ZM284.211 321.949L284.211 334.725L286.211 334.725L286.211 321.949L284.211 321.949ZM285.396 333.742L282.996 333.292L282.628 335.258L285.027 335.708L285.396 333.742ZM283.812 334.275L283.812 321.499L281.812 321.499L281.812 334.275L283.812 334.275ZM283.812 321.499L283.812 306.775L281.812 306.775L281.812 321.499L283.812 321.499ZM283.812 306.775L283.812 306.253L281.812 306.253L281.812 306.775L283.812 306.775ZM282.815 307.253L283.649 307.251L283.644 305.251L282.809 305.253L282.815 307.253ZM283.649 307.251L462.803 306.753L462.798 304.753L283.644 305.251L283.649 307.251ZM463.8 305.753V277.775H461.8V305.753H463.8ZM462.616 278.758L462.619 278.758L462.987 276.793L462.985 276.792L462.616 278.758ZM461.803 277.228V277.776H463.803V277.228H461.803ZM462.813 276.208L462.616 276.246L462.99 278.21L463.187 278.173L462.813 276.208ZM462 277V277.191H464V277H462ZM464 276H463V278H464V276ZM465.01 275.79L463.813 276.018L464.187 277.982L465.384 277.754L465.01 275.79ZM466.197 278.224V276.772H464.197V278.224H466.197ZM465.013 279.207L465.015 279.208L465.384 277.242L465.381 277.241L465.013 279.207ZM464.2 278.225V305.744H466.2V278.225H464.2ZM645.153 304.247L465.197 304.744L465.202 306.744L645.159 306.247L645.153 304.247ZM645.992 304.244L645.153 304.247L645.159 306.247L645.998 306.244L645.992 304.244Z" fill="white" mask="url(#path-12-outside-2)"/>
<path fill-rule="evenodd" clip-rule="evenodd" d="M205 358.257C205 345.83 215.074 335.757 227.5 335.757H338.902C344.87 335.757 350.593 338.127 354.812 342.347C359.032 346.566 361.402 352.289 361.402 358.257C361.402 370.683 351.329 380.757 338.902 380.757H227.5C215.074 380.757 205 370.683 205 358.257Z" fill="#FCE5CD" stroke="#783F04" stroke-miterlimit="8" stroke-linejoin="round"/>
<path d="M262.934 364.757H261.308V355.247H262.934V364.757ZM261.176 352.724C261.176 352.461 261.255 352.238 261.413 352.057C261.577 351.875 261.817 351.784 262.134 351.784C262.45 351.784 262.69 351.875 262.854 352.057C263.019 352.238 263.101 352.461 263.101 352.724C263.101 352.988 263.019 353.208 262.854 353.384C262.69 353.559 262.45 353.647 262.134 353.647C261.817 353.647 261.577 353.559 261.413 353.384C261.255 353.208 261.176 352.988 261.176 352.724ZM265.148 359.923C265.148 358.464 265.494 357.292 266.186 356.407C266.877 355.516 267.782 355.071 268.901 355.071C270.015 355.071 270.896 355.452 271.547 356.214V351.257H273.173V364.757H271.679L271.6 363.737C270.949 364.534 270.044 364.932 268.884 364.932C267.782 364.932 266.883 364.481 266.186 363.579C265.494 362.677 265.148 361.499 265.148 360.046V359.923ZM266.774 360.107C266.774 361.185 266.997 362.029 267.442 362.639C267.888 363.248 268.503 363.553 269.288 363.553C270.319 363.553 271.072 363.09 271.547 362.164V357.796C271.061 356.899 270.313 356.451 269.306 356.451C268.509 356.451 267.888 356.759 267.442 357.374C266.997 357.989 266.774 358.9 266.774 360.107ZM283.14 357.602H275.81V356.187H283.14V357.602ZM283.14 361.25H275.81V359.844H283.14V361.25ZM285.803 355.563L284.88 354.931C285.425 354.169 285.706 353.366 285.724 352.522V351.257H287.332V352.399C287.326 352.985 287.18 353.571 286.893 354.157C286.611 354.737 286.248 355.206 285.803 355.563ZM288.501 355.563L287.578 354.931C288.123 354.169 288.404 353.366 288.422 352.522V351.257H290.03V352.399C290.024 352.985 289.878 353.571 289.591 354.157C289.31 354.737 288.946 355.206 288.501 355.563ZM300.067 360.107C300.067 361.56 299.733 362.729 299.065 363.614C298.397 364.493 297.501 364.932 296.376 364.932C295.175 364.932 294.246 364.508 293.59 363.658L293.511 364.757H292.017V351.257H293.643V356.293C294.299 355.478 295.204 355.071 296.358 355.071C297.513 355.071 298.418 355.508 299.074 356.381C299.736 357.254 300.067 358.449 300.067 359.967V360.107ZM298.441 359.923C298.441 358.815 298.228 357.96 297.8 357.356C297.372 356.753 296.757 356.451 295.954 356.451C294.882 356.451 294.111 356.949 293.643 357.945V362.058C294.141 363.055 294.917 363.553 295.972 363.553C296.751 363.553 297.357 363.251 297.791 362.647C298.225 362.044 298.441 361.136 298.441 359.923ZM302.08 355.563L301.157 354.931C301.702 354.169 301.983 353.366 302.001 352.522V351.257H303.609V352.399C303.604 352.985 303.457 353.571 303.17 354.157C302.889 354.737 302.525 355.206 302.08 355.563ZM304.778 355.563L303.855 354.931C304.4 354.169 304.682 353.366 304.699 352.522V351.257H306.308V352.399C306.302 352.985 306.155 353.571 305.868 354.157C305.587 354.737 305.224 355.206 304.778 355.563Z" fill="black"/>
<path fill-rule="evenodd" clip-rule="evenodd" d="M383 358.5C383 346.074 393.074 336 405.5 336H516.902C522.87 336 528.593 338.371 532.812 342.59C537.032 346.81 539.402 352.533 539.402 358.5C539.402 370.926 529.329 381 516.902 381H405.5C393.074 381 383 370.926 383 358.5Z" fill="#D6FCCD" stroke="#297804" stroke-miterlimit="8" stroke-linejoin="round"/>
<path d="M441.461 365H439.835V355.49H441.461V365ZM439.703 352.968C439.703 352.704 439.782 352.481 439.94 352.3C440.104 352.118 440.345 352.027 440.661 352.027C440.978 352.027 441.218 352.118 441.382 352.3C441.546 352.481 441.628 352.704 441.628 352.968C441.628 353.231 441.546 353.451 441.382 353.627C441.218 353.803 440.978 353.891 440.661 353.891C440.345 353.891 440.104 353.803 439.94 353.627C439.782 353.451 439.703 353.231 439.703 352.968ZM443.676 360.166C443.676 358.707 444.021 357.535 444.713 356.65C445.404 355.76 446.31 355.314 447.429 355.314C448.542 355.314 449.424 355.695 450.074 356.457V351.5H451.7V365H450.206L450.127 363.98C449.477 364.777 448.571 365.176 447.411 365.176C446.31 365.176 445.41 364.725 444.713 363.822C444.021 362.92 443.676 361.742 443.676 360.289V360.166ZM445.302 360.351C445.302 361.429 445.524 362.272 445.97 362.882C446.415 363.491 447.03 363.796 447.815 363.796C448.847 363.796 449.6 363.333 450.074 362.407V358.039C449.588 357.143 448.841 356.694 447.833 356.694C447.036 356.694 446.415 357.002 445.97 357.617C445.524 358.232 445.302 359.144 445.302 360.351ZM461.667 357.846H454.337V356.431H461.667V357.846ZM461.667 361.493H454.337V360.087H461.667V361.493ZM464.33 355.807L463.407 355.174C463.952 354.412 464.233 353.609 464.251 352.766V351.5H465.859V352.643C465.854 353.229 465.707 353.814 465.42 354.4C465.139 354.98 464.775 355.449 464.33 355.807ZM467.028 355.807L466.105 355.174C466.65 354.412 466.932 353.609 466.949 352.766V351.5H468.558V352.643C468.552 353.229 468.405 353.814 468.118 354.4C467.837 354.98 467.474 355.449 467.028 355.807ZM473.831 363.849C474.411 363.849 474.918 363.673 475.352 363.321C475.785 362.97 476.025 362.53 476.072 362.003H477.61C477.581 362.548 477.394 363.066 477.048 363.559C476.702 364.051 476.239 364.443 475.659 364.736C475.085 365.029 474.476 365.176 473.831 365.176C472.536 365.176 471.505 364.745 470.737 363.884C469.976 363.017 469.595 361.833 469.595 360.333V360.061C469.595 359.135 469.765 358.312 470.104 357.591C470.444 356.87 470.931 356.311 471.563 355.912C472.202 355.514 472.955 355.314 473.822 355.314C474.889 355.314 475.773 355.634 476.477 356.272C477.186 356.911 477.563 357.74 477.61 358.76H476.072C476.025 358.145 475.791 357.641 475.369 357.248C474.953 356.85 474.438 356.65 473.822 356.65C472.996 356.65 472.354 356.949 471.897 357.547C471.446 358.139 471.221 358.997 471.221 360.122V360.43C471.221 361.525 471.446 362.369 471.897 362.961C472.349 363.553 472.993 363.849 473.831 363.849ZM479.553 355.807L478.63 355.174C479.175 354.412 479.456 353.609 479.474 352.766V351.5H481.082V352.643C481.076 353.229 480.93 353.814 480.643 354.4C480.361 354.98 479.998 355.449 479.553 355.807ZM482.251 355.807L481.328 355.174C481.873 354.412 482.154 353.609 482.172 352.766V351.5H483.78V352.643C483.774 353.229 483.628 353.814 483.341 354.4C483.06 354.98 482.696 355.449 482.251 355.807Z" fill="black"/>
<path fill-rule="evenodd" clip-rule="evenodd" d="M561 358.5C561 346.074 571.074 336 583.5 336H694.902C700.87 336 706.593 338.371 710.812 342.59C715.032 346.81 717.402 352.533 717.402 358.5C717.402 370.926 707.329 381 694.902 381H583.5C571.074 381 561 370.926 561 358.5Z" fill="#D6FCCD" stroke="#297804" stroke-miterlimit="8" stroke-linejoin="round"/>
<path d="M619.461 365H617.835V355.49H619.461V365ZM617.703 352.968C617.703 352.704 617.782 352.481 617.94 352.3C618.104 352.118 618.345 352.027 618.661 352.027C618.978 352.027 619.218 352.118 619.382 352.3C619.546 352.481 619.628 352.704 619.628 352.968C619.628 353.231 619.546 353.451 619.382 353.627C619.218 353.803 618.978 353.891 618.661 353.891C618.345 353.891 618.104 353.803 617.94 353.627C617.782 353.451 617.703 353.231 617.703 352.968ZM621.676 360.166C621.676 358.707 622.021 357.535 622.713 356.65C623.404 355.76 624.31 355.314 625.429 355.314C626.542 355.314 627.424 355.695 628.074 356.457V351.5H629.7V365H628.206L628.127 363.98C627.477 364.777 626.571 365.176 625.411 365.176C624.31 365.176 623.41 364.725 622.713 363.822C622.021 362.92 621.676 361.742 621.676 360.289V360.166ZM623.302 360.351C623.302 361.429 623.524 362.272 623.97 362.882C624.415 363.491 625.03 363.796 625.815 363.796C626.847 363.796 627.6 363.333 628.074 362.407V358.039C627.588 357.143 626.841 356.694 625.833 356.694C625.036 356.694 624.415 357.002 623.97 357.617C623.524 358.232 623.302 359.144 623.302 360.351ZM639.667 357.846H632.337V356.431H639.667V357.846ZM639.667 361.493H632.337V360.087H639.667V361.493ZM642.33 355.807L641.407 355.174C641.952 354.412 642.233 353.609 642.251 352.766V351.5H643.859V352.643C643.854 353.229 643.707 353.814 643.42 354.4C643.139 354.98 642.775 355.449 642.33 355.807ZM645.028 355.807L644.105 355.174C644.65 354.412 644.932 353.609 644.949 352.766V351.5H646.558V352.643C646.552 353.229 646.405 353.814 646.118 354.4C645.837 354.98 645.474 355.449 645.028 355.807ZM651.831 363.849C652.411 363.849 652.918 363.673 653.352 363.321C653.785 362.97 654.025 362.53 654.072 362.003H655.61C655.581 362.548 655.394 363.066 655.048 363.559C654.702 364.051 654.239 364.443 653.659 364.736C653.085 365.029 652.476 365.176 651.831 365.176C650.536 365.176 649.505 364.745 648.737 363.884C647.976 363.017 647.595 361.833 647.595 360.333V360.061C647.595 359.135 647.765 358.312 648.104 357.591C648.444 356.87 648.931 356.311 649.563 355.912C650.202 355.514 650.955 355.314 651.822 355.314C652.889 355.314 653.773 355.634 654.477 356.272C655.186 356.911 655.563 357.74 655.61 358.76H654.072C654.025 358.145 653.791 357.641 653.369 357.248C652.953 356.85 652.438 356.65 651.822 356.65C650.996 356.65 650.354 356.949 649.897 357.547C649.446 358.139 649.221 358.997 649.221 360.122V360.43C649.221 361.525 649.446 362.369 649.897 362.961C650.349 363.553 650.993 363.849 651.831 363.849ZM657.553 355.807L656.63 355.174C657.175 354.412 657.456 353.609 657.474 352.766V351.5H659.082V352.643C659.076 353.229 658.93 353.814 658.643 354.4C658.361 354.98 657.998 355.449 657.553 355.807ZM660.251 355.807L659.328 355.174C659.873 354.412 660.154 353.609 660.172 352.766V351.5H661.78V352.643C661.774 353.229 661.628 353.814 661.341 354.4C661.06 354.98 660.696 355.449 660.251 355.807Z" fill="black"/>
<path fill-rule="evenodd" clip-rule="evenodd" d="M385 255.5C385 243.074 395.074 233 407.5 233H518.902C524.87 233 530.593 235.371 534.812 239.59C539.032 243.81 541.402 249.533 541.402 255.5C541.402 267.926 531.329 278 518.902 278H407.5C395.074 278 385 267.926 385 255.5Z" fill="#FCE5CD" stroke="#783F04" stroke-miterlimit="8" stroke-linejoin="round"/>
<path d="M450.923 256.823H447.917V262H446.221V249.203H450.457C451.898 249.203 453.006 249.531 453.779 250.188C454.559 250.844 454.948 251.799 454.948 253.053C454.948 253.85 454.731 254.544 454.298 255.136C453.87 255.728 453.272 256.17 452.505 256.463L455.511 261.895V262H453.7L450.923 256.823ZM447.917 255.443H450.51C451.348 255.443 452.013 255.227 452.505 254.793C453.003 254.359 453.252 253.779 453.252 253.053C453.252 252.262 453.015 251.655 452.54 251.233C452.071 250.812 451.392 250.598 450.501 250.592H447.917V255.443ZM456.636 257.157C456.636 256.226 456.817 255.388 457.181 254.644C457.55 253.899 458.06 253.325 458.71 252.921C459.366 252.517 460.113 252.314 460.951 252.314C462.246 252.314 463.292 252.763 464.089 253.659C464.892 254.556 465.293 255.748 465.293 257.236V257.351C465.293 258.276 465.114 259.108 464.757 259.847C464.405 260.579 463.898 261.15 463.236 261.561C462.58 261.971 461.824 262.176 460.969 262.176C459.68 262.176 458.634 261.728 457.831 260.831C457.034 259.935 456.636 258.748 456.636 257.271V257.157ZM458.271 257.351C458.271 258.405 458.514 259.252 459 259.891C459.492 260.529 460.148 260.849 460.969 260.849C461.795 260.849 462.451 260.526 462.938 259.882C463.424 259.231 463.667 258.323 463.667 257.157C463.667 256.114 463.418 255.271 462.92 254.626C462.428 253.976 461.771 253.65 460.951 253.65C460.148 253.65 459.501 253.97 459.009 254.608C458.517 255.247 458.271 256.161 458.271 257.351ZM466.901 257.157C466.901 256.226 467.083 255.388 467.446 254.644C467.815 253.899 468.325 253.325 468.976 252.921C469.632 252.517 470.379 252.314 471.217 252.314C472.512 252.314 473.558 252.763 474.354 253.659C475.157 254.556 475.559 255.748 475.559 257.236V257.351C475.559 258.276 475.38 259.108 475.022 259.847C474.671 260.579 474.164 261.15 473.502 261.561C472.846 261.971 472.09 262.176 471.234 262.176C469.945 262.176 468.899 261.728 468.097 260.831C467.3 259.935 466.901 258.748 466.901 257.271V257.157ZM468.536 257.351C468.536 258.405 468.779 259.252 469.266 259.891C469.758 260.529 470.414 260.849 471.234 260.849C472.061 260.849 472.717 260.526 473.203 259.882C473.689 259.231 473.933 258.323 473.933 257.157C473.933 256.114 473.684 255.271 473.186 254.626C472.693 253.976 472.037 253.65 471.217 253.65C470.414 253.65 469.767 253.97 469.274 254.608C468.782 255.247 468.536 256.161 468.536 257.351ZM479.804 250.188V252.49H481.579V253.747H479.804V259.645C479.804 260.025 479.883 260.312 480.041 260.506C480.199 260.693 480.469 260.787 480.85 260.787C481.037 260.787 481.295 260.752 481.623 260.682V262C481.195 262.117 480.779 262.176 480.375 262.176C479.648 262.176 479.101 261.956 478.731 261.517C478.362 261.077 478.178 260.453 478.178 259.645V253.747H476.446V252.49H478.178V250.188H479.804Z" fill="black"/>
<circle cx="125" cy="67" r="38" fill="#D6FCCD" stroke="#297804" stroke-width="2"/>
<path d="M137.035 66.5469C137.035 67.4062 136.892 68.2331 136.605 69.0273C136.319 69.8216 135.915 70.5247 135.395 71.1367C134.874 71.7487 134.255 72.237 133.539 72.6016C132.823 72.9661 132.029 73.1484 131.156 73.1484C130.544 73.1484 129.971 73.0898 129.438 72.9727C128.917 72.8555 128.402 72.6797 127.895 72.4453C127.4 72.2109 126.905 71.9245 126.41 71.5859C125.928 71.2474 125.427 70.8568 124.906 70.4141C124.19 69.8281 123.507 69.3659 122.855 69.0273C122.204 68.6758 121.514 68.5065 120.785 68.5195C120.329 68.5195 119.9 68.6172 119.496 68.8125C119.105 68.9948 118.767 69.2487 118.48 69.5742C118.194 69.8867 117.966 70.2643 117.797 70.707C117.628 71.1367 117.543 71.599 117.543 72.0938L114.926 71.7617C114.926 70.9023 115.069 70.082 115.355 69.3008C115.642 68.5195 116.039 67.8359 116.547 67.25C117.068 66.6641 117.686 66.2018 118.402 65.8633C119.118 65.5117 119.913 65.3359 120.785 65.3359C121.384 65.3359 121.951 65.401 122.484 65.5312C123.031 65.6484 123.559 65.8242 124.066 66.0586C124.574 66.293 125.069 66.5794 125.551 66.918C126.046 67.2565 126.547 67.6341 127.055 68.0508C127.797 68.6758 128.48 69.1576 129.105 69.4961C129.743 69.8216 130.427 69.9779 131.156 69.9648C131.612 69.9648 132.035 69.8607 132.426 69.6523C132.829 69.444 133.174 69.1706 133.461 68.832C133.76 68.4805 133.995 68.0768 134.164 67.6211C134.333 67.1654 134.418 66.6901 134.418 66.1953L137.035 66.5469Z" fill="#297804"/>
<path d="M29.8281 71.5938H25.7031L24.4531 78H22.2188L23.4688 71.5938H19.7344V69.4531H23.875L24.9531 63.9219H20.9219V61.75H25.375L26.6562 55.25H28.8906L27.6094 61.75H31.7344L33.0156 55.25H35.25L33.9688 61.75H37.1719V63.9219H33.5469L32.4688 69.4531H36V71.5938H32.0625L30.8125 78H28.5781L29.8281 71.5938ZM26.1094 69.4531H30.2344L31.3125 63.9219H27.1875L26.1094 69.4531ZM55.0469 69.7344C55.0469 70.9427 54.901 72.0729 54.6094 73.125C54.3177 74.1667 53.8906 75.0729 53.3281 75.8438C52.7656 76.6146 52.0677 77.2188 51.2344 77.6562C50.4115 78.0938 49.4635 78.3125 48.3906 78.3125C47.3073 78.3125 46.3646 78.1198 45.5625 77.7344C44.7708 77.349 44.0938 76.7969 43.5312 76.0781L43.3906 78H40.7344V54H43.625V62.9062C44.1771 62.2188 44.8438 61.6927 45.625 61.3281C46.4062 60.9635 47.3177 60.7812 48.3594 60.7812C49.4427 60.7812 50.401 60.9948 51.2344 61.4219C52.0677 61.849 52.7656 62.4427 53.3281 63.2031C53.8906 63.9635 54.3177 64.875 54.6094 65.9375C54.901 66.9896 55.0469 68.1458 55.0469 69.4062V69.7344ZM52.1562 69.4062C52.1562 68.5833 52.0729 67.8021 51.9062 67.0625C51.75 66.3125 51.4948 65.6562 51.1406 65.0938C50.7865 64.5208 50.3229 64.0677 49.75 63.7344C49.1771 63.401 48.474 63.2344 47.6406 63.2344C47.1406 63.2344 46.6823 63.3021 46.2656 63.4375C45.849 63.5625 45.474 63.7448 45.1406 63.9844C44.8177 64.2135 44.526 64.4896 44.2656 64.8125C44.0156 65.125 43.8021 65.4688 43.625 65.8438V73.2344C43.8125 73.6094 44.0312 73.9583 44.2812 74.2812C44.5417 74.5938 44.8385 74.8698 45.1719 75.1094C45.5052 75.349 45.8802 75.5365 46.2969 75.6719C46.7135 75.7969 47.1719 75.8594 47.6719 75.8594C48.4635 75.8594 49.1406 75.6979 49.7031 75.375C50.276 75.0417 50.7396 74.5938 51.0938 74.0312C51.4583 73.4688 51.724 72.8177 51.8906 72.0781C52.0677 71.3385 52.1562 70.5573 52.1562 69.7344V69.4062Z" fill="black"/>
<rect x="0.5" y="262.5" width="73" height="73" rx="4.5" fill="white" stroke="black"/>
<path d="M29.8281 303.594H25.7031L24.4531 310H22.2188L23.4688 303.594H19.7344V301.453H23.875L24.9531 295.922H20.9219V293.75H25.375L26.6562 287.25H28.8906L27.6094 293.75H31.7344L33.0156 287.25H35.25L33.9688 293.75H37.1719V295.922H33.5469L32.4688 301.453H36V303.594H32.0625L30.8125 310H28.5781L29.8281 303.594ZM26.1094 301.453H30.2344L31.3125 295.922H27.1875L26.1094 301.453ZM55.0469 301.734C55.0469 302.943 54.901 304.073 54.6094 305.125C54.3177 306.167 53.8906 307.073 53.3281 307.844C52.7656 308.615 52.0677 309.219 51.2344 309.656C50.4115 310.094 49.4635 310.312 48.3906 310.312C47.3073 310.312 46.3646 310.12 45.5625 309.734C44.7708 309.349 44.0938 308.797 43.5312 308.078L43.3906 310H40.7344V286H43.625V294.906C44.1771 294.219 44.8438 293.693 45.625 293.328C46.4062 292.964 47.3177 292.781 48.3594 292.781C49.4427 292.781 50.401 292.995 51.2344 293.422C52.0677 293.849 52.7656 294.443 53.3281 295.203C53.8906 295.964 54.3177 296.875 54.6094 297.938C54.901 298.99 55.0469 300.146 55.0469 301.406V301.734ZM52.1562 301.406C52.1562 300.583 52.0729 299.802 51.9062 299.062C51.75 298.312 51.4948 297.656 51.1406 297.094C50.7865 296.521 50.3229 296.068 49.75 295.734C49.1771 295.401 48.474 295.234 47.6406 295.234C47.1406 295.234 46.6823 295.302 46.2656 295.438C45.849 295.562 45.474 295.745 45.1406 295.984C44.8177 296.214 44.526 296.49 44.2656 296.812C44.0156 297.125 43.8021 297.469 43.625 297.844V305.234C43.8125 305.609 44.0312 305.958 44.2812 306.281C44.5417 306.594 44.8385 306.87 45.1719 307.109C45.5052 307.349 45.8802 307.536 46.2969 307.672C46.7135 307.797 47.1719 307.859 47.6719 307.859C48.4635 307.859 49.1406 307.698 49.7031 307.375C50.276 307.042 50.7396 306.594 51.0938 306.031C51.4583 305.469 51.724 304.818 51.8906 304.078C52.0677 303.339 52.1562 302.557 52.1562 301.734V301.406Z" fill="black"/>
<circle cx="125" cy="299" r="38" fill="#D6FCCD" stroke="#297804" stroke-width="2"/>
<path d="M127.855 297.746H135.805V301.34H127.855V310.148H124.242V301.34H116.312V297.746H124.242V289.445H127.855V297.746Z" fill="#297804"/>
</svg>
