<svg width="396" height="167" viewBox="0 0 396 167" fill="none" xmlns="http://www.w3.org/2000/svg">
<mask id="path-1-outside-1" maskUnits="userSpaceOnUse" x="77.2205" y="44.5498" width="242" height="123" fill="black">
<rect fill="white" x="77.2205" y="44.5498" width="242" height="123"/>
<path fill-rule="evenodd" clip-rule="evenodd" d="M318.218 72.9916L318.218 74L318.218 103.55L316.218 103.55L316.218 75.0084L198.221 75.9917V76H197.222H197.221L196.218 76.0084V76L80.2205 76L80.2205 104.449L78.2205 104.449L78.2205 75L78.2205 74H79.2205L196.218 74V45.5498H198.218V46.4487H198.22L198.221 73.9916L317.209 73L318.218 72.9916ZM168.293 124.293C167.902 124.683 167.902 125.317 168.293 125.707L174.657 132.071C175.047 132.462 175.681 132.462 176.071 132.071C176.462 131.681 176.462 131.047 176.071 130.657L171.414 126H224.586L219.929 130.657C219.538 131.047 219.538 131.681 219.929 132.071C220.319 132.462 220.953 132.462 221.343 132.071L227.707 125.707C228.098 125.317 228.098 124.683 227.707 124.293L221.343 117.929C220.953 117.538 220.319 117.538 219.929 117.929C219.538 118.319 219.538 118.953 219.929 119.343L224.586 124H171.414L176.071 119.343C176.462 118.953 176.462 118.319 176.071 117.929C175.681 117.538 175.047 117.538 174.657 117.929L168.293 124.293ZM168.969 154.767C169.631 155.37 170.686 155.88 172.133 156.296C173.287 156.63 174.084 156.97 174.523 157.315C174.963 157.655 175.183 158.139 175.183 158.766C175.183 159.393 174.945 159.888 174.471 160.251C173.996 160.614 173.313 160.796 172.423 160.796C171.468 160.796 170.703 160.573 170.129 160.128C169.561 159.677 169.276 159.064 169.276 158.291H167.58C167.58 159.035 167.785 159.7 168.195 160.286C168.611 160.872 169.2 161.335 169.962 161.675C170.724 162.009 171.544 162.176 172.423 162.176C173.776 162.176 174.857 161.865 175.666 161.244C176.475 160.617 176.879 159.785 176.879 158.748C176.879 158.098 176.732 157.532 176.439 157.052C176.152 156.571 175.707 156.152 175.104 155.795C174.506 155.432 173.674 155.101 172.607 154.802C171.547 154.503 170.794 154.175 170.349 153.817C169.909 153.454 169.689 153.012 169.689 152.49C169.689 151.84 169.921 151.333 170.384 150.97C170.853 150.601 171.503 150.416 172.335 150.416C173.231 150.416 173.926 150.639 174.418 151.084C174.91 151.523 175.156 152.13 175.156 152.903H176.853C176.853 152.194 176.662 151.541 176.281 150.943C175.906 150.346 175.373 149.877 174.682 149.537C173.996 149.197 173.214 149.027 172.335 149.027C171.046 149.027 169.997 149.358 169.188 150.021C168.386 150.677 167.984 151.509 167.984 152.517C167.984 153.407 168.313 154.157 168.969 154.767ZM178.936 162H180.562V152.49H178.936V162ZM179.041 149.3C178.883 149.481 178.804 149.704 178.804 149.968C178.804 150.231 178.883 150.451 179.041 150.627C179.205 150.803 179.445 150.891 179.762 150.891C180.078 150.891 180.318 150.803 180.482 150.627C180.647 150.451 180.729 150.231 180.729 149.968C180.729 149.704 180.647 149.481 180.482 149.3C180.318 149.118 180.078 149.027 179.762 149.027C179.445 149.027 179.205 149.118 179.041 149.3ZM190.221 160.857C190.889 159.973 191.223 158.804 191.223 157.351V157.21C191.223 155.692 190.892 154.497 190.23 153.624C189.573 152.751 188.668 152.314 187.514 152.314C186.359 152.314 185.454 152.722 184.798 153.536V148.5H183.172V162H184.666L184.745 160.901C185.401 161.751 186.33 162.176 187.531 162.176C188.656 162.176 189.553 161.736 190.221 160.857ZM188.955 154.6C189.383 155.203 189.597 156.059 189.597 157.166C189.597 158.379 189.38 159.287 188.946 159.891C188.513 160.494 187.906 160.796 187.127 160.796C186.072 160.796 185.296 160.298 184.798 159.302V155.188C185.267 154.192 186.037 153.694 187.109 153.694C187.912 153.694 188.527 153.996 188.955 154.6ZM193.42 162H195.046V148.5H193.42V162ZM197.797 162H199.423V152.49H197.797V162ZM197.902 149.3C197.744 149.481 197.665 149.704 197.665 149.968C197.665 150.231 197.744 150.451 197.902 150.627C198.066 150.803 198.307 150.891 198.623 150.891C198.939 150.891 199.18 150.803 199.344 150.627C199.508 150.451 199.59 150.231 199.59 149.968C199.59 149.704 199.508 149.481 199.344 149.3C199.18 149.118 198.939 149.027 198.623 149.027C198.307 149.027 198.066 149.118 197.902 149.3ZM203.624 153.686L203.571 152.49H202.033V162H203.659V155.224C203.882 154.767 204.192 154.397 204.591 154.116C204.989 153.835 205.452 153.694 205.98 153.694C206.63 153.694 207.107 153.858 207.412 154.187C207.723 154.515 207.881 155.021 207.887 155.707V162H209.513V155.716C209.495 153.448 208.481 152.314 206.472 152.314C205.3 152.314 204.351 152.771 203.624 153.686ZM212.606 153.633C211.921 154.506 211.578 155.684 211.578 157.166C211.578 158.713 211.921 159.935 212.606 160.831C213.298 161.728 214.2 162.176 215.313 162.176C216.438 162.176 217.326 161.801 217.977 161.051V161.868C217.977 162.677 217.754 163.304 217.309 163.749C216.869 164.194 216.254 164.417 215.463 164.417C214.455 164.417 213.603 163.986 212.905 163.125L212.062 164.101C212.407 164.61 212.908 165.012 213.564 165.305C214.221 165.598 214.892 165.744 215.577 165.744C216.808 165.744 217.786 165.39 218.513 164.681C219.245 163.972 219.611 163.002 219.611 161.771V152.49H218.126L218.047 153.545C217.396 152.725 216.491 152.314 215.331 152.314C214.2 152.314 213.292 152.754 212.606 153.633ZM213.872 159.882C213.433 159.267 213.213 158.423 213.213 157.351C213.213 156.144 213.436 155.232 213.881 154.617C214.326 154.002 214.944 153.694 215.735 153.694C216.731 153.694 217.479 154.148 217.977 155.057V159.398C217.496 160.33 216.743 160.796 215.718 160.796C214.927 160.796 214.312 160.491 213.872 159.882ZM227.108 158.458C227.442 158.698 227.609 159.038 227.609 159.478C227.609 159.894 227.422 160.228 227.047 160.479C226.678 160.726 226.186 160.849 225.57 160.849C224.902 160.849 224.363 160.69 223.953 160.374C223.549 160.052 223.332 159.618 223.303 159.073H221.677C221.677 159.636 221.841 160.16 222.169 160.646C222.503 161.127 222.963 161.502 223.549 161.771C224.135 162.041 224.809 162.176 225.57 162.176C226.654 162.176 227.536 161.921 228.216 161.411C228.896 160.896 229.235 160.213 229.235 159.363C229.235 158.854 229.112 158.423 228.866 158.071C228.626 157.714 228.254 157.409 227.75 157.157C227.246 156.905 226.587 156.688 225.772 156.507C224.964 156.325 224.404 156.135 224.094 155.936C223.783 155.736 223.628 155.44 223.628 155.048C223.628 154.632 223.795 154.295 224.129 154.037C224.463 153.779 224.926 153.65 225.518 153.65C226.092 153.65 226.566 153.812 226.941 154.134C227.322 154.456 227.513 154.84 227.513 155.285H229.147C229.147 154.418 228.811 153.706 228.137 153.149C227.469 152.593 226.596 152.314 225.518 152.314C224.492 152.314 223.648 152.584 222.986 153.123C222.33 153.662 222.002 154.321 222.002 155.101C222.002 155.569 222.116 155.974 222.345 156.313C222.579 156.653 222.937 156.946 223.417 157.192C223.903 157.438 224.557 157.649 225.377 157.825C226.203 158.001 226.78 158.212 227.108 158.458Z"/>
</mask>
<path fill-rule="evenodd" clip-rule="evenodd" d="M318.218 72.9916L318.218 74L318.218 103.55L316.218 103.55L316.218 75.0084L198.221 75.9917V76H197.222H197.221L196.218 76.0084V76L80.2205 76L80.2205 104.449L78.2205 104.449L78.2205 75L78.2205 74H79.2205L196.218 74V45.5498H198.218V46.4487H198.22L198.221 73.9916L317.209 73L318.218 72.9916ZM168.293 124.293C167.902 124.683 167.902 125.317 168.293 125.707L174.657 132.071C175.047 132.462 175.681 132.462 176.071 132.071C176.462 131.681 176.462 131.047 176.071 130.657L171.414 126H224.586L219.929 130.657C219.538 131.047 219.538 131.681 219.929 132.071C220.319 132.462 220.953 132.462 221.343 132.071L227.707 125.707C228.098 125.317 228.098 124.683 227.707 124.293L221.343 117.929C220.953 117.538 220.319 117.538 219.929 117.929C219.538 118.319 219.538 118.953 219.929 119.343L224.586 124H171.414L176.071 119.343C176.462 118.953 176.462 118.319 176.071 117.929C175.681 117.538 175.047 117.538 174.657 117.929L168.293 124.293ZM168.969 154.767C169.631 155.37 170.686 155.88 172.133 156.296C173.287 156.63 174.084 156.97 174.523 157.315C174.963 157.655 175.183 158.139 175.183 158.766C175.183 159.393 174.945 159.888 174.471 160.251C173.996 160.614 173.313 160.796 172.423 160.796C171.468 160.796 170.703 160.573 170.129 160.128C169.561 159.677 169.276 159.064 169.276 158.291H167.58C167.58 159.035 167.785 159.7 168.195 160.286C168.611 160.872 169.2 161.335 169.962 161.675C170.724 162.009 171.544 162.176 172.423 162.176C173.776 162.176 174.857 161.865 175.666 161.244C176.475 160.617 176.879 159.785 176.879 158.748C176.879 158.098 176.732 157.532 176.439 157.052C176.152 156.571 175.707 156.152 175.104 155.795C174.506 155.432 173.674 155.101 172.607 154.802C171.547 154.503 170.794 154.175 170.349 153.817C169.909 153.454 169.689 153.012 169.689 152.49C169.689 151.84 169.921 151.333 170.384 150.97C170.853 150.601 171.503 150.416 172.335 150.416C173.231 150.416 173.926 150.639 174.418 151.084C174.91 151.523 175.156 152.13 175.156 152.903H176.853C176.853 152.194 176.662 151.541 176.281 150.943C175.906 150.346 175.373 149.877 174.682 149.537C173.996 149.197 173.214 149.027 172.335 149.027C171.046 149.027 169.997 149.358 169.188 150.021C168.386 150.677 167.984 151.509 167.984 152.517C167.984 153.407 168.313 154.157 168.969 154.767ZM178.936 162H180.562V152.49H178.936V162ZM179.041 149.3C178.883 149.481 178.804 149.704 178.804 149.968C178.804 150.231 178.883 150.451 179.041 150.627C179.205 150.803 179.445 150.891 179.762 150.891C180.078 150.891 180.318 150.803 180.482 150.627C180.647 150.451 180.729 150.231 180.729 149.968C180.729 149.704 180.647 149.481 180.482 149.3C180.318 149.118 180.078 149.027 179.762 149.027C179.445 149.027 179.205 149.118 179.041 149.3ZM190.221 160.857C190.889 159.973 191.223 158.804 191.223 157.351V157.21C191.223 155.692 190.892 154.497 190.23 153.624C189.573 152.751 188.668 152.314 187.514 152.314C186.359 152.314 185.454 152.722 184.798 153.536V148.5H183.172V162H184.666L184.745 160.901C185.401 161.751 186.33 162.176 187.531 162.176C188.656 162.176 189.553 161.736 190.221 160.857ZM188.955 154.6C189.383 155.203 189.597 156.059 189.597 157.166C189.597 158.379 189.38 159.287 188.946 159.891C188.513 160.494 187.906 160.796 187.127 160.796C186.072 160.796 185.296 160.298 184.798 159.302V155.188C185.267 154.192 186.037 153.694 187.109 153.694C187.912 153.694 188.527 153.996 188.955 154.6ZM193.42 162H195.046V148.5H193.42V162ZM197.797 162H199.423V152.49H197.797V162ZM197.902 149.3C197.744 149.481 197.665 149.704 197.665 149.968C197.665 150.231 197.744 150.451 197.902 150.627C198.066 150.803 198.307 150.891 198.623 150.891C198.939 150.891 199.18 150.803 199.344 150.627C199.508 150.451 199.59 150.231 199.59 149.968C199.59 149.704 199.508 149.481 199.344 149.3C199.18 149.118 198.939 149.027 198.623 149.027C198.307 149.027 198.066 149.118 197.902 149.3ZM203.624 153.686L203.571 152.49H202.033V162H203.659V155.224C203.882 154.767 204.192 154.397 204.591 154.116C204.989 153.835 205.452 153.694 205.98 153.694C206.63 153.694 207.107 153.858 207.412 154.187C207.723 154.515 207.881 155.021 207.887 155.707V162H209.513V155.716C209.495 153.448 208.481 152.314 206.472 152.314C205.3 152.314 204.351 152.771 203.624 153.686ZM212.606 153.633C211.921 154.506 211.578 155.684 211.578 157.166C211.578 158.713 211.921 159.935 212.606 160.831C213.298 161.728 214.2 162.176 215.313 162.176C216.438 162.176 217.326 161.801 217.977 161.051V161.868C217.977 162.677 217.754 163.304 217.309 163.749C216.869 164.194 216.254 164.417 215.463 164.417C214.455 164.417 213.603 163.986 212.905 163.125L212.062 164.101C212.407 164.61 212.908 165.012 213.564 165.305C214.221 165.598 214.892 165.744 215.577 165.744C216.808 165.744 217.786 165.39 218.513 164.681C219.245 163.972 219.611 163.002 219.611 161.771V152.49H218.126L218.047 153.545C217.396 152.725 216.491 152.314 215.331 152.314C214.2 152.314 213.292 152.754 212.606 153.633ZM213.872 159.882C213.433 159.267 213.213 158.423 213.213 157.351C213.213 156.144 213.436 155.232 213.881 154.617C214.326 154.002 214.944 153.694 215.735 153.694C216.731 153.694 217.479 154.148 217.977 155.057V159.398C217.496 160.33 216.743 160.796 215.718 160.796C214.927 160.796 214.312 160.491 213.872 159.882ZM227.108 158.458C227.442 158.698 227.609 159.038 227.609 159.478C227.609 159.894 227.422 160.228 227.047 160.479C226.678 160.726 226.186 160.849 225.57 160.849C224.902 160.849 224.363 160.69 223.953 160.374C223.549 160.052 223.332 159.618 223.303 159.073H221.677C221.677 159.636 221.841 160.16 222.169 160.646C222.503 161.127 222.963 161.502 223.549 161.771C224.135 162.041 224.809 162.176 225.57 162.176C226.654 162.176 227.536 161.921 228.216 161.411C228.896 160.896 229.235 160.213 229.235 159.363C229.235 158.854 229.112 158.423 228.866 158.071C228.626 157.714 228.254 157.409 227.75 157.157C227.246 156.905 226.587 156.688 225.772 156.507C224.964 156.325 224.404 156.135 224.094 155.936C223.783 155.736 223.628 155.44 223.628 155.048C223.628 154.632 223.795 154.295 224.129 154.037C224.463 153.779 224.926 153.65 225.518 153.65C226.092 153.65 226.566 153.812 226.941 154.134C227.322 154.456 227.513 154.84 227.513 155.285H229.147C229.147 154.418 228.811 153.706 228.137 153.149C227.469 152.593 226.596 152.314 225.518 152.314C224.492 152.314 223.648 152.584 222.986 153.123C222.33 153.662 222.002 154.321 222.002 155.101C222.002 155.569 222.116 155.974 222.345 156.313C222.579 156.653 222.937 156.946 223.417 157.192C223.903 157.438 224.557 157.649 225.377 157.825C226.203 158.001 226.78 158.212 227.108 158.458Z" fill="black"/>
<path d="M318.218 74L319.218 74L319.218 74L318.218 74ZM318.218 72.9916L319.218 72.9916L319.218 71.9833L318.209 71.9917L318.218 72.9916ZM318.218 103.55L318.218 104.55L319.218 104.55L319.218 103.55L318.218 103.55ZM316.218 103.55L315.218 103.55L315.218 104.55L316.218 104.55L316.218 103.55ZM316.218 75.0084L317.218 75.0084L317.218 74L316.209 74.0084L316.218 75.0084ZM198.221 75.9917L198.212 74.9917L197.221 75V75.9917H198.221ZM198.221 76V77H199.221V76H198.221ZM197.221 76V75L197.212 75L197.221 76ZM196.218 76.0084H195.218V77.0168L196.226 77.0083L196.218 76.0084ZM196.218 76H197.218V75L196.218 75L196.218 76ZM80.2205 76L80.2205 75L79.2205 75L79.2205 76L80.2205 76ZM80.2205 104.449L80.2205 105.449L81.2205 105.449L81.2205 104.449L80.2205 104.449ZM78.2205 104.449L77.2205 104.449L77.2205 105.449L78.2205 105.449L78.2205 104.449ZM78.2205 75L79.2205 75L79.2205 75L78.2205 75ZM78.2205 74V73H77.2205L77.2205 74L78.2205 74ZM79.2205 74L79.2205 73H79.2205V74ZM196.218 74L196.218 75L197.218 75V74H196.218ZM196.218 45.5498V44.5498H195.218V45.5498H196.218ZM198.218 45.5498H199.218V44.5498H198.218V45.5498ZM198.218 46.4487H197.218V47.4487H198.218V46.4487ZM198.22 46.4487L199.22 46.4487L199.22 45.4487H198.22V46.4487ZM198.221 73.9916L197.221 73.9916L197.221 75L198.229 74.9916L198.221 73.9916ZM317.209 73L317.218 74L317.218 74L317.209 73ZM171.414 126V125H169L170.707 126.707L171.414 126ZM224.586 126L225.293 126.707L227 125H224.586V126ZM219.929 130.657L219.222 129.95L219.222 129.95L219.929 130.657ZM221.343 132.071L220.636 131.364L220.636 131.364L221.343 132.071ZM227.707 125.707L228.414 126.414L228.414 126.414L227.707 125.707ZM227.707 124.293L228.414 123.586L228.414 123.586L227.707 124.293ZM221.343 117.929L220.636 118.636L220.636 118.636L221.343 117.929ZM219.929 119.343L219.222 120.05L219.222 120.05L219.929 119.343ZM224.586 124V125H227L225.293 123.293L224.586 124ZM171.414 124L170.707 123.293L169 125H171.414V124ZM172.133 156.296L172.411 155.335L172.409 155.335L172.133 156.296ZM168.969 154.767L168.288 155.499L168.295 155.506L168.969 154.767ZM174.523 157.315L173.905 158.101L173.912 158.106L174.523 157.315ZM170.129 160.128L169.507 160.911L169.516 160.918L170.129 160.128ZM169.276 158.291H170.276V157.291H169.276V158.291ZM167.58 158.291V157.291H166.58V158.291H167.58ZM168.195 160.286L167.376 160.86L167.38 160.865L168.195 160.286ZM169.962 161.675L169.554 162.588L169.56 162.591L169.962 161.675ZM175.666 161.244L176.275 162.037L176.279 162.034L175.666 161.244ZM176.439 157.052L175.581 157.565L175.586 157.572L176.439 157.052ZM175.104 155.795L174.584 156.65L174.594 156.655L175.104 155.795ZM172.607 154.802L172.336 155.764L172.338 155.765L172.607 154.802ZM170.349 153.817L169.712 154.588L169.717 154.593L169.723 154.597L170.349 153.817ZM170.384 150.97L171.001 151.756L171.002 151.755L170.384 150.97ZM174.418 151.084L173.747 151.826L173.752 151.83L174.418 151.084ZM175.156 152.903H174.156V153.903H175.156V152.903ZM176.853 152.903V153.903H177.853V152.903H176.853ZM176.281 150.943L175.434 151.475L175.438 151.481L176.281 150.943ZM174.682 149.537L174.238 150.433L174.241 150.435L174.682 149.537ZM169.188 150.021L169.821 150.795L169.822 150.794L169.188 150.021ZM180.562 162V163H181.562V162H180.562ZM178.936 162H177.936V163H178.936V162ZM180.562 152.49H181.562V151.49H180.562V152.49ZM178.936 152.49V151.49H177.936V152.49H178.936ZM179.041 149.3L178.299 148.63L178.293 148.636L178.287 148.643L179.041 149.3ZM179.041 150.627L178.298 151.296L178.304 151.303L178.31 151.309L179.041 150.627ZM190.221 160.857L191.017 161.463L191.019 161.46L190.221 160.857ZM190.23 153.624L189.43 154.225L189.433 154.228L190.23 153.624ZM184.798 153.536H183.798V156.371L185.577 154.164L184.798 153.536ZM184.798 148.5H185.798V147.5H184.798V148.5ZM183.172 148.5V147.5H182.172V148.5H183.172ZM183.172 162H182.172V163H183.172V162ZM184.666 162V163H185.597L185.663 162.072L184.666 162ZM184.745 160.901L185.537 160.29L183.936 158.218L183.748 160.83L184.745 160.901ZM184.798 159.302H183.798V159.538L183.903 159.749L184.798 159.302ZM184.798 155.188L183.893 154.763L183.798 154.965V155.188H184.798ZM195.046 162V163H196.046V162H195.046ZM193.42 162H192.42V163H193.42V162ZM195.046 148.5H196.046V147.5H195.046V148.5ZM193.42 148.5V147.5H192.42V148.5H193.42ZM199.423 162V163H200.423V162H199.423ZM197.797 162H196.797V163H197.797V162ZM199.423 152.49H200.423V151.49H199.423V152.49ZM197.797 152.49V151.49H196.797V152.49H197.797ZM197.902 149.3L197.16 148.63L197.154 148.636L197.148 148.643L197.902 149.3ZM197.902 150.627L197.159 151.296L197.165 151.303L197.171 151.309L197.902 150.627ZM203.571 152.49L204.57 152.446L204.528 151.49H203.571V152.49ZM203.624 153.686L202.625 153.73L202.743 156.401L204.407 154.308L203.624 153.686ZM202.033 152.49V151.49H201.033V152.49H202.033ZM202.033 162H201.033V163H202.033V162ZM203.659 162V163H204.659V162H203.659ZM203.659 155.224L202.76 154.786L202.659 154.993V155.224H203.659ZM207.412 154.187L206.679 154.867L206.686 154.874L207.412 154.187ZM207.887 155.707H208.887L208.887 155.698L207.887 155.707ZM207.887 162H206.887V163H207.887V162ZM209.513 162V163H210.513V162H209.513ZM209.513 155.716L210.513 155.716L210.513 155.708L209.513 155.716ZM212.606 153.633L213.393 154.25L213.395 154.248L212.606 153.633ZM212.606 160.831L211.812 161.439L211.815 161.442L212.606 160.831ZM217.977 161.051H218.977V158.371L217.221 160.396L217.977 161.051ZM217.309 163.749L216.601 163.042L216.597 163.047L217.309 163.749ZM212.905 163.125L213.683 162.496L212.931 161.567L212.149 162.471L212.905 163.125ZM212.062 164.101L211.305 163.446L210.803 164.027L211.234 164.662L212.062 164.101ZM218.513 164.681L217.817 163.962L217.814 163.965L218.513 164.681ZM219.611 152.49H220.611V151.49H219.611V152.49ZM218.126 152.49V151.49H217.198L217.129 152.415L218.126 152.49ZM218.047 153.545L217.263 154.166L218.853 156.171L219.044 153.62L218.047 153.545ZM213.872 159.882L213.058 160.463L213.061 160.467L213.872 159.882ZM217.977 155.057H218.977V154.8L218.853 154.576L217.977 155.057ZM217.977 159.398L218.865 159.857L218.977 159.641V159.398H217.977ZM227.108 158.458L226.508 159.258L226.516 159.264L226.524 159.27L227.108 158.458ZM227.047 160.479L227.602 161.312L227.605 161.31L227.047 160.479ZM223.953 160.374L223.33 161.156L223.336 161.161L223.342 161.166L223.953 160.374ZM223.303 159.073L224.301 159.02L224.25 158.073H223.303V159.073ZM221.677 159.073V158.073H220.677V159.073H221.677ZM222.169 160.646L221.34 161.206L221.348 161.217L222.169 160.646ZM228.216 161.411L228.816 162.211L228.82 162.208L228.216 161.411ZM228.866 158.071L228.036 158.629L228.042 158.637L228.047 158.645L228.866 158.071ZM225.772 156.507L225.553 157.483L225.555 157.483L225.772 156.507ZM226.941 154.134L226.29 154.892L226.295 154.897L226.941 154.134ZM227.513 155.285H226.513V156.285H227.513V155.285ZM229.147 155.285V156.285H230.147V155.285H229.147ZM228.137 153.149L227.497 153.918L227.5 153.92L228.137 153.149ZM222.986 153.123L222.355 152.348L222.352 152.35L222.986 153.123ZM222.345 156.313L221.515 156.872L221.522 156.881L222.345 156.313ZM223.417 157.192L222.961 158.082L222.965 158.085L223.417 157.192ZM225.377 157.825L225.167 158.803L225.169 158.803L225.377 157.825ZM319.218 74L319.218 72.9916L317.218 72.9916L317.218 74L319.218 74ZM319.218 103.55L319.218 74L317.218 74L317.218 103.55L319.218 103.55ZM316.218 104.55L318.218 104.55L318.218 102.55L316.218 102.55L316.218 104.55ZM315.218 75.0084L315.218 103.55L317.218 103.55L317.218 75.0084L315.218 75.0084ZM198.229 76.9916L316.226 76.0083L316.209 74.0084L198.212 74.9917L198.229 76.9916ZM197.221 75.9917V76H199.221V75.9917H197.221ZM198.221 75H197.222V77H198.221V75ZM197.221 77H197.222V75H197.221V77ZM196.226 77.0083L197.229 77L197.212 75L196.209 75.0084L196.226 77.0083ZM195.218 76V76.0084H197.218V76H195.218ZM196.218 75L80.2205 75L80.2205 77L196.218 77L196.218 75ZM79.2205 76L79.2205 104.449L81.2205 104.449L81.2205 76L79.2205 76ZM80.2205 103.449L78.2205 103.449L78.2205 105.449L80.2205 105.449L80.2205 103.449ZM79.2205 104.449L79.2205 75L77.2205 75L77.2205 104.449L79.2205 104.449ZM79.2205 75L79.2205 74L77.2205 74L77.2205 75L79.2205 75ZM78.2205 75H79.2205V73H78.2205V75ZM79.2205 75L196.218 75L196.218 73L79.2205 73L79.2205 75ZM195.218 45.5498V74H197.218V45.5498H195.218ZM198.218 44.5498H196.218V46.5498H198.218V44.5498ZM199.218 46.4487V45.5498H197.218V46.4487H199.218ZM198.218 47.4487H198.22V45.4487H198.218V47.4487ZM197.22 46.4487L197.221 73.9916L199.221 73.9916L199.22 46.4487L197.22 46.4487ZM317.201 72.0001L198.212 72.9916L198.229 74.9916L317.218 74L317.201 72.0001ZM318.209 71.9917L317.201 72.0001L317.218 74L318.226 73.9916L318.209 71.9917ZM169 125V125L167.586 123.586C166.805 124.367 166.805 125.633 167.586 126.414L169 125ZM175.364 131.364L169 125L167.586 126.414L173.95 132.778L175.364 131.364ZM175.364 131.364H175.364L173.95 132.778C174.731 133.559 175.997 133.559 176.778 132.778L175.364 131.364ZM175.364 131.364V131.364L176.778 132.778C177.559 131.997 177.559 130.731 176.778 129.95L175.364 131.364ZM170.707 126.707L175.364 131.364L176.778 129.95L172.121 125.293L170.707 126.707ZM224.586 125H171.414V127H224.586V125ZM220.636 131.364L225.293 126.707L223.879 125.293L219.222 129.95L220.636 131.364ZM220.636 131.364V131.364L219.222 129.95C218.441 130.731 218.441 131.997 219.222 132.778L220.636 131.364ZM220.636 131.364H220.636L219.222 132.778C220.003 133.559 221.269 133.559 222.05 132.778L220.636 131.364ZM227 125L220.636 131.364L222.05 132.778L228.414 126.414L227 125ZM227 125V125L228.414 126.414C229.195 125.633 229.195 124.367 228.414 123.586L227 125ZM220.636 118.636L227 125L228.414 123.586L222.05 117.222L220.636 118.636ZM220.636 118.636H220.636L222.05 117.222C221.269 116.441 220.003 116.441 219.222 117.222L220.636 118.636ZM220.636 118.636V118.636L219.222 117.222C218.441 118.003 218.441 119.269 219.222 120.05L220.636 118.636ZM225.293 123.293L220.636 118.636L219.222 120.05L223.879 124.707L225.293 123.293ZM171.414 125H224.586V123H171.414V125ZM175.364 118.636L170.707 123.293L172.121 124.707L176.778 120.05L175.364 118.636ZM175.364 118.636V118.636L176.778 120.05C177.559 119.269 177.559 118.003 176.778 117.222L175.364 118.636ZM175.364 118.636H175.364L176.778 117.222C175.997 116.441 174.731 116.441 173.95 117.222L175.364 118.636ZM169 125L175.364 118.636L173.95 117.222L167.586 123.586L169 125ZM172.409 155.335C171.022 154.936 170.139 154.48 169.642 154.028L168.295 155.506C169.123 156.26 170.349 156.824 171.857 157.257L172.409 155.335ZM175.142 156.529C174.539 156.055 173.579 155.673 172.411 155.335L171.855 157.256C172.995 157.586 173.629 157.884 173.905 158.101L175.142 156.529ZM176.183 158.766C176.183 157.874 175.853 157.08 175.135 156.524L173.912 158.106C174.073 158.231 174.183 158.403 174.183 158.766H176.183ZM175.079 161.045C175.814 160.482 176.183 159.686 176.183 158.766H174.183C174.183 159.099 174.077 159.293 173.863 159.457L175.079 161.045ZM172.423 161.796C173.43 161.796 174.362 161.593 175.079 161.045L173.863 159.457C173.63 159.635 173.197 159.796 172.423 159.796V161.796ZM169.516 160.918C170.314 161.537 171.316 161.796 172.423 161.796V159.796C171.62 159.796 171.092 159.61 170.742 159.338L169.516 160.918ZM168.276 158.291C168.276 159.346 168.682 160.256 169.507 160.911L170.751 159.345C170.439 159.097 170.276 158.782 170.276 158.291H168.276ZM167.58 159.291H169.276V157.291H167.58V159.291ZM169.015 159.713C168.727 159.302 168.58 158.839 168.58 158.291H166.58C166.58 159.232 166.843 160.098 167.376 160.86L169.015 159.713ZM170.369 160.762C169.744 160.483 169.307 160.125 169.011 159.707L167.38 160.865C167.915 161.619 168.656 162.187 169.554 162.588L170.369 160.762ZM172.423 161.176C171.674 161.176 170.991 161.034 170.363 160.759L169.56 162.591C170.456 162.983 171.414 163.176 172.423 163.176V161.176ZM175.057 160.451C174.473 160.9 173.628 161.176 172.423 161.176V163.176C173.925 163.176 175.242 162.831 176.275 162.037L175.057 160.451ZM175.879 158.748C175.879 159.481 175.614 160.019 175.053 160.454L176.279 162.034C177.336 161.215 177.879 160.089 177.879 158.748H175.879ZM175.586 157.572C175.769 157.873 175.879 158.252 175.879 158.748H177.879C177.879 157.943 177.696 157.192 177.293 156.531L175.586 157.572ZM174.594 156.655C175.09 156.949 175.398 157.259 175.581 157.565L177.298 156.539C176.906 155.883 176.324 155.356 175.613 154.934L174.594 156.655ZM172.338 155.765C173.361 156.051 174.096 156.353 174.584 156.649L175.623 154.94C174.916 154.511 173.987 154.15 172.877 153.839L172.338 155.765ZM169.723 154.597C170.33 155.085 171.244 155.457 172.336 155.764L172.879 153.839C171.85 153.549 171.258 153.265 170.975 153.038L169.723 154.597ZM168.689 152.49C168.689 153.34 169.067 154.055 169.712 154.588L170.986 153.047C170.752 152.853 170.689 152.683 170.689 152.49H168.689ZM169.766 150.183C169.034 150.758 168.689 151.57 168.689 152.49H170.689C170.689 152.11 170.808 151.908 171.001 151.756L169.766 150.183ZM172.335 149.416C171.366 149.416 170.468 149.63 169.765 150.184L171.002 151.755C171.237 151.571 171.64 151.416 172.335 151.416V149.416ZM175.089 150.342C174.357 149.68 173.391 149.416 172.335 149.416V151.416C173.072 151.416 173.495 151.597 173.747 151.826L175.089 150.342ZM176.156 152.903C176.156 151.899 175.826 151 175.084 150.338L173.752 151.83C173.995 152.047 174.156 152.361 174.156 152.903H176.156ZM176.853 151.903H175.156V153.903H176.853V151.903ZM175.438 151.481C175.716 151.918 175.853 152.385 175.853 152.903H177.853C177.853 152.004 177.608 151.164 177.125 150.406L175.438 151.481ZM174.241 150.435C174.781 150.7 175.167 151.049 175.434 151.475L177.128 150.412C176.646 149.643 175.965 149.054 175.123 148.64L174.241 150.435ZM172.335 150.027C173.083 150.027 173.709 150.171 174.238 150.433L175.126 148.641C174.283 148.223 173.345 148.027 172.335 148.027V150.027ZM169.822 150.794C170.413 150.31 171.221 150.027 172.335 150.027V148.027C170.871 148.027 169.581 148.407 168.555 149.247L169.822 150.794ZM168.984 152.517C168.984 151.819 169.243 151.267 169.821 150.795L168.556 149.246C167.528 150.086 166.984 151.199 166.984 152.517H168.984ZM169.649 154.034C169.195 153.612 168.984 153.127 168.984 152.517H166.984C166.984 153.687 167.43 154.702 168.288 155.499L169.649 154.034ZM180.562 161H178.936V163H180.562V161ZM179.562 152.49V162H181.562V152.49H179.562ZM178.936 153.49H180.562V151.49H178.936V153.49ZM179.936 162V152.49H177.936V162H179.936ZM179.804 149.968C179.804 149.952 179.805 149.942 179.806 149.938C179.806 149.934 179.807 149.934 179.805 149.938C179.804 149.941 179.802 149.946 179.8 149.95C179.798 149.952 179.797 149.954 179.796 149.955C179.796 149.956 179.795 149.957 179.795 149.957L178.287 148.643C177.955 149.024 177.804 149.487 177.804 149.968H179.804ZM179.784 149.958C179.787 149.961 179.791 149.965 179.795 149.972C179.799 149.979 179.802 149.986 179.804 149.992C179.806 149.997 179.806 149.999 179.805 149.996C179.805 149.993 179.804 149.984 179.804 149.968H177.804C177.804 150.448 177.955 150.915 178.298 151.296L179.784 149.958ZM179.762 149.891C179.694 149.891 179.675 149.881 179.688 149.886C179.695 149.888 179.708 149.894 179.725 149.905C179.741 149.916 179.758 149.929 179.772 149.945L178.31 151.309C178.718 151.746 179.26 151.891 179.762 151.891V149.891ZM179.751 149.945C179.766 149.929 179.782 149.916 179.799 149.905C179.815 149.894 179.829 149.888 179.836 149.886C179.848 149.881 179.829 149.891 179.762 149.891V151.891C180.263 151.891 180.806 151.746 181.213 151.309L179.751 149.945ZM179.729 149.968C179.729 149.982 179.727 149.989 179.727 149.99C179.727 149.991 179.728 149.987 179.73 149.981C179.733 149.974 179.736 149.966 179.741 149.959C179.746 149.951 179.75 149.947 179.751 149.945L181.213 151.309C181.568 150.93 181.729 150.458 181.729 149.968H179.729ZM179.74 149.97C179.741 149.971 179.739 149.968 179.736 149.964C179.733 149.959 179.73 149.954 179.729 149.949C179.727 149.944 179.727 149.942 179.727 149.944C179.727 149.946 179.729 149.954 179.729 149.968H181.729C181.729 149.477 181.568 149.01 181.225 148.63L179.74 149.97ZM179.762 150.027C179.826 150.027 179.841 150.037 179.826 150.031C179.817 150.028 179.803 150.021 179.786 150.01C179.769 149.998 179.753 149.985 179.74 149.97L181.225 148.63C180.819 148.181 180.273 148.027 179.762 148.027V150.027ZM179.783 149.97C179.77 149.985 179.754 149.998 179.737 150.01C179.72 150.021 179.706 150.028 179.698 150.031C179.682 150.037 179.697 150.027 179.762 150.027V148.027C179.25 148.027 178.704 148.181 178.299 148.63L179.783 149.97ZM190.223 157.351C190.223 158.654 189.924 159.591 189.423 160.255L191.019 161.46C191.853 160.355 192.223 158.954 192.223 157.351H190.223ZM190.223 157.21V157.351H192.223V157.21H190.223ZM189.433 154.228C189.921 154.872 190.223 155.828 190.223 157.21H192.223C192.223 155.557 191.863 154.123 191.026 153.02L189.433 154.228ZM187.514 153.314C188.374 153.314 188.975 153.619 189.43 154.225L191.029 153.023C190.172 151.883 188.962 151.314 187.514 151.314V153.314ZM185.577 154.164C186.022 153.611 186.626 153.314 187.514 153.314V151.314C186.093 151.314 184.887 151.832 184.019 152.909L185.577 154.164ZM183.798 148.5V153.536H185.798V148.5H183.798ZM183.172 149.5H184.798V147.5H183.172V149.5ZM184.172 162V148.5H182.172V162H184.172ZM184.666 161H183.172V163H184.666V161ZM183.748 160.83L183.669 161.928L185.663 162.072L185.743 160.973L183.748 160.83ZM187.531 161.176C186.598 161.176 185.979 160.863 185.537 160.29L183.954 161.513C184.824 162.639 186.062 163.176 187.531 163.176V161.176ZM189.425 160.252C188.95 160.877 188.351 161.176 187.531 161.176V163.176C188.962 163.176 190.156 162.596 191.017 161.463L189.425 160.252ZM190.597 157.166C190.597 155.949 190.365 154.859 189.771 154.021L188.139 155.178C188.401 155.547 188.597 156.168 188.597 157.166H190.597ZM189.758 160.474C190.37 159.623 190.597 158.467 190.597 157.166H188.597C188.597 158.29 188.39 158.951 188.134 159.307L189.758 160.474ZM187.127 161.796C188.21 161.796 189.126 161.354 189.758 160.474L188.134 159.307C187.899 159.635 187.603 159.796 187.127 159.796V161.796ZM183.903 159.749C184.216 160.375 184.645 160.899 185.214 161.264C185.785 161.631 186.436 161.796 187.127 161.796V159.796C186.763 159.796 186.499 159.712 186.294 159.581C186.086 159.447 185.878 159.225 185.692 158.855L183.903 159.749ZM183.798 155.188V159.302H185.798V155.188H183.798ZM187.109 152.694C186.414 152.694 185.757 152.858 185.184 153.228C184.613 153.597 184.191 154.13 183.893 154.763L185.703 155.614C185.874 155.251 186.071 155.037 186.27 154.908C186.468 154.78 186.733 154.694 187.109 154.694V152.694ZM189.771 154.021C189.138 153.128 188.204 152.694 187.109 152.694V154.694C187.62 154.694 187.917 154.864 188.139 155.178L189.771 154.021ZM195.046 161H193.42V163H195.046V161ZM194.046 148.5V162H196.046V148.5H194.046ZM193.42 149.5H195.046V147.5H193.42V149.5ZM194.42 162V148.5H192.42V162H194.42ZM199.423 161H197.797V163H199.423V161ZM198.423 152.49V162H200.423V152.49H198.423ZM197.797 153.49H199.423V151.49H197.797V153.49ZM198.797 162V152.49H196.797V162H198.797ZM198.665 149.968C198.665 149.952 198.666 149.942 198.667 149.938C198.668 149.934 198.668 149.934 198.667 149.938C198.665 149.941 198.664 149.946 198.661 149.95C198.66 149.952 198.659 149.954 198.658 149.955C198.657 149.956 198.656 149.957 198.656 149.957L197.148 148.643C196.816 149.024 196.665 149.487 196.665 149.968H198.665ZM198.646 149.958C198.648 149.961 198.652 149.965 198.656 149.972C198.66 149.979 198.663 149.986 198.665 149.992C198.667 149.997 198.667 149.999 198.667 149.996C198.666 149.993 198.665 149.984 198.665 149.968H196.665C196.665 150.448 196.816 150.915 197.159 151.296L198.646 149.958ZM198.623 149.891C198.555 149.891 198.537 149.881 198.549 149.886C198.556 149.888 198.569 149.894 198.586 149.905C198.603 149.916 198.619 149.929 198.633 149.945L197.171 151.309C197.579 151.746 198.121 151.891 198.623 151.891V149.891ZM198.613 149.945C198.627 149.929 198.643 149.916 198.66 149.905C198.677 149.894 198.69 149.888 198.697 149.886C198.71 149.881 198.691 149.891 198.623 149.891V151.891C199.125 151.891 199.667 151.746 200.075 151.309L198.613 149.945ZM198.59 149.968C198.59 149.982 198.589 149.989 198.589 149.99C198.588 149.991 198.589 149.987 198.591 149.981C198.594 149.974 198.598 149.966 198.602 149.959C198.607 149.951 198.611 149.947 198.613 149.945L200.075 151.309C200.429 150.93 200.59 150.458 200.59 149.968H198.59ZM198.602 149.97C198.602 149.971 198.6 149.968 198.597 149.964C198.594 149.959 198.592 149.954 198.59 149.949C198.588 149.944 198.588 149.942 198.588 149.944C198.589 149.946 198.59 149.954 198.59 149.968H200.59C200.59 149.477 200.429 149.01 200.086 148.63L198.602 149.97ZM198.623 150.027C198.688 150.027 198.703 150.037 198.687 150.031C198.679 150.028 198.664 150.021 198.648 150.01C198.631 149.998 198.615 149.985 198.602 149.97L200.086 148.63C199.68 148.181 199.134 148.027 198.623 148.027V150.027ZM198.644 149.97C198.631 149.985 198.616 149.998 198.599 150.01C198.582 150.021 198.568 150.028 198.559 150.031C198.543 150.037 198.559 150.027 198.623 150.027V148.027C198.112 148.027 197.566 148.181 197.16 148.63L198.644 149.97ZM202.572 152.534L202.625 153.73L204.623 153.641L204.57 152.446L202.572 152.534ZM202.033 153.49H203.571V151.49H202.033V153.49ZM203.033 162V152.49H201.033V162H203.033ZM203.659 161H202.033V163H203.659V161ZM202.659 155.224V162H204.659V155.224H202.659ZM204.014 153.299C203.472 153.682 203.053 154.184 202.76 154.786L204.558 155.662C204.71 155.349 204.913 155.113 205.168 154.933L204.014 153.299ZM205.98 152.694C205.263 152.694 204.595 152.889 204.014 153.299L205.168 154.933C205.383 154.781 205.641 154.694 205.98 154.694V152.694ZM208.145 153.506C207.579 152.897 206.781 152.694 205.98 152.694V154.694C206.479 154.694 206.636 154.82 206.679 154.867L208.145 153.506ZM208.887 155.698C208.88 154.887 208.694 154.086 208.138 153.499L206.686 154.874C206.751 154.943 206.882 155.155 206.887 155.716L208.887 155.698ZM208.887 162V155.707H206.887V162H208.887ZM209.513 161H207.887V163H209.513V161ZM208.513 155.716V162H210.513V155.716H208.513ZM206.472 153.314C207.288 153.314 207.733 153.539 207.994 153.831C208.275 154.146 208.505 154.717 208.513 155.724L210.513 155.708C210.503 154.447 210.217 153.318 209.485 152.498C208.732 151.657 207.665 151.314 206.472 151.314V153.314ZM204.407 154.308C204.943 153.633 205.603 153.314 206.472 153.314V151.314C204.996 151.314 203.758 151.91 202.841 153.063L204.407 154.308ZM212.578 157.166C212.578 155.833 212.886 154.896 213.393 154.25L211.82 153.015C210.956 154.115 210.578 155.535 210.578 157.166H212.578ZM213.401 160.224C212.89 159.556 212.578 158.574 212.578 157.166H210.578C210.578 158.852 210.952 160.313 211.812 161.439L213.401 160.224ZM215.313 161.176C214.516 161.176 213.904 160.876 213.398 160.22L211.815 161.442C212.692 162.579 213.884 163.176 215.313 163.176V161.176ZM217.221 160.396C216.787 160.896 216.192 161.176 215.313 161.176V163.176C216.685 163.176 217.865 162.706 218.732 161.706L217.221 160.396ZM218.977 161.868V161.051H216.977V161.868H218.977ZM218.016 164.456C218.698 163.774 218.977 162.863 218.977 161.868H216.977C216.977 162.49 216.81 162.833 216.601 163.042L218.016 164.456ZM215.463 165.417C216.447 165.417 217.346 165.134 218.02 164.451L216.597 163.047C216.392 163.254 216.061 163.417 215.463 163.417V165.417ZM212.128 163.754C212.994 164.823 214.121 165.417 215.463 165.417V163.417C214.789 163.417 214.211 163.149 213.683 162.496L212.128 163.754ZM212.818 164.755L213.662 163.779L212.149 162.471L211.305 163.446L212.818 164.755ZM213.972 164.392C213.457 164.162 213.114 163.871 212.889 163.539L211.234 164.662C211.701 165.35 212.359 165.862 213.157 166.218L213.972 164.392ZM215.577 164.744C215.039 164.744 214.506 164.63 213.972 164.392L213.157 166.218C213.935 166.565 214.744 166.744 215.577 166.744V164.744ZM217.814 163.965C217.313 164.454 216.605 164.744 215.577 164.744V166.744C217.01 166.744 218.259 166.325 219.211 165.396L217.814 163.965ZM218.611 161.771C218.611 162.791 218.316 163.48 217.817 163.962L219.208 165.399C220.175 164.464 220.611 163.213 220.611 161.771H218.611ZM218.611 152.49V161.771H220.611V152.49H218.611ZM218.126 153.49H219.611V151.49H218.126V153.49ZM219.044 153.62L219.123 152.565L217.129 152.415L217.05 153.47L219.044 153.62ZM215.331 153.314C216.224 153.314 216.825 153.613 217.263 154.166L218.83 152.924C217.968 151.836 216.759 151.314 215.331 151.314V153.314ZM213.395 154.248C213.888 153.616 214.503 153.314 215.331 153.314V151.314C213.897 151.314 212.696 151.892 211.818 153.018L213.395 154.248ZM212.213 157.351C212.213 158.547 212.457 159.621 213.058 160.463L214.686 159.301C214.409 158.913 214.213 158.299 214.213 157.351H212.213ZM213.071 154.031C212.448 154.891 212.213 156.048 212.213 157.351H214.213C214.213 156.239 214.423 155.574 214.691 155.204L213.071 154.031ZM215.735 152.694C214.639 152.694 213.713 153.143 213.071 154.031L214.691 155.204C214.939 154.861 215.249 154.694 215.735 154.694V152.694ZM218.853 154.576C218.536 153.997 218.111 153.514 217.562 153.18C217.011 152.845 216.391 152.694 215.735 152.694V154.694C216.076 154.694 216.327 154.77 216.523 154.889C216.721 155.01 216.919 155.209 217.1 155.537L218.853 154.576ZM218.977 159.398V155.057H216.977V159.398H218.977ZM215.718 161.796C216.386 161.796 217.019 161.642 217.578 161.297C218.135 160.952 218.557 160.454 218.865 159.857L217.088 158.94C216.915 159.275 216.721 159.475 216.525 159.596C216.331 159.717 216.075 159.796 215.718 159.796V161.796ZM213.061 160.467C213.7 161.353 214.625 161.796 215.718 161.796V159.796C215.228 159.796 214.923 159.63 214.683 159.297L213.061 160.467ZM228.609 159.478C228.609 158.742 228.308 158.089 227.692 157.646L226.524 159.27C226.57 159.302 226.582 159.324 226.587 159.334C226.593 159.346 226.609 159.386 226.609 159.478H228.609ZM227.605 161.31C228.228 160.891 228.609 160.259 228.609 159.478H226.609C226.609 159.529 226.599 159.546 226.597 159.551C226.592 159.558 226.57 159.595 226.489 159.649L227.605 161.31ZM225.57 161.849C226.309 161.849 227.016 161.702 227.602 161.312L226.492 159.647C226.34 159.749 226.062 159.849 225.57 159.849V161.849ZM223.342 161.166C223.972 161.652 224.746 161.849 225.57 161.849V159.849C225.059 159.849 224.754 159.729 224.564 159.582L223.342 161.166ZM222.304 159.127C222.348 159.939 222.689 160.645 223.33 161.156L224.576 159.592C224.409 159.459 224.316 159.297 224.301 159.02L222.304 159.127ZM221.677 160.073H223.303V158.073H221.677V160.073ZM222.998 160.087C222.776 159.759 222.677 159.428 222.677 159.073H220.677C220.677 159.844 220.905 160.562 221.34 161.206L222.998 160.087ZM223.967 160.863C223.526 160.66 223.212 160.395 222.99 160.076L221.348 161.217C221.794 161.859 222.4 162.344 223.131 162.68L223.967 160.863ZM225.57 161.176C224.927 161.176 224.4 161.062 223.967 160.863L223.131 162.68C223.87 163.02 224.69 163.176 225.57 163.176V161.176ZM227.616 160.611C227.152 160.959 226.498 161.176 225.57 161.176V163.176C226.81 163.176 227.92 162.883 228.816 162.211L227.616 160.611ZM228.235 159.363C228.235 159.899 228.043 160.287 227.611 160.614L228.82 162.208C229.748 161.504 230.235 160.527 230.235 159.363H228.235ZM228.047 158.645C228.155 158.799 228.235 159.019 228.235 159.363H230.235C230.235 158.688 230.07 158.047 229.685 157.498L228.047 158.645ZM227.303 158.052C227.698 158.249 227.918 158.453 228.036 158.629L229.696 157.513C229.334 156.975 228.809 156.569 228.197 156.263L227.303 158.052ZM225.555 157.483C226.324 157.654 226.898 157.849 227.303 158.052L228.197 156.263C227.595 155.961 226.85 155.723 225.99 155.531L225.555 157.483ZM223.554 156.777C224.025 157.079 224.737 157.299 225.553 157.483L225.992 155.531C225.191 155.351 224.784 155.19 224.634 155.094L223.554 156.777ZM222.628 155.048C222.628 155.755 222.935 156.38 223.554 156.777L224.634 155.094C224.619 155.085 224.616 155.08 224.618 155.083C224.621 155.086 224.626 155.092 224.63 155.1C224.634 155.107 224.634 155.11 224.633 155.104C224.631 155.098 224.628 155.08 224.628 155.048H222.628ZM223.518 153.246C222.943 153.69 222.628 154.317 222.628 155.048H224.628C224.628 154.947 224.647 154.9 224.74 154.829L223.518 153.246ZM225.518 152.65C224.792 152.65 224.085 152.808 223.518 153.246L224.74 154.829C224.841 154.751 225.06 154.65 225.518 154.65V152.65ZM227.593 153.375C227.008 152.873 226.29 152.65 225.518 152.65V154.65C225.893 154.65 226.125 154.75 226.29 154.892L227.593 153.375ZM228.513 155.285C228.513 154.508 228.162 153.857 227.587 153.37L226.295 154.897C226.482 155.055 226.513 155.172 226.513 155.285H228.513ZM229.147 154.285H227.513V156.285H229.147V154.285ZM227.5 153.92C227.946 154.289 228.147 154.719 228.147 155.285H230.147C230.147 154.117 229.675 153.123 228.774 152.378L227.5 153.92ZM225.518 153.314C226.42 153.314 227.048 153.544 227.497 153.918L228.777 152.381C227.889 151.641 226.772 151.314 225.518 151.314V153.314ZM223.618 153.899C224.067 153.532 224.674 153.314 225.518 153.314V151.314C224.31 151.314 223.229 151.636 222.355 152.348L223.618 153.899ZM223.002 155.101C223.002 154.65 223.172 154.264 223.621 153.896L222.352 152.35C221.488 153.06 221.002 153.993 221.002 155.101H223.002ZM223.175 155.755C223.072 155.604 223.002 155.4 223.002 155.101H221.002C221.002 155.738 221.16 156.344 221.515 156.871L223.175 155.755ZM223.873 156.302C223.496 156.109 223.284 155.914 223.168 155.746L221.522 156.881C221.874 157.393 222.377 157.783 222.961 158.082L223.873 156.302ZM225.586 156.847C224.81 156.681 224.249 156.493 223.869 156.3L222.965 158.085C223.558 158.384 224.303 158.618 225.167 158.803L225.586 156.847ZM227.708 157.658C227.195 157.273 226.434 157.028 225.585 156.847L225.169 158.803C225.972 158.974 226.365 159.151 226.508 159.258L227.708 157.658Z" fill="white" mask="url(#path-1-outside-1)"/>
<path fill-rule="evenodd" clip-rule="evenodd" d="M1 126.257C1 113.83 11.0736 103.757 23.5 103.757H134.902C140.87 103.757 146.593 106.127 150.812 110.347C155.032 114.566 157.402 120.289 157.402 126.257C157.402 138.683 147.329 148.757 134.902 148.757H23.5C11.0736 148.757 1 138.683 1 126.257Z" fill="#FCE5CD" stroke="#783F04" stroke-miterlimit="8" stroke-linejoin="round"/>
<path d="M70.1221 128.696C69.9639 130.05 69.4629 131.096 68.6191 131.834C67.7812 132.566 66.665 132.933 65.2705 132.933C63.7588 132.933 62.5459 132.391 61.6318 131.307C60.7236 130.223 60.2695 128.772 60.2695 126.956V125.725C60.2695 124.536 60.4805 123.49 60.9023 122.588C61.3301 121.685 61.9336 120.994 62.7129 120.514C63.4922 120.027 64.3945 119.784 65.4199 119.784C66.7793 119.784 67.8691 120.165 68.6895 120.927C69.5098 121.683 69.9873 122.731 70.1221 124.073H68.4258C68.2793 123.054 67.96 122.315 67.4678 121.858C66.9814 121.401 66.2988 121.173 65.4199 121.173C64.3418 121.173 63.4951 121.571 62.8799 122.368C62.2705 123.165 61.9658 124.299 61.9658 125.769V127.009C61.9658 128.397 62.2559 129.502 62.8359 130.322C63.416 131.142 64.2275 131.553 65.2705 131.553C66.208 131.553 66.9258 131.342 67.4238 130.92C67.9277 130.492 68.2617 129.751 68.4258 128.696H70.1221ZM73.8047 124.398C74.5254 123.514 75.4629 123.071 76.6172 123.071C78.627 123.071 79.6406 124.205 79.6582 126.473V132.757H78.0322V126.464C78.0264 125.778 77.8682 125.271 77.5576 124.943C77.2529 124.615 76.7754 124.451 76.125 124.451C75.5977 124.451 75.1348 124.592 74.7363 124.873C74.3379 125.154 74.0273 125.523 73.8047 125.98V132.757H72.1787V119.257H73.8047V124.398ZM83.8594 132.757H82.2334V123.247H83.8594V132.757ZM82.1016 120.725C82.1016 120.461 82.1807 120.238 82.3389 120.057C82.5029 119.875 82.7432 119.784 83.0596 119.784C83.376 119.784 83.6162 119.875 83.7803 120.057C83.9443 120.238 84.0264 120.461 84.0264 120.725C84.0264 120.988 83.9443 121.208 83.7803 121.384C83.6162 121.559 83.376 121.647 83.0596 121.647C82.7432 121.647 82.5029 121.559 82.3389 121.384C82.1807 121.208 82.1016 120.988 82.1016 120.725ZM88.2363 132.757H86.6104V119.257H88.2363V132.757ZM90.4512 127.923C90.4512 126.464 90.7969 125.292 91.4883 124.407C92.1797 123.517 93.085 123.071 94.2041 123.071C95.3174 123.071 96.1992 123.452 96.8496 124.214V119.257H98.4756V132.757H96.9814L96.9023 131.737C96.252 132.534 95.3467 132.933 94.1865 132.933C93.085 132.933 92.1855 132.481 91.4883 131.579C90.7969 130.677 90.4512 129.499 90.4512 128.046V127.923ZM92.0771 128.107C92.0771 129.185 92.2998 130.029 92.7451 130.639C93.1904 131.248 93.8057 131.553 94.5908 131.553C95.6221 131.553 96.375 131.09 96.8496 130.164V125.796C96.3633 124.899 95.6162 124.451 94.6084 124.451C93.8115 124.451 93.1904 124.759 92.7451 125.374C92.2998 125.989 92.0771 126.9 92.0771 128.107Z" fill="black"/>
<path fill-rule="evenodd" clip-rule="evenodd" d="M239 126.5C239 114.074 249.074 104 261.5 104H372.902C378.87 104 384.593 106.371 388.812 110.59C393.032 114.81 395.402 120.533 395.402 126.5C395.402 138.926 385.329 149 372.902 149H261.5C249.074 149 239 138.926 239 126.5Z" fill="#FCE5CD" stroke="#783F04" stroke-miterlimit="8" stroke-linejoin="round"/>
<path d="M308.122 128.939C307.964 130.293 307.463 131.339 306.619 132.077C305.781 132.81 304.665 133.176 303.271 133.176C301.759 133.176 300.546 132.634 299.632 131.55C298.724 130.466 298.27 129.016 298.27 127.199V125.969C298.27 124.779 298.48 123.733 298.902 122.831C299.33 121.929 299.934 121.237 300.713 120.757C301.492 120.271 302.395 120.027 303.42 120.027C304.779 120.027 305.869 120.408 306.689 121.17C307.51 121.926 307.987 122.975 308.122 124.316H306.426C306.279 123.297 305.96 122.559 305.468 122.102C304.981 121.645 304.299 121.416 303.42 121.416C302.342 121.416 301.495 121.814 300.88 122.611C300.271 123.408 299.966 124.542 299.966 126.013V127.252C299.966 128.641 300.256 129.745 300.836 130.565C301.416 131.386 302.228 131.796 303.271 131.796C304.208 131.796 304.926 131.585 305.424 131.163C305.928 130.735 306.262 129.994 306.426 128.939H308.122ZM311.805 124.642C312.525 123.757 313.463 123.314 314.617 123.314C316.627 123.314 317.641 124.448 317.658 126.716V133H316.032V126.707C316.026 126.021 315.868 125.515 315.558 125.187C315.253 124.858 314.775 124.694 314.125 124.694C313.598 124.694 313.135 124.835 312.736 125.116C312.338 125.397 312.027 125.767 311.805 126.224V133H310.179V119.5H311.805V124.642ZM321.859 133H320.233V123.49H321.859V133ZM320.102 120.968C320.102 120.704 320.181 120.481 320.339 120.3C320.503 120.118 320.743 120.027 321.06 120.027C321.376 120.027 321.616 120.118 321.78 120.3C321.944 120.481 322.026 120.704 322.026 120.968C322.026 121.231 321.944 121.451 321.78 121.627C321.616 121.803 321.376 121.891 321.06 121.891C320.743 121.891 320.503 121.803 320.339 121.627C320.181 121.451 320.102 121.231 320.102 120.968ZM326.236 133H324.61V119.5H326.236V133ZM328.451 128.166C328.451 126.707 328.797 125.535 329.488 124.65C330.18 123.76 331.085 123.314 332.204 123.314C333.317 123.314 334.199 123.695 334.85 124.457V119.5H336.476V133H334.981L334.902 131.98C334.252 132.777 333.347 133.176 332.187 133.176C331.085 133.176 330.186 132.725 329.488 131.822C328.797 130.92 328.451 129.742 328.451 128.289V128.166ZM330.077 128.351C330.077 129.429 330.3 130.272 330.745 130.882C331.19 131.491 331.806 131.796 332.591 131.796C333.622 131.796 334.375 131.333 334.85 130.407V126.039C334.363 125.143 333.616 124.694 332.608 124.694C331.812 124.694 331.19 125.002 330.745 125.617C330.3 126.232 330.077 127.144 330.077 128.351Z" fill="black"/>
<path fill-rule="evenodd" clip-rule="evenodd" d="M119 23.5C119 11.0736 129.074 1 141.5 1H252.902C258.87 1 264.593 3.37056 268.812 7.59013C273.032 11.8097 275.402 17.5326 275.402 23.5C275.402 35.9264 265.329 46 252.902 46H141.5C129.074 46 119 35.9264 119 23.5Z" fill="#FCE5CD" stroke="#783F04" stroke-miterlimit="8" stroke-linejoin="round"/>
<path d="M174.508 24.9902V30H172.82V17.2031H177.54C178.94 17.2031 180.036 17.5605 180.827 18.2754C181.624 18.9902 182.022 19.9365 182.022 21.1143C182.022 22.3564 181.633 23.3145 180.854 23.9883C180.08 24.6562 178.97 24.9902 177.522 24.9902H174.508ZM174.508 23.6104H177.54C178.442 23.6104 179.134 23.3994 179.614 22.9775C180.095 22.5498 180.335 21.9346 180.335 21.1318C180.335 20.3701 180.095 19.7607 179.614 19.3037C179.134 18.8467 178.475 18.6094 177.637 18.5918H174.508V23.6104ZM189.687 30C189.593 29.8125 189.517 29.4785 189.458 28.998C188.702 29.7832 187.8 30.1758 186.751 30.1758C185.813 30.1758 185.043 29.9121 184.439 29.3848C183.842 28.8516 183.543 28.1777 183.543 27.3633C183.543 26.373 183.918 25.6055 184.668 25.0605C185.424 24.5098 186.484 24.2344 187.85 24.2344H189.432V23.4873C189.432 22.9189 189.262 22.4678 188.922 22.1338C188.582 21.7939 188.081 21.624 187.419 21.624C186.839 21.624 186.353 21.7705 185.96 22.0635C185.567 22.3564 185.371 22.7109 185.371 23.127H183.736C183.736 22.6523 183.903 22.1953 184.237 21.7559C184.577 21.3105 185.034 20.959 185.608 20.7012C186.188 20.4434 186.824 20.3145 187.516 20.3145C188.611 20.3145 189.47 20.5898 190.091 21.1406C190.712 21.6855 191.034 22.4385 191.058 23.3994V27.7764C191.058 28.6494 191.169 29.3438 191.392 29.8594V30H189.687ZM186.988 28.7607C187.498 28.7607 187.981 28.6289 188.438 28.3652C188.896 28.1016 189.227 27.7588 189.432 27.3369V25.3857H188.157C186.165 25.3857 185.169 25.9688 185.169 27.1348C185.169 27.6445 185.339 28.043 185.679 28.3301C186.019 28.6172 186.455 28.7607 186.988 28.7607ZM198.203 21.9492C197.957 21.9082 197.69 21.8877 197.403 21.8877C196.337 21.8877 195.613 22.3418 195.232 23.25V30H193.606V20.4902H195.188L195.215 21.5889C195.748 20.7393 196.504 20.3145 197.482 20.3145C197.799 20.3145 198.039 20.3555 198.203 20.4375V21.9492ZM203.477 30.1758C202.188 30.1758 201.139 29.7539 200.33 28.9102C199.521 28.0605 199.117 26.9268 199.117 25.5088V25.21C199.117 24.2666 199.296 23.4258 199.653 22.6875C200.017 21.9434 200.521 21.3633 201.165 20.9473C201.815 20.5254 202.519 20.3145 203.274 20.3145C204.511 20.3145 205.472 20.7217 206.157 21.5361C206.843 22.3506 207.186 23.5166 207.186 25.0342V25.7109H200.743C200.767 26.6484 201.039 27.4072 201.561 27.9873C202.088 28.5615 202.756 28.8486 203.564 28.8486C204.139 28.8486 204.625 28.7314 205.023 28.4971C205.422 28.2627 205.771 27.9521 206.069 27.5654L207.062 28.3389C206.266 29.5635 205.07 30.1758 203.477 30.1758ZM203.274 21.6504C202.618 21.6504 202.067 21.8906 201.622 22.3711C201.177 22.8457 200.901 23.5137 200.796 24.375H205.56V24.252C205.513 23.4258 205.29 22.7871 204.892 22.3359C204.493 21.8789 203.954 21.6504 203.274 21.6504ZM210.613 20.4902L210.666 21.6855C211.393 20.7715 212.342 20.3145 213.514 20.3145C215.523 20.3145 216.537 21.4482 216.555 23.7158V30H214.929V23.707C214.923 23.0215 214.765 22.5146 214.454 22.1865C214.149 21.8584 213.672 21.6943 213.021 21.6943C212.494 21.6943 212.031 21.835 211.633 22.1162C211.234 22.3975 210.924 22.7666 210.701 23.2236V30H209.075V20.4902H210.613ZM221.213 18.1875V20.4902H222.988V21.7471H221.213V27.6445C221.213 28.0254 221.292 28.3125 221.45 28.5059C221.608 28.6934 221.878 28.7871 222.259 28.7871C222.446 28.7871 222.704 28.752 223.032 28.6816V30C222.604 30.1172 222.188 30.1758 221.784 30.1758C221.058 30.1758 220.51 29.9561 220.141 29.5166C219.771 29.0771 219.587 28.4531 219.587 27.6445V21.7471H217.855V20.4902H219.587V18.1875H221.213Z" fill="black"/>
</svg>
