<svg width="543" height="295" viewBox="0 0 543 295" fill="none" xmlns="http://www.w3.org/2000/svg">
<mask id="path-1-outside-1" maskUnits="userSpaceOnUse" x="76.8554" y="44.5" width="391" height="207" fill="black">
<rect fill="white" x="76.8554" y="44.5" width="391" height="207"/>
<path fill-rule="evenodd" clip-rule="evenodd" d="M378.24 75V74H377.24L272 74V45.5L270 45.5L270 74L78.8554 74H77.8554L77.8554 75L77.8556 103.521L79.8556 103.521L79.8554 76L271 76L272 76L376.24 76L376.24 103.561L378.24 103.561L378.24 75ZM79 177V149H81L81 177H79ZM292 222V250H294V222H292ZM464 250V222H466V250H464ZM376.155 149.475V149.476H375.847L375.847 162.475H291.155H290.155V163.475V177.475H292.155L292.155 164.475H375.847V164.476L376.847 164.476H462.847V177.476H464.847V163.476V162.476H463.847L378.155 162.476L378.155 149.475L376.155 149.475Z"/>
</mask>
<path fill-rule="evenodd" clip-rule="evenodd" d="M378.24 75V74H377.24L272 74V45.5L270 45.5L270 74L78.8554 74H77.8554L77.8554 75L77.8556 103.521L79.8556 103.521L79.8554 76L271 76L272 76L376.24 76L376.24 103.561L378.24 103.561L378.24 75ZM79 177V149H81L81 177H79ZM292 222V250H294V222H292ZM464 250V222H466V250H464ZM376.155 149.475V149.476H375.847L375.847 162.475H291.155H290.155V163.475V177.475H292.155L292.155 164.475H375.847V164.476L376.847 164.476H462.847V177.476H464.847V163.476V162.476H463.847L378.155 162.476L378.155 149.475L376.155 149.475Z" fill="black"/>
<path d="M378.24 74H379.24V73H378.24V74ZM378.24 75L379.24 75V75H378.24ZM377.24 74L377.24 75H377.24V74ZM272 74H271V75L272 75L272 74ZM272 45.5H273V44.5L272 44.5L272 45.5ZM270 45.5L270 44.5L269 44.5L269 45.5L270 45.5ZM270 74L270 75L271 75L271 74L270 74ZM78.8554 74L78.8554 75H78.8554L78.8554 74ZM77.8554 74V73H76.8554L76.8554 74L77.8554 74ZM77.8554 75L76.8554 75L76.8554 75L77.8554 75ZM77.8556 103.521L76.8556 103.521L76.8556 104.521L77.8556 104.521L77.8556 103.521ZM79.8556 103.521L79.8556 104.521L80.8556 104.521L80.8556 103.521L79.8556 103.521ZM79.8554 76L79.8554 75L78.8554 75L78.8554 76L79.8554 76ZM271 76L271 77L271 77L271 76ZM272 76L272 75L272 75L272 76ZM376.24 76L377.24 76L377.24 75L376.24 75L376.24 76ZM376.24 103.561L375.24 103.561L375.24 104.561L376.24 104.561L376.24 103.561ZM378.24 103.561L378.24 104.561L379.24 104.561L379.24 103.561L378.24 103.561ZM79 149V148H78V149H79ZM79 177H78V178H79V177ZM81 149L82 149L82 148H81V149ZM81 177V178H82L82 177L81 177ZM292 250H291V251H292V250ZM292 222V221H291V222H292ZM294 250V251H295V250H294ZM294 222H295V221H294V222ZM464 222V221H463V222H464ZM464 250H463V251H464V250ZM466 222H467V221H466V222ZM466 250V251H467V250H466ZM376.155 149.476V150.476H377.155V149.476H376.155ZM376.155 149.475L376.155 148.475L375.155 148.475V149.475H376.155ZM375.847 149.476V148.476H374.847L374.847 149.476L375.847 149.476ZM375.847 162.475V163.475H376.847L376.847 162.475L375.847 162.475ZM290.155 162.475V161.475H289.155V162.475H290.155ZM290.155 177.475H289.155V178.475H290.155V177.475ZM292.155 177.475V178.475H293.155L293.155 177.475L292.155 177.475ZM292.155 164.475V163.475H291.155L291.155 164.475L292.155 164.475ZM375.847 164.475H376.847V163.475H375.847V164.475ZM375.847 164.476H374.847V165.476L375.847 165.476L375.847 164.476ZM376.847 164.476L376.847 165.476H376.847V164.476ZM462.847 164.476H463.847V163.476H462.847V164.476ZM462.847 177.476H461.847V178.476H462.847V177.476ZM464.847 177.476V178.476H465.847V177.476H464.847ZM464.847 162.476H465.847V161.476H464.847V162.476ZM463.847 162.476L463.847 163.476H463.847V162.476ZM378.155 162.476L377.155 162.476L377.155 163.476L378.155 163.476L378.155 162.476ZM378.155 149.475L379.155 149.475L379.155 148.475L378.155 148.475L378.155 149.475ZM377.24 74V75H379.24V74H377.24ZM377.24 75H378.24V73H377.24V75ZM272 75L377.24 75L377.24 73L272 73L272 75ZM271 45.5V74H273V45.5H271ZM270 46.5L272 46.5L272 44.5L270 44.5L270 46.5ZM271 74L271 45.5L269 45.5L269 74L271 74ZM78.8554 75L270 75L270 73L78.8554 73L78.8554 75ZM77.8554 75H78.8554V73H77.8554V75ZM78.8554 75L78.8554 74L76.8554 74L76.8554 75L78.8554 75ZM78.8556 103.521L78.8554 75L76.8554 75L76.8556 103.521L78.8556 103.521ZM79.8556 102.521L77.8556 102.521L77.8556 104.521L79.8556 104.521L79.8556 102.521ZM78.8554 76L78.8556 103.521L80.8556 103.521L80.8554 76L78.8554 76ZM271 75L79.8554 75L79.8554 77L271 77L271 75ZM272 75L271 75L271 77L272 77L272 75ZM376.24 75L272 75L272 77L376.24 77L376.24 75ZM377.24 103.561L377.24 76L375.24 76L375.24 103.561L377.24 103.561ZM378.24 102.561L376.24 102.561L376.24 104.561L378.24 104.561L378.24 102.561ZM377.24 75L377.24 103.561L379.24 103.561L379.24 75L377.24 75ZM78 149V177H80V149H78ZM81 148H79V150H81V148ZM82 177L82 149L80 149L80 177L82 177ZM79 178H81V176H79V178ZM293 250V222H291V250H293ZM294 249H292V251H294V249ZM293 222V250H295V222H293ZM292 223H294V221H292V223ZM463 222V250H465V222H463ZM466 221H464V223H466V221ZM467 250V222H465V250H467ZM464 251H466V249H464V251ZM377.155 149.476V149.475H375.155V149.476H377.155ZM375.847 150.476H376.155V148.476H375.847V150.476ZM376.847 162.475L376.847 149.476L374.847 149.476L374.847 162.475L376.847 162.475ZM291.155 163.475H375.847V161.475H291.155V163.475ZM290.155 163.475H291.155V161.475H290.155V163.475ZM291.155 163.475V162.475H289.155V163.475H291.155ZM291.155 177.475V163.475H289.155V177.475H291.155ZM292.155 176.475H290.155V178.475H292.155V176.475ZM291.155 164.475L291.155 177.475L293.155 177.475L293.155 164.475L291.155 164.475ZM375.847 163.475H292.155V165.475H375.847V163.475ZM376.847 164.476V164.475H374.847V164.476H376.847ZM376.847 163.476L375.847 163.476L375.847 165.476L376.847 165.476L376.847 163.476ZM462.847 163.476H376.847V165.476H462.847V163.476ZM463.847 177.476V164.476H461.847V177.476H463.847ZM464.847 176.476H462.847V178.476H464.847V176.476ZM463.847 163.476V177.476H465.847V163.476H463.847ZM463.847 162.476V163.476H465.847V162.476H463.847ZM463.847 163.476H464.847V161.476H463.847V163.476ZM378.155 163.476L463.847 163.476L463.847 161.476L378.155 161.476L378.155 163.476ZM377.155 149.475L377.155 162.476L379.155 162.476L379.155 149.475L377.155 149.475ZM376.155 150.475L378.155 150.475L378.155 148.475L376.155 148.475L376.155 150.475Z" fill="white" mask="url(#path-1-outside-1)"/>
<path fill-rule="evenodd" clip-rule="evenodd" d="M386 199.5C386 187.074 396.074 177 408.5 177H519.902C525.87 177 531.593 179.371 535.812 183.59C540.032 187.81 542.402 193.533 542.402 199.5C542.402 211.926 532.329 222 519.902 222H408.5C396.074 222 386 211.926 386 199.5Z" fill="#FCE5CD" stroke="#783F04" stroke-miterlimit="8" stroke-linejoin="round"/>
<path d="M427.472 200.34L432.974 202.563V204.286L425.784 200.955V199.672L432.974 196.35V198.072L427.472 200.34ZM437.307 206H435.681V192.5H437.307V206ZM441.684 206H440.058V196.49H441.684V206ZM439.926 193.968C439.926 193.704 440.005 193.481 440.163 193.3C440.327 193.118 440.567 193.027 440.884 193.027C441.2 193.027 441.44 193.118 441.604 193.3C441.769 193.481 441.851 193.704 441.851 193.968C441.851 194.231 441.769 194.451 441.604 194.627C441.44 194.803 441.2 194.891 440.884 194.891C440.567 194.891 440.327 194.803 440.163 194.627C440.005 194.451 439.926 194.231 439.926 193.968ZM450.525 206H448.899V196.49H450.525V206ZM448.768 193.968C448.768 193.704 448.847 193.481 449.005 193.3C449.169 193.118 449.409 193.027 449.726 193.027C450.042 193.027 450.282 193.118 450.446 193.3C450.61 193.481 450.692 193.704 450.692 193.968C450.692 194.231 450.61 194.451 450.446 194.627C450.282 194.803 450.042 194.891 449.726 194.891C449.409 194.891 449.169 194.803 449.005 194.627C448.847 194.451 448.768 194.231 448.768 193.968ZM452.74 201.166C452.74 199.707 453.086 198.535 453.777 197.65C454.469 196.76 455.374 196.314 456.493 196.314C457.606 196.314 458.488 196.695 459.139 197.457V192.5H460.765V206H459.271L459.191 204.98C458.541 205.777 457.636 206.176 456.476 206.176C455.374 206.176 454.475 205.725 453.777 204.822C453.086 203.92 452.74 202.742 452.74 201.289V201.166ZM454.366 201.351C454.366 202.429 454.589 203.272 455.034 203.882C455.479 204.491 456.095 204.796 456.88 204.796C457.911 204.796 458.664 204.333 459.139 203.407V199.039C458.652 198.143 457.905 197.694 456.897 197.694C456.101 197.694 455.479 198.002 455.034 198.617C454.589 199.232 454.366 200.144 454.366 201.351ZM470.731 198.846H463.401V197.431H470.731V198.846ZM470.731 202.493H463.401V201.087H470.731V202.493ZM473.395 196.807L472.472 196.174C473.017 195.412 473.298 194.609 473.315 193.766V192.5H474.924V193.643C474.918 194.229 474.771 194.814 474.484 195.4C474.203 195.98 473.84 196.449 473.395 196.807ZM476.093 196.807L475.17 196.174C475.715 195.412 475.996 194.609 476.014 193.766V192.5H477.622V193.643C477.616 194.229 477.47 194.814 477.183 195.4C476.901 195.98 476.538 196.449 476.093 196.807ZM478.686 201.166C478.686 199.707 479.031 198.535 479.723 197.65C480.414 196.76 481.319 196.314 482.438 196.314C483.552 196.314 484.434 196.695 485.084 197.457V192.5H486.71V206H485.216L485.137 204.98C484.486 205.777 483.581 206.176 482.421 206.176C481.319 206.176 480.42 205.725 479.723 204.822C479.031 203.92 478.686 202.742 478.686 201.289V201.166ZM480.312 201.351C480.312 202.429 480.534 203.272 480.979 203.882C481.425 204.491 482.04 204.796 482.825 204.796C483.856 204.796 484.609 204.333 485.084 203.407V199.039C484.598 198.143 483.851 197.694 482.843 197.694C482.046 197.694 481.425 198.002 480.979 198.617C480.534 199.232 480.312 200.144 480.312 201.351ZM489.461 196.807L488.538 196.174C489.083 195.412 489.364 194.609 489.382 193.766V192.5H490.99V193.643C490.984 194.229 490.838 194.814 490.551 195.4C490.27 195.98 489.906 196.449 489.461 196.807ZM492.159 196.807L491.236 196.174C491.781 195.412 492.062 194.609 492.08 193.766V192.5H493.688V193.643C493.683 194.229 493.536 194.814 493.249 195.4C492.968 195.98 492.604 196.449 492.159 196.807ZM501.432 200.287L495.622 198.011V196.341L503.128 199.663V200.946L495.622 204.277V202.59L501.432 200.287Z" fill="black"/>
<path fill-rule="evenodd" clip-rule="evenodd" d="M214 199.5C214 187.074 224.074 177 236.5 177H347.902C353.87 177 359.593 179.371 363.812 183.59C368.032 187.81 370.402 193.533 370.402 199.5C370.402 211.926 360.329 222 347.902 222H236.5C224.074 222 214 211.926 214 199.5Z" fill="#FCE5CD" stroke="#783F04" stroke-miterlimit="8" stroke-linejoin="round"/>
<path d="M255.894 200.34L261.396 202.563V204.286L254.206 200.955V199.672L261.396 196.35V198.072L255.894 200.34ZM265.729 206H264.103V192.5H265.729V206ZM270.105 206H268.479V196.49H270.105V206ZM268.348 193.968C268.348 193.704 268.427 193.481 268.585 193.3C268.749 193.118 268.989 193.027 269.306 193.027C269.622 193.027 269.862 193.118 270.026 193.3C270.19 193.481 270.272 193.704 270.272 193.968C270.272 194.231 270.19 194.451 270.026 194.627C269.862 194.803 269.622 194.891 269.306 194.891C268.989 194.891 268.749 194.803 268.585 194.627C268.427 194.451 268.348 194.231 268.348 193.968ZM278.947 206H277.321V196.49H278.947V206ZM277.189 193.968C277.189 193.704 277.269 193.481 277.427 193.3C277.591 193.118 277.831 193.027 278.147 193.027C278.464 193.027 278.704 193.118 278.868 193.3C279.032 193.481 279.114 193.704 279.114 193.968C279.114 194.231 279.032 194.451 278.868 194.627C278.704 194.803 278.464 194.891 278.147 194.891C277.831 194.891 277.591 194.803 277.427 194.627C277.269 194.451 277.189 194.231 277.189 193.968ZM281.162 201.166C281.162 199.707 281.508 198.535 282.199 197.65C282.891 196.76 283.796 196.314 284.915 196.314C286.028 196.314 286.91 196.695 287.561 197.457V192.5H289.187V206H287.692L287.613 204.98C286.963 205.777 286.058 206.176 284.897 206.176C283.796 206.176 282.896 205.725 282.199 204.822C281.508 203.92 281.162 202.742 281.162 201.289V201.166ZM282.788 201.351C282.788 202.429 283.011 203.272 283.456 203.882C283.901 204.491 284.517 204.796 285.302 204.796C286.333 204.796 287.086 204.333 287.561 203.407V199.039C287.074 198.143 286.327 197.694 285.319 197.694C284.522 197.694 283.901 198.002 283.456 198.617C283.011 199.232 282.788 200.144 282.788 201.351ZM299.153 198.846H291.823V197.431H299.153V198.846ZM299.153 202.493H291.823V201.087H299.153V202.493ZM301.816 196.807L300.894 196.174C301.438 195.412 301.72 194.609 301.737 193.766V192.5H303.346V193.643C303.34 194.229 303.193 194.814 302.906 195.4C302.625 195.98 302.262 196.449 301.816 196.807ZM304.515 196.807L303.592 196.174C304.137 195.412 304.418 194.609 304.436 193.766V192.5H306.044V193.643C306.038 194.229 305.892 194.814 305.604 195.4C305.323 195.98 304.96 196.449 304.515 196.807ZM311.317 204.849C311.897 204.849 312.404 204.673 312.838 204.321C313.271 203.97 313.512 203.53 313.559 203.003H315.097C315.067 203.548 314.88 204.066 314.534 204.559C314.188 205.051 313.726 205.443 313.146 205.736C312.571 206.029 311.962 206.176 311.317 206.176C310.022 206.176 308.991 205.745 308.224 204.884C307.462 204.017 307.081 202.833 307.081 201.333V201.061C307.081 200.135 307.251 199.312 307.591 198.591C307.931 197.87 308.417 197.311 309.05 196.912C309.688 196.514 310.441 196.314 311.309 196.314C312.375 196.314 313.26 196.634 313.963 197.272C314.672 197.911 315.05 198.74 315.097 199.76H313.559C313.512 199.145 313.277 198.641 312.855 198.248C312.439 197.85 311.924 197.65 311.309 197.65C310.482 197.65 309.841 197.949 309.384 198.547C308.933 199.139 308.707 199.997 308.707 201.122V201.43C308.707 202.525 308.933 203.369 309.384 203.961C309.835 204.553 310.479 204.849 311.317 204.849ZM317.039 196.807L316.116 196.174C316.661 195.412 316.942 194.609 316.96 193.766V192.5H318.568V193.643C318.562 194.229 318.416 194.814 318.129 195.4C317.848 195.98 317.484 196.449 317.039 196.807ZM319.737 196.807L318.814 196.174C319.359 195.412 319.641 194.609 319.658 193.766V192.5H321.267V193.643C321.261 194.229 321.114 194.814 320.827 195.4C320.546 195.98 320.183 196.449 319.737 196.807ZM329.01 200.287L323.2 198.011V196.341L330.706 199.663V200.946L323.2 204.277V202.59L329.01 200.287Z" fill="black"/>
<path fill-rule="evenodd" clip-rule="evenodd" d="M1 126.5C1 114.074 11.0736 104 23.5 104H134.902C140.87 104 146.593 106.371 150.812 110.59C155.032 114.81 157.402 120.533 157.402 126.5C157.402 138.926 147.329 149 134.902 149H23.5C11.0736 149 1 138.926 1 126.5Z" fill="#FCE5CD" stroke="#783F04" stroke-miterlimit="8" stroke-linejoin="round"/>
<path d="M42.1641 127.34L47.666 129.563V131.286L40.4766 127.955V126.672L47.666 123.35V125.072L42.1641 127.34ZM58.2656 128.351C58.2656 129.798 57.9346 130.964 57.2725 131.849C56.6104 132.733 55.7139 133.176 54.583 133.176C53.4287 133.176 52.5205 132.81 51.8584 132.077V136.656H50.2324V123.49H51.7178L51.7969 124.545C52.459 123.725 53.3789 123.314 54.5566 123.314C55.6992 123.314 56.6016 123.745 57.2637 124.606C57.9316 125.468 58.2656 126.666 58.2656 128.201V128.351ZM56.6396 128.166C56.6396 127.094 56.4111 126.247 55.9541 125.626C55.4971 125.005 54.8701 124.694 54.0732 124.694C53.0889 124.694 52.3506 125.131 51.8584 126.004V130.548C52.3447 131.415 53.0889 131.849 54.0908 131.849C54.8701 131.849 55.4883 131.541 55.9453 130.926C56.4082 130.305 56.6396 129.385 56.6396 128.166ZM66.5713 133H64.9453V123.49H66.5713V133ZM64.8135 120.968C64.8135 120.704 64.8926 120.481 65.0508 120.3C65.2148 120.118 65.4551 120.027 65.7715 120.027C66.0879 120.027 66.3281 120.118 66.4922 120.3C66.6562 120.481 66.7383 120.704 66.7383 120.968C66.7383 121.231 66.6562 121.451 66.4922 121.627C66.3281 121.803 66.0879 121.891 65.7715 121.891C65.4551 121.891 65.2148 121.803 65.0508 121.627C64.8926 121.451 64.8135 121.231 64.8135 120.968ZM68.7861 128.166C68.7861 126.707 69.1318 125.535 69.8232 124.65C70.5146 123.76 71.4199 123.314 72.5391 123.314C73.6523 123.314 74.5342 123.695 75.1846 124.457V119.5H76.8105V133H75.3164L75.2373 131.98C74.5869 132.777 73.6816 133.176 72.5215 133.176C71.4199 133.176 70.5205 132.725 69.8232 131.822C69.1318 130.92 68.7861 129.742 68.7861 128.289V128.166ZM70.4121 128.351C70.4121 129.429 70.6348 130.272 71.0801 130.882C71.5254 131.491 72.1406 131.796 72.9258 131.796C73.957 131.796 74.71 131.333 75.1846 130.407V126.039C74.6982 125.143 73.9512 124.694 72.9434 124.694C72.1465 124.694 71.5254 125.002 71.0801 125.617C70.6348 126.232 70.4121 127.144 70.4121 128.351ZM86.7773 125.846H79.4473V124.431H86.7773V125.846ZM86.7773 129.493H79.4473V128.087H86.7773V129.493ZM89.4404 123.807L88.5176 123.174C89.0625 122.412 89.3438 121.609 89.3613 120.766V119.5H90.9697V120.643C90.9639 121.229 90.8174 121.814 90.5303 122.4C90.249 122.98 89.8857 123.449 89.4404 123.807ZM92.1387 123.807L91.2158 123.174C91.7607 122.412 92.042 121.609 92.0596 120.766V119.5H93.668V120.643C93.6621 121.229 93.5156 121.814 93.2285 122.4C92.9473 122.98 92.584 123.449 92.1387 123.807ZM99.0732 133.176C97.7842 133.176 96.7354 132.754 95.9268 131.91C95.1182 131.061 94.7139 129.927 94.7139 128.509V128.21C94.7139 127.267 94.8926 126.426 95.25 125.688C95.6133 124.943 96.1172 124.363 96.7617 123.947C97.4121 123.525 98.1152 123.314 98.8711 123.314C100.107 123.314 101.068 123.722 101.754 124.536C102.439 125.351 102.782 126.517 102.782 128.034V128.711H96.3398C96.3633 129.648 96.6357 130.407 97.1572 130.987C97.6846 131.562 98.3525 131.849 99.1611 131.849C99.7354 131.849 100.222 131.731 100.62 131.497C101.019 131.263 101.367 130.952 101.666 130.565L102.659 131.339C101.862 132.563 100.667 133.176 99.0732 133.176ZM98.8711 124.65C98.2148 124.65 97.6641 124.891 97.2188 125.371C96.7734 125.846 96.498 126.514 96.3926 127.375H101.156V127.252C101.109 126.426 100.887 125.787 100.488 125.336C100.09 124.879 99.5508 124.65 98.8711 124.65ZM104.769 123.807L103.846 123.174C104.391 122.412 104.672 121.609 104.689 120.766V119.5H106.298V120.643C106.292 121.229 106.146 121.814 105.858 122.4C105.577 122.98 105.214 123.449 104.769 123.807ZM107.467 123.807L106.544 123.174C107.089 122.412 107.37 121.609 107.388 120.766V119.5H108.996V120.643C108.99 121.229 108.844 121.814 108.557 122.4C108.275 122.98 107.912 123.449 107.467 123.807ZM116.739 127.287L110.93 125.011V123.341L118.436 126.663V127.946L110.93 131.277V129.59L116.739 127.287Z" fill="black"/>
<rect x="1.5" y="177.5" width="156" height="44" rx="4.5" fill="white" stroke="black"/>
<path d="M38.7979 192.333L39.7295 192.966C39.1846 193.71 38.9033 194.513 38.8857 195.374V196.569H37.2686V195.55C37.2686 194.952 37.4092 194.36 37.6904 193.774C37.9775 193.188 38.3467 192.708 38.7979 192.333ZM41.5664 192.333L42.498 192.966C41.9531 193.71 41.6719 194.513 41.6543 195.374V196.569H40.0371V195.55C40.0371 194.952 40.1777 194.36 40.459 193.774C40.7461 193.188 41.1152 192.708 41.5664 192.333ZM53.0449 194.592H48.9316V206H47.2529V194.592H43.1484V193.203H53.0449V194.592ZM57.7559 206.176C56.4668 206.176 55.418 205.754 54.6094 204.91C53.8008 204.061 53.3965 202.927 53.3965 201.509V201.21C53.3965 200.267 53.5752 199.426 53.9326 198.688C54.2959 197.943 54.7998 197.363 55.4443 196.947C56.0947 196.525 56.7979 196.314 57.5537 196.314C58.79 196.314 59.751 196.722 60.4365 197.536C61.1221 198.351 61.4648 199.517 61.4648 201.034V201.711H55.0225C55.0459 202.648 55.3184 203.407 55.8398 203.987C56.3672 204.562 57.0352 204.849 57.8438 204.849C58.418 204.849 58.9043 204.731 59.3027 204.497C59.7012 204.263 60.0498 203.952 60.3486 203.565L61.3418 204.339C60.5449 205.563 59.3496 206.176 57.7559 206.176ZM57.5537 197.65C56.8975 197.65 56.3467 197.891 55.9014 198.371C55.4561 198.846 55.1807 199.514 55.0752 200.375H59.8389V200.252C59.792 199.426 59.5693 198.787 59.1709 198.336C58.7725 197.879 58.2334 197.65 57.5537 197.65ZM66.5449 199.962L68.6543 196.49H70.5527L67.4414 201.192L70.6494 206H68.7686L66.5713 202.44L64.374 206H62.4844L65.6924 201.192L62.5811 196.49H64.4619L66.5449 199.962ZM74.4902 194.188V196.49H76.2656V197.747H74.4902V203.645C74.4902 204.025 74.5693 204.312 74.7275 204.506C74.8857 204.693 75.1553 204.787 75.5361 204.787C75.7236 204.787 75.9814 204.752 76.3096 204.682V206C75.8818 206.117 75.4658 206.176 75.0615 206.176C74.335 206.176 73.7871 205.956 73.418 205.517C73.0488 205.077 72.8643 204.453 72.8643 203.645V197.747H71.1328V196.49H72.8643V194.188H74.4902ZM84.2637 197.642C84.9844 196.757 85.9219 196.314 87.0762 196.314C89.0859 196.314 90.0996 197.448 90.1172 199.716V206H88.4912V199.707C88.4854 199.021 88.3271 198.515 88.0166 198.187C87.7119 197.858 87.2344 197.694 86.584 197.694C86.0566 197.694 85.5938 197.835 85.1953 198.116C84.7969 198.397 84.4863 198.767 84.2637 199.224V206H82.6377V192.5H84.2637V197.642ZM96.498 206.176C95.209 206.176 94.1602 205.754 93.3516 204.91C92.543 204.061 92.1387 202.927 92.1387 201.509V201.21C92.1387 200.267 92.3174 199.426 92.6748 198.688C93.0381 197.943 93.542 197.363 94.1865 196.947C94.8369 196.525 95.54 196.314 96.2959 196.314C97.5322 196.314 98.4932 196.722 99.1787 197.536C99.8643 198.351 100.207 199.517 100.207 201.034V201.711H93.7646C93.7881 202.648 94.0605 203.407 94.582 203.987C95.1094 204.562 95.7773 204.849 96.5859 204.849C97.1602 204.849 97.6465 204.731 98.0449 204.497C98.4434 204.263 98.792 203.952 99.0908 203.565L100.084 204.339C99.2871 205.563 98.0918 206.176 96.498 206.176ZM96.2959 197.65C95.6396 197.65 95.0889 197.891 94.6436 198.371C94.1982 198.846 93.9229 199.514 93.8174 200.375H98.5811V200.252C98.5342 199.426 98.3115 198.787 97.9131 198.336C97.5146 197.879 96.9756 197.65 96.2959 197.65ZM106.693 197.949C106.447 197.908 106.181 197.888 105.894 197.888C104.827 197.888 104.104 198.342 103.723 199.25V206H102.097V196.49H103.679L103.705 197.589C104.238 196.739 104.994 196.314 105.973 196.314C106.289 196.314 106.529 196.355 106.693 196.438V197.949ZM111.967 206.176C110.678 206.176 109.629 205.754 108.82 204.91C108.012 204.061 107.607 202.927 107.607 201.509V201.21C107.607 200.267 107.786 199.426 108.144 198.688C108.507 197.943 109.011 197.363 109.655 196.947C110.306 196.525 111.009 196.314 111.765 196.314C113.001 196.314 113.962 196.722 114.647 197.536C115.333 198.351 115.676 199.517 115.676 201.034V201.711H109.233C109.257 202.648 109.529 203.407 110.051 203.987C110.578 204.562 111.246 204.849 112.055 204.849C112.629 204.849 113.115 204.731 113.514 204.497C113.912 204.263 114.261 203.952 114.56 203.565L115.553 204.339C114.756 205.563 113.561 206.176 111.967 206.176ZM111.765 197.65C111.108 197.65 110.558 197.891 110.112 198.371C109.667 198.846 109.392 199.514 109.286 200.375H114.05V200.252C114.003 199.426 113.78 198.787 113.382 198.336C112.983 197.879 112.444 197.65 111.765 197.65ZM117.662 196.807L116.739 196.174C117.284 195.412 117.565 194.609 117.583 193.766V192.5H119.191V193.643C119.186 194.229 119.039 194.814 118.752 195.4C118.471 195.98 118.107 196.449 117.662 196.807ZM120.36 196.807L119.438 196.174C119.982 195.412 120.264 194.609 120.281 193.766V192.5H121.89V193.643C121.884 194.229 121.737 194.814 121.45 195.4C121.169 195.98 120.806 196.449 120.36 196.807Z" fill="black"/>
<rect x="213.5" y="250.5" width="156" height="44" rx="4.5" fill="white" stroke="black"/>
<path d="M262.197 265.333L263.129 265.966C262.584 266.71 262.303 267.513 262.285 268.374V269.569H260.668V268.55C260.668 267.952 260.809 267.36 261.09 266.774C261.377 266.188 261.746 265.708 262.197 265.333ZM264.966 265.333L265.897 265.966C265.353 266.71 265.071 267.513 265.054 268.374V269.569H263.437V268.55C263.437 267.952 263.577 267.36 263.858 266.774C264.146 266.188 264.515 265.708 264.966 265.333ZM269.413 279H267.726V266.203H269.413V279ZM274.458 267.188V269.49H276.233V270.747H274.458V276.645C274.458 277.025 274.537 277.312 274.695 277.506C274.854 277.693 275.123 277.787 275.504 277.787C275.691 277.787 275.949 277.752 276.277 277.682V279C275.85 279.117 275.434 279.176 275.029 279.176C274.303 279.176 273.755 278.956 273.386 278.517C273.017 278.077 272.832 277.453 272.832 276.645V270.747H271.101V269.49H272.832V267.188H274.458ZM282.087 279.176C280.798 279.176 279.749 278.754 278.94 277.91C278.132 277.061 277.728 275.927 277.728 274.509V274.21C277.728 273.267 277.906 272.426 278.264 271.688C278.627 270.943 279.131 270.363 279.775 269.947C280.426 269.525 281.129 269.314 281.885 269.314C283.121 269.314 284.082 269.722 284.768 270.536C285.453 271.351 285.796 272.517 285.796 274.034V274.711H279.354C279.377 275.648 279.649 276.407 280.171 276.987C280.698 277.562 281.366 277.849 282.175 277.849C282.749 277.849 283.235 277.731 283.634 277.497C284.032 277.263 284.381 276.952 284.68 276.565L285.673 277.339C284.876 278.563 283.681 279.176 282.087 279.176ZM281.885 270.65C281.229 270.65 280.678 270.891 280.232 271.371C279.787 271.846 279.512 272.514 279.406 273.375H284.17V273.252C284.123 272.426 283.9 271.787 283.502 271.336C283.104 270.879 282.564 270.65 281.885 270.65ZM289.215 269.49L289.259 270.545C289.956 269.725 290.896 269.314 292.08 269.314C293.41 269.314 294.315 269.824 294.796 270.844C295.112 270.387 295.522 270.018 296.026 269.736C296.536 269.455 297.137 269.314 297.828 269.314C299.914 269.314 300.975 270.419 301.01 272.628V279H299.384V272.725C299.384 272.045 299.229 271.538 298.918 271.204C298.607 270.864 298.086 270.694 297.354 270.694C296.75 270.694 296.249 270.876 295.851 271.239C295.452 271.597 295.221 272.08 295.156 272.689V279H293.521V272.769C293.521 271.386 292.845 270.694 291.491 270.694C290.425 270.694 289.695 271.148 289.303 272.057V279H287.677V269.49H289.215ZM313.112 279H311.478V268.163L308.199 269.367V267.891L312.857 266.142H313.112V279ZM318.263 269.807L317.34 269.174C317.885 268.412 318.166 267.609 318.184 266.766V265.5H319.792V266.643C319.786 267.229 319.64 267.814 319.353 268.4C319.071 268.98 318.708 269.449 318.263 269.807ZM320.961 269.807L320.038 269.174C320.583 268.412 320.864 267.609 320.882 266.766V265.5H322.49V266.643C322.484 267.229 322.338 267.814 322.051 268.4C321.77 268.98 321.406 269.449 320.961 269.807Z" fill="black"/>
<rect x="386.5" y="250.5" width="156" height="44" rx="4.5" fill="white" stroke="black"/>
<path d="M435.197 265.333L436.129 265.966C435.584 266.71 435.303 267.513 435.285 268.374V269.569H433.668V268.55C433.668 267.952 433.809 267.36 434.09 266.774C434.377 266.188 434.746 265.708 435.197 265.333ZM437.966 265.333L438.897 265.966C438.353 266.71 438.071 267.513 438.054 268.374V269.569H436.437V268.55C436.437 267.952 436.577 267.36 436.858 266.774C437.146 266.188 437.515 265.708 437.966 265.333ZM442.413 279H440.726V266.203H442.413V279ZM447.458 267.188V269.49H449.233V270.747H447.458V276.645C447.458 277.025 447.537 277.312 447.695 277.506C447.854 277.693 448.123 277.787 448.504 277.787C448.691 277.787 448.949 277.752 449.277 277.682V279C448.85 279.117 448.434 279.176 448.029 279.176C447.303 279.176 446.755 278.956 446.386 278.517C446.017 278.077 445.832 277.453 445.832 276.645V270.747H444.101V269.49H445.832V267.188H447.458ZM455.087 279.176C453.798 279.176 452.749 278.754 451.94 277.91C451.132 277.061 450.728 275.927 450.728 274.509V274.21C450.728 273.267 450.906 272.426 451.264 271.688C451.627 270.943 452.131 270.363 452.775 269.947C453.426 269.525 454.129 269.314 454.885 269.314C456.121 269.314 457.082 269.722 457.768 270.536C458.453 271.351 458.796 272.517 458.796 274.034V274.711H452.354C452.377 275.648 452.649 276.407 453.171 276.987C453.698 277.562 454.366 277.849 455.175 277.849C455.749 277.849 456.235 277.731 456.634 277.497C457.032 277.263 457.381 276.952 457.68 276.565L458.673 277.339C457.876 278.563 456.681 279.176 455.087 279.176ZM454.885 270.65C454.229 270.65 453.678 270.891 453.232 271.371C452.787 271.846 452.512 272.514 452.406 273.375H457.17V273.252C457.123 272.426 456.9 271.787 456.502 271.336C456.104 270.879 455.564 270.65 454.885 270.65ZM462.215 269.49L462.259 270.545C462.956 269.725 463.896 269.314 465.08 269.314C466.41 269.314 467.315 269.824 467.796 270.844C468.112 270.387 468.522 270.018 469.026 269.736C469.536 269.455 470.137 269.314 470.828 269.314C472.914 269.314 473.975 270.419 474.01 272.628V279H472.384V272.725C472.384 272.045 472.229 271.538 471.918 271.204C471.607 270.864 471.086 270.694 470.354 270.694C469.75 270.694 469.249 270.876 468.851 271.239C468.452 271.597 468.221 272.08 468.156 272.689V279H466.521V272.769C466.521 271.386 465.845 270.694 464.491 270.694C463.425 270.694 462.695 271.148 462.303 272.057V279H460.677V269.49H462.215ZM489.153 279H480.769V277.831L485.198 272.909C485.854 272.165 486.306 271.562 486.552 271.099C486.804 270.63 486.93 270.146 486.93 269.648C486.93 268.98 486.728 268.433 486.323 268.005C485.919 267.577 485.38 267.363 484.706 267.363C483.897 267.363 483.268 267.595 482.816 268.058C482.371 268.515 482.148 269.153 482.148 269.974H480.522C480.522 268.796 480.9 267.844 481.656 267.117C482.418 266.391 483.435 266.027 484.706 266.027C485.896 266.027 486.836 266.341 487.527 266.968C488.219 267.589 488.564 268.418 488.564 269.455C488.564 270.715 487.762 272.215 486.156 273.955L482.729 277.673H489.153V279ZM491.263 269.807L490.34 269.174C490.885 268.412 491.166 267.609 491.184 266.766V265.5H492.792V266.643C492.786 267.229 492.64 267.814 492.353 268.4C492.071 268.98 491.708 269.449 491.263 269.807ZM493.961 269.807L493.038 269.174C493.583 268.412 493.864 267.609 493.882 266.766V265.5H495.49V266.643C495.484 267.229 495.338 267.814 495.051 268.4C494.77 268.98 494.406 269.449 493.961 269.807Z" fill="black"/>
<path fill-rule="evenodd" clip-rule="evenodd" d="M299 126.5C299 114.074 309.074 104 321.5 104H432.902C438.87 104 444.593 106.371 448.812 110.59C453.032 114.81 455.402 120.533 455.402 126.5C455.402 138.926 445.329 149 432.902 149H321.5C309.074 149 299 138.926 299 126.5Z" fill="#FCE5CD" stroke="#783F04" stroke-miterlimit="8" stroke-linejoin="round"/>
<path d="M337.589 127.34L343.091 129.563V131.286L335.901 127.955V126.672L343.091 123.35V125.072L337.589 127.34ZM351.528 132.06C350.896 132.804 349.967 133.176 348.742 133.176C347.729 133.176 346.955 132.883 346.422 132.297C345.895 131.705 345.628 130.832 345.622 129.678V123.49H347.248V129.634C347.248 131.075 347.834 131.796 349.006 131.796C350.248 131.796 351.074 131.333 351.484 130.407V123.49H353.11V133H351.563L351.528 132.06ZM357.355 133H355.729V119.5H357.355V133ZM366.197 133H364.571V123.49H366.197V133ZM364.439 120.968C364.439 120.704 364.519 120.481 364.677 120.3C364.841 120.118 365.081 120.027 365.397 120.027C365.714 120.027 365.954 120.118 366.118 120.3C366.282 120.481 366.364 120.704 366.364 120.968C366.364 121.231 366.282 121.451 366.118 121.627C365.954 121.803 365.714 121.891 365.397 121.891C365.081 121.891 364.841 121.803 364.677 121.627C364.519 121.451 364.439 121.231 364.439 120.968ZM368.412 128.166C368.412 126.707 368.758 125.535 369.449 124.65C370.141 123.76 371.046 123.314 372.165 123.314C373.278 123.314 374.16 123.695 374.811 124.457V119.5H376.437V133H374.942L374.863 131.98C374.213 132.777 373.308 133.176 372.147 133.176C371.046 133.176 370.146 132.725 369.449 131.822C368.758 130.92 368.412 129.742 368.412 128.289V128.166ZM370.038 128.351C370.038 129.429 370.261 130.272 370.706 130.882C371.151 131.491 371.767 131.796 372.552 131.796C373.583 131.796 374.336 131.333 374.811 130.407V126.039C374.324 125.143 373.577 124.694 372.569 124.694C371.772 124.694 371.151 125.002 370.706 125.617C370.261 126.232 370.038 127.144 370.038 128.351ZM386.403 125.846H379.073V124.431H386.403V125.846ZM386.403 129.493H379.073V128.087H386.403V129.493ZM389.066 123.807L388.144 123.174C388.688 122.412 388.97 121.609 388.987 120.766V119.5H390.596V120.643C390.59 121.229 390.443 121.814 390.156 122.4C389.875 122.98 389.512 123.449 389.066 123.807ZM391.765 123.807L390.842 123.174C391.387 122.412 391.668 121.609 391.686 120.766V119.5H393.294V120.643C393.288 121.229 393.142 121.814 392.854 122.4C392.573 122.98 392.21 123.449 391.765 123.807ZM403.331 128.351C403.331 129.804 402.997 130.973 402.329 131.857C401.661 132.736 400.765 133.176 399.64 133.176C398.438 133.176 397.51 132.751 396.854 131.901L396.774 133H395.28V119.5H396.906V124.536C397.562 123.722 398.468 123.314 399.622 123.314C400.776 123.314 401.682 123.751 402.338 124.624C403 125.497 403.331 126.692 403.331 128.21V128.351ZM401.705 128.166C401.705 127.059 401.491 126.203 401.063 125.6C400.636 124.996 400.021 124.694 399.218 124.694C398.146 124.694 397.375 125.192 396.906 126.188V130.302C397.404 131.298 398.181 131.796 399.235 131.796C400.015 131.796 400.621 131.494 401.055 130.891C401.488 130.287 401.705 129.379 401.705 128.166ZM405.344 123.807L404.421 123.174C404.966 122.412 405.247 121.609 405.265 120.766V119.5H406.873V120.643C406.867 121.229 406.721 121.814 406.434 122.4C406.152 122.98 405.789 123.449 405.344 123.807ZM408.042 123.807L407.119 123.174C407.664 122.412 407.945 121.609 407.963 120.766V119.5H409.571V120.643C409.565 121.229 409.419 121.814 409.132 122.4C408.851 122.98 408.487 123.449 408.042 123.807ZM417.314 127.287L411.505 125.011V123.341L419.011 126.663V127.946L411.505 131.277V129.59L417.314 127.287Z" fill="black"/>
<path fill-rule="evenodd" clip-rule="evenodd" d="M193 23.5C193 11.0736 203.074 1 215.5 1H326.902C332.87 1 338.593 3.37056 342.812 7.59013C347.032 11.8097 349.402 17.5326 349.402 23.5C349.402 35.9264 339.329 46 326.902 46H215.5C203.074 46 193 35.9264 193 23.5Z" fill="#FCE5CD" stroke="#783F04" stroke-miterlimit="8" stroke-linejoin="round"/>
<path d="M219.346 24.3398L224.848 26.5635V28.2861L217.658 24.9551V23.6719L224.848 20.3496V22.0723L219.346 24.3398ZM228.943 20.4902L228.987 21.5449C229.685 20.7246 230.625 20.3145 231.809 20.3145C233.139 20.3145 234.044 20.8242 234.524 21.8438C234.841 21.3867 235.251 21.0176 235.755 20.7363C236.265 20.4551 236.865 20.3145 237.557 20.3145C239.643 20.3145 240.703 21.4189 240.738 23.6279V30H239.112V23.7246C239.112 23.0449 238.957 22.5381 238.646 22.2041C238.336 21.8643 237.814 21.6943 237.082 21.6943C236.479 21.6943 235.978 21.876 235.579 22.2393C235.181 22.5967 234.949 23.0801 234.885 23.6895V30H233.25V23.7686C233.25 22.3857 232.573 21.6943 231.22 21.6943C230.153 21.6943 229.424 22.1484 229.031 23.0566V30H227.405V20.4902H228.943ZM249.07 30C248.977 29.8125 248.9 29.4785 248.842 28.998C248.086 29.7832 247.184 30.1758 246.135 30.1758C245.197 30.1758 244.427 29.9121 243.823 29.3848C243.226 28.8516 242.927 28.1777 242.927 27.3633C242.927 26.373 243.302 25.6055 244.052 25.0605C244.808 24.5098 245.868 24.2344 247.233 24.2344H248.815V23.4873C248.815 22.9189 248.646 22.4678 248.306 22.1338C247.966 21.7939 247.465 21.624 246.803 21.624C246.223 21.624 245.736 21.7705 245.344 22.0635C244.951 22.3564 244.755 22.7109 244.755 23.127H243.12C243.12 22.6523 243.287 22.1953 243.621 21.7559C243.961 21.3105 244.418 20.959 244.992 20.7012C245.572 20.4434 246.208 20.3145 246.899 20.3145C247.995 20.3145 248.854 20.5898 249.475 21.1406C250.096 21.6855 250.418 22.4385 250.441 23.3994V27.7764C250.441 28.6494 250.553 29.3438 250.775 29.8594V30H249.07ZM246.372 28.7607C246.882 28.7607 247.365 28.6289 247.822 28.3652C248.279 28.1016 248.61 27.7588 248.815 27.3369V25.3857H247.541C245.549 25.3857 244.553 25.9688 244.553 27.1348C244.553 27.6445 244.723 28.043 245.062 28.3301C245.402 28.6172 245.839 28.7607 246.372 28.7607ZM254.757 30H253.131V20.4902H254.757V30ZM252.999 17.9678C252.999 17.7041 253.078 17.4814 253.236 17.2998C253.4 17.1182 253.641 17.0273 253.957 17.0273C254.273 17.0273 254.514 17.1182 254.678 17.2998C254.842 17.4814 254.924 17.7041 254.924 17.9678C254.924 18.2314 254.842 18.4512 254.678 18.627C254.514 18.8027 254.273 18.8906 253.957 18.8906C253.641 18.8906 253.4 18.8027 253.236 18.627C253.078 18.4512 252.999 18.2314 252.999 17.9678ZM258.905 20.4902L258.958 21.6855C259.685 20.7715 260.634 20.3145 261.806 20.3145C263.815 20.3145 264.829 21.4482 264.847 23.7158V30H263.221V23.707C263.215 23.0215 263.057 22.5146 262.746 22.1865C262.441 21.8584 261.964 21.6943 261.313 21.6943C260.786 21.6943 260.323 21.835 259.925 22.1162C259.526 22.3975 259.216 22.7666 258.993 23.2236V30H257.367V20.4902H258.905ZM273.53 30H271.904V20.4902H273.53V30ZM271.772 17.9678C271.772 17.7041 271.852 17.4814 272.01 17.2998C272.174 17.1182 272.414 17.0273 272.73 17.0273C273.047 17.0273 273.287 17.1182 273.451 17.2998C273.615 17.4814 273.697 17.7041 273.697 17.9678C273.697 18.2314 273.615 18.4512 273.451 18.627C273.287 18.8027 273.047 18.8906 272.73 18.8906C272.414 18.8906 272.174 18.8027 272.01 18.627C271.852 18.4512 271.772 18.2314 271.772 17.9678ZM275.745 25.166C275.745 23.707 276.091 22.5352 276.782 21.6504C277.474 20.7598 278.379 20.3145 279.498 20.3145C280.611 20.3145 281.493 20.6953 282.144 21.457V16.5H283.77V30H282.275L282.196 28.9805C281.546 29.7773 280.641 30.1758 279.48 30.1758C278.379 30.1758 277.479 29.7246 276.782 28.8223C276.091 27.9199 275.745 26.7422 275.745 25.2891V25.166ZM277.371 25.3506C277.371 26.4287 277.594 27.2725 278.039 27.8818C278.484 28.4912 279.1 28.7959 279.885 28.7959C280.916 28.7959 281.669 28.333 282.144 27.4072V23.0391C281.657 22.1426 280.91 21.6943 279.902 21.6943C279.105 21.6943 278.484 22.002 278.039 22.6172C277.594 23.2324 277.371 24.1436 277.371 25.3506ZM293.736 22.8457H286.406V21.4307H293.736V22.8457ZM293.736 26.4932H286.406V25.0869H293.736V26.4932ZM296.399 20.8066L295.477 20.1738C296.021 19.4121 296.303 18.6094 296.32 17.7656V16.5H297.929V17.6426C297.923 18.2285 297.776 18.8145 297.489 19.4004C297.208 19.9805 296.845 20.4492 296.399 20.8066ZM299.098 20.8066L298.175 20.1738C298.72 19.4121 299.001 18.6094 299.019 17.7656V16.5H300.627V17.6426C300.621 18.2285 300.475 18.8145 300.188 19.4004C299.906 19.9805 299.543 20.4492 299.098 20.8066ZM308.045 30C307.951 29.8125 307.875 29.4785 307.816 28.998C307.061 29.7832 306.158 30.1758 305.109 30.1758C304.172 30.1758 303.401 29.9121 302.798 29.3848C302.2 28.8516 301.901 28.1777 301.901 27.3633C301.901 26.373 302.276 25.6055 303.026 25.0605C303.782 24.5098 304.843 24.2344 306.208 24.2344H307.79V23.4873C307.79 22.9189 307.62 22.4678 307.28 22.1338C306.94 21.7939 306.439 21.624 305.777 21.624C305.197 21.624 304.711 21.7705 304.318 22.0635C303.926 22.3564 303.729 22.7109 303.729 23.127H302.095C302.095 22.6523 302.262 22.1953 302.596 21.7559C302.936 21.3105 303.393 20.959 303.967 20.7012C304.547 20.4434 305.183 20.3145 305.874 20.3145C306.97 20.3145 307.828 20.5898 308.449 21.1406C309.07 21.6855 309.393 22.4385 309.416 23.3994V27.7764C309.416 28.6494 309.527 29.3438 309.75 29.8594V30H308.045ZM305.347 28.7607C305.856 28.7607 306.34 28.6289 306.797 28.3652C307.254 28.1016 307.585 27.7588 307.79 27.3369V25.3857H306.516C304.523 25.3857 303.527 25.9688 303.527 27.1348C303.527 27.6445 303.697 28.043 304.037 28.3301C304.377 28.6172 304.813 28.7607 305.347 28.7607ZM311.587 20.8066L310.664 20.1738C311.209 19.4121 311.49 18.6094 311.508 17.7656V16.5H313.116V17.6426C313.11 18.2285 312.964 18.8145 312.677 19.4004C312.396 19.9805 312.032 20.4492 311.587 20.8066ZM314.285 20.8066L313.362 20.1738C313.907 19.4121 314.188 18.6094 314.206 17.7656V16.5H315.814V17.6426C315.809 18.2285 315.662 18.8145 315.375 19.4004C315.094 19.9805 314.73 20.4492 314.285 20.8066ZM323.558 24.2871L317.748 22.0107V20.3408L325.254 23.6631V24.9463L317.748 28.2773V26.5898L323.558 24.2871Z" fill="black"/>
</svg>
