<svg width="417" height="195" viewBox="0 0 417 195" fill="none" xmlns="http://www.w3.org/2000/svg">
<mask id="path-1-outside-1" maskUnits="userSpaceOnUse" x="77.163" y="45.5" width="264" height="104" fill="black">
<rect fill="white" x="77.163" y="45.5" width="264" height="104"/>
<path fill-rule="evenodd" clip-rule="evenodd" d="M253.163 61.5L253.163 60.5L252.163 60.5L167 60.5L167 46.5L167 46.5H165V60.4727L79.163 60.4727H78.163L78.163 61.4727L78.163 75.5H80.163L80.163 62.4727L165 62.4727V62.5H166L251.163 62.5L251.163 75.5273L253.163 75.5273L253.163 61.5ZM339.623 132.38V133.38V148.5L337.623 148.5V134.38H252.46H251.46V134.353L166.623 134.353V148.353H164.623V133.353V132.353H165.623L251.46 132.353L251.46 121.5L251.46 121.5L253.46 121.5L253.46 121.5L253.46 132.38H338.623H339.623Z"/>
</mask>
<path fill-rule="evenodd" clip-rule="evenodd" d="M253.163 61.5L253.163 60.5L252.163 60.5L167 60.5L167 46.5L167 46.5H165V60.4727L79.163 60.4727H78.163L78.163 61.4727L78.163 75.5H80.163L80.163 62.4727L165 62.4727V62.5H166L251.163 62.5L251.163 75.5273L253.163 75.5273L253.163 61.5ZM339.623 132.38V133.38V148.5L337.623 148.5V134.38H252.46H251.46V134.353L166.623 134.353V148.353H164.623V133.353V132.353H165.623L251.46 132.353L251.46 121.5L251.46 121.5L253.46 121.5L253.46 121.5L253.46 132.38H338.623H339.623Z" fill="black"/>
<path d="M253.163 60.5L254.163 60.5L254.163 59.5L253.163 59.5L253.163 60.5ZM253.163 61.5L252.163 61.5L252.163 61.5L253.163 61.5ZM252.163 60.5L252.163 59.5L252.163 59.5L252.163 60.5ZM167 60.5L166 60.5L166 61.5L167 61.5L167 60.5ZM167 46.5L168 46.5L168 45.5391L167.04 45.5008L167 46.5ZM167 46.5L167.04 45.5008L167.02 45.5H167V46.5ZM165 46.5V45.5H164V46.5H165ZM165 60.4727L165 61.4727L166 61.4727V60.4727H165ZM79.163 60.4727L79.163 61.4727L79.163 61.4727L79.163 60.4727ZM78.163 60.4727V59.4727H77.163L77.163 60.4727L78.163 60.4727ZM78.163 61.4727L79.163 61.4727L79.163 61.4727L78.163 61.4727ZM78.163 75.5L77.163 75.5L77.163 76.5H78.163V75.5ZM80.163 75.5V76.5H81.163L81.163 75.5L80.163 75.5ZM80.163 62.4727L80.163 61.4727L79.163 61.4727L79.163 62.4727L80.163 62.4727ZM165 62.4727H166V61.4727L165 61.4727L165 62.4727ZM165 62.5H164V63.5H165V62.5ZM166 62.5L166 63.5H166L166 62.5ZM251.163 62.5L252.163 62.5L252.163 61.5L251.163 61.5L251.163 62.5ZM251.163 75.5273L250.163 75.5273L250.163 76.5273L251.163 76.5273L251.163 75.5273ZM253.163 75.5273L253.163 76.5273L254.163 76.5273L254.163 75.5273L253.163 75.5273ZM339.623 132.38H340.623V131.38H339.623V132.38ZM339.623 148.5L339.623 149.5L340.623 149.5V148.5H339.623ZM337.623 148.5H336.623V149.5L337.623 149.5L337.623 148.5ZM337.623 134.38H338.623V133.38H337.623V134.38ZM251.46 134.38H250.46V135.38H251.46V134.38ZM251.46 134.353H252.46V133.353L251.46 133.353L251.46 134.353ZM166.623 134.353L166.623 133.353L165.623 133.353V134.353H166.623ZM166.623 148.353V149.353H167.623V148.353H166.623ZM164.623 148.353H163.623V149.353H164.623V148.353ZM164.623 132.353V131.353H163.623V132.353H164.623ZM165.623 132.353L165.623 133.353H165.623L165.623 132.353ZM251.46 132.353L251.46 133.353L252.46 133.353L252.46 132.353L251.46 132.353ZM251.46 121.5L251.397 120.502L250.46 120.561L250.46 121.5L251.46 121.5ZM251.46 121.5L251.46 120.5L251.428 120.5L251.397 120.502L251.46 121.5ZM253.46 121.5L253.46 122.5L253.491 122.5L253.522 122.498L253.46 121.5ZM253.46 121.5L254.46 121.5L254.46 120.436L253.397 120.502L253.46 121.5ZM253.46 132.38L252.46 132.38L252.46 133.38H253.46V132.38ZM252.163 60.5L252.163 61.5L254.163 61.5L254.163 60.5L252.163 60.5ZM252.163 61.5L253.163 61.5L253.163 59.5L252.163 59.5L252.163 61.5ZM167 61.5L252.163 61.5L252.163 59.5L167 59.5L167 61.5ZM166 46.5L166 60.5L168 60.5L168 46.5L166 46.5ZM166.96 47.4992L166.96 47.4992L167.04 45.5008L167.04 45.5008L166.96 47.4992ZM165 47.5H167V45.5H165V47.5ZM166 60.4727V46.5H164V60.4727H166ZM79.163 61.4727L165 61.4727L165 59.4727L79.163 59.4727L79.163 61.4727ZM78.163 61.4727H79.163V59.4727H78.163V61.4727ZM79.163 61.4727L79.163 60.4727L77.163 60.4727L77.163 61.4727L79.163 61.4727ZM79.163 75.5L79.163 61.4727L77.163 61.4727L77.163 75.5L79.163 75.5ZM80.163 74.5H78.163V76.5H80.163V74.5ZM79.163 62.4727L79.163 75.5L81.163 75.5L81.163 62.4727L79.163 62.4727ZM165 61.4727L80.163 61.4727L80.163 63.4727L165 63.4727L165 61.4727ZM166 62.5V62.4727H164V62.5H166ZM166 61.5H165V63.5H166V61.5ZM251.163 61.5L166 61.5L166 63.5L251.163 63.5L251.163 61.5ZM252.163 75.5273L252.163 62.5L250.163 62.5L250.163 75.5273L252.163 75.5273ZM253.163 74.5273L251.163 74.5273L251.163 76.5273L253.163 76.5273L253.163 74.5273ZM252.163 61.5L252.163 75.5273L254.163 75.5273L254.163 61.5L252.163 61.5ZM340.623 133.38V132.38H338.623V133.38H340.623ZM340.623 148.5V133.38H338.623V148.5H340.623ZM337.623 149.5L339.623 149.5L339.623 147.5L337.623 147.5L337.623 149.5ZM336.623 134.38V148.5H338.623V134.38H336.623ZM252.46 135.38H337.623V133.38H252.46V135.38ZM251.46 135.38H252.46V133.38H251.46V135.38ZM250.46 134.353V134.38H252.46V134.353H250.46ZM251.46 133.353L166.623 133.353L166.623 135.353L251.46 135.353L251.46 133.353ZM165.623 134.353V148.353H167.623V134.353H165.623ZM166.623 147.353H164.623V149.353H166.623V147.353ZM165.623 148.353V133.353H163.623V148.353H165.623ZM165.623 133.353V132.353H163.623V133.353H165.623ZM164.623 133.353H165.623V131.353H164.623V133.353ZM165.623 133.353L251.46 133.353L251.46 131.353L165.623 131.353L165.623 133.353ZM250.46 121.5L250.46 132.353L252.46 132.353L252.46 121.5L250.46 121.5ZM251.397 120.502L251.397 120.502L251.522 122.498L251.522 122.498L251.397 120.502ZM251.46 122.5L253.46 122.5L253.46 120.5L251.46 120.5L251.46 122.5ZM253.522 122.498L253.522 122.498L253.397 120.502L253.397 120.502L253.522 122.498ZM252.46 121.5L252.46 132.38L254.46 132.38L254.46 121.5L252.46 121.5ZM338.623 131.38H253.46V133.38H338.623V131.38ZM339.623 131.38H338.623V133.38H339.623V131.38Z" fill="white" mask="url(#path-1-outside-1)"/>
<path fill-rule="evenodd" clip-rule="evenodd" d="M88 171.5C88 159.074 98.0736 149 110.5 149H221.902C227.87 149 233.593 151.371 237.812 155.59C242.032 159.81 244.402 165.533 244.402 171.5C244.402 183.926 234.329 194 221.902 194H110.5C98.0736 194 88 183.926 88 171.5Z" fill="#FCCDCD" stroke="#780404" stroke-miterlimit="8" stroke-linejoin="round"/>
<path d="M129.894 172.34L135.396 174.563V176.286L128.206 172.955V171.672L135.396 168.35V170.072L129.894 172.34ZM139.729 178H138.103V164.5H139.729V178ZM144.105 178H142.479V168.49H144.105V178ZM142.348 165.968C142.348 165.704 142.427 165.481 142.585 165.3C142.749 165.118 142.989 165.027 143.306 165.027C143.622 165.027 143.862 165.118 144.026 165.3C144.19 165.481 144.272 165.704 144.272 165.968C144.272 166.231 144.19 166.451 144.026 166.627C143.862 166.803 143.622 166.891 143.306 166.891C142.989 166.891 142.749 166.803 142.585 166.627C142.427 166.451 142.348 166.231 142.348 165.968ZM152.947 178H151.321V168.49H152.947V178ZM151.189 165.968C151.189 165.704 151.269 165.481 151.427 165.3C151.591 165.118 151.831 165.027 152.147 165.027C152.464 165.027 152.704 165.118 152.868 165.3C153.032 165.481 153.114 165.704 153.114 165.968C153.114 166.231 153.032 166.451 152.868 166.627C152.704 166.803 152.464 166.891 152.147 166.891C151.831 166.891 151.591 166.803 151.427 166.627C151.269 166.451 151.189 166.231 151.189 165.968ZM155.162 173.166C155.162 171.707 155.508 170.535 156.199 169.65C156.891 168.76 157.796 168.314 158.915 168.314C160.028 168.314 160.91 168.695 161.561 169.457V164.5H163.187V178H161.692L161.613 176.98C160.963 177.777 160.058 178.176 158.897 178.176C157.796 178.176 156.896 177.725 156.199 176.822C155.508 175.92 155.162 174.742 155.162 173.289V173.166ZM156.788 173.351C156.788 174.429 157.011 175.272 157.456 175.882C157.901 176.491 158.517 176.796 159.302 176.796C160.333 176.796 161.086 176.333 161.561 175.407V171.039C161.074 170.143 160.327 169.694 159.319 169.694C158.522 169.694 157.901 170.002 157.456 170.617C157.011 171.232 156.788 172.144 156.788 173.351ZM173.153 170.846H165.823V169.431H173.153V170.846ZM173.153 174.493H165.823V173.087H173.153V174.493ZM175.816 168.807L174.894 168.174C175.438 167.412 175.72 166.609 175.737 165.766V164.5H177.346V165.643C177.34 166.229 177.193 166.814 176.906 167.4C176.625 167.98 176.262 168.449 175.816 168.807ZM178.515 168.807L177.592 168.174C178.137 167.412 178.418 166.609 178.436 165.766V164.5H180.044V165.643C180.038 166.229 179.892 166.814 179.604 167.4C179.323 167.98 178.96 168.449 178.515 168.807ZM185.317 176.849C185.897 176.849 186.404 176.673 186.838 176.321C187.271 175.97 187.512 175.53 187.559 175.003H189.097C189.067 175.548 188.88 176.066 188.534 176.559C188.188 177.051 187.726 177.443 187.146 177.736C186.571 178.029 185.962 178.176 185.317 178.176C184.022 178.176 182.991 177.745 182.224 176.884C181.462 176.017 181.081 174.833 181.081 173.333V173.061C181.081 172.135 181.251 171.312 181.591 170.591C181.931 169.87 182.417 169.311 183.05 168.912C183.688 168.514 184.441 168.314 185.309 168.314C186.375 168.314 187.26 168.634 187.963 169.272C188.672 169.911 189.05 170.74 189.097 171.76H187.559C187.512 171.145 187.277 170.641 186.855 170.248C186.439 169.85 185.924 169.65 185.309 169.65C184.482 169.65 183.841 169.949 183.384 170.547C182.933 171.139 182.707 171.997 182.707 173.122V173.43C182.707 174.525 182.933 175.369 183.384 175.961C183.835 176.553 184.479 176.849 185.317 176.849ZM191.039 168.807L190.116 168.174C190.661 167.412 190.942 166.609 190.96 165.766V164.5H192.568V165.643C192.562 166.229 192.416 166.814 192.129 167.4C191.848 167.98 191.484 168.449 191.039 168.807ZM193.737 168.807L192.814 168.174C193.359 167.412 193.641 166.609 193.658 165.766V164.5H195.267V165.643C195.261 166.229 195.114 166.814 194.827 167.4C194.546 167.98 194.183 168.449 193.737 168.807ZM203.01 172.287L197.2 170.011V168.341L204.706 171.663V172.946L197.2 176.277V174.59L203.01 172.287Z" fill="black"/>
<path fill-rule="evenodd" clip-rule="evenodd" d="M260 171.5C260 159.074 270.074 149 282.5 149H393.902C399.87 149 405.593 151.371 409.812 155.59C414.032 159.81 416.402 165.533 416.402 171.5C416.402 183.926 406.329 194 393.902 194H282.5C270.074 194 260 183.926 260 171.5Z" fill="#FCCDCD" stroke="#780404" stroke-miterlimit="8" stroke-linejoin="round"/>
<path d="M301.472 172.34L306.974 174.563V176.286L299.784 172.955V171.672L306.974 168.35V170.072L301.472 172.34ZM311.307 178H309.681V164.5H311.307V178ZM315.684 178H314.058V168.49H315.684V178ZM313.926 165.968C313.926 165.704 314.005 165.481 314.163 165.3C314.327 165.118 314.567 165.027 314.884 165.027C315.2 165.027 315.44 165.118 315.604 165.3C315.769 165.481 315.851 165.704 315.851 165.968C315.851 166.231 315.769 166.451 315.604 166.627C315.44 166.803 315.2 166.891 314.884 166.891C314.567 166.891 314.327 166.803 314.163 166.627C314.005 166.451 313.926 166.231 313.926 165.968ZM324.525 178H322.899V168.49H324.525V178ZM322.768 165.968C322.768 165.704 322.847 165.481 323.005 165.3C323.169 165.118 323.409 165.027 323.726 165.027C324.042 165.027 324.282 165.118 324.446 165.3C324.61 165.481 324.692 165.704 324.692 165.968C324.692 166.231 324.61 166.451 324.446 166.627C324.282 166.803 324.042 166.891 323.726 166.891C323.409 166.891 323.169 166.803 323.005 166.627C322.847 166.451 322.768 166.231 322.768 165.968ZM326.74 173.166C326.74 171.707 327.086 170.535 327.777 169.65C328.469 168.76 329.374 168.314 330.493 168.314C331.606 168.314 332.488 168.695 333.139 169.457V164.5H334.765V178H333.271L333.191 176.98C332.541 177.777 331.636 178.176 330.476 178.176C329.374 178.176 328.475 177.725 327.777 176.822C327.086 175.92 326.74 174.742 326.74 173.289V173.166ZM328.366 173.351C328.366 174.429 328.589 175.272 329.034 175.882C329.479 176.491 330.095 176.796 330.88 176.796C331.911 176.796 332.664 176.333 333.139 175.407V171.039C332.652 170.143 331.905 169.694 330.897 169.694C330.101 169.694 329.479 170.002 329.034 170.617C328.589 171.232 328.366 172.144 328.366 173.351ZM344.731 170.846H337.401V169.431H344.731V170.846ZM344.731 174.493H337.401V173.087H344.731V174.493ZM347.395 168.807L346.472 168.174C347.017 167.412 347.298 166.609 347.315 165.766V164.5H348.924V165.643C348.918 166.229 348.771 166.814 348.484 167.4C348.203 167.98 347.84 168.449 347.395 168.807ZM350.093 168.807L349.17 168.174C349.715 167.412 349.996 166.609 350.014 165.766V164.5H351.622V165.643C351.616 166.229 351.47 166.814 351.183 167.4C350.901 167.98 350.538 168.449 350.093 168.807ZM352.686 173.166C352.686 171.707 353.031 170.535 353.723 169.65C354.414 168.76 355.319 168.314 356.438 168.314C357.552 168.314 358.434 168.695 359.084 169.457V164.5H360.71V178H359.216L359.137 176.98C358.486 177.777 357.581 178.176 356.421 178.176C355.319 178.176 354.42 177.725 353.723 176.822C353.031 175.92 352.686 174.742 352.686 173.289V173.166ZM354.312 173.351C354.312 174.429 354.534 175.272 354.979 175.882C355.425 176.491 356.04 176.796 356.825 176.796C357.856 176.796 358.609 176.333 359.084 175.407V171.039C358.598 170.143 357.851 169.694 356.843 169.694C356.046 169.694 355.425 170.002 354.979 170.617C354.534 171.232 354.312 172.144 354.312 173.351ZM363.461 168.807L362.538 168.174C363.083 167.412 363.364 166.609 363.382 165.766V164.5H364.99V165.643C364.984 166.229 364.838 166.814 364.551 167.4C364.27 167.98 363.906 168.449 363.461 168.807ZM366.159 168.807L365.236 168.174C365.781 167.412 366.062 166.609 366.08 165.766V164.5H367.688V165.643C367.683 166.229 367.536 166.814 367.249 167.4C366.968 167.98 366.604 168.449 366.159 168.807ZM375.432 172.287L369.622 170.011V168.341L377.128 171.663V172.946L369.622 176.277V174.59L375.432 172.287Z" fill="black"/>
<path fill-rule="evenodd" clip-rule="evenodd" d="M1 98.5C1 86.0736 11.0736 76 23.5 76H134.902C140.87 76 146.593 78.3706 150.812 82.5901C155.032 86.8097 157.402 92.5326 157.402 98.5C157.402 110.926 147.329 121 134.902 121H23.5C11.0736 121 1 110.926 1 98.5Z" fill="#FCE5CD" stroke="#783F04" stroke-miterlimit="8" stroke-linejoin="round"/>
<path d="M42.1641 99.3398L47.666 101.563V103.286L40.4766 99.9551V98.6719L47.666 95.3496V97.0723L42.1641 99.3398ZM58.2656 100.351C58.2656 101.798 57.9346 102.964 57.2725 103.849C56.6104 104.733 55.7139 105.176 54.583 105.176C53.4287 105.176 52.5205 104.81 51.8584 104.077V108.656H50.2324V95.4902H51.7178L51.7969 96.5449C52.459 95.7246 53.3789 95.3145 54.5566 95.3145C55.6992 95.3145 56.6016 95.7451 57.2637 96.6064C57.9316 97.4678 58.2656 98.666 58.2656 100.201V100.351ZM56.6396 100.166C56.6396 99.0938 56.4111 98.2471 55.9541 97.626C55.4971 97.0049 54.8701 96.6943 54.0732 96.6943C53.0889 96.6943 52.3506 97.1309 51.8584 98.0039V102.548C52.3447 103.415 53.0889 103.849 54.0908 103.849C54.8701 103.849 55.4883 103.541 55.9453 102.926C56.4082 102.305 56.6396 101.385 56.6396 100.166ZM66.5713 105H64.9453V95.4902H66.5713V105ZM64.8135 92.9678C64.8135 92.7041 64.8926 92.4814 65.0508 92.2998C65.2148 92.1182 65.4551 92.0273 65.7715 92.0273C66.0879 92.0273 66.3281 92.1182 66.4922 92.2998C66.6562 92.4814 66.7383 92.7041 66.7383 92.9678C66.7383 93.2314 66.6562 93.4512 66.4922 93.627C66.3281 93.8027 66.0879 93.8906 65.7715 93.8906C65.4551 93.8906 65.2148 93.8027 65.0508 93.627C64.8926 93.4512 64.8135 93.2314 64.8135 92.9678ZM68.7861 100.166C68.7861 98.707 69.1318 97.5352 69.8232 96.6504C70.5146 95.7598 71.4199 95.3145 72.5391 95.3145C73.6523 95.3145 74.5342 95.6953 75.1846 96.457V91.5H76.8105V105H75.3164L75.2373 103.98C74.5869 104.777 73.6816 105.176 72.5215 105.176C71.4199 105.176 70.5205 104.725 69.8232 103.822C69.1318 102.92 68.7861 101.742 68.7861 100.289V100.166ZM70.4121 100.351C70.4121 101.429 70.6348 102.272 71.0801 102.882C71.5254 103.491 72.1406 103.796 72.9258 103.796C73.957 103.796 74.71 103.333 75.1846 102.407V98.0391C74.6982 97.1426 73.9512 96.6943 72.9434 96.6943C72.1465 96.6943 71.5254 97.002 71.0801 97.6172C70.6348 98.2324 70.4121 99.1436 70.4121 100.351ZM86.7773 97.8457H79.4473V96.4307H86.7773V97.8457ZM86.7773 101.493H79.4473V100.087H86.7773V101.493ZM89.4404 95.8066L88.5176 95.1738C89.0625 94.4121 89.3438 93.6094 89.3613 92.7656V91.5H90.9697V92.6426C90.9639 93.2285 90.8174 93.8145 90.5303 94.4004C90.249 94.9805 89.8857 95.4492 89.4404 95.8066ZM92.1387 95.8066L91.2158 95.1738C91.7607 94.4121 92.042 93.6094 92.0596 92.7656V91.5H93.668V92.6426C93.6621 93.2285 93.5156 93.8145 93.2285 94.4004C92.9473 94.9805 92.584 95.4492 92.1387 95.8066ZM99.0732 105.176C97.7842 105.176 96.7354 104.754 95.9268 103.91C95.1182 103.061 94.7139 101.927 94.7139 100.509V100.21C94.7139 99.2666 94.8926 98.4258 95.25 97.6875C95.6133 96.9434 96.1172 96.3633 96.7617 95.9473C97.4121 95.5254 98.1152 95.3145 98.8711 95.3145C100.107 95.3145 101.068 95.7217 101.754 96.5361C102.439 97.3506 102.782 98.5166 102.782 100.034V100.711H96.3398C96.3633 101.648 96.6357 102.407 97.1572 102.987C97.6846 103.562 98.3525 103.849 99.1611 103.849C99.7354 103.849 100.222 103.731 100.62 103.497C101.019 103.263 101.367 102.952 101.666 102.565L102.659 103.339C101.862 104.563 100.667 105.176 99.0732 105.176ZM98.8711 96.6504C98.2148 96.6504 97.6641 96.8906 97.2188 97.3711C96.7734 97.8457 96.498 98.5137 96.3926 99.375H101.156V99.252C101.109 98.4258 100.887 97.7871 100.488 97.3359C100.09 96.8789 99.5508 96.6504 98.8711 96.6504ZM104.769 95.8066L103.846 95.1738C104.391 94.4121 104.672 93.6094 104.689 92.7656V91.5H106.298V92.6426C106.292 93.2285 106.146 93.8145 105.858 94.4004C105.577 94.9805 105.214 95.4492 104.769 95.8066ZM107.467 95.8066L106.544 95.1738C107.089 94.4121 107.37 93.6094 107.388 92.7656V91.5H108.996V92.6426C108.99 93.2285 108.844 93.8145 108.557 94.4004C108.275 94.9805 107.912 95.4492 107.467 95.8066ZM116.739 99.2871L110.93 97.0107V95.3408L118.436 98.6631V99.9463L110.93 103.277V101.59L116.739 99.2871Z" fill="black"/>
<path fill-rule="evenodd" clip-rule="evenodd" d="M87 23.5C87 11.0736 97.0736 1 109.5 1H220.902C226.87 1 232.593 3.37056 236.812 7.59013C241.032 11.8097 243.402 17.5326 243.402 23.5C243.402 35.9264 233.329 46 220.902 46H109.5C97.0736 46 87 35.9264 87 23.5Z" fill="#FCE5CD" stroke="#783F04" stroke-miterlimit="8" stroke-linejoin="round"/>
<path d="M113.346 24.3398L118.848 26.5635V28.2861L111.658 24.9551V23.6719L118.848 20.3496V22.0723L113.346 24.3398ZM122.943 20.4902L122.987 21.5449C123.685 20.7246 124.625 20.3145 125.809 20.3145C127.139 20.3145 128.044 20.8242 128.524 21.8438C128.841 21.3867 129.251 21.0176 129.755 20.7363C130.265 20.4551 130.865 20.3145 131.557 20.3145C133.643 20.3145 134.703 21.4189 134.738 23.6279V30H133.112V23.7246C133.112 23.0449 132.957 22.5381 132.646 22.2041C132.336 21.8643 131.814 21.6943 131.082 21.6943C130.479 21.6943 129.978 21.876 129.579 22.2393C129.181 22.5967 128.949 23.0801 128.885 23.6895V30H127.25V23.7686C127.25 22.3857 126.573 21.6943 125.22 21.6943C124.153 21.6943 123.424 22.1484 123.031 23.0566V30H121.405V20.4902H122.943ZM143.07 30C142.977 29.8125 142.9 29.4785 142.842 28.998C142.086 29.7832 141.184 30.1758 140.135 30.1758C139.197 30.1758 138.427 29.9121 137.823 29.3848C137.226 28.8516 136.927 28.1777 136.927 27.3633C136.927 26.373 137.302 25.6055 138.052 25.0605C138.808 24.5098 139.868 24.2344 141.233 24.2344H142.815V23.4873C142.815 22.9189 142.646 22.4678 142.306 22.1338C141.966 21.7939 141.465 21.624 140.803 21.624C140.223 21.624 139.736 21.7705 139.344 22.0635C138.951 22.3564 138.755 22.7109 138.755 23.127H137.12C137.12 22.6523 137.287 22.1953 137.621 21.7559C137.961 21.3105 138.418 20.959 138.992 20.7012C139.572 20.4434 140.208 20.3145 140.899 20.3145C141.995 20.3145 142.854 20.5898 143.475 21.1406C144.096 21.6855 144.418 22.4385 144.441 23.3994V27.7764C144.441 28.6494 144.553 29.3438 144.775 29.8594V30H143.07ZM140.372 28.7607C140.882 28.7607 141.365 28.6289 141.822 28.3652C142.279 28.1016 142.61 27.7588 142.815 27.3369V25.3857H141.541C139.549 25.3857 138.553 25.9688 138.553 27.1348C138.553 27.6445 138.723 28.043 139.062 28.3301C139.402 28.6172 139.839 28.7607 140.372 28.7607ZM148.757 30H147.131V20.4902H148.757V30ZM146.999 17.9678C146.999 17.7041 147.078 17.4814 147.236 17.2998C147.4 17.1182 147.641 17.0273 147.957 17.0273C148.273 17.0273 148.514 17.1182 148.678 17.2998C148.842 17.4814 148.924 17.7041 148.924 17.9678C148.924 18.2314 148.842 18.4512 148.678 18.627C148.514 18.8027 148.273 18.8906 147.957 18.8906C147.641 18.8906 147.4 18.8027 147.236 18.627C147.078 18.4512 146.999 18.2314 146.999 17.9678ZM152.905 20.4902L152.958 21.6855C153.685 20.7715 154.634 20.3145 155.806 20.3145C157.815 20.3145 158.829 21.4482 158.847 23.7158V30H157.221V23.707C157.215 23.0215 157.057 22.5146 156.746 22.1865C156.441 21.8584 155.964 21.6943 155.313 21.6943C154.786 21.6943 154.323 21.835 153.925 22.1162C153.526 22.3975 153.216 22.7666 152.993 23.2236V30H151.367V20.4902H152.905ZM167.53 30H165.904V20.4902H167.53V30ZM165.772 17.9678C165.772 17.7041 165.852 17.4814 166.01 17.2998C166.174 17.1182 166.414 17.0273 166.73 17.0273C167.047 17.0273 167.287 17.1182 167.451 17.2998C167.615 17.4814 167.697 17.7041 167.697 17.9678C167.697 18.2314 167.615 18.4512 167.451 18.627C167.287 18.8027 167.047 18.8906 166.73 18.8906C166.414 18.8906 166.174 18.8027 166.01 18.627C165.852 18.4512 165.772 18.2314 165.772 17.9678ZM169.745 25.166C169.745 23.707 170.091 22.5352 170.782 21.6504C171.474 20.7598 172.379 20.3145 173.498 20.3145C174.611 20.3145 175.493 20.6953 176.144 21.457V16.5H177.77V30H176.275L176.196 28.9805C175.546 29.7773 174.641 30.1758 173.48 30.1758C172.379 30.1758 171.479 29.7246 170.782 28.8223C170.091 27.9199 169.745 26.7422 169.745 25.2891V25.166ZM171.371 25.3506C171.371 26.4287 171.594 27.2725 172.039 27.8818C172.484 28.4912 173.1 28.7959 173.885 28.7959C174.916 28.7959 175.669 28.333 176.144 27.4072V23.0391C175.657 22.1426 174.91 21.6943 173.902 21.6943C173.105 21.6943 172.484 22.002 172.039 22.6172C171.594 23.2324 171.371 24.1436 171.371 25.3506ZM187.736 22.8457H180.406V21.4307H187.736V22.8457ZM187.736 26.4932H180.406V25.0869H187.736V26.4932ZM190.399 20.8066L189.477 20.1738C190.021 19.4121 190.303 18.6094 190.32 17.7656V16.5H191.929V17.6426C191.923 18.2285 191.776 18.8145 191.489 19.4004C191.208 19.9805 190.845 20.4492 190.399 20.8066ZM193.098 20.8066L192.175 20.1738C192.72 19.4121 193.001 18.6094 193.019 17.7656V16.5H194.627V17.6426C194.621 18.2285 194.475 18.8145 194.188 19.4004C193.906 19.9805 193.543 20.4492 193.098 20.8066ZM202.045 30C201.951 29.8125 201.875 29.4785 201.816 28.998C201.061 29.7832 200.158 30.1758 199.109 30.1758C198.172 30.1758 197.401 29.9121 196.798 29.3848C196.2 28.8516 195.901 28.1777 195.901 27.3633C195.901 26.373 196.276 25.6055 197.026 25.0605C197.782 24.5098 198.843 24.2344 200.208 24.2344H201.79V23.4873C201.79 22.9189 201.62 22.4678 201.28 22.1338C200.94 21.7939 200.439 21.624 199.777 21.624C199.197 21.624 198.711 21.7705 198.318 22.0635C197.926 22.3564 197.729 22.7109 197.729 23.127H196.095C196.095 22.6523 196.262 22.1953 196.596 21.7559C196.936 21.3105 197.393 20.959 197.967 20.7012C198.547 20.4434 199.183 20.3145 199.874 20.3145C200.97 20.3145 201.828 20.5898 202.449 21.1406C203.07 21.6855 203.393 22.4385 203.416 23.3994V27.7764C203.416 28.6494 203.527 29.3438 203.75 29.8594V30H202.045ZM199.347 28.7607C199.856 28.7607 200.34 28.6289 200.797 28.3652C201.254 28.1016 201.585 27.7588 201.79 27.3369V25.3857H200.516C198.523 25.3857 197.527 25.9688 197.527 27.1348C197.527 27.6445 197.697 28.043 198.037 28.3301C198.377 28.6172 198.813 28.7607 199.347 28.7607ZM205.587 20.8066L204.664 20.1738C205.209 19.4121 205.49 18.6094 205.508 17.7656V16.5H207.116V17.6426C207.11 18.2285 206.964 18.8145 206.677 19.4004C206.396 19.9805 206.032 20.4492 205.587 20.8066ZM208.285 20.8066L207.362 20.1738C207.907 19.4121 208.188 18.6094 208.206 17.7656V16.5H209.814V17.6426C209.809 18.2285 209.662 18.8145 209.375 19.4004C209.094 19.9805 208.73 20.4492 208.285 20.8066ZM217.558 24.2871L211.748 22.0107V20.3408L219.254 23.6631V24.9463L211.748 28.2773V26.5898L217.558 24.2871Z" fill="black"/>
<path fill-rule="evenodd" clip-rule="evenodd" d="M173 98.5C173 86.0736 183.074 76 195.5 76H306.902C312.87 76 318.593 78.3706 322.812 82.5901C327.032 86.8097 329.402 92.5326 329.402 98.5C329.402 110.926 319.329 121 306.902 121H195.5C183.074 121 173 110.926 173 98.5Z" fill="#D6FCCD" stroke="#297804" stroke-miterlimit="8" stroke-linejoin="round"/>
<path d="M211.589 99.3398L217.091 101.563V103.286L209.901 99.9551V98.6719L217.091 95.3496V97.0723L211.589 99.3398ZM225.528 104.06C224.896 104.804 223.967 105.176 222.742 105.176C221.729 105.176 220.955 104.883 220.422 104.297C219.895 103.705 219.628 102.832 219.622 101.678V95.4902H221.248V101.634C221.248 103.075 221.834 103.796 223.006 103.796C224.248 103.796 225.074 103.333 225.484 102.407V95.4902H227.11V105H225.563L225.528 104.06ZM231.355 105H229.729V91.5H231.355V105ZM240.197 105H238.571V95.4902H240.197V105ZM238.439 92.9678C238.439 92.7041 238.519 92.4814 238.677 92.2998C238.841 92.1182 239.081 92.0273 239.397 92.0273C239.714 92.0273 239.954 92.1182 240.118 92.2998C240.282 92.4814 240.364 92.7041 240.364 92.9678C240.364 93.2314 240.282 93.4512 240.118 93.627C239.954 93.8027 239.714 93.8906 239.397 93.8906C239.081 93.8906 238.841 93.8027 238.677 93.627C238.519 93.4512 238.439 93.2314 238.439 92.9678ZM242.412 100.166C242.412 98.707 242.758 97.5352 243.449 96.6504C244.141 95.7598 245.046 95.3145 246.165 95.3145C247.278 95.3145 248.16 95.6953 248.811 96.457V91.5H250.437V105H248.942L248.863 103.98C248.213 104.777 247.308 105.176 246.147 105.176C245.046 105.176 244.146 104.725 243.449 103.822C242.758 102.92 242.412 101.742 242.412 100.289V100.166ZM244.038 100.351C244.038 101.429 244.261 102.272 244.706 102.882C245.151 103.491 245.767 103.796 246.552 103.796C247.583 103.796 248.336 103.333 248.811 102.407V98.0391C248.324 97.1426 247.577 96.6943 246.569 96.6943C245.772 96.6943 245.151 97.002 244.706 97.6172C244.261 98.2324 244.038 99.1436 244.038 100.351ZM260.403 97.8457H253.073V96.4307H260.403V97.8457ZM260.403 101.493H253.073V100.087H260.403V101.493ZM263.066 95.8066L262.144 95.1738C262.688 94.4121 262.97 93.6094 262.987 92.7656V91.5H264.596V92.6426C264.59 93.2285 264.443 93.8145 264.156 94.4004C263.875 94.9805 263.512 95.4492 263.066 95.8066ZM265.765 95.8066L264.842 95.1738C265.387 94.4121 265.668 93.6094 265.686 92.7656V91.5H267.294V92.6426C267.288 93.2285 267.142 93.8145 266.854 94.4004C266.573 94.9805 266.21 95.4492 265.765 95.8066ZM277.331 100.351C277.331 101.804 276.997 102.973 276.329 103.857C275.661 104.736 274.765 105.176 273.64 105.176C272.438 105.176 271.51 104.751 270.854 103.901L270.774 105H269.28V91.5H270.906V96.5361C271.562 95.7217 272.468 95.3145 273.622 95.3145C274.776 95.3145 275.682 95.751 276.338 96.624C277 97.4971 277.331 98.6924 277.331 100.21V100.351ZM275.705 100.166C275.705 99.0586 275.491 98.2031 275.063 97.5996C274.636 96.9961 274.021 96.6943 273.218 96.6943C272.146 96.6943 271.375 97.1924 270.906 98.1885V102.302C271.404 103.298 272.181 103.796 273.235 103.796C274.015 103.796 274.621 103.494 275.055 102.891C275.488 102.287 275.705 101.379 275.705 100.166ZM279.344 95.8066L278.421 95.1738C278.966 94.4121 279.247 93.6094 279.265 92.7656V91.5H280.873V92.6426C280.867 93.2285 280.721 93.8145 280.434 94.4004C280.152 94.9805 279.789 95.4492 279.344 95.8066ZM282.042 95.8066L281.119 95.1738C281.664 94.4121 281.945 93.6094 281.963 92.7656V91.5H283.571V92.6426C283.565 93.2285 283.419 93.8145 283.132 94.4004C282.851 94.9805 282.487 95.4492 282.042 95.8066ZM291.314 99.2871L285.505 97.0107V95.3408L293.011 98.6631V99.9463L285.505 103.277V101.59L291.314 99.2871Z" fill="black"/>
</svg>
