<svg xmlns="http://www.w3.org/2000/svg" xmlns:xlink="http://www.w3.org/1999/xlink" viewBox="0 0 1920 1080"><defs><style>.cls-1{fill:none;}.cls-2{fill:#1b2a4f;}.cls-3{fill:#384e85;}.cls-4{fill:#2e4277;}.cls-5{fill:#3955d1;}.cls-6{fill:#6bb5fb;}.cls-7,.cls-8{fill:#4466fb;}.cls-8{opacity:0.3;}.cls-8,.cls-9{isolation:isolate;}.cls-10{fill:#b7c5fd;}.cls-11{fill:#798ffe;}.cls-12{fill:#aabafd;}.cls-13{fill:#fff;}.cls-14{fill:#d9ddf6;}.cls-15{fill:#9aadfd;}.cls-16{fill:#2b3c67;}.cls-17{fill:#8fccff;}.cls-18{clip-path:url(#clip-path);}.cls-19{fill:#213b6e;}.cls-20{fill:#213a6c;}.cls-21{fill:#2d5095;}.cls-22{fill:#3863b8;}.cls-23{fill:#26427c;}.cls-24{fill:#20396a;}.cls-25{fill:#3660b3;}.cls-26{fill:#2c4e92;}.cls-27{clip-path:url(#clip-path-2);}.cls-28{fill:#233d72;}.cls-29{fill:#243f76;}.cls-30{fill:#25427a;}.cls-31{fill:#26447f;}.cls-32{fill:#284683;}.cls-33{fill:#294887;}.cls-34{fill:#2a4b8b;}.cls-35{clip-path:url(#clip-path-3);}.cls-36{fill:#2c4d8f;}.cls-37{clip-path:url(#clip-path-4);}.cls-38{font-size:40px;}.cls-38,.cls-41{stroke:#fff;stroke-miterlimit:10;font-family:Roboto-Bold, Roboto;font-weight:700;}.cls-39{letter-spacing:0.01em;}.cls-40{letter-spacing:-0.01em;}.cls-41{font-size:32px;}.cls-42{letter-spacing:-0.01em;}.cls-43{letter-spacing:-0.02em;}.cls-44{letter-spacing:-0.01em;}.cls-45{letter-spacing:-0.01em;}.cls-46{fill:#3a66bf;}.cls-47{clip-path:url(#clip-path-5);}.cls-48{clip-path:url(#clip-path-6);}.cls-49{clip-path:url(#clip-path-7);}</style><clipPath id="clip-path"><path class="cls-1" d="M405.37,704.37,382.57,692a3.33,3.33,0,0,1-1.65-3l22.8,12.4A3.29,3.29,0,0,0,405.37,704.37Z"/></clipPath><clipPath id="clip-path-2"><path class="cls-1" d="M548,228.92,537.16,216a4.56,4.56,0,0,1-1-3.24,5.21,5.21,0,0,1,5.14-4.81l10.87,12.94a5.2,5.2,0,0,0-5.14,4.81A4.51,4.51,0,0,0,548,228.92Z"/></clipPath><clipPath id="clip-path-3"><path class="cls-1" d="M1020.21,293.52l10.86,12.94a4.55,4.55,0,0,0-3.55-1.62l-10.86-12.94A4.56,4.56,0,0,1,1020.21,293.52Z"/></clipPath><clipPath id="clip-path-4"><path class="cls-1" d="M1385.22,290.82l-10.86-12.94a4.55,4.55,0,0,1-1-3.18,5.21,5.21,0,0,1,5.15-4.85l10.86,12.94a5.2,5.2,0,0,0-5.14,4.85A4.5,4.5,0,0,0,1385.22,290.82Z"/></clipPath><clipPath id="clip-path-5"><path class="cls-1" d="M195.34,359.67l-7.8,1a131.16,131.16,0,0,0,65.19-27.79,4.9,4.9,0,0,1,2.42-1l7.8-1a4.86,4.86,0,0,0-2.42,1A131.19,131.19,0,0,1,195.34,359.67Z"/></clipPath><clipPath id="clip-path-6"><path class="cls-1" d="M152.78,93.93l7.8-1a131.41,131.41,0,0,1,14.53-1.06c3.87-.07,7.79,0,11.73.32A131.78,131.78,0,0,1,215,97.28l-7.8,1A131.89,131.89,0,0,0,179,93.19q-5.92-.42-11.74-.32A131.41,131.41,0,0,0,152.78,93.93Z"/></clipPath><clipPath id="clip-path-7"><path class="cls-1" d="M196.64,369.59l-7.81,1a140.67,140.67,0,0,1-15.59,1.14q-6.24.11-12.59-.34a142,142,0,0,1-93.92-44.93A145.41,145.41,0,0,1,27.49,230c-.08-4.22,0-8.47.3-12.76a144.14,144.14,0,0,1,44.07-94.92A141.48,141.48,0,0,1,151.51,84l7.8-1a141.42,141.42,0,0,0-79.64,38.27,144.22,144.22,0,0,0-44.08,94.92q-.44,6.44-.29,12.76a145.46,145.46,0,0,0,39.24,96.52,142,142,0,0,0,93.91,44.92c4.23.3,8.44.41,12.6.34A141,141,0,0,0,196.64,369.59Z"/></clipPath></defs><title>Artboard 3</title><g id="SSR"><g id="Icons"><g id="Server"><polygon class="cls-2" points="389.11 379.95 320.3 339.96 320.21 171.89 389.03 208.27 389.11 379.95"/><polygon class="cls-3" points="389.03 211.88 320.21 171.89 387.29 133.17 456.1 173.16 389.03 211.88"/><polygon class="cls-4" points="456.1 173.16 456.18 341.23 389.11 379.95 389.03 211.88 456.1 173.16"/><polygon class="cls-3" points="448.07 336.16 393.16 367.86 393.16 372.93 452.13 338.88 452.05 180.18 448 182.52 448.07 336.16"/><polygon class="cls-2" points="393.08 214.22 393.16 367.86 448.07 336.16 448 182.52 393.08 214.22"/><polygon class="cls-4" points="442.47 193.85 442.52 212.06 397.29 238.18 397.23 219.97 442.47 193.85"/><polygon class="cls-5" points="431.6 217.23 429.96 216.28 429.9 204.57 431.54 205.52 431.6 217.23"/><polygon class="cls-6" points="431.54 205.52 429.9 204.57 432.77 202.91 434.4 203.86 431.54 205.52"/><polygon class="cls-7" points="434.4 203.86 434.46 215.58 431.6 217.23 431.54 205.52 434.4 203.86"/><polygon class="cls-5" points="425.75 220.61 424.12 219.66 424.06 207.94 425.69 208.89 425.75 220.61"/><polygon class="cls-6" points="425.69 208.89 424.06 207.94 426.92 206.29 428.56 207.24 425.69 208.89"/><polygon class="cls-7" points="428.56 207.24 428.62 218.95 425.75 220.61 425.69 208.89 428.56 207.24"/><polygon class="cls-5" points="419.9 223.99 418.27 223.03 418.21 211.32 419.84 212.27 419.9 223.99"/><polygon class="cls-6" points="419.84 212.27 418.21 211.32 421.07 209.66 422.71 210.62 419.84 212.27"/><polygon class="cls-7" points="422.71 210.62 422.77 222.33 419.9 223.99 419.84 212.27 422.71 210.62"/><polygon class="cls-5" points="414.06 227.36 412.42 226.41 412.36 214.7 414 215.65 414.06 227.36"/><polygon class="cls-6" points="414 215.65 412.36 214.7 415.23 213.04 416.86 213.99 414 215.65"/><polygon class="cls-7" points="416.86 213.99 416.92 225.71 414.06 227.36 414 215.65 416.86 213.99"/><polygon class="cls-5" points="408.21 230.74 406.57 229.79 406.51 218.07 408.15 219.02 408.21 230.74"/><polygon class="cls-6" points="408.15 219.02 406.51 218.07 409.38 216.42 411.01 217.37 408.15 219.02"/><polygon class="cls-7" points="411.01 217.37 411.07 229.08 408.21 230.74 408.15 219.02 411.01 217.37"/><polygon class="cls-5" points="402.36 234.11 400.73 233.16 400.67 221.45 402.3 222.4 402.36 234.11"/><polygon class="cls-6" points="402.3 222.4 400.67 221.45 403.53 219.79 405.17 220.74 402.3 222.4"/><polygon class="cls-7" points="405.17 220.74 405.23 232.46 402.36 234.11 402.3 222.4 405.17 220.74"/><polygon class="cls-5" points="437.44 213.86 435.81 212.91 435.75 201.19 437.38 202.14 437.44 213.86"/><polygon class="cls-6" points="437.38 202.14 435.75 201.19 438.62 199.54 440.25 200.49 437.38 202.14"/><polygon class="cls-7" points="440.25 200.49 440.31 212.2 437.44 213.86 437.38 202.14 440.25 200.49"/><polygon class="cls-4" points="442.47 218.07 442.52 236.28 397.29 262.4 397.23 244.19 442.47 218.07"/><polygon class="cls-5" points="431.6 241.46 429.96 240.51 429.9 228.79 431.54 229.74 431.6 241.46"/><polygon class="cls-6" points="431.54 229.74 429.9 228.79 432.77 227.14 434.4 228.09 431.54 229.74"/><polygon class="cls-7" points="434.4 228.09 434.46 239.8 431.6 241.46 431.54 229.74 434.4 228.09"/><polygon class="cls-5" points="425.75 244.83 424.12 243.88 424.06 232.17 425.69 233.12 425.75 244.83"/><polygon class="cls-6" points="425.69 233.12 424.06 232.17 426.92 230.51 428.56 231.46 425.69 233.12"/><polygon class="cls-7" points="428.56 231.46 428.62 243.18 425.75 244.83 425.69 233.12 428.56 231.46"/><polygon class="cls-5" points="419.9 248.21 418.27 247.26 418.21 235.54 419.84 236.5 419.9 248.21"/><polygon class="cls-6" points="419.84 236.5 418.21 235.54 421.07 233.89 422.71 234.84 419.84 236.5"/><polygon class="cls-7" points="422.71 234.84 422.77 246.56 419.9 248.21 419.84 236.5 422.71 234.84"/><polygon class="cls-5" points="414.06 251.59 412.42 250.64 412.36 238.92 414 239.87 414.06 251.59"/><polygon class="cls-6" points="414 239.87 412.36 238.92 415.23 237.27 416.86 238.22 414 239.87"/><polygon class="cls-7" points="416.86 238.22 416.92 249.93 414.06 251.59 414 239.87 416.86 238.22"/><polygon class="cls-5" points="408.21 254.96 406.57 254.01 406.51 242.3 408.15 243.25 408.21 254.96"/><polygon class="cls-6" points="408.15 243.25 406.51 242.3 409.38 240.64 411.01 241.59 408.15 243.25"/><polygon class="cls-7" points="411.01 241.59 411.07 253.31 408.21 254.96 408.15 243.25 411.01 241.59"/><polygon class="cls-5" points="402.36 258.34 400.73 257.39 400.67 245.67 402.3 246.62 402.36 258.34"/><polygon class="cls-6" points="402.3 246.62 400.67 245.67 403.53 244.02 405.17 244.97 402.3 246.62"/><polygon class="cls-7" points="405.17 244.97 405.23 256.68 402.36 258.34 402.3 246.62 405.17 244.97"/><polygon class="cls-5" points="437.44 238.08 435.81 237.13 435.75 225.42 437.38 226.37 437.44 238.08"/><polygon class="cls-6" points="437.38 226.37 435.75 225.42 438.62 223.76 440.25 224.71 437.38 226.37"/><polygon class="cls-7" points="440.25 224.71 440.31 236.43 437.44 238.08 437.38 226.37 440.25 224.71"/><polygon class="cls-4" points="442.47 242.3 442.52 260.51 397.29 286.63 397.23 268.42 442.47 242.3"/><polygon class="cls-5" points="431.6 265.68 429.96 264.73 429.9 253.02 431.54 253.97 431.6 265.68"/><polygon class="cls-6" points="431.54 253.97 429.9 253.02 432.77 251.36 434.4 252.31 431.54 253.97"/><polygon class="cls-7" points="434.4 252.31 434.46 264.03 431.6 265.68 431.54 253.97 434.4 252.31"/><polygon class="cls-5" points="425.75 269.06 424.12 268.11 424.06 256.39 425.69 257.34 425.75 269.06"/><polygon class="cls-6" points="425.69 257.34 424.06 256.39 426.92 254.74 428.56 255.69 425.69 257.34"/><polygon class="cls-7" points="428.56 255.69 428.62 267.4 425.75 269.06 425.69 257.34 428.56 255.69"/><polygon class="cls-5" points="419.9 272.44 418.27 271.49 418.21 259.77 419.84 260.72 419.9 272.44"/><polygon class="cls-6" points="419.84 260.72 418.21 259.77 421.07 258.12 422.71 259.07 419.84 260.72"/><polygon class="cls-7" points="422.71 259.07 422.77 270.78 419.9 272.44 419.84 260.72 422.71 259.07"/><polygon class="cls-5" points="414.06 275.81 412.42 274.86 412.36 263.15 414 264.1 414.06 275.81"/><polygon class="cls-6" points="414 264.1 412.36 263.15 415.23 261.49 416.86 262.44 414 264.1"/><polygon class="cls-7" points="416.86 262.44 416.92 274.16 414.06 275.81 414 264.1 416.86 262.44"/><polygon class="cls-5" points="408.21 279.19 406.57 278.24 406.51 266.52 408.15 267.47 408.21 279.19"/><polygon class="cls-6" points="408.15 267.47 406.51 266.52 409.38 264.87 411.01 265.82 408.15 267.47"/><polygon class="cls-7" points="411.01 265.82 411.07 277.53 408.21 279.19 408.15 267.47 411.01 265.82"/><polygon class="cls-5" points="402.36 282.56 400.73 281.61 400.67 269.9 402.3 270.85 402.36 282.56"/><polygon class="cls-6" points="402.3 270.85 400.67 269.9 403.53 268.24 405.17 269.19 402.3 270.85"/><polygon class="cls-7" points="405.17 269.19 405.23 280.91 402.36 282.56 402.3 270.85 405.17 269.19"/><polygon class="cls-5" points="437.44 262.31 435.81 261.36 435.75 249.64 437.38 250.59 437.44 262.31"/><polygon class="cls-6" points="437.38 250.59 435.75 249.64 438.62 247.99 440.25 248.94 437.38 250.59"/><polygon class="cls-7" points="440.25 248.94 440.31 260.65 437.44 262.31 437.38 250.59 440.25 248.94"/><polygon class="cls-4" points="442.47 266.52 442.52 284.73 397.29 310.85 397.23 292.64 442.47 266.52"/><polygon class="cls-5" points="431.6 289.91 429.96 288.96 429.9 277.24 431.54 278.19 431.6 289.91"/><polygon class="cls-6" points="431.54 278.19 429.9 277.24 432.77 275.59 434.4 276.54 431.54 278.19"/><polygon class="cls-7" points="434.4 276.54 434.46 288.25 431.6 289.91 431.54 278.19 434.4 276.54"/><polygon class="cls-5" points="425.75 293.28 424.12 292.33 424.06 280.62 425.69 281.57 425.75 293.28"/><polygon class="cls-6" points="425.69 281.57 424.06 280.62 426.92 278.96 428.56 279.92 425.69 281.57"/><polygon class="cls-7" points="428.56 279.92 428.62 291.63 425.75 293.28 425.69 281.57 428.56 279.92"/><polygon class="cls-5" points="419.9 296.66 418.27 295.71 418.21 284 419.84 284.94 419.9 296.66"/><polygon class="cls-6" points="419.84 284.94 418.21 284 421.07 282.34 422.71 283.29 419.84 284.94"/><polygon class="cls-7" points="422.71 283.29 422.77 295.01 419.9 296.66 419.84 284.94 422.71 283.29"/><polygon class="cls-5" points="414.06 300.04 412.42 299.09 412.36 287.37 414 288.32 414.06 300.04"/><polygon class="cls-6" points="414 288.32 412.36 287.37 415.23 285.72 416.86 286.67 414 288.32"/><polygon class="cls-7" points="416.86 286.67 416.92 298.38 414.06 300.04 414 288.32 416.86 286.67"/><polygon class="cls-5" points="408.21 303.41 406.57 302.46 406.51 290.75 408.15 291.7 408.21 303.41"/><polygon class="cls-6" points="408.15 291.7 406.51 290.75 409.38 289.09 411.01 290.04 408.15 291.7"/><polygon class="cls-7" points="411.01 290.04 411.07 301.76 408.21 303.41 408.15 291.7 411.01 290.04"/><polygon class="cls-5" points="402.36 306.79 400.73 305.84 400.67 294.12 402.3 295.07 402.36 306.79"/><polygon class="cls-6" points="402.3 295.07 400.67 294.12 403.53 292.47 405.17 293.42 402.3 295.07"/><polygon class="cls-7" points="405.17 293.42 405.23 305.13 402.36 306.79 402.3 295.07 405.17 293.42"/><polygon class="cls-5" points="437.44 286.53 435.81 285.58 435.75 273.87 437.38 274.82 437.44 286.53"/><polygon class="cls-6" points="437.38 274.82 435.75 273.87 438.62 272.21 440.25 273.16 437.38 274.82"/><polygon class="cls-7" points="440.25 273.16 440.31 284.88 437.44 286.53 437.38 274.82 440.25 273.16"/><polygon class="cls-4" points="442.47 290.75 442.52 308.96 397.29 335.08 397.23 316.87 442.47 290.75"/><polygon class="cls-5" points="431.6 314.13 429.96 313.18 429.9 301.47 431.54 302.42 431.6 314.13"/><polygon class="cls-6" points="431.54 302.42 429.9 301.47 432.77 299.81 434.4 300.76 431.54 302.42"/><polygon class="cls-7" points="434.4 300.76 434.46 312.48 431.6 314.13 431.54 302.42 434.4 300.76"/><polygon class="cls-5" points="425.75 317.51 424.12 316.56 424.06 304.85 425.69 305.8 425.75 317.51"/><polygon class="cls-6" points="425.69 305.8 424.06 304.85 426.92 303.19 428.56 304.14 425.69 305.8"/><polygon class="cls-7" points="428.56 304.14 428.62 315.86 425.75 317.51 425.69 305.8 428.56 304.14"/><polygon class="cls-5" points="419.9 320.89 418.27 319.94 418.21 308.22 419.84 309.17 419.9 320.89"/><polygon class="cls-6" points="419.84 309.17 418.21 308.22 421.07 306.57 422.71 307.52 419.84 309.17"/><polygon class="cls-7" points="422.71 307.52 422.77 319.23 419.9 320.89 419.84 309.17 422.71 307.52"/><polygon class="cls-5" points="414.06 324.26 412.42 323.31 412.36 311.6 414 312.55 414.06 324.26"/><polygon class="cls-6" points="414 312.55 412.36 311.6 415.23 309.94 416.86 310.89 414 312.55"/><polygon class="cls-7" points="416.86 310.89 416.92 322.61 414.06 324.26 414 312.55 416.86 310.89"/><polygon class="cls-5" points="408.21 327.64 406.57 326.69 406.51 314.97 408.15 315.92 408.21 327.64"/><polygon class="cls-6" points="408.15 315.92 406.51 314.97 409.38 313.32 411.01 314.27 408.15 315.92"/><polygon class="cls-7" points="411.01 314.27 411.07 325.98 408.21 327.64 408.15 315.92 411.01 314.27"/><polygon class="cls-5" points="402.36 331.01 400.73 330.06 400.67 318.35 402.3 319.3 402.36 331.01"/><polygon class="cls-6" points="402.3 319.3 400.67 318.35 403.53 316.69 405.17 317.64 402.3 319.3"/><polygon class="cls-7" points="405.17 317.64 405.23 329.36 402.36 331.01 402.3 319.3 405.17 317.64"/><polygon class="cls-5" points="437.44 310.76 435.81 309.81 435.75 298.09 437.38 299.04 437.44 310.76"/><polygon class="cls-6" points="437.38 299.04 435.75 298.09 438.62 296.44 440.25 297.39 437.38 299.04"/><polygon class="cls-7" points="440.25 297.39 440.31 309.1 437.44 310.76 437.38 299.04 440.25 297.39"/><polygon class="cls-4" points="442.47 314.97 442.52 333.18 397.29 359.3 397.23 341.09 442.47 314.97"/><polygon class="cls-5" points="431.6 338.36 429.96 337.41 429.9 325.69 431.54 326.64 431.6 338.36"/><polygon class="cls-6" points="431.54 326.64 429.9 325.69 432.77 324.04 434.4 324.99 431.54 326.64"/><polygon class="cls-7" points="434.4 324.99 434.46 336.7 431.6 338.36 431.54 326.64 434.4 324.99"/><polygon class="cls-5" points="425.75 341.74 424.12 340.79 424.06 329.07 425.69 330.02 425.75 341.74"/><polygon class="cls-6" points="425.69 330.02 424.06 329.07 426.92 327.42 428.56 328.37 425.69 330.02"/><polygon class="cls-7" points="428.56 328.37 428.62 340.08 425.75 341.74 425.69 330.02 428.56 328.37"/><polygon class="cls-5" points="419.9 345.11 418.27 344.16 418.21 332.45 419.84 333.4 419.9 345.11"/><polygon class="cls-6" points="419.84 333.4 418.21 332.45 421.07 330.79 422.71 331.74 419.84 333.4"/><polygon class="cls-7" points="422.71 331.74 422.77 343.46 419.9 345.11 419.84 333.4 422.71 331.74"/><polygon class="cls-5" points="414.06 348.49 412.42 347.54 412.36 335.82 414 336.77 414.06 348.49"/><polygon class="cls-6" points="414 336.77 412.36 335.82 415.23 334.17 416.86 335.12 414 336.77"/><polygon class="cls-7" points="416.86 335.12 416.92 346.83 414.06 348.49 414 336.77 416.86 335.12"/><polygon class="cls-5" points="408.21 351.86 406.57 350.91 406.51 339.2 408.15 340.15 408.21 351.86"/><polygon class="cls-6" points="408.15 340.15 406.51 339.2 409.38 337.54 411.01 338.49 408.15 340.15"/><polygon class="cls-7" points="411.01 338.49 411.07 350.21 408.21 351.86 408.15 340.15 411.01 338.49"/><polygon class="cls-5" points="402.36 355.24 400.73 354.29 400.67 342.57 402.3 343.52 402.36 355.24"/><polygon class="cls-6" points="402.3 343.52 400.67 342.57 403.53 340.92 405.17 341.87 402.3 343.52"/><polygon class="cls-7" points="405.17 341.87 405.23 353.58 402.36 355.24 402.3 343.52 405.17 341.87"/><polygon class="cls-5" points="437.44 334.98 435.81 334.03 435.75 322.32 437.38 323.27 437.44 334.98"/><polygon class="cls-6" points="437.38 323.27 435.75 322.32 438.62 320.66 440.25 321.61 437.38 323.27"/><polygon class="cls-7" points="440.25 321.61 440.31 333.33 437.44 334.98 437.38 323.27 440.25 321.61"/><path class="cls-3" d="M325.6,330c-.25-.14-.45,0-.45.25a1,1,0,0,0,.44.77l10.75,6.2c.24.14.44,0,.44-.26a1,1,0,0,0-.44-.76Z"/><path class="cls-3" d="M325.6,327.65c-.24-.14-.44,0-.44.26a1,1,0,0,0,.44.76l10.74,6.2c.24.14.44,0,.44-.25a.94.94,0,0,0-.44-.77Z"/><path class="cls-3" d="M325.61,325.29c-.24-.14-.44,0-.44.25a1,1,0,0,0,.44.76l10.74,6.21c.24.14.44,0,.44-.26a1,1,0,0,0-.44-.76Z"/><path class="cls-3" d="M325.62,322.92c-.25-.14-.45,0-.45.25a1,1,0,0,0,.44.77l10.75,6.2a.27.27,0,0,0,.44-.25,1,1,0,0,0-.44-.77Z"/><path class="cls-3" d="M325.63,318.19c-.24-.14-.44,0-.44.25a1,1,0,0,0,.44.76l10.74,6.2c.24.14.44,0,.44-.25a1,1,0,0,0-.44-.76Z"/><path class="cls-3" d="M325.62,320.55c-.24-.13-.44,0-.44.26a1,1,0,0,0,.44.76l10.74,6.2c.24.14.44,0,.44-.25a.93.93,0,0,0-.44-.76Z"/><path class="cls-3" d="M325.6,308.47c-.25-.14-.45,0-.45.25a1,1,0,0,0,.44.77l10.75,6.2c.24.14.44,0,.44-.26a1,1,0,0,0-.44-.76Z"/><path class="cls-3" d="M325.6,306.1c-.24-.14-.44,0-.44.26a1,1,0,0,0,.44.76l10.74,6.21c.24.14.44,0,.44-.26a.93.93,0,0,0-.44-.76Z"/><path class="cls-3" d="M325.61,303.74c-.24-.14-.44,0-.44.25a1,1,0,0,0,.44.77l10.74,6.2a.27.27,0,0,0,.44-.25,1,1,0,0,0-.44-.77Z"/><path class="cls-3" d="M325.62,301.38c-.25-.14-.45,0-.45.25a1,1,0,0,0,.44.76l10.75,6.2c.24.14.44,0,.44-.25a1,1,0,0,0-.44-.76Z"/><path class="cls-3" d="M325.63,296.64c-.24-.14-.44,0-.44.25a1,1,0,0,0,.44.77l10.74,6.2c.24.14.44,0,.44-.26a1,1,0,0,0-.44-.76Z"/><path class="cls-3" d="M325.62,299c-.24-.14-.44,0-.44.25a1,1,0,0,0,.44.76l10.74,6.2c.24.14.44,0,.44-.25a.93.93,0,0,0-.44-.76Z"/><path class="cls-3" d="M325.6,286.92c-.25-.14-.45,0-.45.26a1,1,0,0,0,.44.76l10.75,6.21c.24.14.44,0,.44-.26a1,1,0,0,0-.44-.76Z"/><path class="cls-3" d="M325.6,284.56c-.24-.14-.44,0-.44.26a1,1,0,0,0,.44.76l10.74,6.2a.27.27,0,0,0,.44-.25.93.93,0,0,0-.44-.77Z"/><path class="cls-3" d="M325.61,282.2c-.24-.14-.44,0-.44.25a1,1,0,0,0,.44.76l10.74,6.2c.24.14.44,0,.44-.25a1,1,0,0,0-.44-.76Z"/><path class="cls-3" d="M325.62,279.83c-.25-.14-.45,0-.45.25a1,1,0,0,0,.44.76l10.75,6.2c.24.14.44,0,.44-.25a1,1,0,0,0-.44-.76Z"/><path class="cls-3" d="M325.63,275.09c-.24-.14-.44,0-.44.26a1,1,0,0,0,.44.76l10.74,6.2c.24.14.44,0,.44-.25a1,1,0,0,0-.44-.76Z"/><path class="cls-3" d="M325.62,277.46c-.24-.14-.44,0-.44.25a1,1,0,0,0,.44.77l10.74,6.2a.27.27,0,0,0,.44-.25.93.93,0,0,0-.44-.77Z"/><path class="cls-3" d="M325.6,265.38c-.25-.14-.45,0-.45.25a1,1,0,0,0,.44.77l10.75,6.2c.24.14.44,0,.44-.26a1,1,0,0,0-.44-.76Z"/><path class="cls-3" d="M325.6,263c-.24-.14-.44,0-.44.26a1,1,0,0,0,.44.76l10.74,6.2c.24.14.44,0,.44-.25a.94.94,0,0,0-.44-.77Z"/><path class="cls-3" d="M325.61,260.65c-.24-.14-.44,0-.44.25a1,1,0,0,0,.44.76l10.74,6.2c.24.14.44,0,.44-.25a1,1,0,0,0-.44-.76Z"/><path class="cls-3" d="M325.62,258.28c-.25-.14-.45,0-.45.25a1,1,0,0,0,.44.77l10.75,6.2a.27.27,0,0,0,.44-.25,1,1,0,0,0-.44-.77Z"/><path class="cls-3" d="M325.63,253.55c-.24-.14-.44,0-.44.25a1,1,0,0,0,.44.76l10.74,6.2c.24.14.44,0,.44-.25a1,1,0,0,0-.44-.76Z"/><path class="cls-3" d="M325.62,255.91c-.24-.14-.44,0-.44.26a1,1,0,0,0,.44.76l10.74,6.2c.24.14.44,0,.44-.25a.91.91,0,0,0-.44-.76Z"/><path class="cls-3" d="M325.6,243.83c-.25-.14-.45,0-.45.25a1,1,0,0,0,.44.77l10.75,6.2c.24.14.44,0,.44-.26a1,1,0,0,0-.44-.76Z"/><path class="cls-3" d="M325.6,241.46c-.24-.14-.44,0-.44.26a1,1,0,0,0,.44.76l10.74,6.21c.24.13.44,0,.44-.26a.94.94,0,0,0-.44-.77Z"/><path class="cls-3" d="M325.61,239.1c-.24-.14-.44,0-.44.25a1,1,0,0,0,.44.77l10.74,6.2a.27.27,0,0,0,.44-.25,1,1,0,0,0-.44-.77Z"/><path class="cls-3" d="M325.62,236.73c-.25-.14-.45,0-.45.26a1,1,0,0,0,.44.76l10.75,6.2c.24.14.44,0,.44-.25a1,1,0,0,0-.44-.76Z"/><path class="cls-3" d="M325.63,232c-.24-.14-.44,0-.44.25a1,1,0,0,0,.44.76l10.74,6.21c.24.14.44,0,.44-.26a1,1,0,0,0-.44-.76Z"/><path class="cls-3" d="M325.62,234.37c-.24-.14-.44,0-.44.25a1,1,0,0,0,.44.76l10.74,6.2c.24.14.44,0,.44-.25a.93.93,0,0,0-.44-.76Z"/><path class="cls-3" d="M325.6,222.28c-.25-.14-.45,0-.45.26a1,1,0,0,0,.44.76l10.75,6.21c.24.14.44,0,.44-.26a1,1,0,0,0-.44-.77Z"/><path class="cls-3" d="M325.6,219.92c-.24-.14-.44,0-.44.25a1,1,0,0,0,.44.77l10.74,6.2a.27.27,0,0,0,.44-.25.93.93,0,0,0-.44-.77Z"/><path class="cls-3" d="M325.61,217.55c-.24-.13-.44,0-.44.26a1,1,0,0,0,.44.76l10.74,6.2c.24.14.44,0,.44-.25a1,1,0,0,0-.44-.76Z"/><path class="cls-3" d="M325.62,215.19c-.25-.14-.45,0-.45.25a1,1,0,0,0,.44.76l10.75,6.2c.24.14.44,0,.44-.25a1,1,0,0,0-.44-.76Z"/><path class="cls-3" d="M325.63,210.45c-.24-.14-.44,0-.44.26a1,1,0,0,0,.44.76l10.74,6.2a.27.27,0,0,0,.44-.25,1,1,0,0,0-.44-.77Z"/><path class="cls-3" d="M325.62,212.82c-.24-.14-.44,0-.44.25a1,1,0,0,0,.44.76L336.36,220c.24.14.44,0,.44-.26a.93.93,0,0,0-.44-.76Z"/><path class="cls-3" d="M325.6,200.74c-.25-.14-.45,0-.45.25a1,1,0,0,0,.44.77l10.75,6.2c.24.14.44,0,.44-.26a1,1,0,0,0-.44-.76Z"/><path class="cls-3" d="M325.6,198.37c-.24-.14-.44,0-.44.26a1,1,0,0,0,.44.76l10.74,6.2c.24.14.44,0,.44-.25a.94.94,0,0,0-.44-.77Z"/><path class="cls-3" d="M325.61,196c-.24-.14-.44,0-.44.25a1,1,0,0,0,.44.76l10.74,6.2c.24.14.44,0,.44-.25a1,1,0,0,0-.44-.76Z"/><path class="cls-3" d="M325.62,193.64c-.25-.14-.45,0-.45.25a1,1,0,0,0,.44.77l10.75,6.2c.24.14.44,0,.44-.26a1,1,0,0,0-.44-.76Z"/><path class="cls-3" d="M325.63,188.91c-.24-.14-.44,0-.44.25a1,1,0,0,0,.44.76l10.74,6.2c.24.14.44,0,.44-.25a1,1,0,0,0-.44-.76Z"/><path class="cls-3" d="M325.62,191.27c-.24-.14-.44,0-.44.26a1,1,0,0,0,.44.76l10.74,6.2c.24.14.44,0,.44-.25a.9.9,0,0,0-.44-.76Z"/><polygon class="cls-2" points="395.6 383.72 389.11 379.95 389.03 211.88 395.52 215.66 395.6 383.72"/><polygon class="cls-2" points="395.52 215.66 389.03 211.88 456.1 173.16 462.59 176.93 395.52 215.66"/><path class="cls-4" d="M395.52,215.66l.1,168.06L462.67,345,462.57,177Zm7.75,0,52.42-30.24,0,147.37L403.37,363Z"/><polygon class="cls-8" points="403.3 215.66 403.37 369.4 455.74 339.16 455.67 185.42 403.3 215.66"/><polygon class="cls-8" points="448.75 343.19 403.35 318.7 403.35 323.93 443.4 346.28 448.75 343.19"/><polygon class="cls-8" points="455.73 326.94 403.34 299.66 403.35 312.89 454.7 339.76 455.74 339.16 455.73 326.94"/><polygon class="cls-8" points="403.32 269.34 455.72 290.27 455.71 285.04 403.32 264.11 403.32 269.34"/><polygon class="cls-8" points="403.32 258.29 455.71 279.23 455.7 266 403.31 245.06 403.32 258.29"/><polygon class="cls-8" points="404.23 215.12 455.69 235.68 455.69 230.45 409.58 212.03 404.23 215.12"/><polygon class="cls-8" points="415.53 208.59 455.69 224.63 455.68 211.41 429.07 200.78 415.53 208.59"/><g class="cls-9"><path class="cls-10" d="M399.59,297.2l2.72,1.57V289.1a4.92,4.92,0,0,0-2.23-3.86l-2.94-1.7,2.46-1.42,2.95,1.7a4.86,4.86,0,0,1,2.22,3.85l0,11.66a1.55,1.55,0,0,1-.65,1.43l-2.47,1.44a1.59,1.59,0,0,0,.66-1.44v-1.38l-1.72,1a.5.5,0,0,1-.53-.06l-2.94-1.69Z"/></g><path class="cls-11" d="M400.09,285.25a4.89,4.89,0,0,1,2.23,3.85l0,11.66c0,1.41-1,2-2.24,1.28l-2.95-1.7v-1.71l2.94,1.7c.41.23.74,0,.75-.43l0-11.66a1.66,1.66,0,0,0-.74-1.29l-2.95-1.7v-1.7Z"/></g><g id="Dev_Laptop" data-name="Dev Laptop"><path class="cls-12" d="M324.15,897.71l87,50.57a7.31,7.31,0,0,0,6.66,0L550.06,872c1.84-1.06,1.84-2.79,0-3.86l-87-50.58a7.39,7.39,0,0,0-6.64,0L324.16,893.85C322.32,894.93,322.3,896.65,324.15,897.71Z"/><path class="cls-4" d="M427,902.85a1.15,1.15,0,0,0,0,2.18l21.45,12.46a4.15,4.15,0,0,0,3.76,0l42.28-24.41a1.15,1.15,0,0,0,0-2.17L473,878.45a4.15,4.15,0,0,0-3.76,0Z"/><path class="cls-11" d="M322.78,895.8l0,5.09a2.36,2.36,0,0,0,1.36,1.91l87,50.57a7.37,7.37,0,0,0,6.66,0L550.08,877a2.34,2.34,0,0,0,1.38-1.95l0-5.07a2.34,2.34,0,0,1-1.38,1.93L417.83,948.3a7.31,7.31,0,0,1-6.66,0l-87-50.57A2.28,2.28,0,0,1,322.78,895.8Z"/><path class="cls-2" d="M456.13,716.82c1.85-1.07,3.35-.21,3.35,1.91l.24,93a7.36,7.36,0,0,1-3.33,5.76L326.07,892.75c-1.84,1.06-3.34.2-3.35-1.91l-.24-93a7.38,7.38,0,0,1,3.33-5.76Z"/><path class="cls-3" d="M319,795.79l.23,93a2.35,2.35,0,0,0,1,2.14l3.49,2a2.34,2.34,0,0,1-1-2.14l-.24-93a7.38,7.38,0,0,1,3.33-5.77l130.32-75.23a2.41,2.41,0,0,1,2.38-.24l-3.5-2a2.39,2.39,0,0,0-2.37.24L322.32,790A7.32,7.32,0,0,0,319,795.79Z"/><polygon class="cls-3" points="327.19 796.68 327.42 886.55 455.01 812.89 454.79 723.02 327.19 796.68"/><polygon class="cls-12" points="327.19 796.68 327.23 811.75 454.82 738.09 454.79 723.02 327.19 796.68"/><path class="cls-13" d="M433.75,740.85c1.23-.71,2.23-.16,2.23,1.25a4.87,4.87,0,0,1-2.22,3.84c-1.21.7-2.21.13-2.21-1.28A4.86,4.86,0,0,1,433.75,740.85Z"/><path class="cls-13" d="M440.85,736.75c1.21-.7,2.21-.15,2.22,1.26a4.9,4.9,0,0,1-2.2,3.83c-1.23.71-2.23.14-2.24-1.27A4.86,4.86,0,0,1,440.85,736.75Z"/><path class="cls-13" d="M447.94,732.66c1.23-.71,2.23-.17,2.23,1.25a4.87,4.87,0,0,1-2.22,3.84c-1.23.71-2.23.14-2.23-1.27A4.84,4.84,0,0,1,447.94,732.66Z"/><polygon class="cls-3" points="350.83 891.47 342.48 896.32 338.88 894.24 347.23 889.39 350.83 891.47"/><polygon class="cls-3" points="440.71 839.24 432.34 844.1 428.74 842.02 437.11 837.16 440.71 839.24"/><polygon class="cls-3" points="463.18 826.18 454.81 831.04 451.21 828.96 459.58 824.1 463.18 826.18"/><polygon class="cls-3" points="448.18 856.58 439.83 861.43 432.4 857.14 440.76 852.29 448.18 856.58"/><polygon class="cls-3" points="489.38 854.33 481.02 859.19 473.58 854.9 481.94 850.04 489.38 854.33"/><polygon class="cls-3" points="500.62 847.8 492.26 852.66 475.45 842.96 483.82 838.1 500.62 847.8"/><g class="cls-9"><polygon class="cls-3" points="472.54 831.59 457.12 840.55 449.68 836.25 465.1 827.29 472.54 831.59"/><polygon class="cls-3" points="454.25 842.21 445.89 847.07 438.45 842.78 446.81 837.92 454.25 842.21"/><polygon class="cls-3" points="481.89 836.99 462.29 848.38 454.86 844.09 474.46 832.7 481.89 836.99"/><polygon class="cls-3" points="459.42 850.04 451.06 854.9 443.63 850.62 452 845.76 459.42 850.04"/><polygon class="cls-3" points="468.79 855.45 460.42 860.31 452.99 856.02 461.35 851.16 468.79 855.45"/></g><polygon class="cls-3" points="443.01 848.75 434.65 853.61 427.21 849.31 435.57 844.45 443.01 848.75"/><polygon class="cls-3" points="429.47 845.77 421.11 850.62 417.51 848.55 425.87 843.69 429.47 845.77"/><polygon class="cls-3" points="418.24 852.29 409.87 857.15 406.27 855.08 414.64 850.22 418.24 852.29"/><polygon class="cls-3" points="423.85 881.57 415.49 886.43 408.05 882.13 416.41 877.27 423.85 881.57"/><g class="cls-9"><polygon class="cls-3" points="407 858.83 398.64 863.68 395.05 861.6 403.4 856.75 407 858.83"/><polygon class="cls-3" points="420.54 861.8 412.19 866.66 404.75 862.36 413.11 857.51 420.54 861.8"/><polygon class="cls-3" points="395.77 865.35 387.4 870.21 383.81 868.13 392.17 863.27 395.77 865.35"/><polygon class="cls-3" points="409.32 868.33 400.95 873.19 393.51 868.89 401.88 864.03 409.32 868.33"/><polygon class="cls-3" points="425.71 869.63 417.36 874.49 409.94 870.2 418.29 865.35 425.71 869.63"/><polygon class="cls-3" points="384.54 871.88 376.18 876.74 372.58 874.66 380.94 869.8 384.54 871.88"/><polygon class="cls-3" points="398.09 874.85 389.72 879.71 382.28 875.42 390.65 870.56 398.09 874.85"/><polygon class="cls-3" points="435.08 875.04 426.73 879.89 419.29 875.6 427.64 870.75 435.08 875.04"/><polygon class="cls-3" points="414.49 876.16 406.12 881.02 398.69 876.73 407.06 871.87 414.49 876.16"/><polygon class="cls-3" points="373.3 878.41 364.94 883.27 361.34 881.19 369.7 876.33 373.3 878.41"/><polygon class="cls-3" points="386.85 881.39 378.48 886.25 371.04 881.95 379.41 877.09 386.85 881.39"/><polygon class="cls-3" points="403.26 882.68 394.89 887.54 387.47 883.26 395.83 878.4 403.26 882.68"/><polygon class="cls-3" points="375.62 887.91 367.25 892.77 359.82 888.48 368.18 883.62 375.62 887.91"/><polygon class="cls-3" points="412.62 888.09 404.26 892.95 396.82 888.66 405.18 883.8 412.62 888.09"/><polygon class="cls-3" points="392.02 889.22 383.65 894.08 376.23 889.79 384.59 884.93 392.02 889.22"/><polygon class="cls-3" points="401.38 894.62 393.02 899.48 385.58 895.19 393.94 890.33 401.38 894.62"/><polygon class="cls-3" points="444.93 880.17 402.38 904.89 394.94 900.6 437.49 875.87 444.93 880.17"/><polygon class="cls-3" points="390.15 901.15 381.79 906.01 374.35 901.71 382.71 896.85 390.15 901.15"/><polygon class="cls-3" points="380.79 895.74 361.2 907.13 353.77 902.84 373.36 891.45 380.79 895.74"/><polygon class="cls-3" points="378.91 907.68 370.56 912.53 363.12 908.24 371.48 903.38 378.91 907.68"/><polygon class="cls-3" points="399.52 906.55 379.93 917.94 372.49 913.65 392.08 902.26 399.52 906.55"/></g><polygon class="cls-3" points="362.07 884.93 353.71 889.79 350.11 887.72 358.47 882.86 362.07 884.93"/><polygon class="cls-3" points="451.94 832.71 443.57 837.57 439.97 835.5 448.34 830.63 451.94 832.71"/><polygon class="cls-3" points="431.78 855.27 423.42 860.13 415.98 855.84 424.35 850.98 431.78 855.27"/><polygon class="cls-3" points="455.68 873.91 447.32 878.77 439.88 874.48 448.25 869.62 455.68 873.91"/><polygon class="cls-3" points="446.32 868.51 437.96 873.37 430.52 869.07 438.88 864.21 446.32 868.51"/><polygon class="cls-3" points="436.95 863.1 428.59 867.96 421.16 863.67 429.53 858.81 436.95 863.1"/><polygon class="cls-3" points="478.15 860.86 469.79 865.72 462.35 861.42 470.71 856.56 478.15 860.86"/><polygon class="cls-3" points="466.91 867.39 458.56 872.24 451.12 867.95 459.47 863.09 466.91 867.39"/><polygon class="cls-3" points="364.38 894.44 351.84 901.73 344.4 897.43 356.94 890.15 364.38 894.44"/><path class="cls-14" d="M339.05,820.43c1.62-.93,2.58-.73,3.26-.11l-.92,1.49c-.59-.59-1.34-.54-2.26,0a6.69,6.69,0,0,0-3.06,5.71c0,2.26,1.2,3.25,3.08,2.17a5.68,5.68,0,0,0,2.26-2.63l.92.43a8,8,0,0,1-3.25,3.66c-2.65,1.53-4.43.21-4.44-2.81A9.52,9.52,0,0,1,339.05,820.43Z"/><path class="cls-14" d="M345,825.34c.55-.31,1-.05,1,.58a2.24,2.24,0,0,1-1,1.74c-.55.32-1,.06-1-.57A2.26,2.26,0,0,1,345,825.34Z"/><ellipse class="cls-14" cx="344.99" cy="818.27" rx="1.42" ry="0.82" transform="translate(-535.83 705.41) rotate(-59.84)"/><polygon class="cls-14" points="348.08 811.16 352.48 823.57 351.39 824.2 347 811.78 348.08 811.16"/><polygon class="cls-14" points="356.65 804.78 364.32 809.16 356.7 822.38 355.47 821.68 361.88 810.57 355.43 806.9 356.65 804.78"/><polygon class="cls-14" points="372.89 809.18 372.9 812.48 364.87 817.11 364.87 813.82 372.89 809.18"/></g><g id="User_Laptop" data-name="User Laptop"><path class="cls-10" d="M1138.24,305l116.66-67.35a6.5,6.5,0,0,1,5.86,0l63.41,36.85c1.62,1,1.62,2.47,0,3.41l-116.65,67.36a6.48,6.48,0,0,1-5.88,0l-63.41-36.85C1136.6,307.49,1136.62,306,1138.24,305Z"/><path class="cls-15" d="M1259.41,284.48a3.32,3.32,0,0,1,3,0l17.23,10a.93.93,0,0,1,0,1.75l-33.94,19.59a3.35,3.35,0,0,1-3,0l-17.23-10a.93.93,0,0,1,0-1.75Z"/><path class="cls-15" d="M1138.23,308.42l63.41,36.85a6.48,6.48,0,0,0,5.88,0l116.65-67.36a2.08,2.08,0,0,0,1.22-1.7v6.13a2.06,2.06,0,0,1-1.22,1.72l-116.65,67.34a6.52,6.52,0,0,1-5.87,0l-63.42-36.85a2.1,2.1,0,0,1-1.2-1.69l0-6.15A2,2,0,0,0,1138.23,308.42Z"/><polygon class="cls-3" points="1247.02 252.8 1249.21 254.08 1243.93 257.13 1241.74 255.85 1247.02 252.8"/><polygon class="cls-3" points="1282.91 257.23 1287.75 260.04 1275.37 267.18 1270.54 264.37 1282.91 257.23"/><polygon class="cls-3" points="1276.82 253.69 1281.66 256.5 1276.38 259.55 1271.54 256.74 1276.82 253.69"/><polygon class="cls-3" points="1269.72 257.78 1274.56 260.6 1269.28 263.64 1264.44 260.83 1269.72 257.78"/><polygon class="cls-3" points="1270.73 250.15 1275.57 252.96 1263.19 260.11 1258.35 257.29 1270.73 250.15"/><polygon class="cls-3" points="1256.54 258.34 1261.38 261.15 1256.1 264.2 1251.26 261.39 1256.54 258.34"/><polygon class="cls-3" points="1247.82 256.33 1252.65 259.13 1247.37 262.18 1242.54 259.38 1247.82 256.33"/><polygon class="cls-3" points="1254.91 252.24 1259.74 255.04 1254.46 258.09 1249.63 255.28 1254.91 252.24"/><polygon class="cls-3" points="1254.11 248.71 1256.3 249.98 1251.02 253.03 1248.83 251.76 1254.11 248.71"/><polygon class="cls-3" points="1264.65 246.61 1269.48 249.42 1261.56 253.99 1256.73 251.19 1264.65 246.61"/><polygon class="cls-3" points="1261.21 244.61 1263.4 245.88 1258.12 248.93 1255.93 247.66 1261.21 244.61"/><polygon class="cls-3" points="1218.64 269.19 1220.83 270.46 1215.55 273.51 1213.36 272.24 1218.64 269.19"/><polygon class="cls-3" points="1219.44 272.71 1224.27 275.52 1218.99 278.57 1214.16 275.76 1219.44 272.71"/><polygon class="cls-3" points="1226.53 268.62 1231.36 271.43 1226.08 274.47 1221.25 271.67 1226.53 268.62"/><polygon class="cls-3" points="1248.45 270.07 1253.28 272.88 1248 275.93 1243.16 273.12 1248.45 270.07"/><polygon class="cls-3" points="1241.35 274.17 1246.18 276.98 1240.9 280.03 1236.07 277.22 1241.35 274.17"/><g class="cls-9"><polygon class="cls-3" points="1239.92 256.9 1242.11 258.17 1236.83 261.22 1234.64 259.95 1239.92 256.9"/><polygon class="cls-3" points="1232.83 261 1235.02 262.27 1229.74 265.32 1227.55 264.05 1232.83 261"/><polygon class="cls-3" points="1240.72 260.43 1245.55 263.23 1240.27 266.28 1235.44 263.48 1240.72 260.43"/><polygon class="cls-3" points="1249.44 262.44 1254.28 265.25 1249 268.3 1244.16 265.49 1249.44 262.44"/><polygon class="cls-3" points="1233.63 264.52 1238.46 267.33 1233.18 270.38 1228.35 267.57 1233.63 264.52"/><polygon class="cls-3" points="1255.54 265.98 1260.37 268.79 1255.09 271.84 1250.26 269.02 1255.54 265.98"/><polygon class="cls-3" points="1242.36 266.53 1247.19 269.34 1241.91 272.39 1237.07 269.58 1242.36 266.53"/><polygon class="cls-3" points="1268.73 265.42 1273.56 268.22 1239.9 287.66 1235.07 284.85 1268.73 265.42"/></g><polygon class="cls-3" points="1225.73 265.1 1227.92 266.37 1222.64 269.42 1220.45 268.14 1225.73 265.1"/><polygon class="cls-3" points="1211.55 273.28 1213.74 274.55 1208.45 277.61 1206.26 276.34 1211.55 273.28"/><polygon class="cls-3" points="1197.37 281.47 1199.55 282.75 1194.27 285.79 1192.08 284.52 1197.37 281.47"/><g class="cls-9"><polygon class="cls-3" points="1235.26 270.63 1240.09 273.44 1234.81 276.49 1229.97 273.68 1235.26 270.63"/><polygon class="cls-3" points="1228.17 274.72 1233 277.53 1227.72 280.58 1222.88 277.77 1228.17 274.72"/></g><polygon class="cls-3" points="1221.08 278.82 1225.91 281.63 1220.62 284.68 1215.79 281.87 1221.08 278.82"/><polygon class="cls-3" points="1212.35 276.81 1217.17 279.62 1211.9 282.66 1207.07 279.86 1212.35 276.81"/><polygon class="cls-3" points="1213.98 282.91 1218.82 285.73 1213.53 288.77 1208.7 285.96 1213.98 282.91"/><polygon class="cls-3" points="1219.07 294.09 1223.91 296.9 1218.63 299.95 1213.79 297.14 1219.07 294.09"/><polygon class="cls-3" points="1212.98 290.55 1217.82 293.36 1212.54 296.41 1207.7 293.6 1212.98 290.55"/><polygon class="cls-3" points="1206.89 287.01 1211.72 289.82 1199.35 296.97 1194.51 294.15 1206.89 287.01"/><g class="cls-9"><polygon class="cls-3" points="1190.27 285.57 1192.45 286.84 1187.17 289.89 1184.98 288.62 1190.27 285.57"/><polygon class="cls-3" points="1198.16 285 1202.99 287.8 1193.25 293.43 1188.42 290.62 1198.16 285"/></g><polygon class="cls-3" points="1205.26 280.9 1210.08 283.71 1204.8 286.76 1199.97 283.95 1205.26 280.9"/><polygon class="cls-3" points="1204.45 277.38 1206.64 278.65 1201.36 281.7 1199.17 280.43 1204.45 277.38"/><polygon class="cls-3" points="1179.49 302.82 1184.33 305.63 1179.05 308.68 1174.21 305.87 1179.49 302.82"/><polygon class="cls-3" points="1165.31 311.01 1170.14 313.83 1164.86 316.88 1160.03 314.06 1165.31 311.01"/><polygon class="cls-3" points="1198.78 305.8 1203.61 308.61 1198.33 311.66 1193.49 308.85 1198.78 305.8"/><g class="cls-9"><polygon class="cls-3" points="1177.07 293.19 1179.26 294.46 1173.98 297.51 1171.79 296.24 1177.07 293.19"/><polygon class="cls-3" points="1180.51 295.19 1185.34 298 1180.06 301.05 1175.23 298.24 1180.51 295.19"/><polygon class="cls-3" points="1169.97 297.29 1172.16 298.56 1166.88 301.61 1164.69 300.34 1169.97 297.29"/><polygon class="cls-3" points="1186.59 298.72 1191.43 301.54 1186.15 304.58 1181.31 301.77 1186.59 298.72"/><polygon class="cls-3" points="1173.41 299.29 1178.24 302.09 1172.96 305.14 1168.13 302.34 1173.41 299.29"/><polygon class="cls-3" points="1192.68 302.26 1197.52 305.07 1192.24 308.12 1187.4 305.31 1192.68 302.26"/><polygon class="cls-3" points="1166.32 303.38 1171.15 306.19 1165.87 309.24 1161.04 306.43 1166.32 303.38"/><polygon class="cls-3" points="1185.59 306.36 1190.42 309.17 1185.14 312.22 1180.31 309.41 1185.59 306.36"/><polygon class="cls-3" points="1172.4 306.92 1177.24 309.73 1171.96 312.78 1167.12 309.96 1172.4 306.92"/><polygon class="cls-3" points="1178.5 310.45 1183.33 313.27 1178.05 316.32 1173.21 313.5 1178.5 310.45"/></g><polygon class="cls-3" points="1262.63 261.88 1267.47 264.69 1262.19 267.74 1257.35 264.93 1262.63 261.88"/><polygon class="cls-3" points="1233.26 285.89 1238.1 288.71 1232.81 291.76 1227.97 288.95 1233.26 285.89"/><polygon class="cls-3" points="1227.17 282.36 1232.01 285.17 1226.71 288.22 1221.88 285.41 1227.17 282.36"/><polygon class="cls-3" points="1226.16 289.99 1231 292.81 1225.72 295.85 1220.88 293.04 1226.16 289.99"/><polygon class="cls-3" points="1220.07 286.45 1224.91 289.27 1219.63 292.31 1214.79 289.5 1220.07 286.45"/><polygon class="cls-3" points="1234.26 278.26 1239.1 281.07 1233.81 284.12 1228.98 281.31 1234.26 278.26"/><polygon class="cls-3" points="1211.97 298.19 1216.81 301 1211.53 304.05 1206.69 301.24 1211.97 298.19"/><polygon class="cls-3" points="1159.22 307.48 1164.05 310.29 1158.77 313.33 1153.94 310.53 1159.22 307.48"/><polygon class="cls-3" points="1155.78 305.48 1157.97 306.75 1152.69 309.8 1150.5 308.53 1155.78 305.48"/><polygon class="cls-3" points="1162.88 301.38 1165.07 302.65 1159.79 305.7 1157.6 304.43 1162.88 301.38"/><polygon class="cls-3" points="1191.68 309.9 1196.52 312.71 1191.23 315.76 1186.4 312.95 1191.68 309.9"/><polygon class="cls-3" points="1171.4 314.55 1182.33 320.9 1177.05 323.95 1166.12 317.6 1171.4 314.55"/><polygon class="cls-3" points="1184.59 314 1189.42 316.81 1184.14 319.86 1179.31 317.04 1184.59 314"/><path class="cls-2" d="M1254.67,148.84c1.63-.94,2.95-.19,2.95,1.68l.21,82.07a6.46,6.46,0,0,1-2.93,5.08l-115,66.38c-1.63.93-3,.17-3-1.69l-.21-82.07a6.49,6.49,0,0,1,2.94-5.08Z"/><path class="cls-3" d="M1136.61,213.43l115-66.38a2.1,2.1,0,0,1,2.09-.21l3.08,1.79a2.1,2.1,0,0,0-2.09.21l-115,66.37a6.49,6.49,0,0,0-2.94,5.09l.21,82.06a2.06,2.06,0,0,0,.86,1.89l-3.08-1.8a2,2,0,0,1-.86-1.88l-.21-82.07A6.47,6.47,0,0,1,1136.61,213.43Z"/><polygon class="cls-14" points="1253.48 154.31 1253.68 233.59 1141.11 298.58 1140.91 219.29 1253.48 154.31"/><polygon class="cls-3" points="1153.4 319.08 1153.4 321.93 1159.46 325.44 1159.47 322.58 1153.4 319.08"/><polygon class="cls-3" points="1142.48 312.78 1142.47 315.63 1148.54 319.13 1148.55 316.28 1142.48 312.78"/><path class="cls-3" d="M1126.29,342.27a2.08,2.08,0,0,1-1.16-1.76,2.12,2.12,0,0,1,1.17-1.79l29.93-17.27.83,1.45-29.92,17.27c-.25.15-.34.29-.34.34s.09.17.34.31l39.13,22.74-.85,1.45Z"/><g class="cls-9"><path class="cls-14" d="M1150.56,366.46a3.87,3.87,0,0,0,5.08,2.49c2.18-.69,5.69.3,9.24,1.67,4.58,1.77,6.88,3.84,7.82,5.93,1.7,3.78,5.47,6.31,9.56,5.68a26.64,26.64,0,0,0,9.17-3.26c6.44-3.75,8.7-8.52,2.3-12.23-6.75-2.87-11.72-5.53-14.43-7.91a11.73,11.73,0,0,0-3.39-2.23c-6.25-2.49-14.33-1.63-20.09,1.67C1151.78,360.62,1149.86,363.63,1150.56,366.46Z"/><path class="cls-12" d="M1150.4,365.33v1.73c0,2.11,1.38,4.18,4.33,5.89L1170.3,382c6.44,3.71,14.66,2.43,21.13-1.31,3.79-2.19,6.12-4.73,6.12-7.21v-1.76l0,0c0,2.48-2.33,5-6.1,7.21a26.64,26.64,0,0,1-9.17,3.26c-4.09.63-7.86-1.9-9.56-5.68-.94-2.09-3.24-4.16-7.82-5.93-3.55-1.37-7.06-2.36-9.24-1.67a3.87,3.87,0,0,1-5.08-2.49,4.61,4.61,0,0,1-.14-1.1Z"/></g><g class="cls-9"><path class="cls-12" d="M1164.39,359.58a3.08,3.08,0,0,1,3.13.31,9.79,9.79,0,0,1,4,5.3l-2.34,1.37a9.82,9.82,0,0,0-4-5.31,3.12,3.12,0,0,0-3.14-.3Z"/><path class="cls-15" d="M1169.19,366.56l-8-4.65c.71-1.36,2.25-1.69,4-.66A9.69,9.69,0,0,1,1169.19,366.56Z"/></g></g><g id="User"><path class="cls-15" d="M1685.57,139.84c-5.81,3.37-9.42,10.54-9.44,20.72l-.14,5.25,10.8-6.27.13-5.27c0-10.16,3.64-17.33,9.44-20.7Z"/><path class="cls-14" d="M1675.88,162.22c2.49-16.51,50.92-17.38,59.32-3.63,9.77,16,1.8,65.14,4.2,53.77,0,0-.11.4-.27,1.16-.77,3.77-3.68,3.95-.52,14.4L1718,265.77l-33.42-1.92s-3.09-13.08-3.28-23c-3.44-3.32-.17-12.37-1-24.55a235.59,235.59,0,0,1-2.38-24.17C1673.72,181.07,1673.53,175.09,1675.88,162.22Z"/><path class="cls-3" d="M1677.87,192.12s-3.46-23.64,2.55-34.27a2.06,2.06,0,0,1,3.25-.47c4.92,5,10,8.62,20,10.09a57.71,57.71,0,0,0,14-.07c6.27-.61,21.33,2.77,19.9,41l3.44-1s37.82-83.62-30.11-77c-19.4,1.89-23.24,6.76-28.46,11.95-3.9,3.88-6.22,10.1-6.24,18.24C1676.13,160.55,1669.91,178.42,1677.87,192.12Z"/><path class="cls-4" d="M1643,293.4c3,31,15.43,42.39,37.18,56l.17.11c57.83,32.3,87.35,18.42,101.13,11.81a13.05,13.05,0,0,0,7.43-11.81l-1-52.22a60.7,60.7,0,0,0-24.61-48.7c-9.77-7.25-18.65-12.48-18.65-12.48-17.2,3.4-28.77,31.6-49.12,26.77-16.76-4-15.33-46.56-15.33-46.56C1633,192.47,1643,293.4,1643,293.4Z"/><path class="cls-6" d="M1676.75,346.13l-.25.49c2.32,1.78,3.86,2.86,3.86,2.86,19.74-23,64.34-113.4,64.34-113.4-5,1-9.56,9.23-13.88,9.29-18.28,19-33.44,10.24-33.44,10.24-13.24-7.53-18.53-21.44-19.45-32.22-.57-.23-1.11-.38-1.67-.56C1659.58,299.66,1676.75,346.13,1676.75,346.13Z"/><polygon class="cls-16" points="1710.69 263.12 1697.42 274.17 1693.63 332 1680.36 349.48 1676.5 346.62 1672.99 322.98 1690.55 270.3 1681.61 246.71 1710.69 263.12"/><path class="cls-17" d="M1671.64,234.18c-1.4,10,7.76,30.82,7.76,30.82,4.94,0,18-9.39,18-9.39-18-18.29-17.13-39.32-17.13-39.32C1678.53,225.12,1673,224.12,1671.64,234.18Z"/><path class="cls-17" d="M1708.1,277.18c-7.67-6.94-10.72-21.57-10.72-21.57,24.15,1.4,41.23-27.69,41.23-27.69a33.39,33.39,0,0,0,6.09,8.16C1734.21,263.46,1708.1,277.18,1708.1,277.18Z"/><path class="cls-3" d="M1744.7,236.08l-64.34,113.4,51-47.82-4.29-15.51h16.18C1757.53,263.64,1744.7,236.08,1744.7,236.08Z"/><path class="cls-3" d="M1667.13,262.64l-10.19,7.53c0,18.1,19.81,76,19.81,76-5.57-49.46,3.5-129.84,3.5-129.84-17.11,19.2-21.89,32.94-21.89,32.94Z"/></g></g><g id="Arrows"><g id="From_Dev" data-name="From Dev"><g class="cls-9"><g class="cls-9"><g class="cls-18"><g class="cls-9"><path class="cls-19" d="M405.37,704.37,382.57,692a3.33,3.33,0,0,1-1.65-3l22.8,12.4a3.29,3.29,0,0,0,1.65,3"/></g></g></g><polygon class="cls-20" points="403.72 701.36 380.92 688.96 381.36 455.95 404.15 468.35 403.72 701.36"/><polygon class="cls-21" points="404.15 468.35 381.36 455.95 388.48 454.94 411.27 467.35 404.15 468.35"/><path class="cls-22" d="M411.27,467.34l-.43,233a4.43,4.43,0,0,1-3.57,4.34,3.13,3.13,0,0,1-3.55-3.34l.43-233Z"/><polygon class="cls-23" points="386.41 470.84 363.61 458.44 384.99 415.63 407.78 428.03 386.41 470.84"/><polygon class="cls-22" points="407.78 428.03 429 464.85 411.27 467.35 404.15 468.35 386.41 470.84 407.78 428.03"/></g></g><g id="To_Client" data-name="To Client"><g class="cls-9"><polygon class="cls-24" points="974.9 256.32 964.03 243.38 965.58 219.31 976.45 232.25 974.9 256.32"/><polygon class="cls-24" points="976.45 232.25 965.58 219.31 966.2 209.65 977.07 222.59 976.45 232.25"/><polygon class="cls-25" points="978.62 198.53 1027.23 227.63 974.9 256.32 976.45 232.25 977.07 222.59 978.62 198.53"/><polygon class="cls-26" points="978.62 198.53 967.75 185.59 1016.36 214.69 1027.23 227.63 978.62 198.53"/><polygon class="cls-24" points="977.07 222.59 966.2 209.65 967.75 185.59 978.62 198.53 977.07 222.59"/><polygon class="cls-21" points="552.13 220.87 541.26 207.93 966.2 209.65 977.07 222.59 552.13 220.87"/><g class="cls-9"><g class="cls-27"><g class="cls-9"><path class="cls-19" d="M548,228.92,537.16,216a4.52,4.52,0,0,1-1-3.23,5.08,5.08,0,0,1,1.23-3l10.87,12.94a5,5,0,0,0-1.23,3,4.51,4.51,0,0,0,1,3.24"/><path class="cls-28" d="M548.22,222.7l-10.87-12.94a4.76,4.76,0,0,1,.55-.55l10.86,12.94a5.62,5.62,0,0,0-.54.55"/><path class="cls-29" d="M548.76,222.15,537.9,209.21a4.91,4.91,0,0,1,.51-.39l10.86,12.94a4.91,4.91,0,0,0-.51.39"/><path class="cls-30" d="M549.27,221.76l-10.86-12.94a4.14,4.14,0,0,1,.5-.3l10.86,12.94a5.09,5.09,0,0,0-.5.3"/><path class="cls-31" d="M549.77,221.46l-10.86-12.94a4,4,0,0,1,.51-.24l10.86,12.94-.51.24"/><path class="cls-32" d="M550.28,221.22l-10.86-12.94a5.05,5.05,0,0,1,.55-.18L550.84,221a5.22,5.22,0,0,0-.56.18"/><path class="cls-33" d="M550.84,221,540,208.1a4.66,4.66,0,0,1,.63-.12l10.86,12.94a4.25,4.25,0,0,0-.62.12"/><path class="cls-34" d="M551.46,220.92,540.6,208a4.89,4.89,0,0,1,.66,0l10.87,12.94a4.91,4.91,0,0,0-.67,0"/></g></g></g><path class="cls-25" d="M552.13,220.87l424.94,1.72-.62,9.66-424.91-1.72a4.5,4.5,0,0,1-4.55-4.85A5.2,5.2,0,0,1,552.13,220.87Z"/></g></g><g id="To_Server" data-name="To Server"><g class="cls-9"><g class="cls-9"><g class="cls-35"><g class="cls-9"><path class="cls-34" d="M1027.52,304.84l-10.86-12.94h.15l10.87,12.94h-.16"/><path class="cls-36" d="M1027.68,304.84l-10.87-12.94a4.6,4.6,0,0,1,2.65.91l10.87,12.94a4.67,4.67,0,0,0-2.65-.91"/><path class="cls-34" d="M1030.33,305.75l-10.87-12.94a5,5,0,0,1,.59.53l10.86,12.94a4.86,4.86,0,0,0-.58-.53"/><path class="cls-33" d="M1030.91,306.28l-10.86-12.94.16.18,10.86,12.94-.16-.18"/></g></g></g><polygon class="cls-24" points="588.26 315.37 577.39 302.43 577.96 292.77 588.82 305.71 588.26 315.37"/><polygon class="cls-21" points="588.82 305.71 577.96 292.77 1016.66 291.9 1027.52 304.84 588.82 305.71"/><path class="cls-25" d="M1027.52,304.84a4.52,4.52,0,0,1,4.6,4.81,5.25,5.25,0,0,1-5.16,4.85l-438.7.87.56-9.66Z"/><polygon class="cls-32" points="538.05 310.64 527.19 297.7 579.36 268.69 590.23 281.64 538.05 310.64"/><polygon class="cls-25" points="590.23 281.64 588.82 305.71 588.26 315.37 586.86 339.43 538.05 310.64 590.23 281.64"/></g></g><g id="To_User" data-name="To User"><g class="cls-9"><polygon class="cls-24" points="1536.55 314.82 1525.68 301.88 1526.96 278.77 1537.82 291.71 1536.55 314.82"/><polygon class="cls-24" points="1537.82 291.71 1526.96 278.77 1527.49 269.11 1538.36 282.05 1537.82 291.71"/><polygon class="cls-25" points="1539.63 258.95 1586.91 286.65 1536.55 314.82 1537.82 291.71 1538.36 282.05 1539.63 258.95"/><polygon class="cls-26" points="1539.63 258.95 1528.77 246.01 1576.04 273.7 1586.91 286.65 1539.63 258.95"/><polygon class="cls-24" points="1538.36 282.05 1527.49 269.11 1528.77 246.01 1539.63 258.95 1538.36 282.05"/><polygon class="cls-21" points="1389.32 282.79 1378.46 269.85 1527.49 269.11 1538.36 282.05 1389.32 282.79"/><g class="cls-9"><g class="cls-37"><g class="cls-9"><path class="cls-19" d="M1385.22,290.82l-10.86-12.94a4.55,4.55,0,0,1-1-3.18,5.08,5.08,0,0,1,1.24-3l10.86,12.95a5,5,0,0,0-1.23,3,4.5,4.5,0,0,0,1,3.18"/><path class="cls-28" d="M1385.41,284.62l-10.86-12.95a5.5,5.5,0,0,1,.54-.54L1386,284.07a4.76,4.76,0,0,0-.55.55"/><path class="cls-29" d="M1386,284.07l-10.87-12.94a4.91,4.91,0,0,1,.51-.39l10.86,12.94a6.12,6.12,0,0,0-.5.39"/><path class="cls-30" d="M1386.46,283.68l-10.86-12.94a5.09,5.09,0,0,1,.5-.3L1387,283.38a5.09,5.09,0,0,0-.5.3"/><path class="cls-31" d="M1387,283.38l-10.86-12.94a4.9,4.9,0,0,1,.52-.24l10.86,12.94a4.9,4.9,0,0,0-.52.24"/><path class="cls-32" d="M1387.48,283.14l-10.86-12.94a5.05,5.05,0,0,1,.55-.18L1388,283c-.18.05-.37.11-.55.18"/><path class="cls-33" d="M1388,283,1377.17,270a4.7,4.7,0,0,1,.63-.13l10.87,12.94a4.53,4.53,0,0,0-.64.13"/><path class="cls-34" d="M1388.67,282.83l-10.87-12.94a4.87,4.87,0,0,1,.66,0l10.86,12.94a4.63,4.63,0,0,0-.65,0"/></g></g></g><path class="cls-25" d="M1538.36,282.05l-.54,9.66-149,.73a4.52,4.52,0,0,1-4.6-4.8,5.2,5.2,0,0,1,5.14-4.85Z"/></g></g></g><g id="Text"><text class="cls-38" transform="translate(329.56 88.83)">Se<tspan class="cls-39" x="46.21" y="0">r</tspan><tspan class="cls-40" x="61.15" y="0">v</tspan><tspan x="81.11" y="0">er</tspan></text><text class="cls-38" transform="translate(264.61 1016.17)">D<tspan class="cls-40" x="26" y="0">ev</tspan><tspan x="67.32" y="0">eloper Machine</tspan></text><text class="cls-38" transform="translate(1088.51 88.83)">User Machine</text><text class="cls-38" transform="translate(1668.67 88.83)">User</text><text class="cls-41" transform="translate(638.2 369.17)">Client Requests Site</text><text class="cls-41" transform="translate(1390.73 246.17)">Content</text><text class="cls-41" transform="translate(672.1 178.17)"><tspan class="cls-42">H</tspan><tspan x="22.16" y="0">TML/CSS/JS</tspan></text><text class="cls-41" transform="translate(131.38 195.17)">React <tspan x="-26.92" y="38.4">P</tspan><tspan class="cls-43" x="-6.28" y="38.4">r</tspan><tspan x="4.83" y="38.4">oduces </tspan><tspan class="cls-42" x="-2.47" y="76.8">H</tspan><tspan x="19.69" y="76.8">TML</tspan></text><text class="cls-41" transform="translate(131.83 541.17)">SSR <tspan class="cls-44" x="67.73" y="0">F</tspan><tspan class="cls-45" x="84.86" y="0">r</tspan><tspan x="96.06" y="0">amework</tspan><tspan x="77.12" y="38.4">Code</tspan><tspan x="103.8" y="76.8">&amp;</tspan><tspan x="31.95" y="115.2">React Code</tspan></text></g><g id="SSR-2" data-name="SSR"><g id="SSR-3" data-name="SSR"><g class="cls-9"><polygon class="cls-24" points="219.72 88.27 211.92 89.28 223.51 67.02 231.32 66.01 219.72 88.27"/><polygon class="cls-24" points="215.03 97.28 207.23 98.29 211.92 89.28 219.72 88.27 215.03 97.28"/><polygon class="cls-24" points="203.79 118.86 195.99 119.87 207.23 98.29 215.03 97.28 203.79 118.86"/><polygon class="cls-24" points="262.85 116.72 255.04 117.73 195.99 119.87 203.79 118.86 262.85 116.72"/><polygon class="cls-46" points="231.32 66.01 262.85 116.72 203.79 118.86 215.03 97.28 219.72 88.27 231.32 66.01"/><g class="cls-9"><g class="cls-47"><g class="cls-9"><path class="cls-28" d="M195.34,359.67l-7.8,1a130,130,0,0,0,31.34-8.11l7.81-1a130.21,130.21,0,0,1-31.35,8.1"/><path class="cls-19" d="M226.69,351.57l-7.81,1a131.92,131.92,0,0,0,33.85-19.68,4.77,4.77,0,0,1,1.25-.72l7.8-1a4.54,4.54,0,0,0-1.25.73,132.27,132.27,0,0,1-33.84,19.68"/><path class="cls-28" d="M261.78,331.16l-7.8,1a4.79,4.79,0,0,1,1.17-.3l7.8-1a4.79,4.79,0,0,0-1.17.3"/></g></g></g><g class="cls-9"><g class="cls-48"><g class="cls-9"><path class="cls-19" d="M215,97.28l-7.8,1A131.89,131.89,0,0,0,179,93.19q-5.92-.42-11.74-.32a131.41,131.41,0,0,0-14.52,1.06l7.8-1a131.41,131.41,0,0,1,14.53-1.06c3.87-.07,7.79,0,11.73.32A131.78,131.78,0,0,1,215,97.28"/></g></g></g><path class="cls-46" d="M174.9,81.87c4.16-.08,8.37,0,12.6.33a141.81,141.81,0,0,1,32.22,6.07l-4.69,9a131.78,131.78,0,0,0-28.19-5.1c-3.94-.28-7.86-.39-11.73-.32a131.29,131.29,0,0,0-88.64,36.68,134.1,134.1,0,0,0-41,88.35q-.41,6-.28,11.89A135.37,135.37,0,0,0,81.7,318.61a132.16,132.16,0,0,0,87.41,41.81q5.92.42,11.74.32a131,131,0,0,0,79.68-28.85,4.77,4.77,0,0,1,3-1.07,4.89,4.89,0,0,1,4,1.9,5,5,0,0,1-.8,7,140.75,140.75,0,0,1-85.62,31c-4.16.07-8.37,0-12.6-.34a142,142,0,0,1-93.91-44.92A145.46,145.46,0,0,1,35.3,229q-.13-6.33.29-12.76a144.22,144.22,0,0,1,44.08-94.92A141,141,0,0,1,174.9,81.87Z"/><g class="cls-9"><g class="cls-49"><g class="cls-9"><path class="cls-19" d="M196.64,369.59l-7.81,1a140.67,140.67,0,0,1-15.59,1.14q-6.24.11-12.59-.34a142,142,0,0,1-93.92-44.93A145.41,145.41,0,0,1,27.49,230c-.08-4.22,0-8.47.3-12.76a144.14,144.14,0,0,1,44.07-94.92,142.68,142.68,0,0,1,46-29.55l7.81-1a142.57,142.57,0,0,0-45.95,29.55,144.22,144.22,0,0,0-44.08,94.92q-.44,6.44-.29,12.76a145.46,145.46,0,0,0,39.24,96.52,142,142,0,0,0,93.91,44.92c4.23.3,8.44.41,12.6.34a141,141,0,0,0,15.59-1.14"/><path class="cls-28" d="M125.62,91.72l-7.81,1A140.36,140.36,0,0,1,151.51,84l7.8-1a140.28,140.28,0,0,0-33.69,8.72"/></g></g></g></g></g></g></g></svg>