<svg width="762" height="389" viewBox="0 0 762 389" fill="none" xmlns="http://www.w3.org/2000/svg">
<rect width="762" height="389" rx="32" fill="#F5F8FF"/>
<path d="M42.1818 98V51.4545H57.8864C60.9167 51.4545 63.4394 51.9848 65.4545 53.0455C67.4848 54.1061 69.0076 55.553 70.0227 57.3864C71.0379 59.2197 71.5455 61.303 71.5455 63.6364C71.5455 65.5758 71.2197 67.2348 70.5682 68.6136C69.9167 69.9924 69.0303 71.1061 67.9091 71.9545C66.7879 72.803 65.5379 73.4167 64.1591 73.7955V74.1591C65.6591 74.2652 67.1136 74.7955 68.5227 75.75C69.9318 76.6894 71.0909 78.0076 72 79.7045C72.9091 81.4015 73.3636 83.4318 73.3636 85.7955C73.3636 88.1439 72.8409 90.2424 71.7955 92.0909C70.75 93.9242 69.1439 95.3712 66.9773 96.4318C64.8258 97.4773 62.0833 98 58.75 98H42.1818ZM46.4318 94.1818H58.75C62.3409 94.1818 64.9924 93.3864 66.7045 91.7955C68.4318 90.2045 69.2955 88.2045 69.2955 85.7955C69.2955 84.0227 68.8636 82.4167 68 80.9773C67.1515 79.5227 65.947 78.3712 64.3864 77.5227C62.8409 76.6742 61.0227 76.25 58.9318 76.25H46.4318V94.1818ZM46.4318 72.4773H58.2727C60.1061 72.4773 61.7121 72.0985 63.0909 71.3409C64.4697 70.5833 65.5455 69.5379 66.3182 68.2045C67.0909 66.8712 67.4773 65.3485 67.4773 63.6364C67.4773 61.1667 66.6742 59.1591 65.0682 57.6136C63.4621 56.053 61.0682 55.2727 57.8864 55.2727H46.4318V72.4773ZM96.892 98.7273C93.6345 98.7273 90.8163 97.9697 88.4375 96.4545C86.0587 94.9242 84.2178 92.8106 82.9148 90.1136C81.6269 87.4015 80.983 84.2803 80.983 80.75C80.983 77.2348 81.6269 74.1136 82.9148 71.3864C84.2178 68.6439 86.0133 66.5 88.3011 64.9545C90.6042 63.3939 93.2633 62.6136 96.2784 62.6136C98.1723 62.6136 99.9981 62.9621 101.756 63.6591C103.513 64.3409 105.089 65.3939 106.483 66.8182C107.892 68.2273 109.006 70.0076 109.824 72.1591C110.642 74.2955 111.051 76.8258 111.051 79.75V81.75H83.7784V78.1818H106.915C106.915 75.9394 106.46 73.9242 105.551 72.1364C104.657 70.3333 103.407 68.9091 101.801 67.8636C100.21 66.8182 98.3693 66.2955 96.2784 66.2955C94.0663 66.2955 92.1193 66.8864 90.4375 68.0682C88.7557 69.25 87.4375 70.8106 86.483 72.75C85.5436 74.6894 85.0663 76.8106 85.0511 79.1136V81.25C85.0511 84.0227 85.5284 86.447 86.483 88.5227C87.4527 90.5833 88.8239 92.1818 90.5966 93.3182C92.3693 94.4545 94.4678 95.0227 96.892 95.0227C98.5436 95.0227 99.9905 94.7652 101.233 94.25C102.491 93.7348 103.544 93.0455 104.392 92.1818C105.256 91.303 105.907 90.3409 106.347 89.2955L110.188 90.5455C109.657 92.0152 108.786 93.3712 107.574 94.6136C106.377 95.8561 104.877 96.8561 103.074 97.6136C101.286 98.3561 99.2254 98.7273 96.892 98.7273ZM134.33 63.0909V66.6136H117.17V63.0909H134.33ZM122.534 98V57.9773C122.534 56.0985 122.966 54.5151 123.83 53.2273C124.708 51.9394 125.852 50.9621 127.261 50.2955C128.67 49.6288 130.163 49.2955 131.739 49.2955C132.799 49.2955 133.678 49.3864 134.375 49.5682C135.087 49.7348 135.648 49.9015 136.057 50.0682L134.875 53.6136C134.572 53.5227 134.201 53.4167 133.761 53.2955C133.322 53.1742 132.769 53.1136 132.102 53.1136C130.345 53.1136 128.989 53.6061 128.034 54.5909C127.08 55.5758 126.602 56.9848 126.602 58.8182L126.58 98H122.534ZM154.534 98.7273C151.519 98.7273 148.852 97.9621 146.534 96.4318C144.231 94.9015 142.428 92.7879 141.125 90.0909C139.822 87.3788 139.17 84.25 139.17 80.7045C139.17 77.1288 139.822 73.9848 141.125 71.2727C142.428 68.5455 144.231 66.4242 146.534 64.9091C148.852 63.3788 151.519 62.6136 154.534 62.6136C157.549 62.6136 160.208 63.3788 162.511 64.9091C164.814 66.4394 166.617 68.5606 167.92 71.2727C169.239 73.9848 169.898 77.1288 169.898 80.7045C169.898 84.25 169.246 87.3788 167.943 90.0909C166.64 92.7879 164.83 94.9015 162.511 96.4318C160.208 97.9621 157.549 98.7273 154.534 98.7273ZM154.534 95.0227C156.958 95.0227 159.011 94.3712 160.693 93.0682C162.375 91.7652 163.648 90.0303 164.511 87.8636C165.39 85.697 165.83 83.3106 165.83 80.7045C165.83 78.0985 165.39 75.7045 164.511 73.5227C163.648 71.3409 162.375 69.5909 160.693 68.2727C159.011 66.9545 156.958 66.2955 154.534 66.2955C152.125 66.2955 150.072 66.9545 148.375 68.2727C146.693 69.5909 145.413 71.3409 144.534 73.5227C143.67 75.7045 143.239 78.0985 143.239 80.7045C143.239 83.3106 143.67 85.697 144.534 87.8636C145.413 90.0303 146.693 91.7652 148.375 93.0682C150.057 94.3712 152.11 95.0227 154.534 95.0227ZM178.778 98V63.0909H182.71V68.4545H183.006C183.703 66.697 184.915 65.2803 186.642 64.2045C188.384 63.1136 190.354 62.5682 192.551 62.5682C192.884 62.5682 193.256 62.5758 193.665 62.5909C194.074 62.6061 194.415 62.6212 194.688 62.6364V66.75C194.506 66.7197 194.188 66.6742 193.733 66.6136C193.278 66.553 192.786 66.5227 192.256 66.5227C190.438 66.5227 188.816 66.9091 187.392 67.6818C185.983 68.4394 184.869 69.4924 184.051 70.8409C183.233 72.1894 182.824 73.7273 182.824 75.4545V98H178.778ZM214.642 98.7273C211.384 98.7273 208.566 97.9697 206.188 96.4545C203.809 94.9242 201.968 92.8106 200.665 90.1136C199.377 87.4015 198.733 84.2803 198.733 80.75C198.733 77.2348 199.377 74.1136 200.665 71.3864C201.968 68.6439 203.763 66.5 206.051 64.9545C208.354 63.3939 211.013 62.6136 214.028 62.6136C215.922 62.6136 217.748 62.9621 219.506 63.6591C221.263 64.3409 222.839 65.3939 224.233 66.8182C225.642 68.2273 226.756 70.0076 227.574 72.1591C228.392 74.2955 228.801 76.8258 228.801 79.75V81.75H201.528V78.1818H224.665C224.665 75.9394 224.21 73.9242 223.301 72.1364C222.407 70.3333 221.157 68.9091 219.551 67.8636C217.96 66.8182 216.119 66.2955 214.028 66.2955C211.816 66.2955 209.869 66.8864 208.188 68.0682C206.506 69.25 205.188 70.8106 204.233 72.75C203.294 74.6894 202.816 76.8106 202.801 79.1136V81.25C202.801 84.0227 203.278 86.447 204.233 88.5227C205.203 90.5833 206.574 92.1818 208.347 93.3182C210.119 94.4545 212.218 95.0227 214.642 95.0227C216.294 95.0227 217.741 94.7652 218.983 94.25C220.241 93.7348 221.294 93.0455 222.142 92.1818C223.006 91.303 223.657 90.3409 224.097 89.2955L227.938 90.5455C227.407 92.0152 226.536 93.3712 225.324 94.6136C224.127 95.8561 222.627 96.8561 220.824 97.6136C219.036 98.3561 216.975 98.7273 214.642 98.7273Z" fill="#082096"/>
<path d="M293.5 129C300.127 129 305.5 134.373 305.5 141C305.5 147.627 300.127 153 293.5 153H48C41.3726 153 36 147.627 36 141C36 134.373 41.3726 129 48 129H293.5Z" fill="#D6E4FF"/>
<path d="M224 169C230.627 169 236 174.373 236 181C236 187.627 230.627 193 224 193H48C41.3726 193 36 187.627 36 181C36 174.373 41.3726 169 48 169H224Z" fill="#D6E4FF"/>
<path d="M263 209C269.627 209 275 214.373 275 221C275 227.627 269.627 233 263 233H48C41.3726 233 36 227.627 36 221C36 214.373 41.3726 209 48 209H263Z" fill="#D6E4FF"/>
<path d="M331 249C337.627 249 343 254.373 343 261C343 267.627 337.627 273 331 273H48C41.3726 273 36 267.627 36 261C36 254.373 41.3726 249 48 249H331Z" fill="#D6E4FF"/>
<path d="M242 289C248.627 289 254 294.373 254 301C254 307.627 248.627 313 242 313H48C41.3726 313 36 307.627 36 301C36 294.373 41.3726 289 48 289H242Z" fill="#D6E4FF"/>
<rect x="36" y="329" width="283" height="24" rx="12" fill="#D6E4FF"/>
<path d="M52.75 346.5V334.864H57.7955C58.6818 334.864 59.4261 334.983 60.0284 335.222C60.6345 335.46 61.0909 335.797 61.3977 336.233C61.7083 336.669 61.8636 337.182 61.8636 337.773C61.8636 338.201 61.7689 338.591 61.5795 338.943C61.3939 339.295 61.1326 339.591 60.7955 339.83C60.4583 340.064 60.0644 340.227 59.6136 340.318V340.432C60.1136 340.451 60.5682 340.578 60.9773 340.812C61.3864 341.044 61.7121 341.364 61.9545 341.773C62.197 342.178 62.3182 342.655 62.3182 343.205C62.3182 343.841 62.1515 344.407 61.8182 344.903C61.4886 345.4 61.0189 345.79 60.4091 346.074C59.7992 346.358 59.072 346.5 58.2273 346.5H52.75ZM55.9091 343.977H57.3864C57.9167 343.977 58.3144 343.879 58.5795 343.682C58.8447 343.481 58.9773 343.186 58.9773 342.795C58.9773 342.523 58.9148 342.292 58.7898 342.102C58.6648 341.913 58.4867 341.769 58.2557 341.67C58.0284 341.572 57.7538 341.523 57.4318 341.523H55.9091V343.977ZM55.9091 339.568H57.2045C57.4811 339.568 57.7254 339.525 57.9375 339.438C58.1496 339.35 58.3144 339.225 58.4318 339.062C58.553 338.896 58.6136 338.693 58.6136 338.455C58.6136 338.095 58.4848 337.82 58.2273 337.631C57.9697 337.438 57.6439 337.341 57.25 337.341H55.9091V339.568ZM67.6875 346.659C66.7405 346.659 65.9299 346.472 65.2557 346.097C64.5814 345.718 64.0644 345.191 63.7045 344.517C63.3447 343.839 63.1648 343.053 63.1648 342.159C63.1648 341.265 63.3447 340.481 63.7045 339.807C64.0644 339.129 64.5814 338.602 65.2557 338.227C65.9299 337.848 66.7405 337.659 67.6875 337.659C68.6345 337.659 69.4451 337.848 70.1193 338.227C70.7936 338.602 71.3106 339.129 71.6705 339.807C72.0303 340.481 72.2102 341.265 72.2102 342.159C72.2102 343.053 72.0303 343.839 71.6705 344.517C71.3106 345.191 70.7936 345.718 70.1193 346.097C69.4451 346.472 68.6345 346.659 67.6875 346.659ZM67.7102 344.341C67.9754 344.341 68.2045 344.252 68.3977 344.074C68.5909 343.896 68.7405 343.642 68.8466 343.312C68.9527 342.983 69.0057 342.591 69.0057 342.136C69.0057 341.678 68.9527 341.286 68.8466 340.96C68.7405 340.631 68.5909 340.377 68.3977 340.199C68.2045 340.021 67.9754 339.932 67.7102 339.932C67.4299 339.932 67.1894 340.021 66.9886 340.199C66.7879 340.377 66.6345 340.631 66.5284 340.96C66.4223 341.286 66.3693 341.678 66.3693 342.136C66.3693 342.591 66.4223 342.983 66.5284 343.312C66.6345 343.642 66.7879 343.896 66.9886 344.074C67.1894 344.252 67.4299 344.341 67.7102 344.341ZM78.6875 337.773V340.045H72.9375V337.773H78.6875ZM74.0511 335.682H77.1875V343.693C77.1875 343.814 77.2083 343.917 77.25 344C77.2917 344.08 77.3561 344.14 77.4432 344.182C77.5303 344.22 77.642 344.239 77.7784 344.239C77.8731 344.239 77.983 344.227 78.108 344.205C78.2367 344.182 78.3314 344.163 78.392 344.148L78.8466 346.352C78.7064 346.394 78.5057 346.445 78.2443 346.506C77.9867 346.566 77.6799 346.606 77.3239 346.625C76.6042 346.663 76 346.589 75.5114 346.403C75.0227 346.214 74.6553 345.917 74.4091 345.511C74.1629 345.106 74.0436 344.598 74.0511 343.989V335.682ZM85.1719 337.773V340.045H79.4219V337.773H85.1719ZM80.5355 335.682H83.6719V343.693C83.6719 343.814 83.6927 343.917 83.7344 344C83.776 344.08 83.8404 344.14 83.9276 344.182C84.0147 344.22 84.1264 344.239 84.2628 344.239C84.3575 344.239 84.4673 344.227 84.5923 344.205C84.7211 344.182 84.8158 344.163 84.8764 344.148L85.331 346.352C85.1908 346.394 84.9901 346.445 84.7287 346.506C84.4711 346.566 84.1643 346.606 83.8082 346.625C83.0885 346.663 82.4844 346.589 81.9957 346.403C81.5071 346.214 81.1397 345.917 80.8935 345.511C80.6473 345.106 80.5279 344.598 80.5355 343.989V335.682ZM90.5625 346.659C89.6155 346.659 88.8049 346.472 88.1307 346.097C87.4564 345.718 86.9394 345.191 86.5795 344.517C86.2197 343.839 86.0398 343.053 86.0398 342.159C86.0398 341.265 86.2197 340.481 86.5795 339.807C86.9394 339.129 87.4564 338.602 88.1307 338.227C88.8049 337.848 89.6155 337.659 90.5625 337.659C91.5095 337.659 92.3201 337.848 92.9943 338.227C93.6686 338.602 94.1856 339.129 94.5455 339.807C94.9053 340.481 95.0852 341.265 95.0852 342.159C95.0852 343.053 94.9053 343.839 94.5455 344.517C94.1856 345.191 93.6686 345.718 92.9943 346.097C92.3201 346.472 91.5095 346.659 90.5625 346.659ZM90.5852 344.341C90.8504 344.341 91.0795 344.252 91.2727 344.074C91.4659 343.896 91.6155 343.642 91.7216 343.312C91.8277 342.983 91.8807 342.591 91.8807 342.136C91.8807 341.678 91.8277 341.286 91.7216 340.96C91.6155 340.631 91.4659 340.377 91.2727 340.199C91.0795 340.021 90.8504 339.932 90.5852 339.932C90.3049 339.932 90.0644 340.021 89.8636 340.199C89.6629 340.377 89.5095 340.631 89.4034 340.96C89.2973 341.286 89.2443 341.678 89.2443 342.136C89.2443 342.591 89.2973 342.983 89.4034 343.312C89.5095 343.642 89.6629 343.896 89.8636 344.074C90.0644 344.252 90.3049 344.341 90.5852 344.341ZM96.358 346.5V337.773H99.3352V339.432H99.4261C99.608 338.886 99.9186 338.455 100.358 338.136C100.797 337.818 101.32 337.659 101.926 337.659C102.54 337.659 103.068 337.822 103.511 338.148C103.955 338.47 104.222 338.898 104.312 339.432H104.403C104.551 338.898 104.866 338.47 105.347 338.148C105.828 337.822 106.392 337.659 107.04 337.659C107.877 337.659 108.555 337.928 109.074 338.466C109.597 339.004 109.858 339.72 109.858 340.614V346.5H106.722V341.409C106.722 341.027 106.625 340.727 106.432 340.511C106.239 340.292 105.979 340.182 105.653 340.182C105.331 340.182 105.076 340.292 104.886 340.511C104.701 340.727 104.608 341.027 104.608 341.409V346.5H101.608V341.409C101.608 341.027 101.511 340.727 101.318 340.511C101.125 340.292 100.866 340.182 100.54 340.182C100.324 340.182 100.138 340.231 99.983 340.33C99.8277 340.428 99.7064 340.57 99.6193 340.756C99.536 340.937 99.4943 341.155 99.4943 341.409V346.5H96.358ZM114.547 346.5V334.864H117.706V343.955H122.411V346.5H114.547ZM123.733 346.5V337.773H126.869V346.5H123.733ZM125.301 336.864C124.877 336.864 124.513 336.723 124.21 336.443C123.907 336.163 123.756 335.826 123.756 335.432C123.756 335.038 123.907 334.701 124.21 334.42C124.513 334.14 124.877 334 125.301 334C125.729 334 126.093 334.14 126.392 334.42C126.695 334.701 126.847 335.038 126.847 335.432C126.847 335.826 126.695 336.163 126.392 336.443C126.093 336.723 125.729 336.864 125.301 336.864ZM131.604 341.591V346.5H128.467V337.773H131.445V339.432H131.536C131.725 338.879 132.058 338.445 132.536 338.131C133.017 337.816 133.577 337.659 134.217 337.659C134.835 337.659 135.371 337.801 135.825 338.085C136.284 338.366 136.638 338.752 136.888 339.244C137.142 339.737 137.267 340.299 137.263 340.932V346.5H134.126V341.591C134.13 341.159 134.02 340.82 133.797 340.574C133.577 340.328 133.27 340.205 132.876 340.205C132.619 340.205 132.393 340.261 132.2 340.375C132.011 340.485 131.865 340.644 131.763 340.852C131.661 341.057 131.607 341.303 131.604 341.591ZM142.993 346.659C142.061 346.659 141.258 346.481 140.584 346.125C139.913 345.765 139.396 345.25 139.033 344.58C138.673 343.905 138.493 343.098 138.493 342.159C138.493 341.258 138.675 340.47 139.038 339.795C139.402 339.121 139.915 338.597 140.578 338.222C141.241 337.847 142.023 337.659 142.925 337.659C143.584 337.659 144.18 337.761 144.714 337.966C145.249 338.17 145.705 338.468 146.084 338.858C146.463 339.244 146.754 339.714 146.959 340.267C147.163 340.82 147.266 341.443 147.266 342.136V342.864H139.47V341.136H144.379C144.375 340.886 144.311 340.667 144.186 340.477C144.065 340.284 143.9 340.134 143.692 340.028C143.487 339.919 143.254 339.864 142.993 339.864C142.739 339.864 142.506 339.919 142.294 340.028C142.082 340.134 141.911 340.282 141.783 340.472C141.658 340.661 141.591 340.883 141.584 341.136V343C141.584 343.28 141.643 343.53 141.76 343.75C141.877 343.97 142.046 344.142 142.266 344.267C142.485 344.392 142.75 344.455 143.061 344.455C143.277 344.455 143.474 344.424 143.652 344.364C143.834 344.303 143.989 344.216 144.118 344.102C144.247 343.985 144.341 343.845 144.402 343.682H147.266C147.167 344.288 146.934 344.814 146.567 345.261C146.199 345.705 145.713 346.049 145.107 346.295C144.504 346.538 143.8 346.659 142.993 346.659Z" fill="#082096"/>
<path d="M379 351.546V37.4541C379 36.651 379.895 36 381 36C382.105 36 383 36.651 383 37.4541V351.546C383 352.349 382.105 353 381 353C379.895 353 379 352.349 379 351.546Z" fill="#D6E4FF"/>
<path d="M425.25 98H420.795L437.727 51.4545H442.273L459.205 98H454.75L440.159 56.9773H439.841L425.25 98ZM428.455 80.1591H451.545V83.9773H428.455V80.1591ZM480.705 63.0909V66.6136H463.545V63.0909H480.705ZM468.909 98V57.9773C468.909 56.0985 469.341 54.5151 470.205 53.2273C471.083 51.9394 472.227 50.9621 473.636 50.2955C475.045 49.6288 476.538 49.2955 478.114 49.2955C479.174 49.2955 480.053 49.3864 480.75 49.5682C481.462 49.7348 482.023 49.9015 482.432 50.0682L481.25 53.6136C480.947 53.5227 480.576 53.4167 480.136 53.2955C479.697 53.1742 479.144 53.1136 478.477 53.1136C476.72 53.1136 475.364 53.6061 474.409 54.5909C473.455 55.5758 472.977 56.9848 472.977 58.8182L472.955 98H468.909ZM502.528 63.0909V66.6136H485.869V63.0909H502.528ZM491.074 54.7273H495.142V88.8864C495.142 90.3409 495.392 91.4848 495.892 92.3182C496.392 93.1364 497.044 93.7197 497.847 94.0682C498.65 94.4015 499.506 94.5682 500.415 94.5682C500.945 94.5682 501.4 94.5379 501.778 94.4773C502.157 94.4015 502.491 94.3258 502.778 94.25L503.642 97.9091C503.248 98.0606 502.763 98.197 502.188 98.3182C501.612 98.4545 500.9 98.5227 500.051 98.5227C498.566 98.5227 497.134 98.197 495.756 97.5455C494.392 96.8939 493.271 95.9242 492.392 94.6364C491.513 93.3485 491.074 91.75 491.074 89.8409V54.7273ZM525.455 98.7273C522.197 98.7273 519.379 97.9697 517 96.4545C514.621 94.9242 512.78 92.8106 511.477 90.1136C510.189 87.4015 509.545 84.2803 509.545 80.75C509.545 77.2348 510.189 74.1136 511.477 71.3864C512.78 68.6439 514.576 66.5 516.864 64.9545C519.167 63.3939 521.826 62.6136 524.841 62.6136C526.735 62.6136 528.561 62.9621 530.318 63.6591C532.076 64.3409 533.652 65.3939 535.045 66.8182C536.455 68.2273 537.568 70.0076 538.386 72.1591C539.205 74.2955 539.614 76.8258 539.614 79.75V81.75H512.341V78.1818H535.477C535.477 75.9394 535.023 73.9242 534.114 72.1364C533.22 70.3333 531.97 68.9091 530.364 67.8636C528.773 66.8182 526.932 66.2955 524.841 66.2955C522.629 66.2955 520.682 66.8864 519 68.0682C517.318 69.25 516 70.8106 515.045 72.75C514.106 74.6894 513.629 76.8106 513.614 79.1136V81.25C513.614 84.0227 514.091 86.447 515.045 88.5227C516.015 90.5833 517.386 92.1818 519.159 93.3182C520.932 94.4545 523.03 95.0227 525.455 95.0227C527.106 95.0227 528.553 94.7652 529.795 94.25C531.053 93.7348 532.106 93.0455 532.955 92.1818C533.818 91.303 534.47 90.3409 534.909 89.2955L538.75 90.5455C538.22 92.0152 537.348 93.3712 536.136 94.6136C534.939 95.8561 533.439 96.8561 531.636 97.6136C529.848 98.3561 527.788 98.7273 525.455 98.7273ZM548.528 98V63.0909H552.46V68.4545H552.756C553.453 66.697 554.665 65.2803 556.392 64.2045C558.134 63.1136 560.104 62.5682 562.301 62.5682C562.634 62.5682 563.006 62.5758 563.415 62.5909C563.824 62.6061 564.165 62.6212 564.438 62.6364V66.75C564.256 66.7197 563.938 66.6742 563.483 66.6136C563.028 66.553 562.536 66.5227 562.006 66.5227C560.188 66.5227 558.566 66.9091 557.142 67.6818C555.733 68.4394 554.619 69.4924 553.801 70.8409C552.983 72.1894 552.574 73.7273 552.574 75.4545V98H548.528Z" fill="#082096"/>
<rect x="419" y="129" width="283" height="24" rx="12" fill="#D6E4FF"/>
<path d="M435.75 146.5V134.864H440.795C441.682 134.864 442.426 134.983 443.028 135.222C443.634 135.46 444.091 135.797 444.398 136.233C444.708 136.669 444.864 137.182 444.864 137.773C444.864 138.201 444.769 138.591 444.58 138.943C444.394 139.295 444.133 139.591 443.795 139.83C443.458 140.064 443.064 140.227 442.614 140.318V140.432C443.114 140.451 443.568 140.578 443.977 140.812C444.386 141.044 444.712 141.364 444.955 141.773C445.197 142.178 445.318 142.655 445.318 143.205C445.318 143.841 445.152 144.407 444.818 144.903C444.489 145.4 444.019 145.79 443.409 146.074C442.799 146.358 442.072 146.5 441.227 146.5H435.75ZM438.909 143.977H440.386C440.917 143.977 441.314 143.879 441.58 143.682C441.845 143.481 441.977 143.186 441.977 142.795C441.977 142.523 441.915 142.292 441.79 142.102C441.665 141.913 441.487 141.769 441.256 141.67C441.028 141.572 440.754 141.523 440.432 141.523H438.909V143.977ZM438.909 139.568H440.205C440.481 139.568 440.725 139.525 440.938 139.438C441.15 139.35 441.314 139.225 441.432 139.062C441.553 138.896 441.614 138.693 441.614 138.455C441.614 138.095 441.485 137.82 441.227 137.631C440.97 137.438 440.644 137.341 440.25 137.341H438.909V139.568ZM450.688 146.659C449.741 146.659 448.93 146.472 448.256 146.097C447.581 145.718 447.064 145.191 446.705 144.517C446.345 143.839 446.165 143.053 446.165 142.159C446.165 141.265 446.345 140.481 446.705 139.807C447.064 139.129 447.581 138.602 448.256 138.227C448.93 137.848 449.741 137.659 450.688 137.659C451.634 137.659 452.445 137.848 453.119 138.227C453.794 138.602 454.311 139.129 454.67 139.807C455.03 140.481 455.21 141.265 455.21 142.159C455.21 143.053 455.03 143.839 454.67 144.517C454.311 145.191 453.794 145.718 453.119 146.097C452.445 146.472 451.634 146.659 450.688 146.659ZM450.71 144.341C450.975 144.341 451.205 144.252 451.398 144.074C451.591 143.896 451.741 143.642 451.847 143.312C451.953 142.983 452.006 142.591 452.006 142.136C452.006 141.678 451.953 141.286 451.847 140.96C451.741 140.631 451.591 140.377 451.398 140.199C451.205 140.021 450.975 139.932 450.71 139.932C450.43 139.932 450.189 140.021 449.989 140.199C449.788 140.377 449.634 140.631 449.528 140.96C449.422 141.286 449.369 141.678 449.369 142.136C449.369 142.591 449.422 142.983 449.528 143.312C449.634 143.642 449.788 143.896 449.989 144.074C450.189 144.252 450.43 144.341 450.71 144.341ZM461.688 137.773V140.045H455.938V137.773H461.688ZM457.051 135.682H460.188V143.693C460.188 143.814 460.208 143.917 460.25 144C460.292 144.08 460.356 144.14 460.443 144.182C460.53 144.22 460.642 144.239 460.778 144.239C460.873 144.239 460.983 144.227 461.108 144.205C461.237 144.182 461.331 144.163 461.392 144.148L461.847 146.352C461.706 146.394 461.506 146.445 461.244 146.506C460.987 146.566 460.68 146.606 460.324 146.625C459.604 146.663 459 146.589 458.511 146.403C458.023 146.214 457.655 145.917 457.409 145.511C457.163 145.106 457.044 144.598 457.051 143.989V135.682ZM468.172 137.773V140.045H462.422V137.773H468.172ZM463.536 135.682H466.672V143.693C466.672 143.814 466.693 143.917 466.734 144C466.776 144.08 466.84 144.14 466.928 144.182C467.015 144.22 467.126 144.239 467.263 144.239C467.357 144.239 467.467 144.227 467.592 144.205C467.721 144.182 467.816 144.163 467.876 144.148L468.331 146.352C468.191 146.394 467.99 146.445 467.729 146.506C467.471 146.566 467.164 146.606 466.808 146.625C466.089 146.663 465.484 146.589 464.996 146.403C464.507 146.214 464.14 145.917 463.893 145.511C463.647 145.106 463.528 144.598 463.536 143.989V135.682ZM473.562 146.659C472.616 146.659 471.805 146.472 471.131 146.097C470.456 145.718 469.939 145.191 469.58 144.517C469.22 143.839 469.04 143.053 469.04 142.159C469.04 141.265 469.22 140.481 469.58 139.807C469.939 139.129 470.456 138.602 471.131 138.227C471.805 137.848 472.616 137.659 473.562 137.659C474.509 137.659 475.32 137.848 475.994 138.227C476.669 138.602 477.186 139.129 477.545 139.807C477.905 140.481 478.085 141.265 478.085 142.159C478.085 143.053 477.905 143.839 477.545 144.517C477.186 145.191 476.669 145.718 475.994 146.097C475.32 146.472 474.509 146.659 473.562 146.659ZM473.585 144.341C473.85 144.341 474.08 144.252 474.273 144.074C474.466 143.896 474.616 143.642 474.722 143.312C474.828 142.983 474.881 142.591 474.881 142.136C474.881 141.678 474.828 141.286 474.722 140.96C474.616 140.631 474.466 140.377 474.273 140.199C474.08 140.021 473.85 139.932 473.585 139.932C473.305 139.932 473.064 140.021 472.864 140.199C472.663 140.377 472.509 140.631 472.403 140.96C472.297 141.286 472.244 141.678 472.244 142.136C472.244 142.591 472.297 142.983 472.403 143.312C472.509 143.642 472.663 143.896 472.864 144.074C473.064 144.252 473.305 144.341 473.585 144.341ZM479.358 146.5V137.773H482.335V139.432H482.426C482.608 138.886 482.919 138.455 483.358 138.136C483.797 137.818 484.32 137.659 484.926 137.659C485.54 137.659 486.068 137.822 486.511 138.148C486.955 138.47 487.222 138.898 487.312 139.432H487.403C487.551 138.898 487.866 138.47 488.347 138.148C488.828 137.822 489.392 137.659 490.04 137.659C490.877 137.659 491.555 137.928 492.074 138.466C492.597 139.004 492.858 139.72 492.858 140.614V146.5H489.722V141.409C489.722 141.027 489.625 140.727 489.432 140.511C489.239 140.292 488.979 140.182 488.653 140.182C488.331 140.182 488.076 140.292 487.886 140.511C487.701 140.727 487.608 141.027 487.608 141.409V146.5H484.608V141.409C484.608 141.027 484.511 140.727 484.318 140.511C484.125 140.292 483.866 140.182 483.54 140.182C483.324 140.182 483.138 140.231 482.983 140.33C482.828 140.428 482.706 140.57 482.619 140.756C482.536 140.937 482.494 141.155 482.494 141.409V146.5H479.358ZM497.547 146.5V134.864H500.706V143.955H505.411V146.5H497.547ZM506.733 146.5V137.773H509.869V146.5H506.733ZM508.301 136.864C507.877 136.864 507.513 136.723 507.21 136.443C506.907 136.163 506.756 135.826 506.756 135.432C506.756 135.038 506.907 134.701 507.21 134.42C507.513 134.14 507.877 134 508.301 134C508.729 134 509.093 134.14 509.392 134.42C509.695 134.701 509.847 135.038 509.847 135.432C509.847 135.826 509.695 136.163 509.392 136.443C509.093 136.723 508.729 136.864 508.301 136.864ZM514.604 141.591V146.5H511.467V137.773H514.445V139.432H514.536C514.725 138.879 515.058 138.445 515.536 138.131C516.017 137.816 516.577 137.659 517.217 137.659C517.835 137.659 518.371 137.801 518.825 138.085C519.284 138.366 519.638 138.752 519.888 139.244C520.142 139.737 520.267 140.299 520.263 140.932V146.5H517.126V141.591C517.13 141.159 517.02 140.82 516.797 140.574C516.577 140.328 516.27 140.205 515.876 140.205C515.619 140.205 515.393 140.261 515.2 140.375C515.011 140.485 514.865 140.644 514.763 140.852C514.661 141.057 514.607 141.303 514.604 141.591ZM525.993 146.659C525.061 146.659 524.258 146.481 523.584 146.125C522.913 145.765 522.396 145.25 522.033 144.58C521.673 143.905 521.493 143.098 521.493 142.159C521.493 141.258 521.675 140.47 522.038 139.795C522.402 139.121 522.915 138.597 523.578 138.222C524.241 137.847 525.023 137.659 525.925 137.659C526.584 137.659 527.18 137.761 527.714 137.966C528.249 138.17 528.705 138.468 529.084 138.858C529.463 139.244 529.754 139.714 529.959 140.267C530.163 140.82 530.266 141.443 530.266 142.136V142.864H522.47V141.136H527.379C527.375 140.886 527.311 140.667 527.186 140.477C527.065 140.284 526.9 140.134 526.692 140.028C526.487 139.919 526.254 139.864 525.993 139.864C525.739 139.864 525.506 139.919 525.294 140.028C525.082 140.134 524.911 140.282 524.783 140.472C524.658 140.661 524.591 140.883 524.584 141.136V143C524.584 143.28 524.643 143.53 524.76 143.75C524.877 143.97 525.046 144.142 525.266 144.267C525.485 144.392 525.75 144.455 526.061 144.455C526.277 144.455 526.474 144.424 526.652 144.364C526.834 144.303 526.989 144.216 527.118 144.102C527.247 143.985 527.341 143.845 527.402 143.682H530.266C530.167 144.288 529.934 144.814 529.567 145.261C529.199 145.705 528.713 146.049 528.107 146.295C527.504 146.538 526.8 146.659 525.993 146.659Z" fill="#082096"/>
<path d="M676.5 169C683.127 169 688.5 174.373 688.5 181C688.5 187.627 683.127 193 676.5 193H431C424.373 193 419 187.627 419 181C419 174.373 424.373 169 431 169H676.5Z" fill="#D6E4FF"/>
<path d="M607 209C613.627 209 619 214.373 619 221C619 227.627 613.627 233 607 233H431C424.373 233 419 227.627 419 221C419 214.373 424.373 209 431 209H607Z" fill="#D6E4FF"/>
<path d="M646 249C652.627 249 658 254.373 658 261C658 267.627 652.627 273 646 273H431C424.373 273 419 267.627 419 261C419 254.373 424.373 249 431 249H646Z" fill="#D6E4FF"/>
<path d="M714 289C720.627 289 726 294.373 726 301C726 307.627 720.627 313 714 313H431C424.373 313 419 307.627 419 301C419 294.373 424.373 289 431 289H714Z" fill="#D6E4FF"/>
<path d="M625 329C631.627 329 637 334.373 637 341C637 347.627 631.627 353 625 353H431C424.373 353 419 347.627 419 341C419 334.373 424.373 329 431 329H625Z" fill="#D6E4FF"/>
</svg>
