<svg width="2240" height="2625" viewBox="0 0 2240 2625" fill="none" xmlns="http://www.w3.org/2000/svg">
<g clip-path="url(#clip0_603_2295)">
<rect x="59" y="62" width="2112" height="2497" rx="128" fill="#D6E4FF"/>
<rect x="27" y="30" width="2176" height="2561" rx="160" stroke="#2A3751" stroke-opacity="0.64" stroke-width="64"/>
<mask id="path-3-outside-1_603_2295" maskUnits="userSpaceOnUse" x="776.675" y="2185.68" width="493" height="271" fill="black">
<rect fill="white" x="776.675" y="2185.68" width="493" height="271"/>
<path fill-rule="evenodd" clip-rule="evenodd" d="M808.97 2200.21C823.865 2195.13 840.064 2203.08 845.152 2217.97C847.706 2225.45 846.976 2233.25 843.732 2239.81C858.837 2252.23 877.046 2276.79 892.45 2307.28C899.425 2321.09 905.081 2334.64 909.278 2347.14C922.056 2339.01 939.155 2332.27 959.138 2327.52C963.802 2286.64 992.977 2255.22 1028.06 2255.45C1062.85 2255.68 1091.42 2286.94 1095.93 2327.39C1112.34 2331.24 1126.82 2336.45 1138.6 2342.66C1142.62 2331.4 1147.78 2319.4 1153.96 2307.2C1169.42 2276.73 1187.66 2252.19 1202.79 2239.8C1199.55 2233.23 1198.83 2225.43 1201.4 2217.96C1206.51 2203.07 1222.72 2195.14 1237.61 2200.25C1252.5 2205.37 1260.42 2221.58 1255.31 2236.46C1251.76 2246.81 1242.84 2253.8 1232.74 2255.38C1231.58 2274.9 1222.58 2303.94 1207.23 2334.21C1195.56 2357.21 1182.3 2376.84 1169.99 2390.41C1160.74 2420.92 1100.61 2444.47 1027.81 2444.47C969.835 2444.47 919.892 2429.53 897.288 2408.04C880.877 2399.75 857.927 2371.39 839.146 2334.21C823.841 2303.92 814.888 2274.87 813.759 2255.34C803.655 2253.75 794.75 2246.75 791.213 2236.4C786.125 2221.5 794.075 2205.3 808.97 2200.21Z"/>
</mask>
<path fill-rule="evenodd" clip-rule="evenodd" d="M808.97 2200.21C823.865 2195.13 840.064 2203.08 845.152 2217.97C847.706 2225.45 846.976 2233.25 843.732 2239.81C858.837 2252.23 877.046 2276.79 892.45 2307.28C899.425 2321.09 905.081 2334.64 909.278 2347.14C922.056 2339.01 939.155 2332.27 959.138 2327.52C963.802 2286.64 992.977 2255.22 1028.06 2255.45C1062.85 2255.68 1091.42 2286.94 1095.93 2327.39C1112.34 2331.24 1126.82 2336.45 1138.6 2342.66C1142.62 2331.4 1147.78 2319.4 1153.96 2307.2C1169.42 2276.73 1187.66 2252.19 1202.79 2239.8C1199.55 2233.23 1198.83 2225.43 1201.4 2217.96C1206.51 2203.07 1222.72 2195.14 1237.61 2200.25C1252.5 2205.37 1260.42 2221.58 1255.31 2236.46C1251.76 2246.81 1242.84 2253.8 1232.74 2255.38C1231.58 2274.9 1222.58 2303.94 1207.23 2334.21C1195.56 2357.21 1182.3 2376.84 1169.99 2390.41C1160.74 2420.92 1100.61 2444.47 1027.81 2444.47C969.835 2444.47 919.892 2429.53 897.288 2408.04C880.877 2399.75 857.927 2371.39 839.146 2334.21C823.841 2303.92 814.888 2274.87 813.759 2255.34C803.655 2253.75 794.75 2246.75 791.213 2236.4C786.125 2221.5 794.075 2205.3 808.97 2200.21Z" fill="#FFE89E"/>
<path d="M845.152 2217.97L856.508 2214.09L856.508 2214.09L845.152 2217.97ZM808.97 2200.21L805.09 2188.86L808.97 2200.21ZM843.732 2239.81L832.974 2234.49L828.754 2243.03L836.111 2249.08L843.732 2239.81ZM892.45 2307.28L881.74 2312.69L881.74 2312.69L892.45 2307.28ZM909.278 2347.14L897.902 2350.96L902.781 2365.5L915.719 2357.27L909.278 2347.14ZM959.138 2327.52L961.908 2339.2L970.106 2337.25L971.06 2328.88L959.138 2327.52ZM1028.06 2255.45L1027.98 2267.45L1027.98 2267.45L1028.06 2255.45ZM1095.93 2327.39L1084 2328.72L1084.94 2337.14L1093.18 2339.07L1095.93 2327.39ZM1138.6 2342.66L1133 2353.27L1145.24 2359.73L1149.89 2346.7L1138.6 2342.66ZM1153.96 2307.2L1143.26 2301.77L1143.26 2301.77L1153.96 2307.2ZM1202.79 2239.8L1210.39 2249.08L1217.76 2243.04L1213.55 2234.5L1202.79 2239.8ZM1201.4 2217.96L1212.75 2221.85L1212.75 2221.85L1201.4 2217.96ZM1255.31 2236.46L1266.66 2240.36L1266.66 2240.36L1255.31 2236.46ZM1232.74 2255.38L1230.88 2243.52L1221.33 2245.02L1220.76 2254.67L1232.74 2255.38ZM1207.23 2334.21L1196.52 2328.78L1196.52 2328.78L1207.23 2334.21ZM1169.99 2390.41L1161.1 2382.34L1159.29 2384.34L1158.51 2386.93L1169.99 2390.41ZM897.288 2408.04L905.558 2399.34L904.275 2398.12L902.695 2397.32L897.288 2408.04ZM839.146 2334.21L828.435 2339.63L839.146 2334.21ZM813.759 2255.34L825.739 2254.65L825.181 2245L815.631 2243.49L813.759 2255.34ZM791.213 2236.4L802.568 2232.52L791.213 2236.4ZM856.508 2214.09C849.277 2192.92 826.257 2181.63 805.09 2188.86L812.849 2211.57C821.472 2208.62 830.851 2213.23 833.797 2221.85L856.508 2214.09ZM854.49 2245.13C859.091 2235.82 860.136 2224.71 856.508 2214.09L833.797 2221.85C835.276 2226.18 834.861 2230.68 832.974 2234.49L854.49 2245.13ZM836.111 2249.08C849.408 2260.01 866.706 2282.94 881.74 2312.69L903.161 2301.87C887.387 2270.65 868.267 2244.45 851.352 2230.54L836.111 2249.08ZM881.74 2312.69C888.474 2326.02 893.901 2339.04 897.902 2350.96L920.654 2343.32C916.26 2330.23 910.376 2316.15 903.161 2301.87L881.74 2312.69ZM915.719 2357.27C927.056 2350.05 942.808 2343.73 961.908 2339.2L956.367 2315.85C935.501 2320.8 917.057 2327.97 902.837 2337.02L915.719 2357.27ZM971.06 2328.88C975.251 2292.15 1000.8 2267.27 1027.98 2267.45L1028.14 2243.45C985.15 2243.17 952.352 2281.13 947.215 2326.16L971.06 2328.88ZM1027.98 2267.45C1054.94 2267.62 1079.96 2292.4 1084 2328.72L1107.85 2326.06C1102.89 2281.48 1070.76 2243.73 1028.14 2243.45L1027.98 2267.45ZM1093.18 2339.07C1108.84 2342.75 1122.32 2347.64 1133 2353.27L1144.19 2332.04C1131.33 2325.26 1115.84 2319.74 1098.67 2315.71L1093.18 2339.07ZM1149.89 2346.7C1153.74 2335.94 1158.69 2324.4 1164.67 2312.62L1143.26 2301.77C1136.86 2314.39 1131.5 2326.86 1127.3 2338.61L1149.89 2346.7ZM1164.67 2312.62C1179.75 2282.89 1197.08 2259.99 1210.39 2249.08L1195.18 2230.52C1178.24 2244.4 1159.08 2270.57 1143.26 2301.77L1164.67 2312.62ZM1213.55 2234.5C1211.67 2230.68 1211.26 2226.18 1212.75 2221.85L1190.05 2214.06C1186.41 2224.67 1187.43 2235.78 1192.02 2245.1L1213.55 2234.5ZM1212.75 2221.85C1215.71 2213.23 1225.09 2208.65 1233.71 2211.6L1241.51 2188.91C1220.35 2181.64 1197.31 2192.9 1190.05 2214.06L1212.75 2221.85ZM1233.71 2211.6C1242.33 2214.56 1246.92 2223.95 1243.96 2232.57L1266.66 2240.36C1273.92 2219.21 1262.66 2196.17 1241.51 2188.91L1233.71 2211.6ZM1243.96 2232.57C1241.91 2238.54 1236.77 2242.6 1230.88 2243.52L1234.59 2267.23C1248.92 2264.99 1261.61 2255.08 1266.66 2240.36L1243.96 2232.57ZM1220.76 2254.67C1219.73 2271.89 1211.5 2299.25 1196.52 2328.78L1217.93 2339.64C1233.65 2308.63 1243.42 2277.91 1244.71 2256.09L1220.76 2254.67ZM1196.52 2328.78C1185.22 2351.07 1172.53 2369.74 1161.1 2382.34L1178.88 2398.47C1192.06 2383.93 1205.9 2363.36 1217.93 2339.64L1196.52 2328.78ZM1158.51 2386.93C1155.59 2396.55 1143 2408.25 1118.43 2417.68C1094.77 2426.76 1063.03 2432.47 1027.81 2432.47V2456.47C1065.39 2456.47 1100.12 2450.41 1127.03 2440.08C1153.05 2430.1 1175.14 2414.77 1181.48 2393.89L1158.51 2386.93ZM1027.81 2432.47C999.807 2432.47 973.944 2428.86 952.571 2422.77C930.978 2416.63 914.903 2408.23 905.558 2399.34L889.019 2416.73C902.278 2429.34 922.476 2439.16 946 2445.86C969.744 2452.62 997.842 2456.47 1027.81 2456.47V2432.47ZM902.695 2397.32C896.836 2394.37 888.305 2386.85 878.505 2374.5C868.944 2362.45 858.935 2346.77 849.857 2328.8L828.435 2339.63C838.138 2358.83 848.994 2375.92 859.706 2389.42C870.18 2402.62 881.329 2413.42 891.882 2418.75L902.695 2397.32ZM849.857 2328.8C834.924 2299.25 826.735 2271.87 825.739 2254.65L801.779 2256.04C803.041 2277.86 812.758 2308.59 828.435 2339.63L849.857 2328.8ZM779.857 2240.28C784.888 2255 797.562 2264.93 811.887 2267.2L815.631 2243.49C809.748 2242.56 804.611 2238.5 802.568 2232.52L779.857 2240.28ZM805.09 2188.86C783.924 2196.09 772.626 2219.11 779.857 2240.28L802.568 2232.52C799.623 2223.89 804.225 2214.51 812.849 2211.57L805.09 2188.86Z" fill="#2A3751" fill-opacity="0.32" mask="url(#path-3-outside-1_603_2295)"/>
<ellipse cx="1027.81" cy="2382.2" rx="143.411" ry="62.2689" transform="rotate(180 1027.81 2382.2)" fill="#7E0707"/>
<ellipse cx="1027.52" cy="2338.8" rx="69.028" ry="83.3545" transform="rotate(-179.627 1027.52 2338.8)" fill="#FFE89E"/>
<ellipse cx="1027.63" cy="2352" rx="71.1735" ry="70.8855" transform="rotate(-179.627 1027.63 2352)" fill="#604220"/>
<ellipse cx="1180.59" cy="2320.7" rx="99.4105" ry="29.8606" transform="rotate(-63.1079 1180.59 2320.7)" fill="#7E0707"/>
<circle cx="1228.35" cy="2227.21" r="28.5" transform="rotate(-161.051 1228.35 2227.21)" fill="#FFE89E"/>
<ellipse rx="99.4105" ry="29.8606" transform="matrix(-0.450937 -0.892556 -0.892556 0.450937 865.798 2320.75)" fill="#7E0707"/>
<circle r="28.5" transform="matrix(0.946309 -0.323264 -0.323264 -0.946309 818.183 2227.18)" fill="#FFE89E"/>
<circle cx="809.5" cy="641.5" r="344.5" fill="#DAE2F1" stroke="#44506A" stroke-width="48"/>
<path d="M1030 2196.5L1030 1198.91C1030 1182.56 1025.95 1166.46 1018.21 1152.06L943.5 1013" stroke="#2A3751" stroke-width="24" stroke-linecap="round"/>
<path d="M1012 1030L942.265 1012.65L928 1082.5" stroke="#2A3751" stroke-width="24" stroke-linecap="round"/>
<circle cx="1111.5" cy="2221.5" r="26.5" fill="white" stroke="#9FADC7" stroke-width="12"/>
<path d="M1216 2126.5C1216 2149.19 1196.76 2168 1172.5 2168C1148.24 2168 1129 2149.19 1129 2126.5C1129 2103.81 1148.24 2085 1172.5 2085C1196.76 2085 1216 2103.81 1216 2126.5Z" fill="white" stroke="#9FADC7" stroke-width="12"/>
<mask id="path-17-inside-2_603_2295" fill="white">
<path fill-rule="evenodd" clip-rule="evenodd" d="M1217 1944.42C1217 1968.76 1228.56 1990.41 1246.49 2004.16C1238.13 2018.95 1233.33 2036.22 1233.33 2054.67C1233.33 2109.43 1275.64 2153.83 1327.83 2153.83C1341.93 2153.83 1355.31 2150.59 1367.33 2144.78C1382.41 2162.46 1404.86 2173.67 1429.92 2173.67C1456.36 2173.67 1479.9 2161.18 1494.94 2141.79C1506.5 2147.99 1519.72 2151.5 1533.75 2151.5C1579.18 2151.5 1616 2114.68 1616 2069.25C1616 2051.4 1610.31 2034.87 1600.65 2021.39C1610.19 2010.84 1616 1996.85 1616 1981.5C1616 1959.77 1604.35 1940.75 1586.95 1930.37C1588.93 1924.44 1590 1918.1 1590 1911.5C1590 1878.64 1563.36 1852 1530.5 1852C1522.06 1852 1514.02 1853.76 1506.75 1856.93C1496.62 1842.46 1479.83 1833 1460.83 1833C1444.42 1833 1429.66 1840.06 1419.42 1851.31C1409.17 1840.06 1394.41 1833 1378 1833C1351.56 1833 1329.41 1851.32 1323.53 1875.95C1314 1871.6 1303.41 1869.17 1292.25 1869.17C1250.69 1869.17 1217 1902.86 1217 1944.42Z"/>
</mask>
<path fill-rule="evenodd" clip-rule="evenodd" d="M1217 1944.42C1217 1968.76 1228.56 1990.41 1246.49 2004.16C1238.13 2018.95 1233.33 2036.22 1233.33 2054.67C1233.33 2109.43 1275.64 2153.83 1327.83 2153.83C1341.93 2153.83 1355.31 2150.59 1367.33 2144.78C1382.41 2162.46 1404.86 2173.67 1429.92 2173.67C1456.36 2173.67 1479.9 2161.18 1494.94 2141.79C1506.5 2147.99 1519.72 2151.5 1533.75 2151.5C1579.18 2151.5 1616 2114.68 1616 2069.25C1616 2051.4 1610.31 2034.87 1600.65 2021.39C1610.19 2010.84 1616 1996.85 1616 1981.5C1616 1959.77 1604.35 1940.75 1586.95 1930.37C1588.93 1924.44 1590 1918.1 1590 1911.5C1590 1878.64 1563.36 1852 1530.5 1852C1522.06 1852 1514.02 1853.76 1506.75 1856.93C1496.62 1842.46 1479.83 1833 1460.83 1833C1444.42 1833 1429.66 1840.06 1419.42 1851.31C1409.17 1840.06 1394.41 1833 1378 1833C1351.56 1833 1329.41 1851.32 1323.53 1875.95C1314 1871.6 1303.41 1869.17 1292.25 1869.17C1250.69 1869.17 1217 1902.86 1217 1944.42Z" fill="white"/>
<path d="M1246.49 2004.16L1256.94 2010.06L1262.07 2000.99L1253.79 1994.64L1246.49 2004.16ZM1367.33 2144.78L1376.46 2136.99L1370.44 2129.95L1362.11 2133.98L1367.33 2144.78ZM1494.94 2141.79L1500.61 2131.21L1491.68 2126.42L1485.46 2134.43L1494.94 2141.79ZM1600.65 2021.39L1591.75 2013.34L1585.26 2020.52L1590.9 2028.38L1600.65 2021.39ZM1586.95 1930.37L1575.56 1926.57L1572.5 1935.73L1580.8 1940.67L1586.95 1930.37ZM1506.75 1856.93L1496.92 1863.81L1502.54 1871.85L1511.54 1867.93L1506.75 1856.93ZM1419.42 1851.31L1410.54 1859.39L1419.42 1869.13L1428.29 1859.39L1419.42 1851.31ZM1323.53 1875.95L1318.53 1886.87L1331.81 1892.94L1335.2 1878.74L1323.53 1875.95ZM1253.79 1994.64C1238.7 1983.06 1229 1964.87 1229 1944.42H1205C1205 1972.65 1218.42 1997.75 1239.19 2013.68L1253.79 1994.64ZM1245.33 2054.67C1245.33 2038.32 1249.58 2023.08 1256.94 2010.06L1236.04 1998.26C1226.68 2014.82 1221.33 2034.12 1221.33 2054.67H1245.33ZM1327.83 2141.83C1282.81 2141.83 1245.33 2103.36 1245.33 2054.67H1221.33C1221.33 2115.51 1268.48 2165.83 1327.83 2165.83V2141.83ZM1362.11 2133.98C1351.67 2139.03 1340.07 2141.83 1327.83 2141.83V2165.83C1343.79 2165.83 1358.95 2162.16 1372.55 2155.59L1362.11 2133.98ZM1429.92 2161.67C1408.52 2161.67 1389.36 2152.11 1376.46 2136.99L1358.2 2152.57C1375.47 2172.81 1401.2 2185.67 1429.92 2185.67V2161.67ZM1485.46 2134.43C1472.59 2151.02 1452.5 2161.67 1429.92 2161.67V2185.67C1460.23 2185.67 1487.2 2171.34 1504.42 2149.14L1485.46 2134.43ZM1533.75 2139.5C1521.74 2139.5 1510.47 2136.5 1500.61 2131.21L1489.27 2152.36C1502.53 2159.47 1517.69 2163.5 1533.75 2163.5V2139.5ZM1604 2069.25C1604 2108.05 1572.55 2139.5 1533.75 2139.5V2163.5C1585.8 2163.5 1628 2121.3 1628 2069.25H1604ZM1590.9 2028.38C1599.15 2039.89 1604 2053.99 1604 2069.25H1628C1628 2048.81 1621.48 2029.85 1610.4 2014.4L1590.9 2028.38ZM1604 1981.5C1604 1993.76 1599.37 2004.91 1591.75 2013.34L1609.55 2029.44C1621.01 2016.76 1628 1999.93 1628 1981.5H1604ZM1580.8 1940.67C1594.72 1948.98 1604 1964.16 1604 1981.5H1628C1628 1955.37 1613.97 1932.52 1593.1 1920.06L1580.8 1940.67ZM1578 1911.5C1578 1916.79 1577.14 1921.85 1575.56 1926.57L1598.33 1934.17C1600.71 1927.03 1602 1919.4 1602 1911.5H1578ZM1530.5 1864C1556.73 1864 1578 1885.27 1578 1911.5H1602C1602 1872.01 1569.99 1840 1530.5 1840V1864ZM1511.54 1867.93C1517.33 1865.41 1523.74 1864 1530.5 1864V1840C1520.38 1840 1510.71 1842.11 1501.95 1845.93L1511.54 1867.93ZM1460.83 1845C1475.75 1845 1488.94 1852.41 1496.92 1863.81L1516.58 1850.05C1504.31 1832.51 1483.91 1821 1460.83 1821V1845ZM1428.29 1859.39C1436.35 1850.53 1447.94 1845 1460.83 1845V1821C1440.9 1821 1422.96 1829.59 1410.54 1843.23L1428.29 1859.39ZM1378 1845C1390.89 1845 1402.48 1850.53 1410.54 1859.39L1428.29 1843.23C1415.87 1829.59 1397.93 1821 1378 1821V1845ZM1335.2 1878.74C1339.82 1859.38 1357.24 1845 1378 1845V1821C1345.88 1821 1318.99 1843.25 1311.86 1873.17L1335.2 1878.74ZM1292.25 1881.17C1301.65 1881.17 1310.54 1883.21 1318.53 1886.87L1328.52 1865.04C1317.46 1859.98 1305.17 1857.17 1292.25 1857.17V1881.17ZM1229 1944.42C1229 1909.48 1257.32 1881.17 1292.25 1881.17V1857.17C1244.06 1857.17 1205 1896.23 1205 1944.42H1229Z" fill="#9FADC7" mask="url(#path-17-inside-2_603_2295)"/>
<circle cx="809.5" cy="641.5" r="236.5" fill="#604220" stroke="white" stroke-width="32"/>
<mask id="mask0_603_2295" style="mask-type:alpha" maskUnits="userSpaceOnUse" x="634" y="464" width="353" height="353">
<path d="M986.441 644.744C986.472 643.404 986.487 642.061 986.487 640.713C986.487 543.401 907.599 464.514 810.287 464.514C712.975 464.514 634.088 543.401 634.088 640.713C634.088 738.026 712.975 816.913 810.287 816.913C860.255 816.913 905.366 796.113 937.432 762.699L819.476 644.744H986.441L986.441 644.744Z" fill="#B35E00"/>
</mask>
<g mask="url(#mask0_603_2295)">
<circle cx="810.287" cy="640.713" r="176.199" fill="#B35E00"/>
<path d="M973.913 640.713C973.913 731.259 900.511 804.661 809.965 804.661C719.419 804.661 646.018 731.259 646.018 640.713C646.018 550.168 719.419 476.766 809.965 476.766C900.511 476.766 973.913 550.168 973.913 640.713Z" fill="#FFD86B"/>
<path fill-rule="evenodd" clip-rule="evenodd" d="M809.965 796.923C896.237 796.923 966.175 726.986 966.175 640.713C966.175 554.441 896.237 484.504 809.965 484.504C723.693 484.504 653.756 554.441 653.756 640.713C653.756 726.986 723.693 796.923 809.965 796.923ZM809.965 804.661C900.511 804.661 973.913 731.259 973.913 640.713C973.913 550.168 900.511 476.766 809.965 476.766C719.419 476.766 646.018 550.168 646.018 640.713C646.018 731.259 719.419 804.661 809.965 804.661Z" fill="#604220"/>
<path fill-rule="evenodd" clip-rule="evenodd" d="M813.997 464.552V816.875C812.764 816.9 811.528 816.913 810.289 816.913C808.942 816.913 807.598 816.898 806.259 816.868V464.559C807.598 464.529 808.942 464.514 810.289 464.514C811.528 464.514 812.764 464.527 813.997 464.552Z" fill="#604220"/>
<path fill-rule="evenodd" clip-rule="evenodd" d="M688.301 513.568L937.431 762.699C935.645 764.56 933.818 766.382 931.953 768.164L682.836 519.047C684.617 517.181 686.439 515.354 688.301 513.568Z" fill="#604220"/>
<path fill-rule="evenodd" clip-rule="evenodd" d="M986.441 644.743C986.472 643.403 986.487 642.06 986.487 640.713C986.487 639.474 986.474 638.238 986.448 637.005H634.126C634.101 638.238 634.088 639.474 634.088 640.713C634.088 642.06 634.103 643.403 634.133 644.743H986.441Z" fill="#604220"/>
<path fill-rule="evenodd" clip-rule="evenodd" d="M1022.6 644.743H597.654V637.005H1022.6V644.743Z" fill="#604220"/>
<path fill-rule="evenodd" clip-rule="evenodd" d="M937.739 519.048L688.622 768.165C686.756 766.383 684.93 764.561 683.144 762.7L932.274 513.569C934.135 515.355 935.957 517.182 937.739 519.048Z" fill="#604220"/>
<circle cx="772.079" cy="524.483" r="22.8914" fill="#DC2918"/>
<circle cx="846.879" cy="524.483" r="22.8914" fill="#DC2918"/>
<circle cx="699.859" cy="578.004" r="22.8914" fill="#DC2918"/>
<circle cx="747.094" cy="619.112" r="11.7681" fill="#DC2918"/>
<circle cx="707.114" cy="619.112" r="11.7681" fill="#DC2918"/>
<circle cx="887.505" cy="608.956" r="22.8914" fill="#DC2918"/>
<circle cx="941.832" cy="640.069" r="14.9923" fill="#DC2918"/>
<circle cx="931.836" cy="582.679" r="14.9923" fill="#DC2918"/>
<circle cx="839.302" cy="579.455" r="14.3474" fill="#DC2918"/>
<circle cx="777.721" cy="582.034" r="14.3474" fill="#DC2918"/>
<circle cx="832.532" cy="704.229" r="14.3474" fill="#DC2918"/>
<circle cx="780.947" cy="771.291" r="14.3474" fill="#DC2918"/>
<circle cx="747.416" cy="670.698" r="14.3474" fill="#DC2918"/>
<circle cx="867.513" cy="740.823" r="22.8914" fill="#DC2918"/>
<circle cx="780.14" cy="713.741" r="22.8914" fill="#DC2918"/>
<circle cx="719.041" cy="700.495" r="7.86604" fill="#DC2918"/>
<ellipse cx="692.296" cy="669.818" rx="14.1589" ry="14.9455" fill="#DC2918"/>
<path fill-rule="evenodd" clip-rule="evenodd" d="M986.441 644.743C986.472 643.403 986.487 642.06 986.487 640.713C986.487 639.474 986.474 638.238 986.448 637.005H634.126C634.101 638.238 634.088 639.474 634.088 640.713C634.088 642.06 634.103 643.403 634.133 644.743H986.441Z" fill="#604220"/>
</g>
<mask id="mask1_603_2295" style="mask-type:alpha" maskUnits="userSpaceOnUse" x="1287" y="1903" width="242" height="182">
<mask id="path-47-outside-3_603_2295" maskUnits="userSpaceOnUse" x="1286.38" y="1902.63" width="296.95" height="275.965" fill="black">
<rect fill="white" x="1286.38" y="1902.63" width="296.95" height="275.965"/>
<path fill-rule="evenodd" clip-rule="evenodd" d="M1519.17 2078.6C1529.81 2022.36 1520.18 1962.21 1487.78 1910L1487.78 1910L1300 2032.44L1519.17 2078.6Z"/>
</mask>
<path fill-rule="evenodd" clip-rule="evenodd" d="M1519.17 2078.6C1529.81 2022.36 1520.18 1962.21 1487.78 1910L1487.78 1910L1300 2032.44L1519.17 2078.6Z" fill="#B35E00"/>
<path d="M1487.78 1910L1492.03 1907.36L1491.61 1906.69L1491 1906.18L1487.78 1910ZM1519.17 2078.6L1518.14 2083.5L1523.13 2084.55L1524.08 2079.53L1519.17 2078.6ZM1487.78 1910L1491 1906.18L1488.16 1903.78L1485.05 1905.81L1487.78 1910ZM1300 2032.44L1297.27 2028.26L1287.16 2034.85L1298.97 2037.34L1300 2032.44ZM1483.54 1912.64C1515.25 1963.74 1524.67 2022.62 1514.25 2077.67L1524.08 2079.53C1534.94 2022.11 1525.11 1960.68 1492.03 1907.36L1483.54 1912.64ZM1484.56 1913.83L1484.56 1913.83L1491 1906.18L1491 1906.18L1484.56 1913.83ZM1302.73 2036.63L1490.51 1914.19L1485.05 1905.81L1297.27 2028.26L1302.73 2036.63ZM1520.2 2073.71L1301.03 2027.55L1298.97 2037.34L1518.14 2083.5L1520.2 2073.71Z" fill="black" mask="url(#path-47-outside-3_603_2295)"/>
</mask>
<g mask="url(#mask1_603_2295)">
<circle cx="1286.71" cy="2034.65" r="236.575" transform="rotate(-33.1064 1286.71 2034.65)" fill="#B35E00"/>
<path d="M1470.74 1914.65C1537.14 2016.49 1508.41 2152.87 1406.58 2219.28C1304.74 2285.68 1168.36 2256.95 1101.96 2155.12C1035.56 2053.28 1064.28 1916.9 1166.12 1850.5C1267.95 1784.09 1404.33 1812.82 1470.74 1914.65Z" fill="#FFD86B"/>
<path fill-rule="evenodd" clip-rule="evenodd" d="M1400.9 2210.57C1497.93 2147.3 1525.3 2017.36 1462.03 1920.33C1398.77 1823.3 1268.82 1795.93 1171.79 1859.2C1074.76 1922.47 1047.39 2052.41 1110.66 2149.44C1173.93 2246.47 1303.87 2273.84 1400.9 2210.57ZM1406.58 2219.28C1508.41 2152.87 1537.14 2016.49 1470.74 1914.65C1404.33 1812.82 1267.95 1784.09 1166.12 1850.5C1064.28 1916.9 1035.56 2053.28 1101.96 2155.12C1168.36 2256.95 1304.74 2285.68 1406.58 2219.28Z" fill="#604220"/>
<path fill-rule="evenodd" clip-rule="evenodd" d="M1161.69 1833.8L1420.07 2230.06C1418.7 2230.99 1417.32 2231.91 1415.93 2232.82C1414.41 2233.81 1412.89 2234.77 1411.36 2235.72L1153 1839.49C1154.48 1838.47 1155.98 1837.47 1157.49 1836.48C1158.89 1835.57 1160.29 1834.68 1161.69 1833.8Z" fill="#604220"/>
<path fill-rule="evenodd" clip-rule="evenodd" d="M1056.27 1981.11L1519.17 2078.6C1518.52 2082.01 1517.8 2085.39 1517.01 2088.77L1054.14 1991.28C1054.78 1987.87 1055.49 1984.48 1056.27 1981.11Z" fill="#604220"/>
<path fill-rule="evenodd" clip-rule="evenodd" d="M1487.78 1910C1486.83 1908.47 1485.87 1906.95 1484.88 1905.43C1483.97 1904.04 1483.05 1902.66 1482.12 1901.29L1085.87 2159.67C1086.74 2161.07 1087.63 2162.47 1088.54 2163.87C1089.53 2165.38 1090.53 2166.88 1091.55 2168.37L1487.78 1910Z" fill="#604220"/>
<path fill-rule="evenodd" clip-rule="evenodd" d="M1340.83 1804.35L1243.34 2267.21C1239.94 2266.58 1236.55 2265.87 1233.17 2265.09L1330.67 1802.19C1334.07 1802.84 1337.46 1803.55 1340.83 1804.35Z" fill="#604220"/>
<circle cx="1350.26" cy="1942.31" r="30.7352" transform="rotate(-33.1064 1350.26 1942.31)" fill="#DC2918"/>
<circle cx="1448.41" cy="1977.33" r="20.1294" transform="rotate(-28.744 1448.41 1977.33)" fill="#DC2918"/>
<circle cx="1459.17" cy="2036.48" r="20.1294" transform="rotate(-28.744 1459.17 2036.48)" fill="#DC2918"/>
<circle cx="1389.33" cy="2014.55" r="20.1294" transform="rotate(-28.744 1389.33 2014.55)" fill="#DC2918"/>
<circle cx="1380.85" cy="1880.24" r="20.1294" transform="rotate(-33.1064 1380.85 1880.24)" fill="#DC2918"/>
<circle cx="1274.42" cy="1944.47" r="19.2636" transform="rotate(-33.1064 1274.42 1944.47)" fill="#DC2918"/>
<circle cx="1358.31" cy="2089.77" r="19.2636" transform="rotate(-33.1064 1358.31 2089.77)" fill="#DC2918"/>
<circle cx="1424.49" cy="2105.27" r="30.7352" transform="rotate(-33.1064 1424.49 2105.27)" fill="#DC2918"/>
</g>
<circle cx="525.5" cy="1683.5" r="344.5" fill="#DAE2F1" stroke="#44506A" stroke-width="48"/>
<circle cx="421.315" cy="1550.83" r="91.7805" fill="#604220" stroke="white" stroke-width="24"/>
<path d="M424.005 1604.2C422.583 1604.92 422.211 1605.05 421.578 1605.1L421.159 1605.1C420.526 1605.05 420.154 1604.92 418.733 1604.2C409.294 1599.43 401.5 1591.71 397.027 1582.71C395.872 1580.38 395.016 1578.3 394.324 1576.14C393.889 1574.78 393.868 1574.74 392.618 1573.24C389.883 1569.97 388.247 1567.46 386.424 1563.75C383.112 1557.01 382.337 1550.19 384.179 1544.03C384.638 1542.49 385.366 1541.87 386.525 1542.03C387.705 1542.19 390.915 1543.94 393.242 1545.69C393.941 1546.22 394.553 1546.6 394.602 1546.55C394.651 1546.49 394.9 1545.89 395.157 1545.22C395.907 1543.26 397.849 1539.51 399.103 1537.6C401.009 1534.7 402.787 1532.46 407.074 1527.55C409.876 1524.34 412.002 1521.36 412.278 1520.25C412.651 1518.76 411.776 1516.74 409.547 1513.96C407.339 1511.21 406.151 1509.17 405.473 1506.99C405.241 1506.24 405.198 1505.83 405.2 1504.4C405.202 1502.89 405.239 1502.58 405.517 1501.75C405.689 1501.24 406.068 1500.47 406.359 1500.05C407.017 1499.1 407.908 1498.21 408.117 1498.29C408.204 1498.33 408.263 1498.29 408.247 1498.21C408.206 1498.01 409.246 1497.33 410.063 1497.02C411.093 1496.63 411.775 1496.55 416.743 1496.3L425.995 1496.3C430.963 1496.55 431.645 1496.63 432.674 1497.02C433.491 1497.33 434.532 1498.01 434.491 1498.21C434.475 1498.29 434.533 1498.33 434.62 1498.29C434.83 1498.21 435.721 1499.1 436.378 1500.05C436.669 1500.47 437.048 1501.24 437.221 1501.75C437.499 1502.58 437.535 1502.89 437.537 1504.4C437.539 1505.83 437.497 1506.24 437.265 1506.99C436.586 1509.17 435.398 1511.21 433.19 1513.96C430.962 1516.74 430.087 1518.76 430.46 1520.25C430.736 1521.36 432.861 1524.34 435.664 1527.55C439.951 1532.46 441.728 1534.7 443.634 1537.6C444.889 1539.51 446.83 1543.26 447.581 1545.22C447.837 1545.89 448.087 1546.49 448.136 1546.55C448.184 1546.6 448.796 1546.22 449.495 1545.69C451.822 1543.94 455.032 1542.19 456.213 1542.03C457.371 1541.87 458.099 1542.49 458.558 1544.03C460.401 1550.19 459.625 1557.01 456.314 1563.75C454.49 1567.46 452.854 1569.97 450.12 1573.24C448.869 1574.74 448.849 1574.78 448.414 1576.14C447.721 1578.3 446.866 1580.38 445.71 1582.71C441.238 1591.71 433.443 1599.43 424.005 1604.2Z" fill="#FFA3C5"/>
<circle cx="671.047" cy="1696.19" r="91.7805" transform="rotate(51.0415 671.047 1696.19)" fill="#604220" stroke="white" stroke-width="24"/>
<path d="M634.669 1736.07C633.17 1735.53 632.815 1735.35 632.351 1734.92L632.063 1734.61C631.659 1734.13 631.503 1733.76 631.049 1732.23C628.038 1722.1 628.3 1711.13 631.777 1701.7C632.675 1699.26 633.6 1697.21 634.699 1695.22C635.39 1693.97 635.402 1693.93 635.631 1691.99C636.134 1687.76 636.834 1684.85 638.282 1680.97C640.91 1673.94 645.336 1668.69 651.085 1665.8C652.517 1665.08 653.468 1665.18 654.15 1666.13C654.844 1667.1 655.774 1670.64 656.095 1673.53C656.192 1674.41 656.333 1675.11 656.408 1675.11C656.484 1675.1 657.089 1674.88 657.752 1674.6C659.693 1673.8 663.751 1672.64 666 1672.24C669.417 1671.64 672.268 1671.39 678.783 1671.14C683.042 1670.97 686.668 1670.47 687.661 1669.91C689.003 1669.16 689.869 1667.14 690.361 1663.61C690.848 1660.11 691.511 1657.85 692.635 1655.86C693.019 1655.18 693.285 1654.87 694.333 1653.88C695.433 1652.85 695.678 1652.66 696.473 1652.3C696.967 1652.07 697.783 1651.82 698.288 1651.74C699.429 1651.57 700.688 1651.61 700.773 1651.81C700.808 1651.9 700.874 1651.92 700.919 1651.85C701.037 1651.69 702.248 1651.97 703.035 1652.35C704.026 1652.83 704.548 1653.28 708.144 1656.72L714.495 1663.44C717.72 1667.23 718.135 1667.78 718.557 1668.8C718.892 1669.6 719.108 1670.83 718.935 1670.94C718.868 1670.98 718.882 1671.05 718.966 1671.09C719.169 1671.18 719.133 1672.44 718.895 1673.57C718.79 1674.07 718.494 1674.87 718.237 1675.35C717.824 1676.12 717.628 1676.36 716.531 1677.4C715.487 1678.38 715.162 1678.63 714.459 1678.98C712.404 1679.98 710.11 1680.52 706.591 1680.8C703.039 1681.09 700.972 1681.84 700.142 1683.13C699.528 1684.09 698.82 1687.68 698.409 1691.93C697.779 1698.42 697.369 1701.25 696.569 1704.63C696.042 1706.85 694.65 1710.83 693.74 1712.72C693.428 1713.37 693.166 1713.96 693.157 1714.04C693.148 1714.11 693.848 1714.29 694.711 1714.44C697.584 1714.93 701.062 1716.06 701.988 1716.81C702.897 1717.54 702.946 1718.5 702.144 1719.89C698.925 1725.46 693.433 1729.58 686.259 1731.8C682.308 1733.02 679.362 1733.55 675.105 1733.81C673.158 1733.93 673.119 1733.93 671.83 1734.55C669.78 1735.54 667.68 1736.34 665.196 1737.1C655.579 1740.03 644.616 1739.66 634.669 1736.07Z" fill="#FFA3C5"/>
<circle cx="422.444" cy="1826.36" r="91.7805" transform="rotate(-156.865 422.444 1826.36)" fill="#604220" stroke="white" stroke-width="24"/>
<path d="M439.688 1775.73C441.277 1775.61 441.673 1775.62 442.273 1775.83L442.661 1775.99C443.23 1776.27 443.521 1776.54 444.56 1777.75C451.459 1785.76 455.712 1795.87 456.403 1805.9C456.581 1808.49 456.577 1810.74 456.389 1813.01C456.271 1814.43 456.277 1814.47 456.86 1816.33C458.136 1820.4 458.69 1823.34 458.956 1827.47C459.439 1834.96 457.55 1841.56 453.49 1846.56C452.478 1847.8 451.568 1848.1 450.557 1847.51C449.528 1846.91 447.231 1844.06 445.752 1841.55C445.307 1840.8 444.888 1840.21 444.821 1840.24C444.754 1840.28 444.295 1840.74 443.802 1841.26C442.359 1842.78 439.133 1845.5 437.244 1846.79C434.374 1848.74 431.875 1850.13 426.036 1853.03C422.218 1854.93 419.115 1856.87 418.438 1857.78C417.522 1859.02 417.56 1861.22 418.557 1864.64C419.544 1868.03 419.864 1870.36 419.656 1872.64C419.585 1873.42 419.469 1873.81 418.917 1875.14C418.337 1876.54 418.188 1876.8 417.614 1877.46C417.257 1877.88 416.614 1878.44 416.185 1878.71C415.215 1879.34 414.052 1879.82 413.889 1879.67C413.821 1879.6 413.754 1879.61 413.739 1879.69C413.7 1879.89 412.478 1880.12 411.603 1880.1C410.503 1880.07 409.844 1879.87 405.156 1878.21L396.606 1874.68C392.113 1872.54 391.511 1872.21 390.71 1871.46C390.073 1870.86 389.373 1869.83 389.488 1869.66C389.532 1869.59 389.492 1869.54 389.398 1869.54C389.173 1869.53 388.691 1868.37 388.445 1867.24C388.337 1866.74 388.279 1865.89 388.317 1865.35C388.378 1864.47 388.46 1864.18 389.035 1862.78C389.583 1861.45 389.778 1861.09 390.278 1860.49C391.741 1858.73 393.615 1857.31 396.709 1855.6C399.831 1853.89 401.41 1852.36 401.636 1850.83C401.804 1849.71 400.979 1846.14 399.617 1842.1C397.533 1835.92 396.747 1833.17 396.094 1829.76C395.665 1827.52 395.303 1823.32 395.359 1821.22C395.378 1820.5 395.375 1819.85 395.353 1819.78C395.33 1819.71 394.618 1819.83 393.77 1820.05C390.949 1820.78 387.313 1821.17 386.162 1820.87C385.031 1820.57 384.595 1819.72 384.758 1818.13C385.413 1811.72 388.736 1805.72 394.372 1800.76C397.477 1798.02 399.947 1796.33 403.724 1794.35C405.452 1793.45 405.484 1793.42 406.407 1792.33C407.874 1790.59 409.46 1789 411.417 1787.29C418.991 1780.68 429.144 1776.53 439.688 1775.73Z" fill="#FFA3C5"/>
<circle cx="1668.5" cy="1244.5" r="344.5" fill="#DAE2F1" stroke="#44506A" stroke-width="48"/>
<circle cx="1564.31" cy="1111.83" r="91.7805" fill="#604220" stroke="white" stroke-width="24"/>
<path d="M1567 1165.2C1565.58 1165.92 1565.21 1166.05 1564.58 1166.1L1564.16 1166.1C1563.53 1166.05 1563.15 1165.92 1561.73 1165.2C1552.29 1160.43 1544.5 1152.71 1540.03 1143.71C1538.87 1141.38 1538.02 1139.3 1537.32 1137.14C1536.89 1135.78 1536.87 1135.74 1535.62 1134.24C1532.88 1130.97 1531.25 1128.46 1529.42 1124.75C1526.11 1118.01 1525.34 1111.19 1527.18 1105.03C1527.64 1103.49 1528.37 1102.87 1529.52 1103.03C1530.71 1103.19 1533.92 1104.94 1536.24 1106.69C1536.94 1107.22 1537.55 1107.6 1537.6 1107.55C1537.65 1107.49 1537.9 1106.89 1538.16 1106.22C1538.91 1104.26 1540.85 1100.51 1542.1 1098.6C1544.01 1095.7 1545.79 1093.46 1550.07 1088.55C1552.88 1085.34 1555 1082.36 1555.28 1081.25C1555.65 1079.76 1554.78 1077.74 1552.55 1074.96C1550.34 1072.21 1549.15 1070.17 1548.47 1067.99C1548.24 1067.24 1548.2 1066.83 1548.2 1065.4C1548.2 1063.89 1548.24 1063.58 1548.52 1062.75C1548.69 1062.24 1549.07 1061.47 1549.36 1061.05C1550.02 1060.1 1550.91 1059.21 1551.12 1059.29C1551.2 1059.33 1551.26 1059.29 1551.25 1059.21C1551.21 1059.01 1552.25 1058.33 1553.06 1058.02C1554.09 1057.63 1554.77 1057.55 1559.74 1057.3L1568.99 1057.3C1573.96 1057.55 1574.64 1057.63 1575.67 1058.02C1576.49 1058.33 1577.53 1059.01 1577.49 1059.21C1577.47 1059.29 1577.53 1059.33 1577.62 1059.29C1577.83 1059.21 1578.72 1060.1 1579.38 1061.05C1579.67 1061.47 1580.05 1062.24 1580.22 1062.75C1580.5 1063.58 1580.54 1063.89 1580.54 1065.4C1580.54 1066.83 1580.5 1067.24 1580.26 1067.99C1579.59 1070.17 1578.4 1072.21 1576.19 1074.96C1573.96 1077.74 1573.09 1079.76 1573.46 1081.25C1573.74 1082.36 1575.86 1085.34 1578.66 1088.55C1582.95 1093.46 1584.73 1095.7 1586.63 1098.6C1587.89 1100.51 1589.83 1104.26 1590.58 1106.22C1590.84 1106.89 1591.09 1107.49 1591.14 1107.55C1591.18 1107.6 1591.8 1107.22 1592.5 1106.69C1594.82 1104.94 1598.03 1103.19 1599.21 1103.03C1600.37 1102.87 1601.1 1103.49 1601.56 1105.03C1603.4 1111.19 1602.63 1118.01 1599.31 1124.75C1597.49 1128.46 1595.85 1130.97 1593.12 1134.24C1591.87 1135.74 1591.85 1135.78 1591.41 1137.14C1590.72 1139.3 1589.87 1141.38 1588.71 1143.71C1584.24 1152.71 1576.44 1160.43 1567 1165.2Z" fill="#FFA3C5"/>
<circle cx="1814.05" cy="1257.19" r="91.7805" transform="rotate(51.0415 1814.05 1257.19)" fill="#604220" stroke="white" stroke-width="24"/>
<path d="M1777.67 1297.07C1776.17 1296.53 1775.81 1296.35 1775.35 1295.92L1775.06 1295.61C1774.66 1295.13 1774.5 1294.76 1774.05 1293.23C1771.04 1283.1 1771.3 1272.13 1774.78 1262.7C1775.67 1260.26 1776.6 1258.21 1777.7 1256.22C1778.39 1254.97 1778.4 1254.93 1778.63 1252.99C1779.13 1248.76 1779.83 1245.85 1781.28 1241.97C1783.91 1234.94 1788.34 1229.69 1794.09 1226.8C1795.52 1226.08 1796.47 1226.18 1797.15 1227.13C1797.84 1228.1 1798.77 1231.64 1799.1 1234.53C1799.19 1235.41 1799.33 1236.11 1799.41 1236.11C1799.48 1236.1 1800.09 1235.88 1800.75 1235.6C1802.69 1234.8 1806.75 1233.64 1809 1233.24C1812.42 1232.64 1815.27 1232.39 1821.78 1232.14C1826.04 1231.97 1829.67 1231.47 1830.66 1230.91C1832 1230.16 1832.87 1228.14 1833.36 1224.61C1833.85 1221.11 1834.51 1218.85 1835.63 1216.86C1836.02 1216.18 1836.29 1215.87 1837.33 1214.88C1838.43 1213.85 1838.68 1213.66 1839.47 1213.3C1839.97 1213.07 1840.78 1212.82 1841.29 1212.74C1842.43 1212.57 1843.69 1212.61 1843.77 1212.81C1843.81 1212.9 1843.87 1212.92 1843.92 1212.85C1844.04 1212.69 1845.25 1212.97 1846.04 1213.35C1847.03 1213.83 1847.55 1214.28 1851.14 1217.72L1857.5 1224.44C1860.72 1228.23 1861.13 1228.78 1861.56 1229.8C1861.89 1230.6 1862.11 1231.83 1861.93 1231.94C1861.87 1231.98 1861.88 1232.05 1861.97 1232.09C1862.17 1232.18 1862.13 1233.44 1861.9 1234.57C1861.79 1235.07 1861.49 1235.87 1861.24 1236.35C1860.82 1237.12 1860.63 1237.36 1859.53 1238.4C1858.49 1239.38 1858.16 1239.63 1857.46 1239.98C1855.4 1240.98 1853.11 1241.52 1849.59 1241.8C1846.04 1242.09 1843.97 1242.84 1843.14 1244.13C1842.53 1245.09 1841.82 1248.68 1841.41 1252.93C1840.78 1259.42 1840.37 1262.25 1839.57 1265.63C1839.04 1267.85 1837.65 1271.83 1836.74 1273.72C1836.43 1274.37 1836.17 1274.96 1836.16 1275.04C1836.15 1275.11 1836.85 1275.29 1837.71 1275.44C1840.58 1275.93 1844.06 1277.06 1844.99 1277.81C1845.9 1278.54 1845.95 1279.5 1845.14 1280.89C1841.92 1286.46 1836.43 1290.58 1829.26 1292.8C1825.31 1294.02 1822.36 1294.55 1818.1 1294.81C1816.16 1294.93 1816.12 1294.93 1814.83 1295.55C1812.78 1296.54 1810.68 1297.34 1808.2 1298.1C1798.58 1301.03 1787.62 1300.66 1777.67 1297.07Z" fill="#FFA3C5"/>
<circle cx="1565.44" cy="1387.36" r="91.7805" transform="rotate(-156.865 1565.44 1387.36)" fill="#604220" stroke="white" stroke-width="24"/>
<path d="M1582.69 1336.73C1584.28 1336.61 1584.67 1336.62 1585.27 1336.83L1585.66 1336.99C1586.23 1337.27 1586.52 1337.54 1587.56 1338.75C1594.46 1346.76 1598.71 1356.87 1599.4 1366.9C1599.58 1369.49 1599.58 1371.74 1599.39 1374.01C1599.27 1375.43 1599.28 1375.47 1599.86 1377.33C1601.14 1381.4 1601.69 1384.34 1601.96 1388.47C1602.44 1395.96 1600.55 1402.56 1596.49 1407.56C1595.48 1408.8 1594.57 1409.1 1593.56 1408.51C1592.53 1407.91 1590.23 1405.06 1588.75 1402.55C1588.31 1401.8 1587.89 1401.21 1587.82 1401.24C1587.75 1401.28 1587.3 1401.74 1586.8 1402.26C1585.36 1403.78 1582.13 1406.5 1580.24 1407.79C1577.37 1409.74 1574.87 1411.13 1569.04 1414.03C1565.22 1415.93 1562.12 1417.87 1561.44 1418.78C1560.52 1420.02 1560.56 1422.22 1561.56 1425.64C1562.54 1429.03 1562.86 1431.36 1562.66 1433.64C1562.58 1434.42 1562.47 1434.81 1561.92 1436.14C1561.34 1437.54 1561.19 1437.8 1560.61 1438.46C1560.26 1438.88 1559.61 1439.44 1559.19 1439.71C1558.21 1440.34 1557.05 1440.82 1556.89 1440.67C1556.82 1440.6 1556.75 1440.61 1556.74 1440.69C1556.7 1440.89 1555.48 1441.12 1554.6 1441.1C1553.5 1441.07 1552.84 1440.87 1548.16 1439.21L1539.61 1435.68C1535.11 1433.54 1534.51 1433.21 1533.71 1432.46C1533.07 1431.86 1532.37 1430.83 1532.49 1430.66C1532.53 1430.59 1532.49 1430.54 1532.4 1430.54C1532.17 1430.53 1531.69 1429.37 1531.45 1428.24C1531.34 1427.74 1531.28 1426.89 1531.32 1426.35C1531.38 1425.47 1531.46 1425.18 1532.04 1423.78C1532.58 1422.45 1532.78 1422.09 1533.28 1421.49C1534.74 1419.73 1536.62 1418.31 1539.71 1416.6C1542.83 1414.89 1544.41 1413.36 1544.64 1411.83C1544.8 1410.71 1543.98 1407.14 1542.62 1403.1C1540.53 1396.92 1539.75 1394.17 1539.09 1390.76C1538.66 1388.52 1538.3 1384.32 1538.36 1382.22C1538.38 1381.5 1538.38 1380.85 1538.35 1380.78C1538.33 1380.71 1537.62 1380.83 1536.77 1381.05C1533.95 1381.78 1530.31 1382.17 1529.16 1381.87C1528.03 1381.57 1527.6 1380.72 1527.76 1379.13C1528.41 1372.72 1531.74 1366.72 1537.37 1361.76C1540.48 1359.02 1542.95 1357.33 1546.72 1355.35C1548.45 1354.45 1548.48 1354.42 1549.41 1353.33C1550.87 1351.59 1552.46 1350 1554.42 1348.29C1561.99 1341.68 1572.14 1337.53 1582.69 1336.73Z" fill="#FFA3C5"/>
</g>
<defs>
<clipPath id="clip0_603_2295">
<rect width="2240" height="2625" fill="white"/>
</clipPath>
</defs>
</svg>
