<svg width="730" height="740" viewBox="0 0 730 740" fill="none" xmlns="http://www.w3.org/2000/svg">
<path d="M140.86 64.9127L186.087 110.14C192.638 116.69 192.638 127.31 186.087 133.86L140.86 179.087C134.31 185.638 123.69 185.638 117.14 179.087L71.9127 133.86C65.3624 127.31 65.3624 116.69 71.9127 110.14L117.14 64.9127C123.69 58.3624 134.31 58.3624 140.86 64.9127Z" fill="#E3C8D5" stroke="#DD66A1" stroke-width="24"/>
<path d="M137.909 98.4545V145H125.273V110.091H125L114.818 116.182V105.455L126.273 98.4545H137.909Z" fill="#6D094B"/>
<path d="M612.861 64.9127L658.088 110.14C664.638 116.69 664.638 127.31 658.088 133.86L612.861 179.087C606.311 185.638 595.69 185.638 589.14 179.087L543.913 133.86C537.363 127.31 537.363 116.69 543.913 110.14L589.14 64.9127C595.69 58.3624 606.311 58.3624 612.861 64.9127Z" fill="#D6E4FF" stroke="#5E7CEE" stroke-width="24"/>
<path d="M617.592 317.579L667.061 403.263C674.435 416.035 665.218 432 650.47 432H551.531C536.783 432 527.565 416.035 534.939 403.263L584.409 317.579C591.783 304.807 610.218 304.807 617.592 317.579Z" fill="#D6E4FF" stroke="#5E7CEE" stroke-width="24"/>
<path d="M145.592 317.579L195.061 403.263C202.435 416.035 193.218 432 178.47 432H79.5306C64.7828 432 55.5654 416.035 62.9393 403.263L112.409 317.579C119.783 304.807 138.218 304.807 145.592 317.579Z" fill="#E3C8D5" stroke="#DD66A1" stroke-width="24"/>
<path d="M137.909 356.455V403H125.273V368.091H125L114.818 374.182V363.455L126.273 356.455H137.909Z" fill="#6D094B"/>
<circle cx="601.326" cy="618" r="62" fill="#D6E4FF" stroke="#5E7CEE" stroke-width="24"/>
<circle cx="129.326" cy="618" r="62" fill="#E3C8D5" stroke="#DD66A1" stroke-width="24"/>
<path d="M137.909 594.455V641H125.273V606.091H125L114.818 612.182V601.455L126.273 594.455H137.909Z" fill="#6D094B"/>
<path d="M583.091 641V631.909L600.455 617.545C601.606 616.591 602.591 615.697 603.409 614.864C604.242 614.015 604.879 613.144 605.318 612.25C605.773 611.356 606 610.364 606 609.273C606 608.076 605.742 607.053 605.227 606.205C604.727 605.356 604.03 604.705 603.136 604.25C602.242 603.78 601.212 603.545 600.045 603.545C598.879 603.545 597.848 603.78 596.955 604.25C596.076 604.72 595.394 605.409 594.909 606.318C594.424 607.227 594.182 608.333 594.182 609.636H582.182C582.182 606.364 582.917 603.545 584.386 601.182C585.856 598.818 587.932 597 590.614 595.727C593.295 594.455 596.439 593.818 600.045 593.818C603.773 593.818 607 594.417 609.727 595.614C612.47 596.795 614.583 598.462 616.068 600.614C617.568 602.765 618.318 605.288 618.318 608.182C618.318 609.97 617.947 611.75 617.205 613.523C616.462 615.28 615.129 617.227 613.205 619.364C611.28 621.5 608.545 624.045 605 627L600.636 630.636V630.909H618.818V641H583.091Z" fill="#031677"/>
<path d="M583.091 403V393.909L600.455 379.545C601.606 378.591 602.591 377.697 603.409 376.864C604.242 376.015 604.879 375.144 605.318 374.25C605.773 373.356 606 372.364 606 371.273C606 370.076 605.742 369.053 605.227 368.205C604.727 367.356 604.03 366.705 603.136 366.25C602.242 365.78 601.212 365.545 600.045 365.545C598.879 365.545 597.848 365.78 596.955 366.25C596.076 366.72 595.394 367.409 594.909 368.318C594.424 369.227 594.182 370.333 594.182 371.636H582.182C582.182 368.364 582.917 365.545 584.386 363.182C585.856 360.818 587.932 359 590.614 357.727C593.295 356.455 596.439 355.818 600.045 355.818C603.773 355.818 607 356.417 609.727 357.614C612.47 358.795 614.583 360.462 616.068 362.614C617.568 364.765 618.318 367.288 618.318 370.182C618.318 371.97 617.947 373.75 617.205 375.523C616.462 377.28 615.129 379.227 613.205 381.364C611.28 383.5 608.545 386.045 605 389L600.636 392.636V392.909H618.818V403H583.091Z" fill="#031677"/>
<path d="M583.091 145V135.909L600.455 121.545C601.606 120.591 602.591 119.697 603.409 118.864C604.242 118.015 604.879 117.144 605.318 116.25C605.773 115.356 606 114.364 606 113.273C606 112.076 605.742 111.053 605.227 110.205C604.727 109.356 604.03 108.705 603.136 108.25C602.242 107.78 601.212 107.545 600.045 107.545C598.879 107.545 597.848 107.78 596.955 108.25C596.076 108.72 595.394 109.409 594.909 110.318C594.424 111.227 594.182 112.333 594.182 113.636H582.182C582.182 110.364 582.917 107.545 584.386 105.182C585.856 102.818 587.932 101 590.614 99.7273C593.295 98.4545 596.439 97.8182 600.045 97.8182C603.773 97.8182 607 98.4167 609.727 99.6136C612.47 100.795 614.583 102.462 616.068 104.614C617.568 106.765 618.318 109.288 618.318 112.182C618.318 113.97 617.947 115.75 617.205 117.523C616.462 119.28 615.129 121.227 613.205 123.364C611.28 125.5 608.545 128.045 605 131L600.636 134.636V134.909H618.818V145H583.091Z" fill="#031677"/>
<path d="M352.154 67C355.392 67 358.193 67.6564 360.556 68.9692C362.963 70.2821 365.107 71.8137 366.989 73.5641C368.914 75.3145 370.752 76.8462 372.503 78.159C374.297 79.4718 376.179 80.1282 378.148 80.1282C380.642 80.1282 382.765 79.253 384.515 77.5026C385.213 76.8046 385.908 75.9908 386.599 75.0611C388.664 72.2837 392.293 70.9348 395.447 72.3603C398.756 73.8558 400.251 77.7846 398.433 80.9282C396.402 84.4393 394.192 87.4766 391.801 90.04C388.213 93.8909 383.487 95.8164 377.623 95.8164C374.472 95.8164 371.693 95.16 369.286 93.8472C366.923 92.5344 364.779 91.0027 362.854 89.2523C360.928 87.5019 359.068 85.9703 357.274 84.6574C355.48 83.3446 353.598 82.6882 351.629 82.6882C349.091 82.6882 346.925 83.6072 345.131 85.4451C344.462 86.1476 343.796 86.946 343.133 87.8403C341.114 90.5645 337.554 91.861 334.458 90.4791C331.106 88.9832 329.636 84.9888 331.513 81.835C332.404 80.3396 333.333 78.8954 334.3 77.5026C336.488 74.3518 339.026 71.8137 341.914 69.8882C344.802 67.9627 348.216 67 352.154 67Z" fill="#DAE2F1"/>
<path fill-rule="evenodd" clip-rule="evenodd" d="M346.986 83.9514C346.422 84.2962 345.887 84.7115 345.38 85.1974C345.296 85.2781 345.213 85.3606 345.13 85.4451C344.968 85.6154 344.806 85.7912 344.645 85.9728C344.139 86.5402 343.635 87.1627 343.133 87.8403C342.975 88.0537 342.807 88.2584 342.631 88.4537C340.559 90.7512 337.311 91.7528 334.458 90.4791C331.106 88.9832 329.636 84.9888 331.513 81.835C331.874 81.23 332.24 80.6333 332.613 80.0451C333.124 79.2393 333.646 78.4492 334.18 77.6749C334.22 77.6174 334.26 77.5599 334.3 77.5026C334.633 77.0227 334.974 76.557 335.324 76.1055C335.358 76.0611 335.393 76.0169 335.427 75.9728C336.166 75.0282 336.942 74.1465 337.753 73.3278C339.048 72.0207 340.435 70.8741 341.914 69.8882C344.802 67.9627 348.216 67 352.154 67C355.392 67 358.193 67.6564 360.556 68.9692C362.963 70.2821 365.107 71.8137 366.989 73.5641C368.914 75.3145 370.752 76.8462 372.503 78.159C374.297 79.4718 376.179 80.1282 378.148 80.1282C380.023 80.1282 381.688 79.6335 383.143 78.6442C383.623 78.3176 384.081 77.937 384.515 77.5026C384.773 77.2449 385.03 76.9714 385.287 76.6821C385.726 76.1879 386.163 75.6476 386.599 75.0611C386.77 74.8308 386.952 74.6102 387.144 74.4003C389.263 72.0791 392.554 71.053 395.447 72.3603C398.756 73.8558 400.25 77.7846 398.433 80.9282C398.032 81.621 397.624 82.2953 397.21 82.9512C396.739 83.6961 396.259 84.4172 395.77 85.1144C395.263 85.8376 394.746 86.5351 394.22 87.207C393.808 87.7325 393.39 88.2422 392.966 88.7364C392.583 89.1838 392.195 89.6183 391.801 90.04C388.213 93.8909 383.487 95.8164 377.623 95.8164C374.472 95.8164 371.693 95.16 369.286 93.8472C366.923 92.5344 364.779 91.0027 362.854 89.2523C360.928 87.5019 359.068 85.9703 357.274 84.6574C355.48 83.3446 353.598 82.6882 351.629 82.6882C349.911 82.6882 348.363 83.1093 346.986 83.9514ZM377.538 64.2144C383.075 58.7536 392.11 55.4884 401.213 59.6028C411.214 64.1231 416.973 76.8331 410.552 87.9364C408.074 92.2213 405.256 96.1392 402.044 99.5841L402.04 99.5884C395.487 106.618 386.879 109.816 377.623 109.816C372.482 109.816 367.335 108.73 362.582 106.138L362.535 106.112L362.487 106.085C359.219 104.269 356.19 102.115 353.436 99.6115C353.046 99.2566 352.664 98.917 352.29 98.5924C346.758 104.108 337.747 107.278 328.752 103.264C318.501 98.6883 312.908 85.7198 319.484 74.6735C320.537 72.9046 321.642 71.1852 322.801 69.517C325.886 65.0734 329.65 61.2382 334.148 58.2395C339.636 54.5808 345.836 53 352.154 53C357.283 53 362.499 54.0466 367.304 56.7024C370.624 58.518 373.695 60.6927 376.458 63.2516C376.826 63.5856 377.186 63.9064 377.538 64.2144Z" fill="#44506A"/>
<path d="M352.154 137.816C355.392 137.816 358.193 138.473 360.556 139.786C362.963 141.098 365.107 142.63 366.989 144.381C368.914 146.131 370.752 147.663 372.503 148.975C374.297 150.288 376.179 150.945 378.148 150.945C380.642 150.945 382.765 150.069 384.515 148.319C385.213 147.621 385.908 146.807 386.599 145.878C388.664 143.1 392.293 141.751 395.447 143.177V143.177C398.756 144.672 400.251 148.601 398.433 151.745C396.402 155.256 394.192 158.293 391.801 160.856C388.213 164.707 383.487 166.633 377.623 166.633C374.472 166.633 371.693 165.976 369.286 164.664C366.923 163.351 364.779 161.819 362.854 160.069C360.928 158.318 359.068 156.787 357.274 155.474C355.48 154.161 353.598 153.505 351.629 153.505C349.091 153.505 346.925 154.424 345.131 156.262C344.462 156.964 343.796 157.762 343.133 158.657C341.114 161.381 337.554 162.677 334.458 161.296V161.296C331.106 159.8 329.636 155.805 331.513 152.651C332.404 151.156 333.333 149.712 334.3 148.319C336.488 145.168 339.026 142.63 341.914 140.705C344.802 138.779 348.216 137.816 352.154 137.816Z" fill="#DAE2F1"/>
<path fill-rule="evenodd" clip-rule="evenodd" d="M346.986 154.768C346.422 155.113 345.887 155.528 345.38 156.014C345.296 156.094 345.213 156.177 345.13 156.262C344.968 156.432 344.806 156.608 344.645 156.789C344.139 157.357 343.635 157.979 343.133 158.657C342.975 158.87 342.807 159.075 342.631 159.27C340.559 161.568 337.311 162.569 334.458 161.296C331.106 159.8 329.636 155.805 331.513 152.651C331.874 152.046 332.24 151.45 332.613 150.861C333.124 150.056 333.646 149.266 334.18 148.491C334.22 148.434 334.26 148.376 334.3 148.319C334.633 147.839 334.974 147.373 335.324 146.922C335.358 146.878 335.393 146.833 335.427 146.789C336.166 145.845 336.942 144.963 337.753 144.144C339.048 142.837 340.435 141.691 341.914 140.705C344.802 138.779 348.216 137.816 352.154 137.816C355.392 137.816 358.193 138.473 360.556 139.786C362.963 141.098 365.107 142.63 366.989 144.381C368.914 146.131 370.752 147.663 372.503 148.975C374.297 150.288 376.179 150.945 378.148 150.945C380.023 150.945 381.688 150.45 383.143 149.461C383.623 149.134 384.081 148.753 384.515 148.319C384.773 148.061 385.03 147.788 385.287 147.499C385.726 147.004 386.163 146.464 386.599 145.878C386.77 145.647 386.952 145.427 387.144 145.217C389.263 142.895 392.554 141.869 395.447 143.177C398.756 144.672 400.25 148.601 398.433 151.745C398.032 152.437 397.624 153.112 397.21 153.768C396.739 154.512 396.259 155.234 395.77 155.931C395.263 156.654 394.746 157.351 394.22 158.023C393.808 158.549 393.39 159.059 392.966 159.553C392.583 160 392.195 160.435 391.801 160.856C388.213 164.707 383.487 166.633 377.623 166.633C374.472 166.633 371.693 165.976 369.286 164.664C366.923 163.351 364.779 161.819 362.854 160.069C360.928 158.318 359.068 156.787 357.274 155.474C355.48 154.161 353.598 153.505 351.629 153.505C349.911 153.505 348.363 153.926 346.986 154.768ZM377.538 135.031C383.075 129.57 392.11 126.305 401.213 130.419C411.214 134.94 416.973 147.649 410.552 158.753C408.074 163.038 405.256 166.956 402.044 170.401L402.04 170.405C395.487 177.435 386.879 180.633 377.623 180.633C372.482 180.633 367.335 179.546 362.582 176.954L362.535 176.928L362.487 176.902C359.219 175.086 356.19 172.931 353.436 170.428C353.046 170.073 352.664 169.733 352.29 169.409C346.758 174.925 337.747 178.095 328.752 174.08C318.501 169.505 312.908 156.536 319.484 145.49C320.537 143.721 321.642 142.002 322.801 140.333C325.886 135.89 329.65 132.055 334.148 129.056C339.636 125.397 345.836 123.816 352.154 123.816C357.283 123.816 362.499 124.863 367.304 127.519C370.624 129.334 373.695 131.509 376.458 134.068C376.826 134.402 377.186 134.723 377.538 135.031Z" fill="#44506A"/>
<path d="M352.154 318C355.392 318 358.193 318.656 360.556 319.969C362.963 321.282 365.107 322.814 366.989 324.564C368.914 326.315 370.752 327.846 372.503 329.159C374.297 330.472 376.179 331.128 378.148 331.128C380.642 331.128 382.765 330.253 384.515 328.503C385.213 327.805 385.908 326.991 386.599 326.061C388.664 323.284 392.293 321.935 395.447 323.36C398.756 324.856 400.251 328.785 398.433 331.928C396.402 335.439 394.192 338.477 391.801 341.04C388.213 344.891 383.487 346.816 377.623 346.816C374.472 346.816 371.693 346.16 369.286 344.847C366.923 343.534 364.779 342.003 362.854 340.252C360.928 338.502 359.068 336.97 357.274 335.657C355.48 334.345 353.598 333.688 351.629 333.688C349.091 333.688 346.925 334.607 345.131 336.445C344.462 337.148 343.796 337.946 343.133 338.84C341.114 341.564 337.554 342.861 334.458 341.479C331.106 339.983 329.636 335.989 331.513 332.835C332.404 331.34 333.333 329.895 334.3 328.503C336.488 325.352 339.026 322.814 341.914 320.888C344.802 318.963 348.216 318 352.154 318Z" fill="#DAE2F1"/>
<path fill-rule="evenodd" clip-rule="evenodd" d="M346.986 334.951C346.422 335.296 345.887 335.712 345.38 336.197C345.296 336.278 345.213 336.361 345.13 336.445C344.968 336.615 344.806 336.791 344.645 336.973C344.139 337.54 343.635 338.163 343.133 338.84C342.975 339.054 342.807 339.258 342.631 339.454C340.559 341.751 337.311 342.753 334.458 341.479C331.106 339.983 329.636 335.989 331.513 332.835C331.874 332.23 332.24 331.633 332.613 331.045C333.124 330.239 333.646 329.449 334.18 328.675C334.22 328.617 334.26 328.56 334.3 328.503C334.633 328.023 334.974 327.557 335.324 327.106C335.358 327.061 335.393 327.017 335.427 326.973C336.166 326.028 336.942 325.146 337.753 324.328C339.048 323.021 340.435 321.874 341.914 320.888C344.802 318.963 348.216 318 352.154 318C355.392 318 358.193 318.656 360.556 319.969C362.963 321.282 365.107 322.814 366.989 324.564C368.914 326.315 370.752 327.846 372.503 329.159C374.297 330.472 376.179 331.128 378.148 331.128C380.023 331.128 381.688 330.634 383.143 329.644C383.623 329.318 384.081 328.937 384.515 328.503C384.773 328.245 385.03 327.971 385.287 327.682C385.726 327.188 386.163 326.648 386.599 326.061C386.77 325.831 386.952 325.61 387.144 325.4C389.263 323.079 392.554 322.053 395.447 323.36C398.756 324.856 400.25 328.785 398.433 331.928C398.032 332.621 397.624 333.295 397.21 333.951C396.739 334.696 396.259 335.417 395.77 336.114C395.263 336.838 394.746 337.535 394.22 338.207C393.808 338.732 393.39 339.242 392.966 339.736C392.583 340.184 392.195 340.618 391.801 341.04C388.213 344.891 383.487 346.816 377.623 346.816C374.472 346.816 371.693 346.16 369.286 344.847C366.923 343.534 364.779 342.003 362.854 340.252C360.928 338.502 359.068 336.97 357.274 335.657C355.48 334.345 353.598 333.688 351.629 333.688C349.911 333.688 348.363 334.109 346.986 334.951ZM377.538 315.214C383.075 309.754 392.11 306.488 401.213 310.603C411.214 315.123 416.973 327.833 410.552 338.936C408.074 343.221 405.256 347.139 402.044 350.584L402.04 350.588C395.487 357.618 386.879 360.816 377.623 360.816C372.482 360.816 367.335 359.73 362.582 357.138L362.535 357.112L362.487 357.085C359.219 355.269 356.19 353.115 353.436 350.611C353.046 350.257 352.664 349.917 352.29 349.592C346.758 355.108 337.747 358.278 328.752 354.264C318.501 349.688 312.908 336.72 319.484 325.673C320.537 323.905 321.642 322.185 322.801 320.517C325.886 316.073 329.65 312.238 334.148 309.239C339.636 305.581 345.836 304 352.154 304C357.283 304 362.499 305.047 367.304 307.702C370.624 309.518 373.695 311.693 376.458 314.252C376.826 314.586 377.186 314.906 377.538 315.214Z" fill="#44506A"/>
<path d="M352.154 388.816C355.392 388.816 358.193 389.473 360.556 390.786C362.963 392.098 365.107 393.63 366.989 395.381C368.914 397.131 370.752 398.663 372.503 399.975C374.297 401.288 376.179 401.945 378.148 401.945C380.642 401.945 382.765 401.069 384.515 399.319C385.213 398.621 385.908 397.807 386.599 396.878C388.664 394.1 392.293 392.751 395.447 394.177V394.177C398.756 395.672 400.251 399.601 398.433 402.745C396.402 406.256 394.192 409.293 391.801 411.856C388.213 415.707 383.487 417.633 377.623 417.633C374.472 417.633 371.693 416.976 369.286 415.664C366.923 414.351 364.779 412.819 362.854 411.069C360.928 409.318 359.068 407.787 357.274 406.474C355.48 405.161 353.598 404.505 351.629 404.505C349.091 404.505 346.925 405.424 345.131 407.262C344.462 407.964 343.796 408.762 343.133 409.657C341.114 412.381 337.554 413.677 334.458 412.296V412.296C331.106 410.8 329.636 406.805 331.513 403.651C332.404 402.156 333.333 400.712 334.3 399.319C336.488 396.168 339.026 393.63 341.914 391.705C344.802 389.779 348.216 388.816 352.154 388.816Z" fill="#DAE2F1"/>
<path fill-rule="evenodd" clip-rule="evenodd" d="M346.986 405.768C346.422 406.113 345.887 406.528 345.38 407.014C345.296 407.094 345.213 407.177 345.13 407.262C344.968 407.432 344.806 407.608 344.645 407.789C344.139 408.357 343.635 408.979 343.133 409.657C342.975 409.87 342.807 410.075 342.631 410.27C340.559 412.568 337.311 413.569 334.458 412.296C331.106 410.8 329.636 406.805 331.513 403.651C331.874 403.046 332.24 402.45 332.613 401.861C333.124 401.056 333.646 400.266 334.18 399.491C334.22 399.434 334.26 399.376 334.3 399.319C334.633 398.839 334.974 398.373 335.324 397.922C335.358 397.878 335.393 397.833 335.427 397.789C336.166 396.845 336.942 395.963 337.753 395.144C339.048 393.837 340.435 392.691 341.914 391.705C344.802 389.779 348.216 388.816 352.154 388.816C355.392 388.816 358.193 389.473 360.556 390.786C362.963 392.098 365.107 393.63 366.989 395.381C368.914 397.131 370.752 398.663 372.503 399.975C374.297 401.288 376.179 401.945 378.148 401.945C380.023 401.945 381.688 401.45 383.143 400.461C383.623 400.134 384.081 399.753 384.515 399.319C384.773 399.061 385.03 398.788 385.287 398.499C385.726 398.004 386.163 397.464 386.599 396.878C386.77 396.647 386.952 396.427 387.144 396.217C389.263 393.895 392.554 392.869 395.447 394.177C398.756 395.672 400.25 399.601 398.433 402.745C398.032 403.437 397.624 404.112 397.21 404.768C396.739 405.512 396.259 406.234 395.77 406.931C395.263 407.654 394.746 408.351 394.22 409.023C393.808 409.549 393.39 410.059 392.966 410.553C392.583 411 392.195 411.435 391.801 411.856C388.213 415.707 383.487 417.633 377.623 417.633C374.472 417.633 371.693 416.976 369.286 415.664C366.923 414.351 364.779 412.819 362.854 411.069C360.928 409.318 359.068 407.787 357.274 406.474C355.48 405.161 353.598 404.505 351.629 404.505C349.911 404.505 348.363 404.926 346.986 405.768ZM377.538 386.031C383.075 380.57 392.11 377.305 401.213 381.419C411.214 385.94 416.973 398.649 410.552 409.753C408.074 414.038 405.256 417.956 402.044 421.401L402.04 421.405C395.487 428.435 386.879 431.633 377.623 431.633C372.482 431.633 367.335 430.546 362.582 427.954L362.535 427.928L362.487 427.902C359.219 426.086 356.19 423.931 353.436 421.428C353.046 421.073 352.664 420.733 352.29 420.409C346.758 425.925 337.747 429.095 328.752 425.08C318.501 420.505 312.908 407.536 319.484 396.49C320.537 394.721 321.642 393.002 322.801 391.333C325.886 386.89 329.65 383.055 334.148 380.056C339.636 376.397 345.836 374.816 352.154 374.816C357.283 374.816 362.499 375.863 367.304 378.519C370.624 380.334 373.695 382.509 376.458 385.068C376.826 385.402 377.186 385.723 377.538 386.031Z" fill="#44506A"/>
<path d="M352.154 570C355.392 570 358.193 570.656 360.556 571.969C362.963 573.282 365.107 574.814 366.989 576.564C368.914 578.315 370.752 579.846 372.503 581.159C374.297 582.472 376.179 583.128 378.148 583.128C380.642 583.128 382.765 582.253 384.515 580.503C385.213 579.805 385.908 578.991 386.599 578.061C388.664 575.284 392.293 573.935 395.447 575.36V575.36C398.756 576.856 400.251 580.785 398.433 583.928C396.402 587.439 394.192 590.477 391.801 593.04C388.213 596.891 383.487 598.816 377.623 598.816C374.472 598.816 371.693 598.16 369.286 596.847C366.923 595.534 364.779 594.003 362.854 592.252C360.928 590.502 359.068 588.97 357.274 587.657C355.48 586.345 353.598 585.688 351.629 585.688C349.091 585.688 346.925 586.607 345.131 588.445C344.462 589.148 343.796 589.946 343.133 590.84C341.114 593.564 337.554 594.861 334.458 593.479V593.479C331.106 591.983 329.636 587.989 331.513 584.835C332.404 583.34 333.333 581.895 334.3 580.503C336.488 577.352 339.026 574.814 341.914 572.888C344.802 570.963 348.216 570 352.154 570Z" fill="#DAE2F1"/>
<path fill-rule="evenodd" clip-rule="evenodd" d="M346.986 586.951C346.422 587.296 345.887 587.712 345.38 588.197C345.296 588.278 345.213 588.361 345.13 588.445C344.968 588.615 344.806 588.791 344.645 588.973C344.139 589.54 343.635 590.163 343.133 590.84C342.975 591.054 342.807 591.258 342.631 591.454C340.559 593.751 337.311 594.753 334.458 593.479C331.106 591.983 329.636 587.989 331.513 584.835C331.874 584.23 332.24 583.633 332.613 583.045C333.124 582.239 333.646 581.449 334.18 580.675C334.22 580.617 334.26 580.56 334.3 580.503C334.633 580.023 334.974 579.557 335.324 579.106C335.358 579.061 335.393 579.017 335.427 578.973C336.166 578.028 336.942 577.146 337.753 576.328C339.048 575.021 340.435 573.874 341.914 572.888C344.802 570.963 348.216 570 352.154 570C355.392 570 358.193 570.656 360.556 571.969C362.963 573.282 365.107 574.814 366.989 576.564C368.914 578.315 370.752 579.846 372.503 581.159C374.297 582.472 376.179 583.128 378.148 583.128C380.023 583.128 381.688 582.634 383.143 581.644C383.623 581.318 384.081 580.937 384.515 580.503C384.773 580.245 385.03 579.971 385.287 579.682C385.726 579.188 386.163 578.648 386.599 578.061C386.77 577.831 386.952 577.61 387.144 577.4C389.263 575.079 392.554 574.053 395.447 575.36C398.756 576.856 400.25 580.785 398.433 583.928C398.032 584.621 397.624 585.295 397.21 585.951C396.739 586.696 396.259 587.417 395.77 588.114C395.263 588.838 394.746 589.535 394.22 590.207C393.808 590.732 393.39 591.242 392.966 591.736C392.583 592.184 392.195 592.618 391.801 593.04C388.213 596.891 383.487 598.816 377.623 598.816C374.472 598.816 371.693 598.16 369.286 596.847C366.923 595.534 364.779 594.003 362.854 592.252C360.928 590.502 359.068 588.97 357.274 587.657C355.48 586.345 353.598 585.688 351.629 585.688C349.911 585.688 348.363 586.109 346.986 586.951ZM377.538 567.214C383.075 561.754 392.11 558.488 401.213 562.603C411.214 567.123 416.973 579.833 410.552 590.936C408.074 595.221 405.256 599.139 402.044 602.584L402.04 602.588C395.487 609.618 386.879 612.816 377.623 612.816C372.482 612.816 367.335 611.73 362.582 609.138L362.535 609.112L362.487 609.085C359.219 607.269 356.19 605.115 353.436 602.611C353.046 602.257 352.664 601.917 352.29 601.592C346.758 607.108 337.747 610.278 328.752 606.264C318.501 601.688 312.908 588.72 319.484 577.673C320.537 575.905 321.642 574.185 322.801 572.517C325.886 568.073 329.65 564.238 334.148 561.239C339.636 557.581 345.836 556 352.154 556C357.283 556 362.499 557.047 367.304 559.702C370.624 561.518 373.695 563.693 376.458 566.252C376.826 566.586 377.186 566.906 377.538 567.214Z" fill="#44506A"/>
<path d="M352.154 640.816C355.392 640.816 358.193 641.473 360.556 642.786C362.963 644.098 365.107 645.63 366.989 647.381C368.914 649.131 370.752 650.663 372.503 651.975C374.297 653.288 376.179 653.945 378.148 653.945C380.642 653.945 382.765 653.069 384.515 651.319C385.213 650.621 385.908 649.807 386.599 648.878C388.664 646.1 392.293 644.751 395.447 646.177V646.177C398.756 647.672 400.251 651.601 398.433 654.745C396.402 658.256 394.192 661.293 391.801 663.856C388.213 667.707 383.487 669.633 377.623 669.633C374.472 669.633 371.693 668.976 369.286 667.664C366.923 666.351 364.779 664.819 362.854 663.069C360.928 661.318 359.068 659.787 357.274 658.474C355.48 657.161 353.598 656.505 351.629 656.505C349.091 656.505 346.925 657.424 345.131 659.262C344.462 659.964 343.796 660.762 343.133 661.657C341.114 664.381 337.554 665.677 334.458 664.296V664.296C331.106 662.8 329.636 658.805 331.513 655.651C332.404 654.156 333.333 652.712 334.3 651.319C336.488 648.168 339.026 645.63 341.914 643.705C344.802 641.779 348.216 640.816 352.154 640.816Z" fill="#DAE2F1"/>
<path fill-rule="evenodd" clip-rule="evenodd" d="M346.986 657.768C346.422 658.113 345.887 658.528 345.38 659.014C345.296 659.094 345.213 659.177 345.13 659.262C344.968 659.432 344.806 659.608 344.645 659.789C344.139 660.357 343.635 660.979 343.133 661.657C342.975 661.87 342.807 662.075 342.631 662.27C340.559 664.568 337.311 665.569 334.458 664.296C331.106 662.8 329.636 658.805 331.513 655.651C331.874 655.046 332.24 654.45 332.613 653.861C333.124 653.056 333.646 652.266 334.18 651.491C334.22 651.434 334.26 651.376 334.3 651.319C334.633 650.839 334.974 650.373 335.324 649.922C335.358 649.878 335.393 649.833 335.427 649.789C336.166 648.845 336.942 647.963 337.753 647.144C339.048 645.837 340.435 644.691 341.914 643.705C344.802 641.779 348.216 640.816 352.154 640.816C355.392 640.816 358.193 641.473 360.556 642.786C362.963 644.098 365.107 645.63 366.989 647.381C368.914 649.131 370.752 650.663 372.503 651.975C374.297 653.288 376.179 653.945 378.148 653.945C380.023 653.945 381.688 653.45 383.143 652.461C383.623 652.134 384.081 651.753 384.515 651.319C384.773 651.061 385.03 650.788 385.287 650.499C385.726 650.004 386.163 649.464 386.599 648.878C386.77 648.647 386.952 648.427 387.144 648.217C389.263 645.895 392.554 644.869 395.447 646.177C398.756 647.672 400.25 651.601 398.433 654.745C398.032 655.437 397.624 656.112 397.21 656.768C396.739 657.512 396.259 658.234 395.77 658.931C395.263 659.654 394.746 660.351 394.22 661.023C393.808 661.549 393.39 662.059 392.966 662.553C392.583 663 392.195 663.435 391.801 663.856C388.213 667.707 383.487 669.633 377.623 669.633C374.472 669.633 371.693 668.976 369.286 667.664C366.923 666.351 364.779 664.819 362.854 663.069C360.928 661.318 359.068 659.787 357.274 658.474C355.48 657.161 353.598 656.505 351.629 656.505C349.911 656.505 348.363 656.926 346.986 657.768ZM377.538 638.031C383.075 632.57 392.11 629.305 401.213 633.419C411.214 637.94 416.973 650.649 410.552 661.753C408.074 666.038 405.256 669.956 402.044 673.401L402.04 673.405C395.487 680.435 386.879 683.633 377.623 683.633C372.482 683.633 367.335 682.546 362.582 679.954L362.535 679.928L362.487 679.902C359.219 678.086 356.19 675.931 353.436 673.428C353.046 673.073 352.664 672.733 352.29 672.409C346.758 677.925 337.747 681.095 328.752 677.08C318.501 672.505 312.908 659.536 319.484 648.49C320.537 646.721 321.642 645.002 322.801 643.333C325.886 638.89 329.65 635.055 334.148 632.056C339.636 628.397 345.836 626.816 352.154 626.816C357.283 626.816 362.499 627.863 367.304 630.519C370.624 632.334 373.695 634.509 376.458 637.068C376.826 637.402 377.186 637.723 377.538 638.031Z" fill="#44506A"/>
</svg>
