<svg width="724" height="492" viewBox="0 0 724 492" fill="none" xmlns="http://www.w3.org/2000/svg">
<path d="M110.813 64.9127C117.364 58.3624 127.984 58.3624 134.534 64.9127L179.761 110.14C186.311 116.69 186.311 127.31 179.761 133.86L134.534 179.087C127.984 185.638 117.364 185.638 110.813 179.087L65.5866 133.86C59.0362 127.31 59.0362 116.69 65.5866 110.14L110.813 64.9127Z" fill="#E3C8D5" stroke="#DD66A1" stroke-width="24"/>
<path d="M134.534 312.913L179.761 358.14C186.311 364.69 186.311 375.31 179.761 381.86L134.534 427.087C127.984 433.638 117.364 433.638 110.813 427.087L65.5866 381.86C59.0362 375.31 59.0362 364.69 65.5866 358.14L110.813 312.913C117.364 306.362 127.984 306.362 134.534 312.913Z" fill="#E3C8D5" stroke="#DD66A1" stroke-width="24"/>
<path d="M582.814 64.9127C589.364 58.3624 599.984 58.3624 606.535 64.9127L651.762 110.14C658.312 116.69 658.312 127.31 651.762 133.86L606.535 179.087C599.984 185.638 589.364 185.638 582.814 179.087L537.587 133.86C531.037 127.31 531.037 116.69 537.587 110.14L582.814 64.9127Z" fill="#E3C8D5" stroke="#DD66A1" stroke-width="24"/>
<path d="M578.083 317.579C585.457 304.807 603.892 304.807 611.265 317.579L660.735 403.263C668.109 416.035 658.892 432 644.144 432H545.204C530.457 432 521.239 416.035 528.613 403.263L578.083 317.579Z" fill="#E3C8D5" stroke="#DD66A1" stroke-width="24"/>
<mask id="path-6-outside-1_533_2264" maskUnits="userSpaceOnUse" x="310.362" y="47" width="104" height="115" fill="black">
<rect fill="white" x="310.362" y="47" width="104" height="115"/>
<path fill-rule="evenodd" clip-rule="evenodd" d="M355.23 62.9692C352.867 61.6564 350.066 61 346.828 61C342.89 61 339.476 61.9627 336.588 63.8882C333.7 65.8137 331.162 68.3518 328.974 71.5026C328.006 72.8954 327.078 74.3396 326.187 75.835C324.31 78.9888 325.78 82.9832 329.132 84.4791C332.228 85.861 335.788 84.5645 337.807 81.8403C338.47 80.946 339.135 80.1476 339.804 79.4451C341.599 77.6072 343.765 76.6882 346.303 76.6882C348.272 76.6882 350.154 77.3446 351.948 78.6574C353.742 79.9703 355.602 81.5019 357.527 83.2523C359.453 85.0027 361.597 86.5344 363.96 87.8472C366.367 89.16 369.146 89.8164 372.297 89.8164C378.161 89.8164 382.887 87.8909 386.475 84.04C388.866 81.4766 391.076 78.4393 393.107 74.9282C394.924 71.7846 393.43 67.8558 390.121 66.3603C386.967 64.9348 383.338 66.2837 381.273 69.0611C380.582 69.9908 379.887 70.8046 379.189 71.5026C377.439 73.253 375.316 74.1282 372.822 74.1282C370.853 74.1282 368.971 73.4718 367.177 72.159C365.426 70.8462 363.588 69.3145 361.663 67.5641C359.781 65.8137 357.637 64.2821 355.23 62.9692ZM361.23 120.969C358.867 119.656 356.066 119 352.828 119C348.89 119 345.476 119.963 342.588 121.888C339.7 123.814 337.162 126.352 334.974 129.503C334.006 130.895 333.078 132.34 332.187 133.835C330.31 136.989 331.78 140.983 335.132 142.479C338.228 143.861 341.788 142.564 343.807 139.84C344.47 138.946 345.135 138.148 345.804 137.445C347.599 135.607 349.765 134.688 352.303 134.688C354.272 134.688 356.154 135.345 357.948 136.657C359.742 137.97 361.602 139.502 363.527 141.252C365.453 143.003 367.597 144.534 369.96 145.847C372.367 147.16 375.146 147.816 378.297 147.816C384.161 147.816 388.887 145.891 392.475 142.04C394.866 139.477 397.076 136.439 399.107 132.928C400.924 129.785 399.43 125.856 396.121 124.36C392.967 122.935 389.338 124.284 387.273 127.061C386.582 127.991 385.887 128.805 385.189 129.503C383.439 131.253 381.316 132.128 378.822 132.128C376.853 132.128 374.971 131.472 373.177 130.159C371.426 128.846 369.588 127.315 367.663 125.564C365.781 123.814 363.637 122.282 361.23 120.969Z"/>
</mask>
<path fill-rule="evenodd" clip-rule="evenodd" d="M355.23 62.9692C352.867 61.6564 350.066 61 346.828 61C342.89 61 339.476 61.9627 336.588 63.8882C333.7 65.8137 331.162 68.3518 328.974 71.5026C328.006 72.8954 327.078 74.3396 326.187 75.835C324.31 78.9888 325.78 82.9832 329.132 84.4791C332.228 85.861 335.788 84.5645 337.807 81.8403C338.47 80.946 339.135 80.1476 339.804 79.4451C341.599 77.6072 343.765 76.6882 346.303 76.6882C348.272 76.6882 350.154 77.3446 351.948 78.6574C353.742 79.9703 355.602 81.5019 357.527 83.2523C359.453 85.0027 361.597 86.5344 363.96 87.8472C366.367 89.16 369.146 89.8164 372.297 89.8164C378.161 89.8164 382.887 87.8909 386.475 84.04C388.866 81.4766 391.076 78.4393 393.107 74.9282C394.924 71.7846 393.43 67.8558 390.121 66.3603C386.967 64.9348 383.338 66.2837 381.273 69.0611C380.582 69.9908 379.887 70.8046 379.189 71.5026C377.439 73.253 375.316 74.1282 372.822 74.1282C370.853 74.1282 368.971 73.4718 367.177 72.159C365.426 70.8462 363.588 69.3145 361.663 67.5641C359.781 65.8137 357.637 64.2821 355.23 62.9692ZM361.23 120.969C358.867 119.656 356.066 119 352.828 119C348.89 119 345.476 119.963 342.588 121.888C339.7 123.814 337.162 126.352 334.974 129.503C334.006 130.895 333.078 132.34 332.187 133.835C330.31 136.989 331.78 140.983 335.132 142.479C338.228 143.861 341.788 142.564 343.807 139.84C344.47 138.946 345.135 138.148 345.804 137.445C347.599 135.607 349.765 134.688 352.303 134.688C354.272 134.688 356.154 135.345 357.948 136.657C359.742 137.97 361.602 139.502 363.527 141.252C365.453 143.003 367.597 144.534 369.96 145.847C372.367 147.16 375.146 147.816 378.297 147.816C384.161 147.816 388.887 145.891 392.475 142.04C394.866 139.477 397.076 136.439 399.107 132.928C400.924 129.785 399.43 125.856 396.121 124.36C392.967 122.935 389.338 124.284 387.273 127.061C386.582 127.991 385.887 128.805 385.189 129.503C383.439 131.253 381.316 132.128 378.822 132.128C376.853 132.128 374.971 131.472 373.177 130.159C371.426 128.846 369.588 127.315 367.663 125.564C365.781 123.814 363.637 122.282 361.23 120.969Z" fill="#DAE2F2"/>
<path d="M355.23 62.9692L348.431 75.2074L348.478 75.2338L348.526 75.2598L355.23 62.9692ZM336.588 63.8882L328.822 52.2395L328.822 52.2395L336.588 63.8882ZM328.974 71.5026L340.473 79.4881L340.473 79.4881L328.974 71.5026ZM326.187 75.835L338.217 82.9966L338.217 82.9966L326.187 75.835ZM329.132 84.4791L323.426 97.2635L329.132 84.4791ZM337.807 81.8403L326.558 73.5053L326.558 73.5053L337.807 81.8403ZM339.804 79.4451L329.786 69.6656L329.726 69.7274L329.666 69.79L339.804 79.4451ZM351.948 78.6574L360.215 67.359L360.215 67.359L351.948 78.6574ZM357.527 83.2523L366.945 72.8932L366.945 72.8931L357.527 83.2523ZM363.96 87.8472L357.161 100.085L357.209 100.112L357.256 100.138L363.96 87.8472ZM386.475 84.04L376.237 74.4916L376.233 74.4958L386.475 84.04ZM393.107 74.9282L405.226 81.9364L405.226 81.9364L393.107 74.9282ZM390.121 66.3603L384.354 79.1177L384.355 79.1177L390.121 66.3603ZM381.273 69.0611L392.507 77.415L392.507 77.415L381.273 69.0611ZM379.189 71.5026L389.088 81.4021L389.089 81.402L379.189 71.5026ZM367.177 72.159L358.777 83.359L358.843 83.4086L358.91 83.4574L367.177 72.159ZM361.663 67.5641L352.127 77.8147L352.186 77.8693L352.245 77.9233L361.663 67.5641ZM361.23 120.969L354.431 133.207L354.478 133.234L354.526 133.26L361.23 120.969ZM342.588 121.888L334.822 110.239L334.822 110.239L342.588 121.888ZM334.974 129.503L346.473 137.488L346.473 137.488L334.974 129.503ZM332.187 133.835L344.217 140.997L344.217 140.997L332.187 133.835ZM335.132 142.479L340.838 129.695L340.838 129.695L335.132 142.479ZM343.807 139.84L355.055 148.175L355.055 148.175L343.807 139.84ZM345.804 137.445L335.786 127.666L335.726 127.727L335.666 127.79L345.804 137.445ZM357.948 136.657L366.215 125.359L366.215 125.359L357.948 136.657ZM363.527 141.252L372.945 130.893L372.945 130.893L363.527 141.252ZM369.96 145.847L363.161 158.085L363.209 158.112L363.256 158.138L369.96 145.847ZM392.475 142.04L382.237 132.492L382.233 132.496L392.475 142.04ZM399.107 132.928L411.226 139.936L411.226 139.936L399.107 132.928ZM396.121 124.36L390.355 137.118L390.355 137.118L396.121 124.36ZM387.273 127.061L398.507 135.415L398.507 135.415L387.273 127.061ZM373.177 130.159L364.777 141.359L364.843 141.409L364.91 141.457L373.177 130.159ZM367.663 125.564L358.127 135.815L358.186 135.869L358.245 135.923L367.663 125.564ZM346.828 75C348.157 75 348.523 75.2587 348.431 75.2074L362.029 50.731C357.211 48.0541 351.975 47 346.828 47V75ZM344.354 75.5369C344.642 75.3446 345.269 75 346.828 75V47C340.51 47 334.31 48.5808 328.822 52.2395L344.354 75.5369ZM340.473 79.4881C341.763 77.6302 343.075 76.3891 344.354 75.5369L328.822 52.2395C324.324 55.2382 320.56 59.0734 317.474 63.517L340.473 79.4881ZM338.217 82.9966C338.944 81.7745 339.697 80.6056 340.473 79.4881L317.474 63.517C316.316 65.1852 315.211 66.9046 314.158 68.6735L338.217 82.9966ZM334.838 71.6947C338.385 73.278 341.038 78.2578 338.217 82.9966L314.158 68.6735C307.582 79.7198 313.175 92.6883 323.426 97.2635L334.838 71.6947ZM326.558 73.5053C327.646 72.0381 330.787 69.8869 334.838 71.6947L323.426 97.2635C333.668 101.835 343.931 97.0908 349.055 90.1752L326.558 73.5053ZM329.666 69.79C328.548 70.9647 327.515 72.2144 326.558 73.5053L349.055 90.1752C349.424 89.6776 349.723 89.3306 349.942 89.1003L329.666 69.79ZM346.303 62.6882C339.943 62.6882 334.18 65.1653 329.786 69.6656L349.822 89.2246C349.543 89.5108 349.018 89.9366 348.242 90.2656C347.464 90.596 346.763 90.6882 346.303 90.6882V62.6882ZM360.215 67.359C356.345 64.5273 351.622 62.6882 346.303 62.6882V90.6882C345.698 90.6882 345.103 90.5819 344.58 90.3993C344.073 90.2224 343.773 90.0235 343.681 89.9559L360.215 67.359ZM366.945 72.8931C364.713 70.864 362.47 69.0086 360.215 67.359L343.681 89.9559C345.015 90.9319 346.491 92.1397 348.11 93.6115L366.945 72.8931ZM370.759 75.609C369.302 74.7993 368.042 73.8909 366.945 72.8932L348.11 93.6115C350.863 96.1146 353.893 98.2694 357.161 100.085L370.759 75.609ZM372.297 75.8164C371.135 75.8164 370.726 75.5901 370.664 75.5566L357.256 100.138C362.009 102.73 367.156 103.816 372.297 103.816V75.8164ZM376.233 74.4958C375.609 75.1649 374.767 75.8164 372.297 75.8164V103.816C381.555 103.816 390.164 100.617 396.718 93.5841L376.233 74.4958ZM380.987 67.9199C379.405 70.6556 377.804 72.8108 376.237 74.4916L396.714 93.5883C399.927 90.1424 402.747 86.2231 405.226 81.9364L380.987 67.9199ZM384.355 79.1177C380.971 77.5886 378.202 72.7361 380.987 67.9199L405.226 81.9364C411.647 70.8331 405.888 58.1231 395.887 53.6028L384.355 79.1177ZM392.507 77.415C391.883 78.255 390.933 79.0214 389.611 79.4506C388.203 79.9078 386.271 79.9841 384.354 79.1177L395.887 53.6028C385.466 48.893 375.135 53.8532 370.038 60.7073L392.507 77.415ZM389.089 81.402C390.343 80.1478 391.477 78.8004 392.507 77.415L370.038 60.7073C369.686 61.1813 369.431 61.4615 369.289 61.6031L389.089 81.402ZM372.822 88.1282C378.997 88.1282 384.69 85.8004 389.088 81.4021L369.29 61.6031C369.616 61.2762 370.172 60.8487 370.947 60.5291C371.72 60.2103 372.397 60.1282 372.822 60.1282V88.1282ZM358.91 83.4574C362.78 86.2891 367.503 88.1282 372.822 88.1282V60.1282C373.426 60.1282 374.021 60.2345 374.545 60.4171C375.052 60.594 375.351 60.7929 375.444 60.8606L358.91 83.4574ZM352.245 77.9233C354.438 79.9163 356.616 81.7383 358.777 83.359L375.577 60.959C374.237 59.9541 372.739 58.7128 371.08 57.2049L352.245 77.9233ZM348.526 75.2598C349.976 76.0505 351.156 76.9109 352.127 77.8147L371.198 57.3135C368.407 54.7165 365.298 52.5136 361.934 50.6787L348.526 75.2598ZM352.828 133C354.157 133 354.523 133.259 354.431 133.207L368.029 108.731C363.211 106.054 357.975 105 352.828 105V133ZM350.354 133.537C350.642 133.345 351.269 133 352.828 133V105C346.51 105 340.31 106.581 334.822 110.239L350.354 133.537ZM346.473 137.488C347.763 135.63 349.075 134.389 350.354 133.537L334.822 110.239C330.324 113.238 326.56 117.073 323.474 121.517L346.473 137.488ZM344.217 140.997C344.944 139.775 345.697 138.606 346.473 137.488L323.474 121.517C322.316 123.185 321.211 124.905 320.158 126.673L344.217 140.997ZM340.838 129.695C344.385 131.278 347.038 136.258 344.217 140.997L320.158 126.673C313.582 137.72 319.175 150.688 329.426 155.264L340.838 129.695ZM332.558 131.505C333.646 130.038 336.787 127.887 340.838 129.695L329.426 155.264C339.668 159.835 349.931 155.091 355.055 148.175L332.558 131.505ZM335.666 127.79C334.548 128.965 333.515 130.214 332.558 131.505L355.055 148.175C355.424 147.678 355.723 147.331 355.942 147.1L335.666 127.79ZM352.303 120.688C345.943 120.688 340.18 123.165 335.786 127.666L355.822 147.225C355.543 147.511 355.018 147.937 354.242 148.266C353.464 148.596 352.763 148.688 352.303 148.688V120.688ZM366.215 125.359C362.345 122.527 357.622 120.688 352.303 120.688V148.688C351.698 148.688 351.103 148.582 350.58 148.399C350.073 148.222 349.773 148.024 349.681 147.956L366.215 125.359ZM372.945 130.893C370.713 128.864 368.47 127.009 366.215 125.359L349.681 147.956C351.015 148.932 352.491 150.14 354.11 151.611L372.945 130.893ZM376.759 133.609C375.302 132.799 374.042 131.891 372.945 130.893L354.11 151.611C356.863 154.115 359.893 156.269 363.161 158.085L376.759 133.609ZM378.297 133.816C377.135 133.816 376.726 133.59 376.664 133.557L363.256 158.138C368.009 160.73 373.156 161.816 378.297 161.816V133.816ZM382.233 132.496C381.609 133.165 380.767 133.816 378.297 133.816V161.816C387.555 161.816 396.164 158.617 402.718 151.584L382.233 132.496ZM386.987 125.92C385.405 128.656 383.804 130.811 382.237 132.492L402.714 151.588C405.927 148.142 408.747 144.223 411.226 139.936L386.987 125.92ZM390.355 137.118C386.971 135.589 384.202 130.736 386.987 125.92L411.226 139.936C417.647 128.833 411.888 116.123 401.887 111.603L390.355 137.118ZM398.507 135.415C397.883 136.255 396.933 137.021 395.611 137.451C394.203 137.908 392.271 137.984 390.355 137.118L401.887 111.603C391.466 106.893 381.135 111.853 376.038 118.707L398.507 135.415ZM395.088 139.402C396.343 138.148 397.477 136.8 398.507 135.415L376.038 118.707C375.686 119.181 375.431 119.461 375.29 119.603L395.088 139.402ZM378.822 146.128C384.997 146.128 390.69 143.8 395.088 139.402L375.29 119.603C375.616 119.276 376.172 118.849 376.947 118.529C377.72 118.21 378.397 118.128 378.822 118.128V146.128ZM364.91 141.457C368.78 144.289 373.503 146.128 378.822 146.128V118.128C379.426 118.128 380.021 118.235 380.545 118.417C381.052 118.594 381.351 118.793 381.444 118.861L364.91 141.457ZM358.245 135.923C360.438 137.916 362.616 139.738 364.777 141.359L381.577 118.959C380.237 117.954 378.739 116.713 377.08 115.205L358.245 135.923ZM354.526 133.26C355.976 134.051 357.156 134.911 358.127 135.815L377.198 115.313C374.407 112.716 371.298 110.514 367.934 108.679L354.526 133.26Z" fill="#44506A" mask="url(#path-6-outside-1_533_2264)"/>
<mask id="path-8-outside-2_533_2264" maskUnits="userSpaceOnUse" x="310.362" y="298.605" width="104" height="142" fill="black">
<rect fill="white" x="310.362" y="298.605" width="104" height="142"/>
<path fill-rule="evenodd" clip-rule="evenodd" d="M337.935 418.259C336.86 421.247 338.411 424.541 341.399 425.616C344.388 426.691 347.681 425.14 348.756 422.152L356.413 400.869C356.931 401.134 357.443 401.451 357.948 401.821C359.742 403.134 361.602 404.665 363.527 406.416C365.453 408.166 367.597 409.698 369.96 411.011C372.367 412.323 375.146 412.98 378.297 412.98C384.161 412.98 388.887 411.054 392.475 407.203C394.866 404.64 397.076 401.603 399.107 398.092C400.924 394.948 399.43 391.019 396.121 389.524C392.967 388.098 389.338 389.447 387.273 392.225C386.582 393.154 385.887 393.968 385.189 394.666C383.439 396.416 381.316 397.292 378.822 397.292C376.853 397.292 374.971 396.635 373.177 395.322C371.426 394.01 369.588 392.478 367.663 390.728C365.887 389.076 363.877 387.618 361.634 386.356L372.923 354.972C378.498 354.839 383.016 352.916 386.475 349.203C388.866 346.64 391.076 343.603 393.107 340.092C394.924 336.948 393.43 333.019 390.121 331.524C386.967 330.098 383.338 331.447 381.273 334.225C380.751 334.927 380.227 335.563 379.701 336.133L385.035 321.303C386.11 318.315 384.559 315.021 381.571 313.946C378.583 312.872 375.289 314.422 374.214 317.411L367.078 337.248C365.357 335.952 363.552 334.445 361.663 332.728C359.781 330.977 357.637 329.445 355.23 328.133C352.867 326.82 350.066 326.163 346.828 326.163C342.89 326.163 339.476 327.126 336.588 329.052C333.7 330.977 331.162 333.515 328.974 336.666C328.006 338.059 327.078 339.503 326.187 340.998C324.31 344.152 325.78 348.147 329.132 349.643C332.228 351.024 335.788 349.728 337.807 347.004C338.47 346.109 339.135 345.311 339.804 344.609C341.599 342.771 343.765 341.852 346.303 341.852C348.272 341.852 350.154 342.508 351.948 343.821C353.742 345.134 355.602 346.665 357.527 348.416C358.866 349.633 360.311 350.744 361.861 351.75L350.144 384.322C347.317 384.668 344.799 385.578 342.588 387.052C339.7 388.977 337.162 391.515 334.974 394.666C334.006 396.059 333.078 397.503 332.187 398.998C330.31 402.152 331.78 406.147 335.132 407.643C337.473 408.688 340.08 408.201 342.085 406.723L337.935 418.259Z"/>
</mask>
<path fill-rule="evenodd" clip-rule="evenodd" d="M337.935 418.259C336.86 421.247 338.411 424.541 341.399 425.616C344.388 426.691 347.681 425.14 348.756 422.152L356.413 400.869C356.931 401.134 357.443 401.451 357.948 401.821C359.742 403.134 361.602 404.665 363.527 406.416C365.453 408.166 367.597 409.698 369.96 411.011C372.367 412.323 375.146 412.98 378.297 412.98C384.161 412.98 388.887 411.054 392.475 407.203C394.866 404.64 397.076 401.603 399.107 398.092C400.924 394.948 399.43 391.019 396.121 389.524C392.967 388.098 389.338 389.447 387.273 392.225C386.582 393.154 385.887 393.968 385.189 394.666C383.439 396.416 381.316 397.292 378.822 397.292C376.853 397.292 374.971 396.635 373.177 395.322C371.426 394.01 369.588 392.478 367.663 390.728C365.887 389.076 363.877 387.618 361.634 386.356L372.923 354.972C378.498 354.839 383.016 352.916 386.475 349.203C388.866 346.64 391.076 343.603 393.107 340.092C394.924 336.948 393.43 333.019 390.121 331.524C386.967 330.098 383.338 331.447 381.273 334.225C380.751 334.927 380.227 335.563 379.701 336.133L385.035 321.303C386.11 318.315 384.559 315.021 381.571 313.946C378.583 312.872 375.289 314.422 374.214 317.411L367.078 337.248C365.357 335.952 363.552 334.445 361.663 332.728C359.781 330.977 357.637 329.445 355.23 328.133C352.867 326.82 350.066 326.163 346.828 326.163C342.89 326.163 339.476 327.126 336.588 329.052C333.7 330.977 331.162 333.515 328.974 336.666C328.006 338.059 327.078 339.503 326.187 340.998C324.31 344.152 325.78 348.147 329.132 349.643C332.228 351.024 335.788 349.728 337.807 347.004C338.47 346.109 339.135 345.311 339.804 344.609C341.599 342.771 343.765 341.852 346.303 341.852C348.272 341.852 350.154 342.508 351.948 343.821C353.742 345.134 355.602 346.665 357.527 348.416C358.866 349.633 360.311 350.744 361.861 351.75L350.144 384.322C347.317 384.668 344.799 385.578 342.588 387.052C339.7 388.977 337.162 391.515 334.974 394.666C334.006 396.059 333.078 397.503 332.187 398.998C330.31 402.152 331.78 406.147 335.132 407.643C337.473 408.688 340.08 408.201 342.085 406.723L337.935 418.259Z" fill="#DAE2F2"/>
<path d="M341.399 425.616L346.139 412.443L346.139 412.443L341.399 425.616ZM337.935 418.259L324.762 413.52L324.762 413.52L337.935 418.259ZM348.756 422.152L361.93 426.891L361.93 426.891L348.756 422.152ZM356.413 400.869L362.791 388.406L348.626 381.156L343.239 396.13L356.413 400.869ZM357.948 401.821L349.681 413.119L349.681 413.119L357.948 401.821ZM363.527 406.416L372.945 396.057L372.945 396.057L363.527 406.416ZM369.96 411.011L363.161 423.249L363.209 423.275L363.256 423.301L369.96 411.011ZM392.475 407.203L382.237 397.655L382.233 397.659L392.475 407.203ZM399.107 398.092L411.226 405.1L411.226 405.1L399.107 398.092ZM396.121 389.524L401.887 376.766L401.887 376.766L396.121 389.524ZM387.273 392.225L376.038 383.871L376.038 383.871L387.273 392.225ZM373.177 395.322L364.777 406.522L364.843 406.572L364.91 406.621L373.177 395.322ZM367.663 390.728L358.127 400.978L358.186 401.033L358.245 401.087L367.663 390.728ZM361.634 386.356L348.46 381.617L344.453 392.754L354.769 398.558L361.634 386.356ZM372.923 354.972L372.589 340.976L362.998 341.206L359.75 350.233L372.923 354.972ZM386.475 349.203L376.237 339.655L376.233 339.659L386.475 349.203ZM393.107 340.092L405.226 347.1L405.226 347.1L393.107 340.092ZM390.121 331.524L395.887 318.766L395.887 318.766L390.121 331.524ZM381.273 334.225L370.038 325.871L370.038 325.871L381.273 334.225ZM379.701 336.133L366.527 331.394L389.99 345.627L379.701 336.133ZM385.035 321.303L398.209 326.042L398.209 326.042L385.035 321.303ZM381.571 313.946L386.31 300.773L386.31 300.773L381.571 313.946ZM374.214 317.411L361.041 312.672L361.041 312.672L374.214 317.411ZM367.078 337.248L358.655 348.431L373.823 359.857L380.252 341.987L367.078 337.248ZM361.663 332.728L352.127 342.978L352.186 343.033L352.245 343.087L361.663 332.728ZM355.23 328.133L348.431 340.371L348.478 340.397L348.526 340.423L355.23 328.133ZM336.588 329.052L328.822 317.403L328.822 317.403L336.588 329.052ZM328.974 336.666L340.473 344.652L340.473 344.652L328.974 336.666ZM326.187 340.998L314.158 333.837L314.158 333.837L326.187 340.998ZM329.132 349.643L323.426 362.427L323.426 362.427L329.132 349.643ZM337.807 347.004L349.055 355.339L349.055 355.339L337.807 347.004ZM339.804 344.609L329.786 334.829L329.726 334.891L329.666 334.953L339.804 344.609ZM351.948 343.821L360.215 332.522L360.215 332.522L351.948 343.821ZM357.527 348.416L366.945 338.057L366.945 338.057L357.527 348.416ZM361.861 351.75L375.035 356.489L378.792 346.044L369.479 340.004L361.861 351.75ZM350.144 384.322L351.843 398.219L360.399 397.172L363.317 389.061L350.144 384.322ZM342.588 387.052L334.822 375.403L334.822 375.403L342.588 387.052ZM334.974 394.666L323.474 386.68L323.474 386.68L334.974 394.666ZM332.187 398.998L344.217 406.16L344.217 406.16L332.187 398.998ZM335.132 407.643L340.838 394.858L340.838 394.858L335.132 407.643ZM342.085 406.723L355.259 411.462L370.847 368.131L333.779 395.454L342.085 406.723ZM346.139 412.443C350.426 413.985 352.651 418.711 351.109 422.998L324.762 413.52C321.07 423.784 326.397 435.097 336.66 438.79L346.139 412.443ZM335.583 417.413C337.125 413.126 341.851 410.9 346.139 412.443L336.66 438.79C346.924 442.482 358.238 437.155 361.93 426.891L335.583 417.413ZM343.239 396.13L335.583 417.413L361.93 426.891L369.586 405.608L343.239 396.13ZM350.034 413.331C349.848 413.236 349.73 413.156 349.681 413.119L366.215 390.522C365.156 389.747 364.015 389.033 362.791 388.406L350.034 413.331ZM349.681 413.119C351.015 414.095 352.491 415.303 354.11 416.775L372.945 396.057C370.713 394.027 368.47 392.172 366.215 390.522L349.681 413.119ZM354.11 416.775C356.863 419.278 359.893 421.433 363.161 423.249L376.759 398.772C375.302 397.963 374.042 397.054 372.945 396.057L354.11 416.775ZM363.256 423.301C368.009 425.893 373.156 426.98 378.297 426.98V398.98C377.135 398.98 376.726 398.754 376.664 398.72L363.256 423.301ZM378.297 426.98C387.555 426.98 396.164 423.78 402.718 416.748L382.233 397.659C381.609 398.328 380.767 398.98 378.297 398.98V426.98ZM402.714 416.752C405.927 413.306 408.747 409.387 411.226 405.1L386.987 391.083C385.405 393.819 383.804 395.974 382.237 397.655L402.714 416.752ZM411.226 405.1C417.647 393.996 411.888 381.287 401.887 376.766L390.355 402.281C386.971 400.752 384.202 395.9 386.987 391.083L411.226 405.1ZM401.887 376.766C391.466 372.056 381.135 377.017 376.038 383.871L398.507 400.578C397.883 401.418 396.933 402.185 395.611 402.614C394.203 403.071 392.271 403.148 390.355 402.281L401.887 376.766ZM376.038 383.871C375.686 384.345 375.431 384.625 375.29 384.766L395.088 404.565C396.343 403.311 397.477 401.964 398.507 400.578L376.038 383.871ZM375.29 384.766C375.616 384.44 376.172 384.012 376.947 383.692C377.72 383.374 378.397 383.292 378.822 383.292V411.292C384.997 411.292 390.69 408.964 395.088 404.565L375.29 384.766ZM378.822 383.292C379.426 383.292 380.021 383.398 380.545 383.581C381.052 383.757 381.351 383.956 381.444 384.024L364.91 406.621C368.78 409.453 373.503 411.292 378.822 411.292V383.292ZM381.577 384.122C380.237 383.117 378.739 381.876 377.08 380.368L358.245 401.087C360.438 403.08 362.616 404.902 364.777 406.522L381.577 384.122ZM377.198 380.477C374.564 378.027 371.647 375.926 368.498 374.155L354.769 398.558C356.107 399.311 357.21 400.124 358.127 400.978L377.198 380.477ZM359.75 350.233L348.46 381.617L374.807 391.095L386.097 359.711L359.75 350.233ZM373.258 368.968C382.189 368.755 390.422 365.504 396.718 358.748L376.233 339.659C375.609 340.328 374.807 340.923 372.589 340.976L373.258 368.968ZM396.714 358.752C399.927 355.306 402.747 351.387 405.226 347.1L380.987 333.083C379.405 335.819 377.804 337.974 376.237 339.655L396.714 358.752ZM405.226 347.1C411.647 335.996 405.888 323.287 395.887 318.766L384.354 344.281C380.971 342.752 378.202 337.9 380.987 333.083L405.226 347.1ZM395.887 318.766C385.466 314.056 375.135 319.017 370.038 325.871L392.507 342.578C391.883 343.418 390.933 344.185 389.611 344.614C388.203 345.071 386.271 345.147 384.355 344.281L395.887 318.766ZM370.038 325.871C369.774 326.226 369.563 326.475 369.412 326.639L389.99 345.627C390.89 344.651 391.727 343.628 392.507 342.578L370.038 325.871ZM371.862 316.564L366.527 331.394L392.874 340.872L398.209 326.042L371.862 316.564ZM376.832 327.12C372.545 325.578 370.32 320.852 371.862 316.564L398.209 326.042C401.901 315.779 396.574 304.465 386.31 300.773L376.832 327.12ZM387.388 322.15C385.846 326.437 381.12 328.662 376.832 327.12L386.31 300.773C376.047 297.081 364.733 302.408 361.041 312.672L387.388 322.15ZM380.252 341.987L387.388 322.15L361.041 312.672L353.905 332.509L380.252 341.987ZM375.501 326.066C374.18 325.071 372.707 323.848 371.08 322.368L352.245 343.087C354.397 345.043 356.534 346.833 358.655 348.431L375.501 326.066ZM371.198 322.477C368.407 319.88 365.298 317.677 361.934 315.842L348.526 340.423C349.976 341.214 351.156 342.074 352.127 342.978L371.198 322.477ZM362.029 315.894C357.211 313.218 351.975 312.163 346.828 312.163V340.163C348.157 340.163 348.523 340.422 348.431 340.371L362.029 315.894ZM346.828 312.163C340.51 312.163 334.31 313.744 328.822 317.403L344.354 340.7C344.642 340.508 345.269 340.163 346.828 340.163V312.163ZM328.822 317.403C324.324 320.402 320.56 324.237 317.474 328.68L340.473 344.652C341.763 342.794 343.075 341.553 344.354 340.7L328.822 317.403ZM317.474 328.68C316.316 330.349 315.211 332.068 314.158 333.837L338.217 348.16C338.944 346.938 339.697 345.769 340.473 344.652L317.474 328.68ZM314.158 333.837C307.582 344.883 313.175 357.852 323.426 362.427L334.838 336.858C338.385 338.441 341.038 343.421 338.217 348.16L314.158 333.837ZM323.426 362.427C333.668 366.999 343.931 362.254 349.055 355.339L326.558 338.669C327.646 337.202 330.787 335.05 334.838 336.858L323.426 362.427ZM349.055 355.339C349.424 354.841 349.723 354.494 349.942 354.264L329.666 334.953C328.548 336.128 327.515 337.378 326.558 338.669L349.055 355.339ZM349.822 354.388C349.543 354.674 349.018 355.1 348.242 355.429C347.464 355.759 346.763 355.852 346.303 355.852V327.852C339.943 327.852 334.18 330.329 329.786 334.829L349.822 354.388ZM346.303 355.852C345.698 355.852 345.103 355.745 344.58 355.563C344.073 355.386 343.773 355.187 343.681 355.119L360.215 332.522C356.345 329.691 351.622 327.852 346.303 327.852V355.852ZM343.681 355.119C345.015 356.095 346.491 357.303 348.11 358.775L366.945 338.057C364.713 336.027 362.47 334.172 360.215 332.522L343.681 355.119ZM348.11 358.775C350.022 360.513 352.07 362.086 354.243 363.496L369.479 340.004C368.552 339.402 367.711 338.753 366.945 338.057L348.11 358.775ZM363.317 389.061L375.035 356.489L348.688 347.011L336.97 379.583L363.317 389.061ZM348.444 370.426C343.607 371.017 338.981 372.631 334.822 375.403L350.354 398.7C350.617 398.525 351.028 398.318 351.843 398.219L348.444 370.426ZM334.822 375.403C330.324 378.402 326.56 382.237 323.474 386.68L346.473 402.652C347.763 400.794 349.075 399.553 350.354 398.7L334.822 375.403ZM323.474 386.68C322.316 388.349 321.211 390.068 320.158 391.837L344.217 406.16C344.944 404.938 345.697 403.769 346.473 402.652L323.474 386.68ZM320.158 391.837C313.582 402.883 319.175 415.852 329.426 420.427L340.838 394.858C344.385 396.441 347.038 401.421 344.217 406.16L320.158 391.837ZM329.426 420.427C337.102 423.853 345.018 421.953 350.392 417.992L333.779 395.454C335.142 394.448 337.844 393.522 340.838 394.858L329.426 420.427ZM351.109 422.998L355.259 411.462L328.912 401.984L324.762 413.52L351.109 422.998Z" fill="#44506A" mask="url(#path-8-outside-2_533_2264)"/>
</svg>
