<svg width="1288" height="12" viewBox="0 0 1288 12" fill="none" xmlns="http://www.w3.org/2000/svg">
<g clip-path="url(#clip0_13839_55615)">
<path d="M1288 0V9.00391C1281 9.00391 1281 3.00391 1274 3.00391C1267 3.00391 1267 9.00391 1260 9.00391C1253 9.00391 1253 3.00391 1246 3.00391C1239 3.00391 1239 9.00391 1232 9.00391C1225 9.00391 1225 3.00391 1218 3.00391C1211 3.00391 1211 9.00391 1204 9.00391C1197 9.00391 1197 3.00391 1190 3.00391C1183 3.00391 1183 9.00391 1176 9.00391C1169 9.00391 1169 3.00391 1162 3.00391C1155 3.00391 1155 9.00391 1148 9.00391C1141 9.00391 1141 3.00391 1134 3.00391C1127 3.00391 1127 9.00391 1120 9.00391C1113 9.00391 1113 3.00391 1106 3.00391C1099 3.00391 1099 9.00391 1092 9.00391C1085 9.00391 1085 3.00391 1078 3.00391C1071 3.00391 1071 9.00391 1064 9.00391C1057 9.00391 1057 3.00391 1050 3.00391C1043 3.00391 1043 9.00391 1036 9.00391C1029 9.00391 1029 3.00391 1022 3.00391C1015 3.00391 1015 9.00391 1008 9.00391C1001 9.00391 1001 3.00391 994 3.00391C987 3.00391 987 9.00391 980 9.00391C973 9.00391 973 3.00391 966 3.00391C959 3.00391 959 9.00391 952 9.00391C945 9.00391 945 3.00391 938 3.00391C931 3.00391 931 9.00391 924 9.00391C917 9.00391 917 3.00391 910 3.00391C903 3.00391 903 9.00391 896 9.00391C889 9.00391 889 3.00391 882 3.00391C875 3.00391 875 9.00391 868 9.00391C861 9.00391 861 3.00391 854 3.00391C847 3.00391 847 9.00391 840 9.00391C833 9.00391 833 3.00391 826 3.00391C819 3.00391 819 9.00391 812 9.00391C805 9.00391 805 3.00391 798 3.00391C791 3.00391 791 9.00391 784 9.00391C777 9.00391 777 3.00391 770 3.00391C763 3.00391 763 9.00391 756 9.00391C749 9.00391 749 3.00391 742 3.00391C735 3.00391 735 9.00391 728 9.00391C721 9.00391 721 3.00391 714 3.00391C707 3.00391 707 9.00391 700 9.00391C693 9.00391 693 3.00391 686 3.00391C679 3.00391 679 9.00391 672 9.00391C665 9.00391 665 3.00391 658 3.00391C651 3.00391 651 9.00391 644 9.00391C637 9.00391 637 3.00391 630 3.00391C623 3.00391 623 9.00391 616 9.00391C609 9.00391 609 3.00391 602 3.00391C595 3.00391 595 9.00391 588 9.00391C581 9.00391 581 3.00391 574 3.00391C567 3.00391 567 9.00391 560 9.00391C553 9.00391 553 3.00391 546 3.00391C539 3.00391 539 9.00391 532 9.00391C525 9.00391 525 3.00391 518 3.00391C511 3.00391 511 9.00391 504 9.00391C497 9.00391 497 3.00391 490 3.00391C483 3.00391 483 9.00391 476 9.00391C469 9.00391 469 3.00391 462 3.00391C455 3.00391 455 9.00391 448 9.00391C441 9.00391 441 3.00391 434 3.00391C427 3.00391 427 9.00391 420 9.00391C413 9.00391 413 3.00391 406 3.00391C399 3.00391 399 9.00391 392 9.00391C385 9.00391 385 3.00391 378 3.00391C371 3.00391 371 9.00391 364 9.00391C357 9.00391 357 3.00391 350 3.00391C343 3.00391 343 9.00391 336 9.00391C329 9.00391 329 3.00391 322 3.00391C315 3.00391 315 9.00391 308 9.00391C301 9.00391 301 3.00391 294 3.00391C287 3.00391 287 9.00391 280 9.00391C273 9.00391 273 3.00391 266 3.00391C259 3.00391 259 9.00391 252 9.00391C245 9.00391 245 3.00391 238 3.00391C231 3.00391 231 9.00391 224 9.00391C217 9.00391 217 3.00391 210 3.00391C203 3.00391 203 9.00391 196 9.00391C189 9.00391 189 3.00391 182 3.00391C175 3.00391 175 9.00391 168 9.00391C161 9.00391 161 3.00391 154 3.00391C147 3.00391 147 9.00391 140 9.00391C133 9.00391 133 3.00391 126 3.00391C119 3.00391 119 9.00391 112 9.00391C105 9.00391 105 3.00391 98 3.00391C91 3.00391 91 9.00391 84 9.00391C77 9.00391 77 3.00391 70 3.00391C63 3.00391 63 9.00391 56 9.00391C49 9.00391 49 3.00391 42 3.00391C35 3.00391 35 9.00391 28 9.00391C21 9.00391 21 3.00391 14 3.00391C7 3.00391 7 9.00391 0 9.00391V0H1288Z" fill="var(--background_primary)"/>
<path d="M1288 7C1281 7 1281 3 1274 3C1267 3 1267 7 1260 7C1253 7 1253 3 1246 3C1239 3 1239 7 1232 7C1225 7 1225 3 1218 3C1211 3 1211 7 1204 7C1197 7 1197 3 1190 3C1183 3 1183 7 1176 7C1169 7 1169 3 1162 3C1155 3 1155 7 1148 7C1141 7 1141 3 1134 3C1127 3 1127 7 1120 7C1113 7 1113 3 1106 3C1099 3 1099 7 1092 7C1085 7 1085 3 1078 3C1071 3 1071 7 1064 7C1057 7 1057 3 1050 3C1043 3 1043 7 1036 7C1029 7 1029 3 1022 3C1015 3 1015 7 1008 7C1001 7 1001 3 994 3C987 3 987 7 980 7C973 7 973 3 966 3C959 3 959 7 952 7C945 7 945 3 938 3C931 3 931 7 924 7C917 7 917 3 910 3C903 3 903 7 896 7C889 7 889 3 882 3C875 3 875 7 868 7C861 7 861 3 854 3C847 3 847 7 840 7C833 7 833 3 826 3C819 3 819 7 812 7C805 7 805 3 798 3C791 3 791 7 784 7C777 7 777 3 770 3C763 3 763 7 756 7C749 7 749 3 742 3C735 3 735 7 728 7C721 7 721 3 714 3C707 3 707 7 700 7C693 7 693 3 686 3C679 3 679 7 672 7C665 7 665 3 658 3C651 3 651 7 644 7C637 7 637 3 630 3C623 3 623 7 616 7C609 7 609 3 602 3C595 3 595 7 588 7C581 7 581 3 574 3C567 3 567 7 560 7C553 7 553 3 546 3C539 3 539 7 532 7C525 7 525 3 518 3C511 3 511 7 504 7C497 7 497 3 490 3C483 3 483 7 476 7C469 7 469 3 462 3C455 3 455 7 448 7C441 7 441 3 434 3C427 3 427 7 420 7C413 7 413 3 406 3C399 3 399 7 392 7C385 7 385 3 378 3C371 3 371 7 364 7C357 7 357 3 350 3C343 3 343 7 336 7C329 7 329 3 322 3C315 3 315 7 308 7C301 7 301 3 294 3C287 3 287 7 280 7C273 7 273 3 266 3C259 3 259 7 252 7C245 7 245 3 238 3C231 3 231 7 224 7C217 7 217 3 210 3C203 3 203 7 196 7C189 7 189 3 182 3C175 3 175 7 168 7C161 7 161 3 154 3C147 3 147 7 140 7C133 7 133 3 126 3C119 3 119 7 112 7C105 7 105 3 98 3C91 3 91 7 84 7C77 7 77 3 70 3C63 3 63 7 56 7C49 7 49 3 42 3C35 3 35 7 28 7C21 7 21 3 14 3C7 3 7 7 0 7" stroke="var(--primary_variant)" stroke-width="4" stroke-linecap="round"/>
</g>
<defs>
<clipPath id="clip0_13839_55615">
<rect width="1288" height="12" fill="white"/>
</clipPath>
</defs>
</svg>
