<svg width="138" height="109" viewBox="0 0 138 109" fill="none" xmlns="http://www.w3.org/2000/svg">
<path d="M96.6722 33.5153C96.9214 33.5737 97.1717 33.6278 97.4228 33.6776C98.2303 33.8238 99.0294 34.0134 99.8165 34.2456L99.8773 34.2659C100.06 34.3198 100.243 34.3739 100.425 34.4282C101.498 34.7512 102.548 35.1442 103.569 35.6048L103.955 35.7873C104.716 36.1365 105.474 36.4949 106.227 36.8625C107.193 37.3363 108.105 37.9145 108.945 38.5868L109.006 38.6273L109.533 39.0533L109.594 39.1142C109.812 39.2878 110.029 39.4636 110.243 39.6416L110.284 39.6822C110.713 40.0207 111.126 40.3795 111.521 40.7573L111.846 41.0616L112.089 41.2645C112.246 41.4126 112.409 41.5548 112.576 41.6905L112.799 41.873L112.982 42.0353L113.164 42.1976L113.59 42.583C113.865 42.8633 114.149 43.1339 114.442 43.3945C114.584 43.4959 114.706 43.6379 114.828 43.7596L114.909 43.8408L115.071 44.003C115.2 44.1318 115.328 44.2603 115.457 44.3885L115.538 44.4696L115.903 44.8348L116.025 44.9768L116.167 45.139L116.41 45.3825L116.836 45.8693L116.897 45.9302L117.059 46.133L117.1 46.1939C117.294 46.4212 117.477 46.6581 117.648 46.9039L117.992 47.3705L118.033 47.411L118.723 48.4456L118.763 48.5065C119.373 49.4662 119.883 50.4858 120.285 51.5493L120.305 51.6102L120.67 52.6042L120.69 52.665C120.853 53.1316 120.995 53.5779 121.116 54.0648L121.177 54.2879L121.441 55.5456L121.461 55.6876L121.482 55.7688V55.8093C121.522 56.0122 121.522 56.215 121.522 56.4179V56.4585C121.542 57.6756 121.542 57.6756 121.441 58.2436L121.421 58.4465C121.279 59.3593 121.157 60.2925 120.873 61.185L120.812 61.3676L120.711 61.6922L120.548 62.1993L120.488 62.3819L120.467 62.4427L120.285 63.031L120.264 63.0919L120.163 63.3759L120.122 63.4773L120.102 63.5382C120.062 63.6193 120.062 63.7005 120.082 63.8019L120.163 63.883L120.244 63.9642V64.0047L120.285 64.025C120.346 64.0453 120.386 64.1062 120.447 64.167L120.65 64.3496L120.914 64.6133L120.954 64.6539L121.056 64.7553L121.218 64.8973L121.319 64.9987L121.36 65.0596L121.603 65.303L121.725 65.4653C122.03 65.794 122.308 66.1468 122.557 66.5202L122.577 66.5607L123.104 67.3113L123.246 67.5345L123.287 67.575C123.556 67.975 123.826 68.374 124.098 68.7719L124.159 68.8936L124.2 68.9545L124.423 69.2587C124.748 69.705 125.032 70.1716 125.316 70.6382L125.417 70.8005C125.833 71.4552 126.199 72.1401 126.512 72.8493L126.533 72.9102L127.121 74.2693L127.182 74.4113C127.79 75.8719 128.156 77.4542 128.44 78.9959L128.5 79.3002L128.582 79.6653V79.7464C128.683 80.2739 128.744 80.8216 128.784 81.3693L128.805 81.633C128.856 82.2413 128.903 82.8499 128.947 83.4587C128.987 84.189 128.967 84.9396 128.866 85.6699V85.7713C128.724 86.7653 128.541 87.7796 128.318 88.7736L128.095 89.9096L128.054 90.0719V90.1327L127.932 90.7819L127.892 90.9442V90.9847L127.872 91.0862L127.811 91.3904L127.77 91.573L127.75 91.6542C127.703 91.8536 127.696 92.0605 127.73 92.2627C127.77 92.5467 127.872 92.6887 128.074 92.8713C128.478 93.1805 128.913 93.4457 129.373 93.6624L129.576 93.7842C129.918 93.9839 130.287 94.1341 130.671 94.2304C131.077 94.3522 131.503 94.4536 131.929 94.5347C132.426 94.6402 132.92 94.7619 133.41 94.8999L133.592 94.9404L133.714 94.981C134.108 95.079 134.489 95.2219 134.85 95.407C135.377 95.6504 135.377 95.6504 135.458 95.8533C135.479 96.117 135.195 96.401 135.053 96.5836C134.72 97.0112 134.346 97.4052 133.937 97.7602L133.694 97.9833L133.633 98.0441C133.216 98.4005 132.79 98.7455 132.355 99.0787L132.213 99.2004C131.985 99.3747 131.748 99.5372 131.503 99.6873L131.239 99.8699C130.762 100.187 130.296 100.518 129.839 100.864L129.799 100.904C129.497 101.108 129.199 101.317 128.906 101.533L128.5 101.797L128.318 101.919C127.447 102.485 126.581 103.06 125.721 103.643L125.539 103.765C124.809 104.238 124.042 104.652 123.246 105.002L123.186 105.022L121.989 105.428L121.867 105.469L121.705 105.509L121.664 105.53C121.482 105.59 121.482 105.59 121.4 105.57C121.319 105.509 121.299 105.388 121.279 105.306L121.258 105.246L121.218 105.043L121.198 104.982C121.055 104.447 120.94 103.906 120.853 103.359L120.832 103.318L120.528 101.959L120.508 101.898L120.244 100.884L120.122 100.458L120.062 100.255L120.041 100.194C119.91 99.6999 119.774 99.2062 119.636 98.7136C119.55 98.4086 119.462 98.1043 119.372 97.8007L119.352 97.7399V97.6993L119.331 97.6384L119.027 96.3604L118.966 96.0764L118.946 96.0156C118.849 95.4843 118.734 94.9565 118.601 94.4333L118.459 93.8247C118.321 93.2386 118.192 92.6503 118.074 92.0599C118.033 91.8773 117.992 91.6339 118.114 91.4716C118.398 91.1267 119.007 90.9847 119.412 90.8833L119.453 90.863C119.737 90.8022 119.98 90.863 120.264 90.9239L120.366 90.9442L121.522 91.2079L121.705 91.2484L121.745 91.2687C122.276 91.4117 122.81 91.5403 123.348 91.6542C123.896 91.7759 124.464 91.8976 125.032 91.9787H125.072C125.146 91.9928 125.221 92.0064 125.295 92.0193C125.437 92.0396 125.559 91.999 125.701 91.8976C126.512 91.2484 126.938 90.153 127.222 89.1793L127.243 89.0982L127.446 88.2462L127.466 88.1244L127.73 86.887V86.8262C127.952 85.5607 128 84.2706 127.872 82.9922C127.73 81.2476 127.547 79.5233 125.823 73.5593C125.66 73.245 125.505 72.9271 125.356 72.6059C125.077 72.0578 124.772 71.523 124.443 71.0033C124.148 70.4934 123.837 69.9928 123.51 69.5022C123.117 68.8359 122.676 68.1987 122.192 67.5953C121.913 67.1954 121.615 66.8095 121.299 66.439C120.783 65.7903 120.205 65.1925 119.575 64.6539L119.534 64.6336L119.372 64.593C119.23 64.6742 119.149 64.8567 119.068 64.9785C118.856 65.2887 118.618 65.5805 118.358 65.8507C118.249 65.9911 118.134 66.1265 118.013 66.2565L117.688 66.6013L117.648 66.6419C117.432 66.8855 117.209 67.1222 116.978 67.3519L116.674 67.6562L116.572 67.7779C116.438 67.9211 116.296 68.0566 116.146 68.1836L115.944 68.3459L115.802 68.4676C115.641 68.6259 115.472 68.7749 115.294 68.9139C115.173 69.0296 115.044 69.138 114.909 69.2385C114.685 69.4282 114.455 69.6109 114.219 69.7862L114.077 69.8876L114.037 69.9282C113.246 70.5367 112.394 71.0642 111.542 71.5713L111.44 71.6322C111.092 71.8338 110.74 72.0299 110.385 72.2205C109.675 72.6262 108.925 72.9507 108.174 73.2753L108.052 73.3362C107.507 73.568 106.952 73.7778 106.389 73.965C105.841 74.1679 105.273 74.2896 104.705 74.4316L104.218 74.5533C102.32 74.9678 100.362 75.0433 98.437 74.7765C97.7651 74.7266 97.0952 74.6522 96.4288 74.5533C95.8608 74.4925 95.3333 74.4113 94.7856 74.249L94.7451 74.2287C93.1224 73.8109 91.594 73.088 90.2416 72.0987L90.2011 72.0785C90.029 71.9407 89.8664 71.7916 89.7142 71.6322C89.5447 71.4839 89.3885 71.321 89.2476 71.1453C88.3956 70.1716 87.6856 69.0762 87.7465 67.7373C87.8632 65.8071 88.6864 63.9874 90.0591 62.6253L90.1402 62.5239L90.3228 62.3616L90.4445 62.2399C90.6175 62.0797 90.8004 61.9307 90.9922 61.7936L91.5602 61.3676L91.6008 61.3473L92.2296 60.9619L92.2905 60.9416C93.6009 60.2177 95.0081 59.6848 96.4693 59.3593L96.591 59.3187L97.0779 59.197L97.1996 59.1767C98.3897 58.9185 99.5962 58.7422 100.81 58.6493C102.677 58.4059 104.685 58.5682 107.038 58.7102H107.363L108.336 58.8116L108.438 58.8319L108.783 58.8927H108.823C109.386 58.9846 109.941 59.1133 110.487 59.2782L111.42 59.5419L111.907 59.7042L112.069 59.7447L112.515 59.8867C113.398 60.1403 114.265 60.4451 115.112 60.7996L115.396 60.9213C116.349 61.3067 117.262 61.7936 118.033 62.463L118.114 62.5239L118.155 62.5645L118.337 62.6862L118.418 62.7876L118.621 62.9499L118.682 63.0107L118.723 63.031L118.946 63.1933C119.232 62.755 119.451 62.2763 119.595 61.7733C119.757 61.3067 119.879 60.8402 120.001 60.3533L120.041 60.191C120.264 59.4202 120.427 58.629 120.508 57.8176V57.6959C120.588 57.0007 120.574 56.298 120.467 55.6065C120.264 54.3488 119.96 53.091 119.514 51.9145L119.494 51.8333C119.21 51.0529 118.857 50.2994 118.439 49.5816L118.033 48.8919C117.902 48.6976 117.773 48.5014 117.648 48.3036L117.485 48.1008C117.21 47.7115 116.912 47.339 116.593 46.985L116.268 46.6199C116.071 46.4244 115.882 46.2214 115.7 46.0113C115.372 45.6565 115.034 45.3115 114.686 44.9768L114.625 44.9159C114.578 44.8684 114.531 44.8211 114.483 44.7739L114.402 44.713V44.6725L114.361 44.6522L114.24 44.5508L114.179 44.4899L114.138 44.4493C114.037 44.3479 113.935 44.2262 113.814 44.145L113.611 43.9422L113.185 43.5568L113.124 43.4959C112.74 43.1139 112.333 42.7549 111.907 42.4208C111.73 42.2581 111.548 42.1025 111.359 41.9542L111.014 41.6499L110.669 41.3456L110.527 41.2239L109.98 40.737L109.756 40.5545C109.316 40.1655 108.856 39.7998 108.377 39.4591C108.185 39.3074 107.995 39.1518 107.809 38.9925C106.968 38.3543 106.064 37.8037 105.111 37.3493L103.732 36.7205L103.691 36.7002L102.088 36.0713L101.906 36.0105L101.155 35.7265L101.115 35.7062C100.06 35.3407 98.9823 35.0426 97.8893 34.8136L97.7473 34.7933C97.1868 34.6882 96.6255 34.5868 96.0636 34.4891H96.0231C95.2412 34.4123 94.4547 34.3919 93.6699 34.4282H92.6151C91.1766 34.4203 89.7394 34.5152 88.3145 34.7122C87.5436 34.8339 86.8133 34.9962 86.0831 35.1991L86.0019 35.2193C85.4339 35.3816 84.8862 35.6048 84.3385 35.8279L84.2371 35.8685C83.7836 36.0476 83.3431 36.2577 82.9185 36.4973L82.8576 36.5176C82.2693 36.8016 81.7013 37.0856 81.1333 37.4102L80.8088 37.5928C80.416 37.8149 80.0238 38.038 79.6322 38.2622C78.9024 38.6979 78.1917 39.1649 77.5022 39.6619C76.9951 40.0068 76.5285 40.3719 76.1025 40.7776L76.0619 40.8182L75.7779 41.1428L75.7576 41.1833C75.4736 41.5282 75.2911 41.9136 75.1288 42.3193C74.8245 43.0496 74.4796 43.6379 73.7696 44.003L73.6682 44.0639L73.5871 44.1045L73.5465 44.1248H73.3639C73.3031 44.0842 73.2828 44.0639 73.2625 44.003C73.2016 43.4553 73.7494 42.6845 74.0131 42.2382L74.2565 41.7919C74.9978 40.3994 76.0972 39.2299 77.4413 38.4042L77.5428 38.3433C77.8284 38.1527 78.1192 37.97 78.4151 37.7956L79.9568 36.9031L80.0176 36.8625L80.4436 36.6393L80.4842 36.6191L81.2753 36.2133L81.7825 35.9496L81.9853 35.8482L82.0259 35.8279C82.6095 35.5243 83.2126 35.26 83.8313 35.0368L83.9328 34.9962L83.9733 34.9759C84.351 34.8245 84.7296 34.6757 85.1093 34.5296C85.4745 34.3876 85.8599 34.2659 86.2251 34.1645L86.4482 34.0833C88.0974 33.5958 89.8011 33.3164 91.5196 33.2516H91.5602C93.2642 33.1705 95.0088 33.1705 96.6722 33.5153ZM101.622 59.7245H101.581C101.081 59.7442 100.58 59.7712 100.08 59.8056L99.1268 59.8867L98.6805 59.9273L98.5588 59.9476L98.1328 59.9882C97.7676 60.0085 97.4228 60.049 97.0576 60.1302L96.9765 60.1505C96.3409 60.3088 95.7115 60.4916 95.0899 60.6982C94.7451 60.8402 94.4002 60.9619 94.0756 61.1242L94.0148 61.1445C92.5458 61.8316 91.2233 62.7959 90.1199 63.9845C89.8765 64.2482 89.6939 64.5525 89.5316 64.877L89.5113 64.9176C89.1462 65.6073 88.9028 66.3782 88.7202 67.1287L88.6999 67.1693C88.5376 67.7982 88.5985 68.4067 88.9231 68.9747C89.4624 69.8621 90.1173 70.6739 90.8705 71.3887L90.9313 71.4293C91.1748 71.6119 91.4182 71.7945 91.6819 71.9365L91.7225 71.9567C91.9659 72.119 92.2296 72.2002 92.4933 72.3016L92.5339 72.3219C93.2636 72.5734 94.009 72.7767 94.7653 72.9305C96.0883 73.3197 97.4479 73.5712 98.8225 73.681L99.1268 73.7013H99.1876C99.4712 73.72 99.7555 73.7267 100.04 73.7216H100.324C100.533 73.7209 100.743 73.7209 100.952 73.7216H101.074C101.48 73.7216 101.886 73.7013 102.291 73.6405H102.372L102.738 73.5796L103.732 73.4579C104.908 73.3362 104.908 73.3362 106.044 73.0522L106.105 73.0319C106.835 72.7885 106.835 72.7885 107.545 72.5045L107.606 72.4842C108.236 72.2244 108.846 71.9193 109.432 71.5713C110.042 71.275 110.638 70.9501 111.217 70.5976C111.765 70.3136 112.292 70.0093 112.779 69.6442L112.82 69.6036C113.24 69.3048 113.646 68.9866 114.037 68.6502L114.179 68.5285C114.41 68.3189 114.646 68.1159 114.889 67.9199C115.145 67.7042 115.389 67.4739 115.619 67.2302L115.923 66.9259C116.058 66.7898 116.193 66.6546 116.329 66.5202L116.471 66.3782C116.579 66.2689 116.68 66.1538 116.775 66.0333L116.897 65.8913L117.019 65.729C117.316 65.4022 117.6 65.0639 117.871 64.7147L117.972 64.593L117.992 64.5525C118.152 64.344 118.301 64.1273 118.439 63.9033C118.439 63.8222 118.358 63.7816 118.276 63.7207L118.033 63.5787L117.343 63.173C116.688 62.7298 115.995 62.343 115.274 62.0167L115.213 61.9965C113.814 61.3676 112.312 60.9416 110.832 60.617L110.73 60.5967L109.493 60.3736L109.249 60.333C108.853 60.2592 108.454 60.205 108.052 60.1707L106.957 60.0287L106.551 59.9679H106.47L105.902 59.8867L104.482 59.7447H104.421C103.508 59.6636 102.555 59.6839 101.622 59.7245Z" fill="#8C9CBA"/>
<path d="M70.4881 54.3974C70.7244 53.1807 70.9387 52.0414 71.1307 50.9796C71.3406 49.913 71.5713 48.8884 71.8227 47.906C72.092 46.9188 72.2266 46.124 72.5991 45.1663C73.1762 43.6823 75.0735 39.7686 76.9873 39.51C77.3573 39.4681 77.0675 39.59 77.3269 39.7398C74.3311 42.1183 72.9069 47.9671 73.1002 51.5528C73.2677 51.2887 73.4515 50.9964 73.6516 50.6759C73.8516 50.3554 74.0686 50.0446 74.3025 49.7437C74.5477 49.4492 74.8146 49.1823 75.1031 48.9429C75.3917 48.7036 75.7114 48.5273 76.0624 48.4142C76.4247 48.3076 76.8196 48.2876 77.2473 48.3541C77.6863 48.4271 78.1732 48.6255 78.7079 48.9493C79.1928 49.2292 79.5748 49.5701 79.8541 49.9719C80.1446 50.3802 80.3284 50.817 80.4054 51.2825C80.5003 51.7432 80.4949 52.2213 80.3894 52.7166C80.3016 53.2072 80.1242 53.6837 79.8573 54.146C79.4992 54.7662 78.9954 55.2872 78.3459 55.7091C77.6964 56.131 76.9812 56.4322 76.2003 56.6128C75.4307 56.8 74.6512 56.8611 73.8617 56.7962C73.0788 56.7201 72.3659 56.4964 71.7232 56.1253C71.3961 55.9365 71.113 55.6979 70.8736 55.4093C70.6407 55.1095 70.5122 54.7722 70.4881 54.3974ZM78.0613 50.538C77.7641 50.5319 77.4427 50.5417 77.097 50.5677C76.7512 50.5936 76.3671 50.7251 75.9445 50.9623C75.5397 51.1946 75.0882 51.573 74.59 52.0973C74.0919 52.6215 73.5362 53.3757 72.9229 54.3598C72.9455 54.3728 72.9986 54.411 73.0823 54.4744C73.1773 54.5442 73.2417 54.5889 73.2755 54.6085C73.58 54.7842 73.9792 54.887 74.4733 54.9166C74.9787 54.9528 75.4931 54.9341 76.0167 54.8605C76.5516 54.7934 77.052 54.6689 77.518 54.4868C77.9904 54.2935 78.346 54.0553 78.5847 53.7721C78.7292 53.5999 78.8167 53.3572 78.8471 53.0441C78.8776 52.7309 78.8621 52.4062 78.8006 52.07C78.7569 51.729 78.6679 51.4145 78.5335 51.1264C78.4104 50.8448 78.253 50.6487 78.0613 50.538Z" fill="#8C9CBA"/>
<path d="M56.0469 37.5571C56.2096 37.2752 56.3817 37.0814 56.5631 36.9756C56.7557 36.8763 57.0099 36.9178 57.3256 37.1001C57.3594 37.1196 57.4182 37.1611 57.5019 37.2244C57.6034 37.283 57.6654 37.3188 57.688 37.3319C57.5651 37.727 57.4227 38.156 57.2607 38.6188C57.1165 39.0768 56.9804 39.547 56.8523 40.0293C56.7242 40.5116 56.6106 40.9948 56.5115 41.4789C56.4237 41.9695 56.3869 42.4369 56.4011 42.8811C56.7278 42.784 57.0208 42.6149 57.2803 42.3738C57.5398 42.1327 57.7767 41.8786 57.9911 41.6115C58.212 41.3331 58.4175 41.0683 58.6076 40.8172C58.8154 40.5613 59.0367 40.3734 59.2714 40.2533C59.5127 40.1219 59.7777 40.0795 60.0666 40.126C60.3668 40.179 60.7051 40.3743 61.0815 40.7119C61.5551 40.9854 61.8808 41.2937 62.0585 41.6369C62.2428 41.9688 62.3582 42.3286 62.405 42.7164C62.4695 43.0995 62.5097 43.4986 62.5256 43.9137C62.5593 44.3241 62.66 44.7356 62.8278 45.1482C62.9801 45.0406 63.1688 44.909 63.394 44.7534C63.6257 44.5865 63.8832 44.4269 64.1665 44.2747C64.4676 44.1178 64.7711 43.9698 65.077 43.8306C65.4006 43.6867 65.7136 43.5742 66.016 43.4932C66.3249 43.4009 66.6166 43.3513 66.8912 43.3445C67.1723 43.3264 67.4087 43.3726 67.6004 43.4833C68.0627 43.7502 68.3784 44.128 68.5474 44.6164C68.723 45.0937 68.8022 45.6205 68.7851 46.197C68.7858 46.7688 68.7088 47.3708 68.5542 48.0032C68.406 48.6244 68.2339 49.2091 68.0376 49.7573C67.8414 50.3056 67.6397 50.7981 67.4327 51.2348C67.2434 51.6668 67.0967 51.973 66.9925 52.1534C66.9079 52.3 66.8089 52.3933 66.6957 52.4331C66.5825 52.473 66.4621 52.4862 66.3346 52.4727C66.2135 52.4479 66.0878 52.4054 65.9572 52.345C65.8379 52.2912 65.7275 52.235 65.6261 52.1764C65.6035 52.1634 65.5697 52.1439 65.5246 52.1178C65.486 52.0805 65.4417 52.0399 65.3919 51.9961C65.3533 51.9588 65.301 51.9061 65.2351 51.8379L67.0556 46.1457C67.0751 46.1119 67.0658 46.0238 67.0277 45.8815C66.9961 45.728 66.9642 45.6269 66.9321 45.5783C66.8983 45.5588 66.8734 45.5368 66.8573 45.5125C66.8348 45.4995 66.8179 45.4898 66.8066 45.4832C66.8018 45.4655 66.7938 45.4533 66.7825 45.4468C66.5457 45.3101 66.2649 45.2757 65.9399 45.3437C65.6263 45.4182 65.2946 45.55 64.9449 45.739C64.5952 45.928 64.2373 46.1574 63.8711 46.4271C63.5049 46.6968 63.1556 46.9763 62.8232 47.2655C62.4973 47.5434 62.1958 47.8053 61.9185 48.0512C61.659 48.2923 61.4555 48.4755 61.308 48.6008C61.2499 48.5974 61.1466 48.5678 60.9983 48.5123C60.8565 48.4454 60.763 48.399 60.7179 48.3729C60.4022 48.1906 60.2216 47.9435 60.1761 47.6316C60.1372 47.3084 60.1557 46.9508 60.2318 46.5587C60.3191 46.1731 60.434 45.7658 60.5764 45.3368C60.7366 44.9031 60.8547 44.4901 60.9307 44.098C61.0181 43.7124 61.0277 43.3571 60.9597 43.0322C60.9095 42.7025 60.7152 42.44 60.377 42.2447C60.2529 42.1731 60.0629 42.2288 59.8069 42.4117C59.5509 42.5947 59.2671 42.8519 58.9556 43.1832C58.6505 43.5032 58.3316 43.8603 57.9987 44.2545C57.6724 44.6375 57.3704 45.0044 57.0926 45.3552C56.8327 45.7013 56.6166 45.9975 56.4443 46.2438C56.272 46.4902 56.1858 46.6133 56.1858 46.6133C56.1437 46.6341 56.0758 46.6476 55.9821 46.6536C55.895 46.6484 55.7989 46.6455 55.6939 46.6451C55.6002 46.6511 55.5074 46.6426 55.4154 46.6196C55.3347 46.6031 55.2775 46.5851 55.2437 46.5655C54.9279 46.3832 54.7048 46.0665 54.5744 45.6153C54.4505 45.1529 54.3947 44.6245 54.407 44.0302C54.4372 43.4312 54.5102 42.7968 54.6263 42.127C54.7536 41.4638 54.9026 40.8282 55.0733 40.22C55.2439 39.6119 55.4135 39.0708 55.582 38.5968C55.7617 38.1292 55.9167 37.7826 56.0469 37.5571Z" fill="#8C9CBA"/>
<path d="M47.2617 32.7554C47.3008 32.6877 47.3691 32.5693 47.4668 32.4001C47.5822 32.2262 47.6953 32.0434 47.806 31.8517C47.9167 31.66 48.0176 31.4852 48.1087 31.3274C48.2176 31.1647 48.2916 31.0496 48.3307 30.9819C48.4878 30.8922 48.6528 30.8146 48.8259 30.7492C49.0168 30.6789 49.1817 30.6538 49.3205 30.6738C49.4771 30.6891 49.6133 30.7527 49.7291 30.8646C49.8561 30.9831 49.9376 31.1805 49.9735 31.4568L49.8954 31.5921L49.7684 31.812C49.7246 31.8619 49.6239 31.9842 49.4664 32.1789C49.3154 32.3623 49.1457 32.5651 48.9574 32.7871C48.769 33.0092 48.5905 33.2143 48.4217 33.4025C48.2707 33.5859 48.1789 33.7059 48.1463 33.7622C48.0226 33.9765 47.8889 34.2601 47.7452 34.6132C47.608 34.955 47.478 35.3234 47.3551 35.7186C47.2435 36.1202 47.1488 36.5316 47.071 36.9528C47.0045 37.3805 46.9801 37.7874 46.9978 38.1735C47.0219 38.5483 47.0891 38.8877 47.1991 39.1919C47.3205 39.5025 47.5278 39.7424 47.821 39.9117C48.1818 40.12 48.5529 40.2065 48.9342 40.171C49.3268 40.1421 49.7125 40.034 50.0912 39.8467C50.47 39.6594 50.832 39.4099 51.1774 39.0981C51.5341 38.7929 51.8626 38.4713 52.1629 38.1335C52.4697 37.7844 52.7442 37.4392 52.9863 37.0979C53.2285 36.7566 53.4277 36.4506 53.5839 36.18C53.7402 35.9093 53.8641 35.6426 53.9557 35.3797C54.0651 35.1121 54.16 34.8436 54.2403 34.5743C54.3207 34.3049 54.4034 34.0445 54.4885 33.7929C54.5914 33.5366 54.7112 33.29 54.8479 33.0532C54.9716 32.8389 55.1328 32.729 55.3315 32.7235C55.5414 32.7244 55.7422 32.7802 55.9339 32.8909C56.1707 33.0276 56.3201 33.2116 56.3821 33.4428C56.4506 33.6627 56.4624 33.9026 56.4176 34.1625C56.3842 34.4288 56.2973 34.7094 56.1571 35.0044C56.0347 35.2945 55.8953 35.5749 55.7391 35.8455C55.5828 36.1162 55.4275 36.3723 55.273 36.6139C55.125 36.8441 55.0086 37.0326 54.924 37.1792C54.7027 37.5626 54.4238 37.9804 54.0875 38.4328C53.7512 38.8851 53.36 39.3283 52.9139 39.7624C52.4856 40.1917 52.0211 40.5926 51.5204 40.965C51.031 41.344 50.5201 41.643 49.9878 41.8618C49.4732 42.076 48.9502 42.1875 48.4189 42.1964C47.8987 42.2119 47.3962 42.0796 46.9114 41.7997C46.4039 41.5067 46.0269 41.1312 45.7802 40.673C45.54 40.2036 45.3985 39.6934 45.3558 39.1425C45.3308 38.5868 45.3746 38.0031 45.4871 37.3915C45.5997 36.7799 45.7517 36.1911 45.9432 35.6251C46.1459 35.0656 46.3615 34.536 46.5898 34.0363C46.8359 33.5319 47.0599 33.1049 47.2617 32.7554Z" fill="#8C9CBA"/>
<path d="M34.2733 31.7965C34.6509 31.1425 35.1497 30.6562 35.7696 30.3375C36.3896 30.0189 37.0495 29.8135 37.7492 29.7213C38.4554 29.6179 39.1653 29.5992 39.8789 29.6654C40.599 29.7203 41.2503 29.8031 41.8328 29.9139C42.4219 30.0134 42.9092 30.1069 43.2948 30.1942C43.6869 30.2702 43.9025 30.2744 43.9416 30.2068C44.1694 29.8121 44.3682 29.4157 44.538 29.0175C44.7255 28.6146 44.9074 28.2084 45.0836 27.799C45.2599 27.3895 45.4329 26.9857 45.6026 26.5876C45.7901 26.1846 45.9913 25.7971 46.2062 25.425L46.8409 24.3255C47.4009 24.4233 47.7182 24.629 47.7927 24.9427C47.8785 25.2628 47.7105 25.6319 47.2887 26.05C47.1906 26.3241 47.028 26.7489 46.8009 27.3245C46.5739 27.9001 46.3134 28.5465 46.0195 29.2639C45.7369 29.9878 45.4347 30.7456 45.113 31.5371C44.8026 32.3352 44.4972 33.0986 44.1968 33.8272C43.9142 34.5511 43.6537 35.1976 43.4153 35.7666C43.1835 36.3244 43.0097 36.7428 42.8938 37.0216C42.8725 37.0845 42.8186 37.2038 42.7323 37.3795C42.6524 37.5438 42.5571 37.7219 42.4464 37.9136C42.3536 38.1005 42.2615 38.2729 42.1704 38.4308C42.0905 38.5952 42.0311 38.7112 41.992 38.7788C41.5635 38.5314 41.2801 38.3453 41.1417 38.2203C41.0147 38.1018 40.9579 37.9788 40.9714 37.8513C40.9961 37.7303 41.0639 37.5739 41.1745 37.3822C41.2852 37.1905 41.3818 36.893 41.4644 36.4896C40.8583 36.5757 40.3074 36.6185 39.8116 36.6179C39.3158 36.6173 38.8428 36.5772 38.3925 36.4977C37.9488 36.4069 37.5222 36.2734 37.1128 36.0971C36.7081 35.9387 36.2915 35.7357 35.863 35.4883C35.5021 35.28 35.1689 35.05 34.8631 34.7983C34.5752 34.5418 34.3471 34.2598 34.1789 33.9522C34.0107 33.6446 33.9257 33.3099 33.9241 32.9481C33.9225 32.5863 34.0389 32.2025 34.2733 31.7965ZM35.9499 32.2909C35.8457 32.4713 35.8006 32.6407 35.8144 32.7991C35.8282 32.9574 35.8744 33.1118 35.9528 33.2624C36.0313 33.4129 36.1284 33.5442 36.2442 33.6561C36.3778 33.7633 36.5122 33.856 36.6476 33.9341C37.0422 34.162 37.5074 34.3328 38.0431 34.4466C38.5966 34.5557 39.1431 34.5856 39.6828 34.5363C40.2402 34.4823 40.7537 34.3352 41.2231 34.095C41.7038 33.8613 42.0744 33.519 42.3348 33.0679C42.5366 32.7184 42.6146 32.4401 42.5686 32.2332C42.5227 32.0263 42.325 31.8219 41.9754 31.6201C41.6146 31.4117 41.1429 31.2521 40.5603 31.1413C39.9891 31.0371 39.3965 30.9957 38.7827 31.0171C38.1802 31.0452 37.616 31.163 37.0902 31.3706C36.5709 31.5669 36.1908 31.8737 35.9499 32.2909Z" fill="#8C9CBA"/>
<path d="M14.3761 34.969C15.0076 35.3335 15.6397 35.5407 16.2726 35.5903C16.899 35.6512 17.4985 35.5764 18.0712 35.3658C18.6486 35.1729 19.1773 34.8692 19.6572 34.4547C20.1418 34.0579 20.5437 33.5833 20.8627 33.0307C21.0254 32.7488 21.2234 32.3669 21.4565 31.885C21.7008 31.4097 21.9511 30.8851 22.2072 30.3113C22.4633 29.7375 22.6978 29.1361 22.9105 28.5072C23.1346 27.8848 23.3109 27.2799 23.4395 26.6926C23.5746 26.094 23.6311 25.5403 23.6092 25.0315C23.605 24.5179 23.4962 24.0942 23.2829 23.7606C22.8595 23.8168 22.4515 23.8594 22.059 23.8884C21.6729 23.906 21.2918 23.889 20.9157 23.8373C20.5396 23.7855 20.1653 23.7047 19.7927 23.5948C19.4267 23.4737 19.0576 23.3057 18.6854 23.0909C18.2005 22.8109 17.8094 22.5249 17.5119 22.2329C17.2257 21.9474 17.026 21.6291 16.9129 21.2782C16.8111 20.9337 16.8047 20.5541 16.8938 20.1395C16.9828 19.7248 17.1803 19.2525 17.4863 18.7225C17.7012 18.3503 17.9997 18.0416 18.382 17.7962C18.7707 17.5395 19.1996 17.3436 19.6685 17.2084C20.1553 17.0684 20.6596 16.9762 21.1815 16.9317C21.7146 16.8937 22.2338 16.8928 22.7392 16.9289C23.2558 16.9716 23.7351 17.0529 24.1771 17.1727C24.6304 17.2991 25.0093 17.4502 25.3137 17.626C25.6069 17.7952 25.8428 17.9465 26.0215 18.0797C26.2067 18.2017 26.3442 18.3412 26.4339 18.4982C26.5302 18.644 26.5778 18.8219 26.5769 19.0319C26.5937 19.237 26.5724 19.4954 26.5129 19.8068C26.2644 20.8361 26.0164 21.9558 25.7687 23.166C25.5211 24.3762 25.2402 25.6048 24.9262 26.8518C24.6122 28.0989 24.2442 29.3223 23.8221 30.522C23.4049 31.7395 22.9033 32.8557 22.3173 33.8706C21.7965 34.7727 21.2274 35.4589 20.6099 35.9294C19.9973 36.4177 19.3684 36.7387 18.7233 36.8925C18.083 37.064 17.436 37.104 16.7823 37.0122C16.1399 36.927 15.5374 36.7596 14.9749 36.51C14.4058 36.2716 13.883 35.9923 13.4063 35.672C12.9297 35.3517 12.5403 35.0367 12.238 34.7269C11.9293 34.4283 11.7148 34.1617 11.5948 33.927C11.4859 33.6988 11.5027 33.5656 11.645 33.5275C11.792 33.5071 12.084 33.6005 12.5207 33.8075C12.9575 34.0146 13.5759 34.4017 14.3761 34.969ZM24.0367 18.7831C23.0981 18.4818 22.275 18.3449 21.5675 18.3724C20.8778 18.3952 20.2958 18.5178 19.8216 18.7401C19.3652 18.9577 19.0183 19.2461 18.7809 19.6052C18.55 19.953 18.4386 20.3022 18.4468 20.6527C18.4549 21.0032 18.5665 21.3307 18.7815 21.6353C19.0144 21.9351 19.3551 22.1394 19.8036 22.2479C20.2586 22.3453 20.8143 22.3203 21.4706 22.173C22.1383 22.0322 22.9166 21.6998 23.8056 21.1756C23.9163 20.9839 24.0367 20.7753 24.1669 20.5498C24.3084 20.3307 24.4087 20.118 24.4677 19.9115C24.5333 19.6938 24.5399 19.4871 24.4875 19.2915C24.435 19.0958 24.2848 18.9264 24.0367 18.7831Z" fill="#8C9CBA"/>
<path d="M15.2424 15.0134C15.2815 14.9457 15.3433 14.8386 15.4279 14.692C15.5304 14.5406 15.6304 14.3804 15.7281 14.2112C15.837 14.0486 15.937 13.8883 16.0282 13.7305C16.1306 13.5791 16.2013 13.4696 16.2404 13.402C16.4686 13.2931 16.7111 13.2377 16.9679 13.2356C17.236 13.24 17.4911 13.267 17.7331 13.3165C17.4154 13.945 17.1369 14.6487 16.8976 15.4277C16.6583 16.2067 16.4271 16.9979 16.2039 17.8012C15.9871 18.5932 15.7511 19.3666 15.4958 20.1213C15.2518 20.8825 14.9605 21.5563 14.622 22.1427C14.329 22.6501 13.9232 22.7541 13.4044 22.4546C13.0887 22.2723 12.8986 21.9896 12.8341 21.6066C12.7696 21.2235 12.7836 20.7956 12.8761 20.3228C12.9865 19.8452 13.1421 19.3412 13.3431 18.8108C13.5507 18.269 13.7742 17.7516 14.0138 17.2585C14.2647 16.7718 14.4985 16.3279 14.7151 15.9268C14.9429 15.5321 15.1187 15.2276 15.2424 15.0134ZM19.1413 8.80713C19.3035 9.02104 19.3993 9.2718 19.4287 9.55941C19.4581 9.84702 19.4127 10.0689 19.2925 10.225C19.19 10.3764 19.0009 10.4175 18.725 10.3485C18.4557 10.2681 18.1001 9.9726 17.6582 9.46189C17.834 9.15743 18.0434 8.92498 18.2863 8.76456C18.5406 8.61065 18.8256 8.62484 19.1413 8.80713Z" fill="#8C9CBA"/>
<path d="M2.99355 15.4291C3.22992 14.2124 3.44414 13.0732 3.63622 12.0113C3.84608 10.9447 4.07675 9.92016 4.32822 8.93771C4.59749 7.9505 4.91837 6.97805 5.29087 6.02037C5.66336 5.06269 6.13932 4.08205 6.71875 3.07845C6.76432 2.99952 6.8457 2.85856 6.96289 2.65559C7.09786 2.44785 7.23046 2.23121 7.36066 2.00568C7.49087 1.78016 7.61457 1.5659 7.73176 1.36293C7.86673 1.15519 7.95701 1.01185 8.00258 0.932917C8.23427 0.765984 8.5295 0.658282 8.88826 0.609813C9.25829 0.567854 9.57299 0.621745 9.83234 0.771484C9.35057 1.60594 8.84753 2.50328 8.3232 3.46352C7.80539 4.41248 7.33269 5.38748 6.90509 6.38852C6.48876 7.39607 6.14986 8.42577 5.88838 9.47762C5.64469 10.5247 5.55045 11.5603 5.60564 12.5845C5.77317 12.3204 5.95697 12.0281 6.15705 11.7076C6.35713 11.3871 6.57412 11.0763 6.80803 10.7754C7.05321 10.4809 7.32008 10.214 7.60862 9.97464C7.89717 9.73529 8.21692 9.55905 8.56789 9.44595C8.93014 9.33935 9.32511 9.31931 9.7528 9.38582C10.1918 9.45883 10.6786 9.65723 11.2134 9.98101C11.6983 10.261 12.0803 10.6018 12.3596 11.0036C12.6501 11.4119 12.8339 11.8488 12.9109 12.3142C13.0058 12.775 13.0004 13.253 12.8948 13.7483C12.8071 14.2389 12.6297 14.7154 12.3628 15.1777C12.0047 15.7979 11.5009 16.3189 10.8514 16.7408C10.2019 17.1627 9.48669 17.4639 8.70581 17.6446C7.93622 17.8317 7.15668 17.8928 6.36721 17.828C5.58425 17.7518 4.87139 17.5282 4.22864 17.1571C3.90162 16.9683 3.61844 16.7296 3.37908 16.4411C3.14623 16.1412 3.01772 15.8039 2.99355 15.4291ZM10.5668 11.5698C10.2696 11.5636 9.94817 11.5735 9.60244 11.5994C9.2567 11.6253 8.87254 11.7568 8.44996 11.994C8.04516 12.2264 7.59368 12.6047 7.09553 13.129C6.59737 13.6533 6.04167 14.4074 5.42841 15.3915C5.45096 15.4045 5.50409 15.4427 5.58779 15.5061C5.68277 15.576 5.74717 15.6207 5.781 15.6402C6.08546 15.816 6.48473 15.9187 6.9788 15.9483C7.48415 15.9845 7.99863 15.9658 8.52223 15.8922C9.05711 15.8252 9.55753 15.7006 10.0235 15.5186C10.4959 15.3252 10.8515 15.087 11.0902 14.8038C11.2347 14.6316 11.3222 14.389 11.3526 14.0758C11.3831 13.7626 11.3676 13.4379 11.3061 13.1017C11.2624 12.7607 11.1733 12.4462 11.039 12.1581C10.9159 11.8766 10.7585 11.6804 10.5668 11.5698Z" fill="#8C9CBA"/>
</svg>
