<svg width="237" height="240" viewBox="0 0 237 240" fill="none" xmlns="http://www.w3.org/2000/svg">
<path fill-rule="evenodd" clip-rule="evenodd" d="M91.2584 59.8481L91.2585 59.8484C91.2643 59.8812 91.2701 59.9138 91.2759 59.9464C91.2701 59.9137 91.2643 59.881 91.2584 59.8481ZM91.967 63.4981L91.967 63.498Z" fill="#607090"/>
<path fill-rule="evenodd" clip-rule="evenodd" d="M173.892 0.774635C174.38 1.06343 174.831 1.37552 175.272 1.73078C175.374 1.81212 175.478 1.89114 175.582 1.9697C176.152 2.40132 176.667 2.88175 177.182 3.37611C177.381 3.56623 177.583 3.75386 177.784 3.94114L177.886 4.03571C178.058 4.19585 178.233 4.35158 178.412 4.50413C178.789 4.83291 179.136 5.19459 179.488 5.55051C179.627 5.69173 179.767 5.83273 179.907 5.97361L180.003 6.07106C180.142 6.21129 180.272 6.32709 180.437 6.43723V6.56223L180.546 6.60963C180.706 6.698 180.813 6.79872 180.942 6.92893L181.092 7.07935L181.252 7.24192L181.417 7.40864C181.562 7.55469 181.707 7.70099 181.852 7.84743C182.056 8.05384 182.26 8.25992 182.465 8.46583C182.574 8.57542 182.682 8.68518 182.791 8.79511L182.94 8.94553L183.071 9.07813C183.192 9.19828 183.192 9.19828 183.374 9.31223V9.43723L183.483 9.48411C183.646 9.57431 183.759 9.67987 183.89 9.81223L184.024 9.94505C184.124 10.0622 184.124 10.0622 184.124 10.1872L184.312 10.2497V10.3747L184.499 10.4372V10.5622L184.687 10.6247V10.7497L184.874 10.8122C184.98 10.9021 184.98 10.9021 185.062 10.9997V11.1247L185.249 11.1872C185.336 11.2752 185.336 11.2752 185.431 11.3923C185.629 11.6262 185.838 11.8444 186.056 12.0603L186.157 12.1604C186.26 12.2632 186.364 12.3659 186.468 12.4685C186.606 12.6044 186.743 12.7405 186.88 12.8767L186.973 12.9677C187.138 13.132 187.295 13.3007 187.446 13.478C187.693 13.7615 187.957 14.0259 188.225 14.2898L188.382 14.4458C188.494 14.557 188.607 14.668 188.719 14.779C188.898 14.9555 189.076 15.1323 189.254 15.3093L189.345 15.4003L189.531 15.5846C189.945 15.9956 190.358 16.4063 190.773 16.8161C191.054 17.0937 191.335 17.3718 191.615 17.6506C191.762 17.7974 191.91 17.9439 192.058 18.0898C193.46 19.4702 194.211 20.8032 194.824 22.6599C194.867 22.7889 194.91 22.918 194.953 23.047C195.103 23.4924 195.252 23.9378 195.396 24.3848C195.597 25.0018 195.83 25.6041 196.07 26.2068L196.132 26.3643C196.678 27.7381 197.253 29.0924 197.89 30.4266C198.114 30.8945 198.331 31.3641 198.535 31.8408C198.657 32.1242 198.79 32.4003 198.929 32.6755C199.439 33.6838 199.896 34.7063 200.32 35.7536C200.368 35.8712 200.415 35.9888 200.463 36.1063C200.602 36.4453 200.738 36.7849 200.874 37.1247L200.935 37.2752C201.218 37.981 201.467 38.6937 201.699 39.4177L201.803 39.7425C202.255 41.1478 202.707 42.5552 203.093 43.9802C203.337 44.8782 203.638 45.7585 203.939 46.6388L204.015 46.861C204.06 46.9944 204.105 47.128 204.151 47.2615C204.437 48.1033 204.729 48.9433 205.026 49.7812C205.45 50.9739 205.857 52.1713 206.249 53.3747L206.292 53.5069C206.79 55.0339 207.217 56.5703 207.558 58.1404C208.217 61.1698 209.114 64.1256 210.345 66.9728C210.528 67.3996 210.707 67.8282 210.886 68.2569L210.951 68.4136L211.054 68.6594L211.105 68.7806C211.206 69.0225 211.309 69.2636 211.413 69.5041C212.255 71.456 212.855 73.504 213.447 75.5425C213.833 76.8709 214.236 78.1917 214.687 79.4997L214.753 79.6925C215.148 80.8329 215.601 81.9476 216.062 83.0622L216.16 83.3008C216.255 83.5299 216.35 83.759 216.445 83.988L216.538 84.2143C216.686 84.5714 216.834 84.9281 216.985 85.2839C217.437 86.3591 217.81 87.4534 218.169 88.5628C218.236 88.7711 218.305 88.9789 218.374 89.1865C218.866 90.6687 219.226 92.1878 219.566 93.7107C219.911 95.2564 220.329 96.7613 220.874 98.2497L220.934 98.4138C221.254 99.2948 221.625 100.151 222.009 101.006C223.687 104.754 223.687 104.754 224.187 106.187L224.248 106.358C224.641 107.47 224.927 108.591 225.165 109.745C225.561 111.672 226.134 113.524 226.778 115.382C227.477 117.397 228.141 119.421 228.624 121.5C228.672 121.704 228.721 121.909 228.769 122.113L228.805 122.268C228.936 122.82 229.077 123.369 229.218 123.918L229.253 124.055C229.382 124.557 229.515 125.058 229.655 125.557C229.802 126.082 229.936 126.609 230.067 127.139C230.128 127.386 230.19 127.634 230.251 127.882L230.27 127.955L230.312 128.124C230.443 128.653 230.577 129.181 230.712 129.709L230.755 129.877L230.783 129.989C230.955 130.664 231.136 131.337 231.318 132.009C231.636 133.182 231.949 134.357 232.249 135.535L232.287 135.681C232.71 137.342 233.096 139.01 233.455 140.686C233.491 140.852 233.527 141.019 233.563 141.185C234.415 145.137 234.728 149.047 234.062 153.062L234.034 153.238C233.867 154.293 233.642 155.336 233.417 156.38L233.406 156.433L233.361 156.638C233.211 157.334 233.057 158.029 232.893 158.721L232.856 158.88C232.584 160.017 232.184 161.069 231.562 162.062L231.497 162.167C230.89 163.146 230.188 164.05 229.401 164.889C229.238 165.063 229.079 165.239 228.924 165.419C228.695 165.681 228.456 165.928 228.211 166.174L228.079 166.306C227.988 166.397 227.897 166.488 227.806 166.579C227.666 166.72 227.527 166.86 227.387 167.001C227.299 167.09 227.21 167.178 227.121 167.267L226.995 167.395L226.878 167.512L226.775 167.615C226.687 167.687 226.687 167.687 226.562 167.687V167.812C226.483 167.889 226.483 167.889 226.367 167.984C226.105 168.206 225.865 168.444 225.624 168.687C225.363 168.952 225.1 169.207 224.815 169.447C224.648 169.597 224.492 169.755 224.334 169.915L224.334 169.915L224.312 169.937C224.03 170.222 223.742 170.491 223.437 170.75C223.335 170.838 223.234 170.926 223.132 171.014L223.112 171.031C222.618 171.461 222.122 171.887 221.624 172.312L221.516 172.405C221.15 172.717 220.784 173.027 220.402 173.32C220.205 173.471 220.01 173.624 219.816 173.777L219.7 173.868C219.493 174.03 219.288 174.196 219.085 174.363C218.399 174.912 217.665 175.408 216.917 175.867L216.793 175.943C216.655 176.027 216.515 176.107 216.374 176.187L216.172 176.303C215.568 176.641 214.945 176.891 214.296 177.129C214.193 177.167 214.089 177.206 213.986 177.244C213.699 177.351 213.412 177.457 213.124 177.562L212.928 177.634L212.619 177.747C210.981 178.346 209.362 179.012 207.811 179.811C207.674 179.881 207.535 179.95 207.397 180.018C206.844 180.29 206.297 180.573 205.757 180.871C205.127 181.218 204.487 181.543 203.842 181.861C203.659 181.951 203.478 182.042 203.296 182.134C201.491 183.044 199.647 183.783 197.739 184.443C196.751 184.786 195.78 185.16 194.815 185.565C194.399 185.74 193.981 185.908 193.562 186.074C193.026 186.286 192.495 186.508 191.967 186.738C191.572 186.908 191.175 187.068 190.773 187.22C189.982 187.522 189.205 187.864 188.425 188.195L188.258 188.266C187.41 188.626 186.564 188.992 185.722 189.366C185.57 189.433 185.418 189.5 185.266 189.566C184.285 189.992 183.334 190.478 182.39 190.979C181.831 191.274 181.269 191.563 180.706 191.851L180.558 191.928C180.272 192.075 179.985 192.221 179.699 192.367C179.566 192.435 179.433 192.504 179.301 192.572C178.32 193.075 177.309 193.423 176.257 193.746L175.881 193.862C175.098 194.103 174.314 194.334 173.523 194.548C173.366 194.59 173.224 194.635 173.073 194.697C172.918 194.757 172.801 194.762 172.636 194.758L172.486 194.754L172.374 194.75L172.312 194.5C172.671 194.187 172.671 194.187 172.812 194.187V194.062C172.906 193.961 172.906 193.961 172.999 193.875L172.788 194.001C170.902 195.116 168.904 195.921 166.862 196.698C164.688 197.525 162.542 198.375 160.485 199.467C158.975 200.267 157.42 200.943 155.828 201.561C155.065 201.857 154.314 202.177 153.562 202.5L153.113 202.692C152.887 202.789 152.662 202.885 152.437 202.982C152.115 203.12 151.793 203.258 151.471 203.393L151.313 203.458C151.222 203.496 151.131 203.534 151.04 203.572C150.422 203.829 149.821 204.123 149.217 204.411C148.22 204.886 147.217 205.329 146.19 205.736C146.01 205.808 145.832 205.883 145.655 205.96C144.71 206.366 143.737 206.656 142.749 206.937L142.521 207.002C142.227 207.086 141.933 207.17 141.638 207.254C140.88 207.47 140.126 207.699 139.374 207.937L139.227 207.984C137.632 208.488 136.071 209.028 134.526 209.671C133.688 210.018 132.847 210.333 131.988 210.621C131.473 210.795 130.965 210.982 130.46 211.183C129.798 211.446 129.125 211.664 128.445 211.875C126.87 212.364 125.334 212.926 123.812 213.562L123.471 213.704C123.368 213.746 123.266 213.789 123.163 213.832L123.032 213.886C122.767 213.998 122.506 214.118 122.245 214.241C121.785 214.454 121.314 214.63 120.839 214.804C120.661 214.87 120.482 214.937 120.304 215.003L120.172 215.052C119.842 215.175 119.516 215.306 119.191 215.441C118.598 215.685 117.99 215.883 117.381 216.082L117.301 216.108C116.889 216.243 116.478 216.38 116.072 216.532C114.949 216.951 113.807 217.29 112.656 217.621L112.527 217.658L112.264 217.733L111.886 217.842L111.76 217.878L111.509 217.95C109.611 218.495 107.735 219.092 105.874 219.75L105.655 219.827C104.831 220.119 104.034 220.458 103.239 220.821C102.763 221.038 102.284 221.24 101.796 221.429C101.175 221.672 100.569 221.94 99.9642 222.218C98.8972 222.709 97.8254 223.179 96.7193 223.574C96.3592 223.705 96.0069 223.85 95.6544 224C93.1639 225.054 90.5854 225.855 87.9798 226.57L87.8553 226.604C86.9848 226.843 86.1264 227.017 85.2298 227.121C84.5358 227.206 83.8588 227.303 83.1868 227.5L83.0228 227.547C82.5337 227.692 82.0475 227.845 81.5618 228L81.4253 228.043C79.9418 228.516 79.9418 228.516 78.4691 229.022C78.0348 229.177 77.5977 229.322 77.1604 229.467L77.0735 229.496L77.0729 229.496L77.0722 229.496L77.0267 229.511C76.3012 229.752 75.5774 229.997 74.8548 230.246C74.1524 230.488 73.449 230.726 72.744 230.96L72.596 231.009C72.5025 231.04 72.4091 231.072 72.3157 231.103L72.1748 231.15L71.897 231.242C71.6848 231.313 71.4724 231.384 71.2597 231.453C69.5021 232.029 67.7567 232.698 66.1868 233.687L66.0205 233.791C65.7311 233.973 65.4429 234.157 65.1556 234.342C64.655 234.664 64.1497 234.978 63.6417 235.288L63.5615 235.337C63.5004 235.374 63.4394 235.412 63.3785 235.449C62.9248 235.729 62.4602 235.956 61.972 236.168L61.8163 236.235C61.0092 236.575 60.1913 236.806 59.3375 236.988C59.2401 237.009 59.1427 237.03 59.0454 237.052C58.7912 237.107 58.5368 237.162 58.2824 237.217C58.0547 237.266 57.8271 237.315 57.5996 237.365L57.5197 237.382C56.9507 237.506 56.3813 237.628 55.8118 237.75L55.5772 237.8C54.1354 238.107 54.1354 238.107 53.5384 238.191L53.3319 238.221C52.0971 238.385 50.8496 238.462 49.6074 238.55C49.448 238.561 49.2887 238.574 49.1294 238.586C48.6415 238.622 48.1823 238.627 47.6986 238.539C46.8387 238.394 45.9824 238.359 45.1123 238.327C40.9425 238.171 40.9425 238.171 39.6243 237.812L39.4938 237.778C37.4846 237.232 35.8084 236.04 34.5618 234.375C34.489 234.281 34.4162 234.187 34.3433 234.093C34.0521 233.717 33.7675 233.336 33.483 232.955C33.2451 232.637 33.0019 232.324 32.7571 232.011C32.418 231.578 32.0897 231.138 31.7651 230.694C31.5146 230.352 31.2572 230.017 30.9954 229.683C30.344 228.852 29.7343 227.992 29.142 227.118C29.0655 227.005 28.9883 226.893 28.911 226.782C27.7811 225.136 26.8807 223.332 25.9651 221.563C25.5022 220.667 25.5022 220.667 25.015 219.785C24.7402 219.303 24.4938 218.81 24.2493 218.312C23.8963 217.595 23.5427 216.88 23.1517 216.183C22.8872 215.71 22.6477 215.23 22.4173 214.739C22.1316 214.134 21.8312 213.536 21.5306 212.937C21.1803 212.24 20.8335 211.541 20.4997 210.835C20.1971 210.198 19.88 209.567 19.5629 208.937L19.4699 208.752C19.3461 208.506 19.223 208.259 19.1008 208.012C18.9328 207.674 18.7602 207.341 18.5792 207.011C18.2936 206.481 18.052 205.934 17.8118 205.383C17.7287 205.193 17.6453 205.003 17.5618 204.813L17.4997 204.671C17.355 204.343 17.2041 204.018 17.0501 203.695C16.8535 203.28 16.6696 202.863 16.4993 202.437L16.4084 202.21C16.3077 201.958 16.2081 201.706 16.1087 201.453L16.0546 201.315C15.2019 199.145 14.4112 196.952 13.6816 194.738C13.5614 194.373 13.4386 194.009 13.3079 193.648C13.1131 193.105 12.9383 192.555 12.7635 192.005L12.7633 192.005L12.7244 191.882C12.6104 191.525 12.4948 191.169 12.3643 190.817C12.2618 190.54 12.179 190.262 12.1048 189.976C11.972 189.481 11.8155 188.996 11.65 188.51C11.55 188.217 11.4591 187.923 11.3743 187.625C11.3339 187.51 11.2923 187.395 11.2493 187.281C11.133 186.965 11.0369 186.649 10.9547 186.322L10.9056 186.133L10.8607 185.953C10.8265 185.801 10.8265 185.801 10.6868 185.75C10.6418 185.604 10.6418 185.604 10.5999 185.415C10.5099 185.033 10.3932 184.667 10.265 184.297C10.0652 183.71 9.88462 183.119 9.71399 182.523C9.61819 182.189 9.51794 181.859 9.40558 181.531C9.27225 181.141 9.15615 180.747 9.0423 180.351C8.81483 179.562 8.56671 178.78 8.31183 178L8.25309 177.818C7.96164 176.919 7.64546 176.031 7.31958 175.144C7.1816 174.768 7.04504 174.393 6.92061 174.012C6.83234 173.75 6.7353 173.491 6.63826 173.232L6.63804 173.232L6.60089 173.133L6.53009 172.941C6.39032 172.567 6.23681 172.204 6.06906 171.842C5.97997 171.644 5.9063 171.446 5.83527 171.242L5.75788 171.02C5.6703 170.764 5.58368 170.507 5.49933 170.25H5.37433L5.31256 170.097L5.2298 169.894L5.1485 169.694C5.04031 169.451 4.90652 169.237 4.76203 169.014C4.53225 168.656 4.33022 168.301 4.16217 167.911L4.10559 167.781C3.92241 167.352 3.76575 166.915 3.61185 166.475C3.37669 165.805 3.13226 165.155 2.79645 164.527C2.67097 164.281 2.56899 164.032 2.47199 163.773L2.42514 163.65C2.22242 163.094 2.26542 162.826 2.49152 162.293C2.54455 162.163 2.59736 162.034 2.64997 161.904L2.73227 161.701C2.8333 161.445 2.92426 161.186 3.01455 160.926C3.30613 160.087 3.6532 159.281 4.02246 158.473C4.127 158.244 4.23057 158.014 4.3338 157.785C4.49756 157.421 4.66191 157.057 4.82665 156.694C4.94583 156.431 5.0647 156.167 5.1834 155.904C5.26599 155.721 5.34875 155.538 5.43155 155.355C5.4706 155.269 5.5096 155.182 5.54851 155.096C5.79382 154.551 6.05157 154.014 6.32074 153.481C6.47469 153.175 6.62197 152.867 6.76886 152.558C7.00055 152.073 7.23426 151.589 7.47052 151.106L7.54581 150.952L7.62206 150.796C8.02607 149.97 8.42755 149.144 8.81183 148.308C9.4932 146.829 10.2132 145.417 11.1483 144.082C11.2449 143.944 11.3409 143.805 11.4366 143.666L11.5259 143.536C11.5832 143.453 11.6402 143.369 11.697 143.285C11.8235 143.099 11.9514 142.916 12.0906 142.739C12.4098 142.315 12.47 142.048 12.4398 141.52C12.4336 141.082 12.6055 140.743 12.9056 140.429C13.1262 140.252 13.2667 140.233 13.5462 140.25C13.9793 140.273 14.2117 140.126 14.566 139.891C15.7028 139.151 16.9068 138.57 18.15 138.035C18.3505 137.948 18.5479 137.856 18.7454 137.761C19.1261 137.584 19.5148 137.431 19.9056 137.277C20.5031 137.042 21.0906 136.789 21.6751 136.523C22.1738 136.297 22.6726 136.074 23.1829 135.875C23.9854 135.561 24.7728 135.212 25.562 134.867C25.6861 134.813 25.8101 134.758 25.9342 134.704C26.6456 134.393 27.3569 134.083 28.0672 133.77C28.9844 133.365 29.9037 132.969 30.831 132.588C31.4449 132.336 32.0552 132.076 32.6644 131.813C33.017 131.661 33.3705 131.512 33.7276 131.371C33.9519 131.281 34.1742 131.187 34.3965 131.092L34.4486 131.07C34.801 130.921 35.1542 130.775 35.5111 130.636C35.9108 130.478 36.3005 130.301 36.6907 130.121C37.5783 129.71 38.4754 129.323 39.3743 128.937L39.5878 128.845C40.4922 128.457 41.4027 128.087 42.3199 127.73C42.7245 127.572 43.1277 127.412 43.5306 127.25C43.9298 127.089 44.3294 126.93 44.7303 126.774C45.5601 126.451 46.384 126.118 47.2039 125.77C47.6353 125.588 48.066 125.408 48.5071 125.25C49.0228 125.063 49.5187 124.832 50.0178 124.605C50.6498 124.319 51.2863 124.054 51.9368 123.812C52.3837 123.643 52.8276 123.468 53.2689 123.285C53.68 123.114 54.0939 122.954 54.5113 122.799C54.8629 122.669 55.2134 122.536 55.564 122.402L55.6986 122.351L55.9366 122.261C56.4553 122.064 56.9738 121.867 57.4921 121.669C57.7248 121.58 57.9576 121.492 58.1912 121.405C58.7201 121.21 59.2429 121.003 59.764 120.787C60.8307 120.346 61.9053 119.925 62.9798 119.504L63.1705 119.429C64.0531 119.083 64.938 118.75 65.832 118.435C66.0941 118.341 66.3542 118.242 66.6145 118.143L66.6165 118.143L66.6946 118.113C67.4112 117.842 68.1325 117.584 68.854 117.326L68.8545 117.326L68.8912 117.313C69.5368 117.082 70.1804 116.848 70.8197 116.601C71.1597 116.47 71.5022 116.348 71.847 116.23C72.4262 116.031 72.9951 115.808 73.5643 115.582C74.0092 115.406 74.4554 115.234 74.9037 115.067C76.0525 114.637 77.1842 114.169 78.3118 113.687L78.5242 113.597C79.3847 113.226 80.197 112.795 80.9993 112.312L81.1375 112.229C81.8821 111.779 82.6133 111.299 83.304 110.769C83.4993 110.625 83.4993 110.625 83.6243 110.625V110.5C83.732 110.407 83.732 110.407 83.8782 110.301C84.3451 109.957 84.3451 109.957 84.6868 109.5H84.8118L84.8649 109.389C84.9326 109.258 85.0073 109.138 85.0884 109.014C85.2395 108.774 85.3517 108.536 85.4485 108.269L85.5026 108.121C86.0477 106.562 86.4083 104.926 86.7493 103.312L86.7837 103.157C87.8692 98.2205 86.8775 92.117 85.3743 87.3747C85.3487 87.2931 85.3231 87.2114 85.2976 87.1297C84.9409 85.993 84.5594 84.8666 84.1556 83.7458C83.2347 81.1893 82.4332 78.6218 81.7897 75.9813C81.7224 75.7057 81.6536 75.4307 81.5818 75.1562C81.359 74.301 81.1804 73.4389 81.0055 72.5729C80.8188 71.6499 80.6161 70.7309 80.4096 69.8121C80.3064 69.3525 80.2061 68.8923 80.1057 68.432L80.0988 68.4007C79.736 66.7373 79.35 65.0811 78.9368 63.4294L78.8874 63.2316C78.7346 62.6211 78.5817 62.0108 78.4229 61.4018C78.0807 60.0833 77.7489 58.7393 78.0469 57.3828L78.0807 57.2258C78.1743 56.7957 78.2778 56.3682 78.3834 55.9409C78.8905 53.885 79.2324 51.8045 79.5306 49.7093C79.6818 48.6479 79.8518 47.5908 80.0343 46.5344C80.0639 46.3629 80.0933 46.1913 80.1228 46.0198C80.2508 45.2749 80.3797 44.5301 80.5095 43.7855C80.5886 43.3309 80.6672 42.8763 80.7453 42.4215C80.7996 42.106 80.8542 41.7905 80.9089 41.475C80.9348 41.3255 80.9605 41.1759 80.9861 41.0263C81.27 39.3666 81.6517 37.7367 82.0657 36.1052C82.3806 34.8636 82.3806 34.8636 82.6776 33.6177L82.7156 33.4548C82.9137 32.5814 82.959 31.7051 82.9368 30.8122C83.1733 30.694 83.4298 30.711 83.6868 30.7497C83.8958 30.8489 84.069 30.9809 84.2493 31.1247C84.3299 31.1861 84.4106 31.2473 84.4915 31.3083L84.6151 31.4016C84.998 31.6815 85.3735 31.9205 85.8196 32.0857C86.5599 32.385 86.8884 32.9816 87.1935 33.68C87.5201 34.4536 87.7332 35.2551 87.9461 36.0661C88.0414 36.4275 88.1436 36.7865 88.2484 37.1452C88.7035 38.7069 89.0509 40.2868 89.3851 41.8777C89.5363 42.5959 89.6947 43.3115 89.8641 44.0256C90.2214 45.5338 90.5214 47.0544 90.8177 48.5756C90.8375 48.6769 90.8572 48.7783 90.877 48.8797L90.877 48.8798L90.8771 48.8805L90.9368 49.1872L90.9686 49.3502C91.0877 49.9617 91.2014 50.5741 91.3118 51.1872L91.3438 51.3645C91.5023 52.2445 91.6593 53.1247 91.8155 54.0052C91.8942 54.4484 91.9735 54.8915 92.0533 55.3345C92.2841 56.6164 92.5108 57.8965 92.6853 59.1874C92.7987 60.0227 92.9634 60.8429 93.1419 61.6664C93.4001 62.8641 93.5902 64.0683 93.7628 65.2807L93.7761 65.3745C93.7865 65.4473 93.7969 65.5201 93.8074 65.5929C93.8451 65.8559 93.8821 66.119 93.9176 66.3823C94.0044 67.0107 94.1253 67.6148 94.2985 68.225C94.3633 68.4544 94.4248 68.6846 94.4864 68.9148L94.5233 69.0526C94.8435 70.2556 95.0133 71.4795 95.1725 72.7122C95.2939 73.6394 95.4739 74.5398 95.7376 75.4372C96.1455 76.8847 96.4292 78.384 96.5894 79.8786C96.7287 81.1748 96.9977 82.4473 97.2783 83.7188C97.4285 84.4013 97.565 85.0843 97.6829 85.7732C97.9045 87.0655 98.1517 88.3526 98.4031 89.6394C98.4345 89.8005 98.4657 89.9617 98.4968 90.1228C98.7357 91.3588 99.0149 92.5812 99.3163 93.8034C99.7803 95.6853 100.152 97.5689 100.43 99.4869C100.464 99.7221 100.501 99.9555 100.551 100.188C100.717 100.969 100.728 101.744 100.74 102.539L100.74 102.548C100.744 102.731 100.749 102.914 100.754 103.096L100.755 103.265C100.761 103.415 100.768 103.544 100.812 103.687C100.99 103.846 100.99 103.846 101.187 103.937C101.269 104.089 101.288 104.242 101.308 104.41L101.312 104.437L101.343 104.644C101.248 105.346 100.71 105.877 100.187 106.312C99.9286 106.503 99.657 106.661 99.3743 106.812L99.2122 106.899C98.7892 107.125 98.3638 107.345 97.9368 107.562L97.7416 107.663C97.1034 107.99 96.448 108.271 95.7884 108.551L95.4335 108.702C95.1499 108.822 94.8662 108.943 94.5824 109.063C94.4567 109.116 94.331 109.17 94.2054 109.223C93.3721 109.578 92.5304 109.909 91.6855 110.236C90.5025 110.693 89.3327 111.18 88.1648 111.674C87.8451 111.809 87.5245 111.942 87.2034 112.073L87.071 112.128L86.9359 112.183C85.8313 112.636 84.7325 113.101 83.6367 113.576C82.3854 114.117 81.1238 114.632 79.8527 115.125C79.5633 115.237 79.2763 115.353 78.9915 115.476C78.2576 115.785 77.4896 116.013 76.7256 116.233C75.7707 116.509 74.8382 116.833 73.9032 117.169C73.5968 117.278 73.2894 117.385 72.981 117.489L72.8537 117.532L72.7271 117.575C71.9399 117.841 71.1638 118.125 70.3921 118.434C69.8965 118.632 69.3974 118.815 68.8939 118.992C68.2208 119.229 67.5565 119.483 66.8938 119.746C66.2196 120.015 65.5431 120.276 64.8645 120.532C63.7749 120.944 62.6909 121.369 61.6087 121.801C60.5213 122.234 59.4317 122.654 58.3304 123.05C57.0723 123.506 55.828 124 54.5841 124.493L54.3627 124.581C54.0601 124.701 53.7571 124.82 53.4537 124.938C52.6985 125.232 51.9486 125.535 51.2035 125.854C50.5886 126.116 49.9682 126.364 49.347 126.61C48.6914 126.871 48.0395 127.138 47.39 127.414C46.7536 127.683 46.1137 127.941 45.4681 128.187C44.6993 128.481 43.9394 128.793 43.1814 129.113L43.0599 129.165L42.9377 129.217C42.4983 129.402 42.0571 129.583 41.6158 129.764C40.3903 130.267 39.1695 130.78 37.9552 131.31C36.729 131.844 35.5023 132.376 34.2611 132.875C32.3822 133.63 30.5171 134.426 28.6711 135.258C28.1458 135.494 27.6132 135.709 27.0788 135.924C26.5093 136.154 25.9505 136.403 25.3917 136.658C24.8515 136.903 24.3082 137.127 23.7518 137.333C23.4065 137.461 23.0759 137.604 22.744 137.764C22.2691 137.991 21.7812 138.187 21.2947 138.388C21.006 138.507 20.718 138.628 20.4305 138.75C19.4264 139.175 18.4169 139.585 17.4013 139.982C16.0069 140.434 16.0069 140.434 14.7493 141.125C14.6656 141.436 14.6947 141.707 14.7415 142.023C14.804 142.483 14.8282 142.939 14.8431 143.402C14.8509 143.603 14.859 143.805 14.8673 144.006C14.8716 144.116 14.8753 144.226 14.8779 144.337C14.8986 145.085 15.1376 145.73 15.404 146.423C15.6408 147.042 15.8395 147.666 16.0189 148.304L16.0582 148.444C16.2429 149.103 16.4167 149.765 16.5744 150.431L16.6146 150.599L16.6481 150.743C16.6891 150.882 16.7383 151 16.8118 151.125L16.9368 151.187C17.1359 151.891 17.2789 152.716 17.1243 153.437L16.9368 153.5L16.8743 153.187L16.5618 153.312C16.3743 153.023 16.3743 153.023 16.3743 152.812H16.2493C16.098 152.585 16.1112 152.476 16.1165 152.207L16.1199 151.983L16.1243 151.812L16.1868 152L16.4993 151.875C16.1642 150.156 15.5119 148.67 14.6039 147.173C14.5023 147.005 14.4024 146.836 14.303 146.666C14.2579 146.589 14.2129 146.512 14.1679 146.435L14.1677 146.435L14.1665 146.433L14.1439 146.394C14.0542 146.242 13.9643 146.089 13.8743 145.937L13.7715 145.756C13.6976 145.617 13.6976 145.617 13.5618 145.562L13.4993 145.875C13.3821 145.914 13.3821 145.914 13.2493 145.937C13.1086 145.796 13.094 145.724 13.0571 145.538L13.054 145.523L13.0223 145.368L12.9993 145.25L12.9461 145.369C12.6219 146.091 12.2924 146.806 11.9178 147.504C11.7602 147.797 11.6088 148.092 11.4622 148.391C11.1193 149.09 10.7415 149.766 10.3542 150.441C10.2004 150.71 10.0485 150.98 9.89648 151.25L9.83918 151.351C9.64643 151.693 9.45335 152.035 9.25641 152.374C8.33592 153.962 7.49956 155.586 6.74038 157.257C6.68799 157.372 6.63532 157.487 6.58255 157.602C6.23999 158.35 5.91203 159.101 5.62043 159.871L5.55259 160.049C4.74847 162.226 5.83231 164.469 6.5423 166.554L6.59224 166.702C6.79007 167.283 6.99861 167.859 7.22545 168.43C7.33539 168.707 7.43476 168.985 7.52668 169.269C7.64888 169.645 7.78608 170.014 7.92902 170.383C8.10153 170.828 8.26137 171.276 8.40949 171.73C8.53946 172.128 8.67665 172.521 8.83136 172.91C9.64348 174.962 10.3022 177.076 10.9421 179.187C11.0009 179.38 11.0608 179.572 11.1209 179.764C11.5107 181.013 11.8663 182.27 12.2058 183.533C12.3942 184.234 12.6004 184.928 12.8102 185.622C12.9854 186.202 13.157 186.782 13.3275 187.363L13.3658 187.494L13.4769 187.872L13.5134 187.996C13.5769 188.213 13.6404 188.43 13.7038 188.646C14.3354 190.801 15.0363 192.936 15.7504 195.064C15.9258 195.589 16.0968 196.114 16.2676 196.64C16.3198 196.801 16.3721 196.962 16.4244 197.123C16.5885 197.627 16.7518 198.132 16.913 198.637C17.5959 200.779 18.3615 202.85 19.3202 204.885C19.3716 204.994 19.4226 205.103 19.4737 205.212C19.8456 206.007 20.2386 206.789 20.6449 207.567C20.9672 208.184 21.2743 208.808 21.5743 209.436C21.7916 209.891 22.0139 210.341 22.2532 210.785C22.5005 211.244 22.7204 211.713 22.9368 212.187C23.3163 213.017 23.7298 213.827 24.1501 214.637L24.2217 214.775L24.293 214.912C24.5228 215.356 24.7459 215.802 24.9681 216.25C25.2252 216.767 25.4858 217.281 25.7566 217.791C25.9693 218.191 26.1774 218.594 26.385 218.997C27.5082 221.177 28.6637 223.341 29.9368 225.437L30.0388 225.605C30.748 226.771 31.5162 227.88 32.3365 228.969C32.515 229.208 32.6913 229.447 32.8675 229.687L32.8681 229.688L32.9251 229.765C34.0674 231.319 34.0674 231.319 35.2903 232.809C35.4821 233.031 35.6681 233.255 35.8509 233.484C37.5045 235.513 39.72 236.113 42.1868 236.562L42.3556 236.594C43.4736 236.799 44.6169 236.858 45.7493 236.937L45.9521 236.951C47.492 237.053 49.0951 237.097 50.6243 236.875L50.8458 236.844C52.0711 236.674 53.2618 236.436 54.452 236.093C55.7844 235.712 57.1376 235.482 58.5095 235.3C59.524 235.165 60.4899 235.033 61.4368 234.625L61.6013 234.557C62.4396 234.213 63.2011 233.783 63.9616 233.292C64.2314 233.118 64.504 232.95 64.7767 232.781L64.9412 232.679C66.9765 231.424 69.0692 230.353 71.253 229.381C71.5096 229.267 71.7657 229.152 72.0211 229.035C74.4229 227.934 76.9209 227.065 79.4534 226.319C81.1859 225.808 82.914 225.276 84.6009 224.629L84.734 224.578C85.1971 224.4 85.6533 224.212 86.1035 224.003C86.2932 223.917 86.4866 223.846 86.6829 223.777C87.1613 223.603 87.6265 223.402 88.0931 223.199C88.8221 222.883 89.5579 222.595 90.3038 222.322C90.5101 222.246 90.7156 222.167 90.921 222.089C91.7808 221.759 92.6438 221.443 93.5133 221.14C94.2152 220.895 94.9079 220.633 95.5984 220.357C95.9652 220.211 96.332 220.071 96.7064 219.945C97.2451 219.762 97.7657 219.536 98.2889 219.314C99.1088 218.966 99.9366 218.642 100.768 218.324C101.123 218.188 101.476 218.049 101.828 217.909C102.796 217.526 103.755 217.169 104.758 216.89C105.107 216.793 105.45 216.685 105.792 216.566C106.438 216.345 107.098 216.176 107.758 216.002C109.498 215.539 109.498 215.539 111.212 214.993C111.594 214.861 111.979 214.745 112.368 214.635C114.448 214.044 116.387 213.068 118.311 212.095C118.556 211.971 118.801 211.849 119.046 211.726L119.259 211.62C119.415 211.542 119.571 211.464 119.727 211.387C120.281 211.111 120.832 210.829 121.381 210.544C123.198 209.602 125.053 208.739 126.963 208C127.147 207.928 127.331 207.856 127.515 207.784C128.302 207.476 129.093 207.189 129.897 206.929C130.067 206.873 130.237 206.814 130.406 206.754C131.874 206.242 133.377 205.909 134.898 205.597C136.547 205.26 138.163 204.843 139.761 204.308C139.934 204.251 140.108 204.195 140.283 204.139C140.918 203.935 141.533 203.704 142.144 203.437C142.437 203.31 142.736 203.197 143.034 203.083C143.397 202.942 143.757 202.793 144.117 202.644L144.235 202.595C144.811 202.357 145.383 202.112 145.953 201.861C146.392 201.669 146.834 201.486 147.278 201.305C147.916 201.044 148.549 200.773 149.175 200.484L149.363 200.397C149.718 200.232 150.069 200.059 150.419 199.883C150.935 199.624 151.457 199.377 151.98 199.133C152.168 199.044 152.357 198.956 152.545 198.868L152.683 198.803C152.929 198.688 153.173 198.571 153.417 198.452C154.085 198.124 154.765 197.831 155.452 197.547L155.586 197.491C157.121 196.856 158.706 196.329 160.317 195.925C160.957 195.764 161.591 195.584 162.226 195.402C162.903 195.209 163.579 195.021 164.265 194.863C167.209 194.18 170.078 193.114 172.767 191.739C173.165 191.538 173.571 191.357 173.979 191.178C174.308 191.031 174.626 190.871 174.941 190.699C175.417 190.441 175.906 190.22 176.401 190.004C176.65 189.896 176.899 189.786 177.147 189.676L177.293 189.612C177.633 189.462 177.97 189.307 178.304 189.144C178.883 188.864 179.474 188.612 180.066 188.361C180.441 188.201 180.809 188.035 181.171 187.85C181.691 187.586 182.226 187.364 182.764 187.14L182.792 187.129C182.893 187.087 182.993 187.045 183.093 187.003C183.294 186.919 183.494 186.835 183.695 186.752C183.903 186.665 184.111 186.577 184.319 186.489L184.479 186.422L184.588 186.376C184.651 186.349 184.713 186.322 184.776 186.296C185.197 186.118 185.623 185.956 186.054 185.802C186.284 185.72 186.514 185.636 186.744 185.552C187.075 185.432 187.408 185.312 187.741 185.194C187.867 185.15 187.993 185.104 188.12 185.059C189.034 184.732 189.956 184.49 190.9 184.268C191.284 184.178 191.665 184.084 192.042 183.968C192.502 183.828 192.965 183.702 193.429 183.578L193.549 183.546C194.02 183.42 194.492 183.298 194.965 183.181C197.295 182.606 199.689 181.887 201.812 180.75C201.92 180.696 202.028 180.642 202.137 180.588C203.235 180.047 204.32 179.478 205.402 178.906C205.87 178.658 206.341 178.42 206.816 178.185C206.937 178.125 207.057 178.064 207.177 178.002C208.308 177.427 209.473 176.938 210.65 176.465C210.874 176.375 211.097 176.284 211.32 176.193C212.274 175.805 213.235 175.442 214.207 175.101C215.031 174.811 215.844 174.493 216.597 174.043L216.747 173.954C217.505 173.502 218.205 173.011 218.884 172.447C219.097 172.271 219.314 172.103 219.534 171.937C219.964 171.61 220.37 171.257 220.775 170.9C220.886 170.802 220.997 170.706 221.109 170.609L221.136 170.586C221.362 170.388 221.583 170.184 221.804 169.98L221.805 169.98L221.848 169.94C222.018 169.784 222.188 169.63 222.363 169.48C222.617 169.26 222.862 169.03 223.108 168.8L223.2 168.713C223.454 168.475 223.708 168.239 223.964 168.004L224.132 167.85C224.271 167.724 224.412 167.6 224.554 167.476C224.803 167.259 225.044 167.035 225.284 166.808L225.545 166.563L225.678 166.438C225.933 166.198 226.189 165.961 226.445 165.723L226.555 165.62L226.657 165.525C226.738 165.448 226.816 165.368 226.893 165.288C226.999 165.187 226.999 165.187 227.124 165.187L227.171 165.07C227.264 164.912 227.339 164.892 227.499 164.812L227.558 164.695C227.629 164.554 227.7 164.478 227.816 164.371C228.096 164.099 228.337 163.797 228.58 163.493L228.58 163.493L228.624 163.437L228.745 163.289C229.741 162.062 230.644 160.791 231.12 159.267L231.168 159.112C231.35 158.517 231.489 157.912 231.624 157.304L231.665 157.125C231.912 156.026 232.125 154.923 232.312 153.812L232.348 153.599C232.422 153.17 232.493 152.741 232.562 152.312L232.588 152.149C233.083 149.103 232.934 146.447 232.095 143.486C231.584 141.684 231.133 139.885 230.846 138.033C230.634 136.672 230.306 135.375 229.92 134.054C229.625 133.042 229.348 132.027 229.081 131.008L229.022 130.78C228.792 129.902 228.566 129.023 228.343 128.143C227.844 126.176 227.293 124.222 226.64 122.301C226.518 121.94 226.414 121.577 226.315 121.21C226.211 120.831 226.098 120.455 225.982 120.079C225.766 119.37 225.555 118.659 225.355 117.945L225.303 117.759C224.943 116.467 224.67 115.163 224.416 113.848C224.334 113.419 224.246 112.991 224.156 112.564C224.051 112.067 223.951 111.569 223.855 111.07L223.819 110.887C223.772 110.642 223.725 110.398 223.679 110.154C223.478 109.099 223.234 108.086 222.87 107.074L222.826 106.949C222.404 105.768 221.911 104.618 221.367 103.489C221.199 103.14 221.036 102.789 220.874 102.437L220.786 102.246C220.296 101.178 219.839 100.105 219.437 98.9997L219.373 98.8268C218.865 97.4446 218.547 96.0017 218.19 94.5755C217.386 91.351 217.386 91.351 216.374 88.1872L216.312 88.0134C215.837 86.6805 215.348 85.3555 214.783 84.0574C214.512 83.4314 214.27 82.7933 214.023 82.1574C213.938 81.939 213.85 81.7212 213.763 81.5036C213.37 80.5243 213.022 79.5368 212.697 78.5336C212.628 78.3235 212.558 78.1139 212.487 77.9045L212.421 77.7088C212.382 77.5925 212.343 77.4762 212.303 77.36C212.149 76.9006 212.01 76.4367 211.872 75.9723L211.844 75.8797L211.844 75.8794L211.843 75.8778L211.801 75.737C211.049 73.2163 210.236 70.7633 209.201 68.3432C208.772 67.3405 208.369 66.3299 207.983 65.3102C207.958 65.2431 207.933 65.176 207.907 65.1089L207.844 64.9428C207.177 63.1847 206.713 61.4192 206.31 59.5854C205.564 56.1971 204.543 52.8451 203.276 49.6154C202.669 48.0662 202.167 46.4797 201.685 44.8878C201.621 44.6758 201.555 44.4642 201.489 44.2527C201.273 43.5632 201.06 42.8736 200.863 42.1783C200.517 40.9569 200.107 39.7597 199.687 38.5622L199.637 38.42C199.113 36.9249 198.552 35.4483 197.831 34.0351C197.214 32.8209 196.644 31.5843 196.094 30.3384C196.005 30.1372 195.915 29.9366 195.824 29.7361C195.159 28.2551 194.585 26.7378 194.015 25.2185L193.954 25.0569C193.739 24.4833 193.529 23.9087 193.328 23.3297C192.979 22.3255 192.542 21.3965 191.874 20.5622L191.759 20.4128C191.093 19.5643 190.381 18.7335 189.603 17.988C189.499 17.8747 189.499 17.8747 189.499 17.7497H189.374C189.282 17.6563 189.282 17.6563 189.176 17.5281C188.957 17.2706 188.725 17.0319 188.484 16.7951L188.232 16.5454C188.101 16.4161 187.97 16.2869 187.839 16.1578C187.711 16.032 187.584 15.9058 187.457 15.7795L187.336 15.6619C187.243 15.5686 187.152 15.4719 187.062 15.3747V15.2497H186.937C186.855 15.1667 186.855 15.1667 186.757 15.0466C186.529 14.7777 186.285 14.5309 186.032 14.2851C185.863 14.1185 185.703 13.9479 185.548 13.7673C185.287 13.4655 185.004 13.1867 184.72 12.9069L184.656 12.8435C184.02 12.2173 184.02 12.2173 183.793 11.9499C183.489 11.5959 183.155 11.2711 182.825 10.9423C182.71 10.8275 182.595 10.7123 182.48 10.5971C182.406 10.5233 182.333 10.4495 182.259 10.3757L182.156 10.2725C182.007 10.1242 181.86 9.98889 181.694 9.85905L181.562 9.74973V9.62473L181.455 9.57998C181.279 9.4811 181.16 9.36044 181.018 9.2158L180.848 9.04356C180.789 8.9834 180.73 8.92322 180.671 8.86301C180.327 8.51234 179.985 8.16511 179.611 7.8457C179.435 7.69459 179.265 7.53641 179.095 7.37819L179.094 7.37733L179.019 7.30723C178.873 7.17278 178.727 7.04535 178.57 6.92429L178.437 6.81223V6.68723L178.325 6.6365C178.185 6.5615 178.089 6.4831 177.975 6.374L177.857 6.2624L177.734 6.14426C177.649 6.06405 177.564 5.98389 177.479 5.90379L177.357 5.78852C177.202 5.64256 177.041 5.50306 176.879 5.36399C176.737 5.23889 176.599 5.11027 176.461 4.98116C174.965 3.50891 174.965 3.50891 173.062 2.87473C171.291 2.94057 169.61 3.64686 168.005 4.33689C167.151 4.7041 166.28 5.01968 165.4 5.32163C165.301 5.35637 165.203 5.39237 165.106 5.42979C164.554 5.64021 163.987 5.79436 163.419 5.95502C162.295 6.27379 161.18 6.6127 160.07 6.97797C159.554 7.1468 159.036 7.30885 158.519 7.47239C157.86 7.68083 157.201 7.88987 156.543 8.10307C155.822 8.33672 155.098 8.56019 154.372 8.77595C153.931 8.90706 153.491 9.04055 153.052 9.17771C151.976 9.51333 150.899 9.83349 149.811 10.127C148.634 10.4451 147.47 10.8015 146.306 11.1605C145.726 11.3392 145.144 11.5137 144.562 11.6872L144.4 11.7355C143.872 11.893 143.344 12.0502 142.816 12.2073L142.422 12.3247L142.223 12.384C141.765 12.5202 141.308 12.657 140.85 12.7939C140.599 12.8691 140.348 12.9442 140.097 13.0193L139.91 13.0752C139.159 13.2995 138.407 13.5177 137.652 13.7263C136.896 13.9353 136.149 14.167 135.402 14.4067C134.631 14.6538 133.856 14.8836 133.078 15.1048C131.926 15.4321 130.789 15.786 129.656 16.1735C129.336 16.2831 129.015 16.3908 128.693 16.4973L128.553 16.5437L128.273 16.6367C127.157 17.0068 126.045 17.3873 124.933 17.7689C123.367 18.3062 121.801 18.8397 120.23 19.3609C119.893 19.4727 119.556 19.5851 119.22 19.6977L118.775 19.8465L118.691 19.8745C118.627 19.896 118.563 19.9176 118.498 19.9392C118.026 20.0977 117.552 20.2533 117.077 20.4031C116.255 20.6619 115.441 20.9396 114.628 21.2224L114.414 21.2965C113.457 21.6285 112.502 21.9656 111.55 22.3099C110.646 22.6365 109.739 22.9532 108.831 23.2679C108.136 23.5088 107.442 23.7507 106.749 23.9997C105.988 24.2735 105.224 24.5392 104.46 24.8044C103.607 25.1007 102.753 25.3978 101.902 25.699L101.646 25.7893C101.296 25.9129 100.946 26.0366 100.597 26.161C99.4952 26.553 98.3917 26.9343 97.2785 27.2916C94.586 28.1562 91.8862 29.0604 89.2794 30.1599C88.5276 30.4704 88.5276 30.4704 88.2493 30.3747C88.1729 30.0182 88.1719 29.7647 88.3509 29.4411C88.7416 28.9373 89.2185 28.5944 89.7493 28.2497L89.8956 28.1543C91.1457 27.3445 92.4452 26.7825 93.8335 26.2587C94.074 26.1679 94.3136 26.0752 94.5526 25.9804C95.3538 25.666 96.169 25.4078 96.9915 25.156C98.9227 24.5645 100.764 23.8666 102.598 23.0174C104.102 22.3253 105.638 21.7079 107.187 21.1247L107.323 21.0733C108.27 20.7171 109.217 20.3614 110.173 20.0327C110.528 19.9102 110.88 19.7798 111.231 19.6477C112.028 19.3486 112.829 19.0779 113.641 18.8234C114.115 18.6736 114.589 18.5204 115.062 18.3669L115.221 18.3153C116.324 17.9572 117.422 17.5826 118.519 17.2052C118.97 17.0504 119.422 16.8998 119.874 16.7497C119.989 16.7114 120.103 16.673 120.218 16.6345L120.374 16.582C120.476 16.5481 120.577 16.514 120.678 16.48C120.963 16.3847 121.248 16.293 121.535 16.2046C121.928 16.0835 122.317 15.9567 122.705 15.82C124.064 15.3417 125.434 14.9238 126.82 14.5322C127.445 14.3555 128.068 14.1727 128.691 13.9899L128.691 13.9897L128.743 13.9746C129.676 13.7009 130.61 13.4316 131.548 13.1761C132.225 12.9909 132.899 12.7925 133.572 12.5933L133.71 12.5525L133.851 12.5106C134.474 12.3263 135.098 12.1448 135.723 11.9633L136.036 11.8723C136.939 11.6096 136.939 11.6096 137.841 11.3415C138.447 11.1595 139.049 10.9806 139.667 10.8431C140.381 10.6815 141.081 10.4559 141.782 10.2465C142.782 9.94859 143.784 9.67373 144.797 9.42506C145.562 9.23707 146.318 9.02821 147.073 8.80186C147.37 8.7139 147.669 8.63076 147.968 8.5476L147.999 8.5388L148.192 8.48505C148.479 8.40474 148.767 8.32465 149.054 8.24528C150.351 7.8888 150.351 7.8888 151.63 7.47764C151.929 7.37493 152.229 7.28034 152.533 7.19309C153.738 6.84694 154.902 6.42074 156.073 5.97354C156.477 5.81969 156.883 5.67433 157.292 5.53489C157.783 5.3675 158.268 5.19019 158.752 5.00292C158.917 4.93879 159.083 4.87542 159.249 4.81223L159.37 4.76618C160.206 4.447 161.053 4.17371 161.909 3.9138L162.112 3.85209C163.453 3.44369 164.801 3.07951 166.161 2.7407L166.297 2.707C166.507 2.6546 166.718 2.60259 166.928 2.55126C167.334 2.45143 167.736 2.34263 168.136 2.22117C168.761 2.03273 169.397 1.89815 170.036 1.76313L170.092 1.75118C170.669 1.62859 171.236 1.49524 171.796 1.30955L171.931 1.26486C172.317 1.1318 172.679 0.957719 173.041 0.769753C173.359 0.643951 173.577 0.640735 173.892 0.774635ZM85.5201 35.5422C85.4375 35.2595 85.373 34.9753 85.3118 34.6872H85.3743C85.4373 34.842 85.5009 34.9965 85.5651 35.1507L85.6439 35.3396L85.7204 35.5277L85.7955 35.7065L85.8639 35.8722C85.8956 35.9276 85.9135 35.959 85.939 35.9818C85.9722 36.0115 86.0183 36.0269 86.1243 36.0622L86.2493 35.5622H86.3118C86.5177 36.3781 86.7184 37.1952 86.9179 38.0127L86.9345 38.0807C86.9838 38.283 87.0331 38.4853 87.0828 38.6874C87.3324 39.7013 87.5731 40.7152 87.7796 41.7387C87.9189 42.4301 88.0656 43.119 88.2236 43.8062L88.2569 43.9507C88.3013 44.1436 88.3458 44.3366 88.3903 44.5295C88.814 46.3643 89.2242 48.1976 89.5394 50.0548C89.5543 50.1427 89.5693 50.2306 89.5843 50.3185C89.6329 50.6015 89.6814 50.8846 89.7298 51.1677C89.8094 51.6385 89.8935 52.1075 89.9911 52.5749L90.0306 52.7615C90.0568 52.8852 90.083 53.009 90.1092 53.1328C90.3626 54.3283 90.5659 55.5265 90.7462 56.7349C90.7555 56.7977 90.7648 56.8605 90.7742 56.9233C90.8499 57.4335 90.9257 57.9436 91.0125 58.4521L91.0364 58.5908C91.0655 58.7597 91.0948 58.9286 91.1243 59.0974L91.166 59.3267L91.2025 59.5351C91.2216 59.6407 91.2401 59.7448 91.2584 59.8479L91.2584 59.8481C91.2643 59.881 91.2701 59.9137 91.2759 59.9464C91.2809 59.9745 91.2859 60.0026 91.2909 60.0307C91.3669 60.4548 91.4451 60.8686 91.5618 61.3122C91.7416 61.731 91.8918 62.9081 91.967 63.498L91.967 63.4981L91.9671 63.4989L91.9671 63.4991C91.975 63.5611 91.9821 63.6165 91.9883 63.6639C92.0183 63.9022 92.0501 64.1403 92.0828 64.3782L92.1036 64.5288C92.1723 65.0305 92.2479 65.5307 92.3326 66.03L92.3548 66.1599C92.5257 67.1593 92.7252 68.1531 92.927 69.1466C93.0031 69.5204 93.079 69.8941 93.1534 70.2681L93.1868 70.4372C93.2176 70.5925 93.248 70.7478 93.2774 70.9033L93.3033 71.0422C93.3566 71.3136 93.3878 71.5406 93.3118 71.8122L93.1868 71.6872L93.1639 71.8447L93.1321 72.0505C93.0959 72.2916 93.0735 72.4197 92.9368 72.6247C92.8393 72.3593 92.7763 72.0972 92.7247 71.8202L92.6946 71.6521C92.6088 71.177 92.5356 70.7012 92.4711 70.2227C92.2642 68.6747 91.9974 67.1788 91.5743 65.6765C91.2664 64.5856 91.0348 63.4964 90.8509 62.3786C90.7254 61.6137 90.5885 60.856 90.4061 60.1024L90.3743 59.9724L90.3426 59.8423L90.2793 59.583L90.2479 59.4538C90.13 58.9704 90.025 58.4848 89.9252 57.9973L89.8978 57.863C89.7609 57.1934 89.631 56.5227 89.5032 55.8513C89.378 55.1919 89.2389 54.5371 89.0907 53.8826C88.8136 52.6593 88.5828 51.4327 88.3921 50.1927L88.3587 49.9724C88.2776 49.4407 88.222 48.974 88.1868 48.4372C88.1828 48.376 88.1079 48.255 88.0259 48.1225C87.9404 47.9844 87.8472 47.8338 87.8188 47.726L87.7735 47.4826C87.7469 47.3429 87.7204 47.2031 87.6947 47.0632C87.6762 46.9626 87.6576 46.862 87.6387 46.7615C87.6179 46.6512 87.5971 46.5409 87.5763 46.4306L87.5508 46.2954L87.5412 46.2438L87.5411 46.2432C87.4909 45.9737 87.4406 45.7041 87.3872 45.4352C87.1666 44.3361 86.9726 43.2357 86.7993 42.1282L86.7718 41.9522L86.7191 41.6186C86.6796 41.36 86.6401 41.1121 86.5611 40.8622C86.5057 40.6792 86.4779 40.5876 86.4542 40.495C86.4304 40.4024 86.4106 40.3087 86.371 40.1213L86.3709 40.121L86.3235 39.8943C86.1847 39.2315 86.0762 38.569 85.9867 37.8979C85.8801 37.0954 85.7448 36.3221 85.5201 35.5422ZM83.261 38.9021C83.3175 38.6113 83.4318 38.1489 83.5618 38.0622C83.7493 37.9372 84.5306 38.656 84.6243 39.3747C84.6816 39.7299 84.7514 40.0807 84.8365 40.4303L84.8692 40.5632C84.8922 40.6566 84.9151 40.75 84.9381 40.8433C85.222 41.9968 85.4498 43.1531 85.6524 44.3232C85.7194 44.7108 85.7911 45.0969 85.8716 45.482L85.9095 45.6599C85.9344 45.7771 85.9594 45.8943 85.9844 46.0115C86.2175 47.1006 86.4293 48.1933 86.6241 49.2899C86.9126 50.9139 87.2113 52.5315 87.5931 54.1365C87.7818 54.9294 87.9439 55.7227 88.0776 56.5268L88.1048 56.6911C88.1407 56.9077 88.1766 57.1242 88.2125 57.3408C88.4422 58.7308 88.7523 60.0904 89.0931 61.4568C89.3211 62.3697 89.5445 63.2788 89.7025 64.2068C89.8168 64.8859 89.9524 65.5547 90.1075 66.2255C90.3153 67.1226 90.5044 68.0206 90.6724 68.9261C90.8941 70.1214 91.1487 71.3053 91.4271 72.4887C91.6235 73.3235 91.8131 74.1584 91.9814 74.9994C92.1443 75.8158 92.3174 76.6286 92.5094 77.4388L92.5462 77.5935C92.6517 78.0382 92.7576 78.4828 92.8748 78.9246C93.0109 79.428 93.1368 79.9325 93.2552 80.4403C93.4401 81.2358 93.6292 82.0297 93.8359 82.8198C94.0576 83.6657 94.2642 84.5129 94.4525 85.3669C94.5927 86.0047 94.7361 86.6411 94.8943 87.2746L94.9456 87.479L94.9974 87.6854C95.33 89.0107 95.6404 90.3332 95.8882 91.6771C96.0562 92.5894 96.2403 93.4964 96.4407 94.4021C96.6198 95.2107 96.793 96.0197 96.9518 96.8326L96.9781 96.9672L96.9781 96.9673C97.147 97.8349 97.3156 98.7009 97.5798 99.5459L97.6243 99.6872C97.8782 100.539 98.2736 101.307 98.6836 102.092C98.9677 102.636 99.2492 103.179 99.5078 103.735L99.597 103.929L99.6081 103.953C99.7491 104.259 99.8791 104.54 99.9368 104.875C99.6923 105.1 99.4678 105.243 99.1608 105.37C99.0513 105.414 98.9421 105.459 98.8331 105.504L98.6507 105.58C98.2796 105.735 97.9133 105.9 97.5474 106.067C96.8669 106.377 96.1852 106.683 95.4954 106.972L95.4043 107.01C95.094 107.14 94.7838 107.27 94.4756 107.405C93.1286 107.999 91.7658 108.545 90.3904 109.071L90.2493 109.125C89.6259 109.363 88.9995 109.591 88.3699 109.812C88.2189 109.865 88.0679 109.918 87.9171 109.972L87.8758 109.986C87.3579 110.169 86.841 110.351 86.3118 110.5C86.3005 110.359 86.3005 110.359 86.4207 110.206C87.5072 108.618 88.0805 106.682 88.4616 104.812L88.4993 104.625C88.7497 103.394 88.7833 102.201 88.7716 100.951C88.7696 100.744 88.7683 100.538 88.7678 100.331C88.7648 99.0775 88.7452 97.8256 88.6949 96.5727L88.6868 96.3747C88.6726 96.0165 88.6576 95.6584 88.6395 95.3004L88.6321 95.1599C88.5896 94.3414 88.5309 93.5303 88.4001 92.7203L88.3743 92.5622C88.058 90.4845 87.4624 88.4383 86.8047 86.4458C86.6217 85.8926 86.4498 85.3373 86.2879 84.7776C86.1031 84.138 85.9111 83.5009 85.7154 82.8646C85.3827 81.7846 85.0512 80.7043 84.7332 79.6199C84.6784 79.4327 84.6231 79.2457 84.5668 79.0589C84.0584 77.3832 83.5831 75.6927 83.1993 73.9837C82.8612 72.4744 82.4825 70.9749 82.0821 69.4809C81.993 69.1489 81.905 68.8167 81.8183 68.4841C81.602 67.6541 81.3927 66.8219 81.1475 65.9999C80.9374 65.3012 80.7521 64.5977 80.5724 63.8907C80.5529 63.8139 80.5333 63.737 80.5138 63.6601L80.4811 63.5316C80.4223 63.3005 80.3634 63.0694 80.3047 62.8382L80.2631 62.6748L80.1868 62.3747C79.9963 61.6222 79.7913 60.9028 79.4835 60.1894C79.3361 59.85 79.192 59.5096 79.0692 59.1604C78.8659 58.5108 79.0744 58.076 79.373 57.4974C80.2052 55.8986 80.8822 54.2396 81.2214 52.4624L81.2493 52.3122C81.4193 51.4162 81.5187 50.5171 81.6027 49.6098C81.8368 47.0739 82.1902 44.5648 82.6983 42.0691C82.7897 41.6206 82.8711 41.1712 82.945 40.7196L82.9617 40.6161L82.9618 40.6158C83.0453 40.0984 83.1289 39.5813 83.2285 39.0667L83.261 38.9021ZM93.6634 74.8591C93.5935 74.5217 93.5031 74.2526 93.6868 73.9372H93.8118C93.9237 74.1817 93.9813 74.4269 94.0368 74.6884L94.0721 74.8598C94.0974 74.9813 94.1226 75.1027 94.1478 75.2242C94.1867 75.4145 94.2258 75.6048 94.2659 75.7948C94.2921 75.9192 94.3181 76.0436 94.3437 76.1681L94.3807 76.3481C94.4268 76.5648 94.47 76.7801 94.4993 76.9997C94.5204 77.3523 94.5569 77.6545 94.3118 77.9372H94.1868C94.0507 77.7603 94.0507 77.7603 94.0287 77.5619L94.0037 77.3308L93.9746 77.0727C93.894 76.3297 93.805 75.5934 93.6634 74.8591ZM176.804 191.558C176.936 191.485 176.936 191.485 177.062 191.437L177.187 191.5L176.98 191.629L176.863 191.701C176.739 191.769 176.739 191.769 176.562 191.687L176.667 191.63L176.804 191.558ZM158.861 197.809L159.019 197.75C159.375 197.612 159.712 197.457 160.083 197.631L160.21 197.718C160.286 197.77 160.362 197.822 160.437 197.875C159.884 198.385 159.884 198.385 159.169 198.689C158.629 198.94 158.097 199.198 157.574 199.481L157.353 199.602C156.51 200.064 155.666 200.526 154.801 200.945L154.687 201C154.101 201.286 153.508 201.554 152.912 201.815L152.659 201.926C152.156 202.147 151.658 202.36 151.124 202.5V202.375C151.501 202.255 151.857 202.098 152.218 201.937C152.353 201.877 152.488 201.817 152.626 201.761C152.788 201.696 152.921 201.64 153.05 201.519L153.124 201.437H153.249L153.312 201.125C152.924 201.146 152.572 201.186 152.206 201.319C152.103 201.359 152 201.398 151.896 201.436L151.722 201.5C151.438 201.604 151.152 201.695 150.862 201.78L150.749 201.812V201.937C150.373 202.134 149.998 202.318 149.601 202.468C149.044 202.678 148.492 202.889 147.977 203.188C147.492 203.474 147.012 203.717 146.47 203.876C145.685 204.091 144.847 204.377 144.268 204.975C144.24 205.003 144.213 205.032 144.187 205.062C144.504 205.073 144.799 205.08 145.109 205.008L145.312 204.937C145.572 204.875 145.788 204.796 146.019 204.664C146.116 204.608 146.214 204.553 146.312 204.5C146.608 204.36 146.861 204.197 147.187 204.312C146.116 204.866 145.164 205.31 143.941 205.336C143.528 205.333 143.187 205.36 142.8 205.514C142.534 205.626 142.27 205.723 141.993 205.803L141.858 205.841C141.721 205.88 141.583 205.919 141.446 205.957C141.253 206.01 141.06 206.064 140.867 206.118L140.723 206.159C140.303 206.277 139.886 206.405 139.472 206.543C139.223 206.629 139.007 206.734 138.749 206.625C138.875 206.538 139.001 206.453 139.129 206.369L139.312 206.25C139.812 205.906 140.263 205.658 140.859 205.523C141.757 205.322 142.573 204.996 143.406 204.605C144.085 204.284 144.774 203.99 145.468 203.702C146.29 203.361 147.111 203.019 147.921 202.652C148.517 202.381 149.116 202.117 149.717 201.856C150.696 201.432 151.669 201 152.635 200.546C152.812 200.462 152.989 200.379 153.167 200.299C153.45 200.172 153.73 200.042 154.008 199.905C154.938 199.446 155.865 199.012 156.833 198.637C157.11 198.531 157.384 198.418 157.657 198.301C158.056 198.13 158.456 197.964 158.861 197.809ZM150.726 202.554C150.817 202.515 150.908 202.476 150.999 202.437L151.124 202.562L151.118 202.565C150.85 202.669 150.598 202.768 150.312 202.812L150.249 202.937L150.187 202.812H150.312C150.428 202.683 150.428 202.683 150.572 202.62L150.726 202.554ZM148.062 203.937C147.904 203.978 147.904 203.978 147.749 204C147.881 203.894 147.952 203.812 148.124 203.812L148.062 203.937ZM147.499 204.125L147.624 204L147.749 204.062L147.499 204.125ZM131.691 207.953C132.069 207.861 132.438 207.754 132.808 207.632L132.951 207.585C134.328 207.129 135.922 206.601 137.378 206.777L137.624 206.812C137.77 206.833 137.916 206.853 138.062 206.875V206.937C135.975 207.695 133.893 208.477 131.846 209.337C131.191 209.614 130.536 209.871 129.862 210.096L129.73 210.14C129.053 210.367 128.376 210.576 127.687 210.761C126.989 210.949 126.301 211.154 125.614 211.38C125.437 211.438 125.259 211.497 125.081 211.553C124.391 211.769 123.726 212.019 123.062 212.304L122.85 212.397L122.652 212.484C122.434 212.58 122.235 212.648 121.999 212.687C122.16 212.552 122.32 212.432 122.499 212.321L122.706 212.203C123.04 212.013 123.38 211.839 123.726 211.672C124.002 211.542 124.233 211.421 124.437 211.187C123.94 211.322 123.486 211.491 123.024 211.714C122.803 211.82 122.583 211.92 122.355 212.008C122.136 212.091 121.933 212.191 121.726 212.301L121.576 212.384C121.381 212.435 121.381 212.435 121.187 212.375C121.732 212.124 122.272 211.866 122.807 211.594C123.422 211.281 124.037 210.972 124.675 210.707C125.01 210.568 125.341 210.425 125.667 210.265C127.565 209.327 129.631 208.466 131.691 207.953ZM121.562 212.875L121.687 212.75L121.874 212.812L121.562 212.875Z" fill="#607090"/>
<path d="M177.188 11.4375C176.695 10.8389 176.208 10.4221 175.438 10.25L175.312 10.375C175.326 10.6347 175.351 10.8194 175.454 11.0593C175.625 11.4768 175.625 11.4768 175.773 11.9032L175.852 12.1328C176.147 12.989 176.419 13.8513 176.683 14.7176C177.096 16.0752 177.518 17.4233 178.012 18.7539C178.257 19.415 178.489 20.0797 178.71 20.7494C178.979 21.564 179.253 22.3753 179.547 23.1809C179.619 23.3746 179.69 23.5684 179.76 23.7623C180.512 25.8315 181.283 27.8938 182.083 29.9451C182.328 30.5735 182.57 31.203 182.811 31.8329L182.875 32C183.412 33.3976 183.9 34.8154 184.385 36.2317C184.462 36.4556 184.538 36.6795 184.615 36.9033C185.118 38.363 185.611 39.8252 186.078 41.2969C186.343 42.1307 186.609 42.963 186.897 43.7892C187.295 44.9338 187.664 46.0874 188.029 47.2429C188.145 47.6076 188.26 47.972 188.38 48.3352C189.18 50.8997 189.18 50.8997 189.891 53.4907L189.988 53.8432C191.012 57.5729 192.045 61.3339 193.864 64.7678C195.369 67.5978 196.427 70.7077 197.227 73.8086C197.318 74.1684 197.418 74.5244 197.527 74.8795C197.84 75.8943 198.144 76.9121 198.412 77.9401L198.445 78.0693L198.479 78.1997C198.702 79.059 198.939 79.909 199.211 80.7539C199.452 81.5011 199.67 82.2515 199.871 83.0106C200.387 84.9713 200.993 86.9019 201.609 88.8333C201.699 89.1152 201.789 89.3971 201.878 89.6792L201.922 89.8164C202.136 90.4912 202.335 91.168 202.52 91.8516L202.534 91.9069C202.64 92.3028 202.745 92.6956 202.892 93.0788C203.484 95.0116 203.484 95.0116 203.812 97.0117C203.959 97.8872 204.153 98.7441 204.378 99.6025C204.437 99.8265 204.497 100.05 204.555 100.275C204.588 100.405 204.622 100.536 204.656 100.666L204.703 100.844C204.755 101.044 204.808 101.242 204.875 101.438C205.102 101.96 205.377 102.254 205.899 102.499C206.656 102.856 206.276 101.656 205.899 99.9062C205.877 99.8955 205.834 99.6709 205.792 99.4479C205.791 99.4463 205.791 99.4446 205.791 99.4429L205.688 99L205.645 98.8169C205.487 97.8343 205.228 96.9072 204.89 95.9715C204.598 95.1654 204.339 94.3662 204.152 93.5287C203.872 92.2716 203.853 92.1883 203.158 89.9987C203.144 89.9567 203.129 89.912 203.114 89.8643L203.049 89.658L203 89.5L203.078 89.7468L203.158 89.9987C203.236 90.2195 203.323 90.3668 203.562 90.5L203.75 90.0625C203.968 90.6915 204.176 91.3211 204.353 91.963C204.562 92.7239 204.801 93.4688 205.06 94.2141C205.374 95.1161 205.668 96.0181 205.924 96.9383C206.106 97.5921 206.297 98.2417 206.502 98.8888L206.547 99.0312C206.674 99.4337 206.802 99.836 206.932 100.238C207.948 103.38 208.711 106.606 209.391 109.836C209.592 110.798 209.807 111.756 210.025 112.715C210.193 113.456 210.356 114.197 210.502 114.943C210.776 116.34 211.055 117.737 211.383 119.122L211.418 119.27C211.532 119.75 211.648 120.229 211.775 120.706C211.979 121.475 212.166 122.247 212.34 123.025C212.637 124.355 212.946 125.681 213.276 127.004C213.65 128.509 213.994 130.016 214.295 131.538C214.5 132.579 214.74 133.607 214.996 134.637L215 134.652L215 134.652C215.193 135.431 215.387 136.207 215.542 136.994C215.724 137.924 215.936 138.843 216.165 139.762L216.219 139.977C216.448 140.898 216.692 141.813 216.962 142.723C217.035 142.97 217.107 143.216 217.179 143.463C217.212 143.579 217.245 143.695 217.279 143.81L217.344 144.035C217.474 144.488 217.605 144.94 217.745 145.39C217.93 145.985 218.108 146.58 218.262 147.184C218.926 149.876 219.489 153.82 217.989 156.333C217.9 156.479 217.813 156.624 217.735 156.775L217.688 156.875H217.562C216.035 158.48 216.035 158.48 214.089 159.626C213.786 159.813 213.485 160.004 213.185 160.196C212.615 160.56 212.043 160.918 211.465 161.269C211.372 161.325 211.28 161.381 211.188 161.438C210.711 161.738 210.235 162.018 209.732 162.273C209.151 162.567 208.573 162.864 208.008 163.189C207.24 163.634 206.452 164.026 205.648 164.402L205.438 164.5C205.04 164.686 204.641 164.871 204.242 165.054C204.061 165.136 203.88 165.219 203.699 165.302C202.532 165.84 201.359 166.361 200.176 166.862C199.707 167.06 199.235 167.251 198.781 167.483C198.514 167.621 198.241 167.736 197.963 167.849C197.467 168.05 196.975 168.251 196.5 168.496C196.234 168.634 195.967 168.767 195.693 168.89C194.918 169.238 194.154 169.604 193.395 169.984L193.23 170.066C192.669 170.347 192.108 170.629 191.552 170.923C190.963 171.235 190.369 171.539 189.772 171.837L189.617 171.914C188.769 172.338 187.918 172.757 187.064 173.169L186.827 173.283L186.711 173.339C186.427 173.476 186.144 173.615 185.862 173.757C185.496 173.941 185.131 174.122 184.759 174.291L184.605 174.359C184.07 174.601 183.533 174.84 182.996 175.078C182.581 175.261 182.168 175.446 181.756 175.637C181.559 175.73 181.363 175.817 181.161 175.898C180.51 176.147 180.51 176.147 179.14 176.789C178.788 176.954 178.435 177.116 178.081 177.277C177.608 177.492 177.138 177.709 176.676 177.945C176.364 178.105 176.05 178.249 175.727 178.384C175.245 178.586 174.772 178.796 174.306 179.031C173.726 179.325 173.147 179.61 172.551 179.869C172.391 179.938 172.232 180.008 172.073 180.079C171.148 180.493 170.221 180.899 169.289 181.297C168.813 181.5 168.337 181.704 167.863 181.912C167.557 182.046 167.25 182.179 166.943 182.31L166.922 182.319L166.921 182.319C166.305 182.581 165.689 182.843 165.079 183.122C164.494 183.39 163.906 183.651 163.313 183.903C163.109 183.99 162.904 184.077 162.7 184.164C161.764 184.566 160.829 184.966 159.874 185.321C159.522 185.452 159.173 185.589 158.824 185.727C158.434 185.88 158.043 186.031 157.651 186.178C157.34 186.294 157.029 186.411 156.719 186.529L156.581 186.581L156.012 186.797C155.533 186.978 155.056 187.162 154.575 187.337C153.694 187.656 152.827 187.995 151.966 188.365C151.429 188.596 150.891 188.821 150.346 189.034L150.201 189.09L150.201 189.09C149.739 189.269 149.277 189.448 148.824 189.648C148.381 189.847 147.933 190.036 147.485 190.223L147.355 190.277L146.844 190.491C146.577 190.603 146.311 190.714 146.045 190.827C145.495 191.06 144.944 191.287 144.391 191.512C143.779 191.76 143.17 192.013 142.562 192.27C141.857 192.567 141.149 192.854 140.438 193.137C139.816 193.383 139.198 193.635 138.586 193.906C138.188 194.083 137.791 194.246 137.379 194.387C137.091 194.483 136.81 194.587 136.533 194.711C135.992 194.955 135.443 195.174 134.89 195.386C134.698 195.46 134.507 195.534 134.315 195.608L134.174 195.662C133.624 195.874 133.077 196.092 132.532 196.313C131.872 196.58 131.209 196.839 130.544 197.092C129.616 197.446 128.69 197.803 127.767 198.169L127.562 198.25C126.837 198.537 126.113 198.825 125.395 199.132C124.793 199.389 124.19 199.638 123.578 199.871C123.071 200.063 122.566 200.26 122.064 200.463C121.27 200.784 120.471 201.09 119.666 201.383L119.538 201.429L119.538 201.429C118.848 201.68 118.156 201.93 117.478 202.212C117.186 202.336 116.894 202.454 116.593 202.558C115.919 202.789 115.261 203.058 114.602 203.33C114.158 203.512 113.714 203.692 113.268 203.869L112.938 204C112.15 204.314 111.365 204.633 110.562 204.906C110.146 205.048 109.735 205.203 109.326 205.365C108.659 205.631 107.99 205.887 107.313 206.124L107.203 206.163C106.722 206.331 106.241 206.499 105.769 206.691C105.214 206.919 104.653 207.126 104.086 207.324C103.373 207.574 102.666 207.837 101.961 208.109L101.928 208.122L101.927 208.123C101.432 208.314 100.937 208.506 100.431 208.668C99.7417 208.885 99.0798 209.156 98.4134 209.434C97.8587 209.665 97.3046 209.893 96.7386 210.096C96.4126 210.213 96.0894 210.336 95.7667 210.461C95.0814 210.728 94.393 210.984 93.7011 211.233C92.8907 211.524 92.0815 211.817 91.2761 212.122C91.1047 212.187 90.9333 212.252 90.7616 212.316C90.6445 212.36 90.5274 212.404 90.4103 212.448L90.2422 212.512C89.9677 212.615 89.6952 212.72 89.4257 212.835C88.9646 213.035 88.502 213.226 88.0332 213.406C87.9113 213.453 87.7895 213.5 87.6677 213.547C87.2236 213.718 86.7789 213.888 86.333 214.055C86.003 214.178 85.6736 214.303 85.3447 214.429C85.2345 214.471 85.1243 214.514 85.0141 214.556C84.8453 214.621 84.6766 214.685 84.5078 214.75C83.8676 214.997 83.2282 215.242 82.5762 215.456C82.261 215.557 81.9511 215.665 81.6432 215.788C81.2537 215.944 80.8631 216.09 80.4642 216.22C79.4869 216.538 79.4867 216.538 77.3785 217.31L77.3779 217.31L77.3777 217.31C77.0009 217.448 76.6239 217.586 76.246 217.721C75.4173 218.016 74.594 218.316 73.7852 218.664C73.3102 218.87 72.8339 219.067 72.3502 219.251C71.8701 219.433 71.3904 219.609 70.9258 219.828C70.7367 219.92 70.5477 220.006 70.3535 220.086L70.1272 220.176C70.0013 220.226 69.8754 220.276 69.7494 220.326L69.625 220.375L69.3985 220.465C68.5936 220.782 67.7905 221.101 67 221.453C66.3887 221.726 65.7734 221.988 65.156 222.247C64.2524 222.626 63.351 223.008 62.4565 223.407L62.25 223.5L61.9698 223.625L61.9697 223.626C60.019 224.499 58.0668 225.373 56.207 226.43C55.9221 226.592 55.6358 226.751 55.344 226.901L55.2109 226.969C55.0584 227.048 54.9081 227.119 54.75 227.188C54.5112 227.259 54.417 227.268 54.1865 227.169C54.0817 227.104 53.9769 227.038 53.8714 226.974L53.7522 226.903C53.535 226.77 53.3141 226.645 53.0908 226.523C52.8992 226.418 52.7083 226.311 52.5175 226.205L52.375 226.125C51.166 225.448 50.1553 224.69 49.2383 223.645C49.18 223.575 49.1215 223.506 49.0625 223.438C47.606 221.993 46.5677 220.061 45.6328 218.256C45.5656 218.126 45.4979 217.996 45.429 217.867C44.7129 216.535 44.0678 215.17 43.4694 213.782L43.3999 213.62C43.3745 213.562 43.3491 213.503 43.3236 213.444C42.8475 212.346 42.3816 211.245 41.9297 210.137C41.6683 209.496 41.4056 208.856 41.1294 208.221C40.4884 206.753 39.8512 205.282 39.2695 203.789C39.1109 203.38 38.9521 202.971 38.7854 202.565L38.7324 202.436L38.6793 202.307C38.3657 201.544 38.0607 200.782 37.7963 200.001C37.6852 199.672 37.5691 199.347 37.4445 199.023C37.0447 197.989 36.6494 196.951 36.3323 195.889C36.0981 195.098 35.8295 194.324 35.5511 193.548C35.2166 192.617 34.8875 191.686 34.6041 190.738C34.4085 190.08 34.2103 189.426 33.9727 188.781C33.7636 188.216 33.5679 187.648 33.3791 187.076C33.1122 186.267 32.8387 185.461 32.5556 184.658C32.1759 183.58 31.8082 182.5 31.4496 181.415C31.2963 180.951 31.1424 180.487 30.988 180.023L30.9414 179.883C30.6979 179.151 30.4507 178.42 30.2005 177.691C29.6265 176.018 29.0704 174.342 28.5544 172.65C28.4471 172.298 28.339 171.946 28.2288 171.594C27.7672 170.124 27.3269 168.647 26.9162 167.161L26.8677 166.985L26.7712 166.635L26.7234 166.462L26.6758 166.289C26.4717 165.548 26.2608 164.813 26.0117 164.086C25.807 163.492 25.6274 162.896 25.4612 162.29C25.2265 161.434 24.951 160.596 24.6565 159.759C24.5703 159.514 24.4846 159.268 24.3999 159.023C24.3258 158.807 24.2515 158.592 24.177 158.377L24.1045 158.168L24.0625 158.047C23.8644 157.469 23.6635 156.895 23.4305 156.33L23.3657 156.176C23.0982 155.534 22.6897 154.402 22.052 154.05L21.9375 154C21.9375 153.875 21.9375 153.875 21.8691 153.74L21.7812 153.586C21.7294 153.495 21.6774 153.403 21.625 153.312H21.5C21.4609 153.484 21.4609 153.484 21.4375 153.688C21.556 153.9 21.582 154.079 21.5988 154.321C21.7056 155.891 21.7056 155.891 22.9123 159.49C23.1332 160.148 23.3508 160.807 23.5625 161.469C23.7076 161.923 23.8533 162.377 24.0082 162.828C24.3996 163.965 24.7492 165.106 25.0593 166.268C25.2278 166.9 25.3979 167.53 25.5955 168.153C25.8172 168.845 26.0178 169.537 26.1994 170.24C26.7764 172.475 27.4537 174.669 28.1998 176.853L28.25 177C28.3717 177.356 28.4938 177.712 28.6178 178.067L28.6273 178.094C28.7109 178.333 28.7946 178.572 28.8762 178.812C29.1993 179.766 29.5371 180.715 29.8829 181.661C30.6247 183.69 31.3343 185.726 32 187.781C32.307 188.73 32.6225 189.676 32.9465 190.62L33.0566 190.94L33.1104 191.097C33.2599 191.532 33.4066 191.968 33.5512 192.405C33.8146 193.203 34.0882 193.997 34.3672 194.789C34.639 195.561 34.9059 196.334 35.1635 197.111C35.6641 198.622 36.1925 200.119 36.7583 201.607L36.8125 201.75C37.3106 203.06 37.8136 204.368 38.3496 205.663L38.4206 205.834C38.4603 205.93 38.4999 206.026 38.5396 206.122C38.7358 206.598 38.9325 207.073 39.1296 207.548L39.1875 207.688C39.1129 207.62 39.1129 207.62 39.058 207.484L38.9746 207.296L38.8814 207.086L38.8667 207.053L38.8603 207.038C38.817 206.94 38.7736 206.842 38.7302 206.744L38.6716 206.612L38.6714 206.611C38.2951 205.761 37.9189 204.911 37.5859 204.043C37.4321 203.64 37.2671 203.245 37.0926 202.85C36.911 202.441 36.7344 202.03 36.5711 201.612C36.2893 200.888 35.9864 200.188 35.625 199.5C35.5625 199.381 34.375 198.312 34.375 198.312C34.375 198.312 32.9667 195.77 32.4492 194.41C32.2307 193.833 32.0034 193.261 31.7656 192.691C31.5778 192.242 31.3911 191.793 31.2124 191.34C30.7191 190.087 30.2458 188.813 29.5391 187.66C29.3305 187.326 29.1372 186.986 28.9498 186.639C28.5719 185.935 28.2174 185.203 27.7749 184.537C27.5659 184.238 27.3984 183.933 27.2383 183.605C27.135 183.39 27.0397 183.18 26.8994 182.986C26.8085 182.877 26.8085 182.877 26.7439 182.746L26.7259 182.707C26.6448 182.534 26.5778 182.39 26.4375 182.25L26.375 182.688H26.5C26.5 182.952 26.5928 183.131 26.7224 183.359C27.2783 184.469 27.2783 184.469 27.7025 185.637C27.7825 185.856 27.8628 186.074 27.9432 186.293C28.1626 186.888 28.3816 187.484 28.5999 188.08C28.8031 188.634 29.0071 189.189 29.2133 189.742C29.4256 190.311 29.6316 190.882 29.8281 191.457C29.9518 191.827 30.0864 192.187 30.2412 192.545C30.4071 192.927 30.5632 193.311 30.7148 193.699C30.8004 193.918 30.8864 194.137 30.9725 194.356C31.0833 194.638 31.1941 194.92 31.3045 195.202C31.7078 196.232 32.117 197.256 32.5781 198.262C32.7447 198.621 32.9139 198.979 33.0647 199.345C33.4709 200.348 33.9237 201.319 34.4122 202.284C34.4918 202.442 34.5712 202.599 34.6503 202.757C35.0479 203.549 35.4485 204.34 35.8638 205.124C36.0155 205.41 36.1642 205.698 36.3077 205.988C36.5712 206.524 36.8441 207.054 37.124 207.582C37.2285 207.778 37.3324 207.975 37.4357 208.173C37.9402 209.137 38.4461 210.098 39.001 211.035C39.2142 211.395 39.423 211.756 39.6273 212.121C40.0702 212.911 40.4774 213.791 41.1055 214.453C41.4046 214.765 41.6037 215.118 41.8065 215.496C41.883 215.64 41.9596 215.783 42.0364 215.927C42.092 216.029 42.1476 216.132 42.2031 216.234L42.2812 216.383L42.3564 216.522C42.4595 216.717 42.8473 217.147 43.0509 217.231C43.1731 217.503 43.2954 217.774 43.417 218.046C43.7721 218.839 44.1184 219.637 44.5155 220.411C44.5954 220.566 44.6743 220.722 44.7484 220.88C45.4603 222.433 46.2928 223.998 47.3086 225.375C48.3155 226.626 49.309 227.295 50.9131 227.525C50.9987 227.537 51.0842 227.55 51.1696 227.563C51.7145 227.645 52.2589 227.712 52.8086 227.754C53.1253 227.771 53.3747 227.802 53.6636 227.94C53.8503 228.03 53.9588 228.065 54.1707 228.089L54.3867 228.082C55.3589 228.061 55.3588 228.061 57.3373 227.322L57.4883 227.266C58.233 226.989 58.9719 226.705 59.6982 226.383C59.9761 226.259 60.2565 226.143 60.5377 226.027C61.2737 225.724 62.0019 225.405 62.7285 225.08C63.1967 224.871 63.6657 224.663 64.1349 224.456L64.2734 224.395C64.8491 224.14 65.4251 223.887 66.0039 223.641C66.3329 223.501 66.6612 223.359 66.988 223.215C67.8272 222.842 68.6708 222.483 69.52 222.135C69.8044 222.018 70.0887 221.901 70.3727 221.783C71.6404 221.258 72.9122 220.743 74.1874 220.237C74.4182 220.145 74.649 220.053 74.8796 219.961C75.6462 219.653 76.4136 219.356 77.1953 219.09C77.6735 218.928 78.1476 218.759 78.6185 218.576C79.2374 218.335 79.8572 218.102 80.4855 217.886C81.0254 217.701 81.5636 217.511 82.1016 217.32L82.1403 217.307L82.1422 217.306C82.6149 217.138 83.0875 216.971 83.5621 216.809L83.7185 216.756L83.7192 216.756C84.362 216.537 85.0038 216.319 85.6328 216.062C86.0354 215.897 86.4398 215.74 86.8483 215.59C87.9213 215.197 88.9858 214.784 90.0455 214.356C90.314 214.247 90.5826 214.139 90.8513 214.03C91.0556 213.948 91.2598 213.866 91.4638 213.783C92.2382 213.468 93.0142 213.172 93.8098 212.915C94.2564 212.77 94.6935 212.609 95.1294 212.436C95.4402 212.311 95.7516 212.188 96.0632 212.065L96.2891 211.977C96.8483 211.756 97.409 211.541 97.9727 211.332C98.3512 211.192 98.7265 211.049 99.0963 210.887C99.7211 210.613 100.36 210.388 101.004 210.164C101.678 209.93 102.351 209.694 103.016 209.434C103.574 209.215 104.135 209.006 104.7 208.802C105.406 208.547 106.111 208.288 106.812 208.02C107.294 207.836 107.776 207.654 108.261 207.481C108.953 207.235 109.639 206.978 110.324 206.715C110.859 206.509 111.394 206.303 111.933 206.11C112.465 205.919 112.992 205.719 113.516 205.508C113.981 205.32 114.446 205.135 114.915 204.956C115.476 204.742 116.034 204.525 116.589 204.296C117.151 204.064 117.713 203.837 118.289 203.641C118.656 203.52 119.013 203.383 119.369 203.234C119.847 203.035 120.328 202.848 120.812 202.663C121.634 202.35 122.456 202.034 123.27 201.699C123.741 201.505 124.214 201.315 124.69 201.134C125.254 200.92 125.814 200.701 126.367 200.461C127.246 200.079 128.137 199.73 129.031 199.387C129.618 199.162 130.204 198.934 130.789 198.703C131.208 198.538 131.626 198.373 132.048 198.216C132.359 198.101 132.667 197.984 132.973 197.857C133.469 197.65 133.968 197.452 134.47 197.259C135.248 196.959 136.024 196.657 136.799 196.35L137.061 196.247L137.19 196.196C137.429 196.102 137.668 196.008 137.907 195.914C139.184 195.419 140.449 194.897 141.714 194.37C141.954 194.269 142.194 194.169 142.434 194.069L142.797 193.918C143.102 193.79 143.407 193.663 143.714 193.538C144.508 193.213 145.3 192.887 146.078 192.523C146.583 192.288 147.091 192.071 147.609 191.867C148.024 191.705 148.435 191.539 148.84 191.354C149.52 191.039 150.213 190.764 150.912 190.493C151.301 190.342 151.689 190.188 152.077 190.032C153.324 189.531 154.573 189.038 155.827 188.556L156.105 188.449C156.58 188.267 157.055 188.086 157.535 187.918C157.95 187.773 158.361 187.623 158.769 187.461C159.306 187.246 159.843 187.034 160.385 186.832C162.432 186.066 164.449 185.234 166.431 184.311L166.562 184.25L166.808 184.135L166.91 184.088L167.039 184.027C167.332 183.89 167.625 183.755 167.92 183.622L168.073 183.553C168.616 183.309 169.16 183.069 169.704 182.829C170.659 182.409 171.611 181.986 172.559 181.551C173.243 181.236 173.93 180.926 174.619 180.622C175.39 180.281 176.156 179.934 176.918 179.574C177.482 179.307 178.048 179.045 178.621 178.797C179.393 178.462 180.156 178.107 180.919 177.751C181.455 177.501 181.991 177.251 182.534 177.016C182.871 176.87 183.205 176.718 183.535 176.558C183.995 176.334 184.456 176.114 184.923 175.905L184.931 175.901C185.748 175.537 186.565 175.173 187.352 174.746C187.672 174.571 187.997 174.411 188.328 174.258C188.645 174.111 188.958 173.959 189.266 173.795C189.976 173.415 190.696 173.054 191.416 172.694L191.625 172.59C192.553 172.126 193.482 171.664 194.416 171.21L194.551 171.145C195.361 170.751 196.174 170.365 196.996 169.999L197.188 169.914L197.537 169.759C198.745 169.223 199.953 168.687 201.175 168.182C202.255 167.738 203.321 167.261 204.379 166.766C204.569 166.676 204.76 166.586 204.952 166.5C205.529 166.246 206.1 165.988 206.656 165.691C206.95 165.534 207.244 165.377 207.543 165.229C208.744 164.641 209.905 163.978 211.062 163.309C211.431 163.094 211.799 162.881 212.173 162.678C212.406 162.552 212.637 162.422 212.865 162.286C213.136 162.125 213.136 162.125 213.409 161.965L213.562 161.875C214.247 161.473 214.935 161.088 215.652 160.745L215.801 160.674C216.954 160.128 218.097 159.587 218.938 158.592L219.062 158.438C220.238 157.044 220.238 157.044 220.257 150.805L220.258 150.676C220.262 149.577 220.168 148.512 219.937 147.437L219.887 147.211C219.645 146.13 219.645 146.13 218.961 143.868C218.379 141.944 217.867 140.007 217.408 138.05C217.325 137.694 217.241 137.337 217.157 136.981C217.091 136.702 217.024 136.424 216.958 136.145L216.859 135.727C216.676 134.954 216.496 134.181 216.335 133.403C216.235 132.916 216.132 132.431 216.02 131.946C215.97 131.729 215.92 131.511 215.87 131.294L215.836 131.146C215.693 130.524 215.551 129.901 215.41 129.279L215.312 128.848C215.152 128.139 214.99 127.431 214.835 126.721C214.595 125.615 214.336 124.516 214.059 123.418C213.807 122.422 213.565 121.425 213.343 120.422C213.271 120.094 213.197 119.766 213.122 119.439L213.078 119.25C212.989 118.864 212.9 118.478 212.807 118.093C212.42 116.501 212.076 114.905 211.757 113.299C211.417 111.593 211.043 109.902 210.616 108.215C210.468 107.63 210.332 107.043 210.205 106.454C209.958 105.303 209.664 104.167 209.355 103.031C209.326 102.925 209.298 102.82 209.269 102.714C208.966 101.598 208.662 100.482 208.334 99.3733L208.33 99.3594L208.33 99.3593C208.266 99.1432 208.202 98.9272 208.141 98.7103C207.962 98.0679 207.773 97.4325 207.559 96.8008C207.425 96.4088 207.296 96.018 207.189 95.618C207.091 95.2482 206.986 94.8871 206.851 94.529C206.669 94.0516 206.503 93.5722 206.35 93.0843L206.277 92.8477L206.276 92.8425C206.166 92.4858 206.056 92.129 205.952 91.7704C205.745 91.0449 205.502 90.3371 205.242 89.6289C204.968 88.8811 204.708 88.1307 204.466 87.3718C204.263 86.7354 204.064 86.0988 203.82 85.4766C203.597 84.9111 203.391 84.3404 203.187 83.7681L203.135 83.6216C202.913 83.0016 202.692 82.3816 202.461 81.7654C201.403 78.9644 200.415 76.1381 199.473 73.2961C199.374 72.9961 199.274 72.6963 199.173 72.3967C198.872 71.5015 198.571 70.6069 198.297 69.7031C198.162 69.259 198.024 68.8171 197.876 68.3775C197.457 67.1433 197.098 65.8932 196.754 64.6364C196.657 64.2812 196.56 63.9263 196.459 63.5723C196.411 63.4064 196.364 63.2406 196.317 63.0747L196.281 62.9492C196.113 62.3569 195.954 61.7631 195.808 61.1648C195.28 58.9968 194.487 56.951 193.593 54.9096C193.02 53.6052 192.537 52.2921 192.121 50.9297C191.989 50.4923 191.854 50.0566 191.707 49.6239C191.457 48.8912 191.228 48.1529 191.003 47.4122L190.945 47.2227C190.755 46.5952 190.565 45.9677 190.377 45.3396C189.744 43.2249 189.076 41.1202 188.354 39.0341L188.305 38.8924L188.256 38.7515C188.139 38.4128 188.024 38.0735 187.911 37.7333L187.861 37.5806L187.761 37.2794C187.542 36.6129 187.327 35.945 187.066 35.293C186.927 34.9539 186.806 34.612 186.691 34.2636C186.604 33.9991 186.516 33.735 186.426 33.4713L186.378 33.3306C186.327 33.1818 186.277 33.0331 186.226 32.8843L186.172 32.7266C185.541 30.8775 184.901 29.0313 184.253 27.188L184.203 27.0469C184.039 26.5814 183.876 26.1159 183.711 25.6507C183.27 24.4049 182.839 23.1565 182.424 21.9016C182.34 21.6456 182.255 21.3896 182.169 21.1341L182.091 20.905L181.992 20.61L181.945 20.4727C181.582 19.3383 181.582 19.3383 181.261 18.191C181.172 17.8745 181.083 17.5582 180.993 17.2421C180.956 17.1132 180.919 16.9844 180.883 16.8555L180.857 16.7638C180.585 15.7826 180.31 14.7932 179.658 13.9852L179.574 13.8867C179.436 13.7169 179.298 13.549 179.145 13.3928L179.062 13.3125C178.856 13.0525 178.642 12.8357 178.39 12.6196C177.957 12.2497 177.553 11.8751 177.188 11.4375Z" fill="#607090"/>
<path d="M184.75 92.5624C185.447 93.0996 185.825 93.9038 186.187 94.6874C186.227 94.7746 186.227 94.7746 186.269 94.8636C186.716 95.8337 187.117 96.8177 187.505 97.8125C187.522 97.8552 187.538 97.8979 187.555 97.9418C187.572 97.9841 187.588 98.0263 187.605 98.0698C187.76 98.4661 187.919 98.8606 188.082 99.2538C188.104 99.309 188.127 99.3642 188.15 99.4211C188.291 99.7608 188.449 100.089 188.615 100.417C188.868 100.918 189.099 101.427 189.324 101.941C189.344 101.987 189.363 102.032 189.384 102.079C189.508 102.361 189.63 102.643 189.753 102.926C189.81 103.057 189.867 103.188 189.924 103.32C190.404 104.426 190.83 105.543 191.209 106.689C191.281 106.907 191.354 107.125 191.426 107.343C191.457 107.435 191.488 107.527 191.519 107.62C191.582 107.809 191.645 107.999 191.708 108.189C191.724 108.236 191.74 108.284 191.757 108.333C191.789 108.43 191.821 108.527 191.854 108.624C191.934 108.866 192.014 109.107 192.094 109.349C192.625 110.96 193.236 112.532 193.877 114.102C194.087 114.617 194.293 115.134 194.498 115.652C194.561 115.809 194.625 115.966 194.689 116.123C196.711 121.163 196.711 121.163 196.056 123.129C195.968 123.312 195.875 123.465 195.75 123.625C195.719 123.664 195.689 123.704 195.658 123.744C195.017 124.461 194.022 124.991 193.152 125.359C193.058 125.399 193.058 125.399 192.963 125.44C192.068 125.821 191.166 126.183 190.254 126.52C189.182 126.917 188.133 127.325 187.114 127.847C186.938 127.937 186.761 128.025 186.584 128.113C185.719 128.549 184.895 129.047 184.07 129.553C183.17 130.106 182.257 130.63 181.32 131.117C181.249 131.154 181.177 131.191 181.104 131.23C180.564 131.507 180.013 131.756 179.456 131.999C179.222 132.102 178.988 132.206 178.754 132.31C178.662 132.351 178.569 132.392 178.477 132.433C178.283 132.519 178.089 132.605 177.896 132.692C177.797 132.736 177.698 132.78 177.599 132.824C177.528 132.855 177.528 132.855 177.455 132.888C177.205 132.999 176.954 133.11 176.702 133.219C175.362 133.805 174.067 134.5 172.812 135.25C171.601 135.971 170.388 136.688 169.128 137.32C169.074 137.348 169.02 137.375 168.964 137.403C168.608 137.579 168.246 137.733 167.875 137.875C167.95 137.897 167.95 137.897 168.027 137.919C168.265 137.987 168.503 138.056 168.742 138.125C168.807 138.144 168.807 138.144 168.874 138.163C169.402 138.316 169.929 138.472 170.453 138.637C171.795 139.058 173.132 139.361 174.52 139.586C175.044 139.672 175.56 139.772 176.075 139.907C176.122 139.919 176.17 139.932 176.219 139.944C177.384 140.26 178.49 140.894 179.148 141.937C179.353 142.304 179.587 142.759 179.5 143.187C179.341 143.378 179.244 143.485 178.996 143.516C178.525 143.487 178.137 143.247 177.742 143.006C177.355 142.773 176.984 142.58 176.555 142.439C176.507 142.423 176.459 142.407 176.409 142.391C175.867 142.218 175.314 142.109 174.755 142.003C174.452 141.945 174.149 141.884 173.846 141.823C173.788 141.811 173.729 141.8 173.669 141.788C173.09 141.67 172.525 141.519 171.958 141.354C170.239 140.863 168.491 140.737 166.71 140.747C166.51 140.748 166.309 140.749 166.108 140.749C165.539 140.751 164.969 140.753 164.399 140.756C164.049 140.758 163.699 140.759 163.348 140.759C163.216 140.76 163.083 140.76 162.951 140.761C161.125 140.773 161.125 140.773 160.518 140.419C160.38 140.237 160.41 140.097 160.437 139.875C160.51 139.68 160.606 139.502 160.707 139.32C160.735 139.268 160.763 139.217 160.792 139.163C161.084 138.633 161.412 138.128 161.75 137.625C161.803 137.544 161.857 137.464 161.91 137.383C162.013 137.228 162.116 137.073 162.22 136.918C162.326 136.761 162.43 136.603 162.535 136.445C162.845 135.975 163.165 135.516 163.5 135.062C163.929 134.479 164.349 133.892 164.738 133.28C164.995 132.878 165.264 132.485 165.536 132.094C165.7 131.858 165.853 131.622 165.992 131.371C166.116 131.157 166.251 130.951 166.384 130.743C167.314 129.289 168.032 127.837 168.58 126.2C168.604 126.128 168.629 126.056 168.654 125.982C168.701 125.841 168.747 125.701 168.792 125.56C168.989 124.97 169.267 124.402 169.812 124.062C170.503 123.729 171.314 123.837 172.036 124.003C172.111 124.032 172.111 124.032 172.187 124.062C172.263 124.289 172.234 124.32 172.132 124.528C172.104 124.584 172.077 124.64 172.049 124.698C172.018 124.759 171.988 124.82 171.957 124.883C171.893 125.013 171.829 125.144 171.765 125.274C171.732 125.342 171.698 125.41 171.664 125.48C171.531 125.751 171.401 126.024 171.271 126.296C171.02 126.821 170.767 127.345 170.504 127.865C170.346 128.178 170.195 128.495 170.045 128.812C169.5 129.962 168.895 131.048 168.205 132.118C168.035 132.381 167.87 132.648 167.71 132.918C167.41 133.425 167.094 133.921 166.778 134.419C166.302 135.17 165.837 135.928 165.375 136.687C165.958 136.499 166.529 136.279 167.1 136.058C167.218 136.012 167.337 135.967 167.455 135.922C168.894 135.355 170.243 134.489 171.581 133.721C171.75 133.625 171.918 133.529 172.087 133.433C172.78 133.038 172.78 133.038 173.468 132.635C174.925 131.771 176.428 131.04 177.989 130.381C178.349 130.228 178.699 130.063 179.047 129.885C179.414 129.698 179.784 129.52 180.156 129.344C181.658 128.627 183.119 127.845 184.566 127.023C185.97 126.225 187.374 125.478 188.857 124.835C189.449 124.578 190.037 124.314 190.622 124.043C190.876 123.926 191.128 123.809 191.386 123.704C191.918 123.486 192.415 123.223 192.914 122.937C192.978 122.901 193.043 122.865 193.109 122.827C193.458 122.623 193.797 122.424 194 122.062C194.049 121.768 193.984 121.48 193.937 121.187C193.929 121.126 193.929 121.126 193.92 121.062C193.692 119.424 193.032 117.804 192.41 116.28C192.268 115.93 192.143 115.576 192.018 115.219C191.913 114.918 191.802 114.619 191.687 114.321C191.671 114.28 191.655 114.24 191.639 114.198C191.607 114.115 191.574 114.032 191.542 113.949C191.24 113.174 190.954 112.394 190.687 111.605C190.672 111.561 190.657 111.516 190.641 111.47C190.579 111.287 190.517 111.104 190.455 110.921C189.806 109.005 189.122 107.106 188.343 105.239C188.007 104.435 187.688 103.625 187.375 102.812C187.345 102.736 187.345 102.736 187.314 102.657C186.758 101.214 186.293 99.7343 185.844 98.2553C185.269 96.3588 184.575 94.5835 183.422 92.9525C183.248 92.7052 183.248 92.7052 183.265 92.5077C183.288 92.442 183.288 92.442 183.312 92.3749C183.827 92.2376 184.306 92.2574 184.75 92.5624Z" fill="#607090"/>
<path d="M127.26 135.402C127.298 135.434 127.336 135.466 127.375 135.5C127.448 135.56 127.448 135.56 127.522 135.621C128.616 136.563 129.633 137.931 129.764 139.401C129.796 140.196 129.573 141.048 129.052 141.659C128.542 142.156 127.921 142.512 127.313 142.875C127.252 142.911 127.252 142.911 127.19 142.949C126.667 143.261 126.128 143.535 125.582 143.803C125.424 143.882 125.267 143.961 125.111 144.042C124.519 144.343 123.926 144.632 123.31 144.881C123.02 144.998 122.737 145.126 122.454 145.26C121.907 145.518 121.351 145.756 120.796 145.994C119.729 146.451 118.667 146.917 117.609 147.395C117.152 147.601 116.693 147.804 116.235 148.008C116.187 148.029 116.139 148.05 116.09 148.072C115.614 148.284 115.138 148.494 114.662 148.703C114.591 148.734 114.521 148.764 114.449 148.796C114.323 148.851 114.196 148.906 114.07 148.961C113.643 149.147 113.227 149.351 112.813 149.562C112.963 149.961 113.223 150.243 113.5 150.562C113.535 150.602 113.569 150.641 113.604 150.682C114.309 151.439 115.286 151.903 116.188 152.375C116.234 152.399 116.28 152.424 116.327 152.449C117.858 153.258 119.794 154.133 121.563 154C121.627 153.996 121.69 153.993 121.756 153.989C124.389 153.743 127.213 152.321 129.366 150.842C129.495 150.754 129.624 150.666 129.754 150.578C130.242 150.246 130.723 149.904 131.201 149.557C131.478 149.355 131.757 149.157 132.038 148.961C132.462 148.665 132.876 148.36 133.278 148.035C133.789 147.624 133.789 147.624 134.011 147.626C134.175 147.714 134.2 147.812 134.262 147.984C134.292 148.065 134.292 148.065 134.323 148.147C134.45 148.55 134.488 148.955 134.438 149.375C134.313 149.547 134.313 149.547 134.125 149.687C134.056 149.761 133.987 149.835 133.918 149.91C133.528 150.301 133.071 150.613 132.625 150.937C132.542 150.998 132.459 151.06 132.376 151.121C132.182 151.264 131.987 151.406 131.792 151.548C131.698 151.618 131.604 151.687 131.509 151.757C130.607 152.422 129.662 153.007 128.688 153.562C128.638 153.591 128.589 153.619 128.538 153.648C127.04 154.495 125.397 155.099 123.723 155.488C123.671 155.5 123.618 155.512 123.564 155.525C122.674 155.721 121.803 155.775 120.895 155.773C120.838 155.773 120.78 155.773 120.721 155.773C119.803 155.772 118.892 155.724 117.977 155.64C117.921 155.636 117.866 155.631 117.809 155.626C116.177 155.478 114.566 155.184 113.125 154.375C113.08 154.35 113.035 154.324 112.988 154.298C112.463 154.004 111.963 153.701 111.5 153.312C111.418 153.248 111.418 153.248 111.334 153.182C109.96 152.1 109.443 150.656 108.879 149.06C108.821 148.897 108.761 148.734 108.7 148.571C107.872 146.341 108.429 144.424 109.376 142.337C109.824 141.369 110.308 140.425 110.938 139.562C110.963 139.528 110.988 139.494 111.013 139.459C111.191 139.218 111.375 138.983 111.563 138.75C111.589 138.717 111.615 138.684 111.642 138.651C112.539 137.54 113.551 136.529 114.75 135.75C114.793 135.722 114.835 135.694 114.879 135.665C115.905 134.989 116.979 134.472 118.118 134.015C118.312 133.937 118.506 133.858 118.7 133.779C121.346 132.708 125.025 133.608 127.26 135.402ZM114.349 138.66C114.233 138.77 114.117 138.872 113.993 138.973C113.845 139.097 113.722 139.216 113.598 139.363C113.384 139.616 113.384 139.616 113.27 139.737C112.351 140.729 111.443 142.343 111.477 143.726C111.481 143.818 111.485 143.909 111.49 144.001C111.505 144.313 111.487 144.62 111.469 144.932C111.421 145.823 111.376 146.814 111.813 147.625C111.925 147.708 111.925 147.708 112.063 147.687C112.519 147.487 112.927 147.175 113.325 146.88C113.648 146.64 113.981 146.414 114.313 146.187C114.385 146.138 114.385 146.138 114.459 146.087C115.469 145.396 116.505 144.799 117.603 144.26C117.906 144.111 118.207 143.959 118.508 143.808C118.639 143.743 118.769 143.678 118.899 143.613C119.096 143.514 119.294 143.416 119.49 143.316C119.928 143.095 120.37 142.883 120.813 142.672C121.474 142.357 122.13 142.031 122.785 141.702C122.923 141.632 123.061 141.564 123.2 141.497C124.621 140.814 124.621 140.814 125.875 139.875C125.921 139.832 125.967 139.79 126.014 139.746C126.422 139.354 126.691 139.031 126.706 138.443C126.712 137.762 126.623 137.435 126.149 136.93C125.057 135.89 123.497 135.668 122.051 135.574C121.888 135.563 121.725 135.549 121.561 135.534C118.904 135.313 116.214 136.871 114.349 138.66Z" fill="#607090"/>
<path d="M50.286 145.065C50.4814 145.143 50.6106 145.109 50.8119 145.063C50.8737 145.155 50.8737 145.155 50.9369 145.25C50.5728 146.144 49.1824 146.584 48.3744 146.938C47.8379 147.159 47.2938 147.361 46.7494 147.563C46.4876 147.66 46.2259 147.758 45.9642 147.855C45.9021 147.879 45.84 147.902 45.776 147.926C45.003 148.216 44.2451 148.529 43.4991 148.883C43.2146 149.017 42.9273 149.145 42.64 149.273C41.5461 149.765 40.4841 150.29 39.4369 150.875C39.3904 150.901 39.344 150.927 39.2961 150.953C38.473 151.374 38.473 151.374 37.9994 152.125C37.9889 152.613 38.1193 153.076 38.2611 153.539C38.2809 153.605 38.3007 153.671 38.3211 153.739C38.6461 154.808 39.0531 155.842 39.465 156.88C39.6161 157.262 39.7663 157.644 39.9165 158.025C39.9682 158.156 40.0199 158.288 40.0716 158.419C40.2336 158.83 40.3955 159.241 40.5567 159.652C40.9296 160.603 41.3062 161.552 41.6869 162.5C41.8707 162.5 41.9722 162.409 42.1283 162.313C42.44 162.127 42.7555 161.967 43.0853 161.816C43.498 161.627 43.8872 161.417 44.2792 161.188C44.5539 161.029 44.8379 160.89 45.1224 160.75C45.4073 160.609 45.6885 160.463 45.9681 160.313C46.4527 160.052 46.9428 159.804 47.4369 159.563C47.5267 159.518 47.5267 159.518 47.6184 159.473C51.3682 157.639 51.3682 157.639 52.5619 157.938C52.79 158.042 52.8591 158.102 52.9994 158.313C53.0111 158.52 53.0111 158.52 52.9369 158.75C52.5191 159.164 51.864 159.35 51.3295 159.565C51.0413 159.68 50.754 159.798 50.4667 159.917C50.4099 159.94 50.3532 159.963 50.2948 159.987C49.3018 160.396 48.3259 160.837 47.3976 161.379C47.1505 161.521 46.8978 161.647 46.6419 161.773C46.388 161.899 46.137 162.032 45.8861 162.164C45.836 162.191 45.7859 162.217 45.7342 162.244C45.5149 162.36 45.2956 162.476 45.0765 162.592C44.4169 162.94 43.7552 163.285 43.0853 163.613C43.0309 163.641 42.9765 163.668 42.9204 163.696C42.8696 163.721 42.8188 163.745 42.7665 163.771C42.7223 163.793 42.6781 163.814 42.6325 163.837C42.4653 163.885 42.3529 163.857 42.1869 163.813C42.484 165.107 42.8922 166.365 43.3782 167.599C43.4699 167.835 43.557 168.072 43.6439 168.309C43.6613 168.356 43.6788 168.403 43.6967 168.452C43.8077 168.754 43.9171 169.056 44.026 169.358C44.3604 170.284 44.7115 171.2 45.0874 172.109C45.3037 172.632 45.5071 173.16 45.7041 173.691C45.7755 173.883 45.8485 174.073 45.9215 174.264C46.6373 176.145 47.2927 178.037 47.8175 179.98C47.9176 180.345 48.0277 180.707 48.1383 181.07C48.1869 181.25 48.1869 181.25 48.1869 181.438C48.7382 181.274 49.281 181.092 49.8224 180.898C50.8046 180.547 51.7909 180.208 52.7791 179.874C53.287 179.702 53.7925 179.525 54.295 179.338C54.7739 179.16 55.2559 178.995 55.7418 178.838C56.6879 178.53 57.6163 178.186 58.5445 177.828C58.9105 177.689 59.2792 177.556 59.6479 177.424C59.9573 177.313 60.2637 177.195 60.5688 177.072C62.1398 176.442 62.1398 176.442 62.9369 176.563C63.0962 176.636 63.1908 176.691 63.3119 176.813C63.3676 177.187 63.2539 177.411 63.0511 177.724C62.8733 177.959 62.6714 178.135 62.4369 178.313C62.3928 178.347 62.3487 178.381 62.3033 178.417C60.3195 179.889 57.6585 180.498 55.3405 181.248C54.6974 181.456 54.0549 181.666 53.4134 181.879C53.3674 181.894 53.3214 181.909 53.274 181.925C52.7683 182.093 52.2642 182.265 51.7628 182.446C51.7178 182.462 51.6728 182.478 51.6264 182.495C51.5592 182.519 51.5592 182.519 51.4907 182.544C48.3626 183.67 48.3626 183.67 47.6244 183.563C45.9101 182.596 45.0423 180.482 44.3846 178.722C44.3685 178.679 44.3524 178.636 44.3359 178.592C44.1589 178.116 43.9919 177.637 43.8275 177.156C43.8114 177.109 43.7954 177.063 43.7788 177.014C43.5503 176.347 43.3322 175.678 43.1244 175.004C42.4077 172.682 41.6241 170.376 40.7572 168.105C40.7414 168.064 40.7256 168.022 40.7093 167.98C40.2893 166.88 39.8181 165.801 39.347 164.723C39.3237 164.669 39.3004 164.616 39.2764 164.561C39.007 163.943 38.7366 163.326 38.4577 162.713C38.3118 162.391 38.1693 162.068 38.0279 161.744C38.0083 161.699 37.9886 161.654 37.9683 161.608C37.8698 161.382 37.7715 161.156 37.6733 160.93C37.637 160.847 37.6006 160.764 37.5643 160.68C37.5322 160.606 37.5001 160.532 37.4671 160.456C37.4064 160.321 37.3428 160.188 37.276 160.056C37.1944 159.89 37.1297 159.729 37.0702 159.555C37.0397 159.466 37.0397 159.466 37.0085 159.376C36.9875 159.313 36.9664 159.251 36.9447 159.188C36.9 159.057 36.8552 158.927 36.8104 158.796C36.789 158.734 36.7676 158.671 36.7455 158.607C36.6765 158.408 36.6038 158.21 36.5306 158.012C36.1066 156.82 35.7748 155.623 35.5619 154.375C35.5537 154.328 35.5455 154.281 35.537 154.232C35.4176 153.528 35.2997 152.68 35.5619 152C35.6697 151.861 35.7714 151.741 35.8939 151.617C35.9383 151.57 35.9383 151.57 35.9836 151.523C36.0713 151.431 36.1603 151.34 36.2494 151.25C36.3057 151.191 36.362 151.132 36.42 151.071C36.5619 150.938 36.5619 150.938 36.6869 150.938C36.6869 150.896 36.6869 150.855 36.6869 150.813C36.8342 150.69 36.9818 150.574 37.1361 150.461C37.1817 150.427 37.2273 150.393 37.2743 150.359C37.6697 150.069 38.0748 149.808 38.4994 149.563C38.5524 149.532 38.5524 149.532 38.6064 149.5C39.8742 148.762 41.1832 148.114 42.5295 147.533C42.7529 147.436 42.9755 147.337 43.1981 147.239C44.3267 146.739 45.4709 146.288 46.6276 145.858C46.8158 145.788 47.0036 145.716 47.1915 145.645C49.544 144.765 49.544 144.765 50.286 145.065ZM42.0619 163.625C42.1244 163.75 42.1244 163.75 42.1244 163.75L42.0619 163.625Z" fill="#607090"/>
<path d="M88.5625 123.75C88.9641 123.76 89.1721 123.976 89.4375 124.25C90.3775 125.307 90.7071 126.452 90.9375 127.812C91.2453 129.606 91.5934 131.366 92.1218 133.111C92.4246 134.112 92.6854 135.126 92.9441 136.139C92.9767 136.267 93.0093 136.395 93.042 136.522C93.0634 136.606 93.0849 136.69 93.1063 136.774C93.2178 137.21 93.3322 137.643 93.4727 138.07C93.6149 138.505 93.717 138.945 93.8203 139.391C93.9914 140.122 94.1935 140.841 94.4141 141.559C94.4284 141.606 94.4428 141.653 94.4576 141.701C94.6258 142.249 94.805 142.791 95.006 143.328C95.0625 143.5 95.0625 143.5 95.0625 143.688C95.614 143.524 96.1534 143.34 96.6914 143.137C96.8407 143.081 96.9901 143.026 97.1394 142.97C97.3372 142.897 97.535 142.823 97.7323 142.748C98.4491 142.477 99.1683 142.283 99.9151 142.111C100.479 141.979 101.027 141.82 101.578 141.645C103.392 141.068 103.392 141.068 103.812 141.188C103.764 141.797 103.386 142.301 103 142.75C102.97 142.786 102.941 142.823 102.91 142.86C101.939 143.945 100.187 144.511 98.8547 144.973C98.8146 144.987 98.7744 145.001 98.733 145.015C98.6922 145.029 98.6515 145.043 98.6096 145.058C98.5262 145.087 98.4428 145.116 98.3594 145.145C98.3182 145.159 98.277 145.173 98.2345 145.188C96.8949 145.594 96.8949 145.594 95.75 146.312C95.7249 146.932 95.8972 147.581 96.0117 148.188C96.0314 148.293 96.0512 148.399 96.0709 148.505C96.2002 149.195 96.3411 149.882 96.492 150.568C96.5976 151.05 96.6903 151.533 96.7773 152.02C96.9863 153.172 97.2489 154.311 97.5325 155.447C97.9303 157.043 98.3033 158.643 98.6593 160.248C98.695 160.409 98.7309 160.57 98.7668 160.73C98.8241 160.987 98.8808 161.243 98.9372 161.5C98.9581 161.594 98.9792 161.689 99.0003 161.784C99.4879 163.965 99.4879 163.965 99.1685 164.599C99.0619 164.751 98.9543 164.869 98.8164 164.992C98.7746 165.031 98.7328 165.069 98.6897 165.109C98.5625 165.188 98.5625 165.188 98.4365 165.186C98.0192 164.98 97.7768 164.391 97.6013 163.982C97.5827 163.939 97.564 163.896 97.5448 163.852C97.3519 163.397 97.1922 162.932 97.0387 162.463C96.9923 162.321 96.9451 162.179 96.8977 162.037C96.5932 161.12 96.3328 160.194 96.125 159.25C95.8516 158.028 95.5662 156.81 95.2429 155.6C94.9559 154.525 94.6982 153.448 94.4688 152.359C94.2344 151.248 93.9874 150.14 93.7227 149.035C93.7069 148.969 93.6912 148.903 93.675 148.835C93.4466 147.767 93.4466 147.767 93.0625 146.75C93.0373 146.778 93.0121 146.806 92.9861 146.835C92.5936 147.226 92.1437 147.354 91.625 147.5C91.5724 147.515 91.5199 147.53 91.4657 147.546C91.0791 147.657 90.6915 147.764 90.3037 147.871C90.0323 147.946 89.7611 148.022 89.49 148.098C89.3397 148.14 89.1895 148.182 89.0392 148.224C88.9415 148.251 88.8439 148.279 88.7462 148.306C86.9828 148.802 84.6581 149.4 82.875 148.688C82.8544 148.584 82.8338 148.481 82.8125 148.375C83.1667 148.096 83.5336 147.859 83.9258 147.637C83.9762 147.607 84.0266 147.578 84.0785 147.548C85.0576 146.989 86.0741 146.577 87.1406 146.219C87.3791 146.138 87.6173 146.056 87.8555 145.974C87.9127 145.955 87.9699 145.935 88.0288 145.915C88.4465 145.771 88.8571 145.614 89.2656 145.445C89.8187 145.22 90.3838 145.045 90.957 144.879C90.9984 144.867 91.0398 144.855 91.0824 144.843C91.5514 144.707 92.019 144.585 92.5 144.5C92.3306 143.614 92.1515 142.737 91.8945 141.871C91.6665 141.102 91.4668 140.329 91.2734 139.551C91.2584 139.491 91.2434 139.43 91.228 139.368C90.9583 138.286 90.9583 138.286 90.8367 137.747C90.4452 136.014 89.8616 134.33 89.238 132.668C88.9021 131.764 88.5607 130.782 88.5517 129.809C88.5508 129.736 88.55 129.662 88.5491 129.586C88.5481 129.468 88.5481 129.468 88.5471 129.347C88.5461 129.264 88.5451 129.18 88.5441 129.097C88.5397 128.745 88.536 128.394 88.5327 128.042C88.524 127.131 88.5135 126.226 88.403 125.32C88.2648 124.164 88.2648 124.164 88.5625 123.75Z" fill="#607090"/>
<path d="M77.8908 149.59C78.7501 150.196 79.4493 150.963 80.0627 151.813C80.088 151.848 80.1133 151.882 80.1394 151.918C81.0559 153.189 81.6859 154.615 82.2631 156.064C82.3122 156.186 82.3616 156.309 82.4111 156.432C82.8756 157.584 83.282 158.75 83.6487 159.937C83.6877 160.063 83.727 160.189 83.7664 160.315C84.1467 161.531 84.5058 162.753 84.8596 163.977C84.879 164.044 84.8984 164.111 84.9183 164.18C85.1371 164.937 85.3505 165.694 85.5559 166.455C85.5745 166.524 85.593 166.592 85.6122 166.663C85.6294 166.727 85.6466 166.792 85.6643 166.858C85.6794 166.914 85.6946 166.97 85.7101 167.028C85.819 167.462 85.9049 167.864 85.7111 168.282C85.5627 168.438 85.5627 168.438 85.4025 168.5C84.6719 168.5 84.6719 168.5 84.3718 168.282C83.4469 167.293 83.2137 165.652 82.8964 164.388C82.515 162.871 82.1199 161.36 81.6252 159.875C81.6003 159.8 81.6003 159.8 81.5749 159.724C80.6961 157.083 79.6873 154.23 77.7263 152.181C77.6252 152.063 77.6252 152.063 77.6252 151.938C77.5633 151.917 77.5014 151.897 77.4377 151.875C77.4377 151.834 77.4377 151.793 77.4377 151.75C77.3854 151.727 77.3854 151.727 77.332 151.704C77.1602 151.61 77.0272 151.495 76.8791 151.367C75.9745 150.626 74.8249 150.038 73.6252 150.063C73.3319 150.066 73.0496 150.051 72.758 150.02C72.0814 149.967 71.4082 150.111 70.8127 150.438C70.7615 150.466 70.7102 150.493 70.6574 150.522C70.0563 150.859 70.0563 150.859 69.6252 151.375C69.5839 151.375 69.5427 151.375 69.5002 151.375C69.485 151.407 69.4697 151.439 69.4541 151.472C69.3917 151.593 69.3244 151.712 69.2553 151.829C68.0433 153.927 67.7619 156.752 67.5002 159.125C67.4913 159.206 67.4913 159.206 67.4822 159.287C67.1669 162.398 67.8845 165.554 68.9864 168.446C70.2862 171.859 70.2862 171.859 69.8127 173C69.5296 173.438 69.0541 173.769 68.5627 173.938C68.3002 173.971 68.1764 173.974 67.9572 173.821C67.5844 173.317 67.4797 172.691 67.3478 172.09C67.2041 171.453 67.0531 170.821 66.8554 170.198C66.8059 170.042 66.7577 169.885 66.7094 169.729C66.5463 169.204 66.3789 168.684 66.1799 168.172C66.0322 167.791 65.9162 167.407 65.8103 167.013C65.5725 166.128 65.2945 165.253 65.0138 164.38C64.7575 163.578 64.5307 162.767 64.3007 161.957C64.032 161.012 63.7574 160.069 63.4756 159.127C63.4334 158.986 63.3913 158.845 63.3492 158.704C63.2676 158.43 63.1859 158.157 63.104 157.883C63.072 157.776 63.0399 157.669 63.0079 157.562C62.8228 156.942 62.634 156.324 62.4376 155.708C61.9312 154.118 61.9312 154.118 62.2443 153.422C62.4388 153.111 62.6895 152.934 63.0432 152.84C63.5055 152.771 63.9354 152.891 64.3361 153.121C64.8053 153.583 64.9779 154.342 65.1486 154.953C65.1708 155.031 65.1929 155.108 65.2158 155.187C65.2696 155.375 65.3227 155.562 65.3752 155.75C65.4371 155.75 65.4989 155.75 65.5627 155.75C65.5791 155.701 65.5791 155.701 65.5959 155.651C65.6115 155.604 65.627 155.557 65.643 155.509C65.6605 155.457 65.6779 155.404 65.6959 155.35C65.7353 155.232 65.7749 155.114 65.8145 154.996C65.9128 154.703 66.0099 154.409 66.1025 154.113C66.8891 151.628 68.0656 149.458 70.4323 148.191C72.8404 146.953 75.7908 148.152 77.8908 149.59Z" fill="#607090"/>
<path d="M149.246 118.609C149.294 118.609 149.342 118.609 149.392 118.609C150.151 118.61 150.88 118.654 151.624 118.813C151.708 118.829 151.792 118.846 151.875 118.862C152.413 118.977 152.413 118.977 152.562 119.125C152.597 119.289 152.597 119.289 152.562 119.5C152.342 119.823 152.051 120.07 151.749 120.313C151.694 120.368 151.639 120.423 151.582 120.481C151.437 120.625 151.437 120.625 151.249 120.75C150.898 120.725 150.602 120.519 150.297 120.356C149.458 119.95 148.211 119.984 147.345 120.285C147.272 120.315 147.199 120.344 147.124 120.375C147.079 120.393 147.033 120.411 146.986 120.43C145.825 120.897 144.802 121.537 143.874 122.375C143.79 122.448 143.705 122.521 143.621 122.594C143.539 122.667 143.457 122.74 143.374 122.813C143.317 122.862 143.26 122.911 143.202 122.961C141.325 124.6 140.903 126.657 140.731 129.038C140.625 130.603 140.623 132.192 140.812 133.75C140.821 133.835 140.821 133.835 140.83 133.922C141.052 135.943 141.66 137.955 142.26 139.893C142.34 140.155 142.414 140.42 142.488 140.684C142.658 141.285 142.84 141.883 143.023 142.481C143.038 142.53 143.053 142.578 143.068 142.629C143.215 143.107 143.361 143.584 143.51 144.061C143.728 144.759 143.94 145.459 144.142 146.162C144.166 146.248 144.191 146.333 144.216 146.418C144.652 147.907 144.652 147.907 144.515 148.334C144.383 148.509 144.183 148.534 143.98 148.582C143.938 148.593 143.897 148.605 143.854 148.616C143.613 148.678 143.424 148.71 143.187 148.625C143.083 148.541 143.083 148.541 142.996 148.434C142.966 148.399 142.937 148.365 142.907 148.33C142.636 147.926 142.48 147.482 142.329 147.023C142.308 146.958 142.286 146.893 142.264 146.826C142.009 146.041 141.791 145.245 141.572 144.448C141.515 144.237 141.456 144.026 141.398 143.816C141.381 143.753 141.381 143.753 141.363 143.689C141.34 143.604 141.316 143.52 141.293 143.436C141.259 143.311 141.224 143.187 141.19 143.062C141.013 142.421 140.832 141.78 140.648 141.141C140.629 141.076 140.629 141.076 140.61 141.01C140.598 140.968 140.586 140.926 140.574 140.882C140.449 140.447 140.325 140.012 140.205 139.575C139.949 138.648 139.664 137.73 139.374 136.813C139.353 136.746 139.332 136.679 139.311 136.609C138.977 135.545 138.62 134.49 138.249 133.438C138.234 133.394 138.219 133.351 138.204 133.307C137.741 131.993 137.249 130.695 136.725 129.404C136.544 128.957 136.368 128.507 136.192 128.057C135.496 126.272 135.496 126.272 134.684 124.537C134.659 124.487 134.634 124.436 134.608 124.384C134.586 124.34 134.563 124.296 134.54 124.25C134.49 124.096 134.499 124.024 134.562 123.875C134.795 123.699 134.958 123.601 135.253 123.625C135.675 123.707 135.941 123.976 136.187 124.313C136.271 124.464 136.348 124.613 136.421 124.77C136.465 124.859 136.508 124.948 136.551 125.037C136.573 125.082 136.596 125.128 136.619 125.175C136.73 125.399 136.849 125.619 136.968 125.84C137.152 126.183 137.323 126.529 137.484 126.883C137.719 127.397 137.995 127.885 138.277 128.374C138.466 128.703 138.646 129.033 138.812 129.375C138.822 129.223 138.833 129.07 138.843 128.918C138.848 128.853 138.848 128.853 138.852 128.787C138.864 128.608 138.874 128.43 138.874 128.25C138.874 128.063 138.874 128.063 138.953 127.977C139.007 127.926 139.007 127.926 139.062 127.875C139.351 127.604 139.367 127.321 139.418 126.946C139.656 125.274 139.656 125.274 139.937 124.688C139.982 124.593 139.982 124.593 140.028 124.497C140.42 123.73 140.914 123.075 141.499 122.445C141.541 122.401 141.582 122.357 141.624 122.311C141.846 122.078 141.846 122.078 141.937 122C141.978 122 142.019 122 142.062 122C142.083 121.938 142.103 121.876 142.124 121.813C142.225 121.714 142.225 121.714 142.351 121.609C142.522 121.465 142.684 121.318 142.839 121.156C143.971 120.008 145.472 119.265 146.999 118.813C147.039 118.801 147.079 118.789 147.12 118.777C147.809 118.587 148.536 118.61 149.246 118.609Z" fill="#607090"/>
</svg>
