<svg width="241" height="171" viewBox="0 0 241 171" fill="none" xmlns="http://www.w3.org/2000/svg">
<path d="M90.6875 2.6875H90.8125C92.3125 2.6875 93.8125 2.75 95.25 2.875L96.5 3L101.062 3.5625H101.312L102.688 3.75H102.875L105.5 4.1875L105.688 4.25L109 4.9375L109.25 5C110.627 5.31468 111.983 5.71122 113.312 6.1875C116.803 7.20173 120.177 8.58451 123.375 10.3125C124.154 10.7131 124.946 11.0883 125.75 11.4375L126.688 11.875C127.375 12.1875 127.938 12.5625 128.562 12.9375C129.093 13.2497 129.635 13.5416 130.188 13.8125L130.312 13.875L130.938 14.3125L131.188 14.4375L131.312 14.5625L131.688 14.75C132.679 15.39 133.638 16.0784 134.562 16.8125L134.688 16.9375C135.586 17.6485 136.503 18.3363 137.438 19C138.296 19.6127 139.13 20.2591 139.938 20.9375L140.062 21.0625C140.938 21.75 141.688 22.5625 142.5 23.375L143.062 23.875L143.375 24.25L143.5 24.375L143.688 24.5L143.812 24.625L143.875 24.875L144.062 24.9375V25.0625H144.188V25.1875L144.312 25.25L144.812 25.6875L145.25 26L145.688 25.9375H145.812L146.25 25.875C146.666 25.7906 147.083 25.7073 147.5 25.625L147.75 25.5625L148 25.5L148.5 25.4375H148.625C151.308 24.9118 154.022 24.5569 156.75 24.375L159.688 24.125H159.875C164.278 23.786 168.705 23.9749 173.062 24.6875L173.875 24.75C175.875 25 177.812 25.3125 179.75 25.6875H179.875C184.725 26.7108 189.443 28.2834 193.938 30.375L194.25 30.5C195.719 31.2291 197.198 31.9375 198.688 32.625C199.74 33.0819 200.763 33.6037 201.75 34.1875C202.401 34.5168 203.028 34.8928 203.625 35.3125L204.438 35.8125L204.625 35.9375L205.938 36.8125L206.25 37.0625C206.65 37.3275 207.046 37.5984 207.438 37.875V38C207.604 38.1044 207.771 38.2086 207.938 38.3125L208.062 38.375L208.25 38.5L208.562 38.75C208.874 38.98 209.187 39.2092 209.5 39.4375L209.688 39.5625L210.375 40.125L211.625 41L212 41.3125L212.125 41.375C212.374 41.6057 212.624 41.8348 212.875 42.0625L213.312 42.4375L214.188 43.25L214.438 43.4375V43.5625C214.603 43.6886 214.77 43.8136 214.938 43.9375L215.062 44.0625L215.188 44.1875L215.375 44.3125L215.5 44.4375L215.625 44.5625L215.688 44.8125H215.812L216 45L217 46.0625C217.842 46.8661 218.675 47.6787 219.5 48.5L219.812 48.875L219.938 49C220.188 49.25 220.188 49.25 220.188 49.375L220.375 49.4375L220.562 49.625L220.688 49.75L220.812 49.9375L221 50.125C221.797 51.0673 222.548 52.0476 223.25 53.0625C224.132 54.2508 224.987 55.4595 225.812 56.6875L225.875 56.8125L226.312 57.4375C227.118 58.5676 227.869 59.7356 228.562 60.9375C230.356 63.8507 231.823 66.9528 232.938 70.1875L233 70.375L233.125 70.6875C233.536 71.6946 233.912 72.7161 234.25 73.75C235.468 77.0408 236.409 80.4276 237.062 83.875L237.125 84.3125C237.46 86.2432 237.752 88.1812 238 90.125C238.188 92.25 238.188 94.3125 238.188 96.4375V97C238.276 104.716 236.876 112.377 234.062 119.562L233.688 120.375C232.953 122.348 232.182 124.306 231.375 126.25C230.178 129.283 228.581 132.142 226.625 134.75C226.111 135.49 225.611 136.241 225.125 137C224.454 137.877 223.808 138.774 223.188 139.688L222.75 140.312C222.001 141.4 221.165 142.424 220.25 143.375L219.5 144.188L219.438 144.312H219.312L219.25 144.438L218.812 144.938L218.688 145.062L218.312 145.438L218.062 145.75L217.5 146.312L216.75 147L216.188 147.562L215.938 147.812L215.562 148.188L215.438 148.312C215.188 148.562 215.188 148.562 215.062 148.562L215 148.75L214.75 148.938L214.375 149.312L214.125 149.438V149.562L213.938 149.75C213.832 149.832 213.728 149.915 213.625 150L213.438 150.188C212.188 151.25 212.188 151.25 212 151.25V151.375L211.812 151.562L211.25 151.938L209.062 153.562C208.233 154.122 207.421 154.706 206.625 155.312L206.062 155.688L205.938 155.75L205.062 156.312C201.878 158.619 198.413 160.509 194.75 161.938L192.125 163L190 163.875C187.457 164.979 184.822 165.857 182.125 166.5C179.533 167.189 176.903 167.731 174.25 168.125C172.625 168.438 170.875 168.5 169.188 168.625H168.938C165.965 168.885 162.976 168.906 160 168.688C154.838 168.532 149.715 167.734 144.75 166.312L143.938 166.062C142.625 165.75 141.375 165.312 140.062 164.875L139.5 164.688L137.812 163.938L136.562 163.438C134.25 162.625 131.938 161.75 129.75 160.688L129.375 160.5C128.685 160.192 128.017 159.837 127.375 159.438C125.498 158.42 123.682 157.293 121.938 156.062L121.125 155.5C117.938 153.325 114.928 150.901 112.125 148.25L111.25 147.438C110.57 146.784 109.882 146.138 109.188 145.5L108.75 145.438L108.625 145.5L107.812 145.625H107.625L107.062 145.75H106.875L103.312 146.438C101.062 146.875 98.9375 147.188 96.6875 147.312L96 147.375H95.5625L93.6875 147.5C90.5 147.75 87.3125 147.5 84.125 147.25H83.9375L82.75 147.125H82.4375C81.0064 146.996 79.5862 146.767 78.1875 146.438H78C77.2311 146.281 76.4602 146.136 75.6875 146L75.25 145.875C73.6813 145.622 72.1349 145.245 70.625 144.75C68.8125 144.312 66.9375 143.625 65.1875 142.875L64.125 142.438L63.875 142.375C62.5383 141.791 61.1834 141.249 59.8125 140.75L58.1875 140.125L57.6875 139.875C56.5989 139.409 55.535 138.888 54.5 138.312C53.125 137.625 51.9375 136.812 50.6875 136C49.9564 135.492 49.2058 135.012 48.4375 134.562C46.9955 133.681 45.6171 132.699 44.3125 131.625C43.7631 131.197 43.2213 130.76 42.6875 130.312L41.5625 129.312L41.3125 129.125L40.3125 128.25L39.8125 127.75L39.625 127.625V127.5L39.5 127.438C39.3125 127.375 39.25 127.25 39.0625 127.062L38.6875 126.75V126.625L38.5625 126.562L38.1875 126.25L38 126.125L37.875 125.938L37.6875 125.75C37.4154 125.48 37.1446 125.21 36.875 124.938L36.4375 124.5L36.25 124.312L35.4375 123.5L35.25 123.25L35.1875 123.062H35.0625L34.875 122.812L34.375 122.312L34.3125 122.188C33.9713 121.8 33.6169 121.425 33.25 121.062L32.8125 120.562C32.4552 120.166 32.1213 119.748 31.8125 119.312L30.8125 118.062L30.4375 117.562L27.4375 113.062L26.75 112.062C25.9375 110.875 25.1875 109.625 24.5 108.312L24.4375 108.188C23.125 105.812 22.1875 103.312 21.25 100.812L21.125 100.562C20.787 99.6475 20.4536 98.7309 20.125 97.8125L19.6875 96.5625L19.5625 96.1875C18.3125 93 17.5625 89.6875 17 86.3125V86.125C16.7424 84.5717 16.5547 83.0076 16.4375 81.4375V81.1875L16.3125 79.8125V79.625L16.1875 78.875C16.0625 77.6875 16.0625 76.5 16.0625 75.3125V75.0625C16.0625 73.375 16.125 71.6875 16.3125 70L16.5 68.5625V68.125L16.6875 66.75C16.9496 63.1335 17.6635 59.5641 18.8125 56.125L19.0625 55.25L19.875 52.9375C20.3717 51.8224 20.7894 50.6737 21.125 49.5L21.5625 48.4375L22.8125 45.25L23 44.875C23.5 43.6875 24 42.625 24.6875 41.5L25.0625 40.8125C25.4372 40.1335 25.8332 39.4665 26.25 38.8125L26.3125 38.6875L27.1875 37.375L27.375 37.125L27.4375 37L27.875 36.375L27.9375 36.25C28.7053 35.1932 29.435 34.1092 30.125 33L30.25 32.8125C30.7983 32.0725 31.3609 31.3432 31.9375 30.625L32.625 29.6875H32.75L32.8125 29.5625L33.0625 29.1875H33.1875L33.25 29.0625C33.5726 28.7173 33.8852 28.363 34.1875 28L34.875 27.25C35.2445 26.8681 35.5989 26.472 35.9375 26.0625L36.125 25.8125H36.25C36.3547 25.6462 36.4589 25.4795 36.5625 25.3125L36.75 25.1875L36.875 25.0625L37 24.9375C37.3933 24.5184 37.7891 24.1017 38.1875 23.6875L38.375 23.5625L38.4375 23.4375L38.6875 23.375L38.75 23.1875H38.875V23.0625L39.0625 22.875L39.75 22.3125C40.9763 21.1287 42.2927 20.0421 43.6875 19.0625C44.2872 18.5512 44.913 18.0714 45.5625 17.625C47.3729 16.1933 49.2726 14.8781 51.25 13.6875L51.4375 13.5625C53.289 12.4423 55.2095 11.4403 57.1875 10.5625L57.375 10.4375C57.6873 10.312 57.9998 10.187 58.3125 10.0625L60.5625 9L61.375 8.625C62.4194 8.14476 63.4828 7.7069 64.5625 7.3125C67.1875 6.1875 69.9375 5.4375 72.6875 4.75L72.9375 4.6875C76.6574 3.83647 80.441 3.29297 84.25 3.0625H84.375C85.2497 2.97644 86.1247 2.89311 87 2.8125H87.1875C88.375 2.6875 89.5625 2.6875 90.6875 2.6875ZM86.6875 4.9375H86.5C83.6691 5.00977 80.848 5.30232 78.0625 5.8125L74.875 6.375L74.5 6.4375C71.8082 6.86997 69.1689 7.58216 66.625 8.5625L66.5 8.625L65.1875 9.125L64.9375 9.25L61.875 10.4375L61.75 10.5L60 11.3125L59.8125 11.375C58.4726 12.0072 57.1392 12.6531 55.8125 13.3125C52.8584 14.7291 50.0705 16.4689 47.5 18.5C46.0469 19.5075 44.6491 20.5924 43.3125 21.75L41.6875 23.1875C41.5243 23.3171 41.3576 23.4421 41.1875 23.5625V23.6875L41.0625 23.75L40.6875 24.0625L40.375 24.3125V24.4375L40.25 24.5C40.0625 24.5625 39.9375 24.75 39.75 24.9375L39.625 25L39.4375 25.25L39.125 25.5625L38.875 25.75L38.8125 25.875L38.5625 26.25L38.375 26.3125L38.1875 26.5C37.8794 26.8771 37.5452 27.2321 37.1875 27.5625V27.6875H37.0625L36.875 27.875L36.25 28.5625L36.1875 28.6875L36 28.875L35.6875 29.1875L35.625 29.3125C34.9143 30.1021 34.206 30.8937 33.5 31.6875C32.5135 32.8259 31.6151 34.0377 30.8125 35.3125L29.5625 37.1875C28.9601 38.1604 28.3349 39.119 27.6875 40.0625C26.375 42.125 25.25 44.3125 24.3125 46.5L24.1875 46.6875C23.7981 47.5901 23.4436 48.5075 23.125 49.4375L22.9375 50C22.5919 51.0238 22.2377 52.0446 21.875 53.0625C21.7404 53.4624 21.5945 53.8584 21.4375 54.25L21.375 54.5L20.5 57.375C20.2847 58.2458 20.0133 59.1017 19.6875 59.9375C19.3125 61 19.1875 62.0625 19 63.1875L18.9375 63.375C18.8082 64.2285 18.6832 65.0827 18.5625 65.9375C18.0461 69.0343 17.8367 72.1745 17.9375 75.3125V79L18 79.125C18 81.0625 18.3125 82.9375 18.6875 84.8125L19.0625 87.25C19.1671 88.2022 19.3553 89.1433 19.625 90.0625L19.875 90.75L20.0625 91.4375L20.1875 91.6875L20.625 93.25C20.9839 94.6488 21.4221 96.026 21.9375 97.375C22.4296 98.8513 22.9716 100.31 23.5625 101.75L24.4375 103.875L24.75 104.562C25.5 106.25 26.3125 107.75 27.25 109.312L27.3125 109.438C28.558 111.535 29.8925 113.579 31.3125 115.562L31.4375 115.688C32.3761 117.098 33.4208 118.435 34.5625 119.688H34.6875V119.812C34.75 120 34.9375 120.188 35.125 120.312L35.3125 120.562L35.4375 120.625L35.75 121C35.9997 121.33 36.2711 121.643 36.5625 121.938L37.375 122.75L37.6875 123.125H37.8125L37.875 123.25C37.9375 123.438 38.125 123.562 38.3125 123.75C38.5758 124.049 38.8467 124.34 39.125 124.625L39.25 124.688L39.625 124.938V125.062L39.8125 125.25L40.4375 125.812C40.875 126.312 40.875 126.312 41.4375 126.625L41.5 126.812L41.6875 127L42.375 127.562C44.324 129.353 46.4141 130.983 48.625 132.438L49.125 132.75C49.6811 133.135 50.2436 133.51 50.8125 133.875L51.0625 133.938V134.062L51.1875 134.125L51.875 134.562L53.0625 135.312L53.75 135.75C55.4114 136.864 57.1935 137.787 59.0625 138.5L59.5625 138.688C61.1866 139.388 62.8333 140.034 64.5 140.625C66.7071 141.478 68.9371 142.27 71.1875 143C72.875 143.562 74.5625 143.875 76.3125 144.25L76.6875 144.312L77.1875 144.375L77.3125 144.438C78.3125 144.625 79.375 144.688 80.375 144.75C82.0775 144.957 83.787 145.103 85.5 145.188C87.2691 145.286 89.0416 145.307 90.8125 145.25C93.6875 145.312 96.5 145.125 99.375 144.875L100.062 144.812C102 144.625 103.938 144.438 105.812 143.938L106.125 143.812L107.375 143.5C107.25 143.188 107 143 106.812 142.75L106.625 142.5L106.5 142.375L106.375 142.188H106.25L106.188 142.062L105.812 141.562L105.562 141.312L105.5 141.188C104.438 140 103.5 138.688 102.625 137.375L102.5 137.25L101.438 135.625L101.062 135.062C99.7767 133.221 98.6077 131.3 97.5625 129.312C95.9364 126.234 94.5974 123.012 93.5625 119.688L93.5 119.562L92.75 117.625C92.375 116.688 92.125 115.75 91.8125 114.75L91.75 114.625L91.0625 112V111.875C90.5127 109.42 90.0955 106.937 89.8125 104.438L89.6875 103.562V103.375L89.5 101.75C89.0901 98.5579 89.0273 95.3307 89.3125 92.125V91.9375C89.3125 91.6875 89.25 91.625 89.0625 91.5L88.8125 91.375L88.6875 91.3125L88.5625 91.25L87.5625 90.75C86.1428 89.9929 84.6299 89.4256 83.0625 89.0625C80.3125 88.1875 77.6875 87.625 74.8125 87.5C72.75 87.375 70.6875 87.1875 68.6875 86.9375C66.75 86.625 66.75 86.625 64.8125 86.5625H64.5625C64.0625 86.5625 63.5625 86.6875 63.125 86.875C62.375 87.1875 61.625 87.1875 60.875 87.25C58.5781 87.3284 56.2952 87.6426 54.0625 88.1875C52.9375 88.5625 51.8125 88.6875 50.625 88.8125C48.5 89.0625 46.625 89.5 44.625 90.3125L44.375 90.4375H44.25L42.1875 91.1875L41.625 91.375C40.125 91.875 40.125 91.875 39.4375 91.625L39.0625 91.5C38.9375 91.8125 38.875 92.0625 39 92.375C39.25 92.6875 39.6875 92.9375 40.0625 92.9375C40.2916 92.946 40.5209 92.946 40.75 92.9375H41.625L41.8125 92.875H42.125C42.5 92.875 42.75 92.9375 43.0625 93.125C43.1875 93.3125 43.125 93.5 43.125 93.6875C42.75 94.1875 42.125 94.375 41.5 94.4375H40.375C39.25 94.4375 38.1875 94.375 37.3125 93.5625C36.8125 93 36.5 92.25 36.4375 91.5C36.4375 90.75 36.5625 89.9375 37.0625 89.375C37.5 89.0625 37.9375 89 38.4375 89L39 89.1875C39.1875 89.4375 39.25 89.6875 39.25 90V90.1875L39.3125 90.5C39.625 90.5 39.8125 90.5 40 90.25L40.25 90.0625L40.3125 89.9375C40.5 89.75 40.5 89.75 40.5625 89.5H40.6875V89.375L40.8125 89.3125L41.1875 89C42.125 88.1875 43.4375 87.625 44.625 87.1875L44.8125 87.125C45.75 86.8125 46.75 86.75 47.6875 86.75L49.875 86.5L50.4375 86.4375C51.6875 86.25 52.875 86.0625 54.125 85.75L55.375 85.625L58.375 85.25H58.625L59.5 85.0625C60.4975 84.9184 61.4977 84.7933 62.5 84.6875C64.3125 84.375 66 84.5625 67.875 84.75L69.4375 84.9375H69.5625L72.375 85.125C73.7104 85.2003 75.0441 85.3045 76.375 85.4375L79.875 86.0625L80.25 86.125L82.125 86.6875C83.25 87.0625 84.375 87.375 85.5625 87.625C86.4375 87.8125 87.25 88.0625 88.125 88.375L88.3125 88.4375L88.5 88.5L88.6875 88.5625C89.0846 88.6834 89.4805 88.8084 89.875 88.9375L89.8125 88.6875L89.875 87.5625V87.375L89.9375 86.875V86.375C90.0625 84.625 90.5625 82.875 90.9375 81.1875L91.1875 80.25L92.125 77L92.1875 76.8125C92.875 74.5 92.875 74.5 93.3125 73.5625L94.0625 71.5C94.58 70.0247 95.1427 68.5657 95.75 67.125C97.1329 63.6854 98.9384 60.4312 101.125 57.4375L101.812 56.4375C102.062 55.9375 102.375 55.5 102.75 55.0625L103.125 54.5625C104.229 52.9252 105.462 51.3786 106.812 49.9375L106.938 49.8125L107 49.5625H107.125L107.375 49.25C107.964 48.4915 108.611 47.7809 109.312 47.125L109.438 46.875H109.562L109.75 46.625L110.438 45.9375L110.562 45.8125L110.812 45.5625L111.25 45.125L111.5 44.875L111.625 44.75L112.688 43.8125L112.812 43.6875V43.5625L112.938 43.5L113.5 43.0625C115.026 41.6957 116.633 40.4225 118.312 39.25C119.927 37.9422 121.617 36.7317 123.375 35.625L125.188 34.5L125.312 34.4375C126.137 33.9267 126.993 33.4675 127.875 33.0625C129 32.4375 130.125 31.9375 131.312 31.4375L132.75 30.75L136.562 29.0625L137.125 28.8125C138.188 28.3125 139.375 27.9375 140.5 27.5625L140.688 27.5L142.75 26.875L142.688 26.6875L142.562 26.3125C142.5 25.9375 142.25 25.75 142 25.5C141.875 25.3754 141.75 25.2504 141.625 25.125L141.375 24.8125L141.25 24.6875H141.125L141.062 24.5625L140.75 24.1875L140.625 24.0625L140.5 23.9375L140.375 23.75C139.977 23.3742 139.56 23.0195 139.125 22.6875L138.125 21.8125L137.625 21.4375L137.375 21.25L137 21C135.367 19.6785 133.678 18.4274 131.938 17.25L131.438 16.875L129.25 15.4375L129.125 15.375C127.609 14.4575 126.044 13.623 124.438 12.875L120.688 11.0625L120.5 11L119.812 10.6875L118.938 10.3125C117.717 9.7235 116.465 9.20188 115.188 8.75L114.25 8.375C113.32 7.98157 112.358 7.66794 111.375 7.4375C108.5 6.5 105.5 6.125 102.562 5.6875L102.062 5.625C100.065 5.39315 98.0649 5.1848 96.0625 5L93.0625 4.9375C90.9375 4.95054 88.8125 4.95054 86.6875 4.9375ZM155.5 26.5H155.375C152.607 26.8449 149.855 27.3036 147.125 27.875L147.625 28.5C148.066 28.9628 148.463 29.4649 148.812 30L150 31.6875L150.5 32.4375L150.625 32.625L151.5 33.8125L152.688 35.5L153 35.9375C153.695 36.9394 154.362 37.9606 155 39L155.938 40.625C156.271 41.2819 156.625 41.928 157 42.5625C157.164 42.918 157.331 43.2722 157.5 43.625C158.033 44.705 158.513 45.8105 158.938 46.9375L159.062 47.1875C159.386 48.0247 159.72 48.858 160.062 49.6875L160.438 50.8125L160.5 50.9375C160.791 51.7993 161.104 52.6537 161.438 53.5L161.875 54.75C163.01 58.0351 163.806 61.4278 164.25 64.875C164.47 66.1173 164.637 67.3685 164.75 68.625L164.812 69.25V69.375C164.938 70.625 164.938 71.9375 164.938 73.1875V75.625C164.938 78.125 164.938 80.625 164.562 83.125L164.5 83.5L164.312 84.4375L164.25 84.9375L164 86.75L163.875 87.5C163.586 89.2109 163.19 90.9017 162.688 92.5625C162.375 94.125 161.812 95.625 161.312 97.125L161.188 97.5L160.562 99L159.938 100.625L159.062 103L158.688 103.875L157.062 107.438L156.875 107.812L156.75 108.125L156.688 108.25C156.312 109 155.812 109.688 155.375 110.438L154.688 111.562C154.125 112.562 153.5 113.5 152.812 114.438L152 115.625C151.625 116.25 151.188 116.875 150.688 117.438L150.188 118.125L148.875 119.938L148.562 120.312C147.838 121.285 147.044 122.204 146.188 123.062L145 124.312L144.75 124.562L144.188 125.125L143.438 125.875L142.938 126.438L142.625 126.688L142.25 127.062L142.188 127.125L141.688 127.562L141.562 127.688V127.812C141.416 127.916 141.271 128.02 141.125 128.125L141 128.25L140.875 128.375C140.44 128.797 139.981 129.193 139.5 129.562C138.878 130.119 138.209 130.621 137.5 131.062C136.709 131.715 135.896 132.341 135.062 132.938L133.5 134.125L133.375 134.25L133.125 134.438L132.688 134.75V134.875L133.562 135.125C134.375 135.188 135.062 135.375 135.75 135.812C136.968 136.596 138.219 137.326 139.5 138L141.5 139.125C142.316 139.599 143.128 140.078 143.938 140.562C145 141.125 145 141.125 145.25 141.375C145.625 141.688 146.062 141.938 146.562 142.125L146.688 142.188C147.685 142.642 148.707 143.038 149.75 143.375C153.688 144.812 153.688 144.812 157.812 145.312C157.562 145.062 157.312 145 157 144.938L156.812 144.875L155.625 144.625C154.562 144.5 153.5 144.188 152.5 143.875L152.312 143.812L152.062 143.625L152 143.5C152.5 143.438 152.938 143.562 153.438 143.688L154.562 143.938L156.625 144.438L157.75 144.75C158.312 144.875 158.875 145.062 159.375 145.312C160.25 145.625 161 145.625 161.938 145.562H162.375C163.562 145.573 164.75 145.573 165.938 145.562L169.25 145.625L169.438 145.688C170.983 145.723 172.526 145.828 174.062 146H174.312C174.938 146 175.5 145.875 176.062 145.625C176.812 145.312 177.625 145.188 178.438 145.062L179.438 144.875L179.625 144.812C181.692 144.439 183.754 144.043 185.812 143.625L185.938 143.562C188.088 142.972 190.283 142.554 192.5 142.312C193.658 142.135 194.791 141.82 195.875 141.375L196.562 141.125L197 140.938L198.562 140.312L201.5 139.25L201.688 139.188L203 139C203.062 139.375 203.188 140.062 202.875 140.625C202.688 140.938 202.438 141 202.188 141.25L201.375 141.875L201.25 142C199.626 143.108 197.86 143.991 196 144.625C195.812 144.75 195.625 144.75 195.375 144.75L195.125 144.812L194.938 144.875C194.227 145.009 193.518 145.155 192.812 145.312L191.688 145.5L191.438 145.562C190.568 145.706 189.692 145.81 188.812 145.875L188.688 145.938L187.75 146.125C186.875 146.375 186.062 146.5 185.188 146.625L184.188 146.75L183.938 146.812C182.74 146.929 181.55 147.117 180.375 147.375L178.312 147.688L178 147.75C177.312 147.875 176.688 148 176 148.25C174.188 148.812 172 148.625 170.125 148.438L166.375 148.375H165.188C161.625 148.375 158.25 148 154.75 147.125L154.188 147L154.062 146.938C152.436 146.498 150.788 146.144 149.125 145.875L148.938 145.812C147.413 145.414 145.911 144.934 144.438 144.375L144.312 144.312H143.875L144.625 144.688C145.622 145.083 146.603 145.521 147.562 146C146.438 146.125 145.312 145.75 144.312 145.312L144.062 145.188C143.55 145.012 143.048 144.803 142.562 144.562C141.875 144.312 141.25 143.875 140.625 143.5L140.5 143.438L139.625 142.812L139.5 142.75C139.27 142.605 139.041 142.46 138.812 142.312V142.188H138.688L138.625 142.062L138.312 141.75L138.125 141.562V141.438H137.938V141.312L137.625 141.125L137.438 141L137.312 140.938L136.75 140.562L136.625 140.5L135.5 139.75L134.938 139.438L132.75 137.875L131.938 137.312L131 136.625C130.75 136.375 130.5 136.312 130.188 136.188L130.062 136.312L129.25 136.812L129.125 136.938L126.75 138.25L126.562 138.312C124.8 139.312 122.961 140.169 121.062 140.875L120.562 141.062C119.741 141.352 118.929 141.665 118.125 142L116.438 142.688C114.775 143.448 113.063 144.096 111.312 144.625L111.562 144.938C112.056 145.424 112.535 145.924 113 146.438L113.438 146.875L113.938 147.375L114.312 147.812L114.5 148C115.011 148.513 115.553 148.993 116.125 149.438L116.5 149.688V149.812L116.812 150.062L117 150.188L117.062 150.312L117.438 150.562L117.562 150.688L117.812 150.938C118.062 151.062 118.25 151.25 118.5 151.312V151.438L118.688 151.625L118.812 151.688L119 151.812L119.312 152C119.497 152.149 119.685 152.295 119.875 152.438L120.062 152.562L120.375 152.75C121.156 153.337 121.97 153.88 122.812 154.375C124.406 155.326 125.969 156.327 127.5 157.375L128 157.688C131.121 159.487 134.433 160.934 137.875 162L138.125 162.125C141.798 163.475 145.556 164.582 149.375 165.438L149.938 165.562L150.312 165.688H150.5C151.285 165.839 152.078 165.943 152.875 166L153.438 166.062L154.188 166.125L155.875 166.25H156.25C158.625 166.438 161 166.5 163.375 166.5H164.375C167.948 166.56 171.521 166.351 175.062 165.875C176.062 165.812 177.062 165.688 178.062 165.438L178.375 165.375L179.125 165.25L179.75 165.125C181.286 164.852 182.793 164.433 184.25 163.875L184.5 163.812L185.125 163.562C188.773 162.419 192.343 161.042 195.812 159.438C197.375 158.75 198.875 158 200.375 157.125L200.5 157.062C201.534 156.471 202.535 155.824 203.5 155.125L203.688 155L204.438 154.5C205.064 154.065 205.689 153.628 206.312 153.188L206.438 153.125L206.562 153C209.654 150.874 212.56 148.491 215.25 145.875L215.5 145.688V145.562L215.625 145.5L216 145.188L216.188 145.062L216.312 144.875L216.5 144.688L216.625 144.562L216.75 144.438L216.875 144.188H217L217.188 143.938L217.688 143.5L218.188 142.875L218.562 142.5C220.022 140.91 221.339 139.195 222.5 137.375C223.2 136.333 223.929 135.312 224.688 134.312C225.018 133.824 225.331 133.324 225.625 132.812C227.215 130.415 228.595 127.885 229.75 125.25L230.938 122.375L231.312 121.562L232.625 117.812L232.812 117.312L233.75 114.375L233.875 114C234.25 112.875 234.5 111.688 234.75 110.5L234.875 110C235.312 108 235.312 108 235.625 105.938V105.625L235.688 104.688V104.5C235.812 102.438 235.938 100.375 235.938 98.3125V97.875C236 90.625 236 90.625 235.062 83.4375L235 83.3125C234.27 79.6185 233.203 75.9992 231.812 72.5L231.75 72.25C229.306 65.3495 225.69 58.922 221.062 53.25L219.875 51.6875L219.812 51.5625C219.351 50.9868 218.85 50.4438 218.312 49.9375C217.994 49.59 217.66 49.2563 217.312 48.9375L216.75 48.375L216.062 47.6875L215.875 47.5L215.75 47.375L215.625 47.25L215.438 47H215.312L215.25 46.875L215.062 46.6875L214.875 46.5L214.562 46.0625L214.375 45.9375L214.25 45.75L214.062 45.625L213.875 45.4375L213.75 45.3125L213.5 45.1875V45.0625L213.312 44.875L212.688 44.3125L211.25 43.125L211.125 43.0625C209.025 41.4182 206.878 39.8343 204.688 38.3125L204.125 37.875C202.27 36.5091 200.281 35.3364 198.188 34.375L195.438 33.125L194.812 32.8125C191.362 31.2639 187.837 29.8872 184.25 28.6875L183.375 28.4375C182.312 28.0625 181.188 27.875 180.062 27.6875H179.875L175.562 26.9375L174.938 26.875C172.875 26.5625 170.812 26.3125 168.688 26.25H163.25C162.271 26.2527 161.292 26.2527 160.312 26.25C158.688 26.25 157.125 26.3125 155.5 26.5ZM144.25 28.125L144.312 28.4375L143.25 28.75H143.125L142.875 28.875C141.29 29.2583 139.743 29.7812 138.25 30.4375C137.109 30.8559 135.983 31.3145 134.875 31.8125L132.5 32.9375L131.25 33.5C128.22 34.81 125.331 36.4223 122.625 38.3125L122.5 38.4375C121.347 39.1585 120.24 39.9518 119.188 40.8125L119.062 40.9375C117.649 41.9671 116.293 43.0729 115 44.25L114.688 44.5C113.964 45.15 113.255 45.8168 112.562 46.5L112.438 46.625L112.188 46.875L111.75 47.3125L111.5 47.5625L111.375 47.6875C111.001 48.0428 110.646 48.4184 110.312 48.8125L109.875 49.3125L109.25 49.9375L108.938 50.3125L108.062 51.25L107.938 51.375L107.812 51.4375L107.75 51.6875H107.625L107.438 51.875L107.312 52.0625L107.188 52.1875L107.062 52.375C105.198 54.5607 103.525 56.9027 102.062 59.375L101.5 60.25L100.812 61.3125L100.625 61.625C99.1975 63.7742 98.023 66.0812 97.125 68.5L96.9375 68.9375L96.375 70.4375L96.0625 71.1875L94.9375 74.1875V74.375C94.2133 76.4121 93.567 78.4761 93 80.5625L92.8125 81.3125C92.125 83.375 91.875 85.5625 91.6875 87.75L91.5 89.1875V89.625L91.8125 89.8125L92 89.9375L92.1875 90L92.625 90.25L92.8125 90.3125L93.875 90.9375C94.5569 91.3633 95.2445 91.78 95.9375 92.1875L96.875 92.8125L97.0625 92.9375L97.375 93.0625V93.1875L97.625 93.375L98.625 94.0625L98.8125 94.1875C99.8547 94.8795 100.856 95.6307 101.812 96.4375V96.5625L102.188 96.875L103.25 97.75L103.625 98V98.125C103.812 98.3125 103.812 98.3125 104.062 98.375L104.125 98.5625H104.25L104.312 98.6875L104.625 99.0625L104.75 99.25L105.125 99.625L106.125 100.812L106.812 101.625L107.625 102.562L107.688 102.688H107.812L107.875 102.812C107.938 103.062 108.125 103.25 108.312 103.438L108.75 103.938H108.875L108.938 104.062L109.188 104.438C109.271 104.52 109.355 104.604 109.438 104.688L109.562 104.812C109.887 105.175 110.22 105.53 110.562 105.875H110.688L110.75 106L111 106.375L112 107.625L112.062 107.75L113.25 109.562C114.062 111.062 115 112.375 116.062 113.688C117.25 115.188 118.25 116.812 119.25 118.438C119.938 119.625 120.625 120.75 121.5 121.875L121.875 122.438L123.25 124.25L123.375 124.438L124.312 125.5L124.625 125.938H124.75L124.812 126.062L125.062 126.375L125.5 126.875L126.25 127.625L126.5 127.938H126.625V128.062H126.75V128.188L126.938 128.375L127.75 129.125L127.875 129.25L128.125 129.5L128.25 129.625L128.375 129.75L128.562 129.812L128.625 130H128.75L128.812 130.125C128.875 130.312 129.062 130.438 129.25 130.625C129.603 130.96 129.937 131.315 130.25 131.688L131.25 133L131.75 132.812L131.938 132.688L132.062 132.625L132.25 132.5C132.729 132.242 133.188 131.949 133.625 131.625C134.819 130.865 135.947 130.008 137 129.062C137.705 128.449 138.435 127.865 139.188 127.312L140.188 126.438C140.525 126.087 140.88 125.753 141.25 125.438L141.438 125.312V125.188H141.562V125.062L141.75 125V124.875L141.875 124.812L142.188 124.562L142.312 124.438L142.5 124.312L142.625 124.125C142.855 123.897 143.084 123.668 143.312 123.438L143.625 123.125L143.75 123L143.875 122.875L144 122.75L144.062 122.562H144.188L144.375 122.312L144.875 121.875C145.19 121.562 145.482 121.228 145.75 120.875C146.535 120.004 147.265 119.086 147.938 118.125L148 118L148.312 117.562C149.303 116.31 150.241 115.017 151.125 113.688C151.963 112.545 152.735 111.356 153.438 110.125C155.717 106.57 157.505 102.723 158.75 98.6875L159 97.9375L160.375 93.875C160.63 93.0159 160.901 92.1616 161.188 91.3125V91.25L161.438 90.1875L161.5 90C161.648 89.3756 161.794 88.7506 161.938 88.125C162.25 86.625 162.438 85.1875 162.625 83.625V83.375C162.669 82.7502 162.711 82.1252 162.75 81.5C163.062 77.5625 163 73.6875 162.812 69.75V69.5625L162.5 65.5V65.375C162.312 63.5135 161.956 61.6728 161.438 59.875C160.948 57.726 160.3 55.6161 159.5 53.5625C159.126 52.3811 158.709 51.2137 158.25 50.0625L158.125 49.8125L158 49.4375L156.875 46.625L156.812 46.4375L155.312 43.25L155.188 43.0625C154.293 41.1763 153.226 39.3769 152 37.6875C151.151 36.5112 150.317 35.3235 149.5 34.125C149.07 33.4593 148.612 32.8128 148.125 32.1875C147.438 31.25 146.75 30.3125 145.938 29.5L145.875 29.375L144.75 28.375L144.625 28.3125L144.25 28.125ZM91.0625 92.5C91.0446 95.2922 91.0863 98.0845 91.1875 100.875C91.2595 104.498 91.8272 108.094 92.875 111.562L93 112.125L93.0625 112.25L93.375 113.375L93.4375 113.562L93.5 113.75C94.4805 117.381 95.734 120.933 97.25 124.375L97.3125 124.562C99.024 128.597 101.206 132.415 103.812 135.938L104.812 137.438L104.938 137.562C105.553 138.46 106.199 139.335 106.875 140.188H107L107.062 140.312L107.312 140.625H107.438L107.5 140.75L107.75 141.188L107.875 141.312L108.062 141.438C108.271 141.667 108.479 141.896 108.688 142.125L109.188 142.625H109.312V142.75L109.562 142.938L110.125 142.75L111.438 142.375C112.944 142.058 114.411 141.576 115.812 140.938C116.705 140.594 117.601 140.261 118.5 139.938L118.625 139.875L121.375 138.75L121.562 138.688C123 138.062 124.375 137.438 125.75 136.688L125.875 136.625L127.812 135.5L128 135.375L128.938 134.688C128.812 134.438 128.75 134.375 128.5 134.312C127.5 133.875 127 133.062 126.562 132.125L126.125 131.562L125.625 130.938L125.062 130.312L125 130.188L124.5 129.688C123.375 128.375 122.375 126.938 121.438 125.438L120.438 123.938L120 123.25L119.125 122.062C117.54 120.157 116.138 118.106 114.938 115.938L113.125 113L112.938 112.688L112.688 112.375L112.562 112.188C111.583 110.731 110.518 109.332 109.375 108L109.25 107.875H109.125L109.062 107.75L108.812 107.375L108.688 107.25L108.562 107.125L108.438 107L107.688 106.25L107.562 106.062H107.438L107.375 105.938C107.312 105.75 107.125 105.625 106.938 105.438L106 104.312L105.688 103.938C105.029 103.157 104.383 102.365 103.75 101.562C102.938 100.562 102 99.5625 101 98.8125L100.812 98.6875C100.048 98.0881 99.2552 97.525 98.4375 97L98.3125 96.9375C96.5922 95.7215 94.797 94.6151 92.9375 93.625C92.3004 93.2706 91.675 92.8954 91.0625 92.5ZM138.75 141.812V141.938L139.062 142L138.75 141.812ZM141.75 143.312L141.812 143.438L142 143.375L141.75 143.312ZM142 143.438L142.625 143.875L142.812 143.938L143 144L143.188 144.062C143.5 144.25 143.5 144.25 143.875 144.188L143.125 143.875L142.875 143.75L142.5 143.625L142.312 143.5L142 143.438Z" fill="#607090"/>
<path d="M63.7501 39.9373C64.0626 40.0623 64.1876 40.1873 64.2501 40.4998L64.3126 41.1248V41.9373C64.3126 43.1248 64.1876 44.1873 63.8126 45.3123L63.4376 46.9998C62.9141 49.7056 62.0967 52.3463 61.0001 54.8748L60.9376 54.9998L59.8751 57.4373C58.5959 60.358 57.4079 63.3177 56.3126 66.3123C56.0626 66.8123 55.8126 67.3123 55.4376 67.7498L54.8751 68.3123C54.6876 68.5623 54.5001 68.7498 54.2501 68.8748L53.9376 68.8123C53.6251 68.3748 53.6251 67.8123 53.5626 67.3123L53.5001 67.0623C53.3696 65.2937 53.6476 63.5188 54.3126 61.8748C55.4359 58.1393 56.6445 54.43 57.9376 50.7498L58.0626 50.4998C58.6088 48.918 59.1505 47.3346 59.6876 45.7498L59.7501 45.4998C60.464 43.5431 61.364 41.6595 62.4376 39.8748C62.8751 39.7498 63.3126 39.8123 63.7501 39.9373ZM211.375 91.8748C211.625 91.9998 211.75 92.2498 211.813 92.4998C212 94.1873 211.75 95.8123 211.313 97.4373L210.938 99.0623C210.144 102.761 208.906 106.349 207.25 109.75C206.375 111.5 205.688 113.312 205 115.187C203.938 118.312 203.938 118.312 203.125 119.312L202.938 119.5L201.688 120.875L201.5 120.812C201.422 120.63 201.36 120.442 201.313 120.25C201.042 119.274 200.936 118.26 201 117.25C201.063 116.125 201.438 115 201.813 113.937C202.154 112.995 202.446 112.035 202.688 111.062C203.237 109.558 203.737 108.036 204.188 106.5L204.25 106.25L204.313 106.125L204.813 104.5L205.5 102.625L206.063 100.937C206.778 98.6081 207.655 96.3318 208.688 94.1248L209.313 92.6873C209.438 92.3123 209.625 91.9998 210 91.7498C210.5 91.5623 210.938 91.6248 211.375 91.8748ZM132.875 67.7498C133.313 68.1248 133.313 68.6248 133.375 69.1873V70.3748C133.375 71.4998 133.188 72.5623 132.875 73.5623L132.75 74.2498L132.688 74.4373L132.375 75.8123C131.99 77.484 131.51 79.1325 130.938 80.7498L130.813 80.9998C130.391 82.1893 129.911 83.3574 129.375 84.4998L129.25 84.8748L129.125 85.1248L128.5 86.5623L128.313 86.9373L127.25 89.4373L127.188 89.6873C126.849 90.6019 126.515 91.5186 126.188 92.4373C125.75 93.5623 125.313 94.6248 124.563 95.6248C124.162 96.0831 123.786 96.563 123.438 97.0623H123.25C122.375 95.1873 122.375 93.1873 123 91.2498C123.3 90.4747 123.55 89.6814 123.75 88.8748C124.157 87.7249 124.512 86.557 124.813 85.3748C125.353 83.8399 125.874 82.2981 126.375 80.7498C126.904 79.2804 127.404 77.801 127.875 76.3123L128 75.9998L128.063 75.8123L128.313 75.0623L128.375 74.8748L128.438 74.6248L128.75 73.8123L128.938 73.3748C129.313 72.1873 129.813 70.9998 130.438 69.8748L130.938 68.6248C131.063 68.1873 131.25 67.9998 131.625 67.8123C132.063 67.6873 132.438 67.6248 132.875 67.7498ZM203.125 135.687C203.875 136.062 204.688 136.75 205.063 137.5C205.119 137.705 205.16 137.914 205.188 138.125C205.375 139.5 205.625 141.812 204.938 143.062C204.688 143.375 204.688 143.375 204.5 143.437C204.25 143.437 204.125 143.437 203.938 143.25C203.688 142.875 203.688 142.562 203.625 142.187V142L203.563 140.75C203.5 139.312 203.5 139.312 202.813 138.062L202.375 137.687C201.375 137.062 201.375 137.062 201.25 136.562V135.937C201.75 135.375 202.5 135.5 203.125 135.687Z" fill="#607090"/>
</svg>
