<svg width="232" height="240" viewBox="0 0 232 240" fill="none" xmlns="http://www.w3.org/2000/svg">
<path d="M108.345 3.3812C108.747 3.69087 108.89 4.2524 108.999 4.72862C109.01 4.77433 109.02 4.82004 109.031 4.86713C109.158 5.43505 109.235 6.00969 109.312 6.58604C109.328 6.70434 109.344 6.82263 109.36 6.94093C109.408 7.29384 109.454 7.64694 109.499 8.0001C109.509 8.07799 109.51 8.07799 109.52 8.15745C109.68 9.38596 109.789 10.603 109.809 11.8428C109.813 12.0926 109.819 12.3424 109.824 12.5922C109.845 13.5614 109.861 14.5307 109.874 15.5001C109.875 15.5585 109.876 15.6169 109.877 15.6771C109.94 20.3162 109.337 24.866 108.407 29.4052C108.244 30.2012 108.088 30.9979 107.947 31.7982C107.891 32.117 107.833 32.4355 107.776 32.7541C107.727 33.0258 107.678 33.2975 107.63 33.5693C107.343 35.1858 106.974 36.7711 106.567 38.3612C106.396 39.0293 106.245 39.7011 106.097 40.3744C106.033 40.6627 105.967 40.9501 105.898 41.2372C105.657 42.2372 105.448 43.241 105.249 44.2501C105.038 45.3195 104.816 46.3832 104.559 47.4425C104.491 47.7218 104.424 48.0015 104.358 48.2811C104.345 48.3336 104.333 48.3862 104.32 48.4403C104.294 48.5493 104.268 48.6582 104.242 48.7672C104.202 48.934 104.163 49.1008 104.123 49.2676C103.922 50.1118 103.721 50.9561 103.523 51.8009C103.501 51.8947 103.501 51.8947 103.478 51.9904C103.337 52.5904 103.197 53.1903 103.072 53.7938C103.063 53.8365 103.054 53.8793 103.045 53.9233C103.036 53.966 103.027 54.0088 103.018 54.0528C102.717 55.5066 102.344 56.9426 101.975 58.3805C101.401 60.6075 101.401 60.6075 100.906 62.853C100.733 63.7125 100.536 64.5626 100.312 65.4105C100.301 65.4513 100.29 65.4922 100.279 65.5343C100.268 65.5769 100.257 65.6194 100.245 65.6633C100.06 66.3653 99.8837 67.0694 99.7068 67.7734C99.6656 67.9374 99.6241 68.1014 99.5825 68.2654C99.3746 69.0848 99.1733 69.9042 99.0059 70.733C98.9933 70.7952 98.9807 70.8573 98.9677 70.9214C98.8528 71.5081 98.7996 72.0861 98.8001 72.6837C98.8001 72.7378 98.8 72.7919 98.8 72.8477C98.8032 73.2418 98.8385 73.6172 98.9368 74.0001C98.9951 74.0055 99.0533 74.0109 99.1133 74.0165C99.4411 74.0639 99.7412 74.1855 100.05 74.3009C100.192 74.3526 100.333 74.4043 100.475 74.4559C100.588 74.4973 100.588 74.4973 100.703 74.5395C102.857 75.3275 105.037 76.0407 107.241 76.6778C107.895 76.867 108.544 77.0695 109.191 77.2813C109.871 77.5039 110.552 77.7201 111.238 77.9259C111.994 78.1531 112.749 78.3848 113.503 78.6199C113.684 78.6761 113.864 78.7322 114.045 78.7884C114.572 78.9524 115.099 79.1168 115.625 79.2836C117.081 79.7444 118.543 80.1594 120.02 80.5454C122.91 81.3013 125.784 82.1155 128.644 82.9802C129.418 83.214 130.193 83.4451 130.967 83.6748C131.03 83.6932 131.092 83.7116 131.155 83.7306C131.28 83.7674 131.404 83.8043 131.528 83.8411C131.859 83.9394 132.19 84.0389 132.52 84.1402C135.695 85.1131 138.948 85.8285 142.187 86.5484C142.762 86.6761 143.335 86.8063 143.909 86.9381C144.535 87.0821 145.161 87.2245 145.788 87.3634C146.55 87.532 147.311 87.7013 148.072 87.8715C148.21 87.9023 148.347 87.933 148.485 87.9636C148.681 88.0071 148.876 88.0508 149.072 88.0946C149.13 88.1075 149.188 88.1203 149.248 88.1336C149.595 88.2118 149.938 88.3009 150.28 88.4021C150.441 88.4386 150.584 88.444 150.749 88.4376C151.008 87.6869 151.211 86.9345 151.358 86.1543C151.384 86.0183 151.41 85.8824 151.436 85.7466C151.473 85.5531 151.511 85.3595 151.548 85.1659C151.846 83.6083 152.156 82.0599 152.567 80.5274C152.831 79.5372 153.046 78.5401 153.236 77.5334C153.329 77.0411 153.427 76.5497 153.527 76.0587C153.776 74.8307 154.024 73.6029 154.244 72.3692C154.251 72.3273 154.259 72.2854 154.266 72.2421C154.346 71.796 154.424 71.3496 154.501 70.903C154.663 69.9777 154.862 69.0682 155.088 68.1567C155.208 67.6684 155.308 67.1777 155.402 66.6837C155.438 66.4988 155.474 66.314 155.511 66.1292C155.52 66.0829 155.529 66.0365 155.538 65.9887C155.783 64.7619 156.065 63.5419 156.361 62.3267C156.504 61.7366 156.638 61.1444 156.77 60.5518C156.858 60.1575 156.948 59.7638 157.044 59.3714C157.295 58.3468 157.49 57.3197 157.67 56.2808C157.908 54.9149 158.175 53.5549 158.44 52.1942C158.525 51.755 158.609 51.3155 158.69 50.8756C159.104 48.6553 159.573 46.4455 160.086 44.2463C160.354 43.0969 160.589 41.9401 160.828 40.7844C160.987 40.0186 161.149 39.2539 161.324 38.4918C161.346 38.3962 161.346 38.3962 161.368 38.2987C161.471 37.8565 161.586 37.4183 161.706 36.9806C161.912 36.2273 162.099 35.4702 162.282 34.7109C162.4 34.2193 162.52 33.7285 162.647 33.2391C162.909 32.226 163.134 31.2185 163.305 30.1861C163.404 29.6003 163.528 29.0264 163.68 28.452C163.783 28.0612 163.867 27.6707 163.941 27.2735C164.205 25.8851 164.761 24.7623 165.949 23.9498C166.259 23.745 166.578 23.5549 166.897 23.3636C167.172 23.1978 167.442 23.024 167.71 22.8478C168.08 22.6058 168.455 22.3766 168.835 22.1524C169.865 21.543 170.852 20.8603 171.834 20.1772C172.139 19.9669 172.451 19.77 172.765 19.5743C173.3 19.2407 173.817 18.8849 174.332 18.5204C174.379 18.4865 174.427 18.4525 174.477 18.4176C174.579 18.345 174.681 18.2719 174.782 18.1986C175.098 17.9727 175.411 17.7767 175.761 17.6095C175.802 17.5892 175.843 17.5689 175.886 17.548C176.006 17.489 176.128 17.4316 176.249 17.3751C176.31 17.3469 176.31 17.3469 176.372 17.3181C176.668 17.1852 176.668 17.1852 176.839 17.2071C176.888 17.2284 176.888 17.2284 176.937 17.2501C176.907 17.4188 176.874 17.5642 176.805 17.7218C176.728 18.0204 176.775 18.2677 176.821 18.5694C176.911 19.2175 176.984 19.8656 177.046 20.5167C177.051 20.5645 177.056 20.6122 177.06 20.6614C177.084 20.9087 177.108 21.1559 177.131 21.4032C177.15 21.6019 177.169 21.8006 177.188 21.9992C177.328 23.4359 177.429 24.8709 177.499 26.3126C177.509 26.4913 177.518 26.6699 177.527 26.8486C177.606 28.4168 177.646 29.9926 177.624 31.5626C177.623 31.6846 177.623 31.6846 177.622 31.8092C177.588 35.124 177.335 38.4371 176.76 41.703C176.689 42.1076 176.622 42.5128 176.555 42.9181C176.33 44.2776 176.104 45.631 175.785 46.9721C175.716 47.2686 175.664 47.5678 175.61 47.8673C175.537 48.2639 175.451 48.658 175.368 49.0525C175.297 49.3923 175.229 49.7321 175.167 50.0738C174.844 51.8549 174.383 53.6096 173.916 55.3574C173.766 55.9207 173.623 56.4856 173.485 57.052C173.451 57.1937 173.416 57.3354 173.381 57.477C173.048 58.8274 172.774 60.1851 172.52 61.5525C172.439 61.99 172.355 62.4269 172.269 62.8634C172.258 62.9168 172.248 62.9702 172.237 63.0253C172.044 63.9955 171.795 64.9544 171.541 65.9101C171.254 66.9912 170.977 68.075 170.706 69.1603C170.69 69.2246 170.674 69.289 170.658 69.3554C170.447 70.1961 170.242 71.038 170.038 71.8804C169.89 72.4963 169.738 73.1113 169.583 73.7257C168.927 76.3333 168.339 78.9316 167.942 81.5931C167.71 83.1459 167.381 84.6789 167.023 86.2071C166.581 88.0969 166.249 90.0479 166.034 91.9767C166.029 92.0255 166.023 92.0743 166.017 92.1246C165.989 92.4066 165.998 92.6195 166.124 92.8751C166.796 93.4882 167.868 93.6434 168.726 93.8478C168.823 93.8712 168.823 93.8712 168.922 93.8952C170.481 94.2726 172.051 94.6003 173.621 94.9296C174.182 95.0476 174.742 95.1716 175.3 95.3009C176.008 95.4635 176.717 95.6113 177.429 95.754C177.501 95.7685 177.501 95.7685 177.574 95.7833C178.17 95.903 178.766 96.0148 179.364 96.1217C180.724 96.3652 182.078 96.6359 183.431 96.9102C183.627 96.9499 183.823 96.9896 184.019 97.0292C185.726 97.3744 187.428 97.732 189.124 98.1223C189.992 98.3212 190.863 98.5078 191.734 98.6954C191.777 98.7048 191.821 98.7142 191.866 98.7239C193.125 98.9953 194.386 99.2566 195.65 99.5057C196.238 99.6218 196.825 99.7422 197.409 99.8751C198.117 100.036 198.827 100.186 199.538 100.332C199.596 100.344 199.655 100.356 199.714 100.368C200.588 100.547 201.463 100.711 202.341 100.868C204.356 101.229 206.338 101.694 208.315 102.221C208.941 102.387 209.568 102.55 210.196 102.708C210.32 102.739 210.444 102.77 210.568 102.801C210.896 102.884 211.223 102.966 211.551 103.048C213.976 103.652 215.542 104.481 217.304 106.234C217.354 106.284 217.404 106.333 217.455 106.384C218.384 107.316 219.03 108.367 219.687 109.5C219.728 109.356 219.769 109.211 219.812 109.063C219.874 109.083 219.936 109.104 219.999 109.125C219.999 109.187 219.999 109.249 219.999 109.313C220.037 109.322 220.074 109.331 220.113 109.34C220.222 109.368 220.33 109.402 220.437 109.438C220.457 109.396 220.478 109.355 220.499 109.313C220.53 109.436 220.53 109.436 220.562 109.563C220.665 109.583 220.768 109.604 220.874 109.625C220.874 109.708 220.874 109.79 220.874 109.875C220.895 109.834 220.916 109.793 220.937 109.75C221.124 109.75 221.124 109.75 221.23 109.852C221.333 110.038 221.316 110.164 221.312 110.375C221.369 110.549 221.369 110.549 221.437 110.688C221.478 110.688 221.519 110.688 221.562 110.688C221.57 110.734 221.577 110.78 221.585 110.828C221.648 111.102 221.699 111.217 221.937 111.375C221.943 111.438 221.95 111.501 221.956 111.567C222.007 111.859 222.122 112.019 222.294 112.255C222.374 112.375 222.374 112.375 222.374 112.5C222.416 112.521 222.457 112.541 222.499 112.563C222.541 112.624 222.582 112.686 222.624 112.75C222.666 112.771 222.707 112.791 222.749 112.813C222.749 112.874 222.749 112.936 222.749 113C222.783 113.247 222.783 113.247 222.937 113.438C222.919 113.584 222.897 113.73 222.874 113.875C222.844 114.25 222.879 114.477 223.062 114.813C223.074 114.992 223.074 114.992 223.062 115.125C222.561 114.899 222.262 114.325 221.954 113.888C221.846 113.736 221.737 113.586 221.624 113.438C221.661 113.497 221.661 113.497 221.698 113.557C221.817 113.749 221.936 113.941 222.054 114.133C222.076 114.169 222.098 114.204 222.121 114.241C222.391 114.68 222.659 115.119 222.924 115.562C222.948 115.603 222.973 115.644 222.998 115.687C223.118 115.887 223.237 116.087 223.356 116.287C223.738 116.93 224.133 117.563 224.605 118.145C224.829 118.424 225.043 118.707 225.249 119C224.661 119.664 223.464 119.77 222.619 119.82C220.865 119.886 219.089 119.577 217.356 119.336C217.171 119.31 216.986 119.286 216.8 119.262C215.659 119.109 214.534 118.897 213.405 118.67C213.159 118.62 212.914 118.571 212.668 118.522C212.238 118.437 211.807 118.35 211.377 118.264C211.116 118.211 210.854 118.158 210.592 118.106C209.469 117.882 208.352 117.645 207.239 117.378C206.794 117.271 206.349 117.167 205.902 117.071C204.548 116.777 203.204 116.445 201.862 116.099C201.721 116.063 201.58 116.027 201.44 115.991C200.457 115.739 199.477 115.479 198.502 115.201C197.794 115 197.085 114.815 196.367 114.656C196.212 114.622 196.058 114.587 195.903 114.552C195.798 114.528 195.694 114.504 195.589 114.481C195.234 114.401 194.879 114.317 194.525 114.232C194.476 114.221 194.427 114.209 194.377 114.197C194.278 114.173 194.179 114.149 194.081 114.125C193.252 113.926 192.421 113.742 191.585 113.57C190.423 113.332 189.275 113.044 188.125 112.752C187.613 112.622 187.1 112.497 186.587 112.374C185.739 112.17 184.894 111.955 184.051 111.731C182.007 111.189 179.956 110.673 177.904 110.163C177.803 110.138 177.703 110.113 177.602 110.088C177.528 110.07 177.528 110.07 177.452 110.051C177.145 109.974 176.839 109.897 176.532 109.818C176.26 109.748 175.987 109.679 175.714 109.609C175.659 109.595 175.604 109.581 175.547 109.567C174.797 109.378 174.045 109.203 173.29 109.038C173.228 109.025 173.228 109.025 173.164 109.011C172.951 108.965 172.739 108.919 172.526 108.872C172.44 108.854 172.355 108.835 172.269 108.817C172.226 108.807 172.184 108.798 172.14 108.789C170.794 108.496 169.474 108.15 168.157 107.746C167.142 107.438 166.103 107.197 165.055 107.032C164.874 107 164.874 107 164.749 106.938C164.736 106.977 164.722 107.016 164.708 107.057C164.624 107.188 164.624 107.188 164.474 107.243C164.412 107.254 164.349 107.265 164.285 107.276C164.216 107.289 164.147 107.301 164.075 107.315C164.003 107.327 163.93 107.339 163.855 107.352C163.785 107.364 163.715 107.377 163.642 107.39C163.158 107.477 162.673 107.552 162.187 107.625C162.166 107.584 162.146 107.543 162.124 107.5C161.819 108.278 161.565 109.068 161.32 109.867C161.281 109.994 161.242 110.121 161.202 110.248C161.145 110.435 161.087 110.623 161.029 110.81C160.933 111.125 160.835 111.439 160.733 111.752C159.951 114.168 159.46 116.67 158.948 119.154C158.819 119.781 158.686 120.407 158.546 121.031C158.537 121.075 158.527 121.118 158.517 121.163C158.339 121.955 158.152 122.745 157.964 123.535C157.792 124.256 157.623 124.977 157.456 125.699C157.438 125.777 157.438 125.777 157.42 125.856C157.309 126.338 157.197 126.82 157.095 127.305C156.838 128.51 156.515 129.695 156.194 130.885C156.019 131.534 155.849 132.184 155.683 132.835C155.64 133.001 155.597 133.167 155.554 133.333C155.247 134.505 154.966 135.676 154.745 136.867C154.735 136.922 154.725 136.976 154.715 137.032C154.694 137.143 154.674 137.253 154.654 137.363C154.307 139.232 153.88 141.07 153.385 142.904C153.359 143.001 153.359 143.001 153.332 143.099C153.306 143.196 153.306 143.196 153.279 143.295C152.994 144.354 152.734 145.42 152.471 146.485C152.388 146.822 152.304 147.158 152.219 147.495C151.364 150.89 151.364 150.89 150.771 154.338C150.751 154.488 150.729 154.639 150.707 154.789C150.592 155.626 150.612 156.469 150.624 157.313C150.672 157.316 150.719 157.319 150.768 157.322C151.273 157.358 151.775 157.41 152.277 157.473C152.4 157.488 152.522 157.503 152.645 157.517C153.855 157.665 155.04 157.92 156.226 158.202C157.493 158.503 158.763 158.791 160.038 159.059C160.107 159.073 160.176 159.088 160.246 159.102C160.995 159.26 161.745 159.412 162.495 159.559C163.791 159.812 165.076 160.118 166.364 160.412C168.908 160.992 171.462 161.528 174.019 162.047C174.83 162.212 175.64 162.382 176.449 162.563C176.517 162.578 176.517 162.578 176.587 162.594C176.959 162.677 177.33 162.76 177.702 162.844C179.57 163.266 181.447 163.643 183.326 164.016C186.537 164.654 186.537 164.654 188.024 164.991C188.368 165.069 188.712 165.144 189.057 165.214C197.949 167.037 197.949 167.037 199.999 168.75C200.054 168.792 200.109 168.834 200.166 168.877C200.935 169.475 201.543 170.225 202.124 171C202.156 171.042 202.187 171.083 202.219 171.126C202.792 171.891 203.309 172.688 203.812 173.5C203.838 173.542 203.864 173.584 203.891 173.627C204.328 174.334 204.728 175.062 205.132 175.789C205.249 176 205.367 176.212 205.485 176.423C205.867 177.108 206.245 177.794 206.617 178.484C206.892 178.996 207.179 179.496 207.481 179.992C209.437 183.214 209.437 183.214 209.437 184.188C208.665 184.104 207.894 184.013 207.124 183.914C207.071 183.907 207.018 183.901 206.963 183.894C206.34 183.814 205.72 183.728 205.101 183.625C204.322 183.497 203.538 183.425 202.753 183.348C201.496 183.224 200.247 183.072 198.999 182.875C198.933 182.865 198.866 182.855 198.797 182.844C198.021 182.725 197.265 182.556 196.503 182.365C195.837 182.202 195.166 182.073 194.492 181.949C193.517 181.77 192.552 181.561 191.588 181.331C190.814 181.146 190.039 180.979 189.257 180.832C187.673 180.532 186.126 180.122 184.571 179.7C183.668 179.455 182.765 179.217 181.855 179.004C181.807 178.993 181.758 178.981 181.708 178.97C181.233 178.859 180.756 178.751 180.278 178.647C179.303 178.435 178.341 178.19 177.378 177.926C175.144 177.313 172.901 176.753 170.633 176.278C168.457 175.823 168.458 175.823 167.403 175.486C167.114 175.395 166.822 175.311 166.531 175.227C166.468 175.209 166.406 175.191 166.342 175.172C166.213 175.134 166.083 175.097 165.954 175.059C165.813 175.019 165.673 174.978 165.533 174.937C164.24 174.56 162.957 174.23 161.63 173.993C161.126 173.902 160.628 173.797 160.132 173.669C159.839 173.597 159.554 173.555 159.253 173.531C158.361 173.458 157.502 173.232 156.635 173.016C156.465 172.974 156.294 172.933 156.124 172.891C155.377 172.71 154.633 172.525 153.898 172.304C153.09 172.064 152.261 171.927 151.433 171.777C149.647 171.453 149.647 171.453 148.917 171.272C148.869 171.26 148.82 171.248 148.77 171.236C148.197 171.088 147.641 170.889 147.187 170.5C146.67 171.803 146.415 173.217 146.164 174.59C145.931 175.857 145.673 177.117 145.402 178.375C145.392 178.418 145.383 178.462 145.373 178.506C145.086 179.837 144.787 181.165 144.48 182.492C144.038 184.405 143.6 186.316 143.29 188.255C143.167 189.019 143.024 189.777 142.87 190.535C142.847 190.652 142.823 190.768 142.8 190.885C142.749 191.137 142.698 191.389 142.647 191.641C142.633 191.709 142.62 191.777 142.605 191.847C142.575 191.996 142.545 192.145 142.515 192.294C142.006 194.811 141.565 197.326 141.213 199.87C141.157 200.276 141.099 200.682 141.041 201.088C141.023 201.213 141.005 201.338 140.988 201.464C140.865 202.33 140.732 203.195 140.598 204.061C140.581 204.174 140.563 204.288 140.546 204.402C140.533 204.488 140.533 204.488 140.519 204.576C140.47 204.897 140.423 205.219 140.378 205.541C140.245 206.497 140.093 207.448 139.922 208.397C139.853 208.785 139.784 209.173 139.715 209.561C139.702 209.638 139.688 209.714 139.675 209.792C139.564 210.418 139.462 211.044 139.363 211.672C139.207 212.653 139.025 213.628 138.837 214.603C138.73 215.161 138.627 215.72 138.524 216.278C138.142 218.343 138.142 218.343 137.937 219.313C137.925 219.369 137.914 219.425 137.902 219.482C137.324 222.233 135.782 224.277 133.673 226.091C133.517 226.227 133.368 226.37 133.218 226.512C132.473 227.202 131.635 227.751 130.773 228.283C130.631 228.371 130.49 228.461 130.349 228.552C128.87 229.502 127.334 230.362 125.799 231.216C124.682 231.838 123.58 232.482 122.49 233.149C122.385 233.213 122.281 233.277 122.176 233.34C121.506 233.692 121.506 233.692 121.062 234.25C120.917 234.215 120.917 234.215 120.749 234.125C120.57 233.785 120.512 233.457 120.464 233.078C120.457 233.021 120.449 232.963 120.441 232.904C120.418 232.728 120.396 232.551 120.374 232.375C120.368 232.323 120.361 232.272 120.354 232.218C120.182 230.885 120.261 229.586 120.386 228.25C120.393 228.173 120.4 228.097 120.407 228.017C120.583 226.098 120.851 224.217 121.222 222.326C121.313 221.862 121.402 221.398 121.492 220.934C121.502 220.879 121.513 220.824 121.523 220.767C121.692 219.887 121.847 219.005 121.995 218.121C122.508 215.072 123.067 212.029 123.765 209.017C123.813 208.807 123.858 208.597 123.903 208.386C123.998 207.939 124.1 207.494 124.202 207.048C124.235 206.905 124.268 206.762 124.3 206.619C124.401 206.176 124.503 205.733 124.607 205.291C124.866 204.185 125.082 203.072 125.294 201.956C125.466 201.05 125.646 200.148 125.852 199.249C125.948 198.83 126.034 198.409 126.12 197.988C126.672 195.309 126.672 195.309 127.018 194.054C127.165 193.523 127.301 192.991 127.433 192.457C127.6 191.786 127.768 191.115 127.941 190.445C127.951 190.405 127.962 190.364 127.972 190.323C128.077 189.916 128.183 189.51 128.296 189.105C128.735 187.524 129.08 185.923 129.4 184.314C129.409 184.267 129.418 184.22 129.428 184.171C129.523 183.696 129.616 183.221 129.709 182.746C129.928 181.62 130.175 180.506 130.45 179.392C130.581 178.861 130.699 178.328 130.812 177.793C130.853 177.598 130.895 177.403 130.936 177.207C130.947 177.159 130.957 177.11 130.968 177.061C131.039 176.728 131.114 176.396 131.191 176.064C131.509 174.697 131.746 173.328 131.937 171.938C131.946 171.874 131.954 171.81 131.964 171.744C132.221 169.876 132.446 168.007 132.613 166.129C132.63 165.931 132.649 165.734 132.667 165.537C132.695 165.233 132.723 164.929 132.749 164.625C132.686 164.645 132.622 164.666 132.556 164.686C130.487 165.273 127.558 163.974 125.589 163.402C124.587 163.112 123.585 162.833 122.562 162.625C122.167 162.54 121.787 162.431 121.406 162.297C120.53 161.992 119.634 161.769 118.734 161.548C118.603 161.515 118.472 161.483 118.341 161.45C117.055 161.131 115.767 160.824 114.473 160.539C113.766 160.383 113.076 160.195 112.385 159.98C112.197 159.921 112.008 159.865 111.82 159.809C111.725 159.781 111.725 159.781 111.629 159.752C111.346 159.668 111.063 159.585 110.78 159.502C110.638 159.46 110.496 159.418 110.354 159.376C109.446 159.105 108.535 158.867 107.612 158.654C106.623 158.425 105.64 158.172 104.657 157.916C103.474 157.608 102.291 157.304 101.101 157.024C96.5463 155.946 96.5463 155.946 94.8107 155.396C93.9171 155.113 93.0153 154.861 92.1126 154.609C92.0377 154.589 91.9629 154.568 91.8857 154.546C91.453 154.425 91.0201 154.305 90.5873 154.184C90.2304 154.085 89.8735 153.986 89.5167 153.886C89.4532 153.868 89.3897 153.85 89.3242 153.832C88.8166 153.69 88.3131 153.538 87.8118 153.375C87.7639 153.36 87.716 153.344 87.6667 153.328C87.0291 153.123 86.3989 152.903 85.7728 152.664C84.3097 152.108 82.8121 151.634 81.3118 151.188C80.9147 152.134 80.5659 153.087 80.2476 154.061C80.089 154.547 79.9225 155.027 79.7415 155.504C79.1019 157.216 78.6745 159.046 78.3145 160.833C78.1358 161.707 77.9151 162.571 77.7016 163.436C77.504 164.238 77.3085 165.04 77.1138 165.842C77.0527 166.094 76.9914 166.345 76.9291 166.596C76.5994 167.926 76.314 169.262 76.0462 170.606C76.0305 170.684 76.0149 170.763 75.9987 170.843C75.8225 171.729 75.6524 172.616 75.4891 173.504C75.339 174.32 75.1812 175.135 75.0232 175.949C74.7302 177.46 74.4388 178.97 74.22 180.494C73.974 182.205 73.6544 183.904 73.3293 185.602C73.1017 186.791 72.8893 187.983 72.6755 189.174C72.6471 189.333 72.6186 189.491 72.5901 189.65C72.5765 189.726 72.5628 189.802 72.5487 189.881C72.4794 190.267 72.4086 190.652 72.335 191.037C72.2388 191.546 72.1573 192.057 72.0768 192.569C72.0492 192.744 72.0213 192.92 71.9935 193.096C71.8894 193.753 71.7869 194.41 71.6854 195.068C71.3999 196.915 71.0777 198.747 70.7064 200.579C70.5903 201.157 70.4844 201.736 70.3817 202.317C70.2184 203.24 70.0494 204.162 69.8715 205.082C69.8478 205.205 69.8242 205.328 69.8008 205.451C69.6861 206.053 69.5641 206.65 69.4034 207.241C69.3915 207.286 69.3797 207.33 69.3675 207.376C69.0977 208.329 68.4842 209.136 67.8216 209.854C67.6995 209.986 67.5814 210.121 67.4642 210.258C67.1304 210.64 66.7701 210.99 66.3848 211.32C66.2514 211.436 66.1208 211.554 65.9901 211.672C65.699 211.931 65.3945 212.167 65.0814 212.399C64.9989 212.46 64.9989 212.46 64.9147 212.522C64.7557 212.64 64.5963 212.758 64.4368 212.875C64.3977 212.904 64.3587 212.933 64.3184 212.963C63.2371 213.758 62.1076 214.484 60.9519 215.167C60.7379 215.294 60.5267 215.426 60.3157 215.559C60.2759 215.584 60.2362 215.609 60.1952 215.634C60.1121 215.687 60.029 215.739 59.946 215.791C59.1786 216.272 58.4068 216.745 57.6258 217.204C56.9145 217.623 56.2123 218.055 55.5108 218.49C55.3995 218.559 55.2881 218.628 55.1767 218.697C54.9096 218.862 54.643 219.028 54.3778 219.196C53.6877 219.63 53.0821 219.964 52.2493 220C52.1986 219.875 52.1986 219.875 52.1868 219.688C52.2523 219.575 52.2523 219.575 52.3392 219.453C52.5272 219.179 52.5442 218.95 52.4993 218.625C52.4787 218.563 52.4581 218.501 52.4368 218.438C52.3491 217.747 52.3592 217.046 52.3587 216.352C52.3586 216.292 52.3586 216.232 52.3585 216.171C52.3598 214.338 52.5174 212.523 52.7896 210.711C52.8143 210.546 52.8386 210.38 52.8629 210.215C53.1477 208.275 53.4763 206.347 53.8419 204.421C53.8922 204.156 53.9419 203.891 53.9918 203.626C54.0634 203.245 54.1357 202.864 54.2083 202.483C54.276 202.128 54.3424 201.773 54.4075 201.417C54.908 198.697 55.461 195.982 56.1868 193.313C56.4795 192.232 56.7251 191.146 56.9574 190.051C57.0415 189.656 57.1279 189.261 57.2152 188.867C57.5049 187.555 57.7802 186.242 58.0244 184.921C58.1152 184.431 58.2103 183.943 58.3259 183.458C58.3821 183.217 58.4337 182.975 58.4849 182.733C58.8381 181.075 59.2432 179.432 59.6598 177.788C59.7631 177.381 59.8653 176.974 59.9659 176.566C59.9771 176.52 59.9884 176.475 60 176.428C60.0487 176.231 60.0973 176.033 60.1456 175.836C60.2239 175.52 60.3058 175.206 60.3979 174.893C60.6377 174.08 60.8275 173.265 60.9954 172.434C61.0228 172.3 61.0502 172.166 61.0776 172.033C61.1565 171.647 61.2344 171.261 61.3118 170.875C61.3268 170.801 61.3268 170.801 61.3421 170.725C61.5431 169.723 61.7319 168.72 61.9192 167.716C61.946 167.573 61.9728 167.429 61.9996 167.286C62.0086 167.238 62.0175 167.19 62.0268 167.141C62.045 167.043 62.0633 166.946 62.0815 166.848C62.1266 166.608 62.1715 166.367 62.2161 166.126C62.4018 165.122 62.5916 164.122 62.8413 163.132C62.8901 162.937 62.9364 162.743 62.983 162.548C63.0158 162.412 63.0485 162.276 63.0814 162.141C63.0995 162.065 63.1177 161.99 63.1364 161.913C63.2356 161.502 63.3352 161.092 63.4356 160.681C63.7696 159.315 64.087 157.946 64.3819 156.571C64.7216 154.991 65.0943 153.425 65.5597 151.877C65.889 150.779 66.0422 149.833 65.9368 148.688C63.1237 147.744 60.249 146.977 57.3763 146.236C57.157 146.18 56.9377 146.123 56.7185 146.066C56.2245 145.939 55.7305 145.811 55.2365 145.684C55.1474 145.661 55.0583 145.638 54.9691 145.615C54.6715 145.538 54.3737 145.461 54.076 145.384C54.0341 145.374 53.9922 145.363 53.9491 145.352C53.4842 145.232 53.019 145.114 52.553 144.999C51.7456 144.799 50.9404 144.595 50.1392 144.371C49.2669 144.128 48.3907 143.903 47.5111 143.688C47.4315 143.668 47.352 143.648 47.2701 143.628C45.3821 143.164 43.4839 142.746 41.5849 142.33C40.819 142.162 40.0535 141.992 39.2884 141.82C39.227 141.807 39.1657 141.793 39.1025 141.779C38.1441 141.564 37.1878 141.34 36.2329 141.11C35.6651 140.974 35.0968 140.839 34.5274 140.71C32.9265 140.344 31.3449 139.931 29.7665 139.478C27.9674 138.962 26.1571 138.509 24.3196 138.152C23.2858 137.951 22.2675 137.706 21.2493 137.438C21.204 137.426 21.1587 137.414 21.112 137.402C19.9745 137.102 18.8419 136.789 17.7149 136.453C17.086 136.265 16.4549 136.091 15.8196 135.926C13.7389 135.38 13.7389 135.38 13.0618 134.875C13.0203 134.845 12.9787 134.814 12.9359 134.783C11.7233 133.812 11.0651 132.174 10.4409 130.803C10.2016 130.279 9.95078 129.762 9.68683 129.25C9.65971 129.197 9.63259 129.144 9.60465 129.089C9.29448 128.484 8.98079 127.882 8.63588 127.295C8.29376 126.712 8.01257 126.146 7.81183 125.5C7.7986 125.458 7.78536 125.415 7.77173 125.371C7.69042 125.107 7.61395 124.841 7.53876 124.574C7.49775 124.432 7.45441 124.291 7.41046 124.15C7.39593 124.102 7.38139 124.055 7.36641 124.006C7.33873 123.917 7.31064 123.827 7.28203 123.737C7.19877 123.463 7.17385 123.223 7.18683 122.938C7.38398 122.839 7.59874 122.859 7.81574 122.852C8.29351 122.831 8.76348 122.784 9.23761 122.723C11.3842 122.451 13.572 122.41 15.7342 122.436C15.8934 122.438 16.0526 122.439 16.2118 122.441C21.157 122.494 26.1144 123.061 30.9253 124.22C31.9269 124.461 32.9316 124.686 33.941 124.892C36.5267 125.42 39.0628 126.072 41.6016 126.79C43.0247 127.192 44.4575 127.554 45.8924 127.911C48.3953 128.534 50.8968 129.174 53.3746 129.891C53.4615 129.916 53.5484 129.941 53.6353 129.967C53.6787 129.979 53.7221 129.992 53.7668 130.005C54.131 130.11 54.4961 130.212 54.8614 130.313C54.9198 130.329 54.9782 130.345 55.0384 130.362C55.2684 130.426 55.4984 130.489 55.7286 130.553C56.3736 130.73 57.0143 130.917 57.6529 131.117C58.5459 131.395 59.4474 131.638 60.3509 131.879C61.4141 132.164 62.4745 132.454 63.5299 132.766C63.7462 132.83 63.963 132.892 64.1798 132.954C67.3323 133.868 67.3323 133.868 68.5618 134.688C68.6907 134.688 68.6907 134.688 68.8118 134.625C69.5388 133.755 69.7521 132.403 70.0111 131.324C70.0291 131.249 70.0291 131.249 70.0476 131.173C70.4129 129.658 70.7526 128.138 71.0772 126.614C71.0861 126.572 71.0949 126.531 71.104 126.488C71.201 126.033 71.2975 125.577 71.3936 125.122C71.5666 124.302 71.7455 123.485 71.9355 122.67C72.0434 122.207 72.1451 121.743 72.2415 121.277C72.5395 119.869 72.8829 118.473 73.2786 117.089C73.423 116.583 73.547 116.072 73.67 115.56C73.7662 115.166 73.876 114.776 73.992 114.387C74.1131 113.979 74.2286 113.57 74.3431 113.16C74.3601 113.099 74.3771 113.038 74.3947 112.976C74.4303 112.848 74.4658 112.72 74.5012 112.592C74.5452 112.435 74.5898 112.277 74.6348 112.12C74.8347 111.416 75.0067 110.709 75.1673 109.996C75.1872 109.908 75.1872 109.908 75.2075 109.819C75.4321 108.827 75.6378 107.832 75.838 106.835C76.1628 105.22 76.527 103.615 76.8922 102.009C76.9457 101.774 76.9988 101.538 77.0518 101.303C77.2633 100.366 77.4809 99.4306 77.7178 98.4994C77.7887 98.2198 77.8566 97.9396 77.9234 97.659C77.933 97.6189 77.9425 97.5788 77.9524 97.5374C77.9989 97.3424 78.0451 97.1473 78.0909 96.952C78.1914 96.5297 78.3066 96.1157 78.4368 95.7016C78.8794 94.2751 79.1862 92.8128 79.4991 91.3539C79.5819 90.9686 79.6673 90.5839 79.7532 90.1993C79.7747 90.1028 79.7747 90.1028 79.7966 90.0044C79.8741 89.6554 79.9522 89.3065 80.0308 88.9578C80.0758 88.7582 80.1206 88.5585 80.1654 88.3588C80.187 88.2625 80.2087 88.1663 80.2305 88.0701C80.3446 87.5665 80.4528 87.0622 80.546 86.5543C80.5581 86.4903 80.5581 86.4903 80.5705 86.4249C80.6628 85.9048 80.6834 85.3835 80.3743 84.9376C79.894 84.4573 79.1013 84.2635 78.4759 84.0431C78.4098 84.0197 78.4098 84.0197 78.3423 83.9958C76.0781 83.1993 73.7564 82.5516 71.4368 81.9376C71.3904 81.9253 71.344 81.913 71.2961 81.9003C70.1718 81.6023 69.0437 81.3236 67.9112 81.0586C67.2037 80.893 66.4992 80.7187 65.7962 80.5353C64.8637 80.292 63.9276 80.0663 62.9897 79.8454C62.4828 79.7259 61.9768 79.605 61.4728 79.4737C60.7306 79.2806 59.9819 79.1313 59.2295 78.9844C58.3792 78.8181 57.5346 78.6334 56.6907 78.4376C55.7862 78.2277 54.8804 78.0364 53.9681 77.8634C52.5857 77.6004 51.2334 77.2569 49.878 76.8781C49.3695 76.7363 48.8593 76.6023 48.3476 76.4724C47.669 76.3001 46.9951 76.1167 46.3236 75.9181C45.1188 75.5628 43.9034 75.2497 42.6868 74.9376C42.5809 74.9104 42.5809 74.9104 42.4727 74.8826C40.5375 74.386 38.6001 73.8979 36.6602 73.4197C36.5281 73.3872 36.396 73.3546 36.264 73.3219C36.0169 73.2609 35.7697 73.2002 35.5225 73.1395C35.4507 73.1218 35.3788 73.104 35.3048 73.0858C34.6061 72.9148 33.9089 72.7533 33.1946 72.6642C32.4546 72.5646 31.7274 72.4146 30.9993 72.2501C30.927 72.234 30.927 72.234 30.8531 72.2176C29.6045 71.9354 28.7136 71.2029 28.0071 70.1407C27.9179 69.9906 27.8323 69.841 27.7493 69.6876C27.7085 69.6126 27.7085 69.6126 27.6669 69.5361C27.4191 69.0769 27.1769 68.6146 26.9495 68.1449C26.4329 67.0797 25.7913 66.0795 25.1546 65.083C24.9662 64.7877 24.7798 64.4912 24.5929 64.195C24.4381 63.9495 24.2828 63.7044 24.1265 63.4598C23.6812 62.7614 23.2555 62.0528 22.8377 61.3376C22.7601 61.2058 22.6811 61.0751 22.6009 60.9449C22.5609 60.8793 22.521 60.8138 22.4798 60.7462C22.4465 60.6926 22.4133 60.639 22.379 60.5838C22.3028 60.4179 22.3067 60.3054 22.3118 60.1251C25.4083 59.6832 28.5055 59.3105 31.6243 59.0626C31.6672 59.0591 31.71 59.0557 31.7542 59.0521C32.5127 58.9922 33.2701 58.9876 34.0306 58.9884C34.1285 58.9884 34.1285 58.9884 34.2284 58.9885C35.5302 58.9905 36.8259 59.0317 38.1243 59.1251C38.1688 59.1282 38.2133 59.1312 38.2591 59.1344C40.2543 59.2728 42.2252 59.6478 44.1938 59.9873C44.6248 60.0615 45.0559 60.1348 45.4877 60.2042C46.517 60.3702 47.5364 60.5667 48.5554 60.7877C48.7969 60.8401 49.0386 60.8919 49.2803 60.9436C50.7128 61.2509 52.1414 61.5707 53.5579 61.9454C53.6129 61.9599 53.6678 61.9743 53.7244 61.9892C54.6152 62.2235 55.5029 62.4684 56.3895 62.718C57.4677 63.0215 58.5491 63.3122 59.6315 63.6003C61.1198 63.9966 61.1198 63.9966 61.6956 64.1612C61.738 64.1733 61.7803 64.1854 61.8239 64.1979C61.8864 64.2157 61.8864 64.2157 61.9501 64.2339C63.0238 64.5405 64.1064 64.8072 65.1912 65.0714C67.0763 65.5305 68.9491 66.0187 70.8118 66.5626C70.9035 66.5893 70.9035 66.5893 70.997 66.6166C71.7043 66.823 72.4109 67.0318 73.1169 67.2427C73.4205 67.3333 73.7244 67.4227 74.0289 67.5106C74.8961 67.7617 75.753 68.0379 76.6083 68.3266C77.1175 68.4984 77.6273 68.6671 78.1395 68.8297C79.0867 69.1308 80.0307 69.4316 80.9525 69.8048C81.017 69.8308 81.0816 69.8568 81.1481 69.8835C82.3145 70.3712 82.3145 70.3712 82.6868 70.8126C82.7025 71.0079 82.7025 71.0079 82.6868 71.1876C82.6868 71.2288 82.6868 71.2701 82.6868 71.3126C82.7636 71.1804 82.8388 71.0476 82.9134 70.9142C82.9341 70.8789 82.9548 70.8436 82.9761 70.8072C83.4704 69.912 83.6802 68.8444 83.9368 67.8634C83.9702 67.7372 84.0035 67.6109 84.0369 67.4847C84.2094 66.8319 84.3797 66.1786 84.5481 65.5248C84.6377 65.18 84.7319 64.8367 84.8282 64.4938C84.8412 64.4474 84.8542 64.401 84.8676 64.3532C84.931 64.1268 84.9948 63.9006 85.0593 63.6745C85.5692 61.8739 85.9786 60.0595 86.322 58.2205C86.3701 57.9641 86.4189 57.7077 86.4676 57.4514C86.6028 56.7388 86.7369 56.026 86.8702 55.313C87.281 53.1174 87.281 53.1174 87.515 52.0821C87.538 51.9786 87.5611 51.8751 87.5841 51.7715C87.6332 51.5505 87.6825 51.3295 87.7319 51.1085C87.8673 50.5025 88.0001 49.896 88.1334 49.2895C88.1779 49.0873 88.2224 48.8851 88.267 48.6829C88.4336 47.9267 88.4336 47.9267 88.5967 47.1698C88.666 46.8448 88.7379 46.5206 88.8106 46.1964C89.1233 44.7996 89.4059 43.3995 89.6684 41.9925C89.7435 41.5905 89.8234 41.1897 89.9056 40.7892C90.0009 40.3227 90.0887 39.8552 90.1722 39.3866C90.5512 37.2601 90.9967 35.1543 91.4876 33.0509C91.502 32.989 91.5165 32.9272 91.5313 32.8634C91.6805 32.2253 91.8351 31.5898 92.0067 30.9573C92.0912 30.6399 92.165 30.3204 92.2376 30.0001C92.2536 29.9305 92.2695 29.8609 92.2859 29.7892C92.3681 29.4298 92.4493 29.0701 92.5296 28.7103C92.7748 27.6136 93.0301 26.5195 93.2884 25.4259C93.3057 25.3523 93.3231 25.2787 93.341 25.2029C93.5015 24.5227 93.6622 23.8426 93.8328 23.1649C93.858 23.0641 93.8832 22.9634 93.9084 22.8626C93.9583 22.6631 94.0086 22.4637 94.0592 22.2644C94.4445 20.7465 94.7626 19.2219 95.0494 17.6825C95.0923 17.4531 95.1358 17.2237 95.1793 16.9944C95.4727 15.4487 95.4727 15.4487 95.7351 13.8975C95.9498 12.5517 96.2943 11.3871 97.3118 10.4376C97.3619 10.3907 97.3619 10.3907 97.413 10.3429C98.3665 9.46404 99.4927 8.82594 100.601 8.16505C101.4 7.68878 102.185 7.19293 102.956 6.67375C103.259 6.47087 103.566 6.27571 103.874 6.08213C104.451 5.72023 105.021 5.34901 105.591 4.97618C105.807 4.83492 106.023 4.69447 106.24 4.55528C106.627 4.30734 107.009 4.05971 107.378 3.78526C108.083 3.26765 108.083 3.26765 108.345 3.3812ZM82.4993 71.5626C82.5618 71.6876 82.5618 71.6876 82.5618 71.6876L82.4993 71.5626ZM82.4368 71.6876C82.4993 71.8126 82.4993 71.8126 82.4993 71.8126L82.4368 71.6876ZM82.3743 71.8751C82.4368 72.0001 82.4368 72.0001 82.4368 72.0001L82.3743 71.8751ZM96.8743 86.8126C96.9368 86.9376 96.9368 86.9376 96.9368 86.9376L96.8743 86.8126ZM96.8118 87.0001C96.7921 87.0481 96.7723 87.0962 96.7519 87.1457C95.76 89.5533 95.76 89.5533 95.306 90.5516C94.0433 93.3277 93.1743 96.2163 92.3572 99.1498C92.3157 99.2988 92.274 99.4477 92.2322 99.5965C91.9444 100.622 91.6693 101.651 91.4072 102.683C91.3844 102.773 91.3616 102.863 91.3388 102.952C90.6631 105.608 90.0155 108.269 89.468 110.954C89.251 112.017 89.0144 113.073 88.7493 114.126C88.681 114.397 88.6147 114.669 88.5486 114.942C88.5369 114.99 88.5252 115.038 88.5131 115.088C88.4653 115.285 88.4175 115.482 88.3697 115.679C88.3341 115.826 88.2984 115.973 88.2628 116.12C88.2511 116.168 88.2394 116.216 88.2274 116.266C88.1626 116.532 88.0969 116.798 88.0301 117.064C87.7627 118.126 87.5309 119.192 87.3157 120.266C87.0558 121.562 86.764 122.845 86.4368 124.125C86.4227 124.18 86.4086 124.236 86.394 124.293C86.3168 124.595 86.2395 124.896 86.1621 125.198C85.233 128.823 84.3921 132.476 83.8157 136.176C83.8084 136.222 83.8012 136.268 83.7936 136.315C83.7613 136.536 83.7388 136.758 83.7256 136.981C83.7211 137.047 83.7211 137.047 83.7165 137.115C83.769 137.331 83.8924 137.423 84.0618 137.563C84.2589 137.655 84.2589 137.655 84.4813 137.72C84.5227 137.733 84.5641 137.746 84.6068 137.76C84.6972 137.789 84.7878 137.818 84.8786 137.846C85.1332 137.925 85.3867 138.008 85.6402 138.09C85.6945 138.108 85.7488 138.125 85.8047 138.144C86.3835 138.333 86.9534 138.546 87.5245 138.757C90.9618 140.027 94.5151 140.993 98.0495 141.953C98.9892 142.209 99.924 142.481 100.859 142.754C101.82 143.035 102.78 143.315 103.745 143.582C103.789 143.594 103.833 143.606 103.878 143.619C104.342 143.747 104.807 143.874 105.271 144C105.537 144.073 105.803 144.146 106.07 144.219C106.122 144.233 106.175 144.248 106.229 144.262C107.177 144.523 108.121 144.797 109.064 145.077C109.487 145.203 109.911 145.326 110.335 145.449C110.449 145.482 110.449 145.482 110.566 145.516C111.022 145.649 111.479 145.78 111.936 145.911C112.284 146.011 112.632 146.111 112.98 146.211C113.05 146.231 113.12 146.251 113.193 146.272C114.164 146.552 115.133 146.837 116.097 147.14C117.523 147.586 118.977 147.934 120.429 148.287C123.151 148.95 123.151 148.95 124.48 149.324C125.459 149.6 126.442 149.845 127.437 150.063C127.492 150.075 127.548 150.087 127.605 150.099C128.854 150.372 130.104 150.641 131.356 150.904C134.616 151.589 134.616 151.589 135.684 152.095C135.967 152.226 136.181 152.286 136.499 152.25C137.253 151.654 137.339 150.611 137.489 149.723C137.535 149.455 137.582 149.187 137.63 148.919C137.639 148.863 137.649 148.808 137.659 148.751C137.829 147.798 138.023 146.849 138.214 145.9C138.256 145.69 138.298 145.479 138.34 145.269C138.559 144.171 138.784 143.075 139.021 141.981C139.031 141.933 139.042 141.884 139.052 141.835C139.156 141.355 139.262 140.876 139.375 140.398C139.526 139.763 139.645 139.123 139.761 138.481C140.272 135.656 140.882 132.859 141.598 130.08C141.834 129.162 142.061 128.243 142.282 127.321C142.361 126.993 142.441 126.665 142.521 126.337C142.546 126.233 142.572 126.13 142.597 126.027C142.633 125.878 142.67 125.729 142.706 125.58C142.862 124.946 143.009 124.311 143.149 123.674C143.227 123.318 143.306 122.963 143.385 122.608C143.422 122.444 143.458 122.279 143.495 122.115C143.562 121.812 143.629 121.508 143.697 121.205C143.746 120.985 143.795 120.765 143.844 120.545C143.858 120.481 143.858 120.481 143.873 120.415C143.989 119.89 144.106 119.365 144.221 118.84C144.255 118.69 144.288 118.54 144.321 118.39C144.35 118.26 144.378 118.13 144.406 118.001C144.531 117.435 144.669 116.874 144.812 116.313C144.829 116.244 144.847 116.175 144.865 116.105C145.092 115.213 145.329 114.324 145.577 113.437C145.685 113.049 145.788 112.661 145.883 112.27C145.923 112.115 145.965 111.962 146.01 111.808C146.208 111.12 146.359 110.431 146.488 109.727C146.509 109.612 146.53 109.497 146.552 109.382C146.596 109.144 146.64 108.905 146.684 108.667C146.736 108.383 146.789 108.1 146.842 107.816C147.101 106.434 147.338 105.049 147.562 103.66C147.574 103.583 147.587 103.505 147.6 103.425C147.636 103.204 147.671 102.983 147.706 102.762C147.717 102.696 147.728 102.63 147.739 102.561C147.748 102.5 147.758 102.439 147.768 102.376C147.777 102.323 147.785 102.269 147.794 102.215C147.812 102.058 147.815 101.907 147.812 101.75C147.713 101.748 147.614 101.747 147.515 101.746C147.432 101.745 147.432 101.745 147.348 101.744C147.193 101.744 147.193 101.744 147.069 101.781C146.531 101.91 145.946 101.768 145.413 101.676C145.372 101.669 145.331 101.662 145.288 101.655C144.289 101.483 143.33 101.246 142.371 100.917C141.926 100.764 141.476 100.632 141.022 100.508C140.761 100.436 140.509 100.356 140.256 100.258C139.788 100.085 139.303 99.9785 138.819 99.8624C137.722 99.5987 136.636 99.3043 135.554 98.9845C135.49 98.9655 135.425 98.9465 135.359 98.9269C135.11 98.8534 134.86 98.7797 134.611 98.706C133.346 98.3321 132.07 98.0215 130.787 97.7171C129.866 97.4983 128.95 97.2687 128.038 97.0157C127.987 97.0015 127.936 96.9874 127.884 96.9727C127.377 96.8319 126.872 96.6876 126.368 96.5401C125.601 96.3161 124.852 96.1216 124.062 96.0001C123.638 95.9237 123.229 95.8295 122.82 95.691C122.02 95.4207 121.199 95.255 120.374 95.0823C120.187 95.0431 120.001 95.0036 119.814 94.9642C119.697 94.9397 119.579 94.9163 119.462 94.893C118.98 94.7925 118.564 94.6294 118.124 94.4103C118.031 94.3655 118.031 94.3655 117.936 94.3198C117.479 94.0968 117.479 94.0968 117.277 93.9315C116.724 93.5 115.895 93.3887 115.23 93.211C115.107 93.1779 114.984 93.1448 114.862 93.1116C114.55 93.0276 114.239 92.944 113.928 92.8605C113.655 92.7872 113.382 92.7136 113.109 92.64C113.034 92.6198 113.034 92.6198 112.958 92.5992C112.812 92.5597 112.665 92.5201 112.519 92.4806C112.471 92.4677 112.424 92.4548 112.374 92.4416C110.093 91.825 110.093 91.825 109.379 91.5864C108.759 91.3793 108.135 91.2273 107.495 91.0938C106.643 90.9156 105.814 90.7001 105.008 90.3628C104.228 90.0382 103.423 89.7832 102.621 89.5197C97.4441 87.8199 97.4441 87.8199 96.9368 87.3126C96.8978 87.1485 96.8978 87.1485 96.8743 87.0001C96.8537 87.0001 96.8331 87.0001 96.8118 87.0001ZM220.249 109.5C220.27 109.541 220.291 109.583 220.312 109.625C220.394 109.604 220.477 109.584 220.562 109.563C220.459 109.542 220.356 109.521 220.249 109.5ZM220.437 111.375C220.499 111.5 220.499 111.5 220.499 111.5L220.437 111.375ZM220.499 111.5C220.562 111.625 220.562 111.625 220.562 111.625L220.499 111.5ZM220.562 111.625C220.624 111.75 220.624 111.75 220.624 111.75L220.562 111.625ZM220.749 111.938C220.812 112.063 220.812 112.063 220.812 112.063L220.749 111.938ZM220.812 112.063C220.874 112.188 220.874 112.188 220.874 112.188L220.812 112.063ZM220.874 112.188C220.916 112.291 220.957 112.394 220.999 112.5C221.02 112.459 221.041 112.418 221.062 112.375C221 112.313 220.938 112.251 220.874 112.188ZM221.062 112.5C221.103 112.603 221.144 112.706 221.187 112.813C221.207 112.771 221.228 112.73 221.249 112.688C221.187 112.626 221.126 112.564 221.062 112.5ZM221.249 112.813C221.27 112.874 221.291 112.936 221.312 113C221.312 112.938 221.312 112.876 221.312 112.813C221.291 112.813 221.271 112.813 221.249 112.813ZM221.374 113C221.416 113.103 221.457 113.206 221.499 113.313C221.52 113.271 221.541 113.23 221.562 113.188C221.5 113.126 221.438 113.064 221.374 113Z" fill="#607090"/>
</svg>
