<svg width="241" height="233" viewBox="0 0 241 233" fill="none" xmlns="http://www.w3.org/2000/svg">
<path fill-rule="evenodd" clip-rule="evenodd" d="M79.6262 7.68762H80.0012C84.3137 8.18762 88.6262 9.25012 92.8137 10.3751L95.9387 11.1876H96.1887L97.9387 11.6251C99.9387 12.0626 101.876 12.6876 103.876 13.2501C105.138 13.7129 106.409 14.1505 107.689 14.5626L109.439 15.1251C111.001 15.6251 112.564 16.2501 114.001 16.9376L114.251 17.0626C117.882 18.8641 121.487 20.7185 125.064 22.6251L125.189 22.7501C126.395 23.4257 127.583 24.1343 128.751 24.8751L130.251 25.8126L130.439 25.9376L131.064 26.3126L131.251 26.4376C131.852 26.7844 132.436 27.1598 133.001 27.5626C134.056 28.1757 135.078 28.8432 136.064 29.5626L136.939 30.1251L137.126 30.2501C138.228 30.9433 139.292 31.6944 140.314 32.5001L141.751 33.5626L144.126 35.3126L144.189 35.3751L144.376 35.5001L144.626 35.6876L144.751 35.7501C145.783 36.5747 146.825 37.3873 147.876 38.1876C148.37 38.612 148.87 39.0287 149.376 39.4376H149.439C149.974 39.9481 150.537 40.428 151.126 40.8751L151.751 41.3751V41.4376C152.304 41.8607 152.846 42.2983 153.376 42.7501L153.501 42.8751C155.232 44.2778 157.048 45.572 158.939 46.7501L159.376 47.0001L159.501 47.1251L160.251 47.6251C161.949 48.732 163.577 49.9426 165.126 51.2501C165.957 51.846 166.751 52.4931 167.501 53.1876V53.3126L167.626 53.3751L167.939 53.6251L168.064 53.6876L168.189 53.8126L168.439 54.0626L168.501 54.1251L168.876 54.5001L169.564 55.1251L169.626 55.1876C170.123 55.6925 170.644 56.1723 171.189 56.6251H171.251L172.939 58.1876L173.501 58.6876L173.751 59.0001L173.876 59.0626L174.564 59.7501C174.737 59.9711 174.925 60.1799 175.126 60.3751L175.251 60.5001L176.126 61.4376L176.689 62.0001L177.126 62.5001L177.564 62.9376L178.001 63.3751V63.4376L178.564 63.9376L178.626 64.1876H178.751L179.001 64.5001L179.626 65.1876L180.376 66.0001L180.876 66.5626C181.307 67.0119 181.704 67.4923 182.064 68.0001C183.171 69.2159 184.214 70.4885 185.189 71.8126L185.251 71.8751C186.1 73.0001 186.975 74.1045 187.876 75.1876C188.673 76.3391 189.507 77.4647 190.376 78.5626C191.325 79.7522 192.222 80.9825 193.064 82.2501L193.814 83.2501L195.689 86.0001C196.001 86.4376 196.314 86.9376 196.689 87.3126L197.564 88.5626L198.001 89.1876L198.126 89.3126C198.846 90.4163 199.597 91.5 200.376 92.5626L201.376 93.9376L201.501 94.1876L202.501 95.6876L202.814 96.1876C203.559 97.2603 204.288 98.3438 205.001 99.4376L205.064 99.5626L205.751 100.5L205.814 100.625L206.751 101.938L206.876 102.063L207.376 102.75C208.251 103.887 209.085 105.054 209.876 106.25C210.657 107.439 211.47 108.606 212.314 109.75L212.751 110.438L214.064 112.313L214.314 112.688L214.876 113.563L215.001 113.688L215.189 113.938C216.579 115.971 217.892 118.056 219.126 120.188L219.439 120.75L220.564 122.625L220.626 122.813C221.111 123.599 221.549 124.413 221.939 125.25C222.873 126.886 223.708 128.576 224.439 130.313L224.501 130.5C225.169 131.968 225.857 133.426 226.564 134.875C227.98 137.902 229.09 141.064 229.876 144.313L230.564 146.625L230.626 146.813L231.126 148.5L231.189 148.688L231.251 148.813L231.376 149.188L231.439 149.313L232.439 152.688L232.564 153.063V153.25C232.849 154.341 233.162 155.425 233.501 156.5L233.564 156.625L234.376 160.063L234.439 160.25L235.189 164.563V164.75L235.314 165.313V165.438C235.439 166.313 235.439 167.188 235.439 168V169.563C235.439 170.813 235.439 172.063 235.314 173.313V173.438L235.189 174.313V174.438L234.689 177.188L234.626 177.625C234.251 179.313 233.751 181 233.251 182.688L233.126 183.063V183.125L231.876 186.625L231.814 186.75C231.439 187.813 231.001 188.875 230.501 189.875L230.376 190.063C229.376 192.313 228.251 194.438 226.876 196.5L226.314 197.438C225.274 199.095 224.125 200.682 222.876 202.188C221.253 204.412 219.478 206.521 217.564 208.5C217.315 208.831 217.044 209.144 216.751 209.438L215.876 210.313L215.814 210.375L215.626 210.563L215.251 210.938L214.751 211.438L214.376 211.875L214.314 211.938L214.189 212.063L213.876 212.313L213.751 212.438L213.501 212.563V212.688L213.314 212.875L212.689 213.438C212.305 213.848 211.887 214.225 211.439 214.563C210.818 215.114 210.171 215.635 209.501 216.125C208.623 216.908 207.682 217.619 206.689 218.25C205.662 218.94 204.62 219.607 203.564 220.25L202.689 220.75L201.939 221.188L201.751 221.313C200.902 221.799 200.025 222.238 199.126 222.625C194.814 224.813 189.814 225.813 185.001 226.375L184.314 226.438C181.451 226.801 178.573 227.031 175.689 227.125H174.939C174.065 227.191 173.189 227.212 172.314 227.188H171.876L169.251 227.25H169.064C166.668 227.3 164.272 227.341 161.876 227.375H161.751C160.064 227.375 158.376 227.375 156.751 227.25H156.564C155.126 227.125 153.626 227 152.251 226.625C151.501 226.438 150.876 226.313 150.126 226.313H150.001L149.439 226.375H148.376C147.314 226.375 146.376 226.625 145.439 226.938C144.626 227.25 143.876 227.438 143.001 227.438H142.814C141.814 227.5 140.814 227.188 139.876 226.813C139.064 226.563 138.251 226.313 137.439 226.188L135.939 225.75L134.751 225.375L131.876 224.5L131.314 224.313L127.439 222.938L126.876 222.688C123.376 221.397 119.916 220.001 116.501 218.5L116.376 218.438C110.832 216.153 105.636 213.102 100.939 209.375C99.4101 208.204 97.8469 207.078 96.2512 206C95.0146 205.149 93.8253 204.231 92.6887 203.25C92.0469 202.659 91.3796 202.096 90.6887 201.563L90.1262 201.125L90.0637 201.063C89.4004 200.451 88.7123 199.868 88.0012 199.313C87.0304 198.586 86.1115 197.792 85.2512 196.938L84.5012 196.25L84.0637 195.875C83.2844 195.13 82.471 194.42 81.6262 193.75L81.0637 193.25L80.1262 192.375L79.9387 192.25C79.2855 191.588 78.597 190.963 77.8762 190.375L76.8137 189.438L76.7512 189.375L75.8762 188.625L75.7512 188.5V188.375L75.6262 188.313L75.3137 188.063L75.1887 187.938L75.0637 187.813L74.8137 187.625L74.6887 187.5C74.3821 187.202 74.0695 186.91 73.7512 186.625L73.6262 186.5L73.4387 186.375L73.1887 186.188V186.063L73.0637 186L72.5637 185.625L72.3137 185.375L72.1887 185.313L71.6262 184.813C70.8223 184.185 70.0505 183.518 69.3137 182.813C68.8058 182.36 68.2847 181.922 67.7512 181.5V181.438L67.0637 180.938V180.875L66.6262 180.5C66.1657 180.082 65.686 179.686 65.1887 179.313L64.3137 178.625L63.0637 177.563L63.0012 177.5C62.0356 176.626 61.0348 175.792 60.0012 175L59.3762 174.5L57.5637 172.938C56.5677 172.014 55.5465 171.118 54.5012 170.25L54.1262 169.938C53.5841 169.482 53.0628 169.002 52.5637 168.5L51.6262 167.563L51.5637 167.5L51.4387 167.375L51.3137 167.25L50.9387 166.938L50.2512 166.25L50.1262 166.125L49.8762 165.875L49.4387 165.438L49.1887 165.188L49.0637 165.063C48.6659 164.689 48.2902 164.293 47.9387 163.875L47.8137 163.75L47.5637 163.5L46.4387 162.313L45.8137 161.625L45.6887 161.5L45.1262 160.938C44.9387 160.75 44.9387 160.75 44.9387 160.625H44.8137L44.6262 160.438L43.9387 159.688L43.8137 159.563L43.0637 158.75L43.0012 158.563H42.8762L42.6887 158.375L42.1262 157.75L41.5012 157.063L41.0637 156.625L40.4387 155.938L39.9387 155.375C39.4813 154.936 39.0434 154.477 38.6262 154L38.2512 153.563L37.1887 152.5L37.0012 152.313L36.8762 152.188L36.7512 151.938L36.6262 151.875C36.5012 151.813 36.3762 151.75 36.3137 151.563L35.5637 150.813L35.3137 150.563L34.8762 150.125L34.5012 149.75L34.3762 149.625L34.2512 149.5L34.1262 149.375L34.0637 149.188L33.8762 149.125L33.6887 148.938L33.0637 148.25C32.6369 147.842 32.24 147.403 31.8762 146.938L31.6887 146.75L31.5637 146.625C30.7056 145.746 29.9119 144.806 29.1887 143.813C28.6958 143.104 28.1746 142.416 27.6262 141.75C27.0612 140.945 26.4777 140.153 25.8762 139.375L25.5637 138.875L25.5012 138.813L25.3762 138.563C24.8102 137.656 24.2268 136.76 23.6262 135.875C22.5662 134.334 21.6059 132.726 20.7512 131.063C20.2532 130.113 19.7322 129.175 19.1887 128.25L17.8762 125.938L17.6262 125.5L17.5637 125.375C16.9768 124.389 16.4141 123.389 15.8762 122.375L14.7512 120.313L14.5637 119.938L14.2512 119.375C13.9203 118.77 13.587 118.165 13.2512 117.563L13.1262 117.313C12.4387 116.063 11.8137 114.75 11.3762 113.438L11.3137 113.25L10.5012 110.313V110.188C10.1321 108.581 9.86078 106.953 9.68868 105.313C9.31368 102.563 9.18868 99.7501 9.00118 96.9376C8.83726 94.3301 8.6289 91.7255 8.37618 89.1251V88.9376C8.24301 87.7123 8.1596 86.4822 8.12618 85.2501C7.93868 82.6876 7.93868 80.1251 8.06368 77.5626V77.3126L8.56368 72.3751L8.62618 71.9376C8.93785 69.3552 9.37588 66.7896 9.93868 64.2501C10.4685 61.3487 11.1994 58.4876 12.1262 55.6876C12.7512 53.3751 13.6887 51.0626 14.6262 48.8751L14.7512 48.6251C15.596 46.6948 16.4711 44.7779 17.3762 42.8751L19.0012 39.8751L19.5637 38.9376L19.6262 38.6876L20.3137 37.5001C20.9417 36.3066 21.6518 35.158 22.4387 34.0626L24.5012 31.2501L24.6262 31.0626L25.5637 29.9376L25.6262 29.8126C26.4022 28.8455 27.2372 27.9271 28.1262 27.0626L28.8762 26.2501L29.0637 26.1251L29.8137 25.4376L30.4387 24.8126C30.9129 24.3659 31.4138 23.9485 31.9387 23.5626C33.1899 22.4576 34.5275 21.4544 35.9387 20.5626L36.5637 20.0626L36.8137 19.9376L37.2512 19.6251C42.5144 15.9017 48.2261 12.8569 54.2512 10.5626L54.3762 10.5001C59.8186 8.87852 65.4496 7.97504 71.1262 7.81262C73.9387 7.56262 76.7512 7.37512 79.6262 7.68762ZM73.9387 12.0001H74.1262C75.5848 11.8855 77.0515 11.9275 78.5012 12.1251C79.3137 12.1876 80.1262 12.2501 80.9387 12.4376H81.0637L82.3762 12.6876L82.5637 12.7501C84.1191 13.0413 85.6621 13.3958 87.1887 13.8126L87.4387 13.8751L89.5637 14.3751C92.4431 14.9651 95.2822 15.7375 98.0637 16.6876C100.361 17.3309 102.634 18.0606 104.876 18.8751C106.929 19.4759 108.934 20.228 110.876 21.1251L111.064 21.2501L111.814 21.5626L113.689 22.3751C114.501 22.8129 115.336 23.2092 116.189 23.5626C117.786 24.4099 119.39 25.2433 121.001 26.0626L121.876 26.5626C123.461 27.3823 125.004 28.2792 126.501 29.2501L126.689 29.3751L127.064 29.5626L132.751 33.1251L132.939 33.2501C134.417 34.2628 135.917 35.2422 137.439 36.1876C138.239 36.7883 139.051 37.3718 139.876 37.9376C141.536 39.1835 143.224 40.3922 144.939 41.5626C146.42 42.5649 147.858 43.6283 149.251 44.7501C150.731 45.7986 152.169 46.9036 153.564 48.0626L153.439 48.1251L153.001 47.8126C152.626 47.5001 152.189 47.0626 151.626 47.0626V47.4376L151.751 47.5626L151.314 47.6876C149.939 47.8126 148.564 48.0001 147.251 48.3126H147.126C146.045 48.5303 144.98 48.8227 143.939 49.1876C141.939 49.6259 139.958 50.1472 138.001 50.7501L137.876 50.8126L134.439 51.5626L134.189 51.6251L133.251 51.8126L130.439 52.5001L129.064 52.8126H128.939L128.626 52.8751C124.376 53.8126 119.939 55.1251 116.376 57.7501L116.189 57.8751L115.376 58.5626L115.001 58.8751L114.876 58.9376V59.0626L114.626 59.2501L114.314 59.6251C113.272 60.6096 112.311 61.6755 111.439 62.8126L111.314 62.9376L111.189 63.0626L111.064 63.1876C110.556 63.7248 110.076 64.2881 109.626 64.8751C109.212 65.2954 108.815 65.7333 108.439 66.1876L107.439 67.4376L106.876 68.2501L106.751 68.3751C106.205 69.1579 105.643 69.9289 105.064 70.6876L104.314 71.6251C102.303 74.209 100.466 76.9233 98.8137 79.7501C98.3162 80.4883 97.8369 81.2385 97.3762 82.0001L97.3137 82.0626L96.3762 83.6876L96.3137 83.8126C95.1262 85.7501 94.1262 87.7501 93.3137 89.8751C92.6262 91.7501 91.8762 93.6251 91.0637 95.4376L90.8762 95.8126C90.2512 97.2501 89.6262 98.6876 88.8762 100.063C87.9387 101.813 87.1262 103.625 86.3137 105.5L85.9387 106.313L85.7512 106.75L85.6887 106.938L85.1887 108.313L84.5637 110V110.063L83.5012 113L83.4387 113.188L82.6262 116.125L82.5637 116.375L82.5012 116.5L82.3137 117.188L81.8762 119L81.8137 119.375C81.3762 121.25 80.9387 123.188 80.6262 125.125C80.3137 126.875 79.8762 128.563 79.4387 130.25V130.313C78.9387 132 78.5012 133.688 78.1887 135.438L78.1262 135.563V135.688L77.8762 136.75C77.4868 138.44 77.1947 140.151 77.0012 141.875C76.5637 144.813 76.1887 147.75 75.9387 150.688C75.6128 154.755 75.0703 158.803 74.3137 162.813L73.8762 165.375L73.5012 164.938C72.6801 163.873 71.7818 162.87 70.8137 161.938L69.7512 160.813L69.5012 160.563L69.0637 160.125L68.5012 159.563L68.0637 159.063L67.8137 158.875L66.7512 157.875L66.5637 157.688V157.563L66.3137 157.375L66.2512 157.25H66.1262V157.125L65.8762 157L65.8137 156.938C65.4282 156.51 65.0103 156.113 64.5637 155.75L64.5012 155.688L63.6262 154.875L63.5637 154.813C63.1599 154.444 62.7429 154.089 62.3137 153.75C61.8412 153.282 61.3403 152.844 60.8137 152.438C60.1061 151.744 59.3545 151.097 58.5637 150.5L57.7512 149.75C57.2551 149.397 56.7755 149.022 56.3137 148.625C55.3286 147.845 54.3698 147.032 53.4387 146.188L52.8137 145.625L52.1887 145.063L51.4387 144.438V144.375L51.0012 144C50.2583 143.393 49.5489 142.746 48.8762 142.063C47.8145 141.214 46.7925 140.318 45.8137 139.375L45.2512 138.875L45.1262 138.75C43.9558 137.78 42.8296 136.759 41.7512 135.688L41.1887 135.125L40.1262 134.125L39.7512 133.75L39.6262 133.625L38.9387 133L38.7512 132.813V132.688L38.5012 132.563L37.8762 131.938L37.0637 131.25L36.9387 131.063L36.6262 130.75C36.356 130.479 36.0852 130.208 35.8137 129.938L35.6887 129.813C35.1298 129.287 34.6077 128.723 34.1262 128.125L34.0637 128H33.9387L33.6887 127.688L33.5637 127.563L33.1887 127.063L32.8762 126.75C31.6777 125.328 30.5513 123.847 29.5012 122.313L28.3762 120.688L28.2512 120.563L27.0637 119C26.143 117.905 25.2874 116.758 24.5012 115.563L24.1887 115.188C23.4093 114.084 22.5749 113.02 21.6887 112C20.7167 110.776 19.7788 109.526 18.8762 108.25L18.7512 108.063C18.0906 107.241 17.4447 106.407 16.8137 105.563C15.6887 104.125 14.6887 102.625 14.1262 100.875L13.9387 100.438C12.9387 96.1251 12.9387 96.1251 12.6887 91.6251V91.5001L12.3762 86.7501V86.4376L12.2512 81.0626V80.8126L12.3137 77.9376V77.7501L12.3762 77.0626V76.8751C12.5637 74.5626 12.5637 74.5626 13.0012 72.3126L13.0637 71.9376C13.7234 67.9539 14.6845 64.0259 15.9387 60.1876L16.0012 60.0001L16.5637 58.1251C17.223 55.7285 18.0159 53.3706 18.9387 51.0626C19.5637 49.3126 20.4387 47.6876 21.4387 46.1251L21.5012 46.0626C21.9387 45.3751 22.3762 44.8751 23.0012 44.4376L23.1887 44.3126C26.9387 41.8126 33.5637 41.8126 37.8137 42.4376L38.0012 42.5001C38.8762 42.6251 39.7512 42.8126 40.6262 43.1876L40.7512 43.3126C41.7512 43.7501 42.6887 44.4376 43.5637 45.1251L43.6887 45.1876L44.4387 45.8126L44.5637 45.8751L45.0637 46.2501L45.1887 46.3751C46.1706 47.1337 47.0902 47.9697 47.9387 48.8751C48.437 49.3565 48.9165 49.8568 49.3762 50.3751C50.5897 51.6091 51.7173 52.9247 52.7512 54.3126L53.5637 55.3751L54.0012 55.9376C55.3295 57.4103 56.5219 59.0001 57.5637 60.6876L57.8762 61.1251L59.0637 62.7501L59.2512 62.9376C59.9045 63.7768 60.6145 64.5704 61.3762 65.3126L61.6887 65.6251C62.0462 65.9974 62.4216 66.352 62.8137 66.6876V66.8126L63.0637 66.8751L63.1887 67.0001L63.4387 67.2501C65.9229 69.4484 68.7525 71.2222 71.8137 72.5001C73.1262 73.0001 74.4387 73.5626 75.6887 74.2501L75.8762 74.3126C77.2905 75.0908 78.6481 75.968 79.9387 76.9376C80.9894 77.6461 82.011 78.3968 83.0012 79.1876L85.6887 81.3126L85.9387 81.5001L86.0637 81.6251C86.6291 82.1058 87.2129 82.5645 87.8137 83.0001L89.1262 84.1251L89.2512 84.1876C90.5345 85.2454 91.8475 86.2666 93.1887 87.2501L93.9387 87.6876L94.3762 86.8126L94.4387 86.6876C95.0012 85.6876 95.5637 84.6876 95.9387 83.5626C96.0012 83.2501 96.0637 82.9376 95.8762 82.6251C95.7512 82.6251 95.7512 82.6251 95.5637 82.4376L94.8762 81.8751L94.5012 81.6251L94.3137 81.5001L93.3137 80.6876L93.1887 80.6251L91.6887 79.4376L91.2512 79.0626L89.9387 78.0001C89.4293 77.5241 88.8862 77.0855 88.3137 76.6876L86.6887 75.3751C86.2512 75.0626 85.8137 74.7501 85.5012 74.3751L85.3762 74.2501C85.0637 73.9376 84.8762 73.6876 84.8762 73.1876V73.0001L85.0637 71.0626C85.3762 68.8751 85.0637 66.8751 84.3762 64.7501L84.3137 64.5626L83.2512 61.7501L83.0012 61.2501C82.0637 59.2501 80.8137 57.4376 79.5012 55.6251L79.3762 55.5001L78.3762 54.3751L77.9387 53.8751L77.8762 53.7501H77.7512L77.6262 53.5001L77.3762 53.4376L77.2512 53.3126L77.1262 53.1876C76.6538 52.7001 76.1529 52.2409 75.6262 51.8126L75.4387 51.6876L75.0012 51.3751C74.4387 50.8751 73.9387 50.4376 73.3137 50.0626L73.0637 49.8751L72.0012 49.1251L71.8137 49.0626L69.8762 48.0001L69.2512 47.6876C68.0637 47.1251 66.8762 46.5626 65.6262 46.3751L65.3762 46.3126L64.6887 46.1876H64.5012C62.5012 45.9376 62.5012 45.9376 58.4387 46.4376L56.5637 46.7501H56.3137L55.6887 46.8126L55.5012 46.8751L54.5012 46.9376C53.6887 46.9376 53.0637 46.6251 52.5012 46.1251L52.3762 46.0001L51.8137 45.3751C51.2481 44.7124 50.6202 44.1055 49.9387 43.5626C49.4262 43.0902 48.8834 42.6518 48.3137 42.2501L47.1887 41.3126L47.0637 41.2501C45.9387 40.4376 44.6887 39.6251 43.3762 39.0626L43.1887 39.0001L40.3762 37.8751H40.2512C39.1887 37.5001 38.0637 37.1876 37.0012 37.0001L36.8137 36.9376C34.0637 36.3751 30.7512 35.5626 28.0637 36.8751L27.6887 37.0001L29.3137 34.7501C30.3525 33.1354 31.5232 31.6093 32.8137 30.1876V30.1251L33.2512 29.6876L33.9387 28.9376L34.0637 28.8126L35.4387 27.4376L35.5637 27.3751L37.5012 25.6876L37.6887 25.5626L40.3762 23.5626L40.5637 23.4376L42.2512 22.3126L42.3762 22.2501C44.1613 21.0871 45.9963 20.0027 47.8762 19.0001L48.0637 18.9376L49.1262 18.3751L49.2512 18.3126C51.772 17.0214 54.383 15.9143 57.0637 15.0001L57.3762 14.8751C58.6262 14.4376 59.8137 14.0626 61.1262 13.7501L61.2512 13.6876C64.2696 12.9722 67.343 12.5122 70.4387 12.3126L73.9387 12.0001ZM59.6262 51.8751L59.7512 51.7501C63.4387 48.5626 67.7512 49.5001 71.4387 52.1876L71.5637 52.3126C72.0894 52.6975 72.5903 53.115 73.0637 53.5626C73.8137 54.1251 74.5012 54.8751 75.1262 55.5626L75.3137 55.7501L76.8137 57.6251L76.9387 57.8126C77.5637 58.6876 78.0637 59.5001 78.5012 60.5001C79.1887 62.1876 79.6262 64.0626 78.8762 65.8751L78.8137 66.0626C78.6262 66.5626 78.3762 67.0001 78.0012 67.4376C76.9387 68.6876 75.8137 69.5626 74.1262 69.6876C70.8137 69.7501 67.3137 67.6876 64.9387 65.5626C64.6153 65.2798 64.2817 65.0088 63.9387 64.7501V64.6251L63.6887 64.5001L63.5637 64.3751L63.2512 64.0001L63.1887 63.8751H63.0637L63.0012 63.7501L62.8137 63.5626L62.6887 63.4376L62.5012 63.2501L62.0637 62.6876L62.0012 62.5626H61.8762L61.8137 62.4376L61.6262 62.1876L60.3762 60.6251L60.2512 60.4376L59.2512 58.8126L59.0637 58.3751C58.5012 57.2501 57.9387 56.1251 57.6887 54.8751C57.6262 54.3126 57.6887 54.0626 58.0012 53.6251L58.0637 53.5001L59.6262 51.8751ZM155.064 51.4376L155.751 51.1876C156.501 50.9376 157.001 50.9376 157.751 51.1876L157.876 51.2501C158.626 51.5626 159.251 52.0001 159.876 52.5001L160.064 52.6251L161.376 53.7501L161.501 53.8126C162.373 54.5418 163.228 55.2921 164.064 56.0626V56.1876L164.251 56.2501L164.314 56.3126L164.751 56.6876L165.814 57.7501L166.064 58.0001C166.44 58.3741 166.815 58.7491 167.189 59.1251L167.689 59.6251L167.939 59.8751C168.314 60.2501 168.689 60.5626 169.001 61.0001L169.376 61.3751L169.501 61.5001L169.689 61.6876C171.336 63.2538 172.88 64.9239 174.314 66.6876L175.064 67.5001L175.314 67.8751L175.501 68.0001L175.751 68.3126C176.845 69.611 177.97 70.8823 179.126 72.1251C179.552 72.6553 179.99 73.1762 180.439 73.6876L180.564 73.8751L181.751 75.3126V75.3751C182.234 76.0136 182.734 76.6389 183.251 77.2501C183.859 78.1526 184.505 79.0285 185.189 79.8751C186.049 81.1658 186.966 82.4171 187.939 83.6251L188.939 84.9376L189.439 85.6876L189.626 85.9376L189.751 86.1251L190.064 86.5001L190.126 86.6876L190.376 86.9376V87.0001L190.876 87.6251C191.521 88.5782 192.187 89.516 192.876 90.4376L193.064 90.6876L193.814 91.7501L193.939 91.9376L194.689 93.0001L195.939 94.9376C196.453 95.6148 196.953 96.3024 197.439 97.0001C198.569 98.5085 199.652 100.051 200.689 101.625L200.876 101.875L201.189 102.313L202.626 104.375L202.689 104.5L203.189 105.125C203.892 106.114 204.58 107.114 205.251 108.125L205.439 108.5L205.564 108.688L205.939 109.188L206.189 109.563L206.314 109.688L206.939 110.625C207.405 111.307 207.863 111.995 208.314 112.688L208.376 112.813L208.876 113.5L212.439 118.813C212.81 119.322 213.164 119.843 213.501 120.375L213.626 120.563C214.309 121.724 215.018 122.87 215.751 124L216.064 124.563C216.921 125.985 217.713 127.444 218.439 128.938L218.564 129.188L218.751 129.563L220.626 133.188L220.689 133.375V133.438L221.251 134.5V134.625C221.583 135.427 221.937 136.219 222.314 137L222.876 138.25C223.681 140.095 224.349 141.996 224.876 143.938C225.314 145.5 225.814 147 226.126 148.563L226.251 149.125L226.564 150.5L226.626 150.688C227.408 154.488 227.992 158.327 228.376 162.188L228.439 162.688L228.501 163.063C228.655 164.308 228.759 165.559 228.814 166.813V167.063L228.876 167.563L228.939 168.125V168.375L229.126 170.688L229.251 173.813V174.75L229.189 175.75V175.875L229.126 176.25V176.375L228.876 178.063V178.188C228.626 180.125 228.126 182.063 227.501 183.938L227.439 184.125C227.116 185.152 226.719 186.155 226.251 187.125C225.904 187.94 225.507 188.733 225.064 189.5L223.814 191.75L223.501 192.438L222.126 194.813L222.001 195C220.203 198.138 218.042 201.054 215.564 203.688C215.092 204.134 214.653 204.614 214.251 205.125L213.814 205.625L213.064 206.438L212.939 206.563C212.563 206.958 212.167 207.334 211.751 207.688L211.189 208.25L210.689 208.688L209.876 209.5L208.876 210.313C208.314 210.875 207.689 211.313 207.064 211.813L206.814 212L203.876 214.188L203.439 214.438C199.094 217.527 194.253 219.852 189.126 221.313L188.939 221.375C187.314 221.75 185.751 222 184.064 222.188L183.689 222.25C181.626 222.5 179.626 222.688 177.564 222.813L176.689 222.938L172.001 223.188H171.814L165.501 223.313H165.126C163.876 223.313 162.689 223.313 161.439 223.188H161.251L160.126 223.063H159.939L155.689 222.188L153.939 221.75L153.689 221.688L152.814 221.438C150.689 220.938 148.564 220.375 146.501 219.625L146.314 219.5C143.698 218.602 141.167 217.472 138.751 216.125C137.001 215.25 135.314 214.313 133.626 213.25L133.126 212.938C132.286 212.427 131.453 211.907 130.626 211.375L129.876 210.875L129.501 210.625C127.581 209.401 125.704 208.108 123.876 206.75L121.751 205.25C121.171 204.781 120.566 204.342 119.939 203.938L119.751 203.813C118.555 203.065 117.387 202.273 116.251 201.438C115.314 200.821 114.397 200.175 113.501 199.5L111.814 198.313L111.439 198.063L109.626 196.813L109.501 196.688C108.308 195.812 107.099 194.958 105.876 194.125L104.626 193.25L104.439 193.125C103.217 192.326 102.048 191.449 100.939 190.5C99.736 189.657 98.5879 188.738 97.5012 187.75C96.2452 186.809 95.0355 185.808 93.8762 184.75C92.8612 183.962 91.9006 183.106 91.0012 182.188L89.6887 181C88.9948 180.316 88.2646 179.669 87.5012 179.063L87.3137 178.875V178.75L87.1262 178.688L86.6262 178.188L85.8762 177.5L85.7512 177.375C85.3543 177.001 84.9787 176.604 84.6262 176.188L84.0012 175.438L83.3137 174.688L83.2512 174.625L82.7512 174.125L82.3762 173.625C81.8137 173.125 81.3137 172.563 80.8762 171.938C81.5012 171 81.5012 171 81.3137 168.688C81.2092 167.608 81.1883 166.521 81.2512 165.438L81.1887 163.938V163.75C81.1955 162.021 81.1747 160.291 81.1262 158.563V158.438C81.1262 157.063 81.1887 155.75 81.3137 154.438V154.125L81.3762 153.813V153.688C81.6262 151.125 81.7512 148.5 81.8137 145.938C81.8137 143.375 82.0637 140.875 82.4387 138.375L82.5012 138.188L82.9387 135.75V135.5L83.1262 134.688L83.1887 134.563L84.0012 130.625L84.0637 130.438C84.746 127.198 85.5592 123.987 86.5012 120.813L86.5637 120.563L87.1887 117.875V117.813L87.6262 116.125L87.6887 115.875C88.1887 114.063 88.7512 112.25 89.4387 110.5L89.5012 110.313L89.9387 109.25L90.0012 109.063C91.1124 106.22 92.3426 103.426 93.6887 100.688C94.5358 98.7999 95.4531 96.9444 96.4387 95.1251L96.9387 94.0626L98.1262 91.6251L98.5012 90.8751L98.5637 90.8126L99.1262 89.6876L99.1887 89.5626C99.9487 88.0874 100.741 86.6287 101.564 85.1876L101.814 84.6876L103.064 82.6251L103.564 81.7501L105.189 79.0001L105.751 78.1251L107.564 75.3751V75.3126L108.501 73.9376L110.251 71.3126L110.376 71.1876C111.411 69.7414 112.539 68.3635 113.751 67.0626H113.876L113.939 66.8751L114.126 66.6251L114.876 65.8751L115.314 65.3751L116.439 64.2501L116.501 64.1876C117.751 62.9376 118.939 61.6251 120.501 60.8126L120.626 60.7501C121.534 60.2997 122.502 59.9839 123.501 59.8126C124.709 59.5381 125.917 59.2672 127.126 59.0001H127.314C128.519 58.6959 129.727 58.4042 130.939 58.1251L131.126 58.0626L131.564 57.9376C136.204 56.7801 140.811 55.4879 145.376 54.0626L145.564 54.0001H145.689L146.626 53.6876L150.251 52.6876L150.376 52.6251L152.564 52.1251L152.689 52.0626C153.439 51.8751 154.189 51.7501 154.876 51.5001L155.064 51.4376ZM26.7512 132.25L25.3762 130.188L25.5637 130.438H25.6262L26.6262 131.688L26.7512 131.813L27.0637 132.125C27.2512 132.25 27.3137 132.25 27.5637 132.188C27.7512 132.125 27.9387 132 28.1887 132L28.3137 132.063V131.938C28.5012 131.875 28.5637 131.813 28.6262 131.688L28.6887 131.563C29.0012 131.563 29.1887 131.688 29.4387 131.813L29.5637 131.875L29.6887 132L29.8137 132.063C30.1439 132.276 30.4773 132.484 30.8137 132.688L31.5012 133.313C32.2369 133.882 32.9266 134.509 33.5637 135.188L33.6887 135.25C34.1188 135.675 34.5563 136.091 35.0012 136.5L35.3762 136.75L35.5012 136.938L35.6887 137.063L35.8137 137.188C36.4956 137.775 37.1625 138.379 37.8137 139L38.0012 139.188V139.313L38.1887 139.375L38.6887 139.875L39.3137 140.438L39.7512 140.875L40.0012 141.063V141.188L40.4387 141.5L40.6887 141.688L40.8137 141.813L41.1262 142.125L42.5637 143.438L42.6887 143.563C43.193 144.016 43.693 144.475 44.1887 144.938L44.8762 145.563L45.6262 146.25C46.3221 146.933 47.0522 147.579 47.8137 148.188L48.0012 148.375V148.5L48.3137 148.625L48.3762 148.75L49.0637 149.375L49.8137 150L50.0637 150.188C50.8101 150.882 51.5814 151.549 52.3762 152.188L53.0637 152.75C53.5396 153.214 54.0404 153.652 54.5637 154.063L55.2512 154.625C56.2937 155.406 57.2951 156.241 58.2512 157.125C58.7127 157.471 59.1511 157.847 59.5637 158.25C60.3417 158.839 61.073 159.486 61.7512 160.188L62.2512 160.688L63.1262 161.438L63.6887 162C64.0637 162.25 64.3762 162.625 64.6887 162.938L65.0637 163.313L66.0637 164.313L66.9387 165.25L67.8762 166.188L68.3762 166.75C68.7786 167.119 69.1545 167.516 69.5012 167.938C70.5637 169.125 71.5637 170.313 72.5012 171.625C73.1262 172.563 73.8137 173.5 74.6262 174.375L75.0012 174.813C75.4218 175.346 75.8814 175.847 76.3762 176.313L76.5012 176.438C77.5919 177.604 78.7841 178.67 80.0637 179.625V179.75L80.3762 179.875L80.6887 180.188C81.4871 180.778 82.2587 181.403 83.0012 182.063C83.5912 182.624 84.2176 183.146 84.8762 183.625C85.6121 184.312 86.384 184.958 87.1887 185.563C87.7945 186.014 88.3785 186.493 88.9387 187L89.1262 187.125L89.9387 187.813C90.7753 188.406 91.5884 189.031 92.3762 189.688C93.7742 190.882 95.2125 192.029 96.6887 193.125C97.6816 193.952 98.703 194.744 99.7512 195.5L101.314 196.688L101.439 196.813C103.111 198.071 104.82 199.28 106.564 200.438L109.189 202.313C111.133 203.539 112.991 204.897 114.751 206.375L114.814 206.438L115.564 207C116.251 207.625 117.001 208.125 117.751 208.688C120.299 210.553 122.76 212.534 125.126 214.625L124.939 214.75C124.751 214.938 124.501 215.188 124.189 215.188L124.064 215.125V215.25L123.501 215.188C123.189 215.313 123.001 215.438 122.814 215.688L123.626 216.375L122.751 216.063L122.564 216L122.001 215.75L121.564 215.563L120.376 215.063L120.064 214.938C117.689 213.938 115.376 212.875 113.126 211.688L113.001 211.563C110.82 210.436 108.73 209.141 106.751 207.688C104.336 206.1 102.02 204.367 99.8137 202.5L99.0012 201.813C98.4494 201.436 97.9271 201.018 97.4387 200.563C96.0877 199.505 94.7744 198.4 93.5012 197.25V197.125C93.0637 196.938 93.0637 196.938 92.6887 196.563L92.2512 196.125L91.6887 195.688L90.9387 194.938L90.5637 194.625C90.0887 194.179 89.5878 193.762 89.0637 193.375C88.0251 192.324 86.9186 191.343 85.7512 190.438C85.2386 189.946 84.6958 189.487 84.1262 189.063L83.5637 188.563L82.6887 187.75L81.6887 186.875C80.6435 186.053 79.6421 185.177 78.6887 184.25C77.9362 183.563 77.165 182.896 76.3762 182.25L76.2512 182.125L75.1887 181.188C74.7266 180.772 74.247 180.375 73.7512 180L72.7512 179.188C72.0937 178.707 71.4674 178.185 70.8762 177.625C70.2656 177.158 69.6814 176.657 69.1262 176.125L68.5012 175.563H68.4387C68.0927 175.241 67.7384 174.928 67.3762 174.625C66.3276 173.628 65.2436 172.669 64.1262 171.75L64.0637 171.688L63.4387 171.125L62.2512 170.125L60.5637 168.688L60.4387 168.563L60.2512 168.375C59.8933 168.043 59.5178 167.73 59.1262 167.438L59.0637 167.25L58.8762 167.188L58.3137 166.688L57.6887 166.125L56.8762 165.375C56.0264 164.689 55.2128 163.958 54.4387 163.188L54.2512 163V162.875H54.1262L54.0637 162.688L53.8137 162.563L53.5637 162.375C52.9866 161.87 52.4438 161.327 51.9387 160.75L51.3762 160.188L50.9387 159.75L50.7512 159.563L50.6262 159.5L49.7512 158.5L49.4387 158.188C49.0319 157.823 48.6556 157.426 48.3137 157L47.8762 156.5L47.3762 156L47.0637 155.625L47.0012 155.5L46.8137 155.438L46.6887 155.313L46.6262 155.188C46.0263 154.419 45.3793 153.688 44.6887 153L44.0637 152.375C43.6807 151.926 43.2847 151.488 42.8762 151.063L42.8137 151C42.5295 150.641 42.2159 150.307 41.8762 150L41.0012 149.063L40.8762 148.938L40.3762 148.375L40.0012 148L39.8762 147.813C39.5321 147.469 39.1986 147.114 38.8762 146.75L37.1887 144.938L36.5012 144.25L36.3762 144.125L35.8137 143.5L35.6887 143.375L35.4387 143.125L35.3137 143L35.2512 142.875L35.0012 142.563L34.9387 142.438L34.7512 142.375L34.6262 142.25L34.5637 142.125L33.8762 141.375L33.8137 141.313L33.5637 141.063L33.4387 140.938L33.3762 140.813L33.1262 140.5L33.0637 140.375H32.9387L32.7512 140.125L32.6262 140L32.5637 139.875L32.4387 139.75L31.9387 139.188C30.0322 137.013 28.2978 134.694 26.7512 132.25Z" fill="#607090"/>
</svg>
