<svg width="241" height="164" viewBox="0 0 241 164" fill="none" xmlns="http://www.w3.org/2000/svg">
<g clip-path="url(#clip0_2466_6544)">
<path d="M100.565 0.562509C100.641 0.567459 100.717 0.572409 100.796 0.577508C100.879 0.5841 100.963 0.590739 101.047 0.597421C101.135 0.603742 101.223 0.610012 101.312 0.616235C102.306 0.688709 103.298 0.790569 104.29 0.89148C104.691 0.932047 105.093 0.967841 105.495 1.00245C105.914 1.03932 106.332 1.08068 106.75 1.12476C106.799 1.12998 106.849 1.13519 106.9 1.14056C109.066 1.372 111.184 1.7935 113.312 2.24976C113.435 2.27608 113.558 2.30238 113.681 2.32868C113.738 2.3408 113.795 2.35291 113.853 2.36539C114.112 2.42071 114.37 2.47595 114.629 2.53101C114.677 2.54119 114.724 2.55137 114.774 2.56186C115.775 2.77445 116.779 2.93242 117.794 3.06129C117.836 3.0666 117.878 3.07191 117.921 3.07737C118.121 3.10284 118.322 3.12777 118.523 3.15168C119.685 3.29445 120.823 3.53371 121.958 3.81503C122.152 3.86293 122.346 3.90997 122.54 3.95692C123.234 4.12666 123.918 4.31586 124.6 4.52827C125.203 4.71451 125.812 4.86735 126.426 5.01148C126.51 5.0315 126.51 5.0315 126.597 5.05192C127.518 5.26915 128.435 5.45041 129.375 5.56226C129.425 5.56865 129.476 5.57503 129.528 5.58161C130.037 5.64513 130.544 5.68543 131.057 5.70484C133.25 5.79388 135.42 6.13863 137.589 6.46545C139.734 6.78864 141.88 7.00067 144.046 7.12348C145.319 7.19581 146.583 7.29515 147.844 7.49195C149.695 7.78057 151.568 7.92802 153.433 8.1008C155.917 8.33102 158.39 8.56954 160.851 8.98533C161.171 9.03935 161.492 9.0901 161.813 9.1377C162.822 9.28978 163.797 9.51843 164.784 9.77076C166.609 10.2375 168.448 10.5018 170.316 10.7219C170.389 10.7304 170.461 10.7389 170.535 10.7477C170.609 10.7564 170.682 10.7651 170.758 10.774C170.91 10.792 171.063 10.8099 171.215 10.8279C171.291 10.8369 171.367 10.8459 171.446 10.8551C173.073 11.0478 174.691 11.2873 176.31 11.5316C176.89 11.6185 177.47 11.6979 178.051 11.7732C179.146 11.9158 180.238 12.0861 181.33 12.254C181.58 12.2924 181.831 12.3308 182.081 12.3692C182.13 12.3767 182.179 12.3842 182.229 12.3919C182.654 12.457 183.079 12.5221 183.504 12.5871C183.657 12.6105 183.81 12.6339 183.962 12.6573C185.659 12.9173 187.36 13.1166 189.067 13.2937C189.136 13.3009 189.205 13.3081 189.277 13.3155C189.594 13.348 189.91 13.3784 190.228 13.4022C191.871 13.5273 193.473 13.9388 195.076 14.3044C195.282 14.3514 195.489 14.398 195.695 14.4446C197.489 14.8497 197.489 14.8497 198.303 15.0684C199.148 15.2953 200.003 15.4754 200.858 15.6593C201.202 15.7333 201.546 15.8078 201.89 15.8823C201.974 15.9007 202.059 15.9191 202.144 15.9374C202.712 16.0604 203.279 16.1881 203.844 16.3203C204.539 16.4823 205.236 16.6296 205.935 16.7701C206.132 16.8098 206.329 16.8499 206.527 16.89C207.066 16.9997 207.606 17.109 208.146 17.215C209.848 17.5494 211.503 17.9842 213.145 18.5464C213.663 18.7232 214.187 18.8825 214.71 19.0428C215.128 19.1713 215.543 19.3056 215.956 19.4479C216.524 19.6437 217.089 19.8078 217.676 19.9412C219.725 20.4099 221.219 21.4834 222.58 23.0664C222.685 23.1844 222.794 23.2955 222.906 23.406C223.09 23.5868 223.259 23.7758 223.427 23.9712C223.539 24.0986 223.654 24.2229 223.771 24.3467C223.826 24.4057 223.826 24.4057 223.883 24.4658C223.958 24.5451 224.033 24.6242 224.108 24.703C224.375 24.986 224.375 24.986 224.375 25.1248C224.437 25.1248 224.499 25.1248 224.562 25.1248C224.597 25.1887 224.631 25.2525 224.666 25.3184C224.804 25.5599 224.971 25.7584 225.156 25.9646C225.468 26.319 225.755 26.6854 226.036 27.0646C226.238 27.3384 226.445 27.608 226.656 27.8748C226.898 28.1792 227.132 28.4883 227.363 28.8005C227.735 29.3002 228.129 29.7792 228.527 30.2571C228.613 30.3609 228.699 30.4653 228.783 30.5703C229.064 30.9187 229.358 31.2512 229.661 31.5803C229.851 31.7923 230.027 32.013 230.201 32.2378C230.314 32.3764 230.436 32.4986 230.562 32.6248C230.962 33.0916 231.338 33.5794 231.716 34.0639C231.818 34.1948 231.921 34.3253 232.024 34.4558C232.483 35.039 232.922 35.6324 233.345 36.2419C233.767 36.8495 234.193 37.4509 234.648 38.0342C234.846 38.2912 235.034 38.556 235.223 38.8201C235.65 39.4161 236.105 39.9748 236.598 40.5183C238.039 42.1187 239.101 43.4487 239 45.6873C238.908 46.9274 238.252 48.0247 237.655 49.0848C237.525 49.3162 237.399 49.5492 237.272 49.7821C236.885 50.4915 236.464 51.1739 236.029 51.8549C235.918 52.0298 235.809 52.2057 235.7 52.3819C234.975 53.5525 234.201 54.6949 233.355 55.7817C233.036 56.1937 232.73 56.6158 232.423 57.0363C232.351 57.134 232.28 57.2317 232.208 57.3292C230.541 59.5979 229.276 62.0272 228.047 64.5505C228.024 64.5979 228.001 64.6452 227.977 64.6939C227.65 65.3661 227.337 66.0422 227.038 66.7269C225.957 69.1855 224.802 71.6138 223.25 73.8123C223.183 73.9072 223.117 74.0022 223.05 74.0972C222.898 74.3144 222.744 74.5309 222.59 74.7473C222.498 74.8769 222.407 75.0069 222.315 75.137C221.801 75.8687 221.801 75.8687 221.564 76.1926C221.09 76.842 220.635 77.5036 220.185 78.1701C219.904 78.5867 219.62 79.0007 219.328 79.4099C219.104 79.7243 218.888 80.041 218.684 80.3689C218.586 80.5251 218.486 80.6796 218.384 80.8337C217.876 81.604 217.398 82.3883 216.938 83.1873C216.911 83.233 216.885 83.2788 216.857 83.3259C216.693 83.6113 216.533 83.8985 216.375 84.1873C216.34 84.2514 216.34 84.2514 216.304 84.3169C215.968 84.9305 215.665 85.5547 215.375 86.1912C214.638 87.8013 213.779 89.3535 212.875 90.8748C212.829 90.9529 212.829 90.9529 212.781 91.0327C212.428 91.6235 212.059 92.2027 211.682 92.7785C211.447 93.1377 211.216 93.4995 210.988 93.863C210.506 94.6297 210 95.3774 209.479 96.1182C209.18 96.5445 208.886 96.9747 208.594 97.406C208.167 98.0362 207.733 98.6616 207.295 99.2841C206.999 99.7058 206.703 100.128 206.408 100.551C206.324 100.67 206.241 100.79 206.157 100.909C205.84 101.363 205.537 101.824 205.238 102.29C205.126 102.464 205.013 102.637 204.899 102.809C203.723 104.582 202.806 106.486 201.868 108.391C201.809 108.511 201.749 108.632 201.689 108.752C201.658 108.815 201.627 108.879 201.594 108.944C201.415 109.287 201.209 109.612 201 109.937C200.962 109.997 200.923 110.058 200.884 110.12C200.531 110.661 200.142 111.174 199.75 111.687C199.723 111.723 199.695 111.759 199.667 111.796C199.403 112.144 199.134 112.489 198.859 112.83C198.426 113.365 198.017 113.916 197.612 114.472C197.465 114.673 197.317 114.873 197.168 115.074C196.158 116.442 195.188 117.831 194.25 119.25C194.191 119.338 194.191 119.338 194.132 119.428C193.623 120.198 193.132 120.974 192.662 121.768C192.129 122.67 191.594 123.57 191.016 124.444C190.938 124.561 190.862 124.678 190.785 124.796C190.408 125.37 190.009 125.926 189.604 126.481C189.502 126.623 189.4 126.765 189.298 126.907C188.957 127.384 188.609 127.855 188.246 128.316C187.832 128.843 187.443 129.385 187.062 129.937C187.03 129.984 186.998 130.032 186.964 130.08C186.654 130.531 186.346 130.982 186.04 131.435C185.675 131.975 185.304 132.503 184.899 133.014C184.799 133.142 184.7 133.27 184.601 133.398C184.227 133.883 183.85 134.362 183.455 134.83C183.316 134.996 183.179 135.164 183.043 135.332C182.781 135.653 182.51 135.965 182.238 136.277C182.031 136.514 181.83 136.755 181.633 137C181.45 137.226 181.26 137.431 181.051 137.633C180.91 137.778 180.786 137.932 180.66 138.09C180.451 138.349 180.233 138.586 179.995 138.818C179.742 139.07 179.511 139.342 179.293 139.625C179.258 139.666 179.223 139.707 179.188 139.75C179.146 139.75 179.105 139.75 179.062 139.75C179.04 139.802 179.04 139.802 179.018 139.855C178.918 140.035 178.793 140.166 178.652 140.316C178.39 140.599 178.143 140.891 177.9 141.192C177.733 141.395 177.562 141.594 177.391 141.793C176.769 142.513 176.176 143.257 175.592 144.007C175.493 144.133 175.394 144.259 175.296 144.386C174.788 145.035 174.291 145.692 173.798 146.352C173.694 146.491 173.59 146.628 173.486 146.766C173.022 147.378 172.585 148.004 172.155 148.64C168.921 153.419 168.921 153.419 166.145 153.984C165.671 154.02 165.254 154.013 164.801 153.867C164.75 153.851 164.699 153.836 164.647 153.819C163.774 153.541 162.914 153.217 162.053 152.904C161.672 152.766 161.29 152.634 160.906 152.504C159.951 152.176 159.012 151.804 158.072 151.437C157.859 151.355 157.646 151.272 157.433 151.19C151.483 148.901 151.483 148.901 150.5 146.75C150.246 146.156 150.034 145.552 149.837 144.937C149.243 143.093 148.534 141.284 147.757 139.51C147.604 139.161 147.456 138.81 147.31 138.459C147.288 138.406 147.266 138.353 147.243 138.299C147.155 138.089 147.067 137.878 146.98 137.668C146.718 137.036 146.44 136.42 146.125 135.812C146.098 135.759 146.07 135.706 146.042 135.651C145.973 135.517 145.903 135.383 145.832 135.25C145.798 135.184 145.798 135.184 145.763 135.118C145.487 134.549 145.487 134.549 145 134.187C144.54 134.194 144.18 134.381 143.772 134.58C143.576 134.676 143.379 134.768 143.182 134.861C143.143 134.879 143.105 134.897 143.065 134.916C142.681 135.096 142.295 135.254 141.892 135.389C141.787 135.425 141.682 135.461 141.577 135.499C140.67 135.819 139.766 136.065 138.824 136.258C138.773 136.268 138.722 136.278 138.67 136.289C138.28 136.369 137.889 136.447 137.498 136.525C135.158 136.991 132.884 137.781 130.634 138.565C129.867 138.829 129.096 139.048 128.31 139.246C126.923 139.596 125.557 140.02 124.188 140.432C123.316 140.694 122.441 140.946 121.562 141.187C119.728 141.69 119.728 141.69 117.908 142.243C117.752 142.292 117.595 142.341 117.438 142.389C115.792 142.891 114.208 143.514 112.625 144.187C112.566 144.212 112.508 144.237 112.448 144.263C112.27 144.338 112.092 144.414 111.915 144.49C111.861 144.513 111.807 144.536 111.752 144.559C111.453 144.687 111.157 144.821 110.863 144.961C110.366 145.196 109.859 145.408 109.352 145.62C108.945 145.79 108.544 145.969 108.144 146.155C107.72 146.349 107.288 146.527 106.858 146.708C106.334 146.929 105.827 147.176 105.32 147.433C104.104 148.046 102.877 148.649 101.625 149.187C101.548 149.221 101.548 149.221 101.47 149.255C100.166 149.825 98.818 150.238 97.4286 150.544C96.188 150.821 94.9798 151.231 93.7734 151.629C93.7281 151.644 93.6828 151.658 93.6362 151.674C93.109 151.847 92.5915 152.035 92.0776 152.245C91.4869 152.486 90.8877 152.692 90.2823 152.892C89.1798 153.257 88.1005 153.658 87.0298 154.108C86.6202 154.279 86.2067 154.44 85.793 154.601C85.3067 154.791 84.8219 154.984 84.3392 155.182C83.6311 155.473 82.9207 155.759 82.2075 156.038C82.1093 156.076 82.0112 156.115 81.9133 156.154C80.3018 156.795 78.6222 157.233 76.9405 157.646C75.3826 158.028 73.8413 158.438 72.3216 158.954C72.0828 159.035 71.8436 159.115 71.6045 159.195C71.5066 159.228 71.4087 159.26 71.3108 159.293C70.8937 159.433 70.4764 159.572 70.0587 159.71C69.9471 159.747 69.8356 159.784 69.7241 159.821C68.6952 160.161 67.6524 160.38 66.5919 160.594C65.5035 160.814 64.4378 161.082 63.3691 161.381C62.5322 161.614 61.6871 161.817 60.8434 162.025C60.5791 162.089 60.3153 162.156 60.052 162.225C58.6645 162.582 57.2427 162.73 55.8125 162.75C55.7453 162.751 55.6781 162.752 55.6089 162.754C52.2396 162.813 49.3832 162.202 46.3552 160.727C45.1817 160.158 43.9792 159.65 42.7563 159.197C40.3425 158.3 40.3425 158.3 39.1875 157.75C39.0964 157.707 39.0964 157.707 39.0034 157.663C37.8659 157.128 36.752 156.559 35.6592 155.938C35.4774 155.834 35.2939 155.735 35.1094 155.636C34.1627 155.119 33.2739 154.557 32.4375 153.875C32.3974 153.842 32.3572 153.81 32.3159 153.776C31.1266 152.804 30.327 151.631 29.5625 150.312C29.5131 150.228 29.4637 150.145 29.4143 150.061C29.0025 149.354 28.6563 148.616 28.3125 147.875C28.2856 147.817 28.2856 147.817 28.2581 147.758C27.7204 146.6 27.2056 145.438 26.7372 144.25C26.6831 144.114 26.6286 143.977 26.574 143.841C26.0601 142.555 25.5751 141.264 25.1335 139.952C25.117 139.903 25.1005 139.854 25.0835 139.803C25.0669 139.754 25.0503 139.704 25.0331 139.653C24.8227 139.03 24.6033 138.409 24.3828 137.789C24.3618 137.73 24.3409 137.671 24.3193 137.61C23.9805 136.659 23.6303 135.712 23.2731 134.767C23.0427 134.157 22.8174 133.546 22.5969 132.933C22.1958 131.817 21.7584 130.718 21.3079 129.622C20.1713 126.842 19.2432 123.963 18.3705 121.092C17.7218 118.961 16.9774 116.863 16.2213 114.768C15.8642 113.779 15.5086 112.789 15.1602 111.797C14.4785 109.857 13.7579 107.932 13.0141 106.016C12.314 104.209 11.6643 102.387 11.0442 100.552C10.8116 99.8634 10.5762 99.1763 10.332 98.492C10.3051 98.4163 10.2782 98.3407 10.2505 98.2627C10.136 97.9411 10.021 97.6196 9.90417 97.2987C9.40321 95.9225 8.96801 94.5383 8.57765 93.1267C8.46903 92.7348 8.3563 92.3442 8.24146 91.9541C7.92776 90.8851 7.63735 89.8203 7.40874 88.7298C7.22482 87.8577 6.97644 87.0116 6.71387 86.1604C6.52188 85.5371 6.34478 84.914 6.1875 84.281C6.00141 83.534 5.78706 82.7985 5.5625 82.0623C5.33972 81.331 5.12472 80.6004 4.9375 79.8591C4.51403 78.1832 4.07163 76.5132 3.54297 74.867C2.7687 72.452 2.26765 70.0027 1.875 67.4998C1.87573 67.5408 1.87645 67.5818 1.8772 67.6241C1.8802 67.9164 1.87797 68.1899 1.8125 68.4763C1.8009 68.5287 1.7893 68.5811 1.77734 68.635C1.76832 68.6729 1.7593 68.7107 1.75 68.7498C1.70875 68.7498 1.6675 68.7498 1.625 68.7498C1.61984 68.7884 1.61469 68.8271 1.60938 68.867C1.5625 68.9998 1.5625 68.9998 1.43359 69.0779C1.37365 69.1011 1.37365 69.1011 1.3125 69.1248C1.3125 69.1454 1.3125 69.166 1.3125 69.1873C1.16813 69.1873 1.02375 69.1873 0.875 69.1873C0.875 67.991 0.875 66.7948 0.875 65.5623C1.46875 65.5623 1.46875 65.5623 1.75 65.6248C1.76821 65.5553 1.78642 65.4859 1.80518 65.4143C2.03916 64.5522 2.36814 63.9561 3 63.3123C3.03698 63.2738 3.07396 63.2352 3.11206 63.1956C4.19232 62.1606 5.91553 61.6556 7.31641 61.2498C9.81715 60.52 12.2089 59.2816 14.5469 58.1482C15.1606 57.8508 15.7817 57.5765 16.4111 57.3141C16.5552 57.2529 16.6976 57.189 16.8398 57.1238C17.4749 56.8371 18.1219 56.6333 18.7922 56.4454C19.4407 56.2635 20.0789 56.0615 20.7148 55.8396C20.7568 55.825 20.7987 55.8104 20.8419 55.7954C21.0075 55.7376 21.173 55.6798 21.3384 55.6218C21.9523 55.4067 22.5684 55.199 23.1875 54.9998C23.244 54.9814 23.3005 54.9631 23.3587 54.9442C24.948 54.4351 26.593 54.1225 28.2422 53.8826C29.5942 53.6849 30.9253 53.4049 32.2601 53.1145C32.4754 53.0676 32.6908 53.0209 32.9061 52.9742C33.5547 52.8335 34.2032 52.6922 34.8516 52.5505C34.8999 52.54 34.9482 52.5294 34.998 52.5186C37.5378 51.9689 37.5378 51.9689 40.0586 51.3396C40.1054 51.3271 40.1521 51.3146 40.2003 51.3017C41.3393 50.9938 42.442 50.5905 43.5463 50.1775C43.7694 50.0942 43.9927 50.0117 44.2161 49.9292C44.2574 49.914 44.2987 49.8987 44.3413 49.883C45.8538 49.3252 47.316 48.9185 48.9038 48.6235C50.7397 48.2794 52.4662 47.6024 54.1861 46.8902C56.3057 46.0158 58.4344 45.2729 60.6572 44.7003C61.2821 44.5391 61.9029 44.3648 62.5236 44.1885C62.7286 44.1308 62.9338 44.074 63.1391 44.0176C64.2481 43.7125 65.3288 43.374 66.4027 42.9594C66.7818 42.8151 67.1635 42.6782 67.545 42.5406C68.1102 42.3366 68.6747 42.1318 69.2346 41.9136C69.8373 41.6789 70.443 41.4789 71.0653 41.3027C71.271 41.2438 71.4759 41.1825 71.6809 41.1213C73.364 40.6258 75.0785 40.251 76.8086 39.9607C76.8803 39.9486 76.952 39.9366 77.0259 39.9241C77.0978 39.912 77.1696 39.8999 77.2437 39.8875C77.3916 39.8625 77.5396 39.8374 77.6875 39.8123C77.7656 39.799 77.8437 39.7858 77.9241 39.7721C79.1524 39.5584 80.3454 39.2566 81.543 38.9099C81.6444 38.8806 81.6444 38.8806 81.7479 38.8507C82.905 38.5146 84.0471 38.1389 85.1848 37.7424C86.8297 37.1715 88.5452 36.837 90.25 36.4998C90.5716 36.436 90.8932 36.3723 91.2148 36.3084C91.292 36.293 91.3691 36.2777 91.4486 36.2619C92.1613 36.1193 92.8704 35.9622 93.5793 35.802C93.8353 35.7447 94.0916 35.6885 94.3479 35.6326C95.5496 35.3698 96.7452 35.0894 97.9363 34.7822C98.0644 34.7493 98.1925 34.7167 98.3206 34.6842C99.8873 34.286 101.429 33.8206 102.961 33.3045C105.908 32.3123 105.908 32.3123 106.812 32.3123C106.812 32.2298 106.812 32.1473 106.812 32.0623C106.756 32.0352 106.756 32.0352 106.699 32.0076C106.562 31.9373 106.562 31.9373 106.375 31.8123C106.488 31.6873 106.488 31.6873 106.625 31.5623C106.687 31.5623 106.749 31.5623 106.812 31.5623C106.888 31.6545 106.964 31.747 107.037 31.8413C107.168 31.9843 107.323 32.0508 107.5 32.1248C107.47 32.1041 107.441 32.0835 107.41 32.0623C107.287 31.905 107.292 31.7728 107.27 31.5792C107.235 31.3352 107.161 31.1043 107.088 30.8694C107.071 30.8148 107.054 30.7602 107.037 30.7039C106.982 30.5238 106.927 30.3438 106.871 30.1638C106.832 30.0363 106.793 29.9088 106.754 29.7813C106.484 28.9012 106.203 28.0246 105.92 27.1486C105.368 25.4378 104.892 23.7284 104.487 21.9771C103.948 19.6505 103.231 17.4219 102.264 15.2364C102.179 15.0433 102.096 14.8495 102.014 14.6555C101.623 13.7392 101.214 12.8325 100.793 11.9295C99.111 8.31592 99.111 8.31592 98.625 6.81226C98.6055 6.75422 98.586 6.69617 98.5659 6.63636C98.1545 5.39474 98.0362 4.19817 98.625 2.99976C98.6525 2.94163 98.68 2.88349 98.7083 2.82359C99.8041 0.508999 99.8041 0.508999 100.565 0.562509ZM116.062 16.1873C116.139 16.678 116.231 17.1615 116.348 17.6443C116.364 17.7104 116.379 17.7766 116.396 17.8447C116.582 18.5998 116.803 19.3443 117.023 20.0898C117.129 20.4508 117.231 20.8129 117.332 21.1755C117.512 21.8223 117.696 22.4679 117.881 23.1133C118.01 23.5646 118.139 24.016 118.268 24.4674C118.297 24.5691 118.326 24.6709 118.355 24.7726C118.85 26.5043 118.85 26.5043 119.059 27.3591C119.524 29.2633 120.018 31.2168 120.762 33.0322C120.899 33.3657 121.023 33.7037 121.149 34.0411C121.215 34.2179 121.281 34.3946 121.348 34.5711C122.372 37.2707 123.181 39.9345 123.653 42.7846C123.812 43.7369 123.998 44.6692 124.254 45.6007C124.32 45.8405 124.384 46.0808 124.447 46.3213C124.533 46.6484 124.619 46.9753 124.706 47.302C124.733 47.4002 124.733 47.4002 124.759 47.5003C124.796 47.6309 124.837 47.7604 124.881 47.8888C124.948 48.0945 124.964 48.1767 124.875 48.3748C124.729 48.5021 124.566 48.5951 124.398 48.6912C124.349 48.7205 124.299 48.7498 124.248 48.78C123.356 49.2998 122.433 49.7647 121.496 50.197C121.298 50.2887 121.104 50.3862 120.91 50.4864C118.709 51.6189 116.32 52.4923 113.966 53.245C113.653 53.3452 113.341 53.4487 113.03 53.5537C111.985 53.9043 110.936 54.1999 109.865 54.4588C109.819 54.47 109.773 54.4812 109.725 54.4927C109.679 54.5038 109.633 54.5148 109.586 54.5262C109.15 54.6324 108.717 54.7524 108.285 54.8748C107.499 55.0963 106.708 55.2916 105.913 55.4797C104.589 55.7946 103.283 56.1764 101.977 56.5584C101.83 56.6011 101.683 56.6439 101.537 56.6867C101.248 56.7709 100.959 56.8553 100.67 56.9398C100.395 57.02 100.12 57.0999 99.8455 57.1795C99.1223 57.3892 98.4014 57.6043 97.6836 57.8318C97.5894 57.8615 97.4953 57.8912 97.4012 57.9208C96.8914 58.0818 96.3826 58.2453 95.8743 58.4107C94.7987 58.7606 93.7177 59.0923 92.6353 59.4207C91.8476 59.6601 91.8476 59.6601 91.0652 59.9163C90.6301 60.0635 90.1905 60.1878 89.7479 60.3101C88.6806 60.606 87.63 60.9446 86.5822 61.3032C86.359 61.3795 86.1355 61.4545 85.9111 61.5272C85.2894 61.729 84.683 61.956 84.0789 62.2054C83.9283 62.2676 83.7774 62.3292 83.6265 62.3907C83.2615 62.5397 82.8967 62.6891 82.5323 62.8398C80.9364 63.4997 79.3003 64.0801 77.6449 64.5731C77.2152 64.7016 76.7895 64.8389 76.3647 64.9827C75.5719 65.2489 74.7749 65.5006 73.9766 65.7498C73.8348 65.7941 73.6931 65.8384 73.5514 65.8827C73.216 65.9876 72.8805 66.0922 72.545 66.1968C72.3984 66.2425 72.2519 66.2882 72.1054 66.3339C71.2366 66.6049 70.3649 66.8652 69.4915 67.1207C68.9752 67.2717 68.4593 67.4239 67.9438 67.5776C66.7073 67.9462 65.4705 68.3049 64.2214 68.629C63.989 68.6901 63.7574 68.7536 63.5259 68.8176C62.3395 69.1443 61.1556 69.4126 59.9356 69.5782C57.9295 69.8528 55.9524 70.3246 54.0097 70.8895C53.5581 71.0204 53.1034 71.1388 52.6484 71.2576C52.0799 71.407 51.5175 71.5685 50.957 71.7459C49.7183 72.1363 48.4544 72.4492 47.1875 72.7341C44.8207 73.2672 42.4424 73.8585 40.1445 74.6404C39.0313 75.0186 37.9255 75.2554 36.7688 75.4529C36.1178 75.5645 35.4743 75.6927 34.832 75.8474C34.7617 75.8642 34.6914 75.881 34.6189 75.8983C33.8566 76.0872 33.1212 76.3515 32.3834 76.6181C31.6639 76.8778 30.943 77.1246 30.2109 77.3474C27.1128 78.1611 27.1128 78.1611 24.4375 79.8123C23.8732 83.0057 24.9833 86.9217 25.7571 90.0361C25.7679 90.0796 25.7787 90.1231 25.7898 90.1679C25.8005 90.2111 25.8113 90.2544 25.8223 90.2989C25.8438 90.3854 25.8653 90.4719 25.8867 90.5584C25.9026 90.6221 25.9026 90.6221 25.9187 90.6872C26.0846 91.3583 26.2145 92.0305 26.3258 92.7131C26.421 93.2938 26.538 93.8674 26.6647 94.442C26.7526 94.8418 26.8366 95.242 26.9138 95.6441C27.3791 98.0609 28.0235 100.429 28.8199 102.758C29.0253 103.367 29.2025 103.983 29.3752 104.602C29.7151 105.821 30.1028 107.016 30.5211 108.21C30.6495 108.577 30.7756 108.944 30.9001 109.312C31.985 112.547 31.985 112.547 33.2237 115.724C33.4038 116.157 33.5764 116.592 33.75 117.027C33.7876 117.121 33.8251 117.215 33.8627 117.309C34.0917 117.882 34.3181 118.456 34.543 119.031C34.8472 119.808 35.1609 120.582 35.4774 121.354C35.5613 121.559 35.6447 121.765 35.7278 121.971C36.394 123.618 37.091 125.251 37.8125 126.875C37.8705 127.006 37.9285 127.136 37.9866 127.267C38.217 127.786 38.4479 128.305 38.679 128.824C39.5721 130.829 40.4527 132.839 41.3135 134.858C42.1576 136.837 43.0173 138.809 43.9196 140.763C44.0022 140.942 44.0843 141.121 44.1663 141.301C44.4305 141.879 44.696 142.456 44.9646 143.032C45.3482 143.855 45.7243 144.68 46.0977 145.508C46.5114 146.424 46.9282 147.339 47.3516 148.251C47.4407 148.444 47.5288 148.637 47.6167 148.831C48.2286 150.174 48.8749 151.499 49.5898 152.791C49.8952 153.344 50.1842 153.905 50.4733 154.467C50.5128 154.544 50.5524 154.621 50.592 154.698C50.6112 154.735 50.6305 154.772 50.6502 154.811C50.8075 155.116 50.9678 155.419 51.1289 155.722C51.8215 157.031 52.4662 158.365 53.0963 159.704C53.1953 159.915 53.2949 160.125 53.3945 160.336C53.4245 160.4 53.4545 160.464 53.4854 160.53C53.7581 161.205 53.7581 161.205 54.254 161.674C54.4117 161.691 54.4755 161.648 54.6094 161.566C54.8817 161.419 55.0678 161.4 55.375 161.437C55.4163 161.499 55.4575 161.561 55.5 161.625C56.0929 161.703 56.6977 161.644 57.2791 161.514C57.3386 161.501 57.3982 161.488 57.4595 161.475C58.718 161.185 59.9563 160.8 61.1966 160.443C62.6345 160.028 64.0706 159.646 65.5358 159.34C65.584 159.33 65.6321 159.32 65.6817 159.31C65.729 159.3 65.7762 159.29 65.8248 159.28C67.0209 159.026 68.1992 158.682 69.3711 158.336C69.4424 158.315 69.5137 158.294 69.5872 158.272C70.006 158.146 70.4162 158.003 70.8257 157.849C71.4126 157.63 72.0059 157.439 72.6055 157.258C72.6575 157.242 72.7095 157.226 72.7631 157.209C74.2314 156.761 75.7064 156.347 77.1977 155.981C77.68 155.862 78.1607 155.736 78.6408 155.608C78.7524 155.578 78.864 155.549 78.9756 155.519C80.5318 155.108 82.0149 154.488 83.5 153.875C85.4256 153.081 87.357 152.305 89.3318 151.641C89.7247 151.507 90.1155 151.367 90.5065 151.228C91.2193 150.975 91.9332 150.728 92.652 150.492C93.0983 150.344 93.5393 150.185 93.9805 150.023C94.8693 149.699 95.7656 149.441 96.6875 149.23C98.7559 148.755 100.71 147.979 102.613 147.056C103.079 146.83 103.549 146.613 104.023 146.403C104.469 146.204 104.908 145.991 105.348 145.777C105.884 145.516 106.422 145.268 106.973 145.042C107.261 144.923 107.543 144.798 107.824 144.664C108.213 144.478 108.609 144.312 109.008 144.148C109.578 143.914 110.141 143.668 110.703 143.414C113.469 142.167 116.269 141.134 119.188 140.312C119.369 140.261 119.55 140.21 119.731 140.158C119.83 140.13 119.929 140.102 120.028 140.075C120.368 139.979 120.705 139.873 121.042 139.766C121.732 139.547 122.424 139.339 123.117 139.133C123.181 139.114 123.245 139.094 123.311 139.075C124.291 138.783 125.272 138.502 126.259 138.235C127.589 137.877 128.905 137.473 130.221 137.067C130.44 136.999 130.659 136.932 130.878 136.865C131.028 136.819 131.178 136.773 131.328 136.726C131.403 136.703 131.478 136.68 131.556 136.656C131.948 136.534 132.338 136.409 132.727 136.276C133.704 135.942 134.678 135.657 135.688 135.437C138.244 134.88 140.72 134.236 143.129 133.203C143.454 133.064 143.782 132.934 144.11 132.805C144.29 132.734 144.469 132.662 144.649 132.59C146.285 131.937 147.911 131.458 149.625 131.062C149.678 131.05 149.73 131.038 149.785 131.025C151.165 130.707 152.548 130.404 153.938 130.125C153.992 130.113 154.047 130.102 154.104 130.09C154.649 129.986 155.152 130.036 155.624 130.326C157.282 131.483 158.047 133.869 158.768 135.672C159.762 138.15 160.926 140.549 162.124 142.934C162.468 143.621 162.808 144.309 163.145 145C163.171 145.053 163.197 145.106 163.223 145.161C163.53 145.79 163.833 146.421 164.121 147.058C164.788 148.531 165.495 149.918 166.5 151.187C166.548 151.249 166.596 151.31 166.646 151.373C166.818 151.581 166.944 151.725 167.191 151.836C167.449 151.803 167.63 151.683 167.812 151.5C167.812 151.459 167.812 151.417 167.812 151.375C167.854 151.375 167.895 151.375 167.938 151.375C167.938 151.334 167.938 151.292 167.938 151.25C167.999 151.229 168.061 151.209 168.125 151.187C168.125 151.146 168.125 151.105 168.125 151.062C168.166 151.062 168.207 151.062 168.25 151.062C168.25 151.021 168.25 150.98 168.25 150.937C168.312 150.917 168.374 150.896 168.438 150.875C168.541 150.776 168.541 150.776 168.641 150.653C168.679 150.608 168.718 150.563 168.757 150.516C168.815 150.446 168.815 150.446 168.875 150.375C168.911 150.332 168.947 150.289 168.984 150.245C169.378 149.777 169.764 149.307 170.118 148.808C170.29 148.57 170.469 148.338 170.648 148.105C170.929 147.741 171.202 147.372 171.467 146.997C171.877 146.418 172.31 145.858 172.749 145.301C172.956 145.039 173.162 144.775 173.367 144.511C173.404 144.464 173.441 144.417 173.479 144.368C173.695 144.09 173.909 143.811 174.122 143.531C174.454 143.093 174.794 142.663 175.142 142.238C175.356 141.975 175.568 141.712 175.777 141.445C175.819 141.393 175.819 141.393 175.861 141.339C176.02 141.135 176.178 140.931 176.336 140.726C176.939 139.944 177.567 139.194 178.235 138.466C178.362 138.327 178.486 138.186 178.609 138.043C178.743 137.888 178.881 137.743 179.027 137.601C179.202 137.461 179.202 137.461 179.188 137.312C179.229 137.312 179.27 137.312 179.312 137.312C179.312 137.271 179.312 137.23 179.312 137.187C179.354 137.187 179.395 137.187 179.438 137.187C179.531 137.095 179.531 137.095 179.629 136.972C179.797 136.774 179.971 136.588 180.156 136.406C180.362 136.203 180.554 135.994 180.742 135.775C180.92 135.574 181.105 135.379 181.289 135.183C181.902 134.529 182.49 133.859 183.03 133.143C183.169 132.959 183.314 132.78 183.46 132.601C184.071 131.848 184.617 131.059 185.13 130.237C185.76 129.23 186.414 128.235 187.137 127.293C187.332 127.039 187.516 126.778 187.699 126.515C188.047 126.02 188.403 125.533 188.777 125.056C189.17 124.554 189.529 124.036 189.875 123.5C189.908 123.448 189.941 123.397 189.976 123.344C190.534 122.478 191.07 121.6 191.595 120.714C191.959 120.101 192.328 119.495 192.729 118.905C192.869 118.698 193.003 118.488 193.137 118.277C193.845 117.166 194.592 116.068 195.414 115.037C195.656 114.731 195.887 114.417 196.117 114.101C196.487 113.595 196.874 113.106 197.274 112.622C197.549 112.289 197.82 111.954 198.092 111.618C198.182 111.507 198.272 111.397 198.363 111.286C199.323 110.105 200.132 108.761 200.763 107.377C200.894 107.089 201.036 106.809 201.188 106.531C201.361 106.212 201.52 105.889 201.672 105.558C202.853 103.005 204.509 100.68 206.117 98.3826C206.154 98.3306 206.19 98.2786 206.227 98.2251C206.476 97.8701 206.729 97.5183 206.984 97.1677C207.251 96.8008 207.509 96.4298 207.758 96.0508C207.976 95.7207 208.202 95.3972 208.43 95.074C209.085 94.1427 209.708 93.1912 210.326 92.2348C210.403 92.1154 210.48 91.9961 210.558 91.8768C211.48 90.4538 212.331 88.9998 213.142 87.5112C213.231 87.3465 213.322 87.1821 213.412 87.0178C213.727 86.4397 214.002 85.8451 214.276 85.2462C214.984 83.7006 215.789 82.2394 216.699 80.8043C216.803 80.6403 216.906 80.4759 217.009 80.3113C217.613 79.3444 218.241 78.3936 218.904 77.4654C219.151 77.1185 219.387 76.7651 219.621 76.4099C219.924 75.952 220.236 75.5031 220.56 75.0598C220.972 74.4944 221.369 73.9183 221.767 73.3429C221.856 73.2153 221.945 73.0881 222.035 72.9614C222.434 72.3971 222.795 71.8104 223.154 71.2201C223.238 71.0822 223.323 70.9448 223.408 70.8076C224.212 69.4959 224.846 68.0739 225.482 66.6761C225.598 66.4212 225.717 66.1673 225.836 65.9138C225.866 65.8496 225.866 65.8496 225.897 65.784C226.007 65.5507 226.121 65.3196 226.238 65.0896C226.427 64.7172 226.597 64.3371 226.77 63.9568C226.993 63.4652 227.225 62.9832 227.483 62.509C227.653 62.1962 227.805 61.8776 227.953 61.5545C228.254 60.9064 228.606 60.2899 228.963 59.6719C229.055 59.5129 229.145 59.3531 229.234 59.1929C229.826 58.1389 230.512 57.1444 231.25 56.1873C231.567 55.7685 231.879 55.3466 232.183 54.9176C232.333 54.7066 232.485 54.4978 232.641 54.291C233.158 53.6035 233.629 52.8964 234.083 52.1663C234.182 52.0079 234.282 51.8501 234.383 51.6926C234.704 51.1882 235.02 50.6805 235.328 50.1677C235.357 50.12 235.386 50.0723 235.415 50.0232C235.507 49.87 235.597 49.7162 235.688 49.5623C235.724 49.4999 235.761 49.4375 235.799 49.3733C236.134 48.7952 236.444 48.2054 236.749 47.6107C236.833 47.4479 236.917 47.2854 237.001 47.1229C237.055 47.0177 237.109 46.9124 237.163 46.8071C237.201 46.7356 237.201 46.7356 237.238 46.6627C237.581 45.9908 237.864 45.1869 237.625 44.4334C236.828 42.6218 234.55 41.7151 232.841 41.0443C231.719 40.6174 230.579 40.243 229.438 39.8748C229.359 39.8495 229.281 39.8242 229.201 39.7982C228.989 39.7305 228.778 39.6637 228.566 39.5974C228.509 39.5791 228.451 39.5607 228.391 39.5418C227.941 39.4035 227.486 39.2949 227.027 39.1874C226.378 39.0347 225.732 38.8677 225.086 38.699C224.992 38.6745 224.992 38.6745 224.896 38.6495C224.029 38.4231 223.167 38.1852 222.309 37.9243C221.927 37.8079 221.542 37.7002 221.156 37.5935C220.601 37.4395 220.048 37.2805 219.496 37.117C219.397 37.0876 219.397 37.0876 219.296 37.0577C218.978 36.9632 218.662 36.8664 218.346 36.764C217.801 36.5886 217.253 36.4563 216.692 36.3399C216.6 36.3202 216.507 36.3005 216.414 36.2808C216.173 36.2295 215.931 36.1787 215.689 36.1281C215.448 36.0776 215.208 36.0267 214.967 35.9757C214.896 35.9608 214.896 35.9608 214.824 35.9455C214.73 35.9254 214.635 35.9054 214.54 35.8854C214.4 35.8556 214.259 35.8258 214.118 35.7961C212.969 35.553 211.822 35.3004 210.679 35.0257C209.115 34.6512 207.548 34.3681 205.96 34.1211C205.186 34.0004 204.416 33.8676 203.647 33.7162C203.509 33.6891 203.371 33.6623 203.233 33.6356C203.023 33.5952 202.814 33.5544 202.604 33.5136C202.465 33.4866 202.327 33.4598 202.188 33.4329C201.699 33.3379 201.209 33.2419 200.72 33.1439C199.065 32.8125 197.415 32.5099 195.739 32.3029C194.433 32.141 193.173 31.848 191.906 31.4972C190.077 30.9948 188.244 30.595 186.367 30.3145C185.809 30.2309 185.251 30.1431 184.693 30.0559C184.39 30.0087 184.087 29.9616 183.784 29.9146C183.726 29.9056 183.669 29.8967 183.609 29.8875C183.499 29.8703 183.388 29.8531 183.277 29.8359C183.139 29.8144 183.001 29.7929 182.862 29.7714C182.648 29.7381 182.433 29.7048 182.219 29.6716C182.156 29.6618 182.092 29.652 182.027 29.6419C181.74 29.5977 181.452 29.5552 181.164 29.5166C179.56 29.3015 177.997 28.9086 176.438 28.4841C173.868 27.7864 171.273 27.1616 168.662 26.6368C167.708 26.4446 166.766 26.2192 165.826 25.9645C164.057 25.4852 162.28 25.1071 160.476 24.7804C159.913 24.6783 159.35 24.5717 158.789 24.4568C157.507 24.1969 156.22 24.0116 154.921 23.8557C154.669 23.8254 154.417 23.794 154.165 23.7615C152.965 23.6066 151.763 23.461 150.553 23.3989C149.075 23.3216 147.613 23.0891 146.165 22.7828C145.717 22.6892 145.266 22.6159 144.814 22.5424C142.857 22.2237 140.91 21.851 138.969 21.4529C138.882 21.4351 138.882 21.4351 138.794 21.417C138.273 21.3103 137.753 21.203 137.235 21.0869C136.588 20.9426 135.962 20.848 135.3 20.8039C134.44 20.7408 133.594 20.5774 132.746 20.4286C132.27 20.3453 131.794 20.2647 131.318 20.1837C131.156 20.156 130.994 20.1282 130.832 20.1003C130.314 20.0116 129.797 19.9239 129.279 19.8394C128.168 19.658 127.065 19.4594 125.963 19.231C125.739 19.185 125.515 19.141 125.291 19.0969C124.838 19.0066 124.389 18.905 123.939 18.8005C123.296 18.651 122.652 18.5041 122.006 18.367C121.955 18.3561 121.904 18.3452 121.851 18.334C121.607 18.282 121.362 18.2305 121.117 18.1797C120.237 17.9947 119.376 17.757 118.539 17.4255C118.479 17.4019 118.419 17.3783 118.357 17.354C117.756 17.1118 117.189 16.8157 116.625 16.4998C116.52 16.4415 116.415 16.3832 116.31 16.325C116.228 16.2791 116.145 16.2332 116.062 16.1873ZM106.938 32.4373C106.962 32.6176 106.987 32.6761 107.129 32.7966C107.169 32.8224 107.209 32.8482 107.25 32.8748C107.291 32.8541 107.332 32.8335 107.375 32.8123C107.2 32.5675 107.2 32.5675 106.938 32.4373ZM107.812 32.9998C107.875 33.1248 107.875 33.1248 107.875 33.1248L107.812 32.9998ZM1.8125 67.1873C1.875 67.3748 1.875 67.3748 1.875 67.3748L1.8125 67.1873Z" fill="#607090"/>
<path d="M72.7109 84.383C72.7565 84.3857 72.8021 84.3884 72.8491 84.3913C73.3919 84.5581 73.6804 85.1611 73.9375 85.6252C74.8498 87.3578 75.4934 89.1753 76.0777 91.0373C76.1554 91.2843 76.2341 91.531 76.3127 91.7777C76.5579 92.5485 76.8024 93.3194 77.0361 94.0937C77.4676 95.5201 77.9283 96.9363 78.3945 98.3517C78.411 98.4017 78.4274 98.4516 78.4444 98.5031C78.7308 99.3725 79.0173 100.242 79.3079 101.11C79.5315 101.777 79.7472 102.447 79.9603 103.119C80.0215 103.311 80.0828 103.503 80.1442 103.696C80.3061 104.203 80.468 104.711 80.6286 105.219C81.0279 106.481 81.462 107.729 81.9008 108.977C82.0729 109.467 82.2427 109.957 82.4118 110.448C82.5472 110.84 82.6844 111.231 82.8228 111.622C83.3024 112.979 83.7596 114.342 84.2012 115.712C84.4128 116.368 84.6267 117.023 84.8407 117.678C84.9042 117.873 84.9676 118.067 85.031 118.261C85.2097 118.809 85.3892 119.356 85.5723 119.902C85.7281 120.368 85.8765 120.835 86.0221 121.304C86.2288 121.969 86.4387 122.633 86.6567 123.294C87.0009 124.339 87.3437 125.382 87.6406 126.442C87.6521 126.482 87.6635 126.523 87.6753 126.565C88.1592 128.292 88.1592 128.292 87.9141 128.891C87.4733 129.638 86.329 129.923 85.5425 130.137C84.3231 130.406 83.2142 130.417 82.125 129.75C81.8417 129.561 81.5688 129.358 81.2954 129.155C80.9983 128.934 80.6934 128.727 80.3867 128.52C79.724 128.07 79.0969 127.586 78.4795 127.075C78.3688 126.984 78.2575 126.894 78.1455 126.804C77.7481 126.485 77.3728 126.147 77.0005 125.799C76.8508 125.66 76.6983 125.524 76.543 125.391C76.3357 125.212 76.1433 125.021 75.9531 124.824C75.8337 124.708 75.7119 124.6 75.5855 124.492C75.3129 124.254 75.0575 124.002 74.8032 123.745C74.7571 123.698 74.7109 123.652 74.6633 123.604C74.5176 123.458 74.3721 123.311 74.2266 123.164C74.0335 122.97 73.8403 122.775 73.647 122.581C73.6027 122.536 73.5584 122.491 73.5128 122.445C73.4719 122.404 73.431 122.363 73.3888 122.32C73.3529 122.284 73.3169 122.248 73.2798 122.21C73.1891 122.119 73.1891 122.119 73.0625 122.063C73.0625 122.021 73.0625 121.98 73.0625 121.938C73.0212 121.938 72.98 121.938 72.9375 121.938C72.8569 121.856 72.8569 121.856 72.7595 121.737C72.4348 121.355 72.0777 121.006 71.7234 120.653C71.6486 120.578 71.5739 120.503 71.4992 120.428C71.3435 120.273 71.1877 120.117 71.0319 119.961C70.832 119.762 70.6323 119.562 70.4327 119.362C70.2789 119.208 70.1249 119.054 69.9709 118.9C69.8972 118.827 69.8235 118.753 69.7499 118.679C69.6474 118.576 69.5448 118.474 69.4421 118.372C69.3837 118.313 69.3253 118.255 69.2652 118.195C69.1368 118.061 69.1368 118.061 69 118C69 117.959 69 117.918 69 117.875C68.9587 117.875 68.9175 117.875 68.875 117.875C68.875 117.834 68.875 117.793 68.875 117.75C68.8337 117.75 68.7925 117.75 68.75 117.75C68.75 117.709 68.75 117.668 68.75 117.625C68.6881 117.605 68.6262 117.584 68.5625 117.563C68.5625 117.521 68.5625 117.48 68.5625 117.438C68.5089 117.415 68.5089 117.415 68.4542 117.391C68.2883 117.299 68.1784 117.192 68.0459 117.056C67.9954 117.005 67.9449 116.954 67.8928 116.901C67.8405 116.847 67.7882 116.794 67.7344 116.738C67.4121 116.409 67.0901 116.087 66.7403 115.787C66.5626 115.634 66.3907 115.476 66.2188 115.317C66.1667 115.269 66.1667 115.269 66.1136 115.22C65.8711 114.995 65.6354 114.765 65.4055 114.527C65.3149 114.431 65.3149 114.431 65.1875 114.375C65.1875 114.334 65.1875 114.293 65.1875 114.25C65.1537 114.237 65.1198 114.224 65.085 114.21C64.8842 114.095 64.7372 113.935 64.5781 113.77C64.3343 113.521 64.0886 113.282 63.8232 113.056C63.6809 112.932 63.5426 112.804 63.4046 112.675C62.7523 112.067 62.0673 111.5 61.375 110.938C61.2969 110.874 61.2187 110.81 61.1406 110.746C60.7372 110.417 60.3324 110.09 59.9219 109.77C59.5855 109.507 59.2562 109.237 58.9294 108.963C58.7539 108.816 58.5764 108.672 58.3984 108.527C58.1226 108.303 57.8582 108.068 57.5955 107.828C57.4336 107.684 57.2669 107.549 57.0977 107.414C56.7843 107.161 56.5032 106.884 56.2217 106.597C56.0537 106.429 55.8794 106.273 55.6985 106.118C55.4865 105.934 55.2813 105.743 55.0757 105.551C54.943 105.429 54.8117 105.312 54.665 105.206C54.6312 105.179 54.5974 105.153 54.5625 105.125C54.5625 105.084 54.5625 105.043 54.5625 105C54.5292 104.986 54.496 104.973 54.4617 104.958C54.2601 104.846 54.0974 104.696 53.9258 104.543C53.4628 104.138 52.9772 103.767 52.4863 103.397C52.343 103.288 52.2024 103.176 52.0625 103.063C52.0851 103.11 52.1076 103.158 52.1309 103.206C52.1599 103.269 52.1889 103.331 52.2188 103.395C52.2478 103.456 52.2768 103.518 52.3066 103.581C52.375 103.75 52.375 103.75 52.375 103.938C52.3131 103.938 52.2512 103.938 52.1875 103.938C52.1875 103.896 52.1875 103.855 52.1875 103.813C52.1372 103.793 52.1372 103.793 52.0859 103.774C51.9436 103.691 51.8548 103.611 51.7407 103.495C51.7073 103.461 51.6738 103.427 51.6393 103.392C51.6013 103.353 51.6013 103.353 51.5625 103.313C51.5951 103.379 51.6278 103.445 51.6614 103.513C52.3299 104.886 52.8724 106.309 53.375 107.75C53.3957 107.809 53.4163 107.869 53.4376 107.93C53.5195 108.165 53.6013 108.4 53.6826 108.635C53.7917 108.951 53.9026 109.265 54.0166 109.579C54.3326 110.449 54.6312 111.323 54.918 112.203C54.9345 112.254 54.951 112.304 54.968 112.356C55.4102 113.71 55.7944 115.075 56.1362 116.457C56.1913 116.679 56.2468 116.902 56.3024 117.124C56.4823 117.846 56.6565 118.569 56.822 119.294C56.9621 119.907 57.1115 120.516 57.2812 121.121C57.2939 121.167 57.3066 121.212 57.3197 121.259C57.6568 122.466 58.052 123.655 58.4479 124.843C58.5135 125.041 58.5786 125.238 58.6436 125.436C59.0262 126.6 59.4198 127.759 59.8557 128.904C60.5546 130.746 61.0999 132.645 61.6556 134.534C61.8034 135.035 61.9557 135.535 62.1102 136.034C62.1276 136.09 62.145 136.147 62.1629 136.205C62.1782 136.254 62.1936 136.304 62.2094 136.355C62.315 136.732 62.3836 137.082 62.2266 137.453C62.1545 137.575 62.0786 137.695 62 137.813C61.9587 137.813 61.9175 137.813 61.875 137.813C61.875 137.854 61.875 137.895 61.875 137.938C61.7444 138.046 61.6147 138.145 61.4766 138.242C61.4366 138.271 61.3967 138.299 61.3555 138.328C61.0437 138.543 60.7406 138.707 60.375 138.813C60.331 138.827 60.287 138.84 60.2417 138.855C59.5916 139.022 58.6257 139.072 57.9934 138.825C57.4719 138.497 57.3159 137.728 57.1252 137.178C57.0609 136.996 56.994 136.814 56.9265 136.633C56.5672 135.659 56.2556 134.675 55.9514 133.684C55.6827 132.809 55.3967 131.943 55.087 131.082C55.0563 130.997 55.0256 130.911 54.9949 130.826C54.9798 130.784 54.9646 130.742 54.9491 130.698C54.7742 130.209 54.6119 129.716 54.4492 129.223C54.1644 128.361 53.87 127.502 53.5703 126.645C53.541 126.561 53.541 126.561 53.511 126.475C53.4176 126.208 53.324 125.941 53.2301 125.674C53.1624 125.482 53.0953 125.29 53.0287 125.097C52.8294 124.523 52.6128 123.957 52.3835 123.394C51.1966 120.474 50.2555 117.483 49.3856 114.454C48.5076 111.399 47.5656 108.344 46.392 105.388C46.3068 105.173 46.2232 104.958 46.1396 104.743C45.1708 102.263 44.0218 99.8667 42.7681 97.5189C42.25 96.5442 42.25 96.5442 42.25 96.1252C42.3171 96.1192 42.3841 96.1133 42.4532 96.1071C43.1273 96.0426 43.7767 95.9265 44.4355 95.7717C44.5982 95.7335 44.7612 95.6961 44.9241 95.6588C45.4023 95.5492 45.8798 95.437 46.3567 95.3217C47.4038 95.0696 48.3956 94.9319 49.4727 94.9142C49.5344 94.9126 49.5961 94.9109 49.6597 94.9092C50.5922 94.9072 51.3781 95.4504 52.0684 96.0346C52.2688 96.2035 52.4733 96.366 52.6797 96.5275C52.7167 96.5565 52.7536 96.5855 52.7917 96.6153C53.0705 96.8334 53.3508 97.0493 53.6317 97.2647C53.9905 97.5401 54.3458 97.8199 54.701 98.0999C54.814 98.1888 54.9271 98.2776 55.0403 98.3664C55.4189 98.6633 55.7963 98.9615 56.1709 99.2636C56.3516 99.4059 56.5373 99.5406 56.7251 99.6735C56.7539 99.6988 56.7828 99.7241 56.8125 99.7502C56.8125 99.7914 56.8125 99.8327 56.8125 99.8752C56.8493 99.892 56.8861 99.9088 56.9241 99.9262C57.0627 100 57.1615 100.078 57.2773 100.184C57.7976 100.649 58.3342 101.096 58.8762 101.536C59.0137 101.648 59.15 101.761 59.2859 101.875C59.8705 102.362 60.4802 102.795 61.1117 103.219C61.9127 103.761 62.6781 104.35 63.4299 104.957C63.5194 105.028 63.6112 105.097 63.7048 105.163C63.7581 105.206 63.7581 105.206 63.8125 105.25C63.8125 105.291 63.8125 105.333 63.8125 105.375C63.8494 105.392 63.8863 105.409 63.9243 105.426C64.0639 105.501 64.1602 105.579 64.2744 105.688C64.3136 105.725 64.3529 105.763 64.3933 105.801C64.4539 105.859 64.4539 105.859 64.5156 105.918C64.7969 106.186 65.0812 106.448 65.3745 106.702C65.5873 106.889 65.7936 107.083 66 107.277C66.0438 107.319 66.0876 107.36 66.1327 107.402C66.3914 107.646 66.6449 107.893 66.8943 108.146C67.0392 108.289 67.1929 108.42 67.3469 108.552C67.5527 108.734 67.7528 108.922 67.9531 109.11C68.0352 109.186 68.1172 109.263 68.1992 109.34C68.2394 109.377 68.2796 109.415 68.321 109.454C68.769 109.873 69.2194 110.284 69.6975 110.668C69.8574 110.798 70.0145 110.931 70.1711 111.065C70.5062 111.352 70.8477 111.627 71.199 111.894C71.917 112.441 72.5919 113.04 73.254 113.653C73.7926 114.16 73.7926 114.16 74.3613 114.633C74.4071 114.672 74.4529 114.71 74.5 114.75C74.5 114.791 74.5 114.833 74.5 114.875C74.5413 114.875 74.5825 114.875 74.625 114.875C74.625 114.916 74.625 114.958 74.625 115C74.6618 115.017 74.6986 115.033 74.7365 115.05C74.881 115.128 74.9757 115.21 75.0915 115.326C75.1326 115.367 75.1737 115.408 75.2161 115.45C75.2599 115.495 75.3037 115.539 75.3489 115.585C75.4175 115.653 75.4175 115.653 75.4876 115.723C75.5845 115.82 75.6812 115.918 75.7777 116.015C75.9243 116.163 76.0713 116.31 76.2184 116.457C76.3127 116.552 76.407 116.646 76.5012 116.741C76.5447 116.784 76.5881 116.828 76.6329 116.873C76.8804 117.123 77.1172 117.379 77.3464 117.646C77.4517 117.766 77.5634 117.878 77.6797 117.988C77.9285 118.233 78.1427 118.499 78.3608 118.771C78.5232 118.965 78.6979 119.141 78.8796 119.318C79.0465 119.484 79.1997 119.661 79.3533 119.84C79.4005 119.895 79.4488 119.949 79.5 120C79.5406 119.954 79.5406 119.954 79.582 119.906C79.6875 119.813 79.6875 119.813 79.875 119.813C79.7576 119.343 79.6088 118.9 79.4219 118.453C79.3996 118.399 79.3772 118.344 79.3542 118.288C79.218 117.958 79.0716 117.635 78.9189 117.312C78.6554 116.754 78.4207 116.185 78.1875 115.613C78.1655 115.56 78.1434 115.506 78.1208 115.45C77.7178 114.464 77.3544 113.477 77.0457 112.457C77.0172 112.363 77.0172 112.363 76.9881 112.267C76.8777 111.903 76.7676 111.539 76.6575 111.175C75.7227 108.008 75.7227 108.008 74.6202 104.898C74.5346 104.679 74.4529 104.459 74.3711 104.238C74.2378 103.883 74.1036 103.527 73.9688 103.172C73.9486 103.119 73.9285 103.066 73.9077 103.011C73.7669 102.642 73.6234 102.274 73.4785 101.906C72.5067 99.437 71.7477 96.9279 71.179 94.3348C70.8118 92.661 70.2971 91.0548 69.7327 89.4383C68.8725 86.9617 68.8725 86.9617 69 86.3127C69.2152 85.9163 69.6309 85.6739 70 85.4377C70.0775 85.3857 70.0775 85.3857 70.1565 85.3327C70.8282 84.9083 71.8971 84.3173 72.7109 84.383ZM79.9375 119.875C80 120 80 120 80 120L79.9375 119.875Z" fill="#607090"/>
<path d="M156.062 60.5001C156.107 60.5131 156.152 60.5262 156.199 60.5396C156.312 60.6251 156.312 60.6251 156.373 60.8016C156.405 61.1678 156.258 61.5196 156.148 61.8634C156.101 62.0155 156.054 62.1677 156.008 62.3199C155.985 62.3938 155.962 62.4676 155.938 62.5437C155.557 63.7779 155.308 65.0091 155.177 66.2945C155.024 67.7876 154.78 69.2378 154.44 70.7001C154.184 71.8013 154.019 72.9156 153.875 74.0365C153.669 75.6416 153.27 77.1084 152.719 78.6245C152.514 79.1909 152.322 79.7616 152.128 80.3321C151.877 81.0738 151.621 81.8138 151.358 82.5517C151.019 83.5049 150.689 84.457 150.437 85.4376C150.421 85.4986 150.405 85.5596 150.389 85.6224C150.011 87.0068 150.011 87.0068 150.284 88.3697C150.664 88.9205 151.262 89.7564 151.874 90.0626C151.874 90.1038 151.874 90.1451 151.874 90.1876C151.912 90.2045 151.949 90.2215 151.987 90.2389C152.122 90.3116 152.21 90.3829 152.318 90.4909C152.354 90.5269 152.39 90.5628 152.427 90.5998C152.466 90.6386 152.504 90.6774 152.543 90.7174C152.604 90.7777 152.604 90.7777 152.665 90.8393C152.75 90.9246 152.835 91.0101 152.92 91.0956C153.049 91.2252 153.178 91.3542 153.307 91.4832C153.389 91.5665 153.472 91.6497 153.555 91.733C153.593 91.771 153.631 91.8091 153.67 91.8483C153.903 92.0832 154.124 92.3254 154.34 92.5758C154.48 92.7378 154.627 92.8939 154.773 93.0509C154.99 93.2855 155.198 93.5239 155.398 93.7735C155.686 94.1312 155.997 94.4637 156.311 94.7982C156.491 94.99 156.664 95.1872 156.835 95.3868C156.995 95.5652 157.169 95.7305 157.343 95.8961C157.437 96.0001 157.437 96.0001 157.437 96.1251C157.499 96.1457 157.561 96.1663 157.624 96.1876C157.732 96.2989 157.826 96.4177 157.924 96.5377C158.04 96.6635 158.155 96.7702 158.284 96.8809C158.653 97.1989 158.99 97.5495 159.332 97.8961C159.418 97.9841 159.505 98.0719 159.593 98.1597C159.669 98.2376 159.669 98.2376 159.748 98.3169C159.865 98.4406 159.865 98.4406 159.999 98.5001C159.999 98.5413 159.999 98.5826 159.999 98.6251C160.034 98.639 160.068 98.653 160.104 98.6673C160.295 98.776 160.425 98.9162 160.577 99.0743C160.766 99.2693 160.955 99.455 161.161 99.6311C161.467 99.8974 161.753 100.181 162.04 100.468C162.096 100.524 162.152 100.58 162.21 100.638C162.329 100.756 162.447 100.874 162.565 100.992C162.715 101.141 162.865 101.291 163.015 101.44C163.16 101.584 163.305 101.729 163.45 101.874C163.503 101.927 163.556 101.979 163.611 102.033C164.362 102.787 164.992 103.622 165.503 104.555C165.528 104.599 165.552 104.642 165.578 104.688C165.726 104.966 165.793 105.178 165.749 105.5C165.561 105.74 165.317 105.747 165.031 105.785C164.976 105.793 164.92 105.801 164.864 105.808C159.747 106.483 159.747 106.483 157.918 105.144C157.589 104.891 157.294 104.604 156.999 104.313C156.954 104.268 156.908 104.223 156.861 104.177C156.37 103.694 155.884 103.212 155.437 102.688C155.409 102.655 155.38 102.622 155.351 102.588C155.01 102.191 154.676 101.787 154.347 101.379C153.999 100.949 153.642 100.527 153.28 100.109C153.184 99.997 153.088 99.8851 152.993 99.773C152.626 99.3429 152.255 98.9175 151.874 98.5001C151.823 98.444 151.772 98.3879 151.72 98.3302C151.382 97.9599 151.041 97.5926 150.698 97.2266C150.66 97.185 150.621 97.1434 150.581 97.1005C150.402 96.9098 150.222 96.7224 150.034 96.5406C149.874 96.3751 149.874 96.3751 149.874 96.2501C149.833 96.2501 149.792 96.2501 149.749 96.2501C149.67 96.1737 149.67 96.1737 149.573 96.0587C149.516 95.9909 149.516 95.9909 149.457 95.9217C149.409 95.8651 149.361 95.8084 149.312 95.7501C149.246 95.6752 149.181 95.6004 149.115 95.5257C148.77 95.1315 148.429 94.7395 148.124 94.3126C148.034 94.4794 147.978 94.6252 147.946 94.8119C147.938 94.8605 147.929 94.9091 147.92 94.9592C147.911 95.0115 147.902 95.0638 147.893 95.1178C147.873 95.231 147.853 95.3443 147.833 95.4575C147.822 95.5167 147.812 95.576 147.801 95.637C147.542 97.1003 147.192 98.5032 146.726 99.9141C146.713 99.9544 146.699 99.9947 146.685 100.036C146.504 100.582 146.307 101.121 146.104 101.659C145.82 102.409 145.554 103.164 145.292 103.922C145.269 103.988 145.247 104.054 145.223 104.121C144.821 105.284 144.426 106.449 144.043 107.618C143.999 107.752 143.954 107.887 143.91 108.022C143.601 108.962 143.3 109.903 143.019 110.852C142.123 113.864 142.123 113.864 141.187 114.813C141.146 114.813 141.104 114.813 141.062 114.813C141.062 114.854 141.062 114.895 141.062 114.938C140.845 115.139 140.607 115.317 140.374 115.5C140.31 115.551 140.246 115.602 140.181 115.654C138.256 117.172 138.256 117.172 137.437 117.188C136.937 116.973 136.546 116.416 136.312 115.938C135.9 114.668 136.561 112.901 136.874 111.688C136.888 111.632 136.902 111.577 136.917 111.52C137.423 109.55 138.17 107.631 138.937 105.75C138.975 105.655 139.014 105.561 139.052 105.466C139.112 105.319 139.172 105.171 139.232 105.024C140.267 102.48 141.239 99.9062 141.994 97.2628C142.156 96.6952 142.331 96.1312 142.503 95.5667C142.599 95.2531 142.694 94.9393 142.79 94.6256C142.9 94.2633 143.01 93.9011 143.122 93.5392C143.647 91.9578 143.647 91.9578 143.749 90.3126C143.744 90.2559 143.739 90.1991 143.734 90.1407C143.614 89.2464 142.977 88.6777 142.374 88.0626C142.319 88.006 142.319 88.006 142.263 87.9482C141.916 87.5931 141.567 87.243 141.188 86.9212C141.029 86.784 140.873 86.6421 140.718 86.5001C140.374 86.1864 140.025 85.8787 139.671 85.5762C139.595 85.5118 139.52 85.4473 139.445 85.3829C139.407 85.3508 139.369 85.3186 139.331 85.2856C139.046 85.0422 138.768 84.7935 138.492 84.5404C138.38 84.434 138.38 84.434 138.249 84.3751C138.249 84.3338 138.249 84.2926 138.249 84.2501C138.214 84.2355 138.179 84.2209 138.143 84.2059C137.964 84.1051 137.845 83.9801 137.702 83.8321C137.514 83.6394 137.325 83.4525 137.12 83.2774C136.89 83.0801 136.677 82.8683 136.466 82.6505C136.34 82.5278 136.212 82.4133 136.079 82.2989C135.737 82.002 135.424 81.6775 135.106 81.3546C135.059 81.3072 135.012 81.2598 134.964 81.211C134.923 81.169 134.881 81.1269 134.839 81.0836C134.715 80.9644 134.589 80.8521 134.458 80.74C134.147 80.4694 133.857 80.179 133.565 79.887C133.508 79.8292 133.45 79.7713 133.39 79.7117C133.268 79.59 133.146 79.4682 133.025 79.3463C132.87 79.1914 132.715 79.0368 132.561 78.8822C132.411 78.7329 132.262 78.5834 132.112 78.4339C132.057 78.3791 132.002 78.3242 131.946 78.2678C131.671 77.9922 131.405 77.7132 131.153 77.4172C131.019 77.2631 130.873 77.1224 130.726 76.9805C130.448 76.7075 130.199 76.4187 129.957 76.1138C129.799 75.922 129.633 75.7402 129.464 75.5587C129.213 75.2886 128.977 75.0111 128.75 74.7205C128.615 74.5511 128.475 74.3872 128.335 74.2227C127.985 73.8044 127.665 73.3655 127.344 72.9249C127.177 72.6966 127.008 72.4707 126.837 72.2458C126.425 71.7027 126.036 71.1447 125.656 70.5781C125.566 70.4443 125.475 70.3115 125.383 70.1788C125.331 70.101 125.278 70.0232 125.226 69.9454C125.157 69.8451 125.157 69.8451 125.088 69.7428C124.999 69.5626 124.999 69.5626 124.988 69.4014C125.101 69.1696 125.296 69.0707 125.511 68.9454C125.556 68.9183 125.601 68.8913 125.648 68.8634C125.785 68.7824 125.923 68.7034 126.062 68.6251C126.119 68.5923 126.119 68.5923 126.178 68.5589C127.145 68.0152 128.365 67.6033 129.468 67.9102C130.143 68.1384 130.735 68.5742 131.249 69.0626C131.249 69.1038 131.249 69.1451 131.249 69.1876C131.287 69.2049 131.324 69.2223 131.363 69.2401C131.578 69.3545 131.743 69.5256 131.918 69.6927C131.986 69.7565 131.986 69.7565 132.054 69.8217C132.874 70.6052 133.67 71.4141 134.471 72.2173C134.702 72.449 134.933 72.6805 135.164 72.9121C135.537 73.2849 135.909 73.6579 136.281 74.031C136.478 74.2292 136.676 74.4272 136.874 74.6251C136.92 74.6713 136.966 74.7175 137.014 74.765C137.21 74.9608 137.407 75.1559 137.603 75.3509C137.829 75.5745 138.054 75.7985 138.278 76.0224C138.397 76.1408 138.517 76.2591 138.636 76.3772C138.808 76.5477 138.979 76.7185 139.151 76.8895C139.205 76.9425 139.258 76.9956 139.314 77.0503C139.363 77.0993 139.412 77.1483 139.462 77.1989C139.506 77.242 139.549 77.2852 139.594 77.3297C139.687 77.4376 139.687 77.4376 139.687 77.5626C139.728 77.5626 139.769 77.5626 139.812 77.5626C139.902 77.6544 139.902 77.6544 140.007 77.7813C140.164 77.9667 140.326 78.1423 140.499 78.3126C140.701 78.5112 140.889 78.7172 141.073 78.9312C141.444 79.3601 141.83 79.7747 142.218 80.1876C142.638 80.6338 143.056 81.0802 143.448 81.5509C143.568 81.6924 143.691 81.8101 143.835 81.9259C143.889 81.971 143.943 82.0161 143.999 82.0626C143.999 82.1038 143.999 82.1451 143.999 82.1876C144.061 82.2082 144.123 82.2288 144.187 82.2501C144.187 82.2913 144.187 82.3326 144.187 82.3751C144.242 82.4003 144.242 82.4003 144.299 82.4261C144.436 82.4997 144.534 82.5783 144.648 82.6837C144.835 82.8488 145.019 82.9617 145.249 83.0626C145.513 82.7799 145.638 82.5391 145.743 82.1688C145.758 82.1154 145.774 82.0621 145.79 82.0071C146.005 81.2318 146.148 80.438 146.3 79.6484C146.394 79.1613 146.49 78.6748 146.586 78.1883C146.596 78.1399 146.606 78.0914 146.615 78.0415C146.792 77.1526 146.979 76.2667 147.179 75.3829C147.193 75.3204 147.207 75.2578 147.222 75.1934C147.386 74.4682 147.562 73.7471 147.749 73.0274C148.265 71.0306 148.609 68.9853 148.952 66.9532C149.187 65.566 149.438 64.1736 149.999 62.8751C150.027 62.8088 150.027 62.8088 150.055 62.7412C150.31 62.1351 150.576 61.6442 151.062 61.1876C151.103 61.1453 151.144 61.103 151.187 61.0594C151.639 60.6201 152.188 60.54 152.798 60.5032C152.854 60.4994 152.909 60.4955 152.967 60.4914C153.084 60.4834 153.201 60.4757 153.318 60.4683C153.495 60.4571 153.672 60.445 153.849 60.4326C155.5 60.3198 155.5 60.3198 156.062 60.5001Z" fill="#607090"/>
<path d="M111.876 73.3124C112.687 73.7857 113.066 74.795 113.294 75.6522C113.668 77.1136 113.668 77.1136 113.478 77.5897C113.288 77.8932 112.987 78.0651 112.689 78.2499C112.644 78.2782 112.599 78.3065 112.552 78.3356C112.174 78.5694 111.787 78.7618 111.38 78.9413C111.323 78.9668 111.266 78.9923 111.207 79.0185C111.092 79.0703 110.976 79.1219 110.86 79.1733C110.75 79.2222 110.641 79.2719 110.533 79.3224C109.981 79.5785 109.417 79.8022 108.853 80.0272C108.799 80.0489 108.744 80.0705 108.689 80.0928C107.886 80.4135 107.08 80.7261 106.271 81.0311C106.222 81.0494 106.173 81.0678 106.123 81.0867C105.687 81.2509 105.251 81.4143 104.814 81.5765C104.053 81.8607 103.307 82.1772 102.561 82.4999C102.175 82.6667 101.788 82.8306 101.4 82.992C101.341 83.0166 101.281 83.0412 101.22 83.0666C100.804 83.2394 100.387 83.4109 99.9693 83.5823C97.5798 84.4055 97.5798 84.4055 95.5012 85.7499C95.4715 86.1469 95.5103 86.5296 95.5911 86.9178C95.6017 86.9702 95.6124 87.0225 95.6234 87.0765C95.7392 87.6155 95.8967 88.1423 96.0537 88.6705C96.4154 89.8884 96.7149 91.1208 96.9973 92.3592C97.5056 95.6868 97.5056 95.6868 98.8762 98.4374C99.2603 98.4851 99.6568 98.4187 100.036 98.3592C100.091 98.3507 100.146 98.3421 100.203 98.3333C101.214 98.169 102.159 97.8507 103.128 97.5213C103.393 97.4313 103.66 97.3436 103.926 97.256C104.865 96.9467 105.799 96.6296 106.724 96.2812C107.212 96.0982 107.703 95.928 108.198 95.7662C108.603 95.6335 109.007 95.4958 109.409 95.3551C109.569 95.2994 109.729 95.2438 109.889 95.1882C109.994 95.1516 110.098 95.1149 110.203 95.0779C112.162 94.3854 112.162 94.3854 113.011 94.7591C113.761 95.2467 114.454 96.0229 114.659 96.9015C114.729 97.2861 114.717 97.5442 114.501 97.8749C113.484 99.1356 111.7 99.6616 110.241 100.207C110.137 100.246 110.033 100.285 109.929 100.324C109.007 100.671 108.072 100.975 107.135 101.278C106.259 101.561 105.386 101.848 104.514 102.143C104.391 102.185 104.268 102.226 104.144 102.268C103.022 102.644 101.904 103.049 100.853 103.598C100.799 103.625 100.746 103.652 100.691 103.68C100.565 103.745 100.439 103.809 100.314 103.875C100.378 104.856 100.524 105.794 100.751 106.75C100.765 106.808 100.778 106.867 100.792 106.927C101.13 108.358 101.644 109.74 102.125 111.127C102.301 111.635 102.475 112.144 102.65 112.652C102.668 112.705 102.686 112.757 102.704 112.812C103.126 114.045 103.528 115.286 103.876 116.543C104.026 117.083 104.202 117.614 104.384 118.144C104.41 118.222 104.437 118.299 104.464 118.378C104.599 118.769 104.749 119.133 104.939 119.5C104.939 119.541 104.939 119.582 104.939 119.625C104.978 119.598 105.018 119.572 105.058 119.545C105.994 118.931 107.002 118.542 108.042 118.143C108.219 118.075 108.396 118.005 108.573 117.933C110.558 117.141 112.645 116.6 114.711 116.062C116.55 115.582 118.366 115.078 120.166 114.468C120.734 114.275 121.302 114.088 121.872 113.901C121.987 113.864 122.103 113.825 122.218 113.787C124.432 113.056 124.432 113.056 125.251 113.187C125.803 113.486 126.106 114.049 126.314 114.625C126.42 115.133 126.413 115.564 126.172 116.027C125.836 116.524 125.223 116.783 124.681 116.992C124.611 117.02 124.542 117.047 124.47 117.076C123.638 117.404 122.794 117.705 121.953 118.012C120.792 118.436 119.647 118.886 118.509 119.37C118.247 119.481 117.986 119.592 117.724 119.703C117.672 119.725 117.621 119.747 117.567 119.769C116.918 120.044 116.269 120.312 115.598 120.531C115.423 120.588 115.249 120.647 115.076 120.71C114.292 120.989 113.492 121.17 112.681 121.352C111.075 121.716 109.512 122.159 107.956 122.701C107.566 122.836 107.174 122.966 106.782 123.098C106.669 123.135 106.669 123.135 106.554 123.174C105.108 123.655 103.594 124.142 102.132 123.48C101.714 123.265 101.354 122.995 101.001 122.687C100.963 122.655 100.924 122.622 100.885 122.589C99.4998 121.325 98.8511 118.946 98.2512 117.25C98.2245 117.174 98.1977 117.099 98.1701 117.021C97.5852 115.362 97.2068 113.705 96.9153 111.973C96.5536 109.824 96.0289 107.755 95.4022 105.67C95.2743 105.244 95.149 104.817 95.0247 104.39C95.0024 104.314 94.98 104.238 94.957 104.159C94.8317 103.727 94.712 103.294 94.5974 102.859C94.1312 101.089 93.5103 99.4221 92.8135 97.7311C92.7921 97.6791 92.7707 97.6272 92.7487 97.5737C92.6518 97.3385 92.5548 97.1033 92.4573 96.8684C91.8969 95.5143 91.4939 94.1322 91.107 92.7202C90.5137 90.557 89.8066 88.4639 88.9839 86.3769C88.682 85.6109 88.3862 84.8438 88.1262 84.0624C88.1108 84.0169 88.0954 83.9715 88.0795 83.9246C87.901 83.3844 87.8513 82.8638 87.8411 82.2967C87.8394 82.2341 87.8377 82.1715 87.8359 82.107C87.8384 81.6726 87.8384 81.6726 87.9995 81.4696C88.4327 81.2527 88.8994 81.1459 89.3709 81.0455C89.4898 81.0196 89.6087 80.9937 89.7277 80.9678C89.789 80.9545 89.8503 80.9413 89.9134 80.9276C90.2323 80.8585 90.5507 80.7877 90.8692 80.7169C90.9618 80.6963 90.9618 80.6963 91.0564 80.6753C91.1737 80.6492 91.291 80.6231 91.4082 80.597C91.5406 80.5675 91.673 80.5382 91.8053 80.5089C92.8333 80.2773 93.7926 79.8936 94.7609 79.4859C94.8735 79.4385 94.9863 79.3913 95.0991 79.3441C95.6705 79.1046 96.2413 78.8636 96.8091 78.6156C97.4721 78.3277 98.1455 78.0864 98.8296 77.8536C99.4097 77.6556 99.9866 77.4487 100.564 77.242C100.677 77.2016 100.79 77.1611 100.903 77.1207C101.075 77.059 101.248 76.9973 101.42 76.9355C101.87 76.7744 102.32 76.6136 102.77 76.453C103.315 76.2586 103.86 76.064 104.404 75.8694C104.562 75.813 104.72 75.7566 104.877 75.7003C106.108 75.2606 107.337 74.8164 108.562 74.3619C108.655 74.3278 108.747 74.2937 108.839 74.2596C108.883 74.2431 108.928 74.2267 108.973 74.2097C109.249 74.1079 109.526 74.0096 109.804 73.9131C110.247 73.7589 110.677 73.5925 111.097 73.3816C111.382 73.2477 111.572 73.2314 111.876 73.3124Z" fill="#607090"/>
<path d="M195.371 49.2888C195.872 49.8657 195.999 50.9007 195.974 51.6367C195.921 51.8914 195.825 52.0049 195.612 52.1496C194.998 52.5023 194.284 52.7026 193.61 52.906C193.433 52.9601 193.257 53.0145 193.08 53.0691C193.034 53.0834 192.987 53.0977 192.94 53.1124C192.36 53.2921 191.784 53.4824 191.207 53.6716C190.317 53.9637 189.424 54.2466 188.529 54.5222C186.223 55.2103 186.223 55.2103 184.063 56.2497C183.995 56.2883 183.928 56.3268 183.858 56.3664C183.606 56.5234 183.416 56.6655 183.293 56.9412C183.152 57.5987 183.5 58.3337 183.744 58.9328C183.83 59.1447 183.913 59.3578 183.997 59.5708C184.013 59.6132 184.03 59.6556 184.047 59.6993C184.26 60.2439 184.445 60.7967 184.621 61.3542C184.681 61.5411 184.742 61.7274 184.804 61.9136C185.322 63.4927 185.684 65.1016 186.037 66.7244C186.119 67.0959 186.202 67.4669 186.287 67.8376C186.506 68.8018 186.72 69.7659 186.911 70.7363C187.366 73.0612 187.366 73.0612 187.922 75.363C187.933 75.4036 187.944 75.4442 187.955 75.486C188.081 75.9585 188.222 76.4247 188.372 76.8904C188.563 77.4883 188.727 78.0919 188.887 78.699C188.947 78.9246 189.007 79.1502 189.067 79.3757C189.082 79.4327 189.097 79.4897 189.112 79.5484C189.216 79.9362 189.322 80.3232 189.43 80.7097C189.765 81.9082 190.076 83.108 190.354 84.321C190.447 84.7276 190.543 85.1333 190.641 85.5388C190.658 85.6098 190.675 85.6808 190.693 85.754C190.809 86.2349 190.929 86.7146 191.052 87.1941C191.485 88.8958 191.868 90.5995 192.2 92.3236C192.421 93.4712 192.686 94.5973 193.021 95.7173C193.044 95.7937 193.067 95.8702 193.09 95.949C193.109 96.0104 193.129 96.0719 193.148 96.1352C193.209 96.4067 193.241 96.6448 193.112 96.8979C192.429 97.7167 191.667 98.2395 190.625 98.4997C190.579 98.5118 190.532 98.5239 190.484 98.5364C190.221 98.5761 189.961 98.5763 189.696 98.5779C189.614 98.5798 189.614 98.5798 189.53 98.5818C189.188 98.5838 188.915 98.5742 188.625 98.3747C188.286 97.8773 188.132 97.2907 187.981 96.7146C187.969 96.6715 187.958 96.6284 187.946 96.584C187.45 94.7284 187.06 92.8405 186.885 90.9275C186.62 88.0412 186.05 85.2838 185.25 82.4997C185.233 82.4383 185.215 82.3768 185.197 82.3134C184.958 81.4833 184.719 80.6536 184.479 79.824C183.402 76.1005 182.378 72.3622 181.386 68.6154C181.091 67.5062 180.78 66.4022 180.462 65.2997C180.403 65.0959 180.344 64.892 180.286 64.688C179.503 60.9212 179.503 60.9212 177.5 57.9372C176.217 57.5093 174.236 58.4451 172.997 58.8099C171.011 59.3939 169.001 59.8871 166.988 60.3669C166.273 60.5379 165.567 60.7231 164.871 60.9612C164.829 60.9755 164.787 60.9898 164.744 61.0045C164.63 61.0435 164.517 61.0836 164.404 61.1238C163.946 61.2581 163.65 61.2798 163.207 61.0662C163.164 61.0462 163.121 61.0263 163.077 61.0057C161.961 60.4763 161.237 59.8484 160.688 58.7497C160.635 58.3815 160.734 58.1836 160.945 57.8953C161.917 56.6954 163.27 56.4462 164.697 56.0727C165.177 55.9466 165.654 55.8128 166.13 55.6709C167.732 55.1936 169.357 54.7743 171.005 54.4892C171.85 54.3406 172.682 54.1328 173.516 53.9311C173.711 53.8841 173.907 53.8381 174.102 53.793C175.39 53.4953 176.684 53.176 177.94 52.7597C178.354 52.6249 178.776 52.5238 179.199 52.4216C180.327 52.148 181.426 51.7901 182.529 51.4309C184.434 50.8113 186.362 50.3235 188.313 49.8747C188.368 49.862 188.424 49.8492 188.481 49.836C194.045 48.5553 194.045 48.5553 195.371 49.2888Z" fill="#607090"/>
</g>
<defs>
<clipPath id="clip0_2466_6544">
<rect width="240" height="163.938" fill="white" transform="translate(0.875 0.0625)"/>
</clipPath>
</defs>
</svg>
