<svg width="164" height="240" viewBox="0 0 164 240" fill="none" xmlns="http://www.w3.org/2000/svg">
<path fill-rule="evenodd" clip-rule="evenodd" d="M122.849 20.1265L122.849 20.1267C122.884 20.1431 122.918 20.1595 122.952 20.176C122.918 20.1595 122.883 20.143 122.849 20.1265ZM127.292 141.326L127.291 141.326C127.203 141.386 127.115 141.445 127.026 141.504C127.115 141.445 127.204 141.385 127.292 141.326ZM44.0401 159.47L44.0403 159.469C44.0539 159.437 44.0675 159.405 44.081 159.373C44.0674 159.405 44.0538 159.437 44.0401 159.47ZM127.416 113.203L127.416 113.203C127.435 113.181 127.453 113.159 127.472 113.138C127.453 113.16 127.435 113.181 127.416 113.203Z" fill="#607090"/>
<path fill-rule="evenodd" clip-rule="evenodd" d="M78.9718 1.7752C79.1302 1.78543 79.2887 1.7957 79.4472 1.80598C80.4455 1.87058 81.4438 1.93417 82.4432 1.98167C84.732 2.09262 87.0204 2.33512 89.2798 2.72413C89.4842 2.75782 89.689 2.78014 89.8951 2.801C90.4047 2.85659 90.909 2.93984 91.4147 3.02366C92.1792 3.15035 92.9446 3.25853 93.7136 3.35371C94.5643 3.45909 95.4073 3.59753 96.2506 3.75022L96.4338 3.78318C98.1174 4.08692 99.7891 4.4399 101.456 4.82221C101.678 4.87289 101.899 4.92307 102.121 4.97312C102.828 5.1336 103.532 5.30303 104.232 5.48983C104.503 5.56171 104.773 5.6317 105.046 5.69187C107.795 6.2982 110.461 7.33611 113.048 8.42576C113.259 8.51474 113.472 8.60136 113.685 8.68577C114.037 8.8258 114.384 8.97712 114.731 9.12913L115.103 9.29148L115.28 9.36894C115.406 9.42354 115.531 9.47729 115.657 9.53074C115.945 9.65519 116.229 9.78625 116.514 9.91736L116.575 9.94554C117.056 10.1666 117.537 10.3858 118.02 10.6018C118.572 10.8489 119.118 11.1061 119.663 11.3666C119.818 11.44 119.973 11.5125 120.127 11.5849C120.657 11.8331 121.179 12.0869 121.688 12.3752C122.05 12.5765 122.414 12.7705 122.786 12.9533C123.19 13.1534 123.584 13.3691 123.976 13.5907C124.232 13.7351 124.491 13.8713 124.754 14.0014C124.944 14.0971 125.127 14.2022 125.311 14.3075L125.34 14.3244C125.867 14.6236 126.402 14.9068 126.938 15.1877V15.3127L127.046 15.3347C127.203 15.3795 127.326 15.4433 127.469 15.5237L127.652 15.6255L127.757 15.6843C127.893 15.7598 128.029 15.834 128.166 15.9082C129.047 16.3879 129.909 16.8908 130.751 17.4377L130.887 17.5261C131.973 18.2393 132.961 19.0426 133.908 19.9306C134.103 20.1132 134.298 20.2947 134.501 20.469C135.111 20.9958 135.692 21.5565 136.256 22.1326C136.429 22.3087 136.606 22.4764 136.794 22.637C137.069 22.8767 137.327 23.131 137.584 23.3899L137.727 23.5338C137.877 23.6839 138.027 23.8342 138.176 23.9846C138.278 24.0864 138.379 24.1882 138.481 24.29C138.704 24.5132 138.926 24.7366 139.148 24.9601C139.216 25.0282 139.284 25.0961 139.353 25.1639C139.445 25.2576 139.529 25.3563 139.614 25.4573C139.874 25.7574 140.156 26.0342 140.44 26.3119C140.642 26.5113 140.826 26.7132 141.001 26.9377C141.062 27.0008 141.125 27.0634 141.188 27.1252C141.258 27.2042 141.327 27.2836 141.395 27.3635C141.538 27.5283 141.684 27.6849 141.84 27.8362C142.001 28.0002 142.001 28.0002 142.001 28.1252H142.126L142.188 28.2502L142.376 28.3127C142.544 28.4533 142.647 28.6203 142.751 28.8127V28.9377L142.86 28.9807C143.036 29.0835 143.126 29.2149 143.251 29.3752L143.438 29.5002V29.6252L143.626 29.6877C143.69 29.7906 143.752 29.895 143.813 30.0002C143.897 30.0986 143.983 30.1949 144.071 30.2893C144.508 30.7668 144.908 31.2739 145.311 31.7798C145.584 32.12 145.861 32.4568 146.139 32.7929C146.83 33.6305 147.447 34.4908 148.026 35.4096C148.109 35.5373 148.195 35.6596 148.286 35.7815C148.442 35.9957 148.565 36.2258 148.689 36.459L148.717 36.5112C148.962 36.9623 149.238 37.394 149.519 37.823C149.599 37.9565 149.669 38.0855 149.737 38.2251C149.908 38.5734 150.108 38.9046 150.305 39.2385C150.558 39.6668 150.806 40.0964 151.042 40.5338C151.151 40.7339 151.263 40.9316 151.376 41.1291L151.44 41.2409C151.564 41.4579 151.691 41.673 151.821 41.8869C151.978 42.1473 152.125 42.4125 152.269 42.6802C152.546 43.1876 152.826 43.6938 153.126 44.1877C153.557 44.9003 153.949 45.6305 154.315 46.3782C154.373 46.4948 154.432 46.6105 154.492 46.7261C154.767 47.2612 155.017 47.8062 155.262 48.3557L155.357 48.5671C155.541 48.9825 155.711 49.4009 155.87 49.8266C155.929 49.9758 155.992 50.1162 156.067 50.258C156.192 50.4968 156.279 50.7432 156.369 50.997C156.441 51.196 156.521 51.3906 156.602 51.5862C156.888 52.2855 157.12 53.0057 157.364 53.7204C157.513 54.1564 157.666 54.5912 157.819 55.0259L157.827 55.0478C157.876 55.1882 157.924 55.3288 157.973 55.4695C158.141 55.9582 158.325 56.4338 158.533 56.9077C158.644 57.1689 158.744 57.4335 158.842 57.6999C158.943 57.9727 159.046 58.2441 159.152 58.5149C159.644 59.774 160.007 60.9822 160.251 62.3127L160.294 62.5429C160.354 62.8988 160.387 63.2543 160.416 63.6138C160.501 64.6814 160.644 65.7402 160.903 66.7806C161.013 67.2251 161.101 67.6737 161.188 68.1231L161.193 68.1449C161.256 68.465 161.32 68.7843 161.391 69.1025C161.549 69.8042 161.673 70.5081 161.773 71.2199C161.786 71.3117 161.799 71.4035 161.813 71.4952C162.142 73.7433 162.086 76.0344 162.096 78.3003C162.1 79.0849 162.105 79.8695 162.109 80.6541L162.112 81.0437C162.121 82.5481 162.141 84.0521 162.167 85.5562C162.229 89.1644 162.136 92.6656 161.238 96.1779C161.184 96.3926 161.131 96.6078 161.078 96.823C160.894 97.5724 160.702 98.3168 160.478 99.055C160.401 99.3132 160.328 99.5729 160.255 99.8323C159.964 100.849 159.661 101.855 159.304 102.851C159.236 103.041 159.169 103.232 159.102 103.423L159.101 103.424C158.081 106.326 158.081 106.326 157.507 107.738C157.315 108.211 157.131 108.686 156.946 109.161C156.775 109.597 156.599 110.032 156.419 110.465C156.289 110.782 156.16 111.099 156.034 111.418L155.98 111.553L155.872 111.826C155.471 112.836 155.06 113.836 154.568 114.806C154.401 115.133 154.243 115.465 154.087 115.797C153.737 116.538 153.366 117.261 152.971 117.978C152.76 118.364 152.557 118.754 152.363 119.149C151.664 120.564 150.866 121.931 150.001 123.25L149.913 123.384C149.35 124.24 148.777 125.084 148.126 125.875C148.024 125.999 147.922 126.123 147.821 126.246L147.681 126.416C147.557 126.566 147.557 126.566 147.438 126.75H147.313L147.27 126.852C147.163 127.046 147.024 127.208 146.88 127.375L146.787 127.483C146.529 127.784 146.263 128.077 145.993 128.368C145.883 128.487 145.774 128.606 145.666 128.726C145.2 129.242 144.712 129.736 144.22 130.226C144.082 130.364 143.944 130.502 143.807 130.64C143.717 130.729 143.628 130.819 143.539 130.908L143.417 131.03C143.177 131.269 142.929 131.496 142.673 131.718C142.552 131.822 142.435 131.929 142.319 132.039L142.195 132.156L142.067 132.278L141.93 132.407C141.738 132.588 141.546 132.77 141.354 132.951C141.219 133.079 141.084 133.206 140.95 133.334L140.926 133.356L140.795 133.48C140.614 133.652 140.432 133.82 140.24 133.978C140.066 134.123 139.909 134.276 139.751 134.438C139.682 134.506 139.613 134.574 139.544 134.642C139.029 135.151 139.029 135.151 138.544 135.689C138.421 135.833 138.293 135.972 138.164 136.111L138.133 136.145C137.93 136.367 137.736 136.593 137.547 136.828C137.212 137.243 136.848 137.63 136.48 138.016C136.388 138.112 136.298 138.209 136.208 138.307C135.7 138.844 135.105 139.264 134.501 139.688L134.32 139.815C133.781 140.155 133.204 140.435 132.637 140.727C132.087 141.011 131.538 141.299 130.993 141.594L130.828 141.683C130.521 141.85 130.229 142.03 129.941 142.228C129.812 142.314 129.68 142.388 129.544 142.461C129.218 142.639 128.914 142.844 128.608 143.052C128.495 143.129 128.383 143.204 128.27 143.28C127.766 143.619 127.282 143.978 126.805 144.354C126.047 144.948 125.274 145.521 124.438 146L124.224 146.124C123.591 146.48 122.927 146.741 122.251 147C122.159 147.036 122.067 147.071 121.976 147.107L121.842 147.159L121.708 147.211L121.572 147.264L121.44 147.315L121.284 147.376C121.171 147.42 121.058 147.464 120.946 147.508C119.548 148.051 118.209 148.68 116.899 149.41L116.77 149.482C116.658 149.545 116.546 149.609 116.434 149.673C114.929 150.522 113.201 151.005 111.555 151.507C111.316 151.581 111.08 151.661 110.844 151.742C110.434 151.882 110.02 152.005 109.602 152.121C108.796 152.347 108.012 152.625 107.231 152.926C106.505 153.203 105.761 153.43 105.02 153.665C104.839 153.722 104.659 153.78 104.478 153.838C103.882 154.028 103.286 154.216 102.688 154.399C102.572 154.435 102.456 154.471 102.34 154.508C100.673 155.026 98.9409 155.287 97.2203 155.566L97.0188 155.599C96.8935 155.619 96.7683 155.64 96.6429 155.659C96.2273 155.727 95.822 155.82 95.4147 155.926L95.207 155.979L95.0367 156.023C93.4256 156.43 91.7801 156.695 90.1432 156.973C89.666 157.055 89.1898 157.141 88.714 157.231C88.3879 157.292 88.0653 157.336 87.735 157.367C87.1375 157.43 86.5611 157.576 85.9776 157.715C85.6077 157.803 85.2366 157.882 84.8639 157.957C83.4167 158.253 81.9745 158.583 80.5505 158.976C79.8384 159.172 79.119 159.33 78.3976 159.488C77.4002 159.706 76.4073 159.925 75.4381 160.25L75.2191 160.323C74.341 160.639 73.5327 161.095 72.8131 161.688L72.7105 161.771C71.8936 162.44 71.1536 163.17 70.5006 164C70.4096 164.11 70.3184 164.219 70.2272 164.328C69.8841 164.748 69.5661 165.185 69.2506 165.625L69.1744 165.731C68.8213 166.224 68.5037 166.733 68.1967 167.255C68.1247 167.377 68.0517 167.498 67.9784 167.619L67.9044 167.741C67.8588 167.816 67.8132 167.892 67.7674 167.967C67.5632 168.305 67.3756 168.652 67.1881 169L67.1288 169.11C66.3971 170.461 66.3971 170.461 65.7269 171.842C65.6242 172.066 65.5146 172.285 65.4029 172.504C65.1659 172.974 64.9582 173.455 64.7506 173.938C64.6389 174.194 64.5254 174.449 64.4037 174.701C63.9625 175.615 63.6419 176.567 63.3247 177.53C63.1651 178.012 62.9968 178.491 62.8248 178.969C62.1257 180.888 62.1257 180.888 61.5425 182.845C61.4817 183.07 61.4166 183.295 61.3515 183.519L61.3171 183.638C61.1037 184.375 60.9005 185.114 60.722 185.86C60.679 186.038 60.6335 186.214 60.5874 186.391C60.3198 187.494 60.276 188.634 60.1916 189.763C60.0862 191.164 59.9655 192.564 59.8131 193.961L59.7916 194.165C59.2761 199.011 59.2761 199.011 57.5697 200.397C57.3641 200.545 57.1542 200.681 56.9381 200.813L56.818 200.887C55.557 201.653 54.0872 202.109 52.61 201.785L52.4098 201.735C51.865 201.619 51.4479 201.625 50.9108 201.774C50.7944 201.803 50.6779 201.832 50.5614 201.861L50.3961 201.902C49.1033 202.217 47.4823 201.72 46.229 201.379C45.7115 201.24 45.2013 201.147 44.6683 201.089L44.4467 201.064C43.6889 200.986 42.9316 200.961 42.1704 200.943C40.9548 200.914 39.7408 200.872 38.5279 200.785L38.3727 200.775C37.8261 200.737 37.2848 200.681 36.743 200.599L36.5983 200.577C35.543 200.407 34.5866 199.929 33.9381 199.063C33.2667 198.1 33.5458 196.349 33.5507 195.223C33.5514 195.065 33.5518 194.908 33.5521 194.75C33.5556 193.177 33.5641 191.604 33.6201 190.032C33.6259 189.867 33.6313 189.703 33.6368 189.538C33.7047 187.546 33.979 185.761 34.5599 183.849C35.0311 182.293 35.4095 180.722 35.7146 179.125C35.7748 178.812 35.8376 178.498 35.9003 178.185L35.9068 178.153L35.9462 177.956C36.1445 176.968 36.3494 175.981 36.57 174.997C36.5972 174.876 36.6243 174.754 36.6514 174.633C36.7753 174.085 36.9143 173.542 37.0631 173L37.107 172.84C37.4258 171.691 37.8537 170.574 38.2853 169.464C38.4415 169.059 38.5835 168.649 38.7233 168.239C38.7778 168.079 38.8324 167.92 38.8871 167.761L38.9299 167.637C39.7965 165.117 39.7965 165.117 40.2436 164.042C40.3238 163.849 40.4032 163.656 40.4826 163.463L40.4862 163.454C40.9573 162.309 41.4388 161.169 41.9244 160.03C42.2112 159.356 42.4926 158.681 42.7623 158C43.0624 157.244 43.3888 156.503 43.7294 155.764C44.0613 155.044 44.3833 154.322 44.6873 153.59C44.8047 153.308 44.924 153.027 45.0436 152.746L45.1111 152.586C45.223 152.324 45.3408 152.067 45.4706 151.813C45.5997 151.558 45.7098 151.301 45.8133 151.035C46.0035 150.547 46.2113 150.067 46.4135 149.584C46.5004 149.376 46.5864 149.167 46.6722 148.958C46.9937 148.18 47.3368 147.428 47.743 146.691C47.8076 146.573 47.8705 146.454 47.9325 146.334C48.2817 145.664 48.6651 145.014 49.0488 144.363L49.0794 144.311C49.1535 144.184 49.2269 144.058 49.2998 143.931C49.5145 143.558 49.7374 143.197 49.9889 142.848L50.0853 142.713C50.3805 142.301 50.6869 141.898 51.0006 141.5L51.1322 141.331C51.2505 141.188 51.38 141.08 51.524 140.965C51.6798 140.827 51.8087 140.669 51.9435 140.511C52.2674 140.143 52.6232 139.807 52.9952 139.488C53.1412 139.362 53.2837 139.232 53.4264 139.102C53.9279 138.651 54.4511 138.236 54.9973 137.841C55.3717 137.569 55.7361 137.284 56.0988 136.997C56.3689 136.784 56.6447 136.587 56.9322 136.399C57.108 136.283 57.28 136.163 57.4524 136.043L57.4576 136.039C58.187 135.533 58.9306 135.052 59.6834 134.581C59.7868 134.517 59.89 134.452 59.993 134.386C61.7323 133.309 63.7137 132.528 65.6396 131.859C66.5047 131.557 67.3567 131.226 68.1996 130.867C68.8823 130.577 69.5789 130.326 70.2794 130.082C70.5062 130.003 70.7316 129.922 70.9554 129.834C71.5666 129.598 72.1852 129.404 72.817 129.231L73.049 129.167C73.6698 128.999 74.2869 128.873 74.9239 128.787C75.6102 128.692 76.2936 128.582 76.9772 128.469L77.1589 128.439C77.2683 128.421 77.3776 128.403 77.487 128.385C77.5987 128.367 77.7103 128.349 77.822 128.33C78.0928 128.286 78.3637 128.242 78.635 128.201C79.1751 128.118 79.7066 128.023 80.2389 127.899C81.1356 127.699 82.0401 127.547 82.9459 127.395L83.1604 127.358C84.002 127.216 84.8427 127.095 85.6911 127.001C86.1917 126.946 86.6877 126.878 87.1842 126.793L87.4188 126.753C88.3936 126.584 89.3614 126.378 90.3148 126.113C91.0313 125.915 91.7532 125.776 92.485 125.649L92.6502 125.62C93.2397 125.518 93.8286 125.425 94.4221 125.35C95.8939 125.16 97.3128 124.668 98.6848 124.114C98.8457 124.05 99.008 123.989 99.1703 123.929L99.2193 123.91C99.9693 123.622 100.708 123.297 101.438 122.961C101.71 122.837 101.982 122.713 102.255 122.59L102.411 122.519C102.659 122.407 102.907 122.3 103.161 122.202C103.64 122.013 104.1 121.781 104.563 121.555L104.711 121.483C105.377 121.158 106.037 120.83 106.676 120.455C106.825 120.368 106.975 120.282 107.125 120.196L107.159 120.177C108.023 119.678 108.796 119.131 109.553 118.481C109.735 118.325 109.92 118.174 110.106 118.024C110.383 117.799 110.647 117.563 110.91 117.323C111.055 117.195 111.203 117.076 111.356 116.957C111.727 116.665 112.066 116.34 112.409 116.016C112.6 115.836 112.796 115.661 112.995 115.49C113.166 115.34 113.333 115.185 113.5 115.03L113.532 115C113.79 114.761 114.049 114.525 114.315 114.295C114.465 114.164 114.614 114.032 114.762 113.899L114.913 113.763C115.072 113.617 115.224 113.466 115.376 113.313L115.527 113.163C115.809 112.885 116.079 112.604 116.336 112.303C116.436 112.19 116.54 112.086 116.649 111.981C116.879 111.755 117.078 111.508 117.279 111.257C117.489 110.998 117.708 110.747 117.928 110.497C118.117 110.279 118.281 110.056 118.438 109.813C118.506 109.717 118.573 109.622 118.641 109.528C118.851 109.229 119.042 108.921 119.232 108.61C119.996 107.356 120.79 106.114 121.636 104.915C121.889 104.552 122.131 104.181 122.376 103.813C122.796 103.178 123.219 102.547 123.671 101.934C123.935 101.57 124.183 101.197 124.43 100.821C124.697 100.416 124.964 100.017 125.266 99.6369C125.639 99.1671 125.949 98.6581 126.261 98.1473L126.313 98.0627L126.392 97.9342C126.682 97.46 126.958 96.9792 127.228 96.4929C127.374 96.2324 127.53 95.9828 127.696 95.7346C128.52 94.4924 129.158 93.1001 129.791 91.7537C129.938 91.4431 130.088 91.1349 130.243 90.8283C130.453 90.4112 130.658 89.9915 130.86 89.5705L130.947 89.3904C131.103 89.0645 131.246 88.7369 131.377 88.4004C131.476 88.1555 131.59 87.9179 131.704 87.6799L131.777 87.5256C131.936 87.1933 132.1 86.8639 132.266 86.5354C132.56 85.9529 132.801 85.3533 133.032 84.7434C133.103 84.5582 133.176 84.3744 133.251 84.1907C133.783 82.8701 134.216 81.5374 134.528 80.1487L134.56 80.0091C134.781 79.0272 134.899 78.0551 134.887 77.0471L134.886 76.8172C134.883 76.6073 134.88 76.3976 134.876 76.1877L134.873 76.0461C134.835 74.5578 134.419 72.9757 133.955 71.5691C133.853 71.2518 133.774 70.9286 133.692 70.6057C133.538 70.0007 133.36 69.407 133.166 68.8135C133.111 68.6409 133.06 68.4671 133.008 68.2932C132.752 67.4567 132.443 66.6348 132.09 65.8344C131.991 65.6017 131.901 65.3665 131.813 65.1291C131.524 64.3502 131.213 63.5938 130.853 62.8452C130.727 62.5844 130.605 62.3223 130.484 62.0595L130.431 61.9433C130.343 61.7532 130.256 61.563 130.169 61.3726C129.987 60.977 129.795 60.5913 129.58 60.2121C129.503 60.0673 129.441 59.9231 129.383 59.7698C129.138 59.1322 128.805 58.528 128.476 57.9301L128.426 57.8401L128.35 57.7004C128.229 57.4837 128.104 57.2768 127.958 57.0759C127.85 56.9259 127.773 56.8014 127.696 56.6369C127.573 56.3813 127.418 56.1595 127.252 55.9297C127.136 55.7653 127.026 55.598 126.916 55.4292C126.551 54.8688 126.146 54.3445 125.731 53.8209C125.634 53.6982 125.538 53.5746 125.443 53.4504C125.102 53.0059 124.741 52.5887 124.357 52.1806C124.224 52.038 124.093 51.8942 123.965 51.7463C123.511 51.2237 123.04 50.7211 122.551 50.2307L122.428 50.1062C121.629 49.3104 120.736 48.628 119.811 47.987C119.639 47.8676 119.471 47.7443 119.305 47.6177C119.108 47.4691 118.907 47.3347 118.696 47.2073L118.485 47.0793L118.371 47.0108C118.213 46.9149 118.055 46.818 117.897 46.7211L117.84 46.6861C117.647 46.568 117.454 46.4503 117.261 46.3327C117.176 46.2811 117.092 46.2295 117.007 46.1777C116.431 45.8262 115.847 45.4921 115.258 45.163C114.953 44.9921 114.654 44.8165 114.359 44.6295C114.212 44.5392 114.061 44.4622 113.907 44.3869L113.713 44.2915L113.501 44.1877C113.339 44.1073 113.178 44.0264 113.016 43.9455L112.76 43.8174L112.119 43.4968C112.034 43.4547 111.95 43.4125 111.866 43.3704C111.675 43.2754 111.485 43.18 111.296 43.0832C110.893 42.8782 110.486 42.6861 110.074 42.5C109.518 42.2487 108.979 41.992 108.453 41.6804C108.063 41.454 107.656 41.2598 107.251 41.0627L107.089 40.9838C105.569 40.2423 104.036 39.5876 102.427 39.0613C102.11 38.956 101.803 38.8361 101.497 38.7033L101.186 38.571L101.029 38.5037C100.194 38.1454 99.3537 37.8008 98.5087 37.4658C98.2724 37.372 98.0372 37.2762 97.8031 37.1772C97.0494 36.861 96.2842 36.631 95.494 36.4233C95.3146 36.3756 95.1361 36.3256 94.9574 36.2754C94.7104 36.2078 94.465 36.1546 94.2128 36.111C93.0655 35.9104 91.9533 35.5228 90.8604 35.127C90.3932 34.9588 89.9172 34.8237 89.4397 34.6882L89.4381 34.6877L89.2956 34.6469L89.1256 34.5981C88.9042 34.5347 88.6828 34.4714 88.4613 34.4084C88.2432 34.3464 88.0253 34.2839 87.8075 34.2209C86.9972 33.9871 86.1847 33.7628 85.3691 33.5484C85.2156 33.5076 85.0629 33.4649 84.9103 33.4214C84.3833 33.2769 83.8648 33.2199 83.321 33.1826L83.088 33.1664C82.2955 33.1148 81.5047 33.1044 80.7108 33.1015C80.5561 33.1005 80.4014 33.0995 80.2466 33.0984C79.9216 33.0962 79.5966 33.0943 79.2715 33.0926C78.7643 33.0901 78.2571 33.0868 77.7499 33.0834L77.6221 33.0825L77.1124 33.079C76.8595 33.0773 76.6065 33.0756 76.3536 33.0739C74.8207 33.0639 73.288 33.0454 71.7552 33.0213C67.2502 32.9029 67.2502 32.9029 62.8131 33.5627C62.688 33.593 62.5628 33.6231 62.4376 33.6531C61.768 33.8153 61.1022 33.9914 60.4386 34.1765C60.1573 34.2546 59.8756 34.3283 59.5918 34.3971C59.0462 34.5299 58.5111 34.6878 57.9761 34.8581C57.8363 34.9026 57.6963 34.9466 57.5563 34.9906C57.0621 35.1464 56.5728 35.3114 56.0856 35.488C55.8157 35.584 55.5435 35.672 55.271 35.7601L55.2367 35.7711C54.1181 36.1342 53.0275 36.5581 51.9381 37.0002L51.7635 37.0708C51.4667 37.1911 51.1709 37.3138 50.8756 37.4377C50.7835 37.4761 50.6914 37.5146 50.5992 37.553C49.535 37.9978 48.476 38.4555 47.4269 38.935C47.1287 39.0706 46.8279 39.1961 46.5233 39.3166C45.7749 39.6136 45.0626 39.9656 44.3546 40.348C44.1763 40.4441 43.9975 40.5392 43.8187 40.6343C42.8428 41.1552 41.8723 41.6801 40.9962 42.3596C40.7905 42.5176 40.5798 42.6672 40.3678 42.8166C39.5209 43.4179 38.7353 44.0993 37.9679 44.7983C37.8833 44.8745 37.7983 44.9503 37.7115 45.024C37.3333 45.3469 36.9826 45.6963 36.6318 46.0483C36.5281 46.1524 36.4241 46.2561 36.3201 46.3597C36.0046 46.675 35.6939 46.9919 35.4041 47.3314C35.2664 47.4923 35.1215 47.646 34.9772 47.801C34.7077 48.0927 34.452 48.3928 34.203 48.7024C34.0575 48.8822 33.9081 49.0583 33.7584 49.2346C32.0698 51.2614 31.2614 53.4211 30.8131 56.0002C30.7972 56.0851 30.781 56.17 30.7648 56.2549L30.7398 56.3852L30.7154 56.5119C30.5737 57.251 30.4778 57.983 30.4342 58.7346L30.4263 58.8646C30.3871 59.51 30.3639 60.1546 30.3483 60.801C30.3279 61.6359 30.2806 62.4679 30.2233 63.301L30.2116 63.4756C30.0825 65.3875 30.0825 65.3875 29.6949 65.7295C29.2974 65.9855 28.8822 66.1815 28.4498 66.3713L28.2853 66.4437C27.1603 66.9246 26.0213 67.2826 24.8326 67.5666C24.7002 67.5988 24.5679 67.6312 24.4355 67.6635C24.2398 67.7114 24.0441 67.7593 23.8483 67.8068C23.2821 67.9444 22.7183 68.09 22.1556 68.2413C21.6704 68.3697 21.1808 68.4679 20.6881 68.5627C20.596 68.5806 20.5039 68.5985 20.4118 68.6165C20.1683 68.6638 19.9246 68.7105 19.6809 68.7569C19.5815 68.7759 19.4822 68.795 19.3828 68.8142C18.3855 69.0068 17.3979 69.1396 16.3834 69.1916C16.2867 69.1968 16.19 69.202 16.0934 69.2072C15.8556 69.2199 15.6178 69.232 15.38 69.2438C15.2616 69.2497 15.1433 69.2557 15.0249 69.2617C14.5794 69.284 14.134 69.3012 13.6881 69.3127L13.4802 69.3182C10.5381 69.3842 10.5381 69.3842 9.42247 68.3557C8.7868 67.7477 8.18705 67.1004 7.60997 66.4369C7.42667 66.2288 7.23717 66.0267 7.04747 65.8244L6.93175 65.7005C6.73048 65.4838 6.73048 65.4838 6.5197 65.2764C6.4381 65.1877 6.4381 65.1877 6.4381 65.0627H6.3131C6.2218 64.9711 6.2218 64.9711 6.11608 64.8442C5.88642 64.5742 5.64678 64.316 5.40294 64.0588C5.31463 63.9652 5.22634 63.8716 5.13805 63.7781C5.01087 63.6434 4.88366 63.5087 4.75636 63.3742C4.33364 62.9269 3.91921 62.4754 3.52228 62.0049C3.26052 61.6955 2.98552 61.4005 2.70543 61.1076C2.3982 60.7409 2.34916 60.4508 2.35948 59.9897L2.36073 59.8239C2.36219 59.6496 2.36492 59.4753 2.36778 59.301C2.3707 59.0722 2.37308 58.8435 2.37511 58.6147L2.3767 58.4487C2.37867 58.1147 2.36593 57.7874 2.32894 57.4551C2.14003 55.7572 2.5315 53.959 2.81218 52.2889C2.94218 51.5035 3.04779 50.7151 3.15294 49.926L3.18097 49.7159C3.23697 49.2959 3.2927 48.8759 3.34834 48.4559C3.41678 47.9395 3.48549 47.4232 3.55506 46.907C3.57795 46.7365 3.60049 46.5659 3.62302 46.3953C3.74447 45.4866 3.90897 44.6029 4.17247 43.7229L4.23821 43.5019C4.38794 43.0109 4.56156 42.5423 4.78014 42.0781C4.86497 41.8978 4.94052 41.7172 5.01232 41.5315C5.10071 41.3058 5.20302 41.0924 5.31407 40.8772C5.37896 40.7433 5.43213 40.608 5.48497 40.469C5.59353 40.1914 5.72147 39.926 5.85607 39.6604C6.23282 38.9167 6.60144 38.1678 6.91564 37.3952C7.27317 36.5219 7.65476 35.6585 8.04613 34.7999C8.10273 34.6755 8.1591 34.551 8.21532 34.4264C8.92994 32.8433 8.92994 32.8433 9.3756 32.1252L9.48351 31.949C10.1907 30.8156 11.01 29.7539 11.8131 28.6877C12.1934 28.1825 12.5725 27.6767 12.9435 27.1645C13.5318 26.3565 14.141 25.5675 14.7952 24.8119C15.0889 24.4724 15.3705 24.1239 15.6454 23.769C15.7798 23.6 15.9227 23.4559 16.0865 23.3166C16.3536 23.0897 16.598 22.8429 16.8443 22.594C17.1178 22.3181 17.3906 22.0467 17.6874 21.7956C17.8501 21.656 18.0076 21.5108 18.1653 21.3656L18.1803 21.3518C18.2451 21.2922 18.31 21.2326 18.3749 21.1731L18.471 21.0848C19.1243 20.4849 19.8071 19.9279 20.5006 19.3752L20.6498 19.2556C20.8694 19.0803 21.0904 18.9069 21.3115 18.7334L21.3311 18.7181C21.5225 18.5679 21.7139 18.4175 21.9046 18.2663C22.9807 17.4149 24.0901 16.6147 25.2223 15.8399C25.477 15.6654 25.7307 15.4896 25.9838 15.3127L26.1742 15.1797C26.297 15.0939 26.4197 15.0079 26.5424 14.9218C26.8844 14.6828 27.2311 14.4547 27.5841 14.2323C27.7952 14.0965 27.9996 13.9524 28.2045 13.8074C28.5583 13.5599 28.9185 13.3216 29.2779 13.0823L29.4035 12.9986C30.0754 12.5513 30.7502 12.1101 31.4381 11.6877L31.6163 11.5778C32.8791 10.8007 34.1657 10.0994 35.526 9.50825C35.6981 9.43335 35.8699 9.35758 36.0416 9.28172C37.272 8.74008 38.5181 8.25141 39.7828 7.79612C40.3932 7.57062 40.964 7.27555 41.5406 6.97743L41.5934 6.95017C42.1713 6.65429 42.7605 6.38445 43.3522 6.11741L43.4762 6.06139C43.7161 5.95316 43.9563 5.84572 44.197 5.73918C44.3104 5.68894 44.4236 5.63841 44.5369 5.58787C45.0399 5.36707 45.5474 5.18198 46.0709 5.01585L46.1938 4.97658C47.6603 4.50872 49.1458 4.08123 50.6565 3.78156C50.8109 3.75067 50.9648 3.71808 51.1188 3.68504C51.6811 3.56597 52.2439 3.47135 52.8131 3.39085C53.5822 3.28158 54.3458 3.14761 55.11 3.00804L55.2903 2.97515C55.9467 2.85517 56.6024 2.7323 57.2563 2.59925C57.943 2.46243 58.6291 2.33939 59.3236 2.24925L59.4471 2.23322C60.4054 2.1104 61.3666 2.04603 62.3307 1.98711C62.7586 1.96095 63.1864 1.93284 63.6143 1.90473L63.6994 1.89914C63.8006 1.89249 63.9019 1.88586 64.0032 1.87925C72.4205 1.32979 71.9526 1.32235 78.9718 1.7752ZM71.7244 9.38775C71.9834 9.3769 72.2423 9.36605 72.5012 9.35489C73.8333 9.29719 75.1648 9.24106 76.4983 9.23929L76.6537 9.23924C77.2373 9.2383 77.8176 9.24961 78.4001 9.28693C78.9069 9.31955 78.9069 9.31955 79.9456 9.36373L80.1249 9.37132C80.5838 9.39087 81.0427 9.41019 81.5016 9.4292L81.7076 9.43772C83.6422 9.51809 85.5754 9.59052 87.5117 9.61021L87.7147 9.61225L87.9122 9.61424C90.5608 9.64046 93.0974 9.9251 95.6803 10.5158C96.1696 10.6293 96.6574 10.7306 97.1529 10.8127C97.6893 10.9014 98.2196 11.0087 98.7506 11.1252C99.229 11.2302 99.7067 11.3304 100.19 11.412C100.698 11.4965 101.202 11.5893 101.704 11.7073C102.207 11.8258 102.712 11.9313 103.219 12.0309C105.389 12.4563 107.471 12.9674 109.51 13.844C109.824 13.9794 110.141 14.1081 110.46 14.2346C111.628 14.6973 112.787 15.1802 113.94 15.6782L114.251 15.8127C114.399 15.8767 114.548 15.9407 114.696 16.0053L114.837 16.0666C115.257 16.2471 115.659 16.46 116.061 16.6768C116.375 16.8463 116.375 16.8463 117.058 17.2099L117.309 17.344C117.817 17.6153 118.325 17.8836 118.841 18.1399C119.144 18.2904 119.446 18.443 119.744 18.6032C120.375 18.943 121.019 19.2541 121.667 19.562C121.862 19.6546 122.057 19.7473 122.252 19.8404L122.436 19.9287L122.797 20.1018L122.849 20.1265L122.849 20.1267L122.952 20.176C123.193 20.2914 123.434 20.4065 123.676 20.5193C124.315 20.8157 124.939 21.1169 125.536 21.4905C125.644 21.5581 125.751 21.6253 125.859 21.6911C126.2 21.8966 126.538 22.1036 126.864 22.3323C127.091 22.4943 127.32 22.6545 127.55 22.8129L127.68 22.9026C127.916 23.0648 128.152 23.2262 128.39 23.3835C128.707 23.5906 129.014 23.8041 129.313 24.0354C129.556 24.225 129.8 24.4129 130.047 24.5971C130.617 25.0221 131.183 25.4512 131.736 25.8987C131.857 25.9968 131.978 26.0944 132.099 26.1916C132.736 26.698 133.369 27.2078 133.989 27.7346C134.177 27.8949 134.365 28.0544 134.557 28.2107L134.558 28.2117C134.782 28.393 135.005 28.5738 135.221 28.7654C135.482 29.0037 135.745 29.2377 136.02 29.4612C136.203 29.6088 136.384 29.7573 136.562 29.9099C136.987 30.2754 137.423 30.622 137.87 30.9608C138.351 31.3261 138.821 31.7026 139.282 32.094C139.468 32.2528 139.655 32.411 139.846 32.5642C140.164 32.8148 140.473 33.0738 140.778 33.3401C140.935 33.4778 141.091 33.6154 141.251 33.7502C141.837 34.2092 142.357 34.7167 142.881 35.2459C142.977 35.3431 143.073 35.4402 143.169 35.5371C143.394 35.7632 143.619 35.9895 143.843 36.2161C143.948 36.3215 144.052 36.4268 144.157 36.5313C144.278 36.6511 144.392 36.77 144.5 36.9018C144.618 37.053 144.74 37.2005 144.863 37.3472L144.95 37.4494C145.116 37.6458 145.282 37.841 145.454 38.032C145.938 38.5597 146.386 39.1171 146.829 39.6792C147.044 39.9519 147.266 40.2133 147.501 40.469C147.69 40.6751 147.873 40.8825 148.047 41.1018C148.276 41.393 148.511 41.6794 148.747 41.9651C148.922 42.1778 149.099 42.39 149.272 42.6042C149.479 42.8605 149.686 43.1156 149.906 43.3603C150.151 43.6273 150.395 43.8929 150.622 44.176C150.706 44.2841 150.791 44.3922 150.876 44.5002C151.69 45.4932 152.341 46.538 152.866 47.712L152.938 47.8752C153.157 48.3691 153.388 48.8636 153.54 49.383C153.599 49.6043 153.67 49.8192 153.747 50.0348C153.883 50.4123 154.015 50.7906 154.142 51.1711L154.188 51.311C154.251 51.5003 154.313 51.6897 154.376 51.8791C154.965 53.675 155.68 55.4078 156.475 57.1226C156.754 57.722 157.029 58.3218 157.286 58.931C157.386 59.1687 157.486 59.4058 157.592 59.6413C158.322 61.2649 158.69 62.8065 158.907 64.5627C159.036 65.6118 159.211 66.6438 159.422 67.6794C159.46 67.8629 159.497 68.0464 159.534 68.23L159.565 68.3874C159.585 68.4888 159.606 68.5902 159.626 68.6916C159.678 68.9563 159.73 69.2208 159.789 69.4841C160.418 73.8454 160.418 73.8454 160.398 78.2639C160.399 78.5197 160.399 78.7754 160.399 79.0312C160.401 79.7481 160.402 80.465 160.402 81.182L160.402 81.3196L160.402 81.5956L160.402 81.7339L160.402 81.8724C160.402 82.6134 160.404 83.3544 160.406 84.0954C160.408 84.8668 160.41 85.6381 160.41 86.4094C160.41 86.8405 160.41 87.2716 160.412 87.7027C160.423 90.1875 160.39 92.6546 159.743 95.0696C159.671 95.3311 159.601 95.5929 159.535 95.8558C159.266 96.9225 158.981 97.9846 158.684 99.0436L158.626 99.2502C158.455 99.8671 158.265 100.475 158.061 101.081C158.028 101.18 157.995 101.279 157.962 101.378C157.731 102.066 157.5 102.753 157.256 103.437L157.188 103.625C157.07 103.956 156.951 104.286 156.832 104.616L156.778 104.766C156.473 105.612 156.165 106.458 155.838 107.296C155.704 107.637 155.571 107.977 155.442 108.319C154.844 109.898 154.212 111.462 153.512 112.999C153.426 113.187 153.34 113.375 153.259 113.565C152.647 114.906 152.647 114.906 151.965 116.214C151.803 116.527 151.642 116.841 151.485 117.157C151.32 117.489 151.156 117.82 150.973 118.143C150.928 118.219 150.884 118.296 150.841 118.373L150.768 118.5C150.65 118.708 150.532 118.916 150.415 119.125C150.368 119.209 150.321 119.292 150.274 119.376C150.181 119.541 150.088 119.707 149.995 119.872C149.279 121.151 148.552 122.404 147.699 123.598C147.599 123.738 147.498 123.879 147.398 124.02C147.067 124.487 146.736 124.952 146.368 125.391C146.208 125.578 146.05 125.765 145.9 125.96C145.602 126.347 145.298 126.719 144.962 127.074C144.784 127.258 144.61 127.441 144.451 127.641C144.07 128.126 143.646 128.558 143.21 128.992C143.064 129.137 142.919 129.281 142.773 129.427C142.265 129.935 141.754 130.439 141.22 130.922C141.109 131.022 140.998 131.122 140.887 131.222C140.738 131.357 140.588 131.491 140.438 131.625C140.048 131.957 139.687 132.31 139.329 132.676L139.17 132.838L139.017 132.994C138.885 133.129 138.775 133.237 138.609 133.329L138.501 133.375V133.5L138.352 133.629C137.809 134.064 137.809 134.064 136.631 135.176C136.227 135.559 135.827 135.946 135.395 136.297C135.218 136.437 135.045 136.579 134.876 136.728C134.406 137.142 133.914 137.481 133.375 137.801C133.294 137.849 133.213 137.898 133.132 137.947C132.938 138.064 132.745 138.181 132.55 138.297C132.432 138.366 132.315 138.437 132.198 138.508C131.512 138.927 130.805 139.3 130.089 139.666C129.561 139.935 129.028 140.199 128.525 140.513L128.329 140.641C127.982 140.866 127.637 141.095 127.293 141.325L127.292 141.326C127.204 141.385 127.115 141.445 127.026 141.504C126.957 141.55 126.888 141.596 126.819 141.641C126.319 141.967 125.836 142.305 125.366 142.673C124.039 143.716 122.604 144.373 121.032 144.969C120.609 145.129 120.609 145.129 119.724 145.5C119.459 145.611 119.193 145.723 118.926 145.832L118.905 145.84C118.221 146.118 117.543 146.394 116.898 146.755L116.688 146.875C116.35 147.066 116.012 147.256 115.679 147.455C114.486 148.171 113.332 148.661 111.989 149.023C111.395 149.181 110.812 149.349 110.234 149.558C109.966 149.656 109.697 149.747 109.424 149.829L109.29 149.867C109.128 149.915 108.966 149.963 108.803 150.011C107.504 150.39 106.182 150.741 104.917 151.227C104.405 151.428 103.893 151.59 103.364 151.739C102.819 151.891 102.276 152.048 101.735 152.217C101.137 152.405 100.538 152.592 99.9342 152.762C99.6774 152.834 99.4205 152.905 99.1654 152.983C98.1321 153.305 97.0862 153.561 96.0309 153.8L95.9391 153.821C95.285 153.968 94.6338 154.114 93.9928 154.313C93.356 154.51 92.7134 154.677 92.0647 154.831L91.8756 154.875C90.9938 155.085 90.1139 155.228 89.2142 155.332C86.6597 155.626 84.0981 156.133 81.6156 156.808C81.3314 156.885 81.0466 156.957 80.7598 157.024C80.1969 157.155 79.6365 157.294 79.0769 157.438L78.9264 157.477C78.7123 157.532 78.4981 157.587 78.284 157.643C77.9564 157.727 77.6288 157.812 77.3009 157.896C75.2594 158.415 73.391 158.98 71.6944 160.287C71.5947 160.365 71.4949 160.442 71.3938 160.518C70.8848 160.896 70.4393 161.291 70.0251 161.773C69.9645 161.844 69.9037 161.915 69.8428 161.986C69.7118 162.137 69.5809 162.289 69.4511 162.442C69.3224 162.593 69.1935 162.744 69.0611 162.893C68.8588 163.117 68.6746 163.349 68.4967 163.594L68.4612 163.644C68.3614 163.783 68.2617 163.923 68.1576 164.06C67.5916 164.793 67.5916 164.793 66.587 166.461C66.4874 166.627 66.3879 166.792 66.2876 166.958C65.6413 168.024 65.0788 169.133 64.5461 170.259C64.435 170.494 64.3239 170.729 64.2066 170.961C63.9531 171.452 63.7377 171.957 63.5226 172.466C63.4509 172.636 63.3788 172.805 63.3055 172.974C62.9375 173.816 62.5954 174.664 62.2726 175.524L62.1881 175.75C61.6549 177.177 61.1634 178.616 60.6881 180.063C60.5053 180.622 60.3134 181.177 60.1118 181.73C59.7644 182.682 59.4087 183.63 59.1596 184.613L59.1256 184.75C58.9052 185.625 58.7441 186.502 58.6183 187.396L58.5983 187.539C58.4796 188.385 58.3871 189.23 58.3143 190.08C58.2538 190.789 58.1792 191.495 58.0925 192.201L58.0631 192.438C58.0249 192.747 57.9866 193.056 57.9477 193.364L57.9068 193.688C57.784 194.669 57.6735 195.659 57.407 196.614L57.3522 196.801C57.1192 197.608 56.962 198.491 56.2159 198.98C55.2687 199.497 54.2501 199.629 53.2037 199.383C52.1872 199.139 51.2363 198.965 50.2858 199.492C50.1293 199.581 49.973 199.668 49.8131 199.75C49.0856 200.052 48.5592 200.018 47.8241 199.764C46.6567 199.347 45.5504 199.115 44.3062 199.093C44.207 199.091 44.1078 199.089 44.0086 199.087C43.2992 199.071 42.5898 199.061 41.8803 199.053C41.7344 199.051 41.5885 199.05 41.4426 199.048L41.1458 199.044L40.9964 199.042C40.7489 199.039 40.5014 199.036 40.2538 199.034C38.8456 199.022 36.7824 199.289 35.5006 198.688C35.5285 198.417 35.583 198.168 35.6605 197.907C35.9501 196.944 36.103 196.054 36.1469 195.052L36.1539 194.885C36.175 194.395 36.1943 193.904 36.2128 193.414C36.2253 193.079 36.2381 192.744 36.2511 192.409C36.2607 192.161 36.2704 191.913 36.2794 191.664C36.3416 189.941 36.4294 188.221 36.7161 186.518L36.7389 186.383C36.8583 185.66 36.997 184.946 37.1768 184.235C37.3035 183.736 37.4084 183.235 37.5069 182.729C37.5761 182.374 37.6471 182.02 37.7218 181.666L37.7532 181.517C37.8806 180.915 38.0078 180.313 38.0983 179.703C38.1539 179.324 38.222 178.949 38.2995 178.573C38.4125 178.028 38.5155 177.485 38.5925 176.934C38.6896 176.23 38.8165 175.544 38.9829 174.853C39.0793 174.452 39.168 174.052 39.2473 173.647C39.355 173.093 39.4686 172.541 39.6022 171.992C39.6718 171.708 39.7409 171.425 39.7965 171.138C39.9088 170.521 40.0779 169.928 40.2579 169.328C40.3156 169.137 40.3731 168.946 40.4294 168.755C40.6722 167.926 40.9452 167.112 41.243 166.301C41.3226 166.084 41.4006 165.867 41.475 165.649C41.6779 165.053 41.9144 164.476 42.1661 163.899C42.2855 163.626 42.4038 163.353 42.5213 163.079L42.5904 162.918C42.821 162.381 43.0468 161.842 43.2711 161.302C43.4154 160.955 43.5602 160.608 43.7063 160.261L43.7701 160.11C43.8469 159.927 43.9237 159.745 44.0006 159.563L44.0401 159.47L44.0403 159.469L44.081 159.373C44.1765 159.148 44.271 158.923 44.3586 158.694C44.7807 157.58 45.2661 156.495 45.8121 155.435L45.8756 155.313C46.2789 154.534 46.6889 153.757 47.1647 153.02C47.2738 152.851 47.378 152.683 47.4752 152.508C47.6074 152.26 47.7336 152.013 47.899 151.785C47.9925 151.66 48.0814 151.535 48.1673 151.405C48.4699 150.94 48.794 150.497 49.129 150.056C49.217 149.94 49.3046 149.824 49.3905 149.707C49.6793 149.309 49.9803 148.936 50.3158 148.577C50.4822 148.4 50.644 148.221 50.8014 148.035C50.9197 147.894 51.0373 147.782 51.1796 147.662C51.3041 147.56 51.4225 147.457 51.5411 147.348C52.3134 146.622 53.1318 145.97 54.0159 145.385L54.1256 145.313C54.6249 144.978 55.1443 144.685 55.6708 144.396L55.9381 144.25C56.9005 143.718 57.8767 143.214 58.8614 142.725C59.0174 142.648 59.1734 142.57 59.329 142.492C59.7898 142.259 60.2517 142.031 60.7193 141.813C61.0281 141.669 61.3351 141.522 61.6394 141.369C62.4195 140.975 63.2126 140.616 64.0174 140.276C64.1116 140.236 64.2057 140.197 64.2999 140.157L64.3756 140.125C66.7457 139.112 69.2161 138.412 71.7742 138.086C72.572 137.985 73.3643 137.857 74.1572 137.724L74.3756 137.688C75.031 137.58 75.6767 137.46 76.3197 137.293C78.1681 136.81 80.0511 136.433 81.9571 136.288C83.6399 136.162 85.3922 136.014 86.9899 135.447C87.2659 135.349 87.5397 135.265 87.8248 135.196C88.2895 135.084 88.7521 134.966 89.2146 134.846C89.6778 134.726 90.1408 134.604 90.6056 134.49C91.573 134.254 92.538 133.997 93.4811 133.676C93.8022 133.566 94.1227 133.463 94.4498 133.371C94.7523 133.287 95.0508 133.195 95.3483 133.094C95.5663 133.02 95.7841 132.946 96.0045 132.88C96.3532 132.777 96.6955 132.663 97.036 132.536C97.8574 132.23 98.6892 131.96 99.5236 131.691C100.509 131.374 101.51 131.074 102.46 130.659C102.564 130.613 102.668 130.567 102.771 130.522L102.939 130.448C103.127 130.366 103.317 130.285 103.508 130.208C104.23 129.919 104.934 129.592 105.638 129.262C106.187 129.005 106.734 128.743 107.293 128.509C107.387 128.47 107.482 128.43 107.576 128.391L107.734 128.325C107.902 128.255 108.071 128.184 108.239 128.112C109.11 127.738 109.985 127.411 110.887 127.12C112.544 126.585 114.058 125.829 115.526 124.893C115.601 124.845 115.676 124.798 115.751 124.75C116.131 124.519 116.494 124.276 116.849 124.008L116.993 123.899C117.229 123.719 117.458 123.542 117.671 123.334C117.809 123.187 117.809 123.187 117.956 123.068L118.102 122.953C118.214 122.865 118.326 122.776 118.438 122.688C119.527 121.851 119.527 121.851 121.407 119.75C121.617 119.515 121.83 119.284 122.046 119.054L122.172 118.918C122.323 118.757 122.473 118.597 122.626 118.438C122.79 118.276 122.946 118.116 123.094 117.94C123.195 117.817 123.299 117.696 123.405 117.578L123.567 117.403C123.723 117.233 123.879 117.064 124.036 116.895L124.134 116.789L124.329 116.578C124.538 116.353 124.743 116.125 124.942 115.891C125.033 115.776 125.033 115.776 125.126 115.688L125.313 115.625C125.362 115.443 125.362 115.443 125.458 115.335L125.562 115.225L125.677 115.103L125.797 114.977C125.948 114.817 126.098 114.658 126.251 114.5C126.39 114.361 126.53 114.224 126.663 114.079L126.755 113.973C126.927 113.774 126.927 113.774 127.376 113.25L127.416 113.203L127.416 113.203L127.472 113.138C127.75 112.813 128.028 112.489 128.315 112.172C128.948 111.474 129.531 110.774 130.051 109.988L130.126 109.875C130.853 108.776 131.477 107.618 132.063 106.438C132.22 106.122 132.38 105.808 132.545 105.496C132.809 104.998 133.067 104.498 133.317 103.994C133.399 103.829 133.481 103.665 133.563 103.501L133.688 103.25C133.79 103.045 133.893 102.84 133.997 102.635C134.544 101.563 135.043 100.468 135.52 99.3635C135.635 99.0966 135.746 98.8281 135.871 98.566C136.731 96.8346 137.344 94.8402 137.703 92.9433C137.719 92.8581 137.735 92.7729 137.751 92.6877C137.867 92.147 137.952 91.6096 138.015 91.0602L138.04 90.8323V90.8321C138.199 89.4399 138.199 89.4398 138.197 85.9436C138.196 85.6586 138.196 85.3736 138.197 85.0887C138.197 84.6085 138.197 84.1283 138.196 83.6481C138.196 83.0934 138.196 82.5388 138.196 81.9842C138.197 81.5001 138.197 81.0161 138.197 80.532L138.197 80.3881C138.196 80.1482 138.196 79.9083 138.196 79.6685C138.197 79.3961 138.197 79.1237 138.197 78.8513C138.196 78.75 138.196 78.6488 138.196 78.5475C138.199 76.234 137.65 74.2471 136.841 72.0969C136.676 71.6589 136.523 71.2169 136.37 70.7745C136.279 70.5122 136.188 70.25 136.095 69.9887C135.976 69.6551 135.857 69.3215 135.746 68.9849C135.266 67.5145 134.731 66.0802 134.082 64.6751L134.001 64.5002C133.848 64.1706 133.695 63.841 133.541 63.5115C133.152 62.6749 132.77 61.8351 132.403 60.9885C132.25 60.6365 132.091 60.2884 131.926 59.9416C131.825 59.7288 131.723 59.5163 131.627 59.3011C130.688 57.1763 129.625 55.0475 128.133 53.2502C128.006 53.0988 127.884 52.9503 127.773 52.7864C127.627 52.5578 127.489 52.3531 127.294 52.1643C127.17 52.0466 127.057 51.9305 126.95 51.7973C126.68 51.4508 126.393 51.1338 126.084 50.8218L125.934 50.6721C125.668 50.4055 125.4 50.1431 125.116 49.8955C124.931 49.7367 124.752 49.5744 124.575 49.408C124.304 49.1545 124.033 48.9069 123.743 48.676C123.584 48.5521 123.426 48.4279 123.271 48.2998C122.991 48.0675 122.71 47.8419 122.415 47.6291C122.15 47.4394 121.891 47.2434 121.633 47.0432C121.456 46.9038 121.28 46.7684 121.088 46.6504C120.938 46.5655 120.938 46.5655 120.804 46.4685C120.416 46.1868 120.013 45.9393 119.6 45.6955C119.469 45.618 119.338 45.54 119.207 45.4612C118.951 45.3055 118.692 45.1539 118.431 45.0059C118.121 44.8309 117.815 44.6529 117.516 44.4612C117.071 44.1738 116.618 43.9041 116.154 43.6475L116.001 43.5627C115.846 43.4771 115.692 43.3915 115.537 43.3061L115.38 43.219C115.066 43.0449 114.751 42.8739 114.43 42.7141C114.243 42.6216 114.057 42.5277 113.874 42.4289C113.153 42.0401 112.419 41.6872 111.675 41.3459C110.72 40.9084 109.778 40.4569 108.851 39.9623C107.768 39.3838 106.683 38.7678 105.54 38.3152L105.376 38.2502C105.056 38.1111 104.74 37.9738 104.407 37.8684C103.571 37.6182 102.769 37.2971 101.961 36.9709C101.761 36.8901 101.561 36.8094 101.36 36.7289L101.239 36.6799C100.709 36.4664 100.178 36.2589 99.6373 36.0744C99.3597 35.9805 99.0841 35.8869 98.8146 35.7715C97.6112 35.2505 96.3456 34.9074 95.0768 34.5863C94.022 34.3196 92.9805 34.0211 91.9499 33.6726C91.3547 33.4712 90.7569 33.2786 90.1583 33.0876C89.9604 33.0246 89.7626 32.9617 89.5649 32.8981C87.9888 32.3894 86.4193 31.9385 84.7732 31.7153L84.5631 31.6877C83.602 31.5477 83.602 31.5477 81.3356 31.53C80.8625 31.5264 80.3894 31.522 79.9163 31.5172L79.7633 31.5156C78.8595 31.5063 77.9479 31.5129 77.0477 31.4238C76.5944 31.3753 76.1405 31.3473 75.6854 31.3223L75.5406 31.3144C75.1714 31.2941 74.8022 31.2742 74.4329 31.255L74.2662 31.2463C71.7924 31.1178 69.2752 30.9587 66.8058 31.224C66.6726 31.2384 66.5394 31.2527 66.4061 31.2663C66.0306 31.3042 65.6552 31.3427 65.2799 31.3822L65.0865 31.4026C63.8975 31.5272 62.7431 31.7127 61.5787 31.9833L61.4225 32.0198C60.6603 32.1962 59.9034 32.3807 59.1537 32.6054C58.9234 32.6746 58.692 32.7366 58.459 32.7961C57.9609 32.923 57.4665 33.0618 56.9735 33.2073C56.8901 33.232 56.8067 33.2568 56.7233 33.2815C56.2832 33.4103 55.8499 33.5415 55.4271 33.7199C55.1274 33.8492 54.8254 33.9647 54.5179 34.0741C54.3869 34.1203 54.2561 34.1668 54.1253 34.2136L53.9164 34.2886C52.9723 34.627 52.0394 34.9712 51.1288 35.3926C50.8108 35.5401 50.4924 35.6857 50.1706 35.8247L50.0162 35.8908C49.6547 36.0457 49.2918 36.1969 48.9277 36.3455L48.7889 36.4021L48.6838 36.4451C48.4851 36.5263 48.2863 36.6076 48.0872 36.6879C47.63 36.8724 47.1794 37.0619 46.7389 37.2837C46.3894 37.4623 46.0369 37.6314 45.6806 37.7958C45.4938 37.8817 45.3072 37.968 45.1207 38.0544L45.0052 38.1079L44.7785 38.2129L44.5631 38.3127C43.8223 38.656 43.0928 39.0067 42.388 39.4196L42.2506 39.5002C41.5143 39.9277 40.783 40.3602 40.0721 40.8291C39.94 40.9166 39.8077 41.0037 39.6745 41.0897C39.0197 41.5114 38.4024 41.9587 37.8074 42.4615L37.6881 42.5627C37.464 42.7524 37.2404 42.9426 37.0182 43.1345C36.9499 43.194 36.8815 43.2534 36.8131 43.3127C36.4692 43.6049 36.1441 43.9113 35.8246 44.23L35.649 44.4065C35.0269 45.0302 34.4117 45.6602 33.8326 46.3244C33.714 46.4628 33.5932 46.5974 33.4689 46.7307C33.083 47.1425 32.7259 47.5665 32.3902 48.0202L32.3131 48.1252L32.279 48.1717C31.7952 48.83 31.3037 49.4989 30.9029 50.2112C30.8522 50.3076 30.8015 50.4039 30.7506 50.5002C30.1205 51.5964 29.644 52.7851 29.405 54.0305L29.3756 54.1877C29.0305 55.9885 28.8631 57.776 28.7669 59.6047C28.7168 60.5687 28.6436 61.5109 28.4593 62.4603L28.4225 62.6448C28.3776 62.8933 28.3286 63.1347 28.2506 63.3752C27.7489 64.4187 26.7785 64.9297 25.7624 65.3734L25.567 65.4573C25.0957 65.6631 24.6419 65.7967 24.136 65.8898C23.9 65.9325 23.6654 65.9806 23.4308 66.0302L23.2735 66.0637C23.1113 66.0981 22.949 66.1326 22.7867 66.1673L22.6178 66.2033C21.9168 66.3528 21.2172 66.5045 20.5215 66.6769C18.3023 67.2294 16.1429 67.5115 13.8553 67.5193L13.6647 67.5198C12.9459 67.5225 11.8703 67.6633 11.2506 67.2502C11.1467 66.9759 11.1109 66.7247 11.1114 66.4317L11.1139 66.2932C11.1209 65.6492 11.1433 65.0059 11.2081 64.3648C11.3758 62.7909 11.4148 61.2231 11.4363 59.6411C11.4447 59.0081 11.454 58.3752 11.4642 57.7423L11.4676 57.5351C11.4832 56.5825 11.507 55.6309 11.5531 54.6792L11.5611 54.5158C11.6384 52.9339 11.7373 51.332 12.149 49.7971C12.2514 49.4235 12.3465 49.0501 12.4306 48.6719C12.5589 48.0908 12.6999 47.5163 12.8644 46.9443C12.8891 46.8588 12.9137 46.7733 12.9381 46.6877C13.1517 45.8915 13.4153 45.1358 13.796 44.4028C13.8406 44.3173 13.8848 44.2316 13.9277 44.1452C14.3872 43.2155 14.8985 42.3111 15.4186 41.4143C15.6606 40.9978 15.902 40.5813 16.1347 40.1594C16.7965 38.9562 17.5373 37.8195 18.337 36.7035L18.4381 36.5627C19.1627 35.5534 19.9301 34.5877 20.7601 33.6628C20.9266 33.4785 21.0908 33.2935 21.2464 33.0998C21.4683 32.8177 21.6948 32.5456 21.9381 32.2815C22.1344 32.0685 22.3218 31.8531 22.5006 31.6252C22.6794 31.3974 22.8668 31.182 23.0631 30.969C23.272 30.743 23.4678 30.5125 23.6568 30.2698C23.7694 30.1174 23.7694 30.1174 23.8756 30.0002H24.0006C23.9875 29.8671 23.9875 29.8671 24.0924 29.7619C24.2758 29.5645 24.4571 29.3671 24.6254 29.1565C24.8775 28.8318 25.1416 28.5355 25.4357 28.248C25.5843 28.1048 25.7317 27.9608 25.8756 27.8127C26.0007 27.6497 26.0884 27.5219 26.2662 27.4182L26.3756 27.3752V27.2502L26.475 27.1706C26.6328 27.0576 26.777 26.9349 26.9238 26.8081C27.2871 26.4935 27.6534 26.1834 28.0267 25.8806L28.1881 25.7502C28.4903 25.5031 28.7925 25.2611 29.1139 25.0393C29.3246 24.8942 29.5303 24.7443 29.733 24.5882L29.8365 24.508C29.9746 24.4013 30.1127 24.2946 30.2506 24.1877C30.7128 23.8289 31.1879 23.4958 31.6725 23.1682C32.1335 22.8565 32.5856 22.5372 33.0288 22.2006C33.7551 21.6485 34.506 21.1315 35.2612 20.6199L35.4381 20.5002C36.3529 19.8804 37.2689 19.2675 38.2251 18.7124L38.3756 18.6252C39.8181 17.7837 41.2721 16.9716 42.8131 16.3244L42.835 16.3153C43.0954 16.207 43.3558 16.0987 43.6142 15.9857C44.2101 15.7221 44.8015 15.4533 45.4186 15.2424C45.685 15.1523 45.9488 15.0603 46.2088 14.9531C47.049 14.605 47.9045 14.3183 48.7679 14.0346C49.0905 13.9288 49.412 13.8205 49.7317 13.7065C50.0667 13.586 50.4019 13.4706 50.7428 13.3674C50.9814 13.2956 51.2162 13.2195 51.4498 13.133C51.6916 13.043 51.9347 12.9587 52.1796 12.8777C52.591 12.7419 53.0016 12.6041 53.4112 12.4633L53.5712 12.4082C53.7885 12.3334 54.0059 12.2587 54.2233 12.1838C54.8812 11.9563 55.5385 11.7334 56.2076 11.5405C56.4359 11.4748 56.6633 11.4074 56.8893 11.334C57.4253 11.1584 57.9597 11.0019 58.5104 10.8794C58.6759 10.8431 58.8414 10.8063 59.0067 10.7687C59.6731 10.6167 60.3387 10.461 61.0123 10.344C61.2666 10.302 61.5202 10.2586 61.7731 10.2092C61.9357 10.1769 62.0983 10.1447 62.2609 10.1129C62.346 10.0963 62.4311 10.0795 62.5162 10.0627C63.9131 9.77644 65.339 9.67316 66.7614 9.6077C66.9092 9.60097 67.057 9.59409 67.2047 9.58707C67.7376 9.56168 68.2704 9.53768 68.8034 9.51434C68.9692 9.50708 69.1351 9.4998 69.3009 9.49248C70.0959 9.4573 70.8909 9.42272 71.686 9.38936L71.7244 9.38775Z" fill="#607090"/>
<path d="M47.8073 209.073C48.0069 209.114 48.2067 209.152 48.4072 209.188C49.0568 209.307 49.6858 209.497 50.3173 209.688C50.3621 209.701 50.4069 209.715 50.453 209.728C50.9574 209.881 51.4529 210.044 51.9384 210.25C52.0366 210.29 52.1347 210.331 52.2329 210.371C54.6069 211.356 56.5189 212.835 57.5339 215.254C58.159 216.806 58.3992 218.371 58.3957 220.035C58.3955 220.229 58.3969 220.423 58.3985 220.617C58.4012 221.448 58.3355 222.245 58.1884 223.063C58.1754 223.135 58.1624 223.208 58.149 223.282C58.114 223.46 58.0749 223.636 58.0322 223.813C58.0091 223.908 58.0091 223.908 57.9855 224.006C57.7098 225.084 57.2758 226.121 56.8252 227.137C56.8041 227.184 56.7831 227.232 56.7615 227.28C56.6223 227.584 56.4599 227.868 56.2856 228.153C56.1248 228.417 55.9738 228.688 55.8212 228.957C55.577 229.386 55.3291 229.812 55.0673 230.231C54.9672 230.391 54.8684 230.553 54.7705 230.715C54.4965 231.168 54.2228 231.617 53.9126 232.047C53.8079 232.196 53.7132 232.349 53.6181 232.504C53.0011 233.484 52.2293 234.407 51.4384 235.25C51.4078 235.283 51.3771 235.316 51.3455 235.349C49.7207 237.072 47.7595 237.974 45.5022 238.59C45.381 238.624 45.2603 238.658 45.1396 238.693C43.8181 239.054 42.405 239.099 41.0427 239.068C40.8762 239.064 40.7097 239.061 40.5431 239.059C40.2999 239.055 40.0568 239.051 39.8137 239.046C39.7188 239.044 39.6239 239.042 39.5291 239.041C38.7424 239.029 38.0234 238.933 37.3056 238.594C36.8761 238.404 36.4712 238.315 36.0074 238.254C34.7571 238.083 33.7964 237.605 32.8759 236.75C32.8275 236.705 32.7791 236.661 32.7292 236.615C32.3928 236.29 32.1023 235.929 31.8134 235.563C31.7655 235.503 31.7176 235.444 31.6682 235.383C30.5317 233.934 30.4052 232.162 30.2431 230.387C30.2378 230.329 30.2324 230.271 30.2269 230.211C30.1067 228.906 30.0586 227.616 30.0556 226.305C30.0554 226.247 30.0553 226.188 30.0551 226.128C30.0528 225.054 30.055 223.973 30.2275 222.91C30.2382 222.844 30.249 222.777 30.26 222.708C30.5197 221.166 30.8151 219.755 31.8759 218.563C31.9373 218.489 31.9373 218.489 32 218.414C32.2177 218.155 32.2177 218.155 32.3134 218.063C32.3547 218.063 32.3959 218.063 32.4384 218.063C32.4548 218.026 32.4711 217.989 32.488 217.952C32.5678 217.805 32.6529 217.707 32.7707 217.589C32.8128 217.547 32.855 217.504 32.8984 217.46C32.9665 217.393 32.9665 217.393 33.0361 217.323C33.1061 217.253 33.1061 217.253 33.1776 217.182C33.2762 217.083 33.375 216.984 33.4739 216.886C33.6258 216.735 33.777 216.583 33.9282 216.431C34.024 216.335 34.1199 216.239 34.2158 216.144C34.2612 216.098 34.3067 216.052 34.3535 216.005C34.3956 215.963 34.4378 215.922 34.4812 215.879C34.5183 215.842 34.5554 215.805 34.5936 215.767C34.6884 215.688 34.6884 215.688 34.8134 215.688C34.8134 215.646 34.8134 215.605 34.8134 215.563C34.8547 215.563 34.8959 215.563 34.9384 215.563C34.9694 215.47 34.9694 215.47 35.0009 215.375C35.0911 215.286 35.0911 215.286 35.2099 215.19C35.4322 215.001 35.6415 214.803 35.8466 214.596C35.8769 214.565 35.9072 214.535 35.9384 214.503C36.0323 214.409 36.126 214.314 36.2197 214.219C36.5755 213.858 36.9298 213.501 37.3153 213.172C37.5658 212.95 37.7974 212.707 38.0322 212.469C38.3504 212.146 38.6696 211.83 39.014 211.535C39.1719 211.398 39.3221 211.253 39.4736 211.11C40.4841 210.177 41.6938 209.436 43.0009 209C43.0443 208.985 43.0876 208.97 43.1322 208.955C44.7054 208.425 46.2282 208.749 47.8073 209.073ZM41.1884 216.813C41.1382 216.834 41.0881 216.855 41.0363 216.877C40.7097 217.018 40.3865 217.164 40.0634 217.313C39.9724 217.354 39.9724 217.354 39.8795 217.396C36.9193 218.703 36.9193 218.703 34.2509 220.5C34.2154 220.528 34.1798 220.556 34.1431 220.585C34.0518 220.658 33.9636 220.735 33.8759 220.813C33.8759 220.854 33.8759 220.895 33.8759 220.938C33.8416 220.95 33.8073 220.962 33.7719 220.974C33.5634 221.1 33.4351 221.282 33.29 221.473C33.2596 221.512 33.2292 221.552 33.1978 221.593C33.1106 221.707 33.0243 221.822 32.9384 221.938C32.8998 221.989 32.8611 222.041 32.8212 222.094C32.2579 222.891 32.1027 223.757 32.1159 224.716C32.1163 224.782 32.1166 224.848 32.117 224.916C32.1178 225.055 32.1188 225.195 32.1201 225.335C32.1234 225.701 32.1246 226.067 32.1257 226.433C32.1259 226.505 32.1262 226.577 32.1264 226.651C32.1276 227.193 32.1167 227.732 32.0947 228.274C32.0685 228.943 32.0548 229.611 32.0524 230.281C32.0519 230.383 32.0513 230.486 32.0504 230.588C32.0373 232.25 32.3702 233.652 33.5634 234.875C33.6137 234.928 33.664 234.981 33.7158 235.035C33.7951 235.111 33.7951 235.111 33.8759 235.188C33.9399 235.25 33.9399 235.25 34.0051 235.314C34.8405 236.102 35.8686 236.572 36.9631 236.889C37.1333 236.94 37.3012 236.995 37.4694 237.052C38.4263 237.373 39.3862 237.617 40.3759 237.813C40.4204 237.822 40.4649 237.831 40.5107 237.84C41.5264 238.046 42.6515 238.065 43.6206 237.677C43.7653 237.619 43.9112 237.566 44.0576 237.513C44.8422 237.225 45.6126 236.903 46.3759 236.563C46.4267 236.54 46.4775 236.517 46.5297 236.494C48.4542 235.628 50.1837 234.512 51.3134 232.688C51.346 232.638 51.3785 232.588 51.4121 232.537C52.2739 231.181 52.7105 229.401 52.8759 227.813C52.8821 227.756 52.8883 227.7 52.8946 227.642C53.1197 225.541 53.1975 222.845 51.8759 221.063C51.6654 220.814 51.4402 220.58 51.215 220.345C51.0927 220.215 50.9766 220.08 50.8603 219.945C50.6726 219.733 50.4745 219.546 50.258 219.363C50.1128 219.239 49.9732 219.11 49.833 218.981C48.3954 217.684 46.2493 216.082 44.2509 216C44.1814 215.994 44.1814 215.994 44.1106 215.988C43.0828 215.933 42.1083 216.42 41.1884 216.813Z" fill="#607090"/>
</svg>
