<svg width="241" height="137" viewBox="0 0 241 137" fill="none" xmlns="http://www.w3.org/2000/svg">
<path d="M126.98 1.55343C127.943 1.50771 128.896 1.64543 129.851 1.75871C130.422 1.82619 130.994 1.88649 131.566 1.94537C131.617 1.95071 131.669 1.95604 131.722 1.96154C132.361 2.02754 132.999 2.08303 133.64 2.12506C134.953 2.21475 136.24 2.44973 137.528 2.71019C137.987 2.80247 138.446 2.88781 138.908 2.96188C139.756 3.09815 140.592 3.27348 141.429 3.46881C141.499 3.48502 141.569 3.50124 141.641 3.51795C142.968 3.82672 144.277 4.18213 145.581 4.5746C145.756 4.62704 145.931 4.67909 146.105 4.73108C147.654 5.19248 149.195 5.67431 150.724 6.19871C150.884 6.2532 151.043 6.30744 151.202 6.36166C152.63 6.84881 154.044 7.35468 155.437 7.93756C155.5 7.96386 155.5 7.96386 155.564 7.9907C155.879 8.12202 156.193 8.25408 156.507 8.38678C156.569 8.4127 156.569 8.4127 156.631 8.43915C157.817 8.94122 158.984 9.48013 160.14 10.0469C160.201 10.077 160.263 10.107 160.326 10.1379C161.45 10.6888 162.566 11.2504 163.634 11.906C163.931 12.0873 164.234 12.2566 164.538 12.4248C166.171 13.3285 167.724 14.3465 169.279 15.377C169.756 15.6925 170.235 16.0041 170.714 16.315C171.931 17.1043 173.105 17.9376 174.244 18.8352C174.366 18.9311 174.488 19.0263 174.611 19.1214C175 19.4241 175.382 19.7341 175.756 20.0549C175.998 20.2608 176.245 20.4579 176.495 20.6524C176.839 20.9194 177.172 21.1978 177.501 21.4828C177.758 21.7051 178.02 21.9198 178.286 22.1309C178.733 22.4843 179.168 22.8487 179.597 23.2227C179.905 23.4916 180.217 23.7541 180.538 24.0076C180.995 24.3686 181.441 24.7428 181.885 25.1199C182.095 25.2987 182.308 25.4746 182.523 25.6485C183.123 26.1373 183.703 26.6495 184.276 27.1695C184.43 27.3068 184.587 27.4407 184.744 27.5742C185.186 27.9488 185.612 28.3377 186.033 28.7349C186.209 28.9007 186.388 29.0625 186.57 29.2227C187.122 29.7172 187.647 30.2452 188.124 30.8126C188.18 30.8773 188.235 30.942 188.291 31.0066C188.419 31.1561 188.548 31.3057 188.676 31.4554C188.805 31.607 188.935 31.7586 189.065 31.91C189.221 32.0919 189.377 32.2739 189.533 32.4561C189.593 32.5261 189.653 32.596 189.713 32.6658C190.157 33.1828 190.582 33.7114 190.999 34.2501C191.049 34.3134 191.098 34.3767 191.149 34.442C191.278 34.6094 191.407 34.7775 191.535 34.9459C191.597 35.0274 191.66 35.1086 191.723 35.1897C193.277 37.1971 194.592 39.3716 195.766 41.6199C195.936 41.9451 196.112 42.2663 196.292 42.586C196.594 43.1216 196.874 43.6674 197.155 44.214C197.388 44.6674 197.623 45.1188 197.874 45.5626C198.947 47.4648 199.941 49.4318 200.627 51.5081C200.644 51.5582 200.66 51.6083 200.677 51.6598C200.76 51.9099 200.841 52.1603 200.921 52.4111C201.129 53.2144 201.129 53.2144 201.623 53.8262C201.821 53.9028 201.922 53.8789 202.124 53.8126C202.409 53.6146 202.643 53.3562 202.883 53.1078C203.302 52.6764 203.748 52.3321 204.249 52.0001C204.3 51.9641 204.352 51.9282 204.404 51.8912C205.426 51.2134 206.758 51.0616 207.949 50.9297C208.041 50.9191 208.134 50.9085 208.226 50.8978C209.001 50.8089 209.77 50.7409 210.55 50.7149C210.66 50.7109 210.66 50.7109 210.771 50.7067C214.322 50.5833 218.173 52.5163 220.792 54.8712C220.882 54.9558 220.972 55.0404 221.062 55.1251C221.145 55.1956 221.228 55.266 221.312 55.336C223.184 56.974 224.15 59.7635 224.687 62.1251C224.708 62.2145 224.708 62.2145 224.729 62.3057C224.758 62.4327 224.785 62.5601 224.812 62.6876C225.159 62.6548 225.459 62.5868 225.785 62.4571C225.849 62.4324 225.849 62.4324 225.914 62.4072C226.132 62.3227 226.349 62.2352 226.565 62.1463C227.705 61.6781 228.711 61.7097 229.913 61.8868C229.962 61.8938 230.011 61.9008 230.061 61.908C232.409 62.2455 234.203 62.9743 235.937 64.6251C235.978 64.6615 236.019 64.6979 236.061 64.7354C238.025 66.5492 238.701 69.5207 238.818 72.0718C238.831 72.3916 238.836 72.7113 238.839 73.0313C238.84 73.0737 238.841 73.1161 238.842 73.1598C238.854 73.9567 238.701 74.6784 238.324 75.3829C238.291 75.4454 238.291 75.4454 238.258 75.5092C238.194 75.6317 238.128 75.7535 238.062 75.8751C238.009 75.9748 238.009 75.9748 237.954 76.0765C237.681 76.5672 237.353 77.0029 236.999 77.4376C236.957 77.4892 236.916 77.5408 236.872 77.5941C236.587 77.9308 236.268 78.2073 235.92 78.4783C235.798 78.5736 235.676 78.6699 235.555 78.7662C235.097 79.1277 234.635 79.4794 234.156 79.8126C233.154 80.5099 232.229 81.2688 231.363 82.129C231.321 82.1703 231.279 82.2116 231.236 82.2542C231.034 82.4577 230.839 82.6639 230.652 82.8826C230.249 83.3473 229.808 83.6198 229.264 83.8992C229.215 83.9249 229.167 83.9506 229.117 83.9771C229.074 83.9996 229.03 84.0221 228.985 84.0453C228.849 84.1435 228.806 84.2178 228.749 84.3751C228.729 84.5196 228.729 84.5196 228.728 84.6739C228.726 84.7317 228.724 84.7896 228.722 84.8492C228.721 84.9093 228.72 84.9694 228.718 85.0313C228.697 85.9164 228.518 86.6972 228.234 87.5313C228.217 87.5797 228.201 87.6281 228.184 87.6779C226.406 92.9449 226.406 92.9449 224.937 94.5626C224.899 94.605 224.862 94.6475 224.824 94.6912C224.119 95.4459 223.246 95.9055 222.312 96.3126C222.174 96.3731 222.036 96.4337 221.898 96.4944C221.806 96.5351 221.713 96.5757 221.62 96.6162C221.322 96.7479 221.032 96.891 220.742 97.0417C219.188 97.847 217.523 98.5509 215.812 98.9376C215.763 98.9487 215.715 98.9599 215.665 98.9714C215.156 99.0863 214.641 99.174 214.127 99.2632C213.909 99.3011 213.691 99.3394 213.473 99.3776C213.311 99.4057 213.15 99.433 212.988 99.4603C212.5 99.5443 212.04 99.6359 211.577 99.8201C210.452 100.26 209.072 100.108 207.901 99.9834C207.486 99.9418 207.076 99.9271 206.66 99.9285C206.559 99.9287 206.559 99.9287 206.457 99.929C205.731 99.9336 205.006 99.9673 204.281 100.007C204.058 100.02 203.835 100.031 203.612 100.042C202.901 100.079 202.194 100.129 201.488 100.214C201.398 100.224 201.398 100.224 201.306 100.235C200.173 100.381 199.595 101.026 198.925 101.894C198.724 102.157 198.526 102.421 198.329 102.686C198.087 103.008 197.837 103.323 197.588 103.638C197.328 103.967 197.07 104.296 196.812 104.625C196.761 104.69 196.71 104.754 196.658 104.821C195.803 105.922 195.009 107.057 194.296 108.255C192.573 111.145 190.658 112.429 187.397 113.294C187.022 113.387 186.644 113.468 186.265 113.543C186.176 113.561 186.176 113.561 186.085 113.579C184.688 113.841 183.258 113.943 181.844 114.076C181.693 114.09 181.541 114.104 181.39 114.119C179.752 114.274 178.114 114.391 176.472 114.473C175.614 114.516 174.776 114.559 173.937 114.75C173.879 114.763 173.822 114.776 173.762 114.789C173.618 114.824 173.477 114.863 173.335 114.906C173.283 114.922 173.231 114.938 173.178 114.954C172.781 115.08 172.417 115.25 172.046 115.438C169.588 116.677 166.915 117.491 164.188 116.901C164.014 116.863 163.841 116.828 163.667 116.792C162.993 116.652 162.377 116.471 161.749 116.188C161.683 116.158 161.616 116.129 161.547 116.099C160.705 115.722 159.919 115.311 159.187 114.75C159.101 114.686 159.101 114.686 159.014 114.62C158.654 114.341 158.321 114.034 157.988 113.724C157.845 113.593 157.7 113.468 157.55 113.344C157.242 113.077 156.999 112.758 156.749 112.438C156.696 112.372 156.696 112.372 156.641 112.304C155.869 111.325 155.786 110.146 155.727 108.944C155.664 107.687 155.509 106.458 155.31 105.216C155.221 104.65 155.174 104.096 155.171 103.523C155.17 103.461 155.169 103.399 155.167 103.335C155.165 102.921 155.183 102.585 155.476 102.263C155.829 101.933 156.238 101.728 156.666 101.512C157.001 101.336 157.355 101.142 157.562 100.813C157.536 100.543 157.384 100.427 157.187 100.25C157.014 100.11 156.837 99.9748 156.66 99.8399C155.122 98.6544 153.868 97.4002 152.896 95.708C152.825 95.5852 152.753 95.4636 152.68 95.3421C151.546 93.3642 150.444 90.5439 150.999 88.2501C151.414 86.7627 152.071 85.5254 153.15 84.4147C153.25 84.3123 153.347 84.2088 153.445 84.105C153.92 83.6075 154.429 83.1966 154.999 82.8126C155.042 82.7834 155.085 82.7542 155.13 82.7241C156.738 81.6412 159.118 80.1876 161.124 80.1876C160.971 79.9004 160.797 79.637 160.609 79.3712C160.258 78.8725 159.954 78.3493 159.682 77.804C159.377 77.1962 159.024 76.6868 158.586 76.1672C158.463 76.0191 158.348 75.8656 158.234 75.711C157.886 75.2431 157.532 74.7801 157.179 74.317C157.037 74.1323 156.897 73.9473 156.758 73.7613C156.051 72.8209 155.213 71.9313 154.313 71.171C154.142 71.0243 153.977 70.8714 153.812 70.7188C153.606 70.5289 153.399 70.34 153.187 70.1563C152.684 69.72 152.2 69.2631 151.714 68.8087C151.115 68.2493 150.514 67.7004 149.874 67.1876C149.799 67.1269 149.724 67.0662 149.649 67.0054C149.205 66.6476 148.757 66.298 148.299 65.9587C148.168 65.861 148.038 65.7618 147.909 65.6627C146.006 64.2126 143.987 63.1325 141.833 62.1158C141.196 61.8152 140.576 61.5027 139.966 61.1513C137.676 59.8357 135.338 58.9188 132.792 58.228C131.965 58.003 131.15 57.7525 130.335 57.4883C129.282 57.1475 128.226 56.8366 127.155 56.5573C126.954 56.5045 126.753 56.4505 126.552 56.3958C125.702 56.1661 124.844 55.9759 123.982 55.798C123.782 55.7569 123.583 55.7152 123.384 55.6733C121.677 55.3157 120.125 55.1982 118.39 55.3321C118.275 55.3407 118.159 55.3492 118.044 55.3577C117.255 55.4164 116.467 55.4791 115.678 55.5431C115.106 55.5895 114.534 55.632 113.961 55.6675C108.958 55.9256 108.958 55.9256 104.187 57.3126C104.119 57.3419 104.051 57.3712 103.98 57.4014C102.347 58.1052 100.811 58.9434 99.2899 59.8626C98.649 60.2498 98.0012 60.6251 97.3509 60.9962C97.2956 61.0278 97.2403 61.0594 97.1833 61.0919C96.9164 61.2444 96.6492 61.3963 96.3812 61.5469C95.2894 62.1643 94.2596 62.8653 93.3079 63.6837C93.2515 63.7321 93.2515 63.7321 93.1939 63.7815C92.9469 63.9952 92.7126 64.2171 92.4849 64.4515C92.3367 64.6004 92.1787 64.7358 92.0194 64.8726C91.8718 65.0023 91.7282 65.1353 91.5846 65.2694C91.2517 65.5802 90.9124 65.8767 90.5579 66.1631C89.6344 66.9148 88.8311 67.7156 88.1048 68.6597C87.9102 68.9117 87.7046 69.1536 87.4977 69.3954C87.3235 69.5991 87.1544 69.8058 86.9876 70.0157C86.7374 70.3239 86.4682 70.6109 86.1947 70.8985C84.9849 72.1726 84.0108 73.5743 83.0726 75.0554C82.8646 75.3834 82.6539 75.7092 82.4369 76.0313C81.7627 77.0357 81.1235 78.0531 80.5619 79.1251C80.5395 79.1677 80.5172 79.2103 80.4941 79.2542C80.1446 79.9263 79.833 80.6159 79.5235 81.3071C79.4321 81.5106 79.34 81.7138 79.2479 81.9171C78.9471 82.5835 78.6527 83.2511 78.39 83.9337C78.369 83.9876 78.3481 84.0416 78.3265 84.0972C78.2984 84.1718 78.2984 84.1718 78.2699 84.2479C78.2537 84.2908 78.2375 84.3337 78.2208 84.378C78.1757 84.5191 78.1757 84.5191 78.1869 84.7501C78.2501 84.7617 78.3134 84.7733 78.3785 84.7853C78.618 84.8294 78.8574 84.8745 79.0967 84.9198C79.1993 84.9391 79.3021 84.9582 79.4048 84.9771C80.2672 85.1354 81.1076 85.3306 81.89 85.7422C81.9315 85.7637 81.973 85.7851 82.0158 85.8072C83.8431 86.7649 84.8316 88.3453 85.4642 90.2664C85.6783 90.9566 85.7731 91.6547 85.8527 92.3712C85.8745 92.5634 85.8984 92.7554 85.9229 92.9473C86.2324 95.415 86.2501 97.7945 85.8804 100.255C85.6399 101.481 85.6399 101.481 85.7494 102.688C85.8731 102.688 85.9969 102.688 86.1244 102.688C86.1321 102.639 86.1398 102.59 86.1478 102.539C86.1869 102.375 86.1869 102.375 86.3119 102.25C86.5072 102.273 86.5072 102.273 86.6869 102.313C86.7075 102.395 86.7281 102.478 86.7494 102.563C86.6875 102.604 86.6256 102.645 86.5619 102.688C86.6925 102.818 86.9689 102.778 87.1497 102.788C87.2611 102.795 87.3725 102.802 87.4838 102.809C87.5425 102.813 87.6011 102.817 87.6615 102.821C89.3007 102.925 90.8227 103.155 92.4015 103.622C92.6157 103.685 92.8304 103.745 93.0455 103.805C94.6648 104.264 96.0917 104.957 97.3119 106.125C97.3585 106.168 97.4051 106.21 97.4532 106.254C99.2563 107.96 99.9104 110.611 100.124 113C100.104 112.629 100.083 112.258 100.062 111.875C100.124 111.875 100.186 111.875 100.249 111.875C100.747 112.967 100.566 114.296 100.374 115.438C100.312 115.458 100.251 115.479 100.187 115.5C100.166 115.459 100.146 115.418 100.124 115.375C100.114 115.442 100.105 115.51 100.094 115.579C100.002 116.168 99.874 116.704 99.6244 117.25C99.6003 117.304 99.5763 117.358 99.5516 117.413C99.2512 118.021 98.8005 118.541 98.3744 119.063C98.3412 119.103 98.3081 119.144 98.2739 119.186C97.5028 120.122 96.6453 121.005 95.6869 121.75C95.5708 121.849 95.4549 121.948 95.3392 122.047C93.8253 123.301 92.1482 124.07 90.3307 124.792C90.2294 124.832 90.2294 124.832 90.1262 124.874C89.9991 124.925 89.8718 124.975 89.744 125.024C89.2407 125.227 88.8396 125.51 88.5384 125.969C88.503 126.022 88.4677 126.075 88.4312 126.129C88.3918 126.19 88.3524 126.25 88.3119 126.313C88.1047 126.626 87.8962 126.938 87.6869 127.25C87.6251 127.342 87.6251 127.342 87.5621 127.437C86.5425 128.903 84.9975 129.787 83.4369 130.574C83.3313 130.628 83.3313 130.628 83.2235 130.682C82.7031 130.941 82.1733 131.165 81.6348 131.382C81.413 131.473 81.1929 131.567 80.9725 131.661C79.127 132.442 79.127 132.442 78.1869 132.625C78.0795 132.647 78.0795 132.647 77.9701 132.67C77.3504 132.795 76.7347 132.866 76.1048 132.914C76.0056 132.922 75.9064 132.93 75.8072 132.938C75.2295 132.984 74.6529 133.015 74.0736 133.031C73.2061 133.057 72.3474 133.14 71.4849 133.232C71.2869 133.253 71.0889 133.274 70.891 133.294C70.8153 133.302 70.7397 133.31 70.6618 133.319C70.5032 133.335 70.3447 133.352 70.1861 133.369C69.7871 133.411 69.3881 133.453 68.9892 133.496C68.9136 133.504 68.8381 133.512 68.7602 133.52C68.6185 133.535 68.4768 133.55 68.3351 133.566C66.3298 133.778 64.5615 133.607 62.6004 133.155C62.345 133.097 62.0899 133.043 61.8319 132.998C60.9386 132.839 60.0738 132.606 59.2025 132.356C59.1139 132.33 59.1139 132.33 59.0235 132.305C58.3773 132.12 57.7449 131.919 57.119 131.673C56.6497 131.489 56.1926 131.339 55.6947 131.25C55.5962 131.232 55.5962 131.232 55.4958 131.214C55.3097 131.182 55.1236 131.152 54.9369 131.125C54.8883 131.118 54.8397 131.11 54.7897 131.102C54.3577 131.043 54.0435 131.062 53.6813 131.321C53.5092 131.456 53.3477 131.602 53.1869 131.75C51.0115 133.654 47.9894 135.51 45.0471 135.53C43.2861 135.544 41.5234 135.657 39.7852 135.946C38.5431 136.148 37.2938 136.12 36.0619 135.875C34.8608 135.637 33.6786 135.548 32.4555 135.51C31.2535 135.472 30.0666 135.413 28.8744 135.25C28.7696 135.236 28.6647 135.223 28.5599 135.209C28.2654 135.17 27.971 135.131 27.6767 135.091C27.5602 135.075 27.4438 135.059 27.3273 135.043C25.8219 134.841 24.6798 134.37 23.7257 133.139C23.2887 132.526 23.061 131.887 22.9676 131.146C22.9575 131.098 22.9473 131.05 22.9369 131C22.0467 130.555 20.1146 131.359 19.2336 131.63C16.6257 132.425 13.545 131.088 11.2722 129.881C10.1389 129.273 9.04652 128.622 7.99935 127.875C7.95118 127.841 7.90301 127.807 7.85339 127.772C6.99887 127.166 6.17524 126.532 5.37972 125.851C5.20274 125.7 5.0213 125.555 4.8392 125.41C3.1332 124.011 2.13612 122.16 1.88998 119.965C1.88289 119.852 1.87796 119.738 1.87435 119.625C1.87193 119.562 1.87193 119.562 1.86947 119.499C1.77859 116.868 3.16321 114.756 4.81185 112.813C4.84561 112.773 4.87937 112.733 4.91415 112.692C5.30534 112.232 5.70577 111.781 6.11813 111.339C6.28322 111.163 6.4425 110.983 6.59701 110.797C7.05639 110.272 7.61038 109.809 8.32723 109.736C8.44857 109.734 8.44857 109.734 8.62435 109.75C8.63136 109.678 8.63837 109.606 8.64559 109.532C8.87974 107.678 10.3464 105.942 11.767 104.832C12.3224 104.41 12.906 104.057 13.5332 103.753C13.7724 103.636 13.7724 103.636 13.9585 103.451C14.0174 103.251 13.9557 103.161 13.8651 102.977C13.8334 102.911 13.8017 102.844 13.769 102.776C13.7342 102.706 13.6993 102.635 13.6634 102.563C13.593 102.415 13.5229 102.268 13.453 102.12C13.4008 102.01 13.4008 102.01 13.3476 101.898C12.0972 99.2176 12.3422 96.8025 13.3087 94.0587C13.6036 93.2548 13.9813 92.5753 14.5619 91.9376C14.597 91.8981 14.6321 91.8586 14.6683 91.8179C16.3113 90.0713 19.321 88.9676 21.6828 88.8673C22.6931 88.8423 23.5818 88.8455 24.4994 89.3126C24.6668 88.9647 24.796 88.6136 24.9134 88.2462C25.4892 86.4689 26.3135 84.8924 27.5619 83.5001C27.5916 83.4668 27.6213 83.4336 27.6519 83.3993C27.8682 83.1586 28.0891 82.9224 28.3119 82.6876C28.3432 82.654 28.3746 82.6205 28.407 82.586C30.0131 80.8789 32.1808 79.7863 34.3504 78.9686C34.4582 78.9278 34.4582 78.9278 34.5682 78.8862C34.7084 78.8334 34.8488 78.7812 34.9895 78.7298C35.8435 78.4196 35.8435 78.4196 36.4361 77.7674C36.5604 77.4878 36.657 77.2004 36.7533 76.9102C36.9453 76.3551 37.162 75.824 37.4212 75.2969C37.4526 75.233 37.4841 75.169 37.5164 75.1031C37.5816 74.9707 37.6467 74.8383 37.7118 74.7058C38.329 73.436 38.8488 72.1452 39.3119 70.8126C39.3368 70.7437 39.3618 70.6749 39.3875 70.604C39.5587 70.118 39.6854 69.6318 39.8014 69.1302C39.9857 68.3362 40.2226 67.5661 40.4798 66.793C40.5018 66.7264 40.5238 66.6598 40.5464 66.5911C40.865 65.6264 41.1986 64.6726 41.5896 63.7345C41.6831 63.51 41.7744 63.2845 41.8656 63.0591C42.448 61.6205 43.071 60.2083 43.7494 58.8126C43.7739 58.7621 43.7984 58.7116 43.8236 58.6596C44.1157 58.0578 44.409 57.4567 44.7032 56.856C44.9144 56.4247 45.1238 55.9925 45.3314 55.5594C45.7012 54.7883 46.0785 54.0211 46.4598 53.2556C46.5163 53.1423 46.5726 53.0289 46.6289 52.9154C46.9824 52.2033 47.3531 51.5041 47.7428 50.8112C47.9112 50.5095 48.0715 50.2035 48.2337 49.8985C48.5597 49.289 48.8995 48.6893 49.2504 48.0939C49.4719 47.718 49.6878 47.3396 49.8978 46.9571C50.1253 46.544 50.3623 46.139 50.6143 45.7402C50.6997 45.6047 50.7844 45.4689 50.8692 45.3331C51.4407 44.42 51.4407 44.42 51.7535 43.9827C51.9191 43.7496 52.0802 43.5135 52.2415 43.2774C52.276 43.227 52.3104 43.1767 52.3459 43.1248C52.5888 42.7693 52.8307 42.4132 53.0723 42.057C53.2975 41.7252 53.5233 41.3938 53.7494 41.0626C53.7925 40.9993 53.8357 40.936 53.8801 40.8708C54.3721 40.1514 54.8761 39.4475 55.4168 38.764C55.6237 38.5025 55.8238 38.2363 56.0228 37.9688C56.4325 37.4199 56.8601 36.8893 57.3036 36.3675C57.5816 36.0402 57.8537 35.7084 58.1244 35.3751C58.1896 35.2947 58.2549 35.2144 58.3202 35.1341C58.3546 35.0917 58.389 35.0493 58.4245 35.0057C58.4952 34.9187 58.5659 34.8317 58.6366 34.7447C58.7887 34.5576 58.9407 34.3703 59.0919 34.1824C59.3733 33.8343 59.6667 33.5015 59.9698 33.1722C60.171 32.9481 60.3593 32.7146 60.5484 32.4803C60.7287 32.2619 60.9191 32.0537 61.1099 31.8445C61.2491 31.6879 61.3803 31.527 61.5111 31.3633C62.0304 30.7228 62.6082 30.1291 63.1982 29.5535C63.3241 29.4299 63.4391 29.3094 63.5435 29.1668C63.5702 29.1324 63.5969 29.098 63.6244 29.0626C63.6656 29.0626 63.7069 29.0626 63.7494 29.0626C63.7635 29.0273 63.7775 28.9921 63.7921 28.9559C63.8986 28.7703 64.0297 28.6612 64.1908 28.5196C64.4985 28.2447 64.7933 27.9586 65.0838 27.6658C65.1188 27.6306 65.1537 27.5954 65.1897 27.5592C65.3329 27.4148 65.4759 27.2702 65.6184 27.1251C65.72 27.0217 65.8219 26.9186 65.9239 26.8155C65.9549 26.7837 65.9858 26.7519 66.0177 26.7191C66.0926 26.6437 66.1707 26.5715 66.2494 26.5001C66.2906 26.5001 66.3319 26.5001 66.3744 26.5001C66.3905 26.4627 66.4067 26.4253 66.4234 26.3868C66.5057 26.2387 66.5826 26.1677 66.7142 26.0626C66.9269 25.8836 67.1126 25.6929 67.2977 25.4857C67.7058 25.0345 68.135 24.605 68.5657 24.1755C68.6992 24.0424 68.8324 23.9089 68.9655 23.7753C69.0519 23.689 69.1383 23.6027 69.2247 23.5164C69.2637 23.4773 69.3027 23.4381 69.3429 23.3978C69.5796 23.1623 69.8237 22.9384 70.0766 22.7204C70.2271 22.5903 70.3728 22.4553 70.5189 22.3204C70.7453 22.1136 70.9754 21.915 71.2142 21.7227C71.4639 21.5213 71.7022 21.3121 71.9369 21.0938C72.225 20.8257 72.523 20.5748 72.8297 20.3279C73.006 20.182 73.1747 20.0301 73.3431 19.8751C73.619 19.6214 73.903 19.3819 74.1947 19.1465C74.3552 19.0157 74.5132 18.8824 74.6705 18.7477C75.0361 18.4349 75.4097 18.1363 75.7928 17.8453C76.0057 17.6834 76.2154 17.5176 76.4251 17.3516C76.7777 17.0731 77.1362 16.8032 77.4967 16.5351C77.7902 16.3157 78.0776 16.0897 78.3626 15.8594C78.7333 15.5606 79.1105 15.275 79.4994 15.0001C79.5754 14.946 79.6514 14.892 79.7274 14.8379C81.6375 13.4829 81.6375 13.4829 82.5767 12.8638C82.7368 12.7583 82.8958 12.6515 83.0548 12.5444C84.1978 11.7768 85.3564 11.0406 86.5619 10.3751C86.621 10.3421 86.6802 10.3092 86.7412 10.2753C87.4612 9.87531 88.1868 9.49439 88.9324 9.14436C89.2775 8.98211 89.62 8.81578 89.9603 8.64361C89.9999 8.62357 90.0395 8.60353 90.0803 8.58288C90.1612 8.54196 90.242 8.50104 90.3228 8.46011C90.9977 8.11878 91.6759 7.7967 92.3748 7.50689C92.6515 7.39179 92.9225 7.26656 93.1938 7.13942C93.7693 6.87039 94.3466 6.64112 94.9491 6.43985C95.3929 6.29064 95.8245 6.12028 96.2572 5.94146C97.5131 5.42997 98.8071 5.07019 100.123 4.75053C100.831 4.57825 101.531 4.38585 102.23 4.17584C104.221 3.58113 106.196 3.26214 108.259 3.05577C109.092 2.97218 109.922 2.86891 110.753 2.75857C113.946 2.33465 117.125 1.95842 120.348 1.90709C121.839 1.8828 123.324 1.78946 124.812 1.68756C125.534 1.63845 126.257 1.59277 126.98 1.55343ZM123.301 2.92045C123.137 2.93529 122.973 2.95011 122.808 2.9649C122.766 2.96872 122.724 2.97254 122.68 2.97647C121.872 3.04904 121.062 3.11166 120.253 3.17193C120.159 3.17894 120.159 3.17894 120.063 3.1861C119.494 3.22845 118.925 3.27043 118.356 3.31201C116.61 3.43963 114.867 3.58459 113.124 3.75006C113.049 3.75718 113.049 3.75718 112.973 3.76444C108.522 4.12073 108.522 4.12073 104.177 5.07525C104.021 5.12316 103.866 5.17101 103.71 5.21881C103.633 5.24271 103.555 5.2666 103.475 5.29123C102.893 5.46644 102.309 5.60473 101.714 5.72662C101.671 5.73546 101.628 5.74431 101.584 5.75342C101.411 5.7888 101.238 5.82409 101.065 5.8593C99.8346 6.11121 98.6428 6.42535 97.4632 6.85904C97.274 6.9285 97.0845 6.99695 96.8948 7.06496C95.6079 7.52644 94.3601 8.03488 93.129 8.63043C92.7391 8.81852 92.346 8.99942 91.9525 9.17975C90.8549 9.68375 89.7646 10.2043 88.6869 10.7493C88.4962 10.8457 88.3046 10.9401 88.1126 11.034C87.3475 11.4097 86.6042 11.8097 85.8744 12.2501C85.8216 12.2818 85.7688 12.3135 85.7145 12.3462C84.9631 12.8001 84.232 13.2782 83.5116 13.7797C83.3415 13.8979 83.1705 14.0149 82.9995 14.1318C82.7907 14.2748 82.5825 14.4186 82.3744 14.5626C82.3253 14.5965 82.2762 14.6304 82.2256 14.6653C81.6008 15.0979 80.9832 15.5375 80.3775 15.9966C80.1498 16.1691 79.9197 16.3382 79.6892 16.5069C79.1021 16.9366 78.5253 17.3781 77.9528 17.8271C77.7123 18.0156 77.471 18.2031 77.2298 18.3907C77.1593 18.4456 77.1593 18.4456 77.0874 18.5016C76.8804 18.6627 76.6731 18.8235 76.4642 18.9822C76.0188 19.3208 75.5887 19.6733 75.1642 20.0376C75.0606 20.1261 74.9565 20.2139 74.8521 20.3016C74.5401 20.5637 74.2305 20.8273 73.929 21.1016C73.718 21.2935 73.5023 21.4768 73.2806 21.6563C72.9979 21.8852 72.7261 22.1233 72.4571 22.3682C72.3293 22.4842 72.2001 22.598 72.0697 22.711C71.5788 23.1394 71.0982 23.5778 70.6449 24.046C70.5245 24.1631 70.4021 24.2719 70.2747 24.381C69.9866 24.6324 69.7174 24.9002 69.4486 25.1719C69.3977 25.223 69.3469 25.2741 69.2946 25.3267C69.1335 25.4885 68.9727 25.6505 68.8119 25.8126C68.5998 26.0263 68.3875 26.2398 68.1751 26.4532C68.1273 26.5015 68.0795 26.5498 68.0303 26.5996C67.7388 26.8924 67.4376 27.1682 67.1244 27.4376C66.6105 27.897 66.115 28.3728 65.6277 28.8601C65.5186 28.969 65.4091 29.0775 65.2995 29.1858C64.9248 29.5587 64.5736 29.9364 64.2443 30.3504C64.0856 30.5484 63.9158 30.7337 63.7415 30.918C63.6769 30.9873 63.6123 31.0567 63.5477 31.126C63.5175 31.1584 63.4874 31.1907 63.4563 31.2241C63.2784 31.4161 63.1073 31.6139 62.9369 31.8126C62.9108 31.8429 62.8847 31.8732 62.8579 31.9044C62.5692 32.2405 62.2809 32.577 61.9937 32.9144C61.7035 33.2549 61.4117 33.5926 61.1087 33.9219C60.8755 34.1763 60.6575 34.4381 60.4442 34.7093C60.2928 34.899 60.1369 35.0846 59.9798 35.2696C59.9507 35.3039 59.9217 35.3381 59.8917 35.3735C59.7454 35.5457 59.5987 35.7176 59.4517 35.8892C59.125 36.2718 58.8078 36.6601 58.4984 37.0568C58.0949 37.574 57.6754 38.0772 57.2506 38.5769C57.0361 38.8299 56.8274 39.087 56.6214 39.347C56.4913 39.5101 56.3588 39.6711 56.2259 39.8321C55.9126 40.2149 55.6088 40.6044 55.3119 41.0001C55.2819 41.0399 55.252 41.0797 55.2211 41.1208C54.6496 41.8852 54.1363 42.6825 53.6261 43.4886C53.4226 43.8081 53.2148 44.1247 53.0072 44.4415C52.6956 44.9176 52.389 45.3962 52.0894 45.8799C51.9819 46.0534 51.8729 46.2257 51.7628 46.3975C50.9757 47.6277 50.2589 48.8979 49.5492 50.1739C49.4677 50.3199 49.3858 50.4656 49.3035 50.6111C48.9835 51.1769 48.6707 51.7459 48.3665 52.3204C48.3434 52.364 48.3203 52.4077 48.2964 52.4527C47.8537 53.2894 47.4266 54.1338 47.0033 54.9805C46.9738 55.0395 46.9442 55.0984 46.9138 55.1592C46.3355 56.3161 45.7722 57.4803 45.2337 58.6563C44.9054 59.3714 44.5759 60.0859 44.2357 60.7955C43.7095 61.8979 43.2396 63.0173 42.7882 64.1522C42.6436 64.5155 42.4955 64.8773 42.3462 65.2388C42.0098 66.055 41.6949 66.8778 41.3949 67.7081C41.3375 67.8667 41.2798 68.0251 41.2217 68.1834C40.7691 69.4176 40.3748 70.6586 40.0262 71.926C39.8653 72.5107 39.7013 73.0946 39.5379 73.6787C39.4813 73.8815 39.4249 74.0843 39.3686 74.2872C38.7879 76.3761 38.7879 76.3761 38.4486 76.961C38.2641 77.2459 38.2641 77.2459 38.1869 77.5626C39.2749 77.6041 40.0884 77.4504 40.9954 76.836C42.0804 76.1478 43.71 75.9818 44.961 75.9169C45.0132 75.9138 45.0653 75.9107 45.119 75.9075C45.1641 75.9057 45.2092 75.9038 45.2556 75.9019C45.4124 75.8665 45.4646 75.8147 45.5619 75.6876C45.6248 75.5462 45.6248 75.5462 45.672 75.3851C45.6913 75.3244 45.7107 75.2638 45.7306 75.2014C45.751 75.1362 45.7714 75.0711 45.7923 75.004C46.001 74.3578 46.236 73.7298 46.4948 73.1024C46.5662 72.9269 46.6351 72.7506 46.7037 72.574C47.3561 70.8992 48.1496 69.3129 48.9996 67.7323C49.1598 67.4343 49.3182 67.1353 49.4759 66.836C49.4972 66.7959 49.5185 66.7558 49.5404 66.7145C50.0272 65.7923 50.4782 64.8506 50.9369 63.9141C50.9682 63.8501 50.9996 63.7861 51.0319 63.7201C51.4412 62.884 51.8463 62.0461 52.2415 61.2032C52.262 61.1596 52.2824 61.1161 52.3034 61.0712C52.4855 60.6828 52.6667 60.2939 52.8465 59.9044C53.113 59.3298 53.4018 58.7719 53.7084 58.2176C53.9402 57.7984 54.1628 57.3751 54.3822 56.9493C54.6187 56.4921 54.8636 56.0432 55.1289 55.6022C55.3253 55.2748 55.5108 54.9422 55.6948 54.6078C56.0528 53.958 56.4251 53.334 56.8596 52.7327C56.9831 52.5606 57.1022 52.3857 57.222 52.211C57.619 51.6387 58.0235 51.0726 58.4388 50.5134C58.7702 50.0668 59.0939 49.6169 59.4056 49.1563C60.4213 47.6595 61.5524 46.2888 62.8507 45.0276C62.9693 44.9059 63.0791 44.7828 63.1893 44.6536C63.3818 44.4317 63.5852 44.2226 63.794 44.0162C63.8256 43.985 63.8571 43.9538 63.8896 43.9217C64.0209 43.7921 64.1524 43.6628 64.2842 43.5337C64.3815 43.4383 64.4784 43.3425 64.5753 43.2466C64.6327 43.1903 64.6902 43.1339 64.7493 43.0758C64.8883 42.9532 64.8883 42.9532 64.8744 42.8126C64.9156 42.8126 64.9569 42.8126 64.9994 42.8126C65.0974 42.7156 65.0974 42.7156 65.1986 42.5899C65.3452 42.4172 65.4936 42.2521 65.6556 42.0938C65.795 41.9572 65.925 41.8177 66.0504 41.6683C66.3791 41.2903 66.7372 40.9404 67.0918 40.587C67.2139 40.4652 67.3357 40.3431 67.4575 40.2209C68.1486 39.5294 68.1486 39.5294 68.5196 39.2142C68.695 39.065 68.8623 38.9071 69.0306 38.7501C69.2454 38.5497 69.462 38.3521 69.6837 38.1592C70.335 37.5917 70.9541 36.9887 71.5658 36.379C71.6148 36.3302 71.6639 36.2814 71.7144 36.2312C71.9337 36.0113 72.1472 35.7897 72.3497 35.554C72.5571 35.3133 72.7807 35.0971 73.015 34.8829C73.0559 34.8451 73.0968 34.8074 73.139 34.7685C73.2211 34.6929 73.3033 34.6174 73.3857 34.542C73.4851 34.4507 73.5838 34.3588 73.6822 34.2664C74.0195 33.9531 74.3692 33.6634 74.7329 33.3817C74.9733 33.1955 75.2082 33.0047 75.4408 32.8087C75.7228 32.5717 76.0108 32.3449 76.3041 32.1221C76.5324 31.9479 76.7556 31.7687 76.9772 31.5863C79.0947 29.8431 81.4155 28.4526 83.8744 27.2501C84.3817 27.0017 84.8837 26.749 85.3744 26.4688C85.7258 26.2683 86.0812 26.0798 86.4446 25.9017C86.7213 25.7655 86.9951 25.6247 87.2679 25.4808C88.8885 24.627 90.5404 23.8705 92.2533 23.2194C92.4806 23.1327 92.7069 23.0437 92.9331 22.9546C93.966 22.5474 94.9932 22.1571 96.0585 21.8427C96.7506 21.6342 97.4194 21.3746 98.092 21.1112C98.9576 20.7723 99.829 20.4565 100.707 20.1522C101.208 19.9785 101.705 19.7995 102.199 19.6055C103.32 19.1691 104.481 18.8576 105.644 18.554C106.074 18.441 106.499 18.32 106.921 18.1797C109.998 17.171 113.359 17.0661 116.565 16.8261C117.21 16.7777 117.856 16.7265 118.501 16.6734C124.975 16.1412 124.975 16.1412 127.425 16.4876C128.623 16.6495 129.811 16.6387 131.019 16.6236C132.457 16.6083 133.863 16.7001 135.272 16.9942C135.965 17.1364 136.657 17.2315 137.359 17.313C138.425 17.4374 139.449 17.6239 140.494 17.8776C140.93 17.9815 141.37 18.069 141.809 18.1595C142.699 18.3429 143.581 18.5433 144.461 18.7712C144.676 18.8255 144.892 18.8748 145.108 18.9241C148.376 19.6742 151.721 20.8985 154.614 22.608C154.777 22.7037 154.94 22.7979 155.103 22.8921C155.486 23.1138 155.868 23.3378 156.249 23.5626C156.3 23.5924 156.351 23.6222 156.403 23.6529C157.876 24.5202 159.254 25.5445 160.602 26.5911C160.849 26.7801 161.102 26.9599 161.355 27.1407C161.794 27.4553 162.223 27.7809 162.648 28.1146C162.956 28.356 163.267 28.5916 163.581 28.8243C163.923 29.0782 164.252 29.3428 164.575 29.6206C164.849 29.8555 165.13 30.0793 165.414 30.3008C165.601 30.4463 165.787 30.5926 165.971 30.7418C166.542 31.2041 167.127 31.6424 167.72 32.0751C168.661 32.7616 169.594 33.4552 170.499 34.1876C170.58 34.2517 170.58 34.2517 170.662 34.3172C171.278 34.8122 171.862 35.3439 172.406 35.917C172.494 36.0139 172.494 36.0139 172.624 36.0001C172.624 36.0413 172.624 36.0826 172.624 36.1251C172.666 36.1251 172.707 36.1251 172.749 36.1251C172.765 36.1611 172.781 36.1971 172.797 36.2342C172.885 36.3947 172.986 36.5001 173.117 36.628C173.166 36.6757 173.214 36.7234 173.264 36.7725C173.315 36.8218 173.365 36.8711 173.417 36.9219C173.738 37.2357 174.05 37.5508 174.342 37.8915C174.461 38.0282 174.588 38.1551 174.718 38.2813C174.885 38.4437 175.042 38.6108 175.193 38.7879C175.537 39.1848 175.92 39.5458 176.295 39.9128C176.684 40.297 177.035 40.6971 177.374 41.1251C177.444 41.2088 177.513 41.2924 177.583 41.3758C178.016 41.8984 178.413 42.4357 178.79 43.0001C178.931 43.2097 179.075 43.4172 179.218 43.6251C179.276 43.7088 179.333 43.7925 179.391 43.8763C179.503 44.0391 179.615 44.2016 179.727 44.3641C179.87 44.5714 180.013 44.7793 180.155 44.9875C180.22 45.0826 180.285 45.1777 180.351 45.2727C181.261 46.6028 182.04 48.0034 182.815 49.4151C183.59 50.8253 184.396 52.2132 185.234 53.586C185.49 54.0048 185.742 54.4254 185.992 54.8477C186.025 54.9048 186.059 54.9619 186.094 55.0207C186.262 55.3063 186.427 55.5935 186.586 55.8844C187.155 56.914 188.202 57.4199 189.187 58.0001C189.245 58.0362 189.303 58.0724 189.362 58.1097C189.491 58.1978 189.491 58.1978 189.624 58.1876C189.649 58.1129 189.649 58.1129 189.675 58.0368C189.738 57.849 189.802 57.6615 189.867 57.4742C189.908 57.3546 189.949 57.2346 189.989 57.1146C190.16 56.6219 190.361 56.2202 190.687 55.8126C190.725 55.7634 190.764 55.7142 190.803 55.6636C192.041 54.1216 194.373 53.3831 196.268 53.1522C196.628 53.1152 196.989 53.0999 197.351 53.086C197.424 53.0832 197.497 53.0804 197.572 53.0775C198.279 53.0545 198.981 53.0799 199.687 53.1251C199.458 51.7845 199.111 50.6909 198.494 49.4847C198.346 49.1941 198.205 48.9008 198.066 48.6054C197.696 47.8163 197.289 47.0488 196.874 46.2828C196.66 45.8886 196.449 45.4926 196.239 45.0967C195.904 44.4665 195.566 43.838 195.223 43.2124C195.046 42.8901 194.872 42.5663 194.701 42.241C193.991 40.8918 193.247 39.5652 192.374 38.3126C192.345 38.2707 192.316 38.2289 192.286 38.1858C191.846 37.5541 191.395 36.9311 190.937 36.3126C190.888 36.2463 190.839 36.1799 190.789 36.1116C190.475 35.6891 190.147 35.2803 189.812 34.8751C189.721 34.7631 189.63 34.6511 189.538 34.5391C189.301 34.2491 189.06 33.9628 188.817 33.6775C188.635 33.4632 188.457 33.2463 188.281 33.0274C188 32.6825 187.701 32.3561 187.398 32.0307C187.316 31.9422 187.235 31.8526 187.155 31.763C186.797 31.3662 186.427 30.9838 186.05 30.6055C186.003 30.5585 185.957 30.5114 185.908 30.4629C185.697 30.2523 185.485 30.0469 185.258 29.8528C184.893 29.5383 184.56 29.1894 184.222 28.8465C183.902 28.5222 183.581 28.2031 183.234 27.9067C183.072 27.7678 182.917 27.6221 182.761 27.4766C182.467 27.2051 182.164 26.9497 181.852 26.6988C181.689 26.564 181.531 26.4242 181.374 26.2813C181.109 26.0396 180.835 25.8114 180.555 25.5858C180.397 25.4565 180.242 25.3246 180.088 25.1914C179.713 24.8695 179.326 24.5696 178.929 24.276C178.607 24.0371 178.3 23.7858 177.994 23.5269C177.704 23.2851 177.403 23.0568 177.102 22.8279C176.284 22.2057 175.476 21.5728 174.68 20.923C174.36 20.6627 174.035 20.4113 173.707 20.1614C173.473 19.9809 173.244 19.7932 173.015 19.6055C172.545 19.2209 172.065 18.8496 171.58 18.4834C171.428 18.3684 171.276 18.253 171.125 18.1375C170.513 17.6734 169.896 17.2259 169.249 16.8126C169.206 16.7848 169.163 16.7571 169.118 16.7286C168.822 16.5396 168.524 16.3524 168.227 16.1658C168.056 16.0587 167.885 15.9513 167.714 15.8438C166.753 15.2398 165.784 14.6481 164.812 14.0626C164.752 14.0263 164.692 13.9901 164.63 13.9527C163.311 13.1586 161.961 12.4154 160.594 11.7073C160.418 11.6154 160.243 11.5216 160.068 11.4278C158.986 10.8515 157.878 10.3492 156.753 9.86068C156.534 9.76552 156.316 9.66908 156.098 9.57208C154.274 8.76383 152.395 8.04127 150.491 7.44502C150.113 7.32683 149.737 7.20521 149.363 7.07892C149.318 7.06374 149.273 7.04857 149.226 7.03294C149.133 7.00149 149.04 6.97004 148.946 6.9386C148.079 6.6467 147.21 6.36667 146.335 6.09771C146.286 6.08239 146.236 6.06707 146.185 6.05129C145.11 5.72012 144.027 5.42344 142.937 5.14459C142.886 5.1315 142.835 5.1184 142.782 5.10491C141.992 4.90302 141.202 4.70691 140.409 4.51683C140.3 4.49059 140.19 4.46426 140.081 4.43783C139.036 4.1856 137.985 3.95194 136.913 3.84771C136.341 3.78608 135.787 3.69098 135.228 3.55012C134.054 3.26681 132.806 3.27115 131.606 3.21245C130.629 3.16407 129.673 3.07116 128.708 2.90979C126.899 2.60727 125.117 2.75619 123.301 2.92045ZM118.717 17.7693C118.608 17.7778 118.5 17.7862 118.391 17.7946C118.108 17.8166 117.825 17.839 117.543 17.8616C117.378 17.8748 117.213 17.8878 117.048 17.9009C116.46 17.9476 115.871 17.9956 115.283 18.0454C115.013 18.0682 114.744 18.0906 114.474 18.1124C112.633 18.261 110.854 18.4985 109.07 18.9962C108.804 19.0691 108.538 19.1414 108.272 19.2137C108.204 19.2322 108.136 19.2507 108.066 19.2698C107.572 19.4034 107.077 19.5276 106.581 19.6478C104.728 20.0979 102.946 20.646 101.162 21.3146C100.911 21.4078 100.66 21.4988 100.409 21.5894C100.319 21.6221 100.228 21.6548 100.138 21.6875C100.073 21.7109 100.073 21.7109 100.007 21.7348C99.7995 21.8098 99.5925 21.8854 99.3856 21.961C99.3095 21.9888 99.2334 22.0166 99.1551 22.0452C99.0151 22.0964 98.8752 22.1477 98.7353 22.199C98.1082 22.4289 97.4803 22.6542 96.8458 22.8626C96.7994 22.8779 96.7529 22.8931 96.7051 22.9088C96.6094 22.9403 96.5137 22.9717 96.418 23.0031C95.4101 23.3343 94.421 23.6979 93.4353 24.0904C93.2527 24.1625 93.0691 24.2319 92.885 24.3004C92.1466 24.5756 91.4253 24.8772 90.7087 25.2052C90.5415 25.2817 90.3739 25.3576 90.2063 25.4334C89.5841 25.7158 88.9694 26.0098 88.3602 26.3191C88.1897 26.4052 88.0182 26.4891 87.8468 26.5731C87.2102 26.8864 86.5815 27.2058 85.9681 27.5626C85.2857 27.9587 84.5813 28.3065 83.8744 28.6563C82.6465 29.2645 81.4347 29.883 80.3075 30.6669C80.173 30.7596 80.0371 30.8502 79.901 30.9407C79.3688 31.2964 78.8576 31.6652 78.3653 32.0744C78.0793 32.312 77.7867 32.5372 77.4876 32.7579C77.0726 33.0652 76.6765 33.3893 76.2859 33.7271C76.1158 33.8738 75.9443 34.0189 75.7728 34.1641C75.7127 34.2152 75.6526 34.2663 75.5907 34.3189C75.4723 34.4192 75.3529 34.517 75.231 34.613C74.7488 34.9962 74.3177 35.4165 73.8853 35.8541C73.8105 35.9293 73.7356 36.0045 73.6607 36.0797C73.4653 36.2759 73.2702 36.4725 73.0753 36.6692C72.7629 36.9843 72.45 37.2991 72.1369 37.6136C72.0286 37.7225 71.9205 37.8316 71.8125 37.9408C71.4691 38.2868 71.1212 38.622 70.7494 38.9376C70.6233 39.051 70.4989 39.1662 70.3744 39.2813C70.1722 39.4676 69.9695 39.6528 69.7611 39.8321C69.0818 40.4218 68.3943 41.0375 67.8097 41.7217C67.6211 41.9385 67.4226 42.1434 67.2183 42.3453C67.1882 42.3751 67.158 42.4049 67.127 42.4356C67.0017 42.5592 66.8761 42.6825 66.7503 42.8056C66.6573 42.8967 66.5648 42.9881 66.4723 43.0796C66.4174 43.1334 66.3626 43.1872 66.3061 43.2426C66.1729 43.3608 66.1729 43.3608 66.1869 43.5001C66.1528 43.5137 66.1187 43.5273 66.0836 43.5414C65.8882 43.6528 65.7438 43.8039 65.5882 43.9637C65.5551 43.9971 65.5219 44.0306 65.4878 44.0651C65.382 44.172 65.2766 44.2794 65.1712 44.3868C65.0331 44.5272 64.8948 44.6674 64.7562 44.8074C64.7226 44.8413 64.6891 44.8753 64.6545 44.9102C64.4424 45.1231 64.2239 45.3241 63.995 45.519C63.7445 45.7392 63.5119 45.9785 63.2767 46.2149C63.226 46.2654 63.1753 46.3159 63.123 46.3679C62.8187 46.6727 62.5299 46.9859 62.2494 47.3126C62.1863 47.3834 62.123 47.4541 62.0597 47.5247C61.5589 48.0876 61.1081 48.6786 60.6684 49.29C60.5677 49.4294 60.4658 49.5679 60.3634 49.7061C59.8479 50.4048 59.3729 51.1281 58.9014 51.8569C58.7291 52.1229 58.5556 52.3881 58.3814 52.6529C57.5826 53.8675 56.796 55.0821 56.0837 56.3502C56.0089 56.4831 55.9336 56.6157 55.858 56.7481C55.7158 56.9977 55.5761 57.2487 55.4369 57.5001C55.4071 57.5535 55.3774 57.6068 55.3468 57.6619C54.4833 59.2183 53.7233 60.8267 52.9585 62.4331C51.9446 64.5585 50.9186 66.6825 49.7948 68.7523C48.9415 70.3243 48.1695 71.905 47.4994 73.5626C47.4829 73.6032 47.4664 73.6439 47.4494 73.6857C47.2716 74.1245 47.0946 74.5625 46.9447 75.0118C46.9062 75.1253 46.9062 75.1253 46.867 75.241C46.8006 75.4437 46.8006 75.4437 46.8119 75.6876C46.891 75.7036 46.9701 75.7196 47.0516 75.7361C47.9013 75.9127 48.7389 76.1236 49.5761 76.3509C49.6614 76.3739 49.7466 76.397 49.8319 76.42C49.8965 76.4375 49.8965 76.4375 49.9624 76.4554C50.2006 76.5191 50.4392 76.5781 50.6798 76.6317C51.5379 76.8236 52.3556 77.0907 53.1829 77.3868C53.3123 77.4325 53.4416 77.4782 53.571 77.5239C53.8062 77.6069 54.0413 77.6903 54.2762 77.774C54.4956 77.852 54.7156 77.9276 54.9369 78.0001C55.5433 77.0869 55.9836 76.1029 56.3665 75.0782C56.9212 73.596 57.6358 72.1914 58.5307 70.8867C58.637 70.7317 58.7426 70.5762 58.8482 70.4207C59.2591 69.8163 59.672 69.2132 60.0868 68.6114C60.1969 68.4515 60.3065 68.2913 60.4159 68.1309C60.721 67.6838 61.032 67.2421 61.3509 66.8047C61.6165 66.4402 61.8699 66.0716 62.1097 65.6896C62.2679 65.4389 62.4372 65.1997 62.6126 64.961C62.9729 64.4665 63.2799 63.9415 63.59 63.4145C64.4636 61.9311 64.4636 61.9311 64.9369 61.2501C64.9639 61.2111 64.9909 61.172 65.0188 61.1319C65.8249 59.971 66.6794 58.8646 67.6073 57.7984C68.0042 57.3417 68.3949 56.8797 68.7767 56.4102C69.0829 56.0342 69.3989 55.667 69.7154 55.2997C69.8097 55.19 69.9039 55.0802 69.9979 54.9703C70.2543 54.6705 70.5108 54.3708 70.7699 54.0733C71.0737 53.7243 71.3765 53.3757 71.6673 53.0157C71.9068 52.72 72.1593 52.4385 72.4168 52.1585C72.5352 52.0292 72.6508 51.8986 72.765 51.7657C73.0176 51.4745 73.2827 51.1949 73.547 50.9144C73.7327 50.7168 73.9152 50.5173 74.0931 50.3126C74.3062 50.0674 74.5264 49.8299 74.7494 49.5938C74.8322 49.5059 74.9151 49.418 74.9979 49.3301C75.0397 49.2857 75.0816 49.2414 75.1247 49.1956C75.2443 49.068 75.3629 48.9395 75.4813 48.8106C76.8053 47.3733 78.2952 46.1298 79.8599 44.9639C80.0955 44.788 80.3286 44.6087 80.5619 44.4297C81.4927 43.7167 82.4307 43.0139 83.3847 42.3321C83.4789 42.2647 83.5728 42.1968 83.6666 42.1287C84.5218 41.5158 85.4335 40.9824 86.3469 40.4621C86.5012 40.374 86.655 40.2851 86.8087 40.1961C87.5436 39.7715 88.2876 39.3656 89.036 38.9651C89.3452 38.7996 89.6533 38.632 89.9608 38.4631C90.5094 38.1618 91.0612 37.8671 91.6165 37.5782C91.6774 37.5465 91.7382 37.5148 91.8009 37.4822C92.6461 37.0444 93.499 36.6233 94.3596 36.2165C94.5035 36.1484 94.6473 36.0798 94.791 36.0113C95.6578 35.5998 96.5346 35.2515 97.4447 34.9454C97.9682 34.7677 98.4886 34.5851 99.0033 34.3829C99.6218 34.1414 100.251 33.9338 100.881 33.7262C101.612 33.4854 102.34 33.2354 103.065 32.9788C103.995 32.6499 104.927 32.3374 105.873 32.0565C106.208 31.9564 106.543 31.8531 106.878 31.7501C106.946 31.7295 107.013 31.7089 107.082 31.6877C107.414 31.5862 107.744 31.4818 108.073 31.3707C110.424 30.5791 112.868 30.3825 115.324 30.1768C115.685 30.1466 116.045 30.1156 116.406 30.0836C119.022 29.8518 121.591 29.638 124.201 30.0529C125.39 30.2381 126.578 30.2713 127.778 30.2786C128.681 30.2851 129.558 30.3477 130.452 30.4755C130.613 30.4984 130.774 30.5203 130.935 30.5417C131.217 30.5791 131.499 30.6176 131.781 30.6563C132.371 30.7372 132.961 30.8169 133.553 30.8852C134.333 30.9764 135.098 31.1138 135.865 31.283C136.015 31.316 136.165 31.3484 136.315 31.3809C140.259 32.2396 143.957 33.5402 147.342 35.7782C148.153 36.3127 148.994 36.799 149.842 37.2717C150.111 37.422 150.38 37.5745 150.647 37.7283C150.796 37.8137 150.944 37.8991 151.093 37.9844C151.131 38.006 151.168 38.0276 151.207 38.0499C151.729 38.3491 152.254 38.639 152.785 38.9219C153.757 39.443 154.673 40.0346 155.562 40.6876C156.293 41.2244 157.036 41.7373 157.793 42.2381C158.449 42.6732 159.099 43.1183 159.749 43.5626C159.799 43.5967 159.849 43.6308 159.901 43.6659C161.077 44.4688 162.246 45.2833 163.324 46.2172C163.409 46.2889 163.495 46.3589 163.583 46.428C164.05 46.7992 164.473 47.2042 164.893 47.6274C165.007 47.7421 165.122 47.8561 165.236 47.97C165.619 48.3518 165.982 48.737 166.316 49.1619C166.447 49.3249 166.585 49.4789 166.726 49.6329C166.95 49.8775 167.153 50.1314 167.349 50.399C167.378 50.4323 167.407 50.4657 167.437 50.5001C167.478 50.5001 167.519 50.5001 167.562 50.5001C167.575 50.5331 167.589 50.5661 167.603 50.6002C167.718 50.8058 167.871 50.9729 168.027 51.1485C168.408 51.5874 168.772 52.0375 169.124 52.5001C169.152 52.5362 169.18 52.5723 169.208 52.6095C169.908 53.5306 170.519 54.5056 171.109 55.5001C171.679 56.5511 171.679 56.5511 172.562 57.3126C172.949 57.3102 173.282 57.2091 173.632 57.0547C173.701 57.0256 173.701 57.0256 173.771 56.9959C174.03 56.885 174.285 56.7671 174.538 56.6445C176.135 55.8762 177.996 55.5142 179.749 55.3126C179.801 55.306 179.852 55.2994 179.905 55.2926C180.825 55.1764 181.721 55.1924 182.646 55.2395C182.881 55.2504 183.117 55.2578 183.352 55.2642C183.429 55.2664 183.506 55.2687 183.586 55.271C183.733 55.2752 183.881 55.279 184.029 55.2825C184.128 55.2856 184.128 55.2856 184.23 55.2889C184.317 55.2912 184.317 55.2912 184.406 55.2936C184.567 55.3132 184.673 55.3561 184.812 55.4376C184.685 55.0304 184.491 54.6746 184.288 54.3008C184.259 54.2465 184.259 54.2465 184.229 54.1911C183.957 53.6875 183.67 53.1972 183.359 52.7165C183.073 52.2737 182.804 51.8218 182.538 51.3672C182.516 51.3284 182.493 51.2895 182.469 51.2495C182.16 50.7207 181.859 50.1882 181.562 49.6524C181.086 48.795 180.577 47.9592 180.062 47.1251C180.028 47.0698 179.994 47.0146 179.959 46.9577C178.67 44.867 177.263 42.7708 175.586 40.969C175.446 40.8174 175.307 40.6645 175.167 40.5118C175.049 40.3828 174.93 40.2539 174.812 40.1251C174.766 40.0748 174.766 40.0748 174.719 40.0235C174.157 39.4145 173.582 38.8211 172.997 38.2356C172.856 38.0949 172.716 37.9537 172.576 37.8124C172.486 37.7227 172.397 37.633 172.307 37.5433C172.265 37.5011 172.224 37.4589 172.181 37.4155C172.142 37.3772 172.104 37.3389 172.064 37.2995C172.03 37.2657 171.997 37.2319 171.962 37.197C171.877 37.1118 171.877 37.1118 171.749 37.1251C171.749 37.0838 171.749 37.0426 171.749 37.0001C171.665 36.9125 171.665 36.9125 171.55 36.8204C171.348 36.649 171.152 36.4734 170.959 36.2924C170.629 35.9838 170.293 35.6873 169.941 35.4041C169.749 35.25 169.56 35.0939 169.37 34.9373C168.66 34.3501 167.945 33.7717 167.21 33.2149C166.815 32.9149 166.433 32.6035 166.056 32.2801C165.894 32.1416 165.729 32.0075 165.562 31.8751C165.326 31.6882 165.095 31.4959 164.867 31.3008C164.396 30.9009 163.918 30.5115 163.437 30.1251C163.4 30.0957 163.364 30.0664 163.326 30.0362C162.415 29.306 161.471 28.6189 160.505 27.9636C159.706 27.4215 158.912 26.8716 158.124 26.3126C157.771 26.0618 157.417 25.8118 157.062 25.5626C157 25.5187 157 25.5187 156.936 25.4739C156.286 25.0166 155.621 24.5915 154.937 24.1876C154.879 24.1531 154.879 24.1531 154.819 24.1179C151.276 22.0405 147.404 20.6266 143.408 19.72C142.895 19.6028 142.387 19.4692 141.879 19.3309C141.405 19.2042 140.928 19.1114 140.446 19.0245C140.265 18.9914 140.084 18.9566 139.903 18.9217C138.462 18.6445 137.025 18.4252 135.566 18.2647C135.428 18.2494 135.29 18.2341 135.152 18.2188C135.086 18.2115 135.02 18.2043 134.952 18.1968C134.449 18.139 133.952 18.0571 133.455 17.9599C132.822 17.8364 132.214 17.8025 131.569 17.8044C131.436 17.8047 131.304 17.8044 131.172 17.804C130.642 17.8038 130.115 17.8195 129.587 17.8438C128.822 17.8786 128.058 17.8849 127.292 17.8829C127.192 17.8827 127.192 17.8827 127.09 17.8826C125.917 17.8806 124.748 17.8593 123.577 17.7806C121.951 17.6714 120.344 17.6397 118.717 17.7693ZM118.035 31.0391C117.951 31.0447 117.867 31.0503 117.783 31.0559C116.972 31.1118 116.161 31.1824 115.35 31.2536C115.202 31.2666 115.054 31.2795 114.906 31.2922C113.024 31.455 111.176 31.7309 109.386 32.3475C108.857 32.5292 108.326 32.6875 107.787 32.8348C106.412 33.2105 105.058 33.6396 103.71 34.1017C103.496 34.1751 103.282 34.2482 103.067 34.3213C103.003 34.3431 103.003 34.3431 102.938 34.3653C102.852 34.3944 102.767 34.4236 102.681 34.4527C102.556 34.4955 102.43 34.5384 102.304 34.5812C101.788 34.7575 101.27 34.9313 100.751 35.102C98.8582 35.7252 96.9911 36.3731 95.1882 37.2261C95.0162 37.3048 94.8436 37.3764 94.6673 37.4449C94.3805 37.5568 94.1133 37.6927 93.8431 37.8399C93.3618 38.0979 92.8755 38.3439 92.3861 38.586C91.7646 38.8946 91.1532 39.2176 90.5457 39.5528C90.1785 39.7554 89.8089 39.9536 89.439 40.1513C89.3276 40.2109 89.2163 40.2706 89.1049 40.3303C88.7377 40.5271 88.37 40.723 88.0015 40.9175C87.273 41.3035 86.5649 41.7009 85.8814 42.162C85.7383 42.2574 85.5937 42.3501 85.4486 42.4424C84.3652 43.133 83.3496 43.906 82.3297 44.6858C82.0023 44.9358 81.6729 45.183 81.3431 45.4297C80.5744 46.0051 79.8141 46.5908 79.0619 47.1876C78.973 47.2579 78.973 47.2579 78.8824 47.3296C78.2312 47.8532 77.6303 48.4267 77.0384 49.0157C76.9976 49.0563 76.9567 49.0968 76.9146 49.1386C76.6753 49.3787 76.448 49.6258 76.2265 49.8823C76.0812 50.0498 75.931 50.2122 75.7806 50.3751C75.5542 50.6208 75.3313 50.8689 75.1124 51.1214C74.9193 51.3412 74.721 51.5564 74.5238 51.7725C74.4045 51.9043 74.2872 52.0372 74.1712 52.1719C73.9188 52.4626 73.654 52.7418 73.3908 53.0226C73.135 53.2959 72.8824 53.5716 72.6331 53.8509C72.4858 54.0152 72.3363 54.1774 72.1869 54.3399C71.9307 54.621 71.6893 54.9112 71.4505 55.2071C71.3136 55.373 71.1717 55.5326 71.0267 55.6915C70.8025 55.9377 70.5938 56.1921 70.3875 56.4534C70.0341 56.8924 69.6604 57.3152 69.2904 57.7403C68.7116 58.4053 68.1539 59.0814 67.6204 59.7834C67.4331 60.0297 67.2441 60.2744 67.0513 60.5165C66.3554 61.3914 65.7191 62.3039 65.1244 63.2501C65.0894 63.3056 65.0545 63.3612 65.0185 63.4185C64.6591 63.9909 64.3009 64.5641 63.9471 65.1399C63.4731 65.9093 62.9775 66.6511 62.4369 67.3751C62.2908 67.5715 62.145 67.7681 61.9994 67.9649C61.9449 68.0384 61.9449 68.0384 61.8893 68.1135C61.5958 68.5117 61.3149 68.9176 61.0375 69.3271C60.867 69.5789 60.6943 69.8284 60.515 70.0741C59.8382 71.0017 59.2208 71.9833 58.6869 73.0001C58.6617 73.0469 58.6366 73.0937 58.6108 73.142C58.1798 73.9547 57.9146 74.7741 57.6744 75.6602C57.5471 76.126 57.3877 76.5609 57.1869 77.0001C57.1537 77.0754 57.1205 77.1507 57.0863 77.2283C56.8585 77.7264 56.5768 78.1157 56.1869 78.5001C56.1456 78.5413 56.1044 78.5826 56.0619 78.6251C55.9795 78.6687 55.8963 78.7107 55.8119 78.7501C56.2181 79.0973 56.6246 79.4418 57.0482 79.7679C58.1789 80.6418 59.1677 81.6248 60.0361 82.76C60.1224 82.8726 60.2098 82.9843 60.2972 83.096C60.8452 83.8038 61.326 84.5553 61.8116 85.3064C62.3951 86.2086 62.9659 87.0675 63.7494 87.8126C63.9585 87.6471 63.9964 87.4641 64.0633 87.2117C64.0869 87.125 64.1106 87.0382 64.1342 86.9514C64.1466 86.9053 64.1589 86.8593 64.1716 86.8118C64.5948 85.2391 65.0809 83.6653 65.7569 82.1814C66.0107 81.618 66.2241 81.0409 66.4369 80.461C66.4558 80.4095 66.4747 80.3581 66.4941 80.3051C66.7086 79.7203 66.9148 79.1338 67.1105 78.5425C67.5878 77.1056 68.1954 75.6626 68.9994 74.3751C69.048 74.2963 69.048 74.2963 69.0977 74.2159C69.5177 73.5382 69.953 72.8757 70.4226 72.2315C70.9032 71.5654 71.3522 70.8776 71.7952 70.1861C71.8672 70.0738 71.9394 69.9616 72.0118 69.8494C72.102 69.7095 72.1921 69.5695 72.2818 69.4293C72.3969 69.2495 72.5129 69.0703 72.629 68.8912C73.107 68.1504 73.5611 67.3981 74.0025 66.6352C74.2299 66.2426 74.4633 65.8556 74.7089 65.4742C74.8079 65.3187 74.9034 65.1618 74.9976 65.0035C75.8309 63.6042 76.7149 62.2077 77.7225 60.9264C77.8234 60.7978 77.923 60.6684 78.0225 60.5389C78.6526 59.721 79.2863 58.9054 79.9881 58.1475C80.1039 58.0222 80.2163 57.8951 80.3275 57.7657C80.5824 57.4719 80.8503 57.1901 81.1165 56.9065C81.3065 56.7037 81.4942 56.5001 81.6751 56.2891C81.8674 56.0654 82.0748 55.8597 82.2865 55.6544C82.4056 55.5321 82.5164 55.4086 82.6273 55.2791C82.9076 54.9564 83.2083 54.6544 83.5105 54.3524C83.608 54.2547 83.7051 54.1565 83.8021 54.0583C84.155 53.7034 84.5148 53.3723 84.9071 53.0608C85.0687 52.9321 85.2254 52.7987 85.3822 52.6641C86.0032 52.1574 86.6947 51.7509 87.39 51.3555C88.0527 50.9779 88.6833 50.5567 89.3119 50.1251C89.3658 50.088 89.4198 50.051 89.4754 50.0128C90.0149 49.6414 90.5483 49.2638 91.0697 48.8672C91.9121 48.2286 92.7967 47.6612 93.7208 47.1483C93.8207 47.0925 93.9203 47.036 94.0194 46.9788C94.9064 46.4678 95.8412 46.0826 96.7884 45.6993C96.8506 45.674 96.9128 45.6487 96.9769 45.6227C97.6827 45.3371 98.3906 45.0727 99.1147 44.8375C99.5331 44.7005 99.9314 44.5355 100.331 44.3516C101.573 43.8011 102.864 43.3745 104.148 42.9318C104.295 42.8808 104.442 42.8295 104.59 42.7779C107.095 41.8999 109.632 41.6633 112.278 41.6678C112.52 41.668 112.761 41.6665 113.003 41.665C113.992 41.6625 114.95 41.7176 115.921 41.9089C116.388 41.9968 116.838 42.0154 117.312 42.0095C117.444 42.0078 117.575 42.007 117.707 42.0064C118.034 42.0048 118.36 42.0018 118.687 41.9988C118.964 41.9963 119.241 41.9943 119.518 41.9931C119.646 41.9923 119.774 41.9907 119.901 41.9891C120.774 41.9846 121.591 42.0845 122.42 42.3619C123.162 42.5935 123.951 42.6207 124.722 42.6716C125.762 42.7404 126.773 42.8686 127.798 43.061C128.518 43.1958 129.23 43.2957 129.96 43.3516C130.845 43.4206 131.697 43.5548 132.562 43.7501C132.635 43.7665 132.709 43.783 132.784 43.7999C134.637 44.2197 136.389 44.8064 138.144 45.5274C138.429 45.6438 138.714 45.7597 138.999 45.8751C139.096 45.9143 139.096 45.9143 139.195 45.9544C140.241 46.374 141.306 46.6867 142.395 46.9767C142.952 47.1261 143.502 47.286 144.047 47.4764C144.097 47.4938 144.147 47.5112 144.198 47.5292C145.668 48.0544 146.909 48.9364 148.187 49.8126C149.399 50.6431 150.653 51.3671 151.961 52.0356C152.474 52.298 152.979 52.5716 153.48 52.8561C153.644 52.9486 153.809 53.0393 153.975 53.1299C154.726 53.5443 155.439 53.9841 156.124 54.5001C156.179 54.5408 156.179 54.5408 156.234 54.5823C156.47 54.7604 156.704 54.9421 156.937 55.1251C157.011 55.1831 157.085 55.2411 157.16 55.2991C157.344 55.4439 157.529 55.5892 157.713 55.7348C157.8 55.8036 157.888 55.8722 157.975 55.9407C158.278 56.1797 158.573 56.4258 158.867 56.6758C158.916 56.7179 158.916 56.7179 158.967 56.7609C159.626 57.3273 160.248 57.9285 160.859 58.5469C161.42 59.1171 161.42 59.1171 162.013 59.6542C162.201 59.8158 162.381 59.9866 162.562 60.1563C163.023 60.5871 163.023 60.5871 163.499 61.0001C163.556 61.0484 163.556 61.0484 163.613 61.0977C163.775 61.2269 163.887 61.3132 164.098 61.3106C164.408 61.2229 164.666 61.0654 164.945 60.9063C165.604 60.5391 166.277 60.2076 166.96 59.8868C167.007 59.8649 167.053 59.8431 167.101 59.8206C167.375 59.6919 167.649 59.5645 167.924 59.4384C168.017 59.3958 168.109 59.3531 168.202 59.3102C168.876 58.9997 169.554 58.734 170.257 58.5001C170.348 58.4693 170.44 58.4384 170.531 58.4075C170.749 58.3336 170.968 58.2604 171.187 58.1876C170.794 57.3678 170.347 56.5887 169.874 55.8126C169.842 55.759 169.809 55.7055 169.776 55.6504C169.36 54.9721 168.919 54.32 168.437 53.6876C168.397 53.6352 168.357 53.5828 168.316 53.5289C168.083 53.2254 167.841 52.9294 167.598 52.6338C167.48 52.4906 167.363 52.3465 167.247 52.2022C166.62 51.4256 165.979 50.6668 165.298 49.9371C165.152 49.781 165.011 49.6216 164.87 49.461C164.243 48.7619 163.579 48.0715 162.837 47.4935C162.678 47.3681 162.531 47.2348 162.382 47.0977C162.022 46.7706 161.638 46.4793 161.249 46.1876C161.166 46.1247 161.083 46.0618 160.999 45.9988C160.587 45.688 160.173 45.38 159.754 45.0774C159.551 44.93 159.35 44.7812 159.148 44.6323C158.699 44.3003 158.248 43.9691 157.796 43.6407C157.755 43.6106 157.714 43.5805 157.671 43.5494C157.227 43.2279 156.769 42.9274 156.312 42.6251C156.267 42.5953 156.222 42.5655 156.176 42.5349C155.431 42.0421 154.684 41.5516 153.937 41.0626C153.899 41.0376 153.861 41.0126 153.821 40.9869C152.63 40.2079 151.397 39.5188 150.141 38.8507C148.691 38.0781 147.27 37.2356 145.894 36.336C145.314 35.9573 144.724 35.5975 144.124 35.2501C144.051 35.2066 144.051 35.2066 143.975 35.1622C142.984 34.5839 141.926 34.2198 140.841 33.8635C140.684 33.8116 140.527 33.759 140.37 33.7063C138.959 33.233 137.539 32.8394 136.085 32.5157C136.014 32.4998 135.944 32.4838 135.871 32.4674C135.065 32.288 134.271 32.1433 133.449 32.0745C133.222 32.0547 132.995 32.0295 132.768 32.0045C132.724 31.9997 132.68 31.9949 132.635 31.9899C131.699 31.8871 130.773 31.7634 129.846 31.5919C128.755 31.3904 127.731 31.3559 126.624 31.3874C126.462 31.392 126.3 31.3964 126.138 31.4009C125.924 31.4068 125.71 31.4135 125.496 31.4208C124.184 31.4624 122.901 31.3476 121.599 31.1974C120.412 31.0614 119.229 30.9532 118.035 31.0391ZM114.91 43.3646C114.832 43.3708 114.832 43.3708 114.752 43.3772C114.512 43.3966 114.273 43.4164 114.033 43.4374C112.744 43.5476 111.45 43.5667 110.157 43.5807C106.815 43.6175 103.934 44.2127 100.844 45.4861C100.529 45.6154 100.209 45.7277 99.8861 45.836C99.303 46.0331 98.7414 46.2739 98.1775 46.5197C97.7359 46.712 97.2926 46.8972 96.8452 47.0753C94.6924 47.9333 92.8211 49.1335 90.9564 50.4915C90.0248 51.1692 89.0698 51.798 88.0745 52.378C87.0722 52.9628 86.1141 53.5989 85.2494 54.3751C85.1939 54.4236 85.1385 54.4722 85.0814 54.5223C84.6365 54.9198 84.2147 55.3407 83.7923 55.7618C83.7626 55.7914 83.7328 55.821 83.7021 55.8515C83.3865 56.1658 83.0781 56.4825 82.7881 56.8207C82.6143 57.0213 82.4313 57.2132 82.2494 57.4063C81.9514 57.7242 81.6571 58.0436 81.3744 58.3751C81.3197 58.4389 81.265 58.5027 81.2103 58.5665C81.1156 58.677 81.0208 58.7875 80.9262 58.8981C80.7221 59.1367 80.5167 59.3741 80.3105 59.6109C79.9958 59.9724 79.6858 60.3364 79.3846 60.7093C79.2919 60.8229 79.1977 60.9353 79.1024 61.0467C78.6558 61.5692 78.2618 62.1204 77.8744 62.6876C77.8392 62.7389 77.804 62.7903 77.7678 62.8433C77.3334 63.4803 76.9169 64.125 76.5244 64.7887C76.3129 65.1461 76.0941 65.4978 75.8704 65.8477C75.597 66.2767 75.3371 66.7116 75.0842 67.153C74.0796 68.9038 73.0271 70.6342 71.819 72.2529C71.4754 72.7152 71.1537 73.1899 70.8403 73.673C70.7508 73.8104 70.6599 73.9469 70.5689 74.0833C69.6067 75.5453 68.8844 77.1157 68.3149 78.7669C68.1211 79.3274 67.9185 79.8847 67.7142 80.4415C67.6955 80.4924 67.6768 80.5434 67.6576 80.5959C67.3824 81.3443 67.0926 82.0856 66.7923 82.8243C65.9903 84.5821 65.9903 84.5821 65.6869 86.4376C65.7422 86.4073 65.7975 86.377 65.8546 86.3458C66.1098 86.2071 66.3667 86.0717 66.6244 85.9376C66.6664 85.9155 66.7085 85.8935 66.7519 85.8708C68.5143 84.9606 70.5122 84.7304 72.4642 84.5782C72.6214 84.5652 72.7786 84.5521 72.9358 84.5389C74.0647 84.4455 75.1902 84.3624 76.3236 84.3712C76.4318 84.3716 76.4318 84.3716 76.5422 84.372C76.7154 84.3727 76.8886 84.3737 77.0619 84.3751C77.0755 84.31 77.0892 84.2449 77.1034 84.1778C77.469 82.4982 78.2781 80.9401 79.0238 79.4009C79.132 79.1776 79.238 78.9534 79.3421 78.7281C79.984 77.3435 80.7467 76.0384 81.6947 74.8399C81.9658 74.4946 82.1916 74.1323 82.4167 73.7558C82.8893 72.9691 83.4048 72.2001 83.9994 71.5001C84.0555 71.4324 84.1117 71.3647 84.1678 71.2969C84.5204 70.8753 84.8883 70.4777 85.28 70.0921C85.5334 69.8426 85.7707 69.5851 85.9994 69.3126C86.0504 69.2531 86.1015 69.1936 86.1541 69.1324C86.4522 68.7847 86.7422 68.4324 87.0228 68.0704C87.2756 67.7447 87.5378 67.4287 87.8079 67.1172C87.8589 67.0584 87.8589 67.0584 87.9109 66.9984C88.0484 66.841 88.1853 66.6891 88.3355 66.5435C88.4512 66.4469 88.4512 66.4469 88.4369 66.3126C88.4987 66.2919 88.5606 66.2713 88.6244 66.2501C88.7314 66.1489 88.8352 66.0442 88.9369 65.9376C89.2776 65.5922 89.6161 65.2495 89.9849 64.9339C90.3935 64.5783 90.7951 64.2104 91.1751 63.8243C91.3973 63.5988 91.6342 63.3935 91.8744 63.1876C91.9396 63.1309 92.0047 63.0741 92.0699 63.0174C93.3177 61.9344 94.6266 61.0076 96.0619 60.1876C96.1224 60.153 96.1829 60.1184 96.2453 60.0827C96.9047 59.7065 97.5677 59.3369 98.2324 58.9701C98.5155 58.813 98.7935 58.6494 99.0697 58.4805C99.6626 58.1189 100.277 57.7954 100.889 57.4683C101.033 57.3907 101.175 57.3117 101.317 57.231C103.509 56.001 105.848 55.3393 108.312 54.9376C108.366 54.9288 108.419 54.92 108.474 54.9109C114.441 53.9388 109.99 54.6669 117.71 54.2149C118.596 54.1427 119.479 54.1017 120.368 54.0953C120.494 54.0943 120.62 54.0928 120.745 54.0908C121.737 54.0757 122.658 54.2211 123.624 54.4376C123.691 54.4524 123.758 54.4672 123.828 54.4824C124.309 54.5893 124.789 54.7018 125.269 54.8165C125.343 54.8341 125.417 54.8517 125.493 54.8698C127.678 55.3913 129.828 55.9705 131.964 56.6692C132.783 56.9367 133.605 57.1881 134.435 57.4188C136.689 58.0453 138.702 58.9673 140.751 60.0862C141.662 60.5824 142.588 61.0413 143.526 61.486C145.253 62.3071 146.933 63.2708 148.448 64.4422C148.711 64.6458 148.982 64.8381 149.253 65.0313C149.73 65.3733 150.192 65.7315 150.646 66.1031C150.742 66.1818 150.839 66.2596 150.936 66.3375C151.291 66.6232 151.63 66.9214 151.965 67.2296C152.098 67.3505 152.231 67.4689 152.367 67.586C152.857 68.0126 153.328 68.4609 153.803 68.9051C154.155 69.2346 154.507 69.5622 154.874 69.8751C154.986 69.97 155.097 70.0649 155.208 70.1599C155.286 70.2263 155.364 70.2926 155.442 70.3587C155.599 70.4925 155.749 70.6248 155.893 70.7728C155.99 70.8895 155.99 70.8895 156.124 70.8751C156.141 70.9122 156.157 70.9493 156.174 70.9876C156.254 71.1334 156.333 71.2134 156.456 71.3243C157.081 71.935 157.569 72.6838 158.045 73.4113C158.306 73.808 158.583 74.1877 158.874 74.5626C158.933 74.3654 158.943 74.1897 158.941 73.9844C158.94 73.9008 158.94 73.9008 158.939 73.8155C158.938 73.7733 158.938 73.7311 158.937 73.6876C159.019 73.7082 159.102 73.7288 159.187 73.7501C159.236 73.3517 159.264 72.955 159.286 72.5543C159.377 70.9568 159.584 69.383 159.843 67.8047C159.852 67.7494 159.861 67.6941 159.87 67.6372C160.167 65.8185 160.167 65.8185 160.542 65.1251C160.564 65.0842 160.585 65.0434 160.607 65.0014C160.674 64.8751 160.742 64.7499 160.812 64.6251C160.835 64.5841 160.857 64.5431 160.881 64.5009C161.231 63.8745 161.634 63.3235 162.125 62.7977C162.157 62.7637 162.188 62.7297 162.221 62.6947C162.283 62.6287 162.345 62.5632 162.408 62.4982C162.591 62.314 162.591 62.314 162.624 62.0626C162.501 61.9474 162.378 61.8428 162.245 61.7383C161.92 61.4732 161.642 61.1989 161.374 60.8751C161.214 60.7069 161.053 60.5551 160.874 60.4063C160.604 60.1811 160.371 59.9336 160.138 59.6705C159.785 59.278 159.416 58.9026 159.043 58.5288C158.926 58.4111 158.81 58.2927 158.693 58.1743C158.199 57.6763 157.686 57.2323 157.124 56.8126C157.074 56.7745 157.025 56.7364 156.973 56.6971C156.853 56.6059 156.733 56.5157 156.613 56.4258C156.571 56.3945 156.529 56.3631 156.485 56.3307C156.138 56.0718 155.789 55.8151 155.437 55.5626C155.399 55.5355 155.362 55.5085 155.324 55.4806C154.819 55.1166 154.309 54.7637 153.785 54.4297C153.741 54.4021 153.698 54.3745 153.654 54.3461C152.804 53.8119 151.909 53.3543 151.014 52.9027C149.28 52.026 147.653 51.0314 146.076 49.8941C145.285 49.3284 144.524 48.8685 143.59 48.574C143.539 48.5578 143.487 48.5416 143.434 48.5249C142.876 48.352 142.311 48.2097 141.745 48.0656C140.581 47.7672 139.48 47.4132 138.374 46.9376C138.027 46.7903 137.679 46.6448 137.331 46.5001C137.287 46.4815 137.242 46.463 137.196 46.4439C135.705 45.826 134.188 45.3365 132.61 44.9896C132.446 44.9535 132.283 44.9167 132.12 44.8789C130.997 44.6184 129.904 44.4353 128.749 44.3751C127.904 44.3257 127.092 44.2407 126.264 44.0646C125.421 43.8949 124.564 43.8208 123.709 43.7368C122.82 43.6483 121.975 43.5275 121.124 43.2418C120.63 43.0989 120.131 43.11 119.62 43.1094C119.577 43.1093 119.533 43.1093 119.487 43.1092C117.959 43.1098 116.432 43.2415 114.91 43.3646ZM204.624 53.3751C204.574 53.4161 204.523 53.4571 204.47 53.4993C204.143 53.7735 203.881 54.0725 203.628 54.4141C203.585 54.4724 203.585 54.4724 203.541 54.5318C203.224 54.9753 203.097 55.3611 203.085 55.9024C203.082 56.0039 203.079 56.1054 203.075 56.2068C203.073 56.2556 203.072 56.3043 203.07 56.3545C203.058 56.5716 203.03 56.7848 202.999 57.0001C202.706 56.9156 202.482 56.7949 202.229 56.6251C202.192 56.6006 202.155 56.5761 202.117 56.5508C202.039 56.4987 201.96 56.4463 201.882 56.3939C201.678 56.2569 201.473 56.1215 201.267 55.9861C201.227 55.9597 201.187 55.9332 201.146 55.9059C200.734 55.6352 200.316 55.38 199.886 55.1395C199.726 55.0496 199.569 54.9573 199.41 54.8653C198.148 54.1403 197.13 53.9959 195.718 54.3619C194.304 54.7533 192.297 55.571 191.494 56.8592C191.261 57.2724 191.079 57.7092 190.894 58.1451C190.401 59.305 190.401 59.305 189.937 59.5626C189.589 59.6043 189.344 59.5168 189.042 59.3555C188.999 59.3333 188.956 59.3111 188.912 59.2882C188.296 58.9633 187.705 58.59 187.121 58.2112C186.522 57.8275 185.9 57.5032 185.261 57.1915C185.22 57.1713 185.179 57.1511 185.137 57.1303C182.966 56.0641 180.506 56.4307 178.187 56.8126C178.12 56.8234 178.053 56.8343 177.984 56.8455C176.816 57.0473 175.757 57.4889 174.672 57.9481C174.221 58.1386 173.765 58.3161 173.308 58.4922C172.771 58.7008 172.244 58.9215 171.721 59.1627C171.307 59.3526 170.887 59.5227 170.464 59.6915C169.542 60.0613 168.642 60.4737 167.741 60.8926C167.502 61.004 167.261 61.1136 167.02 61.2208C165.845 61.7468 164.785 62.4914 163.749 63.2501C163.712 63.2774 163.674 63.3048 163.635 63.333C161.86 64.6324 161.323 66.28 160.994 68.3704C160.974 68.5035 160.953 68.6365 160.933 68.7696C160.911 68.9088 160.89 69.0481 160.868 69.1873C160.816 69.5239 160.765 69.8605 160.714 70.1973C160.69 70.3561 160.665 70.5149 160.64 70.6737C160.127 73.9336 160.431 77.0255 162.347 79.7531C162.544 80.0212 162.768 80.2612 162.999 80.5001C163.374 80.9069 163.374 80.9069 163.374 81.1251C162.869 81.2388 162.366 81.3364 161.854 81.4146C160.517 81.6234 159.327 82.0509 158.093 82.5899C158.049 82.6091 158.005 82.6282 157.96 82.648C157.47 82.8623 156.992 83.0921 156.525 83.3528C156.485 83.3751 156.445 83.3973 156.404 83.4202C155.455 83.9618 154.555 84.774 153.874 85.6251C153.826 85.6831 153.777 85.7411 153.727 85.8008C152.98 86.7112 152.653 87.5751 152.562 88.7501C152.553 88.8547 152.553 88.8547 152.545 88.9615C152.454 91.5837 153.399 94.5485 154.999 96.6251C155.037 96.6755 155.075 96.7259 155.113 96.7779C155.976 97.9023 157.001 98.548 158.253 99.1736C159.965 100.038 159.965 100.038 160.249 100.781C160.27 100.853 160.291 100.926 160.312 101C160.243 101.027 160.243 101.027 160.173 101.054C159.961 101.141 159.759 101.243 159.555 101.347C159.435 101.407 159.315 101.465 159.194 101.522C158.411 101.897 157.677 102.36 156.937 102.813C156.886 102.843 156.834 102.874 156.782 102.906C156.532 103.052 156.532 103.052 156.343 103.266C156.243 103.816 156.357 104.368 156.438 104.914C156.612 106.084 156.724 107.247 156.778 108.428C156.783 108.538 156.788 108.649 156.793 108.759C156.803 108.975 156.812 109.192 156.82 109.408C156.878 110.82 157.494 111.563 158.507 112.497C158.583 112.565 158.66 112.631 158.737 112.697C158.848 112.79 158.956 112.885 159.064 112.981C161.232 114.9 163.559 115.702 166.437 115.563C166.986 115.519 167.523 115.424 168.062 115.313C168.14 115.296 168.217 115.28 168.298 115.264C169.306 115.052 170.267 114.798 171.21 114.379C171.745 114.143 172.273 113.943 172.839 113.793C172.893 113.779 172.946 113.764 173.001 113.749C174.317 113.419 175.671 113.37 177.019 113.291C178.517 113.202 180.008 113.104 181.499 112.938C181.566 112.93 181.633 112.923 181.701 112.915C183.831 112.679 185.83 112.331 187.878 111.695C187.947 111.674 188.015 111.653 188.085 111.631C190.636 110.837 191.882 109.869 193.198 107.566C193.815 106.491 194.475 105.468 195.249 104.5C195.295 104.443 195.34 104.385 195.387 104.326C195.466 104.228 195.544 104.13 195.624 104.032C195.719 103.912 195.814 103.792 195.908 103.671C196.224 103.266 196.546 102.867 196.879 102.476C197.135 102.177 197.38 101.871 197.624 101.563C197.791 101.354 197.957 101.146 198.124 100.938C198.169 100.882 198.213 100.827 198.259 100.77C198.4 100.595 198.543 100.422 198.687 100.25C198.737 100.188 198.788 100.126 198.839 100.063C198.891 100.002 198.942 99.9414 198.995 99.879C199.041 99.8243 199.087 99.7696 199.134 99.7132C199.549 99.3619 200.08 99.2645 200.605 99.1797C200.699 99.1642 200.699 99.1642 200.794 99.1483C201.734 98.9986 202.679 98.9439 203.628 98.8901C204.934 98.8157 206.238 98.7282 207.542 98.6368C207.629 98.6307 207.629 98.6307 207.718 98.6245C209.545 98.4964 211.37 98.36 213.187 98.1251C213.23 98.1194 213.274 98.1138 213.319 98.108C214.584 97.9427 215.748 97.672 216.937 97.211C217.039 97.1717 217.142 97.1324 217.244 97.0931C218.488 96.6148 219.71 96.0928 220.925 95.5474C221.199 95.4248 221.474 95.3058 221.75 95.1895C222.534 94.857 223.146 94.4065 223.749 93.8126C223.802 93.762 223.855 93.7115 223.909 93.6595C225.013 92.5341 225.588 90.932 226.173 89.4991C226.247 89.3194 226.321 89.14 226.396 88.9608C226.441 88.8515 226.486 88.7422 226.531 88.6329C226.551 88.5843 226.571 88.5357 226.592 88.4857C226.947 87.6117 226.925 86.7264 226.812 85.8047C226.77 85.4509 226.729 85.0981 226.71 84.7422C226.706 84.6712 226.701 84.6001 226.696 84.5269C226.827 84.0002 227.425 83.667 227.843 83.3633C227.955 83.2803 228.067 83.1971 228.179 83.1138C228.233 83.0731 228.288 83.0323 228.344 82.9904C228.396 82.9523 228.447 82.9143 228.499 82.8751C228.563 82.8277 228.563 82.8277 228.628 82.7793C229.239 82.3209 229.767 81.7979 230.3 81.254C230.888 80.6538 231.484 80.1235 232.182 79.6515C232.388 79.5104 232.588 79.3603 232.788 79.211C233.077 78.9987 233.368 78.7911 233.661 78.5858C235.152 77.5415 236.472 76.3704 237.277 74.711C237.297 74.6708 237.316 74.6306 237.337 74.5891C237.658 73.894 237.721 73.1749 237.714 72.418C237.714 72.3747 237.714 72.3313 237.714 72.2867C237.695 69.6182 236.663 67.2759 234.82 65.3633C234.045 64.6106 233.045 63.8752 231.999 63.5626C231.939 63.5441 231.879 63.5257 231.818 63.5066C229.918 63.0113 227.583 63.5053 225.676 63.8179C224.043 64.0845 224.043 64.0845 223.624 63.8751C223.593 63.7278 223.57 63.585 223.55 63.4361C223.536 63.3425 223.523 63.2489 223.509 63.1553C223.501 63.1057 223.494 63.0562 223.487 63.0052C223.329 61.9357 223.085 60.9465 222.687 59.9376C222.661 59.8729 222.636 59.8082 222.61 59.7415C222.155 58.6087 221.624 57.6592 220.812 56.7501C220.754 56.6809 220.754 56.6809 220.695 56.6104C219.906 55.667 218.86 54.9536 217.813 54.3259C217.687 54.2502 217.562 54.1734 217.436 54.0965C214.026 52.0265 208.088 50.3994 204.624 53.3751ZM159.187 74.5001C159.166 74.5619 159.146 74.6238 159.124 74.6876C159.062 74.6463 159.001 74.6051 158.937 74.5626C159.018 74.7428 159.103 74.8671 159.249 75.0001C159.249 74.8351 159.249 74.6701 159.249 74.5001C159.229 74.5001 159.208 74.5001 159.187 74.5001ZM41.9296 77.7879C41.3449 77.9831 40.7651 78.138 40.1595 78.2579C38.8434 78.5227 37.6482 78.9953 36.428 79.5403C35.9662 79.7464 35.5016 79.9408 35.0306 80.1251C34.462 80.349 33.8983 80.583 33.3376 80.826C33.252 80.8631 33.1664 80.9 33.0806 80.9367C32.3331 81.2571 31.5954 81.6112 30.9564 82.1212C30.9068 82.1605 30.9068 82.1605 30.8563 82.2007C30.7578 82.2792 30.6598 82.3584 30.5619 82.4376C30.4752 82.505 30.4752 82.505 30.3868 82.5738C27.745 84.6613 26.3683 87.5294 25.6869 90.7501C24.5969 90.7892 23.6484 90.5726 22.6209 90.2261C21.6311 89.9122 20.4406 90.2884 19.4994 90.6251C19.4422 90.6452 19.385 90.6654 19.3261 90.6862C17.982 91.1637 16.7317 91.6895 15.6869 92.6876C15.6484 92.7213 15.61 92.7551 15.5704 92.7899C14.6037 93.6721 14.2945 94.9735 14.02 96.1997C13.9794 96.3808 13.9379 96.5617 13.8962 96.7426C13.8696 96.8591 13.843 96.9756 13.8165 97.0921C13.8043 97.1455 13.7921 97.1989 13.7796 97.2539C13.3574 99.143 14.1495 100.631 14.9541 102.293C15.6379 103.713 15.6379 103.713 15.6141 104.108C15.5196 104.365 15.2956 104.444 15.0619 104.563C14.8495 104.66 14.634 104.748 14.4173 104.836C13.9326 105.038 13.4876 105.251 13.0619 105.563C12.9733 105.626 12.9733 105.626 12.8829 105.69C11.5486 106.667 10.3187 107.866 9.99935 109.563C9.97324 109.871 9.96751 110.179 9.9642 110.488C9.96204 110.648 9.95937 110.807 9.95614 110.966C9.95537 111.036 9.9546 111.105 9.9538 111.177C9.936 111.385 9.88552 111.555 9.81185 111.75C9.43021 111.722 9.15889 111.455 8.86703 111.23C8.62544 111.042 8.62544 111.042 8.3348 111.022C8.14959 111.151 7.98274 111.293 7.81966 111.449C7.77002 111.496 7.77002 111.496 7.71937 111.544C7.62476 111.633 7.53077 111.723 7.43685 111.813C7.3952 111.852 7.35355 111.891 7.31063 111.931C7.04792 112.184 6.82146 112.462 6.59335 112.746C6.48494 112.879 6.37588 113.008 6.26278 113.137C5.7982 113.665 5.38383 114.217 4.97829 114.792C4.87342 114.939 4.767 115.085 4.66 115.231C3.52819 116.774 2.77814 118.206 3.05088 120.175C3.38799 122.335 5.04437 124.101 6.75034 125.357C6.83407 125.418 6.91802 125.478 7.00222 125.538C7.12373 125.625 7.24358 125.713 7.36312 125.803C7.87071 126.181 8.38851 126.544 8.91299 126.899C9.01982 126.972 9.12654 127.044 9.23318 127.117C12.4921 129.332 15.286 130.57 19.2678 130.063C21.5997 129.767 21.5997 129.767 22.7572 129.773C22.8372 129.774 22.9172 129.774 22.9997 129.774C23.5371 129.786 24.1567 129.832 24.6244 130.125C24.8336 130.549 24.8768 130.997 24.9369 131.461C25.0086 132.416 25.0086 132.416 25.4915 133.188C25.5326 133.221 25.5737 133.255 25.6161 133.289C26.2206 133.679 27.0497 133.645 27.745 133.693C28.8068 133.769 29.8607 133.889 30.9168 134.021C32.0006 134.156 33.0846 134.265 34.1733 134.351C35.1506 134.43 36.1161 134.564 37.0775 134.758C37.1832 134.779 37.289 134.8 37.3949 134.821C37.4393 134.83 37.4837 134.839 37.5294 134.848C37.9695 134.924 38.3939 134.947 38.8397 134.948C38.9019 134.948 38.964 134.949 39.0281 134.949C39.2295 134.949 39.4308 134.949 39.6322 134.949C39.7011 134.949 39.7701 134.949 39.8412 134.949C41.9281 134.945 44.0185 134.818 46.0579 134.344C46.1058 134.333 46.1537 134.322 46.2031 134.31C46.8707 134.142 47.4765 133.835 48.0697 133.492C48.1316 133.457 48.1936 133.421 48.2574 133.385C49.6219 132.6 50.8973 131.761 52.0908 130.732C52.3667 130.496 52.646 130.264 52.929 130.035C52.9662 130.005 53.0033 129.975 53.0415 129.944C53.7212 129.399 53.7212 129.399 54.0877 129.341C54.3814 129.386 54.6261 129.489 54.8978 129.606C55.9615 130.042 57.0646 130.365 58.1623 130.704C58.2999 130.746 58.4373 130.789 58.5747 130.832C60.443 131.417 62.3352 131.88 64.2587 132.242C64.4593 132.28 64.6586 132.32 64.8578 132.365C65.4571 132.499 66.0296 132.532 66.64 132.527C66.6922 132.527 66.7444 132.527 66.7982 132.527C67.9529 132.523 69.105 132.455 70.2572 132.387C70.3232 132.383 70.3232 132.383 70.3905 132.379C73.8507 132.174 77.0982 131.85 80.305 130.475C80.5938 130.351 80.8841 130.234 81.1778 130.123C82.5928 129.585 84.0379 128.913 85.2494 128C85.3266 127.944 85.4038 127.887 85.481 127.831C86.5364 127.049 87.1443 126.076 87.5365 124.825C87.6721 124.516 87.8446 124.353 88.1517 124.219C88.2464 124.187 88.3415 124.156 88.4369 124.125C89.0508 123.928 89.6164 123.672 90.1947 123.389C90.5823 123.2 90.9717 123.032 91.3744 122.879C93.2984 122.136 94.93 120.943 96.2664 119.375C96.3879 119.234 96.5139 119.098 96.64 118.961C96.9891 118.573 97.3076 118.164 97.6244 117.75C97.6569 117.708 97.6895 117.665 97.723 117.621C97.8233 117.49 97.9231 117.358 98.0228 117.227C98.0685 117.166 98.0685 117.166 98.1152 117.105C98.2032 116.988 98.2889 116.869 98.3744 116.75C98.4023 116.714 98.4303 116.677 98.4591 116.64C98.9217 115.989 98.9084 115.143 98.9017 114.375C98.9015 114.33 98.9014 114.284 98.9012 114.237C98.8857 111.463 98.2511 108.763 96.2494 106.75C94.9011 105.465 92.8621 105.027 91.1169 104.565C90.9088 104.51 90.7016 104.451 90.4945 104.393C88.9311 103.967 86.9177 104.029 85.3744 104.5C85.2076 104.528 85.0427 104.545 84.8744 104.563C84.3845 102.978 84.4483 101.326 84.6126 99.6993C84.6178 99.6478 84.623 99.5964 84.6283 99.5433C84.6835 99.0029 84.75 98.4675 84.8477 97.9329C84.9728 97.2488 85.0076 96.6138 84.9837 95.918C84.9824 95.8757 84.981 95.8333 84.9796 95.7896C84.955 95.0549 84.9064 94.3226 84.847 93.5899C84.8413 93.5182 84.8413 93.5182 84.8354 93.445C84.7419 92.188 84.7419 92.188 84.472 90.961C84.4484 90.8835 84.4484 90.8835 84.4243 90.8044C83.8723 89.1018 82.7426 87.632 81.1478 86.8047C81.0925 86.7754 81.0925 86.7754 81.036 86.7455C80.2702 86.3639 79.4302 86.1966 78.5931 86.0587C78.4205 86.0298 78.248 86.0004 78.0755 85.9705C78.0334 85.9632 77.9912 85.9559 77.9478 85.9484C77.5537 85.8779 77.168 85.7812 76.781 85.6794C76.4118 85.5879 76.0616 85.5516 75.682 85.5477C75.6081 85.5468 75.6081 85.5468 75.5328 85.5458C75.3706 85.5443 75.2084 85.5435 75.0462 85.543C74.9902 85.5429 74.9343 85.5427 74.8766 85.5425C72.8308 85.5419 70.4525 85.5827 68.5619 86.4376C68.5239 86.4543 68.4859 86.471 68.4468 86.4882C67.8621 86.7493 67.3125 87.0755 66.765 87.4063C66.6994 87.4449 66.6339 87.4834 66.5664 87.5231C66.1837 87.7595 65.9555 87.9448 65.8119 88.3751C65.797 88.4144 65.7822 88.4537 65.7669 88.4941C65.7227 88.6127 65.6813 88.732 65.64 88.8516C65.3779 89.577 65.0016 90.3763 64.4056 90.8829C64.1863 90.9596 64.0857 90.903 63.8744 90.8126C63.0935 90.1551 62.6325 89.1439 62.1433 88.2709C60.9469 86.1454 59.6392 84.0946 57.9754 82.3026C57.8245 82.1388 57.6774 81.9722 57.5306 81.8047C56.671 80.8528 55.6096 80.0731 54.4994 79.4376C54.449 79.4087 54.3987 79.3798 54.3468 79.35C52.7213 78.4309 50.9512 77.7833 49.1182 77.4356C48.8377 77.3817 48.5616 77.3154 48.2845 77.2462C47.8786 77.1468 47.4714 77.0756 47.0579 77.0157C47.0036 77.0077 46.9494 76.9997 46.8934 76.9915C45.2281 76.7626 43.4944 77.2635 41.9296 77.7879Z" fill="#607090"/>
</svg>
