<svg width="960" height="192" viewBox="0 0 960 192" fill="none" xmlns="http://www.w3.org/2000/svg">
<path d="M69.3737 51.7285C69.3737 51.7285 68.7371 50.4709 67.4639 47.9558C66.1907 45.4406 65.0154 43.4302 63.9382 41.9244C62.8609 40.4186 61.71 39.1772 60.4854 38.2004C59.2608 37.2235 58.0423 36.4042 56.83 35.7424C55.6176 35.0806 54.3937 34.499 53.1581 33.9976C51.9225 33.4962 50.0274 33.2216 47.4728 33.174C44.9182 33.1263 42.952 33.3568 41.5742 33.8655C40.1964 34.3741 38.7797 35.0547 37.3241 35.9072C35.8685 36.7596 34.4864 37.7671 33.1779 38.9295C31.8693 40.0919 30.6895 41.473 29.6385 43.0728C28.5874 44.6726 27.3521 46.5043 25.9327 48.568C24.5132 50.6316 23.1671 52.9314 21.8944 55.4673C20.6216 58.0031 19.5126 60.613 18.5673 63.297C17.6219 65.9809 16.9209 68.8954 16.4642 72.0404C16.0074 75.1854 15.6554 78.3876 15.4081 81.647C15.1607 84.9064 15.0564 88.0679 15.0952 91.1317C15.1339 94.1954 15.4694 97.1368 16.1017 99.9558C16.7339 102.775 17.6618 105.574 18.8853 108.353C20.1087 111.132 21.5455 113.753 23.1955 116.215C24.8455 118.678 26.6986 120.708 28.755 122.306C30.8113 123.905 32.8466 125.317 34.8608 126.543C36.875 127.768 38.8281 128.77 40.7201 129.546C42.6121 130.323 44.4664 130.91 46.283 131.306C48.0996 131.703 49.9194 131.858 51.7426 131.769C53.5657 131.681 55.2199 131.29 56.7052 130.596C58.1904 129.902 59.6886 128.903 61.1998 127.599C62.7109 126.295 64.1037 124.804 65.3781 123.125C66.6525 121.445 67.8774 119.557 69.0528 117.461C70.2282 115.364 71.3643 113.061 72.4613 110.551C73.5582 108.042 74.733 105.52 75.9857 102.986C77.2383 100.451 78.5269 98.0915 79.8513 95.9067C81.1757 93.7219 82.5214 91.7149 83.8886 89.8859C85.2557 88.0568 86.6752 86.4506 88.1472 85.0672C89.6191 83.6838 91.2538 82.5665 93.0512 81.7155C94.8486 80.8644 96.6972 80.2984 98.597 80.0175C100.497 79.7365 102.446 79.7869 104.444 80.1686C106.442 80.5502 108.24 81.1147 109.837 81.8621C111.433 82.6094 112.938 83.537 114.35 84.6449C115.763 85.7527 117.287 87.0114 118.922 88.4208C120.557 89.8302 121.769 90.6294 122.557 90.8185C123.346 91.0075 123.74 91.1021 123.74 91.1023C124.713 91.4889 125.492 92.246 125.906 93.207C126.321 94.1681 126.336 95.2544 125.95 96.227C125.563 97.1996 124.806 97.9788 123.845 98.3932C122.884 98.8075 121.797 98.8232 120.825 98.4366C120.825 98.4367 119.754 97.7675 117.611 96.429C115.468 95.0904 113.491 93.5738 111.68 91.8791C109.869 90.1843 107.821 88.8541 105.536 87.8885C103.252 86.9228 100.906 86.7061 98.5001 87.2384C96.0938 87.7706 94.3098 88.5749 93.148 89.6513C91.9862 90.7276 90.787 92.0868 89.5506 93.729C88.3141 95.3711 87.0842 97.1961 85.861 99.2039C84.6377 101.212 83.4323 103.431 82.2449 105.861C81.0574 108.291 79.8934 110.867 78.7528 113.589C77.6122 116.311 76.4046 118.894 75.13 121.34C73.8554 123.785 72.4279 126.084 70.8476 128.236C69.2672 130.388 67.4221 132.353 65.3122 134.132C63.2022 135.91 60.9499 137.282 58.5551 138.247C56.1603 139.212 53.6895 139.729 51.1427 139.799C48.5959 139.868 46.1785 139.652 43.8906 139.151C41.6026 138.649 39.306 137.935 37.0007 137.007C34.6953 136.08 32.362 134.911 30.0006 133.501C27.6392 132.091 25.1309 130.283 22.4757 128.076C19.8205 125.87 17.5398 123.286 15.6336 120.324C13.7274 117.362 12.1067 114.219 10.7717 110.894C9.4366 107.569 8.4524 104.217 7.81907 100.838C7.18573 97.4595 6.88477 94.1144 6.91617 90.8033C6.94757 87.4921 7.13144 84.1102 7.46777 80.6575C7.8041 77.2047 8.29803 73.6748 8.94957 70.0678C9.6011 66.4607 10.5054 63.1827 11.6624 60.2337C12.8194 57.2847 14.158 54.4268 15.6784 51.6601C17.1987 48.8933 18.7022 46.5022 20.1888 44.4867C21.6754 42.4711 23.1546 40.4878 24.6266 38.5368C26.0985 36.5857 27.6762 34.9161 29.3597 33.5279C31.0431 32.1397 32.7993 30.9484 34.6281 29.9541C36.4569 28.9597 38.3024 28.1608 40.1647 27.5573C42.0269 26.9537 43.9026 26.5839 45.7918 26.4477C47.6809 26.3115 49.4808 26.4303 51.1916 26.8041C52.9023 27.1779 54.4885 27.6833 55.9502 28.3204C57.4118 28.9574 58.8985 29.7256 60.4101 30.6248C61.9217 31.524 63.4532 32.6674 65.0047 34.0551C66.5561 35.4427 67.9309 37.0283 69.1289 38.8118C70.3269 40.5952 71.5507 42.7522 72.8003 45.2828C74.0499 47.8133 74.6746 49.0784 74.6745 49.0781C75.0199 49.7803 75.0735 50.5906 74.8236 51.3323C74.5737 52.0739 74.0406 52.6865 73.3407 53.0365C72.6407 53.3865 71.8307 53.4454 71.0875 53.2003C70.3443 52.9552 69.7282 52.4261 69.3737 51.7285ZM118.824 96.6692C118.824 96.6692 118.54 96.1785 117.973 95.1971C117.405 94.2157 116.424 92.9594 115.027 91.4284C113.631 89.8973 112.128 88.7567 110.519 88.0065C108.909 87.2563 106.856 86.6184 104.358 86.093C101.86 85.5675 99.6607 85.9746 97.7595 87.3143C95.8582 88.6539 94.1809 90.1429 92.7275 91.7811C91.2741 93.4193 90.0723 95.1916 89.1222 97.098C88.172 99.0044 87.5536 101.187 87.267 103.645C86.9803 106.104 87.1244 108.822 87.6994 111.801C88.2743 114.779 89.0828 117.848 90.125 121.008C91.1671 124.167 92.2483 126.94 93.3686 129.328C94.4888 131.715 95.6557 133.679 96.8693 135.219C98.0828 136.759 99.8545 137.944 102.184 138.775C104.514 139.606 106.79 139.306 109.013 137.875C111.235 136.443 112.748 135.059 113.553 133.721C114.357 132.384 115.162 130.817 115.966 129.022C116.771 127.227 117.457 125.407 118.024 123.562C118.591 121.717 119.091 119.776 119.524 117.738C119.956 115.7 120.116 113.735 120.002 111.842C119.887 109.95 119.654 108.045 119.303 106.127C118.952 104.21 118.493 102.614 117.927 101.342C117.361 100.069 116.542 98.6753 115.47 97.16C114.398 95.6446 113.212 94.201 111.912 92.8291C110.613 91.4571 109.963 90.7712 109.963 90.7714C109.065 90.0453 108.492 88.9929 108.369 87.845C108.247 86.697 108.584 85.5472 109.308 84.6478C110.032 83.7483 111.083 83.1726 112.23 83.047C113.378 82.9214 114.529 83.256 115.43 83.9776C115.43 83.9777 116.077 84.5174 117.371 85.5968C118.665 86.6761 119.944 88.0187 121.207 89.6247C122.47 91.2306 123.476 92.699 124.224 94.0298C124.972 95.3606 125.718 96.9834 126.461 98.8984C127.205 100.813 127.745 102.938 128.083 105.273C128.421 107.607 128.588 110.068 128.585 112.655C128.582 115.243 128.305 117.673 127.752 119.946C127.199 122.219 126.57 124.429 125.866 126.577C125.161 128.725 124.303 130.894 123.293 133.083C122.282 135.273 121.056 137.386 119.613 139.423C118.17 141.459 116.501 143.137 114.606 144.456C112.71 145.775 110.574 146.77 108.197 147.441C105.819 148.112 103.471 148.193 101.15 147.682C98.8298 147.171 96.7023 146.275 94.7676 144.992C92.8328 143.709 91.0521 142.011 89.4255 139.897C87.7988 137.784 86.3468 135.353 85.0696 132.604C83.7923 129.855 82.5968 126.682 81.483 123.085C80.3692 119.489 79.5501 115.762 79.0258 111.906C78.5014 108.05 78.549 104.456 79.1684 101.124C79.7878 97.7921 80.781 94.8772 82.1482 92.3793C83.5153 89.8813 85.0726 87.6658 86.8202 85.7326C88.5677 83.7994 90.4663 82.0567 92.5159 80.5047C94.5655 78.9526 96.5836 77.9677 98.5704 77.5499C100.557 77.1321 102.427 77.048 104.18 77.2976C105.933 77.5472 107.572 77.9006 109.097 78.3579C110.621 78.8151 112.045 79.3366 113.367 79.9224C114.69 80.5081 115.913 81.1857 117.037 81.9552C118.161 82.7246 119.558 84.101 121.228 86.0844C122.898 88.0677 124.068 89.6944 124.737 90.9645C125.407 92.2345 125.742 92.8696 125.741 92.8698C126.245 93.7871 126.364 94.867 126.071 95.872C125.779 96.8769 125.099 97.7245 124.182 98.2283C123.265 98.7322 122.185 98.8509 121.18 98.5585C120.175 98.2661 119.327 97.5865 118.824 96.6692ZM116.878 86.1384C116.878 86.1384 116.969 86.509 117.151 87.2504C117.332 87.9917 118.005 89.2654 119.169 91.0715C120.333 92.8775 121.286 94.6329 122.028 96.3375C122.771 98.0421 123.446 99.4937 124.053 100.692C124.66 101.891 125.651 103.212 127.026 104.655C128.401 106.098 129.998 107.235 131.818 108.065C133.638 108.895 135.646 108.837 137.841 107.891C140.036 106.945 142.051 105.506 143.887 103.574C145.723 101.642 146.993 100.061 147.697 98.8301C148.401 97.5991 149.191 96.165 150.066 94.528C150.941 92.8909 151.846 91.1646 152.781 89.3491C153.716 87.5335 154.693 85.7859 155.713 84.1062C156.732 82.4264 157.749 80.8253 158.765 79.3028C159.78 77.7803 160.707 76.3958 161.544 75.1496C162.381 73.9033 163.268 72.6203 164.205 71.3007C165.142 69.981 166.157 68.7508 167.249 67.61C168.34 66.4692 169.824 65.1598 171.698 63.6819C173.572 62.2039 175.44 61.333 177.3 61.0691C179.16 60.8051 180.774 61.4784 182.141 63.0888C183.508 64.6992 184.449 66.1152 184.964 67.3368C185.478 68.5584 185.887 69.8488 186.188 71.2082C186.49 72.5675 186.453 74.3384 186.076 76.521C185.699 78.7035 185.21 80.9065 184.609 83.1301C184.008 85.3536 183.379 87.6663 182.722 90.0682C182.065 92.47 181.633 94.5353 181.424 96.2639C181.215 97.9925 181.087 99.6409 181.038 101.209C180.99 102.777 180.964 104.819 180.961 107.335C180.959 109.85 180.963 112.301 180.973 114.689C180.982 117.076 181.108 119.056 181.348 120.629C181.588 122.202 182.303 123.613 183.492 124.862C184.681 126.112 185.854 127.186 187.012 128.084C188.17 128.983 189.611 128.986 191.335 128.095C193.06 127.204 194.717 125.832 196.307 123.981C197.896 122.131 199.154 120.512 200.081 119.127C201.007 117.742 201.902 115.987 202.765 113.864C203.629 111.742 204.631 109.281 205.773 106.482C206.915 103.684 208.029 100.989 209.116 98.3972C210.203 95.8058 211.168 93.2409 212.011 90.7024C212.854 88.1638 213.558 85.6983 214.121 83.3057C214.685 80.9131 215.27 78.3577 215.877 75.6395C216.484 72.9213 217.014 70.1718 217.467 67.3911C217.92 64.6103 218.439 61.9519 219.024 59.4157C219.609 56.8795 220.12 54.4408 220.556 52.0997C220.992 49.7585 221.402 47.3487 221.785 44.8701C222.168 42.3915 222.546 39.8687 222.918 37.3019C223.29 34.735 223.585 32.1879 223.802 29.6606C224.019 27.1332 224.203 24.8805 224.354 22.9025C224.505 20.9244 224.362 19.3984 223.927 18.3245C223.491 17.2505 223.273 16.7136 223.273 16.7137C222.339 16.2347 221.633 15.4041 221.311 14.4048C220.989 13.4054 221.077 12.319 221.556 11.3847C222.035 10.4503 222.866 9.74454 223.865 9.42256C224.864 9.10058 225.951 9.18878 226.885 9.66778C226.885 9.66784 227.802 10.742 229.637 12.8902C231.471 15.0384 232.454 16.8175 232.586 18.2275C232.717 19.6375 232.756 21.3684 232.701 23.4203C232.647 25.4721 232.534 27.8616 232.362 30.5886C232.191 33.3156 231.922 35.9869 231.556 38.6027C231.19 41.2184 230.798 43.811 230.379 46.3804C229.96 48.9498 229.506 51.4596 229.018 53.9099C228.53 56.3601 228.002 58.769 227.432 61.1366C226.863 63.5041 226.308 66.1547 225.767 69.0884C225.225 72.022 224.614 74.8591 223.933 77.5997C223.251 80.3402 222.569 83.0002 221.884 85.5798C221.2 88.1593 220.394 90.8033 219.468 93.5119C218.542 96.2204 217.542 98.8635 216.468 101.441C215.394 104.019 214.275 106.718 213.111 109.54C211.948 112.362 210.807 115.052 209.689 117.609C208.571 120.167 207.493 122.203 206.456 123.716C205.418 125.23 204.347 126.688 203.243 128.09C202.139 129.493 201.032 130.706 199.922 131.729C198.812 132.752 197.489 133.736 195.952 134.68C194.415 135.624 192.293 136.182 189.585 136.352C186.877 136.523 184.892 136.268 183.629 135.586C182.366 134.905 180.907 133.68 179.251 131.912C177.596 130.144 176.346 128.674 175.502 127.502C174.658 126.33 174.042 124.496 173.655 122.001C173.267 119.505 173.084 117.059 173.105 114.661C173.126 112.264 173.156 109.778 173.194 107.204C173.231 104.63 173.299 102.465 173.395 100.711C173.492 98.9563 173.698 96.9976 174.012 94.8347C174.326 92.6717 174.796 90.4179 175.424 88.0732C176.051 85.7284 176.643 83.4907 177.198 81.3599C177.753 79.2291 178.16 77.2529 178.418 75.4313C178.676 73.6097 178.528 72.089 177.972 70.8693C177.417 69.6495 176.337 69.8831 174.733 71.5701C173.129 73.257 171.881 74.7295 170.99 75.9876C170.099 77.2456 169.235 78.5002 168.398 79.7513C167.561 81.0023 166.661 82.3387 165.696 83.7605C164.732 85.1822 163.779 86.6497 162.837 88.1629C161.894 89.6761 160.927 91.3577 159.935 93.2079C158.943 95.058 157.954 96.8472 156.968 98.5755C155.981 100.304 154.971 101.95 153.937 103.515C152.904 105.08 151.812 106.479 150.663 107.712C149.514 108.945 148.287 110.134 146.982 111.278C145.677 112.423 144.351 113.387 143.003 114.169C141.655 114.952 140.198 115.597 138.633 116.103C137.068 116.61 135.536 116.778 134.037 116.607C132.538 116.436 131.123 116.062 129.792 115.487C128.462 114.913 127.226 114.263 126.085 113.54C124.944 112.816 123.403 111.376 121.462 109.22C119.521 107.064 118.176 105.339 117.427 104.045C116.678 102.752 115.599 100.988 114.19 98.7539C112.782 96.5197 111.644 94.7488 110.776 93.441C109.908 92.1332 109.315 91.0012 108.995 90.0451C108.675 89.0889 108.515 88.6108 108.515 88.6106C108.187 87.5016 108.313 86.3078 108.866 85.2919C109.418 84.2759 110.351 83.521 111.46 83.1931C112.569 82.8653 113.763 82.9914 114.779 83.5438C115.795 84.0961 116.55 85.0294 116.878 86.1384ZM228.508 15.1691C228.508 15.1691 228.102 15.8494 227.29 17.2101C226.478 18.5707 225.701 20.2339 224.958 22.1996C224.216 24.1652 223.602 26.4175 223.116 28.9564C222.631 31.4952 222.094 34.3169 221.506 37.4215C220.918 40.526 220.226 44.2016 219.431 48.4482C218.635 52.6948 218.032 56.3812 217.621 59.5076C217.209 62.6339 216.824 65.7438 216.466 68.8372C216.107 71.9306 215.847 75.1249 215.685 78.4202C215.524 81.7154 215.406 84.7115 215.331 87.4083C215.257 90.1051 215.277 93.311 215.394 97.0262C215.51 100.741 215.668 103.878 215.87 106.435C216.071 108.992 216.438 111.063 216.972 112.646C217.506 114.229 218.074 115.784 218.677 117.313C219.28 118.841 220.032 120.427 220.933 122.071C221.834 123.715 222.78 125.153 223.77 126.384C224.761 127.615 225.728 128.718 226.672 129.693C227.616 130.668 228.942 130.855 230.651 130.252C232.359 129.649 233.854 128.256 235.136 126.072C236.419 123.889 237.206 121.992 237.499 120.382C237.792 118.772 238.113 117.005 238.462 115.08C238.811 113.156 239.065 111.408 239.225 109.837C239.384 108.267 239.531 106.188 239.664 103.601C239.798 101.014 239.899 98.4046 239.966 95.7716C240.034 93.1386 240.081 91.0106 240.106 89.3877C240.132 87.7647 240.001 85.9883 239.715 84.0584C239.429 82.1284 239.285 81.1634 239.285 81.1634C239.186 80.6724 239.184 80.1666 239.279 79.6748C239.375 79.183 239.566 78.7149 239.843 78.2972C240.12 77.8794 240.476 77.5202 240.891 77.2401C241.307 76.96 241.773 76.7645 242.264 76.6647C243.255 76.4631 244.287 76.6636 245.13 77.2222C245.974 77.7808 246.561 78.6516 246.763 79.6432C246.763 79.6431 246.854 80.0711 247.036 80.9273C247.218 81.7834 247.404 83.0088 247.592 84.6036C247.781 86.1983 247.876 87.8149 247.877 89.4535C247.878 91.092 247.877 92.5857 247.876 93.9345C247.874 95.2833 247.864 96.6391 247.845 98.0021C247.826 99.365 247.783 100.74 247.717 102.128C247.65 103.516 247.558 104.91 247.44 106.31C247.323 107.71 247.146 109.283 246.911 111.029C246.675 112.774 246.357 114.634 245.957 116.609C245.557 118.584 245.091 120.671 244.56 122.871C244.029 125.07 243.298 127.038 242.366 128.774C241.434 130.51 239.946 132.355 237.903 134.309C235.859 136.263 234.148 137.549 232.768 138.167C231.389 138.785 229.99 139.039 228.572 138.928C227.153 138.818 225.836 138.392 224.62 137.653C223.404 136.913 222.196 135.968 220.996 134.817C219.796 133.666 218.556 132.287 217.274 130.68C215.992 129.073 214.843 127.296 213.825 125.35C212.808 123.404 211.977 121.584 211.333 119.89C210.689 118.196 210.049 116.28 209.413 114.142C208.777 112.005 208.348 109.582 208.125 106.873C207.902 104.164 207.746 100.869 207.656 96.9862C207.566 93.1036 207.587 89.7892 207.72 87.043C207.852 84.2968 208.034 81.203 208.265 77.7616C208.496 74.3202 208.805 71.0449 209.192 67.9357C209.579 64.8265 209.975 61.6435 210.38 58.3869C210.785 55.1302 211.364 51.3635 212.117 47.0868C212.87 42.81 213.525 39.2241 214.08 36.329C214.635 33.4338 215.036 30.948 215.283 28.8714C215.53 26.7948 216.014 24.692 216.736 22.5632C217.458 20.4343 218.054 18.7339 218.523 17.4621C218.991 16.1902 219.63 14.8308 220.438 13.3838C221.246 11.9368 221.65 11.213 221.65 11.2124C222.175 10.3029 223.039 9.63913 224.053 9.36705C224.555 9.23233 225.079 9.19783 225.594 9.26553C226.11 9.33322 226.607 9.50178 227.057 9.76158C227.508 10.0214 227.902 10.3673 228.219 10.7797C228.536 11.192 228.768 11.6627 228.903 12.1649C229.037 12.667 229.072 13.1907 229.004 13.7062C228.937 14.2217 228.768 14.7188 228.508 15.1691ZM246.417 78.659C246.417 78.659 246.435 78.8543 246.472 79.2451C246.508 79.6358 247.15 80.2795 248.398 81.1761C249.646 82.0727 251.121 82.741 252.824 83.181C254.526 83.621 256.188 84.0126 257.81 84.3559C259.431 84.6991 260.763 85.5017 261.806 86.7637C262.849 88.0256 263.816 89.4876 264.708 91.1498C265.599 92.8119 266.777 93.7945 268.241 94.0976C269.706 94.4007 271.335 94.3179 273.13 93.8493C274.925 93.3807 276.441 92.7268 277.678 91.8877C278.915 91.0485 280.136 89.9102 281.341 88.4727C282.546 87.0351 283.593 85.6265 284.481 84.2468C285.369 82.867 286.237 81.6256 287.082 80.5224C287.928 79.4192 288.351 78.8676 288.351 78.8678C288.887 78.2187 289.657 77.8081 290.495 77.7256C291.332 77.6432 292.168 77.8956 292.82 78.4277C293.472 78.9598 293.887 79.7284 293.974 80.5654C294.061 81.4025 293.813 82.2399 293.284 82.8947C293.284 82.8948 292.961 83.3253 292.313 84.1861C291.666 85.0469 290.832 86.2903 289.811 87.9165C288.791 89.5426 287.479 91.2817 285.877 93.1338C284.275 94.9858 282.506 96.5125 280.57 97.7139C278.634 98.9152 276.618 99.7867 274.522 100.328C272.426 100.87 270.488 101.315 268.708 101.664C266.928 102.013 265.186 101.563 263.481 100.313C261.777 99.0629 260.632 97.7652 260.048 96.4198C259.464 95.0744 258.671 93.7742 257.669 92.5193C256.667 91.2643 255.379 90.5826 253.804 90.4742C252.23 90.3657 250.737 90.0893 249.326 89.645C247.915 89.2006 246.333 88.4334 244.582 87.3432C242.83 86.253 241.567 85.1145 240.793 83.9278C240.018 82.741 239.631 82.1476 239.631 82.1476C239.169 81.2477 239.082 80.201 239.392 79.2375C239.701 78.2741 240.38 77.473 241.28 77.0104C242.18 76.5478 243.226 76.4616 244.19 76.7707C245.153 77.0799 245.954 77.7591 246.417 78.659ZM292.082 77.959C292.082 77.959 292.177 78.0009 292.367 78.0848C292.556 78.1686 292.651 78.2106 292.651 78.2107C293.425 78.5455 294.034 79.174 294.344 79.9579C294.654 80.7418 294.641 81.6169 294.306 82.3907C293.971 83.1644 293.342 83.7735 292.559 84.0838C291.775 84.3942 290.9 84.3804 290.126 84.0456C290.126 84.0456 290.03 84.0053 289.839 83.9246C289.648 83.8438 289.553 83.8035 289.553 83.8035C288.782 83.4653 288.177 82.8357 287.869 82.0523C287.561 81.2688 287.575 80.3953 287.91 79.6228C288.244 78.8502 288.871 78.2415 289.653 77.9297C290.435 77.6179 291.308 77.6284 292.082 77.959ZM294.567 81.1398C294.567 81.1398 294.553 81.8438 294.525 83.252C294.497 84.6601 294.096 86.5343 293.323 88.8746C292.549 91.2148 291.914 93.1762 291.418 94.7587C290.922 96.3411 290.494 98.1227 290.135 100.103C289.776 102.084 289.43 104.092 289.096 106.128C288.761 108.164 288.522 110.148 288.376 112.08C288.231 114.013 288.198 115.993 288.275 118.022C288.353 120.051 288.402 122.116 288.422 124.219C288.442 126.321 288.455 128.32 288.461 130.216C288.467 132.113 288.472 133.871 288.475 135.49C288.479 137.11 288.795 138.594 289.424 139.942C290.054 141.291 290.368 141.965 290.368 141.965C290.852 142.75 291.005 143.694 290.795 144.592C290.584 145.49 290.026 146.268 289.244 146.756C288.461 147.244 287.518 147.402 286.619 147.196C285.72 146.99 284.939 146.437 284.447 145.657C284.447 145.657 284.14 145.121 283.527 144.049C282.914 142.976 282.426 141.702 282.062 140.227C281.699 138.752 281.511 137.197 281.499 135.564C281.487 133.931 281.47 132.173 281.447 130.29C281.424 128.407 281.395 126.427 281.36 124.35C281.325 122.273 281.294 120.079 281.268 117.767C281.242 115.456 281.356 113.243 281.611 111.128C281.866 109.014 282.207 106.93 282.633 104.876C283.059 102.822 283.514 100.7 283.999 98.5117C284.483 96.3229 284.979 94.4572 285.486 92.9144C285.993 91.3716 286.583 89.577 287.256 87.5307C287.929 85.4843 288.256 83.9037 288.237 82.7889C288.219 81.674 288.209 81.1166 288.209 81.1166C288.212 80.2735 288.55 79.4661 289.149 78.8721C289.747 78.2781 290.557 77.9462 291.4 77.9492C292.243 77.9523 293.05 78.2902 293.644 78.8885C294.238 79.4869 294.57 80.2967 294.567 81.1398ZM287.155 140.331C287.155 140.331 287.55 140.321 288.34 140.302C289.129 140.283 290.441 139.293 292.274 137.332C294.107 135.371 295.656 133.364 296.922 131.311C298.187 129.258 299.384 126.853 300.512 124.097C301.641 121.341 302.736 118.427 303.799 115.357C304.862 112.286 305.924 109.561 306.986 107.182C308.047 104.803 309.144 102.834 310.276 101.275C311.408 99.717 312.455 98.4509 313.418 97.4771C314.38 96.5032 315.822 95.5548 317.742 94.6319C319.662 93.7089 320.622 93.2474 320.623 93.2474C321.409 92.983 322.268 93.0418 323.011 93.4108C323.754 93.7798 324.32 94.4288 324.584 95.215C324.848 96.0013 324.79 96.8603 324.421 97.6032C324.052 98.3461 323.402 98.912 322.616 99.1764C322.616 99.1763 322.361 99.2604 321.851 99.4286C321.34 99.5968 320.439 100.22 319.147 101.299C317.855 102.378 316.747 103.492 315.825 104.642C314.903 105.791 313.922 107.445 312.88 109.605C311.839 111.764 310.752 114.419 309.62 117.568C308.488 120.717 307.301 123.822 306.06 126.883C304.818 129.945 303.479 132.678 302.043 135.083C300.607 137.488 299.14 139.551 297.643 141.271C296.145 142.992 294.598 144.37 293 145.407C291.403 146.444 290.113 147.017 289.132 147.127C288.151 147.236 287.66 147.291 287.66 147.291C286.74 147.353 285.832 147.048 285.136 146.443C284.44 145.838 284.012 144.982 283.945 144.062C283.878 143.142 284.178 142.233 284.78 141.534C285.381 140.835 286.235 140.402 287.155 140.331ZM323.758 93.93C323.758 93.93 324.043 94.2235 324.613 94.8105C325.183 95.3975 325.725 96.4257 326.241 97.8951C326.756 99.3645 327.103 100.846 327.282 102.338C327.462 103.831 327.602 105.355 327.704 106.91C327.806 108.465 327.807 110.022 327.708 111.58C327.609 113.139 327.456 114.649 327.248 116.11C327.039 117.571 326.724 119.191 326.302 120.97C325.881 122.749 325.494 124.395 325.142 125.909C324.79 127.423 324.589 128.757 324.538 129.913C324.487 131.068 324.461 131.645 324.461 131.645C324.397 132.557 323.973 133.406 323.283 134.005C322.593 134.604 321.694 134.905 320.782 134.841C319.87 134.776 319.021 134.353 318.422 133.663C317.823 132.973 317.522 132.073 317.587 131.161C317.587 131.161 317.657 130.387 317.796 128.84C317.936 127.292 318.214 125.763 318.632 124.253C319.049 122.743 319.478 121.204 319.917 119.638C320.357 118.072 320.758 116.001 321.121 113.425C321.485 110.849 321.639 108.842 321.583 107.404C321.528 105.967 321.416 104.332 321.246 102.5C321.077 100.668 320.74 99.5423 320.236 99.1229C319.732 98.7035 319.481 98.4938 319.48 98.4938C319.181 98.2129 318.939 97.8757 318.77 97.5015C318.601 97.1273 318.507 96.7235 318.493 96.313C318.467 95.4839 318.77 94.6781 319.338 94.0729C319.905 93.4677 320.689 93.1127 321.518 93.0859C322.347 93.0591 323.153 93.3627 323.758 93.93ZM317.613 130.918C317.613 130.918 317.691 130.401 317.847 129.367C318.004 128.333 318.405 127.03 319.05 125.459C319.696 123.887 320.531 122.07 321.554 120.006C322.578 117.942 323.787 115.79 325.18 113.551C326.573 111.312 328.164 109.3 329.951 107.515C331.738 105.73 333.393 104.154 334.916 102.785C336.439 101.416 337.911 100.323 339.332 99.5063C340.753 98.6895 342.798 98.2463 345.466 98.1765C348.134 98.1067 349.964 98.6938 350.954 99.9378C351.945 101.182 352.666 102.584 353.118 104.144C353.57 105.704 353.767 107.448 353.709 109.377C353.65 111.306 353.541 113.269 353.381 115.266C353.221 117.262 352.938 119.476 352.534 121.906C352.129 124.337 351.724 126.912 351.318 129.632C350.912 132.353 350.71 133.713 350.71 133.713C350.625 134.423 350.262 135.07 349.701 135.513C349.14 135.956 348.426 136.159 347.716 136.077C347.006 135.996 346.357 135.636 345.911 135.076C345.466 134.517 345.26 133.804 345.339 133.094C345.339 133.094 345.45 131.723 345.674 128.982C345.898 126.241 346.09 123.635 346.25 121.163C346.41 118.692 346.647 116.497 346.96 114.577C347.273 112.658 347.551 111.041 347.793 109.728C348.034 108.414 347.85 106.841 347.239 105.008C346.628 103.174 345.423 102.705 343.623 103.6C341.824 104.495 340.201 105.585 338.755 106.869C337.31 108.154 335.86 109.523 334.407 110.978C332.954 112.433 331.645 114.216 330.48 116.328C329.315 118.441 328.314 120.499 327.475 122.504C326.637 124.509 325.97 126.193 325.475 127.556C324.98 128.919 324.683 129.981 324.584 130.744C324.485 131.507 324.436 131.888 324.436 131.889C324.302 132.789 323.818 133.601 323.088 134.145C322.359 134.69 321.443 134.924 320.542 134.796C319.64 134.667 318.826 134.188 318.277 133.461C317.728 132.734 317.489 131.82 317.613 130.918Z" fill="white"/>
<path d="M293.36 54.4033C293.36 53.9221 293.455 53.4457 293.639 53.0012C293.823 52.5567 294.093 52.1527 294.433 51.8125C294.774 51.4723 295.178 51.2024 295.622 51.0183C296.067 50.8341 296.543 50.7394 297.024 50.7394C297.505 50.7394 297.982 50.8341 298.426 51.0183C298.871 51.2024 299.275 51.4723 299.615 51.8125C299.955 52.1527 300.225 52.5567 300.409 53.0012C300.593 53.4457 300.688 53.9221 300.688 54.4033C300.688 54.8845 300.593 55.3609 300.409 55.8054C300.225 56.2499 299.955 56.6539 299.615 56.9941C299.275 57.3343 298.871 57.6042 298.426 57.7883C297.982 57.9724 297.505 58.0672 297.024 58.0672C296.543 58.0672 296.067 57.9724 295.622 57.7883C295.178 57.6042 294.774 57.3343 294.433 56.9941C294.093 56.6539 293.823 56.2499 293.639 55.8054C293.455 55.3609 293.36 54.8845 293.36 54.4033Z" fill="white"/>
<path d="M459.257 39.1513C459.257 39.1513 459.107 38.7506 458.808 37.9492C458.508 37.1478 457.513 36.4971 455.821 35.9971C454.129 35.4971 451.914 35.2618 449.175 35.2914C446.436 35.3209 444.179 35.4523 442.404 35.6855C440.629 35.9187 438.811 36.4899 436.952 37.3993C435.093 38.3086 433.165 39.4145 431.167 40.7171C429.169 42.0196 427.22 43.3627 425.321 44.7465C423.421 46.1302 421.605 47.6596 419.874 49.3347C418.143 51.0097 416.36 53.0877 414.525 55.5686C412.689 58.0494 410.975 60.7527 409.381 63.6783C407.787 66.6039 406.525 69.6814 405.593 72.9109C404.661 76.1403 404.041 79.3875 403.734 82.6524C403.427 85.9172 403.523 89.1503 404.021 92.3515C404.52 95.5527 405.376 98.6854 406.589 101.75C407.802 104.814 409.199 107.613 410.778 110.147C412.357 112.682 414.085 114.881 415.963 116.744C417.841 118.608 419.941 120.242 422.262 121.647C424.583 123.051 426.935 124.108 429.317 124.818C431.7 125.528 434.251 126.085 436.971 126.489C439.69 126.893 442.358 127.041 444.975 126.932C447.592 126.824 449.996 126.439 452.187 125.778C454.377 125.118 456.511 124.232 458.589 123.121C460.667 122.011 462.769 120.762 464.897 119.376C467.025 117.99 468.947 116.551 470.664 115.061C472.38 113.571 473.92 112.049 475.282 110.496C476.645 108.942 477.94 107.346 479.168 105.707C480.396 104.069 481.718 102.424 483.132 100.774C484.546 99.1239 485.969 97.5316 487.4 95.9972C488.831 94.4627 490.154 92.9907 491.368 91.5812C492.582 90.1716 493.82 88.867 495.082 87.6674C496.344 86.4677 497.619 85.4273 498.908 84.5463C500.196 83.6652 501.397 82.8615 502.509 82.1352C503.621 81.4088 504.855 80.7893 506.211 80.2766C507.567 79.7638 508.659 79.3935 509.487 79.1656C510.315 78.9376 510.729 78.8239 510.729 78.8239C511.694 78.5576 512.725 78.6856 513.596 79.1797C514.466 79.6737 515.105 80.4934 515.371 81.4583C515.637 82.4233 515.509 83.4544 515.015 84.325C514.521 85.1956 513.702 85.8342 512.737 86.1005C512.737 86.1005 512.012 86.3199 510.562 86.7583C509.112 87.1967 507.385 88.098 505.379 89.4623C503.374 90.8265 501.849 92.0176 500.805 93.0355C499.76 94.0533 498.611 95.3243 497.357 96.8484C496.102 98.3724 494.807 99.876 493.47 101.359C492.133 102.842 490.822 104.344 489.538 105.865C488.254 107.385 486.941 109.06 485.599 110.889C484.256 112.718 482.784 114.551 481.183 116.389C479.582 118.226 477.785 120.022 475.794 121.777C473.802 123.532 471.626 125.2 469.266 126.782C466.905 128.364 464.42 129.822 461.812 131.155C459.203 132.487 456.459 133.547 453.579 134.333C450.7 135.119 447.674 135.557 444.501 135.645C441.327 135.734 438.159 135.526 434.995 135.024C431.831 134.521 428.727 133.764 425.684 132.753C422.641 131.742 419.685 130.306 416.814 128.445C413.943 126.584 411.391 124.445 409.156 122.028C406.921 119.61 404.926 116.884 403.17 113.85C401.414 110.815 399.89 107.458 398.6 103.779C397.309 100.099 396.451 96.3345 396.027 92.4841C395.603 88.6337 395.637 84.8395 396.129 81.1016C396.62 77.3636 397.477 73.6549 398.701 69.9754C399.925 66.2958 401.464 62.8699 403.321 59.6975C405.177 56.5251 407.186 53.5834 409.348 50.8725C411.51 48.1615 413.603 45.9065 415.627 44.1074C417.651 42.3082 419.682 40.7196 421.719 39.3416C423.757 37.9635 425.917 36.5794 428.2 35.1892C430.483 33.799 432.842 32.599 435.277 31.5893C437.712 30.5795 439.884 29.9644 441.792 29.7439C443.701 29.5233 445.519 29.3633 447.247 29.2638C448.975 29.1642 450.6 29.1808 452.121 29.3135C453.642 29.4461 455.067 29.6664 456.396 29.9742C457.726 30.282 459.249 31.0888 460.966 32.3948C462.683 33.7007 463.728 34.7937 464.1 35.6737C464.473 36.5537 464.659 36.9927 464.659 36.9927C464.941 37.7083 464.929 38.5068 464.625 39.2133C464.32 39.9199 463.748 40.4769 463.033 40.7625C462.319 41.048 461.52 41.0388 460.812 40.7368C460.105 40.4348 459.545 39.8647 459.257 39.1513ZM514.452 79.8452C514.452 79.8452 514.563 79.9586 514.785 80.1856C515.007 80.4125 515.117 80.5259 515.117 80.5259C515.813 81.2485 516.193 82.2178 516.173 83.2205C516.154 84.2232 515.737 85.1772 515.015 85.8726C514.292 86.568 513.323 86.9479 512.32 86.9286C511.317 86.9093 510.363 86.4925 509.668 85.7699C509.668 85.7699 509.559 85.6547 509.341 85.4245C509.122 85.1943 509.013 85.0792 509.013 85.0792C508.319 84.3579 507.94 83.3905 507.959 82.3897C507.978 81.3889 508.395 80.4367 509.116 79.7426C509.837 79.0486 510.804 78.6694 511.805 78.6887C512.806 78.7079 513.758 79.1239 514.452 79.8452ZM515.792 84.8036C515.792 84.8036 515.524 85.3524 514.988 86.4501C514.452 87.5477 513.69 88.6961 512.701 89.8952C511.712 91.0942 510.471 92.8613 508.976 95.1963C507.482 97.5313 506.342 99.3568 505.556 100.673C504.771 101.989 503.896 103.379 502.93 104.842C501.964 106.305 501.107 107.77 500.36 109.236C499.612 110.702 498.972 112.127 498.44 113.512C497.908 114.897 497.452 116.738 497.072 119.035C496.692 121.332 496.874 123.391 497.619 125.212C498.363 127.034 499.384 128.582 500.683 129.855C501.981 131.128 503.26 132.036 504.519 132.579C505.777 133.122 507.18 133.482 508.727 133.66C510.274 133.838 511.748 132.801 513.148 130.549C514.549 128.297 515.67 126.535 516.513 125.264C517.356 123.993 518.167 122.77 518.946 121.595C519.725 120.42 520.451 119.165 521.124 117.828C521.797 116.492 522.48 115.044 523.173 113.484C523.866 111.924 524.452 110.296 524.93 108.6C525.409 106.904 525.982 105.246 526.649 103.627C527.316 102.008 527.957 100.036 528.573 97.7112C529.188 95.3861 529.705 93.0766 530.125 90.7826C530.544 88.4886 530.767 87.0165 530.792 86.3663C530.816 85.7161 530.829 85.3911 530.829 85.3911C530.882 84.3466 531.349 83.3662 532.125 82.6656C532.902 81.9649 533.924 81.6014 534.969 81.655C536.013 81.7086 536.994 82.1749 537.694 82.9514C538.395 83.7278 538.759 84.7508 538.705 85.7953C538.705 85.7953 538.548 86.9241 538.233 89.1817C537.919 91.4392 537.487 93.7823 536.936 96.2109C536.385 98.6395 535.911 100.587 535.515 102.054C535.119 103.522 534.629 104.928 534.044 106.274C533.459 107.62 532.855 109.3 532.232 111.315C531.609 113.33 530.917 115.167 530.154 116.826C529.391 118.485 528.605 120.106 527.796 121.687C526.988 123.269 526.204 124.647 525.447 125.82C524.689 126.993 523.91 128.215 523.111 129.485C522.311 130.756 521.452 132.143 520.533 133.649C519.614 135.154 518.494 136.704 517.173 138.299C515.852 139.893 513.863 140.891 511.208 141.293C508.552 141.694 506.107 141.6 503.874 141.011C501.64 140.422 499.493 139.367 497.433 137.846C495.372 136.326 493.835 134.942 492.82 133.694C491.806 132.446 490.918 131.013 490.156 129.393C489.395 127.774 488.886 126.064 488.629 124.263C488.372 122.462 488.347 120.795 488.555 119.264C488.763 117.732 489.063 116.227 489.455 114.748C489.846 113.269 490.384 111.717 491.069 110.091C491.754 108.465 492.56 106.806 493.487 105.113C494.415 103.421 495.345 101.904 496.277 100.563C497.209 99.2228 498.128 97.8247 499.036 96.3689C499.943 94.9131 500.852 93.5661 501.762 92.3279C502.672 91.0897 503.854 89.4914 505.307 87.533C506.76 85.5746 507.738 84.0782 508.24 83.0439C508.742 82.0095 508.993 81.4923 508.993 81.4923C509.432 80.5906 510.211 79.9003 511.159 79.5732C512.107 79.2461 513.147 79.3091 514.048 79.7482C514.95 80.1873 515.64 80.9666 515.967 81.9147C516.294 82.8627 516.232 83.9019 515.792 84.8036ZM538.638 86.3463C538.638 86.3463 538.472 87.1455 538.141 88.744C537.81 90.3424 537.522 91.8985 537.275 93.4123C537.028 94.926 536.756 96.6447 536.458 98.5685C536.161 100.492 535.941 102.584 535.799 104.843C535.657 107.102 535.555 109.256 535.493 111.306C535.432 113.355 535.548 115.134 535.841 116.644C536.135 118.153 536.794 119.901 537.82 121.886C538.846 123.871 540.177 125.265 541.815 126.067C543.453 126.87 544.602 127.324 545.263 127.43C545.923 127.536 546.253 127.589 546.253 127.589C547.274 127.757 548.187 128.323 548.791 129.164C549.395 130.005 549.64 131.051 549.474 132.072C549.307 133.094 548.741 134.007 547.901 134.612C547.061 135.217 546.015 135.464 544.994 135.298C544.994 135.298 543.904 135.018 541.727 134.456C539.549 133.895 537.544 132.921 535.711 131.532C533.878 130.143 532.494 128.739 531.559 127.32C530.623 125.901 529.882 124.362 529.334 122.703C528.785 121.043 528.365 119.197 528.072 117.163C527.778 115.13 527.681 113.05 527.779 110.926C527.878 108.801 528.009 106.503 528.171 104.031C528.334 101.559 528.555 99.3484 528.835 97.399C529.115 95.4496 529.359 93.7886 529.569 92.4161C529.778 91.0435 530.052 89.4378 530.389 87.5989C530.727 85.7599 530.896 84.8402 530.896 84.8402C531.096 83.8136 531.695 82.9084 532.562 82.3237C533.429 81.739 534.493 81.5228 535.52 81.7225C536.546 81.9222 537.452 82.5215 538.036 83.3887C538.621 84.2558 538.837 85.3197 538.638 86.3463ZM542.84 128.704C542.84 128.704 543.218 128.329 543.976 127.579C544.733 126.829 545.751 125.146 547.03 122.53C548.309 119.913 549.391 117.607 550.277 115.613C551.163 113.619 551.999 111.677 552.786 109.79C553.573 107.902 554.331 105.973 555.06 104.001C555.79 102.029 556.537 100.157 557.302 98.3825C558.067 96.6083 558.67 95.1324 559.111 93.9547C559.553 92.7769 559.774 92.1882 559.774 92.1882C560.127 91.278 560.825 90.5444 561.717 90.1474C562.609 89.7505 563.621 89.7225 564.534 90.0695C565.446 90.4165 566.184 91.1104 566.586 91.9997C566.989 92.8889 567.023 93.9013 566.682 94.8158C566.682 94.8158 566.439 95.4468 565.952 96.7088C565.466 97.9707 564.869 99.4467 564.16 101.137C563.452 102.827 562.702 104.695 561.911 106.742C561.119 108.789 560.314 110.769 559.496 112.683C558.677 114.597 557.825 116.569 556.939 118.599C556.053 120.629 555.252 122.474 554.536 124.135C553.82 125.796 553 127.489 552.076 129.216C551.152 130.942 550.309 132.201 549.548 132.994C548.787 133.787 548.407 134.183 548.407 134.183C547.68 134.921 546.69 135.341 545.654 135.349C544.618 135.357 543.622 134.954 542.884 134.227C542.145 133.5 541.726 132.51 541.718 131.474C541.71 130.439 542.113 129.442 542.84 128.704ZM566.775 94.5394C566.775 94.5394 566.645 94.9599 566.385 95.8009C566.125 96.6419 565.782 97.6937 565.357 98.9564C564.932 100.219 564.515 102.231 564.108 104.991C563.7 107.752 563.348 109.977 563.051 111.666C562.754 113.355 562.447 114.992 562.13 116.579C561.813 118.166 561.498 119.86 561.186 121.66C560.874 123.461 560.643 125.124 560.493 126.649C560.343 128.174 560.518 129.563 561.017 130.816C561.517 132.069 561.766 132.695 561.766 132.695C562.325 133.566 562.515 134.623 562.294 135.635C562.074 136.646 561.461 137.528 560.591 138.088C559.72 138.647 558.663 138.838 557.652 138.619C556.64 138.399 555.758 137.787 555.197 136.917C555.197 136.917 554.877 136.338 554.238 135.178C553.598 134.019 553.144 132.56 552.877 130.801C552.61 129.043 552.582 127.292 552.793 125.549C553.004 123.806 553.297 122.008 553.671 120.156C554.045 118.303 554.404 116.62 554.748 115.106C555.092 113.591 555.425 112.01 555.749 110.363C556.072 108.715 556.367 107.125 556.635 105.594C556.903 104.063 557.311 102.083 557.861 99.655C558.41 97.2271 558.851 95.4218 559.183 94.2392C559.515 93.0565 559.681 92.4646 559.681 92.4646C559.957 91.525 560.595 90.7334 561.454 90.2638C562.313 89.7941 563.324 89.6847 564.264 89.9596C565.204 90.2345 565.996 90.8712 566.467 91.7299C566.938 92.5886 567.049 93.5991 566.775 94.5394ZM558.156 130.915C558.156 130.915 558.67 130.891 559.697 130.842C560.724 130.793 561.92 130.06 563.284 128.644C564.648 127.227 566.104 125.251 567.652 122.716C569.2 120.181 570.449 118.048 571.4 116.319C572.351 114.589 573.418 112.597 574.601 110.342C575.784 108.087 577.114 105.457 578.59 102.452C580.066 99.4481 581.53 96.1025 582.983 92.4155C584.435 88.7285 585.804 85.0672 587.088 81.4318C588.372 77.7963 589.509 74.4298 590.498 71.3322C591.487 68.2346 592.404 65.4279 593.249 62.9121C594.095 60.3963 594.892 57.9056 595.641 55.4401C596.389 52.9745 596.945 50.418 597.307 47.7706C597.67 45.1231 598.058 42.7884 598.473 40.7665C598.887 38.7445 599.029 37.3781 598.899 36.6672C598.769 35.9562 598.704 35.6007 598.704 35.6007C598.598 34.7161 598.846 33.8252 599.394 33.123C599.942 32.4208 600.747 31.9643 601.631 31.8534C602.515 31.7425 603.407 31.9862 604.112 32.5312C604.817 33.0762 605.277 33.8781 605.392 34.7617C605.392 34.7617 605.459 35.456 605.592 36.8449C605.726 38.2337 605.612 39.9093 605.252 41.8716C604.892 43.8338 604.475 46.3142 604.002 49.3126C603.529 52.311 602.874 55.0616 602.037 57.5646C601.2 60.0675 600.34 62.5434 599.458 64.9922C598.575 67.441 597.625 70.232 596.609 73.3653C595.593 76.4985 594.463 79.9274 593.217 83.6518C591.972 87.3762 590.632 91.1883 589.199 95.0882C587.765 98.988 586.323 102.487 584.873 105.586C583.423 108.685 582.107 111.389 580.925 113.696C579.744 116.003 578.663 118.072 577.682 119.902C576.702 121.731 575.779 123.381 574.915 124.849C574.05 126.318 573.243 127.693 572.492 128.974C571.741 130.255 570.911 131.501 570.002 132.712C569.092 133.923 567.708 135.146 565.851 136.38C563.994 137.613 562.356 138.308 560.936 138.464C559.517 138.619 558.807 138.697 558.807 138.697C557.777 138.781 556.755 138.452 555.967 137.784C555.178 137.115 554.687 136.161 554.601 135.131C554.514 134.101 554.84 133.078 555.507 132.288C556.173 131.498 557.126 131.004 558.156 130.915ZM603.005 38.4128C603.005 38.4128 602.801 38.4705 602.395 38.5861C601.988 38.7016 601.785 38.7595 601.785 38.7595C600.932 39.0121 600.013 38.9154 599.23 38.4905C598.448 38.0655 597.867 37.3473 597.614 36.4937C597.361 35.6402 597.458 34.7212 597.883 33.9389C598.308 33.1567 599.026 32.5753 599.88 32.3227C599.88 32.3227 600.082 32.2605 600.486 32.1361C600.89 32.0116 601.092 31.9496 601.092 31.9496C601.948 31.6973 602.87 31.7953 603.654 32.2221C604.439 32.6489 605.022 33.3696 605.275 34.2259C605.529 35.0822 605.432 36.0041 605.006 36.7892C604.581 37.5742 603.861 38.1581 603.005 38.4128ZM603.81 37.09C603.81 37.09 603.616 37.4523 603.227 38.177C602.838 38.9016 602.213 40.8805 601.353 44.1137C600.493 47.3468 599.686 50.6771 598.933 54.1045C598.18 57.5319 597.466 61.3127 596.791 65.447C596.115 69.5812 595.536 73.654 595.054 77.6653C594.571 81.6765 594.043 85.374 593.468 88.7576C592.894 92.1412 592.298 95.4758 591.682 98.7615C591.065 102.047 590.615 105.085 590.331 107.876C590.047 110.667 589.838 113.297 589.703 115.767C589.567 118.237 589.462 120.375 589.387 122.183C589.312 123.991 589.823 125.614 590.921 127.052C592.019 128.49 592.778 129.184 593.197 129.133C593.617 129.081 593.827 129.056 593.827 129.056C594.979 129.271 595.999 129.936 596.663 130.902C597.327 131.869 597.58 133.06 597.367 134.213C597.154 135.366 596.492 136.388 595.527 137.054C594.561 137.72 593.371 137.976 592.218 137.765C592.218 137.765 591.453 137.56 589.924 137.149C588.395 136.738 587.019 136.053 585.795 135.095C584.571 134.137 583.459 132.863 582.46 131.272C581.461 129.681 580.881 128.144 580.72 126.663C580.558 125.182 580.538 123.507 580.658 121.639C580.779 119.77 580.958 117.537 581.195 114.94C581.432 112.342 581.761 109.546 582.183 106.551C582.605 103.557 583.177 100.445 583.9 97.2164C584.623 93.9874 585.331 90.7563 586.024 87.5229C586.717 84.2895 587.384 80.6321 588.026 76.5507C588.667 72.4693 589.4 68.3242 590.223 64.1155C591.046 59.9067 591.866 56.067 592.683 52.5964C593.499 49.1257 594.163 46.343 594.674 44.2483C595.184 42.1535 595.654 40.293 596.084 38.6666C596.513 37.0402 596.916 35.8546 597.291 35.1098C597.667 34.365 597.855 33.9921 597.855 33.9921C598.266 33.2024 598.973 32.6082 599.822 32.3402C600.671 32.0723 601.592 32.1526 602.381 32.5634C603.171 32.9742 603.765 33.6819 604.033 34.5308C604.301 35.3797 604.221 36.3003 603.81 37.09ZM589.475 130.759C589.475 130.759 589.828 130.313 590.534 129.419C591.24 128.525 592.289 127.01 593.682 124.873C595.074 122.736 596.467 120.594 597.859 118.448C599.252 116.302 600.494 114.289 601.584 112.41C602.674 110.53 603.784 108.738 604.911 107.033C606.039 105.328 607.11 103.882 608.124 102.695C609.138 101.509 610.491 100.243 612.183 98.8971C613.874 97.5513 615.453 96.1553 616.917 94.709C618.382 93.2626 619.617 92.2824 620.623 91.7684C621.628 91.2543 622.131 90.9973 622.131 90.9973C623.079 90.5739 624.157 90.5446 625.127 90.916C626.097 91.2873 626.88 92.0287 627.303 92.9772C627.727 93.9257 627.756 95.0035 627.385 95.9736C627.013 96.9437 626.272 97.7265 625.324 98.1499C625.324 98.1499 624.82 98.4474 623.812 99.0425C622.805 99.6375 621.427 100.762 619.679 102.415C617.931 104.068 616.383 105.506 615.035 106.73C613.688 107.954 612.522 109.373 611.538 110.987C610.554 112.602 609.561 114.345 608.559 116.215C607.556 118.086 606.648 119.78 605.834 121.295C605.019 122.811 603.968 124.536 602.68 126.472C601.392 128.407 600.381 130.024 599.646 131.321C598.911 132.618 598.215 133.733 597.556 134.664C596.898 135.596 596.569 136.061 596.569 136.061C595.864 136.996 594.817 137.613 593.658 137.777C592.499 137.942 591.322 137.641 590.384 136.94C589.446 136.24 588.824 135.196 588.654 134.038C588.483 132.879 588.778 131.701 589.475 130.759ZM626.521 91.8292C626.521 91.8292 627.053 92.3675 628.117 93.4441C629.181 94.5207 630.043 95.6884 630.705 96.9472C631.366 98.206 631.967 99.8119 632.505 101.765C633.044 103.718 633.313 104.694 633.313 104.694C633.736 105.751 633.722 106.931 633.275 107.977C632.828 109.023 631.985 109.85 630.93 110.275C629.876 110.701 628.695 110.69 627.648 110.247C626.6 109.804 625.771 108.963 625.343 107.909C625.343 107.909 625.085 107.146 624.569 105.62C624.053 104.094 623.62 102.639 623.268 101.254C622.917 99.8698 622.44 98.8676 621.837 98.2478C621.235 97.6279 620.933 97.318 620.933 97.318C620.573 96.951 620.288 96.5167 620.096 96.0398C619.903 95.5629 619.806 95.0528 619.811 94.5385C619.816 94.0242 619.921 93.5158 620.122 93.0424C620.324 92.5691 620.616 92.1399 620.983 91.7795C621.35 91.4191 621.784 91.1345 622.261 90.942C622.738 90.7494 623.248 90.6527 623.762 90.6573C624.277 90.6619 624.785 90.7678 625.258 90.9688C625.732 91.1699 626.161 91.4622 626.521 91.8292ZM625.399 108.042C625.399 108.042 625.177 107.542 624.734 106.541C624.29 105.54 623.372 104.894 621.978 104.603C620.585 104.312 618.849 104.02 616.773 103.727C614.696 103.434 612.934 103.732 611.487 104.621C610.041 105.509 609.086 106.593 608.624 107.873C608.161 109.153 607.551 110.585 606.793 112.167C606.034 113.75 605.379 115.176 604.827 116.444C604.275 117.712 603.777 118.976 603.334 120.237C602.892 121.498 602.767 122.955 602.962 124.608C603.156 126.261 604.234 127.688 606.196 128.887C608.158 130.086 609.976 129.941 611.65 128.452C613.325 126.962 614.946 125.601 616.515 124.37C618.083 123.138 619.42 121.285 620.526 118.81C621.631 116.334 622.639 114.094 623.55 112.088C624.46 110.082 625.313 108.215 626.109 106.486C626.904 104.758 627.682 103.151 628.443 101.667C629.204 100.182 629.928 98.7355 630.617 97.3265C631.305 95.9175 631.948 94.254 632.544 92.3362C633.14 90.4183 633.78 88.2682 634.462 85.886C635.144 83.5037 635.851 81.0854 636.583 78.6312C637.315 76.1769 638.058 73.857 638.812 71.6714C639.566 69.4858 640.227 67.5808 640.796 65.9565C641.366 64.3321 641.892 62.8978 642.375 61.6534C642.859 60.409 643.259 59.0853 643.578 57.6823C643.897 56.2793 644.056 55.5781 644.056 55.5781C644.256 54.5107 644.872 53.5665 645.768 52.9527C646.664 52.3388 647.767 52.1056 648.835 52.3042C649.903 52.5027 650.848 53.1168 651.463 54.0117C652.079 54.9065 652.314 56.009 652.117 57.0771C652.117 57.0771 652.054 57.4574 651.927 58.2174C651.799 58.9774 651.381 60.4934 650.672 62.7656C649.963 65.0377 649.349 66.9936 648.83 68.6332C648.312 70.2728 647.717 72.1392 647.046 74.2324C646.375 76.3256 645.692 78.6099 644.996 81.0853C644.299 83.5607 643.574 86.0527 642.82 88.5614C642.066 91.07 641.262 93.4535 640.408 95.7119C639.554 97.9702 638.736 99.8054 637.953 101.217C637.169 102.629 636.399 103.995 635.642 105.314C634.884 106.632 634.1 108.13 633.29 109.807C632.479 111.485 631.643 113.276 630.78 115.183C629.917 117.089 629.075 119.044 628.254 121.048C627.432 123.052 626.09 125.145 624.228 127.326C622.366 129.507 620.694 131.184 619.211 132.358C617.729 133.531 616.406 134.704 615.244 135.877C614.082 137.049 612.727 137.826 611.179 138.206C609.632 138.586 607.701 138.231 605.388 137.14C603.074 136.049 601.367 135.115 600.268 134.336C599.168 133.558 598.157 132.559 597.235 131.34C596.312 130.12 595.669 128.747 595.304 127.221C594.939 125.695 594.819 124.053 594.944 122.295C595.068 120.537 595.374 118.916 595.861 117.432C596.347 115.948 596.879 114.509 597.455 113.116C598.031 111.723 598.691 110.251 599.434 108.7C600.178 107.149 601.106 105.315 602.218 103.196C603.33 101.078 604.744 99.3722 606.459 98.0787C608.174 96.7851 609.898 95.9499 611.631 95.5729C613.363 95.1959 615.215 95.1351 617.187 95.3905C619.159 95.6459 621.15 95.8722 623.161 96.0696C625.172 96.2669 627.175 97.3196 629.17 99.2277C631.165 101.136 632.345 102.502 632.71 103.325C633.075 104.149 633.257 104.562 633.257 104.562C633.719 105.604 633.747 106.787 633.337 107.85C632.926 108.913 632.11 109.77 631.068 110.231C630.026 110.693 628.843 110.721 627.78 110.311C626.717 109.9 625.86 109.084 625.399 108.042ZM651.443 58.6817C651.443 58.6817 651.098 59.125 650.409 60.0116C649.719 60.8982 648.898 62.9364 647.947 66.1262C646.996 69.316 646.297 72.1242 645.852 74.5509C645.407 76.9775 644.995 79.5991 644.615 82.4156C644.236 85.232 643.686 88.0588 642.966 90.8958C642.246 93.7328 641.541 96.3818 640.849 98.8429C640.158 101.304 639.463 103.69 638.764 106C638.066 108.31 637.452 110.387 636.924 112.231C636.396 114.074 636.098 115.818 636.031 117.461C635.965 119.105 635.931 119.927 635.931 119.927C635.872 120.994 635.392 121.993 634.597 122.707C633.802 123.421 632.756 123.79 631.689 123.734C630.622 123.678 629.621 123.201 628.905 122.407C628.19 121.614 627.818 120.569 627.871 119.502C627.871 119.502 627.94 118.38 628.078 116.136C628.216 113.891 628.565 111.815 629.126 109.907C629.687 108 630.331 105.916 631.059 103.657C631.787 101.398 632.521 99.0786 633.261 96.6987C634.002 94.3187 634.734 91.8661 635.457 89.3408C636.18 86.8154 636.763 84.1052 637.207 81.21C637.65 78.3148 638.11 75.5336 638.587 72.8666C639.064 70.1995 639.564 67.8802 640.088 65.9086C640.612 63.937 641.114 62.077 641.595 60.3286C642.075 58.5802 642.718 57.0838 643.523 55.8396C644.328 54.5953 644.73 53.9735 644.73 53.9735C645.357 53.0887 646.308 52.488 647.376 52.303C648.445 52.1179 649.543 52.3635 650.43 52.9861C651.318 53.6086 651.923 54.5574 652.113 55.6248C652.302 56.6922 652.062 57.7913 651.443 58.6817ZM630.456 115.946C630.456 115.946 630.779 115.848 631.424 115.651C632.069 115.454 632.999 114.025 634.214 111.365C635.429 108.705 636.619 106.369 637.786 104.356C638.953 102.343 640.124 100.531 641.301 98.9198C642.478 97.3083 643.78 95.8505 645.208 94.5465C646.636 93.2424 648.123 92.1516 649.669 91.2741C651.216 90.3965 652.902 89.5545 654.726 88.748C656.551 87.9414 657.463 87.538 657.463 87.538C658.317 87.3563 659.208 87.5211 659.94 87.9962C660.672 88.4714 661.185 89.2179 661.367 90.0716C661.549 90.9253 661.384 91.8162 660.909 92.5483C660.434 93.2804 659.687 93.7938 658.834 93.9756C658.834 93.9756 658.697 93.9691 658.423 93.9565C658.149 93.9439 657.017 94.574 655.027 95.847C653.037 97.1199 651.517 98.2417 650.466 99.2124C649.416 100.183 648.402 101.383 647.425 102.813C646.448 104.244 645.457 105.881 644.451 107.725C643.446 109.569 642.554 111.392 641.776 113.191C640.998 114.991 639.907 116.937 638.502 119.027C637.098 121.118 635.887 122.383 634.871 122.823C633.854 123.262 633.346 123.483 633.346 123.483C632.348 123.859 631.241 123.825 630.268 123.388C629.295 122.952 628.535 122.147 628.153 121.152C627.771 120.156 627.799 119.049 628.231 118.074C628.662 117.098 629.462 116.334 630.456 115.946ZM660.307 88.2726C660.307 88.2726 660.58 88.5145 661.125 88.9985C661.671 89.4824 662.247 90.8647 662.852 93.1455C663.458 95.4262 663.465 98.0806 662.874 101.109C662.283 104.137 661.818 106.591 661.479 108.472C661.141 110.353 660.889 112.165 660.724 113.909C660.559 115.654 660.427 117.32 660.328 118.909C660.229 120.498 660.41 122.351 660.87 124.468C661.33 126.586 662.069 128.135 663.087 129.118C664.104 130.1 665.562 130.667 667.458 130.818C669.355 130.97 671.108 130.818 672.719 130.364C674.329 129.909 676.037 129.252 677.843 128.392C679.648 127.532 681.508 126.479 683.421 125.232C685.334 123.986 687.339 122.403 689.437 120.485C691.534 118.567 693.725 116.358 696.01 113.859C698.296 111.361 700.385 108.965 702.278 106.671C704.171 104.378 705.673 102.351 706.783 100.591C707.893 98.831 708.715 97.157 709.247 95.5691C709.779 93.9811 710.201 92.3691 710.512 90.733C710.823 89.0968 710.988 87.5687 711.006 86.1487C711.024 84.7286 710.969 83.3168 710.841 81.9133C710.714 80.5097 710.47 78.9644 710.11 77.2772C709.751 75.59 709.318 73.7837 708.813 71.8584C708.307 69.933 707.837 68.1094 707.402 66.3876C706.967 64.6657 705.581 64.2911 703.243 65.2637C700.906 66.2363 699.125 67.7316 697.902 69.7498C696.678 71.7679 695.509 74.2139 694.394 77.0878C693.278 79.9616 692.268 83.0697 691.365 86.4119C690.462 89.7541 689.715 93.2129 689.126 96.7885C688.538 100.364 688.189 103.802 688.081 107.101C687.973 110.401 688.063 113.549 688.353 116.545C688.642 119.542 689.107 122.275 689.746 124.746C690.386 127.217 691.107 129.391 691.909 131.268C692.711 133.146 693.604 134.744 694.588 136.063C695.571 137.382 697.08 138.57 699.114 139.627C701.147 140.683 703.28 140.813 705.512 140.015C707.745 139.218 709.711 138.346 711.411 137.401C713.111 136.456 714.782 135.351 716.423 134.086C718.065 132.82 719.515 131.427 720.773 129.906C722.031 128.385 723.262 126.734 724.467 124.953C725.671 123.172 726.648 121.45 727.4 119.786C728.151 118.123 728.715 116.634 729.091 115.32C729.467 114.006 728.783 113.254 727.039 113.064C725.295 112.875 723.816 113.223 722.604 114.109C721.391 114.995 720.114 116.072 718.772 117.34C717.43 118.608 716.071 120.001 714.696 121.519C713.321 123.037 712.109 124.854 711.059 126.97C710.01 129.085 709.235 131.219 708.733 133.371C708.231 135.523 708.013 137.554 708.079 139.465C708.144 141.375 708.459 143.014 709.024 144.379C709.588 145.745 710.927 147.022 713.04 148.209C715.153 149.397 716.926 150.055 718.358 150.184C719.79 150.313 721.341 150.134 723.009 149.646C724.677 149.159 726.412 148.351 728.213 147.224C730.015 146.097 732.124 144.713 734.541 143.072C736.958 141.432 739.251 139.626 741.422 137.656C743.592 135.687 745.65 133.611 747.596 131.431C749.542 129.25 751.363 127.09 753.059 124.951C754.755 122.812 756.298 120.773 757.688 118.836C759.079 116.898 760.198 115.146 761.047 113.581C761.896 112.016 762.636 110.566 763.267 109.231C763.898 107.896 764.261 106.98 764.356 106.483C764.451 105.986 764.498 105.738 764.498 105.738C764.745 104.713 765.388 103.827 766.286 103.274C767.185 102.722 768.265 102.548 769.292 102.79C770.318 103.032 771.207 103.671 771.763 104.567C772.32 105.463 772.499 106.543 772.261 107.571C772.261 107.571 772.132 108.068 771.875 109.063C771.618 110.058 771.151 111.302 770.474 112.797C769.796 114.292 768.961 115.984 767.968 117.875C766.975 119.765 765.743 121.742 764.272 123.806C762.801 125.869 761.156 128.034 759.338 130.298C757.519 132.563 755.523 134.871 753.349 137.223C751.175 139.575 748.859 141.835 746.401 144.003C743.943 146.17 741.445 148.124 738.909 149.865C736.373 151.605 733.858 153.208 731.365 154.673C728.871 156.138 726.296 157.171 723.638 157.773C720.979 158.374 718.497 158.499 716.19 158.147C713.883 157.794 711.721 157.105 709.705 156.08C707.689 155.054 705.92 153.715 704.398 152.064C702.876 150.412 701.734 148.395 700.972 146.013C700.209 143.631 699.878 141.116 699.977 138.469C700.077 135.822 700.544 133.162 701.378 130.489C702.213 127.817 703.375 125.196 704.864 122.626C706.354 120.055 707.863 117.954 709.393 116.32C710.923 114.686 712.497 113.107 714.116 111.582C715.734 110.057 717.47 108.683 719.323 107.46C721.176 106.237 723.671 105.533 726.806 105.349C729.941 105.165 732.109 105.43 733.31 106.144C734.512 106.857 735.475 107.897 736.199 109.261C736.923 110.626 737.255 112.013 737.194 113.421C737.134 114.829 736.849 116.356 736.34 118.004C735.832 119.651 735.113 121.495 734.186 123.536C733.258 125.576 732.12 127.626 730.773 129.685C729.426 131.744 727.917 133.741 726.248 135.677C724.579 137.613 722.746 139.315 720.748 140.785C718.75 142.256 716.742 143.519 714.725 144.576C712.708 145.633 710.759 146.513 708.88 147.216C707 147.92 705.04 148.365 703 148.552C700.96 148.738 698.961 148.464 697.004 147.727C695.047 146.991 693.302 145.976 691.769 144.682C690.236 143.388 688.848 141.799 687.606 139.916C686.363 138.033 685.308 135.95 684.439 133.666C683.571 131.383 682.83 128.804 682.215 125.927C681.601 123.051 681.203 119.954 681.02 116.635C680.838 113.316 680.886 109.866 681.164 106.285C681.442 102.705 681.97 99.0433 682.747 95.3017C683.524 91.56 684.441 87.9272 685.496 84.4033C686.552 80.8793 687.74 77.5464 689.061 74.4046C690.381 71.2627 691.787 68.5025 693.279 66.1241C694.77 63.7456 696.297 61.8065 697.858 60.3069C699.419 58.8072 701.059 57.7417 702.777 57.1105C704.495 56.4792 706.136 56.4336 707.699 56.9736C709.262 57.5136 710.497 58.5085 711.403 59.9585C712.31 61.4084 713.009 62.98 713.5 64.6733C713.991 66.3665 714.543 68.2159 715.155 70.2214C715.768 72.2268 716.317 74.2009 716.804 76.1436C717.29 78.0862 717.635 79.8878 717.839 81.5482C718.043 83.2086 718.148 84.9583 718.154 86.7973C718.16 88.6363 717.991 90.5553 717.646 92.5545C717.302 94.5536 716.773 96.6135 716.06 98.7343C715.347 100.855 714.364 102.959 713.112 105.047C711.861 107.135 710.257 109.406 708.301 111.86C706.345 114.313 704.136 116.883 701.674 119.568C699.211 122.254 696.756 124.684 694.307 126.858C691.858 129.032 689.51 130.827 687.261 132.243C685.013 133.659 682.758 134.867 680.496 135.87C678.233 136.872 675.96 137.638 673.676 138.168C671.391 138.699 669.337 138.926 667.511 138.849C665.686 138.773 663.997 138.464 662.444 137.923C660.89 137.382 659.453 136.566 658.13 135.473C656.808 134.381 655.814 133.204 655.147 131.942C654.48 130.68 653.929 129.29 653.494 127.77C653.058 126.25 652.786 124.708 652.676 123.142C652.565 121.576 652.57 119.94 652.691 118.232C652.812 116.525 652.998 114.69 653.25 112.728C653.502 110.766 653.854 108.804 654.306 106.842C654.758 104.88 655.212 103.078 655.67 101.438C656.128 99.7984 656.521 98.213 656.849 96.6823C657.177 95.1515 657.116 94.1953 656.666 93.8136C656.216 93.4318 655.99 93.241 655.99 93.241C655.334 92.6677 654.932 91.8577 654.872 90.9886C654.812 90.1194 655.1 89.262 655.671 88.6043C656.242 87.9467 657.051 87.5424 657.92 87.4802C658.789 87.418 659.648 87.703 660.307 88.2726ZM767.491 110.543C767.491 110.543 767.37 110.512 767.128 110.45C766.886 110.388 766.766 110.357 766.766 110.357C765.74 110.122 764.849 109.49 764.289 108.598C763.729 107.707 763.547 106.629 763.781 105.603C764.016 104.577 764.648 103.686 765.54 103.126C766.432 102.566 767.509 102.384 768.535 102.618C768.535 102.618 768.657 102.643 768.902 102.692C769.146 102.742 769.269 102.766 769.269 102.766C770.298 103.004 771.191 103.64 771.751 104.536C772.312 105.431 772.494 106.512 772.259 107.542C772.023 108.571 771.389 109.465 770.495 110.028C769.601 110.591 768.521 110.776 767.491 110.543ZM770.029 109.665C770.029 109.665 769.709 109.885 769.068 110.326C768.427 110.767 767.454 112.08 766.148 114.264C764.843 116.447 763.831 118.484 763.113 120.374C762.396 122.264 761.766 124.182 761.225 126.129C760.684 128.077 760.637 129.925 761.083 131.674C761.529 133.423 762.973 134.333 765.415 134.404C767.856 134.476 769.891 134.217 771.518 133.627C773.145 133.038 775.042 132.101 777.211 130.818C779.38 129.534 781.815 128.023 784.518 126.285C787.22 124.546 790.037 122.707 792.97 120.768C795.902 118.829 798.824 116.925 801.734 115.057C804.644 113.19 807.32 111.304 809.763 109.401C812.205 107.498 814.44 105.775 816.467 104.233C818.495 102.691 820.27 101.279 821.791 99.9985C823.312 98.7175 824.869 97.5145 826.46 96.3896C828.052 95.2646 829.333 94.4611 830.304 93.9791C831.275 93.497 831.76 93.2556 831.76 93.2556C832.725 92.8003 833.831 92.7462 834.836 93.105C835.841 93.4638 836.662 94.2063 837.121 95.1698C837.579 96.1333 837.637 97.2391 837.281 98.245C836.925 99.2509 836.185 100.075 835.223 100.536C835.223 100.536 834.92 100.67 834.314 100.938C833.708 101.206 832.704 101.81 831.302 102.748C829.9 103.687 828.395 104.837 826.786 106.198C825.177 107.559 823.374 109.017 821.376 110.573C819.378 112.128 817.056 113.937 814.41 115.997C811.763 118.058 808.981 120.003 806.064 121.833C803.147 123.663 800.178 125.522 797.157 127.41C794.137 129.299 791.198 131.09 788.342 132.785C785.485 134.479 782.737 136.028 780.097 137.43C777.457 138.832 774.94 139.874 772.546 140.557C770.151 141.239 767.836 141.516 765.602 141.39C763.367 141.263 761.313 140.777 759.44 139.931C757.567 139.086 756.134 137.762 755.141 135.959C754.147 134.157 753.637 132.26 753.609 130.269C753.581 128.279 753.857 126.189 754.437 123.999C755.016 121.809 755.693 119.649 756.467 117.517C757.241 115.385 758.067 113.417 758.945 111.614C759.823 109.811 760.785 108.229 761.83 106.869C762.875 105.509 763.71 104.576 764.335 104.07C764.96 103.564 765.272 103.31 765.272 103.31C766.114 102.68 767.173 102.409 768.215 102.559C769.257 102.709 770.197 103.266 770.828 104.109C771.459 104.952 771.729 106.01 771.579 107.052C771.429 108.094 770.872 109.034 770.029 109.665ZM837.158 98.5717C837.158 98.5717 836.79 99.3262 836.056 100.835C835.321 102.344 834.461 103.914 833.476 105.544C832.491 107.175 831.217 109.199 829.653 111.618C828.089 114.037 826.208 116.746 824.01 119.745C821.812 122.745 819.389 126.031 816.741 129.604C814.093 133.176 811.401 136.757 808.666 140.346C805.93 143.935 803.154 147.376 800.338 150.67C797.523 153.963 794.583 157.032 791.518 159.875C788.454 162.719 785.236 165.335 781.864 167.724C778.492 170.113 775.344 172.26 772.421 174.163C769.497 176.066 766.713 177.703 764.067 179.074C761.421 180.445 758.987 181.505 756.764 182.253C754.54 183.001 752.294 182.837 750.024 181.76C747.755 180.683 746.823 178.976 747.23 176.64C747.636 174.305 748.708 171.74 750.446 168.948C752.184 166.155 754.616 162.876 757.741 159.111C760.866 155.345 764.603 151.207 768.952 146.697C773.302 142.187 778.496 137.3 784.535 132.038C790.574 126.775 797.112 121.253 804.146 115.47C811.181 109.688 818.483 103.689 826.053 97.474C833.622 91.2586 841.431 85.1381 849.481 79.1125C857.531 73.0869 865.631 67.5248 873.781 62.4264C881.931 57.3279 889.856 52.7641 897.556 48.7351C905.257 44.706 912.277 41.4172 918.616 38.8688C924.956 36.3203 931.596 33.6329 938.538 30.8065C945.48 27.9801 948.951 26.5674 948.951 26.5674C949.74 26.2366 950.628 26.2328 951.419 26.5568C952.211 26.8808 952.842 27.506 953.173 28.2949C953.503 29.0838 953.507 29.9718 953.183 30.7635C952.859 31.5552 952.234 32.1858 951.445 32.5166C951.445 32.5166 948.004 34.0017 941.123 36.9711C934.241 39.9404 927.766 42.7518 921.698 45.4054C915.631 48.0589 908.822 51.3491 901.273 55.2759C893.723 59.2027 885.934 63.6134 877.904 68.5081C869.874 73.4027 861.868 78.8116 853.888 84.7348C845.907 90.6579 838.146 96.7448 830.603 102.996C823.06 109.246 815.804 115.246 808.835 120.995C801.865 126.744 795.45 132.19 789.587 137.333C783.725 142.476 778.692 147.24 774.49 151.625C770.287 156.011 766.738 159.977 763.842 163.525C760.947 167.072 758.589 170.261 756.767 173.093C754.945 175.924 753.702 177.106 753.036 176.64C752.37 176.174 752.763 175.62 754.216 174.977C755.669 174.334 757.604 173.379 760.02 172.112C762.437 170.845 765.074 169.296 767.931 167.467C770.789 165.637 773.785 163.65 776.92 161.507C780.055 159.363 783.071 157.006 785.968 154.436C788.865 151.866 791.693 149.007 794.453 145.86C797.212 142.712 799.96 139.372 802.698 135.841C805.436 132.31 808.123 128.765 810.759 125.207C813.394 121.648 815.756 118.429 817.845 115.549C819.933 112.67 821.711 110.051 823.178 107.692C824.644 105.334 825.849 103.307 826.79 101.61C827.732 99.9134 828.473 98.4243 829.014 97.1427C829.555 95.8611 829.826 95.2199 829.826 95.2199C830.271 94.2491 831.084 93.4947 832.085 93.1225C833.086 92.7503 834.194 92.7907 835.165 93.2347C836.137 93.6788 836.892 94.4903 837.266 95.4909C837.639 96.4916 837.601 97.5996 837.158 98.5717Z" fill="white"/>
<path d="M561.494 74.7062C561.494 74.7062 562.206 73.9978 563.63 72.5808C565.055 71.1639 567.408 70.1557 570.69 69.5562C573.972 68.9568 577.624 68.7188 581.645 68.8423C585.666 68.9659 589.799 69.1701 594.045 69.4551C598.29 69.7401 602.042 70.0689 605.302 70.4413C608.561 70.8138 611.992 71.1919 615.594 71.5757C619.196 71.9595 620.997 72.1514 620.997 72.1513C621.571 72.2036 622.101 72.4816 622.469 72.9243C622.838 73.367 623.016 73.938 622.964 74.5118C622.912 75.0856 622.633 75.6152 622.191 75.984C621.748 76.3527 621.177 76.5306 620.603 76.4783C620.603 76.4783 618.797 76.3416 615.185 76.0684C611.573 75.7952 608.159 75.55 604.943 75.3327C601.727 75.1155 598.013 74.907 593.801 74.7074C589.589 74.5078 585.616 74.33 581.882 74.174C578.148 74.018 575.028 74.0124 572.522 74.1572C570.016 74.302 568.13 75.0093 566.865 76.2789C565.599 77.5486 564.967 78.1834 564.967 78.1834C564.506 78.644 563.881 78.9025 563.229 78.9022C562.577 78.9018 561.952 78.6425 561.492 78.1814C561.031 77.7203 560.773 77.0951 560.773 76.4434C560.773 75.7917 561.033 75.1668 561.494 74.7062Z" fill="white"/>
</svg>
