<svg width="158" height="240" viewBox="0 0 158 240" fill="none" xmlns="http://www.w3.org/2000/svg">
<path fill-rule="evenodd" clip-rule="evenodd" d="M75.6014 90.7581L75.6016 90.7577C75.6085 90.74 75.6154 90.7223 75.6224 90.7045C75.6154 90.7224 75.6084 90.7402 75.6014 90.7581ZM84.1569 57.9673L84.157 57.9667C84.1692 57.9048 84.1814 57.8429 84.1936 57.781C84.1814 57.8431 84.1691 57.9052 84.1569 57.9673Z" fill="#607090"/>
<path fill-rule="evenodd" clip-rule="evenodd" d="M82.7503 1.375C82.9362 1.44469 83.112 1.52435 83.2877 1.61597C83.5686 1.75724 83.8576 1.86503 84.1527 1.97266C84.6372 2.15324 85.1109 2.35028 85.5824 2.5625C86.0722 2.78288 86.5652 2.9907 87.0645 3.18848L87.2313 3.2546C87.5062 3.36333 87.7813 3.47128 88.0568 3.57837C90.1434 4.39543 90.1434 4.39543 90.5636 5.34399L90.6253 5.5L90.6812 5.63843C90.9347 6.32904 90.9702 7.08414 91.0398 7.81081C91.1234 8.67915 91.2223 9.54157 91.3528 10.4042C91.4174 10.8367 91.4658 11.2673 91.5003 11.7031C91.5438 12.2506 91.626 12.7858 91.7212 13.3265C91.7985 13.7706 91.854 14.213 91.8972 14.6615C92.0504 17.1597 91.8662 19.3095 91.8544 22.5038C91.8538 22.643 91.8525 22.7823 91.8511 22.9215C91.8481 23.2172 91.846 23.5129 91.8441 23.8086C91.8418 24.1518 91.8392 24.4951 91.8356 24.8383C91.8344 24.9735 91.8338 25.1086 91.8333 25.2437C91.83 25.66 91.8085 26.0649 91.749 26.4779C91.599 27.5355 91.69 28.6227 91.7518 29.6848C91.7585 29.8052 91.7652 29.9256 91.7719 30.046C91.7859 30.2961 91.8001 30.5461 91.8145 30.7962C91.8326 31.1117 91.8503 31.4273 91.8678 31.7428C91.9604 33.4316 91.9604 33.4316 92.0892 35.1178C92.1133 35.3922 92.1314 35.6616 92.1253 35.9375C91.8991 38.0611 95.0717 49.2114 95.7955 51.1744C95.9051 51.472 96.0122 51.7703 96.1155 52.0702L96.1722 52.2344L96.2146 52.3576C96.3265 52.6795 96.4454 52.9982 96.5676 53.3163C96.892 54.1648 97.1736 55.023 97.4417 55.8906L97.5742 56.3167C97.9472 57.5186 98.2983 58.7243 98.6217 59.9404C99.1995 62.1104 99.8526 64.2301 100.66 66.3259C100.749 66.5581 100.837 66.791 100.924 67.0239C101.447 68.4177 102 69.7987 102.57 71.1741C103.105 72.4687 103.632 73.7677 104.085 75.0939C104.577 76.5193 105.162 77.9209 105.808 79.2834C105.973 79.6344 106.129 79.9894 106.286 80.3436C106.537 80.9062 106.788 81.4667 107.07 82.0147C107.306 82.4768 107.515 82.9511 107.728 83.4241C107.843 83.68 107.962 83.934 108.082 84.1875C108.296 84.643 108.495 85.1045 108.695 85.5663L108.695 85.5673L108.703 85.5859L108.757 85.7095C108.91 86.0634 109.063 86.4172 109.215 86.7713C109.571 87.5951 109.944 88.4076 110.337 89.2142C110.636 89.8297 110.931 90.4474 111.223 91.0664L111.291 91.2104C111.594 91.8525 111.894 92.4961 112.192 93.1406C112.414 93.6208 112.638 94.0986 112.878 94.5701C113.06 94.9293 113.234 95.2926 113.407 95.6562C113.621 96.1068 113.839 96.5554 114.064 97.0007C114.206 97.2822 114.341 97.5662 114.476 97.8513C114.928 98.8116 115.426 99.7429 115.94 100.671C116.132 101.018 116.313 101.369 116.488 101.724C117.046 102.852 117.642 103.961 118.25 105.062L118.36 105.262C118.634 105.759 118.91 106.255 119.188 106.75L119.297 106.944C120.093 108.355 120.986 109.699 121.963 110.992C122.062 111.124 122.161 111.257 122.259 111.389C122.442 111.635 122.627 111.88 122.813 112.125L122.898 112.238C123.32 112.797 123.779 113.311 124.262 113.818C124.408 113.972 124.552 114.128 124.696 114.283L124.71 114.299C125.336 114.974 125.964 115.616 126.688 116.188C126.76 116.246 126.832 116.306 126.904 116.365C129.635 118.6 132.946 120.133 136.25 121.312L136.473 121.392C136.958 121.564 137.446 121.726 137.938 121.875L138.096 121.923C139.721 122.395 141.505 122.095 143.149 121.872C143.59 121.812 144.031 121.755 144.472 121.698L144.615 121.679C145.783 121.528 146.955 121.412 148.133 121.422L148.363 121.423C150.198 121.444 150.198 121.444 150.938 121.938L151.133 121.934C151.421 121.938 151.685 121.981 151.938 122.125C152.193 122.456 152.163 122.787 152.125 123.188C151.954 124.015 151.954 124.015 151.653 124.262L151.531 124.362L151.438 124.438L151.313 124.25L151.269 124.365C151.203 124.536 151.133 124.705 151.063 124.875L151.001 125.029C150.193 126.846 148.019 127.603 146.313 128.259C145.947 128.4 145.579 128.536 145.211 128.672C145.023 128.742 144.836 128.812 144.648 128.883C143.615 129.275 142.577 129.645 141.53 129.995C139.74 130.595 138 131.272 136.313 132.125L136.093 132.236C135.242 132.666 134.396 133.103 133.581 133.601C133.412 133.703 133.241 133.803 133.07 133.903C132.227 134.399 131.415 134.923 130.625 135.5L130.512 135.582C130.298 135.74 130.086 135.901 129.875 136.062L129.68 136.211C128.98 136.747 128.288 137.293 127.6 137.845C127.342 138.052 127.082 138.257 126.821 138.461C126.444 138.755 126.076 139.058 125.708 139.363C125.43 139.593 125.149 139.818 124.864 140.039C124.449 140.361 124.051 140.7 123.655 141.045C123.578 141.112 123.501 141.179 123.423 141.245C122.871 141.723 122.34 142.224 121.804 142.72C121.64 142.872 121.475 143.024 121.309 143.174C120.74 143.69 120.18 144.217 119.681 144.802C119.525 144.98 119.365 145.154 119.203 145.328L119.106 145.434C118.978 145.572 118.849 145.711 118.721 145.849C118.318 146.282 117.931 146.724 117.563 147.188L117.485 147.285C117.022 147.86 116.587 148.454 116.158 149.056C116.073 149.174 115.987 149.291 115.901 149.407C115.112 150.48 114.469 151.636 113.85 152.813C113.761 152.979 113.671 153.145 113.58 153.31C112.748 154.832 112.161 156.486 111.554 158.107C111.306 158.768 111.042 159.419 110.763 160.067C110.336 161.062 109.945 162.072 109.559 163.085C109.496 163.25 109.433 163.415 109.37 163.581C109.141 164.179 108.923 164.779 108.714 165.384C108.581 165.766 108.436 166.14 108.278 166.512C108.113 166.898 107.964 167.287 107.827 167.684C107.634 168.24 107.411 168.782 107.182 169.325C107.064 169.607 106.946 169.89 106.828 170.173L106.758 170.342C106.543 170.858 106.338 171.378 106.136 171.899C105.912 172.475 105.677 173.047 105.441 173.618C105.032 174.609 104.64 175.603 104.265 176.607C103.812 177.817 103.332 179.014 102.845 180.21C102.544 180.949 102.247 181.689 101.961 182.434L101.882 182.639C101.648 183.249 101.419 183.862 101.19 184.474C100.927 185.177 100.659 185.877 100.383 186.575C100.116 187.254 99.8613 187.935 99.6253 188.625L99.5622 188.808C99.2076 189.841 98.8821 190.881 98.5667 191.926C98.0605 193.602 97.5106 195.256 96.9072 196.9C96.7068 197.446 96.5138 197.994 96.3241 198.544C96.1664 199.001 96.0063 199.456 95.8461 199.912C95.7933 200.062 95.7406 200.213 95.6879 200.363C95.5223 200.835 95.3556 201.306 95.1856 201.777C94.5016 203.671 93.9807 205.603 93.5468 207.569C93.3927 208.267 93.2031 208.947 92.9925 209.629C92.6845 210.629 92.4438 211.615 92.2738 212.648L92.2346 212.886C92.0714 213.916 91.9806 214.953 91.9066 215.992L91.8945 216.159C91.8398 216.927 91.8031 217.696 91.7796 218.466L91.7757 218.591C91.7619 219.044 91.7496 219.497 91.7392 219.95C91.7138 220.955 91.6327 221.941 91.5003 222.938C91.4869 223.044 91.4735 223.15 91.4602 223.256C91.3328 224.253 91.0949 225.234 90.8762 226.214C90.8337 226.405 90.7921 226.596 90.7513 226.787C90.6077 227.454 90.433 228.107 90.2411 228.762C90.0865 229.291 89.9561 229.816 89.8529 230.358C89.8069 230.593 89.749 230.82 89.6839 231.051C89.6144 231.304 89.5485 231.554 89.5003 231.812C89.2407 233.155 88.7759 234.461 87.8753 235.5L87.7166 235.691C87.335 236.139 86.9288 236.442 86.4253 236.742C86.1624 236.906 85.9153 237.095 85.6656 237.278L85.5003 237.375L85.3128 237.312C85.2525 237.16 85.2045 237.016 85.1605 236.859L85.0794 236.583L85.0393 236.444C84.9853 236.262 84.9237 236.082 84.8636 235.902C84.6424 235.173 84.6055 234.407 84.5689 233.65L84.5628 233.523C84.5577 233.426 84.5526 233.328 84.5474 233.231C84.534 232.976 84.521 232.722 84.5081 232.467C84.4876 232.061 84.4667 231.656 84.4454 231.25C84.4381 231.112 84.4313 230.973 84.4244 230.834C84.4012 230.382 84.37 229.931 84.3273 229.48C84.2558 228.72 84.2309 227.969 84.2315 227.206C84.2313 227.082 84.231 226.958 84.2307 226.834C84.2303 226.577 84.2303 226.32 84.2306 226.063C84.231 225.737 84.2299 225.411 84.2284 225.085C84.2275 224.83 84.2275 224.574 84.2277 224.319C84.2276 224.199 84.2273 224.079 84.2267 223.959C84.2204 222.613 84.4005 221.428 85.0007 220.212C85.6077 218.973 85.8578 217.552 86.0003 216.188L86.026 215.943C86.1894 214.336 86.2174 212.739 86.1878 211.125L86.1839 210.894C86.1442 208.978 85.8054 207.097 85.4503 205.218C85.4039 204.972 85.3605 204.725 85.3219 204.477C84.9092 201.882 83.8358 199.496 82.7503 197.125L82.6569 196.921C82.3788 196.316 82.0815 195.724 81.7652 195.139C81.6542 194.933 81.5513 194.724 81.4488 194.513C81.2572 194.129 81.0366 193.768 80.805 193.406C80.7215 193.274 80.6381 193.142 80.5548 193.01L80.4305 192.813C80.2614 192.543 80.0971 192.27 79.9339 191.996L79.752 191.692L79.6595 191.537C78.9611 190.369 78.2472 189.22 77.4378 188.125C76.6736 187.08 76.6736 187.08 76.3714 186.617C76.0889 186.187 75.7784 185.779 75.4666 185.37C75.3838 185.261 75.3014 185.152 75.2191 185.043C74.8511 184.559 74.4667 184.09 74.0787 183.621C73.9215 183.431 73.7666 183.24 73.6136 183.047C73.4253 182.81 73.2314 182.578 73.0355 182.348C72.813 182.086 72.5909 181.823 72.3714 181.559L72.2364 181.396C72.1384 181.267 72.066 181.147 72.0003 181H71.8753C71.7938 180.921 71.7938 180.921 71.6956 180.805L71.5782 180.667L71.4378 180.5C71.317 180.358 71.1958 180.216 71.0745 180.074L70.977 179.96C70.7238 179.665 70.4643 179.376 70.2012 179.089C70.0853 178.962 69.9719 178.834 69.8597 178.703C69.3807 178.152 68.8771 177.621 68.3573 177.109C68.2098 176.959 68.0734 176.801 67.9361 176.641C67.3892 176.014 66.8227 175.406 66.1903 174.864C66.017 174.709 65.8549 174.544 65.6924 174.378L65.6921 174.378L65.6329 174.318C65.5186 174.205 65.4027 174.104 65.2777 174.004L65.1253 173.875V173.75H65.0003V173.625L64.8971 173.584C64.7126 173.478 64.5762 173.335 64.4321 173.183L64.4027 173.152C64.1175 172.86 63.8218 172.598 63.5013 172.344C63.2216 172.112 62.9589 171.862 62.6956 171.611L62.6847 171.6L62.5684 171.49L62.4647 171.391C62.3756 171.306 62.3756 171.306 62.2503 171.25V171.125L62.1449 171.081C61.9729 170.985 61.8502 170.865 61.7108 170.729L61.6878 170.707C61.305 170.344 60.8883 170.035 60.4644 169.722C60.1617 169.498 59.8667 169.27 59.5824 169.023C59.155 168.653 58.7064 168.313 58.2548 167.973C58.1383 167.885 58.0229 167.795 57.9078 167.705C56.9992 166.999 56.0256 166.379 55.0628 165.75L54.8913 165.638C54.0672 165.103 53.1908 164.659 52.3218 164.203C52.0398 164.054 51.759 163.904 51.4791 163.752C49.3327 162.586 47.0504 161.413 44.6878 160.75L44.5681 160.716C43.8844 160.525 43.1987 160.342 42.5121 160.161C42.3841 160.127 42.2561 160.093 42.1281 160.059C41.4131 159.87 40.697 159.685 39.9769 159.516L39.831 159.48C38.847 159.255 37.8374 159.161 36.8321 159.097C36.6648 159.086 36.4976 159.075 36.3304 159.063C35.9913 159.04 35.6521 159.02 35.3128 159L35.156 158.991C34.1419 158.934 33.1289 158.931 32.1137 158.935C31.8232 158.936 31.5328 158.936 31.2424 158.937C30.469 158.938 29.6956 158.94 28.9222 158.943H28.9213C23.3893 158.962 23.3892 158.962 20.8627 158.703C20.5927 158.676 20.3225 158.65 20.0523 158.625L20.0181 158.621L19.8511 158.605C19.3441 158.558 18.8368 158.525 18.3284 158.496C17.2259 158.431 16.1475 158.294 15.0628 158.088C14.3724 157.96 13.6777 157.898 12.9774 157.853C11.8444 157.777 10.7285 157.608 9.60712 157.438L9.60658 157.438L9.49147 157.421C8.61502 157.288 7.73844 157.156 6.85555 157.075L6.7229 157.062C6.51176 157.043 6.30063 157.025 6.08928 157.008C4.93457 156.908 4.93457 156.908 4.61751 156.582C4.45022 156.286 4.46229 156.066 4.52571 155.747C4.65697 155.301 4.97208 155.057 5.36824 154.838C6.28732 154.395 7.2406 154.169 8.2347 153.973C8.3574 153.948 8.4801 153.923 8.6028 153.898C9.27923 153.763 9.95661 153.639 10.6376 153.529C15.4059 152.754 19.9224 151.251 24.2074 149.039L24.3434 148.969C24.5669 148.853 24.7904 148.738 25.0138 148.622C25.2088 148.521 25.4041 148.421 25.5994 148.321C26.2929 147.963 26.965 147.573 27.6333 147.171C27.7547 147.098 27.8761 147.025 27.9977 146.952C28.9772 146.366 29.932 145.77 30.8172 145.048C31.1461 144.78 31.4841 144.526 31.8245 144.273C32.1642 144.021 32.4988 143.767 32.8206 143.492C33.1627 143.201 33.5238 142.941 33.8892 142.68C34.5523 142.206 35.1831 141.693 35.8149 141.178C36.2958 140.786 36.7815 140.4 37.276 140.026C37.6507 139.742 38.0119 139.449 38.3582 139.131C38.4907 139.009 38.6256 138.891 38.762 138.773C38.9175 138.638 39.0642 138.499 39.2074 138.352C39.425 138.13 39.6631 137.938 39.9041 137.743L39.9495 137.706C40.4317 137.312 40.873 136.881 41.3107 136.438C41.5301 136.217 41.754 136.008 41.992 135.807C42.2031 135.618 42.4013 135.415 42.5996 135.212L42.6469 135.164C42.8388 134.969 43.0358 134.795 43.2503 134.625C43.3137 134.557 43.375 134.486 43.4339 134.414C43.6518 134.158 43.8866 133.923 44.1253 133.688C44.3898 133.426 44.6452 133.163 44.8856 132.878C45.035 132.711 45.1937 132.554 45.3531 132.397L45.3753 132.375C45.716 132.038 46.0347 131.691 46.3348 131.317L46.4886 131.125L46.6305 130.945L46.7503 130.812H46.8753L46.9238 130.702C47.0078 130.549 47.0996 130.451 47.2252 130.33L47.3605 130.198L47.5042 130.059C47.9086 129.661 48.2762 129.26 48.6253 128.812C48.7291 128.687 48.8333 128.562 48.9378 128.438C49.1359 128.2 49.3326 127.962 49.5277 127.723C49.7357 127.468 49.9472 127.216 50.1605 126.965C50.4037 126.679 50.641 126.389 50.8741 126.095C51.0152 125.919 51.1599 125.747 51.305 125.574C51.5453 125.287 51.776 124.994 52.0026 124.696C52.2162 124.416 52.4374 124.143 52.6605 123.871C52.9488 123.519 53.2267 123.162 53.4974 122.796C53.6213 122.63 53.7492 122.469 53.8792 122.309C54.1402 121.985 54.3831 121.65 54.6253 121.312C55.0479 120.728 55.4758 120.148 55.9181 119.578C56.2705 119.123 56.608 118.659 56.9378 118.188L57.0211 118.069C57.6489 117.169 58.2446 116.25 58.8128 115.312L58.9422 115.1C59.4731 114.225 59.9957 113.343 60.4444 112.423C60.7148 111.877 61.0184 111.346 61.3128 110.812L61.3957 110.662C61.6609 110.18 61.9296 109.701 62.204 109.224C62.6367 108.473 63.0494 107.711 63.458 106.946C63.5677 106.741 63.678 106.536 63.7884 106.331C64.3807 105.232 64.951 104.125 65.4828 102.995C65.6179 102.708 65.756 102.424 65.8988 102.141C66.0965 101.748 66.2873 101.353 66.4769 100.957L66.5632 100.777C66.7554 100.374 66.9418 99.9693 67.1253 99.5625C67.2749 99.2317 67.4247 98.901 67.5745 98.5703L67.6372 98.4319C67.8564 97.9483 68.0769 97.4658 68.3103 96.9888C68.6933 96.2056 69.0168 95.3997 69.3392 94.5902C69.4462 94.3215 69.5549 94.0536 69.665 93.7862C70.2116 92.4586 70.686 91.1166 71.1253 89.75C71.3471 89.0608 71.5804 88.3847 71.8558 87.7148C72.1432 87.0155 72.3839 86.3047 72.619 85.5866C72.8032 85.024 72.9908 84.4653 73.2074 83.9141C73.5768 82.9694 73.8621 82.0076 74.1086 81.0243C74.2059 80.6453 74.3235 80.2825 74.4652 79.918C74.7293 79.2319 74.9118 78.5281 75.0926 77.8162C75.1277 77.678 75.1631 77.5398 75.1984 77.4016C75.5331 76.0909 75.8483 74.7772 76.1415 73.4565C76.3284 72.6228 76.534 71.7933 76.7432 70.9648C76.7836 70.8049 76.8229 70.6449 76.8609 70.4844C76.9347 70.1738 77.021 69.8713 77.122 69.5684C77.3914 68.7518 77.5804 67.9186 77.7705 67.0808L77.7738 67.0664C77.8096 66.9097 77.8455 66.753 77.8815 66.5963C77.9687 66.2151 78.0554 65.8337 78.1419 65.4523C78.1944 65.2209 78.2476 64.9897 78.3008 64.7584C78.6803 63.1069 79.0067 61.4441 79.2916 59.7737L79.3161 59.6301L79.3402 59.4891L79.387 59.2148L79.41 59.0801C79.4916 58.6054 79.5787 58.1388 79.7269 57.6797C80.1899 56.2417 80.2892 54.638 80.4937 53.146C80.6891 51.7229 80.8899 50.3033 81.1417 48.889C81.2689 48.1717 81.3643 47.4593 81.43 46.7333C81.5089 45.899 81.6566 45.0773 81.8005 44.2522C81.8604 43.9062 81.9151 43.5596 81.9676 43.2124C82.1226 42.1943 82.3091 41.211 82.5919 40.2188C83.0002 38.7821 83.0463 37.2484 83.1412 35.7649C83.2711 33.7343 83.4338 31.7209 83.748 29.7096C83.9331 28.5225 84.0622 27.3352 84.165 26.1384C84.1839 25.9177 84.2046 25.6973 84.2262 25.4768C84.3844 23.8112 84.4773 22.1123 84.4414 20.4392C84.4377 20.243 84.4362 20.0468 84.4348 19.8505L84.4344 19.7952C84.4172 18.3051 84.2993 16.8225 84.1813 15.3379V15.3377L84.1793 15.3124C84.1651 15.1337 84.151 14.955 84.1368 14.7764L84.1264 14.6448C84.0756 14.0043 84.0368 13.3645 84.0081 12.7227C83.9543 11.5969 83.8025 10.4795 83.6605 9.36208C83.5534 8.5106 83.4675 7.66243 83.4189 6.8054C83.3718 6.00613 83.2357 5.22443 83.0557 4.44482C82.8665 3.60842 82.8311 2.78996 82.8217 1.93338C82.8125 1.74314 82.7852 1.5621 82.7503 1.375ZM85.9591 45.8014C86.215 44.373 86.4671 42.9655 86.4691 42.9375C86.4787 42.9576 86.5612 43.1935 86.643 43.4276C86.6438 43.4298 86.6445 43.432 86.6453 43.4342C86.7251 43.6625 86.8037 43.8872 86.8128 43.9062L86.8594 44.0032L86.8596 44.0037C87.0518 44.4038 87.2439 44.8039 87.4449 45.1996C88.2852 46.9289 88.2852 46.9289 89.0628 48.6875C89.3291 49.2896 89.5966 49.8909 89.8743 50.4878L89.973 50.6992C90.1248 51.0256 90.2762 51.3522 90.4297 51.6778C91.1144 53.1278 91.7024 54.6033 92.2597 56.1067L92.2973 56.2082C92.4706 56.6761 92.6439 57.1437 92.8304 57.6064C92.9991 58.0236 93.1597 58.4429 93.3116 58.8665L93.3949 59.1016C93.62 59.7355 93.8318 60.3719 94.0277 61.0156C94.2199 61.6493 94.4257 62.2762 94.6427 62.9018C94.8574 63.5201 95.071 64.1377 95.2614 64.764C95.5657 65.7757 95.9093 66.7719 96.2603 67.7682C96.3058 67.8975 96.3513 68.0267 96.3968 68.1561L96.4613 68.3398C96.5648 68.6345 96.6674 68.9276 96.7523 69.2283C96.8804 69.7177 97.0522 70.1758 97.2425 70.6445L97.2497 70.6622C97.4128 71.0618 97.5752 71.46 97.7149 71.8684C97.9702 72.623 98.2928 73.3442 98.6527 74.0547C98.8001 74.3445 98.9387 74.6364 99.0713 74.9333C99.278 75.398 99.4882 75.8605 99.707 76.3196L99.7972 76.5078C99.9602 76.8484 100.125 77.1879 100.294 77.5254C100.461 77.8561 100.613 78.192 100.753 78.5352C100.894 78.8814 101.045 79.2204 101.207 79.5569C101.403 79.9614 101.588 80.3602 101.735 80.7852C101.799 80.9765 101.862 81.1609 101.95 81.3428C102.129 81.6792 102.264 82.0148 102.387 82.375C102.443 82.5432 102.501 82.7089 102.563 82.875C102.697 82.9949 102.697 82.9949 102.766 83.1649L102.853 83.373C102.902 83.4896 102.952 83.6061 103.001 83.7228C103.195 84.1878 103.385 84.6542 103.613 85.1042C103.682 85.2364 103.746 85.3642 103.799 85.5035C103.866 85.7004 103.941 85.8802 104.038 86.0647C104.234 86.4212 104.421 86.7697 104.565 87.1504C104.61 87.2705 104.655 87.3902 104.701 87.5098C104.78 87.7148 104.859 87.9199 104.938 88.125L105.004 88.3003L105.067 88.4609C105.133 88.6342 105.208 88.7848 105.302 88.946C105.436 89.1766 105.546 89.4148 105.657 89.6575C105.866 90.1223 106.076 90.5863 106.296 91.0462C106.693 91.8772 107.081 92.7052 107.41 93.5664C107.671 94.252 107.96 94.9203 108.267 95.5859C108.456 95.9927 108.638 96.3993 108.798 96.8186C108.866 97.0027 108.934 97.1806 109.02 97.3573C109.13 97.5696 109.237 97.7779 109.324 98.001C109.459 98.3673 109.604 98.7181 109.782 99.0664C109.921 99.3377 110.049 99.6083 110.164 99.8906C110.281 100.178 110.41 100.454 110.551 100.73C110.599 100.824 110.647 100.919 110.694 101.014C110.753 101.135 110.813 101.255 110.875 101.375C111.049 101.657 111.184 101.945 111.313 102.25C111.383 102.441 111.462 102.606 111.571 102.777C111.949 103.368 112.281 103.988 112.609 104.608C112.923 105.205 113.24 105.8 113.572 106.387C113.845 106.866 114.117 107.344 114.383 107.827L114.485 108.012L114.582 108.187L114.671 108.35C114.748 108.491 114.809 108.613 114.853 108.767L114.875 108.875H115C115.637 110.148 116.437 111.382 117.253 112.548C117.353 112.69 117.451 112.832 117.549 112.976L117.604 113.058C118.003 113.649 118.4 114.239 118.842 114.799C118.928 114.908 119.013 115.017 119.096 115.127C119.431 115.571 119.761 116.015 120.137 116.426C120.263 116.558 120.365 116.669 120.453 116.829L120.5 116.938H120.625C120.817 117.226 121.049 117.477 121.286 117.73L121.393 117.844C121.466 117.922 121.54 118 121.614 118.078L121.723 118.192L121.826 118.302C121.93 118.411 122.002 118.503 122.074 118.637L122.125 118.75H122.25C122.313 118.875 122.313 118.875 122.406 118.961C122.598 119.121 122.784 119.284 122.961 119.46C123.224 119.73 123.488 119.986 123.782 120.223C123.954 120.36 124.123 120.498 124.288 120.645C124.568 120.901 124.849 121.15 125.152 121.379L125.313 121.5C126.315 122.265 127.352 122.899 128.502 123.417L128.688 123.5C130.245 124.206 131.81 124.813 133.497 125.127C133.685 125.162 133.865 125.201 134.05 125.25C134.415 125.354 134.7 125.388 135.077 125.333L135.188 125.312C135.047 125.512 135.047 125.512 134.847 125.658C134.495 125.925 134.158 126.201 133.836 126.504L133.81 126.529C133.664 126.669 133.532 126.795 133.354 126.894L133.25 126.938V127.062C133.081 127.175 132.94 127.298 132.792 127.437C132.504 127.708 132.214 127.973 131.907 128.223C131.694 128.394 131.482 128.566 131.273 128.743L131.172 128.828C130.992 128.98 130.813 129.133 130.636 129.287C130.166 129.699 129.694 130.103 129.195 130.479L129 130.625C128.812 130.767 128.624 130.909 128.435 131.05C128.253 131.185 128.072 131.321 127.891 131.457L127.886 131.461C127.719 131.586 127.552 131.712 127.384 131.836C126.895 132.195 126.418 132.561 125.961 132.96C125.717 133.172 125.47 133.38 125.221 133.586L125.082 133.699C124.875 133.87 124.667 134.04 124.459 134.209C124.154 134.456 123.853 134.705 123.563 134.969C123.349 135.163 123.131 135.349 122.907 135.531C122.672 135.721 122.446 135.917 122.223 136.121C122.083 136.251 121.962 136.362 121.795 136.453L121.688 136.5V136.625C121.548 136.695 121.548 136.695 121.227 137.027L121.207 137.049C121.058 137.204 120.917 137.351 120.728 137.459L120.625 137.5V137.625L120.531 137.709C120.154 137.986 119.797 138.283 119.441 138.586C119.378 138.641 119.314 138.696 119.25 138.75C118.938 139.012 118.647 139.289 118.36 139.578C118.124 139.817 117.885 140.051 117.636 140.277C117.386 140.501 117.148 140.724 116.93 140.98C116.838 141.099 116.838 141.099 116.75 141.188H116.625C116.565 141.32 116.505 141.431 116.412 141.544L116.309 141.65L116.194 141.771C115.84 142.137 115.494 142.509 115.164 142.898C114.998 143.095 114.833 143.29 114.661 143.482C113.984 144.225 113.363 145.009 112.809 145.848C112.667 146.063 112.525 146.278 112.374 146.488C111.824 147.227 111.328 148.004 110.883 148.81L110.813 148.938C109.504 151.3 108.324 153.689 107.403 156.23C107.054 157.153 107.054 157.153 106.678 158.066C106.534 158.418 106.39 158.771 106.248 159.124L106.168 159.324C105.999 159.747 105.833 160.17 105.676 160.598C105.576 160.871 105.468 161.139 105.347 161.405C105.16 161.816 105 162.23 104.854 162.658C104.613 163.367 104.359 164.062 104.063 164.75C103.723 165.537 103.404 166.322 103.137 167.137C103.005 167.549 102.87 167.958 102.714 168.363C102.629 168.579 102.545 168.796 102.468 169.016C102.296 169.513 102.116 170.005 101.926 170.496L101.899 170.566L101.898 170.567C101.806 170.802 101.714 171.036 101.642 171.278C101.543 171.625 101.422 171.952 101.277 172.282L101.196 172.465C101.09 172.706 100.983 172.947 100.875 173.188C100.707 173.55 100.543 173.906 100.421 174.288C100.262 174.797 100.08 175.292 99.8761 175.785C99.8287 175.899 99.7814 176.013 99.7342 176.128C99.6741 176.273 99.614 176.418 99.5539 176.564L99.4085 176.915L99.3099 177.153L99.2603 177.273C99.1638 177.507 99.067 177.74 98.9695 177.973C98.6633 178.706 98.3665 179.436 98.1214 180.191C97.9744 180.648 97.8176 181.097 97.6435 181.544C97.2286 182.602 96.8649 183.669 96.544 184.759L96.5086 184.879L96.473 185C96.3074 185.563 96.13 186.117 95.9183 186.664C95.6926 187.244 95.4924 187.83 95.2989 188.422L95.2661 188.522C95.0761 189.104 94.8867 189.683 94.6512 190.248C94.3655 190.92 94.1254 191.598 93.8997 192.292C93.8087 192.572 93.7163 192.852 93.6219 193.132C93.321 194.021 93.0251 194.91 92.7683 195.813C92.695 196.072 92.6214 196.329 92.5382 196.585C92.4137 196.959 92.3038 197.331 92.2225 197.716L92.1927 197.862C92.0767 198.42 91.9689 198.981 91.8676 199.542L91.8402 199.695C91.6781 200.593 91.5402 201.488 91.4481 202.395L91.4378 202.5H91.3753C91.1862 202.139 91.0182 201.777 90.8767 201.395C90.6988 200.907 90.5128 200.428 90.2891 199.96C90.234 199.846 90.1791 199.731 90.1251 199.617C89.9831 199.314 89.8402 199.011 89.6957 198.709L89.6253 198.562C89.3746 198.039 89.1143 197.529 88.811 197.033C88.602 196.692 88.3997 196.347 88.1982 196.002C87.8076 195.332 87.4139 194.664 87.012 194L86.9456 193.891C86.3675 192.934 85.7546 192.001 85.128 191.075C84.9326 190.786 84.7375 190.498 84.5425 190.209L84.4202 190.028C84.0087 189.419 83.5994 188.808 83.1917 188.195L83.0902 188.043C82.7715 187.565 82.453 187.086 82.1352 186.607C80.9964 184.891 79.8401 183.197 78.5269 181.608C78.4443 181.508 78.3621 181.408 78.2799 181.307L78.137 181.133C78.0061 180.973 77.8758 180.813 77.7474 180.651C77.5495 180.401 77.3498 180.155 77.137 179.918C76.7187 179.452 76.3129 178.977 75.9296 178.482C75.6805 178.16 75.4267 177.849 75.1488 177.551C74.9844 177.375 74.8226 177.199 74.6688 177.014C74.4203 176.705 74.168 176.404 73.8988 176.113C73.7513 175.955 73.604 175.797 73.4616 175.634C73.1947 175.326 72.9185 175.029 72.637 174.734L72.5107 174.603L72.3897 174.476C72.2757 174.357 72.1911 174.256 72.1127 174.111L72.0628 174H71.9378L71.8324 173.875C71.516 173.465 71.1629 173.093 70.7975 172.726C70.7115 172.64 70.6255 172.554 70.5396 172.468C70.4169 172.346 70.2941 172.223 70.1711 172.1C70.0134 171.943 69.8557 171.785 69.6984 171.627C69.5746 171.503 69.4507 171.379 69.3267 171.255L69.1475 171.076C68.8262 170.754 68.5031 170.437 68.1646 170.132C67.8832 169.883 67.6091 169.626 67.3363 169.367C67.0749 169.119 66.8131 168.874 66.5379 168.641C66.4048 168.531 66.3205 168.451 66.2363 168.3L66.1878 168.188C65.9079 168.099 65.9079 168.099 65.6878 167.875C65.3877 167.599 65.0891 167.328 64.764 167.082C64.4637 166.856 64.1756 166.626 63.8988 166.371C63.6218 166.114 63.3369 165.872 63.043 165.635L62.8753 165.5C62.5459 165.232 62.2141 164.973 61.8675 164.727C61.7636 164.654 61.6612 164.58 61.5628 164.5V164.375C61.4288 164.387 61.4288 164.387 61.3131 164.283C60.6679 163.746 59.9842 163.276 59.285 162.813C59.1478 162.723 59.0107 162.632 58.8742 162.54C58.362 162.196 57.8461 161.859 57.3206 161.534C57.1921 161.455 57.0639 161.376 56.9364 161.295C55.8006 160.572 54.602 159.968 53.3792 159.406C52.8644 159.171 52.3547 158.929 51.8502 158.673C50.5236 157.998 49.1609 157.383 47.7581 156.882L47.5628 156.812C46.1228 156.301 44.6772 155.871 43.1877 155.529L43.0628 155.5C42.525 155.376 41.9861 155.259 41.4447 155.151L41.3128 155.125C38.5744 154.582 35.7725 154.119 32.97 154.177C32.7335 154.183 32.497 154.189 32.2605 154.192C30.5399 154.219 28.8304 154.275 27.1175 154.449C26.8375 154.481 26.5871 154.518 26.3128 154.438C27.2914 154.176 28.3247 154.008 29.3363 153.957C29.4743 153.952 29.6124 153.946 29.7503 153.938C29.8872 153.9 30.0008 153.875 30.1434 153.874L30.2982 153.883L30.4666 153.892L30.6409 153.902C30.8072 153.912 30.9734 153.921 31.1395 153.931L31.2503 153.938L31.1253 153.438L30.8753 153.375V153.562C30.5547 153.7 30.2841 153.773 29.9362 153.79L29.775 153.796C29.5962 153.804 29.4175 153.811 29.2387 153.818C29.1131 153.822 28.9875 153.827 28.862 153.832C27.8244 153.874 26.7886 153.892 25.7503 153.875V153.75H26.4378L26.3128 153.438L26.1253 153.5C25.9682 153.573 25.8646 153.635 25.6917 153.602C25.5628 153.562 25.5628 153.562 25.3597 153.559L25.1878 153.562V153.375C25.373 153.246 25.373 153.246 25.5763 153.149C25.7863 153.045 25.9948 152.939 26.2027 152.831C26.9783 152.428 27.7523 152.021 28.5419 151.646C29.9311 150.991 31.2746 150.258 32.5445 149.391C32.6738 149.302 32.8038 149.215 32.9346 149.129C33.6843 148.638 34.4056 148.105 35.1214 147.566C35.3376 147.403 35.5538 147.24 35.7722 147.08C36.3854 146.632 36.9884 146.184 37.5628 145.688L37.794 145.487C37.8732 145.418 37.9524 145.35 38.0316 145.281L38.0673 145.25L38.0675 145.25C38.2328 145.104 38.3941 144.962 38.5882 144.854L38.6878 144.812V144.688L38.7752 144.613C38.9701 144.478 39.1575 144.339 39.336 144.183L39.3933 144.13L39.3937 144.13C39.5828 143.957 39.7713 143.784 39.9703 143.622C40.3299 143.336 40.6671 143.035 41.0003 142.719C41.2858 142.447 41.5721 142.184 41.8792 141.938C42.0658 141.789 42.2409 141.64 42.4066 141.469C42.5286 141.342 42.6517 141.228 42.7872 141.115C43.0607 140.896 43.3285 140.68 43.5745 140.43C43.6804 140.318 43.7866 140.21 43.9038 140.11C44.2811 139.791 44.2812 139.791 45.0811 138.99L45.0815 138.99C45.1664 138.905 45.2513 138.82 45.3362 138.735C45.5147 138.557 45.6931 138.378 45.8714 138.2C46.1016 137.969 46.3319 137.739 46.5625 137.508C46.7433 137.328 46.9239 137.147 47.1045 136.967C47.1909 136.88 47.2774 136.794 47.3638 136.707C47.7568 136.315 48.1565 135.93 48.5167 135.507C48.6051 135.394 48.6051 135.394 48.6878 135.312H48.8128C48.8638 135.126 48.8638 135.126 48.9727 134.997L49.0902 134.863C49.2018 134.73 49.2018 134.73 49.3128 134.625H49.4378C49.6999 134.1 49.6999 134.1 50.1839 133.66L50.2233 133.618C50.3763 133.453 50.5292 133.288 50.6778 133.119C50.8485 132.921 51.022 132.726 51.2015 132.535L51.2326 132.502C51.5566 132.159 51.879 131.817 52.1761 131.449C52.3475 131.235 52.5227 131.027 52.7074 130.824C53.118 130.373 53.5166 129.91 53.9034 129.438L53.9316 129.403C54.1009 129.194 54.2698 128.986 54.4483 128.785L54.4499 128.783C54.9228 128.262 55.3962 127.741 55.805 127.168C55.9795 126.922 56.1621 126.686 56.3522 126.453L56.4574 126.324L56.6695 126.064C57.1258 125.506 57.5641 124.945 57.9691 124.348C58.1878 124.024 58.4071 123.702 58.6388 123.387C59.5316 122.182 60.3903 120.953 61.1761 119.676L61.3023 119.47C61.3475 119.397 61.3927 119.323 61.4378 119.25C61.6809 118.853 61.9183 118.452 62.1895 118.073C62.5059 117.651 62.7832 117.215 63.0545 116.764C63.1573 116.592 63.2605 116.421 63.3646 116.25L63.4083 116.179C63.8021 115.534 64.1942 114.893 64.523 114.212C64.7452 113.752 64.9974 113.309 65.2657 112.874C65.676 112.214 66.0552 111.548 66.4112 110.857C66.6201 110.451 66.8324 110.047 67.0699 109.656C67.2943 109.288 67.5134 108.923 67.7034 108.535C67.8712 108.191 68.0493 107.854 68.2326 107.517L68.2588 107.469C68.5167 106.997 68.7743 106.526 69.012 106.043C69.1134 105.836 69.2146 105.63 69.3227 105.426C69.6269 104.863 69.9158 104.301 70.1644 103.711C70.3146 103.352 70.466 102.995 70.6326 102.644C70.8492 102.19 71.0575 101.735 71.2569 101.274C71.3186 101.131 71.3806 100.988 71.4431 100.845C71.725 100.204 72.0019 99.5618 72.2672 98.9136C72.5486 98.2258 72.8387 97.5439 73.1464 96.8675C73.8584 95.3038 74.4834 93.7153 75.0852 92.1065C75.2279 91.7249 75.3719 91.344 75.5203 90.9646L75.5863 90.7969L75.6013 90.7584L75.6014 90.7581L75.6016 90.7577L75.6224 90.7045C75.7272 90.4366 75.8322 90.1689 75.9403 89.9023C76.7068 88.0297 76.7068 88.0297 77.9777 83.8431C78.0194 83.7056 78.0611 83.5682 78.1029 83.4307L78.1384 83.3138C78.5128 82.0817 78.8876 80.8483 79.1956 79.5977C79.2658 79.3104 79.3388 79.0244 79.4175 78.7394L79.4559 78.6016C79.5486 78.2681 79.6435 77.9355 79.7429 77.604C80.7546 74.2457 81.6188 70.8562 82.2422 67.4045C82.6138 65.346 83.0413 63.2981 83.4781 61.2526C83.7118 60.1595 83.9386 59.065 84.1566 57.9688L84.1567 57.968L84.1569 57.9673C84.1691 57.9052 84.1814 57.8431 84.1936 57.781C84.2469 57.5119 84.3008 57.243 84.3587 56.9748C84.578 55.9738 84.7541 54.9798 84.8753 53.9622C84.9132 53.6393 84.9531 53.3167 84.9956 52.9944C85.1803 51.5977 85.3238 50.2028 85.4256 48.7976C85.4277 48.768 85.6914 47.2957 85.9532 45.8344C85.9551 45.8234 85.9571 45.8124 85.9591 45.8014Z" fill="#607090"/>
</svg>
