<svg width="480" height="240" viewBox="0 0 480 240" fill="none" xmlns="http://www.w3.org/2000/svg">
<rect width="480" height="240" fill="#87CEFF" fill-opacity="0.16"/>
<rect x="130" y="50" width="236" height="124" rx="14" fill="#E5F2FF"/>
<rect x="130" y="50" width="236" height="124" rx="14" stroke="#87CEFF" stroke-width="4"/>
<path d="M233.818 105.864V117.5H232.409V105.864H233.818ZM240.257 108.773V109.909H235.734V108.773H240.257ZM237.053 106.682H238.393V115C238.393 115.379 238.448 115.663 238.558 115.852C238.672 116.038 238.816 116.163 238.99 116.227C239.168 116.288 239.356 116.318 239.553 116.318C239.7 116.318 239.821 116.311 239.916 116.295C240.011 116.277 240.087 116.261 240.143 116.25L240.416 117.455C240.325 117.489 240.198 117.523 240.036 117.557C239.873 117.595 239.666 117.614 239.416 117.614C239.037 117.614 238.666 117.532 238.303 117.369C237.943 117.206 237.643 116.958 237.405 116.625C237.17 116.292 237.053 115.871 237.053 115.364V106.682ZM245.839 117.682C244.999 117.682 244.273 117.496 243.663 117.125C243.057 116.75 242.589 116.227 242.26 115.557C241.934 114.883 241.771 114.098 241.771 113.205C241.771 112.311 241.934 111.523 242.26 110.841C242.589 110.155 243.048 109.621 243.635 109.239C244.226 108.852 244.915 108.659 245.703 108.659C246.158 108.659 246.607 108.735 247.05 108.886C247.493 109.038 247.896 109.284 248.26 109.625C248.624 109.962 248.913 110.409 249.129 110.966C249.345 111.523 249.453 112.208 249.453 113.023V113.591H242.726V112.432H248.089C248.089 111.939 247.991 111.5 247.794 111.114C247.601 110.727 247.324 110.422 246.964 110.199C246.608 109.975 246.188 109.864 245.703 109.864C245.169 109.864 244.707 109.996 244.317 110.261C243.93 110.523 243.633 110.864 243.425 111.284C243.216 111.705 243.112 112.155 243.112 112.636V113.409C243.112 114.068 243.226 114.627 243.453 115.085C243.684 115.54 244.004 115.886 244.413 116.125C244.822 116.36 245.298 116.477 245.839 116.477C246.192 116.477 246.51 116.428 246.794 116.33C247.082 116.227 247.33 116.076 247.538 115.875C247.747 115.67 247.908 115.417 248.021 115.114L249.317 115.477C249.18 115.917 248.951 116.303 248.629 116.636C248.307 116.966 247.91 117.223 247.436 117.409C246.963 117.591 246.43 117.682 245.839 117.682ZM251.493 117.5V108.773H252.788V110.136H252.902C253.084 109.67 253.377 109.309 253.783 109.051C254.188 108.79 254.675 108.659 255.243 108.659C255.819 108.659 256.298 108.79 256.68 109.051C257.067 109.309 257.368 109.67 257.584 110.136H257.675C257.898 109.686 258.233 109.328 258.68 109.062C259.127 108.794 259.663 108.659 260.288 108.659C261.069 108.659 261.707 108.903 262.203 109.392C262.699 109.877 262.947 110.633 262.947 111.659V117.5H261.607V111.659C261.607 111.015 261.43 110.555 261.078 110.278C260.726 110.002 260.311 109.864 259.834 109.864C259.22 109.864 258.745 110.049 258.408 110.42C258.071 110.788 257.902 111.254 257.902 111.818V117.5H256.538V111.523C256.538 111.027 256.377 110.627 256.055 110.324C255.733 110.017 255.319 109.864 254.811 109.864C254.463 109.864 254.137 109.956 253.834 110.142C253.535 110.328 253.292 110.585 253.107 110.915C252.925 111.241 252.834 111.617 252.834 112.045V117.5H251.493Z" fill="black"/>
<path d="M229 0.25H267" stroke="#8194A2" stroke-width="0.5" stroke-dasharray="2 2"/>
<path d="M229 47.75H267" stroke="#8194A2" stroke-width="0.5" stroke-dasharray="2 2"/>
<path d="M248 0.25L245 0.25M248 0.25L251 0.25M248 0.25L248 47.7502M248 47.7502L245 47.7502M248 47.7502L251 47.7502" stroke="#8194A2" stroke-width="0.5"/>
<rect x="237" y="16" width="22" height="16" rx="3" fill="#8194A2"/>
<path d="M242.527 25.877L241.438 25.283L244.848 20.3L245.75 21.147L242.527 25.877ZM241.438 26.482V25.283L242.285 25.195H247.785V26.482H241.438ZM245.024 28V21.125L244.859 20.3H246.443V28H245.024ZM251.468 28.132C250.852 28.132 250.327 28.044 249.895 27.868C249.462 27.6847 249.132 27.4353 248.905 27.12C248.685 26.7973 248.575 26.4233 248.575 25.998C248.575 25.5433 248.685 25.1437 248.905 24.799C249.132 24.4543 249.462 24.183 249.895 23.985C250.327 23.787 250.852 23.6917 251.468 23.699C252.091 23.6917 252.619 23.787 253.052 23.985C253.484 24.183 253.814 24.4543 254.042 24.799C254.269 25.1437 254.383 25.5433 254.383 25.998C254.383 26.4233 254.269 26.7973 254.042 27.12C253.814 27.4353 253.484 27.6847 253.052 27.868C252.619 28.044 252.091 28.132 251.468 28.132ZM251.468 26.878C251.871 26.878 252.201 26.779 252.458 26.581C252.714 26.3757 252.843 26.1153 252.843 25.8C252.843 25.4553 252.714 25.1767 252.458 24.964C252.201 24.7513 251.871 24.645 251.468 24.645C251.204 24.645 250.969 24.6927 250.764 24.788C250.566 24.8833 250.408 25.019 250.291 25.195C250.173 25.371 250.115 25.5727 250.115 25.8C250.115 26.0127 250.173 26.1997 250.291 26.361C250.408 26.5223 250.566 26.6507 250.764 26.746C250.969 26.834 251.204 26.878 251.468 26.878ZM251.468 24.293C250.918 24.293 250.445 24.2087 250.049 24.04C249.653 23.864 249.348 23.6257 249.136 23.325C248.93 23.017 248.828 22.6613 248.828 22.258C248.828 21.8473 248.93 21.4843 249.136 21.169C249.348 20.8537 249.653 20.608 250.049 20.432C250.445 20.256 250.918 20.168 251.468 20.168C252.025 20.168 252.502 20.256 252.898 20.432C253.294 20.608 253.598 20.8537 253.811 21.169C254.023 21.4843 254.13 21.8473 254.13 22.258C254.13 22.6613 254.023 23.017 253.811 23.325C253.598 23.6257 253.294 23.864 252.898 24.04C252.502 24.2087 252.025 24.293 251.468 24.293ZM251.468 23.446C251.82 23.446 252.106 23.3507 252.326 23.16C252.553 22.9693 252.667 22.7273 252.667 22.434C252.667 22.1187 252.553 21.8657 252.326 21.675C252.106 21.477 251.82 21.378 251.468 21.378C251.123 21.378 250.841 21.477 250.621 21.675C250.401 21.8657 250.291 22.1187 250.291 22.434C250.291 22.7273 250.401 22.9693 250.621 23.16C250.841 23.3507 251.123 23.446 251.468 23.446Z" fill="white"/>
<path d="M0.25 96V128" stroke="#8194A2" stroke-width="0.5" stroke-dasharray="2 2"/>
<path d="M127.75 96V128" stroke="#8194A2" stroke-width="0.5" stroke-dasharray="2 2"/>
<path d="M127.75 112L127.75 109M127.75 112L127.75 115M127.75 112L0.249997 112M0.249997 112L0.249997 109M0.249997 112L0.249997 115" stroke="#8194A2" stroke-width="0.5"/>
<rect x="51" y="104" width="26" height="16" rx="3" fill="#8194A2"/>
<path d="M57.272 116V109.103L57.415 108.3H58.713L58.702 116H57.272ZM55.644 110.731V109.367C55.8273 109.382 56.0253 109.338 56.238 109.235C56.4506 109.125 56.6596 108.986 56.865 108.817C57.0776 108.641 57.261 108.465 57.415 108.289L58.372 109.224C58.108 109.517 57.8293 109.785 57.536 110.027C57.2426 110.262 56.9383 110.445 56.623 110.577C56.315 110.709 55.9886 110.76 55.644 110.731ZM61.8026 115.681L60.3286 114.889C60.3286 114.676 60.3946 114.442 60.5266 114.185C60.6586 113.928 60.8419 113.672 61.0766 113.415C61.3112 113.158 61.5862 112.92 61.9016 112.7L63.0676 111.864C63.2289 111.754 63.3792 111.629 63.5186 111.49C63.6652 111.351 63.7826 111.2 63.8706 111.039C63.9659 110.87 64.0136 110.709 64.0136 110.555C64.0136 110.364 63.9659 110.192 63.8706 110.038C63.7826 109.884 63.6506 109.763 63.4746 109.675C63.2986 109.587 63.0822 109.543 62.8256 109.543C62.6056 109.543 62.4076 109.587 62.2316 109.675C62.0629 109.763 61.9236 109.88 61.8136 110.027C61.7036 110.174 61.6266 110.331 61.5826 110.5L60.0316 110.236C60.1049 109.869 60.2626 109.528 60.5046 109.213C60.7466 108.898 61.0619 108.645 61.4506 108.454C61.8466 108.256 62.2939 108.157 62.7926 108.157C63.3646 108.157 63.8559 108.26 64.2666 108.465C64.6772 108.67 64.9926 108.953 65.2126 109.312C65.4399 109.664 65.5536 110.075 65.5536 110.544C65.5536 111.021 65.4216 111.446 65.1576 111.82C64.9009 112.187 64.5452 112.531 64.0906 112.854L63.0456 113.613C62.8329 113.752 62.6312 113.921 62.4406 114.119C62.2499 114.31 62.0959 114.533 61.9786 114.79C61.8612 115.039 61.8026 115.336 61.8026 115.681ZM60.3286 116V114.889L61.4506 114.68H65.6526V116H60.3286ZM69.4927 116.132C68.8767 116.132 68.3524 116.044 67.9197 115.868C67.487 115.685 67.157 115.435 66.9297 115.12C66.7097 114.797 66.5997 114.423 66.5997 113.998C66.5997 113.543 66.7097 113.144 66.9297 112.799C67.157 112.454 67.487 112.183 67.9197 111.985C68.3524 111.787 68.8767 111.692 69.4927 111.699C70.116 111.692 70.644 111.787 71.0767 111.985C71.5094 112.183 71.8394 112.454 72.0667 112.799C72.294 113.144 72.4077 113.543 72.4077 113.998C72.4077 114.423 72.294 114.797 72.0667 115.12C71.8394 115.435 71.5094 115.685 71.0767 115.868C70.644 116.044 70.116 116.132 69.4927 116.132ZM69.4927 114.878C69.896 114.878 70.226 114.779 70.4827 114.581C70.7394 114.376 70.8677 114.115 70.8677 113.8C70.8677 113.455 70.7394 113.177 70.4827 112.964C70.226 112.751 69.896 112.645 69.4927 112.645C69.2287 112.645 68.994 112.693 68.7887 112.788C68.5907 112.883 68.433 113.019 68.3157 113.195C68.1984 113.371 68.1397 113.573 68.1397 113.8C68.1397 114.013 68.1984 114.2 68.3157 114.361C68.433 114.522 68.5907 114.651 68.7887 114.746C68.994 114.834 69.2287 114.878 69.4927 114.878ZM69.4927 112.293C68.9427 112.293 68.4697 112.209 68.0737 112.04C67.6777 111.864 67.3734 111.626 67.1607 111.325C66.9554 111.017 66.8527 110.661 66.8527 110.258C66.8527 109.847 66.9554 109.484 67.1607 109.169C67.3734 108.854 67.6777 108.608 68.0737 108.432C68.4697 108.256 68.9427 108.168 69.4927 108.168C70.05 108.168 70.5267 108.256 70.9227 108.432C71.3187 108.608 71.623 108.854 71.8357 109.169C72.0484 109.484 72.1547 109.847 72.1547 110.258C72.1547 110.661 72.0484 111.017 71.8357 111.325C71.623 111.626 71.3187 111.864 70.9227 112.04C70.5267 112.209 70.05 112.293 69.4927 112.293ZM69.4927 111.446C69.8447 111.446 70.1307 111.351 70.3507 111.16C70.578 110.969 70.6917 110.727 70.6917 110.434C70.6917 110.119 70.578 109.866 70.3507 109.675C70.1307 109.477 69.8447 109.378 69.4927 109.378C69.148 109.378 68.8657 109.477 68.6457 109.675C68.4257 109.866 68.3157 110.119 68.3157 110.434C68.3157 110.727 68.4257 110.969 68.6457 111.16C68.8657 111.351 69.148 111.446 69.4927 111.446Z" fill="white"/>
</svg>
