<svg width="480" height="240" viewBox="0 0 480 240" fill="none" xmlns="http://www.w3.org/2000/svg">
<g clip-path="url(#clip0_7561_60522)">
<rect width="480" height="240" fill="#87CEFF" fill-opacity="0.16"/>
<rect x="34" y="50" width="348" height="164" rx="14" fill="#E5F2FF"/>
<rect x="34" y="50" width="348" height="164" rx="14" stroke="#87CEFF" stroke-width="4"/>
<path d="M193.818 125.864V137.5H192.409V125.864H193.818ZM200.257 128.773V129.909H195.734V128.773H200.257ZM197.053 126.682H198.393V135C198.393 135.379 198.448 135.663 198.558 135.852C198.672 136.038 198.816 136.163 198.99 136.227C199.168 136.288 199.356 136.318 199.553 136.318C199.7 136.318 199.821 136.311 199.916 136.295C200.011 136.277 200.087 136.261 200.143 136.25L200.416 137.455C200.325 137.489 200.198 137.523 200.036 137.557C199.873 137.595 199.666 137.614 199.416 137.614C199.037 137.614 198.666 137.532 198.303 137.369C197.943 137.206 197.643 136.958 197.405 136.625C197.17 136.292 197.053 135.871 197.053 135.364V126.682ZM205.839 137.682C204.999 137.682 204.273 137.496 203.663 137.125C203.057 136.75 202.589 136.227 202.26 135.557C201.934 134.883 201.771 134.098 201.771 133.205C201.771 132.311 201.934 131.523 202.26 130.841C202.589 130.155 203.048 129.621 203.635 129.239C204.226 128.852 204.915 128.659 205.703 128.659C206.158 128.659 206.607 128.735 207.05 128.886C207.493 129.038 207.896 129.284 208.26 129.625C208.624 129.962 208.913 130.409 209.129 130.966C209.345 131.523 209.453 132.208 209.453 133.023V133.591H202.726V132.432H208.089C208.089 131.939 207.991 131.5 207.794 131.114C207.601 130.727 207.324 130.422 206.964 130.199C206.608 129.975 206.188 129.864 205.703 129.864C205.169 129.864 204.707 129.996 204.317 130.261C203.93 130.523 203.633 130.864 203.425 131.284C203.216 131.705 203.112 132.155 203.112 132.636V133.409C203.112 134.068 203.226 134.627 203.453 135.085C203.684 135.54 204.004 135.886 204.413 136.125C204.822 136.36 205.298 136.477 205.839 136.477C206.192 136.477 206.51 136.428 206.794 136.33C207.082 136.227 207.33 136.076 207.538 135.875C207.747 135.67 207.908 135.417 208.021 135.114L209.317 135.477C209.18 135.917 208.951 136.303 208.629 136.636C208.307 136.966 207.91 137.223 207.436 137.409C206.963 137.591 206.43 137.682 205.839 137.682ZM211.493 137.5V128.773H212.788V130.136H212.902C213.084 129.67 213.377 129.309 213.783 129.051C214.188 128.79 214.675 128.659 215.243 128.659C215.819 128.659 216.298 128.79 216.68 129.051C217.067 129.309 217.368 129.67 217.584 130.136H217.675C217.898 129.686 218.233 129.328 218.68 129.062C219.127 128.794 219.663 128.659 220.288 128.659C221.069 128.659 221.707 128.903 222.203 129.392C222.699 129.877 222.947 130.633 222.947 131.659V137.5H221.607V131.659C221.607 131.015 221.43 130.555 221.078 130.278C220.726 130.002 220.311 129.864 219.834 129.864C219.22 129.864 218.745 130.049 218.408 130.42C218.071 130.788 217.902 131.254 217.902 131.818V137.5H216.538V131.523C216.538 131.027 216.377 130.627 216.055 130.324C215.733 130.017 215.319 129.864 214.811 129.864C214.463 129.864 214.137 129.956 213.834 130.142C213.535 130.328 213.292 130.585 213.107 130.915C212.925 131.241 212.834 131.617 212.834 132.045V137.5H211.493Z" fill="black"/>
<path d="M189 0.25H227" stroke="#8194A2" stroke-width="0.5" stroke-dasharray="2 2"/>
<path d="M189 47.75H227" stroke="#8194A2" stroke-width="0.5" stroke-dasharray="2 2"/>
<path d="M208 0.25L205 0.25M208 0.25L211 0.25M208 0.25L208 47.7502M208 47.7502L205 47.7502M208 47.7502L211 47.7502" stroke="#8194A2" stroke-width="0.5"/>
<rect x="197" y="16" width="22" height="16" rx="3" fill="#8194A2"/>
<path d="M202.527 25.877L201.438 25.283L204.848 20.3L205.75 21.147L202.527 25.877ZM201.438 26.482V25.283L202.285 25.195H207.785V26.482H201.438ZM205.024 28V21.125L204.859 20.3H206.443V28H205.024ZM211.468 28.132C210.852 28.132 210.327 28.044 209.895 27.868C209.462 27.6847 209.132 27.4353 208.905 27.12C208.685 26.7973 208.575 26.4233 208.575 25.998C208.575 25.5433 208.685 25.1437 208.905 24.799C209.132 24.4543 209.462 24.183 209.895 23.985C210.327 23.787 210.852 23.6917 211.468 23.699C212.091 23.6917 212.619 23.787 213.052 23.985C213.484 24.183 213.814 24.4543 214.042 24.799C214.269 25.1437 214.383 25.5433 214.383 25.998C214.383 26.4233 214.269 26.7973 214.042 27.12C213.814 27.4353 213.484 27.6847 213.052 27.868C212.619 28.044 212.091 28.132 211.468 28.132ZM211.468 26.878C211.871 26.878 212.201 26.779 212.458 26.581C212.714 26.3757 212.843 26.1153 212.843 25.8C212.843 25.4553 212.714 25.1767 212.458 24.964C212.201 24.7513 211.871 24.645 211.468 24.645C211.204 24.645 210.969 24.6927 210.764 24.788C210.566 24.8833 210.408 25.019 210.291 25.195C210.173 25.371 210.115 25.5727 210.115 25.8C210.115 26.0127 210.173 26.1997 210.291 26.361C210.408 26.5223 210.566 26.6507 210.764 26.746C210.969 26.834 211.204 26.878 211.468 26.878ZM211.468 24.293C210.918 24.293 210.445 24.2087 210.049 24.04C209.653 23.864 209.348 23.6257 209.136 23.325C208.93 23.017 208.828 22.6613 208.828 22.258C208.828 21.8473 208.93 21.4843 209.136 21.169C209.348 20.8537 209.653 20.608 210.049 20.432C210.445 20.256 210.918 20.168 211.468 20.168C212.025 20.168 212.502 20.256 212.898 20.432C213.294 20.608 213.598 20.8537 213.811 21.169C214.023 21.4843 214.13 21.8473 214.13 22.258C214.13 22.6613 214.023 23.017 213.811 23.325C213.598 23.6257 213.294 23.864 212.898 24.04C212.502 24.2087 212.025 24.293 211.468 24.293ZM211.468 23.446C211.82 23.446 212.106 23.3507 212.326 23.16C212.553 22.9693 212.667 22.7273 212.667 22.434C212.667 22.1187 212.553 21.8657 212.326 21.675C212.106 21.477 211.82 21.378 211.468 21.378C211.123 21.378 210.841 21.477 210.621 21.675C210.401 21.8657 210.291 22.1187 210.291 22.434C210.291 22.7273 210.401 22.9693 210.621 23.16C210.841 23.3507 211.123 23.446 211.468 23.446Z" fill="white"/>
<path d="M189 216.25H227" stroke="#8194A2" stroke-width="0.5" stroke-dasharray="2 2"/>
<path d="M189 239.75H227" stroke="#8194A2" stroke-width="0.5" stroke-dasharray="2 2"/>
<path d="M208 216.25L205 216.25M208 216.25L211 216.25M208 216.25L208 239.75M208 239.75L205 239.75M208 239.75L211 239.75" stroke="#8194A2" stroke-width="0.5"/>
<rect x="197" y="220" width="22" height="16" rx="3" fill="#8194A2"/>
<path d="M203.369 231.681L201.895 230.889C201.895 230.676 201.961 230.442 202.093 230.185C202.225 229.928 202.409 229.672 202.643 229.415C202.878 229.158 203.153 228.92 203.468 228.7L204.634 227.864C204.796 227.754 204.946 227.629 205.085 227.49C205.232 227.351 205.349 227.2 205.437 227.039C205.533 226.87 205.58 226.709 205.58 226.555C205.58 226.364 205.533 226.192 205.437 226.038C205.349 225.884 205.217 225.763 205.041 225.675C204.865 225.587 204.649 225.543 204.392 225.543C204.172 225.543 203.974 225.587 203.798 225.675C203.63 225.763 203.49 225.88 203.38 226.027C203.27 226.174 203.193 226.331 203.149 226.5L201.598 226.236C201.672 225.869 201.829 225.528 202.071 225.213C202.313 224.898 202.629 224.645 203.017 224.454C203.413 224.256 203.861 224.157 204.359 224.157C204.931 224.157 205.423 224.26 205.833 224.465C206.244 224.67 206.559 224.953 206.779 225.312C207.007 225.664 207.12 226.075 207.12 226.544C207.12 227.021 206.988 227.446 206.724 227.82C206.468 228.187 206.112 228.531 205.657 228.854L204.612 229.613C204.4 229.752 204.198 229.921 204.007 230.119C203.817 230.31 203.663 230.533 203.545 230.79C203.428 231.039 203.369 231.336 203.369 231.681ZM201.895 232V230.889L203.017 230.68H207.219V232H201.895ZM209.08 229.877L207.991 229.283L211.401 224.3L212.303 225.147L209.08 229.877ZM207.991 230.482V229.283L208.838 229.195H214.338V230.482H207.991ZM211.577 232V225.125L211.412 224.3H212.996V232H211.577Z" fill="white"/>
<path d="M0.25 116V148" stroke="#8194A2" stroke-width="0.5" stroke-dasharray="2 2"/>
<path d="M31.75 116V148" stroke="#8194A2" stroke-width="0.5" stroke-dasharray="2 2"/>
<path d="M31.75 132L31.75 129M31.75 132L31.75 135M31.75 132L0.249999 132M0.249999 132L0.249999 129M0.249999 132L0.249999 135" stroke="#8194A2" stroke-width="0.5"/>
<rect x="5.5" y="124" width="21" height="16" rx="3" fill="#8194A2"/>
<path d="M12.8498 136.132C12.3951 136.132 11.9845 136.066 11.6178 135.934C11.2511 135.795 10.9431 135.6 10.6938 135.351C10.4518 135.094 10.2831 134.794 10.1878 134.449L11.5738 134.042C11.6251 134.13 11.6948 134.24 11.7828 134.372C11.8708 134.497 11.9918 134.603 12.1458 134.691C12.2998 134.779 12.5015 134.823 12.7508 134.823C13.1175 134.823 13.4071 134.724 13.6198 134.526C13.8398 134.321 13.9498 134.057 13.9498 133.734C13.9498 133.514 13.8948 133.32 13.7848 133.151C13.6748 132.982 13.4951 132.854 13.2458 132.766C13.0038 132.671 12.6848 132.623 12.2888 132.623H11.8268V131.6H12.2338C12.6738 131.6 13.0881 131.655 13.4768 131.765C13.8655 131.868 14.2065 132.022 14.4998 132.227C14.8005 132.425 15.0351 132.667 15.2038 132.953C15.3725 133.232 15.4568 133.551 15.4568 133.91C15.4568 134.372 15.3358 134.772 15.0938 135.109C14.8518 135.439 14.5328 135.692 14.1368 135.868C13.7408 136.044 13.3118 136.132 12.8498 136.132ZM11.8268 132.348V131.391H12.2888C12.8021 131.391 13.1835 131.303 13.4328 131.127C13.6821 130.951 13.8068 130.709 13.8068 130.401C13.8068 130.225 13.7628 130.067 13.6748 129.928C13.5868 129.789 13.4621 129.679 13.3008 129.598C13.1395 129.517 12.9525 129.477 12.7398 129.477C12.6005 129.477 12.4575 129.503 12.3108 129.554C12.1641 129.598 12.0285 129.675 11.9038 129.785C11.7865 129.888 11.6911 130.038 11.6178 130.236L10.2538 129.829C10.3565 129.47 10.5325 129.169 10.7818 128.927C11.0385 128.678 11.3428 128.491 11.6948 128.366C12.0468 128.234 12.4098 128.168 12.7838 128.168C13.2605 128.168 13.6895 128.26 14.0708 128.443C14.4521 128.619 14.7528 128.865 14.9728 129.18C15.1928 129.495 15.3028 129.858 15.3028 130.269C15.3028 130.621 15.2185 130.925 15.0498 131.182C14.8811 131.439 14.6501 131.655 14.3568 131.831C14.0708 132.007 13.7445 132.139 13.3778 132.227C13.0111 132.308 12.6298 132.348 12.2338 132.348H11.8268ZM17.9061 135.681L16.4321 134.889C16.4321 134.676 16.4981 134.442 16.6301 134.185C16.7621 133.928 16.9454 133.672 17.1801 133.415C17.4148 133.158 17.6898 132.92 18.0051 132.7L19.1711 131.864C19.3324 131.754 19.4828 131.629 19.6221 131.49C19.7688 131.351 19.8861 131.2 19.9741 131.039C20.0694 130.87 20.1171 130.709 20.1171 130.555C20.1171 130.364 20.0694 130.192 19.9741 130.038C19.8861 129.884 19.7541 129.763 19.5781 129.675C19.4021 129.587 19.1858 129.543 18.9291 129.543C18.7091 129.543 18.5111 129.587 18.3351 129.675C18.1664 129.763 18.0271 129.88 17.9171 130.027C17.8071 130.174 17.7301 130.331 17.6861 130.5L16.1351 130.236C16.2084 129.869 16.3661 129.528 16.6081 129.213C16.8501 128.898 17.1654 128.645 17.5541 128.454C17.9501 128.256 18.3974 128.157 18.8961 128.157C19.4681 128.157 19.9594 128.26 20.3701 128.465C20.7808 128.67 21.0961 128.953 21.3161 129.312C21.5434 129.664 21.6571 130.075 21.6571 130.544C21.6571 131.021 21.5251 131.446 21.2611 131.82C21.0044 132.187 20.6488 132.531 20.1941 132.854L19.1491 133.613C18.9364 133.752 18.7348 133.921 18.5441 134.119C18.3534 134.31 18.1994 134.533 18.0821 134.79C17.9648 135.039 17.9061 135.336 17.9061 135.681ZM16.4321 136V134.889L17.5541 134.68H21.7561V136H16.4321Z" fill="white"/>
<path d="M384.25 116V148" stroke="#8194A2" stroke-width="0.5" stroke-dasharray="2 2"/>
<path d="M479.75 116V148" stroke="#8194A2" stroke-width="0.5" stroke-dasharray="2 2"/>
<path d="M479.75 132L479.75 129M479.75 132L479.75 135M479.75 132L384.25 132M384.25 132L384.25 129M384.25 132L384.25 135" stroke="#8194A2" stroke-width="0.5"/>
<rect x="421.5" y="124" width="21" height="16" rx="3" fill="#8194A2"/>
<path d="M428.71 128.179C429.231 128.179 429.671 128.274 430.03 128.465C430.397 128.648 430.694 128.905 430.921 129.235C431.156 129.565 431.324 129.95 431.427 130.39C431.537 130.823 431.592 131.288 431.592 131.787C431.592 132.381 431.53 132.942 431.405 133.47C431.28 133.991 431.09 134.453 430.833 134.856C430.584 135.252 430.261 135.567 429.865 135.802C429.469 136.029 428.992 136.143 428.435 136.143C428.032 136.143 427.636 136.084 427.247 135.967C426.866 135.842 426.521 135.674 426.213 135.461L426.95 134.361C427.185 134.515 427.43 134.632 427.687 134.713C427.951 134.786 428.189 134.823 428.402 134.823C428.974 134.823 429.421 134.574 429.744 134.075C430.074 133.569 430.224 132.781 430.195 131.71L430.503 131.908C430.334 132.311 430.074 132.638 429.722 132.887C429.37 133.129 428.948 133.25 428.457 133.25C427.973 133.25 427.54 133.136 427.159 132.909C426.778 132.674 426.481 132.363 426.268 131.974C426.055 131.585 425.949 131.145 425.949 130.654C425.949 130.17 426.063 129.745 426.29 129.378C426.517 129.004 426.836 128.711 427.247 128.498C427.665 128.285 428.153 128.179 428.71 128.179ZM428.71 129.444C428.468 129.444 428.252 129.499 428.061 129.609C427.87 129.719 427.72 129.869 427.61 130.06C427.5 130.251 427.445 130.471 427.445 130.72C427.445 130.969 427.5 131.193 427.61 131.391C427.72 131.589 427.87 131.743 428.061 131.853C428.252 131.963 428.468 132.018 428.71 132.018C428.952 132.018 429.168 131.963 429.359 131.853C429.55 131.743 429.7 131.589 429.81 131.391C429.927 131.193 429.986 130.969 429.986 130.72C429.986 130.471 429.927 130.251 429.81 130.06C429.7 129.869 429.55 129.719 429.359 129.609C429.168 129.499 428.952 129.444 428.71 129.444ZM435.289 136.132C434.768 136.132 434.325 136.04 433.958 135.857C433.599 135.666 433.302 135.406 433.067 135.076C432.84 134.746 432.671 134.365 432.561 133.932C432.458 133.492 432.407 133.019 432.407 132.513C432.407 131.926 432.469 131.373 432.594 130.852C432.719 130.324 432.906 129.858 433.155 129.455C433.412 129.052 433.738 128.736 434.134 128.509C434.53 128.282 435.007 128.168 435.564 128.168C435.967 128.168 436.36 128.227 436.741 128.344C437.13 128.461 437.478 128.63 437.786 128.85L437.038 129.95C436.811 129.789 436.565 129.671 436.301 129.598C436.044 129.525 435.806 129.488 435.586 129.488C435.021 129.488 434.578 129.737 434.255 130.236C433.932 130.735 433.778 131.523 433.793 132.601L433.496 132.392C433.665 131.989 433.925 131.666 434.277 131.424C434.629 131.182 435.047 131.061 435.531 131.061C436.022 131.061 436.455 131.175 436.829 131.402C437.21 131.629 437.507 131.941 437.72 132.337C437.94 132.726 438.05 133.162 438.05 133.646C438.05 134.123 437.936 134.552 437.709 134.933C437.482 135.307 437.159 135.6 436.741 135.813C436.33 136.026 435.846 136.132 435.289 136.132ZM435.289 134.856C435.531 134.856 435.747 134.801 435.938 134.691C436.129 134.581 436.279 134.431 436.389 134.24C436.499 134.049 436.554 133.829 436.554 133.58C436.554 133.331 436.499 133.111 436.389 132.92C436.279 132.722 436.129 132.568 435.938 132.458C435.747 132.341 435.531 132.282 435.289 132.282C435.047 132.282 434.827 132.341 434.629 132.458C434.438 132.568 434.288 132.722 434.178 132.92C434.068 133.111 434.013 133.331 434.013 133.58C434.013 133.829 434.068 134.049 434.178 134.24C434.288 134.431 434.438 134.581 434.629 134.691C434.827 134.801 435.047 134.856 435.289 134.856Z" fill="white"/>
</g>
<defs>
<clipPath id="clip0_7561_60522">
<rect width="480" height="240" fill="white"/>
</clipPath>
</defs>
</svg>
