<svg width="563" height="162" viewBox="0 0 563 162" fill="none" xmlns="http://www.w3.org/2000/svg">
<rect x="1" y="1" width="561" height="160" rx="2" fill="#87CEFF"/>
<rect x="1" y="1" width="561" height="160" rx="2" stroke="#006590"/>
<rect x="1" y="1" width="561" height="72" rx="2" fill="white"/>
<rect x="1" y="1" width="561" height="72" rx="2" stroke="#001E2E" stroke-linecap="square" stroke-dasharray="6 6"/>
<rect x="223.5" y="23.5" width="116" height="27" rx="7.5" fill="#FFEBF7"/>
<rect x="223.5" y="23.5" width="116" height="27" rx="7.5" stroke="#FFADF3"/>
<path d="M231.848 38.2471C231.848 37.6865 231.916 37.1761 232.053 36.7158C232.189 36.251 232.388 35.8522 232.647 35.5195C232.907 35.1868 233.219 34.9294 233.584 34.7471C233.953 34.5602 234.368 34.4668 234.828 34.4668C235.102 34.4668 235.35 34.4964 235.573 34.5557C235.797 34.6104 235.999 34.6924 236.182 34.8018C236.3 34.8701 236.412 34.9521 236.517 35.0479C236.621 35.139 236.719 35.2393 236.811 35.3486L236.879 34.6035H238.362V41.7949C238.362 42.2917 238.28 42.7314 238.116 43.1143C237.957 43.5016 237.731 43.8298 237.439 44.0986C237.143 44.363 236.788 44.5635 236.373 44.7002C235.963 44.8415 235.509 44.9121 235.013 44.9121C234.803 44.9121 234.573 44.8893 234.322 44.8438C234.072 44.7982 233.821 44.7275 233.57 44.6318C233.32 44.5361 233.08 44.4108 232.853 44.2559C232.625 44.1009 232.429 43.9141 232.265 43.6953L233.037 42.7041C233.169 42.8636 233.311 43.0003 233.461 43.1143C233.616 43.2327 233.773 43.3285 233.933 43.4014C234.092 43.4743 234.254 43.5267 234.418 43.5586C234.582 43.5951 234.748 43.6133 234.917 43.6133C235.209 43.6133 235.466 43.5723 235.689 43.4902C235.917 43.4082 236.111 43.2897 236.271 43.1348C236.416 42.9844 236.528 42.7998 236.605 42.5811C236.688 42.3623 236.729 42.1139 236.729 41.8359V41.3232C236.633 41.4235 236.533 41.5169 236.428 41.6035C236.327 41.6901 236.218 41.7653 236.1 41.8291C235.922 41.9294 235.726 42.0046 235.512 42.0547C235.298 42.1094 235.065 42.1367 234.814 42.1367C234.359 42.1367 233.949 42.0433 233.584 41.8564C233.219 41.665 232.907 41.4007 232.647 41.0635C232.392 40.7308 232.194 40.3366 232.053 39.8809C231.916 39.4206 231.848 38.9238 231.848 38.3906V38.2471ZM233.488 38.3906C233.488 38.7188 233.52 39.0286 233.584 39.3203C233.652 39.612 233.759 39.8649 233.905 40.0791C234.047 40.3024 234.227 40.4779 234.445 40.6055C234.664 40.7285 234.924 40.79 235.225 40.79C235.411 40.79 235.58 40.7695 235.73 40.7285C235.885 40.6875 236.024 40.6305 236.147 40.5576C236.271 40.4801 236.38 40.3867 236.476 40.2773C236.571 40.168 236.656 40.0472 236.729 39.915V36.6748C236.656 36.5381 236.567 36.415 236.462 36.3057C236.362 36.1963 236.245 36.1029 236.113 36.0254C235.995 35.9616 235.863 35.9115 235.717 35.875C235.571 35.834 235.411 35.8135 235.238 35.8135C234.933 35.8135 234.671 35.8773 234.452 36.0049C234.233 36.1325 234.053 36.3079 233.912 36.5312C233.766 36.7546 233.659 37.0143 233.591 37.3105C233.522 37.6022 233.488 37.9144 233.488 38.2471V38.3906ZM245.581 34.4668C245.845 34.4668 246.101 34.485 246.347 34.5215C246.597 34.5579 246.793 34.6012 246.935 34.6514L246.702 36.2646C246.451 36.21 246.203 36.1689 245.957 36.1416C245.715 36.1143 245.474 36.1006 245.232 36.1006C244.959 36.1006 244.713 36.1279 244.494 36.1826C244.275 36.2373 244.082 36.3216 243.913 36.4355C243.731 36.5449 243.576 36.6839 243.448 36.8525C243.321 37.0212 243.214 37.2148 243.127 37.4336V42H241.493V34.6035H243.024L243.093 35.6289L243.1 35.7998C243.4 35.3851 243.76 35.0592 244.18 34.8223C244.604 34.5853 245.071 34.4668 245.581 34.4668ZM249.252 34.6035H253.176V40.6465H255.35V42H249.252V40.6465H251.528V35.9639H249.252V34.6035ZM251.378 32.6895C251.378 32.5573 251.401 32.4365 251.446 32.3271C251.492 32.2132 251.558 32.1152 251.645 32.0332C251.727 31.9557 251.825 31.8965 251.938 31.8555C252.057 31.8099 252.189 31.7871 252.335 31.7871C252.581 31.7871 252.779 31.8509 252.93 31.9785C253.085 32.1016 253.174 32.2611 253.196 32.457C253.228 32.6576 253.194 32.833 253.094 32.9834C252.993 33.1292 252.848 33.2272 252.656 33.2773C252.561 33.3639 252.447 33.4209 252.314 33.4482C252.182 33.4756 252.036 33.4642 251.877 33.4141C251.713 33.3639 251.588 33.2751 251.501 33.1475C251.419 33.0153 251.378 32.8626 251.378 32.6895ZM257.065 38.2471C257.065 37.6865 257.132 37.1761 257.264 36.7158C257.4 36.251 257.596 35.8522 257.852 35.5195C258.102 35.1868 258.408 34.9294 258.768 34.7471C259.132 34.5602 259.542 34.4668 259.998 34.4668C260.408 34.4668 260.766 34.5397 261.071 34.6855C261.381 34.8268 261.655 35.0296 261.892 35.2939V31.5H263.525V42H262.042L261.967 41.2275C261.73 41.5192 261.447 41.7448 261.119 41.9043C260.791 42.0592 260.413 42.1367 259.984 42.1367C259.533 42.1367 259.128 42.0433 258.768 41.8564C258.408 41.665 258.102 41.4007 257.852 41.0635C257.601 40.7308 257.407 40.3366 257.271 39.8809C257.134 39.4206 257.065 38.9238 257.065 38.3906V38.2471ZM258.699 38.3906C258.699 38.7188 258.731 39.0286 258.795 39.3203C258.859 39.612 258.959 39.8649 259.096 40.0791C259.232 40.3024 259.408 40.4779 259.622 40.6055C259.836 40.7285 260.094 40.79 260.395 40.79C260.764 40.79 261.069 40.7103 261.311 40.5508C261.552 40.3867 261.746 40.1657 261.892 39.8877V36.709C261.746 36.4355 261.552 36.2191 261.311 36.0596C261.074 35.8955 260.773 35.8135 260.408 35.8135C260.103 35.8135 259.841 35.8773 259.622 36.0049C259.408 36.1325 259.235 36.3079 259.103 36.5312C258.961 36.7546 258.859 37.0143 258.795 37.3105C258.731 37.6022 258.699 37.9144 258.699 38.2471V38.3906ZM271.879 38.2881H266.376V36.9619H271.879V38.2881ZM278.824 42C278.774 41.9089 278.733 41.7995 278.701 41.6719C278.674 41.5397 278.649 41.403 278.626 41.2617C278.512 41.3802 278.382 41.4941 278.236 41.6035C278.095 41.7083 277.936 41.7995 277.758 41.877C277.58 41.959 277.389 42.0228 277.184 42.0684C276.979 42.1139 276.757 42.1367 276.521 42.1367C276.138 42.1367 275.787 42.082 275.468 41.9727C275.153 41.8587 274.884 41.7038 274.661 41.5078C274.433 41.3164 274.256 41.0863 274.128 40.8174C274.005 40.5439 273.943 40.25 273.943 39.9355C273.943 39.5299 274.023 39.1722 274.183 38.8623C274.347 38.5479 274.584 38.2881 274.894 38.083C275.181 37.8916 275.534 37.7458 275.953 37.6455C276.377 37.5452 276.855 37.4951 277.389 37.4951H278.578V36.9961C278.578 36.8047 278.544 36.6315 278.476 36.4766C278.412 36.3216 278.318 36.1872 278.195 36.0732C278.063 35.9593 277.901 35.8727 277.71 35.8135C277.523 35.7497 277.307 35.7178 277.061 35.7178C276.837 35.7178 276.641 35.7451 276.473 35.7998C276.309 35.8545 276.172 35.9297 276.062 36.0254C275.953 36.112 275.871 36.2191 275.816 36.3467C275.766 36.4697 275.741 36.6019 275.741 36.7432H274.101C274.105 36.4469 274.176 36.1621 274.312 35.8887C274.449 35.6152 274.65 35.3737 274.914 35.1641C275.169 34.9499 275.484 34.7812 275.857 34.6582C276.236 34.5306 276.666 34.4668 277.149 34.4668C277.582 34.4668 277.986 34.5215 278.359 34.6309C278.738 34.7357 279.063 34.8929 279.337 35.1025C279.61 35.3122 279.825 35.5788 279.979 35.9023C280.134 36.2214 280.212 36.5905 280.212 37.0098V40.2979C280.212 40.6305 280.235 40.9313 280.28 41.2002C280.33 41.4645 280.401 41.6924 280.492 41.8838V42H278.824ZM276.835 40.8242C277.049 40.8242 277.247 40.7969 277.43 40.7422C277.617 40.6875 277.785 40.6169 277.936 40.5303C278.086 40.4437 278.216 40.3457 278.325 40.2363C278.435 40.127 278.519 40.013 278.578 39.8945V38.5273H277.525C277.17 38.5273 276.862 38.5615 276.603 38.6299C276.343 38.6937 276.135 38.7871 275.98 38.9102C275.844 39.015 275.741 39.1403 275.673 39.2861C275.609 39.432 275.577 39.596 275.577 39.7783C275.577 39.9287 275.604 40.07 275.659 40.2021C275.714 40.3298 275.794 40.4391 275.898 40.5303C276.003 40.6214 276.133 40.6943 276.288 40.749C276.443 40.7992 276.625 40.8242 276.835 40.8242ZM287.622 34.4668C287.886 34.4668 288.142 34.485 288.388 34.5215C288.638 34.5579 288.834 34.6012 288.976 34.6514L288.743 36.2646C288.493 36.21 288.244 36.1689 287.998 36.1416C287.757 36.1143 287.515 36.1006 287.273 36.1006C287 36.1006 286.754 36.1279 286.535 36.1826C286.316 36.2373 286.123 36.3216 285.954 36.4355C285.772 36.5449 285.617 36.6839 285.489 36.8525C285.362 37.0212 285.255 37.2148 285.168 37.4336V42H283.534V34.6035H285.065L285.134 35.6289L285.141 35.7998C285.441 35.3851 285.801 35.0592 286.221 34.8223C286.645 34.5853 287.112 34.4668 287.622 34.4668ZM294.369 42.1367C293.822 42.1367 293.321 42.0456 292.865 41.8633C292.414 41.681 292.027 41.4281 291.703 41.1045C291.38 40.7855 291.129 40.4095 290.951 39.9766C290.778 39.5391 290.691 39.0674 290.691 38.5615V38.2812C290.691 37.7025 290.783 37.1784 290.965 36.709C291.147 36.2396 291.398 35.8385 291.717 35.5059C292.036 35.1732 292.405 34.918 292.824 34.7402C293.248 34.5579 293.699 34.4668 294.178 34.4668C294.711 34.4668 295.183 34.5579 295.593 34.7402C296.003 34.918 296.347 35.1663 296.625 35.4854C296.903 35.8089 297.113 36.194 297.254 36.6406C297.395 37.0872 297.466 37.5749 297.466 38.1035V38.8076H292.339V38.8418C292.389 39.1654 292.466 39.4365 292.571 39.6553C292.676 39.874 292.82 40.07 293.002 40.2432C293.184 40.4255 293.398 40.5667 293.645 40.667C293.895 40.7673 294.169 40.8174 294.465 40.8174C294.87 40.8174 295.249 40.7399 295.6 40.585C295.951 40.4255 296.24 40.1999 296.468 39.9082L297.343 40.7559C297.097 41.1113 296.718 41.4303 296.208 41.7129C295.702 41.9954 295.089 42.1367 294.369 42.1367ZM294.171 35.793C293.938 35.793 293.722 35.8363 293.521 35.9229C293.326 36.0049 293.15 36.1234 292.995 36.2783C292.84 36.4378 292.71 36.6292 292.605 36.8525C292.501 37.0758 292.423 37.3288 292.373 37.6113H295.853V37.502C295.853 37.2878 295.814 37.0758 295.736 36.8662C295.659 36.652 295.549 36.4652 295.408 36.3057C295.271 36.1507 295.098 36.0277 294.889 35.9365C294.684 35.8408 294.444 35.793 294.171 35.793ZM304.049 42C303.999 41.9089 303.958 41.7995 303.926 41.6719C303.898 41.5397 303.873 41.403 303.851 41.2617C303.737 41.3802 303.607 41.4941 303.461 41.6035C303.32 41.7083 303.16 41.7995 302.982 41.877C302.805 41.959 302.613 42.0228 302.408 42.0684C302.203 42.1139 301.982 42.1367 301.745 42.1367C301.362 42.1367 301.011 42.082 300.692 41.9727C300.378 41.8587 300.109 41.7038 299.886 41.5078C299.658 41.3164 299.48 41.0863 299.353 40.8174C299.229 40.5439 299.168 40.25 299.168 39.9355C299.168 39.5299 299.248 39.1722 299.407 38.8623C299.571 38.5479 299.808 38.2881 300.118 38.083C300.405 37.8916 300.758 37.7458 301.178 37.6455C301.602 37.5452 302.08 37.4951 302.613 37.4951H303.803V36.9961C303.803 36.8047 303.769 36.6315 303.7 36.4766C303.636 36.3216 303.543 36.1872 303.42 36.0732C303.288 35.9593 303.126 35.8727 302.935 35.8135C302.748 35.7497 302.531 35.7178 302.285 35.7178C302.062 35.7178 301.866 35.7451 301.697 35.7998C301.533 35.8545 301.396 35.9297 301.287 36.0254C301.178 36.112 301.096 36.2191 301.041 36.3467C300.991 36.4697 300.966 36.6019 300.966 36.7432H299.325C299.33 36.4469 299.4 36.1621 299.537 35.8887C299.674 35.6152 299.874 35.3737 300.139 35.1641C300.394 34.9499 300.708 34.7812 301.082 34.6582C301.46 34.5306 301.891 34.4668 302.374 34.4668C302.807 34.4668 303.21 34.5215 303.584 34.6309C303.962 34.7357 304.288 34.8929 304.562 35.1025C304.835 35.3122 305.049 35.5788 305.204 35.9023C305.359 36.2214 305.437 36.5905 305.437 37.0098V40.2979C305.437 40.6305 305.459 40.9313 305.505 41.2002C305.555 41.4645 305.626 41.6924 305.717 41.8838V42H304.049ZM302.06 40.8242C302.274 40.8242 302.472 40.7969 302.654 40.7422C302.841 40.6875 303.01 40.6169 303.16 40.5303C303.311 40.4437 303.44 40.3457 303.55 40.2363C303.659 40.127 303.743 40.013 303.803 39.8945V38.5273H302.75C302.395 38.5273 302.087 38.5615 301.827 38.6299C301.567 38.6937 301.36 38.7871 301.205 38.9102C301.068 39.015 300.966 39.1403 300.897 39.2861C300.834 39.432 300.802 39.596 300.802 39.7783C300.802 39.9287 300.829 40.07 300.884 40.2021C300.938 40.3298 301.018 40.4391 301.123 40.5303C301.228 40.6214 301.358 40.6943 301.513 40.749C301.668 40.7992 301.85 40.8242 302.06 40.8242ZM309.969 41.0156C309.969 40.7012 310.069 40.4323 310.27 40.209C310.475 39.9857 310.769 39.874 311.151 39.874C311.525 39.874 311.817 39.9857 312.026 40.209C312.236 40.4277 312.341 40.6966 312.341 41.0156C312.341 41.3346 312.234 41.6012 312.02 41.8154C311.81 42.0296 311.521 42.1367 311.151 42.1367C310.778 42.1367 310.486 42.0296 310.276 41.8154C310.071 41.5967 309.969 41.3301 309.969 41.0156ZM309.969 35.2256C309.969 34.9111 310.069 34.6423 310.27 34.4189C310.475 34.1956 310.769 34.084 311.151 34.084C311.525 34.084 311.817 34.1956 312.026 34.4189C312.236 34.6377 312.341 34.9066 312.341 35.2256C312.341 35.5446 312.234 35.8112 312.02 36.0254C311.81 36.2396 311.521 36.3467 311.151 36.3467C310.778 36.3467 310.486 36.2396 310.276 36.0254C310.071 35.8066 309.969 35.54 309.969 35.2256ZM329.273 42C329.223 41.9089 329.182 41.7995 329.15 41.6719C329.123 41.5397 329.098 41.403 329.075 41.2617C328.961 41.3802 328.831 41.4941 328.686 41.6035C328.544 41.7083 328.385 41.7995 328.207 41.877C328.029 41.959 327.838 42.0228 327.633 42.0684C327.428 42.1139 327.207 42.1367 326.97 42.1367C326.587 42.1367 326.236 42.082 325.917 41.9727C325.603 41.8587 325.334 41.7038 325.11 41.5078C324.882 41.3164 324.705 41.0863 324.577 40.8174C324.454 40.5439 324.393 40.25 324.393 39.9355C324.393 39.5299 324.472 39.1722 324.632 38.8623C324.796 38.5479 325.033 38.2881 325.343 38.083C325.63 37.8916 325.983 37.7458 326.402 37.6455C326.826 37.5452 327.305 37.4951 327.838 37.4951H329.027V36.9961C329.027 36.8047 328.993 36.6315 328.925 36.4766C328.861 36.3216 328.768 36.1872 328.645 36.0732C328.512 35.9593 328.351 35.8727 328.159 35.8135C327.972 35.7497 327.756 35.7178 327.51 35.7178C327.286 35.7178 327.09 35.7451 326.922 35.7998C326.758 35.8545 326.621 35.9297 326.512 36.0254C326.402 36.112 326.32 36.2191 326.266 36.3467C326.215 36.4697 326.19 36.6019 326.19 36.7432H324.55C324.554 36.4469 324.625 36.1621 324.762 35.8887C324.898 35.6152 325.099 35.3737 325.363 35.1641C325.618 34.9499 325.933 34.7812 326.307 34.6582C326.685 34.5306 327.116 34.4668 327.599 34.4668C328.032 34.4668 328.435 34.5215 328.809 34.6309C329.187 34.7357 329.513 34.8929 329.786 35.1025C330.06 35.3122 330.274 35.5788 330.429 35.9023C330.584 36.2214 330.661 36.5905 330.661 37.0098V40.2979C330.661 40.6305 330.684 40.9313 330.729 41.2002C330.78 41.4645 330.85 41.6924 330.941 41.8838V42H329.273ZM327.284 40.8242C327.498 40.8242 327.697 40.7969 327.879 40.7422C328.066 40.6875 328.234 40.6169 328.385 40.5303C328.535 40.4437 328.665 40.3457 328.774 40.2363C328.884 40.127 328.968 40.013 329.027 39.8945V38.5273H327.975C327.619 38.5273 327.312 38.5615 327.052 38.6299C326.792 38.6937 326.585 38.7871 326.43 38.9102C326.293 39.015 326.19 39.1403 326.122 39.2861C326.058 39.432 326.026 39.596 326.026 39.7783C326.026 39.9287 326.054 40.07 326.108 40.2021C326.163 40.3298 326.243 40.4391 326.348 40.5303C326.452 40.6214 326.582 40.6943 326.737 40.749C326.892 40.7992 327.075 40.8242 327.284 40.8242Z" fill="#380037"/>
<rect x="1" y="89" width="272.5" height="72" rx="2" fill="white"/>
<rect x="1" y="89" width="272.5" height="72" rx="2" stroke="#001E2E" stroke-linecap="square" stroke-dasharray="6 6"/>
<rect x="79.25" y="111.5" width="116" height="27" rx="7.5" fill="#FFEBF7"/>
<rect x="79.25" y="111.5" width="116" height="27" rx="7.5" stroke="#FFADF3"/>
<path d="M87.5977 126.247C87.5977 125.687 87.666 125.176 87.8027 124.716C87.9395 124.251 88.1377 123.852 88.3975 123.52C88.6572 123.187 88.9694 122.929 89.334 122.747C89.7031 122.56 90.1178 122.467 90.5781 122.467C90.8516 122.467 91.0999 122.496 91.3232 122.556C91.5465 122.61 91.7493 122.692 91.9316 122.802C92.0501 122.87 92.1618 122.952 92.2666 123.048C92.3714 123.139 92.4694 123.239 92.5605 123.349L92.6289 122.604H94.1123V129.795C94.1123 130.292 94.0303 130.731 93.8662 131.114C93.7067 131.502 93.4811 131.83 93.1895 132.099C92.8932 132.363 92.5378 132.563 92.123 132.7C91.7129 132.841 91.2594 132.912 90.7627 132.912C90.5531 132.912 90.3229 132.889 90.0723 132.844C89.8216 132.798 89.571 132.728 89.3203 132.632C89.0697 132.536 88.8304 132.411 88.6025 132.256C88.3747 132.101 88.1787 131.914 88.0146 131.695L88.7871 130.704C88.9193 130.864 89.0605 131 89.2109 131.114C89.3659 131.233 89.5231 131.328 89.6826 131.401C89.8421 131.474 90.0039 131.527 90.168 131.559C90.332 131.595 90.4984 131.613 90.667 131.613C90.9587 131.613 91.2161 131.572 91.4395 131.49C91.6673 131.408 91.861 131.29 92.0205 131.135C92.1663 130.984 92.278 130.8 92.3555 130.581C92.4375 130.362 92.4785 130.114 92.4785 129.836V129.323C92.3828 129.424 92.2826 129.517 92.1777 129.604C92.0775 129.69 91.9681 129.765 91.8496 129.829C91.6719 129.929 91.4759 130.005 91.2617 130.055C91.0475 130.109 90.8151 130.137 90.5645 130.137C90.1087 130.137 89.6986 130.043 89.334 129.856C88.9694 129.665 88.6572 129.401 88.3975 129.063C88.1423 128.731 87.944 128.337 87.8027 127.881C87.666 127.421 87.5977 126.924 87.5977 126.391V126.247ZM89.2383 126.391C89.2383 126.719 89.2702 127.029 89.334 127.32C89.4023 127.612 89.5094 127.865 89.6553 128.079C89.7965 128.302 89.9766 128.478 90.1953 128.605C90.4141 128.729 90.6738 128.79 90.9746 128.79C91.1615 128.79 91.3301 128.77 91.4805 128.729C91.6354 128.688 91.7744 128.631 91.8975 128.558C92.0205 128.48 92.1299 128.387 92.2256 128.277C92.3213 128.168 92.4056 128.047 92.4785 127.915V124.675C92.4056 124.538 92.3167 124.415 92.2119 124.306C92.1117 124.196 91.9954 124.103 91.8633 124.025C91.7448 123.962 91.6126 123.911 91.4668 123.875C91.321 123.834 91.1615 123.813 90.9883 123.813C90.6829 123.813 90.4209 123.877 90.2021 124.005C89.9834 124.132 89.8034 124.308 89.6621 124.531C89.5163 124.755 89.4092 125.014 89.3408 125.311C89.2725 125.602 89.2383 125.914 89.2383 126.247V126.391ZM101.331 122.467C101.595 122.467 101.851 122.485 102.097 122.521C102.347 122.558 102.543 122.601 102.685 122.651L102.452 124.265C102.201 124.21 101.953 124.169 101.707 124.142C101.465 124.114 101.224 124.101 100.982 124.101C100.709 124.101 100.463 124.128 100.244 124.183C100.025 124.237 99.8317 124.322 99.6631 124.436C99.4808 124.545 99.3258 124.684 99.1982 124.853C99.0706 125.021 98.9635 125.215 98.877 125.434V130H97.2432V122.604H98.7744L98.8428 123.629L98.8496 123.8C99.1504 123.385 99.5104 123.059 99.9297 122.822C100.354 122.585 100.821 122.467 101.331 122.467ZM105.002 122.604H108.926V128.646H111.1V130H105.002V128.646H107.278V123.964H105.002V122.604ZM107.128 120.689C107.128 120.557 107.151 120.437 107.196 120.327C107.242 120.213 107.308 120.115 107.395 120.033C107.477 119.956 107.575 119.896 107.688 119.855C107.807 119.81 107.939 119.787 108.085 119.787C108.331 119.787 108.529 119.851 108.68 119.979C108.835 120.102 108.924 120.261 108.946 120.457C108.978 120.658 108.944 120.833 108.844 120.983C108.743 121.129 108.598 121.227 108.406 121.277C108.311 121.364 108.197 121.421 108.064 121.448C107.932 121.476 107.786 121.464 107.627 121.414C107.463 121.364 107.338 121.275 107.251 121.147C107.169 121.015 107.128 120.863 107.128 120.689ZM112.815 126.247C112.815 125.687 112.882 125.176 113.014 124.716C113.15 124.251 113.346 123.852 113.602 123.52C113.852 123.187 114.158 122.929 114.518 122.747C114.882 122.56 115.292 122.467 115.748 122.467C116.158 122.467 116.516 122.54 116.821 122.686C117.131 122.827 117.405 123.03 117.642 123.294V119.5H119.275V130H117.792L117.717 129.228C117.48 129.519 117.197 129.745 116.869 129.904C116.541 130.059 116.163 130.137 115.734 130.137C115.283 130.137 114.878 130.043 114.518 129.856C114.158 129.665 113.852 129.401 113.602 129.063C113.351 128.731 113.157 128.337 113.021 127.881C112.884 127.421 112.815 126.924 112.815 126.391V126.247ZM114.449 126.391C114.449 126.719 114.481 127.029 114.545 127.32C114.609 127.612 114.709 127.865 114.846 128.079C114.982 128.302 115.158 128.478 115.372 128.605C115.586 128.729 115.844 128.79 116.145 128.79C116.514 128.79 116.819 128.71 117.061 128.551C117.302 128.387 117.496 128.166 117.642 127.888V124.709C117.496 124.436 117.302 124.219 117.061 124.06C116.824 123.896 116.523 123.813 116.158 123.813C115.853 123.813 115.591 123.877 115.372 124.005C115.158 124.132 114.985 124.308 114.853 124.531C114.711 124.755 114.609 125.014 114.545 125.311C114.481 125.602 114.449 125.914 114.449 126.247V126.391ZM127.629 126.288H122.126V124.962H127.629V126.288ZM134.574 130C134.524 129.909 134.483 129.799 134.451 129.672C134.424 129.54 134.399 129.403 134.376 129.262C134.262 129.38 134.132 129.494 133.986 129.604C133.845 129.708 133.686 129.799 133.508 129.877C133.33 129.959 133.139 130.023 132.934 130.068C132.729 130.114 132.507 130.137 132.271 130.137C131.888 130.137 131.537 130.082 131.218 129.973C130.903 129.859 130.634 129.704 130.411 129.508C130.183 129.316 130.006 129.086 129.878 128.817C129.755 128.544 129.693 128.25 129.693 127.936C129.693 127.53 129.773 127.172 129.933 126.862C130.097 126.548 130.334 126.288 130.644 126.083C130.931 125.892 131.284 125.746 131.703 125.646C132.127 125.545 132.605 125.495 133.139 125.495H134.328V124.996C134.328 124.805 134.294 124.632 134.226 124.477C134.162 124.322 134.068 124.187 133.945 124.073C133.813 123.959 133.651 123.873 133.46 123.813C133.273 123.75 133.057 123.718 132.811 123.718C132.587 123.718 132.391 123.745 132.223 123.8C132.059 123.854 131.922 123.93 131.812 124.025C131.703 124.112 131.621 124.219 131.566 124.347C131.516 124.47 131.491 124.602 131.491 124.743H129.851C129.855 124.447 129.926 124.162 130.062 123.889C130.199 123.615 130.4 123.374 130.664 123.164C130.919 122.95 131.234 122.781 131.607 122.658C131.986 122.531 132.416 122.467 132.899 122.467C133.332 122.467 133.736 122.521 134.109 122.631C134.488 122.736 134.813 122.893 135.087 123.103C135.36 123.312 135.575 123.579 135.729 123.902C135.884 124.221 135.962 124.59 135.962 125.01V128.298C135.962 128.631 135.985 128.931 136.03 129.2C136.08 129.465 136.151 129.692 136.242 129.884V130H134.574ZM132.585 128.824C132.799 128.824 132.997 128.797 133.18 128.742C133.367 128.688 133.535 128.617 133.686 128.53C133.836 128.444 133.966 128.346 134.075 128.236C134.185 128.127 134.269 128.013 134.328 127.895V126.527H133.275C132.92 126.527 132.612 126.562 132.353 126.63C132.093 126.694 131.885 126.787 131.73 126.91C131.594 127.015 131.491 127.14 131.423 127.286C131.359 127.432 131.327 127.596 131.327 127.778C131.327 127.929 131.354 128.07 131.409 128.202C131.464 128.33 131.544 128.439 131.648 128.53C131.753 128.621 131.883 128.694 132.038 128.749C132.193 128.799 132.375 128.824 132.585 128.824ZM143.372 122.467C143.636 122.467 143.892 122.485 144.138 122.521C144.388 122.558 144.584 122.601 144.726 122.651L144.493 124.265C144.243 124.21 143.994 124.169 143.748 124.142C143.507 124.114 143.265 124.101 143.023 124.101C142.75 124.101 142.504 124.128 142.285 124.183C142.066 124.237 141.873 124.322 141.704 124.436C141.522 124.545 141.367 124.684 141.239 124.853C141.112 125.021 141.005 125.215 140.918 125.434V130H139.284V122.604H140.815L140.884 123.629L140.891 123.8C141.191 123.385 141.551 123.059 141.971 122.822C142.395 122.585 142.862 122.467 143.372 122.467ZM150.119 130.137C149.572 130.137 149.071 130.046 148.615 129.863C148.164 129.681 147.777 129.428 147.453 129.104C147.13 128.785 146.879 128.41 146.701 127.977C146.528 127.539 146.441 127.067 146.441 126.562V126.281C146.441 125.702 146.533 125.178 146.715 124.709C146.897 124.24 147.148 123.839 147.467 123.506C147.786 123.173 148.155 122.918 148.574 122.74C148.998 122.558 149.449 122.467 149.928 122.467C150.461 122.467 150.933 122.558 151.343 122.74C151.753 122.918 152.097 123.166 152.375 123.485C152.653 123.809 152.863 124.194 153.004 124.641C153.145 125.087 153.216 125.575 153.216 126.104V126.808H148.089V126.842C148.139 127.165 148.216 127.437 148.321 127.655C148.426 127.874 148.57 128.07 148.752 128.243C148.934 128.425 149.148 128.567 149.395 128.667C149.645 128.767 149.919 128.817 150.215 128.817C150.62 128.817 150.999 128.74 151.35 128.585C151.701 128.425 151.99 128.2 152.218 127.908L153.093 128.756C152.847 129.111 152.468 129.43 151.958 129.713C151.452 129.995 150.839 130.137 150.119 130.137ZM149.921 123.793C149.688 123.793 149.472 123.836 149.271 123.923C149.076 124.005 148.9 124.123 148.745 124.278C148.59 124.438 148.46 124.629 148.355 124.853C148.251 125.076 148.173 125.329 148.123 125.611H151.603V125.502C151.603 125.288 151.564 125.076 151.486 124.866C151.409 124.652 151.299 124.465 151.158 124.306C151.021 124.151 150.848 124.028 150.639 123.937C150.434 123.841 150.194 123.793 149.921 123.793ZM159.799 130C159.749 129.909 159.708 129.799 159.676 129.672C159.648 129.54 159.623 129.403 159.601 129.262C159.487 129.38 159.357 129.494 159.211 129.604C159.07 129.708 158.91 129.799 158.732 129.877C158.555 129.959 158.363 130.023 158.158 130.068C157.953 130.114 157.732 130.137 157.495 130.137C157.112 130.137 156.761 130.082 156.442 129.973C156.128 129.859 155.859 129.704 155.636 129.508C155.408 129.316 155.23 129.086 155.103 128.817C154.979 128.544 154.918 128.25 154.918 127.936C154.918 127.53 154.998 127.172 155.157 126.862C155.321 126.548 155.558 126.288 155.868 126.083C156.155 125.892 156.508 125.746 156.928 125.646C157.352 125.545 157.83 125.495 158.363 125.495H159.553V124.996C159.553 124.805 159.519 124.632 159.45 124.477C159.386 124.322 159.293 124.187 159.17 124.073C159.038 123.959 158.876 123.873 158.685 123.813C158.498 123.75 158.281 123.718 158.035 123.718C157.812 123.718 157.616 123.745 157.447 123.8C157.283 123.854 157.146 123.93 157.037 124.025C156.928 124.112 156.846 124.219 156.791 124.347C156.741 124.47 156.716 124.602 156.716 124.743H155.075C155.08 124.447 155.15 124.162 155.287 123.889C155.424 123.615 155.624 123.374 155.889 123.164C156.144 122.95 156.458 122.781 156.832 122.658C157.21 122.531 157.641 122.467 158.124 122.467C158.557 122.467 158.96 122.521 159.334 122.631C159.712 122.736 160.038 122.893 160.312 123.103C160.585 123.312 160.799 123.579 160.954 123.902C161.109 124.221 161.187 124.59 161.187 125.01V128.298C161.187 128.631 161.209 128.931 161.255 129.2C161.305 129.465 161.376 129.692 161.467 129.884V130H159.799ZM157.81 128.824C158.024 128.824 158.222 128.797 158.404 128.742C158.591 128.688 158.76 128.617 158.91 128.53C159.061 128.444 159.19 128.346 159.3 128.236C159.409 128.127 159.493 128.013 159.553 127.895V126.527H158.5C158.145 126.527 157.837 126.562 157.577 126.63C157.317 126.694 157.11 126.787 156.955 126.91C156.818 127.015 156.716 127.14 156.647 127.286C156.584 127.432 156.552 127.596 156.552 127.778C156.552 127.929 156.579 128.07 156.634 128.202C156.688 128.33 156.768 128.439 156.873 128.53C156.978 128.621 157.108 128.694 157.263 128.749C157.418 128.799 157.6 128.824 157.81 128.824ZM165.719 129.016C165.719 128.701 165.819 128.432 166.02 128.209C166.225 127.986 166.519 127.874 166.901 127.874C167.275 127.874 167.567 127.986 167.776 128.209C167.986 128.428 168.091 128.697 168.091 129.016C168.091 129.335 167.984 129.601 167.77 129.815C167.56 130.03 167.271 130.137 166.901 130.137C166.528 130.137 166.236 130.03 166.026 129.815C165.821 129.597 165.719 129.33 165.719 129.016ZM165.719 123.226C165.719 122.911 165.819 122.642 166.02 122.419C166.225 122.196 166.519 122.084 166.901 122.084C167.275 122.084 167.567 122.196 167.776 122.419C167.986 122.638 168.091 122.907 168.091 123.226C168.091 123.545 167.984 123.811 167.77 124.025C167.56 124.24 167.271 124.347 166.901 124.347C166.528 124.347 166.236 124.24 166.026 124.025C165.821 123.807 165.719 123.54 165.719 123.226ZM186.801 126.377C186.801 126.719 186.776 127.045 186.726 127.354C186.675 127.664 186.603 127.951 186.507 128.216C186.397 128.53 186.252 128.815 186.069 129.07C185.887 129.326 185.668 129.537 185.413 129.706C185.208 129.843 184.978 129.948 184.723 130.021C184.472 130.098 184.199 130.137 183.902 130.137C183.602 130.137 183.328 130.1 183.082 130.027C182.836 129.954 182.615 129.847 182.419 129.706C182.319 129.633 182.223 129.556 182.132 129.474C182.045 129.387 181.961 129.294 181.879 129.193L181.804 130H180.327V119.5H181.961V123.328C182.057 123.21 182.161 123.103 182.275 123.007C182.389 122.911 182.512 122.827 182.645 122.754C182.818 122.658 183.007 122.588 183.212 122.542C183.422 122.492 183.647 122.467 183.889 122.467C184.208 122.467 184.499 122.51 184.764 122.597C185.033 122.679 185.274 122.797 185.488 122.952C185.671 123.08 185.832 123.237 185.974 123.424C186.119 123.606 186.247 123.807 186.356 124.025C186.502 124.331 186.612 124.67 186.685 125.044C186.762 125.418 186.801 125.814 186.801 126.233V126.377ZM185.167 126.233C185.167 126.024 185.153 125.821 185.126 125.625C185.103 125.424 185.069 125.238 185.023 125.064C184.96 124.855 184.875 124.666 184.771 124.497C184.67 124.324 184.534 124.178 184.36 124.06C184.246 123.978 184.117 123.916 183.971 123.875C183.825 123.834 183.661 123.813 183.479 123.813C183.255 123.813 183.055 123.845 182.877 123.909C182.699 123.968 182.544 124.055 182.412 124.169C182.316 124.246 182.23 124.338 182.152 124.442C182.079 124.543 182.016 124.652 181.961 124.771V127.833C182.025 127.97 182.1 128.095 182.187 128.209C182.278 128.318 182.38 128.416 182.494 128.503C182.622 128.594 182.768 128.667 182.932 128.722C183.1 128.772 183.287 128.797 183.492 128.797C183.679 128.797 183.848 128.774 183.998 128.729C184.148 128.678 184.283 128.612 184.401 128.53C184.561 128.416 184.691 128.273 184.791 128.1C184.896 127.922 184.976 127.724 185.03 127.505C185.076 127.341 185.11 127.163 185.133 126.972C185.156 126.78 185.167 126.582 185.167 126.377V126.233Z" fill="#380037"/>
<rect x="289.5" y="89" width="272.5" height="72" rx="2" fill="white"/>
<rect x="289.5" y="89" width="272.5" height="72" rx="2" stroke="#001E2E" stroke-linecap="square" stroke-dasharray="6 6"/>
<rect x="367.75" y="111.5" width="116" height="27" rx="7.5" fill="#FFEBF7"/>
<rect x="367.75" y="111.5" width="116" height="27" rx="7.5" stroke="#FFADF3"/>
<path d="M376.098 126.247C376.098 125.687 376.166 125.176 376.303 124.716C376.439 124.251 376.638 123.852 376.897 123.52C377.157 123.187 377.469 122.929 377.834 122.747C378.203 122.56 378.618 122.467 379.078 122.467C379.352 122.467 379.6 122.496 379.823 122.556C380.047 122.61 380.249 122.692 380.432 122.802C380.55 122.87 380.662 122.952 380.767 123.048C380.871 123.139 380.969 123.239 381.061 123.349L381.129 122.604H382.612V129.795C382.612 130.292 382.53 130.731 382.366 131.114C382.207 131.502 381.981 131.83 381.689 132.099C381.393 132.363 381.038 132.563 380.623 132.7C380.213 132.841 379.759 132.912 379.263 132.912C379.053 132.912 378.823 132.889 378.572 132.844C378.322 132.798 378.071 132.728 377.82 132.632C377.57 132.536 377.33 132.411 377.103 132.256C376.875 132.101 376.679 131.914 376.515 131.695L377.287 130.704C377.419 130.864 377.561 131 377.711 131.114C377.866 131.233 378.023 131.328 378.183 131.401C378.342 131.474 378.504 131.527 378.668 131.559C378.832 131.595 378.998 131.613 379.167 131.613C379.459 131.613 379.716 131.572 379.939 131.49C380.167 131.408 380.361 131.29 380.521 131.135C380.666 130.984 380.778 130.8 380.855 130.581C380.938 130.362 380.979 130.114 380.979 129.836V129.323C380.883 129.424 380.783 129.517 380.678 129.604C380.577 129.69 380.468 129.765 380.35 129.829C380.172 129.929 379.976 130.005 379.762 130.055C379.548 130.109 379.315 130.137 379.064 130.137C378.609 130.137 378.199 130.043 377.834 129.856C377.469 129.665 377.157 129.401 376.897 129.063C376.642 128.731 376.444 128.337 376.303 127.881C376.166 127.421 376.098 126.924 376.098 126.391V126.247ZM377.738 126.391C377.738 126.719 377.77 127.029 377.834 127.32C377.902 127.612 378.009 127.865 378.155 128.079C378.297 128.302 378.477 128.478 378.695 128.605C378.914 128.729 379.174 128.79 379.475 128.79C379.661 128.79 379.83 128.77 379.98 128.729C380.135 128.688 380.274 128.631 380.397 128.558C380.521 128.48 380.63 128.387 380.726 128.277C380.821 128.168 380.906 128.047 380.979 127.915V124.675C380.906 124.538 380.817 124.415 380.712 124.306C380.612 124.196 380.495 124.103 380.363 124.025C380.245 123.962 380.113 123.911 379.967 123.875C379.821 123.834 379.661 123.813 379.488 123.813C379.183 123.813 378.921 123.877 378.702 124.005C378.483 124.132 378.303 124.308 378.162 124.531C378.016 124.755 377.909 125.014 377.841 125.311C377.772 125.602 377.738 125.914 377.738 126.247V126.391ZM389.831 122.467C390.095 122.467 390.351 122.485 390.597 122.521C390.847 122.558 391.043 122.601 391.185 122.651L390.952 124.265C390.701 124.21 390.453 124.169 390.207 124.142C389.965 124.114 389.724 124.101 389.482 124.101C389.209 124.101 388.963 124.128 388.744 124.183C388.525 124.237 388.332 124.322 388.163 124.436C387.981 124.545 387.826 124.684 387.698 124.853C387.571 125.021 387.464 125.215 387.377 125.434V130H385.743V122.604H387.274L387.343 123.629L387.35 123.8C387.65 123.385 388.01 123.059 388.43 122.822C388.854 122.585 389.321 122.467 389.831 122.467ZM393.502 122.604H397.426V128.646H399.6V130H393.502V128.646H395.778V123.964H393.502V122.604ZM395.628 120.689C395.628 120.557 395.651 120.437 395.696 120.327C395.742 120.213 395.808 120.115 395.895 120.033C395.977 119.956 396.075 119.896 396.188 119.855C396.307 119.81 396.439 119.787 396.585 119.787C396.831 119.787 397.029 119.851 397.18 119.979C397.335 120.102 397.424 120.261 397.446 120.457C397.478 120.658 397.444 120.833 397.344 120.983C397.243 121.129 397.098 121.227 396.906 121.277C396.811 121.364 396.697 121.421 396.564 121.448C396.432 121.476 396.286 121.464 396.127 121.414C395.963 121.364 395.838 121.275 395.751 121.147C395.669 121.015 395.628 120.863 395.628 120.689ZM401.315 126.247C401.315 125.687 401.382 125.176 401.514 124.716C401.65 124.251 401.846 123.852 402.102 123.52C402.352 123.187 402.658 122.929 403.018 122.747C403.382 122.56 403.792 122.467 404.248 122.467C404.658 122.467 405.016 122.54 405.321 122.686C405.631 122.827 405.905 123.03 406.142 123.294V119.5H407.775V130H406.292L406.217 129.228C405.98 129.519 405.697 129.745 405.369 129.904C405.041 130.059 404.663 130.137 404.234 130.137C403.783 130.137 403.378 130.043 403.018 129.856C402.658 129.665 402.352 129.401 402.102 129.063C401.851 128.731 401.657 128.337 401.521 127.881C401.384 127.421 401.315 126.924 401.315 126.391V126.247ZM402.949 126.391C402.949 126.719 402.981 127.029 403.045 127.32C403.109 127.612 403.209 127.865 403.346 128.079C403.482 128.302 403.658 128.478 403.872 128.605C404.086 128.729 404.344 128.79 404.645 128.79C405.014 128.79 405.319 128.71 405.561 128.551C405.802 128.387 405.996 128.166 406.142 127.888V124.709C405.996 124.436 405.802 124.219 405.561 124.06C405.324 123.896 405.023 123.813 404.658 123.813C404.353 123.813 404.091 123.877 403.872 124.005C403.658 124.132 403.485 124.308 403.353 124.531C403.211 124.755 403.109 125.014 403.045 125.311C402.981 125.602 402.949 125.914 402.949 126.247V126.391ZM416.129 126.288H410.626V124.962H416.129V126.288ZM423.074 130C423.024 129.909 422.983 129.799 422.951 129.672C422.924 129.54 422.899 129.403 422.876 129.262C422.762 129.38 422.632 129.494 422.486 129.604C422.345 129.708 422.186 129.799 422.008 129.877C421.83 129.959 421.639 130.023 421.434 130.068C421.229 130.114 421.007 130.137 420.771 130.137C420.388 130.137 420.037 130.082 419.718 129.973C419.403 129.859 419.134 129.704 418.911 129.508C418.683 129.316 418.506 129.086 418.378 128.817C418.255 128.544 418.193 128.25 418.193 127.936C418.193 127.53 418.273 127.172 418.433 126.862C418.597 126.548 418.834 126.288 419.144 126.083C419.431 125.892 419.784 125.746 420.203 125.646C420.627 125.545 421.105 125.495 421.639 125.495H422.828V124.996C422.828 124.805 422.794 124.632 422.726 124.477C422.662 124.322 422.568 124.187 422.445 124.073C422.313 123.959 422.151 123.873 421.96 123.813C421.773 123.75 421.557 123.718 421.311 123.718C421.087 123.718 420.891 123.745 420.723 123.8C420.559 123.854 420.422 123.93 420.312 124.025C420.203 124.112 420.121 124.219 420.066 124.347C420.016 124.47 419.991 124.602 419.991 124.743H418.351C418.355 124.447 418.426 124.162 418.562 123.889C418.699 123.615 418.9 123.374 419.164 123.164C419.419 122.95 419.734 122.781 420.107 122.658C420.486 122.531 420.916 122.467 421.399 122.467C421.832 122.467 422.236 122.521 422.609 122.631C422.988 122.736 423.313 122.893 423.587 123.103C423.86 123.312 424.075 123.579 424.229 123.902C424.384 124.221 424.462 124.59 424.462 125.01V128.298C424.462 128.631 424.485 128.931 424.53 129.2C424.58 129.465 424.651 129.692 424.742 129.884V130H423.074ZM421.085 128.824C421.299 128.824 421.497 128.797 421.68 128.742C421.867 128.688 422.035 128.617 422.186 128.53C422.336 128.444 422.466 128.346 422.575 128.236C422.685 128.127 422.769 128.013 422.828 127.895V126.527H421.775C421.42 126.527 421.112 126.562 420.853 126.63C420.593 126.694 420.385 126.787 420.23 126.91C420.094 127.015 419.991 127.14 419.923 127.286C419.859 127.432 419.827 127.596 419.827 127.778C419.827 127.929 419.854 128.07 419.909 128.202C419.964 128.33 420.044 128.439 420.148 128.53C420.253 128.621 420.383 128.694 420.538 128.749C420.693 128.799 420.875 128.824 421.085 128.824ZM431.872 122.467C432.136 122.467 432.392 122.485 432.638 122.521C432.888 122.558 433.084 122.601 433.226 122.651L432.993 124.265C432.743 124.21 432.494 124.169 432.248 124.142C432.007 124.114 431.765 124.101 431.523 124.101C431.25 124.101 431.004 124.128 430.785 124.183C430.566 124.237 430.373 124.322 430.204 124.436C430.022 124.545 429.867 124.684 429.739 124.853C429.612 125.021 429.505 125.215 429.418 125.434V130H427.784V122.604H429.315L429.384 123.629L429.391 123.8C429.691 123.385 430.051 123.059 430.471 122.822C430.895 122.585 431.362 122.467 431.872 122.467ZM438.619 130.137C438.072 130.137 437.571 130.046 437.115 129.863C436.664 129.681 436.277 129.428 435.953 129.104C435.63 128.785 435.379 128.41 435.201 127.977C435.028 127.539 434.941 127.067 434.941 126.562V126.281C434.941 125.702 435.033 125.178 435.215 124.709C435.397 124.24 435.648 123.839 435.967 123.506C436.286 123.173 436.655 122.918 437.074 122.74C437.498 122.558 437.949 122.467 438.428 122.467C438.961 122.467 439.433 122.558 439.843 122.74C440.253 122.918 440.597 123.166 440.875 123.485C441.153 123.809 441.363 124.194 441.504 124.641C441.645 125.087 441.716 125.575 441.716 126.104V126.808H436.589V126.842C436.639 127.165 436.716 127.437 436.821 127.655C436.926 127.874 437.07 128.07 437.252 128.243C437.434 128.425 437.648 128.567 437.895 128.667C438.145 128.767 438.419 128.817 438.715 128.817C439.12 128.817 439.499 128.74 439.85 128.585C440.201 128.425 440.49 128.2 440.718 127.908L441.593 128.756C441.347 129.111 440.968 129.43 440.458 129.713C439.952 129.995 439.339 130.137 438.619 130.137ZM438.421 123.793C438.188 123.793 437.972 123.836 437.771 123.923C437.576 124.005 437.4 124.123 437.245 124.278C437.09 124.438 436.96 124.629 436.855 124.853C436.751 125.076 436.673 125.329 436.623 125.611H440.103V125.502C440.103 125.288 440.064 125.076 439.986 124.866C439.909 124.652 439.799 124.465 439.658 124.306C439.521 124.151 439.348 124.028 439.139 123.937C438.934 123.841 438.694 123.793 438.421 123.793ZM448.299 130C448.249 129.909 448.208 129.799 448.176 129.672C448.148 129.54 448.123 129.403 448.101 129.262C447.987 129.38 447.857 129.494 447.711 129.604C447.57 129.708 447.41 129.799 447.232 129.877C447.055 129.959 446.863 130.023 446.658 130.068C446.453 130.114 446.232 130.137 445.995 130.137C445.612 130.137 445.261 130.082 444.942 129.973C444.628 129.859 444.359 129.704 444.136 129.508C443.908 129.316 443.73 129.086 443.603 128.817C443.479 128.544 443.418 128.25 443.418 127.936C443.418 127.53 443.498 127.172 443.657 126.862C443.821 126.548 444.058 126.288 444.368 126.083C444.655 125.892 445.008 125.746 445.428 125.646C445.852 125.545 446.33 125.495 446.863 125.495H448.053V124.996C448.053 124.805 448.019 124.632 447.95 124.477C447.886 124.322 447.793 124.187 447.67 124.073C447.538 123.959 447.376 123.873 447.185 123.813C446.998 123.75 446.781 123.718 446.535 123.718C446.312 123.718 446.116 123.745 445.947 123.8C445.783 123.854 445.646 123.93 445.537 124.025C445.428 124.112 445.346 124.219 445.291 124.347C445.241 124.47 445.216 124.602 445.216 124.743H443.575C443.58 124.447 443.65 124.162 443.787 123.889C443.924 123.615 444.124 123.374 444.389 123.164C444.644 122.95 444.958 122.781 445.332 122.658C445.71 122.531 446.141 122.467 446.624 122.467C447.057 122.467 447.46 122.521 447.834 122.631C448.212 122.736 448.538 122.893 448.812 123.103C449.085 123.312 449.299 123.579 449.454 123.902C449.609 124.221 449.687 124.59 449.687 125.01V128.298C449.687 128.631 449.709 128.931 449.755 129.2C449.805 129.465 449.876 129.692 449.967 129.884V130H448.299ZM446.31 128.824C446.524 128.824 446.722 128.797 446.904 128.742C447.091 128.688 447.26 128.617 447.41 128.53C447.561 128.444 447.69 128.346 447.8 128.236C447.909 128.127 447.993 128.013 448.053 127.895V126.527H447C446.645 126.527 446.337 126.562 446.077 126.63C445.817 126.694 445.61 126.787 445.455 126.91C445.318 127.015 445.216 127.14 445.147 127.286C445.084 127.432 445.052 127.596 445.052 127.778C445.052 127.929 445.079 128.07 445.134 128.202C445.188 128.33 445.268 128.439 445.373 128.53C445.478 128.621 445.608 128.694 445.763 128.749C445.918 128.799 446.1 128.824 446.31 128.824ZM454.219 129.016C454.219 128.701 454.319 128.432 454.52 128.209C454.725 127.986 455.019 127.874 455.401 127.874C455.775 127.874 456.067 127.986 456.276 128.209C456.486 128.428 456.591 128.697 456.591 129.016C456.591 129.335 456.484 129.601 456.27 129.815C456.06 130.03 455.771 130.137 455.401 130.137C455.028 130.137 454.736 130.03 454.526 129.815C454.321 129.597 454.219 129.33 454.219 129.016ZM454.219 123.226C454.219 122.911 454.319 122.642 454.52 122.419C454.725 122.196 455.019 122.084 455.401 122.084C455.775 122.084 456.067 122.196 456.276 122.419C456.486 122.638 456.591 122.907 456.591 123.226C456.591 123.545 456.484 123.811 456.27 124.025C456.06 124.24 455.771 124.347 455.401 124.347C455.028 124.347 454.736 124.24 454.526 124.025C454.321 123.807 454.219 123.54 454.219 123.226ZM472.02 128.824C472.225 128.824 472.421 128.795 472.607 128.735C472.799 128.672 472.967 128.583 473.113 128.469C473.255 128.355 473.366 128.22 473.448 128.065C473.535 127.91 473.578 127.74 473.578 127.553H475.116C475.121 127.913 475.039 128.252 474.87 128.571C474.706 128.886 474.483 129.157 474.2 129.385C473.913 129.622 473.583 129.809 473.209 129.945C472.84 130.077 472.45 130.144 472.04 130.144C471.47 130.144 470.971 130.046 470.543 129.85C470.119 129.649 469.766 129.38 469.483 129.043C469.196 128.706 468.98 128.314 468.834 127.867C468.688 127.416 468.615 126.935 468.615 126.425V126.186C468.615 125.68 468.686 125.201 468.827 124.75C468.973 124.299 469.189 123.905 469.477 123.567C469.764 123.23 470.119 122.964 470.543 122.768C470.971 122.567 471.468 122.467 472.033 122.467C472.48 122.467 472.892 122.535 473.271 122.672C473.653 122.809 473.981 123 474.255 123.246C474.528 123.492 474.74 123.786 474.891 124.128C475.046 124.47 475.121 124.846 475.116 125.256H473.578C473.578 125.055 473.539 124.866 473.462 124.688C473.389 124.511 473.284 124.356 473.147 124.224C473.006 124.091 472.838 123.987 472.642 123.909C472.45 123.832 472.243 123.793 472.02 123.793C471.678 123.793 471.393 123.864 471.165 124.005C470.942 124.142 470.764 124.322 470.632 124.545C470.491 124.768 470.39 125.023 470.331 125.311C470.276 125.598 470.249 125.889 470.249 126.186V126.425C470.249 126.726 470.276 127.022 470.331 127.313C470.39 127.601 470.488 127.854 470.625 128.072C470.757 128.3 470.937 128.482 471.165 128.619C471.393 128.756 471.678 128.824 472.02 128.824Z" fill="#380037"/>
</svg>
