<svg width="563" height="274" viewBox="0 0 563 274" fill="none" xmlns="http://www.w3.org/2000/svg">
<g clip-path="url(#clip0_7795_9294)">
<rect x="1" y="1" width="561" height="272" rx="2" fill="#C8E6FF"/>
<rect width="176" height="128" transform="translate(1 1)" fill="#87CEFF"/>
<rect x="41.5" y="29.5" width="95" height="71" rx="1.5" fill="white"/>
<rect x="41.5" y="29.5" width="95" height="71" rx="1.5" stroke="#001E2E" stroke-linecap="square" stroke-dasharray="6 6"/>
<path d="M74.8182 58.8636V70.5H73.4091V58.8636H74.8182ZM81.2571 61.7727V62.9091H76.7344V61.7727H81.2571ZM78.0526 59.6818H79.3935V68C79.3935 68.3788 79.4484 68.6629 79.5582 68.8523C79.6719 69.0379 79.8158 69.1629 79.9901 69.2273C80.1681 69.2879 80.3556 69.3182 80.5526 69.3182C80.7003 69.3182 80.8215 69.3106 80.9162 69.2955C81.0109 69.2765 81.0866 69.2614 81.1435 69.25L81.4162 70.4545C81.3253 70.4886 81.1984 70.5227 81.0355 70.5568C80.8726 70.5947 80.6662 70.6136 80.4162 70.6136C80.0374 70.6136 79.6662 70.5322 79.3026 70.3693C78.9427 70.2064 78.6435 69.9583 78.4048 69.625C78.17 69.2917 78.0526 68.8712 78.0526 68.3636V59.6818ZM86.8395 70.6818C85.9986 70.6818 85.2732 70.4962 84.6634 70.125C84.0573 69.75 83.5895 69.2273 83.2599 68.5568C82.9342 67.8826 82.7713 67.0985 82.7713 66.2045C82.7713 65.3106 82.9342 64.5227 83.2599 63.8409C83.5895 63.1553 84.0478 62.6212 84.6349 62.2386C85.2259 61.8523 85.9152 61.6591 86.7031 61.6591C87.1577 61.6591 87.6065 61.7348 88.0497 61.8864C88.4929 62.0379 88.8963 62.2841 89.2599 62.625C89.6236 62.9621 89.9134 63.4091 90.1293 63.9659C90.3452 64.5227 90.4531 65.2083 90.4531 66.0227V66.5909H83.7259V65.4318H89.0895C89.0895 64.9394 88.991 64.5 88.794 64.1136C88.6009 63.7273 88.3243 63.4223 87.9645 63.1989C87.6084 62.9754 87.188 62.8636 86.7031 62.8636C86.169 62.8636 85.7069 62.9962 85.3168 63.2614C84.9304 63.5227 84.633 63.8636 84.4247 64.2841C84.2164 64.7045 84.1122 65.1553 84.1122 65.6364V66.4091C84.1122 67.0682 84.2259 67.6269 84.4531 68.0852C84.6842 68.5398 85.0043 68.8864 85.4134 69.125C85.8224 69.3598 86.2978 69.4773 86.8395 69.4773C87.1918 69.4773 87.5099 69.428 87.794 69.3295C88.0819 69.2273 88.33 69.0758 88.5384 68.875C88.7467 68.6705 88.9077 68.4167 89.0213 68.1136L90.3168 68.4773C90.1804 68.9167 89.9512 69.303 89.6293 69.6364C89.3073 69.9659 88.9096 70.2235 88.4361 70.4091C87.9626 70.5909 87.4304 70.6818 86.8395 70.6818ZM92.4929 70.5V61.7727H93.7884V63.1364H93.902C94.0838 62.6705 94.3774 62.3087 94.7827 62.0511C95.188 61.7898 95.6747 61.6591 96.2429 61.6591C96.8187 61.6591 97.2978 61.7898 97.6804 62.0511C98.0668 62.3087 98.3679 62.6705 98.5838 63.1364H98.6747C98.8982 62.6856 99.2334 62.3277 99.6804 62.0625C100.127 61.7936 100.663 61.6591 101.288 61.6591C102.069 61.6591 102.707 61.9034 103.203 62.392C103.699 62.8769 103.947 63.6326 103.947 64.6591V70.5H102.607V64.6591C102.607 64.0152 102.43 63.5549 102.078 63.2784C101.726 63.0019 101.311 62.8636 100.834 62.8636C100.22 62.8636 99.7448 63.0492 99.4077 63.4205C99.0705 63.7879 98.902 64.2538 98.902 64.8182V70.5H97.5384V64.5227C97.5384 64.0265 97.3774 63.6269 97.0554 63.3239C96.7334 63.017 96.3187 62.8636 95.8111 62.8636C95.4626 62.8636 95.1368 62.9564 94.8338 63.142C94.5346 63.3277 94.2921 63.5852 94.1065 63.9148C93.9247 64.2405 93.8338 64.6174 93.8338 65.0455V70.5H92.4929Z" fill="#0B1D28"/>
<rect width="176.333" height="128" transform="translate(193.333 1)" fill="#87CEFF"/>
<rect x="246" y="1.5" width="71" height="127" rx="1.5" fill="white"/>
<rect x="246" y="1.5" width="71" height="127" rx="1.5" stroke="#001E2E" stroke-linecap="square" stroke-dasharray="6 6"/>
<path d="M267.318 58.8636V70.5H265.909V58.8636H267.318ZM273.757 61.7727V62.9091H269.234V61.7727H273.757ZM270.553 59.6818H271.893V68C271.893 68.3788 271.948 68.6629 272.058 68.8523C272.172 69.0379 272.316 69.1629 272.49 69.2273C272.668 69.2879 272.856 69.3182 273.053 69.3182C273.2 69.3182 273.321 69.3106 273.416 69.2955C273.511 69.2765 273.587 69.2614 273.643 69.25L273.916 70.4545C273.825 70.4886 273.698 70.5227 273.536 70.5568C273.373 70.5947 273.166 70.6136 272.916 70.6136C272.537 70.6136 272.166 70.5322 271.803 70.3693C271.443 70.2064 271.143 69.9583 270.905 69.625C270.67 69.2917 270.553 68.8712 270.553 68.3636V59.6818ZM279.339 70.6818C278.499 70.6818 277.773 70.4962 277.163 70.125C276.557 69.75 276.089 69.2273 275.76 68.5568C275.434 67.8826 275.271 67.0985 275.271 66.2045C275.271 65.3106 275.434 64.5227 275.76 63.8409C276.089 63.1553 276.548 62.6212 277.135 62.2386C277.726 61.8523 278.415 61.6591 279.203 61.6591C279.658 61.6591 280.107 61.7348 280.55 61.8864C280.993 62.0379 281.396 62.2841 281.76 62.625C282.124 62.9621 282.413 63.4091 282.629 63.9659C282.845 64.5227 282.953 65.2083 282.953 66.0227V66.5909H276.226V65.4318H281.589C281.589 64.9394 281.491 64.5 281.294 64.1136C281.101 63.7273 280.824 63.4223 280.464 63.1989C280.108 62.9754 279.688 62.8636 279.203 62.8636C278.669 62.8636 278.207 62.9962 277.817 63.2614C277.43 63.5227 277.133 63.8636 276.925 64.2841C276.716 64.7045 276.612 65.1553 276.612 65.6364V66.4091C276.612 67.0682 276.726 67.6269 276.953 68.0852C277.184 68.5398 277.504 68.8864 277.913 69.125C278.322 69.3598 278.798 69.4773 279.339 69.4773C279.692 69.4773 280.01 69.428 280.294 69.3295C280.582 69.2273 280.83 69.0758 281.038 68.875C281.247 68.6705 281.408 68.4167 281.521 68.1136L282.817 68.4773C282.68 68.9167 282.451 69.303 282.129 69.6364C281.807 69.9659 281.41 70.2235 280.936 70.4091C280.463 70.5909 279.93 70.6818 279.339 70.6818ZM284.993 70.5V61.7727H286.288V63.1364H286.402C286.584 62.6705 286.877 62.3087 287.283 62.0511C287.688 61.7898 288.175 61.6591 288.743 61.6591C289.319 61.6591 289.798 61.7898 290.18 62.0511C290.567 62.3087 290.868 62.6705 291.084 63.1364H291.175C291.398 62.6856 291.733 62.3277 292.18 62.0625C292.627 61.7936 293.163 61.6591 293.788 61.6591C294.569 61.6591 295.207 61.9034 295.703 62.392C296.199 62.8769 296.447 63.6326 296.447 64.6591V70.5H295.107V64.6591C295.107 64.0152 294.93 63.5549 294.578 63.2784C294.226 63.0019 293.811 62.8636 293.334 62.8636C292.72 62.8636 292.245 63.0492 291.908 63.4205C291.571 63.7879 291.402 64.2538 291.402 64.8182V70.5H290.038V64.5227C290.038 64.0265 289.877 63.6269 289.555 63.3239C289.233 63.017 288.819 62.8636 288.311 62.8636C287.963 62.8636 287.637 62.9564 287.334 63.142C287.035 63.3277 286.792 63.5852 286.607 63.9148C286.425 64.2405 286.334 64.6174 286.334 65.0455V70.5H284.993Z" fill="#0B1D28"/>
<rect width="176" height="128" transform="translate(386 1)" fill="#87CEFF"/>
<rect x="402.5" y="29.5" width="143" height="71" rx="1.5" fill="white"/>
<rect x="402.5" y="29.5" width="143" height="71" rx="1.5" stroke="#001E2E" stroke-linecap="square" stroke-dasharray="6 6"/>
<path d="M459.818 58.8636V70.5H458.409V58.8636H459.818ZM466.257 61.7727V62.9091H461.734V61.7727H466.257ZM463.053 59.6818H464.393V68C464.393 68.3788 464.448 68.6629 464.558 68.8523C464.672 69.0379 464.816 69.1629 464.99 69.2273C465.168 69.2879 465.356 69.3182 465.553 69.3182C465.7 69.3182 465.821 69.3106 465.916 69.2955C466.011 69.2765 466.087 69.2614 466.143 69.25L466.416 70.4545C466.325 70.4886 466.198 70.5227 466.036 70.5568C465.873 70.5947 465.666 70.6136 465.416 70.6136C465.037 70.6136 464.666 70.5322 464.303 70.3693C463.943 70.2064 463.643 69.9583 463.405 69.625C463.17 69.2917 463.053 68.8712 463.053 68.3636V59.6818ZM471.839 70.6818C470.999 70.6818 470.273 70.4962 469.663 70.125C469.057 69.75 468.589 69.2273 468.26 68.5568C467.934 67.8826 467.771 67.0985 467.771 66.2045C467.771 65.3106 467.934 64.5227 468.26 63.8409C468.589 63.1553 469.048 62.6212 469.635 62.2386C470.226 61.8523 470.915 61.6591 471.703 61.6591C472.158 61.6591 472.607 61.7348 473.05 61.8864C473.493 62.0379 473.896 62.2841 474.26 62.625C474.624 62.9621 474.913 63.4091 475.129 63.9659C475.345 64.5227 475.453 65.2083 475.453 66.0227V66.5909H468.726V65.4318H474.089C474.089 64.9394 473.991 64.5 473.794 64.1136C473.601 63.7273 473.324 63.4223 472.964 63.1989C472.608 62.9754 472.188 62.8636 471.703 62.8636C471.169 62.8636 470.707 62.9962 470.317 63.2614C469.93 63.5227 469.633 63.8636 469.425 64.2841C469.216 64.7045 469.112 65.1553 469.112 65.6364V66.4091C469.112 67.0682 469.226 67.6269 469.453 68.0852C469.684 68.5398 470.004 68.8864 470.413 69.125C470.822 69.3598 471.298 69.4773 471.839 69.4773C472.192 69.4773 472.51 69.428 472.794 69.3295C473.082 69.2273 473.33 69.0758 473.538 68.875C473.747 68.6705 473.908 68.4167 474.021 68.1136L475.317 68.4773C475.18 68.9167 474.951 69.303 474.629 69.6364C474.307 69.9659 473.91 70.2235 473.436 70.4091C472.963 70.5909 472.43 70.6818 471.839 70.6818ZM477.493 70.5V61.7727H478.788V63.1364H478.902C479.084 62.6705 479.377 62.3087 479.783 62.0511C480.188 61.7898 480.675 61.6591 481.243 61.6591C481.819 61.6591 482.298 61.7898 482.68 62.0511C483.067 62.3087 483.368 62.6705 483.584 63.1364H483.675C483.898 62.6856 484.233 62.3277 484.68 62.0625C485.127 61.7936 485.663 61.6591 486.288 61.6591C487.069 61.6591 487.707 61.9034 488.203 62.392C488.699 62.8769 488.947 63.6326 488.947 64.6591V70.5H487.607V64.6591C487.607 64.0152 487.43 63.5549 487.078 63.2784C486.726 63.0019 486.311 62.8636 485.834 62.8636C485.22 62.8636 484.745 63.0492 484.408 63.4205C484.071 63.7879 483.902 64.2538 483.902 64.8182V70.5H482.538V64.5227C482.538 64.0265 482.377 63.6269 482.055 63.3239C481.733 63.017 481.319 62.8636 480.811 62.8636C480.463 62.8636 480.137 62.9564 479.834 63.142C479.535 63.3277 479.292 63.5852 479.107 63.9148C478.925 64.2405 478.834 64.6174 478.834 65.0455V70.5H477.493Z" fill="#0B1D28"/>
<rect width="176" height="128" transform="translate(1 145)" fill="#87CEFF"/>
<rect x="17.5" y="173.5" width="143" height="71" rx="1.5" fill="white"/>
<rect x="17.5" y="173.5" width="143" height="71" rx="1.5" stroke="#001E2E" stroke-linecap="square" stroke-dasharray="6 6"/>
<path d="M74.8182 202.864V214.5H73.4091V202.864H74.8182ZM81.2571 205.773V206.909H76.7344V205.773H81.2571ZM78.0526 203.682H79.3935V212C79.3935 212.379 79.4484 212.663 79.5582 212.852C79.6719 213.038 79.8158 213.163 79.9901 213.227C80.1681 213.288 80.3556 213.318 80.5526 213.318C80.7003 213.318 80.8215 213.311 80.9162 213.295C81.0109 213.277 81.0866 213.261 81.1435 213.25L81.4162 214.455C81.3253 214.489 81.1984 214.523 81.0355 214.557C80.8726 214.595 80.6662 214.614 80.4162 214.614C80.0374 214.614 79.6662 214.532 79.3026 214.369C78.9427 214.206 78.6435 213.958 78.4048 213.625C78.17 213.292 78.0526 212.871 78.0526 212.364V203.682ZM86.8395 214.682C85.9986 214.682 85.2732 214.496 84.6634 214.125C84.0573 213.75 83.5895 213.227 83.2599 212.557C82.9342 211.883 82.7713 211.098 82.7713 210.205C82.7713 209.311 82.9342 208.523 83.2599 207.841C83.5895 207.155 84.0478 206.621 84.6349 206.239C85.2259 205.852 85.9152 205.659 86.7031 205.659C87.1577 205.659 87.6065 205.735 88.0497 205.886C88.4929 206.038 88.8963 206.284 89.2599 206.625C89.6236 206.962 89.9134 207.409 90.1293 207.966C90.3452 208.523 90.4531 209.208 90.4531 210.023V210.591H83.7259V209.432H89.0895C89.0895 208.939 88.991 208.5 88.794 208.114C88.6009 207.727 88.3243 207.422 87.9645 207.199C87.6084 206.975 87.188 206.864 86.7031 206.864C86.169 206.864 85.7069 206.996 85.3168 207.261C84.9304 207.523 84.633 207.864 84.4247 208.284C84.2164 208.705 84.1122 209.155 84.1122 209.636V210.409C84.1122 211.068 84.2259 211.627 84.4531 212.085C84.6842 212.54 85.0043 212.886 85.4134 213.125C85.8224 213.36 86.2978 213.477 86.8395 213.477C87.1918 213.477 87.5099 213.428 87.794 213.33C88.0819 213.227 88.33 213.076 88.5384 212.875C88.7467 212.67 88.9077 212.417 89.0213 212.114L90.3168 212.477C90.1804 212.917 89.9512 213.303 89.6293 213.636C89.3073 213.966 88.9096 214.223 88.4361 214.409C87.9626 214.591 87.4304 214.682 86.8395 214.682ZM92.4929 214.5V205.773H93.7884V207.136H93.902C94.0838 206.67 94.3774 206.309 94.7827 206.051C95.188 205.79 95.6747 205.659 96.2429 205.659C96.8187 205.659 97.2978 205.79 97.6804 206.051C98.0668 206.309 98.3679 206.67 98.5838 207.136H98.6747C98.8982 206.686 99.2334 206.328 99.6804 206.062C100.127 205.794 100.663 205.659 101.288 205.659C102.069 205.659 102.707 205.903 103.203 206.392C103.699 206.877 103.947 207.633 103.947 208.659V214.5H102.607V208.659C102.607 208.015 102.43 207.555 102.078 207.278C101.726 207.002 101.311 206.864 100.834 206.864C100.22 206.864 99.7448 207.049 99.4077 207.42C99.0705 207.788 98.902 208.254 98.902 208.818V214.5H97.5384V208.523C97.5384 208.027 97.3774 207.627 97.0554 207.324C96.7334 207.017 96.3187 206.864 95.8111 206.864C95.4626 206.864 95.1368 206.956 94.8338 207.142C94.5346 207.328 94.2921 207.585 94.1065 207.915C93.9247 208.241 93.8338 208.617 93.8338 209.045V214.5H92.4929Z" fill="#0B1D28"/>
<rect width="177" height="128" transform="translate(193 145)" fill="#87CEFF"/>
<rect x="234" y="173.5" width="95" height="71" rx="1.5" fill="white"/>
<rect x="234" y="173.5" width="95" height="71" rx="1.5" stroke="#001E2E" stroke-linecap="square" stroke-dasharray="6 6"/>
<path d="M267.318 202.864V214.5H265.909V202.864H267.318ZM273.757 205.773V206.909H269.234V205.773H273.757ZM270.553 203.682H271.893V212C271.893 212.379 271.948 212.663 272.058 212.852C272.172 213.038 272.316 213.163 272.49 213.227C272.668 213.288 272.856 213.318 273.053 213.318C273.2 213.318 273.321 213.311 273.416 213.295C273.511 213.277 273.587 213.261 273.643 213.25L273.916 214.455C273.825 214.489 273.698 214.523 273.536 214.557C273.373 214.595 273.166 214.614 272.916 214.614C272.537 214.614 272.166 214.532 271.803 214.369C271.443 214.206 271.143 213.958 270.905 213.625C270.67 213.292 270.553 212.871 270.553 212.364V203.682ZM279.339 214.682C278.499 214.682 277.773 214.496 277.163 214.125C276.557 213.75 276.089 213.227 275.76 212.557C275.434 211.883 275.271 211.098 275.271 210.205C275.271 209.311 275.434 208.523 275.76 207.841C276.089 207.155 276.548 206.621 277.135 206.239C277.726 205.852 278.415 205.659 279.203 205.659C279.658 205.659 280.107 205.735 280.55 205.886C280.993 206.038 281.396 206.284 281.76 206.625C282.124 206.962 282.413 207.409 282.629 207.966C282.845 208.523 282.953 209.208 282.953 210.023V210.591H276.226V209.432H281.589C281.589 208.939 281.491 208.5 281.294 208.114C281.101 207.727 280.824 207.422 280.464 207.199C280.108 206.975 279.688 206.864 279.203 206.864C278.669 206.864 278.207 206.996 277.817 207.261C277.43 207.523 277.133 207.864 276.925 208.284C276.716 208.705 276.612 209.155 276.612 209.636V210.409C276.612 211.068 276.726 211.627 276.953 212.085C277.184 212.54 277.504 212.886 277.913 213.125C278.322 213.36 278.798 213.477 279.339 213.477C279.692 213.477 280.01 213.428 280.294 213.33C280.582 213.227 280.83 213.076 281.038 212.875C281.247 212.67 281.408 212.417 281.521 212.114L282.817 212.477C282.68 212.917 282.451 213.303 282.129 213.636C281.807 213.966 281.41 214.223 280.936 214.409C280.463 214.591 279.93 214.682 279.339 214.682ZM284.993 214.5V205.773H286.288V207.136H286.402C286.584 206.67 286.877 206.309 287.283 206.051C287.688 205.79 288.175 205.659 288.743 205.659C289.319 205.659 289.798 205.79 290.18 206.051C290.567 206.309 290.868 206.67 291.084 207.136H291.175C291.398 206.686 291.733 206.328 292.18 206.062C292.627 205.794 293.163 205.659 293.788 205.659C294.569 205.659 295.207 205.903 295.703 206.392C296.199 206.877 296.447 207.633 296.447 208.659V214.5H295.107V208.659C295.107 208.015 294.93 207.555 294.578 207.278C294.226 207.002 293.811 206.864 293.334 206.864C292.72 206.864 292.245 207.049 291.908 207.42C291.571 207.788 291.402 208.254 291.402 208.818V214.5H290.038V208.523C290.038 208.027 289.877 207.627 289.555 207.324C289.233 207.017 288.819 206.864 288.311 206.864C287.963 206.864 287.637 206.956 287.334 207.142C287.035 207.328 286.792 207.585 286.607 207.915C286.425 208.241 286.334 208.617 286.334 209.045V214.5H284.993Z" fill="#0B1D28"/>
<rect width="176.333" height="128" transform="translate(385.667 145)" fill="#87CEFF"/>
<rect x="438.334" y="145.5" width="71" height="127" rx="1.5" fill="white"/>
<rect x="438.334" y="145.5" width="71" height="127" rx="1.5" stroke="#001E2E" stroke-linecap="square" stroke-dasharray="6 6"/>
<path d="M459.652 202.864V214.5H458.243V202.864H459.652ZM466.091 205.773V206.909H461.568V205.773H466.091ZM462.887 203.682H464.227V212C464.227 212.379 464.282 212.663 464.392 212.852C464.506 213.038 464.65 213.163 464.824 213.227C465.002 213.288 465.19 213.318 465.387 213.318C465.534 213.318 465.655 213.311 465.75 213.295C465.845 213.277 465.921 213.261 465.977 213.25L466.25 214.455C466.159 214.489 466.032 214.523 465.869 214.557C465.707 214.595 465.5 214.614 465.25 214.614C464.871 214.614 464.5 214.532 464.137 214.369C463.777 214.206 463.477 213.958 463.239 213.625C463.004 213.292 462.887 212.871 462.887 212.364V203.682ZM471.673 214.682C470.833 214.682 470.107 214.496 469.497 214.125C468.891 213.75 468.423 213.227 468.094 212.557C467.768 211.883 467.605 211.098 467.605 210.205C467.605 209.311 467.768 208.523 468.094 207.841C468.423 207.155 468.882 206.621 469.469 206.239C470.06 205.852 470.749 205.659 471.537 205.659C471.992 205.659 472.441 205.735 472.884 205.886C473.327 206.038 473.73 206.284 474.094 206.625C474.458 206.962 474.747 207.409 474.963 207.966C475.179 208.523 475.287 209.208 475.287 210.023V210.591H468.56V209.432H473.923C473.923 208.939 473.825 208.5 473.628 208.114C473.435 207.727 473.158 207.422 472.798 207.199C472.442 206.975 472.022 206.864 471.537 206.864C471.003 206.864 470.541 206.996 470.151 207.261C469.764 207.523 469.467 207.864 469.259 208.284C469.05 208.705 468.946 209.155 468.946 209.636V210.409C468.946 211.068 469.06 211.627 469.287 212.085C469.518 212.54 469.838 212.886 470.247 213.125C470.656 213.36 471.132 213.477 471.673 213.477C472.026 213.477 472.344 213.428 472.628 213.33C472.916 213.227 473.164 213.076 473.372 212.875C473.581 212.67 473.742 212.417 473.855 212.114L475.151 212.477C475.014 212.917 474.785 213.303 474.463 213.636C474.141 213.966 473.744 214.223 473.27 214.409C472.797 214.591 472.264 214.682 471.673 214.682ZM477.327 214.5V205.773H478.622V207.136H478.736C478.918 206.67 479.211 206.309 479.617 206.051C480.022 205.79 480.509 205.659 481.077 205.659C481.653 205.659 482.132 205.79 482.514 206.051C482.901 206.309 483.202 206.67 483.418 207.136H483.509C483.732 206.686 484.067 206.328 484.514 206.062C484.961 205.794 485.497 205.659 486.122 205.659C486.903 205.659 487.541 205.903 488.037 206.392C488.533 206.877 488.781 207.633 488.781 208.659V214.5H487.441V208.659C487.441 208.015 487.264 207.555 486.912 207.278C486.56 207.002 486.145 206.864 485.668 206.864C485.054 206.864 484.579 207.049 484.242 207.42C483.905 207.788 483.736 208.254 483.736 208.818V214.5H482.372V208.523C482.372 208.027 482.211 207.627 481.889 207.324C481.567 207.017 481.153 206.864 480.645 206.864C480.297 206.864 479.971 206.956 479.668 207.142C479.369 207.328 479.126 207.585 478.941 207.915C478.759 208.241 478.668 208.617 478.668 209.045V214.5H477.327Z" fill="#0B1D28"/>
</g>
<rect x="0.5" y="0.5" width="562" height="273" rx="2.5" stroke="#006590"/>
<defs>
<clipPath id="clip0_7795_9294">
<rect x="1" y="1" width="561" height="272" rx="2" fill="white"/>
</clipPath>
</defs>
</svg>
