<svg width="563" height="274" viewBox="0 0 563 274" fill="none" xmlns="http://www.w3.org/2000/svg">
<g clip-path="url(#clip0_7795_9363)">
<rect x="1" y="1" width="561" height="272" rx="2" fill="#C8E6FF"/>
<rect width="176" height="128" transform="translate(1 1)" fill="#87CEFF"/>
<rect x="81.5" y="57.5" width="95" height="71" rx="1.5" fill="white"/>
<rect x="81.5" y="57.5" width="95" height="71" rx="1.5" stroke="#001E2E" stroke-linecap="square" stroke-dasharray="6 6"/>
<path d="M114.818 86.8636V98.5H113.409V86.8636H114.818ZM121.257 89.7727V90.9091H116.734V89.7727H121.257ZM118.053 87.6818H119.393V96C119.393 96.3788 119.448 96.6629 119.558 96.8523C119.672 97.0379 119.816 97.1629 119.99 97.2273C120.168 97.2879 120.356 97.3182 120.553 97.3182C120.7 97.3182 120.821 97.3106 120.916 97.2955C121.011 97.2765 121.087 97.2614 121.143 97.25L121.416 98.4545C121.325 98.4886 121.198 98.5227 121.036 98.5568C120.873 98.5947 120.666 98.6136 120.416 98.6136C120.037 98.6136 119.666 98.5322 119.303 98.3693C118.943 98.2064 118.643 97.9583 118.405 97.625C118.17 97.2917 118.053 96.8712 118.053 96.3636V87.6818ZM126.839 98.6818C125.999 98.6818 125.273 98.4962 124.663 98.125C124.057 97.75 123.589 97.2273 123.26 96.5568C122.934 95.8826 122.771 95.0985 122.771 94.2045C122.771 93.3106 122.934 92.5227 123.26 91.8409C123.589 91.1553 124.048 90.6212 124.635 90.2386C125.226 89.8523 125.915 89.6591 126.703 89.6591C127.158 89.6591 127.607 89.7348 128.05 89.8864C128.493 90.0379 128.896 90.2841 129.26 90.625C129.624 90.9621 129.913 91.4091 130.129 91.9659C130.345 92.5227 130.453 93.2083 130.453 94.0227V94.5909H123.726V93.4318H129.089C129.089 92.9394 128.991 92.5 128.794 92.1136C128.601 91.7273 128.324 91.4223 127.964 91.1989C127.608 90.9754 127.188 90.8636 126.703 90.8636C126.169 90.8636 125.707 90.9962 125.317 91.2614C124.93 91.5227 124.633 91.8636 124.425 92.2841C124.216 92.7045 124.112 93.1553 124.112 93.6364V94.4091C124.112 95.0682 124.226 95.6269 124.453 96.0852C124.684 96.5398 125.004 96.8864 125.413 97.125C125.822 97.3598 126.298 97.4773 126.839 97.4773C127.192 97.4773 127.51 97.428 127.794 97.3295C128.082 97.2273 128.33 97.0758 128.538 96.875C128.747 96.6705 128.908 96.4167 129.021 96.1136L130.317 96.4773C130.18 96.9167 129.951 97.303 129.629 97.6364C129.307 97.9659 128.91 98.2235 128.436 98.4091C127.963 98.5909 127.43 98.6818 126.839 98.6818ZM132.493 98.5V89.7727H133.788V91.1364H133.902C134.084 90.6705 134.377 90.3087 134.783 90.0511C135.188 89.7898 135.675 89.6591 136.243 89.6591C136.819 89.6591 137.298 89.7898 137.68 90.0511C138.067 90.3087 138.368 90.6705 138.584 91.1364H138.675C138.898 90.6856 139.233 90.3277 139.68 90.0625C140.127 89.7936 140.663 89.6591 141.288 89.6591C142.069 89.6591 142.707 89.9034 143.203 90.392C143.699 90.8769 143.947 91.6326 143.947 92.6591V98.5H142.607V92.6591C142.607 92.0152 142.43 91.5549 142.078 91.2784C141.726 91.0019 141.311 90.8636 140.834 90.8636C140.22 90.8636 139.745 91.0492 139.408 91.4205C139.071 91.7879 138.902 92.2538 138.902 92.8182V98.5H137.538V92.5227C137.538 92.0265 137.377 91.6269 137.055 91.3239C136.733 91.017 136.319 90.8636 135.811 90.8636C135.463 90.8636 135.137 90.9564 134.834 91.142C134.535 91.3277 134.292 91.5852 134.107 91.9148C133.925 92.2405 133.834 92.6174 133.834 93.0455V98.5H132.493Z" fill="#0B1D28"/>
<rect width="176.333" height="128" transform="translate(193.333 1)" fill="#87CEFF"/>
<rect x="298.166" y="1.5" width="71" height="127" rx="1.5" fill="white"/>
<rect x="298.166" y="1.5" width="71" height="127" rx="1.5" stroke="#001E2E" stroke-linecap="square" stroke-dasharray="6 6"/>
<path d="M319.484 58.8636V70.5H318.075V58.8636H319.484ZM325.923 61.7727V62.9091H321.4V61.7727H325.923ZM322.719 59.6818H324.059V68C324.059 68.3788 324.114 68.6629 324.224 68.8523C324.338 69.0379 324.482 69.1629 324.656 69.2273C324.834 69.2879 325.022 69.3182 325.219 69.3182C325.366 69.3182 325.488 69.3106 325.582 69.2955C325.677 69.2765 325.753 69.2614 325.809 69.25L326.082 70.4545C325.991 70.4886 325.864 70.5227 325.702 70.5568C325.539 70.5947 325.332 70.6136 325.082 70.6136C324.703 70.6136 324.332 70.5322 323.969 70.3693C323.609 70.2064 323.309 69.9583 323.071 69.625C322.836 69.2917 322.719 68.8712 322.719 68.3636V59.6818ZM331.506 70.6818C330.665 70.6818 329.939 70.4962 329.329 70.125C328.723 69.75 328.256 69.2273 327.926 68.5568C327.6 67.8826 327.437 67.0985 327.437 66.2045C327.437 65.3106 327.6 64.5227 327.926 63.8409C328.256 63.1553 328.714 62.6212 329.301 62.2386C329.892 61.8523 330.581 61.6591 331.369 61.6591C331.824 61.6591 332.273 61.7348 332.716 61.8864C333.159 62.0379 333.562 62.2841 333.926 62.625C334.29 62.9621 334.579 63.4091 334.795 63.9659C335.011 64.5227 335.119 65.2083 335.119 66.0227V66.5909H328.392V65.4318H333.756C333.756 64.9394 333.657 64.5 333.46 64.1136C333.267 63.7273 332.99 63.4223 332.631 63.1989C332.274 62.9754 331.854 62.8636 331.369 62.8636C330.835 62.8636 330.373 62.9962 329.983 63.2614C329.596 63.5227 329.299 63.8636 329.091 64.2841C328.882 64.7045 328.778 65.1553 328.778 65.6364V66.4091C328.778 67.0682 328.892 67.6269 329.119 68.0852C329.35 68.5398 329.67 68.8864 330.079 69.125C330.488 69.3598 330.964 69.4773 331.506 69.4773C331.858 69.4773 332.176 69.428 332.46 69.3295C332.748 69.2273 332.996 69.0758 333.204 68.875C333.413 68.6705 333.574 68.4167 333.687 68.1136L334.983 68.4773C334.846 68.9167 334.617 69.303 334.295 69.6364C333.973 69.9659 333.576 70.2235 333.102 70.4091C332.629 70.5909 332.096 70.6818 331.506 70.6818ZM337.159 70.5V61.7727H338.454V63.1364H338.568C338.75 62.6705 339.043 62.3087 339.449 62.0511C339.854 61.7898 340.341 61.6591 340.909 61.6591C341.485 61.6591 341.964 61.7898 342.346 62.0511C342.733 62.3087 343.034 62.6705 343.25 63.1364H343.341C343.564 62.6856 343.899 62.3277 344.346 62.0625C344.793 61.7936 345.329 61.6591 345.954 61.6591C346.735 61.6591 347.373 61.9034 347.869 62.392C348.365 62.8769 348.613 63.6326 348.613 64.6591V70.5H347.273V64.6591C347.273 64.0152 347.096 63.5549 346.744 63.2784C346.392 63.0019 345.977 62.8636 345.5 62.8636C344.886 62.8636 344.411 63.0492 344.074 63.4205C343.737 63.7879 343.568 64.2538 343.568 64.8182V70.5H342.204V64.5227C342.204 64.0265 342.043 63.6269 341.721 63.3239C341.399 63.017 340.985 62.8636 340.477 62.8636C340.129 62.8636 339.803 62.9564 339.5 63.142C339.201 63.3277 338.958 63.5852 338.773 63.9148C338.591 64.2405 338.5 64.6174 338.5 65.0455V70.5H337.159Z" fill="#0B1D28"/>
<rect width="176" height="128" transform="translate(386 1)" fill="#87CEFF"/>
<rect x="418.5" y="57.5" width="143" height="71" rx="1.5" fill="white"/>
<rect x="418.5" y="57.5" width="143" height="71" rx="1.5" stroke="#001E2E" stroke-linecap="square" stroke-dasharray="6 6"/>
<path d="M475.818 86.8636V98.5H474.409V86.8636H475.818ZM482.257 89.7727V90.9091H477.734V89.7727H482.257ZM479.053 87.6818H480.393V96C480.393 96.3788 480.448 96.6629 480.558 96.8523C480.672 97.0379 480.816 97.1629 480.99 97.2273C481.168 97.2879 481.356 97.3182 481.553 97.3182C481.7 97.3182 481.821 97.3106 481.916 97.2955C482.011 97.2765 482.087 97.2614 482.143 97.25L482.416 98.4545C482.325 98.4886 482.198 98.5227 482.036 98.5568C481.873 98.5947 481.666 98.6136 481.416 98.6136C481.037 98.6136 480.666 98.5322 480.303 98.3693C479.943 98.2064 479.643 97.9583 479.405 97.625C479.17 97.2917 479.053 96.8712 479.053 96.3636V87.6818ZM487.839 98.6818C486.999 98.6818 486.273 98.4962 485.663 98.125C485.057 97.75 484.589 97.2273 484.26 96.5568C483.934 95.8826 483.771 95.0985 483.771 94.2045C483.771 93.3106 483.934 92.5227 484.26 91.8409C484.589 91.1553 485.048 90.6212 485.635 90.2386C486.226 89.8523 486.915 89.6591 487.703 89.6591C488.158 89.6591 488.607 89.7348 489.05 89.8864C489.493 90.0379 489.896 90.2841 490.26 90.625C490.624 90.9621 490.913 91.4091 491.129 91.9659C491.345 92.5227 491.453 93.2083 491.453 94.0227V94.5909H484.726V93.4318H490.089C490.089 92.9394 489.991 92.5 489.794 92.1136C489.601 91.7273 489.324 91.4223 488.964 91.1989C488.608 90.9754 488.188 90.8636 487.703 90.8636C487.169 90.8636 486.707 90.9962 486.317 91.2614C485.93 91.5227 485.633 91.8636 485.425 92.2841C485.216 92.7045 485.112 93.1553 485.112 93.6364V94.4091C485.112 95.0682 485.226 95.6269 485.453 96.0852C485.684 96.5398 486.004 96.8864 486.413 97.125C486.822 97.3598 487.298 97.4773 487.839 97.4773C488.192 97.4773 488.51 97.428 488.794 97.3295C489.082 97.2273 489.33 97.0758 489.538 96.875C489.747 96.6705 489.908 96.4167 490.021 96.1136L491.317 96.4773C491.18 96.9167 490.951 97.303 490.629 97.6364C490.307 97.9659 489.91 98.2235 489.436 98.4091C488.963 98.5909 488.43 98.6818 487.839 98.6818ZM493.493 98.5V89.7727H494.788V91.1364H494.902C495.084 90.6705 495.377 90.3087 495.783 90.0511C496.188 89.7898 496.675 89.6591 497.243 89.6591C497.819 89.6591 498.298 89.7898 498.68 90.0511C499.067 90.3087 499.368 90.6705 499.584 91.1364H499.675C499.898 90.6856 500.233 90.3277 500.68 90.0625C501.127 89.7936 501.663 89.6591 502.288 89.6591C503.069 89.6591 503.707 89.9034 504.203 90.392C504.699 90.8769 504.947 91.6326 504.947 92.6591V98.5H503.607V92.6591C503.607 92.0152 503.43 91.5549 503.078 91.2784C502.726 91.0019 502.311 90.8636 501.834 90.8636C501.22 90.8636 500.745 91.0492 500.408 91.4205C500.071 91.7879 499.902 92.2538 499.902 92.8182V98.5H498.538V92.5227C498.538 92.0265 498.377 91.6269 498.055 91.3239C497.733 91.017 497.319 90.8636 496.811 90.8636C496.463 90.8636 496.137 90.9564 495.834 91.142C495.535 91.3277 495.292 91.5852 495.107 91.9148C494.925 92.2405 494.834 92.6174 494.834 93.0455V98.5H493.493Z" fill="#0B1D28"/>
<rect width="176" height="128" transform="translate(1 145)" fill="#87CEFF"/>
<rect x="33.5" y="201.5" width="143" height="71" rx="1.5" fill="white"/>
<rect x="33.5" y="201.5" width="143" height="71" rx="1.5" stroke="#001E2E" stroke-linecap="square" stroke-dasharray="6 6"/>
<path d="M90.8182 230.864V242.5H89.4091V230.864H90.8182ZM97.2571 233.773V234.909H92.7344V233.773H97.2571ZM94.0526 231.682H95.3935V240C95.3935 240.379 95.4484 240.663 95.5582 240.852C95.6719 241.038 95.8158 241.163 95.9901 241.227C96.1681 241.288 96.3556 241.318 96.5526 241.318C96.7003 241.318 96.8215 241.311 96.9162 241.295C97.0109 241.277 97.0866 241.261 97.1435 241.25L97.4162 242.455C97.3253 242.489 97.1984 242.523 97.0355 242.557C96.8726 242.595 96.6662 242.614 96.4162 242.614C96.0374 242.614 95.6662 242.532 95.3026 242.369C94.9427 242.206 94.6435 241.958 94.4048 241.625C94.17 241.292 94.0526 240.871 94.0526 240.364V231.682ZM102.839 242.682C101.999 242.682 101.273 242.496 100.663 242.125C100.057 241.75 99.5895 241.227 99.2599 240.557C98.9342 239.883 98.7713 239.098 98.7713 238.205C98.7713 237.311 98.9342 236.523 99.2599 235.841C99.5895 235.155 100.048 234.621 100.635 234.239C101.226 233.852 101.915 233.659 102.703 233.659C103.158 233.659 103.607 233.735 104.05 233.886C104.493 234.038 104.896 234.284 105.26 234.625C105.624 234.962 105.913 235.409 106.129 235.966C106.345 236.523 106.453 237.208 106.453 238.023V238.591H99.7259V237.432H105.089C105.089 236.939 104.991 236.5 104.794 236.114C104.601 235.727 104.324 235.422 103.964 235.199C103.608 234.975 103.188 234.864 102.703 234.864C102.169 234.864 101.707 234.996 101.317 235.261C100.93 235.523 100.633 235.864 100.425 236.284C100.216 236.705 100.112 237.155 100.112 237.636V238.409C100.112 239.068 100.226 239.627 100.453 240.085C100.684 240.54 101.004 240.886 101.413 241.125C101.822 241.36 102.298 241.477 102.839 241.477C103.192 241.477 103.51 241.428 103.794 241.33C104.082 241.227 104.33 241.076 104.538 240.875C104.747 240.67 104.908 240.417 105.021 240.114L106.317 240.477C106.18 240.917 105.951 241.303 105.629 241.636C105.307 241.966 104.91 242.223 104.436 242.409C103.963 242.591 103.43 242.682 102.839 242.682ZM108.493 242.5V233.773H109.788V235.136H109.902C110.084 234.67 110.377 234.309 110.783 234.051C111.188 233.79 111.675 233.659 112.243 233.659C112.819 233.659 113.298 233.79 113.68 234.051C114.067 234.309 114.368 234.67 114.584 235.136H114.675C114.898 234.686 115.233 234.328 115.68 234.062C116.127 233.794 116.663 233.659 117.288 233.659C118.069 233.659 118.707 233.903 119.203 234.392C119.699 234.877 119.947 235.633 119.947 236.659V242.5H118.607V236.659C118.607 236.015 118.43 235.555 118.078 235.278C117.726 235.002 117.311 234.864 116.834 234.864C116.22 234.864 115.745 235.049 115.408 235.42C115.071 235.788 114.902 236.254 114.902 236.818V242.5H113.538V236.523C113.538 236.027 113.377 235.627 113.055 235.324C112.733 235.017 112.319 234.864 111.811 234.864C111.463 234.864 111.137 234.956 110.834 235.142C110.535 235.328 110.292 235.585 110.107 235.915C109.925 236.241 109.834 236.617 109.834 237.045V242.5H108.493Z" fill="#0B1D28"/>
<rect width="177" height="128" transform="translate(193 145)" fill="#87CEFF"/>
<rect x="274.5" y="201.5" width="95" height="71" rx="1.5" fill="white"/>
<rect x="274.5" y="201.5" width="95" height="71" rx="1.5" stroke="#001E2E" stroke-linecap="square" stroke-dasharray="6 6"/>
<path d="M307.818 230.864V242.5H306.409V230.864H307.818ZM314.257 233.773V234.909H309.734V233.773H314.257ZM311.053 231.682H312.393V240C312.393 240.379 312.448 240.663 312.558 240.852C312.672 241.038 312.816 241.163 312.99 241.227C313.168 241.288 313.356 241.318 313.553 241.318C313.7 241.318 313.821 241.311 313.916 241.295C314.011 241.277 314.087 241.261 314.143 241.25L314.416 242.455C314.325 242.489 314.198 242.523 314.036 242.557C313.873 242.595 313.666 242.614 313.416 242.614C313.037 242.614 312.666 242.532 312.303 242.369C311.943 242.206 311.643 241.958 311.405 241.625C311.17 241.292 311.053 240.871 311.053 240.364V231.682ZM319.839 242.682C318.999 242.682 318.273 242.496 317.663 242.125C317.057 241.75 316.589 241.227 316.26 240.557C315.934 239.883 315.771 239.098 315.771 238.205C315.771 237.311 315.934 236.523 316.26 235.841C316.589 235.155 317.048 234.621 317.635 234.239C318.226 233.852 318.915 233.659 319.703 233.659C320.158 233.659 320.607 233.735 321.05 233.886C321.493 234.038 321.896 234.284 322.26 234.625C322.624 234.962 322.913 235.409 323.129 235.966C323.345 236.523 323.453 237.208 323.453 238.023V238.591H316.726V237.432H322.089C322.089 236.939 321.991 236.5 321.794 236.114C321.601 235.727 321.324 235.422 320.964 235.199C320.608 234.975 320.188 234.864 319.703 234.864C319.169 234.864 318.707 234.996 318.317 235.261C317.93 235.523 317.633 235.864 317.425 236.284C317.216 236.705 317.112 237.155 317.112 237.636V238.409C317.112 239.068 317.226 239.627 317.453 240.085C317.684 240.54 318.004 240.886 318.413 241.125C318.822 241.36 319.298 241.477 319.839 241.477C320.192 241.477 320.51 241.428 320.794 241.33C321.082 241.227 321.33 241.076 321.538 240.875C321.747 240.67 321.908 240.417 322.021 240.114L323.317 240.477C323.18 240.917 322.951 241.303 322.629 241.636C322.307 241.966 321.91 242.223 321.436 242.409C320.963 242.591 320.43 242.682 319.839 242.682ZM325.493 242.5V233.773H326.788V235.136H326.902C327.084 234.67 327.377 234.309 327.783 234.051C328.188 233.79 328.675 233.659 329.243 233.659C329.819 233.659 330.298 233.79 330.68 234.051C331.067 234.309 331.368 234.67 331.584 235.136H331.675C331.898 234.686 332.233 234.328 332.68 234.062C333.127 233.794 333.663 233.659 334.288 233.659C335.069 233.659 335.707 233.903 336.203 234.392C336.699 234.877 336.947 235.633 336.947 236.659V242.5H335.607V236.659C335.607 236.015 335.43 235.555 335.078 235.278C334.726 235.002 334.311 234.864 333.834 234.864C333.22 234.864 332.745 235.049 332.408 235.42C332.071 235.788 331.902 236.254 331.902 236.818V242.5H330.538V236.523C330.538 236.027 330.377 235.627 330.055 235.324C329.733 235.017 329.319 234.864 328.811 234.864C328.463 234.864 328.137 234.956 327.834 235.142C327.535 235.328 327.292 235.585 327.107 235.915C326.925 236.241 326.834 236.617 326.834 237.045V242.5H325.493Z" fill="#0B1D28"/>
<rect width="176.333" height="128" transform="translate(385.667 145)" fill="#87CEFF"/>
<rect x="490.5" y="145.5" width="71" height="127" rx="1.5" fill="white"/>
<rect x="490.5" y="145.5" width="71" height="127" rx="1.5" stroke="#001E2E" stroke-linecap="square" stroke-dasharray="6 6"/>
<path d="M511.818 202.864V214.5H510.409V202.864H511.818ZM518.257 205.773V206.909H513.734V205.773H518.257ZM515.053 203.682H516.393V212C516.393 212.379 516.448 212.663 516.558 212.852C516.672 213.038 516.816 213.163 516.99 213.227C517.168 213.288 517.356 213.318 517.553 213.318C517.7 213.318 517.821 213.311 517.916 213.295C518.011 213.277 518.087 213.261 518.143 213.25L518.416 214.455C518.325 214.489 518.198 214.523 518.036 214.557C517.873 214.595 517.666 214.614 517.416 214.614C517.037 214.614 516.666 214.532 516.303 214.369C515.943 214.206 515.643 213.958 515.405 213.625C515.17 213.292 515.053 212.871 515.053 212.364V203.682ZM523.839 214.682C522.999 214.682 522.273 214.496 521.663 214.125C521.057 213.75 520.589 213.227 520.26 212.557C519.934 211.883 519.771 211.098 519.771 210.205C519.771 209.311 519.934 208.523 520.26 207.841C520.589 207.155 521.048 206.621 521.635 206.239C522.226 205.852 522.915 205.659 523.703 205.659C524.158 205.659 524.607 205.735 525.05 205.886C525.493 206.038 525.896 206.284 526.26 206.625C526.624 206.962 526.913 207.409 527.129 207.966C527.345 208.523 527.453 209.208 527.453 210.023V210.591H520.726V209.432H526.089C526.089 208.939 525.991 208.5 525.794 208.114C525.601 207.727 525.324 207.422 524.964 207.199C524.608 206.975 524.188 206.864 523.703 206.864C523.169 206.864 522.707 206.996 522.317 207.261C521.93 207.523 521.633 207.864 521.425 208.284C521.216 208.705 521.112 209.155 521.112 209.636V210.409C521.112 211.068 521.226 211.627 521.453 212.085C521.684 212.54 522.004 212.886 522.413 213.125C522.822 213.36 523.298 213.477 523.839 213.477C524.192 213.477 524.51 213.428 524.794 213.33C525.082 213.227 525.33 213.076 525.538 212.875C525.747 212.67 525.908 212.417 526.021 212.114L527.317 212.477C527.18 212.917 526.951 213.303 526.629 213.636C526.307 213.966 525.91 214.223 525.436 214.409C524.963 214.591 524.43 214.682 523.839 214.682ZM529.493 214.5V205.773H530.788V207.136H530.902C531.084 206.67 531.377 206.309 531.783 206.051C532.188 205.79 532.675 205.659 533.243 205.659C533.819 205.659 534.298 205.79 534.68 206.051C535.067 206.309 535.368 206.67 535.584 207.136H535.675C535.898 206.686 536.233 206.328 536.68 206.062C537.127 205.794 537.663 205.659 538.288 205.659C539.069 205.659 539.707 205.903 540.203 206.392C540.699 206.877 540.947 207.633 540.947 208.659V214.5H539.607V208.659C539.607 208.015 539.43 207.555 539.078 207.278C538.726 207.002 538.311 206.864 537.834 206.864C537.22 206.864 536.745 207.049 536.408 207.42C536.071 207.788 535.902 208.254 535.902 208.818V214.5H534.538V208.523C534.538 208.027 534.377 207.627 534.055 207.324C533.733 207.017 533.319 206.864 532.811 206.864C532.463 206.864 532.137 206.956 531.834 207.142C531.535 207.328 531.292 207.585 531.107 207.915C530.925 208.241 530.834 208.617 530.834 209.045V214.5H529.493Z" fill="#0B1D28"/>
</g>
<rect x="0.5" y="0.5" width="562" height="273" rx="2.5" stroke="#006590"/>
<defs>
<clipPath id="clip0_7795_9363">
<rect x="1" y="1" width="561" height="272" rx="2" fill="white"/>
</clipPath>
</defs>
</svg>
