<svg width="720" height="272" viewBox="0 0 720 272" fill="none" xmlns="http://www.w3.org/2000/svg">
<g clip-path="url(#clip0_7878_3587)">
<rect width="720" height="272" rx="4" fill="#C8E6FF"/>
<rect width="229" height="128" fill="#87CEFF"/>
<rect x="0.5" y="0.5" width="228" height="127" rx="1.5" fill="white"/>
<rect x="0.5" y="0.5" width="228" height="127" rx="1.5" stroke="#001E2E" stroke-linecap="square" stroke-dasharray="6 6"/>
<path d="M80.4091 69.5V57.8636H87.3864V59.1136H81.8182V63.0455H86.8636V64.2955H81.8182V69.5H80.4091ZM89.6179 69.5V60.7727H90.9588V69.5H89.6179ZM90.2997 59.3182C90.0384 59.3182 89.813 59.2292 89.6236 59.0511C89.438 58.8731 89.3452 58.6591 89.3452 58.4091C89.3452 58.1591 89.438 57.9451 89.6236 57.767C89.813 57.589 90.0384 57.5 90.2997 57.5C90.5611 57.5 90.7846 57.589 90.9702 57.767C91.1596 57.9451 91.2543 58.1591 91.2543 58.4091C91.2543 58.6591 91.1596 58.8731 90.9702 59.0511C90.7846 59.2292 90.5611 59.3182 90.2997 59.3182ZM93.4148 69.5V60.7727H94.7102V62.0909H94.8011C94.9602 61.6591 95.2481 61.3087 95.6648 61.0398C96.0814 60.7708 96.5511 60.6364 97.0739 60.6364C97.1723 60.6364 97.2955 60.6383 97.4432 60.642C97.5909 60.6458 97.7027 60.6515 97.7784 60.6591V62.0227C97.733 62.0114 97.6288 61.9943 97.4659 61.9716C97.3068 61.9451 97.1383 61.9318 96.9602 61.9318C96.536 61.9318 96.1572 62.0208 95.8239 62.1989C95.4943 62.3731 95.233 62.6155 95.0398 62.9261C94.8504 63.233 94.7557 63.5833 94.7557 63.9773V69.5H93.4148ZM105.55 62.7273L104.345 63.0682C104.269 62.8674 104.158 62.6723 104.01 62.483C103.866 62.2898 103.669 62.1307 103.419 62.0057C103.169 61.8807 102.849 61.8182 102.459 61.8182C101.925 61.8182 101.48 61.9413 101.124 62.1875C100.771 62.4299 100.595 62.7386 100.595 63.1136C100.595 63.447 100.716 63.7102 100.959 63.9034C101.201 64.0966 101.58 64.2576 102.095 64.3864L103.391 64.7045C104.171 64.8939 104.752 65.1837 105.135 65.5739C105.518 65.9602 105.709 66.4583 105.709 67.0682C105.709 67.5682 105.565 68.0152 105.277 68.4091C104.993 68.803 104.595 69.1136 104.084 69.3409C103.572 69.5682 102.978 69.6818 102.3 69.6818C101.41 69.6818 100.673 69.4886 100.089 69.1023C99.5062 68.7159 99.1368 68.1515 98.9815 67.4091L100.254 67.0909C100.375 67.5606 100.605 67.9129 100.942 68.1477C101.283 68.3826 101.728 68.5 102.277 68.5C102.902 68.5 103.398 68.3674 103.766 68.1023C104.137 67.8333 104.322 67.5114 104.322 67.1364C104.322 66.8333 104.216 66.5795 104.004 66.375C103.792 66.1667 103.466 66.0114 103.027 65.9091L101.572 65.5682C100.773 65.3788 100.186 65.0852 99.8111 64.6875C99.4399 64.286 99.2543 63.7841 99.2543 63.1818C99.2543 62.6894 99.3925 62.2538 99.669 61.875C99.9493 61.4962 100.33 61.1989 100.811 60.983C101.296 60.767 101.845 60.6591 102.459 60.6591C103.322 60.6591 104 60.8485 104.493 61.2273C104.989 61.6061 105.341 62.1061 105.55 62.7273ZM111.523 60.7727V61.9091H107V60.7727H111.523ZM108.318 58.6818H109.659V67C109.659 67.3788 109.714 67.6629 109.824 67.8523C109.938 68.0379 110.081 68.1629 110.256 68.2273C110.434 68.2879 110.621 68.3182 110.818 68.3182C110.966 68.3182 111.087 68.3106 111.182 68.2955C111.277 68.2765 111.352 68.2614 111.409 68.25L111.682 69.4545C111.591 69.4886 111.464 69.5227 111.301 69.5568C111.138 69.5947 110.932 69.6136 110.682 69.6136C110.303 69.6136 109.932 69.5322 109.568 69.3693C109.208 69.2064 108.909 68.9583 108.67 68.625C108.436 68.2917 108.318 67.8712 108.318 67.3636V58.6818ZM118.04 69.5V60.7727H119.381V69.5H118.04ZM118.722 59.3182C118.46 59.3182 118.235 59.2292 118.045 59.0511C117.86 58.8731 117.767 58.6591 117.767 58.4091C117.767 58.1591 117.86 57.9451 118.045 57.767C118.235 57.589 118.46 57.5 118.722 57.5C118.983 57.5 119.206 57.589 119.392 57.767C119.581 57.9451 119.676 58.1591 119.676 58.4091C119.676 58.6591 119.581 58.8731 119.392 59.0511C119.206 59.2292 118.983 59.3182 118.722 59.3182ZM125.632 60.7727V61.9091H121.109V60.7727H125.632ZM122.428 58.6818H123.768V67C123.768 67.3788 123.823 67.6629 123.933 67.8523C124.047 68.0379 124.191 68.1629 124.365 68.2273C124.543 68.2879 124.731 68.3182 124.928 68.3182C125.075 68.3182 125.196 68.3106 125.291 68.2955C125.386 68.2765 125.462 68.2614 125.518 68.25L125.791 69.4545C125.7 69.4886 125.573 69.5227 125.411 69.5568C125.248 69.5947 125.041 69.6136 124.791 69.6136C124.412 69.6136 124.041 69.5322 123.678 69.3693C123.318 69.2064 123.018 68.9583 122.78 68.625C122.545 68.2917 122.428 67.8712 122.428 67.3636V58.6818ZM131.214 69.6818C130.374 69.6818 129.648 69.4962 129.038 69.125C128.432 68.75 127.964 68.2273 127.635 67.5568C127.309 66.8826 127.146 66.0985 127.146 65.2045C127.146 64.3106 127.309 63.5227 127.635 62.8409C127.964 62.1553 128.423 61.6212 129.01 61.2386C129.601 60.8523 130.29 60.6591 131.078 60.6591C131.533 60.6591 131.982 60.7348 132.425 60.8864C132.868 61.0379 133.271 61.2841 133.635 61.625C133.999 61.9621 134.288 62.4091 134.504 62.9659C134.72 63.5227 134.828 64.2083 134.828 65.0227V65.5909H128.101V64.4318H133.464C133.464 63.9394 133.366 63.5 133.169 63.1136C132.976 62.7273 132.699 62.4223 132.339 62.1989C131.983 61.9754 131.563 61.8636 131.078 61.8636C130.544 61.8636 130.082 61.9962 129.692 62.2614C129.305 62.5227 129.008 62.8636 128.8 63.2841C128.591 63.7045 128.487 64.1553 128.487 64.6364V65.4091C128.487 66.0682 128.601 66.6269 128.828 67.0852C129.059 67.5398 129.379 67.8864 129.788 68.125C130.197 68.3598 130.673 68.4773 131.214 68.4773C131.567 68.4773 131.885 68.428 132.169 68.3295C132.457 68.2273 132.705 68.0758 132.913 67.875C133.122 67.6705 133.283 67.4167 133.396 67.1136L134.692 67.4773C134.555 67.9167 134.326 68.303 134.004 68.6364C133.682 68.9659 133.285 69.2235 132.811 69.4091C132.338 69.5909 131.805 69.6818 131.214 69.6818ZM136.868 69.5V60.7727H138.163V62.1364H138.277C138.459 61.6705 138.752 61.3087 139.158 61.0511C139.563 60.7898 140.05 60.6591 140.618 60.6591C141.194 60.6591 141.673 60.7898 142.055 61.0511C142.442 61.3087 142.743 61.6705 142.959 62.1364H143.05C143.273 61.6856 143.608 61.3277 144.055 61.0625C144.502 60.7936 145.038 60.6591 145.663 60.6591C146.444 60.6591 147.082 60.9034 147.578 61.392C148.074 61.8769 148.322 62.6326 148.322 63.6591V69.5H146.982V63.6591C146.982 63.0152 146.805 62.5549 146.453 62.2784C146.101 62.0019 145.686 61.8636 145.209 61.8636C144.595 61.8636 144.12 62.0492 143.783 62.4205C143.446 62.7879 143.277 63.2538 143.277 63.8182V69.5H141.913V63.5227C141.913 63.0265 141.752 62.6269 141.43 62.3239C141.108 62.017 140.694 61.8636 140.186 61.8636C139.838 61.8636 139.512 61.9564 139.209 62.142C138.91 62.3277 138.667 62.5852 138.482 62.9148C138.3 63.2405 138.209 63.6174 138.209 64.0455V69.5H136.868Z" fill="#0B1D28"/>
<rect width="229.333" height="128" transform="translate(245.333)" fill="#87CEFF"/>
<rect x="245.833" y="0.5" width="228.333" height="127" rx="1.5" fill="white"/>
<rect x="245.833" y="0.5" width="228.333" height="127" rx="1.5" stroke="#001E2E" stroke-linecap="square" stroke-dasharray="6 6"/>
<path d="M322.273 59.1136V57.8636H331V59.1136H327.341V69.5H325.932V59.1136H322.273ZM334.334 64.25V69.5H332.993V57.8636H334.334V62.1364H334.447C334.652 61.6856 334.959 61.3277 335.368 61.0625C335.781 60.7936 336.33 60.6591 337.016 60.6591C337.61 60.6591 338.131 60.7784 338.578 61.017C339.025 61.2519 339.372 61.6136 339.618 62.1023C339.868 62.5871 339.993 63.2045 339.993 63.9545V69.5H338.652V64.0455C338.652 63.3523 338.472 62.8163 338.112 62.4375C337.756 62.0549 337.262 61.8636 336.629 61.8636C336.19 61.8636 335.796 61.9564 335.447 62.142C335.103 62.3277 334.83 62.5985 334.629 62.9545C334.432 63.3106 334.334 63.7424 334.334 64.25ZM342.446 69.5V60.7727H343.787V69.5H342.446ZM343.128 59.3182C342.866 59.3182 342.641 59.2292 342.452 59.0511C342.266 58.8731 342.173 58.6591 342.173 58.4091C342.173 58.1591 342.266 57.9451 342.452 57.767C342.641 57.589 342.866 57.5 343.128 57.5C343.389 57.5 343.613 57.589 343.798 57.767C343.988 57.9451 344.082 58.1591 344.082 58.4091C344.082 58.6591 343.988 58.8731 343.798 59.0511C343.613 59.2292 343.389 59.3182 343.128 59.3182ZM346.243 69.5V60.7727H347.538V62.0909H347.629C347.788 61.6591 348.076 61.3087 348.493 61.0398C348.91 60.7708 349.379 60.6364 349.902 60.6364C350 60.6364 350.124 60.6383 350.271 60.642C350.419 60.6458 350.531 60.6515 350.607 60.6591V62.0227C350.561 62.0114 350.457 61.9943 350.294 61.9716C350.135 61.9451 349.966 61.9318 349.788 61.9318C349.364 61.9318 348.985 62.0208 348.652 62.1989C348.322 62.3731 348.061 62.6155 347.868 62.9261C347.679 63.233 347.584 63.5833 347.584 63.9773V69.5H346.243ZM355.226 69.6818C354.499 69.6818 353.857 69.4981 353.3 69.1307C352.743 68.7595 352.307 68.2367 351.993 67.5625C351.679 66.8845 351.521 66.0833 351.521 65.1591C351.521 64.2424 351.679 63.447 351.993 62.7727C352.307 62.0985 352.745 61.5777 353.305 61.2102C353.866 60.8428 354.514 60.6591 355.249 60.6591C355.817 60.6591 356.266 60.7538 356.595 60.9432C356.929 61.1288 357.182 61.3409 357.357 61.5795C357.535 61.8144 357.673 62.0076 357.771 62.1591H357.885V57.8636H359.226V69.5H357.93V68.1591H357.771C357.673 68.3182 357.533 68.5189 357.351 68.7614C357.169 69 356.91 69.214 356.572 69.4034C356.235 69.589 355.786 69.6818 355.226 69.6818ZM355.408 68.4773C355.946 68.4773 356.4 68.3371 356.771 68.0568C357.143 67.7727 357.425 67.3807 357.618 66.8807C357.811 66.3769 357.908 65.7955 357.908 65.1364C357.908 64.4848 357.813 63.9148 357.624 63.4261C357.434 62.9337 357.154 62.5511 356.783 62.2784C356.411 62.0019 355.953 61.8636 355.408 61.8636C354.839 61.8636 354.366 62.0095 353.987 62.3011C353.612 62.589 353.33 62.9811 353.141 63.4773C352.955 63.9697 352.862 64.5227 352.862 65.1364C352.862 65.7576 352.957 66.322 353.146 66.8295C353.339 67.3333 353.624 67.7348 353.999 68.0341C354.377 68.3295 354.847 68.4773 355.408 68.4773ZM366.368 69.5V60.7727H367.709V69.5H366.368ZM367.05 59.3182C366.788 59.3182 366.563 59.2292 366.374 59.0511C366.188 58.8731 366.095 58.6591 366.095 58.4091C366.095 58.1591 366.188 57.9451 366.374 57.767C366.563 57.589 366.788 57.5 367.05 57.5C367.311 57.5 367.535 57.589 367.72 57.767C367.91 57.9451 368.004 58.1591 368.004 58.4091C368.004 58.6591 367.91 58.8731 367.72 59.0511C367.535 59.2292 367.311 59.3182 367.05 59.3182ZM373.96 60.7727V61.9091H369.438V60.7727H373.96ZM370.756 58.6818H372.097V67C372.097 67.3788 372.152 67.6629 372.261 67.8523C372.375 68.0379 372.519 68.1629 372.693 68.2273C372.871 68.2879 373.059 68.3182 373.256 68.3182C373.403 68.3182 373.525 68.3106 373.619 68.2955C373.714 68.2765 373.79 68.2614 373.847 68.25L374.119 69.4545C374.028 69.4886 373.902 69.5227 373.739 69.5568C373.576 69.5947 373.369 69.6136 373.119 69.6136C372.741 69.6136 372.369 69.5322 372.006 69.3693C371.646 69.2064 371.347 68.9583 371.108 68.625C370.873 68.2917 370.756 67.8712 370.756 67.3636V58.6818ZM379.543 69.6818C378.702 69.6818 377.976 69.4962 377.366 69.125C376.76 68.75 376.293 68.2273 375.963 67.5568C375.637 66.8826 375.474 66.0985 375.474 65.2045C375.474 64.3106 375.637 63.5227 375.963 62.8409C376.293 62.1553 376.751 61.6212 377.338 61.2386C377.929 60.8523 378.618 60.6591 379.406 60.6591C379.861 60.6591 380.31 60.7348 380.753 60.8864C381.196 61.0379 381.599 61.2841 381.963 61.625C382.327 61.9621 382.616 62.4091 382.832 62.9659C383.048 63.5227 383.156 64.2083 383.156 65.0227V65.5909H376.429V64.4318H381.793C381.793 63.9394 381.694 63.5 381.497 63.1136C381.304 62.7273 381.027 62.4223 380.668 62.1989C380.312 61.9754 379.891 61.8636 379.406 61.8636C378.872 61.8636 378.41 61.9962 378.02 62.2614C377.634 62.5227 377.336 62.8636 377.128 63.2841C376.92 63.7045 376.815 64.1553 376.815 64.6364V65.4091C376.815 66.0682 376.929 66.6269 377.156 67.0852C377.387 67.5398 377.707 67.8864 378.116 68.125C378.526 68.3598 379.001 68.4773 379.543 68.4773C379.895 68.4773 380.213 68.428 380.497 68.3295C380.785 68.2273 381.033 68.0758 381.241 67.875C381.45 67.6705 381.611 67.4167 381.724 67.1136L383.02 67.4773C382.884 67.9167 382.654 68.303 382.332 68.6364C382.01 68.9659 381.613 69.2235 381.139 69.4091C380.666 69.5909 380.134 69.6818 379.543 69.6818ZM385.196 69.5V60.7727H386.491V62.1364H386.605C386.787 61.6705 387.08 61.3087 387.486 61.0511C387.891 60.7898 388.378 60.6591 388.946 60.6591C389.522 60.6591 390.001 60.7898 390.384 61.0511C390.77 61.3087 391.071 61.6705 391.287 62.1364H391.378C391.601 61.6856 391.937 61.3277 392.384 61.0625C392.83 60.7936 393.366 60.6591 393.991 60.6591C394.772 60.6591 395.41 60.9034 395.906 61.392C396.402 61.8769 396.651 62.6326 396.651 63.6591V69.5H395.31V63.6591C395.31 63.0152 395.134 62.5549 394.781 62.2784C394.429 62.0019 394.014 61.8636 393.537 61.8636C392.923 61.8636 392.448 62.0492 392.111 62.4205C391.774 62.7879 391.605 63.2538 391.605 63.8182V69.5H390.241V63.5227C390.241 63.0265 390.08 62.6269 389.759 62.3239C389.437 62.017 389.022 61.8636 388.514 61.8636C388.166 61.8636 387.84 61.9564 387.537 62.142C387.238 62.3277 386.995 62.5852 386.81 62.9148C386.628 63.2405 386.537 63.6174 386.537 64.0455V69.5H385.196Z" fill="#0B1D28"/>
<rect width="229" height="128" transform="translate(491)" fill="#87CEFF"/>
<rect width="229" height="128" transform="translate(0 144)" fill="#87CEFF"/>
<rect x="0.5" y="144.5" width="228" height="127" rx="1.5" fill="white"/>
<rect x="0.5" y="144.5" width="228" height="127" rx="1.5" stroke="#001E2E" stroke-linecap="square" stroke-dasharray="6 6"/>
<path d="M74.7727 204.773C74.7045 204.197 74.428 203.75 73.9432 203.432C73.4583 203.114 72.8636 202.955 72.1591 202.955C71.6439 202.955 71.1932 203.038 70.8068 203.205C70.4242 203.371 70.125 203.6 69.9091 203.892C69.697 204.184 69.5909 204.515 69.5909 204.886C69.5909 205.197 69.6648 205.464 69.8125 205.688C69.964 205.907 70.1572 206.091 70.392 206.239C70.6269 206.383 70.8731 206.502 71.1307 206.597C71.3883 206.687 71.625 206.761 71.8409 206.818L73.0227 207.136C73.3258 207.216 73.6629 207.326 74.0341 207.466C74.4091 207.606 74.767 207.797 75.108 208.04C75.4527 208.278 75.7367 208.585 75.9602 208.96C76.1837 209.335 76.2955 209.795 76.2955 210.341C76.2955 210.97 76.1307 211.538 75.8011 212.045C75.4754 212.553 74.9981 212.956 74.3693 213.256C73.7443 213.555 72.9848 213.705 72.0909 213.705C71.2576 213.705 70.536 213.57 69.9261 213.301C69.3201 213.032 68.8428 212.657 68.4943 212.176C68.1496 211.695 67.9545 211.136 67.9091 210.5H69.3636C69.4015 210.939 69.5492 211.303 69.8068 211.591C70.0682 211.875 70.3977 212.087 70.7955 212.227C71.197 212.364 71.6288 212.432 72.0909 212.432C72.6288 212.432 73.1117 212.345 73.5398 212.17C73.9678 211.992 74.3068 211.746 74.5568 211.432C74.8068 211.114 74.9318 210.742 74.9318 210.318C74.9318 209.932 74.8239 209.617 74.608 209.375C74.392 209.133 74.108 208.936 73.7557 208.784C73.4034 208.633 73.0227 208.5 72.6136 208.386L71.1818 207.977C70.2727 207.716 69.553 207.343 69.0227 206.858C68.4924 206.373 68.2273 205.739 68.2273 204.955C68.2273 204.303 68.4034 203.735 68.7557 203.25C69.1117 202.761 69.589 202.383 70.1875 202.114C70.7898 201.841 71.4621 201.705 72.2045 201.705C72.9545 201.705 73.6212 201.839 74.2045 202.108C74.7879 202.373 75.25 202.737 75.5909 203.199C75.9356 203.661 76.1174 204.186 76.1364 204.773H74.7727ZM82.0895 213.682C81.2486 213.682 80.5232 213.496 79.9134 213.125C79.3073 212.75 78.8395 212.227 78.5099 211.557C78.1842 210.883 78.0213 210.098 78.0213 209.205C78.0213 208.311 78.1842 207.523 78.5099 206.841C78.8395 206.155 79.2978 205.621 79.8849 205.239C80.4759 204.852 81.1652 204.659 81.9531 204.659C82.4077 204.659 82.8565 204.735 83.2997 204.886C83.7429 205.038 84.1463 205.284 84.5099 205.625C84.8736 205.962 85.1634 206.409 85.3793 206.966C85.5952 207.523 85.7031 208.208 85.7031 209.023V209.591H78.9759V208.432H84.3395C84.3395 207.939 84.241 207.5 84.044 207.114C83.8509 206.727 83.5743 206.422 83.2145 206.199C82.8584 205.975 82.438 205.864 81.9531 205.864C81.419 205.864 80.9569 205.996 80.5668 206.261C80.1804 206.523 79.883 206.864 79.6747 207.284C79.4664 207.705 79.3622 208.155 79.3622 208.636V209.409C79.3622 210.068 79.4759 210.627 79.7031 211.085C79.9342 211.54 80.2543 211.886 80.6634 212.125C81.0724 212.36 81.5478 212.477 82.0895 212.477C82.4418 212.477 82.7599 212.428 83.044 212.33C83.3319 212.227 83.58 212.076 83.7884 211.875C83.9967 211.67 84.1577 211.417 84.2713 211.114L85.5668 211.477C85.4304 211.917 85.2012 212.303 84.8793 212.636C84.5573 212.966 84.1596 213.223 83.6861 213.409C83.2126 213.591 82.6804 213.682 82.0895 213.682ZM91.2884 213.682C90.4702 213.682 89.7656 213.489 89.1747 213.102C88.5838 212.716 88.1293 212.184 87.8111 211.506C87.4929 210.828 87.3338 210.053 87.3338 209.182C87.3338 208.295 87.4967 207.513 87.8224 206.835C88.152 206.153 88.6103 205.621 89.1974 205.239C89.7884 204.852 90.4777 204.659 91.2656 204.659C91.8793 204.659 92.4323 204.773 92.9247 205C93.4171 205.227 93.8205 205.545 94.1349 205.955C94.4493 206.364 94.6444 206.841 94.7202 207.386H93.3793C93.277 206.989 93.0497 206.636 92.6974 206.33C92.349 206.019 91.8793 205.864 91.2884 205.864C90.7656 205.864 90.3073 206 89.9134 206.273C89.5232 206.542 89.2183 206.922 88.9986 207.415C88.7827 207.903 88.6747 208.477 88.6747 209.136C88.6747 209.811 88.7808 210.398 88.9929 210.898C89.2088 211.398 89.5118 211.786 89.902 212.062C90.2959 212.339 90.758 212.477 91.2884 212.477C91.6368 212.477 91.9531 212.417 92.2372 212.295C92.5213 212.174 92.7618 212 92.9588 211.773C93.1558 211.545 93.2959 211.273 93.3793 210.955H94.7202C94.6444 211.47 94.4569 211.934 94.1577 212.347C93.8622 212.756 93.4702 213.081 92.9815 213.324C92.4967 213.562 91.9323 213.682 91.2884 213.682ZM100.226 213.682C99.438 213.682 98.7467 213.494 98.152 213.119C97.5611 212.744 97.099 212.22 96.7656 211.545C96.4361 210.871 96.2713 210.083 96.2713 209.182C96.2713 208.273 96.4361 207.479 96.7656 206.801C97.099 206.123 97.5611 205.597 98.152 205.222C98.7467 204.847 99.438 204.659 100.226 204.659C101.014 204.659 101.703 204.847 102.294 205.222C102.889 205.597 103.351 206.123 103.68 206.801C104.014 207.479 104.18 208.273 104.18 209.182C104.18 210.083 104.014 210.871 103.68 211.545C103.351 212.22 102.889 212.744 102.294 213.119C101.703 213.494 101.014 213.682 100.226 213.682ZM100.226 212.477C100.824 212.477 101.317 212.324 101.703 212.017C102.089 211.71 102.375 211.307 102.561 210.807C102.747 210.307 102.839 209.765 102.839 209.182C102.839 208.598 102.747 208.055 102.561 207.551C102.375 207.047 102.089 206.64 101.703 206.33C101.317 206.019 100.824 205.864 100.226 205.864C99.6274 205.864 99.1349 206.019 98.7486 206.33C98.3622 206.64 98.0762 207.047 97.8906 207.551C97.705 208.055 97.6122 208.598 97.6122 209.182C97.6122 209.765 97.705 210.307 97.8906 210.807C98.0762 211.307 98.3622 211.71 98.7486 212.017C99.1349 212.324 99.6274 212.477 100.226 212.477ZM107.568 208.25V213.5H106.227V204.773H107.523V206.136H107.636C107.841 205.693 108.152 205.337 108.568 205.068C108.985 204.795 109.523 204.659 110.182 204.659C110.773 204.659 111.29 204.78 111.733 205.023C112.176 205.261 112.521 205.625 112.767 206.114C113.013 206.598 113.136 207.212 113.136 207.955V213.5H111.795V208.045C111.795 207.36 111.617 206.826 111.261 206.443C110.905 206.057 110.417 205.864 109.795 205.864C109.367 205.864 108.985 205.956 108.648 206.142C108.314 206.328 108.051 206.598 107.858 206.955C107.665 207.311 107.568 207.742 107.568 208.25ZM118.882 213.682C118.155 213.682 117.513 213.498 116.956 213.131C116.399 212.759 115.964 212.237 115.649 211.562C115.335 210.884 115.178 210.083 115.178 209.159C115.178 208.242 115.335 207.447 115.649 206.773C115.964 206.098 116.401 205.578 116.962 205.21C117.522 204.843 118.17 204.659 118.905 204.659C119.473 204.659 119.922 204.754 120.251 204.943C120.585 205.129 120.839 205.341 121.013 205.58C121.191 205.814 121.329 206.008 121.428 206.159H121.541V201.864H122.882V213.5H121.587V212.159H121.428C121.329 212.318 121.189 212.519 121.007 212.761C120.825 213 120.566 213.214 120.229 213.403C119.892 213.589 119.443 213.682 118.882 213.682ZM119.064 212.477C119.602 212.477 120.056 212.337 120.428 212.057C120.799 211.773 121.081 211.381 121.274 210.881C121.467 210.377 121.564 209.795 121.564 209.136C121.564 208.485 121.469 207.915 121.28 207.426C121.09 206.934 120.81 206.551 120.439 206.278C120.068 206.002 119.609 205.864 119.064 205.864C118.496 205.864 118.022 206.009 117.643 206.301C117.268 206.589 116.986 206.981 116.797 207.477C116.611 207.97 116.518 208.523 116.518 209.136C116.518 209.758 116.613 210.322 116.803 210.83C116.996 211.333 117.28 211.735 117.655 212.034C118.034 212.33 118.503 212.477 119.064 212.477ZM130.024 213.5V204.773H131.365V213.5H130.024ZM130.706 203.318C130.445 203.318 130.219 203.229 130.03 203.051C129.844 202.873 129.751 202.659 129.751 202.409C129.751 202.159 129.844 201.945 130.03 201.767C130.219 201.589 130.445 201.5 130.706 201.5C130.967 201.5 131.191 201.589 131.376 201.767C131.566 201.945 131.661 202.159 131.661 202.409C131.661 202.659 131.566 202.873 131.376 203.051C131.191 203.229 130.967 203.318 130.706 203.318ZM137.616 204.773V205.909H133.094V204.773H137.616ZM134.412 202.682H135.753V211C135.753 211.379 135.808 211.663 135.918 211.852C136.031 212.038 136.175 212.163 136.349 212.227C136.527 212.288 136.715 212.318 136.912 212.318C137.06 212.318 137.181 212.311 137.276 212.295C137.37 212.277 137.446 212.261 137.503 212.25L137.776 213.455C137.685 213.489 137.558 213.523 137.395 213.557C137.232 213.595 137.026 213.614 136.776 213.614C136.397 213.614 136.026 213.532 135.662 213.369C135.302 213.206 135.003 212.958 134.764 212.625C134.529 212.292 134.412 211.871 134.412 211.364V202.682ZM143.199 213.682C142.358 213.682 141.633 213.496 141.023 213.125C140.417 212.75 139.949 212.227 139.619 211.557C139.294 210.883 139.131 210.098 139.131 209.205C139.131 208.311 139.294 207.523 139.619 206.841C139.949 206.155 140.407 205.621 140.994 205.239C141.585 204.852 142.275 204.659 143.062 204.659C143.517 204.659 143.966 204.735 144.409 204.886C144.852 205.038 145.256 205.284 145.619 205.625C145.983 205.962 146.273 206.409 146.489 206.966C146.705 207.523 146.812 208.208 146.812 209.023V209.591H140.085V208.432H145.449C145.449 207.939 145.35 207.5 145.153 207.114C144.96 206.727 144.684 206.422 144.324 206.199C143.968 205.975 143.547 205.864 143.062 205.864C142.528 205.864 142.066 205.996 141.676 206.261C141.29 206.523 140.992 206.864 140.784 207.284C140.576 207.705 140.472 208.155 140.472 208.636V209.409C140.472 210.068 140.585 210.627 140.812 211.085C141.044 211.54 141.364 211.886 141.773 212.125C142.182 212.36 142.657 212.477 143.199 212.477C143.551 212.477 143.869 212.428 144.153 212.33C144.441 212.227 144.689 212.076 144.898 211.875C145.106 211.67 145.267 211.417 145.381 211.114L146.676 211.477C146.54 211.917 146.311 212.303 145.989 212.636C145.667 212.966 145.269 213.223 144.795 213.409C144.322 213.591 143.79 213.682 143.199 213.682ZM148.852 213.5V204.773H150.148V206.136H150.261C150.443 205.67 150.737 205.309 151.142 205.051C151.547 204.79 152.034 204.659 152.602 204.659C153.178 204.659 153.657 204.79 154.04 205.051C154.426 205.309 154.727 205.67 154.943 206.136H155.034C155.258 205.686 155.593 205.328 156.04 205.062C156.487 204.794 157.023 204.659 157.648 204.659C158.428 204.659 159.066 204.903 159.562 205.392C160.059 205.877 160.307 206.633 160.307 207.659V213.5H158.966V207.659C158.966 207.015 158.79 206.555 158.438 206.278C158.085 206.002 157.67 205.864 157.193 205.864C156.58 205.864 156.104 206.049 155.767 206.42C155.43 206.788 155.261 207.254 155.261 207.818V213.5H153.898V207.523C153.898 207.027 153.737 206.627 153.415 206.324C153.093 206.017 152.678 205.864 152.17 205.864C151.822 205.864 151.496 205.956 151.193 206.142C150.894 206.328 150.652 206.585 150.466 206.915C150.284 207.241 150.193 207.617 150.193 208.045V213.5H148.852Z" fill="#0B1D28"/>
<rect width="230" height="128" transform="translate(245 144)" fill="#87CEFF"/>
<rect width="229.333" height="128" transform="translate(490.667 144)" fill="#87CEFF"/>
</g>
<rect x="0.5" y="0.5" width="719" height="271" rx="3.5" stroke="#006590"/>
<defs>
<clipPath id="clip0_7878_3587">
<rect width="720" height="272" rx="4" fill="white"/>
</clipPath>
</defs>
</svg>
