<svg width="563" height="322" viewBox="0 0 563 322" fill="none" xmlns="http://www.w3.org/2000/svg">
<rect x="1" y="1" width="561" height="320" rx="2" fill="#87CEFF"/>
<rect x="1" y="1" width="561" height="320" rx="2" stroke="#006590"/>
<rect x="1" y="1" width="561" height="72" rx="2" fill="white"/>
<rect x="1" y="1" width="561" height="72" rx="2" stroke="#001E2E" stroke-linecap="square" stroke-dasharray="6 6"/>
<rect x="261" y="23.5" width="41" height="27" rx="7.5" fill="#FFEBF7"/>
<rect x="261" y="23.5" width="41" height="27" rx="7.5" stroke="#FFADF3"/>
<path d="M273.982 42H272.335V34.0703L269.785 35.0068V33.5645L273.88 32.0469H273.982V42ZM279.827 42V35.8271H277.845V34.6035H279.827V34.1523C279.827 33.6693 279.9 33.2454 280.046 32.8809C280.196 32.5117 280.408 32.2018 280.682 31.9512C280.955 31.7051 281.283 31.5182 281.666 31.3906C282.053 31.263 282.486 31.1992 282.965 31.1992C283.133 31.1992 283.298 31.2083 283.457 31.2266C283.621 31.2402 283.781 31.2585 283.936 31.2812C284.063 31.2995 284.193 31.3223 284.325 31.3496C284.457 31.3724 284.592 31.3975 284.729 31.4248L284.599 32.7305C284.416 32.6803 284.209 32.637 283.977 32.6006C283.749 32.5641 283.489 32.5459 283.197 32.5459C282.892 32.5459 282.628 32.5824 282.404 32.6553C282.186 32.7282 282.006 32.8353 281.864 32.9766C281.732 33.1087 281.632 33.2728 281.563 33.4688C281.5 33.6647 281.468 33.8926 281.468 34.1523V34.6035H284.209V35.8271H281.468V42H279.827ZM291.489 34.4668C291.754 34.4668 292.009 34.485 292.255 34.5215C292.506 34.5579 292.701 34.6012 292.843 34.6514L292.61 36.2646C292.36 36.21 292.111 36.1689 291.865 36.1416C291.624 36.1143 291.382 36.1006 291.141 36.1006C290.867 36.1006 290.621 36.1279 290.402 36.1826C290.184 36.2373 289.99 36.3216 289.821 36.4355C289.639 36.5449 289.484 36.6839 289.356 36.8525C289.229 37.0212 289.122 37.2148 289.035 37.4336V42H287.401V34.6035H288.933L289.001 35.6289L289.008 35.7998C289.309 35.3851 289.669 35.0592 290.088 34.8223C290.512 34.5853 290.979 34.4668 291.489 34.4668Z" fill="#380037"/>
<rect x="1" y="89" width="561" height="144" rx="2" fill="white"/>
<rect x="1" y="89" width="561" height="144" rx="2" stroke="#001E2E" stroke-linecap="square" stroke-dasharray="6 6"/>
<rect x="261" y="147.5" width="41" height="27" rx="7.5" fill="#FFEBF7"/>
<rect x="261" y="147.5" width="41" height="27" rx="7.5" stroke="#FFADF3"/>
<path d="M275.896 166H269.218V164.865L272.458 161.338C272.727 161.042 272.952 160.777 273.135 160.545C273.317 160.308 273.465 160.091 273.579 159.896C273.688 159.7 273.766 159.517 273.812 159.349C273.862 159.175 273.887 159.002 273.887 158.829C273.887 158.597 273.853 158.385 273.784 158.193C273.716 158.002 273.616 157.838 273.483 157.701C273.351 157.564 273.192 157.457 273.005 157.38C272.823 157.302 272.618 157.264 272.39 157.264C272.098 157.264 271.845 157.305 271.631 157.387C271.417 157.469 271.239 157.585 271.098 157.735C270.952 157.895 270.842 158.089 270.77 158.316C270.697 158.54 270.66 158.795 270.66 159.082H269.02C269.02 158.649 269.099 158.241 269.259 157.858C269.418 157.471 269.646 157.134 269.942 156.847C270.234 156.56 270.59 156.332 271.009 156.163C271.433 155.994 271.904 155.91 272.424 155.91C272.911 155.91 273.347 155.981 273.729 156.122C274.117 156.263 274.443 156.459 274.707 156.71C274.967 156.961 275.165 157.261 275.302 157.612C275.438 157.959 275.507 158.341 275.507 158.761C275.507 159.075 275.454 159.381 275.35 159.677C275.249 159.968 275.11 160.258 274.933 160.545C274.75 160.832 274.534 161.121 274.283 161.413C274.037 161.705 273.768 162.006 273.477 162.315L271.262 164.681H275.896V166ZM279.827 166V159.827H277.845V158.604H279.827V158.152C279.827 157.669 279.9 157.245 280.046 156.881C280.196 156.512 280.408 156.202 280.682 155.951C280.955 155.705 281.283 155.518 281.666 155.391C282.053 155.263 282.486 155.199 282.965 155.199C283.133 155.199 283.298 155.208 283.457 155.227C283.621 155.24 283.781 155.258 283.936 155.281C284.063 155.299 284.193 155.322 284.325 155.35C284.457 155.372 284.592 155.397 284.729 155.425L284.599 156.73C284.416 156.68 284.209 156.637 283.977 156.601C283.749 156.564 283.489 156.546 283.197 156.546C282.892 156.546 282.628 156.582 282.404 156.655C282.186 156.728 282.006 156.835 281.864 156.977C281.732 157.109 281.632 157.273 281.563 157.469C281.5 157.665 281.468 157.893 281.468 158.152V158.604H284.209V159.827H281.468V166H279.827ZM291.489 158.467C291.754 158.467 292.009 158.485 292.255 158.521C292.506 158.558 292.701 158.601 292.843 158.651L292.61 160.265C292.36 160.21 292.111 160.169 291.865 160.142C291.624 160.114 291.382 160.101 291.141 160.101C290.867 160.101 290.621 160.128 290.402 160.183C290.184 160.237 289.99 160.322 289.821 160.436C289.639 160.545 289.484 160.684 289.356 160.853C289.229 161.021 289.122 161.215 289.035 161.434V166H287.401V158.604H288.933L289.001 159.629L289.008 159.8C289.309 159.385 289.669 159.059 290.088 158.822C290.512 158.585 290.979 158.467 291.489 158.467Z" fill="#380037"/>
<rect x="1" y="249" width="561" height="72" rx="2" fill="white"/>
<rect x="1" y="249" width="561" height="72" rx="2" stroke="#001E2E" stroke-linecap="square" stroke-dasharray="6 6"/>
<rect x="261" y="271.5" width="41" height="27" rx="7.5" fill="#FFEBF7"/>
<rect x="261" y="271.5" width="41" height="27" rx="7.5" stroke="#FFADF3"/>
<path d="M273.982 290H272.335V282.07L269.785 283.007V281.564L273.88 280.047H273.982V290ZM279.827 290V283.827H277.845V282.604H279.827V282.152C279.827 281.669 279.9 281.245 280.046 280.881C280.196 280.512 280.408 280.202 280.682 279.951C280.955 279.705 281.283 279.518 281.666 279.391C282.053 279.263 282.486 279.199 282.965 279.199C283.133 279.199 283.298 279.208 283.457 279.227C283.621 279.24 283.781 279.258 283.936 279.281C284.063 279.299 284.193 279.322 284.325 279.35C284.457 279.372 284.592 279.397 284.729 279.425L284.599 280.73C284.416 280.68 284.209 280.637 283.977 280.601C283.749 280.564 283.489 280.546 283.197 280.546C282.892 280.546 282.628 280.582 282.404 280.655C282.186 280.728 282.006 280.835 281.864 280.977C281.732 281.109 281.632 281.273 281.563 281.469C281.5 281.665 281.468 281.893 281.468 282.152V282.604H284.209V283.827H281.468V290H279.827ZM291.489 282.467C291.754 282.467 292.009 282.485 292.255 282.521C292.506 282.558 292.701 282.601 292.843 282.651L292.61 284.265C292.36 284.21 292.111 284.169 291.865 284.142C291.624 284.114 291.382 284.101 291.141 284.101C290.867 284.101 290.621 284.128 290.402 284.183C290.184 284.237 289.99 284.322 289.821 284.436C289.639 284.545 289.484 284.684 289.356 284.853C289.229 285.021 289.122 285.215 289.035 285.434V290H287.401V282.604H288.933L289.001 283.629L289.008 283.8C289.309 283.385 289.669 283.059 290.088 282.822C290.512 282.585 290.979 282.467 291.489 282.467Z" fill="#380037"/>
</svg>
