<svg width="563" height="274" viewBox="0 0 563 274" fill="none" xmlns="http://www.w3.org/2000/svg">
<g clip-path="url(#clip0_7795_9413)">
<rect x="1" y="1" width="561" height="272" rx="2" fill="#C8E6FF"/>
<rect width="176" height="128" transform="translate(1 1)" fill="#87CEFF"/>
<rect x="1.5" y="29.5" width="95" height="71" rx="1.5" fill="white"/>
<rect x="1.5" y="29.5" width="95" height="71" rx="1.5" stroke="#001E2E" stroke-linecap="square" stroke-dasharray="6 6"/>
<path d="M34.8182 58.8636V70.5H33.4091V58.8636H34.8182ZM41.2571 61.7727V62.9091H36.7344V61.7727H41.2571ZM38.0526 59.6818H39.3935V68C39.3935 68.3788 39.4484 68.6629 39.5582 68.8523C39.6719 69.0379 39.8158 69.1629 39.9901 69.2273C40.1681 69.2879 40.3556 69.3182 40.5526 69.3182C40.7003 69.3182 40.8215 69.3106 40.9162 69.2955C41.0109 69.2765 41.0866 69.2614 41.1435 69.25L41.4162 70.4545C41.3253 70.4886 41.1984 70.5227 41.0355 70.5568C40.8726 70.5947 40.6662 70.6136 40.4162 70.6136C40.0374 70.6136 39.6662 70.5322 39.3026 70.3693C38.9427 70.2064 38.6435 69.9583 38.4048 69.625C38.17 69.2917 38.0526 68.8712 38.0526 68.3636V59.6818ZM46.8395 70.6818C45.9986 70.6818 45.2732 70.4962 44.6634 70.125C44.0573 69.75 43.5895 69.2273 43.2599 68.5568C42.9342 67.8826 42.7713 67.0985 42.7713 66.2045C42.7713 65.3106 42.9342 64.5227 43.2599 63.8409C43.5895 63.1553 44.0478 62.6212 44.6349 62.2386C45.2259 61.8523 45.9152 61.6591 46.7031 61.6591C47.1577 61.6591 47.6065 61.7348 48.0497 61.8864C48.4929 62.0379 48.8963 62.2841 49.2599 62.625C49.6236 62.9621 49.9134 63.4091 50.1293 63.9659C50.3452 64.5227 50.4531 65.2083 50.4531 66.0227V66.5909H43.7259V65.4318H49.0895C49.0895 64.9394 48.991 64.5 48.794 64.1136C48.6009 63.7273 48.3243 63.4223 47.9645 63.1989C47.6084 62.9754 47.188 62.8636 46.7031 62.8636C46.169 62.8636 45.7069 62.9962 45.3168 63.2614C44.9304 63.5227 44.633 63.8636 44.4247 64.2841C44.2164 64.7045 44.1122 65.1553 44.1122 65.6364V66.4091C44.1122 67.0682 44.2259 67.6269 44.4531 68.0852C44.6842 68.5398 45.0043 68.8864 45.4134 69.125C45.8224 69.3598 46.2978 69.4773 46.8395 69.4773C47.1918 69.4773 47.5099 69.428 47.794 69.3295C48.0819 69.2273 48.33 69.0758 48.5384 68.875C48.7467 68.6705 48.9077 68.4167 49.0213 68.1136L50.3168 68.4773C50.1804 68.9167 49.9512 69.303 49.6293 69.6364C49.3073 69.9659 48.9096 70.2235 48.4361 70.4091C47.9626 70.5909 47.4304 70.6818 46.8395 70.6818ZM52.4929 70.5V61.7727H53.7884V63.1364H53.902C54.0838 62.6705 54.3774 62.3087 54.7827 62.0511C55.188 61.7898 55.6747 61.6591 56.2429 61.6591C56.8187 61.6591 57.2978 61.7898 57.6804 62.0511C58.0668 62.3087 58.3679 62.6705 58.5838 63.1364H58.6747C58.8982 62.6856 59.2334 62.3277 59.6804 62.0625C60.1274 61.7936 60.6634 61.6591 61.2884 61.6591C62.0687 61.6591 62.7069 61.9034 63.2031 62.392C63.6993 62.8769 63.9474 63.6326 63.9474 64.6591V70.5H62.6065V64.6591C62.6065 64.0152 62.4304 63.5549 62.0781 63.2784C61.7259 63.0019 61.3111 62.8636 60.8338 62.8636C60.2202 62.8636 59.7448 63.0492 59.4077 63.4205C59.0705 63.7879 58.902 64.2538 58.902 64.8182V70.5H57.5384V64.5227C57.5384 64.0265 57.3774 63.6269 57.0554 63.3239C56.7334 63.017 56.3187 62.8636 55.8111 62.8636C55.4626 62.8636 55.1368 62.9564 54.8338 63.142C54.5346 63.3277 54.2921 63.5852 54.1065 63.9148C53.9247 64.2405 53.8338 64.6174 53.8338 65.0455V70.5H52.4929Z" fill="#0B1D28"/>
<rect width="176.333" height="128" transform="translate(193.333 1)" fill="#87CEFF"/>
<rect x="193.833" y="1.5" width="71" height="127" rx="1.5" fill="white"/>
<rect x="193.833" y="1.5" width="71" height="127" rx="1.5" stroke="#001E2E" stroke-linecap="square" stroke-dasharray="6 6"/>
<path d="M215.151 58.8636V70.5H213.742V58.8636H215.151ZM221.59 61.7727V62.9091H217.067V61.7727H221.59ZM218.386 59.6818H219.726V68C219.726 68.3788 219.781 68.6629 219.891 68.8523C220.005 69.0379 220.149 69.1629 220.323 69.2273C220.501 69.2879 220.689 69.3182 220.886 69.3182C221.033 69.3182 221.155 69.3106 221.249 69.2955C221.344 69.2765 221.42 69.2614 221.476 69.25L221.749 70.4545C221.658 70.4886 221.531 70.5227 221.369 70.5568C221.206 70.5947 220.999 70.6136 220.749 70.6136C220.37 70.6136 219.999 70.5322 219.636 70.3693C219.276 70.2064 218.976 69.9583 218.738 69.625C218.503 69.2917 218.386 68.8712 218.386 68.3636V59.6818ZM227.172 70.6818C226.332 70.6818 225.606 70.4962 224.996 70.125C224.39 69.75 223.922 69.2273 223.593 68.5568C223.267 67.8826 223.104 67.0985 223.104 66.2045C223.104 65.3106 223.267 64.5227 223.593 63.8409C223.922 63.1553 224.381 62.6212 224.968 62.2386C225.559 61.8523 226.248 61.6591 227.036 61.6591C227.491 61.6591 227.94 61.7348 228.383 61.8864C228.826 62.0379 229.229 62.2841 229.593 62.625C229.957 62.9621 230.246 63.4091 230.462 63.9659C230.678 64.5227 230.786 65.2083 230.786 66.0227V66.5909H224.059V65.4318H229.422C229.422 64.9394 229.324 64.5 229.127 64.1136C228.934 63.7273 228.657 63.4223 228.297 63.1989C227.941 62.9754 227.521 62.8636 227.036 62.8636C226.502 62.8636 226.04 62.9962 225.65 63.2614C225.263 63.5227 224.966 63.8636 224.758 64.2841C224.549 64.7045 224.445 65.1553 224.445 65.6364V66.4091C224.445 67.0682 224.559 67.6269 224.786 68.0852C225.017 68.5398 225.337 68.8864 225.746 69.125C226.155 69.3598 226.631 69.4773 227.172 69.4773C227.525 69.4773 227.843 69.428 228.127 69.3295C228.415 69.2273 228.663 69.0758 228.871 68.875C229.08 68.6705 229.241 68.4167 229.354 68.1136L230.65 68.4773C230.513 68.9167 230.284 69.303 229.962 69.6364C229.64 69.9659 229.243 70.2235 228.769 70.4091C228.296 70.5909 227.763 70.6818 227.172 70.6818ZM232.826 70.5V61.7727H234.121V63.1364H234.235C234.417 62.6705 234.71 62.3087 235.116 62.0511C235.521 61.7898 236.008 61.6591 236.576 61.6591C237.152 61.6591 237.631 61.7898 238.013 62.0511C238.4 62.3087 238.701 62.6705 238.917 63.1364H239.008C239.231 62.6856 239.566 62.3277 240.013 62.0625C240.46 61.7936 240.996 61.6591 241.621 61.6591C242.402 61.6591 243.04 61.9034 243.536 62.392C244.032 62.8769 244.28 63.6326 244.28 64.6591V70.5H242.94V64.6591C242.94 64.0152 242.763 63.5549 242.411 63.2784C242.059 63.0019 241.644 62.8636 241.167 62.8636C240.553 62.8636 240.078 63.0492 239.741 63.4205C239.404 63.7879 239.235 64.2538 239.235 64.8182V70.5H237.871V64.5227C237.871 64.0265 237.71 63.6269 237.388 63.3239C237.066 63.017 236.652 62.8636 236.144 62.8636C235.796 62.8636 235.47 62.9564 235.167 63.142C234.868 63.3277 234.625 63.5852 234.44 63.9148C234.258 64.2405 234.167 64.6174 234.167 65.0455V70.5H232.826Z" fill="#0B1D28"/>
<rect width="176" height="128" transform="translate(386 1)" fill="#87CEFF"/>
<rect x="386.5" y="29.5" width="143" height="71" rx="1.5" fill="white"/>
<rect x="386.5" y="29.5" width="143" height="71" rx="1.5" stroke="#001E2E" stroke-linecap="square" stroke-dasharray="6 6"/>
<path d="M443.818 58.8636V70.5H442.409V58.8636H443.818ZM450.257 61.7727V62.9091H445.734V61.7727H450.257ZM447.053 59.6818H448.393V68C448.393 68.3788 448.448 68.6629 448.558 68.8523C448.672 69.0379 448.816 69.1629 448.99 69.2273C449.168 69.2879 449.356 69.3182 449.553 69.3182C449.7 69.3182 449.821 69.3106 449.916 69.2955C450.011 69.2765 450.087 69.2614 450.143 69.25L450.416 70.4545C450.325 70.4886 450.198 70.5227 450.036 70.5568C449.873 70.5947 449.666 70.6136 449.416 70.6136C449.037 70.6136 448.666 70.5322 448.303 70.3693C447.943 70.2064 447.643 69.9583 447.405 69.625C447.17 69.2917 447.053 68.8712 447.053 68.3636V59.6818ZM455.839 70.6818C454.999 70.6818 454.273 70.4962 453.663 70.125C453.057 69.75 452.589 69.2273 452.26 68.5568C451.934 67.8826 451.771 67.0985 451.771 66.2045C451.771 65.3106 451.934 64.5227 452.26 63.8409C452.589 63.1553 453.048 62.6212 453.635 62.2386C454.226 61.8523 454.915 61.6591 455.703 61.6591C456.158 61.6591 456.607 61.7348 457.05 61.8864C457.493 62.0379 457.896 62.2841 458.26 62.625C458.624 62.9621 458.913 63.4091 459.129 63.9659C459.345 64.5227 459.453 65.2083 459.453 66.0227V66.5909H452.726V65.4318H458.089C458.089 64.9394 457.991 64.5 457.794 64.1136C457.601 63.7273 457.324 63.4223 456.964 63.1989C456.608 62.9754 456.188 62.8636 455.703 62.8636C455.169 62.8636 454.707 62.9962 454.317 63.2614C453.93 63.5227 453.633 63.8636 453.425 64.2841C453.216 64.7045 453.112 65.1553 453.112 65.6364V66.4091C453.112 67.0682 453.226 67.6269 453.453 68.0852C453.684 68.5398 454.004 68.8864 454.413 69.125C454.822 69.3598 455.298 69.4773 455.839 69.4773C456.192 69.4773 456.51 69.428 456.794 69.3295C457.082 69.2273 457.33 69.0758 457.538 68.875C457.747 68.6705 457.908 68.4167 458.021 68.1136L459.317 68.4773C459.18 68.9167 458.951 69.303 458.629 69.6364C458.307 69.9659 457.91 70.2235 457.436 70.4091C456.963 70.5909 456.43 70.6818 455.839 70.6818ZM461.493 70.5V61.7727H462.788V63.1364H462.902C463.084 62.6705 463.377 62.3087 463.783 62.0511C464.188 61.7898 464.675 61.6591 465.243 61.6591C465.819 61.6591 466.298 61.7898 466.68 62.0511C467.067 62.3087 467.368 62.6705 467.584 63.1364H467.675C467.898 62.6856 468.233 62.3277 468.68 62.0625C469.127 61.7936 469.663 61.6591 470.288 61.6591C471.069 61.6591 471.707 61.9034 472.203 62.392C472.699 62.8769 472.947 63.6326 472.947 64.6591V70.5H471.607V64.6591C471.607 64.0152 471.43 63.5549 471.078 63.2784C470.726 63.0019 470.311 62.8636 469.834 62.8636C469.22 62.8636 468.745 63.0492 468.408 63.4205C468.071 63.7879 467.902 64.2538 467.902 64.8182V70.5H466.538V64.5227C466.538 64.0265 466.377 63.6269 466.055 63.3239C465.733 63.017 465.319 62.8636 464.811 62.8636C464.463 62.8636 464.137 62.9564 463.834 63.142C463.535 63.3277 463.292 63.5852 463.107 63.9148C462.925 64.2405 462.834 64.6174 462.834 65.0455V70.5H461.493Z" fill="#0B1D28"/>
<rect width="176" height="128" transform="translate(1 145)" fill="#87CEFF"/>
<rect x="1.5" y="173.5" width="143" height="71" rx="1.5" fill="white"/>
<rect x="1.5" y="173.5" width="143" height="71" rx="1.5" stroke="#001E2E" stroke-linecap="square" stroke-dasharray="6 6"/>
<path d="M58.8182 202.864V214.5H57.4091V202.864H58.8182ZM65.2571 205.773V206.909H60.7344V205.773H65.2571ZM62.0526 203.682H63.3935V212C63.3935 212.379 63.4484 212.663 63.5582 212.852C63.6719 213.038 63.8158 213.163 63.9901 213.227C64.1681 213.288 64.3556 213.318 64.5526 213.318C64.7003 213.318 64.8215 213.311 64.9162 213.295C65.0109 213.277 65.0866 213.261 65.1435 213.25L65.4162 214.455C65.3253 214.489 65.1984 214.523 65.0355 214.557C64.8726 214.595 64.6662 214.614 64.4162 214.614C64.0374 214.614 63.6662 214.532 63.3026 214.369C62.9427 214.206 62.6435 213.958 62.4048 213.625C62.17 213.292 62.0526 212.871 62.0526 212.364V203.682ZM70.8395 214.682C69.9986 214.682 69.2732 214.496 68.6634 214.125C68.0573 213.75 67.5895 213.227 67.2599 212.557C66.9342 211.883 66.7713 211.098 66.7713 210.205C66.7713 209.311 66.9342 208.523 67.2599 207.841C67.5895 207.155 68.0478 206.621 68.6349 206.239C69.2259 205.852 69.9152 205.659 70.7031 205.659C71.1577 205.659 71.6065 205.735 72.0497 205.886C72.4929 206.038 72.8963 206.284 73.2599 206.625C73.6236 206.962 73.9134 207.409 74.1293 207.966C74.3452 208.523 74.4531 209.208 74.4531 210.023V210.591H67.7259V209.432H73.0895C73.0895 208.939 72.991 208.5 72.794 208.114C72.6009 207.727 72.3243 207.422 71.9645 207.199C71.6084 206.975 71.188 206.864 70.7031 206.864C70.169 206.864 69.7069 206.996 69.3168 207.261C68.9304 207.523 68.633 207.864 68.4247 208.284C68.2164 208.705 68.1122 209.155 68.1122 209.636V210.409C68.1122 211.068 68.2259 211.627 68.4531 212.085C68.6842 212.54 69.0043 212.886 69.4134 213.125C69.8224 213.36 70.2978 213.477 70.8395 213.477C71.1918 213.477 71.5099 213.428 71.794 213.33C72.0819 213.227 72.33 213.076 72.5384 212.875C72.7467 212.67 72.9077 212.417 73.0213 212.114L74.3168 212.477C74.1804 212.917 73.9512 213.303 73.6293 213.636C73.3073 213.966 72.9096 214.223 72.4361 214.409C71.9626 214.591 71.4304 214.682 70.8395 214.682ZM76.4929 214.5V205.773H77.7884V207.136H77.902C78.0838 206.67 78.3774 206.309 78.7827 206.051C79.188 205.79 79.6747 205.659 80.2429 205.659C80.8187 205.659 81.2978 205.79 81.6804 206.051C82.0668 206.309 82.3679 206.67 82.5838 207.136H82.6747C82.8982 206.686 83.2334 206.328 83.6804 206.062C84.1274 205.794 84.6634 205.659 85.2884 205.659C86.0687 205.659 86.7069 205.903 87.2031 206.392C87.6993 206.877 87.9474 207.633 87.9474 208.659V214.5H86.6065V208.659C86.6065 208.015 86.4304 207.555 86.0781 207.278C85.7259 207.002 85.3111 206.864 84.8338 206.864C84.2202 206.864 83.7448 207.049 83.4077 207.42C83.0705 207.788 82.902 208.254 82.902 208.818V214.5H81.5384V208.523C81.5384 208.027 81.3774 207.627 81.0554 207.324C80.7334 207.017 80.3187 206.864 79.8111 206.864C79.4626 206.864 79.1368 206.956 78.8338 207.142C78.5346 207.328 78.2921 207.585 78.1065 207.915C77.9247 208.241 77.8338 208.617 77.8338 209.045V214.5H76.4929Z" fill="#0B1D28"/>
<rect width="177" height="128" transform="translate(193 145)" fill="#87CEFF"/>
<rect x="193.5" y="173.5" width="95" height="71" rx="1.5" fill="white"/>
<rect x="193.5" y="173.5" width="95" height="71" rx="1.5" stroke="#001E2E" stroke-linecap="square" stroke-dasharray="6 6"/>
<path d="M226.818 202.864V214.5H225.409V202.864H226.818ZM233.257 205.773V206.909H228.734V205.773H233.257ZM230.053 203.682H231.393V212C231.393 212.379 231.448 212.663 231.558 212.852C231.672 213.038 231.816 213.163 231.99 213.227C232.168 213.288 232.356 213.318 232.553 213.318C232.7 213.318 232.821 213.311 232.916 213.295C233.011 213.277 233.087 213.261 233.143 213.25L233.416 214.455C233.325 214.489 233.198 214.523 233.036 214.557C232.873 214.595 232.666 214.614 232.416 214.614C232.037 214.614 231.666 214.532 231.303 214.369C230.943 214.206 230.643 213.958 230.405 213.625C230.17 213.292 230.053 212.871 230.053 212.364V203.682ZM238.839 214.682C237.999 214.682 237.273 214.496 236.663 214.125C236.057 213.75 235.589 213.227 235.26 212.557C234.934 211.883 234.771 211.098 234.771 210.205C234.771 209.311 234.934 208.523 235.26 207.841C235.589 207.155 236.048 206.621 236.635 206.239C237.226 205.852 237.915 205.659 238.703 205.659C239.158 205.659 239.607 205.735 240.05 205.886C240.493 206.038 240.896 206.284 241.26 206.625C241.624 206.962 241.913 207.409 242.129 207.966C242.345 208.523 242.453 209.208 242.453 210.023V210.591H235.726V209.432H241.089C241.089 208.939 240.991 208.5 240.794 208.114C240.601 207.727 240.324 207.422 239.964 207.199C239.608 206.975 239.188 206.864 238.703 206.864C238.169 206.864 237.707 206.996 237.317 207.261C236.93 207.523 236.633 207.864 236.425 208.284C236.216 208.705 236.112 209.155 236.112 209.636V210.409C236.112 211.068 236.226 211.627 236.453 212.085C236.684 212.54 237.004 212.886 237.413 213.125C237.822 213.36 238.298 213.477 238.839 213.477C239.192 213.477 239.51 213.428 239.794 213.33C240.082 213.227 240.33 213.076 240.538 212.875C240.747 212.67 240.908 212.417 241.021 212.114L242.317 212.477C242.18 212.917 241.951 213.303 241.629 213.636C241.307 213.966 240.91 214.223 240.436 214.409C239.963 214.591 239.43 214.682 238.839 214.682ZM244.493 214.5V205.773H245.788V207.136H245.902C246.084 206.67 246.377 206.309 246.783 206.051C247.188 205.79 247.675 205.659 248.243 205.659C248.819 205.659 249.298 205.79 249.68 206.051C250.067 206.309 250.368 206.67 250.584 207.136H250.675C250.898 206.686 251.233 206.328 251.68 206.062C252.127 205.794 252.663 205.659 253.288 205.659C254.069 205.659 254.707 205.903 255.203 206.392C255.699 206.877 255.947 207.633 255.947 208.659V214.5H254.607V208.659C254.607 208.015 254.43 207.555 254.078 207.278C253.726 207.002 253.311 206.864 252.834 206.864C252.22 206.864 251.745 207.049 251.408 207.42C251.071 207.788 250.902 208.254 250.902 208.818V214.5H249.538V208.523C249.538 208.027 249.377 207.627 249.055 207.324C248.733 207.017 248.319 206.864 247.811 206.864C247.463 206.864 247.137 206.956 246.834 207.142C246.535 207.328 246.292 207.585 246.107 207.915C245.925 208.241 245.834 208.617 245.834 209.045V214.5H244.493Z" fill="#0B1D28"/>
<rect width="176.333" height="128" transform="translate(385.667 145)" fill="#87CEFF"/>
<rect x="386.167" y="145.5" width="71" height="127" rx="1.5" fill="white"/>
<rect x="386.167" y="145.5" width="71" height="127" rx="1.5" stroke="#001E2E" stroke-linecap="square" stroke-dasharray="6 6"/>
<path d="M407.485 202.864V214.5H406.076V202.864H407.485ZM413.924 205.773V206.909H409.401V205.773H413.924ZM410.72 203.682H412.06V212C412.06 212.379 412.115 212.663 412.225 212.852C412.339 213.038 412.483 213.163 412.657 213.227C412.835 213.288 413.023 213.318 413.22 213.318C413.367 213.318 413.488 213.311 413.583 213.295C413.678 213.277 413.754 213.261 413.81 213.25L414.083 214.455C413.992 214.489 413.865 214.523 413.703 214.557C413.54 214.595 413.333 214.614 413.083 214.614C412.704 214.614 412.333 214.532 411.97 214.369C411.61 214.206 411.31 213.958 411.072 213.625C410.837 213.292 410.72 212.871 410.72 212.364V203.682ZM419.506 214.682C418.666 214.682 417.94 214.496 417.33 214.125C416.724 213.75 416.256 213.227 415.927 212.557C415.601 211.883 415.438 211.098 415.438 210.205C415.438 209.311 415.601 208.523 415.927 207.841C416.256 207.155 416.715 206.621 417.302 206.239C417.893 205.852 418.582 205.659 419.37 205.659C419.825 205.659 420.274 205.735 420.717 205.886C421.16 206.038 421.563 206.284 421.927 206.625C422.291 206.962 422.58 207.409 422.796 207.966C423.012 208.523 423.12 209.208 423.12 210.023V210.591H416.393V209.432H421.756C421.756 208.939 421.658 208.5 421.461 208.114C421.268 207.727 420.991 207.422 420.631 207.199C420.275 206.975 419.855 206.864 419.37 206.864C418.836 206.864 418.374 206.996 417.984 207.261C417.597 207.523 417.3 207.864 417.092 208.284C416.883 208.705 416.779 209.155 416.779 209.636V210.409C416.779 211.068 416.893 211.627 417.12 212.085C417.351 212.54 417.671 212.886 418.08 213.125C418.489 213.36 418.965 213.477 419.506 213.477C419.859 213.477 420.177 213.428 420.461 213.33C420.749 213.227 420.997 213.076 421.205 212.875C421.414 212.67 421.575 212.417 421.688 212.114L422.984 212.477C422.847 212.917 422.618 213.303 422.296 213.636C421.974 213.966 421.577 214.223 421.103 214.409C420.63 214.591 420.097 214.682 419.506 214.682ZM425.16 214.5V205.773H426.455V207.136H426.569C426.751 206.67 427.044 206.309 427.45 206.051C427.855 205.79 428.342 205.659 428.91 205.659C429.486 205.659 429.965 205.79 430.347 206.051C430.734 206.309 431.035 206.67 431.251 207.136H431.342C431.565 206.686 431.9 206.328 432.347 206.062C432.794 205.794 433.33 205.659 433.955 205.659C434.736 205.659 435.374 205.903 435.87 206.392C436.366 206.877 436.614 207.633 436.614 208.659V214.5H435.274V208.659C435.274 208.015 435.097 207.555 434.745 207.278C434.393 207.002 433.978 206.864 433.501 206.864C432.887 206.864 432.412 207.049 432.075 207.42C431.738 207.788 431.569 208.254 431.569 208.818V214.5H430.205V208.523C430.205 208.027 430.044 207.627 429.722 207.324C429.4 207.017 428.986 206.864 428.478 206.864C428.13 206.864 427.804 206.956 427.501 207.142C427.202 207.328 426.959 207.585 426.774 207.915C426.592 208.241 426.501 208.617 426.501 209.045V214.5H425.16Z" fill="#0B1D28"/>
</g>
<rect x="0.5" y="0.5" width="562" height="273" rx="2.5" stroke="#006590"/>
<defs>
<clipPath id="clip0_7795_9413">
<rect x="1" y="1" width="561" height="272" rx="2" fill="white"/>
</clipPath>
</defs>
</svg>
