<svg width="563" height="274" viewBox="0 0 563 274" fill="none" xmlns="http://www.w3.org/2000/svg">
<g clip-path="url(#clip0_7795_9388)">
<rect x="1" y="1" width="561" height="272" rx="2" fill="#C8E6FF"/>
<rect width="176" height="128" transform="translate(1 1)" fill="#87CEFF"/>
<rect x="1.5" y="1.5" width="95" height="71" rx="1.5" fill="white"/>
<rect x="1.5" y="1.5" width="95" height="71" rx="1.5" stroke="#001E2E" stroke-linecap="square" stroke-dasharray="6 6"/>
<path d="M34.8182 30.8636V42.5H33.4091V30.8636H34.8182ZM41.2571 33.7727V34.9091H36.7344V33.7727H41.2571ZM38.0526 31.6818H39.3935V40C39.3935 40.3788 39.4484 40.6629 39.5582 40.8523C39.6719 41.0379 39.8158 41.1629 39.9901 41.2273C40.1681 41.2879 40.3556 41.3182 40.5526 41.3182C40.7003 41.3182 40.8215 41.3106 40.9162 41.2955C41.0109 41.2765 41.0866 41.2614 41.1435 41.25L41.4162 42.4545C41.3253 42.4886 41.1984 42.5227 41.0355 42.5568C40.8726 42.5947 40.6662 42.6136 40.4162 42.6136C40.0374 42.6136 39.6662 42.5322 39.3026 42.3693C38.9427 42.2064 38.6435 41.9583 38.4048 41.625C38.17 41.2917 38.0526 40.8712 38.0526 40.3636V31.6818ZM46.8395 42.6818C45.9986 42.6818 45.2732 42.4962 44.6634 42.125C44.0573 41.75 43.5895 41.2273 43.2599 40.5568C42.9342 39.8826 42.7713 39.0985 42.7713 38.2045C42.7713 37.3106 42.9342 36.5227 43.2599 35.8409C43.5895 35.1553 44.0478 34.6212 44.6349 34.2386C45.2259 33.8523 45.9152 33.6591 46.7031 33.6591C47.1577 33.6591 47.6065 33.7348 48.0497 33.8864C48.4929 34.0379 48.8963 34.2841 49.2599 34.625C49.6236 34.9621 49.9134 35.4091 50.1293 35.9659C50.3452 36.5227 50.4531 37.2083 50.4531 38.0227V38.5909H43.7259V37.4318H49.0895C49.0895 36.9394 48.991 36.5 48.794 36.1136C48.6009 35.7273 48.3243 35.4223 47.9645 35.1989C47.6084 34.9754 47.188 34.8636 46.7031 34.8636C46.169 34.8636 45.7069 34.9962 45.3168 35.2614C44.9304 35.5227 44.633 35.8636 44.4247 36.2841C44.2164 36.7045 44.1122 37.1553 44.1122 37.6364V38.4091C44.1122 39.0682 44.2259 39.6269 44.4531 40.0852C44.6842 40.5398 45.0043 40.8864 45.4134 41.125C45.8224 41.3598 46.2978 41.4773 46.8395 41.4773C47.1918 41.4773 47.5099 41.428 47.794 41.3295C48.0819 41.2273 48.33 41.0758 48.5384 40.875C48.7467 40.6705 48.9077 40.4167 49.0213 40.1136L50.3168 40.4773C50.1804 40.9167 49.9512 41.303 49.6293 41.6364C49.3073 41.9659 48.9096 42.2235 48.4361 42.4091C47.9626 42.5909 47.4304 42.6818 46.8395 42.6818ZM52.4929 42.5V33.7727H53.7884V35.1364H53.902C54.0838 34.6705 54.3774 34.3087 54.7827 34.0511C55.188 33.7898 55.6747 33.6591 56.2429 33.6591C56.8187 33.6591 57.2978 33.7898 57.6804 34.0511C58.0668 34.3087 58.3679 34.6705 58.5838 35.1364H58.6747C58.8982 34.6856 59.2334 34.3277 59.6804 34.0625C60.1274 33.7936 60.6634 33.6591 61.2884 33.6591C62.0687 33.6591 62.7069 33.9034 63.2031 34.392C63.6993 34.8769 63.9474 35.6326 63.9474 36.6591V42.5H62.6065V36.6591C62.6065 36.0152 62.4304 35.5549 62.0781 35.2784C61.7259 35.0019 61.3111 34.8636 60.8338 34.8636C60.2202 34.8636 59.7448 35.0492 59.4077 35.4205C59.0705 35.7879 58.902 36.2538 58.902 36.8182V42.5H57.5384V36.5227C57.5384 36.0265 57.3774 35.6269 57.0554 35.3239C56.7334 35.017 56.3187 34.8636 55.8111 34.8636C55.4626 34.8636 55.1368 34.9564 54.8338 35.142C54.5346 35.3277 54.2921 35.5852 54.1065 35.9148C53.9247 36.2405 53.8338 36.6174 53.8338 37.0455V42.5H52.4929Z" fill="#0B1D28"/>
<rect width="176.333" height="128" transform="translate(193.333 1)" fill="#87CEFF"/>
<rect x="193.833" y="1.5" width="71" height="127" rx="1.5" fill="white"/>
<rect x="193.833" y="1.5" width="71" height="127" rx="1.5" stroke="#001E2E" stroke-linecap="square" stroke-dasharray="6 6"/>
<path d="M215.151 58.8636V70.5H213.742V58.8636H215.151ZM221.59 61.7727V62.9091H217.067V61.7727H221.59ZM218.386 59.6818H219.726V68C219.726 68.3788 219.781 68.6629 219.891 68.8523C220.005 69.0379 220.149 69.1629 220.323 69.2273C220.501 69.2879 220.689 69.3182 220.886 69.3182C221.033 69.3182 221.155 69.3106 221.249 69.2955C221.344 69.2765 221.42 69.2614 221.476 69.25L221.749 70.4545C221.658 70.4886 221.531 70.5227 221.369 70.5568C221.206 70.5947 220.999 70.6136 220.749 70.6136C220.37 70.6136 219.999 70.5322 219.636 70.3693C219.276 70.2064 218.976 69.9583 218.738 69.625C218.503 69.2917 218.386 68.8712 218.386 68.3636V59.6818ZM227.172 70.6818C226.332 70.6818 225.606 70.4962 224.996 70.125C224.39 69.75 223.922 69.2273 223.593 68.5568C223.267 67.8826 223.104 67.0985 223.104 66.2045C223.104 65.3106 223.267 64.5227 223.593 63.8409C223.922 63.1553 224.381 62.6212 224.968 62.2386C225.559 61.8523 226.248 61.6591 227.036 61.6591C227.491 61.6591 227.94 61.7348 228.383 61.8864C228.826 62.0379 229.229 62.2841 229.593 62.625C229.957 62.9621 230.246 63.4091 230.462 63.9659C230.678 64.5227 230.786 65.2083 230.786 66.0227V66.5909H224.059V65.4318H229.422C229.422 64.9394 229.324 64.5 229.127 64.1136C228.934 63.7273 228.657 63.4223 228.297 63.1989C227.941 62.9754 227.521 62.8636 227.036 62.8636C226.502 62.8636 226.04 62.9962 225.65 63.2614C225.263 63.5227 224.966 63.8636 224.758 64.2841C224.549 64.7045 224.445 65.1553 224.445 65.6364V66.4091C224.445 67.0682 224.559 67.6269 224.786 68.0852C225.017 68.5398 225.337 68.8864 225.746 69.125C226.155 69.3598 226.631 69.4773 227.172 69.4773C227.525 69.4773 227.843 69.428 228.127 69.3295C228.415 69.2273 228.663 69.0758 228.871 68.875C229.08 68.6705 229.241 68.4167 229.354 68.1136L230.65 68.4773C230.513 68.9167 230.284 69.303 229.962 69.6364C229.64 69.9659 229.243 70.2235 228.769 70.4091C228.296 70.5909 227.763 70.6818 227.172 70.6818ZM232.826 70.5V61.7727H234.121V63.1364H234.235C234.417 62.6705 234.71 62.3087 235.116 62.0511C235.521 61.7898 236.008 61.6591 236.576 61.6591C237.152 61.6591 237.631 61.7898 238.013 62.0511C238.4 62.3087 238.701 62.6705 238.917 63.1364H239.008C239.231 62.6856 239.566 62.3277 240.013 62.0625C240.46 61.7936 240.996 61.6591 241.621 61.6591C242.402 61.6591 243.04 61.9034 243.536 62.392C244.032 62.8769 244.28 63.6326 244.28 64.6591V70.5H242.94V64.6591C242.94 64.0152 242.763 63.5549 242.411 63.2784C242.059 63.0019 241.644 62.8636 241.167 62.8636C240.553 62.8636 240.078 63.0492 239.741 63.4205C239.404 63.7879 239.235 64.2538 239.235 64.8182V70.5H237.871V64.5227C237.871 64.0265 237.71 63.6269 237.388 63.3239C237.066 63.017 236.652 62.8636 236.144 62.8636C235.796 62.8636 235.47 62.9564 235.167 63.142C234.868 63.3277 234.625 63.5852 234.44 63.9148C234.258 64.2405 234.167 64.6174 234.167 65.0455V70.5H232.826Z" fill="#0B1D28"/>
<rect width="176" height="128" transform="translate(386 1)" fill="#87CEFF"/>
<rect x="386.5" y="1.5" width="143" height="71" rx="1.5" fill="white"/>
<rect x="386.5" y="1.5" width="143" height="71" rx="1.5" stroke="#001E2E" stroke-linecap="square" stroke-dasharray="6 6"/>
<path d="M443.818 30.8636V42.5H442.409V30.8636H443.818ZM450.257 33.7727V34.9091H445.734V33.7727H450.257ZM447.053 31.6818H448.393V40C448.393 40.3788 448.448 40.6629 448.558 40.8523C448.672 41.0379 448.816 41.1629 448.99 41.2273C449.168 41.2879 449.356 41.3182 449.553 41.3182C449.7 41.3182 449.821 41.3106 449.916 41.2955C450.011 41.2765 450.087 41.2614 450.143 41.25L450.416 42.4545C450.325 42.4886 450.198 42.5227 450.036 42.5568C449.873 42.5947 449.666 42.6136 449.416 42.6136C449.037 42.6136 448.666 42.5322 448.303 42.3693C447.943 42.2064 447.643 41.9583 447.405 41.625C447.17 41.2917 447.053 40.8712 447.053 40.3636V31.6818ZM455.839 42.6818C454.999 42.6818 454.273 42.4962 453.663 42.125C453.057 41.75 452.589 41.2273 452.26 40.5568C451.934 39.8826 451.771 39.0985 451.771 38.2045C451.771 37.3106 451.934 36.5227 452.26 35.8409C452.589 35.1553 453.048 34.6212 453.635 34.2386C454.226 33.8523 454.915 33.6591 455.703 33.6591C456.158 33.6591 456.607 33.7348 457.05 33.8864C457.493 34.0379 457.896 34.2841 458.26 34.625C458.624 34.9621 458.913 35.4091 459.129 35.9659C459.345 36.5227 459.453 37.2083 459.453 38.0227V38.5909H452.726V37.4318H458.089C458.089 36.9394 457.991 36.5 457.794 36.1136C457.601 35.7273 457.324 35.4223 456.964 35.1989C456.608 34.9754 456.188 34.8636 455.703 34.8636C455.169 34.8636 454.707 34.9962 454.317 35.2614C453.93 35.5227 453.633 35.8636 453.425 36.2841C453.216 36.7045 453.112 37.1553 453.112 37.6364V38.4091C453.112 39.0682 453.226 39.6269 453.453 40.0852C453.684 40.5398 454.004 40.8864 454.413 41.125C454.822 41.3598 455.298 41.4773 455.839 41.4773C456.192 41.4773 456.51 41.428 456.794 41.3295C457.082 41.2273 457.33 41.0758 457.538 40.875C457.747 40.6705 457.908 40.4167 458.021 40.1136L459.317 40.4773C459.18 40.9167 458.951 41.303 458.629 41.6364C458.307 41.9659 457.91 42.2235 457.436 42.4091C456.963 42.5909 456.43 42.6818 455.839 42.6818ZM461.493 42.5V33.7727H462.788V35.1364H462.902C463.084 34.6705 463.377 34.3087 463.783 34.0511C464.188 33.7898 464.675 33.6591 465.243 33.6591C465.819 33.6591 466.298 33.7898 466.68 34.0511C467.067 34.3087 467.368 34.6705 467.584 35.1364H467.675C467.898 34.6856 468.233 34.3277 468.68 34.0625C469.127 33.7936 469.663 33.6591 470.288 33.6591C471.069 33.6591 471.707 33.9034 472.203 34.392C472.699 34.8769 472.947 35.6326 472.947 36.6591V42.5H471.607V36.6591C471.607 36.0152 471.43 35.5549 471.078 35.2784C470.726 35.0019 470.311 34.8636 469.834 34.8636C469.22 34.8636 468.745 35.0492 468.408 35.4205C468.071 35.7879 467.902 36.2538 467.902 36.8182V42.5H466.538V36.5227C466.538 36.0265 466.377 35.6269 466.055 35.3239C465.733 35.017 465.319 34.8636 464.811 34.8636C464.463 34.8636 464.137 34.9564 463.834 35.142C463.535 35.3277 463.292 35.5852 463.107 35.9148C462.925 36.2405 462.834 36.6174 462.834 37.0455V42.5H461.493Z" fill="#0B1D28"/>
<rect width="176" height="128" transform="translate(1 145)" fill="#87CEFF"/>
<rect x="1.5" y="145.5" width="143" height="71" rx="1.5" fill="white"/>
<rect x="1.5" y="145.5" width="143" height="71" rx="1.5" stroke="#001E2E" stroke-linecap="square" stroke-dasharray="6 6"/>
<path d="M58.8182 174.864V186.5H57.4091V174.864H58.8182ZM65.2571 177.773V178.909H60.7344V177.773H65.2571ZM62.0526 175.682H63.3935V184C63.3935 184.379 63.4484 184.663 63.5582 184.852C63.6719 185.038 63.8158 185.163 63.9901 185.227C64.1681 185.288 64.3556 185.318 64.5526 185.318C64.7003 185.318 64.8215 185.311 64.9162 185.295C65.0109 185.277 65.0866 185.261 65.1435 185.25L65.4162 186.455C65.3253 186.489 65.1984 186.523 65.0355 186.557C64.8726 186.595 64.6662 186.614 64.4162 186.614C64.0374 186.614 63.6662 186.532 63.3026 186.369C62.9427 186.206 62.6435 185.958 62.4048 185.625C62.17 185.292 62.0526 184.871 62.0526 184.364V175.682ZM70.8395 186.682C69.9986 186.682 69.2732 186.496 68.6634 186.125C68.0573 185.75 67.5895 185.227 67.2599 184.557C66.9342 183.883 66.7713 183.098 66.7713 182.205C66.7713 181.311 66.9342 180.523 67.2599 179.841C67.5895 179.155 68.0478 178.621 68.6349 178.239C69.2259 177.852 69.9152 177.659 70.7031 177.659C71.1577 177.659 71.6065 177.735 72.0497 177.886C72.4929 178.038 72.8963 178.284 73.2599 178.625C73.6236 178.962 73.9134 179.409 74.1293 179.966C74.3452 180.523 74.4531 181.208 74.4531 182.023V182.591H67.7259V181.432H73.0895C73.0895 180.939 72.991 180.5 72.794 180.114C72.6009 179.727 72.3243 179.422 71.9645 179.199C71.6084 178.975 71.188 178.864 70.7031 178.864C70.169 178.864 69.7069 178.996 69.3168 179.261C68.9304 179.523 68.633 179.864 68.4247 180.284C68.2164 180.705 68.1122 181.155 68.1122 181.636V182.409C68.1122 183.068 68.2259 183.627 68.4531 184.085C68.6842 184.54 69.0043 184.886 69.4134 185.125C69.8224 185.36 70.2978 185.477 70.8395 185.477C71.1918 185.477 71.5099 185.428 71.794 185.33C72.0819 185.227 72.33 185.076 72.5384 184.875C72.7467 184.67 72.9077 184.417 73.0213 184.114L74.3168 184.477C74.1804 184.917 73.9512 185.303 73.6293 185.636C73.3073 185.966 72.9096 186.223 72.4361 186.409C71.9626 186.591 71.4304 186.682 70.8395 186.682ZM76.4929 186.5V177.773H77.7884V179.136H77.902C78.0838 178.67 78.3774 178.309 78.7827 178.051C79.188 177.79 79.6747 177.659 80.2429 177.659C80.8187 177.659 81.2978 177.79 81.6804 178.051C82.0668 178.309 82.3679 178.67 82.5838 179.136H82.6747C82.8982 178.686 83.2334 178.328 83.6804 178.062C84.1274 177.794 84.6634 177.659 85.2884 177.659C86.0687 177.659 86.7069 177.903 87.2031 178.392C87.6993 178.877 87.9474 179.633 87.9474 180.659V186.5H86.6065V180.659C86.6065 180.015 86.4304 179.555 86.0781 179.278C85.7259 179.002 85.3111 178.864 84.8338 178.864C84.2202 178.864 83.7448 179.049 83.4077 179.42C83.0705 179.788 82.902 180.254 82.902 180.818V186.5H81.5384V180.523C81.5384 180.027 81.3774 179.627 81.0554 179.324C80.7334 179.017 80.3187 178.864 79.8111 178.864C79.4626 178.864 79.1368 178.956 78.8338 179.142C78.5346 179.328 78.2921 179.585 78.1065 179.915C77.9247 180.241 77.8338 180.617 77.8338 181.045V186.5H76.4929Z" fill="#0B1D28"/>
<rect width="177" height="128" transform="translate(193 145)" fill="#87CEFF"/>
<rect x="193.5" y="145.5" width="95" height="71" rx="1.5" fill="white"/>
<rect x="193.5" y="145.5" width="95" height="71" rx="1.5" stroke="#001E2E" stroke-linecap="square" stroke-dasharray="6 6"/>
<path d="M226.818 174.864V186.5H225.409V174.864H226.818ZM233.257 177.773V178.909H228.734V177.773H233.257ZM230.053 175.682H231.393V184C231.393 184.379 231.448 184.663 231.558 184.852C231.672 185.038 231.816 185.163 231.99 185.227C232.168 185.288 232.356 185.318 232.553 185.318C232.7 185.318 232.821 185.311 232.916 185.295C233.011 185.277 233.087 185.261 233.143 185.25L233.416 186.455C233.325 186.489 233.198 186.523 233.036 186.557C232.873 186.595 232.666 186.614 232.416 186.614C232.037 186.614 231.666 186.532 231.303 186.369C230.943 186.206 230.643 185.958 230.405 185.625C230.17 185.292 230.053 184.871 230.053 184.364V175.682ZM238.839 186.682C237.999 186.682 237.273 186.496 236.663 186.125C236.057 185.75 235.589 185.227 235.26 184.557C234.934 183.883 234.771 183.098 234.771 182.205C234.771 181.311 234.934 180.523 235.26 179.841C235.589 179.155 236.048 178.621 236.635 178.239C237.226 177.852 237.915 177.659 238.703 177.659C239.158 177.659 239.607 177.735 240.05 177.886C240.493 178.038 240.896 178.284 241.26 178.625C241.624 178.962 241.913 179.409 242.129 179.966C242.345 180.523 242.453 181.208 242.453 182.023V182.591H235.726V181.432H241.089C241.089 180.939 240.991 180.5 240.794 180.114C240.601 179.727 240.324 179.422 239.964 179.199C239.608 178.975 239.188 178.864 238.703 178.864C238.169 178.864 237.707 178.996 237.317 179.261C236.93 179.523 236.633 179.864 236.425 180.284C236.216 180.705 236.112 181.155 236.112 181.636V182.409C236.112 183.068 236.226 183.627 236.453 184.085C236.684 184.54 237.004 184.886 237.413 185.125C237.822 185.36 238.298 185.477 238.839 185.477C239.192 185.477 239.51 185.428 239.794 185.33C240.082 185.227 240.33 185.076 240.538 184.875C240.747 184.67 240.908 184.417 241.021 184.114L242.317 184.477C242.18 184.917 241.951 185.303 241.629 185.636C241.307 185.966 240.91 186.223 240.436 186.409C239.963 186.591 239.43 186.682 238.839 186.682ZM244.493 186.5V177.773H245.788V179.136H245.902C246.084 178.67 246.377 178.309 246.783 178.051C247.188 177.79 247.675 177.659 248.243 177.659C248.819 177.659 249.298 177.79 249.68 178.051C250.067 178.309 250.368 178.67 250.584 179.136H250.675C250.898 178.686 251.233 178.328 251.68 178.062C252.127 177.794 252.663 177.659 253.288 177.659C254.069 177.659 254.707 177.903 255.203 178.392C255.699 178.877 255.947 179.633 255.947 180.659V186.5H254.607V180.659C254.607 180.015 254.43 179.555 254.078 179.278C253.726 179.002 253.311 178.864 252.834 178.864C252.22 178.864 251.745 179.049 251.408 179.42C251.071 179.788 250.902 180.254 250.902 180.818V186.5H249.538V180.523C249.538 180.027 249.377 179.627 249.055 179.324C248.733 179.017 248.319 178.864 247.811 178.864C247.463 178.864 247.137 178.956 246.834 179.142C246.535 179.328 246.292 179.585 246.107 179.915C245.925 180.241 245.834 180.617 245.834 181.045V186.5H244.493Z" fill="#0B1D28"/>
<rect width="176.333" height="128" transform="translate(385.667 145)" fill="#87CEFF"/>
<rect x="386.167" y="145.5" width="71" height="127" rx="1.5" fill="white"/>
<rect x="386.167" y="145.5" width="71" height="127" rx="1.5" stroke="#001E2E" stroke-linecap="square" stroke-dasharray="6 6"/>
<path d="M407.485 202.864V214.5H406.076V202.864H407.485ZM413.924 205.773V206.909H409.401V205.773H413.924ZM410.72 203.682H412.06V212C412.06 212.379 412.115 212.663 412.225 212.852C412.339 213.038 412.483 213.163 412.657 213.227C412.835 213.288 413.023 213.318 413.22 213.318C413.367 213.318 413.488 213.311 413.583 213.295C413.678 213.277 413.754 213.261 413.81 213.25L414.083 214.455C413.992 214.489 413.865 214.523 413.703 214.557C413.54 214.595 413.333 214.614 413.083 214.614C412.704 214.614 412.333 214.532 411.97 214.369C411.61 214.206 411.31 213.958 411.072 213.625C410.837 213.292 410.72 212.871 410.72 212.364V203.682ZM419.506 214.682C418.666 214.682 417.94 214.496 417.33 214.125C416.724 213.75 416.256 213.227 415.927 212.557C415.601 211.883 415.438 211.098 415.438 210.205C415.438 209.311 415.601 208.523 415.927 207.841C416.256 207.155 416.715 206.621 417.302 206.239C417.893 205.852 418.582 205.659 419.37 205.659C419.825 205.659 420.274 205.735 420.717 205.886C421.16 206.038 421.563 206.284 421.927 206.625C422.291 206.962 422.58 207.409 422.796 207.966C423.012 208.523 423.12 209.208 423.12 210.023V210.591H416.393V209.432H421.756C421.756 208.939 421.658 208.5 421.461 208.114C421.268 207.727 420.991 207.422 420.631 207.199C420.275 206.975 419.855 206.864 419.37 206.864C418.836 206.864 418.374 206.996 417.984 207.261C417.597 207.523 417.3 207.864 417.092 208.284C416.883 208.705 416.779 209.155 416.779 209.636V210.409C416.779 211.068 416.893 211.627 417.12 212.085C417.351 212.54 417.671 212.886 418.08 213.125C418.489 213.36 418.965 213.477 419.506 213.477C419.859 213.477 420.177 213.428 420.461 213.33C420.749 213.227 420.997 213.076 421.205 212.875C421.414 212.67 421.575 212.417 421.688 212.114L422.984 212.477C422.847 212.917 422.618 213.303 422.296 213.636C421.974 213.966 421.577 214.223 421.103 214.409C420.63 214.591 420.097 214.682 419.506 214.682ZM425.16 214.5V205.773H426.455V207.136H426.569C426.751 206.67 427.044 206.309 427.45 206.051C427.855 205.79 428.342 205.659 428.91 205.659C429.486 205.659 429.965 205.79 430.347 206.051C430.734 206.309 431.035 206.67 431.251 207.136H431.342C431.565 206.686 431.9 206.328 432.347 206.062C432.794 205.794 433.33 205.659 433.955 205.659C434.736 205.659 435.374 205.903 435.87 206.392C436.366 206.877 436.614 207.633 436.614 208.659V214.5H435.274V208.659C435.274 208.015 435.097 207.555 434.745 207.278C434.393 207.002 433.978 206.864 433.501 206.864C432.887 206.864 432.412 207.049 432.075 207.42C431.738 207.788 431.569 208.254 431.569 208.818V214.5H430.205V208.523C430.205 208.027 430.044 207.627 429.722 207.324C429.4 207.017 428.986 206.864 428.478 206.864C428.13 206.864 427.804 206.956 427.501 207.142C427.202 207.328 426.959 207.585 426.774 207.915C426.592 208.241 426.501 208.617 426.501 209.045V214.5H425.16Z" fill="#0B1D28"/>
</g>
<rect x="0.5" y="0.5" width="562" height="273" rx="2.5" stroke="#006590"/>
<defs>
<clipPath id="clip0_7795_9388">
<rect x="1" y="1" width="561" height="272" rx="2" fill="white"/>
</clipPath>
</defs>
</svg>
