<svg width="676" height="316" viewBox="0 0 676 316" fill="none" xmlns="http://www.w3.org/2000/svg">
<g clip-path="url(#clip0_7884_3635)">
<g clip-path="url(#clip1_7884_3635)">
<rect y="12" width="676" height="272" rx="4" fill="#C8E6FF"/>
<rect width="156" height="128" transform="translate(0 12)" fill="#87CEFF"/>
<rect x="0.5" y="40.5" width="155" height="71" rx="1.5" fill="white"/>
<rect x="0.5" y="40.5" width="155" height="71" rx="1.5" stroke="#001E2E" stroke-linecap="square" stroke-dasharray="6 6"/>
<path d="M43.9091 81.5V69.8636H50.8864V71.1136H45.3182V75.0455H50.3636V76.2955H45.3182V81.5H43.9091ZM53.1179 81.5V72.7727H54.4588V81.5H53.1179ZM53.7997 71.3182C53.5384 71.3182 53.313 71.2292 53.1236 71.0511C52.938 70.8731 52.8452 70.6591 52.8452 70.4091C52.8452 70.1591 52.938 69.9451 53.1236 69.767C53.313 69.589 53.5384 69.5 53.7997 69.5C54.0611 69.5 54.2846 69.589 54.4702 69.767C54.6596 69.9451 54.7543 70.1591 54.7543 70.4091C54.7543 70.6591 54.6596 70.8731 54.4702 71.0511C54.2846 71.2292 54.0611 71.3182 53.7997 71.3182ZM56.9148 81.5V72.7727H58.2102V74.0909H58.3011C58.4602 73.6591 58.7481 73.3087 59.1648 73.0398C59.5814 72.7708 60.0511 72.6364 60.5739 72.6364C60.6723 72.6364 60.7955 72.6383 60.9432 72.642C61.0909 72.6458 61.2027 72.6515 61.2784 72.6591V74.0227C61.233 74.0114 61.1288 73.9943 60.9659 73.9716C60.8068 73.9451 60.6383 73.9318 60.4602 73.9318C60.036 73.9318 59.6572 74.0208 59.3239 74.1989C58.9943 74.3731 58.733 74.6155 58.5398 74.9261C58.3504 75.233 58.2557 75.5833 58.2557 75.9773V81.5H56.9148ZM69.0497 74.7273L67.8452 75.0682C67.7694 74.8674 67.6577 74.6723 67.5099 74.483C67.366 74.2898 67.169 74.1307 66.919 74.0057C66.669 73.8807 66.349 73.8182 65.9588 73.8182C65.4247 73.8182 64.9796 73.9413 64.6236 74.1875C64.2713 74.4299 64.0952 74.7386 64.0952 75.1136C64.0952 75.447 64.2164 75.7102 64.4588 75.9034C64.7012 76.0966 65.08 76.2576 65.5952 76.3864L66.8906 76.7045C67.6709 76.8939 68.2524 77.1837 68.6349 77.5739C69.0175 77.9602 69.2088 78.4583 69.2088 79.0682C69.2088 79.5682 69.0649 80.0152 68.777 80.4091C68.4929 80.803 68.0952 81.1136 67.5838 81.3409C67.0724 81.5682 66.4777 81.6818 65.7997 81.6818C64.9096 81.6818 64.1728 81.4886 63.5895 81.1023C63.0062 80.7159 62.6368 80.1515 62.4815 79.4091L63.7543 79.0909C63.8755 79.5606 64.1046 79.9129 64.4418 80.1477C64.7827 80.3826 65.2277 80.5 65.777 80.5C66.402 80.5 66.8982 80.3674 67.2656 80.1023C67.6368 79.8333 67.8224 79.5114 67.8224 79.1364C67.8224 78.8333 67.7164 78.5795 67.5043 78.375C67.2921 78.1667 66.9664 78.0114 66.527 77.9091L65.0724 77.5682C64.2732 77.3788 63.6861 77.0852 63.3111 76.6875C62.9399 76.286 62.7543 75.7841 62.7543 75.1818C62.7543 74.6894 62.8925 74.2538 63.169 73.875C63.4493 73.4962 63.83 73.1989 64.3111 72.983C64.7959 72.767 65.3452 72.6591 65.9588 72.6591C66.8224 72.6591 67.5005 72.8485 67.9929 73.2273C68.4891 73.6061 68.8414 74.1061 69.0497 74.7273ZM75.0227 72.7727V73.9091H70.5V72.7727H75.0227ZM71.8182 70.6818H73.1591V79C73.1591 79.3788 73.214 79.6629 73.3239 79.8523C73.4375 80.0379 73.5814 80.1629 73.7557 80.2273C73.9337 80.2879 74.1212 80.3182 74.3182 80.3182C74.4659 80.3182 74.5871 80.3106 74.6818 80.2955C74.7765 80.2765 74.8523 80.2614 74.9091 80.25L75.1818 81.4545C75.0909 81.4886 74.964 81.5227 74.8011 81.5568C74.6383 81.5947 74.4318 81.6136 74.1818 81.6136C73.803 81.6136 73.4318 81.5322 73.0682 81.3693C72.7083 81.2064 72.4091 80.9583 72.1705 80.625C71.9356 80.2917 71.8182 79.8712 71.8182 79.3636V70.6818ZM81.5398 81.5V72.7727H82.8807V81.5H81.5398ZM82.2216 71.3182C81.9602 71.3182 81.7348 71.2292 81.5455 71.0511C81.3598 70.8731 81.267 70.6591 81.267 70.4091C81.267 70.1591 81.3598 69.9451 81.5455 69.767C81.7348 69.589 81.9602 69.5 82.2216 69.5C82.483 69.5 82.7064 69.589 82.892 69.767C83.0814 69.9451 83.1761 70.1591 83.1761 70.4091C83.1761 70.6591 83.0814 70.8731 82.892 71.0511C82.7064 71.2292 82.483 71.3182 82.2216 71.3182ZM89.1321 72.7727V73.9091H84.6094V72.7727H89.1321ZM85.9276 70.6818H87.2685V79C87.2685 79.3788 87.3234 79.6629 87.4332 79.8523C87.5469 80.0379 87.6908 80.1629 87.8651 80.2273C88.0431 80.2879 88.2306 80.3182 88.4276 80.3182C88.5753 80.3182 88.6965 80.3106 88.7912 80.2955C88.8859 80.2765 88.9616 80.2614 89.0185 80.25L89.2912 81.4545C89.2003 81.4886 89.0734 81.5227 88.9105 81.5568C88.7476 81.5947 88.5412 81.6136 88.2912 81.6136C87.9124 81.6136 87.5412 81.5322 87.1776 81.3693C86.8177 81.2064 86.5185 80.9583 86.2798 80.625C86.045 80.2917 85.9276 79.8712 85.9276 79.3636V70.6818ZM94.7145 81.6818C93.8736 81.6818 93.1482 81.4962 92.5384 81.125C91.9323 80.75 91.4645 80.2273 91.1349 79.5568C90.8092 78.8826 90.6463 78.0985 90.6463 77.2045C90.6463 76.3106 90.8092 75.5227 91.1349 74.8409C91.4645 74.1553 91.9228 73.6212 92.5099 73.2386C93.1009 72.8523 93.7902 72.6591 94.5781 72.6591C95.0327 72.6591 95.4815 72.7348 95.9247 72.8864C96.3679 73.0379 96.7713 73.2841 97.1349 73.625C97.4986 73.9621 97.7884 74.4091 98.0043 74.9659C98.2202 75.5227 98.3281 76.2083 98.3281 77.0227V77.5909H91.6009V76.4318H96.9645C96.9645 75.9394 96.866 75.5 96.669 75.1136C96.4759 74.7273 96.1993 74.4223 95.8395 74.1989C95.4834 73.9754 95.063 73.8636 94.5781 73.8636C94.044 73.8636 93.5819 73.9962 93.1918 74.2614C92.8054 74.5227 92.508 74.8636 92.2997 75.2841C92.0914 75.7045 91.9872 76.1553 91.9872 76.6364V77.4091C91.9872 78.0682 92.1009 78.6269 92.3281 79.0852C92.5592 79.5398 92.8793 79.8864 93.2884 80.125C93.6974 80.3598 94.1728 80.4773 94.7145 80.4773C95.0668 80.4773 95.3849 80.428 95.669 80.3295C95.9569 80.2273 96.205 80.0758 96.4134 79.875C96.6217 79.6705 96.7827 79.4167 96.8963 79.1136L98.1918 79.4773C98.0554 79.9167 97.8262 80.303 97.5043 80.6364C97.1823 80.9659 96.7846 81.2235 96.3111 81.4091C95.8376 81.5909 95.3054 81.6818 94.7145 81.6818ZM100.368 81.5V72.7727H101.663V74.1364H101.777C101.959 73.6705 102.252 73.3087 102.658 73.0511C103.063 72.7898 103.55 72.6591 104.118 72.6591C104.694 72.6591 105.173 72.7898 105.555 73.0511C105.942 73.3087 106.243 73.6705 106.459 74.1364H106.55C106.773 73.6856 107.108 73.3277 107.555 73.0625C108.002 72.7936 108.538 72.6591 109.163 72.6591C109.944 72.6591 110.582 72.9034 111.078 73.392C111.574 73.8769 111.822 74.6326 111.822 75.6591V81.5H110.482V75.6591C110.482 75.0152 110.305 74.5549 109.953 74.2784C109.601 74.0019 109.186 73.8636 108.709 73.8636C108.095 73.8636 107.62 74.0492 107.283 74.4205C106.946 74.7879 106.777 75.2538 106.777 75.8182V81.5H105.413V75.5227C105.413 75.0265 105.252 74.6269 104.93 74.3239C104.608 74.017 104.194 73.8636 103.686 73.8636C103.338 73.8636 103.012 73.9564 102.709 74.142C102.41 74.3277 102.167 74.5852 101.982 74.9148C101.8 75.2405 101.709 75.6174 101.709 76.0455V81.5H100.368Z" fill="#0B1D28"/>
<rect width="156" height="128" transform="translate(172 12)" fill="#87CEFF"/>
<rect x="172.5" y="40.5" width="155" height="71" rx="1.5" fill="white"/>
<rect x="172.5" y="40.5" width="155" height="71" rx="1.5" stroke="#001E2E" stroke-linecap="square" stroke-dasharray="6 6"/>
<path d="M210.273 72.7727C210.205 72.197 209.928 71.75 209.443 71.4318C208.958 71.1136 208.364 70.9545 207.659 70.9545C207.144 70.9545 206.693 71.0379 206.307 71.2045C205.924 71.3712 205.625 71.6004 205.409 71.892C205.197 72.1837 205.091 72.5152 205.091 72.8864C205.091 73.197 205.165 73.464 205.312 73.6875C205.464 73.9072 205.657 74.0909 205.892 74.2386C206.127 74.3826 206.373 74.5019 206.631 74.5966C206.888 74.6875 207.125 74.7614 207.341 74.8182L208.523 75.1364C208.826 75.2159 209.163 75.3258 209.534 75.4659C209.909 75.6061 210.267 75.7973 210.608 76.0398C210.953 76.2784 211.237 76.5852 211.46 76.9602C211.684 77.3352 211.795 77.7955 211.795 78.3409C211.795 78.9697 211.631 79.5379 211.301 80.0455C210.975 80.553 210.498 80.9564 209.869 81.2557C209.244 81.5549 208.485 81.7045 207.591 81.7045C206.758 81.7045 206.036 81.5701 205.426 81.3011C204.82 81.0322 204.343 80.6572 203.994 80.1761C203.65 79.6951 203.455 79.1364 203.409 78.5H204.864C204.902 78.9394 205.049 79.303 205.307 79.5909C205.568 79.875 205.898 80.0871 206.295 80.2273C206.697 80.3636 207.129 80.4318 207.591 80.4318C208.129 80.4318 208.612 80.3447 209.04 80.1705C209.468 79.9924 209.807 79.7462 210.057 79.4318C210.307 79.1136 210.432 78.7424 210.432 78.3182C210.432 77.9318 210.324 77.6174 210.108 77.375C209.892 77.1326 209.608 76.9356 209.256 76.7841C208.903 76.6326 208.523 76.5 208.114 76.3864L206.682 75.9773C205.773 75.7159 205.053 75.3428 204.523 74.858C203.992 74.3731 203.727 73.7386 203.727 72.9545C203.727 72.303 203.903 71.7348 204.256 71.25C204.612 70.7614 205.089 70.3826 205.688 70.1136C206.29 69.8409 206.962 69.7045 207.705 69.7045C208.455 69.7045 209.121 69.839 209.705 70.108C210.288 70.3731 210.75 70.7367 211.091 71.1989C211.436 71.661 211.617 72.1856 211.636 72.7727H210.273ZM217.589 81.6818C216.749 81.6818 216.023 81.4962 215.413 81.125C214.807 80.75 214.339 80.2273 214.01 79.5568C213.684 78.8826 213.521 78.0985 213.521 77.2045C213.521 76.3106 213.684 75.5227 214.01 74.8409C214.339 74.1553 214.798 73.6212 215.385 73.2386C215.976 72.8523 216.665 72.6591 217.453 72.6591C217.908 72.6591 218.357 72.7348 218.8 72.8864C219.243 73.0379 219.646 73.2841 220.01 73.625C220.374 73.9621 220.663 74.4091 220.879 74.9659C221.095 75.5227 221.203 76.2083 221.203 77.0227V77.5909H214.476V76.4318H219.839C219.839 75.9394 219.741 75.5 219.544 75.1136C219.351 74.7273 219.074 74.4223 218.714 74.1989C218.358 73.9754 217.938 73.8636 217.453 73.8636C216.919 73.8636 216.457 73.9962 216.067 74.2614C215.68 74.5227 215.383 74.8636 215.175 75.2841C214.966 75.7045 214.862 76.1553 214.862 76.6364V77.4091C214.862 78.0682 214.976 78.6269 215.203 79.0852C215.434 79.5398 215.754 79.8864 216.163 80.125C216.572 80.3598 217.048 80.4773 217.589 80.4773C217.942 80.4773 218.26 80.428 218.544 80.3295C218.832 80.2273 219.08 80.0758 219.288 79.875C219.497 79.6705 219.658 79.4167 219.771 79.1136L221.067 79.4773C220.93 79.9167 220.701 80.303 220.379 80.6364C220.057 80.9659 219.66 81.2235 219.186 81.4091C218.713 81.5909 218.18 81.6818 217.589 81.6818ZM226.788 81.6818C225.97 81.6818 225.266 81.4886 224.675 81.1023C224.084 80.7159 223.629 80.1837 223.311 79.5057C222.993 78.8277 222.834 78.053 222.834 77.1818C222.834 76.2955 222.997 75.5133 223.322 74.8352C223.652 74.1534 224.11 73.6212 224.697 73.2386C225.288 72.8523 225.978 72.6591 226.766 72.6591C227.379 72.6591 227.932 72.7727 228.425 73C228.917 73.2273 229.321 73.5455 229.635 73.9545C229.949 74.3636 230.144 74.8409 230.22 75.3864H228.879C228.777 74.9886 228.55 74.6364 228.197 74.3295C227.849 74.0189 227.379 73.8636 226.788 73.8636C226.266 73.8636 225.807 74 225.413 74.2727C225.023 74.5417 224.718 74.9223 224.499 75.4148C224.283 75.9034 224.175 76.4773 224.175 77.1364C224.175 77.8106 224.281 78.3977 224.493 78.8977C224.709 79.3977 225.012 79.786 225.402 80.0625C225.796 80.339 226.258 80.4773 226.788 80.4773C227.137 80.4773 227.453 80.4167 227.737 80.2955C228.021 80.1742 228.262 80 228.459 79.7727C228.656 79.5455 228.796 79.2727 228.879 78.9545H230.22C230.144 79.4697 229.957 79.9337 229.658 80.3466C229.362 80.7557 228.97 81.0814 228.482 81.3239C227.997 81.5625 227.432 81.6818 226.788 81.6818ZM235.726 81.6818C234.938 81.6818 234.247 81.4943 233.652 81.1193C233.061 80.7443 232.599 80.2197 232.266 79.5455C231.936 78.8712 231.771 78.0833 231.771 77.1818C231.771 76.2727 231.936 75.4792 232.266 74.8011C232.599 74.1231 233.061 73.5966 233.652 73.2216C234.247 72.8466 234.938 72.6591 235.726 72.6591C236.514 72.6591 237.203 72.8466 237.794 73.2216C238.389 73.5966 238.851 74.1231 239.18 74.8011C239.514 75.4792 239.68 76.2727 239.68 77.1818C239.68 78.0833 239.514 78.8712 239.18 79.5455C238.851 80.2197 238.389 80.7443 237.794 81.1193C237.203 81.4943 236.514 81.6818 235.726 81.6818ZM235.726 80.4773C236.324 80.4773 236.817 80.3239 237.203 80.017C237.589 79.7102 237.875 79.3068 238.061 78.8068C238.247 78.3068 238.339 77.7652 238.339 77.1818C238.339 76.5985 238.247 76.0549 238.061 75.5511C237.875 75.0473 237.589 74.6402 237.203 74.3295C236.817 74.0189 236.324 73.8636 235.726 73.8636C235.127 73.8636 234.635 74.0189 234.249 74.3295C233.862 74.6402 233.576 75.0473 233.391 75.5511C233.205 76.0549 233.112 76.5985 233.112 77.1818C233.112 77.7652 233.205 78.3068 233.391 78.8068C233.576 79.3068 233.862 79.7102 234.249 80.017C234.635 80.3239 235.127 80.4773 235.726 80.4773ZM243.068 76.25V81.5H241.727V72.7727H243.023V74.1364H243.136C243.341 73.6932 243.652 73.3371 244.068 73.0682C244.485 72.7955 245.023 72.6591 245.682 72.6591C246.273 72.6591 246.79 72.7803 247.233 73.0227C247.676 73.2614 248.021 73.625 248.267 74.1136C248.513 74.5985 248.636 75.2121 248.636 75.9545V81.5H247.295V76.0455C247.295 75.3598 247.117 74.8258 246.761 74.4432C246.405 74.0568 245.917 73.8636 245.295 73.8636C244.867 73.8636 244.485 73.9564 244.148 74.142C243.814 74.3277 243.551 74.5985 243.358 74.9545C243.165 75.3106 243.068 75.7424 243.068 76.25ZM254.382 81.6818C253.655 81.6818 253.013 81.4981 252.456 81.1307C251.899 80.7595 251.464 80.2367 251.149 79.5625C250.835 78.8845 250.678 78.0833 250.678 77.1591C250.678 76.2424 250.835 75.447 251.149 74.7727C251.464 74.0985 251.901 73.5777 252.462 73.2102C253.022 72.8428 253.67 72.6591 254.405 72.6591C254.973 72.6591 255.422 72.7538 255.751 72.9432C256.085 73.1288 256.339 73.3409 256.513 73.5795C256.691 73.8144 256.829 74.0076 256.928 74.1591H257.041V69.8636H258.382V81.5H257.087V80.1591H256.928C256.829 80.3182 256.689 80.5189 256.507 80.7614C256.325 81 256.066 81.214 255.729 81.4034C255.392 81.589 254.943 81.6818 254.382 81.6818ZM254.564 80.4773C255.102 80.4773 255.556 80.3371 255.928 80.0568C256.299 79.7727 256.581 79.3807 256.774 78.8807C256.967 78.3769 257.064 77.7955 257.064 77.1364C257.064 76.4848 256.969 75.9148 256.78 75.4261C256.59 74.9337 256.31 74.5511 255.939 74.2784C255.568 74.0019 255.109 73.8636 254.564 73.8636C253.996 73.8636 253.522 74.0095 253.143 74.3011C252.768 74.589 252.486 74.9811 252.297 75.4773C252.111 75.9697 252.018 76.5227 252.018 77.1364C252.018 77.7576 252.113 78.322 252.303 78.8295C252.496 79.3333 252.78 79.7348 253.155 80.0341C253.534 80.3295 254.003 80.4773 254.564 80.4773ZM265.524 81.5V72.7727H266.865V81.5H265.524ZM266.206 71.3182C265.945 71.3182 265.719 71.2292 265.53 71.0511C265.344 70.8731 265.251 70.6591 265.251 70.4091C265.251 70.1591 265.344 69.9451 265.53 69.767C265.719 69.589 265.945 69.5 266.206 69.5C266.467 69.5 266.691 69.589 266.876 69.767C267.066 69.9451 267.161 70.1591 267.161 70.4091C267.161 70.6591 267.066 70.8731 266.876 71.0511C266.691 71.2292 266.467 71.3182 266.206 71.3182ZM273.116 72.7727V73.9091H268.594V72.7727H273.116ZM269.912 70.6818H271.253V79C271.253 79.3788 271.308 79.6629 271.418 79.8523C271.531 80.0379 271.675 80.1629 271.849 80.2273C272.027 80.2879 272.215 80.3182 272.412 80.3182C272.56 80.3182 272.681 80.3106 272.776 80.2955C272.87 80.2765 272.946 80.2614 273.003 80.25L273.276 81.4545C273.185 81.4886 273.058 81.5227 272.895 81.5568C272.732 81.5947 272.526 81.6136 272.276 81.6136C271.897 81.6136 271.526 81.5322 271.162 81.3693C270.802 81.2064 270.503 80.9583 270.264 80.625C270.029 80.2917 269.912 79.8712 269.912 79.3636V70.6818ZM278.699 81.6818C277.858 81.6818 277.133 81.4962 276.523 81.125C275.917 80.75 275.449 80.2273 275.119 79.5568C274.794 78.8826 274.631 78.0985 274.631 77.2045C274.631 76.3106 274.794 75.5227 275.119 74.8409C275.449 74.1553 275.907 73.6212 276.494 73.2386C277.085 72.8523 277.775 72.6591 278.562 72.6591C279.017 72.6591 279.466 72.7348 279.909 72.8864C280.352 73.0379 280.756 73.2841 281.119 73.625C281.483 73.9621 281.773 74.4091 281.989 74.9659C282.205 75.5227 282.312 76.2083 282.312 77.0227V77.5909H275.585V76.4318H280.949C280.949 75.9394 280.85 75.5 280.653 75.1136C280.46 74.7273 280.184 74.4223 279.824 74.1989C279.468 73.9754 279.047 73.8636 278.562 73.8636C278.028 73.8636 277.566 73.9962 277.176 74.2614C276.79 74.5227 276.492 74.8636 276.284 75.2841C276.076 75.7045 275.972 76.1553 275.972 76.6364V77.4091C275.972 78.0682 276.085 78.6269 276.312 79.0852C276.544 79.5398 276.864 79.8864 277.273 80.125C277.682 80.3598 278.157 80.4773 278.699 80.4773C279.051 80.4773 279.369 80.428 279.653 80.3295C279.941 80.2273 280.189 80.0758 280.398 79.875C280.606 79.6705 280.767 79.4167 280.881 79.1136L282.176 79.4773C282.04 79.9167 281.811 80.303 281.489 80.6364C281.167 80.9659 280.769 81.2235 280.295 81.4091C279.822 81.5909 279.29 81.6818 278.699 81.6818ZM284.352 81.5V72.7727H285.648V74.1364H285.761C285.943 73.6705 286.237 73.3087 286.642 73.0511C287.047 72.7898 287.534 72.6591 288.102 72.6591C288.678 72.6591 289.157 72.7898 289.54 73.0511C289.926 73.3087 290.227 73.6705 290.443 74.1364H290.534C290.758 73.6856 291.093 73.3277 291.54 73.0625C291.987 72.7936 292.523 72.6591 293.148 72.6591C293.928 72.6591 294.566 72.9034 295.062 73.392C295.559 73.8769 295.807 74.6326 295.807 75.6591V81.5H294.466V75.6591C294.466 75.0152 294.29 74.5549 293.938 74.2784C293.585 74.0019 293.17 73.8636 292.693 73.8636C292.08 73.8636 291.604 74.0492 291.267 74.4205C290.93 74.7879 290.761 75.2538 290.761 75.8182V81.5H289.398V75.5227C289.398 75.0265 289.237 74.6269 288.915 74.3239C288.593 74.017 288.178 73.8636 287.67 73.8636C287.322 73.8636 286.996 73.9564 286.693 74.142C286.394 74.3277 286.152 74.5852 285.966 74.9148C285.784 75.2405 285.693 75.6174 285.693 76.0455V81.5H284.352Z" fill="#0B1D28"/>
<rect x="344.5" y="12.5" width="99" height="127" stroke="#006590" stroke-dasharray="6 6"/>
<rect x="460.5" y="12.5" width="99" height="127" stroke="#006590" stroke-dasharray="6 6"/>
<rect x="576.5" y="12.5" width="99" height="127" stroke="#006590" stroke-dasharray="6 6"/>
<rect x="344.5" y="156.5" width="99" height="127" stroke="#006590" stroke-dasharray="6 6"/>
<rect x="460.5" y="156.5" width="99" height="127" stroke="#006590" stroke-dasharray="6 6"/>
<rect x="576.5" y="156.5" width="99" height="127" stroke="#006590" stroke-dasharray="6 6"/>
<rect x="576.5" y="184.5" width="99" height="71" rx="1.5" fill="white"/>
<rect x="576.5" y="184.5" width="99" height="71" rx="1.5" stroke="#001E2E" stroke-linecap="square" stroke-dasharray="6 6"/>
<path d="M591.409 225.5V213.864H598.386V215.114H592.818V219.045H597.864V220.295H592.818V225.5H591.409ZM600.618 225.5V216.773H601.959V225.5H600.618ZM601.3 215.318C601.038 215.318 600.813 215.229 600.624 215.051C600.438 214.873 600.345 214.659 600.345 214.409C600.345 214.159 600.438 213.945 600.624 213.767C600.813 213.589 601.038 213.5 601.3 213.5C601.561 213.5 601.785 213.589 601.97 213.767C602.16 213.945 602.254 214.159 602.254 214.409C602.254 214.659 602.16 214.873 601.97 215.051C601.785 215.229 601.561 215.318 601.3 215.318ZM608.301 216.773V217.909H603.597V216.773H608.301ZM605.006 225.5V215.568C605.006 215.068 605.123 214.652 605.358 214.318C605.593 213.985 605.898 213.735 606.273 213.568C606.648 213.402 607.044 213.318 607.46 213.318C607.79 213.318 608.059 213.345 608.267 213.398C608.475 213.451 608.631 213.5 608.733 213.545L608.347 214.705C608.278 214.682 608.184 214.653 608.062 214.619C607.945 214.585 607.79 214.568 607.597 214.568C607.153 214.568 606.833 214.68 606.636 214.903C606.443 215.127 606.347 215.455 606.347 215.886V225.5H605.006ZM613.976 216.773V217.909H609.453V216.773H613.976ZM610.771 214.682H612.112V223C612.112 223.379 612.167 223.663 612.277 223.852C612.391 224.038 612.535 224.163 612.709 224.227C612.887 224.288 613.074 224.318 613.271 224.318C613.419 224.318 613.54 224.311 613.635 224.295C613.73 224.277 613.805 224.261 613.862 224.25L614.135 225.455C614.044 225.489 613.917 225.523 613.754 225.557C613.591 225.595 613.385 225.614 613.135 225.614C612.756 225.614 612.385 225.532 612.021 225.369C611.661 225.206 611.362 224.958 611.124 224.625C610.889 224.292 610.771 223.871 610.771 223.364V214.682ZM617.521 220.25V225.5H616.18V213.864H617.521V218.136H617.635C617.839 217.686 618.146 217.328 618.555 217.062C618.968 216.794 619.518 216.659 620.203 216.659C620.798 216.659 621.319 216.778 621.766 217.017C622.213 217.252 622.559 217.614 622.805 218.102C623.055 218.587 623.18 219.205 623.18 219.955V225.5H621.839V220.045C621.839 219.352 621.66 218.816 621.3 218.438C620.944 218.055 620.449 217.864 619.817 217.864C619.377 217.864 618.983 217.956 618.635 218.142C618.29 218.328 618.018 218.598 617.817 218.955C617.62 219.311 617.521 219.742 617.521 220.25ZM630.134 225.5V216.773H631.474V225.5H630.134ZM630.815 215.318C630.554 215.318 630.329 215.229 630.139 215.051C629.954 214.873 629.861 214.659 629.861 214.409C629.861 214.159 629.954 213.945 630.139 213.767C630.329 213.589 630.554 213.5 630.815 213.5C631.077 213.5 631.3 213.589 631.486 213.767C631.675 213.945 631.77 214.159 631.77 214.409C631.77 214.659 631.675 214.873 631.486 215.051C631.3 215.229 631.077 215.318 630.815 215.318ZM637.726 216.773V217.909H633.203V216.773H637.726ZM634.521 214.682H635.862V223C635.862 223.379 635.917 223.663 636.027 223.852C636.141 224.038 636.285 224.163 636.459 224.227C636.637 224.288 636.824 224.318 637.021 224.318C637.169 224.318 637.29 224.311 637.385 224.295C637.48 224.277 637.555 224.261 637.612 224.25L637.885 225.455C637.794 225.489 637.667 225.523 637.504 225.557C637.341 225.595 637.135 225.614 636.885 225.614C636.506 225.614 636.135 225.532 635.771 225.369C635.411 225.206 635.112 224.958 634.874 224.625C634.639 224.292 634.521 223.871 634.521 223.364V214.682ZM643.308 225.682C642.467 225.682 641.742 225.496 641.132 225.125C640.526 224.75 640.058 224.227 639.729 223.557C639.403 222.883 639.24 222.098 639.24 221.205C639.24 220.311 639.403 219.523 639.729 218.841C640.058 218.155 640.517 217.621 641.104 217.239C641.695 216.852 642.384 216.659 643.172 216.659C643.626 216.659 644.075 216.735 644.518 216.886C644.962 217.038 645.365 217.284 645.729 217.625C646.092 217.962 646.382 218.409 646.598 218.966C646.814 219.523 646.922 220.208 646.922 221.023V221.591H640.195V220.432H645.558C645.558 219.939 645.46 219.5 645.263 219.114C645.07 218.727 644.793 218.422 644.433 218.199C644.077 217.975 643.657 217.864 643.172 217.864C642.638 217.864 642.176 217.996 641.786 218.261C641.399 218.523 641.102 218.864 640.893 219.284C640.685 219.705 640.581 220.155 640.581 220.636V221.409C640.581 222.068 640.695 222.627 640.922 223.085C641.153 223.54 641.473 223.886 641.882 224.125C642.291 224.36 642.767 224.477 643.308 224.477C643.661 224.477 643.979 224.428 644.263 224.33C644.551 224.227 644.799 224.076 645.007 223.875C645.215 223.67 645.376 223.417 645.49 223.114L646.786 223.477C646.649 223.917 646.42 224.303 646.098 224.636C645.776 224.966 645.378 225.223 644.905 225.409C644.431 225.591 643.899 225.682 643.308 225.682ZM648.962 225.5V216.773H650.257V218.136H650.371C650.553 217.67 650.846 217.309 651.251 217.051C651.657 216.79 652.143 216.659 652.712 216.659C653.287 216.659 653.767 216.79 654.149 217.051C654.536 217.309 654.837 217.67 655.053 218.136H655.143C655.367 217.686 655.702 217.328 656.149 217.062C656.596 216.794 657.132 216.659 657.757 216.659C658.537 216.659 659.176 216.903 659.672 217.392C660.168 217.877 660.416 218.633 660.416 219.659V225.5H659.075V219.659C659.075 219.015 658.899 218.555 658.547 218.278C658.195 218.002 657.78 217.864 657.303 217.864C656.689 217.864 656.214 218.049 655.876 218.42C655.539 218.788 655.371 219.254 655.371 219.818V225.5H654.007V219.523C654.007 219.027 653.846 218.627 653.524 218.324C653.202 218.017 652.787 217.864 652.28 217.864C651.931 217.864 651.606 217.956 651.303 218.142C651.003 218.328 650.761 218.585 650.575 218.915C650.393 219.241 650.303 219.617 650.303 220.045V225.5H648.962Z" fill="#0B1D28"/>
<rect width="156" height="128" transform="translate(0 156)" fill="#87CEFF"/>
<rect x="0.5" y="184.5" width="155" height="71" rx="1.5" fill="white"/>
<rect x="0.5" y="184.5" width="155" height="71" rx="1.5" stroke="#001E2E" stroke-linecap="square" stroke-dasharray="6 6"/>
<path d="M40.2727 215.114V213.864H49V215.114H45.3409V225.5H43.9318V215.114H40.2727ZM52.3338 220.25V225.5H50.9929V213.864H52.3338V218.136H52.4474C52.652 217.686 52.9588 217.328 53.3679 217.062C53.7808 216.794 54.33 216.659 55.0156 216.659C55.6103 216.659 56.1312 216.778 56.5781 217.017C57.0251 217.252 57.3717 217.614 57.6179 218.102C57.8679 218.587 57.9929 219.205 57.9929 219.955V225.5H56.652V220.045C56.652 219.352 56.4721 218.816 56.1122 218.438C55.7562 218.055 55.2618 217.864 54.6293 217.864C54.1899 217.864 53.7959 217.956 53.4474 218.142C53.1027 218.328 52.83 218.598 52.6293 218.955C52.4323 219.311 52.3338 219.742 52.3338 220.25ZM60.446 225.5V216.773H61.7869V225.5H60.446ZM61.1278 215.318C60.8665 215.318 60.6411 215.229 60.4517 215.051C60.2661 214.873 60.1733 214.659 60.1733 214.409C60.1733 214.159 60.2661 213.945 60.4517 213.767C60.6411 213.589 60.8665 213.5 61.1278 213.5C61.3892 213.5 61.6127 213.589 61.7983 213.767C61.9877 213.945 62.0824 214.159 62.0824 214.409C62.0824 214.659 61.9877 214.873 61.7983 215.051C61.6127 215.229 61.3892 215.318 61.1278 215.318ZM64.2429 225.5V216.773H65.5384V218.091H65.6293C65.7884 217.659 66.0762 217.309 66.4929 217.04C66.9096 216.771 67.3793 216.636 67.902 216.636C68.0005 216.636 68.1236 216.638 68.2713 216.642C68.419 216.646 68.5308 216.652 68.6065 216.659V218.023C68.5611 218.011 68.4569 217.994 68.294 217.972C68.1349 217.945 67.9664 217.932 67.7884 217.932C67.3641 217.932 66.9853 218.021 66.652 218.199C66.3224 218.373 66.0611 218.616 65.8679 218.926C65.6785 219.233 65.5838 219.583 65.5838 219.977V225.5H64.2429ZM73.2259 225.682C72.4986 225.682 71.8565 225.498 71.2997 225.131C70.7429 224.759 70.3073 224.237 69.9929 223.562C69.6785 222.884 69.5213 222.083 69.5213 221.159C69.5213 220.242 69.6785 219.447 69.9929 218.773C70.3073 218.098 70.7448 217.578 71.3054 217.21C71.866 216.843 72.5137 216.659 73.2486 216.659C73.8168 216.659 74.2656 216.754 74.5952 216.943C74.9285 217.129 75.1823 217.341 75.3565 217.58C75.5346 217.814 75.6728 218.008 75.7713 218.159H75.8849V213.864H77.2259V225.5H75.9304V224.159H75.7713C75.6728 224.318 75.5327 224.519 75.3509 224.761C75.169 225 74.9096 225.214 74.5724 225.403C74.2353 225.589 73.7865 225.682 73.2259 225.682ZM73.4077 224.477C73.9455 224.477 74.4001 224.337 74.7713 224.057C75.1425 223.773 75.4247 223.381 75.6179 222.881C75.8111 222.377 75.9077 221.795 75.9077 221.136C75.9077 220.485 75.813 219.915 75.6236 219.426C75.4342 218.934 75.1539 218.551 74.7827 218.278C74.4115 218.002 73.9531 217.864 73.4077 217.864C72.8395 217.864 72.366 218.009 71.9872 218.301C71.6122 218.589 71.33 218.981 71.1406 219.477C70.955 219.97 70.8622 220.523 70.8622 221.136C70.8622 221.758 70.9569 222.322 71.1463 222.83C71.3395 223.333 71.6236 223.735 71.9986 224.034C72.3774 224.33 72.8471 224.477 73.4077 224.477ZM84.3679 225.5V216.773H85.7088V225.5H84.3679ZM85.0497 215.318C84.7884 215.318 84.563 215.229 84.3736 215.051C84.188 214.873 84.0952 214.659 84.0952 214.409C84.0952 214.159 84.188 213.945 84.3736 213.767C84.563 213.589 84.7884 213.5 85.0497 213.5C85.3111 213.5 85.5346 213.589 85.7202 213.767C85.9096 213.945 86.0043 214.159 86.0043 214.409C86.0043 214.659 85.9096 214.873 85.7202 215.051C85.5346 215.229 85.3111 215.318 85.0497 215.318ZM91.9602 216.773V217.909H87.4375V216.773H91.9602ZM88.7557 214.682H90.0966V223C90.0966 223.379 90.1515 223.663 90.2614 223.852C90.375 224.038 90.5189 224.163 90.6932 224.227C90.8712 224.288 91.0587 224.318 91.2557 224.318C91.4034 224.318 91.5246 224.311 91.6193 224.295C91.714 224.277 91.7898 224.261 91.8466 224.25L92.1193 225.455C92.0284 225.489 91.9015 225.523 91.7386 225.557C91.5758 225.595 91.3693 225.614 91.1193 225.614C90.7405 225.614 90.3693 225.532 90.0057 225.369C89.6458 225.206 89.3466 224.958 89.108 224.625C88.8731 224.292 88.7557 223.871 88.7557 223.364V214.682ZM97.5426 225.682C96.7017 225.682 95.9763 225.496 95.3665 225.125C94.7604 224.75 94.2926 224.227 93.9631 223.557C93.6373 222.883 93.4744 222.098 93.4744 221.205C93.4744 220.311 93.6373 219.523 93.9631 218.841C94.2926 218.155 94.7509 217.621 95.3381 217.239C95.929 216.852 96.6184 216.659 97.4062 216.659C97.8608 216.659 98.3097 216.735 98.7528 216.886C99.196 217.038 99.5994 217.284 99.9631 217.625C100.327 217.962 100.616 218.409 100.832 218.966C101.048 219.523 101.156 220.208 101.156 221.023V221.591H94.429V220.432H99.7926C99.7926 219.939 99.6941 219.5 99.4972 219.114C99.304 218.727 99.0275 218.422 98.6676 218.199C98.3116 217.975 97.8911 217.864 97.4062 217.864C96.8722 217.864 96.41 217.996 96.0199 218.261C95.6335 218.523 95.3362 218.864 95.1278 219.284C94.9195 219.705 94.8153 220.155 94.8153 220.636V221.409C94.8153 222.068 94.929 222.627 95.1562 223.085C95.3873 223.54 95.7074 223.886 96.1165 224.125C96.5256 224.36 97.0009 224.477 97.5426 224.477C97.8949 224.477 98.2131 224.428 98.4972 224.33C98.785 224.227 99.0331 224.076 99.2415 223.875C99.4498 223.67 99.6108 223.417 99.7244 223.114L101.02 223.477C100.884 223.917 100.654 224.303 100.332 224.636C100.01 224.966 99.6127 225.223 99.1392 225.409C98.6657 225.591 98.1335 225.682 97.5426 225.682ZM103.196 225.5V216.773H104.491V218.136H104.605C104.787 217.67 105.08 217.309 105.486 217.051C105.891 216.79 106.378 216.659 106.946 216.659C107.522 216.659 108.001 216.79 108.384 217.051C108.77 217.309 109.071 217.67 109.287 218.136H109.378C109.601 217.686 109.937 217.328 110.384 217.062C110.83 216.794 111.366 216.659 111.991 216.659C112.772 216.659 113.41 216.903 113.906 217.392C114.402 217.877 114.651 218.633 114.651 219.659V225.5H113.31V219.659C113.31 219.015 113.134 218.555 112.781 218.278C112.429 218.002 112.014 217.864 111.537 217.864C110.923 217.864 110.448 218.049 110.111 218.42C109.774 218.788 109.605 219.254 109.605 219.818V225.5H108.241V219.523C108.241 219.027 108.08 218.627 107.759 218.324C107.437 218.017 107.022 217.864 106.514 217.864C106.166 217.864 105.84 217.956 105.537 218.142C105.238 218.328 104.995 218.585 104.81 218.915C104.628 219.241 104.537 219.617 104.537 220.045V225.5H103.196Z" fill="#0B1D28"/>
<rect width="156" height="128" transform="translate(172 156)" fill="#87CEFF"/>
<rect x="172.5" y="184.5" width="155" height="71" rx="1.5" fill="white"/>
<rect x="172.5" y="184.5" width="155" height="71" rx="1.5" stroke="#001E2E" stroke-linecap="square" stroke-dasharray="6 6"/>
<path d="M207.909 225.5V213.864H214.886V215.114H209.318V219.045H214.364V220.295H209.318V225.5H207.909ZM220.023 225.682C219.235 225.682 218.544 225.494 217.949 225.119C217.358 224.744 216.896 224.22 216.562 223.545C216.233 222.871 216.068 222.083 216.068 221.182C216.068 220.273 216.233 219.479 216.562 218.801C216.896 218.123 217.358 217.597 217.949 217.222C218.544 216.847 219.235 216.659 220.023 216.659C220.811 216.659 221.5 216.847 222.091 217.222C222.686 217.597 223.148 218.123 223.477 218.801C223.811 219.479 223.977 220.273 223.977 221.182C223.977 222.083 223.811 222.871 223.477 223.545C223.148 224.22 222.686 224.744 222.091 225.119C221.5 225.494 220.811 225.682 220.023 225.682ZM220.023 224.477C220.621 224.477 221.114 224.324 221.5 224.017C221.886 223.71 222.172 223.307 222.358 222.807C222.544 222.307 222.636 221.765 222.636 221.182C222.636 220.598 222.544 220.055 222.358 219.551C222.172 219.047 221.886 218.64 221.5 218.33C221.114 218.019 220.621 217.864 220.023 217.864C219.424 217.864 218.932 218.019 218.545 218.33C218.159 218.64 217.873 219.047 217.688 219.551C217.502 220.055 217.409 220.598 217.409 221.182C217.409 221.765 217.502 222.307 217.688 222.807C217.873 223.307 218.159 223.71 218.545 224.017C218.932 224.324 219.424 224.477 220.023 224.477ZM231.524 221.932V216.773H232.865V225.5H231.524V224.023H231.433C231.229 224.466 230.911 224.843 230.479 225.153C230.047 225.46 229.501 225.614 228.842 225.614C228.297 225.614 227.812 225.494 227.388 225.256C226.964 225.013 226.63 224.65 226.388 224.165C226.145 223.676 226.024 223.061 226.024 222.318V216.773H227.365V222.227C227.365 222.864 227.543 223.371 227.899 223.75C228.259 224.129 228.717 224.318 229.274 224.318C229.607 224.318 229.946 224.233 230.291 224.062C230.64 223.892 230.931 223.631 231.166 223.278C231.405 222.926 231.524 222.477 231.524 221.932ZM235.321 225.5V216.773H236.616V218.091H236.707C236.866 217.659 237.154 217.309 237.571 217.04C237.988 216.771 238.457 216.636 238.98 216.636C239.079 216.636 239.202 216.638 239.349 216.642C239.497 216.646 239.609 216.652 239.685 216.659V218.023C239.639 218.011 239.535 217.994 239.372 217.972C239.213 217.945 239.045 217.932 238.866 217.932C238.442 217.932 238.063 218.021 237.73 218.199C237.401 218.373 237.139 218.616 236.946 218.926C236.757 219.233 236.662 219.583 236.662 219.977V225.5H235.321ZM245.616 216.773V217.909H241.094V216.773H245.616ZM242.412 214.682H243.753V223C243.753 223.379 243.808 223.663 243.918 223.852C244.031 224.038 244.175 224.163 244.349 224.227C244.527 224.288 244.715 224.318 244.912 224.318C245.06 224.318 245.181 224.311 245.276 224.295C245.37 224.277 245.446 224.261 245.503 224.25L245.776 225.455C245.685 225.489 245.558 225.523 245.395 225.557C245.232 225.595 245.026 225.614 244.776 225.614C244.397 225.614 244.026 225.532 243.662 225.369C243.302 225.206 243.003 224.958 242.764 224.625C242.529 224.292 242.412 223.871 242.412 223.364V214.682ZM249.162 220.25V225.5H247.821V213.864H249.162V218.136H249.276C249.48 217.686 249.787 217.328 250.196 217.062C250.609 216.794 251.158 216.659 251.844 216.659C252.438 216.659 252.959 216.778 253.406 217.017C253.853 217.252 254.2 217.614 254.446 218.102C254.696 218.587 254.821 219.205 254.821 219.955V225.5H253.48V220.045C253.48 219.352 253.3 218.816 252.94 218.438C252.584 218.055 252.09 217.864 251.457 217.864C251.018 217.864 250.624 217.956 250.276 218.142C249.931 218.328 249.658 218.598 249.457 218.955C249.26 219.311 249.162 219.742 249.162 220.25ZM261.774 225.5V216.773H263.115V225.5H261.774ZM262.456 215.318C262.195 215.318 261.969 215.229 261.78 215.051C261.594 214.873 261.501 214.659 261.501 214.409C261.501 214.159 261.594 213.945 261.78 213.767C261.969 213.589 262.195 213.5 262.456 213.5C262.717 213.5 262.941 213.589 263.126 213.767C263.316 213.945 263.411 214.159 263.411 214.409C263.411 214.659 263.316 214.873 263.126 215.051C262.941 215.229 262.717 215.318 262.456 215.318ZM269.366 216.773V217.909H264.844V216.773H269.366ZM266.162 214.682H267.503V223C267.503 223.379 267.558 223.663 267.668 223.852C267.781 224.038 267.925 224.163 268.099 224.227C268.277 224.288 268.465 224.318 268.662 224.318C268.81 224.318 268.931 224.311 269.026 224.295C269.12 224.277 269.196 224.261 269.253 224.25L269.526 225.455C269.435 225.489 269.308 225.523 269.145 225.557C268.982 225.595 268.776 225.614 268.526 225.614C268.147 225.614 267.776 225.532 267.412 225.369C267.052 225.206 266.753 224.958 266.514 224.625C266.279 224.292 266.162 223.871 266.162 223.364V214.682ZM274.949 225.682C274.108 225.682 273.383 225.496 272.773 225.125C272.167 224.75 271.699 224.227 271.369 223.557C271.044 222.883 270.881 222.098 270.881 221.205C270.881 220.311 271.044 219.523 271.369 218.841C271.699 218.155 272.157 217.621 272.744 217.239C273.335 216.852 274.025 216.659 274.812 216.659C275.267 216.659 275.716 216.735 276.159 216.886C276.602 217.038 277.006 217.284 277.369 217.625C277.733 217.962 278.023 218.409 278.239 218.966C278.455 219.523 278.562 220.208 278.562 221.023V221.591H271.835V220.432H277.199C277.199 219.939 277.1 219.5 276.903 219.114C276.71 218.727 276.434 218.422 276.074 218.199C275.718 217.975 275.297 217.864 274.812 217.864C274.278 217.864 273.816 217.996 273.426 218.261C273.04 218.523 272.742 218.864 272.534 219.284C272.326 219.705 272.222 220.155 272.222 220.636V221.409C272.222 222.068 272.335 222.627 272.562 223.085C272.794 223.54 273.114 223.886 273.523 224.125C273.932 224.36 274.407 224.477 274.949 224.477C275.301 224.477 275.619 224.428 275.903 224.33C276.191 224.227 276.439 224.076 276.648 223.875C276.856 223.67 277.017 223.417 277.131 223.114L278.426 223.477C278.29 223.917 278.061 224.303 277.739 224.636C277.417 224.966 277.019 225.223 276.545 225.409C276.072 225.591 275.54 225.682 274.949 225.682ZM280.602 225.5V216.773H281.898V218.136H282.011C282.193 217.67 282.487 217.309 282.892 217.051C283.297 216.79 283.784 216.659 284.352 216.659C284.928 216.659 285.407 216.79 285.79 217.051C286.176 217.309 286.477 217.67 286.693 218.136H286.784C287.008 217.686 287.343 217.328 287.79 217.062C288.237 216.794 288.773 216.659 289.398 216.659C290.178 216.659 290.816 216.903 291.312 217.392C291.809 217.877 292.057 218.633 292.057 219.659V225.5H290.716V219.659C290.716 219.015 290.54 218.555 290.188 218.278C289.835 218.002 289.42 217.864 288.943 217.864C288.33 217.864 287.854 218.049 287.517 218.42C287.18 218.788 287.011 219.254 287.011 219.818V225.5H285.648V219.523C285.648 219.027 285.487 218.627 285.165 218.324C284.843 218.017 284.428 217.864 283.92 217.864C283.572 217.864 283.246 217.956 282.943 218.142C282.644 218.328 282.402 218.585 282.216 218.915C282.034 219.241 281.943 219.617 281.943 220.045V225.5H280.602Z" fill="#0B1D28"/>
</g>
<rect x="0.5" y="12.5" width="675" height="271" rx="3.5" stroke="#006590"/>
<path d="M172.25 284V316" stroke="#BA1A1A" stroke-width="0.5" stroke-dasharray="2 2"/>
<path d="M327.75 284V316" stroke="#BA1A1A" stroke-width="0.5" stroke-dasharray="2 2"/>
<path d="M327.75 300L327.75 297M327.75 300L327.75 303M327.75 300L172.25 300M172.25 300L172.25 297M172.25 300L172.25 303" stroke="#BA1A1A" stroke-width="0.5"/>
<rect x="237" y="292" width="26" height="16" rx="3" fill="#BA1A1A"/>
<path d="M243.438 304V297.103L243.581 296.3H244.879L244.868 304H243.438ZM241.81 298.731V297.367C241.994 297.382 242.192 297.338 242.404 297.235C242.617 297.125 242.826 296.986 243.031 296.817C243.244 296.641 243.427 296.465 243.581 296.289L244.538 297.224C244.274 297.517 243.996 297.785 243.702 298.027C243.409 298.262 243.105 298.445 242.789 298.577C242.481 298.709 242.155 298.76 241.81 298.731ZM249.157 304.132C248.805 304.132 248.442 304.073 248.068 303.956C247.701 303.839 247.368 303.663 247.067 303.428C246.774 303.193 246.557 302.904 246.418 302.559L247.793 302.152C247.954 302.387 248.145 302.559 248.365 302.669C248.592 302.779 248.827 302.834 249.069 302.834C249.45 302.834 249.758 302.72 249.993 302.493C250.235 302.258 250.356 301.947 250.356 301.558C250.356 301.199 250.239 300.898 250.004 300.656C249.777 300.414 249.472 300.293 249.091 300.293C248.864 300.293 248.655 300.344 248.464 300.447C248.273 300.55 248.127 300.671 248.024 300.81L246.671 300.513L247.133 296.3H251.489V297.664H247.353L247.133 296.344H248.629L248.024 300.656L247.221 300.513C247.287 300.381 247.39 300.238 247.529 300.084C247.668 299.923 247.841 299.769 248.046 299.622C248.259 299.475 248.497 299.358 248.761 299.27C249.025 299.182 249.318 299.142 249.641 299.149C250.059 299.149 250.44 299.252 250.785 299.457C251.13 299.655 251.401 299.93 251.599 300.282C251.804 300.627 251.907 301.03 251.907 301.492C251.907 302.013 251.79 302.471 251.555 302.867C251.32 303.263 250.998 303.575 250.587 303.802C250.176 304.022 249.7 304.132 249.157 304.132ZM255.615 304.132C255.094 304.132 254.65 304.04 254.284 303.857C253.924 303.666 253.627 303.406 253.393 303.076C253.165 302.746 252.997 302.365 252.887 301.932C252.784 301.492 252.733 301.019 252.733 300.513C252.733 299.926 252.795 299.373 252.92 298.852C253.044 298.324 253.231 297.858 253.481 297.455C253.737 297.052 254.064 296.736 254.46 296.509C254.856 296.282 255.332 296.168 255.89 296.168C256.293 296.168 256.685 296.227 257.067 296.344C257.455 296.461 257.804 296.63 258.112 296.85L257.364 297.95C257.136 297.789 256.891 297.671 256.627 297.598C256.37 297.525 256.132 297.488 255.912 297.488C255.347 297.488 254.903 297.737 254.581 298.236C254.258 298.735 254.104 299.523 254.119 300.601L253.822 300.392C253.99 299.989 254.251 299.666 254.603 299.424C254.955 299.182 255.373 299.061 255.857 299.061C256.348 299.061 256.781 299.175 257.155 299.402C257.536 299.629 257.833 299.941 258.046 300.337C258.266 300.726 258.376 301.162 258.376 301.646C258.376 302.123 258.262 302.552 258.035 302.933C257.807 303.307 257.485 303.6 257.067 303.813C256.656 304.026 256.172 304.132 255.615 304.132ZM255.615 302.856C255.857 302.856 256.073 302.801 256.264 302.691C256.454 302.581 256.605 302.431 256.715 302.24C256.825 302.049 256.88 301.829 256.88 301.58C256.88 301.331 256.825 301.111 256.715 300.92C256.605 300.722 256.454 300.568 256.264 300.458C256.073 300.341 255.857 300.282 255.615 300.282C255.373 300.282 255.153 300.341 254.955 300.458C254.764 300.568 254.614 300.722 254.504 300.92C254.394 301.111 254.339 301.331 254.339 301.58C254.339 301.829 254.394 302.049 254.504 302.24C254.614 302.431 254.764 302.581 254.955 302.691C255.153 302.801 255.373 302.856 255.615 302.856Z" fill="white"/>
<path d="M344.25 284V316" stroke="#BA1A1A" stroke-width="0.5" stroke-dasharray="2 2"/>
<path d="M443.75 284V316" stroke="#BA1A1A" stroke-width="0.5" stroke-dasharray="2 2"/>
<path d="M443.75 300L443.75 297M443.75 300L443.75 303M443.75 300L344.25 300M344.25 300L344.25 297M344.25 300L344.25 303" stroke="#BA1A1A" stroke-width="0.5"/>
<rect x="380.5" y="292" width="27" height="16" rx="3" fill="#BA1A1A"/>
<path d="M386.692 304V297.103L386.835 296.3H388.133L388.122 304H386.692ZM385.064 298.731V297.367C385.247 297.382 385.445 297.338 385.658 297.235C385.871 297.125 386.08 296.986 386.285 296.817C386.498 296.641 386.681 296.465 386.835 296.289L387.792 297.224C387.528 297.517 387.249 297.785 386.956 298.027C386.663 298.262 386.358 298.445 386.043 298.577C385.735 298.709 385.409 298.76 385.064 298.731ZM392.752 304.132C392.128 304.132 391.578 303.963 391.102 303.626C390.625 303.281 390.251 302.812 389.98 302.218C389.708 301.617 389.573 300.927 389.573 300.15C389.573 299.373 389.708 298.687 389.98 298.093C390.251 297.492 390.621 297.022 391.091 296.685C391.567 296.34 392.117 296.168 392.741 296.168C393.364 296.168 393.914 296.34 394.391 296.685C394.875 297.022 395.252 297.492 395.524 298.093C395.795 298.687 395.931 299.373 395.931 300.15C395.931 300.927 395.795 301.617 395.524 302.218C395.252 302.812 394.878 303.281 394.402 303.626C393.925 303.963 393.375 304.132 392.752 304.132ZM392.752 302.768C393.082 302.768 393.375 302.658 393.632 302.438C393.896 302.211 394.101 301.903 394.248 301.514C394.394 301.118 394.468 300.663 394.468 300.15C394.468 299.637 394.394 299.182 394.248 298.786C394.101 298.39 393.896 298.082 393.632 297.862C393.375 297.635 393.078 297.521 392.741 297.521C392.411 297.521 392.117 297.635 391.861 297.862C391.604 298.082 391.402 298.39 391.256 298.786C391.116 299.182 391.047 299.637 391.047 300.15C391.047 300.663 391.116 301.118 391.256 301.514C391.402 301.903 391.604 302.211 391.861 302.438C392.125 302.658 392.422 302.768 392.752 302.768ZM399.884 304.132C399.261 304.132 398.711 303.963 398.234 303.626C397.758 303.281 397.384 302.812 397.112 302.218C396.841 301.617 396.705 300.927 396.705 300.15C396.705 299.373 396.841 298.687 397.112 298.093C397.384 297.492 397.754 297.022 398.223 296.685C398.7 296.34 399.25 296.168 399.873 296.168C400.497 296.168 401.047 296.34 401.523 296.685C402.007 297.022 402.385 297.492 402.656 298.093C402.928 298.687 403.063 299.373 403.063 300.15C403.063 300.927 402.928 301.617 402.656 302.218C402.385 302.812 402.011 303.281 401.534 303.626C401.058 303.963 400.508 304.132 399.884 304.132ZM399.884 302.768C400.214 302.768 400.508 302.658 400.764 302.438C401.028 302.211 401.234 301.903 401.38 301.514C401.527 301.118 401.6 300.663 401.6 300.15C401.6 299.637 401.527 299.182 401.38 298.786C401.234 298.39 401.028 298.082 400.764 297.862C400.508 297.635 400.211 297.521 399.873 297.521C399.543 297.521 399.25 297.635 398.993 297.862C398.737 298.082 398.535 298.39 398.388 298.786C398.249 299.182 398.179 299.637 398.179 300.15C398.179 300.663 398.249 301.118 398.388 301.514C398.535 301.903 398.737 302.211 398.993 302.438C399.257 302.658 399.554 302.768 399.884 302.768Z" fill="white"/>
<path d="M344.25 284V316" stroke="#BA1A1A" stroke-width="0.5" stroke-dasharray="2 2"/>
<path d="M443.75 284V316" stroke="#BA1A1A" stroke-width="0.5" stroke-dasharray="2 2"/>
<path d="M443.75 300L443.75 297M443.75 300L443.75 303M443.75 300L344.25 300M344.25 300L344.25 297M344.25 300L344.25 303" stroke="#BA1A1A" stroke-width="0.5"/>
<rect x="380.5" y="292" width="27" height="16" rx="3" fill="#BA1A1A"/>
<path d="M386.692 304V297.103L386.835 296.3H388.133L388.122 304H386.692ZM385.064 298.731V297.367C385.247 297.382 385.445 297.338 385.658 297.235C385.871 297.125 386.08 296.986 386.285 296.817C386.498 296.641 386.681 296.465 386.835 296.289L387.792 297.224C387.528 297.517 387.249 297.785 386.956 298.027C386.663 298.262 386.358 298.445 386.043 298.577C385.735 298.709 385.409 298.76 385.064 298.731ZM392.752 304.132C392.128 304.132 391.578 303.963 391.102 303.626C390.625 303.281 390.251 302.812 389.98 302.218C389.708 301.617 389.573 300.927 389.573 300.15C389.573 299.373 389.708 298.687 389.98 298.093C390.251 297.492 390.621 297.022 391.091 296.685C391.567 296.34 392.117 296.168 392.741 296.168C393.364 296.168 393.914 296.34 394.391 296.685C394.875 297.022 395.252 297.492 395.524 298.093C395.795 298.687 395.931 299.373 395.931 300.15C395.931 300.927 395.795 301.617 395.524 302.218C395.252 302.812 394.878 303.281 394.402 303.626C393.925 303.963 393.375 304.132 392.752 304.132ZM392.752 302.768C393.082 302.768 393.375 302.658 393.632 302.438C393.896 302.211 394.101 301.903 394.248 301.514C394.394 301.118 394.468 300.663 394.468 300.15C394.468 299.637 394.394 299.182 394.248 298.786C394.101 298.39 393.896 298.082 393.632 297.862C393.375 297.635 393.078 297.521 392.741 297.521C392.411 297.521 392.117 297.635 391.861 297.862C391.604 298.082 391.402 298.39 391.256 298.786C391.116 299.182 391.047 299.637 391.047 300.15C391.047 300.663 391.116 301.118 391.256 301.514C391.402 301.903 391.604 302.211 391.861 302.438C392.125 302.658 392.422 302.768 392.752 302.768ZM399.884 304.132C399.261 304.132 398.711 303.963 398.234 303.626C397.758 303.281 397.384 302.812 397.112 302.218C396.841 301.617 396.705 300.927 396.705 300.15C396.705 299.373 396.841 298.687 397.112 298.093C397.384 297.492 397.754 297.022 398.223 296.685C398.7 296.34 399.25 296.168 399.873 296.168C400.497 296.168 401.047 296.34 401.523 296.685C402.007 297.022 402.385 297.492 402.656 298.093C402.928 298.687 403.063 299.373 403.063 300.15C403.063 300.927 402.928 301.617 402.656 302.218C402.385 302.812 402.011 303.281 401.534 303.626C401.058 303.963 400.508 304.132 399.884 304.132ZM399.884 302.768C400.214 302.768 400.508 302.658 400.764 302.438C401.028 302.211 401.234 301.903 401.38 301.514C401.527 301.118 401.6 300.663 401.6 300.15C401.6 299.637 401.527 299.182 401.38 298.786C401.234 298.39 401.028 298.082 400.764 297.862C400.508 297.635 400.211 297.521 399.873 297.521C399.543 297.521 399.25 297.635 398.993 297.862C398.737 298.082 398.535 298.39 398.388 298.786C398.249 299.182 398.179 299.637 398.179 300.15C398.179 300.663 398.249 301.118 398.388 301.514C398.535 301.903 398.737 302.211 398.993 302.438C399.257 302.658 399.554 302.768 399.884 302.768Z" fill="white"/>
<path d="M460.25 284V316" stroke="#BA1A1A" stroke-width="0.5" stroke-dasharray="2 2"/>
<path d="M559.75 284V316" stroke="#BA1A1A" stroke-width="0.5" stroke-dasharray="2 2"/>
<path d="M559.75 300L559.75 297M559.75 300L559.75 303M559.75 300L460.25 300M460.25 300L460.25 297M460.25 300L460.25 303" stroke="#BA1A1A" stroke-width="0.5"/>
<rect x="496.5" y="292" width="27" height="16" rx="3" fill="#BA1A1A"/>
<path d="M502.692 304V297.103L502.835 296.3H504.133L504.122 304H502.692ZM501.064 298.731V297.367C501.247 297.382 501.445 297.338 501.658 297.235C501.871 297.125 502.08 296.986 502.285 296.817C502.498 296.641 502.681 296.465 502.835 296.289L503.792 297.224C503.528 297.517 503.249 297.785 502.956 298.027C502.663 298.262 502.358 298.445 502.043 298.577C501.735 298.709 501.409 298.76 501.064 298.731ZM508.752 304.132C508.128 304.132 507.578 303.963 507.102 303.626C506.625 303.281 506.251 302.812 505.98 302.218C505.708 301.617 505.573 300.927 505.573 300.15C505.573 299.373 505.708 298.687 505.98 298.093C506.251 297.492 506.621 297.022 507.091 296.685C507.567 296.34 508.117 296.168 508.741 296.168C509.364 296.168 509.914 296.34 510.391 296.685C510.875 297.022 511.252 297.492 511.524 298.093C511.795 298.687 511.931 299.373 511.931 300.15C511.931 300.927 511.795 301.617 511.524 302.218C511.252 302.812 510.878 303.281 510.402 303.626C509.925 303.963 509.375 304.132 508.752 304.132ZM508.752 302.768C509.082 302.768 509.375 302.658 509.632 302.438C509.896 302.211 510.101 301.903 510.248 301.514C510.394 301.118 510.468 300.663 510.468 300.15C510.468 299.637 510.394 299.182 510.248 298.786C510.101 298.39 509.896 298.082 509.632 297.862C509.375 297.635 509.078 297.521 508.741 297.521C508.411 297.521 508.117 297.635 507.861 297.862C507.604 298.082 507.402 298.39 507.256 298.786C507.116 299.182 507.047 299.637 507.047 300.15C507.047 300.663 507.116 301.118 507.256 301.514C507.402 301.903 507.604 302.211 507.861 302.438C508.125 302.658 508.422 302.768 508.752 302.768ZM515.884 304.132C515.261 304.132 514.711 303.963 514.234 303.626C513.758 303.281 513.384 302.812 513.112 302.218C512.841 301.617 512.705 300.927 512.705 300.15C512.705 299.373 512.841 298.687 513.112 298.093C513.384 297.492 513.754 297.022 514.223 296.685C514.7 296.34 515.25 296.168 515.873 296.168C516.497 296.168 517.047 296.34 517.523 296.685C518.007 297.022 518.385 297.492 518.656 298.093C518.928 298.687 519.063 299.373 519.063 300.15C519.063 300.927 518.928 301.617 518.656 302.218C518.385 302.812 518.011 303.281 517.534 303.626C517.058 303.963 516.508 304.132 515.884 304.132ZM515.884 302.768C516.214 302.768 516.508 302.658 516.764 302.438C517.028 302.211 517.234 301.903 517.38 301.514C517.527 301.118 517.6 300.663 517.6 300.15C517.6 299.637 517.527 299.182 517.38 298.786C517.234 298.39 517.028 298.082 516.764 297.862C516.508 297.635 516.211 297.521 515.873 297.521C515.543 297.521 515.25 297.635 514.993 297.862C514.737 298.082 514.535 298.39 514.388 298.786C514.249 299.182 514.179 299.637 514.179 300.15C514.179 300.663 514.249 301.118 514.388 301.514C514.535 301.903 514.737 302.211 514.993 302.438C515.257 302.658 515.554 302.768 515.884 302.768Z" fill="white"/>
<path d="M576.25 284V316" stroke="#BA1A1A" stroke-width="0.5" stroke-dasharray="2 2"/>
<path d="M675.75 284V316" stroke="#BA1A1A" stroke-width="0.5" stroke-dasharray="2 2"/>
<path d="M675.75 300L675.75 297M675.75 300L675.75 303M675.75 300L576.25 300M576.25 300L576.25 297M576.25 300L576.25 303" stroke="#BA1A1A" stroke-width="0.5"/>
<rect x="612.5" y="292" width="27" height="16" rx="3" fill="#BA1A1A"/>
<path d="M618.692 304V297.103L618.835 296.3H620.133L620.122 304H618.692ZM617.064 298.731V297.367C617.247 297.382 617.445 297.338 617.658 297.235C617.871 297.125 618.08 296.986 618.285 296.817C618.498 296.641 618.681 296.465 618.835 296.289L619.792 297.224C619.528 297.517 619.249 297.785 618.956 298.027C618.663 298.262 618.358 298.445 618.043 298.577C617.735 298.709 617.409 298.76 617.064 298.731ZM624.752 304.132C624.128 304.132 623.578 303.963 623.102 303.626C622.625 303.281 622.251 302.812 621.98 302.218C621.708 301.617 621.573 300.927 621.573 300.15C621.573 299.373 621.708 298.687 621.98 298.093C622.251 297.492 622.621 297.022 623.091 296.685C623.567 296.34 624.117 296.168 624.741 296.168C625.364 296.168 625.914 296.34 626.391 296.685C626.875 297.022 627.252 297.492 627.524 298.093C627.795 298.687 627.931 299.373 627.931 300.15C627.931 300.927 627.795 301.617 627.524 302.218C627.252 302.812 626.878 303.281 626.402 303.626C625.925 303.963 625.375 304.132 624.752 304.132ZM624.752 302.768C625.082 302.768 625.375 302.658 625.632 302.438C625.896 302.211 626.101 301.903 626.248 301.514C626.394 301.118 626.468 300.663 626.468 300.15C626.468 299.637 626.394 299.182 626.248 298.786C626.101 298.39 625.896 298.082 625.632 297.862C625.375 297.635 625.078 297.521 624.741 297.521C624.411 297.521 624.117 297.635 623.861 297.862C623.604 298.082 623.402 298.39 623.256 298.786C623.116 299.182 623.047 299.637 623.047 300.15C623.047 300.663 623.116 301.118 623.256 301.514C623.402 301.903 623.604 302.211 623.861 302.438C624.125 302.658 624.422 302.768 624.752 302.768ZM631.884 304.132C631.261 304.132 630.711 303.963 630.234 303.626C629.758 303.281 629.384 302.812 629.112 302.218C628.841 301.617 628.705 300.927 628.705 300.15C628.705 299.373 628.841 298.687 629.112 298.093C629.384 297.492 629.754 297.022 630.223 296.685C630.7 296.34 631.25 296.168 631.873 296.168C632.497 296.168 633.047 296.34 633.523 296.685C634.007 297.022 634.385 297.492 634.656 298.093C634.928 298.687 635.063 299.373 635.063 300.15C635.063 300.927 634.928 301.617 634.656 302.218C634.385 302.812 634.011 303.281 633.534 303.626C633.058 303.963 632.508 304.132 631.884 304.132ZM631.884 302.768C632.214 302.768 632.508 302.658 632.764 302.438C633.028 302.211 633.234 301.903 633.38 301.514C633.527 301.118 633.6 300.663 633.6 300.15C633.6 299.637 633.527 299.182 633.38 298.786C633.234 298.39 633.028 298.082 632.764 297.862C632.508 297.635 632.211 297.521 631.873 297.521C631.543 297.521 631.25 297.635 630.993 297.862C630.737 298.082 630.535 298.39 630.388 298.786C630.249 299.182 630.179 299.637 630.179 300.15C630.179 300.663 630.249 301.118 630.388 301.514C630.535 301.903 630.737 302.211 630.993 302.438C631.257 302.658 631.554 302.768 631.884 302.768Z" fill="white"/>
<path d="M0.25 284V316" stroke="#BA1A1A" stroke-width="0.5" stroke-dasharray="2 2"/>
<path d="M155.75 284V316" stroke="#BA1A1A" stroke-width="0.5" stroke-dasharray="2 2"/>
<path d="M155.75 300L155.75 297M155.75 300L155.75 303M155.75 300L0.249995 300M0.249995 300L0.249996 297M0.249995 300L0.249995 303" stroke="#BA1A1A" stroke-width="0.5"/>
<rect x="65" y="292" width="26" height="16" rx="3" fill="#BA1A1A"/>
<path d="M71.4385 304V297.103L71.5815 296.3H72.8795L72.8685 304H71.4385ZM69.8105 298.731V297.367C69.9938 297.382 70.1918 297.338 70.4045 297.235C70.6171 297.125 70.8261 296.986 71.0315 296.817C71.2441 296.641 71.4275 296.465 71.5815 296.289L72.5385 297.224C72.2745 297.517 71.9958 297.785 71.7025 298.027C71.4091 298.262 71.1048 298.445 70.7895 298.577C70.4815 298.709 70.1551 298.76 69.8105 298.731ZM77.1571 304.132C76.8051 304.132 76.4421 304.073 76.0681 303.956C75.7014 303.839 75.3677 303.663 75.0671 303.428C74.7737 303.193 74.5574 302.904 74.4181 302.559L75.7931 302.152C75.9544 302.387 76.1451 302.559 76.3651 302.669C76.5924 302.779 76.8271 302.834 77.0691 302.834C77.4504 302.834 77.7584 302.72 77.9931 302.493C78.2351 302.258 78.3561 301.947 78.3561 301.558C78.3561 301.199 78.2387 300.898 78.0041 300.656C77.7767 300.414 77.4724 300.293 77.0911 300.293C76.8637 300.293 76.6547 300.344 76.4641 300.447C76.2734 300.55 76.1267 300.671 76.0241 300.81L74.6711 300.513L75.1331 296.3H79.4891V297.664H75.3531L75.1331 296.344H76.6291L76.0241 300.656L75.2211 300.513C75.2871 300.381 75.3897 300.238 75.5291 300.084C75.6684 299.923 75.8407 299.769 76.0461 299.622C76.2587 299.475 76.4971 299.358 76.7611 299.27C77.0251 299.182 77.3184 299.142 77.6411 299.149C78.0591 299.149 78.4404 299.252 78.7851 299.457C79.1297 299.655 79.4011 299.93 79.5991 300.282C79.8044 300.627 79.9071 301.03 79.9071 301.492C79.9071 302.013 79.7897 302.471 79.5551 302.867C79.3204 303.263 78.9977 303.575 78.5871 303.802C78.1764 304.022 77.6997 304.132 77.1571 304.132ZM83.6147 304.132C83.094 304.132 82.6504 304.04 82.2837 303.857C81.9244 303.666 81.6274 303.406 81.3927 303.076C81.1654 302.746 80.9967 302.365 80.8867 301.932C80.784 301.492 80.7327 301.019 80.7327 300.513C80.7327 299.926 80.795 299.373 80.9197 298.852C81.0444 298.324 81.2314 297.858 81.4807 297.455C81.7374 297.052 82.0637 296.736 82.4597 296.509C82.8557 296.282 83.3324 296.168 83.8897 296.168C84.293 296.168 84.6854 296.227 85.0667 296.344C85.4554 296.461 85.8037 296.63 86.1117 296.85L85.3637 297.95C85.1364 297.789 84.8907 297.671 84.6267 297.598C84.37 297.525 84.1317 297.488 83.9117 297.488C83.347 297.488 82.9034 297.737 82.5807 298.236C82.258 298.735 82.104 299.523 82.1187 300.601L81.8217 300.392C81.9904 299.989 82.2507 299.666 82.6027 299.424C82.9547 299.182 83.3727 299.061 83.8567 299.061C84.348 299.061 84.7807 299.175 85.1547 299.402C85.536 299.629 85.833 299.941 86.0457 300.337C86.2657 300.726 86.3757 301.162 86.3757 301.646C86.3757 302.123 86.262 302.552 86.0347 302.933C85.8074 303.307 85.4847 303.6 85.0667 303.813C84.656 304.026 84.172 304.132 83.6147 304.132ZM83.6147 302.856C83.8567 302.856 84.073 302.801 84.2637 302.691C84.4544 302.581 84.6047 302.431 84.7147 302.24C84.8247 302.049 84.8797 301.829 84.8797 301.58C84.8797 301.331 84.8247 301.111 84.7147 300.92C84.6047 300.722 84.4544 300.568 84.2637 300.458C84.073 300.341 83.8567 300.282 83.6147 300.282C83.3727 300.282 83.1527 300.341 82.9547 300.458C82.764 300.568 82.6137 300.722 82.5037 300.92C82.3937 301.111 82.3387 301.331 82.3387 301.58C82.3387 301.829 82.3937 302.049 82.5037 302.24C82.6137 302.431 82.764 302.581 82.9547 302.691C83.1527 302.801 83.3727 302.856 83.6147 302.856Z" fill="white"/>
<rect x="343.5" y="0.5" width="104" height="23" rx="5.5" fill="#FFEBF7"/>
<rect x="343.5" y="0.5" width="104" height="23" rx="5.5" stroke="#FFADF3"/>
<path d="M354.783 17C354.733 16.9089 354.692 16.7995 354.66 16.6719C354.633 16.5397 354.608 16.403 354.585 16.2617C354.471 16.3802 354.341 16.4941 354.195 16.6035C354.054 16.7083 353.895 16.7995 353.717 16.877C353.539 16.959 353.348 17.0228 353.143 17.0684C352.938 17.1139 352.716 17.1367 352.479 17.1367C352.097 17.1367 351.746 17.082 351.427 16.9727C351.112 16.8587 350.843 16.7038 350.62 16.5078C350.392 16.3164 350.215 16.0863 350.087 15.8174C349.964 15.5439 349.902 15.25 349.902 14.9355C349.902 14.5299 349.982 14.1722 350.142 13.8623C350.306 13.5479 350.543 13.2881 350.853 13.083C351.14 12.8916 351.493 12.7458 351.912 12.6455C352.336 12.5452 352.814 12.4951 353.348 12.4951H354.537V11.9961C354.537 11.8047 354.503 11.6315 354.435 11.4766C354.371 11.3216 354.277 11.1872 354.154 11.0732C354.022 10.9593 353.86 10.8727 353.669 10.8135C353.482 10.7497 353.266 10.7178 353.02 10.7178C352.796 10.7178 352.6 10.7451 352.432 10.7998C352.268 10.8545 352.131 10.9297 352.021 11.0254C351.912 11.112 351.83 11.2191 351.775 11.3467C351.725 11.4697 351.7 11.6019 351.7 11.7432H350.06C350.064 11.4469 350.135 11.1621 350.271 10.8887C350.408 10.6152 350.609 10.3737 350.873 10.1641C351.128 9.94987 351.443 9.78125 351.816 9.6582C352.195 9.5306 352.625 9.4668 353.108 9.4668C353.541 9.4668 353.945 9.52148 354.318 9.63086C354.697 9.73568 355.022 9.8929 355.296 10.1025C355.569 10.3122 355.784 10.5788 355.938 10.9023C356.093 11.2214 356.171 11.5905 356.171 12.0098V15.2979C356.171 15.6305 356.194 15.9313 356.239 16.2002C356.289 16.4645 356.36 16.6924 356.451 16.8838V17H354.783ZM352.794 15.8242C353.008 15.8242 353.206 15.7969 353.389 15.7422C353.576 15.6875 353.744 15.6169 353.895 15.5303C354.045 15.4437 354.175 15.3457 354.284 15.2363C354.394 15.127 354.478 15.013 354.537 14.8945V13.5273H353.484C353.129 13.5273 352.821 13.5615 352.562 13.6299C352.302 13.6937 352.094 13.7871 351.939 13.9102C351.803 14.015 351.7 14.1403 351.632 14.2861C351.568 14.432 351.536 14.596 351.536 14.7783C351.536 14.9287 351.563 15.07 351.618 15.2021C351.673 15.3298 351.753 15.4391 351.857 15.5303C351.962 15.6214 352.092 15.6943 352.247 15.749C352.402 15.7992 352.584 15.8242 352.794 15.8242ZM363.314 17L363.219 15.9678C362.968 16.3369 362.663 16.6263 362.303 16.8359C361.943 17.041 361.539 17.1436 361.093 17.1436C360.71 17.1436 360.359 17.0843 360.04 16.9658C359.726 16.8428 359.454 16.6536 359.227 16.3984C359.003 16.1432 358.83 15.8174 358.707 15.4209C358.584 15.0199 358.522 14.5413 358.522 13.9854V9.60352H360.156V13.999C360.156 14.3408 360.181 14.6279 360.231 14.8604C360.282 15.0882 360.361 15.2705 360.471 15.4072C360.58 15.5485 360.719 15.6488 360.888 15.708C361.056 15.7673 361.255 15.7969 361.482 15.7969C361.719 15.7969 361.931 15.7718 362.118 15.7217C362.305 15.667 362.469 15.5941 362.61 15.5029C362.729 15.4209 362.834 15.3252 362.925 15.2158C363.016 15.1019 363.093 14.9766 363.157 14.8398V9.60352H364.798V17H363.314ZM370.157 7.79883V9.60352H372.939V10.8271H370.157V14.3613C370.157 14.6348 370.189 14.8649 370.253 15.0518C370.321 15.234 370.415 15.3776 370.533 15.4824C370.652 15.5918 370.793 15.6693 370.957 15.7148C371.121 15.7604 371.301 15.7832 371.497 15.7832C371.638 15.7832 371.784 15.7764 371.935 15.7627C372.085 15.749 372.231 15.7308 372.372 15.708C372.509 15.6898 372.636 15.6693 372.755 15.6465C372.878 15.6191 372.98 15.5964 373.062 15.5781L373.24 16.7061C373.122 16.779 372.978 16.8428 372.81 16.8975C372.646 16.9476 372.468 16.9909 372.276 17.0273C372.085 17.0638 371.884 17.0911 371.675 17.1094C371.47 17.1322 371.265 17.1436 371.06 17.1436C370.686 17.1436 370.342 17.0934 370.027 16.9932C369.717 16.8883 369.451 16.7266 369.228 16.5078C369.004 16.2936 368.829 16.0179 368.701 15.6807C368.578 15.3434 368.517 14.9378 368.517 14.4639V10.8271H366.726V9.60352H368.517V7.79883H370.157ZM374.983 13.2334C374.983 12.6956 375.061 12.1989 375.216 11.7432C375.371 11.2829 375.596 10.8841 375.893 10.5469C376.184 10.2096 376.542 9.94531 376.966 9.75391C377.39 9.5625 377.873 9.4668 378.415 9.4668C378.957 9.4668 379.44 9.5625 379.864 9.75391C380.293 9.94531 380.655 10.2096 380.951 10.5469C381.243 10.8841 381.466 11.2829 381.621 11.7432C381.776 12.1989 381.854 12.6956 381.854 13.2334V13.377C381.854 13.9193 381.776 14.4183 381.621 14.874C381.466 15.3298 381.243 15.7262 380.951 16.0635C380.66 16.4007 380.299 16.665 379.871 16.8564C379.447 17.0479 378.966 17.1436 378.429 17.1436C377.886 17.1436 377.401 17.0479 376.973 16.8564C376.544 16.665 376.184 16.4007 375.893 16.0635C375.596 15.7262 375.371 15.3298 375.216 14.874C375.061 14.4183 374.983 13.9193 374.983 13.377V13.2334ZM376.617 13.377C376.617 13.7096 376.651 14.0241 376.72 14.3203C376.793 14.6165 376.904 14.8763 377.055 15.0996C377.201 15.3229 377.387 15.5007 377.615 15.6328C377.843 15.7604 378.114 15.8242 378.429 15.8242C378.734 15.8242 379.001 15.7604 379.229 15.6328C379.456 15.5007 379.643 15.3229 379.789 15.0996C379.935 14.8763 380.042 14.6165 380.11 14.3203C380.183 14.0241 380.22 13.7096 380.22 13.377V13.2334C380.22 12.9098 380.183 12.5999 380.11 12.3037C380.037 12.0075 379.93 11.7477 379.789 11.5244C379.639 11.3011 379.45 11.1234 379.222 10.9912C378.998 10.859 378.729 10.793 378.415 10.793C378.105 10.793 377.836 10.859 377.608 10.9912C377.385 11.1234 377.201 11.3011 377.055 11.5244C376.904 11.7477 376.793 12.0075 376.72 12.3037C376.651 12.5999 376.617 12.9098 376.617 13.2334V13.377ZM389.879 13.2881H384.376V11.9619H389.879V13.2881ZM395.32 15.8242C395.525 15.8242 395.721 15.7946 395.908 15.7354C396.1 15.6715 396.268 15.5827 396.414 15.4688C396.555 15.3548 396.667 15.2204 396.749 15.0654C396.836 14.9105 396.879 14.7396 396.879 14.5527H398.417C398.422 14.9128 398.34 15.2523 398.171 15.5713C398.007 15.8857 397.784 16.1569 397.501 16.3848C397.214 16.6217 396.883 16.8086 396.51 16.9453C396.141 17.0775 395.751 17.1436 395.341 17.1436C394.771 17.1436 394.272 17.0456 393.844 16.8496C393.42 16.6491 393.067 16.3802 392.784 16.043C392.497 15.7057 392.281 15.3138 392.135 14.8672C391.989 14.416 391.916 13.9352 391.916 13.4248V13.1855C391.916 12.6797 391.987 12.2012 392.128 11.75C392.274 11.2988 392.49 10.9046 392.777 10.5674C393.064 10.2301 393.42 9.96354 393.844 9.76758C394.272 9.56706 394.769 9.4668 395.334 9.4668C395.781 9.4668 396.193 9.53516 396.571 9.67188C396.954 9.80859 397.282 10 397.556 10.2461C397.829 10.4922 398.041 10.7861 398.191 11.1279C398.346 11.4697 398.422 11.8457 398.417 12.2559H396.879C396.879 12.0553 396.84 11.8662 396.763 11.6885C396.69 11.5107 396.585 11.3558 396.448 11.2236C396.307 11.0915 396.138 10.9867 395.942 10.9092C395.751 10.8317 395.544 10.793 395.32 10.793C394.979 10.793 394.694 10.8636 394.466 11.0049C394.243 11.1416 394.065 11.3216 393.933 11.5449C393.791 11.7682 393.691 12.0234 393.632 12.3105C393.577 12.5977 393.55 12.8893 393.55 13.1855V13.4248C393.55 13.7256 393.577 14.0218 393.632 14.3135C393.691 14.6006 393.789 14.8535 393.926 15.0723C394.058 15.3001 394.238 15.4824 394.466 15.6191C394.694 15.7559 394.979 15.8242 395.32 15.8242ZM400.208 13.2334C400.208 12.6956 400.285 12.1989 400.44 11.7432C400.595 11.2829 400.821 10.8841 401.117 10.5469C401.409 10.2096 401.767 9.94531 402.19 9.75391C402.614 9.5625 403.097 9.4668 403.64 9.4668C404.182 9.4668 404.665 9.5625 405.089 9.75391C405.517 9.94531 405.88 10.2096 406.176 10.5469C406.467 10.8841 406.691 11.2829 406.846 11.7432C407.001 12.1989 407.078 12.6956 407.078 13.2334V13.377C407.078 13.9193 407.001 14.4183 406.846 14.874C406.691 15.3298 406.467 15.7262 406.176 16.0635C405.884 16.4007 405.524 16.665 405.096 16.8564C404.672 17.0479 404.191 17.1436 403.653 17.1436C403.111 17.1436 402.626 17.0479 402.197 16.8564C401.769 16.665 401.409 16.4007 401.117 16.0635C400.821 15.7262 400.595 15.3298 400.44 14.874C400.285 14.4183 400.208 13.9193 400.208 13.377V13.2334ZM401.842 13.377C401.842 13.7096 401.876 14.0241 401.944 14.3203C402.017 14.6165 402.129 14.8763 402.279 15.0996C402.425 15.3229 402.612 15.5007 402.84 15.6328C403.068 15.7604 403.339 15.8242 403.653 15.8242C403.959 15.8242 404.225 15.7604 404.453 15.6328C404.681 15.5007 404.868 15.3229 405.014 15.0996C405.16 14.8763 405.267 14.6165 405.335 14.3203C405.408 14.0241 405.444 13.7096 405.444 13.377V13.2334C405.444 12.9098 405.408 12.5999 405.335 12.3037C405.262 12.0075 405.155 11.7477 405.014 11.5244C404.863 11.3011 404.674 11.1234 404.446 10.9912C404.223 10.859 403.954 10.793 403.64 10.793C403.33 10.793 403.061 10.859 402.833 10.9912C402.61 11.1234 402.425 11.3011 402.279 11.5244C402.129 11.7477 402.017 12.0075 401.944 12.3037C401.876 12.5999 401.842 12.9098 401.842 13.2334V13.377ZM409.231 6.5H413.217V15.6465H415.459V17H409.231V15.6465H411.569V7.86035H409.231V6.5ZM422.172 17L422.076 15.9678C421.826 16.3369 421.52 16.6263 421.16 16.8359C420.8 17.041 420.397 17.1436 419.95 17.1436C419.567 17.1436 419.216 17.0843 418.897 16.9658C418.583 16.8428 418.312 16.6536 418.084 16.3984C417.861 16.1432 417.688 15.8174 417.564 15.4209C417.441 15.0199 417.38 14.5413 417.38 13.9854V9.60352H419.014V13.999C419.014 14.3408 419.039 14.6279 419.089 14.8604C419.139 15.0882 419.219 15.2705 419.328 15.4072C419.438 15.5485 419.576 15.6488 419.745 15.708C419.914 15.7673 420.112 15.7969 420.34 15.7969C420.577 15.7969 420.789 15.7718 420.976 15.7217C421.162 15.667 421.326 15.5941 421.468 15.5029C421.586 15.4209 421.691 15.3252 421.782 15.2158C421.873 15.1019 421.951 14.9766 422.015 14.8398V9.60352H423.655V17H422.172ZM426.663 9.60352L426.711 10.417C426.852 10.1208 427.046 9.88835 427.292 9.71973C427.543 9.55111 427.843 9.4668 428.194 9.4668C428.377 9.4668 428.541 9.4873 428.687 9.52832C428.832 9.56934 428.958 9.63314 429.062 9.71973C429.145 9.78353 429.217 9.861 429.281 9.95215C429.345 10.0387 429.4 10.139 429.445 10.2529C429.509 10.1481 429.582 10.0501 429.664 9.95898C429.746 9.86784 429.835 9.79036 429.931 9.72656C430.054 9.64453 430.19 9.58073 430.341 9.53516C430.496 9.48958 430.664 9.4668 430.847 9.4668C431.084 9.4668 431.3 9.50781 431.496 9.58984C431.697 9.66732 431.87 9.78809 432.016 9.95215C432.161 10.1253 432.273 10.3509 432.351 10.6289C432.433 10.9023 432.474 11.2327 432.474 11.6201V17H430.97V11.6064C430.97 11.4606 430.954 11.3376 430.922 11.2373C430.89 11.1325 430.844 11.0482 430.785 10.9844C430.726 10.9251 430.653 10.8818 430.566 10.8545C430.484 10.8271 430.393 10.8135 430.293 10.8135C430.188 10.8135 430.097 10.8271 430.02 10.8545C429.942 10.8818 429.874 10.9206 429.814 10.9707C429.76 11.0163 429.714 11.071 429.678 11.1348C429.641 11.194 429.614 11.2624 429.596 11.3398C429.596 11.3581 429.596 11.3809 429.596 11.4082C429.596 11.431 429.596 11.4652 429.596 11.5107V17H428.119V11.5996C428.119 11.4538 428.103 11.3307 428.071 11.2305C428.044 11.1257 428.001 11.0436 427.941 10.9844C427.882 10.9251 427.812 10.8818 427.729 10.8545C427.652 10.8271 427.563 10.8135 427.463 10.8135C427.354 10.8135 427.256 10.8294 427.169 10.8613C427.087 10.8887 427.016 10.932 426.957 10.9912C426.911 11.0322 426.87 11.0801 426.834 11.1348C426.802 11.1895 426.772 11.251 426.745 11.3193V17H425.241V9.60352H426.663ZM434.142 17V9.60352H435.618L435.721 10.6562C435.821 10.515 435.93 10.3851 436.049 10.2666C436.172 10.1436 436.302 10.0342 436.438 9.93848C436.657 9.78809 436.896 9.67188 437.156 9.58984C437.416 9.50781 437.689 9.4668 437.977 9.4668C438.355 9.4668 438.701 9.52148 439.016 9.63086C439.33 9.74023 439.599 9.91341 439.822 10.1504C440.046 10.3874 440.219 10.6904 440.342 11.0596C440.465 11.4242 440.526 11.8662 440.526 12.3857V17H438.893V12.4131C438.893 12.1077 438.858 11.8525 438.79 11.6475C438.722 11.4424 438.621 11.2783 438.489 11.1553C438.357 11.0322 438.198 10.9456 438.011 10.8955C437.824 10.8408 437.61 10.8135 437.368 10.8135C437.168 10.8135 436.981 10.8408 436.808 10.8955C436.634 10.9456 436.477 11.0186 436.336 11.1143C436.227 11.1872 436.124 11.276 436.028 11.3809C435.933 11.4857 435.848 11.5996 435.775 11.7227V17H434.142Z" fill="#380037"/>
<rect x="457.5" y="0.5" width="104" height="23" rx="5.5" fill="#FFEBF7"/>
<rect x="457.5" y="0.5" width="104" height="23" rx="5.5" stroke="#FFADF3"/>
<path d="M468.783 17C468.733 16.9089 468.692 16.7995 468.66 16.6719C468.633 16.5397 468.608 16.403 468.585 16.2617C468.471 16.3802 468.341 16.4941 468.195 16.6035C468.054 16.7083 467.895 16.7995 467.717 16.877C467.539 16.959 467.348 17.0228 467.143 17.0684C466.938 17.1139 466.716 17.1367 466.479 17.1367C466.097 17.1367 465.746 17.082 465.427 16.9727C465.112 16.8587 464.843 16.7038 464.62 16.5078C464.392 16.3164 464.215 16.0863 464.087 15.8174C463.964 15.5439 463.902 15.25 463.902 14.9355C463.902 14.5299 463.982 14.1722 464.142 13.8623C464.306 13.5479 464.543 13.2881 464.853 13.083C465.14 12.8916 465.493 12.7458 465.912 12.6455C466.336 12.5452 466.814 12.4951 467.348 12.4951H468.537V11.9961C468.537 11.8047 468.503 11.6315 468.435 11.4766C468.371 11.3216 468.277 11.1872 468.154 11.0732C468.022 10.9593 467.86 10.8727 467.669 10.8135C467.482 10.7497 467.266 10.7178 467.02 10.7178C466.796 10.7178 466.6 10.7451 466.432 10.7998C466.268 10.8545 466.131 10.9297 466.021 11.0254C465.912 11.112 465.83 11.2191 465.775 11.3467C465.725 11.4697 465.7 11.6019 465.7 11.7432H464.06C464.064 11.4469 464.135 11.1621 464.271 10.8887C464.408 10.6152 464.609 10.3737 464.873 10.1641C465.128 9.94987 465.443 9.78125 465.816 9.6582C466.195 9.5306 466.625 9.4668 467.108 9.4668C467.541 9.4668 467.945 9.52148 468.318 9.63086C468.697 9.73568 469.022 9.8929 469.296 10.1025C469.569 10.3122 469.784 10.5788 469.938 10.9023C470.093 11.2214 470.171 11.5905 470.171 12.0098V15.2979C470.171 15.6305 470.194 15.9313 470.239 16.2002C470.289 16.4645 470.36 16.6924 470.451 16.8838V17H468.783ZM466.794 15.8242C467.008 15.8242 467.206 15.7969 467.389 15.7422C467.576 15.6875 467.744 15.6169 467.895 15.5303C468.045 15.4437 468.175 15.3457 468.284 15.2363C468.394 15.127 468.478 15.013 468.537 14.8945V13.5273H467.484C467.129 13.5273 466.821 13.5615 466.562 13.6299C466.302 13.6937 466.094 13.7871 465.939 13.9102C465.803 14.015 465.7 14.1403 465.632 14.2861C465.568 14.432 465.536 14.596 465.536 14.7783C465.536 14.9287 465.563 15.07 465.618 15.2021C465.673 15.3298 465.753 15.4391 465.857 15.5303C465.962 15.6214 466.092 15.6943 466.247 15.749C466.402 15.7992 466.584 15.8242 466.794 15.8242ZM477.314 17L477.219 15.9678C476.968 16.3369 476.663 16.6263 476.303 16.8359C475.943 17.041 475.539 17.1436 475.093 17.1436C474.71 17.1436 474.359 17.0843 474.04 16.9658C473.726 16.8428 473.454 16.6536 473.227 16.3984C473.003 16.1432 472.83 15.8174 472.707 15.4209C472.584 15.0199 472.522 14.5413 472.522 13.9854V9.60352H474.156V13.999C474.156 14.3408 474.181 14.6279 474.231 14.8604C474.282 15.0882 474.361 15.2705 474.471 15.4072C474.58 15.5485 474.719 15.6488 474.888 15.708C475.056 15.7673 475.255 15.7969 475.482 15.7969C475.719 15.7969 475.931 15.7718 476.118 15.7217C476.305 15.667 476.469 15.5941 476.61 15.5029C476.729 15.4209 476.834 15.3252 476.925 15.2158C477.016 15.1019 477.093 14.9766 477.157 14.8398V9.60352H478.798V17H477.314ZM484.157 7.79883V9.60352H486.939V10.8271H484.157V14.3613C484.157 14.6348 484.189 14.8649 484.253 15.0518C484.321 15.234 484.415 15.3776 484.533 15.4824C484.652 15.5918 484.793 15.6693 484.957 15.7148C485.121 15.7604 485.301 15.7832 485.497 15.7832C485.638 15.7832 485.784 15.7764 485.935 15.7627C486.085 15.749 486.231 15.7308 486.372 15.708C486.509 15.6898 486.636 15.6693 486.755 15.6465C486.878 15.6191 486.98 15.5964 487.062 15.5781L487.24 16.7061C487.122 16.779 486.978 16.8428 486.81 16.8975C486.646 16.9476 486.468 16.9909 486.276 17.0273C486.085 17.0638 485.884 17.0911 485.675 17.1094C485.47 17.1322 485.265 17.1436 485.06 17.1436C484.686 17.1436 484.342 17.0934 484.027 16.9932C483.717 16.8883 483.451 16.7266 483.228 16.5078C483.004 16.2936 482.829 16.0179 482.701 15.6807C482.578 15.3434 482.517 14.9378 482.517 14.4639V10.8271H480.726V9.60352H482.517V7.79883H484.157ZM488.983 13.2334C488.983 12.6956 489.061 12.1989 489.216 11.7432C489.371 11.2829 489.596 10.8841 489.893 10.5469C490.184 10.2096 490.542 9.94531 490.966 9.75391C491.39 9.5625 491.873 9.4668 492.415 9.4668C492.957 9.4668 493.44 9.5625 493.864 9.75391C494.293 9.94531 494.655 10.2096 494.951 10.5469C495.243 10.8841 495.466 11.2829 495.621 11.7432C495.776 12.1989 495.854 12.6956 495.854 13.2334V13.377C495.854 13.9193 495.776 14.4183 495.621 14.874C495.466 15.3298 495.243 15.7262 494.951 16.0635C494.66 16.4007 494.299 16.665 493.871 16.8564C493.447 17.0479 492.966 17.1436 492.429 17.1436C491.886 17.1436 491.401 17.0479 490.973 16.8564C490.544 16.665 490.184 16.4007 489.893 16.0635C489.596 15.7262 489.371 15.3298 489.216 14.874C489.061 14.4183 488.983 13.9193 488.983 13.377V13.2334ZM490.617 13.377C490.617 13.7096 490.651 14.0241 490.72 14.3203C490.793 14.6165 490.904 14.8763 491.055 15.0996C491.201 15.3229 491.387 15.5007 491.615 15.6328C491.843 15.7604 492.114 15.8242 492.429 15.8242C492.734 15.8242 493.001 15.7604 493.229 15.6328C493.456 15.5007 493.643 15.3229 493.789 15.0996C493.935 14.8763 494.042 14.6165 494.11 14.3203C494.183 14.0241 494.22 13.7096 494.22 13.377V13.2334C494.22 12.9098 494.183 12.5999 494.11 12.3037C494.037 12.0075 493.93 11.7477 493.789 11.5244C493.639 11.3011 493.45 11.1234 493.222 10.9912C492.998 10.859 492.729 10.793 492.415 10.793C492.105 10.793 491.836 10.859 491.608 10.9912C491.385 11.1234 491.201 11.3011 491.055 11.5244C490.904 11.7477 490.793 12.0075 490.72 12.3037C490.651 12.5999 490.617 12.9098 490.617 13.2334V13.377ZM503.879 13.2881H498.376V11.9619H503.879V13.2881ZM509.32 15.8242C509.525 15.8242 509.721 15.7946 509.908 15.7354C510.1 15.6715 510.268 15.5827 510.414 15.4688C510.555 15.3548 510.667 15.2204 510.749 15.0654C510.836 14.9105 510.879 14.7396 510.879 14.5527H512.417C512.422 14.9128 512.34 15.2523 512.171 15.5713C512.007 15.8857 511.784 16.1569 511.501 16.3848C511.214 16.6217 510.883 16.8086 510.51 16.9453C510.141 17.0775 509.751 17.1436 509.341 17.1436C508.771 17.1436 508.272 17.0456 507.844 16.8496C507.42 16.6491 507.067 16.3802 506.784 16.043C506.497 15.7057 506.281 15.3138 506.135 14.8672C505.989 14.416 505.916 13.9352 505.916 13.4248V13.1855C505.916 12.6797 505.987 12.2012 506.128 11.75C506.274 11.2988 506.49 10.9046 506.777 10.5674C507.064 10.2301 507.42 9.96354 507.844 9.76758C508.272 9.56706 508.769 9.4668 509.334 9.4668C509.781 9.4668 510.193 9.53516 510.571 9.67188C510.954 9.80859 511.282 10 511.556 10.2461C511.829 10.4922 512.041 10.7861 512.191 11.1279C512.346 11.4697 512.422 11.8457 512.417 12.2559H510.879C510.879 12.0553 510.84 11.8662 510.763 11.6885C510.69 11.5107 510.585 11.3558 510.448 11.2236C510.307 11.0915 510.138 10.9867 509.942 10.9092C509.751 10.8317 509.544 10.793 509.32 10.793C508.979 10.793 508.694 10.8636 508.466 11.0049C508.243 11.1416 508.065 11.3216 507.933 11.5449C507.791 11.7682 507.691 12.0234 507.632 12.3105C507.577 12.5977 507.55 12.8893 507.55 13.1855V13.4248C507.55 13.7256 507.577 14.0218 507.632 14.3135C507.691 14.6006 507.789 14.8535 507.926 15.0723C508.058 15.3001 508.238 15.4824 508.466 15.6191C508.694 15.7559 508.979 15.8242 509.32 15.8242ZM514.208 13.2334C514.208 12.6956 514.285 12.1989 514.44 11.7432C514.595 11.2829 514.821 10.8841 515.117 10.5469C515.409 10.2096 515.767 9.94531 516.19 9.75391C516.614 9.5625 517.097 9.4668 517.64 9.4668C518.182 9.4668 518.665 9.5625 519.089 9.75391C519.517 9.94531 519.88 10.2096 520.176 10.5469C520.467 10.8841 520.691 11.2829 520.846 11.7432C521.001 12.1989 521.078 12.6956 521.078 13.2334V13.377C521.078 13.9193 521.001 14.4183 520.846 14.874C520.691 15.3298 520.467 15.7262 520.176 16.0635C519.884 16.4007 519.524 16.665 519.096 16.8564C518.672 17.0479 518.191 17.1436 517.653 17.1436C517.111 17.1436 516.626 17.0479 516.197 16.8564C515.769 16.665 515.409 16.4007 515.117 16.0635C514.821 15.7262 514.595 15.3298 514.44 14.874C514.285 14.4183 514.208 13.9193 514.208 13.377V13.2334ZM515.842 13.377C515.842 13.7096 515.876 14.0241 515.944 14.3203C516.017 14.6165 516.129 14.8763 516.279 15.0996C516.425 15.3229 516.612 15.5007 516.84 15.6328C517.068 15.7604 517.339 15.8242 517.653 15.8242C517.959 15.8242 518.225 15.7604 518.453 15.6328C518.681 15.5007 518.868 15.3229 519.014 15.0996C519.16 14.8763 519.267 14.6165 519.335 14.3203C519.408 14.0241 519.444 13.7096 519.444 13.377V13.2334C519.444 12.9098 519.408 12.5999 519.335 12.3037C519.262 12.0075 519.155 11.7477 519.014 11.5244C518.863 11.3011 518.674 11.1234 518.446 10.9912C518.223 10.859 517.954 10.793 517.64 10.793C517.33 10.793 517.061 10.859 516.833 10.9912C516.61 11.1234 516.425 11.3011 516.279 11.5244C516.129 11.7477 516.017 12.0075 515.944 12.3037C515.876 12.5999 515.842 12.9098 515.842 13.2334V13.377ZM523.231 6.5H527.217V15.6465H529.459V17H523.231V15.6465H525.569V7.86035H523.231V6.5ZM536.172 17L536.076 15.9678C535.826 16.3369 535.52 16.6263 535.16 16.8359C534.8 17.041 534.397 17.1436 533.95 17.1436C533.567 17.1436 533.216 17.0843 532.897 16.9658C532.583 16.8428 532.312 16.6536 532.084 16.3984C531.861 16.1432 531.688 15.8174 531.564 15.4209C531.441 15.0199 531.38 14.5413 531.38 13.9854V9.60352H533.014V13.999C533.014 14.3408 533.039 14.6279 533.089 14.8604C533.139 15.0882 533.219 15.2705 533.328 15.4072C533.438 15.5485 533.576 15.6488 533.745 15.708C533.914 15.7673 534.112 15.7969 534.34 15.7969C534.577 15.7969 534.789 15.7718 534.976 15.7217C535.162 15.667 535.326 15.5941 535.468 15.5029C535.586 15.4209 535.691 15.3252 535.782 15.2158C535.873 15.1019 535.951 14.9766 536.015 14.8398V9.60352H537.655V17H536.172ZM540.663 9.60352L540.711 10.417C540.852 10.1208 541.046 9.88835 541.292 9.71973C541.543 9.55111 541.843 9.4668 542.194 9.4668C542.377 9.4668 542.541 9.4873 542.687 9.52832C542.832 9.56934 542.958 9.63314 543.062 9.71973C543.145 9.78353 543.217 9.861 543.281 9.95215C543.345 10.0387 543.4 10.139 543.445 10.2529C543.509 10.1481 543.582 10.0501 543.664 9.95898C543.746 9.86784 543.835 9.79036 543.931 9.72656C544.054 9.64453 544.19 9.58073 544.341 9.53516C544.496 9.48958 544.664 9.4668 544.847 9.4668C545.084 9.4668 545.3 9.50781 545.496 9.58984C545.697 9.66732 545.87 9.78809 546.016 9.95215C546.161 10.1253 546.273 10.3509 546.351 10.6289C546.433 10.9023 546.474 11.2327 546.474 11.6201V17H544.97V11.6064C544.97 11.4606 544.954 11.3376 544.922 11.2373C544.89 11.1325 544.844 11.0482 544.785 10.9844C544.726 10.9251 544.653 10.8818 544.566 10.8545C544.484 10.8271 544.393 10.8135 544.293 10.8135C544.188 10.8135 544.097 10.8271 544.02 10.8545C543.942 10.8818 543.874 10.9206 543.814 10.9707C543.76 11.0163 543.714 11.071 543.678 11.1348C543.641 11.194 543.614 11.2624 543.596 11.3398C543.596 11.3581 543.596 11.3809 543.596 11.4082C543.596 11.431 543.596 11.4652 543.596 11.5107V17H542.119V11.5996C542.119 11.4538 542.103 11.3307 542.071 11.2305C542.044 11.1257 542.001 11.0436 541.941 10.9844C541.882 10.9251 541.812 10.8818 541.729 10.8545C541.652 10.8271 541.563 10.8135 541.463 10.8135C541.354 10.8135 541.256 10.8294 541.169 10.8613C541.087 10.8887 541.016 10.932 540.957 10.9912C540.911 11.0322 540.87 11.0801 540.834 11.1348C540.802 11.1895 540.772 11.251 540.745 11.3193V17H539.241V9.60352H540.663ZM548.142 17V9.60352H549.618L549.721 10.6562C549.821 10.515 549.93 10.3851 550.049 10.2666C550.172 10.1436 550.302 10.0342 550.438 9.93848C550.657 9.78809 550.896 9.67188 551.156 9.58984C551.416 9.50781 551.689 9.4668 551.977 9.4668C552.355 9.4668 552.701 9.52148 553.016 9.63086C553.33 9.74023 553.599 9.91341 553.822 10.1504C554.046 10.3874 554.219 10.6904 554.342 11.0596C554.465 11.4242 554.526 11.8662 554.526 12.3857V17H552.893V12.4131C552.893 12.1077 552.858 11.8525 552.79 11.6475C552.722 11.4424 552.621 11.2783 552.489 11.1553C552.357 11.0322 552.198 10.9456 552.011 10.8955C551.824 10.8408 551.61 10.8135 551.368 10.8135C551.168 10.8135 550.981 10.8408 550.808 10.8955C550.634 10.9456 550.477 11.0186 550.336 11.1143C550.227 11.1872 550.124 11.276 550.028 11.3809C549.933 11.4857 549.848 11.5996 549.775 11.7227V17H548.142Z" fill="#380037"/>
<rect x="571.5" y="0.5" width="104" height="23" rx="5.5" fill="#FFEBF7"/>
<rect x="571.5" y="0.5" width="104" height="23" rx="5.5" stroke="#FFADF3"/>
<path d="M582.783 17C582.733 16.9089 582.692 16.7995 582.66 16.6719C582.633 16.5397 582.608 16.403 582.585 16.2617C582.471 16.3802 582.341 16.4941 582.195 16.6035C582.054 16.7083 581.895 16.7995 581.717 16.877C581.539 16.959 581.348 17.0228 581.143 17.0684C580.938 17.1139 580.716 17.1367 580.479 17.1367C580.097 17.1367 579.746 17.082 579.427 16.9727C579.112 16.8587 578.843 16.7038 578.62 16.5078C578.392 16.3164 578.215 16.0863 578.087 15.8174C577.964 15.5439 577.902 15.25 577.902 14.9355C577.902 14.5299 577.982 14.1722 578.142 13.8623C578.306 13.5479 578.543 13.2881 578.853 13.083C579.14 12.8916 579.493 12.7458 579.912 12.6455C580.336 12.5452 580.814 12.4951 581.348 12.4951H582.537V11.9961C582.537 11.8047 582.503 11.6315 582.435 11.4766C582.371 11.3216 582.277 11.1872 582.154 11.0732C582.022 10.9593 581.86 10.8727 581.669 10.8135C581.482 10.7497 581.266 10.7178 581.02 10.7178C580.796 10.7178 580.6 10.7451 580.432 10.7998C580.268 10.8545 580.131 10.9297 580.021 11.0254C579.912 11.112 579.83 11.2191 579.775 11.3467C579.725 11.4697 579.7 11.6019 579.7 11.7432H578.06C578.064 11.4469 578.135 11.1621 578.271 10.8887C578.408 10.6152 578.609 10.3737 578.873 10.1641C579.128 9.94987 579.443 9.78125 579.816 9.6582C580.195 9.5306 580.625 9.4668 581.108 9.4668C581.541 9.4668 581.945 9.52148 582.318 9.63086C582.697 9.73568 583.022 9.8929 583.296 10.1025C583.569 10.3122 583.784 10.5788 583.938 10.9023C584.093 11.2214 584.171 11.5905 584.171 12.0098V15.2979C584.171 15.6305 584.194 15.9313 584.239 16.2002C584.289 16.4645 584.36 16.6924 584.451 16.8838V17H582.783ZM580.794 15.8242C581.008 15.8242 581.206 15.7969 581.389 15.7422C581.576 15.6875 581.744 15.6169 581.895 15.5303C582.045 15.4437 582.175 15.3457 582.284 15.2363C582.394 15.127 582.478 15.013 582.537 14.8945V13.5273H581.484C581.129 13.5273 580.821 13.5615 580.562 13.6299C580.302 13.6937 580.094 13.7871 579.939 13.9102C579.803 14.015 579.7 14.1403 579.632 14.2861C579.568 14.432 579.536 14.596 579.536 14.7783C579.536 14.9287 579.563 15.07 579.618 15.2021C579.673 15.3298 579.753 15.4391 579.857 15.5303C579.962 15.6214 580.092 15.6943 580.247 15.749C580.402 15.7992 580.584 15.8242 580.794 15.8242ZM591.314 17L591.219 15.9678C590.968 16.3369 590.663 16.6263 590.303 16.8359C589.943 17.041 589.539 17.1436 589.093 17.1436C588.71 17.1436 588.359 17.0843 588.04 16.9658C587.726 16.8428 587.454 16.6536 587.227 16.3984C587.003 16.1432 586.83 15.8174 586.707 15.4209C586.584 15.0199 586.522 14.5413 586.522 13.9854V9.60352H588.156V13.999C588.156 14.3408 588.181 14.6279 588.231 14.8604C588.282 15.0882 588.361 15.2705 588.471 15.4072C588.58 15.5485 588.719 15.6488 588.888 15.708C589.056 15.7673 589.255 15.7969 589.482 15.7969C589.719 15.7969 589.931 15.7718 590.118 15.7217C590.305 15.667 590.469 15.5941 590.61 15.5029C590.729 15.4209 590.834 15.3252 590.925 15.2158C591.016 15.1019 591.093 14.9766 591.157 14.8398V9.60352H592.798V17H591.314ZM598.157 7.79883V9.60352H600.939V10.8271H598.157V14.3613C598.157 14.6348 598.189 14.8649 598.253 15.0518C598.321 15.234 598.415 15.3776 598.533 15.4824C598.652 15.5918 598.793 15.6693 598.957 15.7148C599.121 15.7604 599.301 15.7832 599.497 15.7832C599.638 15.7832 599.784 15.7764 599.935 15.7627C600.085 15.749 600.231 15.7308 600.372 15.708C600.509 15.6898 600.636 15.6693 600.755 15.6465C600.878 15.6191 600.98 15.5964 601.062 15.5781L601.24 16.7061C601.122 16.779 600.978 16.8428 600.81 16.8975C600.646 16.9476 600.468 16.9909 600.276 17.0273C600.085 17.0638 599.884 17.0911 599.675 17.1094C599.47 17.1322 599.265 17.1436 599.06 17.1436C598.686 17.1436 598.342 17.0934 598.027 16.9932C597.717 16.8883 597.451 16.7266 597.228 16.5078C597.004 16.2936 596.829 16.0179 596.701 15.6807C596.578 15.3434 596.517 14.9378 596.517 14.4639V10.8271H594.726V9.60352H596.517V7.79883H598.157ZM602.983 13.2334C602.983 12.6956 603.061 12.1989 603.216 11.7432C603.371 11.2829 603.596 10.8841 603.893 10.5469C604.184 10.2096 604.542 9.94531 604.966 9.75391C605.39 9.5625 605.873 9.4668 606.415 9.4668C606.957 9.4668 607.44 9.5625 607.864 9.75391C608.293 9.94531 608.655 10.2096 608.951 10.5469C609.243 10.8841 609.466 11.2829 609.621 11.7432C609.776 12.1989 609.854 12.6956 609.854 13.2334V13.377C609.854 13.9193 609.776 14.4183 609.621 14.874C609.466 15.3298 609.243 15.7262 608.951 16.0635C608.66 16.4007 608.299 16.665 607.871 16.8564C607.447 17.0479 606.966 17.1436 606.429 17.1436C605.886 17.1436 605.401 17.0479 604.973 16.8564C604.544 16.665 604.184 16.4007 603.893 16.0635C603.596 15.7262 603.371 15.3298 603.216 14.874C603.061 14.4183 602.983 13.9193 602.983 13.377V13.2334ZM604.617 13.377C604.617 13.7096 604.651 14.0241 604.72 14.3203C604.793 14.6165 604.904 14.8763 605.055 15.0996C605.201 15.3229 605.387 15.5007 605.615 15.6328C605.843 15.7604 606.114 15.8242 606.429 15.8242C606.734 15.8242 607.001 15.7604 607.229 15.6328C607.456 15.5007 607.643 15.3229 607.789 15.0996C607.935 14.8763 608.042 14.6165 608.11 14.3203C608.183 14.0241 608.22 13.7096 608.22 13.377V13.2334C608.22 12.9098 608.183 12.5999 608.11 12.3037C608.037 12.0075 607.93 11.7477 607.789 11.5244C607.639 11.3011 607.45 11.1234 607.222 10.9912C606.998 10.859 606.729 10.793 606.415 10.793C606.105 10.793 605.836 10.859 605.608 10.9912C605.385 11.1234 605.201 11.3011 605.055 11.5244C604.904 11.7477 604.793 12.0075 604.72 12.3037C604.651 12.5999 604.617 12.9098 604.617 13.2334V13.377ZM617.879 13.2881H612.376V11.9619H617.879V13.2881ZM623.32 15.8242C623.525 15.8242 623.721 15.7946 623.908 15.7354C624.1 15.6715 624.268 15.5827 624.414 15.4688C624.555 15.3548 624.667 15.2204 624.749 15.0654C624.836 14.9105 624.879 14.7396 624.879 14.5527H626.417C626.422 14.9128 626.34 15.2523 626.171 15.5713C626.007 15.8857 625.784 16.1569 625.501 16.3848C625.214 16.6217 624.883 16.8086 624.51 16.9453C624.141 17.0775 623.751 17.1436 623.341 17.1436C622.771 17.1436 622.272 17.0456 621.844 16.8496C621.42 16.6491 621.067 16.3802 620.784 16.043C620.497 15.7057 620.281 15.3138 620.135 14.8672C619.989 14.416 619.916 13.9352 619.916 13.4248V13.1855C619.916 12.6797 619.987 12.2012 620.128 11.75C620.274 11.2988 620.49 10.9046 620.777 10.5674C621.064 10.2301 621.42 9.96354 621.844 9.76758C622.272 9.56706 622.769 9.4668 623.334 9.4668C623.781 9.4668 624.193 9.53516 624.571 9.67188C624.954 9.80859 625.282 10 625.556 10.2461C625.829 10.4922 626.041 10.7861 626.191 11.1279C626.346 11.4697 626.422 11.8457 626.417 12.2559H624.879C624.879 12.0553 624.84 11.8662 624.763 11.6885C624.69 11.5107 624.585 11.3558 624.448 11.2236C624.307 11.0915 624.138 10.9867 623.942 10.9092C623.751 10.8317 623.544 10.793 623.32 10.793C622.979 10.793 622.694 10.8636 622.466 11.0049C622.243 11.1416 622.065 11.3216 621.933 11.5449C621.791 11.7682 621.691 12.0234 621.632 12.3105C621.577 12.5977 621.55 12.8893 621.55 13.1855V13.4248C621.55 13.7256 621.577 14.0218 621.632 14.3135C621.691 14.6006 621.789 14.8535 621.926 15.0723C622.058 15.3001 622.238 15.4824 622.466 15.6191C622.694 15.7559 622.979 15.8242 623.32 15.8242ZM628.208 13.2334C628.208 12.6956 628.285 12.1989 628.44 11.7432C628.595 11.2829 628.821 10.8841 629.117 10.5469C629.409 10.2096 629.767 9.94531 630.19 9.75391C630.614 9.5625 631.097 9.4668 631.64 9.4668C632.182 9.4668 632.665 9.5625 633.089 9.75391C633.517 9.94531 633.88 10.2096 634.176 10.5469C634.467 10.8841 634.691 11.2829 634.846 11.7432C635.001 12.1989 635.078 12.6956 635.078 13.2334V13.377C635.078 13.9193 635.001 14.4183 634.846 14.874C634.691 15.3298 634.467 15.7262 634.176 16.0635C633.884 16.4007 633.524 16.665 633.096 16.8564C632.672 17.0479 632.191 17.1436 631.653 17.1436C631.111 17.1436 630.626 17.0479 630.197 16.8564C629.769 16.665 629.409 16.4007 629.117 16.0635C628.821 15.7262 628.595 15.3298 628.44 14.874C628.285 14.4183 628.208 13.9193 628.208 13.377V13.2334ZM629.842 13.377C629.842 13.7096 629.876 14.0241 629.944 14.3203C630.017 14.6165 630.129 14.8763 630.279 15.0996C630.425 15.3229 630.612 15.5007 630.84 15.6328C631.068 15.7604 631.339 15.8242 631.653 15.8242C631.959 15.8242 632.225 15.7604 632.453 15.6328C632.681 15.5007 632.868 15.3229 633.014 15.0996C633.16 14.8763 633.267 14.6165 633.335 14.3203C633.408 14.0241 633.444 13.7096 633.444 13.377V13.2334C633.444 12.9098 633.408 12.5999 633.335 12.3037C633.262 12.0075 633.155 11.7477 633.014 11.5244C632.863 11.3011 632.674 11.1234 632.446 10.9912C632.223 10.859 631.954 10.793 631.64 10.793C631.33 10.793 631.061 10.859 630.833 10.9912C630.61 11.1234 630.425 11.3011 630.279 11.5244C630.129 11.7477 630.017 12.0075 629.944 12.3037C629.876 12.5999 629.842 12.9098 629.842 13.2334V13.377ZM637.231 6.5H641.217V15.6465H643.459V17H637.231V15.6465H639.569V7.86035H637.231V6.5ZM650.172 17L650.076 15.9678C649.826 16.3369 649.52 16.6263 649.16 16.8359C648.8 17.041 648.397 17.1436 647.95 17.1436C647.567 17.1436 647.216 17.0843 646.897 16.9658C646.583 16.8428 646.312 16.6536 646.084 16.3984C645.861 16.1432 645.688 15.8174 645.564 15.4209C645.441 15.0199 645.38 14.5413 645.38 13.9854V9.60352H647.014V13.999C647.014 14.3408 647.039 14.6279 647.089 14.8604C647.139 15.0882 647.219 15.2705 647.328 15.4072C647.438 15.5485 647.576 15.6488 647.745 15.708C647.914 15.7673 648.112 15.7969 648.34 15.7969C648.577 15.7969 648.789 15.7718 648.976 15.7217C649.162 15.667 649.326 15.5941 649.468 15.5029C649.586 15.4209 649.691 15.3252 649.782 15.2158C649.873 15.1019 649.951 14.9766 650.015 14.8398V9.60352H651.655V17H650.172ZM654.663 9.60352L654.711 10.417C654.852 10.1208 655.046 9.88835 655.292 9.71973C655.543 9.55111 655.843 9.4668 656.194 9.4668C656.377 9.4668 656.541 9.4873 656.687 9.52832C656.832 9.56934 656.958 9.63314 657.062 9.71973C657.145 9.78353 657.217 9.861 657.281 9.95215C657.345 10.0387 657.4 10.139 657.445 10.2529C657.509 10.1481 657.582 10.0501 657.664 9.95898C657.746 9.86784 657.835 9.79036 657.931 9.72656C658.054 9.64453 658.19 9.58073 658.341 9.53516C658.496 9.48958 658.664 9.4668 658.847 9.4668C659.084 9.4668 659.3 9.50781 659.496 9.58984C659.697 9.66732 659.87 9.78809 660.016 9.95215C660.161 10.1253 660.273 10.3509 660.351 10.6289C660.433 10.9023 660.474 11.2327 660.474 11.6201V17H658.97V11.6064C658.97 11.4606 658.954 11.3376 658.922 11.2373C658.89 11.1325 658.844 11.0482 658.785 10.9844C658.726 10.9251 658.653 10.8818 658.566 10.8545C658.484 10.8271 658.393 10.8135 658.293 10.8135C658.188 10.8135 658.097 10.8271 658.02 10.8545C657.942 10.8818 657.874 10.9206 657.814 10.9707C657.76 11.0163 657.714 11.071 657.678 11.1348C657.641 11.194 657.614 11.2624 657.596 11.3398C657.596 11.3581 657.596 11.3809 657.596 11.4082C657.596 11.431 657.596 11.4652 657.596 11.5107V17H656.119V11.5996C656.119 11.4538 656.103 11.3307 656.071 11.2305C656.044 11.1257 656.001 11.0436 655.941 10.9844C655.882 10.9251 655.812 10.8818 655.729 10.8545C655.652 10.8271 655.563 10.8135 655.463 10.8135C655.354 10.8135 655.256 10.8294 655.169 10.8613C655.087 10.8887 655.016 10.932 654.957 10.9912C654.911 11.0322 654.87 11.0801 654.834 11.1348C654.802 11.1895 654.772 11.251 654.745 11.3193V17H653.241V9.60352H654.663ZM662.142 17V9.60352H663.618L663.721 10.6562C663.821 10.515 663.93 10.3851 664.049 10.2666C664.172 10.1436 664.302 10.0342 664.438 9.93848C664.657 9.78809 664.896 9.67188 665.156 9.58984C665.416 9.50781 665.689 9.4668 665.977 9.4668C666.355 9.4668 666.701 9.52148 667.016 9.63086C667.33 9.74023 667.599 9.91341 667.822 10.1504C668.046 10.3874 668.219 10.6904 668.342 11.0596C668.465 11.4242 668.526 11.8662 668.526 12.3857V17H666.893V12.4131C666.893 12.1077 666.858 11.8525 666.79 11.6475C666.722 11.4424 666.621 11.2783 666.489 11.1553C666.357 11.0322 666.198 10.9456 666.011 10.8955C665.824 10.8408 665.61 10.8135 665.368 10.8135C665.168 10.8135 664.981 10.8408 664.808 10.8955C664.634 10.9456 664.477 11.0186 664.336 11.1143C664.227 11.1872 664.124 11.276 664.028 11.3809C663.933 11.4857 663.848 11.5996 663.775 11.7227V17H662.142Z" fill="#380037"/>
</g>
<defs>
<clipPath id="clip0_7884_3635">
<rect width="676" height="316" fill="white"/>
</clipPath>
<clipPath id="clip1_7884_3635">
<rect y="12" width="676" height="272" rx="4" fill="white"/>
</clipPath>
</defs>
</svg>
