<svg width="51" height="127" viewBox="0 0 51 127" fill="none" xmlns="http://www.w3.org/2000/svg">
<path d="M13.6309 76.2127V126.879M37.6255 126.879L37.6309 58.8794" stroke="#231F20" stroke-width="2.66667" stroke-miterlimit="10"/>
<path d="M13.6309 94.7783H37.6309" stroke="#231F20" stroke-width="2.66667" stroke-miterlimit="10"/>
<path d="M25.6172 41.7609V76.2129" stroke="#231F20" stroke-width="2.66667" stroke-miterlimit="10"/>
<path d="M49.6309 96.2128V65.5461C49.6309 52.2914 38.8855 41.5461 25.6309 41.5461C12.3762 41.5461 1.63086 52.2914 1.63086 65.5461V76.2128H32.2975" stroke="#231F20" stroke-width="2.66667" stroke-miterlimit="10"/>
<path d="M10.8164 33.5461C11.6111 35.7781 13.7204 37.3861 16.2244 37.3861C18.7284 37.3861 20.8377 35.7781 21.6311 33.5461H10.8164Z" fill="#231F20"/>
<path d="M40.7534 29.8779C27.1507 31.8805 24.5641 21.7832 24.5641 21.7832V15.7125C24.5641 15.7125 12.9281 19.5059 2.30273 15.7125C4.1934 7.83921 12.3401 1.54587 22.1041 1.54587L25.6321 1.66454C34.5321 1.66454 41.6321 8.76054 41.6321 17.6605V25.9045" stroke="#231F20" stroke-width="2.66667" stroke-miterlimit="10"/>
<path d="M41.6318 17.546V25.546C41.6318 34.382 34.4678 41.546 25.6318 41.546C16.7958 41.546 9.63183 34.382 9.68783 25.7687V17.7687" stroke="#231F20" stroke-width="2.66667" stroke-miterlimit="10"/>
<path d="M1.63086 65.546H25.6309" stroke="#231F20" stroke-width="2.66667" stroke-miterlimit="10"/>
</svg>
