<svg width="80" height="128" viewBox="0 0 80 128" fill="none" xmlns="http://www.w3.org/2000/svg">
<path d="M78.541 20.6862C76.0957 23.1316 76.0957 27.0956 78.541 29.5409" stroke="#231F20" stroke-width="2.66667" stroke-miterlimit="10"/>
<path d="M73.558 16.4004C68.6447 21.3137 68.6447 29.2804 73.558 34.1937" stroke="#231F20" stroke-width="2.66667" stroke-miterlimit="10"/>
<path d="M68.7415 11.5497C61.0548 19.2364 61.0548 31.6977 68.7415 39.3844" stroke="#231F20" stroke-width="2.66667" stroke-miterlimit="10"/>
<path d="M1.20703 29.9158C3.65236 27.4704 3.65236 23.5064 1.20703 21.0611" stroke="#231F20" stroke-width="2.66667" stroke-miterlimit="10"/>
<path d="M6.19336 34.2016C11.1067 29.2883 11.1067 21.3216 6.19336 16.4083" stroke="#231F20" stroke-width="2.66667" stroke-miterlimit="10"/>
<path d="M11.0087 39.0524C18.6953 31.3658 18.6953 18.9044 11.0087 11.2178" stroke="#231F20" stroke-width="2.66667" stroke-miterlimit="10"/>
<path d="M25.0605 33.8849C25.8552 36.1169 27.9645 37.7249 30.4685 37.7249C32.9725 37.7249 35.0819 36.1169 35.8752 33.8849H25.0605Z" fill="#231F20"/>
<path d="M27.875 77.8848V127.218M51.8697 127.218L51.875 95.2181" stroke="#231F20" stroke-width="2.66667" stroke-miterlimit="10"/>
<path d="M27.8745 95.2H53.2078" stroke="#231F20" stroke-width="2.66667" stroke-miterlimit="10"/>
<path d="M39.8828 43.2181V51.2181" stroke="#231F20" stroke-width="2.66667" stroke-miterlimit="10"/>
<path d="M23.9297 25.8848C23.9297 34.7208 31.0937 41.8848 39.9297 41.8848C48.7657 41.8848 55.9297 34.7208 55.8737 26.1074L55.875 5.88476L53.103 2.06076L49.8297 5.3501L46.5563 2.06076L43.283 5.3501L40.0097 2.06076L36.7363 5.3501L33.463 2.05943L30.191 5.34876L26.9177 2.05943L23.875 5.88476L23.9297 25.8848Z" stroke="#231F20" stroke-width="2.66667" stroke-miterlimit="10"/>
<path d="M54.5424 27.2181C47.1784 27.2181 41.209 21.2487 41.209 13.8847H25.209" stroke="#231F20" stroke-width="2.66667" stroke-miterlimit="10"/>
<path d="M34.4684 59.5593L34.7404 66.398L41.7737 84.5513L63.9724 75.918V66.382C63.9724 52.8287 53.4764 41.842 39.9231 41.842C26.3711 41.842 15.8751 52.8287 15.8751 66.382L17.3897 66.398L40.5511 57.2593L44.8791 62.566L51.7777 80.782" stroke="#231F20" stroke-width="2.66667" stroke-miterlimit="10"/>
<path d="M34.7402 66.3981L44.8789 62.5661" stroke="#231F20" stroke-width="2.66667" stroke-miterlimit="10"/>
</svg>
