<svg width="94" height="131" viewBox="0 0 94 131" fill="none" xmlns="http://www.w3.org/2000/svg">
<path d="M77.247 30.8102H46.1523" stroke="#231F20" stroke-width="2.66667" stroke-miterlimit="10"/>
<path d="M78.588 30.6278H80.532C84.392 30.6278 87.9147 27.8012 87.9147 23.9398C87.9147 23.8718 87.9107 23.6025 87.908 23.5345C87.8267 20.6931 86.0573 18.3225 83.5853 17.3185C84.924 14.8572 84.6973 11.7252 82.78 9.45848L82.548 9.19048C80.656 7.05048 77.7547 6.36115 75.2093 7.18115C74.708 4.61982 72.7853 2.44382 70.0893 1.74915C70.056 1.73982 69.832 1.68515 69.7987 1.67715C67.1747 1.03448 64.5227 1.98248 62.864 3.89715C61.1827 1.98248 58.4987 1.04248 55.8627 1.68515C53.128 2.32782 51.1507 4.49582 50.616 7.07715C48.02 6.23448 45.0587 6.96782 43.164 9.16248C43.1507 9.17848 43.0067 9.34648 42.9933 9.36382C41.0973 11.6052 40.8547 14.6892 42.1427 17.1372C39.6533 18.1478 37.8667 20.5545 37.7827 23.4105L37.7773 23.8172C37.7773 27.6678 40.892 30.7452 44.744 30.7585H44.768H46.5813" stroke="#231F20" stroke-width="2.66667" stroke-miterlimit="10"/>
<path d="M78.5801 24.1436C78.5801 15.2809 46.5801 15.2809 46.5801 24.1436" stroke="#231F20" stroke-width="2.66667" stroke-miterlimit="10"/>
<path d="M45.79 119.76V120.212C45.79 125.329 41.642 129.477 36.5247 129.477H34.582" stroke="#231F20" stroke-width="2.66667" stroke-miterlimit="10"/>
<path d="M34.5805 130.41C34.5805 119.586 25.8058 110.811 14.9805 110.81" stroke="#231F20" stroke-width="2.66667" stroke-miterlimit="10"/>
<path d="M15.4047 110.561H5.68736L2.58203 105.477L15.9154 98.8102" stroke="#231F20" stroke-width="2.66667" stroke-miterlimit="10"/>
<path d="M50.5801 62.8103V130.81M74.5747 130.81L74.5801 62.8103" stroke="#231F20" stroke-width="2.66667" stroke-miterlimit="10"/>
<path d="M50.4082 98.7288H74.4082" stroke="#231F20" stroke-width="2.66667" stroke-miterlimit="10"/>
<path d="M50.3926 90.8585H74.3926" stroke="#231F20" stroke-width="2.66667" stroke-miterlimit="10"/>
<path d="M38.5801 100.143V69.4768C38.5801 56.2222 49.3254 45.4768 62.5801 45.4768C75.8347 45.4768 86.5801 56.2222 86.5801 69.4768V79.5368" stroke="#231F20" stroke-width="2.66667" stroke-miterlimit="10"/>
<path d="M46.5801 24.1436L46.6361 29.6996C46.5801 38.3129 53.7441 45.4769 62.5801 45.4769C71.4161 45.4769 78.5801 38.3129 78.5801 29.4769V24.1436" stroke="#231F20" stroke-width="2.66667" stroke-miterlimit="10"/>
<path d="M71.9147 46.8102C71.9147 51.9649 67.736 56.1436 62.5814 56.1436C57.4267 56.1436 53.248 51.9649 53.248 46.8102" stroke="#231F20" stroke-width="2.66667" stroke-miterlimit="10"/>
<path d="M21.2474 130.81C21.2474 127.129 24.2328 124.144 27.9141 124.144C31.5954 124.144 34.5808 127.129 34.5808 130.81" stroke="#231F20" stroke-width="2.66667" stroke-miterlimit="10"/>
<path d="M15.9141 130.81V94.8103" stroke="#231F20" stroke-width="2.66667" stroke-miterlimit="10"/>
<path d="M59.9141 30.8102V32.1436C59.9141 34.3529 58.1234 36.1436 55.9141 36.1436C53.7047 36.1436 51.9141 34.3529 51.9141 32.1436V30.8102" fill="#231F20"/>
<path d="M59.9141 30.8102V32.1436C59.9141 34.3529 58.1234 36.1436 55.9141 36.1436C53.7047 36.1436 51.9141 34.3529 51.9141 32.1436V30.8102" stroke="#231F20" stroke-width="2.66667" stroke-miterlimit="10"/>
<path d="M73.248 30.8102V32.1436C73.248 34.3529 71.4574 36.1436 69.248 36.1436C67.0387 36.1436 65.248 34.3529 65.248 32.1436V30.8102" fill="#231F20"/>
<path d="M73.248 30.8102V32.1436C73.248 34.3529 71.4574 36.1436 69.248 36.1436C67.0387 36.1436 65.248 34.3529 65.248 32.1436V30.8102" stroke="#231F20" stroke-width="2.66667" stroke-miterlimit="10"/>
<path d="M86.5801 130.81V84.1436H93.2467" stroke="#231F20" stroke-width="2.66667" stroke-miterlimit="10"/>
</svg>
