<svg width="56" height="128" viewBox="0 0 56 128" fill="none" xmlns="http://www.w3.org/2000/svg">
<path d="M11.0371 33.7168C11.8318 35.9488 13.9411 37.5568 16.4451 37.5568C18.9491 37.5568 21.0584 35.9488 21.8518 33.7168H11.0371Z" fill="#231F20"/>
<path d="M41.8516 20.3834V16.3834C41.8516 14.1741 43.6422 12.3834 45.8516 12.3834C48.0609 12.3834 49.8516 14.1741 49.8516 16.3834V17.7168V32.3834" stroke="#231F20" stroke-width="2.66667" stroke-miterlimit="10"/>
<path d="M16.5195 104.383V127.05M35.1809 127.05L35.1862 104.383" stroke="#231F20" stroke-width="2.66667" stroke-miterlimit="10"/>
<path d="M37.8509 59.0501V80.3834L43.1842 104.383H25.8509H8.51758L13.8509 80.3834V59.0501" stroke="#231F20" stroke-width="2.66667" stroke-miterlimit="10"/>
<path d="M1.85242 96.3834V65.7168C1.85242 52.4621 12.5978 41.7168 25.8524 41.7168C39.1071 41.7168 49.8524 52.4621 49.8524 65.7168V96.3834" stroke="#231F20" stroke-width="2.66667" stroke-miterlimit="10"/>
<path d="M41.8525 25.7167C41.8525 34.5527 34.6885 41.7167 25.8525 41.7167C17.0165 41.7167 9.85253 34.5527 9.90853 25.9394V17.9394C9.85253 8.88073 17.0152 1.71673 25.8525 1.71673C34.6899 1.71673 41.8525 8.88074 41.8525 17.7167V25.7167Z" stroke="#231F20" stroke-width="2.66667" stroke-miterlimit="10"/>
<path d="M35.1862 43.0502C35.1862 48.2048 31.0075 52.3835 25.8529 52.3835C20.6982 52.3835 16.5195 48.2048 16.5195 43.0502" stroke="#231F20" stroke-width="2.66667" stroke-miterlimit="10"/>
<path d="M25.8516 52.3834V63.05" stroke="#231F20" stroke-width="2.66667" stroke-miterlimit="10"/>
<path d="M40.5189 32.3834C33.1549 32.3834 27.1855 26.4141 27.1855 19.0501H11.1855" stroke="#231F20" stroke-width="2.66667" stroke-miterlimit="10"/>
<path d="M49.8522 31.7167C49.8522 34.294 51.9415 36.3833 54.5189 36.3833C54.5189 36.3833 55.1855 41.7167 48.5189 41.7167H31.1855" stroke="#231F20" stroke-width="2.66667" stroke-miterlimit="10"/>
</svg>
