<svg width="54" height="96" viewBox="0 0 54 96" fill="none" xmlns="http://www.w3.org/2000/svg">
<path d="M13.5008 31.058H8.83948C5.13548 31.058 2.13281 28.0553 2.13281 24.3513C2.13281 20.646 5.13548 17.6433 8.83948 17.6433H51.9582" stroke="#231F20" stroke-width="2.66667" stroke-miterlimit="10"/>
<path d="M43.9579 25.7331C43.9579 34.5691 36.7939 41.7331 27.9579 41.7331C19.1219 41.7331 11.9579 34.5691 12.0139 25.9558V17.9558C11.9579 8.89709 19.1206 1.73309 27.9579 1.73309C36.7953 1.73309 43.9579 8.89709 43.9579 17.7331V25.7331Z" stroke="#231F20" stroke-width="2.66667" stroke-miterlimit="10"/>
<path d="M31.957 33.7331C32.7517 35.9651 34.861 37.5731 37.365 37.5731C39.869 37.5731 41.9784 35.9651 42.7717 33.7331H31.957Z" fill="#231F20"/>
<path d="M35.478 43.0664C35.478 47.2784 32.0633 50.6931 27.8513 50.6931C23.6393 50.6931 20.2247 47.2784 20.2247 43.0664" stroke="#231F20" stroke-width="2.66667" stroke-miterlimit="10"/>
<path d="M11.957 77.733C11.957 86.569 19.121 93.733 27.957 93.733C36.793 93.733 43.957 86.569 43.957 77.733C43.957 68.897 36.793 61.733 27.957 61.733C19.121 61.733 11.957 68.897 11.957 77.733Z" stroke="#231F20" stroke-width="2.66667" stroke-miterlimit="10"/>
<path d="M43.957 77.7331L50.6236 85.7331H51.957V65.7331C51.957 52.4784 41.2116 41.7331 27.957 41.7331C14.7023 41.7331 3.95697 52.4784 3.95697 65.7331V85.7331H5.2903L11.957 77.7331" stroke="#231F20" stroke-width="2.66667" stroke-miterlimit="10"/>
<path d="M26.6243 61.7331L41.291 45.7331" stroke="#231F20" stroke-width="2.66667" stroke-miterlimit="10"/>
</svg>
