<svg width="51" height="128" viewBox="0 0 51 128" fill="none" xmlns="http://www.w3.org/2000/svg">
<path d="M13.4258 59.0502V127.05M37.4204 127.05L37.4258 59.0502" stroke="#231F20" stroke-width="2.66667" stroke-miterlimit="10"/>
<path d="M13.4258 95.0321H37.4258" stroke="#231F20" stroke-width="2.66667" stroke-miterlimit="10"/>
<path d="M13.1465 86.9639H37.1465" stroke="#231F20" stroke-width="2.66667" stroke-miterlimit="10"/>
<path d="M25.4316 43.0502V87.0502" stroke="#231F20" stroke-width="2.66667" stroke-miterlimit="10"/>
<path d="M1.42517 96.3836V65.7169C1.42517 52.4623 12.1705 41.7169 25.4252 41.7169C38.6798 41.7169 49.4252 52.4623 49.4252 65.7169V96.3836" stroke="#231F20" stroke-width="2.66667" stroke-miterlimit="10"/>
<path d="M41.4267 17.7169V25.7169C41.4267 34.5529 34.2627 41.7169 25.4267 41.7169C16.5907 41.7169 9.42675 34.5529 9.48275 25.9396V17.9396C9.42675 8.88092 16.5894 1.71692 25.4267 1.71692H27.3867C38.0547 1.71692 44.6947 8.18625 46.7601 16.7863C44.0254 17.5689 41.1467 18.0129 38.1614 18.0129C27.7347 18.0129 19.1027 13.5649 13.4267 5.71692" stroke="#231F20" stroke-width="2.66667" stroke-miterlimit="10"/>
<path d="M29.2773 33.7169C30.072 35.9489 32.1813 37.5569 34.6853 37.5569C37.1893 37.5569 39.2987 35.9489 40.092 33.7169H29.2773Z" fill="#231F20"/>
<path d="M21.4258 28.3835C19.2164 28.3835 17.4258 26.5929 17.4258 24.3835C17.4258 22.1742 19.2164 20.3835 21.4258 20.3835" stroke="#231F20" stroke-width="2.66667" stroke-miterlimit="10"/>
</svg>
