<svg width="67" height="129" viewBox="0 0 67 129" fill="none" xmlns="http://www.w3.org/2000/svg">
<path d="M30.2215 35.3384C30.1868 35.3384 30.1615 35.377 30.1761 35.409C31.2215 37.7237 33.5441 39.3384 36.2481 39.3384C38.9535 39.3384 41.2761 37.7237 42.3215 35.409C42.3361 35.377 42.3108 35.3384 42.2761 35.3384H30.2215Z" fill="#231F20"/>
<path d="M20.8379 24.6718V26.7625C20.8379 35.5985 27.7486 43.1985 36.5832 43.3358C45.5366 43.4758 52.8379 36.2598 52.8379 27.3385V26.0052" stroke="#231F20" stroke-width="2.66667" stroke-miterlimit="10"/>
<path d="M36.875 54.0051V73.6891" stroke="#231F20" stroke-width="2.66667" stroke-miterlimit="10"/>
<path d="M46.1725 44.6717C46.1725 49.8264 41.9939 54.0051 36.8392 54.0051C31.6845 54.0051 27.5059 49.8264 27.5059 44.6717" stroke="#231F20" stroke-width="2.66667" stroke-miterlimit="10"/>
<path d="M24.8392 79.3384L19.5059 110.005H53.5285L48.8392 78.0051V60.6717" stroke="#231F20" stroke-width="2.66667" stroke-miterlimit="10"/>
<path d="M15.505 35.3384V21.4198C15.505 10.4171 25.8357 1.49844 36.8383 1.49844C47.841 1.49844 58.1717 10.4171 58.1717 21.4198V35.3384" stroke="#231F20" stroke-width="2.66667" stroke-miterlimit="10"/>
<path d="M14.1641 6.00511C14.9467 8.21178 17.0374 9.81311 19.5041 9.81311" stroke="#231F20" stroke-width="2.66667" stroke-miterlimit="10"/>
<path d="M59.5119 6.00511C58.7292 8.21178 56.6385 9.81311 54.1719 9.81311" stroke="#231F20" stroke-width="2.66667" stroke-miterlimit="10"/>
<path d="M27.5059 111.338V128.672M46.1726 128.672V110.005" stroke="#231F20" stroke-width="2.66667" stroke-miterlimit="10"/>
<path d="M12.8379 68.6718V67.9585C12.8379 54.9198 22.9752 43.7932 36.0072 43.3532C49.6406 42.8918 60.8379 53.8078 60.8379 67.3385V79.3385" stroke="#231F20" stroke-width="2.66667" stroke-miterlimit="10"/>
<path d="M16.8379 25.3384H58.1712" stroke="#231F20" stroke-width="2.66667" stroke-miterlimit="10"/>
<path d="M36.8379 1.49805V24.6714" stroke="#231F20" stroke-width="2.66667" stroke-miterlimit="10"/>
<path d="M15.5059 38.0051V46.0051" stroke="#231F20" stroke-width="2.66667" stroke-miterlimit="10"/>
<path d="M58.1719 38.0051V46.0051" stroke="#231F20" stroke-width="2.66667" stroke-miterlimit="10"/>
<path d="M32.8379 77.6886C32.8379 79.8979 34.6286 81.6886 36.8379 81.6886C39.0472 81.6886 40.8379 79.8979 40.8379 77.6886C40.8379 75.4793 39.0472 73.6886 36.8379 73.6886C34.6286 73.6886 32.8379 75.4793 32.8379 77.6886Z" stroke="#231F20" stroke-width="2.66667" stroke-miterlimit="10"/>
<path d="M40.8379 78.0051H48.8379" stroke="#231F20" stroke-width="2.66667" stroke-miterlimit="10"/>
<path d="M23.5051 78.0051H32.8385" stroke="#231F20" stroke-width="2.66667" stroke-miterlimit="10"/>
<path d="M24.8385 78.6717C24.8385 84.9304 19.7639 90.0051 13.5052 90.0051C7.24654 90.0051 2.17188 84.9304 2.17188 78.6717C2.17188 72.4131 7.24654 67.3384 13.5052 67.3384C19.7639 67.3384 24.8385 72.4131 24.8385 78.6717Z" stroke="#231F20" stroke-width="2.66667" stroke-miterlimit="10"/>
<path d="M60.8378 83.3384V123.338" stroke="#231F20" stroke-width="2.66667" stroke-miterlimit="10"/>
<path d="M55.5056 88.6718H66.1723" stroke="#231F20" stroke-width="2.66667" stroke-miterlimit="10"/>
</svg>
