<svg width="57" height="130" viewBox="0 0 57 130" fill="none" xmlns="http://www.w3.org/2000/svg">
<path d="M16.3691 61.6716V129.672M40.3638 129.672L40.3691 61.6716" stroke="#231F20" stroke-width="2.66667" stroke-miterlimit="10"/>
<path d="M16.3691 115.709H40.3691" stroke="#231F20" stroke-width="2.66667" stroke-miterlimit="10"/>
<path d="M16.3691 89.3074H40.3691" stroke="#231F20" stroke-width="2.66667" stroke-miterlimit="10"/>
<path d="M28.4062 53.9882V61.6722" stroke="#231F20" stroke-width="2.66667" stroke-miterlimit="10"/>
<path d="M22.3425 36.3843C22.3079 36.3843 22.2825 36.4229 22.2972 36.4549C23.3425 38.7696 25.6652 40.3843 28.3692 40.3843C31.0745 40.3843 33.3972 38.7696 34.4425 36.4549C34.4572 36.4229 34.4319 36.3843 34.3972 36.3843H22.3425Z" fill="#231F20"/>
<path d="M4.36914 99.0049V68.9582C4.36914 55.9196 14.5065 44.7929 27.5385 44.3529C41.1718 43.8916 52.3691 54.8076 52.3691 68.3382V99.0049" stroke="#231F20" stroke-width="2.66667" stroke-miterlimit="10"/>
<path d="M12.3691 24.3382V27.7622C12.3691 36.5982 19.2798 44.1982 28.1145 44.3369C37.0678 44.4756 44.3691 37.2596 44.3691 28.3382V24.9142C44.3691 16.0796 37.4585 13.8089 28.6238 13.6716C19.6705 13.5316 12.3691 15.4169 12.3691 24.3382Z" stroke="#231F20" stroke-width="2.66667" stroke-miterlimit="10"/>
<path d="M37.7038 45.6716C37.7038 50.8262 33.5251 55.0049 28.3704 55.0049C23.2158 55.0049 19.0371 50.8262 19.0371 45.6716" stroke="#231F20" stroke-width="2.66667" stroke-miterlimit="10"/>
<path d="M16.3707 38.4473H14.1761C-0.126597 38.4473 1.9174 20.0593 1.9174 20.0593V16.9953C1.9174 8.53266 8.7774 1.67132 17.2401 1.67132L28.3761 3.71533L39.6134 1.67132C48.0761 1.67132 54.9361 8.53266 54.9361 16.9953V20.0593C54.9361 20.0593 56.9801 38.4473 42.6774 38.4473H40.3707" stroke="#231F20" stroke-width="2.66667" stroke-miterlimit="10"/>
</svg>
