<svg width="57" height="127" viewBox="0 0 57 127" fill="none" xmlns="http://www.w3.org/2000/svg">
<path d="M38.2358 38.8795H43.1651C50.0118 38.8795 55.4651 34.0209 55.4651 27.7222C53.1811 27.7222 51.5691 26.2595 51.5691 24.1609V22.4355C51.5691 10.8982 41.5505 1.54619 29.0065 1.54619H28.6891C16.1451 1.54619 6.2358 10.8982 6.2358 22.4355V24.1609C6.2358 26.2595 4.51447 27.7222 2.23047 27.7222C2.23047 34.0209 7.6838 38.8795 14.5318 38.8795H19.5691" stroke="#231F20" stroke-width="2.66667" stroke-miterlimit="10"/>
<path d="M12.9023 24.2128V22.0848C20.9023 22.0848 28.9023 16.2128 28.9023 9.5461C28.9023 16.2128 36.9023 22.0848 44.9023 22.0848V24.2128" stroke="#231F20" stroke-width="2.66667" stroke-miterlimit="10"/>
<path d="M50.2265 74.4734C46.6585 78.0414 40.8758 78.0414 37.3078 74.4734C33.7411 70.9054 33.7411 65.1227 37.3078 61.5547C40.8758 57.9881 46.6598 57.9881 50.2265 61.5547C53.7945 65.1227 53.7945 70.9054 50.2265 74.4734Z" stroke="#231F20" stroke-width="2.66667" stroke-miterlimit="10"/>
<path d="M37.309 61.5549L25.1076 73.7562C21.5396 77.3229 21.5396 83.1069 25.1076 86.6749C28.6743 90.2415 34.4583 90.2415 38.0263 86.6749L50.945 73.7562" stroke="#231F20" stroke-width="2.66667" stroke-miterlimit="10"/>
<path d="M32.2826 66.5786L32.2812 89.5453" stroke="#231F20" stroke-width="2.66667" stroke-miterlimit="10"/>
<path d="M42.2226 67.0403C42.2226 68.1523 41.3213 69.0536 40.2093 69.0536C39.0986 69.0536 38.1973 68.1523 38.1973 67.0403C38.1973 65.9283 39.0986 65.0269 40.2093 65.0269C41.3213 65.0269 42.2226 65.9283 42.2226 67.0403Z" fill="#231F20"/>
<path d="M19.5703 106.88V126.88M38.2316 126.88L38.2369 106.88" stroke="#231F20" stroke-width="2.66667" stroke-miterlimit="10"/>
<path d="M52.9023 68.2129V65.5462C52.9023 52.2915 42.157 41.5462 28.9023 41.5462C15.6477 41.5462 4.90234 52.2915 4.90234 65.5462V86.8795H24.9023" stroke="#231F20" stroke-width="2.66667" stroke-miterlimit="10"/>
<path d="M44.9033 22.8795V25.5461C44.9033 34.3821 37.7393 41.5461 28.9033 41.5461C20.0673 41.5461 12.9033 34.3821 12.9593 25.7688V22.8795" stroke="#231F20" stroke-width="2.66667" stroke-miterlimit="10"/>
<path d="M23.4941 33.5461C24.2888 35.7781 26.3981 37.3861 28.9021 37.3861C31.4061 37.3861 33.5155 35.7781 34.3088 33.5461H23.4941Z" fill="black"/>
<path d="M12.5273 86.8795V106.88H44.89V78.8795" stroke="#231F20" stroke-width="2.66667" stroke-miterlimit="10"/>
</svg>
