<svg width="51" height="128" viewBox="0 0 51 128" fill="none" xmlns="http://www.w3.org/2000/svg">
<path d="M13.6523 59.6716V127.672M37.647 127.672L37.6523 59.0423" stroke="#231F20" stroke-width="2.66667" stroke-miterlimit="10"/>
<path d="M13.4023 95.6256H37.4023" stroke="#231F20" stroke-width="2.66667" stroke-miterlimit="10"/>
<path d="M13.1504 87.8074H37.1504" stroke="#231F20" stroke-width="2.66667" stroke-miterlimit="10"/>
<path d="M25.4863 43.6716V87.6716" stroke="#231F20" stroke-width="2.66667" stroke-miterlimit="10"/>
<path d="M1.65234 97.0049V66.9583C1.65234 53.9196 11.7897 42.7929 24.8217 42.3529C38.455 41.8916 49.6523 52.8076 49.6523 66.3383V97.0049" stroke="#231F20" stroke-width="2.66667" stroke-miterlimit="10"/>
<path d="M9.70701 26.3382C9.70701 35.1742 16.871 42.3382 25.707 42.3382C34.543 42.3382 41.707 35.1742 41.651 26.5609L41.6523 6.33819L38.8803 2.51419L35.607 5.80353L32.3337 2.51419L29.0603 5.80353L25.787 2.51419L22.5137 5.80353L19.2417 2.51286L15.9683 5.80219L12.695 2.51286L9.65234 6.33819L9.70701 26.3382Z" stroke="#231F20" stroke-width="2.66667" stroke-miterlimit="10"/>
<path d="M9.65234 15.2272H41.6523" stroke="#231F20" stroke-width="2.66667" stroke-miterlimit="10"/>
</svg>
