<svg width="52" height="128" viewBox="0 0 52 128" fill="none" xmlns="http://www.w3.org/2000/svg">
<path d="M13.7461 59.8795V127.879M37.7408 127.879L37.7461 59.8795" stroke="#231F20" stroke-width="2.66667" stroke-miterlimit="10"/>
<path d="M13.0859 95.9093H37.0859" stroke="#231F20" stroke-width="2.66667" stroke-miterlimit="10"/>
<path d="M13.3008 87.9602H37.3008" stroke="#231F20" stroke-width="2.66667" stroke-miterlimit="10"/>
<path d="M25.752 43.8794V87.8794" stroke="#231F20" stroke-width="2.66667" stroke-miterlimit="10"/>
<path d="M1.74609 71.8794V66.5461C1.74609 53.2914 12.4914 42.5461 25.7461 42.5461C39.0008 42.5461 49.7461 53.2914 49.7461 66.5461V97.2128" stroke="#231F20" stroke-width="2.66667" stroke-miterlimit="10"/>
<path d="M20.3379 34.5461C21.1326 36.7781 23.2419 38.3861 25.7459 38.3861C28.2499 38.3861 30.3592 36.7781 31.1526 34.5461H20.3379Z" fill="#231F20"/>
<path d="M9.80076 26.4587C9.80076 35.2947 16.9648 42.4587 25.8008 42.4587C34.6368 42.4587 41.8008 35.2947 41.7448 26.6814L41.7461 6.45874L38.9741 2.63474L35.7008 5.92407L32.4274 2.63474L29.1541 5.92407L25.8808 2.63474L22.6074 5.92407L19.3354 2.63341L16.0621 5.92274L12.7888 2.63341L9.74609 6.45874L9.80076 26.4587Z" stroke="#231F20" stroke-width="2.66667" stroke-miterlimit="10"/>
<path d="M9.74536 15.3477H41.7454" stroke="#231F20" stroke-width="2.66667" stroke-miterlimit="10"/>
</svg>
