<svg width="24" height="24" viewBox="0 0 24 24" fill="none" xmlns="http://www.w3.org/2000/svg">
<path d="M23 17.542C23.1408 17.542 23.275 17.4827 23.3698 17.3786C23.4646 17.2744 23.511 17.1352 23.4978 16.995C23.1471 13.2802 21.1028 10.0748 18.0511 8.23773L19.6243 5.51249C19.6245 5.51224 19.6246 5.51199 19.6248 5.51174C19.8684 5.09153 19.7178 4.56438 19.3117 4.32514C18.8981 4.0815 18.3609 4.22146 18.1212 4.64143C18.1208 4.64204 18.1205 4.64265 18.1201 4.64326L16.4958 7.45643C15.1267 6.8964 13.6126 6.58863 12 6.58863C10.3874 6.58863 8.87326 6.8964 7.50424 7.45643L5.87803 4.64005L5.87734 4.63886C5.63589 4.22334 5.10494 4.08164 4.68848 4.32364C4.27321 4.56494 4.13143 5.09542 4.37284 5.51176C4.37298 5.512 4.37312 5.51225 4.37326 5.51249L5.94654 8.23787C2.89708 10.0749 0.852934 13.2803 0.502214 16.995C0.488981 17.1352 0.535449 17.2744 0.630204 17.3786C0.724958 17.4827 0.859217 17.542 1 17.542H23Z" fill="white" stroke="white" stroke-linejoin="round"/>
<path fill-rule="evenodd" clip-rule="evenodd" d="M17.3671 8.42262C20.5164 10.1278 22.6479 13.3131 23 17.042H1C1.35206 13.3131 3.48356 10.1278 6.63053 8.42262L4.80557 5.26128C4.70259 5.08406 4.76246 4.85893 4.93969 4.75595C5.11692 4.65297 5.34204 4.71284 5.44502 4.89007L7.29393 8.09211C8.70455 7.44787 10.2924 7.08863 12 7.08863C13.7076 7.08863 15.2955 7.44787 16.7061 8.09211L18.555 4.89007C18.6556 4.71284 18.8831 4.65297 19.0579 4.75595C19.2327 4.85893 19.295 5.08406 19.192 5.26128L17.3671 8.42262ZM7.875 13.0312C7.875 13.5375 7.46459 13.9479 6.95833 13.9479C6.45207 13.9479 6.04167 13.5375 6.04167 13.0312C6.04167 12.5249 6.45207 12.1145 6.95833 12.1145C7.46459 12.1145 7.875 12.5249 7.875 13.0312ZM17.9583 13.0312C17.9583 13.5375 17.5479 13.9479 17.0417 13.9479C16.5354 13.9479 16.125 13.5375 16.125 13.0312C16.125 12.5249 16.5354 12.1145 17.0417 12.1145C17.5479 12.1145 17.9583 12.5249 17.9583 13.0312Z" fill="#3DDC84"/>
</svg>
