<svg width="24" height="24" viewBox="0 0 24 24" fill="none" xmlns="http://www.w3.org/2000/svg">
<path d="M12.168 0.529049C12.0594 0.490317 11.9407 0.490317 11.8321 0.529049L1.59109 4.18105C1.37195 4.2592 1.23567 4.47817 1.26233 4.7093L2.82433 18.2503C2.84282 18.4106 2.93758 18.5522 3.07878 18.6304L11.7578 23.4374C11.9085 23.5209 12.0916 23.5209 12.2423 23.4374L20.9213 18.6304C21.0625 18.5522 21.1572 18.4106 21.1757 18.2503L22.7377 4.7093C22.7644 4.47817 22.6281 4.2592 22.409 4.18105L12.168 0.529049Z" fill="#DD0031" stroke="white" stroke-linejoin="round"/>
<path d="M12 1V3.442V3.431V14.574V23L20.679 18.193L22.241 4.652L12 1Z" fill="#C3002F"/>
<path d="M12 3.43103L5.59803 17.786H7.98503L9.27203 14.574H14.706L15.993 17.786H18.38L12 3.43103ZM13.87 12.594H10.13L12 8.09503L13.87 12.594Z" fill="white"/>
</svg>
