<svg width="24" height="24" viewBox="0 0 24 24" fill="none" xmlns="http://www.w3.org/2000/svg">
<path d="M16.2112 16.3288C16.1626 16.1667 16.0352 16.0402 15.8728 15.9926C15.7104 15.9451 15.5349 15.983 15.4065 16.0933C14.8825 16.5435 13.7057 16.9221 12.2473 16.9221C11.3645 16.9221 10.5703 16.784 9.96088 16.5645C9.32931 16.337 8.98166 16.0543 8.86191 15.8307C8.76762 15.6547 8.57765 15.5517 8.3787 15.5686C8.17975 15.5856 8.00997 15.7193 7.94683 15.9087C7.77712 16.4179 7.7377 16.9873 7.73679 17.3359L7.73629 17.3471C7.73566 17.3633 7.73499 17.3854 7.73464 17.413C7.73393 17.4681 7.73444 17.5452 7.73892 17.6399C7.74785 17.8289 7.77268 18.0913 7.83634 18.3923C7.96279 18.99 8.24912 19.7696 8.89885 20.414C9.04217 20.5561 9.25691 20.5981 9.44323 20.5205C9.62956 20.4428 9.75093 20.2608 9.75093 20.0589C9.75093 19.7514 10.0001 19.5079 10.2928 19.5079C10.4657 19.5079 10.5481 19.5453 10.5863 19.5707C10.6233 19.5953 10.6597 19.6355 10.6926 19.7166C10.7719 19.9124 10.7793 20.1968 10.7793 20.5752V20.6398C10.7793 21.8736 11.5179 22.9879 12.6648 23.4621C12.8554 23.5409 13.075 23.4945 13.2174 23.3453C13.3599 23.196 13.3961 22.9746 13.3085 22.7878C13.2004 22.5571 13.1438 22.3067 13.1438 22.0596C13.1438 21.6673 13.2538 21.4355 13.41 21.2526C13.5889 21.0433 13.8425 20.8774 14.204 20.646L14.2168 20.6379C14.7671 20.2895 15.4711 19.8437 15.9588 18.953L15.9596 18.9516C16.2307 18.4527 16.3603 17.9116 16.3614 17.3558C16.3716 16.9848 16.3037 16.6369 16.2112 16.3288Z" fill="#FF5D01" stroke="white" stroke-linejoin="round"/>
<path d="M15.6449 1.23361L15.645 1.23359L15.6415 1.22936C15.4363 0.975824 15.1658 0.764056 14.8486 0.637178L14.8486 0.637103L14.8402 0.633917C14.4853 0.499308 14.0838 0.499586 13.5429 0.49996C13.5141 0.49998 13.4848 0.5 13.4551 0.5H10.5878C10.5581 0.5 10.5288 0.49998 10.4999 0.49996C9.95911 0.499586 9.55757 0.499308 9.20269 0.633917L9.20269 0.633912L9.20053 0.634743C8.87085 0.761543 8.59827 0.9747 8.39212 1.22936L8.3921 1.22934L8.38872 1.23361C8.1558 1.52782 8.037 1.91536 7.88176 2.42179C7.8717 2.45459 7.86149 2.4879 7.85109 2.52171L7.85101 2.52197L3.82203 15.6415C3.76285 15.8342 3.8252 16.0436 3.98018 16.1726C4.13516 16.3016 4.35242 16.3248 4.53119 16.2316C5.98742 15.4722 7.56129 14.9444 9.18125 14.658C9.36838 14.6249 9.52058 14.4886 9.57403 14.3062L11.9945 6.04709L14.4416 14.3167C14.4956 14.4994 14.6488 14.6355 14.8366 14.6677C16.4519 14.9443 18.0076 15.4803 19.4677 16.2327C19.6464 16.3248 19.8627 16.301 20.017 16.1722C20.1713 16.0435 20.2336 15.835 20.1751 15.6427L16.183 2.5232L16.1826 2.52171C16.1722 2.4879 16.162 2.45459 16.1519 2.42178C15.9967 1.91536 15.8779 1.52782 15.6449 1.23361Z" fill="url(#paint0_linear_4775_23511)" stroke="white" stroke-linejoin="round"/>
<defs>
<linearGradient id="paint0_linear_4775_23511" x1="16.5065" y1="0.30106" x2="12.0064" y2="15.7863" gradientUnits="userSpaceOnUse">
<stop stop-color="#000014"/>
<stop offset="1" stop-color="#150426"/>
</linearGradient>
</defs>
</svg>
