<svg width="24" height="24" viewBox="0 0 24 24" fill="none" xmlns="http://www.w3.org/2000/svg">
<path d="M13.5721 22.8058L13.5749 22.8041L19.707 19.0582L19.7082 19.0575C20.6727 18.4659 21.25 17.394 21.25 16.2503V8.75458C21.25 7.61313 20.6744 6.53526 19.7066 5.9464C19.7063 5.94623 19.706 5.94605 19.7057 5.94587L13.5761 2.19757C13.5758 2.19743 13.5756 2.19728 13.5753 2.19713C13.5753 2.1971 13.5752 2.19708 13.5752 2.19705C12.6026 1.60092 11.3971 1.60098 10.4245 2.19724C10.4243 2.19735 10.4241 2.19746 10.4239 2.19757L4.29429 5.94587C4.29399 5.94606 4.29369 5.94624 4.29339 5.94642C3.32563 6.53529 2.75 7.61314 2.75 8.75458V16.2503C2.75 17.3918 3.32567 18.4697 4.29351 19.0585C4.29377 19.0587 4.29403 19.0589 4.29429 19.059L10.425 22.804C10.9066 23.0984 11.4517 23.25 12 23.25C12.5501 23.25 13.0899 23.0975 13.5721 22.8058Z" stroke="white" stroke-width="1.5"/>
<path d="M19.3161 6.58671L13.1839 2.8369C12.4516 2.3877 11.5484 2.3877 10.8161 2.8369L4.68393 6.58671C3.95156 7.03201 3.5 7.86009 3.5 8.75458V16.2503C3.5 17.1448 3.95156 17.9729 4.68393 18.4182L10.8161 22.1641C11.1804 22.3867 11.5902 22.5 12 22.5C12.4098 22.5 12.8158 22.3867 13.1839 22.1641L19.3161 18.4182C20.0484 17.969 20.5 17.1448 20.5 16.2503V8.75458C20.5 7.86009 20.0484 7.03201 19.3161 6.58671Z" fill="white"/>
<path fill-rule="evenodd" clip-rule="evenodd" d="M13.1839 22.1641C12.8158 22.3867 12.4098 22.5 12 22.5C11.5902 22.5 11.1804 22.3867 10.8161 22.1641L4.68393 18.4181C3.95156 17.9728 3.5 17.1448 3.5 16.2503V8.75455C3.5 7.86006 3.95156 7.03198 4.68393 6.58668L10.8161 2.83687C11.5484 2.38767 12.4516 2.38767 13.1839 2.83687L19.3161 6.58668C20.0484 7.03198 20.5 7.86006 20.5 8.75455V16.2503C20.5 17.1448 20.0484 17.9689 19.3161 18.4181L13.1839 22.1641ZM19.5758 6.15946L13.4453 2.41065C13.4452 2.41059 13.4454 2.41071 13.4453 2.41065C12.5527 1.86332 11.4476 1.86314 10.5549 2.41047C10.5548 2.41053 10.555 2.41042 10.5549 2.41047L4.42417 6.15946C4.42398 6.15957 4.42435 6.15934 4.42417 6.15946C3.53484 6.70046 3 7.69541 3 8.75455V16.2503C3 17.3096 3.53451 18.3044 4.42417 18.8454L10.5553 22.5907C10.5553 22.5907 10.5554 22.5907 10.5553 22.5907C10.9978 22.8611 11.4979 23 12 23C12.5034 23 12.9986 22.8605 13.4427 22.5919L19.5767 18.8448C20.4638 18.3007 21 17.3109 21 16.2503V8.75455C21 7.69546 20.4651 6.70048 19.5758 6.15946C19.5761 6.1596 19.5756 6.15932 19.5758 6.15946Z" fill="#283037"/>
<path d="M19.3161 6.58672L13.1839 2.8369C12.8196 2.61425 12.4098 2.50098 12 2.50098C11.5902 2.50098 11.1842 2.61425 10.8161 2.8369L4.68393 6.58672C3.95156 7.03201 3.5 7.86009 3.5 8.75458V16.2503C3.5 17.1448 3.95156 17.9729 4.68393 18.4182L10.8161 22.1641C11.1804 22.3867 11.5902 22.5 12 22.5C12.4098 22.5 12.8158 22.3867 13.1839 22.1641L19.3161 18.4182C20.0484 17.969 20.5 17.1448 20.5 16.2503V8.75458C20.5 7.86009 20.0484 7.03201 19.3161 6.58672ZM11.0324 21.7813L4.90022 18.0354C4.30067 17.6682 3.92879 16.9846 3.92879 16.2503V8.75458C3.92879 8.02024 4.30067 7.33668 4.90022 6.96951L11.0324 3.2236C11.3283 3.04392 11.6623 2.95017 12 2.95017C12.3377 2.95017 12.6754 3.04392 12.9676 3.2236L19.0998 6.96951C19.6045 7.27809 19.946 7.81322 20.0408 8.41475C19.8359 7.96946 19.3806 7.84447 18.8455 8.16867L13.0435 11.8599C12.3187 12.2935 11.7875 12.7856 11.7875 13.6801V21.0391C11.7875 21.5782 11.9962 21.9258 12.3225 22.0274C12.2163 22.0469 12.11 22.0586 12 22.0586C11.6623 22.0547 11.3246 21.961 11.0324 21.7813Z" fill="#283037"/>
<path d="M17.7109 16.9729L16.1817 17.9143C16.14 17.9377 16.1096 17.9651 16.1096 18.0158V18.426C16.1096 18.4767 16.1438 18.4963 16.1817 18.4728L17.7337 17.5041C17.7755 17.4807 17.7792 17.4338 17.7792 17.383V17.0198C17.783 16.969 17.7489 16.9495 17.7109 16.9729Z" fill="#4DA825"/>
<path d="M14.4589 13.5122C14.5083 13.4849 14.55 13.52 14.55 13.5864L14.5538 14.1294C14.7739 14.0395 14.9674 14.0161 15.142 14.0551C15.1799 14.0669 15.1951 14.1176 15.1799 14.1801L15.0623 14.6606C15.0547 14.6957 15.0319 14.7348 15.0092 14.7582C14.9978 14.7699 14.9902 14.7778 14.9788 14.7817C14.9636 14.7895 14.9484 14.7934 14.9333 14.7895C14.8536 14.7699 14.6639 14.727 14.3679 14.8832C14.0567 15.0473 13.9467 15.3246 13.9505 15.5316C13.9543 15.7777 14.0757 15.8558 14.5007 15.8597C15.0661 15.8676 15.3127 16.1254 15.3165 16.7113C15.3241 17.2894 15.0243 17.9065 14.5652 18.2893L14.5766 18.8283C14.5766 18.8947 14.5348 18.969 14.4855 18.9924L14.1743 19.176C14.125 19.2033 14.0833 19.1721 14.0833 19.1057L14.0795 18.5745C13.8139 18.6877 13.5444 18.7151 13.3737 18.6448C13.3395 18.633 13.3281 18.5823 13.3395 18.5276L13.4534 18.0393C13.4609 18.0003 13.4837 17.9612 13.5103 17.9378C13.5217 17.93 13.5293 17.9221 13.5406 17.9143C13.5596 17.9065 13.5748 17.9026 13.59 17.9104C13.7759 17.9729 14.0112 17.9456 14.2388 17.8245C14.5272 17.6722 14.7208 17.3714 14.717 17.0667C14.7132 16.7933 14.569 16.68 14.2199 16.6761C13.7759 16.6761 13.3585 16.5863 13.3509 15.9105C13.3471 15.3559 13.6279 14.7778 14.0719 14.4106L14.0681 13.8676C14.0681 13.8012 14.106 13.727 14.1592 13.6997L14.4589 13.5122Z" fill="white"/>
</svg>
