<svg width="24" height="24" viewBox="0 0 24 24" fill="none" xmlns="http://www.w3.org/2000/svg">
<circle cx="12" cy="12" r="10.5" fill="white" stroke="white"/>
<path d="M20.6582 6.99993C19.7805 5.47985 18.5181 4.21759 16.998 3.33998C15.4778 2.46238 13.7535 2.00037 11.9982 2.00037C10.2429 2.00037 8.51856 2.46238 6.99842 3.33998C5.47828 4.21759 4.21591 5.47985 3.3382 6.99993L3.9382 17.7999L20.6582 6.99993Z" fill="url(#paint0_linear_5_596)"/>
<path d="M7.67 14.4999L3.34 6.99994C2.46233 8.52011 2.00026 10.2445 2.00025 11.9999C2.00024 13.7552 2.46228 15.4796 3.33993 16.9998C4.21759 18.52 5.47993 19.7824 7.00009 20.6601C8.52024 21.5378 10.2447 21.9999 12 21.9999L21.8 11.9999L7.67 14.4999Z" fill="url(#paint1_linear_5_596)"/>
<path d="M16.3301 14.4999L12.0001 21.9999C13.7553 21.9995 15.4794 21.5372 16.9993 20.6593C18.5192 19.7815 19.7812 18.5191 20.6587 16.999C21.5361 15.4788 21.9979 13.7546 21.9978 11.9994C21.9977 10.2442 21.5357 8.51997 20.6581 6.99994H12.0001L16.3301 14.4999Z" fill="url(#paint2_linear_5_596)"/>
<path d="M12.0001 16.9999C12.6567 16.9999 13.3068 16.8706 13.9135 16.6193C14.5201 16.3681 15.0713 15.9998 15.5356 15.5355C15.9999 15.0712 16.3682 14.52 16.6195 13.9134C16.8707 13.3067 17.0001 12.6565 17.0001 11.9999C17.0001 11.3433 16.8707 10.6931 16.6195 10.0865C16.3682 9.47989 15.9999 8.9287 15.5356 8.46441C15.0713 8.00011 14.5201 7.63181 13.9135 7.38054C13.3068 7.12927 12.6567 6.99994 12.0001 6.99994C10.674 6.99994 9.4022 7.52672 8.46452 8.46441C7.52684 9.40209 7.00005 10.6739 7.00005 11.9999C7.00005 13.326 7.52684 14.5978 8.46452 15.5355C9.4022 16.4732 10.674 16.9999 12.0001 16.9999Z" fill="white"/>
<path d="M12 16C12.5253 16 13.0454 15.8965 13.5307 15.6955C14.016 15.4945 14.457 15.1999 14.8284 14.8284C15.1999 14.457 15.4945 14.016 15.6955 13.5307C15.8965 13.0454 16 12.5253 16 12C16 11.4747 15.8965 10.9546 15.6955 10.4693C15.4945 9.98396 15.1999 9.54301 14.8284 9.17157C14.457 8.80014 14.016 8.5055 13.5307 8.30448C13.0454 8.10346 12.5253 8 12 8C10.9391 8 9.92172 8.42143 9.17157 9.17157C8.42143 9.92172 8 10.9391 8 12C8 13.0609 8.42143 14.0783 9.17157 14.8284C9.92172 15.5786 10.9391 16 12 16Z" fill="#1A73E8"/>
<defs>
<linearGradient id="paint0_linear_5_596" x1="3.3402" y1="8.24993" x2="20.6582" y2="8.24993" gradientUnits="userSpaceOnUse">
<stop stop-color="#D93025"/>
<stop offset="1" stop-color="#EA4335"/>
</linearGradient>
<linearGradient id="paint1_linear_5_596" x1="13.082" y1="21.3739" x2="4.422" y2="6.37394" gradientUnits="userSpaceOnUse">
<stop stop-color="#1E8E3E"/>
<stop offset="1" stop-color="#34A853"/>
</linearGradient>
<linearGradient id="paint2_linear_5_596" x1="10.5401" y1="21.9999" x2="19.2001" y2="7.02594" gradientUnits="userSpaceOnUse">
<stop stop-color="#FCC934"/>
<stop offset="1" stop-color="#FBBC04"/>
</linearGradient>
</defs>
</svg>
