<svg width="24" height="24" viewBox="0 0 24 24" fill="none" xmlns="http://www.w3.org/2000/svg">
<path d="M20 1.5H4C2.61929 1.5 1.5 2.61929 1.5 4V20C1.5 21.3807 2.61929 22.5 4 22.5H20C21.3807 22.5 22.5 21.3807 22.5 20V4C22.5 2.61929 21.3807 1.5 20 1.5Z" fill="#002258" stroke="white"/>
<path d="M13.8931 11.0004H14.8335L14.8335 16.8307C14.8335 16.9247 14.8751 16.9717 14.9588 16.9717H16.8708C16.9336 16.9717 16.9727 16.956 16.9884 16.9247C17.0034 16.8956 17.0114 16.8634 17.0118 16.8307V11.0005H18.3285C18.4225 11.0005 18.4695 10.964 18.4695 10.8908V9.30778C18.4719 9.27474 18.4636 9.24182 18.446 9.21378C18.4302 9.19288 18.3909 9.18243 18.3285 9.18243H17.0118V8.75927C17.0031 8.52252 17.0376 8.28617 17.1138 8.06184C17.1688 7.90437 17.2805 7.77304 17.4271 7.69348C17.5805 7.61764 17.75 7.58 17.921 7.58377H18.156C18.2346 7.58351 18.3131 7.58876 18.3909 7.59949C18.4746 7.62045 18.5165 7.59432 18.5165 7.5211V5.96947C18.5173 5.93505 18.5071 5.90127 18.4873 5.87307C18.4676 5.84488 18.4393 5.82376 18.4067 5.81279C18.2909 5.76832 18.1697 5.73932 18.0464 5.72655C17.8954 5.71012 17.7436 5.70228 17.5918 5.70307C17.05 5.67661 16.5133 5.81897 16.0559 6.11052C15.6729 6.37802 15.3652 6.73966 15.1626 7.16059C15.0439 7.41201 14.9595 7.67822 14.9117 7.9521C14.8565 8.27563 14.8303 8.60345 14.8335 8.93164V9.1824H13.8931C13.8781 9.18027 13.863 9.18164 13.8487 9.1864C13.8344 9.19116 13.8214 9.19918 13.8107 9.20982C13.8001 9.22046 13.7921 9.23344 13.7873 9.24772C13.7825 9.262 13.7811 9.2772 13.7832 9.29211V10.8907C13.7832 10.9534 13.8198 10.9901 13.8931 11.0004Z" fill="#7BADFF"/>
<path d="M12.7123 16.6269V15.0126C12.7149 14.9944 12.7134 14.9758 12.708 14.9582C12.7025 14.9406 12.6933 14.9244 12.6808 14.9107C12.6597 14.895 12.6283 14.9029 12.5867 14.9342C12.3051 15.0304 12.0133 15.0936 11.717 15.1223C11.3654 15.1557 11.0123 15.1714 10.6591 15.1694C10.3343 15.168 10.0107 15.1285 9.69506 15.0518C9.37033 14.975 9.05693 14.8565 8.76266 14.6992C8.46295 14.5367 8.19697 14.3186 7.97899 14.0565C7.74243 13.7732 7.55924 13.4493 7.43833 13.1006C7.29992 12.6866 7.23367 12.2518 7.24246 11.8154C7.22671 11.2026 7.36691 10.5959 7.64991 10.0522C7.91715 9.56033 8.31955 9.15517 8.8096 8.88457C9.36361 8.58968 9.98476 8.44386 10.6121 8.46141C10.9951 8.45965 11.3777 8.48849 11.7561 8.54766C12.0758 8.59453 12.3872 8.68689 12.6808 8.82192C12.7536 8.85325 12.7904 8.82192 12.7904 8.72791V7.00388C12.7952 6.96841 12.7905 6.9323 12.7768 6.89925C12.7631 6.86619 12.7408 6.83739 12.7123 6.81577C12.4461 6.72144 12.17 6.65835 11.8893 6.62777C11.486 6.58196 11.0804 6.561 10.6746 6.56499C9.62714 6.53728 8.58881 6.76594 7.64992 7.23108C6.83007 7.64996 6.14949 8.29788 5.69084 9.09616C5.21819 9.94585 4.98019 10.906 5.00129 11.8781C4.99198 12.515 5.08185 13.1495 5.26769 13.7588C5.4308 14.2851 5.68545 14.7785 6.01993 15.2163C6.34254 15.6332 6.7349 15.9912 7.17962 16.2743C7.64109 16.5669 8.14642 16.7839 8.67644 16.9169C9.24248 17.0601 9.82435 17.1312 10.4082 17.1285C10.8194 17.13 11.2303 17.1065 11.6386 17.0579C11.9618 17.0242 12.2799 16.9532 12.5868 16.8464C12.629 16.8288 12.6642 16.7977 12.6869 16.758C12.7097 16.7183 12.7186 16.6722 12.7123 16.6269Z" fill="#7BADFF"/>
</svg>
