<svg width="24" height="24" viewBox="0 0 24 24" fill="none" xmlns="http://www.w3.org/2000/svg">
<g clip-path="url(#clip0_4782_23698)">
<path d="M12 22.5C17.799 22.5 22.5 17.799 22.5 12C22.5 6.20101 17.799 1.5 12 1.5C6.20101 1.5 1.5 6.20101 1.5 12C1.5 17.799 6.20101 22.5 12 22.5Z" fill="#05930C" stroke="white"/>
<path opacity="0.1" d="M96.8904 -473.157C68.0705 -447.475 44.799 -416.178 28.5024 -381.185C12.2057 -346.191 3.22721 -308.238 2.11723 -269.652C1.00725 -231.066 7.78917 -192.659 22.0473 -156.787C36.3054 -120.914 57.7393 -88.3312 85.0352 -61.0353C112.331 -33.7394 144.914 -12.3054 180.787 1.9527C216.659 16.2108 255.066 22.9927 293.652 21.8828C332.238 20.7728 370.191 11.7943 405.185 -4.50238C440.178 -20.799 471.475 -44.0706 497.157 -72.8904L96.8904 -473.157Z" fill="white"/>
<path d="M10.8566 9.75058C10.9607 10.035 10.7255 10.3089 10.4227 10.3089C10.1434 10.3089 9.91673 10.1015 9.78885 9.85318C9.76573 9.80829 9.74047 9.76503 9.71307 9.72338C9.60215 9.55482 9.46633 9.41176 9.3056 9.2942C9.14488 9.17665 8.96491 9.08793 8.7657 9.02804C8.56876 8.96816 8.35937 8.93821 8.13752 8.93821C7.73684 8.93821 7.37804 9.03691 7.06112 9.23432C6.74646 9.43172 6.49745 9.72117 6.31409 10.1027C6.13299 10.4842 6.04244 10.9499 6.04244 11.5C6.04244 12.0545 6.13299 12.5225 6.31409 12.904C6.49745 13.2855 6.74759 13.5738 7.06452 13.769C7.38144 13.9642 7.73797 14.0618 8.13413 14.0618C8.35371 14.0618 8.56197 14.033 8.75891 13.9753C8.95812 13.9154 9.13809 13.8278 9.29881 13.7125C9.45954 13.5971 9.59536 13.4563 9.70628 13.2899C9.7342 13.2483 9.75999 13.2053 9.78364 13.1607C9.9138 12.9155 10.141 12.7117 10.4186 12.7125C10.723 12.7135 10.9572 12.9905 10.8464 13.2741C10.797 13.4004 10.7384 13.5221 10.6706 13.6393C10.5099 13.9187 10.3028 14.1605 10.0492 14.3645C9.79796 14.5664 9.51047 14.7227 9.18676 14.8336C8.86304 14.9445 8.5099 15 8.12733 15C7.52518 15 6.98868 14.8603 6.51783 14.5808C6.04697 14.2991 5.67572 13.8965 5.40407 13.3731C5.13469 12.8497 5 12.2253 5 11.5C5 10.7725 5.13582 10.1481 5.40747 9.6269C5.67912 9.10345 6.05037 8.702 6.52122 8.42253C6.99208 8.14084 7.52745 8 8.12733 8C8.49632 8 8.84041 8.05212 9.15959 8.15637C9.48104 8.2584 9.76967 8.40922 10.0255 8.60884C10.2813 8.80624 10.4929 9.048 10.6604 9.33413C10.7373 9.46431 10.8027 9.60313 10.8566 9.75058Z" fill="white"/>
<path fill-rule="evenodd" clip-rule="evenodd" d="M15.3214 8C15.0354 8 14.7429 8.22378 14.6681 8.49984L14.2619 9.99938H13.2261C12.9401 9.99938 12.6477 10.2232 12.5729 10.4992C12.4981 10.7753 12.6693 10.9991 12.9553 10.9991H13.991L13.7202 11.9986H12.6844C12.3984 11.9986 12.106 12.2224 12.0312 12.4985C11.9564 12.7745 12.1276 12.9983 12.4136 12.9983H13.4493L13.043 14.4979C12.9682 14.7739 13.1394 14.9977 13.4254 14.9977C13.7114 14.9977 14.0039 14.7739 14.0787 14.4979L14.485 12.9983H16.0386L15.6323 14.4979C15.5575 14.7739 15.7287 14.9977 16.0147 14.9977C16.3007 14.9977 16.5932 14.7739 16.668 14.4979L17.0743 12.9983H18.11C18.396 12.9983 18.6885 12.7745 18.7633 12.4985C18.8381 12.2224 18.6669 11.9986 18.3809 11.9986H17.3452L17.616 10.9991H18.6517C18.9377 10.9991 19.2302 10.7753 19.305 10.4992C19.3798 10.2232 19.2086 9.99938 18.9226 9.99938H17.8869L18.2932 8.49984C18.3679 8.22378 18.1967 8 17.9107 8C17.6247 8 17.3322 8.22378 17.2574 8.49984L16.8511 9.99938H15.2976L15.7039 8.49984C15.7787 8.22378 15.6074 8 15.3214 8ZM16.3095 11.9986L16.5803 10.9991H15.0267L14.7559 11.9986H16.3095Z" fill="white"/>
</g>
<defs>
<clipPath id="clip0_4782_23698">
<rect width="24" height="24" fill="white"/>
</clipPath>
</defs>
</svg>
