<svg width="24" height="24" viewBox="0 0 24 24" fill="none" xmlns="http://www.w3.org/2000/svg">
<path d="M3.9271 20.9452C3.94559 21.1526 4.09072 21.3269 4.29138 21.3826L11.8533 23.4818C11.9408 23.5061 12.0332 23.5061 12.1206 23.4818L19.7034 21.3796C19.9041 21.324 20.0493 21.1497 20.0678 20.9422L21.7548 2.04446C21.7672 1.90467 21.7204 1.76608 21.6257 1.66253C21.531 1.55898 21.3971 1.5 21.2567 1.5H2.74C2.59967 1.5 2.4658 1.55897 2.37108 1.66251C2.27636 1.76605 2.22951 1.90463 2.24197 2.0444L3.9271 20.9452Z" fill="#264DE4" stroke="white" stroke-linejoin="round"/>
<path d="M18.1256 19.6944L19.5672 3.54535H11.9984V21.3931L18.1256 19.6944Z" fill="#2965F1"/>
<path d="M6.60318 10.5555L6.81093 12.8736H11.9984V10.5555H6.60318ZM6.39642 8.18171H11.9984V5.86359H6.18568L6.39642 8.18171ZM11.9984 16.5758L11.9882 16.5786L9.40652 15.8814L9.24151 14.0326H6.91445L7.23925 17.6724L11.9877 18.9906L11.9984 18.9876V16.5758Z" fill="#EBEBEB"/>
<path d="M11.9904 10.5555V12.8736H14.8449L14.5758 15.88L11.9904 16.5778V18.9895L16.7426 17.6724L16.7775 17.2807L17.3222 11.1779L17.3788 10.5555L17.7972 5.86359H11.9904V8.18171H15.2568L15.0458 10.5555H11.9904Z" fill="white"/>
</svg>
