<svg width="160" height="160" viewBox="0 0 160 160" fill="none" xmlns="http://www.w3.org/2000/svg">
<g filter="url(#filter0_dd_6826_25649)">
<circle cx="87" cy="65" r="25" fill="#FFEBF7"/>
<path d="M22 140.5V108H46L72 115C73.5 119.167 76.7 127.5 77.5 127.5H92L97 137L70.5 146L39.5 140.5H22Z" fill="#FFEBF7"/>
<mask id="path-3-outside-1_6826_25649" maskUnits="userSpaceOnUse" x="15" y="7" width="130" height="145" fill="black">
<rect fill="white" x="15" y="7" width="130" height="145"/>
<path fill-rule="evenodd" clip-rule="evenodd" d="M84 13C84 11.3431 85.3431 10 87 10C88.6569 10 90 11.3431 90 13V23C90 24.6569 88.6569 26 87 26C85.3431 26 84 24.6569 84 23V13ZM121.648 26.1096C122.82 24.938 124.719 24.938 125.891 26.1096C127.062 27.2812 127.062 29.1807 125.891 30.3522L118.82 37.4233C117.648 38.5949 115.749 38.5949 114.577 37.4233C113.406 36.2517 113.406 34.3522 114.577 33.1807L121.648 26.1096ZM142 65C142 63.3431 140.657 62 139 62H129C127.343 62 126 63.3431 126 65C126 66.6569 127.343 68 129 68H139C140.657 68 142 66.6569 142 65ZM125.89 99.6482C127.062 100.82 127.062 102.719 125.89 103.891C124.719 105.062 122.819 105.062 121.648 103.891L114.577 96.8198C113.405 95.6482 113.405 93.7487 114.577 92.5771C115.748 91.4056 117.648 91.4056 118.819 92.5771L125.89 99.6482ZM32 65C32 66.6569 33.3431 68 35 68H45C46.6569 68 48 66.6569 48 65C48 63.3431 46.6569 62 45 62H35C33.3431 62 32 63.3431 32 65ZM48.1096 30.3518C46.938 29.1802 46.938 27.2807 48.1096 26.1091C49.2812 24.9376 51.1807 24.9376 52.3522 26.1091L59.4233 33.1802C60.5949 34.3518 60.5949 36.2513 59.4233 37.4229C58.2517 38.5944 56.3522 38.5944 55.1807 37.4229L48.1096 30.3518ZM112 65C112 78.8071 100.807 90 87 90C73.1929 90 62 78.8071 62 65C62 51.1929 73.1929 40 87 40C100.807 40 112 51.1929 112 65ZM118 65C118 82.1208 104.121 96 87 96C69.8792 96 56 82.1208 56 65C56 47.8792 69.8792 34 87 34C104.121 34 118 47.8792 118 65ZM86 82C84.8954 82 84 81.1046 84 80V78H81C79.3431 78 78 76.6569 78 75C78 73.3431 79.3431 72 81 72H90V68H81C79.3276 68 78 66.6724 78 65V55C78 53.3276 79.3276 52 81 52H84V50C84 48.8954 84.8954 48 86 48H88C89.1046 48 90 48.8954 90 50V52H93C94.6569 52 96 53.3431 96 55C96 56.6569 94.6569 58 93 58H84V62H93C94.6724 62 96 63.3276 96 65V75C96 76.6724 94.6724 78 93 78H90V80C90 81.1046 89.1046 82 88 82H86ZM70.2 142.8L95 135C95 133.667 94.4833 132.533 93.45 131.6C92.4167 130.667 91.2 130.233 89.8 130.3H68.9C67.8333 130.367 66.7833 130.3 65.75 130.1C64.7167 129.9 63.7 129.633 62.7 129.3L56.1 127.3C55.3 127.033 54.7 126.5 54.3 125.7C53.9 124.9 53.8333 124.1 54.1 123.3C54.3667 122.5 54.8759 121.9 55.6278 121.5C56.3797 121.1 57.1704 121.067 58 121.4L64.4 123.5C65.1333 123.767 65.8833 123.967 66.65 124.1C67.4167 124.233 68.1667 124.3 68.9 124.3H74.5C74.5 122.9 74.0333 121.683 73.1 120.65C72.1667 119.617 71.0333 118.833 69.7 118.3L47.9 110H39.5V133.8L70.2 142.8ZM68.9 148.5L39.5 140.1C39.3667 141.9 38.6167 143.3 37.25 144.3C35.8833 145.3 34.6333 145.8 33.5 145.8H24C22.35 145.8 20.9375 145.213 19.7625 144.038C18.5875 142.863 18 141.45 18 139.8V110C18 108.35 18.5875 106.938 19.7625 105.762C20.9375 104.588 22.35 104 24 104H47.8C48.1555 104 48.5111 104.033 48.8667 104.1C49.2222 104.167 49.5667 104.267 49.9 104.4L71.7 112.6C74.5 113.667 76.7167 115.2 78.35 117.2C79.9833 119.2 80.8 121.567 80.8 124.3H89.8C93.1889 124.3 96.0694 125.533 98.4417 128C100.814 130.467 102 133.4 102 136.8C102 137.533 101.817 138.2 101.45 138.8C101.083 139.4 100.567 139.8 99.9 140L72.3 148.5C71.7553 148.633 71.1857 148.7 70.5914 148.7C69.9971 148.7 69.4333 148.633 68.9 148.5ZM24 139.8H33.4V110H24V139.8Z"/>
</mask>
<path fill-rule="evenodd" clip-rule="evenodd" d="M84 13C84 11.3431 85.3431 10 87 10C88.6569 10 90 11.3431 90 13V23C90 24.6569 88.6569 26 87 26C85.3431 26 84 24.6569 84 23V13ZM121.648 26.1096C122.82 24.938 124.719 24.938 125.891 26.1096C127.062 27.2812 127.062 29.1807 125.891 30.3522L118.82 37.4233C117.648 38.5949 115.749 38.5949 114.577 37.4233C113.406 36.2517 113.406 34.3522 114.577 33.1807L121.648 26.1096ZM142 65C142 63.3431 140.657 62 139 62H129C127.343 62 126 63.3431 126 65C126 66.6569 127.343 68 129 68H139C140.657 68 142 66.6569 142 65ZM125.89 99.6482C127.062 100.82 127.062 102.719 125.89 103.891C124.719 105.062 122.819 105.062 121.648 103.891L114.577 96.8198C113.405 95.6482 113.405 93.7487 114.577 92.5771C115.748 91.4056 117.648 91.4056 118.819 92.5771L125.89 99.6482ZM32 65C32 66.6569 33.3431 68 35 68H45C46.6569 68 48 66.6569 48 65C48 63.3431 46.6569 62 45 62H35C33.3431 62 32 63.3431 32 65ZM48.1096 30.3518C46.938 29.1802 46.938 27.2807 48.1096 26.1091C49.2812 24.9376 51.1807 24.9376 52.3522 26.1091L59.4233 33.1802C60.5949 34.3518 60.5949 36.2513 59.4233 37.4229C58.2517 38.5944 56.3522 38.5944 55.1807 37.4229L48.1096 30.3518ZM112 65C112 78.8071 100.807 90 87 90C73.1929 90 62 78.8071 62 65C62 51.1929 73.1929 40 87 40C100.807 40 112 51.1929 112 65ZM118 65C118 82.1208 104.121 96 87 96C69.8792 96 56 82.1208 56 65C56 47.8792 69.8792 34 87 34C104.121 34 118 47.8792 118 65ZM86 82C84.8954 82 84 81.1046 84 80V78H81C79.3431 78 78 76.6569 78 75C78 73.3431 79.3431 72 81 72H90V68H81C79.3276 68 78 66.6724 78 65V55C78 53.3276 79.3276 52 81 52H84V50C84 48.8954 84.8954 48 86 48H88C89.1046 48 90 48.8954 90 50V52H93C94.6569 52 96 53.3431 96 55C96 56.6569 94.6569 58 93 58H84V62H93C94.6724 62 96 63.3276 96 65V75C96 76.6724 94.6724 78 93 78H90V80C90 81.1046 89.1046 82 88 82H86ZM70.2 142.8L95 135C95 133.667 94.4833 132.533 93.45 131.6C92.4167 130.667 91.2 130.233 89.8 130.3H68.9C67.8333 130.367 66.7833 130.3 65.75 130.1C64.7167 129.9 63.7 129.633 62.7 129.3L56.1 127.3C55.3 127.033 54.7 126.5 54.3 125.7C53.9 124.9 53.8333 124.1 54.1 123.3C54.3667 122.5 54.8759 121.9 55.6278 121.5C56.3797 121.1 57.1704 121.067 58 121.4L64.4 123.5C65.1333 123.767 65.8833 123.967 66.65 124.1C67.4167 124.233 68.1667 124.3 68.9 124.3H74.5C74.5 122.9 74.0333 121.683 73.1 120.65C72.1667 119.617 71.0333 118.833 69.7 118.3L47.9 110H39.5V133.8L70.2 142.8ZM68.9 148.5L39.5 140.1C39.3667 141.9 38.6167 143.3 37.25 144.3C35.8833 145.3 34.6333 145.8 33.5 145.8H24C22.35 145.8 20.9375 145.213 19.7625 144.038C18.5875 142.863 18 141.45 18 139.8V110C18 108.35 18.5875 106.938 19.7625 105.762C20.9375 104.588 22.35 104 24 104H47.8C48.1555 104 48.5111 104.033 48.8667 104.1C49.2222 104.167 49.5667 104.267 49.9 104.4L71.7 112.6C74.5 113.667 76.7167 115.2 78.35 117.2C79.9833 119.2 80.8 121.567 80.8 124.3H89.8C93.1889 124.3 96.0694 125.533 98.4417 128C100.814 130.467 102 133.4 102 136.8C102 137.533 101.817 138.2 101.45 138.8C101.083 139.4 100.567 139.8 99.9 140L72.3 148.5C71.7553 148.633 71.1857 148.7 70.5914 148.7C69.9971 148.7 69.4333 148.633 68.9 148.5ZM24 139.8H33.4V110H24V139.8Z" fill="#8C4585"/>
<path d="M125.891 26.1096L128.012 23.9883L128.012 23.9883L125.891 26.1096ZM121.648 26.1096L119.527 23.9883L119.527 23.9883L121.648 26.1096ZM125.891 30.3522L128.012 32.4736V32.4736L125.891 30.3522ZM118.82 37.4233L120.941 39.5446L120.941 39.5446L118.82 37.4233ZM114.577 37.4233L112.456 39.5446L112.456 39.5446L114.577 37.4233ZM114.577 33.1807L112.456 31.0593V31.0594L114.577 33.1807ZM114.577 96.8198L112.455 98.9411L112.455 98.9411L114.577 96.8198ZM114.577 92.5771L112.455 90.4558L112.455 90.4558L114.577 92.5771ZM45 68L45 65H45V68ZM45 62L45 59H45V62ZM48.1096 26.1091L50.2309 28.2305V28.2305L48.1096 26.1091ZM48.1096 30.3518L45.9883 32.4731L48.1096 30.3518ZM52.3522 26.1091L50.2309 28.2305L50.2309 28.2305L52.3522 26.1091ZM59.4233 37.4229L57.302 35.3015L57.302 35.3015L59.4233 37.4229ZM55.1807 37.4229L57.302 35.3015L57.302 35.3015L55.1807 37.4229ZM84 78H87V75H84V78ZM90 72V75H93V72H90ZM90 68H93V65H90V68ZM84 52V55H87V52H84ZM90 52H87V55H90V52ZM84 58V55H81V58H84ZM84 62H81V65H84V62ZM90 78V75H87V78H90ZM95 135L95.9001 137.862L98 137.201V135H95ZM70.2 142.8L69.356 145.679L70.2307 145.935L71.1001 145.662L70.2 142.8ZM93.45 131.6L91.4391 133.826L91.4392 133.826L93.45 131.6ZM89.8 130.3V133.3H89.8714L89.9427 133.297L89.8 130.3ZM68.9 130.3V127.3H68.8063L68.7129 127.306L68.9 130.3ZM65.75 130.1L65.1799 133.045L65.1799 133.045L65.75 130.1ZM62.7 129.3L63.6487 126.454L63.6095 126.441L63.57 126.429L62.7 129.3ZM56.1 127.3L55.1513 130.146L55.1905 130.159L55.23 130.171L56.1 127.3ZM54.3 125.7L56.9833 124.358L56.9833 124.358L54.3 125.7ZM54.1 123.3L56.9461 124.249V124.249L54.1 123.3ZM58 121.4L56.8815 124.184L56.972 124.22L57.0647 124.25L58 121.4ZM64.4 123.5L65.4252 120.681L65.3805 120.664L65.3353 120.65L64.4 123.5ZM74.5 124.3V127.3H77.5V124.3H74.5ZM69.7 118.3L70.8142 115.515L70.7909 115.505L70.7675 115.496L69.7 118.3ZM47.9 110L48.9675 107.196L48.4518 107H47.9V110ZM39.5 110V107H36.5V110H39.5ZM39.5 133.8H36.5V136.047L38.656 136.679L39.5 133.8ZM39.5 140.1L40.3242 137.215L36.7805 136.203L36.5082 139.878L39.5 140.1ZM68.9 148.5L68.0758 151.385L68.1239 151.398L68.1724 151.41L68.9 148.5ZM19.7625 144.038L21.8838 141.916L19.7625 144.038ZM19.7625 105.762L17.6412 103.641L17.6412 103.641L19.7625 105.762ZM48.8667 104.1L49.4196 101.151L49.4195 101.151L48.8667 104.1ZM49.9 104.4L48.7858 107.185L48.8147 107.197L48.8438 107.208L49.9 104.4ZM71.7 112.6L72.768 109.797L72.7562 109.792L71.7 112.6ZM80.8 124.3H77.8V127.3H80.8V124.3ZM98.4417 128L100.604 125.92L100.604 125.92L98.4417 128ZM101.45 138.8L104.01 140.364L104.01 140.364L101.45 138.8ZM99.9 140L99.038 137.127L99.0275 137.13L99.017 137.133L99.9 140ZM72.3 148.5L73.0132 151.414L73.0988 151.393L73.183 151.367L72.3 148.5ZM33.4 139.8V142.8H36.4V139.8H33.4ZM24 139.8H21V142.8H24V139.8ZM33.4 110H36.4V107H33.4V110ZM24 110V107H21V110H24ZM87 7C83.6863 7 81 9.68629 81 13H87V7ZM93 13C93 9.68629 90.3137 7 87 7V13H93ZM93 23V13H87V23H93ZM87 29C90.3137 29 93 26.3137 93 23H87V29ZM81 23C81 26.3137 83.6863 29 87 29V23H81ZM81 13V23H87V13H81ZM128.012 23.9883C125.669 21.6451 121.87 21.6451 119.527 23.9883L123.77 28.2309H123.77L128.012 23.9883ZM128.012 32.4736C130.355 30.1304 130.355 26.3314 128.012 23.9883L123.77 28.2309V28.2309L128.012 32.4736ZM120.941 39.5446L128.012 32.4736L123.77 28.2309L116.698 35.302L120.941 39.5446ZM112.456 39.5446C114.799 41.8878 118.598 41.8878 120.941 39.5446L116.698 35.302H116.698L112.456 39.5446ZM112.456 31.0594C110.113 33.4025 110.113 37.2015 112.456 39.5446L116.698 35.302V35.302L112.456 31.0594ZM119.527 23.9883L112.456 31.0593L116.698 35.302L123.77 28.2309L119.527 23.9883ZM139 65H145C145 61.6863 142.314 59 139 59V65ZM129 65H139V59H129V65ZM129 65V59C125.686 59 123 61.6863 123 65H129ZM129 65H123C123 68.3137 125.686 71 129 71V65ZM139 65H129V71H139V65ZM139 65V71C142.314 71 145 68.3137 145 65H139ZM128.012 106.012C130.355 103.669 130.355 99.87 128.012 97.5269L123.769 101.77L128.012 106.012ZM119.526 106.012C121.87 108.355 125.669 108.355 128.012 106.012L123.769 101.77H123.769L119.526 106.012ZM112.455 98.9411L119.526 106.012L123.769 101.77L116.698 94.6985L112.455 98.9411ZM112.455 90.4558C110.112 92.799 110.112 96.598 112.455 98.9411L116.698 94.6985V94.6985L112.455 90.4558ZM120.941 90.4558C118.598 88.1127 114.799 88.1127 112.455 90.4558L116.698 94.6985H116.698L120.941 90.4558ZM128.012 97.5269L120.941 90.4558L116.698 94.6985L123.769 101.77L128.012 97.5269ZM35 65H29C29 68.3137 31.6863 71 35 71V65ZM45 65H35V71H45V65ZM45 65L45 65L45 71C48.3137 71 51 68.3137 51 65H45ZM45 65L45 65H51C51 61.6863 48.3137 59 45 59L45 65ZM35 65H45V59H35V65ZM35 65V59C31.6863 59 29 61.6863 29 65H35ZM45.9883 23.9878C43.6451 26.331 43.6451 30.13 45.9883 32.4731L50.2309 28.2305L45.9883 23.9878ZM54.4736 23.9878C52.1304 21.6447 48.3314 21.6447 45.9883 23.9878L50.2309 28.2305L50.2309 28.2305L54.4736 23.9878ZM61.5446 31.0589L54.4736 23.9878L50.2309 28.2305L57.302 35.3015L61.5446 31.0589ZM61.5446 39.5442C63.8878 37.201 63.8878 33.402 61.5446 31.0589L57.302 35.3015L61.5446 39.5442ZM53.0593 39.5442C55.4025 41.8873 59.2015 41.8873 61.5446 39.5442L57.302 35.3015H57.302L53.0593 39.5442ZM45.9883 32.4731L53.0594 39.5442L57.302 35.3015L50.2309 28.2305L45.9883 32.4731ZM87 93C102.464 93 115 80.464 115 65H109C109 77.1503 99.1503 87 87 87V93ZM59 65C59 80.464 71.536 93 87 93V87C74.8497 87 65 77.1503 65 65H59ZM87 37C71.536 37 59 49.536 59 65H65C65 52.8497 74.8497 43 87 43V37ZM115 65C115 49.536 102.464 37 87 37V43C99.1503 43 109 52.8497 109 65H115ZM87 99C105.778 99 121 83.7777 121 65H115C115 80.464 102.464 93 87 93V99ZM53 65C53 83.7777 68.2223 99 87 99V93C71.536 93 59 80.464 59 65H53ZM87 31C68.2223 31 53 46.2223 53 65H59C59 49.536 71.536 37 87 37V31ZM121 65C121 46.2223 105.778 31 87 31V37C102.464 37 115 49.536 115 65H121ZM81 80C81 82.7614 83.2386 85 86 85V79C86.5523 79 87 79.4477 87 80H81ZM81 78V80H87V78H81ZM81 81H84V75H81V81ZM75 75C75 78.3137 77.6863 81 81 81V75H75ZM81 69C77.6863 69 75 71.6863 75 75H81V69ZM90 69H81V75H90V69ZM87 68V72H93V68H87ZM81 71H90V65H81V71ZM75 65C75 68.3292 77.6708 71 81 71V65C80.9899 65 80.9848 64.999 80.9836 64.9988C80.9823 64.9985 80.9828 64.9985 80.9845 64.9992C80.9879 65.0007 80.9914 65.003 80.9942 65.0058C80.997 65.0086 80.9993 65.0121 81.0008 65.0155C81.0015 65.0172 81.0015 65.0177 81.0012 65.0164C81.001 65.0152 81 65.0101 81 65H75ZM75 55V65H81V55H75ZM81 49C77.6708 49 75 51.6708 75 55H81C81 54.9899 81.001 54.9848 81.0012 54.9836C81.0015 54.9823 81.0015 54.9828 81.0008 54.9845C80.9993 54.9879 80.997 54.9914 80.9942 54.9942C80.9914 54.997 80.9879 54.9993 80.9845 55.0008C80.9828 55.0015 80.9823 55.0015 80.9836 55.0012C80.9848 55.001 80.9899 55 81 55V49ZM84 49H81V55H84V49ZM81 50V52H87V50H81ZM86 45C83.2386 45 81 47.2386 81 50H87C87 50.5523 86.5523 51 86 51V45ZM88 45H86V51H88V45ZM93 50C93 47.2386 90.7614 45 88 45V51C87.4477 51 87 50.5523 87 50H93ZM93 52V50H87V52H93ZM93 49H90V55H93V49ZM99 55C99 51.6863 96.3137 49 93 49V55H99ZM93 61C96.3137 61 99 58.3137 99 55H93V61ZM84 61H93V55H84V61ZM87 62V58H81V62H87ZM93 59H84V65H93V59ZM99 65C99 61.6708 96.3292 59 93 59V65C93.0101 65 93.0152 65.001 93.0164 65.0012C93.0177 65.0015 93.0172 65.0015 93.0155 65.0008C93.0121 64.9993 93.0086 64.997 93.0058 64.9942C93.003 64.9914 93.0007 64.9879 92.9992 64.9845C92.9985 64.9828 92.9985 64.9823 92.9988 64.9836C92.999 64.9848 93 64.9899 93 65H99ZM99 75V65H93V75H99ZM93 81C96.3292 81 99 78.3292 99 75H93C93 75.0101 92.999 75.0152 92.9988 75.0164C92.9985 75.0177 92.9985 75.0172 92.9992 75.0155C93.0007 75.0121 93.003 75.0086 93.0058 75.0058C93.0086 75.003 93.0121 75.0007 93.0155 74.9992C93.0172 74.9985 93.0177 74.9985 93.0164 74.9988C93.0152 74.999 93.0101 75 93 75V81ZM90 81H93V75H90V81ZM93 80V78H87V80H93ZM88 85C90.7614 85 93 82.7614 93 80H87C87 79.4477 87.4477 79 88 79V85ZM86 85H88V79H86V85ZM94.0999 132.138L69.2999 139.938L71.1001 145.662L95.9001 137.862L94.0999 132.138ZM91.4392 133.826C91.8744 134.219 92 134.557 92 135H98C98 132.776 97.0923 130.847 95.4609 129.374L91.4392 133.826ZM89.9427 133.297C90.5571 133.267 90.9981 133.428 91.4391 133.826L95.4609 129.374C93.8352 127.905 91.8429 127.199 89.6573 127.303L89.9427 133.297ZM68.9 133.3H89.8V127.3H68.9V133.3ZM65.1799 133.045C66.4664 133.294 67.771 133.376 69.0871 133.294L68.7129 127.306C67.8957 127.357 67.1002 127.306 66.3201 127.155L65.1799 133.045ZM61.7513 132.146C62.875 132.521 64.0182 132.82 65.1799 133.045L66.3201 127.155C65.4152 126.98 64.525 126.746 63.6487 126.454L61.7513 132.146ZM55.23 130.171L61.83 132.171L63.57 126.429L56.97 124.429L55.23 130.171ZM51.6167 127.042C52.3486 128.505 53.5472 129.611 55.1513 130.146L57.0487 124.454C57.0275 124.447 57.0217 124.443 57.0259 124.445C57.0305 124.448 57.0372 124.453 57.0431 124.458C57.0488 124.463 57.0466 124.462 57.0375 124.45C57.028 124.437 57.0086 124.409 56.9833 124.358L51.6167 127.042ZM51.254 122.351C50.7192 123.955 50.8848 125.578 51.6167 127.042L56.9833 124.358C56.9579 124.308 56.9469 124.275 56.9425 124.26C56.9383 124.245 56.939 124.243 56.9396 124.251C56.9403 124.259 56.94 124.267 56.9393 124.272C56.9387 124.277 56.939 124.27 56.9461 124.249L51.254 122.351ZM54.2188 118.851C52.7952 119.609 51.7666 120.813 51.254 122.351L56.9461 124.249C56.9575 124.214 56.9665 124.197 56.9694 124.192C56.9721 124.187 56.972 124.188 56.9692 124.191C56.9663 124.195 56.9664 124.194 56.9733 124.188C56.9807 124.182 56.9999 124.168 57.0368 124.149L54.2188 118.851ZM59.1185 118.616C57.5145 117.972 55.7955 118.013 54.2188 118.851L57.0368 124.149C57.0466 124.143 57.0373 124.149 57.0103 124.157C56.9826 124.165 56.948 124.171 56.9111 124.172C56.8745 124.174 56.849 124.17 56.8389 124.169C56.8299 124.167 56.8434 124.168 56.8815 124.184L59.1185 118.616ZM65.3353 120.65L58.9353 118.55L57.0647 124.25L63.4647 126.35L65.3353 120.65ZM67.164 121.144C66.5719 121.041 65.993 120.887 65.4252 120.681L63.3748 126.319C64.2737 126.646 65.1948 126.892 66.136 127.056L67.164 121.144ZM68.9 121.3C68.3491 121.3 67.7712 121.25 67.164 121.144L66.136 127.056C67.0621 127.217 67.9842 127.3 68.9 127.3V121.3ZM74.5 121.3H68.9V127.3H74.5V121.3ZM70.8737 122.661C71.306 123.14 71.5 123.638 71.5 124.3H77.5C77.5 122.162 76.7606 120.227 75.3263 118.639L70.8737 122.661ZM68.5858 121.085C69.508 121.454 70.2569 121.978 70.8737 122.661L75.3263 118.639C74.0764 117.255 72.5587 116.212 70.8142 115.515L68.5858 121.085ZM46.8325 112.804L68.6325 121.104L70.7675 115.496L48.9675 107.196L46.8325 112.804ZM39.5 113H47.9V107H39.5V113ZM42.5 133.8V110H36.5V133.8H42.5ZM71.044 139.921L40.344 130.921L38.656 136.679L69.356 145.679L71.044 139.921ZM38.6758 142.985L68.0758 151.385L69.7242 145.615L40.3242 137.215L38.6758 142.985ZM39.0215 146.721C41.149 145.164 42.2984 142.932 42.4918 140.322L36.5082 139.878C36.4349 140.868 36.0843 141.436 35.4785 141.879L39.0215 146.721ZM33.5 148.8C35.5153 148.8 37.382 147.921 39.0215 146.721L35.4785 141.879C34.3847 142.679 33.7513 142.8 33.5 142.8V148.8ZM24 148.8H33.5V142.8H24V148.8ZM17.6412 146.159C19.3743 147.892 21.548 148.8 24 148.8V142.8C23.152 142.8 22.5007 142.533 21.8838 141.916L17.6412 146.159ZM15 139.8C15 142.252 15.9081 144.426 17.6412 146.159L21.8838 141.916C21.2669 141.299 21 140.648 21 139.8H15ZM15 110V139.8H21V110H15ZM17.6412 103.641C15.9081 105.374 15 107.548 15 110H21C21 109.152 21.2669 108.501 21.8838 107.884L17.6412 103.641ZM24 101C21.548 101 19.3743 101.908 17.6412 103.641L21.8838 107.884C22.5007 107.267 23.152 107 24 107V101ZM47.8 101H24V107H47.8V101ZM49.4195 101.151C48.8848 101.051 48.3442 101 47.8 101V107C47.9668 107 48.1374 107.016 48.3139 107.049L49.4195 101.151ZM51.0142 101.615C50.4982 101.408 49.9657 101.254 49.4196 101.151L48.3138 107.049C48.4788 107.08 48.6352 107.125 48.7858 107.185L51.0142 101.615ZM72.7562 109.792L50.9562 101.592L48.8438 107.208L70.6438 115.408L72.7562 109.792ZM80.6736 115.302C78.6582 112.835 75.979 111.02 72.768 109.797L70.632 115.403C73.021 116.314 74.7751 117.565 76.0264 119.098L80.6736 115.302ZM83.8 124.3C83.8 120.919 82.7712 117.871 80.6736 115.302L76.0264 119.098C77.1954 120.529 77.8 122.215 77.8 124.3H83.8ZM89.8 121.3H80.8V127.3H89.8V121.3ZM100.604 125.92C97.6724 122.872 94.0139 121.3 89.8 121.3V127.3C92.3639 127.3 94.4664 128.194 96.2794 130.08L100.604 125.92ZM105 136.8C105 132.619 103.51 128.942 100.604 125.92L96.2794 130.08C98.118 131.991 99 134.181 99 136.8H105ZM104.01 140.364C104.677 139.273 105 138.061 105 136.8H99C99 137.006 98.9563 137.127 98.8902 137.236L104.01 140.364ZM100.762 142.873C102.145 142.459 103.262 141.588 104.01 140.364L98.8902 137.236C98.8849 137.244 98.8869 137.239 98.8985 137.226C98.9103 137.213 98.9279 137.196 98.951 137.178C98.9741 137.16 98.9965 137.146 99.0152 137.137C99.0335 137.127 99.0425 137.125 99.038 137.127L100.762 142.873ZM73.183 151.367L100.783 142.867L99.017 137.133L71.417 145.633L73.183 151.367ZM70.5914 151.7C71.4118 151.7 72.2216 151.608 73.0132 151.414L71.5868 145.586C71.289 145.659 70.9597 145.7 70.5914 145.7V151.7ZM68.1724 151.41C68.9621 151.608 69.7715 151.7 70.5914 151.7V145.7C70.2227 145.7 69.9046 145.659 69.6276 145.59L68.1724 151.41ZM33.4 136.8H24V142.8H33.4V136.8ZM30.4 110V139.8H36.4V110H30.4ZM24 113H33.4V107H24V113ZM27 139.8V110H21V139.8H27Z" fill="#FFEBF7" mask="url(#path-3-outside-1_6826_25649)"/>
</g>
<defs>
<filter id="filter0_dd_6826_25649" x="-1.5" y="-1" width="163" height="163.75" filterUnits="userSpaceOnUse" color-interpolation-filters="sRGB">
<feFlood flood-opacity="0" result="BackgroundImageFix"/>
<feColorMatrix in="SourceAlpha" type="matrix" values="0 0 0 0 0 0 0 0 0 0 0 0 0 0 0 0 0 0 127 0" result="hardAlpha"/>
<feOffset dy="1.25"/>
<feGaussianBlur stdDeviation="0.75"/>
<feColorMatrix type="matrix" values="0 0 0 0 0 0 0 0 0 0 0 0 0 0 0 0 0 0 0.24 0"/>
<feBlend mode="normal" in2="BackgroundImageFix" result="effect1_dropShadow_6826_25649"/>
<feColorMatrix in="SourceAlpha" type="matrix" values="0 0 0 0 0 0 0 0 0 0 0 0 0 0 0 0 0 0 127 0" result="hardAlpha"/>
<feOffset/>
<feGaussianBlur stdDeviation="0.5"/>
<feColorMatrix type="matrix" values="0 0 0 0 0 0 0 0 0 0 0 0 0 0 0 0 0 0 0.16 0"/>
<feBlend mode="normal" in2="effect1_dropShadow_6826_25649" result="effect2_dropShadow_6826_25649"/>
<feBlend mode="normal" in="SourceGraphic" in2="effect2_dropShadow_6826_25649" result="shape"/>
</filter>
</defs>
</svg>
