<svg width="24" height="24" viewBox="0 0 24 24" fill="none" xmlns="http://www.w3.org/2000/svg">
<path d="M0.92749 15.5937C0.591754 15.0016 0.469309 14.4489 0.506362 13.9452C0.543853 13.4355 0.741538 13.017 0.975732 12.6941C1.20812 12.3737 1.48182 12.1393 1.69207 11.9866C1.69751 11.9827 1.70292 11.9788 1.70829 11.9749L1.39736 11.5228L1.39689 11.5221C1.23765 11.2898 1.20559 10.9927 1.30805 10.7323L1.3086 10.7308C1.41216 10.47 1.64334 10.2692 1.93406 10.22L1.93355 10.2201L2.01753 10.713L1.93415 10.22L0.92749 15.5937ZM0.92749 15.5937C0.935013 15.6099 0.942102 15.6233 0.947113 15.6325C0.960418 15.6568 0.97495 15.6801 0.987011 15.6988C1.01206 15.7377 1.04452 15.7846 1.08084 15.8353C1.15449 15.9383 1.25702 16.0756 1.37917 16.2344C1.62399 16.5528 1.95533 16.9681 2.30799 17.3877C2.65967 17.806 3.03803 18.2352 3.37583 18.5779C3.54434 18.7489 3.70898 18.9048 3.85949 19.0289C3.99689 19.1421 4.16776 19.2677 4.34297 19.3289L4.34298 19.3289C4.44863 19.3659 4.60988 19.3892 4.77836 19.3108C4.94153 19.235 5.02476 19.1037 5.06428 19.0142C5.13406 18.8563 5.13372 18.6823 5.12928 18.5762C5.11901 18.3304 5.05624 18.0002 4.97079 17.6442C4.94489 17.5363 4.91618 17.4231 4.88499 17.3056C4.95484 17.3702 5.02493 17.4308 5.09245 17.482C5.16081 17.534 5.26306 17.6051 5.38104 17.6452L5.38105 17.6452C5.46029 17.6721 5.57144 17.69 5.69591 17.6575C5.82348 17.6241 5.91698 17.5503 5.9781 17.4754C6.01025 17.436 6.03456 17.3952 6.05303 17.3558C6.24071 17.4976 6.45036 17.6277 6.68444 17.7413C6.71339 18.8935 7.61928 19.9436 8.84174 20.3593C9.51662 20.5888 10.2119 20.6052 10.8235 20.4343C10.9949 20.3864 11.128 20.251 11.1728 20.0787C11.2176 19.9065 11.1675 19.7234 11.0412 19.598C10.8008 19.3593 10.5842 19.0993 10.4023 18.8584C10.8619 18.8949 11.4456 18.9307 12.1021 18.947C12.1566 18.9483 12.2095 18.9409 12.2593 18.9258C12.3405 18.979 12.4378 19.009 12.5411 19.0074C13.0657 18.9992 13.6151 18.9757 14.1704 18.9295C13.9968 19.1387 13.7957 19.362 13.5748 19.5746C13.4444 19.7002 13.392 19.8865 13.4379 20.0617C13.4838 20.2368 13.6208 20.3735 13.7961 20.4189C14.4379 20.5852 15.1681 20.5354 15.8587 20.2486C17.0206 19.7659 17.837 18.6892 17.7989 17.5649C18.0038 17.4402 18.1865 17.3023 18.3494 17.1557C18.3539 17.2095 18.364 17.2705 18.3853 17.3315C18.407 17.3937 18.4558 17.5017 18.5667 17.5889C18.6947 17.6895 18.848 17.7175 18.9825 17.6959L18.9826 17.6959C19.112 17.675 19.2192 17.6153 19.2803 17.578C19.3524 17.534 19.4246 17.4804 19.4925 17.4255C19.5513 17.3781 19.613 17.3247 19.6763 17.2674C19.6389 17.5268 19.6087 17.7683 19.5882 17.9826C19.5591 18.2866 19.5453 18.5738 19.5702 18.7867C19.5805 18.8747 19.6059 19.0461 19.7118 19.1908C19.7752 19.2774 19.8866 19.3793 20.055 19.4141C20.2188 19.4479 20.3564 19.4014 20.4422 19.3562C20.6063 19.2696 20.7567 19.1201 20.8759 18.9876C21.0063 18.8425 21.1461 18.6639 21.2875 18.4697C21.571 18.0805 21.8818 17.5999 22.1678 17.1338C22.4546 16.6664 22.7209 16.2064 22.916 15.8551C23.0133 15.6798 23.0945 15.5288 23.1521 15.4161C23.1805 15.3604 23.2057 15.3093 23.2247 15.2671C23.2339 15.2468 23.2448 15.2216 23.2544 15.1956C23.258 15.1858 23.263 15.1715 23.268 15.1544C23.6727 14.1031 23.5045 13.2719 23.0965 12.6656C22.8752 12.3367 22.5956 12.092 22.339 11.916L22.609 11.5233C22.6091 11.5232 22.6091 11.5231 22.6092 11.523L22.6093 11.5228L22.1973 11.2395L0.92749 15.5937ZM2.67103 10.2581L2.60467 10.1057L2.76325 10.0787M2.67103 10.2581C2.66261 10.2749 2.65421 10.2918 2.64586 10.3088L2.70598 10.3384M2.67103 10.2581C2.70173 10.1968 2.73274 10.1369 2.76325 10.0787M2.67103 10.2581L2.70598 10.3384M2.70598 10.3384L2.76583 10.4759L2.88235 10.4251M2.70598 10.3384L2.88235 10.4251M2.88235 10.4251L3.09454 10.5295L3.06334 10.3463M2.88235 10.4251L3.06334 10.3463M3.06334 10.3463L3.22426 10.2763L3.03436 10.1762M3.06334 10.3463L3.03436 10.1762M3.03436 10.1762L3.01057 10.0366L2.82814 10.0676M3.03436 10.1762L2.82814 10.0676M2.82814 10.0676L2.78186 10.0433C2.77568 10.055 2.76947 10.0668 2.76325 10.0787M2.82814 10.0676L2.76325 10.0787M20.9331 8.76232L20.9149 8.26265L20.9142 8.26268L18.7973 6.01931M20.9331 8.76232L20.9134 8.26271L20.2465 8.28703L20.4063 7.57809L20.4064 7.57774C20.4675 7.30561 20.3919 7.01533 20.195 6.80903C19.9964 6.6008 19.7005 6.50893 19.4142 6.57951L19.4141 6.57954L18.7732 6.7377L18.7973 6.02028C18.7973 6.01996 18.7973 6.01963 18.7973 6.01931M20.9331 8.76232L19.8401 8.80219L21.9891 10.713L20.912 10.5295M20.9331 8.76232C21.0444 8.75793 21.1488 8.81436 21.2102 8.91098C21.2719 9.00711 21.2818 9.13024 21.2352 9.23625L20.7827 10.2763M18.7973 6.01931C18.8069 5.74088 18.6783 5.46728 18.4417 5.30234C18.2025 5.13516 17.894 5.10885 17.6301 5.23456L17.6297 5.23473M18.7973 6.01931L17.6297 5.23473M20.7827 10.2763C20.8266 10.3598 20.8704 10.444 20.912 10.5295M20.7827 10.2763L20.9433 10.3461M20.7827 10.2763L20.9721 10.1767L20.996 10.0366L21.1795 10.0678L21.2253 10.0437C21.2314 10.0553 21.2376 10.067 21.2437 10.0788L20.9433 10.3461M20.912 10.5295L21.1255 10.4254L21.2412 10.4757L21.3002 10.3402M20.912 10.5295L20.9433 10.3461M20.9433 10.3461L21.3002 10.3402M21.3002 10.3402L21.3615 10.3103C21.353 10.2929 21.3444 10.2755 21.3358 10.2583L21.3002 10.3402ZM17.6297 5.23473L17.0373 5.51749L16.9287 4.81955L16.9286 4.8195C16.8858 4.5441 16.7074 4.29796 16.44 4.18213C16.1701 4.06481 15.862 4.1046 15.6306 4.27952C15.6305 4.27957 15.6304 4.27963 15.6303 4.27969L15.1046 4.67572L14.8722 4.02471C14.8722 4.02462 14.8722 4.02452 14.8721 4.02443C14.7778 3.76003 14.5541 3.55092 14.2648 3.49125L14.2643 3.49115M17.6297 5.23473L14.2643 3.49115M14.2643 3.49115C13.9766 3.4321 13.6856 3.53396 13.4945 3.74828L13.4943 3.74853M14.2643 3.49115L13.4943 3.74853M13.4943 3.74853L13.0514 4.24595L12.7065 3.6625L12.7064 3.66239C12.5618 3.41783 12.2986 3.2583 12.0038 3.2583C11.7101 3.2583 11.446 3.41712 11.3014 3.663C11.3012 3.66333 11.301 3.66367 11.3008 3.664L10.9565 4.2462L10.5134 3.74852L10.513 3.74813M13.4943 3.74853L10.513 3.74813M10.513 3.74813C10.3219 3.53391 10.0304 3.43201 9.7429 3.49121L9.74164 3.49148M10.513 3.74813L9.74164 3.49148M9.74164 3.49148C9.45445 3.55139 9.22977 3.75891 9.1353 4.02503C9.13525 4.02519 9.13519 4.02534 9.13513 4.0255L8.90289 4.67571L8.37733 4.2797L8.07576 4.67851L8.37665 4.27918L8.37686 4.27934C8.14499 4.10427 7.83679 4.06458 7.56652 4.1824L9.74164 3.49148ZM4.59325 6.57955L4.59325 6.57955L5.23391 6.73769L5.21005 6.02064C5.21004 6.02032 5.21003 6.02 5.21001 6.01967L5.21 6.01919L5.70972 6.00256L4.59325 6.57955ZM4.59325 6.57955L4.59182 6.5792M4.59325 6.57955L4.59182 6.5792M4.59182 6.5792C4.30684 6.50974 4.01179 6.60019 3.81259 6.80836M4.59182 6.5792L3.60046 7.5779M3.60046 7.5779L3.60031 7.57723C3.5397 7.306 3.61432 7.01533 3.81259 6.80836M3.60046 7.5779L3.75996 8.28702L3.09205 8.26265L3.09205 8.26264M3.60046 7.5779L3.09205 8.26264M3.81259 6.80836L4.17365 7.15424L3.81211 6.80886C3.81227 6.80869 3.81243 6.80852 3.81259 6.80836ZM3.09205 8.26264L3.08865 8.26254M3.09205 8.26264L3.08865 8.26254M3.08865 8.26254C2.8002 8.25399 2.53052 8.39885 2.37547 8.64141L3.08865 8.26254ZM20.5685 18.7006C20.5683 18.7008 20.5676 18.6982 20.5665 18.6924C20.568 18.6976 20.5686 18.7005 20.5685 18.7006ZM12.3299 17.051C12.2617 16.9241 12.1831 16.8014 12.0951 16.6841C12.2555 16.6832 12.4151 16.6812 12.5737 16.6781C12.4823 16.7973 12.4007 16.922 12.3299 17.051ZM19.3465 17.0823C19.3464 17.0823 19.3463 17.0804 19.3463 17.0763C19.3466 17.0802 19.3466 17.0823 19.3465 17.0823ZM6.37775 5.23485C6.11348 5.10849 5.80381 5.13511 5.56487 5.30281L7.5728 4.89643L7.07875 4.81949L7.07868 4.81994L6.97004 5.51757L6.37792 5.23493L6.16213 5.68597L6.37752 5.23474L6.37775 5.23485Z" fill="white" stroke="white" stroke-linejoin="round"/>
<path d="M11.9065 9.85901C9.17404 9.85901 6.69142 10.1888 4.85342 10.7263V15.3174C6.69142 15.8548 9.17404 16.1846 11.9065 16.1846C15.034 16.1846 17.8338 15.7526 19.7145 15.0717V10.972C17.8338 10.2911 15.034 9.85901 11.9065 9.85901Z" fill="#8F1E1C"/>
<path d="M19.8368 14.0143C19.7567 13.7921 19.7407 13.511 19.8085 13.2399C19.9299 12.7545 20.2739 12.4855 20.5768 12.639C20.652 12.677 20.7175 12.7376 20.7717 12.8144C20.7767 12.8144 20.7816 12.8144 20.7865 12.8147C20.7865 12.8147 21.7114 13.9215 20.8553 15.2323C20.8367 15.3067 19.2666 17.1437 18.9031 17.2022C18.6652 17.2405 19.2122 15.3266 19.8368 14.0143Z" fill="#8F1E1C"/>
<path d="M4.66344 13.7973C4.77346 13.5966 4.81203 13.3224 4.75098 13.0382C4.64167 12.5293 4.25465 12.1814 3.88656 12.2611C3.79526 12.2809 3.71374 12.3251 3.64439 12.3882C3.63853 12.387 3.63268 12.3859 3.62685 12.385C3.62685 12.385 2.45831 13.2593 3.37656 14.7592C3.39327 14.8372 5.11718 17.0275 5.5419 17.1718C5.81988 17.2662 5.30843 15.2435 4.66344 13.7973Z" fill="#8F1E1C"/>
<path d="M21.6157 12.3568C21.5974 12.293 21.5792 12.2291 21.5604 12.1659L22.1973 11.2395C22.2623 11.1453 22.2756 11.0228 22.2332 10.9153C22.1909 10.8084 22.0985 10.7317 21.9891 10.713L20.912 10.5295C20.8704 10.444 20.8266 10.3598 20.7827 10.2762L21.2352 9.23625C21.2818 9.13024 21.2719 9.00711 21.2102 8.91098C21.1488 8.81436 21.0444 8.75793 20.9331 8.76232L19.8401 8.80219C19.7834 8.72821 19.726 8.65489 19.6673 8.58293L19.9185 7.46818C19.9439 7.35495 19.9118 7.23647 19.8333 7.15424C19.7552 7.07229 19.6418 7.03839 19.5339 7.06498L18.4692 7.32773C18.4002 7.26657 18.3301 7.20617 18.2592 7.14699L18.2976 6.00256C18.3017 5.88671 18.2479 5.77663 18.1555 5.71236C18.0632 5.64767 17.946 5.63789 17.8451 5.68597L16.8518 6.16003C16.7718 6.11397 16.6914 6.06833 16.6101 6.02421L16.4346 4.89643C16.4168 4.78219 16.3436 4.68516 16.241 4.64083C16.1388 4.59627 16.0216 4.61065 15.9319 4.67851L15.0464 5.34554C14.9592 5.31645 14.8716 5.28859 14.7829 5.26195L14.4012 4.19249C14.3624 4.08351 14.2729 4.00345 14.1638 3.98094C14.055 3.95862 13.9431 3.99642 13.8677 4.08101L13.1223 4.91821C13.0322 4.90779 12.942 4.89829 12.8516 4.89045L12.2761 3.91694C12.2178 3.81832 12.1148 3.7583 12.0038 3.7583C11.8931 3.7583 11.7899 3.81832 11.7321 3.91694L11.1564 4.89045C11.0659 4.89829 10.9753 4.90779 10.8854 4.91821L10.1399 4.08101C10.0645 3.99642 9.95214 3.95862 9.84376 3.98094C9.73467 4.0037 9.64504 4.08351 9.60642 4.19249L9.22443 5.26195C9.136 5.28859 9.04837 5.3167 8.96098 5.34554L8.07576 4.67851C7.98575 4.61044 7.86859 4.59608 7.76612 4.64083C7.66401 4.68516 7.59048 4.78219 7.5728 4.89643L7.39716 6.02421C7.31591 6.06833 7.23547 6.1137 7.15526 6.16003L6.16213 5.68597C6.06129 5.63773 5.94357 5.64767 5.85171 5.71236C5.75944 5.77663 5.70553 5.88671 5.70972 6.00256L5.74781 7.14699C5.67713 7.20617 5.6072 7.26657 5.5379 7.32773L4.47343 7.06498C4.36526 7.03862 4.25194 7.07229 4.17365 7.15424C4.09488 7.23647 4.06297 7.35495 4.08827 7.46818L4.33902 8.58293C4.28085 8.65518 4.22329 8.72821 4.16687 8.80219L3.07383 8.76232C2.9635 8.75905 2.85821 8.81436 2.79658 8.91098C2.73482 9.00711 2.72548 9.13024 2.77144 9.23625L3.22426 10.2762C3.18028 10.3598 3.13658 10.444 3.09454 10.5295L2.01753 10.713C1.90811 10.7315 1.81588 10.8081 1.77333 10.9153C1.73104 11.0228 1.74476 11.1453 1.80934 11.2395L2.44642 12.1659C2.4415 12.1822 2.43698 12.1987 2.4321 12.2151L2.08205 12.5884L3.02326 13.9232C3.02326 13.9232 12.0564 18.1066 20.4354 13.994C21.3926 13.8216 21.6157 12.3568 21.6157 12.3568Z" fill="#E43A25"/>
<path d="M3.3167 14.1555C3.54436 13.8958 4.09745 13.5812 4.05508 13.191C3.97925 12.4923 3.4021 11.9823 2.766 12.0519C2.60823 12.0691 2.46172 12.1205 2.33164 12.1985C2.32205 12.1963 2.31244 12.1941 2.30283 12.1924C2.30283 12.1924 0.151607 13.2526 1.37775 15.3738C1.38931 15.4809 3.8241 18.618 4.50788 18.8569C4.95542 19.0132 4.09456 16.176 3.3167 14.1555Z" fill="#E43A25"/>
<path d="M20.7943 14.0609C20.5308 13.8379 19.836 13.6354 19.8203 13.2432C19.7921 12.5409 20.2876 11.9506 20.927 11.9248C21.0855 11.9184 21.238 11.9474 21.3781 12.0052C21.3873 12.0016 21.3965 11.998 21.4057 11.9949C21.4057 11.9949 23.6897 12.7232 22.7902 15.0035C22.7946 15.1111 20.85 18.5759 20.209 18.9139C19.7895 19.1351 20.3233 16.1748 20.7943 14.0609Z" fill="#E43A25"/>
<path d="M19.1921 14.0793C19.1921 14.0793 19.2208 16.9406 16.4277 17.5791L15.8454 16.4045C15.8454 16.4045 17.8692 16.601 18.0249 14.0793H19.1921Z" fill="#E43A25"/>
<path d="M17.1744 16.9977C16.7541 15.9777 15.3976 15.5727 14.1447 16.0932C13.0419 16.5513 12.3878 17.5735 12.5333 18.5074C13.4041 18.4938 14.3381 18.4372 15.2472 18.3049C15.2472 18.3049 14.7109 19.1753 13.9216 19.9349C14.4524 20.0724 15.0713 20.0342 15.6669 19.7868C16.9199 19.2664 17.5948 18.0176 17.1744 16.9977Z" fill="#E43A25"/>
<path d="M4.96779 14.0793C4.96779 14.0793 4.93908 16.9406 7.73211 17.5791L8.31447 16.4045C8.31447 16.4045 6.29062 16.601 6.13493 14.0793H4.96779Z" fill="#E43A25"/>
<path d="M9.40189 18.2563C9.40189 18.2563 10.5478 18.4083 12.1144 18.4471C12.2516 17.457 11.5045 16.4091 10.3125 16.0037C8.99567 15.5559 7.63493 16.0619 7.27321 17.134C6.91149 18.206 7.68581 19.4381 9.00268 19.8859C9.58643 20.0844 10.1787 20.0953 10.6889 19.9527C9.92266 19.192 9.40189 18.2563 9.40189 18.2563Z" fill="#E43A25"/>
<path d="M11 13C11 14.5 10.5 15 9.5 15C8.5 15 8 14.5 8 13C8 11.5 8.5 11 9.5 11C10.5 11 11 11.5 11 13Z" fill="black"/>
<path d="M10 12C10 12.75 9.66667 13 9 13C8.33333 13 8 12.75 8 12C8 11.25 8.33333 11 9 11C9.66667 11 10 11.25 10 12Z" fill="white"/>
<path d="M16 13C16 14.5 15.5 15 14.5 15C13.5 15 13 14.5 13 13C13 11.5 13.5 11 14.5 11C15.5 11 16 11.5 16 13Z" fill="black"/>
<path d="M15 12C15 12.75 14.6667 13 14 13C13.3333 13 13 12.75 13 12C13 11.25 13.3333 11 14 11C14.6667 11 15 11.25 15 12Z" fill="white"/>
</svg>
