<svg width="24" height="24" viewBox="0 0 24 24" fill="none" xmlns="http://www.w3.org/2000/svg">
<g clip-path="url(#clip0_4796_42843)">
<circle cx="12" cy="7.5" r="1" fill="white"/>
<circle cx="16.6" cy="12.1" r="1" fill="white"/>
<circle cx="12" cy="16.75" r="1" fill="white"/>
<path d="M22.913 10.6819L22.9126 10.6815L13.3188 1.08848C13.3188 1.08843 13.3187 1.08839 13.3187 1.08835C13.1409 0.910438 12.9297 0.769302 12.6973 0.673001L12.507 1.13236L12.6973 0.673001C12.4649 0.576678 12.2158 0.5271 11.9642 0.5271C11.7125 0.5271 11.4634 0.576678 11.231 0.673001C10.9985 0.769319 10.7874 0.91049 10.6095 1.08845C10.6095 1.08846 10.6095 1.08847 10.6095 1.08848L8.61804 3.08088L8.26466 3.43444L8.61812 3.7879L11.1448 6.31456L11.3647 6.53444L11.6591 6.43444C11.8678 6.36357 12.0922 6.3525 12.3069 6.4025C12.5214 6.45247 12.7177 6.56143 12.8735 6.71707C13.0303 6.87404 13.1398 7.07197 13.1894 7.28823C13.239 7.50448 13.2267 7.73034 13.154 7.93995L13.0513 8.23595L13.2729 8.45746L15.7089 10.8928L15.9305 11.1143L16.2264 11.0115C16.436 10.9387 16.6619 10.9264 16.8781 10.9761C17.0944 11.0258 17.2922 11.1354 17.449 11.2923L17.4492 11.2926C17.5592 11.4025 17.6464 11.5329 17.7059 11.6765C17.7653 11.8201 17.796 11.9741 17.796 12.1295C17.796 12.2849 17.7653 12.4388 17.7058 12.5824C17.6464 12.726 17.5592 12.8564 17.4494 12.9663C17.227 13.1884 16.9256 13.3132 16.6113 13.3132C16.297 13.3132 15.9956 13.1884 15.7732 12.9663C15.6083 12.8009 15.496 12.5906 15.4503 12.3616C15.4046 12.1324 15.4277 11.8948 15.5167 11.6787L15.6438 11.3704L15.4079 11.1347L13.1362 8.86363L12.2827 8.01041V9.21724V15.1948V15.5055L12.5613 15.6431C12.7298 15.7263 12.8761 15.8486 12.988 15.9996C13.1 16.1507 13.1743 16.3263 13.2048 16.5118C13.2354 16.6973 13.2213 16.8874 13.1638 17.0664C13.1062 17.2454 13.0069 17.4081 12.8739 17.541L12.8739 17.541C12.764 17.651 12.6335 17.7382 12.4899 17.7977C12.3463 17.8571 12.1924 17.8878 12.037 17.8878C11.8815 17.8878 11.7276 17.8571 11.584 17.7977C11.4404 17.7382 11.3099 17.651 11.2001 17.5411L11.1999 17.5409C11.09 17.431 11.0028 17.3006 10.9433 17.1569C10.8838 17.0133 10.8532 16.8594 10.8532 16.7039C10.8532 16.5485 10.8838 16.3946 10.9433 16.2509C11.0028 16.1073 11.09 15.9768 11.1999 15.8669L11.2004 15.8665C11.3113 15.7554 11.4431 15.6674 11.5882 15.6075L11.8974 15.4798V15.1453V9.11274V8.77794L11.5878 8.65042C11.4434 8.59094 11.3122 8.50351 11.2017 8.39316C11.0912 8.2828 11.0035 8.1517 10.9438 8.00738C10.8841 7.86306 10.8535 7.70836 10.8538 7.55218C10.854 7.39599 10.8851 7.2414 10.9453 7.09728L11.0745 6.78806L10.8375 6.55109L8.34627 4.05935L7.99276 3.70578L7.63917 4.05927L1.06021 10.6366L1.05982 10.6369C0.701155 10.9963 0.499718 11.4833 0.499718 11.991C0.499718 12.4988 0.701156 12.9858 1.05982 13.3451L1.06017 13.3455L10.6546 22.9399L10.6549 22.9402C11.0143 23.2988 11.5012 23.5002 12.0089 23.5002C12.5165 23.5002 13.0034 23.2988 13.3628 22.9403L13.3632 22.9399L22.9126 13.3904L22.913 13.3901C23.2716 13.0307 23.4731 12.5437 23.4731 12.036C23.4731 11.5283 23.2716 11.0413 22.913 10.6819Z" fill="#F03C2E" stroke="white"/>
</g>
<defs>
<clipPath id="clip0_4796_42843">
<rect width="24" height="24" fill="white"/>
</clipPath>
</defs>
</svg>
