<svg width="24" height="24" viewBox="0 0 24 24" fill="none" xmlns="http://www.w3.org/2000/svg">
<mask id="path-1-outside-1_4777_23548" maskUnits="userSpaceOnUse" x="-0.625" y="1" width="25" height="22" fill="black">
<rect fill="white" x="-0.625" y="1" width="25" height="22"/>
<path fill-rule="evenodd" clip-rule="evenodd" d="M12.125 2C8.52596 2 6.20624 2.79217 4.82477 4.13256C4.46953 3.7843 3.83658 3.35391 3.57932 3.20864C2.84616 2.79464 1.93743 3.0159 1.5496 3.70275C1.16176 4.3896 1.4417 5.28202 2.17486 5.69595C2.37184 5.80719 3.09588 6.14014 3.49507 6.26361C3.23972 7.02004 3.125 7.85501 3.125 8.75V21.5C3.125 21.7761 3.34885 22 3.625 22H20.625C20.9011 22 21.125 21.7761 21.125 21.5V8.75C21.125 7.82419 21.0022 6.96261 20.7281 6.18576C21.131 6.03461 21.6599 5.78852 21.8238 5.69595C22.557 5.28202 22.8369 4.3896 22.4491 3.70275C22.0613 3.0159 21.1525 2.79464 20.4194 3.20864C20.1904 3.33794 19.6638 3.69309 19.3003 4.01517C17.9056 2.74604 15.6177 2 12.125 2Z"/>
</mask>
<path fill-rule="evenodd" clip-rule="evenodd" d="M12.125 2C8.52596 2 6.20624 2.79217 4.82477 4.13256C4.46953 3.7843 3.83658 3.35391 3.57932 3.20864C2.84616 2.79464 1.93743 3.0159 1.5496 3.70275C1.16176 4.3896 1.4417 5.28202 2.17486 5.69595C2.37184 5.80719 3.09588 6.14014 3.49507 6.26361C3.23972 7.02004 3.125 7.85501 3.125 8.75V21.5C3.125 21.7761 3.34885 22 3.625 22H20.625C20.9011 22 21.125 21.7761 21.125 21.5V8.75C21.125 7.82419 21.0022 6.96261 20.7281 6.18576C21.131 6.03461 21.6599 5.78852 21.8238 5.69595C22.557 5.28202 22.8369 4.3896 22.4491 3.70275C22.0613 3.0159 21.1525 2.79464 20.4194 3.20864C20.1904 3.33794 19.6638 3.69309 19.3003 4.01517C17.9056 2.74604 15.6177 2 12.125 2Z" fill="#76E1FE"/>
<path d="M4.82477 4.13256L4.12471 4.84664L4.82116 5.52941L5.52113 4.85026L4.82477 4.13256ZM3.57932 3.20864L3.08762 4.07941L3.08763 4.07941L3.57932 3.20864ZM1.5496 3.70275L2.42037 4.19444H2.42037L1.5496 3.70275ZM2.17486 5.69595L2.6666 4.8252L2.6665 4.82515L2.17486 5.69595ZM3.49507 6.26361L4.44254 6.58345L4.77068 5.61142L3.79057 5.30826L3.49507 6.26361ZM20.7281 6.18576L20.3768 5.24947L19.4587 5.59387L19.7851 6.51859L20.7281 6.18576ZM21.8238 5.69595L21.3322 4.82515L21.3321 4.82521L21.8238 5.69595ZM22.4491 3.70275L23.3199 3.21108L23.3199 3.21107L22.4491 3.70275ZM20.4194 3.20864L20.9111 4.07942L20.9111 4.07941L20.4194 3.20864ZM19.3003 4.01517L18.6273 4.7548L19.2914 5.35913L19.9635 4.76363L19.3003 4.01517ZM5.52113 4.85026C6.6335 3.77097 8.64227 3 12.125 3V1C8.40965 1 5.77898 1.81338 4.12842 3.41486L5.52113 4.85026ZM3.08763 4.07941C3.17293 4.12758 3.36293 4.24879 3.58047 4.40563C3.79944 4.56351 3.99978 4.72416 4.12471 4.84664L5.52483 3.41848C5.08946 2.99165 4.37896 2.51176 4.07101 2.33788L3.08763 4.07941ZM2.42037 4.19444C2.50696 4.04109 2.78105 3.9063 3.08762 4.07941L4.07102 2.33788C2.91126 1.68299 1.3679 1.99072 0.678822 3.21107L2.42037 4.19444ZM2.6665 4.82515C2.35994 4.65207 2.3338 4.34775 2.42037 4.19444L0.678822 3.21107C-0.0102723 4.43146 0.523465 5.91197 1.68322 6.56675L2.6665 4.82515ZM3.79057 5.30826C3.64826 5.26425 3.41059 5.16945 3.1623 5.06006C2.91154 4.94959 2.71942 4.85503 2.6666 4.8252L1.68312 6.56669C1.93269 6.70763 2.72234 7.07134 3.19958 7.21895L3.79057 5.30826ZM4.125 8.75C4.125 7.93836 4.22927 7.21523 4.44254 6.58345L2.54761 5.94376C2.25017 6.82484 2.125 7.77166 2.125 8.75H4.125ZM4.125 21.5V8.75H2.125V21.5H4.125ZM3.625 21C3.90114 21 4.125 21.2239 4.125 21.5H2.125C2.125 22.3284 2.79657 23 3.625 23V21ZM20.625 21H3.625V23H20.625V21ZM20.125 21.5C20.125 21.2239 20.3489 21 20.625 21V23C21.4534 23 22.125 22.3284 22.125 21.5H20.125ZM20.125 8.75V21.5H22.125V8.75H20.125ZM19.7851 6.51859C20.0134 7.16553 20.125 7.91029 20.125 8.75H22.125C22.125 7.73809 21.9911 6.75969 21.671 5.85294L19.7851 6.51859ZM21.0793 7.12206C21.5157 6.95834 22.0945 6.69153 22.3156 6.56669L21.3321 4.82521C21.2914 4.84817 21.1527 4.91751 20.953 5.00798C20.762 5.09449 20.5507 5.18427 20.3768 5.24947L21.0793 7.12206ZM22.3155 6.56675C23.4752 5.91197 24.0089 4.43145 23.3199 3.21108L21.5783 4.19443C21.6649 4.34775 21.6387 4.65208 21.3322 4.82515L22.3155 6.56675ZM23.3199 3.21107C22.6308 1.99072 21.0874 1.68299 19.9277 2.33788L20.9111 4.07941C21.2176 3.9063 21.4917 4.04109 21.5783 4.19444L23.3199 3.21107ZM19.9277 2.33787C19.6432 2.49851 19.0581 2.89372 18.6371 3.26672L19.9635 4.76363C20.2695 4.49246 20.7376 4.17736 20.9111 4.07942L19.9277 2.33787ZM12.125 3C15.5039 3 17.4968 3.72608 18.6273 4.7548L19.9733 3.27555C18.3144 1.76599 15.7315 1 12.125 1V3Z" fill="white" mask="url(#path-1-outside-1_4777_23548)"/>
<path d="M8 11C9.933 11 11.5 9.43302 11.5 7.50002C11.5 5.56703 9.933 4 8 4C6.067 4 4.5 5.56703 4.5 7.50002C4.5 9.43302 6.067 11 8 11Z" fill="white"/>
<path d="M9.50015 8.99741C10.3286 8.99741 11.0002 8.32587 11.0002 7.49745C11.0002 6.66902 10.3286 5.99739 9.50015 5.99739C8.67173 5.99739 8.00015 6.66902 8.00015 7.49745C8.00015 8.32587 8.67173 8.99741 9.50015 8.99741Z" fill="#171311"/>
<path d="M16 11C17.933 11 19.5 9.43305 19.5 7.50005C19.5 5.56705 17.933 4 16 4C14.067 4 12.5 5.56705 12.5 7.50005C12.5 9.43305 14.067 11 16 11Z" fill="white"/>
<path d="M17.5 9C18.3284 9 19 8.32847 19 7.50005C19 6.67162 18.3284 6 17.5 6C16.6716 6 16 6.67162 16 7.50005C16 8.32847 16.6716 9 17.5 9Z" fill="#171311"/>
<path d="M12.918 11.4164H11.2563C10.9556 11.4164 10.7119 11.6602 10.7119 11.9608V13.9518C10.7119 14.2524 10.9556 14.4961 11.2563 14.4961H12.918C13.2187 14.4961 13.4624 14.2524 13.4624 13.9518V11.9608C13.4624 11.6602 13.2187 11.4164 12.918 11.4164Z" fill="black" fill-opacity="0.329412"/>
<path d="M12.918 10.8974H11.2563C10.9556 10.8974 10.7119 11.1411 10.7119 11.4417V13.4326C10.7119 13.7333 10.9556 13.9771 11.2563 13.9771H12.918C13.2187 13.9771 13.4624 13.7333 13.4624 13.4326V11.4417C13.4624 11.1411 13.2187 10.8974 12.918 10.8974Z" fill="#FFFCFB"/>
<path d="M15.1248 11.8751C15.1248 12.5036 14.4714 12.8262 13.5162 12.7495C13.4985 12.7495 13.4803 12.2991 13.3256 12.312C13.3256 12.312 12.9478 12.4047 12.0833 12.4047C11.2188 12.4047 10.797 12.3098 10.797 12.3098C10.7144 12.2813 10.6633 12.7477 10.6009 12.746C9.66812 12.7213 9.04178 12.4923 9.04178 11.8747C9.04178 10.9658 10.4035 10.2291 12.0833 10.2291C13.7631 10.2291 15.1248 10.9662 15.1248 11.8751Z" fill="black" fill-opacity="0.329412"/>
<path d="M15.1081 11.2537C15.1081 11.6801 14.7828 11.8952 14.2545 12.0037C14.0355 12.0487 13.7817 12.0758 13.5017 12.0912C13.0787 12.1152 12.5959 12.1145 12.0833 12.1145C11.5787 12.1145 11.1029 12.1144 10.6846 12.0927C10.4549 12.0799 10.2425 12.0604 10.0522 12.0297C9.44186 11.9308 9.05852 11.7169 9.05852 11.2539C9.05852 10.3838 10.4127 9.67844 12.0833 9.67844C13.7538 9.67844 15.1081 10.3836 15.1081 11.2537Z" fill="#C38C74"/>
<path d="M12.0833 10.8737C12.9449 10.8737 13.6434 10.4225 13.6434 9.86594C13.6434 9.30934 12.9449 8.85812 12.0833 8.85812C11.2217 8.85812 10.5232 9.30934 10.5232 9.86594C10.5232 10.4225 11.2217 10.8737 12.0833 10.8737Z" fill="#23201F"/>
<path fill-rule="evenodd" clip-rule="evenodd" d="M20.65 4.62926C20.5213 4.70791 20.3816 4.81215 20.2329 4.94981C20.1523 5.02434 20.0267 5.01949 19.9521 4.93898C19.8776 4.85847 19.8824 4.73278 19.963 4.65825C20.4277 4.22801 20.8436 4.06307 21.1594 4.01575C21.3161 3.99226 21.4454 3.99818 21.5404 4.01314C21.5876 4.02057 21.6274 4.03041 21.6587 4.04056C21.6741 4.04553 21.6896 4.0513 21.704 4.0579C21.7109 4.06105 21.7206 4.0658 21.7311 4.07219C21.7363 4.07535 21.7444 4.08049 21.7534 4.08762C21.7598 4.09275 21.7791 4.10831 21.7963 4.13417C21.8572 4.22546 21.8325 4.3488 21.7412 4.40966C21.6771 4.4524 21.5972 4.45295 21.5342 4.41786C21.5239 4.41467 21.5053 4.40981 21.4786 4.40561C21.4514 4.40133 21.4167 4.39787 21.3752 4.39737C21.452 4.43596 21.5172 4.47892 21.5721 4.52375C21.6628 4.59778 21.7223 4.67431 21.7598 4.7386C21.7784 4.77045 21.7921 4.8002 21.8015 4.82619C21.8061 4.83885 21.8105 4.85297 21.8137 4.86764C21.8152 4.87465 21.8173 4.88519 21.8184 4.89767L21.8184 4.89805C21.8189 4.9026 21.8231 4.94158 21.8074 4.98543C21.7703 5.08869 21.6566 5.14233 21.5533 5.10525C21.4845 5.08056 21.4378 5.02187 21.4252 4.95492C21.4234 4.95107 21.4206 4.94561 21.4166 4.93879C21.4022 4.91403 21.3733 4.87437 21.3208 4.83154C21.2214 4.7504 21.024 4.64734 20.65 4.62926ZM3.42011 4.80968C3.43818 4.80912 3.45562 4.80616 3.47212 4.80112C3.55884 4.86362 3.64972 4.9376 3.74421 5.02506C3.82472 5.0996 3.95041 5.09475 4.02494 5.01424C4.09947 4.93372 4.09462 4.80804 4.01411 4.73351C3.54935 4.30327 3.13349 4.13831 2.81771 4.09096C2.661 4.06746 2.5317 4.07337 2.43671 4.08831C2.38947 4.09574 2.34965 4.10558 2.31835 4.11572C2.30302 4.12069 2.28751 4.12646 2.27308 4.13306C2.26618 4.13621 2.25645 4.14096 2.24593 4.14735C2.24073 4.15051 2.23271 4.15565 2.22371 4.16278C2.21724 4.16791 2.19798 4.18348 2.18074 4.20934C2.11988 4.30063 2.14455 4.42397 2.23584 4.48483C2.29995 4.52756 2.37987 4.52812 2.44286 4.49304C2.45311 4.48985 2.47177 4.48499 2.49845 4.4808C2.55497 4.4719 2.64356 4.4666 2.75879 4.48388C2.78698 4.4881 2.81694 4.49371 2.84858 4.50101C2.68165 4.55459 2.55431 4.62734 2.45819 4.70581C2.36751 4.77985 2.30793 4.8564 2.27044 4.92069C2.25186 4.95254 2.23817 4.9823 2.22879 5.00828C2.22422 5.02094 2.21982 5.03506 2.21659 5.04973C2.21504 5.05674 2.213 5.06727 2.21188 5.07975L2.21184 5.08012C2.21134 5.08467 2.20712 5.12363 2.22285 5.16748C2.25991 5.27074 2.37366 5.32442 2.47693 5.28737C2.54571 5.26269 2.59249 5.20398 2.60511 5.13701C2.6069 5.13316 2.60965 5.12769 2.61364 5.12086C2.62809 5.09608 2.65699 5.05641 2.70946 5.01357C2.81233 4.92959 3.02017 4.82211 3.42011 4.80968Z" fill="#384E54"/>
</svg>
