<svg width="24" height="25" viewBox="0 0 24 25" fill="none" xmlns="http://www.w3.org/2000/svg">
<path d="M3.90259 21.0066C3.92108 21.214 4.0662 21.3883 4.26687 21.444L11.8533 23.55C11.9408 23.5743 12.0332 23.5743 12.1207 23.5501L19.7281 21.4411C19.9288 21.3854 20.074 21.2112 20.0925 21.0037L21.7849 2.04446C21.7974 1.90467 21.7506 1.76608 21.6559 1.66253C21.5611 1.55898 21.4273 1.5 21.2869 1.5H2.71C2.56967 1.5 2.4358 1.55897 2.34108 1.66251C2.24636 1.76605 2.19951 1.90463 2.21197 2.0444L3.90259 21.0066Z" fill="#E44D26" stroke="white" stroke-linejoin="round"/>
<path d="M11.9985 21.4562L18.1456 19.7519L19.5919 3.55042H11.9985V21.4562Z" fill="#F16529"/>
<path d="M11.9984 10.5832H8.92101L8.70848 8.20176H11.9984V5.8761H11.9904H6.16685L6.22252 6.50003L6.79411 12.9089H11.9984V10.5832Z" fill="#EBEBEB"/>
<path d="M11.9985 16.6232L11.9883 16.6259L9.39821 15.9265L9.23264 14.0717H7.97406H6.89806L7.22388 17.7233L11.9878 19.0458L11.9985 19.0428V16.6232Z" fill="#EBEBEB"/>
<path d="M11.9904 10.5833V12.9089H14.8542L14.5842 15.925L11.9904 16.6251V19.0447L16.7581 17.7233L16.7931 17.3304L17.3396 11.2078L17.3963 10.5833H16.7696H11.9904Z" fill="white"/>
<path d="M11.9904 5.8761V7.32053V8.19608V8.20176H17.6005H17.6079L17.6546 7.67902L17.7606 6.50003L17.8162 5.8761H11.9904Z" fill="white"/>
</svg>
