<svg width="24" height="24" viewBox="0 0 24 24" fill="none" xmlns="http://www.w3.org/2000/svg">
<path d="M20 1.5H4C2.61929 1.5 1.5 2.61929 1.5 4V20C1.5 21.3807 2.61929 22.5 4 22.5H20C21.3807 22.5 22.5 21.3807 22.5 20V4C22.5 2.61929 21.3807 1.5 20 1.5Z" fill="#F7DF1E" stroke="white"/>
<path d="M14.7289 16.8882C15.1594 17.5911 15.7195 18.1077 16.71 18.1077C17.5421 18.1077 18.0737 17.6918 18.0737 17.1172C18.0737 16.4286 17.5275 16.1847 16.6116 15.784L16.1096 15.5686C14.6604 14.9512 13.6977 14.1778 13.6977 12.5428C13.6977 11.0366 14.8453 9.89001 16.6388 9.89001C17.9156 9.89001 18.8335 10.3344 19.495 11.4979L17.9312 12.502C17.5869 11.8847 17.2154 11.6414 16.6388 11.6414C16.0505 11.6414 15.6777 12.0146 15.6777 12.502C15.6777 13.1045 16.0509 13.3484 16.9125 13.7216L17.4146 13.9366C19.1209 14.6683 20.0843 15.4143 20.0843 17.0914C20.0843 18.8995 18.6639 19.89 16.7565 19.89C14.8914 19.89 13.6865 19.0012 13.0969 17.8363L14.7289 16.8882ZM7.63472 17.0622C7.9502 17.622 8.23719 18.0952 8.92717 18.0952C9.58696 18.0952 10.0032 17.837 10.0032 16.8333V10.0047H12.0114V16.8604C12.0114 18.9398 10.7922 19.8863 9.01265 19.8863C7.40473 19.8863 6.47356 19.0542 6 18.0519L7.63472 17.0622Z" fill="black"/>
</svg>
