<svg width="24" height="24" viewBox="0 0 24 24" fill="none" xmlns="http://www.w3.org/2000/svg">
<path d="M14.2002 1.30538C14.7979 3.65923 13.1919 4.91669 11.6224 6.14565C11.5903 6.17078 11.5582 6.19589 11.5262 6.221L11.526 6.22109C10.7767 6.80838 10.0462 7.39414 9.57938 8.09513C8.7645 9.31863 9.6087 10.6166 11.0501 12.0476C11.3328 12.3282 11.6384 12.614 11.959 12.9053C12.0034 12.9457 12.0481 12.9862 12.0931 13.0268C12.0681 12.9701 12.0411 12.9137 12.0125 12.8575C11.8368 12.512 11.5989 12.1733 11.3586 11.831C10.7028 10.897 10.0281 9.93627 10.5444 8.73786C10.7373 8.2901 11.0965 7.80912 11.685 7.28402C11.8108 7.17174 11.9472 7.05744 12.0946 6.94101C12.1258 6.91634 12.1567 6.89173 12.1873 6.86718C12.5893 6.54441 12.9328 6.23248 13.2253 5.93227C15.9895 3.0953 14.2002 1.30538 14.2002 1.30538Z" fill="white"/>
<path d="M16.8768 5.66925C16.8768 5.66925 15.3139 6.05959 13.978 6.877C13.5373 7.1467 13.1212 7.4629 12.7942 7.8269L12.7941 7.82704C12.714 7.91613 12.6394 8.00807 12.5709 8.1029C12.332 8.43413 12.1695 8.80052 12.1238 9.20292C12.0475 9.87428 12.296 10.6458 13.0559 11.5214C13.1387 11.6167 13.2064 11.7112 13.2609 11.8045C13.5402 12.2818 13.4748 12.7262 13.3171 13.0718C13.3164 13.0733 13.3157 13.0748 13.315 13.0763C13.3149 13.0765 13.3148 13.0767 13.3147 13.0769C13.3141 13.0783 13.3134 13.0797 13.3128 13.0811L13.3122 13.0823C13.3046 13.0988 13.2967 13.115 13.2887 13.1311C13.1875 13.3325 13.0581 13.4965 12.9558 13.6087C12.8581 13.7158 12.7851 13.7757 12.7851 13.7757C12.7851 13.7757 12.9086 13.712 13.0895 13.5948C13.1184 13.5761 13.1488 13.5561 13.1804 13.5347C13.2312 13.5003 13.285 13.4625 13.3408 13.4215L13.3413 13.4211C13.4908 13.3113 13.6544 13.1782 13.8108 13.0253C14.1766 12.6679 14.5027 12.2021 14.5155 11.671C14.5226 11.3761 14.4331 11.061 14.2002 10.7332C14.1519 10.6654 14.1042 10.5991 14.0574 10.5341C13.7149 10.0583 13.4205 9.64936 13.3373 9.22317C13.167 8.35106 13.8811 7.40665 16.8768 5.66925Z" fill="white"/>
<path d="M6.36343 14.5655C5.83213 14.3886 5.71333 14.1569 6.2367 13.8864C6.25326 13.8779 6.27047 13.8693 6.28832 13.8606C6.49382 13.7613 6.69507 13.6742 6.89047 13.5979C6.96238 13.5698 7.03349 13.5432 7.10373 13.5179C7.53269 13.3638 7.92924 13.2611 8.27548 13.1931C8.32838 13.1827 8.3801 13.1731 8.43059 13.1643L8.43099 13.1642C8.4672 13.1579 8.50276 13.1519 8.53766 13.1463C9.22092 13.0368 9.65098 13.0658 9.65098 13.0658C9.65098 13.0658 9.44695 13.1143 9.16264 13.193C8.95501 13.2505 8.70457 13.3241 8.4595 13.4068C8.43814 13.4141 8.41683 13.4213 8.39558 13.4287L8.39526 13.4288C8.21055 13.4926 8.03134 13.5613 7.87861 13.6318C7.32247 13.8883 7.11741 14.1683 8.27584 14.323C8.31761 14.3286 8.36102 14.334 8.406 14.339C8.4587 14.3449 8.51355 14.3505 8.57042 14.3557L8.58029 14.3566C8.77883 14.3745 9.00181 14.388 9.24427 14.3973C9.2648 14.398 9.28548 14.3988 9.30629 14.3995C10.0037 14.4238 10.8545 14.4142 11.7452 14.3746C12.1764 14.3554 12.617 14.3292 13.054 14.2964C13.1037 14.2927 13.1535 14.2889 13.2031 14.285C13.273 14.2795 13.3427 14.2738 13.4123 14.268C13.6149 14.2509 13.8176 14.2314 14.0171 14.2103C14.1201 14.1995 14.2223 14.1882 14.3232 14.1766C14.7208 14.131 15.0985 14.0809 15.4289 14.0337C15.4747 14.0272 15.5197 14.0207 15.5636 14.0143C15.735 13.9893 15.8915 13.9655 16.0287 13.944C16.4023 13.8854 16.633 13.8442 16.633 13.8442C16.633 13.8442 16.4078 13.9406 16.1386 14.082C15.9808 14.165 15.8079 14.2633 15.6563 14.3668C15.0121 14.5362 14.2699 14.6651 13.4884 14.7575L13.4539 14.7616L13.4536 14.7616C13.4037 14.7674 13.3536 14.7731 13.3033 14.7787L13.3029 14.7787C12.9705 14.8153 12.6318 14.8455 12.2915 14.8695C11.4543 14.9286 10.6066 14.9506 9.81411 14.9402C9.37142 14.9343 8.94597 14.9183 8.54925 14.893C8.46214 14.8874 8.37642 14.8814 8.29221 14.875C8.2623 14.8727 8.23259 14.8703 8.20308 14.8679L8.20289 14.8679C8.03157 14.854 7.86682 14.8382 7.70973 14.8205C7.5964 14.8079 7.48705 14.7942 7.38208 14.7797C7.32835 14.7723 7.27576 14.7646 7.22437 14.7567C7.13733 14.7433 7.05373 14.7292 6.97384 14.7145C6.86583 14.6946 6.7646 14.6735 6.67078 14.6513L6.67049 14.6512C6.55688 14.6243 6.45414 14.5957 6.36343 14.5655Z" fill="white"/>
<path d="M17.4434 12.9764C17.4165 12.9849 17.3895 12.9939 17.3625 13.0034C17.1377 13.0832 17.02 13.2676 17.02 13.2676C17.02 13.2676 17.1429 13.2179 17.4167 13.1577L17.4172 13.1576C17.4267 13.1555 17.4365 13.1534 17.4463 13.1512L17.4469 13.1511C17.4572 13.1489 17.4677 13.1467 17.4784 13.1445C17.5168 13.1365 17.5557 13.1305 17.5949 13.1264C18.7909 13.0025 20.2897 14.687 17.3264 16.5548C17.2246 16.6189 17.1176 16.6832 17.0052 16.7477C16.8823 16.8182 16.753 16.8888 16.6169 16.9595C16.5984 17.0091 16.5364 17.0645 16.5364 17.0645C16.5763 17.054 16.6158 17.0434 16.6549 17.0327C16.6853 17.0243 16.7153 17.016 16.7452 17.0075C16.818 16.9869 16.8893 16.9658 16.9593 16.9444C17.1585 16.8833 17.3463 16.819 17.5229 16.752C21.567 15.2181 19.7976 12.2448 17.4573 12.972C17.4527 12.9735 17.448 12.9749 17.4434 12.9764Z" fill="white"/>
<path d="M17.1045 14.9477L17.1054 14.9473L17.1055 14.9472L17.1057 14.9472L17.1059 14.9471L17.1061 14.947L17.1063 14.9469C17.3976 14.8219 17.6161 14.5936 17.7341 14.3211C17.7508 14.3232 17.7825 14.3298 17.8194 14.3528C17.8365 14.3634 17.8464 14.3722 17.852 14.3781C17.8477 14.4168 17.8206 14.5254 17.6766 14.711C17.4943 14.9458 17.1521 15.2619 16.5502 15.6234C16.4513 15.5471 16.3393 15.4855 16.2168 15.4423C16.2113 15.4404 16.2058 15.4384 16.2004 15.4364C16.2462 15.4131 16.2905 15.3869 16.333 15.3578C16.4707 15.2638 16.6579 15.1617 16.8315 15.0756C16.914 15.0347 16.9855 15.0013 17.0356 14.9785C17.0604 14.9672 17.0796 14.9586 17.0918 14.9533L17.1013 14.9491L17.1045 14.9477Z" fill="white"/>
<path d="M8.74722 15.4895C8.67827 15.5124 8.61267 15.5353 8.55036 15.5583C8.12476 15.7153 7.85271 15.874 7.71253 16.0279C7.41997 16.3491 7.70187 16.6491 8.36125 16.8678C8.40038 16.8807 8.44084 16.8934 8.48258 16.9058C8.57099 16.9321 8.66517 16.957 8.76474 16.9804C8.85164 17.0009 8.94265 17.0202 9.03751 17.0384C9.07531 17.0456 9.11372 17.0526 9.15272 17.0595L9.15292 17.0595C9.48661 17.1181 9.86377 17.1625 10.2741 17.1895C11.394 17.2632 12.761 17.2076 14.1657 16.9586C14.4692 16.9048 14.7744 16.8419 15.0793 16.7694C15.1849 16.7443 15.2905 16.718 15.396 16.6906C15.4931 16.6653 15.59 16.639 15.6868 16.6117C15.7305 16.5993 15.7742 16.5868 15.8178 16.574C15.7145 16.5376 15.6184 16.4954 15.5306 16.4509L15.5301 16.4507C15.5237 16.4475 15.5174 16.4442 15.5111 16.441C15.1536 16.2561 14.9384 16.038 14.9384 16.038C12.6316 16.4822 11.2336 16.4984 9.58687 16.3469L9.54967 16.3435C9.48904 16.3378 9.42806 16.3319 9.36668 16.3258L9.36629 16.3258C9.3211 16.3213 9.27569 16.3167 9.23004 16.312C9.14925 16.3037 9.07618 16.2935 9.01021 16.2818C8.92829 16.2673 8.85732 16.2504 8.79611 16.2316C8.66977 16.1928 8.58499 16.1456 8.53129 16.0942C8.39107 15.9599 8.46277 15.7962 8.55972 15.673C8.5624 15.6696 8.5651 15.6662 8.56781 15.6629C8.59755 15.6262 8.62913 15.5935 8.65737 15.5666C8.70757 15.5188 8.74722 15.4895 8.74722 15.4895Z" fill="white"/>
<path d="M14.6299 17.3148C14.6829 17.3492 14.7398 17.3844 14.8007 17.4197C14.7389 17.5184 14.6388 17.6781 14.4769 17.9362C14.39 17.9662 14.3028 17.9945 14.2152 18.0212C12.842 18.4401 11.4056 18.4637 10.3626 18.2985C10.4534 18.0849 10.482 17.846 10.4387 17.6114C11.5583 17.667 12.6679 17.623 14.0981 17.4024C14.2705 17.3758 14.4476 17.3466 14.6299 17.3148Z" fill="white"/>
<path d="M14.4396 19.2064C14.7764 19.1089 15.1112 18.991 15.4392 18.8505L9.39265 18.3094C9.29808 18.2971 9.20564 18.2838 9.11549 18.2697C8.83928 18.0724 9.25834 17.8287 9.25834 17.8287C8.90954 17.9262 8.65734 18.0346 8.49015 18.1486C8.33451 18.2546 8.25255 18.3654 8.23493 18.4764C8.2284 18.5175 8.2307 18.5587 8.24135 18.5996C8.28309 18.76 8.45311 18.9174 8.72285 19.0579C8.97801 19.1908 9.32239 19.3087 9.73184 19.3997L9.73265 19.3999C10.7838 19.6336 12.2635 19.691 13.763 19.375C13.9886 19.3275 14.2145 19.2715 14.4396 19.2064Z" fill="white"/>
<path fill-rule="evenodd" clip-rule="evenodd" d="M17.4469 13.1511L17.4463 13.1512C17.4365 13.1534 17.4267 13.1555 17.4172 13.1576C17.4269 13.1554 17.4368 13.1533 17.4469 13.1511Z" fill="white"/>
<path d="M7.38518 19.5051C7.27258 19.5135 7.11927 19.5317 6.93019 19.57C6.91057 19.574 6.89056 19.5782 6.87017 19.5826C6.79023 19.5997 6.67931 19.6284 6.55525 19.6658C6.38584 19.7169 6.19191 19.7842 6.01884 19.8607L6.01867 19.8608C5.89614 19.915 5.78407 19.9739 5.69857 20.0349C5.49588 20.1794 5.44255 20.3359 5.7532 20.471C5.9286 20.5474 6.14172 20.6159 6.38648 20.677C6.46162 20.6957 6.53974 20.7137 6.62067 20.7311C6.72923 20.7544 6.84284 20.7764 6.96107 20.7972C9.20987 21.1928 13.1321 21.1461 15.8098 20.8293C16.0668 20.7989 16.3124 20.766 16.5439 20.7308L16.544 20.7307C17.0392 20.6554 17.4701 20.5693 17.8115 20.4741C17.8206 20.4715 17.8296 20.469 17.8386 20.4664L17.8403 20.466C17.8673 20.4583 17.8937 20.4505 17.9195 20.4427L17.9223 20.4419C18.0454 20.4045 18.151 20.3661 18.2411 20.3272C18.3621 20.275 18.4553 20.2219 18.5264 20.1692C18.9486 19.8563 18.5877 19.5589 18.5877 19.5589C18.8272 19.667 18.9585 19.7868 18.9914 19.9129C18.9924 19.9169 18.9934 19.9209 18.9942 19.9249L18.9944 19.9255C19.015 20.0246 18.9754 20.1274 18.8804 20.2313L18.879 20.2327C18.7424 20.3812 18.4924 20.5318 18.1428 20.6766L18.1404 20.6776C18.0982 20.695 18.0546 20.7124 18.0096 20.7296L18.0094 20.7297C17.6381 20.872 17.17 21.0077 16.6189 21.129C16.4898 21.1574 16.3561 21.1851 16.218 21.2118C14.6579 21.5142 12.5373 21.7035 10.1069 21.6372L10.1068 21.6372C9.26371 21.6142 8.38334 21.5604 7.47614 21.4699L7.47052 21.4693L7.4704 21.4693C7.35518 21.4578 7.23953 21.4457 7.12347 21.433C6.77689 21.395 6.42666 21.3517 6.07332 21.3027C5.86084 21.2732 5.64724 21.2416 5.43265 21.2079L5.43249 21.2079C5.37318 21.1986 5.31379 21.1891 5.25432 21.1794C5.23389 21.1761 5.2138 21.1728 5.19403 21.1693L5.19319 21.1692C4.92556 21.1229 4.71808 21.0669 4.56274 21.0037C4.11011 20.8195 4.10029 20.5743 4.33545 20.3303C4.48174 20.1785 4.72284 20.0272 5.01112 19.8914L5.01174 19.8911C5.35995 19.727 5.7769 19.5855 6.1787 19.493L6.17895 19.4929C6.24057 19.4787 6.30184 19.4657 6.36244 19.4539C6.38336 19.4498 6.4042 19.4459 6.42494 19.4421C6.56467 19.4167 6.70028 19.3982 6.82795 19.3879L6.82835 19.3878C7.00572 19.3734 7.16777 19.3747 7.30432 19.3948C7.42922 19.4132 7.53277 19.4474 7.60718 19.4998C7.60718 19.4998 7.52971 19.4944 7.38518 19.5051Z" fill="white"/>
<path fill-rule="evenodd" clip-rule="evenodd" d="M11.6224 6.14565C13.1919 4.91669 14.7979 3.65923 14.2002 1.30538L15.0488 0.45699C14.6669 0.0749208 14.0767 -0.00482322 13.6071 0.262178C13.1374 0.529179 12.9041 1.07709 13.0371 1.60071C13.2443 2.41672 13.078 2.96771 12.7345 3.46845C12.3354 4.05003 11.7021 4.55912 10.8826 5.20083L10.8119 5.25613C10.081 5.82795 9.17588 6.5361 8.5806 7.42997C8.18788 8.01963 8.01791 8.66678 8.07061 9.33462C8.12112 9.97478 8.36952 10.5565 8.67945 11.0633C8.84457 11.3332 9.03987 11.6016 9.257 11.8677C9.05649 11.876 8.79886 11.8959 8.49608 11.939C7.78773 12.0398 6.82407 12.2688 5.76607 12.7802L5.76578 12.7804C5.5764 12.872 5.34947 13.0016 5.15501 13.1895C4.96505 13.373 4.67162 13.7491 4.70123 14.2945C4.73052 14.8339 5.05654 15.1714 5.25019 15.3266C5.45179 15.4881 5.67352 15.589 5.84483 15.6544C6.02496 15.723 6.23362 15.7828 6.46365 15.8346C6.37474 16.1062 6.35751 16.4248 6.48459 16.7789C6.64833 17.2353 6.99251 17.5203 7.27911 17.6931C7.21945 17.7857 7.16617 17.8889 7.12406 18.0035C7.10278 18.0614 7.08528 18.1197 7.07144 18.1783C6.79054 18.1768 6.50192 18.2095 6.23175 18.2576C5.62289 18.366 4.95321 18.5808 4.40883 18.8496C4.13997 18.9824 3.85008 19.1535 3.60691 19.3681C3.40861 19.5432 3.00558 19.9518 2.98422 20.5783C2.95827 21.3399 3.4847 21.7872 3.83649 21.9842C4.18899 22.1816 4.6211 22.2924 5.06231 22.364C5.34813 22.4103 5.63238 22.453 5.91479 22.4921C5.99083 22.6768 6.11347 22.8439 6.27802 22.9745C6.59034 23.2227 7.41541 23.6378 9.9681 23.8015L9.96823 23.8015C11.9516 23.9285 14.4786 23.8956 16.5592 23.5875C17.5894 23.4349 18.5897 23.2039 19.3735 22.8477C20.0775 22.5276 21.0485 21.8984 21.1376 20.7386C21.1832 20.1458 20.7877 19.6089 20.2079 19.4767C20.1745 19.4691 20.1411 19.463 20.1077 19.4583C19.8885 18.8732 19.3352 18.5797 19.0811 18.465C18.5329 18.2178 17.8864 18.4144 17.5687 18.9251C17.4875 19.0557 17.4342 19.1966 17.4076 19.3403C17.1414 19.4101 16.8088 19.4756 16.4245 19.5354C16.5652 19.3329 16.6434 19.0875 16.639 18.8301C16.6313 18.3799 16.3729 17.9754 15.9755 17.777C15.988 17.7735 16.0005 17.77 16.013 17.7665C17.1266 18.4353 18.9557 17.7098 20.1232 16.5674C20.8656 15.841 21.2436 14.9253 21.1035 13.9908C20.8197 12.099 18.7557 11.2416 16.9645 11.8714L16.961 11.8726C16.6391 11.9869 16.4101 12.1689 16.2693 12.3062C16.1967 12.3769 16.1398 12.4433 16.0979 12.4967C16.0768 12.5236 16.0589 12.548 16.0441 12.569C16.0367 12.5795 16.03 12.5892 16.0241 12.5981L16.0204 12.6036L16.0158 12.6107L16.012 12.6165L16.0102 12.6193L16.0089 12.6213C16.0088 12.6215 16.0087 12.6216 16.1463 12.7097L16.146 12.7097L16.0085 12.622C15.9834 12.6613 15.9608 12.7017 15.9407 12.743C15.8009 12.7652 15.6354 12.7908 15.4504 12.8181L15.4365 12.8201C15.5325 12.6213 15.6113 12.4037 15.6606 12.1681C15.8088 11.4602 15.6628 10.7199 15.1784 10.0382L15.1779 10.0375C15.1278 9.96696 15.0784 9.89838 15.0321 9.83406L15.0313 9.83293C14.7458 9.43645 14.6082 9.23395 14.5397 9.06802C14.5063 8.98738 14.5126 8.97811 14.5184 8.96958C14.5194 8.96798 14.5205 8.96642 14.5213 8.96442C14.5531 8.88287 14.6867 8.64812 15.178 8.23721C15.6569 7.83663 16.389 7.33938 17.4788 6.7073C17.996 6.40736 18.2135 5.77247 17.9889 5.21841C17.7642 4.66435 17.166 4.36014 16.586 4.50501L16.8768 5.66925C13.8811 7.40665 13.167 8.35106 13.3373 9.22317C13.4205 9.64936 13.7149 10.0583 14.0574 10.5341C14.1042 10.5991 14.1519 10.6654 14.2002 10.7332C14.4331 11.061 14.5226 11.3761 14.5155 11.671C14.5027 12.2021 14.1766 12.6679 13.8108 13.0253C13.6544 13.1782 13.4908 13.3113 13.3413 13.4211L13.3408 13.4215C13.285 13.4625 13.2312 13.5003 13.1804 13.5347C13.1488 13.5561 13.1184 13.5761 13.0895 13.5948C12.9086 13.712 12.7851 13.7757 12.7851 13.7757C12.7851 13.7757 12.8581 13.7158 12.9558 13.6087C13.0581 13.4965 13.1875 13.3325 13.2887 13.1311C13.2967 13.115 13.3046 13.0988 13.3122 13.0823L13.3128 13.0811L13.3147 13.0769L13.315 13.0763L13.3171 13.0718C13.4748 12.7262 13.5402 12.2818 13.2609 11.8045C13.2064 11.7112 13.1387 11.6167 13.0559 11.5214C12.296 10.6458 12.0475 9.87428 12.1238 9.20292C12.1695 8.80052 12.332 8.43413 12.5709 8.1029C12.6394 8.00807 12.714 7.91613 12.7941 7.82704L12.7942 7.8269C13.1212 7.4629 13.5373 7.1467 13.978 6.877C15.3139 6.05959 16.8768 5.66925 16.8768 5.66925C16.586 4.50501 16.5856 4.50511 16.5852 4.50521L16.5818 4.50607L16.5749 4.50782C16.5694 4.50922 16.5622 4.51108 16.5532 4.51341C16.5354 4.51805 16.5108 4.52456 16.4801 4.53295C16.4185 4.5497 16.3321 4.57401 16.2253 4.60598C16.0361 4.6626 15.7809 4.74387 15.4856 4.8506C15.8345 4.13877 15.9786 3.46039 15.9693 2.82514C15.9589 2.10558 15.7492 1.53361 15.5365 1.13774C15.4305 0.940377 15.3226 0.784627 15.2354 0.672163C15.1917 0.615728 15.1526 0.569534 15.1208 0.533776C15.1049 0.515875 15.0907 0.500518 15.0786 0.487732C15.0726 0.481336 15.0671 0.475575 15.0621 0.470453C15.0596 0.467891 15.0572 0.465489 15.055 0.463245L15.0518 0.459999L15.0503 0.458465C15.0496 0.457723 15.0488 0.45699 14.2002 1.30538C14.2002 1.30538 15.9895 3.0953 13.2253 5.93227C12.9328 6.23248 12.5893 6.54441 12.1873 6.86718C12.1567 6.89173 12.1258 6.91634 12.0946 6.94101C11.9472 7.05744 11.8108 7.17174 11.685 7.28402C11.0965 7.80912 10.7373 8.2901 10.5444 8.73786C10.0281 9.93627 10.7028 10.897 11.3586 11.831C11.5989 12.1733 11.8368 12.512 12.0125 12.8575C12.0411 12.9137 12.0681 12.9701 12.0931 13.0268C12.0481 12.9862 12.0034 12.9457 11.959 12.9053C11.6384 12.614 11.3328 12.3282 11.0501 12.0476C9.6087 10.6166 8.7645 9.31863 9.57938 8.09513C10.0462 7.39414 10.7767 6.80838 11.526 6.22109L11.5262 6.221C11.5582 6.19589 11.5903 6.17078 11.6224 6.14565ZM6.2367 13.8864C5.71333 14.1569 5.83213 14.3886 6.36343 14.5655C6.45414 14.5957 6.55688 14.6243 6.67049 14.6512L6.67078 14.6513C6.7646 14.6735 6.86583 14.6946 6.97384 14.7145C7.05373 14.7292 7.13733 14.7433 7.22437 14.7567C7.27576 14.7646 7.32835 14.7723 7.38208 14.7797C7.48705 14.7942 7.5964 14.8079 7.70973 14.8205C7.86682 14.8382 8.03157 14.854 8.20289 14.8679L8.20308 14.8679C8.23259 14.8703 8.2623 14.8727 8.29221 14.875C8.37642 14.8814 8.46214 14.8874 8.54925 14.893C8.94597 14.9183 9.37142 14.9343 9.81411 14.9402C10.6066 14.9506 11.4543 14.9286 12.2915 14.8695C12.6318 14.8455 12.9705 14.8153 13.3029 14.7787L13.3033 14.7787C13.3536 14.7731 13.4037 14.7674 13.4536 14.7616L13.4539 14.7616L13.4884 14.7575C14.2699 14.6651 15.0121 14.5362 15.6563 14.3668C15.8079 14.2633 15.9808 14.165 16.1386 14.082C16.4078 13.9406 16.633 13.8442 16.633 13.8442C16.633 13.8442 16.4023 13.8854 16.0287 13.944C15.8915 13.9655 15.735 13.9893 15.5636 14.0143C15.5197 14.0207 15.4747 14.0272 15.4289 14.0337C15.0985 14.0809 14.7208 14.131 14.3232 14.1766C14.2223 14.1882 14.1201 14.1995 14.0171 14.2103C13.8176 14.2314 13.6149 14.2509 13.4123 14.268C13.3427 14.2738 13.273 14.2795 13.2031 14.285C13.1535 14.2889 13.1037 14.2927 13.054 14.2964C12.617 14.3292 12.1764 14.3554 11.7452 14.3746C10.8545 14.4142 10.0037 14.4238 9.30629 14.3995C9.28548 14.3988 9.2648 14.398 9.24427 14.3973C9.00181 14.388 8.77883 14.3745 8.58029 14.3566L8.57042 14.3557C8.51355 14.3505 8.4587 14.3449 8.406 14.339C8.36102 14.334 8.31761 14.3286 8.27584 14.323C7.11741 14.1683 7.32247 13.8883 7.87861 13.6318C8.03134 13.5613 8.21055 13.4926 8.39526 13.4288L8.39558 13.4287C8.41683 13.4213 8.43814 13.4141 8.4595 13.4068C8.70457 13.3241 8.95501 13.2505 9.16264 13.193C9.44695 13.1143 9.65098 13.0658 9.65098 13.0658C9.65098 13.0658 9.22092 13.0368 8.53766 13.1463C8.50276 13.1519 8.4672 13.1579 8.43099 13.1642L8.43059 13.1643C8.3801 13.1731 8.32838 13.1827 8.27548 13.1931C7.92924 13.2611 7.53269 13.3638 7.10373 13.5179C7.03349 13.5432 6.96238 13.5698 6.89047 13.5979C6.69507 13.6742 6.49382 13.7613 6.28832 13.8606C6.27047 13.8693 6.25326 13.8779 6.2367 13.8864ZM17.3625 13.0034C17.3895 12.9939 17.4165 12.9849 17.4434 12.9764C17.448 12.9749 17.4527 12.9735 17.4573 12.972C19.7976 12.2448 21.567 15.2181 17.5229 16.752C17.3463 16.819 17.1585 16.8833 16.9593 16.9444C16.8893 16.9658 16.818 16.9869 16.7452 17.0075C16.7153 17.016 16.6853 17.0243 16.6549 17.0327C16.6158 17.0434 16.5763 17.054 16.5364 17.0645C16.5364 17.0645 16.5984 17.0091 16.6169 16.9595C16.753 16.8888 16.8823 16.8182 17.0052 16.7477C17.1176 16.6832 17.2246 16.6189 17.3264 16.5548C20.2897 14.687 18.7909 13.0025 17.5949 13.1264C17.5557 13.1305 17.5168 13.1365 17.4784 13.1445C17.4677 13.1467 17.4572 13.1489 17.4469 13.1511L17.4463 13.1512C17.4365 13.1534 17.4267 13.1555 17.4172 13.1576L17.4167 13.1577C17.1429 13.2179 17.02 13.2676 17.02 13.2676C17.02 13.2676 17.1377 13.0832 17.3625 13.0034ZM17.1054 14.9473L17.1045 14.9477L17.1013 14.9491L17.0918 14.9533C17.0796 14.9586 17.0604 14.9672 17.0356 14.9785C16.9855 15.0013 16.914 15.0347 16.8315 15.0756C16.6579 15.1617 16.4707 15.2638 16.333 15.3578C16.2905 15.3869 16.2462 15.4131 16.2004 15.4364C16.2058 15.4384 16.2113 15.4404 16.2168 15.4423C16.3393 15.4855 16.4513 15.5471 16.5502 15.6234C17.1521 15.2619 17.4943 14.9458 17.6766 14.711C17.8206 14.5254 17.8477 14.4168 17.852 14.3781C17.8464 14.3722 17.8365 14.3634 17.8194 14.3528C17.7825 14.3298 17.7508 14.3232 17.7341 14.3211C17.6161 14.5936 17.3976 14.8219 17.1063 14.9469L17.1061 14.947L17.1059 14.9471L17.1057 14.9472L17.1055 14.9472L17.1054 14.9473ZM17.8581 14.3866C17.8581 14.3866 17.8572 14.3856 17.8562 14.3832C17.8578 14.3853 17.8581 14.3866 17.8581 14.3866ZM17.8527 14.3688C17.852 14.3642 17.8523 14.3619 17.8523 14.3619C17.8523 14.3619 17.8528 14.3642 17.8527 14.3688ZM8.55036 15.5583C8.61267 15.5353 8.67827 15.5124 8.74722 15.4895C8.74722 15.4895 8.70757 15.5188 8.65737 15.5666C8.62913 15.5935 8.59755 15.6262 8.56781 15.6629C8.5651 15.6662 8.5624 15.6696 8.55972 15.673C8.46277 15.7962 8.39107 15.9599 8.53129 16.0942C8.58499 16.1456 8.66977 16.1928 8.79611 16.2316C8.85732 16.2504 8.92829 16.2673 9.01021 16.2818C9.07618 16.2935 9.14925 16.3037 9.23004 16.312C9.27569 16.3167 9.3211 16.3213 9.36629 16.3258L9.36668 16.3258C9.42806 16.3319 9.48904 16.3378 9.54967 16.3435L9.58687 16.3469C11.2336 16.4984 12.6316 16.4822 14.9384 16.038C14.9384 16.038 15.1536 16.2561 15.5111 16.441C15.5174 16.4442 15.5237 16.4475 15.5301 16.4507L15.5306 16.4509C15.6184 16.4954 15.7145 16.5376 15.8178 16.574C15.7742 16.5868 15.7305 16.5993 15.6868 16.6117C15.59 16.639 15.4931 16.6653 15.396 16.6906C15.2905 16.718 15.1849 16.7443 15.0793 16.7694C14.7744 16.8419 14.4692 16.9048 14.1657 16.9586C12.761 17.2076 11.394 17.2632 10.2741 17.1895C9.86377 17.1625 9.48661 17.1181 9.15292 17.0595L9.15272 17.0595C9.11372 17.0526 9.07531 17.0456 9.03751 17.0384C8.94265 17.0202 8.85164 17.0009 8.76474 16.9804C8.66517 16.957 8.57099 16.9321 8.48258 16.9058C8.44084 16.8934 8.40038 16.8807 8.36125 16.8678C7.70187 16.6491 7.41997 16.3491 7.71253 16.0279C7.85271 15.874 8.12476 15.7153 8.55036 15.5583ZM14.8007 17.4197C14.7398 17.3844 14.6829 17.3492 14.6299 17.3148C14.4476 17.3466 14.2705 17.3758 14.0981 17.4024C12.6679 17.623 11.5583 17.667 10.4387 17.6114C10.482 17.846 10.4534 18.0849 10.3626 18.2985C11.4056 18.4637 12.842 18.4401 14.2152 18.0212C14.3028 17.9945 14.39 17.9662 14.4769 17.9362C14.6388 17.6781 14.7389 17.5184 14.8007 17.4197ZM10.0793 17.5902C10.0333 17.5871 9.98719 17.5839 9.941 17.5805L9.86982 18.1995C9.97677 18.2261 10.0904 18.2505 10.2099 18.2724C10.2416 18.0582 10.2086 17.8163 10.0831 17.5967L10.0793 17.5902ZM9.94022 17.5804L9.8696 18.1995C9.86114 18.1974 9.85272 18.1952 9.84435 18.1931C9.64555 18.1425 9.49291 18.0897 9.38302 18.0431L9.25834 17.8287C9.25834 17.8287 8.83928 18.0724 9.11549 18.2697C9.20564 18.2838 9.29808 18.2971 9.39265 18.3094L15.4392 18.8505C15.1112 18.991 14.7764 19.1089 14.4396 19.2064C14.2145 19.2715 13.9886 19.3275 13.763 19.375C12.2635 19.691 10.7838 19.6336 9.73265 19.3999L9.73184 19.3997C9.32239 19.3087 8.97801 19.1908 8.72285 19.0579C8.45311 18.9174 8.28309 18.76 8.24135 18.5996C8.2307 18.5587 8.2284 18.5175 8.23493 18.4764C8.25255 18.3654 8.33451 18.2546 8.49015 18.1486C8.65734 18.0346 8.90954 17.9262 9.25834 17.8287L9.06805 17.5015C9.08097 17.503 9.09381 17.5043 9.10658 17.5056L9.10689 17.5057C9.12793 17.5078 9.14893 17.51 9.16988 17.5121C9.43207 17.5387 9.68762 17.5618 9.94022 17.5804ZM6.93019 19.57C7.11927 19.5317 7.27258 19.5135 7.38518 19.5051C7.52971 19.4944 7.60718 19.4998 7.60718 19.4998C7.53277 19.4474 7.42922 19.4132 7.30432 19.3948C7.16777 19.3747 7.00572 19.3734 6.82835 19.3878L6.82795 19.3879C6.70028 19.3982 6.56467 19.4167 6.42494 19.4421C6.4042 19.4459 6.38336 19.4498 6.36244 19.4539C6.30184 19.4657 6.24057 19.4787 6.17895 19.4929L6.1787 19.493C5.7769 19.5855 5.35995 19.727 5.01174 19.8911L5.01112 19.8914C4.72284 20.0272 4.48174 20.1785 4.33545 20.3303C4.10029 20.5743 4.11011 20.8195 4.56274 21.0037C4.71808 21.0669 4.92556 21.1229 5.19319 21.1692L5.19403 21.1693C5.2138 21.1728 5.23389 21.1761 5.25432 21.1794C5.31379 21.1891 5.37318 21.1986 5.43249 21.2079L5.43265 21.2079C5.64724 21.2416 5.86084 21.2732 6.07332 21.3027C6.42666 21.3517 6.77689 21.395 7.12347 21.433C7.23953 21.4457 7.35518 21.4578 7.4704 21.4693L7.47052 21.4693L7.47614 21.4699C8.38334 21.5604 9.26371 21.6142 10.1068 21.6372L10.1069 21.6372C12.5373 21.7035 14.6579 21.5142 16.218 21.2118C16.3561 21.1851 16.4898 21.1574 16.6189 21.129C17.17 21.0077 17.6381 20.872 18.0094 20.7297L18.0096 20.7296C18.0546 20.7124 18.0982 20.695 18.1404 20.6776L18.1428 20.6766C18.4924 20.5318 18.7424 20.3812 18.879 20.2327L18.8804 20.2313C18.9754 20.1274 19.015 20.0246 18.9944 19.9255L18.9942 19.9249C18.9934 19.9209 18.9924 19.9169 18.9914 19.9129C18.9585 19.7868 18.8272 19.667 18.5877 19.5589C18.5877 19.5589 18.9486 19.8563 18.5264 20.1692C18.4553 20.2219 18.3621 20.275 18.2411 20.3272C18.151 20.3661 18.0454 20.4045 17.9223 20.4419L17.9195 20.4427C17.8937 20.4505 17.8673 20.4583 17.8403 20.466L17.8386 20.4664C17.8296 20.469 17.8206 20.4715 17.8115 20.4741C17.4701 20.5693 17.0392 20.6554 16.544 20.7307L16.5439 20.7308C16.3124 20.766 16.0668 20.7989 15.8098 20.8293C13.1321 21.1461 9.20987 21.1928 6.96107 20.7972C6.84284 20.7764 6.72923 20.7544 6.62067 20.7311C6.53974 20.7137 6.46162 20.6957 6.38648 20.677C6.14172 20.6159 5.9286 20.5474 5.7532 20.471C5.44255 20.3359 5.49588 20.1794 5.69857 20.0349C5.78407 19.9739 5.89614 19.915 6.01867 19.8608L6.01884 19.8607C6.19191 19.7842 6.38584 19.7169 6.55525 19.6658C6.67931 19.6284 6.79023 19.5997 6.87017 19.5826C6.89056 19.5782 6.91057 19.574 6.93019 19.57ZM18.0231 19.3938C18.0231 19.3938 18.0226 19.3942 18.0215 19.3951C18.0225 19.3942 18.0231 19.3938 18.0231 19.3938ZM19.101 21.2288C18.8802 21.3258 18.6024 21.4288 18.2532 21.5329L18.2528 21.533C17.8552 21.6515 17.365 21.7713 16.7612 21.885C16.5029 21.9336 16.2399 21.9779 15.9733 22.0182C14.0416 22.3098 11.9226 22.3866 10.0633 22.3165C8.91666 22.2732 7.86871 22.174 7.02437 22.0348C7.03176 22.0407 7.53482 22.443 10.0449 22.604C11.981 22.7279 14.4388 22.6925 16.421 22.3948C16.5647 22.3732 16.7059 22.3503 16.8442 22.3259C18.4043 22.051 19.598 21.5956 19.8801 20.9036C19.9137 20.8214 19.9343 20.7357 19.9411 20.6467C19.9411 20.6467 19.8409 20.9038 19.101 21.2288Z" fill="white"/>
<path d="M18.2532 21.5329C18.6024 21.4288 18.8802 21.3258 19.101 21.2288C19.8409 20.9038 19.9411 20.6467 19.9411 20.6467C19.9343 20.7357 19.9137 20.8214 19.8801 20.9036C19.598 21.5956 18.4043 22.051 16.8442 22.3259C16.7059 22.3503 16.5647 22.3732 16.421 22.3948C14.4388 22.6925 11.981 22.7279 10.0449 22.604C7.53482 22.443 7.03176 22.0407 7.02437 22.0348C7.86871 22.174 8.91666 22.2732 10.0633 22.3165C11.9226 22.3866 14.0416 22.3098 15.9733 22.0182C16.2399 21.9779 16.5029 21.9336 16.7612 21.885C17.365 21.7713 17.8552 21.6515 18.2528 21.533L18.2532 21.5329Z" fill="white"/>
<path d="M9.8696 18.1995L9.94022 17.5804C9.68762 17.5618 9.43207 17.5387 9.16988 17.5121C9.14893 17.51 9.12793 17.5078 9.10689 17.5057L9.10658 17.5056C9.09381 17.5043 9.08097 17.503 9.06805 17.5015L9.25834 17.8287L9.38302 18.0431C9.49291 18.0897 9.64555 18.1425 9.84435 18.1931C9.85272 18.1952 9.86114 18.1974 9.8696 18.1995Z" fill="white"/>
<path d="M9.941 17.5805C9.98719 17.5839 10.0333 17.5871 10.0793 17.5902L10.0831 17.5967C10.2086 17.8163 10.2416 18.0582 10.2099 18.2724C10.0904 18.2505 9.97677 18.2261 9.86982 18.1995L9.941 17.5805Z" fill="white"/>
<path d="M9.25836 17.8287C9.25836 17.8287 8.44188 18.3035 9.83942 18.4642C11.5325 18.6573 12.3978 18.6296 14.2636 18.2765C14.2636 18.2765 14.7541 18.584 15.4392 18.8504C11.2566 20.643 5.97316 18.7466 9.25836 17.8287Z" fill="#5382A1"/>
<path d="M8.74724 15.4895C8.74724 15.4895 7.83148 16.1674 9.23006 16.312C11.0387 16.4986 12.4669 16.5139 14.9384 16.038C14.9384 16.038 15.2803 16.3845 15.8178 16.574C10.7608 18.0528 5.12821 16.6907 8.74724 15.4895Z" fill="#5382A1"/>
<path d="M13.0559 11.5214C14.0865 12.708 12.7851 13.7757 12.7851 13.7757C12.7851 13.7757 15.402 12.4248 14.2002 10.7332C13.0777 9.1556 12.217 8.37178 16.8768 5.66925C16.8768 5.66925 9.56242 7.49604 13.0559 11.5214Z" fill="#F8981D"/>
<path d="M18.5877 19.5589C18.5877 19.5589 19.1919 20.0568 17.9223 20.4419C15.508 21.1733 7.87394 21.3941 5.75322 20.4711C4.99087 20.1394 6.42049 19.6792 6.87019 19.5826C7.33918 19.4809 7.60719 19.4999 7.60719 19.4999C6.75939 18.9026 2.12733 20.6726 5.25434 21.1795C13.7821 22.5624 20.7997 20.5567 18.5877 19.5589Z" fill="#5382A1"/>
<path d="M9.651 13.0658C9.651 13.0658 5.76781 13.9881 8.27586 14.323C9.33484 14.4648 11.4459 14.4328 13.4123 14.268C15.0193 14.1324 16.633 13.8442 16.633 13.8442C16.633 13.8442 16.0663 14.0869 15.6563 14.3668C11.713 15.4039 4.09529 14.9214 6.28834 13.8606C8.14301 12.9641 9.651 13.0658 9.651 13.0658Z" fill="#5382A1"/>
<path d="M16.6169 16.9595C20.6255 14.8765 18.7721 12.8748 17.4785 13.1445C17.1614 13.2105 17.02 13.2676 17.02 13.2676C17.02 13.2676 17.1377 13.0832 17.3625 13.0034C19.9218 12.1037 21.89 15.6571 16.5364 17.0645C16.5364 17.0646 16.5984 17.0091 16.6169 16.9595Z" fill="#5382A1"/>
<path d="M14.2002 1.30536C14.2002 1.30536 16.4202 3.52611 12.0946 6.941C8.62592 9.68032 11.3036 11.2422 12.0932 13.0267C10.0684 11.1999 8.58256 9.59181 9.5794 8.09511C11.0425 5.89808 15.0959 4.83289 14.2002 1.30536Z" fill="#F8981D"/>
<path d="M10.0449 22.604C13.8926 22.8503 19.8012 22.4673 19.9412 20.6467C19.9412 20.6467 19.6722 21.3369 16.7612 21.885C13.4771 22.503 9.42665 22.4308 7.02427 22.0348C7.02433 22.0347 7.51607 22.4418 10.0449 22.604Z" fill="#5382A1"/>
</svg>
