<svg width="24" height="24" viewBox="0 0 24 24" fill="none" xmlns="http://www.w3.org/2000/svg">
<path d="M12 9.5L9.5 2H21.5L19 9L21.5 14L19 19H16L9 22H3.5V11L12 9.5Z" fill="white"/>
<mask id="path-2-outside-1_4781_23615" maskUnits="userSpaceOnUse" x="1" y="0" width="23" height="24" fill="black">
<rect fill="white" x="1" width="23" height="24"/>
<path d="M21.3988 11.8366C21.3974 11.2057 21.1873 10.5931 20.8013 10.0941C20.4153 9.5952 19.875 9.238 19.2648 9.07821L22.0033 1H8.42774L11.1735 9.10384C10.5802 9.2761 10.0588 9.63632 9.68771 10.1303C9.31665 10.6244 9.11598 11.2255 9.11588 11.8433C9.11588 12.7989 9.59365 13.6461 10.3248 14.1645C10.0381 14.5722 9.70681 14.9479 9.33107 15.3048C8.62407 15.9673 7.84019 16.477 6.99296 16.8145C6.2289 16.2985 5.89717 15.388 6.1965 14.5722C7.35709 14.2153 8.20965 13.1214 8.20965 11.8448C8.20837 11.0898 7.90787 10.366 7.37399 9.83214C6.84011 9.29826 6.11638 8.99776 5.36136 8.99648C4.60472 8.99751 3.87937 9.29853 3.34434 9.83356C2.80932 10.3686 2.50829 11.0939 2.50727 11.8506C2.50727 12.6277 2.82643 13.3415 3.33564 13.8511L3.20169 14.1249C2.77469 15.004 2.29062 15.9978 2.1059 17.1134C1.73644 19.3378 2.3414 21.1334 3.80036 22.1465C4.62245 22.7132 5.52674 23 6.50164 23C8.17725 23 9.878 22.1586 11.5212 21.3437C12.6934 20.7634 13.9038 20.159 15.0997 19.8659C15.5349 19.7576 15.9982 19.6938 16.4827 19.6241C17.4644 19.4791 18.477 19.3374 19.3876 18.8088C20.4515 18.1908 21.1778 17.1588 21.3882 15.9741C21.5478 15.063 21.3882 14.1461 20.9805 13.3434C21.2619 12.8903 21.4099 12.367 21.4075 11.8336L21.3988 11.8366ZM20.156 11.8366C20.156 12.7215 19.4306 13.442 18.5505 13.442C18.2703 13.4394 17.9957 13.3639 17.7535 13.2229C17.5113 13.082 17.31 12.8805 17.1693 12.6382C17.0285 12.3959 16.9533 12.1212 16.9508 11.841C16.9484 11.5608 17.0189 11.2848 17.1554 11.0401C17.2062 10.9511 17.27 10.8612 17.3343 10.7852C17.4007 10.7072 17.4755 10.6367 17.5573 10.5749L17.5635 10.5686C17.6143 10.5299 17.6719 10.4922 17.7294 10.454C17.7613 10.4347 17.7874 10.4153 17.8116 10.4032C17.8179 10.4032 17.8242 10.3969 17.831 10.3969C17.8566 10.3844 17.889 10.3713 17.9199 10.3582C17.9509 10.3452 17.9838 10.3326 18.0089 10.3196C18.0152 10.3196 18.0215 10.3133 18.0283 10.3133C18.0539 10.307 18.079 10.2939 18.1047 10.2876C18.111 10.2876 18.124 10.2814 18.1303 10.2814L18.2193 10.262H18.2256L18.3213 10.2427C18.3276 10.2427 18.3407 10.2427 18.3469 10.2364C18.3726 10.2364 18.3977 10.2301 18.4233 10.2301H18.4553C18.4872 10.2301 18.5191 10.2238 18.552 10.2238H18.6342C18.6577 10.2227 18.6813 10.2248 18.7043 10.2301H18.7169C18.7683 10.2354 18.8194 10.2439 18.8697 10.2557C19.2314 10.3333 19.5558 10.5323 19.7887 10.8197C20.0217 11.1071 20.1493 11.4656 20.1502 11.8356L20.156 11.8366ZM10.2049 2.27423H20.2261L17.9262 9.05887C17.8305 9.07821 17.7352 9.10964 17.6395 9.14107L15.2187 4.20856L12.7911 9.11061C12.6953 9.07869 12.5938 9.05983 12.4913 9.04049L10.2049 2.27423ZM14.7602 11.2824C14.6429 10.6942 14.3415 10.1587 13.8995 9.75329L15.2182 7.09021L16.5495 9.81035C16.1544 10.2054 15.8725 10.7088 15.753 11.2819L14.7602 11.2824ZM11.5686 10.2756L11.6576 10.2562H11.6769C11.7025 10.2499 11.7277 10.2499 11.7533 10.2436H11.779C11.8046 10.2436 11.8234 10.2374 11.8491 10.2374H12.0976C12.1233 10.2374 12.1421 10.2436 12.1615 10.2436C12.174 10.2436 12.1808 10.2436 12.1934 10.2499C12.219 10.2562 12.2379 10.2562 12.2635 10.2625C12.2698 10.2625 12.2761 10.2625 12.2891 10.2688L12.3781 10.2881C12.4067 10.2928 12.4346 10.3014 12.4608 10.3138C12.4671 10.3138 12.4734 10.32 12.4864 10.32C12.5058 10.3263 12.5309 10.3326 12.5503 10.3457C12.5565 10.3457 12.5628 10.352 12.5696 10.352C12.5952 10.3645 12.6204 10.3713 12.646 10.3839H12.6523C12.6818 10.395 12.7098 10.41 12.735 10.4284C12.7669 10.4409 12.793 10.4603 12.8172 10.4729C12.8235 10.4729 12.8235 10.4791 12.8298 10.4791C12.8554 10.4917 12.8743 10.5111 12.8999 10.5236L12.9062 10.5299C12.9811 10.5884 13.0532 10.6498 13.1228 10.7146L13.1291 10.7209C13.1954 10.7915 13.2553 10.8684 13.3075 10.9501C13.4785 11.2115 13.5693 11.517 13.5687 11.8293C13.5687 12.7142 12.8433 13.4348 11.9632 13.4348C11.5382 13.4322 11.1313 13.2623 10.8307 12.9617C10.5302 12.6612 10.3602 12.2543 10.3577 11.8293C10.3514 11.0846 10.8674 10.453 11.5681 10.2751L11.5686 10.2756ZM5.29994 10.2311C6.1849 10.2311 6.90543 10.9564 6.90543 11.8366C6.90289 12.2616 6.73293 12.6685 6.43239 12.969C6.13185 13.2695 5.72496 13.4395 5.29994 13.442C4.87493 13.4395 4.46804 13.2695 4.1675 12.969C3.86696 12.6685 3.69699 12.2616 3.69446 11.8366C3.69699 11.4115 3.86696 11.0046 4.1675 10.7041C4.46804 10.4036 4.87493 10.2336 5.29994 10.2311ZM20.1173 15.755C19.9723 16.5703 19.4742 17.2841 18.7343 17.7106C18.0399 18.112 17.1868 18.2392 16.2874 18.3668C15.797 18.4369 15.2806 18.5133 14.7883 18.6342C13.4633 18.9592 12.189 19.6014 10.9535 20.2078C9.37362 20.9912 7.88275 21.7311 6.50454 21.7311C5.77917 21.7311 5.14085 21.527 4.5296 21.1005C3.12093 20.1266 3.19105 18.3156 3.36127 17.3218C3.51408 16.3919 3.94157 15.519 4.34874 14.6844C4.37437 14.6336 4.39323 14.5886 4.41886 14.5378C4.562 14.5886 4.70901 14.6273 4.85892 14.6524C4.61713 16.0031 5.30478 17.3982 6.64817 18.0859L6.88996 18.213L7.15109 18.1173C8.26574 17.7222 9.29819 17.079 10.2093 16.2188C10.7127 15.7497 11.1576 15.2211 11.5343 14.6452C11.6779 14.6684 11.8239 14.679 11.9695 14.6771C12.6003 14.6757 13.2129 14.4656 13.7119 14.0796C14.2108 13.6936 14.568 13.1533 14.7278 12.5431H15.798C16.1172 13.7728 17.2313 14.6771 18.5563 14.6771C19.063 14.6772 19.5603 14.5407 19.996 14.282C20.1618 14.7598 20.2126 15.2569 20.1231 15.7536L20.1173 15.755Z"/>
</mask>
<path d="M21.3988 11.8366C21.3974 11.2057 21.1873 10.5931 20.8013 10.0941C20.4153 9.5952 19.875 9.238 19.2648 9.07821L22.0033 1H8.42774L11.1735 9.10384C10.5802 9.2761 10.0588 9.63632 9.68771 10.1303C9.31665 10.6244 9.11598 11.2255 9.11588 11.8433C9.11588 12.7989 9.59365 13.6461 10.3248 14.1645C10.0381 14.5722 9.70681 14.9479 9.33107 15.3048C8.62407 15.9673 7.84019 16.477 6.99296 16.8145C6.2289 16.2985 5.89717 15.388 6.1965 14.5722C7.35709 14.2153 8.20965 13.1214 8.20965 11.8448C8.20837 11.0898 7.90787 10.366 7.37399 9.83214C6.84011 9.29826 6.11638 8.99776 5.36136 8.99648C4.60472 8.99751 3.87937 9.29853 3.34434 9.83356C2.80932 10.3686 2.50829 11.0939 2.50727 11.8506C2.50727 12.6277 2.82643 13.3415 3.33564 13.8511L3.20169 14.1249C2.77469 15.004 2.29062 15.9978 2.1059 17.1134C1.73644 19.3378 2.3414 21.1334 3.80036 22.1465C4.62245 22.7132 5.52674 23 6.50164 23C8.17725 23 9.878 22.1586 11.5212 21.3437C12.6934 20.7634 13.9038 20.159 15.0997 19.8659C15.5349 19.7576 15.9982 19.6938 16.4827 19.6241C17.4644 19.4791 18.477 19.3374 19.3876 18.8088C20.4515 18.1908 21.1778 17.1588 21.3882 15.9741C21.5478 15.063 21.3882 14.1461 20.9805 13.3434C21.2619 12.8903 21.4099 12.367 21.4075 11.8336L21.3988 11.8366ZM20.156 11.8366C20.156 12.7215 19.4306 13.442 18.5505 13.442C18.2703 13.4394 17.9957 13.3639 17.7535 13.2229C17.5113 13.082 17.31 12.8805 17.1693 12.6382C17.0285 12.3959 16.9533 12.1212 16.9508 11.841C16.9484 11.5608 17.0189 11.2848 17.1554 11.0401C17.2062 10.9511 17.27 10.8612 17.3343 10.7852C17.4007 10.7072 17.4755 10.6367 17.5573 10.5749L17.5635 10.5686C17.6143 10.5299 17.6719 10.4922 17.7294 10.454C17.7613 10.4347 17.7874 10.4153 17.8116 10.4032C17.8179 10.4032 17.8242 10.3969 17.831 10.3969C17.8566 10.3844 17.889 10.3713 17.9199 10.3582C17.9509 10.3452 17.9838 10.3326 18.0089 10.3196C18.0152 10.3196 18.0215 10.3133 18.0283 10.3133C18.0539 10.307 18.079 10.2939 18.1047 10.2876C18.111 10.2876 18.124 10.2814 18.1303 10.2814L18.2193 10.262H18.2256L18.3213 10.2427C18.3276 10.2427 18.3407 10.2427 18.3469 10.2364C18.3726 10.2364 18.3977 10.2301 18.4233 10.2301H18.4553C18.4872 10.2301 18.5191 10.2238 18.552 10.2238H18.6342C18.6577 10.2227 18.6813 10.2248 18.7043 10.2301H18.7169C18.7683 10.2354 18.8194 10.2439 18.8697 10.2557C19.2314 10.3333 19.5558 10.5323 19.7887 10.8197C20.0217 11.1071 20.1493 11.4656 20.1502 11.8356L20.156 11.8366ZM10.2049 2.27423H20.2261L17.9262 9.05887C17.8305 9.07821 17.7352 9.10964 17.6395 9.14107L15.2187 4.20856L12.7911 9.11061C12.6953 9.07869 12.5938 9.05983 12.4913 9.04049L10.2049 2.27423ZM14.7602 11.2824C14.6429 10.6942 14.3415 10.1587 13.8995 9.75329L15.2182 7.09021L16.5495 9.81035C16.1544 10.2054 15.8725 10.7088 15.753 11.2819L14.7602 11.2824ZM11.5686 10.2756L11.6576 10.2562H11.6769C11.7025 10.2499 11.7277 10.2499 11.7533 10.2436H11.779C11.8046 10.2436 11.8234 10.2374 11.8491 10.2374H12.0976C12.1233 10.2374 12.1421 10.2436 12.1615 10.2436C12.174 10.2436 12.1808 10.2436 12.1934 10.2499C12.219 10.2562 12.2379 10.2562 12.2635 10.2625C12.2698 10.2625 12.2761 10.2625 12.2891 10.2688L12.3781 10.2881C12.4067 10.2928 12.4346 10.3014 12.4608 10.3138C12.4671 10.3138 12.4734 10.32 12.4864 10.32C12.5058 10.3263 12.5309 10.3326 12.5503 10.3457C12.5565 10.3457 12.5628 10.352 12.5696 10.352C12.5952 10.3645 12.6204 10.3713 12.646 10.3839H12.6523C12.6818 10.395 12.7098 10.41 12.735 10.4284C12.7669 10.4409 12.793 10.4603 12.8172 10.4729C12.8235 10.4729 12.8235 10.4791 12.8298 10.4791C12.8554 10.4917 12.8743 10.5111 12.8999 10.5236L12.9062 10.5299C12.9811 10.5884 13.0532 10.6498 13.1228 10.7146L13.1291 10.7209C13.1954 10.7915 13.2553 10.8684 13.3075 10.9501C13.4785 11.2115 13.5693 11.517 13.5687 11.8293C13.5687 12.7142 12.8433 13.4348 11.9632 13.4348C11.5382 13.4322 11.1313 13.2623 10.8307 12.9617C10.5302 12.6612 10.3602 12.2543 10.3577 11.8293C10.3514 11.0846 10.8674 10.453 11.5681 10.2751L11.5686 10.2756ZM5.29994 10.2311C6.1849 10.2311 6.90543 10.9564 6.90543 11.8366C6.90289 12.2616 6.73293 12.6685 6.43239 12.969C6.13185 13.2695 5.72496 13.4395 5.29994 13.442C4.87493 13.4395 4.46804 13.2695 4.1675 12.969C3.86696 12.6685 3.69699 12.2616 3.69446 11.8366C3.69699 11.4115 3.86696 11.0046 4.1675 10.7041C4.46804 10.4036 4.87493 10.2336 5.29994 10.2311ZM20.1173 15.755C19.9723 16.5703 19.4742 17.2841 18.7343 17.7106C18.0399 18.112 17.1868 18.2392 16.2874 18.3668C15.797 18.4369 15.2806 18.5133 14.7883 18.6342C13.4633 18.9592 12.189 19.6014 10.9535 20.2078C9.37362 20.9912 7.88275 21.7311 6.50454 21.7311C5.77917 21.7311 5.14085 21.527 4.5296 21.1005C3.12093 20.1266 3.19105 18.3156 3.36127 17.3218C3.51408 16.3919 3.94157 15.519 4.34874 14.6844C4.37437 14.6336 4.39323 14.5886 4.41886 14.5378C4.562 14.5886 4.70901 14.6273 4.85892 14.6524C4.61713 16.0031 5.30478 17.3982 6.64817 18.0859L6.88996 18.213L7.15109 18.1173C8.26574 17.7222 9.29819 17.079 10.2093 16.2188C10.7127 15.7497 11.1576 15.2211 11.5343 14.6452C11.6779 14.6684 11.8239 14.679 11.9695 14.6771C12.6003 14.6757 13.2129 14.4656 13.7119 14.0796C14.2108 13.6936 14.568 13.1533 14.7278 12.5431H15.798C16.1172 13.7728 17.2313 14.6771 18.5563 14.6771C19.063 14.6772 19.5603 14.5407 19.996 14.282C20.1618 14.7598 20.2126 15.2569 20.1231 15.7536L20.1173 15.755Z" fill="#99424F"/>
<path d="M21.3988 11.8366C21.3974 11.2057 21.1873 10.5931 20.8013 10.0941C20.4153 9.5952 19.875 9.238 19.2648 9.07821L22.0033 1H8.42774L11.1735 9.10384C10.5802 9.2761 10.0588 9.63632 9.68771 10.1303C9.31665 10.6244 9.11598 11.2255 9.11588 11.8433C9.11588 12.7989 9.59365 13.6461 10.3248 14.1645C10.0381 14.5722 9.70681 14.9479 9.33107 15.3048C8.62407 15.9673 7.84019 16.477 6.99296 16.8145C6.2289 16.2985 5.89717 15.388 6.1965 14.5722C7.35709 14.2153 8.20965 13.1214 8.20965 11.8448C8.20837 11.0898 7.90787 10.366 7.37399 9.83214C6.84011 9.29826 6.11638 8.99776 5.36136 8.99648C4.60472 8.99751 3.87937 9.29853 3.34434 9.83356C2.80932 10.3686 2.50829 11.0939 2.50727 11.8506C2.50727 12.6277 2.82643 13.3415 3.33564 13.8511L3.20169 14.1249C2.77469 15.004 2.29062 15.9978 2.1059 17.1134C1.73644 19.3378 2.3414 21.1334 3.80036 22.1465C4.62245 22.7132 5.52674 23 6.50164 23C8.17725 23 9.878 22.1586 11.5212 21.3437C12.6934 20.7634 13.9038 20.159 15.0997 19.8659C15.5349 19.7576 15.9982 19.6938 16.4827 19.6241C17.4644 19.4791 18.477 19.3374 19.3876 18.8088C20.4515 18.1908 21.1778 17.1588 21.3882 15.9741C21.5478 15.063 21.3882 14.1461 20.9805 13.3434C21.2619 12.8903 21.4099 12.367 21.4075 11.8336L21.3988 11.8366ZM20.156 11.8366C20.156 12.7215 19.4306 13.442 18.5505 13.442C18.2703 13.4394 17.9957 13.3639 17.7535 13.2229C17.5113 13.082 17.31 12.8805 17.1693 12.6382C17.0285 12.3959 16.9533 12.1212 16.9508 11.841C16.9484 11.5608 17.0189 11.2848 17.1554 11.0401C17.2062 10.9511 17.27 10.8612 17.3343 10.7852C17.4007 10.7072 17.4755 10.6367 17.5573 10.5749L17.5635 10.5686C17.6143 10.5299 17.6719 10.4922 17.7294 10.454C17.7613 10.4347 17.7874 10.4153 17.8116 10.4032C17.8179 10.4032 17.8242 10.3969 17.831 10.3969C17.8566 10.3844 17.889 10.3713 17.9199 10.3582C17.9509 10.3452 17.9838 10.3326 18.0089 10.3196C18.0152 10.3196 18.0215 10.3133 18.0283 10.3133C18.0539 10.307 18.079 10.2939 18.1047 10.2876C18.111 10.2876 18.124 10.2814 18.1303 10.2814L18.2193 10.262H18.2256L18.3213 10.2427C18.3276 10.2427 18.3407 10.2427 18.3469 10.2364C18.3726 10.2364 18.3977 10.2301 18.4233 10.2301H18.4553C18.4872 10.2301 18.5191 10.2238 18.552 10.2238H18.6342C18.6577 10.2227 18.6813 10.2248 18.7043 10.2301H18.7169C18.7683 10.2354 18.8194 10.2439 18.8697 10.2557C19.2314 10.3333 19.5558 10.5323 19.7887 10.8197C20.0217 11.1071 20.1493 11.4656 20.1502 11.8356L20.156 11.8366ZM10.2049 2.27423H20.2261L17.9262 9.05887C17.8305 9.07821 17.7352 9.10964 17.6395 9.14107L15.2187 4.20856L12.7911 9.11061C12.6953 9.07869 12.5938 9.05983 12.4913 9.04049L10.2049 2.27423ZM14.7602 11.2824C14.6429 10.6942 14.3415 10.1587 13.8995 9.75329L15.2182 7.09021L16.5495 9.81035C16.1544 10.2054 15.8725 10.7088 15.753 11.2819L14.7602 11.2824ZM11.5686 10.2756L11.6576 10.2562H11.6769C11.7025 10.2499 11.7277 10.2499 11.7533 10.2436H11.779C11.8046 10.2436 11.8234 10.2374 11.8491 10.2374H12.0976C12.1233 10.2374 12.1421 10.2436 12.1615 10.2436C12.174 10.2436 12.1808 10.2436 12.1934 10.2499C12.219 10.2562 12.2379 10.2562 12.2635 10.2625C12.2698 10.2625 12.2761 10.2625 12.2891 10.2688L12.3781 10.2881C12.4067 10.2928 12.4346 10.3014 12.4608 10.3138C12.4671 10.3138 12.4734 10.32 12.4864 10.32C12.5058 10.3263 12.5309 10.3326 12.5503 10.3457C12.5565 10.3457 12.5628 10.352 12.5696 10.352C12.5952 10.3645 12.6204 10.3713 12.646 10.3839H12.6523C12.6818 10.395 12.7098 10.41 12.735 10.4284C12.7669 10.4409 12.793 10.4603 12.8172 10.4729C12.8235 10.4729 12.8235 10.4791 12.8298 10.4791C12.8554 10.4917 12.8743 10.5111 12.8999 10.5236L12.9062 10.5299C12.9811 10.5884 13.0532 10.6498 13.1228 10.7146L13.1291 10.7209C13.1954 10.7915 13.2553 10.8684 13.3075 10.9501C13.4785 11.2115 13.5693 11.517 13.5687 11.8293C13.5687 12.7142 12.8433 13.4348 11.9632 13.4348C11.5382 13.4322 11.1313 13.2623 10.8307 12.9617C10.5302 12.6612 10.3602 12.2543 10.3577 11.8293C10.3514 11.0846 10.8674 10.453 11.5681 10.2751L11.5686 10.2756ZM5.29994 10.2311C6.1849 10.2311 6.90543 10.9564 6.90543 11.8366C6.90289 12.2616 6.73293 12.6685 6.43239 12.969C6.13185 13.2695 5.72496 13.4395 5.29994 13.442C4.87493 13.4395 4.46804 13.2695 4.1675 12.969C3.86696 12.6685 3.69699 12.2616 3.69446 11.8366C3.69699 11.4115 3.86696 11.0046 4.1675 10.7041C4.46804 10.4036 4.87493 10.2336 5.29994 10.2311ZM20.1173 15.755C19.9723 16.5703 19.4742 17.2841 18.7343 17.7106C18.0399 18.112 17.1868 18.2392 16.2874 18.3668C15.797 18.4369 15.2806 18.5133 14.7883 18.6342C13.4633 18.9592 12.189 19.6014 10.9535 20.2078C9.37362 20.9912 7.88275 21.7311 6.50454 21.7311C5.77917 21.7311 5.14085 21.527 4.5296 21.1005C3.12093 20.1266 3.19105 18.3156 3.36127 17.3218C3.51408 16.3919 3.94157 15.519 4.34874 14.6844C4.37437 14.6336 4.39323 14.5886 4.41886 14.5378C4.562 14.5886 4.70901 14.6273 4.85892 14.6524C4.61713 16.0031 5.30478 17.3982 6.64817 18.0859L6.88996 18.213L7.15109 18.1173C8.26574 17.7222 9.29819 17.079 10.2093 16.2188C10.7127 15.7497 11.1576 15.2211 11.5343 14.6452C11.6779 14.6684 11.8239 14.679 11.9695 14.6771C12.6003 14.6757 13.2129 14.4656 13.7119 14.0796C14.2108 13.6936 14.568 13.1533 14.7278 12.5431H15.798C16.1172 13.7728 17.2313 14.6771 18.5563 14.6771C19.063 14.6772 19.5603 14.5407 19.996 14.282C20.1618 14.7598 20.2126 15.2569 20.1231 15.7536L20.1173 15.755Z" stroke="white" stroke-width="2" stroke-linejoin="round" mask="url(#path-2-outside-1_4781_23615)"/>
</svg>
