<svg width="24" height="24" viewBox="0 0 24 24" fill="none" xmlns="http://www.w3.org/2000/svg">
<mask id="path-1-outside-1_4779_23583" maskUnits="userSpaceOnUse" x="2.20761" y="0" width="20" height="25" fill="black">
<rect fill="white" x="2.20761" width="20" height="25"/>
<path fill-rule="evenodd" clip-rule="evenodd" d="M7.60381 5.4L12 1V9.77672L12.0236 9.80037L16.4152 5.41504V14.181L20.7924 9.8V18.6L16.4008 22.9954L16.3979 23.0002L16.397 22.9992L16.3962 23V22.9985L12.0154 18.6009L12.0127 18.6036V18.5982L12.0104 18.5958H11.9922L12 18.6037L7.62283 22.9999V22.9745L7.61015 22.9998L3.20761 18.6036L3.20883 18.5988L3.20761 18.6V9.8L7.60381 14.2L7.59638 14.2074H7.61015L7.62283 14.2328V14.2075L7.63881 14.2236L7.62283 14.1915L7.62807 14.1757L7.60381 14.2V5.4Z"/>
</mask>
<path fill-rule="evenodd" clip-rule="evenodd" d="M7.60381 5.4L12 1V9.77672L12.0236 9.80037L16.4152 5.41504V14.181L20.7924 9.8V18.6L16.4008 22.9954L16.3979 23.0002L16.397 22.9992L16.3962 23V22.9985L12.0154 18.6009L12.0127 18.6036V18.5982L12.0104 18.5958H11.9922L12 18.6037L7.62283 22.9999V22.9745L7.61015 22.9998L3.20761 18.6036L3.20883 18.5988L3.20761 18.6V9.8L7.60381 14.2L7.59638 14.2074H7.61015L7.62283 14.2328V14.2075L7.63881 14.2236L7.62283 14.1915L7.62807 14.1757L7.60381 14.2V5.4Z" fill="white"/>
<path d="M2.72388 18.477L2.72266 18.4819L3.69256 18.7254L3.69377 18.7206L2.72388 18.477ZM12 1H13C13 0.595459 12.7563 0.230768 12.3825 0.0760377C12.0087 -0.0786926 11.5785 0.00702184 11.2926 0.293199L12 1ZM7.60381 5.4L6.89639 4.6932C6.70904 4.88071 6.60381 5.13493 6.60381 5.4H7.60381ZM12 9.77672H11C11 10.0413 11.1048 10.295 11.2915 10.4825L12 9.77672ZM12.0236 9.80037L11.3151 10.5061C11.5024 10.6942 11.7568 10.8 12.0222 10.8004C12.2877 10.8007 12.5423 10.6955 12.7302 10.508L12.0236 9.80037ZM16.4152 5.41504H17.4152C17.4152 5.01071 17.1717 4.64616 16.7982 4.4913C16.4247 4.33643 15.9947 4.42172 15.7086 4.70742L16.4152 5.41504ZM16.4152 14.181H15.4152C15.4152 14.5855 15.659 14.9502 16.0327 15.1049C16.4065 15.2596 16.8367 15.1739 17.1226 14.8878L16.4152 14.181ZM20.7924 9.8H21.7924C21.7924 9.39546 21.5487 9.03077 21.1749 8.87604C20.8011 8.72131 20.3709 8.80702 20.085 9.0932L20.7924 9.8ZM20.7924 18.6L21.4998 19.3068C21.6871 19.1193 21.7924 18.8651 21.7924 18.6H20.7924ZM16.4008 22.9954L15.6934 22.2886C15.6353 22.3467 15.5846 22.4118 15.5425 22.4823L16.4008 22.9954ZM16.3979 23.0002L15.6891 23.7055C15.9068 23.9243 16.2133 24.0303 16.5196 23.9928C16.826 23.9552 17.0978 23.7783 17.2562 23.5133L16.3979 23.0002ZM16.397 22.9992L17.1058 22.2939C16.9184 22.1055 16.6637 21.9995 16.3979 21.9992C16.1321 21.999 15.8772 22.1045 15.6894 22.2926L16.397 22.9992ZM16.3962 23H15.3962C15.3962 23.4046 15.64 23.7693 16.0138 23.924C16.3876 24.0787 16.8178 23.9929 17.1037 23.7067L16.3962 23ZM16.3962 22.9985H17.3962C17.3962 22.7339 17.2914 22.4801 17.1046 22.2927L16.3962 22.9985ZM12.0154 18.6009L12.7239 17.8951C12.5365 17.7071 12.2821 17.6012 12.0167 17.6009C11.7513 17.6005 11.4966 17.7057 11.3088 17.8933L12.0154 18.6009ZM12.0127 18.6036H11.0127C11.0127 19.008 11.2562 19.3725 11.6297 19.5274C12.0032 19.6822 12.4332 19.5969 12.7193 19.3112L12.0127 18.6036ZM12.0127 18.5982H13.0127C13.0127 18.3336 12.9078 18.0798 12.7211 17.8924L12.0127 18.5982ZM12.0104 18.5958L12.7188 17.89C12.5312 17.7017 12.2762 17.5958 12.0104 17.5958V18.5958ZM11.9922 18.5958V17.5958C11.5881 17.5958 11.2237 17.839 11.0687 18.2121C10.9137 18.5853 10.9984 19.0151 11.2835 19.3014L11.9922 18.5958ZM12 18.6037L12.7086 19.3093C13.0971 18.9191 13.0971 18.2883 12.7086 17.8982L12 18.6037ZM7.62283 22.9999H6.62283C6.62283 23.4048 6.86695 23.7697 7.24115 23.9242C7.61536 24.0787 8.04582 23.9924 8.33147 23.7055L7.62283 22.9999ZM7.62283 22.9745H8.62283C8.62283 22.5108 8.3041 22.108 7.85286 22.0013C7.40163 21.8946 6.93626 22.1122 6.72866 22.5268L7.62283 22.9745ZM7.61015 22.9998L6.90355 23.7074C7.13085 23.9344 7.45334 24.0384 7.7704 23.9869C8.08747 23.9354 8.3605 23.7348 8.50432 23.4475L7.61015 22.9998ZM3.20761 18.6036L2.23772 18.3601C2.15202 18.7014 2.25201 19.0626 2.50101 19.3112L3.20761 18.6036ZM3.20883 18.5988L4.17872 18.8423C4.28824 18.4061 4.0931 17.9505 3.7018 17.7287C3.31051 17.507 2.81934 17.5738 2.50145 17.892L3.20883 18.5988ZM3.20761 18.6H2.20761C2.20761 19.0045 2.45134 19.3692 2.82511 19.524C3.19888 19.6787 3.62905 19.593 3.91499 19.3068L3.20761 18.6ZM3.20761 9.8L3.91502 9.0932C3.62909 8.80702 3.19891 8.72131 2.82513 8.87604C2.45135 9.03077 2.20761 9.39546 2.20761 9.8H3.20761ZM7.60381 14.2L8.31121 14.9068L8.31122 14.9068L7.60381 14.2ZM7.59638 14.2074L6.88898 13.5006C6.60316 13.7867 6.51775 14.2167 6.67258 14.5903C6.82741 14.9639 7.192 15.2074 7.59638 15.2074V14.2074ZM7.61015 14.2074L8.50432 13.7597C8.33483 13.4212 7.98871 13.2074 7.61015 13.2074V14.2074ZM7.62283 14.2328L6.72866 14.6805C6.93626 15.0951 7.40163 15.3126 7.85286 15.2059C8.3041 15.0993 8.62283 14.6964 8.62283 14.2328H7.62283ZM7.62283 14.2075L8.33146 13.5019C8.04581 13.215 7.61535 13.1287 7.24115 13.2832C6.86694 13.4378 6.62283 13.8027 6.62283 14.2075H7.62283ZM7.63881 14.2236L6.93018 14.9291C7.27632 15.2768 7.82353 15.322 8.22203 15.0359C8.62053 14.7498 8.75265 14.2168 8.53392 13.7777L7.63881 14.2236ZM7.62283 14.1915L6.67379 13.8764C6.5905 14.1272 6.60989 14.4008 6.72773 14.6373L7.62283 14.1915ZM7.62807 14.1757L8.57712 14.4908C8.72323 14.0508 8.54772 13.5681 8.15313 13.3246C7.75854 13.0812 7.24836 13.1409 6.92066 13.4689L7.62807 14.1757ZM11.2926 0.293199L6.89639 4.6932L8.31122 6.1068L12.7074 1.7068L11.2926 0.293199ZM13 9.77672V1H11V9.77672H13ZM12.732 9.09462L12.7085 9.07097L11.2915 10.4825L11.3151 10.5061L12.732 9.09462ZM15.7086 4.70742L11.317 9.09276L12.7302 10.508L17.1218 6.12266L15.7086 4.70742ZM17.4152 14.181V5.41504H15.4152V14.181H17.4152ZM20.085 9.0932L15.7078 13.4742L17.1226 14.8878L21.4998 10.5068L20.085 9.0932ZM21.7924 18.6V9.8H19.7924V18.6H21.7924ZM17.1082 23.7022L21.4998 19.3068L20.085 17.8932L15.6934 22.2886L17.1082 23.7022ZM17.2562 23.5133L17.2591 23.5086L15.5425 22.4823L15.5396 22.487L17.2562 23.5133ZM15.6881 23.7046L15.6891 23.7055L17.1068 22.2948L17.1058 22.2939L15.6881 23.7046ZM17.1037 23.7067L17.1045 23.7059L15.6894 22.2926L15.6887 22.2933L17.1037 23.7067ZM15.3962 22.9985V23H17.3962V22.9985H15.3962ZM11.307 19.3066L15.6877 23.7042L17.1046 22.2927L12.7239 17.8951L11.307 19.3066ZM12.7193 19.3112L12.722 19.3085L11.3088 17.8933L11.3061 17.896L12.7193 19.3112ZM11.0127 18.5982V18.6036H13.0127V18.5982H11.0127ZM11.302 19.3016L11.3043 19.3039L12.7211 17.8924L12.7188 17.89L11.302 19.3016ZM11.9922 19.5958H12.0104V17.5958H11.9922V19.5958ZM11.2835 19.3014L11.2913 19.3093L12.7086 17.8982L12.7008 17.8903L11.2835 19.3014ZM11.2914 17.8981L6.91419 22.2943L8.33147 23.7055L12.7086 19.3093L11.2914 17.8981ZM8.62283 22.9999V22.9745H6.62283V22.9999H8.62283ZM8.50432 23.4475L8.517 23.4222L6.72866 22.5268L6.71598 22.5521L8.50432 23.4475ZM2.50101 19.3112L6.90355 23.7074L8.31675 22.2922L3.91421 17.896L2.50101 19.3112ZM2.23893 18.3553L2.23772 18.3601L4.1775 18.8471L4.17872 18.8423L2.23893 18.3553ZM3.91499 19.3068L3.9162 19.3056L2.50145 17.892L2.50023 17.8932L3.91499 19.3068ZM2.20761 9.8V18.6H4.20761V9.8H2.20761ZM8.31122 13.4932L3.91502 9.0932L2.5002 10.5068L6.89639 14.9068L8.31122 13.4932ZM8.30379 14.9142L8.31121 14.9068L6.8964 13.4932L6.88898 13.5006L8.30379 14.9142ZM7.61015 13.2074H7.59638V15.2074H7.61015V13.2074ZM8.517 13.785L8.50432 13.7597L6.71598 14.6552L6.72866 14.6805L8.517 13.785ZM8.62283 14.2328V14.2075H6.62283V14.2328H8.62283ZM6.9142 14.9131L6.93018 14.9291L8.34745 13.518L8.33146 13.5019L6.9142 14.9131ZM6.72773 14.6373L6.74371 14.6694L8.53392 13.7777L8.51794 13.7456L6.72773 14.6373ZM6.67902 13.8606L6.67379 13.8764L8.57188 14.5066L8.57712 14.4908L6.67902 13.8606ZM8.31122 14.9068L8.33548 14.8825L6.92066 13.4689L6.89639 13.4932L8.31122 14.9068ZM6.60381 5.4V14.2H8.60381V5.4H6.60381Z" fill="white" mask="url(#path-1-outside-1_4779_23583)"/>
<path d="M7.62283 14.1915L9.81661 7.58496L19.6886 17.4947L16.3979 23.0002L12.0104 18.5958H9.81661" fill="#00E8FF"/>
<path d="M12.0127 18.6036V9.81123L16.4152 5.41504V14.2074M3.20761 18.6036L7.61015 22.9998L9.81142 18.6036L7.61015 14.2074H4.31142" fill="#283198"/>
<path d="M7.60381 14.2V5.4L12 1V9.8M16.3962 23V14.2L20.7924 9.8V18.6M3.20761 18.6V9.8L7.60381 14.2" fill="#324FFF"/>
<path d="M7.62283 22.9999V14.2075L12 18.6037" fill="#00FFFF"/>
</svg>
