<svg width="24" height="24" viewBox="0 0 24 24" fill="none" xmlns="http://www.w3.org/2000/svg">
<path d="M14.5519 2.82231L14.5628 2.83623C16.6316 5.4831 17.6268 7.97136 17.9058 10.2392C18.1847 12.5063 17.7398 14.487 17.0303 16.107C16.3238 17.7203 15.354 18.9797 14.5672 19.832C14.1723 20.2598 13.8189 20.59 13.5599 20.8159C13.5062 20.8627 13.4565 20.9052 13.4111 20.9433C13.3768 21.3778 13.3335 21.8353 13.2955 22.2141C13.2696 22.4717 13.2459 22.6957 13.2287 22.8554C13.22 22.9353 13.213 22.9992 13.2081 23.0433L13.2004 23.1123L13.1 24H10.6312L10.5312 23.1118L10.5235 23.0424C10.5186 22.9982 10.5116 22.934 10.503 22.8538C10.4857 22.6935 10.462 22.4687 10.4362 22.2107C10.3984 21.8333 10.3553 21.3787 10.3212 20.9481C10.2759 20.9098 10.2259 20.8668 10.1719 20.8192C9.91468 20.5931 9.56248 20.2627 9.1684 19.8345C8.38324 18.9813 7.41453 17.7214 6.70869 16.1077C5.99989 14.4873 5.55524 12.5065 5.83431 10.2392C6.11346 7.97136 7.10863 5.48311 9.17745 2.83623L9.18833 2.82231L9.1997 2.80877C10.0932 1.74532 10.8668 0.65946 11.0213 0.438972L11.0708 0.36839L11.1316 0.307312C11.5396 -0.102535 12.2007 -0.10228 12.6085 0.307134L12.6694 0.368296L12.7189 0.438993C12.8734 0.659454 13.647 1.74532 14.5405 2.80878L14.5519 2.82231Z" fill="white"/>
<path d="M13.7749 3.45205C12.8545 2.35654 12.0619 1.24392 11.8999 1.01284C11.8829 0.995721 11.8573 0.995721 11.8403 1.01284C11.6784 1.24392 10.8858 2.35654 9.96534 3.45205C2.06505 13.5598 11.2096 20.3811 11.2096 20.3811L11.2863 20.4324C11.3545 21.4851 11.5249 23 11.5249 23H11.8658H12.2067C12.2067 23 12.3772 21.4936 12.4454 20.4324L12.5221 20.3725C12.5306 20.3811 21.6752 13.5598 13.7749 3.45205ZM11.8658 20.2355C11.8658 20.2355 11.4568 19.8846 11.346 19.7049V19.6878L11.8403 8.68138C11.8403 8.64715 11.8914 8.64715 11.8914 8.68138L12.3857 19.6878V19.7049C12.2749 19.8846 11.8658 20.2355 11.8658 20.2355Z" fill="#0A684B"/>
</svg>
