<svg width="24" height="24" viewBox="0 0 24 24" fill="none" xmlns="http://www.w3.org/2000/svg">
<rect x="5" y="5" width="14" height="14" fill="white"/>
<mask id="path-2-outside-1_4782_23627" maskUnits="userSpaceOnUse" x="1" y="1" width="22" height="22" fill="black">
<rect fill="white" x="1" y="1" width="22" height="22"/>
<path fill-rule="evenodd" clip-rule="evenodd" d="M4 2C2.89543 2 2 2.89543 2 4V20C2 21.1046 2.89543 22 4 22H20C21.1046 22 22 21.1046 22 20V4C22 2.89543 21.1046 2 20 2H4ZM6 6V18H12V9H15V18H18V6H6Z"/>
</mask>
<path fill-rule="evenodd" clip-rule="evenodd" d="M4 2C2.89543 2 2 2.89543 2 4V20C2 21.1046 2.89543 22 4 22H20C21.1046 22 22 21.1046 22 20V4C22 2.89543 21.1046 2 20 2H4ZM6 6V18H12V9H15V18H18V6H6Z" fill="#CD0000"/>
<path d="M6 18H5V19H6V18ZM6 6V5H5V6H6ZM12 18V19H13V18H12ZM12 9V8H11V9H12ZM15 9H16V8H15V9ZM15 18H14V19H15V18ZM18 18V19H19V18H18ZM18 6H19V5H18V6ZM3 4C3 3.44772 3.44772 3 4 3V1C2.34315 1 1 2.34315 1 4H3ZM3 20V4H1V20H3ZM4 21C3.44772 21 3 20.5523 3 20H1C1 21.6569 2.34315 23 4 23V21ZM20 21H4V23H20V21ZM21 20C21 20.5523 20.5523 21 20 21V23C21.6569 23 23 21.6569 23 20H21ZM21 4V20H23V4H21ZM20 3C20.5523 3 21 3.44772 21 4H23C23 2.34315 21.6569 1 20 1V3ZM4 3H20V1H4V3ZM7 18V6H5V18H7ZM12 17H6V19H12V17ZM11 9V18H13V9H11ZM15 8H12V10H15V8ZM16 18V9H14V18H16ZM18 17H15V19H18V17ZM17 6V18H19V6H17ZM6 7H18V5H6V7Z" fill="white" mask="url(#path-2-outside-1_4782_23627)"/>
</svg>
