<svg width="24" height="24" viewBox="0 0 24 24" fill="none" xmlns="http://www.w3.org/2000/svg">
<mask id="path-1-outside-1_5_616" maskUnits="userSpaceOnUse" x="2" y="2" width="22" height="21" fill="black">
<rect fill="white" x="2" y="2" width="22" height="21"/>
<path fill-rule="evenodd" clip-rule="evenodd" d="M6.00006 17H7.00005V15C7.00005 13.3431 8.3432 12 10.0001 12H15.0001C16.1046 12 17.0001 11.1046 17.0001 10V6C17.0001 5 17.0001 3 12.5001 3C8.00006 3 8.00005 5 8.00005 6V8H6.00006C5.00006 8 2.98793 8 3.00005 12.5C3.01218 17 5.00006 17 6.00006 17ZM19.0001 8H18.0001V10C18.0001 11.6569 16.657 13 15.0001 13H10.0001C8.89554 13 8.00011 13.8954 8.00011 15V19C8.00011 20 8.00011 22 12.5001 22C17.0001 22 17.0001 20 17.0001 19L17 17H19.0001C20.0001 17 22.0122 17 22.0001 12.5C21.988 8 20.0001 8 19.0001 8Z"/>
</mask>
<path fill-rule="evenodd" clip-rule="evenodd" d="M6.00006 17H7.00005V15C7.00005 13.3431 8.3432 12 10.0001 12H15.0001C16.1046 12 17.0001 11.1046 17.0001 10V6C17.0001 5 17.0001 3 12.5001 3C8.00006 3 8.00005 5 8.00005 6V8H6.00006C5.00006 8 2.98793 8 3.00005 12.5C3.01218 17 5.00006 17 6.00006 17ZM19.0001 8H18.0001V10C18.0001 11.6569 16.657 13 15.0001 13H10.0001C8.89554 13 8.00011 13.8954 8.00011 15V19C8.00011 20 8.00011 22 12.5001 22C17.0001 22 17.0001 20 17.0001 19L17 17H19.0001C20.0001 17 22.0122 17 22.0001 12.5C21.988 8 20.0001 8 19.0001 8Z" fill="white"/>
<path d="M7.00005 17V18H8.00005V17H7.00005ZM8.00005 8V9H9.00005V8H8.00005ZM3.00005 12.5L4.00005 12.4973L3.00005 12.5ZM18.0001 8V7H17.0001V8H18.0001ZM17.0001 19H18.0001V18.9999L17.0001 19ZM17 17V16H15.9999L16 17.0001L17 17ZM7.00005 16H6.00006V18H7.00005V16ZM6.00005 15V17H8.00005V15H6.00005ZM10.0001 11C7.79092 11 6.00005 12.7909 6.00005 15H8.00005C8.00005 13.8954 8.89548 13 10.0001 13V11ZM15.0001 11H10.0001V13H15.0001V11ZM16.0001 10C16.0001 10.5523 15.5523 11 15.0001 11V13C16.6569 13 18.0001 11.6569 18.0001 10H16.0001ZM16.0001 6V10H18.0001V6H16.0001ZM12.5001 4C14.6437 4 15.4142 4.48275 15.6943 4.79396C15.9737 5.10443 16.0001 5.48133 16.0001 6H18.0001C18.0001 5.51867 18.0264 4.39557 17.1808 3.45604C16.3359 2.51725 14.8564 2 12.5001 2V4ZM9.00005 6C9.00005 5.48133 9.02643 5.10443 9.30585 4.79396C9.58595 4.48275 10.3564 4 12.5001 4V2C10.1437 2 8.66417 2.51725 7.81926 3.45604C6.97368 4.39557 7.00005 5.51867 7.00005 6H9.00005ZM9.00005 8V6H7.00005V8H9.00005ZM6.00006 9H8.00005V7H6.00006V9ZM4.00005 12.4973C3.99428 10.3548 4.47741 9.58597 4.78858 9.3066C5.10062 9.02644 5.48097 9 6.00006 9V7C5.51914 7 4.39342 6.97356 3.45244 7.8184C2.51057 8.66403 1.9937 10.1452 2.00006 12.5027L4.00005 12.4973ZM6.00006 16C5.4818 16 5.10835 15.9737 4.79947 15.695C4.48819 15.4142 4.00583 14.6421 4.00005 12.4973L2.00006 12.5027C2.00641 14.8579 2.52405 16.3358 3.45974 17.18C4.39782 18.0263 5.51832 18 6.00006 18V16ZM18.0001 9H19.0001V7H18.0001V9ZM19.0001 10V8H17.0001V10H19.0001ZM15.0001 14C17.2092 14 19.0001 12.2091 19.0001 10H17.0001C17.0001 11.1046 16.1047 12 15.0001 12V14ZM10.0001 14H15.0001V12H10.0001V14ZM9.00011 15C9.00011 14.4477 9.44782 14 10.0001 14V12C8.34325 12 7.00011 13.3431 7.00011 15H9.00011ZM9.00011 19V15H7.00011V19H9.00011ZM12.5001 21C10.3565 21 9.586 20.5173 9.3059 20.206C9.02648 19.8956 9.00011 19.5187 9.00011 19H7.00011C7.00011 19.4813 6.97373 20.6044 7.81931 21.544C8.66422 22.4827 10.1438 23 12.5001 23V21ZM16.0001 19C16.0001 19.5187 15.9737 19.8956 15.6943 20.206C15.4142 20.5173 14.6438 21 12.5001 21V23C14.8565 23 16.336 22.4827 17.1809 21.544C18.0265 20.6044 18.0001 19.4813 18.0001 19H16.0001ZM16 17.0001L16.0001 19.0001L18.0001 18.9999L18 16.9999L16 17.0001ZM19.0001 16H17V18H19.0001V16ZM21.0001 12.5027C21.0059 14.6452 20.5227 15.414 20.2116 15.6934C19.8995 15.9736 19.5192 16 19.0001 16V18C19.481 18 20.6067 18.0264 21.5477 17.1816C22.4896 16.336 23.0065 14.8548 23.0001 12.4973L21.0001 12.5027ZM19.0001 9C19.5184 9 19.8918 9.02631 20.2007 9.30499C20.512 9.58581 20.9943 10.3579 21.0001 12.5027L23.0001 12.4973C22.9938 10.1421 22.4761 8.66419 21.5404 7.82001C20.6023 6.97369 19.4818 7 19.0001 7V9Z" fill="white" mask="url(#path-1-outside-1_5_616)"/>
<path d="M13 7H8.00005V6C8.00005 5 8.00005 3 12.5001 3C17.0001 3 17.0001 5 17.0001 6V10C17.0001 11.1046 16.1046 12 15.0001 12H10.0001C8.3432 12 7.00005 13.3431 7.00005 15V17H6.00006C5.00006 17 3.01218 17 3.00005 12.5C2.98792 8 5.00006 8 6.00006 8H13V7Z" fill="#2C7DB6"/>
<path d="M12 18H17.0001V19C17.0001 20 17.0001 22 12.5001 22C8.00011 22 8.00011 20 8.00011 19V15C8.00011 13.8954 8.89554 13 10.0001 13H15.0001C16.657 13 18.0001 11.6569 18.0001 10V8H19.0001C20.0001 8 21.988 8 22.0001 12.5C22.0122 17 20.0001 17 19.0001 17H12V18Z" fill="#FFCC00"/>
<rect x="9.75" y="4.75" width="1.5" height="1.5" rx="0.75" fill="white"/>
<rect x="14.75" y="18.75" width="1.5" height="1.5" rx="0.75" fill="white"/>
</svg>
