<svg width="26" height="24" viewBox="0 0 26 24" fill="none" xmlns="http://www.w3.org/2000/svg">
<mask id="path-1-outside-1_5_583" maskUnits="userSpaceOnUse" x="0.984131" y="1.42725" width="25" height="22" fill="black">
<rect fill="white" x="0.984131" y="1.42725" width="25" height="22"/>
<path d="M14.9159 11.9999C14.9159 13.058 14.0582 13.9157 13.0001 13.9157C11.942 13.9157 11.0843 13.058 11.0843 11.9999C11.0843 10.9418 11.942 10.0841 13.0001 10.0841C14.0582 10.0841 14.9159 10.9418 14.9159 11.9999Z"/>
<path fill-rule="evenodd" clip-rule="evenodd" d="M13.0004 4.73193C12.6843 4.44492 12.3692 4.18157 12.0574 3.94383C11.2117 3.29895 10.3702 2.82668 9.58348 2.5927C8.79541 2.35833 8.01639 2.35165 7.36149 2.71124C6.70659 3.07083 6.32317 3.7158 6.14256 4.48205C5.96225 5.24702 5.97154 6.17623 6.13594 7.19519C6.20368 7.61504 6.29844 8.05434 6.41941 8.50901C6.05655 8.61131 5.71126 8.722 5.38563 8.84042C4.40173 9.1982 3.5718 9.63554 2.97889 10.1453C2.38754 10.6537 1.98413 11.2788 1.98413 11.9999C1.98413 12.7211 2.38754 13.3461 2.97889 13.8545C3.5718 14.3643 4.40173 14.8016 5.38563 15.1594C5.71123 15.2778 6.05649 15.3885 6.41931 15.4908C6.29848 15.9451 6.20382 16.3841 6.13615 16.8037C5.97183 17.8225 5.9626 18.7516 6.14296 19.5165C6.32362 20.2827 6.70707 20.9276 7.36195 21.2872C8.01682 21.6468 8.7958 21.6402 9.58383 21.4059C10.3705 21.172 11.212 20.6998 12.0576 20.055C12.3692 19.8175 12.6841 19.5543 13 19.2676C13.3163 19.5547 13.6315 19.8182 13.9434 20.056C14.7891 20.7009 15.6306 21.1731 16.4173 21.4071C17.2054 21.6415 17.9844 21.6482 18.6393 21.2886C19.2942 20.929 19.6776 20.284 19.8582 19.5178C20.0386 18.7528 20.0293 17.8236 19.8649 16.8046C19.7971 16.3847 19.7023 15.9454 19.5814 15.4907C19.944 15.3884 20.2891 15.2778 20.6146 15.1594C21.5985 14.8016 22.4284 14.3643 23.0213 13.8545C23.6126 13.3461 24.0161 12.7211 24.0161 11.9999C24.0161 11.2788 23.6126 10.6537 23.0213 10.1453C22.4284 9.63554 21.5985 9.1982 20.6146 8.84042C20.2889 8.722 19.9436 8.61129 19.5807 8.50899C19.7016 8.05468 19.7962 7.61571 19.8639 7.19617C20.0282 6.17734 20.0374 5.24822 19.8571 4.48332C19.6764 3.71714 19.2929 3.07224 18.6381 2.71266C17.9832 2.35308 17.2042 2.35971 16.4162 2.594C15.6295 2.8279 14.788 3.30006 13.9424 3.94482C13.631 4.18228 13.3162 4.4453 13.0004 4.73193ZM9.31416 3.49006C8.68674 3.30347 8.20765 3.3384 7.85858 3.53007C7.50951 3.72174 7.23815 4.09886 7.09436 4.70891C6.95027 5.32024 6.94694 6.12153 7.10007 7.07067C7.16167 7.45244 7.24792 7.85414 7.35838 8.27195C8.24904 8.07154 9.22207 7.91774 10.2528 7.81862C10.92 6.9136 11.6165 6.09647 12.3164 5.38833C12.0285 5.12802 11.7429 4.88993 11.4619 4.67565C10.6742 4.07495 9.94288 3.67705 9.31416 3.49006ZM13.0004 6.04447C12.5053 6.5466 12.0086 7.10978 11.5215 7.72614C12.0054 7.70184 12.499 7.68932 13.0001 7.68932C13.5013 7.68932 13.995 7.70185 14.479 7.72615C13.9919 7.10982 13.4954 6.54663 13.0004 6.04447ZM9.52098 8.86494C8.8558 8.95122 8.22365 9.06139 7.63248 9.19225C7.81503 9.74544 8.03548 10.3199 8.29292 10.9081C8.4973 10.5307 8.7146 10.1518 8.94448 9.77311C9.13254 9.46333 9.32495 9.1604 9.52098 8.86494ZM8.80582 11.9996C9.09814 11.4173 9.42452 10.8265 9.78414 10.2342C10.1014 9.71153 10.4305 9.21084 10.7673 8.73492C11.4849 8.67759 12.232 8.64723 13.0001 8.64723C13.7683 8.64723 14.5154 8.6776 15.2332 8.73494C15.57 9.21086 15.899 9.71153 16.2163 10.2341C16.5759 10.8265 16.9023 11.4172 17.1946 11.9995C16.9022 12.582 16.5757 13.1731 16.2159 13.7657C15.8986 14.2883 15.5696 14.789 15.2327 15.2649C14.5151 15.3222 13.7681 15.3526 13.0001 15.3526C12.2322 15.3526 11.4852 15.3222 10.7677 15.2649C10.4309 14.789 10.1018 14.2883 9.78453 13.7657C9.42477 13.1731 9.09825 12.5821 8.80582 11.9996ZM7.73565 11.9996C7.31266 11.118 6.96353 10.2533 6.69263 9.42723C6.34706 9.52433 6.01983 9.62907 5.71298 9.74066C4.79006 10.0763 4.07688 10.4646 3.60338 10.8717C3.12833 11.2801 2.94204 11.663 2.94204 11.9999C2.94204 12.3368 3.12833 12.7198 3.60338 13.1282C4.07688 13.5353 4.79006 13.9236 5.71298 14.2592C6.01978 14.3707 6.34695 14.4755 6.69246 14.5726C6.96336 13.7463 7.31255 12.8814 7.73565 11.9996ZM7.6323 14.8075C7.81487 14.2541 8.03538 13.6794 8.29292 13.091C8.49742 13.4687 8.71485 13.8478 8.94487 14.2267C9.13294 14.5365 9.32536 14.8395 9.52139 15.1349C8.85599 15.0486 8.22364 14.9384 7.6323 14.8075ZM7.35828 15.7279C7.24796 16.1453 7.16181 16.5467 7.10029 16.9282C6.94723 17.8772 6.95061 18.6783 7.09474 19.2896C7.23857 19.8996 7.50994 20.2767 7.85904 20.4684C8.20814 20.6601 8.68722 20.695 9.31458 20.5085C9.94327 20.3216 10.6745 19.9238 11.4622 19.3232C11.743 19.1091 12.0284 18.8712 12.3161 18.6111C11.6164 17.903 10.9202 17.086 10.2531 16.1812C9.22226 16.0821 8.24907 15.9283 7.35828 15.7279ZM13.684 18.6111C13.972 18.8716 14.2577 19.1098 14.5389 19.3242C15.3266 19.9249 16.0579 20.3228 16.6867 20.5098C17.3141 20.6964 17.7932 20.6614 18.1422 20.4698C18.4913 20.2781 18.7627 19.901 18.9064 19.2909C19.0505 18.6796 19.0539 17.8783 18.9007 16.9292C18.8391 16.5473 18.7529 16.1456 18.6424 15.7278C17.7515 15.9282 16.7782 16.0821 15.7473 16.1812C15.0801 17.0861 14.3838 17.9031 13.684 18.6111ZM14.4785 16.2737C13.9915 16.8899 13.495 17.4529 13.0001 17.955C12.5052 17.4529 12.0088 16.8899 11.5219 16.2737C12.0056 16.298 12.4991 16.3105 13.0001 16.3105C13.5011 16.3105 13.9947 16.298 14.4785 16.2737ZM16.479 15.1349C17.1445 15.0486 17.7769 14.9384 18.3683 14.8075C18.1857 14.2541 17.9651 13.6793 17.7075 13.0909C17.503 13.4686 17.2856 13.8478 17.0555 14.2267C16.8675 14.5365 16.6751 14.8395 16.479 15.1349ZM18.2648 11.9995C18.6879 12.8813 19.0371 13.7462 19.3081 14.5724C19.6535 14.4754 19.9805 14.3707 20.2872 14.2592C21.2101 13.9236 21.9233 13.5353 22.3968 13.1282C22.8719 12.7198 23.0582 12.3368 23.0582 11.9999C23.0582 11.663 22.8719 11.2801 22.3968 10.8717C21.9233 10.4646 21.2101 10.0763 20.2872 9.74066C19.9804 9.62908 19.6531 9.52433 19.3076 9.42723C19.0368 10.2533 18.6877 11.1179 18.2648 11.9995ZM18.6418 8.27193C17.7512 8.07155 16.7783 7.91777 15.7477 7.81864C15.0806 6.91368 14.3842 6.09657 13.6844 5.3884C13.9719 5.12846 14.2572 4.89069 14.5379 4.67667C15.3255 4.07611 16.0568 3.6783 16.6854 3.49138C17.3128 3.30486 17.7919 3.33981 18.141 3.53149C18.4901 3.72317 18.7614 4.10028 18.9053 4.71026C19.0494 5.32151 19.0528 6.1227 18.8997 7.0717C18.8382 7.45316 18.7521 7.8545 18.6418 8.27193ZM18.3677 9.19225C18.1853 9.74541 17.9649 10.3199 17.7075 10.9081C17.5031 10.5306 17.2858 10.1517 17.0559 9.7731C16.8679 9.46333 16.6755 9.16042 16.4795 8.86498C17.1446 8.95126 17.7766 9.06141 18.3677 9.19225Z"/>
<path d="M7.85858 3.53007C8.20765 3.3384 8.68674 3.30347 9.31416 3.49006C9.94288 3.67705 10.6742 4.07495 11.4619 4.67565C11.7429 4.88993 12.0285 5.12802 12.3164 5.38833C11.6165 6.09647 10.92 6.9136 10.2528 7.81862C9.22207 7.91774 8.24904 8.07154 7.35838 8.27195C7.24792 7.85414 7.16167 7.45244 7.10007 7.07067C6.94694 6.12153 6.95027 5.32024 7.09436 4.70891C7.23815 4.09886 7.50951 3.72174 7.85858 3.53007Z"/>
<path d="M15.7477 7.81864C16.7783 7.91777 17.7512 8.07155 18.6418 8.27193C18.7521 7.8545 18.8382 7.45316 18.8997 7.0717C19.0528 6.1227 19.0494 5.32151 18.9053 4.71026C18.7614 4.10028 18.4901 3.72317 18.141 3.53149C17.7919 3.33981 17.3128 3.30486 16.6854 3.49138C16.0568 3.6783 15.3255 4.07611 14.5379 4.67667C14.2572 4.89069 13.9719 5.12846 13.6844 5.3884C14.3842 6.09657 15.0806 6.91368 15.7477 7.81864Z"/>
<path d="M13.0004 6.04447C12.5053 6.5466 12.0086 7.10978 11.5215 7.72614C12.0054 7.70184 12.499 7.68932 13.0001 7.68932C13.5013 7.68932 13.995 7.70185 14.479 7.72615C13.9919 7.10982 13.4954 6.54663 13.0004 6.04447Z"/>
<path fill-rule="evenodd" clip-rule="evenodd" d="M9.78414 10.2342C9.42452 10.8265 9.09814 11.4173 8.80582 11.9996C9.09825 12.5821 9.42477 13.1731 9.78453 13.7657C10.1018 14.2883 10.4309 14.789 10.7677 15.2649C11.4852 15.3222 12.2322 15.3526 13.0001 15.3526C13.7681 15.3526 14.5151 15.3222 15.2327 15.2649C15.5696 14.789 15.8986 14.2883 16.2159 13.7657C16.5757 13.1731 16.9022 12.582 17.1946 11.9995C16.9023 11.4172 16.5759 10.8265 16.2163 10.2341C15.899 9.71153 15.57 9.21086 15.2332 8.73494C14.5154 8.6776 13.7683 8.64723 13.0001 8.64723C12.232 8.64723 11.4849 8.67759 10.7673 8.73492C10.4305 9.21084 10.1014 9.71153 9.78414 10.2342ZM14.9159 11.9999C14.9159 13.058 14.0582 13.9157 13.0001 13.9157C11.942 13.9157 11.0843 13.058 11.0843 11.9999C11.0843 10.9418 11.942 10.0841 13.0001 10.0841C14.0582 10.0841 14.9159 10.9418 14.9159 11.9999Z"/>
<path d="M17.7075 10.9081C17.9649 10.3199 18.1853 9.74541 18.3677 9.19225C17.7766 9.06141 17.1446 8.95126 16.4795 8.86498C16.6755 9.16042 16.8679 9.46333 17.0559 9.7731C17.2858 10.1517 17.5031 10.5306 17.7075 10.9081Z"/>
<path d="M18.2648 11.9995C18.6879 12.8813 19.0371 13.7462 19.3081 14.5724C19.6535 14.4754 19.9805 14.3707 20.2872 14.2592C21.2101 13.9236 21.9233 13.5353 22.3968 13.1282C22.8719 12.7198 23.0582 12.3368 23.0582 11.9999C23.0582 11.663 22.8719 11.2801 22.3968 10.8717C21.9233 10.4646 21.2101 10.0763 20.2872 9.74066C19.9804 9.62908 19.6531 9.52433 19.3076 9.42723C19.0368 10.2533 18.6877 11.1179 18.2648 11.9995Z"/>
<path d="M18.3683 14.8075C17.7769 14.9384 17.1445 15.0486 16.479 15.1349C16.6751 14.8395 16.8675 14.5365 17.0555 14.2267C17.2856 13.8478 17.503 13.4686 17.7075 13.0909C17.9651 13.6793 18.1857 14.2541 18.3683 14.8075Z"/>
<path d="M13.684 18.6111C13.972 18.8716 14.2577 19.1098 14.5389 19.3242C15.3266 19.9249 16.0579 20.3228 16.6867 20.5098C17.3141 20.6964 17.7932 20.6614 18.1422 20.4698C18.4913 20.2781 18.7627 19.901 18.9064 19.2909C19.0505 18.6796 19.0539 17.8783 18.9007 16.9292C18.8391 16.5473 18.7529 16.1456 18.6424 15.7278C17.7515 15.9282 16.7782 16.0821 15.7473 16.1812C15.0801 17.0861 14.3838 17.9031 13.684 18.6111Z"/>
<path d="M13.0001 17.955C13.495 17.4529 13.9915 16.8899 14.4785 16.2737C13.9947 16.298 13.5011 16.3105 13.0001 16.3105C12.4991 16.3105 12.0056 16.298 11.5219 16.2737C12.0088 16.8899 12.5052 17.4529 13.0001 17.955Z"/>
<path d="M7.35828 15.7279C7.24796 16.1453 7.16181 16.5467 7.10029 16.9282C6.94723 17.8772 6.95061 18.6783 7.09474 19.2896C7.23857 19.8996 7.50994 20.2767 7.85904 20.4684C8.20814 20.6601 8.68722 20.695 9.31458 20.5085C9.94327 20.3216 10.6745 19.9238 11.4622 19.3232C11.743 19.1091 12.0284 18.8712 12.3161 18.6111C11.6164 17.903 10.9202 17.086 10.2531 16.1812C9.22226 16.0821 8.24907 15.9283 7.35828 15.7279Z"/>
<path d="M8.29292 13.091C8.03538 13.6794 7.81487 14.2541 7.6323 14.8075C8.22364 14.9384 8.85599 15.0486 9.52139 15.1349C9.32536 14.8395 9.13294 14.5365 8.94487 14.2267C8.71485 13.8478 8.49742 13.4687 8.29292 13.091Z"/>
<path d="M6.69263 9.42723C6.96353 10.2533 7.31266 11.118 7.73565 11.9996C7.31255 12.8814 6.96336 13.7463 6.69246 14.5726C6.34695 14.4755 6.01978 14.3707 5.71298 14.2592C4.79006 13.9236 4.07688 13.5353 3.60338 13.1282C3.12833 12.7198 2.94204 12.3368 2.94204 11.9999C2.94204 11.663 3.12833 11.2801 3.60338 10.8717C4.07688 10.4646 4.79006 10.0763 5.71298 9.74066C6.01983 9.62907 6.34706 9.52433 6.69263 9.42723Z"/>
<path d="M7.63248 9.19225C8.22365 9.06139 8.8558 8.95122 9.52098 8.86494C9.32495 9.1604 9.13254 9.46333 8.94448 9.77311C8.7146 10.1518 8.4973 10.5307 8.29292 10.9081C8.03548 10.3199 7.81503 9.74544 7.63248 9.19225Z"/>
</mask>
<path d="M14.9159 11.9999C14.9159 13.058 14.0582 13.9157 13.0001 13.9157C11.942 13.9157 11.0843 13.058 11.0843 11.9999C11.0843 10.9418 11.942 10.0841 13.0001 10.0841C14.0582 10.0841 14.9159 10.9418 14.9159 11.9999Z" fill="white"/>
<path fill-rule="evenodd" clip-rule="evenodd" d="M13.0004 4.73193C12.6843 4.44492 12.3692 4.18157 12.0574 3.94383C11.2117 3.29895 10.3702 2.82668 9.58348 2.5927C8.79541 2.35833 8.01639 2.35165 7.36149 2.71124C6.70659 3.07083 6.32317 3.7158 6.14256 4.48205C5.96225 5.24702 5.97154 6.17623 6.13594 7.19519C6.20368 7.61504 6.29844 8.05434 6.41941 8.50901C6.05655 8.61131 5.71126 8.722 5.38563 8.84042C4.40173 9.1982 3.5718 9.63554 2.97889 10.1453C2.38754 10.6537 1.98413 11.2788 1.98413 11.9999C1.98413 12.7211 2.38754 13.3461 2.97889 13.8545C3.5718 14.3643 4.40173 14.8016 5.38563 15.1594C5.71123 15.2778 6.05649 15.3885 6.41931 15.4908C6.29848 15.9451 6.20382 16.3841 6.13615 16.8037C5.97183 17.8225 5.9626 18.7516 6.14296 19.5165C6.32362 20.2827 6.70707 20.9276 7.36195 21.2872C8.01682 21.6468 8.7958 21.6402 9.58383 21.4059C10.3705 21.172 11.212 20.6998 12.0576 20.055C12.3692 19.8175 12.6841 19.5543 13 19.2676C13.3163 19.5547 13.6315 19.8182 13.9434 20.056C14.7891 20.7009 15.6306 21.1731 16.4173 21.4071C17.2054 21.6415 17.9844 21.6482 18.6393 21.2886C19.2942 20.929 19.6776 20.284 19.8582 19.5178C20.0386 18.7528 20.0293 17.8236 19.8649 16.8046C19.7971 16.3847 19.7023 15.9454 19.5814 15.4907C19.944 15.3884 20.2891 15.2778 20.6146 15.1594C21.5985 14.8016 22.4284 14.3643 23.0213 13.8545C23.6126 13.3461 24.0161 12.7211 24.0161 11.9999C24.0161 11.2788 23.6126 10.6537 23.0213 10.1453C22.4284 9.63554 21.5985 9.1982 20.6146 8.84042C20.2889 8.722 19.9436 8.61129 19.5807 8.50899C19.7016 8.05468 19.7962 7.61571 19.8639 7.19617C20.0282 6.17734 20.0374 5.24822 19.8571 4.48332C19.6764 3.71714 19.2929 3.07224 18.6381 2.71266C17.9832 2.35308 17.2042 2.35971 16.4162 2.594C15.6295 2.8279 14.788 3.30006 13.9424 3.94482C13.631 4.18228 13.3162 4.4453 13.0004 4.73193ZM9.31416 3.49006C8.68674 3.30347 8.20765 3.3384 7.85858 3.53007C7.50951 3.72174 7.23815 4.09886 7.09436 4.70891C6.95027 5.32024 6.94694 6.12153 7.10007 7.07067C7.16167 7.45244 7.24792 7.85414 7.35838 8.27195C8.24904 8.07154 9.22207 7.91774 10.2528 7.81862C10.92 6.9136 11.6165 6.09647 12.3164 5.38833C12.0285 5.12802 11.7429 4.88993 11.4619 4.67565C10.6742 4.07495 9.94288 3.67705 9.31416 3.49006ZM13.0004 6.04447C12.5053 6.5466 12.0086 7.10978 11.5215 7.72614C12.0054 7.70184 12.499 7.68932 13.0001 7.68932C13.5013 7.68932 13.995 7.70185 14.479 7.72615C13.9919 7.10982 13.4954 6.54663 13.0004 6.04447ZM9.52098 8.86494C8.8558 8.95122 8.22365 9.06139 7.63248 9.19225C7.81503 9.74544 8.03548 10.3199 8.29292 10.9081C8.4973 10.5307 8.7146 10.1518 8.94448 9.77311C9.13254 9.46333 9.32495 9.1604 9.52098 8.86494ZM8.80582 11.9996C9.09814 11.4173 9.42452 10.8265 9.78414 10.2342C10.1014 9.71153 10.4305 9.21084 10.7673 8.73492C11.4849 8.67759 12.232 8.64723 13.0001 8.64723C13.7683 8.64723 14.5154 8.6776 15.2332 8.73494C15.57 9.21086 15.899 9.71153 16.2163 10.2341C16.5759 10.8265 16.9023 11.4172 17.1946 11.9995C16.9022 12.582 16.5757 13.1731 16.2159 13.7657C15.8986 14.2883 15.5696 14.789 15.2327 15.2649C14.5151 15.3222 13.7681 15.3526 13.0001 15.3526C12.2322 15.3526 11.4852 15.3222 10.7677 15.2649C10.4309 14.789 10.1018 14.2883 9.78453 13.7657C9.42477 13.1731 9.09825 12.5821 8.80582 11.9996ZM7.73565 11.9996C7.31266 11.118 6.96353 10.2533 6.69263 9.42723C6.34706 9.52433 6.01983 9.62907 5.71298 9.74066C4.79006 10.0763 4.07688 10.4646 3.60338 10.8717C3.12833 11.2801 2.94204 11.663 2.94204 11.9999C2.94204 12.3368 3.12833 12.7198 3.60338 13.1282C4.07688 13.5353 4.79006 13.9236 5.71298 14.2592C6.01978 14.3707 6.34695 14.4755 6.69246 14.5726C6.96336 13.7463 7.31255 12.8814 7.73565 11.9996ZM7.6323 14.8075C7.81487 14.2541 8.03538 13.6794 8.29292 13.091C8.49742 13.4687 8.71485 13.8478 8.94487 14.2267C9.13294 14.5365 9.32536 14.8395 9.52139 15.1349C8.85599 15.0486 8.22364 14.9384 7.6323 14.8075ZM7.35828 15.7279C7.24796 16.1453 7.16181 16.5467 7.10029 16.9282C6.94723 17.8772 6.95061 18.6783 7.09474 19.2896C7.23857 19.8996 7.50994 20.2767 7.85904 20.4684C8.20814 20.6601 8.68722 20.695 9.31458 20.5085C9.94327 20.3216 10.6745 19.9238 11.4622 19.3232C11.743 19.1091 12.0284 18.8712 12.3161 18.6111C11.6164 17.903 10.9202 17.086 10.2531 16.1812C9.22226 16.0821 8.24907 15.9283 7.35828 15.7279ZM13.684 18.6111C13.972 18.8716 14.2577 19.1098 14.5389 19.3242C15.3266 19.9249 16.0579 20.3228 16.6867 20.5098C17.3141 20.6964 17.7932 20.6614 18.1422 20.4698C18.4913 20.2781 18.7627 19.901 18.9064 19.2909C19.0505 18.6796 19.0539 17.8783 18.9007 16.9292C18.8391 16.5473 18.7529 16.1456 18.6424 15.7278C17.7515 15.9282 16.7782 16.0821 15.7473 16.1812C15.0801 17.0861 14.3838 17.9031 13.684 18.6111ZM14.4785 16.2737C13.9915 16.8899 13.495 17.4529 13.0001 17.955C12.5052 17.4529 12.0088 16.8899 11.5219 16.2737C12.0056 16.298 12.4991 16.3105 13.0001 16.3105C13.5011 16.3105 13.9947 16.298 14.4785 16.2737ZM16.479 15.1349C17.1445 15.0486 17.7769 14.9384 18.3683 14.8075C18.1857 14.2541 17.9651 13.6793 17.7075 13.0909C17.503 13.4686 17.2856 13.8478 17.0555 14.2267C16.8675 14.5365 16.6751 14.8395 16.479 15.1349ZM18.2648 11.9995C18.6879 12.8813 19.0371 13.7462 19.3081 14.5724C19.6535 14.4754 19.9805 14.3707 20.2872 14.2592C21.2101 13.9236 21.9233 13.5353 22.3968 13.1282C22.8719 12.7198 23.0582 12.3368 23.0582 11.9999C23.0582 11.663 22.8719 11.2801 22.3968 10.8717C21.9233 10.4646 21.2101 10.0763 20.2872 9.74066C19.9804 9.62908 19.6531 9.52433 19.3076 9.42723C19.0368 10.2533 18.6877 11.1179 18.2648 11.9995ZM18.6418 8.27193C17.7512 8.07155 16.7783 7.91777 15.7477 7.81864C15.0806 6.91368 14.3842 6.09657 13.6844 5.3884C13.9719 5.12846 14.2572 4.89069 14.5379 4.67667C15.3255 4.07611 16.0568 3.6783 16.6854 3.49138C17.3128 3.30486 17.7919 3.33981 18.141 3.53149C18.4901 3.72317 18.7614 4.10028 18.9053 4.71026C19.0494 5.32151 19.0528 6.1227 18.8997 7.0717C18.8382 7.45316 18.7521 7.8545 18.6418 8.27193ZM18.3677 9.19225C18.1853 9.74541 17.9649 10.3199 17.7075 10.9081C17.5031 10.5306 17.2858 10.1517 17.0559 9.7731C16.8679 9.46333 16.6755 9.16042 16.4795 8.86498C17.1446 8.95126 17.7766 9.06141 18.3677 9.19225Z" fill="white"/>
<path d="M7.85858 3.53007C8.20765 3.3384 8.68674 3.30347 9.31416 3.49006C9.94288 3.67705 10.6742 4.07495 11.4619 4.67565C11.7429 4.88993 12.0285 5.12802 12.3164 5.38833C11.6165 6.09647 10.92 6.9136 10.2528 7.81862C9.22207 7.91774 8.24904 8.07154 7.35838 8.27195C7.24792 7.85414 7.16167 7.45244 7.10007 7.07067C6.94694 6.12153 6.95027 5.32024 7.09436 4.70891C7.23815 4.09886 7.50951 3.72174 7.85858 3.53007Z" fill="white"/>
<path d="M15.7477 7.81864C16.7783 7.91777 17.7512 8.07155 18.6418 8.27193C18.7521 7.8545 18.8382 7.45316 18.8997 7.0717C19.0528 6.1227 19.0494 5.32151 18.9053 4.71026C18.7614 4.10028 18.4901 3.72317 18.141 3.53149C17.7919 3.33981 17.3128 3.30486 16.6854 3.49138C16.0568 3.6783 15.3255 4.07611 14.5379 4.67667C14.2572 4.89069 13.9719 5.12846 13.6844 5.3884C14.3842 6.09657 15.0806 6.91368 15.7477 7.81864Z" fill="white"/>
<path d="M13.0004 6.04447C12.5053 6.5466 12.0086 7.10978 11.5215 7.72614C12.0054 7.70184 12.499 7.68932 13.0001 7.68932C13.5013 7.68932 13.995 7.70185 14.479 7.72615C13.9919 7.10982 13.4954 6.54663 13.0004 6.04447Z" fill="white"/>
<path fill-rule="evenodd" clip-rule="evenodd" d="M9.78414 10.2342C9.42452 10.8265 9.09814 11.4173 8.80582 11.9996C9.09825 12.5821 9.42477 13.1731 9.78453 13.7657C10.1018 14.2883 10.4309 14.789 10.7677 15.2649C11.4852 15.3222 12.2322 15.3526 13.0001 15.3526C13.7681 15.3526 14.5151 15.3222 15.2327 15.2649C15.5696 14.789 15.8986 14.2883 16.2159 13.7657C16.5757 13.1731 16.9022 12.582 17.1946 11.9995C16.9023 11.4172 16.5759 10.8265 16.2163 10.2341C15.899 9.71153 15.57 9.21086 15.2332 8.73494C14.5154 8.6776 13.7683 8.64723 13.0001 8.64723C12.232 8.64723 11.4849 8.67759 10.7673 8.73492C10.4305 9.21084 10.1014 9.71153 9.78414 10.2342ZM14.9159 11.9999C14.9159 13.058 14.0582 13.9157 13.0001 13.9157C11.942 13.9157 11.0843 13.058 11.0843 11.9999C11.0843 10.9418 11.942 10.0841 13.0001 10.0841C14.0582 10.0841 14.9159 10.9418 14.9159 11.9999Z" fill="white"/>
<path d="M17.7075 10.9081C17.9649 10.3199 18.1853 9.74541 18.3677 9.19225C17.7766 9.06141 17.1446 8.95126 16.4795 8.86498C16.6755 9.16042 16.8679 9.46333 17.0559 9.7731C17.2858 10.1517 17.5031 10.5306 17.7075 10.9081Z" fill="white"/>
<path d="M18.2648 11.9995C18.6879 12.8813 19.0371 13.7462 19.3081 14.5724C19.6535 14.4754 19.9805 14.3707 20.2872 14.2592C21.2101 13.9236 21.9233 13.5353 22.3968 13.1282C22.8719 12.7198 23.0582 12.3368 23.0582 11.9999C23.0582 11.663 22.8719 11.2801 22.3968 10.8717C21.9233 10.4646 21.2101 10.0763 20.2872 9.74066C19.9804 9.62908 19.6531 9.52433 19.3076 9.42723C19.0368 10.2533 18.6877 11.1179 18.2648 11.9995Z" fill="white"/>
<path d="M18.3683 14.8075C17.7769 14.9384 17.1445 15.0486 16.479 15.1349C16.6751 14.8395 16.8675 14.5365 17.0555 14.2267C17.2856 13.8478 17.503 13.4686 17.7075 13.0909C17.9651 13.6793 18.1857 14.2541 18.3683 14.8075Z" fill="white"/>
<path d="M13.684 18.6111C13.972 18.8716 14.2577 19.1098 14.5389 19.3242C15.3266 19.9249 16.0579 20.3228 16.6867 20.5098C17.3141 20.6964 17.7932 20.6614 18.1422 20.4698C18.4913 20.2781 18.7627 19.901 18.9064 19.2909C19.0505 18.6796 19.0539 17.8783 18.9007 16.9292C18.8391 16.5473 18.7529 16.1456 18.6424 15.7278C17.7515 15.9282 16.7782 16.0821 15.7473 16.1812C15.0801 17.0861 14.3838 17.9031 13.684 18.6111Z" fill="white"/>
<path d="M13.0001 17.955C13.495 17.4529 13.9915 16.8899 14.4785 16.2737C13.9947 16.298 13.5011 16.3105 13.0001 16.3105C12.4991 16.3105 12.0056 16.298 11.5219 16.2737C12.0088 16.8899 12.5052 17.4529 13.0001 17.955Z" fill="white"/>
<path d="M7.35828 15.7279C7.24796 16.1453 7.16181 16.5467 7.10029 16.9282C6.94723 17.8772 6.95061 18.6783 7.09474 19.2896C7.23857 19.8996 7.50994 20.2767 7.85904 20.4684C8.20814 20.6601 8.68722 20.695 9.31458 20.5085C9.94327 20.3216 10.6745 19.9238 11.4622 19.3232C11.743 19.1091 12.0284 18.8712 12.3161 18.6111C11.6164 17.903 10.9202 17.086 10.2531 16.1812C9.22226 16.0821 8.24907 15.9283 7.35828 15.7279Z" fill="white"/>
<path d="M8.29292 13.091C8.03538 13.6794 7.81487 14.2541 7.6323 14.8075C8.22364 14.9384 8.85599 15.0486 9.52139 15.1349C9.32536 14.8395 9.13294 14.5365 8.94487 14.2267C8.71485 13.8478 8.49742 13.4687 8.29292 13.091Z" fill="white"/>
<path d="M6.69263 9.42723C6.96353 10.2533 7.31266 11.118 7.73565 11.9996C7.31255 12.8814 6.96336 13.7463 6.69246 14.5726C6.34695 14.4755 6.01978 14.3707 5.71298 14.2592C4.79006 13.9236 4.07688 13.5353 3.60338 13.1282C3.12833 12.7198 2.94204 12.3368 2.94204 11.9999C2.94204 11.663 3.12833 11.2801 3.60338 10.8717C4.07688 10.4646 4.79006 10.0763 5.71298 9.74066C6.01983 9.62907 6.34706 9.52433 6.69263 9.42723Z" fill="white"/>
<path d="M7.63248 9.19225C8.22365 9.06139 8.8558 8.95122 9.52098 8.86494C9.32495 9.1604 9.13254 9.46333 8.94448 9.77311C8.7146 10.1518 8.4973 10.5307 8.29292 10.9081C8.03548 10.3199 7.81503 9.74544 7.63248 9.19225Z" fill="white"/>
<path d="M14.9159 11.9999C14.9159 13.058 14.0582 13.9157 13.0001 13.9157C11.942 13.9157 11.0843 13.058 11.0843 11.9999C11.0843 10.9418 11.942 10.0841 13.0001 10.0841C14.0582 10.0841 14.9159 10.9418 14.9159 11.9999Z" stroke="white" stroke-width="2" mask="url(#path-1-outside-1_5_583)"/>
<path fill-rule="evenodd" clip-rule="evenodd" d="M13.0004 4.73193C12.6843 4.44492 12.3692 4.18157 12.0574 3.94383C11.2117 3.29895 10.3702 2.82668 9.58348 2.5927C8.79541 2.35833 8.01639 2.35165 7.36149 2.71124C6.70659 3.07083 6.32317 3.7158 6.14256 4.48205C5.96225 5.24702 5.97154 6.17623 6.13594 7.19519C6.20368 7.61504 6.29844 8.05434 6.41941 8.50901C6.05655 8.61131 5.71126 8.722 5.38563 8.84042C4.40173 9.1982 3.5718 9.63554 2.97889 10.1453C2.38754 10.6537 1.98413 11.2788 1.98413 11.9999C1.98413 12.7211 2.38754 13.3461 2.97889 13.8545C3.5718 14.3643 4.40173 14.8016 5.38563 15.1594C5.71123 15.2778 6.05649 15.3885 6.41931 15.4908C6.29848 15.9451 6.20382 16.3841 6.13615 16.8037C5.97183 17.8225 5.9626 18.7516 6.14296 19.5165C6.32362 20.2827 6.70707 20.9276 7.36195 21.2872C8.01682 21.6468 8.7958 21.6402 9.58383 21.4059C10.3705 21.172 11.212 20.6998 12.0576 20.055C12.3692 19.8175 12.6841 19.5543 13 19.2676C13.3163 19.5547 13.6315 19.8182 13.9434 20.056C14.7891 20.7009 15.6306 21.1731 16.4173 21.4071C17.2054 21.6415 17.9844 21.6482 18.6393 21.2886C19.2942 20.929 19.6776 20.284 19.8582 19.5178C20.0386 18.7528 20.0293 17.8236 19.8649 16.8046C19.7971 16.3847 19.7023 15.9454 19.5814 15.4907C19.944 15.3884 20.2891 15.2778 20.6146 15.1594C21.5985 14.8016 22.4284 14.3643 23.0213 13.8545C23.6126 13.3461 24.0161 12.7211 24.0161 11.9999C24.0161 11.2788 23.6126 10.6537 23.0213 10.1453C22.4284 9.63554 21.5985 9.1982 20.6146 8.84042C20.2889 8.722 19.9436 8.61129 19.5807 8.50899C19.7016 8.05468 19.7962 7.61571 19.8639 7.19617C20.0282 6.17734 20.0374 5.24822 19.8571 4.48332C19.6764 3.71714 19.2929 3.07224 18.6381 2.71266C17.9832 2.35308 17.2042 2.35971 16.4162 2.594C15.6295 2.8279 14.788 3.30006 13.9424 3.94482C13.631 4.18228 13.3162 4.4453 13.0004 4.73193ZM9.31416 3.49006C8.68674 3.30347 8.20765 3.3384 7.85858 3.53007C7.50951 3.72174 7.23815 4.09886 7.09436 4.70891C6.95027 5.32024 6.94694 6.12153 7.10007 7.07067C7.16167 7.45244 7.24792 7.85414 7.35838 8.27195C8.24904 8.07154 9.22207 7.91774 10.2528 7.81862C10.92 6.9136 11.6165 6.09647 12.3164 5.38833C12.0285 5.12802 11.7429 4.88993 11.4619 4.67565C10.6742 4.07495 9.94288 3.67705 9.31416 3.49006ZM13.0004 6.04447C12.5053 6.5466 12.0086 7.10978 11.5215 7.72614C12.0054 7.70184 12.499 7.68932 13.0001 7.68932C13.5013 7.68932 13.995 7.70185 14.479 7.72615C13.9919 7.10982 13.4954 6.54663 13.0004 6.04447ZM9.52098 8.86494C8.8558 8.95122 8.22365 9.06139 7.63248 9.19225C7.81503 9.74544 8.03548 10.3199 8.29292 10.9081C8.4973 10.5307 8.7146 10.1518 8.94448 9.77311C9.13254 9.46333 9.32495 9.1604 9.52098 8.86494ZM8.80582 11.9996C9.09814 11.4173 9.42452 10.8265 9.78414 10.2342C10.1014 9.71153 10.4305 9.21084 10.7673 8.73492C11.4849 8.67759 12.232 8.64723 13.0001 8.64723C13.7683 8.64723 14.5154 8.6776 15.2332 8.73494C15.57 9.21086 15.899 9.71153 16.2163 10.2341C16.5759 10.8265 16.9023 11.4172 17.1946 11.9995C16.9022 12.582 16.5757 13.1731 16.2159 13.7657C15.8986 14.2883 15.5696 14.789 15.2327 15.2649C14.5151 15.3222 13.7681 15.3526 13.0001 15.3526C12.2322 15.3526 11.4852 15.3222 10.7677 15.2649C10.4309 14.789 10.1018 14.2883 9.78453 13.7657C9.42477 13.1731 9.09825 12.5821 8.80582 11.9996ZM7.73565 11.9996C7.31266 11.118 6.96353 10.2533 6.69263 9.42723C6.34706 9.52433 6.01983 9.62907 5.71298 9.74066C4.79006 10.0763 4.07688 10.4646 3.60338 10.8717C3.12833 11.2801 2.94204 11.663 2.94204 11.9999C2.94204 12.3368 3.12833 12.7198 3.60338 13.1282C4.07688 13.5353 4.79006 13.9236 5.71298 14.2592C6.01978 14.3707 6.34695 14.4755 6.69246 14.5726C6.96336 13.7463 7.31255 12.8814 7.73565 11.9996ZM7.6323 14.8075C7.81487 14.2541 8.03538 13.6794 8.29292 13.091C8.49742 13.4687 8.71485 13.8478 8.94487 14.2267C9.13294 14.5365 9.32536 14.8395 9.52139 15.1349C8.85599 15.0486 8.22364 14.9384 7.6323 14.8075ZM7.35828 15.7279C7.24796 16.1453 7.16181 16.5467 7.10029 16.9282C6.94723 17.8772 6.95061 18.6783 7.09474 19.2896C7.23857 19.8996 7.50994 20.2767 7.85904 20.4684C8.20814 20.6601 8.68722 20.695 9.31458 20.5085C9.94327 20.3216 10.6745 19.9238 11.4622 19.3232C11.743 19.1091 12.0284 18.8712 12.3161 18.6111C11.6164 17.903 10.9202 17.086 10.2531 16.1812C9.22226 16.0821 8.24907 15.9283 7.35828 15.7279ZM13.684 18.6111C13.972 18.8716 14.2577 19.1098 14.5389 19.3242C15.3266 19.9249 16.0579 20.3228 16.6867 20.5098C17.3141 20.6964 17.7932 20.6614 18.1422 20.4698C18.4913 20.2781 18.7627 19.901 18.9064 19.2909C19.0505 18.6796 19.0539 17.8783 18.9007 16.9292C18.8391 16.5473 18.7529 16.1456 18.6424 15.7278C17.7515 15.9282 16.7782 16.0821 15.7473 16.1812C15.0801 17.0861 14.3838 17.9031 13.684 18.6111ZM14.4785 16.2737C13.9915 16.8899 13.495 17.4529 13.0001 17.955C12.5052 17.4529 12.0088 16.8899 11.5219 16.2737C12.0056 16.298 12.4991 16.3105 13.0001 16.3105C13.5011 16.3105 13.9947 16.298 14.4785 16.2737ZM16.479 15.1349C17.1445 15.0486 17.7769 14.9384 18.3683 14.8075C18.1857 14.2541 17.9651 13.6793 17.7075 13.0909C17.503 13.4686 17.2856 13.8478 17.0555 14.2267C16.8675 14.5365 16.6751 14.8395 16.479 15.1349ZM18.2648 11.9995C18.6879 12.8813 19.0371 13.7462 19.3081 14.5724C19.6535 14.4754 19.9805 14.3707 20.2872 14.2592C21.2101 13.9236 21.9233 13.5353 22.3968 13.1282C22.8719 12.7198 23.0582 12.3368 23.0582 11.9999C23.0582 11.663 22.8719 11.2801 22.3968 10.8717C21.9233 10.4646 21.2101 10.0763 20.2872 9.74066C19.9804 9.62908 19.6531 9.52433 19.3076 9.42723C19.0368 10.2533 18.6877 11.1179 18.2648 11.9995ZM18.6418 8.27193C17.7512 8.07155 16.7783 7.91777 15.7477 7.81864C15.0806 6.91368 14.3842 6.09657 13.6844 5.3884C13.9719 5.12846 14.2572 4.89069 14.5379 4.67667C15.3255 4.07611 16.0568 3.6783 16.6854 3.49138C17.3128 3.30486 17.7919 3.33981 18.141 3.53149C18.4901 3.72317 18.7614 4.10028 18.9053 4.71026C19.0494 5.32151 19.0528 6.1227 18.8997 7.0717C18.8382 7.45316 18.7521 7.8545 18.6418 8.27193ZM18.3677 9.19225C18.1853 9.74541 17.9649 10.3199 17.7075 10.9081C17.5031 10.5306 17.2858 10.1517 17.0559 9.7731C16.8679 9.46333 16.6755 9.16042 16.4795 8.86498C17.1446 8.95126 17.7766 9.06141 18.3677 9.19225Z" stroke="white" stroke-width="2" mask="url(#path-1-outside-1_5_583)"/>
<path d="M7.85858 3.53007C8.20765 3.3384 8.68674 3.30347 9.31416 3.49006C9.94288 3.67705 10.6742 4.07495 11.4619 4.67565C11.7429 4.88993 12.0285 5.12802 12.3164 5.38833C11.6165 6.09647 10.92 6.9136 10.2528 7.81862C9.22207 7.91774 8.24904 8.07154 7.35838 8.27195C7.24792 7.85414 7.16167 7.45244 7.10007 7.07067C6.94694 6.12153 6.95027 5.32024 7.09436 4.70891C7.23815 4.09886 7.50951 3.72174 7.85858 3.53007Z" stroke="white" stroke-width="2" mask="url(#path-1-outside-1_5_583)"/>
<path d="M15.7477 7.81864C16.7783 7.91777 17.7512 8.07155 18.6418 8.27193C18.7521 7.8545 18.8382 7.45316 18.8997 7.0717C19.0528 6.1227 19.0494 5.32151 18.9053 4.71026C18.7614 4.10028 18.4901 3.72317 18.141 3.53149C17.7919 3.33981 17.3128 3.30486 16.6854 3.49138C16.0568 3.6783 15.3255 4.07611 14.5379 4.67667C14.2572 4.89069 13.9719 5.12846 13.6844 5.3884C14.3842 6.09657 15.0806 6.91368 15.7477 7.81864Z" stroke="white" stroke-width="2" mask="url(#path-1-outside-1_5_583)"/>
<path d="M13.0004 6.04447C12.5053 6.5466 12.0086 7.10978 11.5215 7.72614C12.0054 7.70184 12.499 7.68932 13.0001 7.68932C13.5013 7.68932 13.995 7.70185 14.479 7.72615C13.9919 7.10982 13.4954 6.54663 13.0004 6.04447Z" stroke="white" stroke-width="2" mask="url(#path-1-outside-1_5_583)"/>
<path fill-rule="evenodd" clip-rule="evenodd" d="M9.78414 10.2342C9.42452 10.8265 9.09814 11.4173 8.80582 11.9996C9.09825 12.5821 9.42477 13.1731 9.78453 13.7657C10.1018 14.2883 10.4309 14.789 10.7677 15.2649C11.4852 15.3222 12.2322 15.3526 13.0001 15.3526C13.7681 15.3526 14.5151 15.3222 15.2327 15.2649C15.5696 14.789 15.8986 14.2883 16.2159 13.7657C16.5757 13.1731 16.9022 12.582 17.1946 11.9995C16.9023 11.4172 16.5759 10.8265 16.2163 10.2341C15.899 9.71153 15.57 9.21086 15.2332 8.73494C14.5154 8.6776 13.7683 8.64723 13.0001 8.64723C12.232 8.64723 11.4849 8.67759 10.7673 8.73492C10.4305 9.21084 10.1014 9.71153 9.78414 10.2342ZM14.9159 11.9999C14.9159 13.058 14.0582 13.9157 13.0001 13.9157C11.942 13.9157 11.0843 13.058 11.0843 11.9999C11.0843 10.9418 11.942 10.0841 13.0001 10.0841C14.0582 10.0841 14.9159 10.9418 14.9159 11.9999Z" stroke="white" stroke-width="2" mask="url(#path-1-outside-1_5_583)"/>
<path d="M17.7075 10.9081C17.9649 10.3199 18.1853 9.74541 18.3677 9.19225C17.7766 9.06141 17.1446 8.95126 16.4795 8.86498C16.6755 9.16042 16.8679 9.46333 17.0559 9.7731C17.2858 10.1517 17.5031 10.5306 17.7075 10.9081Z" stroke="white" stroke-width="2" mask="url(#path-1-outside-1_5_583)"/>
<path d="M18.2648 11.9995C18.6879 12.8813 19.0371 13.7462 19.3081 14.5724C19.6535 14.4754 19.9805 14.3707 20.2872 14.2592C21.2101 13.9236 21.9233 13.5353 22.3968 13.1282C22.8719 12.7198 23.0582 12.3368 23.0582 11.9999C23.0582 11.663 22.8719 11.2801 22.3968 10.8717C21.9233 10.4646 21.2101 10.0763 20.2872 9.74066C19.9804 9.62908 19.6531 9.52433 19.3076 9.42723C19.0368 10.2533 18.6877 11.1179 18.2648 11.9995Z" stroke="white" stroke-width="2" mask="url(#path-1-outside-1_5_583)"/>
<path d="M18.3683 14.8075C17.7769 14.9384 17.1445 15.0486 16.479 15.1349C16.6751 14.8395 16.8675 14.5365 17.0555 14.2267C17.2856 13.8478 17.503 13.4686 17.7075 13.0909C17.9651 13.6793 18.1857 14.2541 18.3683 14.8075Z" stroke="white" stroke-width="2" mask="url(#path-1-outside-1_5_583)"/>
<path d="M13.684 18.6111C13.972 18.8716 14.2577 19.1098 14.5389 19.3242C15.3266 19.9249 16.0579 20.3228 16.6867 20.5098C17.3141 20.6964 17.7932 20.6614 18.1422 20.4698C18.4913 20.2781 18.7627 19.901 18.9064 19.2909C19.0505 18.6796 19.0539 17.8783 18.9007 16.9292C18.8391 16.5473 18.7529 16.1456 18.6424 15.7278C17.7515 15.9282 16.7782 16.0821 15.7473 16.1812C15.0801 17.0861 14.3838 17.9031 13.684 18.6111Z" stroke="white" stroke-width="2" mask="url(#path-1-outside-1_5_583)"/>
<path d="M13.0001 17.955C13.495 17.4529 13.9915 16.8899 14.4785 16.2737C13.9947 16.298 13.5011 16.3105 13.0001 16.3105C12.4991 16.3105 12.0056 16.298 11.5219 16.2737C12.0088 16.8899 12.5052 17.4529 13.0001 17.955Z" stroke="white" stroke-width="2" mask="url(#path-1-outside-1_5_583)"/>
<path d="M7.35828 15.7279C7.24796 16.1453 7.16181 16.5467 7.10029 16.9282C6.94723 17.8772 6.95061 18.6783 7.09474 19.2896C7.23857 19.8996 7.50994 20.2767 7.85904 20.4684C8.20814 20.6601 8.68722 20.695 9.31458 20.5085C9.94327 20.3216 10.6745 19.9238 11.4622 19.3232C11.743 19.1091 12.0284 18.8712 12.3161 18.6111C11.6164 17.903 10.9202 17.086 10.2531 16.1812C9.22226 16.0821 8.24907 15.9283 7.35828 15.7279Z" stroke="white" stroke-width="2" mask="url(#path-1-outside-1_5_583)"/>
<path d="M8.29292 13.091C8.03538 13.6794 7.81487 14.2541 7.6323 14.8075C8.22364 14.9384 8.85599 15.0486 9.52139 15.1349C9.32536 14.8395 9.13294 14.5365 8.94487 14.2267C8.71485 13.8478 8.49742 13.4687 8.29292 13.091Z" stroke="white" stroke-width="2" mask="url(#path-1-outside-1_5_583)"/>
<path d="M6.69263 9.42723C6.96353 10.2533 7.31266 11.118 7.73565 11.9996C7.31255 12.8814 6.96336 13.7463 6.69246 14.5726C6.34695 14.4755 6.01978 14.3707 5.71298 14.2592C4.79006 13.9236 4.07688 13.5353 3.60338 13.1282C3.12833 12.7198 2.94204 12.3368 2.94204 11.9999C2.94204 11.663 3.12833 11.2801 3.60338 10.8717C4.07688 10.4646 4.79006 10.0763 5.71298 9.74066C6.01983 9.62907 6.34706 9.52433 6.69263 9.42723Z" stroke="white" stroke-width="2" mask="url(#path-1-outside-1_5_583)"/>
<path d="M7.63248 9.19225C8.22365 9.06139 8.8558 8.95122 9.52098 8.86494C9.32495 9.1604 9.13254 9.46333 8.94448 9.77311C8.7146 10.1518 8.4973 10.5307 8.29292 10.9081C8.03548 10.3199 7.81503 9.74544 7.63248 9.19225Z" stroke="white" stroke-width="2" mask="url(#path-1-outside-1_5_583)"/>
<path d="M14.9159 11.9999C14.9159 13.058 14.0582 13.9157 13.0001 13.9157C11.942 13.9157 11.0843 13.058 11.0843 11.9999C11.0843 10.9418 11.942 10.0841 13.0001 10.0841C14.0582 10.0841 14.9159 10.9418 14.9159 11.9999Z" fill="#087EA4"/>
<path fill-rule="evenodd" clip-rule="evenodd" d="M13.0004 4.73193C12.6843 4.44492 12.3692 4.18157 12.0574 3.94383C11.2117 3.29895 10.3702 2.82668 9.58348 2.5927C8.79541 2.35833 8.01639 2.35165 7.36149 2.71124C6.70659 3.07083 6.32317 3.7158 6.14256 4.48205C5.96225 5.24702 5.97154 6.17623 6.13594 7.19519C6.20368 7.61504 6.29844 8.05434 6.41941 8.50901C6.05655 8.61131 5.71126 8.722 5.38563 8.84042C4.40173 9.1982 3.5718 9.63554 2.97889 10.1453C2.38754 10.6537 1.98413 11.2788 1.98413 11.9999C1.98413 12.7211 2.38754 13.3461 2.97889 13.8545C3.5718 14.3643 4.40173 14.8016 5.38563 15.1594C5.71123 15.2778 6.05649 15.3885 6.41931 15.4908C6.29848 15.9451 6.20382 16.3841 6.13615 16.8037C5.97183 17.8225 5.9626 18.7516 6.14296 19.5165C6.32362 20.2827 6.70707 20.9276 7.36195 21.2872C8.01682 21.6468 8.7958 21.6402 9.58383 21.4059C10.3705 21.172 11.212 20.6998 12.0576 20.055C12.3692 19.8175 12.6841 19.5543 13 19.2676C13.3163 19.5547 13.6315 19.8182 13.9434 20.056C14.7891 20.7009 15.6306 21.1731 16.4173 21.4071C17.2054 21.6415 17.9844 21.6482 18.6393 21.2886C19.2942 20.929 19.6776 20.284 19.8582 19.5178C20.0386 18.7528 20.0293 17.8236 19.8649 16.8046C19.7971 16.3847 19.7023 15.9454 19.5814 15.4907C19.944 15.3884 20.2891 15.2778 20.6146 15.1594C21.5985 14.8016 22.4284 14.3643 23.0213 13.8545C23.6126 13.3461 24.0161 12.7211 24.0161 11.9999C24.0161 11.2788 23.6126 10.6537 23.0213 10.1453C22.4284 9.63554 21.5985 9.1982 20.6146 8.84042C20.2889 8.722 19.9436 8.61129 19.5807 8.50899C19.7016 8.05468 19.7962 7.61571 19.8639 7.19617C20.0282 6.17734 20.0374 5.24822 19.8571 4.48332C19.6764 3.71714 19.2929 3.07224 18.6381 2.71266C17.9832 2.35308 17.2042 2.35971 16.4162 2.594C15.6295 2.8279 14.788 3.30006 13.9424 3.94482C13.631 4.18228 13.3162 4.4453 13.0004 4.73193ZM9.31416 3.49006C8.68674 3.30347 8.20765 3.3384 7.85858 3.53007C7.50951 3.72174 7.23815 4.09886 7.09436 4.70891C6.95027 5.32024 6.94694 6.12153 7.10007 7.07067C7.16167 7.45244 7.24792 7.85414 7.35838 8.27195C8.24904 8.07154 9.22207 7.91774 10.2528 7.81862C10.92 6.9136 11.6165 6.09647 12.3164 5.38833C12.0285 5.12802 11.7429 4.88993 11.4619 4.67565C10.6742 4.07495 9.94288 3.67705 9.31416 3.49006ZM13.0004 6.04447C12.5053 6.5466 12.0086 7.10978 11.5215 7.72614C12.0054 7.70184 12.499 7.68932 13.0001 7.68932C13.5013 7.68932 13.995 7.70185 14.479 7.72615C13.9919 7.10982 13.4954 6.54663 13.0004 6.04447ZM9.52098 8.86494C8.8558 8.95122 8.22365 9.06139 7.63248 9.19225C7.81503 9.74544 8.03548 10.3199 8.29292 10.9081C8.4973 10.5307 8.7146 10.1518 8.94448 9.77311C9.13254 9.46333 9.32495 9.1604 9.52098 8.86494ZM8.80582 11.9996C9.09814 11.4173 9.42452 10.8265 9.78414 10.2342C10.1014 9.71153 10.4305 9.21084 10.7673 8.73492C11.4849 8.67759 12.232 8.64723 13.0001 8.64723C13.7683 8.64723 14.5154 8.6776 15.2332 8.73494C15.57 9.21086 15.899 9.71153 16.2163 10.2341C16.5759 10.8265 16.9023 11.4172 17.1946 11.9995C16.9022 12.582 16.5757 13.1731 16.2159 13.7657C15.8986 14.2883 15.5696 14.789 15.2327 15.2649C14.5151 15.3222 13.7681 15.3526 13.0001 15.3526C12.2322 15.3526 11.4852 15.3222 10.7677 15.2649C10.4309 14.789 10.1018 14.2883 9.78453 13.7657C9.42477 13.1731 9.09825 12.5821 8.80582 11.9996ZM7.73565 11.9996C7.31266 11.118 6.96353 10.2533 6.69263 9.42723C6.34706 9.52433 6.01983 9.62907 5.71298 9.74066C4.79006 10.0763 4.07688 10.4646 3.60338 10.8717C3.12833 11.2801 2.94204 11.663 2.94204 11.9999C2.94204 12.3368 3.12833 12.7198 3.60338 13.1282C4.07688 13.5353 4.79006 13.9236 5.71298 14.2592C6.01978 14.3707 6.34695 14.4755 6.69246 14.5726C6.96336 13.7463 7.31255 12.8814 7.73565 11.9996ZM7.6323 14.8075C7.81487 14.2541 8.03538 13.6794 8.29292 13.091C8.49742 13.4687 8.71485 13.8478 8.94487 14.2267C9.13294 14.5365 9.32536 14.8395 9.52139 15.1349C8.85599 15.0486 8.22364 14.9384 7.6323 14.8075ZM7.35828 15.7279C7.24796 16.1453 7.16181 16.5467 7.10029 16.9282C6.94723 17.8772 6.95061 18.6783 7.09474 19.2896C7.23857 19.8996 7.50994 20.2767 7.85904 20.4684C8.20814 20.6601 8.68722 20.695 9.31458 20.5085C9.94327 20.3216 10.6745 19.9238 11.4622 19.3232C11.743 19.1091 12.0284 18.8712 12.3161 18.6111C11.6164 17.903 10.9202 17.086 10.2531 16.1812C9.22226 16.0821 8.24907 15.9283 7.35828 15.7279ZM13.684 18.6111C13.972 18.8716 14.2577 19.1098 14.5389 19.3242C15.3266 19.9249 16.0579 20.3228 16.6867 20.5098C17.3141 20.6964 17.7932 20.6614 18.1422 20.4698C18.4913 20.2781 18.7627 19.901 18.9064 19.2909C19.0505 18.6796 19.0539 17.8783 18.9007 16.9292C18.8391 16.5473 18.7529 16.1456 18.6424 15.7278C17.7515 15.9282 16.7782 16.0821 15.7473 16.1812C15.0801 17.0861 14.3838 17.9031 13.684 18.6111ZM14.4785 16.2737C13.9915 16.8899 13.495 17.4529 13.0001 17.955C12.5052 17.4529 12.0088 16.8899 11.5219 16.2737C12.0056 16.298 12.4991 16.3105 13.0001 16.3105C13.5011 16.3105 13.9947 16.298 14.4785 16.2737ZM16.479 15.1349C17.1445 15.0486 17.7769 14.9384 18.3683 14.8075C18.1857 14.2541 17.9651 13.6793 17.7075 13.0909C17.503 13.4686 17.2856 13.8478 17.0555 14.2267C16.8675 14.5365 16.6751 14.8395 16.479 15.1349ZM18.2648 11.9995C18.6879 12.8813 19.0371 13.7462 19.3081 14.5724C19.6535 14.4754 19.9805 14.3707 20.2872 14.2592C21.2101 13.9236 21.9233 13.5353 22.3968 13.1282C22.8719 12.7198 23.0582 12.3368 23.0582 11.9999C23.0582 11.663 22.8719 11.2801 22.3968 10.8717C21.9233 10.4646 21.2101 10.0763 20.2872 9.74066C19.9804 9.62908 19.6531 9.52433 19.3076 9.42723C19.0368 10.2533 18.6877 11.1179 18.2648 11.9995ZM18.6418 8.27193C17.7512 8.07155 16.7783 7.91777 15.7477 7.81864C15.0806 6.91368 14.3842 6.09657 13.6844 5.3884C13.9719 5.12846 14.2572 4.89069 14.5379 4.67667C15.3255 4.07611 16.0568 3.6783 16.6854 3.49138C17.3128 3.30486 17.7919 3.33981 18.141 3.53149C18.4901 3.72317 18.7614 4.10028 18.9053 4.71026C19.0494 5.32151 19.0528 6.1227 18.8997 7.0717C18.8382 7.45316 18.7521 7.8545 18.6418 8.27193ZM18.3677 9.19225C18.1853 9.74541 17.9649 10.3199 17.7075 10.9081C17.5031 10.5306 17.2858 10.1517 17.0559 9.7731C16.8679 9.46333 16.6755 9.16042 16.4795 8.86498C17.1446 8.95126 17.7766 9.06141 18.3677 9.19225Z" fill="#087EA4"/>
</svg>
