<svg width="32" height="32" viewBox="0 0 32 32" fill="none" xmlns="http://www.w3.org/2000/svg">
<mask id="path-1-outside-1_1359_21845" maskUnits="userSpaceOnUse" x="1" y="2" width="30" height="29" fill="black">
<rect fill="white" x="1" y="2" width="30" height="29"/>
<path fill-rule="evenodd" clip-rule="evenodd" d="M3 5V16C3 16.5523 3.44772 17 4 17H7V20L10 17H14V25C14 25.5523 14.4477 26 15 26H22L25 29V26H28C28.5523 26 29 25.5523 29 25V14C29 13.4477 28.5523 13 28 13H18V5C18 4.44772 17.5523 4 17 4H4C3.44772 4 3 4.44772 3 5Z"/>
</mask>
<path fill-rule="evenodd" clip-rule="evenodd" d="M3 5V16C3 16.5523 3.44772 17 4 17H7V20L10 17H14V25C14 25.5523 14.4477 26 15 26H22L25 29V26H28C28.5523 26 29 25.5523 29 25V14C29 13.4477 28.5523 13 28 13H18V5C18 4.44772 17.5523 4 17 4H4C3.44772 4 3 4.44772 3 5Z" fill="#007580"/>
<path d="M7 17H9C9 15.8954 8.10457 15 7 15V17ZM7 20H5C5 20.8089 5.48728 21.5382 6.23463 21.8478C6.98198 22.1573 7.84222 21.9862 8.41421 21.4142L7 20ZM10 17V15C9.46957 15 8.96086 15.2107 8.58579 15.5858L10 17ZM14 17H16C16 15.8954 15.1046 15 14 15V17ZM22 26L23.4142 24.5858C23.0391 24.2107 22.5304 24 22 24V26ZM25 29L23.5858 30.4142C24.1578 30.9862 25.018 31.1573 25.7654 30.8478C26.5127 30.5382 27 29.8089 27 29H25ZM25 26V24C23.8954 24 23 24.8954 23 26H25ZM18 13H16C16 14.1046 16.8954 15 18 15V13ZM5 16V5H1V16H5ZM4 15C4.55228 15 5 15.4477 5 16H1C1 17.6569 2.34315 19 4 19V15ZM7 15H4V19H7V15ZM9 20V17H5V20H9ZM8.58579 15.5858L5.58579 18.5858L8.41421 21.4142L11.4142 18.4142L8.58579 15.5858ZM14 15H10V19H14V15ZM12 17V25H16V17H12ZM12 25C12 26.6569 13.3431 28 15 28V24C15.5523 24 16 24.4477 16 25H12ZM15 28H22V24H15V28ZM20.5858 27.4142L23.5858 30.4142L26.4142 27.5858L23.4142 24.5858L20.5858 27.4142ZM27 29V26H23V29H27ZM25 28H28V24H25V28ZM28 28C29.6569 28 31 26.6569 31 25H27C27 24.4477 27.4477 24 28 24V28ZM31 25V14H27V25H31ZM31 14C31 12.3431 29.6569 11 28 11V15C27.4477 15 27 14.5523 27 14H31ZM28 11H18V15H28V11ZM16 5V13H20V5H16ZM17 6C16.4477 6 16 5.55229 16 5H20C20 3.34314 18.6569 2 17 2V6ZM4 6H17V2H4V6ZM5 5C5 5.55228 4.55228 6 4 6V2C2.34315 2 1 3.34315 1 5H5Z" fill="white" mask="url(#path-1-outside-1_1359_21845)"/>
<path d="M3 16V5C3 4.44772 3.44772 4 4 4H17C17.5523 4 18 4.44772 18 5V16C18 16.5523 17.5523 17 17 17H10L7 20V17H4C3.44772 17 3 16.5523 3 16Z" fill="#C2ECF0"/>
<path d="M29 25V14C29 13.4477 28.5523 13 28 13H15C14.4477 13 14 13.4477 14 14V25C14 25.5523 14.4477 26 15 26H22L25 29V26H28C28.5523 26 29 25.5523 29 25Z" fill="#007580"/>
<path fill-rule="evenodd" clip-rule="evenodd" d="M20.8536 15.1464C20.6583 14.9512 20.3417 14.9512 20.1464 15.1464C19.9512 15.3417 19.9512 15.6583 20.1464 15.8536L21.1464 16.8536C21.3417 17.0488 21.6583 17.0488 21.8536 16.8536C22.0488 16.6583 22.0488 16.3417 21.8536 16.1464L20.8536 15.1464ZM18 18.5C18 18.2239 18.2239 18 18.5 18H20H23H24.5C24.7761 18 25 18.2239 25 18.5C25 18.7761 24.7761 19 24.5 19H23.4746C23.3645 20.0578 22.9087 20.8462 22.3355 21.4263C22.7593 21.6527 23.1807 21.7965 23.5057 21.8846C23.6788 21.9315 23.822 21.9618 23.9203 21.9802C23.9693 21.9894 24.007 21.9956 24.0313 21.9994L24.0574 22.0032L24.062 22.0039L24.0624 22.0039C24.3362 22.0383 24.5304 22.2881 24.4961 22.562C24.4619 22.836 24.212 23.0304 23.938 22.9961L24 22.5C23.938 22.9961 23.9378 22.9961 23.9375 22.9961L23.937 22.996L23.9356 22.9958L23.9317 22.9953L23.9196 22.9937C23.9097 22.9923 23.896 22.9903 23.8789 22.9877C23.8446 22.9824 23.7963 22.9744 23.736 22.9631C23.6155 22.9405 23.4462 22.9045 23.2443 22.8498C22.8424 22.741 22.3011 22.5555 21.7549 22.2483C21.67 22.2006 21.5849 22.1498 21.5 22.0957C21.4151 22.1498 21.33 22.2006 21.2451 22.2483C20.6989 22.5555 20.1576 22.741 19.7557 22.8498C19.5538 22.9045 19.3845 22.9405 19.264 22.9631C19.2037 22.9744 19.1554 22.9824 19.1211 22.9877C19.104 22.9903 19.0903 22.9923 19.0804 22.9937L19.0683 22.9953L19.0644 22.9958L19.063 22.996L19.0625 22.9961C19.0622 22.9961 19.062 22.9961 19 22.5L19.062 22.9961C18.788 23.0304 18.5381 22.836 18.5039 22.562C18.4696 22.2881 18.6638 22.0383 18.9376 22.0039L18.938 22.0039L18.9426 22.0032L18.9687 21.9994C18.993 21.9956 19.0307 21.9894 19.0797 21.9802C19.178 21.9618 19.3212 21.9315 19.4943 21.8846C19.8193 21.7965 20.2407 21.6527 20.6645 21.4263C20.0913 20.8462 19.6355 20.0578 19.5254 19H18.5C18.2239 19 18 18.7761 18 18.5ZM21.5 20.8444C21.0217 20.407 20.6434 19.8135 20.5329 19H22.4671C22.3566 19.8135 21.9783 20.407 21.5 20.8444Z" fill="white"/>
<path fill-rule="evenodd" clip-rule="evenodd" d="M10.9616 7.30769C10.884 7.12137 10.702 7 10.5001 7C10.2983 7 10.1162 7.12137 10.0386 7.30769L8.50011 11H8.5V11.0003L7.53857 13.3077C7.43236 13.5626 7.5529 13.8553 7.8078 13.9615C8.0627 14.0677 8.35544 13.9472 8.46165 13.6923L9.16678 12H11.8334L12.5386 13.6923C12.6448 13.9472 12.9375 14.0677 13.1924 13.9615C13.4473 13.8553 13.5679 13.5626 13.4616 13.3077L10.9616 7.30769ZM11.4168 11L10.5001 8.8L9.58344 11H11.4168Z" fill="#007580"/>
</svg>
