<svg width="32" height="32" viewBox="0 0 32 32" fill="none" xmlns="http://www.w3.org/2000/svg">
<path d="M16.3417 3.06021L16 2.93594L15.6583 3.06021L4.65826 7.06021L4 7.29957V8C4 8.0415 4 8.083 4 8.12451C3.99987 12.5287 3.99974 16.9387 5.44425 20.6157C6.94943 24.447 9.97325 27.3929 15.7369 28.9648L16 29.0365L16.2631 28.9648C22.0267 27.3929 25.0506 24.447 26.5558 20.6157C28.0003 16.9387 28.0001 12.5287 28 8.12451L28 8V7.29957L27.3417 7.06021L16.3417 3.06021Z" fill="#E44D26" stroke="white" stroke-width="2" stroke-linecap="round"/>
<mask id="mask0_1356_21181" style="mask-type:alpha" maskUnits="userSpaceOnUse" x="5" y="4" width="22" height="24">
<path d="M16 4L5 8C5 17 5 25 16 28C27 25 27 17 27 8L16 4Z" fill="#E44D26"/>
</mask>
<g mask="url(#mask0_1356_21181)">
<path opacity="0.6" fill-rule="evenodd" clip-rule="evenodd" d="M25 16C25 17.1046 24.1046 18 23 18C21.8954 18 21 17.1046 21 16C21 14.8954 21.8954 14 23 14C24.1046 14 25 14.8954 25 16ZM9 19C5 19 4 21.5 4 21.5V24H14V21.5C14 21.5 13 19 9 19ZM23 19C19 19 18 21.5 18 21.5V24H28V21.5C28 21.5 27 19 23 19ZM9 18C10.1046 18 11 17.1046 11 16C11 14.8954 10.1046 14 9 14C7.89543 14 7 14.8954 7 16C7 17.1046 7.89543 18 9 18Z" fill="white"/>
<path fill-rule="evenodd" clip-rule="evenodd" d="M16 18C18.2091 18 20 16.2091 20 14C20 11.7909 18.2091 10 16 10C13.7909 10 12 11.7909 12 14C12 16.2091 13.7909 18 16 18ZM16 21C8 21 6 26 6 26V31H26V26C26 26 24 21 16 21Z" fill="white"/>
</g>
</svg>
