<svg width="32" height="32" viewBox="0 0 32 32" fill="none" xmlns="http://www.w3.org/2000/svg">
<path fill-rule="evenodd" clip-rule="evenodd" d="M2.99997 6.59914L16 1.87187L29 6.59914V8C29 8.07621 29 8.15251 29 8.22888C29.0005 12.5528 29.001 17.1262 27.4865 20.9813C25.8511 25.144 22.5535 28.2857 16.5262 29.9295L16 30.073L15.4737 29.9295C9.44648 28.2857 6.14883 25.144 4.51347 20.9813C2.99898 17.1262 2.99948 12.5528 2.99996 8.22889C2.99996 8.15251 2.99997 8.07621 2.99997 8V6.59914Z" fill="white"/>
<path fill-rule="evenodd" clip-rule="evenodd" d="M23.8989 23.2865C27 19.3728 27 13.9013 27 8L16 4L5 8C5 13.9014 5 19.3728 8.10113 23.2865C8.73143 24.0021 9.53833 24.3923 10.3304 24.5622C11.9639 24.9127 13.7038 24.3845 14.8939 23.7899L16 23.2373L17.1061 23.7899C18.2962 24.3845 20.0361 24.9127 21.6696 24.5622C22.4617 24.3923 23.2686 24.0021 23.8989 23.2865Z" fill="#006590"/>
<circle cx="16" cy="11.5" r="3.5" fill="white"/>
<path fill-rule="evenodd" clip-rule="evenodd" d="M14 18.5C11.5 16 9 16.7157 9 20C9 23.2843 12 23 14 22.0008V18.5ZM18 18.5C20.5 16 23 16.7157 23 20C23 23.2843 20 23 18 22.0008V18.5Z" fill="#87CEFF"/>
<path d="M19.5 20C19.5 21.933 17.933 23.5 16 23.5C14.067 23.5 12.5 21.933 12.5 20C12.5 18.067 14.067 16.5 16 16.5C17.933 16.5 19.5 18.067 19.5 20Z" fill="#006590"/>
<path fill-rule="evenodd" clip-rule="evenodd" d="M16 22C17.1046 22 18 21.1046 18 20C18 18.8954 17.1046 18 16 18C14.8954 18 14 18.8954 14 20C14 21.1046 14.8954 22 16 22Z" fill="white"/>
<rect x="14" y="22.5" width="4" height="1" fill="#006590"/>
</svg>
