<svg width="32" height="32" viewBox="0 0 32 32" fill="none" xmlns="http://www.w3.org/2000/svg">
<mask id="path-1-outside-1_1362_22349" maskUnits="userSpaceOnUse" x="2.35791" y="2" width="27" height="28" fill="black">
<rect fill="white" x="2.35791" y="2" width="27" height="28"/>
<path fill-rule="evenodd" clip-rule="evenodd" d="M27.2185 11.4314C27.4629 11.8548 27.3655 12.3928 26.9881 12.7035L25.3644 14.0401C25.1337 14.2301 25 14.5133 25 14.8121V17.1879C25 17.4867 25.1337 17.7699 25.3644 17.9599L26.9881 19.2965C27.3655 19.6072 27.4629 20.1452 27.2185 20.5686L25.5657 23.4314C25.3212 23.8548 24.8066 24.0394 24.3488 23.8679L22.4911 23.1719C22.19 23.0591 21.8531 23.098 21.5855 23.2763L19.3605 24.7597C19.1305 24.913 18.9742 25.1547 18.9288 25.4273L18.6393 27.1644C18.5589 27.6466 18.1417 28 17.6529 28H14.3471C13.8583 28 13.4411 27.6466 13.3607 27.1644L13.0712 25.4273C13.0258 25.1547 12.8695 24.913 12.6395 24.7597L10.4144 23.2763C10.1469 23.0979 9.80998 23.0591 9.50891 23.1719L7.6512 23.8679C7.19343 24.0394 6.67877 23.8548 6.43435 23.4314L4.78147 20.5686C4.53705 20.1452 4.63452 19.6072 5.01193 19.2965L6.63557 17.9599C6.86632 17.7699 7 17.4867 7 17.1878V14.8122C7 14.5133 6.86632 14.2301 6.63557 14.0401L5.01193 12.7035C4.63452 12.3928 4.53705 11.8548 4.78147 11.4314L6.43435 8.56858C6.67877 8.14523 7.19342 7.96064 7.65119 8.13214L9.50891 8.8281C9.80998 8.94089 10.1469 8.90205 10.4144 8.72371L12.6395 7.24031C12.8695 7.08699 13.0258 6.84531 13.0712 6.57266L13.3607 4.8356C13.4411 4.35341 13.8583 4 14.3471 4H17.6529C18.1417 4 18.5589 4.35341 18.6393 4.8356L18.9288 6.57266C18.9742 6.84531 19.1305 7.08699 19.3605 7.24031L21.5855 8.7237C21.8531 8.90204 22.19 8.94088 22.4911 8.82809L24.3488 8.13212C24.8066 7.96062 25.3212 8.14521 25.5657 8.56856L27.2185 11.4314Z"/>
</mask>
<path fill-rule="evenodd" clip-rule="evenodd" d="M27.2185 11.4314C27.4629 11.8548 27.3655 12.3928 26.9881 12.7035L25.3644 14.0401C25.1337 14.2301 25 14.5133 25 14.8121V17.1879C25 17.4867 25.1337 17.7699 25.3644 17.9599L26.9881 19.2965C27.3655 19.6072 27.4629 20.1452 27.2185 20.5686L25.5657 23.4314C25.3212 23.8548 24.8066 24.0394 24.3488 23.8679L22.4911 23.1719C22.19 23.0591 21.8531 23.098 21.5855 23.2763L19.3605 24.7597C19.1305 24.913 18.9742 25.1547 18.9288 25.4273L18.6393 27.1644C18.5589 27.6466 18.1417 28 17.6529 28H14.3471C13.8583 28 13.4411 27.6466 13.3607 27.1644L13.0712 25.4273C13.0258 25.1547 12.8695 24.913 12.6395 24.7597L10.4144 23.2763C10.1469 23.0979 9.80998 23.0591 9.50891 23.1719L7.6512 23.8679C7.19343 24.0394 6.67877 23.8548 6.43435 23.4314L4.78147 20.5686C4.53705 20.1452 4.63452 19.6072 5.01193 19.2965L6.63557 17.9599C6.86632 17.7699 7 17.4867 7 17.1878V14.8122C7 14.5133 6.86632 14.2301 6.63557 14.0401L5.01193 12.7035C4.63452 12.3928 4.53705 11.8548 4.78147 11.4314L6.43435 8.56858C6.67877 8.14523 7.19342 7.96064 7.65119 8.13214L9.50891 8.8281C9.80998 8.94089 10.1469 8.90205 10.4144 8.72371L12.6395 7.24031C12.8695 7.08699 13.0258 6.84531 13.0712 6.57266L13.3607 4.8356C13.4411 4.35341 13.8583 4 14.3471 4H17.6529C18.1417 4 18.5589 4.35341 18.6393 4.8356L18.9288 6.57266C18.9742 6.84531 19.1305 7.08699 19.3605 7.24031L21.5855 8.7237C21.8531 8.90204 22.19 8.94088 22.4911 8.82809L24.3488 8.13212C24.8066 7.96062 25.3212 8.14521 25.5657 8.56856L27.2185 11.4314Z" fill="#4F616D"/>
<path d="M24.3488 8.13212L25.0505 10.005L24.3488 8.13212ZM25.5657 8.56856L23.8336 9.56856L25.5657 8.56856ZM21.5855 8.7237L20.4761 10.3878L21.5855 8.7237ZM22.4911 8.82809L23.1927 10.701L22.4911 8.82809ZM18.9288 6.57266L16.956 6.90146L18.9288 6.57266ZM19.3605 7.24031L20.4699 5.57621L19.3605 7.24031ZM12.6395 7.24031L13.7489 8.90441L12.6395 7.24031ZM13.0712 6.57266L11.0984 6.24386L13.0712 6.57266ZM10.4144 8.72371L9.30503 7.05961L10.4144 8.72371ZM6.43435 8.56858L4.7023 7.56858L6.43435 8.56858ZM5.01193 12.7035L3.74079 14.2476L5.01193 12.7035ZM6.63557 14.0401L5.36443 15.5842L6.63557 14.0401ZM6.63557 17.9599L7.90671 19.504L6.63557 17.9599ZM4.78147 20.5686L6.51352 19.5686L4.78147 20.5686ZM5.01193 19.2965L3.74079 17.7524L5.01193 19.2965ZM7.6512 23.8679L8.35284 25.7407L7.6512 23.8679ZM6.43435 23.4314L4.7023 24.4314L6.43435 23.4314ZM9.50891 23.1719L8.80727 21.299L9.50891 23.1719ZM13.0712 25.4273L15.044 25.0985L13.0712 25.4273ZM13.3607 27.1644L15.3335 26.8356L13.3607 27.1644ZM18.6393 27.1644L16.6665 26.8356L18.6393 27.1644ZM19.3605 24.7597L20.4699 26.4238L19.3605 24.7597ZM18.9288 25.4273L16.956 25.0985L18.9288 25.4273ZM22.4911 23.1719L21.7894 25.0448L22.4911 23.1719ZM21.5855 23.2763L20.4761 21.6122L21.5855 23.2763ZM25.5657 23.4314L23.8336 22.4314L25.5657 23.4314ZM24.3488 23.8679L23.6472 25.7408L24.3488 23.8679ZM26.9881 19.2965L28.2592 17.7525L26.9881 19.2965ZM27.2185 20.5686L28.9506 21.5686L27.2185 20.5686ZM26.9881 12.7035L28.2592 14.2476L26.9881 12.7035ZM27.2185 11.4314L28.9506 10.4314L27.2185 11.4314ZM26.6356 15.5842L28.2592 14.2476L25.7169 11.1594L24.0933 12.496L26.6356 15.5842ZM27 17.1879V14.8121H23V17.1879H27ZM28.2592 17.7525L26.6356 16.4158L24.0933 19.504L25.7169 20.8406L28.2592 17.7525ZM27.2977 24.4314L28.9506 21.5686L25.4865 19.5686L23.8336 22.4314L27.2977 24.4314ZM21.7894 25.0448L23.6472 25.7408L25.0505 21.995L23.1927 21.299L21.7894 25.0448ZM20.4699 26.4238L22.6949 24.9404L20.4761 21.6122L18.2511 23.0956L20.4699 26.4238ZM20.6121 27.4932L20.9016 25.7561L16.956 25.0985L16.6665 26.8356L20.6121 27.4932ZM14.3471 30H17.6529V26H14.3471V30ZM11.0984 25.7561L11.3879 27.4932L15.3335 26.8356L15.044 25.0985L11.0984 25.7561ZM9.30503 24.9404L11.5301 26.4238L13.7489 23.0956L11.5238 21.6122L9.30503 24.9404ZM8.35284 25.7407L10.2106 25.0448L8.80727 21.299L6.94955 21.995L8.35284 25.7407ZM3.04942 21.5686L4.7023 24.4314L8.1664 22.4314L6.51352 19.5686L3.04942 21.5686ZM5.36443 16.4158L3.74079 17.7524L6.28307 20.8406L7.90671 19.504L5.36443 16.4158ZM5 14.8122V17.1878H9V14.8122H5ZM3.74079 14.2476L5.36443 15.5842L7.90671 12.496L6.28307 11.1594L3.74079 14.2476ZM4.7023 7.56858L3.04942 10.4314L6.51352 12.4314L8.1664 9.56858L4.7023 7.56858ZM10.2106 6.95522L8.35284 6.25925L6.94955 10.005L8.80726 10.701L10.2106 6.95522ZM11.5301 5.57621L9.30503 7.05961L11.5238 10.3878L13.7489 8.90441L11.5301 5.57621ZM11.3879 4.5068L11.0984 6.24386L15.044 6.90146L15.3335 5.1644L11.3879 4.5068ZM17.6529 2H14.3471V6H17.6529V2ZM20.9016 6.24386L20.6121 4.5068L16.6665 5.1644L16.956 6.90146L20.9016 6.24386ZM22.6949 7.0596L20.4699 5.57621L18.2511 8.90441L20.4761 10.3878L22.6949 7.0596ZM23.6472 6.25924L21.7894 6.95521L23.1927 10.701L25.0505 10.005L23.6472 6.25924ZM28.9506 10.4314L27.2977 7.56856L23.8336 9.56856L25.4865 12.4314L28.9506 10.4314ZM25.0505 10.005C24.5927 10.1765 24.078 9.99191 23.8336 9.56856L27.2977 7.56856C26.5644 6.29852 25.0205 5.74475 23.6472 6.25924L25.0505 10.005ZM20.4761 10.3878C21.2787 10.9228 22.2895 11.0393 23.1927 10.701L21.7894 6.95521C22.0905 6.84241 22.4274 6.88126 22.6949 7.0596L20.4761 10.3878ZM16.956 6.90146C17.0923 7.7194 17.5611 8.44444 18.2511 8.90441L20.4699 5.57621C20.6999 5.72954 20.8561 5.97122 20.9016 6.24386L16.956 6.90146ZM17.6529 6C17.164 6 16.7468 5.64659 16.6665 5.1644L20.6121 4.5068C20.371 3.06024 19.1194 2 17.6529 2V6ZM15.3335 5.1644C15.2532 5.64659 14.836 6 14.3471 6V2C12.8806 2 11.629 3.06024 11.3879 4.5068L15.3335 5.1644ZM13.7489 8.90441C14.4389 8.44444 14.9077 7.7194 15.044 6.90146L11.0984 6.24386C11.1439 5.97122 11.3001 5.72954 11.5301 5.57621L13.7489 8.90441ZM8.80726 10.701C9.71048 11.0394 10.7213 10.9228 11.5238 10.3878L9.30503 7.05961C9.57254 6.88127 9.90948 6.84243 10.2106 6.95522L8.80726 10.701ZM8.1664 9.56858C7.92198 9.99192 7.40732 10.1765 6.94955 10.005L8.35284 6.25925C6.97953 5.74477 5.43555 6.29854 4.7023 7.56858L8.1664 9.56858ZM6.28307 11.1594C6.66047 11.4701 6.75794 12.0081 6.51352 12.4314L3.04942 10.4314C2.31616 11.7015 2.60857 13.3155 3.74079 14.2476L6.28307 11.1594ZM9 14.8122C9 13.9155 8.59895 13.0659 7.90671 12.496L5.36443 15.5842C5.13368 15.3942 5 15.111 5 14.8122H9ZM7.90671 19.504C8.59895 18.9341 9 18.0845 9 17.1878H5C5 16.889 5.13368 16.6058 5.36443 16.4158L7.90671 19.504ZM6.51352 19.5686C6.75794 19.9919 6.66048 20.5299 6.28307 20.8406L3.74079 17.7524C2.60857 18.6845 2.31617 20.2985 3.04942 21.5686L6.51352 19.5686ZM6.94955 21.995C7.40732 21.8235 7.92198 22.0081 8.1664 22.4314L4.7023 24.4314C5.43555 25.7015 6.97953 26.2552 8.35284 25.7407L6.94955 21.995ZM11.5238 21.6122C10.7213 21.0772 9.71048 20.9606 8.80727 21.299L10.2106 25.0448C9.90948 25.1576 9.57254 25.1187 9.30503 24.9404L11.5238 21.6122ZM15.044 25.0985C14.9077 24.2806 14.4389 23.5556 13.7489 23.0956L11.5301 26.4238C11.3001 26.2705 11.1439 26.0288 11.0984 25.7561L15.044 25.0985ZM14.3471 26C14.836 26 15.2532 26.3534 15.3335 26.8356L11.3879 27.4932C11.629 28.9398 12.8806 30 14.3471 30V26ZM16.6665 26.8356C16.7468 26.3534 17.164 26 17.6529 26V30C19.1194 30 20.371 28.9398 20.6121 27.4932L16.6665 26.8356ZM18.2511 23.0956C17.5611 23.5556 17.0923 24.2806 16.956 25.0985L20.9016 25.7561C20.8561 26.0288 20.6999 26.2705 20.4699 26.4238L18.2511 23.0956ZM23.1927 21.299C22.2895 20.9607 21.2787 21.0772 20.4761 21.6122L22.6949 24.9404C22.4274 25.1187 22.0905 25.1576 21.7894 25.0448L23.1927 21.299ZM23.8336 22.4314C24.078 22.0081 24.5927 21.8235 25.0505 21.995L23.6472 25.7408C25.0205 26.2553 26.5644 25.7015 27.2977 24.4314L23.8336 22.4314ZM25.7169 20.8406C25.3395 20.5299 25.2421 19.9919 25.4865 19.5686L28.9506 21.5686C29.6838 20.2985 29.3914 18.6845 28.2592 17.7525L25.7169 20.8406ZM23 17.1879C23 18.0845 23.4011 18.9341 24.0933 19.504L26.6356 16.4158C26.8663 16.6058 27 16.889 27 17.1879H23ZM28.2592 14.2476C29.3914 13.3155 29.6838 11.7015 28.9506 10.4314L25.4865 12.4314C25.2421 12.0081 25.3395 11.4701 25.7169 11.1594L28.2592 14.2476ZM24.0933 12.496C23.4011 13.0659 23 13.9155 23 14.8121H27C27 15.111 26.8663 15.3942 26.6356 15.5842L24.0933 12.496Z" fill="white" mask="url(#path-1-outside-1_1362_22349)"/>
<path fill-rule="evenodd" clip-rule="evenodd" d="M17 16H19.5C19.5 14.067 17.933 12.5 16 12.5C15.5874 12.5 15.1914 12.5714 14.8238 12.7025L13.6872 11.5659C14.3788 11.2044 15.1655 11 16 11C18.7614 11 21 13.2386 21 16H23L20 19L17 16ZM11 16H9L12 13L15 16H12.5C12.5 17.933 14.067 19.5 16 19.5C16.4126 19.5 16.8086 19.4286 17.1762 19.2975L18.3128 20.4341C17.6212 20.7956 16.8345 21 16 21C13.2386 21 11 18.7614 11 16Z" fill="white"/>
</svg>
