<svg width="32" height="32" viewBox="0 0 32 32" fill="none" xmlns="http://www.w3.org/2000/svg">
<mask id="path-1-outside-1_1353_20086" maskUnits="userSpaceOnUse" x="3" y="4" width="26" height="24" fill="black">
<rect fill="white" x="3" y="4" width="26" height="24"/>
<path fill-rule="evenodd" clip-rule="evenodd" d="M5 8C5 6.89543 5.89543 6 7 6H10H21C22.1046 6 23 6.89543 23 8V22H27V24C27 25.1046 26.1046 26 25 26H23H11C9.89543 26 9 25.1046 9 24V10H5V8Z"/>
</mask>
<path fill-rule="evenodd" clip-rule="evenodd" d="M5 8C5 6.89543 5.89543 6 7 6H10H21C22.1046 6 23 6.89543 23 8V22H27V24C27 25.1046 26.1046 26 25 26H23H11C9.89543 26 9 25.1046 9 24V10H5V8Z" fill="white"/>
<path d="M23 22H21V24H23V22ZM27 22H29V20H27V22ZM9 10H11V8H9V10ZM5 10H3V12H5V10ZM7 4C4.79086 4 3 5.79086 3 8H7V4ZM10 4H7V8H10V4ZM21 4H10V8H21V4ZM25 8C25 5.79086 23.2091 4 21 4V8H25ZM25 22V8H21V22H25ZM23 24H27V20H23V24ZM25 22V24H29V22H25ZM25 24V28C27.2091 28 29 26.2091 29 24H25ZM25 24H23V28H25V24ZM23 24H11V28H23V24ZM7 24C7 26.2091 8.79086 28 11 28V24H7ZM7 10V24H11V10H7ZM5 12H9V8H5V12ZM3 8V10H7V8H3Z" fill="white" mask="url(#path-1-outside-1_1353_20086)"/>
<path d="M5 8C5 6.89543 5.89543 6 7 6H10V10H5V8Z" fill="#FFAA00"/>
<path d="M5 8C5 6.89543 5.89543 6 7 6H10V10H5V8Z" fill="url(#paint0_linear_1353_20086)" fill-opacity="0.64"/>
<path d="M7.00015 6.00009H21.0002C22.1047 6.00009 23.0002 6.89552 23.0002 8.00009V26.0001H11.0002C9.89558 26.0001 9.00015 25.1047 9.00015 24.0001V8.00259C9.00015 6.93684 8.16445 6.05831 7.10003 6.00509L7.00015 6.00009Z" fill="#FFD966"/>
<path d="M7.00015 6.00009H21.0002C22.1047 6.00009 23.0002 6.89552 23.0002 8.00009V26.0001H11.0002C9.89558 26.0001 9.00015 25.1047 9.00015 24.0001V8.00259C9.00015 6.93684 8.16445 6.05831 7.10003 6.00509L7.00015 6.00009Z" fill="url(#paint1_linear_1353_20086)" fill-opacity="0.16"/>
<path d="M13 22H27V24C27 25.1046 26.1046 26 25 26H11L11.0999 25.995C12.1643 25.9418 13 25.0633 13 23.9975V22Z" fill="#FFAA00"/>
<path d="M13 22H27V24C27 25.1046 26.1046 26 25 26H11L11.0999 25.995C12.1643 25.9418 13 25.0633 13 23.9975V22Z" fill="url(#paint2_linear_1353_20086)"/>
<path fill-rule="evenodd" clip-rule="evenodd" d="M13 10H12V11H11V12H12V11H13V12H14V11H15V12H16V11H17V12H18V11H19V12H20V11H21V10H20V11H19V10H18V11H17V10H16V11H15V10H14V11H13V10ZM13 14H12V15H11V16H12V15H13V16H14V15H15V16H16V15H17V16H18V15H19V16H20V15H21V14H20V15H19V14H18V15H17V14H16V15H15V14H14V15H13V14ZM12 18H13V19H12V18ZM12 19V20H11V19H12ZM14 19V20H13V19H14ZM15 19H14V18H15V19ZM16 19V20H15V19H16ZM17 19H16V18H17V19ZM18 19V20H17V19H18ZM19 19H18V18H19V19ZM20 19V20H19V19H20ZM20 19V18H21V19H20Z" fill="#CC6600"/>
<defs>
<linearGradient id="paint0_linear_1353_20086" x1="5" y1="6.66667" x2="8.32542" y2="10.2296" gradientUnits="userSpaceOnUse">
<stop stop-color="#FF6A00" stop-opacity="0"/>
<stop offset="1" stop-color="#FF6A00"/>
</linearGradient>
<linearGradient id="paint1_linear_1353_20086" x1="15.3331" y1="4.66692" x2="15.3331" y2="27.3336" gradientUnits="userSpaceOnUse">
<stop stop-color="#FF6A00" stop-opacity="0"/>
<stop offset="1" stop-color="#FF6A00"/>
</linearGradient>
<linearGradient id="paint2_linear_1353_20086" x1="18.6663" y1="21.6667" x2="18.6663" y2="25.6667" gradientUnits="userSpaceOnUse">
<stop stop-color="#FF6A00" stop-opacity="0"/>
<stop offset="1" stop-color="#FF6A00"/>
</linearGradient>
</defs>
</svg>
