<svg width="32" height="32" viewBox="0 0 32 32" fill="none" xmlns="http://www.w3.org/2000/svg">
<path d="M21.9626 17.2058C20.501 16.5108 18.5569 16 16 16C13.4431 16 11.499 16.5108 10.0374 17.2058C9.44385 17.0768 8.76801 17 8 17C4.83841 17 3.23864 18.3015 2.51488 19.19C2.11314 19.6832 2 20.3268 2 20.9629V21C2 22.1046 2.89543 23 4 23H6C6 24.6569 7.34315 26 9 26H23C24.6569 26 26 24.6569 26 23H28C29.1046 23 30 22.1046 30 21V20.9629C30 20.3268 29.8869 19.6832 29.4851 19.19C28.7614 18.3015 27.1616 17 24 17C23.232 17 22.5562 17.0768 21.9626 17.2058Z" fill="white"/>
<path fill-rule="evenodd" clip-rule="evenodd" d="M21.8118 7.50302C21.1467 4.91365 18.7968 3 16 3C13.2032 3 10.8533 4.91365 10.1883 7.50302C9.52731 7.1808 8.78477 7 8 7C5.23858 7 3 9.23858 3 12C3 13.3863 3.56414 14.6407 4.47537 15.5464C2.77047 16.1304 1.64915 17.0861 0.964228 17.9269C0.134836 18.9451 0 20.1445 0 20.9629V21C0 23.2091 1.79086 25 4 25H4.41604C5.1876 26.7659 6.94968 28 9 28H23C25.0503 28 26.8124 26.7659 27.584 25H28C30.2091 25 32 23.2091 32 21V20.9629C32 20.1445 31.8652 18.9451 31.0358 17.9269C30.3509 17.0861 29.2295 16.1304 27.5246 15.5464C28.4359 14.6407 29 13.3863 29 12C29 9.23858 26.7614 7 24 7C23.2152 7 22.4727 7.1808 21.8118 7.50302ZM16 13C17.202 13 18.2802 12.4698 19.0134 11.6305C19.6278 10.9273 20 10.0066 20 8.99951C19.9997 6.7906 18.209 5 16 5C13.791 5 12.0003 6.79108 12 9C12 10.0071 12.3722 10.9273 12.9866 11.6305C13.7198 12.4698 14.798 13 16 13ZM21 12C21 11.1382 21.3634 10.3613 21.9452 9.81415C22.4821 9.3093 23.2049 9 24 9C25.6569 9 27 10.3431 27 12C27 13.6569 25.6569 15 24 15C22.443 15 21.1631 13.8139 21.0144 12.296C21.0049 12.1986 21 12.0999 21 12ZM16 16C18.5569 16 20.501 16.5108 21.9626 17.2058C22.5562 17.0768 23.232 17 24 17C27.1616 17 28.7614 18.3015 29.4851 19.19C29.8869 19.6832 30 20.3268 30 20.9629V21C30 22.1046 29.1046 23 28 23H26C26 24.6569 24.6569 26 23 26H9C7.34315 26 6 24.6569 6 23H4C2.89543 23 2 22.1046 2 21V20.9629C2 20.3268 2.11314 19.6832 2.51488 19.19C3.23864 18.3015 4.83841 17 8 17C8.76801 17 9.44385 17.0768 10.0374 17.2058C11.499 16.5108 13.4431 16 16 16ZM8 15C9.55697 15 10.8369 13.8139 10.9856 12.296C10.9951 12.1986 11 12.0999 11 12C11 11.1382 10.6366 10.3613 10.0548 9.81415C9.51793 9.3093 8.79508 9 8 9C6.34315 9 5 10.3431 5 12C5 13.6569 6.34315 15 8 15Z" fill="white"/>
<path d="M19.0134 11.6305C18.2802 12.4698 17.202 13 16 13C14.798 13 13.7198 12.4698 12.9866 11.6305C12.3722 10.9273 12 10.0071 12 9C12.0003 6.79108 13.791 5 16 5C18.209 5 19.9997 6.7906 20 8.99951C20 10.0066 19.6278 10.9273 19.0134 11.6305Z" fill="white"/>
<path d="M10.9856 12.296C10.8369 13.8139 9.55697 15 8 15C6.34315 15 5 13.6569 5 12C5 10.3431 6.34315 9 8 9C8.79508 9 9.51793 9.3093 10.0548 9.81415C10.6366 10.3613 11 11.1382 11 12C11 12.0999 10.9951 12.1986 10.9856 12.296Z" fill="white"/>
<path d="M21.9452 9.81415C21.3634 10.3613 21 11.1382 21 12C21 12.0999 21.0049 12.1986 21.0144 12.296C21.1631 13.8139 22.443 15 24 15C25.6569 15 27 13.6569 27 12C27 10.3431 25.6569 9 24 9C23.2049 9 22.4821 9.3093 21.9452 9.81415Z" fill="white"/>
<path fill-rule="evenodd" clip-rule="evenodd" d="M27 12C27 13.6569 25.6569 15 24 15C22.3431 15 21 13.6569 21 12C21 10.3431 22.3431 9 24 9C25.6569 9 27 10.3431 27 12ZM2.51488 19.19C2.11314 19.6832 2 20.3268 2 20.9629V21C2 22.1046 2.89543 23 4 23H12C13.1046 23 14 22.1046 14 21V20.9629C14 20.3268 13.8869 19.6832 13.4851 19.19C12.7614 18.3015 11.1616 17 8 17C4.83841 17 3.23864 18.3015 2.51488 19.19ZM18.5149 19.19C18.1131 19.6832 18 20.3268 18 20.9629V21C18 22.1046 18.8954 23 20 23H28C29.1046 23 30 22.1046 30 21V20.9629C30 20.3268 29.8869 19.6832 29.4851 19.19C28.7614 18.3015 27.1616 17 24 17C20.8384 17 19.2386 18.3015 18.5149 19.19ZM8 15C9.65685 15 11 13.6569 11 12C11 10.3431 9.65685 9 8 9C6.34315 9 5 10.3431 5 12C5 13.6569 6.34315 15 8 15Z" fill="#7DD99F"/>
<path fill-rule="evenodd" clip-rule="evenodd" d="M16 13C18.2091 13 20 11.2091 20 9C20 6.79086 18.2091 5 16 5C13.7909 5 12 6.79086 12 9C12 11.2091 13.7909 13 16 13ZM6.93901 19.5524C6.20175 20.4284 6 21.5883 6 22.7332V23C6 24.6569 7.34315 26 9 26H23C24.6569 26 26 24.6569 26 23V22.7332C26 21.5883 25.7983 20.4284 25.061 19.5524C23.8183 18.0758 21.1546 16 16 16C10.8454 16 8.18174 18.0758 6.93901 19.5524Z" fill="#268755"/>
</svg>
