<svg width="32" height="32" viewBox="0 0 32 32" fill="none" xmlns="http://www.w3.org/2000/svg">
<mask id="path-1-outside-1_1355_20216" maskUnits="userSpaceOnUse" x="4" y="4" width="24" height="24" fill="black">
<rect fill="white" x="4" y="4" width="24" height="24"/>
<path fill-rule="evenodd" clip-rule="evenodd" d="M6 7C6 6.44772 6.44772 6 7 6H13C13.5523 6 14 6.44772 14 7V12.3433L17.7782 8.56502C18.1688 8.17449 18.8019 8.17449 19.1925 8.56502L23.4351 12.8077C23.8256 13.1982 23.8256 13.8313 23.4351 14.2219L19.657 18H25C25.5523 18 26 18.4477 26 19V25C26 25.5523 25.5523 26 25 26H10C9.86193 26 9.72549 25.993 9.59102 25.9793C7.574 25.7745 6 24.0711 6 22V7Z"/>
</mask>
<path fill-rule="evenodd" clip-rule="evenodd" d="M6 7C6 6.44772 6.44772 6 7 6H13C13.5523 6 14 6.44772 14 7V12.3433L17.7782 8.56502C18.1688 8.17449 18.8019 8.17449 19.1925 8.56502L23.4351 12.8077C23.8256 13.1982 23.8256 13.8313 23.4351 14.2219L19.657 18H25C25.5523 18 26 18.4477 26 19V25C26 25.5523 25.5523 26 25 26H10C9.86193 26 9.72549 25.993 9.59102 25.9793C7.574 25.7745 6 24.0711 6 22V7Z" fill="white"/>
<path d="M14 12.3433H12V17.1717L15.4142 13.7575L14 12.3433ZM17.7782 8.56502L19.1925 9.97923L19.1925 9.97923L17.7782 8.56502ZM19.1925 8.56502L17.7782 9.97923L17.7782 9.97923L19.1925 8.56502ZM23.4351 12.8077L22.0209 14.2219L23.4351 12.8077ZM23.4351 14.2219L24.8493 15.6361L24.8493 15.6361L23.4351 14.2219ZM19.657 18L18.2428 16.5858L14.8285 20H19.657V18ZM9.59102 25.9793L9.7931 23.9896H9.79309L9.59102 25.9793ZM7 4C5.34315 4 4 5.34315 4 7H8C8 7.55228 7.55229 8 7 8V4ZM13 4H7V8H13V4ZM16 7C16 5.34315 14.6569 4 13 4V8C12.4477 8 12 7.55228 12 7H16ZM16 12.3433V7H12V12.3433H16ZM16.364 7.1508L12.5858 10.929L15.4142 13.7575L19.1925 9.97923L16.364 7.1508ZM20.6067 7.1508C19.4351 5.97923 17.5356 5.97923 16.364 7.1508L19.1925 9.97923C18.8019 10.3698 18.1688 10.3698 17.7782 9.97923L20.6067 7.1508ZM24.8493 11.3934L20.6067 7.1508L17.7782 9.97923L22.0209 14.2219L24.8493 11.3934ZM24.8493 15.6361C26.0209 14.4645 26.0209 12.565 24.8493 11.3934L22.0209 14.2219C21.6304 13.8313 21.6304 13.1982 22.0209 12.8077L24.8493 15.6361ZM21.0712 19.4142L24.8493 15.6361L22.0209 12.8077L18.2428 16.5858L21.0712 19.4142ZM25 16H19.657V20H25V16ZM28 19C28 17.3431 26.6569 16 25 16V20C24.4477 20 24 19.5523 24 19H28ZM28 25V19H24V25H28ZM25 28C26.6569 28 28 26.6569 28 25H24C24 24.4477 24.4477 24 25 24V28ZM10 28H25V24H10V28ZM9.38894 27.9691C9.59046 27.9896 9.79434 28 10 28V24C9.92952 24 9.86053 23.9964 9.7931 23.9896L9.38894 27.9691ZM4 22C4 25.1078 6.36128 27.6616 9.38895 27.9691L9.79309 23.9896C8.78672 23.8874 8 23.0343 8 22H4ZM4 7V22H8V7H4Z" fill="white" mask="url(#path-1-outside-1_1355_20216)"/>
<path d="M25 18C25.5523 18 26 18.4477 26 19L26 25C26 25.5523 25.5523 26 25 26L10 26L10 18L25 18Z" fill="url(#paint0_linear_1355_20216)"/>
<path d="M17.7782 8.56502C18.1688 8.17449 18.8019 8.17449 19.1925 8.56502L23.4351 12.8077C23.8256 13.1982 23.8256 13.8313 23.4351 14.2219L12.8285 24.8285C11.2664 26.3906 8.73374 26.3906 7.17164 24.8285C5.60955 23.2664 5.60955 20.7337 7.17164 19.1716L17.7782 8.56502Z" fill="url(#paint1_linear_1355_20216)"/>
<path d="M6 7C6 6.44772 6.44772 6 7 6H13C13.5523 6 14 6.44772 14 7V22C14 24.2091 12.2091 26 10 26C7.79086 26 6 24.2091 6 22V7Z" fill="#FFBAD6"/>
<circle cx="10" cy="22" r="1" fill="#BD2965"/>
<defs>
<linearGradient id="paint0_linear_1355_20216" x1="26" y1="22" x2="10" y2="22" gradientUnits="userSpaceOnUse">
<stop stop-color="#F33581"/>
<stop offset="1" stop-color="#BD2965"/>
</linearGradient>
<linearGradient id="paint1_linear_1355_20216" x1="21.3138" y1="10.6863" x2="10.0001" y2="22" gradientUnits="userSpaceOnUse">
<stop stop-color="#FF88B8"/>
<stop offset="1" stop-color="#F33581"/>
</linearGradient>
</defs>
</svg>
