<svg width="32" height="32" viewBox="0 0 32 32" fill="none" xmlns="http://www.w3.org/2000/svg">
<mask id="path-1-outside-1_1353_20006" maskUnits="userSpaceOnUse" x="0" y="5" width="32" height="22" fill="black">
<rect fill="white" y="5" width="32" height="22"/>
<path fill-rule="evenodd" clip-rule="evenodd" d="M7 7C5.89543 7 5 7.89543 5 9V23H2C2 24.1046 2.89543 25 4 25H28C29.1046 25 30 24.1046 30 23H27V9C27 7.89543 26.1046 7 25 7H7Z"/>
</mask>
<path fill-rule="evenodd" clip-rule="evenodd" d="M7 7C5.89543 7 5 7.89543 5 9V23H2C2 24.1046 2.89543 25 4 25H28C29.1046 25 30 24.1046 30 23H27V9C27 7.89543 26.1046 7 25 7H7Z" fill="white"/>
<path d="M5 23V25H7V23H5ZM2 23V21H0V23H2ZM30 23H32V21H30V23ZM27 23H25V25H27V23ZM7 9V5C4.79086 5 3 6.79086 3 9H7ZM7 23V9H3V23H7ZM2 25H5V21H2V25ZM4 23H4H0C0 25.2091 1.79086 27 4 27V23ZM28 23H4V27H28V23ZM28 23V27C30.2091 27 32 25.2091 32 23H28ZM27 25H30V21H27V25ZM25 9V23H29V9H25ZM25 9H29C29 6.79086 27.2091 5 25 5V9ZM7 9H25V5H7V9Z" fill="white" mask="url(#path-1-outside-1_1353_20006)"/>
<path fill-rule="evenodd" clip-rule="evenodd" d="M7 7C5.89543 7 5 7.89543 5 9V23H7V9H25V23H27V9C27 7.89543 26.1046 7 25 7H7Z" fill="#88A310"/>
<path d="M2 23H30C30 24.1046 29.1046 25 28 25H4C2.89543 25 2 24.1046 2 23Z" fill="#88A310"/>
<path fill-rule="evenodd" clip-rule="evenodd" d="M13.7071 14.7071C14.0976 14.3166 14.0976 13.6834 13.7071 13.2929C13.3166 12.9024 12.6834 12.9024 12.2929 13.2929L10.2929 15.2929C9.90237 15.6834 9.90237 16.3166 10.2929 16.7071L12.2929 18.7071C12.6834 19.0976 13.3166 19.0976 13.7071 18.7071C14.0976 18.3166 14.0976 17.6834 13.7071 17.2929L12.4142 16L13.7071 14.7071ZM18.2929 14.7071C17.9024 14.3166 17.9024 13.6834 18.2929 13.2929C18.6834 12.9024 19.3166 12.9024 19.7071 13.2929L21.7071 15.2929C22.0976 15.6834 22.0976 16.3166 21.7071 16.7071L19.7071 18.7071C19.3166 19.0976 18.6834 19.0976 18.2929 18.7071C17.9024 18.3166 17.9024 17.6834 18.2929 17.2929L19.5858 16L18.2929 14.7071Z" fill="#88A310"/>
</svg>
