<svg width="24" height="24" viewBox="0 0 24 24" fill="none" xmlns="http://www.w3.org/2000/svg">
<g clip-path="url(#clip0_4782_23631)">
<path d="M18.0799 15.6236C18.2736 15.6515 18.471 15.6112 18.6382 15.5095C18.8055 15.4078 18.9321 15.2511 18.9965 15.0663C19.3632 14.025 19.2678 13.0716 18.7178 12.3016M18.0799 15.6236L18.1907 15.136L18.1667 15.1306M18.0799 15.6236L18.1511 15.1287C18.1563 15.1295 18.1615 15.1301 18.1667 15.1306M18.0799 15.6236L17.9185 15.5869L18.7178 12.3016M18.1667 15.1306C18.2405 15.1378 18.3149 15.1209 18.3785 15.0823C18.4466 15.0409 18.4981 14.9771 18.5243 14.9018L18.5249 14.9002C18.8478 13.9831 18.7493 13.2065 18.3115 12.593M18.1667 15.1306L18.0632 15.1071C18.0278 15.092 17.995 15.0712 17.9662 15.0455C17.9319 15.0147 17.904 14.9775 17.884 14.9359L17.4332 15.1522L17.884 14.9359C17.8641 14.8944 17.8525 14.8493 17.85 14.8033C17.8475 14.7573 17.8541 14.7112 17.8695 14.6678L17.8699 14.6666C18.0266 14.2181 18.0442 13.8512 17.9841 13.5552C17.9244 13.2605 17.7955 13.0784 17.7375 12.9993C17.5012 12.6669 17.1493 12.4425 16.7915 12.2866C16.4279 12.1281 16.0179 12.0228 15.6185 11.9515C14.8203 11.8089 13.9971 11.7906 13.5227 11.7943C11.307 11.8087 10.016 11.2585 9.42632 10.3622C8.83215 9.45904 9.04769 8.48175 9.26734 7.98234C9.30894 7.90845 9.376 7.85201 9.45621 7.82371C9.54016 7.79409 9.63223 7.7975 9.71376 7.83327C9.79528 7.86903 9.86015 7.93446 9.89521 8.01629C9.93027 8.09812 9.93289 8.19022 9.90254 8.27392L9.90238 8.27386L9.89826 8.28623C9.89958 8.28228 9.80599 8.52115 9.77042 8.8321C9.73567 9.13596 9.74584 9.58625 10.0152 9.99035C10.2883 10.4 10.7957 10.6683 11.3618 10.8359C11.947 11.0092 12.6802 11.1006 13.5149 11.093C16.1165 11.0786 17.6343 11.6529 18.3115 12.593M18.3115 12.593C18.3117 12.5932 18.3119 12.5935 18.312 12.5937L18.7178 12.3016M18.3115 12.593C18.3113 12.5928 18.3112 12.5925 18.311 12.5923L18.7178 12.3016M21.976 1.90782L21.9753 1.90626C21.8352 1.55987 21.6042 1.2577 21.3068 1.03161C21.0093 0.805523 20.6563 0.663886 20.285 0.621633V0.621623L20.2819 0.621285C16.5839 0.224189 12.8466 0.806149 9.44447 2.30883C6.04236 3.8115 3.09503 6.1821 0.897933 9.18297L0.897931 9.18296L0.896933 9.18434C0.68134 9.48091 0.548111 9.82927 0.510788 10.194C0.473465 10.5588 0.533378 10.9269 0.684436 11.261L0.685115 11.2625C2.19758 14.5785 4.53825 17.4494 7.48177 19.5987L7.48356 19.6C10.354 21.6765 13.6938 23.01 17.205 23.4815C17.5666 23.5322 17.9352 23.4853 18.2725 23.3455C18.6098 23.2059 18.9035 22.9786 19.1234 22.6873C21.3209 19.8114 22.7519 16.4245 23.2824 12.8443L23.2827 12.8423C23.8154 9.14596 23.3647 5.37454 21.976 1.90782ZM10.8699 5.72546L10.8804 5.72227L10.8908 5.71862C11.7854 5.40333 12.7306 5.25626 13.6787 5.2848C14.4226 5.30941 15.1926 5.40861 15.977 5.75638C16.7583 6.10281 17.585 6.7099 18.4163 7.79508L18.4162 7.79514L18.4222 7.80266C18.4603 7.85046 18.4824 7.90902 18.4855 7.97008C18.4885 8.03113 18.4723 8.09161 18.4392 8.14297C18.406 8.19434 18.3576 8.234 18.3007 8.25638C18.2438 8.27875 18.1813 8.2827 18.1221 8.26768L18.1221 8.26754L18.1104 8.26488C18.0436 8.24962 17.9843 8.21134 17.9428 8.15673L17.9416 8.15514C17.3664 7.40362 16.7806 6.83795 16.0795 6.45828C15.3752 6.0769 14.5931 5.90386 13.6578 5.87658L13.6562 5.87654C12.8055 5.85452 11.9576 5.98251 11.1514 6.25462L11.1196 6.26533L11.0896 6.28017C11.0525 6.29851 11.012 6.30897 10.9707 6.31087C10.9294 6.31277 10.8881 6.30608 10.8495 6.29123C10.8109 6.27637 10.7757 6.25367 10.7463 6.22455C10.7169 6.19544 10.6939 6.16054 10.6786 6.12207C10.6634 6.08361 10.6563 6.04239 10.6578 6.00104C10.6593 5.95969 10.6694 5.9191 10.6873 5.88183C10.7053 5.84456 10.7308 5.81142 10.7622 5.78451C10.7937 5.75759 10.8303 5.73749 10.8699 5.72546ZM14.1075 17.5659L14.1061 17.5658C13.6568 17.5518 13.2099 17.4945 12.7716 17.3947L12.771 17.3946C11.5415 17.1161 10.1396 16.4392 8.95916 14.8881L8.94503 14.8696L8.92923 14.8524C8.90098 14.8217 8.87946 14.7854 8.86606 14.7459C8.85265 14.7064 8.84765 14.6645 8.85137 14.623C8.8551 14.5814 8.86747 14.5411 8.88769 14.5046C8.90792 14.4681 8.93554 14.4363 8.9688 14.4111C9.00206 14.3859 9.04022 14.3679 9.08083 14.3584C9.12144 14.3488 9.16359 14.3478 9.2046 14.3555C9.24561 14.3632 9.28456 14.3794 9.31895 14.403C9.35334 14.4266 9.38241 14.4571 9.40431 14.4927L9.41754 14.5141L9.43287 14.5342C10.6209 16.0865 12.2038 16.9181 14.1196 16.974C14.9742 17.0002 15.8265 16.8719 16.6356 16.5954L16.6459 16.5919L16.656 16.5879C16.7289 16.5594 16.8102 16.561 16.8819 16.5924C16.9537 16.6238 17.01 16.6824 17.0385 16.7554L17.5042 16.5733L17.0385 16.7554C17.0671 16.8283 17.0654 16.9096 17.034 16.9813C17.0034 17.0513 16.9468 17.1067 16.8764 17.1358C15.9887 17.452 15.0493 17.5979 14.1075 17.5659Z" fill="#3AA860" stroke="white"/>
</g>
<defs>
<clipPath id="clip0_4782_23631">
<rect width="24" height="24" fill="white"/>
</clipPath>
</defs>
</svg>
