<svg width="24" height="24" viewBox="0 0 24 24" fill="none" xmlns="http://www.w3.org/2000/svg">
<mask id="path-1-outside-1_4779_23610" maskUnits="userSpaceOnUse" x="1.5" y="1.5" width="21" height="21" fill="black">
<rect fill="white" x="1.5" y="1.5" width="21" height="21"/>
<path fill-rule="evenodd" clip-rule="evenodd" d="M9.5 2.5C8.39543 2.5 7.5 3.39543 7.5 4.5C7.5 5.60457 8.39543 6.5 9.5 6.5H11.5V4.5C11.5 3.39543 10.6046 2.5 9.5 2.5ZM4.5 7.5C3.39543 7.5 2.5 8.39543 2.5 9.5C2.5 10.6046 3.39543 11.5 4.5 11.5H9.5C10.6046 11.5 11.5 10.6046 11.5 9.5C11.5 8.39543 10.6046 7.5 9.5 7.5H4.5ZM4.5 16.5C3.39543 16.5 2.5 15.6046 2.5 14.5C2.5 13.3954 3.39543 12.5 4.5 12.5H6.5L6.5 14.5C6.5 15.6046 5.60457 16.5 4.5 16.5ZM7.5 19.5C7.5 20.6046 8.39543 21.5 9.5 21.5C10.6046 21.5 11.5 20.6046 11.5 19.5V14.5C11.5 13.3954 10.6046 12.5 9.5 12.5C8.39543 12.5 7.5 13.3954 7.5 14.5L7.5 19.5ZM16.5 19.5C16.5 20.6046 15.6046 21.5 14.5 21.5C13.3954 21.5 12.5 20.6046 12.5 19.5V17.5H14.5C15.6046 17.5 16.5 18.3954 16.5 19.5ZM19.5 16.5C20.6046 16.5 21.5 15.6046 21.5 14.5C21.5 13.3954 20.6046 12.5 19.5 12.5L14.5 12.5C13.3954 12.5 12.5 13.3954 12.5 14.5C12.5 15.6046 13.3954 16.5 14.5 16.5L19.5 16.5ZM19.5 7.5C20.6046 7.5 21.5 8.39543 21.5 9.5C21.5 10.6046 20.6046 11.5 19.5 11.5L17.5 11.5L17.5 9.5C17.5 8.39543 18.3954 7.5 19.5 7.5ZM16.5 4.5C16.5 3.39543 15.6046 2.5 14.5 2.5C13.3954 2.5 12.5 3.39543 12.5 4.5L12.5 9.5C12.5 10.6046 13.3954 11.5 14.5 11.5C15.6046 11.5 16.5 10.6046 16.5 9.5L16.5 4.5Z"/>
</mask>
<path fill-rule="evenodd" clip-rule="evenodd" d="M9.5 2.5C8.39543 2.5 7.5 3.39543 7.5 4.5C7.5 5.60457 8.39543 6.5 9.5 6.5H11.5V4.5C11.5 3.39543 10.6046 2.5 9.5 2.5ZM4.5 7.5C3.39543 7.5 2.5 8.39543 2.5 9.5C2.5 10.6046 3.39543 11.5 4.5 11.5H9.5C10.6046 11.5 11.5 10.6046 11.5 9.5C11.5 8.39543 10.6046 7.5 9.5 7.5H4.5ZM4.5 16.5C3.39543 16.5 2.5 15.6046 2.5 14.5C2.5 13.3954 3.39543 12.5 4.5 12.5H6.5L6.5 14.5C6.5 15.6046 5.60457 16.5 4.5 16.5ZM7.5 19.5C7.5 20.6046 8.39543 21.5 9.5 21.5C10.6046 21.5 11.5 20.6046 11.5 19.5V14.5C11.5 13.3954 10.6046 12.5 9.5 12.5C8.39543 12.5 7.5 13.3954 7.5 14.5L7.5 19.5ZM16.5 19.5C16.5 20.6046 15.6046 21.5 14.5 21.5C13.3954 21.5 12.5 20.6046 12.5 19.5V17.5H14.5C15.6046 17.5 16.5 18.3954 16.5 19.5ZM19.5 16.5C20.6046 16.5 21.5 15.6046 21.5 14.5C21.5 13.3954 20.6046 12.5 19.5 12.5L14.5 12.5C13.3954 12.5 12.5 13.3954 12.5 14.5C12.5 15.6046 13.3954 16.5 14.5 16.5L19.5 16.5ZM19.5 7.5C20.6046 7.5 21.5 8.39543 21.5 9.5C21.5 10.6046 20.6046 11.5 19.5 11.5L17.5 11.5L17.5 9.5C17.5 8.39543 18.3954 7.5 19.5 7.5ZM16.5 4.5C16.5 3.39543 15.6046 2.5 14.5 2.5C13.3954 2.5 12.5 3.39543 12.5 4.5L12.5 9.5C12.5 10.6046 13.3954 11.5 14.5 11.5C15.6046 11.5 16.5 10.6046 16.5 9.5L16.5 4.5Z" fill="white"/>
<path d="M11.5 6.5V7.5H12.5V6.5H11.5ZM6.5 12.5H7.5V11.5H6.5V12.5ZM6.5 14.5H7.5H6.5ZM7.5 19.5H8.5H7.5ZM7.5 14.5H6.5H7.5ZM12.5 17.5V16.5H11.5V17.5H12.5ZM19.5 16.5V15.5V16.5ZM19.5 12.5V11.5V12.5ZM14.5 12.5V13.5V12.5ZM14.5 16.5V17.5V16.5ZM19.5 7.5V8.5V7.5ZM19.5 11.5V10.5V11.5ZM17.5 11.5H16.5L16.5 12.5L17.5 12.5L17.5 11.5ZM17.5 9.5H16.5V9.5L17.5 9.5ZM16.5 4.5H15.5V4.5L16.5 4.5ZM12.5 4.5H11.5V4.5L12.5 4.5ZM12.5 9.5H13.5H12.5ZM16.5 9.5H17.5H16.5ZM8.5 4.5C8.5 3.94772 8.94772 3.5 9.5 3.5V1.5C7.84315 1.5 6.5 2.84315 6.5 4.5H8.5ZM9.5 5.5C8.94772 5.5 8.5 5.05228 8.5 4.5H6.5C6.5 6.15685 7.84315 7.5 9.5 7.5V5.5ZM11.5 5.5H9.5V7.5H11.5V5.5ZM10.5 4.5V6.5H12.5V4.5H10.5ZM9.5 3.5C10.0523 3.5 10.5 3.94772 10.5 4.5H12.5C12.5 2.84315 11.1569 1.5 9.5 1.5V3.5ZM3.5 9.5C3.5 8.94772 3.94772 8.5 4.5 8.5V6.5C2.84315 6.5 1.5 7.84315 1.5 9.5H3.5ZM4.5 10.5C3.94772 10.5 3.5 10.0523 3.5 9.5H1.5C1.5 11.1569 2.84315 12.5 4.5 12.5V10.5ZM9.5 10.5H4.5V12.5H9.5V10.5ZM10.5 9.5C10.5 10.0523 10.0523 10.5 9.5 10.5V12.5C11.1569 12.5 12.5 11.1569 12.5 9.5H10.5ZM9.5 8.5C10.0523 8.5 10.5 8.94772 10.5 9.5H12.5C12.5 7.84315 11.1569 6.5 9.5 6.5V8.5ZM4.5 8.5H9.5V6.5H4.5V8.5ZM1.5 14.5C1.5 16.1569 2.84315 17.5 4.5 17.5V15.5C3.94772 15.5 3.5 15.0523 3.5 14.5H1.5ZM4.5 11.5C2.84315 11.5 1.5 12.8431 1.5 14.5H3.5C3.5 13.9477 3.94772 13.5 4.5 13.5V11.5ZM6.5 11.5H4.5V13.5H6.5V11.5ZM7.5 14.5L7.5 12.5H5.5L5.5 14.5H7.5ZM4.5 17.5C6.15685 17.5 7.5 16.1569 7.5 14.5H5.5C5.5 15.0523 5.05228 15.5 4.5 15.5V17.5ZM9.5 20.5C8.94771 20.5 8.5 20.0523 8.5 19.5H6.5C6.5 21.1569 7.84315 22.5 9.5 22.5V20.5ZM10.5 19.5C10.5 20.0523 10.0523 20.5 9.5 20.5V22.5C11.1569 22.5 12.5 21.1569 12.5 19.5H10.5ZM10.5 14.5V19.5H12.5V14.5H10.5ZM9.5 13.5C10.0523 13.5 10.5 13.9477 10.5 14.5H12.5C12.5 12.8431 11.1569 11.5 9.5 11.5V13.5ZM8.5 14.5C8.5 13.9477 8.94771 13.5 9.5 13.5V11.5C7.84315 11.5 6.5 12.8431 6.5 14.5H8.5ZM8.5 19.5L8.5 14.5H6.5L6.5 19.5H8.5ZM14.5 22.5C16.1569 22.5 17.5 21.1569 17.5 19.5H15.5C15.5 20.0523 15.0523 20.5 14.5 20.5V22.5ZM11.5 19.5C11.5 21.1569 12.8431 22.5 14.5 22.5V20.5C13.9477 20.5 13.5 20.0523 13.5 19.5H11.5ZM11.5 17.5V19.5H13.5V17.5H11.5ZM14.5 16.5H12.5V18.5H14.5V16.5ZM17.5 19.5C17.5 17.8431 16.1569 16.5 14.5 16.5V18.5C15.0523 18.5 15.5 18.9477 15.5 19.5H17.5ZM20.5 14.5C20.5 15.0523 20.0523 15.5 19.5 15.5V17.5C21.1569 17.5 22.5 16.1569 22.5 14.5H20.5ZM19.5 13.5C20.0523 13.5 20.5 13.9477 20.5 14.5H22.5C22.5 12.8431 21.1569 11.5 19.5 11.5V13.5ZM14.5 13.5L19.5 13.5V11.5L14.5 11.5V13.5ZM13.5 14.5C13.5 13.9477 13.9477 13.5 14.5 13.5V11.5C12.8431 11.5 11.5 12.8431 11.5 14.5H13.5ZM14.5 15.5C13.9477 15.5 13.5 15.0523 13.5 14.5H11.5C11.5 16.1569 12.8431 17.5 14.5 17.5V15.5ZM19.5 15.5L14.5 15.5V17.5L19.5 17.5V15.5ZM22.5 9.5C22.5 7.84315 21.1569 6.5 19.5 6.5V8.5C20.0523 8.5 20.5 8.94771 20.5 9.5H22.5ZM19.5 12.5C21.1569 12.5 22.5 11.1569 22.5 9.5H20.5C20.5 10.0523 20.0523 10.5 19.5 10.5V12.5ZM17.5 12.5L19.5 12.5V10.5L17.5 10.5L17.5 12.5ZM16.5 9.5L16.5 11.5H18.5V9.5L16.5 9.5ZM19.5 6.5C17.8431 6.5 16.5 7.84315 16.5 9.5H18.5C18.5 8.94772 18.9477 8.5 19.5 8.5V6.5ZM14.5 3.5C15.0523 3.5 15.5 3.94772 15.5 4.5H17.5C17.5 2.84315 16.1569 1.5 14.5 1.5V3.5ZM13.5 4.5C13.5 3.94772 13.9477 3.5 14.5 3.5V1.5C12.8431 1.5 11.5 2.84315 11.5 4.5H13.5ZM13.5 9.5L13.5 4.5L11.5 4.5L11.5 9.5H13.5ZM14.5 10.5C13.9477 10.5 13.5 10.0523 13.5 9.5H11.5C11.5 11.1569 12.8431 12.5 14.5 12.5V10.5ZM15.5 9.5C15.5 10.0523 15.0523 10.5 14.5 10.5V12.5C16.1569 12.5 17.5 11.1569 17.5 9.5H15.5ZM15.5 4.5L15.5 9.5H17.5L17.5 4.5L15.5 4.5Z" fill="white" mask="url(#path-1-outside-1_4779_23610)"/>
<path d="M7.5 4.5C7.5 3.39543 8.39543 2.5 9.5 2.5C10.6046 2.5 11.5 3.39543 11.5 4.5V6.5H9.5C8.39543 6.5 7.5 5.60457 7.5 4.5Z" fill="#36C5F0"/>
<rect x="2.5" y="7.5" width="9" height="4" rx="2" fill="#36C5F0"/>
<path d="M4.5 16.5C3.39543 16.5 2.5 15.6046 2.5 14.5C2.5 13.3954 3.39543 12.5 4.5 12.5L6.5 12.5L6.5 14.5C6.5 15.6046 5.60457 16.5 4.5 16.5Z" fill="#E01E5A"/>
<rect x="7.5" y="21.5" width="9" height="4" rx="2" transform="rotate(-90 7.5 21.5)" fill="#E01E5A"/>
<path d="M16.5 19.5C16.5 20.6046 15.6046 21.5 14.5 21.5C13.3954 21.5 12.5 20.6046 12.5 19.5L12.5 17.5L14.5 17.5C15.6046 17.5 16.5 18.3954 16.5 19.5Z" fill="#ECB22E"/>
<rect x="21.5" y="16.5" width="9" height="4" rx="2" transform="rotate(180 21.5 16.5)" fill="#ECB22E"/>
<path d="M19.5 7.5C20.6046 7.5 21.5 8.39543 21.5 9.5C21.5 10.6046 20.6046 11.5 19.5 11.5L17.5 11.5L17.5 9.5C17.5 8.39543 18.3954 7.5 19.5 7.5Z" fill="#2EB67D"/>
<rect x="16.5" y="2.5" width="9" height="4" rx="2" transform="rotate(90 16.5 2.5)" fill="#2EB67D"/>
<path d="M10.5 12L12 10.5L13.5 12L12 13.5L10.5 12Z" fill="white"/>
</svg>
