<svg width="32" height="32" viewBox="0 0 32 32" fill="none" xmlns="http://www.w3.org/2000/svg">
<path d="M4.93633 14.6489L12 12L14.6489 4.93633C14.8601 4.37312 15.3985 4 16 4C16.6015 4 17.1399 4.37312 17.3511 4.93633L20 12L27.0637 14.6489C27.6269 14.8601 28 15.3985 28 16C28 16.6015 27.6269 17.1399 27.0637 17.3511L20 20L17.3511 27.0637C17.1399 27.6269 16.6015 28 16 28C15.3985 28 14.8601 27.6269 14.6489 27.0637L12 20L4.93633 17.3511C4.37312 17.1399 4 16.6015 4 16C4 15.3985 4.37312 14.8601 4.93633 14.6489Z" fill="#FFADF3"/>
<path fill-rule="evenodd" clip-rule="evenodd" d="M12 12L14.6489 4.93633C14.8601 4.37312 15.3985 4 16 4C16.6015 4 17.1399 4.37312 17.3511 4.93633L20 12L27.0637 14.6489C27.6269 14.8601 28 15.3985 28 16C28 16.6015 27.6269 17.1399 27.0637 17.3511L20 20L17.3511 27.0637C17.1399 27.6269 16.6015 28 16 28C15.3985 28 14.8601 27.6269 14.6489 27.0637L12 20L4.93633 17.3511C4.37312 17.1399 4 16.6015 4 16C4 15.3985 4.37312 14.8601 4.93633 14.6489L12 12ZM8.89309 23.1069L10.9036 28.4682C11.7002 30.5926 13.7311 32 16 32C18.2689 32 20.2998 30.5926 21.0964 28.4682L23.1069 23.1069L28.4682 21.0964C30.5926 20.2998 32 18.2689 32 16C32 13.7311 30.5926 11.7002 28.4682 10.9036L23.1069 8.89309L21.0964 3.53184C20.2998 1.40742 18.2689 0 16 0C13.7311 0 11.7002 1.40741 10.9036 3.53183L8.89309 8.89309L3.53184 10.9036C1.40741 11.7002 0 13.7311 0 16C0 18.2689 1.40741 20.2998 3.53183 21.0964L8.89309 23.1069Z" fill="white"/>
</svg>
