<svg width="24" height="24" viewBox="0 0 24 24" fill="none" xmlns="http://www.w3.org/2000/svg">
<path d="M6.75 1.5C6.61742 1.5 6.49027 1.55266 6.3965 1.64639L2.6465 5.39519C2.5527 5.48896 2.5 5.61616 2.5 5.7488V19.0046C2.5 19.2808 2.72386 19.5046 3 19.5046H7V22.9933C7 23.1955 7.1218 23.3778 7.30862 23.4552C7.49544 23.5326 7.71049 23.4898 7.8535 23.3469L11.6969 19.5046H14.4898C14.6224 19.5046 14.7496 19.452 14.8433 19.3582L21.3535 12.8502C21.4473 12.7565 21.5 12.6293 21.5 12.4966V2C21.5 1.72386 21.2761 1.5 21 1.5H6.75Z" fill="#9146FF" stroke="white" stroke-linejoin="round"/>
<path d="M19.5 11.7048L16.2484 14.9975H13.4971L11 17.4984V14.9975H7.03554L7.03554 3.49951H19.5V11.7048Z" fill="white"/>
<path d="M17.25 6.12369H15.75V10.6222H17.25V6.12369Z" fill="#9146FF"/>
<path d="M13.125 6.12369H11.625V10.6222H13.125V6.12369Z" fill="#9146FF"/>
</svg>
