<svg width="24" height="24" viewBox="0 0 24 24" fill="none" xmlns="http://www.w3.org/2000/svg">
<path d="M2.74949 6.27766C2.59508 6.36705 2.5 6.53195 2.5 6.71038V17.1523C2.5 17.3309 2.59524 17.4959 2.74986 17.5853L11.7499 22.7853C11.9047 22.8747 12.0954 22.8747 12.2502 22.7852L21.2502 17.5829C21.4048 17.4936 21.5 17.3286 21.5 17.15V6.71038C21.5 6.53195 21.4049 6.36705 21.2505 6.27766L12.2505 1.06728C12.0956 0.977572 11.9044 0.977572 11.7495 1.06728L2.74949 6.27766Z" fill="white" stroke="white" stroke-linejoin="round"/>
<path d="M12.7868 5.60214L16.0056 7.46609C16.1213 7.53152 16.1255 7.71306 16.0056 7.7785L12.1809 9.99498C12.0652 10.0625 11.9285 10.0583 11.8212 9.99498L7.99649 7.7785C7.87868 7.71518 7.87658 7.52941 7.99649 7.46609L11.2132 5.60214V1.95234L3 6.71037V16.2264L6.14937 14.4026V10.6747C6.14727 10.5417 6.30295 10.4467 6.41865 10.5185L10.2433 12.735C10.359 12.8025 10.4243 12.9228 10.4243 13.0474V17.4782C10.4264 17.6112 10.2707 17.7062 10.155 17.6344L6.93619 15.7705L3.78682 17.5943L12 22.3523L20.2132 17.5943L17.0638 15.7705L13.845 17.6344C13.7314 17.7041 13.5715 17.6133 13.5757 17.4782V13.0474C13.5757 12.9144 13.6494 12.7962 13.7567 12.735L17.5813 10.5185C17.695 10.4488 17.8548 10.5375 17.8506 10.6747V14.4026L21 16.2264V6.71037L12.7868 1.95234V5.60214Z" fill="black"/>
</svg>
