<svg width="25" height="24" viewBox="0 0 25 24" fill="none" xmlns="http://www.w3.org/2000/svg">
<path d="M15.1034 2.75094C15.1927 2.59624 15.3578 2.50094 15.5364 2.50094H23.9961C24.1747 2.50094 24.3398 2.59624 24.4291 2.75094C24.5184 2.90564 24.5184 3.09624 24.4291 3.25094L13.4291 22.3037C13.3398 22.4584 13.1747 22.5537 12.9961 22.5537C12.8175 22.5537 12.6524 22.4584 12.5631 22.3037L1.56308 3.25094C1.47376 3.09624 1.47377 2.90564 1.56308 2.75094C1.6524 2.59624 1.81746 2.50094 1.99609 2.50094H10.4558C10.6344 2.50094 10.7995 2.59624 10.8888 2.75094L12.9961 6.40094L15.1034 2.75094Z" fill="#41B883" stroke="white" stroke-linejoin="round"/>
<path d="M15.5364 3.001L12.9961 7.401L10.4557 3.001H6.39607L12.9961 14.4324L19.5961 3.001H15.5364Z" fill="#34495E"/>
</svg>
