<svg width="2229" height="512" viewBox="0 0 2229 512" fill="none" xmlns="http://www.w3.org/2000/svg">
<path d="M776.927 330.574L776.918 330.563C776.23 329.733 775.462 328.261 774.855 325.802C774.304 323.569 772.301 322 770.001 322C767.701 322 765.698 323.569 765.147 325.802C764.54 328.259 763.771 329.732 763.083 330.563L763.074 330.574L763.049 330.605L763.041 330.615C762.437 331.365 761.546 332.005 760.099 332.426C758.428 332.912 755.96 333.23 752.53 333.23L752.521 333.23L752.491 333.23L752.482 333.23L570.289 335.008C570.193 335.003 570.097 335 570 335C569.458 335 568.861 335.01 568.224 335.028C568.217 335.029 568.211 335.029 568.204 335.029L199.296 338.63L199.281 338.63C192.612 338.632 186.694 340.01 181.981 343.254C178.099 345.925 172 351.362 172 359.4V368.4C172 371.161 174.239 373.4 177 373.4C179.761 373.4 182 371.161 182 368.4V359.4C182 356.633 184.284 353.807 187.649 351.492C190.186 349.747 193.917 348.63 199.296 348.63L199.306 348.63L199.335 348.63L199.345 348.629L535.588 345.347C533.421 348.105 531.704 351.631 531.704 355.889V364.889C531.704 367.65 533.943 369.889 536.704 369.889C539.465 369.889 541.704 367.65 541.704 364.889V355.889C541.704 353.122 543.988 350.296 547.353 347.981C547.34 347.99 547.341 347.99 547.359 347.981C547.405 347.958 547.573 347.874 547.922 347.748C548.36 347.589 548.995 347.394 549.859 347.184C551.483 346.788 553.528 346.427 555.775 346.116C560.253 345.497 565.177 345.125 568.442 345.026L568.451 345.026L568.471 345.025L752.53 343.23L752.538 343.23H752.545C756.466 343.229 759.968 342.878 762.891 342.028C765.633 341.231 768.063 339.856 770 337.831C771.938 339.856 774.368 341.231 777.11 342.028C780.036 342.879 783.544 343.23 787.47 343.23H1000.7C1006.08 343.23 1009.81 344.347 1012.35 346.092C1015.72 348.407 1018 351.233 1018 354V363C1018 365.761 1020.24 368 1023 368C1025.76 368 1028 365.761 1028 363V354C1028 345.962 1021.9 340.525 1018.02 337.854C1013.3 334.608 1007.38 333.23 1000.7 333.23H787.47C784.041 333.23 781.573 332.912 779.902 332.426C778.454 332.005 777.564 331.365 776.96 330.615L776.952 330.605L776.927 330.574Z" fill="#2A3751" stroke="white" stroke-width="4" stroke-linecap="round" stroke-linejoin="round"/>
<rect x="32" y="384" width="290" height="96" rx="48" fill="#C9FBE2"/>
<rect x="32" y="384" width="290" height="96" rx="48" stroke="#009483" stroke-width="6"/>
<path d="M102.031 442.12L88.9113 434.18V430.58L102.031 422.62V427.04L91.0113 432.96V431.8L102.031 437.68V442.12ZM131.148 413.5H140.108V443H135.088V416.86L135.208 416.9L128.868 443H121.828L115.408 416.88L115.528 416.82V443H110.508V413.5H119.468L125.448 440.12H125.108L131.148 413.5ZM155.641 443.42C153.401 443.42 151.428 442.953 149.721 442.02C148.014 441.073 146.674 439.767 145.701 438.1C144.741 436.433 144.261 434.527 144.261 432.38C144.261 430.22 144.741 428.32 145.701 426.68C146.674 425.027 148.014 423.733 149.721 422.8C151.428 421.867 153.401 421.4 155.641 421.4C157.881 421.4 159.854 421.867 161.561 422.8C163.268 423.733 164.601 425.027 165.561 426.68C166.534 428.32 167.021 430.22 167.021 432.38C167.021 434.527 166.534 436.433 165.561 438.1C164.601 439.767 163.268 441.073 161.561 442.02C159.854 442.953 157.881 443.42 155.641 443.42ZM155.641 439.12C156.854 439.12 157.914 438.84 158.821 438.28C159.728 437.72 160.434 436.94 160.941 435.94C161.448 434.927 161.701 433.74 161.701 432.38C161.701 431.02 161.448 429.847 160.941 428.86C160.434 427.86 159.728 427.087 158.821 426.54C157.914 425.993 156.854 425.72 155.641 425.72C154.441 425.72 153.381 425.993 152.461 426.54C151.554 427.087 150.848 427.86 150.341 428.86C149.834 429.847 149.581 431.02 149.581 432.38C149.581 433.74 149.834 434.927 150.341 435.94C150.848 436.94 151.554 437.72 152.461 438.28C153.381 438.84 154.441 439.12 155.641 439.12ZM179.793 443.44C178.046 443.44 176.426 443.02 174.933 442.18C173.453 441.327 172.266 440.073 171.373 438.42C170.479 436.767 170.033 434.733 170.033 432.32C170.033 429.973 170.486 427.987 171.393 426.36C172.313 424.733 173.513 423.5 174.993 422.66C176.486 421.82 178.086 421.4 179.793 421.4C181.459 421.4 182.999 421.813 184.413 422.64C185.826 423.453 186.959 424.587 187.813 426.04C188.666 427.493 189.093 429.16 189.093 431.04C189.093 431.093 189.093 431.147 189.093 431.2C189.093 431.253 189.093 431.307 189.093 431.36L186.493 431.42C186.493 431.38 186.493 431.34 186.493 431.3C186.493 431.247 186.493 431.2 186.493 431.16C186.493 430.107 186.226 429.187 185.693 428.4C185.173 427.613 184.493 427 183.653 426.56C182.826 426.107 181.946 425.88 181.013 425.88C179.479 425.88 178.173 426.4 177.093 427.44C176.013 428.467 175.473 430.093 175.473 432.32C175.473 434.533 176.013 436.167 177.093 437.22C178.173 438.273 179.479 438.8 181.013 438.8C181.986 438.8 182.886 438.567 183.713 438.1C184.539 437.633 185.206 436.993 185.713 436.18C186.233 435.353 186.493 434.407 186.493 433.34L189.093 433.46C189.093 435.327 188.673 437.02 187.833 438.54C187.006 440.047 185.893 441.24 184.493 442.12C183.093 443 181.526 443.44 179.793 443.44ZM186.493 443V411.74H191.773V443H186.493ZM203.829 443.44C202.243 443.44 200.849 443.193 199.649 442.7C198.449 442.193 197.509 441.467 196.829 440.52C196.149 439.573 195.809 438.433 195.809 437.1C195.809 435.647 196.203 434.453 196.989 433.52C197.789 432.573 198.863 431.847 200.209 431.34C201.556 430.82 203.049 430.487 204.689 430.34C207.116 430.1 208.809 429.873 209.769 429.66C210.743 429.433 211.229 429.073 211.229 428.58C211.229 428.567 211.229 428.56 211.229 428.56C211.229 428.547 211.229 428.54 211.229 428.54C211.229 427.607 210.809 426.887 209.969 426.38C209.129 425.873 207.943 425.62 206.409 425.62C204.796 425.62 203.556 425.907 202.689 426.48C201.836 427.04 201.409 427.933 201.409 429.16H196.209C196.209 427.493 196.649 426.087 197.529 424.94C198.423 423.78 199.643 422.9 201.189 422.3C202.736 421.7 204.489 421.4 206.449 421.4C208.276 421.4 209.949 421.673 211.469 422.22C212.989 422.767 214.209 423.593 215.129 424.7C216.049 425.807 216.509 427.187 216.509 428.84C216.509 429.12 216.509 429.4 216.509 429.68C216.509 429.96 216.509 430.24 216.509 430.52V438.52C216.509 439.027 216.523 439.527 216.549 440.02C216.589 440.5 216.663 440.933 216.769 441.32C216.903 441.747 217.063 442.107 217.249 442.4C217.436 442.693 217.583 442.893 217.689 443H212.489C212.396 442.907 212.263 442.727 212.089 442.46C211.929 442.18 211.783 441.86 211.649 441.5C211.516 441.1 211.416 440.673 211.349 440.22C211.283 439.753 211.249 439.24 211.249 438.68L212.289 439.4C211.889 440.213 211.276 440.927 210.449 441.54C209.636 442.14 208.663 442.607 207.529 442.94C206.396 443.273 205.163 443.44 203.829 443.44ZM205.109 439.3C206.203 439.3 207.216 439.113 208.149 438.74C209.083 438.367 209.836 437.793 210.409 437.02C210.983 436.233 211.269 435.227 211.269 434V431.16L212.549 432.6C211.696 432.92 210.669 433.187 209.469 433.4C208.269 433.6 207.056 433.76 205.829 433.88C204.256 434.027 203.069 434.3 202.269 434.7C201.483 435.1 201.089 435.753 201.089 436.66C201.089 437.54 201.423 438.2 202.089 438.64C202.756 439.08 203.763 439.3 205.109 439.3ZM226.473 411.74V443H221.293V411.74H226.473ZM245.413 411.74L233.793 446.1H229.493L241.133 411.74H245.413ZM251.952 422.62L265.052 430.58V434.18L251.952 442.12V437.68L262.972 431.8V432.96L251.952 427.04V422.62Z" fill="#009483"/>
<rect x="364" y="384" width="395" height="96" rx="48" fill="#FFF5CB"/>
<rect x="364" y="384" width="395" height="96" rx="48" stroke="#D17805" stroke-width="6"/>
<path d="M431.149 442.12L418.029 434.18V430.58L431.149 422.62V427.04L420.129 432.96V431.8L431.149 437.68V442.12ZM461.426 413.5V443H456.146V428.6L458.526 430.4H442.246L444.626 428.64V443H439.346V413.5H444.626V428.04L442.246 426.2H458.526L456.146 428.02V413.5H461.426ZM468.193 434.08V430.34H483.053L482.453 431.34C482.453 431.26 482.453 431.173 482.453 431.08C482.453 430.973 482.453 430.887 482.453 430.82C482.453 429.9 482.246 429.04 481.833 428.24C481.42 427.427 480.793 426.773 479.953 426.28C479.113 425.773 478.046 425.52 476.753 425.52C475.473 425.52 474.36 425.793 473.413 426.34C472.48 426.873 471.753 427.647 471.233 428.66C470.726 429.673 470.473 430.887 470.473 432.3C470.473 433.753 470.72 435.007 471.213 436.06C471.706 437.1 472.426 437.9 473.373 438.46C474.333 439.007 475.5 439.28 476.873 439.28C477.806 439.28 478.613 439.193 479.293 439.02C479.973 438.847 480.526 438.613 480.953 438.32C481.393 438.013 481.72 437.687 481.933 437.34C482.16 436.993 482.293 436.647 482.333 436.3H487.573C487.493 437.193 487.193 438.067 486.673 438.92C486.166 439.76 485.453 440.527 484.533 441.22C483.613 441.9 482.493 442.447 481.173 442.86C479.866 443.26 478.373 443.46 476.693 443.46C474.413 443.46 472.42 442.993 470.713 442.06C469.006 441.127 467.673 439.827 466.713 438.16C465.766 436.493 465.293 434.587 465.293 432.44C465.293 430.24 465.773 428.313 466.733 426.66C467.706 425.007 469.053 423.72 470.773 422.8C472.493 421.867 474.466 421.4 476.693 421.4C478.986 421.4 480.966 421.867 482.633 422.8C484.313 423.733 485.606 425.033 486.513 426.7C487.42 428.353 487.873 430.28 487.873 432.48C487.873 432.76 487.866 433.06 487.853 433.38C487.84 433.7 487.82 433.933 487.793 434.08H468.193ZM499.09 443.44C497.503 443.44 496.11 443.193 494.91 442.7C493.71 442.193 492.77 441.467 492.09 440.52C491.41 439.573 491.07 438.433 491.07 437.1C491.07 435.647 491.463 434.453 492.25 433.52C493.05 432.573 494.123 431.847 495.47 431.34C496.816 430.82 498.31 430.487 499.95 430.34C502.376 430.1 504.07 429.873 505.03 429.66C506.003 429.433 506.49 429.073 506.49 428.58C506.49 428.567 506.49 428.56 506.49 428.56C506.49 428.547 506.49 428.54 506.49 428.54C506.49 427.607 506.07 426.887 505.23 426.38C504.39 425.873 503.203 425.62 501.67 425.62C500.056 425.62 498.816 425.907 497.95 426.48C497.096 427.04 496.67 427.933 496.67 429.16H491.47C491.47 427.493 491.91 426.087 492.79 424.94C493.683 423.78 494.903 422.9 496.45 422.3C497.996 421.7 499.75 421.4 501.71 421.4C503.536 421.4 505.21 421.673 506.73 422.22C508.25 422.767 509.47 423.593 510.39 424.7C511.31 425.807 511.77 427.187 511.77 428.84C511.77 429.12 511.77 429.4 511.77 429.68C511.77 429.96 511.77 430.24 511.77 430.52V438.52C511.77 439.027 511.783 439.527 511.81 440.02C511.85 440.5 511.923 440.933 512.03 441.32C512.163 441.747 512.323 442.107 512.51 442.4C512.696 442.693 512.843 442.893 512.95 443H507.75C507.656 442.907 507.523 442.727 507.35 442.46C507.19 442.18 507.043 441.86 506.91 441.5C506.776 441.1 506.676 440.673 506.61 440.22C506.543 439.753 506.51 439.24 506.51 438.68L507.55 439.4C507.15 440.213 506.536 440.927 505.71 441.54C504.896 442.14 503.923 442.607 502.79 442.94C501.656 443.273 500.423 443.44 499.09 443.44ZM500.37 439.3C501.463 439.3 502.476 439.113 503.41 438.74C504.343 438.367 505.096 437.793 505.67 437.02C506.243 436.233 506.53 435.227 506.53 434V431.16L507.81 432.6C506.956 432.92 505.93 433.187 504.73 433.4C503.53 433.6 502.316 433.76 501.09 433.88C499.516 434.027 498.33 434.3 497.53 434.7C496.743 435.1 496.35 435.753 496.35 436.66C496.35 437.54 496.683 438.2 497.35 438.64C498.016 439.08 499.023 439.3 500.37 439.3ZM525.073 443.44C523.327 443.44 521.707 443.02 520.213 442.18C518.733 441.327 517.547 440.073 516.653 438.42C515.76 436.767 515.313 434.733 515.313 432.32C515.313 429.973 515.767 427.987 516.673 426.36C517.593 424.733 518.793 423.5 520.273 422.66C521.767 421.82 523.367 421.4 525.073 421.4C526.74 421.4 528.28 421.813 529.693 422.64C531.107 423.453 532.24 424.587 533.093 426.04C533.947 427.493 534.373 429.16 534.373 431.04C534.373 431.093 534.373 431.147 534.373 431.2C534.373 431.253 534.373 431.307 534.373 431.36L531.773 431.42C531.773 431.38 531.773 431.34 531.773 431.3C531.773 431.247 531.773 431.2 531.773 431.16C531.773 430.107 531.507 429.187 530.973 428.4C530.453 427.613 529.773 427 528.933 426.56C528.107 426.107 527.227 425.88 526.293 425.88C524.76 425.88 523.453 426.4 522.373 427.44C521.293 428.467 520.753 430.093 520.753 432.32C520.753 434.533 521.293 436.167 522.373 437.22C523.453 438.273 524.76 438.8 526.293 438.8C527.267 438.8 528.167 438.567 528.993 438.1C529.82 437.633 530.487 436.993 530.993 436.18C531.513 435.353 531.773 434.407 531.773 433.34L534.373 433.46C534.373 435.327 533.953 437.02 533.113 438.54C532.287 440.047 531.173 441.24 529.773 442.12C528.373 443 526.807 443.44 525.073 443.44ZM531.773 443V411.74H537.053V443H531.773ZM543.79 434.08V430.34H558.65L558.05 431.34C558.05 431.26 558.05 431.173 558.05 431.08C558.05 430.973 558.05 430.887 558.05 430.82C558.05 429.9 557.843 429.04 557.43 428.24C557.017 427.427 556.39 426.773 555.55 426.28C554.71 425.773 553.643 425.52 552.35 425.52C551.07 425.52 549.957 425.793 549.01 426.34C548.077 426.873 547.35 427.647 546.83 428.66C546.323 429.673 546.07 430.887 546.07 432.3C546.07 433.753 546.317 435.007 546.81 436.06C547.303 437.1 548.023 437.9 548.97 438.46C549.93 439.007 551.097 439.28 552.47 439.28C553.403 439.28 554.21 439.193 554.89 439.02C555.57 438.847 556.123 438.613 556.55 438.32C556.99 438.013 557.317 437.687 557.53 437.34C557.757 436.993 557.89 436.647 557.93 436.3H563.17C563.09 437.193 562.79 438.067 562.27 438.92C561.763 439.76 561.05 440.527 560.13 441.22C559.21 441.9 558.09 442.447 556.77 442.86C555.463 443.26 553.97 443.46 552.29 443.46C550.01 443.46 548.017 442.993 546.31 442.06C544.603 441.127 543.27 439.827 542.31 438.16C541.363 436.493 540.89 434.587 540.89 432.44C540.89 430.24 541.37 428.313 542.33 426.66C543.303 425.007 544.65 423.72 546.37 422.8C548.09 421.867 550.063 421.4 552.29 421.4C554.583 421.4 556.563 421.867 558.23 422.8C559.91 423.733 561.203 425.033 562.11 426.7C563.017 428.353 563.47 430.28 563.47 432.48C563.47 432.76 563.463 433.06 563.45 433.38C563.437 433.7 563.417 433.933 563.39 434.08H543.79ZM567.406 443V421.76H572.666V428.82L571.446 428.14C571.58 427.22 571.826 426.353 572.186 425.54C572.546 424.713 573.026 423.993 573.626 423.38C574.226 422.753 574.953 422.267 575.806 421.92C576.66 421.573 577.633 421.4 578.726 421.4C579.593 421.4 580.273 421.467 580.766 421.6C581.273 421.72 581.586 421.82 581.706 421.9L580.746 426.72C580.613 426.627 580.34 426.513 579.926 426.38C579.526 426.233 578.986 426.16 578.306 426.16C577.226 426.16 576.32 426.347 575.586 426.72C574.866 427.08 574.293 427.573 573.866 428.2C573.44 428.813 573.133 429.493 572.946 430.24C572.76 430.973 572.666 431.707 572.666 432.44V443H567.406ZM603.464 417.7H594.124L596.064 415.08V443H590.784V415.08L592.824 417.7H583.404V413.5H603.464V417.7ZM607.014 443V421.76H612.214V443H607.014ZM609.634 417.84C608.781 417.84 608.034 417.613 607.394 417.16C606.768 416.693 606.454 416.047 606.454 415.22C606.454 414.407 606.768 413.773 607.394 413.32C608.034 412.867 608.781 412.64 609.634 412.64C610.474 412.64 611.208 412.867 611.834 413.32C612.461 413.773 612.774 414.407 612.774 415.22C612.774 416.047 612.461 416.693 611.834 417.16C611.208 417.613 610.474 417.84 609.634 417.84ZM626.787 443.4C626.027 443.4 625.253 443.327 624.467 443.18C623.68 443.033 622.96 442.76 622.307 442.36C621.653 441.96 621.127 441.373 620.727 440.6C620.327 439.827 620.127 438.807 620.127 437.54C620.127 437.247 620.127 436.953 620.127 436.66C620.127 436.353 620.127 436.04 620.127 435.72V425.96H615.107V421.76H617.147C617.84 421.76 618.387 421.733 618.787 421.68C619.187 421.613 619.48 421.467 619.667 421.24C619.853 421.013 619.973 420.66 620.027 420.18C620.093 419.687 620.127 419.007 620.127 418.14V414.76H625.407V421.76H631.727V425.96H625.407V434.48C625.407 434.733 625.407 434.987 625.407 435.24C625.407 435.48 625.407 435.713 625.407 435.94C625.407 436.927 625.527 437.72 625.767 438.32C626.007 438.92 626.573 439.22 627.467 439.22C627.893 439.22 628.293 439.18 628.667 439.1C629.053 439.02 629.34 438.94 629.527 438.86V442.98C629.273 443.073 628.907 443.167 628.427 443.26C627.947 443.353 627.4 443.4 626.787 443.4ZM640.779 411.74V443H635.599V411.74H640.779ZM647.718 434.08V430.34H662.578L661.978 431.34C661.978 431.26 661.978 431.173 661.978 431.08C661.978 430.973 661.978 430.887 661.978 430.82C661.978 429.9 661.771 429.04 661.358 428.24C660.945 427.427 660.318 426.773 659.478 426.28C658.638 425.773 657.571 425.52 656.278 425.52C654.998 425.52 653.885 425.793 652.938 426.34C652.005 426.873 651.278 427.647 650.758 428.66C650.251 429.673 649.998 430.887 649.998 432.3C649.998 433.753 650.245 435.007 650.738 436.06C651.231 437.1 651.951 437.9 652.898 438.46C653.858 439.007 655.025 439.28 656.398 439.28C657.331 439.28 658.138 439.193 658.818 439.02C659.498 438.847 660.051 438.613 660.478 438.32C660.918 438.013 661.245 437.687 661.458 437.34C661.685 436.993 661.818 436.647 661.858 436.3H667.098C667.018 437.193 666.718 438.067 666.198 438.92C665.691 439.76 664.978 440.527 664.058 441.22C663.138 441.9 662.018 442.447 660.698 442.86C659.391 443.26 657.898 443.46 656.218 443.46C653.938 443.46 651.945 442.993 650.238 442.06C648.531 441.127 647.198 439.827 646.238 438.16C645.291 436.493 644.818 434.587 644.818 432.44C644.818 430.24 645.298 428.313 646.258 426.66C647.231 425.007 648.578 423.72 650.298 422.8C652.018 421.867 653.991 421.4 656.218 421.4C658.511 421.4 660.491 421.867 662.158 422.8C663.838 423.733 665.131 425.033 666.038 426.7C666.945 428.353 667.398 430.28 667.398 432.48C667.398 432.76 667.391 433.06 667.378 433.38C667.365 433.7 667.345 433.933 667.318 434.08H647.718ZM685.295 411.74L673.675 446.1H669.375L681.015 411.74H685.295ZM691.834 422.62L704.934 430.58V434.18L691.834 442.12V437.68L702.854 431.8V432.96L691.834 427.04V422.62Z" fill="#D17805"/>
<rect x="833" y="384" width="380" height="96" rx="48" fill="#FFF5CB"/>
<rect x="833" y="384" width="380" height="96" rx="48" stroke="#D17805" stroke-width="6"/>
<path d="M900.555 442.12L887.435 434.18V430.58L900.555 422.62V427.04L889.535 432.96V431.8L900.555 437.68V442.12ZM908.752 443V413.5H917.572C919.532 413.5 921.312 413.853 922.912 414.56C924.512 415.253 925.885 416.247 927.032 417.54C928.179 418.833 929.065 420.387 929.692 422.2C930.319 424 930.632 426.007 930.632 428.22C930.632 430.433 930.319 432.447 929.692 434.26C929.065 436.06 928.179 437.613 927.032 438.92C925.885 440.227 924.512 441.233 922.912 441.94C921.312 442.647 919.532 443 917.572 443H908.752ZM914.032 441.42L911.652 438.8H916.892C918.492 438.8 919.919 438.373 921.172 437.52C922.439 436.653 923.439 435.433 924.172 433.86C924.905 432.273 925.272 430.393 925.272 428.22C925.272 426.033 924.905 424.153 924.172 422.58C923.439 421.007 922.439 419.8 921.172 418.96C919.919 418.12 918.492 417.7 916.892 417.7H911.652L914.032 415.08V441.42ZM936.583 434.08V430.34H951.443L950.843 431.34C950.843 431.26 950.843 431.173 950.843 431.08C950.843 430.973 950.843 430.887 950.843 430.82C950.843 429.9 950.636 429.04 950.223 428.24C949.809 427.427 949.183 426.773 948.343 426.28C947.503 425.773 946.436 425.52 945.143 425.52C943.863 425.52 942.749 425.793 941.803 426.34C940.869 426.873 940.143 427.647 939.623 428.66C939.116 429.673 938.863 430.887 938.863 432.3C938.863 433.753 939.109 435.007 939.603 436.06C940.096 437.1 940.816 437.9 941.763 438.46C942.723 439.007 943.889 439.28 945.263 439.28C946.196 439.28 947.003 439.193 947.683 439.02C948.363 438.847 948.916 438.613 949.343 438.32C949.783 438.013 950.109 437.687 950.323 437.34C950.549 436.993 950.683 436.647 950.723 436.3H955.963C955.883 437.193 955.583 438.067 955.063 438.92C954.556 439.76 953.843 440.527 952.923 441.22C952.003 441.9 950.883 442.447 949.563 442.86C948.256 443.26 946.763 443.46 945.083 443.46C942.803 443.46 940.809 442.993 939.103 442.06C937.396 441.127 936.063 439.827 935.103 438.16C934.156 436.493 933.683 434.587 933.683 432.44C933.683 430.24 934.163 428.313 935.123 426.66C936.096 425.007 937.443 423.72 939.163 422.8C940.883 421.867 942.856 421.4 945.083 421.4C947.376 421.4 949.356 421.867 951.023 422.8C952.703 423.733 953.996 425.033 954.903 426.7C955.809 428.353 956.263 430.28 956.263 432.48C956.263 432.76 956.256 433.06 956.243 433.38C956.229 433.7 956.209 433.933 956.183 434.08H936.583ZM965.679 411.74V443H960.499V411.74H965.679ZM972.619 434.08V430.34H987.479L986.879 431.34C986.879 431.26 986.879 431.173 986.879 431.08C986.879 430.973 986.879 430.887 986.879 430.82C986.879 429.9 986.672 429.04 986.259 428.24C985.845 427.427 985.219 426.773 984.379 426.28C983.539 425.773 982.472 425.52 981.179 425.52C979.899 425.52 978.785 425.793 977.839 426.34C976.905 426.873 976.179 427.647 975.659 428.66C975.152 429.673 974.899 430.887 974.899 432.3C974.899 433.753 975.145 435.007 975.639 436.06C976.132 437.1 976.852 437.9 977.799 438.46C978.759 439.007 979.925 439.28 981.299 439.28C982.232 439.28 983.039 439.193 983.719 439.02C984.399 438.847 984.952 438.613 985.379 438.32C985.819 438.013 986.145 437.687 986.359 437.34C986.585 436.993 986.719 436.647 986.759 436.3H991.999C991.919 437.193 991.619 438.067 991.099 438.92C990.592 439.76 989.879 440.527 988.959 441.22C988.039 441.9 986.919 442.447 985.599 442.86C984.292 443.26 982.799 443.46 981.119 443.46C978.839 443.46 976.845 442.993 975.139 442.06C973.432 441.127 972.099 439.827 971.139 438.16C970.192 436.493 969.719 434.587 969.719 432.44C969.719 430.24 970.199 428.313 971.159 426.66C972.132 425.007 973.479 423.72 975.199 422.8C976.919 421.867 978.892 421.4 981.119 421.4C983.412 421.4 985.392 421.867 987.059 422.8C988.739 423.733 990.032 425.033 990.939 426.7C991.845 428.353 992.299 430.28 992.299 432.48C992.299 432.76 992.292 433.06 992.279 433.38C992.265 433.7 992.245 433.933 992.219 434.08H972.619ZM1005.76 443.4C1005 443.4 1004.23 443.327 1003.44 443.18C1002.65 443.033 1001.93 442.76 1001.28 442.36C1000.63 441.96 1000.1 441.373 999.701 440.6C999.301 439.827 999.101 438.807 999.101 437.54C999.101 437.247 999.101 436.953 999.101 436.66C999.101 436.353 999.101 436.04 999.101 435.72V425.96H994.081V421.76H996.121C996.814 421.76 997.361 421.733 997.761 421.68C998.161 421.613 998.454 421.467 998.641 421.24C998.828 421.013 998.948 420.66 999.001 420.18C999.068 419.687 999.101 419.007 999.101 418.14V414.76H1004.38V421.76H1010.7V425.96H1004.38V434.48C1004.38 434.733 1004.38 434.987 1004.38 435.24C1004.38 435.48 1004.38 435.713 1004.38 435.94C1004.38 436.927 1004.5 437.72 1004.74 438.32C1004.98 438.92 1005.55 439.22 1006.44 439.22C1006.87 439.22 1007.27 439.18 1007.64 439.1C1008.03 439.02 1008.31 438.94 1008.5 438.86V442.98C1008.25 443.073 1007.88 443.167 1007.4 443.26C1006.92 443.353 1006.37 443.4 1005.76 443.4ZM1015.65 434.08V430.34H1030.51L1029.91 431.34C1029.91 431.26 1029.91 431.173 1029.91 431.08C1029.91 430.973 1029.91 430.887 1029.91 430.82C1029.91 429.9 1029.7 429.04 1029.29 428.24C1028.87 427.427 1028.25 426.773 1027.41 426.28C1026.57 425.773 1025.5 425.52 1024.21 425.52C1022.93 425.52 1021.81 425.793 1020.87 426.34C1019.93 426.873 1019.21 427.647 1018.69 428.66C1018.18 429.673 1017.93 430.887 1017.93 432.3C1017.93 433.753 1018.17 435.007 1018.67 436.06C1019.16 437.1 1019.88 437.9 1020.83 438.46C1021.79 439.007 1022.95 439.28 1024.33 439.28C1025.26 439.28 1026.07 439.193 1026.75 439.02C1027.43 438.847 1027.98 438.613 1028.41 438.32C1028.85 438.013 1029.17 437.687 1029.39 437.34C1029.61 436.993 1029.75 436.647 1029.79 436.3H1035.03C1034.95 437.193 1034.65 438.067 1034.13 438.92C1033.62 439.76 1032.91 440.527 1031.99 441.22C1031.07 441.9 1029.95 442.447 1028.63 442.86C1027.32 443.26 1025.83 443.46 1024.15 443.46C1021.87 443.46 1019.87 442.993 1018.17 442.06C1016.46 441.127 1015.13 439.827 1014.17 438.16C1013.22 436.493 1012.75 434.587 1012.75 432.44C1012.75 430.24 1013.23 428.313 1014.19 426.66C1015.16 425.007 1016.51 423.72 1018.23 422.8C1019.95 421.867 1021.92 421.4 1024.15 421.4C1026.44 421.4 1028.42 421.867 1030.09 422.8C1031.77 423.733 1033.06 425.033 1033.97 426.7C1034.87 428.353 1035.33 430.28 1035.33 432.48C1035.33 432.76 1035.32 433.06 1035.31 433.38C1035.29 433.7 1035.27 433.933 1035.25 434.08H1015.65ZM1039.24 443V413.5H1044.44V443H1039.24ZM1059.79 443.44C1057.55 443.44 1055.57 442.98 1053.85 442.06C1052.13 441.14 1050.79 439.847 1049.81 438.18C1048.84 436.513 1048.35 434.56 1048.35 432.32C1048.35 430.093 1048.84 428.16 1049.81 426.52C1050.79 424.88 1052.13 423.62 1053.85 422.74C1055.57 421.847 1057.55 421.4 1059.79 421.4C1061.47 421.4 1062.96 421.647 1064.25 422.14C1065.55 422.633 1066.63 423.293 1067.51 424.12C1068.41 424.933 1069.09 425.833 1069.55 426.82C1070.02 427.793 1070.25 428.767 1070.25 429.74C1070.25 429.767 1070.25 429.793 1070.25 429.82C1070.25 429.847 1070.25 429.873 1070.25 429.9H1065.03C1065.03 429.833 1065.03 429.76 1065.01 429.68C1065 429.6 1064.99 429.52 1064.97 429.44C1064.87 428.76 1064.59 428.147 1064.15 427.6C1063.71 427.04 1063.13 426.593 1062.39 426.26C1061.66 425.927 1060.77 425.76 1059.73 425.76C1058.63 425.76 1057.61 426.007 1056.69 426.5C1055.79 426.98 1055.06 427.707 1054.51 428.68C1053.98 429.653 1053.71 430.867 1053.71 432.32C1053.71 433.76 1053.98 434.987 1054.51 436C1055.05 437 1055.77 437.767 1056.67 438.3C1057.59 438.82 1058.61 439.08 1059.73 439.08C1060.92 439.08 1061.89 438.9 1062.63 438.54C1063.39 438.167 1063.97 437.673 1064.35 437.06C1064.74 436.433 1064.96 435.753 1065.01 435.02H1070.25C1070.25 436.007 1070.03 437 1069.57 438C1069.12 438.987 1068.45 439.893 1067.57 440.72C1066.69 441.547 1065.6 442.207 1064.29 442.7C1063 443.193 1061.5 443.44 1059.79 443.44ZM1084.65 443.42C1082.41 443.42 1080.43 442.953 1078.73 442.02C1077.02 441.073 1075.68 439.767 1074.71 438.1C1073.75 436.433 1073.27 434.527 1073.27 432.38C1073.27 430.22 1073.75 428.32 1074.71 426.68C1075.68 425.027 1077.02 423.733 1078.73 422.8C1080.43 421.867 1082.41 421.4 1084.65 421.4C1086.89 421.4 1088.86 421.867 1090.57 422.8C1092.27 423.733 1093.61 425.027 1094.57 426.68C1095.54 428.32 1096.03 430.22 1096.03 432.38C1096.03 434.527 1095.54 436.433 1094.57 438.1C1093.61 439.767 1092.27 441.073 1090.57 442.02C1088.86 442.953 1086.89 443.42 1084.65 443.42ZM1084.65 439.12C1085.86 439.12 1086.92 438.84 1087.83 438.28C1088.73 437.72 1089.44 436.94 1089.95 435.94C1090.45 434.927 1090.71 433.74 1090.71 432.38C1090.71 431.02 1090.45 429.847 1089.95 428.86C1089.44 427.86 1088.73 427.087 1087.83 426.54C1086.92 425.993 1085.86 425.72 1084.65 425.72C1083.45 425.72 1082.39 425.993 1081.47 426.54C1080.56 427.087 1079.85 427.86 1079.35 428.86C1078.84 429.847 1078.59 431.02 1078.59 432.38C1078.59 433.74 1078.84 434.927 1079.35 435.94C1079.85 436.94 1080.56 437.72 1081.47 438.28C1082.39 438.84 1083.45 439.12 1084.65 439.12ZM1115 443V433.58C1115 433.047 1115 432.58 1115 432.18C1115 431.767 1115 431.393 1115 431.06C1115 430.1 1114.86 429.24 1114.58 428.48C1114.31 427.707 1113.84 427.1 1113.18 426.66C1112.52 426.22 1111.62 426 1110.46 426C1109.44 426 1108.54 426.247 1107.76 426.74C1106.97 427.22 1106.35 427.887 1105.9 428.74C1105.46 429.58 1105.24 430.553 1105.24 431.66L1103.46 430.56C1103.46 428.787 1103.86 427.213 1104.66 425.84C1105.47 424.453 1106.56 423.367 1107.92 422.58C1109.28 421.793 1110.78 421.4 1112.44 421.4C1114.14 421.4 1115.58 421.733 1116.74 422.4C1117.91 423.067 1118.79 424.013 1119.38 425.24C1119.98 426.467 1120.28 427.907 1120.28 429.56C1120.28 430.2 1120.28 430.92 1120.28 431.72C1120.28 432.52 1120.28 433.307 1120.28 434.08V443H1115ZM1099.98 443V421.76H1105.24V443H1099.98ZM1138.89 411.74L1127.27 446.1H1122.97L1134.61 411.74H1138.89ZM1145.43 422.62L1158.53 430.58V434.18L1145.43 442.12V437.68L1156.45 431.8V432.96L1145.43 427.04V422.62Z" fill="#D17805"/>
<rect x="624" y="208" width="292" height="96" rx="48" fill="#FFF5CB"/>
<rect x="624" y="208" width="292" height="96" rx="48" stroke="#D17805" stroke-width="6"/>
<path d="M691.574 266.12L678.454 258.18V254.58L691.574 246.62V251.04L680.554 256.96V255.8L691.574 261.68V266.12ZM721.851 237.5V267H716.571V252.6L718.951 254.4H702.671L705.051 252.64V267H699.771V237.5H705.051V252.04L702.671 250.2H718.951L716.571 252.02V237.5H721.851ZM728.618 258.08V254.34H743.478L742.878 255.34C742.878 255.26 742.878 255.173 742.878 255.08C742.878 254.973 742.878 254.887 742.878 254.82C742.878 253.9 742.671 253.04 742.258 252.24C741.845 251.427 741.218 250.773 740.378 250.28C739.538 249.773 738.471 249.52 737.178 249.52C735.898 249.52 734.785 249.793 733.838 250.34C732.905 250.873 732.178 251.647 731.658 252.66C731.151 253.673 730.898 254.887 730.898 256.3C730.898 257.753 731.145 259.007 731.638 260.06C732.131 261.1 732.851 261.9 733.798 262.46C734.758 263.007 735.925 263.28 737.298 263.28C738.231 263.28 739.038 263.193 739.718 263.02C740.398 262.847 740.951 262.613 741.378 262.32C741.818 262.013 742.145 261.687 742.358 261.34C742.585 260.993 742.718 260.647 742.758 260.3H747.998C747.918 261.193 747.618 262.067 747.098 262.92C746.591 263.76 745.878 264.527 744.958 265.22C744.038 265.9 742.918 266.447 741.598 266.86C740.291 267.26 738.798 267.46 737.118 267.46C734.838 267.46 732.845 266.993 731.138 266.06C729.431 265.127 728.098 263.827 727.138 262.16C726.191 260.493 725.718 258.587 725.718 256.44C725.718 254.24 726.198 252.313 727.158 250.66C728.131 249.007 729.478 247.72 731.198 246.8C732.918 245.867 734.891 245.4 737.118 245.4C739.411 245.4 741.391 245.867 743.058 246.8C744.738 247.733 746.031 249.033 746.938 250.7C747.845 252.353 748.298 254.28 748.298 256.48C748.298 256.76 748.291 257.06 748.278 257.38C748.265 257.7 748.245 257.933 748.218 258.08H728.618ZM759.515 267.44C757.928 267.44 756.535 267.193 755.335 266.7C754.135 266.193 753.195 265.467 752.515 264.52C751.835 263.573 751.495 262.433 751.495 261.1C751.495 259.647 751.888 258.453 752.675 257.52C753.475 256.573 754.548 255.847 755.895 255.34C757.241 254.82 758.735 254.487 760.375 254.34C762.801 254.1 764.495 253.873 765.455 253.66C766.428 253.433 766.915 253.073 766.915 252.58C766.915 252.567 766.915 252.56 766.915 252.56C766.915 252.547 766.915 252.54 766.915 252.54C766.915 251.607 766.495 250.887 765.655 250.38C764.815 249.873 763.628 249.62 762.095 249.62C760.481 249.62 759.241 249.907 758.375 250.48C757.521 251.04 757.095 251.933 757.095 253.16H751.895C751.895 251.493 752.335 250.087 753.215 248.94C754.108 247.78 755.328 246.9 756.875 246.3C758.421 245.7 760.175 245.4 762.135 245.4C763.961 245.4 765.635 245.673 767.155 246.22C768.675 246.767 769.895 247.593 770.815 248.7C771.735 249.807 772.195 251.187 772.195 252.84C772.195 253.12 772.195 253.4 772.195 253.68C772.195 253.96 772.195 254.24 772.195 254.52V262.52C772.195 263.027 772.208 263.527 772.235 264.02C772.275 264.5 772.348 264.933 772.455 265.32C772.588 265.747 772.748 266.107 772.935 266.4C773.121 266.693 773.268 266.893 773.375 267H768.175C768.081 266.907 767.948 266.727 767.775 266.46C767.615 266.18 767.468 265.86 767.335 265.5C767.201 265.1 767.101 264.673 767.035 264.22C766.968 263.753 766.935 263.24 766.935 262.68L767.975 263.4C767.575 264.213 766.961 264.927 766.135 265.54C765.321 266.14 764.348 266.607 763.215 266.94C762.081 267.273 760.848 267.44 759.515 267.44ZM760.795 263.3C761.888 263.3 762.901 263.113 763.835 262.74C764.768 262.367 765.521 261.793 766.095 261.02C766.668 260.233 766.955 259.227 766.955 258V255.16L768.235 256.6C767.381 256.92 766.355 257.187 765.155 257.4C763.955 257.6 762.741 257.76 761.515 257.88C759.941 258.027 758.755 258.3 757.955 258.7C757.168 259.1 756.775 259.753 756.775 260.66C756.775 261.54 757.108 262.2 757.775 262.64C758.441 263.08 759.448 263.3 760.795 263.3ZM785.498 267.44C783.752 267.44 782.132 267.02 780.638 266.18C779.158 265.327 777.972 264.073 777.078 262.42C776.185 260.767 775.738 258.733 775.738 256.32C775.738 253.973 776.192 251.987 777.098 250.36C778.018 248.733 779.218 247.5 780.698 246.66C782.192 245.82 783.792 245.4 785.498 245.4C787.165 245.4 788.705 245.813 790.118 246.64C791.532 247.453 792.665 248.587 793.518 250.04C794.372 251.493 794.798 253.16 794.798 255.04C794.798 255.093 794.798 255.147 794.798 255.2C794.798 255.253 794.798 255.307 794.798 255.36L792.198 255.42C792.198 255.38 792.198 255.34 792.198 255.3C792.198 255.247 792.198 255.2 792.198 255.16C792.198 254.107 791.932 253.187 791.398 252.4C790.878 251.613 790.198 251 789.358 250.56C788.532 250.107 787.652 249.88 786.718 249.88C785.185 249.88 783.878 250.4 782.798 251.44C781.718 252.467 781.178 254.093 781.178 256.32C781.178 258.533 781.718 260.167 782.798 261.22C783.878 262.273 785.185 262.8 786.718 262.8C787.692 262.8 788.592 262.567 789.418 262.1C790.245 261.633 790.912 260.993 791.418 260.18C791.938 259.353 792.198 258.407 792.198 257.34L794.798 257.46C794.798 259.327 794.378 261.02 793.538 262.54C792.712 264.047 791.598 265.24 790.198 266.12C788.798 267 787.232 267.44 785.498 267.44ZM792.198 267V235.74H797.478V267H792.198ZM804.215 258.08V254.34H819.075L818.475 255.34C818.475 255.26 818.475 255.173 818.475 255.08C818.475 254.973 818.475 254.887 818.475 254.82C818.475 253.9 818.268 253.04 817.855 252.24C817.442 251.427 816.815 250.773 815.975 250.28C815.135 249.773 814.068 249.52 812.775 249.52C811.495 249.52 810.382 249.793 809.435 250.34C808.502 250.873 807.775 251.647 807.255 252.66C806.748 253.673 806.495 254.887 806.495 256.3C806.495 257.753 806.742 259.007 807.235 260.06C807.728 261.1 808.448 261.9 809.395 262.46C810.355 263.007 811.522 263.28 812.895 263.28C813.828 263.28 814.635 263.193 815.315 263.02C815.995 262.847 816.548 262.613 816.975 262.32C817.415 262.013 817.742 261.687 817.955 261.34C818.182 260.993 818.315 260.647 818.355 260.3H823.595C823.515 261.193 823.215 262.067 822.695 262.92C822.188 263.76 821.475 264.527 820.555 265.22C819.635 265.9 818.515 266.447 817.195 266.86C815.888 267.26 814.395 267.46 812.715 267.46C810.435 267.46 808.442 266.993 806.735 266.06C805.028 265.127 803.695 263.827 802.735 262.16C801.788 260.493 801.315 258.587 801.315 256.44C801.315 254.24 801.795 252.313 802.755 250.66C803.728 249.007 805.075 247.72 806.795 246.8C808.515 245.867 810.488 245.4 812.715 245.4C815.008 245.4 816.988 245.867 818.655 246.8C820.335 247.733 821.628 249.033 822.535 250.7C823.442 252.353 823.895 254.28 823.895 256.48C823.895 256.76 823.888 257.06 823.875 257.38C823.862 257.7 823.842 257.933 823.815 258.08H804.215ZM827.831 267V245.76H833.091V252.82L831.871 252.14C832.005 251.22 832.251 250.353 832.611 249.54C832.971 248.713 833.451 247.993 834.051 247.38C834.651 246.753 835.378 246.267 836.231 245.92C837.085 245.573 838.058 245.4 839.151 245.4C840.018 245.4 840.698 245.467 841.191 245.6C841.698 245.72 842.011 245.82 842.131 245.9L841.171 250.72C841.038 250.627 840.765 250.513 840.351 250.38C839.951 250.233 839.411 250.16 838.731 250.16C837.651 250.16 836.745 250.347 836.011 250.72C835.291 251.08 834.718 251.573 834.291 252.2C833.865 252.813 833.558 253.493 833.371 254.24C833.185 254.973 833.091 255.707 833.091 256.44V267H827.831ZM848.409 246.62L861.509 254.58V258.18L848.409 266.12V261.68L859.429 255.8V256.96L848.409 251.04V246.62Z" fill="#D17805"/>
<rect x="1006" y="32" width="223" height="96" rx="48" fill="#FFF5CB"/>
<rect x="1006" y="32" width="223" height="96" rx="48" stroke="#D17805" stroke-width="6"/>
<path d="M1073.18 90.12L1060.06 82.18V78.58L1073.18 70.62V75.04L1062.16 80.96V79.8L1073.18 85.68V90.12ZM1080.06 91L1087.68 61.46H1096L1103.56 91H1098.14L1091.82 64.72H1091.86L1085.48 91H1080.06ZM1084.98 83.82V79.6H1098.7V83.82H1084.98ZM1107.05 99.74V69.76H1112.31V99.74H1107.05ZM1119.01 91.44C1117.36 91.44 1115.83 91.0133 1114.41 90.16C1113.01 89.2933 1111.88 88.1133 1111.01 86.62C1110.16 85.1267 1109.73 83.4467 1109.73 81.58C1109.73 81.5267 1109.73 81.48 1109.73 81.44C1109.73 81.3867 1109.73 81.34 1109.73 81.3L1112.33 81.24C1112.33 81.2667 1112.33 81.3 1112.33 81.34C1112.33 81.38 1112.33 81.4133 1112.33 81.44C1112.33 82.48 1112.59 83.4067 1113.11 84.22C1113.63 85.02 1114.31 85.6533 1115.13 86.12C1115.97 86.5733 1116.87 86.8 1117.81 86.8C1119.35 86.8 1120.65 86.2733 1121.73 85.22C1122.81 84.1667 1123.35 82.5333 1123.35 80.32C1123.35 78.0933 1122.81 76.4667 1121.73 75.44C1120.67 74.4 1119.36 73.88 1117.81 73.88C1116.88 73.88 1115.99 74.1067 1115.15 74.56C1114.33 75 1113.65 75.6133 1113.11 76.4C1112.59 77.1867 1112.33 78.1067 1112.33 79.16L1109.73 79.04C1109.73 77.16 1110.16 75.4933 1111.01 74.04C1111.88 72.5867 1113.01 71.4533 1114.41 70.64C1115.83 69.8133 1117.36 69.4 1119.01 69.4C1120.73 69.4 1122.33 69.82 1123.81 70.66C1125.31 71.5 1126.51 72.7333 1127.41 74.36C1128.33 75.9867 1128.79 77.9733 1128.79 80.32C1128.79 82.7333 1128.35 84.7667 1127.45 86.42C1126.56 88.0733 1125.37 89.3267 1123.89 90.18C1122.41 91.02 1120.79 91.44 1119.01 91.44ZM1132.75 99.74V69.76H1138.01V99.74H1132.75ZM1144.71 91.44C1143.05 91.44 1141.52 91.0133 1140.11 90.16C1138.71 89.2933 1137.57 88.1133 1136.71 86.62C1135.85 85.1267 1135.43 83.4467 1135.43 81.58C1135.43 81.5267 1135.43 81.48 1135.43 81.44C1135.43 81.3867 1135.43 81.34 1135.43 81.3L1138.03 81.24C1138.03 81.2667 1138.03 81.3 1138.03 81.34C1138.03 81.38 1138.03 81.4133 1138.03 81.44C1138.03 82.48 1138.29 83.4067 1138.81 84.22C1139.33 85.02 1140 85.6533 1140.83 86.12C1141.67 86.5733 1142.56 86.8 1143.51 86.8C1145.04 86.8 1146.35 86.2733 1147.43 85.22C1148.51 84.1667 1149.05 82.5333 1149.05 80.32C1149.05 78.0933 1148.51 76.4667 1147.43 75.44C1146.36 74.4 1145.05 73.88 1143.51 73.88C1142.57 73.88 1141.69 74.1067 1140.85 74.56C1140.02 75 1139.34 75.6133 1138.81 76.4C1138.29 77.1867 1138.03 78.1067 1138.03 79.16L1135.43 79.04C1135.43 77.16 1135.85 75.4933 1136.71 74.04C1137.57 72.5867 1138.71 71.4533 1140.11 70.64C1141.52 69.8133 1143.05 69.4 1144.71 69.4C1146.43 69.4 1148.03 69.82 1149.51 70.66C1151 71.5 1152.2 72.7333 1153.11 74.36C1154.03 75.9867 1154.49 77.9733 1154.49 80.32C1154.49 82.7333 1154.04 84.7667 1153.15 86.42C1152.25 88.0733 1151.07 89.3267 1149.59 90.18C1148.11 91.02 1146.48 91.44 1144.71 91.44ZM1161.8 70.62L1174.9 78.58V82.18L1161.8 90.12V85.68L1172.82 79.8V80.96L1161.8 75.04V70.62Z" fill="#D17805"/>
<rect x="1317" y="208" width="290" height="96" rx="48" fill="#FED9D2"/>
<rect x="1317" y="208" width="290" height="96" rx="48" stroke="#DA2F84" stroke-opacity="0.64" stroke-width="6"/>
<path d="M1381.84 266.12L1368.72 258.18V254.58L1381.84 246.62V251.04L1370.82 256.96V255.8L1381.84 261.68V266.12ZM1392.9 241.7L1395.28 239.08V251.86L1393.64 250.44H1405.68V254.66H1393.64L1395.28 253.14V267H1390.04V237.5H1407.46V241.7H1392.9ZM1420.29 267.42C1418.05 267.42 1416.08 266.953 1414.37 266.02C1412.67 265.073 1411.33 263.767 1410.35 262.1C1409.39 260.433 1408.91 258.527 1408.91 256.38C1408.91 254.22 1409.39 252.32 1410.35 250.68C1411.33 249.027 1412.67 247.733 1414.37 246.8C1416.08 245.867 1418.05 245.4 1420.29 245.4C1422.53 245.4 1424.51 245.867 1426.21 246.8C1427.92 247.733 1429.25 249.027 1430.21 250.68C1431.19 252.32 1431.67 254.22 1431.67 256.38C1431.67 258.527 1431.19 260.433 1430.21 262.1C1429.25 263.767 1427.92 265.073 1426.21 266.02C1424.51 266.953 1422.53 267.42 1420.29 267.42ZM1420.29 263.12C1421.51 263.12 1422.57 262.84 1423.47 262.28C1424.38 261.72 1425.09 260.94 1425.59 259.94C1426.1 258.927 1426.35 257.74 1426.35 256.38C1426.35 255.02 1426.1 253.847 1425.59 252.86C1425.09 251.86 1424.38 251.087 1423.47 250.54C1422.57 249.993 1421.51 249.72 1420.29 249.72C1419.09 249.72 1418.03 249.993 1417.11 250.54C1416.21 251.087 1415.5 251.86 1414.99 252.86C1414.49 253.847 1414.23 255.02 1414.23 256.38C1414.23 257.74 1414.49 258.927 1414.99 259.94C1415.5 260.94 1416.21 261.72 1417.11 262.28C1418.03 262.84 1419.09 263.12 1420.29 263.12ZM1446.07 267.42C1443.83 267.42 1441.85 266.953 1440.15 266.02C1438.44 265.073 1437.1 263.767 1436.13 262.1C1435.17 260.433 1434.69 258.527 1434.69 256.38C1434.69 254.22 1435.17 252.32 1436.13 250.68C1437.1 249.027 1438.44 247.733 1440.15 246.8C1441.85 245.867 1443.83 245.4 1446.07 245.4C1448.31 245.4 1450.28 245.867 1451.99 246.8C1453.69 247.733 1455.03 249.027 1455.99 250.68C1456.96 252.32 1457.45 254.22 1457.45 256.38C1457.45 258.527 1456.96 260.433 1455.99 262.1C1455.03 263.767 1453.69 265.073 1451.99 266.02C1450.28 266.953 1448.31 267.42 1446.07 267.42ZM1446.07 263.12C1447.28 263.12 1448.34 262.84 1449.25 262.28C1450.15 261.72 1450.86 260.94 1451.37 259.94C1451.87 258.927 1452.13 257.74 1452.13 256.38C1452.13 255.02 1451.87 253.847 1451.37 252.86C1450.86 251.86 1450.15 251.087 1449.25 250.54C1448.34 249.993 1447.28 249.72 1446.07 249.72C1444.87 249.72 1443.81 249.993 1442.89 250.54C1441.98 251.087 1441.27 251.86 1440.77 252.86C1440.26 253.847 1440.01 255.02 1440.01 256.38C1440.01 257.74 1440.26 258.927 1440.77 259.94C1441.27 260.94 1441.98 261.72 1442.89 262.28C1443.81 262.84 1444.87 263.12 1446.07 263.12ZM1470.92 267.4C1470.16 267.4 1469.39 267.327 1468.6 267.18C1467.82 267.033 1467.1 266.76 1466.44 266.36C1465.79 265.96 1465.26 265.373 1464.86 264.6C1464.46 263.827 1464.26 262.807 1464.26 261.54C1464.26 261.247 1464.26 260.953 1464.26 260.66C1464.26 260.353 1464.26 260.04 1464.26 259.72V249.96H1459.24V245.76H1461.28C1461.98 245.76 1462.52 245.733 1462.92 245.68C1463.32 245.613 1463.62 245.467 1463.8 245.24C1463.99 245.013 1464.11 244.66 1464.16 244.18C1464.23 243.687 1464.26 243.007 1464.26 242.14V238.76H1469.54V245.76H1475.86V249.96H1469.54V258.48C1469.54 258.733 1469.54 258.987 1469.54 259.24C1469.54 259.48 1469.54 259.713 1469.54 259.94C1469.54 260.927 1469.66 261.72 1469.9 262.32C1470.14 262.92 1470.71 263.22 1471.6 263.22C1472.03 263.22 1472.43 263.18 1472.8 263.1C1473.19 263.02 1473.48 262.94 1473.66 262.86V266.98C1473.41 267.073 1473.04 267.167 1472.56 267.26C1472.08 267.353 1471.54 267.4 1470.92 267.4ZM1480.81 258.08V254.34H1495.67L1495.07 255.34C1495.07 255.26 1495.07 255.173 1495.07 255.08C1495.07 254.973 1495.07 254.887 1495.07 254.82C1495.07 253.9 1494.86 253.04 1494.45 252.24C1494.04 251.427 1493.41 250.773 1492.57 250.28C1491.73 249.773 1490.66 249.52 1489.37 249.52C1488.09 249.52 1486.98 249.793 1486.03 250.34C1485.1 250.873 1484.37 251.647 1483.85 252.66C1483.34 253.673 1483.09 254.887 1483.09 256.3C1483.09 257.753 1483.34 259.007 1483.83 260.06C1484.32 261.1 1485.04 261.9 1485.99 262.46C1486.95 263.007 1488.12 263.28 1489.49 263.28C1490.42 263.28 1491.23 263.193 1491.91 263.02C1492.59 262.847 1493.14 262.613 1493.57 262.32C1494.01 262.013 1494.34 261.687 1494.55 261.34C1494.78 260.993 1494.91 260.647 1494.95 260.3H1500.19C1500.11 261.193 1499.81 262.067 1499.29 262.92C1498.78 263.76 1498.07 264.527 1497.15 265.22C1496.23 265.9 1495.11 266.447 1493.79 266.86C1492.48 267.26 1490.99 267.46 1489.31 267.46C1487.03 267.46 1485.04 266.993 1483.33 266.06C1481.62 265.127 1480.29 263.827 1479.33 262.16C1478.38 260.493 1477.91 258.587 1477.91 256.44C1477.91 254.24 1478.39 252.313 1479.35 250.66C1480.32 249.007 1481.67 247.72 1483.39 246.8C1485.11 245.867 1487.08 245.4 1489.31 245.4C1491.6 245.4 1493.58 245.867 1495.25 246.8C1496.93 247.733 1498.22 249.033 1499.13 250.7C1500.04 252.353 1500.49 254.28 1500.49 256.48C1500.49 256.76 1500.48 257.06 1500.47 257.38C1500.46 257.7 1500.44 257.933 1500.41 258.08H1480.81ZM1504.43 267V245.76H1509.69V252.82L1508.47 252.14C1508.6 251.22 1508.85 250.353 1509.21 249.54C1509.57 248.713 1510.05 247.993 1510.65 247.38C1511.25 246.753 1511.97 246.267 1512.83 245.92C1513.68 245.573 1514.65 245.4 1515.75 245.4C1516.61 245.4 1517.29 245.467 1517.79 245.6C1518.29 245.72 1518.61 245.82 1518.73 245.9L1517.77 250.72C1517.63 250.627 1517.36 250.513 1516.95 250.38C1516.55 250.233 1516.01 250.16 1515.33 250.16C1514.25 250.16 1513.34 250.347 1512.61 250.72C1511.89 251.08 1511.31 251.573 1510.89 252.2C1510.46 252.813 1510.15 253.493 1509.97 254.24C1509.78 254.973 1509.69 255.707 1509.69 256.44V267H1504.43ZM1535.6 235.74L1523.98 270.1H1519.68L1531.32 235.74H1535.6ZM1542.14 246.62L1555.24 254.58V258.18L1542.14 266.12V261.68L1553.16 255.8V256.96L1542.14 251.04V246.62Z" fill="#DA2F84"/>
<rect x="973" y="208" width="290" height="96" rx="48" fill="#E9D6FF"/>
<rect x="973" y="208" width="290" height="96" rx="48" stroke="#A75EFA" stroke-width="6"/>
<path d="M1054.78 266.12L1041.66 258.18V254.58L1054.78 246.62V251.04L1043.76 256.96V255.8L1054.78 261.68V266.12ZM1074.02 237.5C1075.99 237.5 1077.63 237.78 1078.94 238.34C1080.25 238.887 1081.23 239.687 1081.88 240.74C1082.55 241.793 1082.88 243.08 1082.88 244.6C1082.88 246.067 1082.58 247.313 1081.98 248.34C1081.39 249.353 1080.65 250.133 1079.74 250.68C1078.83 251.227 1077.9 251.533 1076.94 251.6C1077.95 251.627 1078.97 251.873 1079.98 252.34C1081.01 252.807 1081.86 253.553 1082.54 254.58C1083.22 255.607 1083.56 256.987 1083.56 258.72C1083.56 260.36 1083.23 261.807 1082.58 263.06C1081.93 264.3 1080.89 265.267 1079.46 265.96C1078.05 266.653 1076.2 267 1073.92 267H1062.98V237.5H1074.02ZM1068.02 251.2L1066.28 249.66H1072.22C1073.98 249.66 1075.31 249.293 1076.22 248.56C1077.14 247.813 1077.6 246.78 1077.6 245.46C1077.6 244.567 1077.41 243.847 1077.02 243.3C1076.65 242.753 1076.09 242.353 1075.34 242.1C1074.61 241.833 1073.72 241.7 1072.68 241.7H1065.64L1068.02 239.08V251.2ZM1072.88 262.8C1074.59 262.8 1075.9 262.413 1076.82 261.64C1077.74 260.867 1078.2 259.787 1078.2 258.4C1078.2 257.6 1078.05 256.913 1077.76 256.34C1077.48 255.753 1077.08 255.28 1076.56 254.92C1076.05 254.547 1075.45 254.273 1074.76 254.1C1074.08 253.927 1073.33 253.84 1072.52 253.84H1066.28L1068.02 252.28V265.42L1065.64 262.8H1072.88ZM1098.28 267.42C1096.04 267.42 1094.06 266.953 1092.36 266.02C1090.65 265.073 1089.31 263.767 1088.34 262.1C1087.38 260.433 1086.9 258.527 1086.9 256.38C1086.9 254.22 1087.38 252.32 1088.34 250.68C1089.31 249.027 1090.65 247.733 1092.36 246.8C1094.06 245.867 1096.04 245.4 1098.28 245.4C1100.52 245.4 1102.49 245.867 1104.2 246.8C1105.9 247.733 1107.24 249.027 1108.2 250.68C1109.17 252.32 1109.66 254.22 1109.66 256.38C1109.66 258.527 1109.17 260.433 1108.2 262.1C1107.24 263.767 1105.9 265.073 1104.2 266.02C1102.49 266.953 1100.52 267.42 1098.28 267.42ZM1098.28 263.12C1099.49 263.12 1100.55 262.84 1101.46 262.28C1102.36 261.72 1103.07 260.94 1103.58 259.94C1104.08 258.927 1104.34 257.74 1104.34 256.38C1104.34 255.02 1104.08 253.847 1103.58 252.86C1103.07 251.86 1102.36 251.087 1101.46 250.54C1100.55 249.993 1099.49 249.72 1098.28 249.72C1097.08 249.72 1096.02 249.993 1095.1 250.54C1094.19 251.087 1093.48 251.86 1092.98 252.86C1092.47 253.847 1092.22 255.02 1092.22 256.38C1092.22 257.74 1092.47 258.927 1092.98 259.94C1093.48 260.94 1094.19 261.72 1095.1 262.28C1096.02 262.84 1097.08 263.12 1098.28 263.12ZM1122.43 267.44C1120.68 267.44 1119.06 267.02 1117.57 266.18C1116.09 265.327 1114.9 264.073 1114.01 262.42C1113.12 260.767 1112.67 258.733 1112.67 256.32C1112.67 253.973 1113.12 251.987 1114.03 250.36C1114.95 248.733 1116.15 247.5 1117.63 246.66C1119.12 245.82 1120.72 245.4 1122.43 245.4C1124.1 245.4 1125.64 245.813 1127.05 246.64C1128.46 247.453 1129.6 248.587 1130.45 250.04C1131.3 251.493 1131.73 253.16 1131.73 255.04C1131.73 255.093 1131.73 255.147 1131.73 255.2C1131.73 255.253 1131.73 255.307 1131.73 255.36L1129.13 255.42C1129.13 255.38 1129.13 255.34 1129.13 255.3C1129.13 255.247 1129.13 255.2 1129.13 255.16C1129.13 254.107 1128.86 253.187 1128.33 252.4C1127.81 251.613 1127.13 251 1126.29 250.56C1125.46 250.107 1124.58 249.88 1123.65 249.88C1122.12 249.88 1120.81 250.4 1119.73 251.44C1118.65 252.467 1118.11 254.093 1118.11 256.32C1118.11 258.533 1118.65 260.167 1119.73 261.22C1120.81 262.273 1122.12 262.8 1123.65 262.8C1124.62 262.8 1125.52 262.567 1126.35 262.1C1127.18 261.633 1127.84 260.993 1128.35 260.18C1128.87 259.353 1129.13 258.407 1129.13 257.34L1131.73 257.46C1131.73 259.327 1131.31 261.02 1130.47 262.54C1129.64 264.047 1128.53 265.24 1127.13 266.12C1125.73 267 1124.16 267.44 1122.43 267.44ZM1129.13 267V235.74H1134.41V267H1129.13ZM1140.57 276.12C1139.94 276.12 1139.38 276.087 1138.89 276.02C1138.39 275.967 1138.09 275.913 1137.97 275.86V271.76C1138.14 271.84 1138.43 271.9 1138.85 271.94C1139.27 271.993 1139.71 272.02 1140.17 272.02C1140.9 272.02 1141.53 271.873 1142.07 271.58C1142.61 271.287 1143.08 270.88 1143.47 270.36C1143.85 269.853 1144.16 269.26 1144.39 268.58L1144.85 267.24L1137.53 245.76H1143.03L1148.05 263.48H1147.41L1152.31 245.76H1157.71L1150.27 268.3C1149.75 269.86 1149.11 271.227 1148.37 272.4C1147.63 273.573 1146.65 274.487 1145.43 275.14C1144.2 275.793 1142.58 276.12 1140.57 276.12ZM1174.66 235.74L1163.04 270.1H1158.74L1170.38 235.74H1174.66ZM1181.2 246.62L1194.3 254.58V258.18L1181.2 266.12V261.68L1192.22 255.8V256.96L1181.2 251.04V246.62Z" fill="#3B0076"/>
<mask id="path-16-outside-1_1648_2537" maskUnits="userSpaceOnUse" x="762" y="142" width="711" height="50" fill="black">
<rect fill="white" x="762" y="142" width="711" height="50"/>
<path fill-rule="evenodd" clip-rule="evenodd" d="M1118 146C1118.77 146 1119.48 146.293 1120.01 146.775C1120.18 146.927 1120.33 147.097 1120.46 147.284C1120.68 147.597 1120.84 147.954 1120.93 148.339C1121.58 150.941 1122.44 152.707 1123.38 153.838L1123.4 153.869C1124.29 154.979 1125.55 155.826 1127.34 156.346C1129.26 156.905 1131.94 157.23 1135.47 157.23H1443.7C1450.12 157.23 1455.6 158.556 1459.89 161.502C1463.67 164.103 1469 169.018 1469 176V185C1469 186.657 1467.66 188 1466 188C1464.34 188 1463 186.657 1463 185V176C1463 172.182 1459.96 168.834 1456.48 166.444C1453.51 164.399 1449.34 163.23 1443.7 163.23H1135.47C1131.64 163.23 1128.34 162.886 1125.67 162.108C1123.93 161.602 1122.36 160.847 1121 159.827V185C1121 186.657 1119.66 188 1118 188C1116.34 188 1115 186.657 1115 185V159.826C1113.64 160.847 1112.07 161.602 1110.33 162.108C1107.66 162.886 1104.36 163.23 1100.53 163.23H791.296C785.658 163.23 781.488 164.399 778.516 166.444C775.044 168.834 772 172.182 772 176V185C772 186.657 770.657 188 769 188C767.343 188 766 186.657 766 185V176C766 169.018 771.333 164.103 775.114 161.502C779.395 158.556 784.88 157.23 791.296 157.23H1100.53C1104.06 157.23 1106.73 156.905 1108.66 156.346C1110.44 155.826 1111.7 154.979 1112.6 153.869L1112.62 153.838C1113.56 152.706 1114.42 150.94 1115.07 148.339C1115.16 147.954 1115.32 147.597 1115.54 147.284C1115.67 147.097 1115.82 146.926 1115.99 146.775C1116.52 146.293 1117.23 146 1118 146Z"/>
</mask>
<path fill-rule="evenodd" clip-rule="evenodd" d="M1118 146C1118.77 146 1119.48 146.293 1120.01 146.775C1120.18 146.927 1120.33 147.097 1120.46 147.284C1120.68 147.597 1120.84 147.954 1120.93 148.339C1121.58 150.941 1122.44 152.707 1123.38 153.838L1123.4 153.869C1124.29 154.979 1125.55 155.826 1127.34 156.346C1129.26 156.905 1131.94 157.23 1135.47 157.23H1443.7C1450.12 157.23 1455.6 158.556 1459.89 161.502C1463.67 164.103 1469 169.018 1469 176V185C1469 186.657 1467.66 188 1466 188C1464.34 188 1463 186.657 1463 185V176C1463 172.182 1459.96 168.834 1456.48 166.444C1453.51 164.399 1449.34 163.23 1443.7 163.23H1135.47C1131.64 163.23 1128.34 162.886 1125.67 162.108C1123.93 161.602 1122.36 160.847 1121 159.827V185C1121 186.657 1119.66 188 1118 188C1116.34 188 1115 186.657 1115 185V159.826C1113.64 160.847 1112.07 161.602 1110.33 162.108C1107.66 162.886 1104.36 163.23 1100.53 163.23H791.296C785.658 163.23 781.488 164.399 778.516 166.444C775.044 168.834 772 172.182 772 176V185C772 186.657 770.657 188 769 188C767.343 188 766 186.657 766 185V176C766 169.018 771.333 164.103 775.114 161.502C779.395 158.556 784.88 157.23 791.296 157.23H1100.53C1104.06 157.23 1106.73 156.905 1108.66 156.346C1110.44 155.826 1111.7 154.979 1112.6 153.869L1112.62 153.838C1113.56 152.706 1114.42 150.94 1115.07 148.339C1115.16 147.954 1115.32 147.597 1115.54 147.284C1115.67 147.097 1115.82 146.926 1115.99 146.775C1116.52 146.293 1117.23 146 1118 146Z" fill="#2A3751"/>
<path d="M1120.01 146.775L1117.33 149.741L1117.33 149.742L1120.01 146.775ZM1120.46 147.284L1117.18 149.573L1117.18 149.575L1120.46 147.284ZM1120.93 148.339L1117.02 149.216C1117.03 149.247 1117.04 149.277 1117.05 149.307L1120.93 148.339ZM1123.38 153.838L1126.47 151.307C1126.47 151.301 1126.46 151.294 1126.46 151.287L1123.38 153.838ZM1123.4 153.869L1126.52 151.36C1126.51 151.353 1126.5 151.346 1126.5 151.339L1123.4 153.869ZM1127.34 156.346L1126.23 160.187L1126.23 160.187L1127.34 156.346ZM1459.89 161.502L1457.62 164.797L1457.62 164.797L1459.89 161.502ZM1456.48 166.444L1458.75 163.149L1458.75 163.149L1456.48 166.444ZM1125.67 162.108L1126.78 158.267L1126.78 158.267L1125.67 162.108ZM1121 159.827L1123.4 156.626C1122.19 155.718 1120.57 155.571 1119.21 156.249C1117.86 156.927 1117 158.312 1117 159.827H1121ZM1115 159.826H1119C1119 158.311 1118.14 156.926 1116.79 156.248C1115.43 155.571 1113.81 155.717 1112.6 156.626L1115 159.826ZM1110.33 162.108L1111.45 165.949L1111.45 165.949L1110.33 162.108ZM778.516 166.444L780.783 169.74L780.783 169.74L778.516 166.444ZM775.114 161.502L777.382 164.797L777.382 164.797L775.114 161.502ZM1108.66 156.346L1109.77 160.187L1109.77 160.187L1108.66 156.346ZM1112.6 153.869L1109.5 151.339C1109.49 151.346 1109.49 151.353 1109.48 151.36L1112.6 153.869ZM1112.62 153.838L1109.54 151.287C1109.54 151.294 1109.53 151.301 1109.53 151.307L1112.62 153.838ZM1115.07 148.339L1118.95 149.307C1118.96 149.277 1118.97 149.247 1118.98 149.217L1115.07 148.339ZM1115.54 147.284L1118.82 149.575L1118.82 149.573L1115.54 147.284ZM1115.99 146.775L1118.67 149.742L1118.67 149.741L1115.99 146.775ZM1118 150C1117.74 150 1117.5 149.899 1117.33 149.741L1122.7 143.809C1121.46 142.688 1119.8 142 1118 142V150ZM1117.33 149.742C1117.27 149.692 1117.22 149.636 1117.18 149.573L1123.74 144.995C1123.44 144.559 1123.09 144.161 1122.7 143.808L1117.33 149.742ZM1117.18 149.575C1117.11 149.471 1117.05 149.35 1117.02 149.216L1124.83 147.461C1124.63 146.558 1124.25 145.723 1123.74 144.993L1117.18 149.575ZM1117.05 149.307C1117.78 152.259 1118.85 154.642 1120.29 156.389L1126.46 151.287C1126.03 150.771 1125.37 149.624 1124.81 147.371L1117.05 149.307ZM1120.28 156.369L1120.3 156.4L1126.5 151.339L1126.47 151.307L1120.28 156.369ZM1120.29 156.378C1121.76 158.206 1123.76 159.469 1126.23 160.187L1128.46 152.506C1127.35 152.184 1126.83 151.751 1126.52 151.36L1120.29 156.378ZM1126.23 160.187C1128.65 160.892 1131.74 161.23 1135.47 161.23V153.23C1132.14 153.23 1129.88 152.918 1128.46 152.506L1126.23 160.187ZM1135.47 161.23H1443.7V153.23H1135.47V161.23ZM1443.7 161.23C1449.6 161.23 1454.21 162.452 1457.62 164.797L1462.15 158.206C1457 154.66 1450.64 153.23 1443.7 153.23V161.23ZM1457.62 164.797C1461.2 167.261 1465 171.131 1465 176H1473C1473 166.906 1466.13 160.946 1462.15 158.206L1457.62 164.797ZM1465 176V185H1473V176H1465ZM1465 185C1465 184.448 1465.45 184 1466 184V192C1469.87 192 1473 188.866 1473 185H1465ZM1466 184C1466.55 184 1467 184.448 1467 185H1459C1459 188.866 1462.13 192 1466 192V184ZM1467 185V176H1459V185H1467ZM1467 176C1467 170.078 1462.44 165.686 1458.75 163.149L1454.22 169.74C1457.47 171.981 1459 174.285 1459 176H1467ZM1458.75 163.149C1454.91 160.504 1449.86 159.23 1443.7 159.23V167.23C1448.82 167.23 1452.12 168.294 1454.22 169.74L1458.75 163.149ZM1443.7 159.23H1135.47V167.23H1443.7V159.23ZM1135.47 159.23C1131.84 159.23 1128.96 158.899 1126.78 158.267L1124.55 165.949C1127.73 166.873 1131.44 167.23 1135.47 167.23V159.23ZM1126.78 158.267C1125.46 157.88 1124.33 157.326 1123.4 156.626L1118.6 163.027C1120.39 164.369 1122.4 165.324 1124.55 165.949L1126.78 158.267ZM1117 159.827V185H1125V159.827H1117ZM1117 185C1117 184.448 1117.45 184 1118 184V192C1121.87 192 1125 188.866 1125 185H1117ZM1118 184C1118.55 184 1119 184.448 1119 185H1111C1111 188.866 1114.13 192 1118 192V184ZM1119 185V159.826H1111V185H1119ZM1112.6 156.626C1111.67 157.326 1110.54 157.88 1109.21 158.267L1111.45 165.949C1113.6 165.324 1115.61 164.368 1117.4 163.026L1112.6 156.626ZM1109.21 158.267C1107.04 158.899 1104.16 159.23 1100.53 159.23V167.23C1104.56 167.23 1108.27 166.873 1111.45 165.949L1109.21 158.267ZM1100.53 159.23H791.296V167.23H1100.53V159.23ZM791.296 159.23C785.138 159.23 780.092 160.504 776.248 163.149L780.783 169.74C782.884 168.294 786.177 167.23 791.296 167.23V159.23ZM776.248 163.149C772.562 165.686 768 170.078 768 176H776C776 174.285 777.525 171.981 780.783 169.74L776.248 163.149ZM768 176V185H776V176H768ZM768 185C768 184.448 768.448 184 769 184V192C772.866 192 776 188.866 776 185H768ZM769 184C769.552 184 770 184.448 770 185H762C762 188.866 765.134 192 769 192V184ZM770 185V176H762V185H770ZM770 176C770 171.131 773.801 167.261 777.382 164.797L772.847 158.206C768.865 160.946 762 166.906 762 176H770ZM777.382 164.797C780.79 162.452 785.398 161.23 791.296 161.23V153.23C784.362 153.23 778.001 154.66 772.847 158.206L777.382 164.797ZM791.296 161.23H1100.53V153.23H791.296V161.23ZM1100.53 161.23C1104.26 161.23 1107.35 160.892 1109.77 160.187L1107.54 152.506C1106.12 152.918 1103.86 153.23 1100.53 153.23V161.23ZM1109.77 160.187C1112.24 159.469 1114.24 158.206 1115.71 156.378L1109.48 151.36C1109.17 151.751 1108.65 152.184 1107.54 152.506L1109.77 160.187ZM1115.7 156.4L1115.72 156.369L1109.53 151.307L1109.5 151.339L1115.7 156.4ZM1115.7 156.389C1117.15 154.643 1118.22 152.259 1118.95 149.307L1111.19 147.371C1110.63 149.622 1109.97 150.77 1109.54 151.287L1115.7 156.389ZM1118.98 149.217C1118.95 149.35 1118.89 149.471 1118.82 149.575L1112.26 144.993C1111.75 145.723 1111.37 146.559 1111.17 147.461L1118.98 149.217ZM1118.82 149.573C1118.78 149.636 1118.73 149.692 1118.67 149.742L1113.31 143.808C1112.91 144.161 1112.56 144.559 1112.26 144.995L1118.82 149.573ZM1118.67 149.741C1118.5 149.899 1118.26 150 1118 150V142C1116.2 142 1114.54 142.688 1113.3 143.809L1118.67 149.741Z" fill="white" mask="url(#path-16-outside-1_1648_2537)"/>
</svg>
